<svg xmlns="http://www.w3.org/2000/svg" width="128" height="128" fill-rule="evenodd" clip-rule="evenodd" image-rendering="optimizeQuality" shape-rendering="geometricPrecision" text-rendering="geometricPrecision">
  <path fill="#02d27b" d="M52.5-.5h22q43.014 10.013 53 53v22q-10.014 43.014-53 53h-22q-43.013-10.014-53-53v-22q10.013-43.013 53-53" opacity=".987"/>
  <path fill="#003224" d="M54.5 13.5q19.914-1.57 37 8.5 6.399 5.289-1.5 7.5-13.293-7.265-28.5-8-32.862 3.612-39.5 36a50.4 50.4 0 0 0 1 17A107 107 0 0 0 29.5 90q-.368 4.882-5 4-11.3-14.148-11-32.5 4.362-37.857 41-48m45 20q3.334-.483 5.5 2 16.809 27.923 0 56-5.24 4.503-7.5-2 15.741-25.821 0-51.5a27.6 27.6 0 0 1 2-4.5"/>
  <path fill="#003023" d="M80.5 48.5h-22v10h18v10h-17q-1.47 4.687-1 10h22v10h-35v-50h36q.47 5.313-1 10"/>
  <path fill="#019459" d="M80.5 48.5q-10.22 1.487-21 1v8q8.787-.483 17 1h-18v-10z"/>
  <path fill="#01995c" d="M59.5 68.5v9h22q.473 5.807-1 11v-10h-22q-.47-5.313 1-10"/>
  <path fill="#003224" d="M35.5 97.5q8.385 3.177 17 6.5 10.99 2.911 22 0l15-6.5q6.503 2.26 2 7.5-25.99 15.465-53 2-7.737-2.955-3-9.5"/>
</svg>
