<svg xmlns="http://www.w3.org/2000/svg" viewBox="0 0 40 40"><style type="text/css">.st0{fill-rule:evenodd;clip-rule:evenodd}</style><path fill-rule="evenodd" d="M25.7843 6.88298C25.9053 4.70448 27.7071 3 29.889 3C32.1594 3 34 4.84057 34 7.11103V21V26V35.0001C34 36.1046 33.1046 37.0001 32 37.0001H30.1289C28.9753 37.0001 28.0609 36.0267 28.1328 34.8753L28.8658 23.1477L27.1903 22.2168C25.8507 21.4726 25.054 20.0284 25.139 18.4983L25.7843 6.88298ZM7.91281 4.39153C7.96365 4.16277 8.16656 4 8.4009 4H9.47281C9.75928 4 9.98718 4.24021 9.97212 4.52628L9.52752 12.9737C9.51246 13.2598 9.74036 13.5 10.0268 13.5H10.5497C10.8056 13.5 11.0202 13.3068 11.0469 13.0523L11.9527 4.44766C11.9795 4.19318 12.1941 4 12.4499 4H13.5497C13.8056 4 14.0202 4.19318 14.0469 4.44766L14.9527 13.0523C14.9795 13.3068 15.1941 13.5 15.4499 13.5H15.9728C16.2593 13.5 16.4872 13.2598 16.4721 12.9737L16.0275 4.52628C16.0125 4.24021 16.2404 4 16.5268 4H17.5987C17.8331 4 18.036 4.16277 18.0868 4.39153L20.0474 13.2143C20.8561 16.8532 18.7773 20.3411 15.5171 21.5515L15.9354 34.9375C15.9706 36.066 15.0654 37 13.9363 37H12.9998H12.0633C10.9342 37 10.029 36.066 10.0643 34.9375L10.4826 21.5515C7.22232 20.3411 5.14356 16.8532 5.95219 13.2143L7.91281 4.39153Z" class="st0" clip-rule="evenodd"/></svg>