<svg xmlns="http://www.w3.org/2000/svg" viewBox="0 0 40 40"><style type="text/css">.st0{fill-rule:evenodd;clip-rule:evenodd}</style><path fill-rule="evenodd" d="M26 5C26 4.44772 25.5523 4 25 4H15C14.4477 4 14 4.44772 14 5V7C14 7.55228 14.4477 8 15 8H17C17.5523 8 18 8.44772 18 9V12.0822C10.0512 12.7364 2.62918 17.2755 2.03789 24.9992C1.99573 25.5499 2.44772 26 3 26H37C37.5523 26 38.0043 25.5499 37.9621 24.9992C37.3708 17.2755 29.9488 12.7364 22 12.0822V9C22 8.44772 22.4477 8 23 8H25C25.5523 8 26 7.55228 26 7V5ZM2.69425 30C1.71658 30 0.882196 30.7068 0.721466 31.6712L0.388133 33.6712C0.184956 34.8903 1.12504 36 2.36092 36H37.6391C38.875 36 39.815 34.8903 39.6119 33.6712L39.2785 31.6712C39.1178 30.7068 38.2834 30 37.3057 30H2.69425Z" class="st0" clip-rule="evenodd"/></svg>