<svg xmlns="http://www.w3.org/2000/svg" viewBox="0 0 40 40"><style>.st0{fill-rule:evenodd;clip-rule:evenodd}</style><path fill-rule="evenodd" d="M26 5a1 1 0 0 0-1-1H15a1 1 0 0 0-1 1v2a1 1 0 0 0 1 1h2a1 1 0 0 1 1 1v3.082C10.051 12.736 2.63 17.276 2.038 25c-.042.55.41 1 .962 1h34c.552 0 1.004-.45.962-1C37.371 17.275 29.95 12.735 22 12.081V9a1 1 0 0 1 1-1h2a1 1 0 0 0 1-1zM2.694 30a2 2 0 0 0-1.973 1.671l-.333 2A2 2 0 0 0 2.361 36h35.278a2 2 0 0 0 1.973-2.329l-.334-2A2 2 0 0 0 37.307 30z" class="st0" clip-rule="evenodd"/></svg>