<svg xmlns="http://www.w3.org/2000/svg" viewBox="0 0 40 40"><style>.st0{fill-rule:evenodd;clip-rule:evenodd}</style><path fill-rule="evenodd" d="M2 19.54V34a2 2 0 0 0 2 2h4a2 2 0 0 0 2-2v-4h20v4a2 2 0 0 0 2 2h4a2 2 0 0 0 2-2V19.54q0-.779-.15-1.54H39a1 1 0 0 0 1-1v-1a2 2 0 0 0-2-2h-1.6l-1.711-4.277c-.437-1.093-1.33-1.937-2.471-2.224A51.3 51.3 0 0 0 20 6c-5.386 0-9.865.907-12.218 1.499-1.14.287-2.034 1.131-2.471 2.224L3.6 14H2a2 2 0 0 0-2 2v1a1 1 0 0 0 1 1h1.15A8 8 0 0 0 2 19.54m5.35-3.98 1.39-3.337c.169-.404.466-.739.875-.894 1.203-.456 4.3-1.329 10.384-1.329s9.182.873 10.386 1.329c.41.155.706.49.875.894l1.39 3.337c.199.476-.006 1.007-.497 1.163C30.683 17.191 27.11 18 19.998 18s-10.682-.81-12.151-1.277c-.492-.156-.696-.686-.497-1.162M26 22.562a.72.72 0 0 1 .545-.697l6.212-1.553a1 1 0 0 1 1.243.97V22a2 2 0 0 1-2 2h-4.562A1.44 1.44 0 0 1 26 22.561m-20-1.28a1 1 0 0 1 1.243-.97l6.212 1.553a.72.72 0 0 1 .545.697c0 .795-.644 1.439-1.438 1.439H8a2 2 0 0 1-2-2z" class="st0" clip-rule="evenodd"/></svg>