<svg xmlns="http://www.w3.org/2000/svg" viewBox="0 0 40 40"><style>.st0{fill-rule:evenodd;clip-rule:evenodd}</style><path fill-rule="evenodd" d="M6 7.383C6 5.661 7.104 4.141 8.783 3.76A51.5 51.5 0 0 1 20 2.5c4.7 0 8.708.69 11.217 1.26C32.896 4.14 34 5.66 34 7.383V27.5a3 3 0 0 1-3 3h-1.034l1.862 4.188a2 2 0 1 1-3.656 1.624L25.59 30.5H14.411l-2.583 5.812a2 2 0 1 1-3.656-1.624l1.862-4.188H9a3 3 0 0 1-3-3zM29 18.5h-7.5V6.52c3.352.083 5.712.435 7.081.708.853.17 1.419.93 1.419 1.8V17.5a1 1 0 0 1-1 1M11.419 7.227c1.369-.273 3.73-.625 7.081-.708V18.5H11a1 1 0 0 1-1-1V9.027c0-.87.566-1.63 1.419-1.8M11 26.5a2 2 0 1 0 0-4 2 2 0 0 0 0 4m20-2a2 2 0 1 1-4 0 2 2 0 0 1 4 0" class="st0" clip-rule="evenodd"/></svg>