<svg xmlns="http://www.w3.org/2000/svg" viewBox="0 0 40 40"><style>.st0{fill-rule:evenodd;clip-rule:evenodd}</style><path d="M37.414 2.586a2 2 0 0 1 0 2.828l-3.208 3.209c3.001 4.345 2.124 9.857-1.787 13.757l-1.145 1.142a1.64 1.64 0 0 1-2.314 0L16.48 11.265a1.63 1.63 0 0 1 0-2.309l1.455-1.452c3.896-3.885 9.277-4.657 13.457-1.725l3.194-3.193a2 2 0 0 1 2.828 0M6.608 36.22l-3.194 3.194a2 2 0 1 1-2.828-2.828l3.208-3.209C.793 29.032 1.67 23.52 5.581 19.62l1.145-1.142a1.64 1.64 0 0 1 2.314 0l1.844 1.81 3.702-3.702a2 2 0 1 1 2.828 2.828l-3.677 3.677 3.2 3.143 3.649-3.648a2 2 0 1 1 2.828 2.828l-3.623 3.623 1.73 1.698a1.63 1.63 0 0 1 0 2.309l-1.456 1.452c-3.896 3.885-9.277 4.657-13.457 1.724" class="st0"/></svg>