<svg xmlns="http://www.w3.org/2000/svg" id="Layer_1" version="1.1" viewBox="0 0 68 68"><defs><style>.st0{fill:#00b268}.st1{fill:#8dc8ff}.st2{fill:#085239}.st3{fill:#03d47c}.st4{fill:#008c59}.st5{fill:none;stroke:#002140;stroke-linecap:round;stroke-linejoin:round;stroke-width:1px}</style></defs><path d="M53.76,28.094H6.717c-1.384,0-2.507,1.122-2.507,2.507v25.66c0,1.384,1.122,2.507,2.507,2.507h47.043c1.384,0,2.507-1.122,2.507-2.507v-25.66c0-1.384-1.122-2.507-2.507-2.507Z" class="st3"/><path d="M53.343,27.954H6.987c-1.655,0-2.997,1.342-2.997,2.997v24.663c0,1.655,1.342,2.997,2.997,2.997h46.356c1.655,0,2.997-1.342,2.997-2.997v-24.663c0-1.655-1.342-2.997-2.997-2.997Z" class="st5"/><path d="M8.934,53.613h7.077" class="st5"/><path d="M19.253,53.613h7.08" class="st5"/><path d="M16.11,41.13h-1.34c-.32,0-.58.26-.58.58v2.403c0,.32.26.58.58.58h1.34c.32,0,.58-.26.58-.58v-2.403c0-.32-.26-.58-.58-.58Z" class="st0"/><path d="M18.01,37.577h-2.003c-.32,0-.58.26-.58.58v2.58c0,.32.26.58.58.58h2.003c.32,0,.58-.26.58-.58v-2.58c0-.32-.26-.58-.58-.58Z" class="st1"/><path d="M19.317,41.7h-1.34c-.32,0-.58.26-.58.58v1.797c0,.32.26.58.58.58h1.34c.32,0,.58-.26.58-.58v-1.797c0-.32-.26-.58-.58-.58Z" class="st0"/><path d="M21.924,37.577h-2.003c-.32,0-.58.26-.58.58v3.54c0,.32.26.58.58.58h2.003c.32,0,.58-.26.58-.58v-3.54c0-.32-.26-.58-.58-.58Z" class="st1"/><path d="M13.59,44.087v-6.04c0-.313-.253-.57-.57-.57h-2.067c-.177,0-.34.08-.45.22l-.703.907c-.077.1-.12.223-.12.35v4.387c0,.117.037.23.103.323l.527.757c.107.153.283.243.47.243l2.243-.01c.313,0,.567-.257.567-.57v.003Z" class="st0"/><path d="M61.149,20.603L15.379,9.733c-1.347-.32-2.698.513-3.018,1.86l-5.929,24.965c-.32,1.347.513,2.698,1.86,3.018l45.77,10.87c1.347.32,2.698-.513,3.018-1.86l5.929-24.965c.32-1.347-.513-2.698-1.86-3.018Z" class="st2"/><path d="M60.777,20.376L15.675,9.665c-1.61-.382-3.226.613-3.608,2.223l-5.699,23.996c-.382,1.61.613,3.226,2.223,3.608l45.102,10.711c1.61.382,3.226-.613,3.608-2.223l5.699-23.996c.382-1.61-.613-3.226-2.223-3.608Z" class="st5"/><path d="M11.633,35.084l6.887,1.633" class="st5"/><path d="M21.677,37.467l6.887,1.637" class="st5"/><path d="M22.144,25.727l-1.197-.284c-.312-.074-.624.119-.698.43l-.518,2.183c-.074.312.119.624.43.698l1.197.284c.312.074.624-.119.698-.43l.518-2.183c.074-.312-.119-.624-.43-.698Z" class="st4"/><path d="M22.965,22.411l-1.197-.284c-.312-.074-.624.119-.698.43l-.384,1.618c-.074.312.119.624.43.698l1.197.284c.312.074.624-.119.698-.43l.384-1.618c.074-.312-.119-.624-.43-.698Z" class="st4"/><path d="M24.997,26.965l-1.197-.284c-.312-.074-.624.119-.698.43l-.384,1.618c-.074.312.119.624.43.698l1.197.284c.312.074.624-.119.698-.43l.384-1.618c.074-.312-.119-.624-.43-.698Z" class="st4"/><path d="M25.84,23.094l-1.197-.284c-.312-.074-.624.119-.698.43l-.552,2.325c-.074.312.119.624.43.698l1.197.284c.312.074.624-.119.698-.43l.552-2.325c.074-.312-.119-.624-.43-.698Z" class="st4"/><path d="M19.17,27.93l1.333-5.617c.07-.293-.11-.583-.403-.653l-1.92-.457c-.163-.04-.337,0-.467.103l-.853.687c-.093.077-.16.18-.19.297l-.97,4.077c-.027.107-.017.22.023.323l.323.82c.067.167.21.29.383.33l2.087.487c.29.067.583-.113.653-.403v.007Z" class="st4"/><path d="M56.278,24.233l-16.955-4.027c-1.32-.313-2.644.502-2.958,1.823l-.474,1.998c-.313,1.32.502,2.644,1.822,2.958l16.955,4.027c1.32.313,2.644-.503,2.958-1.823l.474-1.998c.314-1.32-.502-2.644-1.822-2.958Z" class="st3"/><path d="M47.556,49.287c-.087,2.657-2.31,4.737-4.967,4.65-2.657-.087-4.737-2.31-4.65-4.967.02-.663.177-1.293.44-1.86" class="st0"/></svg>