<?xml version="1.0" encoding="utf-8"?>
<!-- Generator: Adobe Illustrator 23.0.3, SVG Export Plug-In . SVG Version: 6.00 Build 0)  -->
<svg version="1.1" xmlns="http://www.w3.org/2000/svg" xmlns:xlink="http://www.w3.org/1999/xlink" x="0px" y="0px"
	 viewBox="0 0 40 40" style="enable-background:new 0 0 40 40;" xml:space="preserve">
<style type="text/css">
	.st0{fill:#1E6CB3;}
	.st1{clip-path:url(#SVGID_2_);}
	.st2{fill-rule:evenodd;clip-rule:evenodd;fill:#FFFFFF;}
	.st3{fill-rule:evenodd;clip-rule:evenodd;fill:#296BB4;}
</style>
<g id="Calque_2">
	<path class="st0" d="M20,40L20,40C9,40,0,31,0,20v0C0,9,9,0,20,0h0c11,0,20,9,20,20v0C40,31,31,40,20,40z"/>
</g>
<g id="Calque_3">
	<g>
		<defs>
			<path id="SVGID_1_" d="M20,40L20,40C9,40,0,31,0,20v0C0,9,9,0,20,0h0c11,0,20,9,20,20v0C40,31,31,40,20,40z"/>
		</defs>
		<clipPath id="SVGID_2_">
			<use xlink:href="#SVGID_1_"  style="overflow:visible;"/>
		</clipPath>
		<g class="st1">
			<polygon class="st2" points="14.4,33.7 14.4,19.2 40.2,19.2 40.2,23.2 37.2,26.4 40.2,29.6 40.2,33.7 35.5,33.7 32.9,30.9 
				30.4,33.7 14.4,33.7 			"/>
			<polygon class="st3" points="16.1,32.1 16.1,20.8 25.7,20.8 25.7,23.4 19.2,23.4 19.2,25.1 25.6,25.1 25.6,27.7 19.2,27.7 
				19.2,29.4 25.7,29.4 25.7,32.1 16.1,32.1 			"/>
			<polygon class="st3" points="25.7,32.1 31,26.4 25.7,20.8 29.8,20.8 33,24.3 36.3,20.8 40.2,20.8 40.2,20.8 35,26.4 40.2,31.9 
				40.2,32.1 36.2,32.1 32.9,28.5 29.7,32.1 25.7,32.1 			"/>
			<polygon class="st2" points="15.6,6.3 21.8,6.3 24,11.2 24,6.3 31.7,6.3 33,10 34.4,6.3 40.2,6.3 40.2,20.8 9.2,20.8 15.6,6.3 
							"/>
			<path class="st3" d="M16.8,7.9l-5,11.3h3.4l0.9-2.3h5.1l0.9,2.3h3.5l-5-11.3H16.8L16.8,7.9z M17.2,14.4l1.5-3.6l1.5,3.6H17.2
				L17.2,14.4z"/>
			<polygon class="st3" points="25.7,19.2 25.7,7.9 30.6,7.9 33.1,14.8 35.6,7.9 40.2,7.9 40.2,19.2 37.2,19.2 37.2,11.4 34.4,19.2 
				31.7,19.2 28.8,11.4 28.8,19.2 25.7,19.2 			"/>
		</g>
	</g>
</g>
</svg>
