<?xml version="1.0" encoding="utf-8"?>
<!-- Generator: Adobe Illustrator 27.3.1, SVG Export Plug-In . SVG Version: 6.00 Build 0)  -->
<svg version="1.1" id="Layer_1" xmlns="http://www.w3.org/2000/svg" xmlns:xlink="http://www.w3.org/1999/xlink" x="0px" y="0px"
	 viewBox="0 0 40 40" style="enable-background:new 0 0 40 40;" xml:space="preserve">
<style type="text/css">
	.st0{fill:#1E6CB3;}
	.st1{fill-rule:evenodd;clip-rule:evenodd;fill:#FFFFFF;}
	.st2{fill-rule:evenodd;clip-rule:evenodd;fill:#296BB4;}
</style>
<rect class="st0" width="40" height="40"/>
<g>
	<polygon class="st1" points="14.2,33.7 14.2,19.2 40,19.2 40,23.2 37,26.4 40,29.6 40,33.7 35.3,33.7 32.7,30.9 30.2,33.7 	"/>
	<polygon class="st2" points="15.9,32.1 15.9,20.8 25.5,20.8 25.5,23.4 19,23.4 19,25.1 25.4,25.1 25.4,27.7 19,27.7 19,29.4 
		25.5,29.4 25.5,32.1 	"/>
	<polygon class="st2" points="25.5,32.1 30.8,26.4 25.5,20.8 29.6,20.8 32.8,24.3 36.1,20.8 40,20.8 40,20.8 34.8,26.4 40,31.9 
		40,32.1 36,32.1 32.7,28.5 29.5,32.1 	"/>
	<polygon class="st1" points="15.4,6.3 21.6,6.3 23.8,11.2 23.8,6.3 31.5,6.3 32.8,10 34.2,6.3 40,6.3 40,20.8 9,20.8 	"/>
	<path class="st2" d="M16.6,7.9l-5,11.3H15l0.9-2.3H21l0.9,2.3h3.5l-5-11.3L16.6,7.9L16.6,7.9z M17,14.4l1.5-3.6l1.5,3.6H17L17,14.4
		z"/>
	<polygon class="st2" points="25.5,19.2 25.5,7.9 30.4,7.9 32.9,14.8 35.4,7.9 40,7.9 40,19.2 37,19.2 37,11.4 34.2,19.2 31.5,19.2 
		28.6,11.4 28.6,19.2 	"/>
</g>
</svg>
