<?xml version="1.0" encoding="utf-8"?>
<!-- Generator: Adobe Illustrator 23.0.3, SVG Export Plug-In . SVG Version: 6.00 Build 0)  -->
<svg version="1.1" id="Calque_1" xmlns="http://www.w3.org/2000/svg" xmlns:xlink="http://www.w3.org/1999/xlink" x="0px" y="0px"
	 viewBox="0 0 40 40" style="enable-background:new 0 0 40 40;" xml:space="preserve">
<style type="text/css">
	.st0{fill:#FFFFFF;}
	.st1{fill:#D13028;}
	.st2{fill:#004A77;}
</style>
<g>
	<path class="st0" d="M20,40L20,40C9,40,0,31,0,20l0,0C0,9,9,0,20,0l0,0c11,0,20,9,20,20l0,0C40,31,31,40,20,40z"/>
</g>
<g id="Calque_3">
	<g transform="scale(1.127)">
		<path class="st1" d="M23,19.1L23,19.1c-1.2,0.8-2.7,1.8-4.3,2.8h-0.1c0,0,0,0,0,0.1c0,0,0,0,0.1,0h0.1c1.3-0.7,2.9-1.5,4.4-2.4
			l0,0C23.1,19.4,23,19.2,23,19.1z M31.2,12.5c-2-2.2-14.6-0.2-19.9,0.9h-0.1c0,0,0,0,0,0.1c0,0,0,0,0.1,0h0.1
			c4.4-0.8,13.7-1.9,15.7,0.1c0.6,0.6,0.5,1.4-0.3,2.3c0.4,0.3,0.7,0.7,0.8,1.1C30.1,15.2,32,13.4,31.2,12.5L31.2,12.5z"/>
		<g>
			<path class="st2" d="M23.7,18.5c0,0.8,0.5,1.4,1.1,1.4c1.2,0,1.7-1.5,1.7-2.4c0-0.8-0.6-1.4-1.1-1.4C24.4,16,23.7,17.5,23.7,18.5
				z M23.1,18.5c0-1.3,0.9-2.6,2.4-2.6c0.9,0,1.6,0.7,1.7,1.7c0.1,1.4-0.9,2.6-2.4,2.6C23.8,20.2,23.2,19.5,23.1,18.5L23.1,18.5z"/>
			<path class="st2" d="M9,18.1c-0.1,0-0.1,0-0.2,0.1c-0.1,0-0.3,0-0.5,0.1c-0.2,0-0.3,0.1-0.3,0.1C8,18.4,8,18.5,8,18.5
				c0,0.1,0,0.1,0.1,0.2c0.1,0,0.2,0.1,0.3,0.1c0.1,0,0.2,0,0.3-0.1c0.1,0,0.2-0.1,0.3-0.1S9,18.5,9,18.4C9,18.4,9,18.3,9,18.1z
				 M10.4,17.4c0,0.1,0,0.2-0.1,0.4L10.1,19c0,0.1,0,0.2,0.1,0.3v0.1H9v-0.3c-0.2,0.1-0.4,0.2-0.6,0.3c-0.2,0.1-0.4,0.1-0.6,0.1
				c-0.4,0-0.7,0-0.8-0.2c-0.2-0.2-0.3-0.3-0.2-0.5c0-0.1,0.1-0.3,0.2-0.4s0.2-0.2,0.4-0.2c-0.1-0.2,0.1-0.3,0.3-0.3
				c0.2,0,0.6-0.1,0.9-0.1c0.2,0,0.4-0.1,0.4-0.1c0.1,0,0.1-0.1,0.1-0.1c0-0.1,0-0.2-0.2-0.2c-0.5-0.1-1.3,0.1-1.7,0.2L7.5,17
				c0.6-0.1,1.1-0.1,1.7-0.1C10.1,16.7,10.4,17,10.4,17.4z"/>
			<path class="st2" d="M14,19.2l0.5-2.4h1.2l-0.5,2.4H14z M14.5,16.2c0-0.2,0.4-0.4,0.7-0.4c0.4,0,0.7,0.2,0.6,0.4
				c0,0.2-0.4,0.4-0.8,0.4C14.7,16.6,14.4,16.4,14.5,16.2z"/>
			<path class="st2" d="M19.9,18.1c-0.1,0-0.1,0-0.2,0.1c-0.1,0-0.3,0-0.5,0.1c-0.2,0-0.3,0.1-0.3,0.1c-0.1,0-0.1,0.1-0.1,0.2
				s0,0.1,0.1,0.2c0.1,0,0.2,0.1,0.3,0.1c0.1,0,0.2,0,0.3,0s0.2-0.1,0.3-0.1c0,0,0.1-0.1,0.1-0.2C19.8,18.4,19.8,18.3,19.9,18.1z
				 M21.1,17.4c0,0.1,0,0.2-0.1,0.4L20.8,19c0,0.1,0,0.2,0.1,0.3l0,0h-1.2V19c-0.2,0.1-0.4,0.2-0.6,0.3c-0.2,0.1-0.4,0.1-0.6,0.1
				c-0.4,0-0.7,0-0.8-0.2c-0.2-0.2-0.3-0.3-0.2-0.5c0-0.1,0.1-0.3,0.2-0.4c0.1-0.1,0.2-0.2,0.4-0.2c0.2,0,0.3-0.1,0.5-0.2
				c0.2,0,0.6-0.1,0.9-0.1c0.2,0,0.4-0.1,0.4-0.1c0.1,0,0.1-0.1,0.1-0.2s0-0.2-0.2-0.2c-0.5-0.1-1.3,0.1-1.7,0.2l0.2-0.7
				c0.6-0.1,1.1-0.1,1.7-0.1C20.8,16.7,21.1,17,21.1,17.4z"/>
			<path class="st2" d="M6.6,18.4c-0.4,0.1-0.6,0.1-1,0.1c-0.6,0-1-0.3-1-0.8c0-0.4,0.5-1,1.5-1c0.3,0,0.6,0.1,0.9,0.3L7.2,16
				c-0.5-0.2-0.8-0.2-1.2-0.2c-1.3,0-2.6,0.7-2.8,1.9c-0.2,1.3,1.4,1.6,2.1,1.6c0.4,0,0.8,0,1.2-0.1L6.6,18.4z"/>
			<path class="st2" d="M16.3,16.8l0.1-0.5l1.2-0.3l-0.2,0.8H18l-0.1,0.5h-0.6l-0.4,2h-1.2l0.4-2h-0.5l0.1-0.5H16.3L16.3,16.8z"/>
			<polygon class="st2" points="22.9,15.9 22.3,19.2 21.1,19.2 21.8,15.9 			"/>
			<path class="st2" d="M12.4,17.4c-0.2,0-0.3,0.1-0.4,0.2c-0.2,0.1-0.3,0.2-0.3,0.4c0,0.2,0,0.4,0.1,0.5c0.1,0.1,0.2,0.2,0.4,0.2
				c0.1,0,0.2,0,0.3-0.1c0.1-0.1,0.2-0.1,0.2-0.2c0.1-0.1,0.1-0.2,0.1-0.3c0-0.2,0-0.4-0.1-0.5C12.7,17.5,12.5,17.4,12.4,17.4z
				 M10.3,20.1l0.6-3.3h1l-0.1,0.5c0.1-0.1,0.3-0.2,0.5-0.3c0.2-0.1,0.5-0.2,0.7-0.2c0.3,0,0.5,0,0.7,0.1c0.2,0.1,0.4,0.3,0.4,0.5
				C14,17.5,14,17.7,14,18c-0.1,0.4-0.3,0.8-0.6,0.9s-0.6,0.3-1,0.3c-0.2,0-0.3,0-0.4,0s-0.2-0.1-0.3-0.1c-0.1,0-0.1-0.1-0.2-0.2
				l-0.2,1.1H10.3z"/>
			<path class="st2" d="M31.9,17.6c0-0.2-0.1-0.3-0.3-0.3c-0.5,0-1,0.9-1.1,1.3C31.3,18.7,31.9,18.2,31.9,17.6z M32,19.1L32,19.1
				c-0.2,0.6-0.7,0.9-1.2,0.9c-0.5,0-0.8-0.3-0.8-0.9c0-1,0.9-2,1.8-2c0.4,0,0.7,0.2,0.7,0.6c0,0.8-1.1,1.1-1.9,1.1
				c0,0.1,0,0.2,0,0.3c0,0.4,0.2,0.7,0.7,0.7C31.4,19.8,31.8,19.5,32,19.1L32,19.1z"/>
			<path class="st2" d="M27.2,17.6c0.1,0,0.2,0,0.3,0c0.1,0,0.2,0,0.2,0.1s-0.1,0.4-0.1,0.5l-0.2,0.8c-0.1,0.4-0.2,0.7-0.2,0.9h0.5
				l0.3-1.3c0.8-0.8,1.1-1.1,1.3-1.1c0.1,0,0.2,0,0.2,0.2c0,0.2-0.1,0.5-0.1,0.6l-0.3,0.9C29,19.4,29,19.6,29,19.8
				c0,0.2,0.1,0.3,0.3,0.3c0.4,0,0.6-0.4,0.8-0.8L30,19.2c-0.1,0.2-0.3,0.5-0.5,0.5c-0.1,0-0.1,0-0.1-0.1c0-0.1,0-0.3,0.1-0.4
				l0.3-1.1c0.1-0.3,0.1-0.5,0.1-0.6c0-0.2-0.1-0.3-0.3-0.3c-0.3,0-0.8,0.2-1.6,1.2l0,0l0.1-0.5c0.1-0.3,0.1-0.6,0.2-0.8
				C28.1,17.4,27.6,17.5,27.2,17.6L27.2,17.6z"/>
		</g>
	</g>
</g>
</svg>
