<?xml version="1.0" encoding="utf-8"?>
<!-- Generator: Adobe Illustrator 23.0.3, SVG Export Plug-In . SVG Version: 6.00 Build 0)  -->
<svg version="1.1" id="Calque_1" xmlns="http://www.w3.org/2000/svg" xmlns:xlink="http://www.w3.org/1999/xlink" x="0px" y="0px"
	 viewBox="0 0 40 40" style="enable-background:new 0 0 40 40;" xml:space="preserve">
<style type="text/css">
	.st0{fill:#0E9FDB;}
	.st1{fill-rule:evenodd;clip-rule:evenodd;fill:#FFFFFF;}
</style>
<g>
	<path class="st0" d="M20,40L20,40C9,40,0,31,0,20l0,0C0,9,9,0,20,0l0,0c11,0,20,9,20,20l0,0C40,31,31,40,20,40z"/>
</g>
<g id="Calque_3">
	<g>
		<g>
			<path class="st1" d="M33.9,18c0,0.9-1,1.7-2,1.7c-0.6,0-1.1-0.4-1.1-0.7c0-0.1,0-0.6,0.3-0.6c0.4,0,0.7,0.8,1.3,0.8
				c0.4,0,0.8-0.3,0.8-0.8c0-0.6-1-1.1-1-2.1s1-2.2,2.1-2.2c0.5,0,0.7,0.3,0.7,0.6c0,0.2-0.2,0.5-0.5,0.5c-0.4,0-0.7-0.3-1-0.3
				s-0.7,0.3-0.7,0.8C32.9,16.4,33.9,17,33.9,18L33.9,18z M14.4,18.3c-0.6,0.7-1.3,1.4-2.1,1.4c-0.3,0-0.4-0.2-0.4-0.4
				c0-0.7,1.4-2.9,1.4-3.8c0-0.3-0.1-0.4-0.4-0.4c-0.8,0-2.6,2.3-3.2,4.3c0,0.1-0.2,0.2-0.5,0.2s-0.4,0-0.4-0.2
				c0-0.2,1.2-3.3,1.8-4.9c0.5-1.4,0.9-2.4,0.9-2.7c0-0.2-0.1-0.3-0.4-0.3c-0.1,0-0.3,0-0.4,0l0,0v-0.2l0,0h1.6c0.1,0,0.2,0,0.2,0.1
				c0,0.1-0.4,1.2-1.1,3.2c-0.6,1.4-0.8,2-0.8,2s1.5-2.3,2.6-2.3c0.5,0,0.8,0.3,0.8,0.9c0,1-1.1,3.2-1.1,3.5c0,0.1,0.1,0.2,0.2,0.2
				c0.2,0,0.7-0.5,0.9-0.8l0,0l0,0L14.4,18.3C14.4,18.2,14.4,18.3,14.4,18.3L14.4,18.3z"/>
			<path class="st1" d="M8.7,18.4c-0.1,0.3-1,1.2-2.2,1.2S5.1,18.8,5,18.2C5,16,7.5,14.2,8.9,14.2c0.8,0,1,0.5,1,0.8
				c0,0.2-0.2,0.4-0.4,0.4c-0.5,0-0.6-0.8-1.1-0.8c-0.8,0-2.5,2.4-2.4,3.7c0,0.7,0.5,0.9,0.9,0.9c0.5,0,0.9-0.4,1.2-0.6
				c0.2-0.1,0.4-0.3,0.4-0.3l0,0L8.7,18.4L8.7,18.4L8.7,18.4z M20.6,15.7L20.6,15.7L20.6,15.7c0.1,0.1,0.1,0.1,0.2,0
				c0.2-0.2,0.7-0.8,0.8-0.8c0.1,0,0.2,0.1,0.2,0.3c0,0.8-1.3,3.9-1.3,4.1c0,0.1,0,0.2,0.1,0.2H21c0.1,0,0.1-0.1,0.2-0.2
				c0,0,0.2-0.6,0.4-0.8c0.9-2,1.5-2.9,1.9-3.3c0.8-0.8,0.8,0,1.1,0c0.3,0,0.5-0.3,0.5-0.6c0-0.4-0.3-0.5-0.5-0.5
				c-0.8,0-1.3,0.8-2.3,2.4c-0.1,0.1-0.1,0.2-0.2,0.2c0,0-0.1,0-0.1-0.1s0.5-1.8,0.5-2.1c0-0.3-0.1-0.4-0.4-0.4
				C21.8,14.2,20.8,15.2,20.6,15.7L20.6,15.7L20.6,15.7z M19.9,14.3l-0.3-0.2c0,0-0.1-0.1-0.1,0c-0.2,0.1-0.2,0.3-0.4,0.3
				s-0.4-0.1-0.8-0.1c-2.4,0-3.7,3.3-3.7,4.3c0,0.8,0.4,1,0.8,1c0.6,0,1.2-0.3,2.1-1.5c0.2-0.3,0.2-0.4,0.3-0.4c0,0,0.1,0,0.1,0.1
				s-0.4,0.8-0.4,1.3c0,0.4,0.1,0.5,0.4,0.5c0.7,0,1.5-1,1.8-1.5l0,0l-0.2-0.1l0,0c-0.3,0.3-0.8,0.9-0.9,0.9c-0.1,0-0.2,0-0.2-0.2
				c0-0.5,1.5-4,1.5-4.2C19.9,14.4,19.9,14.3,19.9,14.3L19.9,14.3z M16,18.9c-0.3,0-0.4-0.1-0.4-0.6c0-1.5,1.2-3.8,2.5-3.8
				c0.5,0,0.7,0.4,0.7,0.8C18.8,16,17.1,18.9,16,18.9z M30.5,18.4L30.5,18.4L30.5,18.4c-0.4,0.1-1,0.7-1.6,0.7
				c-0.6,0-0.9-0.4-0.9-0.9c0-0.8,0.4-1.3,0.6-1.7c0.2,0,0.3,0,0.7,0c0.8,0,2.5-0.4,2.5-1.4c0-0.5-0.4-0.8-1-0.8
				c-1.5,0-3.7,2.1-3.7,4c0,0.8,0.6,1.5,1.4,1.5C29.3,19.7,30.2,18.8,30.5,18.4L30.5,18.4z M28.7,16.2c0.2-0.3,1-1.7,1.7-1.7
				c0.3,0,0.5,0.3,0.5,0.6C30.9,15.7,30,16.1,28.7,16.2L28.7,16.2z M26.5,18.3c-0.5,0.6-1.1,1.4-1.8,1.4c-0.5,0-0.7-0.3-0.7-0.8
				c0-0.7,1.4-4.1,1.6-4.4c0.6-1.4,1-2.4,1-2.7c0-0.2-0.1-0.3-0.3-0.3c-0.1,0-0.3,0-0.4,0l0,0v-0.2l0,0h1.6c0.1,0,0.2,0,0.2,0.1
				c0,0.1-0.5,1.2-1.2,3.3c-0.7,1.8-1.4,3.8-1.4,4.1c0,0.2,0,0.2,0.2,0.2C25.5,19,25.9,18.7,26.5,18.3L26.5,18.3L26.5,18.3
				C26.6,18.3,26.6,18.3,26.5,18.3L26.5,18.3z"/>
		</g>
		<path class="st1" d="M7.7,22.9c-0.1-0.5-0.4-0.9-1-0.9c-0.5,0-0.8,0.4-0.8,0.8c0,0.5,0.3,0.8,0.9,0.9L7,23.8
			c0.6,0.3,1.1,0.7,1.1,1.5c0,0.9-0.8,1.5-1.7,1.5c-0.3,0-0.6-0.1-0.8-0.1c-0.3-0.1-0.5-0.2-0.6-0.2C5,26.3,5,25.8,5,25.3l0.2-0.1
			c0.2,0.5,0.6,1.3,1.3,1.3c0.5,0,0.8-0.4,0.8-0.8c0-0.5-0.2-0.8-0.8-1l-0.3-0.1C5.7,24.3,5,23.9,5,23.1c0-0.8,0.6-1.4,1.6-1.4
			c0.2,0,0.5,0,0.7,0.1c0.1,0,0.2,0.1,0.3,0.1C7.6,22.2,7.7,22.5,7.7,22.9L7.7,22.9L7.7,22.9z M12.9,23c-0.3-0.8-0.8-1.1-1.4-1.1
			c-1.2,0-1.8,1-1.8,2.2c0,1.4,0.7,2.4,1.8,2.4c0.8,0,1.2-0.5,1.6-1.2h0.2c-0.1,0.4-0.3,0.9-0.4,1.2c-0.2,0.1-0.9,0.2-1.4,0.2
			c-2,0-2.8-1.3-2.8-2.5c0-1.6,1.2-2.6,2.9-2.6c0.7,0,1.1,0.2,1.4,0.2c0.1,0.5,0.1,0.8,0.1,1.2L12.9,23L12.9,23z M15.8,21.7v0.2
			c-0.6,0-0.7,0.1-0.7,0.9v1h2.4v-1c0-0.8-0.1-0.8-0.7-0.9v-0.2h2.3v0.2c-0.6,0-0.7,0.1-0.7,0.9v2.6c0,0.8,0.1,0.8,0.7,0.9v0.2h-2.3
			v-0.2c0.7,0,0.7-0.1,0.7-0.9v-1.3h-2.4v1.3c0,0.8,0.1,0.8,0.7,0.9v0.2h-2.2v-0.2c0.6,0,0.7-0.1,0.7-0.9v-2.6
			c0-0.8-0.1-0.8-0.7-0.9v-0.2H15.8z M23.2,21.8l1.3,3.7l0,0c0.3-0.9,0.7-2.4,0.8-2.8c0.1-0.5,0.1-0.6-0.3-0.6h-0.3v-0.2h1.9v0.2
			c-0.5,0-0.6,0.1-0.8,0.8c-0.1,0.3-0.7,1.9-1.3,4H24l-1.2-3.8l0,0l-1.2,3.6h-0.4l-1.2-4c-0.2-0.7-0.4-0.7-0.8-0.8v-0.2h2.1v0.2
			h-0.2c-0.3,0-0.4,0.1-0.3,0.5l0.8,3l0,0l1.1-3.7L23.2,21.8L23.2,21.8z M28,22.9L28,22.9l0.7,1.7h-1.2L28,22.9z M28.2,21.7
			l-1.6,3.9c-0.3,0.7-0.4,0.8-0.8,0.8v0.2h1.8v-0.2h-0.2c-0.4,0-0.4-0.1-0.3-0.6c0.1-0.3,0.3-0.8,0.4-0.9h1.4
			c0.2,0.4,0.4,0.8,0.4,1.1c0.1,0.3,0.1,0.4-0.2,0.4h-0.2v0.2h2v-0.2c-0.5,0-0.6-0.1-0.8-0.8C29.7,24.9,29.3,24,29,23l-0.6-1.4
			L28.2,21.7L28.2,21.7z M32.5,22.4c0-0.2,0-0.3,0.1-0.4c0,0,0.2,0,0.4,0c0.5,0,0.9,0.2,0.9,0.9c0,0.7-0.4,0.9-1,0.9h-0.3L32.5,22.4
			L32.5,22.4z M31.1,21.7v0.2c0.6,0,0.6,0.1,0.6,0.9v2.6c0,0.8-0.1,0.8-0.7,0.9v0.2h1.9c0.6,0,1.1-0.1,1.4-0.3
			c0.4-0.3,0.7-0.6,0.7-1.1c0-0.8-0.6-1.2-1.4-1.3l0,0c0.5-0.1,1.1-0.5,1.1-1.1c0-0.4-0.2-0.7-0.5-0.8c-0.1-0.1-0.4-0.2-1-0.2H31.1
			L31.1,21.7z M32.8,24.2c0.8,0,1.3,0.4,1.3,1.1c0,0.8-0.6,1-1,1s-0.6-0.1-0.6-0.8v-1.3C32.5,24.2,32.8,24.2,32.8,24.2z"/>
	</g>
</g>
</svg>
