<?xml version="1.0" encoding="utf-8"?>
<!-- Generator: Adobe Illustrator 23.0.3, SVG Export Plug-In . SVG Version: 6.00 Build 0)  -->
<svg version="1.1" id="Calque_1" xmlns="http://www.w3.org/2000/svg" xmlns:xlink="http://www.w3.org/1999/xlink" x="0px" y="0px"
	 viewBox="0 0 40 40" style="enable-background:new 0 0 40 40;" xml:space="preserve">
<style type="text/css">
	.st0{fill:#1957A3;}
	.st1{fill:#FFFFFF;}
</style>
<path class="st0" d="M20,40L20,40C9,40,0,31,0,20l0,0C0,9,9,0,20,0l0,0c11,0,20,9,20,20l0,0C40,31,31,40,20,40z"/>
<path class="st1" d="M15.8,5c-0.6,0-1,0.5-1,1v7.4h19.7L25.5,5H15.8 M35,15.8c0-0.6-0.5-1-1-1l0,0h-7.4v19.7l8.5-8.9V15.8 M24.2,35
	c0.6,0,1-0.5,1-1v-7.4H5.6l8.9,8.5H24.2 M5,24.2c0,0.6,0.5,1,1,1l0,0h7.4V5.6L5,14.5V24.2"/>
</svg>
