<?xml version="1.0" encoding="utf-8"?>
<!-- Generator: Adobe Illustrator 27.3.1, SVG Export Plug-In . SVG Version: 6.00 Build 0)  -->
<svg version="1.1" id="Calque_1" xmlns="http://www.w3.org/2000/svg" xmlns:xlink="http://www.w3.org/1999/xlink" x="0px" y="0px"
	 viewBox="0 0 40 40" style="enable-background:new 0 0 40 40;" xml:space="preserve">
<style type="text/css">
	.st0{fill:#1957A3;}
	.st1{fill:#FFFFFF;}
</style>
<rect class="st0" width="40" height="40"/>
<path class="st1" d="M16.461,7.342c-0.507,0-0.844,0.422-0.844,0.844v6.248h16.634l-7.599-7.093H16.461 M32.673,16.461
	c0-0.507-0.422-0.844-0.844-0.844l0,0h-6.248v16.634l7.177-7.515v-8.275 M23.554,32.673c0.507,0,0.844-0.422,0.844-0.844v-6.248
	H7.849l7.515,7.177h8.19 M7.342,23.554c0,0.507,0.422,0.844,0.844,0.844l0,0h6.248V7.849l-7.093,7.515V23.554"/>
</svg>
