<?xml version="1.0" encoding="utf-8"?>
<!-- Generator: Adobe Illustrator 23.0.3, SVG Export Plug-In . SVG Version: 6.00 Build 0)  -->
<svg version="1.1" id="Calque_1" xmlns="http://www.w3.org/2000/svg" xmlns:xlink="http://www.w3.org/1999/xlink" x="0px" y="0px"
	 viewBox="0 0 40 40" style="enable-background:new 0 0 40 40;" xml:space="preserve">
<style type="text/css">
	.st0{fill:#008656;}
	.st1{fill:#FFFFFF;}
</style>
<g>
	<path class="st0" d="M20,40L20,40C9,40,0,31,0,20l0,0C0,9,9,0,20,0l0,0c11,0,20,9,20,20l0,0C40,31,31,40,20,40z"/>
</g>
<g id="Calque_4">
	<g>
		<g>
			<path class="st1" d="M7.8,28.6c-2.1,0-2.8-1.4-2.8-2.9c0-1.9,1-3.2,3-3.2c0.4,0,0.9,0.1,1.3,0.2l-0.2,1c-0.4-0.1-0.8-0.2-1.2-0.2
				c-1.1,0-1.7,0.9-1.7,2c0,1.3,0.6,2.1,1.8,2.1c0.4,0,0.9-0.1,1.2-0.3l0.1,1C8.9,28.5,8.3,28.6,7.8,28.6"/>
			<path class="st1" d="M10.9,23.8c-0.4,0-0.7-0.3-0.7-0.7c0-0.4,0.3-0.7,0.7-0.7s0.7,0.3,0.7,0.7S11.2,23.8,10.9,23.8 M10.3,24.1
				h1.2v4.4h-1.2V24.1z"/>
			<path class="st1" d="M14.3,28.6c-1,0-1.3-0.4-1.3-1.4V25h-0.8v-0.9H13v-1.4l1.2-0.3v1.7h1.1V25h-1.2v2c0,0.6,0.1,0.7,0.5,0.7
				c0.2,0,0.4,0,0.6-0.1v0.9C14.9,28.6,14.6,28.6,14.3,28.6"/>
			<path class="st1" d="M16.9,23.8c-0.4,0-0.7-0.3-0.7-0.7c0-0.4,0.3-0.7,0.7-0.7c0.4,0,0.7,0.3,0.7,0.7S17.2,23.8,16.9,23.8
				 M16.3,24.1h1.2v4.4h-1.2V24.1z"/>
			<path class="st1" d="M18.4,28.5v-0.8l1.8-2.7c-0.2,0-0.5,0-1,0h-0.8v-1h3v0.8l-1.8,2.6c0.2,0,0.7,0,1,0h0.8v1.1H18.4z"/>
			<path class="st1" d="M26.2,26.6h-2.8c0,0.8,0.4,1.2,1.2,1.2c0.4,0,0.9-0.1,1.3-0.3l0.1,0.9c-0.5,0.2-1.1,0.3-1.6,0.3
				c-1.4,0-2.2-0.7-2.2-2.3c0-1.4,0.8-2.4,2.1-2.4s1.9,0.9,1.9,2C26.3,26.2,26.2,26.4,26.2,26.6 M24.3,24.9c-0.5,0-0.8,0.4-0.9,0.9
				h1.7C25.1,25.2,24.8,24.9,24.3,24.9"/>
			<path class="st1" d="M29.9,28.5v-2.9c0-0.5-0.1-0.7-0.6-0.7c-0.6,0-1,0.7-1,1.5v2.2h-1.2v-4.4h1.1c0,0.2,0,0.6-0.1,0.8l0,0
				c0.3-0.5,0.8-0.9,1.5-0.9c1,0,1.3,0.7,1.3,1.4v3.1L29.9,28.5L29.9,28.5z"/>
			<path class="st1" d="M33.1,28.6c-0.3,0-0.7,0-0.9-0.1v-1c0.3,0.1,0.6,0.1,1,0.1s0.7-0.2,0.7-0.5c0-0.8-1.8-0.3-1.8-1.9
				c0-0.8,0.6-1.4,1.9-1.4c0.3,0,0.6,0,0.8,0.1v0.9c-0.3-0.1-0.5-0.1-0.8-0.1c-0.5,0-0.7,0.2-0.7,0.5c0,0.7,1.8,0.4,1.8,1.9
				C35,28,34.3,28.6,33.1,28.6"/>
		</g>
		<g>
			<path class="st1" d="M24.6,18.9c-0.3,0.3-0.8,0.3-1.1,0L21.8,17v1.3c0,0.5-0.3,0.8-0.8,0.8c-0.5,0-0.8-0.4-0.8-0.8v-1.6
				c0-0.4,0.2-0.6,0.5-0.7c0.5-0.2,0.9-0.6,1.1-1.1c0.1-0.3,0.4-0.5,0.7-0.5H24c0.4,0,0.8,0.4,0.8,0.8c0,0.4-0.3,0.8-0.8,0.8h-1.3
				l1.9,1.9C25,18.1,25,18.6,24.6,18.9"/>
			<path class="st1" d="M24.6,9.6c0.3,0.3,0.3,0.8,0,1.1l-1.9,1.9H24c0.5,0,0.8,0.3,0.8,0.8s-0.4,0.8-0.8,0.8h-1.6
				c-0.4,0-0.6-0.2-0.7-0.5c-0.2-0.5-0.6-0.9-1.1-1.1c-0.3-0.1-0.5-0.4-0.5-0.7v-1.7c0-0.4,0.4-0.8,0.8-0.8s0.8,0.3,0.8,0.8v1.3
				l1.9-1.9C23.8,9.3,24.3,9.3,24.6,9.6"/>
			<path class="st1" d="M15.4,9.6c0.3-0.3,0.8-0.3,1.1,0l1.9,1.9v-1.3c0-0.5,0.3-0.8,0.8-0.8c0.5,0,0.8,0.4,0.8,0.8v1.6
				c0,0.4-0.2,0.6-0.5,0.7c-0.5,0.2-0.9,0.6-1.1,1.1c-0.1,0.3-0.4,0.5-0.7,0.5h-1.6c-0.4,0-0.8-0.4-0.8-0.8c0-0.4,0.3-0.8,0.8-0.8
				h1.3l-1.9-1.9C15,10.3,15,9.9,15.4,9.6"/>
			<path class="st1" d="M15.4,18.9c-0.3-0.3-0.3-0.8,0-1.1l1.9-1.9H16c-0.5,0-0.8-0.3-0.8-0.8c0-0.5,0.4-0.8,0.8-0.8h1.6
				c0.4,0,0.6,0.2,0.7,0.5c0.2,0.5,0.6,0.9,1.1,1.2c0.3,0.1,0.5,0.4,0.5,0.7v1.6c0,0.4-0.4,0.8-0.8,0.8s-0.8-0.3-0.8-0.8V17
				l-1.9,1.9C16.2,19.2,15.7,19.2,15.4,18.9"/>
		</g>
	</g>
</g>
</svg>
