<?xml version="1.0" encoding="utf-8"?>
<!-- Generator: Adobe Illustrator 27.3.1, SVG Export Plug-In . SVG Version: 6.00 Build 0)  -->
<svg version="1.1" id="Layer_1" xmlns="http://www.w3.org/2000/svg" xmlns:xlink="http://www.w3.org/1999/xlink" x="0px" y="0px"
	 viewBox="0 0 40 40" style="enable-background:new 0 0 40 40;" xml:space="preserve">
<style type="text/css">
	.st0{fill:#FFFFFF;}
	.st1{fill:url(#SVGID_1_);}
	.st2{fill-rule:evenodd;clip-rule:evenodd;fill:#231F20;}
</style>
<rect class="st0" width="40" height="40"/>
<linearGradient id="SVGID_1_" gradientUnits="userSpaceOnUse" x1="19.7641" y1="22.472" x2="22.0759" y2="17.528" gradientTransform="matrix(1 0 0 -1 0 40)">
	<stop  offset="0.38" style="stop-color:#E45E26"/>
	<stop  offset="1" style="stop-color:#F8A020"/>
</linearGradient>
<ellipse class="st1" cx="20.92" cy="20" rx="2.72" ry="2.73"/>
<path class="st2" d="M4,17.54c0-0.08,0-0.12,0.11-0.11h1.47c0.705,0.001,1.384,0.269,1.9,0.75c0.363,0.336,0.606,0.782,0.69,1.27
	c0.229,0.943-0.101,1.933-0.85,2.55c-0.403,0.356-0.913,0.567-1.45,0.6c-0.6,0.05-1.2,0-1.8,0c-0.08,0-0.07,0-0.07-0.08L4,17.54z
	 M5,21.6c0,0.07,0,0.1,0.09,0.09s0.4,0,0.6,0c0.372-0.01,0.728-0.155,1-0.41c0.44-0.41,0.627-1.024,0.49-1.61
	c-0.088-0.597-0.519-1.087-1.1-1.25c-0.304-0.075-0.617-0.105-0.93-0.09c-0.09,0-0.12,0-0.12,0.11C5,19,5,21.07,5,21.6z"/>
<path class="st2" d="M34.39,20.41L36,22.57h-0.22c-0.3,0-0.6,0-0.9,0c-0.077,0.006-0.151-0.033-0.19-0.1
	c-0.42-0.63-0.84-1.26-1.27-1.88l0,0c-0.037-0.032-0.093-0.032-0.13,0c-0.05,0,0,0.06,0,0.09v1.85c0,0.1,0,0.12-0.12,0.12
	c-0.27,0-0.53,0-0.8,0c-0.07,0-0.09,0-0.09-0.09v-5c0-0.05,0-0.08,0.07-0.08c0.57,0,1.15,0,1.72,0
	c0.392,0.013,0.769,0.158,1.07,0.41c0.337,0.306,0.502,0.759,0.44,1.21c0.007,0.643-0.448,1.199-1.08,1.32L34.39,20.41z M33.25,19
	v0.68c0,0.08,0,0.1,0.09,0.1h0.45c0.403-0.005,0.725-0.337,0.72-0.74c0,0,0,0,0,0c0.033-0.329-0.173-0.636-0.49-0.73
	c-0.223-0.053-0.451-0.077-0.68-0.07c-0.07,0-0.09,0-0.09,0.1V19z"/>
<path class="st2" d="M28.74,17.53c0-0.08,0-0.1,0.1-0.1h2.65c0.07,0,0.1,0,0.1,0.09c0,0.23,0,0.47,0,0.71c0,0.07,0,0.08-0.09,0.08
	h-1.64c-0.1,0-0.12,0-0.11,0.11v0.93c0,0.08,0,0.1,0.09,0.09h1.58c0.09,0,0.1,0,0.1,0.1v0.69c0,0.07,0,0.08-0.09,0.08
	c-0.52,0-1.05,0-1.57,0c-0.1,0-0.12,0-0.11,0.12v1.16c0,0.08,0,0.11,0.09,0.1h1.65c0.08,0,0.1,0,0.1,0.1c0,0.24,0,0.47,0,0.71
	c0,0.05,0,0.07-0.08,0.07h-2.69c-0.08,0-0.08,0-0.08-0.09V17.53z"/>
<path class="st2" d="M10.71,21.08c0.117,0.257,0.323,0.463,0.58,0.58c0.272,0.13,0.588,0.13,0.86,0
	c0.257-0.097,0.425-0.345,0.42-0.62c0.013-0.263-0.144-0.505-0.39-0.6c-0.28-0.14-0.59-0.23-0.88-0.35
	c-0.29-0.106-0.549-0.285-0.75-0.52c-0.118-0.15-0.191-0.33-0.21-0.52c-0.139-0.744,0.326-1.467,1.06-1.65
	c0.698-0.208,1.454-0.042,2,0.44c0,0,0.06,0.06,0,0.11s-0.3,0.38-0.44,0.57s-0.07,0.05-0.11,0c-0.148-0.177-0.353-0.297-0.58-0.34
	c-0.292-0.067-0.598,0.028-0.8,0.25c-0.164,0.179-0.152,0.457,0.027,0.622c0.02,0.018,0.041,0.034,0.063,0.048
	c0.219,0.135,0.454,0.242,0.7,0.32c0.227,0.084,0.448,0.184,0.66,0.3c0.411,0.216,0.675,0.636,0.69,1.1
	c0.095,0.813-0.427,1.57-1.22,1.77c-0.873,0.273-1.82-0.081-2.3-0.86c0,0,0-0.06,0-0.09L10.71,21.08z"/>
<path class="st2" d="M23.36,17.43h1c0.07,0,0.09,0,0.12,0.08c0.3,0.77,1.19,3,1.32,3.34c0.07-0.07,1-2.31,1.36-3.35
	c0,0,0-0.07,0.09-0.07h1l-2.19,5.19c-0.01,0.051-0.058,0.086-0.11,0.08h-0.39c-0.049,0.007-0.096-0.023-0.11-0.07l-2.1-5.08
	C23.35,17.55,23.37,17.48,23.36,17.43z"/>
<path class="st2" d="M17.89,18.82c-0.173-0.176-0.372-0.324-0.59-0.44c-0.827-0.369-1.797,0.003-2.166,0.83
	c-0.016,0.036-0.031,0.073-0.044,0.11c-0.278,0.654-0.144,1.41,0.34,1.93c0.333,0.354,0.806,0.541,1.29,0.51
	c0.373-0.014,0.729-0.163,1-0.42l0.13-0.12c0,0,0,0.05,0,0.07v1c0,0.06,0,0.09-0.06,0.11c-1.055,0.504-2.313,0.296-3.15-0.52
	c-0.484-0.491-0.756-1.151-0.76-1.84c-0.011-1.497,1.193-2.719,2.69-2.73c0.423-0.003,0.841,0.093,1.22,0.28c0,0,0.06,0,0.06,0.08
	L17.89,18.82z"/>
<path class="st2" d="M9.69,22.46c0,0.08,0,0.11-0.11,0.11c-0.27,0-0.54,0-0.81,0c-0.07,0-0.09,0-0.09-0.08v-5
	c0-0.08,0-0.09,0.09-0.09h0.81c0.09,0,0.11,0,0.11,0.11V22.46z"/>
</svg>
