<?xml version="1.0" encoding="utf-8"?>
<!-- Generator: Adobe Illustrator 25.2.0, SVG Export Plug-In . SVG Version: 6.00 Build 0)  -->
<svg version="1.1" id="Layer_1" xmlns="http://www.w3.org/2000/svg" xmlns:xlink="http://www.w3.org/1999/xlink" x="0px" y="0px"
	 viewBox="0 0 100 100" style="enable-background:new 0 0 100 100;" xml:space="preserve">
<style type="text/css">
	.st0{fill:#0B1B34;}
	.st1{fill:#03D47C;}
	.st2{fill:#0185FF;}
	.st3{fill:#FED607;}
</style>
<path class="st0" d="M34,73h32v-9.5H45.7v-8.9H63v-9.7H45.7v-8.5H66V27H34V73z"/>
<path class="st1" d="M90,50c0,9.6-3.4,18.4-9,25.3l7.1,7.1c7.4-8.7,11.9-20,11.9-32.4c0-12.2-4.4-23.4-11.6-32l-7.1,7.1
	C86.7,31.9,90,40.6,90,50z"/>
<path class="st2" d="M75.3,81c-6.9,5.6-15.7,9-25.3,9c-9.4,0-18.1-3.3-24.9-8.7L18,88.4c8.7,7.3,19.9,11.6,32,11.6
	c12.4,0,23.7-4.5,32.4-11.9L75.3,81z"/>
<path class="st3" d="M19.3,75.7C13.5,68.7,10,59.8,10,50c0-22.1,17.9-40,40-40c9.8,0,18.7,3.5,25.7,9.3l7.1-7.1C74,4.6,62.5,0,50,0
	C22.4,0,0,22.4,0,50c0,12.5,4.6,24,12.2,32.8L19.3,75.7z"/>
</svg>
