<?xml version="1.0" encoding="utf-8"?>
<!-- Generator: Adobe Illustrator 24.3.0, SVG Export Plug-In . SVG Version: 6.00 Build 0)  -->
<svg version="1.1" id="Layer_1" xmlns="http://www.w3.org/2000/svg" xmlns:xlink="http://www.w3.org/1999/xlink" x="0px" y="0px"
	 viewBox="0 0 40 40" style="enable-background:new 0 0 40 40;" xml:space="preserve">
<style type="text/css">
	.st0{fill:#C6C9CA;}
	.st1{fill:#FFFFFF;}
</style>
<circle class="st0" cx="20" cy="20" r="20"/>
<path class="st1" d="M28.1,14h-1.6l-6.2-3.5c-0.2-0.1-0.4-0.1-0.6,0L13.5,14h-1.6c-0.4,0-0.6,0.2-0.6,0.6v1.2c0,0.4,0.2,0.6,0.6,0.6
	h0.6v8.8h-0.6c-0.4,0-0.6,0.2-0.6,0.6V27c0,0.4,0.2,0.6,0.6,0.6h16.2c0.4,0,0.6-0.2,0.6-0.6v-1.2c0-0.4-0.2-0.6-0.6-0.6h-0.6v-8.8
	h0.6c0.4,0,0.6-0.2,0.6-0.6v-1.2C28.8,14.2,28.5,14,28.1,14z M18.8,25.2H15v-8.8h3.8V25.2z M25,25.2h-3.8v-8.8H25V25.2z"/>
</svg>
