<?xml version="1.0" encoding="utf-8"?>
<!-- Generator: Adobe Illustrator 27.3.1, SVG Export Plug-In . SVG Version: 6.00 Build 0)  -->
<svg version="1.1" id="Layer_1" xmlns="http://www.w3.org/2000/svg" xmlns:xlink="http://www.w3.org/1999/xlink" x="0px" y="0px"
	 viewBox="0 0 40 26" style="enable-background:new 0 0 40 26;" xml:space="preserve">
<style type="text/css">
	.st0{fill:#C6C9CA;}
	.st1{fill:#FFFFFF;}
</style>
<rect class="st0" width="40" height="26"/>
<g id="Calque_3_00000023244031827351939090000010617725868588124853_">
</g>
<path class="st1" d="M25.265,9.1h-1.04l-4.03-2.275c-0.13-0.065-0.26-0.065-0.39,0L15.775,9.1h-1.04c-0.26,0-0.39,0.13-0.39,0.39
	v0.78c0,0.26,0.13,0.39,0.39,0.39h0.39v5.72h-0.39c-0.26,0-0.39,0.13-0.39,0.39v0.78c0,0.26,0.13,0.39,0.39,0.39h10.53
	c0.26,0,0.39-0.13,0.39-0.39v-0.78c0-0.26-0.13-0.39-0.39-0.39h-0.39v-5.72h0.39c0.26,0,0.39-0.13,0.39-0.39V9.49
	C25.72,9.23,25.525,9.1,25.265,9.1z M19.22,16.38h-2.47v-5.72h2.47V16.38z M23.25,16.38h-2.47v-5.72h2.47V16.38z"/>
</svg>
