<?xml version="1.0" encoding="utf-8"?>
<!-- Generator: Adobe Illustrator 27.3.1, SVG Export Plug-In . SVG Version: 6.00 Build 0)  -->
<svg version="1.1" id="Calque_1" xmlns="http://www.w3.org/2000/svg" xmlns:xlink="http://www.w3.org/1999/xlink" x="0px" y="0px"
	 viewBox="0 0 40 40" style="enable-background:new 0 0 40 40;" xml:space="preserve">
<style type="text/css">
	.st0{fill:#FFFFFF;}
	.st1{fill:#70B62C;}
</style>
<rect class="st0" width="40" height="40"/>
<g id="Calque_4">
	<g>
		<polygon class="st1" points="19.3,13.8 19.3,3.6 15.6,5.8 15.6,15.9 		"/>
		<polygon class="st1" points="20.7,26.2 20.7,36.4 24.4,34.2 24.4,24.1 		"/>
		<polygon class="st1" points="15.6,23.3 15.6,34.2 19.3,36.4 19.3,25.5 25.7,21.8 25.7,33.4 29.4,31.3 29.4,8.7 25.7,6.6 
			25.7,17.5 		"/>
		<polygon class="st1" points="14.2,6.6 10.6,8.7 10.6,31.3 14.2,33.4 14.2,22.5 24.4,16.7 24.4,5.8 20.7,3.6 20.7,14.5 14.2,18.2 
					"/>
		<path class="st1" d="M9.1,9.5L6,11.3c-0.3,0.2-0.6,0.6-0.6,0.8v15.6c0,0.3,0.3,0.7,0.6,0.8l3.1,1.8V9.5z"/>
		<path class="st1" d="M30.9,30.5l3.1-1.8c0.3-0.2,0.6-0.6,0.6-0.8V12.2c0-0.3-0.3-0.7-0.6-0.8l-3.1-1.8V30.5z"/>
	</g>
</g>
</svg>
