<?xml version="1.0" encoding="utf-8"?>
<!-- Generator: Adobe Illustrator 23.0.3, SVG Export Plug-In . SVG Version: 6.00 Build 0)  -->
<svg version="1.1" id="Calque_1" xmlns="http://www.w3.org/2000/svg" xmlns:xlink="http://www.w3.org/1999/xlink" x="0px" y="0px"
	 viewBox="0 0 40 40" style="enable-background:new 0 0 40 40;" xml:space="preserve">
<style type="text/css">
	.st0{fill:#EE7623;}
	.st1{fill:#FFFFFF;}
</style>
<g>
	<path class="st0" d="M20,40L20,40C9,40,0,31,0,20l0,0C0,9,9,0,20,0l0,0c11,0,20,9,20,20l0,0C40,31,31,40,20,40z"/>
	<path class="st1" d="M29.2,23.8c1.8,0,3.4-0.1,4.6-0.4l0,0c-2.4,1.4-7.3,4.3-16.8,9.8l-0.5,0.3c-1.7,1-3.6,1.1-4.4,0.3
		c-1.1-1.1-0.5-3.8,1.5-7.3l1.8-3.3c0.3,0.4,0.9,0.7,1.6,0.7h12.3V23.8z M18.3,15.1c0.3-0.7,0.9-1,1.4-1.1l-1.8-3.3
		c-2.1-3.5-4-5.3-5.5-4.9c-1.2,0.3-2,2-2,4v0.7c-0.1,11,0,16.6,0,19.4c0,0,0,0,0,0.1c0.3-1.2,1-2.6,1.8-4.2L18.3,15.1z M33.7,16.3
		L33.2,16c-9.4-5.5-14.3-8.4-16.8-9.7l0,0c0.9,0.9,1.7,2.2,2.7,3.7l6.2,10.6c0.3,0.7,0.4,1.2,0.2,1.7h3.8c4,0,6.6-0.9,7.1-2.4
		C36.5,18.9,35.4,17.4,33.7,16.3z"/>
</g>
<g id="Calque_3">
</g>
</svg>
