<?xml version="1.0" encoding="utf-8"?>
<!-- Generator: Adobe Illustrator 27.3.1, SVG Export Plug-In . SVG Version: 6.00 Build 0)  -->
<svg version="1.1" id="Calque_1" xmlns="http://www.w3.org/2000/svg" xmlns:xlink="http://www.w3.org/1999/xlink" x="0px" y="0px"
	 viewBox="0 0 40 40" style="enable-background:new 0 0 40 40;" xml:space="preserve">
<style type="text/css">
	.st0{fill:#FFFFFF;}
	.st1{fill:#002856;}
	.st2{fill:url(#SVGID_1_);}
	.st3{fill:url(#SVGID_00000054260881084268728130000005710288826601509796_);}
	.st4{fill:url(#SVGID_00000117643336947643093840000015529202569653053101_);}
	.st5{fill:url(#SVGID_00000041265502389230169300000000150983765439734922_);}
	.st6{fill:url(#SVGID_00000085958303346030774220000016844847497715752377_);}
	.st7{fill:url(#SVGID_00000120528667813633772340000011274449604160824491_);}
	.st8{fill:url(#SVGID_00000140726022249849125260000003607324047532203676_);}
	.st9{fill:url(#SVGID_00000036213900256836921210000003641092864132722613_);}
	.st10{fill:url(#SVGID_00000090993893441930341880000015292284398992458923_);}
	.st11{fill:url(#SVGID_00000003819849574801778330000006792786506288543886_);}
	.st12{fill:url(#SVGID_00000163757633127015442680000018288597549271557805_);}
	.st13{fill:url(#SVGID_00000099630999166455305470000015339663187655795362_);}
	.st14{fill:url(#SVGID_00000169519864462925649600000013871814959199900329_);}
	.st15{fill:url(#SVGID_00000132049483980927868340000011016593225604515752_);}
	.st16{fill:url(#SVGID_00000088850796787697712210000012027880441518001334_);}
	.st17{fill:url(#SVGID_00000127014105394849884390000000803251714324964519_);}
</style>
<rect class="st0" width="40" height="40"/>
<g id="Calque_4">
</g>
<g id="Calque_5">
	<g>
		<path class="st1" d="M28.3,24.1c0,0.6-0.1,1.6-1.5,1.6c-0.3,0-0.9,0-1.3-0.3c-0.3-0.3-0.3-0.7-0.3-1.3V22c0-0.2-0.1-0.3-0.4-0.3
			v-0.3h1.9v0.3c-0.3,0-0.4,0.1-0.4,0.3v2.2c0,0.5,0,1.1,0.8,1.1c0.9,0,0.9-0.7,0.9-1.2v-2.2c0-0.2,0-0.3-0.3-0.3h-0.1v-0.3h1.3v0.3
			h-0.2c-0.3,0-0.3,0.1-0.3,0.3v2.2H28.3z"/>
		<path class="st1" d="M34.8,25.6h-2.1v-0.3h0.2c0.3,0,0.4-0.1,0.4-0.3v-3.2h-0.4c-0.2,0-0.3,0.1-0.3,0.2c-0.1,0.1-0.1,0.4-0.1,0.6
			h-0.4v-1.1h3.4v1.1h-0.3c0-0.2,0-0.5-0.1-0.6s-0.2-0.2-0.3-0.2h-0.4V25c0,0.2,0.1,0.3,0.4,0.3H35L34.8,25.6L34.8,25.6z"/>
		<g>
			<path class="st1" d="M32,24.5c-0.1,0.7-0.6,1.3-1.6,1.3c-0.6,0-1.2-0.2-1.5-0.3v-1h0.3c0,0.1,0,0.3,0,0.3s0.1,0.2,0.2,0.3
				c0.2,0.2,0.4,0.3,0.9,0.3c0.7,0,0.9-0.3,0.9-0.7c0-0.4-0.3-0.5-1.1-0.8c-0.9-0.2-1.3-0.5-1.3-1.3c0-0.7,0.5-1.3,1.5-1.3
				c0.6,0,0.9,0.1,1.3,0.3v0.9h-0.3c0-0.1,0-0.3,0-0.3c0-0.1-0.1-0.3-0.2-0.3c-0.3-0.3-0.6-0.3-0.9-0.3s-0.8,0.2-0.8,0.6
				c0,0.3,0.2,0.5,0.9,0.7c0.7,0.2,0.9,0.3,1.2,0.4C32,23.7,32.1,24,32,24.5"/>
			<path class="st1" d="M8.5,24.1c-0.1,0.8-0.7,1.5-2.2,1.5c-0.8,0-1.6-0.3-1.9-0.5v-1.3h0.4c0,0.2,0,0.3,0,0.4s0.1,0.3,0.2,0.4
				c0.3,0.3,0.6,0.5,1.3,0.5c0.9,0,1.3-0.5,1.3-1c0-0.6-0.4-0.8-1.5-1c-1-0.3-1.7-0.6-1.7-1.6c0-0.9,0.7-1.7,2.1-1.7
				c0.9,0,1.3,0.2,1.6,0.3v1.2H7.8c0-0.1,0-0.3,0-0.4c0-0.2-0.2-0.3-0.3-0.4c-0.3-0.1-0.7-0.2-1.1-0.1c-0.5,0-1,0.3-1,0.8
				s0.2,0.7,1.2,0.9c0.9,0.2,1.3,0.3,1.6,0.6C8.5,23.2,8.5,23.6,8.5,24.1"/>
		</g>
		<path class="st1" d="M12.9,21.8c0.3,0,0.3,0.1,0.3,0.3v3.1c0,0.2,0,0.3-0.3,0.3h-0.1v0.2h1.3v-0.3H14c-0.3,0-0.3-0.1-0.3-0.3v-2.6
			l1.7,3.1h0.9v-3.5c0-0.2,0-0.3,0.3-0.3h0.3v-0.5c0-0.4,0-0.9,0.6-0.9h0.6v4.4c0,0.3-0.1,0.5-0.5,0.5h-0.2v0.3H20v-0.3h-0.2
			c-0.4,0-0.5-0.1-0.5-0.5v-4.4h0.6c0.6,0,0.6,0.4,0.6,0.9v0.4h0.4c0.3,0,0.3,0.1,0.3,0.3v3c0,0.2-0.2,0.3-0.4,0.3v0.3h1.9v-0.3
			c-0.3,0-0.4-0.1-0.4-0.3v-3.3h0.5c0.4,0,0.7,0.2,0.7,0.8c0,0.3-0.2,0.8-0.7,0.8h-0.3c0,0,0.8,1.5,0.9,1.8c0.2,0.3,0.4,0.4,0.9,0.4
			h0.8v-0.3c-0.1,0-0.3,0-0.4-0.2l-0.9-1.5c0.5-0.1,0.9-0.5,0.9-1c0-1-1-1-1.6-1h-1.9V20h-4.5v1.5h-1v0.3h0.1c0.3,0,0.3,0.1,0.3,0.3
			v2.6l-1.7-3.1h-2.7v0.3h0.1c0.3,0,0.3,0.1,0.3,0.3v2.2c0,0.5-0.1,1.2-0.9,1.2c-0.8,0-0.8-0.6-0.8-1.1v-2.2c0-0.2,0.1-0.3,0.4-0.3
			v-0.3H8.7V22c0.3,0,0.4,0.1,0.4,0.3v2.1c0,0.6,0.1,0.9,0.3,1.2c0.3,0.3,1,0.3,1.3,0.3c1.5,0,1.5-0.9,1.5-1.8v-2.2c0,0.1,0,0,0.3,0
			L12.9,21.8L12.9,21.8z"/>
		<g>
			
				<linearGradient id="SVGID_1_" gradientUnits="userSpaceOnUse" x1="8.0906" y1="3.1165" x2="15.99" y2="-6.2976" gradientTransform="matrix(1 0 0 1 0 14)">
				<stop  offset="0.3427" style="stop-color:#F5A800"/>
				<stop  offset="0.4882" style="stop-color:#E98F07"/>
				<stop  offset="0.6854" style="stop-color:#DC740E"/>
				<stop  offset="0.8605" style="stop-color:#D46413"/>
				<stop  offset="0.9944" style="stop-color:#D15E14"/>
			</linearGradient>
			<path class="st2" d="M8.4,14.6l-0.1,0.3c-0.1,0.2-0.1,0.6,0,0.8L8.7,18c0,0.2,0.1,0.3,0.2,0.3s0.1-0.2,0-0.5l-0.3-3.1
				C8.5,14.5,8.4,14.5,8.4,14.6"/>
			
				<linearGradient id="SVGID_00000116220707251298739840000008755612734568984990_" gradientUnits="userSpaceOnUse" x1="8.3225" y1="3.3372" x2="16.1937" y2="-6.0433" gradientTransform="matrix(1 0 0 1 0 14)">
				<stop  offset="0.3427" style="stop-color:#F5A800"/>
				<stop  offset="0.4882" style="stop-color:#E98F07"/>
				<stop  offset="0.6854" style="stop-color:#DC740E"/>
				<stop  offset="0.8605" style="stop-color:#D46413"/>
				<stop  offset="0.9944" style="stop-color:#D15E14"/>
			</linearGradient>
			<path style="fill:url(#SVGID_00000116220707251298739840000008755612734568984990_);" d="M9.3,17.1c0,0.2,0,0.4,0,0.4
				c-0.1,0-0.1-0.1-0.2-0.3L9,15.9c0-0.2,0-0.6,0.1-0.8s0.2-0.1,0.2,0.1V17.1z"/>
			
				<linearGradient id="SVGID_00000098923137473893308830000013253144661817707420_" gradientUnits="userSpaceOnUse" x1="7.7046" y1="2.8363" x2="15.5462" y2="-6.5089" gradientTransform="matrix(1 0 0 1 0 14)">
				<stop  offset="0.3427" style="stop-color:#F5A800"/>
				<stop  offset="0.4882" style="stop-color:#E98F07"/>
				<stop  offset="0.6854" style="stop-color:#DC740E"/>
				<stop  offset="0.8605" style="stop-color:#D46413"/>
				<stop  offset="0.9944" style="stop-color:#D15E14"/>
			</linearGradient>
			<path style="fill:url(#SVGID_00000098923137473893308830000013253144661817707420_);" d="M9.9,12.4l-0.2,4c0,0.2,0,0.4-0.1,0.4
				c0,0-0.1-0.1-0.1-0.3l-0.1-3.4c0-0.2,0.1-0.4,0.2-0.6l0.1-0.3C9.8,12.3,9.9,12.3,9.9,12.4"/>
			
				<linearGradient id="SVGID_00000174585984607408363510000010385169990037079999_" gradientUnits="userSpaceOnUse" x1="8.2926" y1="3.3478" x2="16.1153" y2="-5.9749" gradientTransform="matrix(1 0 0 1 0 14)">
				<stop  offset="0.3427" style="stop-color:#F5A800"/>
				<stop  offset="0.4882" style="stop-color:#E98F07"/>
				<stop  offset="0.6854" style="stop-color:#DC740E"/>
				<stop  offset="0.8605" style="stop-color:#D46413"/>
				<stop  offset="0.9944" style="stop-color:#D15E14"/>
			</linearGradient>
			<path style="fill:url(#SVGID_00000174585984607408363510000010385169990037079999_);" d="M10.5,13.3l-0.3,3.1
				c0,0.3-0.1,0.4-0.1,0.4c-0.1,0-0.1-0.2-0.1-0.3l0.1-2.7C10.2,13.6,10.4,13.3,10.5,13.3C10.5,13,10.5,13.1,10.5,13.3"/>
			
				<linearGradient id="SVGID_00000057130393045865138300000017669832276885484454_" gradientUnits="userSpaceOnUse" x1="7.9534" y1="3.0769" x2="15.7586" y2="-6.225" gradientTransform="matrix(1 0 0 1 0 14)">
				<stop  offset="0.3427" style="stop-color:#F5A800"/>
				<stop  offset="0.4882" style="stop-color:#E98F07"/>
				<stop  offset="0.6854" style="stop-color:#DC740E"/>
				<stop  offset="0.8605" style="stop-color:#D46413"/>
				<stop  offset="0.9944" style="stop-color:#D15E14"/>
			</linearGradient>
			<path style="fill:url(#SVGID_00000057130393045865138300000017669832276885484454_);" d="M10.6,16.1c-0.1,0-0.1-0.3,0-0.3
				l0.4-4.3c0-0.2,0.2-0.4,0.3-0.5v-0.1c0.1-0.2,0.2-0.2,0.2,0l-0.7,4.8C10.7,15.9,10.7,16.1,10.6,16.1"/>
			
				<linearGradient id="SVGID_00000060009149835111213880000012981485412484032416_" gradientUnits="userSpaceOnUse" x1="8.4916" y1="3.5404" x2="16.2772" y2="-5.7381" gradientTransform="matrix(1 0 0 1 0 14)">
				<stop  offset="0.3427" style="stop-color:#F5A800"/>
				<stop  offset="0.4882" style="stop-color:#E98F07"/>
				<stop  offset="0.6854" style="stop-color:#DC740E"/>
				<stop  offset="0.8605" style="stop-color:#D46413"/>
				<stop  offset="0.9944" style="stop-color:#D15E14"/>
			</linearGradient>
			<path style="fill:url(#SVGID_00000060009149835111213880000012981485412484032416_);" d="M11.9,11.6c0.1-0.1,0.3-0.1,0.3,0.1
				l-1,4.3c0,0.2-0.1,0.4-0.2,0.3c-0.1,0-0.1-0.3,0-0.4l0.7-3.9C11.7,12,11.8,11.7,11.9,11.6"/>
			
				<linearGradient id="SVGID_00000016062935112785127350000010176851095412318140_" gradientUnits="userSpaceOnUse" x1="9.0091" y1="3.9783" x2="16.7397" y2="-5.2347" gradientTransform="matrix(1 0 0 1 0 14)">
				<stop  offset="0.3427" style="stop-color:#F5A800"/>
				<stop  offset="0.4882" style="stop-color:#E98F07"/>
				<stop  offset="0.6854" style="stop-color:#DC740E"/>
				<stop  offset="0.8605" style="stop-color:#D46413"/>
				<stop  offset="0.9944" style="stop-color:#D15E14"/>
			</linearGradient>
			<path style="fill:url(#SVGID_00000016062935112785127350000010176851095412318140_);" d="M12,16c-0.1,0.2-0.2,0.3-0.3,0.3
				s0.1-0.3,0.1-0.3l2.3-5.7c0.1-0.2,0.3-0.3,0.4-0.3s0,0.4-0.1,0.5C13.1,13.7,12.7,14.6,12,16"/>
			
				<linearGradient id="SVGID_00000002382845068180201700000013715084230610696095_" gradientUnits="userSpaceOnUse" x1="9.3375" y1="4.2553" x2="17.0423" y2="-4.9269" gradientTransform="matrix(1 0 0 1 0 14)">
				<stop  offset="0.3427" style="stop-color:#F5A800"/>
				<stop  offset="0.4882" style="stop-color:#E98F07"/>
				<stop  offset="0.6854" style="stop-color:#DC740E"/>
				<stop  offset="0.8605" style="stop-color:#D46413"/>
				<stop  offset="0.9944" style="stop-color:#D15E14"/>
			</linearGradient>
			<path style="fill:url(#SVGID_00000002382845068180201700000013715084230610696095_);" d="M12.5,15.7c0.1,0,0.2-0.1,0.3-0.3
				l4.3-7.1c0.1-0.1,0.1-0.3,0-0.4S16.8,8,16.7,8.2l-4,7.2C12.6,15.5,12.5,15.7,12.5,15.7"/>
			
				<linearGradient id="SVGID_00000158751717828373549920000015029838481486377900_" gradientUnits="userSpaceOnUse" x1="10.1021" y1="4.9021" x2="17.7835" y2="-4.2523" gradientTransform="matrix(1 0 0 1 0 14)">
				<stop  offset="0.3427" style="stop-color:#F5A800"/>
				<stop  offset="0.4882" style="stop-color:#E98F07"/>
				<stop  offset="0.6854" style="stop-color:#DC740E"/>
				<stop  offset="0.8605" style="stop-color:#D46413"/>
				<stop  offset="0.9944" style="stop-color:#D15E14"/>
			</linearGradient>
			<path style="fill:url(#SVGID_00000158751717828373549920000015029838481486377900_);" d="M12.7,16.5c-0.1-0.1,0-0.3,0.2-0.4
				l4.6-6.6c0-0.3,0.3-0.5,0.5-0.4s0.2,0.3,0,0.4l-5,6.6C12.9,16.4,12.7,16.5,12.7,16.5"/>
			
				<linearGradient id="SVGID_00000041286984743335244670000013878791327349144967_" gradientUnits="userSpaceOnUse" x1="11.1478" y1="5.7808" x2="18.8056" y2="-3.3453" gradientTransform="matrix(1 0 0 1 0 14)">
				<stop  offset="0.3427" style="stop-color:#F5A800"/>
				<stop  offset="0.4882" style="stop-color:#E98F07"/>
				<stop  offset="0.6854" style="stop-color:#DC740E"/>
				<stop  offset="0.8605" style="stop-color:#D46413"/>
				<stop  offset="0.9944" style="stop-color:#D15E14"/>
			</linearGradient>
			<path style="fill:url(#SVGID_00000041286984743335244670000013878791327349144967_);" d="M14,15.7L13.7,16
				c-0.1-0.1,0.1-0.2,0.2-0.3l0.2-0.2l6.4-7.3c0.1-0.1,0.3-0.2,0.3,0L21,8.5c0.1,0.1,0.1,0.3,0,0.4L14,15.7z"/>
			
				<linearGradient id="SVGID_00000138574384922886777890000008416176582122737590_" gradientUnits="userSpaceOnUse" x1="11.8304" y1="6.3571" x2="19.4627" y2="-2.7387" gradientTransform="matrix(1 0 0 1 0 14)">
				<stop  offset="0.3427" style="stop-color:#F5A800"/>
				<stop  offset="0.4882" style="stop-color:#E98F07"/>
				<stop  offset="0.6854" style="stop-color:#DC740E"/>
				<stop  offset="0.8605" style="stop-color:#D46413"/>
				<stop  offset="0.9944" style="stop-color:#D15E14"/>
			</linearGradient>
			<path style="fill:url(#SVGID_00000138574384922886777890000008416176582122737590_);" d="M13.5,16.9c-0.1-0.1,0.1-0.2,0.3-0.3
				l6.8-6.3c0.1-0.1,0.3-0.1,0.4,0c0.2,0.2,0.2,0.3,0.2,0.3c0,0.2-0.1,0.3-0.2,0.4l-7.1,5.6C13.7,16.9,13.5,17,13.5,16.9"/>
			
				<linearGradient id="SVGID_00000114058897051023468730000011920916283472254647_" gradientUnits="userSpaceOnUse" x1="12.9192" y1="7.2735" x2="20.5255" y2="-1.7914" gradientTransform="matrix(1 0 0 1 0 14)">
				<stop  offset="0.3427" style="stop-color:#F5A800"/>
				<stop  offset="0.4882" style="stop-color:#E98F07"/>
				<stop  offset="0.6854" style="stop-color:#DC740E"/>
				<stop  offset="0.8605" style="stop-color:#D46413"/>
				<stop  offset="0.9944" style="stop-color:#D15E14"/>
			</linearGradient>
			<path style="fill:url(#SVGID_00000114058897051023468730000011920916283472254647_);" d="M14.9,16.4l7.9-5.7
				c0.2-0.1,0.3-0.1,0.3,0.1l0.2,0.6c0,0.2-0.1,0.3-0.3,0.5l-8,4.7c-0.2,0.1-0.4,0.3-0.4,0.2C14.5,16.6,14.7,16.5,14.9,16.4"/>
			
				<linearGradient id="SVGID_00000083057728449024883820000001319308895808149417_" gradientUnits="userSpaceOnUse" x1="13.349" y1="7.626" x2="20.9167" y2="-1.3929" gradientTransform="matrix(1 0 0 1 0 14)">
				<stop  offset="0.3427" style="stop-color:#F5A800"/>
				<stop  offset="0.4882" style="stop-color:#E98F07"/>
				<stop  offset="0.6854" style="stop-color:#DC740E"/>
				<stop  offset="0.8605" style="stop-color:#D46413"/>
				<stop  offset="0.9944" style="stop-color:#D15E14"/>
			</linearGradient>
			<path style="fill:url(#SVGID_00000083057728449024883820000001319308895808149417_);" d="M14.1,17.5c0-0.1,0.2-0.2,0.4-0.3
				l7.1-3.5c0.2-0.1,0.3-0.1,0.3,0.1v0.8c0,0.2-0.2,0.3-0.4,0.4l-7,2.4C14.3,17.6,14.1,17.6,14.1,17.5"/>
			
				<linearGradient id="SVGID_00000061474021997726412860000002346556990154899368_" gradientUnits="userSpaceOnUse" x1="14.3955" y1="8.4998" x2="21.9138" y2="-0.4602" gradientTransform="matrix(1 0 0 1 0 14)">
				<stop  offset="0.3427" style="stop-color:#F5A800"/>
				<stop  offset="0.4882" style="stop-color:#E98F07"/>
				<stop  offset="0.6854" style="stop-color:#DC740E"/>
				<stop  offset="0.8605" style="stop-color:#D46413"/>
				<stop  offset="0.9944" style="stop-color:#D15E14"/>
			</linearGradient>
			<path style="fill:url(#SVGID_00000061474021997726412860000002346556990154899368_);" d="M22.3,16.9l-6.8,0.9
				c-0.3,0-0.4,0.1-0.5,0c0-0.1,0.2-0.2,0.4-0.3l7.1-2.2c0.3-0.1,0.4,0,0.3,0.2l-0.1,0.8C22.8,16.6,22.6,16.8,22.3,16.9"/>
			
				<linearGradient id="SVGID_00000112606908929014573360000018093776220234419092_" gradientUnits="userSpaceOnUse" x1="14.5019" y1="8.5788" x2="21.9584" y2="-0.3076" gradientTransform="matrix(1 0 0 1 0 14)">
				<stop  offset="0.3427" style="stop-color:#F5A800"/>
				<stop  offset="0.4882" style="stop-color:#E98F07"/>
				<stop  offset="0.6854" style="stop-color:#DC740E"/>
				<stop  offset="0.8605" style="stop-color:#D46413"/>
				<stop  offset="0.9944" style="stop-color:#D15E14"/>
			</linearGradient>
			<path style="fill:url(#SVGID_00000112606908929014573360000018093776220234419092_);" d="M14.6,18.5c0-0.1,0.3-0.2,0.6-0.2l6-0.7
				c0.3,0,0.5,0.1,0.4,0.3l-0.1,0.3c-0.1,0.2-0.3,0.3-0.6,0.3h-5.8C14.8,18.6,14.6,18.6,14.6,18.5"/>
			
				<linearGradient id="SVGID_00000091699600777484351900000013051017003943300516_" gradientUnits="userSpaceOnUse" x1="8.4425" y1="3.5015" x2="16.2012" y2="-5.7449" gradientTransform="matrix(1 0 0 1 0 14)">
				<stop  offset="0.3427" style="stop-color:#F5A800"/>
				<stop  offset="0.4882" style="stop-color:#E98F07"/>
				<stop  offset="0.6854" style="stop-color:#DC740E"/>
				<stop  offset="0.8605" style="stop-color:#D46413"/>
				<stop  offset="0.9944" style="stop-color:#D15E14"/>
			</linearGradient>
			<path style="fill:url(#SVGID_00000091699600777484351900000013051017003943300516_);" d="M13.7,9.6c0,0-1.7,5.3-1.8,5.7
				c-0.1,0.3-0.2,0.6-0.3,0.6s0-0.2,0.1-0.4l1.6-5.9c0.1-0.3,0.3-0.4,0.4-0.4C13.9,9,13.8,9.4,13.7,9.6"/>
		</g>
	</g>
</g>
</svg>
