<?xml version="1.0" encoding="utf-8"?>
<!-- Generator: Adobe Illustrator 23.0.3, SVG Export Plug-In . SVG Version: 6.00 Build 0)  -->
<svg version="1.1" id="Calque_1" xmlns="http://www.w3.org/2000/svg" xmlns:xlink="http://www.w3.org/1999/xlink" x="0px" y="0px"
	 viewBox="0 0 40 40" style="enable-background:new 0 0 40 40;" xml:space="preserve">
<style type="text/css">
	.st0{fill:#FFFFFF;}
	.st1{fill:#002856;}
	.st2{fill:url(#SVGID_1_);}
	.st3{fill:url(#SVGID_2_);}
	.st4{fill:url(#SVGID_3_);}
	.st5{fill:url(#SVGID_4_);}
	.st6{fill:url(#SVGID_5_);}
	.st7{fill:url(#SVGID_6_);}
	.st8{fill:url(#SVGID_7_);}
	.st9{fill:url(#SVGID_8_);}
	.st10{fill:url(#SVGID_9_);}
	.st11{fill:url(#SVGID_10_);}
	.st12{fill:url(#SVGID_11_);}
	.st13{fill:url(#SVGID_12_);}
	.st14{fill:url(#SVGID_13_);}
	.st15{fill:url(#SVGID_14_);}
	.st16{fill:url(#SVGID_15_);}
	.st17{fill:url(#SVGID_16_);}
</style>
<g>
	<path class="st0" d="M20,40L20,40C9,40,0,31,0,20l0,0C0,9,9,0,20,0l0,0c11,0,20,9,20,20l0,0C40,31,31,40,20,40z"/>
</g>
<g id="Calque_4">
</g>
<g id="Calque_5">
	<g>
		<path class="st1" d="M28.3,24.1c0,0.6-0.1,1.6-1.5,1.6c-0.3,0-0.9,0-1.3-0.3c-0.3-0.3-0.3-0.7-0.3-1.3v-2.1c0-0.2-0.1-0.3-0.4-0.3
			v-0.3h1.9v0.3c-0.3,0-0.4,0.1-0.4,0.3v2.2c0,0.5,0,1.1,0.8,1.1c0.9,0,0.9-0.7,0.9-1.2v-2.2c0-0.2,0-0.3-0.3-0.3h-0.1v-0.3h1.3v0.3
			h-0.2c-0.3,0-0.3,0.1-0.3,0.3V24.1z"/>
		<path class="st1" d="M34.8,25.6h-2.1v-0.3h0.2c0.3,0,0.4-0.1,0.4-0.3v-3.2h-0.4c-0.2,0-0.3,0.1-0.3,0.2c-0.1,0.1-0.1,0.4-0.1,0.6
			h-0.4v-1.1h3.4v1.1h-0.3c0-0.2,0-0.5-0.1-0.6c-0.1-0.1-0.2-0.2-0.3-0.2h-0.4V25c0,0.2,0.1,0.3,0.4,0.3h0.2L34.8,25.6L34.8,25.6z"
			/>
		<g>
			<path class="st1" d="M32,24.5c-0.1,0.7-0.6,1.3-1.6,1.3c-0.6,0-1.2-0.2-1.5-0.3v-1h0.3c0,0.1,0,0.3,0,0.3s0.1,0.2,0.2,0.3
				c0.2,0.2,0.4,0.3,0.9,0.3c0.7,0,0.9-0.3,0.9-0.7c0-0.4-0.3-0.5-1.1-0.8c-0.9-0.2-1.3-0.5-1.3-1.3c0-0.7,0.5-1.3,1.5-1.3
				c0.6,0,0.9,0.1,1.3,0.3v0.9h-0.3c0-0.1,0-0.3,0-0.3c0-0.1-0.1-0.3-0.2-0.3c-0.3-0.3-0.6-0.3-0.9-0.3c-0.3,0-0.8,0.2-0.8,0.6
				c0,0.3,0.2,0.5,0.9,0.7c0.7,0.2,0.9,0.3,1.2,0.4C32,23.7,32.1,24,32,24.5"/>
			<path class="st1" d="M8.5,24.1c-0.1,0.8-0.7,1.5-2.2,1.5c-0.8,0-1.6-0.3-1.9-0.5v-1.3h0.4c0,0.2,0,0.3,0,0.4s0.1,0.3,0.2,0.4
				c0.3,0.3,0.6,0.5,1.3,0.5c0.9,0,1.3-0.5,1.3-1c0-0.6-0.4-0.8-1.5-1c-1-0.3-1.7-0.6-1.7-1.6c0-0.9,0.7-1.7,2.1-1.7
				c0.9,0,1.3,0.2,1.6,0.3v1.2H7.8c0-0.1,0-0.3,0-0.4c0-0.2-0.2-0.3-0.3-0.4c-0.3-0.1-0.7-0.2-1.1-0.1c-0.5,0-1,0.3-1,0.8
				s0.2,0.7,1.2,0.9c0.9,0.2,1.3,0.3,1.6,0.6C8.5,23.2,8.5,23.6,8.5,24.1"/>
		</g>
		<path class="st1" d="M12.9,21.8c0.3,0,0.3,0.1,0.3,0.3v3.1c0,0.2,0,0.3-0.3,0.3h-0.1v0.2h1.3v-0.3H14c-0.3,0-0.3-0.1-0.3-0.3v-2.6
			l1.7,3.1h0.9v-3.5c0-0.2,0-0.3,0.3-0.3h0.3v-0.5c0-0.4,0-0.9,0.6-0.9h0.6v4.4c0,0.3-0.1,0.5-0.5,0.5h-0.2v0.3H20v-0.3h-0.2
			c-0.4,0-0.5-0.1-0.5-0.5v-4.4h0.6c0.6,0,0.6,0.4,0.6,0.9v0.4h0.4c0.3,0,0.3,0.1,0.3,0.3v3c0,0.2-0.2,0.3-0.4,0.3v0.3h1.9v-0.3
			c-0.3,0-0.4-0.1-0.4-0.3v-3.3h0.5c0.4,0,0.7,0.2,0.7,0.8c0,0.3-0.2,0.8-0.7,0.8h-0.3c0,0,0.8,1.5,0.9,1.8c0.2,0.3,0.4,0.4,0.9,0.4
			h0.8v-0.3c-0.1,0-0.3,0-0.4-0.2l-0.9-1.5c0.5-0.1,0.9-0.5,0.9-1c0-1-1-1-1.6-1h-1.9v-1.5h-4.5v1.5h-1v0.3h0.1
			c0.3,0,0.3,0.1,0.3,0.3v2.6l-1.7-3.1h-2.7v0.3h0.1c0.3,0,0.3,0.1,0.3,0.3v2.2c0,0.5-0.1,1.2-0.9,1.2c-0.8,0-0.8-0.6-0.8-1.1v-2.2
			c0-0.2,0.1-0.3,0.4-0.3v-0.3H8.7v0.3c0.3,0,0.4,0.1,0.4,0.3v2.1c0,0.6,0.1,0.9,0.3,1.2c0.3,0.3,1,0.3,1.3,0.3
			c1.5,0,1.5-0.9,1.5-1.8v-2.2c0,0.1,0,0,0.3,0L12.9,21.8L12.9,21.8z"/>
		<g>
			
				<linearGradient id="SVGID_1_" gradientUnits="userSpaceOnUse" x1="8.069" y1="22.9016" x2="15.9684" y2="32.3157" gradientTransform="matrix(1 0 0 -1 0 40)">
				<stop  offset="0.3427" style="stop-color:#F5A800"/>
				<stop  offset="0.4882" style="stop-color:#E98F07"/>
				<stop  offset="0.6854" style="stop-color:#DC740E"/>
				<stop  offset="0.8605" style="stop-color:#D46413"/>
				<stop  offset="0.9944" style="stop-color:#D15E14"/>
			</linearGradient>
			<path class="st2" d="M8.4,14.6l-0.1,0.3c-0.1,0.2-0.1,0.6,0,0.8L8.7,18c0,0.2,0.1,0.3,0.2,0.3s0.1-0.2,0-0.5l-0.3-3.1
				C8.5,14.5,8.4,14.5,8.4,14.6"/>
			
				<linearGradient id="SVGID_2_" gradientUnits="userSpaceOnUse" x1="8.3311" y1="22.6556" x2="16.2023" y2="32.0361" gradientTransform="matrix(1 0 0 -1 0 40)">
				<stop  offset="0.3427" style="stop-color:#F5A800"/>
				<stop  offset="0.4882" style="stop-color:#E98F07"/>
				<stop  offset="0.6854" style="stop-color:#DC740E"/>
				<stop  offset="0.8605" style="stop-color:#D46413"/>
				<stop  offset="0.9944" style="stop-color:#D15E14"/>
			</linearGradient>
			<path class="st3" d="M9.3,17.1c0,0.2,0,0.4,0,0.4c-0.1,0-0.1-0.1-0.2-0.3L9,15.9c0-0.2,0-0.6,0.1-0.8s0.2-0.1,0.2,0.1L9.3,17.1z"
				/>
			
				<linearGradient id="SVGID_3_" gradientUnits="userSpaceOnUse" x1="7.8082" y1="23.0768" x2="15.6498" y2="32.422" gradientTransform="matrix(1 0 0 -1 0 40)">
				<stop  offset="0.3427" style="stop-color:#F5A800"/>
				<stop  offset="0.4882" style="stop-color:#E98F07"/>
				<stop  offset="0.6854" style="stop-color:#DC740E"/>
				<stop  offset="0.8605" style="stop-color:#D46413"/>
				<stop  offset="0.9944" style="stop-color:#D15E14"/>
			</linearGradient>
			<path class="st4" d="M9.9,12.4l-0.2,4c0,0.2,0,0.4-0.1,0.4c0,0-0.1-0.1-0.1-0.3l-0.1-3.4c0-0.2,0.1-0.4,0.2-0.6l0.1-0.3
				C9.8,12.3,9.9,12.3,9.9,12.4"/>
			
				<linearGradient id="SVGID_4_" gradientUnits="userSpaceOnUse" x1="8.3109" y1="22.6369" x2="16.1336" y2="31.9596" gradientTransform="matrix(1 0 0 -1 0 40)">
				<stop  offset="0.3427" style="stop-color:#F5A800"/>
				<stop  offset="0.4882" style="stop-color:#E98F07"/>
				<stop  offset="0.6854" style="stop-color:#DC740E"/>
				<stop  offset="0.8605" style="stop-color:#D46413"/>
				<stop  offset="0.9944" style="stop-color:#D15E14"/>
			</linearGradient>
			<path class="st5" d="M10.5,13.3l-0.3,3.1c0,0.3-0.1,0.4-0.1,0.4c-0.1,0-0.1-0.2-0.1-0.3l0.1-2.7C10.2,13.6,10.4,13.3,10.5,13.3
				C10.5,13,10.5,13.1,10.5,13.3"/>
			
				<linearGradient id="SVGID_5_" gradientUnits="userSpaceOnUse" x1="7.9493" y1="22.9266" x2="15.7545" y2="32.2285" gradientTransform="matrix(1 0 0 -1 0 40)">
				<stop  offset="0.3427" style="stop-color:#F5A800"/>
				<stop  offset="0.4882" style="stop-color:#E98F07"/>
				<stop  offset="0.6854" style="stop-color:#DC740E"/>
				<stop  offset="0.8605" style="stop-color:#D46413"/>
				<stop  offset="0.9944" style="stop-color:#D15E14"/>
			</linearGradient>
			<path class="st6" d="M10.6,16.1c-0.1,0-0.1-0.3,0-0.3l0.4-4.3c0-0.2,0.2-0.4,0.3-0.5v-0.1c0.1-0.2,0.2-0.2,0.2,0l-0.7,4.8
				C10.7,15.9,10.7,16.1,10.6,16.1"/>
			
				<linearGradient id="SVGID_6_" gradientUnits="userSpaceOnUse" x1="8.5197" y1="22.436" x2="16.3053" y2="31.7145" gradientTransform="matrix(1 0 0 -1 0 40)">
				<stop  offset="0.3427" style="stop-color:#F5A800"/>
				<stop  offset="0.4882" style="stop-color:#E98F07"/>
				<stop  offset="0.6854" style="stop-color:#DC740E"/>
				<stop  offset="0.8605" style="stop-color:#D46413"/>
				<stop  offset="0.9944" style="stop-color:#D15E14"/>
			</linearGradient>
			<path class="st7" d="M11.9,11.6c0.1-0.1,0.3-0.1,0.3,0.1L11.2,16c0,0.2-0.1,0.4-0.2,0.3c-0.1,0-0.1-0.3,0-0.4l0.7-3.9
				C11.7,12,11.8,11.7,11.9,11.6"/>
			
				<linearGradient id="SVGID_7_" gradientUnits="userSpaceOnUse" x1="9.0432" y1="21.9931" x2="16.7738" y2="31.2061" gradientTransform="matrix(1 0 0 -1 0 40)">
				<stop  offset="0.3427" style="stop-color:#F5A800"/>
				<stop  offset="0.4882" style="stop-color:#E98F07"/>
				<stop  offset="0.6854" style="stop-color:#DC740E"/>
				<stop  offset="0.8605" style="stop-color:#D46413"/>
				<stop  offset="0.9944" style="stop-color:#D15E14"/>
			</linearGradient>
			<path class="st8" d="M12,16c-0.1,0.2-0.2,0.3-0.3,0.3c-0.1,0,0.1-0.3,0.1-0.3l2.3-5.7c0.1-0.2,0.3-0.3,0.4-0.3s0,0.4-0.1,0.5
				C13.1,13.7,12.7,14.6,12,16"/>
			
				<linearGradient id="SVGID_8_" gradientUnits="userSpaceOnUse" x1="9.2946" y1="21.7807" x2="16.9994" y2="30.9629" gradientTransform="matrix(1 0 0 -1 0 40)">
				<stop  offset="0.3427" style="stop-color:#F5A800"/>
				<stop  offset="0.4882" style="stop-color:#E98F07"/>
				<stop  offset="0.6854" style="stop-color:#DC740E"/>
				<stop  offset="0.8605" style="stop-color:#D46413"/>
				<stop  offset="0.9944" style="stop-color:#D15E14"/>
			</linearGradient>
			<path class="st9" d="M12.5,15.7c0.1,0,0.2-0.1,0.3-0.3l4.3-7.1c0.1-0.1,0.1-0.3,0-0.4c-0.1-0.1-0.3,0.1-0.4,0.3l-4,7.2
				C12.6,15.5,12.5,15.7,12.5,15.7"/>
			
				<linearGradient id="SVGID_9_" gradientUnits="userSpaceOnUse" x1="10.0942" y1="21.1045" x2="17.7756" y2="30.2589" gradientTransform="matrix(1 0 0 -1 0 40)">
				<stop  offset="0.3427" style="stop-color:#F5A800"/>
				<stop  offset="0.4882" style="stop-color:#E98F07"/>
				<stop  offset="0.6854" style="stop-color:#DC740E"/>
				<stop  offset="0.8605" style="stop-color:#D46413"/>
				<stop  offset="0.9944" style="stop-color:#D15E14"/>
			</linearGradient>
			<path class="st10" d="M12.7,16.5c-0.1-0.1,0-0.3,0.2-0.4l4.6-6.6C17.5,9.2,17.8,9,18,9.1c0.2,0.1,0.2,0.3,0,0.4l-5,6.6
				C12.9,16.4,12.7,16.5,12.7,16.5"/>
			
				<linearGradient id="SVGID_10_" gradientUnits="userSpaceOnUse" x1="11.039" y1="20.3105" x2="18.6968" y2="29.4366" gradientTransform="matrix(1 0 0 -1 0 40)">
				<stop  offset="0.3427" style="stop-color:#F5A800"/>
				<stop  offset="0.4882" style="stop-color:#E98F07"/>
				<stop  offset="0.6854" style="stop-color:#DC740E"/>
				<stop  offset="0.8605" style="stop-color:#D46413"/>
				<stop  offset="0.9944" style="stop-color:#D15E14"/>
			</linearGradient>
			<path class="st11" d="M14,15.7c0,0-0.3,0.3-0.3,0.3c-0.1-0.1,0.1-0.2,0.2-0.3l0.2-0.2l6.4-7.3c0.1-0.1,0.3-0.2,0.3,0l0.2,0.3
				c0.1,0.1,0.1,0.3,0,0.4L14,15.7z"/>
			
				<linearGradient id="SVGID_11_" gradientUnits="userSpaceOnUse" x1="11.8049" y1="19.6643" x2="19.4372" y2="28.7601" gradientTransform="matrix(1 0 0 -1 0 40)">
				<stop  offset="0.3427" style="stop-color:#F5A800"/>
				<stop  offset="0.4882" style="stop-color:#E98F07"/>
				<stop  offset="0.6854" style="stop-color:#DC740E"/>
				<stop  offset="0.8605" style="stop-color:#D46413"/>
				<stop  offset="0.9944" style="stop-color:#D15E14"/>
			</linearGradient>
			<path class="st12" d="M13.5,16.9c-0.1-0.1,0.1-0.2,0.3-0.3l6.8-6.3c0.1-0.1,0.3-0.1,0.4,0c0.2,0.2,0.2,0.3,0.2,0.3
				c0,0.2-0.1,0.3-0.2,0.4l-7.1,5.6C13.7,16.9,13.5,17,13.5,16.9"/>
			
				<linearGradient id="SVGID_12_" gradientUnits="userSpaceOnUse" x1="12.9343" y1="18.7139" x2="20.5406" y2="27.7788" gradientTransform="matrix(1 0 0 -1 0 40)">
				<stop  offset="0.3427" style="stop-color:#F5A800"/>
				<stop  offset="0.4882" style="stop-color:#E98F07"/>
				<stop  offset="0.6854" style="stop-color:#DC740E"/>
				<stop  offset="0.8605" style="stop-color:#D46413"/>
				<stop  offset="0.9944" style="stop-color:#D15E14"/>
			</linearGradient>
			<path class="st13" d="M14.9,16.4l7.9-5.7c0.2-0.1,0.3-0.1,0.3,0.1l0.2,0.6c0,0.2-0.1,0.3-0.3,0.5l-8,4.7
				c-0.2,0.1-0.4,0.3-0.4,0.2C14.5,16.6,14.7,16.5,14.9,16.4"/>
			
				<linearGradient id="SVGID_13_" gradientUnits="userSpaceOnUse" x1="13.3257" y1="18.3936" x2="20.8934" y2="27.4125" gradientTransform="matrix(1 0 0 -1 0 40)">
				<stop  offset="0.3427" style="stop-color:#F5A800"/>
				<stop  offset="0.4882" style="stop-color:#E98F07"/>
				<stop  offset="0.6854" style="stop-color:#DC740E"/>
				<stop  offset="0.8605" style="stop-color:#D46413"/>
				<stop  offset="0.9944" style="stop-color:#D15E14"/>
			</linearGradient>
			<path class="st14" d="M14.1,17.5c0-0.1,0.2-0.2,0.4-0.3l7.1-3.5c0.2-0.1,0.3-0.1,0.3,0.1v0.8c0,0.2-0.2,0.3-0.4,0.4l-7,2.4
				C14.3,17.6,14.1,17.6,14.1,17.5"/>
			
				<linearGradient id="SVGID_14_" gradientUnits="userSpaceOnUse" x1="14.4163" y1="17.4827" x2="21.9346" y2="26.4427" gradientTransform="matrix(1 0 0 -1 0 40)">
				<stop  offset="0.3427" style="stop-color:#F5A800"/>
				<stop  offset="0.4882" style="stop-color:#E98F07"/>
				<stop  offset="0.6854" style="stop-color:#DC740E"/>
				<stop  offset="0.8605" style="stop-color:#D46413"/>
				<stop  offset="0.9944" style="stop-color:#D15E14"/>
			</linearGradient>
			<path class="st15" d="M22.3,16.9l-6.8,0.9c-0.3,0-0.4,0.1-0.5,0c0-0.1,0.2-0.2,0.4-0.3l7.1-2.2c0.3-0.1,0.4,0,0.3,0.2l-0.1,0.8
				C22.8,16.6,22.6,16.8,22.3,16.9"/>
			
				<linearGradient id="SVGID_15_" gradientUnits="userSpaceOnUse" x1="14.5542" y1="17.3774" x2="22.0107" y2="26.2638" gradientTransform="matrix(1 0 0 -1 0 40)">
				<stop  offset="0.3427" style="stop-color:#F5A800"/>
				<stop  offset="0.4882" style="stop-color:#E98F07"/>
				<stop  offset="0.6854" style="stop-color:#DC740E"/>
				<stop  offset="0.8605" style="stop-color:#D46413"/>
				<stop  offset="0.9944" style="stop-color:#D15E14"/>
			</linearGradient>
			<path class="st16" d="M14.6,18.5c0-0.1,0.3-0.2,0.6-0.2l6-0.7c0.3,0,0.5,0.1,0.4,0.3l-0.1,0.3c-0.1,0.2-0.3,0.3-0.6,0.3h-5.8
				C14.8,18.6,14.6,18.6,14.6,18.5"/>
			
				<linearGradient id="SVGID_16_" gradientUnits="userSpaceOnUse" x1="8.4235" y1="22.5144" x2="16.1822" y2="31.7608" gradientTransform="matrix(1 0 0 -1 0 40)">
				<stop  offset="0.3427" style="stop-color:#F5A800"/>
				<stop  offset="0.4882" style="stop-color:#E98F07"/>
				<stop  offset="0.6854" style="stop-color:#DC740E"/>
				<stop  offset="0.8605" style="stop-color:#D46413"/>
				<stop  offset="0.9944" style="stop-color:#D15E14"/>
			</linearGradient>
			<path class="st17" d="M13.7,9.6c0,0-1.7,5.3-1.8,5.7c-0.1,0.3-0.2,0.6-0.3,0.6c-0.1,0,0-0.2,0.1-0.4l1.6-5.9
				c0.1-0.3,0.3-0.4,0.4-0.4C13.9,9,13.8,9.4,13.7,9.6"/>
		</g>
	</g>
</g>
</svg>
