<svg xmlns="http://www.w3.org/2000/svg" xmlns:xlink="http://www.w3.org/1999/xlink" id="Calque_1" x="0" y="0" version="1.1" viewBox="0 0 40 40" style="enable-background:new 0 0 40 40" xml:space="preserve"><style type="text/css">.st0{fill:#fff}.st1{fill:#002856}.st2{fill:url(#SVGID_1_)}</style><rect width="40" height="40" class="st0"/><g id="Calque_5"><g><path d="M28.3,24.1c0,0.6-0.1,1.6-1.5,1.6c-0.3,0-0.9,0-1.3-0.3c-0.3-0.3-0.3-0.7-0.3-1.3V22c0-0.2-0.1-0.3-0.4-0.3 v-0.3h1.9v0.3c-0.3,0-0.4,0.1-0.4,0.3v2.2c0,0.5,0,1.1,0.8,1.1c0.9,0,0.9-0.7,0.9-1.2v-2.2c0-0.2,0-0.3-0.3-0.3h-0.1v-0.3h1.3v0.3 h-0.2c-0.3,0-0.3,0.1-0.3,0.3v2.2H28.3z" class="st1"/><path d="M34.8,25.6h-2.1v-0.3h0.2c0.3,0,0.4-0.1,0.4-0.3v-3.2h-0.4c-0.2,0-0.3,0.1-0.3,0.2c-0.1,0.1-0.1,0.4-0.1,0.6 h-0.4v-1.1h3.4v1.1h-0.3c0-0.2,0-0.5-0.1-0.6s-0.2-0.2-0.3-0.2h-0.4V25c0,0.2,0.1,0.3,0.4,0.3H35L34.8,25.6L34.8,25.6z" class="st1"/><g><path d="M32,24.5c-0.1,0.7-0.6,1.3-1.6,1.3c-0.6,0-1.2-0.2-1.5-0.3v-1h0.3c0,0.1,0,0.3,0,0.3s0.1,0.2,0.2,0.3 c0.2,0.2,0.4,0.3,0.9,0.3c0.7,0,0.9-0.3,0.9-0.7c0-0.4-0.3-0.5-1.1-0.8c-0.9-0.2-1.3-0.5-1.3-1.3c0-0.7,0.5-1.3,1.5-1.3 c0.6,0,0.9,0.1,1.3,0.3v0.9h-0.3c0-0.1,0-0.3,0-0.3c0-0.1-0.1-0.3-0.2-0.3c-0.3-0.3-0.6-0.3-0.9-0.3s-0.8,0.2-0.8,0.6 c0,0.3,0.2,0.5,0.9,0.7c0.7,0.2,0.9,0.3,1.2,0.4C32,23.7,32.1,24,32,24.5" class="st1"/><path d="M8.5,24.1c-0.1,0.8-0.7,1.5-2.2,1.5c-0.8,0-1.6-0.3-1.9-0.5v-1.3h0.4c0,0.2,0,0.3,0,0.4s0.1,0.3,0.2,0.4 c0.3,0.3,0.6,0.5,1.3,0.5c0.9,0,1.3-0.5,1.3-1c0-0.6-0.4-0.8-1.5-1c-1-0.3-1.7-0.6-1.7-1.6c0-0.9,0.7-1.7,2.1-1.7 c0.9,0,1.3,0.2,1.6,0.3v1.2H7.8c0-0.1,0-0.3,0-0.4c0-0.2-0.2-0.3-0.3-0.4c-0.3-0.1-0.7-0.2-1.1-0.1c-0.5,0-1,0.3-1,0.8 s0.2,0.7,1.2,0.9c0.9,0.2,1.3,0.3,1.6,0.6C8.5,23.2,8.5,23.6,8.5,24.1" class="st1"/></g><path d="M12.9,21.8c0.3,0,0.3,0.1,0.3,0.3v3.1c0,0.2,0,0.3-0.3,0.3h-0.1v0.2h1.3v-0.3H14c-0.3,0-0.3-0.1-0.3-0.3v-2.6 l1.7,3.1h0.9v-3.5c0-0.2,0-0.3,0.3-0.3h0.3v-0.5c0-0.4,0-0.9,0.6-0.9h0.6v4.4c0,0.3-0.1,0.5-0.5,0.5h-0.2v0.3H20v-0.3h-0.2 c-0.4,0-0.5-0.1-0.5-0.5v-4.4h0.6c0.6,0,0.6,0.4,0.6,0.9v0.4h0.4c0.3,0,0.3,0.1,0.3,0.3v3c0,0.2-0.2,0.3-0.4,0.3v0.3h1.9v-0.3 c-0.3,0-0.4-0.1-0.4-0.3v-3.3h0.5c0.4,0,0.7,0.2,0.7,0.8c0,0.3-0.2,0.8-0.7,0.8h-0.3c0,0,0.8,1.5,0.9,1.8c0.2,0.3,0.4,0.4,0.9,0.4 h0.8v-0.3c-0.1,0-0.3,0-0.4-0.2l-0.9-1.5c0.5-0.1,0.9-0.5,0.9-1c0-1-1-1-1.6-1h-1.9V20h-4.5v1.5h-1v0.3h0.1c0.3,0,0.3,0.1,0.3,0.3 v2.6l-1.7-3.1h-2.7v0.3h0.1c0.3,0,0.3,0.1,0.3,0.3v2.2c0,0.5-0.1,1.2-0.9,1.2c-0.8,0-0.8-0.6-0.8-1.1v-2.2c0-0.2,0.1-0.3,0.4-0.3 v-0.3H8.7V22c0.3,0,0.4,0.1,0.4,0.3v2.1c0,0.6,0.1,0.9,0.3,1.2c0.3,0.3,1,0.3,1.3,0.3c1.5,0,1.5-0.9,1.5-1.8v-2.2c0,0.1,0,0,0.3,0 L12.9,21.8L12.9,21.8z" class="st1"/><g><linearGradient id="SVGID_1_" x1="8.091" x2="15.99" y1="3.116" y2="-6.298" gradientTransform="matrix(1 0 0 1 0 14)" gradientUnits="userSpaceOnUse"><stop offset=".343" style="stop-color:#f5a800"/><stop offset=".488" style="stop-color:#e98f07"/><stop offset=".685" style="stop-color:#dc740e"/><stop offset=".861" style="stop-color:#d46413"/><stop offset=".994" style="stop-color:#d15e14"/></linearGradient><path d="M8.4,14.6l-0.1,0.3c-0.1,0.2-0.1,0.6,0,0.8L8.7,18c0,0.2,0.1,0.3,0.2,0.3s0.1-0.2,0-0.5l-0.3-3.1 C8.5,14.5,8.4,14.5,8.4,14.6" class="st2"/><linearGradient id="SVGID_00000116220707251298739840000008755612734568984990_" x1="8.322" x2="16.194" y1="3.337" y2="-6.043" gradientTransform="matrix(1 0 0 1 0 14)" gradientUnits="userSpaceOnUse"><stop offset=".343" style="stop-color:#f5a800"/><stop offset=".488" style="stop-color:#e98f07"/><stop offset=".685" style="stop-color:#dc740e"/><stop offset=".861" style="stop-color:#d46413"/><stop offset=".994" style="stop-color:#d15e14"/></linearGradient><path style="fill:url(#SVGID_00000116220707251298739840000008755612734568984990_)" d="M9.3,17.1c0,0.2,0,0.4,0,0.4 c-0.1,0-0.1-0.1-0.2-0.3L9,15.9c0-0.2,0-0.6,0.1-0.8s0.2-0.1,0.2,0.1V17.1z"/><linearGradient id="SVGID_00000098923137473893308830000013253144661817707420_" x1="7.705" x2="15.546" y1="2.836" y2="-6.509" gradientTransform="matrix(1 0 0 1 0 14)" gradientUnits="userSpaceOnUse"><stop offset=".343" style="stop-color:#f5a800"/><stop offset=".488" style="stop-color:#e98f07"/><stop offset=".685" style="stop-color:#dc740e"/><stop offset=".861" style="stop-color:#d46413"/><stop offset=".994" style="stop-color:#d15e14"/></linearGradient><path style="fill:url(#SVGID_00000098923137473893308830000013253144661817707420_)" d="M9.9,12.4l-0.2,4c0,0.2,0,0.4-0.1,0.4 c0,0-0.1-0.1-0.1-0.3l-0.1-3.4c0-0.2,0.1-0.4,0.2-0.6l0.1-0.3C9.8,12.3,9.9,12.3,9.9,12.4"/><linearGradient id="SVGID_00000174585984607408363510000010385169990037079999_" x1="8.293" x2="16.115" y1="3.348" y2="-5.975" gradientTransform="matrix(1 0 0 1 0 14)" gradientUnits="userSpaceOnUse"><stop offset=".343" style="stop-color:#f5a800"/><stop offset=".488" style="stop-color:#e98f07"/><stop offset=".685" style="stop-color:#dc740e"/><stop offset=".861" style="stop-color:#d46413"/><stop offset=".994" style="stop-color:#d15e14"/></linearGradient><path style="fill:url(#SVGID_00000174585984607408363510000010385169990037079999_)" d="M10.5,13.3l-0.3,3.1 c0,0.3-0.1,0.4-0.1,0.4c-0.1,0-0.1-0.2-0.1-0.3l0.1-2.7C10.2,13.6,10.4,13.3,10.5,13.3C10.5,13,10.5,13.1,10.5,13.3"/><linearGradient id="SVGID_00000057130393045865138300000017669832276885484454_" x1="7.953" x2="15.759" y1="3.077" y2="-6.225" gradientTransform="matrix(1 0 0 1 0 14)" gradientUnits="userSpaceOnUse"><stop offset=".343" style="stop-color:#f5a800"/><stop offset=".488" style="stop-color:#e98f07"/><stop offset=".685" style="stop-color:#dc740e"/><stop offset=".861" style="stop-color:#d46413"/><stop offset=".994" style="stop-color:#d15e14"/></linearGradient><path style="fill:url(#SVGID_00000057130393045865138300000017669832276885484454_)" d="M10.6,16.1c-0.1,0-0.1-0.3,0-0.3 l0.4-4.3c0-0.2,0.2-0.4,0.3-0.5v-0.1c0.1-0.2,0.2-0.2,0.2,0l-0.7,4.8C10.7,15.9,10.7,16.1,10.6,16.1"/><linearGradient id="SVGID_00000060009149835111213880000012981485412484032416_" x1="8.492" x2="16.277" y1="3.54" y2="-5.738" gradientTransform="matrix(1 0 0 1 0 14)" gradientUnits="userSpaceOnUse"><stop offset=".343" style="stop-color:#f5a800"/><stop offset=".488" style="stop-color:#e98f07"/><stop offset=".685" style="stop-color:#dc740e"/><stop offset=".861" style="stop-color:#d46413"/><stop offset=".994" style="stop-color:#d15e14"/></linearGradient><path style="fill:url(#SVGID_00000060009149835111213880000012981485412484032416_)" d="M11.9,11.6c0.1-0.1,0.3-0.1,0.3,0.1 l-1,4.3c0,0.2-0.1,0.4-0.2,0.3c-0.1,0-0.1-0.3,0-0.4l0.7-3.9C11.7,12,11.8,11.7,11.9,11.6"/><linearGradient id="SVGID_00000016062935112785127350000010176851095412318140_" x1="9.009" x2="16.74" y1="3.978" y2="-5.235" gradientTransform="matrix(1 0 0 1 0 14)" gradientUnits="userSpaceOnUse"><stop offset=".343" style="stop-color:#f5a800"/><stop offset=".488" style="stop-color:#e98f07"/><stop offset=".685" style="stop-color:#dc740e"/><stop offset=".861" style="stop-color:#d46413"/><stop offset=".994" style="stop-color:#d15e14"/></linearGradient><path style="fill:url(#SVGID_00000016062935112785127350000010176851095412318140_)" d="M12,16c-0.1,0.2-0.2,0.3-0.3,0.3 s0.1-0.3,0.1-0.3l2.3-5.7c0.1-0.2,0.3-0.3,0.4-0.3s0,0.4-0.1,0.5C13.1,13.7,12.7,14.6,12,16"/><linearGradient id="SVGID_00000002382845068180201700000013715084230610696095_" x1="9.338" x2="17.042" y1="4.255" y2="-4.927" gradientTransform="matrix(1 0 0 1 0 14)" gradientUnits="userSpaceOnUse"><stop offset=".343" style="stop-color:#f5a800"/><stop offset=".488" style="stop-color:#e98f07"/><stop offset=".685" style="stop-color:#dc740e"/><stop offset=".861" style="stop-color:#d46413"/><stop offset=".994" style="stop-color:#d15e14"/></linearGradient><path style="fill:url(#SVGID_00000002382845068180201700000013715084230610696095_)" d="M12.5,15.7c0.1,0,0.2-0.1,0.3-0.3 l4.3-7.1c0.1-0.1,0.1-0.3,0-0.4S16.8,8,16.7,8.2l-4,7.2C12.6,15.5,12.5,15.7,12.5,15.7"/><linearGradient id="SVGID_00000158751717828373549920000015029838481486377900_" x1="10.102" x2="17.784" y1="4.902" y2="-4.252" gradientTransform="matrix(1 0 0 1 0 14)" gradientUnits="userSpaceOnUse"><stop offset=".343" style="stop-color:#f5a800"/><stop offset=".488" style="stop-color:#e98f07"/><stop offset=".685" style="stop-color:#dc740e"/><stop offset=".861" style="stop-color:#d46413"/><stop offset=".994" style="stop-color:#d15e14"/></linearGradient><path style="fill:url(#SVGID_00000158751717828373549920000015029838481486377900_)" d="M12.7,16.5c-0.1-0.1,0-0.3,0.2-0.4 l4.6-6.6c0-0.3,0.3-0.5,0.5-0.4s0.2,0.3,0,0.4l-5,6.6C12.9,16.4,12.7,16.5,12.7,16.5"/><linearGradient id="SVGID_00000041286984743335244670000013878791327349144967_" x1="11.148" x2="18.806" y1="5.781" y2="-3.345" gradientTransform="matrix(1 0 0 1 0 14)" gradientUnits="userSpaceOnUse"><stop offset=".343" style="stop-color:#f5a800"/><stop offset=".488" style="stop-color:#e98f07"/><stop offset=".685" style="stop-color:#dc740e"/><stop offset=".861" style="stop-color:#d46413"/><stop offset=".994" style="stop-color:#d15e14"/></linearGradient><path style="fill:url(#SVGID_00000041286984743335244670000013878791327349144967_)" d="M14,15.7L13.7,16 c-0.1-0.1,0.1-0.2,0.2-0.3l0.2-0.2l6.4-7.3c0.1-0.1,0.3-0.2,0.3,0L21,8.5c0.1,0.1,0.1,0.3,0,0.4L14,15.7z"/><linearGradient id="SVGID_00000138574384922886777890000008416176582122737590_" x1="11.83" x2="19.463" y1="6.357" y2="-2.739" gradientTransform="matrix(1 0 0 1 0 14)" gradientUnits="userSpaceOnUse"><stop offset=".343" style="stop-color:#f5a800"/><stop offset=".488" style="stop-color:#e98f07"/><stop offset=".685" style="stop-color:#dc740e"/><stop offset=".861" style="stop-color:#d46413"/><stop offset=".994" style="stop-color:#d15e14"/></linearGradient><path style="fill:url(#SVGID_00000138574384922886777890000008416176582122737590_)" d="M13.5,16.9c-0.1-0.1,0.1-0.2,0.3-0.3 l6.8-6.3c0.1-0.1,0.3-0.1,0.4,0c0.2,0.2,0.2,0.3,0.2,0.3c0,0.2-0.1,0.3-0.2,0.4l-7.1,5.6C13.7,16.9,13.5,17,13.5,16.9"/><linearGradient id="SVGID_00000114058897051023468730000011920916283472254647_" x1="12.919" x2="20.526" y1="7.274" y2="-1.791" gradientTransform="matrix(1 0 0 1 0 14)" gradientUnits="userSpaceOnUse"><stop offset=".343" style="stop-color:#f5a800"/><stop offset=".488" style="stop-color:#e98f07"/><stop offset=".685" style="stop-color:#dc740e"/><stop offset=".861" style="stop-color:#d46413"/><stop offset=".994" style="stop-color:#d15e14"/></linearGradient><path style="fill:url(#SVGID_00000114058897051023468730000011920916283472254647_)" d="M14.9,16.4l7.9-5.7 c0.2-0.1,0.3-0.1,0.3,0.1l0.2,0.6c0,0.2-0.1,0.3-0.3,0.5l-8,4.7c-0.2,0.1-0.4,0.3-0.4,0.2C14.5,16.6,14.7,16.5,14.9,16.4"/><linearGradient id="SVGID_00000083057728449024883820000001319308895808149417_" x1="13.349" x2="20.917" y1="7.626" y2="-1.393" gradientTransform="matrix(1 0 0 1 0 14)" gradientUnits="userSpaceOnUse"><stop offset=".343" style="stop-color:#f5a800"/><stop offset=".488" style="stop-color:#e98f07"/><stop offset=".685" style="stop-color:#dc740e"/><stop offset=".861" style="stop-color:#d46413"/><stop offset=".994" style="stop-color:#d15e14"/></linearGradient><path style="fill:url(#SVGID_00000083057728449024883820000001319308895808149417_)" d="M14.1,17.5c0-0.1,0.2-0.2,0.4-0.3 l7.1-3.5c0.2-0.1,0.3-0.1,0.3,0.1v0.8c0,0.2-0.2,0.3-0.4,0.4l-7,2.4C14.3,17.6,14.1,17.6,14.1,17.5"/><linearGradient id="SVGID_00000061474021997726412860000002346556990154899368_" x1="14.396" x2="21.914" y1="8.5" y2="-.46" gradientTransform="matrix(1 0 0 1 0 14)" gradientUnits="userSpaceOnUse"><stop offset=".343" style="stop-color:#f5a800"/><stop offset=".488" style="stop-color:#e98f07"/><stop offset=".685" style="stop-color:#dc740e"/><stop offset=".861" style="stop-color:#d46413"/><stop offset=".994" style="stop-color:#d15e14"/></linearGradient><path style="fill:url(#SVGID_00000061474021997726412860000002346556990154899368_)" d="M22.3,16.9l-6.8,0.9 c-0.3,0-0.4,0.1-0.5,0c0-0.1,0.2-0.2,0.4-0.3l7.1-2.2c0.3-0.1,0.4,0,0.3,0.2l-0.1,0.8C22.8,16.6,22.6,16.8,22.3,16.9"/><linearGradient id="SVGID_00000112606908929014573360000018093776220234419092_" x1="14.502" x2="21.958" y1="8.579" y2="-.308" gradientTransform="matrix(1 0 0 1 0 14)" gradientUnits="userSpaceOnUse"><stop offset=".343" style="stop-color:#f5a800"/><stop offset=".488" style="stop-color:#e98f07"/><stop offset=".685" style="stop-color:#dc740e"/><stop offset=".861" style="stop-color:#d46413"/><stop offset=".994" style="stop-color:#d15e14"/></linearGradient><path style="fill:url(#SVGID_00000112606908929014573360000018093776220234419092_)" d="M14.6,18.5c0-0.1,0.3-0.2,0.6-0.2l6-0.7 c0.3,0,0.5,0.1,0.4,0.3l-0.1,0.3c-0.1,0.2-0.3,0.3-0.6,0.3h-5.8C14.8,18.6,14.6,18.6,14.6,18.5"/><linearGradient id="SVGID_00000091699600777484351900000013051017003943300516_" x1="8.443" x2="16.201" y1="3.502" y2="-5.745" gradientTransform="matrix(1 0 0 1 0 14)" gradientUnits="userSpaceOnUse"><stop offset=".343" style="stop-color:#f5a800"/><stop offset=".488" style="stop-color:#e98f07"/><stop offset=".685" style="stop-color:#dc740e"/><stop offset=".861" style="stop-color:#d46413"/><stop offset=".994" style="stop-color:#d15e14"/></linearGradient><path style="fill:url(#SVGID_00000091699600777484351900000013051017003943300516_)" d="M13.7,9.6c0,0-1.7,5.3-1.8,5.7 c-0.1,0.3-0.2,0.6-0.3,0.6s0-0.2,0.1-0.4l1.6-5.9c0.1-0.3,0.3-0.4,0.4-0.4C13.9,9,13.8,9.4,13.7,9.6"/></g></g></g></svg>