<?xml version="1.0" encoding="utf-8"?>
<!-- Generator: Adobe Illustrator 23.0.3, SVG Export Plug-In . SVG Version: 6.00 Build 0)  -->
<svg version="1.1" id="Calque_1" xmlns="http://www.w3.org/2000/svg" xmlns:xlink="http://www.w3.org/1999/xlink" x="0px" y="0px"
	 viewBox="0 0 40 40" style="enable-background:new 0 0 40 40;" xml:space="preserve">
<style type="text/css">
	.st0{fill:#57B14C;}
	.st1{fill:#FFFFFF;}
</style>
<g>
	<path class="st0" d="M20,40L20,40C9,40,0,31,0,20l0,0C0,9,9,0,20,0l0,0c11,0,20,9,20,20l0,0C40,31,31,40,20,40z"/>
</g>
<g id="Calque_4">
	<path id="path2651" class="st1" d="M26.1,29.8h-8.9V14h4.4v13H26c3,0,4.2-2.1,4.2-7.2c0-5.3-1.4-6.8-4.4-6.8H16v16.9h-4.4V13H5
		v-2.8h22.1c5.4,0,7.9,2.7,7.9,9.5C35,28.8,31.2,29.8,26.1,29.8"/>
</g>
</svg>
