<?xml version="1.0" encoding="utf-8"?>
<!-- Generator: Adobe Illustrator 23.0.3, SVG Export Plug-In . SVG Version: 6.00 Build 0)  -->
<svg version="1.1" id="Calque_1" xmlns="http://www.w3.org/2000/svg" xmlns:xlink="http://www.w3.org/1999/xlink" x="0px" y="0px"
	 viewBox="0 0 40 40" style="enable-background:new 0 0 40 40;" xml:space="preserve">
<style type="text/css">
	.st0{fill:#1B3359;}
	.st1{fill:#FFFFFF;}
</style>
<g>
	<path class="st0" d="M20,40L20,40C9,40,0,31,0,20l0,0C0,9,9,0,20,0l0,0c11,0,20,9,20,20l0,0C40,31,31,40,20,40z"/>
</g>
<g id="Calque_4">
	<g>
		<path class="st1" d="M7.9,25.1v4.5c0,2.5,1.6,2.9,2.9,2.9c1.9,0,2.8-1.2,2.8-2.9v-4.4h-1.3v4.5c0,0.6-0.2,1.7-1.5,1.6
			c-1.2,0-1.5-1.1-1.5-1.8v-4.4L7.9,25.1z M18.8,25.4c0,0-0.8-0.4-1.7-0.4c-1.1,0-2.6,0.6-2.6,2.2c0,1.1,0.8,1.6,1.4,1.9
			c0.3,0.1,0.7,0.3,1,0.5c0.2,0.1,0.8,0.3,0.8,0.9c0,0.7-0.8,0.9-1.1,0.9c-1.2,0-2.1-0.6-2.1-0.6l0.1,1.4c0,0,0.5,0.3,2,0.3
			c1.4,0,2.5-0.9,2.5-2.2c0-1-0.7-1.5-1.2-1.8c-0.5-0.2-0.7-0.3-1.1-0.5c-0.4-0.2-0.8-0.5-0.8-1s0.5-0.9,1.2-0.9
			c1.1,0,1.5,0.5,1.7,0.6L18.8,25.4L18.8,25.4z M29,25.1h-1.5l0.2,0.6l-2.4,6.1L23,25.1h-1.5l0.2,0.6l-2.5,6.5h1.4l0.4-1.3h2.6
			l0.4,1.3h2.6l0.4-1.3h2.6l0.4,1.3h1.5L29,25.1z M21.4,29.9l1-2.8l0.9,2.8H21.4z M27.4,29.9l1-2.8l0.9,2.8H27.4z"/>
		<path class="st1" d="M7.8,17l0.1,2.3c0,0,0.6-0.4,1.2-0.4c0.6,0,1.3,0.4,1.3,0.4l5.6,3.2l0.5-2L10.4,17c0,0-0.7-0.4-1.3-0.4
			C8.5,16.6,7.8,17,7.8,17"/>
		<path class="st1" d="M7.8,14.1l0.1,2.3c0,0,0.6-0.4,1.2-0.4c0.6,0,1.3,0.4,1.3,0.4l6.2,3.6l0.5-2l-6.7-3.9c0,0-0.7-0.4-1.3-0.4
			C8.5,13.7,7.8,14.1,7.8,14.1"/>
		<path class="st1" d="M7.8,11.1l0.1,2.3c0,0,0.6-0.4,1.2-0.4c0.6,0,1.3,0.4,1.3,0.4l6.8,3.9l0.5-2l-7.3-4.2c0,0-0.7-0.4-1.3-0.4
			C8.5,10.7,7.8,11.1,7.8,11.1"/>
		<path class="st1" d="M19.5,7.7l0.6,2.7l8.5,4.8c0,0,0.7,0.4,1.3,0.4c0.7,0,1.3-0.5,1.3-0.5v-2.2c0,0-0.5,0.4-1.2,0.4
			s-1.3-0.4-1.3-0.4l-6.6-3.8l-0.5-1.7c0-0.1,0.1-0.1,0.1-0.1l1.1-0.3C23,7.1,23,7.2,23,7.3l0.1,0.1l0.2-0.1V6.6
			c0-0.5-0.4-0.8-0.8-0.8l0,0h-1.1c0,0-0.2-0.4-0.6-0.4h-2.1c-0.6,0-0.7,0.5-0.7,0.5l-1.6,5.8l-6-3.5c0,0-0.7-0.4-1.3-0.4
			C8.4,7.8,7.8,8.3,7.8,8.3l0.1,2.3c0,0,0.5-0.4,1.2-0.4s1.3,0.4,1.3,0.4l7.4,4.3L19.5,7.7z"/>
		<path class="st1" d="M20.3,10.9l0.6,2.7l7.7,4.5c0,0,0.7,0.4,1.3,0.4s1.3-0.5,1.3-0.5v-2.2c0,0-0.5,0.4-1.2,0.4s-1.3-0.4-1.3-0.4
			L20.3,10.9z"/>
		<path class="st1" d="M21.1,14.4l0.6,2.7l6.9,4c0,0,0.7,0.4,1.3,0.4s1.3-0.5,1.3-0.5l0-2.2c0,0-0.5,0.4-1.2,0.4s-1.3-0.4-1.3-0.4
			L21.1,14.4z"/>
		<path class="st1" d="M21.9,17.8l0.6,2.7l6.1,3.6c0,0,0.7,0.4,1.3,0.4c0.6,0,1.3-0.5,1.3-0.5v-2.3c0,0-0.5,0.4-1.2,0.4
			s-1.3-0.4-1.3-0.4L21.9,17.8z"/>
	</g>
</g>
</svg>
