<svg xmlns="http://www.w3.org/2000/svg" xml:space="preserve" id="Layer_1" x="0" y="0" viewBox="0 0 80 80"><style>.st0{fill:#28736d}.st1{fill:#002140}.st2{fill:#4ba6a6}.st3{fill:#50eef6}.st4{fill:#ccf7ff}</style><path d="M0 0h80v80H0z" class="st0"/><path d="M39.9 72.4c-18 0-32.7-14.7-32.7-32.7S21.9 7 39.9 7s32.7 14.7 32.7 32.7c0 18.1-14.7 32.7-32.7 32.7m0-64.4C22.4 8 8.2 22.3 8.2 39.7s14.2 31.7 31.7 31.7 31.7-14.2 31.7-31.7S57.4 8 39.9 8" class="st1"/><path d="M27.5 14.7s-1.6 3.9-4.3 4.2c0 0 3.7 1.6 4 4 0 0 1.5-3.5 4.4-3.9 0-.1-3.9-.9-4.1-4.3" class="st2"/><path d="M27.1 24.2c-.2 0-.4-.2-.5-.4-.8-2.9-1.3-3.4-4.2-4.2-.2-.1-.4-.3-.4-.5s.2-.4.4-.5c2.9-.8 3.4-1.3 4.2-4.2.1-.4.9-.4 1 0 .8 2.9 1.3 3.4 4.2 4.2.2.1.4.3.4.5s-.2.4-.4.5c-2.9.8-3.4 1.3-4.2 4.2-.1.2-.3.4-.5.4m-2.8-5c1.5.6 2.3 1.3 2.9 2.9.6-1.5 1.3-2.3 2.9-2.9-1.5-.6-2.3-1.3-2.9-2.9-.7 1.5-1.4 2.3-2.9 2.9" class="st1"/><path d="M55.5 14.7s-1.6 3.9-4.3 4.2c0 0 3.7 1.6 4 4 0 0 1.5-3.5 4.4-3.9.1-.1-3.8-.9-4.1-4.3" class="st2"/><path d="M55.2 24.2c-.2 0-.4-.2-.5-.4-.8-2.9-1.3-3.4-4.2-4.2-.2-.1-.4-.3-.4-.5s.2-.4.4-.5c2.9-.8 3.4-1.3 4.2-4.2.1-.2.3-.4.5-.4s.4.2.5.4c.8 2.9 1.3 3.4 4.2 4.2.2.1.4.3.4.5s-.2.4-.4.5c-2.9.8-3.4 1.3-4.2 4.2-.1.2-.3.4-.5.4m-2.9-5c1.5.6 2.3 1.3 2.9 2.9.6-1.5 1.3-2.3 2.9-2.9-1.5-.6-2.3-1.3-2.9-2.9-.6 1.5-1.3 2.3-2.9 2.9" class="st1"/><path d="M25.2 45.3s-3.4-.1-4.2 2.9.7 4.8 2.3 5.6c0 0 .5.4 1.5.3 1.1-.1 1.9-.5 1.9-.5s5.2 10.1 17.6 10 17-5.9 17.8-11.6c.8-5.6-.5-10.5-3.3-14.9-2.8-4.5-3.8-6-3.8-6l-21.3.3c0-.1-8.6 6.7-8.5 13.9" class="st2"/><path d="M33.6 31.1s.2 1 .4 1 7.2 1.3 12.6 1.2c5.3-.1 8.7-1.6 8.7-1.6l-8.9-13.9-3.4-5.5s-1.8-2.4-2.7-.1c-.8 2.3-3.7 10.1-3.7 10.1z" class="st1"/><path d="M20.7 49.5s.4-2.4 1.3-3.1 3.1-1.1 3.1-1.1 1.1-5.4 2.8-7.5l5.5-6.2-.5-1.2s-1.6-3.8-9.6-4.3c-7.9-.5-11 8.8-11.1 10s.1 7.4 3 10.3 5.5 3.1 5.5 3.1" class="st2"/><path d="M25.2 45.3s1.1-.1 1.7.6 2.5 3.5 4 3.7c0 0-.6-4.5-.1-6.6s2.3-4.3 2.9-5.1 3.4-3.8 3.3-5.3l-2.6-.6-1-.4c0-.1-6.7 4.6-8.2 13.7" class="st3"/><path d="M28 37.7s4.3-5.4 5.5-6.2l.3-1s-4.2-.5-5.4 1.6c-1.2 2.2-1.2 3.7-.4 5.6" class="st3"/><path d="M42.4 43.9c2 0 3.7-2 3.7-4.4s-1.7-4.4-3.7-4.4-3.7 2-3.7 4.4 1.7 4.4 3.7 4.4" class="st4"/><path d="M51.9 43.2c1-.8 1.6-2.1 1.6-3.7 0-2.4-1.6-4.4-3.7-4.4-2 0-3.7 2-3.7 4.4 0 .5.1.9.2 1.3 0 0 1.4 1.7 2 1.9.6.1 2.3.3 2.3.3m-8.8 7.3-.5 1.2s2 4.3 7.4 3.8 6.3-4.5 6.3-4.5l-.7-1s-3.2 2-6.2 1.8c-3.2-.3-6.3-1.3-6.3-1.3" class="st4"/><path d="M41.8 50.3s5.2 1.2 6.8 1.2 5.5-1.8 5.5-1.8-2-2.2-3.6-1.9-2.5 1.7-2.5 1.7-1.7-1.5-2.9-1.5-3.2 1.9-3.3 2.3m-.5 2.4s.9 5.3 7 5.5c6.2.2 6.3-6.7 6.3-6.7s-2.3 3.9-6.4 3.8c-4.1-.2-6.9-2.6-6.9-2.6" class="st1"/><path d="M23.1 59.3s.5 0 .5-.5l.1-.5.7.2.7-.4.7 1 .5.1.2-1.4.2-1.2s.1-.9-.3-1.1c-.5-.2-1.6-.1-1.6-.1l-1.6-.1s-.7.3-.7.5.1 1.8.1 1.8z" class="st3"/><path d="M24.7 55.3c.5 0 .9-.4.9-.9s-.4-.9-.9-.9-.9.4-.9.9.4.9.9.9" class="st0"/><path d="M45 64c-11.7 0-16.6-6.3-18.4-10.1-.1-.2 0-.5.2-.7.2-.1.5 0 .7.2C29.2 57 33.8 63 45 63c14.9 0 17.1-9.3 17.1-14.9s-3.5-10.7-5.6-13.8c-.7-1.1-1.3-1.9-1.5-2.4-.1-.3 0-.5.3-.7q.45-.15.6.3c.2.5.7 1.2 1.4 2.2C59.4 36.9 63 42.1 63 48c.1 4.8-1.7 16-18 16M25.2 45.5c-.3 0-.5-.3-.5-.5.6-7.6 8.2-13.8 8.6-14.1.2-.2.5-.1.7.1s.1.5-.1.7c-.1.1-7.7 6.2-8.2 13.4 0 .2-.2.4-.5.4" class="st1"/><path d="M42.4 44.6c-2.3 0-4.2-2.3-4.2-5.1s1.9-5.1 4.2-5.1 4.2 2.3 4.2 5.1-1.9 5.1-4.2 5.1m0-9.2c-1.8 0-3.2 1.8-3.2 4.1 0 2.2 1.4 4.1 3.2 4.1s3.2-1.8 3.2-4.1c0-2.2-1.5-4.1-3.2-4.1" class="st1"/><path d="M42.4 36.7c-1.1 0-2.1.7-2.5 1.8l2.5.9-2.3 1.3c.4.8 1.3 1.4 2.3 1.4 1.5 0 2.6-1.2 2.6-2.6s-1.2-2.8-2.6-2.8m-3.6.3c-1.5 0-2.1-1-2.3-1.6-.1-.3.1-.5.4-.6s.5.1.6.4c0 .2.4 1.1 1.8.8.3 0 .5.1.6.4s-.1.5-.4.6zm-.9 1.9c-.8 0-1.6-.6-2.1-1-.2-.2-.2-.5 0-.7s.5-.2.7 0c0 0 1.1 1.1 1.8.6.2-.2.5-.1.7.1s.1.5-.1.7c-.3.2-.6.3-1 .3m14.2 4.8c-.1 0-.3-.1-.4-.2-.2-.2-.2-.5 0-.7.8-.8 1.4-2 1.4-3.3 0-2.2-1.4-4.1-3.2-4.1s-3.2 1.8-3.2 4.1v.5c0 .3-.2.5-.5.5s-.5-.2-.5-.4v-.6c0-2.8 1.9-5.1 4.2-5.1s4.2 2.3 4.2 5.1c0 1.6-.6 3.1-1.7 4.1 0 0-.2.1-.3.1" class="st1"/><path d="M49.8 36.7c-1.1 0-2.1.7-2.5 1.8l2.5.9-2.3 1.3c.4.8 1.3 1.4 2.3 1.4 1.5 0 2.6-1.2 2.6-2.6s-1.1-2.8-2.6-2.8m3.1.2h-.2c-.3 0-.5-.3-.5-.5s.3-.5.5-.5c0 0 1.4.1 1.5-.7 0-.3.3-.5.6-.4.3 0 .5.3.4.6-.2 1.2-1.4 1.5-2.3 1.5m.8 1.6h-.2c-.3 0-.5-.3-.5-.5 0-.3.3-.5.5-.5 0 0 1.4.1 1.5-.7 0-.3.3-.5.6-.4.3 0 .5.3.4.6-.2 1.2-1.4 1.5-2.3 1.5" class="st1"/><path d="M49.2 46.8c-.4 0-.9 0-1.3-.1-.4 0-.9-.1-1.3-.4s-.7-1-.4-1.6c.2-.3.4-.4.7-.5.4-.1.9 0 1.3.2.2.1.3.5.2.7s-.5.3-.7.2-.4-.1-.5-.1c-.1.1-.1.3.1.3.2.1.5.2.8.2q1.05.15 2.1 0c.5 0 1.1-.1 1.6-.5.3-.3.6-.7.5-1.1-.2-.4-.8-.6-1.3-.7-.7-.1-1.4 0-2.1-.1-1.5-.4-2.4-1.7-3.2-3-.1-.2-.1-.5.2-.7.2-.1.5-.1.7.2.7 1.1 1.4 2.3 2.5 2.6.6.1 1.3.1 2 .1 1 .1 1.8.6 2.1 1.3.3.9-.1 1.8-.8 2.3s-1.5.6-2.1.7zm-1.1 14.3c-3.7 0-6.8-1.6-7-1.7s-.3-.4-.2-.7c.1-.2.4-.3.7-.2.1 0 7.4 3.9 12.7-.5.2-.2.5-.1.7.1s.1.5-.1.7c-2.2 1.7-4.6 2.3-6.8 2.3m.2-5.5c-5.5 0-7.7-3.7-7.8-3.9-.1-.1-.1-.3 0-.5s1.9-3.8 4.3-3.8c1.6 0 2.6.7 3.2 1.3.5-.7 1.4-1.5 3-1.5 2.4 0 4.4 3.1 4.5 3.2s.1.3.1.4c-.2.1-1.7 4.8-7.3 4.8m-6.8-4.1c.5.8 2.6 3.1 6.8 3.1h.1c4.2 0 5.7-3 6-3.8-.6-.9-2.1-2.5-3.5-2.5-1.8 0-2.4 1.5-2.4 1.6-.1.2-.2.3-.4.3s-.4-.1-.5-.2c0-.1-1-1.5-2.8-1.5-1.4 0-2.7 2-3.3 3" class="st1"/><path d="M48.1 52.1c-3.4 0-6.1-1.4-6.3-1.5s-.3-.4-.2-.7c.1-.2.4-.3.7-.2.1 0 6.2 3.2 11.3-.3.2-.2.5-.1.7.1s.1.5-.1.7c-2.1 1.5-4.2 1.9-6.1 1.9" class="st1"/><path d="M48.2 58.6c-6.6 0-7.7-6.9-7.8-7 0-.3.1-.5.4-.6.3 0 .5.1.6.4 0 .3 1 6.2 6.8 6.2 5.7 0 6.2-6.6 6.2-6.9s.3-.5.5-.5c.3 0 .5.3.5.5 0 .1-.6 7.9-7.2 7.9" class="st1"/><path d="M48.1 55.3c-.3 0-.5-.2-.5-.5v-3.1c0-.3.2-.5.5-.5s.5.2.5.5v3.1c0 .3-.2.5-.5.5m-3.5-.7c-.3 0-.5-.2-.5-.4-.1-1.4.3-2.9.3-3q.15-.45.6-.3c.3.1.4.4.3.6 0 0-.4 1.4-.3 2.6.1.3-.1.5-.4.5m7.3-.1c-.3 0-.5-.2-.5-.5 0-1.2-.6-2.6-.6-2.6-.1-.2 0-.5.2-.7.2-.1.5 0 .7.2 0 .1.8 1.6.7 3.1 0 .3-.2.5-.5.5m-26 0c-.2 0-.4-.1-.5-.4s.1-.5.3-.6c.1 0 .1 0 .2-.1.3-.1.6-.3.8-.5.6-.4 1.3-.9 2.4-.4.3.1.4.4.3.6-.1.3-.4.4-.6.3-.7-.2-1 0-1.6.3-.3.2-.6.4-1 .6-.1 0-.2.1-.3.1.1.1 0 .1 0 .1m-2.3-.2h-.2c-.5-.2-1-.5-1.5-.8-1.4-1.2-1.9-3-1.5-4.9.5-1.9 1.8-3.3 3.4-3.7 1.5-.4 2.9.1 4 1.4.2.2.4.5.6.7.6.7 1.2 1.5 1.9 1.9-1.4-6.5 1.4-9.7 3.7-12.2 1.2-1.4 2.3-2.5 2.5-4 0-.3.3-.5.6-.4.3 0 .5.3.4.6-.2 1.8-1.4 3.1-2.7 4.5-2.3 2.6-5 5.5-3.3 12.1 0 .1 0 .3-.1.4-.1 0-.2.1-.4.1-1.4 0-2.5-1.4-3.4-2.4-.2-.2-.4-.5-.5-.7-.9-1-2-1.4-3-1.1-1.3.3-2.3 1.5-2.7 3s.1 3 1.2 3.9c.3.3.7.5 1.2.7.3.1.4.4.3.6s-.3.3-.5.3" class="st1"/><path d="M45.3 33.7c-5 0-9.4-.8-11.1-1.2q-.6-.15-.9-.6c-.2-.3-.2-.7-.1-1 .9-3.1 6.5-18.2 6.7-18.9.1-.1.6-1.3 1.6-1.4.7-.1 1.4.4 2 1.4 1.6 2.6 12.4 19.2 12.5 19.4.1.1.1.2.1.3 0 .2-.1.4-.3.5-3.5 1.1-7.1 1.5-10.5 1.5m-3.8-22.1c-.3 0-.6.5-.7.8-.1.1-5.8 15.6-6.7 18.7v.3c0 .1.1.1.2.2 2.9.6 12.6 2.5 20.4-.1-1.9-3-10.7-16.6-12.1-18.9-.4-.7-.8-1-1.1-1m-14 38.8c-1.8-.2-3.4-1.2-4.4-2.7-.1-.2-.1-.5.2-.7.2-.1.5-.1.7.2.8 1.2 2.1 2.1 3.6 2.2.3 0 .5.3.5.5-.1.3-.4.5-.6.5" class="st1"/><path d="M24.8 51.9c-.3 0-.5-.2-.5-.4-.1-.9.3-1.9 1-2.4.2-.2.5-.1.7.1s.1.5-.1.7c-.4.3-.7 1-.6 1.5 0 .2-.2.5-.5.5m-.1 4c-.9 0-1.6-.7-1.6-1.6s.7-1.6 1.6-1.6 1.6.7 1.6 1.6-.7 1.6-1.6 1.6m0-2.1c-.3 0-.6.3-.6.6s.3.6.6.6.6-.3.6-.6-.3-.6-.6-.6" class="st1"/><path d="M23.2 59.8c-.5 0-.9-.4-1-1v-1.2c0-.1-.1-.3-.1-.4-.1-.3-.3-.7-.2-1.2s.5-1 1-1.2q.6-.3 1.5 0c.3.1.4.4.3.6-.1.3-.4.4-.6.3-.3-.1-.6-.1-.8 0s-.4.3-.4.4c0 .2.1.4.2.7.1.2.1.4.2.6.1.3.1.5.1.8v.2-.1c.1-.2.2-.4.5-.6q.3-.15.6 0c.1 0 .2.1.2.2.2-.1.4-.2.6-.2.3 0 .5.2.6.5.1.1.1.2.1.3v-.1c-.1-.6 0-1.2.2-1.8l.1-.1c0-.1.1-.1.1-.2s0-.3-.2-.4-.4-.2-.6-.1c-.3.1-.5-.1-.6-.4s.1-.5.4-.6c.5-.1 1 0 1.4.3.5.3.7.9.5 1.5 0 .2-.1.3-.2.4-.2.5-.3.9-.2 1.3s.2 1.1-.4 1.5c-.2.1-.5.2-.7.1-.3-.1-.5-.3-.7-.6 0-.1-.1-.2-.1-.3-.2.2-.4.2-.6.2-.1 0-.2 0-.2-.1-.2.4-.6.7-1 .7m-2.4-9.6h-.1c-5.3-1.5-8.9-6.5-8.9-12.2 0-7 5.5-12.6 12.2-12.6 3.8 0 7.1 1.6 9.5 4.6.2.2.1.5-.1.7s-.5.1-.7-.1c-2.2-2.7-5.3-4.2-8.7-4.2-6.2 0-11.2 5.2-11.2 11.6 0 5.2 3.4 9.8 8.2 11.2.3.1.4.4.3.6-.1.3-.3.4-.5.4" class="st1"/><path d="M28 38.2c-.2 0-.3-.1-.4-.2-1.1-1.7-1.1-4 .1-5.8 1.4-2.1 3.9-3 6.1-2.2.3.1.4.4.3.6-.1.3-.4.4-.6.3-1.7-.7-3.8.1-4.9 1.8-1 1.5-1 3.4-.1 4.7.2.2.1.5-.1.7-.2.1-.3.1-.4.1" class="st1"/><path d="M28.3 32.2c-.1 0-.2 0-.3-.1 0 0-1.7-1.6-4.5-1.6-.3 0-.5-.2-.5-.5s.3-.5.5-.5c3.2.1 5.1 1.8 5.2 1.9.2.2.2.5 0 .7-.1 0-.3.1-.4.1M26 34.9c-.9 0-2.3-.1-3.6-.7-.3-.1-.4-.4-.3-.7s.4-.4.7-.3c2.2.9 4.4.6 4.4.5.3 0 .5.1.6.4 0 .3-.1.5-.4.6-.1.1-.6.2-1.4.2m-3.3 6.2c-.3 0-.5-.2-.5-.5 0-3.2 3.3-4.6 5-4.9.3-.1.5.1.6.4 0 .3-.1.5-.4.6-.2 0-4.2.8-4.2 3.9 0 .3-.2.5-.5.5" class="st1"/><path d="m43 20 1.5 3.1 3.4.5-2.5 2.4.6 3.4-3-1.6-3 1.6.6-3.4-2.6-2.4 3.4-.5z" class="st3"/><path d="M46.5 30.3c-.1 0-.2 0-.2-.1l-3.2-1.6-3.2 1.6c-.2.1-.4.1-.5 0-.2-.1-.2-.3-.2-.5l.6-3.4-2.5-2.4c-.1-.1-.2-.3-.1-.5s.2-.3.4-.3l3.5-.5 1.6-3.1c.1-.2.3-.3.4-.3.2 0 .4.1.4.3l1.6 3.1 3.5.5c.2 0 .3.2.4.3.1.2 0 .4-.1.5l-2.5 2.4.6 3.4c0 .2 0 .4-.2.5-.1.1-.2.1-.3.1m-3.4-2.7c.1 0 .2 0 .2.1l2.5 1.3-.5-2.7c0-.2 0-.3.1-.5l2-1.9-2.8-.4c-.2 0-.3-.1-.4-.3L43 20.8l-1.2 2.4c-.1.1-.2.2-.4.3l-2.8.4 2 1.9c.1.1.2.3.1.5l-.5 2.7 2.5-1.3c.2-.1.3-.1.4-.1" class="st1"/></svg>