<?xml version="1.0" encoding="utf-8"?>
<!-- Generator: Adobe Illustrator 26.5.0, SVG Export Plug-In . SVG Version: 6.00 Build 0)  -->
<svg version="1.1" id="Layer_1" xmlns="http://www.w3.org/2000/svg" xmlns:xlink="http://www.w3.org/1999/xlink" x="0px" y="0px"
	 viewBox="0 0 80 80" style="enable-background:new 0 0 80 80;" xml:space="preserve">
<style type="text/css">
	.st0{fill:#FF7101;}
	.st1{fill:#BF3013;}
	.st2{fill:#FFC68C;}
	.st3{fill:#002140;}
</style>
<g>
	<rect class="st0" width="80" height="80"/>
</g>
<g>
	<path class="st0" d="M32.9,42.3c3.1,0,5.6-2.5,5.6-5.6s-2.5-5.6-5.6-5.6s-5.6,2.5-5.6,5.6S29.8,42.3,32.9,42.3z"/>
</g>
<g>
	<path class="st0" d="M41.7,42.9c3.1,0,5.6-2.5,5.6-5.6c0-3.1-2.5-5.6-5.6-5.6c-3.1,0-5.6,2.5-5.6,5.6
		C36.1,40.4,38.6,42.9,41.7,42.9z"/>
</g>
<g>
	<path class="st1" d="M30.7,31.8c0,0,4.1-0.9,6.3,1.5c0,0,2.3-1.7,5.2-1.5c2.9,0.2,4.7,3.1,4.8,3.6c0,0,4.2-2.2,6.8-0.9
		c0,0,3.6-17.7,1.6-18.4c-2-0.7-5.6,7.9-5.6,7.9s-2.1-7.4-3.6-7.5c-1.5-0.1-3.9,7.8-3.9,7.8s-1.4-7.8-3.1-7.9
		c-1.7-0.1-4.4,7.3-4.4,7.3s-3.7-7.3-5.3-7.2c-1.6,0.1-1.7,4.4-0.1,11.4C30.1,30,30.7,31.8,30.7,31.8L30.7,31.8z"/>
</g>
<g>
	<path class="st1" d="M27.1,35.4c0,0-4.7,0.1-5.2,3.6c-0.6,3.5,2.4,4.5,3.5,4.6l4.1-1.3C29.5,42.3,25.2,39.2,27.1,35.4L27.1,35.4z"
		/>
</g>
<g>
	<path class="st1" d="M55.6,41.2c0,0,1.6-4.9-1.7-6.5c-3.4-1.7-6.8,0.9-6.8,0.9s0.9,3.6-0.8,5.5c-1.7,1.8-5.5,2.5-5.5,2.5l-1.5,0.7
		L26.4,48c0,0-2.8,3.8-3.9,10.4c-1.1,6.6-0.1,8.6-0.1,8.6l3.2,1.7l2.1,1l4.8,1.6c0,0,2.8,0.8,4.1,0.9s2.2-1.4,2-3.3
		c0,0,0.6,1.9,1.9,1.9c1.4,0,3.3-3.3,3.5-12.9c0,0,1.8,2.9,5.8,2.9c2.4,0,4.2-1.5,5-3.7c0.2-0.7,0.8-2.5,0.4-5.5
		c1.4-0.6,5.7-5.4,0.4-11.1"/>
</g>
<g>
	<path class="st1" d="M20.6,47.7c0,0,0.9,0.9,3,0.7c2-0.2,15-4.2,17-4.9c0,0,4.2,0,6-3.8c0,0-3.6-3.5-10.9-1.4c0,0-4.8-1.4-8.7-0.2
		c0,0,0.4,2.7,2.5,4.2C29.5,42.3,20.3,44.6,20.6,47.7L20.6,47.7z"/>
</g>
<g>
	<path class="st2" d="M29.4,53.4l9.1-0.9c0,0,1.3-1.8,1.1-3.1c-0.2-1.3-1.2-1.7-2.2-1.7c-1,0-1.8,1.4-3.6,1.5
		c-1.8,0-4.4-0.7-5.3,0.5C27.6,51,29.4,53.4,29.4,53.4L29.4,53.4z"/>
</g>
<g>
	<path class="st3" d="M29.7,53.6c0,0,2,1.3,4.1,1.2c2-0.1,4.5-2.1,4.5-2.1L29.7,53.6z"/>
</g>
<g>
	<path class="st2" d="M46.7,39.8l-1.9-1.1l-3.4-0.9l-3.2-0.3l-2.8,0.6l-1.7-0.3l-3.1-0.3L27.3,38c0-0.3-0.1-0.5-0.1-0.8
		c0-3.2,2.6-5.8,5.8-5.8c1.7,0,3.2,0.7,4.3,1.9c1-1,2.5-1.7,4.1-1.7c3.2,0,5.8,2.6,5.8,5.8C47.1,38.3,47,39.1,46.7,39.8z"/>
</g>
<g>
	<path class="st3" d="M53.8,34.8c-0.3,0-0.5-0.2-0.5-0.5c0-0.1,0-0.3,0.3-1.6c2.9-14.4,2.1-16,1.7-16.2c0,0,0,0-0.1,0
		c-1.5,0-3.8,4.6-5.1,7.9c-0.1,0.2-0.3,0.3-0.5,0.3c-0.2,0-0.4-0.2-0.5-0.4c-0.7-3.6-2.1-7.4-3-7.4c-0.9,0-2.6,4-3.6,7.8
		c-0.1,0.2-0.3,0.4-0.5,0.4c-0.2,0-0.4-0.2-0.5-0.4c-0.3-2.5-1.1-6.8-2.2-7.7C39.3,17,39.2,17,39.2,17c-1.2,0-2.9,3.7-3.9,7.2
		c-0.1,0.3-0.3,0.4-0.6,0.4c-0.4-0.1-0.6-0.4-1.4-2.1c-0.7-1.5-2.7-5.6-3.6-5.4c-1.6,0.5-1,4.5-0.8,6l0.1,0.4
		c0.4,2.8,1.2,5.5,1.9,8.1c0.1,0.3-0.1,0.5-0.3,0.6c-0.3,0.1-0.5-0.1-0.6-0.3c-0.8-2.6-1.6-5.4-2-8.2L28,23.2
		c-0.3-2.1-0.9-6.4,1.5-7.1c1.6-0.4,3.1,2.4,4.8,5.9c0.1,0.3,0.3,0.6,0.4,0.9c0.7-2.3,2.4-6.9,4.4-6.9c0.3,0,0.7,0.1,1,0.3
		c1.1,0.9,1.8,3.9,2.2,6c0.9-2.7,2.3-6.3,3.9-6.3c1.7,0,3,4,3.6,6.6c1.1-2.6,3.3-7.2,5.5-7c0.2,0,0.5,0.1,0.8,0.4
		c1,1.4,0.6,6.4-1.6,16.9c-0.1,0.7-0.3,1.3-0.3,1.4C54.3,34.6,54,34.8,53.8,34.8z"/>
</g>
<g>
	<path class="st3" d="M41.3,43.7c-3.5,0-6.3-2.8-6.3-6.3c0-3.5,2.8-6.3,6.3-6.3c3.5,0,6.3,2.8,6.3,6.3
		C47.6,40.9,44.8,43.7,41.3,43.7z M41.3,32.1c-2.9,0-5.3,2.4-5.3,5.3c0,2.9,2.4,5.3,5.3,5.3c2.9,0,5.3-2.4,5.3-5.3
		C46.6,34.5,44.3,32.1,41.3,32.1z"/>
</g>
<g>
	<path class="st3" d="M29.6,42.6c-0.1,0-0.2,0-0.3-0.1L29,42.3c-1.6-1.2-2.6-3.1-2.6-5.1c0-3.5,2.8-6.3,6.3-6.3
		c1.7,0,3.3,0.7,4.5,1.9c0.2,0.2,0.2,0.5,0,0.7s-0.5,0.2-0.7,0c-1-1-2.3-1.6-3.8-1.6c-2.9,0-5.3,2.4-5.3,5.3c0,1.7,0.8,3.3,2.2,4.3
		l0.3,0.2c0.2,0.2,0.3,0.5,0.1,0.7C29.9,42.6,29.7,42.6,29.6,42.6z"/>
</g>
<g>
	<path class="st3" d="M22.5,48.9c-0.9,0-1.6-0.2-2-0.5c-0.4-0.3-0.6-0.7-0.5-1.2c0.3-4.1,14.7-6.8,16.3-7.1c0.3,0,0.5,0.1,0.6,0.4
		c0.1,0.3-0.1,0.5-0.4,0.6c-5.9,1.1-15.3,3.8-15.5,6.2c0,0.2,0,0.2,0.1,0.3c0.7,0.6,4,0.7,18.1-4.3c0.5-0.2,0.9-0.3,1-0.4l0.7-0.2
		c0.3-0.1,0.5,0.1,0.6,0.4c0.1,0.3-0.1,0.5-0.4,0.6l-0.6,0.1c-0.1,0-0.5,0.2-1,0.4C30.8,47.4,25.3,48.9,22.5,48.9z"/>
</g>
<g>
	<path class="st3" d="M46.6,40.2c-0.1,0-0.2,0-0.3-0.1c-0.9-0.7-4.2-2.8-10.5-1.5c-0.3,0.1-0.5-0.1-0.6-0.4
		c-0.1-0.3,0.1-0.5,0.4-0.6c6.6-1.3,10.3,1,11.3,1.7c0.2,0.2,0.3,0.5,0.1,0.7C46.9,40.1,46.8,40.2,46.6,40.2z"/>
</g>
<g>
	<path class="st3" d="M35.4,38.7c-0.1,0-0.1,0-0.2,0c-2.3-0.8-5-0.8-8-0.2c-0.3,0.1-0.5-0.1-0.6-0.4c-0.1-0.3,0.1-0.5,0.4-0.6
		c3.2-0.6,6-0.5,8.5,0.3c0.3,0.1,0.4,0.4,0.3,0.6C35.8,38.5,35.6,38.7,35.4,38.7z"/>
</g>
<g>
	<path class="st3" d="M41.8,37.9l-2.2-1.7l2.6-0.7c-0.3-1.6-1.7-2.9-3.4-2.9c-1.9,0-3.4,1.6-3.4,3.5c0,0.6,0.2,1.2,0.4,1.7"/>
</g>
<g>
	<path class="st3" d="M32.7,37.5L31,36.2l2.6-0.7c-0.3-1.6-1.7-2.9-3.4-2.9c-1.9,0-3.4,1.6-3.4,3.5c0,0.5,0.1,0.9,0.3,1.4
		c0,0-0.1,0.5,0.8,0.4"/>
</g>
<g>
	<path class="st3" d="M30.7,30c0.7,0,1.2-0.6,1.2-1.3s-0.6-1.3-1.2-1.3c-0.7,0-1.2,0.6-1.2,1.3S30,30,30.7,30z"/>
</g>
<g>
	<path class="st3" d="M38,29.9c0.7,0,1.2-0.6,1.2-1.3c0-0.7-0.6-1.3-1.2-1.3c-0.7,0-1.2,0.6-1.2,1.3C36.8,29.3,37.4,29.9,38,29.9z"
		/>
</g>
<g>
	<path class="st3" d="M47.1,29.8c0.7,0,1.2-0.6,1.2-1.3c0-0.7-0.6-1.3-1.2-1.3c-0.7,0-1.2,0.6-1.2,1.3
		C45.8,29.2,46.4,29.8,47.1,29.8z"/>
</g>
<g>
	<path class="st3" d="M53.9,29.6c0.7,0,1.2-0.6,1.2-1.3c0-0.7-0.6-1.3-1.2-1.3c-0.7,0-1.2,0.6-1.2,1.3C52.6,29,53.2,29.6,53.9,29.6z
		"/>
</g>
<g>
	<path class="st3" d="M25.5,44c-0.3,0-2.2,0-3.4-1.4c-0.7-0.8-1-1.9-0.9-3.3c0.4-3.7,4.1-4.7,6-4.7c0.3,0,0.5,0.2,0.5,0.5
		s-0.2,0.5-0.5,0.5c-0.2,0-4.5,0.1-5,3.8c-0.1,1.1,0.1,1.9,0.6,2.5c1,1.1,2.7,1.1,2.7,1.1c0,0,0,0,0,0c0.3,0,0.5,0.2,0.5,0.5
		C26,43.8,25.8,44,25.5,44C25.5,44,25.5,44,25.5,44z"/>
</g>
<g>
	<path class="st3" d="M38.1,72.6c0,0-0.1,0-0.1,0c-0.3-0.1-0.4-0.4-0.3-0.6c0.4-1.2,0.5-2.4,0.5-2.4c0-0.3,0.3-0.5,0.6-0.4
		c0.3,0,0.5,0.3,0.4,0.6c0,0-0.1,1.2-0.5,2.5C38.5,72.5,38.3,72.6,38.1,72.6z"/>
</g>
<g>
	<path class="st3" d="M22.2,67.1c-0.3,0-0.5-0.2-0.5-0.4c-0.2-2-0.2-3.9-0.1-5.9c0.3-4.7,1.7-9.2,4-13c0.1-0.2,0.5-0.3,0.7-0.2
		c0.2,0.1,0.3,0.5,0.2,0.7c-2.2,3.6-3.6,8-3.9,12.5c-0.1,1.9-0.1,3.8,0.1,5.7C22.7,66.8,22.5,67.1,22.2,67.1
		C22.2,67.1,22.2,67.1,22.2,67.1z"/>
</g>
<g>
	<path class="st3" d="M40.7,71.4c-0.8,0-1.5-0.3-2-0.8c-0.9-0.9-0.8-2.2-0.8-2.3c0-0.3,0.2-0.5,0.5-0.5c0.3,0,0.5,0.2,0.5,0.5l0,0
		c0,0,0,1,0.5,1.5c0.3,0.3,0.7,0.5,1.3,0.5c1.6,0,2-5.2,2.2-6.9c0-0.4,0.1-0.7,0.1-0.9c0.7-5.5,2-14.8-4.3-18
		c-0.2-0.1-0.3-0.4-0.2-0.7c0.1-0.2,0.4-0.3,0.7-0.2c6.9,3.6,5.5,13.7,4.8,19.1c0,0.2-0.1,0.5-0.1,0.8
		C43.6,66.3,43.2,71.4,40.7,71.4z"/>
</g>
<g>
	<path class="st3" d="M27.4,65.2c-0.3,0-0.5-0.2-0.5-0.5c0-6.7,1.5-9.4,1.5-9.5c0.1-0.2,0.4-0.3,0.7-0.2c0,0,3.9,2.2,8.6,0.4
		c0.2-0.1,0.4,0,0.6,0.1c0.1,0.2,0.2,0.4,0.1,0.6c0,0-0.9,1.9-0.5,7.9c0,0.3-0.2,0.5-0.5,0.5c-0.3,0-0.5-0.2-0.5-0.5
		c-0.2-4,0-6.2,0.3-7.4c-3.7,1.1-6.8,0-8-0.5c-0.4,1-1.2,3.6-1.2,8.5C27.9,64.9,27.7,65.2,27.4,65.2z"/>
</g>
<g>
	<path class="st3" d="M32.2,66.4c-0.2,0-0.5-0.2-0.5-0.4c-0.8-5.7,0.4-9.2,0.4-9.3c0.1-0.3,0.4-0.4,0.6-0.3c0.3,0.1,0.4,0.4,0.3,0.6
		c0,0-1.1,3.5-0.4,8.9C32.8,66.1,32.6,66.4,32.2,66.4C32.3,66.4,32.3,66.4,32.2,66.4z"/>
</g>
<g>
	<path class="st3" d="M33.1,55.2c-2,0-3.2-0.7-3.9-1.4c-0.9-0.9-1.4-2.1-1.3-3.3c0.1-0.5,0.3-1,0.7-1.3c1.1-0.9,3-0.7,4.5-0.5
		c0.3,0,0.5,0,0.7,0.1c0.7,0.1,1-0.2,1.5-0.6c0.5-0.3,1-0.7,1.8-0.8c1-0.1,2.1,0.3,2.6,1.1c0,0,0,0,0,0c0.1,0.2,0.2,0.4,0.3,0.6
		c0.3,0.8,0.2,1.8-0.2,2.6c-0.9,1.9-2.9,3.2-5.4,3.6C33.9,55.1,33.5,55.2,33.1,55.2z M31.1,49.5c-0.8,0-1.5,0.1-1.9,0.4
		c-0.2,0.2-0.3,0.4-0.3,0.6c-0.1,0.9,0.3,1.8,1,2.5c0.7,0.7,2,1.4,4.4,1c2.1-0.3,3.9-1.4,4.7-3c0.3-0.6,0.4-1.3,0.2-1.9
		c0-0.1-0.1-0.2-0.2-0.3c0,0,0,0,0,0c-0.4-0.5-1-0.8-1.7-0.7c-0.5,0.1-0.9,0.3-1.3,0.6c-0.5,0.4-1.2,0.9-2.2,0.8
		c-0.2,0-0.5,0-0.7-0.1C32.4,49.5,31.7,49.5,31.1,49.5z"/>
</g>
<g>
	<path class="st3" d="M29.8,54c-0.3,0-0.5-0.2-0.5-0.5c0-0.3,0.2-0.5,0.4-0.5l8.4-0.8c0.3,0,0.5,0.2,0.5,0.4c0,0.3-0.2,0.5-0.4,0.5
		L29.8,54C29.8,54,29.8,54,29.8,54z"/>
</g>
<g>
	<path class="st3" d="M32.1,53.6c-0.3,0-0.5-0.2-0.5-0.5l0-3.8c0-0.3,0.2-0.5,0.5-0.5c0,0,0,0,0,0c0.3,0,0.5,0.2,0.5,0.5l0,3.8
		C32.6,53.4,32.4,53.6,32.1,53.6C32.1,53.6,32.1,53.6,32.1,53.6z"/>
</g>
<g>
	<path class="st3" d="M35,53.2c-0.3,0-0.5-0.2-0.5-0.5V49c0-0.3,0.2-0.5,0.5-0.5s0.5,0.2,0.5,0.5v3.7C35.5,53,35.2,53.2,35,53.2z"/>
</g>
<g>
	<path class="st3" d="M49.4,61.3c-3.1,0-5.3-2.1-5.8-3.3c-0.1-0.3,0-0.5,0.3-0.7c0.3-0.1,0.5,0,0.7,0.3c0.3,0.8,2.2,2.7,4.8,2.7
		c2.8,0,5.6-1.6,5.6-5.3c0-3.6-2.6-4.6-2.7-4.6c-0.2-0.1-0.3-0.2-0.3-0.4s0.1-0.4,0.3-0.5c1.3-0.7,1.9-2.6,1.4-3.9
		c-0.5-1.1-1.9-1.9-3.1-2.2c-0.3-0.1-0.4-0.4-0.3-0.6c0.1-0.3,0.4-0.4,0.6-0.3c0.7,0.2,2.9,1,3.7,2.8c0.6,1.5,0.1,3.5-1.1,4.7
		c1,0.6,2.6,2.1,2.6,5.2C56,59.4,52.6,61.3,49.4,61.3z"/>
</g>
<g>
	<path class="st3" d="M55.6,41.2c0,0-0.1,0-0.1,0c-0.3-0.1-0.4-0.4-0.3-0.6c0,0,1-3.4-1-5.1c-3.1-2.6-6.6,0.4-6.8,0.6
		c-0.2,0.2-0.5,0.2-0.7,0s-0.2-0.5,0-0.7c0,0,4.3-3.7,8.1-0.6c2.5,2.1,1.4,6,1.3,6.1C56,41,55.8,41.2,55.6,41.2z"/>
</g>
<g>
	<path class="st3" d="M55,52.5c-0.2,0-0.3-0.1-0.4-0.3c-0.1-0.2-0.1-0.5,0.2-0.7c1.4-0.8,2.5-2.5,2.8-4.4c0.2-1.5,0-3.8-2.3-6.1
		c-0.2-0.2-0.2-0.5,0-0.7c0.2-0.2,0.5-0.2,0.7,0c2.6,2.6,2.8,5.3,2.6,7c-0.3,2.1-1.6,4.2-3.3,5.1C55.1,52.5,55.1,52.5,55,52.5z"/>
</g>
<g>
	<path class="st3" d="M40.1,72.7c-18,0-32.7-14.7-32.7-32.7c0-18,14.7-32.7,32.7-32.7c18,0,32.7,14.7,32.7,32.7
		C72.8,58.1,58.2,72.7,40.1,72.7z M40.1,8.4C22.7,8.4,8.4,22.6,8.4,40s14.2,31.7,31.7,31.7S71.8,57.5,71.8,40S57.6,8.4,40.1,8.4z"/>
</g>
<g>
	<path class="st1" d="M15.5,37.3c0,0-1.6,3.9-4.3,4.2c0,0,3.7,1.6,4,4c0,0,1.5-3.5,4.4-3.9C19.6,41.6,15.7,40.7,15.5,37.3L15.5,37.3
		z"/>
</g>
<g>
	<path class="st3" d="M15.2,46.6L15.2,46.6c-0.2,0-0.4-0.2-0.5-0.4c-0.8-2.9-1.3-3.4-4.2-4.2c-0.2-0.1-0.4-0.3-0.4-0.5
		s0.2-0.4,0.4-0.5c2.9-0.8,3.4-1.3,4.2-4.2c0.1-0.4,0.9-0.4,1,0c0.8,2.9,1.3,3.4,4.2,4.2c0.2,0.1,0.4,0.3,0.4,0.5s-0.2,0.4-0.4,0.5
		c-2.9,0.8-3.4,1.3-4.2,4.2C15.6,46.4,15.5,46.6,15.2,46.6z M12.4,41.5c1.5,0.6,2.3,1.3,2.9,2.9c0.6-1.5,1.3-2.3,2.9-2.9
		c-1.5-0.6-2.3-1.3-2.9-2.9C14.6,40.2,13.9,40.9,12.4,41.5z"/>
</g>
<g>
	<path class="st1" d="M64.3,37.3c0,0-1.6,3.9-4.3,4.2c0,0,3.7,1.6,4,4c0,0,1.5-3.5,4.4-3.9C68.4,41.6,64.5,40.7,64.3,37.3L64.3,37.3
		z"/>
</g>
<g>
	<path class="st3" d="M64,46.6c-0.2,0-0.4-0.2-0.5-0.4c-0.8-2.9-1.3-3.4-4.2-4.2c-0.2-0.1-0.4-0.3-0.4-0.5s0.2-0.4,0.4-0.5
		c2.9-0.8,3.4-1.3,4.2-4.2c0.1-0.2,0.3-0.4,0.5-0.4l0,0c0.2,0,0.4,0.2,0.5,0.4c0.8,2.9,1.3,3.4,4.2,4.2c0.2,0.1,0.4,0.3,0.4,0.5
		s-0.2,0.4-0.4,0.5c-2.9,0.8-3.4,1.3-4.2,4.2C64.5,46.4,64.3,46.6,64,46.6z M61.2,41.5c1.5,0.6,2.3,1.3,2.9,2.9
		c0.6-1.5,1.3-2.3,2.9-2.9c-1.5-0.6-2.3-1.3-2.9-2.9C63.4,40.2,62.7,40.9,61.2,41.5z"/>
</g>
</svg>
