<?xml version="1.0" encoding="utf-8"?>
<!-- Generator: Adobe Illustrator 26.5.0, SVG Export Plug-In . SVG Version: 6.00 Build 0)  -->
<svg version="1.1" id="Layer_1" xmlns="http://www.w3.org/2000/svg" xmlns:xlink="http://www.w3.org/1999/xlink" x="0px" y="0px"
	 viewBox="0 0 80 80" style="enable-background:new 0 0 80 80;" xml:space="preserve">
<style type="text/css">
	.st0{fill:#FFC68C;}
	.st1{fill:#002140;}
	.st2{fill:#FF7101;}
	.st3{fill:#BF3013;}
</style>
<g>
	<rect class="st0" width="80" height="80"/>
</g>
<g>
	<path class="st1" d="M40.2,72.4c-18,0-32.7-14.7-32.7-32.7C7.5,21.7,22.2,7,40.2,7c18,0,32.7,14.7,32.7,32.7
		C72.9,57.8,58.2,72.4,40.2,72.4z M40.2,8C22.7,8,8.5,22.3,8.5,39.7s14.2,31.7,31.7,31.7s31.7-14.2,31.7-31.7S57.7,8,40.2,8z"/>
</g>
<g>
	<path class="st2" d="M29.9,30.4c0,0-6.6-0.5-7.7,7.3c0,0-3.4,0.8-4.6,3.3c-1.2,2.5-0.3,4.8-0.3,4.8s-3.4-0.3-4.5,2.1
		c-1.1,2.3,0,5.4,1.9,6.1c1.9,0.6,3.5,0.3,3.5,0.3s2.4,2.2,5,0.2c0,0,1.3,1.6,3.8,1.2c2.6-0.4,5.9-3.1,5.4-8
		c-0.5-2.7-2.1-4.9-3.8-5.4c0,0,3.3-1.4,3.5-4.2c0.2-2.8,1.8-3,1.7-3.7C32.8,30.6,31.4,31,29.9,30.4L29.9,30.4z"/>
</g>
<g>
	<path class="st2" d="M45.6,32.7c0,0,4.6-0.1,5.8,2.6c1.3,2.7,0.8,5.4-0.3,6.2c0,0,2.4,0.3,2.3,1.9c-0.1,1.7-1.3,1.8-3.4,1.8
		l2.1,8.5l2.9,1.3l3.1,0.3l2.2-1c0,0,3.1,1.4,5.2-0.1c2.1-1.5,3.4-6,2.9-8.3c-0.6-4-5.5-5.6-8.1-5.2c0,0,0.6-10-9.5-10.2
		c0,0-2.1-0.2-4,0.7L45.6,32.7L45.6,32.7z"/>
</g>
<g>
	<path class="st3" d="M32.4,38.4c0,0,4.6-4.4,10.4-1.9c0,0-1.3-3.7-5.6-3.7C32.8,32.8,32.1,37.2,32.4,38.4z"/>
</g>
<g>
	<path class="st3" d="M43.1,36.6c0,0,5-1.8,8.8-0.1c0,0-1.3-3.6-4.9-3.7c-3.6-0.1-4.9,2.1-4.9,2.1L43.1,36.6z"/>
</g>
<g>
	<path class="st3" d="M36.4,49.3c0,0-0.5,8.4,8.6,8.3c6,0,5.9-6,5.7-7.3c-0.8-2.6-2.1-3.8-3.3-3.7S45,47.5,44,48.8
		c0,0-1.7-2.3-4-2.3C37.7,46.4,36.4,48.3,36.4,49.3L36.4,49.3z"/>
</g>
<g>
	<path class="st0" d="M37.8,48.6c0,0-1.1,0-1.3,1.3c-0.2,1.3,2.2,5,7.7,4.8c5.5-0.2,6.6-3.9,6.6-5.1c0-1.2-1-1.1-1.5-1.1
		c-0.5,0-3.5,2.5-5,2.4c-1.4-0.1-3.4-0.9-3.8-1.3C40.1,49.3,38.5,48.5,37.8,48.6L37.8,48.6z"/>
</g>
<g>
	<path class="st3" d="M43.3,39.3c0,0-1.1,4.5-5.6,4.4c0,0-4.2,0.5-5.7-5.1c0,0-1,3-3.4,3.5c0,0,4,2.1,3.8,6.5
		c-0.2,4.4-2.6,5.8-2.6,5.8s2.9,7.3,13.1,7.2c8.4,0,9.4-6,9.6-7.8c0,0,0-3.3-0.6-5.2l-1.4-0.2c0,0,1.3,8.7-6.3,9.1
		c-1.1-0.2-6.8-0.3-7.8-8c0,0,0.2-2.5,2.1-3c0,0,2.6-0.5,3.7,0.4L43.3,39.3L43.3,39.3z"/>
</g>
<g>
	<path class="st3" d="M42.5,41.1l-0.9,5.6c0,0,2.4,1.4,2.3,2.1c0,0,0.9-2,3.4-2.1c0,0,2.6-0.5,3.2,2.4l2.1-0.1L52,45.4
		c0,0,1.6,0.3,1.5-1.5c-0.1-1.8-2.1-2.1-2.1-2.1s-3.8-0.1-4.8-0.5c-1-0.4-3.3-1.9-3.3-1.9L42.5,41.1L42.5,41.1z"/>
</g>
<g>
	<path class="st0" d="M32.4,38.4c0,0,0.3,5.7,5.3,5.4c3.5-0.2,5-2.1,5.6-4.4c0,0,2,2,5,2.2c3.1,0.2,2.7,0.1,2.7,0.1s2.1-3.3,0.9-5.1
		c0,0-2.8-0.8-4.8-0.7c-2,0.1-4,0.8-4,0.8s-3.5-1.6-6.1-0.6c-2.6,0.9-5.1,2.7-5.1,2.7"/>
</g>
<g>
	<path class="st3" d="M33.6,34.5c0,0,1.7-2,4.4-1.8c2.7,0.2,4.2,2.2,4.2,2.2s2.1-2.3,3.4-2.2c1.3,0.1,1.7,0.1,1.7,0.1
		s0.9-1.9,2.6-2.1c1.7-0.2,1,0,1,0l1.8-10.6l-3.9,2.2l-1.1-4.9l-3.5,3.4l-4.4-7.2l-3.8,7c0,0-4-3.1-3.9-3.3c0-0.1-1.4,5.2-1.4,5.2
		L28,20.1l1.8,10.5C29.8,30.6,33.7,30.9,33.6,34.5L33.6,34.5z"/>
</g>
<g>
	<path class="st1" d="M37.3,26.1l3.2-3.9l3.2,3.9L40.4,30L37.3,26.1z"/>
</g>
<g>
	<path class="st1" d="M31.8,26.5l1.6-2l1.6,2l-1.6,2L31.8,26.5z"/>
</g>
<g>
	<path class="st1" d="M45.9,26.4l1.6-2l1.6,2l-1.6,2L45.9,26.4z"/>
</g>
<g>
	<path class="st1" d="M38.7,53.3c0,0,2.1,1.5,5.6,1.5c3.5,0,4.8-1.7,4.8-1.7L38.5,53L38.7,53.3L38.7,53.3z"/>
</g>
<g>
	<path class="st1" d="M49.9,46.1c-2.8,0-6.2-0.9-6.7-1.1c-0.3-0.1-0.4-0.4-0.3-0.6c0.1-0.3,0.3-0.4,0.6-0.3c2,0.6,7.5,1.7,9.1,0.5
		c0.3-0.2,0.4-0.5,0.4-0.9c-0.1-1.2-1.4-1.4-3.7-1.6c-2.2-0.2-4.8-0.4-6.3-2.3c-0.2-0.2-0.1-0.5,0.1-0.7c0.2-0.2,0.5-0.1,0.7,0.1
		c1.2,1.5,3.5,1.7,5.6,1.9c2.2,0.2,4.5,0.4,4.6,2.5c0,0.7-0.2,1.3-0.8,1.8C52.5,45.9,51.3,46.1,49.9,46.1z"/>
</g>
<g>
	<path class="st1" d="M37.7,44.3c-3.4,0-6.1-2.7-6.1-6s2.7-6,6.1-6c1.8,0,3.6,0.8,4.7,2.2c0,0,0,0,0,0c0.9,1.1,1.3,2.4,1.3,3.8
		C43.8,41.6,41.1,44.3,37.7,44.3z M37.7,33.3c-2.8,0-5.1,2.3-5.1,5c0,2.8,2.3,5,5.1,5s5.1-2.3,5.1-5c0-1.2-0.4-2.3-1.1-3.2
		c0,0,0,0,0,0C40.7,33.9,39.3,33.3,37.7,33.3z"/>
</g>
<g>
	<path class="st1" d="M51.2,42.1c-0.1,0-0.2,0-0.3-0.1c-0.2-0.2-0.3-0.5-0.1-0.7c0.6-0.9,1-1.9,1-3c0-2.8-2.3-5-5.1-5
		c-1.6,0-3.1,0.7-4,1.9c-0.2,0.2-0.5,0.3-0.7,0.1c-0.2-0.2-0.3-0.5-0.1-0.7c1.2-1.5,2.9-2.3,4.8-2.3c3.4,0,6.1,2.7,6.1,6
		c0,1.3-0.4,2.5-1.2,3.6C51.5,42,51.3,42.1,51.2,42.1z"/>
</g>
<g>
	<path class="st1" d="M32.1,39c-0.1,0-0.3-0.1-0.4-0.2c-0.2-0.2-0.2-0.5,0-0.7C32,37.9,37,33.6,43,36c0.3,0.1,0.4,0.4,0.3,0.6
		c-0.1,0.3-0.4,0.4-0.6,0.3c-5.4-2.1-10.1,1.9-10.2,2C32.4,39,32.2,39,32.1,39z"/>
</g>
<g>
	<path class="st1" d="M43.2,37.2c-0.2,0-0.4-0.1-0.4-0.3c-0.1-0.2,0-0.5,0.2-0.7c0.2-0.1,3.8-2,9.2-0.1c0.3,0.1,0.4,0.4,0.3,0.6
		s-0.4,0.4-0.6,0.3c-5.1-1.7-8.4,0-8.4,0C43.3,37.2,43.2,37.2,43.2,37.2z"/>
</g>
<g>
	<path class="st1" d="M38.1,35.7c-0.6,0.5-0.9,1.2-1,2l2.8,0.4L38,40.1c0.6,0.6,1.4,1,2.3,1c1.7,0,3.1-1.4,3.1-3.1
		c0-0.6-0.2-1.1-0.4-1.6"/>
</g>
<g>
	<path class="st1" d="M48,41.6c-0.3-0.2-1-0.5-1-0.5l2-2.3l-2.8-0.4c0.1-1.2,1-2.3,2.2-2.6l2.8,0.6L51,41.5"/>
</g>
<g>
	<path class="st1" d="M50.4,41.7c1.2-0.4,2.1-1.6,2.1-2.9c0-1.1-0.5-2-1.3-2.5"/>
</g>
<g>
	<path class="st1" d="M31.7,37.2c-0.4,0-1-0.1-1.5-0.5c-0.9-0.7-1.3-1.9-1.4-3.8c0-0.3,0.2-0.5,0.5-0.5c0.3,0,0.5,0.2,0.5,0.5
		c0,1.5,0.4,2.5,1,3c0.5,0.4,1.1,0.3,1.1,0.3c0.3-0.1,0.5,0.1,0.6,0.4c0.1,0.3-0.1,0.5-0.4,0.6C32.2,37.2,32,37.2,31.7,37.2z"/>
</g>
<g>
	<path class="st1" d="M30.4,39.2c-1.1,0-2.6-0.5-3.8-2.5c-0.1-0.2-0.1-0.5,0.2-0.7c0.2-0.1,0.5-0.1,0.7,0.2c1.9,3,4.3,1.7,4.4,1.6
		c0.2-0.1,0.5-0.1,0.7,0.2c0.1,0.2,0.1,0.5-0.2,0.7C32.4,38.7,31.5,39.2,30.4,39.2z"/>
</g>
<g>
	<path class="st1" d="M50.7,34.8c-0.2,0-0.5-0.2-0.5-0.4c0-0.3,0.2-0.5,0.4-0.6c0.1,0,2-0.3,2.3-1.9c0.1-0.3,0.3-0.4,0.6-0.4
		c0.3,0.1,0.4,0.3,0.4,0.6C53.5,34.4,50.9,34.8,50.7,34.8C50.8,34.8,50.8,34.8,50.7,34.8z"/>
</g>
<g>
	<path class="st1" d="M52.4,38.1C52.4,38.1,52.4,38.1,52.4,38.1c-0.3,0-0.5-0.2-0.5-0.5s0.2-0.5,0.5-0.5c0.1,0,2,0,2.3-1.6
		c0.1-0.3,0.3-0.4,0.6-0.4c0.3,0.1,0.4,0.3,0.4,0.6C55.3,37.6,53.4,38.1,52.4,38.1z"/>
</g>
<g>
	<path class="st1" d="M44.2,58.2c-5,0-7.8-3.4-8.3-6.7c-0.4-2.5,0.5-4.7,2.3-5.3c3-1,4.8,0.7,5.6,1.8c0.6-0.8,1.8-1.9,4-1.9
		c2.1,0,3.6,2.1,3.6,4.9c0,1.8-0.6,3.5-1.7,4.8C48.4,57.3,46.5,58.2,44.2,58.2z M40,46.9c-0.4,0-0.9,0.1-1.4,0.2
		c-1.3,0.4-2,2.1-1.6,4.2c0.5,2.9,2.9,5.8,7.3,5.8c2,0,3.6-0.7,4.8-2c0.9-1.1,1.5-2.6,1.5-4.2c0-1.9-0.9-3.9-2.6-3.9
		c-2.7,0-3.5,2-3.5,2.1c-0.1,0.2-0.2,0.3-0.4,0.3c-0.2,0-0.4-0.1-0.5-0.3C43.3,49.1,42.3,46.9,40,46.9z"/>
</g>
<g>
	<path class="st1" d="M44,55.2c-5.9,0-7.8-3.6-8-4.8c-0.1-0.5,0.1-1,0.4-1.4c0.4-0.5,1-0.8,1.7-0.9c1-0.1,1.8,0.5,2.5,1
		c0.2,0.2,0.4,0.3,0.6,0.4c1,0.7,2,1,2.9,1c1.3,0,2.2-0.7,3.3-1.4c0.3-0.2,0.6-0.4,0.9-0.6c0.2-0.1,0.5-0.3,0.9-0.4
		c0.5-0.1,1,0,1.4,0.2c0.4,0.3,0.8,0.8,0.9,1.4c0,0,0,0,0,0c0.1,0.6-0.1,1.8-1.1,3C49.2,53.9,47.4,55.2,44,55.2z M38.1,49.1
		C38.1,49.1,38.1,49.1,38.1,49.1c-0.5,0-0.8,0.2-1,0.5c-0.1,0.2-0.2,0.4-0.2,0.6c0,0,0.9,4,7,4c3,0,4.6-1.1,5.4-2
		c0.8-1,1-1.9,0.9-2.2c0,0,0,0,0,0c-0.1-0.4-0.2-0.7-0.4-0.8C49.6,49,49.4,49,49.2,49c-0.2,0-0.4,0.2-0.5,0.3
		c-0.3,0.2-0.6,0.4-0.9,0.6c-1.1,0.8-2.2,1.6-3.9,1.6c-1.1,0-2.2-0.4-3.4-1.1c-0.2-0.1-0.4-0.3-0.7-0.5
		C39.3,49.5,38.7,49.1,38.1,49.1z"/>
</g>
<g>
	<path class="st1" d="M49.1,53.5H38.5c-0.3,0-0.5-0.2-0.5-0.5s0.2-0.5,0.5-0.5h10.6c0.3,0,0.5,0.2,0.5,0.5S49.4,53.5,49.1,53.5z"/>
</g>
<g>
	<path class="st1" d="M41.6,53.4c-0.3,0-0.5-0.2-0.5-0.5v-2.4c0-0.3,0.2-0.5,0.5-0.5s0.5,0.2,0.5,0.5v2.4
		C42.1,53.2,41.8,53.4,41.6,53.4z"/>
</g>
<g>
	<path class="st1" d="M46.4,53.4c-0.3,0-0.5-0.2-0.5-0.5v-2.4c0-0.3,0.2-0.5,0.5-0.5s0.5,0.2,0.5,0.5v2.4
		C46.9,53.2,46.7,53.4,46.4,53.4z"/>
</g>
<g>
	<path class="st1" d="M22.1,38c-0.3,0-0.5-0.2-0.5-0.5c0-1,0.2-2.1,0.6-3.1c1.9-4.5,7.3-4.3,7.4-4.3c0.3,0,0.5,0.2,0.5,0.5
		c0,0.3-0.3,0.5-0.5,0.5c-0.2,0-4.8-0.1-6.4,3.7c-0.4,0.9-0.6,1.8-0.5,2.7C22.7,37.8,22.4,38,22.1,38C22.2,38,22.2,38,22.1,38z"/>
</g>
<g>
	<path class="st1" d="M18.4,47.9c-0.1,0-0.3-0.1-0.4-0.2c-1.6-1.8-2-4.5-1-6.7c1-2.2,3.2-3.7,5.7-3.8c0.3,0,0.5,0.2,0.5,0.5
		c0,0.3-0.2,0.5-0.5,0.5c-2,0.1-4,1.4-4.8,3.2c-0.8,1.8-0.5,4.1,0.9,5.6c0.2,0.2,0.2,0.5,0,0.7C18.6,47.9,18.5,47.9,18.4,47.9z"/>
</g>
<g>
	<path class="st1" d="M26.5,56.2c-0.4,0-0.8,0-1.2-0.1c-1.6-0.4-2.9-1.8-3.2-3.3c-0.2-1.7,0.9-3.4,2.5-3.8c0.3-0.1,0.5,0.1,0.6,0.4
		c0.1,0.3-0.1,0.5-0.4,0.6c-1.1,0.3-1.9,1.5-1.7,2.7c0.2,1.2,1.2,2.2,2.4,2.5c1.2,0.3,2.5,0,3.6-0.8c1.2-0.9,1.9-2.2,2.3-3.2
		c0.6-1.7,0.6-3.5,0.1-5c-0.6-1.7-1.9-3-3.4-3.6c-0.2-0.1-0.3-0.3-0.3-0.5c0-0.2,0.2-0.4,0.4-0.5c0.9-0.2,1.6-0.5,2.1-1
		c0.6-0.5,1-1.3,1-2c0-0.3,0.2-0.5,0.5-0.5c0.3,0,0.5,0.2,0.5,0.5c0,1-0.5,2-1.3,2.8c-0.4,0.4-0.9,0.7-1.4,0.9
		c1.3,0.8,2.3,2.1,2.9,3.6c0.6,1.8,0.6,3.8-0.1,5.7c-0.6,1.6-1.5,2.8-2.6,3.7C28.8,55.9,27.6,56.2,26.5,56.2z"/>
</g>
<g>
	<path class="st1" d="M57.1,56.1c-1.1,0-2.3-0.4-3.3-1.1c-0.5-0.4-1-0.8-1.4-1.3c-0.2-0.2-0.1-0.5,0.1-0.7c0.2-0.2,0.5-0.1,0.7,0.1
		c0.3,0.4,0.7,0.8,1.2,1.1c1.1,0.8,2.5,1.1,3.6,0.8c1.3-0.3,2.2-1.3,2.4-2.5c0.2-1.2-0.6-2.4-1.7-2.7c-0.3-0.1-0.4-0.3-0.4-0.6
		c0.1-0.3,0.3-0.4,0.6-0.4c1.6,0.4,2.7,2.1,2.5,3.8c-0.2,1.5-1.5,2.9-3.2,3.3C57.9,56.1,57.5,56.1,57.1,56.1z"/>
</g>
<g>
	<path class="st1" d="M20.9,55.7c-0.3,0-0.6,0-0.9-0.1c-1.2-0.3-2.3-1.2-2.8-2.4c-0.5-1.2-0.2-2.6,0.5-3.6c0.5-0.7,1.3-1.1,2.2-1.2
		c0.3,0,0.5,0.2,0.6,0.4c0,0.3-0.2,0.5-0.4,0.6c-0.6,0.1-1.1,0.4-1.5,0.9C18,51,17.9,52,18.2,52.9c0.3,0.9,1.1,1.5,2.1,1.8
		c0.9,0.2,1.9,0,2.7-0.6c0.2-0.2,0.5-0.1,0.7,0.1s0.1,0.5-0.1,0.7C22.8,55.4,21.9,55.7,20.9,55.7z"/>
</g>
<g>
	<path class="st1" d="M16.8,54.9c-1,0-2-0.3-2.8-0.8c-1.1-0.7-1.9-1.8-2.1-3.2c-0.3-1.7,0.2-3.4,1.4-4.5c1.1-1,2.5-1.5,4-1.2
		c0.3,0.1,0.4,0.3,0.4,0.6c-0.1,0.3-0.3,0.5-0.6,0.4c-1.2-0.2-2.2,0.1-3.1,0.9c-0.9,0.9-1.4,2.3-1.1,3.7c0.2,1.1,0.8,2,1.7,2.5
		c1,0.6,2.3,0.8,3.6,0.5c0.3-0.1,0.5,0.1,0.6,0.4c0.1,0.3-0.1,0.5-0.4,0.6C17.8,54.9,17.3,54.9,16.8,54.9z"/>
</g>
<g>
	<path class="st1" d="M43,62.2c-10.3,0-13.1-7.7-13.1-7.8c-0.1-0.3,0-0.5,0.3-0.6c0.3-0.1,0.5,0,0.6,0.3c0.1,0.3,2.6,7.1,12.2,7.1
		c3.5,0,6.1-1.1,7.7-3.1c2.8-3.7,1.7-9.4,0.8-12.6c-0.1-0.3,0.1-0.5,0.3-0.6c0.3-0.1,0.5,0.1,0.6,0.3c1.6,5.7,1.3,10.5-1,13.4
		C49.7,61,46.8,62.2,43,62.2z"/>
</g>
<g>
	<path class="st1" d="M62.9,55.9c-0.5,0-1-0.1-1.5-0.3c-0.5-0.2-0.9-0.4-1.3-0.7c-0.2-0.1-0.3-0.5-0.2-0.7c0.1-0.2,0.4-0.3,0.7-0.2
		l0,0c0.4,0.2,0.7,0.5,1.1,0.6c1.3,0.5,3,0.1,3.9-1.1c0.9-1.1,0.9-2.9,0-4c-0.9-1.2-2.5-1.7-3.9-1.2c-0.3,0.1-0.5-0.1-0.6-0.3
		s0.1-0.5,0.3-0.6c1.8-0.6,3.9,0.1,5,1.6c1.1,1.5,1.1,3.7,0,5.2C65.6,55.3,64.2,55.9,62.9,55.9z"/>
</g>
<g>
	<path class="st1" d="M66.7,52.6c-0.2,0-0.3-0.1-0.4-0.2c-0.2-0.2-0.1-0.5,0.1-0.7c1.1-0.8,1.7-2.1,1.7-4c0-3.6-2.9-6.4-6.6-6.4
		c-1.1,0-2.2,0.3-3.1,0.8c-0.2,0.1-0.5,0-0.7-0.2c-0.1-0.2,0-0.5,0.2-0.7c1.1-0.6,2.4-0.9,3.6-0.9c4.2,0,7.6,3.3,7.6,7.4
		c0,2.2-0.7,3.8-2.1,4.8C66.9,52.6,66.8,52.6,66.7,52.6z"/>
</g>
<g>
	<path class="st1" d="M60.2,41.3C60.2,41.3,60.2,41.3,60.2,41.3c-0.3,0-0.5-0.3-0.5-0.6c0,0,0.4-3.9-2-6.7c-1.5-1.8-3.8-2.8-6.8-3
		c-0.3,0-0.5-0.3-0.5-0.5c0-0.3,0.3-0.5,0.5-0.5c3.3,0.2,5.9,1.3,7.6,3.3c2.6,3.1,2.2,7.2,2.2,7.4C60.7,41.1,60.5,41.3,60.2,41.3z"
		/>
</g>
<g>
	<path class="st1" d="M33.6,35C33.6,35,33.6,35,33.6,35c-0.3,0-0.5-0.2-0.5-0.5c0-1.1-0.2-2-0.8-2.6c-0.6-0.6-1.5-0.9-2.6-0.8
		c-0.3,0-0.5-0.2-0.5-0.5c0-0.3,0.2-0.5,0.5-0.5c1.4-0.1,2.6,0.3,3.4,1.1c0.8,0.8,1.2,1.9,1.2,3.3C34.1,34.8,33.9,35,33.6,35z"/>
</g>
<g>
	<path class="st1" d="M47.1,33.3c-0.3,0-0.5-0.2-0.5-0.5c0-0.7,0.2-1.2,0.7-1.7c1.1-1.1,3.1-1,3.5-1c0.3,0,0.5,0.3,0.5,0.5
		c0,0.3-0.2,0.5-0.5,0.5c-0.7,0-2.1,0.1-2.8,0.7c-0.3,0.3-0.4,0.6-0.4,1C47.6,33.1,47.4,33.3,47.1,33.3z"/>
</g>
<g>
	<path class="st1" d="M51.1,31C51.1,31,51.1,31,51.1,31c-0.3,0-0.5-0.3-0.5-0.6l1.4-9.6l-2.8,2C49,23,48.8,23,48.6,22.9
		c-0.2-0.1-0.3-0.3-0.4-0.5l-0.7-4.1l-3,2.9c-0.2,0.1-0.3,0.2-0.5,0.2c-0.2,0-0.4-0.1-0.5-0.3l-3.6-6.6L36.5,21
		c-0.1,0.2-0.3,0.3-0.5,0.3c-0.2,0-0.4,0-0.5-0.2l-3.3-3.1l-0.9,4.5c0,0.2-0.2,0.4-0.4,0.5c-0.2,0.1-0.5,0-0.6-0.1l-1.8-1.7l1.8,8.9
		c0.1,0.3-0.1,0.5-0.4,0.6c-0.3,0.1-0.5-0.1-0.6-0.4l-2-10c-0.1-0.3,0.1-0.5,0.3-0.7c0.2-0.1,0.5-0.1,0.7,0.1l2.2,2l0.9-4.5
		c0-0.2,0.2-0.4,0.4-0.5c0.2-0.1,0.5,0,0.6,0.1l3.5,3.2l3.5-6.8c0.2-0.4,0.9-0.4,1.1,0l3.7,6.8l3.2-3c0.2-0.2,0.4-0.2,0.6-0.1
		c0.2,0.1,0.4,0.3,0.4,0.5l0.7,4.2l3-2.1c0.2-0.1,0.5-0.2,0.7,0c0.2,0.1,0.3,0.4,0.3,0.6l-1.5,10.4C51.6,30.9,51.4,31,51.1,31z
		 M48.6,22C48.6,22,48.6,22,48.6,22L48.6,22z M36.2,20.5L36.2,20.5C36.2,20.5,36.2,20.5,36.2,20.5z M52.1,20
		C52.1,20,52.1,20,52.1,20L52.1,20z M48,17.8L48,17.8C48,17.8,48,17.8,48,17.8z M47.4,17.6C47.4,17.6,47.4,17.6,47.4,17.6L47.4,17.6
		z M39.6,13.8C39.6,13.8,39.6,13.8,39.6,13.8L39.6,13.8z"/>
</g>
</svg>
