<svg xmlns="http://www.w3.org/2000/svg" xml:space="preserve" id="Layer_1" x="0" y="0" viewBox="0 0 80 80"><style>.st0{fill:#780505}.st1{fill:#002140}.st2{fill:#bf3013}.st3{fill:#ff7101}.st4{fill:#ffc68c}</style><path d="M0 0h80v80H0z" class="st0"/><path d="M40.1 72.7C22.1 72.7 7.4 58 7.4 40S22.1 7.3 40.1 7.3 72.8 22 72.8 40c0 18.1-14.6 32.7-32.7 32.7m0-64.3C22.7 8.4 8.4 22.6 8.4 40s14.2 31.7 31.7 31.7S71.8 57.5 71.8 40 57.6 8.4 40.1 8.4" class="st1"/><path d="M55.7 17.7s-1.6 3.9-4.3 4.2c0 0 3.7 1.6 4 4 0 0 1.5-3.5 4.4-3.9.1 0-3.9-.9-4.1-4.3" class="st2"/><path d="M55.5 27c-.2 0-.4-.2-.5-.4-.8-2.9-1.3-3.4-4.2-4.2-.2-.1-.4-.3-.4-.5s.2-.4.4-.5c2.9-.8 3.4-1.3 4.2-4.2.1-.2.3-.4.5-.4s.4.2.5.4c.8 2.9 1.3 3.4 4.2 4.2.2.1.4.3.4.5s-.2.4-.4.5c-2.9.8-3.4 1.3-4.2 4.2-.1.2-.3.4-.5.4m-2.9-5.1c1.5.6 2.3 1.3 2.9 2.9.6-1.5 1.3-2.3 2.9-2.9-1.5-.6-2.3-1.3-2.9-2.9-.6 1.6-1.3 2.3-2.9 2.9" class="st1"/><path d="M29.8 45.1s-1.5-.9-2.7-.6c-1.1.3-2.1 1.3-2.1 3.4.1 2.1.7 3.5 2.3 3.5 1.6-.1 3.3-1.9 3.5-.7.3 7.4 7.4 10.1 11.8 10.2 4.5.2 6.2-2.2 7.2-3.9 1-1.8 1.2-8.2.3-11.3s-2.6-9.5-2.6-9.5-10.5-2.4-13.8.2-3.9 8.7-3.9 8.7" class="st3"/><path d="m34.3 36.8-1.4-.5s-6.5 2.3-8.7 4.9c0 0-1 4.7-2.6 7.4s-3.9 6.9-3.6 9.5 3.4 7.6 10.1 6.5 8.5-5.1 8.5-5.1l-2.1-1-1.1-1.6s-.6-.4-1.9-3l-.7-3.1s1.1 1.7 2.9 1.2c1.7-.5 2-3.2.5-3.8 0 0 .1 1.7-1 1.6s-1.7-1.1-1.4-2.1c.4-1.3 3.6-7.8 2.5-10.9m14.2 1.1S52 49.4 50.2 55c0 0-1.1 3.7-2.6 4.5 1.3 1.4 6.4 3.3 6.4 3.3s7.1 1.2 9.9-5.1c2.2-5.2-2.7-9.7-3.3-10s-8.5-5.3-9.3-6.3c-.6-1-2.8-3.5-2.8-3.5" class="st2"/><path d="M21.8 47.7s2.7-4.1 2.4-6.5c0 0 6.6-4.4 8.7-4.9 0 0-4.7-4.6-11.4-4.7s-8.2 6.9-8.1 8.2 1 6.7 5.6 7.6c1.6.4 2.8.3 2.8.3m25.9-11.5s2.9 5.7 5.8 7.1c0 0 5.3-1.5 5.8-7.2s-4-5.5-4-5.5-2.9.2-3.9 2.1-2.9 3.5-3.7 3.5" class="st2"/><path d="M34.4 16.7s-3.3-3.4-6.5-3.3c-3.1.1-4.7 3.1-4.9 6.3s1.9 11.1 1.5 12.2c0 0 4.9 1.9 5.5 2.4s6.1 4.2 11.4 3.6c5.2-.6 8.1-2.9 8.1-2.9s-1.1-1.9-1.3-6.4-1.9-15-6.5-15.9-5.7 2.5-5.7 2.5z" class="st2"/><path d="M41.1 42.2s.5.7 1 1.6c.5 1 1.9 2.2 1.9 2.2s2.7-.5 2.8-3.2-3-2.8-3-2.8-2.3.1-2.7 2.2m-3 4.2c1.5 0 2.7-1.2 2.7-2.7S39.6 41 38.1 41s-2.7 1.2-2.7 2.7 1.2 2.7 2.7 2.7" class="st4"/><path d="M33.1 29s3.5.1 4.4 1.1 2.2 3.9 2.2 3.9.1-3.8 1.4-4.7 3.6-2.1 3.6-2.1-3.6-.1-4.3-1-1.7-3.2-2.1-4.1c0 0-.4 3.5-1.1 4.2s-3.4 2.8-4.1 2.7" class="st3"/><path d="M40 51.7s4.5 0 6.1-.6c0 0-.1-1.3-1.2-1.3-1.1-.1-1.7 1.1-1.7 1.1s-.7-.9-1.8-.8-1.4 1.5-1.4 1.6m-.1 1.6s.5 3.7 3.4 3.5 3-3.1 3-3.1l-.3-2s-1.2 2.7-2.7 2.7c-1.5.1-2.9-.9-3.1-1.8z" class="st2"/><path d="M40 51.7s4.7.1 6.1-.6c0 0-.5 3.3-2.7 3.3-2.3 0-3.1-.6-3.4-2.7" class="st4"/><path d="M21.2 48.1c-2.2 0-4.1-.7-5.6-2.1-1.7-1.5-2.6-3.8-2.6-6.2 0-2.3.9-4.5 2.6-6.1 1.8-1.7 4.3-2.6 7-2.5 3.4.1 5.9 1.6 8.2 3 2.9 1.7 5.9 3.5 10.9 3 6.2-.7 7.8-2.9 9.1-4.7 1-1.4 1.9-2.7 4.5-2.7 2.4 0 4.1 1.5 4.5 4 .5 3.6-1.7 8.4-5.9 9.7-.3.1-.5-.1-.6-.3-.1-.3.1-.5.3-.6 3.6-1.1 5.6-5.4 5.2-8.6-.2-1.2-.9-3.2-3.5-3.2-2.1 0-2.7.9-3.7 2.2-1.3 1.8-3.1 4.4-9.8 5.1-5.3.6-8.5-1.3-11.5-3.1-2.4-1.4-4.6-2.8-7.7-2.9-3.2-.1-5.2 1.2-6.3 2.3-1.4 1.4-2.3 3.3-2.3 5.4s.8 4.1 2.3 5.4q2.25 2.1 5.7 1.8c.3 0 .5.2.5.5s-.2.5-.5.5c-.3.1-.5.1-.8.1" class="st1"/><path d="M49.4 35.4c-.2 0-.4-.1-.4-.3-1.1-2.2-1.3-4.8-1.5-7.4C47.1 19 45 15.5 43.4 14c-1.1-.9-2.3-1.3-3.7-1.2-1.8.2-2.5 1.2-3.4 2.4-.5.6-.9 1.3-1.6 1.9-.2.2-.5.2-.7 0s-.2-.5 0-.7c.6-.5 1-1.1 1.4-1.7.9-1.3 1.9-2.6 4.2-2.8 1.7-.1 3.2.3 4.5 1.4q3.9 3.45 4.5 14.4c.1 2.5.3 4.9 1.4 7 .1.2 0 .5-.2.7z" class="st1"/><path d="M24.7 32.4c-.3 0-.5-.2-.5-.5 0-.9-.3-2.3-.6-3.9-.8-4.2-2-10 .3-13.1q1.35-1.8 3.9-2.1c2.6-.3 4.3 1.1 6 2.8 1.3 1.3 2.7 1.8 4.4 1.6.3 0 .5.2.6.4 0 .3-.2.5-.4.6-2 .3-3.7-.3-5.2-1.9-1.7-1.7-3-2.8-5.2-2.6-1.4.2-2.5.7-3.2 1.7-2 2.8-.9 8.3-.1 12.3.3 1.7.6 3.2.6 4.1-.1.4-.4.6-.6.6m8.4 20.2c-1.6 0-2.5-.8-2.8-2.6-.4-2.5-1.1-5.4-1.6-5.8-.2-.2-.2-.5-.1-.7.2-.2.5-.2.7-.1 1 .8 1.7 5.1 1.9 6.4.2 1.4.9 1.7 1.8 1.7 1 0 1.8-.8 1.8-1.9 0-.2 0-.5-.1-.7-.2.8-.9 1.2-1.5 1.3-.8.1-1.7-.6-1.7-1.7-.1-1.2.4-2.4.8-3.5.1-.2.2-.5.3-.7l.1-.4c.8-2.2 1.6-4.7 1-7-.1-.3.1-.5.4-.6s.5.1.6.4c.7 2.6-.3 5.2-1.1 7.6l-.1.4c-.1.2-.2.5-.3.7-.4 1-.8 2.1-.7 3.1 0 .5.4.8.7.7.3 0 .6-.2.6-.8 0-.2-.1-.5-.2-.6q-.15-.3 0-.6c.2-.2.4-.2.6-.2 1 .5 1.7 1.5 1.7 2.6 0 1.7-1.3 3-2.8 3m-11.8-6.9h-.2c-.3-.1-.4-.4-.3-.7 2.8-6.3 11.8-9 12.2-9.1.3-.1.5.1.6.3.1.3-.1.5-.3.6-.1 0-9 2.7-11.6 8.6 0 .2-.2.3-.4.3" class="st1"/><path d="M26.3 65.1h-.4c-3.2-.1-5.9-1.5-7.5-4-2.3-3.7-.8-6.4 1.2-9.7 1.5-2.5 3.3-5.6 4-10 0-.3.3-.5.6-.4.3 0 .5.3.4.6-.8 4.6-2.6 7.8-4.1 10.4-1.9 3.3-3.2 5.5-1.2 8.7 1.4 2.2 3.8 3.5 6.7 3.6 3.9.1 8-1.9 10.3-5 .2-.2.5-.3.7-.1s.3.5.1.7c-2.4 3.1-6.7 5.2-10.8 5.2" class="st1"/><path d="M42.9 61.4c-11.6 0-12.5-10.6-12.5-10.7 0-.3.2-.5.5-.5s.5.2.5.5c0 .4.8 10.3 12.3 9.7.3 0 .5.2.5.5s-.2.5-.5.5z" class="st1"/><path d="M43.8 61.3c-.3 0-.5-.2-.5-.5s.2-.5.5-.5c2.3-.2 4-1.1 5.1-2.8 4-6.3-1.5-20.9-1.5-21.1q-.15-.45.3-.6t.6.3c.2.6 5.7 15.2 1.4 21.9-1.2 2-3.2 3.1-5.9 3.3m-1.4-12.1c-1.3 0-2.7-.5-3-1.5-.1-.5 0-.9.4-1.1.5-.4 1.4-.2 1.8 0 .2.1.3.5.2.7s-.5.3-.7.2-.6-.1-.7 0c.1.4 1.1.9 2.3.8.4 0 1.3-.1 1.4-.8.1-1-.8-1.9-2-3-.7-.7-1.4-1.4-2-2.2-.2-.2-.1-.5.1-.7s.5-.1.7.1c.5.7 1.2 1.4 1.9 2 1.3 1.3 2.5 2.4 2.3 3.9-.1 1-1 1.6-2.3 1.7-.2-.1-.3-.1-.4-.1" class="st1"/><path d="M44.1 46.4c-.3 0-.5-.2-.5-.5s.2-.5.5-.5c1.3-.1 2.3-1.1 2.3-2.4s-1.1-2.4-2.4-2.4c-1.1 0-2.1.8-2.4 1.9-.1.3-.3.4-.6.4-.3-.1-.4-.3-.4-.6.3-1.6 1.7-2.7 3.4-2.7 1.9 0 3.4 1.5 3.4 3.4-.1 1.8-1.5 3.3-3.3 3.4" class="st1"/><path d="m44.7 43 1-.8c-.3-.6-.9-1.1-1.7-1.1-1 0-1.9.8-1.9 1.9 0 1 .8 1.9 1.9 1.9.8 0 1.5-.5 1.8-1.3zm-5.7.6 1-.8c-.3-.6-.9-1.1-1.7-1.1-1 0-1.9.8-1.9 1.9 0 1 .8 1.9 1.9 1.9.8 0 1.5-.5 1.8-1.3zm-3.9-2.4h-.2c-.3-.1-.4-.4-.3-.6.9-2.4 3.3-2.4 4.4-2 .3.1.4.4.3.6-.1.3-.4.4-.6.3s-2.3-.7-3.1 1.4c-.1.2-.3.3-.5.3m10.3-2c-.1 0-.3-.1-.4-.2-1.2-1.3-3-.2-3-.1-.2.2-.5.1-.7-.1s-.1-.5.1-.7c.9-.6 3-1.3 4.4.3.2.2.2.5 0 .7-.1.1-.3.1-.4.1m10.7 24.2c-2.9 0-6-1.2-8.7-3.6-.2-.2-.2-.5-.1-.7.2-.2.5-.2.7-.1 3.5 3 7.6 4 11.1 2.8 2.5-.9 4.3-3 4.7-5.6.9-5.1-2.7-7.4-6.8-10-3.7-2.3-7.8-5-9.4-10.1-.1-.3.1-.5.3-.6.3-.1.5.1.6.3 1.5 4.8 5.3 7.2 9 9.6 4.2 2.7 8.2 5.2 7.2 11-.5 3-2.5 5.4-5.4 6.4-.9.5-2.1.6-3.2.6" class="st1"/><path d="M47.4 43.1c-.3 0-.6-.1-.8-.2s-.3-.4-.2-.7c.1-.2.4-.3.7-.2.1.1.6.3 1.1-.3.2-.2.5-.2.7-.1.2.2.2.5.1.7-.5.7-1.1.8-1.6.8m-.8-1.5c-.2 0-.4 0-.7-.1s-.4-.4-.2-.7c.1-.3.4-.4.7-.2.5.2.8-.3.9-.4.1-.2.4-.3.7-.2.2.1.4.4.2.7-.4.3-.9.9-1.6.9m-12.1 2.6c-.5 0-1-.2-1.5-.8-.2-.2-.1-.5.1-.7s.5-.1.7.1c.5.6 1 .4 1.1.3.2-.1.5 0 .7.2.1.2 0 .5-.2.7-.3.1-.6.2-.9.2m.8-1.6c-.7 0-1.3-.6-1.5-1.1-.1-.2 0-.5.2-.7.2-.1.5 0 .7.2.1.2.4.7.9.4.3-.1.5 0 .7.2.1.3 0 .5-.2.7-.3.3-.6.3-.8.3" class="st1"/><path d="M38.2 47.1c-1.9 0-3.4-1.5-3.4-3.4s1.5-3.4 3.4-3.4 3.4 1.5 3.4 3.4-1.5 3.4-3.4 3.4m0-5.8c-1.3 0-2.4 1.1-2.4 2.4s1.1 2.4 2.4 2.4 2.4-1.1 2.4-2.4-1.1-2.4-2.4-2.4m5.1 16c-1.6 0-3.5-.8-4-4.1-.1-.9 0-2.2.6-2.9q.45-.6 1.2-.6c.8 0 1.4.3 1.7.7.3-.5.8-1 1.5-1.1 1.8 0 2.3 1.8 2.4 2.8 0 .4.2 2.8-1 4.2-.5.6-1.3 1-2.2 1.1.1-.2-.1-.1-.2-.1m-2.1-6.8c-.2 0-.4.1-.5.3-.4.5-.5 1.5-.4 2.2q.45 3.45 3.3 3.3c.6 0 1.1-.3 1.4-.7 1-1.2.7-3.5.7-3.5V52c0-.3-.2-1.8-1.3-1.8-.7.1-1 1.2-1 1.2-.1.2-.2.3-.4.4-.2 0-.4-.1-.5-.3 0-.1-.4-1-1.3-1" class="st1"/><path d="M40 52.4c-.3 0-.5-.2-.5-.5s.2-.5.5-.5c0 0 4.1 0 5.7-.8.2-.1.5 0 .7.2.1.2 0 .5-.2.7-1.9.9-6 .9-6.2.9" class="st1"/><path d="M42.7 55c-.7 0-1.4-.2-1.9-.6-1.1-.9-1.3-2.4-1.3-2.5 0-.3.2-.5.4-.6.3 0 .5.2.6.4 0 0 .2 1.2 1 1.8.4.3 1 .5 1.7.4 1.9-.3 2.2-2.1 2.2-2.9 0-.3.2-.5.5-.5s.5.2.5.5c-.1 2.1-1.2 3.6-3.1 3.9-.2.1-.4.1-.6.1" class="st1"/><path d="M42.4 54.9c-.3 0-.5-.2-.5-.5l-.3-2.5c0-.3.2-.5.4-.5.3 0 .5.2.5.4l.3 2.5c.1.3-.1.5-.4.6m2-.4c-.3 0-.5-.2-.5-.5l-.2-2.4c0-.3.2-.5.5-.5s.5.2.5.5l.2 2.4c0 .2-.2.5-.5.5m-4.5-18.9c-.2 0-.4-.1-.5-.4-1.4-5.3-1.9-5.7-7.4-5.7-.2 0-.5-.2-.5-.4s.1-.5.4-.5c5.3-1.4 5.7-1.9 5.7-7.4 0-.2.2-.5.4-.5s.5.1.5.4c1.4 5.3 1.9 5.7 7.4 5.7.2 0 .5.2.5.4s-.1.5-.4.5c-5.3 1.4-5.7 1.9-5.7 7.4.1.3-.1.5-.4.5m-5-7c2.6.3 3.7 1.1 4.6 3.6.3-2.6 1.1-3.7 3.6-4.6-2.6-.3-3.7-1.1-4.6-3.6-.3 2.6-1.1 3.7-3.6 4.6" class="st1"/></svg>