<svg xmlns="http://www.w3.org/2000/svg" xml:space="preserve" id="Layer_1" x="0" y="0" viewBox="0 0 80 80"><style>.st0{fill:#722b03}.st1{fill:#d18000}.st2{fill:#002140}.st3{fill:#fed607}.st4{fill:#ffed8f}</style><path d="M0 0h80v80H0z" class="st0"/><path d="M22.8 18.8s-1.6 3.9-4.2 4.1c0 0 3.7 1.6 4 4 0 0 1.5-3.5 4.4-3.9 0 .1-4-.8-4.2-4.2m27.3 39s-1.6 3.9-4.2 4.1c0 0 3.7 1.6 4 4 0 0 1.5-3.5 4.4-3.9-.1.1-4-.8-4.2-4.2" class="st1"/><path d="M39.9 72.2c-18 0-32.6-14.6-32.6-32.6S21.9 7.1 39.9 7.1s32.6 14.6 32.6 32.6-14.7 32.5-32.6 32.5m0-64.1C22.5 8.1 8.3 22.3 8.3 39.7s14.2 31.6 31.6 31.6 31.6-14.2 31.6-31.6S57.3 8.1 39.9 8.1" class="st2"/><path d="M49.8 67c-.2 0-.4-.2-.5-.4-.8-2.9-1.3-3.4-4.2-4.2-.2-.1-.4-.3-.4-.5s.2-.4.4-.5c2.9-.8 3.4-1.3 4.2-4.2.1-.4.8-.4 1 0 .8 2.9 1.3 3.4 4.2 4.2.2.1.4.3.4.5s-.2.4-.4.5c-2.9.8-3.4 1.3-4.2 4.2 0 .3-.2.4-.5.4M47 62c1.5.6 2.3 1.3 2.8 2.8.6-1.5 1.3-2.3 2.8-2.8-1.5-.6-2.3-1.3-2.8-2.8-.5 1.5-1.3 2.2-2.8 2.8M22.5 28.2c-.2 0-.4-.2-.5-.4-.8-2.9-1.3-3.4-4.2-4.2-.2-.1-.4-.3-.4-.5s.2-.4.4-.5c2.9-.8 3.4-1.3 4.2-4.2.1-.4.9-.4 1 0 .8 2.9 1.3 3.4 4.2 4.2.2.1.4.3.4.5s-.2.4-.4.5c-2.9.8-3.4 1.3-4.2 4.2-.1.2-.3.4-.5.4m-2.9-5.1c1.5.6 2.3 1.3 2.8 2.8.6-1.5 1.3-2.3 2.8-2.8-1.5-.6-2.3-1.3-2.8-2.8-.5 1.5-1.3 2.3-2.8 2.8" class="st2"/><path d="M30.9 53.1c5.6 3.7 10.6 2.6 11.5 2.5 3.1-.6 10.2-2.6 12.2-9.3 0 0 2.8-5.2.6-11.2 0 0-3-10.4-14.8-10.5 0 0-11.4-.1-14.4 10.2l.4 13.2 3.1 3.8" class="st1"/><path d="M47.4 41s.2 1.1 1.4 1.9 5.1 3.4 6.5 3.4 3.4-3.6 3.1-6.1-1.7-5.7-3.8-5-5.2 3.4-5.2 3.4-2.1 1.1-2 2.4" class="st1"/><path d="M23.7 46.1s1.3-.2 2 .1 2.1.7 3.1.6c1.5-.3 3.4-3.5 2.8-8-.5-4.5-4.1-4.9-4.1-4.9s-4.2 2.5-5.4 2.7-2.4.2-3-.2c-.5-.4-2.5-2.4-4.4-2.3s-4.3 2.5-4.6 8.3 2.2 10.3 5 10.2 5.4-4.4 5.4-4.4 2.3-1.8 3.2-2.1m16.2-21.8s6.4.7 8.8 2.5c2.5 1.7 5.6 6.1 5.6 6.1s3.7-.4 6.2-3.2L58.1 23s-2.9-5.9-8.2-5.9c-5.4 0-7.8 6.4-10 7.2" class="st3"/><path d="M39.3 41.5c2.7 0 4.9-2.2 4.9-4.9s-2.2-4.9-4.9-4.9-4.9 2.2-4.9 4.9 2.2 4.9 4.9 4.9" class="st4"/><path d="M46.2 54.6c3.5-.5 4.5-.5 7.3-.1 2.7.4 3.5 3.1 6.4 1.9 2.9-1.3 3.1-4.7 3.7-7.7s6.1-9.5 6.1-9.5.7-4-2.1-5.2c-2.8-1.3-5.1-2.5-7.1-4.1 0 0-3.4 3-6.2 3.2l.9 2.2s1.5.6 2 1.6c.6 1 1.4 4 1 5.6-.5 1.7-1.3 3.8-2.1 3.9s-1.5.1-1.5.1-2.2 5.4-8.4 8.1" class="st3"/><path d="M63.5 41.7c1.5 0 2.7-1.1 2.7-2.5s-1.2-2.5-2.7-2.5-2.7 1.1-2.7 2.5 1.3 2.5 2.7 2.5m-9-17.7c.3-.9-.1-1.8-.9-2-.8-.3-1.6.2-1.9 1.1s.1 1.8.9 2c.8.3 1.6-.2 1.9-1.1" class="st1"/><path d="M23.8 39.8s.9.8 1.6.8 1.2-.7 1.2-.7-.2-1.2-1.4-.9c-1.1.3-1.4.8-1.4.8m-8.5 8.6c1.4 0 2.6-2.2 2.6-4.9s-1.2-4.9-2.6-4.9-2.6 2.2-2.6 4.9c-.1 2.7 1.1 4.9 2.6 4.9m39.9-12.8c-.2 0-.4-.1-.5-.3-2-6-7.9-10.2-14.3-10.2-6.2 0-11.9 3.9-14.1 9.8 0 .1-.3.2-.6.1s-.4-.4-.3-.6c2.3-6.2 8.4-10.4 15-10.4 6.8 0 13 4.5 15.2 10.9.1.3-.1.5-.3.6 0 0 0 .1-.1.1" class="st2"/><path d="M39.5 42.4c-3 0-5.4-2.4-5.4-5.4s2.4-5.4 5.4-5.4 5.4 2.4 5.4 5.4-2.4 5.4-5.4 5.4m0-9.9c-2.4 0-4.4 2-4.4 4.4s2 4.4 4.4 4.4 4.4-2 4.4-4.4-2-4.4-4.4-4.4" class="st2"/><path d="m40.1 37 2.5-.6c-.3-1.4-1.5-2.5-3-2.5-1.7 0-3.1 1.4-3.1 3.1s1.4 3.1 3.1 3.1c.9 0 1.7-.4 2.3-1zm15.3 9.8c-1.4 0-5.2-2-7.1-3.7-1-.9-1.4-1.6-1.4-2.3.1-2.3 6-5.3 7.2-5.9 1.2-.5 2.5-.1 3.2 1 1.3 1.9 2.9 5.7 0 9.9-.4.6-1 1-1.7 1.1-.1-.1-.2-.1-.2-.1m-.3-11.1c-.2 0-.4 0-.6.1-2.7 1.4-6.6 3.9-6.6 5.1 0 .2.1.6 1.1 1.5 2 1.8 5.8 3.5 6.5 3.4.4-.1.8-.3 1-.7 2.5-3.5 1.3-6.7 0-8.8-.4-.4-.9-.6-1.4-.6" class="st2"/><path d="M52.2 43c-.1 0-.2 0-.2-.1-.2-.1-.3-.4-.2-.7.5-1.1.3-2.5-.4-3.3-.2-.2-.2-.5 0-.7s.5-.2.7 0c1.1 1.2 1.3 3 .6 4.5-.1.2-.3.3-.5.3m-30 4.6c-.1 0-.3-.1-.4-.2-.2-.2-.1-.5.1-.7 2.2-1.8 3.9-1.1 5.1-.6.6.2 1 .4 1.4.3h.1c2.3-.2 2.7-4 2.7-6.3 0-2-.7-4-1.8-5-.3-.3-.9-.7-1.5-.7-.8 0-1.5.5-2.3 1.1-1 .7-2.3 1.5-4.2 1.9-.3.1-.5-.1-.6-.4s.1-.5.4-.6c1.7-.4 2.8-1.1 3.8-1.8.9-.6 1.8-1.2 2.9-1.2.8 0 1.6.3 2.3 1 1.3 1.2 2.1 3.4 2.1 5.7 0 4.4-1.2 7-3.5 7.2-.7.2-1.3-.1-2-.3-1.2-.5-2.4-1-4.1.4-.3.2-.4.2-.5.2" class="st2"/><path d="M27.3 41.1c-.2 0-.4-.1-.5-.4-.2-.7-.8-1.3-1.5-1.3-.3 0-.7.1-1 .4-.2.2-.3.5-.3.8s-.2.5-.5.5-.5-.2-.5-.5c0-.5.2-1.1.7-1.5s1.1-.7 1.7-.7c1.1.1 2.1.9 2.4 2 .1.3-.1.5-.3.6-.1.1-.2.1-.2.1" class="st2"/><path d="M25.4 41s-.1 0 0 0c-.8 0-1.4-.3-1.8-.8-.2-.2-.2-.5 0-.7s.5-.2.7 0c.2.3.6.4 1 .4s.8-.1 1-.4c.2-.2.5-.2.7 0s.2.5 0 .7c-.4.6-1 .8-1.6.8m-7.2 8.2c-.1 0-.3-.1-.4-.2-.2-.2-.2-.5 0-.7.4-.4.7-.9.9-1.4.2-.6.2-1.2.1-1.7-.1-.3.1-.5.3-.6.3-.1.5.1.6.3.2.7.2 1.6-.1 2.4q-.3 1.05-1.2 1.8c.1 0 0 .1-.2.1M58.5 57c-1.2 0-2.1-.5-3-1-1.8-1-4-2.2-9.5-.8-.3.1-.5-.1-.6-.4s.1-.5.4-.6c5.8-1.5 8.2-.2 10.2.9 1.3.7 2.2 1.2 3.8.7s2.5-1.8 2.8-3.8c.1-.4.1-.8.1-1.2.2-1.8.4-3.4 1.6-5.2.7-1 1.4-1.9 2.1-2.8.8-1 1.6-1.9 2.2-3 .6-1 .8-2.2.6-3.3-.3-1.1-1.1-2.1-2.1-2.6-.6-.3-1.3-.6-1.9-.9-1-.4-2-.9-2.9-1.4-2.3-1.4-3-3.6-3.6-5.7-.3-.9-.6-1.9-1.1-2.8-1-2-2.8-4.5-5.7-5.3-4.3-1.1-6.5 1.4-8.6 3.8-1.2 1.4-2.3 2.7-3.8 3.2q-.45.15-.6-.3t.3-.6c1.2-.4 2.3-1.7 3.4-2.9 2.1-2.4 4.7-5.4 9.6-4.1 2.6.7 4.8 2.7 6.3 5.8.5 1 .8 2 1.1 2.9.7 2 1.3 3.9 3.2 5.1.9.5 1.8.9 2.8 1.4.6.3 1.3.6 1.9.9 1.3.7 2.3 1.8 2.6 3.2.4 1.4.1 2.9-.7 4.1-.7 1.1-1.5 2.1-2.3 3L65 46c-1.1 1.6-1.2 3-1.4 4.7 0 .4-.1.8-.1 1.3-.3 2.4-1.5 4-3.5 4.6-.6.4-1.1.4-1.5.4" class="st2"/><path d="M54.6 33.6c-.2 0-.4-.2-.5-.4-.1-.3.1-.5.4-.6 3.7-.9 5.8-3.2 5.8-3.2.2-.2.5-.2.7 0s.2.5 0 .7c-.1.1-2.3 2.6-6.3 3.5zM15.3 48.9c-1.8 0-3.1-2.4-3.1-5.4s1.4-5.4 3.1-5.4c1.8 0 3.1 2.4 3.1 5.4s-1.4 5.4-3.1 5.4m0-9.8c-1 0-2.1 1.8-2.1 4.4s1.1 4.4 2.1 4.4 2.1-1.8 2.1-4.4-1.1-4.4-2.1-4.4" class="st2"/><path d="M14.9 53.3c-3 0-5.3-4.3-5.3-9.9s2.3-9.9 5.3-9.9c2 0 3.1 1.1 4.1 1.9.8.8 1.3 1.2 2.1 1 .3-.1.5.1.6.4s-.1.5-.4.6c-1.3.3-2.2-.5-3-1.3-.9-.8-1.8-1.7-3.4-1.7-2.4 0-4.3 4-4.3 8.9s1.9 8.9 4.3 8.9c2 0 3.1-1.3 4.5-2.9.7-.9 1.5-1.8 2.5-2.7.2-.2.5-.1.7.1s.1.5-.1.7c-.9.8-1.7 1.7-2.4 2.5-1.4 1.8-2.7 3.4-5.2 3.4M53 25.8c-.3 0-.7-.1-1-.3-.5-.3-.9-.8-1-1.4s0-1.2.3-1.7.8-.9 1.4-1.1 1.2-.1 1.7.2c1.1.6 1.4 2 .8 3.1-.6.8-1.4 1.2-2.2 1.2m.3-3.6c-.1 0-.3 0-.4.1-.3.1-.6.3-.8.7s-.2.7-.2 1c.1.3.3.6.5.7.6.3 1.3.1 1.7-.6s.2-1.4-.4-1.8c-.1-.1-.3-.1-.4-.1m10.1 20.1c-.5 0-1-.1-1.4-.3-.8-.4-1.4-1-1.6-1.8q-.45-1.2.3-2.4c.4-.7 1.1-1.3 2-1.6.8-.3 1.7-.2 2.5.1.8.4 1.4 1 1.6 1.8q.45 1.2-.3 2.4c-.4.7-1.1 1.3-2 1.6-.3.2-.7.2-1.1.2m.3-5.2c-.3 0-.5 0-.8.1-.6.2-1.1.6-1.4 1.1s-.4 1.1-.2 1.6.6.9 1.1 1.2c.5.2 1.2.3 1.8.1s1.1-.6 1.4-1.1.4-1.1.2-1.6-.6-.9-1.1-1.2c-.3-.1-.6-.2-1-.2M40 56.3c-6.6 0-12.3-3.7-15-9.9-.1-.3 0-.5.3-.7.3-.1.5 0 .7.3 2.6 5.8 7.9 9.3 14.1 9.3s11.7-3.6 14-9.3c.1-.3.4-.4.7-.3s.4.4.3.7c-2.6 6-8.4 9.9-15.1 9.9" class="st2"/></svg>