<?xml version="1.0" encoding="utf-8"?>
<!-- Generator: Adobe Illustrator 26.5.0, SVG Export Plug-In . SVG Version: 6.00 Build 0)  -->
<svg version="1.1" id="Layer_1" xmlns="http://www.w3.org/2000/svg" xmlns:xlink="http://www.w3.org/1999/xlink" x="0px" y="0px"
	 viewBox="0 0 80 80" style="enable-background:new 0 0 80 80;" xml:space="preserve">
<style type="text/css">
	.st0{fill:#28736D;}
	.st1{fill:#002140;}
	.st2{fill:#4BA6A6;}
	.st3{fill:#50EEF6;}
	.st4{fill:#CCF7FF;}
</style>
<g>
	<rect class="st0" width="80" height="80"/>
</g>
<g>
	<path class="st1" d="M39.9,72.4c-18,0-32.7-14.7-32.7-32.7C7.2,21.7,21.9,7,39.9,7c18,0,32.7,14.7,32.7,32.7
		C72.6,57.8,57.9,72.4,39.9,72.4z M39.9,8C22.4,8,8.2,22.3,8.2,39.7s14.2,31.7,31.7,31.7s31.7-14.2,31.7-31.7S57.4,8,39.9,8z"/>
</g>
<g>
	<path class="st2" d="M27.5,14.7c0,0-1.6,3.9-4.3,4.2c0,0,3.7,1.6,4,4c0,0,1.5-3.5,4.4-3.9C31.6,18.9,27.7,18.1,27.5,14.7L27.5,14.7
		z"/>
</g>
<g>
	<path class="st1" d="M27.1,24.2L27.1,24.2c-0.2,0-0.4-0.2-0.5-0.4c-0.8-2.9-1.3-3.4-4.2-4.2c-0.2-0.1-0.4-0.3-0.4-0.5
		s0.2-0.4,0.4-0.5c2.9-0.8,3.4-1.3,4.2-4.2c0.1-0.4,0.9-0.4,1,0c0.8,2.9,1.3,3.4,4.2,4.2c0.2,0.1,0.4,0.3,0.4,0.5s-0.2,0.4-0.4,0.5
		c-2.9,0.8-3.4,1.3-4.2,4.2C27.5,24,27.3,24.2,27.1,24.2z M24.3,19.2c1.5,0.6,2.3,1.3,2.9,2.9c0.6-1.5,1.3-2.3,2.9-2.9
		c-1.5-0.6-2.3-1.3-2.9-2.9C26.5,17.8,25.8,18.6,24.3,19.2z"/>
</g>
<g>
	<path class="st2" d="M55.5,14.7c0,0-1.6,3.9-4.3,4.2c0,0,3.7,1.6,4,4c0,0,1.5-3.5,4.4-3.9C59.7,18.9,55.8,18.1,55.5,14.7L55.5,14.7
		z"/>
</g>
<g>
	<path class="st1" d="M55.2,24.2c-0.2,0-0.4-0.2-0.5-0.4c-0.8-2.9-1.3-3.4-4.2-4.2c-0.2-0.1-0.4-0.3-0.4-0.5s0.2-0.4,0.4-0.5
		c2.9-0.8,3.4-1.3,4.2-4.2c0.1-0.2,0.3-0.4,0.5-0.4l0,0c0.2,0,0.4,0.2,0.5,0.4c0.8,2.9,1.3,3.4,4.2,4.2c0.2,0.1,0.4,0.3,0.4,0.5
		s-0.2,0.4-0.4,0.5c-2.9,0.8-3.4,1.3-4.2,4.2C55.6,24,55.4,24.2,55.2,24.2z M52.3,19.2c1.5,0.6,2.3,1.3,2.9,2.9
		c0.6-1.5,1.3-2.3,2.9-2.9c-1.5-0.6-2.3-1.3-2.9-2.9C54.6,17.8,53.9,18.6,52.3,19.2z"/>
</g>
<g>
	<path class="st2" d="M25.2,45.3c0,0-3.4-0.1-4.2,2.9c-0.8,3,0.7,4.8,2.3,5.6c0,0,0.5,0.4,1.5,0.3c1.1-0.1,1.9-0.5,1.9-0.5
		s5.2,10.1,17.6,10c12.4-0.1,17-5.9,17.8-11.6c0.8-5.6-0.5-10.5-3.3-14.9c-2.8-4.5-3.8-6-3.8-6l-21.3,0.3
		C33.7,31.3,25.1,38.1,25.2,45.3L25.2,45.3z"/>
</g>
<g>
	<path class="st1" d="M33.6,31.1c0,0,0.2,1,0.4,1c0.2,0,7.2,1.3,12.6,1.2c5.3-0.1,8.7-1.6,8.7-1.6l-8.9-13.9L43,12.3
		c0,0-1.8-2.4-2.7-0.1c-0.8,2.3-3.7,10.1-3.7,10.1L33.6,31.1z"/>
</g>
<g>
	<path class="st2" d="M20.7,49.5c0,0,0.4-2.4,1.3-3.1c0.9-0.7,3.1-1.1,3.1-1.1s1.1-5.4,2.8-7.5l5.5-6.2l-0.5-1.2
		c0,0-1.6-3.8-9.6-4.3c-7.9-0.5-11,8.8-11.1,10c-0.1,1.2,0.1,7.4,3,10.3C18.1,49.3,20.7,49.5,20.7,49.5L20.7,49.5z"/>
</g>
<g>
	<path class="st3" d="M25.2,45.3c0,0,1.1-0.1,1.7,0.6c0.6,0.7,2.5,3.5,4,3.7c0,0-0.6-4.5-0.1-6.6c0.5-2.1,2.3-4.3,2.9-5.1
		c0.6-0.8,3.4-3.8,3.3-5.3l-2.6-0.6l-1-0.4C33.4,31.5,26.7,36.2,25.2,45.3L25.2,45.3z"/>
</g>
<g>
	<path class="st3" d="M28,37.7c0,0,4.3-5.4,5.5-6.2l0.3-1c0,0-4.2-0.5-5.4,1.6C27.2,34.3,27.2,35.8,28,37.7L28,37.7z"/>
</g>
<g>
	<path class="st4" d="M42.4,43.9c2,0,3.7-2,3.7-4.4s-1.7-4.4-3.7-4.4c-2,0-3.7,2-3.7,4.4S40.4,43.9,42.4,43.9z"/>
</g>
<g>
	<path class="st4" d="M51.9,43.2c1-0.8,1.6-2.1,1.6-3.7c0-2.4-1.6-4.4-3.7-4.4c-2,0-3.7,2-3.7,4.4c0,0.5,0.1,0.9,0.2,1.3
		c0,0,1.4,1.7,2,1.9c0.6,0.1,2.3,0.3,2.3,0.3"/>
</g>
<g>
	<path class="st4" d="M41.8,50.3l-0.5,1.2c0,0,2,4.3,7.4,3.8c5.4-0.5,6.3-4.5,6.3-4.5l-0.7-1c0,0-3.2,2-6.2,1.8
		C44.9,51.3,41.8,50.3,41.8,50.3L41.8,50.3z"/>
</g>
<g>
	<path class="st1" d="M41.8,50.3c0,0,5.2,1.2,6.8,1.2s5.5-1.8,5.5-1.8s-2-2.2-3.6-1.9c-1.6,0.3-2.5,1.7-2.5,1.7S46.3,48,45.1,48
		C43.9,48,41.9,49.9,41.8,50.3L41.8,50.3z"/>
</g>
<g>
	<path class="st1" d="M41.3,52.7c0,0,0.9,5.3,7,5.5c6.2,0.2,6.3-6.7,6.3-6.7s-2.3,3.9-6.4,3.8C44.1,55.1,41.3,52.7,41.3,52.7
		L41.3,52.7z"/>
</g>
<g>
	<path class="st3" d="M23.1,59.3c0,0,0.5,0,0.5-0.5l0.1-0.5l0.7,0.2l0.7-0.4l0.7,1l0.5,0.1l0.2-1.4l0.2-1.2c0,0,0.1-0.9-0.3-1.1
		c-0.5-0.2-1.6-0.1-1.6-0.1l-1.6-0.1c0,0-0.7,0.3-0.7,0.5s0.1,1.8,0.1,1.8L23.1,59.3L23.1,59.3z"/>
</g>
<g>
	<path class="st0" d="M24.7,55.3c0.5,0,0.9-0.4,0.9-0.9c0-0.5-0.4-0.9-0.9-0.9s-0.9,0.4-0.9,0.9C23.8,54.9,24.2,55.3,24.7,55.3z"/>
</g>
<g>
	<path class="st1" d="M45,64c-11.7,0-16.6-6.3-18.4-10.1c-0.1-0.2,0-0.5,0.2-0.7c0.2-0.1,0.5,0,0.7,0.2C29.2,57,33.8,63,45,63
		c14.9,0,17.1-9.3,17.1-14.9c0-5.6-3.5-10.7-5.6-13.8c-0.7-1.1-1.3-1.9-1.5-2.4c-0.1-0.3,0-0.5,0.3-0.7c0.3-0.1,0.5,0,0.6,0.3
		c0.2,0.5,0.7,1.2,1.4,2.2c2.1,3.2,5.7,8.4,5.7,14.3C63.1,52.8,61.3,64,45,64z"/>
</g>
<g>
	<path class="st1" d="M25.2,45.5C25.2,45.5,25.2,45.5,25.2,45.5c-0.3,0-0.5-0.3-0.5-0.5c0.6-7.6,8.2-13.8,8.6-14.1
		c0.2-0.2,0.5-0.1,0.7,0.1c0.2,0.2,0.1,0.5-0.1,0.7c-0.1,0.1-7.7,6.2-8.2,13.4C25.7,45.3,25.5,45.5,25.2,45.5z"/>
</g>
<g>
	<path class="st1" d="M42.4,44.6c-2.3,0-4.2-2.3-4.2-5.1s1.9-5.1,4.2-5.1c2.3,0,4.2,2.3,4.2,5.1S44.7,44.6,42.4,44.6z M42.4,35.4
		c-1.8,0-3.2,1.8-3.2,4.1c0,2.2,1.4,4.1,3.2,4.1c1.8,0,3.2-1.8,3.2-4.1C45.6,37.3,44.1,35.4,42.4,35.4z"/>
</g>
<g>
	<path class="st1" d="M42.4,36.7c-1.1,0-2.1,0.7-2.5,1.8l2.5,0.9l-2.3,1.3c0.4,0.8,1.3,1.4,2.3,1.4c1.5,0,2.6-1.2,2.6-2.6
		S43.8,36.7,42.4,36.7L42.4,36.7z"/>
</g>
<g>
	<path class="st1" d="M38.8,37c-1.5,0-2.1-1-2.3-1.6c-0.1-0.3,0.1-0.5,0.4-0.6c0.3-0.1,0.5,0.1,0.6,0.4c0,0.2,0.4,1.1,1.8,0.8
		c0.3,0,0.5,0.1,0.6,0.4s-0.1,0.5-0.4,0.6C39.2,37,39,37,38.8,37z"/>
</g>
<g>
	<path class="st1" d="M37.9,38.9c-0.8,0-1.6-0.6-2.1-1c-0.2-0.2-0.2-0.5,0-0.7c0.2-0.2,0.5-0.2,0.7,0c0,0,1.1,1.1,1.8,0.6
		c0.2-0.2,0.5-0.1,0.7,0.1c0.2,0.2,0.1,0.5-0.1,0.7C38.6,38.8,38.3,38.9,37.9,38.9z"/>
</g>
<g>
	<path class="st1" d="M52.1,43.7c-0.1,0-0.3-0.1-0.4-0.2c-0.2-0.2-0.2-0.5,0-0.7c0.8-0.8,1.4-2,1.4-3.3c0-2.2-1.4-4.1-3.2-4.1
		c-1.8,0-3.2,1.8-3.2,4.1c0,0.2,0,0.3,0,0.5c0,0.3-0.2,0.5-0.5,0.5c-0.3,0-0.5-0.2-0.5-0.4c0-0.2,0-0.4,0-0.6c0-2.8,1.9-5.1,4.2-5.1
		c2.3,0,4.2,2.3,4.2,5.1c0,1.6-0.6,3.1-1.7,4.1C52.4,43.6,52.2,43.7,52.1,43.7z"/>
</g>
<g>
	<path class="st1" d="M49.8,36.7c-1.1,0-2.1,0.7-2.5,1.8l2.5,0.9l-2.3,1.3c0.4,0.8,1.3,1.4,2.3,1.4c1.5,0,2.6-1.2,2.6-2.6
		S51.3,36.7,49.8,36.7L49.8,36.7z"/>
</g>
<g>
	<path class="st1" d="M52.9,36.9c-0.1,0-0.2,0-0.2,0c-0.3,0-0.5-0.3-0.5-0.5s0.3-0.5,0.5-0.5c0,0,1.4,0.1,1.5-0.7
		c0-0.3,0.3-0.5,0.6-0.4c0.3,0,0.5,0.3,0.4,0.6C55,36.6,53.8,36.9,52.9,36.9z"/>
</g>
<g>
	<path class="st1" d="M53.7,38.5c-0.1,0-0.2,0-0.2,0c-0.3,0-0.5-0.3-0.5-0.5c0-0.3,0.3-0.5,0.5-0.5c0,0,1.4,0.1,1.5-0.7
		c0-0.3,0.3-0.5,0.6-0.4c0.3,0,0.5,0.3,0.4,0.6C55.8,38.2,54.6,38.5,53.7,38.5z"/>
</g>
<g>
	<path class="st1" d="M49.2,46.8c-0.4,0-0.9,0-1.3-0.1c-0.4,0-0.9-0.1-1.3-0.4c-0.4-0.3-0.7-1-0.4-1.6c0.2-0.3,0.4-0.4,0.7-0.5
		c0.4-0.1,0.9,0,1.3,0.2c0.2,0.1,0.3,0.5,0.2,0.7c-0.1,0.2-0.5,0.3-0.7,0.2c-0.2-0.1-0.4-0.1-0.5-0.1c-0.1,0.1-0.1,0.3,0.1,0.3
		c0.2,0.1,0.5,0.2,0.8,0.2c0.7,0.1,1.4,0.1,2.1,0c0.5,0,1.1-0.1,1.6-0.5c0.3-0.3,0.6-0.7,0.5-1.1c-0.2-0.4-0.8-0.6-1.3-0.7
		c-0.7-0.1-1.4,0-2.1-0.1c-1.5-0.4-2.4-1.7-3.2-3c-0.1-0.2-0.1-0.5,0.2-0.7c0.2-0.1,0.5-0.1,0.7,0.2c0.7,1.1,1.4,2.3,2.5,2.6
		c0.6,0.1,1.3,0.1,2,0.1c1,0.1,1.8,0.6,2.1,1.3c0.3,0.9-0.1,1.8-0.8,2.3c-0.7,0.5-1.5,0.6-2.1,0.7C49.9,46.8,49.6,46.8,49.2,46.8z"
		/>
</g>
<g>
	<path class="st1" d="M48.1,61.1c-3.7,0-6.8-1.6-7-1.7c-0.2-0.1-0.3-0.4-0.2-0.7c0.1-0.2,0.4-0.3,0.7-0.2c0.1,0,7.4,3.9,12.7-0.5
		c0.2-0.2,0.5-0.1,0.7,0.1s0.1,0.5-0.1,0.7C52.7,60.5,50.3,61.1,48.1,61.1z"/>
</g>
<g>
	<path class="st1" d="M48.3,55.6C48.3,55.6,48.3,55.6,48.3,55.6c-5.5,0-7.7-3.7-7.8-3.9c-0.1-0.1-0.1-0.3,0-0.5
		c0.1-0.2,1.9-3.8,4.3-3.8c1.6,0,2.6,0.7,3.2,1.3c0.5-0.7,1.4-1.5,3-1.5c2.4,0,4.4,3.1,4.5,3.2c0.1,0.1,0.1,0.3,0.1,0.4
		C55.4,50.9,53.9,55.6,48.3,55.6z M41.5,51.5c0.5,0.8,2.6,3.1,6.8,3.1c0,0,0,0,0.1,0c4.2,0,5.7-3,6-3.8c-0.6-0.9-2.1-2.5-3.5-2.5
		c-1.8,0-2.4,1.5-2.4,1.6c-0.1,0.2-0.2,0.3-0.4,0.3c-0.2,0-0.4-0.1-0.5-0.2c0-0.1-1-1.5-2.8-1.5C43.4,48.5,42.1,50.5,41.5,51.5z"/>
</g>
<g>
	<path class="st1" d="M48.1,52.1c-3.4,0-6.1-1.4-6.3-1.5c-0.2-0.1-0.3-0.4-0.2-0.7c0.1-0.2,0.4-0.3,0.7-0.2c0.1,0,6.2,3.2,11.3-0.3
		c0.2-0.2,0.5-0.1,0.7,0.1c0.2,0.2,0.1,0.5-0.1,0.7C52.1,51.7,50,52.1,48.1,52.1z"/>
</g>
<g>
	<path class="st1" d="M48.2,58.6c-6.6,0-7.7-6.9-7.8-7c0-0.3,0.1-0.5,0.4-0.6c0.3,0,0.5,0.1,0.6,0.4c0,0.3,1,6.2,6.8,6.2
		c5.7,0,6.2-6.6,6.2-6.9c0-0.3,0.3-0.5,0.5-0.5c0.3,0,0.5,0.3,0.5,0.5C55.4,50.8,54.8,58.6,48.2,58.6z"/>
</g>
<g>
	<path class="st1" d="M48.1,55.3c-0.3,0-0.5-0.2-0.5-0.5v-3.1c0-0.3,0.2-0.5,0.5-0.5s0.5,0.2,0.5,0.5v3.1
		C48.6,55.1,48.4,55.3,48.1,55.3z"/>
</g>
<g>
	<path class="st1" d="M44.6,54.6c-0.3,0-0.5-0.2-0.5-0.4c-0.1-1.4,0.3-2.9,0.3-3c0.1-0.3,0.3-0.4,0.6-0.3c0.3,0.1,0.4,0.4,0.3,0.6
		c0,0-0.4,1.4-0.3,2.6C45.1,54.4,44.9,54.6,44.6,54.6C44.6,54.6,44.6,54.6,44.6,54.6z"/>
</g>
<g>
	<path class="st1" d="M51.9,54.5C51.9,54.5,51.9,54.5,51.9,54.5c-0.3,0-0.5-0.2-0.5-0.5c0-1.2-0.6-2.6-0.6-2.6
		c-0.1-0.2,0-0.5,0.2-0.7c0.2-0.1,0.5,0,0.7,0.2c0,0.1,0.8,1.6,0.7,3.1C52.4,54.3,52.2,54.5,51.9,54.5z"/>
</g>
<g>
	<path class="st1" d="M25.9,54.5c-0.2,0-0.4-0.1-0.5-0.4c-0.1-0.3,0.1-0.5,0.3-0.6c0.1,0,0.1,0,0.2-0.1c0.3-0.1,0.6-0.3,0.8-0.5
		c0.6-0.4,1.3-0.9,2.4-0.4c0.3,0.1,0.4,0.4,0.3,0.6c-0.1,0.3-0.4,0.4-0.6,0.3c-0.7-0.2-1,0-1.6,0.3c-0.3,0.2-0.6,0.4-1,0.6
		c-0.1,0-0.2,0.1-0.3,0.1C26,54.5,25.9,54.5,25.9,54.5z"/>
</g>
<g>
	<path class="st1" d="M23.6,54.3c-0.1,0-0.1,0-0.2,0c-0.5-0.2-1-0.5-1.5-0.8c-1.4-1.2-1.9-3-1.5-4.9c0.5-1.9,1.8-3.3,3.4-3.7
		c1.5-0.4,2.9,0.1,4,1.4c0.2,0.2,0.4,0.5,0.6,0.7c0.6,0.7,1.2,1.5,1.9,1.9c-1.4-6.5,1.4-9.7,3.7-12.2c1.2-1.4,2.3-2.5,2.5-4
		c0-0.3,0.3-0.5,0.6-0.4c0.3,0,0.5,0.3,0.4,0.6c-0.2,1.8-1.4,3.1-2.7,4.5c-2.3,2.6-5,5.5-3.3,12.1c0,0.1,0,0.3-0.1,0.4
		C31.3,49.9,31.2,50,31,50c-1.4,0-2.5-1.4-3.4-2.4c-0.2-0.2-0.4-0.5-0.5-0.7c-0.9-1-2-1.4-3-1.1c-1.3,0.3-2.3,1.5-2.7,3
		c-0.4,1.5,0.1,3,1.2,3.9c0.3,0.3,0.7,0.5,1.2,0.7c0.3,0.1,0.4,0.4,0.3,0.6C24,54.2,23.8,54.3,23.6,54.3z"/>
</g>
<g>
	<path class="st1" d="M45.3,33.7c-5,0-9.4-0.8-11.1-1.2c-0.4-0.1-0.7-0.3-0.9-0.6c-0.2-0.3-0.2-0.7-0.1-1c0.9-3.1,6.5-18.2,6.7-18.9
		c0.1-0.1,0.6-1.3,1.6-1.4c0.7-0.1,1.4,0.4,2,1.4c1.6,2.6,12.4,19.2,12.5,19.4c0.1,0.1,0.1,0.2,0.1,0.3c0,0.2-0.1,0.4-0.3,0.5
		C52.3,33.3,48.7,33.7,45.3,33.7z M41.5,11.6C41.5,11.6,41.5,11.6,41.5,11.6c-0.3,0-0.6,0.5-0.7,0.8C40.7,12.5,35,28,34.1,31.1
		c0,0.1,0,0.2,0,0.3c0,0.1,0.1,0.1,0.2,0.2c2.9,0.6,12.6,2.5,20.4-0.1C52.8,28.5,44,14.9,42.6,12.6C42.2,11.9,41.8,11.6,41.5,11.6z"
		/>
</g>
<g>
	<path class="st1" d="M27.5,50.4C27.5,50.4,27.5,50.4,27.5,50.4c-1.8-0.2-3.4-1.2-4.4-2.7c-0.1-0.2-0.1-0.5,0.2-0.7
		c0.2-0.1,0.5-0.1,0.7,0.2c0.8,1.2,2.1,2.1,3.6,2.2c0.3,0,0.5,0.3,0.5,0.5C28,50.2,27.7,50.4,27.5,50.4z"/>
</g>
<g>
	<path class="st1" d="M24.8,51.9c-0.3,0-0.5-0.2-0.5-0.4c-0.1-0.9,0.3-1.9,1-2.4c0.2-0.2,0.5-0.1,0.7,0.1c0.2,0.2,0.1,0.5-0.1,0.7
		c-0.4,0.3-0.7,1-0.6,1.5C25.3,51.6,25.1,51.9,24.8,51.9C24.8,51.9,24.8,51.9,24.8,51.9z"/>
</g>
<g>
	<path class="st1" d="M24.7,55.9c-0.9,0-1.6-0.7-1.6-1.6c0-0.9,0.7-1.6,1.6-1.6s1.6,0.7,1.6,1.6C26.3,55.2,25.6,55.9,24.7,55.9z
		 M24.7,53.8c-0.3,0-0.6,0.3-0.6,0.6s0.3,0.6,0.6,0.6s0.6-0.3,0.6-0.6S25,53.8,24.7,53.8z"/>
</g>
<g>
	<path class="st1" d="M23.2,59.8c-0.5,0-0.9-0.4-1-1c0-0.2,0-0.4,0-0.6c0-0.2,0-0.4,0-0.6c0-0.1-0.1-0.3-0.1-0.4
		c-0.1-0.3-0.3-0.7-0.2-1.2c0.1-0.5,0.5-1,1-1.2c0.4-0.2,0.9-0.2,1.5,0c0.3,0.1,0.4,0.4,0.3,0.6c-0.1,0.3-0.4,0.4-0.6,0.3
		c-0.3-0.1-0.6-0.1-0.8,0c-0.2,0.1-0.4,0.3-0.4,0.4c0,0.2,0.1,0.4,0.2,0.7c0.1,0.2,0.1,0.4,0.2,0.6c0.1,0.3,0.1,0.5,0.1,0.8
		c0,0.1,0,0.1,0,0.2c0,0,0-0.1,0-0.1c0.1-0.2,0.2-0.4,0.5-0.6c0.2-0.1,0.4-0.1,0.6,0c0.1,0,0.2,0.1,0.2,0.2c0,0,0,0,0,0
		c0.2-0.1,0.4-0.2,0.6-0.2c0.3,0,0.5,0.2,0.6,0.5c0.1,0.1,0.1,0.2,0.1,0.3c0,0,0-0.1,0-0.1c-0.1-0.6,0-1.2,0.2-1.8l0.1-0.1
		c0-0.1,0.1-0.1,0.1-0.2c0-0.1,0-0.3-0.2-0.4c-0.2-0.1-0.4-0.2-0.6-0.1c-0.3,0.1-0.5-0.1-0.6-0.4c-0.1-0.3,0.1-0.5,0.4-0.6
		c0.5-0.1,1,0,1.4,0.3c0.5,0.3,0.7,0.9,0.5,1.5c0,0.2-0.1,0.3-0.2,0.4c-0.2,0.5-0.3,0.9-0.2,1.3c0.1,0.4,0.2,1.1-0.4,1.5
		c-0.2,0.1-0.5,0.2-0.7,0.1c-0.3-0.1-0.5-0.3-0.7-0.6c0-0.1-0.1-0.2-0.1-0.3c-0.2,0.2-0.4,0.2-0.6,0.2c-0.1,0-0.2,0-0.2-0.1
		c0,0,0,0,0,0C24,59.5,23.6,59.8,23.2,59.8C23.2,59.8,23.2,59.8,23.2,59.8z M24.2,58.5C24.2,58.5,24.2,58.5,24.2,58.5
		S24.2,58.5,24.2,58.5z"/>
</g>
<g>
	<path class="st1" d="M20.8,50.2c0,0-0.1,0-0.1,0c-5.3-1.5-8.9-6.5-8.9-12.2c0-7,5.5-12.6,12.2-12.6c3.8,0,7.1,1.6,9.5,4.6
		c0.2,0.2,0.1,0.5-0.1,0.7c-0.2,0.2-0.5,0.1-0.7-0.1c-2.2-2.7-5.3-4.2-8.7-4.2c-6.2,0-11.2,5.2-11.2,11.6c0,5.2,3.4,9.8,8.2,11.2
		c0.3,0.1,0.4,0.4,0.3,0.6C21.2,50.1,21,50.2,20.8,50.2z"/>
</g>
<g>
	<path class="st1" d="M28,38.2c-0.2,0-0.3-0.1-0.4-0.2c-1.1-1.7-1.1-4,0.1-5.8c1.4-2.1,3.9-3,6.1-2.2c0.3,0.1,0.4,0.4,0.3,0.6
		c-0.1,0.3-0.4,0.4-0.6,0.3c-1.7-0.7-3.8,0.1-4.9,1.8c-1,1.5-1,3.4-0.1,4.7c0.2,0.2,0.1,0.5-0.1,0.7C28.2,38.2,28.1,38.2,28,38.2z"
		/>
</g>
<g>
	<path class="st1" d="M28.3,32.2c-0.1,0-0.2,0-0.3-0.1c0,0-1.7-1.6-4.5-1.6c-0.3,0-0.5-0.2-0.5-0.5c0-0.3,0.3-0.5,0.5-0.5
		c3.2,0.1,5.1,1.8,5.2,1.9c0.2,0.2,0.2,0.5,0,0.7C28.6,32.1,28.4,32.2,28.3,32.2z"/>
</g>
<g>
	<path class="st1" d="M26,34.9c-0.9,0-2.3-0.1-3.6-0.7c-0.3-0.1-0.4-0.4-0.3-0.7c0.1-0.3,0.4-0.4,0.7-0.3c2.2,0.9,4.4,0.6,4.4,0.5
		c0.3,0,0.5,0.1,0.6,0.4c0,0.3-0.1,0.5-0.4,0.6C27.3,34.8,26.8,34.9,26,34.9z"/>
</g>
<g>
	<path class="st1" d="M22.7,41.1c-0.3,0-0.5-0.2-0.5-0.5c0-3.2,3.3-4.6,5-4.9c0.3-0.1,0.5,0.1,0.6,0.4c0,0.3-0.1,0.5-0.4,0.6
		c-0.2,0-4.2,0.8-4.2,3.9C23.2,40.9,23,41.1,22.7,41.1z"/>
</g>
<g>
	<path class="st3" d="M43,20l1.5,3.1l3.4,0.5L45.4,26l0.6,3.4l-3-1.6l-3,1.6l0.6-3.4L38,23.6l3.4-0.5L43,20z"/>
</g>
<g>
	<path class="st1" d="M46.5,30.3c-0.1,0-0.2,0-0.2-0.1l-3.2-1.6l-3.2,1.6c-0.2,0.1-0.4,0.1-0.5,0c-0.2-0.1-0.2-0.3-0.2-0.5l0.6-3.4
		l-2.5-2.4c-0.1-0.1-0.2-0.3-0.1-0.5c0.1-0.2,0.2-0.3,0.4-0.3l3.5-0.5l1.6-3.1c0.1-0.2,0.3-0.3,0.4-0.3l0,0c0.2,0,0.4,0.1,0.4,0.3
		l1.6,3.1l3.5,0.5c0.2,0,0.3,0.2,0.4,0.3c0.1,0.2,0,0.4-0.1,0.5l-2.5,2.4l0.6,3.4c0,0.2,0,0.4-0.2,0.5
		C46.7,30.3,46.6,30.3,46.5,30.3z M43.1,27.6c0.1,0,0.2,0,0.2,0.1l2.5,1.3l-0.5-2.7c0-0.2,0-0.3,0.1-0.5l2-1.9l-2.8-0.4
		c-0.2,0-0.3-0.1-0.4-0.3l-1.2-2.4l-1.2,2.4c-0.1,0.1-0.2,0.2-0.4,0.3l-2.8,0.4l2,1.9c0.1,0.1,0.2,0.3,0.1,0.5l-0.5,2.7l2.5-1.3
		C42.9,27.6,43,27.6,43.1,27.6z"/>
</g>
</svg>
