<svg xmlns="http://www.w3.org/2000/svg" xml:space="preserve" id="Layer_1" x="0" y="0" viewBox="0 0 80 80"><style>.st0{fill:#50eef6}.st1{fill:#4ba6a6}.st2{fill:#002140}.st3{fill:#ccf7ff}</style><path d="M0 0h80v80H0z" class="st0"/><path d="M21.5 53.6s-1.6 3.9-4.3 4.2c0 0 3.7 1.6 4 4 0 0 1.5-3.5 4.4-3.9 0-.1-3.9-1-4.1-4.3m41.1-26.7s-1.6 3.9-4.3 4.2c0 0 3.7 1.6 4 4 0 0 1.5-3.5 4.4-3.9.1-.1-3.8-.9-4.1-4.3" class="st1"/><path d="M39.9 72.4c-18 0-32.7-14.7-32.7-32.7S21.9 7 39.9 7s32.7 14.7 32.7 32.7c0 18.1-14.7 32.7-32.7 32.7m0-64.4C22.4 8 8.2 22.3 8.2 39.7s14.2 31.7 31.7 31.7 31.7-14.2 31.7-31.7S57.4 8 39.9 8" class="st2"/><path d="M62.5 36.1c-.2 0-.4-.2-.5-.4-.8-2.9-1.3-3.4-4.2-4.2-.2-.1-.4-.3-.4-.5s.2-.4.4-.5c2.9-.8 3.4-1.3 4.2-4.2.1-.2.3-.4.5-.4s.4.2.5.4c.8 2.9 1.3 3.4 4.2 4.2.2.1.4.3.4.5s-.2.4-.4.5c-2.9.8-3.4 1.3-4.2 4.2 0 .3-.2.4-.5.4m-2.8-5c1.5.6 2.3 1.3 2.9 2.9.6-1.5 1.3-2.3 2.9-2.9-1.5-.6-2.3-1.3-2.9-2.9-.6 1.6-1.4 2.3-2.9 2.9m-38.6 32c-.2 0-.4-.2-.5-.4-.8-2.9-1.3-3.4-4.2-4.2-.2-.1-.4-.3-.4-.5s.2-.4.4-.5c2.9-.8 3.4-1.3 4.2-4.2.1-.4.9-.4 1 0 .8 2.9 1.3 3.4 4.2 4.2.2.1.4.3.4.5s-.2.4-.4.5c-2.9.8-3.4 1.3-4.2 4.2-.1.2-.3.4-.5.4M18.2 58c1.5.6 2.3 1.3 2.9 2.9.6-1.5 1.3-2.3 2.9-2.9-1.5-.6-2.3-1.3-2.9-2.9-.6 1.6-1.3 2.3-2.9 2.9" class="st2"/><path d="M54.1 59.7V29.8s-2-9.5-8.5-10.9c-5.6-1.9-10.1-.2-12.3.9 0 0-4.7 16.9-4.5 22.9s.3 13.8 0 15.5" class="st1"/><path d="m30.7 59.7 9.4 2 6.1-.1s3.9-.9 7.9-1.9v-8.2s-13.8 4.7-24.9-.9l-.3 7.6z" class="st2"/><path d="m29 55.6.1-5-6-3.2-.1-5.8 1.5-1.5s2.2 2.2 4.3 2.5l.1 2.2 10.6.5 7.1-8.9-.7-17.5s-5.3-2.5-11.7.7c0 0-6.5.4-8 2.5l-3.4-.2-3.6 3.4-.2 23.6z" class="st1"/><path d="M32.8 43.5c6.5 0 11.7-5.2 11.7-11.7s-5.2-11.7-11.7-11.7-11.7 5.2-11.7 11.7 5.3 11.7 11.7 11.7" class="st0"/><path d="M25.4 41s3-.8 3.6-2.1c0 0-6.1-4.7-2.5-11.5l-.1-.7s-1.8-2-2.1-3c0 0-3.6 3.2-3.2 8.2.4 4.8 3.3 8 4.3 9.1m11-16.7s4 1.9 4.7 5.9-2 6.9-2 6.9 2.2 1.8 2.5 2.6c0 0 3.9-4.1 3.2-9.5s-4.5-7.8-4.5-7.8-3.4-.9-3.9 1.9" class="st2"/><path d="M50.2 33.7c1.3 0 2.3-1 2.3-2.3s-1-2.3-2.3-2.3-2.3 1-2.3 2.3 1 2.3 2.3 2.3" class="st3"/><path d="M49.1 46.7s2.1-5.5 5.3-5.9c0 0-.8-3.4-2.9-3.4 0-.1-5.4 3.4-2.4 9.3" class="st2"/><path d="M33.2 39.8c4.4 0 8-3.6 8-8s-3.6-8-8-8-8 3.6-8 8 3.6 8 8 8" class="st3"/><path d="m28.6 20.5 5.1-.5s-.9-2.5-3-2.3c-2 .2-2.1 2.8-2.1 2.8m25.7 20.1s-4.1 1.4-5 6.4c0 0 7.6 2.6 9.1.3z" class="st2"/><path d="M55.9 48.5c-2.1 0-4.9-.5-6.9-.9-.1 0-.2-.1-.3-.2s-.1-.3-.1-.4c0-.2.9-5.5 5.5-6.9.2-.1.4 0 .5.2 1.5 1.8 4.8 6 4 7.5-.2.5-1.3.7-2.7.7m-6.2-1.8c4 .8 7.7 1 8.1.5.3-.5-1.4-3.3-3.7-6.1-3 1.2-4.1 4.4-4.4 5.6" class="st2"/><path d="M49.1 47.6c-.2 0-.3-.1-.4-.3-3.4-6.1 2.2-10.5 2.3-10.5.1-.1.2-.1.3-.1 2.6-.1 3.4 2.5 3.5 3.8 0 .3-.2.5-.5.5s-.5-.2-.5-.5c0-.1-.2-2.8-2.3-2.9-.8.7-4.6 4.2-1.9 9.1.1.2 0 .5-.2.7-.1.2-.2.2-.3.2m-16-3.6c-6.8 0-12.3-5.5-12.3-12.3s5.5-12.3 12.3-12.3 12.3 5.5 12.3 12.3S39.8 44 33.1 44m0-23.6c-6.2 0-11.3 5.1-11.3 11.3S26.8 43 33.1 43s11.3-5 11.3-11.3-5.1-11.3-11.3-11.3m17 13.9c-1.6 0-3-1.3-3-3 0-1.6 1.3-3 3-3 1.6 0 3 1.3 3 3 0 1.6-1.4 3-3 3m0-5c-1.1 0-2 .9-2 2s.9 2 2 2 2-.9 2-2-.9-2-2-2" class="st2"/><path d="M39 45.9h-.1l-9.5-.6c-.3 0-.5-.3-.5-.5s.3-.5.5-.5l9.5.6c.4 0 .8-.2 1-.5l5.8-7.9c.2-.2.2-.5.2-.7l-.4-16.4c0-.3.2-.5.5-.5s.5.2.5.5l.4 16.4c0 .5-.1 1-.4 1.4L40.7 45c-.4.5-1 .9-1.7.9" class="st2"/><path d="M54 39.5c-.3 0-.5-.2-.5-.5v-8c0-7-5.7-12.7-12.7-12.7-2.6 0-5.1.7-7.1 1.9-.2.1-.5.1-.7-.2-.1-.2-.1-.5.2-.7 2.2-1.3 4.8-2 7.6-2 7.5 0 13.7 6.1 13.7 13.7v8c0 .3-.2.5-.5.5M42.2 62.1c-2.7 0-5-.3-6.8-.7-4.5-1-7-2.6-7.1-2.7-.2-.1-.2-.3-.2-.5.5-5.1.6-10 .3-15.1 0-.3.2-.5.5-.5s.5.2.5.5c.4 5 .3 9.9-.2 15 1.6.9 11 5.7 24.4 1.2V46.6c0-.3.2-.5.5-.5s.5.2.5.5v12.9c0 .2-.1.4-.3.5-4.6 1.6-8.7 2.1-12.1 2.1" class="st2"/><path d="M33.1 40.2c-4.7 0-8.5-3.8-8.5-8.5s3.8-8.5 8.5-8.5 8.5 3.8 8.5 8.5-3.8 8.5-8.5 8.5m0-16.1c-4.1 0-7.5 3.4-7.5 7.5s3.4 7.5 7.5 7.5 7.5-3.4 7.5-7.5-3.4-7.5-7.5-7.5" class="st2"/><path d="M26.3 27.1c-.1 0-.2 0-.3-.1-1.1-.7-1.9-2-2.1-3.3 0-.3.2-.5.4-.6.3 0 .5.2.6.4.1 1 .7 2 1.6 2.6.2.2.3.5.1.7 0 .2-.2.3-.3.3m-.5 14.3c-.3 0-.5-.2-.5-.5s.2-.5.5-.5c1.2-.1 2.3-.8 2.8-1.9.1-.2.4-.3.7-.2.2.1.4.4.2.7-.7 1.3-2.2 2.3-3.7 2.4m15.8-1c-.2 0-.4-.2-.5-.4-.3-1-1.1-1.9-2.1-2.3-.3-.1-.4-.4-.3-.6.1-.3.4-.4.6-.3 1.3.4 2.4 1.6 2.8 3 .1.3-.1.5-.4.6zm-5.5-16c-.1 0-.2 0-.3-.1-.2-.2-.2-.5-.1-.7 1.1-1.3 2.8-2 4.5-1.8.3 0 .5.3.4.6 0 .3-.3.5-.6.4-1.3-.2-2.7.4-3.6 1.4 0 .2-.1.2-.3.2m14.4 6.9.8-.4c-.1-.5-.6-.8-1.1-.8-.6 0-1.2.5-1.2 1.2 0 .6.5 1.2 1.2 1.2.5 0 .8-.3 1-.6zM28.6 55.7c-.1 0-.2 0-.3-.1l-9.1-5.7c-.5-.3-.8-.9-.8-1.4v-8.8c0-.5.2-.9.5-1.2l2.6-2.5c.2-.2.5-.2.7 0s.2.5 0 .7l-2.6 2.5c-.1.1-.2.3-.2.5v8.8c0 .2.1.5.3.6l9.1 5.7c.2.1.3.5.2.7 0 .1-.2.2-.4.2" class="st2"/><path d="M29 51.6c-.1 0-.2 0-.3-.1l-5.5-3.3c-.5-.3-.9-.9-.9-1.5v-5c0-.5.2-1 .6-1.3l1-.8c.2-.2.5-.2.7 0s.2.5 0 .7l-1 .8c-.2.1-.2.3-.2.5v5c0 .3.1.5.4.6l5.5 3.3c.2.1.3.4.2.7s-.3.4-.5.4m-.2-30.5c-.2 0-.4-.2-.5-.4s-.1-.5-.1-.7c0-1.6 1.3-2.9 2.9-2.9 1.4 0 2.5 1 2.8 2.3.1.3-.1.5-.4.6-.2.1-.5 0-.5-.3-.2-.9-1-1.5-1.8-1.5-1 0-1.9.8-1.9 1.9 0 .1 0 .3.1.4.1.3-.1.5-.4.6zM19 39.9c-.3 0-.5-.2-.5-.5V25.8c0-.5.2-.9.5-1.3l2.4-2.4c.3-.3.8-.5 1.3-.5H26c.3 0 .5.2.5.5s-.2.5-.5.5h-3.3c-.2 0-.4.1-.6.2l-2.4 2.4c-.2.2-.2.4-.2.6v13.6c0 .3-.2.5-.5.5m15.4-8.1 3.6-1.7c-.6-2-2.5-3.5-4.7-3.5-2.7 0-4.9 2.2-4.9 4.9s2.2 4.9 4.9 4.9c1.9 0 3.6-1.1 4.4-2.7z" class="st2"/></svg>