<svg xmlns="http://www.w3.org/2000/svg" xml:space="preserve" id="Layer_1" x="0" y="0" viewBox="0 0 80 80"><style>.st0{fill:#003c73}.st1{fill:#002140}.st2{fill:#0164bf}.st3{fill:#8dc8ff}.st4{fill:#0185ff}</style><path d="M0 0h80v80H0z" class="st0"/><path d="M52.1 26.5s1.7 3.4 1.9 3.9 2.1 8.5 2.4 9.8 3.2 6.2 4.8 7.4 8 5.6 8 5.6 1.4-2.8 1.6-3.1 1.4-7.5 1.4-7.5l-8-.1s-1.3-1.1-1.2-2.1c.1-1.1 1.2-7 1.2-7s.7-1.4-1-1.9c-1.8-.5-11.1-5-11.1-5" class="st1"/><path d="M30.7 52.4s-2 4.8-5.2 5c0 0 4.5 2 4.9 4.9 0 0 1.9-4.2 5.3-4.8 0 .1-4.7-.9-5-5.1" class="st2"/><path d="M30.2 63.9c-.2 0-.4-.2-.5-.4-.9-3.5-1.6-4.2-5.1-5.1-.2-.1-.4-.3-.4-.5s.2-.4.4-.5c3.5-.9 4.2-1.6 5.1-5.1.1-.4.9-.4 1 0 .9 3.5 1.6 4.2 5.1 5.1.2.1.4.3.4.5s-.2.4-.4.5c-3.5.9-4.2 1.6-5.1 5.1 0 .2-.2.4-.5.4m-3.7-6c2.1.7 3 1.7 3.8 3.8.7-2.1 1.7-3 3.8-3.8-2.1-.7-3-1.7-3.8-3.8-.8 2.1-1.7 3-3.8 3.8" class="st1"/><path d="M40.1 72.3c-18 0-32.7-14.7-32.7-32.7S22.1 6.9 40.1 6.9s32.7 14.7 32.7 32.7c0 1 0 1.9-.1 2.9 0 .3-.2.5-.5.5s-.5-.3-.5-.5c.1-.9.1-1.9.1-2.8C71.8 22.2 57.6 8 40.1 8S8.5 22.2 8.5 39.6s14.2 31.7 31.7 31.7c2.1 0 4.2-.2 6.2-.6.3-.1.5.1.6.4s-.1.5-.4.6c-2.1.4-4.3.6-6.5.6" class="st1"/><path d="M69.2 53.6c.4-.9-8.4-5.4-10.2-8.4-4.6-7.7-4.4-12.3-4.4-12.3s-1.8-9.7-7.8-10.4S38 24 36.6 25.2s-2.8 3.1-4.2 2.8-3.2-.9-3.2-.9-2-1.2-3.4-.6c-1.4.5-2.7 1.8-2.7 1.8s-1 .9-1.7.9-2.7-.3-3.1-1c-.4-.6-2.1-1.7-3.6-1.7S11.5 28 11.5 28 9.8 25.4 8 26.1c-1.8.6-1.6 2.4-1.6 2.4s-3-.2-3.6 2.3c-.6 2.6 1.4 4.5 3.7 4.9 2.5.3 16.4 1.4 16.4 1.4l-2.3 5s-5.9 1.2-5.9 3.5 4.5 2.7 6 2.4 13.5-2.1 17.3 2.1c3.2 3.5 6.8 15.5 8 19.6 0 .2.1.3.1.4.2.6 10.5 0 17.9-9.1" class="st2"/><path d="M44.7 37c3.3 0 5.9-2.6 5.9-5.9s-2.6-5.9-5.9-5.9-5.9 2.6-5.9 5.9 2.6 5.9 5.9 5.9m-13.3-9.3s1.8.2 2.7-.4 5.6-4.7 7.6-5c0 0-1.7-3.9-6.2-3.6-4.5.2-6.4 5-4.1 9m-5 10.1s-.5 2.6 1.4 2.9c2.4.5 2.9-2.2 2.9-2.2zm-5-.5s-.5 2.6 1.4 2.9c2.4.5 2.9-2.2 2.9-2.2zm-5.3-.4s-.5 2.6 1.4 2.9c2.4.5 2.9-2.2 2.9-2.2zm-5.3-.6s-.5 2.6 1.4 2.9c2.4.5 2.9-2.2 2.9-2.2zm-4.9-.8s-.5 2.6 1.4 2.9c2.4.5 2.9-2.2 2.9-2.2z" class="st3"/><path d="m46.4 71.1 4.8-1.2s-3.6-21.3-10.3-27.3c-4.3-3.6-5.7-3-5.7-3s-.3 1.2-2.7 1.6c-2.4.5-14.1 1.4-14.4 1.5-.3.2-3.4.9-3.3 2.2.1 1.4-.3 3.1 6.1 2.9 6.4-.3 13.3-.9 17 2 2.7 3.9 6.3 14.1 7.2 17.3.8 3.4 1.3 4 1.3 4" class="st4"/><path d="M11 31.4s0-2.1-.5-2.8-1.6-1.6-1.9-1.1c-.4.4.2 2.1.2 2.1s.8 2.3 2.2 1.8m10.4 7.3-.5-1.1-.7 1.2.2 3.2 7.7-.5-.8-.8-1.4-2s-1 2.1-2.4 2.1c-1.5-.1-2.1-1.8-2.1-2.1m9.5-.1s-.5 2.5-2.2 2.8c0 0 5.7.2 6.1-1.9z" class="st1"/><path d="M46.4 71.6c-.2 0-.4-.1-.5-.3-.7-2-1.4-4.1-2.1-6.1-1.2-3.6-2.4-7.3-4-10.8-.8-1.8-1.6-3.6-3.3-4.5-1.9-1-4.4-1.6-7.1-1.9-2-.2-4.1-.2-6.6.1-.5.1-.9.1-1.4.2-.9.1-1.8.3-2.7.3-1.1 0-3-.2-4.1-1.4-.5-.5-.7-1.2-.5-1.9.1-.8.8-1.7 1.6-2.1 2.5-1.4 5.9-1.6 8.9-1.8.9 0 1.9-.1 2.7-.2.3 0 .6 0 .9-.1 2-.1 5.7-.4 6.2-2 .1-.3.4-.4.6-.3.3.1.4.4.3.6-.8 2.2-4.7 2.5-7.1 2.7-.4 0-.7 0-.9.1-.9.1-1.8.1-2.8.2-2.9.1-6.1.3-8.4 1.6-.6.3-1 .9-1.1 1.4-.1.4 0 .7.3 1.1.8 1 2.6 1.1 3.4 1.1s1.7-.1 2.6-.3c.5-.1 1-.2 1.4-.2 2.5-.3 4.7-.3 6.8-.1 2.9.3 5.4 1 7.5 2 2 1 2.9 3.1 3.7 4.9 1.6 3.6 2.8 7.4 4 11 .7 2 1.3 4.1 2 6q.15.45-.3.6c.2.1.1.1 0 .1m22.9-17.8c-.1 0-.2 0-.2-.1-4.4-2.5-7.9-5.3-10.6-8.4-1.7-2.1-2.6-5.6-3.5-9.3-1.5-5.9-3-12-7.9-13.2-5.5-1.4-8.3 1.2-10.6 3.3-1.2 1-2.2 2-3.3 2.1-1.6.2-2.7-.3-3.7-.7-.9-.4-1.7-.8-3-.6-1.3.1-1.8.7-2.3 1.3s-1.1 1.3-2.5 1.4c-1.3.1-2.3-.6-3.3-1.3s-1.9-1.4-3.1-1.3c-1.9.1-2.6.8-2.9 1.2-.2.2-.5.3-.7.1s-.3-.5-.1-.7c.4-.5 1.4-1.5 3.6-1.6 1.6-.1 2.7.8 3.7 1.5.9.7 1.7 1.2 2.6 1.1s1.3-.5 1.8-1.1c.6-.7 1.3-1.5 3-1.7 1.6-.2 2.6.3 3.6.7.9.4 1.8.8 3.2.7.8-.1 1.7-.9 2.8-1.8 2.4-2.1 5.6-5 11.5-3.5 5.6 1.4 7.2 8.1 8.7 14 .9 3.6 1.7 7 3.3 8.9 2.6 3 6 5.7 10.3 8.2.2.1.3.4.2.7-.3 0-.5.1-.6.1" class="st1"/><path d="M51.3 70.2c-.2 0-.4-.2-.5-.4-3-14.8-6.9-28.7-15.8-30-.3 0-.5-.3-.4-.6 0-.3.3-.5.6-.4 10 1.5 13.8 16.7 16.7 30.8q-.15.45-.6.6" class="st1"/><path d="M35 39.8h-.1c-4.4-1.3-12.2-2-18.5-2.6-4.9-.4-9.2-.8-10.9-1.4 0 0-4.1-1.1-3.1-5.6.7-2.3 2.9-2.5 4-2.4.3 0 .5.3.4.6 0 .3-.3.5-.6.4-.1 0-2.2-.4-2.8 1.6-.8 3.6 2.3 4.4 2.4 4.4 1.6.5 5.8.9 10.7 1.3 6.7.6 14.2 1.3 18.7 2.6.3.1.4.4.3.6-.1.4-.3.5-.5.5" class="st1"/><path d="M8.7 33.1c-.1 0-.3-.1-.4-.2s-2.8-3.4-2.2-5.8c.2-.8.7-1.4 1.6-1.8.8-.4 1.6-.4 2.3 0 2.3 1.2 3.3 5.5 3.3 5.7.1.3-.1.5-.4.6s-.5-.1-.6-.4c-.3-1.1-1.3-4.3-2.8-5q-.75-.3-1.5 0c-.5.2-.9.6-1 1.1-.4 1.5 1.3 4.1 2 4.9.3.3.3.6 0 .8-.1 0-.2.1-.3.1" class="st1"/><path d="M10.6 32c-.3 0-.6-.1-1-.4s-.8-.8-1.2-1.4-.6-1.2-.6-1.7c-.1-.9.3-1.3.5-1.4.8-.5 2 .5 2.7 1.7.3.6.6 1.2.6 1.7.1.9-.3 1.3-.5 1.4-.1 0-.3.1-.5.1m-1.8-4.1c-.1.1-.1.8.5 1.8.5.9 1.1 1.3 1.3 1.3.1-.2 0-.9-.5-1.8-.6-1-1.2-1.3-1.3-1.3M7.7 39h-.5c-.7-.1-1.3-.4-1.7-1-.8-1.1-.4-2.6-.4-2.7.1-.3.3-.4.6-.4.3.1.5.3.4.6 0 0-.2 1.2.3 1.9.2.3.5.5 1 .6 1.8.2 2.3-1.8 2.3-1.9.1-.3.3-.4.6-.4.3.1.4.3.4.6-.2 1-1.1 2.7-3 2.7" class="st1"/><path d="M12.8 39.9h-.1c-.7 0-1.3-.3-1.8-.8-.9-1-.7-2.6-.7-2.7 0-.3.3-.5.6-.4.3 0 .5.3.4.5 0 0-.1 1.2.5 1.9.2.3.6.4 1.1.5 1.8.1 2.1-2 2.1-2.1 0-.3.3-.5.6-.4.3 0 .5.3.4.6-.2 1-1 2.9-3.1 2.9" class="st1"/><path d="M18.1 40.4H18c-.7 0-1.3-.3-1.8-.8-.9-1-.7-2.6-.7-2.7 0-.3.3-.5.6-.4.3 0 .5.3.4.5 0 0-.1 1.2.5 1.9.2.3.6.4 1.1.5 1.8.1 2.1-2 2.1-2.1 0-.3.3-.5.6-.4.3 0 .5.3.4.6-.3.9-1.1 2.9-3.1 2.9" class="st1"/><path d="M23.3 41h-.1c-.7 0-1.3-.3-1.8-.8-.9-1-.7-2.6-.7-2.7 0-.3.3-.5.6-.4.3 0 .5.3.4.5 0 0-.1 1.2.5 1.9.2.3.6.4 1.1.5 1.8 0 2.1-2 2.1-2.1 0-.3.3-.5.6-.4.3 0 .5.3.4.6-.3 1-1.1 2.9-3.1 2.9" class="st1"/><path d="M28.3 41.6h-.1c-.7 0-1.3-.3-1.8-.8-.9-1-.7-2.6-.7-2.7 0-.3.3-.5.6-.4.3 0 .5.3.4.5 0 0-.1 1.2.5 1.9.2.3.6.4 1.1.5 1.8 0 2.1-2 2.1-2.1 0-.3.3-.5.6-.4.3 0 .5.3.4.6-.3 1-1.1 2.9-3.1 2.9m-7.8 1c-.3 0-.5-.2-.5-.5 0 0-.2-2.3-.4-3.1-.1-.3.1-.5.4-.6s.5.1.6.4c.2.9.4 3.1.4 3.2 0 .4-.2.6-.5.6m24.1-5c-3.5 0-6.3-2.8-6.3-6.3s2.8-6.3 6.3-6.3 6.3 2.8 6.3 6.3-2.8 6.3-6.3 6.3m0-11.7c-2.9 0-5.3 2.4-5.3 5.3s2.4 5.3 5.3 5.3 5.3-2.4 5.3-5.3c.1-2.9-2.3-5.3-5.3-5.3m-13.4 2c-.2 0-.3-.1-.4-.2q-.9-1.5-.9-3.3c0-3.5 2.8-6.3 6.3-6.3 2.6 0 4.8 1.5 5.8 3.9.1.3 0 .5-.3.7-.3.1-.5 0-.7-.3-.8-2-2.8-3.3-4.9-3.3-2.9 0-5.3 2.4-5.3 5.3 0 1 .3 1.9.8 2.7.1.2.1.5-.2.7 0 .1-.1.1-.2.1" class="st1"/><path d="M38.8 32.7c.3.2.5.4.9.5 1.2.5 2.6 0 3.5-1.1L41.7 30l2.6-.2c.3-1.8-.4-3.5-1.7-4.1 0 0-2 .8-3 2.7-.9 1.8-.8 4.3-.8 4.3M30.5 26c.3.2.5.4.9.5 1.2.5 2.6 0 3.5-1.1l-1.5-2.1 2.6-.2c.3-1.8-.4-3.5-1.7-4.1 0 0-2 .8-3 2.7s-.8 4.3-.8 4.3m34.3 17c-.7 0-1.4-.3-1.9-.9s-.6-1.3-.5-2l1.3-6.4c.1-.6-.2-1.3-.8-1.6l-11.2-5.5c-.2-.1-.4-.4-.2-.7.1-.2.4-.3.7-.2l11.2 5.5c1 .5 1.5 1.6 1.3 2.7l-1.3 6.4c-.1.4 0 .9.3 1.2s.7.5 1.1.5h7.4c.3 0 .5.2.5.5s-.2.5-.5.5z" class="st1"/><path d="M46.5 71.7c-.2 0-.4-.2-.5-.4-.1-.3.1-.5.4-.6C60.1 68 70.5 56.4 71.7 42.4c0-.3.3-.5.5-.5.3 0 .5.3.5.5-1.2 14.5-12 26.5-26.2 29.3.1 0 0 0 0 0" class="st1"/></svg>