<?xml version="1.0" encoding="utf-8"?>
<!-- Generator: Adobe Illustrator 26.5.0, SVG Export Plug-In . SVG Version: 6.00 Build 0)  -->
<svg version="1.1" id="Layer_1" xmlns="http://www.w3.org/2000/svg" xmlns:xlink="http://www.w3.org/1999/xlink" x="0px" y="0px"
	 viewBox="0 0 80 80" style="enable-background:new 0 0 80 80;" xml:space="preserve">
<style type="text/css">
	.st0{fill:#FBCCFF;}
	.st1{fill:#CF4CD9;}
	.st2{fill:#002140;}
</style>
<g>
	<rect class="st0" width="80" height="80"/>
</g>
<g>
	<path class="st1" d="M15.4,35.7c0,0-1.6,3.9-4.3,4.2c0,0,3.7,1.6,4,4c0,0,1.5-3.5,4.4-3.9C19.5,39.9,15.6,39.1,15.4,35.7L15.4,35.7
		z"/>
</g>
<g>
	<path class="st1" d="M64.3,35.9c0,0-1.6,3.9-4.3,4.2c0,0,3.7,1.6,4,4c0,0,1.5-3.5,4.4-3.9C68.5,40.2,64.5,39.3,64.3,35.9L64.3,35.9
		z"/>
</g>
<g>
	<path class="st0" d="M30.5,32.1c0,0,0.2,7.1,9.4,7.1s8.2-7.6,8.2-7.6s-3.7-3.3-8.6-3.4C34.6,28.2,30.5,32.1,30.5,32.1L30.5,32.1z"
		/>
</g>
<g>
	<path class="st2" d="M39.9,72.4c-18,0-32.7-14.7-32.7-32.7C7.2,21.7,21.9,7,39.9,7c18,0,32.7,14.7,32.7,32.7
		C72.6,57.8,57.9,72.4,39.9,72.4z M39.9,8C22.4,8,8.2,22.3,8.2,39.7s14.2,31.7,31.7,31.7s31.7-14.2,31.7-31.7S57.4,8,39.9,8z"/>
</g>
<g>
	<path class="st2" d="M64.2,45.2c-0.2,0-0.4-0.2-0.5-0.4c-0.8-2.9-1.3-3.4-4.2-4.2c-0.2-0.1-0.4-0.3-0.4-0.5s0.2-0.4,0.4-0.5
		c2.9-0.8,3.4-1.3,4.2-4.2c0.1-0.2,0.3-0.4,0.5-0.4l0,0c0.2,0,0.4,0.2,0.5,0.4c0.8,2.9,1.3,3.4,4.2,4.2c0.2,0.1,0.4,0.3,0.4,0.5
		s-0.2,0.4-0.4,0.5c-2.9,0.8-3.4,1.3-4.2,4.2C64.6,45,64.4,45.2,64.2,45.2z M61.3,40.1c1.5,0.6,2.3,1.3,2.9,2.9
		c0.6-1.5,1.3-2.3,2.9-2.9c-1.5-0.6-2.3-1.3-2.9-2.9C63.6,38.8,62.9,39.6,61.3,40.1z"/>
</g>
<g>
	<path class="st2" d="M15,45.2L15,45.2c-0.2,0-0.4-0.2-0.5-0.4c-0.8-2.9-1.3-3.4-4.2-4.2c-0.2-0.1-0.4-0.3-0.4-0.5s0.2-0.4,0.4-0.5
		c2.9-0.8,3.4-1.3,4.2-4.2c0.1-0.4,0.9-0.4,1,0c0.8,2.9,1.3,3.4,4.2,4.2c0.2,0.1,0.4,0.3,0.4,0.5s-0.2,0.4-0.4,0.5
		c-2.9,0.8-3.4,1.3-4.2,4.2C15.4,45,15.2,45.2,15,45.2z M12.2,40.1c1.5,0.6,2.3,1.3,2.9,2.9c0.6-1.5,1.3-2.3,2.9-2.9
		c-1.5-0.6-2.3-1.3-2.9-2.9C14.4,38.8,13.7,39.6,12.2,40.1z"/>
</g>
<g>
	<path class="st1" d="M26.2,53.3c0,0,1.2,8,12.9,8.4s16-8.2,16-8.2s1.3-7.4-0.2-9.3c0,0,3-1.2,2.7-3.2c-0.4-2-4.4-8.1-4.4-8.1
		s-3.6-6.2-14.1-6.8c-10.5-0.6-15,12.4-15,12.4s-1.8,1.9-1.7,3.7c0.1,1.8,1.1,4.2,3.5,4.1C25.9,46.3,25.2,52.1,26.2,53.3L26.2,53.3z
		"/>
</g>
<g>
	<path class="st0" d="M30.5,38c0,0,0,3.4,2.4,3.9s2.9,0.1,2.9,0.1l1.7-2c0,0,1.8,2.2,4.1,1.8c2.3-0.4,3.8-2.2,3.8-3.7
		c0.1-1.5-6.7-3.2-6.7-3.2l-5.1,1.3L30.5,38L30.5,38z"/>
</g>
<g>
	<path class="st1" d="M30.2,37.9c0,0,4.5-0.8,6.7-0.1c0,0,5.9-1,8.3,0c0,0,0.1-4.1-3.2-4.5c-3.4-0.4-4.3,2.1-4.3,2.1
		s-1.7-1.8-3.5-1.8C32.4,33.7,30.4,36,30.2,37.9L30.2,37.9z"/>
</g>
<g>
	<path class="st2" d="M49.7,36c0,0,0.8,2.9,1.7,3.4c0,0,0.9-2.1,2.4-2.1c1.5,0,3,0.7,3,0.7l-0.5-1.8c0,0,3.8-5.4-2.4-7.3
		c0,0,1.2-5.7-4.4-6.4c0,0-0.4-3.1-3-3.7c-2.6-0.5-3.9,0.7-3.9,0.7s-2.8-3.2-5.4-2.7c-2.6,0.5-3.4,3.6-3.4,3.6s-3.7-0.1-5.6,1.7
		c-1.9,1.8-1.3,4.6-1.3,4.6s-2.8,1.1-3.6,2.9c-0.7,1.8,0.7,5.1,0.7,5.1l-0.4,3.8c0,0,1.4-0.7,2.3-0.6l1.5,0.3c0,0-0.3-9,7-10.6
		c4.3-2,11.4-0.4,13.3,1.5l-0.2,0.9C47.5,30.2,45.6,33.1,49.7,36L49.7,36z"/>
</g>
<g>
	<path class="st2" d="M40.5,53.7c-2.5,0-4.8-0.9-5-1c-0.3-0.1-0.4-0.4-0.3-0.7c0.1-0.3,0.4-0.4,0.7-0.3c0,0,3.9,1.6,6.8,0.6
		c0.3-0.1,0.5,0.1,0.6,0.3c0.1,0.3-0.1,0.5-0.3,0.6C42.2,53.6,41.4,53.7,40.5,53.7z"/>
</g>
<g>
	<path class="st2" d="M42.7,53.3c-1,0-1.9-0.4-2.7-0.8c-0.8-0.4-1.5-0.7-2.3-0.7c-0.9,0-1.4,0.3-1.6,0.4c0.1,0.1,0.1,0.3,0.1,0.5
		c-0.1,0.3-0.3,0.4-0.6,0.3c-0.4-0.1-0.6-0.5-0.6-0.9c0.1-0.7,1.1-1.4,2.7-1.4c1,0,1.9,0.4,2.7,0.8c0.8,0.4,1.6,0.7,2.4,0.7
		c0.3,0,0.5,0.2,0.5,0.5c0,0.3-0.2,0.5-0.5,0.5C42.9,53.3,42.8,53.3,42.7,53.3z"/>
</g>
<g>
	<path class="st2" d="M38.2,55c-0.6,0-1.2-0.1-1.8-0.4c-1.7-0.9-1.3-2.1-1.2-2.5c0.1-0.3,0.4-0.4,0.7-0.3c0.3,0.1,0.4,0.4,0.3,0.7
		c-0.1,0.2-0.3,0.7,0.7,1.2c1.6,0.8,3.2-0.1,4.3-0.9c0.2-0.2,0.5-0.1,0.7,0.1s0.1,0.5-0.1,0.7C40.6,54.5,39.3,55,38.2,55z"/>
</g>
<g>
	<path class="st2" d="M45.9,51.6c-1.5-1.5-4.9-3.5-4.9-3.5l-1.6-2l-3.9,0.3c0,0,0.1,1.2-0.7,1.7c-0.8,0.5-3.5,3-3.5,3
		s-2.5,5.4,0.5,7.8c3,2.4,4.9,2.7,8.3,2.2c3.4-0.5,6.1-2.6,6.5-4.1C47,55.6,47.5,53.1,45.9,51.6L45.9,51.6z M40,58.2
		c-1.2,0-0.8-2.6-2.4-2.4c-1.5,0.3-0.3,2.2-1.8,2.4c-1.6,0.2-2-1.5-1.8-4.1c0.1-2.5,1.6-4.3,4.1-4.3c2.5,0,4.3,0.6,4.4,4.1
		C42.8,57.4,41.3,58.2,40,58.2L40,58.2z"/>
</g>
<g>
	<path class="st2" d="M56.7,38.8C56.7,38.8,56.7,38.8,56.7,38.8c-0.3,0-0.5-0.3-0.5-0.6c0.1-0.5-0.1-1.2-0.4-1.5
		c-0.2-0.2-0.2-0.4-0.1-0.6c0.7-1,1.1-2,1.1-2.9c0,0-0.1-3.6-3.3-3.6c-0.3,0-0.5-0.2-0.5-0.5c0-0.3,0.2-0.5,0.5-0.5h0
		c3.2,0,4.3,2.8,4.3,4.6c0,1-0.3,2.1-1,3.2c0.4,0.6,0.5,1.4,0.4,2C57.2,38.6,57,38.8,56.7,38.8z"/>
</g>
<g>
	<path class="st2" d="M23.8,39.2c-0.2,0-0.4-0.1-0.5-0.3c-0.5-1.3-0.4-2.8,0.3-3.7c-1.1-1.4-1.4-3.2-0.8-4.9c0.5-1.6,1.9-3,3.5-3.5
		c-0.4-1.9,0.3-3.9,1.7-5.2c1.4-1.3,3.5-1.8,5.2-1.4c0.2-1.8,1.9-3.5,3.9-3.7c2.1-0.2,4.1,1.1,5.3,2.4c1.3-0.9,3.1-1,4.5-0.4
		c1.4,0.6,2.5,2.1,2.8,3.7c1.6,0,3.1,0.9,3.9,2.1c0.9,1.4,1,3.3,0.3,4.9c-0.1,0.2-0.4,0.4-0.7,0.2c-0.2-0.1-0.4-0.4-0.2-0.7
		c0.6-1.3,0.5-2.9-0.2-3.9c-0.8-1.1-2.2-1.8-3.5-1.7c-0.1,0-0.3,0-0.4-0.1c-0.1-0.1-0.2-0.2-0.2-0.3c-0.1-1.4-1-2.7-2.2-3.3
		c-1.3-0.6-2.8-0.3-3.9,0.5C42.6,20,42.5,20,42.4,20c-0.1,0-0.3-0.1-0.3-0.2c-1.1-1.4-3-2.6-4.7-2.4c-1.6,0.2-3.2,1.7-3,3.4
		c0,0.2-0.1,0.3-0.2,0.4c-0.1,0.1-0.3,0.1-0.5,0.1c-1.5-0.6-3.6-0.2-4.9,1c-1.2,1.1-1.8,3.1-1.3,4.7c0,0.1,0,0.3,0,0.4
		c-0.1,0.1-0.2,0.2-0.3,0.2c-1.5,0.3-2.8,1.5-3.3,3c-0.5,1.4-0.1,3.1,0.9,4.2c0.2,0.2,0.2,0.5,0,0.7c-0.7,0.7-0.8,1.9-0.4,3
		c0.1,0.3,0,0.5-0.3,0.6C24,39.2,23.9,39.2,23.8,39.2z"/>
</g>
<g>
	<path class="st2" d="M51.5,39.9c-0.1,0-0.2,0-0.3-0.1c-0.2-0.2-0.4-0.4-0.6-0.6c-0.7-0.8-1.2-1.9-1.4-3c-0.8-0.7-1.7-1.5-2.2-2.6
		c-0.7-1.5-0.6-4.2,2.2-5.6c0.2-0.1,0.5,0,0.7,0.2c0.1,0.2,0,0.5-0.2,0.7c-2.5,1.2-2.1,3.5-1.7,4.3c0.4,1,1.3,1.7,2.1,2.4
		c0.1,0.1,0.2,0.2,0.2,0.3c0.1,0.9,0.6,1.9,1.2,2.7c0.1,0.2,0.3,0.3,0.5,0.5c0.2,0.2,0.2,0.5,0.1,0.7C51.8,39.9,51.6,39.9,51.5,39.9
		z"/>
</g>
<g>
	<path class="st2" d="M44.4,32.8c-0.2,0-0.3-0.1-0.4-0.2c-0.6-1-2.2-1.4-3.2-0.8c-0.2,0.1-0.5,0.1-0.7-0.2C40,31.3,40,31,40.3,30.9
		c1.5-0.9,3.7-0.3,4.6,1.2c0.1,0.2,0.1,0.5-0.2,0.7C44.6,32.8,44.5,32.8,44.4,32.8z"/>
</g>
<g>
	<path class="st2" d="M38.9,62.2c-4.5,0-12.8-1.4-13.7-11.6c-0.5-5,1.2-8,1.7-8.8c-0.8-4.6,0.2-8.9,2.7-11.6
		C34,25.6,43.5,25,48.3,29c0.2,0.2,0.2,0.5,0.1,0.7c-0.2,0.2-0.5,0.2-0.7,0.1c-4.3-3.7-13.3-3.1-17.2,1.1c-2.3,2.5-3.2,6.6-2.4,10.9
		c0,0.1,0,0.3-0.1,0.4c0,0-2.2,2.9-1.7,8.3C26.6,54.7,29,61.8,40,61.2c10.3-0.5,14.6-6,15.3-10.9c0.2-1.6,0-3.5-0.7-5.6
		c-0.1-0.3,0.1-0.5,0.3-0.6c0.3-0.1,0.5,0.1,0.6,0.3c0.7,2.3,1,4.3,0.7,6c-0.7,5.3-5.4,11.2-16.2,11.7
		C39.7,62.2,39.4,62.2,38.9,62.2z"/>
</g>
<g>
	<path class="st2" d="M25.2,47c-1,0-1.9-0.7-2.5-1.5c-0.8-1.1-1.2-2.5-1.1-3.8c0.1-1.4,0.8-2.7,1.9-3.4c1-0.7,2.4-0.8,3.5-0.3
		c0.2,0.1,0.3,0.4,0.2,0.7c-0.1,0.2-0.4,0.3-0.7,0.2c-0.7-0.4-1.8-0.3-2.5,0.2c-0.8,0.5-1.4,1.6-1.5,2.7c-0.1,1.1,0.2,2.2,0.9,3.1
		c0.4,0.6,1.1,1.2,1.9,1c0.3-0.1,0.5,0.1,0.6,0.4c0,0.3-0.1,0.5-0.4,0.6C25.5,47,25.4,47,25.2,47z"/>
</g>
<g>
	<path class="st2" d="M52.7,45.2c-0.1,0-0.2,0-0.3-0.1c-0.2-0.2-0.3-0.5-0.1-0.7c0.3-0.4,0.7-0.6,1.3-0.7c0.2,0,0.4,0,0.6,0
		c0.2,0,0.3,0,0.5,0c0.7-0.1,1.5-0.6,1.9-1.3c0.4-0.7,0.5-1.5,0.4-2.3c-0.2-1.1-0.9-2-1.8-2.3c-0.9-0.4-2.1-0.1-2.6,0.7
		c-0.3,0.4-0.4,0.8-0.5,1.3C52,40,51.7,40.1,51.4,40c-0.3-0.1-0.4-0.3-0.4-0.6c0.1-0.5,0.3-1.1,0.7-1.6c0.8-1.1,2.4-1.6,3.8-1
		c1.2,0.5,2.1,1.7,2.4,3.1c0.2,1.1,0,2.2-0.5,3c-0.6,1-1.5,1.6-2.6,1.7c-0.2,0-0.4,0-0.6,0c-0.2,0-0.3,0-0.5,0
		c-0.3,0-0.5,0.1-0.6,0.3C53,45.2,52.8,45.2,52.7,45.2z"/>
</g>
<g>
	<path class="st2" d="M53.4,42.4c-0.1,0-0.2,0-0.3-0.1c-0.2-0.2-0.3-0.5-0.1-0.7c0.7-0.9,2.1-1.3,3.1-0.7c0.2,0.1,0.3,0.4,0.2,0.7
		c-0.1,0.2-0.4,0.3-0.7,0.2c-0.6-0.3-1.4-0.1-1.8,0.4C53.7,42.3,53.5,42.4,53.4,42.4z"/>
</g>
<g>
	<path class="st2" d="M54.4,41.4C54.4,41.4,54.4,41.4,54.4,41.4c-0.4-0.1-0.5-0.3-0.5-0.6c0.1-0.5,0-1-0.3-1.4
		c-0.1-0.2-0.1-0.5,0.2-0.7c0.2-0.1,0.5-0.1,0.7,0.2c0.4,0.6,0.5,1.4,0.4,2.1C54.9,41.2,54.7,41.4,54.4,41.4z"/>
</g>
<g>
	<path class="st2" d="M37.4,46.9c-0.7,0-1.3-0.2-1.8-0.5c-0.7-0.5-1.1-1.5-1-2.5c0.1-0.9,0.5-1.7,0.9-2.3c0.1-0.2,0.2-0.4,0.4-0.6
		c0.4-0.5,0.8-1.1,1-1.9c0-0.3,0.3-0.5,0.6-0.4c0.3,0,0.5,0.3,0.4,0.6c-0.2,1-0.7,1.7-1.2,2.3c-0.1,0.2-0.2,0.3-0.3,0.5
		c-0.3,0.5-0.7,1.2-0.8,1.9c-0.1,0.7,0.2,1.3,0.6,1.6c0.3,0.2,0.8,0.3,1.3,0.3c0.6,0,1.3-0.2,1.5-0.8c0.1-0.2,0.3-0.3,0.5-0.3
		c0.2,0,0.4,0.1,0.5,0.3c0.2,0.4,0.6,0.7,1,0.6c0.2,0,0.3-0.2,0.4-0.4c0-0.1,0.1-0.3,0-0.4c-0.2-0.2-0.1-0.5,0.1-0.7
		c0.2-0.2,0.5-0.1,0.7,0.1c0.3,0.4,0.4,0.9,0.2,1.3c-0.2,0.5-0.6,0.9-1.1,1.1c-0.6,0.2-1.3-0.1-1.8-0.5c-0.5,0.5-1.3,0.7-1.9,0.7
		C37.5,46.9,37.5,46.9,37.4,46.9z"/>
</g>
<g>
	<path class="st2" d="M41.3,42.4c-1.2,0-2.3-0.4-3.1-1.2c-0.9-0.9-1.5-2-1.5-3.3c-0.1-1.3,0.4-2.5,1.2-3.5c0.8-1,2-1.5,3.2-1.6
		c1.2-0.1,2.4,0.4,3.4,1.2c0.9,0.9,1.5,2,1.5,3.3c0.1,2.6-1.8,4.9-4.4,5l0,0C41.4,42.4,41.3,42.4,41.3,42.4z M41.5,41.9L41.5,41.9
		L41.5,41.9z M41.2,33.8c-0.1,0-0.1,0-0.2,0c-1,0.1-1.9,0.5-2.5,1.2c-0.7,0.8-1,1.7-0.9,2.8c0.1,1,0.5,2,1.2,2.6
		c0.7,0.7,1.7,1,2.6,1l0,0c2-0.1,3.6-1.9,3.5-4c-0.1-1-0.5-2-1.2-2.6C43,34.1,42.1,33.8,41.2,33.8z"/>
</g>
<g>
	<path class="st2" d="M34.4,42.7c-2.5,0-4.5-2-4.7-4.6c-0.1-2.6,1.8-4.9,4.4-5c1.5-0.1,2.9,0.5,3.8,1.7c0.2,0.2,0.1,0.5-0.1,0.7
		c-0.2,0.2-0.5,0.1-0.7-0.1c-0.7-0.9-1.8-1.4-3-1.3c-2,0.1-3.6,1.9-3.5,4c0.1,2.1,1.8,3.7,3.9,3.6c0.3,0,0.6-0.1,0.9-0.2
		c0.3-0.1,0.5,0.1,0.6,0.3c0.1,0.3-0.1,0.5-0.3,0.6c-0.4,0.1-0.8,0.2-1.1,0.2C34.6,42.7,34.5,42.7,34.4,42.7z"/>
</g>
<g>
	<path class="st2" d="M30.6,38.3c-0.2,0-0.4-0.1-0.5-0.4c-0.1-0.3,0.1-0.5,0.4-0.6c0.2,0,3.8-1,6.8,0c0.3,0.1,0.4,0.4,0.3,0.6
		c-0.1,0.3-0.4,0.4-0.6,0.3c-2.7-0.9-6.2,0-6.2,0C30.7,38.3,30.6,38.3,30.6,38.3z"/>
</g>
<g>
	<path class="st2" d="M37.2,38.5c-0.2,0-0.4-0.1-0.5-0.4c-0.1-0.3,0.1-0.5,0.3-0.6c0.2-0.1,4.9-1.4,8.5,0c0.3,0.1,0.4,0.4,0.3,0.6
		c-0.1,0.3-0.4,0.4-0.6,0.3c-3.3-1.3-7.8,0.1-7.8,0.1C37.3,38.5,37.3,38.5,37.2,38.5z"/>
</g>
<g>
	<path class="st2" d="M32.7,37.6c-0.3,0.4-0.5,0.9-0.5,1.4l2.1,0.1l-1.5,1.6c0.5,0.6,1.2,0.9,2,0.9c1.4-0.1,2.5-1.3,2.4-2.7
		c0-0.5-0.2-1-0.5-1.4"/>
</g>
<g>
	<path class="st2" d="M39,37.7c-0.1,0.3-0.2,0.6-0.2,0.9l2.1,0.1l-1.5,1.6c0.5,0.6,1.2,0.9,2,0.9c1.4-0.1,2.5-1.3,2.4-2.7
		c0-0.3-0.1-0.7-0.2-1"/>
</g>
<g>
	<path class="st2" d="M32.2,33.2c-0.3,0-0.5-0.2-0.5-0.5c0-0.3,0.2-0.5,0.5-0.5l4.6-0.2c0.3,0,0.5,0.2,0.5,0.5
		c0,0.3-0.2,0.5-0.5,0.5L32.2,33.2C32.2,33.2,32.2,33.2,32.2,33.2z"/>
</g>
<g>
	<path class="st2" d="M37.8,61.8c-2.1,0-5.1-0.7-6.7-2.8c-1.1-1.4-1.5-3.2-1-5.3c0.8-3.4,2.4-4.6,3.6-5.5c0.9-0.7,1.3-1.1,1.3-1.9
		c0-0.3,0.2-0.5,0.5-0.5c0.3,0,0.5,0.2,0.5,0.5c0.1,1.4-0.7,2.1-1.6,2.8c-1.1,0.9-2.5,1.9-3.3,5c-0.4,1.8-0.2,3.3,0.8,4.5
		c1.4,1.7,4.1,2.4,6.1,2.4c3.7-0.2,6.4-1.2,7.6-2.9c0.8-1.1,0.9-2.5,0.4-4.3c-0.8-2.8-2.4-3.7-4-4.5c-1.3-0.7-2.7-1.4-3-3.4
		c0-0.3,0.1-0.5,0.4-0.6c0.3,0,0.5,0.1,0.6,0.4c0.2,1.5,1.2,2,2.5,2.7c1.6,0.8,3.5,1.9,4.5,5.1c0.6,2,0.4,3.7-0.6,5.1
		c-1.7,2.4-5.5,3.1-8.3,3.3C38,61.8,37.9,61.8,37.8,61.8z"/>
</g>
<g>
	<path class="st2" d="M24.4,43.5c-0.1,0-0.3-0.1-0.4-0.2c-0.2-0.2-0.2-0.5,0.1-0.7c0.8-0.7,2-0.9,3-0.5c0.3,0.1,0.4,0.4,0.3,0.6
		c-0.1,0.3-0.4,0.4-0.6,0.3c-0.7-0.2-1.4-0.1-2,0.3C24.6,43.5,24.5,43.5,24.4,43.5z"/>
</g>
<g>
	<path class="st2" d="M25.5,42.9c-0.2,0-0.4-0.1-0.5-0.3c-0.3-0.7-0.3-1.5,0.1-2.2c0.1-0.2,0.4-0.3,0.7-0.2c0.2,0.1,0.3,0.4,0.2,0.7
		c-0.2,0.4-0.2,0.9,0,1.4c0.1,0.3,0,0.5-0.3,0.7C25.6,42.9,25.6,42.9,25.5,42.9z"/>
</g>
</svg>
