<svg xmlns="http://www.w3.org/2000/svg" xml:space="preserve" id="Layer_1" x="0" y="0" viewBox="0 0 80 80"><style>.st0{fill:#712a76}.st1{fill:#cf4cd9}.st2{fill:#002140}.st3{fill:#f68dfe}.st4{fill:#fbccff}</style><path d="M0 0h80v80H0z" class="st0"/><path d="M14.7 37s-1.6 3.9-4.3 4.2c0 0 3.7 1.6 4 4 0 0 1.5-3.5 4.4-3.9.1-.1-3.9-.9-4.1-4.3m47 7.8s-1.6 3.9-4.3 4.2c0 0 3.7 1.6 4 4 0 0 1.5-3.5 4.4-3.9.1-.1-3.8-.9-4.1-4.3" class="st1"/><path d="M39.9 72.4c-18 0-32.7-14.7-32.7-32.7S21.9 7 39.9 7s32.7 14.7 32.7 32.7c0 18.1-14.7 32.7-32.7 32.7m0-64.4C22.4 8 8.2 22.3 8.2 39.7c0 17.5 14.2 31.7 31.7 31.7s31.7-14.2 31.7-31.7C71.6 22.3 57.4 8 39.9 8" class="st2"/><path d="M61.6 54c-.2 0-.4-.2-.5-.4-.8-2.9-1.3-3.4-4.2-4.2-.2-.1-.4-.3-.4-.5s.2-.4.4-.5c2.9-.8 3.4-1.3 4.2-4.2.1-.2.3-.4.5-.4s.4.2.5.4c.8 2.9 1.3 3.4 4.2 4.2.2.1.4.3.4.5s-.2.4-.4.5c-2.9.8-3.4 1.3-4.2 4.2 0 .3-.2.4-.5.4m-2.8-5c1.5.6 2.3 1.3 2.9 2.9.6-1.5 1.3-2.3 2.9-2.9-1.5-.6-2.3-1.3-2.9-2.9-.6 1.6-1.4 2.3-2.9 2.9m-44.4-2.5c-.2 0-.4-.2-.5-.4-.8-2.9-1.3-3.4-4.2-4.2-.2-.1-.4-.3-.4-.5s.2-.4.4-.4c2.9-.8 3.4-1.3 4.2-4.2.1-.4.9-.4 1 0 .8 2.9 1.3 3.4 4.2 4.2.2.1.4.3.4.5s-.2.4-.4.5c-2.9.8-3.4 1.3-4.2 4.2-.1.1-.3.3-.5.3m-2.9-5.1c1.5.6 2.3 1.3 2.9 2.9.6-1.5 1.3-2.3 2.9-2.9-1.5-.6-2.3-1.3-2.9-2.9-.6 1.6-1.4 2.4-2.9 2.9" class="st2"/><path d="m38.1 66.5-1.6-.8s-7.9-1.9-9.2-14.6c0 0-2.3 1.6-3.3 1.4-1-.1-3.4-2.2-3.1-4.8s1.6-4.2 2.7-5 5.8-14.5 5.8-14.5 1.2-2.3 8-1.7 14.8 6.1 15.4 7.6c.7 1.5.9 11.9.9 11.9s.9 16.1-9 19.9l-2.6.6z" class="st1"/><path d="M26.9 44.1s.5 6 1.6 5.9.2-8.8-.1-11.4c0 0 5.3-3.4 1.8-9.4 0 0 .6-.5 1.6-.1s3.5 3.5 3.7 5c0 0 2.6-1.2 2.5-5.2 0 0 7.6 2.2 8.7 6 0 0 1-.9 1.1-2.2 0 0 3.1 1.9 3.5 2.5s1.5 4 1.5 4l.6 7.7s2.3-2.5 2.3-6.6c0 0 2.1 1.7 4.2 1.3 0 0-1.6-1.1-1.8-5.9-.1-4.6-.1-16.8-8.8-16.7 0 0 1.2-4.9 0-6.9 0 0-2.5 3.1-4.4 3.4-2 .3-11-1.4-13.9 4.8 0 0-8.5-3.4-12.1 5.4-2.7 7.9 3.6 17.9 3.6 17.9s3-1.6 4.4.5" class="st1"/><path d="M38.8 57.7s3-1.1 3.5-1.5c.6-.4 1.7-1.6 3-1.5s2.3 1.3 2.1 2.1c-.1.8-.6 1.6-.6 1.6s1.1 1.8.4 2.7c-.7.8-1.7 1.1-3 .8-1.3-.2-5.2-2.3-5.4-4.2" class="st3"/><path d="M37.9 49.2c2.3 0 4.2-1.9 4.2-4.2s-1.9-4.2-4.2-4.2-4.2 1.9-4.2 4.2 1.9 4.2 4.2 4.2" class="st4"/><path d="m42 45.4.6 2.8s1.5.8 2.8.8c1.3-.1 3.7-2 3.5-4.6-.1-2.5-2.5-3.5-4-3.5-1.4 0-3.5 1.7-3.5 1.7L42 45" class="st4"/><path d="M25.3 52.5c-.1-.8-1.1-2.3-1.1-2.3l-.9-.4-1 1.4-1.3-1.5s-1.5 1.1-1.6 2.3.6 3.2 2.8 3.2c2.2-.1 3.3-1.8 3.1-2.7m-3.3.9c-.5 0-.9-.4-.9-.9s.4-.9.9-.9.9.4.9.9-.4.9-.9.9" class="st3"/><path d="M37.8 42.2c-1.2 0-2.2.8-2.6 1.9l2.3.7-1.9 1.6c.5.7 1.3 1.1 2.2 1.1 1.5 0 2.7-1.2 2.7-2.7s-1.2-2.6-2.7-2.6m7.1.1c-1.2 0-2.2.8-2.6 1.9l2.3.7-1.9 1.6c.5.7 1.3 1.1 2.2 1.1 1.5 0 2.7-1.2 2.7-2.7s-1.2-2.6-2.7-2.6m8.4 1.6c-.3 0-.5-.2-.5-.5-.2-2.3-.5-4.4-1.1-6.2-.1-.3.1-.5.3-.6.3-.1.5.1.6.3.5 1.9.9 4 1.1 6.4.1.3-.1.6-.4.6" class="st2"/><path d="M40.4 67.3c-4.7 0-8.6-2.8-11.3-8.1-2-4-2.5-7.8-2.6-8 0-.3.2-.5.4-.6.3 0 .5.2.6.4 0 .2 2.3 15.3 12.8 15.3 5.7 0 12.5-3.3 12.5-19 0-1.3 0-2.6-.1-3.8 0-.3.2-.5.5-.5s.5.2.5.5c.1 1.2.1 2.5.1 3.9.2 7.3-1.6 19.9-13.4 19.9M22.3 52c-.1 0-.3-.1-.4-.2-1-1-1.5-2.5-1.5-4.1 0-2.9 1.9-5.3 4.1-5.3 1 0 1.9.4 2.6 1.2.2.2.2.5 0 .7s-.5.2-.7 0c-.6-.6-1.2-.9-1.9-.9-1.7 0-3.1 1.9-3.1 4.3 0 1.3.5 2.6 1.3 3.4.2.2.2.5 0 .7-.2.1-.3.2-.4.2" class="st2"/><path d="M26.7 49.3h-.2c-1.4-.6-2.6-1.8-3.3-3.2-.1-.2 0-.5.2-.7.2-.1.5 0 .7.2.6 1.2 1.6 2.2 2.8 2.7.3.1.4.4.3.7-.2.2-.4.3-.5.3" class="st2"/><path d="M24.2 50.4c-.3 0-.5-.2-.5-.5 0-.8.2-1.5.6-2.2.2-.2.5-.3.7-.1s.3.5.1.7c-.3.5-.5 1-.5 1.6.1.3-.1.5-.4.5m13.6-.9c-2.5 0-4.5-2-4.5-4.5s2-4.5 4.5-4.5 4.5 2 4.5 4.5-2 4.5-4.5 4.5m0-8c-1.9 0-3.5 1.6-3.5 3.5s1.6 3.5 3.5 3.5 3.5-1.6 3.5-3.5-1.5-3.5-3.5-3.5" class="st2"/><path d="M45 49.5c-.6 0-2-.1-2.9-1-.2-.2-.2-.5 0-.7s.5-.2.7 0c.8.9 2.4.7 2.4.7 1.8-.2 3.1-1.7 3.1-3.5 0-1.9-1.6-3.5-3.5-3.5-1.2 0-2.4.7-3 1.7-.1.2-.4.3-.7.2-.2-.1-.3-.4-.2-.7.8-1.4 2.3-2.2 3.9-2.2 2.5 0 4.5 2 4.5 4.5 0 2.3-1.7 4.2-4 4.5zm-11.7-9.3q-.15 0 0 0c-.3 0-.5-.3-.5-.5.3-3 4.2-3.2 4.4-3.2.3 0 .5.2.5.5s-.2.5-.5.5c0 0-3.3.1-3.5 2.3 0 .2-.2.4-.4.4m14.7-.6c-.2 0-.4-.1-.5-.3-1.1-2.3-3-1.8-3.1-1.8-.3.1-.5-.1-.6-.3-.1-.3.1-.5.3-.6 1-.3 3.1-.2 4.3 2.3.1.2 0 .5-.2.7z" class="st2"/><path d="M28.6 50.6q-.15 0 0 0c-1.6-.1-2-4.2-2.2-6.6 0-.3.2-.5.5-.5s.5.2.5.5c.1 2.5.6 4.9 1 5.5.4-1.2 0-6.4-.6-10.9 0-.2.1-.4.3-.5 0 0 2.2-1.2 2.8-3.5.4-1.6 0-3.3-1.1-5.1-.1-.1-.1-.3-.1-.4s.1-.3.3-.3c.7-.4 1.5-.4 2.3-.1 1.8.8 3.1 3.4 3.7 4.6 1-1.1 2.9-3.9.4-7.9-.1-.2-.1-.5.2-.7.2-.1.5-.1.7.2 3.7 5.9-1.1 9.7-1.1 9.7-.1.1-.3.1-.4.1-.2 0-.3-.2-.3-.3 0 0-1.4-3.9-3.4-4.8-.3-.1-.6-.2-.9-.1q1.65 2.85.9 5.4c-.6 2.2-2.3 3.5-3 3.9.4 3.4 1.2 10.5.2 11.5-.4.2-.5.3-.7.3m24-11.6c-.2 0-.5-.2-.5-.4-.6-3.6-4.1-5.2-4.2-5.2-.3-.1-.4-.4-.3-.7s.4-.4.7-.3c.2.1 4.1 1.8 4.7 6 .1.3-.1.5-.4.6M28.3 27.9h-.1c-1.3-.3-2.4-1.2-3.1-2.3-.1-.2-.1-.5.2-.7.2-.1.5-.1.7.2.6.9 1.5 1.6 2.5 1.8.3.1.4.3.4.6-.2.3-.4.4-.6.4M25.9 38h-.1c-1.3-.3-2.4-1.2-3.1-2.3-.1-.2-.1-.5.2-.7.2-.1.5-.1.7.2.6.9 1.5 1.6 2.5 1.8.3.1.4.3.4.6-.1.2-.3.4-.6.4m-5.2 10.1h-.1c-.5-.1-1.7-.4-2-1.4-.2-.7.1-1.5.7-2 .5-.4 1.2-.5 1.9-.3s1.3.6 1.5 1.2c.1.3 0 .5-.2.7-.3.1-.5 0-.7-.2-.1-.3-.5-.6-.9-.7s-.8 0-1.1.2-.5.6-.4.9c.1.4.7.6 1.3.7.3.1.4.3.4.6 0 .1-.2.3-.4.3m22.2 6c-1.1 0-2.2-.3-3.2-.9-.2-.1-.3-.5-.2-.7s.5-.3.7-.2c1.3.8 2.9.9 4.3.5-2-2.3-3.2-5.3-3.3-8.4 0-.3.2-.5.5-.5s.5.2.5.5c.1 3.1 1.4 6.1 3.5 8.3.1.1.2.3.1.4 0 .2-.1.3-.3.4-.7.4-1.6.6-2.6.6M36.5 61h-.2c-1.2-.5-2-1.8-1.9-3.1s1.1-2.4 2.3-2.8c.3-.1.5.1.6.4s-.1.5-.4.6c-.8.2-1.5 1-1.5 1.9-.1.9.5 1.7 1.3 2.1.3.1.4.4.3.7-.1.1-.3.2-.5.2m8.4-1.8c-2.3 0-5.4-.8-6.6-1.1-.2 0-.4-.2-.4-.4v-.1c.1-.2.2-.4.5-.4 2.5-.3 3.5-1.2 4.3-1.9.6-.5 1.2-1.1 2.3-1.1 1.2 0 2.2.6 2.6 1.6s.3 2-.4 2.8c-.4.4-1.2.6-2.3.6m-4.3-1.6c2.8.6 5.4.8 5.9.3.4-.5.5-1.1.2-1.7-.3-.7-.9-1-1.7-1-.7 0-1.1.3-1.7.8s-1.4 1.1-2.7 1.6" class="st2"/><path d="M44.9 62.5c-2.9 0-5.4-2.6-6.7-4.3l-.1-.1c-.3-.4-.1-.7.1-.8s.5-.2.8.2c2 2.6 4.2 4.1 6.1 4 .9 0 1.5-.2 1.7-.7.4-.7-.1-1.9-.3-2.3-.1-.2 0-.5.2-.7.2-.1.5 0 .7.2 0 .1 1 2 .3 3.3-.4.8-1.3 1.1-2.6 1.2zm-22.7-6.8c-1.9 0-3.5-1.5-3.5-3.3 0-1.3.8-2.5 2.1-3.1.3-.1.5 0 .7.3.1.3 0 .5-.3.7-.9.4-1.5 1.2-1.5 2.1 0 1.3 1.1 2.3 2.5 2.3s2.5-1 2.5-2.3c0-.9-.6-1.8-1.5-2.1-.3-.1-.4-.4-.3-.7s.4-.4.7-.3c1.3.5 2.1 1.7 2.1 3.1 0 1.8-1.6 3.3-3.5 3.3" class="st2"/><path d="M22 53.9c-.8 0-1.5-.6-1.5-1.4s.7-1.4 1.5-1.4 1.5.6 1.5 1.4-.7 1.4-1.5 1.4m0-1.8c-.2 0-.5.2-.5.4s.2.4.5.4.5-.2.5-.4-.2-.4-.5-.4m3.4.8c-.2 0-.4-.1-.5-.3-.1-.3.1-.5.3-.6.5-.2 1.1-.6 1.5-1.1.2-.2.5-.3.7-.1s.3.5.1.7c-.5.7-1.2 1.2-2 1.4 0-.1-.1 0-.1 0" class="st2"/><path d="M22.3 52c-.3 0-.5-.2-.5-.5 0-1.7 1-2.2 1.6-2.2.3 0 .5.2.5.5s-.2.5-.5.5c-.1 0-.7.1-.7 1.2.1.3-.2.5-.4.5m24.5-16.6c-.2 0-.4-.1-.5-.3-1.9-4.1-8.2-5.6-8.2-5.6-.3-.1-.4-.3-.4-.6.1-.3.3-.4.6-.4.3.1 6 1.4 8.5 5.4.4-.9.9-2.9-.7-5.8-.1-.2 0-.5.2-.7.2-.1.5 0 .7.2 2.5 4.9.2 7.5.1 7.6 0 .2-.1.2-.3.2" class="st2"/><path d="M22.5 44.2c-.2 0-.3-.1-.4-.2-.3-.4-6.2-9.4-3.9-17.7 1.2-4.3 4-6 6.2-6.8 2.5-.8 5.1-.6 6.3 0 3.4-4.8 6.8-4.6 9.9-4.4 2.9.2 5.6.3 8.4-3.6.1-.2.3-.2.5-.2s.3.2.4.4c.1.3 1.9 7.1-2.2 10.5-.2.2-.5.1-.7-.1s-.1-.5.1-.7c2.7-2.2 2.4-6.5 2.1-8.4-2.9 3.5-5.8 3.3-8.6 3.2-3.1-.2-6.1-.3-9.2 4.3-.1.1-.2.2-.3.2s-.3 0-.4-.1c-.5-.4-3-1-5.8-.1-1.9.6-4.5 2.2-5.6 6.1-2.3 7.8 3.6 16.7 3.7 16.8.2.2.1.5-.1.7-.2 0-.3.1-.4.1" class="st2"/><path d="M59.1 42.3c-.6 0-1.5-.1-2.3-.6-1.4-.8-2.5-2.4-3-4.8-.1-.3.1-.5.4-.6s.5.1.6.4c.5 2 1.3 3.4 2.5 4.1.6.3 1.1.4 1.6.5-.9-1.3-1-3.8-1.2-6.8-.4-6.5-.9-14.6-8.3-15.3-.3 0-.5-.3-.5-.5 0-.3.3-.5.5-.5 8.3.8 8.8 9.7 9.2 16.2.2 3.3.4 6.5 1.6 6.7.2 0 .4.2.4.5 0 .2-.1.4-.3.5 0 .1-.5.2-1.2.2" class="st2"/><path d="M53.5 47.7c-.1 0-.2 0-.3-.1-.2-.1-.3-.4-.2-.6 1.9-2.8 2.1-6.7 2.2-6.7 0-.3.3-.5.5-.5.3 0 .5.3.5.5s-.3 4.2-2.3 7.2c-.1.2-.3.2-.4.2" class="st2"/></svg>