<?xml version="1.0" encoding="utf-8"?>
<!-- Generator: Adobe Illustrator 26.5.0, SVG Export Plug-In . SVG Version: 6.00 Build 0)  -->
<svg version="1.1" id="Layer_1" xmlns="http://www.w3.org/2000/svg" xmlns:xlink="http://www.w3.org/1999/xlink" x="0px" y="0px"
	 viewBox="0 0 80 80" style="enable-background:new 0 0 80 80;" xml:space="preserve">
<style type="text/css">
	.st0{fill:#FED607;}
	.st1{fill:#D18000;}
	.st2{fill:#002140;}
	.st3{fill:#FFED8F;}
</style>
<g>
	<rect class="st0" width="80" height="80"/>
</g>
<g>
	<path class="st1" d="M18.4,44.5c0,0-1.6,3.9-4.3,4.2c0,0,3.7,1.6,4,4c0,0,1.5-3.5,4.4-3.9C22.5,48.8,18.6,47.9,18.4,44.5L18.4,44.5
		z"/>
</g>
<g>
	<path class="st1" d="M62.2,44.6c0,0-1.6,3.9-4.3,4.2c0,0,3.7,1.6,4,4c0,0,1.5-3.5,4.4-3.9C66.4,48.8,62.5,47.9,62.2,44.6L62.2,44.6
		z"/>
</g>
<g>
	<path class="st2" d="M39.9,72.4c-18,0-32.7-14.7-32.7-32.7C7.2,21.7,21.9,7,39.9,7c18,0,32.7,14.7,32.7,32.7
		C72.6,57.8,57.9,72.4,39.9,72.4z M39.9,8C22.4,8,8.2,22.3,8.2,39.7s14.2,31.7,31.7,31.7s31.7-14.2,31.7-31.7S57.4,8,39.9,8z"/>
</g>
<g>
	<path class="st2" d="M62.1,53.8c-0.2,0-0.4-0.2-0.5-0.4c-0.8-2.9-1.3-3.4-4.2-4.2c-0.2-0.1-0.4-0.3-0.4-0.5s0.2-0.4,0.4-0.5
		c2.9-0.8,3.4-1.3,4.2-4.2c0.1-0.2,0.3-0.4,0.5-0.4l0,0c0.2,0,0.4,0.2,0.5,0.4c0.8,2.9,1.3,3.4,4.2,4.2c0.2,0.1,0.4,0.3,0.4,0.5
		s-0.2,0.4-0.4,0.5c-2.9,0.8-3.4,1.3-4.2,4.2C62.6,53.7,62.4,53.8,62.1,53.8z M59.3,48.8c1.5,0.6,2.3,1.3,2.9,2.9
		c0.6-1.5,1.3-2.3,2.9-2.9c-1.5-0.6-2.3-1.3-2.9-2.9C61.5,47.5,60.8,48.2,59.3,48.8z"/>
</g>
<g>
	<path class="st2" d="M18,54L18,54c-0.2,0-0.4-0.2-0.5-0.4c-0.8-2.9-1.3-3.4-4.2-4.2C13.1,49.4,13,49.2,13,49s0.2-0.4,0.4-0.5
		c2.9-0.8,3.4-1.3,4.2-4.2c0.1-0.4,0.9-0.4,1,0c0.8,2.9,1.3,3.4,4.2,4.2c0.2,0.1,0.4,0.3,0.4,0.5s-0.2,0.4-0.4,0.5
		c-2.9,0.8-3.4,1.3-4.2,4.2C18.4,53.9,18.3,54,18,54z M15.2,49c1.5,0.6,2.3,1.3,2.9,2.9c0.6-1.5,1.3-2.3,2.9-2.9
		c-1.5-0.6-2.3-1.3-2.9-2.9C17.4,47.7,16.7,48.4,15.2,49z"/>
</g>
<g>
	<path class="st1" d="M46.7,61.1c0,0,0.6-4.5,0.5-4.9c-0.1-0.4,1.2-2.6,1.2-2.6s2.8-1.1,3.5-1.8c0.7-0.7,2.1-2.5,2-4.3
		c-0.1-1.8,0-2.1,0-2.1s5.5-2.1,6.4-5.2c0.9-3.1,1.9-10.8-4-13.4c-4.6-1.7-7.1-1.8-7.9-3.5c-0.9-1.7-3.7-5-5.1-5.3
		c-1.4-0.2-3.1-0.8-4.5-0.4c-1.4,0.3-3.4,1.3-4.4,2.7c-1,1.4-2.2,3.5-3.3,3.9c-1.1,0.4-7.3,2.4-9.2,4.7c-1.9,2.3-3.5,6.4-2.1,10.7
		c1.4,4.3,4.9,5.4,4.9,5.4s2,0.4,1.9,1.3c-0.1,0.9,0.6,4.1,3.1,5.6c2.5,1.5,3.5,2,3.3,3.9c-0.2,1.9,0.3,5.5,0.6,6.2"/>
</g>
<g>
	<path class="st1" d="M47.1,60.6l-14-0.9c0,0,0.7,1.7,1.1,3.5c2.7,1,0,0.4,0,0.4s4.9,0.8,6.6,0.7c1.7-0.1,4.8-1,4.8-1L47.1,60.6
		L47.1,60.6z"/>
</g>
<g>
	<path class="st3" d="M31.7,43.4c3.6,0,6.6-3.4,6.6-7.5c0-4.1-2.9-7.5-6.6-7.5s-6.6,3.4-6.6,7.5C25.1,40.1,28.1,43.4,31.7,43.4z"/>
</g>
<g>
	<path class="st3" d="M49,43.4c3.6,0,6.6-3.4,6.6-7.5c0-4.1-2.9-7.5-6.6-7.5c-3.6,0-6.6,3.4-6.6,7.5C42.5,40.1,45.4,43.4,49,43.4z"
		/>
</g>
<g>
	<path class="st2" d="M34.6,50.4c0,0,1.2,4.8,5.4,4.8c4.2,0,5.6-5.1,5.6-5.1s-9.6,0-10.3-0.1C34.5,50,34.4,50.1,34.6,50.4L34.6,50.4
		z"/>
</g>
<g>
	<path class="st3" d="M34.4,49.8c0,0,7.3,1.3,11.4,0c0,0,0.9-3.7-1-3.9s-3.7,1.7-4.4,1.5c-0.8-0.2-2.3-2.1-4-1.5
		S33.8,47.9,34.4,49.8L34.4,49.8z"/>
</g>
<g>
	<path class="st2" d="M34.7,63.7c-0.1,0-0.2,0-0.3-0.1c-2.1-1.5-1.9-4.8-1.9-6.9c0-0.7,0.1-1.5,0-1.7c-0.4-0.8-1.3-1.4-2.3-2.1
		c-2-1.4-4.6-3.2-4.2-7c-0.2-0.1-0.5-0.2-0.7-0.2c-2-0.6-6.2-1.9-6.2-9.8c0-8.1,6.7-10.4,10.4-11.6c0.8-0.3,1.6-0.5,1.9-0.7
		c0.6-0.4,1.1-1.1,1.6-2c1.2-1.9,2.8-4.6,7.4-4.6c4.6,0,6.6,2.9,8,5c0.6,0.9,1.1,1.7,1.7,2c0.4,0.2,1.1,0.4,1.9,0.6
		c3.4,1,9.2,2.6,9.8,9.7c0.7,8.4-4.8,10.9-7.1,11.5c0.6,5.1-2,6.5-4.1,7.5c-0.9,0.5-1.8,0.9-2.2,1.6c-0.3,0.4-0.3,1.5-0.4,2.5
		c-0.1,2-0.2,4.5-1.8,5.9c-0.2,0.2-0.5,0.2-0.7,0s-0.2-0.5,0-0.7c1.2-1.2,1.4-3.4,1.4-5.2c0.1-1.3,0.1-2.4,0.6-3
		c0.6-0.9,1.6-1.4,2.6-1.9c2.1-1.1,4.2-2.2,3.6-7c0-0.3,0.1-0.5,0.4-0.6c2.3-0.5,7.5-2.6,6.8-10.6c-0.6-6.4-5.7-7.8-9.1-8.8
		c-0.9-0.3-1.6-0.5-2.1-0.7c-0.8-0.4-1.4-1.3-2-2.3c-1.4-2-3.1-4.6-7.1-4.6c-4,0-5.4,2.2-6.5,4.1c-0.6,1-1.1,1.9-2,2.3
		c-0.5,0.3-1.2,0.5-2.1,0.8c-3.6,1.2-9.7,3.2-9.7,10.6c0,7.2,3.6,8.3,5.5,8.9c0.6,0.2,1.1,0.3,1.3,0.6c0.1,0.1,0.1,0.2,0.1,0.4
		c-0.4,3.4,1.7,4.9,3.8,6.3c1.1,0.8,2.2,1.5,2.6,2.5c0.2,0.4,0.2,1,0.2,2.2c-0.1,2-0.2,4.9,1.5,6.1c0.2,0.2,0.3,0.5,0.1,0.7
		C35,63.7,34.8,63.7,34.7,63.7z"/>
</g>
<g>
	<path class="st2" d="M31.6,44.1c-3.9,0-7.1-3.6-7.1-8c0-4.4,3.2-8,7.1-8c3.9,0,7.1,3.6,7.1,8C38.7,40.5,35.5,44.1,31.6,44.1z
		 M31.6,29c-3.4,0-6.1,3.2-6.1,7c0,3.9,2.7,7,6.1,7c3.4,0,6.1-3.2,6.1-7C37.7,32.2,35,29,31.6,29z"/>
</g>
<g>
	<path class="st2" d="M33.2,36.2l2.8-1.9c-0.6-2.2-2.4-3.8-4.5-3.8c-2.6,0-4.7,2.4-4.7,5.3s2.1,5.3,4.7,5.3c1.9,0,3.5-1.3,4.2-3.1
		L33.2,36.2z"/>
</g>
<g>
	<path class="st2" d="M49,44.1c-3.9,0-7.1-3.6-7.1-8c0-4.4,3.2-8,7.1-8s7.1,3.6,7.1,8C56,40.5,52.9,44.1,49,44.1z M49,29
		c-3.4,0-6.1,3.2-6.1,7c0,3.9,2.7,7,6.1,7s6.1-3.2,6.1-7C55,32.2,52.3,29,49,29z"/>
</g>
<g>
	<path class="st2" d="M50.9,36.2l2.8-1.9c-0.6-2.2-2.4-3.8-4.5-3.8c-2.6,0-4.7,2.4-4.7,5.3s2.1,5.3,4.7,5.3c1.9,0,3.5-1.3,4.2-3.1
		L50.9,36.2z"/>
</g>
<g>
	<path class="st2" d="M40.1,55.8c-2.7,0-4.8-2.3-5.6-4.2c-0.9-2.1-0.9-4.1,0.1-5.3c1.7-2,3.4-0.8,4.5-0.1c0.4,0.3,0.9,0.6,1.1,0.6
		c0.3,0,0.8-0.3,1.3-0.6c1.2-0.7,3.1-1.8,4.5-0.2c0,0,0,0,0,0c0.9,1.1,0.8,3.2-0.3,5.3C44.7,53.6,42.7,55.8,40.1,55.8z M36.6,46.3
		c-0.4,0-0.9,0.2-1.3,0.7c-0.8,0.9-0.7,2.5,0,4.2c0.8,1.7,2.5,3.6,4.7,3.6c2.2,0,3.9-2,4.8-3.8c0.8-1.7,1-3.5,0.4-4.2c0,0,0,0,0,0
		c-0.8-1-1.8-0.5-3.2,0.4c-0.7,0.4-1.3,0.8-1.9,0.8c-0.6,0-1.1-0.4-1.7-0.8C37.7,46.6,37.2,46.3,36.6,46.3z"/>
</g>
<g>
	<path class="st2" d="M40.3,50.9c-3.3,0-5.7-0.4-5.8-0.4c-0.3,0-0.5-0.3-0.4-0.6s0.3-0.5,0.6-0.4c0.1,0,5.3,0.9,10.8,0
		c0.3,0,0.5,0.1,0.6,0.4c0,0.3-0.1,0.5-0.4,0.6C43.7,50.8,41.9,50.9,40.3,50.9z"/>
</g>
<g>
	<path class="st2" d="M36.9,50.7c-0.2,0-0.5-0.2-0.5-0.4c-0.2-1.1,0-4,0-4.2c0-0.3,0.3-0.5,0.5-0.5c0.3,0,0.5,0.2,0.5,0.5
		c0,0-0.1,3,0,4C37.4,50.4,37.3,50.6,36.9,50.7C37,50.7,36.9,50.7,36.9,50.7z"/>
</g>
<g>
	<path class="st2" d="M43.3,50.7C43.2,50.7,43.2,50.7,43.3,50.7c-0.3,0-0.5-0.3-0.5-0.6c0.3-2.1,0-3.9,0-3.9c0-0.3,0.1-0.5,0.4-0.6
		c0.3,0,0.5,0.1,0.6,0.4c0,0.1,0.3,2,0,4.2C43.7,50.6,43.5,50.7,43.3,50.7z"/>
</g>
<g>
	<path class="st2" d="M40.2,50.7c-0.3,0-0.5-0.2-0.5-0.4c-0.1-0.5-0.1-1.4,0-2.7c0-0.3,0.2-0.5,0.5-0.5c0.3,0,0.5,0.2,0.5,0.5
		c0,1.3,0,2.2,0,2.6C40.7,50.5,40.5,50.7,40.2,50.7C40.2,50.7,40.2,50.7,40.2,50.7z"/>
</g>
<g>
	<path class="st2" d="M40,64.5c-1.8,0-6.1-0.2-6.1-1.5c0-0.3,0.2-0.5,0.5-0.5c0.2,0,0.4,0.2,0.5,0.4c0.3,0.3,2.1,0.7,5.1,0.7
		s4.8-0.4,5.1-0.7c0.1-0.2,0.3-0.4,0.5-0.4c0.3,0,0.5,0.2,0.5,0.5C46.1,64.4,41.9,64.5,40,64.5z"/>
</g>
</svg>
