<svg xmlns="http://www.w3.org/2000/svg" xml:space="preserve" id="Layer_1" x="0" y="0" viewBox="0 0 80 80"><style>.st0{fill:#8dc8ff}.st1{fill:#002140}.st2{fill:#0164bf}.st3{fill:#0185ff}</style><path d="M0 0h80v80H0z" class="st0"/><path d="M40.2 72.4c-18 0-32.7-14.7-32.7-32.7S22.2 7 40.2 7s32.7 14.7 32.7 32.7c0 18.1-14.7 32.7-32.7 32.7m0-64.4C22.7 8 8.5 22.3 8.5 39.7c0 17.5 14.2 31.7 31.7 31.7s31.7-14.2 31.7-31.7C71.9 22.3 57.7 8 40.2 8" class="st1"/><path d="M20.4 19.7s-1.6 3.9-4.3 4.2c0 0 3.7 1.6 4 4 0 0 1.5-3.5 4.4-3.9.1 0-3.9-.9-4.1-4.3" class="st2"/><path d="M20 29.2c-.2 0-.4-.2-.5-.4-.8-2.9-1.3-3.4-4.2-4.2-.2-.1-.4-.3-.4-.5s.2-.4.4-.5c2.9-.8 3.4-1.3 4.2-4.2.1-.4.9-.4 1 0 .8 2.9 1.3 3.4 4.2 4.2.2.1.4.3.4.5s-.2.4-.4.5c-2.9.8-3.4 1.3-4.2 4.2 0 .2-.2.4-.5.4m-2.8-5c1.5.6 2.3 1.3 2.9 2.9.6-1.5 1.3-2.3 2.9-2.9-1.5-.6-2.3-1.3-2.9-2.9-.6 1.5-1.4 2.3-2.9 2.9" class="st1"/><path d="M64.2 42.3s-1.6 3.9-4.3 4.2c0 0 3.7 1.6 4 4 0 0 1.5-3.5 4.4-3.9.1 0-3.8-.9-4.1-4.3" class="st2"/><path d="M63.9 51.8c-.2 0-.4-.2-.5-.4-.8-2.9-1.3-3.4-4.2-4.2-.2-.1-.4-.3-.4-.5s.2-.4.4-.5c2.9-.8 3.4-1.3 4.2-4.2.1-.2.3-.4.5-.4s.4.2.5.4c.8 2.9 1.3 3.4 4.2 4.2.2.1.4.3.4.5s-.2.4-.4.5c-2.9.8-3.4 1.3-4.2 4.2-.1.3-.3.4-.5.4m-2.9-5c1.5.6 2.3 1.3 2.9 2.9.6-1.5 1.3-2.3 2.9-2.9-1.5-.6-2.3-1.3-2.9-2.9-.6 1.6-1.3 2.3-2.9 2.9" class="st1"/><path d="M26.9 51.2S26.4 63.7 38 64.7c7.7.5 10.1-5.4 11.4-8 1.4-2.6 2.2-3.6 3.8-4s3.9-1.2 3.3-3.1-1.9-2.4-3.3-2.4l-1.4-.2.3-1.6s1.9-.8 2.6-3c.6-2.2 0-5.6 0-5.6s1.4.5 1.8 1.1 1.8 1.5 3.1 1.3c1.4-.2 4.1-1.8 3.4-6.4s-4.8-3.7-5.4-3.1-2.4 2.3-3.2 2.2L47.2 23s-1.8-6.7-10.2-6.8c-9.2 2-8.4 10.1-8.4 10.1l-.5 8.9s-1 .7-2.7-.3-3.2-2.6-5-2.2c-1.8.5-2.7 2.1-3.1 3.8s.8 6.2 3.9 6.2c3.2 0 3.7-3.5 6.4-3 .1 0-.9 9.7-.7 11.5" class="st3"/><path d="M40.9 34.4c2.7-.1 4.8-2.8 4.7-6.1s-2.4-5.8-5.1-5.8c-2.7.1-4.8 2.8-4.7 6.1s2.4 5.9 5.1 5.8m5.1-5s4.5-.1 7.2 3.9c0 0 4.5-4.9.4-9.7s-8.1 2.3-8.1 2.6v-.4z" class="st0"/><path d="M51.3 45.8c-.3 0-.6-.1-1-.2-.6-.3-1-1-1.2-1.9-.2-.8-.2-1.6-.3-2.4-.1-1.3-.2-2.6-.8-2.8-.3-.1-.4-.4-.3-.6.1-.3.4-.4.6-.3 1.2.4 1.4 2 1.5 3.7.1.8.1 1.5.3 2.3.1.6.4 1.1.7 1.3.4.2.9.1.9.1h.2s.9 0 1.6-.8c.7-.7 1.4-2.4.9-5.8-1.1-8.2-7.9-8.3-8.7-8.3-.3 0-.5-.2-.5-.5s.2-.5.5-.5h.1c3.2 0 8.6 1.9 9.6 9.1q.6 4.65-1.2 6.6c-.9 1-1.9 1.1-2.3 1.1-.1-.1-.4-.1-.6-.1" class="st1"/><path d="M51.8 47.5c-.3 0-.5-.2-.5-.5v-1.5c0-.3.2-.5.5-.5s.5.2.5.5V47c.1.3-.2.5-.5.5.1 0 0 0 0 0m-4.1-5c-.7 0-1.4-.4-1.8-1-.1-.2-.1-.5.2-.7.2-.1.5-.1.7.2s.6.5 1 .5.7-.3.9-.7c.1-.3.4-.4.6-.3.3.1.4.4.3.6-.2.8-.9 1.3-1.7 1.4zm-15 4.4c-1 0-2.1-.2-3.1-.6-.3-.1-.4-.4-.3-.6.1-.3.4-.4.6-.3 1.9.7 4 .7 5.6-.1 1.7-.9 2.7-2.9 2.3-4.6-.1-.3.1-.5.4-.6s.5.1.6.4c.5 2.1-.7 4.6-2.8 5.7-1 .4-2.1.7-3.3.7" class="st1"/><path d="M39 65.2c-.4 0-.8 0-1.1-.1-3.6-.4-7.1-2.6-9.2-5.9-3.4-5.5-1.7-19.1-1.7-19.7 0-.3.3-.5.6-.4.3 0 .5.3.4.6 0 .1-1.7 13.9 1.5 19 2 3.1 5.1 5.1 8.5 5.5 3.5.4 7.1-1.2 9-4 .5-.8 1-1.8 1.4-2.7 1-2.1 1.9-4.2 4.1-5.1.4-.2.9-.3 1.3-.4.8-.2 1.6-.4 2.1-1 .5-.8.1-1.9-.5-2.5-.9-.7-2.1-.8-3-.7-1.8.1-3.6.8-5.3 1.4l-.8.3c-2.1.8-4.4 1.5-6.7 1.1-2.1-.4-4.4-2-4.7-4.3 0-.3.1-.5.4-.6.3 0 .5.1.6.4.3 1.9 2.2 3.2 3.9 3.5 2 .4 4.2-.3 6.2-1l.8-.3c1.8-.7 3.6-1.4 5.6-1.5 1.5-.1 2.8.2 3.7 1 1 .8 1.6 2.5.7 3.8-.8.8-1.8 1-2.8 1.3l-1.2.3c-1.8.7-2.7 2.6-3.6 4.6-.4 1-.9 1.9-1.5 2.8-1.7 2.8-5.1 4.6-8.7 4.6M28.2 35.6c-.3 0-.5-.2-.5-.5 0-.4.2-10 .9-12.5 1-3.5 4.1-6.2 7.7-6.9 3.1-.6 6.5.5 8.8 2.8.2.2.2.5 0 .7s-.5.2-.7 0c-2.1-2.1-5.1-3-7.9-2.5-3.2.6-6 3.1-6.9 6.2-.7 2.3-.9 12.1-.9 12.2 0 .3-.3.5-.5.5" class="st1"/><path d="M47.2 23.9c-.2 0-.4-.1-.5-.4-.4-1.4-1-2.5-1.7-3.4-.2-.3-.5-.6-.7-.9-.2-.2-.2-.5 0-.7s.5-.2.7 0c.3.3.6.6.8 1 .8 1.1 1.4 2.3 1.8 3.7.1.3-.1.5-.3.6 0 .1 0 .1-.1.1M21 43.1s-.1 0 0 0c-.3 0-.6-.2-.5-.5 0-.3.2-.5.5-.5 1 0 1.9-.3 2.6-1 .2-.1.3-.3.5-.5l.6-.6c1.6-1.4 4.3-1.4 5.9 0 .2.2.2.5.1.7-.2.2-.5.2-.7.1-1.2-1.1-3.3-1.1-4.6 0l-.5.5c-.2.2-.3.4-.5.5-1 .9-2.2 1.3-3.4 1.3m6.3-7.4q-1.65 0-3-.9c-.3-.2-.6-.4-.8-.7-.3-.3-.6-.5-.9-.7-.5-.3-1-.5-1.7-.5-.3 0-.5-.2-.5-.5s.2-.5.5-.5c.8 0 1.6.2 2.2.6.4.2.7.5 1 .8.2.2.5.4.8.6 1.5 1.1 3.8 1 5.2-.2.2-.2.5-.2.7.1.2.2.2.5-.1.7-.9.8-2.1 1.2-3.4 1.2m-6.5 4.9q-.15 0 0 0c-.4-.1-.5-.3-.5-.6.6-3.3 0-5.3 0-5.4-.1-.3.1-.5.3-.6.3-.1.5.1.6.3 0 .1.7 2.3 0 5.9 0 .3-.2.4-.4.4" class="st1"/><path d="M21.1 43.1c-1.1 0-2.1-.6-2.9-1.6s-1.2-2.4-1.3-3.9c-.1-3.5 1.4-5.6 4.1-5.7.3 0 .5.2.5.5s-.2.5-.5.5c-3 .1-3.2 3.3-3.1 4.7 0 1.3.4 2.4 1.1 3.3.6.8 1.4 1.3 2.2 1.2.3 0 .5.2.5.5s-.2.5-.6.5c.1 0 0 0 0 0" class="st1"/><path d="M21 38.4c-.2 0-.4-.1-.5-.3s-.2-.5-.3-.7-.3-.3-.4-.3c-.3-.1-.4-.4-.3-.6.1-.3.4-.4.6-.3.4.1.7.3.9.7.2.3.3.6.5.9.1.3 0 .5-.3.7-.1-.2-.1-.1-.2-.1m38.6 1.4c-1.1 0-2.2-.4-3-1-.2-.2-.4-.3-.5-.5l-.5-.5c-.3-.2-.6-.4-1-.5-.3-.1-.4-.4-.3-.6.1-.3.4-.4.6-.3.5.2.9.4 1.3.7.2.2.4.3.6.5.2.1.3.3.5.4.7.6 1.7.9 2.7.8.3 0 .5.2.5.5s-.2.5-.5.5zm-5.2-7.4c-.2 0-.4-.1-.5-.3q-.15-.45.3-.6c.4-.2.8-.4 1.1-.6s.5-.4.7-.7c.3-.3.6-.6 1-.9.6-.4 1.4-.7 2.2-.7.3 0 .5.2.5.5s-.2.5-.5.5c-.6 0-1.2.2-1.6.6-.3.2-.6.5-.9.8s-.5.5-.8.7c-.4.3-.9.6-1.4.8 0-.1 0-.1-.1-.1" class="st1"/><path d="M54.1 32.5c-.2 0-.4-.1-.5-.4s.1-.5.3-.6c.1 0 .2-.1.3-.1q.45-.15.6.3t-.3.6c-.1 0-.2.1-.4.1.1.1 0 .1 0 .1m5.8 4.7c-.2 0-.4-.1-.5-.4-.9-3.4-.4-5.7-.4-5.8.1-.3.3-.4.6-.4.3.1.4.3.4.6 0 0-.5 2.1.4 5.4.1.3-.1.5-.4.6z" class="st1"/><path d="M59.6 39.8c-.3 0-.5-.2-.5-.5s.2-.5.5-.5c1.7-.1 3.1-2.2 3-4.7 0-1.4-.4-4.5-3.3-4.5h-.1c-.3 0-.5-.2-.5-.5s.2-.5.5-.5c2.7-.1 4.3 2 4.4 5.4.1 3.1-1.7 5.7-4 5.8" class="st1"/><path d="M59.5 35h-.2c-.3-.1-.4-.4-.3-.6.1-.3.2-.6.4-.9.2-.4.5-.6.9-.7q.45-.15.6.3c.15.45 0 .5-.3.6-.1.1-.3.2-.4.3-.1.2-.2.4-.3.7 0 .2-.2.3-.4.3m-18.8-.1c-3 0-5.5-2.7-5.6-6.2-.1-1.7.5-3.3 1.5-4.5 1-1.3 2.4-2 3.9-2 3.1-.1 5.6 2.7 5.7 6.2s-2.3 6.4-5.3 6.5zm-.1-11.8h-.1c-1.2 0-2.3.6-3.1 1.6s-1.3 2.4-1.2 3.9c.1 3 2.2 5.3 4.7 5.2s4.4-2.5 4.4-5.5c-.2-2.9-2.2-5.2-4.7-5.2" class="st1"/><path d="M40.7 26c-1.7 0-3.1 1.5-3.4 3.5l2.8.7-2.5 2c.6 1.4 1.8 2.3 3.1 2.3 1.9 0 3.5-1.9 3.5-4.3s-1.6-4.3-3.5-4.2m12.1 6.7c.4-.7.7-1.6.7-2.5 0-2.3-1.6-4.2-3.6-4.2-1.7 0-3.1 1.5-3.4 3.5l2.8.7-.2.1" class="st1"/><path d="M53.1 33.6c-.1 0-.3-.1-.4-.2-.2-.2-.1-.5.1-.7 1.3-1 2.1-2.8 2-4.6-.1-2.9-2.1-5.2-4.6-5.2h-.1c-2 .1-3.7 1.6-4.2 3.9-.1.3-.3.4-.6.4-.3-.1-.4-.3-.4-.6.6-2.7 2.7-4.6 5.1-4.7 3-.1 5.6 2.7 5.7 6.2.1 2.2-.8 4.2-2.4 5.5zM40.4 64.9c-.3 0-.5-.3-.5-.5 0-.5-.1-1-.3-1.4-.1-.1-.1-.3-.2-.4-.2-.4-.3-.8-.5-1.2-.1-.5-.2-1.3.2-2s1.3-1.1 2-.9c.4.1.7.4.8.7q.15.45 0 .9c-.1.2-.4.3-.7.2-.2-.1-.3-.4-.2-.7 0 0-.1-.2-.2-.2-.3-.1-.7.1-.8.4-.2.3-.2.8-.1 1.3.1.4.2.7.4 1.1.1.1.1.3.2.4.2.5.4 1.2.4 1.9 0 .2-.3.4-.5.4" class="st1"/></svg>