<?xml version="1.0" encoding="utf-8"?>
<!-- Generator: Adobe Illustrator 26.5.0, SVG Export Plug-In . SVG Version: 6.00 Build 0)  -->
<svg version="1.1" id="Layer_1" xmlns="http://www.w3.org/2000/svg" xmlns:xlink="http://www.w3.org/1999/xlink" x="0px" y="0px"
	 viewBox="0 0 80 80" style="enable-background:new 0 0 80 80;" xml:space="preserve">
<style type="text/css">
	.st0{fill:#8EECC4;}
	.st1{fill:#008C59;}
	.st2{fill:#002140;}
	.st3{fill:#03D47C;}
</style>
<g>
	<rect class="st0" width="80" height="80"/>
</g>
<g>
	<path class="st1" d="M14.6,35.7c0,0-1.6,3.9-4.3,4.2c0,0,3.7,1.6,4,4c0,0,1.5-3.5,4.4-3.9C18.8,39.9,14.9,39.1,14.6,35.7L14.6,35.7
		z"/>
</g>
<g>
	<path class="st1" d="M65.6,35.7c0,0-1.6,3.9-4.3,4.2c0,0,3.7,1.6,4,4c0,0,1.5-3.5,4.4-3.9C69.8,40,65.9,39.1,65.6,35.7L65.6,35.7z"
		/>
</g>
<g>
	<path class="st0" d="M30.5,32.1c0,0,0.2,7.1,9.4,7.1s8.2-7.6,8.2-7.6s-3.7-3.3-8.6-3.4C34.6,28.2,30.5,32.1,30.5,32.1L30.5,32.1z"
		/>
</g>
<g>
	<path class="st0" d="M47.7,48.3H33.1l1.1,3.3h12.6L47.7,48.3z"/>
</g>
<g>
	<path class="st2" d="M39.9,72.4c-18,0-32.7-14.7-32.7-32.7C7.2,21.7,21.9,7,39.9,7c18,0,32.7,14.7,32.7,32.7
		C72.6,57.8,57.9,72.4,39.9,72.4z M39.9,8C22.4,8,8.2,22.3,8.2,39.7s14.2,31.7,31.7,31.7s31.7-14.2,31.7-31.7S57.4,8,39.9,8z"/>
</g>
<g>
	<path class="st2" d="M65.5,44.9c-0.2,0-0.4-0.2-0.5-0.4c-0.8-2.9-1.3-3.4-4.2-4.2c-0.2-0.1-0.4-0.3-0.4-0.5s0.2-0.4,0.4-0.5
		c2.9-0.8,3.4-1.3,4.2-4.2c0.1-0.2,0.3-0.4,0.5-0.4l0,0c0.2,0,0.4,0.2,0.5,0.4c0.8,2.9,1.3,3.4,4.2,4.2c0.2,0.1,0.4,0.3,0.4,0.5
		s-0.2,0.4-0.4,0.5c-2.9,0.8-3.4,1.3-4.2,4.2C65.9,44.8,65.7,44.9,65.5,44.9z M62.7,39.9c1.5,0.6,2.3,1.3,2.9,2.9
		c0.6-1.5,1.3-2.3,2.9-2.9c-1.5-0.6-2.3-1.3-2.9-2.9C64.9,38.6,64.2,39.3,62.7,39.9z"/>
</g>
<g>
	<path class="st2" d="M14.3,45.2L14.3,45.2c-0.2,0-0.4-0.2-0.5-0.4c-0.8-2.9-1.3-3.4-4.2-4.2c-0.2-0.1-0.4-0.3-0.4-0.5
		s0.2-0.4,0.4-0.5c2.9-0.8,3.4-1.3,4.2-4.2c0.1-0.4,0.9-0.4,1,0c0.8,2.9,1.3,3.4,4.2,4.2c0.2,0.1,0.4,0.3,0.4,0.5s-0.2,0.4-0.4,0.5
		c-2.9,0.8-3.4,1.3-4.2,4.2C14.7,45,14.5,45.2,14.3,45.2z M11.4,40.1c1.5,0.6,2.3,1.3,2.9,2.9c0.6-1.5,1.3-2.3,2.9-2.9
		c-1.5-0.6-2.3-1.3-2.9-2.9C13.7,38.8,13,39.6,11.4,40.1z"/>
</g>
<g>
	<path class="st1" d="M39.9,25.5c0,0-18.4,0.6-19.5,18.9c0.9,18.2,17.1,19.5,19.3,19.3c5.1,0.2,16-3.3,18.4-13.6
		C60.6,40,57.4,27.7,39.9,25.5L39.9,25.5z"/>
</g>
<g>
	<path class="st3" d="M52.5,36.2c-1.3-3.1-5.1-1.1-7-1.8c-1.8-0.7-2.2-4.8-5.9-4.8c-3.7,0-4.4,3.6-5.7,4.6c-1.3,1-5.2-0.9-7.1,1.9
		c-1.9,2.8,1.3,6.4,1.5,7.8c0.2,1.3-3.8,4.5-2.3,7.5c1.6,3,4.5,2.2,7.2,3.3c2.7,1.1,2.2,4.5,6.9,4.4c4.6-0.1,6.6-4.5,7.6-5.7
		c1-1.2,5-0.7,6.3-3.3c1.4-2.5-2-5-2.7-7.4C50.9,40.3,53.9,39.3,52.5,36.2L52.5,36.2z"/>
</g>
<g>
	<path class="st0" d="M39.9,25.5c0,0,5.1,0.2,8.8,2.2c0,0,4.6-11.4-2.5-12.1C39.2,15,39.9,25.5,39.9,25.5L39.9,25.5z"/>
</g>
<g>
	<path class="st0" d="M31.4,27.4c0.2,0.2,8.5-1.8,8.5-1.8l0.4-5.8c0,0-1.3-4.9-5.9-4C29.8,16.8,28.6,22.4,31.4,27.4z"/>
</g>
<g>
	<path class="st2" d="M46.8,39.7c-1.1-1.4-0.7,2.9-2.4,2.6c-1.7-0.3-2.5-2.1-2.5-2.1s-0.9,2-2.8,1.7c-1.9-0.4-2.7-1.6-2.7-1.6
		s-0.6,1.9-2.2,1.7c-1.6-0.3-2.8-2.3-2.8-2.3s-1.3,1.8-1,5.2c0,2.6,3.1,6.9,8.8,6.5C45.1,51.1,50.5,46.4,46.8,39.7L46.8,39.7z"/>
</g>
<g>
	<path class="st0" d="M32,39c0,0-0.2,3,2.3,3c2.5,0,2.4-3.1,2.4-3.1s-0.5,2.7,2.5,3c3,0.3,2.9-2.5,2.9-2.5s0,2.8,2.4,2.9
		c1.7,0.1,2.4-2.9,2.4-2.9s-1.9-3-7.5-3S32,39,32,39L32,39z"/>
</g>
<g>
	<path class="st1" d="M50.2,21.3l-0.9,5.5c0,0,7,0.4,7.1-2.6c0.1-2.9-2.4-3.2-3.1-3.3C52.7,20.8,50.2,21.3,50.2,21.3L50.2,21.3z"/>
</g>
<g>
	<path class="st2" d="M48.8,28.1c-0.1,0-0.1,0-0.2,0c-0.3-0.1-0.4-0.4-0.3-0.6c0-0.1,2.3-6.2,0.5-9.4c-0.5-1-1.4-1.5-2.6-1.7
		c-1.5-0.2-2.9,0.2-3.9,1.2c-1.6,1.5-2.3,4.4-2,8c0,0.3-0.2,0.5-0.5,0.5c-0.3,0-0.5-0.2-0.5-0.5c-0.3-4,0.5-7.1,2.3-8.8
		c1.2-1.2,2.9-1.7,4.7-1.5c1.5,0.3,2.6,1,3.3,2.2c2,3.6-0.4,10-0.5,10.3C49.2,28,49,28.1,48.8,28.1z"/>
</g>
<g>
	<path class="st2" d="M31.4,27.9c-0.2,0-0.4-0.1-0.5-0.3C29.2,24,29,20.3,30.4,18c0.9-1.5,2.3-2.4,4.1-2.6c5.1-0.5,6.2,4.2,6.2,4.2
		c0.1,0.3-0.1,0.5-0.4,0.6c-0.3,0.1-0.5-0.1-0.6-0.4c0-0.2-1-3.9-5.2-3.4c-1.5,0.1-2.6,0.9-3.3,2.1c-1.2,2.1-1,5.5,0.5,8.7
		c0.1,0.2,0,0.5-0.2,0.7C31.5,27.9,31.4,27.9,31.4,27.9z"/>
</g>
<g>
	<path class="st2" d="M45,18.3c-1.5,0-2.8,1.1-3.1,2.6l1.5,0.7l-1.5,0.9c0.3,1.5,1.6,2.6,3.1,2.6c1.8,0,3.2-1.5,3.2-3.4
		C48.2,19.9,46.8,18.3,45,18.3L45,18.3z"/>
</g>
<g>
	<path class="st2" d="M35.5,18.2c-1.5,0-2.8,1.1-3.1,2.6l1.5,0.7l-1.5,0.9c0.3,1.5,1.6,2.6,3.1,2.6c1.8,0,3.2-1.5,3.2-3.4
		C38.7,19.7,37.2,18.2,35.5,18.2L35.5,18.2z"/>
</g>
<g>
	<path class="st2" d="M50.9,27.5c-1,0-1.7-0.1-1.7-0.1c-0.3,0-0.5-0.3-0.4-0.6s0.3-0.5,0.6-0.4c0,0,4.3,0.5,6.1-1
		c0.5-0.4,0.7-0.9,0.7-1.5c0-0.9-0.3-1.6-0.9-2c-1.3-0.8-3.8-0.4-4.8,0c-0.3,0.1-0.5,0-0.7-0.2c-0.1-0.3,0-0.5,0.2-0.7
		c1.2-0.5,4.1-1.1,5.8,0c0.6,0.4,1.4,1.2,1.3,2.8c0,0.9-0.4,1.7-1,2.2C54.7,27.3,52.4,27.5,50.9,27.5z"/>
</g>
<g>
	<path class="st2" d="M49.8,25c-0.2,0-0.4-0.1-0.5-0.3c-0.1-0.3,0-0.5,0.3-0.6c1.9-0.7,4.5-0.7,4.6-0.6c0.3,0,0.5,0.2,0.5,0.5
		c0,0.3-0.2,0.5-0.5,0.5c0,0-2.5-0.1-4.2,0.6C49.9,25,49.8,25,49.8,25z"/>
</g>
<g>
	<path class="st2" d="M39.2,51.8c-5.5,0-8.5-2.5-9.1-7.5l0-0.3c0-0.3-0.4-3.1,1.5-5.4c1.5-1.8,4-2.7,7.4-2.8H39
		c2.8,0,6.5,0.5,8.3,3.5c0.6,1.1,1,2.4,1.1,3.7c0.1,2.2-0.7,4.3-2,5.9C44.8,50.8,42.2,51.8,39.2,51.8z M39.3,36.9
		c-0.1,0-0.2,0-0.2,0h-0.1c-3.1,0.1-5.3,0.9-6.6,2.4c-1.6,1.9-1.3,4.3-1.3,4.6c0,0.1,0,0.2,0,0.3c0.2,1.6,0.8,6.6,8.1,6.6
		c2.8,0,5-0.9,6.4-2.5c1.2-1.4,1.9-3.3,1.8-5.2l0,0c0-1.2-0.4-2.3-0.9-3.2C45,37.5,41.8,36.9,39.3,36.9z"/>
</g>
<g>
	<path class="st2" d="M34.1,42.5c-0.8,0-1.4-0.2-1.9-0.7c-0.9-0.9-1-2.3-1-2.4c0-0.3,0.2-0.5,0.5-0.5c0,0,0,0,0,0
		c0.3,0,0.5,0.2,0.5,0.5c0,0,0,1.1,0.6,1.7c0.3,0.3,0.7,0.4,1.3,0.4c0.5,0,0.9-0.2,1.2-0.6c0.6-0.7,0.8-2.2,0.5-4
		c0-0.3,0.1-0.5,0.4-0.6c0.3,0,0.5,0.1,0.6,0.4c0.2,1.2,0.4,3.5-0.7,4.8c-0.5,0.6-1.1,0.9-2,0.9C34.2,42.5,34.2,42.5,34.1,42.5z"/>
</g>
<g>
	<path class="st2" d="M44.5,42.8c-0.1,0-0.1,0-0.2,0c-0.8,0-1.5-0.3-1.9-0.8c-1-1.1-0.8-3.1-0.7-5.1c0-0.3,0.3-0.5,0.5-0.5
		c0.3,0,0.5,0.3,0.5,0.5c-0.1,1.7-0.3,3.5,0.5,4.3c0.3,0.3,0.7,0.5,1.2,0.5c0.5,0,1-0.1,1.3-0.4c0.6-0.6,0.6-1.7,0.6-1.7
		c0-0.3,0.2-0.5,0.5-0.5c0.3,0,0.5,0.2,0.5,0.5c0,0.1,0,1.5-1,2.4C45.9,42.6,45.2,42.8,44.5,42.8z"/>
</g>
<g>
	<path class="st2" d="M39.2,42.5c-0.9,0-1.6-0.3-2.2-0.9c-1-1-0.9-2.6-0.9-2.6c0-0.3,0.3-0.5,0.5-0.5c0.3,0,0.5,0.2,0.5,0.5
		c0,0,0,1.2,0.6,1.9c0.4,0.4,0.8,0.5,1.5,0.5c2.2,0,2.3-2.4,2.3-2.5c0-0.3,0.2-0.5,0.5-0.5c0.3,0,0.5,0.2,0.5,0.5
		C42.5,40.3,41.7,42.5,39.2,42.5z"/>
</g>
<g>
	<path class="st2" d="M39.8,64.3c-10.9,0-19.8-8.8-19.8-19.5c0-10.8,8.9-19.5,19.8-19.5S59.6,34,59.6,44.8
		C59.6,55.5,50.7,64.3,39.8,64.3z M39.8,26.3c-10.4,0-18.8,8.3-18.8,18.5c0,10.2,8.4,18.5,18.8,18.5c10.4,0,18.8-8.3,18.8-18.5
		C58.6,34.6,50.1,26.3,39.8,26.3z"/>
</g>
</svg>
