<svg xmlns="http://www.w3.org/2000/svg" xml:space="preserve" id="Layer_1" x="0" y="0" viewBox="0 0 80 80"><style>.st0{fill:#0185ff}.st1{fill:#0164bf}.st2{fill:#002140}.st3{fill:#8dc8ff}</style><path d="M0 0h80v80H0z" class="st0"/><path d="M21.6 47.9s-1.6 3.9-4.3 4.2c0 0 3.7 1.6 4 4 0 0 1.5-3.5 4.4-3.9.1-.1-3.9-.9-4.1-4.3m39.3-15.6s-1.6 3.9-4.3 4.2c0 0 3.7 1.6 4 4 0 0 1.5-3.5 4.4-3.9.1 0-3.9-.9-4.1-4.3" class="st1"/><path d="M39.9 72.4c-18 0-32.7-14.7-32.7-32.7S21.9 7 39.9 7s32.7 14.7 32.7 32.7-14.7 32.7-32.7 32.7m0-64.4C22.4 8 8.2 22.2 8.2 39.7s14.2 31.7 31.7 31.7 31.7-14.2 31.7-31.7S57.4 8 39.9 8" class="st2"/><path d="M60.9 41.5c-.2 0-.4-.2-.5-.4-.7-2.9-1.2-3.4-4.1-4.1-.2-.1-.4-.3-.4-.5s.2-.4.4-.5c2.9-.7 3.4-1.2 4.1-4.1.1-.2.2-.4.5-.4.2 0 .4.2.5.4.7 2.8 1.2 3.4 4.1 4.1.2.1.4.3.4.5s-.2.4-.4.5c-2.9.7-3.4 1.2-4.1 4.1-.1.2-.3.4-.5.4m-2.8-5c1.5.6 2.2 1.3 2.8 2.8.6-1.5 1.3-2.2 2.8-2.8-1.5-.6-2.3-1.3-2.8-2.8-.6 1.5-1.3 2.2-2.8 2.8M21.3 57.3c-.2 0-.4-.2-.5-.4-.7-2.9-1.2-3.4-4.1-4.1-.2-.1-.4-.3-.4-.5s.2-.4.4-.5c2.9-.7 3.4-1.2 4.1-4.1.1-.2.2-.4.5-.4.2 0 .4.2.5.4.6 2.9 1.1 3.4 4.1 4.1.2.1.4.3.4.5s-.2.4-.4.5c-2.9.7-3.4 1.2-4.1 4.1-.1.2-.3.4-.5.4m-2.8-5c1.5.6 2.2 1.3 2.8 2.8.6-1.5 1.3-2.2 2.8-2.8-1.5-.5-2.2-1.2-2.8-2.8-.6 1.5-1.3 2.2-2.8 2.8" class="st2"/><path d="M56.2 57.6s-3.1 1.1-6.3.7c-12.3-1.9-14.4-13.9-14.4-13.9S18.8 35.8 21 24.6c2-8.5 7.8-10 9.5-10s7.3.6 10.8 4.7c0 0 4.9-2.9 9.3-.6s4.3 8.6 3 10.9-5.6 12.3-5.8 13.3c4.5 5.1 8.3 6 8.3 6" class="st1"/><path d="M42.3 33.2c3 0 5.3-2.4 5.3-5.3s-2.4-5.3-5.3-5.3c-3 0-5.3 2.4-5.3 5.3s2.3 5.3 5.3 5.3" class="st3"/><path d="M46.1 31.8s-1.7-8.2-6.8-8.7c0 0 4.8-2.4 7.5 1.3 2.6 3.7-.7 7.4-.7 7.4" class="st1"/><path d="M35.9 24.1c3 0 5.3-2.4 5.3-5.3s-2.4-5.3-5.3-5.3c-3 0-5.3 2.4-5.3 5.3s2.3 5.3 5.3 5.3" class="st3"/><path d="M39.7 22.7S38 14.5 32.9 14c0 0 4.8-2.4 7.5 1.3 2.6 3.7-.7 7.4-.7 7.4" class="st1"/><path d="M46.8 23.2c3 0 5.3-2.4 5.3-5.3 0-3-2.4-5.3-5.3-5.3-3 0-5.3 2.4-5.3 5.3s2.3 5.3 5.3 5.3" class="st3"/><path d="M50.6 21.8s-1.7-8.2-6.8-8.7c0 0 4.8-2.4 7.5 1.3 2.6 3.7-.7 7.4-.7 7.4" class="st1"/><path d="m48 42.8.3-.6s1.1.2 3.7 1.2 4.7 4.4 4.8 8.4c.1 3.9-1.2 11.8-7.5 14.5-6.4 2.7-8.6-.3-8.6-.3s7.3-.6 9.6-9.2c2.1-6.8-1.6-13.4-2.3-14" class="st3"/><path d="M44.6 64.4s-2.1 1.7-3.9 1.6c0 0-6.3-2.3-7.3-11.1-1.1-8.8 2.6-10.3 2.6-10.3l1.8 5.3c.1 0-1.5 9.7 6.8 14.5" class="st0"/><path d="M30 36.7s-2.8-1.4-3.3-1.7-3.2-2.8-3.2-2.8l-3.3.3-2.2 3.6 1.8 5.2 3.9 1z" class="st3"/><path d="m28 38.8 6-1.2-1.7-.4-2.3-.5zm2.1-13.9-2.8-1.3s1-3.4 3-2.5c2 .8.3 3.4-.2 3.8m9.2-1.5c.5.1 1.2-.1 1.5.3.2.2.2.6.2.9-.8.4-1.7.7-2.6.9-.2 0-.4.1-.5 0-.3-.2-.1-.6 0-.9.2-.3.3-.6.6-.8.2-.3.6-.5.8-.4m10.4 35.4s-.1 0 0 0c-12.3-1.9-14.4-14.3-14.4-14.4 0-.3.1-.5.4-.6.3 0 .5.1.6.4 0 .1 2 11.8 13.5 13.6.3 0 .5.3.4.6 0 .2-.3.4-.5.4m-1.6-15.5c-.2 0-.5-.2-.5-.4-.2-1.4 1-3.7 2.5-6.5 2.9-5.5 6.6-12.4 2-16.2l-.3-.3c-.2-.2-.2-.5 0-.7s.5-.2.7 0l.3.3C58 23.7 54 31.3 51 36.8c-1.3 2.5-2.6 4.8-2.4 5.9 0 .3-.2.6-.5.6" class="st2"/><path d="M22.5 32.7c-.2 0-.4-.1-.5-.3-2.2-4.5-2-9 .6-13 2.6-3.8 5.7-5.7 9.5-5.4.3 0 .5.3.5.5 0 .3-.3.5-.5.5-3.3-.2-6.2 1.5-8.6 5q-3.6 5.55-.6 12c.1.2 0 .5-.2.7zm13.3 12.1c-1.2-.1-5-2.3-8.4-5.5-.2-.2-.2-.5 0-.7s.5-.2.7 0c3.5 3.3 7.1 5.2 7.8 5.3.3 0 .5.3.4.5 0 .2-.2.4-.5.4" class="st2"/><path d="M31.1 26.7c-.2 0-.3-.1-.4-.2s-1.5-2.4-5-2.3c-.2 0-.5-.2-.5-.5s.2-.5.5-.5c4-.1 5.8 2.6 5.8 2.7.1.2.1.5-.2.7 0 .1-.1.1-.2.1" class="st2"/><path d="M30 25.4c-.1 0-.3-.1-.4-.2-.2-.2-.2-.5 0-.7.4-.4 1.3-1.4 1.2-2.2 0-.3-.3-.6-.6-.8-.4-.2-.7-.2-1-.1-.8.4-1.2 1.8-1.3 2.3-.1.3-.3.4-.6.4-.3-.1-.4-.3-.4-.6.1-.2.5-2.3 1.9-3 .4-.2 1.1-.3 1.9.1.9.4 1.1 1.1 1.2 1.5.2 1.4-1.3 2.9-1.5 3.1s-.3.2-.4.2m5.3 16c-.2 0-.5-.2-.5-.4-.6-5.2 2.2-7.3 2.3-7.4.2-.2.5-.1.7.1s.1.5-.1.7c-.1.1-2.4 1.8-1.9 6.4 0 .3-.2.6-.5.6" class="st2"/><path d="M35.3 38.1c-.2 0-14.2-1-14.8-12.2 0-.3.2-.5.5-.5s.5.2.5.5c.2 4.3 2.6 7.5 7.1 9.5 3.4 1.5 6.7 1.7 6.8 1.7.3 0 .5.3.5.5-.1.3-.3.5-.6.5m7.1-4.6c-3.1 0-5.8-2.6-5.9-5.9 0-3.3 2.6-5.9 5.9-5.9s5.9 2.6 5.9 5.9-2.6 5.9-5.9 5.9m0-10.8c-2.7 0-4.9 2.2-4.9 4.9.1 2.7 2.3 4.9 4.9 4.9 2.7 0 4.9-2.2 4.9-4.9s-2.2-4.9-4.9-4.9" class="st2"/><path d="M40.8 23.9c1.8 0 3.3 1.4 3.4 3.1l-2.5.2 1.7 2.4c-.6.7-1.5 1.1-2.5 1.1-1.9 0-3.4-1.5-3.4-3.4-.1-1.9 1.4-3.4 3.3-3.4" class="st2"/><path d="M46.2 32.1c-.3 0-.5-.2-.5-.5-.3-3.6-3.6-7.9-6.1-7.9-.3 0-.5-.2-.5-.5s.2-.5.5-.5c3.1 0 6.8 4.6 7.1 8.9 0 .2-.2.5-.5.5M32.9 14.2c.5.1 1.2-.1 1.5.3.2.2.2.6.2.9-.8.4-1.7.7-2.6.9-.2 0-.4.1-.5 0-.3-.2-.1-.6 0-.9.2-.3.3-.6.6-.8.2-.2.6-.4.8-.4" class="st2"/><path d="M36 24.4c-3.1 0-5.8-2.6-5.9-5.9 0-3.3 2.6-5.9 5.9-5.9s5.9 2.6 5.9 5.9-2.6 5.9-5.9 5.9m0-10.8c-2.7 0-4.9 2.2-4.9 4.9.1 2.7 2.3 4.9 4.9 4.9 2.7 0 4.9-2.2 4.9-4.9s-2.2-4.9-4.9-4.9" class="st2"/><path d="M34.4 14.7c1.8 0 3.3 1.4 3.4 3.1l-2.5.2 1.7 2.4c-.6.7-1.5 1.1-2.6 1.1-1.9 0-3.4-1.5-3.4-3.4 0-1.8 1.5-3.4 3.4-3.4" class="st2"/><path d="M39.8 22.9c-.3 0-.5-.2-.5-.5-.3-3.6-3.6-7.9-6.1-7.9-.3 0-.5-.2-.5-.5s.2-.5.5-.5c3.1 0 6.8 4.6 7.1 8.9 0 .2-.2.5-.5.5m4-9.6c.5.1 1.2-.1 1.5.3.2.2.2.6.2.9-.8.4-1.7.7-2.6.9-.2 0-.4.1-.5 0-.3-.2-.1-.6 0-.9.2-.3.3-.6.6-.8s.6-.4.8-.4" class="st2"/><path d="M46.9 23.5c-3.1 0-5.8-2.6-5.9-5.9 0-3.3 2.6-5.9 5.9-5.9s5.9 2.6 5.9 5.9-2.6 5.9-5.9 5.9m0-10.8c-2.7 0-4.9 2.2-4.9 4.9.1 2.7 2.3 4.9 4.9 4.9 2.7 0 4.9-2.2 4.9-4.9s-2.2-4.9-4.9-4.9" class="st2"/><path d="M45.3 13.8c1.8 0 3.3 1.4 3.4 3.1l-2.5.2 1.7 2.4c-.6.7-1.5 1.1-2.6 1.1-1.9 0-3.4-1.5-3.4-3.4 0-1.8 1.6-3.4 3.4-3.4" class="st2"/><path d="M50.7 22c-.3 0-.5-.2-.5-.5-.3-3.6-3.6-7.9-6.1-7.9-.3 0-.5-.2-.5-.5s.2-.5.5-.5c3.1 0 6.8 4.6 7.1 8.9 0 .2-.2.5-.5.5M45 67.7c-6.8 0-12.4-6.6-12.4-14.7 0-3 .8-6 2.4-8.7.1-.2.4-.3.7-.2.2.1.3.4.2.7-1.5 2.5-2.2 5.3-2.2 8.1 0 7.6 5.1 13.7 11.4 13.7s11.3-6 11.3-13.6c0-1.7-.3-3.3-.8-4.8-.1-.2-2-5-7.4-5.4-.3 0-.5-.3-.5-.5 0-.3.3-.5.5-.5 6 .4 8.2 6 8.2 6 .6 1.7.8 3.4.8 5.2.2 8.1-5.4 14.7-12.2 14.7" class="st2"/><path d="M44.4 64.7c-.1 0-.2 0-.2-.1-4.3-2.4-7.1-7.6-7.1-13.2 0-.3 0-.6.1-.8v-.8c0-.3.2-.5.5-.5s.5.2.5.5 0 .6-.1.8v.8c0 5.3 2.6 10.2 6.5 12.4.2.1.3.4.2.7-.1.1-.2.2-.4.2" class="st2"/><path d="M40.8 66.5c-.2 0-.4-.2-.5-.4 0-.3.1-.5.4-.6 5.6-1 9.8-6.8 9.8-13.5 0-3.3-1-6.5-2.8-9-.2-.2-.1-.5.1-.7s.5-.1.7.1c1.9 2.7 3 6.1 3 9.6 0 7.2-4.6 13.4-10.7 14.5.1 0 0 0 0 0" class="st2"/><path d="M51.6 47.3c-.5 0-1.1-.1-1.6-.3-.3-.1-.4-.4-.3-.6.1-.3.4-.4.6-.3 1.1.4 2.6.1 3.8-.2.3-.1.6-.1.8-.2.3-.1.5.1.6.4s-.1.5-.4.6c-.2.1-.5.1-.8.2-.7.2-1.8.4-2.7.4m2 8.1c-.9 0-1.9-.2-2.9-.8-.2-.1-.3-.4-.2-.7.1-.2.4-.3.7-.2 2.5 1.4 5.3-.1 5.3-.1.2-.1.5 0 .7.2s.1.5-.2.7c0 .1-1.5.9-3.4.9m-1.4 6.5c-1.2 0-2.6-.3-3.6-1.5-.2-.2-.1-.5.1-.7s.5-.1.7.1c1.7 2.1 5.1.8 5.1.8.3-.1.5 0 .7.3.1.3 0 .5-.3.7-.1-.2-1.3.3-2.7.3m-3.1 4.5c-1.3 0-3.1-.5-3.6-2.6-.1-.3.1-.5.4-.6s.5.1.6.4c.6 2.2 3 1.8 3.1 1.8.3 0 .5.1.6.4 0 .3-.1.5-.4.6zm-11.6-2h-.2c-.2-.1-.4-.4-.2-.7.9-2 4.6-1.8 5-1.8.3 0 .5.2.5.5s-.3.5-.5.5c-.9 0-3.5.1-4 1.2q-.3.3-.6.3m-3.6-5.9c-.1 0-.3-.1-.4-.2-.2-.2-.2-.5.1-.7 2.3-2 5-1 5.1-1 .3.1.4.4.3.6-.1.3-.4.4-.6.3-.1 0-2.3-.8-4.1.8-.2.2-.3.2-.4.2m3.7-7.4c-.1 0-.2 0-.3-.1s-1.8-1.5-3.5-.5c-.2.1-.5 0-.7-.2-.1-.2 0-.5.2-.7 2.4-1.2 4.6.6 4.7.7.2.2.2.5.1.7-.2 0-.4.1-.5.1m-9.9-11.7c-.2 0-.5-.2-.5-.4 0-.3.1-.5.4-.6l7.6-1.3c.3 0 .5.1.6.4 0 .3-.1.5-.4.6zc.1 0 0 0 0 0" class="st2"/><path d="M23.6 42.9h-.1l-3.8-1c-.2 0-.3-.2-.3-.3l-1.7-5.4v-.4l1.8-3.6c.1-.2.2-.3.4-.3l3.3-.2c.3 0 .5.2.5.5s-.2.5-.5.5l-3 .2-1.6 3.1 1.6 4.9 3.3.9 5.9-5.2c.2-.2.5-.2.7 0s.2.5 0 .7L24 42.7c-.2.2-.3.2-.4.2" class="st2"/><path d="M23.7 42.8c-.2 0-.4-.1-.5-.3l-3.8-9.9q-.15-.45.3-.6t.6.3l3.8 9.9q.15.45-.3.6z" class="st2"/><path d="M21.4 35.8c-.2 0-.5-.2-.5-.4 0-.3.2-.5.4-.6l4.5-.6c.3 0 .5.2.6.4 0 .3-.2.5-.4.6zm1.4 4.2c-.1 0-.2 0-.3-.1-.2-.2-.2-.5 0-.7l4-4.2c.2-.2.5-.2.7 0s.2.5 0 .7l-4 4.2c-.1 0-.3.1-.4.1m-3 1.8h-.2c-.3-.1-.4-.4-.2-.7l1.5-3.3-2.6-.6c-.3-.1-.4-.3-.4-.6.1-.3.3-.4.6-.4l3.2.7c.1 0 .3.1.3.3s.1.3 0 .4l-1.8 3.9c0 .2-.2.3-.4.3" class="st2"/></svg>