<?xml version="1.0" encoding="utf-8"?>
<!-- Generator: Adobe Illustrator 26.5.0, SVG Export Plug-In . SVG Version: 6.00 Build 0)  -->
<svg version="1.1" id="Layer_1" xmlns="http://www.w3.org/2000/svg" xmlns:xlink="http://www.w3.org/1999/xlink" x="0px" y="0px"
	 viewBox="0 0 80 80" style="enable-background:new 0 0 80 80;" xml:space="preserve">
<style type="text/css">
	.st0{fill:#F68DFE;}
	.st1{fill:#CF4CD9;}
	.st2{fill:#002140;}
	.st3{fill:#FBCCFF;}
</style>
<g>
	<rect class="st0" width="80" height="80"/>
</g>
<g>
	<path class="st1" d="M17.8,35.7c0,0-1.6,3.9-4.3,4.2c0,0,3.7,1.6,4,4c0,0,1.5-3.5,4.4-3.9C22,39.9,18.1,39.1,17.8,35.7L17.8,35.7z"
		/>
</g>
<g>
	<path class="st1" d="M62.6,35.9c0,0-1.6,3.9-4.3,4.2c0,0,3.7,1.6,4,4c0,0,1.5-3.5,4.4-3.9C66.7,40.2,62.8,39.3,62.6,35.9L62.6,35.9
		z"/>
</g>
<g>
	<path class="st2" d="M39.9,72.4c-18,0-32.7-14.7-32.7-32.7C7.2,21.7,21.9,7,39.9,7c18,0,32.7,14.7,32.7,32.7
		C72.6,57.8,57.9,72.4,39.9,72.4z M39.9,8C22.4,8,8.2,22.3,8.2,39.7s14.2,31.7,31.7,31.7s31.7-14.2,31.7-31.7S57.4,8,39.9,8z"/>
</g>
<g>
	<path class="st2" d="M62.5,45.2c-0.2,0-0.4-0.2-0.5-0.4c-0.8-2.9-1.3-3.4-4.2-4.2c-0.2-0.1-0.4-0.3-0.4-0.5s0.2-0.4,0.4-0.5
		c2.9-0.8,3.4-1.3,4.2-4.2c0.1-0.2,0.3-0.4,0.5-0.4l0,0c0.2,0,0.4,0.2,0.5,0.4c0.8,2.9,1.3,3.4,4.2,4.2c0.2,0.1,0.4,0.3,0.4,0.5
		s-0.2,0.4-0.4,0.5c-2.9,0.8-3.4,1.3-4.2,4.2C62.9,45,62.7,45.2,62.5,45.2z M59.6,40.1c1.5,0.6,2.3,1.3,2.9,2.9
		c0.6-1.5,1.3-2.3,2.9-2.9c-1.5-0.6-2.3-1.3-2.9-2.9C61.9,38.8,61.1,39.6,59.6,40.1z"/>
</g>
<g>
	<path class="st2" d="M17.5,45.2L17.5,45.2c-0.2,0-0.4-0.2-0.5-0.4c-0.8-2.9-1.3-3.4-4.2-4.2c-0.2-0.1-0.4-0.3-0.4-0.5
		s0.2-0.4,0.4-0.5c2.9-0.8,3.4-1.3,4.2-4.2c0.1-0.4,0.9-0.4,1,0c0.8,2.9,1.3,3.4,4.2,4.2c0.2,0.1,0.4,0.3,0.4,0.5s-0.2,0.4-0.4,0.5
		c-2.9,0.8-3.4,1.3-4.2,4.2C17.9,45,17.7,45.2,17.5,45.2z M14.6,40.1c1.5,0.6,2.3,1.3,2.9,2.9c0.6-1.5,1.3-2.3,2.9-2.9
		c-1.5-0.6-2.3-1.3-2.9-2.9C16.9,38.8,16.2,39.6,14.6,40.1z"/>
</g>
<g>
	<path class="st1" d="M27.9,37.9l0.3,3.2c0,0-1.5-0.7-2.3-0.3c-0.8,0.3-3,1-3.1,3.2c-0.1,2.2,2.5,3.4,3.2,3.3c0.7-0.1,3-1.5,3-1.5
		s3.4,18.9,12.1,18.9c6.6,0,10-12.8,10.4-18.4c0,0,0.5-0.3,1,0.3c0.4,0.7,1.3,1.1,2.2,1.1c0.9,0,3-1.3,3.1-3.2
		c0.1-1.9-1.9-3.2-2.8-3.3c-1-0.1-2.8,0.1-2.8,0.1s0.9-9.1,0.4-10.2c-0.4-1.1-17-7.1-21.4-4.8C26.6,28.6,27.9,37.9,27.9,37.9
		L27.9,37.9z"/>
</g>
<g>
	<path class="st3" d="M35.1,45.5c2.4,0,4.4-2,4.4-4.4c0-2.4-2-4.4-4.4-4.4c-2.4,0-4.4,2-4.4,4.4C30.7,43.5,32.6,45.5,35.1,45.5z"/>
</g>
<g>
	<path class="st3" d="M42,38.6c0.8-1.2,2.2-2,3.8-2c2.6,0,4.6,2,4.6,4.4c0,2.4-2.1,4.4-4.6,4.4c-1,0-1.8-0.3-2.6-0.8"/>
</g>
<g>
	<path class="st1" d="M27.9,37.9c0,0,3.3-2.7,3.2-11.6c0,0,8,8.8,14.8,8.5c4.5-0.5,6.3-0.8,6.3-0.8v5.9c0,0,2.3-4.6,2.6-7.2
		c0,0,0.7-1.8,0.6-3.2c-0.1-1.4-1.9-11-8.5-11.4c-6.6-0.4-10.2,1.6-11.1,1.9c-0.9,0.2-3,0.5-3,0.5s0.5-1,0.7-1.4
		c0.3-0.4,1.1-1.2,1.1-1.7c0-0.5,1.2-1.5-0.7-1.2c-1.9,0.2-2.8,2-2.8,2s-1.1-1.6-2.2-1.2c-1.2,0.4-0.9,1.7-0.9,1.7l1.2,2.1
		c0,0-4.8,0.1-5.9,5.7C22.2,31.9,26,37,27.9,37.9L27.9,37.9z"/>
</g>
<g>
	<path class="st2" d="M27.9,38.5c-0.1,0-0.2,0-0.2-0.1c0,0-0.1,0-0.1-0.1C27,38,22,34.6,22.8,27.1c0.7-6.9,5.6-6.8,8.5-6.8
		c0.5,0,1,0,1.4,0c1-0.1,2.4-0.6,3.9-1.1c2.4-0.9,5.2-1.9,8.1-1.8c3.4,0,6.1,1.1,8.1,3.3c3.3,3.8,3.3,9.8,3.1,11.2
		c-0.2,1.9-2.9,2.9-8,3.2c-8.1,0.5-13.9-5-16.1-7.4c-0.2,8.2-3.4,10.6-3.6,10.7C28.1,38.5,28,38.5,27.9,38.5z M30.5,21.3
		c-2.9,0-6.2,0.4-6.8,5.9c-0.6,6.2,3,9.3,4.1,10.1c0.8-0.8,3-3.8,2.9-11.1c0-0.2,0.1-0.4,0.3-0.5c0.2-0.1,0.4,0,0.6,0.2
		c0.1,0.1,6.5,8.6,16.1,8.1c4.3-0.2,6.9-1,7.1-2.3c0.2-1.3,0.2-6.9-2.9-10.4c-1.7-2-4.2-3-7.3-3c-2.7-0.1-5.4,0.9-7.7,1.8
		c-1.6,0.6-3,1.1-4.2,1.2c-0.4,0-0.9,0-1.5,0C31,21.3,30.8,21.3,30.5,21.3z"/>
</g>
<g>
	<path class="st2" d="M33.1,21.2c-0.2,0-0.4-0.2-0.5-0.4c-0.2-0.9,0.3-1.7,0.9-2.3c0.7-0.8,0.9-1.4,0.6-1.6
		c-0.3-0.3-1.4,0.1-1.9,0.5c-0.5,0.4-0.7,1.1-0.7,1.7c0,0.2-0.1,0.4-0.3,0.5c-0.2,0.1-0.4,0-0.6-0.2c-0.2-0.3-0.2-0.7-0.2-0.9l0-0.2
		c0-0.4-0.3-0.8-0.6-0.9c-0.4-0.1-0.8,0-1.1,0.3c-0.3,0.3-0.4,0.9-0.2,1.4c0.2,0.5,0.5,0.9,1,1.3c0.2,0.2,0.3,0.5,0.1,0.7
		s-0.5,0.3-0.7,0.1c-0.7-0.5-1.1-1.1-1.4-1.8c-0.3-0.8-0.2-1.8,0.4-2.4c0.5-0.6,1.4-0.8,2.2-0.5c0.4,0.1,0.7,0.4,1,0.8
		c0.1-0.2,0.3-0.4,0.5-0.6c0.7-0.6,2.4-1.4,3.3-0.5c1,1.1-0.2,2.5-0.6,3c-0.4,0.5-0.8,1-0.7,1.5C33.7,20.9,33.5,21.2,33.1,21.2
		C33.2,21.2,33.2,21.2,33.1,21.2z"/>
</g>
<g>
	<path class="st2" d="M23.7,31.4c-0.2,0-0.4-0.1-0.4-0.3c-0.1-0.2,0-0.5,0.2-0.7c2.5-1.3,3.7-6.6,3.7-6.6c0.1-0.3,0.3-0.4,0.6-0.4
		c0.3,0.1,0.4,0.3,0.4,0.6c-0.1,0.2-1.3,5.8-4.2,7.3C23.8,31.4,23.8,31.4,23.7,31.4z"/>
</g>
<g>
	<path class="st2" d="M25.5,36c-0.1,0-0.3-0.1-0.4-0.2c-0.2-0.2-0.2-0.5,0-0.7c2-1.8,2.8-7.9,2.8-8c0-0.3,0.3-0.5,0.6-0.4
		c0.3,0,0.5,0.3,0.4,0.6c0,0.3-0.8,6.5-3.1,8.6C25.7,36,25.6,36,25.5,36z"/>
</g>
<g>
	<path class="st2" d="M51.1,23.1c-4.7,0-7.5-1.1-7.6-1.2c-0.3-0.1-0.4-0.4-0.3-0.7c0.1-0.3,0.4-0.4,0.7-0.3c0,0,3.6,1.4,9.3,1
		c0.3,0,0.5,0.2,0.5,0.5c0,0.3-0.2,0.5-0.5,0.5C52.5,23.1,51.8,23.1,51.1,23.1z"/>
</g>
<g>
	<path class="st2" d="M52.3,40.4c-0.1,0-0.2,0-0.3-0.1c-0.2-0.2-0.3-0.5-0.1-0.7c1.8-2.5,2.5-6.8,2.6-6.9c0-0.3,0.3-0.4,0.6-0.4
		c0.3,0,0.5,0.3,0.4,0.6c0,0.2-0.8,4.6-2.7,7.3C52.6,40.3,52.4,40.4,52.3,40.4z"/>
</g>
<g>
	<path class="st2" d="M50.9,27.1c-8.2,0-13.5-4.7-13.7-4.9c-0.2-0.2-0.2-0.5,0-0.7c0.2-0.2,0.5-0.2,0.7,0c0.1,0.1,6.8,6,16.7,4.3
		c0.3,0,0.5,0.1,0.6,0.4c0,0.3-0.1,0.5-0.4,0.6C53.4,26.9,52.2,27.1,50.9,27.1z"/>
</g>
<g>
	<path class="st2" d="M50.3,31c-12.3,0-16.7-6.9-16.9-7.2c-0.1-0.2-0.1-0.5,0.2-0.7c0.2-0.1,0.5-0.1,0.7,0.2c0,0,1.4,2.1,4.6,4
		c3,1.7,8.2,3.5,16.3,2.4c0.3,0,0.5,0.2,0.6,0.4c0,0.3-0.2,0.5-0.4,0.6C53.5,30.9,51.8,31,50.3,31z"/>
</g>
<g>
	<path class="st2" d="M43.5,55.4h-6c-0.3,0-0.5-0.2-0.5-0.5s0.2-0.5,0.5-0.5h6c0.1,0,2.1,0,2.4-2.1c0-0.3,0.3-0.5,0.6-0.4
		c0.3,0,0.5,0.3,0.4,0.6C46.5,54.8,44.5,55.4,43.5,55.4z"/>
</g>
<g>
	<path class="st2" d="M42.2,52.1c-1.4,0-3.7-2.3-4.6-4c-0.7-1.5-0.2-2.1,0.1-2.4c0.5-0.4,1-0.5,1.6-0.3c0.9,0.3,1.6,1.2,1.8,1.7
		c0.1,0.3-0.1,0.5-0.3,0.6c-0.3,0.1-0.5-0.1-0.6-0.3c-0.1-0.2-0.5-0.9-1.1-1.1c-0.3-0.1-0.5,0-0.7,0.1c-0.2,0.2-0.1,0.7,0.1,1.2
		c0.9,1.8,3.1,3.6,3.7,3.5c0.1,0,0.2,0,0.3-0.2c1.1-1.7-0.3-10.4-1.6-15.7c-0.1-0.3,0.1-0.5,0.4-0.6c0.3-0.1,0.5,0.1,0.6,0.4
		c0.3,1.4,3.2,13.9,1.5,16.5c-0.3,0.4-0.6,0.6-0.9,0.6C42.4,52,42.3,52.1,42.2,52.1z"/>
</g>
<g>
	<path class="st2" d="M34.9,46.3c-2.9,0-5.2-2.3-5.2-5.2c0-2.9,2.3-5.2,5.2-5.2s5.2,2.3,5.2,5.2C40.1,44,37.8,46.3,34.9,46.3z
		 M34.9,36.9c-2.3,0-4.2,1.9-4.2,4.2s1.9,4.2,4.2,4.2s4.2-1.9,4.2-4.2S37.2,36.9,34.9,36.9z"/>
</g>
<g>
	<path class="st2" d="M45.8,46.3c-0.9,0-1.8-0.2-2.6-0.7c-0.2-0.1-0.3-0.4-0.2-0.7c0.1-0.2,0.4-0.3,0.7-0.2c0.6,0.4,1.4,0.6,2.1,0.6
		c2.3,0,4.2-1.9,4.2-4.2s-1.9-4.2-4.2-4.2c-1.2,0-2.3,0.5-3.1,1.4c-0.2,0.2-0.5,0.2-0.7,0c-0.2-0.2-0.2-0.5,0-0.7
		c1-1.1,2.4-1.7,3.9-1.7c2.9,0,5.2,2.3,5.2,5.2C51,44,48.6,46.3,45.8,46.3z"/>
</g>
<g>
	<path class="st2" d="M33.4,45.7c0.9-0.4,1.7-1.3,2.1-2.5l-2.6-1.6l2.8-1.4c-0.4-1.9-1.6-3.2-3.1-3.2c0,0-2.4,1.8-2.2,4.6
		C30.4,44.2,33.4,45.7,33.4,45.7L33.4,45.7z"/>
</g>
<g>
	<path class="st2" d="M43.4,45.6c0.2,0.1,0.4,0.1,0.7,0.1c1.3,0,2.5-1.1,3-2.7l-2.6-1.6l2.8-1.4c-0.4-1.9-1.6-3.2-3.1-3.2
		c-0.7,0-1.3,0.3-1.8,0.8"/>
</g>
<g>
	<path class="st2" d="M41.3,65.2c-10.9,0-13.8-26-13.9-27.1c0-0.3,0.2-0.5,0.4-0.5c0.3,0,0.5,0.2,0.5,0.4c0,0.3,2.9,26.2,12.9,26.2
		c1.7,0,3.2-0.8,4.6-2.4c5.8-7,6.3-26,6-27.6c0-0.3,0.1-0.5,0.4-0.6c0.3-0.1,0.5,0.1,0.6,0.4c0.3,1.6-0.2,21.2-6.2,28.4
		C45.1,64.3,43.3,65.2,41.3,65.2z"/>
</g>
<g>
	<path class="st2" d="M26,47.8c-1.1,0-2.3-0.6-3-1.5c-0.8-1.2-0.9-2.9-0.1-4.1c0.7-1.2,2.2-2,3.6-1.9c0.7,0,1.3,0.2,1.8,0.4
		c0.3,0.1,0.4,0.4,0.3,0.6c-0.1,0.3-0.4,0.4-0.6,0.3c-0.5-0.2-1-0.3-1.5-0.3c-1.1-0.1-2.2,0.5-2.7,1.4c-0.5,0.9-0.5,2.2,0.1,3
		c0.6,0.9,1.8,1.3,2.8,1c0.3-0.1,0.6-0.4,1-0.7c0.5-0.4,1-0.8,1.5-0.8c0.3,0,0.5,0.2,0.5,0.5s-0.2,0.5-0.5,0.5
		c-0.2,0-0.6,0.3-0.9,0.6c-0.4,0.4-0.8,0.7-1.4,0.9C26.6,47.8,26.3,47.8,26,47.8z"/>
</g>
<g>
	<path class="st2" d="M28.5,44.1c-0.5,0-1-0.2-1.5-0.4c-0.4-0.2-1.2-0.5-1.5-1.3c-0.1-0.3,0-0.5,0.3-0.6c0.3-0.1,0.5,0,0.6,0.3
		c0.1,0.3,0.5,0.5,1,0.7c0.4,0.2,0.9,0.3,1.2,0.3c0.3,0,0.5,0.2,0.6,0.4c0,0.3-0.2,0.5-0.4,0.6C28.7,44.1,28.6,44.1,28.5,44.1z"/>
</g>
<g>
	<path class="st2" d="M26.6,45.5c-0.1,0-0.2,0-0.3-0.1c-0.2-0.2-0.3-0.5-0.1-0.7c0.4-0.5,0.9-1,1.4-1.3c0.2-0.2,0.5-0.1,0.7,0.1
		c0.1,0.2,0.1,0.5-0.1,0.7c-0.5,0.3-0.8,0.7-1.2,1.1C26.9,45.4,26.8,45.5,26.6,45.5z"/>
</g>
<g>
	<path class="st2" d="M54.5,48.2c-0.3,0-0.6,0-0.9-0.1c-0.5-0.1-0.9-0.5-1.4-0.9c-0.2-0.2-0.5-0.4-0.7-0.5c-0.2-0.1-0.3-0.4-0.2-0.7
		c0.1-0.2,0.4-0.3,0.7-0.2c0.3,0.2,0.6,0.4,0.8,0.6c0.3,0.3,0.7,0.6,1,0.7c1,0.3,2.2-0.1,2.8-1c0.6-0.9,0.6-2.1,0.1-3
		c-0.5-0.9-1.6-1.5-2.7-1.4c-0.5,0-1.1,0.2-1.5,0.3c-0.3,0.1-0.5-0.1-0.6-0.3c-0.1-0.3,0.1-0.5,0.3-0.6c0.5-0.2,1.1-0.4,1.8-0.4
		c1.4-0.1,2.9,0.7,3.6,1.9c0.7,1.2,0.7,2.9-0.1,4.1C56.8,47.6,55.7,48.2,54.5,48.2z"/>
</g>
<g>
	<path class="st2" d="M52,44.6c-0.1,0-0.2,0-0.2,0c-0.3,0-0.5-0.3-0.4-0.6c0-0.3,0.3-0.5,0.6-0.4c0.4,0,0.8-0.1,1.2-0.3
		c0.4-0.2,0.8-0.4,1-0.7c0.1-0.3,0.4-0.4,0.6-0.3c0.3,0.1,0.4,0.4,0.3,0.6c-0.2,0.7-0.9,1-1.5,1.3C53.1,44.4,52.6,44.6,52,44.6z"/>
</g>
<g>
	<path class="st2" d="M53.9,45.9c-0.2,0-0.3-0.1-0.4-0.2c-0.3-0.4-0.7-0.8-1.2-1.1c-0.2-0.2-0.3-0.5-0.1-0.7
		c0.2-0.2,0.5-0.3,0.7-0.1c0.6,0.4,1,0.8,1.4,1.3c0.2,0.2,0.1,0.5-0.1,0.7C54.1,45.9,54,45.9,53.9,45.9z"/>
</g>
</svg>
