<svg xmlns="http://www.w3.org/2000/svg" xml:space="preserve" id="Layer_1" x="0" y="0" viewBox="0 0 80 80"><style>.st0{fill:#fbccff}.st1{fill:#cf4cd9}.st2{fill:#002140}</style><path d="M0 0h80v80H0z" class="st0"/><path d="M15.4 35.7s-1.6 3.9-4.3 4.2c0 0 3.7 1.6 4 4 0 0 1.5-3.5 4.4-3.9 0-.1-3.9-.9-4.1-4.3m48.9.2s-1.6 3.9-4.3 4.2c0 0 3.7 1.6 4 4 0 0 1.5-3.5 4.4-3.9.1 0-3.9-.9-4.1-4.3" class="st1"/><path d="M30.5 32.1s.2 7.1 9.4 7.1 8.2-7.6 8.2-7.6-3.7-3.3-8.6-3.4c-4.9 0-9 3.9-9 3.9" class="st0"/><path d="M39.9 72.4c-18 0-32.7-14.7-32.7-32.7S21.9 7 39.9 7s32.7 14.7 32.7 32.7c0 18.1-14.7 32.7-32.7 32.7m0-64.4C22.4 8 8.2 22.3 8.2 39.7s14.2 31.7 31.7 31.7 31.7-14.2 31.7-31.7S57.4 8 39.9 8" class="st2"/><path d="M64.2 45.2c-.2 0-.4-.2-.5-.4-.8-2.9-1.3-3.4-4.2-4.2-.2-.1-.4-.3-.4-.5s.2-.4.4-.5c2.9-.8 3.4-1.3 4.2-4.2.1-.2.3-.4.5-.4s.4.2.5.4c.8 2.9 1.3 3.4 4.2 4.2.2.1.4.3.4.5s-.2.4-.4.5c-2.9.8-3.4 1.3-4.2 4.2-.1.2-.3.4-.5.4m-2.9-5.1c1.5.6 2.3 1.3 2.9 2.9.6-1.5 1.3-2.3 2.9-2.9-1.5-.6-2.3-1.3-2.9-2.9-.6 1.6-1.3 2.4-2.9 2.9M15 45.2c-.2 0-.4-.2-.5-.4-.8-2.9-1.3-3.4-4.2-4.2-.2-.1-.4-.3-.4-.5s.2-.4.4-.5c2.9-.8 3.4-1.3 4.2-4.2.1-.4.9-.4 1 0 .8 2.9 1.3 3.4 4.2 4.2.2.1.4.3.4.5s-.2.4-.4.5c-2.9.8-3.4 1.3-4.2 4.2-.1.2-.3.4-.5.4m-2.8-5.1c1.5.6 2.3 1.3 2.9 2.9.6-1.5 1.3-2.3 2.9-2.9-1.5-.6-2.3-1.3-2.9-2.9-.7 1.6-1.4 2.4-2.9 2.9" class="st2"/><path d="M26.2 53.3s1.2 8 12.9 8.4 16-8.2 16-8.2 1.3-7.4-.2-9.3c0 0 3-1.2 2.7-3.2-.4-2-4.4-8.1-4.4-8.1s-3.6-6.2-14.1-6.8-15 12.4-15 12.4-1.8 1.9-1.7 3.7 1.1 4.2 3.5 4.1c0 0-.7 5.8.3 7" class="st1"/><path d="M30.5 38s0 3.4 2.4 3.9 2.9.1 2.9.1l1.7-2s1.8 2.2 4.1 1.8 3.8-2.2 3.8-3.7c.1-1.5-6.7-3.2-6.7-3.2l-5.1 1.3z" class="st0"/><path d="M30.2 37.9s4.5-.8 6.7-.1c0 0 5.9-1 8.3 0 0 0 .1-4.1-3.2-4.5-3.4-.4-4.3 2.1-4.3 2.1s-1.7-1.8-3.5-1.8c-1.8.1-3.8 2.4-4 4.3" class="st1"/><path d="M49.7 36s.8 2.9 1.7 3.4c0 0 .9-2.1 2.4-2.1s3 .7 3 .7l-.5-1.8s3.8-5.4-2.4-7.3c0 0 1.2-5.7-4.4-6.4 0 0-.4-3.1-3-3.7-2.6-.5-3.9.7-3.9.7s-2.8-3.2-5.4-2.7-3.4 3.6-3.4 3.6-3.7-.1-5.6 1.7-1.3 4.6-1.3 4.6-2.8 1.1-3.6 2.9c-.7 1.8.7 5.1.7 5.1l-.4 3.8s1.4-.7 2.3-.6l1.5.3s-.3-9 7-10.6c4.3-2 11.4-.4 13.3 1.5l-.2.9c0 .2-1.9 3.1 2.2 6m-9.2 17.7c-2.5 0-4.8-.9-5-1-.3-.1-.4-.4-.3-.7s.4-.4.7-.3c0 0 3.9 1.6 6.8.6.3-.1.5.1.6.3.1.3-.1.5-.3.6-.8.4-1.6.5-2.5.5" class="st2"/><path d="M42.7 53.3c-1 0-1.9-.4-2.7-.8s-1.5-.7-2.3-.7c-.9 0-1.4.3-1.6.4.1.1.1.3.1.5q-.15.45-.6.3c-.4-.1-.6-.5-.6-.9.1-.7 1.1-1.4 2.7-1.4 1 0 1.9.4 2.7.8s1.6.7 2.4.7c.3 0 .5.2.5.5s-.2.5-.5.5c.1.1 0 .1-.1.1" class="st2"/><path d="M38.2 55c-.6 0-1.2-.1-1.8-.4-1.7-.9-1.3-2.1-1.2-2.5.1-.3.4-.4.7-.3s.4.4.3.7c-.1.2-.3.7.7 1.2 1.6.8 3.2-.1 4.3-.9.2-.2.5-.1.7.1s.1.5-.1.7c-1.2.9-2.5 1.4-3.6 1.4" class="st2"/><path d="M45.9 51.6c-1.5-1.5-4.9-3.5-4.9-3.5l-1.6-2-3.9.3s.1 1.2-.7 1.7-3.5 3-3.5 3-2.5 5.4.5 7.8 4.9 2.7 8.3 2.2 6.1-2.6 6.5-4.1c.4-1.4.9-3.9-.7-5.4M40 58.2c-1.2 0-.8-2.6-2.4-2.4-1.5.3-.3 2.2-1.8 2.4-1.6.2-2-1.5-1.8-4.1.1-2.5 1.6-4.3 4.1-4.3s4.3.6 4.4 4.1c.3 3.5-1.2 4.3-2.5 4.3m16.7-19.4c-.3 0-.5-.3-.5-.6.1-.5-.1-1.2-.4-1.5-.2-.2-.2-.4-.1-.6.7-1 1.1-2 1.1-2.9 0 0-.1-3.6-3.3-3.6-.3 0-.5-.2-.5-.5s.2-.5.5-.5c3.2 0 4.3 2.8 4.3 4.6 0 1-.3 2.1-1 3.2.4.6.5 1.4.4 2 0 .2-.2.4-.5.4" class="st2"/><path d="M23.8 39.2c-.2 0-.4-.1-.5-.3-.5-1.3-.4-2.8.3-3.7-1.1-1.4-1.4-3.2-.8-4.9.5-1.6 1.9-3 3.5-3.5-.4-1.9.3-3.9 1.7-5.2s3.5-1.8 5.2-1.4c.2-1.8 1.9-3.5 3.9-3.7 2.1-.2 4.1 1.1 5.3 2.4 1.3-.9 3.1-1 4.5-.4s2.5 2.1 2.8 3.7c1.6 0 3.1.9 3.9 2.1.9 1.4 1 3.3.3 4.9-.1.2-.4.4-.7.2-.2-.1-.4-.4-.2-.7.6-1.3.5-2.9-.2-3.9-.8-1.1-2.2-1.8-3.5-1.7-.1 0-.3 0-.4-.1s-.2-.2-.2-.3c-.1-1.4-1-2.7-2.2-3.3-1.3-.6-2.8-.3-3.9.5 0 .1-.1.1-.2.1s-.3-.1-.3-.2c-1.1-1.4-3-2.6-4.7-2.4-1.6.2-3.2 1.7-3 3.4 0 .2-.1.3-.2.4s-.3.1-.5.1c-1.5-.6-3.6-.2-4.9 1-1.2 1.1-1.8 3.1-1.3 4.7v.4c-.1.1-.2.2-.3.2-1.5.3-2.8 1.5-3.3 3-.5 1.4-.1 3.1.9 4.2.2.2.2.5 0 .7-.7.7-.8 1.9-.4 3q.15.45-.3.6c-.1.1-.2.1-.3.1" class="st2"/><path d="M51.5 39.9c-.1 0-.2 0-.3-.1l-.6-.6c-.7-.8-1.2-1.9-1.4-3-.8-.7-1.7-1.5-2.2-2.6-.7-1.5-.6-4.2 2.2-5.6.2-.1.5 0 .7.2.1.2 0 .5-.2.7-2.5 1.2-2.1 3.5-1.7 4.3.4 1 1.3 1.7 2.1 2.4.1.1.2.2.2.3.1.9.6 1.9 1.2 2.7.1.2.3.3.5.5s.2.5.1.7c-.3.1-.5.1-.6.1m-7.1-7.1c-.2 0-.3-.1-.4-.2-.6-1-2.2-1.4-3.2-.8-.2.1-.5.1-.7-.2-.1-.3-.1-.6.2-.7 1.5-.9 3.7-.3 4.6 1.2.1.2.1.5-.2.7z" class="st2"/><path d="M38.9 62.2c-4.5 0-12.8-1.4-13.7-11.6-.5-5 1.2-8 1.7-8.8-.8-4.6.2-8.9 2.7-11.6C34 25.6 43.5 25 48.3 29c.2.2.2.5.1.7-.2.2-.5.2-.7.1-4.3-3.7-13.3-3.1-17.2 1.1-2.3 2.5-3.2 6.6-2.4 10.9 0 .1 0 .3-.1.4 0 0-2.2 2.9-1.7 8.3.3 4.2 2.7 11.3 13.7 10.7 10.3-.5 14.6-6 15.3-10.9.2-1.6 0-3.5-.7-5.6-.1-.3.1-.5.3-.6.3-.1.5.1.6.3.7 2.3 1 4.3.7 6-.7 5.3-5.4 11.2-16.2 11.7-.3.1-.6.1-1.1.1" class="st2"/><path d="M25.2 47c-1 0-1.9-.7-2.5-1.5-.8-1.1-1.2-2.5-1.1-3.8.1-1.4.8-2.7 1.9-3.4 1-.7 2.4-.8 3.5-.3.2.1.3.4.2.7-.1.2-.4.3-.7.2-.7-.4-1.8-.3-2.5.2-.8.5-1.4 1.6-1.5 2.7s.2 2.2.9 3.1c.4.6 1.1 1.2 1.9 1 .3-.1.5.1.6.4 0 .3-.1.5-.4.6 0 .1-.1.1-.3.1m27.5-1.8c-.1 0-.2 0-.3-.1-.2-.2-.3-.5-.1-.7.3-.4.7-.6 1.3-.7h1.1c.7-.1 1.5-.6 1.9-1.3s.5-1.5.4-2.3c-.2-1.1-.9-2-1.8-2.3-.9-.4-2.1-.1-2.6.7-.3.4-.4.8-.5 1.3-.1.2-.4.3-.7.2s-.4-.3-.4-.6c.1-.5.3-1.1.7-1.6.8-1.1 2.4-1.6 3.8-1 1.2.5 2.1 1.7 2.4 3.1.2 1.1 0 2.2-.5 3-.6 1-1.5 1.6-2.6 1.7h-1.1q-.45 0-.6.3c-.1.3-.3.3-.4.3" class="st2"/><path d="M53.4 42.4c-.1 0-.2 0-.3-.1-.2-.2-.3-.5-.1-.7.7-.9 2.1-1.3 3.1-.7.2.1.3.4.2.7-.1.2-.4.3-.7.2-.6-.3-1.4-.1-1.8.4-.1.1-.3.2-.4.2" class="st2"/><path d="M54.4 41.4c-.4-.1-.5-.3-.5-.6.1-.5 0-1-.3-1.4-.1-.2-.1-.5.2-.7.2-.1.5-.1.7.2.4.6.5 1.4.4 2.1 0 .2-.2.4-.5.4m-17 5.5c-.7 0-1.3-.2-1.8-.5-.7-.5-1.1-1.5-1-2.5.1-.9.5-1.7.9-2.3.1-.2.2-.4.4-.6.4-.5.8-1.1 1-1.9 0-.3.3-.5.6-.4.3 0 .5.3.4.6-.2 1-.7 1.7-1.2 2.3-.1.2-.2.3-.3.5-.3.5-.7 1.2-.8 1.9s.2 1.3.6 1.6c.3.2.8.3 1.3.3.6 0 1.3-.2 1.5-.8.1-.2.3-.3.5-.3s.4.1.5.3c.2.4.6.7 1 .6.2 0 .3-.2.4-.4 0-.1.1-.3 0-.4-.2-.2-.1-.5.1-.7s.5-.1.7.1c.3.4.4.9.2 1.3-.2.5-.6.9-1.1 1.1-.6.2-1.3-.1-1.8-.5-.5.5-1.3.7-1.9.7z" class="st2"/><path d="M41.3 42.4c-1.2 0-2.3-.4-3.1-1.2-.9-.9-1.5-2-1.5-3.3-.1-1.3.4-2.5 1.2-3.5s2-1.5 3.2-1.6 2.4.4 3.4 1.2c.9.9 1.5 2 1.5 3.3.1 2.6-1.8 4.9-4.4 5-.2.1-.3.1-.3.1m-.1-8.6H41c-1 .1-1.9.5-2.5 1.2-.7.8-1 1.7-.9 2.8.1 1 .5 2 1.2 2.6.7.7 1.7 1 2.6 1 2-.1 3.6-1.9 3.5-4-.1-1-.5-2-1.2-2.6-.7-.7-1.6-1-2.5-1" class="st2"/><path d="M34.4 42.7c-2.5 0-4.5-2-4.7-4.6-.1-2.6 1.8-4.9 4.4-5 1.5-.1 2.9.5 3.8 1.7.2.2.1.5-.1.7s-.5.1-.7-.1a3.4 3.4 0 0 0-3-1.3c-2 .1-3.6 1.9-3.5 4s1.8 3.7 3.9 3.6c.3 0 .6-.1.9-.2s.5.1.6.3c.1.3-.1.5-.3.6-.4.1-.8.2-1.1.2 0 .1-.1.1-.2.1" class="st2"/><path d="M30.6 38.3c-.2 0-.4-.1-.5-.4s.1-.5.4-.6c.2 0 3.8-1 6.8 0 .3.1.4.4.3.6-.1.3-.4.4-.6.3-2.7-.9-6.2 0-6.2 0-.1.1-.2.1-.2.1" class="st2"/><path d="M37.2 38.5c-.2 0-.4-.1-.5-.4s.1-.5.3-.6 4.9-1.4 8.5 0c.3.1.4.4.3.6-.1.3-.4.4-.6.3-3.3-1.3-7.8.1-7.8.1z" class="st2"/><path d="M32.7 37.6c-.3.4-.5.9-.5 1.4l2.1.1-1.5 1.6c.5.6 1.2.9 2 .9 1.4-.1 2.5-1.3 2.4-2.7 0-.5-.2-1-.5-1.4m2.3.2c-.1.3-.2.6-.2.9l2.1.1-1.5 1.6c.5.6 1.2.9 2 .9 1.4-.1 2.5-1.3 2.4-2.7 0-.3-.1-.7-.2-1m-11.4-4.3c-.3 0-.5-.2-.5-.5s.2-.5.5-.5l4.6-.2c.3 0 .5.2.5.5s-.2.5-.5.5zm5.6 28.6c-2.1 0-5.1-.7-6.7-2.8-1.1-1.4-1.5-3.2-1-5.3.8-3.4 2.4-4.6 3.6-5.5.9-.7 1.3-1.1 1.3-1.9 0-.3.2-.5.5-.5s.5.2.5.5c.1 1.4-.7 2.1-1.6 2.8-1.1.9-2.5 1.9-3.3 5-.4 1.8-.2 3.3.8 4.5C33.3 60.3 36 61 38 61c3.7-.2 6.4-1.2 7.6-2.9.8-1.1.9-2.5.4-4.3-.8-2.8-2.4-3.7-4-4.5-1.3-.7-2.7-1.4-3-3.4 0-.3.1-.5.4-.6.3 0 .5.1.6.4.2 1.5 1.2 2 2.5 2.7 1.6.8 3.5 1.9 4.5 5.1q.9 3-.6 5.1c-1.7 2.4-5.5 3.1-8.3 3.3-.1-.1-.2-.1-.3-.1M24.4 43.5c-.1 0-.3-.1-.4-.2-.2-.2-.2-.5.1-.7.8-.7 2-.9 3-.5.3.1.4.4.3.6-.1.3-.4.4-.6.3-.7-.2-1.4-.1-2 .3-.2.2-.3.2-.4.2" class="st2"/><path d="M25.5 42.9c-.2 0-.4-.1-.5-.3-.3-.7-.3-1.5.1-2.2.1-.2.4-.3.7-.2.2.1.3.4.2.7-.2.4-.2.9 0 1.4.1.3 0 .5-.3.7-.1-.1-.1-.1-.2-.1" class="st2"/></svg>