<svg xmlns="http://www.w3.org/2000/svg" xml:space="preserve" id="Layer_1" x="0" y="0" viewBox="0 0 80 80"><style>.st0{fill:#f68dfe}.st1{fill:#cf4cd9}.st2{fill:#002140}.st3{fill:#fbccff}</style><path d="M0 0h80v80H0z" class="st0"/><path d="M15.4 35.7s-1.6 3.9-4.3 4.2c0 0 3.7 1.6 4 4 0 0 1.5-3.5 4.4-3.9 0-.1-3.9-.9-4.1-4.3m45.4 9.4s-1.6 3.9-4.3 4.2c0 0 3.7 1.6 4 4 0 0 1.5-3.5 4.4-3.9.1 0-3.8-.9-4.1-4.3" class="st1"/><path d="M39.9 72.4c-18 0-32.7-14.7-32.7-32.7S21.9 7 39.9 7s32.7 14.7 32.7 32.7c0 18.1-14.7 32.7-32.7 32.7m0-64.4C22.4 8 8.2 22.3 8.2 39.7s14.2 31.7 31.7 31.7 31.7-14.2 31.7-31.7S57.4 8 39.9 8" class="st2"/><path d="M60.7 54.4c-.2 0-.4-.2-.5-.4-.8-2.9-1.3-3.4-4.2-4.2-.2-.1-.4-.3-.4-.5s.2-.4.4-.5c2.9-.8 3.4-1.3 4.2-4.2.1-.2.3-.4.5-.4s.4.2.5.4c.8 2.9 1.3 3.4 4.2 4.2.2.1.4.3.4.5s-.2.4-.4.5c-2.9.8-3.4 1.3-4.2 4.2 0 .2-.2.4-.5.4m-2.8-5.1c1.5.6 2.3 1.3 2.9 2.9.6-1.5 1.3-2.3 2.9-2.9-1.5-.6-2.3-1.3-2.9-2.9-.6 1.6-1.4 2.3-2.9 2.9M15 45.2c-.2 0-.4-.2-.5-.4-.8-2.9-1.3-3.4-4.2-4.2-.2-.1-.4-.3-.4-.5s.2-.4.4-.5c2.9-.8 3.4-1.3 4.2-4.2.1-.4.9-.4 1 0 .8 2.9 1.3 3.4 4.2 4.2.2.1.4.3.4.5s-.2.4-.4.5c-2.9.8-3.4 1.3-4.2 4.2-.1.2-.3.4-.5.4m-2.8-5.1c1.5.6 2.3 1.3 2.9 2.9.6-1.5 1.3-2.3 2.9-2.9-1.5-.6-2.3-1.3-2.9-2.9-.7 1.6-1.4 2.4-2.9 2.9" class="st2"/><path d="M26.6 39.7s-7-.6-7.5-5.3.2-7.3 2.5-9.1c2.4-1.8 8 .3 8 .3s1.5-14 4.4-14.7c3-.7 4.4 5.2 4.4 5.2s3-5.3 5.8-5c2.9.3 2.4 12.6 5 14.3S61.4 31.5 60 38.6c-2.1 5.3-9.5 4.4-9.5 4.4l-.3-.5-.2-7.7s-8-3.9-14-3.3c-6 .7-7.5 1.6-7.5 1.6l-.2 4.2z" class="st1"/><path d="m35.5 28 7.4-3.5s-8.6-1-13-.1l-.3 1.3z" class="st0"/><path d="M28.5 32.6 27.7 47s-.7 12.4-.4 14.2 7.7 3.6 7.7 3.6l12.3-1.4 2.5-6.7v-22c.1 0-7.3-5-21.3-2.1" class="st1"/><path d="M30.8 44.9c2.2 0 4-1.8 4-4.1 0-2.2-1.8-4.1-4-4.1s-4 1.8-4 4.1 1.8 4.1 4 4.1m8.7.5c2.2 0 4.1-1.8 4.1-4.1 0-2.2-1.8-4.1-4.1-4.1-2.2 0-4.1 1.8-4.1 4.1.1 2.3 1.9 4.1 4.1 4.1m-7.9 9.2s6.7.1 7 .1c.3.1.7-2.2.7-2.2l-8.6.2z" class="st3"/><path d="M50 40.4s-4 2.6-4.4 6.2c-.5 3.6.1 14.7.1 14.7s-2.2-2.5-7.3-.6l-1.3-1s-1.2-.1-2 .1-1.9-.1-1.9-.1l-1.5.9s-1-2.2-4-1.2c0 0-.2 5.5 1.6 5.6l1.8.1s2.2 2.8 5.7 1.4c0 0 3.3 2.2 6.7-.6 0 0 5.5-.3 6.6-7.6S50 40.4 50 40.4m-10.4 5.8c-2.6 0-4.8-2.1-4.8-4.8s2.1-4.8 4.8-4.8 4.8 2.1 4.8 4.8-2.2 4.8-4.8 4.8m0-8.5c-2.1 0-3.8 1.7-3.8 3.8s1.7 3.8 3.8 3.8 3.8-1.7 3.8-3.8c-.1-2.1-1.8-3.8-3.8-3.8" class="st2"/><path d="M30.9 45.6c-2.6 0-4.8-2.1-4.8-4.8 0-2.6 2.1-4.8 4.8-4.8s4.8 2.1 4.8 4.8c0 2.6-2.2 4.8-4.8 4.8m0-8.5c-2.1 0-3.8 1.7-3.8 3.8s1.7 3.8 3.8 3.8 3.8-1.7 3.8-3.8-1.7-3.8-3.8-3.8m8.6 1.1c1.2 0 2.3 1 2.5 2.4l-2.5.6 1.9 2c-.5.6-1.1 1-1.9 1-1.4 0-2.6-1.4-2.6-3s1.2-3 2.6-3" class="st2"/><path d="M30.8 37.8c1.2 0 2.3 1 2.5 2.4l-2.5.6 1.9 2c-.5.6-1.1 1-1.9 1-1.4 0-2.6-1.4-2.6-3 .1-1.6 1.2-3 2.6-3m7.4 11.7c-.2 0-.3 0-.5-.1-.4-.1-.8-.3-1.1-.6q-.6.6-1.5.6c-.5 0-1-.2-1.4-.6-.5.4-1.3.5-1.6.5s-.7.1-1.1-.1c-.9-.4-1.1-1.4-1-2.2s.4-1.5.8-2.2c.2-.2.5-.3.7-.1s.3.5.1.7c-.4.5-.6 1.1-.7 1.7-.1.5 0 1 .4 1.2q.3.15.6 0c.5 0 1.1-.2 1.2-.5.1-.2.2-.3.4-.3s.4.1.5.3c.2.4.6.6 1 .6s.8-.2 1-.6c.1-.2.2-.3.4-.3s.4.1.4.2q.3.45.9.6c.4.1.7 0 1-.2.2-.2.4-.4.4-.6.1-.4-.2-1-.7-1.7-.2-.2-.1-.5.1-.7s.5-.1.7.1c.7.9 1 1.8.9 2.5-.1.5-.3.9-.8 1.2-.2.5-.6.6-1.1.6m3.3-14.3c-.2 0-.3-.1-.4-.2-.7-1-2.2-1.4-3.2-.8-.2.1-.5 0-.7-.2s0-.5.2-.7c1.5-.8 3.5-.2 4.5 1.1.2.2.1.5-.1.7-.1 0-.2.1-.3.1m-10.6-.6c-.1 0-.2 0-.3-.1-.2-.2-.2-.5-.1-.7.4-.5 1.1-.8 1.8-.9.7 0 1.4.2 1.9.7.2.2.2.5 0 .7s-.5.2-.7 0c-.3-.3-.7-.4-1.1-.4s-.8.2-1.1.5c-.1.2-.2.2-.4.2m14.6 27.1c-.1 0-.2 0-.3-.1 0 0-4.2-2.5-6.6-.3-.1.1-.3.2-.4.1-.1 0-.3-.1-.4-.2 0 0-.8-1.2-3.1-1.2-.3 0-.5-.2-.5-.5s.2-.5.5-.5c2 0 3.1.8 3.6 1.3 2.2-1.7 5.2-.6 6.6.1V49c0-6.9 4.5-9 4.7-9.1s.5 0 .7.3c.1.3 0 .5-.2.7-.3 0-4.1 1.8-4.1 8.1v12.2c0 .2-.1.3-.3.4-.1 0-.2.1-.2.1" class="st2"/><path d="M31.7 61q-.15 0 0 0c-.2 0-.4-.1-.4-.2-.6-1.1-2.2-1.6-3.4-1.2-.3.1-.5 0-.7-.3s0-.5.3-.7c1.4-.6 3.2-.1 4.2 1.1.5-.5 1.3-.8 3-.8.3 0 .5.2.5.5s-.2.5-.5.5c-1.9 0-2.2.4-2.6.9-.1.2-.3.2-.4.2" class="st2"/><path d="M39.9 67.7c-.9 0-1.9-.2-3-.8-.6.3-2.2.8-3.7.2-.9-.3-1.6-1-2-2-.5.3-1.3.6-2.1.4-.8-.3-1.4-1-1.6-2.3-.8-3.6.3-18.2.3-18.8 0-.3.2-.5.5-.5s.5.3.5.5c0 .1-1.1 15-.3 18.5.1.6.4 1.4 1 1.6s1.4-.3 1.6-.6c.1-.1.3-.1.5-.1s.3.2.3.3c.4 1 .9 1.7 1.7 2 1.4.6 3.1-.3 3.2-.3.2-.1.3-.1.5 0 3.4 2 5.8-.3 5.9-.4s.2-.1.4-.1c1.4 0 2.6-.4 3.5-1.3 2.6-2.6 2.7-7.9 2.7-8V35.2c0-.3.2-.5.5-.5s.5.2.5.5V56c0 .2 0 5.8-3 8.7-1.1 1.1-2.5 1.6-4.1 1.6-.5.4-1.9 1.4-3.8 1.4M28.3 37.8q-.15 0 0 0c-.3 0-.5-.3-.5-.6 0 0 .2-2 .4-4.1 0-.3.3-.5.5-.5.3 0 .5.3.5.5-.2 2.1-.4 4.1-.4 4.2-.1.3-.3.5-.5.5" class="st2"/><path d="M51.7 36.6c-.1 0-.2 0-.3-.1s-11.5-9.3-27.3-.8c-.2.1-.5 0-.7-.2s0-.5.2-.7c8.5-4.6 15.8-4.1 20.4-2.9 5 1.3 7.9 3.7 8 3.8.2.2.2.5.1.7-.1.1-.2.2-.4.2M38.6 55.2l-7-.1c-.3 0-.5-.2-.5-.5s.2-.5.5-.5l7 .1c.3 0 .5.2.5.5s-.2.5-.5.5" class="st2"/><path d="M35.2 54.9c-.2 0-.5-.2-.5-.4-.1-.9.1-1.9.1-1.9.1-.3.3-.4.6-.4.3.1.4.3.4.6 0 0-.2.9-.1 1.6.1.2-.1.5-.5.5q.15 0 0 0" class="st2"/><path d="M35 57.1c-1.6 0-2.8-.5-3.5-1.3-1.2-1.4-1-3.2-1-3.3 0-.2.2-.4.5-.4h8.6c.1 0 .3.1.4.1.1.1.1.2.1.4 0 0-.1 4.5-5.1 4.5m-3.5-4c0 .5.1 1.4.7 2.1s1.5 1 2.8 1c3.1 0 3.8-2.1 4-3.1zm8.1 0" class="st2"/><path d="M31.8 55s.8 1.4 2.7 1.6c1.9.1 3.1-.8 3.1-.8s1.5-.8.3-.9c-1.1-.1-6-.2-6-.2s-.4.1-.1.3m19.1-11.4h-.5c-.3 0-.5-.2-.5-.5s.3-.5.5-.5c.1 0 5.9.2 8.2-2.4.9-1 1.2-2.2.9-3.7-1.1-6.8-11.3-11.8-15-11.6-3.5.2-8.7 3.5-8.7 3.5-.1.1-.3.1-.5 0-.1 0-7.7-3.8-11-3.5-3.5.4-5.4 3.8-5 8.6.5 4.9 6.7 5.6 7 5.6s.5.3.5.5c0 .3-.3.5-.5.5-.1 0-7.3-.7-7.9-6.5-.5-5.4 1.9-9.3 5.8-9.7 3.3-.4 9.9 2.8 11.3 3.4 1.1-.7 5.6-3.3 9-3.5 4-.2 14.9 5 16 12.4q.45 2.7-1.2 4.5c-2.2 2.7-6.8 2.9-8.4 2.9" class="st2"/><path d="M29.7 26s-.1 0 0 0c-.3 0-.5-.3-.5-.5.2-2.5 1.6-15 4.9-15 2.4.1 3.7 2.7 4.3 4.3.9-1.6 2.8-4.3 5.5-4.1 2.2.2 2.7 3.3 3.2 6.8.4 2.8.8 6 2.3 7.5.2.2.2.5 0 .7s-.5.2-.7 0c-1.7-1.8-2.1-5-2.5-8.1-.4-3-.8-5.8-2.3-6-3.1-.3-5.1 4.6-5.1 4.6-.1.2-.3.3-.5.3s-.4-.2-.4-.4c0 0-1.1-4.7-3.7-4.8-1.6 0-3.3 7.3-3.9 14.1q-.3.6-.6.6" class="st2"/><path d="M43 25h-.1c-4.1-1.2-12.9-.1-13-.1-.3 0-.5-.2-.6-.4 0-.3.2-.5.4-.6.4 0 9.1-1.1 13.4.2.3.1.4.4.3.6 0 .2-.2.3-.4.3" class="st2"/><path d="M35.6 28.5c-.2 0-.4-.1-.5-.4-.4-1.5.1-4.1.1-4.2.1-.3.3-.5.6-.4s.4.3.4.6c-.1.7-.4 2.8-.1 3.8.1.3-.1.5-.4.6z" class="st2"/></svg>