<?xml version="1.0" encoding="utf-8"?>
<!-- Generator: Adobe Illustrator 26.5.0, SVG Export Plug-In . SVG Version: 6.00 Build 0)  -->
<svg version="1.1" id="Layer_1" xmlns="http://www.w3.org/2000/svg" xmlns:xlink="http://www.w3.org/1999/xlink" x="0px" y="0px"
	 viewBox="0 0 80 80" style="enable-background:new 0 0 80 80;" xml:space="preserve">
<style type="text/css">
	.st0{fill:#003C73;}
	.st1{fill:#002140;}
	.st2{fill:#0164BF;}
	.st3{fill:#8DC8FF;}
	.st4{fill:#0185FF;}
</style>
<g>
	<rect class="st0" width="80" height="80"/>
</g>
<g>
	<path class="st1" d="M52.1,26.5c0,0,1.7,3.4,1.9,3.9c0.2,0.5,2.1,8.5,2.4,9.8c0.3,1.3,3.2,6.2,4.8,7.4c1.6,1.2,8,5.6,8,5.6
		s1.4-2.8,1.6-3.1c0.2-0.3,1.4-7.5,1.4-7.5l-8-0.1c0,0-1.3-1.1-1.2-2.1c0.1-1.1,1.2-7,1.2-7s0.7-1.4-1-1.9
		C61.4,31,52.1,26.5,52.1,26.5z"/>
</g>
<g>
	<path class="st2" d="M30.7,52.4c0,0-2,4.8-5.2,5c0,0,4.5,2,4.9,4.9c0,0,1.9-4.2,5.3-4.8C35.7,57.6,31,56.6,30.7,52.4L30.7,52.4z"/>
</g>
<g>
	<path class="st1" d="M30.2,63.9c-0.2,0-0.4-0.2-0.5-0.4c-0.9-3.5-1.6-4.2-5.1-5.1c-0.2-0.1-0.4-0.3-0.4-0.5s0.2-0.4,0.4-0.5
		c3.5-0.9,4.2-1.6,5.1-5.1c0.1-0.4,0.9-0.4,1,0c0.9,3.5,1.6,4.2,5.1,5.1c0.2,0.1,0.4,0.3,0.4,0.5s-0.2,0.4-0.4,0.5
		c-3.5,0.9-4.2,1.6-5.1,5.1C30.7,63.7,30.5,63.9,30.2,63.9z M26.5,57.9c2.1,0.7,3,1.7,3.8,3.8c0.7-2.1,1.7-3,3.8-3.8
		c-2.1-0.7-3-1.7-3.8-3.8C29.5,56.2,28.6,57.1,26.5,57.9z"/>
</g>
<g>
	<path class="st1" d="M40.1,72.3c-18,0-32.7-14.7-32.7-32.7c0-18,14.7-32.7,32.7-32.7c18,0,32.7,14.7,32.7,32.7c0,1,0,1.9-0.1,2.9
		c0,0.3-0.2,0.5-0.5,0.5c-0.3,0-0.5-0.3-0.5-0.5c0.1-0.9,0.1-1.9,0.1-2.8c0-17.5-14.2-31.7-31.7-31.7S8.5,22.2,8.5,39.6
		s14.2,31.7,31.7,31.7c2.1,0,4.2-0.2,6.2-0.6c0.3-0.1,0.5,0.1,0.6,0.4c0.1,0.3-0.1,0.5-0.4,0.6C44.5,72.1,42.3,72.3,40.1,72.3z"/>
</g>
<g>
	<path class="st2" d="M69.2,53.6c0.4-0.9-8.4-5.4-10.2-8.4c-4.6-7.7-4.4-12.3-4.4-12.3s-1.8-9.7-7.8-10.4c-6-0.7-8.8,1.5-10.2,2.7
		c-1.4,1.2-2.8,3.1-4.2,2.8s-3.2-0.9-3.2-0.9s-2-1.2-3.4-0.6c-1.4,0.5-2.7,1.8-2.7,1.8s-1,0.9-1.7,0.9c-0.7,0-2.7-0.3-3.1-1
		c-0.4-0.6-2.1-1.7-3.6-1.7s-3.2,1.5-3.2,1.5s-1.7-2.6-3.5-1.9c-1.8,0.6-1.6,2.4-1.6,2.4s-3-0.2-3.6,2.3c-0.6,2.6,1.4,4.5,3.7,4.9
		C9,36,22.9,37.1,22.9,37.1l-2.3,5c0,0-5.9,1.2-5.9,3.5c0,2.3,4.5,2.7,6,2.4s13.5-2.1,17.3,2.1c3.2,3.5,6.8,15.5,8,19.6
		c0,0.2,0.1,0.3,0.1,0.4c0.2,0.6,10.5,0,17.9-9.1"/>
</g>
<g>
	<path class="st3" d="M44.7,37c3.3,0,5.9-2.6,5.9-5.9c0-3.3-2.6-5.9-5.9-5.9s-5.9,2.6-5.9,5.9C38.8,34.4,41.4,37,44.7,37z"/>
</g>
<g>
	<path class="st3" d="M31.4,27.7c0,0,1.8,0.2,2.7-0.4c0.9-0.6,5.6-4.7,7.6-5c0,0-1.7-3.9-6.2-3.6C31,18.9,29.1,23.7,31.4,27.7
		L31.4,27.7z"/>
</g>
<g>
	<path class="st3" d="M26.4,37.8c0,0-0.5,2.6,1.4,2.9c2.4,0.5,2.9-2.2,2.9-2.2L26.4,37.8L26.4,37.8z"/>
</g>
<g>
	<path class="st3" d="M21.4,37.3c0,0-0.5,2.6,1.4,2.9c2.4,0.5,2.9-2.2,2.9-2.2L21.4,37.3L21.4,37.3z"/>
</g>
<g>
	<path class="st3" d="M16.1,36.9c0,0-0.5,2.6,1.4,2.9c2.4,0.5,2.9-2.2,2.9-2.2L16.1,36.9L16.1,36.9z"/>
</g>
<g>
	<path class="st3" d="M10.8,36.3c0,0-0.5,2.6,1.4,2.9c2.4,0.5,2.9-2.2,2.9-2.2L10.8,36.3L10.8,36.3z"/>
</g>
<g>
	<path class="st3" d="M5.9,35.5c0,0-0.5,2.6,1.4,2.9c2.4,0.5,2.9-2.2,2.9-2.2L5.9,35.5L5.9,35.5z"/>
</g>
<g>
	<path class="st4" d="M46.4,71.1l4.8-1.2c0,0-3.6-21.3-10.3-27.3c-4.3-3.6-5.7-3-5.7-3s-0.3,1.2-2.7,1.6c-2.4,0.5-14.1,1.4-14.4,1.5
		c-0.3,0.2-3.4,0.9-3.3,2.2c0.1,1.4-0.3,3.1,6.1,2.9c6.4-0.3,13.3-0.9,17,2c2.7,3.9,6.3,14.1,7.2,17.3
		C45.9,70.5,46.4,71.1,46.4,71.1L46.4,71.1z"/>
</g>
<g>
	<path class="st1" d="M11,31.4c0,0,0-2.1-0.5-2.8C10,27.9,8.9,27,8.6,27.5c-0.4,0.4,0.2,2.1,0.2,2.1S9.6,31.9,11,31.4L11,31.4z"/>
</g>
<g>
	<path class="st1" d="M21.4,38.7l-0.5-1.1l-0.7,1.2l0.2,3.2l7.7-0.5l-0.8-0.8l-1.4-2c0,0-1,2.1-2.4,2.1C22,40.7,21.4,39,21.4,38.7
		L21.4,38.7z"/>
</g>
<g>
	<path class="st1" d="M30.9,38.6c0,0-0.5,2.5-2.2,2.8c0,0,5.7,0.2,6.1-1.9L30.9,38.6z"/>
</g>
<g>
	<path class="st1" d="M46.4,71.6c-0.2,0-0.4-0.1-0.5-0.3c-0.7-2-1.4-4.1-2.1-6.1c-1.2-3.6-2.4-7.3-4-10.8c-0.8-1.8-1.6-3.6-3.3-4.5
		c-1.9-1-4.4-1.6-7.1-1.9c-2-0.2-4.1-0.2-6.6,0.1c-0.5,0.1-0.9,0.1-1.4,0.2c-0.9,0.1-1.8,0.3-2.7,0.3c-1.1,0-3-0.2-4.1-1.4
		c-0.5-0.5-0.7-1.2-0.5-1.9c0.1-0.8,0.8-1.7,1.6-2.1c2.5-1.4,5.9-1.6,8.9-1.8c0.9,0,1.9-0.1,2.7-0.2c0.3,0,0.6,0,0.9-0.1
		c2-0.1,5.7-0.4,6.2-2c0.1-0.3,0.4-0.4,0.6-0.3c0.3,0.1,0.4,0.4,0.3,0.6c-0.8,2.2-4.7,2.5-7.1,2.7c-0.4,0-0.7,0-0.9,0.1
		c-0.9,0.1-1.8,0.1-2.8,0.2c-2.9,0.1-6.1,0.3-8.4,1.6c-0.6,0.3-1,0.9-1.1,1.4c-0.1,0.4,0,0.7,0.3,1.1c0.8,1,2.6,1.1,3.4,1.1
		c0.8,0,1.7-0.1,2.6-0.3c0.5-0.1,1-0.2,1.4-0.2c2.5-0.3,4.7-0.3,6.8-0.1c2.9,0.3,5.4,1,7.5,2c2,1,2.9,3.1,3.7,4.9
		c1.6,3.6,2.8,7.4,4,11c0.7,2,1.3,4.1,2,6c0.1,0.3,0,0.5-0.3,0.6C46.6,71.6,46.5,71.6,46.4,71.6z"/>
</g>
<g>
	<path class="st1" d="M69.3,53.8c-0.1,0-0.2,0-0.2-0.1c-4.4-2.5-7.9-5.3-10.6-8.4c-1.7-2.1-2.6-5.6-3.5-9.3c-1.5-5.9-3-12-7.9-13.2
		c-5.5-1.4-8.3,1.2-10.6,3.3c-1.2,1-2.2,2-3.3,2.1c-1.6,0.2-2.7-0.3-3.7-0.7c-0.9-0.4-1.7-0.8-3-0.6c-1.3,0.1-1.8,0.7-2.3,1.3
		c-0.5,0.6-1.1,1.3-2.5,1.4c-1.3,0.1-2.3-0.6-3.3-1.3c-1-0.7-1.9-1.4-3.1-1.3c-1.9,0.1-2.6,0.8-2.9,1.2c-0.2,0.2-0.5,0.3-0.7,0.1
		c-0.2-0.2-0.3-0.5-0.1-0.7c0.4-0.5,1.4-1.5,3.6-1.6c1.6-0.1,2.7,0.8,3.7,1.5c0.9,0.7,1.7,1.2,2.6,1.1c0.9-0.1,1.3-0.5,1.8-1.1
		c0.6-0.7,1.3-1.5,3-1.7c1.6-0.2,2.6,0.3,3.6,0.7c0.9,0.4,1.8,0.8,3.2,0.7c0.8-0.1,1.7-0.9,2.8-1.8c2.4-2.1,5.6-5,11.5-3.5
		c5.6,1.4,7.2,8.1,8.7,14c0.9,3.6,1.7,7,3.3,8.9c2.6,3,6,5.7,10.3,8.2c0.2,0.1,0.3,0.4,0.2,0.7C69.6,53.7,69.4,53.8,69.3,53.8z"/>
</g>
<g>
	<path class="st1" d="M51.3,70.2c-0.2,0-0.4-0.2-0.5-0.4c-3-14.8-6.9-28.7-15.8-30c-0.3,0-0.5-0.3-0.4-0.6c0-0.3,0.3-0.5,0.6-0.4
		c10,1.5,13.8,16.7,16.7,30.8C51.8,69.9,51.6,70.1,51.3,70.2C51.3,70.2,51.3,70.2,51.3,70.2z"/>
</g>
<g>
	<path class="st1" d="M35,39.8c0,0-0.1,0-0.1,0c-4.4-1.3-12.2-2-18.5-2.6c-4.9-0.4-9.2-0.8-10.9-1.4l0,0c0,0-4.1-1.1-3.1-5.6
		c0.7-2.3,2.9-2.5,4-2.4c0.3,0,0.5,0.3,0.4,0.6c0,0.3-0.3,0.5-0.6,0.4c-0.1,0-2.2-0.4-2.8,1.6c-0.8,3.6,2.3,4.4,2.4,4.4
		c1.6,0.5,5.8,0.9,10.7,1.3c6.7,0.6,14.2,1.3,18.7,2.6c0.3,0.1,0.4,0.4,0.3,0.6C35.4,39.7,35.2,39.8,35,39.8z"/>
</g>
<g>
	<path class="st1" d="M8.7,33.1c-0.1,0-0.3-0.1-0.4-0.2c-0.1-0.1-2.8-3.4-2.2-5.8c0.2-0.8,0.7-1.4,1.6-1.8c0.8-0.4,1.6-0.4,2.3,0
		c2.3,1.2,3.3,5.5,3.3,5.7c0.1,0.3-0.1,0.5-0.4,0.6c-0.3,0.1-0.5-0.1-0.6-0.4c-0.3-1.1-1.3-4.3-2.8-5c-0.5-0.2-1-0.2-1.5,0
		c-0.5,0.2-0.9,0.6-1,1.1c-0.4,1.5,1.3,4.1,2,4.9C9.3,32.5,9.3,32.8,9,33C8.9,33,8.8,33.1,8.7,33.1z"/>
</g>
<g>
	<path class="st1" d="M10.6,32c-0.3,0-0.6-0.1-1-0.4c-0.4-0.3-0.8-0.8-1.2-1.4s-0.6-1.2-0.6-1.7c-0.1-0.9,0.3-1.3,0.5-1.4
		c0.8-0.5,2,0.5,2.7,1.7c0.3,0.6,0.6,1.2,0.6,1.7c0.1,0.9-0.3,1.3-0.5,1.4l0,0C11,31.9,10.8,32,10.6,32z M10.6,31L10.6,31L10.6,31
		L10.6,31z M8.8,27.9C8.8,27.9,8.8,27.9,8.8,27.9c-0.1,0.1-0.1,0.8,0.5,1.8c0.5,0.9,1.1,1.3,1.3,1.3c0.1-0.2,0-0.9-0.5-1.8
		C9.5,28.2,8.9,27.9,8.8,27.9z"/>
</g>
<g>
	<path class="st1" d="M7.7,39c-0.1,0-0.3,0-0.5,0c-0.7-0.1-1.3-0.4-1.7-1c-0.8-1.1-0.4-2.6-0.4-2.7c0.1-0.3,0.3-0.4,0.6-0.4
		C6,35,6.2,35.2,6.1,35.5c0,0-0.2,1.2,0.3,1.9c0.2,0.3,0.5,0.5,1,0.6c1.8,0.2,2.3-1.8,2.3-1.9c0.1-0.3,0.3-0.4,0.6-0.4
		c0.3,0.1,0.4,0.3,0.4,0.6C10.5,37.3,9.6,39,7.7,39z"/>
</g>
<g>
	<path class="st1" d="M12.8,39.9c0,0-0.1,0-0.1,0c-0.7,0-1.3-0.3-1.8-0.8c-0.9-1-0.7-2.6-0.7-2.7c0-0.3,0.3-0.5,0.6-0.4
		c0.3,0,0.5,0.3,0.4,0.5c0,0-0.1,1.2,0.5,1.9c0.2,0.3,0.6,0.4,1.1,0.5c1.8,0.1,2.1-2,2.1-2.1c0-0.3,0.3-0.5,0.6-0.4
		c0.3,0,0.5,0.3,0.4,0.6C15.7,38,14.9,39.9,12.8,39.9z"/>
</g>
<g>
	<path class="st1" d="M18.1,40.4c0,0-0.1,0-0.1,0c-0.7,0-1.3-0.3-1.8-0.8c-0.9-1-0.7-2.6-0.7-2.7c0-0.3,0.3-0.5,0.6-0.4
		c0.3,0,0.5,0.3,0.4,0.5c0,0-0.1,1.2,0.5,1.9c0.2,0.3,0.6,0.4,1.1,0.5c1.8,0.1,2.1-2,2.1-2.1c0-0.3,0.3-0.5,0.6-0.4
		c0.3,0,0.5,0.3,0.4,0.6C20.9,38.4,20.1,40.4,18.1,40.4z"/>
</g>
<g>
	<path class="st1" d="M23.3,41c0,0-0.1,0-0.1,0c-0.7,0-1.3-0.3-1.8-0.8c-0.9-1-0.7-2.6-0.7-2.7c0-0.3,0.3-0.5,0.6-0.4
		c0.3,0,0.5,0.3,0.4,0.5c0,0-0.1,1.2,0.5,1.9c0.2,0.3,0.6,0.4,1.1,0.5c1.8,0,2.1-2,2.1-2.1c0-0.3,0.3-0.5,0.6-0.4
		c0.3,0,0.5,0.3,0.4,0.6C26.1,39.1,25.3,41,23.3,41z"/>
</g>
<g>
	<path class="st1" d="M28.3,41.6c0,0-0.1,0-0.1,0c-0.7,0-1.3-0.3-1.8-0.8c-0.9-1-0.7-2.6-0.7-2.7c0-0.3,0.3-0.5,0.6-0.4
		c0.3,0,0.5,0.3,0.4,0.5c0,0-0.1,1.2,0.5,1.9c0.2,0.3,0.6,0.4,1.1,0.5c1.8,0,2.1-2,2.1-2.1c0-0.3,0.3-0.5,0.6-0.4
		c0.3,0,0.5,0.3,0.4,0.6C31.1,39.7,30.3,41.6,28.3,41.6z"/>
</g>
<g>
	<path class="st1" d="M20.5,42.6c-0.3,0-0.5-0.2-0.5-0.5c0,0-0.2-2.3-0.4-3.1c-0.1-0.3,0.1-0.5,0.4-0.6c0.3-0.1,0.5,0.1,0.6,0.4
		c0.2,0.9,0.4,3.1,0.4,3.2C21,42.4,20.8,42.6,20.5,42.6C20.5,42.6,20.5,42.6,20.5,42.6z"/>
</g>
<g>
	<path class="st1" d="M44.6,37.6c-3.5,0-6.3-2.8-6.3-6.3s2.8-6.3,6.3-6.3s6.3,2.8,6.3,6.3S48.1,37.6,44.6,37.6z M44.6,25.9
		c-2.9,0-5.3,2.4-5.3,5.3c0,2.9,2.4,5.3,5.3,5.3c2.9,0,5.3-2.4,5.3-5.3C50,28.3,47.6,25.9,44.6,25.9z"/>
</g>
<g>
	<path class="st1" d="M31.2,27.9c-0.2,0-0.3-0.1-0.4-0.2c-0.6-1-0.9-2.1-0.9-3.3c0-3.5,2.8-6.3,6.3-6.3c2.6,0,4.8,1.5,5.8,3.9
		c0.1,0.3,0,0.5-0.3,0.7c-0.3,0.1-0.5,0-0.7-0.3c-0.8-2-2.8-3.3-4.9-3.3c-2.9,0-5.3,2.4-5.3,5.3c0,1,0.3,1.9,0.8,2.7
		c0.1,0.2,0.1,0.5-0.2,0.7C31.4,27.9,31.3,27.9,31.2,27.9z"/>
</g>
<g>
	<path class="st1" d="M38.8,32.7c0.3,0.2,0.5,0.4,0.9,0.5c1.2,0.5,2.6,0,3.5-1.1L41.7,30l2.6-0.2c0.3-1.8-0.4-3.5-1.7-4.1
		c0,0-2,0.8-3,2.7C38.7,30.2,38.8,32.7,38.8,32.7L38.8,32.7z"/>
</g>
<g>
	<path class="st1" d="M30.5,26c0.3,0.2,0.5,0.4,0.9,0.5c1.2,0.5,2.6,0,3.5-1.1l-1.5-2.1l2.6-0.2c0.3-1.8-0.4-3.5-1.7-4.1
		c0,0-2,0.8-3,2.7S30.5,26,30.5,26L30.5,26z"/>
</g>
<g>
	<path class="st1" d="M64.8,43c-0.7,0-1.4-0.3-1.9-0.9c-0.5-0.6-0.6-1.3-0.5-2l1.3-6.4c0.1-0.6-0.2-1.3-0.8-1.6l-11.2-5.5
		c-0.2-0.1-0.4-0.4-0.2-0.7c0.1-0.2,0.4-0.3,0.7-0.2l11.2,5.5c1,0.5,1.5,1.6,1.3,2.7l-1.3,6.4c-0.1,0.4,0,0.9,0.3,1.2
		c0.3,0.3,0.7,0.5,1.1,0.5c0,0,0,0,0,0l7.4,0c0,0,0,0,0,0c0.3,0,0.5,0.2,0.5,0.5c0,0.3-0.2,0.5-0.5,0.5L64.8,43
		C64.8,43,64.8,43,64.8,43z"/>
</g>
<g>
	<path class="st1" d="M46.5,71.7c-0.2,0-0.4-0.2-0.5-0.4c-0.1-0.3,0.1-0.5,0.4-0.6C60.1,68,70.5,56.4,71.7,42.4
		c0-0.3,0.3-0.5,0.5-0.5c0.3,0,0.5,0.3,0.5,0.5C71.5,56.9,60.7,68.9,46.5,71.7C46.6,71.7,46.5,71.7,46.5,71.7z"/>
</g>
</svg>
