<?xml version="1.0" encoding="utf-8"?>
<!-- Generator: Adobe Illustrator 26.5.0, SVG Export Plug-In . SVG Version: 6.00 Build 0)  -->
<svg version="1.1" id="Layer_1" xmlns="http://www.w3.org/2000/svg" xmlns:xlink="http://www.w3.org/1999/xlink" x="0px" y="0px"
	 viewBox="0 0 80 80" style="enable-background:new 0 0 80 80;" xml:space="preserve">
<style type="text/css">
	.st0{fill:#CCF7FF;}
	.st1{fill:#4BA6A6;}
	.st2{fill:#002140;}
	.st3{fill:#50EEF6;}
</style>
<g>
	<rect class="st0" width="80" height="80"/>
</g>
<g>
	<path class="st1" d="M15.5,36.3c0,0-1.6,3.9-4.3,4.2c0,0,3.7,1.6,4,4c0,0,1.5-3.5,4.4-3.9C19.7,40.6,15.8,39.7,15.5,36.3L15.5,36.3
		z"/>
</g>
<g>
	<path class="st1" d="M63.9,27c0,0-1.6,3.9-4.3,4.2c0,0,3.7,1.6,4,4c0,0,1.5-3.5,4.4-3.9C68,31.3,64.1,30.4,63.9,27L63.9,27z"/>
</g>
<g>
	<path class="st2" d="M39.9,72.4c-18,0-32.7-14.7-32.7-32.7C7.2,21.7,21.9,7,39.9,7c18,0,32.7,14.7,32.7,32.7
		C72.6,57.8,57.9,72.4,39.9,72.4z M39.9,8C22.4,8,8.2,22.3,8.2,39.7c0,17.5,14.2,31.7,31.7,31.7s31.7-14.2,31.7-31.7
		C71.6,22.3,57.4,8,39.9,8z"/>
</g>
<g>
	<path class="st2" d="M63.8,36.3c-0.2,0-0.4-0.2-0.5-0.4c-0.8-2.9-1.3-3.4-4.2-4.2c-0.2-0.1-0.4-0.3-0.4-0.5s0.2-0.4,0.4-0.5
		c2.9-0.8,3.4-1.3,4.2-4.2c0.1-0.2,0.3-0.4,0.5-0.4l0,0c0.2,0,0.4,0.2,0.5,0.4c0.8,2.9,1.3,3.4,4.2,4.2c0.2,0.1,0.4,0.3,0.4,0.5
		s-0.2,0.4-0.4,0.5c-2.9,0.8-3.4,1.3-4.2,4.2C64.2,36.2,64,36.3,63.8,36.3z M60.9,31.3c1.5,0.6,2.3,1.3,2.9,2.9
		c0.6-1.5,1.3-2.3,2.9-2.9c-1.5-0.6-2.3-1.3-2.9-2.9C63.2,30,62.5,30.7,60.9,31.3z"/>
</g>
<g>
	<path class="st2" d="M15.2,45.8L15.2,45.8c-0.2,0-0.4-0.2-0.5-0.4c-0.8-2.9-1.3-3.4-4.2-4.2c-0.2-0.1-0.4-0.3-0.4-0.5
		s0.2-0.4,0.4-0.5c2.9-0.8,3.4-1.3,4.2-4.2c0.1-0.4,0.9-0.4,1,0c0.8,2.9,1.3,3.4,4.2,4.2c0.2,0.1,0.4,0.3,0.4,0.5s-0.2,0.4-0.4,0.5
		c-2.9,0.8-3.4,1.3-4.2,4.2C15.6,45.7,15.4,45.8,15.2,45.8z M12.3,40.8c1.5,0.6,2.3,1.3,2.9,2.9c0.6-1.5,1.3-2.3,2.9-2.9
		c-1.5-0.6-2.3-1.3-2.9-2.9C14.6,39.5,13.9,40.2,12.3,40.8z"/>
</g>
<g>
	<path class="st1" d="M47.1,22.7c0,0-24.4,4.5-24.9,20.1c0,0-1.8,2.2-1.6,5.4c0.1,3.2,1.8,8.2,5,8.2c2,0,3.5-2.1,3.5-2.1l6.1,7
		c0,0,6,5.9,10.9,5.7c3.9,0.1,5.7-5.1,5.7-5.1s5.5-10.2,5.9-14.8C58.1,42.5,60.4,26.3,47.1,22.7L47.1,22.7z"/>
</g>
<g>
	<path class="st2" d="M34,24.8c0,0,3.7-2.3,6.1-2.1c2.3,0.2,4.2,1.1,4.2,1.1s2.8-2.1,2.3-6.5c-0.4-4.4-3.4-7-8.1-6.9
		c-4.7,0.1-8.1,3.1-8,7.3C30.8,22,34,24.8,34,24.8L34,24.8z"/>
</g>
<g>
	<path class="st2" d="M46.7,22.5c-0.9-0.1-16.1-3-21.4,3.8c-5.3,6.7-4,13-3.5,16.2l0.4,1.1c0,0,2-2.3,4.2-2.2
		c2.2,0.1,4.2,3.1,3.9,5.7c0,0,5.7-3.2,6.7-7.4c1.1-4.2,0.9-7.4,0.9-7.4S48.5,28.3,46.7,22.5L46.7,22.5z"/>
</g>
<g>
	<path class="st0" d="M46.3,47.8c2.5,0,4.5-2,4.5-4.5c0-2.5-2-4.5-4.5-4.5c-2.5,0-4.5,2-4.5,4.5C41.8,45.8,43.8,47.8,46.3,47.8z"/>
</g>
<g>
	<path class="st0" d="M54.9,47.6c2.5,0,4.5-2,4.5-4.5c0-2.5-2-4.5-4.5-4.5c-2.5,0-4.5,2-4.5,4.5C50.5,45.6,52.5,47.6,54.9,47.6z"/>
</g>
<g>
	<path class="st3" d="M44.9,56.6c0,0,3.8,0.4,4.1,0.4c0.3-0.1,3.8-1.1,4.1-1.1c0.8-0.1,2.4,0.1,2.2,1.3c-0.3,1.2-0.9,1.9-0.9,1.9
		s-0.6,2.8-2.4,2.7c-1.9-0.1-3-0.2-3.6-1.2C47.6,59.6,44.9,56.6,44.9,56.6L44.9,56.6z"/>
</g>
<g>
	<path class="st2" d="M46.5,67.7c-0.1,0-0.1,0-0.2,0C37,67.4,29,55.1,28.7,54.6c-0.1-0.2-0.1-0.5,0.2-0.7c0.2-0.2,0.5-0.1,0.7,0.2
		c0.1,0.1,8.1,12.4,16.9,12.7c1.7,0.1,3.7-2.8,5.1-5c0.1-0.2,0.5-0.3,0.7-0.2c0.2,0.1,0.3,0.5,0.2,0.7C50.7,65,48.6,67.7,46.5,67.7z
		"/>
</g>
<g>
	<path class="st2" d="M54.8,56.3c-0.1,0-0.1,0-0.2,0c-0.3-0.1-0.4-0.4-0.3-0.6c0.7-2,2.7-7.4,2.8-8.7c0-0.3,0.3-0.5,0.5-0.5
		c0.3,0,0.5,0.3,0.5,0.5c-0.1,1.7-2.7,8.6-2.8,8.9C55.2,56.2,55,56.3,54.8,56.3z"/>
</g>
<g>
	<path class="st2" d="M30.1,48.2c-0.2,0-0.3-0.1-0.4-0.2c-0.2-0.2-0.1-0.5,0.1-0.7c0.1-0.1,9.5-7.3,7.5-14.7
		c-0.1-0.3,0.1-0.5,0.3-0.6c0.1,0,8.7-2.9,8.9-9.4c0-0.1,0.1-0.3,0.2-0.4c0.1-0.1,0.3-0.1,0.4-0.1c0.1,0,11.5,2.2,11.4,17.7
		c0,0.3-0.2,0.5-0.5,0.5c0,0,0,0,0,0c-0.3,0-0.5-0.2-0.5-0.5c0.1-12.8-7.8-15.9-10-16.5c-0.6,6-7.3,8.9-9.1,9.6
		c1.7,7.8-7.6,15-8,15.3C30.3,48.1,30.2,48.2,30.1,48.2z"/>
</g>
<g>
	<path class="st2" d="M25.8,57c-1.1,0-2.3-0.6-3.3-1.9c-0.2-0.2-0.2-0.5,0.1-0.7c0.2-0.2,0.5-0.2,0.7,0.1c0.6,0.7,1.6,1.6,2.7,1.5
		c0.9-0.1,1.8-0.8,2.6-2.2c0.1-0.2,0.4-0.3,0.7-0.2c0.2,0.1,0.3,0.4,0.2,0.7c-1,1.7-2.1,2.5-3.4,2.7C25.9,57,25.8,57,25.8,57z"/>
</g>
<g>
	<path class="st2" d="M30.1,48.2C30.1,48.2,30.1,48.2,30.1,48.2c-0.3,0-0.5-0.3-0.5-0.5c0,0,0.3-3.4-1.2-5c-0.5-0.5-1.1-0.8-1.8-0.9
		c-1.7-0.1-3.1,0.6-4.2,1.9c-0.2,0.2-0.5,0.3-0.7,0.1c-0.2-0.2-0.3-0.5-0.1-0.7c1.3-1.6,3-2.3,5-2.2c1,0.1,1.9,0.5,2.5,1.2
		c1.7,2,1.4,5.6,1.4,5.7C30.6,48,30.4,48.2,30.1,48.2z"/>
</g>
<g>
	<path class="st2" d="M43.8,58C43.8,58,43.8,58,43.8,58c-0.3,0-0.5-0.3-0.5-0.5c0.1-1.6,1-3.2,2.3-4.2c0.2-0.2,0.5-0.1,0.7,0.1
		c0.2,0.2,0.1,0.5-0.1,0.7c-1.1,0.8-1.8,2.1-1.9,3.5C44.3,57.8,44,58,43.8,58z"/>
</g>
<g>
	<path class="st2" d="M54.1,59.5c-0.2,0-0.3-0.1-0.4-0.3c-0.1-0.2,0-0.5,0.2-0.7c0.6-0.3,0.9-0.9,0.9-1.2c0-0.5-0.4-1-1-1.1
		c-0.5-0.1-1.1,0-1.7,0.2c-0.2,0.1-0.5,0.2-0.7,0.3c-0.4,0.2-0.8,0.4-1.2,0.5c-1.7,0.6-5.3-0.6-5.7-0.7c-0.3-0.1-0.4-0.4-0.3-0.6
		c0.1-0.3,0.4-0.4,0.6-0.3c1,0.3,3.9,1.1,5.1,0.7c0.4-0.1,0.7-0.3,1.1-0.4c0.3-0.1,0.5-0.2,0.8-0.4c0.9-0.3,1.7-0.4,2.3-0.3
		c1.1,0.3,1.9,1.2,1.8,2.2c-0.1,0.6-0.5,1.5-1.4,2C54.3,59.5,54.2,59.5,54.1,59.5z"/>
</g>
<g>
	<path class="st2" d="M51.4,62.4c-0.5,0-1-0.1-1.5-0.3c-1.1-0.4-1.8-1.3-2.4-2l-0.2-0.2c-0.9-1.1-2.1-2.2-3.3-3.1
		c-0.2-0.2-0.3-0.5-0.1-0.7c0.2-0.2,0.5-0.3,0.7-0.1c1.3,1,2.5,2.1,3.5,3.3l0.2,0.2c0.6,0.7,1.1,1.4,2,1.7c1,0.4,2.3,0.2,3-0.4
		c0.5-0.4,0.7-1,0.6-1.5c-0.1-0.3,0.1-0.5,0.4-0.6c0.3-0.1,0.5,0.1,0.6,0.4c0.2,0.9-0.1,1.9-0.9,2.5C53.2,62.1,52.3,62.4,51.4,62.4z
		"/>
</g>
<g>
	<path class="st2" d="M54.1,59.5c-0.1,0-2.8,0-4.3-0.4c-1.6-0.4-3.1-1.1-4.1-2.1c-0.2-0.2-0.2-0.5,0-0.7c0.2-0.2,0.5-0.2,0.7,0
		c0.9,0.9,2.2,1.5,3.7,1.9c1.4,0.3,4,0.3,4,0.3c0.3,0,0.5,0.2,0.5,0.5S54.4,59.5,54.1,59.5z"/>
</g>
<g>
	<path class="st2" d="M51.7,53.3c-0.9,0-1.8-0.1-2.7-0.3c-0.7-0.2-1.5-0.4-2-1.1c-0.3-0.4-0.4-1-0.2-1.5c0.1-0.4,0.4-0.7,0.8-0.9
		c0.3-0.1,0.5,0,0.6,0.3c0.1,0.3,0,0.5-0.3,0.6c-0.1,0-0.2,0.2-0.2,0.3c-0.1,0.2,0,0.5,0.1,0.7c0.3,0.4,0.9,0.6,1.4,0.7
		c1,0.2,2.1,0.3,3.1,0.3c0.4,0,0.8-0.1,1-0.3c0.2-0.3,0.1-0.8-0.1-1.1c-0.2-0.3-0.5-0.5-0.8-0.8c-0.2-0.1-0.3-0.3-0.5-0.4
		c-1.1-1-1.7-2.4-1.8-3.8c0-0.3,0.2-0.5,0.5-0.5c0.3,0,0.5,0.2,0.5,0.5c0.1,1.2,0.6,2.3,1.4,3.1c0.1,0.1,0.3,0.3,0.4,0.4
		c0.3,0.3,0.7,0.6,1,1c0.5,0.7,0.7,1.7,0.1,2.3c-0.4,0.5-1.1,0.6-1.7,0.7C52.2,53.3,51.9,53.3,51.7,53.3z"/>
</g>
<g>
	<path class="st2" d="M46.4,48.5c-2.8,0-5.1-2.3-5.1-5.1c0-2.8,2.3-5.1,5.1-5.1s5.1,2.3,5.1,5.1C51.6,46.2,49.3,48.5,46.4,48.5z
		 M46.4,39.2c-2.3,0-4.1,1.9-4.1,4.1s1.9,4.1,4.1,4.1s4.1-1.9,4.1-4.1S48.7,39.2,46.4,39.2z"/>
</g>
<g>
	<path class="st2" d="M54.9,48.3c-1.9,0-3.6-1-4.5-2.7c-0.1-0.2,0-0.5,0.2-0.7c0.2-0.1,0.5,0,0.7,0.2c0.7,1.3,2.1,2.2,3.6,2.2
		c2.3,0,4.1-1.9,4.1-4.1S57.2,39,54.9,39c-1.6,0-3,0.9-3.7,2.3c-0.1,0.2-0.4,0.3-0.7,0.2c-0.2-0.1-0.3-0.4-0.2-0.7
		c0.9-1.7,2.6-2.8,4.6-2.8c2.8,0,5.1,2.3,5.1,5.1C60,46,57.7,48.3,54.9,48.3z"/>
</g>
<g>
	<path class="st2" d="M46.4,40.4c-1,0-1.9,0.6-2.4,1.4l2.4,1.5l-2.6,1c0.4,1.1,1.4,1.9,2.6,1.9c1.5,0,2.8-1.3,2.8-2.9
		C49.2,41.7,47.9,40.4,46.4,40.4L46.4,40.4z"/>
</g>
<g>
	<path class="st2" d="M54.6,40.7c-1,0-1.9,0.6-2.4,1.4l2.4,1.5l-2.6,1c0.4,1.1,1.4,1.9,2.6,1.9c1.5,0,2.8-1.3,2.8-2.9
		C57.3,42,56.1,40.7,54.6,40.7z"/>
</g>
<g>
	<path class="st2" d="M40.6,39c-0.1,0-0.2,0-0.2-0.1c-0.2-0.1-0.3-0.4-0.2-0.7c0.5-1,1.2-2.1,2.1-2.9c1.1-1,2.5-1.3,3.7-0.9
		c0.3,0.1,0.4,0.4,0.3,0.6c-0.1,0.3-0.4,0.4-0.6,0.3c-0.8-0.3-1.9,0-2.7,0.7c-0.8,0.7-1.4,1.7-1.9,2.7C40.9,38.9,40.8,39,40.6,39z"
		/>
</g>
<g>
	<path class="st2" d="M57.7,36.8c-0.1,0-0.2,0-0.3-0.1c-1.2-1.1-2.6-2.1-3.9-1.8c-0.3,0.1-0.5-0.1-0.6-0.4c-0.1-0.3,0.1-0.5,0.4-0.6
		c1.8-0.5,3.5,0.7,4.9,2c0.2,0.2,0.2,0.5,0,0.7C57.9,36.8,57.8,36.8,57.7,36.8z"/>
</g>
<g>
	<path class="st2" d="M22.1,43.8c-0.2,0-0.4-0.1-0.5-0.3c0-0.1-3.8-10.6,3.5-17.7c7.3-7.1,21.4-3.8,22-3.7c0.3,0.1,0.4,0.3,0.4,0.6
		c-0.1,0.3-0.3,0.4-0.6,0.4c-0.1,0-14.2-3.3-21.1,3.4C19,33.2,22.5,43,22.6,43.1c0.1,0.3,0,0.5-0.3,0.6
		C22.2,43.8,22.2,43.8,22.1,43.8z"/>
</g>
<g>
	<path class="st2" d="M31.9,22.9c-0.2,0-0.3-0.1-0.4-0.2c-1-1.4-1.5-3-1.5-4.7c0-4.6,3.9-8.3,8.6-8.3s8.6,3.7,8.6,8.3
		c0,1.6-0.5,3.1-1.3,4.4c-0.2,0.2-0.5,0.3-0.7,0.1c-0.2-0.2-0.3-0.5-0.1-0.7c0.8-1.2,1.2-2.5,1.2-3.8c0-4-3.4-7.3-7.6-7.3
		C34.4,10.8,31,14,31,18c0,1.5,0.5,2.9,1.3,4.1c0.2,0.2,0.1,0.5-0.1,0.7C32.2,22.9,32,22.9,31.9,22.9z"/>
</g>
<g>
	<path class="st2" d="M39.5,44.3c-0.9,0-1.7-0.3-2.2-0.9c-0.2-0.2-0.2-0.5,0.1-0.7c0.2-0.2,0.5-0.2,0.7,0.1c0.3,0.4,0.9,0.6,1.5,0.6
		c0.5,0,1.1-0.2,1.7-0.6c0.2-0.1,0.5-0.1,0.7,0.2c0.1,0.2,0.1,0.5-0.2,0.7c-0.8,0.5-1.5,0.7-2.2,0.7C39.6,44.3,39.5,44.3,39.5,44.3z
		"/>
</g>
<g>
	<path class="st2" d="M41.6,41.9c-0.8,0-1.5-0.3-2.1-0.8c-0.2-0.2-0.2-0.5,0-0.7c0.2-0.2,0.5-0.2,0.7,0c0.4,0.4,1,0.6,1.6,0.5
		c0.3,0,0.5,0.2,0.5,0.5c0,0.3-0.2,0.5-0.5,0.5C41.7,41.9,41.6,41.9,41.6,41.9z"/>
</g>
<g>
	<path class="st2" d="M59.8,41.4c-0.4,0-0.8-0.1-1.2-0.3c-0.2-0.1-0.3-0.4-0.2-0.7c0.1-0.2,0.4-0.3,0.7-0.2c0.6,0.4,1.5,0.2,1.9-0.4
		c0.2-0.2,0.5-0.3,0.7-0.1c0.2,0.2,0.3,0.5,0.1,0.7C61.4,41,60.6,41.4,59.8,41.4z"/>
</g>
<g>
	<path class="st2" d="M60.8,44.4c-0.6,0-1.1-0.2-1.6-0.5c-0.2-0.2-0.3-0.5-0.1-0.7c0.2-0.2,0.5-0.3,0.7-0.1c0.6,0.4,1.6,0.4,2.2-0.1
		c0.2-0.2,0.5-0.1,0.7,0.1c0.2,0.2,0.1,0.5-0.1,0.7C62.1,44.2,61.4,44.4,60.8,44.4z"/>
</g>
<g>
	<path class="st2" d="M26.7,50.4c-0.1,0-0.2,0-0.3-0.1c-0.7-0.4-1.7-0.5-2.4-0.1c-0.3,0.1-0.5,0-0.7-0.2c-0.1-0.2,0-0.5,0.2-0.7
		c1.1-0.5,2.4-0.4,3.4,0.2c0.2,0.1,0.3,0.5,0.2,0.7C27,50.3,26.8,50.4,26.7,50.4z"/>
</g>
<g>
	<path class="st2" d="M25.1,49.6c-0.2,0-0.4-0.2-0.5-0.4c-0.2-1.1-0.2-2.2-0.1-3.3c0.1-0.6,0.2-1.4,0.8-1.8c0.2-0.2,0.5-0.1,0.7,0.1
		c0.2,0.2,0.1,0.5-0.1,0.7c-0.3,0.2-0.4,0.7-0.4,1.1c-0.1,1-0.1,2,0.1,3C25.7,49.3,25.5,49.6,25.1,49.6
		C25.2,49.6,25.2,49.6,25.1,49.6z"/>
</g>
<g>
	<path class="st2" d="M37.4,22.1c-0.1,0-0.3-0.1-0.4-0.2c-1-1.3-1.5-2.9-1.4-4.5c0-0.3,0.3-0.5,0.5-0.5c0.3,0,0.5,0.3,0.5,0.5
		c-0.1,1.3,0.3,2.7,1.2,3.8c0.2,0.2,0.1,0.5-0.1,0.7C37.6,22.1,37.5,22.1,37.4,22.1z"/>
</g>
<g>
	<path class="st2" d="M41.8,22.2c0,0-0.1,0-0.1,0c-0.3-0.1-0.4-0.3-0.4-0.6c0.2-0.7,0.3-1.5,0.2-2.3c0-0.3,0.2-0.5,0.4-0.6
		c0.3,0,0.5,0.2,0.6,0.4c0.1,0.9,0,1.8-0.2,2.7C42.3,22.1,42.1,22.2,41.8,22.2z"/>
</g>
<g>
	<path class="st2" d="M37,27.9c-0.2,0-0.4-0.1-0.4-0.3c-0.1-0.2,0-0.5,0.2-0.7c1.8-0.9,3-2.9,3-4.9c0-0.3,0.2-0.5,0.5-0.5
		c0.3,0,0.5,0.2,0.5,0.5c0,2.4-1.4,4.7-3.5,5.8C37.2,27.9,37.1,27.9,37,27.9z"/>
</g>
<g>
	<path class="st2" d="M29.5,28.6c-0.2,0-0.4-0.1-0.4-0.3c-0.1-0.2,0-0.5,0.2-0.7c1.8-0.9,3-2.9,3-4.9c0-0.3,0.2-0.5,0.5-0.5
		c0.3,0,0.5,0.2,0.5,0.5c0,2.4-1.4,4.7-3.5,5.8C29.6,28.5,29.6,28.6,29.5,28.6z"/>
</g>
<g>
	<path class="st2" d="M22.8,55.3c-0.1,0-0.3-0.1-0.4-0.2C18.3,49.8,20,45,21.7,43c0.2-0.2,0.5-0.2,0.7-0.1c0.2,0.2,0.2,0.5,0.1,0.7
		c-1.5,1.8-3,6.1,0.7,10.9c0.2,0.2,0.1,0.5-0.1,0.7C23,55.3,22.9,55.3,22.8,55.3z"/>
</g>
</svg>
