<?xml version="1.0" encoding="utf-8"?>
<!-- Generator: Adobe Illustrator 26.5.0, SVG Export Plug-In . SVG Version: 6.00 Build 0)  -->
<svg version="1.1" id="Layer_1" xmlns="http://www.w3.org/2000/svg" xmlns:xlink="http://www.w3.org/1999/xlink" x="0px" y="0px"
	 viewBox="0 0 80 80" style="enable-background:new 0 0 80 80;" xml:space="preserve">
<style type="text/css">
	.st0{fill:#FFED8F;}
	.st1{fill:#002140;}
	.st2{fill:#FED607;}
	.st3{fill:#D18000;}
	.st4{fill:#0B1B34;}
</style>
<g>
	<rect class="st0" width="80" height="80"/>
</g>
<g>
	<path class="st1" d="M39.9,72.4c-18,0-32.7-14.7-32.7-32.7C7.2,21.7,21.9,7,39.9,7c18,0,32.7,14.7,32.7,32.7
		C72.6,57.8,57.9,72.4,39.9,72.4z M39.9,8C22.4,8,8.2,22.3,8.2,39.7s14.2,31.7,31.7,31.7s31.7-14.2,31.7-31.7S57.4,8,39.9,8z"/>
</g>
<g>
	<path class="st2" d="M61.6,50.4c0,0,2.6-1.1,3.9,2.2c0.7,2.4-1.3,5.6-4.7,5.5c0,0-2.4,3-4.6,1.7c0,0-1.9,2.3-4.8,2.1
		c-2.8-0.2-4.8-3.5-4.5-5.9c0.3-2.4,2-5.7,3.1-6.6c0,0-4.5-1-4.6-6.1s1.2-10.9,1.2-12.3c0-1.4-1.4-4.8-5.5-5.1
		c-2.7-0.1-5.2,2.5-9.2,2.2c-4-0.3-6.7-1.6-6.7-1.6s-1,9.5-0.4,11.8c0,0-5.7-3.2-5.4-8c0-4.1,3.4-4.8,3.4-4.8S21.9,13.1,32,13
		c5.6,0.2,6.3,3.1,6.3,3.1s3.4-3.2,9.5-2.5c6,0.7,6.9,8.1,6.9,8.1s4.5,0.1,5.9,4.7c1.4,3.9-2.5,7.1-2.5,7.1s4.1,3.6-0.1,9.4
		C58,42.9,63.3,44.2,61.6,50.4L61.6,50.4z"/>
</g>
<g>
	<path class="st3" d="M47.3,58.2c0,0-0.1,2-1.4,2.5c-1.3,0.5-2.1,0.7-2.1,0.7v1.9L41.5,65l-10.7-0.1l-1-0.7l0.1-2.7
		c0,0-5,0.8-5.2-4.1c-0.2-4.9-0.1-6.6-0.1-6.6S19,50.6,19,48.6c0-2,4-2.1,5.1-2.8l0.6-7.3c0,0-0.5-10.2,0.7-11.8
		c0,0,4.1,2.2,7.7,1.6c3.6-0.5,6.4-3.1,9.3-2.1c2.9,1,3.9,2.9,4.2,4.9c0.2,2-1.6,9.1-1.3,11.2c0.2,2.1,0.7,6.3,4.8,7.2
		C50,49.5,46,53.1,47.3,58.2L47.3,58.2z"/>
</g>
<g>
	<path class="st0" d="M32.6,37.7c-1.9,0-3.4-1.5-3.4-3.4c0-1.9,1.5-3.4,3.4-3.4c1.9,0,3.4,1.5,3.4,3.4
		C35.9,36.2,34.4,37.7,32.6,37.7z"/>
</g>
<g>
	<path class="st0" d="M40.5,40.6c0,0,0.8,1,1,2c0.1,1-1,3.6-2.5,3.7c-1.4,0.1-4.6,0-4.6,0s-2.7-0.8-2.5-2.8c0.2-2,0.3-2.8,1-3.2
		c0.7-0.4,2.3-1,3.2-0.9c0.9,0.1,3,0.1,3,0.1S40.2,40,40.5,40.6L40.5,40.6z"/>
</g>
<g>
	<path class="st0" d="M31,42.5l-1.5,1.1L23.2,46c0,0-1.8-1.2-1.9-2.5c-0.1-1.3,0.7-3.9,3.2-3.9c2.5-0.1,3.9-0.1,3.9-0.1
		S30.7,40.1,31,42.5L31,42.5z"/>
</g>
<g>
	<path class="st3" d="M35.2,32.4h-5.4c0,0,1.5-1.4,2.8-1.4C33.8,31,35,31.7,35.2,32.4L35.2,32.4z"/>
</g>
<g>
	<path class="st3" d="M40.5,40.6h-7.7c0,0,1.8-1.2,3.3-1.1c1.5,0.1,2.3,0.1,2.3,0.1S40.2,39.9,40.5,40.6z"/>
</g>
<g>
	<path class="st3" d="M30,40.7h-7.6c0,0,0.9-1.2,2.8-1.2h2.7C27.9,39.5,29.9,40,30,40.7L30,40.7z"/>
</g>
<g>
	<path class="st3" d="M36.6,53.8c0,0-1.8,3.6-5.7,3.4c-3.9-0.1-5.1-2.7-5.1-3.7c0,0,0.6-1.6,2.1-1.6c1.5,0,2.7,1.1,2.7,1.1
		s2.2-1.4,3.5-1.3S36.6,53.8,36.6,53.8L36.6,53.8z"/>
</g>
<g>
	<path class="st3" d="M43.8,61.4v4.2c0,0-5.2,1-7.9,0.9c-2.7-0.1-6-1-6-1l-0.1-4c0,0,1.9,0.3,2,2.3c0,0,1-1.9,2.4-1.8
		c1.4,0.1,2.2,1.8,2.2,2.1c0,0,0.9-2,2.5-1.9s2.2,1.6,2.2,1.6S41.8,61.3,43.8,61.4L43.8,61.4z"/>
</g>
<g>
	<path class="st4" d="M52,62.4c-0.3,0-0.5,0-0.8-0.1c-0.8-0.1-1.5-0.4-2.1-0.7c-1.1-0.7-1.7-1.9-2-2.7c-1.2-3.2,0-7.3,2.8-9.8
		c0.2-0.2,0.5-0.2,0.7,0c0.2,0.2,0.2,0.5,0,0.7c-2.5,2.2-3.6,5.8-2.5,8.7c0.3,0.7,0.8,1.7,1.7,2.2c0.5,0.3,1,0.5,1.7,0.6
		c1.3,0.2,2.6-0.2,3.5-0.9c1-0.8,1.6-2,1.5-3.2c-0.1-1.2-0.9-2.3-2-2.7c-0.5-0.2-1-0.1-1.4,0.1c-0.4,0.2-0.5,0.7-0.4,1
		c0.1,0.1,0.2,0.3,0.4,0.3c0.1,0,0.2,0,0.3-0.1c0.2-0.2,0.5-0.2,0.7,0c0.2,0.2,0.2,0.5,0,0.7c-0.3,0.3-0.8,0.4-1.2,0.3
		c-0.5-0.1-0.9-0.5-1.1-0.9c-0.3-0.8,0.1-1.7,0.8-2.2c0.6-0.4,1.4-0.4,2.2-0.2c1.5,0.5,2.6,1.9,2.7,3.5c0.1,1.5-0.6,3-1.9,4
		C54.5,62,53.3,62.4,52,62.4z"/>
</g>
<g>
	<path class="st4" d="M56.8,60.6c-0.2,0-0.6,0-1-0.3c-0.2-0.2-0.3-0.5-0.1-0.7c0.2-0.2,0.5-0.3,0.7-0.1c0.2,0.1,0.5,0.1,0.5,0.1
		c1-0.1,1.9-0.4,2.6-0.9c1-0.8,1.6-2,1.5-3.2c-0.1-1.2-0.9-2.3-2-2.7c-0.5-0.2-1-0.1-1.4,0.1c-0.4,0.2-0.5,0.7-0.4,1
		c0.1,0.1,0.2,0.3,0.4,0.3c0.1,0,0.2,0,0.3-0.1c0.2-0.2,0.5-0.2,0.7,0c0.2,0.2,0.2,0.5,0,0.7c-0.3,0.3-0.8,0.4-1.2,0.3
		c-0.5-0.1-0.9-0.5-1.1-0.9c-0.3-0.8,0.1-1.7,0.8-2.2c0.6-0.4,1.4-0.4,2.2-0.2c1.5,0.5,2.6,1.9,2.7,3.5c0.1,1.5-0.6,3-1.9,4
		c-0.9,0.7-2,1.1-3.1,1.1C57,60.5,56.9,60.6,56.8,60.6z"/>
</g>
<g>
	<path class="st4" d="M60.9,58.6c-0.1,0-0.2,0-0.3,0c-0.3,0-0.5-0.3-0.5-0.5c0-0.3,0.3-0.5,0.5-0.5c0.5,0.1,1.1-0.2,1.2-0.2
		c0.7-0.2,1.2-0.4,1.7-0.8c1-0.8,1.6-2,1.5-3.2c-0.1-1.2-0.9-2.3-2-2.7c-0.5-0.2-1-0.1-1.4,0.1c-0.4,0.2-0.5,0.7-0.4,1
		c0.1,0.1,0.2,0.3,0.4,0.3c0.1,0,0.2,0,0.3-0.1c0.2-0.2,0.5-0.2,0.7,0c0.2,0.2,0.2,0.5,0,0.7c-0.3,0.3-0.8,0.4-1.2,0.3
		c-0.5-0.1-0.9-0.5-1.1-0.9c-0.3-0.8,0.1-1.7,0.8-2.2c0.6-0.4,1.4-0.4,2.2-0.2c1.5,0.5,2.6,1.9,2.7,3.5c0.1,1.5-0.6,3-1.9,4
		c-0.6,0.4-1.3,0.8-2,1l0,0C62.2,58.4,61.6,58.6,60.9,58.6z"/>
</g>
<g>
	<path class="st4" d="M50.1,49.9C50.1,49.9,50.1,49.9,50.1,49.9c-1.4-0.1-2.7-0.9-3.6-2.1c-0.7-1-1.2-2.3-1.5-3.8
		c-0.4-2.5,0.1-5,0.5-7.5c0.3-1.5,0.5-3.1,0.6-4.7c0-0.8,0-1.8-0.4-2.6c-0.3-0.5-0.7-1.1-1.4-1.5c-1.4-1-2.9-1.4-4.3-1.2
		c-0.8,0.1-1.6,0.5-2.4,0.9c-0.3,0.2-0.7,0.3-1,0.5c-3.9,1.6-9.5,0.6-12.3-1.4C24,26.5,24,26.2,24.1,26c0.2-0.2,0.5-0.3,0.7-0.1
		c2.5,1.8,7.8,2.7,11.3,1.3c0.3-0.1,0.7-0.3,1-0.5c0.8-0.4,1.7-0.8,2.7-1c1.6-0.3,3.5,0.2,5,1.3c0.8,0.6,1.4,1.2,1.7,1.9
		c0.5,1,0.5,2.1,0.5,3.1c-0.1,1.6-0.3,3.2-0.6,4.8c-0.4,2.5-0.8,4.8-0.5,7.2c0.2,1.4,0.6,2.5,1.3,3.3c0.7,1,1.8,1.6,2.9,1.7
		c0.3,0,0.5,0.3,0.5,0.5C50.6,49.7,50.4,49.9,50.1,49.9z"/>
</g>
<g>
	<path class="st4" d="M61.4,51c-0.1,0-0.2,0-0.3-0.1c-0.2-0.1-0.3-0.5-0.2-0.7c0-0.1,1-1.6,0-4.2c-1-2.5-2.9-2.6-3-2.7
		c-0.2,0-0.4-0.1-0.4-0.3c-0.1-0.2,0-0.4,0.1-0.5c0.2-0.2,3.9-4.6,0.1-8.8c-0.1-0.1-0.1-0.2-0.1-0.4c0-0.1,0.1-0.3,0.2-0.4
		c0,0,2.4-1.9,2.4-5.2c0-3.4-2.1-5.5-5.7-5.7c-0.2,0-0.4-0.2-0.5-0.5c0-0.3-0.8-7.8-7.8-7.8c0,0-0.1,0-0.1,0c-3.3,0-5.8,0.9-7.2,2.4
		c-1.3,1.4-1.4,3-1.3,3.4c0,0.3-0.2,0.5-0.5,0.5c-0.3,0-0.5-0.2-0.5-0.5c0-0.5,0-2.4,1.6-4.1c1.7-1.8,4.3-2.7,8-2.7c0,0,0.1,0,0.1,0
		c6.9,0,8.5,6.6,8.8,8.3c3.8,0.4,6.2,2.9,6.2,6.7c0,2.9-1.7,4.9-2.4,5.6c3,3.7,1.1,7.6,0.1,9c0.9,0.3,2.2,1.1,3,3.1
		c1.2,3.1,0,5-0.1,5.1C61.7,50.9,61.6,51,61.4,51z"/>
</g>
<g>
	<path class="st4" d="M24.5,39c-0.1,0-0.2,0-0.2-0.1c-3.5-1.9-5.6-5.1-5.6-8.6c0-3.1,2.5-4.5,3.4-5c-0.3-3.4,0.8-7.1,3.1-9.7
		c1.7-2,4-3.1,6.3-3.1c3.6,0,6.1,1.1,7.4,3.3c0.1,0.2,0.1,0.5-0.2,0.7c-0.2,0.1-0.5,0.1-0.7-0.2c-1.1-1.8-3.3-2.8-6.5-2.8
		c-2.6,0-4.4,1.5-5.5,2.7c-2.1,2.4-3.2,6.1-2.8,9.3c0,0.2-0.1,0.5-0.3,0.5c-0.1,0-3.2,1.2-3.2,4.2c0,3.1,1.9,6,5.1,7.8
		c0.2,0.1,0.3,0.4,0.2,0.7C24.9,38.9,24.7,39,24.5,39z"/>
</g>
<g>
	<path class="st4" d="M24.7,40c-0.3,0-0.5-0.2-0.5-0.5c0-0.3,0-0.9-0.1-1.6c-0.1-3.3-0.4-9.6,0.5-11.5c0.1-0.2,0.4-0.4,0.7-0.2
		c0.2,0.1,0.4,0.4,0.2,0.7c-0.8,1.7-0.6,8.2-0.4,11c0,0.8,0.1,1.3,0.1,1.6C25.2,39.8,25,40,24.7,40z"/>
</g>
<g>
	<path class="st4" d="M25.8,51.2c-2.6,0-5.2-0.4-6.4-1.3c-0.8-0.6-0.9-1.2-0.9-1.6c0.1-1.3,2.2-2,5.2-3.1c2.8-1,6.3-2.2,8-4
		c0.2-0.2,0.5-0.2,0.7,0c0.2,0.2,0.2,0.5,0,0.7c-1.9,2-5.5,3.3-8.4,4.3c-2,0.7-4.5,1.6-4.5,2.2c0,0.1,0,0.3,0.4,0.7
		c2,1.4,9.1,1.6,12.1,0c0.7-0.4,1.1-0.8,1.1-1.3c0-0.4-0.1-0.6-0.3-0.8c-0.4-0.4-1.2-0.4-1.5-0.4c-0.3,0-0.5-0.2-0.5-0.5
		c0-0.3,0.2-0.5,0.4-0.5c0.1,0,1.4-0.1,2.3,0.6c0.4,0.4,0.7,0.9,0.7,1.5c0,0.6-0.2,1.5-1.6,2.2C31,50.8,28.4,51.2,25.8,51.2z"/>
</g>
<g>
	<path class="st4" d="M38.1,46.8h-2.9c-2.1,0-3.9-1.7-3.9-3.9c0-2.1,1.7-3.9,3.9-3.9h2.9c2.1,0,3.9,1.7,3.9,3.9
		C42,45,40.2,46.8,38.1,46.8z M35.2,40c-1.6,0-2.9,1.3-2.9,2.9c0,1.6,1.3,2.9,2.9,2.9h2.9c1.6,0,2.9-1.3,2.9-2.9
		c0-1.6-1.3-2.9-2.9-2.9H35.2z"/>
</g>
<g>
	<path class="st4" d="M36.4,43.3l-1.6-1.6c0.5-0.7,1.2-1.1,2.1-1.1c1.3,0,2.4,1.1,2.4,2.4c0.1,1.4-1.1,2.6-2.5,2.6
		c-1.1,0-2-0.7-2.3-1.6L36.4,43.3L36.4,43.3z"/>
</g>
<g>
	<path class="st4" d="M32.1,34.8l-1.5-1.5c0.4-0.6,1.2-1,2-1c1.2,0,2.2,1,2.3,2.2c0.1,1.3-1,2.4-2.3,2.4c-1,0-1.8-0.6-2.2-1.5
		L32.1,34.8L32.1,34.8z"/>
</g>
<g>
	<path class="st4" d="M23.2,46.4c-0.1,0-0.2,0-0.2-0.1c-1.3-0.7-2.1-2-2.1-3.4c0-2.1,1.7-3.9,3.9-3.9h2.9c2,0,3.6,1.5,3.9,3.4
		c0,0.3-0.2,0.5-0.4,0.6c-0.3,0-0.5-0.2-0.6-0.4c-0.2-1.4-1.4-2.5-2.9-2.5h-2.9c-1.6,0-2.9,1.3-2.9,2.9c0,1.1,0.6,2.1,1.5,2.6
		c0.2,0.1,0.3,0.4,0.2,0.7C23.5,46.3,23.4,46.4,23.2,46.4z"/>
</g>
<g>
	<path class="st4" d="M28.5,40.9c0.5,0.4,0.8,1,0.8,1.7c0,0.4,0,0.7-0.2,1L25.7,45c-0.6-0.3-1-0.8-1.2-1.3l1.9-0.8l-1.6-1.6
		c0.1-0.2,0.3-0.3,0.4-0.5"/>
</g>
<g>
	<path class="st4" d="M32.6,38.3c-2.2,0-3.9-1.8-3.9-3.9c0-2.2,1.8-3.9,3.9-3.9s3.9,1.8,3.9,3.9C36.5,36.5,34.7,38.3,32.6,38.3z
		 M32.6,31.5c-1.6,0-2.9,1.3-2.9,2.9s1.3,2.9,2.9,2.9s2.9-1.3,2.9-2.9S34.2,31.5,32.6,31.5z"/>
</g>
<g>
	<path class="st4" d="M35.5,32.9c-0.3,0-0.5-0.2-0.5-0.5s0.2-0.5,0.5-0.5c0.5,0,1.2-0.8,1.4-1.2c0.1-0.2,0.5-0.3,0.7-0.2
		c0.2,0.1,0.3,0.5,0.2,0.7C37.6,31.5,36.7,32.9,35.5,32.9z"/>
</g>
<g>
	<path class="st4" d="M34.4,31.6c-0.1,0-0.2,0-0.3-0.1c-0.2-0.2-0.3-0.5-0.1-0.7l0.8-1.1c0.2-0.2,0.5-0.3,0.7-0.1
		c0.2,0.2,0.3,0.5,0.1,0.7l-0.8,1.1C34.7,31.6,34.6,31.6,34.4,31.6z"/>
</g>
<g>
	<path class="st4" d="M52.4,52.9c-0.1,0-0.2,0-0.3-0.1c-0.2-0.1-0.3-0.4-0.2-0.7c1.9-3.2-0.4-4.8-0.5-4.8c-0.2-0.2-0.3-0.5-0.1-0.7
		c0.2-0.2,0.5-0.3,0.7-0.1c0,0,3.2,2.2,0.8,6.2C52.7,52.8,52.5,52.9,52.4,52.9z"/>
</g>
<g>
	<path class="st4" d="M55.4,51.7c-0.1,0-0.2,0-0.3-0.1c-0.2-0.1-0.3-0.4-0.2-0.7c1.9-3.2-0.4-4.8-0.5-4.9c-0.2-0.2-0.3-0.5-0.1-0.7
		c0.2-0.2,0.5-0.3,0.7-0.1c0,0,3.2,2.2,0.8,6.2C55.8,51.6,55.6,51.7,55.4,51.7z"/>
</g>
<g>
	<path class="st4" d="M50.3,45c-0.2,0-0.3-0.1-0.4-0.2c-0.9-1.3-0.6-3.3-0.2-5.2c0.5-2.4,0.7-3.9-0.5-4.2c-0.3-0.1-0.4-0.3-0.3-0.6
		c0.1-0.3,0.3-0.4,0.6-0.3c2.1,0.6,1.6,3.1,1.2,5.3c-0.3,1.7-0.7,3.5,0,4.4c0.2,0.2,0.1,0.5-0.1,0.7C50.5,45,50.4,45,50.3,45z"/>
</g>
<g>
	<path class="st4" d="M53.5,44.9c-0.2,0-0.3-0.1-0.4-0.2c-0.9-1.3-0.6-3.3-0.2-5.2c0.5-2.4,0.7-3.9-0.5-4.2
		c-0.3-0.1-0.4-0.3-0.3-0.6c0.1-0.3,0.3-0.4,0.6-0.3c2.1,0.6,1.6,3.1,1.2,5.3c-0.3,1.7-0.7,3.5,0,4.4c0.2,0.2,0.1,0.5-0.1,0.7
		C53.7,44.9,53.6,44.9,53.5,44.9z"/>
</g>
<g>
	<path class="st4" d="M49.5,29.4c-0.1,0-0.3-0.1-0.4-0.2c-0.2-0.2-0.1-0.5,0.1-0.7c3-2.4,5.4-1,5.5-1c0.2,0.1,0.3,0.4,0.2,0.7
		c-0.1,0.2-0.4,0.3-0.7,0.2c-0.1-0.1-2-1.1-4.4,0.9C49.7,29.3,49.6,29.4,49.5,29.4z"/>
</g>
<g>
	<path class="st4" d="M48.8,26.7c-0.1,0-0.3-0.1-0.4-0.2c-0.2-0.2-0.1-0.5,0.1-0.7c3-2.4,5.4-1,5.5-1c0.2,0.1,0.3,0.4,0.2,0.7
		c-0.1,0.2-0.4,0.3-0.7,0.2c-0.1-0.1-2-1.1-4.4,0.9C49,26.7,48.9,26.7,48.8,26.7z"/>
</g>
<g>
	<path class="st4" d="M41.8,24c-0.1,0-0.2,0-0.3-0.1c-0.2-0.1-0.3-0.5-0.2-0.7c0.1-0.1,1.6-2.4,3.5-2.8c0.3-0.1,0.5,0.1,0.6,0.4
		c0.1,0.3-0.1,0.5-0.4,0.6c-1.6,0.3-2.9,2.4-2.9,2.4C42.1,24,42,24,41.8,24z"/>
</g>
<g>
	<path class="st4" d="M31,24.4c-0.2,0-0.4-0.2-0.5-0.4c-0.5-2,0.7-3.3,1.3-3.7c0.2-0.1,0.5-0.1,0.7,0.2c0.1,0.2,0.1,0.5-0.2,0.7l0,0
		c-0.1,0-1.3,0.8-0.9,2.7c0.1,0.3-0.1,0.5-0.4,0.6C31.1,24.4,31.1,24.4,31,24.4z"/>
</g>
<g>
	<path class="st4" d="M36.5,67.1c-2.1,0-4.5-0.3-6.9-1.1c-0.2-0.1-0.3-0.3-0.3-0.5v-4c0-0.3,0.2-0.5,0.5-0.5s0.5,0.2,0.5,0.5v3.7
		c5.8,1.8,11.5,0.4,12.9,0v-3.8c0-0.3,0.2-0.5,0.5-0.5c1.8-0.1,3.2-1.3,3.1-2.7c0-0.3,0.2-0.5,0.5-0.5c0.3,0,0.5,0.2,0.5,0.5
		c0,1.8-1.4,3.3-3.6,3.6v3.7c0,0.2-0.1,0.4-0.3,0.5C43.7,66.1,40.6,67.1,36.5,67.1z"/>
</g>
<g>
	<path class="st4" d="M28.9,62c-2.2,0-4.8-0.9-4.8-5.4v-5.7c0-0.3,0.2-0.5,0.5-0.5s0.5,0.2,0.5,0.5v5.7c0,3,1.2,4.4,3.8,4.4
		c3.2,0,5.6-2.1,5.6-2.1c0.2-0.2,0.5-0.2,0.7,0c0.2,0.2,0.2,0.5,0,0.7C35.1,59.7,32.5,62,28.9,62z"/>
</g>
<g>
	<path class="st4" d="M30.6,57.8c-4.5,0-5.4-3.3-5.4-4.2c0-0.5,0.4-1,0.8-1.4c0.6-0.6,1.3-0.9,2-0.8c1,0.1,2,0.8,2.6,1.2
		c0.6-0.4,1.8-1.2,3.2-1.2c1.8,0,3.2,1.3,3.3,2.1c0.1,0.5-0.4,1.3-0.8,1.8C35.6,56,33.9,57.8,30.6,57.8z M27.9,52.4
		c-0.9,0-1.6,0.9-1.6,1.2c0,0,0.3,3.2,4.4,3.2c3.9,0,5.4-2.7,5.5-3.1c-0.1-0.3-1-1.2-2.4-1.3c0,0,0,0,0,0c-1.3,0-2.8,1.2-2.8,1.3
		c-0.2,0.2-0.5,0.2-0.7,0C29.9,53.3,28.8,52.4,27.9,52.4C27.9,52.4,27.9,52.4,27.9,52.4z"/>
</g>
<g>
	<path class="st4" d="M31,55.3c-0.2,0-0.4,0-0.6,0c-3.3-0.2-4.9-1.2-4.9-1.3c-0.2-0.2-0.3-0.5-0.1-0.7c0.2-0.2,0.5-0.3,0.7-0.1
		c0,0,1.5,0.9,4.4,1.1c3,0.2,5.9-1.1,5.9-1.1c0.2-0.1,0.5,0,0.7,0.2c0.1,0.3,0,0.5-0.2,0.7C36.7,54.1,34,55.3,31,55.3z"/>
</g>
<g>
	<path class="st4" d="M29.5,33.2c-0.1,0-0.1,0-0.2,0c-0.1,0-1.3-0.6-1.7-1.8c-0.1-0.3,0.1-0.5,0.4-0.6c0.3-0.1,0.5,0.1,0.6,0.4
		c0.2,0.8,1.1,1.2,1.1,1.2c0.3,0.1,0.4,0.4,0.3,0.7C29.9,33.1,29.7,33.2,29.5,33.2z"/>
</g>
<g>
	<path class="st4" d="M32.6,31.5C32.5,31.5,32.5,31.5,32.6,31.5c-0.3,0-0.5-0.3-0.5-0.5l0.1-1.4c0-0.3,0.2-0.5,0.5-0.5
		c0.3,0,0.5,0.3,0.5,0.5L33.1,31C33,31.3,32.8,31.5,32.6,31.5z"/>
</g>
<g>
	<path class="st4" d="M30.7,31.9c-0.1,0-0.2,0-0.3-0.1c-0.2-0.2-0.9-0.9-0.9-1.7c0-0.3,0.3-0.5,0.5-0.5c0.3,0,0.5,0.3,0.5,0.5
		c0,0.2,0.3,0.6,0.6,0.9c0.2,0.2,0.2,0.5,0,0.7C31,31.9,30.9,31.9,30.7,31.9z"/>
</g>
<g>
	<path class="st4" d="M36.5,64.9C36.5,64.9,36.5,64.9,36.5,64.9c-0.3,0-0.5-0.2-0.5-0.4c0-0.1-0.3-2-1.9-2c-1.5,0-1.8,1.6-1.8,1.8
		c0,0.3-0.3,0.4-0.5,0.4c-0.3,0-0.5-0.2-0.5-0.5c0-0.1,0-2.1-1.6-2.2c-0.3,0-0.5-0.3-0.5-0.5s0.3-0.5,0.5-0.5
		c1.1,0.1,1.8,0.8,2.1,1.5c0.4-0.6,1.1-1.1,2.2-1.1c1.2,0,1.9,0.7,2.4,1.5c0.5-0.7,1.3-1.4,2.5-1.4c0.8,0,1.5,0.2,1.9,0.7
		c0.1,0.1,0.1,0.1,0.1,0.2c0.7-1.2,1.9-1.6,2.6-1.6c0,0,0,0,0,0c0.3,0,0.5,0.2,0.5,0.5c0,0.3-0.2,0.5-0.5,0.5c-0.2,0-2,0.1-2.1,2.3
		c0,0,0,0,0,0c0,0.3-0.2,0.5-0.5,0.5c-0.3,0-0.5-0.2-0.5-0.5c0,0,0,0,0,0c0,0,0-0.7-0.4-1.2c-0.3-0.3-0.7-0.4-1.2-0.4
		c-1.7,0-2,1.8-2,1.9C37,64.8,36.7,64.9,36.5,64.9z"/>
</g>
<g>
	<path class="st4" d="M40.8,41.3h-8.1c-0.3,0-0.5-0.2-0.5-0.5s0.2-0.5,0.5-0.5h8.1c0.3,0,0.5,0.2,0.5,0.5S41,41.3,40.8,41.3z"/>
</g>
<g>
	<path class="st4" d="M30.3,41.3h-8.1c-0.3,0-0.5-0.2-0.5-0.5s0.2-0.5,0.5-0.5h8.1c0.3,0,0.5,0.2,0.5,0.5S30.5,41.3,30.3,41.3z"/>
</g>
<g>
	<path class="st4" d="M35.3,33H30c-0.3,0-0.5-0.2-0.5-0.5S29.7,32,30,32h5.3c0.3,0,0.5,0.2,0.5,0.5S35.6,33,35.3,33z"/>
</g>
</svg>
