<?xml version="1.0" encoding="utf-8"?>
<!-- Generator: Adobe Illustrator 26.5.0, SVG Export Plug-In . SVG Version: 6.00 Build 0)  -->
<svg version="1.1" id="Layer_1" xmlns="http://www.w3.org/2000/svg" xmlns:xlink="http://www.w3.org/1999/xlink" x="0px" y="0px"
	 viewBox="0 0 80 80" style="enable-background:new 0 0 80 80;" xml:space="preserve">
<style type="text/css">
	.st0{fill:#FF7101;}
	.st1{fill:#002140;}
	.st2{fill:#FFC68C;}
	.st3{fill:#BF3013;}
</style>
<g>
	<rect class="st0" width="80" height="80"/>
</g>
<g>
	<path class="st1" d="M40.2,72.4c-18,0-32.7-14.7-32.7-32.7C7.5,21.7,22.2,7,40.2,7c18,0,32.7,14.7,32.7,32.7
		C72.9,57.8,58.2,72.4,40.2,72.4z M40.2,8C22.7,8,8.5,22.3,8.5,39.7c0,17.5,14.2,31.7,31.7,31.7s31.7-14.2,31.7-31.7
		C71.9,22.3,57.7,8,40.2,8z"/>
</g>
<g>
	<path class="st0" d="M39.5,59.1c0,0,7.9-2.8,8.6-8c0.7-5.2,0.1-8.9,0.1-8.9s3.6,0.9,4.2-1.7c0.6-2.7-0.9-3.7-2.1-3.7
		c-1.2,0-2,0.1-2,0.1l0.9-5.6H28.3v16.7c0,0,1.2,11.1,6.8,11.5"/>
</g>
<g>
	<path class="st2" d="M32.2,40.8c1.7,0,3.1-1.3,3.1-2.9S33.9,35,32.2,35c-1.7,0-3.1,1.3-3.1,2.9S30.5,40.8,32.2,40.8z"/>
</g>
<g>
	<path class="st2" d="M39.1,41.5c1.9,0,3.4-1.4,3.4-3.1s-1.5-3.1-3.4-3.1s-3.4,1.4-3.4,3.1S37.2,41.5,39.1,41.5z"/>
</g>
<g>
	<path class="st3" d="M30.3,35.5l5.2,1.5c0,0-0.3-2.2-2.1-2.5C31.5,34.2,30.3,35.5,30.3,35.5z"/>
</g>
<g>
	<path class="st3" d="M36.4,36.2c0,0,3.4-0.5,6.4,1.7c0,0,0.2-3.1-3.2-3.4C37.5,34.2,36.6,35.8,36.4,36.2z"/>
</g>
<g>
	<path class="st3" d="M32.2,50.6c0,0,2.8,1,3.8,0.9c1-0.1,3.7-0.9,3.7-0.9s-0.4-2.3-1.5-2.3c-1,0-2.4,0.9-2.4,0.9s-1.1-1.1-2-0.9
		C33,48.5,32.3,49.7,32.2,50.6L32.2,50.6z"/>
</g>
<g>
	<path class="st3" d="M32.6,53.3c0,0,1.3,3.8,4,3.8c2.7,0,3.3-4.5,3.3-4.5s-2.5,2.6-3.9,2C34.6,54,32.6,53.3,32.6,53.3z"/>
</g>
<g>
	<path class="st2" d="M40.1,50.8c0,0-3.4,1.9-7.5-0.1l-0.3,2.1c0,0,1.6,1.9,3.6,1.7c2-0.2,4.2-2.1,4.2-2.1L40.1,50.8L40.1,50.8z"/>
</g>
<g>
	<path class="st3" d="M43.8,26.9l0.7,0.3H57c0,0-0.3-1.8-0.2-3.1c0.1-1.3,1.1-6.4-5.7-8.7s-11.6,3.4-11.6,3.4s-1.8-2.7-6.8-2.5
		c-4.9,0.2-5.5,3.9-5.7,4.5c-0.2,0.6-0.8,3.4-0.8,3.4s7.2-3.2,10.3-3.1C39.6,21.3,43.8,26.9,43.8,26.9L43.8,26.9z"/>
</g>
<g>
	<path class="st3" d="M28.3,31.3h-3c0,0,0.7,2.1-0.1,3.2c-0.8,1.1-5.5,7.9-5.6,12c-0.1,4.1-1.1,14,13.5,14.9
		c7.2-1.4-0.6-3.2-0.6-3.2s-4-2.1-4.2-10.3C28.1,39.8,28.3,31.3,28.3,31.3L28.3,31.3z"/>
</g>
<g>
	<path class="st3" d="M56.9,31.3h-7.8l-0.9,5.6l2-0.1c0,0,2.7,1.4,2.1,3.7c-0.6,2.3-3.1,2.2-3.1,2.2l-1.1-0.5c0,0,0.9,5.7,0,7.9
		c-0.9,2.2-2.1,5.6-3.7,6.5l-6,2.9c0,0,3.9,2,3.5,2c-0.3,0,4.5,0.5,4.5,0.5s7.8,1.1,12.1-3.6c4.4-4.7,4.9-11.7,2.2-17.3
		C58,35.5,55.2,34.9,56.9,31.3z"/>
</g>
<g>
	<path class="st0" d="M21.3,29.5c0,0,0.2,1.8,2.9,1.9c2.7,0.1,34-0.3,34-0.3s1-0.6,0.9-1.7C59,28.3,58,27.3,58,27.3l-13.6,0
		c0,0-5.9-5.8-7.9-6.1c-2-0.3-6.5,1.1-7.2,1.5C28.6,23.2,21.6,26.5,21.3,29.5L21.3,29.5z"/>
</g>
<g>
	<path class="st1" d="M21.3,29.5c0,0,0.5,1.6,2.5,1.7c2,0.1,34.4-0.1,34.4-0.1l0.4-0.9l-36.1-0.2L21.3,29.5L21.3,29.5z"/>
</g>
<g>
	<path class="st3" d="M27.5,27.5c0.1-0.2,0.1-0.4-0.1-0.5c-0.1,0-0.2,0-0.2,0c-0.7,0.1-1.3,0.4-1.9,0.7c-0.3,0.2-0.5,0.4-0.5,0.7
		c0,0.2,0.2,0.3,0.4,0.4c0.2,0,0.4,0,0.6-0.1C26.2,28.5,27.2,28.1,27.5,27.5L27.5,27.5z"/>
</g>
<g>
	<path class="st3" d="M29,26.9c0.2,0,0.5-0.1,0.7-0.1c1.7-0.7,3.3-1.5,4.9-2.3c0.2-0.1,0.4-0.2,0.5-0.4c0.1-0.2,0.2-0.4,0.1-0.6
		c-0.1-0.1-0.2-0.2-0.4-0.2c-0.5-0.1-1,0.1-1.4,0.3c-0.8,0.4-2.5,1.2-2.5,1.2s-2.1,0.8-2.4,1.6c-0.1,0.1-0.1,0.3,0,0.4
		c0.1,0.1,0.2,0.1,0.3,0.2C29,26.9,29,26.9,29,26.9L29,26.9z"/>
</g>
<g>
	<path class="st1" d="M39.8,30.3c-0.2,0-0.4-0.1-0.4-0.3c-1-2-3.6-1.5-3.7-1.5c-0.3,0.1-0.5-0.1-0.6-0.4c-0.1-0.3,0.1-0.5,0.4-0.6
		c0.1,0,3.4-0.6,4.8,2c0.1,0.2,0,0.5-0.2,0.7C39.9,30.3,39.8,30.3,39.8,30.3z"/>
</g>
<g>
	<path class="st1" d="M29.1,30.3c-0.1,0-0.2,0-0.2-0.1c-0.2-0.1-0.3-0.4-0.2-0.7c1.4-2.6,4.6-2,4.8-2c0.3,0.1,0.4,0.3,0.4,0.6
		c-0.1,0.3-0.3,0.4-0.6,0.4c-0.1,0-2.7-0.5-3.7,1.5C29.5,30.2,29.3,30.3,29.1,30.3z"/>
</g>
<g>
	<path class="st0" d="M46.4,27.3l7-0.1c0,0-1-3.4-0.7-4.6l2.6,0.1c0,0,0.6-1.8-0.5-2.1c-1.1-0.3-7.3-0.5-7.3-0.5s-1.4-0.3-2.1,1.8
		C44.7,23.9,46.4,27.3,46.4,27.3L46.4,27.3z"/>
</g>
<g>
	<path class="st1" d="M57.7,31.7H24.1c-2.2,0-3.2-1.7-3.2-1.8c-0.1-0.2-0.1-0.4,0.1-0.6c0.1-0.2,0.4-0.2,0.6-0.1
		c1,0.4,2.7,0.4,2.7,0.4h33.4c0.3-0.1,0.9-0.2,1.2,0c0.2,0.1,0.3,0.2,0.3,0.4c0,0.2,0.2,0.7-1.2,1.6C57.9,31.7,57.8,31.7,57.7,31.7z
		 M23.4,30.6c0.2,0,0.4,0.1,0.7,0.1h33.5c0,0,0,0,0.1,0H24.3C24.2,30.7,23.9,30.7,23.4,30.6z"/>
</g>
<g>
	<path class="st1" d="M49.2,43c-0.9,0-1.5-0.5-2-0.9c-0.2-0.2-0.5-0.4-0.8-0.6c-0.2-0.1-0.3-0.4-0.2-0.7s0.5-0.3,0.7-0.2
		c0.4,0.2,0.6,0.4,0.9,0.7c0.6,0.5,1,0.8,2,0.6c0.9-0.3,1.8-1.1,1.9-1.9c0.2-1.2-0.4-2.1-1.1-2.5c-0.9-0.6-2.1-0.5-2.9,0.3
		c-0.2,0.2-0.5,0.2-0.7-0.1c-0.2-0.2-0.2-0.5,0.1-0.7c1.2-1,2.8-1.1,4.1-0.4c1.3,0.7,1.9,2.1,1.6,3.5c-0.2,1.2-1.3,2.4-2.7,2.7
		C49.7,42.9,49.4,43,49.2,43z"/>
</g>
<g>
	<path class="st1" d="M56.7,27.5c-0.2,0-0.4-0.2-0.5-0.4C56,26,56.1,25,56.3,23.9c0.2-1.2,0.3-2.4-0.1-3.5c-1.5-3.6-6.2-5.3-9.9-4.8
		c-2.6,0.3-5.1,1.7-6.8,3.7c-0.1,0.1-0.3,0.2-0.4,0.2c-0.2,0-0.3-0.1-0.4-0.3c-1.2-2.2-4-2.4-5.5-2.4c-2.6,0.1-5.6,1.6-6,4.7
		l-0.4,2.8c0,0.3-0.3,0.5-0.6,0.4c-0.3,0-0.5-0.3-0.4-0.6l0.4-2.8c0.5-3.7,3.9-5.4,6.9-5.5c1.6-0.1,4.5,0.2,6,2.3
		c1.8-2,4.3-3.2,7-3.6c4-0.5,9.2,1.4,10.9,5.4c0.6,1.3,0.4,2.7,0.2,4c-0.1,1-0.3,2-0.1,2.8c0.1,0.3-0.1,0.5-0.4,0.6
		C56.8,27.5,56.8,27.5,56.7,27.5z"/>
</g>
<g>
	<path class="st1" d="M48,37.3C47.9,37.3,47.9,37.3,48,37.3c-0.3,0-0.5-0.3-0.5-0.6c0.2-1.8,0.6-3.7,1.1-5.5
		c0.1-0.3,0.4-0.4,0.6-0.3c0.3,0.1,0.4,0.4,0.3,0.6c-0.5,1.7-0.9,3.5-1.1,5.3C48.4,37.1,48.2,37.3,48,37.3z"/>
</g>
<g>
	<path class="st1" d="M36.3,60c-2.1,0-3.9-0.7-5.3-2.2c-3.7-3.9-3.3-11.5-3.3-11.8l0-14.6c0-0.3,0.2-0.5,0.5-0.5h0
		c0.3,0,0.5,0.2,0.5,0.5l0,14.7c0,0.1-0.3,7.5,3,11.1c1.2,1.3,2.7,1.9,4.6,1.9c5.5,0,10.4-4,11.3-9.3c0.3-1.7,0.1-3.5-0.1-5.3
		c-0.1-0.8-0.2-1.5-0.2-2.3c0-0.3,0.2-0.5,0.5-0.5c0.3,0,0.5,0.2,0.5,0.5c0,0.7,0.1,1.5,0.2,2.2c0.2,1.8,0.4,3.7,0.1,5.6
		C47.5,55.6,42.2,60,36.3,60z"/>
</g>
<g>
	<path class="st1" d="M31.8,62c-1.4,0-2.7-0.2-2.8-0.3c-2.9-0.7-8-3-9.7-10c-1.6-6.5,1.4-11.9,4.6-16.4c0.4-0.5,0.7-1,0.9-1.6
		c0.2-0.6,0.2-1.5-0.1-2.1c-0.1-0.2,0-0.5,0.2-0.7c0.2-0.1,0.5,0,0.7,0.2c0.4,0.9,0.5,2,0.2,2.9c-0.2,0.7-0.7,1.3-1.1,1.9
		c-3,4.3-5.9,9.5-4.4,15.6c1.5,6.2,5.7,8.5,9,9.3c1.6,0.3,6,0.7,6.5-1.5c0.1-0.3,0.4-0.4,0.6-0.3c0.3,0.1,0.4,0.3,0.3,0.6
		C36.2,61.6,33.8,62,31.8,62z"/>
</g>
<g>
	<path class="st1" d="M47.3,62.9c-0.4,0-0.8,0-1.1,0c-3.6-0.3-7.5-2.1-8.2-3c-0.2-0.2-0.1-0.5,0.1-0.7c0.2-0.2,0.5-0.1,0.7,0.1
		c0.4,0.6,4,2.3,7.4,2.6c0.1,0,12.4,0.9,15.1-9.9c1.5-6.1-1.4-11.3-4.4-15.6c-0.4-0.6-0.8-1.2-1.1-1.9c-0.4-1-0.2-2.7,0.7-3.6
		c0.2-0.2,0.5-0.2,0.7,0c0.2,0.2,0.2,0.5,0,0.7c-0.5,0.5-0.8,1.7-0.5,2.5c0.2,0.6,0.6,1.1,0.9,1.6c3.2,4.5,6.2,9.9,4.6,16.4
		c-1.1,4.2-3.7,7.4-7.7,9.1C52.1,62.5,49.3,62.9,47.3,62.9z"/>
</g>
<g>
	<path class="st1" d="M48.4,40.7c-0.1,0-0.1,0-0.2,0c-0.3-0.1-0.4-0.4-0.3-0.7c0.2-0.5,0.7-0.9,1.2-0.9c0.5-0.1,1.1,0.2,1.4,0.7
		c0.2,0.2,0.1,0.5-0.1,0.7c-0.2,0.2-0.5,0.1-0.7-0.1c-0.1-0.1-0.3-0.2-0.5-0.2c-0.2,0-0.3,0.1-0.4,0.3
		C48.8,40.6,48.6,40.7,48.4,40.7z"/>
</g>
<g>
	<path class="st1" d="M49.1,40c-0.2,0-0.4-0.1-0.5-0.3c-0.2-0.6-0.2-1.2,0-1.8c0.1-0.3,0.4-0.4,0.7-0.3c0.3,0.1,0.4,0.4,0.3,0.7
		c-0.1,0.3-0.1,0.7,0,1c0.1,0.3,0,0.5-0.3,0.7C49.2,40,49.2,40,49.1,40z"/>
</g>
<g>
	<path class="st1" d="M35.5,47.4c-0.5,0-1-0.1-1.4-0.4c-0.9-0.5-1.4-1.5-1.2-2.5c0,0,0-0.1,0-0.1c0.6-1.2,1.1-2.5,1.4-3.6
		c-0.6,0.4-1.4,0.7-2.1,0.7c-1,0-2-0.4-2.7-1.1c-0.7-0.7-1.1-1.7-1-2.7c0.1-1.9,1.6-3.5,3.5-3.5c1,0,2,0.3,2.7,1
		c0.7,0.7,1.1,1.6,1.1,2.7c0,0.2-0.3,3.7-2,7c-0.1,0.6,0.2,1.1,0.7,1.4c0.9,0.5,2.2,0.2,3.6-1c0.2-0.2,0.5-0.2,0.7,0.1
		c0.2,0.2,0.2,0.5-0.1,0.7C37.7,46.9,36.6,47.4,35.5,47.4z M32.3,35c0,0-0.1,0-0.1,0c-1.4,0.1-2.5,1.2-2.6,2.6c0,0.7,0.2,1.4,0.7,2
		c0.9,1,2.6,1.1,3.7,0.2c0.3-0.3,0.7-0.6,0.8-0.7c0,0,0-0.1,0-0.1c0.1-0.8,0.2-1.3,0.2-1.3c0-0.7-0.3-1.4-0.8-1.9
		C33.6,35.3,33,35,32.3,35z"/>
</g>
<g>
	<path class="st1" d="M39.2,42.2c-2.3,0-4.1-1.9-4.1-4.1c0-2.3,1.9-4.1,4.1-4.1c2.3,0,4.1,1.9,4.1,4.1
		C43.3,40.3,41.4,42.2,39.2,42.2z M39.2,34.9c-1.7,0-3.1,1.4-3.1,3.1c0,1.7,1.4,3.1,3.1,3.1s3.1-1.4,3.1-3.1
		C42.3,36.3,40.9,34.9,39.2,34.9z"/>
</g>
<g>
	<path class="st1" d="M35.3,37.7c-0.1,0-0.2,0-0.3-0.1c-1.9-1.7-4.4-1.5-4.9-1.3c-0.3,0.1-0.5-0.1-0.6-0.3c-0.1-0.3,0.1-0.5,0.3-0.6
		c0.7-0.2,3.6-0.5,5.8,1.5c0.2,0.2,0.2,0.5,0,0.7C35.6,37.6,35.4,37.7,35.3,37.7z"/>
</g>
<g>
	<path class="st1" d="M42.8,38.4c-0.1,0-0.2,0-0.3-0.1c-1.2-1.2-3.3-2.3-6.3-1.2l-0.1,0c-0.3,0.1-0.5-0.1-0.6-0.3s0.1-0.5,0.3-0.6
		l0.1,0c2.8-1,5.4-0.5,7.4,1.5c0.2,0.2,0.2,0.5,0,0.7C43.1,38.4,42.9,38.4,42.8,38.4z"/>
</g>
<g>
	<path class="st1" d="M30,35.7c-0.3,0-1.6-0.1-2.4-1.4c-0.2-0.2-0.1-0.5,0.1-0.7c0.2-0.2,0.5-0.1,0.7,0.1c0.6,1,1.6,0.9,1.6,0.9
		c0.3,0,0.5,0.2,0.5,0.5C30.6,35.5,30.4,35.7,30,35.7C30.1,35.7,30.1,35.7,30,35.7z"/>
</g>
<g>
	<path class="st1" d="M27.9,38.5c-0.9,0-1.8-0.5-2.7-1.4c-0.2-0.2-0.2-0.5,0-0.7s0.5-0.2,0.7,0c0.7,0.7,1.4,1.1,2,1.1
		c0.4,0,0.7-0.2,0.7-0.3c0.2-0.2,0.5-0.2,0.7,0c0.2,0.2,0.2,0.5,0,0.7C29.3,37.9,28.8,38.4,27.9,38.5C27.9,38.5,27.9,38.5,27.9,38.5
		z"/>
</g>
<g>
	<path class="st1" d="M42.9,36.5c-0.3,0-0.6,0-0.9-0.1c-0.3-0.1-0.4-0.4-0.3-0.6c0.1-0.3,0.4-0.4,0.6-0.3c1.4,0.4,1.9-0.8,2-0.9
		c0.1-0.3,0.4-0.4,0.6-0.3c0.3,0.1,0.4,0.4,0.3,0.6C45,35.4,44.2,36.5,42.9,36.5z"/>
</g>
<g>
	<path class="st1" d="M44,38.9c-0.4,0-0.9-0.1-1.4-0.4c-0.2-0.1-0.3-0.5-0.2-0.7c0.2-0.2,0.5-0.3,0.7-0.1c1,0.7,1.8,0,1.8,0
		c0.2-0.2,0.5-0.2,0.7,0s0.2,0.5,0,0.7C45.3,38.6,44.7,38.9,44,38.9z"/>
</g>
<g>
	<path class="st1" d="M46.2,27.5c-0.2,0-0.3-0.1-0.4-0.3c-1.2-2.2-1.4-4.6-0.4-6.5c0.1-0.2,0.4-0.4,0.7-0.2c0.2,0.1,0.4,0.4,0.2,0.7
		c-0.8,1.6-0.6,3.7,0.4,5.6c0.1,0.2,0,0.5-0.2,0.7C46.4,27.5,46.3,27.5,46.2,27.5z"/>
</g>
<g>
	<path class="st1" d="M55.5,23.1c-0.3,0-0.5-0.2-0.5-0.4l0-0.1c0-0.2,0-0.4,0-0.5c0-0.3,0-0.5-0.1-0.8c-0.1-0.2-0.2-0.3-0.3-0.4
		c0,0-0.1,0-0.1,0c-0.3,0-0.5-0.3-0.4-0.6s0.3-0.5,0.6-0.4c0.1,0,0.3,0.1,0.4,0.1c0.4,0.2,0.7,0.5,0.8,1c0.1,0.3,0.2,0.7,0.2,1
		c0,0.1,0,0.3,0,0.6C56,22.9,55.8,23.1,55.5,23.1C55.5,23.1,55.5,23.1,55.5,23.1z"/>
</g>
<g>
	<path class="st1" d="M55.5,23.2C55.5,23.2,55.5,23.2,55.5,23.2l-7.2-0.3c-0.3,0-0.5-0.2-0.5-0.5l-0.1-0.8c0-0.3,0-0.5-0.1-0.8
		c-0.1-0.2-0.2-0.3-0.3-0.4c-0.2-0.1-0.4,0-0.6,0.1c-0.2,0.1-0.4,0.3-0.6,0.6c-0.1,0.2-0.5,0.3-0.7,0.2c-0.2-0.1-0.3-0.5-0.2-0.7
		c0.2-0.3,0.4-0.7,0.9-1c0.5-0.3,1.1-0.3,1.5-0.1c0.4,0.2,0.7,0.5,0.8,1c0.1,0.4,0.2,0.7,0.2,1l0,0.3l6.7,0.3c0.3,0,0.5,0.2,0.5,0.5
		C56,23,55.7,23.2,55.5,23.2z"/>
</g>
<g>
	<path class="st1" d="M53.4,27.5c-0.2,0-0.3-0.1-0.4-0.3c-0.8-1.5-1.2-3.1-1-4.6c0-0.3,0.3-0.5,0.6-0.4c0.3,0,0.5,0.3,0.4,0.6
		c-0.2,1.3,0.2,2.7,0.9,4c0.1,0.2,0,0.5-0.2,0.7C53.6,27.5,53.5,27.5,53.4,27.5z"/>
</g>
<g>
	<path class="st1" d="M54.5,20.9C54.5,20.9,54.5,20.9,54.5,20.9L47,20.5c-0.3,0-0.5-0.3-0.5-0.5c0-0.3,0.3-0.5,0.5-0.5l7.5,0.5
		c0.3,0,0.5,0.3,0.5,0.5C55,20.7,54.8,20.9,54.5,20.9z"/>
</g>
<g>
	<path class="st1" d="M61,53.9C61,53.9,61,53.9,61,53.9c-5.5-0.9-7.9-6.6-8-6.9c-0.1-0.3,0-0.5,0.3-0.7c0.3-0.1,0.5,0,0.7,0.3
		c0,0.1,2.3,5.5,7.2,6.3c0.3,0,0.5,0.3,0.4,0.6C61.5,53.8,61.3,53.9,61,53.9z"/>
</g>
<g>
	<path class="st1" d="M56.7,60.2c-0.1,0-0.1,0-0.2,0c-4.5-1.8-6.1-5.7-6.2-5.9c-0.1-0.3,0-0.5,0.3-0.7c0.3-0.1,0.5,0,0.7,0.3
		c0,0,1.6,3.7,5.7,5.3c0.3,0.1,0.4,0.4,0.3,0.6C57.1,60.1,56.9,60.2,56.7,60.2z"/>
</g>
<g>
	<path class="st1" d="M49.7,62.6c-0.2,0-0.3-0.1-0.4-0.2c-1.5-2.3-1.3-3.9-1.3-4c0-0.3,0.3-0.5,0.6-0.4c0.3,0,0.5,0.3,0.4,0.6l0,0
		c0,0-0.2,1.4,1.1,3.3c0.2,0.2,0.1,0.5-0.1,0.7C49.9,62.5,49.8,62.6,49.7,62.6z"/>
</g>
<g>
	<path class="st1" d="M19.6,50.2c-0.1,0-0.3-0.1-0.4-0.2c-0.2-0.2-0.1-0.5,0.1-0.7c2.4-1.9,3.5-4.6,3.5-4.6c0.1-0.3,0.4-0.4,0.7-0.3
		c0.3,0.1,0.4,0.4,0.3,0.7c-0.1,0.1-1.3,3-3.8,5C19.8,50.2,19.7,50.2,19.6,50.2z"/>
</g>
<g>
	<path class="st1" d="M22.2,57.1c-0.2,0-0.3-0.1-0.4-0.2c-0.2-0.2-0.1-0.5,0.1-0.7c2.6-1.8,3.6-4.2,3.6-4.2c0.1-0.3,0.4-0.4,0.7-0.3
		c0.3,0.1,0.4,0.4,0.3,0.7c0,0.1-1.2,2.7-4,4.7C22.4,57.1,22.3,57.1,22.2,57.1z"/>
</g>
<g>
	<path class="st1" d="M27.1,60.6c-0.1,0-0.2,0-0.3-0.1c-0.2-0.2-0.3-0.5-0.1-0.7c1.3-1.9,1.1-3.3,1.1-3.3c0-0.3,0.2-0.5,0.4-0.6
		c0.3,0,0.5,0.2,0.6,0.4c0,0.1,0.2,1.7-1.3,4C27.4,60.5,27.2,60.6,27.1,60.6z"/>
</g>
<g>
	<path class="st1" d="M50.7,26.2h-3.3c-0.3,0-0.5-0.2-0.5-0.5s0.2-0.5,0.5-0.5h3.3c0.3,0,0.5,0.2,0.5,0.5S51,26.2,50.7,26.2z"/>
</g>
<g>
	<path class="st1" d="M50.4,24.7h-3.3c-0.3,0-0.5-0.2-0.5-0.5s0.2-0.5,0.5-0.5h3.3c0.3,0,0.5,0.2,0.5,0.5S50.7,24.7,50.4,24.7z"/>
</g>
<g>
	<path class="st1" d="M31.5,35.6c-0.7,0.4-1.2,1.1-1.2,1.9c-0.1,1.3,0.9,2.3,2.1,2.4c0.9,0,1.6-0.4,2.1-1.1l-1.1-0.9l1.4-0.6
		c0-0.2-0.1-0.3-0.1-0.5c0,0-0.2-0.7-0.8-0.9s-2-0.1-2-0.1"/>
</g>
<g>
	<path class="st1" d="M40,38.4l1.4-0.6c-0.1-1.1-1-1.9-2.1-2C38,35.8,37,36.7,36.9,38c-0.1,1.3,0.9,2.3,2.1,2.4
		c0.9,0,1.6-0.4,2.1-1.1L40,38.4L40,38.4z"/>
</g>
<g>
	<path class="st1" d="M57.6,31.7H23.9c-1.2,0-2.1-0.3-2.6-0.9c-0.5-0.6-0.5-1.4-0.5-1.6c0-0.7,0.5-1.5,1.5-2.5
		c3.1-2.8,10.3-6.2,14-6c0,0,0,0,0,0c2.6,0,5.5,3.1,7.7,5.8c0.1,0.1,0.3,0.2,0.4,0.2h13.3c0.5,0,1,0.2,1.2,0.6
		c0.8,1.1,0.8,2.5,0,3.7C58.6,31.5,58.1,31.7,57.6,31.7z M21.7,29.3c0,0-0.1,0.5,0.3,0.9c0.3,0.4,1,0.6,1.8,0.6h33.8
		c0.2,0,0.3-0.1,0.4-0.2c0.4-0.6,0.8-1.6,0-2.6c-0.1-0.1-0.3-0.2-0.4-0.2H44.4c-0.5,0-0.9-0.2-1.2-0.6c-1.2-1.5-4.4-5.4-7-5.4
		c-3.5-0.3-10.4,3-13.3,5.7c-1,0.9-1.2,1.5-1.2,1.7C21.7,29.2,21.7,29.2,21.7,29.3z"/>
</g>
<g>
	<path class="st1" d="M58.8,30.7H24c-1.5,0-2.8-0.6-2.8-0.6c-0.3-0.1-0.4-0.4-0.2-0.7c0.1-0.3,0.4-0.4,0.7-0.2c0,0,1.1,0.5,2.4,0.5
		h34.8c0.3,0,0.5,0.2,0.5,0.5S59.1,30.7,58.8,30.7z"/>
</g>
<g>
	<path class="st1" d="M36.2,57.3c-3,0-4.5-2.9-4.7-4.9c-0.1-2,0.4-4.4,2.2-4.6c1.1-0.1,1.8,0.3,2.2,0.7c0.4-0.4,1.2-0.9,2.4-0.8
		c2.1,0.3,2.1,3.6,2,4.7l0,0.1c0,0,0,0,0,0C40.5,53.7,39.4,57.3,36.2,57.3C36.3,57.3,36.3,57.3,36.2,57.3z M34.1,48.8
		c-0.1,0-0.2,0-0.3,0c-1.1,0.1-1.4,2.2-1.3,3.5c0.1,1.2,1.1,3.9,3.7,3.9c0,0,0,0,0,0c2.5,0,3.2-3.1,3.2-3.6c0,0,0,0,0,0l0-0.2
		c0-3-0.6-3.7-1.2-3.7c-1.4-0.2-1.8,0.7-1.8,0.8c-0.1,0.2-0.2,0.3-0.4,0.3c-0.2,0-0.4-0.1-0.5-0.2C35.6,49.6,35.1,48.8,34.1,48.8z"
		/>
</g>
<g>
	<path class="st1" d="M35.9,51.9c-1.5,0-2.7-0.4-3.6-0.8c-0.3-0.1-0.4-0.4-0.2-0.7c0.1-0.3,0.4-0.4,0.7-0.2c1.4,0.6,3.4,1.2,6.7,0
		c0.3-0.1,0.5,0,0.6,0.3c0.1,0.3,0,0.5-0.3,0.6C38.3,51.7,37,51.9,35.9,51.9z"/>
</g>
<g>
	<path class="st1" d="M35.8,54.9c-0.1,0-0.1,0-0.2,0c-1.7-0.1-3.8-2.1-3.9-2.1c-0.2-0.2-0.2-0.5,0-0.7c0.2-0.2,0.5-0.2,0.7,0
		c0.5,0.5,2.2,1.8,3.3,1.9c1.1,0.1,3.1-1.3,3.8-1.8c0.2-0.2,0.5-0.1,0.7,0.1c0.2,0.2,0.1,0.5-0.1,0.7C39.9,53.1,37.5,54.9,35.8,54.9
		z"/>
</g>
<g>
	<path class="st1" d="M34.3,54.3c-0.3,0-0.5-0.2-0.5-0.5l0-2.4c0-0.3,0.2-0.5,0.5-0.5c0.3,0,0.5,0.2,0.5,0.5l0,2.4
		C34.8,54.1,34.6,54.3,34.3,54.3C34.3,54.3,34.3,54.3,34.3,54.3z"/>
</g>
<g>
	<path class="st1" d="M37.1,54.4c-0.3,0-0.5-0.2-0.5-0.5l0-2.5c0-0.3,0.2-0.5,0.5-0.5c0.3-0.1,0.5,0.2,0.5,0.5l0,2.5
		C37.6,54.2,37.4,54.4,37.1,54.4C37.1,54.4,37.1,54.4,37.1,54.4z"/>
</g>
</svg>
