<?xml version="1.0" encoding="utf-8"?>
<!-- Generator: Adobe Illustrator 26.5.0, SVG Export Plug-In . SVG Version: 6.00 Build 0)  -->
<svg version="1.1" id="Layer_1" xmlns="http://www.w3.org/2000/svg" xmlns:xlink="http://www.w3.org/1999/xlink" x="0px" y="0px"
	 viewBox="0 0 80 80" style="enable-background:new 0 0 80 80;" xml:space="preserve">
<style type="text/css">
	.st0{fill:#03D47C;}
	.st1{fill:#008C59;}
	.st2{fill:#002140;}
	.st3{fill:#8EECC4;}
</style>
<g>
	<rect class="st0" width="80" height="80"/>
</g>
<g>
	<path class="st1" d="M15.5,36.3c0,0-1.6,3.9-4.3,4.2c0,0,3.7,1.6,4,4c0,0,1.5-3.5,4.4-3.9C19.7,40.6,15.8,39.7,15.5,36.3L15.5,36.3
		z"/>
</g>
<g>
	<path class="st1" d="M62.6,35.9c0,0-1.6,3.9-4.3,4.2c0,0,3.7,1.6,4,4c0,0,1.5-3.5,4.4-3.9C66.7,40.2,62.8,39.3,62.6,35.9L62.6,35.9
		z"/>
</g>
<g>
	<path class="st2" d="M39.9,72.4c-18,0-32.7-14.7-32.7-32.7C7.2,21.7,21.9,7,39.9,7c18,0,32.7,14.7,32.7,32.7
		C72.6,57.8,57.9,72.4,39.9,72.4z M39.9,8C22.4,8,8.2,22.3,8.2,39.7c0,17.5,14.2,31.7,31.7,31.7s31.7-14.2,31.7-31.7
		C71.6,22.3,57.4,8,39.9,8z"/>
</g>
<g>
	<path class="st2" d="M62.5,45.2c-0.2,0-0.4-0.2-0.5-0.4c-0.8-2.9-1.3-3.4-4.2-4.2c-0.2-0.1-0.4-0.3-0.4-0.5s0.2-0.4,0.4-0.5
		c2.9-0.8,3.4-1.3,4.2-4.2c0.1-0.2,0.3-0.4,0.5-0.4l0,0c0.2,0,0.4,0.2,0.5,0.4c0.8,2.9,1.3,3.4,4.2,4.2c0.2,0.1,0.4,0.3,0.4,0.5
		s-0.2,0.4-0.4,0.5c-2.9,0.8-3.4,1.3-4.2,4.2C62.9,45,62.7,45.2,62.5,45.2z M59.6,40.1c1.5,0.6,2.3,1.3,2.9,2.9
		c0.6-1.5,1.3-2.3,2.9-2.9c-1.5-0.6-2.3-1.3-2.9-2.9C61.9,38.8,61.1,39.5,59.6,40.1z"/>
</g>
<g>
	<path class="st2" d="M15.2,45.8L15.2,45.8c-0.2,0-0.4-0.2-0.5-0.4c-0.8-2.9-1.3-3.4-4.2-4.2c-0.2-0.1-0.4-0.3-0.4-0.5
		s0.2-0.4,0.4-0.5c2.9-0.8,3.4-1.3,4.2-4.2c0.1-0.4,0.9-0.4,1,0c0.8,2.9,1.3,3.4,4.2,4.2c0.2,0.1,0.4,0.3,0.4,0.5s-0.2,0.4-0.4,0.5
		c-2.9,0.8-3.4,1.3-4.2,4.2C15.6,45.7,15.4,45.8,15.2,45.8z M12.3,40.8c1.5,0.6,2.3,1.3,2.9,2.9c0.6-1.5,1.3-2.3,2.9-2.9
		c-1.5-0.6-2.3-1.3-2.9-2.9C14.6,39.5,13.9,40.2,12.3,40.8z"/>
</g>
<g>
	<path class="st1" d="M25.1,38.1c0,0-2.8,0-3.4,1.6c-0.7,1.6-0.2,2.8,0,3.3c0.2,0.4,1.4,1.4,1.7,2.5c0.3,1-0.5,3,0.7,4.5
		c1.2,1.4,2.4,2.1,4.1,1.7c0,0,6.7,3,9.6,2.4c2.9-0.7,2.9-2.5,4.7-2.9c1.8-0.4,5.6-0.7,7.1,0.3c1.4,0.9,5.9,2.5,6.3-0.7
		c0.4-3.1-2-10.6-2-10.6l-0.3-2.9c0,0-19.9-1.6-23.5-1C26.6,36.7,25.1,38.2,25.1,38.1L25.1,38.1z"/>
</g>
<g>
	<path class="st0" d="M25,37.4l0.1,0.8c0,0,2.8,1.1,2.8,2.4c0,0-0.9,8.4,1.2,13.5s7.4,11,16,10.6c8.7-0.4,11.2-5,11.3-7.9
		c0.1-2.9-0.7-6-0.7-6s-0.2,1.4-2.1,1.4s-5.9-2.2-8-2.3c-2.1-0.1-5.1,0.6-5.7,1.2c-0.6,0.6-2.8,2.3-4,1.8c-1.3-0.5-3-1.4-3.2-3.9
		c-0.3-2.6-1.1-11.2-1.1-11.2s-1.2-1.4-2.9-1.3C27.2,36.5,25,37.4,25,37.4L25,37.4z"/>
</g>
<g>
	<path class="st1" d="M41.3,55.1c0,0,3.9-0.2,5.6-0.5c1.7-0.3,2.7-1.1,2.7-1.1s0-1.7-2.5-1.6C44.7,52.1,42.7,54.9,41.3,55.1
		L41.3,55.1z"/>
</g>
<g>
	<path class="st1" d="M41.8,57.2c0,0,1.6,4.5,3.8,4.5s2-2.1,2-2.1L41.8,57.2z"/>
</g>
<g>
	<path class="st3" d="M41.5,54.8c0,0,1.1,4.5,6.2,4.5l1.1-5.4C48.8,53.9,43.8,55.5,41.5,54.8L41.5,54.8z"/>
</g>
<g>
	<path class="st3" d="M42.8,45.3c2.1,0,3.8-1.7,3.8-3.8c0-2.1-1.7-3.8-3.8-3.8c-2.1,0-3.8,1.7-3.8,3.8
		C38.9,43.6,40.7,45.3,42.8,45.3z"/>
</g>
<g>
	<path class="st3" d="M47.3,43l1.7,2.1c0,0,1.7,0.3,2.3,0.1c0.6-0.2,2.7-2,2.6-2.9c-0.1-0.8-0.7-2.8-0.7-2.8s-1.9-1.2-4.2-0.3
		c-2.4,0.9-2.5,1.1-2.3,1.4C46.9,40.9,47.3,43,47.3,43L47.3,43z"/>
</g>
<g>
	<path class="st1" d="M38.9,41.3c0,0,2.9-1.1,4.1-1.3c1.2-0.2,3.1-0.3,3.1-0.3l0.5,1c0,0,1.4-0.4,2.7-0.7s3.8-0.3,3.8-0.3
		s-1.4-2.6-3.9-1.9c-2.6,0.6-2.8,1.7-2.8,1.7L46,39.1c0,0-1.3-1.8-3.9-1.3C39.5,38.3,38.8,41.1,38.9,41.3L38.9,41.3z"/>
</g>
<g>
	<path class="st1" d="M25,37.4l4.5-1.3c0,0,11.2,1.3,22.6,1.4c3.3-0.3,9.5-3.6,9.7-4.7c0.2-1,0.4-3.2-2.7-4.2c-3.1-1-7-1.2-7-1.2
		s-0.7-12.3-13.8-11.5l-2.2-0.1c0,0,0-2.1-2.2-1.9c-2.2,0.2-2.5,2.7-2.2,3.1l-0.3,0.5C31.4,17.6,21.4,22.3,25,37.4L25,37.4z"/>
</g>
<g>
	<path class="st0" d="M31.6,35.5c0,0,17.1-4.4,20.6-8.1c0,0-0.1-7.7-6.2-9.8c-6-2.2-9.6-2.2-11.9-0.8C31.8,18.2,29.2,25.5,31.6,35.5
		L31.6,35.5z"/>
</g>
<g>
	<path class="st2" d="M45.9,64.9c-6.2,0-11-1.9-14.3-5.8c-3.8-4.5-5.3-11.3-4.1-19.1c0-0.3,0.3-0.5,0.6-0.4c0.3,0,0.5,0.3,0.4,0.6
		c-1.2,7.6,0.2,14.1,3.9,18.3c3.1,3.6,7.6,5.4,13.5,5.4c8.3,0,9.6-5.7,9.7-5.9c1.3-4.5-0.3-10.8-1.5-15.4c-0.5-2.1-1-3.9-1.1-5.3
		c0-0.3,0.2-0.5,0.5-0.5c0.3,0,0.5,0.2,0.5,0.5c0.1,1.2,0.6,3,1.1,5.1c1.3,5,2.9,11.2,1.5,15.9C56.5,58.3,55,64.9,45.9,64.9z"/>
</g>
<g>
	<path class="st2" d="M37.1,53.5c0,0-0.1,0-0.1,0c-4.7-0.2-4.9-4.7-5-8c0-0.5,0-1.1-0.1-1.6c0-0.3,0-0.7-0.1-1.1
		c-0.1-1.9-0.2-5.4-1.5-6.1c-0.2-0.1-0.4-0.4-0.2-0.7c0.1-0.2,0.4-0.4,0.7-0.2c1.9,0.9,2,4.5,2.1,6.9c0,0.4,0,0.8,0.1,1
		c0,0.5,0.1,1,0.1,1.6c0.2,4,0.6,6.9,4.1,7.1c0.8,0,1.4-0.5,2.1-1.1c0.2-0.2,0.4-0.4,0.6-0.5c2.2-1.7,5.4-2.2,8.6-1.1
		c0.9,0.3,1.7,0.7,2.5,1.1l0.7,0.3c0.7,0.4,1.4,0.7,2.1,0.6c1.3-0.3,2-0.9,2.1-1.9c0-0.3,0.3-0.5,0.5-0.5c0.3,0,0.5,0.3,0.5,0.5
		c-0.1,0.8-0.5,2.3-2.9,2.8c-1,0.2-1.9-0.2-2.7-0.7l-0.7-0.3c-0.8-0.4-1.5-0.8-2.3-1c-2.2-0.7-5.4-0.8-7.7,1
		c-0.2,0.2-0.4,0.3-0.6,0.5C39.1,52.7,38.3,53.5,37.1,53.5z"/>
</g>
<g>
	<path class="st2" d="M27.4,52.1c-1,0-2.1-0.4-2.9-1.1c-1.1-0.9-1.7-2.3-1.6-3.6c0-0.3,0.1-0.5,0.1-0.8c0.1-0.6,0.2-1.1,0-1.5
		c-0.1-0.3-0.4-0.6-0.7-0.8c-0.2-0.2-0.4-0.4-0.6-0.6c-0.7-0.8-0.9-1.8-0.7-3c0.2-1.2,0.9-2.2,1.9-2.7c1.9-1,4.5-0.2,5.6,1.8
		c0.1,0.2,0,0.5-0.2,0.7c-0.2,0.1-0.5,0-0.7-0.2c-0.8-1.5-2.8-2.2-4.2-1.4c-0.7,0.4-1.2,1.1-1.4,2c-0.1,0.8,0,1.6,0.5,2.1
		c0.1,0.2,0.3,0.3,0.5,0.5c0.4,0.3,0.8,0.7,1,1.2c0.3,0.7,0.2,1.4,0.1,2.1c0,0.2-0.1,0.5-0.1,0.7c-0.1,1,0.4,2,1.3,2.8
		c0.9,0.7,2,1,2.9,0.8c0.3-0.1,0.5,0.1,0.6,0.4c0.1,0.3-0.1,0.5-0.4,0.6C28,52,27.7,52.1,27.4,52.1z"/>
</g>
<g>
	<path class="st2" d="M25.5,38.4c-0.2,0-0.4-0.1-0.5-0.3C25,38,19.7,23.2,31,17.3c5.4-2.8,11.4-2.8,15.9,0.1c3.6,2.3,5.7,6,5.5,9.8
		c0,0.1-0.1,0.3-0.2,0.4c-0.2,0.2-5.7,4.8-26.5,9.8c0.1,0.2,0.1,0.4,0.1,0.4c0.1,0.3,0,0.5-0.3,0.6C25.6,38.4,25.5,38.4,25.5,38.4z
		 M39.2,16.2c-2.6,0-5.2,0.7-7.8,2c-4.4,2.3-6.6,6.2-6.7,11.8c0,2.7,0.5,5.1,0.8,6.5c18.6-4.5,24.9-8.7,25.9-9.5
		c0.1-3.3-1.9-6.6-5.1-8.7C44.3,16.9,41.8,16.2,39.2,16.2z"/>
</g>
<g>
	<path class="st2" d="M31.6,35.6c-0.2,0-0.4-0.2-0.5-0.4c-3.1-13.7,2.4-18.8,2.6-19.1c0.2-0.2,0.5-0.2,0.7,0c0.2,0.2,0.2,0.5,0,0.7
		c-0.1,0-5.3,5-2.3,18.1c0.1,0.3-0.1,0.5-0.4,0.6C31.6,35.6,31.6,35.6,31.6,35.6z"/>
</g>
<g>
	<path class="st2" d="M32,17.9c-0.2,0-0.4-0.1-0.5-0.3c0-0.1-0.6-1.7,0.1-3c0.3-0.6,0.9-1,1.7-1.2c0.9-0.2,1.6-0.1,2.2,0.4
		c1,0.8,1.2,2.1,1.2,2.2c0,0.3-0.2,0.5-0.4,0.5c-0.3,0-0.5-0.2-0.5-0.4c0,0-0.1-1-0.8-1.5c-0.4-0.3-0.8-0.3-1.4-0.2
		c-0.5,0.1-0.9,0.3-1.1,0.7c-0.5,0.9,0,2.2,0,2.2c0.1,0.3,0,0.5-0.3,0.6C32.1,17.9,32.1,17.9,32,17.9z"/>
</g>
<g>
	<path class="st2" d="M45.6,38.1c-7.9,0-15.6-1.4-16.2-1.5c-0.3,0-0.5-0.3-0.4-0.6c0-0.3,0.3-0.5,0.6-0.4c0.2,0,22.3,3.9,29.9-1.3
		c1.1-0.8,2.4-1.9,2-3.1c-0.7-2-5.7-3.6-9.5-3.5c-0.3,0-0.5-0.2-0.5-0.5c0-0.3,0.2-0.5,0.5-0.5c3.7-0.1,9.6,1.4,10.5,4.2
		c0.5,1.4-0.4,2.8-2.4,4.2C56.8,37.4,51.1,38.1,45.6,38.1z"/>
</g>
<g>
	<path class="st2" d="M48.4,50c-0.8,0-1.6-0.3-2.2-0.9c-0.1,0.1-0.1,0.1-0.2,0.2c-0.3,0.3-0.6,0.4-1.1,0.5c-1,0.2-1.9-0.1-2.5-0.7
		c-0.4-0.4-0.6-1-0.5-1.5c0-0.5,0.3-0.9,0.6-1.2c0.2-0.2,0.5-0.1,0.7,0.1c0.2,0.2,0.1,0.5-0.1,0.7c-0.2,0.1-0.2,0.4-0.2,0.5
		c0,0.3,0.1,0.6,0.2,0.8c0.3,0.4,1,0.5,1.6,0.4c0.3-0.1,0.5-0.1,0.6-0.3c0.1-0.1,0.2-0.3,0.1-0.4c-0.1-0.2,0-0.5,0.3-0.6
		c0.2-0.1,0.5,0,0.6,0.2c0.6,0.8,1.5,1.3,2.3,1.1c0.9-0.1,1.6-0.9,1.5-1.7c0-0.3-0.6-0.9-1.2-1.5c-1.1-1.2-2.6-2.7-2.6-4.6
		c0-0.3,0.2-0.5,0.5-0.5c0.3,0,0.5,0.2,0.5,0.5c0,1.5,1.3,2.8,2.3,3.9c0.8,0.8,1.4,1.4,1.4,2.1c0.1,1.3-1,2.6-2.4,2.8
		C48.6,50,48.5,50,48.4,50z"/>
</g>
<g>
	<path class="st2" d="M42.9,45.8c-2.4,0-4.4-2-4.4-4.4s2-4.4,4.4-4.4c2.4,0,4.4,2,4.4,4.4S45.4,45.8,42.9,45.8z M42.9,38.1
		c-1.9,0-3.4,1.5-3.4,3.4c0,1.9,1.5,3.4,3.4,3.4c1.9,0,3.4-1.5,3.4-3.4C46.3,39.6,44.8,38.1,42.9,38.1z"/>
</g>
<g>
	<path class="st2" d="M42.9,39.9c-1,0-1.9,0.6-2.2,1.5l1.9,1l-1.9,0.7c0.4,0.9,1.2,1.5,2.2,1.5c1.3,0,2.4-1.1,2.4-2.4
		C45.3,41,44.2,39.9,42.9,39.9L42.9,39.9z"/>
</g>
<g>
	<path class="st2" d="M47.9,59.8C47.9,59.8,47.9,59.8,47.9,59.8c-6-0.3-7.3-4.6-7.3-4.8c0-0.2,0-0.4,0.1-0.5
		c0.1-0.1,0.3-0.2,0.5-0.1c3.5,1,7.9-1.1,7.9-1.2c0.3-0.1,0.5,0,0.7,0.2c0.1,0.2,0,0.5-0.2,0.7c-0.2,0.1-4.1,2-7.7,1.5
		c0.6,1.1,2.3,3.1,6,3.3c0.3,0,0.5,0.2,0.5,0.5C48.4,59.6,48.1,59.8,47.9,59.8z"/>
</g>
<g>
	<path class="st2" d="M41.1,50.6C41,50.6,41,50.6,41.1,50.6c-0.3,0-0.5-0.2-0.5-0.5c0-0.6-0.3-1.3-0.8-1.9c-0.5-0.6-1.2-1-1.8-1.5
		c-0.2-0.2-0.3-0.5-0.1-0.7c0.2-0.2,0.5-0.3,0.7-0.1c0.7,0.5,1.4,1,2,1.7c0.7,0.8,1.1,1.7,1.1,2.6C41.5,50.4,41.3,50.6,41.1,50.6z"
		/>
</g>
<g>
	<path class="st2" d="M27.4,45.1c-0.1,0-0.1,0-0.2,0c-1.4-0.6-2.6-1.7-3.1-3.1c-0.1-0.3,0-0.5,0.3-0.7c0.3-0.1,0.5,0,0.7,0.3
		c0.5,1.2,1.5,2.1,2.6,2.6c0.3,0.1,0.4,0.4,0.3,0.7C27.8,45,27.6,45.1,27.4,45.1z"/>
</g>
<g>
	<path class="st2" d="M25.4,47.3C25.4,47.3,25.4,47.3,25.4,47.3c-0.3,0-0.5-0.3-0.5-0.5c0.1-1,0.4-1.9,1-2.7
		c0.2-0.2,0.5-0.3,0.7-0.1c0.2,0.2,0.3,0.5,0.1,0.7c-0.5,0.6-0.7,1.4-0.8,2.2C25.9,47.1,25.7,47.3,25.4,47.3z"/>
</g>
<g>
	<path class="st2" d="M39.1,42c-0.2,0-0.3-0.1-0.4-0.2c-0.2-0.2-0.1-0.5,0.1-0.7c0.1-0.1,3.5-2.6,7.4-2c0.3,0,0.5,0.3,0.4,0.6
		c0,0.3-0.3,0.5-0.6,0.4c-3.6-0.5-6.6,1.8-6.7,1.8C39.3,41.9,39.2,42,39.1,42z"/>
</g>
<g>
	<path class="st2" d="M49.9,45.7c-0.3,0-0.6,0-0.8-0.1c-0.3-0.1-0.5-0.3-0.4-0.6c0.1-0.3,0.3-0.4,0.6-0.4c0.2,0,0.4,0.1,0.6,0.1
		c1.9,0,3.4-1.5,3.4-3.4c0-1.9-1.5-3.4-3.4-3.4c-1.3,0-2.4,0.7-3,1.8c-0.1,0.2-0.4,0.3-0.7,0.2c-0.2-0.1-0.3-0.4-0.2-0.7
		c0.8-1.5,2.2-2.4,3.9-2.4c2.4,0,4.4,2,4.4,4.4C54.3,43.8,52.3,45.7,49.9,45.7z"/>
</g>
<g>
	<path class="st2" d="M49.9,39.8c-1,0-1.9,0.6-2.2,1.5l1.9,1l-1.9,0.7c0.4,0.9,1.2,1.5,2.2,1.5c1.3,0,2.4-1.1,2.4-2.4
		C52.3,40.9,51.2,39.8,49.9,39.8L49.9,39.8z"/>
</g>
<g>
	<path class="st2" d="M46.9,41.3c-0.2,0-0.3-0.1-0.4-0.3c-0.1-0.2,0-0.5,0.2-0.7c1.2-0.7,3.7-1.8,6.5-1.4c0.3,0,0.5,0.3,0.4,0.6
		c0,0.3-0.3,0.5-0.6,0.4c-2.5-0.4-4.7,0.6-5.8,1.3C47.1,41.3,47,41.3,46.9,41.3z"/>
</g>
<g>
	<path class="st2" d="M47.9,59.8C47.9,59.8,47.8,59.8,47.9,59.8c-0.3,0-0.5-0.3-0.5-0.5c0-0.2,0.3-3.9,0.9-5.3
		c0.1-0.3,0.4-0.4,0.7-0.3c0.3,0.1,0.4,0.4,0.3,0.7c-0.4,1-0.7,3.9-0.8,5C48.4,59.6,48.1,59.8,47.9,59.8z"/>
</g>
<g>
	<path class="st2" d="M41,55.4c-0.3,0-0.5-0.2-0.5-0.5s0.2-0.5,0.5-0.5c0.9,0,1.8-0.7,2.8-1.5c1-0.8,2-1.6,3.1-1.8
		c1.6-0.2,2.8,0.7,3.1,1.7c0.2,0.6,0,1.1-0.4,1.3c-0.2,0.1-0.5,0-0.7-0.2c-0.1-0.2,0-0.5,0.2-0.7c0-0.1,0-0.2-0.2-0.5
		c-0.1-0.2-0.7-0.8-1.9-0.7c-0.9,0.1-1.7,0.8-2.6,1.5C43.4,54.5,42.3,55.4,41,55.4z"/>
</g>
<g>
	<path class="st2" d="M46,62.1c-4,0-5.4-6.6-5.5-6.9c-0.1-0.3,0.1-0.5,0.4-0.6c0.3-0.1,0.5,0.1,0.6,0.4c0,0.1,1.3,6.1,4.5,6.1
		c0.5,0,0.8-0.1,1-0.4c0.4-0.5,0.3-1.3,0.3-1.3c0-0.3,0.2-0.5,0.4-0.6c0.3,0,0.5,0.2,0.6,0.4c0,0.1,0.2,1.3-0.6,2.1
		C47.4,61.8,46.8,62.1,46,62.1z"/>
</g>
</svg>
