<?xml version="1.0" encoding="utf-8"?>
<!-- Generator: Adobe Illustrator 26.5.0, SVG Export Plug-In . SVG Version: 6.00 Build 0)  -->
<svg version="1.1" id="Layer_1" xmlns="http://www.w3.org/2000/svg" xmlns:xlink="http://www.w3.org/1999/xlink" x="0px" y="0px"
	 viewBox="0 0 80 80" style="enable-background:new 0 0 80 80;" xml:space="preserve">
<style type="text/css">
	.st0{fill:#780505;}
	.st1{fill:#002140;}
	.st2{fill:#BF3013;}
	.st3{fill:#FF7101;}
	.st4{fill:#FFC68C;}
</style>
<g>
	<rect class="st0" width="80" height="80"/>
</g>
<g>
	<path class="st1" d="M40.1,72.7c-18,0-32.7-14.7-32.7-32.7c0-18,14.7-32.7,32.7-32.7c18,0,32.7,14.7,32.7,32.7
		C72.8,58.1,58.2,72.7,40.1,72.7z M40.1,8.4C22.7,8.4,8.4,22.6,8.4,40s14.2,31.7,31.7,31.7S71.8,57.5,71.8,40S57.6,8.4,40.1,8.4z"/>
</g>
<g>
	<path class="st2" d="M55.7,17.7c0,0-1.6,3.9-4.3,4.2c0,0,3.7,1.6,4,4c0,0,1.5-3.5,4.4-3.9C59.9,22,55.9,21.1,55.7,17.7L55.7,17.7z"
		/>
</g>
<g>
	<path class="st1" d="M55.5,27c-0.2,0-0.4-0.2-0.5-0.4c-0.8-2.9-1.3-3.4-4.2-4.2c-0.2-0.1-0.4-0.3-0.4-0.5s0.2-0.4,0.4-0.5
		c2.9-0.8,3.4-1.3,4.2-4.2c0.1-0.2,0.3-0.4,0.5-0.4l0,0c0.2,0,0.4,0.2,0.5,0.4c0.8,2.9,1.3,3.4,4.2,4.2c0.2,0.1,0.4,0.3,0.4,0.5
		s-0.2,0.4-0.4,0.5c-2.9,0.8-3.4,1.3-4.2,4.2C55.9,26.8,55.7,27,55.5,27z M52.6,21.9c1.5,0.6,2.3,1.3,2.9,2.9
		c0.6-1.5,1.3-2.3,2.9-2.9c-1.5-0.6-2.3-1.3-2.9-2.9C54.9,20.6,54.2,21.3,52.6,21.9z"/>
</g>
<g>
	<path class="st3" d="M29.8,45.1c0,0-1.5-0.9-2.7-0.6C26,44.8,25,45.8,25,47.9c0.1,2.1,0.7,3.5,2.3,3.5c1.6-0.1,3.3-1.9,3.5-0.7
		c0.3,7.4,7.4,10.1,11.8,10.2c4.5,0.2,6.2-2.2,7.2-3.9c1-1.8,1.2-8.2,0.3-11.3c-0.9-3.1-2.6-9.5-2.6-9.5s-10.5-2.4-13.8,0.2
		S29.8,45.1,29.8,45.1L29.8,45.1z"/>
</g>
<g>
	<path class="st2" d="M34.3,36.8l-1.4-0.5c0,0-6.5,2.3-8.7,4.9c0,0-1,4.7-2.6,7.4c-1.6,2.7-3.9,6.9-3.6,9.5
		c0.3,2.6,3.4,7.6,10.1,6.5c6.7-1.1,8.5-5.1,8.5-5.1l-2.1-1l-1.1-1.6c0,0-0.6-0.4-1.9-3l-0.7-3.1c0,0,1.1,1.7,2.9,1.2
		c1.7-0.5,2-3.2,0.5-3.8c0,0,0.1,1.7-1,1.6c-1.1-0.1-1.7-1.1-1.4-2.1C32.2,46.4,35.4,39.9,34.3,36.8L34.3,36.8z"/>
</g>
<g>
	<path class="st2" d="M48.5,37.9c0,0,3.5,11.5,1.7,17.1c0,0-1.1,3.7-2.6,4.5c1.3,1.4,6.4,3.3,6.4,3.3s7.1,1.2,9.9-5.1
		c2.2-5.2-2.7-9.7-3.3-10c-0.6-0.3-8.5-5.3-9.3-6.3C50.7,40.4,48.5,37.9,48.5,37.9L48.5,37.9z"/>
</g>
<g>
	<path class="st2" d="M21.8,47.7c0,0,2.7-4.1,2.4-6.5c0,0,6.6-4.4,8.7-4.9c0,0-4.7-4.6-11.4-4.7c-6.7-0.1-8.2,6.9-8.1,8.2
		c0.1,1.3,1,6.7,5.6,7.6C20.6,47.8,21.8,47.7,21.8,47.7L21.8,47.7z"/>
</g>
<g>
	<path class="st2" d="M47.7,36.2c0,0,2.9,5.7,5.8,7.1c0,0,5.3-1.5,5.8-7.2c0.5-5.7-4-5.5-4-5.5s-2.9,0.2-3.9,2.1
		S48.5,36.2,47.7,36.2L47.7,36.2z"/>
</g>
<g>
	<path class="st2" d="M34.4,16.7c0,0-3.3-3.4-6.5-3.3c-3.1,0.1-4.7,3.1-4.9,6.3c-0.2,3.2,1.9,11.1,1.5,12.2c0,0,4.9,1.9,5.5,2.4
		c0.6,0.5,6.1,4.2,11.4,3.6c5.2-0.6,8.1-2.9,8.1-2.9s-1.1-1.9-1.3-6.4c-0.2-4.5-1.9-15-6.5-15.9c-4.6-0.9-5.7,2.5-5.7,2.5L34.4,16.7
		L34.4,16.7z"/>
</g>
<g>
	<path class="st4" d="M41.1,42.2c0,0,0.5,0.7,1,1.6C42.6,44.8,44,46,44,46s2.7-0.5,2.8-3.2c0.1-2.7-3-2.8-3-2.8S41.5,40.1,41.1,42.2
		L41.1,42.2z"/>
</g>
<g>
	<path class="st4" d="M38.1,46.4c1.5,0,2.7-1.2,2.7-2.7s-1.2-2.7-2.7-2.7s-2.7,1.2-2.7,2.7S36.6,46.4,38.1,46.4z"/>
</g>
<g>
	<path class="st3" d="M33.1,29c0,0,3.5,0.1,4.4,1.1c0.9,1,2.2,3.9,2.2,3.9s0.1-3.8,1.4-4.7c1.3-0.9,3.6-2.1,3.6-2.1s-3.6-0.1-4.3-1
		c-0.7-0.9-1.7-3.2-2.1-4.1c0,0-0.4,3.5-1.1,4.2S33.8,29.1,33.1,29z"/>
</g>
<g>
	<path class="st2" d="M40,51.7c0,0,4.5,0,6.1-0.6c0,0-0.1-1.3-1.2-1.3c-1.1-0.1-1.7,1.1-1.7,1.1s-0.7-0.9-1.8-0.8
		C40.3,50.2,40,51.6,40,51.7L40,51.7z"/>
</g>
<g>
	<path class="st2" d="M39.9,53.3c0,0,0.5,3.7,3.4,3.5c2.9-0.2,3-3.1,3-3.1l-0.3-2c0,0-1.2,2.7-2.7,2.7c-1.5,0.1-2.9-0.9-3.1-1.8
		L39.9,53.3z"/>
</g>
<g>
	<path class="st4" d="M40,51.7c0,0,4.7,0.1,6.1-0.6c0,0-0.5,3.3-2.7,3.3C41.1,54.4,40.3,53.8,40,51.7z"/>
</g>
<g>
	<path class="st1" d="M21.2,48.1c-2.2,0-4.1-0.7-5.6-2.1c-1.7-1.5-2.6-3.8-2.6-6.2c0-2.3,0.9-4.5,2.6-6.1c1.8-1.7,4.3-2.6,7-2.5
		c3.4,0.1,5.9,1.6,8.2,3c2.9,1.7,5.9,3.5,10.9,3c6.2-0.7,7.8-2.9,9.1-4.7c1-1.4,1.9-2.7,4.5-2.7c2.4,0,4.1,1.5,4.5,4
		c0.5,3.6-1.7,8.4-5.9,9.7c-0.3,0.1-0.5-0.1-0.6-0.3c-0.1-0.3,0.1-0.5,0.3-0.6c3.6-1.1,5.6-5.4,5.2-8.6c-0.2-1.2-0.9-3.2-3.5-3.2
		c-2.1,0-2.7,0.9-3.7,2.2c-1.3,1.8-3.1,4.4-9.8,5.1c-5.3,0.6-8.5-1.3-11.5-3.1c-2.4-1.4-4.6-2.8-7.7-2.9c-3.2-0.1-5.2,1.2-6.3,2.3
		c-1.4,1.4-2.3,3.3-2.3,5.4c0,2.1,0.8,4.1,2.3,5.4c1.5,1.4,3.4,2,5.7,1.8c0.3,0,0.5,0.2,0.5,0.5c0,0.3-0.2,0.5-0.5,0.5
		C21.7,48.1,21.5,48.1,21.2,48.1z"/>
</g>
<g>
	<path class="st1" d="M49.4,35.4c-0.2,0-0.4-0.1-0.4-0.3c-1.1-2.2-1.3-4.8-1.5-7.4c-0.4-8.7-2.5-12.2-4.1-13.7
		c-1.1-0.9-2.3-1.3-3.7-1.2c-1.8,0.2-2.5,1.2-3.4,2.4c-0.5,0.6-0.9,1.3-1.6,1.9c-0.2,0.2-0.5,0.2-0.7,0c-0.2-0.2-0.2-0.5,0-0.7
		c0.6-0.5,1-1.1,1.4-1.7c0.9-1.3,1.9-2.6,4.2-2.8c1.7-0.1,3.2,0.3,4.5,1.4c2.6,2.3,4.1,7.1,4.5,14.4c0.1,2.5,0.3,4.9,1.4,7
		c0.1,0.2,0,0.5-0.2,0.7C49.6,35.4,49.5,35.4,49.4,35.4z"/>
</g>
<g>
	<path class="st1" d="M24.7,32.4c-0.3,0-0.5-0.2-0.5-0.5c0-0.9-0.3-2.3-0.6-3.9c-0.8-4.2-2-10,0.3-13.1c0.9-1.2,2.2-1.9,3.9-2.1
		c2.6-0.3,4.3,1.1,6,2.8c1.3,1.3,2.7,1.8,4.4,1.6c0.3,0,0.5,0.2,0.6,0.4c0,0.3-0.2,0.5-0.4,0.6c-2,0.3-3.7-0.3-5.2-1.9
		c-1.7-1.7-3-2.8-5.2-2.6c-1.4,0.2-2.5,0.7-3.2,1.7c-2,2.8-0.9,8.3-0.1,12.3c0.3,1.7,0.6,3.2,0.6,4.1C25.2,32.2,24.9,32.4,24.7,32.4
		z"/>
</g>
<g>
	<path class="st1" d="M33.1,52.6c-1.6,0-2.5-0.8-2.8-2.6c-0.4-2.5-1.1-5.4-1.6-5.8c-0.2-0.2-0.2-0.5-0.1-0.7
		c0.2-0.2,0.5-0.2,0.7-0.1c1,0.8,1.7,5.1,1.9,6.4c0.2,1.4,0.9,1.7,1.8,1.7c1,0,1.8-0.8,1.8-1.9c0-0.2,0-0.5-0.1-0.7
		c-0.2,0.8-0.9,1.2-1.5,1.3c-0.8,0.1-1.7-0.6-1.7-1.7c-0.1-1.2,0.4-2.4,0.8-3.5c0.1-0.2,0.2-0.5,0.3-0.7l0.1-0.4
		c0.8-2.2,1.6-4.7,1-7c-0.1-0.3,0.1-0.5,0.4-0.6c0.3-0.1,0.5,0.1,0.6,0.4c0.7,2.6-0.3,5.2-1.1,7.6l-0.1,0.4
		c-0.1,0.2-0.2,0.5-0.3,0.7c-0.4,1-0.8,2.1-0.7,3.1c0,0.5,0.4,0.8,0.7,0.7c0.3,0,0.6-0.2,0.6-0.8c0-0.2-0.1-0.5-0.2-0.6
		c-0.1-0.2-0.1-0.4,0-0.6C33.8,47,34,47,34.2,47c1,0.5,1.7,1.5,1.7,2.6C35.9,51.3,34.6,52.6,33.1,52.6z"/>
</g>
<g>
	<path class="st1" d="M21.3,45.7c-0.1,0-0.1,0-0.2,0c-0.3-0.1-0.4-0.4-0.3-0.7c2.8-6.3,11.8-9,12.2-9.1c0.3-0.1,0.5,0.1,0.6,0.3
		c0.1,0.3-0.1,0.5-0.3,0.6c-0.1,0-9,2.7-11.6,8.6C21.7,45.6,21.5,45.7,21.3,45.7z"/>
</g>
<g>
	<path class="st1" d="M26.3,65.1c-0.1,0-0.3,0-0.4,0c-3.2-0.1-5.9-1.5-7.5-4c-2.3-3.7-0.8-6.4,1.2-9.7c1.5-2.5,3.3-5.6,4-10
		c0-0.3,0.3-0.5,0.6-0.4c0.3,0,0.5,0.3,0.4,0.6c-0.8,4.6-2.6,7.8-4.1,10.4c-1.9,3.3-3.2,5.5-1.2,8.7c1.4,2.2,3.8,3.5,6.7,3.6
		c3.9,0.1,8-1.9,10.3-5c0.2-0.2,0.5-0.3,0.7-0.1c0.2,0.2,0.3,0.5,0.1,0.7C34.7,63,30.4,65.1,26.3,65.1z"/>
</g>
<g>
	<path class="st1" d="M42.9,61.4c-11.6,0-12.5-10.6-12.5-10.7c0-0.3,0.2-0.5,0.5-0.5c0.3,0,0.5,0.2,0.5,0.5c0,0.4,0.8,10.3,12.3,9.7
		c0.3,0,0.5,0.2,0.5,0.5c0,0.3-0.2,0.5-0.5,0.5C43.5,61.4,43.2,61.4,42.9,61.4z"/>
</g>
<g>
	<path class="st1" d="M43.8,61.3c-0.3,0-0.5-0.2-0.5-0.5c0-0.3,0.2-0.5,0.5-0.5c2.3-0.2,4-1.1,5.1-2.8c4-6.3-1.5-20.9-1.5-21.1
		c-0.1-0.3,0-0.5,0.3-0.6c0.3-0.1,0.5,0,0.6,0.3c0.2,0.6,5.7,15.2,1.4,21.9C48.5,60,46.5,61.1,43.8,61.3
		C43.8,61.3,43.8,61.3,43.8,61.3z"/>
</g>
<g>
	<path class="st1" d="M42.4,49.2c-1.3,0-2.7-0.5-3-1.5c-0.1-0.5,0-0.9,0.4-1.1c0.5-0.4,1.4-0.2,1.8,0c0.2,0.1,0.3,0.5,0.2,0.7
		s-0.5,0.3-0.7,0.2c-0.2-0.1-0.6-0.1-0.7,0c0.1,0.4,1.1,0.9,2.3,0.8c0.4,0,1.3-0.1,1.4-0.8c0.1-1-0.8-1.9-2-3
		c-0.7-0.7-1.4-1.4-2-2.2c-0.2-0.2-0.1-0.5,0.1-0.7c0.2-0.2,0.5-0.1,0.7,0.1c0.5,0.7,1.2,1.4,1.9,2c1.3,1.3,2.5,2.4,2.3,3.9
		c-0.1,1-1,1.6-2.3,1.7C42.6,49.2,42.5,49.2,42.4,49.2z"/>
</g>
<g>
	<path class="st1" d="M44.1,46.4c-0.3,0-0.5-0.2-0.5-0.5c0-0.3,0.2-0.5,0.5-0.5c1.3-0.1,2.3-1.1,2.3-2.4c0-1.3-1.1-2.4-2.4-2.4
		c-1.1,0-2.1,0.8-2.4,1.9c-0.1,0.3-0.3,0.4-0.6,0.4c-0.3-0.1-0.4-0.3-0.4-0.6c0.3-1.6,1.7-2.7,3.4-2.7c1.9,0,3.4,1.5,3.4,3.4
		C47.3,44.8,45.9,46.3,44.1,46.4C44.1,46.4,44.1,46.4,44.1,46.4z"/>
</g>
<g>
	<path class="st1" d="M44.7,43l1-0.8c-0.3-0.6-0.9-1.1-1.7-1.1c-1,0-1.9,0.8-1.9,1.9c0,1,0.8,1.9,1.9,1.9c0.8,0,1.5-0.5,1.8-1.3
		L44.7,43z"/>
</g>
<g>
	<path class="st1" d="M39,43.6l1-0.8c-0.3-0.6-0.9-1.1-1.7-1.1c-1,0-1.9,0.8-1.9,1.9c0,1,0.8,1.9,1.9,1.9c0.8,0,1.5-0.5,1.8-1.3
		L39,43.6z"/>
</g>
<g>
	<path class="st1" d="M35.1,41.2c-0.1,0-0.1,0-0.2,0c-0.3-0.1-0.4-0.4-0.3-0.6c0.9-2.4,3.3-2.4,4.4-2c0.3,0.1,0.4,0.4,0.3,0.6
		c-0.1,0.3-0.4,0.4-0.6,0.3c-0.2-0.1-2.3-0.7-3.1,1.4C35.5,41.1,35.3,41.2,35.1,41.2z"/>
</g>
<g>
	<path class="st1" d="M45.4,39.2c-0.1,0-0.3-0.1-0.4-0.2c-1.2-1.3-3-0.2-3-0.1c-0.2,0.2-0.5,0.1-0.7-0.1c-0.2-0.2-0.1-0.5,0.1-0.7
		c0.9-0.6,3-1.3,4.4,0.3c0.2,0.2,0.2,0.5,0,0.7C45.7,39.2,45.5,39.2,45.4,39.2z"/>
</g>
<g>
	<path class="st1" d="M56.1,63.4c-2.9,0-6-1.2-8.7-3.6c-0.2-0.2-0.2-0.5-0.1-0.7c0.2-0.2,0.5-0.2,0.7-0.1c3.5,3,7.6,4,11.1,2.8
		c2.5-0.9,4.3-3,4.7-5.6c0.9-5.1-2.7-7.4-6.8-10c-3.7-2.3-7.8-5-9.4-10.1c-0.1-0.3,0.1-0.5,0.3-0.6c0.3-0.1,0.5,0.1,0.6,0.3
		c1.5,4.8,5.3,7.2,9,9.6c4.2,2.7,8.2,5.2,7.2,11c-0.5,3-2.5,5.4-5.4,6.4C58.4,63.3,57.2,63.4,56.1,63.4z"/>
</g>
<g>
	<path class="st1" d="M47.4,43.1c-0.3,0-0.6-0.1-0.8-0.2c-0.2-0.1-0.3-0.4-0.2-0.7c0.1-0.2,0.4-0.3,0.7-0.2c0.1,0.1,0.6,0.3,1.1-0.3
		c0.2-0.2,0.5-0.2,0.7-0.1c0.2,0.2,0.2,0.5,0.1,0.7C48.5,43,47.9,43.1,47.4,43.1z"/>
</g>
<g>
	<path class="st1" d="M46.6,41.6c-0.2,0-0.4,0-0.7-0.1c-0.3-0.1-0.4-0.4-0.2-0.7c0.1-0.3,0.4-0.4,0.7-0.2c0.5,0.2,0.8-0.3,0.9-0.4
		c0.1-0.2,0.4-0.3,0.7-0.2c0.2,0.1,0.4,0.4,0.2,0.7C47.8,41,47.3,41.6,46.6,41.6z"/>
</g>
<g>
	<path class="st1" d="M34.5,44.2c-0.5,0-1-0.2-1.5-0.8c-0.2-0.2-0.1-0.5,0.1-0.7c0.2-0.2,0.5-0.1,0.7,0.1c0.5,0.6,1,0.4,1.1,0.3
		c0.2-0.1,0.5,0,0.7,0.2c0.1,0.2,0,0.5-0.2,0.7C35.1,44.1,34.8,44.2,34.5,44.2z"/>
</g>
<g>
	<path class="st1" d="M35.3,42.6c-0.7,0-1.3-0.6-1.5-1.1c-0.1-0.2,0-0.5,0.2-0.7c0.2-0.1,0.5,0,0.7,0.2l0,0c0.1,0.2,0.4,0.7,0.9,0.4
		c0.3-0.1,0.5,0,0.7,0.2c0.1,0.3,0,0.5-0.2,0.7C35.8,42.6,35.5,42.6,35.3,42.6z"/>
</g>
<g>
	<path class="st1" d="M38.2,47.1c-1.9,0-3.4-1.5-3.4-3.4c0-1.9,1.5-3.4,3.4-3.4s3.4,1.5,3.4,3.4C41.6,45.6,40.1,47.1,38.2,47.1z
		 M38.2,41.3c-1.3,0-2.4,1.1-2.4,2.4c0,1.3,1.1,2.4,2.4,2.4s2.4-1.1,2.4-2.4C40.6,42.4,39.5,41.3,38.2,41.3z"/>
</g>
<g>
	<path class="st1" d="M43.3,57.3c-1.6,0-3.5-0.8-4-4.1c-0.1-0.9,0-2.2,0.6-2.9c0.3-0.4,0.7-0.6,1.2-0.6c0.8,0,1.4,0.3,1.7,0.7
		c0.3-0.5,0.8-1,1.5-1.1c1.8,0,2.3,1.8,2.4,2.8c0,0,0,0,0,0c0,0.4,0.2,2.8-1,4.2c-0.5,0.6-1.3,1-2.2,1.1
		C43.6,57.2,43.4,57.3,43.3,57.3z M41.2,50.5C41.2,50.5,41.2,50.5,41.2,50.5c-0.2,0-0.4,0.1-0.5,0.3c-0.4,0.5-0.5,1.5-0.4,2.2
		c0.3,2.3,1.4,3.4,3.3,3.3c0.6,0,1.1-0.3,1.4-0.7c1-1.2,0.7-3.5,0.7-3.5c0,0,0,0,0-0.1c0-0.3-0.2-1.8-1.3-1.8c0,0,0,0,0,0
		c-0.7,0.1-1,1.2-1,1.2c-0.1,0.2-0.2,0.3-0.4,0.4c-0.2,0-0.4-0.1-0.5-0.3C42.5,51.4,42.1,50.5,41.2,50.5z"/>
</g>
<g>
	<path class="st1" d="M40,52.4c-0.3,0-0.5-0.2-0.5-0.5s0.2-0.5,0.5-0.5c0,0,4.1,0,5.7-0.8c0.2-0.1,0.5,0,0.7,0.2
		c0.1,0.2,0,0.5-0.2,0.7C44.3,52.4,40.2,52.4,40,52.4z"/>
</g>
<g>
	<path class="st1" d="M42.7,55c-0.7,0-1.4-0.2-1.9-0.6c-1.1-0.9-1.3-2.4-1.3-2.5c0-0.3,0.2-0.5,0.4-0.6c0.3,0,0.5,0.2,0.6,0.4
		c0,0,0.2,1.2,1,1.8c0.4,0.3,1,0.5,1.7,0.4c1.9-0.3,2.2-2.1,2.2-2.9c0-0.3,0.2-0.5,0.5-0.5c0.3,0,0.5,0.2,0.5,0.5
		c-0.1,2.1-1.2,3.6-3.1,3.9C43.1,55,42.9,55,42.7,55z"/>
</g>
<g>
	<path class="st1" d="M42.4,54.9c-0.3,0-0.5-0.2-0.5-0.5l-0.3-2.5c0-0.3,0.2-0.5,0.4-0.5c0.3,0,0.5,0.2,0.5,0.4l0.3,2.5
		C42.9,54.6,42.7,54.8,42.4,54.9C42.4,54.9,42.4,54.9,42.4,54.9z"/>
</g>
<g>
	<path class="st1" d="M44.4,54.5c-0.3,0-0.5-0.2-0.5-0.5l-0.2-2.4c0-0.3,0.2-0.5,0.5-0.5c0.3,0,0.5,0.2,0.5,0.5l0.2,2.4
		C44.9,54.2,44.7,54.5,44.4,54.5C44.4,54.5,44.4,54.5,44.4,54.5z"/>
</g>
<g>
	<path class="st1" d="M39.9,35.6c-0.2,0-0.4-0.1-0.5-0.4c-1.4-5.3-1.9-5.7-7.4-5.7c-0.2,0-0.5-0.2-0.5-0.4s0.1-0.5,0.4-0.5
		c5.3-1.4,5.7-1.9,5.7-7.4c0-0.2,0.2-0.5,0.4-0.5c0.2,0,0.5,0.1,0.5,0.4c1.4,5.3,1.9,5.7,7.4,5.7c0.2,0,0.5,0.2,0.5,0.4
		s-0.1,0.5-0.4,0.5c-5.3,1.4-5.7,1.9-5.7,7.4C40.4,35.4,40.2,35.6,39.9,35.6C39.9,35.6,39.9,35.6,39.9,35.6z M34.9,28.6
		c2.6,0.3,3.7,1.1,4.6,3.6c0.3-2.6,1.1-3.7,3.6-4.6c-2.6-0.3-3.7-1.1-4.6-3.6C38.2,26.6,37.4,27.7,34.9,28.6z"/>
</g>
</svg>
