<svg xmlns="http://www.w3.org/2000/svg" xml:space="preserve" id="Layer_1" x="0" y="0" viewBox="0 0 80 80"><style>.st0{fill:#ccf7ff}.st1{fill:#4ba6a6}.st2{fill:#002140}.st3{fill:#50eef6}</style><path d="M0 0h80v80H0z" class="st0"/><path d="M15.5 36.3s-1.6 3.9-4.3 4.2c0 0 3.7 1.6 4 4 0 0 1.5-3.5 4.4-3.9.1 0-3.8-.9-4.1-4.3M63.9 27s-1.6 3.9-4.3 4.2c0 0 3.7 1.6 4 4 0 0 1.5-3.5 4.4-3.9 0 0-3.9-.9-4.1-4.3" class="st1"/><path d="M39.9 72.4c-18 0-32.7-14.7-32.7-32.7S21.9 7 39.9 7s32.7 14.7 32.7 32.7c0 18.1-14.7 32.7-32.7 32.7m0-64.4C22.4 8 8.2 22.3 8.2 39.7c0 17.5 14.2 31.7 31.7 31.7s31.7-14.2 31.7-31.7C71.6 22.3 57.4 8 39.9 8" class="st2"/><path d="M63.8 36.3c-.2 0-.4-.2-.5-.4-.8-2.9-1.3-3.4-4.2-4.2-.2-.1-.4-.3-.4-.5s.2-.4.4-.5c2.9-.8 3.4-1.3 4.2-4.2.1-.2.3-.4.5-.4s.4.2.5.4c.8 2.9 1.3 3.4 4.2 4.2.2.1.4.3.4.5s-.2.4-.4.5c-2.9.8-3.4 1.3-4.2 4.2-.1.3-.3.4-.5.4m-2.9-5c1.5.6 2.3 1.3 2.9 2.9.6-1.5 1.3-2.3 2.9-2.9-1.5-.6-2.3-1.3-2.9-2.9-.6 1.6-1.3 2.3-2.9 2.9M15.2 45.8c-.2 0-.4-.2-.5-.4-.8-2.9-1.3-3.4-4.2-4.2-.2-.1-.4-.3-.4-.5s.2-.4.4-.5c2.9-.8 3.4-1.3 4.2-4.2.1-.4.9-.4 1 0 .8 2.9 1.3 3.4 4.2 4.2.2.1.4.3.4.5s-.2.4-.4.5c-2.9.8-3.4 1.3-4.2 4.2-.1.3-.3.4-.5.4m-2.9-5c1.5.6 2.3 1.3 2.9 2.9.6-1.5 1.3-2.3 2.9-2.9-1.5-.6-2.3-1.3-2.9-2.9-.6 1.6-1.3 2.3-2.9 2.9" class="st2"/><path d="M47.1 22.7s-24.4 4.5-24.9 20.1c0 0-1.8 2.2-1.6 5.4.1 3.2 1.8 8.2 5 8.2 2 0 3.5-2.1 3.5-2.1l6.1 7s6 5.9 10.9 5.7c3.9.1 5.7-5.1 5.7-5.1s5.5-10.2 5.9-14.8 2.7-20.8-10.6-24.4" class="st1"/><path d="M34 24.8s3.7-2.3 6.1-2.1c2.3.2 4.2 1.1 4.2 1.1s2.8-2.1 2.3-6.5c-.4-4.4-3.4-7-8.1-6.9s-8.1 3.1-8 7.3c.3 4.3 3.5 7.1 3.5 7.1" class="st2"/><path d="M46.7 22.5c-.9-.1-16.1-3-21.4 3.8-5.3 6.7-4 13-3.5 16.2l.4 1.1s2-2.3 4.2-2.2 4.2 3.1 3.9 5.7c0 0 5.7-3.2 6.7-7.4 1.1-4.2.9-7.4.9-7.4s10.6-4 8.8-9.8" class="st2"/><path d="M46.3 47.8c2.5 0 4.5-2 4.5-4.5s-2-4.5-4.5-4.5-4.5 2-4.5 4.5 2 4.5 4.5 4.5" class="st0"/><path d="M54.9 47.6c2.5 0 4.5-2 4.5-4.5s-2-4.5-4.5-4.5-4.5 2-4.5 4.5c.1 2.5 2.1 4.5 4.5 4.5" class="st0"/><path d="M44.9 56.6s3.8.4 4.1.4c.3-.1 3.8-1.1 4.1-1.1.8-.1 2.4.1 2.2 1.3-.3 1.2-.9 1.9-.9 1.9s-.6 2.8-2.4 2.7c-1.9-.1-3-.2-3.6-1.2-.8-1-3.5-4-3.5-4" class="st3"/><path d="M46.5 67.7h-.2C37 67.4 29 55.1 28.7 54.6c-.1-.2-.1-.5.2-.7.2-.2.5-.1.7.2.1.1 8.1 12.4 16.9 12.7 1.7.1 3.7-2.8 5.1-5 .1-.2.5-.3.7-.2s.3.5.2.7c-1.8 2.7-3.9 5.4-6 5.4m8.3-11.4h-.2c-.3-.1-.4-.4-.3-.6.7-2 2.7-7.4 2.8-8.7 0-.3.3-.5.5-.5.3 0 .5.3.5.5-.1 1.7-2.7 8.6-2.8 8.9s-.3.4-.5.4m-24.7-8.1c-.2 0-.3-.1-.4-.2-.2-.2-.1-.5.1-.7.1-.1 9.5-7.3 7.5-14.7-.1-.3.1-.5.3-.6.1 0 8.7-2.9 8.9-9.4 0-.1.1-.3.2-.4s.3-.1.4-.1 11.5 2.2 11.4 17.7c0 .3-.2.5-.5.5s-.5-.2-.5-.5c.1-12.8-7.8-15.9-10-16.5-.6 6-7.3 8.9-9.1 9.6 1.7 7.8-7.6 15-8 15.3-.1-.1-.2 0-.3 0" class="st2"/><path d="M25.8 57c-1.1 0-2.3-.6-3.3-1.9-.2-.2-.2-.5.1-.7.2-.2.5-.2.7.1.6.7 1.6 1.6 2.7 1.5.9-.1 1.8-.8 2.6-2.2.1-.2.4-.3.7-.2.2.1.3.4.2.7-1 1.7-2.1 2.5-3.4 2.7zm4.3-8.8c-.3 0-.5-.3-.5-.5 0 0 .3-3.4-1.2-5q-.75-.75-1.8-.9c-1.7-.1-3.1.6-4.2 1.9-.2.2-.5.3-.7.1s-.3-.5-.1-.7c1.3-1.6 3-2.3 5-2.2 1 .1 1.9.5 2.5 1.2 1.7 2 1.4 5.6 1.4 5.7.1.2-.1.4-.4.4M43.8 58c-.3 0-.5-.3-.5-.5.1-1.6 1-3.2 2.3-4.2.2-.2.5-.1.7.1s.1.5-.1.7c-1.1.8-1.8 2.1-1.9 3.5 0 .2-.3.4-.5.4" class="st2"/><path d="M54.1 59.5c-.2 0-.3-.1-.4-.3s0-.5.2-.7c.6-.3.9-.9.9-1.2 0-.5-.4-1-1-1.1-.5-.1-1.1 0-1.7.2-.2.1-.5.2-.7.3-.4.2-.8.4-1.2.5-1.7.6-5.3-.6-5.7-.7-.3-.1-.4-.4-.3-.6.1-.3.4-.4.6-.3 1 .3 3.9 1.1 5.1.7.4-.1.7-.3 1.1-.4.3-.1.5-.2.8-.4.9-.3 1.7-.4 2.3-.3 1.1.3 1.9 1.2 1.8 2.2-.1.6-.5 1.5-1.4 2-.2.1-.3.1-.4.1" class="st2"/><path d="M51.4 62.4q-.75 0-1.5-.3c-1.1-.4-1.8-1.3-2.4-2l-.2-.2c-.9-1.1-2.1-2.2-3.3-3.1-.2-.2-.3-.5-.1-.7s.5-.3.7-.1c1.3 1 2.5 2.1 3.5 3.3l.2.2c.6.7 1.1 1.4 2 1.7 1 .4 2.3.2 3-.4.5-.4.7-1 .6-1.5-.1-.3.1-.5.4-.6s.5.1.6.4c.2.9-.1 1.9-.9 2.5-.8.5-1.7.8-2.6.8" class="st2"/><path d="M54.1 59.5c-.1 0-2.8 0-4.3-.4-1.6-.4-3.1-1.1-4.1-2.1-.2-.2-.2-.5 0-.7s.5-.2.7 0c.9.9 2.2 1.5 3.7 1.9 1.4.3 4 .3 4 .3.3 0 .5.2.5.5s-.2.5-.5.5m-2.4-6.2q-1.35 0-2.7-.3c-.7-.2-1.5-.4-2-1.1-.3-.4-.4-1-.2-1.5.1-.4.4-.7.8-.9q.45-.15.6.3t-.3.6c-.1 0-.2.2-.2.3-.1.2 0 .5.1.7.3.4.9.6 1.4.7 1 .2 2.1.3 3.1.3.4 0 .8-.1 1-.3.2-.3.1-.8-.1-1.1s-.5-.5-.8-.8c-.2-.1-.3-.3-.5-.4-1.1-1-1.7-2.4-1.8-3.8 0-.3.2-.5.5-.5s.5.2.5.5c.1 1.2.6 2.3 1.4 3.1l.4.4c.3.3.7.6 1 1 .5.7.7 1.7.1 2.3-.4.5-1.1.6-1.7.7-.1-.2-.4-.2-.6-.2" class="st2"/><path d="M46.4 48.5c-2.8 0-5.1-2.3-5.1-5.1s2.3-5.1 5.1-5.1 5.1 2.3 5.1 5.1c.1 2.8-2.2 5.1-5.1 5.1m0-9.3c-2.3 0-4.1 1.9-4.1 4.1s1.9 4.1 4.1 4.1 4.1-1.9 4.1-4.1-1.8-4.1-4.1-4.1" class="st2"/><path d="M54.9 48.3c-1.9 0-3.6-1-4.5-2.7-.1-.2 0-.5.2-.7.2-.1.5 0 .7.2.7 1.3 2.1 2.2 3.6 2.2 2.3 0 4.1-1.9 4.1-4.1S57.2 39 54.9 39c-1.6 0-3 .9-3.7 2.3-.1.2-.4.3-.7.2-.2-.1-.3-.4-.2-.7.9-1.7 2.6-2.8 4.6-2.8 2.8 0 5.1 2.3 5.1 5.1 0 2.9-2.3 5.2-5.1 5.2m-8.5-7.9c-1 0-1.9.6-2.4 1.4l2.4 1.5-2.6 1c.4 1.1 1.4 1.9 2.6 1.9 1.5 0 2.8-1.3 2.8-2.9s-1.3-2.9-2.8-2.9" class="st2"/><path d="M54.6 40.7c-1 0-1.9.6-2.4 1.4l2.4 1.5-2.6 1c.4 1.1 1.4 1.9 2.6 1.9 1.5 0 2.8-1.3 2.8-2.9-.1-1.6-1.3-2.9-2.8-2.9m-14-1.7c-.1 0-.2 0-.2-.1-.2-.1-.3-.4-.2-.7.5-1 1.2-2.1 2.1-2.9 1.1-1 2.5-1.3 3.7-.9.3.1.4.4.3.6-.1.3-.4.4-.6.3-.8-.3-1.9 0-2.7.7s-1.4 1.7-1.9 2.7c-.2.2-.3.3-.5.3m17.1-2.2c-.1 0-.2 0-.3-.1-1.2-1.1-2.6-2.1-3.9-1.8-.3.1-.5-.1-.6-.4s.1-.5.4-.6c1.8-.5 3.5.7 4.9 2 .2.2.2.5 0 .7-.3.2-.4.2-.5.2m-35.6 7c-.2 0-.4-.1-.5-.3 0-.1-3.8-10.6 3.5-17.7s21.4-3.8 22-3.7c.3.1.4.3.4.6-.1.3-.3.4-.6.4-.1 0-14.2-3.3-21.1 3.4-6.8 6.7-3.3 16.5-3.2 16.6q.15.45-.3.6c-.1.1-.1.1-.2.1" class="st2"/><path d="M31.9 22.9c-.2 0-.3-.1-.4-.2-1-1.4-1.5-3-1.5-4.7 0-4.6 3.9-8.3 8.6-8.3s8.6 3.7 8.6 8.3c0 1.6-.5 3.1-1.3 4.4-.2.2-.5.3-.7.1s-.3-.5-.1-.7c.8-1.2 1.2-2.5 1.2-3.8 0-4-3.4-7.3-7.6-7.3-4.3.1-7.7 3.3-7.7 7.3 0 1.5.5 2.9 1.3 4.1.2.2.1.5-.1.7 0 .1-.2.1-.3.1m7.6 21.4c-.9 0-1.7-.3-2.2-.9-.2-.2-.2-.5.1-.7.2-.2.5-.2.7.1.3.4.9.6 1.5.6.5 0 1.1-.2 1.7-.6.2-.1.5-.1.7.2.1.2.1.5-.2.7-.8.5-1.5.7-2.2.7 0-.1-.1-.1-.1-.1m2.1-2.4c-.8 0-1.5-.3-2.1-.8-.2-.2-.2-.5 0-.7s.5-.2.7 0c.4.4 1 .6 1.6.5.3 0 .5.2.5.5s-.2.5-.5.5zm18.2-.5q-.6 0-1.2-.3c-.2-.1-.3-.4-.2-.7.1-.2.4-.3.7-.2.6.4 1.5.2 1.9-.4.2-.2.5-.3.7-.1s.3.5.1.7c-.4.6-1.2 1-2 1m1 3c-.6 0-1.1-.2-1.6-.5-.2-.2-.3-.5-.1-.7s.5-.3.7-.1c.6.4 1.6.4 2.2-.1.2-.2.5-.1.7.1s.1.5-.1.7c-.5.4-1.2.6-1.8.6m-34.1 6c-.1 0-.2 0-.3-.1-.7-.4-1.7-.5-2.4-.1-.3.1-.5 0-.7-.2-.1-.2 0-.5.2-.7 1.1-.5 2.4-.4 3.4.2.2.1.3.5.2.7-.1.1-.3.2-.4.2" class="st2"/><path d="M25.1 49.6c-.2 0-.4-.2-.5-.4-.2-1.1-.2-2.2-.1-3.3.1-.6.2-1.4.8-1.8.2-.2.5-.1.7.1s.1.5-.1.7c-.3.2-.4.7-.4 1.1-.1 1-.1 2 .1 3 .1.3-.1.6-.5.6q.15 0 0 0m12.3-27.5c-.1 0-.3-.1-.4-.2-1-1.3-1.5-2.9-1.4-4.5 0-.3.3-.5.5-.5.3 0 .5.3.5.5-.1 1.3.3 2.7 1.2 3.8.2.2.1.5-.1.7-.1.2-.2.2-.3.2m4.4.1h-.1c-.3-.1-.4-.3-.4-.6.2-.7.3-1.5.2-2.3 0-.3.2-.5.4-.6.3 0 .5.2.6.4.1.9 0 1.8-.2 2.7 0 .3-.2.4-.5.4M37 27.9c-.2 0-.4-.1-.4-.3-.1-.2 0-.5.2-.7 1.8-.9 3-2.9 3-4.9 0-.3.2-.5.5-.5s.5.2.5.5c0 2.4-1.4 4.7-3.5 5.8-.1.1-.2.1-.3.1m-7.5.7c-.2 0-.4-.1-.4-.3-.1-.2 0-.5.2-.7 1.8-.9 3-2.9 3-4.9 0-.3.2-.5.5-.5s.5.2.5.5c0 2.4-1.4 4.7-3.5 5.8-.2 0-.2.1-.3.1m-6.7 26.7c-.1 0-.3-.1-.4-.2C18.3 49.8 20 45 21.7 43c.2-.2.5-.2.7-.1.2.2.2.5.1.7-1.5 1.8-3 6.1.7 10.9.2.2.1.5-.1.7-.1.1-.2.1-.3.1" class="st2"/></svg>