<svg xmlns="http://www.w3.org/2000/svg" xml:space="preserve" id="Layer_1" x="0" y="0" viewBox="0 0 80 80"><style>.st0{fill:#ff7101}.st1{fill:#002140}.st2{fill:#ffc68c}.st3{fill:#bf3013}</style><path d="M0 0h80v80H0z" class="st0"/><path d="M40.2 72.4c-18 0-32.7-14.7-32.7-32.7S22.2 7 40.2 7s32.7 14.7 32.7 32.7c0 18.1-14.7 32.7-32.7 32.7m0-64.4C22.7 8 8.5 22.3 8.5 39.7c0 17.5 14.2 31.7 31.7 31.7s31.7-14.2 31.7-31.7C71.9 22.3 57.7 8 40.2 8" class="st1"/><path d="M39.5 59.1s7.9-2.8 8.6-8 .1-8.9.1-8.9 3.6.9 4.2-1.7c.6-2.7-.9-3.7-2.1-3.7s-2 .1-2 .1l.9-5.6H28.3V48s1.2 11.1 6.8 11.5" class="st0"/><path d="M32.2 40.8c1.7 0 3.1-1.3 3.1-2.9S33.9 35 32.2 35s-3.1 1.3-3.1 2.9 1.4 2.9 3.1 2.9m6.9.7c1.9 0 3.4-1.4 3.4-3.1s-1.5-3.1-3.4-3.1-3.4 1.4-3.4 3.1 1.5 3.1 3.4 3.1" class="st2"/><path d="m30.3 35.5 5.2 1.5s-.3-2.2-2.1-2.5c-1.9-.3-3.1 1-3.1 1m6.1.7s3.4-.5 6.4 1.7c0 0 .2-3.1-3.2-3.4-2.1-.3-3 1.3-3.2 1.7m-4.2 14.4s2.8 1 3.8.9 3.7-.9 3.7-.9-.4-2.3-1.5-2.3c-1 0-2.4.9-2.4.9s-1.1-1.1-2-.9c-.8.2-1.5 1.4-1.6 2.3m.4 2.7s1.3 3.8 4 3.8 3.3-4.5 3.3-4.5-2.5 2.6-3.9 2-3.4-1.3-3.4-1.3" class="st3"/><path d="M40.1 50.8s-3.4 1.9-7.5-.1l-.3 2.1s1.6 1.9 3.6 1.7 4.2-2.1 4.2-2.1z" class="st2"/><path d="m43.8 26.9.7.3H57s-.3-1.8-.2-3.1 1.1-6.4-5.7-8.7-11.6 3.4-11.6 3.4-1.8-2.7-6.8-2.5c-4.9.2-5.5 3.9-5.7 4.5s-.8 3.4-.8 3.4 7.2-3.2 10.3-3.1c3.1.2 7.3 5.8 7.3 5.8m-15.5 4.4h-3s.7 2.1-.1 3.2-5.5 7.9-5.6 12-1.1 14 13.5 14.9c7.2-1.4-.6-3.2-.6-3.2s-4-2.1-4.2-10.3c-.2-8.1 0-16.6 0-16.6m28.6 0h-7.8l-.9 5.6 2-.1s2.7 1.4 2.1 3.7-3.1 2.2-3.1 2.2l-1.1-.5s.9 5.7 0 7.9-2.1 5.6-3.7 6.5l-6 2.9s3.9 2 3.5 2c-.3 0 4.5.5 4.5.5s7.8 1.1 12.1-3.6c4.4-4.7 4.9-11.7 2.2-17.3s-5.5-6.2-3.8-9.8" class="st3"/><path d="M21.3 29.5s.2 1.8 2.9 1.9 34-.3 34-.3 1-.6.9-1.7-1.1-2.1-1.1-2.1H44.4s-5.9-5.8-7.9-6.1-6.5 1.1-7.2 1.5c-.7.5-7.7 3.8-8 6.8" class="st0"/><path d="M21.3 29.5s.5 1.6 2.5 1.7 34.4-.1 34.4-.1l.4-.9-36.1-.2z" class="st1"/><path d="M27.5 27.5c.1-.2.1-.4-.1-.5h-.2c-.7.1-1.3.4-1.9.7-.3.2-.5.4-.5.7 0 .2.2.3.4.4.2 0 .4 0 .6-.1.4-.2 1.4-.6 1.7-1.2m1.5-.6c.2 0 .5-.1.7-.1 1.7-.7 3.3-1.5 4.9-2.3.2-.1.4-.2.5-.4s.2-.4.1-.6c-.1-.1-.2-.2-.4-.2-.5-.1-1 .1-1.4.3-.8.4-2.5 1.2-2.5 1.2s-2.1.8-2.4 1.6c-.1.1-.1.3 0 .4s.2.1.3.2z" class="st3"/><path d="M39.8 30.3c-.2 0-.4-.1-.4-.3-1-2-3.6-1.5-3.7-1.5-.3.1-.5-.1-.6-.4s.1-.5.4-.6c.1 0 3.4-.6 4.8 2 .1.2 0 .5-.2.7-.2.1-.3.1-.3.1m-10.7 0c-.1 0-.2 0-.2-.1-.2-.1-.3-.4-.2-.7 1.4-2.6 4.6-2 4.8-2 .3.1.4.3.4.6-.1.3-.3.4-.6.4-.1 0-2.7-.5-3.7 1.5-.1.2-.3.3-.5.3" class="st1"/><path d="m46.4 27.3 7-.1s-1-3.4-.7-4.6l2.6.1s.6-1.8-.5-2.1-7.3-.5-7.3-.5-1.4-.3-2.1 1.8c-.7 2 1 5.4 1 5.4" class="st0"/><path d="M57.7 31.7H24.1c-2.2 0-3.2-1.7-3.2-1.8-.1-.2-.1-.4.1-.6.1-.2.4-.2.6-.1 1 .4 2.7.4 2.7.4h33.4c.3-.1.9-.2 1.2 0 .2.1.3.2.3.4s.2.7-1.2 1.6c-.1.1-.2.1-.3.1m-34.3-1.1c.2 0 .4.1.7.1h33.6-33.4c-.1 0-.4 0-.9-.1M49.2 43c-.9 0-1.5-.5-2-.9-.2-.2-.5-.4-.8-.6-.2-.1-.3-.4-.2-.7s.5-.3.7-.2c.4.2.6.4.9.7.6.5 1 .8 2 .6.9-.3 1.8-1.1 1.9-1.9.2-1.2-.4-2.1-1.1-2.5-.9-.6-2.1-.5-2.9.3-.2.2-.5.2-.7-.1-.2-.2-.2-.5.1-.7 1.2-1 2.8-1.1 4.1-.4s1.9 2.1 1.6 3.5c-.2 1.2-1.3 2.4-2.7 2.7-.4.1-.7.2-.9.2m7.5-15.5c-.2 0-.4-.2-.5-.4-.2-1.1-.1-2.1.1-3.2.2-1.2.3-2.4-.1-3.5-1.5-3.6-6.2-5.3-9.9-4.8-2.6.3-5.1 1.7-6.8 3.7-.1.1-.3.2-.4.2-.2 0-.3-.1-.4-.3-1.2-2.2-4-2.4-5.5-2.4-2.6.1-5.6 1.6-6 4.7l-.4 2.8c0 .3-.3.5-.6.4-.3 0-.5-.3-.4-.6l.4-2.8c.5-3.7 3.9-5.4 6.9-5.5 1.6-.1 4.5.2 6 2.3 1.8-2 4.3-3.2 7-3.6 4-.5 9.2 1.4 10.9 5.4.6 1.3.4 2.7.2 4-.1 1-.3 2-.1 2.8.1.3-.1.5-.4.6.1.2.1.2 0 .2" class="st1"/><path d="M48 37.3q-.15 0 0 0c-.3 0-.5-.3-.5-.6.2-1.8.6-3.7 1.1-5.5.1-.3.4-.4.6-.3.3.1.4.4.3.6-.5 1.7-.9 3.5-1.1 5.3 0 .3-.2.5-.4.5M36.3 60c-2.1 0-3.9-.7-5.3-2.2-3.7-3.9-3.3-11.5-3.3-11.8V31.4c0-.3.2-.5.5-.5s.5.2.5.5v14.7c0 .1-.3 7.5 3 11.1 1.2 1.3 2.7 1.9 4.6 1.9 5.5 0 10.4-4 11.3-9.3.3-1.7.1-3.5-.1-5.3-.1-.8-.2-1.5-.2-2.3 0-.3.2-.5.5-.5s.5.2.5.5c0 .7.1 1.5.2 2.2.2 1.8.4 3.7.1 5.6-1.1 5.6-6.4 10-12.3 10" class="st1"/><path d="M31.8 62c-1.4 0-2.7-.2-2.8-.3-2.9-.7-8-3-9.7-10-1.6-6.5 1.4-11.9 4.6-16.4.4-.5.7-1 .9-1.6s.2-1.5-.1-2.1c-.1-.2 0-.5.2-.7.2-.1.5 0 .7.2.4.9.5 2 .2 2.9-.2.7-.7 1.3-1.1 1.9-3 4.3-5.9 9.5-4.4 15.6 1.5 6.2 5.7 8.5 9 9.3 1.6.3 6 .7 6.5-1.5.1-.3.4-.4.6-.3q.45.15.3.6c-.5 2-2.9 2.4-4.9 2.4m15.5.9h-1.1c-3.6-.3-7.5-2.1-8.2-3-.2-.2-.1-.5.1-.7s.5-.1.7.1c.4.6 4 2.3 7.4 2.6.1 0 12.4.9 15.1-9.9 1.5-6.1-1.4-11.3-4.4-15.6-.4-.6-.8-1.2-1.1-1.9-.4-1-.2-2.7.7-3.6.2-.2.5-.2.7 0s.2.5 0 .7c-.5.5-.8 1.7-.5 2.5.2.6.6 1.1.9 1.6 3.2 4.5 6.2 9.9 4.6 16.4-1.1 4.2-3.7 7.4-7.7 9.1-2.4 1.3-5.2 1.7-7.2 1.7" class="st1"/><path d="M48.4 40.7h-.2c-.3-.1-.4-.4-.3-.7.2-.5.7-.9 1.2-.9.5-.1 1.1.2 1.4.7.2.2.1.5-.1.7s-.5.1-.7-.1c-.1-.1-.3-.2-.5-.2s-.3.1-.4.3c0 .1-.2.2-.4.2" class="st1"/><path d="M49.1 40c-.2 0-.4-.1-.5-.3q-.3-.9 0-1.8c.1-.3.4-.4.7-.3s.4.4.3.7-.1.7 0 1 0 .5-.3.7zm-13.6 7.4c-.5 0-1-.1-1.4-.4-.9-.5-1.4-1.5-1.2-2.5v-.1c.6-1.2 1.1-2.5 1.4-3.6-.6.4-1.4.7-2.1.7-1 0-2-.4-2.7-1.1s-1.1-1.7-1-2.7c.1-1.9 1.6-3.5 3.5-3.5 1 0 2 .3 2.7 1s1.1 1.6 1.1 2.7c0 .2-.3 3.7-2 7-.1.6.2 1.1.7 1.4.9.5 2.2.2 3.6-1 .2-.2.5-.2.7.1.2.2.2.5-.1.7-1 .8-2.1 1.3-3.2 1.3M32.3 35h-.1c-1.4.1-2.5 1.2-2.6 2.6 0 .7.2 1.4.7 2 .9 1 2.6 1.1 3.7.2.3-.3.7-.6.8-.7V39c.1-.8.2-1.3.2-1.3 0-.7-.3-1.4-.8-1.9-.6-.5-1.2-.8-1.9-.8" class="st1"/><path d="M39.2 42.2c-2.3 0-4.1-1.9-4.1-4.1 0-2.3 1.9-4.1 4.1-4.1 2.3 0 4.1 1.9 4.1 4.1s-1.9 4.1-4.1 4.1m0-7.3c-1.7 0-3.1 1.4-3.1 3.1s1.4 3.1 3.1 3.1 3.1-1.4 3.1-3.1-1.4-3.1-3.1-3.1" class="st1"/><path d="M35.3 37.7c-.1 0-.2 0-.3-.1-1.9-1.7-4.4-1.5-4.9-1.3-.3.1-.5-.1-.6-.3-.1-.3.1-.5.3-.6.7-.2 3.6-.5 5.8 1.5.2.2.2.5 0 .7 0 0-.2.1-.3.1" class="st1"/><path d="M42.8 38.4c-.1 0-.2 0-.3-.1-1.2-1.2-3.3-2.3-6.3-1.2h-.1c-.3.1-.5-.1-.6-.3s.1-.5.3-.6h.1c2.8-1 5.4-.5 7.4 1.5.2.2.2.5 0 .7zM30 35.7c-.3 0-1.6-.1-2.4-1.4-.2-.2-.1-.5.1-.7s.5-.1.7.1c.6 1 1.6.9 1.6.9.3 0 .5.2.5.5.1.4-.1.6-.5.6q.15 0 0 0m-2.1 2.8c-.9 0-1.8-.5-2.7-1.4-.2-.2-.2-.5 0-.7s.5-.2.7 0c.7.7 1.4 1.1 2 1.1.4 0 .7-.2.7-.3.2-.2.5-.2.7 0s.2.5 0 .7c0 0-.5.5-1.4.6m15-2c-.3 0-.6 0-.9-.1s-.4-.4-.3-.6c.1-.3.4-.4.6-.3 1.4.4 1.9-.8 2-.9.1-.3.4-.4.6-.3.3.1.4.4.3.6-.2.5-1 1.6-2.3 1.6" class="st1"/><path d="M44 38.9c-.4 0-.9-.1-1.4-.4-.2-.1-.3-.5-.2-.7.2-.2.5-.3.7-.1 1 .7 1.8 0 1.8 0 .2-.2.5-.2.7 0s.2.5 0 .7c-.3.2-.9.5-1.6.5m2.2-11.4c-.2 0-.3-.1-.4-.3-1.2-2.2-1.4-4.6-.4-6.5.1-.2.4-.4.7-.2.2.1.4.4.2.7-.8 1.6-.6 3.7.4 5.6.1.2 0 .5-.2.7zm9.3-4.4c-.3 0-.5-.2-.5-.4v-.6c0-.3 0-.5-.1-.8-.1-.2-.2-.3-.3-.4h-.1c-.3 0-.5-.3-.4-.6s.3-.5.6-.4c.1 0 .3.1.4.1.4.2.7.5.8 1 .1.3.2.7.2 1v.6c-.1.3-.3.5-.6.5" class="st1"/><path d="m55.5 23.2-7.2-.3c-.3 0-.5-.2-.5-.5l-.1-.8c0-.3 0-.5-.1-.8-.1-.2-.2-.3-.3-.4-.2-.1-.4 0-.6.1q-.3.15-.6.6c-.1.2-.5.3-.7.2s-.3-.5-.2-.7c.2-.3.4-.7.9-1s1.1-.3 1.5-.1.7.5.8 1c.1.4.2.7.2 1v.3l6.7.3c.3 0 .5.2.5.5.2.4-.1.6-.3.6" class="st1"/><path d="M53.4 27.5c-.2 0-.3-.1-.4-.3-.8-1.5-1.2-3.1-1-4.6 0-.3.3-.5.6-.4.3 0 .5.3.4.6-.2 1.3.2 2.7.9 4 .1.2 0 .5-.2.7zm1.1-6.6-7.5-.4c-.3 0-.5-.3-.5-.5 0-.3.3-.5.5-.5l7.5.5c.3 0 .5.3.5.5s-.2.4-.5.4m6.5 33c-5.5-.9-7.9-6.6-8-6.9s0-.5.3-.7c.3-.1.5 0 .7.3 0 .1 2.3 5.5 7.2 6.3.3 0 .5.3.4.6s-.3.4-.6.4m-4.3 6.3h-.2c-4.5-1.8-6.1-5.7-6.2-5.9-.1-.3 0-.5.3-.7.3-.1.5 0 .7.3 0 0 1.6 3.7 5.7 5.3.3.1.4.4.3.6-.2.3-.4.4-.6.4m-7 2.4c-.2 0-.3-.1-.4-.2-1.5-2.3-1.3-3.9-1.3-4 0-.3.3-.5.6-.4.3 0 .5.3.4.6 0 0-.2 1.4 1.1 3.3.2.2.1.5-.1.7-.1-.1-.2 0-.3 0M19.6 50.2c-.1 0-.3-.1-.4-.2-.2-.2-.1-.5.1-.7 2.4-1.9 3.5-4.6 3.5-4.6.1-.3.4-.4.7-.3s.4.4.3.7c-.1.1-1.3 3-3.8 5-.2.1-.3.1-.4.1m2.6 6.9c-.2 0-.3-.1-.4-.2-.2-.2-.1-.5.1-.7 2.6-1.8 3.6-4.2 3.6-4.2.1-.3.4-.4.7-.3s.4.4.3.7c0 .1-1.2 2.7-4 4.7zm4.9 3.5c-.1 0-.2 0-.3-.1-.2-.2-.3-.5-.1-.7 1.3-1.9 1.1-3.3 1.1-3.3 0-.3.2-.5.4-.6.3 0 .5.2.6.4 0 .1.2 1.7-1.3 4-.1.2-.3.3-.4.3m23.6-34.4h-3.3c-.3 0-.5-.2-.5-.5s.2-.5.5-.5h3.3c.3 0 .5.2.5.5s-.2.5-.5.5m-.3-1.5h-3.3c-.3 0-.5-.2-.5-.5s.2-.5.5-.5h3.3c.3 0 .5.2.5.5s-.2.5-.5.5M31.5 35.6c-.7.4-1.2 1.1-1.2 1.9-.1 1.3.9 2.3 2.1 2.4.9 0 1.6-.4 2.1-1.1l-1.1-.9 1.4-.6c0-.2-.1-.3-.1-.5 0 0-.2-.7-.8-.9s-2-.1-2-.1m8.1 2.6 1.4-.6c-.1-1.1-1-1.9-2.1-2-1.3 0-2.3.9-2.4 2.2s.9 2.3 2.1 2.4c.9 0 1.6-.4 2.1-1.1z" class="st1"/><path d="M57.6 31.7H23.9c-1.2 0-2.1-.3-2.6-.9s-.5-1.4-.5-1.6c0-.7.5-1.5 1.5-2.5 3.1-2.8 10.3-6.2 14-6 2.6 0 5.5 3.1 7.7 5.8.1.1.3.2.4.2h13.3c.5 0 1 .2 1.2.6.8 1.1.8 2.5 0 3.7-.3.5-.8.7-1.3.7m-35.9-2.4s-.1.5.3.9c.3.4 1 .6 1.8.6h33.8c.2 0 .3-.1.4-.2.4-.6.8-1.6 0-2.6-.1-.1-.3-.2-.4-.2H44.4q-.75 0-1.2-.6c-1.2-1.5-4.4-5.4-7-5.4-3.5-.3-10.4 3-13.3 5.7-1 .9-1.2 1.5-1.2 1.7z" class="st1"/><path d="M58.8 30.7H24c-1.5 0-2.8-.6-2.8-.6-.3-.1-.4-.4-.2-.7.1-.3.4-.4.7-.2 0 0 1.1.5 2.4.5h34.8c.3 0 .5.2.5.5s-.3.5-.6.5M36.2 57.3c-3 0-4.5-2.9-4.7-4.9-.1-2 .4-4.4 2.2-4.6 1.1-.1 1.8.3 2.2.7.4-.4 1.2-.9 2.4-.8 2.1.3 2.1 3.6 2 4.7v.1c.2 1.2-.9 4.8-4.1 4.8q.15 0 0 0m-2.1-8.5h-.3c-1.1.1-1.4 2.2-1.3 3.5.1 1.2 1.1 3.9 3.7 3.9 2.5 0 3.2-3.1 3.2-3.6v-.2c0-3-.6-3.7-1.2-3.7-1.4-.2-1.8.7-1.8.8-.1.2-.2.3-.4.3s-.4-.1-.5-.2c.1 0-.4-.8-1.4-.8" class="st1"/><path d="M35.9 51.9c-1.5 0-2.7-.4-3.6-.8-.3-.1-.4-.4-.2-.7.1-.3.4-.4.7-.2 1.4.6 3.4 1.2 6.7 0q.45-.15.6.3t-.3.6c-1.5.6-2.8.8-3.9.8m-.1 3h-.2c-1.7-.1-3.8-2.1-3.9-2.1-.2-.2-.2-.5 0-.7s.5-.2.7 0c.5.5 2.2 1.8 3.3 1.9s3.1-1.3 3.8-1.8c.2-.2.5-.1.7.1s.1.5-.1.7c-.2.1-2.6 1.9-4.3 1.9" class="st1"/><path d="M34.3 54.3c-.3 0-.5-.2-.5-.5v-2.4c0-.3.2-.5.5-.5s.5.2.5.5v2.4c0 .3-.2.5-.5.5m2.8.1c-.3 0-.5-.2-.5-.5v-2.5c0-.3.2-.5.5-.5.3-.1.5.2.5.5v2.5c0 .3-.2.5-.5.5" class="st1"/></svg>