<svg xmlns="http://www.w3.org/2000/svg" xml:space="preserve" id="Layer_1" x="0" y="0" viewBox="0 0 80 80"><style>.st0{fill:#03d47c}.st1{fill:#008c59}.st2{fill:#002140}.st3{fill:#8eecc4}</style><path d="M0 0h80v80H0z" class="st0"/><path d="M17.2 34.9s-1.6 3.9-4.3 4.2c0 0 3.7 1.6 4 4 0 0 1.5-3.5 4.4-3.9 0 0-3.9-.9-4.1-4.3m47 8.9s-1.6 3.9-4.3 4.2c0 0 3.7 1.6 4 4 0 0 1.5-3.5 4.4-3.9.1 0-3.9-.9-4.1-4.3" class="st1"/><path d="M39.9 72.4c-18 0-32.7-14.7-32.7-32.7S21.9 7 39.9 7s32.7 14.7 32.7 32.7c0 18.1-14.7 32.7-32.7 32.7m0-64.4C22.4 8 8.2 22.3 8.2 39.7s14.2 31.7 31.7 31.7 31.7-14.2 31.7-31.7S57.4 8 39.9 8" class="st2"/><path d="M64.1 53c-.2 0-.4-.2-.5-.4-.8-2.9-1.3-3.4-4.2-4.2-.2-.1-.4-.3-.4-.5s.2-.4.4-.5c2.9-.8 3.4-1.3 4.2-4.2.1-.2.3-.4.5-.4s.4.2.5.4c.8 2.9 1.3 3.4 4.2 4.2.2.1.4.3.4.5s-.2.4-.4.5c-2.9.8-3.4 1.3-4.2 4.2-.1.3-.3.4-.5.4m-2.9-5c1.5.6 2.3 1.3 2.9 2.9.6-1.5 1.3-2.3 2.9-2.9-1.5-.6-2.3-1.3-2.9-2.9-.6 1.6-1.3 2.3-2.9 2.9m-44.4-3.6c-.2 0-.4-.2-.5-.4-.8-2.9-1.3-3.4-4.2-4.2-.2-.1-.4-.3-.4-.5s.2-.4.4-.5c2.9-.8 3.4-1.3 4.2-4.2.1-.4.9-.4 1 0 .8 2.9 1.3 3.4 4.2 4.2.2.1.4.3.4.5s-.2.4-.4.5c-2.9.8-3.4 1.3-4.2 4.2-.1.3-.3.4-.5.4m-2.8-5c1.5.6 2.3 1.3 2.9 2.9.6-1.5 1.3-2.3 2.9-2.9-1.5-.6-2.3-1.3-2.9-2.9-.7 1.5-1.4 2.3-2.9 2.9" class="st2"/><path d="m33.8 20.9 22.3 7.6s.7-4.4-5.3-7.1l.8-5.4s-.5-3.5-3.1-4.2c-2.5-.7-5.1 1.1-5.5 1.9s-2 4.7-2 4.7-5.8 0-7.2 2.5" class="st1"/><path d="M56.1 29H56c-.3-.1-.4-.4-.3-.6.8-2.7-3.4-6.5-9.3-8.3-5.5-1.7-10.9-1.2-12.2 1.1-.1.2-.4.3-.7.2-.2-.1-.3-.4-.2-.7 1.5-2.8 7.3-3.5 13.3-1.6 6.6 2.1 10.9 6.3 9.9 9.5 0 .2-.2.4-.4.4" class="st2"/><path d="M50.8 21.9s-.1 0 0 0c-.3 0-.5-.3-.5-.6l.7-4.7c.2-2.1-1.1-4-3.1-4.5-1.9-.5-4 .6-4.7 2.5l-1.4 3.7c-.1.3-.4.4-.6.3-.3-.1-.4-.4-.3-.6l1.4-3.7c.9-2.4 3.4-3.8 5.9-3.2s4.1 3 3.8 5.6l-.7 4.7c-.1.3-.3.5-.5.5" class="st2"/><path d="M30 59.8s.5 1.3 1.7 1.3 2.9.1 2.9.1l1.1.9s.9 3 3.2 2.7c2.4-.3 1.9-2.5 2.2-2.1 2.1.2 2.1-.5 2.4-2.1 0 0 1.9-.3 2.1-1.8 0 0 3.2 1.1 7.5-1 4.2-2.1 3.5-5.3 3.4-6.6s-1.7-4.5-2.3-4.9-2.1-1.7-2.1-1.7l-21.4-6.3 6.6 15c0-.2-9.6.5-7.3 6.5" class="st0"/><path d="M18.6 29.2s-.2 4.9 7.9 7.5C34.7 39.3 51 44 51 44s11.9 2.6 13.7-3.7c1.7-6.3-1.4-8-3.7-9.4 0 0-10.5-5.8-21.4-8.3-11-2.6-16.6-2.9-19.6 2-.6 1.8-1.4 3.9-1.4 4.6" class="st1"/><path d="M34.8 35.5c2.6 0 4.7-2.1 4.7-4.7s-2.1-4.7-4.7-4.7-4.7 2.1-4.7 4.7 2.1 4.7 4.7 4.7m9.5 3.2c2.6 0 4.7-2.1 4.7-4.7s-2.1-4.7-4.7-4.7-4.7 2.1-4.7 4.7 2.1 4.7 4.7 4.7" class="st3"/><path d="m32.1 42.1-1.8-3.9-14 15.7s-.4 2.7.2 3.8c.5 1.1 3 2.1 3 2.1l10.5-.1s-1-3.3.8-4.5l-9.1-.1-.7-.3zm-3.6-21.5s-4.4.5-5.9 1.5c0 0 .1 5.4 4.4 4.1 4.4-1.3 2.1-5.5 1.5-5.6m-4.6 7.8s-3.5 0-4.2 3.4c0 0 2.1 2.8 3.5 3.4 0 0 2.9-.1 3.3-2.6s-1.4-4.2-2.6-4.2M45 24.3s-5.5-2-6.4-2c-.9.1-.8 4.1 2.3 4.8 3.1.8 4.1-2.8 4.1-2.8M58.8 30l-5-2.4s-1.6 1.4-1.7 2.3.3 4 2.6 4.2c2.3.3 4.2-1.6 4.1-4.1m4.8 3.5s-2 .5-1.8 2.8S65 39 65 39s1.5-4.3-1.4-5.5m-9.3 11 3.5.3s2.3-1.8 1.8-3.5-1.8-3.1-4-2.9-2.6 2.3-2.7 2.8c-.4 1.5 1 3.2 1.4 3.3" class="st2"/><path d="M56.6 45.4c-2.8 0-5.7-.8-7.7-1.4-6.3-1.8-12.7-3.8-18.9-5.7l-1.9-.6c-5.1-1.6-8.1-3.6-9.4-6.2-.8-1.7-.8-3.6.1-5.6 3.9-9.3 16.9-5.2 24.7-2.7.9.3 1.8.6 2.6.8q5.55 1.65 11.7 4.8l.4.2c3.1 1.6 7.7 3.9 7.7 8.2 0 1.1-.3 2.3-1 3.5-1.9 3.7-5.1 4.7-8.3 4.7M28.9 21.2c-4 0-7.5 1.3-9.1 5.2-.7 1.8-.8 3.4-.1 4.8 1.1 2.3 4 4.2 8.8 5.7l1.9.6c6.2 1.9 12.5 3.9 18.8 5.7 6.1 1.7 12.1 2.5 14.9-2.8.6-1.1.9-2.1.9-3.1 0-3.6-4.1-5.7-7.2-7.3l-.4-.2c-4-2.1-7.9-3.6-11.5-4.7-.8-.2-1.7-.5-2.7-.8-4.1-1.4-9.6-3.1-14.3-3.1" class="st2"/><path d="M34.6 36.3c-3 0-5.4-2.4-5.4-5.3s2.4-5.3 5.4-5.3S40 28.1 40 31s-2.4 5.3-5.4 5.3m0-9.6c-2.4 0-4.4 1.9-4.4 4.3s2 4.3 4.4 4.3S39 33.4 39 31s-2-4.3-4.4-4.3" class="st2"/><path d="m35.2 31.2 3 .2c.1-1.7-.9-3.3-2.5-3.5-1.6-.3-3.2 1.1-3.5 3s.8 3.7 2.4 4c1 .2 1.9-.2 2.6-1zm9.1 2.7 3 .2c.1-1.7-.9-3.3-2.5-3.5-1.6-.3-3.2 1.1-3.5 3s.8 3.7 2.4 4c1 .2 1.9-.2 2.6-1z" class="st2"/><path d="M44.2 39.4c-3 0-5.4-2.4-5.4-5.3s2.4-5.3 5.4-5.3 5.4 2.4 5.4 5.3-2.4 5.3-5.4 5.3m0-9.7c-2.4 0-4.4 1.9-4.4 4.3s2 4.3 4.4 4.3 4.4-1.9 4.4-4.3-2-4.3-4.4-4.3m-7 23.8c-.2 0-.4-.1-.5-.3l-6.8-15c-.1-.3 0-.5.2-.7.3-.1.5 0 .7.2l6.8 15c.1.3 0 .5-.2.7-.1.1-.1.1-.2.1m10.9 6.1c-1.7 0-2.5-.4-2.5-.4-.3-.1-.4-.4-.2-.7.1-.2.4-.4.7-.2 0 0 .8.3 2.5.3 1.6-.1 7.7-1.3 7.7-6.3 0-4.9-4.4-7.5-4.4-7.5-.2-.1-.3-.4-.2-.7.1-.2.4-.3.7-.2.2.1 4.9 2.8 4.9 8.3 0 5.8-6.9 7.2-8.7 7.3-.2.1-.3.1-.5.1m-6.6 3.6h-.2c-.3 0-.5-.3-.5-.5 0-.3.3-.5.5-.5 0 0 1.1.1 1.6-.6.2-.2.3-.7.1-1.3-.1-.6-.7-2-3-3.1-.2-.1-.3-.4-.2-.7.1-.2.4-.3.7-.2 2.6 1.3 3.3 2.9 3.5 3.8.2.8.1 1.6-.3 2.1-.6.9-1.7 1-2.2 1" class="st2"/><path d="M39 65.5c-1.6 0-2.5-1.6-3.1-2.7l-.3-.6c-.4-.6-.7-.6-2.9-.5h-.4c-2.3.1-3.1-2.3-3.1-3.6 0-1.1.4-2.1 1.2-2.9 1.5-1.5 4.1-2.3 7.2-2.3 2.1 0 5 1.4 5.2 1.5 2.6 1.3 3.3 2.9 3.5 3.8.2.8.1 1.6-.3 2.1-.5.7-1.4 1-1.9 1-.3 0-.5-.2-.5-.4 0-.3.2-.5.4-.5.4 0 .9-.2 1.2-.6.2-.2.3-.7.1-1.3-.1-.6-.7-2-3-3.1 0 0-2.9-1.4-4.7-1.4-2.9 0-5.2.7-6.5 2-.6.7-1 1.4-.9 2.2 0 .1.1 2.7 2.1 2.6h.4c2.2-.1 3.1-.1 3.8 1 .1.2.2.4.4.7.5.9 1.2 2.2 2.2 2.2 1.2 0 1.7-.5 1.7-1.6 0-.9-1.7-2.9-3.6-3.9-.2-.1-.3-.4-.2-.7.1-.2.4-.3.7-.2 1.9 1 4.1 3.3 4.1 4.8-.1 1.5-1 2.4-2.8 2.4" class="st2"/><path d="M30.6 55.8h-8.8c-.4 0-.7-.2-.8-.5-.2-.3-.1-.7.1-1L31.7 42c.2-.2.5-.2.7-.1.2.2.2.5.1.7L22 54.8h8.6c.3 0 .5.2.5.5s-.2.5-.5.5" class="st2"/><path d="M29.9 60.5H20c-1.8 0-3.3-1-4.1-2.6-.7-1.6-.4-3.5.7-4.8l13.5-15.2c.2-.2.5-.2.7 0s.2.5 0 .7L17.4 53.7c-.9 1-1.1 2.5-.6 3.7.6 1.3 1.8 2 3.2 2h10c.3 0 .5.2.5.5s-.3.6-.6.6m28-15.3c-.2 0-.3-.1-.4-.2-.1-.2-.1-.5.2-.7.9-.5 1.4-1.4 1.4-2.4 0-1.6-1.3-2.8-2.8-2.8-1.6 0-2.8 1.3-2.8 2.8 0 .9.4 1.7 1.1 2.3.2.2.3.5.1.7s-.5.3-.7.1c-1-.7-1.5-1.8-1.5-3 0-2.1 1.7-3.8 3.8-3.8s3.8 1.7 3.8 3.8c0 1.4-.7 2.6-1.8 3.3-.2-.1-.3-.1-.4-.1m6.7-5.7c-1.9 0-3.4-1.5-3.4-3.4 0-1.5.9-2.8 2.4-3.2.3-.1.5.1.6.3.1.3-.1.5-.3.6-1 .3-1.7 1.2-1.7 2.3 0 1.3 1.1 2.4 2.4 2.4h.3c.3 0 .5.1.6.4s-.1.5-.4.6zm-9.3-4.8c-2.2 0-3.9-1.8-3.9-3.9 0-1.5.9-2.9 2.2-3.5.2-.1.5 0 .7.2.1.2 0 .5-.2.7-1 .5-1.6 1.5-1.6 2.6 0 1.6 1.3 2.9 2.9 2.9s2.9-1.3 2.9-2.9c0-.2 0-.4-.1-.6-.1-.3.1-.5.4-.6s.5.1.6.4.1.5.1.8c-.1 2.1-1.8 3.9-4 3.9m-31.8 1c-.3 0-.5-.2-.5-.5s.2-.5.5-.5c1.5-.1 2.6-1.4 2.6-2.9 0-1.6-1.3-2.9-2.9-2.9s-2.9 1.3-2.9 2.9v.4c0 .3-.2.5-.4.6-.3 0-.5-.2-.6-.4v-.6c0-2.2 1.8-3.9 3.9-3.9s3.9 1.8 3.9 3.9-1.5 3.7-3.6 3.9m2.5-8.9c-2.2 0-4-1.8-4-4 0-.2 0-.5.1-.7 0-.3.3-.5.6-.4.3 0 .5.3.4.6v.5c0 1.6 1.3 3 3 3s3-1.3 3-3c0-.6-.2-1.3-.6-1.8-.2-.2-.1-.5.1-.7s.5-.1.7.1c.5.7.8 1.5.8 2.4-.1 2.2-1.9 4-4.1 4m15.7.9c-2.2 0-4-1.8-4-4q0-.75.3-1.5c.1-.3.4-.4.7-.3s.4.4.3.7c-.1.4-.2.7-.2 1.1 0 1.6 1.3 3 3 3 1.4 0 2.6-1 2.9-2.4.1-.3.3-.5.6-.4s.4.3.4.6c-.5 1.9-2.1 3.2-4 3.2" class="st2"/><path d="M42.6 44.1 40.2 47s-.5.9 0 1.3 1.2.4 1.6 0 2.1-2.9 2.1-2.9zm2.6 1.6-2.4 2.9s-.5.9 0 1.3 1.2.4 1.6 0 2.1-2.9 2.1-2.9z" class="st3"/><path d="M44.7 49.8s-.2.9-1.3.5c-1.1-.5-1-1.8-1-1.8s-2 1.1-2.2-.2-.6-1.1.2-2c.9-.9 1.9-2.5 1.9-2.5s-2-1.5-3-1.2-2.5 1.7-2.5 2.1-.2 5.2 5.9 7 6.9-.2 7.3-1.2c.4-.9 1.2-1.9-.3-2.6s-2.8-1.1-2.8-1.1z" class="st2"/><path d="m39.9 47.2 2.5-3.3s-3.1-2.5-5-.1 1.2 5.7 1.2 5.7 4.2 3.1 7.4 3.2 4.2-2.4 4.2-2.4l-.2-1.8-3.1-1.8-2.8 3.7s-.8-.1-1.3-.2c-.5-.2-.3-1.9-.3-1.9s-1.8.7-2.2.3c-.4-.3-.4-1.4-.4-1.4" class="st2"/><path d="M46.5 53.2c-2 0-4.2-.9-5.3-1.4-4.2-2-4.8-4.8-4.9-5.2v-.1c-.2-1.8.4-3.2 1.7-3.9 1.9-.9 4 .1 5.3 1.4.6.6 1.5 1.2 2.6 1.7.4.2.7.3 1.1.5.9.4 1.9.8 2.7 1.4.6.4.9 1 1 1.8 0 1-.5 2.2-1.3 2.9s-1.8.9-2.9.9m-9.2-6.9c0 .1.4 2.6 4.3 4.5 1.2.6 5.2 2.3 7.2.6.6-.5 1-1.4 1-2.1 0-.4-.2-.8-.5-1-.8-.5-1.6-.9-2.5-1.3-.4-.2-.8-.3-1.1-.5-1.2-.6-2.2-1.2-2.9-1.9-1.1-1.1-2.8-1.9-4.2-1.2s-1.4 2.3-1.3 2.9" class="st2"/><path d="M40.9 49.4c-.5 0-.8-.2-.9-.3-.2-.1-.6-.5-.7-1.1-.1-.5.1-1 .6-1.6.9-1.2 1.9-2.6 1.9-2.6.2-.2.5-.3.7-.1s.3.5.1.7c0 .1-1 1.5-2 2.7-.3.3-.4.6-.4.9 0 .2.2.3.3.4 0 0 .2.1.4.1.3-.1.7-.3 1-.8l1.7-2.3c.2-.2.5-.3.7-.1s.3.5.1.7l-1.7 2.3c-.5.7-1.1 1.1-1.7 1.2.1-.2 0-.1-.1-.1" class="st2"/><path d="M43.5 51c-.5 0-.8-.2-.9-.3-.2-.1-.6-.5-.7-1.1-.1-.5.1-1 .6-1.6s1.1-1.5 1.8-2.4c.2-.2.5-.3.7-.1s.3.5.1.7c-.7 1-1.3 1.8-1.8 2.5-.3.3-.4.6-.4.9 0 .2.2.3.3.4 0 0 .2.1.4.1.3-.1.7-.3 1-.8l1.7-2.3c.2-.2.5-.3.7-.1s.3.5.1.7l-1.7 2.3c-.5.7-1.1 1.1-1.7 1.2 0-.1-.1-.1-.2-.1" class="st2"/></svg>