<svg xmlns="http://www.w3.org/2000/svg" xml:space="preserve" id="Layer_1" x="0" y="0" viewBox="0 0 80 80"><style>.st0{fill:#fed607}.st1{fill:#d18000}.st2{fill:#002140}.st3{fill:#ffed8f}</style><path d="M0 0h80v80H0z" class="st0"/><path d="M18.4 44.5s-1.6 3.9-4.3 4.2c0 0 3.7 1.6 4 4 0 0 1.5-3.5 4.4-3.9 0 0-3.9-.9-4.1-4.3m43.8.1s-1.6 3.9-4.3 4.2c0 0 3.7 1.6 4 4 0 0 1.5-3.5 4.4-3.9.1-.1-3.8-1-4.1-4.3" class="st1"/><path d="M39.9 72.4c-18 0-32.7-14.7-32.7-32.7S21.9 7 39.9 7s32.7 14.7 32.7 32.7c0 18.1-14.7 32.7-32.7 32.7m0-64.4C22.4 8 8.2 22.3 8.2 39.7s14.2 31.7 31.7 31.7 31.7-14.2 31.7-31.7S57.4 8 39.9 8" class="st2"/><path d="M62.1 53.8c-.2 0-.4-.2-.5-.4-.8-2.9-1.3-3.4-4.2-4.2-.2-.1-.4-.3-.4-.5s.2-.4.4-.5c2.9-.8 3.4-1.3 4.2-4.2.1-.2.3-.4.5-.4s.4.2.5.4c.8 2.9 1.3 3.4 4.2 4.2.2.1.4.3.4.5s-.2.4-.4.5c-2.9.8-3.4 1.3-4.2 4.2 0 .3-.2.4-.5.4m-2.8-5c1.5.6 2.3 1.3 2.9 2.9.6-1.5 1.3-2.3 2.9-2.9-1.5-.6-2.3-1.3-2.9-2.9-.7 1.6-1.4 2.3-2.9 2.9M18 54c-.2 0-.4-.2-.5-.4-.8-2.9-1.3-3.4-4.2-4.2-.2 0-.3-.2-.3-.4s.2-.4.4-.5c2.9-.8 3.4-1.3 4.2-4.2.1-.4.9-.4 1 0 .8 2.9 1.3 3.4 4.2 4.2.2.1.4.3.4.5s-.2.4-.4.5c-2.9.8-3.4 1.3-4.2 4.2-.2.2-.3.3-.6.3m-2.8-5c1.5.6 2.3 1.3 2.9 2.9.6-1.5 1.3-2.3 2.9-2.9-1.5-.6-2.3-1.3-2.9-2.9-.7 1.6-1.4 2.3-2.9 2.9" class="st2"/><path d="M46.7 61.1s.6-4.5.5-4.9 1.2-2.6 1.2-2.6 2.8-1.1 3.5-1.8 2.1-2.5 2-4.3 0-2.1 0-2.1 5.5-2.1 6.4-5.2 1.9-10.8-4-13.4c-4.6-1.7-7.1-1.8-7.9-3.5-.9-1.7-3.7-5-5.1-5.3-1.4-.2-3.1-.8-4.5-.4-1.4.3-3.4 1.3-4.4 2.7s-2.2 3.5-3.3 3.9-7.3 2.4-9.2 4.7-3.5 6.4-2.1 10.7 4.9 5.4 4.9 5.4 2 .4 1.9 1.3.6 4.1 3.1 5.6 3.5 2 3.3 3.9.3 5.5.6 6.2" class="st1"/><path d="m47.1 60.6-14-.9s.7 1.7 1.1 3.5c2.7 1 0 .4 0 .4s4.9.8 6.6.7 4.8-1 4.8-1z" class="st1"/><path d="M31.7 43.4c3.6 0 6.6-3.4 6.6-7.5s-2.9-7.5-6.6-7.5-6.6 3.4-6.6 7.5c0 4.2 3 7.5 6.6 7.5m17.3 0c3.6 0 6.6-3.4 6.6-7.5s-2.9-7.5-6.6-7.5c-3.6 0-6.6 3.4-6.6 7.5.1 4.2 3 7.5 6.6 7.5" class="st3"/><path d="M34.6 50.4s1.2 4.8 5.4 4.8 5.6-5.1 5.6-5.1-9.6 0-10.3-.1c-.8 0-.9.1-.7.4" class="st2"/><path d="M34.4 49.8s7.3 1.3 11.4 0c0 0 .9-3.7-1-3.9s-3.7 1.7-4.4 1.5c-.8-.2-2.3-2.1-4-1.5s-2.6 2-2 3.9" class="st3"/><path d="M34.7 63.7c-.1 0-.2 0-.3-.1-2.1-1.5-1.9-4.8-1.9-6.9 0-.7.1-1.5 0-1.7-.4-.8-1.3-1.4-2.3-2.1-2-1.4-4.6-3.2-4.2-7-.2-.1-.5-.2-.7-.2-2-.6-6.2-1.9-6.2-9.8 0-8.1 6.7-10.4 10.4-11.6.8-.3 1.6-.5 1.9-.7.6-.4 1.1-1.1 1.6-2 1.2-1.9 2.8-4.6 7.4-4.6s6.6 2.9 8 5c.6.9 1.1 1.7 1.7 2 .4.2 1.1.4 1.9.6 3.4 1 9.2 2.6 9.8 9.7.7 8.4-4.8 10.9-7.1 11.5.6 5.1-2 6.5-4.1 7.5-.9.5-1.8.9-2.2 1.6-.3.4-.3 1.5-.4 2.5-.1 2-.2 4.5-1.8 5.9-.2.2-.5.2-.7 0s-.2-.5 0-.7c1.2-1.2 1.4-3.4 1.4-5.2.1-1.3.1-2.4.6-3 .6-.9 1.6-1.4 2.6-1.9 2.1-1.1 4.2-2.2 3.6-7 0-.3.1-.5.4-.6 2.3-.5 7.5-2.6 6.8-10.6-.6-6.4-5.7-7.8-9.1-8.8-.9-.3-1.6-.5-2.1-.7-.8-.4-1.4-1.3-2-2.3-1.4-2-3.1-4.6-7.1-4.6s-5.4 2.2-6.5 4.1c-.6 1-1.1 1.9-2 2.3-.5.3-1.2.5-2.1.8-3.6 1.2-9.7 3.2-9.7 10.6 0 7.2 3.6 8.3 5.5 8.9.6.2 1.1.3 1.3.6.1.1.1.2.1.4-.4 3.4 1.7 4.9 3.8 6.3 1.1.8 2.2 1.5 2.6 2.5.2.4.2 1 .2 2.2-.1 2-.2 4.9 1.5 6.1.2.2.3.5.1.7-.4.3-.6.3-.7.3" class="st2"/><path d="M31.6 44.1c-3.9 0-7.1-3.6-7.1-8s3.2-8 7.1-8 7.1 3.6 7.1 8-3.2 8-7.1 8m0-15.1c-3.4 0-6.1 3.2-6.1 7 0 3.9 2.7 7 6.1 7s6.1-3.2 6.1-7-2.7-7-6.1-7" class="st2"/><path d="m33.2 36.2 2.8-1.9c-.6-2.2-2.4-3.8-4.5-3.8-2.6 0-4.7 2.4-4.7 5.3s2.1 5.3 4.7 5.3c1.9 0 3.5-1.3 4.2-3.1zM49 44.1c-3.9 0-7.1-3.6-7.1-8s3.2-8 7.1-8 7.1 3.6 7.1 8c-.1 4.4-3.2 8-7.1 8M49 29c-3.4 0-6.1 3.2-6.1 7 0 3.9 2.7 7 6.1 7s6.1-3.2 6.1-7c-.1-3.8-2.8-7-6.1-7" class="st2"/><path d="m50.9 36.2 2.8-1.9c-.6-2.2-2.4-3.8-4.5-3.8-2.6 0-4.7 2.4-4.7 5.3s2.1 5.3 4.7 5.3c1.9 0 3.5-1.3 4.2-3.1zM40.1 55.8c-2.7 0-4.8-2.3-5.6-4.2-.9-2.1-.9-4.1.1-5.3 1.7-2 3.4-.8 4.5-.1.4.3.9.6 1.1.6.3 0 .8-.3 1.3-.6 1.2-.7 3.1-1.8 4.5-.2.9 1.1.8 3.2-.3 5.3-1 2.3-3 4.5-5.6 4.5m-3.5-9.5c-.4 0-.9.2-1.3.7-.8.9-.7 2.5 0 4.2.8 1.7 2.5 3.6 4.7 3.6s3.9-2 4.8-3.8c.8-1.7 1-3.5.4-4.2-.8-1-1.8-.5-3.2.4-.7.4-1.3.8-1.9.8s-1.1-.4-1.7-.8c-.7-.6-1.2-.9-1.8-.9" class="st2"/><path d="M40.3 50.9c-3.3 0-5.7-.4-5.8-.4-.3 0-.5-.3-.4-.6s.3-.5.6-.4c.1 0 5.3.9 10.8 0 .3 0 .5.1.6.4 0 .3-.1.5-.4.6-2 .3-3.8.4-5.4.4" class="st2"/><path d="M36.9 50.7c-.2 0-.5-.2-.5-.4-.2-1.1 0-4 0-4.2 0-.3.3-.5.5-.5.3 0 .5.2.5.5 0 0-.1 3 0 4 0 .3-.1.5-.5.6.1 0 0 0 0 0m6.4 0q-.15 0 0 0c-.3 0-.5-.3-.5-.6.3-2.1 0-3.9 0-3.9 0-.3.1-.5.4-.6.3 0 .5.1.6.4 0 .1.3 2 0 4.2-.1.4-.3.5-.5.5m-3.1 0c-.3 0-.5-.2-.5-.4q-.15-.75 0-2.7c0-.3.2-.5.5-.5s.5.2.5.5v2.6c0 .3-.2.5-.5.5M40 64.5c-1.8 0-6.1-.2-6.1-1.5 0-.3.2-.5.5-.5.2 0 .4.2.5.4.3.3 2.1.7 5.1.7s4.8-.4 5.1-.7c.1-.2.3-.4.5-.4.3 0 .5.2.5.5 0 1.4-4.2 1.5-6.1 1.5" class="st2"/></svg>