<svg xmlns="http://www.w3.org/2000/svg" xml:space="preserve" id="Layer_1" x="0" y="0" viewBox="0 0 80 80"><style>.st0{fill:#ffed8f}.st1{fill:#002140}.st2{fill:#fed607}.st3{fill:#d18000}.st4{fill:#0b1b34}</style><path d="M0 0h80v80H0z" class="st0"/><path d="M39.9 72.4c-18 0-32.7-14.7-32.7-32.7S21.9 7 39.9 7s32.7 14.7 32.7 32.7c0 18.1-14.7 32.7-32.7 32.7m0-64.4C22.4 8 8.2 22.3 8.2 39.7s14.2 31.7 31.7 31.7 31.7-14.2 31.7-31.7S57.4 8 39.9 8" class="st1"/><path d="M61.6 50.4s2.6-1.1 3.9 2.2c.7 2.4-1.3 5.6-4.7 5.5 0 0-2.4 3-4.6 1.7 0 0-1.9 2.3-4.8 2.1-2.8-.2-4.8-3.5-4.5-5.9s2-5.7 3.1-6.6c0 0-4.5-1-4.6-6.1s1.2-10.9 1.2-12.3-1.4-4.8-5.5-5.1c-2.7-.1-5.2 2.5-9.2 2.2s-6.7-1.6-6.7-1.6-1 9.5-.4 11.8c0 0-5.7-3.2-5.4-8 0-4.1 3.4-4.8 3.4-4.8S21.9 13.1 32 13c5.6.2 6.3 3.1 6.3 3.1s3.4-3.2 9.5-2.5c6 .7 6.9 8.1 6.9 8.1s4.5.1 5.9 4.7c1.4 3.9-2.5 7.1-2.5 7.1s4.1 3.6-.1 9.4c0 0 5.3 1.3 3.6 7.5" class="st2"/><path d="M47.3 58.2s-.1 2-1.4 2.5-2.1.7-2.1.7v1.9L41.5 65l-10.7-.1-1-.7.1-2.7s-5 .8-5.2-4.1-.1-6.6-.1-6.6-5.6-.2-5.6-2.2 4-2.1 5.1-2.8l.6-7.3s-.5-10.2.7-11.8c0 0 4.1 2.2 7.7 1.6 3.6-.5 6.4-3.1 9.3-2.1s3.9 2.9 4.2 4.9c.2 2-1.6 9.1-1.3 11.2.2 2.1.7 6.3 4.8 7.2-.1 0-4.1 3.6-2.8 8.7" class="st3"/><path d="M32.6 37.7c-1.9 0-3.4-1.5-3.4-3.4s1.5-3.4 3.4-3.4 3.4 1.5 3.4 3.4c-.1 1.9-1.6 3.4-3.4 3.4m7.9 2.9s.8 1 1 2c.1 1-1 3.6-2.5 3.7-1.4.1-4.6 0-4.6 0s-2.7-.8-2.5-2.8.3-2.8 1-3.2 2.3-1 3.2-.9 3 .1 3 .1 1.1.5 1.4 1.1M31 42.5l-1.5 1.1-6.3 2.4s-1.8-1.2-1.9-2.5.7-3.9 3.2-3.9c2.5-.1 3.9-.1 3.9-.1s2.3.6 2.6 3" class="st0"/><path d="M35.2 32.4h-5.4s1.5-1.4 2.8-1.4c1.2 0 2.4.7 2.6 1.4m5.3 8.2h-7.7s1.8-1.2 3.3-1.1 2.3.1 2.3.1 1.8.3 2.1 1m-10.5.1h-7.6s.9-1.2 2.8-1.2h2.7s2 .5 2.1 1.2m6.6 13.1s-1.8 3.6-5.7 3.4c-3.9-.1-5.1-2.7-5.1-3.7 0 0 .6-1.6 2.1-1.6s2.7 1.1 2.7 1.1 2.2-1.4 3.5-1.3 2.5 2.1 2.5 2.1m7.2 7.6v4.2s-5.2 1-7.9.9-6-1-6-1l-.1-4s1.9.3 2 2.3c0 0 1-1.9 2.4-1.8s2.2 1.8 2.2 2.1c0 0 .9-2 2.5-1.9s2.2 1.6 2.2 1.6.7-2.5 2.7-2.4" class="st3"/><path d="M52 62.4c-.3 0-.5 0-.8-.1-.8-.1-1.5-.4-2.1-.7-1.1-.7-1.7-1.9-2-2.7-1.2-3.2 0-7.3 2.8-9.8.2-.2.5-.2.7 0s.2.5 0 .7c-2.5 2.2-3.6 5.8-2.5 8.7.3.7.8 1.7 1.7 2.2.5.3 1 .5 1.7.6 1.3.2 2.6-.2 3.5-.9 1-.8 1.6-2 1.5-3.2s-.9-2.3-2-2.7c-.5-.2-1-.1-1.4.1s-.5.7-.4 1c.1.1.2.3.4.3.1 0 .2 0 .3-.1.2-.2.5-.2.7 0s.2.5 0 .7c-.3.3-.8.4-1.2.3-.5-.1-.9-.5-1.1-.9-.3-.8.1-1.7.8-2.2.6-.4 1.4-.4 2.2-.2 1.5.5 2.6 1.9 2.7 3.5.1 1.5-.6 3-1.9 4-1.1 1-2.3 1.4-3.6 1.4" class="st4"/><path d="M56.8 60.6c-.2 0-.6 0-1-.3-.2-.2-.3-.5-.1-.7s.5-.3.7-.1c.2.1.5.1.5.1 1-.1 1.9-.4 2.6-.9 1-.8 1.6-2 1.5-3.2s-.9-2.3-2-2.7c-.5-.2-1-.1-1.4.1s-.5.7-.4 1c.1.1.2.3.4.3.1 0 .2 0 .3-.1.2-.2.5-.2.7 0s.2.5 0 .7c-.3.3-.8.4-1.2.3-.5-.1-.9-.5-1.1-.9-.3-.8.1-1.7.8-2.2.6-.4 1.4-.4 2.2-.2 1.5.5 2.6 1.9 2.7 3.5.1 1.5-.6 3-1.9 4-.9.7-2 1.1-3.1 1.1 0 .1-.1.2-.2.2" class="st4"/><path d="M60.9 58.6h-.3c-.3 0-.5-.3-.5-.5 0-.3.3-.5.5-.5.5.1 1.1-.2 1.2-.2.7-.2 1.2-.4 1.7-.8 1-.8 1.6-2 1.5-3.2s-.9-2.3-2-2.7c-.5-.2-1-.1-1.4.1s-.5.7-.4 1c.1.1.2.3.4.3.1 0 .2 0 .3-.1.2-.2.5-.2.7 0s.2.5 0 .7c-.3.3-.8.4-1.2.3-.5-.1-.9-.5-1.1-.9-.3-.8.1-1.7.8-2.2.6-.4 1.4-.4 2.2-.2 1.5.5 2.6 1.9 2.7 3.5.1 1.5-.6 3-1.9 4-.6.4-1.3.8-2 1 .1.2-.5.4-1.2.4m-10.8-8.7c-1.4-.1-2.7-.9-3.6-2.1-.7-1-1.2-2.3-1.5-3.8-.4-2.5.1-5 .5-7.5.3-1.5.5-3.1.6-4.7 0-.8 0-1.8-.4-2.6-.3-.5-.7-1.1-1.4-1.5-1.4-1-2.9-1.4-4.3-1.2-.8.1-1.6.5-2.4.9-.3.2-.7.3-1 .5-3.9 1.6-9.5.6-12.3-1.4-.3 0-.3-.3-.2-.5.2-.2.5-.3.7-.1 2.5 1.8 7.8 2.7 11.3 1.3.3-.1.7-.3 1-.5.8-.4 1.7-.8 2.7-1 1.6-.3 3.5.2 5 1.3.8.6 1.4 1.2 1.7 1.9.5 1 .5 2.1.5 3.1q-.15 2.4-.6 4.8c-.4 2.5-.8 4.8-.5 7.2.2 1.4.6 2.5 1.3 3.3.7 1 1.8 1.6 2.9 1.7.3 0 .5.3.5.5s-.2.4-.5.4" class="st4"/><path d="M61.4 51c-.1 0-.2 0-.3-.1-.2-.1-.3-.5-.2-.7 0-.1 1-1.6 0-4.2-1-2.5-2.9-2.6-3-2.7-.2 0-.4-.1-.4-.3-.1-.2 0-.4.1-.5.2-.2 3.9-4.6.1-8.8-.1-.1-.1-.2-.1-.4 0-.1.1-.3.2-.4 0 0 2.4-1.9 2.4-5.2 0-3.4-2.1-5.5-5.7-5.7-.2 0-.4-.2-.5-.5 0-.3-.8-7.8-7.8-7.8h-.1c-3.3 0-5.8.9-7.2 2.4-1.3 1.4-1.4 3-1.3 3.4 0 .3-.2.5-.5.5s-.5-.2-.5-.5c0-.5 0-2.4 1.6-4.1 1.7-1.8 4.3-2.7 8-2.7h.1c6.9 0 8.5 6.6 8.8 8.3 3.8.4 6.2 2.9 6.2 6.7 0 2.9-1.7 4.9-2.4 5.6 3 3.7 1.1 7.6.1 9 .9.3 2.2 1.1 3 3.1 1.2 3.1 0 5-.1 5.1-.2.4-.3.5-.5.5" class="st4"/><path d="M24.5 39c-.1 0-.2 0-.2-.1-3.5-1.9-5.6-5.1-5.6-8.6 0-3.1 2.5-4.5 3.4-5-.3-3.4.8-7.1 3.1-9.7 1.7-2 4-3.1 6.3-3.1 3.6 0 6.1 1.1 7.4 3.3.1.2.1.5-.2.7-.2.1-.5.1-.7-.2-1.1-1.8-3.3-2.8-6.5-2.8-2.6 0-4.4 1.5-5.5 2.7-2.1 2.4-3.2 6.1-2.8 9.3 0 .2-.1.5-.3.5-.1 0-3.2 1.2-3.2 4.2 0 3.1 1.9 6 5.1 7.8.2.1.3.4.2.7-.1.2-.3.3-.5.3" class="st4"/><path d="M24.7 40c-.3 0-.5-.2-.5-.5s0-.9-.1-1.6c-.1-3.3-.4-9.6.5-11.5.1-.2.4-.4.7-.2.2.1.4.4.2.7-.8 1.7-.6 8.2-.4 11 0 .8.1 1.3.1 1.6s-.2.5-.5.5m1.1 11.2c-2.6 0-5.2-.4-6.4-1.3-.8-.6-.9-1.2-.9-1.6.1-1.3 2.2-2 5.2-3.1 2.8-1 6.3-2.2 8-4 .2-.2.5-.2.7 0s.2.5 0 .7c-1.9 2-5.5 3.3-8.4 4.3-2 .7-4.5 1.6-4.5 2.2 0 .1 0 .3.4.7 2 1.4 9.1 1.6 12.1 0 .7-.4 1.1-.8 1.1-1.3 0-.4-.1-.6-.3-.8-.4-.4-1.2-.4-1.5-.4s-.5-.2-.5-.5.2-.5.4-.5c.1 0 1.4-.1 2.3.6.4.4.7.9.7 1.5s-.2 1.5-1.6 2.2c-1.6.9-4.2 1.3-6.8 1.3" class="st4"/><path d="M38.1 46.8h-2.9c-2.1 0-3.9-1.7-3.9-3.9 0-2.1 1.7-3.9 3.9-3.9h2.9c2.1 0 3.9 1.7 3.9 3.9 0 2.1-1.8 3.9-3.9 3.9M35.2 40c-1.6 0-2.9 1.3-2.9 2.9s1.3 2.9 2.9 2.9h2.9c1.6 0 2.9-1.3 2.9-2.9S39.7 40 38.1 40z" class="st4"/><path d="m36.4 43.3-1.6-1.6c.5-.7 1.2-1.1 2.1-1.1 1.3 0 2.4 1.1 2.4 2.4.1 1.4-1.1 2.6-2.5 2.6-1.1 0-2-.7-2.3-1.6zm-4.3-8.5-1.5-1.5c.4-.6 1.2-1 2-1 1.2 0 2.2 1 2.3 2.2.1 1.3-1 2.4-2.3 2.4-1 0-1.8-.6-2.2-1.5zm-8.9 11.6c-.1 0-.2 0-.2-.1-1.3-.7-2.1-2-2.1-3.4 0-2.1 1.7-3.9 3.9-3.9h2.9c2 0 3.6 1.5 3.9 3.4 0 .3-.2.5-.4.6-.3 0-.5-.2-.6-.4-.2-1.4-1.4-2.5-2.9-2.5h-2.9c-1.6 0-2.9 1.3-2.9 2.9 0 1.1.6 2.1 1.5 2.6.2.1.3.4.2.7-.1 0-.2.1-.4.1" class="st4"/><path d="M28.5 40.9c.5.4.8 1 .8 1.7 0 .4 0 .7-.2 1L25.7 45c-.6-.3-1-.8-1.2-1.3l1.9-.8-1.6-1.6c.1-.2.3-.3.4-.5m7.4-2.5c-2.2 0-3.9-1.8-3.9-3.9 0-2.2 1.8-3.9 3.9-3.9s3.9 1.8 3.9 3.9-1.8 3.9-3.9 3.9m0-6.8c-1.6 0-2.9 1.3-2.9 2.9s1.3 2.9 2.9 2.9 2.9-1.3 2.9-2.9-1.3-2.9-2.9-2.9" class="st4"/><path d="M35.5 32.9c-.3 0-.5-.2-.5-.5s.2-.5.5-.5c.5 0 1.2-.8 1.4-1.2.1-.2.5-.3.7-.2s.3.5.2.7c-.2.3-1.1 1.7-2.3 1.7m-1.1-1.3c-.1 0-.2 0-.3-.1-.2-.2-.3-.5-.1-.7l.8-1.1c.2-.2.5-.3.7-.1s.3.5.1.7l-.8 1.1c-.1.2-.2.2-.4.2m18 21.3c-.1 0-.2 0-.3-.1-.2-.1-.3-.4-.2-.7 1.9-3.2-.4-4.8-.5-4.8-.2-.2-.3-.5-.1-.7s.5-.3.7-.1c0 0 3.2 2.2.8 6.2-.1.1-.3.2-.4.2m3-1.2c-.1 0-.2 0-.3-.1-.2-.1-.3-.4-.2-.7 1.9-3.2-.4-4.8-.5-4.9-.2-.2-.3-.5-.1-.7s.5-.3.7-.1c0 0 3.2 2.2.8 6.2 0 .2-.2.3-.4.3M50.3 45c-.2 0-.3-.1-.4-.2-.9-1.3-.6-3.3-.2-5.2.5-2.4.7-3.9-.5-4.2q-.45-.15-.3-.6t.6-.3c2.1.6 1.6 3.1 1.2 5.3-.3 1.7-.7 3.5 0 4.4.2.2.1.5-.1.7-.1.1-.2.1-.3.1m3.2-.1c-.2 0-.3-.1-.4-.2-.9-1.3-.6-3.3-.2-5.2.5-2.4.7-3.9-.5-4.2q-.45-.15-.3-.6t.6-.3c2.1.6 1.6 3.1 1.2 5.3-.3 1.7-.7 3.5 0 4.4.2.2.1.5-.1.7-.1.1-.2.1-.3.1m-4-15.5c-.1 0-.3-.1-.4-.2-.2-.2-.1-.5.1-.7 3-2.4 5.4-1 5.5-1 .2.1.3.4.2.7-.1.2-.4.3-.7.2-.1-.1-2-1.1-4.4.9-.1 0-.2.1-.3.1m-.7-2.7c-.1 0-.3-.1-.4-.2-.2-.2-.1-.5.1-.7 3-2.4 5.4-1 5.5-1 .2.1.3.4.2.7-.1.2-.4.3-.7.2-.1-.1-2-1.1-4.4.9-.1.1-.2.1-.3.1m-7-2.7c-.1 0-.2 0-.3-.1-.2-.1-.3-.5-.2-.7.1-.1 1.6-2.4 3.5-2.8.3-.1.5.1.6.4s-.1.5-.4.6c-1.6.3-2.9 2.4-2.9 2.4 0 .2-.1.2-.3.2m-10.8.4c-.2 0-.4-.2-.5-.4-.5-2 .7-3.3 1.3-3.7.2-.1.5-.1.7.2.1.2.1.5-.2.7-.1 0-1.3.8-.9 2.7.1.3-.1.5-.4.6.1-.1.1-.1 0-.1m5.5 42.7c-2.1 0-4.5-.3-6.9-1.1-.2-.1-.3-.3-.3-.5v-4c0-.3.2-.5.5-.5s.5.2.5.5v3.7c5.8 1.8 11.5.4 12.9 0v-3.8c0-.3.2-.5.5-.5 1.8-.1 3.2-1.3 3.1-2.7 0-.3.2-.5.5-.5s.5.2.5.5c0 1.8-1.4 3.3-3.6 3.6v3.7c0 .2-.1.4-.3.5s-3.3 1.1-7.4 1.1" class="st4"/><path d="M28.9 62c-2.2 0-4.8-.9-4.8-5.4v-5.7c0-.3.2-.5.5-.5s.5.2.5.5v5.7c0 3 1.2 4.4 3.8 4.4 3.2 0 5.6-2.1 5.6-2.1.2-.2.5-.2.7 0s.2.5 0 .7c-.1.1-2.7 2.4-6.3 2.4" class="st4"/><path d="M30.6 57.8c-4.5 0-5.4-3.3-5.4-4.2 0-.5.4-1 .8-1.4.6-.6 1.3-.9 2-.8 1 .1 2 .8 2.6 1.2.6-.4 1.8-1.2 3.2-1.2 1.8 0 3.2 1.3 3.3 2.1.1.5-.4 1.3-.8 1.8-.7.7-2.4 2.5-5.7 2.5m-2.7-5.4c-.9 0-1.6.9-1.6 1.2 0 0 .3 3.2 4.4 3.2 3.9 0 5.4-2.7 5.5-3.1-.1-.3-1-1.2-2.4-1.3-1.3 0-2.8 1.2-2.8 1.3-.2.2-.5.2-.7 0-.4-.4-1.5-1.3-2.4-1.3" class="st4"/><path d="M31 55.3h-.6c-3.3-.2-4.9-1.2-4.9-1.3-.2-.2-.3-.5-.1-.7s.5-.3.7-.1c0 0 1.5.9 4.4 1.1 3 .2 5.9-1.1 5.9-1.1.2-.1.5 0 .7.2.1.3 0 .5-.2.7-.2 0-2.9 1.2-5.9 1.2m-1.5-22.1h-.2c-.1 0-1.3-.6-1.7-1.8-.1-.3.1-.5.4-.6s.5.1.6.4c.2.8 1.1 1.2 1.1 1.2.3.1.4.4.3.7-.1 0-.3.1-.5.1m3.1-1.7q-.15 0 0 0c-.3 0-.5-.3-.5-.5l.1-1.4c0-.3.2-.5.5-.5s.5.3.5.5l-.1 1.4c-.1.3-.3.5-.5.5m-1.9.4c-.1 0-.2 0-.3-.1-.2-.2-.9-.9-.9-1.7 0-.3.3-.5.5-.5.3 0 .5.3.5.5s.3.6.6.9c.2.2.2.5 0 .7-.1.2-.2.2-.4.2m5.8 33c-.3 0-.5-.2-.5-.4 0-.1-.3-2-1.9-2-1.5 0-1.8 1.6-1.8 1.8 0 .3-.3.4-.5.4-.3 0-.5-.2-.5-.5 0-.1 0-2.1-1.6-2.2-.3 0-.5-.3-.5-.5s.3-.5.5-.5c1.1.1 1.8.8 2.1 1.5.4-.6 1.1-1.1 2.2-1.1 1.2 0 1.9.7 2.4 1.5.5-.7 1.3-1.4 2.5-1.4.8 0 1.5.2 1.9.7.1.1.1.1.1.2.7-1.2 1.9-1.6 2.6-1.6.3 0 .5.2.5.5s-.2.5-.5.5c-.2 0-2 .1-2.1 2.3 0 .3-.2.5-.5.5s-.5-.2-.5-.5c0 0 0-.7-.4-1.2-.3-.3-.7-.4-1.2-.4-1.7 0-2 1.8-2 1.9.2.4-.1.5-.3.5m4.3-23.6h-8.1c-.3 0-.5-.2-.5-.5s.2-.5.5-.5h8.1c.3 0 .5.2.5.5s-.3.5-.5.5m-10.5 0h-8.1c-.3 0-.5-.2-.5-.5s.2-.5.5-.5h8.1c.3 0 .5.2.5.5s-.3.5-.5.5" class="st4"/><path d="M35.3 33H30c-.3 0-.5-.2-.5-.5s.2-.5.5-.5h5.3c.3 0 .5.2.5.5s-.2.5-.5.5" class="st4"/></svg>