<?xml version="1.0" encoding="utf-8"?>
<!-- Generator: Adobe Illustrator 26.5.0, SVG Export Plug-In . SVG Version: 6.00 Build 0)  -->
<svg version="1.1" id="Layer_1" xmlns="http://www.w3.org/2000/svg" xmlns:xlink="http://www.w3.org/1999/xlink" x="0px" y="0px"
	 viewBox="0 0 80 80" style="enable-background:new 0 0 80 80;" xml:space="preserve">
<style type="text/css">
	.st0{fill:#03D47C;}
	.st1{fill:#008C59;}
	.st2{fill:#002140;}
	.st3{fill:#8EECC4;}
</style>
<g>
	<rect class="st0" width="80" height="80"/>
</g>
<g>
	<path class="st1" d="M17.2,34.9c0,0-1.6,3.9-4.3,4.2c0,0,3.7,1.6,4,4c0,0,1.5-3.5,4.4-3.9C21.3,39.2,17.4,38.3,17.2,34.9L17.2,34.9
		z"/>
</g>
<g>
	<path class="st1" d="M64.2,43.8c0,0-1.6,3.9-4.3,4.2c0,0,3.7,1.6,4,4c0,0,1.5-3.5,4.4-3.9C68.4,48.1,64.4,47.2,64.2,43.8L64.2,43.8
		z"/>
</g>
<g>
	<path class="st2" d="M39.9,72.4c-18,0-32.7-14.7-32.7-32.7C7.2,21.7,21.9,7,39.9,7c18,0,32.7,14.7,32.7,32.7
		C72.6,57.8,57.9,72.4,39.9,72.4z M39.9,8C22.4,8,8.2,22.3,8.2,39.7s14.2,31.7,31.7,31.7s31.7-14.2,31.7-31.7S57.4,8,39.9,8z"/>
</g>
<g>
	<path class="st2" d="M64.1,53c-0.2,0-0.4-0.2-0.5-0.4c-0.8-2.9-1.3-3.4-4.2-4.2c-0.2-0.1-0.4-0.3-0.4-0.5s0.2-0.4,0.4-0.5
		c2.9-0.8,3.4-1.3,4.2-4.2c0.1-0.2,0.3-0.4,0.5-0.4l0,0c0.2,0,0.4,0.2,0.5,0.4c0.8,2.9,1.3,3.4,4.2,4.2c0.2,0.1,0.4,0.3,0.4,0.5
		s-0.2,0.4-0.4,0.5c-2.9,0.8-3.4,1.3-4.2,4.2C64.5,52.9,64.3,53,64.1,53z M61.2,48c1.5,0.6,2.3,1.3,2.9,2.9c0.6-1.5,1.3-2.3,2.9-2.9
		c-1.5-0.6-2.3-1.3-2.9-2.9C63.5,46.7,62.8,47.4,61.2,48z"/>
</g>
<g>
	<path class="st2" d="M16.8,44.4L16.8,44.4c-0.2,0-0.4-0.2-0.5-0.4c-0.8-2.9-1.3-3.4-4.2-4.2c-0.2-0.1-0.4-0.3-0.4-0.5
		s0.2-0.4,0.4-0.5c2.9-0.8,3.4-1.3,4.2-4.2c0.1-0.4,0.9-0.4,1,0c0.8,2.9,1.3,3.4,4.2,4.2c0.2,0.1,0.4,0.3,0.4,0.5s-0.2,0.4-0.4,0.5
		c-2.9,0.8-3.4,1.3-4.2,4.2C17.2,44.3,17,44.4,16.8,44.4z M14,39.4c1.5,0.6,2.3,1.3,2.9,2.9c0.6-1.5,1.3-2.3,2.9-2.9
		c-1.5-0.6-2.3-1.3-2.9-2.9C16.2,38,15.5,38.8,14,39.4z"/>
</g>
<g>
	<path class="st1" d="M33.8,20.9l22.3,7.6c0,0,0.7-4.4-5.3-7.1l0.8-5.4c0,0-0.5-3.5-3.1-4.2c-2.5-0.7-5.1,1.1-5.5,1.9
		c-0.4,0.8-2,4.7-2,4.7S35.2,18.4,33.8,20.9L33.8,20.9z"/>
</g>
<g>
	<path class="st2" d="M56.1,29c0,0-0.1,0-0.1,0c-0.3-0.1-0.4-0.4-0.3-0.6c0.8-2.7-3.4-6.5-9.3-8.3c-5.5-1.7-10.9-1.2-12.2,1.1
		c-0.1,0.2-0.4,0.3-0.7,0.2c-0.2-0.1-0.3-0.4-0.2-0.7c1.5-2.8,7.3-3.5,13.3-1.6c6.6,2.1,10.9,6.3,9.9,9.5C56.5,28.8,56.3,29,56.1,29
		z"/>
</g>
<g>
	<path class="st2" d="M50.8,21.9C50.8,21.9,50.7,21.9,50.8,21.9c-0.3,0-0.5-0.3-0.5-0.6l0.7-4.7c0.2-2.1-1.1-4-3.1-4.5
		c-1.9-0.5-4,0.6-4.7,2.5l-1.4,3.7c-0.1,0.3-0.4,0.4-0.6,0.3c-0.3-0.1-0.4-0.4-0.3-0.6l1.4-3.7c0.9-2.4,3.4-3.8,5.9-3.2
		c2.5,0.6,4.1,3,3.8,5.6l-0.7,4.7C51.2,21.7,51,21.9,50.8,21.9z"/>
</g>
<g>
	<path class="st0" d="M30,59.8c0,0,0.5,1.3,1.7,1.3s2.9,0.1,2.9,0.1l1.1,0.9c0,0,0.9,3,3.2,2.7c2.4-0.3,1.9-2.5,2.2-2.1
		c2.1,0.2,2.1-0.5,2.4-2.1c0,0,1.9-0.3,2.1-1.8c0,0,3.2,1.1,7.5-1c4.2-2.1,3.5-5.3,3.4-6.6c-0.1-1.3-1.7-4.5-2.3-4.9
		c-0.6-0.4-2.1-1.7-2.1-1.7l-21.4-6.3l6.6,15C37.3,53.1,27.7,53.8,30,59.8L30,59.8z"/>
</g>
<g>
	<path class="st1" d="M18.6,29.2c0,0-0.2,4.9,7.9,7.5C34.7,39.3,51,44,51,44s11.9,2.6,13.7-3.7c1.7-6.3-1.4-8-3.7-9.4
		c0,0-10.5-5.8-21.4-8.3C28.6,20,23,19.7,20,24.6C19.4,26.4,18.6,28.5,18.6,29.2L18.6,29.2z"/>
</g>
<g>
	<path class="st3" d="M34.8,35.5c2.6,0,4.7-2.1,4.7-4.7s-2.1-4.7-4.7-4.7c-2.6,0-4.7,2.1-4.7,4.7S32.2,35.5,34.8,35.5z"/>
</g>
<g>
	<path class="st3" d="M44.3,38.7c2.6,0,4.7-2.1,4.7-4.7c0-2.6-2.1-4.7-4.7-4.7s-4.7,2.1-4.7,4.7C39.6,36.6,41.7,38.7,44.3,38.7z"/>
</g>
<g>
	<path class="st2" d="M32.1,42.1l-1.8-3.9l-14,15.7c0,0-0.4,2.7,0.2,3.8c0.5,1.1,3,2.1,3,2.1L30,59.7c0,0-1-3.3,0.8-4.5l-9.1-0.1
		L21,54.8L32.1,42.1L32.1,42.1z"/>
</g>
<g>
	<path class="st2" d="M28.5,20.6c0,0-4.4,0.5-5.9,1.5c0,0,0.1,5.4,4.4,4.1C31.4,24.9,29.1,20.7,28.5,20.6z"/>
</g>
<g>
	<path class="st2" d="M23.9,28.4c0,0-3.5,0-4.2,3.4c0,0,2.1,2.8,3.5,3.4c0,0,2.9-0.1,3.3-2.6C26.9,30.1,25.1,28.4,23.9,28.4z"/>
</g>
<g>
	<path class="st2" d="M45,24.3c0,0-5.5-2-6.4-2c-0.9,0.1-0.8,4.1,2.3,4.8C44,27.9,45,24.3,45,24.3L45,24.3z"/>
</g>
<g>
	<path class="st2" d="M58.8,30l-5-2.4c0,0-1.6,1.4-1.7,2.3s0.3,4,2.6,4.2C57,34.4,58.9,32.5,58.8,30L58.8,30z"/>
</g>
<g>
	<path class="st2" d="M63.6,33.5c0,0-2,0.5-1.8,2.8S65,39,65,39S66.5,34.7,63.6,33.5L63.6,33.5z"/>
</g>
<g>
	<path class="st2" d="M54.3,44.5l3.5,0.3c0,0,2.3-1.8,1.8-3.5c-0.5-1.7-1.8-3.1-4-2.9c-2.2,0.2-2.6,2.3-2.7,2.8
		C52.5,42.7,53.9,44.4,54.3,44.5L54.3,44.5z"/>
</g>
<g>
	<path class="st2" d="M56.6,45.4c-2.8,0-5.7-0.8-7.7-1.4c-6.3-1.8-12.7-3.8-18.9-5.7l-1.9-0.6c-5.1-1.6-8.1-3.6-9.4-6.2
		c-0.8-1.7-0.8-3.6,0.1-5.6c3.9-9.3,16.9-5.2,24.7-2.7c0.9,0.3,1.8,0.6,2.6,0.8c0,0,0,0,0,0c3.7,1.1,7.6,2.7,11.7,4.8l0.4,0.2
		c3.1,1.6,7.7,3.9,7.7,8.2c0,1.1-0.3,2.3-1,3.5C63,44.4,59.8,45.4,56.6,45.4z M28.9,21.2c-4,0-7.5,1.3-9.1,5.2
		c-0.7,1.8-0.8,3.4-0.1,4.8c1.1,2.3,4,4.2,8.8,5.7l1.9,0.6c6.2,1.9,12.5,3.9,18.8,5.7c6.1,1.7,12.1,2.5,14.9-2.8
		c0.6-1.1,0.9-2.1,0.9-3.1c0-3.6-4.1-5.7-7.2-7.3l-0.4-0.2c-4-2.1-7.9-3.6-11.5-4.7c0,0,0,0,0,0c-0.8-0.2-1.7-0.5-2.7-0.8
		C39.1,22.9,33.6,21.2,28.9,21.2z"/>
</g>
<g>
	<path class="st2" d="M34.6,36.3c-3,0-5.4-2.4-5.4-5.3s2.4-5.3,5.4-5.3S40,28.1,40,31S37.6,36.3,34.6,36.3z M34.6,26.7
		c-2.4,0-4.4,1.9-4.4,4.3s2,4.3,4.4,4.3S39,33.4,39,31S37,26.7,34.6,26.7z"/>
</g>
<g>
	<path class="st2" d="M35.2,31.2l3,0.2c0.1-1.7-0.9-3.3-2.5-3.5c-1.6-0.3-3.2,1.1-3.5,3c-0.3,1.9,0.8,3.7,2.4,4c1,0.2,1.9-0.2,2.6-1
		L35.2,31.2L35.2,31.2z"/>
</g>
<g>
	<path class="st2" d="M44.3,33.9l3,0.2c0.1-1.7-0.9-3.3-2.5-3.5c-1.6-0.3-3.2,1.1-3.5,3c-0.3,1.9,0.8,3.7,2.4,4c1,0.2,1.9-0.2,2.6-1
		L44.3,33.9L44.3,33.9z"/>
</g>
<g>
	<path class="st2" d="M44.2,39.4c-3,0-5.4-2.4-5.4-5.3s2.4-5.3,5.4-5.3c3,0,5.4,2.4,5.4,5.3S47.2,39.4,44.2,39.4z M44.2,29.7
		c-2.4,0-4.4,1.9-4.4,4.3s2,4.3,4.4,4.3s4.4-1.9,4.4-4.3S46.6,29.7,44.2,29.7z"/>
</g>
<g>
	<path class="st2" d="M37.2,53.5c-0.2,0-0.4-0.1-0.5-0.3l-6.8-15c-0.1-0.3,0-0.5,0.2-0.7c0.3-0.1,0.5,0,0.7,0.2l6.8,15
		c0.1,0.3,0,0.5-0.2,0.7C37.3,53.5,37.3,53.5,37.2,53.5z"/>
</g>
<g>
	<path class="st2" d="M48.1,59.6c-1.7,0-2.5-0.4-2.5-0.4c-0.3-0.1-0.4-0.4-0.2-0.7c0.1-0.2,0.4-0.4,0.7-0.2c0,0,0.8,0.3,2.5,0.3
		c1.6-0.1,7.7-1.3,7.7-6.3c0-4.9-4.4-7.5-4.4-7.5c-0.2-0.1-0.3-0.4-0.2-0.7c0.1-0.2,0.4-0.3,0.7-0.2c0.2,0.1,4.9,2.8,4.9,8.3
		c0,5.8-6.9,7.2-8.7,7.3C48.4,59.6,48.3,59.6,48.1,59.6z"/>
</g>
<g>
	<path class="st2" d="M41.5,63.2c-0.1,0-0.2,0-0.2,0c-0.3,0-0.5-0.3-0.5-0.5c0-0.3,0.3-0.5,0.5-0.5l0,0c0,0,1.1,0.1,1.6-0.6
		c0.2-0.2,0.3-0.7,0.1-1.3c-0.1-0.6-0.7-2-3-3.1c-0.2-0.1-0.3-0.4-0.2-0.7c0.1-0.2,0.4-0.3,0.7-0.2c2.6,1.3,3.3,2.9,3.5,3.8
		c0.2,0.8,0.1,1.6-0.3,2.1C43.1,63.1,42,63.2,41.5,63.2z"/>
</g>
<g>
	<path class="st2" d="M39,65.5c-1.6,0-2.5-1.6-3.1-2.7c-0.1-0.2-0.2-0.4-0.3-0.6c-0.4-0.6-0.7-0.6-2.9-0.5l-0.4,0
		c-2.3,0.1-3.1-2.3-3.1-3.6c0-1.1,0.4-2.1,1.2-2.9c1.5-1.5,4.1-2.3,7.2-2.3c2.1,0,5,1.4,5.2,1.5c2.6,1.3,3.3,2.9,3.5,3.8
		c0.2,0.8,0.1,1.6-0.3,2.1c-0.5,0.7-1.4,1-1.9,1c-0.3,0-0.5-0.2-0.5-0.4c0-0.3,0.2-0.5,0.4-0.5c0.4,0,0.9-0.2,1.2-0.6
		c0.2-0.2,0.3-0.7,0.1-1.3c-0.1-0.6-0.7-2-3-3.1c0,0-2.9-1.4-4.7-1.4c-2.9,0-5.2,0.7-6.5,2c-0.6,0.7-1,1.4-0.9,2.2
		c0,0.1,0.1,2.7,2.1,2.6l0.4,0c2.2-0.1,3.1-0.1,3.8,1c0.1,0.2,0.2,0.4,0.4,0.7c0.5,0.9,1.2,2.2,2.2,2.2c1.2,0,1.7-0.5,1.7-1.6
		c0-0.9-1.7-2.9-3.6-3.9c-0.2-0.1-0.3-0.4-0.2-0.7c0.1-0.2,0.4-0.3,0.7-0.2c1.9,1,4.1,3.3,4.1,4.8C41.7,64.6,40.8,65.5,39,65.5z"/>
</g>
<g>
	<path class="st2" d="M30.6,55.8h-8.8c-0.4,0-0.7-0.2-0.8-0.5c-0.2-0.3-0.1-0.7,0.1-1L31.7,42c0.2-0.2,0.5-0.2,0.7-0.1
		c0.2,0.2,0.2,0.5,0.1,0.7L22,54.8h8.6c0.3,0,0.5,0.2,0.5,0.5S30.9,55.8,30.6,55.8z"/>
</g>
<g>
	<path class="st2" d="M29.9,60.5H20c-1.8,0-3.3-1-4.1-2.6c-0.7-1.6-0.4-3.5,0.7-4.8l13.5-15.2c0.2-0.2,0.5-0.2,0.7,0
		c0.2,0.2,0.2,0.5,0,0.7L17.4,53.7c-0.9,1-1.1,2.5-0.6,3.7c0.6,1.3,1.8,2,3.2,2h10c0.3,0,0.5,0.2,0.5,0.5S30.2,60.5,29.9,60.5z"/>
</g>
<g>
	<path class="st2" d="M57.9,45.2c-0.2,0-0.3-0.1-0.4-0.2c-0.1-0.2-0.1-0.5,0.2-0.7c0.9-0.5,1.4-1.4,1.4-2.4c0-1.6-1.3-2.8-2.8-2.8
		c-1.6,0-2.8,1.3-2.8,2.8c0,0.9,0.4,1.7,1.1,2.3c0.2,0.2,0.3,0.5,0.1,0.7c-0.2,0.2-0.5,0.3-0.7,0.1c-1-0.7-1.5-1.8-1.5-3
		c0-2.1,1.7-3.8,3.8-3.8c2.1,0,3.8,1.7,3.8,3.8c0,1.4-0.7,2.6-1.8,3.3C58.1,45.2,58,45.2,57.9,45.2z"/>
</g>
<g>
	<path class="st2" d="M64.6,39.5c-1.9,0-3.4-1.5-3.4-3.4c0-1.5,0.9-2.8,2.4-3.2c0.3-0.1,0.5,0.1,0.6,0.3c0.1,0.3-0.1,0.5-0.3,0.6
		c-1,0.3-1.7,1.2-1.7,2.3c0,1.3,1.1,2.4,2.4,2.4c0.1,0,0.2,0,0.3,0c0.3,0,0.5,0.1,0.6,0.4s-0.1,0.5-0.4,0.6
		C64.9,39.5,64.8,39.5,64.6,39.5z"/>
</g>
<g>
	<path class="st2" d="M55.3,34.7c-2.2,0-3.9-1.8-3.9-3.9c0-1.5,0.9-2.9,2.2-3.5c0.2-0.1,0.5,0,0.7,0.2c0.1,0.2,0,0.5-0.2,0.7
		c-1,0.5-1.6,1.5-1.6,2.6c0,1.6,1.3,2.9,2.9,2.9s2.9-1.3,2.9-2.9c0-0.2,0-0.4-0.1-0.6c-0.1-0.3,0.1-0.5,0.4-0.6
		c0.3-0.1,0.5,0.1,0.6,0.4c0.1,0.3,0.1,0.5,0.1,0.8C59.2,32.9,57.5,34.7,55.3,34.7z"/>
</g>
<g>
	<path class="st2" d="M23.5,35.7c-0.3,0-0.5-0.2-0.5-0.5c0-0.3,0.2-0.5,0.5-0.5c1.5-0.1,2.6-1.4,2.6-2.9c0-1.6-1.3-2.9-2.9-2.9
		s-2.9,1.3-2.9,2.9c0,0.1,0,0.3,0,0.4c0,0.3-0.2,0.5-0.4,0.6c-0.3,0-0.5-0.2-0.6-0.4c0-0.2,0-0.4,0-0.6c0-2.2,1.8-3.9,3.9-3.9
		s3.9,1.8,3.9,3.9C27.1,33.9,25.6,35.5,23.5,35.7C23.5,35.7,23.5,35.7,23.5,35.7z"/>
</g>
<g>
	<path class="st2" d="M26,26.8c-2.2,0-4-1.8-4-4c0-0.2,0-0.5,0.1-0.7c0-0.3,0.3-0.5,0.6-0.4c0.3,0,0.5,0.3,0.4,0.6
		c0,0.2,0,0.3,0,0.5c0,1.6,1.3,3,3,3s3-1.3,3-3c0-0.6-0.2-1.3-0.6-1.8c-0.2-0.2-0.1-0.5,0.1-0.7c0.2-0.2,0.5-0.1,0.7,0.1
		c0.5,0.7,0.8,1.5,0.8,2.4C30,25,28.2,26.8,26,26.8z"/>
</g>
<g>
	<path class="st2" d="M41.7,27.7c-2.2,0-4-1.8-4-4c0-0.5,0.1-1,0.3-1.5c0.1-0.3,0.4-0.4,0.7-0.3c0.3,0.1,0.4,0.4,0.3,0.7
		c-0.1,0.4-0.2,0.7-0.2,1.1c0,1.6,1.3,3,3,3c1.4,0,2.6-1,2.9-2.4c0.1-0.3,0.3-0.5,0.6-0.4c0.3,0.1,0.4,0.3,0.4,0.6
		C45.2,26.4,43.6,27.7,41.7,27.7z"/>
</g>
<g>
	<path class="st3" d="M42.6,44.1L40.2,47c0,0-0.5,0.9,0,1.3c0.5,0.4,1.2,0.4,1.6,0c0.4-0.4,2.1-2.9,2.1-2.9L42.6,44.1L42.6,44.1z"/>
</g>
<g>
	<path class="st3" d="M45.2,45.7l-2.4,2.9c0,0-0.5,0.9,0,1.3c0.5,0.4,1.2,0.4,1.6,0c0.4-0.4,2.1-2.9,2.1-2.9L45.2,45.7L45.2,45.7z"
		/>
</g>
<g>
	<path class="st2" d="M44.7,49.8c0,0-0.2,0.9-1.3,0.5c-1.1-0.5-1-1.8-1-1.8s-2,1.1-2.2-0.2c-0.2-1.3-0.6-1.1,0.2-2
		c0.9-0.9,1.9-2.5,1.9-2.5s-2-1.5-3-1.2c-1,0.3-2.5,1.7-2.5,2.1s-0.2,5.2,5.9,7s6.9-0.2,7.3-1.2c0.4-0.9,1.2-1.9-0.3-2.6
		c-1.5-0.7-2.8-1.1-2.8-1.1L44.7,49.8L44.7,49.8z"/>
</g>
<g>
	<path class="st2" d="M39.9,47.2l2.5-3.3c0,0-3.1-2.5-5-0.1c-1.9,2.4,1.2,5.7,1.2,5.7s4.2,3.1,7.4,3.2c3.2,0.1,4.2-2.4,4.2-2.4
		L50,48.5l-3.1-1.8l-2.8,3.7c0,0-0.8-0.1-1.3-0.2c-0.5-0.2-0.3-1.9-0.3-1.9s-1.8,0.7-2.2,0.3C39.9,48.3,39.9,47.2,39.9,47.2
		L39.9,47.2z"/>
</g>
<g>
	<path class="st2" d="M46.5,53.2c-2,0-4.2-0.9-5.3-1.4c-4.2-2-4.8-4.8-4.9-5.2c0,0,0,0,0-0.1c-0.2-1.8,0.4-3.2,1.7-3.9
		c1.9-0.9,4,0.1,5.3,1.4c0.6,0.6,1.5,1.2,2.6,1.7c0.4,0.2,0.7,0.3,1.1,0.5c0.9,0.4,1.9,0.8,2.7,1.4c0.6,0.4,0.9,1,1,1.8
		c0,1-0.5,2.2-1.3,2.9C48.6,53,47.6,53.2,46.5,53.2z M37.3,46.3c0,0.1,0.4,2.6,4.3,4.5c1.2,0.6,5.2,2.3,7.2,0.6c0.6-0.5,1-1.4,1-2.1
		c0-0.4-0.2-0.8-0.5-1c-0.8-0.5-1.6-0.9-2.5-1.3c-0.4-0.2-0.8-0.3-1.1-0.5c-1.2-0.6-2.2-1.2-2.9-1.9c-1.1-1.1-2.8-1.9-4.2-1.2
		C37.2,44.1,37.2,45.7,37.3,46.3C37.3,46.3,37.3,46.3,37.3,46.3z"/>
</g>
<g>
	<path class="st2" d="M40.9,49.4c-0.5,0-0.8-0.2-0.9-0.3c-0.2-0.1-0.6-0.5-0.7-1.1c-0.1-0.5,0.1-1,0.6-1.6c0.9-1.2,1.9-2.6,1.9-2.6
		c0.2-0.2,0.5-0.3,0.7-0.1s0.3,0.5,0.1,0.7c0,0.1-1,1.5-2,2.7c-0.3,0.3-0.4,0.6-0.4,0.9c0,0.2,0.2,0.3,0.3,0.4c0,0,0.2,0.1,0.4,0.1
		c0.3-0.1,0.7-0.3,1-0.8l1.7-2.3c0.2-0.2,0.5-0.3,0.7-0.1c0.2,0.2,0.3,0.5,0.1,0.7l-1.7,2.3c-0.5,0.7-1.1,1.1-1.7,1.2
		C41.1,49.3,41,49.4,40.9,49.4z"/>
</g>
<g>
	<path class="st2" d="M43.5,51c-0.5,0-0.8-0.2-0.9-0.3c-0.2-0.1-0.6-0.5-0.7-1.1c-0.1-0.5,0.1-1,0.6-1.6c0.5-0.6,1.1-1.5,1.8-2.4
		c0.2-0.2,0.5-0.3,0.7-0.1c0.2,0.2,0.3,0.5,0.1,0.7c-0.7,1-1.3,1.8-1.8,2.5c-0.3,0.3-0.4,0.6-0.4,0.9c0,0.2,0.2,0.3,0.3,0.4
		c0,0,0.2,0.1,0.4,0.1c0.3-0.1,0.7-0.3,1-0.8l1.7-2.3c0.2-0.2,0.5-0.3,0.7-0.1c0.2,0.2,0.3,0.5,0.1,0.7l-1.7,2.3
		c-0.5,0.7-1.1,1.1-1.7,1.2C43.7,51,43.6,51,43.5,51z"/>
</g>
</svg>
