<svg width="40" height="40" viewBox="0 0 40 40" fill="none" xmlns="http://www.w3.org/2000/svg">
<rect x="0.5" y="0.5" width="39" height="39" rx="19.5" fill="white" stroke="#DADCE0"/>
<g clip-path="url(#clip0_9_55)">
<path d="M20 14.2763C21.3973 14.2763 22.6486 14.7579 23.6355 15.6974L26.3394 12.9934C24.6973 11.4658 22.5539 10.5263 20 10.5263C16.2973 10.5263 13.096 12.65 11.5368 15.7447L14.6868 18.1881C15.4329 15.9421 17.5289 14.2763 20 14.2763Z" fill="#EA4335"/>
<path d="M29.0711 20.2171C29.0711 19.5973 29.0118 18.9973 28.9211 18.421H20V21.9815H25.1079C24.8789 23.15 24.2158 24.1447 23.2211 24.8158L26.2724 27.1842C28.0526 25.5342 29.0711 23.0947 29.0711 20.2171Z" fill="#4285F4"/>
<path d="M14.6829 21.8119C14.4934 21.2395 14.3829 20.6316 14.3829 20C14.3829 19.3684 14.4895 18.7605 14.6829 18.1882L11.5329 15.7448C10.8895 17.0237 10.5263 18.4684 10.5263 20C10.5263 21.5316 10.8895 22.9763 11.5368 24.2553L14.6829 21.8119Z" fill="#FBBC05"/>
<path d="M20 29.4737C22.5579 29.4737 24.7092 28.6329 26.2724 27.1802L23.2211 24.8118C22.3724 25.3842 21.279 25.7197 20 25.7197C17.529 25.7197 15.4329 24.0539 14.6829 21.8079L11.5329 24.2513C13.0961 27.35 16.2974 29.4737 20 29.4737Z" fill="#34A853"/>
</g>
<defs>
<clipPath id="clip0_9_55">
<rect x="10.5263" y="10.5263" width="18.9474" height="18.9474" rx="9.47368" fill="white"/>
</clipPath>
</defs>
</svg>
