<svg xmlns="http://www.w3.org/2000/svg" width="42.66" height="23.722" fill="none" viewBox="-0.647 -9.26 43.953 45"><path fill="#4ed7de" d="M41.368 21.485c0 1.213-.788 1.618-1.973 1.618H29.123c-1.258 0-1.975-.405-1.975-1.618 0-3.235 3.555-5.661 7.11-5.661 3.554 0 7.11 2.426 7.11 5.661M37.42 11.78c0 1.786-1.416 3.235-3.16 3.235-1.746 0-3.161-1.449-3.161-3.236 0-1.786 1.415-3.235 3.16-3.235s3.16 1.449 3.16 3.235"/><path stroke="#002140" d="M41.368 21.485c0 1.213-.788 1.618-1.973 1.618H29.123c-1.258 0-1.975-.405-1.975-1.618 0-3.235 3.555-5.661 7.11-5.661 3.554 0 7.11 2.426 7.11 5.661ZM37.42 11.78c0 1.786-1.416 3.235-3.16 3.235-1.746 0-3.161-1.449-3.161-3.236 0-1.786 1.415-3.235 3.16-3.235s3.16 1.449 3.16 3.235Z"/><path fill="#4ba6a6" d="M20.038 8.912c0 .717-.466.956-1.166.956h-6.07c-.743 0-1.167-.24-1.167-.956 0-1.912 2.1-3.346 4.201-3.346S20.038 7 20.038 8.912m-2.334-5.736c0 1.056-.836 1.912-1.867 1.912s-1.868-.856-1.868-1.912c0-1.055.836-1.911 1.868-1.911 1.031 0 1.867.856 1.867 1.911"/><path stroke="#002140" d="M20.038 8.912c0 .717-.466.956-1.166.956h-6.07c-.743 0-1.167-.24-1.167-.956 0-1.912 2.1-3.346 4.201-3.346S20.038 7 20.038 8.912Zm-2.334-5.736c0 1.056-.836 1.912-1.867 1.912s-1.868-.856-1.868-1.912c0-1.055.836-1.911 1.868-1.911 1.031 0 1.867.856 1.867 1.911Z"/><path fill="#4ba6a6" d="M20.038 22.147c0 .717-.466.956-1.166.956h-6.07c-.743 0-1.167-.239-1.167-.956 0-1.912 2.1-3.345 4.201-3.345s4.202 1.433 4.202 3.345m-2.334-5.735c0 1.056-.836 1.912-1.867 1.912s-1.868-.856-1.868-1.912.836-1.912 1.868-1.912c1.031 0 1.867.856 1.867 1.912"/><path stroke="#002140" d="M20.038 22.147c0 .717-.466.956-1.166.956h-6.07c-.743 0-1.167-.239-1.167-.956 0-1.912 2.1-3.345 4.201-3.345s4.202 1.433 4.202 3.345Zm-2.334-5.735c0 1.056-.836 1.912-1.867 1.912s-1.868-.856-1.868-1.912.836-1.912 1.868-1.912c1.031 0 1.867.856 1.867 1.912Z"/><path fill="#28736d" d="M6.464 7.22c0 .497-.323.662-.807.662H1.455c-.515 0-.809-.165-.809-.661 0-1.324 1.455-2.317 2.91-2.317 1.453 0 2.908.993 2.908 2.317M4.849 3.25c0 .731-.58 1.324-1.293 1.324-.714 0-1.293-.593-1.293-1.324s.579-1.324 1.293-1.324 1.292.593 1.292 1.324"/><path stroke="#002140" d="M6.464 7.22c0 .497-.323.662-.807.662H1.455c-.515 0-.809-.165-.809-.661 0-1.324 1.455-2.317 2.91-2.317 1.453 0 2.908.993 2.908 2.317ZM4.849 3.25c0 .731-.58 1.324-1.293 1.324-.714 0-1.293-.593-1.293-1.324s.579-1.324 1.293-1.324 1.292.593 1.292 1.324Z"/><path fill="#28736d" d="M6.464 20.456c0 .496-.323.662-.807.662H1.455c-.515 0-.809-.166-.809-.662 0-1.324 1.455-2.316 2.91-2.316 1.453 0 2.908.992 2.908 2.316m-1.615-3.971c0 .731-.58 1.324-1.293 1.324-.714 0-1.293-.593-1.293-1.324 0-.73.579-1.323 1.293-1.323s1.292.592 1.292 1.323"/><path stroke="#002140" d="M6.464 20.456c0 .496-.323.662-.807.662H1.455c-.515 0-.809-.166-.809-.662 0-1.324 1.455-2.316 2.91-2.316 1.453 0 2.908.992 2.908 2.316Zm-1.615-3.971c0 .731-.58 1.324-1.293 1.324-.714 0-1.293-.593-1.293-1.324 0-.73.579-1.323 1.293-1.323s1.292.592 1.292 1.323Z"/><path fill="#03d47c" d="m34.77 20.203-.975 1.498s1.732-.025 4.95 3.27c0 0 1.145-6.191 4.534-9.935l-.146-.2-1.317-.599s-2.584 2.82-3.852 7.764c0 0-1.633-1.548-3.194-1.798"/><path stroke="#002140" stroke-linecap="round" stroke-linejoin="round" d="M41.844 14.215c-1.157 1.046-3.497 5.348-3.904 7.793-.165-.163-.99-1.115-3.234-1.889-.085.143-.813 1.39-.903 1.523 2.056.266 4.885 3.195 4.974 3.345.643-3.802 2.845-8.504 4.53-10.007-.193-.103-1.299-.655-1.463-.766z"/><path fill="#03d47c" d="m17.058 8.869-.377.577s.668-.01 1.91 1.262c0 0 .441-2.388 1.748-3.832l-.056-.077-.508-.231s-.997 1.088-1.486 2.994c0 0-.63-.597-1.232-.693"/><path stroke="#002140" stroke-linecap="round" stroke-linejoin="round" d="M18.48 7.63a9 9 0 0 0-.483 1.093 4.6 4.6 0 0 0-.801-.36.5.5 0 0 0-.594.219l-.045.076-.128.22-.11.184-.047.078-.002.005a.5.5 0 0 0 .35.775c.107.013.259.069.448.176.183.103.372.239.547.38a7 7 0 0 1 .59.542.5.5 0 0 0 .891-.22c.115-.682.374-1.46.684-2.138.319-.696.659-1.215.903-1.433a.5.5 0 0 0-.098-.814l-.155-.08-.36-.187q-.014-.007-.004-.001a.5.5 0 0 0-.63.056 3.4 3.4 0 0 0-.469.59 9 9 0 0 0-.487.84m-.265 3.398-.005-.006z"/><path fill="#03d47c" d="m17.058 22.104-.377.578s.668-.01 1.91 1.261c0 0 .441-2.388 1.748-3.832l-.056-.077-.508-.23s-.997 1.087-1.486 2.994c0 0-.63-.597-1.232-.694"/><path stroke="#002140" stroke-linecap="round" stroke-linejoin="round" d="M18.48 20.866a9 9 0 0 0-.483 1.092 4.6 4.6 0 0 0-.801-.359.5.5 0 0 0-.594.218l-.045.077-.128.22-.11.183-.047.079-.002.004a.5.5 0 0 0 .35.775c.107.014.259.07.448.176.183.104.372.239.547.38a7 7 0 0 1 .565.514l.026.028a.5.5 0 0 0 .89-.22c.115-.682.374-1.46.684-2.138.319-.696.659-1.214.903-1.432a.5.5 0 0 0-.098-.815l-.155-.08-.364-.188a.5.5 0 0 0-.63.056 3.4 3.4 0 0 0-.469.59 9 9 0 0 0-.487.84m-.265 3.397-.005-.006z"/><path fill="#0164bf" d="m9.96 4.221.036.722 1.412-1.094-1.513-.972.038.785"/><path stroke="#0164bf" stroke-linecap="round" stroke-linejoin="round" d="m9.96 4.221.036.722 1.412-1.094-1.513-.972.038.785"/><path fill="#0164bf" d="m9.962 4.185-1.865.034H8.03L8 3.689l1.94-.016"/><path stroke="#0164bf" stroke-linecap="round" stroke-linejoin="round" d="m9.962 4.185-1.865.034H8.03L8 3.689l1.94-.016"/><path fill="#0164bf" d="m9.96 17.457.036.721 1.412-1.094-1.513-.972.038.785"/><path stroke="#0164bf" stroke-linecap="round" stroke-linejoin="round" d="m9.96 17.457.036.721 1.412-1.094-1.513-.972.038.785"/><path fill="#0164bf" d="m9.962 17.42-1.865.034H8.03l-.03-.53 1.94-.015"/><path stroke="#0164bf" stroke-linecap="round" stroke-linejoin="round" d="m9.962 17.42-1.865.034H8.03l-.03-.53 1.94-.015"/><path fill="#0164bf" d="m24.596 15.44.735 1.163 1.32-3.204-3.424-.129.799 1.266"/><path stroke="#0164bf" stroke-linecap="round" stroke-linejoin="round" d="m24.596 15.44.735 1.163 1.32-3.204-3.424-.129.799 1.266"/><path fill="#0164bf" d="m24.564 15.378-3.066 1.886-.111.066-.546-.852 3.206-1.929"/><path stroke="#0164bf" stroke-linecap="round" stroke-linejoin="round" d="m24.564 15.378-3.066 1.886-.111.066-.546-.852 3.206-1.929"/><path fill="#0164bf" d="m24.596 5.7.735-1.163 1.32 3.204-3.424.129.799-1.266"/><path stroke="#0164bf" stroke-linecap="round" stroke-linejoin="round" d="m24.596 5.7.735-1.163 1.32 3.204-3.424.129.799-1.266"/><path fill="#0164bf" d="m24.564 5.762-3.066-1.886-.111-.066-.546.852 3.206 1.929"/><path stroke="#0164bf" stroke-linecap="round" stroke-linejoin="round" d="m24.564 5.762-3.066-1.886-.111-.066-.546.852 3.206 1.929"/></svg>