<svg width="228" height="236" viewBox="0 0 228 236" fill="#FFF" xmlns="http://www.w3.org/2000/svg">
<path d="M126.736 37.7202L132.595 20.1301C132.595 20.1301 132.265 12.1702 127.615 12.1702C122.965 12.1702 118.326 16.4802 116.336 19.4702C114.346 22.4602 111.355 31.0803 111.355 31.0803L95.0954 26.4302L96.7556 11.5002C96.7556 11.5002 98.7454 2.87012 90.7854 2.87012C82.8254 2.87012 81.1652 10.5002 81.1652 10.5002L78.8454 26.4302C78.8454 26.4302 53.2954 27.4303 42.3454 39.0403C31.3954 50.6503 15.4656 114.03 12.8156 147.87C10.1656 181.71 43.0056 205.6 53.2956 210.58C63.5856 215.56 81.4953 218.87 81.4953 218.87C81.4953 218.87 81.1655 232.14 87.1355 233.14C93.1055 234.14 96.7556 226.84 96.7556 226.84V220.87H111.026C111.026 220.87 110.365 233.48 118.655 233.48C126.945 233.48 126.946 219.88 126.946 219.88L139.885 219.55C139.885 219.55 138.226 232.49 145.526 232.49C152.826 232.49 154.155 222.54 154.155 222.54L154.816 216.9L166.756 215.57C166.756 215.57 166.426 230.83 174.716 229.51C180.686 229.18 183.006 213.58 183.006 213.58L222.155 207.61C222.155 207.61 227.136 202.96 226.466 198.65C225.806 194.34 225.025 84.5102 126.705 37.7302L126.736 37.7202Z" fill="#0180FF"/>
<path d="M109.696 116.02C109.696 116.02 96.0965 113.03 91.7765 105.73C87.4665 98.4304 80.8264 81.1805 77.1764 63.2605C73.5264 45.3405 51.9566 39.3705 42.3366 39.0405C32.7166 38.7105 22.0965 48.3304 18.7765 53.9704C15.4565 59.6104 1.85632 101.42 2.84632 122.98C3.84632 144.55 26.7363 153.84 38.3463 153.51C49.9563 153.18 58.9164 139.57 66.2164 132.28C73.5164 124.98 89.7764 118.01 102.386 117.68L109.686 116.02H109.696Z" fill="#94F2FF"/>
<path d="M81.0566 218.2C46.6766 212.12 12.8066 193.061 12.8066 144.561" stroke="#002140" stroke-width="3" stroke-linecap="round" stroke-linejoin="round"/>
<path d="M111.026 220.461C106.186 220.551 101.716 220.481 97.7559 220.211" stroke="#002140" stroke-width="3" stroke-linecap="round" stroke-linejoin="round"/>
<path d="M139.146 218.721C134.876 219.121 130.676 219.471 126.596 219.741" stroke="#002140" stroke-width="3" stroke-linecap="round" stroke-linejoin="round"/>
<path d="M166.656 215.601C162.586 216.131 158.456 216.641 154.326 217.121" stroke="#002140" stroke-width="3" stroke-linecap="round" stroke-linejoin="round"/>
<path d="M127.586 37.5508C170.166 58.6008 224.306 110.141 226.426 200.741C226.496 203.921 224.246 206.681 221.116 207.231C213.636 208.551 199.076 211.021 182.046 213.481" stroke="#002140" stroke-width="3" stroke-linecap="round" stroke-linejoin="round"/>
<path d="M95.2051 26.75C100.005 27.41 105.535 28.7501 111.555 30.8201" stroke="#002140" stroke-width="3" stroke-linecap="round" stroke-linejoin="round"/>
<path d="M42.6758 38.3804C42.6758 38.3804 51.1156 26.9705 78.2856 26.0205" stroke="#002140" stroke-width="3" stroke-linecap="round" stroke-linejoin="round"/>
<path d="M117.335 117.681C60.595 108.391 100.085 52.3204 52.9649 40.3704C35.0449 36.0604 17.7947 43.6905 6.51473 81.1805C-8.08527 131.611 13.4846 153.181 36.3746 153.511C68.5546 153.841 53.295 113.691 117.335 117.681Z" fill="#94F2FF" stroke="#002140" stroke-width="3" stroke-linecap="round" stroke-linejoin="round"/>
<path d="M4.78529 129.211C7.57529 132.651 10.9753 134.821 14.8053 135.291C25.4553 136.601 36.0254 124.371 40.6954 106.681L20.1154 90.3605L42.9752 82.4205C41.7452 66.1805 34.7852 53.8305 24.9752 52.6205C22.6652 52.3405 20.3554 52.6905 18.1154 53.6005C18.1154 53.6005 4.63548 82.1705 1.98548 99.4205C-0.664517 116.671 4.79554 129.201 4.79554 129.201L4.78529 129.211Z" fill="#002140"/>
<path d="M95.5465 32.63C94.0065 26.64 95.3162 20.3501 96.1862 14.2301C96.4562 12.3301 96.6864 10.3901 96.4064 8.49013C96.1264 6.59013 95.2662 4.70018 93.7262 3.54018C90.9862 1.49018 86.8364 2.42019 84.3864 4.80019C81.9364 7.18019 80.8361 10.6301 80.1461 13.9801C79.1061 19.0201 78.7864 24.2002 79.1964 29.3302" stroke="#002140" stroke-width="3" stroke-linecap="round" stroke-linejoin="round"/>
<path d="M112.045 35.281C112.295 30.061 113.675 24.8909 116.065 20.2409C117.395 17.6609 119.105 15.1609 121.575 13.6409C124.045 12.1209 127.415 11.7809 129.795 13.4409C132.615 15.4109 133.185 19.471 132.305 22.791C131.425 26.111 129.415 29.0108 127.935 32.1208C126.455 35.2308 125.525 38.911 126.895 42.071" stroke="#002140" stroke-width="3" stroke-linecap="round" stroke-linejoin="round"/>
<path d="M78.0449 212.78C80.5349 214.64 81.6146 217.42 81.9946 220.13C82.3746 222.84 82.1745 225.59 82.6045 228.29C82.9145 230.21 83.7046 232.29 85.7646 233.31C88.2146 234.52 91.6246 233.65 93.5146 231.91C95.4046 230.17 96.0946 227.79 96.4346 225.5C97.1246 220.92 96.7149 216.24 95.2349 211.78" stroke="#002140" stroke-width="3" stroke-linecap="round" stroke-linejoin="round"/>
<path d="M107.576 212.78C110.066 214.64 111.146 217.42 111.526 220.13C111.916 222.84 111.706 225.59 112.136 228.29C112.446 230.21 113.236 232.29 115.296 233.31C117.746 234.52 121.156 233.65 123.046 231.91C124.936 230.17 125.626 227.79 125.966 225.5C126.656 220.92 126.246 216.24 124.766 211.78" stroke="#002140" stroke-width="3" stroke-linecap="round" stroke-linejoin="round"/>
<path d="M135.605 211.791C138.095 213.651 139.176 216.431 139.556 219.141C139.946 221.851 139.736 224.601 140.166 227.301C140.476 229.221 141.266 231.301 143.326 232.321C145.776 233.531 149.186 232.661 151.076 230.921C152.966 229.181 153.656 226.801 153.996 224.511C154.686 219.931 154.276 215.251 152.796 210.791" stroke="#002140" stroke-width="3" stroke-linecap="round" stroke-linejoin="round"/>
<path d="M163.316 208.471C165.806 210.331 166.886 213.111 167.266 215.821C167.646 218.531 167.446 221.281 167.876 223.981C168.186 225.901 168.976 227.981 171.036 229.001C173.486 230.211 176.896 229.341 178.786 227.601C180.676 225.861 181.366 223.481 181.706 221.191C182.396 216.611 181.986 211.931 180.506 207.471" stroke="#002140" stroke-width="3" stroke-linecap="round" stroke-linejoin="round"/>
</svg>
