<svg xmlns="http://www.w3.org/2000/svg" xml:space="preserve" id="Layer_1" x="0" y="0" viewBox="0 0 148 154"><style>.st0{fill:none;stroke:#002140;stroke-linecap:round;stroke-linejoin:round}.st1{fill:#99f6ff}.st2{fill:#0164bf}</style><path d="M141.572 103.784c-.027 4.046-2.097 6.096-4.297 6.963" class="st0"/><path d="M66.082 134.54s23.113 4.427 26.793-1.323c1.897-3.623-2.817-5.75-2.873-11.21-.057-5.463 3.967-8.797 7.073-8.797s7.417 3.45 7.417 8.797-3.047 5.75-3.047 9.083 2.76 5.577 9.717 5.29 17.363-1.84 17.363-1.84-2.99-22.136.057-25.353c1.667-1.61 5.173.23 5.173.23s3.68 1.493 5.464 1.493c1.783 0 6.956-1.493 6.956-7.876 0-6.384-5.75-6.957-6.9-7.014s-5.633 1.38-6.153 1.553-2.643.69-3.277.69c-.633 0-3.046-2.183-2.816-6.267.23-4.083 1.493-19.95 1.493-19.95s-9.66-1.61-15.58-1.38c-5.923.23-10.12.69-10.98 2.413-.863 1.723-.517 3.853.057 4.773.573.92 2.473 5.233 2.473 8.05s-2.76 7.647-7.417 7.647-7.417-5.233-7.187-8.337 3.277-7.763 3.277-9.947-.46-4.713-11.27-4.713-15.58 1.783-15.58 1.783 2.76 24.033-.69 25.643-5.52-2.013-10.75-2.013-6.323 5.403-6.323 7.59 1.263 7.303 8.05 7.303c3.333 0 5.463-2.243 7.763-2.243s2.76 3.45 2.76 3.45.23 15.467-1.033 22.48z" class="st1"/><path d="M66.312 72.33s-.283-3.807-.093-6.087 1.33-9.683 1.233-12.817c-.097-3.133-.76-8.353-3.133-8.543s-5.317 1.423-6.36 1.803-4.273 1.9-6.647 1.043c-2.373-.853-6.457-2.657-6.647-7.69s6.457-6.647 9.493-6.55c3.037.093 5.507 3.227 9.78 2.847s3.513-9.21 3.513-11.107-1.993-13.957-1.52-15.95c0 0-22.027-2.943-25.443.473-1.9 2.657 3.227 5.507 2.09 11.013-1.14 5.507-4.653 6.077-7.69 6.077s-7.5-1.52-7.5-7.31c0-3.417 2.847-6.93 2.28-9.02-.57-2.09-2.657-3.987-25.917-1.33 0 0 .19 8.07-.76 10.063s-1.52 16.33 2.373 17.09 6.17-1.52 6.17-1.52 2.847-1.9 7.027-1.043c4.177.853 7.027 3.893 6.647 6.647-.38 2.753-1.803 7.217-7.783 7.5s-8.26-3.513-10.633-3.227c-2.373.283-4.177 1.803-4.273 4.937 0 0-.157 5.063-.157 6.33s1.9 13.29 1.393 15.697-1.9 13.417-1.647 19.113c.253 5.697 1.267 8.227 4.683 8.353 3.417.127 5.57-3.29 10.507-3.037 3.543.127 7.723 3.417 7.723 7.09s-2.91 7.217-7.217 7.343c-4.303.127-5.317-.76-6.457-1.266-1.14-.507-3.023-1.984-4.937-1.52-1.913.463-2.783 1.14-3.417 2.91-.633 1.773-2.28 9.113.887 23.796 0 0 17.597-1.14 20.633-1.013 3.037.127 4.557 1.013 5.063 2.28s-2.027 7.343-1.9 9.873.76 6.584 7.597 6.457 7.343-5.443 7.217-6.963-1.14-4.557-1.52-5.697-2.407-4.81 2.533-5.697c4.937-.886 22.587.857 22.587.857s9.757-46.85.23-62.21z" class="st1"/><path d="M48.422 103.327c.037-5.617 4.01-7.387 6.797-7.487 4.977-.18 8.337 4.364 10.983 1.52 2.65-2.843-.113-25.223-.113-25.223 3.433-.587 6.907-.997 10.377-1.277 2.747-.223 5.513-.363 8.27-.247 2.357.097 6.183.107 7.777 2.3.797 1.097.813 2.663.413 3.983-.4 1.323-1.153 2.477-1.81 3.673-1 1.827-1.297 3.657-.96 5.753.473 4.01 3.717 7.65 8.003 7.08m-49.731 10.005c.037 5.617 4.01 7.387 6.797 7.487 4.977.18 8.337-4.364 10.983-1.52 2.65 2.843-.113 25.223-.113 25.223 3.433.587 6.907.997 10.377 1.277 2.747.223 5.513.363 8.27.246 2.357-.096 6.183-.106 7.777-2.3.797-1.096.813-2.663.413-3.983-.4-1.323-1.153-2.477-1.81-3.673-1-1.827-1.297-3.657-.96-5.754.473-4.01 3.717-7.65 8.003-7.08" class="st0"/><path d="M34.982 54.504c5.617.037 7.387 4.01 7.487 6.797.18 4.977-4.363 8.337-1.52 10.983 2.843 2.65 25.223-.113 25.223-.113m-31.126 80.126c5.617-.037 7.387-4.01 7.487-6.797.18-4.976-4.363-8.336-1.52-10.983 2.843-2.65 25.223.113 25.223.113M34.902 54.507c-5.617.037-7.387 4.01-7.487 6.797-.18 4.977 4.363 8.337 1.52 10.983-2.843 2.65-25.223-.113-25.223-.113A118 118 0 0 0 2.435 82.55c-.223 2.747-.363 5.513-.247 8.27.097 2.357.107 6.183 2.3 7.777 1.097.797 2.663.813 3.983.413 1.323-.4 2.477-1.153 3.673-1.81 1.827-1 3.657-1.297 5.753-.96 4.01.473 7.65 3.717 7.08 8.004m10.009-77.34c-5.617-.037-7.387-4.01-7.487-6.797-.18-4.977 4.363-8.337 1.52-10.983-2.843-2.65-25.223.113-25.223.113m31.266 17.66c5.617-.037 7.387-4.01 7.487-6.797.18-4.977-4.363-8.337-1.52-10.983 2.843-2.65 24.977.187 24.977.187" class="st0"/><path d="M34.902 152.284c-5.617-.037-7.387-4.01-7.487-6.797-.18-4.977 4.363-8.337 1.52-10.983s-25.223.113-25.223.113a118 118 0 0 1-1.277-10.377c-.223-2.746-.363-5.513-.247-8.27.097-2.356.107-6.183 2.3-7.776 1.097-.797 2.663-.814 3.983-.414 1.323.4 2.477 1.154 3.673 1.81 1.827 1 3.657 1.297 5.753.96 4.01-.473 7.65-3.716 7.08-8.003M3.812 71.864c.41-5.05-1.74-12.267-1.523-18.647.097-2.357.107-6.183 2.3-7.777 1.097-.797 2.663-.813 3.983-.413 1.323.4 2.477 1.153 3.673 1.81 1.827 1 3.657 1.297 5.753.96 4.01-.473 7.65-3.717 7.08-8.003" class="st0"/><path d="M3.812 9.477c.41 5.05-1.74 12.267-1.523 18.647.097 2.357.107 6.183 2.3 7.777 1.097.797 2.663.813 3.983.413 1.323-.4 2.477-1.153 3.673-1.81 1.827-1 3.657-1.297 5.753-.96 4.01.473 7.65 3.717 7.08 8.003m40.904 30.327c-.41-5.05 1.74-12.267 1.523-18.647-.097-2.357-.107-6.183-2.3-7.777-1.097-.797-2.663-.813-3.983-.413s-2.477 1.153-3.673 1.81c-1.827 1-3.657 1.297-5.753.96-4.01-.473-7.65-3.717-7.08-8.003" class="st0"/><path d="M65.982 9.484c-.41 5.05 1.74 12.267 1.523 18.647-.097 2.357-.107 6.183-2.3 7.777-1.097.797-2.663.813-3.983.413-1.323-.4-2.477-1.153-3.673-1.81-1.827-1-3.657-1.297-5.753-.96-4.01.473-7.65 3.717-7.08 8.003m101.4 61.756c-.037-5.616-4.01-7.386-6.797-7.486-4.977-.18-8.337 4.363-10.983 1.52-2.65-2.843.113-25.223.113-25.223a118 118 0 0 0-10.377-1.277c-2.746-.223-5.513-.363-8.27-.247-2.356.097-6.183.107-7.776 2.3-.797 1.097-.814 2.663-.414 3.983.4 1.323 1.154 2.477 1.81 3.673 1 1.827 1.297 3.657.96 5.753-.473 4.01-3.716 7.65-8.003 7.08m49.73 10.004c-.037 5.617-4.01 7.387-6.797 7.487-4.976.18-8.336-4.363-10.983-1.52-2.65 2.843.113 25.223.113 25.223-3.433.587-6.906.997-10.376 1.277-2.747.223-5.514.363-8.27.247-2.357-.097-6.184-.107-7.777-2.3-.797-1.097-.813-2.664-.413-3.984.4-1.323 1.153-2.476 1.81-3.673 1-1.827 1.296-3.657.96-5.753-.474-4.01-3.717-7.65-8.004-7.08" class="st0"/><path d="m95.822 23.95 3.593-17.39a1.67 1.67 0 0 1 1.436-1.323c1.237-.147 3.154-.08 4.47 1.35.427.46.527 1.137.294 1.72L99.019 24.91a1.67 1.67 0 0 1-1.897 1.02 1.67 1.67 0 0 1-1.3-1.98m-13.837-1.996-1.747-17.67c-.07-.717.32-1.4.977-1.69 1.137-.507 2.987-1.013 4.67-.043.543.313.84.93.793 1.553l-1.357 17.813a1.68 1.68 0 0 1-1.507 1.54 1.673 1.673 0 0 1-1.829-1.503m25.447 9.326 8.7-15.48a1.67 1.67 0 0 1 1.77-.827c1.223.237 3.027.88 3.85 2.643.267.567.157 1.243-.243 1.727L110.185 33.16a1.67 1.67 0 0 1-2.116.397 1.673 1.673 0 0 1-.64-2.28zm7.617 9.737 15.537-8.593c.63-.347 1.41-.26 1.94.227.917.843 2.113 2.34 1.887 4.273-.074.623-.52 1.14-1.114 1.343l-16.896 5.803a1.68 1.68 0 0 1-2.01-.773 1.677 1.677 0 0 1 .653-2.277zm3.603 13.366 17.67-1.747a1.68 1.68 0 0 1 1.697.99c.503 1.13 1 2.957.056 4.623a1.65 1.65 0 0 1-1.573.823l-17.813-1.357a1.68 1.68 0 0 1-1.54-1.507c-.09-.92.58-1.74 1.503-1.83z" class="st2"/></svg>