<svg xmlns="http://www.w3.org/2000/svg" xmlns:xlink="http://www.w3.org/1999/xlink" id="Layer_1" x="0" y="0" version="1.1" viewBox="0 0 262 152" style="enable-background:new 0 0 262 152" xml:space="preserve"><style type="text/css">.st0{fill:#d18000}.st1{fill:#722b03}.st2{fill:#003c73}.st3{fill:#fed607}.st4{fill:#fff2b2}.st5{fill:#e4bc07}.st6{fill:#002140}.st7{fill:none;stroke:#002140;stroke-linecap:round;stroke-linejoin:round}.st8{fill:#50eef6}</style><path d="M152.957,142.282h-6.556l-5.242-1.416L1.607,142.282V5.848h151.35V142.282z" class="st0"/><path d="M152.801,142.106l-11.139-1.298l-0.474,1.298H14.495V18.058h138.305V142.106z" class="st1"/><path d="M81.263,132.666c26.026,0,47.125-21.021,47.125-46.952c0-25.931-21.099-46.952-47.125-46.952	c-26.027,0-47.125,21.021-47.125,46.952C34.138,111.645,55.236,132.666,81.263,132.666z" class="st2"/><path d="M123.737,106.802l-3.021-4.778h-6.845l-4.356-7.52h-6.577L98.85,87.16h-6.756l-4.801-7.608h-13.51l-4.177,7.256	h-6.488l-4.356,7.608h-6.756l-4.356,7.432h-6.845l-1.779,3.45c0,0,5.867,13.715,18.932,21.147s27.467,6.016,30.577,5.84	c3.11-0.176,24.534-4.955,35.199-25.483H123.737z" class="st3"/><path d="M123.737,106.802l-3.022-4.776l4.887-0.266L123.737,106.802z" class="st4"/><path d="M113.871,102.026h6.044l-4.533-7.434h-5.867L113.871,102.026z" class="st4"/><path d="M102.938,94.504h5.599l-4.088-7.253l-5.601-0.091L102.938,94.504z" class="st4"/><path d="M92.094,87.16h6.132l-4.444-7.784h-6.132L92.094,87.16z" class="st4"/><path d="M82.005,79.552c0,0-0.177,1.637-2.21,2.189c-0.964,0.269-1.982,0.216-2.984,0.187	c-0.086-0.003-0.177-0.005-0.257,0.027c-0.129,0.051-0.212,0.173-0.292,0.288c-1.203,1.757-3.319,2.853-5.454,2.829	c0,0,2.398-5.651,3.954-5.651c1.557,0,7.244,0.133,7.244,0.133V79.552z" class="st4"/><path d="M71.203,87.205c0,0-0.177,1.637-2.21,2.189c-0.964,0.269-1.982,0.216-2.984,0.187	c-0.086-0.003-0.177-0.005-0.257,0.027c-0.129,0.051-0.212,0.173-0.292,0.288c-1.203,1.757-3.319,2.853-5.454,2.829	c0,0,2.398-5.651,3.954-5.651c1.556,0,7.244,0.133,7.244,0.133V87.205z" class="st4"/><path d="M59.708,94.754c0,0-0.177,1.637-2.21,2.189c-0.964,0.269-1.982,0.216-2.984,0.187	c-0.086-0.003-0.177-0.005-0.257,0.027c-0.129,0.051-0.212,0.173-0.292,0.288c-1.203,1.757-3.319,2.853-5.454,2.829	c0,0,2.398-5.65,3.954-5.65c1.557,0,7.244,0.133,7.244,0.133V94.754z" class="st4"/><path d="M81.871,94.754c0,0-0.177,1.637-2.21,2.189c-0.964,0.269-1.982,0.216-2.984,0.187	c-0.086-0.003-0.177-0.005-0.257,0.027c-0.129,0.051-0.212,0.173-0.292,0.288c-1.203,1.757-3.319,2.853-5.454,2.829	c0,0,2.398-5.65,3.954-5.65c1.556,0,7.244,0.133,7.244,0.133V94.754z" class="st4"/><path d="M93.19,87.029c0,0-0.177,1.637-2.21,2.189c-0.964,0.269-1.982,0.216-2.984,0.187	c-0.086-0.003-0.177-0.005-0.257,0.027c-0.129,0.051-0.212,0.173-0.292,0.288c-1.203,1.757-3.319,2.853-5.454,2.829l2.604-5.003	c0,0,1.09-0.648,1.348-0.648c1.557,0,7.244,0.133,7.244,0.133L93.19,87.029z" class="st4"/><path d="M103.56,94.578c0,0-0.177,1.637-2.211,2.189c-0.964,0.269-1.982,0.216-2.984,0.187	c-0.086-0.003-0.177-0.005-0.257,0.027c-0.129,0.051-0.212,0.173-0.292,0.288c-1.203,1.757-3.319,2.853-5.454,2.829l2.604-5.003	c0,0,1.09-0.648,1.348-0.648c1.556,0,7.244,0.133,7.244,0.133L103.56,94.578z" class="st4"/><path d="M71.086,102.01c0,0-0.177,1.638-2.21,2.19c-0.964,0.269-1.982,0.216-2.984,0.186	c-0.086-0.002-0.177-0.005-0.257,0.027c-0.129,0.051-0.212,0.173-0.292,0.288c-1.203,1.757-3.319,2.853-5.454,2.829l2.604-5.002	c0,0,1.09-0.648,1.348-0.648c1.556,0,7.244,0.133,7.244,0.133L71.086,102.01z" class="st4"/><path d="M93.013,102.01c0,0-0.177,1.638-2.21,2.19c-0.964,0.269-1.982,0.216-2.984,0.186	c-0.086-0.002-0.177-0.005-0.257,0.027c-0.129,0.051-0.212,0.173-0.292,0.288c-1.203,1.757-3.319,2.853-5.454,2.829l2.604-5.002	c0,0,1.09-0.648,1.348-0.648c1.556,0,7.244,0.133,7.244,0.133L93.013,102.01z" class="st4"/><path d="M114.758,102.01c0,0-0.177,1.638-2.21,2.19c-0.965,0.269-1.983,0.216-2.985,0.186	c-0.085-0.002-0.177-0.005-0.257,0.027c-0.129,0.051-0.212,0.173-0.292,0.288c-1.203,1.757-3.319,2.853-5.454,2.829l2.604-5.002	c0,0,1.09-0.648,1.347-0.648c1.557,0,7.244,0.133,7.244,0.133L114.758,102.01z" class="st4"/><path d="M104.093,109.56c0,0-0.177,1.637-2.21,2.189c-0.964,0.269-1.982,0.216-2.984,0.187	c-0.086-0.003-0.177-0.006-0.257,0.026c-0.129,0.051-0.212,0.174-0.292,0.288c-1.203,1.758-3.319,2.854-5.454,2.83l2.604-5.003	c0,0,1.09-0.648,1.348-0.648c1.556,0,7.244,0.133,7.244,0.133L104.093,109.56z" class="st4"/><path d="M120.587,111.936c-0.086-0.003-0.177-0.006-0.257,0.026c-0.129,0.051-0.212,0.174-0.292,0.288	c-1.203,1.758-3.319,2.854-5.454,2.83l2.604-5.003c0,0,1.09-0.648,1.347-0.648c0.656,0,2.052,0.024,3.445,0.051" class="st4"/><path d="M115.293,116.874c0,0-0.176,1.638-2.21,2.19c-0.964,0.269-1.982,0.216-2.984,0.186	c-0.086-0.002-0.177-0.005-0.257,0.027c-0.129,0.051-0.212,0.173-0.292,0.288c-1.203,1.757-3.319,2.853-5.454,2.829l2.603-5.002	c0,0,1.091-0.648,1.348-0.648c1.556,0,7.244,0.133,7.244,0.133L115.293,116.874z" class="st4"/><path d="M103.796,124.544c0,0-0.177,1.637-2.211,2.189c-0.964,0.269-1.982,0.216-2.984,0.187	c-0.086-0.003-0.177-0.006-0.257,0.026c-0.129,0.051-0.212,0.174-0.292,0.288c-1.203,1.758-3.319,2.854-5.454,2.83l2.604-5.003	c0,0,1.09-0.648,1.348-0.648c1.556,0,7.244,0.133,7.244,0.133L103.796,124.544z" class="st4"/><path d="M81.989,124.544c0,0-0.177,1.637-2.21,2.189c-0.964,0.269-1.982,0.216-2.984,0.187	c-0.086-0.003-0.177-0.006-0.257,0.026c-0.129,0.051-0.212,0.174-0.292,0.288c-1.203,1.758-3.319,2.854-5.454,2.83l2.604-5.003	c0,0,1.09-0.648,1.348-0.648c1.556,0,7.244,0.133,7.244,0.133L81.989,124.544z" class="st4"/><path d="M54.798,124.544c0.171-0.08,0.316-0.134,0.391-0.134c1.556,0,7.244,0.134,7.244,0.134s-0.177,1.637-2.21,2.189	c-0.477,0.133-0.967,0.187-1.463,0.205" class="st4"/><path d="M82.048,109.56c0,0-0.177,1.637-2.21,2.189c-0.965,0.269-1.982,0.216-2.984,0.187	c-0.086-0.003-0.177-0.006-0.257,0.026c-0.129,0.051-0.212,0.174-0.292,0.288c-1.203,1.758-3.319,2.854-5.454,2.83l2.604-5.003	c0,0,1.09-0.648,1.347-0.648c1.556,0,7.244,0.133,7.244,0.133L82.048,109.56z" class="st4"/><path d="M71.383,116.816c0,0-0.177,1.637-2.21,2.189c-0.964,0.269-1.982,0.216-2.984,0.187	c-0.086-0.003-0.177-0.006-0.257,0.026c-0.129,0.051-0.212,0.174-0.292,0.288c-1.203,1.758-3.319,2.854-5.454,2.83l2.604-5.003	c0,0,1.09-0.648,1.347-0.648c1.557,0,7.244,0.133,7.244,0.133L71.383,116.816z" class="st4"/><path d="M93.307,116.816c0,0-0.177,1.637-2.21,2.189c-0.964,0.269-1.982,0.216-2.984,0.187	c-0.086-0.003-0.177-0.006-0.257,0.026c-0.129,0.051-0.212,0.174-0.292,0.288c-1.203,1.758-3.319,2.854-5.454,2.83l2.604-5.003	c0,0,1.09-0.648,1.347-0.648c1.556,0,7.244,0.133,7.244,0.133L93.307,116.816z" class="st4"/><path d="M60.241,109.56c0,0-0.177,1.637-2.21,2.189c-0.964,0.269-1.982,0.216-2.984,0.187	c-0.086-0.003-0.177-0.006-0.257,0.026c-0.129,0.051-0.212,0.174-0.292,0.288c-1.203,1.758-3.319,2.854-5.454,2.83l2.604-5.003	c0,0,1.09-0.648,1.347-0.648c1.556,0,7.244,0.133,7.244,0.133L60.241,109.56z" class="st4"/><path d="M46.006,116.696c2.242,0.032,6.001,0.12,6.001,0.12s-0.177,1.637-2.21,2.189	c-0.418,0.117-0.847,0.173-1.28,0.197" class="st4"/><path d="M38.652,105.184c0.825-1.539,1.937-3.248,2.792-3.248c1.556,0,7.244,0.133,7.244,0.133s-0.177,1.637-2.21,2.189	c-0.964,0.27-1.982,0.216-2.984,0.187c-0.086-0.003-0.177-0.005-0.257,0.027c-0.129,0.05-0.212,0.173-0.292,0.288	c-0.793,1.157-1.985,2.029-3.316,2.482" class="st4"/><path d="M80.939,93.797l3.689-6.637h-7.6L80.939,93.797z" class="st5"/><path d="M91.692,101.405l3.689-6.635h-7.6L91.692,101.405z" class="st5"/><path d="M69.738,101.229l3.689-6.637h-7.6L69.738,101.229z" class="st5"/><path d="M58.894,108.749l3.689-6.635h-7.6L58.894,108.749z" class="st5"/><path d="M47.961,115.829l3.689-6.637h-7.6L47.961,115.829z" class="st5"/><path d="M69.738,115.829l3.689-6.637h-7.6L69.738,115.829z" class="st5"/><path d="M80.759,108.749l3.689-6.635h-7.6L80.759,108.749z" class="st5"/><path d="M103.07,108.749l3.688-6.635h-7.6L103.07,108.749z" class="st5"/><path d="M113.914,116.359l3.689-6.637h-7.6L113.914,116.359z" class="st5"/><path d="M91.784,116.269l3.686-6.635h-7.597L91.784,116.269z" class="st5"/><path d="M81.027,123.261l3.689-6.637h-7.6L81.027,123.261z" class="st5"/><path d="M58.982,123.437l3.689-6.635h-7.6L58.982,123.437z" class="st5"/><path d="M102.804,123.437l3.689-6.635h-7.6L102.804,123.437z" class="st5"/><path d="M92.048,131.045l3.689-6.635h-7.6L92.048,131.045z" class="st5"/><path d="M69.915,130.781l3.689-6.637h-7.6L69.915,130.781z" class="st5"/><path d="M188.356,27.082c0,0-26.074-0.589-43.851,21.235c-10.429,12.032-13.157,27.371-13.036,38.104	c0.118,10.736,3.793,31.381,20.148,44.123c16.355,12.741,32,14.274,38.636,13.802c0,0,26.548,0.944,43.08-21.882	c16.532-22.827,12.977-43.531,10.488-53.088c-2.489-9.555-11.734-27.251-30.754-36.629c-10.668-4.6-20.62-5.523-24.711-5.661V27.082	z" class="st5"/><path d="M188.683,134.85c26.427,0,47.851-21.807,47.851-48.707c0-26.9-21.424-48.707-47.851-48.707	c-26.428,0-47.852,21.807-47.852,48.707C140.831,113.043,162.255,134.85,188.683,134.85z" class="st0"/><path d="M188.356,124.586c20.913,0,37.867-17.231,37.867-38.488c0-21.256-16.954-38.488-37.867-38.488	s-37.867,17.232-37.867,38.488C150.489,107.355,167.443,124.586,188.356,124.586z" class="st5"/><path d="M188.268,114.146c15.365,0,27.82-12.662,27.82-28.283c0-15.62-12.455-28.283-27.82-28.283	s-27.821,12.663-27.821,28.283C160.447,101.484,172.903,114.146,188.268,114.146z" class="st0"/><path d="M188.445,97.157c6.038,0,10.932-5.149,10.932-11.501c0-6.352-4.894-11.501-10.932-11.501	c-6.038,0-10.933,5.149-10.933,11.501C177.512,92.007,182.407,97.157,188.445,97.157z" class="st5"/><path d="M193.157,144.408c0,0,25.954-1.771,40.176-21.944c7.999-10.795,12.444-19.819,12.8-38.224	c0.356-18.403-11.201-36.984-22.932-45.301c-11.733-8.317-27.732-15.219-49.598-9.909c0,0,8.356-6.016,21.51-6.547	c13.156-0.531,41.065,1.061,58.666,33.8c5.687,11.501,8.178,26.899,5.154,40.877c-3.022,13.979-10.668,34.507-36.444,45.126	c-8.356,2.301-17.065,5.84-28.978,4.248l-0.357-2.123L193.157,144.408z" class="st0"/><path d="M184.209,27.319h9.245v-5.781c0,0-0.592-1.061-4.385-1.179c-3.794-0.117-4.978,1.061-4.978,1.061	L184.209,27.319z" class="st5"/><path d="M229.719,45.016l4.503-3.776c0,0,2.489-1.299,4.742,1.651c2.253,2.949,1.658,5.192,0.356,6.253	c-1.304,1.061-3.555,2.715-3.555,2.715l-6.044-6.843H229.719z" class="st5"/><path d="M245.956,90.079c0,0,5.106,0.376,5.687,0.117c0.581-0.259,2.371-1.771,2.489-3.776	c0.118-2.005-0.236-4.837-1.779-5.427c-1.54-0.589-6.162,0-6.162,0l-0.235,9.083V90.079z" class="st5"/><path d="M230.075,126.533l4.503,3.304c0,0,2.253,1.061,4.268-2.005c2.015-3.067,1.658-5.192,0.948-5.899	c-0.71-0.707-4.147-2.36-4.147-2.36l-5.569,6.96H230.075z" class="st5"/><path d="M184.327,144.111c0,0-0.357,5.662,0.356,6.488c0.71,0.827,7.94,0.235,7.94,0.235s0.772-0.413,0.831-2.36	c0.059-1.947-0.298-4.069-0.298-4.069l-8.829-0.296V144.111z" class="st5"/><path d="M183.497,37.936v9.437c0,0,8.058-0.472,10.429,0.235l0.118-9.909c0,0-6.757-0.707-10.547,0.235V37.936z" class="st0"/><path d="M186.224,57.52l0.176,17.165c0,0,3.199-0.885,4.622,0l0.533-17.165h-5.334H186.224z" class="st1"/><path d="M186.341,96.922v17.107c0,0,4.621,0.354,5.096,0L191.08,96.57c0,0-3.08,0.707-4.741,0.355L186.341,96.922z" class="st1"/><path d="M183.379,124.41l0.117,10.147c0,0,8.415,0.706,10.547-0.118v-10.026c0,0-8.178,0.234-10.667,0L183.379,124.41z" class="st1"/><path d="M194.995,76.514l12.918-10.736c0,0,2.962,2.595,3.198,3.539L198.55,80.17L194.995,76.514z" class="st1"/><path d="M179.114,80.17l3.319-3.776l-13.036-10.853c0,0-3.08,2.36-3.198,3.776l12.918,10.853H179.114z" class="st1"/><path d="M177.691,84.063h-16.949l0.12,4.483h16.829V84.063z" class="st1"/><path d="M199.616,83.946l-0.118,4.365h16.829l-0.118-4.365H199.616z" class="st1"/><path d="M198.075,91.733l-2.845,3.184l12.682,10.97l3.199-3.538L198.075,91.733z" class="st1"/><path d="M182.43,94.917l-3.437-3.184l-12.917,10.616l3.319,3.658L182.43,94.917z" class="st1"/><path d="M141.306,90.906h9.598l-0.235-10.381h-9.599C141.07,80.525,140.596,89.49,141.306,90.906z" class="st1"/><path d="M148.417,112.495l6.638,8.022l7.584-6.254l-6.518-7.784L148.417,112.495z" class="st1"/><path d="M214.074,114.856l7.941,5.898c0,0,6.282-7.432,6.4-8.493l-7.705-5.544c0,0-5.687,8.141-6.636,8.141V114.856z" class="st1"/><path d="M226.638,90.789h9.481c0,0,0.356-8.493-0.236-10.147l-9.719,0.117c0,0,0.474,8.965,0.474,10.027V90.789z" class="st1"/><path d="M183.497,47.375l10.429,0.235v-9.909c0,0-7.705-0.472-10.429,0.235v9.437V47.375z" class="st1"/><path d="M214.312,57.52c0,0,5.688,6.371,6.636,8.259l7.466-6.371c0,0-5.569-7.432-6.756-7.904l-7.348,6.016H214.312z" class="st1"/><path d="M156.003,65.661l6.874-8.376l-7.823-5.781c0,0-5.808,6.133-6.517,8.493l7.466,5.661V65.661z" class="st1"/><path d="M141.544,8.445l-2.845-1.179l-0.117-1.416l1.778,0.235c0,0-0.71-4.483-3.911-4.483	c-3.201,0-4.029,4.011-4.029,4.011l1.54-0.117v1.771l-2.845,1.299v3.539h-7.822v11.915h7.822v11.208h-7.466v12.152h7.348v33.387	l1.067-4.837c0,0,3.911-21.944,18.013-33.504c7.11-6.371,17.303-11.325,17.303-11.325l-2.489-0.944l-23.703-5.309l0.356-16.397	V8.445z" class="st0"/><path d="M131.204,92.911v25.395l-0.445,0.886v11.237h-7.466v12.123h7.466v1.946c0,0,7.201,3.539,10.4-0.088v-3.538	l13.866,3.626l4.356-1.24l8.267-3.008c0,0-12.888-4.954-21.689-15.218c-8.8-10.264-12.532-22.475-13.598-29.286l-1.155-2.832	L131.204,92.911z" class="st0"/><path d="M53.962,135.648l-8.889-5.928l-4.091,4.776l8.712,6.637L53.962,135.648z" class="st0"/><path d="M132.417,5.613c0,0,6.518,0,7.94,0.472c0,0-1.184-4.6-3.911-4.483C133.719,1.72,132.653,4.434,132.417,5.613z" class="st1"/><path d="M136.685,27.792l21.568,4.955l2.845,1.533l6.282-3.184l-5.095-1.771l-20.623-4.011l-1.304,1.179L136.685,27.792	z" class="st1"/><path d="M130.995,47.376V57.64c0,0,4.977,1.061,6.992,0.827l2.845-5.192l-0.357-4.011l-8.532-2.36	C131.943,46.904,130.995,46.549,130.995,47.376z" class="st1"/><path d="M158.253,143.522l9.392-3.274l-6.429-3.096C161.216,137.152,162.282,141.28,158.253,143.522z" class="st1"/><path d="M131.586,117.805c0,0,1.541,1.061,3.437,0.944c1.897-0.117,5.334,0.589,5.926-0.827	c0,0-4.621-7.314-5.687-11.09c0,0-3.818-0.598-3.911-1.062c-0.094-0.464,0.093,0.467,0.093,0.467L131.586,117.805z" class="st1"/><path d="M141.159,140.866l-10.282-2.89l-0.118,6.517c0,0,1.321,1.317,4.86,1.269c3.539-0.048,5.54-1.357,5.54-1.357	V140.866z" class="st1"/><path d="M146.313,46.194l-5.066-3.715l-1.066,0.352l-4.445,6.549l0.445,1.061l4.176,2.832L146.313,46.194z" class="st5"/><path d="M131.204,81.144c0,0-4.177-0.973-6.223,0.176c-1.155,2.744,0,8.581,0,8.581l2.665,0.355l3.644-0.176	l-0.089-8.936H131.204z" class="st5"/><path d="M141.159,118.749c0,0-4.89,3.627-4.89,3.893c0,0.267,1.868,3.008,1.868,3.008l2.933,3.982	c0,0,1.423-0.088,1.956-0.443c0.533-0.355,3.999-3.275,3.999-3.275l-5.866-7.168V118.749z" class="st5"/><path d="M128.27,80.525l2.816,0.384V57.018c0,0-12.712-22.384-38.488-27.517c0,0-38.665-8.493-60.887,27.251	c0,0-10.667,19.112-6.665,38.931c4.002,19.819,18.487,34.949,31.376,40.877c12.888,5.928,27.467,5.574,31.909,5.222	c4.444-0.355,25.6-5.131,34.754-17.52c7.201-8.848,7.999-11.059,7.999-11.059V90.021l-2.933,0.267c0,0-1.868,17.254-11.466,26.189	c-9.599,8.936-17.954,15.749-38.132,15.749c-20.178,0-36.088-16.016-40.977-29.728c-4.889-13.715-4-28.667,3.734-41.408	c7.734-12.741,23.111-23.269,41.775-22.384c18.666,0.885,31.199,13.005,32.798,15.043c1.599,2.035,12.591,16.133,12.385,26.779	L128.27,80.525z" class="st0"/><path d="M128.091,80.88c0,0-6.577-28.077-36.798-36.099c-30.221-8.021-48.65,14.392-48.65,14.392S55.62,39,82.109,39	c26.49,0,43.613,22.296,45.984,41.88" class="st6"/><path d="M193.422,21.445c0.132,1.152,0.29,3.371-0.11,5.496" class="st7"/><path d="M184.268,26.941c0,0-0.482-2.728-0.12-5.533" class="st7"/><path d="M140.668,53.362c0,0-2.499-1.213-4.567-3.155c-0.343-0.32-0.426-0.832-0.206-1.245	c0.594-1.133,1.993-3.499,4.406-6.011c0.335-0.347,0.863-0.427,1.284-0.189c1.012,0.571,2.909,1.749,4.401,3.32" class="st7"/><path d="M240.172,48.272c-0.804,0.837-2.419,2.376-4.316,3.429" class="st7"/><path d="M230.073,44.778c0,0,1.797-2.112,4.197-3.629c0.188-0.117,0.4-0.171,0.609-0.16" class="st7"/><path d="M131.258,90.128c0,0-2.741,0.48-5.559,0.12c-0.466-0.059-0.836-0.424-0.903-0.885	c-0.187-1.264-0.455-3.997,0.016-7.443c0.064-0.477,0.445-0.851,0.924-0.904c1.158-0.131,3.387-0.288,5.522,0.109" class="st7"/><path d="M146.648,126.141c0,0-1.913,2.011-4.396,3.389c-0.41,0.23-0.925,0.155-1.257-0.176	c-0.908-0.904-2.757-2.941-4.439-5.989c-0.233-0.421-0.15-0.947,0.204-1.275c0.852-0.792,2.547-2.237,4.503-3.184" class="st7"/><path d="M235.214,130.034c-0.14-0.016-0.279-0.058-0.408-0.133c-1.01-0.576-2.898-1.768-4.38-3.349" class="st7"/><path d="M235.789,119.306c0,0,2.296,1.134,4.3,2.955" class="st7"/><path d="M193.221,144.399c0,0,0.482,2.728,0.121,5.534c-0.059,0.464-0.426,0.832-0.89,0.898	c-1.27,0.187-4.016,0.454-7.477-0.016c-0.479-0.064-0.854-0.442-0.908-0.92c-0.131-1.152-0.289-3.37,0.11-5.496" class="st7"/><path d="M252.227,89.941c-0.115,0.064-0.246,0.104-0.383,0.12c-1.157,0.131-3.386,0.288-5.521-0.109" class="st7"/><path d="M246.32,80.949c0,0,2.631-0.461,5.39-0.141" class="st7"/><path d="M141.48,17.962h11.407v6.885v1.563v1.107" class="st7"/><path d="M125.836,142.362H14.507v-124.4h108.84" class="st7"/><path d="M131.277,113.282c-9.768,17.352-28.416,29.08-49.818,29.08c-31.515,0-57.064-25.432-57.064-56.802	c0-31.371,25.549-56.803,57.064-56.803c21.383,0,40.018,11.707,49.791,29.032" class="st7"/><path d="M131.249,99.653c-5.974,21.792-26.004,37.813-49.793,37.813c-28.504,0-51.61-23-51.61-51.373	c0-28.373,23.106-51.373,51.61-51.373c23.826,0,43.881,16.072,49.82,37.917" class="st7"/><path d="M131.954,75.429c0.038,0.176,0.086,0.411,0.086,0.411" class="st7"/><path d="M128.209,90.607c-2.405,23.59-22.42,41.995-46.75,41.995c-25.954,0-46.994-20.944-46.994-46.779	c0-25.835,21.04-46.779,46.994-46.779c24.22,0,44.162,18.24,46.718,41.675" class="st7"/><path d="M58.725,44.858v42.117v7.256" class="st7"/><path d="M107.08,46.629v40.347v4.245" class="st7"/><path d="M183.957,144.653c-0.873-0.24-1.741-0.499-2.601-0.776" class="st7"/><path d="M193.677,22.517c2.02-0.208,4.072-0.315,6.145-0.315c33.49,0,60.641,27.888,60.641,62.288	c0,34.4-27.149,62.288-60.641,62.288c-2.129,0-4.235-0.112-6.309-0.333" class="st7"/><path d="M169.743,30.389c4.386-2.579,9.111-4.608,14.094-6.003" class="st7"/><path d="M234.37,129.53c-10.727,9.467-24.89,15.222-40.415,15.222c-0.198,0-0.396,0-0.594-0.003" class="st7"/><path d="M240.904,47.074c8.556,10.312,13.692,23.496,13.692,37.861c0,14.365-5.259,27.866-14,38.232" class="st7"/><path d="M193.626,25.119c0.11,0,0.22,0,0.329,0c15.699,0,30.005,5.885,40.774,15.539" class="st7"/><path d="M163.876,32.984c6.076-3.429,12.811-5.853,19.969-7.037" class="st7"/><path d="M188.694,144.328c31.687,0,57.375-26.225,57.375-58.574c0-32.349-25.688-58.573-57.375-58.573	s-57.375,26.224-57.375,58.573C131.319,118.103,157.007,144.328,188.694,144.328z" class="st7"/><path d="M188.56,134.642c26.321,0,47.658-21.783,47.658-48.653c0-26.87-21.337-48.653-47.658-48.653	s-47.658,21.783-47.658,48.653C140.902,112.859,162.239,134.642,188.56,134.642z" class="st7"/><path d="M188.56,124.765c20.977,0,37.982-17.361,37.982-38.776c0-21.415-17.005-38.776-37.982-38.776	s-37.982,17.361-37.982,38.776C150.578,107.404,167.583,124.765,188.56,124.765z" class="st7"/><path d="M188.52,114.168c15.362,0,27.815-12.713,27.815-28.395c0-15.682-12.453-28.395-27.815-28.395	s-27.816,12.713-27.816,28.395C160.704,101.455,173.158,114.168,188.52,114.168z" class="st7"/><path d="M188.669,96.992c6.093,0,11.032-5.042,11.032-11.261c0-6.219-4.939-11.261-11.032-11.261	c-6.092,0-11.031,5.042-11.031,11.261C177.638,91.95,182.577,96.992,188.669,96.992z" class="st7"/><path d="M136.087,48.245l-5.006-1.44V26.749" class="st7"/><path d="M141.465,25.181l21.919,4.579c1.446,0.301,2.759,0.8,3.889,1.448" class="st7"/><path d="M161.138,34.21c-1.299-1.016-2.979-1.787-4.91-2.192l-25.15-5.269l0.613-0.155" class="st7"/><path d="M130.842,138.024l22.495,6.061c3.981,1.072,7.922-1.827,7.922-5.832v-0.728" class="st7"/><path d="M130.842,118.061v20.056" class="st7"/><path d="M131.338,117.89l-0.496,0.171l8.305,2.099" class="st7"/><path d="M167.748,140.301l-10.028,3.419" class="st7"/><path d="M130.59,12.093h-7.037v11.944h7.037" class="st7"/><path d="M127.346,17.546c0.981,0,1.776-0.792,1.776-1.768c0-0.977-0.795-1.768-1.776-1.768	c-0.981,0-1.776,0.792-1.776,1.768C125.57,16.755,126.365,17.546,127.346,17.546z" class="st6"/><path d="M82.817,24.951c0.981,0,1.776-0.792,1.776-1.768c0-0.976-0.795-1.768-1.776-1.768	c-0.981,0-1.776,0.792-1.776,1.768C81.041,24.16,81.836,24.951,82.817,24.951z" class="st6"/><path d="M112.915,32.061c0.981,0,1.776-0.792,1.776-1.768s-0.795-1.768-1.776-1.768s-1.776,0.792-1.776,1.768	S111.934,32.061,112.915,32.061z" class="st6"/><path d="M54.672,30.149c0.981,0,1.776-0.792,1.776-1.768c0-0.976-0.795-1.768-1.776-1.768	c-0.981,0-1.776,0.792-1.776,1.768C52.896,29.357,53.691,30.149,54.672,30.149z" class="st6"/><path d="M20.149,73.701c0.981,0,1.776-0.791,1.776-1.768c0-0.976-0.795-1.768-1.776-1.768s-1.776,0.792-1.776,1.768	C18.373,72.909,19.168,73.701,20.149,73.701z" class="st6"/><path d="M20.564,100.896c0.981,0,1.776-0.792,1.776-1.769c0-0.976-0.795-1.768-1.776-1.768	c-0.981,0-1.776,0.792-1.776,1.768C18.788,100.104,19.583,100.896,20.564,100.896z" class="st6"/><path d="M30.993,126.434c0.981,0,1.776-0.791,1.776-1.768c0-0.976-0.795-1.768-1.776-1.768s-1.776,0.792-1.776,1.768	C29.217,125.643,30.012,126.434,30.993,126.434z" class="st6"/><path d="M34.312,46.274c0.981,0,1.776-0.792,1.776-1.768c0-0.976-0.795-1.768-1.776-1.768	c-0.981,0-1.776,0.792-1.776,1.768C32.536,45.483,33.331,46.274,34.312,46.274z" class="st6"/><path d="M127.346,22.146c0.981,0,1.776-0.792,1.776-1.768c0-0.977-0.795-1.768-1.776-1.768	c-0.981,0-1.776,0.791-1.776,1.768C125.57,21.355,126.365,22.146,127.346,22.146z" class="st6"/><path d="M131.08,35.333h-7.289v11.944h7.319" class="st7"/><path d="M127.745,40.743c0.981,0,1.776-0.792,1.776-1.768c0-0.976-0.795-1.768-1.776-1.768	c-0.981,0-1.776,0.792-1.776,1.768C125.969,39.952,126.764,40.743,127.745,40.743z" class="st6"/><path d="M127.745,45.343c0.981,0,1.776-0.792,1.776-1.768c0-0.976-0.795-1.768-1.776-1.768	c-0.981,0-1.776,0.792-1.776,1.768C125.969,44.552,126.764,45.343,127.745,45.343z" class="st6"/><path d="M130.591,130.405h-7.29v11.944h7.319" class="st7"/><path d="M127.258,135.816c0.981,0,1.776-0.792,1.776-1.768c0-0.977-0.795-1.768-1.776-1.768	c-0.981,0-1.776,0.791-1.776,1.768C125.482,135.024,126.277,135.816,127.258,135.816z" class="st6"/><path d="M45.571,135.578c0.981,0,1.776-0.791,1.776-1.768c0-0.976-0.795-1.768-1.776-1.768	c-0.981,0-1.776,0.792-1.776,1.768C43.795,134.787,44.591,135.578,45.571,135.578z" class="st6"/><path d="M49.303,138.469c0.981,0,1.776-0.792,1.776-1.768c0-0.977-0.795-1.768-1.776-1.768	c-0.981,0-1.776,0.791-1.776,1.768C47.527,137.677,48.322,138.469,49.303,138.469z" class="st6"/><path d="M127.258,140.416c0.981,0,1.776-0.792,1.776-1.768c0-0.977-0.795-1.768-1.776-1.768	c-0.981,0-1.776,0.791-1.776,1.768C125.482,139.624,126.277,140.416,127.258,140.416z" class="st6"/><path d="M141.331,25.733c0,0.896-2.31,1.621-5.155,1.621s-5.154-0.725-5.154-1.621" class="st7"/><path d="M131.019,8.778c0-0.896,2.309-1.621,5.154-1.621s5.154,0.725,5.154,1.621" class="st7"/><path d="M140.168,6.103c-0.946-0.363-2.382-0.595-3.992-0.595c-1.423,0-2.714,0.181-3.646,0.475	c0,0,0.415-4.347,3.882-4.347C139.878,1.637,140.168,6.103,140.168,6.103z" class="st7"/><path d="M131.019,8.778v16.955" class="st7"/><path d="M141.301,8.49v17.427" class="st7"/><path d="M141.124,144.296c0,0.896-2.309,1.621-5.154,1.621s-5.154-0.725-5.154-1.621" class="st7"/><path d="M130.813,138.117v6.179" class="st7"/><path d="M141.111,140.952v3.442" class="st7"/><path d="M140.792,118.224c-0.911,0.458-2.532,0.765-4.378,0.765c-2.847,0-5.154-0.725-5.154-1.621" class="st7"/><path d="M137.749,58.533c-0.426,0.035-0.874,0.056-1.337,0.056c-2.848,0-5.155-0.725-5.155-1.621" class="st7"/><path d="M133.034,70.813c-1.088-0.299-1.777-0.736-1.777-1.227" class="st7"/><path d="M135.086,106.872c-2.205-0.184-3.829-0.816-3.829-1.568" class="st7"/><path d="M131.257,111.189v6.179" class="st7"/><path d="M133.969,7.287V6.111" class="st7"/><path d="M138.59,7.333V6.154" class="st7"/><path d="M131.257,47.218v10.499v60.168" class="st7"/><path d="M45.191,129.562l-4.243,5.198l8.61,6.365l4.369-5.328" class="st7"/><path d="M183.524,47.424v-9.555" class="st7"/><path d="M193.923,47.424v-9.555" class="st7"/><path d="M156.231,65.578l-7.705-5.699" class="st7"/><path d="M162.73,57.269l-7.707-5.699" class="st7"/><path d="M220.921,65.6l7.378-6.112" class="st7"/><path d="M214.505,57.482l7.381-6.112" class="st7"/><path d="M155.146,120.458l7.377-6.114" class="st7"/><path d="M148.73,112.338l7.38-6.112" class="st7"/><path d="M222.006,120.701l-7.704-5.699" class="st7"/><path d="M228.506,112.392l-7.708-5.702" class="st7"/><path d="M183.524,134.016v-9.555" class="st7"/><path d="M193.923,134.016v-9.555" class="st7"/><path d="M186.277,57.599v16.899" class="st7"/><path d="M191.255,57.599v16.899" class="st7"/><path d="M186.277,97.002v16.899" class="st7"/><path d="M191.255,97.002v16.899" class="st7"/><path d="M194.365,82.669h-11.911v6.195h11.911V82.669z" class="st6"/><path d="M177.745,84.055h-16.8" class="st7"/><path d="M177.745,88.301h-16.8" class="st7"/><path d="M215.995,84.055h-16.384" class="st7"/><path d="M215.995,88.301h-16.384" class="st7"/><path d="M150.811,90.632h-9.48" class="st7"/><path d="M150.811,80.605h-9.48" class="st7"/><path d="M235.905,90.632h-9.481" class="st7"/><path d="M235.905,80.605h-9.481" class="st7"/><path d="M178.937,79.791l-12.808-10.659" class="st7"/><path d="M182.27,76.432L169.465,65.77" class="st7"/><path d="M198.44,80.146l12.806-10.661" class="st7"/><path d="M195.284,76.608l12.805-10.661" class="st7"/><path d="M169.465,105.893l12.805-10.659" class="st7"/><path d="M166.309,102.354l12.805-10.661" class="st7"/><path d="M207.706,105.776l-12.805-10.662" class="st7"/><path d="M211.039,102.413l-12.806-10.661" class="st7"/><path d="M240.205,48.248c0.887-0.656,0.412-2.786-1.059-4.756c-1.472-1.97-3.384-3.035-4.271-2.378	c-0.887,0.657-0.413,2.786,1.059,4.756C237.406,47.84,239.318,48.904,240.205,48.248z" class="st7"/><path d="M188.814,22.322c2.545,0,4.608-0.445,4.608-0.995c0-0.549-2.063-0.995-4.608-0.995	c-2.544,0-4.607,0.445-4.607,0.995C184.207,21.877,186.27,22.322,188.814,22.322z" class="st7"/><path d="M252.215,89.931c1.104-0.046,1.915-2.119,1.81-4.631c-0.105-2.512-1.085-4.511-2.19-4.465	c-1.104,0.046-1.914,2.119-1.809,4.631C250.131,87.978,251.111,89.977,252.215,89.931z" class="st7"/><path d="M239.264,127.151c1.355-2.121,1.698-4.319,0.765-4.91c-0.932-0.59-2.787,0.651-4.142,2.772	c-1.356,2.121-1.699,4.32-0.766,4.91C236.053,130.514,237.908,129.273,239.264,127.151z" class="st7"/><path d="M190.633,76.887h-3.911v3.893h3.911V76.887z" class="st7"/><path d="M190.633,90.338h-3.911v3.893h3.911V90.338z" class="st7"/><path d="M96.014,94.496h13.349c0.147,0,0.281,0.077,0.356,0.203l3.887,6.611c0.161,0.275-0.037,0.619-0.356,0.619	H92.129c-0.319,0-0.517-0.344-0.356-0.619l3.887-6.611c0.075-0.125,0.209-0.203,0.356-0.203H96.014z" class="st7"/><path d="M74.091,94.496H87.44c0.147,0,0.281,0.077,0.356,0.203l3.887,6.611c0.161,0.275-0.037,0.619-0.356,0.619H70.207	c-0.319,0-0.517-0.344-0.356-0.619l3.887-6.611c0.075-0.125,0.209-0.203,0.356-0.203H74.091z" class="st7"/><path d="M52.167,94.496h13.349c0.147,0,0.281,0.077,0.356,0.203l3.887,6.611c0.161,0.275-0.037,0.619-0.356,0.619	H48.283c-0.319,0-0.517-0.344-0.356-0.619l3.887-6.611c0.075-0.125,0.209-0.203,0.356-0.203H52.167z" class="st7"/><path d="M96.014,109.36h13.349c0.147,0,0.281,0.077,0.356,0.202l3.887,6.611c0.161,0.275-0.037,0.619-0.356,0.619	H92.129c-0.319,0-0.517-0.344-0.356-0.619l3.887-6.611c0.075-0.125,0.209-0.202,0.356-0.202H96.014z" class="st7"/><path d="M114.903,116.792h-0.82c-0.319,0-0.517-0.344-0.356-0.619l3.887-6.611c0.075-0.125,0.209-0.202,0.356-0.202	h2.505" class="st7"/><path d="M74.091,109.36H87.44c0.147,0,0.281,0.077,0.356,0.202l3.887,6.611c0.161,0.275-0.037,0.619-0.356,0.619H70.207	c-0.319,0-0.517-0.344-0.356-0.619l3.887-6.611c0.075-0.125,0.209-0.202,0.356-0.202H74.091z" class="st7"/><path d="M52.167,109.36h13.349c0.147,0,0.281,0.077,0.356,0.202l3.887,6.611c0.161,0.275-0.037,0.619-0.356,0.619	H48.283c-0.319,0-0.517-0.344-0.356-0.619l3.887-6.611c0.075-0.125,0.209-0.202,0.356-0.202H52.167z" class="st7"/><path d="M91.772,131.039l3.887-6.61c0.075-0.125,0.209-0.203,0.356-0.203h10.311" class="st7"/><path d="M69.848,131.039l3.887-6.61c0.075-0.125,0.209-0.203,0.356-0.203h13.349c0.147,0,0.281,0.078,0.356,0.203	l3.78,6.429" class="st7"/><path d="M54.726,124.224h10.791c0.147,0,0.281,0.077,0.356,0.202l3.772,6.416" class="st7"/><path d="M40.993,109.36h2.566c0.147,0,0.281,0.077,0.356,0.202l3.887,6.611c0.161,0.275-0.037,0.619-0.356,0.619h-1.254" class="st7"/><path d="M85.169,87.063h13.349c0.147,0,0.281,0.077,0.356,0.203l3.887,6.611c0.161,0.275-0.038,0.619-0.357,0.619	h-21.12c-0.319,0-0.517-0.344-0.356-0.619l3.887-6.611c0.075-0.125,0.209-0.203,0.356-0.203H85.169z" class="st7"/><path d="M74.06,79.455h13.349c0.147,0,0.281,0.077,0.356,0.203l3.887,6.611c0.161,0.275-0.037,0.619-0.356,0.619H70.175	c-0.319,0-0.517-0.344-0.356-0.619l3.887-6.611c0.075-0.125,0.209-0.203,0.356-0.203H74.06z" class="st7"/><path d="M63.248,87.063h13.349c0.147,0,0.281,0.077,0.356,0.203l3.887,6.611c0.161,0.275-0.037,0.619-0.356,0.619	H59.363c-0.319,0-0.517-0.344-0.356-0.619l3.887-6.611c0.075-0.125,0.209-0.203,0.356-0.203H63.248z" class="st7"/><path d="M85.169,101.928h13.349c0.147,0,0.281,0.077,0.356,0.202l3.887,6.611c0.161,0.275-0.038,0.619-0.357,0.619	h-21.12c-0.319,0-0.517-0.344-0.356-0.619l3.887-6.611c0.075-0.125,0.209-0.202,0.356-0.202H85.169z" class="st7"/><path d="M122.071,109.36h-18.833c-0.318,0-0.517-0.344-0.356-0.619l3.887-6.611c0.075-0.125,0.209-0.202,0.357-0.202	h13.349c0.147,0,0.281,0.077,0.356,0.202l1.798,3.059l0.809,1.427" class="st7"/><path d="M63.248,101.928h13.349c0.147,0,0.281,0.077,0.356,0.202l3.887,6.611c0.161,0.275-0.037,0.619-0.356,0.619	H59.363c-0.319,0-0.517-0.344-0.356-0.619l3.887-6.611c0.075-0.125,0.209-0.202,0.356-0.202H63.248z" class="st7"/><path d="M38.858,105.362l1.899-3.232c0.075-0.125,0.209-0.202,0.356-0.202h13.349c0.147,0,0.281,0.077,0.356,0.202	l3.887,6.611c0.161,0.275-0.038,0.619-0.356,0.619H40.996" class="st7"/><path d="M85.169,116.792h13.349c0.147,0,0.281,0.077,0.356,0.202l3.887,6.611c0.161,0.275-0.038,0.619-0.357,0.619	h-21.12c-0.319,0-0.517-0.344-0.356-0.619l3.887-6.611c0.075-0.125,0.209-0.202,0.356-0.202H85.169z" class="st7"/><path d="M106.325,124.224h0.281" class="st7"/><path d="M108.385,124.224h-5.147c-0.318,0-0.517-0.344-0.356-0.619l3.887-6.611c0.075-0.125,0.209-0.202,0.357-0.202	h9.555" class="st7"/><path d="M63.248,116.792h13.349c0.147,0,0.281,0.077,0.356,0.202l3.887,6.611c0.161,0.275-0.037,0.619-0.356,0.619	H59.363c-0.319,0-0.517-0.344-0.356-0.619l3.887-6.611c0.075-0.125,0.209-0.202,0.356-0.202H63.248z" class="st7"/><path d="M46.461,116.792h8.002c0.147,0,0.281,0.077,0.356,0.202l3.887,6.611c0.161,0.275-0.037,0.619-0.356,0.619	h-3.622" class="st7"/><path d="M87.406,79.455h5.717c0.311,0,0.6,0.165,0.756,0.435l4.134,7.173" class="st7"/><path d="M98.191,87.005h5.717c0.311,0,0.6,0.165,0.756,0.435l3.954,6.864" class="st7"/><path d="M109.271,94.496h5.717c0.311,0,0.6,0.165,0.756,0.435l3.956,6.867" class="st7"/><path d="M120.413,101.928h5.095" class="st7"/><path d="M132.442,5.904L1.661,5.928v136.434h12.845" class="st7"/><path d="M152.887,17.962l-0.088-12.064l-12.535,0.003" class="st7"/><path d="M74.159,84.056c0,0,0.356-4.483,1.897-5.544c1.54-1.061,4.147-1.651,4.147-1.651s-4.029-0.235-4.86-2.36	c-0.83-2.123-1.658-4.011-1.658-4.011s-0.236,3.421-1.897,4.483c-1.661,1.061-4.742,1.888-4.742,1.888s4.621,0.472,5.452,2.477	c0.83,2.005,1.658,4.72,1.658,4.72L74.159,84.056z" class="st8"/><path d="M81.837,76.69c-6.135,0.907-6.874,1.645-7.785,7.749c-0.911-6.107-1.653-6.843-7.785-7.749	c6.135-0.907,6.874-1.645,7.785-7.749C74.962,75.048,75.704,75.784,81.837,76.69z" class="st7"/></svg>