<svg xmlns="http://www.w3.org/2000/svg" xmlns:xlink="http://www.w3.org/1999/xlink" id="Layer_1" x="0" y="0" version="1.1" viewBox="0 0 68 68" style="enable-background:new 0 0 68 68" xml:space="preserve"><style type="text/css">.st0{fill:#ffed8f}.st1{fill:#d18000}.st2{fill:#f25730}.st3{fill:#00b268}.st4{fill:#0164bf}.st5{fill:none;stroke:#002140;stroke-linecap:round;stroke-linejoin:round}</style><path d="M16.9,15.3l-0.2-4.1c0,0-0.5-1.4-1.9-1.4s-3,0.4-3,1.6v38.4H7.4v8.3h53.4V50H17L16.9,15.3z" class="st0"/><path d="M51.2,53.1V11.6c0,0,0.8-1.8,2.7-1.8c1.9,0,2.6,1.6,2.6,1.6l0.1,41.8L51.2,53.1z" class="st0"/><path d="M11.2,49.6H7.1v3.9h4.1V49.6z" class="st1"/><path d="M51,49.8H16.7v3.3h34.2v-3.3H51z" class="st1"/><path d="M60.6,49.7h-4.1v3.8h4.1V49.7z" class="st1"/><path d="M50.7,14.6H16.9v4h33.9v-4H50.7z" class="st1"/><path d="M20.4,29c2,0,3.6-1.6,3.6-3.7c0-2-1.5-3.7-3.6-3.7c-2,0-3.6,1.6-3.6,3.7C16.9,27.4,18.4,29,20.4,29z" class="st2"/><path d="M28.1,29c2,0,3.6-1.6,3.6-3.7c0-2-1.5-3.7-3.6-3.7s-3.6,1.6-3.6,3.7C24.6,27.3,26.2,29,28.1,29z" class="st2"/><path d="M35.8,28.9c2,0,3.6-1.6,3.6-3.7c0-2-1.5-3.7-3.6-3.7c-2,0-3.6,1.6-3.6,3.7C32.2,27.2,33.8,28.9,35.8,28.9z" class="st2"/><path d="M46.9,37.3c2,0,3.6-1.6,3.6-3.7c0-2-1.5-3.7-3.6-3.7c-2,0-3.6,1.6-3.6,3.7C43.4,35.7,44.9,37.3,46.9,37.3z" class="st3"/><path d="M20.9,44.7c2.1,0,3.8-1.7,3.8-3.9c0-2.1-1.6-3.9-3.8-3.9c-2.1,0-3.8,1.7-3.8,3.9C17.1,43,18.9,44.7,20.9,44.7z" class="st4"/><path d="M28.5,44.5c2.1,0,3.8-1.7,3.8-3.9c0-2.1-1.6-3.9-3.8-3.9c-2.1,0-3.8,1.7-3.8,3.9C24.8,42.8,26.5,44.5,28.5,44.5	z" class="st4"/><path d="M56.7,49.9h4.1v8.3H7.3v-8.3h3.9" class="st5"/><path d="M16.9,49.9h33.8" class="st5"/><path d="M7.6,53.6h53.2" class="st5"/><path d="M16.8,53.4V11.7c0-1-0.8-1.9-1.9-1.9h-1.4c-1,0-1.9,0.8-1.9,1.9v41.6" class="st5"/><path d="M56.4,53.4V11.7c0-1-0.8-1.9-1.9-1.9h-1.4c-1,0-1.9,0.8-1.9,1.9v41.6" class="st5"/><path d="M16.9,15h33.9" class="st5"/><path d="M16.9,18.6h33.9" class="st5"/><path d="M39.4,25.3h11.3" class="st5"/><path d="M16.9,33.1h26" class="st5"/><path d="M32.2,40.7h18.4" class="st5"/><path d="M20.4,29.1c2.1,0,3.7-1.7,3.7-3.8s-1.6-3.8-3.7-3.8s-3.7,1.7-3.7,3.8S18.3,29.1,20.4,29.1z" class="st5"/><path d="M28.1,29.1c2.1,0,3.7-1.7,3.7-3.8s-1.6-3.8-3.7-3.8s-3.7,1.7-3.7,3.8S26.1,29.1,28.1,29.1z" class="st5"/><path d="M35.6,29.1c2.1,0,3.7-1.7,3.7-3.8s-1.6-3.8-3.7-3.8s-3.7,1.7-3.7,3.8S33.6,29.1,35.6,29.1z" class="st5"/><path d="M20.8,44.5c2.1,0,3.7-1.7,3.7-3.8c0-2.1-1.6-3.8-3.7-3.8s-3.7,1.7-3.7,3.8C17.1,42.8,18.8,44.5,20.8,44.5z" class="st5"/><path d="M28.5,44.5c2.1,0,3.7-1.7,3.7-3.8c0-2.1-1.6-3.8-3.7-3.8s-3.7,1.7-3.7,3.8C24.8,42.8,26.5,44.5,28.5,44.5z" class="st5"/><path d="M46.7,37.2c2.1,0,3.7-1.7,3.7-3.8s-1.6-3.8-3.7-3.8S43,31.4,43,33.5S44.6,37.2,46.7,37.2z" class="st5"/></svg>