<svg xmlns="http://www.w3.org/2000/svg" xmlns:xlink="http://www.w3.org/1999/xlink" id="Layer_1" x="0" y="0" version="1.1" viewBox="0 0 68 68" style="enable-background:new 0 0 68 68" xml:space="preserve"><style type="text/css">.st0{fill:#0164bf;stroke:#002140;stroke-linecap:round;stroke-linejoin:round}.st1{fill:#b0d9ff}.st2{fill:#fffaf0}.st3{fill:#fed607}.st4{fill:none;stroke:#002140;stroke-linecap:round;stroke-linejoin:round}</style><path d="M42.97,59c0.508,0,1.959-0.373,1.959-1.847s-1.397-1.847-1.959-1.847c-0.261,0-17.466,0-17.709,0	c-0.508,0-1.959,0.373-1.959,1.847S24.699,59,25.261,59H42.97z" class="st0"/><path d="M42.97,12.164c0.508,0,1.959-0.373,1.959-1.847c0-1.474-1.397-1.847-1.959-1.847H25.261	c-0.508,0-1.959,0.373-1.959,1.847c0,1.474,1.397,1.847,1.959,1.847H42.97z" class="st0"/><path d="M45.72,14.024c2.382,1.784,3.154,4.35,2.382,7.284c-1.424,5.406-11.144,8.529-11.211,12.429v0.04	c0.067,3.9,9.782,7.023,11.211,12.429c0.773,2.934,0,5.5-2.382,7.284c-2.382,1.784-6.412,2.498-11.458,2.498h-0.193	c-5.046,0-9.077-0.715-11.459-2.498c-2.382-1.784-3.154-4.35-2.377-7.284c1.425-5.406,11.144-8.529,11.207-12.429v-0.04	c-0.067-3.9-9.782-7.023-11.207-12.429c-0.773-2.934-0.004-5.5,2.377-7.284s6.412-2.498,11.459-2.498h0.193	C39.308,11.526,43.339,12.24,45.72,14.024z M42.768,52.116c1.186-0.593,1.33-1.361,0.445-1.968c0,0-5.94-4.035-8.947-4.035h-0.099	c-3.006,0-8.947,4.035-8.947,4.035c-0.885,0.607-0.746,1.375,0.44,1.968c1.258,0.629,2.889,1.191,8.461,1.191h0.189	c5.572,0,7.203-0.562,8.461-1.191H42.768z M34.787,33.369c0-0.445-0.36-0.809-0.809-0.809c-0.449,0-0.809,0.364-0.809,0.809	c0,0.445,0.36,0.809,0.809,0.809C34.428,34.178,34.787,33.814,34.787,33.369z M34.787,39.943c0-0.445-0.36-0.809-0.809-0.809	c-0.449,0-0.809,0.364-0.809,0.809s0.36,0.809,0.809,0.809C34.428,40.752,34.787,40.388,34.787,39.943z" class="st1"/><path d="M44.277,43.668c2.377,2.444,3.155,5.127,1.645,5.554c-1.708,0.476-1.64-1.802-4.732-4.193	c-2.764-2.134-3.191-3.091-2.413-3.954C39.46,40.312,41.343,40.653,44.277,43.668z" class="st2"/><path d="M43.208,50.152c0.885,0.607,0.746,1.375-0.445,1.968c-1.258,0.629-2.889,1.191-8.461,1.191h-0.189	c-5.572,0-7.203-0.562-8.461-1.191c-1.186-0.593-1.326-1.362-0.44-1.968c0,0,5.941-4.035,8.947-4.035h0.099	c3.006,0,8.947,4.035,8.947,4.035H43.208z" class="st3"/><path d="M41.532,22.962c0.706,0,0.998,0.836,0.422,1.218c0,0-5.217,4.354-7.891,4.354s-8.07-4.354-8.07-4.354	c-0.571-0.382-0.283-1.218,0.422-1.218h15.112H41.532z" class="st3"/><path d="M33.978,32.564c0.449,0,0.809,0.364,0.809,0.809s-0.36,0.809-0.809,0.809c-0.449,0-0.809-0.364-0.809-0.809	S33.529,32.564,33.978,32.564z" class="st3"/><path d="M33.978,39.139c0.449,0,0.809,0.364,0.809,0.809c0,0.445-0.36,0.809-0.809,0.809	c-0.449,0-0.809-0.364-0.809-0.809C33.169,39.503,33.529,39.139,33.978,39.139z" class="st3"/><path d="M45.177,15.795c2.098,2.507,1.609,6.956-0.234,6.938c-1.609-0.014-0.126-1.546-1.267-4.04	c-1.141-2.494-3.73-2.746-2.894-4.201c0.62-1.087,2.894-0.49,4.395,1.308V15.795z" class="st2"/><path d="M31.435,33.778c-0.067,3.9-9.782,7.023-11.207,12.429c-0.773,2.934-0.005,5.5,2.377,7.284	c2.382,1.784,6.412,2.498,11.459,2.498" class="st4"/><path d="M36.89,33.778c0.067,3.9,9.782,7.023,11.211,12.429c0.773,2.934,0,5.5-2.382,7.284	c-2.382,1.784-6.412,2.498-11.459,2.498" class="st4"/><path d="M36.89,33.778v-0.04c0.067-3.9,9.782-7.023,11.211-12.429c0.773-2.934,0-5.5-2.382-7.284	s-6.412-2.498-11.459-2.498" class="st4"/><path d="M31.435,33.778v-0.04c-0.067-3.9-9.782-7.023-11.207-12.429c-0.773-2.934-0.005-5.5,2.377-7.284	s6.412-2.498,11.459-2.498" class="st4"/><path d="M26.42,22.962h15.112c0.706,0,0.998,0.836,0.422,1.218c0,0-5.217,4.354-7.891,4.354s-8.07-4.354-8.07-4.354	c-0.571-0.382-0.283-1.218,0.422-1.218H26.42z" class="st4"/><path d="M34.113,53.307c-5.572,0-7.203-0.562-8.461-1.191c-1.186-0.593-1.326-1.362-0.44-1.968	c0,0,5.941-4.035,8.947-4.035" class="st4"/><path d="M34.302,53.307c5.572,0,7.203-0.562,8.461-1.191c1.186-0.593,1.33-1.362,0.445-1.968	c0,0-5.941-4.035-8.947-4.035" class="st4"/><path d="M34.787,33.373c0,0.445-0.36,0.809-0.809,0.809c-0.449,0-0.809-0.364-0.809-0.809s0.36-0.809,0.809-0.809	C34.428,32.564,34.787,32.928,34.787,33.373z" class="st4"/><path d="M34.787,39.947c0,0.445-0.36,0.809-0.809,0.809c-0.449,0-0.809-0.364-0.809-0.809	c0-0.445,0.36-0.809,0.809-0.809C34.428,39.139,34.787,39.503,34.787,39.947z" class="st4"/></svg>