<?xml version="1.0" encoding="utf-8"?>
<!-- Generator: Adobe Illustrator 27.3.1, SVG Export Plug-In . SVG Version: 6.00 Build 0)  -->
<svg version="1.1" id="Layer_1" xmlns="http://www.w3.org/2000/svg" xmlns:xlink="http://www.w3.org/1999/xlink" x="0px" y="0px"
	 viewBox="0 0 65 65" style="enable-background:new 0 0 65 65;" xml:space="preserve">
<style type="text/css">
	.st0{fill:#F4C5FF;}
	.st1{fill:none;stroke:#002140;stroke-linecap:round;stroke-linejoin:round;}
	.st2{fill:#FFE688;}
	.st3{fill:#92F0FF;}
	.st4{fill:#C98000;}
	.st5{fill:#DEF3F7;}
</style>
<path class="st0" d="M27.2,54.3l1.9-1.7l2.5,2.1l2.3-1.7l2.4,1.7l2.4-1.6l2.1,1.3l2.6-1.5l2.6,1.7l2.2-1.7l2.3,1.7l2.3-1.7l2.5,1.7
	l-0.3-43.7H26.8L27.2,54.3z"/>
<path class="st1" d="M55.3,55V10.8l-28.5-0.1v44.2"/>
<path class="st1" d="M55.1,55l-2.4-2.3L50.4,55l-2.4-2.3L45.7,55l-2.4-2.3L41,55l-2.4-2.3L36.3,55l-2.4-2.3L31.6,55l-2.4-2.3
	L26.9,55"/>
<path class="st1" d="M51.6,47.8h-1.5"/>
<path class="st1" d="M47.6,47.8H33.5"/>
<path class="st1" d="M32.2,47.8h-1.5"/>
<path class="st1" d="M51.4,15.9h-1.5"/>
<path class="st1" d="M47.3,15.9H33.2"/>
<path class="st1" d="M31.9,15.9h-1.5"/>
<path class="st1" d="M51.6,31.8h-1.5"/>
<path class="st1" d="M47.6,31.8H33.5"/>
<path class="st1" d="M32.2,31.8h-1.5"/>
<path class="st1" d="M51.8,43.5H40.3"/>
<path class="st1" d="M51.8,39.8H40.3"/>
<path class="st1" d="M51.8,27.3H40.3"/>
<path class="st1" d="M51.8,22.6H40.3"/>
<path class="st2" d="M31.1,44.1c10.5,0,19-8.5,19-19s-8.5-19-19-19s-19,8.5-19,19S20.6,44.1,31.1,44.1z"/>
<path class="st3" d="M31.3,40.5c8.5,0,15.4-6.9,15.4-15.4c0-8.5-6.9-15.4-15.4-15.4c-8.5,0-15.4,6.9-15.4,15.4
	C15.9,33.6,22.8,40.5,31.3,40.5z"/>
<path class="st4" d="M21.9,41.8l-6.2-5.5l-13.2,13c0,0-0.8,3.1,0.7,5c1.6,1.9,5.1,1,5.4,0.6C9,54.5,21.9,41.8,21.9,41.8L21.9,41.8z"
	/>
<path class="st5" d="M43.7,18.2H25.5v20.9c0,0,9.2,3.9,16.6-2.9C49.5,29.3,45.2,18.4,43.7,18.2L43.7,18.2z"/>
<path class="st5" d="M20.4,14.2c-1,1,2.3,1.7,3.6,1.4c1.4-0.4,2.6-1.2,3.9-1.7c1.4-0.4,2.9-0.4,4.3-0.7c1.4-0.4,2.8-1.4,2.9-2.8
	C35.2,10.4,26.6,7.7,20.4,14.2L20.4,14.2z"/>
<path class="st1" d="M44.4,17.9h-19V39"/>
<path class="st1" d="M30,28.9h15.7"/>
<path class="st1" d="M31,43.9c10.4,0,18.8-8.4,18.8-18.8S41.4,6.3,31,6.3s-18.8,8.4-18.8,18.8S20.6,43.9,31,43.9z"/>
<path class="st1" d="M31,40.4c8.5,0,15.3-6.9,15.3-15.3S39.5,9.8,31,9.8s-15.3,6.9-15.3,15.3S22.5,40.4,31,40.4z"/>
<path class="st1" d="M15.6,36.4L3.2,48.7c-1.6,1.6-1.6,4.2,0,5.8s4.2,1.6,5.8,0l12.7-12.7"/>
<path class="st1" d="M29.8,35.3h12.6"/>
<path class="st1" d="M29.8,22.9h16.1"/>
</svg>
