<svg xmlns="http://www.w3.org/2000/svg" viewBox="0 0 68 68"><path fill="#002140" d="M51.148 25.033h-2.053v-.013l-3.15-3.15h-.027q.034-.205.06-.414c.033-.29.05-.596.05-.93 0-.2-.017-.41-.04-.61h.04z"/><path fill="#0164bf" d="M57.278 53.133H45.87v3.203h11.407z"/><path fill="#f25730" d="M24.028 15.127q1.4-.775 2.8 0 1.396.774 2.796 0 1.4-.775 2.797 0 1.4.774 2.797 0 1.4-.775 2.8 0a3.22 3.22 0 0 0 3.063 0c.657-.307 1.143-.86 1.34-1.43h.067c.35.01.343-.014.776-.097q2.956-.614 4.027 1.226c.793 1.49.203 3.464-1.4 4.484q-.355.227-.77.383c-.953.367-2.137.624-3.417.84-.34-1.747-.596-3.893-3.736-3.893h-15.02c-1.94.05-3.064 1.44-3.397 3.073l-.11-.02c-2.17-.813-3.077-3.157-2.17-4.867q1.07-1.84 4.027-1.226c.913.167.643.093 1.036.14-.006.937.844 1.84 1.697 1.386z"/><path fill="#ffa75a" d="M45.871 25.297v-.264h11.407v28.1H45.87z"/><path fill="#fed607" d="M23.051 25.023c-.2 0-.386-.013-.57-.043a3.2 3.2 0 0 1-1.913-1.02c-.983-1.067-1.333-2.76-1.027-4.25.334-1.637 1.457-3.027 3.397-3.073h15.02c3.14 0 3.397 2.146 3.737 3.893 1.28-.217 2.463-.474 3.416-.84q.416-.158.77-.384c.037.174.074.387.1.61.024.2.04.414.04.61q0 .495-.05.93-.024.211-.06.407a4.8 4.8 0 0 1-.353 1.177 3.2 3.2 0 0 1-.637.933c-.503.514-1.16.82-1.936.957q-.502.088-1.064.087H23.045z"/><path fill="#0164bf" d="M45.871 53.133h-10.93v3.203h10.93z"/><path fill="#fffaf0" d="m45.871 25.297-6.947 7.973-1.083 1.246h-4.84l8.177-9.386v-.097h4.693z"/><path fill="#8dc8ff" d="M43.865 38.233v3.43h-.117l-7.007 7.004V43.09l4.857-4.857z"/><path fill="#0185ff" d="M43.865 41.663v7.003H36.74l7.007-7.003z"/><path fill="#002140" d="M38.944 33.283h3.934c1.016 0 1.016 1.484 0 1.484H37.83q.01-.12.01-.254l1.087-1.246.02.013z"/><path fill="#0185ff" d="M41.598 38.233 36.74 43.09v-4.857z"/><path fill="#fed607" d="M26.824 11.887q1.396.774 2.797 0 1.398-.775 2.796 0 1.401.774 2.797 0 1.4-.775 2.8 0 1.395.774 2.797 0c.956-.504 1.876.503 1.673 1.563q-.026.122-.067.243c-.196.57-.683 1.124-1.34 1.43a3.22 3.22 0 0 1-3.063 0q-1.4-.774-2.8 0-1.395.775-2.797 0-1.398-.774-2.796 0-1.402.775-2.797 0-1.4-.774-2.8 0c-.853.45-1.707-.45-1.697-1.386 0-.054 0-.11.01-.164.08-.703.52-1.303 1.34-1.687.934-.516 2.214-.516 3.147 0"/><path fill="#f25730" d="M41.178 25.033v.097l-8.177 9.387h-4.39l8.177-9.387v-.097z"/><path fill="#fffaf0" d="m36.787 25.13-8.176 9.387h-4.39l8.176-9.387v-.097h4.39z"/><path fill="#0185ff" d="M34.94 53.133v3.203h-7.72v-6.7h7.72z"/><path fill="#002140" d="M34.94 48.163h-7.72v1.473h7.72z"/><path fill="#0185ff" d="M34.94 41h-7.72v7.163h7.72z"/><path fill="#fffaf0" d="M37.831 34.767c-.237 2.793-4.38 2.71-4.38-.254h4.39q0 .13-.01.254"/><path fill="#f25730" d="m32.398 25.13-8.177 9.387h-4.39l8.177-9.387v-.097h4.39zm1.05 9.387c0 3.046-4.39 3.046-4.39 0z"/><path fill="#0164bf" d="M27.22 53.133H16.858v3.203h10.364z"/><path fill="#8dc8ff" d="M25.521 38.233v3.43h-.12l-7.006 7.004V43.09l4.86-4.857z"/><path fill="#0185ff" d="M25.521 41.663v7.003h-7.126l7.006-7.003z"/><path fill="#fffaf0" d="M29.058 34.517c0 3.046-4.39 3.046-4.39 0z"/><path fill="#f25730" d="M23.771 25.033v.097l-8.177 9.387h-4.093l8.177-9.387.086-.097z"/><path fill="#0185ff" d="m23.255 38.233-4.86 4.857v-4.857z"/><path fill="#f25730" d="M24.221 34.517h.45c0 3.046-4.39 3.046-4.39 0z"/><path fill="#fffaf0" d="M20.28 34.517c0 2.096-2.073 2.75-3.37 1.966-.59-.36-1.02-1.013-1.02-1.966z"/><path fill="#ffa75a" d="M24.67 34.517c0 3.046 4.39 3.046 4.39 0 0 3.046 4.39 3.046 4.39 0 0 2.96 4.144 3.046 4.38.253h5.047c1.017 0 1.017-1.484 0-1.484h-3.933l-.02-.013 6.947-7.97V53.14H34.94V41.003h-7.72V53.14H16.857V36.633l.054-.15c1.296.787 3.37.13 3.37-1.966 0 3.046 4.39 3.046 4.39 0M43.868 48.67V38.233h-7.123V48.67zm-18.346 0V38.233h-7.124V48.67z"/><path fill="#fffaf0" d="M28.008 25.033v.097l-8.177 9.387h-4.236l8.176-9.387v-.097z"/><path fill="#f25730" d="M15.594 34.517h.297c0 3.046-4.39 3.046-4.39 0z"/><path stroke="#002140" stroke-linecap="round" stroke-linejoin="round" d="M16.857 56.336h40.42m0-31.303v31.303M19.765 25.033h37.513m-11.407 0v31.303M19.678 25.13 11.5 34.517m12.271-9.387-8.176 9.387m12.413-9.387-8.177 9.387m12.566-9.387-8.176 9.387m12.567-9.387-8.177 9.387m12.567-9.387L33 34.517m13.018-9.387-.147.167-6.947 7.973-1.083 1.246m0 .001h-26.34m4.39 0c0 3.046-4.39 3.046-4.39 0"/><path stroke="#002140" stroke-linecap="round" stroke-linejoin="round" d="M20.28 34.517c0 2.096-2.073 2.75-3.37 1.966-.59-.36-1.02-1.013-1.02-1.966m8.781 0c0 3.046-4.39 3.046-4.39 0"/><path stroke="#002140" stroke-linecap="round" stroke-linejoin="round" d="M29.058 34.517c0 3.046-4.39 3.046-4.39 0m8.78 0c0 3.046-4.39 3.046-4.39 0m8.783 0q0 .129-.01.253c-.237 2.793-4.38 2.71-4.38-.253m-16.594 21.82V36.63m20.983-1.863h5.037m-3.933-1.484h3.934m0 1.484c1.017 0 1.017-1.484 0-1.484m-7.937 19.85h22.337m-40.421 0h10.364m-.001 3.203V41m7.721 15.336V41m-7.721 0h7.72m1.801-2.767v10.433m7.123-10.433v10.434m-7.123-10.434h7.124m-7.124 10.434h7.124m-25.47-10.434v10.433m7.125-10.433v10.434m-7.125-10.434h7.126m-7.126 10.434h7.126m1.699-.504h7.72m-7.72 1.474h7.72m3.021-33h-15.02m.214 8.383h-.104c-.2 0-.386-.013-.57-.043a3.2 3.2 0 0 1-1.913-1.02c-.983-1.067-1.333-2.76-1.027-4.25.334-1.637 1.457-3.027 3.397-3.074m20.526 6.11c-1.263 0-1.533-1.013-1.766-2.213-.34-1.747-.597-3.893-3.737-3.893m-13.934-1.51q1.4-.775 2.8 0m-.003 0q1.396.774 2.797 0m0 0q1.398-.775 2.797 0m0 0q1.4.774 2.797 0m-.001 0q1.4-.775 2.8 0m.001 0c.93.516 2.13.516 3.063 0m-17.4-3.24c.933-.517 2.213-.517 3.146 0m0 0q1.396.774 2.797 0m0 0q1.398-.775 2.797 0m0 0q1.4.774 2.797 0m-.001 0q1.4-.775 2.8 0m.001 0q1.396.774 2.796 0m1.117 13.133q.561.001 1.063-.087c.777-.137 1.433-.443 1.937-.957q.38-.383.636-.933.237-.508.354-1.177.035-.196.06-.406c.033-.29.05-.597.05-.93"/><path stroke="#002140" stroke-linecap="round" stroke-linejoin="round" d="M40.81 11.887c.957-.504 1.877.503 1.674 1.563q-.026.122-.067.243c-.197.57-.683 1.124-1.34 1.43m-17.049.004c-.854.45-1.707-.45-1.697-1.387 0-.053 0-.11.01-.163.08-.704.52-1.304 1.34-1.687m-4.247 7.8c-2.17-.813-3.076-3.157-2.17-4.867m4.03-1.227q-2.956-.614-4.026 1.227m27.846 4.867q.416-.156.77-.383c1.604-1.02 2.194-2.994 1.4-4.484m-4.026-1.227q2.956-.614 4.026 1.227m-2.17 4.867c-.953.367-2.137.623-3.417.84m4.331 0c0-.2-.017-.41-.04-.61a7 7 0 0 0-.1-.61m.056 2.56 3.15 3.15m-3.067-5.107 5.12 5.12M42.481 13.7c.35.007.344-.017.777-.1"/><path stroke="#002140" stroke-linecap="round" stroke-linejoin="round" d="M21.294 13.596c.913.167.643.094 1.037.14"/></svg>