<svg xmlns="http://www.w3.org/2000/svg" width="97" height="96" fill="none" viewBox="0 0 97 96"><path fill="#ff7101" d="M53.384 21.384s-1.017 1.396-4.275 1.396h-.24c-3.318 0-4.402-1.396-4.402-1.396l-.298-2.36-1.097-8.635s1.864-1.005 6.003-1.079c4.04.074 5.7 1.08 5.7 1.08l-1.092 8.634z"/><path fill="#fffaf0" d="M58.194 84.814c-2.51.447-4.222-2.094-2.888-4.427 1.237-2.167 3.487-2.15 4.334-4.18.776-1.855.466-3.405.622-5.418.154-2.014.925-3.251 3.251-3.251s2.528 2.046 2.528 3.22h.039v2.352s.702 8.416-7.889 11.706zM37.807 48.175c0 1.704.618 5.267-2.943 5.267-2.045 0-2.812-1.69-3.097-3.125v-9.422c0-9.447 10.223-11.46 10.223-11.46s.168.29.65.592c.211.131.482.269.833.381.719.492 1.162 1.36.838 2.744-.567 2.417-3.182 1.86-5.418 5.112-1.703 2.48-1.083 8.21-1.083 9.914zm-6.042 9.675c.365-1.4 1.4-2.018 3.097-1.93 2.943.153 2.48 3.557 2.48 5.883s-1.238 3.563-3.251 3.563-2.326-2.943-2.326-2.943z"/><path fill="#8eecc4" d="M41.887 25.82c-1.458-.632-2.686-1.594-2.686-3.043 0-3.563 4.642-3.716 4.642-3.716l.324-.04.298 2.36s1.084 1.396 4.401 1.396h.241c3.256 0 4.275-1.396 4.275-1.396l.298-2.36.322.04s4.646.153 4.646 3.716c0 1.614-1.526 2.624-3.193 3.247l.562.004-.158 3.405s10.223 2.013 10.223 11.46v29.86h-.039c0-1.176-.321-3.222-2.528-3.222-2.325 0-3.097 1.238-3.25 3.251-.159 2.013.153 3.563-.623 5.418-.847 2.032-3.097 2.013-4.334 4.18-1.334 2.335.377 4.875 2.888 4.427-2.089.803-4.73 1.304-8.065 1.304h-2.408c-17.042.007-15.958-13.003-15.958-13.003V62.423s.312 2.943 2.325 2.943 3.251-1.242 3.251-3.563c0-2.32.466-5.73-2.48-5.884-1.698-.087-2.733.53-3.096 1.93v-7.534c.285 1.435 1.054 3.125 3.097 3.125 3.563 0 2.943-3.563 2.943-5.267 0-1.703-.617-7.434 1.084-9.913 2.238-3.25 4.853-2.695 5.418-5.113.323-1.382-.12-2.25-.838-2.743a2.8 2.8 0 0 0-.834-.381c-.482-.303-.65-.593-.65-.593l-.153-3.404.053-.211z"/><path stroke="#002140" stroke-linecap="round" stroke-linejoin="round" stroke-width=".999" d="M49.576 9.303q-.258-.001-.501.005c-4.137.073-6.004 1.079-6.004 1.079l1.098 8.634.298 2.36s1.084 1.396 4.401 1.396"/><path stroke="#002140" stroke-linecap="round" stroke-linejoin="round" stroke-width=".999" d="M43.845 19.063s-4.642.153-4.642 3.717c0 1.448 1.228 2.408 2.686 3.041 2.128.921 4.748 1.141 4.748 1.141m-1.708 3.715a5.8 5.8 0 0 1-1.458-.269 3.8 3.8 0 0 1-.833-.38c-.482-.304-.65-.593-.65-.593m6.596-20.132q.252-.001.491.005c4.04.073 5.7 1.079 5.7 1.079l-1.092 8.634-.299 2.36s-1.017 1.396-4.275 1.396"/><path stroke="#002140" stroke-linecap="round" stroke-linejoin="round" stroke-width=".999" d="M54.002 19.063s4.646.153 4.646 3.717c0 1.613-1.526 2.624-3.193 3.246-2.014.75-4.238.934-4.238.934"/><path stroke="#002140" stroke-linecap="round" stroke-linejoin="round" stroke-width=".999" d="m56.017 26.03-.158 3.405s10.223 2.013 10.223 11.46v32.213s.703 8.416-7.888 11.706c-2.09.803-4.73 1.304-8.065 1.304H47.72c-17.04 0-15.956-13.01-15.956-13.01V40.895c0-9.447 10.223-11.46 10.223-11.46l-.154-3.405"/><path stroke="#002140" stroke-linecap="round" stroke-linejoin="round" stroke-width=".999" d="M52.918 30.677c2.321-.159 2.941-1.242 2.941-1.242"/><path fill="#ffc68c" d="M44.415 35.631c0-.275 3-1.212 7.723-.939l-.101 2.005c-1.532-.072-2.634.22-2.822 1.255a1.2 1.2 0 0 0 .005.466h-.005c.395 22.839-6.552 34.106-9.812 38.71l-.567.009c-2.167.153-3.87-.776-3.87-.776 2.479-3.559 13.317-20.132 9.446-40.73z"/><path fill="#ffc68c" d="M63.463 39.5s-.207.429-.55 1.18c-1.17 1.276-4.04 1.42-7.502.679-2.931-.627-5.888-1.513-6.191-2.943a1.2 1.2 0 0 1-.005-.466c.188-1.036 1.29-1.325 2.821-1.256l.102-2.004c.601.034 1.223.087 1.878.167 5.266.618 9.759 2.321 9.447 4.642"/><path fill="#fff2b2" d="M49.22 38.416c.303 1.43 3.26 2.317 6.191 2.943 3.462.742 6.332.597 7.503-.68-1.55 3.38-5.928 13.266-7.197 19.728-1.55 7.898-2.787 22.458-2.787 22.458s-8.052 1.39-14.865-3.876c.284-.425.75-1.04 1.338-1.864 3.26-4.603 10.207-15.87 9.812-38.709z"/><path stroke="#002140" stroke-linecap="round" stroke-linejoin="round" stroke-width=".999" d="M54.016 38.882c1.55.466 4.8 1.084 4.954.312.158-.776-.462-1.395-3.559-2.013-1.214-.241-2.383-.438-3.374-.482-1.532-.071-2.633.22-2.822 1.256-.03.163-.025.317.005.466.303 1.43 3.26 2.316 6.191 2.943 3.462.742 6.332.597 7.503-.68.298-.321.487-.711.549-1.18.312-2.32-4.18-4.024-9.447-4.642a33 33 0 0 0-1.878-.167c-4.723-.271-7.723.663-7.723.939 3.87 20.597-6.968 37.168-9.447 40.729 0 0 1.703.93 3.87.776"/><path stroke="#002140" stroke-linecap="round" stroke-linejoin="round" stroke-width=".999" d="M49.215 38.416c.395 22.838-6.552 34.106-9.812 38.71-.588.823-1.054 1.438-1.338 1.863 6.813 5.267 14.865 3.876 14.865 3.876s1.237-14.56 2.787-22.458c1.267-6.462 5.647-16.348 7.197-19.727.342-.751.549-1.18.549-1.18"/><path fill="#780505" stroke="#002140" stroke-linecap="round" stroke-linejoin="round" stroke-width=".999" d="M43.949 54.37c4.026 2.633 7.897 3.562 12.234 3.406.31 2.943-.464 5.73-1.24 7.588-6.97.93-13.008-3.253-13.008-3.253s.154-4.647 2.014-7.744z"/></svg>