<svg xmlns="http://www.w3.org/2000/svg" xml:space="preserve" id="Layer_1" x="0" y="0" viewBox="0 0 68 68"><style>.st0{fill:#fbccff}.st1{fill:#ffd7b0}.st2{fill:#d18000}.st3{fill:none;stroke:#002140;stroke-width:1;stroke-linecap:round;stroke-linejoin:round}</style><path d="M22.9 14.9 21 16s-10.2 8.7-9.5 13.4c3 .6 11.3 6.9 11.3 6.9l2.8 3.2-.3-3.5 3.2-1.5-2.2-5.2H32l-.4-3.7s4.1-.3 4.7-1.2c-2.3-7.8-13.4-9.5-13.4-9.5m32.6 23.4c-8.7-1.8-14.3-10.2-14.3-10.2l-3.6 1.2.7 3.3-4.6 1 .7 4.9-4.3.8.5 4.8s4.5 7.2 13.3 9c1.1-.2 11.4-11 11.6-14.8" class="st0"/><path d="M43.1 30.9C46 34.4 54.4 38 54.4 38s1.8-2.6 1.5-3.3c-.4-.7-.3-.9-1.3-1.1s-2 0-2 0 .4-2.5-1.2-2.5c-1.5-.1-2.8.2-2.8.2s0-1.8-.7-2.2c-.7-.3-2.7-.3-2.7-.3s-2.2 1.7-2.1 2.1m11.8 9.5c-.9 2-6.5 7.7-6.5 7.7l-.6-.5s-.2-6.4-3.7-5.3c-3.5 1.2-1.7 4.1-1.7 4.1s2 1.8 1.9 4.6c-.1 2.9.6 4.4 1.9 5s5.4.4 6.5 1c1.1.7 3.6 2.3 3.6 2.3s1.6-.2 2.8-1.5 3.9-4.4 4-5.1-.3-1.8-.3-1.8-2.8-2.6-3.5-3.9c-.7-1.1-3.5-6.3-4.4-6.6" class="st1"/><path d="M22.7 12.7 20 11.3s-5.9-1.1-6.3-1.3c-.4-.3-2.9-1.9-2.9-1.9s-6 2.1-6.4 8l.2.7s3.2 3.6 3.5 4.6c.4.9 1.5 3.8 1.5 3.8s.6.4 2 2.2c1.6-5.1 6.2-6.9 6.2-6.9l.9-.1s.8 4.4 1.7 4.7 3.5-.6 3.8-.6 1.1-1.7.9-2.2c-.2-.6-1.9-4.3-1.9-4.6 0-.2-.5-5-.5-5m.6 24.9S21.2 34.1 19 33s-6.8-3.1-6.8-3.1-2.2 1.6-1.2 3 3.3 1.5 3.3 1.5-.7 1.1.7 1.8 2.8.4 2.8.4-.4 1.8 1.2 2.3 4.3-1.3 4.3-1.3" class="st2"/><path d="M10.9 8S4.4 10.6 4 16.3c4.2 3.3 4.8 8.4 7.3 10.5m3.2-7.5s2.7 2 4.6.4c-.4 3.8 1.5 6.9 4.8 5.4 3.3-1.6-.8-5.5-1-7.5-.3-2 .8-3.8-1-5.5-1.8-1.8-7.9-.5-10.9-4m1.2 22.1c-1.3 1.1-1.9 2.9-.2 3.8 1.3.6 2.8-.3 3.8-1.1" class="st3"/><path d="M16.8 31.9c-2.1 1.7-3 3.8-1.4 4.6 1.1.5 2.4-.1 3.4-.8m1.6-1.5c-2.2 2-2.9 3.9-1.2 4.7 1.3.6 3.5-.7 4.2-1.4" class="st3"/><path d="M17.5 20.3c-6.8 4.7-6.2 9.3-6.2 9.3s8.5 1.8 14.4 10.3m11-15.4C31.6 16 23 14.8 23 14.8m33.3 44.9s6.4-2.7 6.7-8.4c-4.6-3.5-5-9.1-8.1-10.8" class="st3"/><path d="M52.5 48.4s-2.7-2-4.6-.4c.4-3.8-1.6-6.9-4.9-5.3s.8 5.5 1.2 7.5c.3 2-.8 3.8 1.1 5.5s7.9.4 11 3.9m-1.6-22c.9-1.1 1.9-3.1.1-3.9-1.3-.6-2.7 0-4.7 2.2m1-1.1c1.4-1.4 1.8-2.8.1-3.6-1.3-.6-2.8 0-3.8 1.3" class="st3"/><path d="M46.5 33.4c2.1-1.9 2.8-3.8 1-4.6-1.3-.6-2.8.4-4.4 1.6" class="st3"/><path d="M49.2 47.3c4.9-3.3 6.4-9.2 6.4-9.2S46.2 36.7 41 28M30.3 43.6c4.8 8 13.9 9.5 13.9 9.5M25.7 39.9s0-2.9-.8-4.2l3.7-.8-2.6-5.6 6 .2-.7-3.8s3.3.1 5.2-1.2" class="st3"/><path d="M30.3 43.6s.4-3.1-.6-4.7l5-.4-1.6-5 5.6-.8-1.4-3.6s2.8-.1 3.8-1.2m-11.4-6.5-.8 1.1M27.1 25l-2.7 3.8m-.9 1.3-.8 1.1m-.7-5.4-.8 1.1m-1.1 1.7-.8 1.1m-.3-7.5-.8 1.1m-.8 1.2-1.2 1.8m-.4.6L15 28m33.9 10.7-.8 1.1m-1.2 1.8-.8 1.1m-4.8-8.6-6.5 9.1m9-6.1-4.5 6.4" class="st3"/></svg>