<svg xmlns="http://www.w3.org/2000/svg" xml:space="preserve" id="Layer_1" x="0" y="0" viewBox="0 0 68 68"><style>.st0{fill:#fffaf0}.st1{fill:#ffd8b0}.st2{fill:#ccf7ff}.st3{fill:#03d47c}.st4{fill:#002140}</style><path d="m55.6 29.9-.1-3.2s-1.2-2.7-1.8-2.8-19.2-6.6-19.2-6.6-1.7.4-2.4.6c-.6.1-17.1 5.7-17.1 5.7s-1.6.7-2 2.5-.6 4.2-.6 4.2-.4.4-.5 1.4.1 21.2.1 21.2-.1 1.2 1.4 1.3 42.6 0 42.6 0 .8-.6.8-1.4.3-22 .3-22-.7-1.1-1.5-.9" class="st0"/><path d="M22.2 39.2s2.3-9.2 1.1-9.2-10.6.2-10.6.2-.8.2-.8.9v.6zm21.2 1.3c.4.9 13.6-9.7 13.6-9.7s-.4-1.1-1.4-.9c-1.1.2-6.8-.4-8.5.2s-4.1 9.6-3.7 10.4" class="st1"/><path d="m17.8 33.1.4 3.1 6.1 4.5 19.5-.2s5.3-4.4 5.8-4.5c.5-9.3 5.4-18.4 5.4-18.4l-.7-.5-3.5.6-2-1.9-3.2 2.1-2.9-2.3-3.7 2.1-2.2-2.4-3.7 2.2-1.5-2.8-3.6 2.6-3-2.5c.1-.1-7.2 3.3-7.2 18.3" class="st2"/><path d="M46.8 30.2 39.2 33s-.9-1.7.7-3.1c0 0-4-1.4-7.1 0s-4.9 3.1-7.3 7.4l-.9-7.4s4.2-7.3 12.7-5.4l3 1s-.7-2.1.7-3.1z" class="st3"/><path d="M39.8 29.9s-1.6 1.2-.7 3.1zm1.2-7.5s-1.6 1.1-.7 3.1z" class="st3"/><path d="M56 29.6v-2.5c0-1.7-1.1-3.2-2.7-3.8l-.2.5.2-.5-.2-.1c.7-2 1.7-4.1 2.8-6.1.1-.2.1-.4 0-.5-.1-.2-.3-.2-.5-.2-.8.1-1.8.4-2.5.7-.4.1-.8.3-1 .4h-.1l-2.1-2.2c-.3-.3-.5-.3-.7-.2l-3.3 2.1-2.4-2.5c-.2-.2-.4-.2-.6-.1L39.4 17l-2.2-2.4c-.2-.2-.4-.2-.7-.1l-3.2 2.2-1.5-2.5c-.1-.1-.2-.2-.3-.2s-.3 0-.4.1l-3.5 2.7-2-2.8c-.1-.1-.2-.2-.4-.2-.1 0-.3 0-.4.2-2.5 2.6-4.2 5.2-5.3 7.7l-.1-.2-4.5 1.6c-1.6.6-2.7 2.1-2.7 3.8v2.8q-.9.45-.9 1.5v22.1c0 .9.7 1.6 1.6 1.6h42.9c.9 0 1.6-.7 1.6-1.6V31.2c0-.9-.6-1.5-1.4-1.6m.3 1.3-6.1 4.4c0-.2 0-.5.1-.9q.15-1.5.6-3.9h4.8c.3 0 .5.2.6.4M55 27.1v2.5h-3.8q.6-2.4 1.5-5.4l.2.1c1.3.4 2.1 1.5 2.1 2.8m-29.8-12 2.1 2.7c.1.1.2.2.3.2s.3 0 .4-.1l3.4-2.6 1.4 2.5c.1.1.2.2.3.2s.3 0 .4-.1l3.3-2.3L39 18l.4-.3-.4.3c.2.2.5.2.7.1l3.1-2.2 2.4 2.4.4-.4-.4.4c.2.2.4.2.6.1l3.3-2.1 2.1 2.2c.1.1.4.2.5.1h.1c.1 0 .2-.1.3-.1.2-.1.6-.2 1-.3s.9-.3 1.3-.4c-2.4 4.5-3.7 9-4.4 12.4-.4 1.8-.6 3.4-.7 4.4-.1.5-.1 1-.1 1.2v.4h.1l-5.8 4.2h-19l-6.1-4.3c0-.1 0-.2-.1-.3-.1-.3-.1-.8-.2-1.4-.1-1.2-.1-2.9.1-4.9.6-4.2 2.3-9.4 7-14.4m-12 11.8c0-1.3.8-2.4 2.1-2.9l3.8-1.3c-1 2.3-1.5 4.5-1.8 6.5v.4h-4.1zm-1 4.3c0-.3.3-.6.6-.6h4.3c-.1 1.5-.1 2.8 0 3.8 0 .3.1.6.1.8l-5-3.5zm.7 22.6c-.3 0-.6-.3-.6-.6V32.8l11.5 8.1-6.5 12.9zm5.4 0 6.4-12.6h18.5l6 12.6zm38.1-.6c0 .3-.3.6-.6.6h-5.5L44.1 41l12.2-8.8v21z" class="st4"/><path d="M25.4 37.9c.3 0 .5-.1.5-.3 0 0 1.1-2.7 3.3-4.9 2.8-2.7 6.1-3.6 9.7-2.6-.5.7-.8 1.8-.2 3 0 .1.1.1.1.1l.1.1c.1.1.2.1.3.1h.2l7.8-2.9c.1-.1.3-.2.3-.3 0-.2 0-.3-.1-.4l-6-7.8-.1-.1-.1-.1h-.6c-.5.4-1.3 1.3-1.1 2.7-2.6-.9-10.5-2.9-15.5 5-.1.1-.1.2-.1.3l.9 7.5c.2.4.3.6.6.6m14.6-12h.5c.3-.1.4-.4.3-.7-.5-1.1-.1-1.8.2-2.2l5.2 6.8-6.7 2.5c-.3-1.2.6-2 .7-2.1l.1-.1s0-.1.1-.1v-.5l-.1-.1s-.1 0-.1-.1c-8-2.7-12.6 3.3-14.3 6.3l-.8-5.6c5.5-8.6 14.5-4.3 14.9-4.1" class="st4"/></svg>