<svg xmlns="http://www.w3.org/2000/svg" width="48" height="48" fill="none" viewBox="0 0 48 48"><path fill="#4ed7de" d="M38.05 22.19H9.882v9.66s.272 11.736 14.987 11.646c9.66 0 13.363-8.666 13.453-12.277s-.273-9.028-.273-9.028"/><path fill="#4ba6a6" d="M12.682 22.101h-2.8v10.022s1.083 10.925 12.639 11.194c0 0-9.39-2.348-10.022-12.729-.362-5.777.18-8.487.18-8.487z"/><path fill="#d18000" d="M24.78 24.45s2.437 1.534 2.437 3.158c0 1.625-1.083 3.611-1.714 3.793l1.355 8.308 2.076-.362-1.265-8.487s2.166-1.445 1.807-3.16c-.36-1.713-1.625-3.882-4.694-3.248z"/><path fill="#002140" d="M25.5 31.401s1.777-1.594 1.777-3.341-1.684-3.371-3.01-3.371-2.187 2.23-2.165 2.707c.018.479.783 2.83 1.744 3.491l-1.625 8.607s3.73.783 4.634.21L25.5 31.395z"/><path fill="#d18000" d="m17.827 22.011-.201-1.714s.302-.451-1.105-.451-3.817.09-3.817.09-.803.089-.803.72v1.355zm18.718 0-.201-1.714s.302-.451-1.105-.451-3.818.09-3.818.09-.802.089-.802.72v1.355h5.929z"/><path fill="#e4bc07" d="m35.944 19.513-.224-5.093s-2.125-9.771-11.545-9.472c-9.417.302-11.512 9.333-11.512 9.333l-.553 5.355 5.091-.12.025-4.394s1.573-5.287 6.985-5.352 6.497 5.412 6.497 5.412l.602 4.574 4.634-.24z"/><path stroke="#002140" stroke-linecap="round" stroke-linejoin="round" d="M38.273 22.123v8.416c0 7.145-5.793 12.938-12.939 12.938-7.145 0-12.938-5.793-12.938-12.938v-8.416z"/><path stroke="#002140" stroke-linecap="round" stroke-linejoin="round" d="M25.968 43.477c-11.564 0-16.062-5.793-16.062-12.94V22.12h3.279"/><path stroke="#002140" stroke-linecap="round" stroke-linejoin="round" d="M29.424 27.875a3.652 3.652 0 0 0-7.303 0c0 1.33.713 2.49 1.774 3.13l-1.817 8.342s3.096 1.826 6.827 0l-1.51-8.207a3.65 3.65 0 0 0 2.027-3.268z"/><path stroke="#002140" stroke-linecap="round" stroke-linejoin="round" d="m26.763 39.665-1.51-8.206a3.65 3.65 0 0 0-.89-6.846m-12.582-2.667V20.61c0-.446.417-.805.93-.805h4.186c.514 0 .93.361.93.805v1.336m12.672 0V20.61c0-.446.416-.805.93-.805h4.185c.514 0 .93.361.93.805v1.336m-19.345-2.141v-3.306a6.974 6.974 0 1 1 13.947 0v3.276"/><path stroke="#002140" stroke-linecap="round" stroke-linejoin="round" d="M35.943 19.772v-3.056c0-6.5-5.268-11.768-11.768-11.768-6.498 0-11.766 5.268-11.766 11.768v3.089"/></svg>