<svg xmlns="http://www.w3.org/2000/svg" xml:space="preserve" id="Layer_1" x="0" y="0" viewBox="0 0 68 68"><style>.st0{fill:#4ed7de}.st1{fill:#d18000}.st2{fill:#fffaf0}.st3{fill:#002140}.st4{fill:none;stroke:#002140;stroke-width:.8571;stroke-linecap:round;stroke-linejoin:round}</style><path d="M39.716 9.121V9H49c3.815-.188 6.111 2.239 6.111 6.109v32.697c0 1.959-.589 3.548-1.665 4.615l-.036.039c-1.047 1.017-2.548 1.549-4.409 1.457H29.697c-3.813.188-6.109-2.239-6.109-6.109V15.109c0-1.816.505-3.313 1.44-4.372a4.85 4.85 0 0 1 1.9-1.329 6.2 6.2 0 0 1 1.96-.406q.392-.022.809-.002h.651" class="st0"/><path d="M33.616 9h-.651a8 8 0 0 0-.809.002c-.72.037-.527-.255-1.113-.022l-.905.2V8.085c0-2.207 1.393-3.263 3.593-3.263h5.659c2.202 0 3.593 1.056 3.593 3.263v9.882c0 .784-.696 1.264-1.393.696l-2.244-2.039c-.802-.74-1.314-.74-2.095 0l-2.247 2.039c-.697.567-1.393.087-1.393-.696V9z" class="st1"/><path d="M23.588 47.806c0 3.872 2.298 6.299 6.109 6.109h19.304c1.861.092 3.362-.44 4.409-1.457l-5.127 5.127c-1.046.98-2.526 1.492-4.352 1.401H24.627c-3.615.178-5.869-1.994-6.092-5.523a9 9 0 0 1-.018-.587v-6.827h5.072zm23.417-24.71c1.349 0 1.839.634 1.839 1.838v8.655c0 1.203-.492 1.841-1.839 1.841h-12.82c-1.349 0-1.839-.638-1.839-1.841v-8.655c0-1.203.492-1.838 1.839-1.838z" class="st2"/><path d="M25.684 17.441a2.016 2.016 0 1 1 0 2.067h.698a1.033 1.033 0 0 0 0-2.066h-.698zm0 13.215a2.017 2.017 0 0 1 3.747 1.035 2.014 2.014 0 0 1-2.017 2.014 2 2 0 0 1-1.712-.953h.68a1.033 1.033 0 0 0 0-2.066h-.698zm0 13.328a2.017 2.017 0 1 1 0 2.068h.698a1.033 1.033 0 0 0 0-2.066h-.698z" class="st3"/><path d="M27.226 17.441c.572 0 1.032.463 1.032 1.034s-.462 1.032-1.032 1.032h-8.71c-2.586 0-3.765 1.386-3.765 2.675s1.177 2.675 3.765 2.675v2.066c-3.828 0-5.831-2.386-5.831-4.743 0-2.356 2.002-4.743 5.831-4.743h8.71zm0 13.244c.572 0 1.032.463 1.032 1.032s-.462 1.034-1.032 1.034h-8.71c-2.586 0-3.765 1.386-3.765 2.674 0 1.287 1.177 2.677 3.765 2.677v2.064c-3.828 0-5.831-2.385-5.831-4.743s2.002-4.741 5.831-4.741h8.71z" class="st3"/><path d="M25.028 10.736c-.935 1.059-1.44 2.556-1.44 4.372v2.333h-4.55v-.138a5.5 5.5 0 0 1 .733-1.279l.109-.131 5.144-5.159h.003zm-1.44 22.016v11.233h-5.072V32.752zm0-13.242v11.176h-5.072V20.181q.002-.262.015-.515v-.158h5.057z" class="st2"/><path d="M27.226 43.984c.572 0 1.032.463 1.032 1.032s-.462 1.034-1.032 1.034h-8.71c-2.586 0-3.765 1.386-3.765 2.674 0 1.287 1.177 2.677 3.765 2.677v1.477q0 .299.018.587l-.018.003c-3.828 0-5.831-2.387-5.831-4.744 0-2.358 2.002-4.741 5.831-4.741z" class="st3"/><path d="M55.113 15.109v32.697m0-32.698c0-3.872-2.298-6.299-6.111-6.109M23.588 46.051v1.756m0-15.055v11.233m0-24.475v11.176m0-15.577v2.333m0-2.333c0-1.816.505-3.313 1.44-4.372a4.85 4.85 0 0 1 1.9-1.329 6.2 6.2 0 0 1 1.96-.406q.392-.022.809-.002m.001 0h3.847m9.705 0h5.752m4.409 43.461c-1.047 1.017-2.548 1.549-4.409 1.457m6.111-6.111c0 1.959-.589 3.548-1.665 4.615m-29.86-4.615c0 3.872 2.298 6.299 6.109 6.109m.001 0h19.304M18.516 20.18v10.504m0 2.068v11.233m0 2.066v6.829m.522-35.576a5.5 5.5 0 0 1 .733-1.279m-1.255 4.156q.002-.263.015-.515m29.754 37.918c-1.046.982-2.526 1.494-4.352 1.403m-25.417-6.108q0 .299.018.587c.223 3.528 2.477 5.701 6.092 5.523m.001-.001h19.304m-24.05-43.094 5.144-5.159" class="st4"/><path d="m48.284 57.588 5.127-5.127.037-.039M32.345 24.934c0-1.203.492-1.838 1.839-1.838m14.661 1.838c0-1.203-.492-1.838-1.839-1.838m-14.661 1.838v8.655m1.84-10.493h12.821m-14.661 10.49c0 1.203.492 1.841 1.839 1.841m14.661-1.841c0 1.203-.492 1.841-1.839 1.841m-12.821.003h12.821m1.839-10.496v8.655M18.516 17.441h7.323c.572 0 1.032.463 1.032 1.034s-.462 1.032-1.032 1.032h-7.323m0 .003c-2.586 0-3.764 1.386-3.764 2.675s1.176 2.675 3.764 2.675" class="st4"/><path d="M18.516 26.925c-3.828 0-5.831-2.387-5.831-4.743s2.002-4.743 5.831-4.743m0 13.246h7.323c.572 0 1.032.463 1.032 1.032s-.462 1.034-1.032 1.034h-7.323m0 .001c-2.586 0-3.764 1.386-3.764 2.674s1.176 2.677 3.764 2.677" class="st4"/><path d="M18.516 40.168c-3.828 0-5.831-2.385-5.831-4.743s2.002-4.741 5.831-4.741m0 13.3h7.323c.572 0 1.032.463 1.032 1.032s-.462 1.034-1.032 1.034h-7.323m0 .001c-2.586 0-3.764 1.386-3.764 2.674 0 1.287 1.176 2.677 3.764 2.677" class="st4"/><path d="M18.516 53.468c-3.828 0-5.831-2.387-5.831-4.744 0-2.358 2.002-4.741 5.831-4.741m7.168-26.542a2.016 2.016 0 1 1 0 2.067m0 11.148a2.017 2.017 0 0 1 3.747 1.035 2.014 2.014 0 0 1-2.017 2.014 2 2 0 0 1-1.712-.953q-.011-.015-.018-.029m0 11.261a2.017 2.017 0 1 1 0 2.068m7.932-37.968v9.882m1.393.696 2.246-2.041m-2.246 2.04c-.697.567-1.393.087-1.393-.697m9.368-9.88v9.882m-1.393.696-2.242-2.041m2.243 2.04c.697.567 1.393.087 1.393-.697m-5.731-1.344c.78-.74 1.292-.74 2.095 0m3.635-8.537c0-2.207-1.393-3.263-3.593-3.263m-9.328 4.077c0-3.348 1.467-4.077 3.669-4.077m5.659 0h-5.659" class="st4"/></svg>