<svg xmlns="http://www.w3.org/2000/svg" width="195" height="170" fill="none" viewBox="0 0 195 170"><g clip-path="url(#a)"><path fill="#03d47c" d="M178.193 31.05c.071-.161 2.356-5.332 2.356-10.4 0-6.115-.537-15.768-.537-15.768v-.116c3.231-.114 6.54 2.175 6.54 7.623 0 12.336 1.071 19.845-11.791 29.713-9.807 7.522-9.113 18.342-9.221 22.632v.214h-4.609v-.429c.214-3.969.108-10.505 2.467-15.445 4.072-8.542 13.061-9.707 14.736-18.037z"/><path fill="#fffaf0" d="M184.715 107.506c7.871 0 7.463-10.872-.027-10.872h-.067v-3.718c12.796 0 13.256 18.308 0 18.308v-3.718z"/><path fill="#fffaf0" d="M184.621 112.868V89.945l-.024-.005c-.146.72-.956 1.385-2.248 1.944-2.337 1.01-6.256 1.673-10.698 1.673-4.698 0-8.812-.741-11.087-1.853-1.014-.492-1.664-1.061-1.837-1.67l-.047.015.062 12.139c.025 4.885.047 9.567.047 10.372 0 1.291 4.252 5.462 12.717 5.27 9.471-.214 13.115-3.479 13.115-4.962"/><path fill="#fffaf0" d="M184.621 89.706q0 .12-.024.234c-.146.72-.956 1.385-2.248 1.944l-.005-.012c-4.102-3.378-16.4-4.023-21.706-.323l-.074.155c-1.014-.492-1.664-1.061-1.837-1.67a1.2 1.2 0 0 1-.047-.328c0-1.256 2.027-2.372 5.163-3.077 2.172-.485 4.875-.773 7.808-.773 7.162 0 12.97 1.722 12.97 3.85"/><path fill="#780505" d="m182.344 91.872.005.012c-2.337 1.01-6.256 1.673-10.698 1.673-4.698 0-8.812-.741-11.087-1.853l.074-.155c5.306-3.7 17.604-3.055 21.706.323"/><path fill="#03d47c" d="M180.012 4.881s.537 9.654.537 15.769c0 5.068-2.285 10.239-2.356 10.4l-.059-.013c.174-.875.27-1.83.27-2.88 0-4.79-2.107-7.308-4.564-8.047l.061-.212c-.106-2.252 0-5.578 0-8.904 0-1.592.522-2.92 1.357-3.935 1.169-1.424 2.95-2.232 4.752-2.293v.115z"/><path fill="#03d47c" d="M178.404 28.156c0 1.05-.096 2.006-.27 2.88-1.675 8.33-10.664 9.496-14.736 18.038-2.359 4.94-2.253 11.476-2.467 15.445v.429h-6.968v-.429s-1.435-14.029 5.897-21.238c6.217-6.115 10.946-8.61 11.742-12.336 1.12-5.255.371-10.833.371-10.833l-.007-.236a5.6 5.6 0 0 1 1.874.234c2.457.739 4.564 3.257 4.564 8.046"/><path fill="#03d47c" d="m175.189 6.81.069.25c-.835 1.014-1.357 2.342-1.357 3.934 0 3.326-.106 6.652 0 8.904l-.061.212a5.6 5.6 0 0 0-1.874-.234 5.9 5.9 0 0 0-2.538.7l-.136-.25-.857-18.77-.005-.048c3.371-.31 6.707 1.814 6.759 5.303"/><path fill="#4ba6a6" d="M173.992 154.73v4.932c0 3.541-4.717 3.97-6.216 3.97h-69.23c-8.684 0-12.114-2.575-14.579-5.684-.834-1.055-3.875-4.472-7.379-8.458l-.004-.138c1.26-.037 2.757-.094 3.513-.094 1.18 0 1.667-1.609 1.13-2.575-.367-.66-1.869-2.52-3.558-4.37-.583-.639-1.556-.582-1.826-.582-.857 0-2.85-.007-4.78-.007-.529 0-.869.157-1.085.384l-.06-.084c-5.416-6.122-9.119-10.436-9.119-10.436l.044-2.008.094-4.26a9.4 9.4 0 0 0 .032-1.513l.059-2.651s23.474 26.922 25.727 29.496c2.25 2.575 5.788 5.679 12.97 5.679h69.545c2.036 0 5.574-1.766 3.858-5.198h.003c.541.98.861 2.065.861 3.597"/><path fill="#50eef6" d="m147.313 129.087-1.975-2.276a6.58 6.58 0 0 0-4.966-2.267H74.796c-1.753 0-2.654 2.097-1.45 3.37l1.093 1.252 4.698 5.376 4.653 5.324 2.635 3.016a6.53 6.53 0 0 0 4.742 2.042h65.172c1.847 0 2.836-2.17 1.625-3.565l-1.416-1.631-4.611-5.314zm25.815 22.046c1.716 3.432-1.822 5.198-3.858 5.198h-22.033v-.056s-3.135-3.799-5.493-6.32c-1.089-1.163-1.931-2.143-6.057-2.143-1.662 0-12.513-.055-17.203-.055-2.735 0-3.678 1.486-1.662 3.701 2.196 2.412 1.765 2.22 4.176 4.78v.093H99.725c-7.182 0-10.72-3.104-12.97-5.679-2.253-2.574-25.727-29.496-25.727-29.496l85.985-.212s22.521 25.454 24.035 27.348c.839 1.05 1.566 1.897 2.083 2.841z"/><path fill="#03d47c" d="M171.973 20.113s.749 5.578-.371 10.833c-.796 3.725-5.525 6.22-11.742 12.336-7.332 7.209-5.897 21.237-5.897 21.237v.43h-5.574v-.215c-1.177-20.81 9.028-25.56 14.044-29.282 3.321-2.469 3.954-5.686 3.858-9.227-.071-2.69 1.295-4.666 3.137-5.65a5.9 5.9 0 0 1 2.538-.699z"/><path fill="#03d47c" d="m169.292 20.326.136.249c-1.842.983-3.208 2.959-3.137 5.65.096 3.54-.537 6.757-3.858 9.226-5.016 3.723-15.221 8.473-14.044 29.282v.214h-1.376v-2.523q-.002-.8-.193-1.537l.069-.015c0-2.36-2.001-4.467-4.426-7.268l.032-.027c0-15.66 7.718-17.377 13.29-21.99 5.574-4.611 6.005-7.615 6.005-16.516 0-1.175-.148-2.2-.409-3.085l.087-.027c-.222-7.064 3.39-10.126 6.962-10.451l.005.047z"/><path fill="#b0d9ff" d="M166.828 64.947s1.125.215 1.125 1.102c0 .886-4.181 20.271-4.181 20.271l.071.308c-3.136.705-5.163 1.821-5.163 3.078q0 .165.047.327l-.047.015.062 12.139h-.057c-2.403.515-6.992 1.109-11.581-.448h-.092V64.947z"/><path fill="#03d47c" d="M161.381 11.986c.261.885.409 1.91.409 3.085 0 8.902-.431 11.905-6.005 16.517-5.572 4.612-13.29 6.33-13.29 21.99l-.032.026q-.219-.252-.441-.512c-1.18-1.377-2.92-1.683-4.464-1.75l.005-.123c0-7.724 1.716-14.373 8.575-19.202 6.862-4.827 8.899-8.259 9.541-11.905.818-4.642 0-12.336 0-12.336l-.005-.185c2.389-.108 4.777 1.242 5.707 4.395"/><path fill="#99f6ff" d="M157.964 141.359c1.211 1.394.222 3.565-1.625 3.565h-4.498v-.17l-4.336-4.943h8.945l.098-.083z"/><path fill="#99f6ff" d="m151.937 134.414 4.611 5.314-.098.084h-8.945l-4.703-5.363h9.095z"/><path fill="#03d47c" d="M155.679 7.776s.818 7.694 0 12.336c-.642 3.646-2.679 7.078-9.541 11.905-6.859 4.829-8.575 11.478-8.575 19.202l-.005.123a22 22 0 0 0-.975-.017h-4.058v-.214c-.322-22.955 16.401-23.061 16.829-30.356.069-1.18.214-4.504.214-6.33 0-4.18 3.053-6.699 6.106-6.834z"/><path fill="#99f6ff" d="m151.937 134.414-.04.034h-9.095l-4.702-5.361h9.213zm-.096 10.34v.17h-9.076v-.17l-4.335-4.942h9.075z"/><path fill="#99f6ff" d="m142.802 134.448 4.703 5.364h-9.075l-4.703-5.364zm2.536-7.637 1.975 2.276H138.1l-3.947-4.499v-.044h6.219c1.906 0 3.718.828 4.966 2.267m1.899 29.464v.057h-26.239v-.094c-2.411-2.56-1.98-2.368-4.176-4.78-2.016-2.215-1.073-3.7 1.662-3.7 4.69 0 15.541.054 17.203.054 4.126 0 4.968.981 6.057 2.144 2.358 2.52 5.493 6.319 5.493 6.319"/><path fill="#50eef6" d="M66.21 76.946v33.62a5.42 5.42 0 0 0 5.42 5.423h64.411a5.42 5.42 0 0 0 5.419-5.423V66.554a5.42 5.42 0 0 0-5.419-5.423H71.63a5.42 5.42 0 0 0-5.42 5.423zm80.802 24.793v19.205H60.659v-58.52a6.25 6.25 0 0 1 6.246-6.25h73.861a6.246 6.246 0 0 1 6.246 6.25z"/><path fill="#4ba6a6" d="m146.889 60.872-.069.015a6.246 6.246 0 0 0-6.054-4.713H66.905a6.25 6.25 0 0 0-6.246 6.25v58.52l-.02.005s-2.076-2.368-3.363-3.656c-1.985-1.984-1.879-2.996-1.879-5.677v-12.88l-.005-39.367c0-3.86 2.849-8.044 8.851-8.044h72.34c.31 0 .638.003.975.017 1.544.067 3.284.373 4.464 1.75q.221.26.44.512c2.426 2.802 4.427 4.908 4.427 7.268"/><path fill="#99f6ff" d="M142.802 134.448h-9.075l-4.703-5.361h9.076zm-.037 10.306v.17h-36.304v-.17l-4.333-4.942h36.302z"/><path fill="#99f6ff" d="m133.727 134.448 4.703 5.364h-9.229v-.101l-4.594-5.263zm4.373-5.361h-9.076l-3.947-4.499v-.044h9.076v.044zm-4.373 5.361h-9.12l-4.678-5.361h9.095z"/><path fill="#99f6ff" d="M129.202 139.711v.101h-8.985v-.069l-4.643-5.295h9.033zm-.178-10.624h-9.095l-3.927-4.499v-.044h9.075v.044zm-9.095 0 4.678 5.361h-9.033l-4.703-5.361z"/><path fill="#99f6ff" d="M120.217 139.743v.069h-9.11v-.111l-4.606-5.253h9.073zm-.288-10.656h-9.058l-3.944-4.499v-.044h9.075v.044zm-9.058 0 4.703 5.361h-9.073l-4.703-5.361z"/><path fill="#99f6ff" d="M111.107 139.701v.111h-8.979l-4.705-5.364h9.078zm-4.18-15.113 3.944 4.499h-9.073l-3.947-4.499v-.044h9.076z"/><path fill="#99f6ff" d="M106.501 134.448h-9.078l-4.703-5.361h9.078zm-.04 10.306v.17h-9.075v-.17l-4.336-4.942h9.078z"/><path fill="#99f6ff" d="M102.128 139.812H93.05l-4.703-5.364h9.076zm-.33-10.725H92.72l-3.944-4.499v-.044h9.075v.044zm-9.078 0 4.703 5.361h-9.076l-4.702-5.361z"/><path fill="#99f6ff" d="M97.386 144.754v.17h-6.22a6.52 6.52 0 0 1-4.741-2.043l-2.635-3.015.062-.054h9.198z"/><path fill="#99f6ff" d="m88.348 134.448 4.702 5.364h-9.198l-.062.054-4.653-5.324.106-.094zm.428-9.86 3.944 4.499h-9.075l-3.947-4.499v-.044h9.078z"/><path fill="#99f6ff" d="M88.348 134.448h-9.105l-.106.094-4.698-5.376.089-.079h9.117z"/><path fill="#d18000" d="M86.735 16.207c2.58.32 1.879 2.262 1.096 3.131-.227.252-.727.757-1.335 1.36l-.03-.032c.848-.852.985-1.574-.718-1.574h-45.33c-1.8 0-2.913-.076-4.523 1.535-.712.712-1.091 1.035-2.655 2.6-1.563 1.564-1.13 2.554-.209 2.554v.017l-1.204-.012c-2.748 0-3.316-1.897-2.272-3.033.061-.069.125-.135.184-.202 1.485-1.609 2.664-2.707 4.12-4.255 1.516-1.613 3.178-2.136 5.547-2.136h46.531q.444 0 .798.047"/><path fill="#e4bc07" d="m86.74 16.165-.005.042a6 6 0 0 0-.798-.047H39.406c-2.369 0-4.03.522-5.548 2.136-1.455 1.547-2.634 2.646-4.119 4.255l-.09-.084v-7.206c0-.924-.057-1.772-.057-2.56.002-1.476.211-2.745 1.383-3.918 1.66-1.66 4.863-3.92 6.57-4.964 1.703-1.042 3.22-1.232 6.063-1.232h37.146c2.748 0 5.373 1.2 5.656 4.139.285 2.94.33 9.439.33 9.439"/><path fill="#fff2b2" d="M33.031 25.782c-.92 0-1.35-.996.21-2.555 1.558-1.56 1.942-1.888 2.654-2.6 1.61-1.611 2.723-1.535 4.522-1.535h12.08v.316c0 6.758 16.077 6.115 16.077 0v-.316h17.174c1.703 0 1.566.722.718 1.575l.03.032c-1.344 1.338-3.213 3.153-3.782 3.76-1.42 1.517-2.937 1.613-6.918 1.707-1.958.047-35.903-.298-42.765-.367z"/><path fill="#99f6ff" d="M83.645 129.087h-9.117l-.089.079-1.093-1.252c-1.204-1.273-.303-3.37 1.45-3.37h4.902v.044z"/><path fill="#4ba6a6" d="M81.227 146.683c.537.966.05 2.575-1.13 2.575-.756 0-2.253.057-3.513.093-.71.025-1.345.042-1.729.042-1.07 0-1.49.079-2.455-1.126l-.01-.061c.98-.18 1.244-1.392.986-2.38-.436-1.661-1.687-1.984-2.881-1.984h-.786v-.034s-.303-1.099.269-1.7c.216-.227.556-.384 1.086-.384 1.93 0 3.922.007 4.779.007.27 0 1.243-.057 1.826.581 1.69 1.851 3.191 3.711 3.558 4.371"/><path fill="#28736d" d="M73.375 145.826c.259.988-.004 2.2-.984 2.38q-.124.025-.261.024H55.823c-1.719 0-4.237-.293-6.269-2.821-1.3-1.616-2.7-3.422-4.052-5.169-1.076-1.384-2.09-2.695-2.945-3.767-1.115-1.397-1.531-1.919-4.183-1.919-1.73 0-6.507.039-11.126.076-3.831.032-7.763.067-10.203.079a.742.742 0 0 0-.604 1.163 342 342 0 0 1 3.826 5.637l.04.367c-2.13.224-3.287.71-4.139 1.392-.015-.022-1.248-2.003-4.153-6.186-1.492-2.149-1.227-3.706-.742-4.635.695-1.33 2.17-2.064 4.154-2.064 1.985 0 6.93-.042 11.784-.082 4.84-.041 9.412-.078 11.163-.078 4.026 0 5.648 1.143 7.566 3.55.874 1.094 1.896 2.414 2.982 3.814 1.342 1.732 2.728 3.523 4.003 5.107.813 1.013 1.645 1.205 2.898 1.205l13.886-.054h.786c1.194-.003 2.445.32 2.88 1.981"/><path fill="#fffaf0" d="M68.574 19.092v.315c0 6.115-16.077 6.758-16.077 0v-.315z"/><path fill="#4ba6a6" d="m60.969 123.807-.032 1.513c-.246 2.382-1.389 4.183-2.758 4.183-1.548 0-2.807-2.304-2.807-5.147s1.259-5.149 2.807-5.149c1.448 0 2.642 2.015 2.79 4.6"/><path fill="#28736d" d="M55.397 98.735v2.683H39.696l-.155.072-1.236-2.656.212-.099z"/><path fill="#b0d9ff" d="M47.028 111.705c1.59 2.306-.596 3.659-2.964 3.659H9.23c-1.8 0-2.982-.833-3.947-2.375-.768-1.227-2.021-3.265-4.045-6.754-1.706-2.939 1.327-4.93 3.602-4.456l.17.081-1.396 2.914 4.668 7.246 36.151-.007-4.624-9.946h.003c1.226 1.705 4.757 6.073 7.216 9.638"/><path fill="#5ab0ff" d="m39.81 102.066 4.623 9.947-36.151.007 13.01-27.976 10.176.081 6.837 14.709 1.236 2.656zm-11.472.757v-8.946l-3.6.032v8.914z"/><path fill="#4ed7de" d="M43.34 162.173c.564 3.622-.32 6.115-5.867 6.516-2.918.212-5.97.035-8.58-.773l.083-.271c-.512-4.807-2.913-12.437-6.505-17.217l.074-.054h15.758l.214-.136c2.538 4.08 4.363 8.968 4.823 11.935"/><path fill="#4ed7de" d="m38.517 150.238-.214.135h-7.397v-.041c-1.228-3.181-5.497-8.027-9.52-8.54.625-.034 1.32-.054 2.097-.052 6.672.01 9.782 1.511 13.266 5.953.62.791 1.211 1.648 1.768 2.545"/><path fill="#8dc8ff" d="m27.587 79.979 3.88 4.146-10.175-.08-5.126-5.46 3.114-.04h.133v2.065s1.394 1.941 4.178 1.796c3.59-.188 3.878-1.868 3.878-1.868v-.56z"/><path fill="#4ed7de" d="M30.906 150.332v.042h-8.361l-.074.054c-2.403-3.2-5.34-5.122-8.607-4.065l-.091-.039c.497-1.175 1.314-2.19 2.395-3.055.852-.683 2.01-1.168 4.139-1.392a23 23 0 0 1 1.078-.084c4.023.512 8.293 5.359 9.521 8.539"/><path fill="#ffa75a" d="M29.648 15.261v6.002h-3.75v-.212c-1.447-2.18-1.285-6.231.323-8.207v-.143h3.37c0 .789.057 1.636.057 2.56"/><path fill="#4ed7de" d="m28.976 167.645-.084.271c-1.622-.5-3.072-1.247-4.212-2.296-2.975-2.735-10.04-9.722-11.085-13.583-.603-2.222-.505-4.117.178-5.714l.09.04c3.268-1.057 6.205.865 8.608 4.065 3.592 4.78 5.993 12.41 6.505 17.217"/><path fill="#ffa75a" d="M27.47 79.98v.558s-.289 1.68-3.879 1.868c-2.784.145-4.178-1.796-4.178-1.796v-6.68h.096c1.884 1.612 5.742 1.772 7.82.323h.14z"/><path fill="#ffa75a" d="M27.47 64.76v9.493h-.141c-2.078 1.449-5.936 1.289-7.82-.323h-.096v-9.493h.096c1.884 1.612 5.742 1.772 7.82.323z"/><path fill="#ffa75a" d="M27.47 54.785v9.976h-.141c-2.078 1.449-5.936 1.288-7.82-.323h-.096v-9.313q0-.347-.027-.65l.123-.01c1.884 1.609 5.742 1.769 7.82.32z"/><path fill="#ffa75a" d="M27.47 50.707v4.078h-.141c-2.078 1.448-5.936 1.288-7.82-.32l-.123.01c-.187-2.191-1.379-2.67-3.29-2.67H14.67v-.024c1.607-1.976 1.77-6.026.322-8.204v-.126h4.801c5.971 0 7.677 2.516 7.677 7.256m-1.25-38.006v.143c-1.607 1.976-1.77 6.026-.322 8.207v.212H14.393q-.312-.001-.606.005v-.217c-1.448-2.18-1.288-6.231.32-8.207v-.143z"/><path fill="#8dc8ff" d="m16.166 78.585 5.126 5.46-13.01 27.976-4.668-7.246 1.396-2.915z"/><path fill="#ffa75a" d="M14.991 43.577c1.448 2.178 1.285 6.228-.322 8.204v.025H9.092c-3.752 0-7.246-2.331-7.246-8.022v-2.085h.064c2.053 1.61 6.259 1.77 8.521.32l.14-.056c.363.85 1.24 1.488 2.874 1.488h1.546zm-.884-30.876v.143c-1.607 1.976-1.767 6.026-.322 8.207v.217c-1.835.034-3.135.347-3.378 2.954l-.089-.008c-2.263 1.449-6.355 1.289-8.408-.32h-.064v-2.658c0-4.837 1.46-8.535 7.714-8.535z"/><path fill="#ffa75a" d="m10.572 41.964-.14.056c-2.264 1.45-6.47 1.29-8.522-.32h-.064v-8.635h.064c2.053 1.608 6.089 1.768 8.352.322h.103v7.502c0 .375.064.742.207 1.075"/><path fill="#ffa75a" d="m10.318 24.214.089.007a11 11 0 0 0-.042.968v8.197h-.104C8 34.833 3.964 34.672 1.91 33.064h-.064v-9.17h.064c2.053 1.608 6.145 1.769 8.408.32"/><path stroke="#002140" stroke-linecap="round" stroke-linejoin="round" d="M147.012 120.944v-58.52q-.002-.8-.192-1.537a6.246 6.246 0 0 0-6.054-4.713H66.905a6.25 6.25 0 0 0-6.246 6.25v58.52z"/><path stroke="#002140" stroke-linecap="round" stroke-linejoin="round" d="M146.889 60.872c0-2.36-2.001-4.466-4.427-7.268q-.219-.252-.44-.512c-1.18-1.377-2.92-1.683-4.464-1.75a22 22 0 0 0-.975-.017h-72.34c-6.002 0-8.85 4.184-8.85 8.044l.004 39.366v12.881c0 2.681-.106 3.693 1.879 5.677 1.287 1.288 3.363 3.656 3.363 3.656"/><path fill="#0164bf" stroke="#002140" stroke-linecap="round" stroke-linejoin="round" d="M141.46 76.947v33.62a5.42 5.42 0 0 1-5.419 5.423H71.63a5.42 5.42 0 0 1-5.42-5.423V66.555a5.42 5.42 0 0 1 5.42-5.423h64.411a5.42 5.42 0 0 1 5.419 5.423z"/><path stroke="#002140" stroke-linecap="round" stroke-linejoin="round" d="M60.969 123.807a9.4 9.4 0 0 1-.032 1.513c-.246 2.382-1.389 4.183-2.758 4.183-1.548 0-2.807-2.304-2.807-5.147s1.259-5.149 2.807-5.149c1.448 0 2.642 2.015 2.79 4.6"/><path stroke="#002140" stroke-linecap="round" stroke-linejoin="round" d="M76.589 149.49c3.503 3.986 6.544 7.403 7.379 8.458 2.464 3.109 5.894 5.684 14.578 5.684h69.23c1.499 0 6.216-.429 6.216-3.97v-4.932c0-1.532-.32-2.617-.861-3.597-.517-.944-1.244-1.791-2.083-2.841-1.515-1.894-24.036-27.348-24.036-27.348l-85.984.212-.06 2.651-.031 1.513-.094 4.26-.044 2.008s3.703 4.314 9.12 10.436"/><path stroke="#002140" stroke-linecap="round" stroke-linejoin="round" d="M61.028 121.156s23.474 26.922 25.727 29.496c2.25 2.575 5.788 5.679 12.97 5.679h69.545c2.036 0 5.574-1.766 3.858-5.198"/><path stroke="#002140" stroke-linecap="round" stroke-linejoin="round" d="m156.548 139.728 1.416 1.631c1.211 1.395.222 3.565-1.625 3.565H91.167a6.53 6.53 0 0 1-4.742-2.042l-2.635-3.016-4.653-5.324-4.698-5.376-1.093-1.252c-1.204-1.273-.303-3.37 1.45-3.37h65.576c1.906 0 3.718.828 4.966 2.267l1.975 2.276 4.624 5.327zm-35.55 16.51c-2.411-2.56-1.98-2.368-4.176-4.78-2.016-2.215-1.073-3.7 1.662-3.7 4.69 0 15.541.054 17.203.054 4.126 0 4.968.981 6.057 2.144 2.358 2.52 5.493 6.319 5.493 6.319m16.535-69.955s4.181-19.387 4.181-20.271-1.125-1.102-1.125-1.102h-19.724m0 36.792c4.589 1.557 9.178.964 11.581.449m-26.16-51.078c-.322-22.954 16.401-23.06 16.829-30.355.069-1.18.214-4.504.214-6.33 0-4.18 3.053-6.699 6.106-6.834 2.388-.108 4.777 1.242 5.707 4.395.261.885.409 1.91.409 3.085 0 8.902-.431 11.905-6.005 16.517-5.572 4.612-13.291 6.33-13.291 21.99m5.895 11.155c-1.177-20.809 9.028-25.559 14.044-29.281 3.321-2.47 3.954-5.687 3.858-9.227-.071-2.69 1.295-4.667 3.137-5.65a5.9 5.9 0 0 1 2.538-.7 5.6 5.6 0 0 1 1.874.235c2.457.739 4.565 3.257 4.565 8.046 0 1.05-.096 2.006-.271 2.88-1.675 8.33-10.664 9.496-14.736 18.038-2.359 4.94-2.253 11.476-2.467 15.445"/><path stroke="#002140" stroke-linecap="round" stroke-linejoin="round" d="M173.901 19.898c-.106-2.252 0-5.578 0-8.904 0-1.591.522-2.92 1.357-3.935 1.169-1.424 2.95-2.232 4.752-2.293 3.233-.114 6.542 2.175 6.542 7.623 0 12.336 1.071 19.845-11.791 29.713-9.807 7.522-9.113 18.342-9.221 22.632m-4.072-52.774c-.222-7.064 3.39-10.126 6.962-10.452 3.371-.31 6.707 1.814 6.759 5.303"/><path stroke="#002140" stroke-linecap="round" stroke-linejoin="round" d="M153.963 64.52s-1.435-14.03 5.897-21.238c6.217-6.115 10.946-8.611 11.742-12.336 1.12-5.256.371-10.834.371-10.834m-34.41 31.108c0-7.724 1.716-14.374 8.575-19.203 6.862-4.826 8.899-8.258 9.541-11.905.818-4.641 0-12.336 0-12.336m12.756-6.221.857 18.771m10.72-15.446s.537 9.654.537 15.769c0 5.068-2.285 10.24-2.356 10.4q-.004.002-.003.004m-19.51 58.996.062 12.139c.025 4.885.047 9.567.047 10.372 0 1.291 4.252 5.462 12.717 5.27 9.471-.214 13.115-3.479 13.115-4.962V89.945"/><path stroke="#002140" stroke-linecap="round" stroke-linejoin="round" d="M163.843 86.63c2.172-.486 4.875-.774 7.808-.774 7.162 0 12.97 1.722 12.97 3.85q0 .12-.024.234c-.146.72-.956 1.385-2.248 1.944-2.337 1.01-6.256 1.673-10.698 1.673-4.698 0-8.812-.741-11.087-1.853-1.014-.492-1.664-1.061-1.837-1.67a1.2 1.2 0 0 1-.047-.328c0-1.256 2.027-2.372 5.163-3.077"/><path stroke="#002140" stroke-linecap="round" stroke-linejoin="round" d="M160.638 91.55c5.306-3.701 17.604-3.056 21.706.322m2.277 1.044c12.796 0 13.256 18.308 0 18.308"/><path stroke="#002140" stroke-linecap="round" stroke-linejoin="round" d="M184.688 96.634c7.49 0 7.898 10.872.027 10.872M79.698 124.588l3.947 4.499 4.703 5.361 4.702 5.363 4.336 4.943m-8.61-20.166 3.944 4.499 4.703 5.361 4.705 5.363 4.333 4.943m-8.61-20.166 3.947 4.499 4.703 5.361 4.606 5.253m-4.18-15.113 3.944 4.499 4.703 5.361 4.643 5.295m-4.215-15.155 3.927 4.499 4.678 5.361 4.594 5.262m-4.124-15.122 3.947 4.499 4.703 5.361 4.702 5.363 4.336 4.943m-8.612-20.166 3.947 4.499 4.702 5.361 4.703 5.363 4.336 4.943m-77.313-15.667h72.824m-68.109 5.361h72.654m-68.045 5.364h72.598m-86.74 3.996s-.303-1.099.268-1.7c.216-.227.556-.384 1.086-.384 1.93 0 3.922.007 4.779.007.27 0 1.243-.057 1.826.581 1.69 1.851 3.191 3.711 3.558 4.371.537.966.05 2.575-1.13 2.575-.756 0-2.253.057-3.513.093-.71.025-1.345.042-1.729.042-1.07 0-1.49.079-2.455-1.126m-14.22-18.764 2.653.076"/><path stroke="#002140" stroke-linecap="round" stroke-linejoin="round" d="M16.168 143.268c-.015-.022-1.248-2.003-4.153-6.186-1.492-2.149-1.227-3.706-.742-4.635.695-1.33 2.17-2.064 4.154-2.064 1.985 0 6.93-.042 11.784-.082 4.84-.041 9.412-.078 11.163-.078 4.026 0 5.648 1.143 7.566 3.55.874 1.094 1.896 2.414 2.982 3.814 1.342 1.732 2.728 3.523 4.003 5.107.813 1.013 1.645 1.205 2.898 1.205l13.886-.054h.786c1.194-.003 2.445.32 2.88 1.981.259.988-.004 2.2-.984 2.38q-.124.025-.261.024H55.823c-1.719 0-4.237-.293-6.269-2.821-1.3-1.616-2.7-3.422-4.052-5.169-1.076-1.384-2.09-2.695-2.945-3.767-1.115-1.397-1.531-1.919-4.183-1.919-1.73 0-6.507.039-11.126.076-3.831.032-7.763.067-10.203.079a.742.742 0 0 0-.604 1.163 342 342 0 0 1 3.826 5.637"/><path stroke="#002140" stroke-linecap="round" stroke-linejoin="round" d="M16.168 143.268c-1.08.865-1.898 1.88-2.395 3.055-.682 1.597-.781 3.491-.178 5.714 1.044 3.86 8.11 10.847 11.085 13.582 1.14 1.05 2.59 1.796 4.212 2.296 2.61.809 5.663.986 8.58.774 5.548-.401 6.432-2.895 5.868-6.517-.46-2.966-2.285-7.854-4.823-11.934a28 28 0 0 0-1.768-2.545c-3.484-4.442-6.594-5.943-13.266-5.953a37 37 0 0 0-2.098.052 23 23 0 0 0-1.078.084c-2.13.224-3.287.71-4.139 1.392"/><path stroke="#002140" stroke-linecap="round" stroke-linejoin="round" d="M13.864 146.363c3.267-1.057 6.204.865 8.607 4.065 3.592 4.78 5.993 12.41 6.505 17.217m-6.431-17.271h15.758m-17.472-8.623q.278.008.554.042c4.023.512 8.293 5.359 9.521 8.539M8.282 112.02l13.01-27.976 10.176.081 6.837 14.709 1.236 2.656.268.576 4.624 9.947z"/><path stroke="#002140" stroke-linecap="round" stroke-linejoin="round" d="m8.282 112.021-4.668-7.246 1.396-2.915 11.156-23.275 5.126 5.46m6.295-4.065 3.88 4.146m-15.301-5.542 3.114-.04"/><path stroke="#002140" stroke-linecap="round" stroke-linejoin="round" d="M4.84 101.779c-2.275-.474-5.308 1.517-3.602 4.456 2.024 3.489 3.277 5.527 4.045 6.754.965 1.542 2.147 2.375 3.947 2.375h34.834c2.368 0 4.555-1.353 2.964-3.659-2.46-3.565-5.99-7.933-7.216-9.641"/><path stroke="#002140" stroke-linecap="round" stroke-linejoin="round" d="M28.338 98.356v-4.479l-3.6.032v8.914h3.6zm-3.506 0h3.506m1.222-85.655h-20c-6.254 0-7.714 3.698-7.714 8.535v22.548c0 5.691 3.494 8.022 7.246 8.022h7.005c1.91 0 3.102.478 3.29 2.668q.025.304.026.65V80.61s1.394 1.941 4.178 1.796c3.59-.187 3.878-1.868 3.878-1.868v-29.83c0-4.741-1.706-7.257-7.677-7.257h-6.347c-1.635 0-2.511-.638-2.873-1.488a2.7 2.7 0 0 1-.207-1.074V25.19c0-.355.015-.675.042-.968.243-2.607 1.543-2.92 3.38-2.954.195-.005.4-.005.606-.005h15.083m.172 1.204v-7.206c0-.924-.056-1.772-.056-2.56.002-1.476.211-2.745 1.383-3.918 1.66-1.66 4.863-3.92 6.57-4.964 1.703-1.042 3.22-1.232 6.063-1.232h37.146c2.748 0 5.373 1.2 5.656 4.139.285 2.94.33 9.439.33 9.439"/><path stroke="#002140" stroke-linecap="round" stroke-linejoin="round" d="m33.031 25.798-1.204-.012c-2.748 0-3.316-1.897-2.272-3.033l.184-.202c1.485-1.609 2.664-2.707 4.12-4.255 1.516-1.613 3.178-2.136 5.547-2.136h46.531q.444 0 .798.047c2.58.32 1.879 2.262 1.096 3.131-.227.252-.727.757-1.335 1.36-1.344 1.338-3.213 3.154-3.782 3.76-1.42 1.518-2.937 1.614-6.918 1.708-1.958.046-35.903-.299-42.765-.368"/><path stroke="#002140" stroke-linecap="round" stroke-linejoin="round" d="M33.039 25.782h-.008c-.92 0-1.35-.996.21-2.555 1.558-1.56 1.942-1.888 2.654-2.6 1.61-1.611 2.723-1.535 4.522-1.535h45.33c1.704 0 1.567.722.72 1.575"/><path stroke="#002140" stroke-linecap="round" stroke-linejoin="round" d="M52.497 19.407c0 6.758 16.077 6.115 16.077 0M19.51 73.93c1.883 1.612 5.74 1.772 7.819.323m-7.819-9.815c1.883 1.61 5.74 1.77 7.819.322M19.51 54.465c1.883 1.609 5.74 1.769 7.819.32m-12.66-3.003c1.607-1.976 1.77-6.027.322-8.205m-.884-30.733c-1.607 1.976-1.767 6.026-.322 8.207m12.435-8.207c-1.607 1.976-1.77 6.026-.322 8.207M1.91 41.7c2.053 1.608 6.259 1.768 8.521.32M1.91 33.065c2.053 1.608 6.089 1.768 8.352.322M1.91 23.894c2.053 1.608 6.145 1.769 8.408.32m28.199 74.521h16.828m-15.649 2.684h15.65"/></g><path fill="#50eef6" d="M111.377 81.834c.082 5.373-4.424 6.39-5.094 11.55-.336 2.581-1.551 2.963-2.762 2.932-1.331-.033-2.75-.82-2.598-3.89.118-2.394 1.619-4.248 3.279-6.852 1.771-2.783.66-5.121-3.324-4.937-2.88.132-4.314-.774-4.252-3.233.111-4.442 6.177-4.554 8.949-3.724 3.898 1.167 5.734 3.609 5.802 8.154m-7.774 22.367c1.529 0 2.769-1.256 2.769-2.806s-1.24-2.805-2.769-2.805-2.769 1.256-2.769 2.805 1.24 2.806 2.769 2.806"/><path stroke="#002140" stroke-miterlimit="10" d="M105.575 73.68c-2.772-.83-8.838-.718-8.95 3.724-.06 2.459 1.373 3.365 4.253 3.233 3.984-.184 5.095 2.154 3.324 4.937-1.66 2.604-3.161 4.459-3.279 6.852-.152 3.07 1.267 3.857 2.598 3.89 1.211.03 2.426-.351 2.762-2.933.67-5.159 5.176-6.176 5.094-11.55-.068-4.544-1.904-6.986-5.802-8.153Zm-1.972 30.521c1.529 0 2.769-1.256 2.769-2.806s-1.24-2.805-2.769-2.805-2.769 1.256-2.769 2.805 1.24 2.806 2.769 2.806Z"/><defs><clipPath id="a"><path fill="#fff" d="M0 0h195v170H0z"/></clipPath></defs></svg>