<svg xmlns="http://www.w3.org/2000/svg" xml:space="preserve" id="Layer_1" x="0" y="0" viewBox="0 0 68 68"><style>.st0{fill:#ffed8f}.st1{fill:#ccf6ff}.st2,.st3{fill:none;stroke:#002140;stroke-width:1;stroke-linecap:round;stroke-linejoin:round}.st3{stroke:#fed607}</style><path d="M29.419 48.482s.995 1.566 5.269 1.424c4.269-.142 5.981-1.424 5.981-1.424s2.137-4.556 3.132-6.689c.995-2.137 3.703-7.401 3.132-11.246-.571-3.844-5.41-9.68-13.241-9.68s-10.675 8.826-10.675 11.675 2.137 8.543 2.137 8.543l4.269 7.401z" class="st0"/><path d="M40.665 48.482s-2.231 1.236-4.981 1.137c-2.75-.094-6.453-.571-6.453-.571l1.995 4.557s-.094 1.613-.094 1.896 1.137 2.467 3.415 2.467 4.368-1.896 4.368-2.184-.377-2.184-.377-2.184 1.995-3.703 2.137-5.123z" class="st1"/><path d="M22.718 32.796c0 7.011 5.621 11.117 6.406 16.416m17.839-16.296c0 6.565-5.659 10.452-6.234 15.236m6.226-15.356c0-6.693-5.428-12.121-12.121-12.121s-12.121 5.11-12.121 12.121" class="st2"/><path d="M40.746 48.006c-.472 3.801-2.943 6.706-5.925 6.706s-5.325-2.75-5.882-6.402" class="st2"/><path d="M28.938 48.306s5.565 2.961 11.791-.154m-2.279 5.221c.322.45.506.965.506 1.515 0 1.733-1.836 3.141-4.097 3.141s-4.097-1.407-4.097-3.141c0-.433.116-.845.322-1.223" class="st2"/><path d="M35.473 49.152a5.57 5.57 0 0 0-.227-4.316c-.365-.747-1.03-1.472-1.862-1.45a1.26 1.26 0 0 0-1.008.532c-.223.33-.245.785-.039 1.116.245.395.764.558 1.223.489s.867-.335 1.218-.639c.455-.39.854-.867 1.098-1.416.232-.519.33-1.09.352-1.656.026-.648-.047-1.313-.317-1.905s-.755-1.103-1.369-1.313" class="st2"/><path d="M12.467 26.798h6.264m31.034 0h6.264m-21.783-9.822V10m-9.963 9.68-5.342-5.338m24.915 4.342 5.338-5.337" class="st3"/></svg>