<svg width="178" height="219" viewBox="0 0 178 219" fill="none" xmlns="http://www.w3.org/2000/svg">
<path d="M67.3474 46.7167H63.7545H61.3998H58.376V41.5071H61.3998H63.7545H67.3474H69.2998V46.7167H67.3474Z" fill="#4BA6A6"/>
<path d="M176.988 48.2786C177.264 49.4738 177.345 50.6952 177.226 51.8667H177.219C177.219 51.8667 175.457 51.8405 174.369 51.819C173.281 51.7952 172.824 51.2881 172.754 50.3524C172.683 49.4143 173.393 48.8309 174.288 48.6952C175.183 48.5571 176.971 48.2809 176.971 48.2809H176.988V48.2786Z" fill="#50EEF6"/>
<path d="M177.219 51.8667H177.226C177.081 53.2929 176.638 54.6429 175.895 55.7739C175.838 55.862 175.776 55.9501 175.714 56.0358L175.571 55.9215C175.571 55.9215 174.197 54.7429 173.509 54.1548C172.824 53.5644 171.919 53.4048 171.254 54.0667C170.588 54.731 170.5 55.4096 171.19 56.2501C171.883 57.0882 173.009 58.4453 173.009 58.4453L173.021 58.4667C171.676 59.2453 170.131 59.6715 168.578 59.6929L168.569 59.3167C168.569 59.3167 168.709 57.9548 168.778 57.2739C168.847 56.5953 168.702 55.8691 167.954 55.681C167.209 55.4929 166.547 55.7548 166.316 56.5334C166.083 57.312 165.435 58.931 165.435 58.931L165.362 59.1358C164.419 58.781 163.547 58.2596 162.771 57.5905L162.79 57.5691C162.79 57.5691 163.662 56.5144 164.097 55.9882C164.533 55.462 164.816 54.7786 164.3 54.2048C163.783 53.6334 163.09 53.4858 162.462 54.0025C162.297 54.1405 162.074 54.3096 161.835 54.4858H161.757V48.2858H161.793C162.043 49.662 162.476 50.7905 163.362 51.8739C164.245 52.9548 165.531 53.7453 166.924 53.8596C168.316 53.9715 169.916 53.7929 170.645 52.6001C170.978 52.0525 171.204 51.312 170.833 50.3072C170.445 49.2572 169.276 48.7906 168.39 48.1072C167.495 47.4167 166.881 46.3691 166.714 45.2501C166.597 44.4739 166.697 43.6501 167.097 42.9739C167.843 41.7096 169.514 41.2144 170.957 41.4906C171.588 41.612 172.207 41.8263 172.783 42.1287L172.773 42.2929C172.773 42.2929 171.597 43.7953 171.073 44.5334C170.547 45.2691 170.469 46.1858 171.188 46.7882C171.907 47.3906 172.59 47.4191 173.366 46.6548C174.14 45.8929 175.393 44.6501 175.393 44.6501L175.431 44.6239C176.171 45.7477 176.693 46.9977 176.988 48.2786H176.971C176.971 48.2786 175.183 48.5572 174.288 48.6953C173.393 48.831 172.683 49.4144 172.754 50.3525C172.823 51.2882 173.281 51.7953 174.369 51.8191C175.457 51.8405 177.219 51.8667 177.219 51.8667Z" fill="#F68DFE"/>
<path d="M175.571 55.9216L175.714 56.0358C175.283 56.6406 174.776 57.1882 174.202 57.6573C173.831 57.9597 173.436 58.2311 173.021 58.4668L173.009 58.4454C173.009 58.4454 171.883 57.0882 171.19 56.2501C170.5 55.4097 170.588 54.7311 171.255 54.0668C171.919 53.4049 172.824 53.5644 173.509 54.1549C174.197 54.743 175.571 55.9216 175.571 55.9216Z" fill="#50EEF6"/>
<path d="M175.431 44.6239L175.393 44.6501C175.393 44.6501 174.14 45.8929 173.366 46.6548C172.59 47.4191 171.907 47.3906 171.188 46.7882C170.469 46.1858 170.547 45.2691 171.073 44.5334C171.597 43.7953 172.773 42.2929 172.773 42.2929L172.783 42.1287C173.523 42.512 174.19 43.0358 174.721 43.6691C174.976 43.9739 175.214 44.2929 175.431 44.6239Z" fill="#50EEF6"/>
<path d="M146.54 15.5691C146.414 15.0953 146.233 14.6357 146 14.1976C145.533 13.3262 144.823 12.5857 143.99 12.05L144.033 11.9834C144.126 10.1357 143.607 8.46431 142.723 7.01431L143.026 6.8286C143.923 6.26669 144.862 5.7905 145.826 5.39527L145.871 5.50479C145.871 5.50479 146.559 7.1786 146.902 8.01669C147.247 8.85241 147.981 9.40717 148.873 9.11907C149.766 8.83098 150.154 8.26669 149.921 7.20479C149.688 6.1405 149.3 4.42146 149.3 4.42146L149.278 4.32622C150.062 4.15717 150.852 4.03336 151.645 3.95479L151.652 4.0286C151.652 4.0286 151.945 5.96907 152.081 6.86431C152.216 7.75955 152.8 8.46907 153.735 8.40002C154.671 8.33098 155.181 7.87622 155.204 6.78812C155.228 5.70003 155.259 3.93812 155.259 3.93812V3.8786C156.14 3.93098 157.012 4.03336 157.862 4.18336C157.95 4.19765 158.038 4.21431 158.126 4.23336C158.102 4.33812 157.693 6.01669 157.485 6.86669C157.271 7.74526 157.538 8.62621 158.431 8.91669C159.323 9.20955 159.966 8.98098 160.402 7.98574C160.838 6.98812 161.538 5.36908 161.538 5.36908L161.545 5.35479C161.545 5.35479 161.557 5.36193 161.562 5.36431C162.347 5.7786 163.123 6.30241 163.843 6.90241L163.809 6.94288C163.809 6.94288 162.564 8.46431 161.969 9.14764C161.376 9.83098 161.212 10.7357 161.871 11.4048C162.531 12.0714 163.207 12.1643 164.052 11.4786C164.895 10.7929 166.259 9.67383 166.259 9.67383L166.343 9.61669C166.826 10.3215 167.257 11.0548 167.635 11.8119L167.602 11.8286C167.602 11.8286 165.933 12.5262 165.097 12.8762C164.264 13.2262 163.714 13.9643 164.009 14.8548C164.304 15.7476 164.871 16.131 165.931 15.8881C166.993 15.6476 168.709 15.2476 168.709 15.2476L168.983 15.2286C169.185 15.9095 169.354 16.6024 169.495 17.3024L169.331 17.3357C169.331 17.3357 167.554 17.6905 166.666 17.8691C165.781 18.0476 165.097 18.6619 165.209 19.5929C165.323 20.5262 165.802 21.0143 166.89 20.9857C167.978 20.9595 169.74 20.9072 169.74 20.9072L169.959 20.8953C169.971 21.1 169.981 21.3048 169.99 21.5095C170.012 22.031 170.014 22.5524 170 23.0714H169.883C169.883 23.0714 168.073 22.9762 167.171 22.931C166.266 22.8857 165.452 23.3143 165.333 24.2452C165.214 25.1762 165.559 25.7667 166.619 26.0071C167.681 26.25 169.402 26.631 169.402 26.631L169.604 26.6691C169.473 27.3595 169.309 28.0429 169.114 28.7167L168.985 28.6786C168.985 28.6786 167.273 28.0881 166.419 27.7952C165.562 27.5 164.664 27.6857 164.29 28.5476C163.916 29.4095 164.083 30.0714 165.035 30.5976C165.988 31.1238 167.538 31.969 167.538 31.969L167.835 32.1071C167.566 32.6786 167.271 33.2381 166.954 33.7857C166.84 33.9833 166.723 34.1738 166.604 34.3619L166.502 34.2976C166.502 34.2976 165.076 33.1833 164.364 32.6262C163.65 32.069 162.74 31.95 162.104 32.6429C161.669 33.1214 161.504 33.5929 161.683 34.1048L161.397 34.2C160.431 31.2143 157.616 29.0405 154.321 29.0405H151.4L151.243 29.0667C150.723 29.0667 149.84 29.881 149.559 30.7C149.354 31.2905 149.443 31.95 149.24 32.5405C148.94 33.4167 148.031 33.9786 147.114 34.1048C145.75 34.2905 144.34 33.6238 143.5 32.5357C142.745 31.5571 142.428 30.2833 142.514 29.0452L142.409 29.0405H135.854C134.85 29.1095 134.3 29.3119 133.754 29.9119C132.933 30.8143 133.521 32.5 132.745 33.4405C131.833 34.5476 129.583 34.4667 128.376 33.6929C127.169 32.9167 126.607 31.4286 126.612 29.9952C126.612 29.8262 126.619 29.6381 126.638 29.4333C126.745 28.1238 127.24 26.1905 128.726 24.9833C128.974 24.7833 129.247 24.6024 129.552 24.4476C130.254 24.0929 131.445 23.8762 132.233 23.8595C134.243 23.8167 136.204 24.4024 138.195 24.6762C140.188 24.9524 142.376 24.8619 143.978 23.6476C144.654 23.1357 145.185 22.4524 145.612 21.7167C146.231 20.65 146.626 19.4333 146.745 18.2024C146.828 17.3143 146.769 16.4191 146.54 15.5691Z" fill="#F68DFE"/>
<path d="M169.883 23.0692H170C169.964 24.2787 169.831 25.4835 169.604 26.6692L169.402 26.6311C169.402 26.6311 167.681 26.2501 166.619 26.0073C165.559 25.7668 165.214 25.1763 165.333 24.2454C165.452 23.3144 166.266 22.8859 167.171 22.9311C168.073 22.9763 169.883 23.0692 169.883 23.0692Z" fill="#50EEF6"/>
<path d="M169.959 20.8953L169.74 20.9072C169.74 20.9072 167.978 20.9596 166.89 20.9858C165.802 21.0144 165.324 20.5263 165.209 19.593C165.097 18.662 165.781 18.0477 166.666 17.8692C167.555 17.6906 169.331 17.3358 169.331 17.3358L169.495 17.3025C169.731 18.4834 169.883 19.6858 169.959 20.8953Z" fill="#50EEF6"/>
<path d="M168.986 28.6786L169.114 28.7167C168.778 29.8786 168.352 31.0143 167.836 32.1071L167.538 31.969C167.538 31.969 165.988 31.1238 165.036 30.5976C164.083 30.0714 163.916 29.4095 164.29 28.5476C164.664 27.6857 165.562 27.5 166.419 27.7952C167.274 28.0881 168.986 28.6786 168.986 28.6786Z" fill="#50EEF6"/>
<path d="M168.983 15.2287L168.709 15.2477C168.709 15.2477 166.993 15.6477 165.931 15.8882C164.871 16.1311 164.305 15.7477 164.009 14.8549C163.714 13.9644 164.264 13.2263 165.097 12.8763C165.933 12.5263 167.602 11.8287 167.602 11.8287L167.636 11.812C168.188 12.9072 168.633 14.0525 168.983 15.2287Z" fill="#50EEF6"/>
<path d="M167.954 55.6811C168.702 55.8691 168.847 56.5953 168.778 57.2739C168.709 57.9549 168.569 59.3168 168.569 59.3168L168.578 59.693C168.309 59.6977 168.04 59.6906 167.771 59.6691C166.928 59.6049 166.123 59.4239 165.362 59.1358L165.435 58.931C165.435 58.931 166.083 57.312 166.316 56.5334C166.547 55.7549 167.209 55.493 167.954 55.6811Z" fill="#50EEF6"/>
<path d="M166.502 34.2977L166.605 34.362C165.928 35.4406 165.193 36.362 164.393 37.2382L164.059 36.9358C164.059 36.9358 162.871 35.6334 162.143 34.8239C161.916 34.5739 161.766 34.3358 161.683 34.1049C161.505 33.593 161.669 33.1215 162.105 32.643C162.74 31.9501 163.65 32.0692 164.364 32.6263C165.076 33.1834 166.502 34.2977 166.502 34.2977Z" fill="#50EEF6"/>
<path d="M166.343 9.61675L166.259 9.67389C166.259 9.67389 164.895 10.7929 164.052 11.4787C163.207 12.1644 162.531 12.0715 161.871 11.4048C161.212 10.7358 161.376 9.83103 161.969 9.1477C162.564 8.46437 163.809 6.94294 163.809 6.94294L163.843 6.90247C164.778 7.67627 165.619 8.57627 166.276 9.51913C166.297 9.55246 166.321 9.58342 166.343 9.61675Z" fill="#50EEF6"/>
<path d="M164.059 36.9357L164.392 37.2381C163.642 38.0596 162.833 38.8357 161.962 39.6596H161.757V36.4786C161.757 35.6834 161.631 34.9191 161.397 34.2L161.683 34.1048C161.766 34.3357 161.916 34.5738 162.142 34.8238C162.871 35.6334 164.059 36.9357 164.059 36.9357Z" fill="#F68DFE"/>
<path d="M164.3 54.2048C164.816 54.7786 164.533 55.4619 164.097 55.9881C163.662 56.5143 162.79 57.5691 162.79 57.5691L162.771 57.5905C162.466 57.3333 162.178 57.05 161.904 56.7453H161.757V54.4857H161.835C162.074 54.3095 162.297 54.1405 162.462 54.0024C163.09 53.4857 163.783 53.6334 164.3 54.2048Z" fill="#50EEF6"/>
<path d="M151.243 29.0667L151.4 29.0405H154.321C157.616 29.0405 160.431 31.2143 161.397 34.2C161.631 34.9191 161.757 35.6834 161.757 36.4786V155.974C161.757 160.064 158.412 163.409 154.321 163.409H67.8498C64.6998 163.409 61.9903 161.426 60.9117 158.645L60.8712 158.493L63.7546 157.726V46.7167H67.3474V154.336C67.3474 155.707 68.4688 156.831 69.8427 156.831H152.328C153.702 156.831 154.826 155.707 154.826 154.336V38.1167C154.826 36.7429 153.702 35.6191 152.328 35.6191H69.8427C68.4688 35.6191 67.3474 36.7429 67.3474 38.1167V41.5072H63.7546V34.9524L60.7808 34.1453L60.8117 34.0286C61.7546 31 64.5212 29.0405 67.8498 29.0405H117.619L117.752 29.0477C117.666 30.2834 117.983 31.5572 118.738 32.5358C119.578 33.6239 120.988 34.2905 122.352 34.1048C123.269 33.9786 124.178 33.4167 124.478 32.5405C124.681 31.95 124.593 31.2905 124.797 30.7C125.093 29.8405 125.771 29.3239 126.276 29.4072L126.638 29.4334C126.619 29.6381 126.612 29.8262 126.612 29.9953C126.607 31.4286 127.169 32.9167 128.376 33.6929C129.583 34.4667 131.833 34.5477 132.745 33.4405C133.521 32.5 132.933 30.8143 133.754 29.912C134.3 29.312 134.85 29.1096 135.854 29.0405H142.409L142.514 29.0453C142.428 30.2834 142.745 31.5572 143.5 32.5358C144.34 33.6239 145.75 34.2905 147.114 34.1048C148.031 33.9786 148.94 33.4167 149.24 32.5405C149.443 31.95 149.354 31.2905 149.559 30.7C149.84 29.881 150.724 29.0667 151.243 29.0667Z" fill="#FF7101"/>
<path d="M161.545 5.35489L161.538 5.36917C161.538 5.36917 160.838 6.98822 160.402 7.98584C159.966 8.98107 159.323 9.20965 158.431 8.91679C157.538 8.62631 157.271 7.74536 157.485 6.86679C157.693 6.01679 158.102 4.33822 158.126 4.23346C159.312 4.45727 160.478 4.79536 161.545 5.35489Z" fill="#4ED7DE"/>
<path d="M155.262 3.87868V3.9382C155.262 3.9382 155.228 5.7001 155.205 6.7882C155.181 7.87629 154.671 8.33105 153.735 8.4001C152.8 8.46915 152.216 7.75962 152.081 6.86439C151.945 5.96915 151.652 4.02868 151.652 4.02868L151.645 3.95487C152.855 3.83106 154.066 3.80725 155.262 3.87868Z" fill="#50EEF6"/>
<path d="M154.826 145.374V154.336C154.826 155.707 153.702 156.831 152.328 156.831H69.8427C68.4688 156.831 67.3474 155.707 67.3474 154.336V145.374H154.826Z" fill="#F25730"/>
<path d="M154.826 131.017V145.374H67.4522H67.3474V131.017H67.6188H154.826Z" fill="#BF3013"/>
<path d="M154.826 127.319V131.017H67.6188H67.3474V127.319H67.7879H154.826Z" fill="#FFA75A"/>
<path d="M154.826 117.74V127.319H67.7879H67.3474V117.74H67.7879H154.826Z" fill="#F25730"/>
<path d="M154.826 99.588V117.74H67.7879H67.3474V99.588H67.6188H154.826Z" fill="#BF3013"/>
<path d="M154.826 95.8905V99.5881H67.6188H67.3474V95.8905H67.7879H154.826Z" fill="#FFA75A"/>
<path d="M154.826 86.3119V95.8904H67.7879H67.3474V86.3119H67.7879H154.826Z" fill="#F25730"/>
<path d="M154.826 68.3976V86.3119H67.7879H67.3474V68.3976H67.6188H154.826Z" fill="#BF3013"/>
<path d="M154.826 64.7V68.3976H67.6188H67.3474V64.7H67.7879H154.826Z" fill="#FFA75A"/>
<path d="M154.826 55.1215V64.7H67.7879H67.3474V55.1215H67.7879H154.826Z" fill="#F25730"/>
<path d="M154.826 38.1167V55.1214H67.3474V46.7167H69.2998V41.5072H67.3474V38.1167C67.3474 36.7429 68.4688 35.6191 69.8427 35.6191H152.328C153.702 35.6191 154.826 36.7429 154.826 38.1167Z" fill="#BF3013"/>
<path d="M149.921 7.20492C150.155 8.26683 149.766 8.83111 148.874 9.11921C147.981 9.4073 147.247 8.85254 146.902 8.01683C146.559 7.17873 145.871 5.50493 145.871 5.50493L145.826 5.3954C146.947 4.93112 148.104 4.57874 149.278 4.32635L149.3 4.42159C149.3 4.42159 149.688 6.14064 149.921 7.20492Z" fill="#50EEF6"/>
<path d="M128.012 20.1072H128.235L130.252 17.8667L125.883 17.9215L128.012 20.1072ZM136.014 12.7691C136.021 12.6763 136.023 12.5834 136.023 12.4882C136.023 11.5072 135.7 10.6024 135.154 9.87387L135.35 9.74292L138.657 9.68578C137.704 6.15721 135.071 4.75721 135.071 4.75721C135.071 4.75721 134.959 7.78102 134.902 9.46197L134.85 9.51197C134.054 8.65483 132.916 8.11911 131.652 8.11911C130.145 8.11911 128.814 8.8834 128.028 10.0453L127.89 10.0382C127.104 8.87864 125.778 8.11911 124.271 8.11911C123.885 8.11911 123.509 8.16911 123.152 8.26435L123.081 8.00721C122.24 6.71673 121.302 5.68578 120.169 4.70007C120.169 7.05483 120.169 8.62149 120.085 11.031L120.145 11.0501C119.988 11.5001 119.902 11.9834 119.902 12.4882C119.902 12.5834 119.902 12.681 119.912 12.7739C119.988 13.9596 120.538 15.0167 121.373 15.7572C122.145 16.4429 123.159 16.8572 124.271 16.8572C124.985 16.8572 125.654 16.6858 126.25 16.3834C126.94 16.0334 127.523 15.5048 127.942 14.8596L127.971 14.8405C128.188 15.181 128.452 15.4905 128.754 15.7572C129.526 16.4429 130.54 16.8572 131.652 16.8572C132.364 16.8572 133.038 16.6882 133.631 16.3834C134.971 15.7048 135.914 14.3524 136.014 12.7691ZM112.828 15.5691C113.09 14.8286 113.466 14.131 113.957 13.5143C114.916 12.3096 116.328 11.4501 117.845 11.2191L117.816 11.031C118.09 7.65007 118.142 4.56197 118.073 1.1715C118.104 1.18102 118.135 1.19293 118.164 1.20483C120.878 2.16912 123.195 3.82626 124.909 6.1453L125.047 6.28816C125.838 6.09769 126.642 5.96673 127.454 5.89054C129.176 5.72388 130.921 5.81435 132.616 6.15959L132.623 6.09292C132.726 4.36912 132.652 3.81912 132.597 1.1715C132.626 1.18102 132.657 1.19293 132.688 1.20483L132.731 1.08817C135.535 0.904835 140.395 3.1834 142.723 7.01435C143.607 8.46435 144.126 10.1358 144.033 11.9834L143.99 12.0501C144.823 12.5858 145.533 13.3263 146 14.1977C146.233 14.6358 146.414 15.0953 146.54 15.5691C146.769 16.4191 146.828 17.3143 146.745 18.2024C146.626 19.4334 146.231 20.6501 145.612 21.7167C145.185 22.4524 144.654 23.1358 143.978 23.6477C142.376 24.862 140.188 24.9524 138.195 24.6762C136.204 24.4024 134.242 23.8167 132.233 23.8596C131.445 23.8762 130.254 24.0929 129.552 24.4477C129.247 24.6024 128.973 24.7834 128.726 24.9834L128.628 24.8691C126.969 23.6643 125.085 23.6096 123.059 23.912C121.938 24.0786 120.807 24.3834 119.885 25.0429C119.676 25.1929 119.481 25.3596 119.3 25.5429L119.216 25.4572C117.342 25.7643 115.788 25.0739 114.457 23.7215C113.128 22.3691 112.423 20.4667 112.364 18.5691C112.359 18.4477 112.359 18.3239 112.364 18.2024C112.373 17.3072 112.528 16.4096 112.831 15.5691H112.828Z" fill="#F68DFE"/>
<path d="M138.657 9.68583L135.35 9.74297L135.154 9.87393C135.059 9.74774 134.959 9.62631 134.85 9.51202L134.902 9.46202C134.959 7.78107 135.071 4.75726 135.071 4.75726C135.071 4.75726 137.704 6.15726 138.657 9.68583Z" fill="#CF4CD9"/>
<path d="M136.023 12.4881C136.023 12.5834 136.021 12.6762 136.014 12.7691H127.292C127.285 12.6762 127.283 12.5834 127.283 12.4881C127.283 11.5834 127.557 10.7429 128.028 10.0453C128.814 8.88336 130.145 8.11908 131.652 8.11908C132.916 8.11908 134.054 8.65479 134.85 9.51194C134.959 9.62622 135.059 9.74765 135.154 9.87384C135.7 10.6024 136.023 11.5072 136.023 12.4881Z" fill="#50EEF6"/>
<path d="M127.292 12.7692H136.014C135.914 14.3525 134.971 15.7049 133.631 16.3834L133.557 16.2406C133.557 14.912 132.478 13.8334 131.15 13.8334C130.004 13.8334 129.047 14.6311 128.802 15.7001L128.754 15.7573C128.452 15.4906 128.188 15.1811 127.971 14.8406C127.583 14.2358 127.34 13.5287 127.292 12.7692Z" fill="#FFFAF0"/>
<path d="M133.557 16.2405L133.631 16.3834C133.038 16.6881 132.364 16.8572 131.652 16.8572C130.54 16.8572 129.526 16.4429 128.754 15.7572L128.802 15.7C129.047 14.631 130.004 13.8334 131.15 13.8334C132.478 13.8334 133.557 14.9119 133.557 16.2405Z" fill="#002140"/>
<path d="M130.252 17.8667L128.235 20.1072H128.012L125.883 17.9215L130.252 17.8667Z" fill="#002140"/>
<path d="M128.628 24.8691L128.726 24.9834C127.24 26.1906 126.745 28.1239 126.638 29.4334L126.276 29.4072C125.771 29.3239 125.093 29.8405 124.797 30.7001C124.593 31.2905 124.681 31.9501 124.478 32.5405C124.178 33.4167 123.269 33.9786 122.352 34.1048C120.988 34.2905 119.578 33.6239 118.738 32.5358C117.983 31.5572 117.666 30.2834 117.752 29.0477C117.762 28.9072 117.776 28.7691 117.795 28.631C117.962 27.4763 118.481 26.362 119.3 25.5429C119.481 25.3596 119.676 25.1929 119.886 25.0429C120.807 24.3834 121.938 24.0786 123.059 23.912C125.086 23.6096 126.969 23.6644 128.628 24.8691Z" fill="#F68DFE"/>
<path d="M127.89 10.0381L128.028 10.0453C127.557 10.7429 127.283 11.5834 127.283 12.4881C127.283 12.5834 127.283 12.6762 127.293 12.7691H119.971L119.912 12.7738C119.904 12.681 119.902 12.5834 119.902 12.4881C119.902 11.9834 119.988 11.5 120.145 11.05C120.619 9.68813 121.747 8.63575 123.152 8.26432C123.509 8.16908 123.885 8.11908 124.271 8.11908C125.778 8.11908 127.104 8.8786 127.89 10.0381Z" fill="#50EEF6"/>
<path d="M127.971 14.8406L127.943 14.8596C127.524 15.5049 126.94 16.0334 126.25 16.3834L126.176 16.2406C126.176 14.912 125.097 13.8334 123.769 13.8334C122.624 13.8334 121.666 14.6311 121.421 15.7001L121.374 15.7573C120.538 15.0168 119.988 13.9596 119.912 12.7739L119.971 12.7692H127.293C127.34 13.5287 127.583 14.2358 127.971 14.8406Z" fill="#FFFAF0"/>
<path d="M127.452 5.87629V5.89057C126.643 5.96676 125.838 6.09772 125.047 6.28819L124.909 6.14534C123.195 3.82629 120.878 2.16915 118.164 1.20487L118.207 1.0882C122.074 0.835818 126.016 3.70486 127.452 5.87629Z" fill="#F68DFE"/>
<path d="M126.176 16.2405L126.25 16.3834C125.654 16.6858 124.985 16.8572 124.271 16.8572C123.159 16.8572 122.145 16.4429 121.374 15.7572L121.421 15.7C121.666 14.631 122.624 13.8334 123.769 13.8334C125.097 13.8334 126.176 14.9119 126.176 16.2405Z" fill="#002140"/>
<path d="M123.081 8.00721L123.152 8.26435C121.747 8.63578 120.619 9.68816 120.145 11.0501L120.085 11.031C120.169 8.6215 120.169 7.05483 120.169 4.70007C121.302 5.68579 122.24 6.71674 123.081 8.00721Z" fill="#CF4CD9"/>
<path d="M63.7546 46.8025V157.726L60.8712 158.493L16.3594 170.331V22.0953L60.7808 34.1453L63.7546 34.9525V41.4239V41.5072H61.3998V41.3406V38.8191L54.7617 37.4739V49.8263L61.3998 50.9191V46.8025V46.7167H63.7546V46.8025Z" fill="#FF7101"/>
<path d="M61.3998 46.8024V50.9191L54.7617 49.8262V37.4739L61.3998 38.8191V41.3405V41.5072H58.376V46.7167H61.3998V46.8024Z" fill="#28736D"/>
<path d="M16.3594 22.0953H7.78796V170.331H16.3594V22.0953Z" fill="#FFA75A"/>
<path d="M67.3474 46.6334V46.7168V48.9858" stroke="#002140" stroke-width="0.999999" stroke-linecap="round" stroke-linejoin="round"/>
<path d="M67.3474 48.9857V154.336C67.3474 155.707 68.4688 156.831 69.8427 156.831H152.328C153.702 156.831 154.826 155.707 154.826 154.336V38.1167C154.826 36.7429 153.702 35.6191 152.328 35.6191H69.8427C68.4688 35.6191 67.3474 36.7429 67.3474 38.1167V41.2548" stroke="#002140" stroke-width="0.999999" stroke-linecap="round" stroke-linejoin="round"/>
<path d="M117.619 29.0405H67.8499C64.5213 29.0405 61.7546 31 60.8118 34.0286" stroke="#002140" stroke-width="0.999999" stroke-linecap="round" stroke-linejoin="round"/>
<path d="M142.409 29.0405H135.862" stroke="#002140" stroke-width="0.999999" stroke-linecap="round" stroke-linejoin="round"/>
<path d="M60.9117 158.645C61.9903 161.426 64.6998 163.409 67.8498 163.409H154.321C158.412 163.409 161.757 160.064 161.757 155.974V36.4786C161.757 35.6834 161.631 34.9191 161.397 34.2C160.431 31.2143 157.616 29.0405 154.321 29.0405H151.4" stroke="#002140" stroke-width="0.999999" stroke-linecap="round" stroke-linejoin="round"/>
<path d="M154.847 55.1215H154.826H67.788" stroke="#002140" stroke-width="0.999999" stroke-linecap="round" stroke-linejoin="round"/>
<path d="M154.847 64.7H154.826H67.788" stroke="#002140" stroke-width="0.999999" stroke-linecap="round" stroke-linejoin="round"/>
<path d="M154.847 68.3976H154.826H67.6189" stroke="#002140" stroke-width="0.999999" stroke-linecap="round" stroke-linejoin="round"/>
<path d="M154.847 86.3119H154.826H67.788" stroke="#002140" stroke-width="0.999999" stroke-linecap="round" stroke-linejoin="round"/>
<path d="M154.847 95.8905H154.826H67.788" stroke="#002140" stroke-width="0.999999" stroke-linecap="round" stroke-linejoin="round"/>
<path d="M154.847 99.588H154.826H67.6189" stroke="#002140" stroke-width="0.999999" stroke-linecap="round" stroke-linejoin="round"/>
<path d="M154.847 117.74H154.826H67.788" stroke="#002140" stroke-width="0.999999" stroke-linecap="round" stroke-linejoin="round"/>
<path d="M154.847 127.319H154.826H67.788" stroke="#002140" stroke-width="0.999999" stroke-linecap="round" stroke-linejoin="round"/>
<path d="M154.847 131.017H154.826H67.6189" stroke="#002140" stroke-width="0.999999" stroke-linecap="round" stroke-linejoin="round"/>
<path d="M154.847 145.374H154.826H67.4521" stroke="#002140" stroke-width="0.999999" stroke-linecap="round" stroke-linejoin="round"/>
<path d="M67.3474 41.5071H69.2998V46.7167H67.3474H63.7545H61.3998H58.376V41.5071H61.3998H63.7545H67.3474Z" stroke="#002140" stroke-width="0.999999" stroke-linecap="round" stroke-linejoin="round"/>
<path d="M61.3998 46.8024V50.9191L54.7617 49.8262V37.4739L61.3998 38.8191V41.3405" stroke="#002140" stroke-width="0.999999" stroke-linecap="round" stroke-linejoin="round"/>
<path d="M16.3594 22.0953H7.78796V170.331H16.3594V22.0953Z" stroke="#002140" stroke-width="0.999999" stroke-linecap="round" stroke-linejoin="round"/>
<path d="M63.7546 41.4239V34.9525L60.7808 34.1453L16.3594 22.0953" stroke="#002140" stroke-width="0.999999" stroke-linecap="round" stroke-linejoin="round"/>
<path d="M16.3594 170.331L60.8712 158.493L63.7546 157.726V46.8024" stroke="#002140" stroke-width="0.999999" stroke-linecap="round" stroke-linejoin="round"/>
<path d="M135.154 9.87384C135.7 10.6024 136.023 11.5072 136.023 12.4881C136.023 12.5834 136.021 12.6762 136.014 12.7691C135.914 14.3524 134.971 15.7048 133.631 16.3834C133.038 16.6881 132.364 16.8572 131.652 16.8572C130.54 16.8572 129.526 16.4429 128.754 15.7572C128.452 15.4905 128.188 15.181 127.971 14.8405C127.583 14.2357 127.34 13.5286 127.292 12.7691C127.285 12.6762 127.283 12.5834 127.283 12.4881C127.283 11.5834 127.557 10.7429 128.028 10.0453C128.814 8.88336 130.145 8.11908 131.652 8.11908C132.916 8.11908 134.054 8.65479 134.85 9.51194C134.959 9.62622 135.059 9.74765 135.154 9.87384Z" stroke="#002140" stroke-width="0.999999" stroke-linecap="round" stroke-linejoin="round"/>
<path d="M128.802 15.7C129.047 14.631 130.004 13.8334 131.15 13.8334C132.478 13.8334 133.557 14.9119 133.557 16.2405" stroke="#002140" stroke-width="0.999999" stroke-linecap="round" stroke-linejoin="round"/>
<path d="M127.943 14.8595C127.524 15.5048 126.94 16.0334 126.25 16.3834C125.654 16.6857 124.985 16.8572 124.271 16.8572C123.159 16.8572 122.145 16.4429 121.374 15.7572C120.538 15.0167 119.988 13.9596 119.912 12.7738C119.904 12.681 119.902 12.5834 119.902 12.4881C119.902 11.9834 119.988 11.5 120.145 11.05C120.619 9.68813 121.747 8.63575 123.152 8.26432C123.509 8.16908 123.885 8.11908 124.271 8.11908C125.778 8.11908 127.104 8.8786 127.89 10.0381" stroke="#002140" stroke-width="0.999999" stroke-linecap="round" stroke-linejoin="round"/>
<path d="M121.421 15.7C121.666 14.631 122.624 13.8334 123.769 13.8334C125.097 13.8334 126.176 14.9119 126.176 16.2405" stroke="#002140" stroke-width="0.999999" stroke-linecap="round" stroke-linejoin="round"/>
<path d="M136.107 12.7692H136.014H127.293H119.971" stroke="#002140" stroke-width="0.999999" stroke-linecap="round" stroke-linejoin="round"/>
<path d="M118.628 11.1572C118.366 11.1596 118.105 11.1787 117.845 11.2191C116.328 11.4501 114.916 12.3096 113.957 13.5144C113.466 14.131 113.09 14.8287 112.828 15.5691C112.526 16.4096 112.371 17.3072 112.362 18.2025C112.359 18.3239 112.359 18.4477 112.362 18.5691C112.421 20.4667 113.126 22.3691 114.455 23.7215C115.785 25.0739 117.34 25.7644 119.214 25.4572" stroke="#002140" stroke-width="0.999999" stroke-linecap="round" stroke-linejoin="round"/>
<path d="M128.628 24.8691C126.969 23.6644 125.086 23.6096 123.059 23.912C121.938 24.0786 120.807 24.3834 119.886 25.0429C119.676 25.1929 119.481 25.3596 119.3 25.5429C118.481 26.362 117.962 27.4763 117.795 28.631C117.776 28.7691 117.762 28.9072 117.752 29.0477C117.666 30.2834 117.983 31.5572 118.738 32.5358C119.578 33.6239 120.988 34.2905 122.352 34.1048C123.269 33.9786 124.178 33.4167 124.478 32.5405C124.681 31.9501 124.593 31.2905 124.797 30.7001C125.093 29.8405 125.771 29.3239 126.276 29.4072" stroke="#002140" stroke-width="0.999999" stroke-linecap="round" stroke-linejoin="round"/>
<path d="M120.497 29.581C120.176 30.7262 120.121 32.4381 120.338 33.6096" stroke="#002140" stroke-width="0.999999" stroke-linecap="round" stroke-linejoin="round"/>
<path d="M122.435 29.6691C122.002 30.812 121.921 32.5763 122.157 33.7763" stroke="#002140" stroke-width="0.999999" stroke-linecap="round" stroke-linejoin="round"/>
<path d="M139.357 11.3858C140.893 10.8286 142.614 11.1596 143.99 12.0501C144.823 12.5858 145.533 13.3262 146 14.1977C146.233 14.6358 146.414 15.0953 146.54 15.5691C146.769 16.4191 146.828 17.3143 146.745 18.2024C146.626 19.4334 146.231 20.65 145.612 21.7167C145.185 22.4524 144.654 23.1358 143.978 23.6477C142.376 24.8619 140.188 24.9524 138.195 24.6762C136.204 24.4024 134.243 23.8167 132.233 23.8596C131.445 23.8762 130.254 24.0929 129.552 24.4477C129.247 24.6024 128.974 24.7834 128.726 24.9834C127.24 26.1905 126.745 28.1238 126.638 29.4334C126.619 29.6381 126.612 29.8262 126.612 29.9953C126.607 31.4286 127.169 32.9167 128.376 33.6929C129.583 34.4667 131.833 34.5477 132.745 33.4405C133.521 32.5 132.933 30.8143 133.754 29.9119C134.3 29.3119 134.85 29.1096 135.854 29.0405H135.862C136.404 29.0048 137.078 29.0072 137.954 29.0072H142.326" stroke="#002140" stroke-width="0.999999" stroke-linecap="round" stroke-linejoin="round"/>
<path d="M129.545 29.581C129.224 30.7262 129.166 32.7762 129.383 33.9453" stroke="#002140" stroke-width="0.999999" stroke-linecap="round" stroke-linejoin="round"/>
<path d="M131.483 29.6691C131.05 30.812 130.969 32.5763 131.205 33.7763" stroke="#002140" stroke-width="0.999999" stroke-linecap="round" stroke-linejoin="round"/>
<path d="M153.39 24.8691C151.731 23.6644 149.847 23.6096 147.821 23.912C146.7 24.0786 145.569 24.3834 144.647 25.0429C143.49 25.8715 142.759 27.2215 142.557 28.631C142.538 28.7691 142.523 28.9072 142.514 29.0453C142.428 30.2834 142.745 31.5572 143.5 32.5358C144.34 33.6239 145.75 34.2905 147.114 34.1048C148.031 33.9786 148.94 33.4167 149.24 32.5405C149.442 31.9501 149.354 31.2905 149.559 30.7001C149.84 29.881 150.723 29.0667 151.242 29.0667C151.269 29.0667 151.292 29.0667 151.316 29.0715" stroke="#002140" stroke-width="0.999999" stroke-linecap="round" stroke-linejoin="round"/>
<path d="M145.259 29.581C144.938 30.7262 144.883 32.4381 145.1 33.6096" stroke="#002140" stroke-width="0.999999" stroke-linecap="round" stroke-linejoin="round"/>
<path d="M147.197 29.6691C146.764 30.812 146.683 32.5763 146.919 33.7763" stroke="#002140" stroke-width="0.999999" stroke-linecap="round" stroke-linejoin="round"/>
<path d="M162.864 16.7025C163.95 19.1073 164.388 22.1382 163.754 24.7001C163.119 27.2644 161.916 29.5787 159.833 31.2001" stroke="#002140" stroke-width="0.999999" stroke-linecap="round" stroke-linejoin="round"/>
<path d="M117.816 11.0311C118.09 7.65014 118.143 4.56204 118.074 1.17157C118.105 1.18109 118.135 1.193 118.164 1.2049C120.878 2.16919 123.195 3.82633 124.909 6.14537" stroke="#002140" stroke-width="0.999999" stroke-linecap="round" stroke-linejoin="round"/>
<path d="M118.207 1.0882C122.073 0.835818 126.016 3.70486 127.452 5.87629" stroke="#002140" stroke-width="0.999999" stroke-linecap="round" stroke-linejoin="round"/>
<path d="M132.624 6.09299C132.726 4.36919 132.652 3.81919 132.597 1.17157C132.626 1.18109 132.657 1.193 132.688 1.2049C135.436 2.19538 139.397 5.02157 140.616 8.73347" stroke="#002140" stroke-width="0.999999" stroke-linecap="round" stroke-linejoin="round"/>
<path d="M132.731 1.08817C135.535 0.904835 140.395 3.1834 142.724 7.01435C143.607 8.46435 144.126 10.1358 144.033 11.9834" stroke="#002140" stroke-width="0.999999" stroke-linecap="round" stroke-linejoin="round"/>
<path d="M125.047 6.28817C125.838 6.09769 126.643 5.96674 127.454 5.89055C129.176 5.72388 130.921 5.81436 132.616 6.1596" stroke="#002140" stroke-width="0.999999" stroke-linecap="round" stroke-linejoin="round"/>
<path d="M123.081 8.00721C122.24 6.71674 121.302 5.68579 120.169 4.70007C120.169 7.05483 120.169 8.6215 120.085 11.031" stroke="#002140" stroke-width="0.999999" stroke-linecap="round" stroke-linejoin="round"/>
<path d="M134.902 9.46202C134.959 7.78107 135.071 4.75726 135.071 4.75726C135.071 4.75726 137.704 6.15726 138.657 9.68583L135.35 9.74297" stroke="#002140" stroke-width="0.999999" stroke-linecap="round" stroke-linejoin="round"/>
<path d="M118.264 17.193C119.552 22.012 124.426 22.5168 128.012 20.1073L125.883 17.9216L130.252 17.8668L128.236 20.1073C132.095 22.5168 137.34 22.012 138.726 17.193" stroke="#002140" stroke-width="0.999999" stroke-linecap="round" stroke-linejoin="round"/>
<path d="M115.685 15.5691H112.828H102.914" stroke="#002140" stroke-width="0.999999" stroke-linecap="round" stroke-linejoin="round"/>
<path d="M115.126 18.2025H112.362H107.171" stroke="#002140" stroke-width="0.999999" stroke-linecap="round" stroke-linejoin="round"/>
<path d="M142.2 15.5691H146.54H154.971" stroke="#002140" stroke-width="0.999999" stroke-linecap="round" stroke-linejoin="round"/>
<path d="M142.759 18.2025H146.745H150.714" stroke="#002140" stroke-width="0.999999" stroke-linecap="round" stroke-linejoin="round"/>
<path d="M143.026 6.82867C143.923 6.26677 144.862 5.79058 145.826 5.39534C146.947 4.93106 148.104 4.57868 149.278 4.32629C150.062 4.15725 150.852 4.03344 151.645 3.95487C152.854 3.83106 154.066 3.80725 155.262 3.87868C156.14 3.93106 157.012 4.03344 157.862 4.18344C157.95 4.19772 158.038 4.21439 158.126 4.23344C159.312 4.45725 160.478 4.79534 161.545 5.35487C161.55 5.35963 161.557 5.36201 161.562 5.36439C162.347 5.77867 163.123 6.30248 163.843 6.90248C164.778 7.67629 165.619 8.57629 166.276 9.51915C166.297 9.55248 166.321 9.58343 166.343 9.61677C166.826 10.3215 167.257 11.0549 167.635 11.812C168.188 12.9072 168.633 14.0525 168.983 15.2287C169.185 15.9096 169.354 16.6025 169.495 17.3025C169.731 18.4834 169.883 19.6858 169.959 20.8953C169.971 21.1001 169.981 21.3049 169.99 21.5096C170.012 22.031 170.014 22.5525 170 23.0715C169.964 24.2787 169.831 25.4834 169.604 26.6691C169.473 27.3596 169.309 28.0429 169.114 28.7167C168.778 29.8787 168.352 31.0144 167.835 32.1072C167.566 32.6787 167.271 33.2382 166.954 33.7858C166.84 33.9834 166.723 34.1739 166.604 34.362C165.928 35.4406 165.193 36.362 164.393 37.2382C163.643 38.0596 162.833 38.8358 161.962 39.6596" stroke="#002140" stroke-width="0.999999" stroke-linecap="round" stroke-linejoin="round"/>
<path d="M153.221 10.3596C150.366 10.6382 147.9 11.5358 145.771 13.5525" stroke="#002140" stroke-width="0.999999" stroke-linecap="round" stroke-linejoin="round"/>
<path d="M145.871 5.5049C145.871 5.5049 146.559 7.17871 146.902 8.0168C147.247 8.85252 147.981 9.40728 148.873 9.11918C149.766 8.83109 150.154 8.2668 149.921 7.2049C149.688 6.14062 149.3 4.42157 149.3 4.42157" stroke="#002140" stroke-width="0.999999" stroke-linecap="round" stroke-linejoin="round"/>
<path d="M151.652 4.02865C151.652 4.02865 151.945 5.96912 152.081 6.86436C152.216 7.7596 152.8 8.46912 153.735 8.40007C154.671 8.33102 155.181 7.87626 155.204 6.78817C155.228 5.70007 155.259 3.93817 155.259 3.93817" stroke="#002140" stroke-width="0.999999" stroke-linecap="round" stroke-linejoin="round"/>
<path d="M158.128 4.2287C158.128 4.2287 158.128 4.23108 158.126 4.23346C158.102 4.33822 157.693 6.01679 157.485 6.86679C157.271 7.74536 157.538 8.62631 158.431 8.91679C159.323 9.20965 159.966 8.98107 160.402 7.98584C160.838 6.98822 161.538 5.36917 161.538 5.36917" stroke="#002140" stroke-width="0.999999" stroke-linecap="round" stroke-linejoin="round"/>
<path d="M163.809 6.94293C163.809 6.94293 162.564 8.46436 161.969 9.14769C161.376 9.83102 161.212 10.7358 161.871 11.4048C162.531 12.0715 163.207 12.1644 164.052 11.4786C164.895 10.7929 166.259 9.67388 166.259 9.67388" stroke="#002140" stroke-width="0.999999" stroke-linecap="round" stroke-linejoin="round"/>
<path d="M167.602 11.8286C167.602 11.8286 165.933 12.5262 165.097 12.8762C164.264 13.2262 163.714 13.9643 164.009 14.8548C164.305 15.7477 164.871 16.131 165.931 15.8881C166.993 15.6477 168.709 15.2477 168.709 15.2477" stroke="#002140" stroke-width="0.999999" stroke-linecap="round" stroke-linejoin="round"/>
<path d="M169.331 17.3358C169.331 17.3358 167.555 17.6905 166.666 17.8691C165.781 18.0477 165.097 18.6619 165.209 19.5929C165.324 20.5262 165.802 21.0143 166.89 20.9858C167.978 20.9596 169.74 20.9072 169.74 20.9072" stroke="#002140" stroke-width="0.999999" stroke-linecap="round" stroke-linejoin="round"/>
<path d="M169.883 23.0692C169.883 23.0692 168.073 22.9763 167.171 22.9311C166.266 22.8859 165.452 23.3144 165.333 24.2454C165.214 25.1763 165.559 25.7668 166.619 26.0073C167.681 26.2501 169.402 26.6311 169.402 26.6311" stroke="#002140" stroke-width="0.999999" stroke-linecap="round" stroke-linejoin="round"/>
<path d="M168.986 28.6786C168.986 28.6786 167.274 28.0881 166.419 27.7952C165.562 27.5 164.664 27.6857 164.29 28.5476C163.916 29.4095 164.083 30.0714 165.036 30.5976C165.988 31.1238 167.538 31.969 167.538 31.969" stroke="#002140" stroke-width="0.999999" stroke-linecap="round" stroke-linejoin="round"/>
<path d="M166.502 34.2977C166.502 34.2977 165.076 33.1834 164.364 32.6263C163.65 32.0692 162.74 31.9501 162.105 32.643C161.669 33.1215 161.505 33.593 161.683 34.1049C161.766 34.3358 161.916 34.5739 162.143 34.8239C162.871 35.6334 164.059 36.9358 164.059 36.9358" stroke="#002140" stroke-width="0.999999" stroke-linecap="round" stroke-linejoin="round"/>
<path d="M161.792 48.2858C162.042 49.662 162.476 50.7905 163.362 51.8739C164.245 52.9548 165.531 53.7453 166.923 53.8596C168.316 53.9715 169.916 53.7929 170.645 52.6001C170.978 52.0525 171.204 51.312 170.833 50.3072C170.445 49.2572 169.276 48.7906 168.39 48.1072C167.495 47.4167 166.881 46.3691 166.714 45.2501C166.597 44.4739 166.697 43.6501 167.097 42.9739C167.842 41.7096 169.514 41.2144 170.957 41.4906C171.588 41.612 172.207 41.8263 172.783 42.1287C173.523 42.512 174.19 43.0358 174.721 43.6691C174.976 43.9739 175.214 44.2929 175.431 44.6239C176.171 45.7477 176.692 46.9977 176.988 48.2786C177.264 49.4739 177.345 50.6953 177.226 51.8667C177.081 53.2929 176.638 54.6429 175.895 55.7739C175.838 55.862 175.776 55.9501 175.714 56.0358C175.283 56.6405 174.776 57.1882 174.202 57.6572C173.831 57.9596 173.435 58.231 173.021 58.4667C171.676 59.2453 170.131 59.6715 168.578 59.6929C168.309 59.6977 168.04 59.6905 167.771 59.6691C166.928 59.6048 166.123 59.4239 165.362 59.1358C164.419 58.781 163.547 58.2596 162.771 57.5905C162.466 57.3334 162.178 57.0501 161.904 56.7453" stroke="#002140" stroke-width="0.999999" stroke-linecap="round" stroke-linejoin="round"/>
<path d="M172.773 42.293C172.773 42.293 171.597 43.7953 171.073 44.5334C170.547 45.2692 170.469 46.1858 171.188 46.7882C171.907 47.3906 172.59 47.4192 173.366 46.6549C174.14 45.893 175.393 44.6501 175.393 44.6501" stroke="#002140" stroke-width="0.999999" stroke-linecap="round" stroke-linejoin="round"/>
<path d="M176.971 48.281C176.971 48.281 175.183 48.5572 174.288 48.6953C173.393 48.831 172.683 49.4143 172.754 50.3524C172.824 51.2881 173.281 51.7953 174.369 51.8191C175.457 51.8405 177.219 51.8667 177.219 51.8667" stroke="#002140" stroke-width="0.999999" stroke-linecap="round" stroke-linejoin="round"/>
<path d="M175.571 55.9216C175.571 55.9216 174.197 54.743 173.509 54.1549C172.824 53.5644 171.919 53.4049 171.255 54.0668C170.588 54.7311 170.5 55.4097 171.19 56.2501C171.883 57.0882 173.009 58.4454 173.009 58.4454" stroke="#002140" stroke-width="0.999999" stroke-linecap="round" stroke-linejoin="round"/>
<path d="M168.569 59.3168C168.569 59.3168 168.709 57.9549 168.778 57.2739C168.847 56.5953 168.702 55.8691 167.954 55.6811C167.209 55.493 166.547 55.7549 166.316 56.5334C166.083 57.312 165.435 58.931 165.435 58.931" stroke="#002140" stroke-width="0.999999" stroke-linecap="round" stroke-linejoin="round"/>
<path d="M162.79 57.5691C162.79 57.5691 163.662 56.5143 164.097 55.9881C164.533 55.4619 164.816 54.7786 164.3 54.2048C163.783 53.6334 163.09 53.4857 162.462 54.0024C162.297 54.1405 162.074 54.3095 161.835 54.4857" stroke="#002140" stroke-width="0.999999" stroke-linecap="round" stroke-linejoin="round"/>
<path d="M92.9141 71.7596C93.3689 72.8906 93.476 74.1977 93.2641 75.4715L93.0784 75.4406C92.0808 75.662 91.1046 74.9691 90.4569 74.1786C90.4022 74.112 90.345 74.0358 90.3403 73.9477C90.3355 73.8644 90.3712 73.7858 90.4165 73.7191C90.9808 72.8525 91.1927 72.431 91.5689 71.7596C90.8974 71.6763 90.8117 71.5906 89.2474 71.4691C89.0736 70.4548 89.3308 69.3715 89.9427 68.5429L90.0093 68.4286C91.3474 69.2406 92.376 70.4215 92.9141 71.7596Z" fill="#002140"/>
<path d="M90.457 74.1786C91.1046 74.9691 92.0808 75.662 93.0784 75.4405L93.2641 75.4715C93.0451 76.8072 92.476 78.1048 91.5951 79.131C91.3808 79.3786 91.1474 79.612 90.8974 79.8262L90.8617 79.8358C89.7641 75.481 88.2189 71.5524 85.5022 67.3144L85.5189 67.3048C87.1951 67.2239 88.7403 67.6596 90.0093 68.4286L89.9427 68.5429C89.3308 69.3715 89.0736 70.4548 89.2474 71.4691C90.8117 71.5905 90.8974 71.6763 91.5689 71.7596C91.1927 72.431 90.9808 72.8524 90.4165 73.7191C90.3712 73.7858 90.3355 73.8643 90.3403 73.9477C90.3451 74.0358 90.4022 74.112 90.457 74.1786Z" fill="#FFFAF0"/>
<path d="M81.4569 131.722C79.9783 131.641 78.5688 132.038 77.2545 132.712C75.7688 133.469 74.4045 134.576 73.1926 135.741C73.1212 135.81 73.0498 135.876 72.9807 135.945C71.8998 137.002 70.795 138.162 69.3307 138.531C69.2545 138.55 69.1784 138.567 69.1022 138.581C68.1998 138.75 67.295 138.572 66.4807 138.155C65.6069 137.712 64.8379 136.995 64.2855 136.143C63.9736 135.66 63.7307 135.133 63.5784 134.591C63.4474 134.117 63.3617 133.641 63.3212 133.16C63.2236 132.1 63.3331 131.026 63.5736 129.972C63.7903 129.029 64.1141 128.1 64.495 127.212C64.5046 127.219 64.5093 127.222 64.5093 127.222L65.8546 123.776L65.8879 123.705C67.2022 124.355 68.9236 124.21 70.0307 123.222C70.9069 122.443 71.3569 121.295 71.6474 120.16C71.9641 118.917 72.126 117.633 72.126 116.348C72.2974 117.779 72.2498 119.229 72.5403 120.638C72.8331 122.048 73.5331 123.467 74.7903 124.169C76.4236 125.081 78.4236 124.588 79.7784 123.329L79.8045 123.357C78.4545 125.872 77.9593 127.269 77.1331 130L77.0569 130.291C78.4807 130.667 79.9783 131.131 81.476 131.667L81.4569 131.722Z" fill="#F2C8AA"/>
<path d="M96.8641 80.6667C98.2927 82.9357 96.276 84.6167 96.276 84.6167L96.257 84.6381C94.888 83.3976 92.9356 82.4881 90.7832 82.4881L91.3999 82.1595C91.2308 81.3691 91.0522 80.5976 90.8618 79.8357L90.8975 79.8262C91.1475 79.6119 91.3808 79.3786 91.5951 79.131L91.9046 79.1548C91.9046 79.1548 95.3022 78.1857 96.8641 80.6667Z" fill="#F2C8AA"/>
<path d="M81.4522 93.3572C81.0641 93.4429 80.6569 93.481 80.2427 93.4691C77.9498 93.4096 75.7998 91.7024 75.2189 89.4858C74.9403 88.4191 75.0022 87.2691 75.3593 86.2263C75.7736 85.0239 76.6046 83.9406 77.745 83.3763C77.8427 83.3286 77.945 83.2834 78.0474 83.2453L77.9831 83.0763C76.4236 80.5001 74.6498 77.0668 75.3903 74.1477C75.8379 72.381 77.0903 70.9525 78.2546 69.5525C79.876 67.6049 81.4212 65.5453 82.6831 63.3477C83.745 64.712 84.6784 66.0287 85.5022 67.3144C88.2188 71.5525 89.7641 75.481 90.8617 79.8358C91.0522 80.5977 91.2307 81.3691 91.3998 82.1596L90.7831 82.4882C92.9355 82.4882 94.8879 83.3977 96.2569 84.6382C96.9807 85.2953 97.5426 86.0429 97.8855 86.8001L97.8688 86.8953C97.395 86.831 96.9188 86.8786 96.4784 87.0906C95.0617 87.7667 94.795 89.7477 95.3355 91.2191C95.876 92.6929 96.9807 93.8834 97.7093 95.2739C98.6903 97.1501 98.9474 99.3905 98.4212 101.441C97.8926 103.488 96.8641 105.467 95.0974 106.633C93.9974 105.531 93.0355 103.96 92.3236 102.574C91.6117 101.188 90.7926 99.7858 89.5045 98.9072C88.2188 98.0286 86.345 97.8263 85.1593 98.8358C84.7688 99.1643 84.4784 99.6001 84.2569 100.06C83.0665 102.538 83.9284 105.643 85.7617 107.693C87.595 109.743 90.2165 110.91 92.845 111.717L92.876 111.762C92.9403 113.005 93.2831 114.221 93.8474 115.326L93.7545 115.374C90.5617 118.733 85.6022 120.919 81.3165 121.341L81.1427 121.286C81.845 119.56 82.0093 117.417 82.1284 115.569C82.6046 108.224 82.6903 101.002 81.4569 93.3834L81.4522 93.3572Z" fill="#F2C8AA"/>
<path d="M110.197 105.902L110.509 105.933C111.731 107.105 112.064 109.005 111.64 110.643C111.217 112.281 110.133 113.683 108.881 114.822C108.738 114.952 108.586 115.088 108.517 115.269C108.459 115.419 108.464 115.586 108.464 115.745C108.464 116.722 108.226 117.695 107.776 118.56C107.776 118.56 128.293 151.676 131.064 156.129C133.838 160.583 133.29 166.236 131.064 168.314C128.543 170.667 124.343 172.095 117.705 167.221C112.155 163.148 96.9165 150.852 92.0665 146.929L91.9046 147.055C90.7284 150.583 88.6284 159.912 87.9546 163.693C87.838 164.345 87.7142 164.988 87.5737 165.602C86.9189 168.4 85.8594 170.595 83.2427 170.383C83.107 170.371 82.9713 170.355 82.8285 170.331C79.2999 169.743 78.8808 166.045 79.8046 160.331C80.0499 158.814 80.3737 156.981 80.738 155.019C81.4023 151.445 82.2094 147.443 82.9475 144.141C83.3284 142.438 83.6903 140.919 84.007 139.743C84.2975 138.655 84.6975 137.781 85.1689 137.107C86.4451 135.286 88.2475 134.91 89.8832 135.629C90.2618 135.793 90.6308 136.019 90.9808 136.298C93.4189 138.231 117.619 158.733 121.233 161.088C124.847 163.441 126.024 161.088 124.426 158.398C122.378 154.95 98.8475 119.836 98.8475 119.836C96.6808 119.05 94.888 117.376 93.8475 115.326C93.2832 114.222 92.9403 113.005 92.8761 111.762L92.8451 111.717C90.2165 110.91 87.5951 109.743 85.7618 107.693C83.9284 105.643 83.0665 102.538 84.257 100.06C84.4784 99.6001 84.7689 99.1644 85.1594 98.8358C86.3451 97.8263 88.2189 98.0287 89.5046 98.9072C90.7927 99.7858 91.6118 101.188 92.3237 102.574C93.0356 103.96 93.9975 105.531 95.0975 106.633C96.8642 105.467 97.8927 103.488 98.4213 101.441C98.9475 99.3906 98.6903 97.1501 97.7094 95.2739C96.9808 93.8834 95.8761 92.693 95.3356 91.2191C94.7951 89.7477 95.0618 87.7668 96.4784 87.0906C96.9189 86.8787 97.3951 86.8311 97.8689 86.8953C98.6737 87.0049 99.4808 87.4406 100.124 87.9644C101.797 89.3311 102.926 91.2882 103.559 93.3549C103.59 93.4572 103.621 93.562 103.65 93.6644L103.838 93.6096C105.045 93.562 106.443 94.7001 107.031 96.1287C107.574 97.443 107.843 98.9144 107.871 100.417H108.04C108.755 100.674 110.309 101.76 110.276 104.519C110.271 104.983 110.245 105.445 110.197 105.902Z" fill="#F2C8AA"/>
<path d="M17.538 137.055H17.5357L10.6452 137.557L10.5404 137.567C10.4261 136.364 10.319 135.21 10.219 134.129L10.3928 134.112L13.2642 133.857L17.0309 133.524L17.2023 133.507C17.3118 134.662 17.4261 135.85 17.538 137.055Z" fill="#F2C8AA"/>
<path d="M2.6999 103.845C2.58562 103.491 2.48562 103.103 2.39752 102.667C2.03562 100.898 2.42133 98.9882 3.44038 97.5001C4.4618 96.0097 6.17609 95.0049 7.95466 94.7001V102.936C7.95466 102.964 8.05466 102.974 8.05466 103.003C10.4094 104.945 12.8213 106.824 15.2808 108.631C15.2261 108.55 15.4785 108.579 15.4213 108.498C16.3308 108.188 16.9308 107.288 17.1642 106.357C17.3975 105.429 17.3261 104.453 17.2856 103.495C17.2166 101.841 17.2475 100.145 17.8189 98.5906C18.3904 97.0382 19.588 95.6335 21.1856 95.2001C22.7832 94.7668 24.7284 95.562 25.2546 97.1311C25.6689 98.3644 25.1737 99.712 24.5451 100.85C23.9142 101.986 23.1261 103.081 22.8951 104.36C22.538 106.322 23.5594 108.317 23.3213 110.295C23.1451 111.738 22.3189 113.012 21.4546 114.179C19.7761 116.448 17.8713 118.536 15.9666 120.622C15.9666 120.622 16.1761 122.805 16.4951 126.131L12.9975 126.386L9.55228 126.633H9.5237C9.48799 126.252 9.46894 126.045 9.46894 126.045C9.13323 123.357 9.04751 122.348 7.87132 121.255C7.12133 120.56 3.14752 118.162 2.54514 117.336C1.94276 116.51 1.77847 115.279 2.43085 114.491L2.788 114.048C2.64038 113.9 2.50466 113.743 2.38085 113.576C1.58085 112.488 1.23324 110.753 2.32609 109.324L2.47847 109.138C2.20704 108.857 1.9999 108.612 1.89038 108.422C1.18562 107.205 0.811808 105.122 2.40943 103.86L2.6999 103.845Z" fill="#F2C8AA"/>
<path d="M47.7046 128.902C51.1499 124.617 54.9308 124.198 58.7951 125.205C57.5713 126.364 55.6427 129.512 53.457 133.857C52.8332 135.098 52.188 136.436 51.5332 137.855C50.6642 138.943 34.3499 159.395 27.8713 167.643C22.3261 174.7 13.9213 172.012 13.0809 164.198C12.7404 161.012 11.7094 150.105 10.838 140.767L10.9809 140.752L17.6618 140.121L17.8332 140.105C18.5118 147.224 19.1856 154.293 19.469 157.391C20.1404 164.7 22.9142 161.002 25.8547 157.391C28.7951 153.776 45.6404 131.469 47.7046 128.902Z" fill="#F2C8AA"/>
<path d="M17.8333 140.105L17.6618 140.121L10.9809 140.752L10.838 140.767C10.7356 139.674 10.6356 138.602 10.5404 137.567L10.6452 137.557L17.5356 137.055H17.538C17.6356 138.064 17.7333 139.086 17.8333 140.105Z" fill="#FED607"/>
<path d="M17.2023 133.507L17.0308 133.524L13.2499 130.079L16.4975 126.162C16.6975 128.25 16.9403 130.783 17.2023 133.507Z" fill="#FED607"/>
<path d="M17.0308 133.524L13.2641 133.857L13.2499 133.693L10.057 130.331L12.9975 126.386L16.4951 126.131C16.4951 126.131 16.4975 126.152 16.4975 126.162L13.2499 130.079L17.0308 133.524Z" fill="#FED607"/>
<path d="M13.2498 133.693L13.2641 133.857L10.3927 134.112L10.2189 134.129C10.0879 132.731 9.9689 131.455 9.8689 130.348L10.057 130.331L13.2498 133.693Z" fill="#FED607"/>
<path d="M12.9975 126.386L10.057 130.331L9.86892 130.348C9.7094 128.638 9.58797 127.34 9.52368 126.636H9.55225L12.9975 126.386Z" fill="#FED607"/>
<path d="M70.8117 142.936L70.8165 142.955C69.9046 143.219 68.9189 143.357 67.7879 143.357C66.9403 143.357 66.0641 143.214 65.2046 142.952C64.7808 142.821 64.3594 142.66 63.9498 142.471L64.007 142.348L66.4427 138.231L66.4808 138.155C67.2951 138.571 68.1998 138.75 69.1022 138.581L69.6355 138.65L70.8117 142.936Z" fill="#FED607"/>
<path d="M64.4951 127.212C64.1142 128.1 63.7904 129.029 63.5737 129.971L63.3332 129.912L59.4689 128.483L59.4142 128.462C59.7451 127.519 60.1689 126.61 60.6856 125.755V125.745C63.1118 126.495 64.3547 127.14 64.4951 127.212Z" fill="#FED607"/>
<path d="M64.2855 136.143L64.1736 136.214L59.7212 138.65L59.6832 138.669C59.6093 138.533 59.5403 138.393 59.4784 138.252C59.3093 137.874 59.1689 137.483 59.0546 137.083C58.8903 136.517 58.776 135.936 58.6974 135.35C58.6046 134.662 58.5617 133.967 58.5712 133.271H58.6284L62.9974 133.188L63.3212 133.16C63.3617 133.64 63.4474 134.117 63.5784 134.59C63.7308 135.133 63.9736 135.66 64.2855 136.143Z" fill="#FED607"/>
<path d="M70.8117 142.936L69.6355 138.65L69.1022 138.581C69.1784 138.567 69.2546 138.55 69.3307 138.531C70.795 138.162 71.8998 137.002 72.9807 135.945C73.0498 135.876 73.1212 135.81 73.1926 135.74L73.4188 135.876L76.695 139.155L76.6998 139.16C76.3522 139.49 76.0022 139.817 75.6474 140.129C75.2188 140.502 74.7855 140.857 74.3426 141.171C73.1903 141.983 72.076 142.588 70.8165 142.955L70.8117 142.936Z" fill="#FED607"/>
<path d="M66.4808 138.155L66.4427 138.231L64.007 142.348L63.9499 142.471C62.1499 141.65 60.557 140.307 59.6832 138.669L59.7213 138.65L64.1737 136.214L64.2856 136.143C64.838 136.995 65.607 137.712 66.4808 138.155Z" fill="#FED607"/>
<path d="M63.3332 129.912L63.5737 129.971C63.3332 131.026 63.2237 132.1 63.3213 133.16L62.9975 133.188L58.6284 133.271H58.5713C58.5856 131.636 58.8737 130.005 59.4141 128.462L59.4689 128.483L63.3332 129.912Z" fill="#FED607"/>
<path d="M83.6951 134.536C82.8308 134.795 81.9761 135.164 81.1832 135.595L81.1499 135.457L77.3665 132.936L77.2546 132.712C78.5689 132.038 79.9784 131.64 81.457 131.721L81.4761 131.667C83.4332 132.367 85.388 133.188 87.1665 134.09L87.1142 134.198C86.0284 134.036 84.8522 134.188 83.6951 134.536Z" fill="#FED607"/>
<path d="M81.1499 135.457L81.1832 135.595C80.8213 135.791 80.4713 135.998 80.1404 136.214C78.9356 137 77.8213 138.102 76.6999 139.16L76.6951 139.155L73.4189 135.876L73.1927 135.741C74.4047 134.576 75.7689 133.469 77.2546 132.712L77.3666 132.936L81.1499 135.457Z" fill="#FED607"/>
<path d="M75.7594 140.255L75.6475 140.129C76.0022 139.817 76.3522 139.49 76.6998 139.16C77.8213 138.102 78.9356 137 80.1403 136.214C80.4713 135.998 80.8213 135.79 81.1832 135.595C81.976 135.164 82.8308 134.795 83.6951 134.536C84.6213 134.971 85.2141 136.033 85.0927 137.052L85.1689 137.107C84.6974 137.781 84.2974 138.655 84.007 139.743C83.6903 140.919 83.3284 142.438 82.9475 144.14L82.7594 144.129C82.2736 144.726 81.4141 144.91 80.6522 144.798C79.507 144.626 78.4713 143.84 77.9975 142.783C77.7403 142.207 77.6379 141.564 77.3213 141.019C77.0046 140.471 76.3498 140.031 75.7594 140.255Z" fill="#99F6FF"/>
<path d="M65.1261 143.202C65.0023 144.062 65.4903 144.974 66.2713 145.35C67.6832 146.026 69.4142 144.967 70.8975 145.462C71.9737 145.819 72.4832 147.031 72.4165 148.162C72.3261 149.743 71.2546 150.307 70.7903 150.54C70.0999 150.888 69.2808 150.664 68.5094 150.617C67.0189 150.526 65.4999 151.176 64.5356 152.317C64.1784 152.74 63.8927 153.226 63.4856 153.602C62.4737 154.536 60.7451 154.545 59.7213 153.624C59.0784 153.043 58.7356 152.195 58.1261 151.579C57.2308 150.669 55.7618 150.381 54.588 150.883C53.307 151.431 52.4308 152.786 51.0689 153.076C50.1237 153.279 49.1285 152.902 48.3737 152.298C47.6213 151.693 47.0666 150.881 46.5332 150.074L46.4523 150.043C48.0951 145.664 49.8475 141.498 51.5332 137.855C52.188 136.436 52.8332 135.098 53.457 133.857L53.5951 133.926C54.388 134.038 55.0999 134.6 55.3927 135.345C55.5404 135.726 55.5856 136.138 55.7165 136.526C55.8475 136.912 56.0951 137.295 56.4832 137.421C57.2737 137.676 58.1475 136.757 58.8904 137.129L59.0546 137.083C59.1689 137.483 59.3094 137.874 59.4784 138.252C59.5404 138.393 59.6094 138.533 59.6832 138.669C60.557 140.307 62.1499 141.65 63.9499 142.471C64.3594 142.66 64.7808 142.821 65.2046 142.952L65.1261 143.202Z" fill="#99F6FF"/>
<path d="M83.2284 170.621C83.7879 172.429 82.3617 174.569 80.4784 174.748C79.3546 174.855 78.195 174.369 77.1141 174.69C75.6665 175.119 74.8212 176.862 73.326 177.067C72.3165 177.205 71.3308 176.548 70.776 175.693C70.2236 174.838 70.0141 173.81 69.8141 172.812C69.6689 172.076 69.5212 171.343 69.376 170.61C69.295 170.205 69.2093 169.786 68.9665 169.45C68.276 168.495 66.7474 168.74 65.7831 169.421C64.826 170.095 63.9117 171.145 62.7498 170.988C62.0236 170.888 61.4403 170.302 61.1403 169.633C60.8403 168.967 60.7879 168.212 60.5831 167.51C60.4784 167.155 60.1974 166.857 59.8498 166.731C59.4117 166.574 58.9236 166.686 58.4617 166.626C57.6879 166.524 57.0403 165.921 56.7212 165.207C56.4046 164.493 56.376 163.681 56.4593 162.905C56.6022 161.6 57.1022 160.264 58.1451 159.469C59.1879 158.674 60.8474 158.621 61.7189 159.602C62.4522 160.431 62.6546 161.888 63.7379 162.114C64.4879 162.269 65.1808 161.683 65.6546 161.081C66.3641 160.183 66.9117 159.14 67.7855 158.398C68.6569 157.655 70.0189 157.298 70.9355 157.986C71.3903 158.326 71.6522 158.86 71.9784 159.326C72.3046 159.793 72.7736 160.238 73.345 160.236C74.0141 160.236 74.5093 159.631 74.8736 159.071C75.8903 157.519 76.776 155.776 78.3379 154.779C78.726 154.531 79.1641 154.333 79.6236 154.338C80.0831 154.343 80.5617 154.59 80.7284 155.019H80.7379C80.3736 156.981 80.0498 158.814 79.8046 160.331C78.8807 166.045 79.2998 169.743 82.8284 170.331C82.9712 170.355 83.1069 170.371 83.2426 170.383L83.2284 170.621Z" fill="#99F6FF"/>
<path d="M63.5094 179.005C64.2427 180.124 64.457 181.571 64.0784 182.855C63.6998 184.138 62.7379 185.238 61.5141 185.783C60.8617 186.074 60.0665 186.198 59.457 185.826C59.0713 185.593 58.807 185.186 58.4141 184.96C57.7951 184.605 56.9855 184.783 56.3903 185.176C55.7951 185.571 55.3498 186.15 54.857 186.667C53.9594 187.607 52.5689 188.402 51.4094 187.814C50.7832 187.498 50.3975 186.848 50.1094 186.205C49.5641 184.99 49.1213 183.545 47.9141 182.983C46.8879 182.507 45.6427 182.874 44.7356 183.548C43.826 184.221 43.1594 185.16 42.4022 186C41.6451 186.838 40.7213 187.617 39.6046 187.795C38.4903 187.974 37.1832 187.329 36.9879 186.217L36.8451 186.188C37.8927 181.055 39.2213 174.986 40.8975 167.895C41.0308 167.333 41.1689 166.769 41.3141 166.2L41.4118 166.226C42.2546 165.052 43.6403 163.919 45.0046 164.393C45.9832 164.733 46.5284 165.805 46.6522 166.833C46.776 167.86 46.576 168.895 46.5617 169.931C46.5522 170.726 46.6498 171.524 46.857 172.293C47.0213 172.905 47.2594 173.514 47.6832 173.986C48.107 174.457 48.7403 174.774 49.3689 174.693C50.3165 174.569 50.9141 173.657 51.5141 172.914C52.0427 172.257 52.6832 171.662 53.4641 171.343C54.2475 171.024 55.1903 171.019 55.8951 171.483C56.6594 171.983 57.0165 172.914 57.1903 173.81C57.3641 174.705 57.4046 175.638 57.7451 176.486C58.0855 177.331 58.8332 178.105 59.7451 178.114C60.3832 178.119 60.9808 177.755 61.6189 177.762C62.4046 177.771 63.0784 178.348 63.5094 179.005Z" fill="#99F6FF"/>
<path d="M71.9903 205.831C72.7499 206.971 72.6999 208.593 71.8737 209.686C71.0499 210.781 69.5046 211.274 68.1975 210.857C67.4023 210.605 66.6356 210.045 65.8142 210.205C65.0451 210.355 64.5499 211.074 64.0451 211.674C63.4427 212.383 62.6951 213.005 61.8046 213.271C60.9118 213.54 59.8642 213.402 59.188 212.767C58.1547 211.795 58.2046 209.986 57.0618 209.145C56.0808 208.424 54.6713 208.776 53.6332 209.414C52.4785 210.124 51.5237 211.138 50.3309 211.781C49.1356 212.424 47.5118 212.598 46.5285 211.662C45.6213 210.8 45.6094 209.376 45.0809 208.24C44.8785 207.807 44.5785 207.395 44.1499 207.179C42.5547 206.369 40.5547 208.655 39.0118 207.75C37.988 207.15 37.9285 205.483 36.8332 205.024C35.8237 204.6 34.388 205.438 33.6904 204.593L33.6023 204.581C33.888 202.479 34.3118 199.71 34.9309 196.2L35.019 196.214C35.2404 197.179 36.019 198.221 36.988 198.021C37.8332 197.845 38.238 196.833 39.0213 196.476C39.769 196.133 40.6713 196.479 41.288 197.024C41.9047 197.567 42.3356 198.288 42.8999 198.886C43.4642 199.483 44.2523 199.976 45.0642 199.848C46.2928 199.652 46.8499 198.26 47.3999 197.143C47.9189 196.088 48.6451 195.1 49.6499 194.493C50.657 193.888 51.9785 193.721 53.0142 194.276C54.157 194.89 54.7261 196.2 55.0523 197.455C55.3785 198.71 55.5594 200.04 56.2618 201.131C56.9618 202.221 58.4118 202.986 59.5737 202.412C60.4166 201.993 60.8713 201.005 61.7261 200.612C62.3975 200.302 63.2166 200.429 63.8451 200.819C64.4737 201.21 64.9308 201.831 65.2546 202.495C65.6999 203.407 66.1332 204.598 67.1451 204.69C67.5689 204.731 67.9785 204.545 68.3904 204.44C69.7213 204.105 71.2308 204.688 71.9903 205.831Z" fill="#99F6FF"/>
<path d="M81.295 205.85C81.6188 204.931 82.3569 203.952 83.3212 204.076L83.5379 204.083C83.2593 210.743 83.3617 214.728 83.3617 214.728C78.9141 216.883 73.995 218.133 67.7974 218.424L67.7855 218.202C67.876 217.371 68.3284 216.586 68.9998 216.09C69.9903 215.357 71.3022 215.295 72.5236 215.157C73.7474 215.019 75.0879 214.695 75.7784 213.674C76.3546 212.821 76.3236 211.695 76.7498 210.757C77.0546 210.093 77.5927 209.538 78.2498 209.217C78.8308 208.931 79.5046 208.819 80.0165 208.421C80.7831 207.821 80.9712 206.767 81.295 205.85Z" fill="#99F6FF"/>
<path d="M85.5451 180.319L85.6403 180.331C85.0784 184.795 84.5427 189.4 84.257 192.769C84.007 195.729 83.8237 198.462 83.6903 200.924L83.5856 200.919C83.0332 201.559 82.4189 201.79 81.5784 201.683C80.7403 201.576 79.9713 201.112 79.3975 200.49C78.7284 199.762 78.3141 198.838 77.7094 198.057C77.1022 197.279 76.1784 196.612 75.2022 196.755C74.2451 196.895 73.5808 197.733 72.9141 198.433C71.9356 199.464 70.4189 200.345 69.1546 199.698C68.307 199.262 67.907 198.3 67.457 197.462C67.007 196.624 66.2784 195.752 65.3284 195.798C64.638 195.829 64.0618 196.343 63.3856 196.486C62.3856 196.698 61.3499 196.017 60.8975 195.102C60.4427 194.188 60.4665 193.105 60.6689 192.102C60.7975 191.45 61.007 190.795 61.4284 190.281C61.8499 189.769 62.5189 189.419 63.1737 189.521C64.3213 189.702 65.0141 191.117 66.1713 191.174C66.8689 191.207 67.4999 190.702 67.8475 190.098C68.1975 189.493 68.3308 188.79 68.5118 188.117C68.7689 187.162 69.1522 186.207 69.8618 185.521C70.5713 184.836 71.6737 184.483 72.5784 184.879C73.4022 185.238 73.9118 186.121 74.7427 186.467C75.9784 186.981 77.3927 186.076 78.0903 184.936C78.7903 183.795 79.0403 182.436 79.6451 181.24C80.2189 180.107 81.1832 179.098 82.4213 178.8C83.657 178.505 85.1403 179.114 85.5451 180.319Z" fill="#99F6FF"/>
<path d="M77.745 83.3763C76.6045 83.9405 75.7736 85.0239 75.3593 86.2262C75.0022 87.2691 74.9403 88.4191 75.2188 89.4858C75.7998 91.7024 77.9498 93.4096 80.2426 93.4691C80.6569 93.481 81.0641 93.4429 81.4522 93.3572L81.4569 93.3834C82.6903 101.002 82.6045 108.224 82.1283 115.569C82.0093 117.417 81.845 119.56 81.1426 121.286C80.9807 121.683 80.7879 122.06 80.5617 122.405C80.3379 122.745 80.0736 123.055 79.7784 123.329C78.4236 124.588 76.4236 125.081 74.7903 124.169C73.5331 123.467 72.8331 122.048 72.5403 120.638C72.2498 119.229 72.2974 117.779 72.126 116.348C72.126 117.633 71.9641 118.917 71.6474 120.16C71.3569 121.295 70.9069 122.443 70.0307 123.221C68.9236 124.21 67.2022 124.355 65.8879 123.705C65.5212 123.526 65.1855 123.283 64.9046 122.983C63.7474 121.743 63.5903 119.879 63.6998 118.186C63.8093 116.491 64.2545 114.733 63.8046 113.095C63.9926 114.355 63.795 115.648 63.4188 116.864C63.0926 117.926 62.6188 118.962 61.876 119.788C61.1331 120.614 60.0974 121.217 58.9879 121.271C57.5308 121.343 56.0831 120.381 55.5831 119.012C54.6808 116.536 56.8641 113.674 55.9736 111.193C56.2522 113.198 55.6284 115.419 54.0141 116.641C52.4022 117.864 49.7665 117.71 48.6141 116.048C47.8141 114.893 47.8522 113.348 48.2046 111.991C48.5593 110.631 49.1927 109.357 49.5022 107.988C50.1069 105.312 49.426 102.505 48.3998 99.962C47.3712 97.4191 45.9974 95.0167 45.1236 92.4167C44.6903 91.1262 44.3903 89.7572 44.326 88.3977C43.7046 89.2643 42.5784 89.7382 41.526 89.5739C40.4712 89.4072 39.5379 88.6072 39.2165 87.5882C39.0236 86.9739 39.0403 86.3143 39.1236 85.6763C39.4331 83.3239 40.6665 81.1001 42.4903 79.5858C42.7879 79.3786 43.0808 79.162 43.3689 78.9405C43.0641 79.1382 42.7689 79.3525 42.4903 79.5858C41.8808 80.0096 41.2427 80.3858 40.5474 80.6382C39.5117 81.0144 38.3212 81.0858 37.3308 80.6048C36.3379 80.1215 35.6665 79.012 35.8212 77.9215C35.9665 76.9144 36.4141 75.7929 37.8236 75.2167C38.8427 74.7977 39.9427 74.6644 41.0451 74.7191C41.7546 74.7548 42.526 74.7501 43.226 74.9215C43.4141 74.9953 43.607 75.0596 43.8022 75.112C43.6189 75.031 43.426 74.9691 43.226 74.9215C41.8593 74.3834 40.7141 73.2882 40.1355 71.9334C39.476 70.3953 39.5641 68.5572 40.3665 67.0882C40.7189 66.4429 41.2189 65.8525 41.8808 65.531C42.5427 65.2096 43.3808 65.1929 43.9855 65.6096C44.5212 65.981 44.807 66.6239 44.9379 67.262C45.0712 67.9025 45.076 68.5596 45.1927 69.2001C45.3855 70.262 45.8879 71.2667 46.6236 72.0572C45.4689 69.0929 46.4117 65.6215 48.2593 63.0191C50.1355 60.3763 52.8236 58.443 55.445 56.5382C58.0665 54.6358 60.7307 52.6525 62.5188 49.9501C63.645 48.2501 64.3926 46.3096 65.6165 44.6787C67.4331 42.262 70.2879 40.6525 73.2974 40.3549C76.3069 40.0573 79.4236 41.0715 81.6807 43.0858C85.3593 46.3739 86.4093 51.9025 85.345 56.7191C84.826 59.0644 83.8807 61.2668 82.6831 63.3477C81.4212 65.5453 79.876 67.6048 78.2545 69.5525C77.0903 70.9525 75.8379 72.381 75.3903 74.1477C74.6498 77.0667 76.4236 80.5001 77.9831 83.0763L78.0474 83.2453C77.945 83.2834 77.8426 83.3286 77.745 83.3763Z" fill="#50EEF6"/>
<path d="M89.8832 135.629C88.2474 134.91 86.4451 135.286 85.1689 137.107L85.0927 137.052C85.2141 136.033 84.6213 134.972 83.6951 134.536C84.8522 134.188 86.0284 134.036 87.1141 134.198L87.1665 134.091C88.1332 134.581 89.0474 135.095 89.8832 135.629Z" fill="#F68DFE"/>
<path d="M60.688 125.745V125.755C60.1689 126.61 59.7451 127.519 59.4142 128.462C58.8737 130.005 58.5856 131.636 58.5713 133.271C58.5618 133.967 58.6046 134.662 58.6975 135.35C58.7761 135.936 58.8904 136.517 59.0546 137.083L58.8904 137.129C58.1475 136.757 57.2737 137.676 56.4832 137.421C56.0951 137.295 55.8475 136.912 55.7166 136.526C55.5856 136.138 55.5404 135.726 55.3927 135.345C55.0999 134.6 54.388 134.038 53.5951 133.926L53.457 133.857C55.6427 129.512 57.5713 126.364 58.7951 125.205C59.4904 125.386 60.1213 125.569 60.688 125.745Z" fill="#F68DFE"/>
<path d="M74.3427 141.171C74.7856 140.857 75.2189 140.502 75.6475 140.129L75.7594 140.255C76.3499 140.031 77.0046 140.471 77.3213 141.019C77.638 141.564 77.7403 142.207 77.9975 142.783C78.4713 143.841 79.507 144.626 80.6522 144.798C81.4141 144.91 82.2737 144.726 82.7594 144.129L82.9475 144.141C82.2094 147.443 81.4022 151.445 80.738 155.019H80.7284C80.5618 154.59 80.0832 154.343 79.6237 154.338C79.1641 154.333 78.7261 154.531 78.338 154.779C76.7761 155.776 75.8903 157.519 74.8737 159.071C74.5094 159.631 74.0141 160.233 73.3451 160.236C72.7737 160.238 72.3046 159.793 71.9784 159.326C71.6522 158.86 71.3903 158.326 70.9356 157.986C70.0189 157.298 68.657 157.655 67.7856 158.398C66.9118 159.14 66.3642 160.183 65.6546 161.081C65.1808 161.683 64.488 162.269 63.738 162.114C62.6546 161.888 62.4523 160.431 61.7189 159.602C60.8475 158.621 59.188 158.674 58.1451 159.469C57.1023 160.264 56.6023 161.6 56.4594 162.905C56.3761 163.681 56.4046 164.493 56.7213 165.207C57.0404 165.921 57.688 166.524 58.4618 166.626C58.9237 166.686 59.4118 166.574 59.8499 166.731C60.1975 166.857 60.4785 167.155 60.5832 167.51C60.788 168.212 60.8404 168.967 61.1404 169.633C61.4404 170.302 62.0237 170.888 62.7499 170.988C63.9118 171.145 64.8261 170.095 65.7832 169.421C66.7475 168.74 68.2761 168.495 68.9665 169.45C69.2094 169.786 69.2951 170.205 69.3761 170.61C69.5213 171.343 69.6689 172.076 69.8142 172.812C70.0142 173.81 70.2237 174.838 70.7761 175.693C71.3308 176.548 72.3165 177.205 73.3261 177.067C74.8213 176.862 75.6665 175.119 77.1142 174.69C78.1951 174.369 79.3546 174.855 80.4784 174.748C82.3618 174.569 83.788 172.429 83.2284 170.621L83.2427 170.383C85.8594 170.595 86.9189 168.4 87.5737 165.602L87.6165 165.612C87.5689 165.952 86.5689 172.945 85.6403 180.331L85.5451 180.319C85.1403 179.114 83.657 178.505 82.4213 178.8C81.1832 179.098 80.2189 180.107 79.6451 181.24C79.0403 182.436 78.7903 183.795 78.0903 184.936C77.3927 186.076 75.9784 186.981 74.7427 186.467C73.9118 186.121 73.4022 185.238 72.5784 184.879C71.6737 184.483 70.5713 184.836 69.8618 185.521C69.1522 186.207 68.7689 187.162 68.5118 188.117C68.3308 188.79 68.1975 189.493 67.8475 190.098C67.4999 190.702 66.8689 191.207 66.1713 191.174C65.0142 191.117 64.3213 189.702 63.1737 189.521C62.5189 189.419 61.8499 189.769 61.4284 190.281C61.007 190.795 60.7975 191.45 60.6689 192.102C60.4665 193.105 60.4427 194.188 60.8975 195.102C61.3499 196.017 62.3856 196.698 63.3856 196.486C64.0618 196.343 64.638 195.829 65.3284 195.798C66.2784 195.752 67.007 196.624 67.457 197.462C67.907 198.3 68.307 199.262 69.1546 199.698C70.4189 200.345 71.9356 199.464 72.9142 198.433C73.5808 197.733 74.2451 196.895 75.2022 196.755C76.1784 196.612 77.1022 197.279 77.7094 198.057C78.3141 198.838 78.7284 199.762 79.3975 200.49C79.9713 201.112 80.7403 201.576 81.5784 201.683C82.4189 201.79 83.0332 201.559 83.5856 200.919L83.6903 200.924C83.6308 202.036 83.5784 203.09 83.5379 204.083L83.3213 204.076C82.357 203.952 81.6189 204.931 81.2951 205.85C80.9713 206.767 80.7832 207.821 80.0165 208.421C79.5046 208.819 78.8308 208.931 78.2499 209.217C77.5927 209.538 77.0546 210.093 76.7499 210.757C76.3237 211.695 76.3546 212.821 75.7784 213.674C75.088 214.695 73.7475 215.019 72.5237 215.157C71.3022 215.295 69.9903 215.357 68.9999 216.09C68.3284 216.586 67.8761 217.371 67.7856 218.202L67.7975 218.424C64.0023 218.602 59.7285 218.424 54.7904 217.867C41.7928 216.409 33.3904 206.214 33.3904 206.214C33.4499 205.724 33.5213 205.179 33.6023 204.581L33.6904 204.593C34.388 205.438 35.8237 204.6 36.8332 205.024C37.9285 205.483 37.988 207.15 39.0118 207.75C40.5547 208.655 42.5547 206.369 44.1499 207.179C44.5785 207.395 44.8785 207.807 45.0808 208.24C45.6094 209.376 45.6213 210.8 46.5285 211.662C47.5118 212.598 49.1356 212.424 50.3308 211.781C51.5237 211.138 52.4785 210.124 53.6332 209.414C54.6713 208.776 56.0808 208.424 57.0618 209.145C58.2046 209.986 58.1546 211.795 59.188 212.767C59.8642 213.402 60.9118 213.54 61.8046 213.271C62.6951 213.005 63.4427 212.383 64.0451 211.674C64.5499 211.074 65.0451 210.355 65.8142 210.205C66.6356 210.045 67.4023 210.605 68.1975 210.857C69.5046 211.274 71.0499 210.781 71.8737 209.686C72.6999 208.593 72.7499 206.971 71.9903 205.831C71.2308 204.688 69.7213 204.105 68.3903 204.44C67.9784 204.545 67.5689 204.731 67.1451 204.69C66.1332 204.598 65.6999 203.407 65.2546 202.495C64.9308 201.831 64.4737 201.209 63.8451 200.819C63.2165 200.429 62.3975 200.302 61.7261 200.612C60.8713 201.005 60.4165 201.993 59.5737 202.412C58.4118 202.986 56.9618 202.221 56.2618 201.131C55.5594 200.04 55.3785 198.709 55.0523 197.455C54.7261 196.2 54.157 194.89 53.0142 194.276C51.9785 193.721 50.657 193.888 49.6499 194.493C48.6451 195.1 47.9189 196.088 47.3999 197.143C46.8499 198.259 46.2927 199.652 45.0642 199.848C44.2523 199.976 43.4642 199.483 42.8999 198.886C42.3356 198.288 41.9047 197.567 41.288 197.024C40.6713 196.479 39.7689 196.133 39.0213 196.476C38.238 196.833 37.8332 197.845 36.988 198.021C36.0189 198.221 35.2404 197.179 35.0189 196.214L34.9309 196.2C35.4309 193.359 36.0594 190.036 36.8451 186.188L36.988 186.217C37.1832 187.329 38.4904 187.974 39.6047 187.795C40.7213 187.617 41.6451 186.838 42.4023 186C43.1594 185.16 43.8261 184.221 44.7356 183.548C45.6428 182.874 46.888 182.507 47.9142 182.983C49.1213 183.545 49.5642 184.99 50.1094 186.205C50.3975 186.848 50.7832 187.498 51.4094 187.814C52.5689 188.402 53.9594 187.607 54.857 186.667C55.3499 186.15 55.7951 185.571 56.3904 185.176C56.9856 184.783 57.7951 184.605 58.4142 184.96C58.807 185.186 59.0713 185.593 59.457 185.826C60.0665 186.198 60.8618 186.074 61.5142 185.783C62.738 185.238 63.6999 184.138 64.0784 182.855C64.457 181.571 64.2427 180.124 63.5094 179.005C63.0784 178.348 62.4046 177.771 61.6189 177.762C60.9808 177.755 60.3832 178.119 59.7451 178.114C58.8332 178.105 58.0856 177.331 57.7451 176.486C57.4046 175.638 57.3642 174.705 57.1904 173.81C57.0166 172.914 56.6594 171.983 55.8951 171.483C55.1904 171.019 54.2475 171.024 53.4642 171.343C52.6832 171.662 52.0427 172.257 51.5142 172.914C50.9142 173.657 50.3166 174.569 49.3689 174.693C48.7404 174.774 48.107 174.457 47.6832 173.986C47.2594 173.514 47.0213 172.905 46.857 172.293C46.6499 171.524 46.5523 170.726 46.5618 169.931C46.5761 168.895 46.7761 167.86 46.6523 166.833C46.5285 165.805 45.9832 164.733 45.0047 164.393C43.6404 163.919 42.2547 165.052 41.4118 166.226L41.3142 166.2C42.6618 160.871 44.4785 155.305 46.4523 150.043L46.5332 150.074C47.0666 150.881 47.6213 151.693 48.3737 152.298C49.1285 152.902 50.1237 153.279 51.0689 153.076C52.4308 152.786 53.307 151.431 54.588 150.883C55.7618 150.381 57.2308 150.669 58.1261 151.579C58.7356 152.195 59.0784 153.043 59.7213 153.624C60.7451 154.545 62.4737 154.536 63.4856 153.602C63.8927 153.226 64.1784 152.74 64.5356 152.317C65.4999 151.176 67.0189 150.526 68.5094 150.617C69.2808 150.664 70.0999 150.888 70.7903 150.541C71.2546 150.307 72.3261 149.743 72.4165 148.162C72.4832 147.031 71.9737 145.819 70.8975 145.462C69.4142 144.967 67.6832 146.026 66.2713 145.35C65.4903 144.974 65.0023 144.062 65.1261 143.202L65.2046 142.952C66.0642 143.214 66.9403 143.357 67.788 143.357C68.9189 143.357 69.9046 143.219 70.8165 142.955C72.0761 142.588 73.1903 141.983 74.3427 141.171Z" fill="#F68DFE"/>
<path d="M81.3688 83.5715C80.4236 82.9025 79.1308 82.8239 78.0474 83.2453C77.945 83.2834 77.8427 83.3287 77.745 83.3763C76.6046 83.9406 75.7736 85.0239 75.3593 86.2263C75.0022 87.2691 74.9403 88.4191 75.2189 89.4858C75.7998 91.7025 77.9498 93.4096 80.2427 93.4691C80.6569 93.4811 81.0641 93.443 81.4522 93.3572C83.2165 92.9811 84.6236 91.6691 84.7617 89.743" stroke="#002140" stroke-width="0.999999" stroke-linecap="round" stroke-linejoin="round"/>
<path d="M79.038 86.4025C79.9451 86.9096 81.0618 87.031 82.0594 86.731C81.4546 87.6667 81.1761 88.812 81.288 89.9215" stroke="#002140" stroke-width="0.999999" stroke-linecap="round" stroke-linejoin="round"/>
<path d="M46.6784 72.1953C46.6594 72.1501 46.6403 72.1048 46.6237 72.0572C45.4689 69.0929 46.4118 65.6215 48.2594 63.0191C50.1356 60.3763 52.8237 58.443 55.4451 56.5382C58.0665 54.6358 60.7308 52.6525 62.5189 49.9501C63.6451 48.2501 64.3927 46.3096 65.6165 44.6787C67.4332 42.262 70.2879 40.6525 73.2975 40.3549C76.307 40.0573 79.4236 41.0715 81.6808 43.0858C85.3593 46.3739 86.4093 51.9025 85.3451 56.7191C84.826 59.0644 83.8808 61.2668 82.6832 63.3477C81.4213 65.5453 79.876 67.6048 78.2546 69.5525C77.0903 70.9525 75.8379 72.381 75.3903 74.1477C74.6498 77.0667 76.4236 80.5001 77.9832 83.0763" stroke="#002140" stroke-width="0.999999" stroke-linecap="round" stroke-linejoin="round"/>
<path d="M42.4903 79.5858C40.6665 81.1001 39.4331 83.3239 39.1236 85.6763C39.0403 86.3144 39.0236 86.9739 39.2165 87.5882C39.5379 88.6072 40.4712 89.4072 41.526 89.5739C42.5784 89.7382 43.7046 89.2644 44.326 88.3977C44.326 88.3953 44.3308 88.3906 44.3331 88.3882" stroke="#002140" stroke-width="0.999999" stroke-linecap="round" stroke-linejoin="round"/>
<path d="M42.4904 79.5857C42.788 79.3786 43.0808 79.1619 43.3689 78.9405C43.0642 79.1381 42.7689 79.3524 42.4904 79.5857Z" stroke="#002140" stroke-width="0.999999" stroke-linecap="round" stroke-linejoin="round"/>
<path d="M43.226 74.9215C42.526 74.7501 41.7546 74.7548 41.0451 74.7191C39.9427 74.6644 38.8427 74.7977 37.8236 75.2167C36.4141 75.7929 35.9665 76.9144 35.8212 77.9215C35.6665 79.012 36.3379 80.1215 37.3308 80.6048C38.3212 81.0858 39.5117 81.0144 40.5474 80.6382C41.2427 80.3858 41.8808 80.0096 42.4903 79.5858" stroke="#002140" stroke-width="0.999999" stroke-linecap="round" stroke-linejoin="round"/>
<path d="M43.2261 74.9215C43.4142 74.9953 43.607 75.0596 43.8023 75.112C43.6189 75.031 43.4261 74.9691 43.2261 74.9215Z" stroke="#002140" stroke-width="0.999999" stroke-linecap="round" stroke-linejoin="round"/>
<path d="M46.6284 72.062L46.6236 72.0572C45.8879 71.2667 45.3855 70.262 45.1927 69.2001C45.076 68.5596 45.0713 67.9024 44.9379 67.262C44.807 66.6239 44.5213 65.981 43.9855 65.6096C43.3808 65.1929 42.5427 65.2096 41.8808 65.531C41.2189 65.8524 40.7189 66.4429 40.3665 67.0882C39.5641 68.5572 39.476 70.3953 40.1355 71.9334C40.7141 73.2882 41.8594 74.3834 43.226 74.9215" stroke="#002140" stroke-width="0.999999" stroke-linecap="round" stroke-linejoin="round"/>
<path d="M44.9831 84.3691C44.4427 85.6429 44.2617 87.0144 44.326 88.3977C44.3903 89.7572 44.6903 91.1263 45.1236 92.4167C45.9974 95.0167 47.3712 97.4191 48.3998 99.962C49.426 102.505 50.1069 105.312 49.5022 107.988C49.1927 109.357 48.5593 110.631 48.2046 111.991C47.8522 113.348 47.8141 114.893 48.6141 116.048C49.7665 117.71 52.4022 117.864 54.0141 116.641C55.6284 115.419 56.2522 113.198 55.9736 111.193C56.8641 113.674 54.6807 116.536 55.5831 119.012C56.0831 120.381 57.5307 121.343 58.9879 121.271C60.0974 121.217 61.1331 120.614 61.876 119.788C62.6188 118.962 63.0926 117.926 63.4188 116.864C63.795 115.648 63.9926 114.355 63.8045 113.095C64.2545 114.733 63.8093 116.491 63.6998 118.186C63.5903 119.879 63.7474 121.743 64.9045 122.983C65.1855 123.283 65.5212 123.526 65.8879 123.705C67.2022 124.355 68.9236 124.21 70.0307 123.221C70.9069 122.443 71.3569 121.295 71.6474 120.16C71.9641 118.917 72.126 117.633 72.126 116.348C72.2974 117.779 72.2498 119.229 72.5402 120.638C72.8331 122.048 73.5331 123.467 74.7902 124.169C76.4236 125.081 78.4236 124.588 79.7783 123.329C80.0736 123.055 80.3379 122.745 80.5617 122.405C80.7879 122.06 80.9807 121.683 81.1426 121.286C81.845 119.56 82.0093 117.417 82.1283 115.569C82.6045 108.224 82.6902 101.002 81.4569 93.3834" stroke="#002140" stroke-width="0.999999" stroke-linecap="round" stroke-linejoin="round"/>
<path d="M82.6498 63.3048C82.6617 63.3191 82.6712 63.3334 82.6831 63.3477C83.745 64.7119 84.6783 66.0286 85.5022 67.3143C88.2188 71.5524 89.7641 75.481 90.8617 79.8357C91.0522 80.5977 91.2307 81.3691 91.3998 82.1596" stroke="#002140" stroke-width="0.999999" stroke-linecap="round" stroke-linejoin="round"/>
<path d="M85.5189 67.3048C87.1951 67.2239 88.7403 67.6596 90.0094 68.4286C91.3475 69.2405 92.3761 70.4215 92.9141 71.7596C93.3689 72.8905 93.4761 74.1977 93.2641 75.4715C93.0451 76.8072 92.4761 78.1048 91.5951 79.131C91.3808 79.3786 91.1475 79.612 90.8975 79.8262" stroke="#002140" stroke-width="0.999999" stroke-linecap="round" stroke-linejoin="round"/>
<path d="M89.9427 68.5429C89.3308 69.3715 89.0736 70.4548 89.2474 71.4691C90.8117 71.5905 90.8974 71.6762 91.5689 71.7596C91.1927 72.431 90.9808 72.8524 90.4165 73.7191C90.3712 73.7858 90.3355 73.8643 90.3403 73.9477C90.345 74.0358 90.4022 74.1119 90.4569 74.1786C91.1046 74.9691 92.0808 75.6619 93.0784 75.4405" stroke="#002140" stroke-width="0.999999" stroke-linecap="round" stroke-linejoin="round"/>
<path d="M92.845 111.717C90.2165 110.91 87.595 109.743 85.7617 107.693C83.9284 105.643 83.0665 102.538 84.257 100.06C84.4784 99.6001 84.7689 99.1644 85.1593 98.8358C86.345 97.8263 88.2189 98.0287 89.5046 98.9072C90.7927 99.7858 91.6117 101.188 92.3236 102.574C93.0355 103.96 93.9974 105.531 95.0974 106.633C96.8641 105.467 97.8927 103.488 98.4212 101.441C98.9474 99.3906 98.6903 97.1501 97.7093 95.2739C96.9808 93.8834 95.876 92.693 95.3355 91.2191C94.795 89.7477 95.0617 87.7668 96.4784 87.0906C96.9188 86.8787 97.395 86.8311 97.8688 86.8953C98.6736 87.0049 99.4807 87.4406 100.124 87.9644C101.797 89.3311 102.926 91.2882 103.559 93.3549C103.59 93.4572 103.621 93.562 103.65 93.6644C104.209 95.6382 104.362 97.712 104.359 99.7668C104.357 101.926 103.802 103.907 102.914 105.876" stroke="#002140" stroke-width="0.999999" stroke-linecap="round" stroke-linejoin="round"/>
<path d="M103.838 93.6095C105.045 93.5619 106.443 94.7 107.031 96.1286C107.574 97.4429 107.843 98.9143 107.871 100.417C107.926 103.333 107.071 106.376 105.519 108.65" stroke="#002140" stroke-width="0.999999" stroke-linecap="round" stroke-linejoin="round"/>
<path d="M108.04 100.414C108.755 100.674 110.309 101.76 110.276 104.519C110.271 104.983 110.245 105.445 110.197 105.902C109.969 108.038 109.226 110.038 107.619 111.507" stroke="#002140" stroke-width="0.999999" stroke-linecap="round" stroke-linejoin="round"/>
<path d="M92.8761 111.762C92.9403 113.005 93.2832 114.221 93.8475 115.326C94.888 117.376 96.6808 119.05 98.8475 119.836C98.8475 119.836 122.378 154.95 124.426 158.398C126.024 161.088 124.847 163.44 121.233 161.088C117.619 158.733 93.4189 138.231 90.9808 136.298C90.6308 136.019 90.2618 135.793 89.8832 135.629C88.2475 134.91 86.4451 135.286 85.1689 137.107C84.6975 137.781 84.2975 138.655 84.007 139.743C83.6903 140.919 83.3284 142.438 82.9475 144.14C82.2094 147.443 81.4023 151.445 80.738 155.019C80.3737 156.981 80.0499 158.814 79.8046 160.331C78.8808 166.045 79.2999 169.743 82.8285 170.331C82.9713 170.355 83.107 170.371 83.2427 170.383C85.8594 170.595 86.9189 168.4 87.5737 165.602C87.7142 164.988 87.838 164.345 87.9546 163.693C88.6284 159.912 90.7284 150.583 91.9046 147.055" stroke="#002140" stroke-width="0.999999" stroke-linecap="round" stroke-linejoin="round"/>
<path d="M110.509 105.933C111.731 107.105 112.064 109.005 111.64 110.643C111.217 112.281 110.133 113.683 108.881 114.821C108.738 114.952 108.586 115.088 108.517 115.269C108.459 115.419 108.464 115.586 108.464 115.745C108.464 116.721 108.226 117.695 107.776 118.56C107.776 118.56 128.293 151.676 131.064 156.129C133.838 160.583 133.29 166.236 131.064 168.314C128.543 170.667 124.343 172.095 117.705 167.221C112.155 163.148 96.9165 150.852 92.0665 146.929C91.1141 146.157 90.5618 145.709 90.5618 145.709" stroke="#002140" stroke-width="0.999999" stroke-linecap="round" stroke-linejoin="round"/>
<path d="M81.3165 121.34C85.6022 120.919 90.5618 118.733 93.7546 115.374" stroke="#002140" stroke-width="0.999999" stroke-linecap="round" stroke-linejoin="round"/>
<path d="M9.3046 110.398C7.61889 109.072 5.77603 107.879 4.50937 106.633C3.56175 105.7 3.04746 104.914 2.69984 103.845C2.58556 103.491 2.48556 103.103 2.39746 102.667C2.03556 100.898 2.42127 98.9882 3.44032 97.5001C4.46175 96.0097 6.17603 95.0049 7.9546 94.7001V102.936C7.9546 102.964 8.0546 102.974 8.0546 103.003C10.4094 104.945 12.8213 106.824 15.2808 108.631C15.226 108.55 15.4784 108.579 15.4213 108.498C16.3308 108.188 16.9308 107.288 17.1641 106.357C17.3974 105.429 17.326 104.453 17.2855 103.495C17.2165 101.841 17.2474 100.145 17.8189 98.5906C18.3903 97.0382 19.5879 95.6335 21.1855 95.2001C22.7832 94.7668 24.7284 95.562 25.2546 97.1311C25.6689 98.3644 25.1736 99.712 24.5451 100.85C23.9141 101.986 23.126 103.081 22.8951 104.36C22.5379 106.322 23.5593 108.317 23.3213 110.295C23.1451 111.738 22.3189 113.012 21.4546 114.179C19.776 116.448 17.8713 118.536 15.9665 120.622C15.9665 120.622 16.176 122.805 16.4951 126.131C16.4951 126.141 16.4974 126.152 16.4974 126.162C16.6974 128.25 16.9403 130.783 17.2022 133.507C17.3117 134.662 17.426 135.85 17.5379 137.055C17.6355 138.064 17.7332 139.086 17.8332 140.105C18.5117 147.224 19.1855 154.293 19.4689 157.391C20.1403 164.7 22.9141 161.002 25.8546 157.391C28.7951 153.776 45.6403 131.469 47.7046 128.902C51.1498 124.617 54.9307 124.198 58.795 125.205C59.4903 125.386 60.1212 125.569 60.6879 125.745C63.1117 126.495 64.3545 127.141 64.495 127.212C64.5045 127.219 64.5093 127.222 64.5093 127.222L65.8545 123.776" stroke="#002140" stroke-width="0.999999" stroke-linecap="round" stroke-linejoin="round"/>
<path d="M2.40943 103.86C0.811808 105.121 1.18562 107.205 1.89038 108.421C1.9999 108.612 2.20704 108.857 2.47847 109.138C3.95228 110.66 7.38561 113.233 8.29275 113.945" stroke="#002140" stroke-width="0.999999" stroke-linecap="round" stroke-linejoin="round"/>
<path d="M2.32606 109.324C1.2332 110.752 1.58082 112.488 2.38082 113.576C2.50463 113.743 2.64034 113.9 2.78796 114.048C3.22368 114.488 3.7451 114.848 4.26177 115.202C5.44034 116.012 6.61891 116.824 7.79748 117.633" stroke="#002140" stroke-width="0.999999" stroke-linecap="round" stroke-linejoin="round"/>
<path d="M2.43085 114.49C1.77847 115.279 1.94275 116.51 2.54513 117.336C3.14751 118.162 7.12132 120.56 7.87132 121.255C9.04751 122.348 9.13322 123.357 9.46893 126.045C9.46893 126.045 9.48798 126.252 9.5237 126.636C9.58798 127.34 9.70941 128.638 9.86893 130.348C9.96893 131.455 10.088 132.731 10.2189 134.129C10.3189 135.21 10.4261 136.364 10.5404 137.567C10.6356 138.602 10.7356 139.674 10.838 140.767C11.7094 150.105 12.7404 161.012 13.0808 164.198C13.9213 172.012 22.3261 174.7 27.8713 167.643C34.3499 159.395 50.6641 138.943 51.5332 137.855C51.557 137.824 51.5689 137.81 51.5689 137.81" stroke="#002140" stroke-width="0.999999" stroke-linecap="round" stroke-linejoin="round"/>
<path d="M9.55225 126.633L12.9975 126.386L16.4951 126.131L16.526 126.129L16.4975 126.162L13.2499 130.079L17.0308 133.524L13.2641 133.857L10.3927 134.112" stroke="#002140" stroke-width="0.999999" stroke-linecap="round" stroke-linejoin="round"/>
<path d="M10.6451 137.557L17.5356 137.055" stroke="#002140" stroke-width="0.999999" stroke-linecap="round" stroke-linejoin="round"/>
<path d="M10.9808 140.752L17.6618 140.121" stroke="#002140" stroke-width="0.999999" stroke-linecap="round" stroke-linejoin="round"/>
<path d="M12.9975 126.386L10.057 130.331L13.2499 133.693" stroke="#002140" stroke-width="0.999999" stroke-linecap="round" stroke-linejoin="round"/>
<path d="M75.0999 129.819C75.7308 129.955 76.3856 130.112 77.057 130.291C78.4808 130.667 79.9784 131.131 81.476 131.667C83.4332 132.367 85.3879 133.188 87.1665 134.091C88.1332 134.581 89.0475 135.095 89.8832 135.629L90.1403 135.793" stroke="#002140" stroke-width="0.999999" stroke-linecap="round" stroke-linejoin="round"/>
<path d="M77.1332 130C77.9594 127.269 78.4546 125.871 79.8046 123.357" stroke="#002140" stroke-width="0.999999" stroke-linecap="round" stroke-linejoin="round"/>
<path d="M89.657 82.5715C90.0379 82.5144 90.4141 82.4882 90.7832 82.4882C92.9356 82.4882 94.8879 83.3977 96.257 84.6382C96.9808 85.2954 97.5427 86.043 97.8856 86.8001" stroke="#002140" stroke-width="0.999999" stroke-linecap="round" stroke-linejoin="round"/>
<path d="M91.9045 79.1548C91.9045 79.1548 95.3022 78.1857 96.8641 80.6667C98.2926 82.9357 96.276 84.6167 96.276 84.6167" stroke="#002140" stroke-width="0.999999" stroke-linecap="round" stroke-linejoin="round"/>
<path d="M87.6189 165.598C87.6189 165.598 87.6189 165.602 87.6165 165.612C87.5689 165.952 86.5689 172.945 85.6403 180.331C85.0784 184.795 84.5427 189.4 84.257 192.769C84.007 195.729 83.8237 198.462 83.6903 200.924C83.6308 202.036 83.5784 203.09 83.538 204.083C83.2594 210.743 83.3618 214.728 83.3618 214.728C78.9141 216.883 73.9951 218.133 67.7975 218.424C64.0023 218.602 59.7285 218.424 54.7904 217.867C41.7928 216.409 33.3904 206.214 33.3904 206.214C33.4499 205.724 33.5213 205.178 33.6023 204.581C33.888 202.479 34.3118 199.709 34.9309 196.2C35.4309 193.359 36.0594 190.036 36.8451 186.188C37.8928 181.055 39.2213 174.986 40.8975 167.895C41.0308 167.333 41.1689 166.769 41.3142 166.2C42.6618 160.871 44.4785 155.305 46.4523 150.043C48.0951 145.664 49.8475 141.498 51.5332 137.855C52.188 136.436 52.8332 135.098 53.457 133.857C55.6427 129.512 57.5713 126.364 58.7951 125.205" stroke="#002140" stroke-width="0.999999" stroke-linecap="round" stroke-linejoin="round"/>
<path d="M64.5379 127.109C64.5236 127.143 64.5093 127.179 64.495 127.212C64.1141 128.1 63.7903 129.029 63.5736 129.971C63.3331 131.026 63.2236 132.1 63.3212 133.159C63.3617 133.64 63.4474 134.117 63.5784 134.59C63.7307 135.133 63.9736 135.659 64.2855 136.143C64.8379 136.995 65.6069 137.712 66.4807 138.155C67.295 138.571 68.1998 138.75 69.1022 138.581C69.1784 138.567 69.2545 138.55 69.3307 138.531C70.795 138.162 71.8998 137.002 72.9807 135.945C73.0498 135.876 73.1212 135.809 73.1926 135.74C74.4045 134.576 75.7688 133.469 77.2545 132.712C78.5688 132.038 79.9784 131.64 81.4569 131.721" stroke="#002140" stroke-width="0.999999" stroke-linecap="round" stroke-linejoin="round"/>
<path d="M60.6855 125.755C60.1689 126.61 59.7451 127.519 59.4141 128.462C58.8736 130.005 58.5855 131.636 58.5712 133.271C58.5617 133.967 58.6046 134.662 58.6974 135.35C58.776 135.936 58.8903 136.517 59.0546 137.083C59.1689 137.483 59.3093 137.874 59.4784 138.252C59.5403 138.393 59.6093 138.533 59.6832 138.669C60.557 140.307 62.1498 141.65 63.9498 142.471C64.3593 142.66 64.7808 142.821 65.2046 142.952C66.0641 143.214 66.9403 143.357 67.7879 143.357C68.9189 143.357 69.9046 143.219 70.8165 142.955C72.076 142.588 73.1903 141.983 74.3427 141.171C74.7855 140.857 75.2189 140.502 75.6474 140.129C76.0022 139.817 76.3522 139.49 76.6998 139.16C77.8212 138.102 78.9355 137 80.1403 136.214C80.4712 135.998 80.8212 135.79 81.1831 135.595C81.976 135.164 82.8307 134.795 83.695 134.536C84.8522 134.188 86.0284 134.036 87.1141 134.198" stroke="#002140" stroke-width="0.999999" stroke-linecap="round" stroke-linejoin="round"/>
<path d="M59.4689 128.483L63.3332 129.912" stroke="#002140" stroke-width="0.999999" stroke-linecap="round" stroke-linejoin="round"/>
<path d="M58.6284 133.271L62.9975 133.188" stroke="#002140" stroke-width="0.999999" stroke-linecap="round" stroke-linejoin="round"/>
<path d="M59.7213 138.65L64.1737 136.214" stroke="#002140" stroke-width="0.999999" stroke-linecap="round" stroke-linejoin="round"/>
<path d="M64.007 142.348L66.4427 138.231" stroke="#002140" stroke-width="0.999999" stroke-linecap="round" stroke-linejoin="round"/>
<path d="M69.6355 138.65L70.8117 142.936" stroke="#002140" stroke-width="0.999999" stroke-linecap="round" stroke-linejoin="round"/>
<path d="M73.4188 135.876L76.695 139.155" stroke="#002140" stroke-width="0.999999" stroke-linecap="round" stroke-linejoin="round"/>
<path d="M77.3665 132.936L81.1498 135.457" stroke="#002140" stroke-width="0.999999" stroke-linecap="round" stroke-linejoin="round"/>
<path d="M75.7594 140.255C76.3499 140.031 77.0046 140.471 77.3213 141.019C77.638 141.564 77.7403 142.207 77.9975 142.783C78.4713 143.84 79.507 144.626 80.6522 144.798C81.4142 144.91 82.2737 144.726 82.7594 144.129" stroke="#002140" stroke-width="0.999999" stroke-linecap="round" stroke-linejoin="round"/>
<path d="M83.6736 134.524C83.6736 134.524 83.6879 134.531 83.695 134.536C84.6212 134.971 85.2141 136.033 85.0926 137.052" stroke="#002140" stroke-width="0.999999" stroke-linecap="round" stroke-linejoin="round"/>
<path d="M53.5951 133.926C54.3879 134.038 55.0999 134.6 55.3927 135.345C55.5403 135.726 55.5856 136.138 55.7165 136.526C55.8475 136.912 56.0951 137.295 56.4832 137.422C57.2737 137.676 58.1475 136.757 58.8903 137.129" stroke="#002140" stroke-width="0.999999" stroke-linecap="round" stroke-linejoin="round"/>
<path d="M46.5332 150.074C47.0665 150.881 47.6213 151.693 48.3737 152.298C49.1284 152.902 50.1237 153.279 51.0689 153.076C52.4308 152.786 53.307 151.431 54.588 150.883C55.7618 150.381 57.2308 150.669 58.126 151.579C58.7356 152.195 59.0784 153.043 59.7213 153.624C60.7451 154.545 62.4737 154.536 63.4856 153.602C63.8927 153.226 64.1784 152.741 64.5356 152.317C65.4998 151.176 67.0189 150.526 68.5094 150.617C69.2808 150.664 70.0998 150.888 70.7903 150.541C71.2546 150.307 72.326 149.743 72.4165 148.162C72.4832 147.031 71.9737 145.819 70.8975 145.462C69.4141 144.967 67.6832 146.026 66.2713 145.35C65.4903 144.974 65.0022 144.062 65.126 143.202" stroke="#002140" stroke-width="0.999999" stroke-linecap="round" stroke-linejoin="round"/>
<path d="M80.7284 155.019C80.5617 154.59 80.0831 154.343 79.6236 154.338C79.1641 154.333 78.726 154.531 78.3379 154.779C76.776 155.776 75.8903 157.519 74.8736 159.071C74.5093 159.631 74.0141 160.233 73.345 160.236C72.7736 160.238 72.3046 159.793 71.9784 159.326C71.6522 158.86 71.3903 158.326 70.9355 157.986C70.0189 157.298 68.6569 157.655 67.7855 158.398C66.9117 159.14 66.3641 160.183 65.6546 161.081C65.1808 161.683 64.4879 162.269 63.7379 162.114C62.6546 161.888 62.4522 160.431 61.7189 159.602C60.8474 158.621 59.1879 158.674 58.1451 159.469C57.1022 160.264 56.6022 161.6 56.4593 162.905C56.376 163.681 56.4046 164.493 56.7212 165.207C57.0403 165.921 57.6879 166.524 58.4617 166.626C58.9236 166.686 59.4117 166.574 59.8498 166.731C60.1974 166.857 60.4784 167.155 60.5831 167.51C60.7879 168.212 60.8403 168.967 61.1403 169.633C61.4403 170.302 62.0236 170.888 62.7498 170.988C63.9117 171.145 64.826 170.095 65.7831 169.421C66.7474 168.74 68.276 168.495 68.9665 169.45C69.2093 169.786 69.295 170.205 69.376 170.61C69.5212 171.343 69.6689 172.076 69.8141 172.812C70.0141 173.81 70.2236 174.838 70.776 175.693C71.3308 176.548 72.3165 177.205 73.326 177.067C74.8212 176.862 75.6665 175.119 77.1141 174.69C78.195 174.369 79.3546 174.855 80.4784 174.748C82.3617 174.569 83.7879 172.429 83.2284 170.621" stroke="#002140" stroke-width="0.999999" stroke-linecap="round" stroke-linejoin="round"/>
<path d="M41.4117 166.226C42.2546 165.052 43.6403 163.919 45.0046 164.393C45.9831 164.733 46.5284 165.805 46.6522 166.833C46.776 167.86 46.576 168.895 46.5617 169.931C46.5522 170.726 46.6498 171.524 46.857 172.293C47.0212 172.905 47.2593 173.514 47.6831 173.986C48.107 174.457 48.7403 174.774 49.3689 174.693C50.3165 174.569 50.9141 173.657 51.5141 172.914C52.0427 172.257 52.6831 171.662 53.4641 171.343C54.2474 171.024 55.1903 171.019 55.895 171.483C56.6593 171.983 57.0165 172.914 57.1903 173.81C57.3641 174.705 57.4046 175.638 57.745 176.486C58.0855 177.331 58.8331 178.105 59.745 178.114C60.3831 178.119 60.9808 177.755 61.6188 177.762C62.4046 177.771 63.0784 178.348 63.5093 179.005C64.2427 180.124 64.4569 181.571 64.0784 182.855C63.6998 184.138 62.7379 185.238 61.5141 185.783C60.8617 186.074 60.0665 186.198 59.4569 185.826C59.0712 185.593 58.8069 185.186 58.4141 184.96C57.795 184.605 56.9855 184.783 56.3903 185.176C55.795 185.571 55.3498 186.15 54.8569 186.667C53.9593 187.607 52.5689 188.402 51.4093 187.814C50.7831 187.498 50.3974 186.848 50.1093 186.205C49.5641 184.99 49.1212 183.545 47.9141 182.983C46.8879 182.507 45.6427 182.874 44.7355 183.548C43.826 184.221 43.1593 185.16 42.4022 186C41.6451 186.838 40.7212 187.617 39.6046 187.795C38.4903 187.974 37.1832 187.329 36.9879 186.217" stroke="#002140" stroke-width="0.999999" stroke-linecap="round" stroke-linejoin="round"/>
<path d="M85.5451 180.319C85.1403 179.114 83.657 178.505 82.4213 178.8C81.1832 179.098 80.2189 180.107 79.6451 181.24C79.0403 182.436 78.7903 183.795 78.0903 184.936C77.3927 186.076 75.9784 186.981 74.7427 186.467C73.9118 186.121 73.4022 185.238 72.5784 184.879C71.6737 184.483 70.5713 184.836 69.8618 185.521C69.1522 186.207 68.7689 187.162 68.5118 188.117C68.3308 188.79 68.1975 189.493 67.8475 190.098C67.4999 190.702 66.8689 191.207 66.1713 191.174C65.0141 191.117 64.3213 189.702 63.1737 189.521C62.5189 189.419 61.8499 189.769 61.4284 190.281C61.007 190.795 60.7975 191.45 60.6689 192.102C60.4665 193.105 60.4427 194.188 60.8975 195.102C61.3499 196.017 62.3856 196.698 63.3856 196.486C64.0618 196.343 64.638 195.829 65.3284 195.798C66.2784 195.752 67.007 196.624 67.457 197.462C67.907 198.3 68.307 199.262 69.1546 199.698C70.4189 200.345 71.9356 199.464 72.9141 198.433C73.5808 197.733 74.2451 196.895 75.2022 196.755C76.1784 196.612 77.1022 197.279 77.7094 198.057C78.3141 198.838 78.7284 199.762 79.3975 200.49C79.9713 201.112 80.7403 201.576 81.5784 201.683C82.4189 201.79 83.0332 201.559 83.5856 200.919" stroke="#002140" stroke-width="0.999999" stroke-linecap="round" stroke-linejoin="round"/>
<path d="M83.3212 204.076C82.3569 203.952 81.6188 204.931 81.295 205.85C80.9712 206.767 80.7831 207.821 80.0165 208.421C79.5046 208.819 78.8308 208.931 78.2498 209.217C77.5927 209.538 77.0546 210.093 76.7498 210.757C76.3236 211.695 76.3546 212.821 75.7784 213.674C75.0879 214.695 73.7474 215.019 72.5236 215.157C71.3022 215.295 69.9903 215.357 68.9998 216.09C68.3284 216.586 67.876 217.371 67.7855 218.202" stroke="#002140" stroke-width="0.999999" stroke-linecap="round" stroke-linejoin="round"/>
<path d="M35.0189 196.214C35.2403 197.179 36.0189 198.221 36.9879 198.021C37.8332 197.845 38.2379 196.833 39.0213 196.476C39.7689 196.133 40.6712 196.479 41.2879 197.024C41.9046 197.567 42.3355 198.288 42.8998 198.886C43.4641 199.483 44.2522 199.976 45.0641 199.848C46.2927 199.652 46.8498 198.26 47.3998 197.143C47.9189 196.088 48.6451 195.1 49.6498 194.493C50.657 193.888 51.9784 193.721 53.0141 194.276C54.1569 194.89 54.726 196.2 55.0522 197.455C55.3784 198.71 55.5593 200.04 56.2617 201.131C56.9617 202.221 58.4117 202.986 59.5736 202.412C60.4165 201.993 60.8712 201.005 61.726 200.612C62.3974 200.302 63.2165 200.429 63.845 200.819C64.4736 201.21 64.9308 201.831 65.2546 202.495C65.6998 203.407 66.1331 204.598 67.145 204.69C67.5688 204.731 67.9784 204.545 68.3903 204.44C69.7212 204.105 71.2307 204.688 71.9903 205.831C72.7498 206.971 72.6998 208.593 71.8736 209.686C71.0498 210.781 69.5046 211.274 68.1974 210.857C67.4022 210.605 66.6355 210.045 65.8141 210.205C65.045 210.355 64.5498 211.074 64.045 211.674C63.4427 212.383 62.695 213.005 61.8046 213.271C60.9117 213.54 59.8641 213.402 59.1879 212.767C58.1546 211.795 58.2046 209.986 57.0617 209.145C56.0808 208.424 54.6712 208.776 53.6331 209.414C52.4784 210.124 51.5236 211.138 50.3308 211.781C49.1355 212.424 47.5117 212.598 46.5284 211.662C45.6212 210.8 45.6093 209.376 45.0808 208.24C44.8784 207.807 44.5784 207.395 44.1498 207.179C42.5546 206.369 40.5546 208.655 39.0117 207.75C37.9879 207.15 37.9284 205.483 36.8332 205.024C35.8236 204.6 34.3879 205.438 33.6903 204.593" stroke="#002140" stroke-width="0.999999" stroke-linecap="round" stroke-linejoin="round"/>
</svg>
