<svg xmlns="http://www.w3.org/2000/svg" id="Layer_1" data-name="Layer 1" version="1.1" viewBox="0 0 68 68"><defs><style>.cls-1{fill:#fbccff}.cls-1,.cls-2,.cls-3,.cls-4,.cls-5{stroke-width:0}.cls-2{fill:#ff7101}.cls-3{fill:#002140}.cls-6{fill:none;stroke:#002140;stroke-linecap:round;stroke-linejoin:round;stroke-width:1px}.cls-4{fill:#fffaf0}.cls-5{fill:#d18000}</style></defs><path d="M57.424,22.411H10.381c-1.384,0-2.507,1.122-2.507,2.507v25.66c0,1.384,1.122,2.507,2.507,2.507h47.043c1.384,0,2.507-1.122,2.507-2.507v-25.66c0-1.384-1.122-2.507-2.507-2.507Z" class="cls-2"/><path d="M57.01,22.276H10.653c-1.655,0-2.997,1.342-2.997,2.997v24.663c0,1.655,1.342,2.997,2.997,2.997h46.356c1.655,0,2.997-1.342,2.997-2.997v-24.663c0-1.655-1.342-2.997-2.997-2.997Z" class="cls-6"/><path d="M12.594,47.941l7.078-.002" class="cls-6"/><path d="M22.917,47.939h7.078" class="cls-6"/><path d="M20.659,36.409h-1.23c-.32,0-.58.26-.58.58v2.243c0,.32.26.58.58.58h1.23c.32,0,.58-.26.58-.58v-2.243c0-.32-.26-.58-.58-.58Z" class="cls-1"/><path d="M20.691,32.993h-1.23c-.32,0-.58.26-.58.58v1.663c0,.32.26.58.58.58h1.23c.32,0,.58-.26.58-.58v-1.663c0-.32-.26-.58-.58-.58Z" class="cls-1"/><path d="M23.721,36.954h-1.23c-.32,0-.58.26-.58.58v1.663c0,.32.26.58.58.58h1.23c.32,0,.58-.26.58-.58v-1.663c0-.32-.26-.58-.58-.58Z" class="cls-1"/><path d="M23.646,32.994h-1.23c-.32,0-.58.26-.58.58v2.39c0,.32.26.58.58.58h1.23c.32,0,.58-.26.58-.58v-2.39c0-.32-.26-.58-.58-.58Z" class="cls-1"/><path d="M18.274,39.24v-5.773c0-.302-.242-.542-.544-.542h-1.973c-.168-.002-.328.077-.43.208l-.672.865c-.073.096-.114.212-.116.333l-.002,4.19c-.001.11.035.218.097.309l.504.723c.103.147.271.234.449.233l2.143-.009c.298-.002.541-.245.542-.543l.002.007Z" class="cls-1"/><path d="M52.342,32.458h-17.427c-1.357,0-2.457,1.1-2.457,2.457v2.053c0,1.357,1.1,2.457,2.457,2.457h17.427c1.357,0,2.457-1.1,2.457-2.457v-2.053c0-1.357-1.1-2.457-2.457-2.457Z" class="cls-3"/><path d="M37.468,29.794c4.214,0,7.63-3.416,7.63-7.63s-3.416-7.63-7.63-7.63-7.63,3.416-7.63,7.63,3.416,7.63,7.63,7.63Z" class="cls-4"/><path d="M47.754,29.904c4.214,0,7.63-3.416,7.63-7.63s-3.416-7.63-7.63-7.63-7.63,3.416-7.63,7.63,3.416,7.63,7.63,7.63Z" class="cls-4"/><path d="M54.794,19.914s-2.36-5.31-6.047-5.53c-3.687-.22-6.193,1.473-6.193,1.473,0,0-2.287-1.55-5.603-1.327-3.317.223-6.303,3.28-6.71,5.457,0,0,1.917,1.55,5.16,1.55s4.203-.22,4.203-.22l.517-1.55s4.35,2.137,8.333,1.99c3.983-.147,6.34-1.843,6.34-1.843Z" class="cls-5"/><path d="M42.811,15.884c1.29-.99,2.907-1.577,4.657-1.577,4.237,0,7.667,3.433,7.667,7.667s-3.433,7.667-7.667,7.667-7.667-3.433-7.667-7.667c0-2.483,1.18-4.69,3.01-6.093" class="cls-6"/><path d="M42.465,27.958c-1.313,1.057-2.983,1.687-4.8,1.687-4.237,0-7.667-3.433-7.667-7.667s3.433-7.667,7.667-7.667c1.743,0,3.35.58,4.637,1.56" class="cls-6"/><path d="M40.245,20.061s5.383,3.317,14.527,0" class="cls-6"/><path d="M30.291,20.061s3.39,2.09,9.36,1.293" class="cls-6"/><path d="M48.281,25.444l-3.31.673c.383,1.97,2.117,3.453,4.197,3.453,2.363,0,4.277-1.913,4.277-4.277s-1.913-4.277-4.277-4.277c-1.597,0-2.99.877-3.723,2.177l2.84,2.247-.003.003Z" class="cls-3"/><path d="M42.161,28.244c-.773.773-1.843,1.253-3.023,1.253-2.08,0-3.813-1.487-4.197-3.453l3.31-.673-2.84-2.247c.733-1.3,2.127-2.177,3.723-2.177.297,0,.583.03.863.087,0,0-.787,4.78,2.16,6.4" class="cls-3"/></svg>