<svg xmlns="http://www.w3.org/2000/svg" id="Layer_1" version="1.1" viewBox="0 0 68 68"><defs><style>.st0{fill:#ffa75a}.st0,.st1,.st2,.st3{stroke:#002140;stroke-linejoin:round}.st0,.st1,.st3{stroke-linecap:round}.st1{fill:#8dc8ff}.st2{fill:none}.st4{fill:#002140}.st3{fill:#ffd7b0}</style></defs><rect width="21" height="35" x="41.5" y="23" class="st3"/><rect width="5" height="7" x="46.5" y="28" class="st4" rx=".5" ry=".5"/><rect width="5" height="7" x="46.5" y="38" class="st4" rx=".5" ry=".5"/><rect width="5" height="7" x="53.5" y="28" class="st4" rx=".5" ry=".5"/><rect width="5" height="7" x="53.5" y="38" class="st4" rx=".5" ry=".5"/><rect width="8" height="48" x="33.5" y="10" class="st0"/><rect width="10" height="8" x="47.5" y="50" class="st1"/><path d="M52.5,50v8" class="st2"/><rect width="28" height="48" x="13.5" y="10" class="st3"/><rect width="6" height="8" x="20.5" y="15" class="st4" rx=".5" ry=".5"/><rect width="6" height="8" x="20.5" y="26" class="st4" rx=".5" ry=".5"/><rect width="6" height="8" x="20.5" y="37" class="st4" rx=".5" ry=".5"/><rect width="6" height="8" x="30.5" y="15" class="st4" rx=".5" ry=".5"/><rect width="6" height="8" x="30.5" y="26" class="st4" rx=".5" ry=".5"/><rect width="6" height="8" x="30.5" y="37" class="st4" rx=".5" ry=".5"/><rect width="8" height="48" x="5.5" y="10" class="st0"/><rect width="18" height="8" x="19.5" y="50" class="st1"/><path d="M25.5,50v8" class="st2"/><path d="M31.5,50v8" class="st2"/></svg>