<svg xmlns="http://www.w3.org/2000/svg" width="48" height="48" fill="none" viewBox="0 0 48 48"><path fill="#d18000" d="M22.468 17.471s1.096 9.78-.276 12.98c-1.372 3.198-3.473 10.054-3.383 10.785 0 0 .824 2.834 5.394 2.377s4.57-1.92 4.57-1.92 1.006-18.737-.639-24.404c0 0-2.102-.73-3.198-.548s-2.468.73-2.468.73"/><path fill="#03d47c" d="M23.749 6.226s-3.017-2.01-7.496-.73c-4.479 1.281-8.134 8.501-8.5 9.78 0 0 7.495-1.554 9.688-1.372 0 0-4.57 5.118-4.204 10.511 0 0 6.305-7.586 12.247-7.859 5.942-.275 12.338 8.41 12.338 8.41s-.366-7.677-3.93-10.969l6.49 1.645s-3.2-9.322-11.61-10.512c0 0-2.468-.366-5.027 1.096z"/><path stroke="#002140" stroke-linecap="round" stroke-linejoin="round" d="M22.277 17.598c1.524 17.61-2.986 17.732-3.473 23.398"/><path stroke="#002140" stroke-linecap="round" stroke-linejoin="round" d="M22.096 10.65s-8.958 3.474-8.958 14.625c0 0 4.388-8.044 12.429-8.592m3.476-6.033S38 14.124 38 25.275c0 0-4.388-8.044-12.43-8.592"/><path stroke="#002140" stroke-linecap="round" stroke-linejoin="round" d="M18.807 40.996s.121 2.62 4.63 2.62 5.24-1.706 5.24-1.706c1.645-9.321-.366-24.494-.366-24.494M23.925 6.202c-4.51-2.805-12.187-1.463-16.45 9.506 0 0 5.362-2.072 10.114-1.95m6.457-7.556c6.094-3.84 13.685 2.388 16.451 9.506 0 0-3.016-1.165-6.528-1.697M24.277 9.51a5.2 5.2 0 0 1 1.851 3.518"/><path stroke="#002140" stroke-linecap="round" stroke-linejoin="round" d="M20.085 37.522s3.168 2.377 9.019 0m-7.311-4.815s3.289 1.463 7.435 0m-6.559-5.65c1.325.303 3.59.537 6.19-.383m-6.226-6.093c1.358.237 3.388.322 5.677-.485"/></svg>