<svg xmlns="http://www.w3.org/2000/svg" width="48" height="48" fill="none" viewBox="0 0 48 48"><path fill="#400000" d="M16.067 34.248h15.02c.517 0 .967.042 1.357.116 2.543.487 2.612 2.374 2.612 3.268v4.56H12.222v-4.56c0-.836.063-2.539 2.15-3.155.459-.135 1.017-.22 1.695-.226z"/><path fill="#bf3013" d="M14.403 34.442c-.095-.294 1.927-17.167 1.927-17.167s.647-3.957 7.298-4.116c6.648.162 7.298 4.116 7.298 4.116s1.895 15.812 1.93 17.09a7.5 7.5 0 0 0-1.385-.117h-.197c-.108-1.825-1.579-15.628-1.579-15.628s-.532-3.645-5.985-3.793c-5.456.148-5.985 3.793-5.985 3.793s-1.474 13.806-1.579 15.631c-.69.01-1.262.09-1.73.226l-.01-.032z"/><path fill="#f25730" d="M31.271 34.245H16.146c.105-1.826 1.58-15.631 1.58-15.631s.529-3.645 5.985-3.793c5.452.148 5.985 3.793 5.985 3.793s1.474 13.802 1.578 15.628z"/><path stroke="#002140" stroke-linecap="round" stroke-linejoin="round" d="M24.63 42.19h10.43v-4.561c0-.894-.07-2.78-2.562-3.268a7 7 0 0 0-1.331-.116h-7.282"/><path stroke="#002140" stroke-linecap="round" stroke-linejoin="round" d="M24.661 42.19h-12.44v-4.562c0-.835.064-2.538 2.194-3.154.47-.136 1.04-.22 1.731-.226h7.742m-9.485.194c-.095-.294 1.927-17.167 1.927-17.167s.647-3.958 7.298-4.116l.418-.003"/><path stroke="#002140" stroke-linecap="round" stroke-linejoin="round" d="M32.854 34.442s.003-.036 0-.081c-.032-1.277-1.93-17.09-1.93-17.09s-.65-3.957-7.299-4.115l-.418-.003"/><path fill="#fffaf0" d="m22.502 27.671-4.051 2.552 2.219-4.12-4.147-1.277 4.34-1.177-2.602-4.12 4.241 2.256 1.158-4.22 1.157 4.22 3.953-2.255-2.22 4.022 4.147 1.177-4.146 1.078 2.412 4.219-4.245-2.452-1.058 4.513z"/><path stroke="#bf3013" stroke-linecap="round" stroke-linejoin="round" d="M33.494 16.685h5.497m-30.313.39h5.497m9.821-5.835V5.647m6.35 7.225 3.886-3.954M17.07 13.266 13.182 9.31"/></svg>