<svg xmlns="http://www.w3.org/2000/svg" xml:space="preserve" id="Layer_1" x="0" y="0" viewBox="0 0 68 68"><style>.st0{fill:#03d47c}.st1{fill:#002140}.st2{fill:#fffaf0}.st3{fill:#fed604}.st4{fill:#f68dfe}</style><path d="m57.6 9.7-2.2-4.2-1 .4-1.8 4-5.5 1.1.5 1.1 3 3.3-.8 5 1.1.2 4.4-1.7 4.4 1.8.6-.6-.4-5.1 3.1-3.6-.5-.6z" class="st0"/><path d="M50.5 20.8c-.3 0-.5-.1-.8-.2-.4-.3-.6-.8-.5-1.3l.7-4.1c0-.1 0-.2-.1-.2l-3-2.9c-.4-.3-.5-.8-.3-1.3s.5-.8 1-.9l4.2-.6c.1 0 .2-.1.2-.2l1.9-3.8c.2-.4.7-.7 1.2-.7s.9.2 1.1.7v.1L58 9c0 .1.1.1.2.2l4.2.6c.5.1.9.4 1 .9.2.5 0 1-.3 1.3l-3 2.9c-.1 0-.1.1-.1.2l.7 4.1c.1.5-.1 1-.5 1.3s-.9.3-1.4.1l-3.7-2h-.3l-3.7 2c-.2.1-.4.2-.6.2M55 5.5c-.1 0-.2 0-.3.2l-1.9 3.8c-.2.4-.6.6-1 .7l-4.2.6c-.2 0-.2.1-.2.2s0 .2.1.3l3 2.9c.3.3.4.7.4 1.1l-.7 4.1c0 .2.1.2.1.3 0 0 .2.1.3 0l3.7-2q.6-.3 1.2 0l3.7 2c.1.1.3 0 .3 0s.1-.1.1-.3l-.6-4.1c-.1-.4.1-.8.4-1.1l3-2.9c.1-.1.1-.2.1-.3s-.1-.2-.2-.2l-4.2-.6c-.4-.1-.8-.3-1-.7l-1.8-3.7v-.1c-.1-.2-.2-.2-.3-.2" class="st1"/><path d="M38 27.5s2.7-7.4 2.3-9.6-.1-4.9-4.1-4.9-5.8 3-5.9 4.1-2.2 9.4-4.7 10.7c-4.9 2.5-7.1 5.1-7.1 5.1s-1.3-1.6-3.3-.8-4.7 3.2-4.7 6.6.7 10 2.3 11 5.6.7 5.6.7 6.7 9.6 18 8.8 15.1-5.6 15-6.3-2.3-4.9-2.3-4.9 4.3-3.3 3.8-5.5c-.4-2.2-3.4-4.9-3.4-4.9s3.2-1 2.6-3.4c-.5-2.5-1.9-7-7-6.7z" class="st2"/><path d="M18.4 49.7c-.7.7-1.6 1-2.5 1-3 0-5.5-4.2-5.5-9.5s2.4-9.5 5.5-9.5c.9 0 1.8.4 2.5 1.1" class="st2"/><path d="M16 51.2c-3.3 0-6-4.4-6-10s2.6-10 6-10c1 0 2 .4 2.9 1.2.2.2.2.5 0 .7s-.5.2-.7 0c-.7-.6-1.4-.9-2.2-.9-2.7 0-5 4.1-5 9 0 5 2.2 9 5 9 .7 0 1.5-.3 2.1-.9.2-.2.5-.2.7 0s.2.5 0 .7c-.9.9-1.8 1.2-2.8 1.2" class="st1"/><path d="M18.1 38s-.4-4.9 2.2-7 7.7-3 8.8-8.9 2.7-9.3 6-9.6 5.4 1.6 5.4 6.6-3.4 9.1-3.4 9.1" class="st2"/><path d="M18.1 38.5c-.3 0-.5-.2-.5-.5 0-.2-.4-5.2 2.4-7.4.7-.6 1.6-1 2.5-1.5 2.5-1.4 5.4-3 6.2-7.1.9-4.8 2.4-9.7 6.5-10 1.7-.1 3 .3 4 1.2 1.3 1.2 1.9 3.2 1.9 5.9 0 5.1-3.4 9.2-3.6 9.4s-.5.2-.7.1c-.2-.2-.2-.5-.1-.7 0 0 3.3-4 3.3-8.8 0-2.5-.5-4.2-1.6-5.2-.8-.7-1.9-1-3.2-.9-2.8.2-4.4 3-5.6 9.2-.9 4.6-4.1 6.4-6.7 7.8-.9.5-1.7.9-2.3 1.4-2.4 1.9-2 6.5-2 6.6 0 .3-.2.5-.5.5" class="st1"/><path d="M17.9 44.1s-2.9 14 19.2 14.8c14 .1 16.8-6.6 11.5-11" class="st2"/><path d="M37.6 59.4h-.4c-8.4-.3-14.2-2.5-17.4-6.5-3.3-4.2-2.4-8.7-2.3-8.9.1-.3.3-.4.6-.4.3.1.4.3.4.6 0 0-.8 4.3 2.2 8.1s8.6 5.8 16.6 6.1c7.2.1 12.1-1.7 13.3-4.8.6-1.7-.1-3.7-2.1-5.3-.2-.2-.2-.5-.1-.7.2-.2.5-.2.7-.1 2.3 1.9 3.1 4.3 2.4 6.4-1.4 3.5-6.5 5.5-13.9 5.5" class="st1"/><path d="M40.7 47.9s11.8 1.8 11.8-5.5-12.1-4.8-12.1-4.8" class="st2"/><path d="M47.2 37.4s5.3.8 5.2-3.6c0-2.3-2.6-9.1-15.4-5.6" class="st2"/><path d="M48.1 37.9c-.6 0-1-.1-1-.1-.3 0-.5-.3-.4-.6 0-.3.3-.5.6-.4 0 0 2.5.3 3.8-.8.6-.5.9-1.3.9-2.3 0-.9-.5-2.9-2.4-4.4-1.8-1.4-5.4-2.7-12.4-.8-.3.1-.5-.1-.6-.4s.1-.5.4-.6c7.3-2 11.2-.6 13.2 1 2.1 1.6 2.8 3.8 2.8 5.2q0 1.95-1.2 3c-1.2 1.1-2.7 1.2-3.7 1.2" class="st1"/><path d="M56.5 54.3 54.3 50l-1 .4-1.8 4-5.5 1.1.5 1.1 3 3.3-.9 5 1.1.2 4.4-1.7 4.4 1.8.6-.6-.4-5.1 3.2-3.6-.5-.6z" class="st3"/><path d="M43.8 48.6c-1.7 0-3-.2-3.1-.2-.3 0-.5-.3-.4-.6s.3-.5.6-.4c.1 0 6.8 1 9.8-1.6 1-.8 1.5-2 1.5-3.4s-.5-2.4-1.4-3.2c-3.1-2.5-10-1.1-10.1-1.1-.4.1-.7-.1-.7-.4-.1-.3.1-.5.4-.6s7.5-1.5 10.9 1.3c1.2 1 1.8 2.3 1.8 4s-.6 3.1-1.8 4.1c-2 1.8-5.2 2.1-7.5 2.1m5.7 17.2c-.3 0-.5-.1-.8-.2-.4-.3-.6-.8-.5-1.3l.7-4.2c0-.1 0-.2-.1-.2l-3-2.9c-.4-.3-.5-.8-.3-1.3s.5-.8 1-.9l4.2-.6c.1 0 .2-.1.2-.2l1.9-3.8c.2-.4.7-.7 1.2-.7s.9.2 1.1.7v.1L57 54c0 .1.1.1.2.2l4.2.6c.5.1.9.4 1 .9.2.5 0 1-.3 1.3l-3 2.9c-.1 0-.1.1-.1.2l.7 4.2c.1.5-.1 1-.5 1.3s-.9.3-1.4.1l-3.7-2h-.3l-3.7 2c-.2 0-.4.1-.6.1M54 50.5c-.1 0-.2 0-.3.2l-1.9 3.8c-.2.4-.6.6-1 .7l-4.2.6c-.2 0-.2.1-.2.2 0 0 0 .2.1.3l3 2.9c.3.3.4.7.4 1.1l-.7 4.2c0 .2.1.2.1.3 0 0 .2.1.3 0l3.7-2q.6-.3 1.2 0l3.7 2c.1.1.3 0 .3 0s.1-.1.1-.3l-.6-4.2c-.1-.4.1-.8.4-1.1l3-2.9c.1-.1.1-.2.1-.3s-.1-.2-.2-.2l-4.2-.6c-.4-.1-.8-.3-1-.7l-1.8-3.7v-.1c-.1-.2-.2-.2-.3-.2" class="st1"/><path d="M14.4 15.2 12.2 11l-1 .4-1.8 4L4 16.5l.5 1.1 3 3.3-.8 5 1.1.1 4.4-1.7 4.4 1.8.6-.6-.4-5.1 3.1-3.6-.5-.6z" class="st4"/><path d="M7.6 26.9c-.3 0-.5-.1-.8-.2-.4-.3-.6-.8-.5-1.3l.7-4.1c0-.1 0-.2-.1-.2L4 18c-.4-.3-.5-.8-.3-1.3s.5-.8 1-.9l4.2-.6c.1 0 .2-.1.2-.2l1.9-3.8c.2-.4.7-.7 1.2-.7s.9.2 1.1.7v.1l1.9 3.8c0 .1.1.1.2.2l4.2.6c.5.1.9.4 1 .9.2.5 0 1-.3 1.3l-3 2.9c-.1.1-.1.2-.1.3l.7 4.1c.1.5-.1 1-.5 1.3s-.9.3-1.4.1l-3.7-2H12l-3.7 2c-.3 0-.5.1-.7.1m4.5-15.3c-.1 0-.2 0-.3.2L10 15.5c-.2.4-.6.6-1 .7l-4.2.6c-.2 0-.2.1-.2.2s0 .2.1.3l3 2.9c.3.3.4.8.4 1.2l-.7 4.1c0 .2.1.2.1.3 0 0 .2.1.3 0l3.7-2q.6-.3 1.2 0l3.7 2c.1.1.3 0 .3 0s.1-.1.1-.3l-.7-4.1c-.1-.4.1-.8.4-1.1l3-2.9c.1-.1.1-.2.1-.3s-.1-.2-.2-.2l-4.2-.6c-.4-.1-.8-.3-1-.7l-1.8-3.7v-.1c-.1-.2-.3-.2-.3-.2" class="st1"/></svg>