<svg xmlns="http://www.w3.org/2000/svg" xmlns:xlink="http://www.w3.org/1999/xlink" id="Layer_1" x="0" y="0" version="1.1" viewBox="0 0 68 68" xml:space="preserve" style="enable-background:new 0 0 68 68"><style type="text/css">.st0{fill:#ffed8f}.st1{fill:#fffaf0}.st2{fill:#003c73}.st3{fill:#f25730}.st4{fill:none;stroke:#002140;stroke-width:1;stroke-linecap:round;stroke-linejoin:round}</style><path d="M34.266,59.294c12.67,0,22.942-10.271,22.942-22.942c0-12.67-10.271-22.942-22.942-22.942	c-12.67,0-22.942,10.271-22.942,22.942C11.325,49.023,21.596,59.294,34.266,59.294z" class="st0"/><path d="M34.191,53.194c9.471,0,17.148-7.678,17.148-17.149c0-9.471-7.678-17.148-17.148-17.148	c-9.471,0-17.149,7.678-17.149,17.148C17.042,45.517,24.72,53.194,34.191,53.194z" class="st1"/><path d="M22.449,16.136l-4.259-4.028c0,0-5.864,1.609-6.096,6.216l3.339,3.566c0,0,4.486-5.18,7.02-5.753H22.449z" class="st2"/><path d="M46.271,16.478c0,0,5.984,5.18,6.558,6.1l3.566-3.913c0,0-0.116-2.877-1.956-4.259	c-1.841-1.383-4.486-1.841-4.486-1.841L46.271,16.478L46.271,16.478z" class="st2"/><path d="M30.389,13.144c0,0,5.295-0.574,7.251,0.116v-2.072L37.068,9.52c0,0-1.485-0.405-3.223-0.405	c-3.339,0-3.415,1.249-3.455,1.383C30.35,10.632,30.389,13.144,30.389,13.144z" class="st3"/><path d="M34.075,59.005c12.744,0,23.075-10.331,23.075-23.075S46.819,12.855,34.075,12.855	C21.331,12.855,11,23.186,11,35.93S21.331,59.005,34.075,59.005z" class="st4"/><path d="M34.075,53.319c9.603,0,17.389-7.785,17.389-17.389c0-9.603-7.785-17.389-17.389-17.389	c-9.603,0-17.389,7.785-17.389,17.389C16.686,45.534,24.471,53.319,34.075,53.319z" class="st4"/><path d="M34.075,39.114c1.758,0,3.183-1.425,3.183-3.183c0-1.758-1.425-3.183-3.183-3.183	c-1.758,0-3.183,1.425-3.183,3.183C30.892,37.688,32.317,39.114,34.075,39.114z" class="st3"/><path d="M40.122,41.781l3.828,3.828" class="st4"/><path d="M15.544,21.658l-3.143-2.957c-0.485-0.458-0.605-1.187-0.28-1.77c0.707-1.276,2.263-3.41,5.189-4.619	c0.52-0.218,1.125-0.089,1.538,0.298l3.255,3.063" class="st4"/><path d="M14.681,14.353l4.162,3.89" class="st4"/><path d="M16.371,13.086l4.162,3.895" class="st4"/><path d="M12.917,16.038l4.166,3.895" class="st4"/><path d="M52.949,21.965l3.143-2.957c0.485-0.458,0.605-1.187,0.28-1.77c-0.707-1.276-2.263-3.41-5.189-4.619	c-0.52-0.218-1.125-0.089-1.538,0.298l-3.255,3.063" class="st4"/><path d="M53.811,14.66l-4.161,3.89" class="st4"/><path d="M52.126,13.393l-4.166,3.895" class="st4"/><path d="M55.577,16.345l-4.162,3.895" class="st4"/><path d="M30.354,12.988v-2.361C30.354,9.729,31.083,9,31.981,9h4.108c0.898,0,1.627,0.729,1.627,1.627v2.263" class="st4"/><path d="M35.493,25.344h-2.917v10.279h2.917V25.344z" class="st3"/><path d="M35.472,34.597l-2.062,2.062L43.8,47.05l2.062-2.062L35.472,34.597z" class="st3"/></svg>