<svg xmlns="http://www.w3.org/2000/svg" xmlns:xlink="http://www.w3.org/1999/xlink" id="Layer_1" x="0" y="0" version="1.1" viewBox="0 0 68 68" style="enable-background:new 0 0 68 68" xml:space="preserve"><style type="text/css">.st0{fill:#e4bc07}.st1,.st2{fill:none;stroke:#002140;stroke-width:1;stroke-linecap:round;stroke-linejoin:round}.st2{fill:#002140}.st3{fill:#ff7101}.st4{fill:#fbccff}.st5{fill:#002140}</style><path d="M46.224,18.69H10.038c-1.869,0-3.384,1.515-3.384,3.384v18.543c0,1.869,1.515,3.384,3.384,3.384h36.187	c1.869,0,3.384-1.515,3.384-3.384V22.074C49.608,20.205,48.093,18.69,46.224,18.69z" class="st0"/><path d="M45.621,18.577H10.514c-2.234,0-4.045,1.811-4.045,4.045V39.83c0,2.234,1.811,4.045,4.045,4.045h35.107	c2.234,0,4.045-1.811,4.045-4.045V22.623C49.667,20.389,47.856,18.577,45.621,18.577z" class="st1"/><path d="M49.356,23.338H6.537v3.784h42.819V23.338z" class="st2"/><path d="M58.439,24.651l-36.187,0.17c-1.869,0.009-3.377,1.531-3.368,3.4l0.087,18.543	c0.009,1.869,1.531,3.377,3.4,3.368l36.187-0.17c1.869-0.009,3.377-1.531,3.368-3.4l-0.087-18.543	C61.83,26.15,60.308,24.642,58.439,24.651z" class="st3"/><path d="M57.835,24.537l-35.107,0.165c-2.234,0.01-4.037,1.83-4.026,4.064l0.081,17.207	c0.011,2.234,1.83,4.037,4.064,4.026l35.107-0.165c2.234-0.011,4.037-1.83,4.026-4.064L61.9,28.563	C61.889,26.329,60.069,24.526,57.835,24.537z" class="st1"/><path d="M22.862,45.873l5.841-0.027" class="st1"/><path d="M31.38,45.832l5.841-0.027" class="st1"/><path d="M31.627,38.655l-0.022-4.761c0-0.248-0.472-0.445-1.048-0.445l-3.802,0.018c-0.324,0-0.63,0.068-0.828,0.176	l-1.292,0.72c-0.144,0.081-0.22,0.175-0.22,0.275l0.018,3.46c0,0.09,0.067,0.18,0.189,0.257l0.972,0.594	c0.198,0.122,0.522,0.189,0.864,0.189l4.131-0.027C31.164,39.11,31.632,38.903,31.627,38.655z" class="st4"/><path d="M54.748,32.957l-12.685,0.06c-1.588,0.007-2.869,1.301-2.862,2.889c0.007,1.588,1.301,2.869,2.889,2.862	l12.685-0.06c1.588-0.007,2.869-1.301,2.862-2.889S56.336,32.949,54.748,32.957z" class="st5"/></svg>