<svg xmlns="http://www.w3.org/2000/svg" xml:space="preserve" id="Layer_1" x="0" y="0" viewBox="0 0 60 60"><style>.st0{fill:#e4bc06}.st1{fill:#fed604}.st2{fill:#f68dfe}.st3{fill:#002140}.st4{fill:none;stroke:#002140;stroke-linecap:round;stroke-linejoin:round}.st5{fill:#ffecac}.st6{fill:#fff4ea}.st7{fill:#722b03}</style><path d="M4.3 10.3S3.8 22 8.5 25.6s8.5 3.9 10.9 3.6S29 28 30 22.5 31.3 10 31.3 10zM16 34.8v12.1h3.3l2.1-.6V34.8z" class="st0"/><path d="M13.2 29.1s.1 2.5.1 3 1.8 3 4.9 2.8c3.1-.1 4.8-2.8 4.8-2.8l.3-3.1c.1-.1-8 .8-10.1.1m2.4 14.5s-4.6.5-5.1 4c-.5 3.6 7.5 4.5 9 4.3 1.5-.1 7.8-2.4 7.6-4.6-.1-2.2-5.1-3.5-5.1-3.5l-.6 2.5s-1.4.9-2.8.8c-1.5-.1-2.5-.1-2.5-.1z" class="st1"/><path d="M18.1 24.4c1.9 0 3.5-1.5 3.5-3.4s-1.6-3.4-3.5-3.4-3.5 1.5-3.5 3.4c-.1 1.9 1.5 3.4 3.5 3.4" class="st2"/><path d="M17.8 13.8c7.3 0 13.3-2 13.3-4.4S25.1 5 17.8 5 4.5 7 4.5 9.4s6 4.4 13.3 4.4" class="st3"/><path d="M4.6 9.3S1.4 29.5 18.2 29.5 31.4 9.3 31.4 9.3" class="st4"/><path d="M18 13.3c7.4 0 13.4-1.8 13.4-4s-6-4-13.4-4-13.4 1.8-13.4 4 6 4 13.4 4m.4 11.2c1.9 0 3.5-1.6 3.5-3.5s-1.6-3.5-3.5-3.5-3.5 1.6-3.5 3.5 1.5 3.5 3.5 3.5m4.7 4.5c.3.5.4 1.1.4 1.7 0 2.4-2.4 4.3-5.3 4.3s-5.3-1.9-5.3-4.3c0-.5.1-1 .3-1.4m2.6 5.4v11.7m5.8-11.7v11.7m-5.8 0s.8.9 2.7.9 3.1-.9 3.1-.9" class="st4"/><path d="M21.8 43.6c3.1.7 5.2 2.2 5.2 4 0 2.4-3.8 4.3-8.4 4.3s-8.4-1.9-8.4-4.3c0-1.8 2.1-3.3 5.1-4" class="st4"/><path d="M43.8 29.8s2.1-.2 2.1-1-.9-1.8-3.6-2.5c-2.6-.6-6.2-.9-9-.8s-11.3.7-12 2.5c-.6 1.7 2.6 2.2 2.6 2.2s2.9-2.3 10-2.2 9.9 1.8 9.9 1.8" class="st5"/><path d="M45.9 28.8s-2.6 2.6-7.9 2.5c-5.2-.1-9.7-.2-10.6-.4s-6.3-1.6-6.3-1.6l.1 22.5s3.9 2 11.1 2c7.1 0 13.1-.9 13.7-2.6z" class="st6"/><path d="M43.8 29.8s-2.9-1.8-10.7-1.7-9.1 1.7-9.1 1.7 2.2 1.4 10.2 1.5c8 0 9.6-1.5 9.6-1.5" class="st7"/><path d="M46.2 44.1v5.2s9.8-.5 9.8-8.9-7.5-10.8-9.7-10.6v5.1s4.3 1.6 4.3 4.9-4.4 4.3-4.4 4.3" class="st6"/><path d="M33.6 31.2c6.8 0 12.4-1.3 12.4-2.8s-5.5-2.8-12.4-2.8c-6.8 0-12.4 1.3-12.4 2.8s5.6 2.8 12.4 2.8m12.4 20c0 1.5-5.6 2.8-12.4 2.8s-12.4-1.3-12.4-2.8m0 0V28.4M46 51.2V28.4" class="st4"/><path d="M23.6 30c1.3-1.1 5.4-1.9 10.2-1.9 4.4 0 8.2.7 9.9 1.6m2.5.1c5.4 0 9.7 4.4 9.7 9.7 0 5.4-4.4 9.7-9.7 9.7" class="st4"/><path d="M46 35c2.4 0 4.4 2 4.4 4.4s-2 4.4-4.4 4.4" class="st4"/></svg>