<?xml version="1.0" encoding="utf-8"?>
<!-- Generator: Adobe Illustrator 26.5.0, SVG Export Plug-In . SVG Version: 6.00 Build 0)  -->
<svg version="1.1" id="Layer_1" xmlns="http://www.w3.org/2000/svg" xmlns:xlink="http://www.w3.org/1999/xlink" x="0px" y="0px"
	 viewBox="0 0 68 68" style="enable-background:new 0 0 68 68;" xml:space="preserve">
<style type="text/css">
	.st0{fill:#FFFAF0;}
	.st1{fill:#FFD8B0;}
	.st2{fill:#FBCCFF;}
	.st3{fill:#4ED7DE;}
	.st4{fill:#002140;}
</style>
<path class="st0" d="M55.6,30.1l-0.1-3.2c0,0-1.2-2.7-1.8-2.8c-0.6-0.1-19.2-6.6-19.2-6.6s-1.7,0.4-2.4,0.6
	C31.5,18.2,15,23.9,15,23.9s-1.6,0.7-2,2.5c-0.4,1.8-0.6,4.2-0.6,4.2S12,31,11.9,32C11.8,33,12,53.2,12,53.2s-0.1,1.2,1.4,1.3
	c1.5,0.1,42.6,0,42.6,0s0.8-0.6,0.8-1.4S57,31,57,31S56.4,30,55.6,30.1L55.6,30.1z"/>
<path class="st1" d="M22.2,39.5c0,0,2.3-9.2,1.1-9.2c-1.2,0-10.6,0.2-10.6,0.2s-0.8,0.2-0.8,0.9V32L22.2,39.5L22.2,39.5z"/>
<path class="st1" d="M43.4,40.8C43.8,41.6,57,31,57,31s-0.4-1.1-1.4-0.9c-1.1,0.2-6.8-0.4-8.5,0.2C45.4,31,43,39.9,43.4,40.8
	L43.4,40.8z"/>
<path class="st2" d="M17.8,33.4l0.4,3.1l6.1,4.5l19.5-0.2c0,0,5.3-4.4,5.8-4.5C50.1,27,55,17.9,55,17.9l-0.7-0.5l-3.5,0.6l-2-1.9
	l-3.2,2.1l-2.9-2.3l-3.7,2.1l-2.2-2.4l-3.7,2.2l-1.5-2.8l-3.6,2.6l-3-2.5C25.1,15,17.8,18.3,17.8,33.4L17.8,33.4z"/>
<path class="st3" d="M34.3,37.8c-0.6,0-1-0.4-1-1c0-0.1,0-0.3,0.1-0.6l0.1-0.5c-0.4-0.1-0.7-0.2-0.9-0.3c-0.2,0.3-0.5,0.4-0.9,0.4
	c-0.9,0-1.6-1.3-1.6-3c0-1.9,0.7-2.5,1.3-2.5c0.7,0,1,0.8,1.2,1.4l0.1,0.3c0.4,1,1.2,1.6,2.1,1.6c0.7,0,1.6-0.3,1.6-1.3
	c0-0.6-0.3-1.1-1.7-1.5c-2.5-0.7-3.8-2.1-3.8-4.1c0-2.2,1.8-4,4.2-4.2l0.1-0.6c0.2-1,0.7-1.2,1.2-1.2c0.6,0,1,0.4,1,1
	c0,0.1,0,0.2,0,0.3l0,0.2l-0.1,0.5c0.1,0.1,0.3,0.1,0.4,0.2c0.2-0.3,0.5-0.4,0.9-0.4c1.1,0,1.6,1.5,1.6,2.8c0,2.1-1,2.3-1.3,2.3
	c-0.7,0-1-0.7-1.2-1.1l-0.1-0.1c-0.2-0.7-0.6-1.5-1.7-1.5c-0.7,0-1.5,0.3-1.5,1.2c0,0.7,0.4,1,1.7,1.4c3.1,0.9,3.8,2.8,3.8,4.2
	c0,2.3-1.7,4-4.2,4.3l-0.1,0.6C35.4,37.7,34.6,37.8,34.3,37.8z"/>
<g>
	<path class="st4" d="M56,29.8l0-2.5c0-1.7-1.1-3.2-2.7-3.8l0,0L53.1,24l0,0l0.2-0.5l-0.2-0.1c0.7-2,1.7-4.1,2.8-6.1
		c0.1-0.2,0.1-0.4,0-0.5c-0.1-0.2-0.3-0.2-0.5-0.2c-0.8,0.1-1.8,0.4-2.5,0.7c-0.4,0.1-0.8,0.3-1,0.4c0,0-0.1,0-0.1,0l-2.1-2.2
		c-0.2-0.2-0.4-0.2-0.6-0.1l-3.3,2.1L43.2,15c-0.2-0.2-0.4-0.2-0.6-0.1l-3.1,2.2l-2.2-2.4c-0.2-0.2-0.4-0.2-0.7-0.1L33.4,17
		l-1.5-2.5c-0.1-0.1-0.2-0.2-0.3-0.2c-0.1,0-0.3,0-0.4,0.1L27.7,17l-2.1-2.8c-0.1-0.1-0.2-0.2-0.4-0.2c-0.1,0-0.3,0-0.4,0.2
		c-2.5,2.6-4.2,5.2-5.3,7.7l-0.1-0.2l-4.5,1.6v0c-1.6,0.6-2.7,2.1-2.7,3.8v2.8c-0.6,0.3-0.9,0.8-0.9,1.5v22.1c0,0.9,0.7,1.6,1.6,1.6
		h42.9c0.9,0,1.6-0.7,1.6-1.6V31.4C57.4,30.6,56.8,29.9,56,29.8z M56.3,31.2l-6.1,4.4c0-0.2,0-0.5,0.1-0.9c0.1-1,0.3-2.3,0.6-3.9
		h4.8C56,30.8,56.2,31,56.3,31.2z M55,27.3L55,27.3l0,2.5h-3.8c0.4-1.6,0.9-3.4,1.5-5.4l0.2,0.1C54.2,24.9,55,26,55,27.3z
		 M25.2,15.3l2.1,2.7c0.1,0.1,0.2,0.2,0.3,0.2s0.3,0,0.4-0.1l3.4-2.6l1.4,2.5c0.1,0.1,0.2,0.2,0.3,0.2c0.1,0,0.3,0,0.4-0.1l3.3-2.3
		l2.2,2.4c0.2,0.2,0.5,0.2,0.7,0.1l3.1-2.2l2.4,2.4l0.4-0.4v0l-0.4,0.4c0.2,0.2,0.4,0.2,0.6,0.1l3.3-2.1l2.1,2.2
		c0.1,0.1,0.4,0.2,0.5,0.1c0,0,0,0,0,0c0,0,0,0,0,0c0,0,0,0,0,0c0,0,0,0,0,0c0,0,0,0,0.1,0c0.1,0,0.2-0.1,0.3-0.1
		c0.2-0.1,0.6-0.2,1-0.3c0.4-0.1,0.9-0.3,1.3-0.4c-2.4,4.5-3.7,9-4.4,12.4c-0.4,1.8-0.6,3.4-0.7,4.4c-0.1,0.5-0.1,1-0.1,1.2
		c0,0.1,0,0.3,0,0.3c0,0,0,0.1,0,0.1c0,0,0,0,0,0c0,0,0,0,0,0c0,0,0,0,0,0v0c0,0,0,0,0.1,0l-5.8,4.2H24.5l-6.1-4.3
		c0-0.1,0-0.2-0.1-0.3c-0.1-0.3-0.1-0.8-0.2-1.4c-0.1-1.2-0.1-2.9,0.1-4.9C18.8,25.6,20.5,20.4,25.2,15.3z M13.2,27.1
		c0-1.3,0.8-2.4,2.1-2.9l0,0l3.8-1.3c-1,2.3-1.5,4.5-1.8,6.5c0,0.1,0,0.3,0,0.4h-4.1V27.1z M12.2,31.4c0-0.3,0.3-0.6,0.6-0.6h4.3
		c-0.1,1.5-0.1,2.8,0,3.8c0,0.3,0.1,0.6,0.1,0.8l-5-3.5V31.4z M12.9,54.1c-0.3,0-0.6-0.3-0.6-0.6V33l11.5,8.1l-6.5,12.9H12.9z
		 M18.3,54.1l6.4-12.6h18.5l6,12.6H18.3z M56.4,53.5c0,0.3-0.3,0.6-0.6,0.6h-5.5l-6.1-12.9l12.2-8.8V53.5z"/>
	<path class="st4" d="M29.5,32.9c0,2.1,0.9,3.5,2.1,3.5c0.4,0,0.7-0.1,1-0.3c0.1,0,0.2,0.1,0.3,0.1l0,0.1c0,0.1-0.1,0.4-0.1,0.6
		c0,0.9,0.6,1.5,1.5,1.5c0.7,0,1.5-0.4,1.7-1.7l0-0.2c2.5-0.4,4.3-2.3,4.3-4.7c0-1.1-0.4-2.5-1.8-3.6c0.1,0,0.2,0,0.3,0
		c0.4,0,1.8-0.2,1.8-2.8c0-2-0.8-3.3-2.1-3.3c-0.3,0-0.5,0.1-0.7,0.2c0,0,0-0.1,0-0.1c0-0.2,0-0.3,0-0.4c0-0.9-0.6-1.5-1.5-1.5
		c-0.4,0-1.4,0.2-1.7,1.6l0,0.2c-2.5,0.4-4.2,2.3-4.2,4.7c0,1.3,0.5,2.3,1.4,3.1c-0.1,0-0.2-0.1-0.4-0.1
		C30.5,29.9,29.5,30.7,29.5,32.9z M32.1,32.2c0.4,1.1,1.4,2,2.6,2c1.2,0,2.1-0.7,2.1-1.8c0-1.1-0.9-1.6-2.1-2
		c-1.8-0.5-3.4-1.5-3.4-3.6c0-2.3,1.9-3.7,4.1-3.7l0.1-1c0.1-0.5,0.3-0.8,0.7-0.8c0.4,0,0.5,0.2,0.5,0.5c0,0.1,0,0.3-0.1,0.5
		l-0.1,0.9c0.5,0.1,0.9,0.3,1.2,0.5c0.1-0.4,0.4-0.6,0.7-0.6c0.7,0,1.1,1.2,1.1,2.3c0,1.1-0.3,1.8-0.8,1.8c-0.4,0-0.6-0.5-0.8-0.8
		c-0.3-1.2-1.1-1.9-2.2-1.9c-1.1,0-2,0.6-2,1.7c0,1.1,0.9,1.5,2,1.8c1.9,0.6,3.4,1.7,3.4,3.7c0,2.2-1.8,3.7-4.2,3.8l-0.1,1
		c-0.1,0.5-0.3,0.8-0.7,0.8c-0.4,0-0.5-0.2-0.5-0.5c0-0.1,0-0.3,0.1-0.5l0.1-1c-0.7-0.1-1.2-0.4-1.7-0.6c-0.1,0.4-0.4,0.6-0.7,0.6
		c-0.6,0-1.1-1.1-1.1-2.5c0-1.4,0.4-2,0.8-2C31.8,30.9,31.9,31.6,32.1,32.2z M32.5,30.5c0.6,0.3,1.2,0.6,2,0.9
		c1.4,0.4,1.4,0.8,1.4,1c0,0.8-0.8,0.8-1.1,0.8c-0.7,0-1.4-0.5-1.7-1.3c0-0.1-0.1-0.2-0.1-0.3C32.9,31.3,32.7,30.8,32.5,30.5z
		 M37.6,27.6c-0.4-0.2-0.9-0.4-1.4-0.6c-1.3-0.4-1.3-0.6-1.3-0.9c0-0.6,0.5-0.7,1-0.7c0.3,0,0.9,0,1.2,1.2l0,0.1l0,0.1l0,0.1
		C37.2,27,37.4,27.3,37.6,27.6z"/>
</g>
</svg>
