<svg xmlns="http://www.w3.org/2000/svg" xml:space="preserve" id="Layer_1" x="0" y="0" viewBox="0 0 68 68"><style>.st0{fill:#4ed7de}.st1{fill:none;stroke:#002140;stroke-linecap:round;stroke-linejoin:round}.st2{fill:#fffaf0}.st3{fill:#f25730}.st4{fill:none;stroke:#002140;stroke-width:5;stroke-linecap:round;stroke-linejoin:round}</style><path d="M37.428 53.06V60h-6.437v-7.12h-10.37l-5.587-18.897h-.04A19.7 19.7 0 0 1 14 27.787C14 16.898 22.827 8.07 33.716 8.07s19.717 8.828 19.717 19.717c0 2.055-.315 4.038-.897 5.902l-.091.162-5.363 19.03h-9.476" class="st0"/><path d="M37.428 53.06V60h-6.437v-7.12h-10.37l-5.587-18.897h-.04A19.7 19.7 0 0 1 14 27.787C14 16.898 22.827 8.07 33.716 8.07s19.717 8.828 19.717 19.717c0 2.055-.315 4.038-.897 5.902l-.091.162-5.363 19.03h-9.476" class="st1"/><path d="M20.218 33.895c-1.029-2.055-1.359-4.142-1.359-6.108 0-8.206 6.653-14.859 14.859-14.859s14.859 6.653 14.859 14.859c0 2.235-.386 4.117-1.27 6.018" class="st2"/><path d="M20.218 33.895c-1.029-2.055-1.359-4.142-1.359-6.108 0-8.206 6.653-14.859 14.859-14.859s14.859 6.653 14.859 14.859c0 2.235-.386 4.117-1.27 6.018" class="st1"/><path d="M33.716 30.506a2.72 2.72 0 1 0 0-5.438 2.72 2.72 0 0 0 0 5.438" class="st3"/><path d="m29.886 18.975-2.158 1.246 4.393 7.608 2.158-1.246z" class="st3"/><path d="M20.262 33.895h26.999" class="st1"/><path d="M26 43h16" class="st4"/></svg>