<svg xmlns="http://www.w3.org/2000/svg" xml:space="preserve" id="Layer_1" x="0" y="0" viewBox="0 0 68 68"><style>.st0{fill:#03d47c}.st1{fill:#002140}.st2{fill:#fffaf0}.st3{fill:#fed607}</style><path d="M5.9 59.5h56.5L34 9.8z" class="st0"/><path d="M27.3 53.8s2.3 3.1 7.1 3 6.8-3.2 6.8-3.2z" class="st1"/><path d="M22.5 29.4s.3 8.7 11.5 8.7 10-9.3 10-9.3-4.5-4-10.6-4.2c-6-.1-10.9 4.8-10.9 4.8m21 19.8H25.6l1.3 4h15.4z" class="st2"/><path d="M62.7 59.9H6c-.2 0-.3-.1-.4-.2-.1-.2-.1-.3 0-.5L33.5 9.3c.1-.2.3-.3.4-.3.2 0 .3.1.4.3L63 59.1c.1.2.1.3 0 .5 0 .2-.2.3-.3.3m-55.8-1h54.9L34 10.6z" class="st1"/><path d="M23 29.6c-.1 0-.3-.1-.4-.2-.2-.2-.2-.5 0-.7 5.5-5.2 11.2-5 15.1-3.8 4.1 1.2 7 3.7 7.1 3.8.2.2.2.5 0 .7s-.5.2-.7 0c0 0-2.8-2.4-6.7-3.6-5.2-1.5-9.9-.3-14 3.6-.1.1-.2.2-.4.2" class="st1"/><path d="M34 38.3c-11.6 0-11.7-8.5-11.7-8.5 0-.3.2-.5.5-.5s.5.2.5.5.2 7.5 10.7 7.5c3.5 0 6.1-.9 7.8-2.8 2.3-2.6 2-6.1 2-6.1 0-.3.2-.5.4-.5.3 0 .5.2.5.4s.4 4-2.2 6.9c-1.9 2.1-4.7 3.1-8.5 3.1" class="st1"/><path d="m35 31.6 3-2.6c-.8-1.5-2.3-2.5-4.1-2.5-2.5 0-4.6 2.1-4.6 4.6s2.1 4.6 4.6 4.6c2.2 0 4-1.5 4.4-3.5zm19.2 14.2h-40c-.3 0-.5-.2-.5-.5s.2-.5.5-.5h40c.3 0 .5.2.5.5s-.2.5-.5.5M40.9 22.2H27.5c-.3 0-.5-.2-.5-.5s.2-.5.5-.5h13.4c.3 0 .5.2.5.5s-.2.5-.5.5" class="st1"/><path d="M26.4 45.7h-.2c-.3-.1-.4-.4-.3-.6l2.6-7.5c.1-.3.4-.4.6-.3.3.1.4.4.3.6l-2.6 7.5c0 .1-.2.3-.4.3m15.8 0c-.2 0-.4-.1-.5-.3l-3.2-8.2q-.15-.45.3-.6t.6.3l3.2 8.2q.15.45-.3.6zm-8 11.5c-9 0-9.5-7.8-9.5-7.9s0-.3.1-.4.2-.2.4-.2h18.1c.1 0 .3.1.4.2s.1.2.1.4c.1 0-.6 7.9-9.6 7.9m-8.4-7.5c.3 1.6 1.6 6.4 8.4 6.4s8.3-4.8 8.6-6.4zm17.6 0" class="st1"/><path d="M34.3 59.7c-.3 0-.5-.2-.5-.5V57c0-.3.2-.5.5-.5s.5.2.5.5v2.2c0 .3-.2.5-.5.5m0-10c-.3 0-.5-.2-.5-.5v-3.5c0-.3.2-.5.5-.5s.5.2.5.5v3.5c0 .3-.2.5-.5.5m6.9 4.5H27.3c-.3 0-.5-.2-.5-.5s.2-.5.5-.5h13.9c.3 0 .5.2.5.5s-.2.5-.5.5" class="st1"/><path d="M31.1 54c-.3 0-.5-.2-.5-.5v-4c0-.3.2-.5.5-.5s.5.2.5.5v4c0 .2-.3.5-.5.5m7.1 0c-.3 0-.5-.2-.5-.5v-4c0-.3.2-.5.5-.5s.5.2.5.5v4c0 .2-.2.5-.5.5" class="st1"/><path d="M60.1 28s-2.2 5.2-5.6 5.5c0 0 4.9 2.2 5.4 5.4 0 0 2-4.6 5.8-5.2-.1 0-5.3-1.2-5.6-5.7" class="st3"/><path d="M59.9 40.1c-.2 0-.4-.2-.5-.4-1-3.9-1.8-4.6-5.6-5.6-.2-.1-.4-.3-.4-.5s.2-.4.4-.5c3.9-1 4.6-1.8 5.6-5.6.1-.4.8-.4 1 0 1 3.9 1.8 4.6 5.6 5.6.2.1.4.3.4.5s-.1.4-.4.5c-3.9 1-4.6 1.8-5.6 5.6-.1.3-.3.4-.5.4m-4.2-6.5c2.4.8 3.4 1.8 4.2 4.2.8-2.4 1.8-3.4 4.2-4.2-2.4-.8-3.4-1.8-4.2-4.2-.8 2.4-1.8 3.4-4.2 4.2" class="st1"/><path d="M9.5 27.7s-2.2 5.2-5.6 5.5c0 0 4.9 2.2 5.4 5.4 0 0 2-4.6 5.8-5.2-.1-.1-5.3-1.2-5.6-5.7" class="st3"/><path d="M9 40.1c-.2 0-.4-.2-.5-.4-1-3.9-1.8-4.6-5.6-5.6-.2-.1-.4-.3-.4-.5s.2-.4.4-.5c3.9-1 4.6-1.8 5.6-5.6.1-.4.9-.4 1 0 1 3.9 1.8 4.6 5.6 5.6.2.1.4.3.4.5s-.2.4-.4.5c-3.9 1-4.6 1.8-5.6 5.6-.1.3-.3.4-.5.4m-4.2-6.5c2.4.8 3.4 1.8 4.2 4.2.8-2.4 1.8-3.4 4.2-4.2-2.4-.8-3.4-1.8-4.2-4.2-.8 2.4-1.8 3.4-4.2 4.2" class="st1"/></svg>