<?xml version="1.0" encoding="utf-8"?>
<!-- Generator: Adobe Illustrator 26.5.0, SVG Export Plug-In . SVG Version: 6.00 Build 0)  -->
<svg version="1.1" id="Layer_1" xmlns="http://www.w3.org/2000/svg" xmlns:xlink="http://www.w3.org/1999/xlink" x="0px" y="0px"
	 viewBox="0 0 68 68" style="enable-background:new 0 0 68 68;" xml:space="preserve">
<style type="text/css">
	.st0{fill:#E4BC07;}
	.st1{fill:#002140;}
	.st2{fill:#E96DF2;}
	.st3{fill:#03D47C;}
	.st4{fill:#99F7FC;}
</style>
<g>
	<path class="st0" d="M54.5,26.5h-43c-1.3,0-2.3,1-2.3,2.3v23.5c0,1.3,1,2.3,2.3,2.3h43c1.3,0,2.3-1,2.3-2.3V28.8
		C56.8,27.5,55.8,26.5,54.5,26.5z"/>
</g>
<g>
	<path class="st1" d="M54.1,54.9H11.7c-1.8,0-3.2-1.5-3.2-3.2V29.1c0-1.8,1.5-3.2,3.2-3.2h42.4c1.8,0,3.2,1.5,3.2,3.2v22.5
		C57.4,53.4,55.9,54.9,54.1,54.9z M11.7,26.9c-1.2,0-2.2,1-2.2,2.2v22.5c0,1.2,1,2.2,2.2,2.2h42.4c1.2,0,2.2-1,2.2-2.2V29.1
		c0-1.2-1-2.2-2.2-2.2H11.7z"/>
</g>
<g>
	<path class="st1" d="M20,50.3h-6.5c-0.3,0-0.5-0.2-0.5-0.5s0.2-0.5,0.5-0.5H20c0.3,0,0.5,0.2,0.5,0.5S20.3,50.3,20,50.3z"/>
</g>
<g>
	<path class="st1" d="M29.4,50.3H23c-0.3,0-0.5-0.2-0.5-0.5s0.2-0.5,0.5-0.5h6.5c0.3,0,0.5,0.2,0.5,0.5S29.7,50.3,29.4,50.3z"/>
</g>
<g>
	<path class="st2" d="M20.1,38.4h-1.2c-0.3,0-0.5,0.2-0.5,0.5v2.2c0,0.3,0.2,0.5,0.5,0.5h1.2c0.3,0,0.5-0.2,0.5-0.5v-2.2
		C20.6,38.6,20.4,38.4,20.1,38.4z"/>
</g>
<g>
	<path class="st2" d="M21.8,35.2H20c-0.3,0-0.5,0.2-0.5,0.5V38c0,0.3,0.2,0.5,0.5,0.5h1.8c0.3,0,0.5-0.2,0.5-0.5v-2.4
		C22.3,35.4,22.1,35.2,21.8,35.2z"/>
</g>
<g>
	<path class="st2" d="M23,38.9h-1.2c-0.3,0-0.5,0.2-0.5,0.5v1.6c0,0.3,0.2,0.5,0.5,0.5H23c0.3,0,0.5-0.2,0.5-0.5v-1.6
		C23.5,39.2,23.3,38.9,23,38.9z"/>
</g>
<g>
	<path class="st2" d="M25.4,35.2h-1.8c-0.3,0-0.5,0.2-0.5,0.5v3.2c0,0.3,0.2,0.5,0.5,0.5h1.8c0.3,0,0.5-0.2,0.5-0.5v-3.2
		C25.9,35.4,25.7,35.2,25.4,35.2z"/>
</g>
<g>
	<path class="st2" d="M17.8,41.1v-5.5c0-0.3-0.2-0.5-0.5-0.5h-1.9c-0.2,0-0.3,0.1-0.4,0.2l-0.6,0.8c-0.1,0.1-0.1,0.2-0.1,0.3v4
		c0,0.1,0,0.2,0.1,0.3l0.5,0.7c0.1,0.1,0.3,0.2,0.4,0.2l2.1,0C17.5,41.6,17.8,41.4,17.8,41.1L17.8,41.1z"/>
</g>
<g>
	<path class="st3" d="M61.3,19.6L19.4,9.7c-1.2-0.3-2.5,0.5-2.8,1.7l-5.4,22.8c-0.3,1.2,0.5,2.5,1.7,2.8l41.8,9.9
		c1.2,0.3,2.5-0.5,2.8-1.7L63,22.4C63.2,21.2,62.5,19.9,61.3,19.6z"/>
</g>
<g>
	<path class="st1" d="M55.1,47.3c-0.2,0-0.5,0-0.7-0.1l-41.2-9.8c-1.7-0.4-2.8-2.2-2.4-3.9l5.2-21.9c0.2-0.8,0.7-1.6,1.5-2
		c0.7-0.5,1.6-0.6,2.4-0.4L61,18.9l0,0c1.7,0.4,2.8,2.2,2.4,3.9l-5.2,21.9C57.9,46.3,56.5,47.3,55.1,47.3z M19,10.1
		c-0.4,0-0.8,0.1-1.2,0.3c-0.5,0.3-0.9,0.8-1,1.4l-5.2,21.9c-0.1,0.6,0,1.2,0.3,1.7c0.3,0.5,0.8,0.9,1.4,1l41.2,9.8
		c1.2,0.3,2.4-0.5,2.7-1.7l5.2-21.9c0.3-1.2-0.5-2.4-1.7-2.7l-41.2-9.8C19.4,10.1,19.2,10.1,19,10.1z"/>
</g>
<g>
	<path class="st1" d="M22.3,34.9c0,0-0.1,0-0.1,0l-6.3-1.5c-0.3-0.1-0.4-0.3-0.4-0.6c0.1-0.3,0.3-0.4,0.6-0.4l6.3,1.5
		c0.3,0.1,0.4,0.3,0.4,0.6C22.7,34.7,22.5,34.9,22.3,34.9z"/>
</g>
<g>
	<path class="st1" d="M31.5,37c0,0-0.1,0-0.1,0l-6.3-1.5c-0.3-0.1-0.4-0.3-0.4-0.6c0.1-0.3,0.3-0.4,0.6-0.4l6.3,1.5
		c0.3,0.1,0.4,0.3,0.4,0.6C31.9,36.9,31.7,37,31.5,37z"/>
</g>
<g>
	<path class="st4" d="M25.6,24.3l-1.1-0.3c-0.3-0.1-0.6,0.1-0.6,0.4l-0.5,2c-0.1,0.3,0.1,0.6,0.4,0.6l1.1,0.3
		c0.3,0.1,0.6-0.1,0.6-0.4l0.5-2C26.1,24.7,25.9,24.4,25.6,24.3z"/>
</g>
<g>
	<path class="st4" d="M26.3,21.3L25.3,21c-0.3-0.1-0.6,0.1-0.6,0.4l-0.4,1.5c-0.1,0.3,0.1,0.6,0.4,0.6l1.1,0.3
		c0.3,0.1,0.6-0.1,0.6-0.4l0.4-1.5C26.8,21.6,26.6,21.4,26.3,21.3z"/>
</g>
<g>
	<path class="st4" d="M28.2,25.4l-1.1-0.3c-0.3-0.1-0.6,0.1-0.6,0.4l-0.4,1.5c-0.1,0.3,0.1,0.6,0.4,0.6l1.1,0.3
		c0.3,0.1,0.6-0.1,0.6-0.4l0.4-1.5C28.7,25.8,28.5,25.5,28.2,25.4z"/>
</g>
<g>
	<path class="st4" d="M29,21.9l-1.1-0.3c-0.3-0.1-0.6,0.1-0.6,0.4l-0.5,2.1c-0.1,0.3,0.1,0.6,0.4,0.6l1.1,0.3
		c0.3,0.1,0.6-0.1,0.6-0.4l0.5-2.1C29.4,22.3,29.3,22,29,21.9z"/>
</g>
<g>
	<path class="st4" d="M22.9,26.3l1.2-5.1c0.1-0.3-0.1-0.5-0.4-0.6L22,20.2c-0.1,0-0.3,0-0.4,0.1l-0.8,0.6c-0.1,0.1-0.1,0.2-0.2,0.3
		l-0.9,3.7c0,0.1,0,0.2,0,0.3l0.3,0.7c0.1,0.2,0.2,0.3,0.4,0.3l1.9,0.4C22.5,26.8,22.8,26.6,22.9,26.3L22.9,26.3z"/>
</g>
<g>
	<path class="st1" d="M54.6,27.5l-15.5-3.7c-1.2-0.3-2.4,0.5-2.7,1.7L36,27.3c-0.3,1.2,0.5,2.4,1.7,2.7l15.5,3.7
		c1.2,0.3,2.4-0.5,2.7-1.7l0.4-1.8C56.6,29,55.8,27.8,54.6,27.5z"/>
</g>
<g>
	<path class="st2" d="M48.8,45.9c-0.1,2.4-2.1,4.3-4.5,4.3C41.9,50,40,48,40,45.6c0-0.6,0.2-1.2,0.4-1.7"/>
</g>
</svg>
