<svg xmlns="http://www.w3.org/2000/svg" xmlns:xlink="http://www.w3.org/1999/xlink" id="Layer_1" x="0" y="0" version="1.1" viewBox="0 0 68 68" style="enable-background:new 0 0 68 68" xml:space="preserve"><style type="text/css">.st0{fill:#f68dfe}.st1{fill:#ffa75a}.st2{fill:#fffaf0}.st3{fill:#03d47c}.st4{fill:none;stroke:#002140;stroke-linecap:round;stroke-linejoin:round}</style><path d="M25.6,12.8c1.5-2.7,2.9-3.9,6-3.9c2.9,0,5.7,2.4,5.7,5.6c0.1,3.1-1.6,5.2-4.3,6.6c-2.9,1.9-4.4,4.2-6.2,6.9 c-0.8,1.5-1.5,1.5-2.4,0c-1.8-2.7-3.3-5-6.2-6.9c-2.7-1.5-4.4-3.5-4.3-6.6c0-3.2,2.8-5.6,5.7-5.6C22.7,8.9,24.1,10.1,25.6,12.8 L25.6,12.8z" class="st0"/><path d="M51.1,51.2L51.1,51.2l3.6-0.1c-0.1,3.1-0.6,6-1.4,6.6c-0.1,0.1-0.2,0.1-0.3,0.1h-0.1 C51.1,57.6,51.1,53.6,51.1,51.2z" class="st1"/><path d="M61.8,42c3.1,0,3.1,15.9,0,15.9h-8.5v-0.1c0.9-0.6,1.3-3.4,1.4-6.6c0.1-4.3-0.4-9.2-1.8-9.2H61.8z" class="st2"/><path d="M10.5,40.5l-0.1-0.4c-0.4-0.5-0.6-1.1-0.6-1.7c-0.1-1.2,0.7-2.4,2.4-2.2c3.1,0.3,4.4,2,11.8,2.4v0l9.1-0.4 c4.3-0.2,3.2-3.1,1-4.1c-2.7-1.1-3.1-4.8-1.3-6.6c1.1-1.3,3.5-0.6,3.7,1.2c0.7,2.1,2.6,3,5,3.5c4.2,1.1,6.2,4.9,6.8,9.8h4.7 c1.3,0,1.9,4.9,1.8,9.2h-6.5c-4.6,4.1-11.6,6-20.9,3.4c-4.9,0.9-9.5,1-13.9,0c-1.8-0.6-3.7-1.3-4.1-3.4c-0.2-0.8,0.1-1.7,0.9-2.1 c-0.8-0.6-1.1-1.6-1.2-2.2C9,45.9,9.4,45,10.3,44.6c-0.6-0.6-0.9-1.4-0.9-2C9.3,41.7,9.6,40.9,10.5,40.5L10.5,40.5z" class="st3"/><path d="M48.2,42h4.7h8.6" class="st4"/><path d="M41.4,32.2c4.2,1.1,6.2,4.9,6.8,9.8" class="st4"/><path d="M36.4,28.7c0.7,2.1,2.6,3,5,3.5" class="st4"/><path d="M48.2,51.2h2.9h3.6" class="st4"/><path d="M61.8,42c3.1,0,3.1,15.9,0,15.9" class="st4"/><path d="M53.2,57.8L53.2,57.8h8.3" class="st4"/><path d="M52.9,42c1.3,0,1.9,4.9,1.8,9.2c-0.1,3.1-0.6,6-1.4,6.6c-0.1,0.1-0.2,0.1-0.3,0.1" class="st4"/><path d="M51.1,51.2c0,2.3,0,6.3,1.8,6.6" class="st4"/><path d="M27.4,54.5c9.3,2.6,16.3,0.7,20.9-3.4" class="st4"/><path d="M33,38.1c4.3-0.2,3.2-3.1,1-4.1" class="st4"/><path d="M33.4,47.5c2.8-2.2,7.9-2.7,10.7-0.3" class="st4"/><path d="M34,34c-2.7-1.1-3.1-4.8-1.3-6.6" class="st4"/><path d="M36.4,28.7c-0.3-1.8-2.7-2.5-3.7-1.2" class="st4"/><path d="M27.4,54.5c-4.9,0.9-9.5,1-13.9,0" class="st4"/><path d="M24,50c-7.9,0.9-9.2-1.3-12.3-1.3" class="st4"/><path d="M13.5,54.5c-1.8-0.6-3.7-1.3-4.1-3.4" class="st4"/><path d="M9.4,51.1c-0.2-0.8,0.1-1.7,0.9-2.1c0.3-0.2,0.8-0.3,1.4-0.3" class="st4"/><path d="M23.7,46.5c-7.9,0.4-9.1-1.8-12.2-2" class="st4"/><path d="M10.3,49c-0.8-0.6-1.1-1.6-1.2-2.2" class="st4"/><path d="M9.1,46.8C9,45.9,9.4,45,10.3,44.6c0.3-0.1,0.7-0.2,1.1-0.1" class="st4"/><path d="M24,42.4c-7.9,0.3-9.1-1.9-12.2-2.1" class="st4"/><path d="M10.3,44.6c-0.6-0.6-0.9-1.4-0.9-2" class="st4"/><path d="M9.4,42.6c-0.1-0.9,0.3-1.7,1.1-2.1c0.4-0.2,0.8-0.2,1.3-0.2" class="st4"/><path d="M24,38.6c-7.4-0.4-8.7-2.1-11.8-2.4" class="st4"/><path d="M10.3,40.1c-0.4-0.5-0.6-1.1-0.6-1.7" class="st4"/><path d="M9.7,38.5c-0.1-1.2,0.7-2.4,2.4-2.2" class="st4"/><path d="M33,38.1L24,38.6" class="st4"/><path d="M26.8,28c1.8-2.7,3.3-5,6.2-6.9" class="st4"/><path d="M25.6,12.8c1.5-2.7,2.9-3.9,6-3.9" class="st4"/><path d="M33,21.1c2.7-1.5,4.4-3.5,4.3-6.6" class="st4"/><path d="M31.6,8.9c2.9,0,5.7,2.4,5.7,5.6" class="st4"/><path d="M24.4,28c-1.8-2.7-3.3-5-6.2-6.9" class="st4"/><path d="M25.6,12.8c-1.5-2.7-2.9-3.9-6-3.9" class="st4"/><path d="M18.2,21.1c-2.7-1.5-4.4-3.5-4.3-6.6" class="st4"/><path d="M19.6,8.9c-2.9,0-5.8,2.4-5.7,5.6" class="st4"/><path d="M26.8,28c-0.8,1.5-1.5,1.5-2.4,0" class="st4"/></svg>