<svg xmlns="http://www.w3.org/2000/svg" width="144" height="132" fill="none" viewBox="0 0 144 132"><path fill="#fed607" d="M17.863 33.664s.773.773.773 2.323-.883 6.967-.883 6.967.11.996.883 1.436c.774.44 2.544-.22 2.544-.22l6.526-2.986.997.11 6.637 3.43L37 44.39l.773-1.66-.883-7.963.553-1.327 5.42-5.086s0-2.544-1.217-2.877c-1.216-.333-7.963-1.55-7.963-1.55L32.466 22.6l-3.316-6.303-1.327-.333-1.66.883-3.87 7.077-2.543.773-5.974.997-1.106 1.326.443 1.77 4.757 4.867zm25.48-21.207s.45.45.45 1.353c0 .904-.517 4.06-.517 4.06s.064.58.517.837 1.483-.13 1.483-.13l3.804-1.74.58.063 3.866 1.997.967-.193.45-.967-.517-4.64.324-.773 3.156-2.964s0-1.483-.71-1.676c-.71-.194-4.64-.904-4.64-.904l-.71-.773-1.933-3.673-.773-.194-.967.517-2.257 4.123-1.483.45-3.48.58-.643.774.256 1.03 2.77 2.836z"/><path stroke="#002140" stroke-linecap="round" stroke-linejoin="round" d="m29.753 17.08 2.993 6.067a2.15 2.15 0 0 0 1.617 1.177l6.693.973c1.764.257 2.467 2.423 1.19 3.667l-4.843 4.72a2.15 2.15 0 0 0-.617 1.903l1.144 6.667c.3 1.756-1.54 3.093-3.117 2.266l-5.987-3.146a2.14 2.14 0 0 0-2 0L20.84 44.52c-1.577.83-3.42-.51-3.117-2.266l1.143-6.667a2.15 2.15 0 0 0-.616-1.903l-4.844-4.72c-1.276-1.244-.57-3.41 1.19-3.667l6.694-.973c.7-.104 1.303-.54 1.616-1.177L25.9 17.08c.786-1.596 3.066-1.596 3.853 0M50.37 2.7l1.747 3.54c.183.37.536.627.943.687l3.907.566c1.03.15 1.44 1.414.693 2.14l-2.827 2.757a1.25 1.25 0 0 0-.36 1.11l.667 3.89c.177 1.023-.9 1.807-1.82 1.323l-3.493-1.836a1.25 1.25 0 0 0-1.167 0l-3.493 1.836c-.92.484-1.997-.296-1.82-1.323l.666-3.89a1.26 1.26 0 0 0-.36-1.11l-2.826-2.757c-.744-.726-.334-1.99.693-2.14l3.907-.566c.41-.06.76-.317.943-.687l1.747-3.54c.46-.933 1.79-.933 2.25 0z"/><path fill="#ccf6ff" d="M9.706 83.476s4.334 12.11 14.29 18.534c11.297 7.716 21.177 14.796 61.517 19.346.23.994 1.443 8.094 6.393 7.484 7.237-1.27 2.444-10.194 2.444-10.194l14.156-5.086 21.53-9.88s8.407.883 10.914-.884c2.506-1.77.883-5.603-1.77-6.49-2.654-.883-6.047-1.916-6.047-1.916s-6.047-20.647-25.66-30.23C87.86 54.573 74 55.313 66.773 55.606 54.66 58.23 44.21 61.8 44.21 61.8L18.7 76.103s-3.834-.443-4.424.737l-7.963-.59s-5.457 1.033-5.31 3.98 3.54 3.243 4.57 3.243h4.13z"/><path fill="#4ba6a6" d="M43.48 112.693c12.483 4.907 42.536 9.793 41.823 8.217-.714-1.577-9.077-16.694-32.31-25.957s-26.514-9.153-34.477-10.7c-7.963-1.55-8.81-.773-8.81-.773s6.053 18.32 33.773 29.216z"/><path stroke="#134038" stroke-linecap="round" stroke-miterlimit="10" d="M23.373 85.24s-5.617 1.533-4.986 11.676m-1.504-12.929s-2.82 1.286-4.23 5.506m18.79-2.497s-7.74 2.127-7.43 15.007m15.06-12.653s-7.757 2.243-7.79 17.57M47.81 92.657c-8.597 4.083-8.547 13.996-8.36 18.173m15.3-14.627s-7.187 4.457-6.6 17.723m14.637-13.67s-6.777 4.204-6.634 16.597m14.23-11.803s-5.69 3.526-6.53 13.65m13.387-8.34s-4.257.966-5.657 9.6m10.677-4.263c-1.46 1.246-1.45 4.34-1.564 4.973"/><path stroke="#002140" stroke-linecap="round" stroke-linejoin="round" d="M9.51 83.397c11.7 28.836 53.473 36.829 76.006 37.959m-4.11-65.463c-32.917-2.94-46.19 13.65-63.327 20.187m115.057 18.303c-3.623-11.41-15.27-33.376-51.73-38.486"/><path stroke="#002140" stroke-linecap="round" stroke-linejoin="round" d="M9.786 83.367c27.497.993 68.934 20.313 75.727 37.989m41.957-18.8c3.17 1.624 13.937 3.244 14.6-1.843s-8.847-6.193-8.847-6.193M16.353 79.053c-3.023-4.13-15.04-3.76-15.337.81-.293 4.57 8.494 3.53 8.494 3.53"/><path stroke="#002140" stroke-linecap="round" stroke-linejoin="round" d="M14.297 76.923c.553-.627 1.476-.74 2.313-.784.41-.02.823-.033 1.23.017.617.08 1.213.31 1.724.667m65.74 44.087c1.313 2.163.98 4.43 2.026 6.096.737 1.177 2 1.987 3.344 2.127a4.37 4.37 0 0 0 3.66-1.427c.533-.596.903-1.336 1.133-2.113.863-2.923-.257-6.093-1.784-8.707"/><path stroke="#002140" stroke-linecap="round" stroke-linejoin="round" d="M94.727 118.913c.45-.1.743-.527.94-.94.386-.813.56-1.727.503-2.627m-.5 2.623s23.186-8.15 33.516-14.3"/></svg>