<svg viewBox="0 0 40 48" fill="none" xmlns="http://www.w3.org/2000/svg">
<path d="M10.0843 36.8102C10.1359 36.8102 10.1874 36.8102 10.2389 36.8102H28.8596C29.5056 36.8102 30.0683 36.8626 30.5557 36.9553C33.7338 37.5642 33.8209 39.9229 33.8209 41.0397V46.7409H5.27759V41.0397C5.27759 39.9954 5.35684 37.8666 7.9643 37.0965C8.53889 36.9271 9.23633 36.8223 10.0843 36.8142V36.8102Z" fill="#400000"/>
<path d="M8.00394 37.0521C7.88506 36.6852 10.4133 15.594 10.4133 15.594C10.4133 15.594 11.2217 10.6468 19.5354 10.4492C27.8452 10.6508 28.6576 15.594 28.6576 15.594C28.6576 15.594 31.0273 35.3587 31.0708 36.9553C30.5715 36.8626 29.997 36.8102 29.3391 36.8102H29.0935C28.9587 34.5281 27.12 17.2753 27.12 17.2753C27.12 17.2753 26.4543 12.7192 19.6384 12.5337C12.8186 12.7192 12.1569 17.2753 12.1569 17.2753C12.1569 17.2753 10.3142 34.5321 10.1834 36.8142C9.31956 36.8263 8.60627 36.9271 8.01979 37.0965L8.00791 37.0561L8.00394 37.0521Z" fill="#BF3013"/>
<path d="M29.0895 36.8062H10.342C10.2865 36.8062 10.235 36.8062 10.1835 36.8062C10.3142 34.5241 12.1569 17.2673 12.1569 17.2673C12.1569 17.2673 12.8187 12.7111 19.6385 12.5257C26.4543 12.7111 27.1201 17.2673 27.1201 17.2673C27.1201 17.2673 28.9627 34.52 29.0935 36.8021L29.0895 36.8062Z" fill="#F25730"/>
<path d="M20.7877 46.7369H33.825V41.0357C33.825 39.9188 33.7378 37.5601 30.6231 36.9513C30.1436 36.8586 29.5928 36.8062 28.9588 36.8062H19.8564" stroke="#002140" stroke-linecap="round" stroke-linejoin="round"/>
<path d="M20.8272 46.7369H5.27759V41.0357C5.27759 39.9914 5.35684 37.8625 8.01978 37.0924C8.60626 36.9231 9.31955 36.8183 10.1834 36.8102C10.2349 36.8102 10.2864 36.8102 10.3419 36.8102H19.8603" stroke="#002140" stroke-linecap="round" stroke-linejoin="round"/>
<path d="M8.00394 37.0521C7.88506 36.6852 10.4133 15.594 10.4133 15.594C10.4133 15.594 11.2217 10.6468 19.5354 10.4492C19.7058 10.4492 19.8802 10.4452 20.0585 10.4452" stroke="#002140" stroke-linecap="round" stroke-linejoin="round"/>
<path d="M31.0669 37.0521C31.0669 37.0521 31.0709 37.0078 31.0669 36.9513C31.0273 35.3547 28.6536 15.59 28.6536 15.59C28.6536 15.59 27.8413 10.6427 19.5315 10.4452C19.3611 10.4452 19.1867 10.4411 19.0084 10.4411" stroke="#002140" stroke-linecap="round" stroke-linejoin="round"/>
<path d="M18.1287 28.589L13.0644 31.7783L15.8382 26.6295L10.655 25.0328L16.08 23.5611L12.8266 18.4123L18.1287 21.2307L19.5751 15.9569L21.0215 21.2307L25.963 18.4123L23.1891 23.4402L28.3723 24.9119L23.1891 26.2585L26.2047 31.5323L20.8986 28.468L19.5751 34.1088L18.1287 28.589Z" fill="#FFFAF0"/>
<path d="M31.8673 14.8561H38.7386" stroke="#BF3013" stroke-linecap="round" stroke-linejoin="round"/>
<path d="M0.84729 15.344H7.71862" stroke="#BF3013" stroke-linecap="round" stroke-linejoin="round"/>
<path d="M19.9951 8.05019V1.05876" stroke="#BF3013" stroke-linecap="round" stroke-linejoin="round"/>
<path d="M27.9324 10.0904L32.7906 5.14717" stroke="#BF3013" stroke-linecap="round" stroke-linejoin="round"/>
<path d="M11.3365 10.5823L6.47827 5.63907" stroke="#BF3013" stroke-linecap="round" stroke-linejoin="round"/>
</svg>
