<svg xmlns="http://www.w3.org/2000/svg" fill="none" viewBox="-5 -5 40 41"><path fill="#cf4cd9" fill-rule="evenodd" stroke="#002140" stroke-linecap="round" stroke-linejoin="round" d="M16.286.732a1.72 1.72 0 0 1 2.494.944l1.187 3.56 3.086-1.647v.002a1.33 1.33 0 0 1 1.857.676l.743 1.842c.254.63-.007 1.35-.606 1.668L21.45 9.69l1.563 4.69 3.295-1.76v.003a1.33 1.33 0 0 1 1.857.675l.744 1.842c.254.63-.007 1.35-.607 1.669l-3.805 2.023 1.233 3.699a1.724 1.724 0 0 1-.77 2.033l-1.411.819a1.72 1.72 0 0 1-2.495-.944l-1.069-3.208-5.655 3.007.906 2.716a1.72 1.72 0 0 1-.77 2.033l-1.412.82a1.72 1.72 0 0 1-2.493-.945l-.742-2.225-3.472 1.847a1.33 1.33 0 0 1-1.878-.739l-.64-1.85a1.326 1.326 0 0 1 .628-1.604l3.887-2.077-1.573-4.719-3.68 1.958a1.33 1.33 0 0 1-1.879-.738l-.64-1.85a1.326 1.326 0 0 1 .629-1.605l4.096-2.188L3.61 8.009a1.724 1.724 0 0 1 .77-2.033l1.41-.82a1.72 1.72 0 0 1 2.496.944l1.52 4.564 5.652-3.019-1.354-4.06a1.72 1.72 0 0 1 .77-2.033zm-5.001 14.363 1.57 4.71 5.65-3.018-1.566-4.7z" clip-rule="evenodd"/></svg>