<svg xmlns="http://www.w3.org/2000/svg" viewBox="0 0 34 34"><path fill="#5BE3AA" d="M7.59769 24.1755C7.43452 24.0323 7.08154 24.1639 6.81015 24.4719C6.53709 24.7799 6.44884 25.1446 6.61201 25.2894C6.77352 25.4326 7.12816 25.3011 7.39956 24.993C7.67262 24.685 7.76086 24.3204 7.59936 24.1755H7.59769Z"/><path fill="#03D47C" d="M9.20611 24.2787L7.8891 22.7236C6.68364 23.4329 5.7962 24.3903 5.24841 25.5175L6.56543 27.0726C7.20645 25.9671 8.02729 24.9897 9.20611 24.2787ZM6.80852 24.4719C7.08158 24.1639 7.43289 24.0323 7.59606 24.1755C7.75756 24.3204 7.66932 24.6867 7.39626 24.993C7.12487 25.3011 6.77189 25.4326 6.60872 25.2894C6.44555 25.1445 6.53546 24.7782 6.80685 24.4719H6.80852Z"/><path stroke="#002140" stroke-linecap="round" stroke-linejoin="round" stroke-width=".499" d="M6.56714 27.0727C7.20816 25.9671 8.02901 24.9898 9.20783 24.2788"/><path stroke="#002140" stroke-linecap="round" stroke-linejoin="round" stroke-width=".499" d="M5.25 25.5175C5.79778 24.3886 6.68523 23.4329 7.89069 22.7236"/><path stroke="#002140" stroke-linecap="round" stroke-linejoin="round" stroke-width=".499" d="M6.56701 27.0727L5.25 25.5176"/><path stroke="#002140" stroke-linecap="round" stroke-linejoin="round" stroke-width=".499" d="M9.20622 24.2787L7.89087 22.7236"/><path fill="#5BE3AA" d="M8.6149 18.889C8.67151 19.0988 8.39845 19.3568 8.00218 19.4667C7.60591 19.5766 7.23795 19.4967 7.17967 19.2852C7.1214 19.0771 7.39612 18.8174 7.79073 18.7075C8.187 18.5976 8.55496 18.6775 8.61324 18.8873L8.6149 18.889Z"/><path fill="#03D47C" d="M9.22947 17.3975L10.047 19.2623C8.87982 20.0332 7.63107 20.4111 6.37733 20.4061L5.55981 18.5413C6.83354 18.4514 8.07396 18.1434 9.22947 17.3975ZM8.00237 19.4671C8.39864 19.3572 8.67169 19.0991 8.61509 18.8893C8.55681 18.6795 8.18885 18.5996 7.79258 18.7095C7.39631 18.8194 7.12325 19.0774 7.18152 19.2872C7.2398 19.497 7.60776 19.5786 8.00403 19.4687L8.00237 19.4671Z"/><path stroke="#002140" stroke-linecap="round" stroke-linejoin="round" stroke-width=".499" d="M5.55798 18.5413C6.83171 18.4514 8.07213 18.1434 9.22764 17.3975"/><path stroke="#002140" stroke-linecap="round" stroke-linejoin="round" stroke-width=".499" d="M6.3772 20.4075C7.63094 20.4109 8.88135 20.0346 10.0469 19.2637"/><path stroke="#002140" stroke-linecap="round" stroke-linejoin="round" stroke-width=".499" d="M5.55798 18.541L6.37716 20.4075"/><path stroke="#002140" stroke-linecap="round" stroke-linejoin="round" stroke-width=".499" d="M9.22949 17.3975L10.047 19.2639"/><path fill="#5BE3AA" d="M15.3483 26.1668C15.1335 26.1352 14.9087 26.4366 14.8454 26.8428C14.7822 27.2491 14.907 27.6054 15.1218 27.6387C15.3366 27.672 15.5614 27.369 15.623 26.9627C15.6863 26.5564 15.5614 26.2001 15.3483 26.1668Z"/><path fill="#03D47C" d="M16.7551 25.3808L14.807 24.7881C14.1777 26.0368 13.9512 27.3222 14.1027 28.5676L16.0508 29.1604C15.9892 27.885 16.1507 26.6163 16.7551 25.3808ZM14.8437 26.8427C14.9069 26.4364 15.13 26.1351 15.3465 26.1667C15.5613 26.2 15.6845 26.5563 15.6212 26.9626C15.5596 27.3688 15.3348 27.6702 15.12 27.6386C14.9053 27.6053 14.7804 27.249 14.8437 26.8427Z"/><path stroke="#002140" stroke-linecap="round" stroke-linejoin="round" stroke-width=".499" d="M16.0509 29.1604C15.9893 27.885 16.1508 26.6163 16.7552 25.3809"/><path stroke="#002140" stroke-linecap="round" stroke-linejoin="round" stroke-width=".499" d="M14.1027 28.5676C13.9512 27.3222 14.1777 26.0385 14.807 24.7881"/><path stroke="#002140" stroke-linecap="round" stroke-linejoin="round" stroke-width=".499" d="M16.0508 29.1606L14.1028 28.5679"/><path stroke="#002140" stroke-linecap="round" stroke-linejoin="round" stroke-width=".499" d="M16.7552 25.3808L14.8071 24.7881"/><path fill="#5BE3AA" d="M11.5953 25.7305C11.7502 25.882 11.6453 26.2433 11.3589 26.538C11.0725 26.8327 10.7145 26.9493 10.558 26.7977C10.4032 26.6462 10.5081 26.2849 10.7945 25.9902C11.0808 25.6955 11.4388 25.579 11.5953 25.7305Z"/><path fill="#03D47C" d="M11.3722 24.1338L13.0206 25.3309C12.4029 26.5863 11.5154 27.542 10.4298 28.1714L8.78149 26.9743C9.8371 26.2533 10.7512 25.3609 11.3722 24.1338ZM11.3589 26.5397C11.6453 26.245 11.7502 25.8837 11.5953 25.7322C11.4388 25.5807 11.0809 25.6972 10.7945 25.9919C10.5081 26.2866 10.4032 26.6479 10.558 26.7995C10.7146 26.951 11.0725 26.8361 11.3589 26.5397Z"/><path stroke="#002140" stroke-linecap="round" stroke-linejoin="round" stroke-width=".499" d="M8.78149 26.9743C9.8371 26.2533 10.7512 25.3609 11.3722 24.1338"/><path stroke="#002140" stroke-linecap="round" stroke-linejoin="round" stroke-width=".499" d="M10.4299 28.1715C11.5155 27.5422 12.403 26.5865 13.0207 25.3311"/><path stroke="#002140" stroke-linecap="round" stroke-linejoin="round" stroke-width=".499" d="M8.78149 26.9746L10.4298 28.1717"/><path stroke="#002140" stroke-linecap="round" stroke-linejoin="round" stroke-width=".499" d="M11.3721 24.1338L13.0204 25.3309"/><path fill="#5BE3AA" d="M12.0665 20.7923C12.1981 20.9654 12.0416 21.3067 11.7152 21.5582C11.3889 21.8096 11.0176 21.8712 10.886 21.698C10.7545 21.5265 10.911 21.1835 11.2374 20.9338C11.5637 20.684 11.935 20.6208 12.0665 20.7923Z"/><path fill="#03D47C" d="M12.0798 19.1787L13.5367 20.6023C12.7425 21.7545 11.7252 22.5703 10.5614 23.0365L9.10449 21.6129C10.2533 21.0535 11.2873 20.3026 12.0798 19.1787ZM11.7169 21.5563C12.0432 21.3066 12.1997 20.9636 12.0682 20.7904C11.935 20.6189 11.5637 20.6805 11.239 20.932C10.9127 21.1817 10.7562 21.5247 10.8877 21.6962C11.0209 21.8694 11.3922 21.8061 11.7169 21.5563Z"/><path stroke="#002140" stroke-linecap="round" stroke-linejoin="round" stroke-width=".499" d="M9.10278 21.6129C10.2516 21.0535 11.2856 20.3026 12.0781 19.1787"/><path stroke="#002140" stroke-linecap="round" stroke-linejoin="round" stroke-width=".499" d="M10.5596 23.0368C11.7251 22.5706 12.7424 21.7547 13.5349 20.6025"/><path stroke="#002140" stroke-linecap="round" stroke-linejoin="round" stroke-width=".499" d="M9.10278 21.6133L10.5597 23.0369"/><path stroke="#002140" stroke-linecap="round" stroke-linejoin="round" stroke-width=".499" d="M12.0798 19.1787L13.5367 20.6023"/><path fill="#5BE3AA" d="M15.0618 21.0486C14.8587 20.972 14.5757 21.2184 14.4275 21.6031C14.2793 21.986 14.3259 22.3606 14.529 22.4389C14.7322 22.5155 15.0152 22.2691 15.1617 21.8844C15.3099 21.5015 15.2633 21.1269 15.0618 21.0486Z"/><path fill="#03D47C" d="M16.6053 20.5793L14.8271 19.5869C13.948 20.6742 13.4535 21.883 13.3369 23.1317L15.1151 24.124C15.3266 22.8636 15.7528 21.6598 16.6053 20.5793ZM14.4292 21.6032C14.5773 21.2203 14.8604 20.9722 15.0635 21.0488C15.2666 21.127 15.3116 21.5017 15.1634 21.8846C15.0169 22.2676 14.7322 22.5157 14.5307 22.4391C14.3276 22.3608 14.2826 21.9878 14.4292 21.6032Z"/><path stroke="#002140" stroke-linecap="round" stroke-linejoin="round" stroke-width=".499" d="M15.1152 24.1239C15.3267 22.8635 15.7529 21.6597 16.6054 20.5791"/><path stroke="#002140" stroke-linecap="round" stroke-linejoin="round" stroke-width=".499" d="M13.3369 23.1297C13.4535 21.881 13.9463 20.6739 14.8271 19.585"/><path stroke="#002140" stroke-linecap="round" stroke-linejoin="round" stroke-width=".499" d="M15.1151 24.1239L13.3369 23.1299"/><path stroke="#002140" stroke-linecap="round" stroke-linejoin="round" stroke-width=".499" d="M16.6053 20.5793L14.8254 19.5869"/><path fill="#F68DFE" d="M13.595 8.23345C11.7235 8.22346 9.45748 9.97837 7.41452 14.4139C6.97496 15.3913 7.4678 15.7576 7.99061 14.8269C9.4991 12.5991 10.9027 11.1522 12.0515 11.5901C12.6526 11.8498 13.0705 12.4043 13.2071 13.4066L13.2304 13.4283C14.3409 12.2777 15.3799 11.2687 16.3656 10.3913L16.3456 10.368C15.6213 8.71963 14.6689 8.17684 13.5933 8.23345H13.595Z"/><path fill="#8DC8FF" d="M20.871 21.0672C22.0215 19.955 23.0322 18.916 23.9096 17.9304C26.2389 15.318 27.6442 13.0852 28.3085 10.8907C27.6159 11.5701 22.7241 6.67662 23.4068 5.9873C21.2123 6.65331 18.9812 8.05857 16.3672 10.3912C15.3832 11.2687 14.3425 12.2793 13.232 13.4282C12.9023 13.7695 12.566 14.1242 12.223 14.4905L12.218 14.4955C12.1031 14.6103 12.1847 14.8917 12.4295 15.3047C12.8257 15.969 13.6516 16.9697 14.7571 18.1518L14.7921 18.1768C16.1807 16.3037 17.2629 15.2447 18.6332 14.4205C19.9353 13.7179 20.543 14.3256 19.8021 15.5894C18.9762 16.9613 17.9173 18.0452 16.0392 19.4339C17.2296 20.5494 18.2803 21.4185 18.9762 21.8448C19.3991 22.1028 19.6888 22.1961 19.8037 22.0812C20.1717 21.7365 20.528 21.3986 20.8727 21.0672H20.871Z"/><path fill="#002140" d="M10.9609 16.8032C10.6828 16.5268 10.3881 16.5851 10.2133 16.7599C9.66385 17.3094 10.8277 18.7246 12.9039 20.8009L12.9539 20.8342C13.0971 20.6177 13.2353 20.4079 13.3701 20.2065C11.5536 18.3966 10.4597 17.0579 10.9609 16.8032Z"/><path fill="#002140" d="M12.4295 15.3047L12.4229 15.308C12.1465 15.5844 12.005 16.1056 12.2431 16.5901C12.2747 16.655 12.313 16.7183 12.358 16.7799C12.6693 17.2094 13.4019 18.0603 14.2044 18.8511L14.2727 18.8994C14.4509 18.6447 14.624 18.4066 14.7938 18.1768L14.7589 18.1518C13.6533 16.9697 12.8275 15.969 12.4312 15.3047H12.4295Z"/><path fill="#0185FF" d="M10.9611 16.8027C10.4599 17.0574 11.5538 18.3977 13.3703 20.2043C13.6867 19.7331 13.9847 19.2985 14.2694 18.8972L14.2012 18.849C13.3986 18.0598 12.666 17.2073 12.3547 16.7777C12.3097 16.7161 12.2714 16.6528 12.2398 16.5879L12.2181 16.5979L11.0693 16.766C11.026 16.7727 10.9877 16.7844 10.9577 16.801L10.9611 16.8027Z"/><path fill="#0185FF" d="M23.4069 5.98678C22.7243 6.67775 27.6161 11.5712 28.3087 10.8902C28.8248 9.18691 28.8964 7.50859 28.6084 5.69207V5.68541C26.7919 5.39737 25.1102 5.46896 23.4069 5.98678Z"/><path fill="#F68DFE" d="M18.6332 14.4202C17.2629 15.2444 16.179 16.3033 14.792 18.1764C14.6239 18.4045 14.449 18.6443 14.2709 18.899C13.9862 19.3003 13.6881 19.7349 13.3718 20.2077C13.2352 20.4092 13.0971 20.619 12.9555 20.8354C12.9272 20.8771 12.8989 20.9203 12.8706 20.9636C12.4843 21.4165 12.7524 21.7245 13.2586 21.3516C13.3002 21.3233 13.3401 21.2983 13.3818 21.27C13.6015 21.1251 13.8147 20.9836 14.0195 20.8471C14.484 20.5341 14.9136 20.2394 15.3115 19.9596C15.5662 19.7782 15.8093 19.6033 16.0391 19.4335C17.9156 18.0449 18.9762 16.961 19.802 15.589C20.5429 14.3253 19.9352 13.7176 18.6332 14.4202Z"/><path fill="#002140" d="M13.3819 21.2701L13.3969 21.2934C15.4715 23.3696 16.9117 24.5585 17.4612 24.009C17.6376 23.8342 17.6943 23.5395 17.4179 23.2614C17.1648 23.7643 15.8411 22.687 14.0329 20.8688L14.0179 20.8472C13.8131 20.9837 13.6 21.1252 13.3802 21.2701H13.3819Z"/><path fill="#0185FF" d="M17.4179 23.2597C17.4329 23.2281 17.4462 23.1914 17.4528 23.1482L17.621 21.9993C17.5794 21.976 17.5377 21.9494 17.4961 21.9194C17.0666 21.6097 16.0992 20.7605 15.31 19.958C14.912 20.2377 14.4825 20.5324 14.0179 20.8455L14.0329 20.8671C15.8411 22.6836 17.1648 23.7609 17.4179 23.2597Z"/><path fill="#002140" d="M15.3115 19.9597C16.1007 20.7623 17.0681 21.6114 17.4977 21.9211C17.5376 21.9511 17.5792 21.9777 17.6225 22.001C18.127 22.2857 18.6815 22.1442 18.9712 21.8545L18.9778 21.8445C18.2819 21.4183 17.2329 20.5491 16.0408 19.4336C15.811 19.6034 15.5679 19.7782 15.3132 19.9597H15.3115Z"/><path fill="#F68DFE" d="M23.9097 17.9304C23.0322 18.9161 22.0216 19.955 20.8711 21.0672C21.8734 21.2054 22.4278 21.6217 22.6876 22.2244C23.1255 23.3749 21.6802 24.7769 19.4508 26.2854C18.5201 26.8082 18.8864 27.301 19.8637 26.8614C24.2976 24.8185 26.0542 22.5524 26.0442 20.681C26.0991 19.6037 25.5564 18.653 23.9097 17.9287V17.9304Z"/><path stroke="#FFFAF0" stroke-linecap="round" stroke-linejoin="round" stroke-width="1.665" d="M22.6692 7.44043C20.553 8.27127 17.9573 10.156 13.8081 14.3502"/><path stroke="#002140" stroke-linecap="round" stroke-linejoin="round" stroke-width=".499" d="M19.8038 22.0825C20.1718 21.7378 20.5281 21.3998 20.8728 21.0685C22.0233 19.9562 23.0339 18.9173 23.9114 17.9316C26.2407 15.3192 27.646 13.0865 28.3103 10.892C28.8265 9.18869 28.8981 7.51036 28.61 5.69385"/><path stroke="#002140" stroke-linecap="round" stroke-linejoin="round" stroke-width=".499" d="M23.4067 5.98678C25.11 5.46896 26.79 5.39737 28.6082 5.68541C28.6082 5.68541 28.6115 5.68541 28.6132 5.68541"/><path stroke="#002140" stroke-linecap="round" stroke-linejoin="round" stroke-width=".499" d="M12.223 14.4919C12.566 14.1256 12.9023 13.771 13.232 13.4297C14.3426 12.2791 15.3815 11.2702 16.3672 10.3927C18.9812 8.0617 21.2123 6.65644 23.4068 5.98877"/><path stroke="#002140" stroke-linecap="round" stroke-linejoin="round" stroke-width=".499" d="M17.4977 21.9211C17.5376 21.9511 17.5793 21.9777 17.6226 22.001C18.127 22.2857 18.6815 22.1442 18.9712 21.8545"/><path stroke="#002140" stroke-linecap="round" stroke-linejoin="round" stroke-width=".499" d="M12.3562 16.7814C12.3113 16.7198 12.273 16.6566 12.2414 16.5916C12.0033 16.1054 12.1448 15.586 12.4212 15.3096"/><path stroke="#002140" stroke-linecap="round" stroke-linejoin="round" stroke-width=".499" d="M17.621 22.001L17.4529 23.1482"/><path stroke="#002140" stroke-linecap="round" stroke-linejoin="round" stroke-width=".499" d="M14.033 20.8691C15.8411 22.6857 17.1648 23.7629 17.4179 23.2617C17.4329 23.2301 17.4462 23.1935 17.4529 23.1502"/><path stroke="#002140" stroke-linecap="round" stroke-linejoin="round" stroke-width=".499" d="M13.3967 21.2935C15.4713 23.3697 16.9115 24.5585 17.461 24.0091"/><path stroke="#002140" stroke-linecap="round" stroke-linejoin="round" stroke-width=".499" d="M17.4612 24.0093C17.6377 23.8345 17.6943 23.5398 17.4179 23.2617H17.4163"/><path stroke="#002140" stroke-linecap="round" stroke-linejoin="round" stroke-width=".499" d="M12.2214 16.6016L11.0725 16.7697"/><path stroke="#002140" stroke-linecap="round" stroke-linejoin="round" stroke-width=".499" d="M13.3719 20.2061C11.5554 18.3979 10.4615 17.0576 10.9627 16.8045C10.9926 16.7895 11.0309 16.7779 11.0742 16.7695"/><path stroke="#002140" stroke-linecap="round" stroke-linejoin="round" stroke-width=".499" d="M12.9056 20.8022C10.8294 18.7276 9.66556 17.3107 10.215 16.7612"/><path stroke="#002140" stroke-linecap="round" stroke-linejoin="round" stroke-width=".499" d="M10.2134 16.7612C10.3882 16.5847 10.6829 16.5264 10.961 16.8045H10.9626"/><path stroke="#002140" stroke-linecap="round" stroke-linejoin="round" stroke-width=".499" d="M13.2586 21.3518C12.7524 21.7231 12.4843 21.4167 12.8706 20.9639"/><path stroke="#002140" stroke-linecap="round" stroke-linejoin="round" stroke-width=".499" d="M13.2585 21.3514C13.3002 21.3231 13.3401 21.2982 13.3818 21.2699C13.6015 21.125 13.8147 20.9835 14.0194 20.8469C14.484 20.5339 14.9136 20.2392 15.3115 19.9595C15.5662 19.778 15.8093 19.6032 16.0391 19.4334C17.9155 18.0447 18.9761 16.9608 19.802 15.5889"/><path stroke="#002140" stroke-linecap="round" stroke-linejoin="round" stroke-width=".499" d="M12.8706 20.9619C12.8989 20.9186 12.9272 20.8753 12.9555 20.8337C13.0987 20.6173 13.2369 20.4075 13.3718 20.206C13.6881 19.7331 13.9862 19.2986 14.2709 18.8973C14.449 18.6426 14.6222 18.4045 14.792 18.1747C16.1806 16.3016 17.2629 15.2426 18.6332 14.4185"/><path stroke="#002140" stroke-linecap="round" stroke-linejoin="round" stroke-width=".499" d="M19.8021 15.589C20.5431 14.3253 19.9353 13.7176 18.6333 14.4202"/><path stroke="#002140" stroke-linecap="round" stroke-linejoin="round" stroke-width=".499" d="M19.8037 22.0829C19.6889 22.1978 19.3991 22.1029 18.9762 21.8465C18.2803 21.4202 17.2313 20.5511 16.0392 19.4355"/><path stroke="#002140" stroke-linecap="round" stroke-linejoin="round" stroke-width=".499" d="M12.218 14.4971C12.1031 14.612 12.1847 14.8933 12.4295 15.3063C12.8257 15.9706 13.6516 16.9713 14.7571 18.1534"/><path stroke="#002140" stroke-linecap="round" stroke-linejoin="round" stroke-width=".499" d="M17.4977 21.9213C17.0681 21.6116 16.1007 20.7625 15.3115 19.96"/><path stroke="#002140" stroke-linecap="round" stroke-linejoin="round" stroke-width=".499" d="M12.3562 16.7812C12.6676 17.2108 13.4002 18.0616 14.2027 18.8525"/><path stroke="#002140" stroke-linecap="round" stroke-linejoin="round" stroke-width=".499" d="M19.4508 26.2851C21.6786 24.7766 23.1255 23.373 22.6876 22.2241"/><path stroke="#002140" stroke-linecap="round" stroke-linejoin="round" stroke-width=".499" d="M20.8694 21.0669C21.8717 21.2051 22.4262 21.6213 22.6859 22.2241"/><path stroke="#002140" stroke-linecap="round" stroke-linejoin="round" stroke-width=".499" d="M19.8636 26.8631C24.2975 24.8201 26.0541 22.5541 26.0441 20.6826"/><path stroke="#002140" stroke-linecap="round" stroke-linejoin="round" stroke-width=".499" d="M23.9097 17.9297C25.5564 18.6523 26.0991 19.6047 26.0442 20.6819"/><path stroke="#002140" stroke-linecap="round" stroke-linejoin="round" stroke-width=".499" d="M19.4508 26.2852C18.5201 26.808 18.8864 27.3008 19.8637 26.8612"/><path stroke="#002140" stroke-linecap="round" stroke-linejoin="round" stroke-width=".499" d="M7.99219 14.8266C9.50068 12.5988 10.9043 11.152 12.0531 11.5898"/><path stroke="#002140" stroke-linecap="round" stroke-linejoin="round" stroke-width=".499" d="M13.2087 13.4064C13.0722 12.404 12.6543 11.8496 12.0532 11.5898"/><path stroke="#002140" stroke-linecap="round" stroke-linejoin="round" stroke-width=".499" d="M7.41455 14.4139C9.4575 9.98003 11.7236 8.22345 13.595 8.23344"/><path stroke="#002140" stroke-linecap="round" stroke-linejoin="round" stroke-width=".499" d="M16.3472 10.368C15.6229 8.71963 14.6706 8.17684 13.595 8.23345"/><path stroke="#002140" stroke-linecap="round" stroke-linejoin="round" stroke-width=".499" d="M7.9922 14.8265C7.46939 15.7572 6.97655 15.3893 7.41611 14.4136"/><path stroke="#002140" stroke-linecap="round" stroke-linejoin="round" stroke-width=".499" d="M28.3103 10.8891C27.6176 11.5701 22.7259 6.67662 23.4085 5.9873"/><path fill="#FFFAF0" d="M25.7361 17.7905C26.3388 17.7905 26.3388 18.3649 25.7361 18.3649C24.6472 18.3649 24.0428 19.1925 24.0428 20.4279L24.0328 20.4395C24.0328 21.1721 23.5616 21.1721 23.5616 20.4395C23.5616 19.1125 22.8823 18.3749 21.8683 18.3749C21.2656 18.3749 21.2656 17.8005 21.8683 17.8005L21.8783 17.7889C22.8939 17.7889 23.5716 17.0513 23.5716 15.7243C23.5716 14.9917 24.0411 14.9917 24.0411 15.7243C24.0411 17.0513 24.7204 17.7889 25.7344 17.7889L25.7361 17.7905Z"/><path fill="#FFFAF0" d="M22.0515 8.01833C22.8041 8.01833 22.8041 8.73428 22.0515 8.73428C20.6928 8.73428 19.9353 9.76824 19.9353 11.315L19.9236 11.33C19.9236 12.2474 19.3342 12.2474 19.3342 11.33C19.3342 9.67334 18.4867 8.74926 17.218 8.74926C16.4654 8.74926 16.4654 8.03331 17.218 8.03331L17.2297 8.01833C18.4984 8.01833 19.3459 7.09591 19.3459 5.43757C19.3459 4.52016 19.9336 4.52016 19.9336 5.43757C19.9336 7.09425 20.7828 8.01833 22.0498 8.01833H22.0515Z"/><path stroke="#002140" stroke-linecap="round" stroke-linejoin="round" stroke-width=".499" d="M17.2297 8.01825C18.4985 8.01825 19.3459 7.09584 19.3459 5.4375"/><path stroke="#002140" stroke-linecap="round" stroke-linejoin="round" stroke-width=".499" d="M22.0515 8.01825C20.7845 8.01825 19.9353 7.09584 19.9353 5.4375"/><path stroke="#002140" stroke-linecap="round" stroke-linejoin="round" stroke-width=".499" d="M19.3475 5.43757C19.3475 4.52016 19.9353 4.52016 19.9353 5.43757"/><path stroke="#002140" stroke-linecap="round" stroke-linejoin="round" stroke-width=".499" d="M19.9353 11.3151C19.9353 9.77001 20.6929 8.73438 22.0515 8.73438"/><path stroke="#002140" stroke-linecap="round" stroke-linejoin="round" stroke-width=".499" d="M22.0515 8.01855C22.8041 8.01855 22.8041 8.73451 22.0515 8.73451"/><path stroke="#002140" stroke-linecap="round" stroke-linejoin="round" stroke-width=".499" d="M17.218 8.74902C18.4867 8.74902 19.3342 9.67143 19.3342 11.3298"/><path stroke="#002140" stroke-linecap="round" stroke-linejoin="round" stroke-width=".499" d="M19.9236 11.3301C19.9236 12.2475 19.3342 12.2475 19.3342 11.3301"/><path stroke="#002140" stroke-linecap="round" stroke-linejoin="round" stroke-width=".499" d="M17.218 8.74915C16.4654 8.74915 16.4654 8.0332 17.218 8.0332"/><path stroke="#002140" stroke-linecap="round" stroke-linejoin="round" stroke-width=".499" d="M21.8784 17.7902C22.8941 17.7902 23.5717 17.0526 23.5717 15.7256"/><path stroke="#002140" stroke-linecap="round" stroke-linejoin="round" stroke-width=".499" d="M25.7363 17.7902C24.7206 17.7902 24.043 17.0526 24.043 15.7256"/><path stroke="#002140" stroke-linecap="round" stroke-linejoin="round" stroke-width=".499" d="M23.5717 15.7257C23.5717 14.9931 24.0412 14.9931 24.0412 15.7257"/><path stroke="#002140" stroke-linecap="round" stroke-linejoin="round" stroke-width=".499" d="M24.043 20.4277C24.043 19.1906 24.649 18.3647 25.7363 18.3647"/><path stroke="#002140" stroke-linecap="round" stroke-linejoin="round" stroke-width=".499" d="M25.7362 17.79C26.3389 17.79 26.3389 18.3645 25.7362 18.3645"/><path stroke="#002140" stroke-linecap="round" stroke-linejoin="round" stroke-width=".499" d="M21.8683 18.3745C22.8823 18.3745 23.5616 19.1121 23.5616 20.4391"/><path stroke="#002140" stroke-linecap="round" stroke-linejoin="round" stroke-width=".499" d="M24.033 20.4395C24.033 21.1721 23.5618 21.1721 23.5618 20.4395"/><path stroke="#002140" stroke-linecap="round" stroke-linejoin="round" stroke-width=".499" d="M21.8683 18.3747C21.2656 18.3747 21.2656 17.8003 21.8683 17.8003"/></svg>