<?xml version="1.0" encoding="utf-8"?>
<!-- Generator: Adobe Illustrator 26.5.0, SVG Export Plug-In . SVG Version: 6.00 Build 0)  -->
<svg version="1.1" id="Layer_1" xmlns="http://www.w3.org/2000/svg" xmlns:xlink="http://www.w3.org/1999/xlink" x="0px" y="0px"
	 viewBox="0 0 68 68" style="enable-background:new 0 0 68 68;" xml:space="preserve">
<style type="text/css">
	.st0{fill:#AAD3FF;}
	.st1{fill:#DFF4F8;}
	.st2{fill:#59A9FF;}
	.st3{fill:#002140;}
	.st4{fill:#03D47C;}
</style>
<g>
	<path class="st0" d="M56.8,26.3L34.2,9.7L12.4,26.4l0.4,4.7v20.8h-1v3.5h8.8v-1.8h9.2v1.7H39v-1.7h8.9v2H57v-3.4h-1V30.6L56.8,26.3
		z"/>
</g>
<g>
	<path class="st1" d="M20,30.7h-7.2v21.1H20V30.7z"/>
</g>
<g>
	<path class="st1" d="M37.8,31h-6.9v21.1h6.9V31z"/>
</g>
<g>
	<path class="st1" d="M56,31.1h-7v20.8h7V31.1z"/>
</g>
<g>
	<path class="st2" d="M20,44.6h10.9V31l-0.6-4.5h-9.8l-0.7,4.9L20,44.6z"/>
</g>
<g>
	<path class="st2" d="M38,44.6h10.9V31l-0.6-4.5h-9.8l-0.7,4.9L38,44.6z"/>
</g>
<g>
	<path class="st3" d="M22.8,44.5h5.3v-8.3c0,0-0.2-2.7-2.6-2.7S23,36.4,23,36.4L22.8,44.5z"/>
</g>
<g>
	<path class="st3" d="M40.7,44.4l5.1,0.1v-8.3c0,0-0.2-2.7-2.6-2.7c-2.4,0-2.5,2.9-2.5,2.9L40.7,44.4L40.7,44.4z"/>
</g>
<g>
	<path class="st3" d="M56.6,26.9H12.2c-0.2,0-0.4-0.1-0.5-0.3c-0.1-0.2,0-0.4,0.2-0.6L34.1,9.1c0.2-0.1,0.4-0.1,0.6,0L56.9,26
		c0.2,0.1,0.2,0.4,0.2,0.6C57,26.7,56.8,26.9,56.6,26.9z M13.7,25.9h41.4L34.4,10.1L13.7,25.9z"/>
</g>
<g>
	<path class="st3" d="M19.8,31.5h-7c-0.3,0-0.5-0.2-0.5-0.5c0-2-0.6-4.5-0.6-4.5c-0.1-0.3,0.1-0.5,0.4-0.6c0.3-0.1,0.5,0.1,0.6,0.4
		c0,0.1,0.5,2.3,0.6,4.2h6c0.1-2,0.6-4.1,0.6-4.2c0.1-0.3,0.3-0.4,0.6-0.4c0.3,0.1,0.4,0.3,0.4,0.6c0,0-0.6,2.5-0.6,4.5
		C20.3,31.3,20.1,31.5,19.8,31.5z"/>
</g>
<g>
	<path class="st3" d="M12.8,52.3c-0.3,0-0.5-0.2-0.5-0.5V31c0-0.3,0.2-0.5,0.5-0.5s0.5,0.2,0.5,0.5v20.8
		C13.3,52.1,13.1,52.3,12.8,52.3z"/>
</g>
<g>
	<path class="st3" d="M19.8,52.2c-0.3,0-0.5-0.2-0.5-0.5V31c0-0.3,0.2-0.5,0.5-0.5s0.5,0.2,0.5,0.5v20.7
		C20.3,52,20.1,52.2,19.8,52.2z"/>
</g>
<g>
	<path class="st3" d="M16.4,52.1c-0.3,0-0.5-0.2-0.5-0.5V31.3c0-0.3,0.2-0.5,0.5-0.5s0.5,0.2,0.5,0.5v20.3
		C16.9,51.9,16.7,52.1,16.4,52.1z"/>
</g>
<g>
	<path class="st3" d="M20.8,55.8h-9c-0.3,0-0.5-0.2-0.5-0.5V52c0-0.3,0.2-0.5,0.5-0.5h9c0.3,0,0.5,0.2,0.5,0.5v3.3
		C21.3,55.6,21.1,55.8,20.8,55.8z M12.4,54.8h8v-2.3h-8V54.8z"/>
</g>
<g>
	<path class="st3" d="M55.9,31.5h-7c-0.3,0-0.5-0.2-0.5-0.5c0-2-0.6-4.5-0.6-4.5c-0.1-0.3,0.1-0.5,0.4-0.6c0.3-0.1,0.5,0.1,0.6,0.4
		c0,0.1,0.5,2.3,0.6,4.2h6c0.1-2,0.6-4.1,0.6-4.2c0.1-0.3,0.3-0.4,0.6-0.4c0.3,0.1,0.4,0.3,0.4,0.6c0,0-0.6,2.5-0.6,4.5
		C56.4,31.3,56.2,31.5,55.9,31.5z"/>
</g>
<g>
	<path class="st3" d="M48.9,52.3c-0.3,0-0.5-0.2-0.5-0.5V31c0-0.3,0.2-0.5,0.5-0.5s0.5,0.2,0.5,0.5v20.8
		C49.4,52.1,49.2,52.3,48.9,52.3z"/>
</g>
<g>
	<path class="st3" d="M55.9,52.2c-0.3,0-0.5-0.2-0.5-0.5V31c0-0.3,0.2-0.5,0.5-0.5s0.5,0.2,0.5,0.5v20.7
		C56.4,52,56.2,52.2,55.9,52.2z"/>
</g>
<g>
	<path class="st3" d="M52.5,52.1c-0.3,0-0.5-0.2-0.5-0.5V31.3c0-0.3,0.2-0.5,0.5-0.5S53,31,53,31.3v20.3
		C53,51.9,52.8,52.1,52.5,52.1z"/>
</g>
<g>
	<path class="st3" d="M56.9,55.8h-9c-0.3,0-0.5-0.2-0.5-0.5V52c0-0.3,0.2-0.5,0.5-0.5h9c0.3,0,0.5,0.2,0.5,0.5v3.3
		C57.4,55.6,57.2,55.8,56.9,55.8z M48.5,54.8h8v-2.3h-8V54.8z"/>
</g>
<g>
	<path class="st3" d="M37.9,31.5h-7c-0.3,0-0.5-0.2-0.5-0.5c0-2-0.6-4.5-0.6-4.5c-0.1-0.3,0.1-0.5,0.4-0.6c0.3-0.1,0.5,0.1,0.6,0.4
		c0,0.1,0.5,2.3,0.6,4.2h6c0.1-2,0.6-4.1,0.6-4.2c0.1-0.3,0.3-0.4,0.6-0.4c0.3,0.1,0.4,0.3,0.4,0.6c0,0-0.6,2.5-0.6,4.5
		C38.4,31.3,38.2,31.5,37.9,31.5z"/>
</g>
<g>
	<path class="st3" d="M30.9,52.3c-0.3,0-0.5-0.2-0.5-0.5V31c0-0.3,0.2-0.5,0.5-0.5s0.5,0.2,0.5,0.5v20.8
		C31.4,52.1,31.2,52.3,30.9,52.3z"/>
</g>
<g>
	<path class="st3" d="M37.9,52.2c-0.3,0-0.5-0.2-0.5-0.5V31c0-0.3,0.2-0.5,0.5-0.5s0.5,0.2,0.5,0.5v20.7
		C38.4,52,38.2,52.2,37.9,52.2z"/>
</g>
<g>
	<path class="st3" d="M34.5,52.1c-0.3,0-0.5-0.2-0.5-0.5V31.3c0-0.3,0.2-0.5,0.5-0.5S35,31,35,31.3v20.3
		C35,51.9,34.8,52.1,34.5,52.1z"/>
</g>
<g>
	<path class="st3" d="M38.9,55.8h-9c-0.3,0-0.5-0.2-0.5-0.5V52c0-0.3,0.2-0.5,0.5-0.5h9c0.3,0,0.5,0.2,0.5,0.5v3.3
		C39.4,55.6,39.2,55.8,38.9,55.8z M30.5,54.8h8v-2.3h-8V54.8z"/>
</g>
<g>
	<path class="st3" d="M30,54h-9.1c-0.3,0-0.5-0.2-0.5-0.5s0.2-0.5,0.5-0.5H30c0.3,0,0.5,0.2,0.5,0.5S30.3,54,30,54z"/>
</g>
<g>
	<path class="st3" d="M48,54h-8.5c-0.3,0-0.5-0.2-0.5-0.5s0.2-0.5,0.5-0.5H48c0.3,0,0.5,0.2,0.5,0.5S48.3,54,48,54z"/>
</g>
<g>
	<path class="st3" d="M30.6,49.5H20.1c-0.3,0-0.5-0.2-0.5-0.5s0.2-0.5,0.5-0.5h10.5c0.3,0,0.5,0.2,0.5,0.5S30.9,49.5,30.6,49.5z"/>
</g>
<g>
	<path class="st3" d="M30.6,45.1H20.1c-0.3,0-0.5-0.2-0.5-0.5s0.2-0.5,0.5-0.5h10.5c0.3,0,0.5,0.2,0.5,0.5S30.9,45.1,30.6,45.1z"/>
</g>
<g>
	<path class="st3" d="M48.5,49.5H38.1c-0.3,0-0.5-0.2-0.5-0.5s0.2-0.5,0.5-0.5h10.5c0.3,0,0.5,0.2,0.5,0.5S48.8,49.5,48.5,49.5z"/>
</g>
<g>
	<path class="st3" d="M48.5,45.1H38.1c-0.3,0-0.5-0.2-0.5-0.5s0.2-0.5,0.5-0.5h10.5c0.3,0,0.5,0.2,0.5,0.5S48.8,45.1,48.5,45.1z"/>
</g>
<g>
	<path class="st3" d="M28.1,45c-0.3,0-0.5-0.2-0.5-0.5v-8.4c0-1.2-0.9-2.1-2.1-2.1c-1.2,0-2.1,0.9-2.1,2.1v8.3
		c0,0.3-0.2,0.5-0.5,0.5s-0.5-0.2-0.5-0.5v-8.3c0-1.7,1.4-3.1,3.1-3.1s3.1,1.4,3.1,3.1v8.4C28.6,44.8,28.4,45,28.1,45z"/>
</g>
<g>
	<path class="st3" d="M46,45c-0.3,0-0.5-0.2-0.5-0.5v-8.4c0-1.2-0.9-2.1-2.1-2.1c-1.2,0-2.1,0.9-2.1,2.1v8.3c0,0.3-0.2,0.5-0.5,0.5
		s-0.5-0.2-0.5-0.5v-8.3c0-1.7,1.4-3.1,3.1-3.1s3.1,1.4,3.1,3.1v8.4C46.5,44.8,46.2,45,46,45z"/>
</g>
<g>
	<path class="st3" d="M34.5,24.4c0.4,0,0.5-0.2,0.5-0.5v-0.6c1.5,0,2.6-0.8,2.6-2.4c0-1.4-1-2.2-2.6-2.7c-0.6-0.2-0.9-0.4-0.9-0.8
		c0-0.3,0.3-0.6,0.6-0.6c0.6,0,1,0.4,1.3,0.8c0.2,0.3,0.4,0.6,0.8,0.6c0.3,0,0.6-0.3,0.6-0.8c0-0.7-0.5-1.7-1.2-1.7
		c-0.3,0-0.4,0.2-0.6,0.2c-0.1,0-0.2,0-0.3-0.1c0,0-0.1,0-0.1-0.1v-0.7c0-0.3-0.1-0.5-0.5-0.5c-0.4,0-0.5,0.2-0.5,0.5v0.6
		c-1.4,0.1-2.4,1-2.4,2.4c0,1.5,1.2,2.2,2.6,2.7c0.5,0.2,0.9,0.4,0.9,0.8c0,0.3-0.2,0.6-0.6,0.6c-0.6,0-1.2-0.4-1.7-1.1
		c-0.2-0.2-0.4-0.5-0.7-0.5c-0.4,0-0.7,0.3-0.7,0.9c0,0.8,0.6,1.9,1.3,1.9c0.4,0,0.4-0.2,0.6-0.2c0.1,0,0.2,0,0.4,0.1
		c0.1,0,0.1,0,0.2,0.1v0.8C34,24.2,34,24.4,34.5,24.4z"/>
</g>
<g>
	<path class="st4" d="M67.2,57.2l-9.3,3.4c0,0-1.1-2.1,0.8-3.8c0,0-4.9-1.7-8.7,0c-3.8,1.7-6,3.7-8.9,9.1L40,56.8
		c0,0,5.1-8.9,15.5-6.6l3.7,1.2c0,0-0.9-2.6,0.9-3.7L67.2,57.2L67.2,57.2z"/>
</g>
<g>
	<path class="st4" d="M59.2,51.4c0,0-12.1-5.9-19.2,5.4l1.1,9.2c0,0,5.3-13.4,17.6-9.2"/>
</g>
<g>
	<path class="st3" d="M41.1,66.6C41,66.6,41,66.6,41.1,66.6c-0.3,0-0.5-0.2-0.5-0.4l-1.1-9.2c0-0.1,0-0.2,0.1-0.3
		C46.8,45,59.3,50.9,59.4,51c0.2,0.1,0.4,0.4,0.2,0.7c-0.1,0.2-0.4,0.4-0.7,0.2c-0.5-0.2-11.6-5.5-18.4,5.1l0.8,7.4
		c1.9-3.5,7.5-11.3,17.5-7.9c0.3,0.1,0.4,0.4,0.3,0.6c-0.1,0.3-0.4,0.4-0.6,0.3c-4.9-1.7-9.3-0.7-12.9,2.9c-2.8,2.7-4.1,6-4.1,6
		C41.4,66.4,41.3,66.6,41.1,66.6z"/>
</g>
<g>
	<path class="st4" d="M58.7,56.9c0,0-1.9,1.5-0.8,3.8L58.7,56.9z"/>
</g>
<g>
	<path class="st3" d="M57.9,61.2c-0.2,0-0.4-0.1-0.5-0.3c-1-2.1,0.2-3.8,1-4.4c0.2-0.2,0.5-0.1,0.7,0.1c0.2,0.2,0.1,0.5-0.1,0.7
		c-0.1,0.1-1.6,1.3-0.7,3.2c0.1,0.2,0,0.5-0.2,0.7C58,61.2,58,61.2,57.9,61.2z"/>
</g>
<g>
	<path class="st4" d="M60.1,47.6c0,0-1.9,1.3-0.8,3.8L60.1,47.6z"/>
</g>
<g>
	<path class="st3" d="M59.3,52c-0.2,0-0.4-0.1-0.5-0.3c-1-2.3,0.2-3.9,1-4.4c0.2-0.2,0.5-0.1,0.7,0.1c0.2,0.2,0.1,0.5-0.1,0.7
		c-0.1,0.1-1.6,1.1-0.6,3.2c0.1,0.3,0,0.5-0.3,0.7C59.4,51.9,59.3,52,59.3,52z"/>
</g>
<g>
	<path class="st4" d="M57.9,60.7l9.6-3.5l-7.3-9.6"/>
</g>
<g>
	<path class="st3" d="M57.9,61.2c-0.2,0-0.4-0.1-0.5-0.3c-0.1-0.3,0-0.5,0.3-0.6l8.9-3.3l-6.9-9c-0.2-0.2-0.1-0.5,0.1-0.7
		c0.2-0.2,0.5-0.1,0.7,0.1l7.3,9.6c0.1,0.1,0.1,0.3,0.1,0.4c0,0.2-0.2,0.3-0.3,0.3l-9.6,3.5C58,61.2,57.9,61.2,57.9,61.2z"/>
</g>
</svg>
