<svg xmlns="http://www.w3.org/2000/svg" id="Layer_1" viewBox="0 0 68 68"><defs><style>.st0{fill:#d18000}.st1{fill:#03d47c}.st2{fill:none;stroke:#002140;stroke-linecap:round;stroke-linejoin:round;stroke-width:1px}</style></defs><path d="M31.829 24.751s1.553 13.854-.39 18.388c-1.943 4.531-4.921 14.244-4.792 15.278 0 0 1.167 4.016 7.641 3.368s6.474-2.72 6.474-2.72 1.424-26.544-.905-34.572c0 0-2.978-1.034-4.531-.777-1.553.258-3.496 1.034-3.496 1.034Z" class="st0"/><path d="M33.644 8.821s-4.273-2.849-10.618-1.034S11.502 19.83 10.983 21.641c0 0 10.618-2.201 13.725-1.943 0 0-6.474 7.251-5.955 14.892 0 0 8.933-10.747 17.35-11.134 8.417-.39 17.479 11.914 17.479 11.914s-.519-10.876-5.569-15.539l9.194 2.33S52.676 8.955 40.762 7.269c0 0-3.497-.519-7.122 1.553z" class="st1"/><path d="M31.56 24.93c2.158 24.948-4.23 25.12-4.921 33.147" class="st2"/><path d="M31.303 15.088s-12.691 4.921-12.691 20.718c0 0 6.217-11.395 17.608-12.172m4.924-8.546s12.691 4.921 12.691 20.718c0 0-6.217-11.395-17.608-12.172" class="st2"/><path d="M26.643 58.077s.172 3.711 6.56 3.711 7.423-2.416 7.423-2.416c2.33-13.206-.519-34.7-.519-34.7M33.894 8.786C27.506 4.813 16.63 6.714 10.589 22.253c0 0 7.598-2.935 14.33-2.763m9.147-10.704c8.632-5.44 19.387 3.383 23.305 13.467 0 0-4.273-1.651-9.249-2.404m-13.729-6.377a7.37 7.37 0 0 1 2.623 4.983" class="st2"/><path d="M28.454 53.157s4.488 3.368 12.777 0m-10.357-6.822s4.66 2.072 10.533 0m-9.293-8.004c1.877.429 5.085.761 8.769-.542m-8.82-8.632c1.924.336 4.8.456 8.043-.687" class="st2"/></svg>