<?xml version="1.0" encoding="utf-8"?>
<!-- Generator: Adobe Illustrator 26.5.0, SVG Export Plug-In . SVG Version: 6.00 Build 0)  -->
<svg version="1.1" id="Layer_1" xmlns="http://www.w3.org/2000/svg" xmlns:xlink="http://www.w3.org/1999/xlink" x="0px" y="0px"
	 viewBox="0 0 68 68" style="enable-background:new 0 0 68 68;" xml:space="preserve">
<style type="text/css">
	.st0{fill:#03D47C;}
	.st1{fill:#002140;}
	.st2{fill:#FFFAF0;}
	.st3{fill:#FED607;}
</style>
<g>
	<path class="st0" d="M5.9,59.5h56.5L34,9.8L5.9,59.5z"/>
</g>
<g>
	<path class="st1" d="M27.3,53.8c0,0,2.3,3.1,7.1,3c4.8-0.1,6.8-3.2,6.8-3.2L27.3,53.8L27.3,53.8z"/>
</g>
<g>
	<path class="st2" d="M22.5,29.4c0,0,0.3,8.7,11.5,8.7c11.2,0,10-9.3,10-9.3s-4.5-4-10.6-4.2C27.4,24.5,22.5,29.4,22.5,29.4
		L22.5,29.4z"/>
</g>
<g>
	<path class="st2" d="M43.5,49.2H25.6l1.3,4h15.4L43.5,49.2z"/>
</g>
<g>
	<path class="st1" d="M62.7,59.9H6c-0.2,0-0.3-0.1-0.4-0.2c-0.1-0.2-0.1-0.3,0-0.5L33.5,9.3c0.1-0.2,0.3-0.3,0.4-0.3c0,0,0,0,0,0
		c0.2,0,0.3,0.1,0.4,0.3l28.7,49.8c0.1,0.2,0.1,0.3,0,0.5C63,59.8,62.8,59.9,62.7,59.9z M6.9,58.9h54.9L34,10.6L6.9,58.9z"/>
</g>
<g>
	<path class="st1" d="M23,29.6c-0.1,0-0.3-0.1-0.4-0.2c-0.2-0.2-0.2-0.5,0-0.7c5.5-5.2,11.2-5,15.1-3.8c4.1,1.2,7,3.7,7.1,3.8
		c0.2,0.2,0.2,0.5,0,0.7c-0.2,0.2-0.5,0.2-0.7,0c0,0-2.8-2.4-6.7-3.6c-5.2-1.5-9.9-0.3-14,3.6C23.3,29.5,23.2,29.6,23,29.6z"/>
</g>
<g>
	<path class="st1" d="M34,38.3c-11.6,0-11.7-8.5-11.7-8.5c0-0.3,0.2-0.5,0.5-0.5c0,0,0,0,0,0c0.3,0,0.5,0.2,0.5,0.5
		c0,0.3,0.2,7.5,10.7,7.5c3.5,0,6.1-0.9,7.8-2.8c2.3-2.6,2-6.1,2-6.1c0-0.3,0.2-0.5,0.4-0.5c0.3,0,0.5,0.2,0.5,0.4
		c0,0.2,0.4,4-2.2,6.9C40.6,37.3,37.8,38.3,34,38.3z"/>
</g>
<g>
	<path class="st1" d="M35,31.6l3-2.6c-0.8-1.5-2.3-2.5-4.1-2.5c-2.5,0-4.6,2.1-4.6,4.6c0,2.5,2.1,4.6,4.6,4.6c2.2,0,4-1.5,4.4-3.5
		L35,31.6L35,31.6z"/>
</g>
<g>
	<path class="st1" d="M54.2,45.8h-40c-0.3,0-0.5-0.2-0.5-0.5s0.2-0.5,0.5-0.5h40c0.3,0,0.5,0.2,0.5,0.5S54.5,45.8,54.2,45.8z"/>
</g>
<g>
	<path class="st1" d="M40.9,22.2H27.5c-0.3,0-0.5-0.2-0.5-0.5s0.2-0.5,0.5-0.5h13.4c0.3,0,0.5,0.2,0.5,0.5S41.2,22.2,40.9,22.2z"/>
</g>
<g>
	<path class="st1" d="M26.4,45.7c-0.1,0-0.1,0-0.2,0c-0.3-0.1-0.4-0.4-0.3-0.6l2.6-7.5c0.1-0.3,0.4-0.4,0.6-0.3
		c0.3,0.1,0.4,0.4,0.3,0.6l-2.6,7.5C26.8,45.5,26.6,45.7,26.4,45.7z"/>
</g>
<g>
	<path class="st1" d="M42.2,45.7c-0.2,0-0.4-0.1-0.5-0.3l-3.2-8.2c-0.1-0.3,0-0.5,0.3-0.6c0.3-0.1,0.5,0,0.6,0.3l3.2,8.2
		c0.1,0.3,0,0.5-0.3,0.6C42.4,45.7,42.3,45.7,42.2,45.7z"/>
</g>
<g>
	<path class="st1" d="M34.2,57.2c-9,0-9.5-7.8-9.5-7.9c0-0.1,0-0.3,0.1-0.4c0.1-0.1,0.2-0.2,0.4-0.2h18.1c0.1,0,0.3,0.1,0.4,0.2
		c0.1,0.1,0.1,0.2,0.1,0.4C43.9,49.3,43.2,57.2,34.2,57.2z M25.8,49.7c0.3,1.6,1.6,6.4,8.4,6.4c6.8,0,8.3-4.8,8.6-6.4H25.8z
		 M43.4,49.7L43.4,49.7L43.4,49.7z"/>
</g>
<g>
	<path class="st1" d="M34.3,59.7c-0.3,0-0.5-0.2-0.5-0.5V57c0-0.3,0.2-0.5,0.5-0.5s0.5,0.2,0.5,0.5v2.2
		C34.8,59.5,34.6,59.7,34.3,59.7z"/>
</g>
<g>
	<path class="st1" d="M34.3,49.7c-0.3,0-0.5-0.2-0.5-0.5v-3.5c0-0.3,0.2-0.5,0.5-0.5s0.5,0.2,0.5,0.5v3.5
		C34.8,49.5,34.6,49.7,34.3,49.7z"/>
</g>
<g>
	<path class="st1" d="M41.2,54.2H27.3c-0.3,0-0.5-0.2-0.5-0.5s0.2-0.5,0.5-0.5h13.9c0.3,0,0.5,0.2,0.5,0.5S41.5,54.2,41.2,54.2z"/>
</g>
<g>
	<path class="st1" d="M31.1,54c-0.3,0-0.5-0.2-0.5-0.5v-4c0-0.3,0.2-0.5,0.5-0.5s0.5,0.2,0.5,0.5v4C31.6,53.7,31.3,54,31.1,54z"/>
</g>
<g>
	<path class="st1" d="M38.2,54c-0.3,0-0.5-0.2-0.5-0.5v-4c0-0.3,0.2-0.5,0.5-0.5s0.5,0.2,0.5,0.5v4C38.7,53.7,38.5,54,38.2,54z"/>
</g>
<g>
	<path class="st3" d="M60.1,28c0,0-2.2,5.2-5.6,5.5c0,0,4.9,2.2,5.4,5.4c0,0,2-4.6,5.8-5.2C65.6,33.7,60.4,32.5,60.1,28L60.1,28z"/>
</g>
<g>
	<path class="st1" d="M59.9,40.1c-0.2,0-0.4-0.2-0.5-0.4c-1-3.9-1.8-4.6-5.6-5.6c-0.2-0.1-0.4-0.3-0.4-0.5s0.2-0.4,0.4-0.5
		c3.9-1,4.6-1.8,5.6-5.6c0.1-0.4,0.8-0.4,1,0c1,3.9,1.8,4.6,5.6,5.6c0.2,0.1,0.4,0.3,0.4,0.5S66.3,34,66,34.1
		c-3.9,1-4.6,1.8-5.6,5.6C60.3,40,60.1,40.1,59.9,40.1z M55.7,33.6c2.4,0.8,3.4,1.8,4.2,4.2c0.8-2.4,1.8-3.4,4.2-4.2
		c-2.4-0.8-3.4-1.8-4.2-4.2C59.1,31.8,58.1,32.8,55.7,33.6z"/>
</g>
<g>
	<path class="st3" d="M9.5,27.7c0,0-2.2,5.2-5.6,5.5c0,0,4.9,2.2,5.4,5.4c0,0,2-4.6,5.8-5.2C15,33.3,9.8,32.2,9.5,27.7L9.5,27.7z"/>
</g>
<g>
	<path class="st1" d="M9,40.1c-0.2,0-0.4-0.2-0.5-0.4c-1-3.9-1.8-4.6-5.6-5.6c-0.2-0.1-0.4-0.3-0.4-0.5s0.2-0.4,0.4-0.5
		c3.9-1,4.6-1.8,5.6-5.6c0.1-0.4,0.9-0.4,1,0c1,3.9,1.8,4.6,5.6,5.6c0.2,0.1,0.4,0.3,0.4,0.5s-0.2,0.4-0.4,0.5
		c-3.9,1-4.6,1.8-5.6,5.6C9.4,40,9.2,40.1,9,40.1z M4.8,33.6c2.4,0.8,3.4,1.8,4.2,4.2c0.8-2.4,1.8-3.4,4.2-4.2
		c-2.4-0.8-3.4-1.8-4.2-4.2C8.2,31.8,7.2,32.8,4.8,33.6z"/>
</g>
</svg>
