<svg xmlns="http://www.w3.org/2000/svg" width="48" height="48" fill="none" viewBox="0 0 48 48"><path fill="#002140" d="m41.486 15.9 2.68 1.241c-.33 1.983-1.038 3.585-2.26 5.107h-2.099c1.222-1.522 1.931-3.124 2.26-5.107l-2.68-1.242a8 8 0 0 0-.026-1.757c-.088-.737-.208-1.303-.464-1.966l2.415-1.565c-.786-1.898-1.834-3.272-3.415-4.487h2.098c1.582 1.215 2.633 2.589 3.415 4.487l-2.414 1.565c.252.663.376 1.229.463 1.966.07.623.084 1.158.027 1.757"/><path fill="#e4bc07" d="M24.076 9.534c.826-1.02 1.592-1.703 2.814-2.269l-.323-2.757-.01-.077c.83-.337 1.599-.566 2.495-.697q.166-.026.336-.047a11 11 0 0 1 2.73.027l.332 2.848c1.296.239 2.223.683 3.26 1.444l.86-.74 1.323-1.142c1.582 1.215 2.633 2.589 3.415 4.487l-2.414 1.565c.252.663.376 1.229.463 1.966.07.623.084 1.158.027 1.757l2.68 1.242c-.33 1.983-1.038 3.585-2.26 5.107l-1.162-.616-1.383-.73c-.766.912-1.794 1.629-2.888 2.167l.342 2.919c-.863.33-1.695.525-2.656.636-.698.08-1.343.094-1.99.047-.055 0-.105-.007-.155-.01q-.12-.01-.242-.024l-.175-.017q-.181-.02-.359-.047l-.339-2.895c-1-.245-1.924-.612-2.76-1.158a9 9 0 0 1-.564-.407l-2.072 1.95c-1.41-1.22-2.642-2.734-3.337-4.528l1.356-.96 1.027-.727c-.201-.585-.288-1.033-.362-1.673-.08-.7-.094-1.245-.014-1.915l-2.73-.895c.3-1.764 1.149-3.71 2.17-5.12l2.562 1.299zm7.444 12.428c3.75-.441 6.437-3.844 5.997-7.604S33.68 7.905 29.93 8.346c-3.751.437-6.437 3.844-5.997 7.604s3.838 6.453 7.588 6.012"/><path fill="#002140" d="m37.262 20.901 1.383.73c-.641.576-1.39 1.051-2.172 1.435l.342 2.918c-1.111.643-3.367.795-5.22.758a24 24 0 0 1-1.522-.074 10.5 10.5 0 0 0 1.991-.047c.96-.112 1.793-.307 2.656-.637l-.342-2.918c1.09-.535 2.118-1.252 2.887-2.168z"/><path fill="#e4bc07" d="M32.078 17.727a2.91 2.91 0 0 0 1.504-3.056 2.89 2.89 0 0 0-3.341-2.377 2.9 2.9 0 0 0-2.37 3.353 2.897 2.897 0 0 0 4.207 2.083zm5.44-3.366c.439 3.76-2.25 7.166-5.998 7.604-3.75.441-7.148-2.252-7.588-6.012s2.25-7.166 5.997-7.604c3.75-.44 7.148 2.252 7.588 6.012"/><path fill="#002140" d="m36.523 7.208.05.06-.859.744c-1.037-.76-1.964-1.208-3.26-1.447l-.333-2.848a11 11 0 0 0-2.73-.027q-.173.019-.335.047c1.403-.256 3.401-.323 5.177.091l.32 2.737a7.3 7.3 0 0 1 1.974.643zm-4.442 5.379a2.915 2.915 0 0 0 0 5.14 2.897 2.897 0 0 1-4.207-2.084 2.903 2.903 0 0 1 2.37-3.352 2.9 2.9 0 0 1 1.844.296zm-2.582 14.027.174.017c.078.01.162.016.242.023.05.003.104.01.155.01.44.037.963.064 1.52.074v.047c.185.475.219.546.38 1.105l-2.914 1.437c.198.777.261 1.427.261 2.269a9 9 0 0 1-.198 1.972l2.844 1.747c-.628 2.182-1.887 4.11-3.458 5.659H26.02c1.572-1.552 2.576-3.252 3.204-5.43l-2.845-1.747a9 9 0 0 0 .198-1.972c0-.842-.063-1.492-.261-2.27l2.914-1.433c-.631-2.232-1.628-3.912-3.243-5.48l.053-.128c.836.545 1.76.912 2.76 1.158l.34 2.895q.181.026.359.047"/><path fill="#8dc8ff" d="m23.29 24.47 2.697-1.825c1.615 1.572 2.612 3.248 3.243 5.48l-2.914 1.434c.198.781.262 1.427.262 2.269 0 .707-.054 1.31-.198 1.973l2.844 1.746c-.628 2.182-1.632 3.882-3.204 5.43l-1.413-.976-1.266-.872c-.98.926-2.226 1.592-3.523 2.053v3.316a12.2 12.2 0 0 1-3.058.364 12.2 12.2 0 0 1-3.274-.445v-3.292a10.4 10.4 0 0 1-2.398-1.239 8.5 8.5 0 0 1-1.125-.949L7.385 40.85c-1.427-1.552-2.606-3.41-3.15-5.517l2.898-1.579c-.148-.683-.188-1.195-.188-1.925 0-.794.057-1.407.235-2.148l-2.945-1.363c.568-1.939 1.773-4.01 3.1-5.46l2.699 1.794c.446-.437.873-.81 1.33-1.127a7.9 7.9 0 0 1 2.122-1.05v-3.222c1.094-.3 2.085-.458 3.274-.458 1.09 0 2.048.135 3.058.387v3.238c1.424.438 2.405 1.058 3.469 2.047zm1.196 7.361c0-4.275-3.459-7.742-7.723-7.742S9.04 27.556 9.04 31.831s3.459 7.743 7.723 7.743 7.723-3.468 7.723-7.743"/><path fill="#002140" d="m23.405 24.056 2.071-1.95q.278.217.564.408l-.053.128-2.697 1.824c-1.064-.99-2.045-1.609-3.468-2.046v-3.24a12.2 12.2 0 0 0-3.06-.387c-1.188 0-2.178.162-3.273.458 1.487-.764 5.554-1 7.934-.683l-1.356.96c.695 1.793 1.924 3.308 3.337 4.523zm1.205 15.945a11 11 0 0 1-2.048.95v3.318c-1.091.36-4.762.66-5.8.593 1.089 0 2.05-.111 3.06-.364v-3.315c1.296-.462 2.542-1.128 3.522-2.054z"/><path fill="#8dc8ff" d="M16.763 24.086c4.264 0 7.723 3.467 7.723 7.742s-3.459 7.742-7.723 7.742c-4.265 0-7.723-3.467-7.723-7.742s3.459-7.742 7.723-7.742m3.27 7.742c0-1.259-.705-2.35-1.742-2.902a3.26 3.26 0 0 0-1.532-.38 3.28 3.28 0 0 0-3.273 3.282 3.28 3.28 0 0 0 3.273 3.282 3.26 3.26 0 0 0 1.532-.38 3.28 3.28 0 0 0 1.742-2.902"/><path fill="#002140" d="M18.29 28.93a3.28 3.28 0 0 0-1.742 2.901 3.28 3.28 0 0 0 1.743 2.902 3.26 3.26 0 0 1-1.531.38 3.28 3.28 0 0 1-3.274-3.282 3.28 3.28 0 0 1 3.274-3.282c.554 0 1.074.138 1.53.38m-6.973-5.476.05.07c-.453.317-.883.69-1.33 1.128l-2.7-1.794 2.73-.235 1.246.828zm-.225 16.434-.027.04-.944.7-2.73.222 2.58-1.912q.529.53 1.124.95z"/><path stroke="#002140" stroke-linecap="round" stroke-linejoin="round" d="M18.29 28.93a3.28 3.28 0 0 1 1.744 2.901c0 1.26-.706 2.35-1.743 2.902a3.26 3.26 0 0 1-1.531.38 3.28 3.28 0 0 1-3.274-3.282 3.28 3.28 0 0 1 3.274-3.282c.554 0 1.074.138 1.53.38"/><path stroke="#002140" stroke-linecap="round" stroke-linejoin="round" d="M18.29 34.73a3.28 3.28 0 0 1-1.742-2.902 3.28 3.28 0 0 1 1.743-2.902"/><path stroke="#002140" stroke-linecap="round" stroke-linejoin="round" d="M24.486 31.828c0 4.275-3.459 7.742-7.723 7.742-4.265 0-7.723-3.467-7.723-7.742s3.459-7.742 7.723-7.742 7.723 3.467 7.723 7.742M7.133 33.753c-.148-.683-.188-1.195-.188-1.925 0-.794.057-1.407.235-2.148m6.31 11.445a10.4 10.4 0 0 1-2.398-1.239 8.5 8.5 0 0 1-1.125-.949m13.377.193c-.98.925-2.226 1.591-3.522 2.052m6.494-11.622c.198.78.262 1.426.262 2.268 0 .707-.054 1.31-.198 1.972m-6.558-11.38c1.424.437 2.404 1.056 3.468 2.046m-13.253.185c.447-.437.873-.811 1.33-1.127a7.9 7.9 0 0 1 2.122-1.05m-9.25 5.843c.567-1.939 1.772-4.009 3.099-5.46m.047 17.989c-1.427-1.552-2.606-3.41-3.15-5.517m15.587 9.169a12.2 12.2 0 0 1-3.06.364c-1.168 0-2.192-.155-3.273-.445m15.738-8.869c-.628 2.18-1.632 3.88-3.203 5.43m-.037-18.333c1.615 1.572 2.612 3.248 3.243 5.48m-15.741-8.873c1.095-.3 2.085-.458 3.274-.458 1.091 0 2.048.135 3.059.387m0 3.239v-3.114m-6.333.037v3.13m0 18.652v3.292m6.333.081v-3.315m3.522-2.053 1.266.87 1.414.976m.359-7.172 2.844 1.743m-2.911-5.987 2.914-1.435m-5.946-3.652.006-.003 2.697-1.825m-18.649.213-.004-.004m2.706 1.801-.003-.004-2.696-1.794M7.18 29.68l-2.941-1.363m-.004 7.015 2.898-1.579m.255 7.093 2.579-1.912h.003m-2.592 1.919.007-.007m17.225-.842c-.645.384-1.336.7-2.048.95m6.494-11.624c.198.778.262 1.427.262 2.269 0 .707-.054 1.31-.199 1.973"/><path stroke="#002140" stroke-linecap="round" stroke-linejoin="round" d="M22.562 44.273c-1.091.36-4.762.66-5.8.592m15.205-9.543c-.628 2.181-1.887 4.11-3.459 5.658m3.086-14.191c.185.474.218.545.38 1.104m-18.485-8.641c1.487-.764 5.554-1 7.934-.683m1.139 25.704v-3.32m6.561-7.381 2.844 1.75m-2.911-5.992 2.914-1.437m-20.653-4.44-1.246-.828m.05 17.999.944-.7m-3.68.922h.003l2.733-.222M7.338 22.857h.003l2.73-.232m15.953 18.352h2.484m3.573-28.39a2.9 2.9 0 0 1 1.498 2.08 2.903 2.903 0 0 1-2.371 3.35 2.897 2.897 0 0 1-3.341-2.377 2.903 2.903 0 0 1 2.37-3.353 2.9 2.9 0 0 1 1.844.297z"/><path stroke="#002140" stroke-linecap="round" stroke-linejoin="round" d="M32.081 17.727a2.9 2.9 0 0 1-1.541-2.568c0-1.118.624-2.08 1.541-2.569"/><path stroke="#002140" stroke-linecap="round" stroke-linejoin="round" d="M37.517 14.358c.44 3.76-2.25 7.166-5.997 7.604-3.75.44-7.148-2.252-7.588-6.012s2.25-7.167 5.997-7.604c3.75-.441 7.148 2.252 7.588 6.012m-15.066 3.484c-.201-.586-.289-1.034-.363-1.673-.08-.7-.094-1.246-.013-1.916m6.725 9.419c-1-.246-1.924-.613-2.76-1.158a9 9 0 0 1-.564-.408m11.786-1.205c-.766.913-1.793 1.63-2.888 2.168m4.523-10.893c.252.663.376 1.229.464 1.966a8 8 0 0 1 .027 1.757M32.45 6.562c1.296.239 2.223.683 3.26 1.444M24.076 9.534c.826-1.02 1.592-1.703 2.814-2.269m-7.542 6.093c.3-1.764 1.149-3.71 2.17-5.12m1.887 15.818c-1.41-1.216-2.643-2.734-3.338-4.525m9.432 7.083a12 12 0 0 1-.36-.047m.776.091q-.12-.01-.241-.024m5.043-.65c-.863.33-1.696.525-2.656.636a10.5 10.5 0 0 1-1.991.048m12-9.527c-.329 1.983-1.037 3.585-2.26 5.107M37.897 6.124c1.581 1.215 2.632 2.589 3.415 4.487M26.558 4.43a10.4 10.4 0 0 1 2.494-.696q.166-.026.336-.047a11 11 0 0 1 2.73.027m.332 2.848-.332-2.848m-5.554.794.323 2.757M28.8 23.672l.34 2.895m5.577-.583-.34-2.918m2.885-2.165 1.383.73 1.162.617M39.39 15.9l2.68 1.241m-3.173-4.965 2.414-1.565"/><path stroke="#002140" stroke-linecap="round" stroke-linejoin="round" d="M38.645 21.632c-.641.575-1.39 1.05-2.172 1.434m4.523-10.89c.252.663.376 1.229.463 1.966.07.623.084 1.158.027 1.757M34.55 6.562a7.3 7.3 0 0 1 1.973.642m7.646 9.937c-.33 1.983-1.038 3.585-2.26 5.107M39.995 6.124c1.582 1.215 2.633 2.589 3.415 4.487m-8.861-4.049-.319-2.737m2.585 22.159-.342-2.918m5.013-7.166 2.683 1.241m-3.173-4.965 2.414-1.565m-7.702-2.599.006-.003.86-.744 1.323-1.141M24.08 9.537l-.004-.003-2.562-1.3-.003-.003m.567 6.022-2.73-.895m.719 6.17 1.356-.96h.004l1.024-.726m.947 6.22.007-.007 2.071-1.948.004-.004m8.75-18.278c-1.78-.41-3.774-.347-5.178-.091m7.763 22.25c-1.111.643-3.367.795-5.22.758a24 24 0 0 1-1.522-.074c-.054 0-.104-.007-.154-.01q-.126-.014-.242-.024l-.175-.017c-.04-.007-.084-.01-.12-.017m12.528-4.352h-2.1M37.897 6.124h2.098"/></svg>