<?xml version="1.0" encoding="utf-8"?>
<!-- Generator: Adobe Illustrator 28.1.0, SVG Export Plug-In . SVG Version: 6.00 Build 0)  -->
<svg version="1.1" id="Layer_1" xmlns="http://www.w3.org/2000/svg" xmlns:xlink="http://www.w3.org/1999/xlink" x="0px" y="0px"
	 viewBox="0 0 68 68" style="enable-background:new 0 0 68 68;" xml:space="preserve">
<style type="text/css">
	.st0{fill:#28736D;stroke:#002140;stroke-linecap:round;stroke-linejoin:round;}
	.st1{fill:#4ED7DE;stroke:#002140;stroke-linecap:round;stroke-linejoin:round;}
	.st2{fill:#4BA6A6;stroke:#002140;stroke-linecap:round;stroke-linejoin:round;}
	.st3{fill:#50EEF6;stroke:#002140;stroke-linecap:round;stroke-linejoin:round;}
</style>
<path class="st0" d="M34.14,59.879c2.546-4.389,4.742-5.08,10.928-7.472c9.438-3.652,11.615-10.851,6.523-20.565
	c-2.949-7.783,4.607-12.406,4.607-12.406L44.104,8.405c0,0-1.363,3.997-4.742,4.151c-4.085,0.188-5.36-3.202-5.36-3.202h-0.05
	c0,0-0.944,3.321-5.034,3.321c-3.026,0-5.084-3.974-5.084-3.974L12.012,19.436c0,0,7.215,4.98,4.266,12.406
	c-4.396,9.994-3.578,16.146,6.546,20.6c5.153,2.265,9.05,3.049,11.25,7.46L34.14,59.879z"/>
<path class="st1" d="M34.121,53.052c1.632-2.569,4.404-3.033,8.324-4.765c7.702-3.41,8.324-8.121,4.98-15.773
	c-2.488-6.646,2.88-10.874,2.88-10.874l-7.311-6.846c0,0-1.321,2.569-4.435,2.569c-3.11,0-4.492-1.762-4.492-1.762h-0.038
	c0,0-1.34,1.912-4.454,1.912s-4.569-2.718-4.569-2.718l-7.311,6.846c0,0,5.368,4.227,2.88,10.874
	c-3.344,7.652-2.722,12.363,4.98,15.773c3.916,1.735,6.827,2.549,8.559,4.834l0.019-0.065L34.121,53.052z"/>
<path class="st2" d="M34.121,53.052c1.632-2.569,4.404-3.033,8.324-4.765c7.702-3.41,8.324-8.121,4.98-15.773
	c-2.488-6.646,2.88-10.874,2.88-10.874l-7.311-6.846c0,0-1.321,2.569-4.435,2.569c-3.11,0-4.492-1.762-4.492-1.762h-0.038
	c0,0,0.077,27.031,0.077,37.524l0.019-0.065L34.121,53.052z"/>
<path class="st3" d="M35.491,23.218l2.223,4.504c0.188,0.376,0.549,0.641,0.964,0.703l4.968,0.722
	c1.052,0.154,1.471,1.444,0.71,2.185l-3.598,3.506c-0.303,0.296-0.442,0.718-0.369,1.133l0.849,4.949
	c0.18,1.048-0.918,1.843-1.858,1.352l-4.446-2.338c-0.372-0.196-0.818-0.196-1.194,0l-4.446,2.338
	c-0.941,0.495-2.039-0.303-1.858-1.352l0.848-4.949c0.073-0.415-0.065-0.841-0.369-1.133l-3.598-3.506
	c-0.76-0.741-0.342-2.031,0.71-2.185l4.969-0.722c0.419-0.061,0.779-0.323,0.964-0.703l2.223-4.504c0.468-0.952,1.828-0.952,2.296,0
	H35.491z"/>
</svg>
