<?xml version="1.0" encoding="UTF-8"?>
<svg id="Layer_1" xmlns="http://www.w3.org/2000/svg" version="1.1" viewBox="0 0 68 68">
  <!-- Generator: Adobe Illustrator 30.5.1, SVG Export Plug-In . SVG Version: 2.1.4 Build 3)  -->
  <defs>
    <style>
      .st0 {
        fill: #ff7101;
        stroke-linejoin: round;
      }

      .st0, .st1, .st2 {
        stroke: #002140;
      }

      .st1 {
        fill: #fffaf0;
      }

      .st2 {
        fill: #ffed8f;
      }
    </style>
  </defs>
  <path class="st0" d="M55.29,41.89c-12.12-5.9-24.25,5.9-36.37,0v-24.58c12.12,5.9,24.25-5.9,36.37,0v24.58Z"/>
  <path class="st1" d="M18,16h-2c-.552,0-1,.47-1,1.05v39.9c0,.58.448,1.05,1,1.05h2c.552,0,1-.47,1-1.05V17.05c0-.58-.448-1.05-1-1.05Z"/>
  <path class="st2" d="M17,18c2.209,0,4-1.791,4-4s-1.791-4-4-4-4,1.791-4,4,1.791,4,4,4Z"/>
</svg>