<svg xmlns="http://www.w3.org/2000/svg" id="Layer_1" viewBox="0 0 68 68"><defs><style>.st0{fill:#cf4cd9}.st1{fill:none;stroke:#002140;stroke-linecap:round;stroke-linejoin:round}.st2{fill:#e96df2}</style></defs><path d="M61.193 39.317c0 2.367-1.473 4.393-3.571 5.238v8.283A1.17 1.17 0 0 1 56.441 54h-5.576a1.17 1.17 0 0 1-1.181-1.162v-5.45h.039a1.05 1.05 0 0 0 1.059-1.042v-3.495c0-.351-.176-.663-.449-.855l-.029-.019-.624-.403v-2.261c0-3.131 2.576-5.661 5.752-5.661a5.8 5.8 0 0 1 3.103.893 5.63 5.63 0 0 1 2.649 4.768l.01.005Zm-4.117-.129c0-.783-.644-1.417-1.439-1.417s-1.439.634-1.439 1.417.644 1.416 1.439 1.416 1.439-.634 1.439-1.416" class="st2"/><path d="M55.637 40.604c.795 0 1.439-.634 1.439-1.417s-.644-1.416-1.439-1.416-1.439.634-1.439 1.416.644 1.417 1.439 1.417m-2.981-9.502c.893.48 5.454 2.866 5.879 3.447a5.76 5.76 0 0 0-3.103-.893c-3.176 0-5.752 2.535-5.752 5.661v2.262l-6.342-4.11.024-.038c-.502-2.185.337-4.912 2.308-6.28.956-.663 2.103-.96 3.259-.97a7.8 7.8 0 0 1 3.722.917l.005.005Z" class="st0"/><path d="M50.784 42.851v3.495a1.05 1.05 0 0 1-1.059 1.042H29.933v-5.579h19.792c.215 0 .415.062.581.168l.029.019c.273.187.449.499.449.855" class="st2"/><path d="m49.685 41.578.625.403a1.1 1.1 0 0 0-.58-.168H29.938v-2.492c0-.663-.117-1.296-.327-1.887h13.674l.059.038 6.342 4.11v-.005Z" class="st2"/><path d="M48.212 17.336c2.712 2.65 2.073 5.618 1.566 7.649-.844 3.39-.844 5.195-.844 5.195-1.161.014-2.307.312-3.259.975-1.976 1.368-2.815 4.101-2.307 6.28l-.024.038-.059-.038H29.611a5.7 5.7 0 0 0-2.99-3.241l-4.747-2.9c-.785-.475-1.722-.773-2.688-.869v-.029s.22-2.098-.624-5.493c-.507-2.031-1.317-4.782 1.395-7.438.717-.701 2.098-2.012 5.547-2.012H42.72c2.395 0 3.776.571 4.63 1.157.005 0 .005.005.005.005.371.254.644.509.864.725l-.005-.005Zm1.474 30.096v5.786H29.938l-.059-.019c.039-.115.059-.23.059-.36v-5.45h19.748z" class="st2"/><path d="M42.709 15.449H25.493c-3.449 0-4.825 1.306-5.547 2.012-2.712 2.65-1.903 5.406-1.395 7.438.844 3.39.629 5.493.629 5.493v.029c-2.161-.221-4.473.509-5.654 2.286l-.049-.034s.215-3.308-.059-6.228c-.166-1.796-1.815-4.173-1.551-7.265.263-3.092 2.449-4.888 4.756-5.618 1.781-.562 4.439-.639 4.439-.639l15.172-.125s3.951.096 5.654.73c3.146 1.167 5.317 2.972 5.449 3.083-.859-.586-2.234-1.157-4.63-1.157v-.005Z" class="st0"/><path d="M29.606 37.43c.215.591.327 1.224.327 1.887v13.521q0 .188-.059.36c-.151.466-.6.802-1.122.802h-5.576c-.229 0-.444-.062-.624-.178a1.15 1.15 0 0 1-.556-.984v-8.282a6 6 0 0 1-1.351-.773c-1.351-1.037-2.22-2.65-2.22-4.465 0-3.131 2.576-5.661 5.752-5.661.873 0 1.698.192 2.434.533a5.7 5.7 0 0 1 2.99 3.246zm-3.961 1.848c0-.783-.644-1.416-1.439-1.416s-1.439.634-1.439 1.416.644 1.417 1.439 1.417 1.439-.634 1.439-1.417" class="st2"/><path d="m21.869 31.284 4.747 2.9a5.8 5.8 0 0 0-2.434-.533c-3.181 0-5.752 2.535-5.752 5.661 0 1.815.868 3.433 2.22 4.465l-5.308-3.193a5.65 5.65 0 0 1-1.81-1.753 5.59 5.59 0 0 1-.059-6.045c.019-.034.039-.062.063-.096 1.176-1.777 3.493-2.511 5.649-2.286.966.101 1.903.394 2.688.869l-.005.01Z" class="st0"/><path d="M24.206 37.857c.795 0 1.439.634 1.439 1.417s-.644 1.416-1.439 1.416-1.439-.634-1.439-1.416.644-1.417 1.439-1.417m-1.654 15.965-.034.053-7.888-4.494a2.21 2.21 0 0 1-1.107-1.935v-8.604a5.7 5.7 0 0 0 1.81 1.752l5.308 3.193c.41.312.863.576 1.351.773v8.283c0 .418.225.783.556.984l.005-.005Z" class="st0"/><path d="M26.616 34.184a5.8 5.8 0 0 0-2.434-.533c-3.181 0-5.752 2.535-5.752 5.661 0 1.815.868 3.433 2.22 4.465.41.312.863.576 1.351.773v8.283c0 .418.224.783.556.984.181.115.395.178.624.178h5.576a1.177 1.177 0 0 0 1.181-1.162V39.312c0-.663-.117-1.296-.327-1.887a5.7 5.7 0 0 0-2.99-3.241" class="st1"/><path d="m26.615 34.184-4.747-2.9c-.785-.475-1.722-.773-2.688-.869-2.156-.221-4.473.509-5.649 2.285a5.58 5.58 0 0 0-.005 6.141 5.75 5.75 0 0 0 1.81 1.753l5.308 3.193" class="st1"/><path d="M25.645 39.279c0 .783-.644 1.417-1.439 1.417s-1.439-.634-1.439-1.417.644-1.416 1.439-1.416 1.439.634 1.439 1.416m32.894-4.73a5.63 5.63 0 0 1 2.649 4.768c0 2.367-1.473 4.393-3.571 5.238v8.283A1.17 1.17 0 0 1 56.436 54H50.86a1.17 1.17 0 0 1-1.181-1.162" class="st1"/><path d="M49.686 41.766v-2.449c0-3.131 2.576-5.661 5.752-5.661a5.8 5.8 0 0 1 3.103.893m-2.904 6.055c.795 0 1.439-.634 1.439-1.417s-.644-1.416-1.439-1.416-1.439.634-1.439 1.416.644 1.417 1.439 1.417m-42.115-1.762v8.604a2.23 2.23 0 0 0 1.107 1.935l7.888 4.494m27.818-11.879c.273.187.449.499.449.855v3.495a1.05 1.05 0 0 1-1.059 1.042H29.933m0-5.579h19.792c.215 0 .415.062.581.168" class="st1"/><path d="m50.334 41.996-.029-.014-.62-.403-6.347-4.11-.059-.038H29.605m.328 15.786h19.753v-5.829m-6.323-9.958c-.502-2.185.337-4.912 2.308-6.28.956-.663 2.103-.96 3.259-.97a7.8 7.8 0 0 1 3.722.917c.893.48 5.454 2.866 5.878 3.447m-39.349-4.158s.215-2.098-.629-5.493c-.507-2.031-1.317-4.782 1.395-7.438.717-.701 2.098-2.012 5.547-2.012h17.43" class="st1"/><path d="M47.344 16.606c-.859-.586-2.234-1.157-4.63-1.157m6.221 14.726s0-1.805.844-5.195c.507-2.031 1.146-4.993-1.566-7.649a6.6 6.6 0 0 0-.864-.725" class="st1"/><path d="M13.483 32.667s.215-3.308-.058-6.227c-.166-1.796-1.815-4.173-1.551-7.265.263-3.092 2.449-4.888 4.756-5.618 1.781-.562 4.439-.639 4.439-.639l15.172-.125s3.951.096 5.654.73c3.146 1.167 5.317 2.972 5.449 3.083.005 0 .005.005.005.005" class="st1"/></svg>