<svg width="48" height="48" viewBox="0 0 48 48" fill="none" xmlns="http://www.w3.org/2000/svg">
<path d="M7.73413 32.1856C7.73413 32.1856 9.64177 36.1038 22.6046 35.7011C35.5675 35.2984 37.0724 32.7882 37.0724 31.9827C37.0724 31.1773 31.1436 28.4672 23.3071 28.5671C15.4707 28.6671 8.03693 29.5724 7.73413 32.1826V32.1856Z" fill="#FED607"/>
<path d="M7.93384 32.8884V37.2094C7.93384 37.2094 13.36 40.1223 23.1041 40.1223C32.8482 40.1223 37.1692 37.0065 37.1692 37.0065V32.6855C37.1692 32.6855 32.6484 36.1011 22.6015 35.6984C12.5546 35.2957 9.14201 33.6908 7.93384 32.8884Z" fill="#D18000"/>
<path d="M22.5047 35.5324C30.6054 35.5324 37.1723 34.0031 37.1723 32.1168C37.1723 30.2304 30.6054 28.7012 22.5047 28.7012C14.404 28.7012 7.83704 30.2304 7.83704 32.1168C7.83704 34.0031 14.404 35.5324 22.5047 35.5324Z" stroke="#002140" stroke-width="0.857057" stroke-linecap="round" stroke-linejoin="round"/>
<path d="M7.83435 32.1152V36.6027C7.83435 38.4892 14.4021 40.0183 22.502 40.0183C30.6019 40.0183 37.1696 38.4892 37.1696 36.6027V32.1152" stroke="#002140" stroke-width="0.857057" stroke-linecap="round" stroke-linejoin="round"/>
<path d="M22.5711 33.1224C25.6783 33.1224 28.1971 32.6153 28.1971 31.9899C28.1971 31.3644 25.6783 30.8574 22.5711 30.8574C19.4639 30.8574 16.9451 31.3644 16.9451 31.9899C16.9451 32.6153 19.4639 33.1224 22.5711 33.1224Z" stroke="#D18000" stroke-width="0.857057" stroke-miterlimit="10"/>
<path d="M11.5527 25.2833C11.5527 25.2833 13.4604 29.2015 26.4232 28.7988C39.3861 28.3961 40.891 25.8858 40.891 25.0804C40.891 24.2749 34.9622 21.5649 27.1257 21.6648C19.2893 21.7647 11.8555 22.6701 11.5527 25.2802V25.2833Z" fill="#FED607"/>
<path d="M11.7522 25.99V30.311C11.7522 30.311 17.1784 33.2239 26.9225 33.2239C36.6666 33.2239 40.9875 30.1081 40.9875 30.1081V25.7871C40.9875 25.7871 36.4667 29.2027 26.4198 28.8C16.3729 28.3973 12.9573 26.7894 11.7522 25.987V25.99Z" fill="#D18000"/>
<path d="M26.3196 28.632C34.4203 28.632 40.9872 27.1027 40.9872 25.2164C40.9872 23.33 34.4203 21.8008 26.3196 21.8008C18.2189 21.8008 11.652 23.33 11.652 25.2164C11.652 27.1027 18.2189 28.632 26.3196 28.632Z" stroke="#002140" stroke-width="0.857057" stroke-linecap="round" stroke-linejoin="round"/>
<path d="M11.652 25.2188V29.7063C11.652 31.5927 18.2197 33.1218 26.3196 33.1218C34.4195 33.1218 40.9872 31.5927 40.9872 29.7063V25.2188" stroke="#002140" stroke-width="0.857057" stroke-linecap="round" stroke-linejoin="round"/>
<path d="M26.386 26.222C29.4932 26.222 32.0121 25.715 32.0121 25.0895C32.0121 24.4641 29.4932 23.957 26.386 23.957C23.2789 23.957 20.76 24.4641 20.76 25.0895C20.76 25.715 23.2789 26.222 26.386 26.222Z" stroke="#D18000" stroke-width="0.857057" stroke-miterlimit="10"/>
<path d="M7.56738 19.0157C7.56738 19.0157 9.47502 22.9339 22.4379 22.5312C35.4007 22.1285 36.9057 19.6183 36.9057 18.8128C36.9057 18.0074 30.9768 15.2973 23.1404 15.3972C15.3039 15.4971 7.87018 16.4025 7.56738 19.0127V19.0157Z" fill="#FED607"/>
<path d="M7.76697 19.7185V24.0395C7.76697 24.0395 13.1931 26.9524 22.9372 26.9524C32.6813 26.9524 37.0023 23.8366 37.0023 23.8366V19.5156C37.0023 19.5156 32.4815 22.9312 22.4346 22.5285C12.3877 22.1258 8.97211 20.524 7.76697 19.7185Z" fill="#D18000"/>
<path d="M22.3352 22.3644C30.4359 22.3644 37.0028 20.8352 37.0028 18.9488C37.0028 17.0624 30.4359 15.5332 22.3352 15.5332C14.2345 15.5332 7.6676 17.0624 7.6676 18.9488C7.6676 20.8352 14.2345 22.3644 22.3352 22.3644Z" stroke="#002140" stroke-width="0.857057" stroke-linecap="round" stroke-linejoin="round"/>
<path d="M7.6676 18.9512V23.4387C7.6676 25.3251 14.2353 26.8543 22.3352 26.8543C30.4351 26.8543 37.0028 25.3251 37.0028 23.4387V18.9512" stroke="#002140" stroke-width="0.857057" stroke-linecap="round" stroke-linejoin="round"/>
<path d="M22.4017 19.9524C25.5088 19.9524 28.0277 19.4454 28.0277 18.82C28.0277 18.1945 25.5088 17.6875 22.4017 17.6875C19.2945 17.6875 16.7756 18.1945 16.7756 18.82C16.7756 19.4454 19.2945 19.9524 22.4017 19.9524Z" stroke="#D18000" stroke-width="0.857057" stroke-miterlimit="10"/>
<path d="M11.4196 12.0919C11.4196 12.0919 13.3272 16.0101 26.2901 15.6074C39.2529 15.2047 40.7578 12.6944 40.7578 11.889C40.7578 11.0835 34.829 8.37347 26.9926 8.4734C19.1561 8.57332 11.7224 9.47869 11.4196 12.0888V12.0919Z" fill="#FED607"/>
<path d="M12.5065 10.8904C13.7631 11.7746 15.4224 11.8624 16.9425 11.6353C18.4625 11.4082 19.9311 10.9025 21.4572 10.7148C23.2195 10.4967 25.006 10.7087 26.7835 10.7087C27.5011 10.7087 28.243 10.6663 28.8819 10.3393C29.5208 10.0123 30.0234 9.3249 29.9296 8.61635C29.9296 8.61635 24.5518 8.42558 20.4489 8.73747C16.346 9.04935 12.5095 10.8934 12.5095 10.8934L12.5065 10.8904Z" fill="#FFED8F"/>
<path d="M11.6193 12.7927V17.1137C11.6193 17.1137 17.0454 20.0266 26.7895 20.0266C36.5336 20.0266 40.8546 16.9108 40.8546 16.9108V12.5898C40.8546 12.5898 36.3338 16.0054 26.2869 15.6027C16.24 15.2 12.8244 13.5921 11.6193 12.7897V12.7927Z" fill="#D18000"/>
<path d="M26.1865 15.4406C34.2873 15.4406 40.8542 13.9113 40.8542 12.025C40.8542 10.1386 34.2873 8.60938 26.1865 8.60938C18.0858 8.60938 11.5189 10.1386 11.5189 12.025C11.5189 13.9113 18.0858 15.4406 26.1865 15.4406Z" stroke="#002140" stroke-width="0.857057" stroke-linecap="round" stroke-linejoin="round"/>
<path d="M11.5189 12.0254V16.5129C11.5189 18.3993 18.0866 19.9285 26.1865 19.9285C34.2864 19.9285 40.8542 18.3993 40.8542 16.5129V12.0254" stroke="#002140" stroke-width="0.857057" stroke-linecap="round" stroke-linejoin="round"/>
<path d="M26.2538 13.0267C29.361 13.0267 31.8798 12.5196 31.8798 11.8942C31.8798 11.2687 29.361 10.7617 26.2538 10.7617C23.1467 10.7617 20.6278 11.2687 20.6278 11.8942C20.6278 12.5196 23.1467 13.0267 26.2538 13.0267Z" stroke="#D18000" stroke-width="0.857057" stroke-miterlimit="10"/>
</svg>
