<svg xmlns="http://www.w3.org/2000/svg" xml:space="preserve" id="Layer_1" x="0" y="0" viewBox="0 0 184 113"><style>.st0{fill:#fffaf0}.st1{fill:#fee45e}.st2{fill:#fff2b2}.st3{fill:#e4bc07}.st4{fill:#ccf6ff}.st5{fill:#fed607}.st6{fill:none;stroke:#002140;stroke-linecap:round;stroke-linejoin:round}.st7{fill:#002140}</style><path d="M55.6 17.615s-6.047.293-8.11 4.277c-2.063 3.98-22.267 59.577-22.267 59.577l-7.817 21.234s-3.243 6.193-5.013 6.93H139.95l13.86-4.88 4.68-12.677 16.174-46.67s1.416-1.69.383-2.87-7.227-14.157-7.227-14.157l-28.606-.293 2.063-5.75s.147-4.57-4.72-4.867c-4.867-.293-80.96.147-80.96.147h.003z" class="st0"/><path d="m18.953 99.605-2.063 5.31-4.14 4.9 131.847.26s10.616-2.213 10.763-10.027zm58.544-85.377-47.337-.19s-4.827-.1-4.647 4.977l.18 5.077 20.833-.653s4.647-4.867 5.53-5.197c.883-.333 25.437-.7 25.437-.7v-3.313z" class="st1"/><path d="m20.87 93.782-5.64-2.1s-.997-3.317-3.097 1.107.333 8.847.333 8.847l4.757 1.88 3.65-9.733z" class="st1"/><path d="M39.564 43.348s-13.05-4.647-24 2.433C4.614 52.858.74 66.132 4.28 76.305c3.54 10.177 11.393 17.253 16.59 17.473l18.69-50.433z" class="st2"/><path d="m37.13 49.875 1.88-6.637s-13.493-4.757-24 2.653S1.074 65.245 4.614 77.411 20.32 93.558 20.87 93.782l1.88-5.75S8.593 84.162 9.367 66.685c0-8.627 10.177-15.817 11.943-16.48 1.77-.663 8.073-1.66 8.073-1.66s6.857-.22 7.743 1.327z" class="st3"/><path d="m32.927 61.375-5.31 14.6s-4.093-3.43-3.76-6.747 2.877-5.64 3.317-6.083 4.533-1.88 5.75-1.77z" class="st3"/><path d="M3.25 51.458s-.147.883.293 1.327 3.317 2.063 3.317 2.063 4.57-6.12 6.12-7.077l-3.76-2.063s-.96-.517-1.77.073-3.467 3.613-4.203 5.677z" class="st4"/><path d="m20.65 43.201 9.217-1.623-1.77-4.57s-5.087-.883-8.773 1.917z" class="st5"/><path d="m10.4 87.442-.883 3.317-1.77 1.253-.883 2.063.22 1.697-.293 1.55 1.18 2.95.81.293s-1.253 2.433.517 3.317l2.95 1.473s.737 2.287 1.917 2.433c1.18.147 2.433-1.916 2.433-1.916l.37-2.95-2.213-1.107-1.697-3.243-.443-3.317.737-2.58 1.473-1.253zm14.563-51.06s-2.1-6.413-7.19-8.847c0 0 3.317-3.65 13.273-4.313 9.953-.663 16.037.333 16.037.333l-7.52 19.797s-6.23-2.1-9.697-1.77l-1.77-4.57-3.133-.627z" class="st4"/><path d="m141.757 20.748-.554 2.653-14.266 45.787 4.646-2.877 2.1 4.647 3.98-3.207 1.88 3.98 3.65-2.543 1.364 4.857 4.83-3.75 1.263 5.54 4.71-4.213 1.683 5.867 4.15-4.147 1.557 5.747 17.603-50.377s3.317-7.63-5.53-7.743c-8.846-.11-33.07-.22-33.07-.22h.004z" class="st1"/><path d="M77.497 17.542h43.906s1.327-9.4 3.317-13.823c0 0-5.197.997-8.407 3.54l-3.206-4.533-6.414 4.977-5.42-4.423-5.42 3.98-4.423-3.87-5.197 4.423-4.867-3.98s-2.877 3.097-3.87 13.713v-.004z" class="st2"/><path d="M8.264 103.245s-1.83 4.71 1.327 5.64 3.98.443 3.98.443l.59-1.54-2.69-2.11z" class="st3"/><path d="M17.267 103.148s-2.027 6.637-5.63 6.637c-1.103 0-1.93-.373-2.527-1.057 0 0-1.867-1.256-.523-6.753m130.82-73.81 1.99-5.64s1.326-4.977-4.977-4.977H55.46s-6.527-.293-8.96 6.637c-2.987 8.293-29.197 78.967-29.197 78.967" class="st6"/><path d="M11.673 109.785H143.72s8.293-.333 11.28-7.963 23.376-67.57 25.14-72 1.1-8.963-5.98-8.963c-6.194-.22-32.517 0-32.517 0M25.697 24.091q-.09-1.003-.21-1.9s-1.55-8.183 4.867-8.183c5.75 0 24.333.22 24.333.22h22.81m-56.91 79.747C10.317 90.155 3 80.262 3 68.658c0-14.913 12.09-27.003 27.003-27.003 3.217 0 6.303.563 9.163 1.593" class="st6"/><path d="M22.81 88.345C14.963 85.422 9.373 77.858 9.373 68.992c0-11.403 9.243-20.647 20.647-20.647 2.413 0 4.73.413 6.883 1.177M15.1 91.195c-.98 1.503-2.807 2.087-4.173 1.3-1.42-.82-1.803-2.813-.86-4.45q.16-.28.36-.52" class="st6"/><path d="M13.106 92.738c.157.807.017 1.713-.457 2.533-.947 1.64-2.863 2.303-4.283 1.483s-1.803-2.813-.86-4.45c.473-.82 1.19-1.393 1.963-1.663" class="st6"/><path d="M12.49 95.962c.14.29.25.603.317.937.377 1.853-.62 3.623-2.227 3.95s-3.217-.91-3.593-2.767a3.74 3.74 0 0 1 .26-2.337" class="st6"/><path d="M12.997 98.862c.713.493 1.267 1.306 1.467 2.296.377 1.854-.62 3.624-2.227 3.95s-3.217-.91-3.593-2.766a3.8 3.8 0 0 1 .01-1.6m5.973 7.29a3.8 3.8 0 0 1-1.623-.827 3.75 3.75 0 0 1-1.197-1.867m2.96-3.546c.727.063 1.47.363 2.097.903q.195.165.36.35M27.37 75.788a7.743 7.743 0 0 1 5.2-14.113m-2.364-9.547v5.677M12.587 69.602H19m-.37-12.167 3.983 4.203m-.37 15.264-4.57 3.76" class="st6"/><path d="m25.193 65.105-10.543-4.35-1.033 2.873 10.177 4.13" class="st7"/><path d="m12.436 47.482-3.2-2.05a1.14 1.14 0 0 0-1.097-.077c-1.077.51-3.353 2.033-4.913 6.193-.19.503.007 1.07.46 1.36l2.923 1.87m-2.576-4.493 3.833 2.357m-2.359-4.277 3.833 2.36m-2.283-3.98 3.833 2.36m18.764-7.733-1.023-3.66a1.14 1.14 0 0 0-.767-.787c-1.143-.337-3.853-.717-7.79 1.35-.477.25-.707.803-.563 1.32l.933 3.343m1.076-5.073 1.287 4.313m1.089-4.763 1.287 4.313m.947-4.49 1.29 4.313m-8.79 58.281h136.923" class="st6"/><path d="M46.503 23.408s-17.143-2.987-28.977 4.093c0 0 6.527 2.653 7.19 9.07" class="st6"/><path d="M28.75 28.992s8.847-2.653 16.147-.997m-15.37 5.423s7.18-2.153 13.94-1.37m-12.78 5.847s5.39-1.617 11.227-1.537m97.493-8.193-12.61 40.763m-49.3-51.386s.293-8.553 3.833-14.01l5.013 4.277 5.087-4.72 4.497 4.423 5.31-4.57 5.096 4.76s6.524-5.487 6.75-5.19c.227.297 3.047 4.563 3.047 4.563s4.57-3.54 8.997-3.54" class="st6"/><path d="M121.294 17.542s.293-8.553 3.833-14.01M84.65 10.868h21.456m-22.193 3.69h29.86m22.34 45.01 24.997 5.973m-22.34-13.639 24.994 5.97m-22.451-13.684 23.927 5.64m-21.827-11.946 23.927 5.64m-22.267-11.39L169 37.771m-6.127 41.771-1.68-6.2-4.053 4.513-1.613-6.1-4.814 4.397-1.253-6.083-4.89 4.133-1.01-5.427-3.98 3.687-1.843-5.087-4.28 4.197-1.84-5.597-4.794 2.953" class="st6"/></svg>