<svg xmlns="http://www.w3.org/2000/svg" width="48" height="48" fill="none"><path fill="#CF4CD9" d="m26.047 5.65-17.623.034L4.94 8.76l.135 29.192s.487 3.258 3.224 3.863c2.737.604 15.243.362 17.359.362 2.115 0 3.614-3.367 3.614-3.367s-.163-26.838-.022-29.161c.14-2.324-3.201-4.003-3.201-4.003l-.003.003Z"/><path fill="#49225B" d="M4.992 38.254c-.053 2.304 2.79 3.522 2.79 3.522l1.837.18-1.836-2.163V7.875l1.93-2.225-1.93.287L5.195 8.2s-.147 27.75-.2 30.053h-.003Z"/><path fill="#FED607" d="M27.087 8.58H9.822v30.8h17.451l-.186-30.8Z"/><path fill="#FFF2B2" d="M17.79 8.677c-.196.708.22 1.482.833 1.89.614.408 1.376.517 2.113.537.737.02 1.48-.036 2.205.085.197.033.4.081.557.202.163.121.267.307.346.495.52 1.22.183 2.627.371 3.941.051.346.141.695.332.987.526.802 1.683.962 2.591.65V8.581l-9.347.096ZM26.942 19.762c-.726-.065-1.39.495-1.682 1.162-.296.666-.301 1.418-.301 2.146 0 1.06-.006 2.121-.006 3.181 0 .813 0 1.654.315 2.405.315.752 1.021 1.399 1.837 1.385l-.157-10.276-.006-.003Z"/><path stroke="#002140" stroke-linecap="round" stroke-linejoin="round" stroke-width=".824" d="M25.248 5.65H9.079a4.003 4.003 0 0 0-4.003 4.002v28.301a4.003 4.003 0 0 0 4.003 4.003h16.169a4.003 4.003 0 0 0 4.002-4.003v-28.3a4.003 4.003 0 0 0-4.002-4.003Z"/><path stroke="#002140" stroke-linecap="round" stroke-linejoin="round" stroke-width=".824" d="M11.459 41.956a4.002 4.002 0 0 1-4.003-4.003v-28.3a4.002 4.002 0 0 1 4.003-4.003"/><path stroke="#002140" stroke-linecap="round" stroke-linejoin="round" stroke-width=".824" d="M26.385 8.51H10.68a.824.824 0 0 0-.824.825v29.232c0 .455.369.824.824.824h15.705a.824.824 0 0 0 .824-.824V9.335a.824.824 0 0 0-.824-.825Z"/><path fill="#008C59" d="M42.583 10.676h-27.67a2.071 2.071 0 0 0-2.072 2.072V27.35c0 1.144.928 2.072 2.072 2.072h27.67a2.071 2.071 0 0 0 2.071-2.072V12.748a2.072 2.072 0 0 0-2.072-2.072Z"/><path stroke="#002140" stroke-linecap="round" stroke-linejoin="round" stroke-width=".824" d="M42.224 10.588H15.182a2.476 2.476 0 0 0-2.476 2.477v13.784a2.476 2.476 0 0 0 2.476 2.476h27.042a2.476 2.476 0 0 0 2.477-2.476V13.065a2.476 2.476 0 0 0-2.477-2.477ZM15.72 26.26l4.327.005M22.03 26.265l4.325.005"/><path fill="#085239" d="M22.242 20.948v-3.526c.003-.184-.344-.333-.77-.333h-2.819c-.24 0-.465.044-.611.124l-.962.529c-.104.058-.162.13-.162.204v2.562c0 .069.047.135.135.19l.719.443c.146.091.385.143.639.143h3.057c.427-.002.772-.151.774-.333v-.003Z"/><path fill="#03D47C" d="M41.453 13.412H30.085c-.632 0-1.144.512-1.144 1.143v1.972c0 .632.512 1.143 1.144 1.143h11.368c.631 0 1.143-.511 1.143-1.143v-1.972c0-.631-.512-1.143-1.143-1.143Z"/><circle cx="19.059" cy="33.883" r="2.824" fill="#002140"/><path fill="#FED607" fill-rule="evenodd" d="M20.581 32.483a.423.423 0 0 1 .09.592l-1.843 2.496-1.325-1.21a.423.423 0 1 1 .571-.625l.63.576 1.285-1.74a.423.423 0 0 1 .592-.09Z" clip-rule="evenodd"/></svg>
