<?xml version="1.0" encoding="utf-8"?>
<!-- Generator: Adobe Illustrator 26.5.0, SVG Export Plug-In . SVG Version: 6.00 Build 0)  -->
<svg version="1.1" id="Layer_1" xmlns="http://www.w3.org/2000/svg" xmlns:xlink="http://www.w3.org/1999/xlink" x="0px" y="0px"
	 viewBox="0 0 68 68" style="enable-background:new 0 0 68 68;" xml:space="preserve">
<style type="text/css">
	.st0{fill:#FED607;}
	.st1{fill:#002140;}
	.st2{fill:#0185FF;}
	.st3{fill:#00B368;}
	.st4{fill:#99F7FC;}
	.st5{fill:#FFFAF0;}
</style>
<g>
	<path class="st0" d="M38.8,61.2c1.9,0,3.4-1.4,3.4-3.1c0-1.7-1.5-3.1-3.4-3.1c-1.9,0-3.4,1.4-3.4,3.1C35.5,59.8,37,61.2,38.8,61.2z
		"/>
</g>
<g>
	<path class="st0" d="M48.8,56.3c1.8-0.4,3-2.1,2.6-3.8c-0.4-1.7-2.2-2.7-4-2.3s-3,2.1-2.6,3.8C45.2,55.7,47,56.7,48.8,56.3z"/>
</g>
<g>
	<path class="st1" d="M48,57.4c-0.7,0-1.4-0.2-2-0.5c-0.9-0.5-1.5-1.3-1.7-2.2c-0.1-0.5-0.1-1,0-1.5c0.1-0.3,0.3-0.4,0.6-0.4
		c0.3,0.1,0.4,0.3,0.4,0.6c-0.1,0.4-0.1,0.7,0,1.1c0.1,0.7,0.6,1.2,1.2,1.5c0.7,0.4,1.5,0.5,2.2,0.3c1.6-0.4,2.6-1.8,2.3-3.1
		c0-0.2-0.1-0.3-0.2-0.5c-0.1-0.2,0-0.5,0.2-0.7c0.2-0.1,0.5,0,0.7,0.2c0.1,0.2,0.2,0.4,0.2,0.7c0.4,1.9-0.9,3.9-3.1,4.3
		C48.7,57.4,48.3,57.4,48,57.4z"/>
</g>
<g>
	<path class="st0" d="M20.5,54.4c1.9,0,3.4-1.4,3.4-3.1c0-1.7-1.5-3.1-3.4-3.1c-1.9,0-3.4,1.4-3.4,3.1C17.1,53,18.6,54.4,20.5,54.4z
		"/>
</g>
<g>
	<path class="st1" d="M20.4,55.2c-2.2,0-4-1.6-4-3.6c0-0.5,0.1-1,0.4-1.5c0.1-0.2,0.4-0.3,0.7-0.2c0.2,0.1,0.3,0.4,0.2,0.7
		c-0.2,0.3-0.3,0.7-0.3,1c0,1.4,1.3,2.6,3,2.6s3-1.1,3-2.6c0-0.2,0-0.3-0.1-0.5c-0.1-0.3,0.1-0.5,0.4-0.6c0.3-0.1,0.5,0.1,0.6,0.4
		c0.1,0.2,0.1,0.5,0.1,0.7C24.4,53.6,22.6,55.2,20.4,55.2z"/>
</g>
<g>
	<path class="st2" d="M36,20.5l-20.8,0.6c0,0,0,18.7,0,23.1c0,4.5,2.9,6.1,2.9,6.1s4.7,1.8,9.4,3.6c-0.2,0.3-0.3,0.6-0.3,1
		c-0.2,1.5-0.2,8.1-0.2,8.1s0.6,2.1,1.9,1.6c1.3-0.4,4.1-2.8,4.1-2.8l5.9-3.8l1.7-0.3l0,0c1-0.1,1.4-0.4,1.4-0.4l7.5-3.9
		c0,0,1.1-1.2,1.6-1.6c1.5-1.1,1.5-4.3,1.5-4.3V23.7L36,20.5z"/>
</g>
<g>
	<path class="st1" d="M18.9,22.4L19,45.9l8.3,3.3l0.1-11.4l9.9-6.9c0,0,1.6-1.3,0.2-2.1C35.9,27.9,18.9,22.4,18.9,22.4L18.9,22.4z"
		/>
</g>
<g>
	<path class="st3" d="M27.6,25.8v4l-3.9,2.4l-0.5,4.6L19.1,38L19,46.5l7.9,3.2l0.1-11.1l11.6-9L27.9,26L27.6,25.8z"/>
</g>
<g>
	<path class="st1" d="M19,38.6c-0.2,0-0.4-0.1-0.5-0.3c-0.1-0.3,0-0.5,0.3-0.6l4-1.5v-3.9c0-0.2,0.1-0.4,0.3-0.4l3.9-2.1v-3.8
		c0-0.3,0.2-0.5,0.5-0.5s0.5,0.2,0.5,0.5v4c0,0.2-0.1,0.4-0.3,0.4l-3.9,2.1v4c0,0.2-0.1,0.4-0.3,0.5l-4.4,1.7
		C19.1,38.5,19,38.6,19,38.6z"/>
</g>
<g>
	<path class="st1" d="M26.9,42.2c-0.1,0-0.1,0-0.2,0l-8-2.7c-0.3-0.1-0.4-0.4-0.3-0.6c0.1-0.3,0.4-0.4,0.6-0.3l8,2.7
		c0.3,0.1,0.4,0.4,0.3,0.6C27.3,42,27.1,42.2,26.9,42.2z"/>
</g>
<g>
	<path class="st1" d="M21.7,44c-0.1,0-0.1,0-0.2,0l-2.9-1c-0.3-0.1-0.4-0.4-0.3-0.6c0.1-0.3,0.4-0.4,0.6-0.3l2.9,1
		c0.3,0.1,0.4,0.4,0.3,0.6C22.1,43.8,21.9,44,21.7,44z"/>
</g>
<g>
	<path class="st1" d="M25.9,47.6c-0.1,0-0.1,0-0.2,0l-2.9-1c-0.3-0.1-0.4-0.4-0.3-0.6c0.1-0.3,0.4-0.4,0.6-0.3l2.9,1
		c0.3,0.1,0.4,0.4,0.3,0.6C26.3,47.4,26.1,47.6,25.9,47.6z"/>
</g>
<g>
	<path class="st1" d="M27.3,38.6c-0.1,0-0.1,0-0.2,0l-3.9-1.3c-0.3-0.1-0.4-0.4-0.3-0.6c0.1-0.3,0.4-0.4,0.6-0.3l3.9,1.3
		c0.3,0.1,0.4,0.4,0.3,0.6C27.7,38.4,27.5,38.6,27.3,38.6z"/>
</g>
<g>
	<path class="st1" d="M31.5,35.5c-0.1,0-0.1,0-0.2,0l-3.6-1.3c-0.3-0.1-0.4-0.4-0.3-0.6c0.1-0.3,0.4-0.4,0.6-0.3l3.6,1.3
		c0.3,0.1,0.4,0.4,0.3,0.6C31.9,35.4,31.7,35.5,31.5,35.5z"/>
</g>
<g>
	<path class="st1" d="M31,31.5c-0.1,0-0.1,0-0.2,0l-3.3-1.1c-0.3-0.1-0.4-0.4-0.3-0.6c0.1-0.3,0.4-0.4,0.6-0.3l3.3,1.1
		c0.3,0.1,0.4,0.4,0.3,0.6C31.4,31.3,31.2,31.5,31,31.5z"/>
</g>
<g>
	<path class="st0" d="M50.7,19.8l2.2,0.8c0,0,0.9,0.6,0.9,1.4c0,0.8-0.2,1.2-1.4,2l-12.2,5.6c0,0-1.1,0.2-2.3-0.3
		s-23.8-8.4-23.8-8.4s-0.6-0.7-0.5-1.3s0.5-1.3,0.7-1.4c0.2-0.1,3-1.3,3-1.3s-0.7-3.1,2.7-4.4c2-1,3-1.3,3-1.3s-0.5-3,1.8-5.3
		C27,3.7,29.6,3.3,32,4c2.4,0.6,9.9,3.9,9.9,3.9s2.9,1.1,3.5,3.9l0.6,2.8l3,1.1C48.9,15.7,50.7,16.7,50.7,19.8L50.7,19.8z"/>
</g>
<g>
	<path class="st4" d="M42.8,47c0.3-4.9-2.2-9.1-5.5-9.3c-3.4-0.2-6.4,3.6-6.7,8.6c-0.3,4.9,2.2,9.1,5.5,9.3S42.5,51.9,42.8,47z"/>
</g>
<g>
	<path class="st5" d="M43.3,47.7c0.1-2.1-0.9-3.8-2.3-3.9c-1.4-0.1-2.6,1.5-2.8,3.6c-0.1,2.1,0.9,3.8,2.3,3.9S43.1,49.7,43.3,47.7z"
		/>
</g>
<g>
	<path class="st1" d="M34.7,37.9c0,0-3,0.4-5,5.4c-2,5,0.3,11.9,5.4,12.4c0,0-5.6-2-4.2-11.7c0-0.1,0.2-0.4,0.2-0.4
		S32.7,39.3,34.7,37.9z"/>
</g>
<g>
	<path class="st1" d="M40.7,43.8l-1.9-0.4c0,0-1.8,0.6-2.2,2.4c-0.5,1.8,0.5,4.8,1.3,5l2,0.4c0,0-1.6-1.2-1.1-4.9
		C39.1,44.7,40.7,43.8,40.7,43.8L40.7,43.8z"/>
</g>
<g>
	<path class="st1" d="M26.7,54c-0.1,0-0.1,0-0.2,0l-7.5-2.7c-2.9-1.1-4.8-3.8-4.8-6.9V20.7c0-0.3,0.2-0.5,0.5-0.5s0.5,0.2,0.5,0.5
		v23.6c0,2.6,1.7,5,4.2,5.9l7.5,2.7c0.3,0.1,0.4,0.4,0.3,0.6C27.1,53.8,26.9,54,26.7,54z"/>
</g>
<g>
	<path class="st1" d="M39.3,58.2c0,0-0.1,0-0.1,0c-0.3,0-0.5-0.2-0.5-0.5c0-0.3,0.2-0.5,0.5-0.5c1,0,2.1-0.2,3-0.7l6.4-3.3
		c2.1-1.1,3.5-3.3,3.5-5.6V23.7c0-0.3,0.2-0.5,0.5-0.5s0.5,0.2,0.5,0.5v23.9c0,2.8-1.5,5.3-4,6.5l-6.4,3.3
		C41.6,57.9,40.5,58.2,39.3,58.2z"/>
</g>
<g>
	<path class="st1" d="M39.4,30.3c-0.3,0-0.5,0-0.8-0.1l-24-8.9c-0.9-0.3-1.4-1.1-1.4-2.1c0-0.9,0.6-1.7,1.4-2.1l2.5-1
		c0.3-0.1,0.5,0,0.6,0.3c0.1,0.3,0,0.5-0.3,0.6L15,18c-0.6,0.2-0.8,0.7-0.8,1.1c0,0.4,0.2,0.9,0.8,1.1l24,8.9c0.3,0.1,0.7,0.1,1-0.1
		l12.9-6.4c0.5-0.3,0.7-0.8,0.7-1.2c0-0.4-0.2-0.9-0.8-1.1l-2.1-0.8c-0.3-0.1-0.4-0.4-0.3-0.6c0.1-0.3,0.4-0.4,0.6-0.3l2.1,0.8
		c0.8,0.3,1.4,1.1,1.5,2c0,0.9-0.4,1.7-1.2,2.1L40.4,30C40.1,30.2,39.8,30.3,39.4,30.3z"/>
</g>
<g>
	<path class="st1" d="M39.2,26.7c-0.5,0-1-0.1-1.5-0.3l-18.2-6.7c-1.7-0.6-2.7-2.1-2.7-3.9s1-3.3,2.7-3.9l3.3-1.3
		c0.3-0.1,0.5,0,0.6,0.3c0.1,0.3,0,0.5-0.3,0.6l-3.3,1.3c-1.5,0.6-2.1,1.9-2.1,3c0,1.1,0.6,2.4,2.1,3l18.2,6.7
		c0.8,0.3,1.7,0.3,2.5-0.1l7.9-3.9c1.2-0.6,1.9-1.8,1.8-3.1c-0.1-1.3-0.9-2.4-2.1-2.8l-2.3-0.8c-0.3-0.1-0.4-0.4-0.3-0.6
		c0.1-0.3,0.4-0.4,0.6-0.3l2.3,0.8c1.6,0.6,2.7,2,2.8,3.7c0.1,1.7-0.8,3.2-2.3,4l-7.9,3.9C40.5,26.5,39.9,26.7,39.2,26.7z"/>
</g>
<g>
	<path class="st1" d="M40.8,7.5c-0.1,0-0.1,0-0.2,0l-8.6-3.1C31.4,4.2,30.7,4,29.9,4c0,0,0,0,0,0c-0.3,0-0.5-0.2-0.5-0.5
		c0-0.3,0.2-0.5,0.5-0.5c0.9,0,1.7,0.1,2.6,0.4L41,6.6c0.3,0.1,0.4,0.4,0.3,0.6C41.2,7.4,41,7.5,40.8,7.5z"/>
</g>
<g>
	<path class="st1" d="M39,21.1c-0.9,0-1.7-0.1-2.5-0.5l-9.1-3.4c-2.9-1.1-4.8-3.7-4.8-6.9c0-3.1,1.8-5.8,4.7-6.9
		C28.2,3.2,29,3,29.9,3c0,0,0,0,0,0c0.3,0,0.5,0.2,0.5,0.5c0,0.3-0.2,0.5-0.5,0.5c-0.8,0-1.5,0.1-2.2,0.4c-3,1.1-4.1,3.8-4.1,5.9
		c0,2.1,1.1,4.8,4.1,5.9l9.1,3.4c1.6,0.6,3.5,0.5,5-0.3l0.1,0c2.3-1.1,3.7-3.5,3.5-6c-0.1-2.6-1.7-4.7-4.2-5.6l-0.6-0.2
		c-0.3-0.1-0.4-0.4-0.3-0.6c0.1-0.3,0.4-0.4,0.6-0.3l0.6,0.2c2.8,1,4.7,3.5,4.8,6.5c0.2,3-1.4,5.7-4.1,7l-0.1,0
		C41.3,20.8,40.2,21.1,39,21.1z"/>
</g>
<g>
	<path class="st1" d="M39.2,58c-0.3,0-0.5-0.2-0.5-0.5v-2.6c0-0.3,0.2-0.5,0.5-0.5s0.5,0.2,0.5,0.5v2.6C39.7,57.8,39.5,58,39.2,58z"
		/>
</g>
<g>
	<path class="st1" d="M39.2,38.8c-0.3,0-0.5-0.2-0.5-0.5v-8.5c0-0.3,0.2-0.5,0.5-0.5s0.5,0.2,0.5,0.5v8.5
		C39.7,38.5,39.5,38.8,39.2,38.8z"/>
</g>
<g>
	<path class="st1" d="M38.8,61.9c-1.2,0-2.3-0.5-3-1.3c-0.2-0.2-0.2-0.5,0-0.7c0.2-0.2,0.5-0.2,0.7,0c0.6,0.6,1.4,1,2.3,1
		c1.6,0,3-1.1,3-2.6c0-0.2,0-0.3-0.1-0.5c-0.1-0.3,0.1-0.5,0.4-0.6c0.3-0.1,0.5,0.1,0.6,0.4c0.1,0.2,0.1,0.5,0.1,0.7
		C42.8,60.3,41,61.9,38.8,61.9z"/>
</g>
<g>
	<path class="st1" d="M35.8,56.2c-0.1,0-0.2,0-0.4,0c-4.1-0.3-7.1-4.8-6.8-10c0.3-5.3,3.9-9.4,8-9.1c3.4,0.2,6.2,3.4,6.7,7.7
		c0,0.3-0.2,0.5-0.4,0.6c-0.3,0-0.5-0.2-0.6-0.4c-0.5-3.8-2.9-6.6-5.8-6.8c-3.5-0.2-6.6,3.4-6.9,8.2c-0.3,4.7,2.3,8.7,5.9,9
		c2.4,0.1,4.6-1.5,5.9-4.2c0.1-0.2,0.4-0.4,0.7-0.2c0.2,0.1,0.4,0.4,0.2,0.7C40.9,54.5,38.4,56.2,35.8,56.2z"/>
</g>
<g>
	<path class="st1" d="M36.3,56.2C36.3,56.2,36.3,56.2,36.3,56.2c-1.9-0.1-3.5-1.3-4.6-3.3c-1-1.8-1.5-4.3-1.4-6.6
		c0.3-4.5,3.2-9.4,6.6-9.1c0.3,0,0.5,0.3,0.5,0.5c0,0.3-0.2,0.5-0.5,0.5c-2.5-0.2-5.2,3.8-5.5,8.2c-0.1,2.2,0.3,4.4,1.3,6.1
		c1,1.7,2.3,2.7,3.8,2.8c0.3,0,0.5,0.3,0.5,0.5C36.8,56,36.5,56.2,36.3,56.2z"/>
</g>
<g>
	<path class="st1" d="M38.6,51.5C38.6,51.5,38.6,51.5,38.6,51.5c-0.7,0-1.2-0.3-1.7-0.9c-0.8-0.9-1.1-2.2-1.1-3.6
		c0.2-2.4,1.6-4.2,3.3-4.1c0.3,0,0.5,0.3,0.5,0.5s-0.3,0.5-0.5,0.5c-1.1-0.1-2.1,1.4-2.2,3.2c-0.1,1.2,0.2,2.3,0.8,2.9
		c0.2,0.2,0.5,0.5,1,0.5c0.3,0,0.5,0.3,0.5,0.5C39.1,51.3,38.9,51.5,38.6,51.5z"/>
</g>
<g>
	<path class="st1" d="M40.8,52c0,0-0.1,0-0.1,0c-0.8-0.1-1.6-0.6-2.1-1.5c-0.5-0.8-0.7-1.9-0.6-3c0.2-2.4,1.6-4.3,3.3-4.1
		c1.7,0.1,2.9,2.1,2.7,4.5c-0.1,1.1-0.4,2.2-1,2.9C42.4,51.6,41.6,52,40.8,52z M41.1,44.3c-1.1,0-2,1.4-2.1,3.2
		c-0.1,0.9,0.1,1.8,0.5,2.5c0.3,0.6,0.8,0.9,1.3,1c0.5,0,1-0.3,1.4-0.8c0.5-0.6,0.7-1.5,0.8-2.4l0,0C43.1,46,42.3,44.4,41.1,44.3
		C41.1,44.3,41.1,44.3,41.1,44.3z"/>
</g>
<g>
	<path class="st1" d="M41.2,44.3c0,0-0.1,0-0.1,0L39,43.9c-0.3-0.1-0.4-0.3-0.4-0.6c0.1-0.3,0.3-0.4,0.6-0.4l2.1,0.4
		c0.3,0.1,0.4,0.3,0.4,0.6C41.6,44.2,41.4,44.3,41.2,44.3z"/>
</g>
<g>
	<path class="st1" d="M40.3,51.9c0,0-0.1,0-0.1,0l-2.1-0.4c-0.3-0.1-0.4-0.3-0.4-0.6c0.1-0.3,0.3-0.4,0.6-0.4l2.1,0.4
		c0.3,0.1,0.4,0.3,0.4,0.6C40.7,51.7,40.5,51.9,40.3,51.9z"/>
</g>
<g>
	<path class="st1" d="M31.2,49.7c-0.2,0-0.4-0.1-0.5-0.3c-0.1-0.3,0.1-0.5,0.3-0.6l2.3-0.7c0.3-0.1,0.5,0.1,0.6,0.3
		c0.1,0.3-0.1,0.5-0.3,0.6l-2.3,0.7C31.3,49.7,31.3,49.7,31.2,49.7z"/>
</g>
<g>
	<path class="st1" d="M37,41c-0.2,0-0.4-0.1-0.5-0.4l-0.8-2.8c-0.1-0.3,0.1-0.5,0.3-0.6c0.3-0.1,0.5,0.1,0.6,0.3l0.8,2.8
		c0.1,0.3-0.1,0.5-0.3,0.6C37.1,41,37,41,37,41z"/>
</g>
<g>
	<path class="st1" d="M34.5,55.4c-0.1,0-0.1,0-0.2,0C34,55.3,33.9,55,34,54.7l0.9-2.1c0.1-0.3,0.4-0.4,0.7-0.3
		c0.3,0.1,0.4,0.4,0.3,0.7l-0.9,2.1C34.9,55.3,34.7,55.4,34.5,55.4z"/>
</g>
<g>
	<path class="st1" d="M34,44.2c0,0-0.1,0-0.1,0l-2.3-0.5c-0.3-0.1-0.4-0.3-0.4-0.6s0.3-0.4,0.6-0.4l2.3,0.5c0.3,0.1,0.4,0.3,0.4,0.6
		C34.4,44.1,34.2,44.2,34,44.2z"/>
</g>
<g>
	<path class="st1" d="M26.8,50.3c-0.1,0-0.1,0-0.2,0l-8.3-3.1c-0.2-0.1-0.3-0.3-0.3-0.5V22.4c0-0.3,0.2-0.5,0.5-0.5s0.5,0.2,0.5,0.5
		v23.9l7.9,3c0.3,0.1,0.4,0.4,0.3,0.6C27.2,50.1,27,50.3,26.8,50.3z"/>
</g>
<g>
	<path class="st1" d="M28.6,65.6c-0.3,0-0.6-0.1-0.9-0.2c-0.7-0.4-1.2-1.1-1.2-1.9V39.3c0-0.7,0.3-1.3,0.8-1.7l11.2-8.4
		c0.2-0.2,0.5-0.1,0.7,0.1c0.2,0.2,0.1,0.5-0.1,0.7l-11.2,8.4c-0.3,0.2-0.4,0.5-0.4,0.9v24.2c0,0.4,0.2,0.8,0.6,1
		c0.4,0.2,0.8,0.2,1.1-0.1l9.3-7c0.2-0.2,0.5-0.1,0.7,0.1c0.2,0.2,0.1,0.5-0.1,0.7l-9.3,7C29.5,65.5,29,65.6,28.6,65.6z"/>
</g>
</svg>
