<?xml version="1.0" encoding="utf-8"?>
<!-- Generator: Adobe Illustrator 26.5.0, SVG Export Plug-In . SVG Version: 6.00 Build 0)  -->
<svg version="1.1" id="Layer_1" xmlns="http://www.w3.org/2000/svg" xmlns:xlink="http://www.w3.org/1999/xlink" x="0px" y="0px"
	 viewBox="0 0 68 68" style="enable-background:new 0 0 68 68;" xml:space="preserve">
<style type="text/css">
	.st0{fill:#03D47C;}
	.st1{fill:#002140;}
	.st2{fill:#FFFAF0;}
	.st3{fill:#FED604;}
	.st4{fill:#F68DFE;}
</style>
<path class="st0" d="M57.6,9.7l-2.2-4.2l-1,0.4l-1.8,4l-5.5,1.1l0.5,1.1l3,3.3l-0.8,5l1.1,0.2l4.4-1.7l4.4,1.8l0.6-0.6l-0.4-5.1
	l3.1-3.6l-0.5-0.6L57.6,9.7z"/>
<path class="st1" d="M50.5,20.8c-0.3,0-0.5-0.1-0.8-0.2c-0.4-0.3-0.6-0.8-0.5-1.3l0.7-4.1c0-0.1,0-0.2-0.1-0.2l-3-2.9
	c-0.4-0.3-0.5-0.8-0.3-1.3s0.5-0.8,1-0.9l4.2-0.6c0.1,0,0.2-0.1,0.2-0.2l1.9-3.8c0.2-0.4,0.7-0.7,1.2-0.7c0.5,0,0.9,0.2,1.1,0.7
	c0,0,0,0,0,0.1L58,9c0,0.1,0.1,0.1,0.2,0.2l4.2,0.6c0.5,0.1,0.9,0.4,1,0.9c0.2,0.5,0,1-0.3,1.3l-3,2.9C60,14.9,60,15,60,15.1
	l0.7,4.1c0.1,0.5-0.1,1-0.5,1.3c-0.4,0.3-0.9,0.3-1.4,0.1l-3.7-2c-0.1,0-0.2,0-0.3,0l-3.7,2C50.9,20.7,50.7,20.8,50.5,20.8z M55,5.5
	c-0.1,0-0.2,0-0.3,0.2l-1.9,3.8c-0.2,0.4-0.6,0.6-1,0.7l-4.2,0.6c-0.2,0-0.2,0.1-0.2,0.2c0,0.1,0,0.2,0.1,0.3l3,2.9
	c0.3,0.3,0.4,0.7,0.4,1.1l-0.7,4.1c0,0.2,0.1,0.2,0.1,0.3c0,0,0.2,0.1,0.3,0l3.7-2c0.4-0.2,0.8-0.2,1.2,0l3.7,2c0.1,0.1,0.3,0,0.3,0
	c0,0,0.1-0.1,0.1-0.3L59,15.3c-0.1-0.4,0.1-0.8,0.4-1.1l3-2.9c0.1-0.1,0.1-0.2,0.1-0.3c0-0.1-0.1-0.2-0.2-0.2l-4.2-0.6
	c-0.4-0.1-0.8-0.3-1-0.7l-1.8-3.7c0,0,0,0,0-0.1C55.2,5.5,55.1,5.5,55,5.5z"/>
<path class="st2" d="M38,27.5c0,0,2.7-7.4,2.3-9.6c-0.4-2.2-0.1-4.9-4.1-4.9s-5.8,3-5.9,4.1s-2.2,9.4-4.7,10.7
	c-4.9,2.5-7.1,5.1-7.1,5.1s-1.3-1.6-3.3-0.8s-4.7,3.2-4.7,6.6c0,3.4,0.7,10,2.3,11c1.6,1,5.6,0.7,5.6,0.7s6.7,9.6,18,8.8
	c11.3-0.8,15.1-5.6,15-6.3c-0.1-0.7-2.3-4.9-2.3-4.9s4.3-3.3,3.8-5.5c-0.4-2.2-3.4-4.9-3.4-4.9s3.2-1,2.6-3.4c-0.5-2.5-1.9-7-7-6.7
	C40.1,27.5,38,27.5,38,27.5L38,27.5z"/>
<path class="st2" d="M18.4,49.7c-0.7,0.7-1.6,1-2.5,1c-3,0-5.5-4.2-5.5-9.5s2.4-9.5,5.5-9.5c0.9,0,1.8,0.4,2.5,1.1"/>
<path class="st1" d="M16,51.2c-3.3,0-6-4.4-6-10s2.6-10,6-10c1,0,2,0.4,2.9,1.2c0.2,0.2,0.2,0.5,0,0.7c-0.2,0.2-0.5,0.2-0.7,0
	c-0.7-0.6-1.4-0.9-2.2-0.9c-2.7,0-5,4.1-5,9c0,5,2.2,9,5,9c0.7,0,1.5-0.3,2.1-0.9c0.2-0.2,0.5-0.2,0.7,0c0.2,0.2,0.2,0.5,0,0.7
	C17.9,50.9,17,51.2,16,51.2z"/>
<path class="st2" d="M18.1,38c0,0-0.4-4.9,2.2-7s7.7-3,8.8-8.9c1.1-5.9,2.7-9.3,6-9.6c3.3-0.3,5.4,1.6,5.4,6.6c0,5-3.4,9.1-3.4,9.1"
	/>
<path class="st1" d="M18.1,38.5c-0.3,0-0.5-0.2-0.5-0.5c0-0.2-0.4-5.2,2.4-7.4c0.7-0.6,1.6-1,2.5-1.5c2.5-1.4,5.4-3,6.2-7.1
	c0.9-4.8,2.4-9.7,6.5-10c1.7-0.1,3,0.3,4,1.2c1.3,1.2,1.9,3.2,1.9,5.9c0,5.1-3.4,9.2-3.6,9.4c-0.2,0.2-0.5,0.2-0.7,0.1
	c-0.2-0.2-0.2-0.5-0.1-0.7c0,0,3.3-4,3.3-8.8c0-2.5-0.5-4.2-1.6-5.2c-0.8-0.7-1.9-1-3.2-0.9c-2.8,0.2-4.4,3-5.6,9.2
	c-0.9,4.6-4.1,6.4-6.7,7.8c-0.9,0.5-1.7,0.9-2.3,1.4c-2.4,1.9-2,6.5-2,6.6C18.6,38.3,18.4,38.5,18.1,38.5
	C18.1,38.5,18.1,38.5,18.1,38.5z"/>
<path class="st2" d="M17.9,44.1c0,0-2.9,14,19.2,14.8c14,0.1,16.8-6.6,11.5-11"/>
<path class="st1" d="M37.6,59.4c-0.1,0-0.3,0-0.4,0c-8.4-0.3-14.2-2.5-17.4-6.5c-3.3-4.2-2.4-8.7-2.3-8.9c0.1-0.3,0.3-0.4,0.6-0.4
	c0.3,0.1,0.4,0.3,0.4,0.6c0,0-0.8,4.3,2.2,8.1c3,3.8,8.6,5.8,16.6,6.1c7.2,0.1,12.1-1.7,13.3-4.8c0.6-1.7-0.1-3.7-2.1-5.3
	c-0.2-0.2-0.2-0.5-0.1-0.7c0.2-0.2,0.5-0.2,0.7-0.1c2.3,1.9,3.1,4.3,2.4,6.4C50.1,57.4,45,59.4,37.6,59.4z"/>
<path class="st2" d="M40.7,47.9c0,0,11.8,1.8,11.8-5.5c0-7.3-12.1-4.8-12.1-4.8"/>
<path class="st2" d="M47.2,37.4c0,0,5.3,0.8,5.2-3.6c0-2.3-2.6-9.1-15.4-5.6"/>
<path class="st1" d="M48.1,37.9c-0.6,0-1-0.1-1-0.1c-0.3,0-0.5-0.3-0.4-0.6c0-0.3,0.3-0.5,0.6-0.4c0,0,2.5,0.3,3.8-0.8
	c0.6-0.5,0.9-1.3,0.9-2.3c0-0.9-0.5-2.9-2.4-4.4c-1.8-1.4-5.4-2.7-12.4-0.8c-0.3,0.1-0.5-0.1-0.6-0.4c-0.1-0.3,0.1-0.5,0.4-0.6
	c7.3-2,11.2-0.6,13.2,1c2.1,1.6,2.8,3.8,2.8,5.2c0,1.3-0.4,2.3-1.2,3C50.6,37.8,49.1,37.9,48.1,37.9z"/>
<path class="st3" d="M56.5,54.3L54.3,50l-1,0.4l-1.8,4L46,55.5l0.5,1.1l3,3.3l-0.9,5l1.1,0.2l4.4-1.7l4.4,1.8l0.6-0.6l-0.4-5.1
	l3.2-3.6l-0.5-0.6L56.5,54.3z"/>
<path class="st1" d="M43.8,48.6c-1.7,0-3-0.2-3.1-0.2c-0.3,0-0.5-0.3-0.4-0.6s0.3-0.5,0.6-0.4c0.1,0,6.8,1,9.8-1.6
	c1-0.8,1.5-2,1.5-3.4c0-1.4-0.5-2.4-1.4-3.2c-3.1-2.5-10-1.1-10.1-1.1C40.3,38.2,40,38,40,37.7c-0.1-0.3,0.1-0.5,0.4-0.6
	c0.3-0.1,7.5-1.5,10.9,1.3c1.2,1,1.8,2.3,1.8,4c0,1.7-0.6,3.1-1.8,4.1C49.3,48.3,46.1,48.6,43.8,48.6z"/>
<path class="st1" d="M49.5,65.8c-0.3,0-0.5-0.1-0.8-0.2c-0.4-0.3-0.6-0.8-0.5-1.3l0.7-4.2c0-0.1,0-0.2-0.1-0.2l-3-2.9
	c-0.4-0.3-0.5-0.8-0.3-1.3c0.2-0.5,0.5-0.8,1-0.9l4.2-0.6c0.1,0,0.2-0.1,0.2-0.2l1.9-3.8c0.2-0.4,0.7-0.7,1.2-0.7
	c0.5,0,0.9,0.2,1.1,0.7c0,0,0,0,0,0.1L57,54c0,0.1,0.1,0.1,0.2,0.2l4.2,0.6c0.5,0.1,0.9,0.4,1,0.9c0.2,0.5,0,1-0.3,1.3l-3,2.9
	C59,59.9,59,60,59,60.1l0.7,4.2c0.1,0.5-0.1,1-0.5,1.3c-0.4,0.3-0.9,0.3-1.4,0.1l-3.7-2c-0.1,0-0.2,0-0.3,0l-3.7,2
	C49.9,65.7,49.7,65.8,49.5,65.8z M54,50.5c-0.1,0-0.2,0-0.3,0.2l-1.9,3.8c-0.2,0.4-0.6,0.6-1,0.7l-4.2,0.6c-0.2,0-0.2,0.1-0.2,0.2
	c0,0,0,0.2,0.1,0.3l3,2.9c0.3,0.3,0.4,0.7,0.4,1.1l-0.7,4.2c0,0.2,0.1,0.2,0.1,0.3c0,0,0.2,0.1,0.3,0l3.7-2c0.4-0.2,0.8-0.2,1.2,0
	l3.7,2c0.1,0.1,0.3,0,0.3,0c0,0,0.1-0.1,0.1-0.3L58,60.3c-0.1-0.4,0.1-0.8,0.4-1.1l3-2.9c0.1-0.1,0.1-0.2,0.1-0.3
	c0-0.1-0.1-0.2-0.2-0.2l-4.2-0.6c-0.4-0.1-0.8-0.3-1-0.7l-1.8-3.7c0,0,0,0,0-0.1C54.2,50.5,54.1,50.5,54,50.5z"/>
<path class="st4" d="M14.4,15.2L12.2,11l-1,0.4l-1.8,4L4,16.5l0.5,1.1l3,3.3l-0.8,5L7.8,26l4.4-1.7l4.4,1.8l0.6-0.6l-0.4-5.1
	l3.1-3.6l-0.5-0.6L14.4,15.2z"/>
<path class="st1" d="M7.6,26.9c-0.3,0-0.5-0.1-0.8-0.2c-0.4-0.3-0.6-0.8-0.5-1.3l0.7-4.1c0-0.1,0-0.2-0.1-0.2L4,18
	c-0.4-0.3-0.5-0.8-0.3-1.3c0.2-0.5,0.5-0.8,1-0.9l4.2-0.6c0.1,0,0.2-0.1,0.2-0.2l1.9-3.8c0.2-0.4,0.7-0.7,1.2-0.7
	c0.5,0,0.9,0.2,1.1,0.7c0,0,0,0,0,0.1l1.9,3.8c0,0.1,0.1,0.1,0.2,0.2l4.2,0.6c0.5,0.1,0.9,0.4,1,0.9c0.2,0.5,0,1-0.3,1.3l-3,2.9
	c-0.1,0.1-0.1,0.2-0.1,0.3l0.7,4.1c0.1,0.5-0.1,1-0.5,1.3c-0.4,0.3-0.9,0.3-1.4,0.1l-3.7-2c-0.1,0-0.2,0-0.3,0l-3.7,2
	C8,26.8,7.8,26.9,7.6,26.9z M12.1,11.6c-0.1,0-0.2,0-0.3,0.2L10,15.5c-0.2,0.4-0.6,0.6-1,0.7l-4.2,0.6c-0.2,0-0.2,0.1-0.2,0.2
	c0,0.1,0,0.2,0.1,0.3l3,2.9C8,20.5,8.1,21,8.1,21.4l-0.7,4.1c0,0.2,0.1,0.2,0.1,0.3c0,0,0.2,0.1,0.3,0l3.7-2c0.4-0.2,0.8-0.2,1.2,0
	l3.7,2c0.1,0.1,0.3,0,0.3,0c0,0,0.1-0.1,0.1-0.3l-0.7-4.1c-0.1-0.4,0.1-0.8,0.4-1.1l3-2.9c0.1-0.1,0.1-0.2,0.1-0.3
	c0-0.1-0.1-0.2-0.2-0.2l-4.2-0.6c-0.4-0.1-0.8-0.3-1-0.7l-1.8-3.7c0,0,0,0,0-0.1C12.3,11.6,12.1,11.6,12.1,11.6z"/>
</svg>
