<svg xmlns="http://www.w3.org/2000/svg" xmlns:xlink="http://www.w3.org/1999/xlink" id="Layer_1" x="0" y="0" version="1.1" viewBox="0 0 184 113" style="enable-background:new 0 0 184 113" xml:space="preserve"><style type="text/css">.st0{fill:#fffaf0}.st1{fill:#fee45e}.st2{fill:#fff2b2}.st3{fill:#e4bc07}.st4{fill:#ccf6ff}.st5{fill:#fed607}.st6{fill:none;stroke:#002140;stroke-linecap:round;stroke-linejoin:round}.st7{fill:#002140}</style><path d="M55.6,17.615c0,0-6.047,0.293-8.11,4.277c-2.063,3.98-22.267,59.577-22.267,59.577l-7.817,21.234	c0,0-3.243,6.193-5.013,6.93H139.95l13.86-4.88l4.68-12.677l16.174-46.67c0,0,1.416-1.69,0.383-2.87	c-1.033-1.18-7.227-14.157-7.227-14.157l-28.606-0.293l2.063-5.75c0,0,0.147-4.57-4.72-4.867c-4.867-0.293-80.96,0.147-80.96,0.147	H55.6z" class="st0"/><path d="M18.953,99.605l-2.063,5.31l-4.14,4.9l131.847,0.26c0,0,10.616-2.213,10.763-10.027L18.953,99.605	L18.953,99.605z" class="st1"/><path d="M77.497,14.228l-47.337-0.19c0,0-4.827-0.1-4.647,4.977l0.18,5.077l20.833-0.653c0,0,4.647-4.867,5.53-5.197	c0.883-0.333,25.437-0.7,25.437-0.7v-3.313H77.497z" class="st1"/><path d="M20.87,93.782l-5.64-2.1c0,0-0.997-3.317-3.097,1.107s0.333,8.847,0.333,8.847l4.757,1.88l3.65-9.733H20.87z" class="st1"/><path d="M39.564,43.348c0,0-13.05-4.647-24,2.433C4.614,52.858,0.74,66.132,4.28,76.305	c3.54,10.177,11.393,17.253,16.59,17.473l18.69-50.433L39.564,43.348z" class="st2"/><path d="M37.13,49.875l1.88-6.637c0,0-13.493-4.757-24,2.653C4.504,53.301,1.074,65.245,4.614,77.411	S20.32,93.558,20.87,93.782l1.88-5.75c0,0-14.157-3.87-13.383-21.347c0-8.627,10.177-15.817,11.943-16.48	c1.77-0.663,8.073-1.66,8.073-1.66s6.857-0.22,7.743,1.327L37.13,49.875z" class="st3"/><path d="M32.927,61.375l-5.31,14.6c0,0-4.093-3.43-3.76-6.747c0.333-3.317,2.877-5.64,3.317-6.083	c0.44-0.443,4.533-1.88,5.75-1.77H32.927z" class="st3"/><path d="M3.25,51.458c0,0-0.147,0.883,0.293,1.327c0.44,0.443,3.317,2.063,3.317,2.063s4.57-6.12,6.12-7.077	l-3.76-2.063c0,0-0.96-0.517-1.77,0.073s-3.467,3.613-4.203,5.677H3.25z" class="st4"/><path d="M20.65,43.201l9.217-1.623l-1.77-4.57c0,0-5.087-0.883-8.773,1.917L20.65,43.201L20.65,43.201z" class="st5"/><path d="M10.4,87.442l-0.883,3.317l-1.77,1.253l-0.883,2.063l0.22,1.697l-0.293,1.55l1.18,2.95l0.81,0.293	c0,0-1.253,2.433,0.517,3.317c1.77,0.883,2.95,1.473,2.95,1.473s0.737,2.287,1.917,2.433c1.18,0.147,2.433-1.916,2.433-1.916	l0.37-2.95l-2.213-1.107l-1.697-3.243l-0.443-3.317l0.737-2.58l1.473-1.253L10.4,87.442L10.4,87.442z" class="st4"/><path d="M24.963,36.382c0,0-2.1-6.413-7.19-8.847c0,0,3.317-3.65,13.273-4.313c9.953-0.663,16.037,0.333,16.037,0.333	l-7.52,19.797c0,0-6.23-2.1-9.697-1.77l-1.77-4.57l-3.133-0.627V36.382z" class="st4"/><path d="M141.757,20.748l-0.554,2.653l-14.266,45.787l4.646-2.877l2.1,4.647l3.98-3.207l1.88,3.98l3.65-2.543	l1.364,4.857l4.83-3.75l1.263,5.54l4.71-4.213l1.683,5.867l4.15-4.147l1.557,5.747l17.603-50.377c0,0,3.317-7.63-5.53-7.743	c-8.846-0.11-33.07-0.22-33.07-0.22H141.757z" class="st1"/><path d="M77.497,17.542h43.906c0,0,1.327-9.4,3.317-13.823c0,0-5.197,0.997-8.407,3.54l-3.206-4.533l-6.414,4.977	l-5.42-4.423l-5.42,3.98l-4.423-3.87l-5.197,4.423l-4.867-3.98c0,0-2.877,3.097-3.87,13.713V17.542z" class="st2"/><path d="M8.264,103.245c0,0-1.83,4.71,1.327,5.64c3.157,0.93,3.98,0.443,3.98,0.443l0.59-1.54l-2.69-2.11L8.264,103.245	L8.264,103.245z" class="st3"/><path d="M17.267,103.148c0,0-2.027,6.637-5.63,6.637c-1.103,0-1.93-0.373-2.527-1.057c0,0-1.867-1.256-0.523-6.753" class="st6"/><path d="M139.407,28.165l1.99-5.64c0,0,1.326-4.977-4.977-4.977H55.46c0,0-6.527-0.293-8.96,6.637	c-2.987,8.293-29.197,78.967-29.197,78.967" class="st6"/><path d="M11.673,109.785H143.72c0,0,8.293-0.333,11.28-7.963c2.986-7.63,23.376-67.57,25.14-72	c1.763-4.43,1.1-8.963-5.98-8.963c-6.194-0.22-32.517,0-32.517,0" class="st6"/><path d="M25.697,24.091c-0.06-0.667-0.13-1.303-0.21-1.9c0,0-1.55-8.183,4.867-8.183c5.75,0,24.333,0.22,24.333,0.22	h22.81" class="st6"/><path d="M20.587,93.975C10.317,90.155,3,80.262,3,68.658c0-14.913,12.09-27.003,27.003-27.003	c3.217,0,6.303,0.563,9.163,1.593" class="st6"/><path d="M22.81,88.345C14.963,85.422,9.373,77.858,9.373,68.992c0-11.403,9.243-20.647,20.647-20.647	c2.413,0,4.73,0.413,6.883,1.177" class="st6"/><path d="M15.1,91.195c-0.98,1.503-2.807,2.087-4.173,1.3c-1.42-0.82-1.803-2.813-0.86-4.45	c0.107-0.187,0.227-0.36,0.36-0.52" class="st6"/><path d="M13.106,92.738c0.157,0.807,0.017,1.713-0.457,2.533c-0.947,1.64-2.863,2.303-4.283,1.483	s-1.803-2.813-0.86-4.45c0.473-0.82,1.19-1.393,1.963-1.663" class="st6"/><path d="M12.49,95.962c0.14,0.29,0.25,0.603,0.317,0.937c0.377,1.853-0.62,3.623-2.227,3.95	c-1.607,0.327-3.217-0.91-3.593-2.767c-0.17-0.84-0.06-1.66,0.26-2.337" class="st6"/><path d="M12.997,98.862c0.713,0.493,1.267,1.306,1.467,2.296c0.377,1.854-0.62,3.624-2.227,3.95	c-1.607,0.327-3.217-0.91-3.593-2.766c-0.113-0.554-0.103-1.097,0.01-1.6" class="st6"/><path d="M14.627,108.032c-0.57-0.13-1.13-0.407-1.623-0.827c-0.61-0.52-1.013-1.183-1.197-1.867" class="st6"/><path d="M14.767,101.792c0.727,0.063,1.47,0.363,2.097,0.903c0.13,0.11,0.25,0.227,0.36,0.35" class="st6"/><path d="M27.37,75.788c-2.06-1.39-3.413-3.747-3.413-6.42c0-4.277,3.467-7.743,7.743-7.743	c0.293,0,0.587,0.017,0.87,0.05" class="st6"/><path d="M30.206,52.128v5.677" class="st6"/><path d="M12.587,69.602H19" class="st6"/><path d="M18.63,57.435l3.983,4.203" class="st6"/><path d="M22.243,76.902l-4.57,3.76" class="st6"/><path d="M25.193,65.105l-10.543-4.35l-1.033,2.873l10.177,4.13" class="st7"/><path d="M12.436,47.482l-3.2-2.05c-0.33-0.21-0.743-0.243-1.097-0.077c-1.077,0.51-3.353,2.033-4.913,6.193	c-0.19,0.503,0.007,1.07,0.46,1.36l2.923,1.87" class="st6"/><path d="M4.033,50.285l3.833,2.357" class="st6"/><path d="M5.507,48.365l3.833,2.36" class="st6"/><path d="M7.057,46.745l3.833,2.36" class="st6"/><path d="M29.654,41.372l-1.023-3.66c-0.107-0.377-0.393-0.677-0.767-0.787c-1.143-0.337-3.853-0.717-7.79,1.35	c-0.477,0.25-0.707,0.803-0.563,1.32l0.933,3.343" class="st6"/><path d="M21.52,37.865l1.287,4.313" class="st6"/><path d="M23.896,37.415l1.287,4.313" class="st6"/><path d="M26.13,37.238l1.29,4.313" class="st6"/><path d="M18.63,99.832h136.923" class="st6"/><path d="M46.503,23.408c0,0-17.143-2.987-28.977,4.093c0,0,6.527,2.653,7.19,9.07" class="st6"/><path d="M28.75,28.992c0,0,8.847-2.653,16.147-0.997" class="st6"/><path d="M29.527,33.418c0,0,7.18-2.153,13.94-1.37" class="st6"/><path d="M30.687,37.895c0,0,5.39-1.617,11.227-1.537" class="st6"/><path d="M139.407,28.165l-12.61,40.763" class="st6"/><path d="M77.497,17.542c0,0,0.293-8.553,3.833-14.01l5.013,4.277l5.087-4.72l4.497,4.423l5.31-4.57l5.096,4.76	c0,0,6.524-5.487,6.75-5.19c0.227,0.297,3.047,4.563,3.047,4.563s4.57-3.54,8.997-3.54" class="st6"/><path d="M121.294,17.542c0,0,0.293-8.553,3.833-14.01" class="st6"/><path d="M84.65,10.868h21.456" class="st6"/><path d="M83.913,14.558h29.86" class="st6"/><path d="M136.113,59.568l24.997,5.973" class="st6"/><path d="M138.77,51.902l24.994,5.97" class="st6"/><path d="M141.313,44.188l23.927,5.64" class="st6"/><path d="M143.413,37.882l23.927,5.64" class="st6"/><path d="M145.073,32.132L169,37.771" class="st6"/><path d="M162.873,79.542l-1.68-6.2l-4.053,4.513l-1.613-6.1l-4.814,4.397l-1.253-6.083l-4.89,4.133l-1.01-5.427	l-3.98,3.687l-1.843-5.087l-4.28,4.197l-1.84-5.597l-4.794,2.953" class="st6"/></svg>