<svg xmlns="http://www.w3.org/2000/svg" width="48" height="48" fill="none" viewBox="0 0 48 48"><path fill="#d18000" d="M35.767 23.105H10.734a2.16 2.16 0 0 0-2.161 2.161v16.346c0 1.194.967 2.162 2.16 2.162h25.034a2.16 2.16 0 0 0 2.161-2.162V25.266a2.16 2.16 0 0 0-2.161-2.161"/><path fill="#780505" d="m11.64 26.817 1.589-3.824h-2.827s-1.833.669-1.833 1.942v1.932l3.068-.053zm21.778-2.753c0 .21-2.936 3-2.936 3l7.305-.112v-2.017s-.42-1.833-1.695-1.833-2.675.745-2.675.959z"/><path fill="#00b268" d="M11.64 26.817h18.845s6.455-5.202 7.75-9.355c1.297-4.152 1.232-4.736.259-5.123-.974-.387-10.443-4.865-10.443-4.865l-2.141 4.865s-.845-7.654-2.724-8.692L10.537 6.89s3.437 5.578 3.18 11.027c-.259 5.449-2.077 8.9-2.077 8.9"/><path fill="#5be3aa" d="M19.273 23.817c1.934 0 3.502-2.11 3.502-4.713 0-2.602-1.568-4.712-3.502-4.712s-3.501 2.11-3.501 4.712c0 2.603 1.567 4.713 3.501 4.713m-3.545-12.842s1.621-.583.844-1.686-1.363-1.686-1.815-1.232c-.451.455-.454 1.297-.325 1.622s1.296 1.296 1.296 1.296m7.393-3.633s-.52-1.75-1.557-.91c-1.038.842-.833 1.147-.777 1.493s1.167 1.558 1.557 1.297c1.296-.258.777-1.88.777-1.88m6.813 3.114s-1.296.258-1.622 1.103c-.325.845-.064 1.686.39 1.75.455.065 1.557-.647 1.686-1.037.13-.39-.454-1.816-.454-1.816m6.29 3.114s-1.296.259-1.622 1.104c-.325.844-.064 1.686.39 1.75.455.065 1.557-.648 1.686-1.038.13-.39-.454-1.815-.454-1.815m-7.2 11.287s2.399-5.578-.194-6.941c-2.592-1.364-3.698.909-3.698.909l-1.557 6.358s.05.818.194 1.102c.143.285 3.243.455 3.243.455l2.012-1.88z"/><path fill="#fcdcff" d="M35.016 33.5v-3.093s.088-1.414-1.194-1.414H14.766s-1.194 0-1.194 1.15v3.273l21.444.088z"/><path fill="#fbccff" d="M14.103 29.166h-1.856s-.75-.22-.795 1.194l-.088 2.83 2.211.22v-3.273l.531-.974z"/><path fill="#f9b5fe" d="M20.308 30.803h-3.95v2.475h3.95z"/><path stroke="#002140" stroke-linecap="round" stroke-linejoin="round" stroke-width=".824" d="M13.411 33.22v-2.933c0-.725.587-1.314 1.314-1.314h19.01c.724 0 1.313.586 1.313 1.314v3.108"/><path stroke="#002140" stroke-linecap="round" stroke-linejoin="round" stroke-width=".824" d="M16.182 33.16v-2.298h4.068v2.357m2.12-2.123h4.068m2.299 0h4.068M22.37 32.278h4.068m-15.033.942v-2.933c0-.725.586-1.314 1.314-1.314h4.287"/><path stroke="#002140" stroke-linecap="round" stroke-linejoin="round" stroke-width=".824" d="M35.121 22.885h.434a2.37 2.37 0 0 1 2.37 2.37v16.37a2.37 2.37 0 0 1-2.37 2.369H10.83a2.37 2.37 0 0 1-2.37-2.37v-16.37a2.37 2.37 0 0 1 2.37-2.37h2.082m-4.452 3.96h29.356M8.46 33.768h29.356"/><path stroke="#002140" stroke-linecap="round" stroke-linejoin="round" stroke-width=".824" d="M11.716 26.4C16.63 15.39 10.7 6.918 10.7 6.918s10.504-2.71 12.707-3.388c6.1 10.675-1.355 20.67.507 23.042"/><path stroke="#002140" stroke-linecap="round" stroke-linejoin="round" stroke-width=".824" d="M30.206 26.844c1.514-.854 7.666-4.839 9.297-13.95L27.813 7.26s-.399 3.064-1.959 5.287"/><path fill="#085239" stroke="#002140" stroke-linecap="round" stroke-linejoin="round" stroke-width=".824" d="M16.018 10.92c.642-.271.883-1.153.539-1.969s-1.144-1.259-1.785-.988c-.642.27-.883 1.152-.539 1.968s1.144 1.259 1.785.988"/><path fill="#03d47c" stroke="#002140" stroke-linecap="round" stroke-linejoin="round" stroke-width=".824" d="M22.627 9.256c.642-.27.883-1.152.538-1.968-.344-.816-1.143-1.259-1.785-.988s-.883 1.152-.538 1.968c.344.816 1.143 1.259 1.785.988"/><path stroke="#002140" stroke-linecap="round" stroke-linejoin="round" stroke-width=".824" d="M30.562 12.352c.338-.82.089-1.698-.555-1.963s-1.44.184-1.777 1.003c-.337.82-.088 1.699.556 1.964s1.44-.185 1.776-1.004m6.181 3.306c.337-.82.088-1.699-.556-1.964s-1.44.184-1.777 1.004c-.337.819-.088 1.698.556 1.963s1.44-.184 1.777-1.003m-14.117 3.664c.319-2.74-.923-5.135-2.773-5.35s-3.608 1.831-3.927 4.571.923 5.135 2.774 5.35 3.608-1.831 3.926-4.571m2.694-.936c.983-.76 2.094-1.041 3.047-.648 1.722.71 2.267 3.352 1.22 5.903-.583 1.42-1.54 2.514-2.569 3.08"/></svg>