<svg viewBox="0 0 60 60" fill="none" xmlns="http://www.w3.org/2000/svg">
<path d="M32.736 19.5776C32.736 20.1069 32.6305 20.6127 32.4469 21.0793V21.1421C29.9811 21.0362 27.5193 21.0636 25.0575 21.2205V21.2048C24.8387 20.7068 24.7175 20.1579 24.7175 19.5776C24.7175 19.5384 24.7175 19.4992 24.7175 19.46C24.7801 17.2917 26.5502 15.5547 28.7268 15.5547C30.9034 15.5547 32.736 17.3544 32.736 19.5776Z" fill="#FED607"/>
<path d="M28.7268 4.61126C30.9385 4.61126 32.736 6.41099 32.736 8.63419C32.736 10.8574 30.9424 12.6571 28.7268 12.6571C26.5111 12.6571 24.7175 10.8574 24.7175 8.63419C24.7175 6.41099 26.5111 4.61126 28.7268 4.61126Z" fill="#FED607"/>
<path d="M30.2501 4.61126C32.4618 4.61126 34.2593 6.41099 34.2593 8.63419C34.2593 10.8574 32.4657 12.6571 30.2501 12.6571H28.7261C30.9378 12.6571 32.7353 10.8574 32.7353 8.63419C32.7353 6.41099 30.9417 4.61126 28.7261 4.61126H30.2501Z" fill="#002140"/>
<path d="M30.2501 15.5586C32.3407 15.5586 34.0561 17.1662 34.2398 19.2169C34.2515 19.3384 34.2593 19.46 34.2593 19.5815C34.2593 20.1618 34.1382 20.7107 33.9194 21.2087V21.2205C33.427 21.1891 32.9346 21.1656 32.4462 21.1421V21.0793C32.6337 20.6166 32.7353 20.1108 32.7353 19.5776C32.7353 17.3583 30.9417 15.5547 28.7261 15.5547H30.2501V15.5586Z" fill="#002140"/>
<path d="M48.2962 28.6233C48.4056 29.2154 48.2298 29.7447 47.9015 29.8074C47.5772 29.8702 47.2216 29.4389 47.1122 28.8468C46.9989 28.2508 47.1747 27.7254 47.5029 27.6587C47.8312 27.596 48.1829 28.0273 48.2962 28.6233Z" fill="#002140"/>
<path d="M44.5602 29.0075C44.6696 29.5995 44.4938 30.1289 44.1656 30.1916C43.8412 30.2543 43.4856 29.823 43.3762 29.231C43.2629 28.635 43.4387 28.1096 43.767 28.0429C44.0952 27.9802 44.4469 28.4115 44.5602 29.0075Z" fill="#002140"/>
<path d="M51.5734 35.3517C52.0228 35.3517 52.3823 36.0771 52.3823 36.9711C52.3823 37.8651 52.0228 38.5904 51.5734 38.5904C51.124 38.5904 50.7684 37.8651 50.7684 36.9711C50.7684 36.0771 51.1279 35.3517 51.5734 35.3517Z" fill="#002140"/>
<path d="M48.2948 35.3517C48.7442 35.3517 49.1037 36.0771 49.1037 36.9711C49.1037 37.8651 48.7442 38.5904 48.2948 38.5904C47.8455 38.5904 47.4899 37.8651 47.4899 36.9711C47.4899 36.0771 47.8494 35.3517 48.2948 35.3517Z" fill="#002140"/>
<path d="M40.2612 47.6872V49.4477C40.2612 51.4905 33.8527 51.4905 33.8527 49.4477V47.6872C33.8527 49.73 40.2612 49.73 40.2612 47.6872Z" fill="#002140"/>
<path d="M26.1472 47.6872V49.4477C26.1472 51.4905 19.7386 51.4905 19.7386 49.4477V47.6872C19.7386 49.73 26.1472 49.73 26.1472 47.6872Z" fill="#002140"/>
<path d="M11.5049 33.3401C11.5049 33.4499 11.5049 33.5597 11.5088 33.6695H11.5049C11.5049 33.6695 9.94965 34.2655 8.45693 33.5872C7.8825 33.3245 7.49173 32.948 7.23774 32.5285C6.83525 31.8619 6.77663 31.0934 6.88214 30.5288C6.94857 30.1602 7.12051 29.8387 7.36669 29.5838C7.7301 29.2074 8.25373 28.9879 8.83597 29.0114C9.81288 29.0427 10.528 29.8387 10.5436 30.4974C10.5592 31.1562 10.3482 31.6776 9.77771 31.909C10.2466 31.9992 10.8289 31.9796 11.501 31.8384L11.5791 31.8462C11.5283 32.3324 11.501 32.8304 11.501 33.3401H11.5049Z" fill="#F68DFE"/>
<path d="M5.97954 27.6982C6.60085 27.1531 7.27297 27.6982 7.06587 28.4C6.87439 29.047 7.30423 29.5175 7.36676 29.5881C7.12057 29.839 6.94864 30.1645 6.88221 30.533C6.7767 31.0937 6.83531 31.8662 7.2378 32.5327C6.0147 31.9877 5.58877 30.8389 5.45982 30.0076C5.33086 29.1764 5.57314 28.0589 5.97954 27.7021V27.6982Z" fill="#F68DFE"/>
<path d="M38.8509 34.4343C40.1053 34.4343 41.1252 35.4538 41.1252 36.7164C41.1252 37.9789 40.1092 38.9944 38.8509 38.9944C37.5926 38.9944 36.5806 37.975 36.5806 36.7164C36.5806 35.4577 37.5966 34.4343 38.8509 34.4343Z" fill="#FBCCFF"/>
<path d="M49.2103 20.4323C51.4103 20.8401 51.3166 22.3144 51.043 23.3731C50.7695 24.4357 49.816 26.0746 49.2064 27.0941C47.7293 24.1494 45.1893 21.9223 42.1101 20.6362C44.6501 20.2912 47.2174 20.1147 49.2142 20.4323H49.2103Z" fill="#F68DFE"/>
<path d="M50.507 31.521L50.4484 31.8935C55.1454 32.6698 54.9344 42.0959 49.8114 42.0959H47.8263C46.0562 44.319 43.4888 45.8835 40.2572 46.7108V47.6832C40.2572 49.7261 33.8486 49.7261 33.8486 47.6832V47.3892C31.1563 47.4715 28.4639 47.5068 26.1427 47.3892V47.6832C26.1427 49.7261 19.7342 49.7261 19.7342 47.6832V46.1815C14.9473 44.1779 11.6258 39.4061 11.5046 33.6657C11.5007 33.556 11.5007 33.4462 11.5007 33.3364C11.5007 32.8267 11.5281 32.3326 11.5789 31.8425C12.2744 24.9651 17.7647 20.1188 24.7047 19.4561H24.7164C24.7164 19.4953 24.7164 19.5345 24.7164 19.5737C24.7164 20.154 24.8376 20.703 25.0564 21.2009V21.2166C27.5182 21.0598 29.9801 21.0323 32.4419 21.1382C32.9342 21.1578 33.4227 21.1853 33.9151 21.2166V21.2049C34.1339 20.7069 34.255 20.158 34.255 19.5777C34.255 19.4561 34.2511 19.3346 34.2355 19.213H34.255C35.6149 19.2679 36.8888 19.3659 37.9517 19.5228C39.4053 19.7149 40.8043 20.0913 42.1055 20.6363C45.1887 21.9224 47.7247 24.1495 49.2018 27.0942C49.87 28.4273 50.3194 29.9094 50.507 31.521ZM52.3827 36.9672C52.3827 36.0732 52.0232 35.3478 51.5738 35.3478C51.1244 35.3478 50.7688 36.0732 50.7688 36.9672C50.7688 37.8612 51.1283 38.5866 51.5738 38.5866C52.0193 38.5866 52.3827 37.8612 52.3827 36.9672ZM49.1041 36.9672C49.1041 36.0732 48.7446 35.3478 48.2953 35.3478C47.8459 35.3478 47.4903 36.0732 47.4903 36.9672C47.4903 37.8612 47.8498 38.5866 48.2953 38.5866C48.7407 38.5866 49.1041 37.8612 49.1041 36.9672ZM47.9045 29.8075C48.2327 29.7448 48.4086 29.2154 48.2992 28.6234C48.1858 28.0274 47.8342 27.5961 47.5059 27.6588C47.1777 27.7215 47.0018 28.2509 47.1151 28.8469C47.2246 29.4389 47.5802 29.8702 47.9045 29.8075ZM44.1649 30.1918C44.4931 30.129 44.6689 29.5997 44.5595 29.0076C44.4462 28.4116 44.0945 27.9803 43.7663 28.0431C43.438 28.1058 43.2622 28.6351 43.3755 29.2311C43.4849 29.8232 43.8405 30.2545 44.1649 30.1918ZM41.1247 36.7123C41.1247 35.4537 40.1087 34.4303 38.8504 34.4303C37.5922 34.4303 36.5801 35.4498 36.5801 36.7123C36.5801 37.9749 37.5961 38.9904 38.8504 38.9904C40.1048 38.9904 41.1247 37.971 41.1247 36.7123Z" fill="#F68DFE"/>
<path d="M45.7397 31.8387H49.8154" stroke="#002140" stroke-linecap="round" stroke-linejoin="round"/>
<path d="M45.7397 42.0959H47.8264H49.8154" stroke="#002140" stroke-linecap="round" stroke-linejoin="round"/>
<path d="M49.8158 31.8387C50.0385 31.8387 50.2495 31.8583 50.4527 31.8936C55.1498 32.6699 54.9387 42.096 49.8158 42.096" stroke="#002140" stroke-linecap="round" stroke-linejoin="round"/>
<path d="M28.7268 4.61126C30.9385 4.61126 32.736 6.41099 32.736 8.63419C32.736 10.8574 30.9424 12.6571 28.7268 12.6571C26.5111 12.6571 24.7175 10.8574 24.7175 8.63419C24.7175 6.41099 26.5111 4.61126 28.7268 4.61126Z" stroke="#002140" stroke-linecap="round" stroke-linejoin="round"/>
<path d="M30.2498 4.61126C32.4615 4.61126 34.259 6.41099 34.259 8.63419C34.259 10.8574 32.4654 12.6571 30.2498 12.6571" stroke="#002140" stroke-linecap="round" stroke-linejoin="round"/>
<path d="M28.7261 12.657H30.2501" stroke="#002140" stroke-linecap="round" stroke-linejoin="round"/>
<path d="M28.7261 4.61126H30.2501" stroke="#002140" stroke-linecap="round" stroke-linejoin="round"/>
<path d="M25.0575 21.2048C24.8387 20.7068 24.7175 20.1579 24.7175 19.5776C24.7175 19.5384 24.7175 19.4992 24.7175 19.46C24.7801 17.2917 26.5502 15.5547 28.7268 15.5547C30.9034 15.5547 32.736 17.3544 32.736 19.5776C32.736 20.1069 32.6305 20.6127 32.4469 21.0793" stroke="#002140" stroke-linecap="round" stroke-linejoin="round"/>
<path d="M30.2498 15.5586C32.3404 15.5586 34.0558 17.1662 34.2395 19.2169C34.2512 19.3384 34.259 19.46 34.259 19.5815C34.259 20.1618 34.1379 20.7108 33.9191 21.2087" stroke="#002140" stroke-linecap="round" stroke-linejoin="round"/>
<path d="M28.7261 15.5586H30.2501" stroke="#002140" stroke-linecap="round" stroke-linejoin="round"/>
<path d="M19.7388 46.1854C14.9519 44.1817 11.6304 39.4099 11.5093 33.6696C11.5054 33.5598 11.5054 33.45 11.5054 33.3402C11.5054 32.8305 11.5327 32.3365 11.5835 31.8463C12.2791 24.9689 17.7693 20.1226 24.7094 19.46" stroke="#002140" stroke-linecap="round" stroke-linejoin="round"/>
<path d="M47.8265 42.0959C46.0563 44.3191 43.489 45.8836 40.2573 46.7109" stroke="#002140" stroke-linecap="round" stroke-linejoin="round"/>
<path d="M37.9556 19.5226C39.4092 19.7147 40.8082 20.0911 42.1094 20.6361C45.1926 21.9222 47.7286 24.1493 49.2057 27.094C49.8739 28.4271 50.3233 29.9092 50.5109 31.5208C50.5226 31.6266 50.5343 31.7325 50.5421 31.8384" stroke="#002140" stroke-linecap="round" stroke-linejoin="round"/>
<path d="M34.2593 19.213C35.6191 19.2679 36.893 19.3659 37.9559 19.5228" stroke="#002140" stroke-linecap="round" stroke-linejoin="round"/>
<path d="M26.1461 47.3931C28.4673 47.5108 31.1596 47.4755 33.852 47.3931" stroke="#002140" stroke-linecap="round" stroke-linejoin="round"/>
<path d="M19.7386 49.4476V47.6871V46.1854" stroke="#002140" stroke-linecap="round" stroke-linejoin="round"/>
<path d="M26.1461 49.4477V47.6872V47.3931" stroke="#002140" stroke-linecap="round" stroke-linejoin="round"/>
<path d="M19.7386 49.4478C19.7386 51.4906 26.1472 51.4906 26.1472 49.4478" stroke="#002140" stroke-linecap="round" stroke-linejoin="round"/>
<path d="M19.7386 47.6872C19.7386 49.73 26.1472 49.73 26.1472 47.6872" stroke="#002140" stroke-linecap="round" stroke-linejoin="round"/>
<path d="M33.8527 49.4477V47.6872V47.3931" stroke="#002140" stroke-linecap="round" stroke-linejoin="round"/>
<path d="M40.261 49.4476V47.6871V46.75" stroke="#002140" stroke-linecap="round" stroke-linejoin="round"/>
<path d="M33.8527 49.4478C33.8527 51.4906 40.2612 51.4906 40.2612 49.4478" stroke="#002140" stroke-linecap="round" stroke-linejoin="round"/>
<path d="M33.8527 47.6872C33.8527 49.73 40.2612 49.73 40.2612 47.6872" stroke="#002140" stroke-linecap="round" stroke-linejoin="round"/>
<path d="M23.5726 21.3302C24.0689 21.291 24.5613 21.2518 25.0575 21.2204C27.5194 21.0636 29.9812 21.0361 32.443 21.142C32.9354 21.1616 33.4238 21.189 33.9162 21.2204C34.4281 21.2518 34.9478 21.291 35.4636 21.3341" stroke="#002140" stroke-linecap="round" stroke-linejoin="round"/>
<path d="M49.1037 36.9671C49.1037 37.8611 48.7442 38.5865 48.2948 38.5865C47.8455 38.5865 47.4899 37.8611 47.4899 36.9671C47.4899 36.0732 47.8494 35.3478 48.2948 35.3478C48.7403 35.3478 49.1037 36.0732 49.1037 36.9671Z" stroke="#002140" stroke-linecap="round" stroke-linejoin="round"/>
<path d="M52.3823 36.9671C52.3823 37.8611 52.0228 38.5865 51.5734 38.5865C51.124 38.5865 50.7684 37.8611 50.7684 36.9671C50.7684 36.0732 51.1279 35.3478 51.5734 35.3478C52.0189 35.3478 52.3823 36.0732 52.3823 36.9671Z" stroke="#002140" stroke-linecap="round" stroke-linejoin="round"/>
<path d="M32.9231 25.408C34.2204 24.0161 36.3423 22.4359 37.6006 21.9693C38.8549 21.5066 39.6365 21.5772 40.8635 22.6908C42.0905 23.8004 43.3644 25.7374 43.3644 25.7374" stroke="#002140" stroke-linecap="round" stroke-linejoin="round"/>
<path d="M42.1055 20.6324C44.6454 20.2913 47.2128 20.1109 49.2096 20.4324C51.4096 20.8402 51.3158 22.3145 51.0423 23.3732C50.7688 24.4357 49.8153 26.0747 49.2057 27.0942" stroke="#002140" stroke-linecap="round" stroke-linejoin="round"/>
<path d="M44.5602 29.0075C44.6696 29.5995 44.4938 30.1289 44.1656 30.1916C43.8412 30.2543 43.4856 29.823 43.3762 29.231C43.2629 28.635 43.4387 28.1096 43.767 28.0429C44.0952 27.9802 44.4469 28.4115 44.5602 29.0075Z" stroke="#002140" stroke-linecap="round" stroke-linejoin="round"/>
<path d="M48.2962 28.6233C48.4056 29.2154 48.2298 29.7447 47.9015 29.8074C47.5772 29.8702 47.2216 29.4389 47.1122 28.8468C46.9989 28.2508 47.1747 27.7254 47.5029 27.6587C47.8312 27.596 48.1829 28.0273 48.2962 28.6233Z" stroke="#002140" stroke-linecap="round" stroke-linejoin="round"/>
<path d="M8.53821 30.8347C8.67888 31.4228 9.11263 31.7835 9.78084 31.909C10.2498 31.9992 10.832 31.9796 11.5041 31.8384" stroke="#002140" stroke-linecap="round" stroke-linejoin="round"/>
<path d="M11.5049 33.6695C11.5049 33.6695 9.94965 34.2655 8.45693 33.5872C7.8825 33.3245 7.49173 32.948 7.23774 32.5285C6.83525 31.8619 6.77663 31.0934 6.88214 30.5288C6.94857 30.1602 7.12051 29.8387 7.36669 29.5838C7.7301 29.2074 8.25373 28.9879 8.83597 29.0114C9.81288 29.0427 10.528 29.8387 10.5436 30.4974C10.5592 31.1562 10.3482 31.6776 9.77772 31.909" stroke="#002140" stroke-linecap="round" stroke-linejoin="round"/>
<path d="M7.37857 29.5959L7.36685 29.5842C7.30042 29.5136 6.87448 29.0431 7.06596 28.3961C7.27306 27.6942 6.60095 27.1492 5.97963 27.6942C5.57714 28.051 5.33486 29.1646 5.45991 29.9998C5.58886 30.831 6.0148 31.9838 7.23789 32.5249" stroke="#002140" stroke-linecap="round" stroke-linejoin="round"/>
</svg>
