<svg xmlns="http://www.w3.org/2000/svg" viewBox="0 0 68 68"><path fill="#0f2c23" stroke="#002140" stroke-miterlimit="10" d="m26.81 25.26 4.51-3.94h1.9l-4.35 3.95h-2.06Zm21.25 0-4.51-3.94h-1.9L46 25.27h2.06Z"/><path fill="#2c65b7" d="M23.64 55.46h-1.97a4.68 4.68 0 0 1-4.68-4.68v-.57l1.97.04h.03a4.68 4.68 0 0 0 4.65 5.21"/><path fill="#173c6e" d="M23.64 48.73c1.13 0 2.05.91 2.05 2.05s-.92 2.05-2.05 2.05-2.05-.91-2.05-2.05.92-2.05 2.05-2.05"/><path fill="#173c6e" d="M23.64 46.09a4.68 4.68 0 1 1-4.65 4.15 4.687 4.687 0 0 1 4.65-4.16Zm2.04 4.68c0-1.13-.92-2.05-2.05-2.05s-2.05.91-2.05 2.05.92 2.05 2.05 2.05 2.05-.91 2.05-2.05"/><path fill="none" stroke="#002140" stroke-linejoin="round" d="M18.99 50.24a4.687 4.687 0 0 1 4.65-4.16 4.68 4.68 0 1 1-4.65 4.15Z"/><path fill="none" stroke="#002140" stroke-linejoin="round" d="M18.95 50.24h-1.97v.53c0 2.59 2.1 4.68 4.68 4.68h1.97m2.05-4.68c0 1.13-.92 2.05-2.05 2.05s-2.05-.91-2.05-2.05.92-2.05 2.05-2.05 2.05.91 2.05 2.05Z"/><path fill="#2c65b7" d="M41.4 55.46h-1.97a4.68 4.68 0 0 1-4.68-4.68v-.57l1.97.04h.03a4.68 4.68 0 0 0 4.65 5.21"/><path fill="#173c6e" d="M41.4 48.73c1.13 0 2.05.91 2.05 2.05s-.92 2.05-2.05 2.05-2.05-.91-2.05-2.05.92-2.05 2.05-2.05"/><path fill="#173c6e" d="M41.4 46.09a4.68 4.68 0 1 1-4.65 4.15 4.687 4.687 0 0 1 4.65-4.16Zm2.05 4.68c0-1.13-.92-2.05-2.05-2.05s-2.05.91-2.05 2.05.92 2.05 2.05 2.05 2.05-.91 2.05-2.05"/><path fill="none" stroke="#002140" stroke-linejoin="round" d="M36.75 50.24a4.687 4.687 0 0 1 4.65-4.16 4.68 4.68 0 1 1-4.65 4.15Z"/><path fill="none" stroke="#002140" stroke-linejoin="round" d="M36.71 50.24h-1.97v.53c0 2.59 2.1 4.68 4.68 4.68h1.97m2.06-4.68c0 1.13-.92 2.05-2.05 2.05s-2.05-.91-2.05-2.05.92-2.05 2.05-2.05 2.05.91 2.05 2.05Z"/><path fill="#173c6e" d="m40.97 32.1-3.56 2.99V32.1zm10.96 4.58v3.88H37.41v-3.88l5.3-4.58h9.22z"/><path fill="#008c59" d="M57.78 31.14v.96H43.23v-3.87h12.24c2.25 0 2.32 2.14 2.32 2.79v.11Z"/><path fill="#002140" d="m57.23 32.1-1.77 1.52-3.53 3.06v-1.59l3.53-2.98.02-.02h1.75Z"/><path fill="#9bc7f9" d="M56.82 47.49v1.35c0 .75-.61 1.36-1.37 1.36h-1.58c.9-.11 1.59-.87 1.59-1.79v-1.54h.73c.34 0 .62.28.62.62Z"/><path fill="#9bc7f9" d="M55.46 46.88v1.54c0 .93-.7 1.69-1.59 1.79h-.04c-.49 0-.88-.39-.88-.88v-1.84c0-.35.28-.62.62-.62h1.89Z"/><path fill="#5be3aa" d="M55.46 33.63v13.25h-1.89c-.34 0-.62.28-.62.62v1.84c0 .49.4.88.88.88h.04c-.07 0-.14.01-.21.01H35.24c0-3.08.04-20.27.04-22.32 0-.65-.22-1.02-.82-1.02h-6.18c-.55 0-.97.25-1.27 1.45.12-.53.22-.95.28-1.2.3-1.14.73-1.8 2.19-1.8v-.02h24.17c1 0 1.8.81 1.8 1.8v1.11H37.4v12.33h14.52v-3.88l3.53-3.06Z"/><path fill="#5be3aa" d="M55.46 32.1v.02l-3.53 2.98v-2.99h3.53Z"/><path fill="#008c59" d="M43.23 28.24v3.87h-5.81v-3.87z"/><path fill="#002140" d="m42.71 32.1-5.3 4.58v-1.59l3.56-2.99z"/><path fill="#5be3aa" d="M35.28 27.9c0 2.05-.04 19.24-.04 22.32H25.4v-14.3c.07-.32 1.04-5.06 1.6-7.54 0-.02 0-.03.01-.05.29-1.2.71-1.45 1.27-1.45h6.18c.6 0 .82.37.82 1.02m-1.54 7.83v-6.72c0-.33-.27-.6-.6-.6H29.5c-.33 0-.61.18-.73.6-.16.54-1.45 5.99-1.6 6.54-.13.46.22.78.55.78h1.51c.14.54.43.9 1 .9s.85-.36.99-.9h1.92c.33 0 .6-.27.6-.6"/><path fill="#3e86f5" d="M33.74 29.02v6.72c0 .33-.27.6-.6.6h-1.92c.08-.3.11-.65.11-1.03 0-1.07-.13-1.93-1.11-1.93-.88 0-1.1.86-1.1 1.93 0 .38.03.73.1 1.03h-1.51c-.33 0-.67-.31-.55-.78.15-.55 1.43-6 1.6-6.54.13-.42.4-.6.73-.6h3.64c.33 0 .6.27.6.6Z"/><path fill="#8dc8ff" d="M31.33 35.31c0 .38-.03.73-.11 1.03h-1.99c-.07-.3-.1-.65-.1-1.03 0-1.07.22-1.93 1.1-1.93.98 0 1.11.86 1.11 1.93Z"/><path fill="#8dc8ff" d="M29.23 36.33h1.99c-.15.54-.45.9-.99.9s-.86-.36-1-.9"/><path fill="#5be3aa" d="M29.49 25.32v.02c-1.45 0-1.89.67-2.19 1.8-.07.24-.16.67-.28 1.2 0 .02 0 .03-.01.05h-9.92c.13-.56.23-1 .3-1.26.3-1.14.73-1.8 2.19-1.8h9.92Z"/><path fill="#3e86f5" d="M17.08 28.38H27c-.55 2.47-1.53 7.22-1.6 7.54h-9.92s1.02-4.97 1.6-7.54"/><path fill="#5be3aa" d="M25.41 35.92v.02l-3.34 3.94c-.09.1-.13.23-.13.36v6.63h-9.92v-6.64c0-.14.05-.27.14-.38l3.34-3.93h9.92Z"/><path fill="#5be3aa" d="M22.68 49.87c.29-.25.46-.62.46-1.02V47.5c0-.34-.28-.62-.62-.62h-.59v-6.63c0-.13.05-.26.13-.36l3.34-3.94v14.28H13.81c-.07 0-.14 0-.21-.01h8.17c.34 0 .66-.13.9-.34Z"/><path fill="#b0d9ff" d="M23.14 47.49v1.35c0 .41-.18.78-.46 1.02-.24.21-.56.34-.9.34h-9.41c-.75 0-1.36-.61-1.36-1.36v-1.35c0-.35.28-.62.62-.62h10.9c.34 0 .62.28.62.62Z"/><path fill="#ffed8f" d="M19.06 40.89c.47 0 .84.74.84 1.66s-.38 1.66-.84 1.66-.84-.74-.84-1.66.38-1.66.84-1.66m-4.16 0c.47 0 .84.74.84 1.66s-.38 1.66-.84 1.66-.84-.74-.84-1.66.38-1.66.84-1.66"/><path fill="none" stroke="#002140" stroke-linejoin="round" d="M55.46 33.63v13.25m0-14.78v.02M12.02 46.87v-6.64c0-.14.05-.27.14-.38l3.34-3.93s1.02-4.97 1.6-7.54c.13-.56.23-1 .3-1.26.3-1.14.73-1.8 2.19-1.8h34.09c1 0 1.8.81 1.8 1.8v1.11m-1.61 21.98c-.07 0-.14.01-.21.01H13.82c-.07 0-.14 0-.21-.01"/><path fill="none" stroke="#002140" stroke-linejoin="round" d="M27.02 28.33c.12-.53.22-.95.28-1.2.3-1.14.73-1.8 2.19-1.8m-7.56 21.54v-6.63c0-.13.05-.26.13-.36l3.34-3.94v-.02c.07-.32 1.04-5.06 1.6-7.54M23.74 50.2c-.4 0-.76-.12-1.06-.33m-7.19-13.95h9.92m-8.33-7.54H27M25.41 50.2V35.94m9.83 14.28c0-3.08.04-23.02.04-25.07m-6.05 11.18h-1.51c-.33 0-.67-.31-.55-.78.15-.55 1.43-6 1.6-6.54.13-.42.4-.6.73-.6h3.64c.33 0 .6.27.6.6v6.72c0 .33-.27.6-.6.6h-1.92M14.9 40.89c.47 0 .84.74.84 1.66s-.38 1.66-.84 1.66-.84-.74-.84-1.66.38-1.66.84-1.66Zm4.16 0c.47 0 .84.74.84 1.66s-.38 1.66-.84 1.66-.84-.74-.84-1.66.38-1.66.84-1.66Zm18.35-8.79v-3.87h18.05c2.54 0 2.32 2.14 2.32 2.79v1.08h-.55m-1.75 0h-3.55m-9.22 0h9.22v2.99m-14.52 0V32.1h3.56m10.96 4.58v3.88H37.41v-3.88"/><path fill="none" stroke="#002140" stroke-linejoin="round" d="m37.41 35.09 3.56-2.99h1.74l-5.3 4.58zm14.52 0 3.53-2.98.02-.02h1.75l-1.77 1.52-3.53 3.06v-1.59Zm-22.7 1.24c-.07-.3-.1-.65-.1-1.03 0-1.07.22-1.93 1.1-1.93.98 0 1.11.86 1.11 1.93 0 .38-.03.73-.11 1.03-.15.54-.45.9-.99.9s-.86-.36-1-.9ZM12.02 46.88h-.4c-.35 0-.62.28-.62.62v1.35c0 .75.61 1.36 1.36 1.36h9.41c.34 0 .66-.13.9-.34.29-.25.46-.62.46-1.02V47.5c0-.35-.28-.62-.62-.62H12Zm43.44 0h-1.89c-.34 0-.62.28-.62.62v1.84c0 .49.4.88.88.88h1.62c.76 0 1.37-.61 1.37-1.36v-1.35c0-.35-.28-.62-.62-.62h-.74Z"/><path fill="#2c65b7" d="M29.49 55.46h-1.97a4.68 4.68 0 0 1-4.68-4.68v-.57l1.97.04h.03a4.68 4.68 0 0 0 4.65 5.21"/><path fill="#9bc7f9" d="M29.49 48.73c1.13 0 2.05.91 2.05 2.05s-.92 2.05-2.05 2.05-2.05-.91-2.05-2.05.92-2.05 2.05-2.05"/><path fill="#173c6e" d="M29.49 46.09a4.68 4.68 0 1 1-4.65 4.15 4.687 4.687 0 0 1 4.65-4.16Zm2.04 4.68c0-1.13-.92-2.05-2.05-2.05s-2.05.91-2.05 2.05.92 2.05 2.05 2.05 2.05-.91 2.05-2.05"/><path fill="none" stroke="#002140" stroke-linejoin="round" d="M24.83 50.24a4.687 4.687 0 0 1 4.65-4.16 4.68 4.68 0 1 1-4.65 4.15Z"/><path fill="none" stroke="#002140" stroke-linejoin="round" d="M24.8 50.24h-1.97v.53c0 2.59 2.1 4.68 4.68 4.68h1.97m2.05-4.68c0 1.13-.92 2.05-2.05 2.05s-2.05-.91-2.05-2.05.92-2.05 2.05-2.05 2.05.91 2.05 2.05Z"/><path fill="#2c65b7" d="M47.25 55.46h-1.97a4.68 4.68 0 0 1-4.68-4.68v-.57l1.97.04h.03a4.68 4.68 0 0 0 4.65 5.21"/><path fill="#9bc7f9" d="M47.25 48.73c1.13 0 2.05.91 2.05 2.05s-.92 2.05-2.05 2.05-2.05-.91-2.05-2.05.92-2.05 2.05-2.05"/><path fill="#173c6e" d="M47.25 46.09a4.68 4.68 0 1 1-4.65 4.15 4.687 4.687 0 0 1 4.65-4.16Zm2.04 4.68c0-1.13-.92-2.05-2.05-2.05s-2.05.91-2.05 2.05.92 2.05 2.05 2.05 2.05-.91 2.05-2.05"/><path fill="none" stroke="#002140" stroke-linejoin="round" d="M42.59 50.24a4.687 4.687 0 0 1 4.65-4.16 4.68 4.68 0 1 1-4.65 4.15Z"/><path fill="none" stroke="#002140" stroke-linejoin="round" d="M42.56 50.24h-1.97v.53c0 2.59 2.1 4.68 4.68 4.68h1.97m2.05-4.68c0 1.13-.92 2.05-2.05 2.05s-2.05-.91-2.05-2.05.92-2.05 2.05-2.05 2.05.91 2.05 2.05Z"/><path fill="#03d47c" d="M30.49 9.52c1.96.25 2.58.91 2.58.91l-.33-1.83s1.47.07 2.8.98c.66.44 1.18 1.32 1.27 1.48-.16.02-.31.04-.46.07-2.16.34-3.82 1.18-5.15 2.35-.06-.28-.29-.55-.63-.71-.31-.16-.73-.21-1.2-.06-.07.02-.13.05-.2.07-.83.36-.98 1.41-.98 1.41s-.31-.18-.73-.2c-.11 0-.23 0-.34.03v-.05l-2.25-1.47s.71-.63 1.74-.94c1.41-.42 2.68-.05 2.68-.05L27.8 9.84s1.31-.51 2.68-.33Z"/><path fill="#002140" d="M44.19 17.88c.32-.44.76-.68.97-.52.22.16.13.64-.2 1.09-.32.44-.76.68-.97.52-.22-.16-.13-.64.2-1.09m-2.48-4.98c.22.16.13.64-.2 1.09-.33.44-.76.68-.97.52-.22-.16-.13-.64.2-1.09.32-.44.76-.68.97-.52m-3.59 5.76c.22.16.13.64-.2 1.09-.33.44-.76.68-.97.52-.22-.16-.13-.64.2-1.09.33-.44.76-.68.97-.52"/><path fill="#f25730" d="M36.82 11.06c-.1-.16-.62-1.03-1.27-1.48 0 0-.12-1.14.93-1.46 1.3-.4 1.79.61 1.79.61s.45-.74 1.34-.73c1.22.03 1.19.94 1.19.94s.7-.75 1.67-.18c.96.57.58 1.64.58 1.64s.63-.37 1.34.1c.98.65.25 1.71.25 1.71-.8-.41-1.72-.74-2.78-.96-.92-.19-1.93-.29-3.07-.29-.7 0-1.35.04-1.97.12Z"/><path fill="#002140" d="M35.3 13.41c.22.16.13.64-.2 1.09-.32.44-.76.68-.97.52-.22-.16-.13-.64.2-1.09.32-.44.76-.68.97-.52m-4.27 5.17c.22.16.13.64-.2 1.09-.33.44-.76.68-.97.52-.22-.16-.13-.64.2-1.09.33-.44.76-.68.97-.52"/><path fill="#722b03" d="M29.39 12.71c.47-.15.88-.1 1.2.06-.33-.15-.74-.2-1.2-.06"/><path fill="#fed607" d="M35.1 14.5c.33-.44.41-.93.2-1.09-.22-.16-.65.08-.97.52-.33.44-.41.93-.2 1.09.22.16.65-.08.97-.52m9.86 3.95c.33-.44.41-.93.2-1.09-.22-.16-.65.08-.97.52-.33.44-.41.93-.2 1.09.22.16.65-.08.97-.52m-15.11 1.73c.22.16.65-.08.97-.52s.41-.93.2-1.09c-.22-.16-.65.07-.97.52-.32.44-.41.93-.2 1.09m11.66-6.19c.33-.44.41-.93.2-1.09-.22-.16-.65.08-.97.52-.33.44-.41.93-.2 1.09.22.16.65-.08.97-.52m3.11-1.79c2.68 1.38 4.03 3.68 4.63 5.73.94 3.19-.03 4.08-1.33 4.08h-21.6c-2.37 0-2.11-1.29-2.04-1.53v-.04s.48.2 1.31.13c1.56-.14 2.05-2.09 3.21-4.08.66-1.13 1.43-2.14 2.37-2.98l.04-.04c1.33-1.18 2.99-2 5.15-2.35.15-.02.3-.05.46-.07.62-.08 1.27-.12 1.97-.12 1.13 0 2.15.11 3.07.29 1.05.22 1.97.55 2.78.97Zm-7.67 8.06c.22.16.65-.08.97-.52s.41-.93.2-1.09c-.22-.16-.65.07-.97.52-.32.44-.41.93-.2 1.09"/><path fill="#722b03" d="M24.29 20.44v.04h-.03s-.73-.45-.4-1.42c.25-.76 1.01-.69 1.01-.69s-.91-.58-.28-1.6c.47-.76 1.46-.55 1.46-.55s-.5-.98.31-1.77c.25-.24.52-.37.76-.42.12-.02.24-.03.34-.03.42.01.73.2.73.2s.14-1.05.98-1.41c.07-.03.13-.05.2-.07.45-.14.87-.09 1.2.06.31.16.51.42.56.71l.03.03c-.93.83-1.7 1.84-2.37 2.98-1.16 1.99-1.65 3.94-3.21 4.08-.83.07-1.3-.13-1.3-.13Z"/><path fill="none" stroke="#002140" stroke-linejoin="round" d="M31.17 13.51c-.93.84-1.7 1.84-2.37 2.98-1.16 1.99-1.65 3.94-3.21 4.08-.83.07-1.3-.13-1.3-.13v.04c-.08.24-.34 1.53 2.03 1.53h21.6c1.31 0 2.27-.89 1.33-4.08-.6-2.05-1.95-4.35-4.63-5.73-.8-.42-1.72-.75-2.78-.97-.92-.19-1.93-.29-3.07-.29-.7 0-1.35.04-1.97.12-.16.02-.31.04-.46.07-2.16.34-3.82 1.18-5.15 2.35-.02.01-.03.02-.04.04Z"/><path fill="none" stroke="#002140" stroke-linejoin="round" d="M31.22 13.52v-.04c-.06-.28-.29-.55-.63-.71-.33-.15-.74-.2-1.2-.06-.07.02-.13.05-.2.07-.83.36-.98 1.41-.98 1.41s-.31-.18-.73-.2c-.11 0-.23 0-.34.03-.24.05-.51.17-.76.42-.82.78-.31 1.77-.31 1.77s-.99-.21-1.46.55c-.63 1.02.28 1.6.28 1.6s-.76-.07-1.01.69c-.33.98.4 1.42.4 1.42"/><path fill="none" stroke="#002140" stroke-linejoin="round" d="m27.12 13.98-2.25-1.47s.71-.63 1.74-.94c1.41-.42 2.68-.05 2.68-.05L27.8 9.85s1.31-.51 2.68-.33c1.96.25 2.58.91 2.58.91l-.33-1.83s1.47.07 2.8.98c.66.44 1.18 1.32 1.27 1.48 0 .02.01.02.02.02m-1.27-1.5s-.12-1.13.93-1.46c1.3-.4 1.79.61 1.79.61s.45-.74 1.34-.73c1.22.03 1.19.94 1.19.94s.7-.75 1.67-.18c.96.57.58 1.64.58 1.64s.63-.37 1.34.1c.98.65.25 1.71.25 1.71"/></svg>