<svg xmlns="http://www.w3.org/2000/svg" id="Layer_1" viewBox="0 0 68 68"><defs><style>.st0{fill:#002140}.st1{fill:#fffaf0;stroke:#002140}.st2{fill:#03d47c;fill-rule:evenodd}</style></defs><rect width="45.708" height="15.681" x="8.402" y="16.357" class="st1" rx="2.5" ry="2.5"/><path d="M25.697 20.305h15.569v2.116H25.697zm0 5.561h23.354v2.116H25.697z" class="st0"/><path d="M21.453 19.523a1.27 1.27 0 0 1 .267 1.776l-5.526 7.483-3.971-3.627a1.27 1.27 0 1 1 1.713-1.875l1.89 1.726 3.852-5.216a1.27 1.27 0 0 1 1.776-.267Z" class="st2"/><rect width="45.708" height="15.681" x="14.89" y="35.819" class="st1" rx="2.5" ry="2.5"/><path d="M32.184 39.767h15.569v2.116H32.184zm0 5.561h23.354v2.116H32.184z" class="st0"/><path d="M27.94 38.985a1.27 1.27 0 0 1 .267 1.776l-5.526 7.483-3.971-3.626a1.27 1.27 0 1 1 1.713-1.875l1.89 1.726 3.851-5.216a1.27 1.27 0 0 1 1.776-.267Z" class="st2"/></svg>