<svg xmlns="http://www.w3.org/2000/svg" xml:space="preserve" id="Layer_1" x="0" y="0" viewBox="0 0 68 68"><style>.st0{fill:#fffaf0}.st1{fill:#002140}.st2{fill:#02b368}.st3{fill:#fed604}.st4{fill:#ffed8f}.st5{fill:#d08000}</style><path d="m8 32.3 27.5 20.5 28.8-9.6-27.4-20.5.6.4c-1.2-.8-3.3-2.6-4.2-11.2 0 0-2.6 3.4-2.9 5.5-.3-.2-3.5-2.4-3.5-2.4l-2.1 4.1-3.8-2.3-1.9 4.2-4-2.4-1.7 3.8-3.6-2.2L8 23.9l-4-2.2c-.2 5.7 2.6 9.4 4 10.6" class="st0"/><path d="M35.6 53.3c-.1 0-.2 0-.3-.1L7.7 32.7C6 31.3 3.3 27.4 3.5 21.6c0-.2.1-.3.3-.4s.3-.1.5 0l3.6 2 1.5-3.1.3-.3c.1 0 .3 0 .4.1l3.1 1.9 1.5-3.3.3-.3h.4l3.5 2.1 1.7-3.7.3-.3c.1 0 .3 0 .4.1l3.3 2.1 1.8-3.6.3-.3c.1 0 .3 0 .4.1.9.7 2.2 1.5 2.9 2 .6-2 2.5-4.6 2.8-5 0 0 0-.1.1-.1.2-.2.7-.2.8.1 0 .1.1.1.1.2.8 7.2 2.4 9.4 3.4 10.3l.6.4 27 20.1c.1.1.2.3.2.5s-.2.3-.3.4l-28.8 9.6c-.2.1-.3.1-.3.1M8.3 31.9l27.3 20.3L63.3 43 37.1 23.6c-.2-.1-.3-.2-.5-.4l-.1-.1-.1-.1c-1.3-1.2-2.8-3.6-3.6-9.7-.8 1.1-1.9 2.9-2.1 4.2 0 .2-.1.3-.3.4-.1.1-.3.1-.4 0-.3-.1-2.1-1.4-3.1-2.1l-1.8 3.6-.3.3c-.1 0-.3 0-.4-.1l-3.3-2-1.6 3.7-.3.3h-.4l-3.5-2.1-1.5 3.3-.3.3h-.4L10 21l-1.5 3.1-.3.3h-.4l-3.3-1.8c.1 4.8 2.4 8.1 3.8 9.3" class="st1"/><path d="M25.9 28.3 5.8 40.4l31.9 15.5L58 43.4z" class="st2"/><path d="M26.1 34.5c1.4-.3 2.3-1.3 2.1-2.2s-1.5-1.4-2.8-1.1c-1.4.3-2.3 1.3-2.1 2.2s1.5 1.4 2.8 1.1m-10.7 6.7c1.2-.3 2.1-1.2 1.9-2.1s-1.4-1.4-2.6-1.2c-1.2.3-2.1 1.2-1.9 2.1s1.4 1.4 2.6 1.2M49 46c1.2-.3 2.1-1.2 1.9-2.1s-1.4-1.4-2.6-1.2c-1.2.3-2.1 1.2-1.9 2.1.1.9 1.3 1.4 2.6 1.2" class="st3"/><path d="M37.8 56.3h-.2L5.2 40.9c-.2-.1-.3-.2-.3-.4s.1-.4.2-.5l20.2-12.4c.1-.1.3-.1.5 0L58 43.3c.2.1.3.2.3.4s-.1.4-.2.5L38 56.3zm-31.3-16 31.3 14.9 19-11.5-31.1-15.1z" class="st1"/><path d="M14.7 41.9c-1.4 0-2.5-.7-2.8-1.9-.1-.7.1-1.4.6-2s1.2-1 2-1.1c.8-.2 1.6-.1 2.3.2s1.2.9 1.3 1.6c.3 1.3-.9 2.7-2.6 3.1-.2 0-.5.1-.8.1m.6-4.1c-.2 0-.4 0-.6.1-.6.1-1.1.4-1.4.8s-.4.7-.4 1.1c.2.8 1.3 1.3 2.4 1 1.1-.2 2-1.1 1.8-1.9-.1-.4-.4-.7-.8-.9-.3-.1-.6-.2-1-.2m32.8 9c-1.4 0-2.5-.7-2.8-1.9-.3-1.3.9-2.7 2.6-3.1.8-.2 1.6-.1 2.3.2s1.2.9 1.3 1.6c.3 1.3-.9 2.7-2.6 3.1-.2.1-.5.1-.8.1m.6-4.1c-.2 0-.4 0-.6.1-1.1.2-2 1.1-1.8 1.9s1.3 1.2 2.4 1 2-1.1 1.8-1.9c-.1-.4-.4-.7-.8-.9-.3-.1-.6-.2-1-.2m-23.3-7.4c-1.4 0-2.5-.7-2.8-1.9-.1-.7.1-1.4.6-2s1.2-1 2-1.1c.8-.2 1.6-.1 2.3.2s1.2.9 1.3 1.6c.3 1.3-.9 2.7-2.6 3.1-.2.1-.5.1-.8.1m.7-4.1c-.2 0-.4 0-.6.1-.6.1-1.1.4-1.4.8s-.4.7-.4 1.1c.2.8 1.3 1.3 2.4 1 1.1-.2 2-1.1 1.8-1.9-.1-.4-.4-.7-.8-.9-.3-.1-.7-.2-1-.2" class="st1"/><path d="m32.3 23.2-22.2 7.5 27.9 22 22.6-7.8z" class="st2"/><path d="M31.3 29.3c1.4 0 2.5-.8 2.5-1.7s-1.1-1.7-2.5-1.7-2.5.8-2.5 1.7c-.1 1 1.1 1.7 2.5 1.7m-11.9 4.3c1.3 0 2.3-.8 2.3-1.7s-1-1.7-2.3-1.7-2.3.8-2.3 1.7 1 1.7 2.3 1.7m19.9 15.6c1.3 0 2.3-.8 2.3-1.7s-1-1.7-2.3-1.7-2.3.8-2.3 1.7 1 1.7 2.3 1.7m11.8-3.8c1.3 0 2.3-.8 2.3-1.7s-1-1.7-2.3-1.7-2.3.8-2.3 1.7 1.1 1.7 2.3 1.7M39.6 35.3S33.1 31 30 32.5s-.5 6.5 1.1 7.7 6.7 4 9.7 2.6.3-6.8-1.2-7.5" class="st3"/><path d="M38.1 53.2c-.1 0-.2 0-.3-.1l-28.3-22c-.1-.1-.2-.3-.2-.5s.2-.3.3-.4L32 22.4c.2-.1.3 0 .5.1l28.1 22.2c.1.1.2.3.2.5s-.2.3-.3.4l-22.2 7.5c-.1.1-.1.1-.2.1M10.8 30.9l27.4 21.2 21-7.1-27.1-21.5z" class="st1"/><path d="M19.4 34.2c-1.7 0-3.2-1.1-3.2-2.5s1.4-2.5 3.2-2.5 3.2 1.1 3.2 2.5c-.1 1.4-1.5 2.5-3.2 2.5m0-4c-1.2 0-2.2.7-2.2 1.5s1 1.5 2.2 1.5 2.2-.7 2.2-1.5c-.1-.8-1-1.5-2.2-1.5M39.3 50c-1.7 0-3.2-1.1-3.2-2.5s1.4-2.5 3.2-2.5c1.7 0 3.2 1.1 3.2 2.5S41 50 39.3 50m0-4c-1.2 0-2.2.7-2.2 1.5s1 1.5 2.2 1.5 2.2-.7 2.2-1.5-1.1-1.5-2.2-1.5m11.7.1c-1.7 0-3.2-1.1-3.2-2.5s1.4-2.5 3.2-2.5 3.2 1.1 3.2 2.5-1.5 2.5-3.2 2.5m0-4c-1.2 0-2.2.7-2.2 1.5s1 1.5 2.2 1.5 2.2-.7 2.2-1.5-1.1-1.5-2.2-1.5m-19.8-12c-1.7 0-3.2-1.1-3.2-2.5s1.4-2.5 3.2-2.5 3.2 1.1 3.2 2.5c0 1.3-1.4 2.5-3.2 2.5m0-4c-1.2 0-2.2.7-2.2 1.5s1 1.5 2.2 1.5 2.2-.7 2.2-1.5-1-1.5-2.2-1.5m7.3 17.7c-1.8 0-4-.7-6-2-4-2.5-5.9-6.4-4.4-8.7 1.5-2.4 5.8-2.2 9.8.3 1.9 1.2 3.3 2.7 4.2 4.3.9 1.7 1 3.3.2 4.4s-2.2 1.7-3.8 1.7m-6.7-11.4c-1.3 0-2.4.4-2.9 1.2-1.2 1.8.7 5.2 4.1 7.3s7.2 2.4 8.4.6c.5-.9.5-2.1-.3-3.4-.8-1.4-2.1-2.8-3.8-3.9-1.9-1.2-3.9-1.8-5.5-1.8m10 9.4" class="st1"/><path d="M33.7 30.6s1.4 2.8 10.8 2.5S55 31 55 30.4s-4.3-2.5-10-2.5-11.1.8-11.3 2.7" class="st3"/><path d="M34.5 29.8c.9.6 2.1.7 3.2.5s2.2-.5 3.3-.7c1.3-.2 2.6 0 3.8 0 .5 0 1.1 0 1.5-.3.5-.2.8-.7.8-1.2 0 0-3.9-.1-6.9.1s-5.7 1.6-5.7 1.6" class="st4"/><path d="M33.8 31.1v3.1s3.9 2.1 11 2.1c7 0 10.2-2.3 10.2-2.3v-3s-3.3 2.5-10.5 2.2c-7.3-.3-9.8-1.5-10.7-2.1" class="st5"/><path d="M44.3 33.6c-3.8 0-11.1-.6-11.1-3s7.3-3 11.1-3 11.1.6 11.1 3-7.2 3-11.1 3m0-5c-6.5 0-10.1 1.3-10.1 2s3.6 2 10.1 2 10.1-1.3 10.1-2-3.5-2-10.1-2" class="st1"/><path d="M44.3 36.8c-3.8 0-11.1-.6-11.1-3v-3.2c0-.3.2-.5.5-.5s.5.2.5.5v3.2c0 .7 3.6 2 10.1 2s10.1-1.3 10.1-2v-3.2c0-.3.2-.5.5-.5s.5.2.5.5v3.2c.1 2.4-7.2 3-11.1 3" class="st1"/><path d="M44.4 31.8c-1.4 0-4.6-.1-4.6-1.3s3.2-1.3 4.6-1.3 4.6.1 4.6 1.3-3.2 1.3-4.6 1.3m-3.2-1.3c.6.2 1.7.3 3.2.3s2.6-.2 3.2-.3c-.6-.2-1.7-.3-3.2-.3s-2.6.1-3.2.3" class="st5"/><path d="m10.7 31.7-1.5 1 3.5 2.8 1.7-1.2zM54 35.1l2.1 1.9s-3.7 1.2-4.9 1.2l-2.1-1.9z" class="st1"/></svg>