<svg xmlns="http://www.w3.org/2000/svg" xml:space="preserve" id="Layer_1" x="0" y="0" viewBox="0 0 68 68"><style>.st0{fill:#4ed7de}.st1{fill:#4ba6a6}.st2{fill:#28736d}.st3{fill:#ffed8f}.st4{fill:none;stroke:#002140;stroke-width:.8571;stroke-linecap:round;stroke-linejoin:round}</style><path d="M49.708 27.953s-3.324-9.358-5.152-9.753-11.801-2.123-20.018-.156c0 0-3.065 2.99-4.107 5.504-1.042 2.517-1.564 4.484-1.564 4.484s-3.52 2.123-4.565 5.504c-1.042 3.381-.391 11.247-.391 11.247s.846.786 2.414 1.259 6.066 1.102 8.15 1.102 23.151-.157 23.151-.157l6.389-1.572s.914-1.337.978-2.279-.26-8.494-.26-8.494-.846-2.752-1.5-3.46-3.52-3.225-3.52-3.225z" class="st0"/><path d="m18.931 27.563-1.109-2.752-2.478.708-.391 1.415 1.305.786zm31.104.154 4.107-.473v-1.021l-.782-1.102-2.542-.235z" class="st1"/><path d="m23.496 46.751 21.974.078-2.087-1.888H24.865zm-8.021-.706.914 3.616 1.301.868 4.37-.316.914-1.259.523-2.201zm30.126 1.259.519 2.436 1.177.868 4.889-.078 1.042-1.415.327-3.147-8.086.864" class="st2"/><path d="m20.754 34.404-2.997-2.044-1.045.942-.26 2.283.978 1.02 3.129 1.259 1.305-1.099zm30.846-1.89-.914-.469-2.87 2.279-.846 2.044.523.864 1.693-.156 3.001-1.65zm-29.281-5.19.914.629h22.76l.391-1.024-3.001-6.294s-5.479-1.181-9.977-1.024c-4.498.156-8.477 1.102-8.477 1.102l-2.61 6.606z" class="st3"/><path d="M44.265 18.161c-4.27-1.376-13.728-1.849-20.05 0" class="st4"/><path d="M24.21 18.16s-2.837 1.653-5.085 9.675c0 0-5.38 2.83-5.38 8.612 0 0-.391 3.893 19.759 3.893s21.423-3.776 21.423-3.776c0-5.782-5.38-8.612-5.38-8.612-2.251-8.021-5.085-9.675-5.085-9.675" class="st4"/><path d="M13.747 36.447v6.923c0 1.241.757 2.29 1.774 2.468l6.23 1.074c.572.1 1.152-.096 1.6-.537l.878-.868c.37-.363.832-.562 1.309-.562h9.241" class="st4"/><path d="M54.906 36.434v6.923c0 1.241-.757 2.29-1.774 2.468l-6.229 1.074c-.573.099-1.152-.096-1.6-.537l-.878-.868c-.37-.363-.832-.562-1.308-.562h-9.241m-11.443 1.959 23.787-.014m-30.699-1.039.412 2.667c.178 1.148 1.01 1.984 1.981 1.984h3.264c.946 0 1.764-.793 1.966-1.906l.288-1.575m30.073-.992-.412 2.667c-.178 1.148-1.01 1.984-1.981 1.984h-3.264c-.946 0-1.764-.793-1.966-1.906l-.288-1.575M18.88 27.836l-.544-2.35c-.103-.441-.462-.722-.839-.651l-1.888.356c-.245.046-.455.235-.562.508l-.242.622c-.228.579.107 1.252.636 1.287l3.438.231m31.067-.12.544-2.35c.103-.441.462-.722.839-.651l1.888.356c.245.046.455.235.562.508l.242.622c.228.58-.107 1.252-.636 1.287l-3.438.231m-33.114 5.325-.501 1.728c-.185.633.092 1.323.615 1.547l2.869 1.223c.128.053.263.085.398.085l.533.011c.853.018 1.337-1.173.8-1.973l-.764-1.145a1.1 1.1 0 0 0-.217-.242l-2.219-1.835c-.548-.452-1.298-.156-1.518.597zm34.845-.236.501 1.728c.185.633-.092 1.323-.615 1.547l-2.869 1.223a1 1 0 0 1-.398.085l-.533.011c-.853.018-1.337-1.173-.8-1.973l.764-1.145q.092-.14.217-.242l2.219-1.835c.548-.452 1.298-.157 1.518.597zm-6.148-4.7H23.197c-.576 0-.956-.672-.715-1.259l2.4-5.856a.8.8 0 0 1 .533-.491c1.589-.42 8.118-1.852 17.668.028a.81.81 0 0 1 .569.48l2.581 5.817c.263.59-.117 1.284-.704 1.284z" class="st4"/><path d="M25.843 35.819c-.686 0-3.065-.395-3.324-3.069-.26-2.674-.103-5.643-.103-5.643m20.294 8.671c.722 0 3.221-.395 3.499-3.069.277-2.674.107-5.643.107-5.643m-3.605 8.713s-16.185.039-16.868.039" class="st4"/></svg>