<svg xmlns="http://www.w3.org/2000/svg" id="Layer_1" viewBox="0 0 68 68"><defs><style>.st0{fill:#0676de}.st1{fill:#00b268}.st2{fill:#fffaf0}.st3{fill:#002140}.st4{stroke:#002140}.st4,.st5{fill:none;stroke-linecap:round;stroke-linejoin:round}.st6{fill:#d18000}.st5{stroke:#fffaf0}.st7{fill:#722b03}</style></defs><path d="M8 52.551a1.04 1.04 0 0 0 1.04 1.043h5.601a1.04 1.04 0 0 0 1.039-1.043v-.434a1.04 1.04 0 0 0-1.039-1.043H9.04A1.04 1.04 0 0 0 8 52.117zm2.015-26.855h-.909c-.494 0-.897.46-.897 1.032v.423c0 .568.404 1.032.897 1.032h1.365v-2.487z" class="st7"/><path d="M10.472 50.711v.363h2.737V25.453c0-.31-.363-.561-.811-.561h-1.114c-.449 0-.811.25-.811.561z" class="st6"/><path d="M13.209 25.696v2.487h3.062v-2.487z" class="st7"/><path d="m13.28 46.83.034 2.606 7.217-7.119h-2.464l-4.786 4.513Z" class="st3"/><path d="M10.472 50.711V25.453c0-.31.363-.561.811-.561h1.114c.449 0 .811.25.811.561v25.258m.001.363h1.432a1.04 1.04 0 0 1 1.039 1.043v.434a1.04 1.04 0 0 1-1.039 1.043H9.04A1.04 1.04 0 0 1 8 52.551v-.434a1.04 1.04 0 0 1 1.04-1.043zm.333-25.378h2.73v2.487h-2.73m-3.527 0h-.909c-.494 0-.897-.464-.897-1.032v-.423c0-.572.404-1.032.897-1.032h.909M13.28 46.83l.034 2.606 7.217-7.119h-2.464l-4.786 4.513Z" class="st4"/><path d="m55.193 46.83-.034 2.606-7.217-7.119h2.464z" class="st3"/><path d="M60.472 52.551a1.04 1.04 0 0 1-1.04 1.043h-5.601a1.04 1.04 0 0 1-1.039-1.043v-.434a1.04 1.04 0 0 1 1.039-1.043h5.601c.576 0 1.04.467 1.04 1.043zM58 28.183v-2.487h1.365c.494 0 .897.46.897 1.032v.423c0 .568-.404 1.032-.897 1.032zm-2.736-2.487v2.487h-2.449v-2.487z" class="st7"/><path d="M58.001 50.711v.363h-2.737V25.453c0-.31.363-.561.811-.561h1.114c.449 0 .811.25.811.561v25.258Z" class="st6"/><path d="M58.001 50.711V25.453c0-.31-.363-.561-.811-.561h-1.114c-.449 0-.811.25-.811.561v25.258m-.002.363h-1.432a1.04 1.04 0 0 0-1.039 1.043v.434a1.04 1.04 0 0 0 1.039 1.043h5.601a1.04 1.04 0 0 0 1.04-1.043v-.434a1.04 1.04 0 0 0-1.04-1.043zm-.306-25.378h-2.143v2.487h2.143m3.5 0h.909c.494 0 .897-.464.897-1.032v-.423c0-.572-.404-1.032-.897-1.032h-.909M55.193 46.83l-.034 2.606-7.217-7.119h2.464z" class="st4"/><path d="M16.02 35.082V15.481A1.48 1.48 0 0 1 17.501 14h33.582a1.48 1.48 0 0 1 1.481 1.481v19.597" class="st6"/><path d="M17.902 35.074V16.528c0-.355.288-.643.643-.643h31.376c.355 0 .643.288.643.643v18.546" class="st1"/><path d="M53.061 35.097v1.35c0 .819-.692 1.481-1.544 1.481H17.063c-.853 0-1.544-.662-1.544-1.481v-1.35z" class="st6"/><path d="M19.82 34.962v-1.208c0-.449.363-.815.815-.815h3.952c.449 0 .815.363.815.815v1.208" class="st0"/><path d="M55.013 40.417H13.224v2.651h41.789z" class="st6"/><path d="M30.305 33.365h-3.653v1.499h3.653zm5.795.318h-4.401v1.279H36.1z" class="st2"/><path d="M16.028 35.082V15.481A1.48 1.48 0 0 1 17.509 14h33.582a1.48 1.48 0 0 1 1.481 1.481v19.597" class="st4"/><path d="M17.909 35.074V16.528c0-.355.288-.643.643-.643h31.376c.355 0 .643.288.643.643v18.546m2.497.023v1.35c0 .819-.692 1.481-1.544 1.481H17.071c-.852 0-1.544-.662-1.544-1.481v-1.35h37.542Zm1.889 5.32H13.272v2.621h41.685z" class="st4"/><path d="M19.827 34.962v-1.208c0-.449.363-.815.815-.815h3.952c.449 0 .815.363.815.815v1.208m4.903-1.66h-3.653v1.66h3.653zm5.799.063H31.71v1.499h4.401z" class="st4"/><path d="M24.737 20.839v7.65m8.185-7.65v7.65m-5.541-3.492h2.445m6.244-.812h2.445m-2.445 1.414h2.445m-9.912-1.825v2.445m12.16-4.202s.497-1.178 1.877-1.178c1.301 0 2.214.882 1.686 2.696-.527 1.814-3.915 4.955-3.915 4.955l5.104-.034" class="st5"/></svg>