<svg xmlns="http://www.w3.org/2000/svg" width="48" height="48" fill="none" viewBox="0 0 48 48"><path fill="#b0d9ff" d="M41.193 15.57 22.406 1.784 4.273 15.652l.329 3.936V36.9h-.821v2.873h7.302v-1.479h7.63v1.395h7.71v-1.395h7.387v1.642h7.547v-2.79h-.821V19.18z"/><path fill="#e5fafe" d="M10.591 19.262H4.602v17.556h5.989zm14.769.244h-5.744v17.557h5.744zm15.178.082h-5.826V36.9h5.826z"/><path fill="#5ab0ff" d="M10.59 30.829h9.026V19.506l-.492-3.773h-8.123l-.576 4.102zm14.934 0h9.023V19.506l-.492-3.773h-8.123l-.574 4.102z"/><path fill="#002140" d="M12.943 30.693h4.376v-6.892s-.163-2.242-2.134-2.242-2.08 2.406-2.08 2.406zm14.885-.057 4.256.057v-6.892s-.163-2.242-2.134-2.242-2.08 2.406-2.08 2.406l-.044 6.671z"/><path fill="#8dc8ff" d="M13.274 13.107H31.98l-9.493-7.794z"/><path stroke="#002140" stroke-linecap="round" stroke-linejoin="round" stroke-width=".824" d="M4.12 15.622h36.917L22.578 1.592zm0 0s.491 2.134.491 3.855h5.824c0-1.724.492-3.855.492-3.855m-6.315 3.855v17.311m5.823-17.311v17.23M7.618 19.724v16.901m3.665.361H3.825v2.735h7.458zm22.863-21.364s.492 2.134.492 3.855h5.826c0-1.724.492-3.855.492-3.855m-6.318 3.855v17.311m5.826-17.311v17.23m-2.816-16.983v16.901m3.664.361h-7.458v2.735h7.458z"/><path fill="#008c59" d="M19.174 15.622s.492 2.134.492 3.855h5.826c0-1.724.492-3.855.492-3.855"/><path stroke="#002140" stroke-linecap="round" stroke-linejoin="round" stroke-width=".824" d="M19.174 15.622s.492 2.134.492 3.855h5.826c0-1.724.492-3.855.492-3.855m-6.318 3.855v17.311m5.826-17.311v17.23m-2.817-16.983v16.901"/><path fill="#085239" stroke="#002140" stroke-linecap="round" stroke-linejoin="round" stroke-width=".824" d="M26.337 36.986H18.88v2.735h7.457z"/><path stroke="#002140" stroke-linecap="round" stroke-linejoin="round" stroke-width=".824" d="M11.338 38.225h7.542m7.882 0h7.092m-23.172-3.734h8.697M10.682 30.8h8.697m6.236 3.691h8.697M25.615 30.8h8.697m-16.985-.082v-7.015a2.173 2.173 0 1 0-4.348 0v6.933m14.849 0v-6.933a2.173 2.173 0 1 1 4.347 0v7.015"/><path fill="#e4bc07" d="M38.502 44.66a7.795 7.795 0 1 0 0-15.59 7.795 7.795 0 0 0 0 15.59"/><path fill="#fee45e" d="M37.906 29.14s-5.225-.112-7.087 6.11c.363.288.833.45 1.29.37.456-.08.875-.314 1.244-.6.33-.253.624-.552.873-.886.365-.485.65-1.057 1.156-1.393.633-.424 1.48-.39 2.134-.781.459-.276.788-.758.877-1.285.09-.527-.14-1.125-.484-1.534z"/><path stroke="#002140" stroke-linecap="round" stroke-linejoin="round" stroke-width=".824" d="M38.36 44.797a7.842 7.842 0 1 0 0-15.684 7.842 7.842 0 0 0 0 15.684"/><path stroke="#d18000" stroke-miterlimit="10" stroke-width=".824" d="M38.372 43.167a6.273 6.273 0 1 0 0-12.546 6.273 6.273 0 0 0 0 12.546Z"/></svg>