<svg xmlns="http://www.w3.org/2000/svg" xml:space="preserve" id="Layer_1" x="0" y="0" viewBox="0 0 68 68"><style>.st0{fill:#e4bc07}.st1{fill:#002140}.st2{fill:#e96df2}.st3{fill:#03d47c}.st4{fill:#99f7fc}</style><path d="M54.5 26.5h-43c-1.3 0-2.3 1-2.3 2.3v23.5c0 1.3 1 2.3 2.3 2.3h43c1.3 0 2.3-1 2.3-2.3V28.8c0-1.3-1-2.3-2.3-2.3" class="st0"/><path d="M54.1 54.9H11.7c-1.8 0-3.2-1.5-3.2-3.2V29.1c0-1.8 1.5-3.2 3.2-3.2h42.4c1.8 0 3.2 1.5 3.2 3.2v22.5c.1 1.8-1.4 3.3-3.2 3.3m-42.4-28c-1.2 0-2.2 1-2.2 2.2v22.5c0 1.2 1 2.2 2.2 2.2h42.4c1.2 0 2.2-1 2.2-2.2V29.1c0-1.2-1-2.2-2.2-2.2z" class="st1"/><path d="M20 50.3h-6.5c-.3 0-.5-.2-.5-.5s.2-.5.5-.5H20c.3 0 .5.2.5.5s-.2.5-.5.5m9.4 0H23c-.3 0-.5-.2-.5-.5s.2-.5.5-.5h6.5c.3 0 .5.2.5.5s-.3.5-.6.5" class="st1"/><path d="M20.1 38.4h-1.2c-.3 0-.5.2-.5.5v2.2c0 .3.2.5.5.5h1.2c.3 0 .5-.2.5-.5v-2.2c0-.3-.2-.5-.5-.5" class="st2"/><path d="M21.8 35.2H20c-.3 0-.5.2-.5.5V38c0 .3.2.5.5.5h1.8c.3 0 .5-.2.5-.5v-2.4c0-.2-.2-.4-.5-.4m1.2 3.7h-1.2c-.3 0-.5.2-.5.5V41c0 .3.2.5.5.5H23c.3 0 .5-.2.5-.5v-1.6c0-.2-.2-.5-.5-.5" class="st2"/><path d="M25.4 35.2h-1.8c-.3 0-.5.2-.5.5v3.2c0 .3.2.5.5.5h1.8c.3 0 .5-.2.5-.5v-3.2c0-.3-.2-.5-.5-.5m-7.6 5.9v-5.5c0-.3-.2-.5-.5-.5h-1.9c-.2 0-.3.1-.4.2l-.6.8c-.1.1-.1.2-.1.3v4c0 .1 0 .2.1.3l.5.7c.1.1.3.2.4.2h2.1c.1 0 .4-.2.4-.5" class="st2"/><path d="M61.3 19.6 19.4 9.7c-1.2-.3-2.5.5-2.8 1.7l-5.4 22.8c-.3 1.2.5 2.5 1.7 2.8l41.8 9.9c1.2.3 2.5-.5 2.8-1.7L63 22.4c.2-1.2-.5-2.5-1.7-2.8" class="st3"/><path d="M55.1 47.3c-.2 0-.5 0-.7-.1l-41.2-9.8c-1.7-.4-2.8-2.2-2.4-3.9L16 11.6c.2-.8.7-1.6 1.5-2 .7-.5 1.6-.6 2.4-.4L61 18.9c1.7.4 2.8 2.2 2.4 3.9l-5.2 21.9c-.3 1.6-1.7 2.6-3.1 2.6M19 10.1q-.6 0-1.2.3c-.5.3-.9.8-1 1.4l-5.2 21.9c-.1.6 0 1.2.3 1.7s.8.9 1.4 1l41.2 9.8c1.2.3 2.4-.5 2.7-1.7l5.2-21.9c.3-1.2-.5-2.4-1.7-2.7l-41.2-9.8z" class="st1"/><path d="M22.3 34.9h-.1l-6.3-1.5c-.3-.1-.4-.3-.4-.6.1-.3.3-.4.6-.4l6.3 1.5c.3.1.4.3.4.6-.1.2-.3.4-.5.4m9.2 2.1h-.1l-6.3-1.5c-.3-.1-.4-.3-.4-.6.1-.3.3-.4.6-.4l6.3 1.5c.3.1.4.3.4.6-.1.3-.3.4-.5.4" class="st1"/><path d="m25.6 24.3-1.1-.3c-.3-.1-.6.1-.6.4l-.5 2c-.1.3.1.6.4.6l1.1.3c.3.1.6-.1.6-.4l.5-2c.1-.2-.1-.5-.4-.6m.7-3-1-.3c-.3-.1-.6.1-.6.4l-.4 1.5c-.1.3.1.6.4.6l1.1.3c.3.1.6-.1.6-.4l.4-1.5c0-.3-.2-.5-.5-.6m1.9 4.1-1.1-.3c-.3-.1-.6.1-.6.4l-.4 1.5c-.1.3.1.6.4.6l1.1.3c.3.1.6-.1.6-.4l.4-1.5c.1-.2-.1-.5-.4-.6m.8-3.5-1.1-.3c-.3-.1-.6.1-.6.4l-.5 2.1c-.1.3.1.6.4.6l1.1.3c.3.1.6-.1.6-.4l.5-2.1c0-.2-.1-.5-.4-.6m-6.1 4.4 1.2-5.1c.1-.3-.1-.5-.4-.6l-1.7-.4c-.1 0-.3 0-.4.1l-.8.6c-.1.1-.1.2-.2.3l-.9 3.7v.3l.3.7c.1.2.2.3.4.3l1.9.4c.2.2.5 0 .6-.3" class="st4"/><path d="m54.6 27.5-15.5-3.7c-1.2-.3-2.4.5-2.7 1.7l-.4 1.8c-.3 1.2.5 2.4 1.7 2.7l15.5 3.7c1.2.3 2.4-.5 2.7-1.7l.4-1.8c.3-1.2-.5-2.4-1.7-2.7" class="st1"/><path d="M48.8 45.9c-.1 2.4-2.1 4.3-4.5 4.3C41.9 50 40 48 40 45.6c0-.6.2-1.2.4-1.7" class="st2"/></svg>