<svg xmlns="http://www.w3.org/2000/svg" id="Layer_1" viewBox="0 0 68 68"><defs><style>.st0{fill:#fffaf0}.st1{fill:none;stroke:#002140;stroke-linecap:round;stroke-linejoin:round;stroke-width:1px}</style></defs><path d="M40.008 44.82s2.766 7.471 2.353 9.686-.138 4.981-4.155 4.981-5.813-3.047-5.95-4.155c-.138-1.107-1.94-9.273-4.568-10.38s-7.195-4.568-7.195-4.568-1.383.694-3.46-.138-4.705-3.185-4.705-6.645.695-10.105 2.353-11.075 5.675-.694 5.675-.694 6.783-9.686 18.133-8.86 15.223 5.675 15.086 6.37-2.353 4.981-2.353 4.981 4.292 3.322 3.873 5.537-3.46 4.981-3.46 4.981 3.185.97 2.628 3.46c-.551 2.49-1.94 7.058-7.058 6.783s-7.196-.275-7.196-.275v.013Z" class="st0"/><path d="M20.318 22.458c-.745-.657-1.589-1.026-2.484-1.026-3.041 0-5.5 4.274-5.5 9.548s2.465 9.548 5.5 9.548c.92 0 1.783-.388 2.547-1.082" class="st1"/><path d="M19.943 34.233s-.413 4.981 2.215 7.058 7.752 3.047 8.86 8.998 2.766 9.41 6.088 9.686 5.4-1.658 5.4-6.645-3.46-9.135-3.46-9.135M19.804 28.145s-2.91-14.116 19.378-14.948c14.116-.138 16.888 6.645 11.625 11.075" class="st1"/><path d="M42.781 24.266s11.901-1.802 11.901 5.537S42.5 34.646 42.5 34.646" class="st1"/><path d="M49.256 34.896s5.35-.801 5.281 3.629c0 2.353-2.628 9.135-15.499 5.675" class="st1"/></svg>