<?xml version="1.0" encoding="UTF-8"?>
<svg id="Layer_1" xmlns="http://www.w3.org/2000/svg" version="1.1" viewBox="0 0 68 68">
  <!-- Generator: Adobe Illustrator 30.0.0, SVG Export Plug-In . SVG Version: 2.1.1 Build 123)  -->
  <defs>
    <style>
      .st0 {
        stroke: #f25730;
        stroke-width: 3px;
      }

      .st0, .st1, .st2, .st3 {
        stroke-linecap: round;
        stroke-linejoin: round;
      }

      .st0, .st3 {
        fill: none;
      }

      .st4 {
        fill: #f25730;
      }

      .st1 {
        fill: #ccf6ff;
      }

      .st1, .st2, .st3 {
        stroke: #002140;
        stroke-width: 1px;
      }

      .st2 {
        fill: #fffaf0;
      }
    </style>
  </defs>
  <path class="st1" d="M34,59c13.807,0,25-11.193,25-25s-11.193-25-25-25-25,11.193-25,25,11.193,25,25,25Z"/>
  <path class="st2" d="M34,54c11.046,0,20-8.954,20-20s-8.954-20-20-20-20,8.954-20,20,8.954,20,20,20Z"/>
  <path class="st3" d="M34,18v4"/>
  <path class="st3" d="M34,46v4"/>
  <path class="st3" d="M50,33.995h-4"/>
  <path class="st3" d="M22,33.995h-4"/>
  <path class="st3" d="M26,20.144l2,3.464"/>
  <path class="st3" d="M40,44.392l2,3.464"/>
  <path class="st3" d="M47.854,25.996l-3.464,2"/>
  <path class="st3" d="M23.605,39.996l-3.464,2"/>
  <path class="st3" d="M20.144,26l3.464,2"/>
  <path class="st3" d="M44.392,40l3.464,2"/>
  <path class="st3" d="M41.996,20.141l-2,3.464"/>
  <path class="st3" d="M27.996,44.39l-2,3.464"/>
  <path class="st4" d="M34,38c2.209,0,4-1.791,4-4s-1.791-4-4-4-4,1.791-4,4,1.791,4,4,4Z"/>
  <path class="st0" d="M34,22v12l10,10"/>
</svg>