<?xml version="1.0" encoding="utf-8"?>
<!-- Generator: Adobe Illustrator 28.1.0, SVG Export Plug-In . SVG Version: 6.00 Build 0)  -->
<svg version="1.1" id="Layer_1" xmlns="http://www.w3.org/2000/svg" xmlns:xlink="http://www.w3.org/1999/xlink" x="0px" y="0px"
	 viewBox="0 0 68 68" style="enable-background:new 0 0 68 68;" xml:space="preserve">
<style type="text/css">
	.st0{fill:#4ED7DE;}
	.st1{fill:#99F6FF;}
	.st2{fill:none;stroke:#002140;stroke-linecap:round;stroke-linejoin:round;}
</style>
<path class="st0" d="M12.75,37.082c0,0-5.432-7.6-3.379-12.306c2.048-4.71,4.946-12.07,18.824-12.19
	c13.877-0.12,18.223,12.791,17.501,17.136s-6.758,11.585-13.637,12.671s-10.138-0.12-10.138-0.12s-6.638,3.74-13.396,1.688
	C8.525,43.961,12.024,39.615,12.75,37.082z"/>
<path class="st1" d="M45.21,24.411c0,0,1.932,9.777-5.067,14.242c-6.033,3.62-9.171,4.706-17.257,4.105c0,0,0.726,4.946,6.277,8.205
	s12.671,3.985,15.93,2.533c0,0,9.172,3.139,13.517,1.567c0,0-4.225-5.552-4.105-7.239c0,0,4.826-4.586,3.62-10.863
	c-1.207-6.277-7.724-12.19-12.911-12.551H45.21z"/>
<path class="st2" d="M12.682,36.829c-0.457,3.551-4.277,7.223-4.277,7.223s9.584,1.022,13.942-1.607"/>
<path class="st2" d="M22.37,42.441c1.96,6.662,9.139,11.601,17.693,11.601c1.732,0,3.407-0.201,4.995-0.581"/>
<path class="st2" d="M54.723,47.845c2.241-2.537,3.564-5.672,3.564-9.071c0-6.851-5.387-12.647-12.803-14.579"/>
<path class="st2" d="M54.723,47.845C55.18,51.396,59,55.068,59,55.068s-9.584,1.022-13.942-1.607"/>
<path class="st2" d="M12.682,36.829c-2.241-2.537-3.564-5.672-3.564-9.071c0-8.43,8.157-15.264,18.223-15.264
	c10.065,0,18.223,6.834,18.223,15.268c0,8.434-8.157,15.268-18.223,15.268c-1.732,0-3.407-0.2-4.995-0.581"/>
</svg>
