<?xml version="1.0" encoding="utf-8"?>
<!-- Generator: Adobe Illustrator 28.1.0, SVG Export Plug-In . SVG Version: 6.00 Build 0)  -->
<svg version="1.1" id="Layer_1" xmlns="http://www.w3.org/2000/svg" xmlns:xlink="http://www.w3.org/1999/xlink" x="0px" y="0px"
	 viewBox="0 0 68 68" style="enable-background:new 0 0 68 68;" xml:space="preserve">
<style type="text/css">
	.st0{fill:#00B268;}
	.st1{fill:#FEE45E;}
	.st2{fill:#5BE3AA;}
	.st3{fill:none;stroke:#002140;stroke-width:1;stroke-linecap:round;stroke-linejoin:round;}
	.st4{fill:#722B03;}
	.st5{fill:#F25730;}
	.st6{fill:#FFFAF0;}
	.st7{fill:#FFED8F;}
	.st8{fill:#D18000;}
</style>
<path class="st0" d="M54.345,17.48l-20.488-5.49l-8.844,33.008l20.488,5.49L54.345,17.48z"/>
<path class="st1" d="M37.72,38.264c2.555,0.685,5.47-1.914,6.512-5.803c1.042-3.889-0.184-7.597-2.738-8.282
	c-2.555-0.684-5.47,1.914-6.512,5.803C33.94,33.872,35.166,37.58,37.72,38.264z"/>
<path class="st2" d="M35.942,17.64c0.786,0.21,1.593-0.256,1.804-1.041c0.211-0.786-0.256-1.593-1.041-1.804
	c-0.786-0.21-1.593,0.256-1.804,1.041C34.69,16.622,35.156,17.429,35.942,17.64z"/>
<path class="st1" d="M49.748,21.365c0.786,0.211,1.593-0.256,1.804-1.041c0.211-0.786-0.256-1.593-1.041-1.804
	c-0.786-0.21-1.593,0.256-1.804,1.041C48.496,20.347,48.962,21.154,49.748,21.365z"/>
<path class="st1" d="M42.652,47.846c0.786,0.21,1.593-0.256,1.804-1.041c0.21-0.786-0.256-1.593-1.041-1.804
	c-0.786-0.21-1.593,0.256-1.804,1.041C41.401,46.828,41.867,47.635,42.652,47.846z"/>
<path class="st2" d="M28.838,44.151c0.786,0.21,1.593-0.256,1.804-1.041s-0.256-1.593-1.041-1.804
	c-0.786-0.21-1.593,0.256-1.804,1.041C27.587,43.133,28.053,43.94,28.838,44.151z"/>
<path class="st3" d="M54.238,17.503l-20.394-5.464L25,45.047l20.394,5.464L54.238,17.503z"/>
<path class="st3" d="M37.683,38.501c2.578,0.691,5.535-1.984,6.604-5.974s-0.154-7.785-2.732-8.475
	c-2.578-0.691-5.535,1.984-6.604,5.974S35.105,37.811,37.683,38.501z"/>
<path class="st3" d="M49.692,21.574c0.901,0.242,1.827-0.293,2.069-1.194c0.241-0.901-0.293-1.827-1.194-2.069
	c-0.901-0.242-1.827,0.293-2.069,1.194C48.256,20.406,48.791,21.333,49.692,21.574z"/>
<path class="st3" d="M35.889,17.876c0.901,0.242,1.827-0.293,2.069-1.194c0.242-0.901-0.293-1.828-1.194-2.069
	c-0.901-0.241-1.827,0.293-2.069,1.194S34.988,17.634,35.889,17.876z"/>
<path class="st3" d="M42.596,48.055c0.901,0.242,1.827-0.293,2.069-1.194c0.241-0.901-0.293-1.827-1.195-2.069
	c-0.901-0.241-1.827,0.293-2.069,1.194C41.16,46.887,41.695,47.814,42.596,48.055z"/>
<path class="st3" d="M28.793,44.357c0.901,0.242,1.827-0.293,2.069-1.194s-0.293-1.827-1.194-2.069
	c-0.901-0.241-1.827,0.293-2.069,1.194C27.357,43.189,27.892,44.115,28.793,44.357z"/>
<path class="st3" d="M29.894,39.496l5.372-20.048"/>
<path class="st3" d="M39.481,45.826l-6.876-1.842"/>
<path class="st3" d="M49.397,23.234l-5.388,20.109"/>
<path class="st3" d="M39.812,16.892l6.949,1.862"/>
<path class="st3" d="M39.548,45.662c0.486-1.814,2.351-2.891,4.165-2.405c0.07,0.019,0.137,0.037,0.205,0.061"/>
<path class="st3" d="M32.605,43.801c0.486-1.814-0.591-3.679-2.405-4.165c-0.07-0.019-0.136-0.037-0.208-0.049"/>
<path class="st3" d="M46.693,18.996c-0.486,1.814,0.591,3.679,2.405,4.165c0.07,0.019,0.137,0.037,0.208,0.049"/>
<path class="st3" d="M39.75,17.136c-0.486,1.814-2.351,2.891-4.165,2.405c-0.07-0.019-0.137-0.037-0.205-0.061"/>
<path class="st0" d="M47.361,50.863l-19.331-8.726L42.086,10.99l15.337,6.977l1.588,6.849L47.361,50.863z"/>
<path class="st2" d="M57.446,18.331c0,0-2.451,0.741-2.416,4.092c0,0,3.389,0.83,4.007,2.007L57.446,18.331z"/>
<path class="st2" d="M49.162,32.94c1.656-3.67,1.045-7.528-1.365-8.615c-2.41-1.088-5.707,1.006-7.364,4.676
	c-1.656,3.67-1.045,7.527,1.365,8.615C44.209,38.704,47.506,36.61,49.162,32.94z"/>
<path class="st2" d="M43.595,17.057c0.786,0.21,1.593-0.256,1.804-1.041c0.21-0.786-0.256-1.593-1.041-1.804
	s-1.593,0.256-1.804,1.041C42.343,16.039,42.809,16.847,43.595,17.057z"/>
<path class="st2" d="M45.339,47.948c0.786,0.21,1.593-0.256,1.804-1.041c0.21-0.786-0.256-1.593-1.041-1.804
	c-0.786-0.21-1.593,0.256-1.804,1.041C44.087,46.93,44.554,47.738,45.339,47.948z"/>
<path class="st2" d="M32.306,42.07c0.786,0.21,1.593-0.256,1.804-1.041c0.211-0.786-0.256-1.593-1.041-1.804
	c-0.786-0.21-1.593,0.256-1.804,1.041C31.054,41.052,31.52,41.859,32.306,42.07z"/>
<path class="st3" d="M59.15,24.889l-11.76,26.054l-19.244-8.687l14.061-31.148l15.356,6.93c0,0-2.31,0.954-2.644,4.516
	c3.687,0.445,4.231,2.333,4.231,2.333"/>
<path class="st3" d="M49.203,33.01c1.699-3.765,1.105-7.707-1.328-8.805c-2.433-1.098-5.782,1.064-7.481,4.829
	c-1.699,3.765-1.105,7.707,1.328,8.805C44.155,38.938,47.504,36.775,49.203,33.01z"/>
<path class="st3" d="M43.538,17.292c0.901,0.241,1.827-0.293,2.069-1.195c0.241-0.901-0.293-1.828-1.194-2.069
	c-0.901-0.241-1.827,0.293-2.069,1.194S42.637,17.051,43.538,17.292z"/>
<path class="st3" d="M45.283,48.158c0.901,0.241,1.827-0.293,2.069-1.194c0.242-0.901-0.293-1.827-1.194-2.069
	s-1.827,0.293-2.069,1.194C43.847,46.99,44.382,47.916,45.283,48.158z"/>
<path class="st3" d="M32.262,42.279c0.901,0.242,1.827-0.293,2.069-1.194c0.241-0.901-0.293-1.827-1.194-2.069
	c-0.901-0.241-1.828,0.293-2.069,1.194C30.826,41.111,31.361,42.038,32.262,42.279z"/>
<path class="st3" d="M33.872,37.568l8.538-18.92"/>
<path class="st3" d="M42.314,45.362l-6.49-2.929"/>
<path class="st3" d="M55.748,24.67l-8.566,18.974"/>
<path class="st3" d="M47.314,16.861l6.554,2.959"/>
<path class="st3" d="M42.405,45.212c0.774-1.711,2.789-2.474,4.5-1.701c0.063,0.03,0.13,0.061,0.19,0.093"/>
<path class="st3" d="M35.855,42.254c0.774-1.711,0.01-3.726-1.701-4.5c-0.063-0.03-0.131-0.058-0.196-0.082"/>
<path class="st3" d="M53.764,20.049c-0.774,1.711-0.01,3.726,1.701,4.5c0.063,0.03,0.131,0.058,0.196,0.082"/>
<path class="st3" d="M47.21,17.09c-0.774,1.711-2.789,2.474-4.5,1.701c-0.063-0.03-0.13-0.061-0.19-0.093"/>
<path class="st3" d="M57.563,18.04l1.588,6.849"/>
<path class="st4" d="M45.157,37.73l18.605-0.565v-3.977H45.867L22.999,16L4.248,33.47l2.843,3.125l16.332-14.915L45.157,37.73z"/>
<path class="st5" d="M8.132,29.54l6.062-5.681h-6.25L8.132,29.54z"/>
<path class="st6" d="M7.562,37.118v15.244h55.112V37.306H45.157L23.423,21.681L7.562,37.118z"/>
<path class="st5" d="M20.383,41.005v10.985h7.954V41.103L20.383,41.005z"/>
<path class="st7" d="M26.835,46.3c0.444,0,0.805-0.36,0.805-0.805s-0.36-0.805-0.805-0.805s-0.805,0.36-0.805,0.805
	S26.39,46.3,26.835,46.3z"/>
<path class="st7" d="M27.451,28.688h-6.156v7.479h6.156V28.688z"/>
<path class="st7" d="M17.035,40.808H10.88v7.479h6.156V40.808z"/>
<path class="st7" d="M38.812,41.095h-6.156v7.479h6.156V41.095z"/>
<path class="st8" d="M59.36,42.417H46.291v9.846H59.36V42.417z"/>
<path class="st3" d="M63.894,33.051l-17.993-0.047L23.174,16.103L4,33.667l3.266,3.078l16.1-15.338l21.589,16.002l19.033-0.188
	L63.894,33.051z"/>
<path class="st3" d="M7.267,36.745v15.531h55.587V37.597"/>
<path class="st3" d="M46.09,51.895v-9.564h13.352v9.469"/>
<path class="st3" d="M46.188,45.838h12.877"/>
<path class="st3" d="M46.188,49.057h12.877"/>
<path class="st3" d="M20.76,51.377v-10.42h7.954v10.3"/>
<path class="st3" d="M26.963,46.732c0.549,0,0.993-0.445,0.993-0.993s-0.445-0.993-0.993-0.993s-0.993,0.445-0.993,0.993
	S26.414,46.732,26.963,46.732z"/>
<path class="st3" d="M16.928,40.722h-6.156v7.671h6.156V40.722z"/>
<path class="st3" d="M39.228,40.722h-6.156v7.671h6.156V40.722z"/>
<path class="st3" d="M27.673,28.65h-6.156v7.671h6.156V28.65z"/>
<path class="st3" d="M7.93,29.549v-5.775h6.25"/>
<path class="st3" d="M8.405,26.33h1.134"/>
</svg>
