<?xml version="1.0" encoding="utf-8"?>
<!-- Generator: Adobe Illustrator 28.1.0, SVG Export Plug-In . SVG Version: 6.00 Build 0)  -->
<svg version="1.1" id="Layer_1" xmlns="http://www.w3.org/2000/svg" xmlns:xlink="http://www.w3.org/1999/xlink" x="0px" y="0px"
	 viewBox="0 0 68 68" style="enable-background:new 0 0 68 68;" xml:space="preserve">
<style type="text/css">
	.st0{fill:#FFA75A;stroke:#002140;stroke-linecap:round;stroke-linejoin:round;}
	.st1{fill:#F25730;}
	.st2{fill:#FFFAF0;}
	.st3{fill:none;stroke:#002140;stroke-linecap:round;stroke-linejoin:round;}
	.st4{fill:#FFA75A;}
	.st5{fill:#F25730;stroke:#002140;stroke-linecap:round;stroke-linejoin:round;}
</style>
<path class="st0" d="M59.011,34.61c0.026,1.744,0.782,4.944,0.795,6.688c0.013,1.744-0.601,3.677-2.143,4.493
	c-2.049,1.083-4.918-0.176-6.705,1.302l1.155-2.448c1.254-0.782,2.947,0.099,4.059-0.49c1.74-0.919,1.68-2.362,1.667-3.866
	c-0.013-1.503-0.601-4.252-0.618-5.756v-0.095c0.021-1.503,0.61-4.252,0.618-5.756c0.009-1.503,0.069-2.947-1.667-3.866
	c-1.117-0.588-2.809,0.292-4.059-0.49l-1.155-2.448c1.787,1.473,4.66,0.215,6.705,1.302c1.542,0.816,2.161,2.745,2.143,4.493
	c-0.017,1.748-0.773,4.944-0.795,6.688v0.258V34.61z"/>
<path class="st0" d="M33.458,59.6c-1.744,0.026-4.944,0.782-6.688,0.795c-1.744,0.013-3.677-0.601-4.493-2.143
	c-1.082-2.049,0.176-4.918-1.302-6.705l2.448,1.155c0.782,1.254-0.099,2.947,0.49,4.059c0.919,1.74,2.362,1.68,3.866,1.667
	c1.503-0.013,4.252-0.601,5.756-0.618h0.095c1.503,0.021,4.252,0.61,5.756,0.618c1.503,0.009,2.947,0.069,3.866-1.667
	c0.589-1.117-0.292-2.809,0.49-4.059l2.448-1.155c-1.473,1.787-0.215,4.66-1.302,6.705c-0.816,1.542-2.745,2.161-4.493,2.143
	s-4.944-0.773-6.688-0.795H33.45H33.458z"/>
<path class="st0" d="M33.716,9.202c1.744-0.026,4.944-0.782,6.688-0.795c1.744-0.013,3.677,0.601,4.493,2.143
	c1.082,2.049-0.176,4.918,1.301,6.705l-2.448-1.156c-0.782-1.254,0.099-2.947-0.49-4.059c-0.919-1.74-2.362-1.679-3.866-1.667
	c-1.503,0.013-4.253,0.601-5.756,0.618h-0.094c-1.503-0.021-4.253-0.61-5.756-0.618c-1.503-0.009-2.947-0.069-3.866,1.667
	c-0.588,1.117,0.292,2.809-0.49,4.059l-2.448,1.156c1.473-1.787,0.215-4.66,1.302-6.705c0.816-1.542,2.745-2.161,4.493-2.143
	c1.748,0.017,4.944,0.773,6.688,0.795h0.258H33.716z"/>
<path class="st0" d="M8.18,34.352c-0.026-1.744-0.782-4.944-0.795-6.688c-0.013-1.744,0.601-3.677,2.143-4.493
	c2.049-1.082,4.918,0.176,6.705-1.302l-1.155,2.448c-1.254,0.782-2.947-0.099-4.059,0.49c-1.74,0.919-1.68,2.362-1.667,3.866
	c0.013,1.503,0.601,4.252,0.619,5.756v0.094c-0.021,1.503-0.61,4.252-0.619,5.756c-0.009,1.503-0.069,2.947,1.667,3.866
	c1.117,0.588,2.809-0.292,4.059,0.49l1.155,2.448c-1.787-1.473-4.66-0.215-6.705-1.301c-1.542-0.816-2.161-2.745-2.143-4.493
	c0.013-1.744,0.773-4.944,0.795-6.688v-0.258V34.352z"/>
<path class="st1" d="M54.598,31.891c0.099,0.838,0.155,1.697,0.155,2.564c0,0.868-0.052,1.744-0.155,2.586l-0.326-0.039h-9.055
	l-0.12-0.026c0.176-0.812,0.271-1.658,0.271-2.526c0-0.868-0.09-1.68-0.258-2.478l0.112-0.021h8.818l0.567-0.065L54.598,31.891z"/>
<path class="st2" d="M54.597,31.89l-0.567,0.065h-8.818L45.1,31.976c-0.971-4.557-4.57-8.14-9.132-9.089l0.073-0.339v-8.814
	l0.039-0.326c9.673,1.151,17.349,8.814,18.513,18.487L54.597,31.89z"/>
<path class="st2" d="M54.267,37.007l0.326,0.039c-1.177,9.652-8.836,17.298-18.492,18.457l-0.056-0.507v-8.818l-0.039-0.163
	c4.532-0.958,8.101-4.514,9.085-9.033l0.12,0.026H54.267z"/>
<path class="st1" d="M36.046,54.995l0.056,0.507c-0.838,0.103-1.688,0.155-2.551,0.155c-0.863,0-1.74-0.052-2.586-0.155l0.03-0.266
	v-9.055l0.039-0.176c0.807,0.176,1.654,0.271,2.517,0.271c0.863,0,1.667-0.086,2.457-0.258l0.039,0.163V55V54.995z"/>
<path class="st1" d="M36.084,13.408l-0.039,0.326v8.818l-0.073,0.339c-0.782-0.163-1.594-0.249-2.423-0.249
	c-0.829,0-1.714,0.095-2.53,0.275l-0.026-0.125v-9.059l-0.039-0.318c0.851-0.103,1.714-0.155,2.594-0.155
	c0.881,0,1.701,0.052,2.53,0.15L36.084,13.408z"/>
<path class="st2" d="M31.033,46.001l-0.039,0.176v9.055l-0.03,0.266c-9.639-1.173-17.285-8.818-18.457-18.457l0.262-0.03h9.055
	l0.185-0.039c0.971,4.502,4.519,8.054,9.025,9.033V46.001z"/>
<path class="st2" d="M30.994,22.784l0.026,0.125c-4.532,0.988-8.088,4.579-9.037,9.128l-0.395-0.086h-8.818l-0.271-0.03
	c1.151-9.665,8.801-17.332,18.457-18.513l0.039,0.318v9.055V22.784z"/>
<path class="st1" d="M22.009,36.968l-0.185,0.039h-9.055l-0.262,0.03c-0.103-0.846-0.155-1.71-0.155-2.581
	c0-0.872,0.052-1.701,0.15-2.53l0.271,0.03h8.818l0.395,0.086c-0.159,0.777-0.245,1.589-0.245,2.414
	c0,0.825,0.094,1.701,0.271,2.513H22.009z"/>
<path class="st3" d="M54.596,31.89c0.099,0.838,0.155,1.697,0.155,2.564c0,0.868-0.051,1.744-0.155,2.586
	c-1.177,9.652-8.836,17.298-18.492,18.457c-0.838,0.103-1.688,0.155-2.551,0.155c-0.863,0-1.74-0.052-2.586-0.155
	c-9.639-1.173-17.285-8.818-18.457-18.457c-0.103-0.846-0.155-1.71-0.155-2.581c0-0.872,0.052-1.701,0.15-2.53
	c1.151-9.665,8.801-17.332,18.457-18.513c0.851-0.103,1.714-0.155,2.594-0.155c0.881,0,1.701,0.051,2.53,0.15
	c9.673,1.151,17.349,8.814,18.513,18.487L54.596,31.89z"/>
<path class="st3" d="M45.103,31.977c0.172,0.799,0.258,1.628,0.258,2.478c0,0.85-0.095,1.714-0.271,2.526
	c-0.988,4.519-4.557,8.075-9.085,9.033c-0.795,0.172-1.615,0.258-2.457,0.258s-1.709-0.094-2.517-0.271
	c-4.506-0.979-8.054-4.532-9.025-9.033c-0.176-0.807-0.271-1.649-0.271-2.513c0-0.863,0.086-1.637,0.245-2.414
	c0.945-4.549,4.502-8.14,9.037-9.128c0.816-0.18,1.662-0.275,2.53-0.275c0.868,0,1.641,0.086,2.423,0.249
	C40.533,23.837,44.132,27.419,45.103,31.977z"/>
<path class="st3" d="M12.772,31.955h8.814"/>
<path class="st3" d="M21.823,37.006h-9.05"/>
<path class="st3" d="M45.216,31.955h8.814"/>
<path class="st3" d="M54.266,37.006h-9.05"/>
<path class="st3" d="M36.045,13.734v8.814"/>
<path class="st3" d="M30.993,22.784v-9.05"/>
<path class="st3" d="M36.045,46.177v8.818"/>
<path class="st3" d="M30.993,55.231v-9.055"/>
<path class="st4" d="M33.458,59.6c-1.744,0.026-4.944,0.782-6.688,0.795c-1.744,0.013-3.677-0.601-4.493-2.143
	c-1.082-2.049,0.176-4.918-1.301-6.705l1.374-2.135c2.234,2.526,0.979,6.237,1.568,7.354c0.919,1.74,2.362,1.68,3.866,1.667
	c1.503-0.013,4.252-0.601,5.756-0.618"/>
<path class="st3" d="M33.458,59.6c-1.744,0.026-4.944,0.782-6.688,0.795c-1.744,0.013-3.677-0.601-4.493-2.143
	c-1.082-2.049,0.176-4.918-1.301-6.705l1.374-2.135c2.234,2.526,0.979,6.237,1.568,7.354c0.919,1.74,2.362,1.68,3.866,1.667
	c1.503-0.013,4.252-0.601,5.756-0.618"/>
<path class="st4" d="M8.193,34.313c-0.026-1.744-0.782-4.944-0.795-6.688C7.385,25.881,8,23.948,9.542,23.132
	c2.049-1.082,4.918,0.176,6.705-1.301l1.229-1.28l0.911,2.654c-2.526,2.234-6.237,0.979-7.354,1.568
	c-1.74,0.919-1.679,2.363-1.667,3.866c0.013,1.503,0.601,4.252,0.619,5.756"/>
<path class="st3" d="M8.193,34.313c-0.026-1.744-0.782-4.944-0.795-6.688C7.385,25.881,8,23.948,9.542,23.132
	c2.049-1.082,4.918,0.176,6.705-1.301l1.229-1.28l0.911,2.654c-2.526,2.234-6.237,0.979-7.354,1.568
	c-1.74,0.919-1.679,2.363-1.667,3.866c0.013,1.503,0.601,4.252,0.619,5.756"/>
<path class="st4" d="M33.961,9.211c1.744-0.026,4.944-0.782,6.688-0.795c1.744-0.013,3.677,0.601,4.493,2.143
	c1.082,2.049-0.176,4.918,1.301,6.705l-1.375,2.135c-2.234-2.526-0.979-6.237-1.568-7.354c-0.919-1.74-2.362-1.679-3.866-1.667
	c-1.503,0.013-4.252,0.601-5.756,0.619"/>
<path class="st3" d="M33.961,9.211c1.744-0.026,4.944-0.782,6.688-0.795c1.744-0.013,3.677,0.601,4.493,2.143
	c1.082,2.049-0.176,4.918,1.301,6.705l-1.375,2.135c-2.234-2.526-0.979-6.237-1.568-7.354c-0.919-1.74-2.362-1.679-3.866-1.667
	c-1.503,0.013-4.252,0.601-5.756,0.619"/>
<path class="st4" d="M59.042,34.785c0.026,1.744,0.782,4.944,0.795,6.688c0.013,1.744-0.601,3.677-2.143,4.493
	c-2.049,1.082-4.918-0.176-6.705,1.301l-2.135-1.375c2.526-2.234,6.237-0.979,7.354-1.568c1.74-0.919,1.68-2.362,1.667-3.866
	c-0.013-1.503-0.601-4.252-0.618-5.756"/>
<path class="st3" d="M59.042,34.785c0.026,1.744,0.782,4.944,0.795,6.688c0.013,1.744-0.601,3.677-2.143,4.493
	c-2.049,1.082-4.918-0.176-6.705,1.301l-2.135-1.375c2.526-2.234,6.237-0.979,7.354-1.568c1.74-0.919,1.68-2.362,1.667-3.866
	c-0.013-1.503-0.601-4.252-0.618-5.756"/>
<path class="st5" d="M22.155,17.253c-1.377-1.377-3.61-1.377-4.987,0c-1.377,1.377-1.377,3.61,0,4.987l4.198,4.198
	c1.377,1.377,3.61,1.377,4.987,0c1.377-1.377,1.377-3.61,0-4.987L22.155,17.253z"/>
<path class="st5" d="M50.044,22.24c1.377-1.377,1.377-3.61,0-4.987c-1.377-1.377-3.61-1.377-4.987,0L40.86,21.45
	c-1.377,1.377-1.377,3.61,0,4.987c1.377,1.377,3.61,1.377,4.987,0L50.044,22.24z"/>
<path class="st5" d="M45.054,51.615c1.377,1.377,3.61,1.377,4.987,0c1.377-1.377,1.377-3.61,0-4.987l-4.198-4.197
	c-1.377-1.377-3.61-1.377-4.987,0c-1.377,1.377-1.377,3.61,0,4.987L45.054,51.615z"/>
<path class="st5" d="M17.169,46.624c-1.377,1.377-1.377,3.61,0,4.987c1.377,1.377,3.61,1.377,4.987,0l4.198-4.198
	c1.377-1.377,1.377-3.61,0-4.987c-1.377-1.377-3.61-1.377-4.987,0L17.169,46.624z"/>
</svg>
