<svg xmlns="http://www.w3.org/2000/svg" width="48" height="48" fill="none" viewBox="0 0 48 48"><path fill="#002140" d="M41.4862 15.8993L44.1657 17.1414C43.8366 19.1241 43.1281 20.7264 41.9059 22.2479H39.8073C41.0295 20.7264 41.738 19.1241 42.0671 17.1414L39.3876 15.8993C39.4447 15.3002 39.4312 14.7649 39.3607 14.1422C39.2734 13.405 39.1525 12.8395 38.8973 12.1764L41.3116 10.6111C40.5259 8.7126 39.4782 7.3392 37.8967 6.12402H39.9953C41.5768 7.3392 42.6278 8.7126 43.4102 10.6111L40.9959 12.1764C41.2478 12.8395 41.372 13.405 41.4593 14.1422C41.5298 14.7649 41.5433 15.3002 41.4862 15.8993Z"/><path fill="#E4BC07" d="M24.076 9.53393C24.902 8.51399 25.6676 7.83066 26.8898 7.26515L26.5675 4.50827L26.5574 4.43084C27.3867 4.09423 28.1557 3.86533 29.0522 3.73405C29.163 3.71722 29.2738 3.70039 29.388 3.68692C30.3483 3.57584 31.2045 3.59604 32.1178 3.71385L32.4502 6.56162C33.7463 6.80062 34.6731 7.24495 35.7106 8.0057L36.5702 7.26515L37.8932 6.12402C39.4747 7.3392 40.5257 8.71259 41.308 10.6111L38.8938 12.1764C39.1456 12.8395 39.2699 13.405 39.3572 14.1422C39.4277 14.7649 39.4411 15.3002 39.384 15.8993L42.0635 17.1414C41.7345 19.1241 41.026 20.7264 39.8037 22.2479L38.642 21.6319L37.2586 20.9014C36.493 21.8137 35.4655 22.5306 34.3709 23.0692L34.7134 25.9877C33.8504 26.3176 33.0177 26.5128 32.0574 26.6239C31.359 26.7047 30.7143 26.7181 30.0662 26.671C30.0125 26.671 29.9621 26.6643 29.9118 26.6609C29.8312 26.6542 29.7506 26.6475 29.67 26.6374C29.6096 26.6306 29.5525 26.6273 29.4954 26.6205C29.3745 26.6071 29.2537 26.5902 29.1361 26.5734L28.797 23.6785C27.7964 23.4328 26.873 23.0659 26.0369 22.5205C25.8455 22.3926 25.6575 22.258 25.4728 22.1132L23.4011 24.0622C21.9908 22.8437 20.7585 21.3289 20.0635 19.5348L21.42 18.5754L22.4475 17.8483C22.246 17.2626 22.1587 16.8149 22.0848 16.1754C22.0043 15.4752 21.9908 14.9299 22.0714 14.26L19.3416 13.3646C19.6404 11.6007 20.4899 9.65511 21.5107 8.2447L24.0726 9.54403L24.076 9.53393ZM31.5202 21.9618C35.2708 21.5208 37.957 18.1176 37.5171 14.3576C37.0772 10.5976 33.6792 7.90471 29.9286 8.34568C26.178 8.78328 23.4917 12.1898 23.9316 15.9498C24.3715 19.7098 27.7695 22.4027 31.5202 21.9618Z"/><path fill="#002140" d="M37.262 20.9014L38.6454 21.6319C38.004 22.2075 37.2553 22.6821 36.4729 23.0659L36.8154 25.9843C35.704 26.6273 33.4476 26.7787 31.5941 26.7417C31.0367 26.7316 30.5162 26.7047 30.073 26.6677C30.721 26.7148 31.3657 26.7013 32.0642 26.6205C33.0245 26.5094 33.8572 26.3142 34.7201 25.9843L34.3776 23.0659C35.4689 22.5307 36.4964 21.8137 37.2653 20.8981L37.262 20.9014Z"/><path fill="#E4BC07" d="M32.0776 17.7271C33.1554 17.1583 33.7967 15.9397 33.5818 14.6707C33.4274 13.745 32.8499 12.9977 32.0843 12.5904C31.5403 12.3009 30.899 12.1831 30.2409 12.2942C28.6594 12.5635 27.6017 14.0614 27.8703 15.6469C28.1356 17.229 29.6331 18.2893 31.2113 18.0234C31.5202 17.9695 31.8123 17.8685 32.0776 17.7305V17.7271ZM37.5171 14.361C37.957 18.121 35.2674 21.5275 31.5202 21.9651C27.7696 22.4061 24.3715 19.7132 23.9316 15.9532C23.4918 12.1932 26.1813 8.78664 29.9286 8.34904C33.6792 7.90807 37.0773 10.601 37.5171 14.361Z"/><path fill="#002140" d="M36.5233 7.20783L36.5737 7.26842L35.7141 8.01234C34.6766 7.25159 33.7498 6.80389 32.4537 6.5649L32.1213 3.71713C31.2046 3.59932 30.3484 3.57912 29.3914 3.6902C29.2773 3.70367 29.1631 3.71713 29.0557 3.73733C30.4592 3.4815 32.4571 3.41418 34.2333 3.82821L34.5523 6.5649C35.3045 6.70291 35.929 6.91161 36.5267 7.20783H36.5233Z"/><path fill="#002140" d="M32.0811 12.587C31.1645 13.0785 30.5399 14.0446 30.5399 15.1588C30.5399 16.273 31.1645 17.239 32.0811 17.7271C31.8159 17.8685 31.5237 17.9695 31.2148 18.02C29.6367 18.2859 28.1391 17.2256 27.8739 15.6435C27.6052 14.058 28.6663 12.5601 30.2444 12.2908C30.8992 12.1797 31.5439 12.2975 32.0878 12.587H32.0811Z"/><path fill="#002140" d="M29.4988 26.6138C29.5559 26.6205 29.613 26.6239 29.6734 26.6306C29.7506 26.6407 29.8346 26.6474 29.9152 26.6542C29.9655 26.6575 30.0192 26.6643 30.0696 26.6643C30.5095 26.7013 31.0333 26.7282 31.5907 26.7383V26.7854C31.7754 27.2601 31.8089 27.3308 31.9701 27.8895L29.0556 29.3269C29.2537 30.1045 29.3175 30.7541 29.3175 31.5957C29.3175 32.3026 29.2637 32.9051 29.1194 33.5682L31.9634 35.3153C31.3355 37.4965 30.0763 39.4254 28.5049 40.9738H26.0201C27.5916 39.422 28.5956 37.7221 29.2235 35.5442L26.3794 33.7971C26.5205 33.1306 26.5775 32.5315 26.5775 31.8246C26.5775 30.983 26.5137 30.3334 26.3156 29.5558L29.2302 28.1218C28.5989 25.89 27.6017 24.2103 25.9866 22.6417L26.0403 22.5138C26.8764 23.0591 27.7998 23.426 28.8004 23.6718L29.1395 26.5666C29.2604 26.5835 29.3813 26.6003 29.4988 26.6138Z"/><path fill="#8DC8FF" d="M23.2904 24.4695L25.9867 22.6451C27.6018 24.2171 28.599 25.8934 29.2303 28.1252L26.3157 29.5591C26.5139 30.3401 26.5776 30.9864 26.5776 31.8279C26.5776 32.5348 26.5239 33.1374 26.3795 33.8005L29.2236 35.5475C28.5957 37.7288 27.5917 39.4287 26.0203 40.9771L24.6066 40.001L23.3408 39.1291C22.3603 40.0548 21.1146 40.7213 19.8185 41.1825V44.4981C18.8078 44.7506 17.8475 44.8617 16.7596 44.8617C15.5911 44.8617 14.5669 44.7068 13.4857 44.4173V41.1253C12.6194 40.8021 11.8169 40.4015 11.0883 39.8865C10.6921 39.6071 10.316 39.2907 9.96345 38.9373L7.38469 40.8492C5.95764 39.2974 4.77906 37.4393 4.23511 35.3321L7.13286 33.7534C6.98511 33.07 6.94482 32.5584 6.94482 31.8279C6.94482 31.0335 7.0019 30.4209 7.17986 29.6803L4.23511 28.317C4.80257 26.3781 6.00801 24.3079 7.33432 22.8571L10.034 24.6513C10.4805 24.2137 10.907 23.8401 11.3636 23.5236C11.9848 23.086 12.653 22.7494 13.4857 22.4734V19.252C14.5804 18.9524 15.5709 18.7942 16.7596 18.7942C17.8508 18.7942 18.8078 18.9288 19.8185 19.1813V22.4195C21.2422 22.8571 22.2226 23.4765 23.287 24.4662L23.2904 24.4695ZM24.4858 31.8313C24.4858 27.5563 21.0273 24.0891 16.7629 24.0891C12.4986 24.0891 9.04006 27.5563 9.04006 31.8313C9.04006 36.1063 12.4986 39.5735 16.7629 39.5735C21.0273 39.5735 24.4858 36.1063 24.4858 31.8313Z"/><path fill="#002140" d="M23.4045 24.0555L25.4762 22.1065C25.6609 22.2513 25.8489 22.3859 26.0403 22.5138L25.9866 22.6418L23.2903 24.4662C22.2259 23.4766 21.2454 22.8572 19.8217 22.4196V19.1813C18.8111 18.9289 17.8541 18.7942 16.7628 18.7942C15.5742 18.7942 14.5836 18.9558 13.489 19.252C14.9765 18.4879 19.0427 18.2523 21.4234 18.5687L20.0669 19.5281C20.7619 21.3222 21.9909 22.837 23.4045 24.0522V24.0555Z"/><path fill="#002140" d="M24.61 40.001C23.9653 40.3881 23.2736 40.7011 22.5618 40.9502V44.2693C21.4705 44.6294 17.8005 44.929 16.7629 44.8617C17.8509 44.8617 18.8112 44.7506 19.8219 44.4982V41.1825C21.118 40.7213 22.3637 40.0548 23.3441 39.1292L24.61 40.001Z"/><path fill="#8DC8FF" d="M16.7629 24.0858C21.0272 24.0858 24.4857 27.553 24.4857 31.828C24.4857 36.103 21.0272 39.5701 16.7629 39.5701C12.4985 39.5701 9.04004 36.103 9.04004 31.828C9.04004 27.553 12.4985 24.0858 16.7629 24.0858ZM20.0333 31.828C20.0333 30.569 19.3282 29.4784 18.2907 28.9263C17.834 28.684 17.3136 28.546 16.7595 28.546C14.9531 28.546 13.4857 30.017 13.4857 31.828C13.4857 33.639 14.9531 35.11 16.7595 35.11C17.3136 35.11 17.834 34.972 18.2907 34.7296C19.3249 34.1809 20.0333 33.0869 20.0333 31.828Z"/><path fill="#002140" d="M18.2908 28.9297C17.2532 29.4784 16.5481 30.5724 16.5481 31.8313C16.5481 33.0903 17.2532 34.1809 18.2908 34.7329C17.8341 34.9753 17.3137 35.1133 16.7597 35.1133C14.9532 35.1133 13.4858 33.6423 13.4858 31.8313C13.4858 30.0203 14.9532 28.5493 16.7597 28.5493C17.3137 28.5493 17.8341 28.6873 18.2908 28.9297Z"/><path fill="#002140" d="M11.3166 23.4529L11.367 23.5236C10.9137 23.84 10.4839 24.2137 10.0373 24.6513L7.33765 22.8571L10.0675 22.6215L11.3132 23.4495L11.3166 23.4529Z"/><path fill="#002140" d="M11.0916 39.8865L11.0647 39.9269L10.1212 40.6271L7.39136 40.8492L9.97012 38.9373C10.3227 39.2907 10.6988 39.6071 11.095 39.8865H11.0916Z"/><path stroke="#002140" stroke-linecap="round" stroke-linejoin="round" d="M18.2908 28.9297C19.325 29.4784 20.0335 30.5724 20.0335 31.8313C20.0335 33.0903 19.3283 34.1809 18.2908 34.7329C17.8341 34.9753 17.3137 35.1133 16.7597 35.1133C14.9532 35.1133 13.4858 33.6423 13.4858 31.8313C13.4858 30.0203 14.9532 28.5493 16.7597 28.5493C17.3137 28.5493 17.8341 28.6873 18.2908 28.9297Z"/><path stroke="#002140" stroke-linecap="round" stroke-linejoin="round" d="M18.2908 34.7295C17.2532 34.1808 16.5481 33.0868 16.5481 31.8279C16.5481 30.569 17.2532 29.4783 18.2908 28.9263"/><path stroke="#002140" stroke-linecap="round" stroke-linejoin="round" d="M24.4857 31.828C24.4857 36.103 21.0272 39.5701 16.7629 39.5701C12.4985 39.5701 9.04004 36.103 9.04004 31.828C9.04004 27.553 12.4985 24.0858 16.7629 24.0858C21.0272 24.0858 24.4857 27.553 24.4857 31.828Z"/><path stroke="#002140" stroke-linecap="round" stroke-linejoin="round" d="M7.13286 33.7533C6.98512 33.07 6.94482 32.5584 6.94482 31.8279C6.94482 31.0335 7.00191 30.4209 7.17987 29.6803"/><path stroke="#002140" stroke-linecap="round" stroke-linejoin="round" d="M13.4891 41.1253C12.6228 40.8021 11.8203 40.4015 11.0916 39.8865C10.6954 39.6071 10.3194 39.2907 9.9668 38.9373"/><path stroke="#002140" stroke-linecap="round" stroke-linejoin="round" d="M23.3441 39.1292C22.3636 40.0548 21.1179 40.7213 19.8218 41.1825"/><path stroke="#002140" stroke-linecap="round" stroke-linejoin="round" d="M26.3157 29.5591C26.5138 30.34 26.5776 30.9863 26.5776 31.8279C26.5776 32.5348 26.5239 33.1373 26.3795 33.8004"/><path stroke="#002140" stroke-linecap="round" stroke-linejoin="round" d="M19.8218 22.4196C21.2455 22.8572 22.2259 23.4765 23.2903 24.4662"/><path stroke="#002140" stroke-linecap="round" stroke-linejoin="round" d="M10.0374 24.6513C10.4839 24.2137 10.9104 23.84 11.367 23.5236C11.9882 23.086 12.6564 22.7494 13.4891 22.4734"/><path stroke="#002140" stroke-linecap="round" stroke-linejoin="round" d="M4.23853 28.3171C4.80599 26.3782 6.01142 24.308 7.33774 22.8572"/><path stroke="#002140" stroke-linecap="round" stroke-linejoin="round" d="M7.38469 40.8459C5.95764 39.2941 4.77906 37.4359 4.23511 35.3287"/><path stroke="#002140" stroke-linecap="round" stroke-linejoin="round" d="M19.8217 44.4981C18.8111 44.7506 17.8507 44.8617 16.7628 44.8617C15.5943 44.8617 14.5702 44.7068 13.489 44.4174"/><path stroke="#002140" stroke-linecap="round" stroke-linejoin="round" d="M29.227 35.5475C28.5991 37.7288 27.5951 39.4287 26.0237 40.9771"/><path stroke="#002140" stroke-linecap="round" stroke-linejoin="round" d="M25.9866 22.645C27.6017 24.217 28.5989 25.8934 29.2302 28.1251"/><path stroke="#002140" stroke-linecap="round" stroke-linejoin="round" d="M13.489 19.252C14.5836 18.9524 15.5742 18.7942 16.7628 18.7942C17.8541 18.7942 18.8111 18.9288 19.8217 19.1813"/><path stroke="#002140" stroke-linecap="round" stroke-linejoin="round" d="M19.8218 22.4195V19.3058"/><path stroke="#002140" stroke-linecap="round" stroke-linejoin="round" d="M13.489 19.3429V22.4734"/><path stroke="#002140" stroke-linecap="round" stroke-linejoin="round" d="M13.489 41.1252V44.4173"/><path stroke="#002140" stroke-linecap="round" stroke-linejoin="round" d="M19.8218 44.4982V41.1825"/><path stroke="#002140" stroke-linecap="round" stroke-linejoin="round" d="M23.3442 39.1292L24.6101 40.001L26.0237 40.9772"/><path stroke="#002140" stroke-linecap="round" stroke-linejoin="round" d="M26.3828 33.8038L29.2268 35.5475"/><path stroke="#002140" stroke-linecap="round" stroke-linejoin="round" d="M26.3157 29.5591L29.2302 28.1251"/><path stroke="#002140" stroke-linecap="round" stroke-linejoin="round" d="M23.2837 24.4728L23.2904 24.4695L25.9867 22.645"/><path stroke="#002140" stroke-linecap="round" stroke-linejoin="round" d="M7.33805 22.8576L7.33423 22.8538"/><path stroke="#002140" stroke-linecap="round" stroke-linejoin="round" d="M10.0407 24.6547L10.0373 24.6513L7.34106 22.8572"/><path stroke="#002140" stroke-linecap="round" stroke-linejoin="round" d="M7.17992 29.6803L4.23853 28.317"/><path stroke="#002140" stroke-linecap="round" stroke-linejoin="round" d="M4.23511 35.3321L7.13285 33.7534"/><path stroke="#002140" stroke-linecap="round" stroke-linejoin="round" d="M7.38794 40.8458L9.9667 38.9338H9.97006"/><path stroke="#002140" stroke-linecap="round" stroke-linejoin="round" d="M7.37793 40.8526L7.38465 40.8458"/><path stroke="#002140" stroke-linecap="round" stroke-linejoin="round" d="M24.61 40.0043C23.9653 40.388 23.2736 40.7044 22.5618 40.9535"/><path stroke="#002140" stroke-linecap="round" stroke-linejoin="round" d="M29.0557 29.3302C29.2538 30.1078 29.3176 30.7574 29.3176 31.599C29.3176 32.3059 29.2638 32.9084 29.1195 33.5716"/><path stroke="#002140" stroke-linecap="round" stroke-linejoin="round" d="M22.5618 44.2726C21.4705 44.6328 17.8005 44.9323 16.7629 44.865"/><path stroke="#002140" stroke-linecap="round" stroke-linejoin="round" d="M31.9668 35.322C31.3389 37.5033 30.0797 39.4321 28.5083 40.9805"/><path stroke="#002140" stroke-linecap="round" stroke-linejoin="round" d="M31.5942 26.7888C31.7789 27.2634 31.8125 27.3341 31.9737 27.8929"/><path stroke="#002140" stroke-linecap="round" stroke-linejoin="round" d="M13.489 19.252C14.9765 18.4879 19.0427 18.2523 21.4234 18.5687"/><path stroke="#002140" stroke-linecap="round" stroke-linejoin="round" d="M22.5618 44.2726V40.9536"/><path stroke="#002140" stroke-linecap="round" stroke-linejoin="round" d="M29.1228 33.5717L31.9668 35.3221"/><path stroke="#002140" stroke-linecap="round" stroke-linejoin="round" d="M29.0557 29.3303L31.9702 27.8929"/><path stroke="#002140" stroke-linecap="round" stroke-linejoin="round" d="M11.3165 23.453L10.0708 22.6249"/><path stroke="#002140" stroke-linecap="round" stroke-linejoin="round" d="M10.1213 40.6237L11.0649 39.9236"/><path stroke="#002140" stroke-linecap="round" stroke-linejoin="round" d="M7.38477 40.8458H7.38812L10.1213 40.6237"/><path stroke="#002140" stroke-linecap="round" stroke-linejoin="round" d="M7.33765 22.8571H7.341L10.0709 22.6249"/><path stroke="#002140" stroke-linecap="round" stroke-linejoin="round" d="M26.0237 40.9772H28.5084"/><path stroke="#002140" stroke-linecap="round" stroke-linejoin="round" d="M32.081 12.587C32.8466 12.9976 33.4241 13.7449 33.5786 14.6673C33.7935 15.9363 33.1555 17.1548 32.0743 17.7237C31.809 17.8651 31.5169 17.9661 31.208 18.0166C29.6298 18.2825 28.1323 17.2222 27.867 15.6401C27.5984 14.0546 28.6595 12.5567 30.2376 12.2874C30.8924 12.1763 31.5371 12.2941 32.081 12.5836V12.587Z"/><path stroke="#002140" stroke-linecap="round" stroke-linejoin="round" d="M32.081 17.7271C31.1643 17.239 30.5398 16.2763 30.5398 15.1587C30.5398 14.0411 31.1643 13.0784 32.081 12.5903"/><path stroke="#002140" stroke-linecap="round" stroke-linejoin="round" d="M37.5171 14.3576C37.957 18.1176 35.2674 21.5241 31.5202 21.9617C27.7696 22.4027 24.3715 19.7098 23.9316 15.9498C23.4918 12.1898 26.1813 8.78322 29.9286 8.34562C33.6792 7.90466 37.0773 10.5976 37.5171 14.3576Z"/><path stroke="#002140" stroke-linecap="round" stroke-linejoin="round" d="M22.451 17.8416C22.2495 17.2559 22.1622 16.8082 22.0883 16.1686C22.0077 15.4685 21.9943 14.9232 22.0749 14.2533"/><path stroke="#002140" stroke-linecap="round" stroke-linejoin="round" d="M28.8005 23.6717C27.7999 23.426 26.8765 23.0591 26.0404 22.5138C25.849 22.3858 25.661 22.2512 25.4763 22.1064"/><path stroke="#002140" stroke-linecap="round" stroke-linejoin="round" d="M37.2619 20.9014C36.4964 21.8136 35.4689 22.5306 34.3743 23.0692"/><path stroke="#002140" stroke-linecap="round" stroke-linejoin="round" d="M38.8972 12.1763C39.149 12.8394 39.2733 13.4049 39.3606 14.1421C39.4311 14.7648 39.4445 15.3001 39.3875 15.8992"/><path stroke="#002140" stroke-linecap="round" stroke-linejoin="round" d="M32.4504 6.56152C33.7465 6.80052 34.6733 7.24485 35.7108 8.0056"/><path stroke="#002140" stroke-linecap="round" stroke-linejoin="round" d="M24.0762 9.53392C24.9022 8.51398 25.6678 7.83065 26.89 7.26514"/><path stroke="#002140" stroke-linecap="round" stroke-linejoin="round" d="M19.3484 13.3578C19.6472 11.594 20.4967 9.64833 21.5175 8.23792"/><path stroke="#002140" stroke-linecap="round" stroke-linejoin="round" d="M23.4045 24.0555C21.9942 22.8403 20.762 21.3222 20.0669 19.5314"/><path stroke="#002140" stroke-linecap="round" stroke-linejoin="round" d="M29.4989 26.6138C29.3781 26.6003 29.2572 26.5835 29.1396 26.5667"/><path stroke="#002140" stroke-linecap="round" stroke-linejoin="round" d="M29.9153 26.6575C29.8348 26.6507 29.7542 26.644 29.6736 26.6339"/><path stroke="#002140" stroke-linecap="round" stroke-linejoin="round" d="M34.717 25.9843C33.854 26.3141 33.0213 26.5094 32.061 26.6205C31.3626 26.7012 30.7179 26.7147 30.0698 26.6676"/><path stroke="#002140" stroke-linecap="round" stroke-linejoin="round" d="M42.0703 17.1414C41.7413 19.124 41.0328 20.7263 39.8105 22.2478"/><path stroke="#002140" stroke-linecap="round" stroke-linejoin="round" d="M37.8967 6.12402C39.4782 7.3392 40.5292 8.7126 41.3116 10.6111"/><path stroke="#002140" stroke-linecap="round" stroke-linejoin="round" d="M26.5576 4.43084C27.387 4.09423 28.1559 3.86533 29.0524 3.73405C29.1632 3.71722 29.274 3.70039 29.3882 3.68692C30.3485 3.57584 31.2048 3.59604 32.1181 3.71385"/><path stroke="#002140" stroke-linecap="round" stroke-linejoin="round" d="M32.4503 6.56163L32.1179 3.71387"/><path stroke="#002140" stroke-linecap="round" stroke-linejoin="round" d="M26.5642 4.50818L26.8866 7.26506"/><path stroke="#002140" stroke-linecap="round" stroke-linejoin="round" d="M28.8005 23.6718L29.1397 26.5666"/><path stroke="#002140" stroke-linecap="round" stroke-linejoin="round" d="M34.7168 25.9843L34.3777 23.0658"/><path stroke="#002140" stroke-linecap="round" stroke-linejoin="round" d="M37.262 20.9014L38.6454 21.6318L39.8071 22.2478"/><path stroke="#002140" stroke-linecap="round" stroke-linejoin="round" d="M39.3909 15.8993L42.0704 17.1414"/><path stroke="#002140" stroke-linecap="round" stroke-linejoin="round" d="M38.8972 12.1763L41.3114 10.6111"/><path stroke="#002140" stroke-linecap="round" stroke-linejoin="round" d="M38.6454 21.6318C38.004 22.2074 37.2553 22.6821 36.4729 23.0658"/><path stroke="#002140" stroke-linecap="round" stroke-linejoin="round" d="M40.9958 12.1763C41.2477 12.8394 41.3719 13.4049 41.4592 14.1421C41.5297 14.7648 41.5432 15.3001 41.4861 15.8992"/><path stroke="#002140" stroke-linecap="round" stroke-linejoin="round" d="M34.5491 6.56152C35.3012 6.69954 35.9258 6.90824 36.5234 7.20446"/><path stroke="#002140" stroke-linecap="round" stroke-linejoin="round" d="M44.169 17.1414C43.8399 19.124 43.1314 20.7263 41.9092 22.2478"/><path stroke="#002140" stroke-linecap="round" stroke-linejoin="round" d="M39.9954 6.12402C41.5769 7.3392 42.6278 8.7126 43.4102 10.6111"/><path stroke="#002140" stroke-linecap="round" stroke-linejoin="round" d="M34.549 6.56163L34.23 3.82495"/><path stroke="#002140" stroke-linecap="round" stroke-linejoin="round" d="M36.8154 25.9843L36.4729 23.0658"/><path stroke="#002140" stroke-linecap="round" stroke-linejoin="round" d="M41.4861 15.8993L44.1689 17.1414"/><path stroke="#002140" stroke-linecap="round" stroke-linejoin="round" d="M40.9958 12.1763L43.4101 10.6111"/><path stroke="#002140" stroke-linecap="round" stroke-linejoin="round" d="M35.7075 8.01244L35.7142 8.00907L36.5738 7.26515L37.8968 6.12402"/><path stroke="#002140" stroke-linecap="round" stroke-linejoin="round" d="M24.0794 9.53727L24.0761 9.5339L21.5141 8.23457L21.5107 8.2312"/><path stroke="#002140" stroke-linecap="round" stroke-linejoin="round" d="M22.0782 14.2532L19.3484 13.3578"/><path stroke="#002140" stroke-linecap="round" stroke-linejoin="round" d="M20.0669 19.528L21.4234 18.5686H21.4268L22.4509 17.8416"/><path stroke="#002140" stroke-linecap="round" stroke-linejoin="round" d="M23.3979 24.0623L23.4047 24.0555L25.4764 22.1065L25.4798 22.1031"/><path stroke="#002140" stroke-linecap="round" stroke-linejoin="round" d="M34.2299 3.8249C32.4503 3.41423 30.4558 3.47819 29.0522 3.73401"/><path stroke="#002140" stroke-linecap="round" stroke-linejoin="round" d="M36.8154 25.9843C35.704 26.6272 33.4476 26.7787 31.5941 26.7416C31.0367 26.7315 30.5163 26.7046 30.073 26.6676C30.0193 26.6676 29.969 26.6609 29.9186 26.6575C29.8346 26.6474 29.7541 26.6407 29.6768 26.6339C29.6164 26.6272 29.5593 26.6238 29.5022 26.6171C29.4619 26.6104 29.4183 26.607 29.3813 26.6003"/><path stroke="#002140" stroke-linecap="round" stroke-linejoin="round" d="M41.9091 22.2478H39.8105"/><path stroke="#002140" stroke-linecap="round" stroke-linejoin="round" d="M37.8967 6.12402H39.9953"/></svg>