<?xml version="1.0" encoding="UTF-8"?>
<svg id="Layer_1" xmlns="http://www.w3.org/2000/svg" version="1.1" viewBox="0 0 100 100">
  <!-- Generator: Adobe Illustrator 30.0.0, SVG Export Plug-In . SVG Version: 2.1.1 Build 123)  -->
  <defs>
    <style>
      .st0 {
        fill: #fffaf0;
      }

      .st1 {
        fill: none;
        stroke: #002140;
        stroke-linecap: round;
        stroke-linejoin: round;
      }

      .st2 {
        fill: #03d47c;
      }

      .st3 {
        fill: #fed607;
      }

      .st4 {
        fill: #f68dfe;
      }
    </style>
  </defs>
  <path class="st2" d="M85.174,14.193l-3.674-6.693h-1l-3.695,6.693-7.305,1.307-.5,1,5.515,5.892-1.246,7.312,1.601.355,6.012-3.587,6.822,3.764.892-.892-.892-7.603,4.991-5.232-1.195-1.509-6.326-.807Z"/>
  <path class="st1" d="M81.919,7.994l2.74,5.555c.167.338.494.575.87.628l6.13.892c.946.14,1.322,1.3.639,1.966l-4.437,4.325c-.274.263-.398.645-.333,1.021l1.048,6.103c.161.94-.827,1.66-1.671,1.214l-5.485-2.885c-.333-.177-.736-.177-1.074,0l-5.485,2.885c-.843.446-1.832-.274-1.671-1.214l1.048-6.103c.064-.376-.059-.757-.333-1.021l-4.438-4.325c-.682-.666-.306-1.827.639-1.966l6.13-.892c.376-.054.698-.29.87-.628l2.74-5.555c.424-.854,1.644-.854,2.068,0h.005Z"/>
  <path class="st0" d="M55.147,41.176s5.281-8.824,4.157-14.851c-.603-3.235-.497-7.943-6.363-7.943s-6.941,3.618-9.441,10.118c-.201,1.617-1,9-6,12.676-10,4.324-9.559,7.353-9.559,7.353,0,0-2.593-2.595-5.626-1.38-3.815.851-6.082,6.467-6.815,11.851,0,5.053.677,10.852,4.353,13.794,2.462,2.941,7.314.735,7.314.735,0,0,1.743,5.169,9.333,8.971,4.005,2.006,9.637,3.163,17.5,4,16.94,0,20.821-6.032,21.5-8.5,0-3.414-4.176-8.148-4.176-8.148,0,0,5.882-2.206,5.882-7.353s-5.206-7.5-5.206-7.5c0,0,5.206-.5,5.206-5.736-.804-3.637-3.676-8.088-10.829-9.178-7.475.402-10.494,1.09-10.494,1.09h-.735Z"/>
  <path class="st1" d="M27.112,73.128c-1.087.959-2.321,1.499-3.628,1.499-4.441,0-8.032-6.241-8.032-13.944s3.6-13.944,8.032-13.944c1.343,0,2.604.567,3.719,1.581"/>
  <path class="st1" d="M26.564,55.931s-.603-7.274,3.235-10.307c3.838-3.034,11.322-4.45,12.939-13.14,1.617-8.69,4.039-13.743,8.891-14.145,4.852-.402,7.886,2.422,7.886,9.704s-5.053,13.341-5.053,13.341"/>
  <path class="st1" d="M26.362,64.822s-4.249,20.614,28.299,21.83c20.615.201,24.662-9.704,16.978-16.174"/>
  <path class="st1" d="M69.373,54.961s7.813,1.17,7.712-5.3c0-3.436-3.838-13.341-22.634-8.288"/>
  <path class="st1" d="M59.917,70.487s17.38,2.632,17.38-8.087-17.791-7.073-17.791-7.073"/>
  <path class="st3" d="M83.027,79.832l-3.207-6.237-1.429.532-2.67,5.883-8.021,1.606.3,1.384,4.868,5.03-1.252,7.312,1.606.355,6.278-2.697,6.556,2.874.892-.892-.537-7.484,4.589-4.998-.667-1.244-7.306-1.424Z"/>
  <path class="st1" d="M80.448,74.17l2.74,5.555c.166.339.494.575.87.629l6.13.892c.946.14,1.322,1.3.639,1.966l-4.438,4.325c-.274.263-.397.645-.333,1.021l1.048,6.103c.161.94-.827,1.66-1.671,1.214l-5.485-2.885c-.333-.177-.736-.177-1.074,0l-5.485,2.885c-.843.446-1.832-.274-1.671-1.214l1.048-6.103c.064-.376-.059-.757-.333-1.021l-4.437-4.325c-.682-.666-.306-1.827.639-1.966l6.13-.892c.376-.054.698-.29.87-.629l2.74-5.555c.424-.854,1.644-.854,2.068,0h.005Z"/>
  <path class="st4" d="M22.059,22.794l-3.676-6.618-1.804.532-2.675,5.882-7.285,1.252-.735,1.893,5.168,4.876-1.246,7.312,1.696,1.077,6.325-3.215,6.675,3.215,1-1.5-1-6.888,4.912-4.876-.412-1.735-6.941-1.206Z"/>
  <path class="st1" d="M18.814,16.928l2.74,5.555c.167.338.494.575.87.628l6.13.892c.946.14,1.322,1.3.639,1.966l-4.437,4.325c-.274.263-.398.645-.333,1.021l1.047,6.103c.161.94-.827,1.66-1.671,1.214l-5.485-2.885c-.333-.177-.736-.177-1.074,0l-5.485,2.885c-.844.446-1.832-.274-1.671-1.214l1.048-6.103c.064-.376-.059-.757-.333-1.021l-4.438-4.325c-.682-.666-.306-1.827.639-1.966l6.13-.892c.376-.054.698-.29.87-.628l2.74-5.555c.424-.854,1.644-.854,2.068,0h.005Z"/>
</svg>