<svg xmlns="http://www.w3.org/2000/svg" id="Layer_1" viewBox="0 0 68 68"><defs><style>.st0{fill:none}.st0,.st1{stroke:#002140;stroke-linejoin:round}.st2{fill:#8dc8ff}.st3{fill:#002140}.st1,.st4{fill:#28736d}</style></defs><path d="M37.762 58.592c1.227 0 2.221-.783 2.221-1.749s-.994-1.749-2.221-1.749-2.221.783-2.221 1.749.994 1.749 2.221 1.749Z" class="st1"/><path d="M53.574 26.532v13.607c0 .482-1.241.874-1.726.874h-1.309V27.419c0-7.222-7.643-13.799-17.077-13.799s-17.077 6.582-17.077 13.803v13.594h-1.3c-.448 0-1.662-.363-1.662-.811V26.531c.004-7.853 9.464-16.29 20.078-16.29s20.074 8.437 20.074 16.29Z" class="st2"/><path d="M50.462 35.971v5.315a2.81 2.81 0 0 1-2.809 2.811h-.026a2 2 0 0 0 .026-.311V33.472c0-.102-.008-.209-.026-.307h.026a2.803 2.803 0 0 1 2.809 2.807Z" class="st2"/><path d="M47.657 33.472v10.314a1.956 1.956 0 0 1-1.957 1.958h-.337a1.96 1.96 0 0 1-1.957-1.958V33.472c0-1.079.874-1.958 1.957-1.958h.337a1.956 1.956 0 0 1 1.957 1.958" class="st4"/><path d="M35.695 56.182a.666.666 0 0 1 .469 1.135.68.68 0 0 1-.469.196h-4.007l-.102-.026a.98.98 0 0 0 .222-.627v-.073a.96.96 0 0 0-.171-.559l.09-.043h3.969v-.004Z" class="st3"/><path d="M31.808 56.783v.073c0 .239-.081 1.309-.222 1.48a.98.98 0 0 1-.754.371l-2.255.047c-.2.004-.396-.051-.563-.158l-11.497-7.349c-.503-.324-.614-1.864-.235-2.329l.166-.201a.996.996 0 0 1 1.322-.2l10.734 7.094c.162.107.354.166.55.166h1.756c.345.004.648.179.827.444.111.158.17.354.17.559z" class="st2"/><path d="M23.461 33.472v10.314a1.96 1.96 0 0 1-1.957 1.958h-.333a1.95 1.95 0 0 1-1.091-.333 1.96 1.96 0 0 1-.866-1.625V33.472a1.956 1.956 0 0 1 1.957-1.958h.333a1.96 1.96 0 0 1 1.957 1.958" class="st4"/><path d="M20.08 45.411v4.534l-1.923-1.207v-4.85c.324.132.682.209 1.057.209h.026a1.97 1.97 0 0 0 .84 1.314" class="st3"/><path d="M19.215 33.161h.025a2 2 0 0 0-.025.311v10.314c0 .102.008.209.025.307h-.025a2.7 2.7 0 0 1-1.057-.201 2.81 2.81 0 0 1-1.752-2.602v-5.315a2.81 2.81 0 0 1 2.809-2.811z" class="st2"/><path d="M19.236 33.165a1.956 1.956 0 0 1 1.931-1.651h.333a1.96 1.96 0 0 1 1.957 1.958v10.314a1.96 1.96 0 0 1-1.957 1.958h-.333a1.95 1.95 0 0 1-1.091-.333 1.96 1.96 0 0 1-.865-1.625V33.472c0-.102.008-.209.025-.307Z" class="st0"/><path d="M19.215 44.097q-.564-.002-1.057-.209a2.81 2.81 0 0 1-1.752-2.602v-5.315a2.81 2.81 0 0 1 2.809-2.811m28.416 10.933a1.956 1.956 0 0 1-1.931 1.651h-.337a1.96 1.96 0 0 1-1.957-1.958V33.472c0-1.079.874-1.958 1.957-1.958h.337a1.956 1.956 0 0 1 1.957 1.958v10.314c0 .102-.009.209-.026.307Z" class="st0"/><path d="M47.656 33.161a2.81 2.81 0 0 1 2.809 2.811v5.315a2.81 2.81 0 0 1-2.809 2.811" class="st0"/><path d="M50.539 41.013V27.419c0-7.222-7.643-13.799-17.077-13.799s-17.077 6.582-17.077 13.803v13.594h-1.3c-.448 0-2.089-.363-2.089-.811V26.531c.004-7.853 9.89-16.29 20.505-16.29s20.5 8.437 20.5 16.29v13.607c0 .482-1.667.874-2.153.874zm-32.382 2.875v4.85l1.923 1.207v-4.534" class="st0"/><path d="M31.637 56.224a1 1 0 0 0-.827-.439h-1.756a1.05 1.05 0 0 1-.55-.171L17.77 48.52a.997.997 0 0 0-1.322.201l-.166.201c-.379.465-.268 2.005.235 2.329L28.014 58.6c.166.107.362.162.563.158l2.255-.047a.98.98 0 0 0 .754-.371c.141-.171.222-1.241.222-1.48v-.072a.97.97 0 0 0-.17-.559v-.004Z" class="st0"/><path d="M31.726 56.182h3.969a.666.666 0 0 1 .469 1.135.68.68 0 0 1-.469.196h-4.007" class="st0"/></svg>