<svg xmlns="http://www.w3.org/2000/svg" id="Layer_1" viewBox="0 0 68 68"><defs><style>.st0{fill:#ffa75a}.st0,.st1,.st2,.st3{stroke:#002140;stroke-linejoin:round}.st0,.st1,.st3{stroke-linecap:round}.st1{fill:#8dc8ff}.st2{fill:none}.st4{fill:#002140}.st3{fill:#ffd7b0}</style></defs><path d="M41.5 23h21v35h-21z" class="st3"/><rect width="5" height="7" x="46.5" y="28" class="st4" rx=".5" ry=".5"/><rect width="5" height="7" x="46.5" y="38" class="st4" rx=".5" ry=".5"/><rect width="5" height="7" x="53.5" y="28" class="st4" rx=".5" ry=".5"/><rect width="5" height="7" x="53.5" y="38" class="st4" rx=".5" ry=".5"/><path d="M33.5 10h8v48h-8z" class="st0"/><path d="M47.5 50h10v8h-10z" class="st1"/><path d="M52.5 50v8" class="st2"/><path d="M13.5 10h28v48h-28z" class="st3"/><rect width="6" height="8" x="20.5" y="15" class="st4" rx=".5" ry=".5"/><rect width="6" height="8" x="20.5" y="26" class="st4" rx=".5" ry=".5"/><rect width="6" height="8" x="20.5" y="37" class="st4" rx=".5" ry=".5"/><rect width="6" height="8" x="30.5" y="15" class="st4" rx=".5" ry=".5"/><rect width="6" height="8" x="30.5" y="26" class="st4" rx=".5" ry=".5"/><rect width="6" height="8" x="30.5" y="37" class="st4" rx=".5" ry=".5"/><path d="M5.5 10h8v48h-8z" class="st0"/><path d="M19.5 50h18v8h-18z" class="st1"/><path d="M25.5 50v8m6-8v8" class="st2"/></svg>