<svg xmlns="http://www.w3.org/2000/svg" xmlns:xlink="http://www.w3.org/1999/xlink" id="Layer_1" x="0" y="0" version="1.1" viewBox="0 0 68 68" style="enable-background:new 0 0 68 68" xml:space="preserve"><style type="text/css">.st0{fill:#008c59}.st1{fill:#e3a171}.st2{fill:none;stroke:#002140;stroke-width:.999;stroke-linecap:round;stroke-linejoin:round}.st3{fill:#085239}.st4{fill:#03d47c}</style><path d="M56.1,41L32.3,24.8c-1.1-0.8-2.7-0.5-3.5,0.7l-8.4,12.3c-0.8,1.1-0.5,2.7,0.7,3.5l23.8,16.2	c1.1,0.8,2.7,0.5,3.5-0.7l8.4-12.3C57.5,43.3,57.2,41.7,56.1,41z" class="st0"/><path d="M27.3,27.6c0,0,0.9,0.1,1.9,0.1c1-0.1,2.4-0.5,2.4-0.5s0.5,5.7,1.2,6.3c0.7,0.7,3,2.4,5.2,1.2	c2.2-1.2,3.1-1.4,2.7-2.9c-0.4-1.5-3.5-7.3-3.5-7.3s-0.1-3.2-0.1-3.9s0.7-5.2-3.2-6c-3.9-0.8-6.8-0.7-9.3-1.6C22.2,12.3,20,10,20,10	s-9.6,3.9-9.8,12.1c0,0,3.7,3.5,5.1,6.1c1.4,2.5,3.2,8.7,5.5,8.8L27.3,27.6L27.3,27.6z" class="st1"/><path d="M38.1,53L22.3,42.4c0,0-4.6,3.9-2.6,6c2.1,2.1,5.5-0.2,5.5-0.2s-1.4,2.9,0,4.1c1.4,1.2,5.1-0.4,5.1-0.4	s-1.5,3,0.7,4.1C33.3,57.1,36.9,54.4,38.1,53L38.1,53z" class="st1"/><path d="M40.3,30.4L56,41c1.2,0.8,1.5,2.4,0.7,3.5l-8.3,12.3c-0.8,1.2-2.4,1.5-3.5,0.7L20.9,41.2	c-1.2-0.8-1.5-2.4-0.7-3.5l7.1-10.4" class="st2"/><path d="M31.6,35.6l-0.3-0.2c-0.3-0.2-0.6-0.1-0.8,0.2l-0.6,0.9c-0.2,0.3-0.1,0.6,0.2,0.8l0.3,0.2	c0.3,0.2,0.6,0.1,0.8-0.2l0.6-0.9C32,36.1,31.9,35.8,31.6,35.6z" class="st3"/><path d="M32.9,33.7l-0.3-0.2c-0.3-0.2-0.6-0.1-0.8,0.2l-0.4,0.6c-0.2,0.3-0.1,0.6,0.2,0.8l0.3,0.2	c0.3,0.2,0.6,0.1,0.8-0.2l0.4-0.6C33.2,34.3,33.2,33.9,32.9,33.7z" class="st3"/><path d="M33.1,37l-0.3-0.2c-0.3-0.2-0.6-0.1-0.8,0.2l-0.4,0.6c-0.2,0.3-0.1,0.6,0.2,0.8l0.3,0.2	c0.3,0.2,0.6,0.1,0.8-0.2l0.4-0.6C33.4,37.5,33.3,37.2,33.1,37z" class="st3"/><path d="M34.5,34.8l-0.3-0.2c-0.3-0.2-0.6-0.1-0.8,0.2l-0.6,0.9c-0.2,0.3-0.1,0.6,0.2,0.8l0.3,0.2	c0.3,0.2,0.6,0.1,0.8-0.2l0.6-0.9C34.8,35.4,34.7,35,34.5,34.8z" class="st3"/><path d="M52.7,41.8l-8.3-5.6c-1-0.7-2.4-0.4-3.1,0.6s-0.4,2.4,0.6,3.1l8.3,5.6c1,0.7,2.4,0.4,3.1-0.6	C54,43.9,53.7,42.5,52.7,41.8z" class="st4"/><path d="M19.9,10c0,0-9.3,3.7-9.9,12c6,4.8,6.9,12.1,10.5,15.2" class="st2"/><path d="M22.4,42.3c-2.8,2-4.3,5.5-1.8,6.7c1.8,0.9,4-0.4,5.4-1.5" class="st2"/><path d="M27.6,45.9c-3,2.5-4.4,5.5-1.9,6.7c1.6,0.8,3.5-0.1,4.8-1.1" class="st2"/><path d="M32.6,49.3c-3.1,2.8-4.2,5.6-1.8,6.8c1.8,0.9,4.2,0.2,7.2-3.2" class="st2"/><path d="M23.7,39l4.9,3.4" class="st2"/><path d="M30.9,43.9l4.9,3.4" class="st2"/><path d="M29.2,36.2l2.7-4c0.1-0.2,0.1-0.5-0.1-0.6l-1.4-0.9c-0.1-0.1-0.3-0.1-0.4-0.1l-0.9,0.3c-0.1,0-0.2,0.1-0.2,0.2	l-2,2.9c-0.1,0.1-0.1,0.2-0.1,0.3l0,0.7c0,0.1,0.1,0.3,0.2,0.4l1.5,1C28.7,36.4,29,36.4,29.2,36.2z" class="st3"/><path d="M25.2,26.2c0,0,3.9,2.9,6.6,0.6c-0.6,5.4,2.1,10,6.9,7.7c4.8-2.3-1.1-7.9-1.5-10.8s1.2-5.4-1.4-7.9	C33.1,13.3,24.3,15.1,20,10" class="st2"/></svg>