<svg xmlns="http://www.w3.org/2000/svg" xmlns:xlink="http://www.w3.org/1999/xlink" id="Layer_1" x="0" y="0" version="1.1" viewBox="0 0 68 68" style="enable-background:new 0 0 68 68" xml:space="preserve"><style type="text/css">.st0{fill:#fbccff}.st1{fill:#ffd7b0}.st2{fill:#d18000}.st3{fill:none;stroke:#002140;stroke-width:1;stroke-linecap:round;stroke-linejoin:round}</style><path d="M22.9,14.9L21,16c0,0-10.2,8.7-9.5,13.4c3,0.6,11.3,6.9,11.3,6.9l2.8,3.2l-0.3-3.5l3.2-1.5l-2.2-5.2H32	l-0.4-3.7c0,0,4.1-0.3,4.7-1.2C34,16.6,22.9,14.9,22.9,14.9z" class="st0"/><path d="M55.5,38.3c-8.7-1.8-14.3-10.2-14.3-10.2l-3.6,1.2l0.7,3.3l-4.6,1l0.7,4.9l-4.3,0.8l0.5,4.8c0,0,4.5,7.2,13.3,9	C45,52.9,55.3,42.1,55.5,38.3L55.5,38.3z" class="st0"/><path d="M43.1,30.9C46,34.4,54.4,38,54.4,38s1.8-2.6,1.5-3.3c-0.4-0.7-0.3-0.9-1.3-1.1c-1-0.2-2,0-2,0s0.4-2.5-1.2-2.5	c-1.5-0.1-2.8,0.2-2.8,0.2s0-1.8-0.7-2.2c-0.7-0.3-2.7-0.3-2.7-0.3S43,30.5,43.1,30.9z" class="st1"/><path d="M54.9,40.4c-0.9,2-6.5,7.7-6.5,7.7l-0.6-0.5c0,0-0.2-6.4-3.7-5.3c-3.5,1.2-1.7,4.1-1.7,4.1s2,1.8,1.9,4.6	c-0.1,2.9,0.6,4.4,1.9,5c1.3,0.6,5.4,0.4,6.5,1c1.1,0.7,3.6,2.3,3.6,2.3s1.6-0.2,2.8-1.5c1.2-1.3,3.9-4.4,4-5.1	c0.1-0.7-0.3-1.8-0.3-1.8s-2.8-2.6-3.5-3.9C58.6,45.9,55.8,40.7,54.9,40.4L54.9,40.4z" class="st1"/><path d="M22.7,12.7L20,11.3c0,0-5.9-1.1-6.3-1.3c-0.4-0.3-2.9-1.9-2.9-1.9s-6,2.1-6.4,8l0.2,0.7c0,0,3.2,3.6,3.5,4.6	c0.4,0.9,1.5,3.8,1.5,3.8s0.6,0.4,2,2.2c1.6-5.1,6.2-6.9,6.2-6.9l0.9-0.1c0,0,0.8,4.4,1.7,4.7c0.9,0.3,3.5-0.6,3.8-0.6	c0.3,0,1.1-1.7,0.9-2.2c-0.2-0.6-1.9-4.3-1.9-4.6C23.2,17.5,22.7,12.7,22.7,12.7L22.7,12.7z" class="st2"/><path d="M23.3,37.6c0,0-2.1-3.5-4.3-4.6c-2.2-1.1-6.8-3.1-6.8-3.1s-2.2,1.6-1.2,3c1,1.4,3.3,1.5,3.3,1.5	s-0.7,1.1,0.7,1.8c1.4,0.7,2.8,0.4,2.8,0.4s-0.4,1.8,1.2,2.3C20.6,39.4,23.3,37.6,23.3,37.6L23.3,37.6z" class="st2"/><path d="M10.9,8c0,0-6.5,2.6-6.9,8.3c4.2,3.3,4.8,8.4,7.3,10.5" class="st3"/><path d="M14.5,19.3c0,0,2.7,2,4.6,0.4c-0.4,3.8,1.5,6.9,4.8,5.4c3.3-1.6-0.8-5.5-1-7.5c-0.3-2,0.8-3.8-1-5.5	c-1.8-1.8-7.9-0.5-10.9-4" class="st3"/><path d="M12.2,30.2c-1.3,1.1-1.9,2.9-0.2,3.8c1.3,0.6,2.8-0.3,3.8-1.1" class="st3"/><path d="M16.8,31.9c-2.1,1.7-3,3.8-1.4,4.6c1.1,0.5,2.4-0.1,3.4-0.8" class="st3"/><path d="M20.4,34.2c-2.2,2-2.9,3.9-1.2,4.7c1.3,0.6,3.5-0.7,4.2-1.4" class="st3"/><path d="M17.5,20.3c-6.8,4.7-6.2,9.3-6.2,9.3s8.5,1.8,14.4,10.3" class="st3"/><path d="M36.7,24.5C31.6,16,23,14.8,23,14.8" class="st3"/><path d="M56.3,59.7c0,0,6.4-2.7,6.7-8.4c-4.6-3.5-5-9.1-8.1-10.8" class="st3"/><path d="M52.5,48.4c0,0-2.7-2-4.6-0.4c0.4-3.8-1.6-6.9-4.9-5.3c-3.3,1.6,0.8,5.5,1.2,7.5c0.3,2-0.8,3.8,1.1,5.5	c1.9,1.7,7.9,0.4,11,3.9" class="st3"/><path d="M54.7,37.6c0.9-1.1,1.9-3.1,0.1-3.9c-1.3-0.6-2.7,0-4.7,2.2" class="st3"/><path d="M51.1,34.8c1.4-1.4,1.8-2.8,0.1-3.6c-1.3-0.6-2.8,0-3.8,1.3" class="st3"/><path d="M46.5,33.4c2.1-1.9,2.8-3.8,1-4.6c-1.3-0.6-2.8,0.4-4.4,1.6" class="st3"/><path d="M49.2,47.3c4.9-3.3,6.4-9.2,6.4-9.2S46.2,36.7,41,28" class="st3"/><path d="M30.3,43.6c4.8,8,13.9,9.5,13.9,9.5" class="st3"/><path d="M25.7,39.9c0,0,0-2.9-0.8-4.2l3.7-0.8L26,29.3l6,0.2l-0.7-3.8c0,0,3.3,0.1,5.2-1.2" class="st3"/><path d="M30.3,43.6c0,0,0.4-3.1-0.6-4.7l5-0.4l-1.6-5l5.6-0.8l-1.4-3.6c0,0,2.8-0.1,3.8-1.2" class="st3"/><path d="M29.7,21.4l-0.8,1.1" class="st3"/><path d="M27.1,25l-2.7,3.8" class="st3"/><path d="M23.5,30.1l-0.8,1.1" class="st3"/><path d="M22,25.8l-0.8,1.1" class="st3"/><path d="M20.1,28.6l-0.8,1.1" class="st3"/><path d="M19,22.2l-0.8,1.1" class="st3"/><path d="M17.4,24.5l-1.2,1.8" class="st3"/><path d="M15.8,26.9L15,28" class="st3"/><path d="M48.9,38.7l-0.8,1.1" class="st3"/><path d="M46.9,41.6l-0.8,1.1" class="st3"/><path d="M41.3,34.1l-6.5,9.1" class="st3"/><path d="M43.8,37.1l-4.5,6.4" class="st3"/></svg>