<svg xmlns="http://www.w3.org/2000/svg" xml:space="preserve" id="Layer_1" x="0" y="0" viewBox="0 0 68 68"><style>.st0{fill:#00b268}.st1{fill:none;stroke:#008c59;stroke-width:1;stroke-linecap:round;stroke-linejoin:round}</style><path d="m25.559 34.541-1.957 2.933s3.473-.05 9.927 6.407c0 0 2.3-12.13 9.097-19.463l-.293-.39-2.64-1.173s-5.183 5.527-7.727 15.21c0 0-3.277-3.033-6.407-3.52z" class="st0"/><path d="M34.458 13.651v4.093s-13.603-1.217-16.146 14.93c0 0-.883 16.257 15.927 17.143v3.76s-19.466-.883-19.906-19.686c0-12.497 10.063-19.576 20.13-20.24z" class="st0"/><path d="M33.685 13.651v4.093s13.603-1.217 16.146 14.93c0 0 .883 16.257-15.926 17.143v3.76s19.466-.883 19.906-19.686c0-12.497-10.063-19.576-20.13-20.24z" class="st0"/><path d="M39.745 22.808c-2.32 2.05-7.013 10.477-7.83 15.27-.33-.32-1.99-2.183-6.487-3.7-.17.28-1.63 2.723-1.81 2.983 4.123.52 9.796 6.26 9.976 6.553 1.287-7.45 5.707-16.66 9.087-19.607-.387-.2-2.603-1.283-2.933-1.5h-.003z" class="st1"/><path d="M34.178 53.568c10.946 0 19.82-8.874 19.82-19.82s-8.874-19.82-19.82-19.82-19.82 8.874-19.82 19.82 8.874 19.82 19.82 19.82" class="st1"/><path d="M34.178 49.711c8.816 0 15.963-7.147 15.963-15.963s-7.147-15.963-15.963-15.963-15.963 7.147-15.963 15.963 7.147 15.963 15.963 15.963" class="st1"/></svg>