<svg xmlns="http://www.w3.org/2000/svg" id="Layer_1" viewBox="0 0 68 68"><defs><style>.st0{fill:#fee45e}.st1{fill:none;stroke:#002140;stroke-linecap:round;stroke-linejoin:round}.st2{fill:#ff7101}</style></defs><path d="m43.886 9.964 2.205 2.197c-.405-.345-1.22-.239-2.265.632l-29.99 23.546c-1.054.855-1.487 1.71-1.131 2.273l-2.055-2.026c-.494-.555-.077-1.467 1.046-2.383l29.994-23.55c.985-.819 1.767-.965 2.193-.685h.004zM57.775 31.16c-.328-.276-.924-.442-1.824-.442H36.624c-1.645 0-1.682-.819-.847-1.885l.191-.276.032.024h17.811c.831 0 1.402.138 1.747.377l.057.041 2.164 2.156-.004.004Zm-23.732 8.097c1.645 0 1.682.819.847 1.884L24.771 55.759c-.551.871-.592 1.613-.267 1.986l-2.14-2.14-.065-.089c-.243-.393-.17-1.086.336-1.893l9.913-14.318v-.049z" class="st2"/><path d="M12.71 38.617c-.361-.567.077-1.422 1.131-2.278l29.986-23.55c1.046-.871 1.86-.977 2.265-.632l.057.057c.336.365.304 1.115-.251 1.998l-9.933 14.342-.19.276c-.835 1.062-.798 1.884.847 1.884h19.327c.9 0 1.5.166 1.824.442.648.539.247 1.508-.94 2.48L26.839 57.182c-1.037.867-1.852.977-2.261.632l-.073-.073c-.324-.373-.284-1.114.267-1.986l10.119-14.618c.835-1.062.798-1.884-.847-1.884H14.72c-1.106 0-1.751-.247-2.006-.64z" class="st0"/><path d="m13.836 36.339 29.99-23.55m-8.053 16.045.19-.275 9.933-14.342M36.62 30.718h19.327m-9.799-18.5c.336.365.304 1.115-.251 1.998m-2.071-1.427c1.046-.871 1.86-.977 2.265-.632" class="st1"/><path d="M36.62 30.718c-1.645 0-1.682-.819-.847-1.885m21.058 4.807-29.99 23.546m8.048-16.044L24.77 55.76m9.273-16.503H14.719m9.788 18.488c-.324-.373-.284-1.114.267-1.986m2.067 1.427c-1.038.867-1.852.977-2.261.632m9.462-18.561c1.645 0 1.682.819.847 1.884m-22.18-2.524c.255.393.904.64 2.006.64m-.879-2.918c-1.054.855-1.487 1.71-1.131 2.273M56.83 33.64c1.188-.969 1.589-1.937.94-2.48-.328-.276-.924-.442-1.824-.442M11.7 34.203l29.99-23.55M36 28.583h17.811M41.69 10.653c.985-.819 1.767-.965 2.193-.685M32.547 39.306l-9.913 14.318m-.336 1.892c-.243-.393-.17-1.086.336-1.893M11.7 34.204c-1.123.912-1.544 1.824-1.046 2.383m44.904-7.628c-.345-.239-.916-.377-1.747-.377" class="st1"/><path d="M12.713 38.617h-.004v-.004l-2.055-2.03m35.494-24.365-.057-.057-2.205-2.197M55.611 29l2.164 2.16M24.58 57.818l-.073-.073-2.144-2.14" class="st1"/></svg>