<svg xmlns="http://www.w3.org/2000/svg" xml:space="preserve" id="Layer_1" x="0" y="0" viewBox="0 0 68 68"><style>.st0{fill:#5ab0ff}.st1{fill:#b0d9ff}.st2{fill:#003c73}.st3{fill:none;stroke:#003c73;stroke-linecap:round;stroke-linejoin:round}</style><path d="M42.092 53.935v4.182c0 1.066-.564 1.569-1.602 1.569h-9.171q-.853 0-1.264-.465l-.042-.056c-.197-.254-.291-.601-.291-1.048v-4.182c0-1.071.564-1.574 1.597-1.574h9.171c.55 0 .968.141 1.236.432v.009q.366.387.366 1.133m0-20.916v4.182c0 1.066-.564 1.569-1.602 1.569h-9.171q-.853 0-1.264-.465l-.042-.056c-.197-.254-.291-.601-.291-1.048v-4.182c0-1.071.564-1.574 1.597-1.574h9.171c.55 0 .968.141 1.236.432v.009q.366.387.366 1.133m0-20.914v4.182c0 1.067-.564 1.569-1.602 1.569h-9.171q-.853 0-1.264-.465l-.042-.056c-.197-.254-.291-.601-.291-1.048v-4.182c0-1.071.564-1.574 1.597-1.574h9.171c.55 0 .968.141 1.236.432v.009q.366.387.366 1.133" class="st0"/><path d="M12.958 49.139h-3.65q-.854 0-1.264-.465l-.042-.056c-.198-.254-.292-.602-.292-1.048v-4.182c0-1.071.564-1.574 1.597-1.574h9.171c.55 0 .968.141 1.236.432v.009q.366.386.366 1.132v4.182c0 1.067-.564 1.569-1.602 1.569zM62 22.471v4.181c0 1.067-.564 1.569-1.602 1.569h-9.171q-.853 0-1.264-.465l-.043-.056c-.197-.254-.291-.601-.291-1.048v-4.181c0-1.071.564-1.574 1.597-1.574h9.171c.55 0 .968.141 1.236.432v.009c.245.259.367.634.367 1.133M17.567 11.626a4.27 4.27 0 0 1 .85 2.57 4.303 4.303 0 0 1-4.304 4.304 4.32 4.32 0 0 1-3.045-1.259 4.3 4.3 0 0 1-1.264-3.045 4.307 4.307 0 0 1 4.304-4.304 4.29 4.29 0 0 1 3.454 1.734z" class="st1"/><path d="m56.531 55.687-5.826 4.506v-9.012zm-26.809-1.751v4.181q.002.668.291 1.048l-1.071-1.372-.038-.07q-.19-.351-.188-.893v-4.182c0-1.071.564-1.574 1.597-1.574h9.171c.489 0 .874.113 1.142.348l.066.066 1.034 1.311c-.268-.291-.686-.432-1.236-.432h-9.171c-1.038 0-1.597.503-1.597 1.574zM18.478 41.809H9.307c-1.038 0-1.597.503-1.597 1.574v4.182q.002.668.291 1.048L6.929 47.24l-.038-.07q-.19-.351-.188-.893v-4.181c0-1.071.564-1.574 1.597-1.574h9.171c.489 0 .874.113 1.142.348l.066.066 1.034 1.311c-.268-.291-.686-.432-1.236-.432v-.006zM60.6 20.022l1.034 1.311c-.268-.291-.686-.432-1.236-.432h-9.171c-1.038 0-1.597.503-1.597 1.574v4.182q.002.668.291 1.048l-1.071-1.372-.038-.071q-.19-.351-.188-.893v-4.181c0-1.071.564-1.574 1.597-1.574h9.171c.489 0 .874.113 1.142.348l.066.066zm-30.878-7.915v4.182q.002.668.291 1.048l-1.071-1.372-.038-.07q-.19-.351-.188-.893v-4.177c0-1.071.564-1.574 1.597-1.574h9.171c.489 0 .874.113 1.142.348l.066.066 1.034 1.311c-.268-.291-.686-.432-1.236-.432h-9.171c-1.038 0-1.597.503-1.597 1.574zM16.045 9.766l.127.127a9.5 9.5 0 0 1 1.391 1.729 4.29 4.29 0 0 0-3.449-1.729 4.307 4.307 0 0 0-4.304 4.304c0 1.189.484 2.265 1.264 3.045l-.019.019c-.667-.625-1.146-1.297-1.55-1.992a4.3 4.3 0 0 1-.705-2.36 4.31 4.31 0 0 1 4.304-4.304c1.132 0 2.166.442 2.937 1.161zm13.677 23.252V37.2q.002.668.291 1.048l-1.071-1.372-.038-.07q-.19-.351-.188-.893V31.73c0-1.071.564-1.574 1.597-1.574h9.171c.489 0 .874.113 1.142.348l.066.066 1.034 1.311c-.268-.291-.686-.432-1.236-.432h-9.171c-1.038 0-1.597.503-1.597 1.574z" class="st2"/><path d="M17.567 11.626a4.27 4.27 0 0 1 .85 2.57 4.303 4.303 0 0 1-4.304 4.304 4.32 4.32 0 0 1-3.045-1.259 4.3 4.3 0 0 1-1.264-3.045 4.307 4.307 0 0 1 4.304-4.304c1.414 0 2.664.677 3.449 1.729m13.766-1.09h9.167m-9.167 7.326h9.167m1.602-5.751v4.181m-12.371-4.181v4.182m0-4.183c0-1.071.564-1.574 1.597-1.574m10.408.433c-.268-.291-.686-.432-1.236-.432m1.602 1.573q-.001-.739-.362-1.132m-11.67 6.418c.268.31.695.465 1.264.465m-1.603-1.569q.002.668.291 1.048m12.08-1.048c0 1.067-.564 1.569-1.602 1.569" class="st3"/><path d="M9.505 15.268a4.3 4.3 0 0 1-.705-2.359 4.31 4.31 0 0 1 4.304-4.304c1.132 0 2.166.442 2.937 1.161m14.273-.516h9.171m-10.769 1.572v4.177m0-4.175c0-1.071.564-1.574 1.597-1.574m10.314.342c-.268-.23-.653-.348-1.142-.348M28.716 15c0 .362.066.658.188.893m-11.337-4.267-.005-.005a9.3 9.3 0 0 0-1.391-1.729m-5.079 7.401s-.023-.024-.038-.033c-.667-.625-1.146-1.297-1.551-1.992m20.556 2.123-.042-.056-1.076-1.372m12.79-4.989-.005-.009-1.034-1.306m10.535 11.237h9.171m-9.171 7.325h9.172m1.596-5.75v4.182m-12.366-4.182v4.182m0-4.182c0-1.071.564-1.574 1.597-1.574m10.407.432c-.268-.291-.686-.432-1.236-.432M62 22.47q-.001-.738-.362-1.132m-11.675 6.418c.268.31.695.465 1.264.465m-1.598-1.569q.002.668.291 1.048M62 26.652c0 1.067-.564 1.569-1.602 1.569m-10.182-8.608h9.172m-10.769 1.575v4.182m0-4.183c0-1.071.564-1.574 1.597-1.574m10.313.344c-.268-.23-.653-.348-1.142-.348m-10.768 5.76c0 .362.066.658.188.893" class="st3"/><path d="m49.962 27.756-.042-.056-1.071-1.372m12.789-4.989-.005-.009-1.034-1.306M9.307 41.809h9.171m-9.171 7.33h9.172m1.597-5.756v4.182M7.71 43.383v4.182m0-4.182c0-1.071.564-1.574 1.597-1.574m10.408.438c-.268-.291-.686-.432-1.236-.432m1.602 1.567q-.001-.739-.362-1.132M8.043 48.674c.268.31.695.465 1.264.465M7.71 47.564q.001.668.291 1.048m12.08-1.048c0 1.067-.564 1.569-1.602 1.569M8.297 40.527h9.171M6.699 42.1v4.182m0-4.181c0-1.071.564-1.574 1.597-1.574m10.314.348c-.268-.23-.653-.348-1.142-.348M6.699 46.281c0 .362.066.658.188.893m1.156 1.5-.042-.061-1.071-1.367" class="st3"/><path d="m19.719 42.256-.005-.009-1.034-1.311m12.643-9.491h9.167m-9.167 7.325h9.167m1.602-5.752V37.2m-12.371-4.182V37.2m0-4.181c0-1.071.564-1.574 1.597-1.574m10.408.437c-.268-.291-.686-.432-1.236-.432m1.602 1.569q-.001-.739-.362-1.132m-11.67 6.422c.268.31.695.465 1.264.465m-1.603-1.575q.002.668.291 1.048m12.08-1.048c0 1.067-.564 1.569-1.602 1.569m-10.176-8.606h9.171m-10.769 1.574v4.182m0-4.182c0-1.071.564-1.574 1.597-1.574m10.314.342c-.268-.23-.653-.348-1.142-.348m-10.769 5.762c0 .362.066.658.188.893" class="st3"/><path d="m30.059 38.309-.042-.061-1.076-1.367m12.79-4.99-.005-.009-1.034-1.311m-9.369 21.786h9.167m-9.167 7.331h9.167m1.602-5.752v4.177m-12.371-4.177v4.177m0-4.178c0-1.071.564-1.574 1.597-1.574m10.408.433c-.268-.291-.686-.432-1.236-.432m1.602 1.573q-.001-.739-.362-1.132m-11.67 6.418c.268.31.695.465 1.264.465m-1.603-1.573q.002.668.291 1.048m12.08-1.048c0 1.066-.564 1.569-1.602 1.569m-10.176-8.608h9.171m-10.769 1.574v4.182m0-4.182c0-1.071.564-1.574 1.597-1.574m10.314.348c-.268-.23-.653-.348-1.142-.348M28.716 56.83c0 .362.066.658.188.893" class="st3"/><path d="m30.059 59.221-.042-.061-1.076-1.367m12.79-4.99-.005-.009-1.034-1.311M20.081 34.775h8.466m13.545 0h6.714M18.418 13.863h10.191m13.483 0h6.714M20.081 55.688h8.466m13.809 0h8.213m4.919-36.074c-1.052-3.261-3.28-5.751-6.676-5.751m-.005 20.912c3.674 0 5.976-2.904 6.911-6.554m-42.53 12.305c1.057-3.261 3.28-5.751 6.676-5.751m.001 20.913c-3.674 0-5.976-2.904-6.907-6.554 0-.005 0-.014-.005-.019m37.752 2.067v9.012m0-9.012 5.826 4.506m-5.826 4.505 5.826-4.506" class="st3"/></svg>