<svg xmlns="http://www.w3.org/2000/svg" id="Layer_1" data-name="Layer 1" version="1.1" viewBox="0 0 68 68"><defs><style>.cls-1{fill:#ff7101}.cls-1,.cls-2,.cls-3,.cls-4,.cls-5{stroke-width:0}.cls-6{fill:none;stroke:#002140;stroke-linecap:round;stroke-linejoin:round}.cls-2{fill:#002140}.cls-3{fill:#e4bc07}.cls-4{fill:#d18000}.cls-5{fill:#bf3013}</style></defs><path d="M53.904,31.437H14v13.684s.385,16.626,21.232,16.498c13.684,0,18.931-12.277,19.058-17.393.127-5.115-.385-12.79-.385-12.79h0Z" class="cls-1"/><path d="M17.966,31.31h-3.966v14.197s1.534,15.477,17.905,15.858c0,0-13.303-3.327-14.197-18.033-.513-8.184.254-12.023.254-12.023h.004Z" class="cls-5"/><path d="M35.104,34.637s3.454,2.174,3.454,4.475-1.534,5.115-2.429,5.374l1.92,11.769,2.941-.513-1.792-12.023s3.068-2.047,2.559-4.475c-.509-2.428-2.301-5.501-6.649-4.603l-.004-.004Z" class="cls-4"/><path d="M36.126,44.486s2.517-2.259,2.517-4.734-2.386-4.776-4.263-4.776-3.099,3.161-3.068,3.835c.027.678,1.11,4.009,2.471,4.946l-2.301,12.193s5.285,1.11,6.565.297l-1.92-11.769v.008Z" class="cls-2"/><path d="M25.255,31.183l-.285-2.429s.428-.64-1.565-.64-5.408.127-5.408.127c0,0-1.137.127-1.137,1.021v1.92h8.396Z" class="cls-4"/><path d="M51.772,31.183l-.285-2.429s.428-.64-1.565-.64-5.408.127-5.408.127c0,0-1.137.127-1.137,1.021v1.92h8.399-.004Z" class="cls-4"/><path d="M50.92,27.644l-.316-7.216s-3.011-13.842-16.356-13.418c-13.341.428-16.309,13.222-16.309,13.222l-.782,7.586,7.212-.17.035-6.225s2.228-7.49,9.895-7.582c7.667-.093,9.205,7.667,9.205,7.667l.852,6.48,6.565-.339v-.004Z" class="cls-3"/><path d="M54.22,31.341v11.923c0,10.123-8.207,18.329-18.329,18.329s-18.329-8.207-18.329-18.329v-11.923h36.659Z" class="cls-6"/><path d="M36.789,61.593c-16.383,0-22.755-8.207-22.755-18.333v-11.923h4.645" class="cls-6"/><path d="M41.684,39.49c0-2.856-2.317-5.173-5.173-5.173s-5.173,2.317-5.173,5.173c0,1.885,1.01,3.527,2.513,4.433l-2.575,11.819s4.387,2.586,9.672,0l-2.139-11.626c1.7-.848,2.872-2.598,2.872-4.629l.004.004Z" class="cls-6"/><path d="M37.915,56.192l-2.139-11.626c1.7-.848,2.872-2.598,2.872-4.63,0-2.502-1.773-4.587-4.132-5.069" class="cls-6"/><path d="M16.69,31.09v-1.893c0-.632.59-1.141,1.318-1.141h5.929c.729,0,1.318.513,1.318,1.141v1.893" class="cls-6"/><path d="M43.207,31.09v-1.893c0-.632.59-1.141,1.318-1.141h5.929c.728,0,1.318.513,1.318,1.141v1.893" class="cls-6"/><path d="M24.365,28.056v-4.684c0-5.458,4.425-9.88,9.88-9.88s9.88,4.425,9.88,9.88v4.641" class="cls-6"/><path d="M50.92,28.01v-4.329c0-9.209-7.463-16.672-16.672-16.672s-16.668,7.463-16.668,16.672v4.375" class="cls-6"/></svg>