<?xml version="1.0" encoding="utf-8"?>
<!-- Generator: Adobe Illustrator 26.5.0, SVG Export Plug-In . SVG Version: 6.00 Build 0)  -->
<svg version="1.1" id="Layer_1" xmlns="http://www.w3.org/2000/svg" xmlns:xlink="http://www.w3.org/1999/xlink" x="0px" y="0px"
	 viewBox="0 0 68 68" style="enable-background:new 0 0 68 68;" xml:space="preserve">
<style type="text/css">
	.st0{fill:#712B02;}
	.st1{fill:#002140;}
	.st2{fill:#06CD7C;}
	.st3{fill:#0B4F38;}
	.st4{fill:#C88000;}
	.st5{fill:#F6DC5E;}
</style>
<g>
	<path class="st0" d="M7.6,34.1l15.4-12.3l2.3-0.4V24c0,0-4.1,10.2-4.7,10.2C20,34.2,7.6,34.1,7.6,34.1L7.6,34.1z"/>
</g>
<g>
	<path class="st1" d="M6.5,34.7c-0.2,0-0.3-0.1-0.4-0.2C5.9,34.3,6,34,6.2,33.8l15.7-12.1c1.2-0.9,2.7-1.1,4.1-0.6
		c0.3,0.1,0.4,0.4,0.3,0.6c-0.1,0.3-0.4,0.4-0.6,0.3c-1-0.4-2.3-0.2-3.1,0.5L6.8,34.6C6.7,34.7,6.6,34.7,6.5,34.7z"/>
</g>
<g>
	<path class="st2" d="M30.6,12.1L18,12.9c0,0-1.5,5.8,0.1,9c1.6,3.3,4,6.8,3.7,8.8c-0.3,2.1-1.1,6.9-1.1,6.9l11.9-0.5
		c0,0,2.8-4.9,1.7-8.3C33.4,25.4,27.8,18.5,30.6,12.1L30.6,12.1z"/>
</g>
<g>
	<path class="st3" d="M32.2,34.9c0.6-0.8,0.7-1.8,0.1-2.3s-1.6-0.1-2.2,0.7c-0.6,0.8-0.7,1.8-0.1,2.3C30.6,36.1,31.6,35.7,32.2,34.9
		z"/>
</g>
<g>
	<path class="st3" d="M25.5,35.5c0.6-0.8,0.7-1.8,0.1-2.3c-0.6-0.4-1.6-0.1-2.2,0.7c-0.6,0.8-0.7,1.8-0.1,2.3S24.8,36.4,25.5,35.5z"
		/>
</g>
<g>
	<path class="st3" d="M21.1,16.6c0.6-0.8,0.7-1.8,0.1-2.3c-0.6-0.4-1.6-0.1-2.2,0.7c-0.6,0.8-0.7,1.8-0.1,2.3
		C19.5,17.7,20.5,17.4,21.1,16.6z"/>
</g>
<g>
	<path class="st3" d="M27.9,16.1c0.6-0.8,0.7-1.8,0.1-2.3c-0.6-0.4-1.6-0.1-2.2,0.7c-0.6,0.8-0.7,1.8-0.1,2.3S27.3,16.9,27.9,16.1z"
		/>
</g>
<g>
	<path class="st3" d="M28.6,31.2c1.9-0.8,2.2-4.2,0.8-7.6c-1.4-3.4-4.1-5.6-6-4.8c-1.9,0.8-2.2,4.2-0.8,7.6
		C24.1,29.9,26.8,32,28.6,31.2z"/>
</g>
<g>
	<path class="st1" d="M20.2,38.4c-0.2,0-0.3-0.1-0.4-0.2c-0.1-0.2-0.1-0.4,0-0.5c0.9-1.5,1.4-3,1.6-4.4v0c0.4-3.3-1-6-2.4-8.7
		c-1.9-3.6-3.8-7.3-1-12.1c0.1-0.1,0.2-0.2,0.4-0.2L31,11.5c0.2,0,0.4,0.1,0.5,0.2c0.1,0.2,0.1,0.4,0,0.5c-2.5,4.3-0.8,7.6,1.1,11.2
		c2,3.8,4.2,8.2,0.8,14.1c-0.1,0.1-0.2,0.2-0.4,0.2L20.2,38.4C20.2,38.4,20.2,38.4,20.2,38.4z M22.3,33.3c-0.2,1.3-0.6,2.6-1.3,4
		l11.5-0.6c3-5.3,1.1-9-0.9-12.9c-1.8-3.4-3.6-6.9-1.5-11.3l-11.5,0.6c-2.3,4.2-0.6,7.5,1.2,10.9C21.3,26.8,22.8,29.7,22.3,33.3
		L22.3,33.3z"/>
</g>
<g>
	<path class="st2" d="M48.1,26.1l-8.2-9.5c0,0-5.5,2.3-7.1,5.5c-1.6,3.3-2.9,7.3-4.8,8.3c-1.8,1-6.1,3.3-6.1,3.3l7.6,9.1
		c0,0,5.5-0.8,7.6-3.6C39.2,36.4,41.4,27.8,48.1,26.1L48.1,26.1z"/>
</g>
<g>
	<path class="st3" d="M30.5,40.3c1,0,1.9-0.6,1.9-1.3c0-0.7-0.8-1.3-1.9-1.3c-1,0-1.9,0.6-1.9,1.3C28.7,39.7,29.5,40.3,30.5,40.3z"
		/>
</g>
<g>
	<path class="st3" d="M38.8,21.3c1,0,1.9-0.6,1.9-1.3c0-0.7-0.8-1.3-1.9-1.3s-1.9,0.6-1.9,1.3C36.9,20.7,37.7,21.3,38.8,21.3z"/>
</g>
<g>
	<path class="st3" d="M43.3,26.4c1,0,1.9-0.6,1.9-1.3c0-0.7-0.8-1.3-1.9-1.3c-1,0-1.9,0.6-1.9,1.3C41.5,25.8,42.3,26.4,43.3,26.4z"
		/>
</g>
<g>
	<path class="st3" d="M38.3,32.2c1.9-3.2,1.9-6.7,0.2-7.7c-1.8-1-4.7,0.8-6.6,4c-1.9,3.2-1.9,6.7-0.2,7.7
		C33.5,37.2,36.4,35.4,38.3,32.2z"/>
</g>
<g>
	<path class="st3" d="M24.1,36c0.8,0,1.5-0.7,1.5-1.5c0-0.8-0.7-1.5-1.5-1.5c-0.8,0-1.5,0.7-1.5,1.5C22.6,35.3,23.3,36,24.1,36z"/>
</g>
<g>
	<path class="st3" d="M29.9,38.5c0.8,0,1.5-0.7,1.5-1.5c0-0.8-0.7-1.5-1.5-1.5c-0.8,0-1.5,0.7-1.5,1.5C28.3,37.8,29,38.5,29.9,38.5z
		"/>
</g>
<g>
	<path class="st0" d="M8.1,33.5c0,0-1.9,0.4-2,1.5c-0.1,1.2,0,22.8,0,22.8s1.8,1.5,2.6,1.5h38.4c0,0,1.6-1.4,1.6-2.9v-21
		c0,0-0.6-1.9-2-1.9H8.1L8.1,33.5z"/>
</g>
<g>
	<path class="st4" d="M6.2,38.5h35.4c0,0,3.3,0.1,3.3,2.7v11.6c0,0-0.7,2-4.8,2H6L6.2,38.5L6.2,38.5z"/>
</g>
<g>
	<path class="st5" d="M38.6,49.4c1.4,0,2.6-1.2,2.6-2.6c0-1.4-1.2-2.6-2.6-2.6c-1.4,0-2.6,1.2-2.6,2.6C36,48.3,37.2,49.4,38.6,49.4z
		"/>
</g>
<g>
	<path class="st1" d="M46.5,59.6H8.1c-1.4,0-2.6-1.2-2.6-2.6V35.5c0-1.4,1.2-2.6,2.6-2.6h38.4c1.4,0,2.6,1.2,2.6,2.6V57
		C49.1,58.5,48,59.6,46.5,59.6z M8.1,33.9c-0.9,0-1.6,0.7-1.6,1.6V57c0,0.9,0.7,1.6,1.6,1.6h38.4c0.9,0,1.6-0.7,1.6-1.6V35.5
		c0-0.9-0.7-1.6-1.6-1.6H8.1z"/>
</g>
<g>
	<path class="st1" d="M41.2,55.3H6.3c-0.3,0-0.5-0.2-0.5-0.5s0.2-0.5,0.5-0.5h34.9c1.9,0,3.4-1.5,3.4-3.3v-8.9
		c0-1.8-1.5-3.3-3.4-3.3H6.4c-0.3,0-0.5-0.2-0.5-0.5s0.2-0.5,0.5-0.5h34.8c2.4,0,4.4,1.9,4.4,4.3V51C45.6,53.3,43.6,55.3,41.2,55.3z
		"/>
</g>
<g>
	<path class="st1" d="M38.6,50.1c-1.8,0-3.2-1.5-3.2-3.2s1.5-3.2,3.2-3.2s3.2,1.5,3.2,3.2S40.4,50.1,38.6,50.1z M38.6,44.6
		c-1.2,0-2.2,1-2.2,2.2c0,1.2,1,2.2,2.2,2.2s2.2-1,2.2-2.2C40.8,45.6,39.8,44.6,38.6,44.6z"/>
</g>
<g>
	<path class="st1" d="M40.2,33.9c-0.1,0-0.1,0-0.2,0c-0.2-0.1-0.4-0.4-0.2-0.7c1.6-3.3,3.4-6.3,7.7-7.2l-7.4-8.8
		c-4.7,0.7-6.3,4-8,7.6c-1.8,3.8-3.8,8.1-10.2,9.1c-0.3,0-0.5-0.1-0.6-0.4c0-0.3,0.1-0.5,0.4-0.6c5.8-0.9,7.6-4.8,9.4-8.5
		c1.7-3.7,3.5-7.5,9-8.2c0.2,0,0.3,0,0.4,0.2l8.2,9.7c0.1,0.1,0.2,0.3,0.1,0.5c-0.1,0.2-0.2,0.3-0.4,0.3c-4.5,0.6-6.2,3.4-7.9,6.8
		C40.6,33.8,40.4,33.9,40.2,33.9z"/>
</g>
<g>
	<path class="st2" d="M66.8,20.5L61.8,9c0,0-6,0.5-8.5,3.2c-2.5,2.7-5,6.1-7,6.5c-2.1,0.4-6.8,1.3-6.8,1.3L44,31
		c0,0,5.5,0.9,8.4-1.2S59.9,20.1,66.8,20.5L66.8,20.5z"/>
</g>
<g>
	<path class="st3" d="M48.1,29.1c0.2-0.7-0.4-1.5-1.4-1.8c-1-0.3-2,0-2.2,0.7c-0.2,0.7,0.4,1.5,1.4,1.8
		C46.9,30.1,47.9,29.8,48.1,29.1z"/>
</g>
<g>
	<path class="st3" d="M45.2,23c0.2-0.7-0.4-1.5-1.4-1.8c-1-0.3-2,0-2.2,0.7c-0.2,0.7,0.4,1.5,1.4,1.8C44,24,45,23.7,45.2,23z"/>
</g>
<g>
	<path class="st3" d="M61.5,12.4c0.2-0.7-0.4-1.5-1.4-1.8c-1-0.3-2,0-2.2,0.7c-0.2,0.7,0.4,1.5,1.4,1.8
		C60.3,13.4,61.3,13.1,61.5,12.4z"/>
</g>
<g>
	<path class="st3" d="M64.3,18.7c0.2-0.7-0.4-1.5-1.4-1.8c-1-0.3-2,0-2.2,0.7c-0.2,0.7,0.4,1.5,1.4,1.8
		C63.2,19.7,64.1,19.4,64.3,18.7z"/>
</g>
<g>
	<path class="st3" d="M55.6,23.4c2.7-2.5,3.8-5.8,2.4-7.3c-1.4-1.5-4.7-0.7-7.5,1.9c-2.7,2.5-3.8,5.8-2.4,7.3
		C49.6,26.7,52.9,25.9,55.6,23.4z"/>
</g>
<g>
	<path class="st1" d="M46.5,31.9c-0.8,0-1.7-0.1-2.6-0.3c-0.2,0-0.3-0.1-0.4-0.3l-4.9-11.7c-0.1-0.2,0-0.4,0.1-0.5
		c0.1-0.1,0.3-0.2,0.5-0.2c6.2,1.1,9.1-2,12.1-5.2c2.8-3,5.6-6.1,11-5.1c0.2,0,0.3,0.1,0.4,0.3l4.9,11.7c0.1,0.2,0,0.4-0.1,0.5
		c-0.1,0.1-0.3,0.2-0.5,0.2c-4.9-0.9-7.4,1.9-10.1,4.8C54.4,28.9,51.5,31.9,46.5,31.9z M44.3,30.8c6,1,8.8-2,11.8-5.3
		c2.6-2.8,5.3-5.7,10.2-5.2L61.8,9.6c-4.7-0.7-7.2,2-9.9,4.9c-2.8,3-5.9,6.5-12.1,5.7L44.3,30.8z"/>
</g>
</svg>
