<svg xmlns="http://www.w3.org/2000/svg" id="Layer_1" viewBox="0 0 68 68"><defs><style>.st0{stroke:#f25730;stroke-width:3px}.st0,.st1,.st2,.st3{stroke-linecap:round;stroke-linejoin:round}.st0,.st3{fill:none}.st4{fill:#f25730}.st1{fill:#ccf6ff}.st1,.st2,.st3{stroke:#002140;stroke-width:1px}.st2{fill:#fffaf0}</style></defs><path d="M34 59c13.807 0 25-11.193 25-25S47.807 9 34 9 9 20.193 9 34s11.193 25 25 25" class="st1"/><path d="M34 54c11.046 0 20-8.954 20-20s-8.954-20-20-20-20 8.954-20 20 8.954 20 20 20" class="st2"/><path d="M34 18v4m0 24v4m16-16.005h-4m-24 0h-4m8-13.851 2 3.464m12 20.784 2 3.464m5.854-21.86-3.464 2m-20.785 12-3.464 2M20.144 26l3.464 2m20.784 12 3.464 2m-5.86-21.859-2 3.464m-12 20.785-2 3.464" class="st3"/><path d="M34 38a4 4 0 1 0 0-8 4 4 0 0 0 0 8" class="st4"/><path d="M34 22v12l10 10" class="st0"/></svg>