<svg xmlns="http://www.w3.org/2000/svg" width="60" height="70" fill="none" viewBox="0 0 38 40"><path fill="#d18000" d="m13.84 7.325-2.387-3.799S9.894.798 7.022.848C4.149.896 2.005 2.018 1.03 4.695s-.291 4.627.731 5.748 3.994 1.85 3.994 1.85l.048 12.08 3.361 2.825s-.39-10.668-.341-11.253c.048-.584.146-2.63.146-2.63s.438-.875 1.656-1.364c1.217-.488 14.173-4.92 14.173-4.92l-3.262-2.143s-1.706.29-2.24.536c-.537.243-5.454 1.901-5.454 1.901z"/><path fill="#ffed8f" d="M26.882 9.36s-.804-2.083-2.339-2.12c-1.535-.038-2.958.694-2.958.694l-11.287 4.092s-1.06.657-1.242 1.717-.072 12.785-.072 12.785 1.023 2.045 2.595 1.9c1.573-.143 14.173-5.186 14.173-5.186s1.023-.22 1.098-2.23c.072-2.01.037-11.653.037-11.653z"/><path fill="#722b03" d="M24.847 7.181 21 4.891l-1.706.536L7.02 9.91s-1.121.78-1.121 1.754-.096 12.713-.096 12.713l3.262 2.386-.013-13.017s.45-1.402 1.57-1.791c1.118-.39 12.517-4.579 12.517-4.579s1.46-.29 1.706-.195z"/><path fill="#00b268" d="m25.533 33.311-.865 1.228c-.125.179-.05.414.166.51l4.503 2.013c.2.09.449.024.558-.147l4.317-6.754c.115-.179.035-.406-.176-.497l-1.308-.574c-.198-.088-.44-.024-.55.142l-3.249 4.912c-.115.17-.366.232-.566.136l-2.27-1.097a.456.456 0 0 0-.56.128m-4.071-15.298.777 1.471c.112.214.045.494-.15.609l-4.052 2.413c-.182.107-.403.03-.502-.176l-3.885-8.089c-.104-.213-.032-.486.158-.595l1.177-.689c.179-.104.395-.03.497.17l2.923 5.885c.101.205.328.277.51.163l2.042-1.317c.176-.114.398-.045.505.153z"/><path fill="#00b268" d="M35.512 26.441h-12.08c-1.207 0-2.186.847-2.186 1.893v9.536c0 1.044.977 1.893 2.186 1.893h12.08c1.207 0 2.187-.846 2.187-1.893v-9.536c0-1.044-.977-1.893-2.187-1.893m-.62 10.236c0 .518-.485.937-1.083.937h-8.68c-.597 0-1.083-.42-1.083-.937v-7.15c0-.517.486-.937 1.084-.937h8.679c.598 0 1.084.42 1.084.938zM22.666 9.586l-10.492 4.066c-.667.259-1.121.971-1.134 1.78l-.142 8.78c-.021 1.306 1.076 2.246 2.157 1.851l10.45-3.807c.677-.248 1.147-.964 1.163-1.783l.187-9.037c.027-1.324-1.095-2.272-2.186-1.85zm.44 10.185c0 .4-.253.755-.627.889l-7.91 2.843a.95.95 0 0 1-1.271-.903l.067-6.551a.945.945 0 0 1 .622-.88l7.87-2.903a.95.95 0 0 1 1.279.895l-.027 6.61z"/><path stroke="#002140" stroke-linecap="round" stroke-linejoin="round" d="M26.844 21.089V9.986c0-1.946-1.858-3.31-3.634-2.67L10.7 11.844c-1.094.398-1.828 1.468-1.828 2.67v11.103c0 1.946 1.858 3.31 3.633 2.67l12.51-4.528c1.095-.398 1.829-1.469 1.829-2.67"/><path stroke="#002140" stroke-linecap="round" stroke-linejoin="round" d="m9.95 27.87-3.833-3.201a2.9 2.9 0 0 1-.312-1.322V12.244c0-1.201.734-2.272 1.828-2.67l12.51-4.527c.462-.169 1.135-.273 1.816.173l3.735 2.459"/><path stroke="#002140" stroke-linecap="round" stroke-linejoin="round" d="M5.748 12.24c-.82-.109-1.634-.194-2.488-.672C1.343 10.492.652 8.703.652 6.66A5.92 5.92 0 0 1 6.57.742c4.728.096 5.107 4.013 7.2 6.458"/></svg>