<svg xmlns="http://www.w3.org/2000/svg" xml:space="preserve" id="Layer_1" x="0" y="0" viewBox="0 0 68 68"><style>.st0,.st1,.st2{fill:#28736d;stroke:#002140;stroke-miterlimit:10}.st1,.st2{fill:#5ab0ff}.st2{fill:#f25730}</style><path d="M34.418 59.869H19.943c-1.408 0-1.505-2.694.092-2.694 6.155 0 12.125-2.155 12.125-5.926l.018-.014v-4.199H11.452c-2.909 0-5.287-2.477-5.287-5.507V14.507C6.166 11.477 8.544 9 11.452 9h45.261C59.622 9 62 11.477 62 14.507v27.027c0 3.03-2.378 5.507-5.287 5.507H36.038v.029l-.051 4.17v.014c.005 3.771 5.974 5.926 12.134 5.926 1.597 0 1.505 2.694.092 2.694H33.738h.683z" class="st0"/><path d="M57.272 11.742H10.889c-1.26 0-2.281 1.064-2.281 2.376v27.969c0 1.312 1.021 2.376 2.281 2.376h46.383c1.26 0 2.281-1.064 2.281-2.376V14.118c0-1.312-1.022-2.376-2.281-2.376z" class="st1"/><path d="m42.681 33.05-4.279-4.279a1.09 1.09 0 0 1 0-1.542l4.279-4.279a1.09 1.09 0 0 0 0-1.542l-2.089-2.089a1.09 1.09 0 0 0-1.542 0l-4.279 4.279a1.09 1.09 0 0 1-1.542 0l-4.279-4.279a1.09 1.09 0 0 0-1.542 0l-2.089 2.089a1.09 1.09 0 0 0 0 1.542l4.279 4.279a1.09 1.09 0 0 1 0 1.542l-4.279 4.279a1.09 1.09 0 0 0 0 1.542l2.089 2.089a1.09 1.09 0 0 0 1.542 0l4.279-4.279a1.09 1.09 0 0 1 1.542 0l4.279 4.279a1.09 1.09 0 0 0 1.542 0l2.089-2.089a1.09 1.09 0 0 0 0-1.542z" class="st2"/></svg>