<svg width="48" height="48" viewBox="0 0 48 48" fill="none" xmlns="http://www.w3.org/2000/svg">
    <path
        d="M18.0413 24.3812L16.6602 26.4517C16.6602 26.4517 19.1119 26.4164 23.6671 30.974C23.6671 30.974 25.2907 22.4118 30.0883 17.2354L29.8812 16.9601L28.0177 16.1318C28.0177 16.1318 24.3589 20.033 22.5636 26.8682C22.5636 26.8682 20.2507 24.727 18.0413 24.3835V24.3812Z"
        fill="#00B268" />
    <path
        d="M24.3235 9.63574V12.5251C24.3235 12.5251 14.7212 11.6663 12.926 23.0638C12.926 23.0638 12.3024 34.539 24.1682 35.1649V37.819C24.1682 37.819 10.4272 37.1955 10.1166 23.9227C10.1166 15.1016 17.22 10.104 24.3258 9.63574H24.3235Z"
        fill="#00B268" />
    <path
        d="M23.7777 9.63574V12.5251C23.7777 12.5251 33.38 11.6663 35.1753 23.0638C35.1753 23.0638 35.7988 34.539 23.933 35.1649V37.819C23.933 37.819 37.6741 37.1955 37.9847 23.9227C37.9847 15.1016 30.8812 10.104 23.7754 9.63574H23.7777Z"
        fill="#00B268" />
    <path
        d="M28.055 16.0996C26.4174 17.5467 23.1045 23.4948 22.528 26.8783C22.2951 26.6524 21.1233 25.3372 17.9493 24.2666C17.8293 24.4642 16.7987 26.1889 16.6716 26.3724C19.5822 26.7395 23.5869 30.7912 23.7139 30.9983C24.6221 25.7395 27.7421 19.2384 30.128 17.1584C29.855 17.0172 28.2903 16.2525 28.0574 16.0996H28.055Z"
        stroke="#008C59" stroke-width="0.857134" stroke-linecap="round" stroke-linejoin="round" />
    <path
        d="M24.1258 37.812C31.8525 37.812 38.1163 31.5482 38.1163 23.8215C38.1163 16.0948 31.8525 9.83105 24.1258 9.83105C16.3991 9.83105 10.1354 16.0948 10.1354 23.8215C10.1354 31.5482 16.3991 37.812 24.1258 37.812Z"
        stroke="#008C59" stroke-width="0.857134" stroke-linecap="round" stroke-linejoin="round" />
    <path
        d="M24.126 35.09C30.3492 35.09 35.3941 30.045 35.3941 23.8218C35.3941 17.5986 30.3492 12.5537 24.126 12.5537C17.9028 12.5537 12.8578 17.5986 12.8578 23.8218C12.8578 30.045 17.9028 35.09 24.126 35.09Z"
        stroke="#008C59" stroke-width="0.857134" stroke-linecap="round" stroke-linejoin="round" />
</svg>