<svg xmlns="http://www.w3.org/2000/svg" width="48" height="48" fill="none" viewBox="0 0 48 48"><path fill="#ffa75a" stroke="#002140" stroke-linecap="round" stroke-linejoin="round" d="M41.655 24.43c.018 1.231.552 3.49.56 4.721.01 1.231-.424 2.596-1.512 3.172-1.447.764-3.472-.125-4.733.918l.815-1.728c.886-.552 2.08.07 2.866-.346 1.228-.649 1.185-1.667 1.176-2.728s-.424-3.002-.436-4.063v-.067c.015-1.061.43-3.002.436-4.063s.049-2.08-1.176-2.729c-.789-.415-1.983.206-2.866-.345l-.815-1.729c1.261 1.04 3.29.152 4.733.919 1.088.576 1.525 1.937 1.513 3.172-.012 1.233-.546 3.49-.561 4.72v.182zM23.618 42.07c-1.231.019-3.49.552-4.721.562-1.231.009-2.596-.425-3.172-1.514-.764-1.446.124-3.471-.919-4.733l1.729.816c.552.886-.07 2.08.345 2.865.65 1.228 1.668 1.186 2.73 1.177 1.06-.01 3-.425 4.062-.437h.067c1.061.015 3.002.43 4.063.437 1.06.006 2.08.048 2.729-1.177.415-.788-.207-1.983.345-2.865l1.728-.816c-1.04 1.262-.151 3.29-.918 4.733-.576 1.089-1.938 1.526-3.172 1.514s-3.49-.546-4.72-.561h-.183zM23.8 6.496c1.23-.018 3.49-.552 4.72-.561 1.232-.01 2.596.424 3.172 1.513.764 1.446-.124 3.471.919 4.733l-1.728-.816c-.552-.885.07-2.08-.346-2.865-.649-1.228-1.668-1.186-2.729-1.177-1.061.01-3.002.425-4.063.437h-.067c-1.06-.015-3.001-.43-4.062-.437-1.062-.006-2.08-.048-2.73 1.177-.415.788.207 1.983-.345 2.865l-1.728.816c1.04-1.261.151-3.29.919-4.733.576-1.089 1.937-1.525 3.171-1.513s3.49.546 4.721.56h.182zM5.774 24.248c-.018-1.23-.551-3.49-.56-4.72-.01-1.232.424-2.596 1.512-3.172 1.447-.764 3.472.124 4.733-.919l-.815 1.728c-.886.552-2.08-.07-2.865.346-1.228.649-1.186 1.668-1.177 2.729.01 1.061.425 3.002.437 4.063v.066c-.015 1.062-.43 3.002-.437 4.063-.006 1.062-.048 2.08 1.177 2.73.788.415 1.982-.207 2.865.345l.815 1.728c-1.26-1.04-3.29-.151-4.733-.919-1.088-.576-1.525-1.937-1.513-3.171.01-1.231.546-3.49.561-4.72v-.183z"/><path fill="#f25730" d="M38.54 22.511a15 15 0 0 1 0 3.635l-.23-.027h-6.392l-.085-.018a8.4 8.4 0 0 0 .009-3.532l.079-.015h6.224l.4-.046z"/><path fill="#fffaf0" d="m38.54 22.511-.4.046h-6.226l-.079.015a8.35 8.35 0 0 0-6.446-6.416l.052-.24V9.695l.027-.23c6.828.812 12.247 6.22 13.068 13.049zm-.234 3.611.23.027c-.83 6.813-6.236 12.21-13.052 13.03l-.04-.359v-6.224l-.027-.116a8.35 8.35 0 0 0 6.413-6.376l.085.018z"/><path fill="#f25730" d="m25.444 38.82.04.358q-.888.11-1.801.11a15 15 0 0 1-1.826-.11l.021-.188V32.6l.028-.125a8.35 8.35 0 0 0 3.51.01l.028.115v6.224zm.027-29.356-.027.23v6.225l-.052.24a8.4 8.4 0 0 0-3.496.018l-.018-.088V9.695l-.027-.225a15.2 15.2 0 0 1 3.617-.003z"/><path fill="#fffaf0" d="m21.906 32.471-.027.125v6.391l-.022.188c-6.804-.828-12.2-6.225-13.028-13.029l.185-.02h6.391l.13-.028a8.35 8.35 0 0 0 6.37 6.376zm-.028-16.388.018.088a8.35 8.35 0 0 0-6.38 6.443l-.278-.06H9.013l-.19-.022c.812-6.822 6.212-12.234 13.028-13.068l.027.224z"/><path fill="#f25730" d="m15.536 26.095-.13.027H9.013l-.185.021a15 15 0 0 1-.003-3.608l.19.021h6.225l.28.061a8.5 8.5 0 0 0-.174 1.704c0 .582.067 1.2.192 1.774z"/><path stroke="#002140" stroke-linecap="round" stroke-linejoin="round" d="M38.539 22.511a15 15 0 0 1 0 3.635c-.831 6.813-6.237 12.21-13.053 13.029q-.888.11-1.801.11c-.61 0-1.228-.037-1.826-.11-6.804-.828-12.2-6.225-13.028-13.029a15 15 0 0 1-.003-3.608C9.64 15.716 15.04 10.304 21.856 9.47a15.2 15.2 0 0 1 3.618-.003c6.828.813 12.246 6.222 13.068 13.05z"/><path stroke="#002140" stroke-linecap="round" stroke-linejoin="round" d="M31.838 22.572q.18.847.181 1.75c0 .6-.066 1.209-.19 1.782a8.36 8.36 0 0 1-6.413 6.376q-.842.183-1.735.182a8.348 8.348 0 0 1-8.165-10.045 8.346 8.346 0 0 1 9.875-6.461 8.35 8.35 0 0 1 6.447 6.416m-22.822-.016h6.221m.167 3.566H9.016m22.901-3.566h6.222m.167 3.566h-6.389M25.443 9.695v6.221m-3.565.167V9.695m3.565 22.9v6.225m-3.565.167v-6.392"/><path fill="#ffa75a" d="M23.618 42.07c-1.231.019-3.49.552-4.721.561s-2.595-.424-3.172-1.513c-.764-1.446.125-3.471-.918-4.733l.97-1.506c1.577 1.782.691 4.402 1.107 5.19.648 1.228 1.667 1.186 2.728 1.177 1.062-.01 3.002-.425 4.063-.437"/><path stroke="#002140" stroke-linecap="round" stroke-linejoin="round" d="M23.618 42.07c-1.231.019-3.49.552-4.721.561s-2.595-.424-3.172-1.513c-.764-1.446.125-3.471-.918-4.733l.97-1.506c1.577 1.782.691 4.402 1.107 5.19.648 1.228 1.667 1.186 2.728 1.177 1.062-.01 3.002-.425 4.063-.437"/><path fill="#ffa75a" d="M5.783 24.22c-.018-1.23-.552-3.489-.56-4.72-.01-1.231.424-2.595 1.512-3.172 1.447-.763 3.472.125 4.733-.918l.867-.904.643 1.874c-1.783 1.577-4.402.691-5.19 1.107-1.229.649-1.186 1.667-1.177 2.729.01 1.06.425 3.001.437 4.063"/><path stroke="#002140" stroke-linecap="round" stroke-linejoin="round" d="M5.783 24.22c-.018-1.23-.552-3.489-.56-4.72-.01-1.231.424-2.595 1.512-3.172 1.447-.763 3.472.125 4.733-.918l.867-.904.643 1.874c-1.783 1.577-4.402.691-5.19 1.107-1.229.649-1.186 1.667-1.177 2.729.01 1.06.425 3.001.437 4.063"/><path fill="#ffa75a" d="M23.973 6.502c1.23-.018 3.49-.552 4.72-.561 1.231-.01 2.596.424 3.172 1.513.764 1.446-.124 3.472.919 4.733l-.97 1.507c-1.577-1.783-.692-4.403-1.107-5.191-.65-1.228-1.668-1.186-2.73-1.177-1.06.01-3 .425-4.062.437"/><path stroke="#002140" stroke-linecap="round" stroke-linejoin="round" d="M23.973 6.502c1.23-.018 3.49-.552 4.72-.561 1.231-.01 2.596.424 3.172 1.513.764 1.446-.124 3.472.919 4.733l-.97 1.507c-1.577-1.783-.692-4.403-1.107-5.191-.65-1.228-1.668-1.186-2.73-1.177-1.06.01-3 .425-4.062.437"/><path fill="#ffa75a" d="M41.677 24.554c.018 1.231.551 3.49.56 4.721s-.424 2.596-1.512 3.172c-1.447.764-3.472-.125-4.733.918l-1.507-.97c1.783-1.576 4.402-.691 5.19-1.106 1.229-.65 1.186-1.668 1.177-2.73-.01-1.06-.424-3.001-.437-4.062"/><path stroke="#002140" stroke-linecap="round" stroke-linejoin="round" d="M41.677 24.554c.018 1.231.551 3.49.56 4.721s-.424 2.596-1.512 3.172c-1.447.764-3.472-.125-4.733.918l-1.507-.97c1.783-1.576 4.402-.691 5.19-1.106 1.229-.65 1.186-1.668 1.177-2.73-.01-1.06-.424-3.001-.437-4.062"/><path fill="#f25730" stroke="#002140" stroke-linecap="round" stroke-linejoin="round" d="M15.64 12.179a2.49 2.49 0 0 0-3.521 3.52l2.963 2.963a2.49 2.49 0 0 0 3.52-3.52zm19.686 3.52a2.49 2.49 0 0 0-3.52-3.52l-2.964 2.962a2.49 2.49 0 0 0 3.52 3.52zm-3.523 20.735a2.49 2.49 0 1 0 3.52-3.52L32.36 29.95a2.49 2.49 0 1 0-3.52 3.52zM12.12 32.91a2.49 2.49 0 1 0 3.52 3.521l2.963-2.963a2.49 2.49 0 1 0-3.52-3.52z"/></svg>