<svg xmlns="http://www.w3.org/2000/svg" fill="none" viewBox="0 0 48 48"><path fill="#00b268" d="M45.251 31.509v-16.18H18.528v16.18z"/><path fill="#5be3aa" d="M31.889 27.014c3.15 0 5.702-1.635 5.702-3.652s-2.553-3.652-5.702-3.652-5.702 1.635-5.702 3.652 2.553 3.652 5.702 3.652m10.666-7.911c.636 0 1.152-.503 1.152-1.123s-.516-1.124-1.152-1.124-1.151.503-1.151 1.124c0 .62.515 1.123 1.151 1.123m-.018 10.908c.636 0 1.151-.503 1.151-1.123 0-.621-.515-1.124-1.151-1.124s-1.152.503-1.152 1.124c0 .62.516 1.123 1.152 1.123m-21.438 0c.636 0 1.151-.503 1.151-1.123 0-.621-.515-1.124-1.151-1.124-.637 0-1.152.503-1.152 1.124 0 .62.515 1.123 1.152 1.123m-.006-10.908c.636 0 1.152-.503 1.152-1.123s-.516-1.124-1.152-1.124-1.152.503-1.152 1.124c0 .62.516 1.123 1.152 1.123"/><path stroke="#002140" stroke-linecap="round" stroke-linejoin="round" d="M45.212 31.435V15.329H18.49v16.106z"/><path stroke="#002140" stroke-linecap="round" stroke-linejoin="round" d="M31.85 27.066c3.231 0 5.85-1.65 5.85-3.685s-2.619-3.686-5.85-3.686S26 21.345 26 23.38s2.62 3.685 5.85 3.685m10.686 3.111c.73 0 1.32-.577 1.32-1.288s-.59-1.288-1.32-1.288-1.32.576-1.32 1.288c0 .711.59 1.288 1.32 1.288m0-10.901c.73 0 1.32-.576 1.32-1.288 0-.71-.59-1.288-1.32-1.288s-1.32.577-1.32 1.288.59 1.288 1.32 1.288M21.098 30.176c.73 0 1.32-.577 1.32-1.288s-.59-1.288-1.32-1.288-1.32.576-1.32 1.288c0 .711.59 1.288 1.32 1.288m0-10.901c.73 0 1.32-.576 1.32-1.288 0-.71-.59-1.288-1.32-1.288s-1.32.577-1.32 1.288.59 1.288 1.32 1.288m2.574-1.438h16.231M20.83 26.152v-5.43M39.903 29h-16.28m19.131-8.316v5.487m-21.786-.002c1.47 0 2.66 1.16 2.66 2.594q0 .081-.005.162m-2.655-8.24c1.47 0 2.66-1.16 2.66-2.594q0-.082-.005-.162m18.935 8.24c-1.47 0-2.66 1.16-2.66 2.594q0 .081.005.162m2.655-8.24c-1.47 0-2.66-1.16-2.66-2.594q0-.082.005-.162"/><path fill="#f68dfe" d="m.933 23.885 2.644-.305s1.304-.267 1.638.764c.335 1.032-.633 2.216-1.787 2.79 0 0 .596.23 1.6-.038 1.006-.267 5.289-2.522 6.592-2.101 1.304.42.857 2.101.224 2.903-.633.803-1.974 2.025-2.011 2.637 0 0 1.6-.191 1.936-.191s7.672.84 7.783-7.146c.112-5.54-2.607-7.336-4.32-7.336-1.712 0-2.904.611-2.904.611s3.091.993 2.755 2.75c-.335 1.758-1.713 1.147-2.532.498-.82-.649-4.06-3.094-5.475-1.108 0 0 1.528 1.667 1.304 2.254-.224.588-.745.802-1.341.765s-5.473-.843-6.106 2.253"/><path fill="#fbccff" d="M18.718 27.035c-1.449 1.282-2.715-.196-4.13.9-.25-.916 1.39-1.987.719-3.248-.67-1.26-2.197.038-3.314-.993 0 0 .701-.331.444-1.267-.257-.937-1.053-.987-2.148-1.091.624-1.693 4.845 1.325 6.011.384 1.167-.943-.248-1.923-.248-1.923s1.526-1.681 2.83-.65c0 0 .794 1.911.67 4.05-.123 2.14-.835 3.838-.835 3.838z"/><path stroke="#002140" stroke-linecap="round" stroke-linejoin="round" d="M19.477 22.778c0 9.17-6.455 6.776-9.732 7.846-.05-1.02 3.675-3.108 2.434-5.196-1.242-2.089-7.225 2.904-8.788 1.68 0 0 2.553-1.312 1.848-2.796s-3.205-.466-4.463-.363c1.423-4.228 6.636-1.63 7.381-2.495.746-.867-.329-2.122-1.191-2.75 1.837-3.058 6.01 2.21 7.3 1.665s1.439-2.837-1.99-3.905c.449-.461 7.202-2.803 7.202 6.315m10.365-9.106h-13.01m-1.119.857h-5.427m10.616-2.18h-6.067m15.007 20.712h-13.01m-1.119-.858h-5.427m10.616 2.181h-6.067"/></svg>