<svg width="48" height="48" viewBox="0 0 48 48" fill="none" xmlns="http://www.w3.org/2000/svg">
<path d="M27.9093 30.4808H39.0507C39.0507 30.4808 40.6433 30.1812 40.6433 27.6832V9.57564L38.5362 11.3831L36.8589 9.31836L35.1817 11.3831L33.2895 9.44863L31.355 11.4711L29.7624 9.44863L28.1699 11.4287L26.2777 9.75151V18.0497L27.9126 30.4808H27.9093Z" fill="#FFFAF0" stroke="#002140" stroke-miterlimit="10"/>
<path d="M41.6201 16.2422H25.0367V43.0811H41.6201V16.2422Z" fill="#5BE3AA" stroke="#002140" stroke-linecap="round" stroke-linejoin="round"/>
<path d="M41.6202 43.0811C41.6202 43.0811 41.8937 41.1792 39.601 41.1792H26.7824C25.0921 41.1792 25.0367 43.0811 25.0367 43.0811" stroke="#002140" stroke-linecap="round" stroke-linejoin="round"/>
<path d="M33.3279 16.2422V41.1303" stroke="#002140" stroke-linecap="round" stroke-linejoin="round"/>
<path d="M23.705 30.0112C30.9391 30.0112 36.8034 24.1468 36.8034 16.9128C36.8034 9.67878 30.9391 3.81445 23.705 3.81445C16.471 3.81445 10.6067 9.67878 10.6067 16.9128C10.6067 24.1468 16.471 30.0112 23.705 30.0112Z" fill="#FFED8F"/>
<path d="M23.8959 27.5618C29.7658 27.5618 34.5242 22.8034 34.5242 16.9335C34.5242 11.0636 29.7658 6.30518 23.8959 6.30518C18.026 6.30518 13.2676 11.0636 13.2676 16.9335C13.2676 22.8034 18.026 27.5618 23.8959 27.5618Z" fill="#99F6FF"/>
<path d="M17.4208 28.4681L13.1254 24.688L4.07647 33.623C4.07647 33.623 3.50427 35.7409 4.5917 37.0588C5.67913 38.3767 8.13103 37.7371 8.31486 37.4601C8.49868 37.1831 17.4208 28.4681 17.4208 28.4681Z" fill="#D18000"/>
<path d="M23.6635 29.8997C30.8117 29.8997 36.6065 24.1049 36.6065 16.9567C36.6065 9.80845 30.8117 4.01367 23.6635 4.01367C16.5152 4.01367 10.7205 9.80845 10.7205 16.9567C10.7205 24.1049 16.5152 29.8997 23.6635 29.8997Z" stroke="#002140" stroke-linecap="round" stroke-linejoin="round"/>
<path d="M13.0432 24.7034L4.53014 33.2138C3.43494 34.309 3.43494 36.0877 4.53014 37.1829C5.62534 38.2781 7.40406 38.2781 8.49926 37.1829L17.2686 28.4136" stroke="#002140" stroke-linecap="round" stroke-linejoin="round"/>
<g clip-path="url(#clip0_4905_17799)">
<path d="M23.6479 33.8361H37.594C37.594 33.8361 39.5875 33.4611 39.5875 30.3343V7.66825L36.9499 9.93078L34.8504 7.34619L32.751 9.93078L30.3825 7.50926L27.9609 10.0408L25.9675 7.50926L23.974 9.98785L21.6055 7.88838V18.2756L23.6519 33.8361H23.6479Z" fill="#E5FAFE" stroke="#002140" stroke-width="1.05091" stroke-miterlimit="10"/>
<path d="M40.8102 16.0132H20.052V49.6087H40.8102V16.0132Z" fill="#CCF6FF" stroke="#002140" stroke-width="1.05091" stroke-linecap="round" stroke-linejoin="round"/>
<path d="M30.4308 16.0132V47.1668" stroke="#002140" stroke-width="1.05091" stroke-linecap="round" stroke-linejoin="round"/>
</g>
<path d="M23.7379 27.4474C29.4736 27.4474 34.1233 22.7977 34.1233 17.062C34.1233 11.3262 29.4736 6.67651 23.7379 6.67651C18.0021 6.67651 13.3524 11.3262 13.3524 17.062C13.3524 22.7977 18.0021 27.4474 23.7379 27.4474Z" stroke="#002140" stroke-linecap="round" stroke-linejoin="round"/>
<defs>
<clipPath id="clip0_4905_17799">
<rect x="13.3524" y="6.67651" width="20.7709" height="20.7709" rx="10.3855" fill="white"/>
</clipPath>
</defs>
</svg>
