<?xml version="1.0" encoding="utf-8"?>
<!-- Generator: Adobe Illustrator 28.1.0, SVG Export Plug-In . SVG Version: 6.00 Build 0)  -->
<svg version="1.1" id="Layer_1" xmlns="http://www.w3.org/2000/svg" xmlns:xlink="http://www.w3.org/1999/xlink" x="0px" y="0px"
	 viewBox="0 0 68 68" style="enable-background:new 0 0 68 68;" xml:space="preserve">
<style type="text/css">
	.st0{fill:#28736D;stroke:#002140;stroke-miterlimit:10;}
	.st1{fill:#5AB0FF;stroke:#002140;stroke-miterlimit:10;}
	.st2{fill:#F25730;stroke:#002140;stroke-miterlimit:10;}
</style>
<path class="st0" d="M34.418,59.869H19.943c-1.408,0-1.505-2.694,0.092-2.694c6.155,0,12.125-2.155,12.125-5.926l0.018-0.014v-4.199
	h-0.042H11.452c-2.909,0-5.287-2.477-5.287-5.507V14.507C6.166,11.477,8.544,9,11.452,9h45.261C59.622,9,62,11.477,62,14.507v27.027
	c0,3.03-2.378,5.507-5.287,5.507H36.038v0.029l-0.051,4.17v0.014c0.005,3.771,5.974,5.926,12.134,5.926
	c1.597,0,1.505,2.694,0.092,2.694c-0.72,0-7.752,0-14.475,0h0.683L34.418,59.869z"/>
<path class="st1" d="M57.272,11.742H10.889c-1.26,0-2.281,1.064-2.281,2.376v27.969c0,1.312,1.021,2.376,2.281,2.376h46.383
	c1.26,0,2.281-1.064,2.281-2.376V14.118C59.553,12.806,58.531,11.742,57.272,11.742z"/>
<path class="st2" d="M42.681,33.05l-4.279-4.279c-0.426-0.426-0.426-1.116,0-1.542l4.279-4.279c0.426-0.426,0.426-1.116,0-1.542
	l-2.089-2.089c-0.426-0.426-1.116-0.426-1.542,0l-4.279,4.279c-0.426,0.426-1.116,0.426-1.542,0l-4.279-4.279
	c-0.426-0.426-1.116-0.426-1.542,0l-2.089,2.089c-0.426,0.426-0.426,1.116,0,1.542l4.279,4.279c0.426,0.426,0.426,1.116,0,1.542
	l-4.279,4.279c-0.426,0.426-0.426,1.116,0,1.542l2.089,2.089c0.426,0.426,1.116,0.426,1.542,0l4.279-4.279
	c0.426-0.426,1.116-0.426,1.542,0l4.279,4.279c0.426,0.426,1.116,0.426,1.542,0l2.089-2.089
	C43.106,34.166,43.106,33.476,42.681,33.05z"/>
</svg>
