<svg xmlns="http://www.w3.org/2000/svg" xmlns:xlink="http://www.w3.org/1999/xlink" id="Layer_1" x="0" y="0" version="1.1" viewBox="0 0 68 68" style="enable-background:new 0 0 68 68" xml:space="preserve"><style type="text/css">.st0{fill:#fffaf0;stroke:#002140;stroke-miterlimit:10}.st1{fill:#03d47c}.st2{fill:none;stroke:#002140;stroke-linecap:round}</style><path d="M61.3,34.4l5-8.7l-3.8,0.5l-0.8-3.6l-3.5,1.1l-1.1-3.6l-3.8,0.9l-0.7-3.4l-3.3,1.1l-1.3-3.3l-21,36.4l3.8-0.5	l0.8,3.6l3.5-1.1l1.1,3.6l3.8-0.9l0.7,3.4l3.3-1.1l1.3,3.3L61.3,34.4z" class="st0"/><path d="M44.4,17l0.8-10l-3.2,2.1l-2.2-2.9l-2.6,2.5L34.6,6l-3,2.4l-2.1-2.8L26.9,8l-2.6-2.4L21,47.4l3.2-2.1l2.2,2.9	l2.6-2.5l2.5,2.7l3-2.4l2.1,2.8l2.5-2.4l2.6,2.4L44.4,17z" class="st0"/><path d="M10.1,41.4c0,1.1-0.9,2-2.1,2S6,42.5,6,41.4V36c0-1.1,0.9-2,2.1-2h17.9c1.1,0,2.1,0.9,2.1,2v5.4	c0,1.1-0.9,2-2.1,2s-2.1-0.9-2.1-2V38H10.1V41.4z" class="st1"/><path d="M9.4,50c-0.9,0.7-0.9,2-0.2,2.9c0.8,0.8,2.1,0.9,2.9,0.2l2.8-2.4V59c0,1.1,0.9,2,2.1,2s2.1-0.9,2.1-2v-8.3	l2.8,2.4c0.9,0.7,2.2,0.7,2.9-0.2c0.8-0.8,0.7-2.1-0.2-2.9L17,43.4L9.4,50z" class="st1"/><path d="M10.1,41.4c0,1.1-0.9,2-2.1,2S6,42.5,6,41.4V36c0-1.1,0.9-2,2.1-2h17.9c1.1,0,2.1,0.9,2.1,2v5.4	c0,1.1-0.9,2-2.1,2s-2.1-0.9-2.1-2V38H10.1V41.4z" class="st2"/><path d="M9.4,50c-0.9,0.7-0.9,2-0.2,2.9c0.8,0.8,2.1,0.9,2.9,0.2l2.8-2.4V59c0,1.1,0.9,2,2.1,2s2.1-0.9,2.1-2v-8.3	l2.8,2.4c0.9,0.7,2.2,0.7,2.9-0.2c0.8-0.8,0.7-2.1-0.2-2.9L17,43.4L9.4,50z" class="st2"/></svg>