<svg xmlns="http://www.w3.org/2000/svg" width="48" height="48" fill="none" viewBox="0 0 48 48"><path fill="#00B268" d="M36.7207 3.61035L5.26038 13.1036L11.7786 18.4128L13.1472 30.2401L18.1345 25.0093L25.7778 31.6087L36.7207 3.61035Z"/><path fill="#085239" d="M9.04419 16.2407L5.42265 13.7471C5.42265 13.7471 5.58218 17.7436 5.26312 18.0123L9.04419 16.2435V16.2407Z"/><path fill="#085239" d="M11.7783 18.4127L13.1469 30.2401L36.1551 4.41357L34.9489 4.73543L11.7783 18.4127Z"/><path fill="#085239" d="M25.3357 23.845C25.3357 23.845 24.2889 22.9998 23.2842 23.5623C22.2795 24.1248 23.2842 25.9356 23.2842 25.9356C23.2842 25.9356 24.3309 26.6185 25.1761 26.1763C26.0213 25.7341 26.0213 24.3263 25.3357 23.8422V23.845Z"/><path fill="#085239" d="M12.6769 13.3865C12.6769 13.3865 11.6302 12.5413 10.6254 13.1038C9.62071 13.6663 10.6254 15.4771 10.6254 15.4771C10.6254 15.4771 11.6722 16.16 12.5174 15.7178C13.3626 15.2756 13.3626 13.8678 12.6769 13.3837V13.3865Z"/><path fill="#03D47C" d="M30.2303 11.3323C30.2303 11.3323 26.9054 9.88541 23.6337 13.479C20.362 17.0725 19.1278 19.916 20.3088 22.7035L30.2303 11.3323V11.3323Z"/><path fill="#085239" d="M33.0181 5.86348C33.0181 5.86348 32.4807 5.11343 31.5711 5.59481C30.6588 6.07619 31.1429 6.82904 31.1429 6.82904L33.0209 5.86348H33.0181Z"/><path fill="#085239" d="M34.3053 6.77295L32.8583 8.43539C32.8583 8.43539 34.0394 9.07909 34.4144 8.16671C34.7895 7.25433 34.3081 6.77295 34.3081 6.77295H34.3053Z"/><path stroke="#002E22" stroke-linecap="round" stroke-linejoin="round" stroke-width=".857" d="M16.2422 27.1422L15.1171 16.8037"/><path stroke="#008C59" stroke-linecap="round" stroke-linejoin="round" stroke-width=".857" d="M14.997 16.6438C14.997 16.6438 16.1109 14.1753 14.7143 12.3534L30.6978 6.93506"/><path stroke="#008C59" stroke-linecap="round" stroke-linejoin="round" stroke-width=".857" d="M20.5467 22.3955C20.5467 22.3955 22.7605 20.747 25.576 21.6314L32.6147 8.79932"/><path stroke="#002140" stroke-linecap="round" stroke-linejoin="round" stroke-width=".857" d="M4.99414 13.238L37.0422 3.5293L25.6151 31.6872L18.2349 25.029L13.144 30.4361L11.8594 18.5752L4.99414 13.238Z"/><path stroke="#002140" stroke-linecap="round" stroke-linejoin="round" stroke-width=".857" d="M18.235 25.029L37.0424 3.5293"/><path stroke="#002140" stroke-linecap="round" stroke-linejoin="round" stroke-width=".857" d="M11.8598 18.5752L37.0426 3.5293"/><path stroke="#002140" stroke-linecap="round" stroke-linejoin="round" stroke-width=".857" d="M4.99434 13.2378C6.06625 16.0001 4.94116 18.2783 4.94116 18.2783L9.03008 16.3724"/><path stroke="#002140" stroke-linecap="round" stroke-linejoin="round" stroke-width=".857" d="M20.3539 22.5743C18.8482 21.2225 19.8642 17.6317 22.6237 14.5588C25.2433 11.6397 28.4926 10.2347 30.1047 11.2535"/><path stroke="#002140" stroke-linecap="round" stroke-linejoin="round" stroke-width=".857" d="M25.5118 26.0679C26.1217 25.458 26.0677 24.4152 25.3911 23.7386C24.7146 23.0621 23.6717 23.008 23.0619 23.6179C22.452 24.2278 22.506 25.2706 23.1826 25.9472C23.8591 26.6237 24.902 26.6778 25.5118 26.0679Z"/><path stroke="#002140" stroke-linecap="round" stroke-linejoin="round" stroke-width=".857" d="M34.3137 6.89893C34.6496 7.36911 34.6356 7.99042 34.2549 8.37385C33.8939 8.73488 33.3146 8.76567 32.8556 8.483"/><path stroke="#002140" stroke-linecap="round" stroke-linejoin="round" stroke-width=".857" d="M13.1085 15.0246C13.4689 14.2411 13.0564 13.2817 12.1872 12.8819C11.3179 12.4821 10.3211 12.7932 9.96068 13.5768C9.60027 14.3604 10.0128 15.3197 10.882 15.7195C11.7513 16.1193 12.7481 15.8082 13.1085 15.0246Z"/><path stroke="#002140" stroke-linecap="round" stroke-linejoin="round" stroke-width=".857" d="M31.1149 6.89884C30.9946 6.62736 30.9834 6.3223 31.1121 6.04803C31.3612 5.50508 32.0525 5.28958 32.6542 5.56665C32.7913 5.63102 32.9145 5.71498 33.018 5.81294"/><path stroke="#008C59" stroke-linecap="round" stroke-linejoin="round" stroke-width=".857" d="M12.2236 32.2471C12.2236 32.2471 12.0529 32.6417 11.8346 33.2966"/><path stroke="#008C59" stroke-linecap="round" stroke-linejoin="round" stroke-width=".857" d="M11.2353 35.5156C10.6616 38.3171 10.5748 42.1822 13.7233 44.0461C21.6969 48.3393 32.9813 33.5425 42.3794 44.3876"/><path stroke="#008C59" stroke-linecap="round" stroke-linejoin="round" stroke-width=".857" d="M43.107 45.2832C43.3253 45.5715 43.5436 45.8737 43.7619 46.1928"/></svg>