<svg width="37" height="28" viewBox="0 0 37 28" fill="none" xmlns="http://www.w3.org/2000/svg">
<path d="M29.3003 4.9738C29.3003 7.44462 27.2856 9.44761 24.8003 9.44761C22.3151 9.44761 20.3003 7.44462 20.3003 4.9738C20.3003 2.50299 22.3151 0.5 24.8003 0.5C27.2856 0.5 29.3003 2.50299 29.3003 4.9738Z" fill="#4BA6A6"/>
<path d="M23.9 23.7638C23.9 25.5533 22.9307 27.3235 20.3001 27.3235C18.1977 27.3235 15.3427 27.3235 12.1979 27.3235C9.05306 27.3235 6.19803 27.3235 4.0956 27.3235C1.41033 27.3235 0.499154 25.5317 0.500001 23.7638C0.500001 18.3736 5.9 14.7969 12.1979 14.7969C18.4957 14.7969 23.9 18.3952 23.9 23.7638Z" fill="#4ED7DE"/>
<path d="M32.9 23.7638C35.5044 23.7638 36.5 21.9334 36.5 20.1847C36.5 14.7969 31.0311 11.2371 24.4241 11.2371C22.5958 11.2371 20.536 11.7477 19.4795 12.4787C18.423 13.2097 18.5875 14.0173 19.4795 14.4541C24.0381 16.6864 25.7145 20.0111 25.7145 22.0028C25.7145 23.138 26.4888 23.7638 27.4863 23.7638H32.9Z" fill="#4BA6A6"/>
<path d="M16.7003 8.55284C16.7003 11.0237 14.6856 13.0266 12.2003 13.0266C9.71506 13.0266 7.70034 11.0237 7.70034 8.55284C7.70034 6.08203 9.71506 4.07904 12.2003 4.07904C14.6856 4.07904 16.7003 6.08203 16.7003 8.55284Z" fill="#4ED7DE"/>
<path d="M29.3003 4.9738C29.3003 7.44462 27.2856 9.44761 24.8003 9.44761C22.3151 9.44761 20.3003 7.44462 20.3003 4.9738C20.3003 2.50299 22.3151 0.5 24.8003 0.5C27.2856 0.5 29.3003 2.50299 29.3003 4.9738Z" stroke="#002140"/>
<path d="M23.9 23.7638C23.9 25.5533 22.9307 27.3235 20.3001 27.3235C18.1977 27.3235 15.3427 27.3235 12.1979 27.3235C9.05306 27.3235 6.19803 27.3235 4.0956 27.3235C1.41033 27.3235 0.499154 25.5317 0.500001 23.7638C0.500001 18.3736 5.9 14.7969 12.1979 14.7969C18.4957 14.7969 23.9 18.3952 23.9 23.7638Z" stroke="#002140"/>
<path d="M32.9 23.7638C35.5044 23.7638 36.5 21.9334 36.5 20.1847C36.5 14.7969 31.0311 11.2371 24.4241 11.2371C22.5958 11.2371 20.536 11.7477 19.4795 12.4787C18.423 13.2097 18.5875 14.0173 19.4795 14.4541C24.0381 16.6864 25.7145 20.0111 25.7145 22.0028C25.7145 23.138 26.4888 23.7638 27.4863 23.7638H32.9Z" stroke="#002140"/>
<path d="M16.7003 8.55284C16.7003 11.0237 14.6856 13.0266 12.2003 13.0266C9.71506 13.0266 7.70034 11.0237 7.70034 8.55284C7.70034 6.08203 9.71506 4.07904 12.2003 4.07904C14.6856 4.07904 16.7003 6.08203 16.7003 8.55284Z" stroke="#002140"/>
</svg>
