<svg width="48" height="48" viewBox="0 0 48 48" fill="none" xmlns="http://www.w3.org/2000/svg">
<path d="M21.485 14.3952L13.9208 12.2891L7.91504 19.1528L11.1118 26.717L29.517 42.8608L40.2028 31.0844L21.485 14.3952ZM15.1666 21.4446C14.0031 21.4446 13.0605 20.502 13.0605 19.3385C13.0605 18.1749 14.0031 17.2324 15.1666 17.2324C16.3302 17.2324 17.2728 18.1749 17.2728 19.3385C17.2728 20.502 16.3302 21.4446 15.1666 21.4446Z" fill="#FFD7B0"/>
<path d="M36.2254 31.4778L33.8842 29.4492L27.0228 37.1709L29.2841 39.042L36.2254 31.4778Z" fill="#E4BC07"/>
<path d="M10.7475 14.8105C10.7475 14.8105 9.34415 15.1232 9.18666 15.7978C9.02917 16.4724 10.3055 18.2894 11.7347 19.0745C13.1639 19.8573 14.7505 20.3744 15.3734 19.6457C15.9963 18.917 15.1642 17.2317 15.1642 17.2317C15.1642 17.2317 13.9701 18.8653 12.3576 17.6172C10.7451 16.369 10.7451 15.7461 11.1094 15.3817C11.4738 15.0174 10.7451 14.8105 10.7451 14.8105H10.7475Z" fill="#FFED8F"/>
<path d="M11.2668 15.1745L12.9827 13.341C12.9827 13.341 12.3598 7.45278 17.4677 7.37521C20.9372 7.29764 25.502 10.612 29.3617 10.572C33.2214 10.532 33.7291 9.86918 33.7291 9.86918C33.7291 9.86918 34.1569 8.38831 33.3013 8.38831C32.4457 8.38831 31.6629 9.01122 29.7519 8.73855C27.8409 8.46588 20.2367 5.77446 18.2481 5.73685C16.2595 5.69924 10.799 5.97191 11.2668 15.1745Z" fill="#FFED8F"/>
<path d="M10.9378 15.6658L14.1064 12.1211L21.4356 14.4552L40.0405 31.0927L29.5028 42.8739L10.9002 26.2364L7.76453 19.2128L9.49691 17.2783" stroke="#002140" stroke-width="0.856287" stroke-linecap="round" stroke-linejoin="round"/>
<path d="M13.6107 17.9732C14.3582 17.1388 15.6392 17.0659 16.476 17.8134C17.3105 18.5609 17.3834 19.842 16.6359 20.6788C15.8884 21.5132 14.6073 21.5861 13.7705 20.8386C13.4673 20.5683 13.2651 20.2251 13.1641 19.8584" stroke="#002140" stroke-width="0.856287" stroke-linecap="round" stroke-linejoin="round"/>
<path d="M33.907 29.172L26.9352 36.9668L29.2601 39.0463L36.232 31.2515L33.907 29.172Z" stroke="#002140" stroke-width="0.856287" stroke-linecap="round" stroke-linejoin="round"/>
<path d="M19.0566 30.2197L23.0597 25.7441" stroke="#002140" stroke-width="0.856287" stroke-linecap="round" stroke-linejoin="round"/>
<path d="M20.9187 31.8837L24.9218 27.4082" stroke="#002140" stroke-width="0.856287" stroke-linecap="round" stroke-linejoin="round"/>
<path d="M15.1502 17.3643C15.6791 18.0977 15.853 18.8264 15.5404 19.3223C14.9974 20.185 13.1875 20.0228 11.5021 18.9603C9.81437 17.8979 8.88588 16.3371 9.43122 15.4744C9.76266 14.9455 10.5689 14.8021 11.5327 15.0137" stroke="#002140" stroke-width="0.856287" stroke-linecap="round" stroke-linejoin="round"/>
<path d="M14.7647 17.7319C14.4191 18.2796 13.2955 18.1903 12.2542 17.5345C11.2129 16.8787 10.6488 15.9032 10.992 15.3555" stroke="#002140" stroke-width="0.856287" stroke-linecap="round" stroke-linejoin="round"/>
<path d="M11.1895 15.0202C11.1895 15.0202 9.78616 7.45596 15.7919 5.89517C21.7977 4.33438 27.5684 10.7303 33.3391 8.234" stroke="#002140" stroke-width="0.856287" stroke-linecap="round" stroke-linejoin="round"/>
<path d="M12.9689 13.3944C12.6704 11.7043 13.2039 7.93159 17.2023 7.41916C21.1983 6.90673 27.7236 12.3272 33.7693 9.94839" stroke="#002140" stroke-width="0.856287" stroke-linecap="round" stroke-linejoin="round"/>
<path d="M33.7692 9.9503C33.7692 9.9503 34.5097 8.81967 33.3414 8.23438" stroke="#002140" stroke-width="0.856287" stroke-linecap="round" stroke-linejoin="round"/>
</svg>
