<svg xmlns="http://www.w3.org/2000/svg" xml:space="preserve" id="Layer_1" x="0" y="0" viewBox="0 0 68 68"><style>.st0{fill:#ffa75a;stroke:#002140;stroke-linecap:round;stroke-linejoin:round}.st1{fill:#f25730}.st2{fill:#fffaf0}.st3{fill:none;stroke:#002140;stroke-linecap:round;stroke-linejoin:round}.st4{fill:#ffa75a}.st5{fill:#f25730;stroke:#002140;stroke-linecap:round;stroke-linejoin:round}</style><path d="M59.011 34.61c.026 1.744.782 4.944.795 6.688s-.601 3.677-2.143 4.493c-2.049 1.083-4.918-.176-6.705 1.302l1.155-2.448c1.254-.782 2.947.099 4.059-.49 1.74-.919 1.68-2.362 1.667-3.866-.013-1.503-.601-4.252-.618-5.756v-.095c.021-1.503.61-4.252.618-5.756.009-1.503.069-2.947-1.667-3.866-1.117-.588-2.809.292-4.059-.49l-1.155-2.448c1.787 1.473 4.66.215 6.705 1.302 1.542.816 2.161 2.745 2.143 4.493-.017 1.748-.773 4.944-.795 6.688v.258zM33.458 59.6c-1.744.026-4.944.782-6.688.795s-3.677-.601-4.493-2.143c-1.082-2.049.176-4.918-1.302-6.705l2.448 1.155c.782 1.254-.099 2.947.49 4.059.919 1.74 2.362 1.68 3.866 1.667 1.503-.013 4.252-.601 5.756-.618h.095c1.503.021 4.252.61 5.756.618 1.503.009 2.947.069 3.866-1.667.589-1.117-.292-2.809.49-4.059l2.448-1.155c-1.473 1.787-.215 4.66-1.302 6.705-.816 1.542-2.745 2.161-4.493 2.143s-4.944-.773-6.688-.795h-.257zm.258-50.398c1.744-.026 4.944-.782 6.688-.795s3.677.601 4.493 2.143c1.082 2.049-.176 4.918 1.301 6.705l-2.448-1.156c-.782-1.254.099-2.947-.49-4.059-.919-1.74-2.362-1.679-3.866-1.667-1.503.013-4.253.601-5.756.618h-.094c-1.503-.021-4.253-.61-5.756-.618s-2.947-.069-3.866 1.667c-.588 1.117.292 2.809-.49 4.059l-2.448 1.156c1.473-1.787.215-4.66 1.302-6.705.816-1.542 2.745-2.161 4.493-2.143 1.748.017 4.944.773 6.688.795h.258zM8.18 34.352c-.026-1.744-.782-4.944-.795-6.688s.601-3.677 2.143-4.493c2.049-1.082 4.918.176 6.705-1.302l-1.155 2.448c-1.254.782-2.947-.099-4.059.49-1.74.919-1.68 2.362-1.667 3.866.013 1.503.601 4.252.619 5.756v.094c-.021 1.503-.61 4.252-.619 5.756-.009 1.503-.069 2.947 1.667 3.866 1.117.588 2.809-.292 4.059.49l1.155 2.448c-1.787-1.473-4.66-.215-6.705-1.301-1.542-.816-2.161-2.745-2.143-4.493.013-1.744.773-4.944.795-6.688v-.258z" class="st0"/><path d="M54.598 31.891a21.5 21.5 0 0 1 0 5.15l-.326-.039h-9.055l-.12-.026a11.9 11.9 0 0 0 .013-5.004l.112-.021h8.818l.567-.065z" class="st1"/><path d="m54.597 31.89-.567.065h-8.818l-.112.021a11.83 11.83 0 0 0-9.132-9.089l.073-.339v-8.814l.039-.326c9.673 1.151 17.349 8.814 18.513 18.487zm-.33 5.117.326.039c-1.177 9.652-8.836 17.298-18.492 18.457l-.056-.507v-8.818l-.039-.163a11.83 11.83 0 0 0 9.085-9.033l.12.026h9.056z" class="st2"/><path d="m36.046 54.995.056.507q-1.257.155-2.551.155c-.863 0-1.74-.052-2.586-.155l.03-.266v-9.055l.039-.176a11.8 11.8 0 0 0 4.974.013l.039.163V55zm.038-41.587-.039.326v8.818l-.073.339a11.9 11.9 0 0 0-4.953.026l-.026-.125v-9.059l-.039-.318a21.6 21.6 0 0 1 5.124-.005z" class="st1"/><path d="m31.033 46.001-.039.176v9.055l-.03.266c-9.639-1.173-17.285-8.818-18.457-18.457l.262-.03h9.055l.185-.039a11.83 11.83 0 0 0 9.025 9.033zm-.039-23.217.026.125a11.83 11.83 0 0 0-9.037 9.128l-.395-.086H12.77l-.271-.03c1.151-9.665 8.801-17.332 18.457-18.513l.039.318v9.058z" class="st2"/><path d="m22.009 36.968-.185.039h-9.055l-.262.03a21.4 21.4 0 0 1-.005-5.111l.271.03h8.818l.395.086a12 12 0 0 0-.245 2.414c0 .825.094 1.701.271 2.513z" class="st1"/><path d="M54.596 31.89c.099.838.155 1.697.155 2.564 0 .868-.051 1.744-.155 2.586-1.177 9.652-8.836 17.298-18.492 18.457q-1.257.155-2.551.155c-.863 0-1.74-.052-2.586-.155-9.639-1.173-17.285-8.818-18.457-18.457a21.4 21.4 0 0 1-.005-5.111c1.151-9.665 8.801-17.332 18.457-18.513a21.6 21.6 0 0 1 5.124-.005c9.673 1.151 17.349 8.814 18.513 18.487z" class="st3"/><path d="M45.103 31.977c.172.799.258 1.628.258 2.478s-.095 1.714-.271 2.526a11.84 11.84 0 0 1-9.085 9.033q-1.193.258-2.457.258c-1.264 0-1.709-.094-2.517-.271a11.827 11.827 0 0 1-9.051-13.96 11.824 11.824 0 0 1 13.99-9.154 11.83 11.83 0 0 1 9.133 9.09m-32.331-.022h8.814m.237 5.051h-9.05m32.443-5.051h8.814m.236 5.051h-9.05m-9.171-23.272v8.814m-5.052.236v-9.05m5.052 32.443v8.818m-5.052.236v-9.055" class="st3"/><path d="M33.458 59.6c-1.744.026-4.944.782-6.688.795s-3.677-.601-4.493-2.143c-1.082-2.049.176-4.918-1.301-6.705l1.374-2.135c2.234 2.526.979 6.237 1.568 7.354.919 1.74 2.362 1.68 3.866 1.667 1.503-.013 4.252-.601 5.756-.618" class="st4"/><path d="M33.458 59.6c-1.744.026-4.944.782-6.688.795s-3.677-.601-4.493-2.143c-1.082-2.049.176-4.918-1.301-6.705l1.374-2.135c2.234 2.526.979 6.237 1.568 7.354.919 1.74 2.362 1.68 3.866 1.667 1.503-.013 4.252-.601 5.756-.618" class="st3"/><path d="M8.193 34.313c-.026-1.744-.782-4.944-.795-6.688S8 23.948 9.542 23.132c2.049-1.082 4.918.176 6.705-1.301l1.229-1.28.911 2.654c-2.526 2.234-6.237.979-7.354 1.568-1.74.919-1.679 2.363-1.667 3.866s.601 4.252.619 5.756" class="st4"/><path d="M8.193 34.313c-.026-1.744-.782-4.944-.795-6.688S8 23.948 9.542 23.132c2.049-1.082 4.918.176 6.705-1.301l1.229-1.28.911 2.654c-2.526 2.234-6.237.979-7.354 1.568-1.74.919-1.679 2.363-1.667 3.866s.601 4.252.619 5.756" class="st3"/><path d="M33.961 9.211c1.744-.026 4.944-.782 6.688-.795s3.677.601 4.493 2.143c1.082 2.049-.176 4.918 1.301 6.705l-1.375 2.135c-2.234-2.526-.979-6.237-1.568-7.354-.919-1.74-2.362-1.679-3.866-1.667-1.503.013-4.252.601-5.756.619" class="st4"/><path d="M33.961 9.211c1.744-.026 4.944-.782 6.688-.795s3.677.601 4.493 2.143c1.082 2.049-.176 4.918 1.301 6.705l-1.375 2.135c-2.234-2.526-.979-6.237-1.568-7.354-.919-1.74-2.362-1.679-3.866-1.667-1.503.013-4.252.601-5.756.619" class="st3"/><path d="M59.042 34.785c.026 1.744.782 4.944.795 6.688s-.601 3.677-2.143 4.493c-2.049 1.082-4.918-.176-6.705 1.301l-2.135-1.375c2.526-2.234 6.237-.979 7.354-1.568 1.74-.919 1.68-2.362 1.667-3.866-.013-1.503-.601-4.252-.618-5.756" class="st4"/><path d="M59.042 34.785c.026 1.744.782 4.944.795 6.688s-.601 3.677-2.143 4.493c-2.049 1.082-4.918-.176-6.705 1.301l-2.135-1.375c2.526-2.234 6.237-.979 7.354-1.568 1.74-.919 1.68-2.362 1.667-3.866-.013-1.503-.601-4.252-.618-5.756" class="st3"/><path d="M22.155 17.253a3.527 3.527 0 0 0-4.987 4.987l4.198 4.198a3.527 3.527 0 0 0 4.987-4.987zm27.889 4.987a3.527 3.527 0 0 0-4.987-4.987L40.86 21.45a3.527 3.527 0 0 0 4.987 4.987zm-4.99 29.375a3.527 3.527 0 0 0 4.987-4.987l-4.198-4.197a3.527 3.527 0 0 0-4.987 4.987zm-27.885-4.991a3.527 3.527 0 0 0 4.987 4.987l4.198-4.198a3.527 3.527 0 0 0-4.987-4.987z" class="st5"/></svg>