<svg xmlns="http://www.w3.org/2000/svg" xml:space="preserve" id="Layer_1" x="0" y="0" viewBox="0 0 68 68"><style>.st0{fill-rule:evenodd;clip-rule:evenodd;fill:#cf4cd9;stroke:#002140;stroke-linecap:round;stroke-linejoin:round}</style><path d="M36.395 13.71a2.437 2.437 0 0 1 3.533 1.337l1.681 5.044 4.372-2.334v.003a1.88 1.88 0 0 1 2.631.957l1.053 2.61c.36.893-.01 1.913-.859 2.363l-5.094 2.708 2.214 6.644 4.669-2.492v.004a1.88 1.88 0 0 1 2.631.956l1.053 2.61c.36.893-.01 1.913-.859 2.363l-5.391 2.866 1.747 5.24a2.44 2.44 0 0 1-1.091 2.88l-1.999 1.16a2.438 2.438 0 0 1-3.534-1.337l-1.515-4.545-8.012 4.261 1.283 3.848a2.44 2.44 0 0 1-1.09 2.88l-2 1.16a2.437 2.437 0 0 1-3.533-1.337l-1.051-3.152-4.919 2.616a1.883 1.883 0 0 1-2.66-1.047l-.906-2.62a1.88 1.88 0 0 1 .89-2.273l5.507-2.942-2.229-6.685-5.215 2.773a1.883 1.883 0 0 1-2.66-1.046l-.906-2.62a1.88 1.88 0 0 1 .89-2.273l5.804-3.101-2.391-7.173a2.44 2.44 0 0 1 1.09-2.88l2-1.16a2.438 2.438 0 0 1 3.534 1.337l2.154 6.465 8.006-4.276-1.917-5.752a2.44 2.44 0 0 1 1.09-2.88zm-7.086 20.347 2.224 6.673 8.006-4.275-2.219-6.657z" class="st0"/></svg>