<?xml version="1.0" encoding="utf-8"?>
<!-- Generator: Adobe Illustrator 28.1.0, SVG Export Plug-In . SVG Version: 6.00 Build 0)  -->
<svg version="1.1" id="Layer_1" xmlns="http://www.w3.org/2000/svg" xmlns:xlink="http://www.w3.org/1999/xlink" x="0px" y="0px"
	 viewBox="0 0 68 68" style="enable-background:new 0 0 68 68;" xml:space="preserve">
<style type="text/css">
	.st0{fill:#E4BC07;}
	.st1{fill:#002140;}
	.st2{fill:#FFFAF0;}
	.st3{fill:#FED607;}
	.st4{fill:none;stroke:#002140;stroke-miterlimit:10;}
	.st5{fill:#50EEF6;stroke:#002140;}
</style>
<path class="st0" d="M23.578,17.636c0.906,0,1.733,0.342,2.357,0.903l0.089,0.111c-0.678,0.546-1.533,0.882-2.463,0.914
	c-0.054,0.004-0.102,0.004-0.156,0.004v0.011c-1.019,0.096-1.366,0.832-1.366,1.581c0,0.864,0.539,1.589,1.514,1.626
	c1.257-0.026,2.437-0.37,3.464-0.947l0.011,0.02c-0.328,1.604-1.749,2.808-3.452,2.808c-1.946,0-3.523-1.574-3.523-3.516
	c0-1.942,1.577-3.516,3.523-3.516L23.578,17.636z"/>
<path class="st0" d="M47.567,21.84l0.011,0.02c-0.328,1.604-1.749,2.808-3.452,2.808c-1.946,0-3.523-1.574-3.523-3.516
	s1.577-3.516,3.523-3.516c0.906,0,1.733,0.342,2.357,0.903l0.089,0.111c-0.678,0.546-1.533,0.882-2.463,0.914
	c-0.054,0.004-0.102,0.004-0.156,0.004v0.011c-1.019,0.096-1.366,0.832-1.366,1.581c0,0.864,0.539,1.589,1.514,1.626
	c1.257-0.026,2.437-0.37,3.464-0.947L47.567,21.84z"/>
<path class="st1" d="M48.151,15.38c0-0.1-0.004-0.2-0.011-0.3c-0.152-2.173-1.966-3.892-4.186-3.892s-3.875,1.57-4.157,3.61v0.287
	H36.55v-0.27C36.846,11.004,40.039,8,43.937,8s7.251,3.152,7.403,7.099c0.004,0.096,0.006,0.194,0.006,0.292
	c0,2.765-1.523,5.181-3.778,6.446c-1.027,0.577-2.207,0.919-3.464,0.947c-0.975-0.039-1.514-0.762-1.514-1.626
	c0-0.751,0.347-1.485,1.366-1.581v-0.011c0.054,0,0.102,0,0.156-0.004c0.93-0.031,1.785-0.37,2.463-0.914
	c0.964-0.764,1.579-1.946,1.579-3.27L48.151,15.38z"/>
<path class="st1" d="M19.277,14.608v0.477h-3.291c0.004-0.091,0.009-0.179,0.015-0.27c0.296-3.81,3.491-6.814,7.387-6.814
	c3.895,0,7.242,3.146,7.403,7.087c0.004,0.1,0.006,0.202,0.006,0.305c0,2.765-1.523,5.181-3.779,6.446
	c-1.027,0.577-2.207,0.919-3.464,0.947c-0.975-0.039-1.514-0.762-1.514-1.626c0-0.751,0.347-1.485,1.366-1.581v-0.011
	c0.054,0,0.102,0,0.156-0.004c0.93-0.031,1.785-0.37,2.463-0.914c0.964-0.764,1.579-1.946,1.579-3.27c0-0.1-0.004-0.196-0.011-0.292
	c-0.15-2.177-1.966-3.897-4.186-3.897c-2.052,0-3.766,1.474-4.127,3.42L19.277,14.608z"/>
<path class="st2" d="M54.125,26.251h0.413v26.68c0,1.935-1.584,3.516-3.523,3.516H16.617c-1.938,0-3.523-1.581-3.523-3.516v-26.68
	H54.125z"/>
<path class="st3" d="M51.366,15.1c1.775,0.179,3.173,1.685,3.173,3.501v7.65H44.126v-1.585c1.703,0,3.123-1.204,3.452-2.808
	l-0.011-0.02c2.255-1.265,3.779-3.681,3.779-6.446c0-0.1-0.004-0.196-0.006-0.292H51.366z"/>
<path class="st3" d="M48.151,15.38c0,1.324-0.617,2.504-1.579,3.27l-0.089-0.111c-0.625-0.56-1.451-0.903-2.357-0.903
	c-1.946,0-3.523,1.574-3.523,3.516c0,1.942,1.577,3.516,3.523,3.516v1.585H23.578v-1.585c1.703,0,3.123-1.204,3.452-2.808
	l-0.011-0.02c2.255-1.265,3.779-3.681,3.779-6.446c0-0.102-0.004-0.205-0.006-0.305l0.126-0.004h17.129l0.094-0.005
	c0.009,0.1,0.011,0.2,0.011,0.3H48.151z"/>
<path class="st3" d="M23.578,26.251H13.094v-7.65c0-1.72,1.253-3.159,2.891-3.457c0.206-0.039,0.417-0.059,0.632-0.059H27.59
	c0.009,0.096,0.011,0.194,0.011,0.292c0,1.324-0.617,2.504-1.579,3.27l-0.089-0.111c-0.625-0.56-1.451-0.903-2.357-0.903
	c-1.946,0-3.523,1.574-3.523,3.516s1.577,3.516,3.523,3.516v1.585H23.578z"/>
<path class="st4" d="M30.916,15.086h5.634h3.247h8.248"/>
<path class="st4" d="M16.087,15.086h1.846h0.033h9.622h0.015"/>
<path class="st4" d="M16.617,56.447c-1.938,0-3.523-1.581-3.523-3.516V18.602c0-1.72,1.253-3.159,2.891-3.457
	c0.206-0.039,0.417-0.059,0.632-0.059"/>
<path class="st4" d="M51.296,15.1c1.816,0.179,3.243,1.683,3.243,3.499v34.316c0,1.933-1.62,3.514-3.601,3.514H15.995"/>
<path class="st4" d="M13,26.251h2.226h9.939h19.482h9.479"/>
<path class="st4" d="M15.98,15.394c0-0.081,0-0.167,0.005-0.25c-0.004-0.02,0-0.039,0-0.059c0.004-0.091,0.009-0.179,0.015-0.27"/>
<path class="st4" d="M16,14.817c0.296-3.812,3.491-6.816,7.387-6.816c3.895,0,7.242,3.146,7.403,7.087
	c0.004,0.1,0.006,0.202,0.006,0.305c0,2.765-1.523,5.181-3.779,6.446c-1.027,0.577-2.207,0.919-3.464,0.947
	c-0.056,0.004-0.111,0.004-0.167,0.004"/>
<path class="st4" d="M19.247,14.799c0.009-0.065,0.018-0.126,0.03-0.19c0.361-1.946,2.076-3.42,4.127-3.42
	c2.22,0,4.036,1.72,4.186,3.897c0.009,0.096,0.011,0.194,0.011,0.292c0,1.324-0.617,2.504-1.579,3.27
	c-0.678,0.546-1.533,0.882-2.463,0.914c-0.054,0.004-0.102,0.004-0.156,0.004"/>
<path class="st4" d="M23.839,22.78c-0.056,0.006-0.111,0.009-0.167,0.009c-0.041,0-0.08,0-0.117-0.004
	c-0.975-0.039-1.514-0.762-1.514-1.626c0-0.751,0.347-1.485,1.366-1.581c0.05-0.006,0.102-0.009,0.156-0.011"/>
<path class="st4" d="M36.55,14.817c0.297-3.812,3.489-6.816,7.387-6.816s7.251,3.152,7.403,7.099
	c0.004,0.096,0.006,0.194,0.006,0.292c0,2.765-1.523,5.181-3.778,6.446c-1.027,0.577-2.207,0.919-3.464,0.947
	c-0.056,0.004-0.111,0.004-0.167,0.004"/>
<path class="st4" d="M39.797,14.799c0.282-2.04,2.037-3.61,4.157-3.61s4.034,1.716,4.186,3.891c0.009,0.1,0.011,0.2,0.011,0.3
	c0,1.324-0.617,2.504-1.579,3.27c-0.678,0.546-1.533,0.882-2.463,0.914c-0.054,0.004-0.102,0.004-0.156,0.004"/>
<path class="st4" d="M44.389,22.78c-0.056,0.006-0.111,0.009-0.167,0.009c-0.041,0-0.08,0-0.117-0.004
	c-0.975-0.039-1.514-0.762-1.514-1.626c0-0.751,0.347-1.485,1.366-1.581c0.05-0.006,0.102-0.009,0.156-0.011"/>
<path class="st5" d="M34.69,37.605L34.69,37.605l-0.006-0.002c-0.717-0.213-1.254-0.421-1.612-0.702
	c-0.322-0.254-0.51-0.574-0.51-1.1c0-0.563,0.211-0.957,0.527-1.219c0.328-0.272,0.811-0.434,1.389-0.434
	c0.544,0,0.991,0.169,1.345,0.484c0.36,0.32,0.657,0.819,0.837,1.527l0.01,0.04l0.017,0.038c0.011,0.025,0.023,0.053,0.036,0.083
	c0.082,0.189,0.198,0.459,0.351,0.682c0.182,0.264,0.496,0.579,0.987,0.579c0.572,0,0.939-0.423,1.138-0.882
	c0.202-0.466,0.299-1.098,0.299-1.835c0-0.759-0.12-1.55-0.369-2.171c-0.23-0.575-0.67-1.228-1.422-1.228
	c-0.439,0-0.798,0.209-1.037,0.54c-0.215-0.102-0.45-0.197-0.698-0.277l0.105-0.738l0.001-0.011l0.001-0.011
	c0.007-0.075,0.017-0.152,0.028-0.233c0.003-0.023,0.006-0.047,0.009-0.071c0.012-0.094,0.028-0.218,0.028-0.32
	c0-0.253-0.053-0.555-0.274-0.793c-0.228-0.245-0.542-0.325-0.851-0.325c-0.368,0-0.699,0.131-0.941,0.423
	c-0.22,0.264-0.328,0.615-0.386,0.98h0l-0.001,0.009l-0.109,0.784c-2.717,0.224-5.062,2.156-5.062,5.148
	c0,1.447,0.558,2.531,1.42,3.333c0.845,0.786,1.964,1.283,3.08,1.623l0,0l0.005,0.002c0.711,0.208,1.258,0.445,1.624,0.757
	c0.341,0.29,0.538,0.654,0.538,1.194c0,0.562-0.215,0.986-0.556,1.278c-0.349,0.298-0.862,0.483-1.485,0.483
	c-1.2,0-2.249-0.864-2.696-2.12c-0.031-0.088-0.065-0.191-0.101-0.3c-0.088-0.266-0.189-0.573-0.301-0.815
	c-0.082-0.179-0.191-0.375-0.342-0.531c-0.159-0.164-0.388-0.307-0.685-0.307c-0.557,0-0.941,0.437-1.161,0.92
	c-0.23,0.506-0.36,1.213-0.36,2.096c0,0.935,0.159,1.79,0.437,2.43c0.139,0.32,0.318,0.608,0.543,0.824
	c0.228,0.218,0.524,0.38,0.874,0.38c0.46,0,0.821-0.224,1.066-0.552c0.375,0.176,0.808,0.339,1.271,0.46l-0.102,0.729
	c-0.044,0.248-0.069,0.488-0.069,0.654c0,0.253,0.053,0.555,0.274,0.793c0.227,0.245,0.542,0.325,0.851,0.325
	c0.365,0,0.7-0.129,0.946-0.419c0.227-0.268,0.336-0.623,0.383-0.998c0,0,0-0.001,0-0.001l0.113-0.865
	c2.885-0.24,5.12-2.238,5.12-5.189c0-1.438-0.53-2.556-1.379-3.401C36.993,38.519,35.868,37.97,34.69,37.605z"/>
</svg>
