<svg width="48" height="48" viewBox="0 0 48 48" fill="none" xmlns="http://www.w3.org/2000/svg">
<path d="M36.706 32.4706C36.706 34.5882 35.2975 35.2941 33.1796 35.2941C31.0616 35.2941 27.2549 35.2941 23.9997 35.2941C20.7444 35.2941 17.0725 35.2941 14.8241 35.2941C12.5757 35.2941 11.2942 34.5882 11.2942 32.4706C11.2942 26.8235 17.648 22.5882 23.9997 22.5882C30.3513 22.5882 36.706 26.8235 36.706 32.4706Z" fill="#4ED7DE"/>
<path d="M29.6497 15.5294C29.6497 18.6482 27.121 21.1764 24.0018 21.1764C20.8826 21.1764 18.354 18.6482 18.354 15.5294C18.354 12.4106 20.8826 9.88232 24.0018 9.88232C27.121 9.88232 29.6497 12.4106 29.6497 15.5294Z" fill="#4ED7DE"/>
<path d="M36.706 32.4706C36.706 34.5882 35.2975 35.2941 33.1796 35.2941C31.0616 35.2941 27.2549 35.2941 23.9997 35.2941C20.7444 35.2941 17.0725 35.2941 14.8241 35.2941C12.5757 35.2941 11.2942 34.5882 11.2942 32.4706C11.2942 26.8235 17.648 22.5882 23.9997 22.5882C30.3513 22.5882 36.706 26.8235 36.706 32.4706Z" stroke="#002140"/>
<path d="M29.6497 15.5294C29.6497 18.6482 27.121 21.1764 24.0018 21.1764C20.8826 21.1764 18.354 18.6482 18.354 15.5294C18.354 12.4106 20.8826 9.88232 24.0018 9.88232C27.121 9.88232 29.6497 12.4106 29.6497 15.5294Z" stroke="#002140"/>
</svg>
