<svg xmlns="http://www.w3.org/2000/svg" xmlns:xlink="http://www.w3.org/1999/xlink" id="Layer_1" x="0" y="0" version="1.1" viewBox="0 0 68 68" style="enable-background:new 0 0 68 68" xml:space="preserve"><style type="text/css">.st0{fill:#ffed8f}.st1{fill:#ccf6ff}.st2,.st3{fill:none;stroke:#002140;stroke-width:1;stroke-linecap:round;stroke-linejoin:round}.st3{stroke:#fed607}</style><path d="M29.419,48.482c0,0,0.995,1.566,5.269,1.424c4.269-0.142,5.981-1.424,5.981-1.424s2.137-4.556,3.132-6.689	c0.995-2.137,3.703-7.401,3.132-11.246c-0.571-3.844-5.41-9.68-13.241-9.68c-7.83,0-10.675,8.826-10.675,11.675	c0,2.849,2.137,8.543,2.137,8.543l4.269,7.401L29.419,48.482z" class="st0"/><path d="M40.665,48.482c0,0-2.231,1.236-4.981,1.137c-2.75-0.094-6.453-0.571-6.453-0.571l1.995,4.557	c0,0-0.094,1.613-0.094,1.896c0,0.283,1.137,2.467,3.415,2.467c2.278,0,4.368-1.896,4.368-2.184c0-0.288-0.377-2.184-0.377-2.184	s1.995-3.703,2.137-5.123L40.665,48.482z" class="st1"/><path d="M22.718,32.796c0,7.011,5.621,11.117,6.406,16.416" class="st2"/><path d="M46.963,32.916c0,6.565-5.659,10.452-6.234,15.236" class="st2"/><path d="M46.955,32.796c0-6.693-5.428-12.121-12.121-12.121s-12.121,5.11-12.121,12.121" class="st2"/><path d="M40.746,48.006c-0.472,3.801-2.943,6.706-5.925,6.706c-2.982,0-5.325-2.75-5.882-6.402" class="st2"/><path d="M28.938,48.306c0,0,5.565,2.961,11.791-0.154" class="st2"/><path d="M38.45,53.373c0.322,0.45,0.506,0.965,0.506,1.515c0,1.733-1.836,3.141-4.097,3.141s-4.097-1.407-4.097-3.141	c0-0.433,0.116-0.845,0.322-1.223" class="st2"/><path d="M35.473,49.152c0.511-1.39,0.425-2.986-0.227-4.316c-0.365-0.747-1.03-1.472-1.862-1.45	c-0.395,0.009-0.785,0.202-1.008,0.532c-0.223,0.33-0.245,0.785-0.039,1.116c0.245,0.395,0.764,0.558,1.223,0.489	c0.459-0.069,0.867-0.335,1.218-0.639c0.455-0.39,0.854-0.867,1.098-1.416c0.232-0.519,0.33-1.09,0.352-1.656	c0.026-0.648-0.047-1.313-0.317-1.905c-0.27-0.592-0.755-1.103-1.369-1.313" class="st2"/><path d="M12.467,26.798h6.264" class="st3"/><path d="M49.765,26.798h6.264" class="st3"/><path d="M34.246,16.976V10" class="st3"/><path d="M24.283,19.68l-5.342-5.338" class="st3"/><path d="M43.856,18.684l5.338-5.337" class="st3"/></svg>