<?xml version="1.0" encoding="utf-8"?>
<!-- Generator: Adobe Illustrator 26.5.0, SVG Export Plug-In . SVG Version: 6.00 Build 0)  -->
<svg version="1.1" id="Layer_1" xmlns="http://www.w3.org/2000/svg" xmlns:xlink="http://www.w3.org/1999/xlink" x="0px" y="0px"
	 viewBox="0 0 68 68" style="enable-background:new 0 0 68 68;" xml:space="preserve">
<style type="text/css">
	.st0{fill:#FFFAF0;}
	.st1{fill:#002140;}
	.st2{fill:#02B368;}
	.st3{fill:#FED604;}
	.st4{fill:#FFED8F;}
	.st5{fill:#D08000;}
</style>
<g>
	<path class="st0" d="M8,32.3l27.5,20.5l28.8-9.6L36.9,22.7l0.6,0.4c-1.2-0.8-3.3-2.6-4.2-11.2h0c0,0-2.6,3.4-2.9,5.5
		c-0.3-0.2-3.5-2.4-3.5-2.4l-2.1,4.1L21,16.8L19.1,21l-4-2.4l-1.7,3.8l-3.6-2.2L8,23.9l-4-2.2C3.8,27.4,6.6,31.1,8,32.3"/>
	<path class="st1" d="M35.6,53.3c-0.1,0-0.2,0-0.3-0.1L7.7,32.7c0,0,0,0,0,0C6,31.3,3.3,27.4,3.5,21.6c0-0.2,0.1-0.3,0.3-0.4
		c0.2-0.1,0.3-0.1,0.5,0l3.6,2l1.5-3.1c0.1-0.1,0.2-0.2,0.3-0.3c0.1,0,0.3,0,0.4,0.1l3.1,1.9l1.5-3.3c0.1-0.1,0.2-0.2,0.3-0.3
		c0.1,0,0.3,0,0.4,0l3.5,2.1l1.7-3.7c0.1-0.1,0.2-0.2,0.3-0.3c0.1,0,0.3,0,0.4,0.1l3.3,2.1l1.8-3.6c0.1-0.1,0.2-0.2,0.3-0.3
		c0.1,0,0.3,0,0.4,0.1c0.9,0.7,2.2,1.5,2.9,2c0.6-2,2.5-4.6,2.8-5c0,0,0-0.1,0.1-0.1c0.2-0.2,0.7-0.2,0.8,0.1c0,0.1,0.1,0.1,0.1,0.2
		c0.8,7.2,2.4,9.4,3.4,10.3c0,0,0,0,0,0v0v0l0.6,0.4c0,0,0,0,0,0l27,20.1c0.1,0.1,0.2,0.3,0.2,0.5c0,0.2-0.2,0.3-0.3,0.4l-28.8,9.6
		C35.7,53.3,35.6,53.3,35.6,53.3z M8.3,31.9l27.3,20.3L63.3,43L37.1,23.6c-0.2-0.1-0.3-0.2-0.5-0.4l-0.1-0.1c0,0-0.1-0.1-0.1-0.1
		c-1.3-1.2-2.8-3.6-3.6-9.7c-0.8,1.1-1.9,2.9-2.1,4.2c0,0.2-0.1,0.3-0.3,0.4c-0.1,0.1-0.3,0.1-0.4,0c-0.3-0.1-2.1-1.4-3.1-2.1
		l-1.8,3.6c-0.1,0.1-0.2,0.2-0.3,0.3c-0.1,0-0.3,0-0.4-0.1l-3.3-2l-1.6,3.7c-0.1,0.1-0.2,0.2-0.3,0.3c-0.1,0-0.3,0-0.4,0l-3.5-2.1
		l-1.5,3.3c-0.1,0.1-0.2,0.2-0.3,0.3c-0.1,0-0.3,0-0.4,0L10,21l-1.5,3.1c-0.1,0.1-0.2,0.2-0.3,0.3c-0.1,0-0.3,0-0.4,0l-3.3-1.8
		C4.6,27.4,6.9,30.7,8.3,31.9z"/>
</g>
<g>
	<path class="st2" d="M25.9,28.3L5.8,40.4l31.9,15.5L58,43.4L25.9,28.3z"/>
</g>
<g>
	<path class="st3" d="M26.1,34.5c1.4-0.3,2.3-1.3,2.1-2.2s-1.5-1.4-2.8-1.1c-1.4,0.3-2.3,1.3-2.1,2.2C23.5,34.3,24.8,34.8,26.1,34.5
		z"/>
</g>
<g>
	<path class="st3" d="M15.4,41.2c1.2-0.3,2.1-1.2,1.9-2.1c-0.2-0.9-1.4-1.4-2.6-1.2c-1.2,0.3-2.1,1.2-1.9,2.1
		C13,40.9,14.2,41.4,15.4,41.2z"/>
</g>
<g>
	<path class="st3" d="M49,46c1.2-0.3,2.1-1.2,1.9-2.1c-0.2-0.9-1.4-1.4-2.6-1.2c-1.2,0.3-2.1,1.2-1.9,2.1C46.5,45.7,47.7,46.2,49,46
		z"/>
</g>
<g>
	<path class="st1" d="M37.8,56.3c-0.1,0-0.1,0-0.2,0L5.2,40.9c-0.2-0.1-0.3-0.2-0.3-0.4c0-0.2,0.1-0.4,0.2-0.5l20.2-12.4
		c0.1-0.1,0.3-0.1,0.5,0L58,43.3c0.2,0.1,0.3,0.2,0.3,0.4c0,0.2-0.1,0.4-0.2,0.5L38,56.3C38,56.3,37.9,56.3,37.8,56.3z M6.5,40.3
		l31.3,14.9l19-11.5L25.7,28.6L6.5,40.3z"/>
</g>
<g>
	<path class="st1" d="M14.7,41.9c-1.4,0-2.5-0.7-2.8-1.9c-0.1-0.7,0.1-1.4,0.6-2c0.5-0.6,1.2-1,2-1.1c0.8-0.2,1.6-0.1,2.3,0.2
		c0.7,0.3,1.2,0.9,1.3,1.6c0.3,1.3-0.9,2.7-2.6,3.1l0,0C15.3,41.8,15,41.9,14.7,41.9z M15.4,41.3L15.4,41.3L15.4,41.3z M15.3,37.8
		c-0.2,0-0.4,0-0.6,0.1c-0.6,0.1-1.1,0.4-1.4,0.8c-0.3,0.4-0.4,0.7-0.4,1.1c0.2,0.8,1.3,1.3,2.4,1c1.1-0.2,2-1.1,1.8-1.9
		c-0.1-0.4-0.4-0.7-0.8-0.9C16,37.9,15.7,37.8,15.3,37.8z"/>
</g>
<g>
	<path class="st1" d="M48.1,46.8c-1.4,0-2.5-0.7-2.8-1.9c-0.3-1.3,0.9-2.7,2.6-3.1c0.8-0.2,1.6-0.1,2.3,0.2c0.7,0.3,1.2,0.9,1.3,1.6
		c0.3,1.3-0.9,2.7-2.6,3.1l0,0C48.7,46.8,48.4,46.8,48.1,46.8z M48.8,46.2L48.8,46.2L48.8,46.2z M48.7,42.7c-0.2,0-0.4,0-0.6,0.1
		c-1.1,0.2-2,1.1-1.8,1.9c0.2,0.8,1.3,1.2,2.4,1c1.1-0.2,2-1.1,1.8-1.9c-0.1-0.4-0.4-0.7-0.8-0.9C49.4,42.8,49.1,42.7,48.7,42.7z"/>
</g>
<g>
	<path class="st1" d="M25.4,35.3c-1.4,0-2.5-0.7-2.8-1.9c-0.1-0.7,0.1-1.4,0.6-2c0.5-0.6,1.2-1,2-1.1c0.8-0.2,1.6-0.1,2.3,0.2
		c0.7,0.3,1.2,0.9,1.3,1.6c0.3,1.3-0.9,2.7-2.6,3.1l0,0C26,35.3,25.7,35.3,25.4,35.3z M26.2,34.7L26.2,34.7L26.2,34.7z M26.1,31.2
		c-0.2,0-0.4,0-0.6,0.1c-0.6,0.1-1.1,0.4-1.4,0.8c-0.3,0.4-0.4,0.7-0.4,1.1c0.2,0.8,1.3,1.3,2.4,1c1.1-0.2,2-1.1,1.8-1.9
		c-0.1-0.4-0.4-0.7-0.8-0.9C26.8,31.3,26.4,31.2,26.1,31.2z"/>
</g>
<g>
	<path class="st2" d="M32.3,23.2l-22.2,7.5L38,52.7l22.6-7.8L32.3,23.2z"/>
</g>
<g>
	<path class="st3" d="M31.3,29.3c1.4,0,2.5-0.8,2.5-1.7c0-0.9-1.1-1.7-2.5-1.7c-1.4,0-2.5,0.8-2.5,1.7
		C28.7,28.6,29.9,29.3,31.3,29.3z"/>
</g>
<g>
	<path class="st3" d="M19.4,33.6c1.3,0,2.3-0.8,2.3-1.7c0-0.9-1-1.7-2.3-1.7s-2.3,0.8-2.3,1.7C17.1,32.8,18.1,33.6,19.4,33.6z"/>
</g>
<g>
	<path class="st3" d="M39.3,49.2c1.3,0,2.3-0.8,2.3-1.7c0-0.9-1-1.7-2.3-1.7c-1.3,0-2.3,0.8-2.3,1.7C37,48.4,38,49.2,39.3,49.2z"/>
</g>
<g>
	<path class="st3" d="M51.1,45.4c1.3,0,2.3-0.8,2.3-1.7c0-0.9-1-1.7-2.3-1.7c-1.3,0-2.3,0.8-2.3,1.7C48.8,44.6,49.9,45.4,51.1,45.4z
		"/>
</g>
<g>
	<path class="st3" d="M39.6,35.3c0,0-6.5-4.3-9.6-2.8c-3.1,1.5-0.5,6.5,1.1,7.7c1.6,1.2,6.7,4,9.7,2.6C43.8,41.4,41.1,36,39.6,35.3
		L39.6,35.3z"/>
</g>
<g>
	<path class="st1" d="M38.1,53.2c-0.1,0-0.2,0-0.3-0.1l-28.3-22c-0.1-0.1-0.2-0.3-0.2-0.5c0-0.2,0.2-0.3,0.3-0.4L32,22.4
		c0.2-0.1,0.3,0,0.5,0.1l28.1,22.2c0.1,0.1,0.2,0.3,0.2,0.5c0,0.2-0.2,0.3-0.3,0.4l-22.2,7.5C38.2,53.2,38.2,53.2,38.1,53.2z
		 M10.8,30.9l27.4,21.2l21-7.1L32.1,23.5L10.8,30.9z"/>
</g>
<g>
	<path class="st1" d="M19.4,34.2c-1.7,0-3.2-1.1-3.2-2.5c0-1.4,1.4-2.5,3.2-2.5s3.2,1.1,3.2,2.5C22.5,33.1,21.1,34.2,19.4,34.2z
		 M19.4,30.2c-1.2,0-2.2,0.7-2.2,1.5c0,0.8,1,1.5,2.2,1.5s2.2-0.7,2.2-1.5C21.5,30.9,20.6,30.2,19.4,30.2z"/>
</g>
<g>
	<path class="st1" d="M39.3,50c-1.7,0-3.2-1.1-3.2-2.5s1.4-2.5,3.2-2.5c1.7,0,3.2,1.1,3.2,2.5S41,50,39.3,50z M39.3,46
		c-1.2,0-2.2,0.7-2.2,1.5s1,1.5,2.2,1.5s2.2-0.7,2.2-1.5S40.4,46,39.3,46z"/>
</g>
<g>
	<path class="st1" d="M51,46.1c-1.7,0-3.2-1.1-3.2-2.5s1.4-2.5,3.2-2.5s3.2,1.1,3.2,2.5S52.7,46.1,51,46.1z M51,42.1
		c-1.2,0-2.2,0.7-2.2,1.5s1,1.5,2.2,1.5s2.2-0.7,2.2-1.5S52.1,42.1,51,42.1z"/>
</g>
<g>
	<path class="st1" d="M31.2,30.1c-1.7,0-3.2-1.1-3.2-2.5c0-1.4,1.4-2.5,3.2-2.5s3.2,1.1,3.2,2.5C34.4,28.9,33,30.1,31.2,30.1z
		 M31.2,26.1c-1.2,0-2.2,0.7-2.2,1.5c0,0.8,1,1.5,2.2,1.5s2.2-0.7,2.2-1.5C33.4,26.8,32.4,26.1,31.2,26.1z"/>
</g>
<g>
	<path class="st1" d="M38.5,43.8c-1.8,0-4-0.7-6-2c-4-2.5-5.9-6.4-4.4-8.7c1.5-2.4,5.8-2.2,9.8,0.3c1.9,1.2,3.3,2.7,4.2,4.3
		c0.9,1.7,1,3.3,0.2,4.4l0,0C41.5,43.2,40.1,43.8,38.5,43.8z M31.8,32.4c-1.3,0-2.4,0.4-2.9,1.2c-1.2,1.8,0.7,5.2,4.1,7.3
		c3.4,2.1,7.2,2.4,8.4,0.6l0,0c0.5-0.9,0.5-2.1-0.3-3.4c-0.8-1.4-2.1-2.8-3.8-3.9C35.4,33,33.4,32.4,31.8,32.4z M41.8,41.8
		L41.8,41.8L41.8,41.8z"/>
</g>
<g>
	<path class="st3" d="M33.7,30.6c0,0,1.4,2.8,10.8,2.5c9.4-0.3,10.5-2.1,10.5-2.7s-4.3-2.5-10-2.5S33.9,28.7,33.7,30.6L33.7,30.6z"
		/>
</g>
<g>
	<path class="st4" d="M34.5,29.8c0.9,0.6,2.1,0.7,3.2,0.5c1.1-0.2,2.2-0.5,3.3-0.7c1.3-0.2,2.6,0,3.8,0c0.5,0,1.1,0,1.5-0.3
		c0.5-0.2,0.8-0.7,0.8-1.2c0,0-3.9-0.1-6.9,0.1C37.2,28.4,34.5,29.8,34.5,29.8L34.5,29.8z"/>
</g>
<g>
	<path class="st5" d="M33.8,31.1v3.1c0,0,3.9,2.1,11,2.1c7,0,10.2-2.3,10.2-2.3V31c0,0-3.3,2.5-10.5,2.2
		C37.2,32.9,34.7,31.7,33.8,31.1z"/>
</g>
<g>
	<path class="st1" d="M44.3,33.6c-3.8,0-11.1-0.6-11.1-3s7.3-3,11.1-3s11.1,0.6,11.1,3S48.2,33.6,44.3,33.6z M44.3,28.6
		c-6.5,0-10.1,1.3-10.1,2s3.6,2,10.1,2c6.5,0,10.1-1.3,10.1-2S50.9,28.6,44.3,28.6z"/>
</g>
<g>
	<path class="st1" d="M44.3,36.8c-3.8,0-11.1-0.6-11.1-3v-3.2c0-0.3,0.2-0.5,0.5-0.5s0.5,0.2,0.5,0.5v3.2c0,0.7,3.6,2,10.1,2
		c6.5,0,10.1-1.3,10.1-2v-3.2c0-0.3,0.2-0.5,0.5-0.5s0.5,0.2,0.5,0.5v3.2C55.5,36.2,48.2,36.8,44.3,36.8z"/>
</g>
<g>
	<path class="st5" d="M44.4,31.8c-1.4,0-4.6-0.1-4.6-1.3c0-1.2,3.2-1.3,4.6-1.3s4.6,0.1,4.6,1.3C49,31.7,45.8,31.8,44.4,31.8z
		 M41.2,30.5c0.6,0.2,1.7,0.3,3.2,0.3c1.5,0,2.6-0.2,3.2-0.3c-0.6-0.2-1.7-0.3-3.2-0.3S41.8,30.3,41.2,30.5z"/>
</g>
<g>
	<path class="st1" d="M10.7,31.7l-1.5,1l3.5,2.8l1.7-1.2L10.7,31.7z"/>
</g>
<g>
	<path class="st1" d="M54,35.1l2.1,1.9c0,0-3.7,1.2-4.9,1.2l-2.1-1.9L54,35.1z"/>
</g>
</svg>
