<?xml version="1.0" encoding="UTF-8"?>
<svg id="Layer_1" xmlns="http://www.w3.org/2000/svg" version="1.1" viewBox="0 0 164 164">
  <!-- Generator: Adobe Illustrator 29.8.2, SVG Export Plug-In . SVG Version: 2.1.1 Build 3)  -->
  <path d="M144.78,59.57L80.61,12.53,18.68,59.85l1.12,13.43v59.08h-2.8v9.81h24.94v-5.05h26.06v4.76h26.34v-4.76h25.22v5.6h25.78v-9.52h-2.8v-61.31l2.24-12.32Z" fill="#b0d9ff"/>
  <path d="M40.26,72.17h-20.46v59.91h20.46v-59.91Z" fill="#e5fafe"/>
  <path d="M90.71,73.01h-19.62v59.91h19.62v-59.91Z" fill="#e5fafe"/>
  <path d="M142.55,73.29h-19.9v59.08h19.9v-59.08Z" fill="#e5fafe"/>
  <path d="M40.26,111.64h30.83v-38.64l-1.68-12.88h-27.74l-1.96,14,.56,37.52Z" fill="#5ab0ff"/>
  <path d="M91.27,111.64h30.83v-38.64l-1.69-12.88h-27.74l-1.97,14,.57,37.52Z" fill="#5ab0ff"/>
  <path d="M48.29,111.18h14.95v-23.52s-.56-7.65-7.29-7.65c-7.89,0-7.1,8.21-7.1,8.21l-.56,22.96Z" fill="#002140"/>
  <path d="M99.14,110.99l14.53.19v-23.52s-.56-7.65-7.29-7.65-7.1,8.21-7.1,8.21l-.15,22.77h0Z" fill="#002140"/>
  <path d="M18.15,59.75h126.1L81.2,11.87,18.15,59.75Z" fill="none" stroke="#002140" stroke-linecap="round" stroke-linejoin="round"/>
  <path d="M18.15,59.75s1.68,7.28,1.68,13.16h19.9c0-5.88,1.68-13.16,1.68-13.16" fill="none" stroke="#002140" stroke-linecap="round" stroke-linejoin="round"/>
  <path d="M19.83,72.91v59.08" fill="none" stroke="#002140" stroke-linecap="round" stroke-linejoin="round"/>
  <path d="M39.73,72.91v58.8" fill="none" stroke="#002140" stroke-linecap="round" stroke-linejoin="round"/>
  <path d="M30.11,73.75v57.68" fill="none" stroke="#002140" stroke-linecap="round" stroke-linejoin="round"/>
  <path d="M42.62,132.66h-25.47v9.33h25.47v-9.33Z" fill="none" stroke="#002140" stroke-linecap="round" stroke-linejoin="round"/>
  <path d="M120.72,59.75s1.68,7.28,1.68,13.16h19.9c0-5.88,1.68-13.16,1.68-13.16" fill="none" stroke="#002140" stroke-linecap="round" stroke-linejoin="round"/>
  <path d="M122.4,72.91v59.08" fill="none" stroke="#002140" stroke-linecap="round" stroke-linejoin="round"/>
  <path d="M142.29,72.91v58.8" fill="none" stroke="#002140" stroke-linecap="round" stroke-linejoin="round"/>
  <path d="M132.67,73.75v57.68" fill="none" stroke="#002140" stroke-linecap="round" stroke-linejoin="round"/>
  <path d="M145.19,132.66h-25.47v9.33h25.47v-9.33Z" fill="none" stroke="#002140" stroke-linecap="round" stroke-linejoin="round"/>
  <path d="M69.58,59.75s1.68,7.28,1.68,13.16h19.9c0-5.88,1.68-13.16,1.68-13.16" fill="none" stroke="#002140" stroke-linecap="round" stroke-linejoin="round"/>
  <path d="M71.26,72.91v59.08" fill="none" stroke="#002140" stroke-linecap="round" stroke-linejoin="round"/>
  <path d="M91.16,72.91v58.8" fill="none" stroke="#002140" stroke-linecap="round" stroke-linejoin="round"/>
  <path d="M81.53,73.75v57.68" fill="none" stroke="#002140" stroke-linecap="round" stroke-linejoin="round"/>
  <path d="M94.05,132.66h-25.47v9.33h25.47v-9.33Z" fill="none" stroke="#002140" stroke-linecap="round" stroke-linejoin="round"/>
  <path d="M42.82,136.89h25.76" fill="none" stroke="#002140" stroke-linecap="round" stroke-linejoin="round"/>
  <path d="M95.5,136.89h24.22" fill="none" stroke="#002140" stroke-linecap="round" stroke-linejoin="round"/>
  <path d="M40.57,124.15h29.7" fill="none" stroke="#002140" stroke-linecap="round" stroke-linejoin="round"/>
  <path d="M40.57,111.55h29.7" fill="none" stroke="#002140" stroke-linecap="round" stroke-linejoin="round"/>
  <path d="M91.57,124.15h29.7" fill="none" stroke="#002140" stroke-linecap="round" stroke-linejoin="round"/>
  <path d="M91.57,111.55h29.7" fill="none" stroke="#002140" stroke-linecap="round" stroke-linejoin="round"/>
  <path d="M63.27,111.27v-23.94c0-4.1-3.33-7.42-7.42-7.42s-7.42,3.32-7.42,7.42v23.66" fill="none" stroke="#002140" stroke-linecap="round" stroke-linejoin="round"/>
  <path d="M99.14,110.99v-23.66c0-4.1,3.33-7.42,7.42-7.42s7.42,3.32,7.42,7.42v23.94" fill="none" stroke="#002140" stroke-linecap="round" stroke-linejoin="round"/>
  <path d="M81.34,54.17c1.2,0,1.44-.54,1.44-1.38v-1.74c4.24,0,7.43-2.32,7.43-6.85,0-4.09-2.77-6.16-7.34-7.76-1.65-.57-2.59-1.11-2.59-2.31,0-.99.72-1.74,1.56-1.74,1.69,0,2.8,1.14,3.73,2.38.57.75,1.14,1.56,2.14,1.56.81,0,1.65-.75,1.65-2.41,0-2.1-1.38-4.84-3.4-4.84-.87,0-1.17.57-1.69.57-.27,0-.57-.12-.93-.27-.12-.06-.27-.09-.42-.15v-1.95c0-.84-.27-1.41-1.44-1.41-1.26,0-1.47.6-1.47,1.41v1.62c-3.97.24-6.89,2.89-6.89,6.85s3.34,6.31,7.31,7.67c1.32.45,2.62,1.02,2.62,2.41,0,.96-.66,1.74-1.69,1.74-1.81,0-3.52-1.17-4.9-3.22-.45-.66-1.08-1.44-1.93-1.44-1.02,0-1.93.84-1.93,2.56,0,2.38,1.72,5.35,3.76,5.35,1.14,0,1.2-.6,1.75-.6.3,0,.69.12,1.17.27.18.06.36.09.57.15v2.16c0,.81.21,1.38,1.47,1.38Z" fill="#002140"/>
  <path d="M157.49,137.45l-20.72,7.48s-2.53-4.72,1.84-8.39c0,0-10.82-3.8-19.34,0-8.52,3.79-13.35,8.28-19.8,20.13l-2.42-20.13s11.28-19.78,34.53-14.61l8.17,2.65s-1.96-5.75,1.96-8.28l15.77,21.16h0Z" fill="#03d47c"/>
  <path d="M139.61,124.54s-26.78-13.11-42.56,12.08l2.35,20.44s11.81-29.67,39.18-20.36" fill="#03d47c"/>
  <path d="M139.61,124.54s-26.78-13.11-42.56,12.08l2.35,20.44s11.81-29.67,39.18-20.36" fill="none" stroke="#002140" stroke-linecap="round" stroke-linejoin="round"/>
  <path d="M138.58,136.71s-4.29,3.34-1.82,8.46l1.82-8.46Z" fill="#03d47c"/>
  <path d="M138.58,136.71s-4.29,3.34-1.82,8.46" fill="none" stroke="#002140" stroke-linecap="round" stroke-linejoin="round"/>
  <path d="M141.69,116.18s-4.29,2.93-1.82,8.45l1.82-8.45Z" fill="#03d47c"/>
  <path d="M141.69,116.18s-4.29,2.93-1.82,8.45" fill="none" stroke="#002140" stroke-linecap="round" stroke-linejoin="round"/>
  <path d="M136.76,145.16l21.24-7.76-16.31-21.22" fill="#03d47c"/>
  <path d="M136.76,145.16l21.24-7.76-16.31-21.22" fill="none" stroke="#002140" stroke-linecap="round" stroke-linejoin="round"/>
</svg>