<?xml version="1.0" encoding="UTF-8"?>
<svg id="Layer_1" xmlns="http://www.w3.org/2000/svg" version="1.1" viewBox="0 0 68 68">
  <!-- Generator: Adobe Illustrator 30.3.0, SVG Export Plug-In . SVG Version: 2.1.3 Build 182)  -->
  <path d="M26.81,25.26l4.51-3.94h1.9l-4.35,3.95h-2.06Z" fill="#0f2c23" stroke="#002140" stroke-miterlimit="10"/>
  <path d="M48.06,25.26l-4.51-3.94h-1.9l4.35,3.95h2.06Z" fill="#0f2c23" stroke="#002140" stroke-miterlimit="10"/>
  <path d="M23.64,55.46h-1.97c-2.59,0-4.68-2.1-4.68-4.68v-.57l1.97.04h.03c-.02.18-.03.36-.03.53,0,2.59,2.1,4.68,4.68,4.68h0Z" fill="#2c65b7"/>
  <path d="M23.64,48.73c1.13,0,2.05.91,2.05,2.05s-.92,2.05-2.05,2.05-2.05-.91-2.05-2.05.92-2.05,2.05-2.05Z" fill="#173c6e"/>
  <path d="M23.64,46.09c2.59,0,4.68,2.1,4.68,4.68s-2.1,4.68-4.68,4.68-4.68-2.1-4.68-4.68c0-.18.01-.36.03-.53.26-2.34,2.25-4.16,4.65-4.16ZM25.68,50.77c0-1.13-.92-2.05-2.05-2.05s-2.05.91-2.05,2.05.92,2.05,2.05,2.05,2.05-.91,2.05-2.05Z" fill="#173c6e"/>
  <path d="M18.99,50.24c.26-2.34,2.25-4.16,4.65-4.16,2.59,0,4.68,2.1,4.68,4.68s-2.1,4.68-4.68,4.68-4.68-2.1-4.68-4.68c0-.18.01-.36.03-.53Z" fill="none" stroke="#002140" stroke-linejoin="round"/>
  <path d="M18.95,50.24h-1.97v.53c0,2.59,2.1,4.68,4.68,4.68h1.97" fill="none" stroke="#002140" stroke-linejoin="round"/>
  <path d="M25.68,50.77c0,1.13-.92,2.05-2.05,2.05s-2.05-.91-2.05-2.05.92-2.05,2.05-2.05,2.05.91,2.05,2.05Z" fill="none" stroke="#002140" stroke-linejoin="round"/>
  <path d="M41.4,55.46h-1.97c-2.59,0-4.68-2.1-4.68-4.68v-.57l1.97.04h.03c-.02.18-.03.36-.03.53,0,2.59,2.1,4.68,4.68,4.68h0Z" fill="#2c65b7"/>
  <path d="M41.4,48.73c1.13,0,2.05.91,2.05,2.05s-.92,2.05-2.05,2.05-2.05-.91-2.05-2.05.92-2.05,2.05-2.05Z" fill="#173c6e"/>
  <path d="M41.4,46.09c2.59,0,4.68,2.1,4.68,4.68s-2.1,4.68-4.68,4.68-4.68-2.1-4.68-4.68c0-.18.01-.36.03-.53.26-2.34,2.25-4.16,4.65-4.16ZM43.45,50.77c0-1.13-.92-2.05-2.05-2.05s-2.05.91-2.05,2.05.92,2.05,2.05,2.05,2.05-.91,2.05-2.05Z" fill="#173c6e"/>
  <path d="M36.75,50.24c.26-2.34,2.25-4.16,4.65-4.16,2.59,0,4.68,2.1,4.68,4.68s-2.1,4.68-4.68,4.68-4.68-2.1-4.68-4.68c0-.18.01-.36.03-.53Z" fill="none" stroke="#002140" stroke-linejoin="round"/>
  <path d="M36.71,50.24h-1.97v.53c0,2.59,2.1,4.68,4.68,4.68h1.97" fill="none" stroke="#002140" stroke-linejoin="round"/>
  <path d="M43.45,50.77c0,1.13-.92,2.05-2.05,2.05s-2.05-.91-2.05-2.05.92-2.05,2.05-2.05,2.05.91,2.05,2.05Z" fill="none" stroke="#002140" stroke-linejoin="round"/>
  <path d="M40.97,32.1l-3.56,2.99v-2.99h3.56Z" fill="#173c6e"/>
  <path d="M51.93,36.68v3.88h-14.52v-3.88l5.3-4.58h9.22v4.58Z" fill="#173c6e"/>
  <path d="M57.78,31.14v.96h-14.55v-3.87h12.24c2.25,0,2.32,2.14,2.32,2.79v.11Z" fill="#008c59"/>
  <path d="M57.23,32.1l-1.77,1.52-3.53,3.06v-1.59l3.53-2.98.02-.02h1.75Z" fill="#002140"/>
  <path d="M56.82,47.49v1.35c0,.75-.61,1.36-1.37,1.36h-1.58c.9-.11,1.59-.87,1.59-1.79v-1.54h.73c.34,0,.62.28.62.62h0Z" fill="#9bc7f9"/>
  <path d="M55.46,46.88v1.54c0,.93-.7,1.69-1.59,1.79h-.04c-.49,0-.88-.39-.88-.88v-1.84c0-.35.28-.62.62-.62h1.89Z" fill="#9bc7f9"/>
  <path d="M55.46,33.63v13.25h-1.89c-.34,0-.62.28-.62.62v1.84c0,.49.4.88.88.88h.04c-.07,0-.14.01-.21.01h-18.42c0-3.08.04-20.27.04-22.32,0-.65-.22-1.02-.82-1.02h-6.18c-.55,0-.97.25-1.27,1.45.12-.53.22-.95.28-1.2.3-1.14.73-1.8,2.19-1.8v-.02h24.17c1,0,1.8.81,1.8,1.8v1.11h-18.05v12.33h14.52v-3.88l3.53-3.06h0Z" fill="#5be3aa"/>
  <path d="M55.46,32.1v.02l-3.53,2.98v-2.99h3.53Z" fill="#5be3aa"/>
  <path d="M43.23,28.24v3.87h-5.81v-3.87h5.81Z" fill="#008c59"/>
  <path d="M42.71,32.1l-5.3,4.58v-1.59l3.56-2.99h1.74Z" fill="#002140"/>
  <path d="M35.28,27.9c0,2.05-.04,19.24-.04,22.32h-9.84v-14.3c.07-.32,1.04-5.06,1.6-7.54,0-.02,0-.03.01-.05.29-1.2.71-1.45,1.27-1.45h6.18c.6,0,.82.37.82,1.02ZM33.74,35.73v-6.72c0-.33-.27-.6-.6-.6h-3.64c-.33,0-.61.18-.73.6-.16.54-1.45,5.99-1.6,6.54-.13.46.22.78.55.78h1.51c.14.54.43.9,1,.9s.85-.36.99-.9h1.92c.33,0,.6-.27.6-.6h0Z" fill="#5be3aa"/>
  <path d="M33.74,29.02v6.72c0,.33-.27.6-.6.6h-1.92c.08-.3.11-.65.11-1.03,0-1.07-.13-1.93-1.11-1.93-.88,0-1.1.86-1.1,1.93,0,.38.03.73.1,1.03h-1.51c-.33,0-.67-.31-.55-.78.15-.55,1.43-6,1.6-6.54.13-.42.4-.6.73-.6h3.64c.33,0,.6.27.6.6h0Z" fill="#3e86f5"/>
  <path d="M31.33,35.31c0,.38-.03.73-.11,1.03h-1.99c-.07-.3-.1-.65-.1-1.03,0-1.07.22-1.93,1.1-1.93.98,0,1.11.86,1.11,1.93Z" fill="#8dc8ff"/>
  <path d="M29.23,36.33h1.99c-.15.54-.45.9-.99.9s-.86-.36-1-.9Z" fill="#8dc8ff"/>
  <path d="M29.49,25.32v.02c-1.45,0-1.89.67-2.19,1.8-.07.24-.16.67-.28,1.2,0,.02,0,.03-.01.05h-9.92c.13-.56.23-1,.3-1.26.3-1.14.73-1.8,2.19-1.8h9.92Z" fill="#5be3aa"/>
  <path d="M17.08,28.38h9.92c-.55,2.47-1.53,7.22-1.6,7.54h-9.92s1.02-4.97,1.6-7.54Z" fill="#3e86f5"/>
  <path d="M25.41,35.92v.02l-3.34,3.94c-.09.1-.13.23-.13.36v6.63h-9.92v-6.64c0-.14.05-.27.14-.38l3.34-3.93h9.92Z" fill="#5be3aa"/>
  <path d="M22.68,49.87c.29-.25.46-.62.46-1.02v-1.35c0-.34-.28-.62-.62-.62h-.59v-6.63c0-.13.05-.26.13-.36l3.34-3.94v14.28h-11.59c-.07,0-.14,0-.21-.01h8.17c.34,0,.66-.13.9-.34h0Z" fill="#5be3aa"/>
  <path d="M23.14,47.49v1.35c0,.41-.18.78-.46,1.02-.24.21-.56.34-.9.34h-9.41c-.75,0-1.36-.61-1.36-1.36v-1.35c0-.35.28-.62.62-.62h10.9c.34,0,.62.28.62.62Z" fill="#b0d9ff"/>
  <path d="M19.06,40.89c.47,0,.84.74.84,1.66s-.38,1.66-.84,1.66-.84-.74-.84-1.66.38-1.66.84-1.66Z" fill="#ffed8f"/>
  <path d="M14.9,40.89c.47,0,.84.74.84,1.66s-.38,1.66-.84,1.66-.84-.74-.84-1.66.38-1.66.84-1.66Z" fill="#ffed8f"/>
  <path d="M55.46,33.63v13.25" fill="none" stroke="#002140" stroke-linejoin="round"/>
  <path d="M55.46,32.1v.02" fill="none" stroke="#002140" stroke-linejoin="round"/>
  <path d="M12.02,46.87v-6.64c0-.14.05-.27.14-.38l3.34-3.93s1.02-4.97,1.6-7.54c.13-.56.23-1,.3-1.26.3-1.14.73-1.8,2.19-1.8h34.09c1,0,1.8.81,1.8,1.8v1.11" fill="none" stroke="#002140" stroke-linejoin="round"/>
  <path d="M53.87,50.21c-.07,0-.14.01-.21.01H13.82c-.07,0-.14,0-.21-.01" fill="none" stroke="#002140" stroke-linejoin="round"/>
  <path d="M27.02,28.33c.12-.53.22-.95.28-1.2.3-1.14.73-1.8,2.19-1.8" fill="none" stroke="#002140" stroke-linejoin="round"/>
  <path d="M21.93,46.87v-6.63c0-.13.05-.26.13-.36l3.34-3.94v-.02c.07-.32,1.04-5.06,1.6-7.54" fill="none" stroke="#002140" stroke-linejoin="round"/>
  <path d="M23.74,50.2c-.4,0-.76-.12-1.06-.33" fill="none" stroke="#002140" stroke-linejoin="round"/>
  <path d="M15.49,35.92h9.92" fill="none" stroke="#002140" stroke-linejoin="round"/>
  <path d="M17.08,28.38h9.92" fill="none" stroke="#002140" stroke-linejoin="round"/>
  <path d="M25.41,50.2v-14.26" fill="none" stroke="#002140" stroke-linejoin="round"/>
  <path d="M35.24,50.22c0-3.08.04-23.02.04-25.07" fill="none" stroke="#002140" stroke-linejoin="round"/>
  <path d="M29.23,36.33h-1.51c-.33,0-.67-.31-.55-.78.15-.55,1.43-6,1.6-6.54.13-.42.4-.6.73-.6h3.64c.33,0,.6.27.6.6v6.72c0,.33-.27.6-.6.6h-1.92" fill="none" stroke="#002140" stroke-linejoin="round"/>
  <path d="M14.9,40.89c.47,0,.84.74.84,1.66s-.38,1.66-.84,1.66-.84-.74-.84-1.66.38-1.66.84-1.66Z" fill="none" stroke="#002140" stroke-linejoin="round"/>
  <path d="M19.06,40.89c.47,0,.84.74.84,1.66s-.38,1.66-.84,1.66-.84-.74-.84-1.66.38-1.66.84-1.66Z" fill="none" stroke="#002140" stroke-linejoin="round"/>
  <path d="M37.41,32.1v-3.87h18.05c2.54,0,2.32,2.14,2.32,2.79v1.08h-.55" fill="none" stroke="#002140" stroke-linejoin="round"/>
  <path d="M55.48,32.1h-3.55" fill="none" stroke="#002140" stroke-linejoin="round"/>
  <path d="M42.71,32.1h9.22v2.99" fill="none" stroke="#002140" stroke-linejoin="round"/>
  <path d="M37.41,35.09v-2.99h3.56" fill="none" stroke="#002140" stroke-linejoin="round"/>
  <path d="M51.93,36.68v3.88h-14.52v-3.88" fill="none" stroke="#002140" stroke-linejoin="round"/>
  <path d="M37.41,35.09l3.56-2.99h1.74l-5.3,4.58v-1.59Z" fill="none" stroke="#002140" stroke-linejoin="round"/>
  <path d="M51.93,35.09l3.53-2.98.02-.02h1.75l-1.77,1.52-3.53,3.06v-1.59Z" fill="none" stroke="#002140" stroke-linejoin="round"/>
  <path d="M29.23,36.33c-.07-.3-.1-.65-.1-1.03,0-1.07.22-1.93,1.1-1.93.98,0,1.11.86,1.11,1.93,0,.38-.03.73-.11,1.03-.15.54-.45.9-.99.9s-.86-.36-1-.9Z" fill="none" stroke="#002140" stroke-linejoin="round"/>
  <path d="M12.02,46.88h-.4c-.35,0-.62.28-.62.62v1.35c0,.75.61,1.36,1.36,1.36h9.41c.34,0,.66-.13.9-.34.29-.25.46-.62.46-1.02v-1.35c0-.35-.28-.62-.62-.62h-10.51Z" fill="none" stroke="#002140" stroke-linejoin="round"/>
  <path d="M55.46,46.88h-1.89c-.34,0-.62.28-.62.62v1.84c0,.49.4.88.88.88h1.62c.76,0,1.37-.61,1.37-1.36v-1.35c0-.35-.28-.62-.62-.62h-.74Z" fill="none" stroke="#002140" stroke-linejoin="round"/>
  <path d="M29.49,55.46h-1.97c-2.59,0-4.68-2.1-4.68-4.68v-.57l1.97.04h.03c-.02.18-.03.36-.03.53,0,2.59,2.1,4.68,4.68,4.68h0Z" fill="#2c65b7"/>
  <path d="M29.49,48.73c1.13,0,2.05.91,2.05,2.05s-.92,2.05-2.05,2.05-2.05-.91-2.05-2.05.92-2.05,2.05-2.05Z" fill="#9bc7f9"/>
  <path d="M29.49,46.09c2.59,0,4.68,2.1,4.68,4.68s-2.1,4.68-4.68,4.68-4.68-2.1-4.68-4.68c0-.18.01-.36.03-.53.26-2.34,2.25-4.16,4.65-4.16ZM31.53,50.77c0-1.13-.92-2.05-2.05-2.05s-2.05.91-2.05,2.05.92,2.05,2.05,2.05,2.05-.91,2.05-2.05Z" fill="#173c6e"/>
  <path d="M24.83,50.24c.26-2.34,2.25-4.16,4.65-4.16,2.59,0,4.68,2.1,4.68,4.68s-2.1,4.68-4.68,4.68-4.68-2.1-4.68-4.68c0-.18.01-.36.03-.53Z" fill="none" stroke="#002140" stroke-linejoin="round"/>
  <path d="M24.8,50.24h-1.97v.53c0,2.59,2.1,4.68,4.68,4.68h1.97" fill="none" stroke="#002140" stroke-linejoin="round"/>
  <path d="M31.53,50.77c0,1.13-.92,2.05-2.05,2.05s-2.05-.91-2.05-2.05.92-2.05,2.05-2.05,2.05.91,2.05,2.05Z" fill="none" stroke="#002140" stroke-linejoin="round"/>
  <path d="M47.25,55.46h-1.97c-2.59,0-4.68-2.1-4.68-4.68v-.57l1.97.04h.03c-.02.18-.03.36-.03.53,0,2.59,2.1,4.68,4.68,4.68h0Z" fill="#2c65b7"/>
  <path d="M47.25,48.73c1.13,0,2.05.91,2.05,2.05s-.92,2.05-2.05,2.05-2.05-.91-2.05-2.05.92-2.05,2.05-2.05Z" fill="#9bc7f9"/>
  <path d="M47.25,46.09c2.59,0,4.68,2.1,4.68,4.68s-2.1,4.68-4.68,4.68-4.68-2.1-4.68-4.68c0-.18.01-.36.03-.53.26-2.34,2.25-4.16,4.65-4.16ZM49.29,50.77c0-1.13-.92-2.05-2.05-2.05s-2.05.91-2.05,2.05.92,2.05,2.05,2.05,2.05-.91,2.05-2.05Z" fill="#173c6e"/>
  <path d="M42.59,50.24c.26-2.34,2.25-4.16,4.65-4.16,2.59,0,4.68,2.1,4.68,4.68s-2.1,4.68-4.68,4.68-4.68-2.1-4.68-4.68c0-.18.01-.36.03-.53Z" fill="none" stroke="#002140" stroke-linejoin="round"/>
  <path d="M42.56,50.24h-1.97v.53c0,2.59,2.1,4.68,4.68,4.68h1.97" fill="none" stroke="#002140" stroke-linejoin="round"/>
  <path d="M49.29,50.77c0,1.13-.92,2.05-2.05,2.05s-2.05-.91-2.05-2.05.92-2.05,2.05-2.05,2.05.91,2.05,2.05Z" fill="none" stroke="#002140" stroke-linejoin="round"/>
  <path d="M30.49,9.52c1.96.25,2.58.91,2.58.91l-.33-1.83s1.47.07,2.8.98c.66.44,1.18,1.32,1.27,1.48-.16.02-.31.04-.46.07-2.16.34-3.82,1.18-5.15,2.35-.06-.28-.29-.55-.63-.71h0c-.31-.16-.73-.21-1.2-.06-.07.02-.13.05-.2.07-.83.36-.98,1.41-.98,1.41,0,0-.31-.18-.73-.2-.11,0-.23,0-.34.03v-.05s-2.25-1.47-2.25-1.47c0,0,.71-.63,1.74-.94,1.41-.42,2.68-.05,2.68-.05l-1.49-1.67s1.31-.51,2.68-.33h0Z" fill="#03d47c"/>
  <path d="M44.19,17.88c.32-.44.76-.68.97-.52.22.16.13.64-.2,1.09-.32.44-.76.68-.97.52-.22-.16-.13-.64.2-1.09Z" fill="#002140"/>
  <path d="M41.71,12.9c.22.16.13.64-.2,1.09-.33.44-.76.68-.97.52-.22-.16-.13-.64.2-1.09.32-.44.76-.68.97-.52Z" fill="#002140"/>
  <path d="M38.12,18.66c.22.16.13.64-.2,1.09-.33.44-.76.68-.97.52-.22-.16-.13-.64.2-1.09.33-.44.76-.68.97-.52h0Z" fill="#002140"/>
  <path d="M36.82,11.06c-.1-.16-.62-1.03-1.27-1.48,0,0-.12-1.14.93-1.46,1.3-.4,1.79.61,1.79.61,0,0,.45-.74,1.34-.73,1.22.03,1.19.94,1.19.94,0,0,.7-.75,1.67-.18.96.57.58,1.64.58,1.64,0,0,.63-.37,1.34.1.98.65.25,1.71.25,1.71-.8-.41-1.72-.74-2.78-.96-.92-.19-1.93-.29-3.07-.29-.7,0-1.35.04-1.97.12h0Z" fill="#f25730"/>
  <path d="M35.3,13.41c.22.16.13.64-.2,1.09-.32.44-.76.68-.97.52-.22-.16-.13-.64.2-1.09.32-.44.76-.68.97-.52Z" fill="#002140"/>
  <path d="M31.03,18.58c.22.16.13.64-.2,1.09-.33.44-.76.68-.97.52-.22-.16-.13-.64.2-1.09.33-.44.76-.68.97-.52Z" fill="#002140"/>
  <path d="M29.39,12.71c.47-.15.88-.1,1.2.06-.33-.15-.74-.2-1.2-.06Z" fill="#722b03"/>
  <path d="M35.1,14.5c.33-.44.41-.93.2-1.09-.22-.16-.65.08-.97.52-.33.44-.41.93-.2,1.09.22.16.65-.08.97-.52ZM44.96,18.45c.33-.44.41-.93.2-1.09-.22-.16-.65.08-.97.52-.33.44-.41.93-.2,1.09.22.16.65-.08.97-.52ZM29.85,20.18c.22.16.65-.08.97-.52.32-.44.41-.93.2-1.09-.22-.16-.65.07-.97.52-.32.44-.41.93-.2,1.09ZM41.51,13.99c.33-.44.41-.93.2-1.09-.22-.16-.65.08-.97.52-.33.44-.41.93-.2,1.09.22.16.65-.08.97-.52ZM44.62,12.2c2.68,1.38,4.03,3.68,4.63,5.73.94,3.19-.03,4.08-1.33,4.08h-21.6c-2.37,0-2.11-1.29-2.04-1.53v-.04s.48.2,1.31.13c1.56-.14,2.05-2.09,3.21-4.08.66-1.13,1.43-2.14,2.37-2.98.01-.01.02-.02.04-.04,1.33-1.18,2.99-2,5.15-2.35.15-.02.3-.05.46-.07.62-.08,1.27-.12,1.97-.12,1.13,0,2.15.11,3.07.29,1.05.22,1.97.55,2.78.97h0ZM36.95,20.26c.22.16.65-.08.97-.52.32-.44.41-.93.2-1.09-.22-.16-.65.07-.97.52-.32.44-.41.93-.2,1.09h0Z" fill="#fed607"/>
  <path d="M24.29,20.44v.04h-.03s-.73-.45-.4-1.42c.25-.76,1.01-.69,1.01-.69,0,0-.91-.58-.28-1.6.47-.76,1.46-.55,1.46-.55,0,0-.5-.98.31-1.77.25-.24.52-.37.76-.42.12-.02.24-.03.34-.03.42.01.73.2.73.2,0,0,.14-1.05.98-1.41.07-.03.13-.05.2-.07.45-.14.87-.09,1.2.06h0c.31.16.51.42.56.71l.03.03c-.93.83-1.7,1.84-2.37,2.98-1.16,1.99-1.65,3.94-3.21,4.08-.83.07-1.3-.13-1.3-.13h0Z" fill="#722b03"/>
  <path d="M31.17,13.51c-.93.84-1.7,1.84-2.37,2.98-1.16,1.99-1.65,3.94-3.21,4.08-.83.07-1.3-.13-1.3-.13v.04c-.08.24-.34,1.53,2.03,1.53h21.6c1.31,0,2.27-.89,1.33-4.08-.6-2.05-1.95-4.35-4.63-5.73-.8-.42-1.72-.75-2.78-.97-.92-.19-1.93-.29-3.07-.29-.7,0-1.35.04-1.97.12-.16.02-.31.04-.46.07-2.16.34-3.82,1.18-5.15,2.35-.02.01-.03.02-.04.04h0Z" fill="none" stroke="#002140" stroke-linejoin="round"/>
  <path d="M31.22,13.52s0-.03,0-.04c-.06-.28-.29-.55-.63-.71h0c-.33-.15-.74-.2-1.2-.06-.07.02-.13.05-.2.07-.83.36-.98,1.41-.98,1.41,0,0-.31-.18-.73-.2-.11,0-.23,0-.34.03-.24.05-.51.17-.76.42-.82.78-.31,1.77-.31,1.77,0,0-.99-.21-1.46.55-.63,1.02.28,1.6.28,1.6,0,0-.76-.07-1.01.69-.33.98.4,1.42.4,1.42" fill="none" stroke="#002140" stroke-linejoin="round"/>
  <path d="M27.12,13.98l-2.25-1.47s.71-.63,1.74-.94c1.41-.42,2.68-.05,2.68-.05l-1.49-1.67s1.31-.51,2.68-.33c1.96.25,2.58.91,2.58.91l-.33-1.83s1.47.07,2.8.98c.66.44,1.18,1.32,1.27,1.48,0,.02.01.02.02.02" fill="none" stroke="#002140" stroke-linejoin="round"/>
  <path d="M35.55,9.58s-.12-1.13.93-1.46c1.3-.4,1.79.61,1.79.61,0,0,.45-.74,1.34-.73,1.22.03,1.19.94,1.19.94,0,0,.7-.75,1.67-.18.96.57.58,1.64.58,1.64,0,0,.63-.37,1.34.1.98.65.25,1.71.25,1.71" fill="none" stroke="#002140" stroke-linejoin="round"/>
</svg>