<svg width="48" height="48" viewBox="0 0 48 48" fill="none" xmlns="http://www.w3.org/2000/svg">
<path d="M32.6289 13.1929H7.08522C5.76605 13.1929 4.69666 14.2623 4.69666 15.5814V28.6709C4.69666 29.9901 5.76605 31.0595 7.08522 31.0595H32.6289C33.9481 31.0595 35.0175 29.9901 35.0175 28.6709V15.5814C35.0175 14.2623 33.9481 13.1929 32.6289 13.1929Z" fill="#E4BC07"/>
<path d="M32.2034 13.1135H7.42201C5.84497 13.1135 4.56653 14.392 4.56653 15.969V28.1151C4.56653 29.6922 5.84497 30.9706 7.42201 30.9706H32.2034C33.7804 30.9706 35.0589 29.6922 35.0589 28.1151V15.969C35.0589 14.392 33.7804 13.1135 32.2034 13.1135Z" stroke="#002140" stroke-width="0.857134" stroke-linecap="round" stroke-linejoin="round"/>
<path d="M34.8397 16.4741H4.61414V19.1454H34.8397V16.4741Z" fill="#002140" stroke="#002140" stroke-width="0.857134" stroke-linecap="round" stroke-linejoin="round"/>
<path d="M41.251 17.4004L15.7076 17.5207C14.3885 17.5269 13.3241 18.6014 13.3303 19.9205L13.392 33.0099C13.3982 34.329 14.4727 35.3934 15.7918 35.3871L41.3352 35.2668C42.6544 35.2605 43.7187 34.1861 43.7125 32.867L43.6508 19.7776C43.6446 18.4585 42.5702 17.3941 41.251 17.4004Z" fill="#FF7101"/>
<path d="M40.825 17.32L16.0439 17.4367C14.4669 17.4442 13.1945 18.7286 13.2019 20.3056L13.2592 32.4516C13.2666 34.0286 14.5511 35.3011 16.1281 35.2936L40.9092 35.1768C42.4862 35.1694 43.7586 33.885 43.7512 32.3079L43.6939 20.162C43.6865 18.5849 42.4021 17.3125 40.825 17.32Z" stroke="#002140" stroke-width="0.857134" stroke-linecap="round" stroke-linejoin="round"/>
<path d="M16.1378 32.3806L20.2606 32.3616" stroke="#002140" stroke-width="0.857134" stroke-linecap="round" stroke-linejoin="round"/>
<path d="M22.1504 32.3518L26.2732 32.3328" stroke="#002140" stroke-width="0.857134" stroke-linecap="round" stroke-linejoin="round"/>
<path d="M22.3251 27.286L22.3092 23.9255C22.3092 23.7508 21.9757 23.6111 21.5691 23.6111L18.8852 23.6238C18.6565 23.6238 18.4405 23.6714 18.3008 23.7477L17.3892 24.2559C17.2875 24.313 17.2335 24.3797 17.2335 24.4496L17.2462 26.8922C17.2462 26.9557 17.2939 27.0192 17.3796 27.0732L18.0657 27.4925C18.2055 27.5783 18.4342 27.6259 18.6756 27.6259L21.5914 27.6069C21.9979 27.6069 22.3283 27.4607 22.3251 27.286Z" fill="#FBCCFF"/>
<path d="M38.6453 23.2634L29.6915 23.3056C28.5706 23.3109 27.6661 24.2239 27.6714 25.3448C27.6767 26.4657 28.5897 27.3701 29.7106 27.3649L38.6645 27.3227C39.7854 27.3174 40.6898 26.4044 40.6845 25.2835C40.6792 24.1626 39.7663 23.2581 38.6453 23.2634Z" fill="#002140"/>
</svg>
