<?xml version="1.0" encoding="utf-8"?>
<!-- Generator: Adobe Illustrator 26.5.0, SVG Export Plug-In . SVG Version: 6.00 Build 0)  -->
<svg version="1.1" id="Layer_1" xmlns="http://www.w3.org/2000/svg" xmlns:xlink="http://www.w3.org/1999/xlink" x="0px" y="0px"
	 viewBox="0 0 68 68" style="enable-background:new 0 0 68 68;" xml:space="preserve">
<style type="text/css">
	.st0{fill:#DEB606;}
	.st1{fill:#F8D004;}
	.st2{fill:#FFE789;}
	.st3{fill:#FFECAC;}
	.st4{fill:#002140;}
</style>
<g>
	<path class="st0" d="M55.3,15.2l-3-0.9l-2.7-2.9l-8.6,3l-6.7-6.2l-6.7,6.1l-8.5-3.2c0,0-2,2.9-3.2,3.2c-1.2,0.3-3.2,1.1-3.2,1.1
		S8.4,59.4,33.5,59.1C58.7,58.8,56.6,21.1,55.3,15.2L55.3,15.2z"/>
</g>
<g>
	<path class="st1" d="M18.1,12.6c0,0-3.2,40.9,15.6,41C48.5,53.8,50.5,28,50.9,24.4c0.5-3.6,0-10.8,0-10.8l-1.4-2.3l-8.6,3l-6.7-6.2
		l-6.7,6.1l-8.5-3.2L18.1,12.6L18.1,12.6z"/>
</g>
<g>
	<path class="st2" d="M34.3,45.4c6.4,0,11.6-6.1,11.6-13.6s-5.2-13.6-11.6-13.6s-11.6,6.1-11.6,13.6S27.9,45.4,34.3,45.4z"/>
</g>
<g>
	<path class="st1" d="M36.7,27.6l-2.1-3.9l-1.2,0.5l-2.4,4l-4.6,0.7l0.2,1.3l2.7,2.8l-0.1,4.7l0.8,1l4.3-1.7l3.7,1.6l1.3-0.7
		L39,33.2l2.9-3.4l-0.4-1.1L36.7,27.6z"/>
</g>
<g>
	<path class="st2" d="M44.4,13c-0.3,1.3,0.4,2.7,1.4,3.6c1,0.9,2.2,1.5,3.4,2.2c1.2,0.7,2.3,1.5,2.9,2.7c0.7,1.3,0.6,2.9,0.9,4.4
		c0.3,1.5,1.5,3,3,2.8l-0.6-13.5c0,0-3.2-0.8-3.9-1.7c-0.7-0.9-1.9-2.1-1.9-2.1L44.4,13L44.4,13z"/>
</g>
<g>
	<path class="st2" d="M13.6,35.3c-0.1-2.3,4.5,0.4,5.8,2.2c1.3,1.9,1.7,4.2,2.3,6.3c1,3.1,2.6,6.2,5.4,7.8c1.4,0.8,3.2,1.4,4.1,2.7
		c0.9,1.4,0.7,3.3,0.4,5C31.7,59.4,14.4,56.4,13.6,35.3L13.6,35.3z"/>
</g>
<g>
	<path class="st3" d="M23.3,26.2c-0.8,1.9,4.1-0.2,5.7-1.4c0.9-0.7,1.7-1.5,2.5-2.4c1.2-1.4,2.1-3,3.6-4
		C35.1,18.3,27.2,16.8,23.3,26.2L23.3,26.2z"/>
</g>
<g>
	<path class="st4" d="M34.4,59.6c-5.7,0-10.4-2-14-6c-5.7-6.3-7.6-16.4-8.2-23.9c-0.7-8,0-14.6,0-14.7c0-0.3,0.3-0.5,0.5-0.4
		c0.3,0,0.5,0.3,0.4,0.5c0,0.3-2.6,26.1,7.9,37.8c3.4,3.8,7.8,5.7,13.2,5.7c0.3,0,0.5,0.2,0.5,0.5S34.7,59.6,34.4,59.6z"/>
</g>
<g>
	<path class="st4" d="M34.1,59.6c-0.3,0-0.5-0.2-0.5-0.5s0.2-0.5,0.5-0.5c5.4,0,9.8-1.9,13.2-5.7c10.5-11.7,7.9-37.5,7.9-37.8
		c0-0.3,0.2-0.5,0.4-0.5c0.3,0,0.5,0.2,0.5,0.4c0,0.1,0.7,6.7,0,14.7c-0.6,7.4-2.5,17.6-8.2,23.9C44.4,57.6,39.7,59.6,34.1,59.6z"/>
</g>
<g>
	<path class="st4" d="M12.8,15.6c-0.3,0-0.5-0.2-0.5-0.5s0.2-0.5,0.5-0.5c2.7,0,4.4-1.9,5.2-3.1c0.4-0.7,1.3-1,2.1-0.6l7,2.9
		c0.3,0.1,0.6,0.1,0.8-0.1l6-5.8c0.2-0.2,0.5-0.2,0.7,0c0.2,0.2,0.2,0.5,0,0.7l-6,5.8c-0.5,0.5-1.2,0.6-1.8,0.3l-7-2.9
		c-0.3-0.1-0.7,0-0.9,0.3C17.9,13.4,16,15.6,12.8,15.6z"/>
</g>
<g>
	<path class="st4" d="M55.8,15.6c-3.2,0-5.1-2.2-6-3.6c-0.2-0.3-0.6-0.4-0.9-0.3l-7,2.9c-0.6,0.3-1.4,0.1-1.8-0.3l-6-5.8
		c-0.2-0.2-0.2-0.5,0-0.7c0.2-0.2,0.5-0.2,0.7,0l6,5.8c0.2,0.2,0.5,0.3,0.8,0.1l7-2.9c0.8-0.3,1.6-0.1,2.1,0.6
		c0.8,1.2,2.4,3.1,5.2,3.1c0.3,0,0.5,0.2,0.5,0.5S56.1,15.6,55.8,15.6z"/>
</g>
<g>
	<path class="st4" d="M33.9,54.4c-3.5,0-6.5-1.3-8.9-3.9c-9.5-10.2-7.7-36.5-7.6-37.6c0-0.3,0.3-0.5,0.5-0.5c0.3,0,0.5,0.3,0.5,0.5
		c0,0.3-1.9,27,7.3,36.9c2.2,2.4,5,3.6,8.2,3.6c3.2,0,6-1.2,8.3-3.7c9.4-9.8,8.3-36.1,8.3-36.4c0-0.3,0.2-0.5,0.5-0.5
		c0.3,0,0.5,0.2,0.5,0.5c0,1.1,1.1,27-8.6,37.1C40.5,53.1,37.4,54.4,33.9,54.4z"/>
</g>
<g>
	<path class="st4" d="M33.9,45.8c-6.9,0-12.5-6.4-12.5-14.2S27,17.5,33.9,17.5s12.5,6.4,12.5,14.2S40.8,45.8,33.9,45.8z M33.9,18.5
		c-6.3,0-11.5,5.9-11.5,13.2c0,7.3,5.2,13.2,11.5,13.2c6.3,0,11.5-5.9,11.5-13.2C45.4,24.4,40.3,18.5,33.9,18.5z"/>
</g>
<g>
	<path class="st4" d="M38.5,39.3c-0.2,0-0.5-0.1-0.7-0.2l-3.4-1.8c-0.1-0.1-0.3-0.1-0.4,0l-3.4,1.8C30,39.4,29.4,39.3,29,39
		c-0.5-0.3-0.7-0.9-0.6-1.5l0.7-3.8c0-0.2,0-0.3-0.1-0.4l-2.8-2.7c-0.4-0.4-0.5-1-0.4-1.5c0.2-0.5,0.6-0.9,1.2-1l3.8-0.6
		c0.2,0,0.3-0.1,0.4-0.3l1.7-3.5c0.3-0.5,0.8-0.8,1.3-0.8c0,0,0,0,0,0c0.6,0,1.1,0.3,1.3,0.8c0,0,0,0.1,0,0.1l1.7,3.4
		c0.1,0.1,0.2,0.2,0.4,0.3l3.8,0.6c0.6,0.1,1,0.5,1.2,1c0.2,0.5,0,1.1-0.4,1.5l-2.8,2.7c-0.1,0.1-0.2,0.3-0.1,0.4l0.7,3.8
		c0.1,0.6-0.1,1.1-0.6,1.5C39.1,39.2,38.8,39.3,38.5,39.3z M34.2,24c-0.2,0-0.4,0.1-0.4,0.3L32,27.7c-0.2,0.4-0.6,0.7-1.1,0.8
		l-3.8,0.6c-0.2,0-0.3,0.1-0.4,0.3c-0.1,0.2,0,0.4,0.1,0.5l2.8,2.7c0.3,0.3,0.5,0.8,0.4,1.3l-0.7,3.8c0,0.2,0,0.4,0.2,0.5
		c0.2,0.1,0.3,0.1,0.5,0l3.4-1.8c0.4-0.2,0.9-0.2,1.4,0l3.4,1.8c0.2,0.1,0.4,0.1,0.5,0c0.2-0.1,0.2-0.3,0.2-0.5l-0.7-3.8
		c-0.1-0.5,0.1-1,0.4-1.3l2.8-2.7c0.2-0.2,0.2-0.4,0.1-0.5c-0.1-0.2-0.2-0.3-0.4-0.3l-3.8-0.6c-0.5-0.1-0.9-0.4-1.1-0.8l-1.7-3.5
		c0,0,0,0,0-0.1C34.5,24.1,34.3,24,34.2,24C34.2,24,34.2,24,34.2,24z"/>
</g>
</svg>
