<svg xmlns="http://www.w3.org/2000/svg" xmlns:xlink="http://www.w3.org/1999/xlink" id="Layer_1" x="0" y="0" version="1.1" viewBox="0 0 68 68" style="enable-background:new 0 0 68 68" xml:space="preserve"><style type="text/css">.st0{fill:#ffd7b0}.st1{fill:#e4bc07}.st2{fill:#ffed8f}.st3{fill:none;stroke:#002140;stroke-width:.8563;stroke-linecap:round;stroke-linejoin:round}</style><path d="M30.437,20.394L19.721,17.41l-8.508,9.724l4.529,10.716l26.074,22.87l15.138-16.683L30.437,20.394z M21.486,30.381c-1.648,0-2.984-1.335-2.984-2.984c0-1.648,1.335-2.984,2.984-2.984c1.648,0,2.984,1.335,2.984,2.984	C24.47,29.045,23.134,30.381,21.486,30.381z" class="st0"/><path d="M51.319,44.595l-3.317-2.874l-9.72,10.939l3.203,2.651L51.319,44.595z" class="st1"/><path d="M15.225,20.984c0,0-1.988,0.443-2.211,1.399c-0.223,0.956,1.585,3.53,3.61,4.642	c2.025,1.109,4.272,1.842,5.155,0.809c0.882-1.032-0.296-3.42-0.296-3.42s-1.692,2.314-3.976,0.546s-2.284-2.651-1.768-3.167	c0.516-0.516-0.516-0.809-0.516-0.809H15.225z" class="st2"/><path d="M15.961,21.499l2.431-2.597c0,0-0.882-8.342,6.354-8.452c4.915-0.11,11.382,4.585,16.85,4.529	c5.468-0.057,6.187-0.996,6.187-0.996s0.606-2.098-0.606-2.098s-2.321,0.883-5.028,0.496c-2.707-0.386-13.48-4.199-16.297-4.252	C23.034,8.075,15.299,8.462,15.961,21.499z" class="st2"/><path d="M15.495,22.195l4.489-5.022l10.383,3.307l26.357,23.57L41.796,60.74l-26.354-23.57L11,27.22l2.454-2.74" class="st3"/><path d="M19.282,25.464c1.059-1.182,2.874-1.285,4.059-0.226c1.182,1.059,1.285,2.874,0.226,4.059	c-1.059,1.182-2.874,1.285-4.059,0.226c-0.43-0.383-0.716-0.869-0.859-1.389" class="st3"/><path d="M48.035,41.33l-9.877,11.043l3.294,2.946l9.877-11.043L48.035,41.33z" class="st3"/><path d="M26.997,42.811l5.671-6.34" class="st3"/><path d="M29.635,45.168l5.671-6.34" class="st3"/><path d="M21.463,24.6c0.749,1.039,0.996,2.071,0.553,2.774c-0.769,1.222-3.333,0.992-5.721-0.513	c-2.391-1.505-3.706-3.716-2.934-4.938c0.47-0.749,1.612-0.952,2.977-0.653" class="st3"/><path d="M20.917,25.122c-0.49,0.776-2.081,0.649-3.556-0.28c-1.475-0.929-2.274-2.311-1.788-3.087" class="st3"/><path d="M15.852,21.279c0,0-1.988-10.716,6.52-12.927c8.508-2.211,16.683,6.85,24.859,3.313" class="st3"/><path d="M18.373,18.976c-0.423-2.394,0.333-7.739,5.997-8.465c5.661-0.726,14.905,6.953,23.47,3.583" class="st3"/><path d="M47.84,14.097c0,0,1.049-1.602-0.606-2.431" class="st3"/></svg>