<svg xmlns="http://www.w3.org/2000/svg" xmlns:xlink="http://www.w3.org/1999/xlink" xml:space="preserve" id="Layer_1" x="0" y="0" viewBox="0 0 68 68"><style>.st1{fill:#fbccff}.st2{fill:none;stroke:#002140;stroke-width:1;stroke-linecap:round;stroke-linejoin:round}.st3{fill:#fffaf0}.st4{fill:#fff2b2}.st5{fill:#00b268}.st6{fill:#8eecc4}.st7{fill:#085239}.st8{fill:#fed607}</style><defs><path id="SVGID_1_" d="M0 0h68v68H0z"/></defs><clipPath id="SVGID_00000006682679630598397630000016367162915341145483_"><use xlink:href="#SVGID_1_" style="overflow:visible"/></clipPath><g style="clip-path:url(#SVGID_00000006682679630598397630000016367162915341145483_)"><path d="m10.436 43.988-4.283-2.759-.703.851.454 4.673-4.463 3.924 1.033.751 4.549 1.407 1.872 5.053 1.136-.358 3.134-3.9 5.006-.65.237-.885-3.053-4.515.97-5.049-.768-.3z" class="st1"/><path d="m6.936 41.407 3.742 2.5c.228.152.52.182.776.079l4.181-1.666a.838.838 0 0 1 1.116 1.005l-1.221 4.333a.83.83 0 0 0 .161.763l2.876 3.459a.837.837 0 0 1-.61 1.371l-4.499.177a.84.84 0 0 0-.676.39l-2.403 3.807a.836.836 0 0 1-1.492-.157l-1.558-4.22a.83.83 0 0 0-.58-.521l-4.363-1.109a.838.838 0 0 1-.312-1.469l3.533-2.788a.84.84 0 0 0 .319-.712l-.294-4.49a.839.839 0 0 1 1.301-.751z" class="st2"/><path d="m54.712 26.073-.072-3.245s-1.21-2.73-1.804-2.815c-.593-.084-19.336-6.637-19.336-6.637s-1.732.434-2.381.577c-.649.144-17.24 5.845-17.24 5.845s-1.588.721-2.019 2.524-.577 4.184-.577 4.184-.434.434-.505 1.442c-.072 1.011.072 21.353.072 21.353s-.144 1.226 1.37 1.298c1.517.072 42.853 0 42.853 0s.792-.649.792-1.442.287-22.149.287-22.149-.649-1.083-1.442-.939z" class="st3"/><path d="m23.331 37.039 1.226-10.678-12.987.072s-.793.215-.793.864v.649l12.554 9.09zm26.548-5.336 6.275-4.69s-.362-1.155-1.441-.939c-1.08.215-20.026.137-20.026.137l.594 3.102z" class="st4"/><path d="m49.553 22.962-12.42.349-2.143-9.341-1.393-2.678-21.523-.323s2.678 9.745 2.462 13.92-.607 5.287-.607 5.287l9.321 7.081 17.573.336.372.789h18.418s.427-8.137-1.605-11.135-4.175-3.855-4.175-3.855l-4.282-.427v-.003z" class="st5"/><path d="M18.768 18.037a1.875 1.875 0 1 0 0-3.75 1.875 1.875 0 0 0 0 3.75m11.558-.339c1.118 0 2.025-.791 2.025-1.768s-.907-1.768-2.025-1.768c-1.119 0-2.025.792-2.025 1.768s.906 1.768 2.025 1.768m.382 5.799s-1.712-2.355-4.282-1.712c-2.57.642-4.713 5.248-4.817 7.068-.108 1.82 1.618 6.849 1.618 6.849l1.06-1.389s1.07-8.78 6.425-10.815zm20.022.107-11.35-.108s3.105 3.213 6.317 2.997c3.213-.214 5.033-2.889 5.033-2.889m-5.62 13.062a2.087 2.087 0 1 0 0-4.174 2.087 2.087 0 0 0 0 4.174m9.755-.228a2.087 2.087 0 1 0 0-4.174 2.087 2.087 0 0 0 0 4.174" class="st6"/><path d="m23.8 36.856 17.097.036s.792-13.372-7.622-13.395c-10.271.444-9.478 13.356-9.478 13.356z" class="st7"/><path d="M14.205 26.246h-2.463c-.623 0-1.128.506-1.128 1.128v22.191c0 .623.505 1.128 1.128 1.128h43.156c.623 0 1.128-.506 1.128-1.128v-10.89M16.475 50.639l6.781-13.382m20.119 1.5 5.62 11.852M35.362 13.974l16.878 5.959c1.429.506 2.387 1.826 2.4 3.314l.01.985M11.568 25.93v-2.864c0-1.507.969-2.851 2.42-3.353l.131-.046" class="st2"/><path d="m10.777 28.167 12.554 8.871h17.498" class="st2"/><path d="M36.588 23.148c-.059-3.708-.711-7.971-2.668-12.071l-22.005-.483c3.539 7.41 2.815 15.355 2.019 19.582" class="st2"/><path d="M23.8 36.856c0-9.269 4.263-13.545 8.813-13.545s8.242 4.853 8.242 10.841c0 .287.075 4.39.075 4.39h18.688s-.075-4.103-.075-4.39c0-5.988-3.689-10.841-8.242-10.841H32.612m-13.897-5.166c1.241 0 2.247-.959 2.247-2.143s-1.006-2.143-2.247-2.143-2.247.959-2.247 2.143 1.006 2.143 2.247 2.143m11.566-.108c1.241 0 2.247-.959 2.247-2.143s-1.006-2.143-2.247-2.143-2.247.959-2.247 2.143 1.006 2.143 2.247 2.143" class="st2"/><path d="M45.29 36.572c1.241 0 2.247-.959 2.247-2.143s-1.006-2.143-2.247-2.143-2.247.959-2.247 2.143c-.001 1.184 1.006 2.143 2.247 2.143m9.576-.078c1.241 0 2.247-.959 2.247-2.143s-1.006-2.143-2.247-2.143-2.247.959-2.247 2.143c-.001 1.183 1.006 2.143 2.247 2.143m-31.21-.649c-1.729-1.641-2.159-4.445-2.159-5.975 0-4.406 2.564-7.978 5.727-7.978 1.187 0 2.29.502 3.203 1.363m20.192.089a3.1 3.1 0 0 1-.316 1.008c-1.204 2.355-5.166 2.733-8.852.848a11.2 11.2 0 0 1-2.427-1.663" class="st2"/><path d="m60.287 15.914-2.33-4.531-1.038.386-1.94 4.274-5.827 1.167.515 1.163 3.239 3.497-.909 5.312 1.167.258 4.664-1.815 4.66 1.944.648-.648-.39-5.437 3.368-3.887-.519-.648z" class="st8"/><path d="m58.415 11.801 1.99 4.035a.84.84 0 0 0 .632.457l4.453.648c.687.101.96.944.464 1.428l-3.224 3.142a.83.83 0 0 0-.242.741l.761 4.434a.837.837 0 0 1-1.214.882l-3.985-2.096a.84.84 0 0 0-.781 0l-3.985 2.096a.837.837 0 0 1-1.214-.882l.761-4.434a.83.83 0 0 0-.242-.741l-3.224-3.142a.838.838 0 0 1 .464-1.428l4.453-.648a.85.85 0 0 0 .632-.457l1.99-4.035a.84.84 0 0 1 1.503 0z" class="st2"/></g></svg>