<svg xmlns="http://www.w3.org/2000/svg" xml:space="preserve" id="Layer_1" x="0" y="0" viewBox="0 0 68 68"><style>.st0{fill:#e4bc07}.st1{fill:#002140}.st2{fill:#fffaf0}.st3{fill:#fed607}.st4,.st5{stroke:#002140}.st4{fill:none;stroke-miterlimit:10}.st5{fill:#50eef6}</style><path d="M23.578 17.636c.906 0 1.733.342 2.357.903l.089.111a4.14 4.14 0 0 1-2.463.914c-.054.004-.102.004-.156.004v.011c-1.019.096-1.366.832-1.366 1.581 0 .864.539 1.589 1.514 1.626a7.4 7.4 0 0 0 3.464-.947l.011.02a3.52 3.52 0 0 1-3.452 2.808 3.52 3.52 0 0 1-3.523-3.516 3.52 3.52 0 0 1 3.523-3.516zm23.989 4.204.011.02a3.52 3.52 0 0 1-3.452 2.808c-1.946 0-3.523-1.574-3.523-3.516s1.577-3.516 3.523-3.516c.906 0 1.733.342 2.357.903l.089.111a4.14 4.14 0 0 1-2.463.914c-.054.004-.102.004-.156.004v.011c-1.019.096-1.366.832-1.366 1.581 0 .864.539 1.589 1.514 1.626a7.4 7.4 0 0 0 3.464-.947z" class="st0"/><path d="M48.151 15.38q0-.15-.011-.3c-.152-2.173-1.966-3.892-4.186-3.892s-3.875 1.57-4.157 3.61v.287H36.55v-.27C36.846 11.004 40.039 8 43.937 8s7.251 3.152 7.403 7.099q.006.145.006.292a7.39 7.39 0 0 1-3.778 6.446 7.4 7.4 0 0 1-3.464.947c-.975-.039-1.514-.762-1.514-1.626 0-.751.347-1.485 1.366-1.581v-.011c.054 0 .102 0 .156-.004a4.15 4.15 0 0 0 2.463-.914 4.16 4.16 0 0 0 1.579-3.27zm-28.874-.772v.477h-3.291q.006-.135.015-.27c.296-3.81 3.491-6.814 7.387-6.814s7.242 3.146 7.403 7.087q.006.15.006.305a7.39 7.39 0 0 1-3.779 6.446 7.4 7.4 0 0 1-3.464.947c-.975-.039-1.514-.762-1.514-1.626 0-.751.347-1.485 1.366-1.581v-.011c.054 0 .102 0 .156-.004a4.15 4.15 0 0 0 2.463-.914 4.16 4.16 0 0 0 1.568-3.562 4.193 4.193 0 0 0-4.186-3.897 4.2 4.2 0 0 0-4.127 3.42z" class="st1"/><path d="M54.125 26.251h.413v26.68a3.53 3.53 0 0 1-3.523 3.516H16.617a3.53 3.53 0 0 1-3.523-3.516v-26.68z" class="st2"/><path d="M51.366 15.1c1.775.179 3.173 1.685 3.173 3.501v7.65H44.126v-1.585a3.52 3.52 0 0 0 3.452-2.808l-.011-.02a7.39 7.39 0 0 0 3.779-6.446q-.002-.149-.006-.292z" class="st3"/><path d="M48.151 15.38a4.17 4.17 0 0 1-1.579 3.27l-.089-.111a3.52 3.52 0 0 0-2.357-.903 3.52 3.52 0 0 0-3.523 3.516 3.52 3.52 0 0 0 3.523 3.516v1.585H23.578v-1.585a3.52 3.52 0 0 0 3.452-2.808l-.011-.02a7.39 7.39 0 0 0 3.779-6.446q-.002-.154-.006-.305l.126-.004h17.129l.094-.005q.012.15.011.3z" class="st3"/><path d="M23.578 26.251H13.094v-7.65a3.53 3.53 0 0 1 3.523-3.516H27.59q.012.145.011.292a4.17 4.17 0 0 1-1.579 3.27l-.089-.111a3.52 3.52 0 0 0-2.357-.903c-1.946 0-3.523 1.574-3.523 3.516s1.577 3.516 3.523 3.516v1.585h.002z" class="st3"/><path d="M30.916 15.086h17.129m-31.958 0h11.516M16.617 56.447a3.53 3.53 0 0 1-3.523-3.516V18.602a3.53 3.53 0 0 1 3.523-3.516" class="st4"/><path d="M51.296 15.1c1.816.179 3.243 1.683 3.243 3.499v34.316c0 1.933-1.62 3.514-3.601 3.514H15.995M13 26.251h41.126M15.98 15.394c0-.081 0-.167.005-.25-.004-.02 0-.039 0-.059q.006-.135.015-.27m0 .002c.296-3.812 3.491-6.816 7.387-6.816s7.242 3.146 7.403 7.087q.006.15.006.305a7.39 7.39 0 0 1-3.779 6.446 7.4 7.4 0 0 1-3.464.947q-.084.005-.167.004" class="st4"/><path d="M19.247 14.799q.013-.096.03-.19a4.2 4.2 0 0 1 8.324.769 4.17 4.17 0 0 1-1.579 3.27 4.14 4.14 0 0 1-2.463.914c-.054.004-.102.004-.156.004m.436 3.214a2 2 0 0 1-.167.009q-.061.001-.117-.004c-.975-.039-1.514-.762-1.514-1.626 0-.751.347-1.485 1.366-1.581q.075-.009.156-.011m12.987-4.75c.297-3.812 3.489-6.816 7.387-6.816s7.251 3.152 7.403 7.099q.006.145.006.292a7.39 7.39 0 0 1-3.778 6.446 7.4 7.4 0 0 1-3.464.947q-.083.005-.167.004" class="st4"/><path d="M39.797 14.799c.282-2.04 2.037-3.61 4.157-3.61s4.034 1.716 4.186 3.891q.012.15.011.3a4.17 4.17 0 0 1-1.579 3.27 4.14 4.14 0 0 1-2.463.914c-.054.004-.102.004-.156.004m.436 3.212a2 2 0 0 1-.167.009q-.062.001-.117-.004c-.975-.039-1.514-.762-1.514-1.626 0-.751.347-1.485 1.366-1.581q.075-.009.156-.011" class="st4"/><path d="m34.69 37.605-.006-.002c-.717-.213-1.254-.421-1.612-.702-.322-.254-.51-.574-.51-1.1 0-.563.211-.957.527-1.219.328-.272.811-.434 1.389-.434.544 0 .991.169 1.345.484.36.32.657.819.837 1.527l.01.04.017.038.036.083c.082.189.198.459.351.682.182.264.496.579.987.579.572 0 .939-.423 1.138-.882.202-.466.299-1.098.299-1.835 0-.759-.12-1.55-.369-2.171-.23-.575-.67-1.228-1.422-1.228-.439 0-.798.209-1.037.54a6 6 0 0 0-.698-.277l.105-.738.001-.011.001-.011q.011-.112.028-.233l.009-.071c.012-.094.028-.218.028-.32 0-.253-.053-.555-.274-.793-.228-.245-.542-.325-.851-.325-.368 0-.699.131-.941.423-.22.264-.328.615-.386.98l-.001.009-.109.784c-2.717.224-5.062 2.156-5.062 5.148 0 1.447.558 2.531 1.42 3.333.845.786 1.964 1.283 3.08 1.623l.005.002c.711.208 1.258.445 1.624.757.341.29.538.654.538 1.194 0 .562-.215.986-.556 1.278-.349.298-.862.483-1.485.483-1.2 0-2.249-.864-2.696-2.12-.031-.088-.065-.191-.101-.3-.088-.266-.189-.573-.301-.815a1.9 1.9 0 0 0-.342-.531.95.95 0 0 0-.685-.307c-.557 0-.941.437-1.161.92-.23.506-.36 1.213-.36 2.096 0 .935.159 1.79.437 2.43.139.32.318.608.543.824.228.218.524.38.874.38.46 0 .821-.224 1.066-.552.375.176.808.339 1.271.46l-.102.729a4 4 0 0 0-.069.654c0 .253.053.555.274.793.227.245.542.325.851.325.365 0 .7-.129.946-.419.227-.268.336-.623.383-.998v-.001l.113-.865c2.885-.24 5.12-2.238 5.12-5.189 0-1.438-.53-2.556-1.379-3.401-.835-.834-1.96-1.383-3.138-1.748z" class="st5"/></svg>