<?xml version="1.0" encoding="utf-8"?>
<!-- Generator: Adobe Illustrator 28.3.0, SVG Export Plug-In . SVG Version: 6.00 Build 0)  -->
<svg version="1.1" id="Layer_1" xmlns="http://www.w3.org/2000/svg" xmlns:xlink="http://www.w3.org/1999/xlink" x="0px" y="0px"
	 viewBox="0 0 140 120" style="enable-background:new 0 0 140 120;" xml:space="preserve">
<style type="text/css">
	.st0{fill:#5AB0FF;}
	.st1{fill:#00B268;}
	.st2{fill:none;stroke:#002140;stroke-width:2;stroke-linecap:round;stroke-linejoin:round;}
	.st3{fill:#FFFAF0;stroke:#002140;stroke-width:2;stroke-miterlimit:10;}
	.st4{fill:none;stroke:#002140;stroke-width:2;stroke-linecap:round;}
	.st5{fill:#002140;}
	.st6{fill-rule:evenodd;clip-rule:evenodd;fill:#FF7101;}
	.st7{fill:#FFFFFF;filter:url(#Adobe_OpacityMaskFilter);}
	.st8{fill-rule:evenodd;clip-rule:evenodd;}
	.st9{mask:url(#path-16-outside-1_37_4078_00000056427677739776471550000009139443064676598176_);fill:#002140;}
</style>
<path class="st0" d="M107.297,32.243l-0.283,0.167c-4.24-0.467-8.596-0.493-12.692,0.703c-4.093,1.197-7.923,3.73-10.002,7.453
	c-1.213,2.166-1.84,4.713-3.553,6.516c-3.08,3.246-8.819,3.183-11.309,6.903c-0.997,1.483-1.28,3.336-2.157,4.893
	c-1.817,3.233-5.799,4.623-8.083,7.546c-3.23,4.133-2.696,10.812-6.983,13.835c-1.816,1.28-4.856,1.26-6.853,2.24
	c-2.563,1.26-4.333,2.94-6.903,3.58c-2.57,0.643-5.326-0.67-8.436,0.257c-1.696,0.503-4.033,1.413-5.769,1.77
	c-1.976,0.403-3.913-0.66-5.843-1.253s-3.586-0.083-5.349,1.403l-0.123,0.073c-0.373-0.607-0.73-1.223-1.077-1.85
	c-0.023-0.043-0.047-0.087-0.073-0.133c-0.817-1.483-1.557-2.986-2.22-4.51l0.12-0.053c0.75-1.716,2.106-3.156,3.766-4.016
	c1.553-0.8,3.333-1.097,4.846-1.963c4.03-2.31,4.99-7.779,8.379-10.955c3.42-3.206,8.663-3.526,12.575-6.109
	c2.093-1.38,3.756-3.41,4.7-5.733c0.703-1.73,1.023-3.633,2.02-5.216c2.22-3.523,7.106-4.496,9.606-7.829
	c0.35-0.47,0.653-0.993,0.76-1.573c0.33-1.83-1.533-3.476-3.39-3.583c-1.856-0.107-3.593,0.87-5.126,1.92
	c-1.537,1.05-3.056,2.236-4.87,2.646c-3.06,0.69-6.183-0.977-9.316-0.833c-1.603,0.073-3.183,0.637-4.473,1.597
	c-1.663,1.236-2.796,3.066-4.38,4.403c-2.057,1.736-4.856,2.553-7.519,2.2c-1.903-0.253-3.7-1.07-5.606-1.306
	c-1.906-0.24-4.136,0.297-5.029,1.996l-0.2-0.047c0.363-1.553,0.797-3.09,1.293-4.603c1.563-4.769,3.776-9.329,6.603-13.535
	c4.693-6.989,11.076-12.999,18.945-17.358c4.96-2.746,10.156-4.646,15.429-5.739v0.013c-2.163,0.65-4.536,1.45-5.673,3.406
	c-1.153,1.986-0.657,4.533-1.447,6.686c-0.78,2.116-2.71,3.596-4.716,4.626c-2.003,1.03-4.18,1.73-6.086,2.936
	c-0.997,0.633-1.936,1.43-2.466,2.486c-0.527,1.056-0.567,2.416,0.137,3.366c1.023,1.38,3.123,1.393,4.726,0.777
	c1.603-0.613,3.013-1.703,4.67-2.146c4.17-1.11,8.626,2.11,12.755,0.877c2.566-0.767,4.413-3.106,6.959-3.936
	c4.716-1.536,10.072,2.553,14.625,0.587c2.553-1.103,4.083-3.856,6.606-5.026c2.533-1.18,5.483-0.533,8.272-0.347
	c2.786,0.183,6.103-0.46,7.276-2.996l0.137-0.167c2.296,1.86,4.456,3.923,6.453,6.179c1.85,2.09,3.56,4.343,5.106,6.756
	C106.484,30.884,106.897,31.557,107.297,32.243z"/>
<path class="st1" d="M107.89,33.29c7.226,13.042,8.58,27.754,4.93,41.083l-0.307-0.083c-3.883-0.653-8.076,1.35-10.005,4.783
	c-1.457,2.586-1.737,5.853-3.797,7.986c-2.276,2.363-6.153,2.693-8.269,5.2c-1.463,1.733-1.803,4.196-3.223,5.963
	c-1.157,1.44-2.906,2.26-4.273,3.503c-2.41,2.183-3.486,5.74-2.686,8.896l0.08,0.197c-3.676,1.483-7.443,2.536-11.235,3.183
	c-5.869,0.999-11.802,1.019-17.575,0.126c-0.137-0.02-0.277-0.043-0.413-0.066l0.033-0.207c2.41-0.257,4.323-2.143,5.689-4.143
	c1.366-2.003,2.423-4.253,4.166-5.936c1.497-1.443,3.46-2.393,5.519-2.67c1.697-0.226,3.52-0.03,5.026-0.843
	c2.19-1.183,2.87-4.01,4.656-5.743c2.903-2.816,8.339-2.446,10.296-5.986c1.367-2.47,0.047-5.826-2.366-7.289
	c-2.416-1.46-5.539-1.307-8.173-0.283c-2.63,1.02-4.883,2.806-7.099,4.553c-2.22,1.743-4.496,3.506-7.149,4.466
	c-2.823,1.02-6.479,0.313-9.299,1.343c-2.79,1.017-4.616,3.7-7.386,4.776c-3.113,1.21-6.733,0.213-9.999,0.913
	c-3.27,0.7-6.476,3.36-7.863,6.4l-0.263,0.353c-2.523-1.897-4.899-4.02-7.093-6.369c-1.903-2.036-3.67-4.24-5.276-6.603
	c-0.547-0.803-1.073-1.623-1.576-2.463l0.123-0.073c1.763-1.487,3.42-1.996,5.349-1.403c1.93,0.593,3.866,1.656,5.843,1.253
	c1.736-0.357,4.073-1.267,5.769-1.77c3.11-0.927,5.866,0.387,8.436-0.257c2.57-0.64,4.34-2.32,6.903-3.58
	c1.997-0.98,5.036-0.96,6.853-2.24c4.286-3.023,3.753-9.702,6.983-13.835c2.283-2.923,6.266-4.313,8.083-7.546
	c0.877-1.556,1.16-3.41,2.157-4.893c2.49-3.72,8.229-3.656,11.309-6.903c1.713-1.803,2.34-4.35,3.553-6.516
	c2.08-3.723,5.909-6.256,10.002-7.453c4.096-1.197,8.452-1.17,12.692-0.703l0.283-0.167C107.497,32.59,107.697,32.937,107.89,33.29z
	"/>
<path class="st1" d="M94.498,17.282l-0.137,0.17c-1.173,2.536-4.49,3.18-7.276,2.996c-2.79-0.187-5.739-0.833-8.272,0.347
	c-2.523,1.17-4.053,3.923-6.606,5.026c-4.553,1.966-9.909-2.123-14.625-0.587c-2.546,0.83-4.393,3.17-6.959,3.936
	c-4.13,1.233-8.586-1.986-12.755-0.877c-1.657,0.443-3.066,1.533-4.67,2.146c-1.603,0.617-3.703,0.603-4.726-0.777
	c-0.703-0.95-0.663-2.31-0.137-3.366c0.53-1.057,1.47-1.853,2.466-2.486c1.907-1.207,4.083-1.907,6.086-2.936
	c2.006-1.03,3.936-2.51,4.716-4.626c0.79-2.153,0.293-4.7,1.447-6.686c1.136-1.956,3.51-2.756,5.676-3.406V6.143
	c4.883-1.017,9.829-1.347,14.708-1.023c2.723,0.177,5.426,0.557,8.086,1.137c2.27,0.49,4.506,1.127,6.696,1.903
	c3.25,1.15,6.396,2.603,9.389,4.353C90.009,13.915,92.315,15.509,94.498,17.282z"/>
<path class="st1" d="M52.973,34.803c1.856,0.107,3.72,1.753,3.39,3.583c-0.107,0.58-0.41,1.103-0.76,1.573
	c-2.5,3.333-7.386,4.306-9.606,7.829c-0.997,1.583-1.317,3.486-2.02,5.216c-0.943,2.323-2.606,4.353-4.699,5.733
	c-3.913,2.583-9.156,2.903-12.575,6.109c-3.39,3.176-4.35,8.646-8.379,10.956c-1.513,0.867-3.293,1.163-4.846,1.963
	c-1.66,0.86-3.016,2.3-3.766,4.016l-0.12,0.053c-0.46-1.047-0.883-2.1-1.27-3.163C5.347,70.543,4.417,62.03,5.344,53.785
	c0.243-2.16,0.617-4.3,1.11-6.406l0.2,0.047c0.893-1.7,3.123-2.236,5.03-1.996c1.906,0.237,3.703,1.053,5.606,1.306
	c2.663,0.353,5.463-0.463,7.519-2.2c1.583-1.336,2.716-3.166,4.38-4.403c1.29-0.96,2.87-1.523,4.473-1.597
	c3.133-0.143,6.256,1.523,9.316,0.833c1.813-0.41,3.333-1.597,4.87-2.646C49.38,35.673,51.116,34.696,52.973,34.803z"/>
<path class="st0" d="M112.513,74.289l0.307,0.083c-3.77,13.765-12.869,26.054-26.338,33.516c-2.01,1.114-4.063,2.087-6.143,2.927
	l-0.08-0.197c-0.8-3.156,0.277-6.713,2.686-8.896c1.367-1.243,3.116-2.063,4.273-3.503c1.42-1.767,1.76-4.23,3.223-5.963
	c2.117-2.506,5.993-2.836,8.269-5.2c2.06-2.133,2.34-5.399,3.797-7.986C104.437,75.639,108.63,73.636,112.513,74.289z"/>
<path class="st0" d="M84.136,81.242c2.413,1.463,3.733,4.82,2.366,7.289c-1.957,3.54-7.393,3.17-10.296,5.986
	c-1.786,1.733-2.466,4.559-4.656,5.743c-1.507,0.813-3.33,0.617-5.026,0.843c-2.06,0.277-4.023,1.227-5.519,2.67
	c-1.743,1.683-2.8,3.933-4.166,5.936c-1.367,2-3.28,3.886-5.689,4.143l-0.033,0.207c-8.722-1.417-17.058-4.927-24.211-10.296
	l0.263-0.353c1.387-3.04,4.593-5.7,7.863-6.4c3.266-0.7,6.886,0.297,9.999-0.913c2.77-1.077,4.596-3.76,7.386-4.776
	c2.82-1.03,6.476-0.323,9.299-1.343c2.653-0.96,4.93-2.723,7.149-4.466c2.216-1.746,4.47-3.533,7.099-4.553
	C78.596,79.935,81.719,79.782,84.136,81.242z"/>
<path class="st2" d="M94.498,17.282c-2.183-1.773-4.489-3.366-6.893-4.77c-2.993-1.75-6.139-3.203-9.389-4.353
	c-2.19-0.777-4.426-1.413-6.696-1.903c-2.66-0.58-5.363-0.96-8.086-1.137c-4.88-0.323-9.826,0.007-14.712,1.023
	c-5.273,1.093-10.469,2.993-15.429,5.739C25.425,16.242,19.043,22.251,14.35,29.24c-2.826,4.206-5.04,8.766-6.603,13.535
	c-0.497,1.513-0.93,3.05-1.293,4.603c-0.493,2.106-0.867,4.246-1.11,6.406C4.417,62.03,5.347,70.543,8.32,78.672
	c0.387,1.063,0.81,2.117,1.27,3.163c0.663,1.523,1.403,3.026,2.22,4.51c0.027,0.047,0.05,0.09,0.073,0.133
	c0.347,0.627,0.703,1.243,1.077,1.85c0.503,0.84,1.03,1.66,1.576,2.463c1.607,2.363,3.373,4.566,5.276,6.603
	c2.193,2.35,4.57,4.472,7.093,6.369c7.153,5.369,15.488,8.879,24.211,10.296c0.137,0.023,0.277,0.046,0.413,0.066
	c5.773,0.894,11.706,0.874,17.575-0.126c3.793-0.647,7.559-1.7,11.235-3.183c2.08-0.84,4.133-1.814,6.143-2.927
	c13.469-7.462,22.567-19.751,26.337-33.516c3.65-13.329,2.296-28.041-4.93-41.083c-0.193-0.353-0.393-0.7-0.593-1.047
	c-0.4-0.687-0.813-1.36-1.24-2.023c-1.546-2.413-3.256-4.666-5.106-6.756c-1.996-2.256-4.156-4.319-6.453-6.179V17.282z"/>
<path class="st3" d="M131.704,39.157l4.619-22.033l-7.993,3.716l-4.258-7.08l-6.738,4.751l-5.041-6.856l-7.555,4.448l-4.006-6.897
	l-6.408,4.561l-5.195-6.119l-19.267,91.91l7.993-3.716l4.258,7.081l6.738-4.751l5.041,6.855l7.555-4.448l4.007,6.897l6.408-4.561
	l5.195,6.119L131.704,39.157z"/>
<path class="st4" d="M88.415,55.246l29.354,6.191"/>
<path class="st4" d="M86.558,64.052l29.354,6.191"/>
<path class="st4" d="M84.701,72.858l29.354,6.191"/>
<path class="st4" d="M97.52,84.76l14.678,3.095"/>
<path class="st4" d="M82.843,81.664l9.785,2.064"/>
<path class="st5" d="M104.872,49.509c-0.53-0.113-0.605-0.561-0.452-1.177l0.342-1.514c-0.535-0.209-0.963-0.468-1.303-0.684
	c-0.359-0.244-0.671-0.479-0.925-0.532c-0.462-0.098-0.522,0.418-1.075,0.301c-0.901-0.191-1.28-2.866-0.875-4.799
	c0.213-1.012,0.655-1.399,1.071-1.311c0.484,0.103,0.472,0.965,0.624,2.079c0.278,1.549,1.331,2.853,2.814,3.48l1.275-5.738
	c-2.799-1.362-4.472-3.158-3.908-5.85c0.531-2.531,3.046-4.065,6.015-3.508l0.293-1.284c0.144-0.69,0.383-1.024,0.914-0.912
	c0.485,0.103,0.592,0.51,0.447,1.2l-0.317,1.399c0.401,0.157,0.746,0.35,1.045,0.534c0.294,0.206,0.565,0.408,0.773,0.452
	c0.346,0.073,0.507-0.349,0.969-0.251c0.9,0.191,1.194,2.584,0.817,4.379c-0.173,0.828-0.598,1.243-0.944,1.17
	c-0.438-0.093-0.535-0.666-0.632-1.239c-0.096-1.727-0.922-2.959-2.36-3.576l-1.212,5.438c3.076,1.541,4.646,3.363,4.067,6.124
	c-0.631,3.014-3.346,4.121-6.236,3.533l-0.317,1.399C105.629,49.236,105.449,49.631,104.872,49.509z M105.04,33.876
	c-0.304,1.45,0.595,2.337,1.939,3.054l1.149-5.139C106.567,31.652,105.344,32.426,105.04,33.876z M106.441,45.708
	c1.69,0.214,2.997-0.615,3.301-2.064c0.342-1.634-0.694-2.67-2.08-3.42L106.441,45.708z"/>
<circle class="st5" cx="67.5" cy="42.4" r="4.8"/>
<path class="st6" d="M67.5,71.2c0,0,16.8-12,16.8-24.48c0-9.013-7.522-16.32-16.8-16.32s-16.8,7.307-16.8,16.32
	C50.7,59.2,67.5,71.2,67.5,71.2z M67.5,47.2c2.651,0,4.8-2.149,4.8-4.8c0-2.651-2.149-4.8-4.8-4.8s-4.8,2.149-4.8,4.8
	C62.7,45.051,64.849,47.2,67.5,47.2z"/>
<defs>
	<filter id="Adobe_OpacityMaskFilter" filterUnits="userSpaceOnUse" x="48.7" y="28.4" width="37.6" height="45.258">
		<feColorMatrix  type="matrix" values="1 0 0 0 0  0 1 0 0 0  0 0 1 0 0  0 0 0 1 0"/>
	</filter>
</defs>
<mask maskUnits="userSpaceOnUse" x="48.7" y="28.4" width="37.6" height="45.258" id="path-16-outside-1_37_4078_00000056427677739776471550000009139443064676598176_">
	<rect x="48.7" y="28.4" class="st7" width="38" height="46"/>
	<path class="st8" d="M67.5,71.2c0,0,16.8-12,16.8-24.48c0-9.013-7.522-16.32-16.8-16.32s-16.8,7.307-16.8,16.32
		C50.7,59.2,67.5,71.2,67.5,71.2z M67.5,47.2c2.651,0,4.8-2.149,4.8-4.8c0-2.651-2.149-4.8-4.8-4.8s-4.8,2.149-4.8,4.8
		C62.7,45.051,64.849,47.2,67.5,47.2z"/>
</mask>
<path class="st9" d="M67.5,71.2l-1.162,1.628l1.162,0.83l1.162-0.83L67.5,71.2z M82.3,46.72c0,5.432-3.722,11.061-7.871,15.565
	c-2.027,2.2-4.06,4.031-5.589,5.312c-0.763,0.639-1.397,1.139-1.836,1.476c-0.22,0.169-0.39,0.296-0.504,0.381
	c-0.057,0.042-0.1,0.073-0.127,0.093c-0.014,0.01-0.024,0.017-0.03,0.021c-0.003,0.002-0.005,0.004-0.006,0.004
	c-0.001,0-0.001,0-0.001,0l0,0c0,0,0.001,0,1.163,1.627c1.162,1.628,1.163,1.627,1.163,1.627c0,0,0.001-0.001,0.001-0.001
	c0.001-0.001,0.002-0.002,0.004-0.003c0.003-0.002,0.007-0.005,0.012-0.009c0.01-0.007,0.024-0.018,0.043-0.031
	c0.036-0.026,0.088-0.064,0.154-0.113c0.132-0.098,0.322-0.24,0.562-0.424c0.479-0.368,1.158-0.903,1.97-1.584
	c1.621-1.359,3.788-3.308,5.961-5.668C81.622,60.379,86.3,53.768,86.3,46.72H82.3z M67.5,32.4c8.229,0,14.8,6.465,14.8,14.32h4
	c0-10.172-8.472-18.32-18.8-18.32V32.4z M52.7,46.72c0-7.854,6.571-14.32,14.8-14.32v-4c-10.328,0-18.8,8.148-18.8,18.32H52.7z
	 M67.5,71.2c1.162-1.627,1.163-1.627,1.163-1.627l0,0c0,0,0,0-0.001,0c-0.001-0.001-0.003-0.002-0.006-0.004
	c-0.006-0.004-0.016-0.011-0.03-0.021c-0.027-0.02-0.07-0.051-0.127-0.093c-0.114-0.084-0.285-0.212-0.504-0.381
	c-0.439-0.337-1.073-0.837-1.836-1.476c-1.529-1.281-3.562-3.112-5.589-5.312C56.422,57.78,52.7,52.152,52.7,46.72h-4
	c0,7.048,4.678,13.659,8.929,18.275c2.174,2.36,4.34,4.309,5.961,5.668c0.812,0.681,1.491,1.216,1.97,1.584
	c0.24,0.184,0.43,0.326,0.562,0.424c0.066,0.049,0.118,0.087,0.154,0.113c0.018,0.013,0.032,0.023,0.043,0.031
	c0.005,0.004,0.009,0.007,0.012,0.009c0.002,0.001,0.003,0.002,0.004,0.003c0.001,0,0.001,0.001,0.001,0.001
	C66.337,72.827,66.338,72.827,67.5,71.2z M70.3,42.4c0,1.546-1.254,2.8-2.8,2.8v4c3.756,0,6.8-3.045,6.8-6.8H70.3z M67.5,39.6
	c1.546,0,2.8,1.254,2.8,2.8h4c0-3.755-3.045-6.8-6.8-6.8V39.6z M64.7,42.4c0-1.546,1.254-2.8,2.8-2.8v-4c-3.756,0-6.8,3.045-6.8,6.8
	H64.7z M67.5,45.2c-1.546,0-2.8-1.254-2.8-2.8h-4c0,3.756,3.044,6.8,6.8,6.8V45.2z"/>
</svg>
