<svg xmlns="http://www.w3.org/2000/svg" xmlns:xlink="http://www.w3.org/1999/xlink" id="Layer_1" x="0" y="0" version="1.1" viewBox="0 0 68 68" style="enable-background:new 0 0 68 68" xml:space="preserve"><style type="text/css">.st0{fill:#fed607}.st1{fill:#d18000}.st2,.st3{fill:none;stroke-width:.9999}.st2{stroke:#002140;stroke-linecap:round;stroke-linejoin:round}.st3{stroke:#d18000;stroke-miterlimit:10}.st4{fill:#ffed8f}</style><path d="M10.957,45.597c0,0,2.703,5.551,21.067,4.98c18.364-0.57,20.496-4.127,20.496-5.268	c0-1.141-8.399-4.98-19.501-4.839c-11.102,0.142-21.633,1.424-22.062,5.122V45.597z" class="st0"/><path d="M11.24,46.592v6.121c0,0,7.687,4.127,21.491,4.127c13.804,0,19.926-4.414,19.926-4.414v-6.121	c0,0-6.405,4.839-20.638,4.268S12.951,47.729,11.24,46.592z" class="st1"/><path d="M31.882,50.336c11.476,0,20.779-2.166,20.779-4.839c0-2.672-9.303-4.839-20.779-4.839	s-20.779,2.166-20.779,4.839C11.103,48.169,20.406,50.336,31.882,50.336z" class="st2"/><path d="M11.099,45.498v6.357c0,2.673,9.304,4.839,20.779,4.839c11.475,0,20.779-2.166,20.779-4.839v-6.357" class="st2"/><path d="M31.976,46.922c4.402,0,7.97-0.718,7.97-1.604c0-0.886-3.568-1.604-7.97-1.604c-4.402,0-7.97,0.718-7.97,1.604	C24.006,46.203,27.574,46.922,31.976,46.922z" class="st3"/><path d="M16.367,35.819c0,0,2.702,5.551,21.066,4.98c18.364-0.571,20.496-4.127,20.496-5.268	c0-1.141-8.399-4.98-19.501-4.839c-11.102,0.142-21.633,1.424-22.062,5.122V35.819z" class="st0"/><path d="M16.649,36.819v6.121c0,0,7.687,4.127,21.491,4.127c13.804,0,19.926-4.414,19.926-4.414v-6.121	c0,0-6.404,4.839-20.638,4.268c-14.233-0.57-19.072-2.848-20.779-3.985V36.819z" class="st1"/><path d="M37.286,40.564c11.476,0,20.779-2.166,20.779-4.839c0-2.672-9.303-4.839-20.779-4.839	s-20.779,2.166-20.779,4.839C16.507,38.398,25.81,40.564,37.286,40.564z" class="st2"/><path d="M16.507,35.725v6.357c0,2.672,9.304,4.839,20.779,4.839c11.475,0,20.779-2.166,20.779-4.839v-6.357" class="st2"/><path d="M37.381,37.15c4.402,0,7.97-0.718,7.97-1.604c0-0.886-3.568-1.604-7.97-1.604s-7.97,0.718-7.97,1.604	C29.41,36.432,32.979,37.15,37.381,37.15z" class="st3"/><path d="M10.721,26.941c0,0,2.702,5.551,21.067,4.98c18.364-0.57,20.496-4.127,20.496-5.268	c0-1.141-8.399-4.98-19.501-4.839c-11.102,0.142-21.633,1.424-22.062,5.122V26.941z" class="st0"/><path d="M11.003,27.936v6.121c0,0,7.687,4.127,21.491,4.127c13.804,0,19.926-4.414,19.926-4.414v-6.121	c0,0-6.404,4.839-20.638,4.268C17.549,31.346,12.711,29.077,11.003,27.936z" class="st1"/><path d="M31.642,31.685c11.476,0,20.779-2.166,20.779-4.839c0-2.672-9.303-4.839-20.779-4.839	s-20.779,2.166-20.779,4.839C10.863,29.519,20.166,31.685,31.642,31.685z" class="st2"/><path d="M10.863,26.846v6.357c0,2.673,9.304,4.839,20.779,4.839c11.475,0,20.779-2.166,20.779-4.839v-6.357" class="st2"/><path d="M31.736,28.265c4.402,0,7.97-0.718,7.97-1.604c0-0.886-3.568-1.604-7.97-1.604s-7.97,0.718-7.97,1.604	C23.766,27.547,27.334,28.265,31.736,28.265z" class="st3"/><path d="M16.178,17.13c0,0,2.703,5.551,21.066,4.98c18.364-0.57,20.496-4.127,20.496-5.268	c0-1.141-8.399-4.98-19.501-4.839c-11.102,0.142-21.633,1.424-22.062,5.122V17.13z" class="st0"/><path d="M17.718,15.426c1.78,1.253,4.131,1.377,6.284,1.055c2.153-0.322,4.234-1.038,6.396-1.304	c2.497-0.309,5.027-0.009,7.545-0.009c1.017,0,2.068-0.06,2.973-0.523c0.905-0.463,1.617-1.437,1.484-2.441	c0,0-7.618-0.27-13.431,0.172c-5.812,0.442-11.248,3.054-11.248,3.054L17.718,15.426z" class="st4"/><path d="M16.461,18.125v6.121c0,0,7.687,4.127,21.491,4.127c13.804,0,19.925-4.414,19.925-4.414v-6.121	c0,0-6.404,4.839-20.638,4.268s-19.072-2.848-20.779-3.985V18.125z" class="st1"/><path d="M37.098,21.875c11.476,0,20.779-2.166,20.779-4.839s-9.303-4.839-20.779-4.839s-20.779,2.166-20.779,4.839	S25.622,21.875,37.098,21.875z" class="st2"/><path d="M16.319,17.035v6.357c0,2.672,9.304,4.839,20.779,4.839c11.475,0,20.779-2.166,20.779-4.839v-6.357" class="st2"/><path d="M37.193,18.455c4.402,0,7.97-0.718,7.97-1.604c0-0.886-3.568-1.604-7.97-1.604s-7.97,0.718-7.97,1.604	C29.223,17.736,32.791,18.455,37.193,18.455z" class="st3"/></svg>