<svg xmlns="http://www.w3.org/2000/svg" width="41" height="38" viewBox="0 0 41 38" fill="none"><path d="M25.7122 33.072V36.0237C25.7122 36.7766 25.3142 37.1314 24.5812 37.1314H18.1074C17.7061 37.1314 17.4076 37.022 17.2152 36.8031L17.1854 36.7633C17.0461 36.5842 16.9797 36.3388 16.9797 36.0237V33.072C16.9797 32.3158 17.3777 31.9609 18.1074 31.9609H24.5812C24.9693 31.9609 25.2644 32.0604 25.4535 32.2661V32.2727C25.6259 32.4551 25.7122 32.7204 25.7122 33.072Z" fill="#5AB0FF"/><path d="M25.7122 18.3064V21.2581C25.7122 22.0109 25.3142 22.3658 24.5812 22.3658H18.1074C17.7061 22.3658 17.4076 22.2564 17.2152 22.0375L17.1854 21.9977C17.0461 21.8186 16.9797 21.5732 16.9797 21.2581V18.3064C16.9797 17.5502 17.3777 17.1953 18.1074 17.1953H24.5812C24.9693 17.1953 25.2644 17.2948 25.4535 17.5004V17.5071C25.6259 17.6895 25.7122 17.9548 25.7122 18.3064Z" fill="#5AB0FF"/><path d="M25.7122 3.54464V6.49636C25.7122 7.24922 25.3142 7.60409 24.5812 7.60409H18.1074C17.7061 7.60409 17.4076 7.49464 17.2152 7.27575L17.1854 7.23595C17.0461 7.05686 16.9797 6.81143 16.9797 6.49636V3.54464C16.9797 2.78846 17.3777 2.43359 18.1074 2.43359H24.5812C24.9693 2.43359 25.2644 2.53309 25.4535 2.73872V2.74535C25.6259 2.92776 25.7122 3.19308 25.7122 3.54464Z" fill="#5AB0FF"/><path d="M5.14695 29.6861H2.57C2.1687 29.6861 1.87022 29.5767 1.67786 29.3578L1.64801 29.318C1.50871 29.1389 1.44238 28.8935 1.44238 28.5784V25.6267C1.44238 24.8705 1.84037 24.5156 2.57 24.5156H9.04387C9.43191 24.5156 9.72708 24.6151 9.91612 24.8207V24.8274C10.0886 25.0098 10.1748 25.2751 10.1748 25.6267V28.5784C10.1748 29.3312 9.77683 29.6861 9.04387 29.6861H5.14695Z" fill="#B0D9FF"/><path d="M39.7644 10.861V13.8128C39.7644 14.5656 39.3664 14.9205 38.6335 14.9205H32.1596C31.7583 14.9205 31.4598 14.811 31.2675 14.5922L31.2376 14.5524C31.0983 14.3733 31.032 14.1278 31.032 13.8128V10.861C31.032 10.1049 31.43 9.75 32.1596 9.75H38.6335C39.0215 9.75 39.3167 9.8495 39.5057 10.0551V10.0618C39.6782 10.2442 39.7644 10.5095 39.7644 10.861Z" fill="#B0D9FF"/><path d="M8.4003 3.20818C8.77838 3.71229 9.00059 4.34244 9.00059 5.02233C9.00059 6.7005 7.64081 8.06028 5.96265 8.06028C5.12688 8.06028 4.36408 7.71868 3.81353 7.17145C3.26299 6.6209 2.92139 5.86142 2.92139 5.02233C2.92139 3.34416 4.28448 1.98438 5.95933 1.98438C6.95761 1.98438 7.8398 2.46196 8.39366 3.20486C8.39366 3.20486 8.39698 3.20486 8.39698 3.20818H8.4003Z" fill="#B0D9FF"/><path d="M35.904 34.3095L31.7915 37.49V31.1289L35.904 34.3095Z" fill="#003C73"/><path d="M16.9798 33.0706V36.0223C16.9798 36.3374 17.0494 36.5828 17.1854 36.7619L16.4292 35.7934L16.4027 35.7437C16.3131 35.5779 16.27 35.3689 16.27 35.1135V32.1618C16.27 31.4057 16.668 31.0508 17.3976 31.0508H23.8715C24.2164 31.0508 24.4884 31.1304 24.6774 31.2962L24.7239 31.3426L25.4535 32.268C25.2645 32.0623 24.9693 31.9628 24.5812 31.9628H18.1074C17.3744 31.9628 16.9798 32.3177 16.9798 33.0739V33.0706Z" fill="#003C73"/><path d="M9.04316 24.5103H2.56929C1.83634 24.5103 1.44167 24.8652 1.44167 25.6213V28.5731C1.44167 28.8881 1.51132 29.1336 1.6473 29.3127L0.891127 28.3442L0.864595 28.2945C0.775048 28.1286 0.731934 27.9197 0.731934 27.6643V24.7126C0.731934 23.9564 1.12992 23.6016 1.85955 23.6016H8.33342C8.67834 23.6016 8.9503 23.6812 9.13934 23.847L9.18577 23.8934L9.91541 24.8187C9.72637 24.6131 9.4312 24.5136 9.04316 24.5136V24.5103Z" fill="#003C73"/><path d="M38.7761 9.13229L39.5057 10.0576C39.3167 9.85198 39.0215 9.75248 38.6335 9.75248H32.1596C31.4267 9.75248 31.032 10.1074 31.032 10.8635V13.8152C31.032 14.1303 31.1016 14.3757 31.2376 14.5548L30.4815 13.5864L30.4549 13.5367C30.3654 13.3708 30.3223 13.1619 30.3223 12.9065V9.95479C30.3223 9.19862 30.7202 8.84375 31.4499 8.84375H37.9238C38.2687 8.84375 38.5406 8.92335 38.7297 9.08917L38.7761 9.13561V9.13229Z" fill="#003C73"/><path d="M16.9798 3.5438V6.49553C16.9798 6.8106 17.0494 7.05602 17.1854 7.23512L16.4292 6.26669L16.4027 6.21694C16.3131 6.05111 16.27 5.84217 16.27 5.58679V2.63839C16.27 1.88221 16.668 1.52734 17.3976 1.52734H23.8715C24.2164 1.52734 24.4884 1.60694 24.6774 1.77277L24.7239 1.8192L25.4535 2.74452C25.2645 2.53889 24.9693 2.43939 24.5812 2.43939H18.1074C17.3744 2.43939 16.9798 2.79426 16.9798 3.55044V3.5438Z" fill="#003C73"/><path d="M7.32576 1.89341L7.41531 1.98295C7.89289 2.46053 8.17148 2.84525 8.397 3.20344C7.84314 2.46053 6.96094 1.98295 5.96267 1.98295C4.2845 1.98295 2.92472 3.34605 2.92472 5.02091C2.92472 5.85999 3.26633 6.61948 3.81687 7.17003L3.80361 7.18329C3.33266 6.74219 2.99437 6.26793 2.70915 5.77708C2.3974 5.2995 2.21167 4.72905 2.21167 4.11217C2.21167 2.43732 3.57476 1.07422 5.24961 1.07422C6.0489 1.07422 6.77853 1.38597 7.32245 1.89341H7.32576Z" fill="#003C73"/><path d="M16.9798 18.3088V21.2606C16.9798 21.5756 17.0494 21.8211 17.1854 22.0002L16.4292 21.0317L16.4027 20.982C16.3131 20.8161 16.27 20.6072 16.27 20.3518V17.4001C16.27 16.6439 16.668 16.2891 17.3976 16.2891H23.8715C24.2164 16.2891 24.4884 16.3687 24.6774 16.5345L24.7239 16.5809L25.4535 17.5062C25.2645 17.3006 24.9693 17.2011 24.5812 17.2011H18.1074C17.3744 17.2011 16.9798 17.556 16.9798 18.3122V18.3088Z" fill="#003C73"/><path d="M8.4003 3.20818C8.77838 3.71229 9.00059 4.34244 9.00059 5.02233C9.00059 6.7005 7.64081 8.06028 5.96265 8.06028C5.12688 8.06028 4.36408 7.71868 3.81353 7.17145C3.26299 6.6209 2.92139 5.86142 2.92139 5.02233C2.92139 3.34416 4.28448 1.98438 5.95933 1.98438C6.95761 1.98438 7.8398 2.46196 8.39366 3.20486" stroke="#003C73" stroke-linecap="round" stroke-linejoin="round"/><path d="M18.1106 2.43359H24.5811" stroke="#003C73" stroke-linecap="round" stroke-linejoin="round"/><path d="M18.1106 7.60547H24.5811" stroke="#003C73" stroke-linecap="round" stroke-linejoin="round"/><path d="M25.7122 3.54688V4.78726V6.4986" stroke="#003C73" stroke-linecap="round" stroke-linejoin="round"/><path d="M16.9797 3.54688V6.4986" stroke="#003C73" stroke-linecap="round" stroke-linejoin="round"/><path d="M16.9797 3.54464C16.9797 2.78846 17.3777 2.43359 18.1074 2.43359" stroke="#003C73" stroke-linecap="round" stroke-linejoin="round"/><path d="M25.4535 2.73872C25.2645 2.53309 24.9693 2.43359 24.5813 2.43359" stroke="#003C73" stroke-linecap="round" stroke-linejoin="round"/><path d="M25.7122 3.54538C25.7122 3.19714 25.6259 2.93182 25.4568 2.74609" stroke="#003C73" stroke-linecap="round" stroke-linejoin="round"/><path d="M17.2188 7.27734C17.4078 7.49624 17.7096 7.60568 18.1109 7.60568" stroke="#003C73" stroke-linecap="round" stroke-linejoin="round"/><path d="M16.9797 6.49609C16.9797 6.81117 17.0494 7.05659 17.1854 7.23568" stroke="#003C73" stroke-linecap="round" stroke-linejoin="round"/><path d="M25.7122 6.49609C25.7122 7.24895 25.3143 7.60382 24.5813 7.60382" stroke="#003C73" stroke-linecap="round" stroke-linejoin="round"/><path d="M2.70915 5.77708C2.3974 5.2995 2.21167 4.72905 2.21167 4.11217C2.21167 2.43732 3.57476 1.07422 5.24961 1.07422C6.0489 1.07422 6.77853 1.38597 7.32244 1.89341" stroke="#003C73" stroke-linecap="round" stroke-linejoin="round"/><path d="M17.3979 1.52734H23.8718" stroke="#003C73" stroke-linecap="round" stroke-linejoin="round"/><path d="M16.27 2.64062V5.58903" stroke="#003C73" stroke-linecap="round" stroke-linejoin="round"/><path d="M16.27 2.63839C16.27 1.88221 16.668 1.52734 17.3976 1.52734" stroke="#003C73" stroke-linecap="round" stroke-linejoin="round"/><path d="M24.6782 1.76886C24.4892 1.60635 24.2172 1.52344 23.8723 1.52344" stroke="#003C73" stroke-linecap="round" stroke-linejoin="round"/><path d="M16.27 5.58984C16.27 5.84522 16.3165 6.05416 16.4027 6.21999" stroke="#003C73" stroke-linecap="round" stroke-linejoin="round"/><path d="M8.40005 3.20818C8.40005 3.20818 8.40005 3.20818 8.39673 3.20486C8.17121 2.84668 7.89262 2.45864 7.41504 1.98438" stroke="#003C73" stroke-linecap="round" stroke-linejoin="round"/><path d="M3.82997 7.20677C3.82997 7.20677 3.81339 7.19019 3.80344 7.18356C3.33249 6.74246 2.99421 6.26819 2.70898 5.77734" stroke="#003C73" stroke-linecap="round" stroke-linejoin="round"/><path d="M17.2183 7.27776L17.1884 7.23796L16.429 6.26953" stroke="#003C73" stroke-linecap="round" stroke-linejoin="round"/><path d="M25.4573 2.74504L25.454 2.73841L24.7244 1.81641" stroke="#003C73" stroke-linecap="round" stroke-linejoin="round"/><path d="M32.1599 9.75H38.6338" stroke="#003C73" stroke-linecap="round" stroke-linejoin="round"/><path d="M32.1599 14.9219H35.3305H38.6338" stroke="#003C73" stroke-linecap="round" stroke-linejoin="round"/><path d="M39.7612 10.8633V13.815" stroke="#003C73" stroke-linecap="round" stroke-linejoin="round"/><path d="M31.032 10.8633V13.815" stroke="#003C73" stroke-linecap="round" stroke-linejoin="round"/><path d="M31.032 10.861C31.032 10.1049 31.43 9.75 32.1596 9.75" stroke="#003C73" stroke-linecap="round" stroke-linejoin="round"/><path d="M39.5058 10.0551C39.3167 9.8495 39.0216 9.75 38.6335 9.75" stroke="#003C73" stroke-linecap="round" stroke-linejoin="round"/><path d="M39.7644 10.8618C39.7644 10.5135 39.6782 10.2482 39.509 10.0625" stroke="#003C73" stroke-linecap="round" stroke-linejoin="round"/><path d="M31.2678 14.5938C31.4569 14.8126 31.7587 14.9221 32.16 14.9221" stroke="#003C73" stroke-linecap="round" stroke-linejoin="round"/><path d="M31.032 13.8125C31.032 14.1276 31.1016 14.373 31.2376 14.5521" stroke="#003C73" stroke-linecap="round" stroke-linejoin="round"/><path d="M39.7645 13.8125C39.7645 14.5654 39.3665 14.9202 38.6335 14.9202" stroke="#003C73" stroke-linecap="round" stroke-linejoin="round"/><path d="M31.4465 8.84375H35.1677H37.9204" stroke="#003C73" stroke-linecap="round" stroke-linejoin="round"/><path d="M30.3193 9.95703V12.9088" stroke="#003C73" stroke-linecap="round" stroke-linejoin="round"/><path d="M30.3193 9.95479C30.3193 9.19862 30.7173 8.84375 31.447 8.84375" stroke="#003C73" stroke-linecap="round" stroke-linejoin="round"/><path d="M38.7266 9.08527C38.5375 8.92276 38.2656 8.83984 37.9207 8.83984" stroke="#003C73" stroke-linecap="round" stroke-linejoin="round"/><path d="M30.3193 12.9062C30.3193 13.1616 30.3658 13.3706 30.452 13.5364" stroke="#003C73" stroke-linecap="round" stroke-linejoin="round"/><path d="M31.2672 14.5942L31.2374 14.5544L30.4812 13.5859" stroke="#003C73" stroke-linecap="round" stroke-linejoin="round"/><path d="M39.5088 10.0614L39.5055 10.0548L38.7759 9.13281" stroke="#003C73" stroke-linecap="round" stroke-linejoin="round"/><path d="M2.56958 24.5117H9.04345" stroke="#003C73" stroke-linecap="round" stroke-linejoin="round"/><path d="M2.56958 29.6875H5.14652H9.04345" stroke="#003C73" stroke-linecap="round" stroke-linejoin="round"/><path d="M10.1711 25.625V28.5767" stroke="#003C73" stroke-linecap="round" stroke-linejoin="round"/><path d="M1.44238 25.625V28.5767" stroke="#003C73" stroke-linecap="round" stroke-linejoin="round"/><path d="M1.44238 25.6228C1.44238 24.8666 1.84037 24.5117 2.57 24.5117" stroke="#003C73" stroke-linecap="round" stroke-linejoin="round"/><path d="M9.91619 24.8207C9.72715 24.6151 9.43198 24.5156 9.04395 24.5156" stroke="#003C73" stroke-linecap="round" stroke-linejoin="round"/><path d="M10.1748 25.6235C10.1748 25.2753 10.0886 25.0099 9.91943 24.8242" stroke="#003C73" stroke-linecap="round" stroke-linejoin="round"/><path d="M1.67749 29.3594C1.86653 29.5783 2.16834 29.6877 2.56964 29.6877" stroke="#003C73" stroke-linecap="round" stroke-linejoin="round"/><path d="M1.44238 28.5742C1.44238 28.8893 1.51203 29.1347 1.64801 29.3138" stroke="#003C73" stroke-linecap="round" stroke-linejoin="round"/><path d="M10.1749 28.5742C10.1749 29.3271 9.7769 29.6819 9.04395 29.6819" stroke="#003C73" stroke-linecap="round" stroke-linejoin="round"/><path d="M1.85693 23.6055H5.30944H8.3308" stroke="#003C73" stroke-linecap="round" stroke-linejoin="round"/><path d="M0.729004 24.7188V27.6705" stroke="#003C73" stroke-linecap="round" stroke-linejoin="round"/><path d="M0.729004 24.7165C0.729004 23.9603 1.12699 23.6055 1.85662 23.6055" stroke="#003C73" stroke-linecap="round" stroke-linejoin="round"/><path d="M9.13624 23.8509C8.9472 23.6884 8.67524 23.6055 8.33032 23.6055" stroke="#003C73" stroke-linecap="round" stroke-linejoin="round"/><path d="M0.729004 27.668C0.729004 27.9233 0.775435 28.1323 0.861665 28.2981" stroke="#003C73" stroke-linecap="round" stroke-linejoin="round"/><path d="M1.67786 29.3559L1.64801 29.3128L0.891846 28.3477" stroke="#003C73" stroke-linecap="round" stroke-linejoin="round"/><path d="M9.91923 24.8265L9.91592 24.8198L9.18628 23.8945" stroke="#003C73" stroke-linecap="round" stroke-linejoin="round"/><path d="M18.1106 17.1953H24.5811" stroke="#003C73" stroke-linecap="round" stroke-linejoin="round"/><path d="M18.1106 22.3672H24.5811" stroke="#003C73" stroke-linecap="round" stroke-linejoin="round"/><path d="M25.7122 18.3086V21.2603" stroke="#003C73" stroke-linecap="round" stroke-linejoin="round"/><path d="M16.9797 18.3086V21.2603" stroke="#003C73" stroke-linecap="round" stroke-linejoin="round"/><path d="M16.9797 18.3064C16.9797 17.5502 17.3777 17.1953 18.1074 17.1953" stroke="#003C73" stroke-linecap="round" stroke-linejoin="round"/><path d="M25.4535 17.5043C25.2645 17.2987 24.9693 17.1992 24.5813 17.1992" stroke="#003C73" stroke-linecap="round" stroke-linejoin="round"/><path d="M25.7122 18.3071C25.7122 17.9589 25.6259 17.6935 25.4568 17.5078" stroke="#003C73" stroke-linecap="round" stroke-linejoin="round"/><path d="M17.2188 22.043C17.4078 22.2619 17.7096 22.3713 18.1109 22.3713" stroke="#003C73" stroke-linecap="round" stroke-linejoin="round"/><path d="M16.9797 21.2578C16.9797 21.5729 17.0494 21.8183 17.1854 21.9974" stroke="#003C73" stroke-linecap="round" stroke-linejoin="round"/><path d="M25.7122 21.2578C25.7122 22.0107 25.3143 22.3655 24.5813 22.3655" stroke="#003C73" stroke-linecap="round" stroke-linejoin="round"/><path d="M17.3979 16.2891H23.8718" stroke="#003C73" stroke-linecap="round" stroke-linejoin="round"/><path d="M16.27 17.4023V20.3541" stroke="#003C73" stroke-linecap="round" stroke-linejoin="round"/><path d="M16.27 17.4001C16.27 16.6439 16.668 16.2891 17.3976 16.2891" stroke="#003C73" stroke-linecap="round" stroke-linejoin="round"/><path d="M24.6782 16.5345C24.4892 16.372 24.2172 16.2891 23.8723 16.2891" stroke="#003C73" stroke-linecap="round" stroke-linejoin="round"/><path d="M16.27 20.3516C16.27 20.6069 16.3165 20.8159 16.4027 20.9817" stroke="#003C73" stroke-linecap="round" stroke-linejoin="round"/><path d="M17.2183 22.0395L17.1884 21.9964L16.429 21.0312" stroke="#003C73" stroke-linecap="round" stroke-linejoin="round"/><path d="M25.4573 17.5101L25.454 17.5034L24.7244 16.5781" stroke="#003C73" stroke-linecap="round" stroke-linejoin="round"/><path d="M18.1106 31.957H24.5811" stroke="#003C73" stroke-linecap="round" stroke-linejoin="round"/><path d="M18.1106 37.1328H24.5811" stroke="#003C73" stroke-linecap="round" stroke-linejoin="round"/><path d="M25.7122 33.0703V36.0187" stroke="#003C73" stroke-linecap="round" stroke-linejoin="round"/><path d="M16.9797 33.0703V36.0187" stroke="#003C73" stroke-linecap="round" stroke-linejoin="round"/><path d="M16.9797 33.072C16.9797 32.3158 17.3777 31.9609 18.1074 31.9609" stroke="#003C73" stroke-linecap="round" stroke-linejoin="round"/><path d="M25.4535 32.2661C25.2645 32.0604 24.9693 31.9609 24.5813 31.9609" stroke="#003C73" stroke-linecap="round" stroke-linejoin="round"/><path d="M25.7122 33.0727C25.7122 32.7245 25.6259 32.4592 25.4568 32.2734" stroke="#003C73" stroke-linecap="round" stroke-linejoin="round"/><path d="M17.2188 36.8047C17.4078 37.0236 17.7096 37.133 18.1109 37.133" stroke="#003C73" stroke-linecap="round" stroke-linejoin="round"/><path d="M16.9797 36.0195C16.9797 36.3346 17.0494 36.58 17.1854 36.7591" stroke="#003C73" stroke-linecap="round" stroke-linejoin="round"/><path d="M25.7122 36.0195C25.7122 36.7724 25.3143 37.1273 24.5813 37.1273" stroke="#003C73" stroke-linecap="round" stroke-linejoin="round"/><path d="M17.3979 31.0508H23.8718" stroke="#003C73" stroke-linecap="round" stroke-linejoin="round"/><path d="M16.27 32.1641V35.1158" stroke="#003C73" stroke-linecap="round" stroke-linejoin="round"/><path d="M16.27 32.1618C16.27 31.4057 16.668 31.0508 17.3976 31.0508" stroke="#003C73" stroke-linecap="round" stroke-linejoin="round"/><path d="M24.6782 31.2962C24.4892 31.1337 24.2172 31.0508 23.8723 31.0508" stroke="#003C73" stroke-linecap="round" stroke-linejoin="round"/><path d="M16.27 35.1133C16.27 35.3687 16.3165 35.5776 16.4027 35.7434" stroke="#003C73" stroke-linecap="round" stroke-linejoin="round"/><path d="M17.2183 36.8051L17.1884 36.762L16.429 35.7969" stroke="#003C73" stroke-linecap="round" stroke-linejoin="round"/><path d="M25.4573 32.2718L25.454 32.2652L24.7244 31.3398" stroke="#003C73" stroke-linecap="round" stroke-linejoin="round"/><path d="M10.1748 19.5469H16.1512" stroke="#003C73" stroke-linecap="round" stroke-linejoin="round"/><path d="M25.7122 19.5469H30.4515" stroke="#003C73" stroke-linecap="round" stroke-linejoin="round"/><path d="M9.00098 4.78516H16.1945" stroke="#003C73" stroke-linecap="round" stroke-linejoin="round"/><path d="M25.7122 4.78516H30.4515" stroke="#003C73" stroke-linecap="round" stroke-linejoin="round"/><path d="M10.1748 34.3086H16.1512" stroke="#003C73" stroke-linecap="round" stroke-linejoin="round"/><path d="M25.8982 34.3086H31.6955" stroke="#003C73" stroke-linecap="round" stroke-linejoin="round"/><path d="M35.1676 8.84461C34.4247 6.54293 32.8527 4.78516 30.4548 4.78516" stroke="#003C73" stroke-linecap="round" stroke-linejoin="round"/><path d="M30.4519 19.5485C33.0454 19.5485 34.6705 17.4988 35.3305 14.9219" stroke="#003C73" stroke-linecap="round" stroke-linejoin="round"/><path d="M5.30908 23.6063C6.0553 21.3046 7.62402 19.5469 10.0219 19.5469" stroke="#003C73" stroke-linecap="round" stroke-linejoin="round"/><path d="M10.0219 34.3078C7.4284 34.3078 5.8033 32.2582 5.14663 29.6812C5.14663 29.6779 5.14663 29.6713 5.14331 29.668" stroke="#003C73" stroke-linecap="round" stroke-linejoin="round"/><path d="M31.7915 31.1289V37.49" stroke="#003C73" stroke-linecap="round" stroke-linejoin="round"/><path d="M31.7915 31.1289L35.904 34.3095" stroke="#003C73" stroke-linecap="round" stroke-linejoin="round"/><path d="M31.7915 37.4892L35.904 34.3086" stroke="#003C73" stroke-linecap="round" stroke-linejoin="round"/></svg>