<svg xmlns="http://www.w3.org/2000/svg" id="Layer_1" viewBox="0 0 68 68"><defs><style>.st0{fill:#f25730}.st1{fill:#fffaf0}.st2{fill:#ffed8f}.st3{fill:#d18000}.st4{fill:none;stroke:#002140;stroke-linecap:round;stroke-linejoin:round;stroke-width:1px}.st5{fill:#722b03}</style></defs><path d="m45.157 37.73 18.605-.565v-3.977H45.868L23 16 4.248 33.47l2.843 3.125L23.423 21.68z" class="st5"/><path d="m8.132 29.54 6.062-5.681h-6.25z" class="st0"/><path d="M7.562 37.118v15.244h55.112V37.306H45.157L23.423 21.681z" class="st1"/><path d="M20.383 41.005V51.99h7.954V41.104z" class="st0"/><path d="M26.835 46.3a.805.805 0 1 0 0-1.61.805.805 0 0 0 0 1.61m.616-17.612h-6.156v7.479h6.156zm-10.416 12.12h-6.156v7.479h6.156zm21.777.287h-6.156v7.479h6.156z" class="st2"/><path d="M59.36 42.417H46.291v9.846H59.36z" class="st3"/><path d="m63.894 33.051-17.993-.047-22.727-16.901L4 33.667l3.266 3.078 16.1-15.338 21.589 16.002 19.033-.188z" class="st4"/><path d="M7.267 36.745v15.531h55.587V37.597" class="st4"/><path d="M46.09 51.895v-9.564h13.352V51.8m-13.254-5.962h12.877m-12.877 3.219h12.877m-38.305 2.32v-10.42h7.954v10.3" class="st4"/><path d="M26.963 46.732a.993.993 0 1 0 0-1.986.993.993 0 0 0 0 1.986m-10.035-6.01h-6.156v7.671h6.156zm22.3 0h-6.156v7.671h6.156zM27.673 28.65h-6.156v7.671h6.156zm-19.743.899v-5.775h6.25M8.405 26.33h1.134" class="st4"/></svg>