<?xml version="1.0" encoding="utf-8"?>
<!-- Generator: Adobe Illustrator 26.5.0, SVG Export Plug-In . SVG Version: 6.00 Build 0)  -->
<svg version="1.1" id="Layer_1" xmlns="http://www.w3.org/2000/svg" xmlns:xlink="http://www.w3.org/1999/xlink" x="0px" y="0px"
	 viewBox="0 0 68 68" style="enable-background:new 0 0 68 68;" xml:space="preserve">
<style type="text/css">
	.st0{fill:#00B368;}
	.st1{fill:#5BE3AA;}
	.st2{fill:#FFF2B2;}
	.st3{fill:#FFFAF0;}
	.st4{fill:#002140;}
</style>
<g>
	<path class="st0" d="M51.9,55.5c0,0-5.9-5.1-6.5-13.8c-0.6-8.7,1.7-21.8,1.1-25.4c-0.6-3.6-2-7-4.1-8.4l-23.8,4
		c0,0,3.7,3.9,3.7,9.7c0,5.8-1.7,23.2-0.5,28.5c1.2,5.3,6.2,9.9,6.2,9.9L51.9,55.5z"/>
</g>
<g>
	<path class="st1" d="M30.5,56.1c0.7-0.8,0.4-2.2-0.6-3.2c-1.1-1-2.5-1.1-3.3-0.3c-0.7,0.8-0.4,2.2,0.6,3.2
		C28.3,56.7,29.8,56.9,30.5,56.1z"/>
</g>
<g>
	<path class="st1" d="M45.4,53.8c0.7-0.8,0.5-2.2-0.6-3.1c-1-0.9-2.5-1-3.2-0.2s-0.5,2.2,0.6,3.1C43.2,54.5,44.6,54.6,45.4,53.8z"/>
</g>
<g>
	<path class="st1" d="M43,15.1c0.7-0.8,0.5-2.2-0.6-3.1c-1-0.9-2.5-1-3.2-0.2c-0.7,0.8-0.5,2.2,0.6,3.1C40.9,15.8,42.3,15.9,43,15.1
		z"/>
</g>
<g>
	<path class="st1" d="M28,17.6c0.7-0.8,0.5-2.2-0.6-3.1c-1-0.9-2.5-1-3.2-0.2c-0.7,0.8-0.5,2.2,0.6,3.1C25.9,18.3,27.3,18.4,28,17.6
		z"/>
</g>
<g>
	<path class="st1" d="M41,34.7c0,0-0.7-11.4-5.7-12.3c-5-0.9-7.9,8.6-7.6,12.7c0.4,4.1,1.5,11.5,6.7,11.6
		C39.5,46.9,41.5,36.6,41,34.7L41,34.7z"/>
</g>
<g>
	<path class="st2" d="M21.9,29.3c0,0-2.8,0.7-5.2-0.3c-2.3-1-5.9-3.8-8.3-3.8c-2.4,0.1-3.9,1.9-4.7,4.3c-0.8,2.4-0.4,9.1,1,9.9
		c1.5,0.8,1.8,0.7,1.8,0.7s-0.8,3.2,1.1,4.1s3.4-1.9,3.4-1.9s0.4,3.6,2.3,3.4c1.9-0.2,2.8-2.2,2.8-2.2s0.4,3,1.9,3.1
		s3.1-1.9,3.1-1.9l0.6-11.8L21.9,29.3L21.9,29.3z"/>
</g>
<g>
	<path class="st2" d="M46.2,27.7c0,0-1.3,8.8-1,11.4c0.3,2.6,2.5,6.4,4.3,6.1c1.9-0.3,2.1-3.6,2.1-3.6s1.6,3.4,3.4,2.6
		c1.7-0.8,1.8-3.4,1.8-3.4s2.1,3.3,3.6,2c1.5-1.3,1.3-4.1,1.3-4.1s1.1-0.2,1.6-0.5c0.4-0.3,1.8-2.8,1.7-5.2
		c-0.1-2.4-0.2-9.4-5.2-9.1C54.7,24.3,51.2,30,46.2,27.7L46.2,27.7z"/>
</g>
<g>
	<path class="st3" d="M21.9,29.3c0,0-2,0.8-4.3-0.1c-2.3-0.9-7.8-4.1-9.2-3.9c-1.4,0.2-4.2,0.4-4.6,3.7c-0.4,3.3-1.5,9.8,0.9,10.5
		c2.4,0.7,3.7-0.5,4-2.1c0.3-1.6,1.5-5,1.5-5s3.6,4.2,6.2,4.1c2.6-0.1,5-1.5,5-1.5L21.9,29.3L21.9,29.3z"/>
</g>
<g>
	<path class="st3" d="M46,28l-0.5,5.2c0,0,2.8,1.9,6.2,1.1c3.5-0.8,6-3.6,6-3.6s1.7,8.2,4.7,7.9c1.7-0.3,3-5.3,2.6-8
		c-0.4-2.7-1.6-6.8-5.2-6.6C56.1,24.1,53,28.6,46,28L46,28z"/>
</g>
<g>
	<path class="st4" d="M28.1,60.4c-0.1,0-0.3,0-0.4-0.1c-8.7-7.9-7.5-18.7-6.4-28.2c0.9-7.9,1.8-15.4-3.2-19.9
		c-0.1-0.1-0.2-0.3-0.1-0.5c0.1-0.2,0.2-0.3,0.4-0.4L42.5,7c0.2,0,0.3,0,0.4,0.1c5.4,4.9,4.5,12.6,3.5,20.7
		c-1.1,9.7-2.3,19.8,6.1,27.3c0.1,0.1,0.2,0.3,0.1,0.5s-0.2,0.3-0.4,0.4L28.1,60.4z M19.4,12.1c4.6,4.9,3.7,12.3,2.8,20
		c-1.1,9.7-2.3,19.7,5.9,27.2l23-4.1c-7.9-7.8-6.7-18.3-5.6-27.5c0.9-7.8,1.7-15.2-3-19.7L19.4,12.1z"/>
</g>
<g>
	<path class="st4" d="M26.5,18.8c-0.1,0-0.1,0-0.2,0c-0.8,0-1.5-0.4-2.1-0.9c-0.6-0.6-1-1.3-1.1-2c-0.1-0.8,0.1-1.5,0.6-2.1
		c1-1.1,2.8-1,4.1,0.1c1.3,1.2,1.5,3,0.5,4.1l0,0C27.9,18.5,27.3,18.8,26.5,18.8z M25.6,14c-0.4,0-0.8,0.1-1.1,0.5
		c-0.3,0.3-0.4,0.8-0.3,1.2c0.1,0.5,0.4,1,0.8,1.4s1,0.6,1.5,0.7c0.5,0,0.9-0.1,1.2-0.4l0,0c0.6-0.7,0.4-1.9-0.5-2.7
		C26.7,14.2,26.1,14,25.6,14z"/>
</g>
<g>
	<path class="st4" d="M29.1,57.1c-0.8,0-1.6-0.3-2.3-0.9c-1.3-1.2-1.5-3-0.5-4.1c1-1.1,2.8-1,4.1,0.1c0.6,0.6,1,1.3,1.1,2
		c0.1,0.8-0.1,1.5-0.6,2.1C30.5,56.9,29.8,57.1,29.1,57.1z M28.1,52.3c-0.4,0-0.8,0.1-1.1,0.5c-0.6,0.7-0.4,1.9,0.5,2.7
		c0.9,0.8,2.1,0.9,2.7,0.2c0.3-0.3,0.4-0.8,0.3-1.2c-0.1-0.5-0.4-1-0.8-1.4C29.3,52.6,28.7,52.3,28.1,52.3z"/>
</g>
<g>
	<path class="st4" d="M44,55c-0.1,0-0.1,0-0.2,0c-0.8,0-1.5-0.4-2.1-0.9c-1.3-1.2-1.5-3-0.5-4.1c1-1.1,2.8-1,4.1,0.1
		c0.6,0.6,1,1.3,1.1,2c0.1,0.8-0.1,1.5-0.6,2.1C45.4,54.7,44.7,55,44,55z M43,50.2c-0.4,0-0.8,0.1-1.1,0.5c-0.6,0.7-0.4,1.9,0.5,2.7
		c0.4,0.4,1,0.6,1.5,0.7c0.5,0,0.9-0.1,1.2-0.4c0.3-0.3,0.4-0.8,0.3-1.2c-0.1-0.5-0.4-1-0.8-1.4C44.1,50.4,43.5,50.2,43,50.2z"/>
</g>
<g>
	<path class="st4" d="M41.6,16.3c-0.1,0-0.1,0-0.2,0c-0.8,0-1.5-0.4-2.1-0.9s-1-1.3-1.1-2c-0.1-0.8,0.1-1.5,0.6-2.1
		c1-1.1,2.8-1,4.1,0.1c1.3,1.2,1.5,3,0.5,4.1C43,16,42.4,16.3,41.6,16.3z M40.7,11.5c-0.4,0-0.8,0.1-1.1,0.5
		c-0.3,0.3-0.4,0.8-0.3,1.2c0.1,0.5,0.4,1,0.8,1.4c0.4,0.4,1,0.6,1.5,0.7c0.5,0,0.9-0.1,1.2-0.4c0,0,0,0,0,0
		c0.6-0.7,0.4-1.9-0.5-2.7C41.8,11.7,41.2,11.5,40.7,11.5z"/>
</g>
<g>
	<path class="st4" d="M34.3,47.3C34.3,47.3,34.3,47.3,34.3,47.3c-2,0-3.9-1.4-5.2-3.9c-1.3-2.4-2-5.5-2-8.9c0-3.3,0.8-6.5,2.1-8.9
		c1.4-2.5,3.2-3.8,5.2-3.8c0,0,0,0,0,0c2,0,3.8,1.4,5.2,3.9c1.3,2.4,2,5.5,2,8.9s-0.8,6.5-2.1,8.9C38.2,45.9,36.3,47.3,34.3,47.3z
		 M34.4,22.9c-1.6,0-3.1,1.2-4.3,3.3c-1.2,2.2-1.9,5.2-2,8.4c0,3.2,0.6,6.2,1.9,8.4c1.2,2.1,2.7,3.3,4.3,3.3c1.6,0,3.2-1.2,4.4-3.3
		c1.2-2.2,1.9-5.2,2-8.4l0.5,0l-0.5,0c0-3.2-0.6-6.2-1.9-8.4C37.6,24.1,36,22.9,34.4,22.9C34.4,22.9,34.4,22.9,34.4,22.9z"/>
</g>
<g>
	<path class="st4" d="M5.7,40.6c-0.2,0-0.4,0-0.6-0.1c-3.2-0.7-2.6-7.4-2.4-8.7c0.5-4,2-6.4,4.2-6.8c2.5-0.5,4.2,0.5,6.1,1.6
		c2.1,1.3,4.6,2.7,9,2.2c0.3,0,0.5,0.2,0.6,0.4s-0.2,0.5-0.4,0.6c-4.8,0.5-7.5-1.1-9.6-2.3c-1.8-1.1-3.2-1.9-5.4-1.5
		c-2.4,0.5-3.2,3.9-3.4,6c-0.3,2.4-0.3,7.1,1.7,7.6c0.4,0.1,0.8,0,1.2-0.2c1.3-0.8,2.4-3.6,3.2-7.7c0-0.2,0.2-0.4,0.4-0.4
		c0.2,0,0.4,0,0.5,0.2c0,0,2.6,4,6,4.5c1.5,0.2,3-0.3,4.4-1.5c0.2-0.2,0.5-0.2,0.7,0.1c0.2,0.2,0.2,0.5-0.1,0.7
		c-1.7,1.4-3.4,2-5.2,1.7c-2.8-0.4-5-2.7-6-4c-0.6,2.9-1.6,6.1-3.4,7.2C6.7,40.4,6.2,40.6,5.7,40.6z"/>
</g>
<g>
	<path class="st4" d="M8.4,45c-0.1,0-0.1,0-0.2,0c-0.7-0.1-1.2-0.4-1.6-1c-1-1.5-0.4-4.2-0.4-4.3c0.1-0.3,0.3-0.4,0.6-0.4
		c0.3,0.1,0.4,0.3,0.4,0.6c-0.2,0.7-0.4,2.6,0.2,3.5C7.6,43.8,7.9,44,8.3,44c1.5,0.2,3.9-4.8,5-8.5c0.1-0.3,0.4-0.4,0.6-0.3
		c0.3,0.1,0.4,0.4,0.3,0.6C13.8,37.4,11.2,45,8.4,45z"/>
</g>
<g>
	<path class="st4" d="M13.6,46.3C13.5,46.3,13.5,46.3,13.6,46.3c-0.7,0-1.3-0.3-1.7-0.8c-1.2-1.4-0.8-4.3-0.7-4.4
		c0-0.3,0.3-0.5,0.6-0.4c0.3,0,0.5,0.3,0.4,0.6c-0.1,0.7-0.2,2.7,0.5,3.6c0.2,0.3,0.5,0.4,0.9,0.4c0,0,0,0,0,0
		c1.5,0,3.4-5.2,4.2-8.9c0.1-0.3,0.3-0.4,0.6-0.4c0.3,0.1,0.4,0.3,0.4,0.6C18.4,38.2,16.4,46.3,13.6,46.3z"/>
</g>
<g>
	<path class="st4" d="M18.6,47.2C18.6,47.2,18.5,47.2,18.6,47.2c-0.8,0-1.3-0.3-1.7-0.8c-1.2-1.4-0.7-4.3-0.7-4.4
		c0-0.3,0.3-0.5,0.6-0.4c0.3,0,0.5,0.3,0.4,0.6c-0.1,0.7-0.2,2.7,0.5,3.6c0.2,0.3,0.5,0.4,0.9,0.4c0.5,0.1,1.2-0.7,1.9-2
		c0.1-0.2,0.4-0.3,0.7-0.2c0.2,0.1,0.3,0.4,0.2,0.7C20.4,46.4,19.5,47.2,18.6,47.2z"/>
</g>
<g>
	<path class="st4" d="M62.3,39.1c-0.5,0-0.9-0.1-1.4-0.4c-1.7-1.1-2.8-4.4-3.4-7.2c-1.5,1.8-5.4,5.2-11.9,2.4
		c-0.3-0.1-0.4-0.4-0.3-0.7c0.1-0.3,0.4-0.4,0.7-0.3c7.8,3.2,11.2-2.7,11.4-3c0.1-0.2,0.3-0.3,0.5-0.2c0.2,0,0.4,0.2,0.4,0.4
		c0.7,4.1,1.9,6.9,3.2,7.7c0.4,0.3,0.8,0.3,1.2,0.2c2-0.5,1.9-5.2,1.7-7.6c-0.2-2-1-5.5-3.4-6c-2.1-0.4-3.6,0.4-5.4,1.5
		c-2.2,1.3-4.9,2.9-9.6,2.3c-0.3,0-0.5-0.3-0.4-0.6c0-0.3,0.3-0.5,0.6-0.4c4.4,0.5,6.9-0.9,9-2.2c1.8-1.1,3.6-2.1,6.1-1.6
		c2.3,0.4,3.8,2.9,4.2,6.8c0.2,1.3,0.8,8-2.4,8.7C62.7,39.1,62.5,39.1,62.3,39.1z"/>
</g>
<g>
	<path class="st4" d="M59.7,43.6c-2.8,0-5.4-7.6-5.9-9.2c-0.1-0.3,0.1-0.5,0.3-0.6c0.3-0.1,0.5,0.1,0.6,0.3c1.2,3.6,3.5,8.7,5,8.5
		c0.4-0.1,0.7-0.2,0.9-0.5c0.6-0.9,0.4-2.9,0.2-3.5c-0.1-0.3,0.1-0.5,0.4-0.6c0.3-0.1,0.5,0.1,0.6,0.4c0,0.1,0.7,2.8-0.4,4.3
		c-0.4,0.5-0.9,0.9-1.6,1C59.8,43.6,59.7,43.6,59.7,43.6z"/>
</g>
<g>
	<path class="st4" d="M54.4,44.8c-2.9,0-4.9-8-5.2-9.7c-0.1-0.3,0.1-0.5,0.4-0.6c0.3-0.1,0.5,0.1,0.6,0.4c0.8,3.7,2.7,8.9,4.2,8.9
		c0,0,0,0,0,0c0.4,0,0.7-0.2,0.9-0.4c0.7-0.9,0.6-2.9,0.5-3.6c0-0.3,0.1-0.5,0.4-0.6c0.3,0,0.5,0.1,0.6,0.4c0,0.1,0.4,3-0.7,4.4
		C55.8,44.5,55.2,44.8,54.4,44.8C54.5,44.8,54.5,44.8,54.4,44.8z"/>
</g>
<g>
	<path class="st4" d="M49.4,45.8c-1,0-3-1-4.6-4.7c-0.1-0.3,0-0.5,0.3-0.7c0.3-0.1,0.5,0,0.7,0.3c1.4,3.4,3.1,4.2,3.6,4.1
		c0.4,0,0.7-0.2,0.9-0.4c0.7-0.9,0.6-2.9,0.5-3.6c0-0.3,0.1-0.5,0.4-0.6c0.3,0,0.5,0.1,0.6,0.4c0,0.1,0.4,3-0.7,4.4
		C50.7,45.5,50.2,45.7,49.4,45.8C49.5,45.8,49.5,45.8,49.4,45.8z"/>
</g>
</svg>
