<svg xmlns="http://www.w3.org/2000/svg" id="Layer_1" viewBox="0 0 68 68"><defs><clipPath id="clippath"><path d="M0 0h68v68H0z" class="st0"/></clipPath><style>.st0,.st1{fill:none}.st2{fill:#ffc68c}.st3{fill:#ffed8f}.st4{fill:#d18000}.st1{stroke:#002140;stroke-linecap:round;stroke-linejoin:round;stroke-width:1px}.st5{clip-path:url(#clippath)}</style></defs><g class="st5"><path d="M28.2 37.15s.887-3.937 3.613-7.801S43.665 15.33 45.377 12.364s2.807-7.772 2.807-7.772 1.187-1.886 2.947-1.165c1.76.718 1.708 2.863 1.708 2.863s-1.121 5.879-4.244 10.602-11.499 13.925-12.772 15.959-3.225 6.443-3.225 6.443z" class="st4"/><path d="m31.984 43.784.303-1.211.495-1.198s.718-1.761-1.803-3.216-4.076-.476-4.076-.476l-.728 1.26-1.398 1.565 7.209 3.271-.003.004Z" class="st3"/><path d="M28.267 64.38s-.281-2.141.109-3.957c.391-1.818 3.633-11.547 3.477-12.758s-.021-5.218-2.844-6.717c-2.826-1.5-5.545.356-5.759.498-.213.142-3.103 2.294-3.381 2.661s-5.516 7.954-7.034 8.529-3.588 1.421-3.588 1.421.55.648 1.27.995c.721.351 2.414.273 2.414.273s.979 2.872 1.685 3.017 2.447-.697 2.447-.697l.809 2.708 2.821-.546 1.276 3.043s2.973-.128 3.06-.278 1.675 2.353 3.242 1.806h-.003Z" class="st2"/><path d="M32.638 39.555c1.645-10.132 19.713-20.566 20.031-33.911a2.33 2.33 0 0 0-1.172-2.068c-1.428-.825-3.215.051-3.486 1.676-2.049 12.313-18.267 22.158-19.822 31.731" class="st1"/><path d="M26.022 39.215c1.166-2.339 2.961-2.269 4.845-1.181s3.015 2.804 1.247 4.874" class="st1"/><path d="M24.897 40.321c.934-1.618 3.218-2.049 5.102-.961s2.653 3.281 1.719 4.899" class="st1"/><path d="M28.406 64.696c-2.457-3.791 8.501-20.206.363-23.916-8.141-3.711-13.692 14.637-19.842 12.964" class="st1"/><path d="M8.924 53.743s1.987 2.664 4.176 1.159c0 0-.333 1.718 1.583 3.42l2.454-.824.686 3.033 3.078-.991.828 3.246s2.403.86 3.345-.772c0 0-.298 2.003 3.331 2.68" class="st1"/><path d="M17.135 57.497c3.58-1.819 2.787-6.314 4.55-8.908m8.209-6.796s.934 3.177-.938 7.105m-.515-8.009s-3.352.898-5.608 4.805m6.457-4.449s-.835 2.814-2.054 4.812m-.521 8.205s-2.936 4.631-1.642 7.753m-2.779-5.231-1.393 2.754m10.051-26.395c.512.296 1.282-.079 1.72-.837s.377-1.612-.135-1.908-1.282.079-1.72.837-.377 1.612.135 1.908M51.437 3.618c-.446 1.831-1.428 3.485-2.007 5.278s-.685 3.922.48 5.403m-7.106 2.292c.14 1.523-.482 3.023-1.315 4.306s-1.879 2.413-2.742 3.676a15.43 15.43 0 0 0-2.64 7.758" class="st1"/></g></svg>