<svg xmlns="http://www.w3.org/2000/svg" xmlns:xlink="http://www.w3.org/1999/xlink" id="Layer_1" x="0" y="0" version="1.1" viewBox="0 0 101 100" style="enable-background:new 0 0 101 100" xml:space="preserve"><style type="text/css">.st0{fill:#fffaf0}.st1{fill:#ffeaaa}.st2{fill:#b1f2d6}.st3{fill:none;stroke:#002140;stroke-linecap:round;stroke-linejoin:round}.st4{fill:#002140}</style><path d="M83.4,41l-0.1-5c0,0-1.9-4.2-2.8-4.3c-0.9-0.1-29.6-10.2-29.6-10.2s-2.7,0.7-3.6,0.9c-1,0.2-26.4,9-26.4,9	s-2.4,1.1-3.1,3.9s-0.9,6.4-0.9,6.4s-0.7,0.7-0.8,2.2c-0.1,1.5,0.1,32.7,0.1,32.7s-0.2,1.9,2.1,2c2.3,0.1,65.7,0,65.7,0	s1.2-1,1.2-2.2s0.4-34,0.4-34S84.6,40.8,83.4,41L83.4,41z" class="st0"/><path d="M31.9,55.4c0,0,3.6-14.2,1.7-14.1c-1.9,0-16.3,0.3-16.3,0.3S16,41.9,16,42.9v1L31.9,55.4L31.9,55.4z" class="st1"/><path d="M64.6,57.4c0.6,1.3,21-15,21-15S85,40.7,83.4,41c-1.7,0.3-10.5-0.7-13,0.3C67.7,42.3,64,56.1,64.6,57.4	L64.6,57.4z" class="st1"/><path d="M25.1,46l0.7,4.8l9.5,6.9l30.1-0.3c0,0,8.1-6.8,8.9-6.9c0.7-14.4,8.3-28.4,8.3-28.4l-1.1-0.8l-5.3,0.9l-3.1-2.9	l-4.9,3.2l-4.5-3.6L58,22.2l-3.4-3.7l-5.7,3.4l-2.3-4.4l-5.5,4.1l-4.7-3.9C36.4,17.6,25.1,22.8,25.1,46L25.1,46z" class="st2"/><path d="M24.8,41.3h-7.3c-1,0-1.7,0.8-1.7,1.7v34c0,1,0.8,1.7,1.7,1.7h66.2c1,0,1.7-0.8,1.7-1.7V43c0-1-0.8-1.7-1.7-1.7	h-7.8" class="st3"/><path d="M24.7,78.6l10.4-20.5" class="st3"/><path d="M64.8,57.9l9.8,20.7" class="st3"/><path d="M79,31.4l0.6,0.2c2.2,0.8,3.7,2.8,3.7,5.1l0,4.2" class="st3"/><path d="M17.2,40.8v-4.4c0-2.3,1.5-4.4,3.7-5.1l7-2.4" class="st3"/><path d="M16,44.2l19.2,13.6h29.6L85.4,43" class="st3"/><path d="M25.3,50.8c0,0-4.4-17.5,11.2-33.8l3.8,4.9l6-4.6l2.7,4.6l5.6-3.9l3.9,4.2l5.4-3.8l4.2,4.2l5.7-3.6l3.6,3.8	c0,0,3.8-1.5,6-1.8c-8.3,14.7-8.9,29.7-8.9,29.7" class="st3"/><path d="M50.6,51c2.1,0,4.1-0.4,5.1-0.8c0.9-0.3,1.1-0.7,1.1-1.2s-0.4-0.6-0.6-0.6c-0.6,0-1.7,0.7-4.9,0.7	c-5.2,0-8.3-3-8.3-7.3c0-5.8,4.2-9.6,9.5-9.6c4.9,0,8.2,2.8,8.2,7.5c0,3.1-1.4,5.3-2.9,5.3c-0.9,0-1-0.9-0.9-1.6l0.5-4.6	c0.2-2.3,0.5-2.6,0.5-3.2c0-0.4-0.2-0.6-0.7-0.6c-0.7,0-1.3,0.5-1.8,1.2c-0.8-0.8-2-1.3-3.5-1.3c-3.6,0-6.3,2.8-6.3,6.7	c0,2.9,1.8,4.8,4.4,4.8c1.7,0,3.1-0.8,4.1-2c0.3,1.6,1.5,2.5,3.3,2.5c3.2,0,5.8-3.2,5.8-7.5c0-5.4-4.1-9-10.3-9	c-7.4,0-12.7,4.9-12.7,11.7C40.2,47.5,44.3,51,50.6,51z M49.2,41.7c0-3,1.2-5.1,2.9-5.1c1.1,0,2,0.8,2,2.7c0,3-1.2,5.2-2.9,5.2	C50.1,44.5,49.2,43.5,49.2,41.7z" class="st4"/></svg>