<svg xmlns="http://www.w3.org/2000/svg" width="48" height="48" fill="none" viewBox="0 0 48 48"><path fill="#003c73" stroke="#002140" stroke-miterlimit="10" stroke-width=".857" d="M36.326 39.842H12.067c-1.62 0-3.126-1.334-3.126-3.597V11.743c0-2.26 1.507-3.272 3.126-3.272h24.257c1.62 0 3.126 1.012 3.126 3.272v24.502c0 2.263-1.51 3.597-3.126 3.597Z"/><path fill="#5ab0ff" stroke="#002140" stroke-miterlimit="10" stroke-width=".857" d="M35.334 38.556h-22.47c-1.986 0-2.562-1.078-2.562-2.399V12.176c0-1.322.573-2.399 2.563-2.399h22.469c1.986 0 2.701 1.077 2.701 2.399v23.981c0 1.321-.844 2.399-2.701 2.399Z"/><path fill="#0676de" d="M13.727 26.76V12.08h2.107v14.68"/><path stroke="#002140" stroke-miterlimit="10" stroke-width=".857" d="M13.727 26.76V12.08h2.107v14.68"/><path fill="#0676de" d="M15.834 28.185v8.493h-2.107v-8.493"/><path stroke="#002140" stroke-miterlimit="10" stroke-width=".857" d="M15.834 28.185v8.493h-2.107v-8.493"/><path fill="#002140" stroke="#002140" stroke-miterlimit="10" stroke-width=".857" d="M13.727 28.606h-1.286v-1.619h4.679v1.619z"/><path fill="#0676de" d="M19.422 16.063V12.08h2.104v3.984"/><path stroke="#002140" stroke-miterlimit="10" stroke-width=".857" d="M19.422 16.063V12.08h2.104v3.984"/><path fill="#0676de" d="M21.526 16.973v19.705h-2.104V16.973"/><path stroke="#002140" stroke-miterlimit="10" stroke-width=".857" d="M21.526 16.973v19.705h-2.104V16.973"/><path fill="#002140" stroke="#002140" stroke-miterlimit="10" stroke-width=".857" d="M19.422 17.505h-1.29v-1.507h4.683v1.507z"/><path fill="#0164bf" stroke="#002140" stroke-miterlimit="10" stroke-width=".857" d="M28.432 14.01a1.99 1.99 0 0 1-1.17 1.818 1.98 1.98 0 0 1-1.61.018 2 2 0 0 1-.6-.4 2 2 0 0 1-.448-.642 2 2 0 0 1-.165-.792 2 2 0 0 1 .597-1.424 2 2 0 0 1 .627-.412 1.97 1.97 0 0 1 1.513-.012 1.97 1.97 0 0 1 1.083 1.045 2 2 0 0 1 .17.806zm.001 5.131a1.98 1.98 0 0 1-.518 1.34 2 2 0 0 1-.654.476c-.25.115-.53.18-.824.18a1.9 1.9 0 0 1-.782-.162 2 2 0 0 1-.604-.4 1.96 1.96 0 0 1-.61-1.43 1.98 1.98 0 0 1 .602-1.425c.179-.177.39-.318.623-.415a1.97 1.97 0 0 1 1.513-.012c.238.094.453.236.636.41a2 2 0 0 1 .618 1.442zm-.001 5.129a1.99 1.99 0 0 1-1.998 1.996c-.28 0-.544-.056-.783-.162a2 2 0 0 1-.603-.4 2.1 2.1 0 0 1-.447-.645 2 2 0 0 1-.162-.788q.002-.399.144-.745a2 2 0 0 1 .453-.68 1.98 1.98 0 0 1 1.395-.568c.274 0 .515.05.745.145s.456.235.638.409q.285.272.445.636a2 2 0 0 1 .17.806zm0 5.133q-.002.417-.159.78a2.02 2.02 0 0 1-1.012 1.036c-.25.115-.53.18-.827.18a1.97 1.97 0 0 1-1.386-.563 1.96 1.96 0 0 1-.61-1.43q.003-.398.145-.747a2 2 0 0 1 .453-.68 2 2 0 0 1 .627-.412 1.97 1.97 0 0 1 1.513-.012 2 2 0 0 1 1.083 1.042c.109.247.17.52.17.81zm.001 5.13a1.98 1.98 0 0 1-.518 1.339c-.183.2-.403.364-.654.476-.25.115-.53.18-.824.18a1.9 1.9 0 0 1-.782-.162 2 2 0 0 1-.604-.4 1.96 1.96 0 0 1-.61-1.43 2 2 0 0 1 .597-1.424 1.98 1.98 0 0 1 2.14-.427 1.97 1.97 0 0 1 1.083 1.045 2 2 0 0 1 .172.805zm6.518-20.523a1.99 1.99 0 0 1-1.171 1.818 1.98 1.98 0 0 1-1.61.018 2 2 0 0 1-.6-.4 1.97 1.97 0 0 1-.613-1.434 2 2 0 0 1 .597-1.424 2 2 0 0 1 .628-.412 1.97 1.97 0 0 1 1.512-.012 1.97 1.97 0 0 1 1.083 1.045 2 2 0 0 1 .171.806zm0 5.131a1.98 1.98 0 0 1-.518 1.34c-.182.2-.403.364-.653.476-.25.115-.53.18-.824.18a1.9 1.9 0 0 1-.783-.162 2 2 0 0 1-.603-.4 1.96 1.96 0 0 1-.61-1.43c0-.263.05-.516.145-.745.103-.26.259-.492.456-.68.18-.177.391-.318.624-.415a1.97 1.97 0 0 1 1.512-.012c.239.094.453.236.636.41a2 2 0 0 1 .618 1.442zm0 5.129a1.99 1.99 0 0 1-1.998 1.996c-.28 0-.545-.056-.783-.162a2 2 0 0 1-.603-.4 2.1 2.1 0 0 1-.448-.645 2 2 0 0 1-.162-.788q.001-.399.145-.745c.103-.256.259-.488.453-.68a1.98 1.98 0 0 1 1.395-.568c.273 0 .515.05.744.145a1.97 1.97 0 0 1 1.083 1.045 2 2 0 0 1 .171.806zm0 5.133a1.98 1.98 0 0 1-.518 1.34c-.182.2-.403.361-.653.476s-.53.18-.827.18a1.97 1.97 0 0 1-1.386-.563 1.96 1.96 0 0 1-.61-1.43q.001-.398.145-.747a1.95 1.95 0 0 1 1.08-1.092 1.97 1.97 0 0 1 1.512-.012 2 2 0 0 1 1.083 1.042c.11.247.171.52.171.81zm0 5.13a1.98 1.98 0 0 1-.518 1.339c-.182.2-.403.364-.653.476-.25.115-.53.18-.824.18a1.9 1.9 0 0 1-.783-.162 2 2 0 0 1-.603-.4 1.96 1.96 0 0 1-.61-1.43 2 2 0 0 1 .598-1.424 1.98 1.98 0 0 1 2.14-.427 1.97 1.97 0 0 1 1.083 1.045 2 2 0 0 1 .17.805z"/></svg>