<?xml version="1.0" encoding="utf-8"?>
<!-- Generator: Adobe Illustrator 28.1.0, SVG Export Plug-In . SVG Version: 6.00 Build 0)  -->
<svg version="1.1" id="Layer_1" xmlns="http://www.w3.org/2000/svg" xmlns:xlink="http://www.w3.org/1999/xlink" x="0px" y="0px"
	 viewBox="0 0 68 68" style="enable-background:new 0 0 68 68;" xml:space="preserve">
<style type="text/css">
	.st0{clip-path:url(#SVGID_00000007408140504626337100000002663035559610485891_);}
	.st1{fill:#FBCCFF;}
	.st2{fill:none;stroke:#002140;stroke-width:1;stroke-linecap:round;stroke-linejoin:round;}
	.st3{fill:#FFFAF0;}
	.st4{fill:#FFF2B2;}
	.st5{fill:#00B268;}
	.st6{fill:#8EECC4;}
	.st7{fill:#085239;}
	.st8{fill:#FED607;}
</style>
<g>
	<defs>
		<rect id="SVGID_1_" y="0" width="68" height="68"/>
	</defs>
	<clipPath id="SVGID_00000006682679630598397630000016367162915341145483_">
		<use xlink:href="#SVGID_1_"  style="overflow:visible;"/>
	</clipPath>
	<g style="clip-path:url(#SVGID_00000006682679630598397630000016367162915341145483_);">
		<path class="st1" d="M10.436,43.988l-4.283-2.759L5.45,42.08l0.454,4.673l-4.463,3.924l1.033,0.751l4.549,1.407l1.872,5.053
			l1.136-0.358l3.134-3.9l5.006-0.65l0.237-0.885l-3.053-4.515l0.97-5.049l-0.768-0.3L10.436,43.988z"/>
		<path class="st2" d="M6.936,41.407l3.742,2.5c0.228,0.152,0.52,0.182,0.776,0.079l4.181-1.666
			c0.646-0.256,1.304,0.338,1.116,1.005l-1.221,4.333c-0.077,0.265-0.016,0.55,0.161,0.763l2.876,3.459
			c0.443,0.533,0.083,1.345-0.61,1.371l-4.499,0.177c-0.274,0.009-0.528,0.156-0.676,0.39l-2.403,3.807
			c-0.369,0.587-1.252,0.493-1.492-0.157l-1.558-4.22c-0.096-0.26-0.312-0.455-0.58-0.521l-4.363-1.109
			c-0.671-0.171-0.856-1.038-0.312-1.469l3.533-2.788c0.217-0.17,0.334-0.436,0.319-0.712l-0.294-4.49
			c-0.043-0.692,0.724-1.135,1.301-0.751L6.936,41.407z"/>
		<path class="st3" d="M54.712,26.073l-0.072-3.245c0,0-1.21-2.73-1.804-2.815C52.243,19.929,33.5,13.376,33.5,13.376
			s-1.732,0.434-2.381,0.577c-0.649,0.144-17.24,5.845-17.24,5.845s-1.588,0.721-2.019,2.524s-0.577,4.184-0.577,4.184
			s-0.434,0.434-0.505,1.442c-0.072,1.011,0.072,21.353,0.072,21.353s-0.144,1.226,1.37,1.298c1.517,0.072,42.853,0,42.853,0
			s0.792-0.649,0.792-1.442c0-0.793,0.287-22.149,0.287-22.149s-0.649-1.083-1.442-0.939L54.712,26.073z"/>
		<path class="st4" d="M23.331,37.039l1.226-10.678L11.57,26.433c0,0-0.793,0.215-0.793,0.864v0.649l12.554,9.09V37.039z"/>
		<path class="st4" d="M49.879,31.703l6.275-4.69c0,0-0.362-1.155-1.441-0.939c-1.08,0.215-20.026,0.137-20.026,0.137l0.594,3.102
			L49.879,31.703L49.879,31.703z"/>
		<path class="st5" d="M49.553,22.962l-12.42,0.349L34.99,13.97l-1.393-2.678l-21.523-0.323c0,0,2.678,9.745,2.462,13.92
			c-0.215,4.175-0.607,5.287-0.607,5.287l9.321,7.081l17.573,0.336l0.372,0.789h18.418c0,0,0.427-8.137-1.605-11.135
			c-2.032-2.997-4.175-3.855-4.175-3.855l-4.282-0.427V22.962z"/>
		<path class="st6" d="M18.768,18.037c1.036,0,1.875-0.84,1.875-1.875c0-1.036-0.84-1.875-1.875-1.875s-1.875,0.84-1.875,1.875
			C16.892,17.198,17.732,18.037,18.768,18.037z"/>
		<path class="st6" d="M30.326,17.698c1.118,0,2.025-0.791,2.025-1.768s-0.907-1.768-2.025-1.768c-1.119,0-2.025,0.792-2.025,1.768
			S29.207,17.698,30.326,17.698z"/>
		<path class="st6" d="M30.708,23.497c0,0-1.712-2.355-4.282-1.712c-2.57,0.642-4.713,5.248-4.817,7.068
			c-0.108,1.82,1.618,6.849,1.618,6.849l1.06-1.389c0,0,1.07-8.78,6.425-10.815H30.708z"/>
		<path class="st6" d="M50.73,23.604l-11.35-0.108c0,0,3.105,3.213,6.317,2.997C48.91,26.279,50.73,23.604,50.73,23.604z"/>
		<path class="st6" d="M45.11,36.666c1.153,0,2.087-0.935,2.087-2.087c0-1.153-0.934-2.087-2.087-2.087
			c-1.153,0-2.087,0.935-2.087,2.087C43.023,35.732,43.957,36.666,45.11,36.666z"/>
		<path class="st6" d="M54.865,36.438c1.153,0,2.087-0.935,2.087-2.087c0-1.153-0.935-2.087-2.087-2.087s-2.087,0.935-2.087,2.087
			C52.777,35.504,53.712,36.438,54.865,36.438z"/>
		<path class="st7" d="M23.8,36.856l17.097,0.036c0,0,0.792-13.372-7.622-13.395c-10.271,0.444-9.478,13.356-9.478,13.356
			L23.8,36.856z"/>
		<path class="st2" d="M14.205,26.246h-2.463c-0.623,0-1.128,0.506-1.128,1.128v22.191c0,0.623,0.505,1.128,1.128,1.128h43.156
			c0.623,0,1.128-0.506,1.128-1.128v-10.89"/>
		<path class="st2" d="M16.475,50.639l6.781-13.382"/>
		<path class="st2" d="M43.375,38.757l5.62,11.852"/>
		<path class="st2" d="M35.362,13.974l16.878,5.959c1.429,0.506,2.387,1.826,2.4,3.314l0.01,0.985"/>
		<path class="st2" d="M11.568,25.93v-2.864c0-1.507,0.969-2.851,2.42-3.353l0.131-0.046"/>
		<path class="st2" d="M10.777,28.167l12.554,8.871h14.334h3.164"/>
		<path class="st2" d="M36.588,23.148c-0.059-3.708-0.711-7.971-2.668-12.071l-22.005-0.483c3.539,7.41,2.815,15.355,2.019,19.582"
			/>
		<path class="st2" d="M23.8,36.856c0-9.269,4.263-13.545,8.813-13.545c4.55,0,8.242,4.853,8.242,10.841
			c0,0.287,0.075,4.39,0.075,4.39h18.688c0,0-0.075-4.103-0.075-4.39c0-5.988-3.689-10.841-8.242-10.841H32.612"/>
		<path class="st2" d="M18.715,18.145c1.241,0,2.247-0.959,2.247-2.143c0-1.184-1.006-2.143-2.247-2.143s-2.247,0.959-2.247,2.143
			C16.468,17.185,17.474,18.145,18.715,18.145z"/>
		<path class="st2" d="M30.281,18.037c1.241,0,2.247-0.959,2.247-2.143c0-1.184-1.006-2.143-2.247-2.143s-2.247,0.959-2.247,2.143
			C28.034,17.078,29.04,18.037,30.281,18.037z"/>
		<path class="st2" d="M45.29,36.572c1.241,0,2.247-0.959,2.247-2.143c0-1.183-1.006-2.143-2.247-2.143
			c-1.241,0-2.247,0.959-2.247,2.143C43.042,35.613,44.049,36.572,45.29,36.572z"/>
		<path class="st2" d="M54.866,36.494c1.241,0,2.247-0.959,2.247-2.143c0-1.184-1.006-2.143-2.247-2.143s-2.247,0.959-2.247,2.143
			C52.618,35.534,53.625,36.494,54.866,36.494z"/>
		<path class="st2" d="M23.656,35.845c-1.729-1.641-2.159-4.445-2.159-5.975c0-4.406,2.564-7.978,5.727-7.978
			c1.187,0,2.29,0.502,3.203,1.363"/>
		<path class="st2" d="M50.619,23.344c-0.049,0.352-0.153,0.692-0.316,1.008c-1.204,2.355-5.166,2.733-8.852,0.848
			c-0.923-0.47-1.738-1.04-2.427-1.663"/>
		<path class="st8" d="M60.287,15.914l-2.33-4.531l-1.038,0.386l-1.94,4.274l-5.827,1.167l0.515,1.163l3.239,3.497l-0.909,5.312
			l1.167,0.258l4.664-1.815l4.66,1.944l0.648-0.648l-0.39-5.437l3.368-3.887l-0.519-0.648L60.287,15.914z"/>
		<path class="st2" d="M58.415,11.801l1.99,4.035c0.121,0.246,0.359,0.418,0.632,0.457l4.453,0.648
			c0.687,0.101,0.96,0.944,0.464,1.428l-3.224,3.142c-0.199,0.191-0.289,0.468-0.242,0.741l0.761,4.434
			c0.117,0.683-0.601,1.206-1.214,0.882l-3.985-2.096c-0.242-0.129-0.535-0.129-0.781,0l-3.985,2.096
			c-0.613,0.324-1.331-0.199-1.214-0.882l0.761-4.434c0.047-0.273-0.043-0.55-0.242-0.741l-3.224-3.142
			c-0.496-0.484-0.222-1.327,0.464-1.428l4.453-0.648c0.273-0.039,0.507-0.211,0.632-0.457l1.99-4.035
			c0.308-0.621,1.194-0.621,1.503,0H58.415z"/>
	</g>
</g>
</svg>
