<svg xmlns="http://www.w3.org/2000/svg" xml:space="preserve" id="Layer_1" x="0" y="0" viewBox="0 0 68 68"><style>.st0{fill:#e4bc07}.st1,.st2{fill:none;stroke:#002140;stroke-linecap:round;stroke-linejoin:round}.st2{fill:#002140}.st3{fill:#ff7101}.st4{fill:#fbccff}.st5{fill:#002140}</style><path d="m12.319 13.154 5.33 35.841a1.396 1.396 0 0 0 1.586 1.176l19.981-2.972a1.395 1.395 0 0 0 1.175-1.586L35.062 9.77a1.396 1.396 0 0 0-1.586-1.176l-19.982 2.972a1.4 1.4 0 0 0-1.175 1.588" class="st0"/><path d="m12.245 13.384 5.282 35.52a1.67 1.67 0 0 0 1.896 1.405l19.431-2.891a1.67 1.67 0 0 0 1.405-1.896l-5.282-35.52a1.67 1.67 0 0 0-1.896-1.405l-19.431 2.89a1.67 1.67 0 0 0-1.405 1.897" class="st1"/><path d="m16.321 11.374 5.723 38.484 3.4-.506-5.723-38.484z" class="st2"/><path d="M40.679 14.229 21.711 45.102a1.396 1.396 0 0 0 .458 1.92L39.381 57.6a1.396 1.396 0 0 0 1.92-.458l18.968-30.873a1.396 1.396 0 0 0-.458-1.92L42.599 13.77a1.395 1.395 0 0 0-1.92.459" class="st3"/><path d="M40.474 14.359 21.677 44.955a1.67 1.67 0 0 0 .548 2.296l16.737 10.286a1.67 1.67 0 0 0 2.296-.548l18.798-30.596a1.67 1.67 0 0 0-.548-2.296L42.77 13.811a1.67 1.67 0 0 0-2.296.548m-1.343 38.932 2.777-4.521m1.274-2.072 2.779-4.522" class="st1"/><path d="M37.761 43.065 34.075 40.8c-.191-.117-.57.15-.845.598l-1.81 2.944c-.154.251-.249.516-.26.722l-.065 1.342c-.007.149.032.254.108.303l2.677 1.645c.071.043.171.035.288-.024l.924-.466c.187-.095.397-.31.561-.577l1.958-3.201c.273-.447.34-.902.148-1.021z" class="st4"/><path d="m45.15 21.333-7.448 12.123a1.26 1.26 0 0 0 .414 1.734l2.303 1.415a1.26 1.26 0 0 0 1.734-.414L49.6 24.068a1.26 1.26 0 0 0-.414-1.734l-2.303-1.415a1.26 1.26 0 0 0-1.733.414" class="st5"/></svg>