<svg xmlns="http://www.w3.org/2000/svg" xml:space="preserve" id="Layer_1" x="0" y="0" viewBox="0 0 68 68"><style>.st0{fill:#008c59}.st1{fill:#e3a171}.st2{fill:none;stroke:#002140;stroke-width:.999;stroke-linecap:round;stroke-linejoin:round}.st3{fill:#085239}.st4{fill:#03d47c}</style><path d="M56.1 41 32.3 24.8c-1.1-.8-2.7-.5-3.5.7l-8.4 12.3c-.8 1.1-.5 2.7.7 3.5l23.8 16.2c1.1.8 2.7.5 3.5-.7l8.4-12.3c.7-1.2.4-2.8-.7-3.5" class="st0"/><path d="M27.3 27.6s.9.1 1.9.1c1-.1 2.4-.5 2.4-.5s.5 5.7 1.2 6.3c.7.7 3 2.4 5.2 1.2s3.1-1.4 2.7-2.9-3.5-7.3-3.5-7.3-.1-3.2-.1-3.9.7-5.2-3.2-6-6.8-.7-9.3-1.6c-2.4-.7-4.6-3-4.6-3s-9.6 3.9-9.8 12.1c0 0 3.7 3.5 5.1 6.1 1.4 2.5 3.2 8.7 5.5 8.8zM38.1 53 22.3 42.4s-4.6 3.9-2.6 6c2.1 2.1 5.5-.2 5.5-.2s-1.4 2.9 0 4.1 5.1-.4 5.1-.4-1.5 3 .7 4.1c2.3 1.1 5.9-1.6 7.1-3" class="st1"/><path d="M40.3 30.4 56 41c1.2.8 1.5 2.4.7 3.5l-8.3 12.3c-.8 1.2-2.4 1.5-3.5.7l-24-16.3c-1.2-.8-1.5-2.4-.7-3.5l7.1-10.4" class="st2"/><path d="m31.6 35.6-.3-.2c-.3-.2-.6-.1-.8.2l-.6.9c-.2.3-.1.6.2.8l.3.2c.3.2.6.1.8-.2l.6-.9c.2-.3.1-.6-.2-.8m1.3-1.9-.3-.2c-.3-.2-.6-.1-.8.2l-.4.6c-.2.3-.1.6.2.8l.3.2c.3.2.6.1.8-.2l.4-.6c.1-.2.1-.6-.2-.8m.2 3.3-.3-.2c-.3-.2-.6-.1-.8.2l-.4.6c-.2.3-.1.6.2.8l.3.2c.3.2.6.1.8-.2l.4-.6c.1-.3 0-.6-.2-.8m1.4-2.2-.3-.2c-.3-.2-.6-.1-.8.2l-.6.9c-.2.3-.1.6.2.8l.3.2c.3.2.6.1.8-.2l.6-.9c.1-.2 0-.6-.2-.8" class="st3"/><path d="m52.7 41.8-8.3-5.6c-1-.7-2.4-.4-3.1.6s-.4 2.4.6 3.1l8.3 5.6c1 .7 2.4.4 3.1-.6s.4-2.4-.6-3.1" class="st4"/><path d="M19.9 10s-9.3 3.7-9.9 12c6 4.8 6.9 12.1 10.5 15.2m1.9 5.1c-2.8 2-4.3 5.5-1.8 6.7 1.8.9 4-.4 5.4-1.5" class="st2"/><path d="M27.6 45.9c-3 2.5-4.4 5.5-1.9 6.7 1.6.8 3.5-.1 4.8-1.1" class="st2"/><path d="M32.6 49.3c-3.1 2.8-4.2 5.6-1.8 6.8 1.8.9 4.2.2 7.2-3.2M23.7 39l4.9 3.4m2.3 1.5 4.9 3.4" class="st2"/><path d="m29.2 36.2 2.7-4c.1-.2.1-.5-.1-.6l-1.4-.9c-.1-.1-.3-.1-.4-.1l-.9.3c-.1 0-.2.1-.2.2l-2 2.9c-.1.1-.1.2-.1.3v.7c0 .1.1.3.2.4l1.5 1c.2 0 .5 0 .7-.2" class="st3"/><path d="M25.2 26.2s3.9 2.9 6.6.6c-.6 5.4 2.1 10 6.9 7.7s-1.1-7.9-1.5-10.8 1.2-5.4-1.4-7.9c-2.7-2.5-11.5-.7-15.8-5.8" class="st2"/></svg>