<?xml version="1.0" encoding="UTF-8"?>
<svg id="Layer_1" xmlns="http://www.w3.org/2000/svg" version="1.1" viewBox="0 0 68 68">
  <!-- Generator: Adobe Illustrator 29.4.0, SVG Export Plug-In . SVG Version: 2.1.0 Build 152)  -->
  <defs>
    <style>
      .st0 {
        fill: none;
      }

      .st0, .st1 {
        stroke: #002140;
        stroke-linejoin: round;
      }

      .st2 {
        fill: #8dc8ff;
      }

      .st3 {
        fill: #002140;
      }

      .st4, .st1 {
        fill: #28736d;
      }
    </style>
  </defs>
  <path class="st1" d="M37.762,58.592c1.227,0,2.221-.783,2.221-1.749s-.994-1.749-2.221-1.749-2.221.783-2.221,1.749.994,1.749,2.221,1.749Z"/>
  <path class="st2" d="M53.574,26.532v13.607c0,.482-1.241.874-1.726.874h-1.309v-13.594c0-7.222-7.643-13.799-17.077-13.799s-17.077,6.582-17.077,13.803v13.594h-1.3c-.448,0-1.662-.363-1.662-.811v-13.675c.004-7.853,9.464-16.29,20.078-16.29s20.074,8.437,20.074,16.29Z"/>
  <path class="st2" d="M50.462,35.971v5.315c0,1.553-1.258,2.811-2.809,2.811h-.026c.017-.102.026-.209.026-.311v-10.314c0-.102-.008-.209-.026-.307h.026c1.552-.004,2.809,1.254,2.809,2.807Z"/>
  <path class="st4" d="M47.657,33.472v10.314c0,.102-.009.209-.026.307-.145.934-.955,1.651-1.931,1.651h-.337c-1.079,0-1.957-.879-1.957-1.958v-10.314c0-1.079.874-1.958,1.957-1.958h.337c.976,0,1.786.717,1.931,1.651.017.098.026.2.026.307Z"/>
  <path class="st3" d="M35.695,56.182c.367,0,.665.299.665.666,0,.183-.073.35-.196.469-.124.119-.286.196-.469.196h-4.007l-.102-.026c.141-.171.222-.388.222-.627v-.073c0-.209-.06-.401-.171-.559l.09-.043h3.969v-.004Z"/>
  <path class="st2" d="M31.808,56.783v.073c0,.239-.081,1.309-.222,1.48-.179.222-.448.367-.754.371l-2.255.047c-.2.004-.396-.051-.563-.158l-11.497-7.349c-.503-.324-.614-1.864-.235-2.329l.166-.201c.324-.397.895-.482,1.322-.2l10.734,7.094c.162.107.354.166.55.166h1.756c.345.004.648.179.827.444.111.158.17.354.17.559v.004Z"/>
  <path class="st4" d="M23.461,33.472v10.314c0,1.079-.878,1.958-1.957,1.958h-.333c-.405,0-.78-.124-1.091-.333-.439-.299-.754-.768-.84-1.318-.017-.098-.026-.201-.026-.307v-10.314c0-.102.009-.209.026-.307.145-.934.955-1.651,1.931-1.651h.333c1.079,0,1.957.879,1.957,1.958Z"/>
  <path class="st3" d="M20.08,45.411v4.534l-1.923-1.207v-4.85c.324.132.682.209,1.057.209h.026c.085.542.401,1.015.84,1.314Z"/>
  <path class="st2" d="M19.215,33.161h.025c-.017.102-.025.209-.025.311v10.314c0,.102.008.209.025.307h-.025c-.375.004-.729-.068-1.057-.201-1.027-.418-1.752-1.425-1.752-2.602v-5.315c0-1.553,1.258-2.811,2.809-2.811v-.004Z"/>
  <path class="st0" d="M19.236,33.165c.145-.934.955-1.651,1.931-1.651h.333c1.078,0,1.957.879,1.957,1.958v10.314c0,1.079-.878,1.958-1.957,1.958h-.333c-.405,0-.78-.124-1.091-.333-.439-.299-.754-.768-.84-1.318-.017-.098-.025-.201-.025-.307v-10.314c0-.102.008-.209.025-.307Z"/>
  <path class="st0" d="M19.215,44.097c-.375,0-.729-.072-1.057-.209-1.027-.418-1.752-1.425-1.752-2.602v-5.315c0-1.553,1.258-2.811,2.809-2.811"/>
  <path class="st0" d="M47.631,44.093c-.145.934-.955,1.651-1.931,1.651h-.337c-1.079,0-1.957-.879-1.957-1.958v-10.314c0-1.079.874-1.958,1.957-1.958h.337c.976,0,1.786.717,1.931,1.651.017.098.026.2.026.307v10.314c0,.102-.009.209-.026.307Z"/>
  <path class="st0" d="M47.656,33.161c1.552,0,2.809,1.258,2.809,2.811v5.315c0,1.553-1.257,2.811-2.809,2.811"/>
  <path class="st0" d="M50.539,41.013v-13.594c0-7.222-7.643-13.799-17.077-13.799s-17.077,6.582-17.077,13.803v13.594h-1.3c-.448,0-2.089-.363-2.089-.811v-13.675c.004-7.853,9.89-16.29,20.505-16.29s20.5,8.437,20.5,16.29v13.607c0,.482-1.667.874-2.153.874h-1.309Z"/>
  <path class="st0" d="M18.157,43.888v4.85l1.923,1.207v-4.534"/>
  <path class="st0" d="M31.637,56.224c-.179-.264-.482-.439-.827-.439h-1.756c-.196-.004-.384-.064-.55-.171l-10.734-7.094c-.426-.282-.997-.196-1.322.201l-.166.201c-.379.465-.268,2.005.235,2.329l11.497,7.349c.166.107.362.162.563.158l2.255-.047c.307-.004.576-.149.754-.371.141-.171.222-1.241.222-1.48v-.072c0-.209-.06-.401-.17-.559v-.004Z"/>
  <path class="st0" d="M31.726,56.182h3.969c.367,0,.665.299.665.666,0,.183-.073.35-.196.469-.124.119-.286.196-.469.196h-4.007"/>
</svg>