<svg xmlns="http://www.w3.org/2000/svg" width="68" height="68" fill="none" viewBox="0 0 68 68"><path fill="#722b03" d="M28.44 23.543H24v-9.045A2.497 2.497 0 0 1 26.498 12h16.616a2.5 2.5 0 0 1 2.498 2.498v9.045h-4.266v-5.374a2.495 2.495 0 0 0-2.496-2.496h-7.914a2.497 2.497 0 0 0-2.498 2.496v5.374z"/><path stroke="#002140" stroke-linecap="round" stroke-linejoin="round" d="M24 23.335v-8.837A2.497 2.497 0 0 1 26.498 12h16.616a2.5 2.5 0 0 1 2.498 2.498v8.837"/><path stroke="#002140" stroke-linecap="round" stroke-linejoin="round" d="M28.439 23.543v-5.374a2.5 2.5 0 0 1 2.498-2.496h7.913a2.495 2.495 0 0 1 2.496 2.496v5.06"/><path fill="#722b03" d="M18.228 56.074v-32.11h.417c0 1.428 1.347 2.586 3.011 2.586s3.007-1.158 3.007-2.587v-.42h20.651v.42c0 1.43 1.347 2.587 3.007 2.587s3.007-1.158 3.007-2.587v-.42h3.015a2.57 2.57 0 0 1 2.568 2.57v27.389a2.57 2.57 0 0 1-2.568 2.57H18.226z"/><path fill="#fed607" d="M45.316 23.543h6.017v.42c0 1.43-1.347 2.587-3.008 2.587-1.66 0-3.007-1.158-3.007-2.587v-.42zm-20.652 0v.42c0 1.43-1.347 2.587-3.007 2.587s-3.01-1.158-3.01-2.587v-.42z"/><path fill="#722b03" d="M18.228 23.964v32.109h-3.66A2.57 2.57 0 0 1 12 53.503V26.114a2.57 2.57 0 0 1 2.569-2.57h4.076v.42z"/><path stroke="#002140" stroke-linecap="round" stroke-linejoin="round" d="M52.33 23.543h2.014a2.57 2.57 0 0 1 2.569 2.57v27.389a2.57 2.57 0 0 1-2.569 2.57H14.57a2.57 2.57 0 0 1-2.57-2.57V26.115a2.57 2.57 0 0 1 2.569-2.57h37.76zM18.229 56.075V23.964M52 56.075V23.964"/><path stroke="#002140" stroke-linecap="round" stroke-linejoin="round" d="M24.664 23.964c0 1.429-1.347 2.586-3.007 2.586s-3.01-1.157-3.01-2.586m32.683 0c0 1.429-1.346 2.586-3.006 2.586s-3.008-1.157-3.008-2.586"/></svg>