<svg xmlns="http://www.w3.org/2000/svg" width="204" height="204" fill="none" viewBox="0 0 204 204"><mask id="a" fill="#fff"><path d="M84.492 108c6.968 0 13.938 1.202 20.443 3.396q-.316.294-.624.602c-9.958 9.958-9.958 26.104 0 36.063a26 26 0 0 0 2.666 2.32l.001 11.619H45.501c-9.555 0-15-3-15-12 0-24 27-42 53.99-42m.008-54c13.255 0 24 10.745 24 24s-10.745 24-24 24c-13.254 0-24-10.745-24-24s10.746-24 24-24"/></mask><path fill="#03d47c" d="M84.492 108c6.968 0 13.938 1.202 20.443 3.396q-.316.294-.624.602c-9.958 9.958-9.958 26.104 0 36.063a26 26 0 0 0 2.666 2.32l.001 11.619H45.501c-9.555 0-15-3-15-12 0-24 27-42 53.99-42m.008-54c13.255 0 24 10.745 24 24s-10.745 24-24 24c-13.254 0-24-10.745-24-24s10.746-24 24-24"/><path fill="#002140" d="M84.492 108v-1zm20.443 3.396.683.73 1.222-1.143-1.585-.535zm-.624.602-.707-.707zm0 36.063-.707.707zm2.666 2.32h1v-.498l-.397-.3zm.001 11.619v1h1v-1zM84.501 54v-1zm0 48v1zm-.01 6v1c6.856 0 13.717 1.183 20.125 3.343l.319-.947.32-.948C98.651 108.221 91.574 107 84.492 107zm20.444 3.396-.683-.731q-.326.305-.648.626l.707.707.707.707q.295-.294.6-.579zm-.624.602-.707-.707c-10.349 10.349-10.349 27.128 0 37.477l.707-.707.707-.708c-9.567-9.567-9.568-25.08 0-34.648zm0 36.063-.707.707a27 27 0 0 0 2.77 2.41l.603-.797.603-.798a25 25 0 0 1-2.562-2.23zm2.666 2.32h-1l.001 11.619h2l-.001-11.619zm.001 11.619v-1H45.501v2h61.477zm-61.477 0v-1c-4.713 0-8.198-.748-10.492-2.431-2.225-1.633-3.509-4.283-3.509-8.569h-2c0 4.714 1.44 8.064 4.326 10.181C36.643 162.248 40.66 163 45.501 163zm-15-12h1c0-11.597 6.521-21.827 16.469-29.196C57.917 113.434 71.206 109 84.492 109v-2c-13.705 0-27.412 4.566-37.713 12.196C36.48 126.827 29.5 137.597 29.5 150zm54-96v1C97.203 55 107.5 65.298 107.5 78h2c0-13.807-11.192-25-25-25zM108.5 78h-1c0 12.703-10.297 23-23 23v2c13.808 0 25-11.193 25-25zm-24 24v-1c-12.702 0-23-10.297-23-23h-2c0 13.807 11.193 25 25 25zm-24-24h1c0-12.702 10.298-23 23-23v-2c-13.807 0-25 11.193-25 25z" mask="url(#a)"/><path fill="#fed607" stroke="#002140" d="M111.029 118.716c6.248-6.248 16.379-6.248 22.627 0 6.249 6.248 6.249 16.379 0 22.627a15.92 15.92 0 0 1-8.659 4.467l-.418.069v9.849h7.68v8h-7.68v4.722h7.869l.001 7.749h-15.971v-31.275l-.307-.127a16 16 0 0 1-5.142-3.454c-6.249-6.248-6.249-16.379 0-22.627Zm7.778 3.535a5 5 0 1 0 7.071 7.072 5 5 0 0 0-7.071-7.072Z"/><path stroke="#4ed7de" stroke-linecap="round" stroke-linejoin="round" stroke-width="3" d="M123.327 28h-1.022c-2.101 0-3.805 1.73-3.805 3.863v12.658c0 2.133 1.704 3.863 3.805 3.863h1.022c2.101 0 3.804-1.73 3.804-3.863V31.863c0-2.133-1.703-3.863-3.804-3.863m-4.691 16.918 8.24-13.971M141.01 28h-1.023c-2.101 0-3.804 1.73-3.804 3.863v12.658c0 2.133 1.703 3.863 3.804 3.863h1.023c2.101 0 3.804-1.73 3.804-3.863V31.863c0-2.133-1.703-3.863-3.804-3.863m-4.692 16.918 8.24-13.971m-21.231 25.01h-1.022c-2.101 0-3.805 1.73-3.805 3.863v12.658c0 2.133 1.704 3.863 3.805 3.863h1.022c2.101 0 3.804-1.73 3.804-3.863V59.82c0-2.133-1.703-3.863-3.804-3.863m-4.691 16.918 8.24-13.971m31.816-3.344h-1.023c-2.101 0-3.804 1.73-3.804 3.863v12.658c0 2.133 1.703 3.863 3.804 3.863h1.023c2.101 0 3.804-1.73 3.804-3.863V59.423c0-2.133-1.703-3.863-3.804-3.863m-4.706 16.918 8.24-13.955m14.164-2.963h-1.023c-2.101 0-3.804 1.73-3.804 3.863v12.658c0 2.133 1.703 3.863 3.804 3.863h1.023c2.101 0 3.804-1.73 3.804-3.863V59.423c0-2.133-1.703-3.863-3.804-3.863m-4.692 16.918 8.24-13.955m-38.989 24.292h-1.022c-2.101 0-3.804 1.73-3.804 3.863v12.658c0 2.133 1.703 3.863 3.804 3.863h1.022c2.101 0 3.804-1.73 3.804-3.863V86.678c0-2.133-1.703-3.863-3.804-3.863m-4.706 16.918 8.255-13.956m32.027-2.962h-1.023c-2.101 0-3.804 1.73-3.804 3.863v12.658c0 2.133 1.703 3.863 3.804 3.863h1.023c2.101 0 3.804-1.73 3.804-3.863V86.678c0-2.133-1.703-3.863-3.804-3.863m-4.692 16.918 8.24-13.956m-24.208-53.624L158.812 28v20.124m-3.669 0h7.353m11.217-15.971L176.66 28v20.124m-3.669 0h7.338M138.062 59.85l2.948-4.152v20.124m-3.67 0h7.338m11.067 10.764 2.947-4.153v20.124m-3.669.001h7.338"/></svg>