<svg xmlns="http://www.w3.org/2000/svg" id="Layer_1" viewBox="0 0 68 68"><defs><style>.st0{fill:#f25730}.st1{fill:#0164bf}.st2{fill:#002140}.st3{fill:none;stroke:#002140;stroke-linecap:round;stroke-linejoin:round;stroke-width:1px}</style></defs><path d="m64.725 33 2.25-1.178V28.5l-1.072-1.178H46.732l-1.072.855h-3.212l-1.821-.749H22.098L2.391 28.929S.89 30.32.783 31.179c-.107.855-.107 2.786 1.072 2.676C3.033 33.748 3.889 33 3.889 33l1.714-1.285 15.21-1.285.323 1.714 2.463.855.855 1.501 2.463 4.926h12.854l.965-2.034 2.034-4.606v-2.034h2.569v1.927l2.892 6.853h12.854l2.676-5.462.965-1.072h-.003Z" class="st0"/><path d="M22.454 27.206 3.208 28.723a2.44 2.44 0 0 0-2.221 2.089c-.203 1.472-.203 3.257.965 3.341 1.001.071 1.572-.5 1.892-1.088.403-.742 1.127-1.259 1.969-1.33l15.091-1.262" class="st3"/><path d="m20.82 28.907.116 2.221a1.62 1.62 0 0 0 1.617 1.533c.629 0 1.204.365 1.469.939l2.415 5.217c.265.571.839.939 1.469.939h10.85c.671 0 1.272-.413 1.511-1.04l2.063-5.371c.071-.184.106-.381.106-.581v-3.77c0-.888-.717-1.611-1.604-1.617l-18.381-.171a1.617 1.617 0 0 0-1.63 1.704v-.003Z" class="st3"/><path d="M30.405 36.9h6.056c.733 0 1.407-.391 1.746-1.01l1.156-2.124a1.8 1.8 0 0 0 .223-.865v-1.549c0-1.036-.881-1.876-1.966-1.876H27.416c-1.088 0-1.966.839-1.966 1.876 0 .416.145.823.413 1.152l2.992 3.673c.371.458.946.723 1.553.723z" class="st2"/><path d="m66.998 29.049-.116 2.221a1.62 1.62 0 0 1-1.617 1.533c-.629 0-1.204.365-1.469.939l-2.415 5.216a1.62 1.62 0 0 1-1.469.939h-10.85a1.62 1.62 0 0 1-1.511-1.039l-2.063-5.371a1.6 1.6 0 0 1-.106-.581v-3.77c0-.888.717-1.611 1.604-1.617l18.381-.171a1.617 1.617 0 0 1 1.63 1.704v-.003Z" class="st3"/><path d="M57.414 37.042h-6.056a1.99 1.99 0 0 1-1.746-1.01l-1.156-2.124a1.8 1.8 0 0 1-.223-.865v-1.549c0-1.036.881-1.875 1.966-1.875h10.204c1.088 0 1.966.839 1.966 1.875 0 .416-.145.823-.413 1.152l-2.992 3.674a2 2 0 0 1-1.553.723z" class="st2"/><path d="M42.51 30.902h2.711m-2.853-2.714h3.141" class="st3"/><path d="M32.525 29.504a2.19 2.19 0 0 0 1.153 2.176c.517.262 1.114.3 1.675.436a4.84 4.84 0 0 1 3.102 2.453s.797-1.162 1.146-2.279-.323-2.143-.323-2.143l-1.391-.536-5.358-.11zm22.438.107c-.113.868.371 1.782 1.152 2.176.517.262 1.114.3 1.675.436a4.84 4.84 0 0 1 3.102 2.453s.797-1.162 1.146-2.279-.323-2.143-.323-2.143l-1.391-.536-5.358-.11z" class="st1"/><path d="M30.601 36.803h6.056c.733 0 1.407-.39 1.746-1.01l1.156-2.124a1.8 1.8 0 0 0 .223-.865v-1.549c0-1.036-.881-1.875-1.966-1.875H27.612c-1.088 0-1.966.839-1.966 1.875 0 .416.145.823.413 1.152l2.992 3.674c.371.458.946.723 1.553.723zm27.01.145h-6.056a1.99 1.99 0 0 1-1.746-1.01l-1.156-2.124a1.8 1.8 0 0 1-.223-.865V31.4c0-1.036.881-1.876 1.966-1.876H60.6c1.088 0 1.966.839 1.966 1.876 0 .416-.145.823-.413 1.152l-2.992 3.674a2 2 0 0 1-1.553.723z" class="st3"/></svg>