<?xml version="1.0" encoding="UTF-8"?>
<svg id="Layer_1" xmlns="http://www.w3.org/2000/svg" version="1.1" viewBox="0 0 68 68">
  <!-- Generator: Adobe Illustrator 29.1.0, SVG Export Plug-In . SVG Version: 2.1.0 Build 142)  -->
  <defs>
    <style>
      .st0 {
        fill: #ffa75a;
      }

      .st0, .st1, .st2, .st3 {
        stroke: #002140;
        stroke-linejoin: round;
      }

      .st0, .st1, .st3 {
        stroke-linecap: round;
      }

      .st1 {
        fill: #8dc8ff;
      }

      .st2 {
        fill: none;
      }

      .st4 {
        fill: #002140;
      }

      .st3 {
        fill: #ffd7b0;
      }
    </style>
  </defs>
  <rect class="st3" x="41.5" y="23" width="21" height="35"/>
  <rect class="st4" x="46.5" y="28" width="5" height="7" rx=".5" ry=".5"/>
  <rect class="st4" x="46.5" y="38" width="5" height="7" rx=".5" ry=".5"/>
  <rect class="st4" x="53.5" y="28" width="5" height="7" rx=".5" ry=".5"/>
  <rect class="st4" x="53.5" y="38" width="5" height="7" rx=".5" ry=".5"/>
  <rect class="st0" x="33.5" y="10" width="8" height="48"/>
  <rect class="st1" x="47.5" y="50" width="10" height="8"/>
  <path class="st2" d="M52.5,50v8"/>
  <rect class="st3" x="13.5" y="10" width="28" height="48"/>
  <rect class="st4" x="20.5" y="15" width="6" height="8" rx=".5" ry=".5"/>
  <rect class="st4" x="20.5" y="26" width="6" height="8" rx=".5" ry=".5"/>
  <rect class="st4" x="20.5" y="37" width="6" height="8" rx=".5" ry=".5"/>
  <rect class="st4" x="30.5" y="15" width="6" height="8" rx=".5" ry=".5"/>
  <rect class="st4" x="30.5" y="26" width="6" height="8" rx=".5" ry=".5"/>
  <rect class="st4" x="30.5" y="37" width="6" height="8" rx=".5" ry=".5"/>
  <rect class="st0" x="5.5" y="10" width="8" height="48"/>
  <rect class="st1" x="19.5" y="50" width="18" height="8"/>
  <path class="st2" d="M25.5,50v8"/>
  <path class="st2" d="M31.5,50v8"/>
</svg>