<svg xmlns="http://www.w3.org/2000/svg" id="Layer_1" viewBox="0 0 68 68"><defs><style>.st0{fill:#fffaf0}.st1{fill:none;stroke:#002140;stroke-linecap:round;stroke-linejoin:round}.st2{fill:#03d47c}.st3{fill:#fed607}.st4{fill:#f68dfe}</style></defs><path d="m57.578 9.652-2.181-4.241-.968.362-1.819 4-5.454 1.092.486 1.089 3.028 3.273-.847 4.972 1.089.241L55 18.001l4.639 2.56.606-.606-.362-5.089 3.149-3.639-.482-.606z" class="st2"/><path d="m55.705 5.436 1.863 3.777c.113.23.336.391.592.427l4.168.606a.785.785 0 0 1 .435 1.337l-3.017 2.941a.78.78 0 0 0-.227.694l.712 4.15a.783.783 0 0 1-1.136.826l-3.73-1.962a.78.78 0 0 0-.731 0l-3.73 1.962a.783.783 0 0 1-1.136-.826l.712-4.15a.78.78 0 0 0-.227-.694l-3.017-2.941a.785.785 0 0 1 .435-1.337l4.168-.606a.79.79 0 0 0 .592-.427l1.863-3.777a.785.785 0 0 1 1.406 0z" class="st1"/><path d="M37.5 28s3.591-6 2.827-10.099c-.41-2.2-.338-5.401-4.327-5.401s-5.572 3.481-5.708 4.581S29.079 26.211 25.5 28c-8 4-6.5 5-6.5 5s-1.763-1.764-3.826-.938S11 35 10.501 38.661c0 3.436.498 8.839 2.998 10.839 1.674 2 4.973.5 4.973.5s2.527 7.5 18.007 9.147c11.52 0 14.52-4.647 14.981-6.325 0-2.321-2.961-5.321-2.961-5.321s4-1.5 4-5c0-2.5-2.965-5.07-2.965-5.07s3.518-1.457 2.965-3.93c-.547-2.473-2.5-5.5-7.364-6.241-5.083.273-7.136.741-7.136.741z" class="st0"/><path d="M18.436 49.727c-.739.652-1.578 1.019-2.467 1.019-3.02 0-5.462-4.244-5.462-9.482s2.448-9.482 5.462-9.482c.913 0 1.771.385 2.529 1.075" class="st0"/><path d="M18.436 49.727c-.739.652-1.578 1.019-2.467 1.019-3.02 0-5.462-4.244-5.462-9.482s2.448-9.482 5.462-9.482c.913 0 1.771.385 2.529 1.075" class="st1"/><path d="M18.064 38.033s-.41-4.946 2.2-7.009 7.699-3.026 8.799-8.935 2.746-9.345 6.046-9.619c3.299-.273 5.362 1.647 5.362 6.599s-3.436 9.072-3.436 9.072" class="st0"/><path d="M18.064 38.033s-.41-4.946 2.2-7.009 7.699-3.026 8.799-8.935 2.746-9.345 6.046-9.619c3.299-.273 5.362 1.647 5.362 6.599s-3.436 9.072-3.436 9.072" class="st1"/><path d="M17.926 44.079s-2.889 14.018 19.243 14.844c14.018.137 16.771-6.599 11.545-10.998" class="st0"/><path d="M17.926 44.079s-2.889 14.018 19.243 14.844c14.018.137 16.771-6.599 11.545-10.998" class="st1"/><path d="M47.174 37.374s5.313.795 5.244-3.604c0-2.336-2.61-9.072-15.391-5.636" class="st0"/><path d="M47.174 37.374s5.313.795 5.244-3.604c0-2.336-2.61-9.072-15.391-5.636" class="st1"/><path d="M40.743 47.931s11.818 1.789 11.818-5.499-12.098-4.809-12.098-4.809" class="st0"/><path d="M40.743 47.931s11.818 1.789 11.818-5.499-12.098-4.809-12.098-4.809" class="st1"/><path d="m56.458 54.286-2.181-4.241-.972.362-1.816 4-5.454 1.092.482 1.089 3.032 3.273-.851 4.972 1.092.241 4.365-1.699 4.362 1.819.606-.606-.365-5.089 3.153-3.639-.486-.606-4.968-.968Z" class="st3"/><path d="m54.705 50.436 1.863 3.777c.113.23.336.391.592.427l4.168.606a.785.785 0 0 1 .435 1.337l-3.017 2.941a.78.78 0 0 0-.227.694l.712 4.15a.783.783 0 0 1-1.136.826l-3.73-1.962a.79.79 0 0 0-.731 0l-3.73 1.962a.783.783 0 0 1-1.136-.826l.712-4.15a.78.78 0 0 0-.227-.694l-3.017-2.941a.785.785 0 0 1 .435-1.337l4.168-.606a.79.79 0 0 0 .592-.427l1.863-3.777a.785.785 0 0 1 1.406 0z" class="st1"/><path d="M15 15.5 12.5 11l-1.227.362-1.819 4-4.954.851L4 17.5l3.514 3.316-.848 4.972 1.333.362 4.121-1.816 4.362 1.816.606-.606-.362-5.089 3.272-2.954-.606-1.287-4.394-.713Z" class="st4"/><path d="m12.793 11.511 1.863 3.777c.113.23.336.391.592.427l4.168.606a.785.785 0 0 1 .435 1.337l-3.017 2.941a.78.78 0 0 0-.226.694l.712 4.15a.783.783 0 0 1-1.136.826l-3.73-1.962a.78.78 0 0 0-.731 0l-3.73 1.962a.783.783 0 0 1-1.136-.826l.712-4.15a.78.78 0 0 0-.227-.694l-3.017-2.941a.785.785 0 0 1 .435-1.337l4.168-.606a.79.79 0 0 0 .592-.427l1.863-3.777a.785.785 0 0 1 1.406 0z" class="st1"/></svg>