<svg xmlns="http://www.w3.org/2000/svg" xmlns:xlink="http://www.w3.org/1999/xlink" id="Layer_1" x="0" y="0" version="1.1" viewBox="0 0 68 68" style="enable-background:new 0 0 68 68" xml:space="preserve"><style type="text/css">.st0{fill:#5ab0ff}.st1{fill:#b0d9ff}.st2{fill:#003c73}.st3{fill:none;stroke:#003c73;stroke-linecap:round;stroke-linejoin:round}</style><path d="M42.092,53.935v4.182c0,1.066-0.564,1.569-1.602,1.569h-9.171c-0.568,0-0.991-0.155-1.264-0.465l-0.042-0.056	c-0.197-0.254-0.291-0.601-0.291-1.048v-4.182c0-1.071,0.564-1.574,1.597-1.574h9.171c0.55,0,0.968,0.141,1.236,0.432v0.009	C41.97,53.061,42.092,53.437,42.092,53.935z" class="st0"/><path d="M42.092,33.019v4.182c0,1.066-0.564,1.569-1.602,1.569h-9.171c-0.568,0-0.991-0.155-1.264-0.465l-0.042-0.056	c-0.197-0.254-0.291-0.601-0.291-1.048v-4.182c0-1.071,0.564-1.574,1.597-1.574h9.171c0.55,0,0.968,0.141,1.236,0.432v0.009	C41.97,32.145,42.092,32.521,42.092,33.019z" class="st0"/><path d="M42.092,12.105v4.182c0,1.067-0.564,1.569-1.602,1.569h-9.171c-0.568,0-0.991-0.155-1.264-0.465l-0.042-0.056	c-0.197-0.254-0.291-0.601-0.291-1.048v-4.182c0-1.071,0.564-1.574,1.597-1.574h9.171c0.55,0,0.968,0.141,1.236,0.432v0.009	C41.97,11.231,42.092,11.607,42.092,12.105z" class="st0"/><path d="M12.958,49.139H9.308c-0.569,0-0.991-0.155-1.264-0.465l-0.042-0.056C7.804,48.364,7.71,48.016,7.71,47.57	v-4.182c0-1.071,0.564-1.574,1.597-1.574h9.171c0.55,0,0.968,0.141,1.236,0.432v0.009c0.244,0.258,0.366,0.634,0.366,1.132v4.182	c0,1.067-0.564,1.569-1.602,1.569H12.958z" class="st1"/><path d="M62,22.471v4.181c0,1.067-0.564,1.569-1.602,1.569h-9.171c-0.568,0-0.991-0.155-1.264-0.465L49.92,27.7	c-0.197-0.254-0.291-0.601-0.291-1.048v-4.181c0-1.071,0.564-1.574,1.597-1.574h9.171c0.55,0,0.968,0.141,1.236,0.432v0.009	C61.878,21.597,62,21.972,62,22.471z" class="st1"/><path d="M17.567,11.626c0.536,0.714,0.85,1.607,0.85,2.57c0,2.377-1.926,4.304-4.304,4.304	c-1.184,0-2.265-0.484-3.045-1.259c-0.78-0.78-1.264-1.856-1.264-3.045c0-2.377,1.931-4.304,4.304-4.304	c1.414,0,2.664,0.677,3.449,1.729c0,0,0.005,0,0.005,0.005H17.567z" class="st1"/><path d="M56.531,55.687l-5.826,4.506v-9.012L56.531,55.687z" class="st2"/><path d="M29.722,53.936v4.181c0,0.446,0.099,0.794,0.291,1.048l-1.071-1.372l-0.038-0.07	c-0.127-0.235-0.188-0.531-0.188-0.893v-4.182c0-1.071,0.564-1.574,1.597-1.574h9.171c0.489,0,0.874,0.113,1.142,0.348l0.066,0.066	l1.034,1.311c-0.268-0.291-0.686-0.432-1.236-0.432h-9.171c-1.038,0-1.597,0.503-1.597,1.574V53.936z" class="st2"/><path d="M18.478,41.809H9.307c-1.038,0-1.597,0.503-1.597,1.574v4.182c0,0.446,0.099,0.794,0.291,1.048L6.929,47.24	l-0.038-0.07c-0.127-0.235-0.188-0.531-0.188-0.893v-4.181c0-1.071,0.564-1.574,1.597-1.574h9.171c0.489,0,0.874,0.113,1.142,0.348	l0.066,0.066l1.034,1.311c-0.268-0.291-0.686-0.432-1.236-0.432V41.809z" class="st2"/><path d="M60.6,20.022l1.034,1.311c-0.268-0.291-0.686-0.432-1.236-0.432h-9.171c-1.038,0-1.597,0.503-1.597,1.574v4.182	c0,0.446,0.099,0.794,0.291,1.048l-1.071-1.372l-0.038-0.071c-0.127-0.235-0.188-0.531-0.188-0.893v-4.181	c0-1.071,0.564-1.574,1.597-1.574h9.171c0.489,0,0.874,0.113,1.142,0.348l0.066,0.066V20.022z" class="st2"/><path d="M29.722,12.107v4.182c0,0.446,0.099,0.794,0.291,1.048l-1.071-1.372l-0.038-0.07	c-0.127-0.235-0.188-0.531-0.188-0.893v-4.177c0-1.071,0.564-1.574,1.597-1.574h9.171c0.489,0,0.874,0.113,1.142,0.348l0.066,0.066	l1.034,1.311c-0.268-0.291-0.686-0.432-1.236-0.432h-9.171c-1.038,0-1.597,0.503-1.597,1.574V12.107z" class="st2"/><path d="M16.045,9.766l0.127,0.127c0.677,0.677,1.071,1.222,1.391,1.729c-0.785-1.052-2.034-1.729-3.449-1.729	c-2.377,0-4.304,1.931-4.304,4.304c0,1.189,0.484,2.265,1.264,3.045l-0.019,0.019c-0.667-0.625-1.146-1.297-1.55-1.992	C9.063,14.591,8.8,13.783,8.8,12.909c0-2.373,1.931-4.304,4.304-4.304c1.132,0,2.166,0.442,2.937,1.161H16.045z" class="st2"/><path d="M29.722,33.018v4.182c0,0.446,0.099,0.794,0.291,1.048l-1.071-1.372l-0.038-0.07	c-0.127-0.235-0.188-0.531-0.188-0.893V31.73c0-1.071,0.564-1.574,1.597-1.574h9.171c0.489,0,0.874,0.113,1.142,0.348l0.066,0.066	l1.034,1.311c-0.268-0.291-0.686-0.432-1.236-0.432h-9.171c-1.038,0-1.597,0.503-1.597,1.574V33.018z" class="st2"/><path d="M17.567,11.626c0.536,0.714,0.85,1.607,0.85,2.57c0,2.377-1.926,4.304-4.304,4.304	c-1.184,0-2.265-0.484-3.045-1.259c-0.78-0.78-1.264-1.856-1.264-3.045c0-2.377,1.931-4.304,4.304-4.304	c1.414,0,2.664,0.677,3.449,1.729" class="st3"/><path d="M31.323,10.531h9.167" class="st3"/><path d="M31.323,17.857h9.167" class="st3"/><path d="M42.092,12.106v1.757v2.424" class="st3"/><path d="M29.721,12.106v4.182" class="st3"/><path d="M29.721,12.105c0-1.071,0.564-1.574,1.597-1.574" class="st3"/><path d="M41.726,10.964c-0.268-0.291-0.686-0.432-1.236-0.432" class="st3"/><path d="M42.092,12.105c0-0.493-0.122-0.869-0.362-1.132" class="st3"/><path d="M30.06,17.391c0.268,0.31,0.695,0.465,1.264,0.465" class="st3"/><path d="M29.721,16.287c0,0.446,0.099,0.794,0.291,1.048" class="st3"/><path d="M42.092,16.287c0,1.067-0.564,1.569-1.602,1.569" class="st3"/><path d="M9.505,15.268C9.063,14.591,8.8,13.783,8.8,12.909c0-2.373,1.931-4.304,4.304-4.304	c1.132,0,2.166,0.442,2.937,1.161" class="st3"/><path d="M30.314,9.25h9.171" class="st3"/><path d="M28.716,10.822v4.177" class="st3"/><path d="M28.716,10.824c0-1.071,0.564-1.574,1.597-1.574" class="st3"/><path d="M40.627,9.592c-0.268-0.23-0.653-0.348-1.142-0.348" class="st3"/><path d="M28.716,15c0,0.362,0.066,0.658,0.188,0.893" class="st3"/><path d="M17.567,11.626c0,0,0,0-0.005-0.005c-0.319-0.507-0.714-1.057-1.391-1.729" class="st3"/><path d="M11.092,17.293c0,0-0.023-0.024-0.038-0.033c-0.667-0.625-1.146-1.297-1.551-1.992" class="st3"/><path d="M30.059,17.391l-0.042-0.056l-1.076-1.372" class="st3"/><path d="M41.731,10.974l-0.005-0.009l-1.034-1.306" class="st3"/><path d="M51.227,20.896h9.171" class="st3"/><path d="M51.227,28.221h4.492h4.68" class="st3"/><path d="M61.995,22.471v4.182" class="st3"/><path d="M49.629,22.471v4.182" class="st3"/><path d="M49.629,22.471c0-1.071,0.564-1.574,1.597-1.574" class="st3"/><path d="M61.633,21.329c-0.268-0.291-0.686-0.432-1.236-0.432" class="st3"/><path d="M62,22.47c0-0.493-0.122-0.869-0.362-1.132" class="st3"/><path d="M49.963,27.756c0.268,0.31,0.695,0.465,1.264,0.465" class="st3"/><path d="M49.629,26.652c0,0.446,0.099,0.794,0.291,1.048" class="st3"/><path d="M62,26.652c0,1.067-0.564,1.569-1.602,1.569" class="st3"/><path d="M50.216,19.613h5.272h3.9" class="st3"/><path d="M48.619,21.188v4.182" class="st3"/><path d="M48.619,21.187c0-1.071,0.564-1.574,1.597-1.574" class="st3"/><path d="M60.529,19.957c-0.268-0.23-0.653-0.348-1.142-0.348" class="st3"/><path d="M48.619,25.369c0,0.362,0.066,0.658,0.188,0.893" class="st3"/><path d="M49.962,27.756L49.92,27.7l-1.071-1.372" class="st3"/><path d="M61.638,21.339l-0.005-0.009l-1.034-1.306" class="st3"/><path d="M9.307,41.809h9.171" class="st3"/><path d="M9.307,49.139h3.651h5.521" class="st3"/><path d="M20.076,43.383v4.182" class="st3"/><path d="M7.71,43.383v4.182" class="st3"/><path d="M7.71,43.383c0-1.071,0.564-1.574,1.597-1.574" class="st3"/><path d="M19.715,42.247c-0.268-0.291-0.686-0.432-1.236-0.432" class="st3"/><path d="M20.081,43.382c0-0.493-0.122-0.869-0.362-1.132" class="st3"/><path d="M8.043,48.674c0.268,0.31,0.695,0.465,1.264,0.465" class="st3"/><path d="M7.71,47.564c0,0.446,0.099,0.794,0.291,1.048" class="st3"/><path d="M20.081,47.564c0,1.067-0.564,1.569-1.602,1.569" class="st3"/><path d="M8.297,40.527h4.891h4.28" class="st3"/><path d="M6.699,42.1v4.182" class="st3"/><path d="M6.699,42.101c0-1.071,0.564-1.574,1.597-1.574" class="st3"/><path d="M18.61,40.875c-0.268-0.23-0.653-0.348-1.142-0.348" class="st3"/><path d="M6.699,46.281c0,0.362,0.066,0.658,0.188,0.893" class="st3"/><path d="M8.043,48.674l-0.042-0.061L6.93,47.246" class="st3"/><path d="M19.719,42.256l-0.005-0.009l-1.034-1.311" class="st3"/><path d="M31.323,31.445h9.167" class="st3"/><path d="M31.323,38.77h9.167" class="st3"/><path d="M42.092,33.018v4.182" class="st3"/><path d="M29.721,33.018v4.182" class="st3"/><path d="M29.721,33.019c0-1.071,0.564-1.574,1.597-1.574" class="st3"/><path d="M41.726,31.882c-0.268-0.291-0.686-0.432-1.236-0.432" class="st3"/><path d="M42.092,33.019c0-0.493-0.122-0.869-0.362-1.132" class="st3"/><path d="M30.06,38.309c0.268,0.31,0.695,0.465,1.264,0.465" class="st3"/><path d="M29.721,37.199c0,0.446,0.099,0.794,0.291,1.048" class="st3"/><path d="M42.092,37.199c0,1.067-0.564,1.569-1.602,1.569" class="st3"/><path d="M30.314,30.162h9.171" class="st3"/><path d="M28.716,31.736v4.182" class="st3"/><path d="M28.716,31.736c0-1.071,0.564-1.574,1.597-1.574" class="st3"/><path d="M40.627,30.504c-0.268-0.23-0.653-0.348-1.142-0.348" class="st3"/><path d="M28.716,35.918c0,0.362,0.066,0.658,0.188,0.893" class="st3"/><path d="M30.059,38.309l-0.042-0.061l-1.076-1.367" class="st3"/><path d="M41.731,31.891l-0.005-0.009l-1.034-1.311" class="st3"/><path d="M31.323,52.357h9.167" class="st3"/><path d="M31.323,59.688h9.167" class="st3"/><path d="M42.092,53.936v4.177" class="st3"/><path d="M29.721,53.936v4.177" class="st3"/><path d="M29.721,53.935c0-1.071,0.564-1.574,1.597-1.574" class="st3"/><path d="M41.726,52.794c-0.268-0.291-0.686-0.432-1.236-0.432" class="st3"/><path d="M42.092,53.935c0-0.493-0.122-0.869-0.362-1.132" class="st3"/><path d="M30.06,59.221c0.268,0.31,0.695,0.465,1.264,0.465" class="st3"/><path d="M29.721,58.113c0,0.446,0.099,0.794,0.291,1.048" class="st3"/><path d="M42.092,58.113c0,1.066-0.564,1.569-1.602,1.569" class="st3"/><path d="M30.314,51.074h9.171" class="st3"/><path d="M28.716,52.648v4.182" class="st3"/><path d="M28.716,52.648c0-1.071,0.564-1.574,1.597-1.574" class="st3"/><path d="M40.627,51.422c-0.268-0.23-0.653-0.348-1.142-0.348" class="st3"/><path d="M28.716,56.83c0,0.362,0.066,0.658,0.188,0.893" class="st3"/><path d="M30.059,59.221l-0.042-0.061l-1.076-1.367" class="st3"/><path d="M41.731,52.803l-0.005-0.009l-1.034-1.311" class="st3"/><path d="M20.081,34.775h8.466" class="st3"/><path d="M42.092,34.775h6.714" class="st3"/><path d="M18.418,13.863h10.191" class="st3"/><path d="M42.092,13.863h6.714" class="st3"/><path d="M20.081,55.688h8.466" class="st3"/><path d="M42.356,55.688h8.213" class="st3"/><path d="M55.488,19.614c-1.052-3.261-3.28-5.751-6.676-5.751" class="st3"/><path d="M48.807,34.775c3.674,0,5.976-2.904,6.911-6.554" class="st3"/><path d="M13.188,40.526c1.057-3.261,3.28-5.751,6.676-5.751" class="st3"/><path d="M19.865,55.688c-3.674,0-5.976-2.904-6.907-6.554c0-0.005,0-0.014-0.005-0.019" class="st3"/><path d="M50.705,51.182v9.012" class="st3"/><path d="M50.705,51.182l5.826,4.506" class="st3"/><path d="M50.705,60.193l5.826-4.506" class="st3"/></svg>