<svg xmlns="http://www.w3.org/2000/svg" width="48" height="48" fill="none" viewBox="0 0 48 48"><path fill="#4ed7de" d="M37.411 32.314c0 2.235-1.486 2.98-3.722 2.98H14.314c-2.373 0-3.726-.745-3.726-2.98 0-5.961 6.707-10.432 13.411-10.432 6.705 0 13.412 4.47 13.412 10.432m-7.448-17.883a5.961 5.961 0 1 1-11.922 0 5.961 5.961 0 0 1 11.922 0"/><path stroke="#002140" d="M37.411 32.314c0 2.235-1.486 2.98-3.722 2.98H14.314c-2.373 0-3.726-.745-3.726-2.98 0-5.961 6.707-10.432 13.411-10.432 6.705 0 13.412 4.47 13.412 10.432Zm-7.448-17.883a5.961 5.961 0 1 1-11.922 0 5.961 5.961 0 0 1 11.922 0Z"/><path fill="#e4bc07" d="m41.632 26.414-1.178-.354-1.06-1.12-3.36 1.179-2.593-2.416-2.593 2.357-3.3-1.237s-.766 1.119-1.238 1.237-1.237.413-1.237.413-1.71 17.15 8.075 17.032c9.782-.118 8.958-14.793 8.486-17.091z"/><path fill="#fed607" d="M27.135 25.411s-1.238 15.912 6.07 15.971c5.776.06 6.543-9.96 6.718-11.374.177-1.414 0-4.184 0-4.184l-.53-.883-3.36 1.178-2.593-2.416-2.593 2.357-3.3-1.237-.414.59z"/><path fill="#fff2b2" d="M33.441 38.18c2.496 0 4.519-2.375 4.519-5.304s-2.023-5.303-4.519-5.303-4.518 2.374-4.518 5.303c0 2.93 2.023 5.304 4.518 5.304"/><path fill="#fed607" d="m34.383 31.267-.824-1.532-.472.195-.942 1.571-1.808.276.079.51 1.06 1.1-.04 1.848.315.393 1.69-.669 1.454.63.51-.276-.119-1.886 1.141-1.336-.157-.432z"/><path fill="#fff2b2" d="M37.356 25.583c-.113.508.154 1.036.533 1.393.378.357.855.585 1.304.848.45.262.894.581 1.128 1.045.264.521.225 1.14.359 1.708s.593 1.165 1.172 1.08l-.22-5.245s-1.237-.295-1.512-.649a13 13 0 0 0-.728-.824l-2.037.642zm-11.97 8.665c-.033-.877 1.765.143 2.255.87.49.728.648 1.621.907 2.459.373 1.21 1.03 2.4 2.119 3.045.554.33 1.229.53 1.585 1.067.367.554.272 1.283.163 1.94 0 0-6.714-1.175-7.027-9.38zm3.762-3.551c-.31.739 1.587-.07 2.22-.56q.534-.411.968-.924c.457-.539.836-1.162 1.411-1.573 0 0-3.076-.577-4.599 3.057"/><path stroke="#002140" stroke-linecap="round" stroke-linejoin="round" d="M25.07 26.394s-1.807 17.13 8.408 17.13"/><path stroke="#002140" stroke-linecap="round" stroke-linejoin="round" d="M41.765 26.394s1.808 17.13-8.408 17.13m-8.286-17.13c1.164 0 1.867-.818 2.178-1.294a.47.47 0 0 1 .577-.173l2.73 1.143a.48.48 0 0 0 .509-.095l2.347-2.27m8.398 2.689c-1.164 0-1.867-.818-2.179-1.294a.47.47 0 0 0-.577-.173l-2.729 1.143a.48.48 0 0 1-.51-.095l-2.346-2.27"/><path stroke="#002140" stroke-linecap="round" stroke-linejoin="round" d="M27.076 25.529S25.91 41.492 33.3 41.492s6.682-15.788 6.682-15.788"/><path stroke="#002140" stroke-linecap="round" stroke-linejoin="round" d="M33.29 38.14c2.581 0 4.673-2.38 4.673-5.318s-2.092-5.318-4.672-5.318-4.673 2.381-4.673 5.318 2.092 5.319 4.673 5.319"/><path stroke="#002140" stroke-linecap="round" stroke-linejoin="round" d="m33.725 29.879.663 1.344a.38.38 0 0 0 .289.21l1.483.214c.313.046.44.431.212.653l-1.074 1.045a.38.38 0 0 0-.11.338l.254 1.476a.382.382 0 0 1-.554.404l-1.325-.697a.38.38 0 0 0-.356 0l-1.326.697a.382.382 0 0 1-.554-.404l.254-1.476a.38.38 0 0 0-.11-.338L30.398 32.3a.383.383 0 0 1 .211-.653l1.483-.214a.38.38 0 0 0 .289-.21l.664-1.344a.382.382 0 0 1 .685 0z"/></svg>