<?xml version="1.0" encoding="utf-8"?>
<!-- Generator: Adobe Illustrator 27.3.1, SVG Export Plug-In . SVG Version: 6.00 Build 0)  -->
<svg version="1.1" id="Layer_1" xmlns="http://www.w3.org/2000/svg" xmlns:xlink="http://www.w3.org/1999/xlink" x="0px" y="0px"
	 viewBox="0 0 60 60" style="enable-background:new 0 0 60 60;" xml:space="preserve">
<style type="text/css">
	.st0{fill:none;stroke:#EA5730;stroke-linecap:round;stroke-linejoin:round;}
	.st1{fill:#FF7102;}
	.st2{fill:none;stroke:#002140;stroke-linecap:round;stroke-linejoin:round;}
</style>
<path class="st0" d="M24.5,8.5V7"/>
<path class="st0" d="M33.2,8.5V7"/>
<path class="st0" d="M24.5,8.5c0,2.1-2.7,19.1-20.4,19.1"/>
<path class="st0" d="M33.2,9.4c0,0-0.6,25.8-29,25.8"/>
<path class="st0" d="M33.2,8.5c-0.1,3,2.7,19.1,20.4,19.1"/>
<path class="st0" d="M24.4,9.1c0,0,0.5,26.1,29,26.1"/>
<path class="st0" d="M46.7,34.8v6.6"/>
<path class="st0" d="M50.9,35.5v6.1"/>
<path class="st0" d="M42.3,33.7v7.8"/>
<path class="st0" d="M37.9,41.3V32"/>
<path class="st0" d="M11,34.8v6.6"/>
<path class="st0" d="M6.8,35.5v6.1"/>
<path class="st0" d="M15.4,33.7v7.8"/>
<path class="st0" d="M19.8,41.3V32"/>
<path class="st0" d="M49,34.9v-7.5"/>
<path class="st0" d="M44.6,34.2V26"/>
<path class="st0" d="M40.2,32.6v-9.4"/>
<path class="st0" d="M36.4,30.6V18.8"/>
<path class="st0" d="M8.5,35v-7.5"/>
<path class="st0" d="M12.9,34.3V26"/>
<path class="st0" d="M17.3,32.8v-9.7"/>
<path class="st0" d="M21.2,30.9V18.5"/>
<path class="st0" d="M8.6,44.8l1-2.9l1.2,3.1"/>
<path class="st0" d="M6.1,44.8l1-2.9L8.4,45"/>
<path class="st0" d="M4.6,41.9L5.8,45"/>
<path class="st0" d="M11.2,44.8l1-2.9l1.2,3.1"/>
<path class="st0" d="M18.6,44.8l1-2.9l1.2,3.1"/>
<path class="st0" d="M16.2,44.8l1-2.9l1.2,3.1"/>
<path class="st0" d="M13.6,44.8l1-2.9l1.2,3.1"/>
<path class="st0" d="M21.4,44.8l1-2.9l1.2,3.1"/>
<path class="st0" d="M28.5,44.8l1-2.9l1.2,3.1"/>
<path class="st0" d="M26,44.8l1-2.9l1.2,3.1"/>
<path class="st0" d="M31.2,44.8l1-2.9"/>
<path class="st0" d="M38.6,44.8l1-2.9l1.2,3.1"/>
<path class="st0" d="M36.2,44.8l1-2.9l1.2,3.1"/>
<path class="st0" d="M34.7,41.9l1.2,3.1"/>
<path class="st0" d="M41.3,44.8l1-2.9l1.2,3.1"/>
<path class="st0" d="M48.7,44.8l1-2.9L51,45"/>
<path class="st0" d="M46.2,44.8l1-2.9l1.2,3.1"/>
<path class="st0" d="M43.7,44.8l1-2.9l1.2,3.1"/>
<path class="st0" d="M51.4,44.8l1-2.9l1.2,3.1"/>
<path class="st0" d="M54,44.8l1-2.9"/>
<path class="st1" d="M23,52.3V8.1h3v43.5L24,52.2L23,52.3z"/>
<path class="st1" d="M31.6,51.8V8.1h3v44.1h-1.5L31.6,51.8z"/>
<path class="st1" d="M25.6,9.2h6.9v2.9c0,0-4.1-0.6-6.9,0V9.2z"/>
<path class="st1" d="M25.6,16.4h6.9v2.9c0,0-4.1-0.6-6.9,0V16.4z"/>
<path class="st1" d="M25.6,24.1h6.9v2.9c0,0-4.1-0.6-6.9,0V24.1z"/>
<path class="st1" d="M25.6,32.6h6.9v2.9c0,0-4.1-0.6-6.9,0V32.6z"/>
<path class="st2" d="M4,51.4c1.4,0,1.4,1.1,2.7,1.1s1.4-1.1,2.7-1.1c1.4,0,1.4,1.1,2.7,1.1c1.4,0,1.4-1.1,2.7-1.1
	c1.4,0,1.4,1.1,2.7,1.1c1.4,0,1.4-1.1,2.7-1.1c1.4,0,1.4,1.1,2.7,1.1c1.4,0,1.4-1.1,2.7-1.1c1.4,0,1.4,1.1,2.7,1.1
	c1.4,0,1.4-1.1,2.7-1.1c1.4,0,1.4,1.1,2.7,1.1c1.4,0,1.4-1.1,2.7-1.1c1.4,0,1.4,1.1,2.7,1.1c1.4,0,1.4-1.1,2.7-1.1
	c1.4,0,1.4,1.1,2.7,1.1c1.4,0,1.4-1.1,2.7-1.1c1.4,0,1.4,1.1,2.7,1.1s1.4-1.1,2.7-1.1c1.4,0,1.4,1.1,2.7,1.1"/>
<path class="st2" d="M34.7,41.8h20.4"/>
<path class="st2" d="M26,41.8h5.3"/>
<path class="st2" d="M4.6,41.8h18.2"/>
<path class="st2" d="M34.8,45.1h19.1"/>
<path class="st2" d="M26.2,45.1h5.1"/>
<path class="st2" d="M5.8,45.1h17"/>
<path class="st2" d="M23,52.3V8.1h3v42.9"/>
<path class="st2" d="M34.6,52.3V8.1h-3v42.9"/>
<path class="st2" d="M26.3,9.2h4.8"/>
<path class="st2" d="M26.3,12h4.8"/>
<path class="st2" d="M26.3,16.2h4.8"/>
<path class="st2" d="M26.3,19.1h4.8"/>
<path class="st2" d="M26.3,24.2h4.8"/>
<path class="st2" d="M26.3,26.9h4.8"/>
<path class="st2" d="M26.3,32.8h4.8"/>
<path class="st2" d="M26.3,35.4h4.8"/>
</svg>
