<?xml version="1.0" encoding="utf-8"?>
<!-- Generator: Adobe Illustrator 27.3.1, SVG Export Plug-In . SVG Version: 6.00 Build 0)  -->
<svg version="1.1" id="Layer_1" xmlns="http://www.w3.org/2000/svg" xmlns:xlink="http://www.w3.org/1999/xlink" x="0px" y="0px"
	 viewBox="0 0 60 60" style="enable-background:new 0 0 60 60;" xml:space="preserve">
<style type="text/css">
	.st0{fill:#E4BC06;}
	.st1{fill:#FED604;}
	.st2{fill:#F68DFE;}
	.st3{fill:#002140;}
	.st4{fill:none;stroke:#002140;stroke-linecap:round;stroke-linejoin:round;}
	.st5{fill:#FFECAC;}
	.st6{fill:#FFF4EA;}
	.st7{fill:#722B03;}
</style>
<path class="st0" d="M4.3,10.3c0,0-0.5,11.7,4.2,15.3c4.7,3.6,8.5,3.9,10.9,3.6c2.4-0.3,9.6-1.2,10.6-6.7S31.3,10,31.3,10L4.3,10.3
	L4.3,10.3z"/>
<path class="st0" d="M16,34.8v12.1h3.3l2.1-0.6V34.8H16z"/>
<path class="st1" d="M13.2,29.1c0,0,0.1,2.5,0.1,3c0,0.5,1.8,3,4.9,2.8c3.1-0.1,4.8-2.8,4.8-2.8l0.3-3.1
	C23.4,28.9,15.3,29.8,13.2,29.1L13.2,29.1z"/>
<path class="st1" d="M15.6,43.6c0,0-4.6,0.5-5.1,4c-0.5,3.6,7.5,4.5,9,4.3c1.5-0.1,7.8-2.4,7.6-4.6C27,45.1,22,43.8,22,43.8
	l-0.6,2.5c0,0-1.4,0.9-2.8,0.8c-1.5-0.1-2.5-0.1-2.5-0.1L15.6,43.6z"/>
<path class="st2" d="M18.1,24.4c1.9,0,3.5-1.5,3.5-3.4c0-1.9-1.6-3.4-3.5-3.4s-3.5,1.5-3.5,3.4C14.5,22.9,16.1,24.4,18.1,24.4z"/>
<path class="st3" d="M17.8,13.8c7.3,0,13.3-2,13.3-4.4c0-2.4-6-4.4-13.3-4.4C10.5,5,4.5,7,4.5,9.4C4.5,11.8,10.5,13.8,17.8,13.8z"/>
<path class="st4" d="M4.6,9.3c0,0-3.2,20.2,13.6,20.2C35,29.5,31.4,9.3,31.4,9.3"/>
<path class="st4" d="M18,13.3c7.4,0,13.4-1.8,13.4-4c0-2.2-6-4-13.4-4c-7.4,0-13.4,1.8-13.4,4C4.6,11.5,10.6,13.3,18,13.3z"/>
<path class="st4" d="M18.4,24.5c1.9,0,3.5-1.6,3.5-3.5s-1.6-3.5-3.5-3.5c-1.9,0-3.5,1.6-3.5,3.5S16.4,24.5,18.4,24.5z"/>
<path class="st4" d="M23.1,29c0.3,0.5,0.4,1.1,0.4,1.7c0,2.4-2.4,4.3-5.3,4.3s-5.3-1.9-5.3-4.3c0-0.5,0.1-1,0.3-1.4"/>
<path class="st4" d="M15.8,34.7v11.7"/>
<path class="st4" d="M21.6,34.7v11.7"/>
<path class="st4" d="M15.8,46.4c0,0,0.8,0.9,2.7,0.9s3.1-0.9,3.1-0.9"/>
<path class="st4" d="M21.8,43.6c3.1,0.7,5.2,2.2,5.2,4c0,2.4-3.8,4.3-8.4,4.3s-8.4-1.9-8.4-4.3c0-1.8,2.1-3.3,5.1-4"/>
<path class="st5" d="M43.8,29.8c0,0,2.1-0.2,2.1-1S45,27,42.3,26.3c-2.6-0.6-6.2-0.9-9-0.8s-11.3,0.7-12,2.5
	c-0.6,1.7,2.6,2.2,2.6,2.2s2.9-2.3,10-2.2C41,28.1,43.8,29.8,43.8,29.8L43.8,29.8z"/>
<path class="st6" d="M45.9,28.8c0,0-2.6,2.6-7.9,2.5c-5.2-0.1-9.7-0.2-10.6-0.4c-0.9-0.2-6.3-1.6-6.3-1.6l0.1,22.5c0,0,3.9,2,11.1,2
	c7.1,0,13.1-0.9,13.7-2.6L45.9,28.8L45.9,28.8z"/>
<path class="st7" d="M43.8,29.8c0,0-2.9-1.8-10.7-1.7c-7.8,0.1-9.1,1.7-9.1,1.7s2.2,1.4,10.2,1.5C42.2,31.3,43.8,29.8,43.8,29.8z"/>
<path class="st6" d="M46.2,44.1v5.2c0,0,9.8-0.5,9.8-8.9c0-8.4-7.5-10.8-9.7-10.6v5.1c0,0,4.3,1.6,4.3,4.9S46.2,44.1,46.2,44.1
	L46.2,44.1z"/>
<path class="st4" d="M33.6,31.2c6.8,0,12.4-1.3,12.4-2.8s-5.5-2.8-12.4-2.8c-6.8,0-12.4,1.3-12.4,2.8S26.8,31.2,33.6,31.2z"/>
<path class="st4" d="M46,51.2c0,1.5-5.6,2.8-12.4,2.8c-6.8,0-12.4-1.3-12.4-2.8"/>
<path class="st4" d="M21.2,51.2V28.4"/>
<path class="st4" d="M46,51.2V28.4"/>
<path class="st4" d="M23.6,30c1.3-1.1,5.4-1.9,10.2-1.9c4.4,0,8.2,0.7,9.9,1.6"/>
<path class="st4" d="M46.2,29.8c5.4,0,9.7,4.4,9.7,9.7c0,5.4-4.4,9.7-9.7,9.7"/>
<path class="st4" d="M46,35c2.4,0,4.4,2,4.4,4.4c0,2.4-2,4.4-4.4,4.4"/>
</svg>
