<svg xmlns="http://www.w3.org/2000/svg" xmlns:xlink="http://www.w3.org/1999/xlink" id="Layer_1" x="0" y="0" version="1.1" viewBox="0 0 68 68" style="enable-background:new 0 0 68 68" xml:space="preserve"><style type="text/css">.st0{fill:#8dc8ff}.st1{fill:#002140}.st2{fill:#ffc68c}.st3{fill:#fed607}.st4{fill:#f9b5fe}.st5,.st6{fill:none;stroke:#002140;stroke-linecap:round;stroke-linejoin:round}.st6{stroke:#003c73}</style><path d="M52.266,26.492c0.472,0.849,0.244,1.659-0.657,2.611l0.02,0.02l-2.422,2.41c-0.778,0.617-1.423,0.523-1.982,0	c1.046-1.14,0.672-2.115-0.531-3.255l-0.393-0.393l-3.071-3.071l-3.071-3.071l-1.046-1.05c-1.03-1.089-1.978-0.955-2.811-0.09	c-0.405-0.704-0.491-1.368,0-1.946l2.811-2.878c0.743-0.684,1.561-0.684,2.265-0.252c0.118,0.071,0.232,0.157,0.342,0.252	l9.892,9.892c0.287,0.283,0.503,0.554,0.657,0.818L52.266,26.492z" class="st0"/><path d="M24.398,47.271l-2.347,0.157c-0.495,0.028-0.849,0-1.097-0.126l-0.212-0.169h-0.004	c-0.212-0.252-0.275-0.68-0.244-1.368l0.142-2.316c1.258,1.007,2.508,2.28,3.763,3.818V47.271z" class="st1"/><path d="M28.389,42.961l3.424-0.59l0.059,4.227c-0.393,0.157-0.841,0.236-1.317,0.259l-6.157,0.413	c-1.254-1.537-2.504-2.811-3.763-3.818l0.377-6.137c0.055-0.818,0.153-1.238,0.397-1.655l4.262,0.57l-0.605,3.255l3.676-0.185	l-0.358,3.653v0.008H28.389z" class="st2"/><path d="M21.811,35.093L36.3,20.605c0.833-0.869,1.781-0.999,2.811,0.09l1.046,1.05L25.672,36.229l-4.262-0.57	C21.517,35.479,21.646,35.306,21.811,35.093z" class="st3"/><path d="M43.227,24.816l3.071,3.071L31.814,42.371l-3.424,0.59l-0.004-0.008l0.358-3.653L43.227,24.816z" class="st3"/><path d="M40.156,21.746l3.071,3.071L28.743,39.301l-3.672,0.185l0.601-3.255L40.156,21.746z" class="st3"/><path d="M46.691,28.28c1.203,1.14,1.581,2.115,0.531,3.255L32.734,46.023c-0.248,0.263-0.539,0.452-0.865,0.578	l-0.059-4.227l14.484-14.484l0.393,0.393L46.691,28.28z" class="st3"/><path d="M41.375,15.534l4.545-4.549c0.605-0.547,2.048-0.889,3.063-0.012l7.875,7.875	c0.719,0.786,0.841,2.151-0.012,3.059l-4.584,4.584c-0.149-0.267-0.369-0.539-0.657-0.818l-9.892-9.892	c-0.11-0.094-0.224-0.181-0.342-0.252L41.375,15.534z" class="st4"/><path d="M21.811,35.094l14.488-14.484" class="st5"/><path d="M36.3,18.659l2.811-2.878" class="st5"/><path d="M32.737,46.019l14.488-14.488" class="st5"/><path d="M49.207,31.531l2.422-2.41" class="st5"/><path d="M39.111,20.697l1.046,1.05l3.071,3.071l3.071,3.071l0.393,0.393" class="st5"/><path d="M51.61,25.673l-9.892-9.892" class="st5"/><path d="M36.3,20.609c0.833-0.869,1.781-0.999,2.811,0.09" class="st5"/><path d="M47.226,31.533c1.046-1.14,0.672-2.115-0.531-3.256" class="st5"/><path d="M47.226,31.531c0.562,0.523,1.207,0.617,1.982,0" class="st5"/><path d="M36.3,20.61c-0.405-0.704-0.491-1.368,0-1.946" class="st5"/><path d="M41.717,15.781c-0.11-0.094-0.224-0.181-0.342-0.252c-0.704-0.436-1.521-0.436-2.265,0.252" class="st5"/><path d="M51.609,25.674c0.287,0.283,0.503,0.554,0.657,0.818c0.472,0.849,0.244,1.659-0.657,2.611" class="st5"/><path d="M52.262,26.496l0.004-0.004l4.584-4.584" class="st5"/><path d="M41.375,15.533l4.549-4.553" class="st5"/><path d="M48.987,10.973l7.875,7.875" class="st5"/><path d="M45.924,10.981c0.605-0.547,2.048-0.889,3.063-0.012" class="st5"/><path d="M56.862,18.848c0.72,0.786,0.841,2.151-0.012,3.059" class="st5"/><path d="M20.494,45.77l0.146-2.316l0.373-6.137" class="st5"/><path d="M22.051,47.431l2.347-0.161l6.157-0.409" class="st5"/><path d="M21.812,35.094c-0.165,0.208-0.295,0.385-0.401,0.566c-0.244,0.417-0.342,0.837-0.397,1.655" class="st5"/><path d="M30.555,46.861c0.476-0.028,0.924-0.102,1.317-0.26c0.326-0.13,0.617-0.315,0.865-0.574" class="st5"/><path d="M20.742,47.137c0.059,0.071,0.13,0.122,0.212,0.169c0.244,0.13,0.598,0.153,1.097,0.126" class="st5"/><path d="M20.494,45.768c-0.031,0.684,0.031,1.113,0.244,1.36" class="st5"/><path d="M20.636,43.453c1.258,1.007,2.508,2.28,3.763,3.818" class="st5"/><path d="M43.227,24.816L28.743,39.301" class="st5"/><path d="M40.157,21.746L25.672,36.23" class="st5"/><path d="M46.298,27.887L31.814,42.371" class="st5"/><path d="M31.814,42.371l0.059,4.226" class="st5"/><path d="M25.672,36.23l-4.262-0.57" class="st5"/><path d="M25.071,39.486l3.672-0.185" class="st5"/><path d="M28.385,42.953l0.358-3.653" class="st5"/><path d="M31.813,42.371l-3.424,0.59h-0.016" class="st5"/><path d="M25.672,36.23l-0.601,3.255" class="st5"/><path d="M20.738,47.133l0.004,0.004l0.212,0.169l5.559,4.396" class="st6"/><path d="M16.02,50.443l5.776,4.569" class="st6"/><path d="M12.226,53.848l2.984,2.363" class="st6"/><path d="M16.02,50.444c-4.686-3.841-7.25,0.995-3.794,3.409" class="st6"/><path d="M21.796,55.012c5.61,4.502,10.049,0.468,4.718-3.31" class="st6"/></svg>