<?xml version="1.0" encoding="utf-8"?>
<!-- Generator: Adobe Illustrator 28.1.0, SVG Export Plug-In . SVG Version: 6.00 Build 0)  -->
<svg version="1.1" id="Layer_1" xmlns="http://www.w3.org/2000/svg" xmlns:xlink="http://www.w3.org/1999/xlink" x="0px" y="0px"
	 viewBox="0 0 160 140" style="enable-background:new 0 0 160 140;" xml:space="preserve">
<style type="text/css">
	.st0{fill:#FFC68C;}
	.st1{fill:#FFF2B2;}
	.st2{fill:none;stroke:#002140;stroke-linecap:round;stroke-linejoin:round;}
	.st3{fill:#780505;stroke:#780505;stroke-linecap:round;stroke-linejoin:round;}
	.st4{fill:none;stroke:#780505;stroke-width:2;}
	.st5{fill:#002140;}
	.st6{fill:#722B03;}
	.st7{fill:#F25730;}
	.st8{fill:#FFFAF0;}
	.st9{fill:#FFED8F;}
	.st10{fill:#D18000;}
	.st11{fill:none;stroke:#002140;stroke-width:1;stroke-linecap:round;stroke-linejoin:round;}
	.st12{fill:#03D47C;stroke:#002140;stroke-width:1;stroke-miterlimit:10;}
</style>
<path class="st0" d="M130.171,26.002c5.544,13.722-2.234,18.966-1.27,28.461c1.329,13.056,5.872,15.503,6.006,15.467
	c-1.695,7.055-9.226,7.349-9.226,7.349s-2.055-2.262-4.11-7.434c-0.721-1.812-1.441-3.986-2.076-6.549
	c-2.249-9.105,0.623-16.954,0.623-16.954s6.85-1.934,8.194-6.358c-3.997,1.694-7.092,1.566-7.025,1.45
	c-0.535-2.341,0.42-4.131,0.42-4.131s10.896-2.198,8.743-10.235c-0.1-0.373-0.212-0.717-0.341-1.049l0.055-0.015L130.171,26.002z"/>
<path class="st1" d="M121.37,69.926c0,0-1.626,0.193-5.27,3.182c-3.651,2.984-5.729,6.655-11.95,8.61
	c-6.223,1.949-11.938-2.255-18.356,0.042c-6.42,2.29-6.526,9.208-6.479,9.386c-3.584-1.242-4.24-8.336-4.24-8.336
	s0.809-3.757,5.659-7.258c-2.831-0.389-6.409,0.715-6.409,0.715s2.693-4.406,9.56-7.157c-6.02-0.157-9.563,2.326-10.61,2.699
	c-1.31-7.017,2.65-15.82,1.436-22.482c-1.215-6.662-4.596-11.256-4.596-11.256s2.139-4.349,10.467-5.387
	c5.366-0.671,9.494,2.576,18.075,1.037c4.522-0.812,8.254-5.083,11.259-8.326c3.005-3.244,9.257-4.349,9.257-4.349
	s8.3-1.831,10.935,4.969c0.128,0.333,0.242,0.682,0.34,1.049c2.154,8.036-8.742,10.235-8.742,10.235s-0.956,1.79-0.42,4.131
	c-0.068,0.116,3.028,0.244,7.025-1.45c-1.345,4.424-8.195,6.358-8.195,6.358s-2.872,7.849-0.622,16.954
	c0.633,2.557,1.353,4.731,2.076,6.549l-0.201,0.08L121.37,69.926z"/>
<path class="st2" d="M130.171,26.002c5.545,13.722-2.234,18.966-1.269,28.461c1.328,13.056,5.871,15.503,6.005,15.467
	c-1.695,7.055-9.226,7.349-9.226,7.349s-2.055-2.262-4.109-7.434c-0.722-1.812-1.442-3.986-2.077-6.549
	c-2.249-9.105,0.623-16.954,0.623-16.954s6.85-1.934,8.194-6.358c-3.997,1.694-7.092,1.566-7.025,1.45
	c-0.535-2.341,0.421-4.131,0.421-4.131s10.895-2.198,8.742-10.235c-0.1-0.373-0.212-0.717-0.341-1.05
	c-2.636-6.806-8.531-5.469-10.934-4.969c-9.596,2.571-12.884,10.63-20.517,12.675c-8.583,1.533-12.709-1.708-18.075-1.037
	c-8.329,1.039-10.467,5.387-10.467,5.387s3.381,4.594,4.596,11.256c1.215,6.662-2.745,15.465-1.436,22.482
	c1.047-0.372,4.59-2.856,10.61-2.699c-6.867,2.751-9.56,7.157-9.56,7.157s3.578-1.103,6.409-0.715
	c-4.85,3.502-5.659,7.259-5.659,7.259s0.655,7.094,4.24,8.336c-0.048-0.177,0.059-7.095,6.479-9.386
	c6.414-2.289,12.135,1.914,18.356-0.041c6.221-1.955,8.299-5.626,11.95-8.61s5.27-3.182,5.27-3.182"/>
<path class="st3" d="M96.534,46.944l-2.468-1.919l2.664-2.711l-1.249-0.969l-2.581,2.697l-2.709-2.054l-1.32,1.282l2.837,2.122
	l-2.557,2.729l1.165,0.98l2.665-2.735l2.368,1.852L96.534,46.944z"/>
<path class="st3" d="M105.743,64.268l-2.468-1.919l2.664-2.711l-1.249-0.969l-2.581,2.697L99.4,59.311l-1.32,1.282l2.837,2.122
	l-2.557,2.729l1.165,0.98l2.665-2.735l2.368,1.852L105.743,64.268z"/>
<path class="st4" d="M91.607,67.779c2.028-0.203,3.902,1.337,4.121,3.522c0.219,2.185-1.312,4.067-3.339,4.271
	c-2.027,0.203-3.901-1.338-4.12-3.522C88.05,69.865,89.58,67.983,91.607,67.779z"/>
<path class="st5" d="M88.089,65.194c0.071,0.267,0.346,0.425,0.612,0.354c0.267-0.071,0.425-0.346,0.354-0.612l-0.483,0.129
	L88.089,65.194z M87.628,61.451l-0.497,0.055L87.628,61.451z M87.843,59.167l-0.394-0.308L87.843,59.167z M89.477,57.323
	l-0.301-0.399L89.477,57.323z M92.559,55.938l-0.193-0.461L92.559,55.938z M100.73,53.579l0.18,0.466L100.73,53.579z M105.5,50.016
	c0.008-0.276-0.208-0.507-0.484-0.516l-4.498-0.144c-0.276-0.009-0.507,0.208-0.516,0.484c-0.008,0.276,0.208,0.507,0.484,0.516
	l3.998,0.128l-0.128,3.998c-0.009,0.276,0.207,0.507,0.483,0.516c0.276,0.009,0.507-0.208,0.516-0.484L105.5,50.016z M88.572,65.064
	l0.483-0.129c-0.157-0.587-0.37-1.226-0.543-1.808c-0.178-0.601-0.326-1.179-0.387-1.731l-0.497,0.055l-0.497,0.055
	c0.071,0.643,0.24,1.29,0.422,1.906c0.188,0.635,0.381,1.206,0.536,1.782L88.572,65.064z M87.628,61.451l0.497-0.055
	c-0.041-0.367-0.091-0.756-0.084-1.128c0.008-0.381,0.077-0.641,0.196-0.793l-0.394-0.308l-0.394-0.308
	c-0.322,0.412-0.399,0.943-0.408,1.388c-0.009,0.454,0.053,0.924,0.09,1.258L87.628,61.451z M87.843,59.167l0.394,0.308
	c0.528-0.675,0.964-1.317,1.541-1.752l-0.301-0.399l-0.301-0.399c-0.714,0.538-1.262,1.341-1.727,1.935L87.843,59.167z
	 M89.477,57.323l0.301,0.399c0.4-0.302,0.866-0.521,1.379-0.722c0.474-0.186,1.093-0.391,1.595-0.601l-0.193-0.461l-0.193-0.461
	c-0.521,0.218-0.989,0.364-1.574,0.592c-0.545,0.213-1.108,0.472-1.616,0.855L89.477,57.323z M92.559,55.938l0.193,0.461
	c0.521-0.219,1.091-0.378,1.689-0.524c0.581-0.142,1.226-0.278,1.814-0.436l-0.129-0.483l-0.129-0.483
	c-0.58,0.156-1.161,0.276-1.792,0.43c-0.614,0.15-1.244,0.324-1.839,0.574L92.559,55.938z M96.126,54.956l0.129,0.483
	c1.52-0.407,3.14-0.809,4.655-1.393l-0.18-0.466l-0.18-0.466c-1.452,0.56-3.004,0.945-4.554,1.36L96.126,54.956z M100.73,53.579
	l0.18,0.466c0.436-0.168,0.907-0.473,1.356-0.814c0.456-0.346,0.918-0.751,1.339-1.144c0.423-0.394,0.81-0.781,1.116-1.093
	c0.316-0.321,0.526-0.541,0.621-0.63L105,50l-0.342-0.365c-0.115,0.107-0.358,0.362-0.65,0.658
	c-0.302,0.307-0.678,0.682-1.085,1.062c-0.408,0.381-0.843,0.761-1.261,1.079c-0.425,0.322-0.807,0.56-1.112,0.677L100.73,53.579z"
	/>
<path class="st6" d="M85.407,95.485l27.36-0.831v-5.849H86.452l-33.63-25.276L25.248,89.221l4.18,4.596l24.017-21.933L85.407,95.485
	z"/>
<path class="st7" d="M30.958,83.442l8.914-8.354h-9.191L30.958,83.442z"/>
<path class="st8" d="M30.121,94.585v22.418h81.047V94.862H85.407L53.445,71.883L30.121,94.585z"/>
<path class="st7" d="M48.975,100.301v16.154h11.697v-16.009L48.975,100.301z"/>
<path class="st9" d="M58.463,108.089c0.654,0,1.184-0.53,1.184-1.184c0-0.653-0.53-1.183-1.184-1.183
	c-0.654,0-1.183,0.53-1.183,1.183C57.279,107.559,57.809,108.089,58.463,108.089z"/>
<path class="st9" d="M59.369,82.189h-9.053v10.998h9.053V82.189z"/>
<path class="st9" d="M44.052,100.011H35v10.998h9.053V100.011z"/>
<path class="st9" d="M76.076,100.433h-9.053v10.998h9.053V100.433z"/>
<path class="st10" d="M106.294,102.378h-19.22v14.48h19.22V102.378z"/>
<path class="st11" d="M112.962,88.604l-26.46-0.069L53.08,63.681l-28.197,25.83l4.803,4.526l23.677-22.557l31.748,23.532
	l27.989-0.277L112.962,88.604z"/>
<path class="st11" d="M29.686,94.037v22.84h81.746V95.29"/>
<path class="st11" d="M86.779,116.316v-14.064h19.636v13.926"/>
<path class="st11" d="M86.924,107.409h18.937"/>
<path class="st11" d="M86.924,112.143h18.937"/>
<path class="st11" d="M49.529,115.555v-15.324h11.697v15.147"/>
<path class="st11" d="M58.652,108.724c0.807,0,1.46-0.654,1.46-1.46c0-0.807-0.654-1.461-1.46-1.461
	c-0.807,0-1.461,0.654-1.461,1.461C57.191,108.07,57.845,108.724,58.652,108.724z"/>
<path class="st11" d="M43.895,99.885h-9.053v11.282h9.053V99.885z"/>
<path class="st11" d="M76.688,99.885h-9.053v11.282h9.053V99.885z"/>
<path class="st11" d="M59.696,82.132h-9.053v11.282h9.053V82.132z"/>
<path class="st11" d="M30.661,83.454v-8.493h9.191"/>
<path class="st11" d="M31.36,78.72h1.668"/>
<path class="st12" d="M110.852,46.452v-3.898c0-0.386,0.314-0.701,0.702-0.702h3.898c0.386,0,0.701-0.315,0.702-0.702v-1.903
	c0-0.386-0.314-0.701-0.702-0.702h-3.898c-0.386,0-0.701-0.315-0.702-0.702v-3.898c0-0.386-0.315-0.701-0.703-0.702h-1.903
	c-0.386,0-0.701,0.315-0.702,0.702v3.898c0,0.386-0.315,0.701-0.703,0.702h-3.897c-0.387,0-0.701,0.315-0.703,0.702v1.903
	c0,0.386,0.315,0.701,0.703,0.702h3.898c0.386,0,0.701,0.315,0.702,0.702v3.898c0,0.386,0.314,0.701,0.702,0.702h1.903
	C110.536,47.154,110.85,46.84,110.852,46.452z"/>
</svg>
