<svg xmlns="http://www.w3.org/2000/svg" xml:space="preserve" id="Layer_1" x="0" y="0" viewBox="0 0 68 68"><style>.st0{fill:#722b03}.st1{fill:#fed607}.st2{fill:#780505}.st3{fill:none;stroke:#002140;stroke-linecap:round;stroke-linejoin:round}.st4{fill:#ff7101}.st5{fill:#fbccff}.st6{fill:#002140}</style><path d="M16.3 49.1V20.5h.4c0 1.3 1.2 2.3 2.7 2.3s2.7-1 2.7-2.3v-.4h19.2v.4c0 1.3 1.2 2.3 2.7 2.3s2.7-1 2.7-2.3v-.4h1.8c1.3 0 2.3 1 2.3 2.3v24.3c0 1.3-1 2.3-2.3 2.3z" class="st0"/><path d="M41.3 20.2h5.3v.4c0 1.3-1.2 2.3-2.7 2.3s-2.7-1-2.7-2.3zm-19.3 0v.4c0 1.3-1.2 2.3-2.7 2.3s-2.7-1-2.7-2.3v-.4z" class="st1"/><path d="M26 20.2h-4v-8c0-1.2 1-2.2 2.2-2.2H39c1.2 0 2.2 1 2.2 2.2v8h-3.8v-4.8c0-1.2-1-2.2-2.2-2.2h-7c-1.2 0-2.2 1-2.2 2.2zm-9.7.3V49H13c-1.3 0-2.3-1-2.3-2.3V22.4c0-1.3 1-2.3 2.3-2.3h3.6v.4z" class="st2"/><path d="M46.6 20.2h1.8c1.3 0 2.3 1 2.3 2.3v24.3c0 1.3-1 2.3-2.3 2.3H13c-1.3 0-2.3-1-2.3-2.3V22.4c0-1.3 1-2.3 2.3-2.3zM16.3 49.1V20.5" class="st3"/><path d="M22 20.5c0 1.3-1.2 2.3-2.7 2.3s-2.7-1-2.7-2.3m30 0c0 1.3-1.2 2.3-2.7 2.3s-2.7-1-2.7-2.3M22 20v-7.9c0-1.2 1-2.2 2.2-2.2H39c1.2 0 2.2 1 2.2 2.2V20" class="st3"/><path d="M26 20.2v-4.8c0-1.2 1-2.2 2.2-2.2h7c1.2 0 2.2 1 2.2 2.2v4.5" class="st3"/><path d="m60 38.5-25.1.1c-.7 0-1.3.6-1.3 1.3l.1 13.7c0 .7.6 1.3 1.3 1.3l25.1-.1c.7 0 1.3-.6 1.3-1.3l-.1-13.7c0-.7-.6-1.3-1.3-1.3" class="st4"/><path d="m59.8 38.5-24.7.1c-.9 0-1.6.7-1.6 1.6l.1 13.2c0 .9.7 1.6 1.6 1.6l24.7-.1c.9 0 1.6-.7 1.6-1.6L61.4 40c0-.8-.7-1.5-1.6-1.5M36.2 52.2H40m1.7 0h3.8" class="st3"/><path d="M41.9 47.6v-3.1c0-.2-.3-.3-.7-.3h-2.5c-.2 0-.4 0-.5.1l-.8.5c-.1.1-.1.1-.1.2v2.2c0 .1 0 .1.1.2l.6.4c.1.1.3.1.6.1h2.7c.3 0 .6-.2.6-.3" class="st5"/><path d="M57.9 43.9H47.5c-.4 0-.7.3-.7.7v2.3c0 .4.3.7.7.7h10.4c.4 0 .7-.3.7-.7v-2.3c0-.4-.3-.7-.7-.7" class="st6"/></svg>