<?xml version="1.0" encoding="utf-8"?>
<!-- Generator: Adobe Illustrator 26.5.0, SVG Export Plug-In . SVG Version: 6.00 Build 0)  -->
<svg version="1.1" id="Layer_1" xmlns="http://www.w3.org/2000/svg" xmlns:xlink="http://www.w3.org/1999/xlink" x="0px" y="0px"
	 viewBox="0 0 68 68" style="enable-background:new 0 0 68 68;" xml:space="preserve">
<style type="text/css">
	.st0{fill:#0164BF;}
	.st1{fill:#003C73;}
	.st2{fill:#002140;}
	.st3{fill:#F9B5FE;}
</style>
<g>
	<path class="st0" d="M43.4,15.1v-3.4c0,0-0.9-3.5-3.8-3.5H28.9c0,0-3.2,0.4-3.2,2.7v4.2h3.4c0,0,0-3.5,2.4-3.5h6.2
		c0,0,1.6,0.9,1.6,3.3L43.4,15.1L43.4,15.1z"/>
</g>
<g>
	<path class="st0" d="M23.7,58.5V15.7c0,0-7,0.6-7,6s-0.4,30.5-0.4,30.5S17.3,58.2,23.7,58.5L23.7,58.5z"/>
</g>
<g>
	<path class="st1" d="M45,15.1H23.7V59h20.1c0,0,7.3-1.6,7.3-7.4V22.4C51.2,22.4,52.1,17.6,45,15.1L45,15.1z"/>
</g>
<g>
	<path class="st2" d="M31.5,21.5c0-1.3-1.1-2.4-2.4-2.4c-1.3,0-2.4,1.1-2.4,2.4v29.9c0,1.3,1.1,2.4,2.4,2.4c1.3,0,2.4-1.1,2.4-2.4
		V21.5z"/>
</g>
<g>
	<path class="st2" d="M39,21.5c0-1.3-1.1-2.4-2.4-2.4c-1.3,0-2.4,1.1-2.4,2.4v29.9c0,1.3,1.1,2.4,2.4,2.4c1.3,0,2.4-1.1,2.4-2.4
		V21.5z"/>
</g>
<g>
	<path class="st2" d="M46.5,21.5c0-1.3-1.1-2.4-2.4-2.4c-1.3,0-2.4,1.1-2.4,2.4v29.9c0,1.3,1.1,2.4,2.4,2.4c1.3,0,2.4-1.1,2.4-2.4
		V21.5z"/>
</g>
<g>
	<path class="st3" d="M46.5,27l-4-1.8l-3.1,2.9l1.5,9.3l7.1-1L46.5,27z"/>
</g>
<g>
	<path class="st2" d="M43.6,59.3H24c-4.5,0-8.1-3.6-8.1-8.1V22.8c0-4.5,3.6-8.1,8.1-8.1h19.6c4.5,0,8.1,3.6,8.1,8.1v28.4
		C51.8,55.7,48.1,59.3,43.6,59.3z M24,15.7c-3.9,0-7.1,3.2-7.1,7.1v28.4c0,3.9,3.2,7.1,7.1,7.1h19.6c3.9,0,7.1-3.2,7.1-7.1V22.8
		c0-3.9-3.2-7.1-7.1-7.1H24z"/>
</g>
<g>
	<path class="st2" d="M23.6,59.2c-0.3,0-0.5-0.2-0.5-0.5V15.3c0-0.3,0.2-0.5,0.5-0.5s0.5,0.2,0.5,0.5v43.5
		C24.1,59,23.9,59.2,23.6,59.2z"/>
</g>
<g>
	<path class="st2" d="M23.6,64.2c1.4,0,2.5-1.1,2.5-2.5c0-1.4-1.1-2.5-2.5-2.5s-2.5,1.1-2.5,2.5C21.1,63.1,22.2,64.2,23.6,64.2z"/>
</g>
<g>
	<path class="st2" d="M43.5,64.2c1.4,0,2.5-1.1,2.5-2.5c0-1.4-1.1-2.5-2.5-2.5c-1.4,0-2.5,1.1-2.5,2.5C41,63.1,42.1,64.2,43.5,64.2z
		"/>
</g>
<g>
	<path class="st2" d="M43.3,15.4c-0.3,0-0.5-0.2-0.5-0.5v-3.1c0-1.8-1.5-3.3-3.3-3.3H29.3c-1.8,0-3.3,1.5-3.3,3.3v3.1
		c0,0.3-0.2,0.5-0.5,0.5S25,15.2,25,14.9v-3.1c0-2.4,1.9-4.3,4.3-4.3h10.2c2.4,0,4.3,1.9,4.3,4.3v3.1C43.8,15.2,43.6,15.4,43.3,15.4
		z"/>
</g>
<g>
	<path class="st2" d="M39.6,15.5c-0.3,0-0.5-0.2-0.5-0.5v-1.3c0-1.1-0.9-1.9-1.9-1.9h-5.4c-1.1,0-1.9,0.9-1.9,1.9v1.3
		c0,0.3-0.2,0.5-0.5,0.5s-0.5-0.2-0.5-0.5v-1.3c0-1.6,1.3-2.9,2.9-2.9h5.4c1.6,0,2.9,1.3,2.9,2.9V15C40.1,15.3,39.8,15.5,39.6,15.5z
		"/>
</g>
<g>
	<path class="st2" d="M42.2,25.7c-0.2,0-0.3-0.1-0.4-0.2c-3-4.1-9.1-8.4-11-9.7c-0.2-0.2-0.3-0.5-0.1-0.7c0.2-0.2,0.5-0.3,0.7-0.1
		c1.7,1.2,7.3,5.1,10.6,9c0.3-1.7,0.8-5.1,0.3-8.5c0-0.3,0.1-0.5,0.4-0.6c0.3,0,0.5,0.1,0.6,0.4c0.8,4.9-0.5,9.7-0.5,9.9
		C42.7,25.5,42.5,25.6,42.2,25.7C42.3,25.7,42.3,25.7,42.2,25.7z"/>
</g>
<g>
	<path class="st2" d="M40.7,38.1c-0.1,0-0.2,0-0.3-0.1c-0.1-0.1-0.2-0.2-0.2-0.3l-1.5-9.5c0-0.2,0-0.3,0.1-0.4l3.1-2.9
		c0.1-0.1,0.3-0.2,0.5-0.1l4,1.6c0.2,0.1,0.3,0.2,0.3,0.4l1.5,9.7c0,0.3-0.1,0.5-0.4,0.6L40.7,38.1C40.8,38.1,40.7,38.1,40.7,38.1z
		 M39.8,28.2l1.4,8.8l6.1-1l-1.4-8.9l-3.4-1.4L39.8,28.2z"/>
</g>
<g>
	<path class="st1" d="M23.6,62.6c0.5,0,0.9-0.4,0.9-0.9c0-0.5-0.4-0.9-0.9-0.9c-0.5,0-0.9,0.4-0.9,0.9
		C22.7,62.2,23.1,62.6,23.6,62.6z"/>
</g>
<g>
	<path class="st1" d="M43.5,62.6c0.5,0,0.9-0.4,0.9-0.9c0-0.5-0.4-0.9-0.9-0.9s-0.9,0.4-0.9,0.9C42.6,62.2,43,62.6,43.5,62.6z"/>
</g>
</svg>
