<svg xmlns="http://www.w3.org/2000/svg" xml:space="preserve" id="Layer_1" x="0" y="0" viewBox="0 0 68 68"><style>.st0{fill:#fed607}.st1{fill:#d18000}.st2,.st3{fill:none;stroke-width:.9999}.st2{stroke:#002140;stroke-linecap:round;stroke-linejoin:round}.st3{stroke:#d18000;stroke-miterlimit:10}.st4{fill:#ffed8f}</style><path d="M10.957 45.597s2.703 5.551 21.067 4.98S52.52 46.45 52.52 45.309s-8.399-4.98-19.501-4.839-21.633 1.424-22.062 5.122z" class="st0"/><path d="M11.24 46.592v6.121s7.687 4.127 21.491 4.127 19.926-4.414 19.926-4.414v-6.121s-6.405 4.839-20.638 4.268-19.068-2.844-20.779-3.981" class="st1"/><path d="M31.882 50.336c11.476 0 20.779-2.166 20.779-4.839 0-2.672-9.303-4.839-20.779-4.839s-20.779 2.166-20.779 4.839c0 2.672 9.303 4.839 20.779 4.839" class="st2"/><path d="M11.099 45.498v6.357c0 2.673 9.304 4.839 20.779 4.839s20.779-2.166 20.779-4.839v-6.357" class="st2"/><path d="M31.976 46.922c4.402 0 7.97-.718 7.97-1.604s-3.568-1.604-7.97-1.604-7.97.718-7.97 1.604c0 .885 3.568 1.604 7.97 1.604z" class="st3"/><path d="M16.367 35.819s2.702 5.551 21.066 4.98 20.496-4.127 20.496-5.268-8.399-4.98-19.501-4.839-21.633 1.424-22.062 5.122v.005z" class="st0"/><path d="M16.649 36.819v6.121s7.687 4.127 21.491 4.127 19.926-4.414 19.926-4.414v-6.121s-6.404 4.839-20.638 4.268c-14.233-.57-19.072-2.848-20.779-3.985z" class="st1"/><path d="M37.286 40.564c11.476 0 20.779-2.166 20.779-4.839 0-2.672-9.303-4.839-20.779-4.839s-20.779 2.166-20.779 4.839 9.303 4.839 20.779 4.839" class="st2"/><path d="M16.507 35.725v6.357c0 2.672 9.304 4.839 20.779 4.839s20.779-2.166 20.779-4.839v-6.357" class="st2"/><path d="M37.381 37.15c4.402 0 7.97-.718 7.97-1.604s-3.568-1.604-7.97-1.604-7.97.718-7.97 1.604c-.001.886 3.568 1.604 7.97 1.604z" class="st3"/><path d="M10.721 26.941s2.702 5.551 21.067 4.98c18.364-.57 20.496-4.127 20.496-5.268s-8.399-4.98-19.501-4.839-21.633 1.424-22.062 5.122z" class="st0"/><path d="M11.003 27.936v6.121s7.687 4.127 21.491 4.127S52.42 33.77 52.42 33.77v-6.121s-6.404 4.839-20.638 4.268c-14.233-.571-19.071-2.84-20.779-3.981" class="st1"/><path d="M31.642 31.685c11.476 0 20.779-2.166 20.779-4.839 0-2.672-9.303-4.839-20.779-4.839s-20.779 2.166-20.779 4.839 9.303 4.839 20.779 4.839" class="st2"/><path d="M10.863 26.846v6.357c0 2.673 9.304 4.839 20.779 4.839s20.779-2.166 20.779-4.839v-6.357" class="st2"/><path d="M31.736 28.265c4.402 0 7.97-.718 7.97-1.604s-3.568-1.604-7.97-1.604-7.97.718-7.97 1.604 3.568 1.604 7.97 1.604z" class="st3"/><path d="M16.178 17.13s2.703 5.551 21.066 4.98c18.364-.57 20.496-4.127 20.496-5.268s-8.399-4.98-19.501-4.839-21.633 1.424-22.062 5.122v.005z" class="st0"/><path d="M17.718 15.426c1.78 1.253 4.131 1.377 6.284 1.055s4.234-1.038 6.396-1.304c2.497-.309 5.027-.009 7.545-.009 1.017 0 2.068-.06 2.973-.523s1.617-1.437 1.484-2.441c0 0-7.618-.27-13.431.172S17.721 15.43 17.721 15.43z" class="st4"/><path d="M16.461 18.125v6.121s7.687 4.127 21.491 4.127 19.925-4.414 19.925-4.414v-6.121s-6.404 4.839-20.638 4.268-19.072-2.848-20.779-3.985v.004z" class="st1"/><path d="M37.098 21.875c11.476 0 20.779-2.166 20.779-4.839s-9.303-4.839-20.779-4.839-20.779 2.166-20.779 4.839 9.303 4.839 20.779 4.839" class="st2"/><path d="M16.319 17.035v6.357c0 2.672 9.304 4.839 20.779 4.839s20.779-2.166 20.779-4.839v-6.357" class="st2"/><path d="M37.193 18.455c4.402 0 7.97-.718 7.97-1.604s-3.568-1.604-7.97-1.604-7.97.718-7.97 1.604c0 .885 3.568 1.604 7.97 1.604z" class="st3"/></svg>