<svg xmlns="http://www.w3.org/2000/svg" xml:space="preserve" id="Layer_1" x="0" y="0" viewBox="0 0 68 68"><style>.st0{fill:#4ba6a6}.st1{fill:#002140}.st2{fill:#ffed8f}.st3{fill:#fffaf0}.st4{fill:#fbccff}.st5{fill:none;stroke:#002140;stroke-width:1;stroke-linecap:round;stroke-linejoin:round}</style><path d="m16.303 18.365 3.777 36.478s4.688 3.777 14.591 3.648c9.903-.13 13.68-3.907 13.68-3.907L52 18.365s-5.733 2.996-14.069 2.867c-8.336-.13-18.369-.26-21.628-2.867" class="st0"/><path d="m18.32 18.691-.715-2.607s-1.304.455-1.174 1.5c.13 1.04 1.889 1.107 1.889 1.107m30.746-2.8 1.174 3.192s2.281-.911 1.563-1.826c-.719-.914-2.737-1.366-2.737-1.366" class="st1"/><path d="m22.687 14.132-4.429-1.759s-.887 3.161-.652 3.715c.236.554.848 2.996.848 2.996l3.715.911.522-5.862h-.004z" class="st2"/><path d="M33.367 13.154s2.395-3.766 3.255-3.648 2.67 1.174 3.974 1.237c1.304.067 4.3-1.107 4.3-1.107s3.451 5.081 3.581 5.277 1.366 4.559 1.366 4.559l-5.603 1.304-10.421-3.581-.456-4.041z" class="st3"/><path d="m44.248 20.776-1.15-2.67-4.084-1.736-3.302 1.041-1.041-3.475-5.297-2.78-1.826 2.953-4.084-.695-.868 2.171-.436 4.41s7.209 1.064 13.201 1.15 8.882-.369 8.882-.369z" class="st4"/><path d="M48.666 15.523c2.077.597 3.294 1.327 3.294 2.116 0 2.014-7.971 3.648-17.807 3.648s-17.807-1.633-17.807-3.648c0-.499.487-.97 1.362-1.402M48.27 54.191c0 2.399-6.318 4.343-14.116 4.343s-14.116-1.944-14.116-4.343m.003.001L16.35 17.635m31.92 36.557 3.691-36.557M19.538 46.374l15.459 12.161M18.234 34.908 45.418 56.19M17.104 22.747l31.865 24.522M32.182 21.408l17.941 13.806m-4.83-14.67 5.427 4.174m-2.085 21.483-15.459 12.16m16.849-23.367L22.837 56.276m28.314-33.439-31.86 24.518m16.786-25.86-17.94 13.806m4.829-14.671-5.427 4.174" class="st5"/><path d="M26.544 16.08a11.7 11.7 0 0 0 2.658-5.442c1.614 1.417 3.451 2.548 5.482 3.251.114.039.236.082.31.177.078.102.09.24.098.365a16 16 0 0 0 1.143 4.893 12.25 12.25 0 0 1-6.09-1.422" class="st5"/><path d="M27.698 14.121a48 48 0 0 0-3.526-1.029c-.291-.071-.62-.134-.868.035-.153.106-.24.279-.314.448-.84 1.948-.55 4.209-1.182 6.236m11.804-7.265a12.7 12.7 0 0 1 2.541-2.921c.157-.134.33-.267.534-.298.291-.043.562.137.805.302 1.155.774 2.47 1.382 3.86 1.425s2.855-.573 3.55-1.775c2.081 3.192 4.205 6.84 4.837 10.111m-14.007-2.062c.742-.314 1.488-.624 2.23-.938.153-.063.306-.13.471-.137.161-.008.322.039.475.086 1.19.365 2.38.726 3.569 1.092.126.039.255.079.357.161.137.106.212.271.283.432q.52 1.16 1.033 2.321m-21.557-6.378a14.4 14.4 0 0 1-4.201-2.215 16.2 16.2 0 0 0-.554 4.889c.035.852.149 1.736.605 2.458" class="st5"/></svg>