<svg xmlns="http://www.w3.org/2000/svg" id="Layer_1" viewBox="0 0 200 180"><defs><style>.st0{fill:#f25730}.st1{fill:#ffc68c}.st2{fill:#002140}.st3{fill:#ffa75a}.st4{fill:none;stroke:#002140;stroke-linecap:round;stroke-linejoin:round}.st5{fill:#d18000}.st6{fill:#085239}.st7{fill:#780505}</style></defs><path d="M62.92 136.82h-8.06l-5.83 10.81v30.04h71.91l-.35-31.41-10.12-10.3-47.54.86Z" class="st0"/><path d="M49.02 177.67H69.1v-31.75l-6.52-9.95h-7.72l-5.83 11.67v30.04Z" class="st7"/><path d="m104.85 136.37-5.15-11.55-2.98-1.49-30.66.68-2.17 1.83-3.66 10.76 6.07-.46 1.71-6.06 2.06-1.6 24.14-.11 2.4 1.6 2.41 6.29zm-21.52 10.75h-8.58s-.34 5.38 4.23 5.38 4.35-5.38 4.35-5.38m31.08 0h-8.58s-.34 5.38 4.23 5.38 4.35-5.38 4.35-5.38m-44.8 21.45v8.92h6.86s.69-8.06-6.86-8.92m43.76 9.27h7.55l-.17-9.27s-7.55-1.72-7.38 9.27" class="st3"/><path d="M114.74 122.41 59.31 8.8s-2.75-2.75-4.12-1.72.17 4.46.17 4.46l57.15 117.56z" class="st5"/><path d="m139.81 143-9.61 4.12s1.37 7.89 4.81 9.78c0 0 0 6.86 3.95 9.61 0 0 .53 5.91 3.41 8.31.41.34.87.62 1.39.79 4.12 1.37 8.58-3.95 8.58-3.95s-.86-6.69-3.95-8.92c0 0-.69-6.86-3.95-8.75 0 0 .17-10.13-4.63-10.98Z" class="st6"/><path d="M128.99 147.46c8.82 0 15.96-7.15 15.96-15.96s-7.15-15.96-15.96-15.96-15.96 7.15-15.96 15.96 7.15 15.96 15.96 15.96" class="st1"/><path d="M128.91 136.82c3.65 0 6.6-2.96 6.6-6.61s-2.96-6.61-6.6-6.61-6.61 2.96-6.61 6.61 2.96 6.61 6.61 6.61" class="st3"/><path d="M118.67 108.08s-2.69-3.16-4.49-1.73c-1.81 1.43-1.98 3.81-.96 4.86" class="st1"/><path d="M119.5 122.27c3.79 0 6.86-3.07 6.86-6.86s-3.07-6.86-6.86-6.86-6.86 3.07-6.86 6.86 3.07 6.86 6.86 6.86" class="st0"/><path d="m112.51 116.75 2.62 3.32s9.49-4.45 11.03-7.33l-2.46-3.24s-7.93 1.96-11.18 7.26Z" class="st1"/><path d="M48.79 177.87h72.42l-.69-31.24-10.3-10.29H54.96l-6.18 10.64v30.89Z" class="st4"/><path d="m62.87 136.34 6.52 10.29v30.21m0-30.22h51.14m-37.6.03c.21.5.33 1.06.33 1.64 0 2.32-1.85 4.21-4.12 4.21s-4.12-1.88-4.12-4.21c0-.46.07-.9.2-1.31m38.78-.33c.21.5.32 1.06.32 1.64 0 2.32-1.85 4.21-4.12 4.21s-4.12-1.88-4.12-4.21c0-.46.07-.9.2-1.31M69.5 168.52c4.08 0 7.38 3.31 7.38 7.38 0 .5-.05.98-.14 1.45m43.72-8.83c-4.08 0-7.38 3.31-7.38 7.38 0 .5.05.98.14 1.45m-43.67-15.79h50.8m-15.77-25.39-4.24-10.18a3.535 3.535 0 0 0-3.26-2.17H67.32c-1.52 0-2.87.98-3.35 2.42l-3.14 9.5" class="st4"/><path d="m99.07 136.17-2.21-5.65a3.53 3.53 0 0 0-3.29-2.25H70.98c-1.56 0-2.94 1.03-3.38 2.53l-1.48 4.97m60.69-20.35c.71-.09 1.45-.14 2.19-.14 8.97 0 16.25 7.02 16.25 15.68s-7.28 15.68-16.25 15.68-16.25-7.02-16.25-15.68c0-3.45 1.15-6.64 3.11-9.23" class="st4"/><path d="M129.13 137.23c3.88 0 7.02-3.03 7.02-6.77s-3.14-6.77-7.02-6.77-7.02 3.03-7.02 6.77 3.14 6.77 7.02 6.77" class="st4"/><path d="m129.16 130.42 7.1 6.41-4.58 4.35m-.97 6.23s-.67 4.78 4.02 9.23m5.24-13.25s3.95 2.77 4.02 9.23m-9.08 4.44s-.67 4.78 4.02 9.23m5.23-13.25s3.95 2.77 4.02 9.23m-9.07 4.45s-.67 4.78 4.02 9.23m5.24-13.26s3.95 2.77 4.02 9.23m-9.26 4.02s4.91.55 9.25-4.03m-13.3-5.25s4.91.55 9.25-4.03" class="st4"/><path d="M134.7 156.58s4.91.55 9.25-4.03" class="st4"/><path d="M129.16 133.61c1.71 0 3.09-1.38 3.09-3.09s-1.38-3.09-3.09-3.09-3.09 1.38-3.09 3.09 1.38 3.09 3.09 3.09" class="st2"/><path d="M112.8 129.3 55.48 11.91s-2.23-3.69.17-4.98c2.41-1.29 4.28 3.18 4.28 3.18l54.93 112.49M64.35 8.81c2.07-.89 3.35-2.53 2.86-3.66s-2.56-1.32-4.63-.43-3.35 2.53-2.86 3.66 2.56 1.32 4.63.43m11.93 22.94c2.07-.89 3.35-2.53 2.86-3.66s-2.56-1.32-4.63-.43-3.35 2.53-2.86 3.66 2.56 1.32 4.63.43m10.98 24.47c2.07-.89 3.35-2.53 2.86-3.66s-2.56-1.32-4.63-.43-3.35 2.53-2.86 3.66 2.56 1.32 4.63.43m11.68 22.21c2.07-.89 3.35-2.53 2.86-3.66s-2.56-1.32-4.63-.43-3.35 2.53-2.86 3.66 2.56 1.32 4.63.43m12.12 24.94c2.07-.89 3.35-2.53 2.86-3.66s-2.56-1.32-4.63-.43-3.35 2.53-2.86 3.66 2.56 1.32 4.62.43ZM59.7 8.41l54.42 97.98m-.86 5.25c-.11-.12-.21-.25-.31-.39-1.02-1.52-.62-3.59.91-4.6a3.317 3.317 0 0 1 4.6.91c.11.17.21.34.28.52" class="st4"/><path d="M119.5 122.12c3.88 0 7.03-3.15 7.03-7.04s-3.15-7.03-7.03-7.03-7.03 3.15-7.03 7.03 3.15 7.04 7.03 7.04" class="st4"/><path d="M112.73 116.09s4.27-5.03 10.05-6.74m-7.74 10.97s6.11-1.83 11.12-7.45" class="st4"/></svg>