<svg width="36" height="36" viewBox="0 0 36 36" fill="none" xmlns="http://www.w3.org/2000/svg">
<path d="M0.664847 3.82897L4.42727 29.1288C4.50733 29.6671 5.00858 30.0386 5.54684 29.9585L19.6515 27.8603C20.1897 27.7802 20.5612 27.2789 20.4811 26.7406L16.7187 1.44079C16.6386 0.902444 16.1374 0.530937 15.5991 0.611009L1.4945 2.70923C0.956233 2.7893 0.584787 3.29063 0.664847 3.82897Z" fill="#E4BC07"/>
<path d="M0.613055 3.99222L4.34175 29.0652C4.43746 29.7087 5.03669 30.1529 5.68017 30.0571L19.396 28.0168C20.0395 27.921 20.4835 27.3217 20.3878 26.6781L16.6591 1.6052C16.5634 0.961616 15.9642 0.51749 15.3207 0.613214L1.60488 2.65359C0.961402 2.74932 0.517345 3.34864 0.613055 3.99222Z" stroke="#002140" stroke-width="1.2" stroke-linecap="round" stroke-linejoin="round"/>
<path d="M3.49012 2.57226L7.52994 29.7373L9.93017 29.3802L5.89035 2.2152L3.49012 2.57226Z" fill="#002140" stroke="#002140" stroke-width="1.2" stroke-linecap="round" stroke-linejoin="round"/>
<path d="M20.6838 4.58752L7.29479 26.3801C7.00989 26.8438 7.15479 27.4507 7.61843 27.7357L19.7678 35.2024C20.2314 35.4874 20.8382 35.3424 21.1231 34.8787L34.5122 13.0862C34.7971 12.6224 34.6522 12.0155 34.1885 11.7306L22.0392 4.26383C21.5755 3.97888 20.9687 4.12381 20.6838 4.58752Z" fill="#FF7101"/>
<path d="M20.5393 4.68031L7.27036 26.2775C6.92976 26.8318 7.10299 27.5574 7.65726 27.898L19.4717 35.159C20.026 35.4996 20.7514 35.3264 21.092 34.772L34.361 13.1748C34.7016 12.6205 34.5284 11.8949 33.9741 11.5543L22.1597 4.29334C21.6054 3.95269 20.8799 4.12595 20.5393 4.68031Z" stroke="#002140" stroke-width="1.2" stroke-linecap="round" stroke-linejoin="round"/>
<path d="M19.5911 32.1617L21.5513 28.9707" stroke="#002140" stroke-width="1.2" stroke-linecap="round" stroke-linejoin="round"/>
<path d="M22.4503 27.5078L24.4118 24.3154" stroke="#002140" stroke-width="1.2" stroke-linecap="round" stroke-linejoin="round"/>
<path d="M18.6241 24.9434L16.0219 23.3446C15.8869 23.262 15.6197 23.4507 15.4257 23.7666L14.1482 25.845C14.0395 26.0219 13.9726 26.2093 13.9648 26.3548L13.9189 27.3023C13.9137 27.4071 13.9412 27.4818 13.9949 27.5159L15.8843 28.677C15.9341 28.7071 16.0049 28.7019 16.0874 28.6599L16.7399 28.331C16.8723 28.2642 17.0203 28.1121 17.1356 27.9234L18.518 25.6641C18.7106 25.3483 18.7578 25.0272 18.6228 24.9434H18.6241Z" fill="#FBCCFF"/>
<path d="M23.8397 9.6027L18.5824 18.1598C18.3251 18.5785 18.4559 19.1265 18.8746 19.3838L20.5 20.3828C20.9186 20.6401 21.4666 20.5092 21.7238 20.0905L26.9812 11.5334C27.2384 11.1147 27.1076 10.5667 26.689 10.3094L25.0635 9.31043C24.6449 9.05314 24.097 9.184 23.8397 9.6027Z" fill="#002140"/>
</svg>
