<svg xmlns="http://www.w3.org/2000/svg" xml:space="preserve" id="Layer_1" x="0" y="0" viewBox="0 0 68 68"><style>.st0{fill:#fffaf0}.st1{fill:#ffed8f}.st2{fill:#e4bc07}.st3{fill:#d18000}.st4{fill:#0164bf}.st5{fill:#0185ff}.st6{fill:#f25730}.st7{fill:none;stroke:#002140;stroke-linecap:round;stroke-linejoin:round}</style><path d="M24.5 27.1v11h-3.7v-9.6c0-.9.4-1.4 1.4-1.4z" class="st0"/><path d="M28.9 24.7v13.4h-4.5V26.3c0-.9.5-1.6 1.5-1.6z" class="st1"/><path d="M28.9 22.7v2H26c-1.1 0-1.5.7-1.5 1.6v.8h-2.3c-1 0-1.4.5-1.4 1.4v9.6h-2.7V24.5c0-1.5.7-2.4 2.4-2.4h8.4z" class="st2"/><path d="M43 40.7v22.8c0 1.3-.3 2-1.9 1.9h-2.6V40.7zm-4.5 0v24.7h-1.2c-1.6 0-1.9-.7-1.9-1.9V40.7z" class="st3"/><path d="M28.9 22.1h-8.4c-1.7 0-2.4.9-2.4 2.4v13.6h-2.8V22.7c0-4.1 3.4-6.1 6.8-6.1s6.5 1.8 6.8 5.5" class="st4"/><path d="M28.9 38.1v2.6H8.1c-2 0-2-2.6 0-2.6z" class="st5"/><path d="M28.9 22.1c-.3-3.7-3.5-5.5-6.8-5.5h12.7V31c0 .8.4 1.3 1.3 1.3h3.3c.9 0 1.5-.5 1.5-1.4V28c0-.9-.5-1.5-1.5-1.5h-1.9v-10h13.9c3.3.1 6.6 2.1 6.6 6.1v18H28.9z" class="st5"/><path d="M37.7 30.7c.6 0 1.2-.5 1.2-1.2 0-.6-.5-1.2-1.2-1.2s-1.2.5-1.2 1.2c.1.7.6 1.2 1.2 1.2" class="st6"/><path d="M44.1 9.8v1.5c0 1.1-.5 1.8-1.8 1.8h-3.2c-1.1 0-1.6.6-1.6 1.6v12h1.9c.9 0 1.4.6 1.5 1.5V31c0 .9-.5 1.4-1.5 1.4h-3.3c-.9 0-1.3-.5-1.3-1.3V10.6c0-1.5.9-2.6 2.6-2.6h4.9c1.1 0 1.8.6 1.8 1.8m-5.2 19.8c0-.6-.5-1.2-1.2-1.2-.6 0-1.2.5-1.2 1.2 0 .6.5 1.2 1.2 1.2.7-.1 1.2-.6 1.2-1.2" class="st6"/><path d="M58 40.7H8.1m20.8-2.6H8.1m0 0c-2 0-2 2.6 0 2.6m20.8 0v-18M15.3 38.1V22.7m13.6 0v-.6c-.3-3.7-3.5-5.5-6.8-5.5-3.4 0-6.8 2-6.8 6.1m42.7 18v-18m0 0c0-4-3.3-6-6.6-6.1m-16.6 0H22.1m29.3 0H37.5m-13 9.7v11.8m-3.7-9.6v9.6m3.7-11.8c0-.9.5-1.6 1.5-1.6m-5.2 3.8c0-.9.4-1.4 1.4-1.4m-4.1 11V24.5m7.9.2h2.9m-6.7 2.4h2.3" class="st7"/><path d="M18.1 24.5c0-1.5.7-2.4 2.4-2.4m14.8 18.6v22.8M20.5 22.1h8.4m5.9 8.9V10.6m2.7 16v-12m-2.2 48.9c0 1.3.3 2 1.9 1.9M43 40.7v22.8m0 0c0 1.3-.3 2-1.9 1.9m-3.8 0h3.8m-2.6-24.7v24.7m-3.7-54.8c0-1.5.9-2.6 2.6-2.6m.1 6.7c0-1 .5-1.6 1.6-1.6m-3 19.3h3.3m1.4-1.4v-2.8m-1.4-1.6h-1.9m1.9 0c.9 0 1.4.6 1.5 1.5m-1.5 4.3c.9 0 1.5-.5 1.5-1.4m-4.8 1.4c-.9 0-1.3-.5-1.3-1.3m4.3-18h3.2M37.4 8h4.9m0 5.1c1.3 0 1.8-.7 1.8-1.8M42.3 8c1.1 0 1.8.6 1.8 1.8m0 1.5V9.8m-6.4 20.9c.6 0 1.2-.5 1.2-1.2 0-.6-.5-1.2-1.2-1.2s-1.2.5-1.2 1.2c.1.7.6 1.2 1.2 1.2" class="st7"/></svg>