<svg xmlns="http://www.w3.org/2000/svg" viewBox="0 0 164 164"><path fill="#b0d9ff" d="M144.78 59.57 80.61 12.53 18.68 59.85l1.12 13.43v59.08H17v9.81h24.94v-5.05H68v4.76h26.34v-4.76h25.22v5.6h25.78v-9.52h-2.8V71.89z"/><path fill="#e5fafe" d="M40.26 72.17H19.8v59.91h20.46zm50.45.84H71.09v59.91h19.62zm51.84.28h-19.9v59.08h19.9z"/><path fill="#5ab0ff" d="M40.26 111.64h30.83V73l-1.68-12.88H41.67l-1.96 14 .56 37.52Zm51.01 0h30.83V73l-1.69-12.88H92.67l-1.97 14z"/><path fill="#002140" d="M48.29 111.18h14.95V87.66s-.56-7.65-7.29-7.65c-7.89 0-7.1 8.21-7.1 8.21zm50.85-.19 14.53.19V87.66s-.56-7.65-7.29-7.65-7.1 8.21-7.1 8.21l-.15 22.77Z"/><path fill="none" stroke="#002140" stroke-linecap="round" stroke-linejoin="round" d="M18.15 59.75h126.1L81.2 11.87zm0 0s1.68 7.28 1.68 13.16h19.9c0-5.88 1.68-13.16 1.68-13.16M19.83 72.91v59.08m19.9-59.08v58.8m-9.62-57.96v57.68m12.51 1.23H17.15v9.33h25.47zm78.1-72.91s1.68 7.28 1.68 13.16h19.9c0-5.88 1.68-13.16 1.68-13.16M122.4 72.91v59.08m19.89-59.08v58.8m-9.62-57.96v57.68m12.52 1.23h-25.47v9.33h25.47zM69.58 59.75s1.68 7.28 1.68 13.16h19.9c0-5.88 1.68-13.16 1.68-13.16M71.26 72.91v59.08m19.9-59.08v58.8m-9.63-57.96v57.68m12.52 1.23H68.58v9.33h25.47zm-51.23 4.23h25.76m26.92 0h24.22m-79.15-12.74h29.7m-29.7-12.6h29.7m21.3 12.6h29.7m-29.7-12.6h29.7m-58-.28V87.33c0-4.1-3.33-7.42-7.42-7.42s-7.42 3.32-7.42 7.42v23.66m50.71 0V87.33c0-4.1 3.33-7.42 7.42-7.42s7.42 3.32 7.42 7.42v23.94"/><path fill="#002140" d="M81.34 54.17c1.2 0 1.44-.54 1.44-1.38v-1.74c4.24 0 7.43-2.32 7.43-6.85 0-4.09-2.77-6.16-7.34-7.76-1.65-.57-2.59-1.11-2.59-2.31 0-.99.72-1.74 1.56-1.74 1.69 0 2.8 1.14 3.73 2.38.57.75 1.14 1.56 2.14 1.56.81 0 1.65-.75 1.65-2.41 0-2.1-1.38-4.84-3.4-4.84-.87 0-1.17.57-1.69.57-.27 0-.57-.12-.93-.27-.12-.06-.27-.09-.42-.15v-1.95c0-.84-.27-1.41-1.44-1.41-1.26 0-1.47.6-1.47 1.41v1.62c-3.97.24-6.89 2.89-6.89 6.85s3.34 6.31 7.31 7.67c1.32.45 2.62 1.02 2.62 2.41 0 .96-.66 1.74-1.69 1.74-1.81 0-3.52-1.17-4.9-3.22-.45-.66-1.08-1.44-1.93-1.44-1.02 0-1.93.84-1.93 2.56 0 2.38 1.72 5.35 3.76 5.35 1.14 0 1.2-.6 1.75-.6.3 0 .69.12 1.17.27.18.06.36.09.57.15v2.16c0 .81.21 1.38 1.47 1.38Z"/><path fill="#03d47c" d="m157.49 137.45-20.72 7.48s-2.53-4.72 1.84-8.39c0 0-10.82-3.8-19.34 0-8.52 3.79-13.35 8.28-19.8 20.13l-2.42-20.13s11.28-19.78 34.53-14.61l8.17 2.65s-1.96-5.75 1.96-8.28l15.77 21.16Z"/><path fill="#03d47c" d="M139.61 124.54s-26.78-13.11-42.56 12.08l2.35 20.44s11.81-29.67 39.18-20.36"/><path fill="none" stroke="#002140" stroke-linecap="round" stroke-linejoin="round" d="M139.61 124.54s-26.78-13.11-42.56 12.08l2.35 20.44s11.81-29.67 39.18-20.36"/><path fill="#03d47c" d="M138.58 136.71s-4.29 3.34-1.82 8.46z"/><path fill="none" stroke="#002140" stroke-linecap="round" stroke-linejoin="round" d="M138.58 136.71s-4.29 3.34-1.82 8.46"/><path fill="#03d47c" d="M141.69 116.18s-4.29 2.93-1.82 8.45z"/><path fill="none" stroke="#002140" stroke-linecap="round" stroke-linejoin="round" d="M141.69 116.18s-4.29 2.93-1.82 8.45"/><path fill="#03d47c" d="M136.76 145.16 158 137.4l-16.31-21.22"/><path fill="none" stroke="#002140" stroke-linecap="round" stroke-linejoin="round" d="M136.76 145.16 158 137.4l-16.31-21.22"/></svg>