<svg xmlns="http://www.w3.org/2000/svg" viewBox="0 0 68 68"><defs><style>.cls-1{fill:#ffd7b0}.cls-2{fill:#fffaf0}.cls-3{fill:#002140}.cls-4{fill:none;stroke:#002140;stroke-linecap:round;stroke-linejoin:round}.cls-5{fill:#fbccff}</style></defs><g id="Layer_1"><path d="m55.567 29.859-.071-3.226s-1.203-2.713-1.793-2.797-19.216-6.597-19.216-6.597-1.721.431-2.366.574-17.139 5.809-17.139 5.809-1.579.716-2.007 2.509-.574 4.159-.574 4.159-.431.431-.502 1.433c-.071 1.005.071 21.223.071 21.223s-.143 1.219 1.361 1.29c1.507.071 42.592 0 42.592 0s.788-.645.788-1.433.285-22.014.285-22.014-.645-1.076-1.433-.934l.003.003Z" class="cls-2"/><path d="M22.181 39.211s2.331-9.19 1.096-9.171-10.59.178-10.59.178-.788.214-.788.859v.645l10.286 7.485-.003.003Zm21.21 1.316c.396.853 13.608-9.735 13.608-9.735s-.36-1.147-1.433-.934c-1.073.214-6.791-.447-8.461.214s-4.11 9.595-3.715 10.451v.003Z" class="cls-1"/><path d="m17.786 33.117.444 3.135 6.143 4.506 19.508-.211s5.277-4.402 5.783-4.477c.47-9.32 5.355-18.442 5.355-18.442l-.681-.541-3.452.58-1.997-1.89-3.151 2.101-2.944-2.311-3.679 2.101-2.208-2.418-3.679 2.208-1.472-2.837-3.572 2.626-3.047-2.522s-7.355 3.362-7.355 18.39z" class="cls-5"/><path d="M17.597 30.535a.5.5 0 0 0 0-1zm-4.739-.5-.003.5h.003zm4.739-.5h-4.739v1h4.739zm-4.736 0a1.617 1.617 0 0 0-1.624 1.618h1c0-.344.278-.62.619-.618zm-1.624 1.618v22.056h1V31.153zm0 22.056c0 .895.726 1.622 1.622 1.622v-1a.623.623 0 0 1-.622-.622zm1.621 1.622h42.893v-1H12.858zm42.893 0c.895 0 1.622-.726 1.622-1.622h-1a.623.623 0 0 1-.622.622zm1.622-1.622V31.153h-1v22.056zm0-22.056c0-.895-.726-1.622-1.622-1.622v1c.343 0 .622.279.622.622zm-1.622-1.622h-5.024v1h5.024z" class="cls-3"/><path d="M17.116 54.049a.5.5 0 0 0 .892.452zm.892.452 6.739-13.3-.892-.452-6.739 13.3zm25.961-13.899a.5.5 0 1 0-.904.428zm-.904.428 6.367 13.43.904-.428-6.367-13.43zm9.821-17.883a.5.5 0 1 0-.33.944zm.224.608.167-.471h-.002zm2.385 3.294-.5.004zm-2.94-2.958.389.136.33-.944-.389-.136zm.388.136c1.227.434 2.042 1.565 2.053 2.827l1-.009c-.015-1.694-1.107-3.19-2.719-3.76zm2.052 2.826.026 2.739 1-.01-.026-2.739-1 .009Zm-42.809 2.664a.5.5 0 0 0 1 0zm2.906-6.179.163.472zm-1.906 6.179v-2.846h-1v2.846zm0-2.846c0-1.279.823-2.429 2.069-2.86l-.327-.945c-1.639.567-2.742 2.089-2.742 3.805zm2.07-2.861 4.516-1.569-.328-.945-4.516 1.569z" class="cls-3"/><path d="M12.187 31.532a.5.5 0 1 0-.577.817zm12.185 9.229-.289.408c.085.06.185.092.289.092zm19.22 0v.5a.5.5 0 0 0 .293-.095zM11.61 32.349l12.474 8.82.577-.817-12.474-8.82zm12.762 8.912h19.22v-1h-19.22zm19.513-.095 13.281-9.608-.586-.81-13.281 9.608z" class="cls-3"/><path d="M17.459 36.334a.5.5 0 1 0 .97-.242zm7.737-22.025.395-.307a.5.5 0 0 0-.756-.039zm2.444 3.151-.395.306a.5.5 0 0 0 .701.089zm3.861-2.995.433-.251a.5.5 0 0 0-.739-.144zm1.734 2.995-.433.251a.5.5 0 0 0 .718.159l-.286-.41Zm3.624-2.522.366-.34a.5.5 0 0 0-.652-.07zm2.499 2.69-.366.34a.5.5 0 0 0 .657.067l-.29-.407Zm3.492-2.489.356-.351a.5.5 0 0 0-.646-.056zm2.697 2.736-.356.351a.5.5 0 0 0 .621.073zm3.689-2.311.36-.347a.5.5 0 0 0-.625-.076zm2.363 2.444-.36.348a.5.5 0 0 0 .54.119zm3.861-1.183.436.245a.5.5 0 0 0-.519-.738zM17.944 36.213l.485-.121v-.004l-.005-.02-.02-.089q-.026-.12-.069-.36a17 17 0 0 1-.178-1.387 22.7 22.7 0 0 1 .126-4.945c.54-4.067 2.314-9.44 7.275-14.631l-.723-.691c-5.128 5.367-6.979 10.946-7.543 15.191a23.7 23.7 0 0 0-.131 5.165c.056.63.129 1.128.189 1.472a13 13 0 0 0 .1.503l.007.029.002.008v.003l.485-.121Zm6.857-21.597 2.444 3.151.79-.613-2.444-3.151zm3.145 3.239 3.861-2.995-.613-.79-3.861 2.995zm3.122-3.14 1.734 2.995.865-.501-1.734-2.995zm2.453 3.155 3.624-2.522-.571-.821-3.624 2.522zm2.972-2.592 2.499 2.69.733-.681-2.499-2.691zm3.156 2.758 3.491-2.49-.581-.814-3.491 2.49zm2.845-2.546 2.697 2.736.712-.702-2.697-2.736zm3.318 2.809 3.689-2.311-.531-.847-3.689 2.311zm3.064-2.388 2.363 2.444.719-.695-2.363-2.444zm2.723 2.097.181.466h.001l.005-.002.02-.008.078-.03.292-.109a43 43 0 0 1 .983-.347c.787-.266 1.719-.55 2.384-.661l-.165-.986c-.751.126-1.75.433-2.539.7-.399.135-.753.262-1.008.356l-.301.112-.082.031-.022.008-.006.002h-.001l.181.466Zm3.425-1.428c-2.711 4.824-4.173 9.687-4.959 13.339a48 48 0 0 0-.743 4.427 31 31 0 0 0-.148 1.582l-.005.087-.001.023v.008l.5.023.5.022v-.024q0-.026.005-.079.006-.107.022-.316c.022-.278.059-.688.121-1.211.123-1.046.342-2.542.728-4.334.771-3.586 2.205-8.347 4.853-13.059l-.872-.49Z" class="cls-3"/><path d="M25.669 23.843h18.124M24.723 32H42.85m-18.127 4H42.85m-18.049-8h18.127" class="cls-4"/></g></svg>