<svg xmlns="http://www.w3.org/2000/svg" xml:space="preserve" id="Layer_1" x="0" y="0" viewBox="0 0 68 68"><style>.st0{fill:#fee45e}.st1{fill:none;stroke:#002140;stroke-linecap:round;stroke-linejoin:round}.st2{fill:#5be3aa}.st3{fill:#00b268}.st4{fill:#e4bc07}.st5{fill:#722b03}.st6{fill:#002140}</style><path d="M46.133 16.244 43.138 5.47l-9.574 7.035-9.281-7.482-2.99 11.522-11.973-.148 4.041 10.923-9.723 6.584 9.723 6.431L9.622 51.41l11.522-.153 3.441 11.076 9.277-7.035 8.979 6.886 3.441-11.076 12.118.302-4.19-11.075 9.727-6.431-9.876-6.584 4.041-10.774z" class="st0"/><path d="m64 33.863-10.057 6.575 4.271 11.234-12.005-.6-3.134 11.604-9.362-7.545-9.362 7.545-3.134-11.604-12.005.6 4.271-11.234-10.058-6.575 10.057-6.571-4.271-11.233 12.005.6L24.35 5.055l9.362 7.545 9.362-7.545 3.134 11.604 12.005-.6-4.271 11.234z" class="st1"/><path d="M32.468 39.207v10.336l-13.773-2.85-.198-6.954.726-3.049z" class="st2"/><path d="m32.802 39.076 9.737-2.386.663 5.434-.997 4.699-9.736 2.719V39.207" class="st3"/><path d="m41.213 36.492-9.204 2.647-11.658-2.517-.131-2.318s.595-2.187 2.12-2.25c1.524-.068 2.85 1.19 2.85 1.19l.595 1.258 1.128-1.79 2.318-.465 1.921 1.326.329 1.524 1.326.068s.068-2.715 2.119-2.584 3.179 2.584 3.179 2.584 3.112.068 3.112 1.326h-.004z" class="st4"/><path d="M28.296 38.549s-.794 3.179-2.981 2.913-2.647-2.584-2.647-2.584l.464-1.524 5.168 1.19z" class="st5"/><path d="m41.312 35.55-3.211-.379s-.068-1.804-1.06-2.25-2.038-.645-2.038-.645l-2.088 1.339-.347 1.691-.546-.099-1.389-2.683-2.386-.496-3.179-6.408 11.572 1.84 4.667 8.095z" class="st6"/><path d="M42.006 36.195 36.64 27.45s5.015-5.615 7.698-5.466 5.218 1.691 5.416 3.775-.595 5.317-1.439 5.863c-.843.546-6.309 4.568-6.309 4.568z" class="st3"/><path d="m36.644 27.455-11.721-2.088s2.088-5.218 7.301-5.466 11.373 1.637 11.373 1.637-6.16 4.37-6.954 5.912v.005z" class="st2"/><path d="m33.614 26.657-4.767-.744s1.691-2.038 2.981-1.741c1.29.298 1.989 1.439 1.79 2.485z" class="st5"/><path d="m42.273 36.361-9.637 2.683-13.709-2.584 1.209-.401m12.499 3.283v10.233m-7.55-7.95v6.228m12.849-10.134V47.92" class="st1"/><path d="M42.272 36.362s1.556 5.001 0 10.233l-9.768 3.31-13.642-2.981c-1.091-4.37 0-10.233 0-10.233" class="st1"/><path d="M23.12 37.399a2.5 2.5 0 0 0-.23.478c-.492 1.357.252 2.868 1.655 3.373s2.94-.185 3.427-1.542c.122-.338.167-.69.144-1.028" class="st1"/><path d="M25.253 39.753a.744.744 0 1 0 0-1.488.744.744 0 0 0 0 1.488" class="st6"/><path d="m25.55 39.342.05 1.055a.234.234 0 0 1-.28.243l-.636-.122a.236.236 0 0 1-.171-.329l.406-.92" class="st6"/><path d="M34.822 38.116a2.715 2.715 0 1 0-5.43 0m2.25-3.247a2.715 2.715 0 1 0-5.43 0m2.369 2.89a2.715 2.715 0 0 0-2.715-2.715 2.72 2.72 0 0 0-2.638 2.061m2.453-2.435a2.715 2.715 0 0 0-2.715-2.715c-1.078 0-1.993.613-2.426 1.596-.388.879-.483 2.273.122 3.085m17.34-1.501a2.715 2.715 0 1 0-5.43 0" class="st1"/><path d="M41.496 36.515a2.715 2.715 0 0 0-5.15 1.204M24.887 25.633c1.042-2.187 3.427-6.111 7.896-5.863 3.031.05 14.368 2.458 12.817 2.138-3.621-.726-8.992 5.515-8.992 5.515" class="st1"/><path d="M44.856 21.759s3.576.397 4.866 3.675-1.389 5.962-1.79 6.26-4.767 3.599-5.763 4.667l-5.565-8.943-11.721-1.79 3.793 6.332" class="st1"/><path d="M33.713 26.72c.05-.167.077-.347.077-.528 0-1.136-1.055-2.061-2.359-2.061s-2.359.924-2.359 2.061m3.265-2.002s1.538-3.626 6.607-3.576" class="st1"/></svg>