<svg xmlns="http://www.w3.org/2000/svg" width="96" height="96" fill="none" viewBox="0 0 96 96"><path fill="#99f6ff" d="m16.824 67.119 4.427-2.058 4.309 2.665 4.79-2.545 4.79 2.666 3.952-2.299 4.79 2.299 3.951-2.786 4.309 2.299s-.959-8.112-.959-8.96 2.036-23.607 1.798-28.691c-.239-5.085-1.797-14.893-1.797-14.893l-4.91 2.419-5.266-2.545-3.714 2.178-5.51-2.545-3.35 2.545-5.148-2.665-3.35 3.026-4.79-2.298s2.517 8.352 1.797 18.28c-.72 9.93-2.517 28.571-.12 33.902z"/><path stroke="#002140" stroke-linecap="round" stroke-linejoin="round" d="M15.092 14.597c5.386 10.705-2.333 44.01 1.434 53.13m34.484-53.13c5.386 10.705-2.332 44.01 1.435 53.13"/><path stroke="#002140" stroke-linecap="round" stroke-linejoin="round" d="m16.527 67.726 4.741-2.994 4.747 3.027 4.341-3.12L35.114 68l4-3.13 4.666 3.016 3.816-3.306 4.85 3.147m-1.436-53.13-4.833 2.665-4.747-3.021-4.34 3.12L32.33 14l-4 3.125-4.665-3.01-3.816 3.306L15 14.274m7.182 10.136h2.166m4.162 0h14.57m2.084 0h2.165M21.647 58.92h2.165m4.162 0h14.565m2.084 0h2.165M22.902 32.675h21.283m-21.283 8.807h16.664M23.53 50.836h19.116"/><path fill="#e5fafe" d="m35.199 72.693 4.759-1.093 3.66 3.503 5.215-1.493 4.13 3.603 4.344-1.427 4.207 3.244 4.444-1.903 3.737 3.144s.75-8.133.926-8.963 6.898-22.668 7.723-27.69c.824-5.024 1.338-14.942 1.338-14.942l-5.305 1.346-4.622-3.585-4.085 1.359-4.86-3.635-3.807 1.793-4.48-3.678-3.907 2.264-4.208-3.244s.726 8.693-2.043 18.255c-2.768 9.562-8.402 27.423-7.165 33.136z"/><path stroke="#002140" stroke-linecap="round" stroke-linejoin="round" d="M44.425 20.958c3.042 11.592-11.432 42.564-9.643 52.267m44.777-44.799C82.6 40.017 68.125 70.99 69.914 80.693"/><path stroke="#002140" stroke-linecap="round" stroke-linejoin="round" d="m34.782 73.225 5.26-1.943 4.014 3.948 4.895-2.15 3.955 4.277 4.563-2.23 3.937 3.92 4.42-2.44 4.09 4.086m9.643-52.267-5.282 1.602-4.015-3.942-4.895 2.149-3.955-4.276-4.563 2.225-3.937-3.915-4.42 2.44-4.09-4.086m4.918 11.408 2.118.45m4.071.866 14.252 3.03m2.039.433 2.117.45M41.62 65.675l2.119.45m4.071.865 14.247 3.03m2.038.432 2.118.45M48.306 40.265l20.818 4.425m-22.649 4.19 16.3 3.464M45.144 58.16l18.698 3.974"/><path fill="#5be3aa" stroke="#002140" stroke-linecap="round" d="M75.438 59.5H85.5v10.063a1.937 1.937 0 1 1-3.875 0v-2.061l-.845.804c-2.067 1.966-4.813 3.194-7.888 3.194-4.57 0-8.428-2.72-10.386-6.537l-.184-.373a2.07 2.07 0 0 1 .853-2.676l.194-.1c1.018-.462 2.206-.08 2.758.834l.102.19c1.294 2.743 3.857 4.47 6.663 4.47 2.316 0 4.476-1.183 5.882-3.141l.569-.792h-3.906l-.198-.01a1.938 1.938 0 0 1 0-3.855zm-2.33-13c4.57 0 8.426 2.72 10.385 6.536l.184.372a2.07 2.07 0 0 1-.85 2.678l-.196.1c-1.018.462-2.205.08-2.758-.834l-.102-.19c-1.295-2.742-3.858-4.469-6.663-4.469-2.316 0-4.475 1.183-5.881 3.14l-.57.792h3.906a1.937 1.937 0 1 1 0 3.875H60.5V48.438a1.937 1.937 0 1 1 3.875 0v2.06l.845-.804c2.067-1.966 4.813-3.194 7.888-3.194Z"/></svg>