<svg xmlns="http://www.w3.org/2000/svg" xml:space="preserve" id="Layer_1" x="0" y="0" viewBox="0 0 68 68"><style>.st0{fill:#00b268}.st1{fill:#fee45e}.st2{fill:#5be3aa}.st3{fill:none;stroke:#002140;stroke-width:1;stroke-linecap:round;stroke-linejoin:round}.st4{fill:#722b03}.st5{fill:#f25730}.st6{fill:#fffaf0}.st7{fill:#ffed8f}.st8{fill:#d18000}</style><path d="m54.345 17.48-20.488-5.49-8.844 33.008 20.488 5.49z" class="st0"/><path d="M37.72 38.264c2.555.685 5.47-1.914 6.512-5.803s-.184-7.597-2.738-8.282c-2.555-.684-5.47 1.914-6.512 5.803s.184 7.598 2.738 8.282" class="st1"/><path d="M35.942 17.64a1.474 1.474 0 0 0 .763-2.845 1.474 1.474 0 0 0-.763 2.845" class="st2"/><path d="M49.748 21.365a1.473 1.473 0 1 0 .763-2.846 1.473 1.473 0 0 0-.763 2.846m-7.096 26.481a1.474 1.474 0 0 0 .763-2.845 1.474 1.474 0 0 0-.763 2.845" class="st1"/><path d="M28.838 44.151a1.474 1.474 0 0 0 .763-2.845 1.474 1.474 0 0 0-.763 2.845" class="st2"/><path d="m54.238 17.503-20.394-5.464L25 45.047l20.394 5.464z" class="st3"/><path d="M37.683 38.501c2.578.691 5.535-1.984 6.604-5.974s-.154-7.785-2.732-8.475c-2.578-.691-5.535 1.984-6.604 5.974s.154 7.785 2.732 8.475m12.009-16.927a1.69 1.69 0 1 0 .875-3.263 1.69 1.69 0 0 0-.875 3.263m-13.803-3.698a1.69 1.69 0 1 0 .875-3.263 1.69 1.69 0 0 0-.875 3.263m6.707 30.179a1.69 1.69 0 1 0 .875-3.263 1.69 1.69 0 0 0-.875 3.263m-13.803-3.698a1.69 1.69 0 1 0 .875-3.263 1.69 1.69 0 0 0-.875 3.263m1.101-4.861 5.372-20.048m4.215 26.378-6.876-1.842m16.792-20.75-5.388 20.109m-4.197-26.451 6.949 1.862m-7.213 26.908a3.4 3.4 0 0 1 4.165-2.405q.104.027.205.061m-11.313.483a3.4 3.4 0 0 0-2.405-4.165c-.07-.019-.136-.037-.208-.049m16.701-20.591a3.4 3.4 0 0 0 2.613 4.214m-9.556-6.074a3.4 3.4 0 0 1-4.165 2.405q-.104-.027-.205-.061" class="st3"/><path d="M47.361 50.863 28.03 42.137 42.086 10.99l15.337 6.977 1.588 6.849z" class="st0"/><path d="M57.446 18.331s-2.451.741-2.416 4.092c0 0 3.389.83 4.007 2.007zM49.162 32.94c1.656-3.67 1.045-7.528-1.365-8.615s-5.707 1.006-7.364 4.676c-1.656 3.67-1.045 7.527 1.365 8.615s5.708-1.006 7.364-4.676m-5.567-15.883a1.474 1.474 0 0 0 .763-2.845 1.473 1.473 0 0 0-.763 2.845m1.744 30.891a1.474 1.474 0 0 0 .763-2.845 1.474 1.474 0 0 0-.763 2.845M32.306 42.07a1.474 1.474 0 0 0 .763-2.845 1.474 1.474 0 0 0-.763 2.845" class="st2"/><path d="M59.15 24.889 47.39 50.943l-19.244-8.687 14.061-31.148 15.356 6.93s-2.31.954-2.644 4.516c3.687.445 4.231 2.333 4.231 2.333" class="st3"/><path d="M49.203 33.01c1.699-3.765 1.105-7.707-1.328-8.805s-5.782 1.064-7.481 4.829-1.105 7.707 1.328 8.805c2.433 1.099 5.782-1.064 7.481-4.829m-5.665-15.718a1.69 1.69 0 1 0 .874-3.264 1.69 1.69 0 0 0-.874 3.264m1.745 30.866a1.69 1.69 0 1 0 .874-3.265 1.69 1.69 0 0 0-.874 3.265m-13.021-5.879a1.69 1.69 0 1 0 .875-3.263 1.69 1.69 0 0 0-.875 3.263m1.61-4.711 8.538-18.92m-.096 26.714-6.49-2.929M55.748 24.67l-8.566 18.974m.132-26.783 6.554 2.959M42.405 45.212a3.404 3.404 0 0 1 4.5-1.701c.063.03.13.061.19.093m-11.24-1.35a3.403 3.403 0 0 0-1.897-4.582m19.806-17.623a3.403 3.403 0 0 0 1.897 4.582M47.21 17.09a3.404 3.404 0 0 1-4.5 1.701c-.063-.03-.13-.061-.19-.093m15.043-.658 1.588 6.849" class="st3"/><path d="m45.157 37.73 18.605-.565v-3.977H45.867L22.999 16 4.248 33.47l2.843 3.125L23.423 21.68z" class="st4"/><path d="m8.132 29.54 6.062-5.681h-6.25z" class="st5"/><path d="M7.562 37.118v15.244h55.112V37.306H45.157L23.423 21.681z" class="st6"/><path d="M20.383 41.005V51.99h7.954V41.103z" class="st5"/><path d="M26.835 46.3a.805.805 0 1 0 0-1.61.805.805 0 0 0 0 1.61m.616-17.612h-6.156v7.479h6.156zm-10.416 12.12H10.88v7.479h6.156v-7.479zm21.777.287h-6.156v7.479h6.156z" class="st7"/><path d="M59.36 42.417H46.291v9.846H59.36z" class="st8"/><path d="m63.894 33.051-17.993-.047-22.727-16.901L4 33.667l3.266 3.078 16.1-15.338 21.589 16.002 19.033-.188z" class="st3"/><path d="M7.267 36.745v15.531h55.587V37.597" class="st3"/><path d="M46.09 51.895v-9.564h13.352V51.8m-13.254-5.962h12.877m-12.877 3.219h12.877m-38.305 2.32v-10.42h7.954v10.3" class="st3"/><path d="M26.963 46.732a.993.993 0 1 0 0-1.986.993.993 0 0 0 0 1.986m-10.035-6.01h-6.156v7.671h6.156zm22.3 0h-6.156v7.671h6.156zM27.673 28.65h-6.156v7.671h6.156zm-19.743.899v-5.775h6.25M8.405 26.33h1.134" class="st3"/></svg>