<svg xmlns="http://www.w3.org/2000/svg" xml:space="preserve" id="Layer_1" x="0" y="0" viewBox="0 0 68 68"><style>.st0{fill:#ffed8f}.st1{fill:#d18000}.st2{fill:#f25730}.st3{fill:#00b268}.st4{fill:#0164bf}.st5{fill:none;stroke:#002140;stroke-linecap:round;stroke-linejoin:round}</style><path d="m16.9 15.3-.2-4.1s-.5-1.4-1.9-1.4-3 .4-3 1.6v38.4H7.4v8.3h53.4V50H17z" class="st0"/><path d="M51.2 53.1V11.6s.8-1.8 2.7-1.8 2.6 1.6 2.6 1.6l.1 41.8z" class="st0"/><path d="M11.2 49.6H7.1v3.9h4.1zm39.8.2H16.7v3.3h34.2v-3.3zm9.6-.1h-4.1v3.8h4.1zm-9.9-35.1H16.9v4h33.9v-4z" class="st1"/><path d="M20.4 29c2 0 3.6-1.6 3.6-3.7 0-2-1.5-3.7-3.6-3.7-2 0-3.6 1.6-3.6 3.7.1 2.1 1.6 3.7 3.6 3.7m7.7 0c2 0 3.6-1.6 3.6-3.7 0-2-1.5-3.7-3.6-3.7s-3.6 1.6-3.6 3.7c.1 2 1.7 3.7 3.6 3.7m7.7-.1c2 0 3.6-1.6 3.6-3.7 0-2-1.5-3.7-3.6-3.7-2 0-3.6 1.6-3.6 3.7 0 2 1.6 3.7 3.6 3.7" class="st2"/><path d="M46.9 37.3c2 0 3.6-1.6 3.6-3.7 0-2-1.5-3.7-3.6-3.7-2 0-3.6 1.6-3.6 3.7.1 2.1 1.6 3.7 3.6 3.7" class="st3"/><path d="M20.9 44.7c2.1 0 3.8-1.7 3.8-3.9 0-2.1-1.6-3.9-3.8-3.9-2.1 0-3.8 1.7-3.8 3.9s1.8 3.9 3.8 3.9" class="st4"/><path d="M28.5 44.5c2.1 0 3.8-1.7 3.8-3.9 0-2.1-1.6-3.9-3.8-3.9-2.1 0-3.8 1.7-3.8 3.9.1 2.2 1.8 3.9 3.8 3.9" class="st4"/><path d="M56.7 49.9h4.1v8.3H7.3v-8.3h3.9m5.7 0h33.8M7.6 53.6h53.2" class="st5"/><path d="M16.8 53.4V11.7c0-1-.8-1.9-1.9-1.9h-1.4c-1 0-1.9.8-1.9 1.9v41.6m44.8.1V11.7c0-1-.8-1.9-1.9-1.9h-1.4c-1 0-1.9.8-1.9 1.9v41.6M16.9 15h33.9m-33.9 3.6h33.9m-11.4 6.7h11.3m-33.8 7.8h26m-10.7 7.6h18.4" class="st5"/><path d="M20.4 29.1c2.1 0 3.7-1.7 3.7-3.8s-1.6-3.8-3.7-3.8-3.7 1.7-3.7 3.8 1.6 3.8 3.7 3.8m7.7 0c2.1 0 3.7-1.7 3.7-3.8s-1.6-3.8-3.7-3.8-3.7 1.7-3.7 3.8 1.7 3.8 3.7 3.8m7.5 0c2.1 0 3.7-1.7 3.7-3.8s-1.6-3.8-3.7-3.8-3.7 1.7-3.7 3.8 1.7 3.8 3.7 3.8M20.8 44.5c2.1 0 3.7-1.7 3.7-3.8s-1.6-3.8-3.7-3.8-3.7 1.7-3.7 3.8 1.7 3.8 3.7 3.8m7.7 0c2.1 0 3.7-1.7 3.7-3.8s-1.6-3.8-3.7-3.8-3.7 1.7-3.7 3.8 1.7 3.8 3.7 3.8m18.2-7.3c2.1 0 3.7-1.7 3.7-3.8s-1.6-3.8-3.7-3.8-3.7 1.8-3.7 3.9 1.6 3.7 3.7 3.7" class="st5"/></svg>