<?xml version="1.0" encoding="UTF-8"?>
<svg id="Layer_1" xmlns="http://www.w3.org/2000/svg" version="1.1" viewBox="0 0 200 180">
  <!-- Generator: Adobe Illustrator 29.5.1, SVG Export Plug-In . SVG Version: 2.1.0 Build 141)  -->
  <defs>
    <style>
      .st0 {
        fill: #f25730;
      }

      .st1 {
        fill: #ffc68c;
      }

      .st2 {
        fill: #002140;
      }

      .st3 {
        fill: #ffa75a;
      }

      .st4 {
        fill: none;
        stroke: #002140;
        stroke-linecap: round;
        stroke-linejoin: round;
      }

      .st5 {
        fill: #d18000;
      }

      .st6 {
        fill: #085239;
      }

      .st7 {
        fill: #780505;
      }
    </style>
  </defs>
  <path class="st0" d="M62.92,136.82h-8.06l-5.83,10.81v30.04h71.91l-.35-31.41-10.12-10.3-47.54.86Z"/>
  <path class="st7" d="M49.02,177.67h20.08v-31.75l-6.52-9.95h-7.72l-5.83,11.67v30.04Z"/>
  <path class="st3" d="M104.85,136.37l-5.15-11.55-2.98-1.49-30.66.68-2.17,1.83-3.66,10.76,6.07-.46,1.71-6.06,2.06-1.6,24.14-.11,2.4,1.6,2.41,6.29,5.83.11Z"/>
  <path class="st3" d="M83.33,147.12h-8.58s-.34,5.38,4.23,5.38,4.35-5.38,4.35-5.38h0Z"/>
  <path class="st3" d="M114.41,147.12h-8.58s-.34,5.38,4.23,5.38,4.35-5.38,4.35-5.38h0Z"/>
  <path class="st3" d="M69.61,168.57v8.92h6.86s.69-8.06-6.86-8.92Z"/>
  <path class="st3" d="M113.37,177.84h7.55l-.17-9.27s-7.55-1.72-7.38,9.27Z"/>
  <path class="st5" d="M114.74,122.41L59.31,8.8s-2.75-2.75-4.12-1.72c-1.37,1.03.17,4.46.17,4.46l57.15,117.56,2.23-6.69h0Z"/>
  <path class="st6" d="M139.81,143l-9.61,4.12s1.37,7.89,4.81,9.78c0,0,0,6.86,3.95,9.61,0,0,.53,5.91,3.41,8.31.41.34.87.62,1.39.79,4.12,1.37,8.58-3.95,8.58-3.95,0,0-.86-6.69-3.95-8.92,0,0-.69-6.86-3.95-8.75,0,0,.17-10.13-4.63-10.98h0Z"/>
  <path class="st1" d="M128.99,147.46c8.82,0,15.96-7.15,15.96-15.96s-7.15-15.96-15.96-15.96-15.96,7.15-15.96,15.96,7.15,15.96,15.96,15.96Z"/>
  <path class="st3" d="M128.91,136.82c3.65,0,6.6-2.96,6.6-6.61s-2.96-6.61-6.6-6.61-6.61,2.96-6.61,6.61,2.96,6.61,6.61,6.61Z"/>
  <path class="st1" d="M118.67,108.08s-2.69-3.16-4.49-1.73c-1.81,1.43-1.98,3.81-.96,4.86"/>
  <path class="st0" d="M119.5,122.27c3.79,0,6.86-3.07,6.86-6.86s-3.07-6.86-6.86-6.86-6.86,3.07-6.86,6.86,3.07,6.86,6.86,6.86Z"/>
  <path class="st1" d="M112.51,116.75l2.62,3.32s9.49-4.45,11.03-7.33l-2.46-3.24s-7.93,1.96-11.18,7.26h0Z"/>
  <path class="st4" d="M48.79,177.87h72.42l-.69-31.24-10.3-10.29h-55.26l-6.18,10.64v30.89Z"/>
  <path class="st4" d="M62.87,136.34l6.52,10.29v30.21"/>
  <path class="st4" d="M69.39,146.62h51.14"/>
  <path class="st4" d="M82.93,146.65c.21.5.33,1.06.33,1.64,0,2.32-1.85,4.21-4.12,4.21s-4.12-1.88-4.12-4.21c0-.46.07-.9.2-1.31"/>
  <path class="st4" d="M114,146.65c.21.5.32,1.06.32,1.64,0,2.32-1.85,4.21-4.12,4.21s-4.12-1.88-4.12-4.21c0-.46.07-.9.2-1.31"/>
  <path class="st4" d="M69.5,168.52c4.08,0,7.38,3.31,7.38,7.38,0,.5-.05.98-.14,1.45"/>
  <path class="st4" d="M120.46,168.52c-4.08,0-7.38,3.31-7.38,7.38,0,.5.05.98.14,1.45"/>
  <path class="st4" d="M69.55,161.56h50.8"/>
  <path class="st4" d="M104.58,136.17l-4.24-10.18c-.55-1.31-1.83-2.17-3.26-2.17h-29.76c-1.52,0-2.87.98-3.35,2.42l-3.14,9.5"/>
  <path class="st4" d="M99.07,136.17l-2.21-5.65c-.53-1.36-1.84-2.25-3.29-2.25h-22.59c-1.56,0-2.94,1.03-3.38,2.53l-1.48,4.97"/>
  <path class="st4" d="M126.81,115.42c.71-.09,1.45-.14,2.19-.14,8.97,0,16.25,7.02,16.25,15.68s-7.28,15.68-16.25,15.68-16.25-7.02-16.25-15.68c0-3.45,1.15-6.64,3.11-9.23"/>
  <path class="st4" d="M129.13,137.23c3.88,0,7.02-3.03,7.02-6.77s-3.14-6.77-7.02-6.77-7.02,3.03-7.02,6.77,3.14,6.77,7.02,6.77Z"/>
  <path class="st4" d="M129.16,130.42l7.1,6.41-4.58,4.35"/>
  <path class="st4" d="M130.71,147.41s-.67,4.78,4.02,9.23"/>
  <path class="st4" d="M139.97,143.39s3.95,2.77,4.02,9.23"/>
  <path class="st4" d="M134.91,157.06s-.67,4.78,4.02,9.23"/>
  <path class="st4" d="M144.16,153.04s3.95,2.77,4.02,9.23"/>
  <path class="st4" d="M139.11,166.72s-.67,4.78,4.02,9.23"/>
  <path class="st4" d="M148.37,162.69s3.95,2.77,4.02,9.23"/>
  <path class="st4" d="M143.13,175.94s4.91.55,9.25-4.03"/>
  <path class="st4" d="M139.08,166.66s4.91.55,9.25-4.03"/>
  <path class="st4" d="M134.7,156.58s4.91.55,9.25-4.03"/>
  <path class="st2" d="M129.16,133.61c1.71,0,3.09-1.38,3.09-3.09s-1.38-3.09-3.09-3.09-3.09,1.38-3.09,3.09,1.38,3.09,3.09,3.09Z"/>
  <path class="st4" d="M112.8,129.3L55.48,11.91s-2.23-3.69.17-4.98c2.41-1.29,4.28,3.18,4.28,3.18l54.93,112.49"/>
  <path class="st4" d="M64.35,8.81c2.07-.89,3.35-2.53,2.86-3.66-.49-1.13-2.56-1.32-4.63-.43-2.07.89-3.35,2.53-2.86,3.66.49,1.13,2.56,1.32,4.63.43Z"/>
  <path class="st4" d="M76.28,31.75c2.07-.89,3.35-2.53,2.86-3.66-.49-1.13-2.56-1.32-4.63-.43-2.07.89-3.35,2.53-2.86,3.66.49,1.13,2.56,1.32,4.63.43Z"/>
  <path class="st4" d="M87.26,56.22c2.07-.89,3.35-2.53,2.86-3.66-.49-1.13-2.56-1.32-4.63-.43-2.07.89-3.35,2.53-2.86,3.66.49,1.13,2.56,1.32,4.63.43Z"/>
  <path class="st4" d="M98.94,78.43c2.07-.89,3.35-2.53,2.86-3.66-.49-1.13-2.56-1.32-4.63-.43-2.07.89-3.35,2.53-2.86,3.66.49,1.13,2.56,1.32,4.63.43Z"/>
  <path class="st4" d="M111.06,103.37c2.07-.89,3.35-2.53,2.86-3.66-.49-1.13-2.56-1.32-4.63-.43-2.07.89-3.35,2.53-2.86,3.66.49,1.13,2.56,1.32,4.62.43Z"/>
  <path class="st4" d="M59.7,8.41l54.42,97.98"/>
  <path class="st4" d="M113.26,111.64c-.11-.12-.21-.25-.31-.39-1.02-1.52-.62-3.59.91-4.6,1.52-1.02,3.58-.61,4.6.91.11.17.21.34.28.52"/>
  <path class="st4" d="M119.5,122.12c3.88,0,7.03-3.15,7.03-7.04s-3.15-7.03-7.03-7.03-7.03,3.15-7.03,7.03,3.15,7.04,7.03,7.04Z"/>
  <path class="st4" d="M112.73,116.09s4.27-5.03,10.05-6.74"/>
  <path class="st4" d="M115.04,120.32s6.11-1.83,11.12-7.45"/>
</svg>