<svg xmlns="http://www.w3.org/2000/svg" width="42" height="38" fill="none"><path fill="#CF4CD9" d="M22.047.65 4.424.684.94 3.76l.135 29.192s.487 3.258 3.224 3.863c2.737.604 15.243.362 17.359.362 2.115 0 3.614-3.367 3.614-3.367S25.11 6.973 25.251 4.65C25.39 2.326 22.05.647 22.05.647l-.003.003Z"/><path fill="#49225B" d="M.992 33.254c-.053 2.304 2.79 3.522 2.79 3.522l1.837.18-1.836-2.163V2.875L5.713.65l-1.93.287L1.195 3.2s-.147 27.75-.2 30.053H.992Z"/><path fill="#FED607" d="M23.087 3.58H5.822v30.8h17.451l-.186-30.8Z"/><path fill="#FFF2B2" d="M13.79 3.677c-.196.708.22 1.482.833 1.89.614.408 1.376.517 2.113.537.737.02 1.48-.036 2.205.085.197.033.4.081.557.202.163.121.267.307.346.495.52 1.22.183 2.627.371 3.941.051.346.141.695.332.987.526.802 1.683.962 2.591.65V3.581l-9.347.096ZM22.942 14.762c-.726-.065-1.39.495-1.682 1.162-.296.666-.301 1.418-.301 2.146 0 1.06-.006 2.121-.006 3.181 0 .813 0 1.654.315 2.405.315.752 1.021 1.399 1.837 1.385l-.157-10.276-.006-.003Z"/><path stroke="#002140" stroke-linecap="round" stroke-linejoin="round" stroke-width=".824" d="M21.248.65H5.079a4.003 4.003 0 0 0-4.003 4.002v28.301a4.003 4.003 0 0 0 4.003 4.003h16.169a4.003 4.003 0 0 0 4.002-4.003v-28.3A4.003 4.003 0 0 0 21.248.65Z"/><path stroke="#002140" stroke-linecap="round" stroke-linejoin="round" stroke-width=".824" d="M7.459 36.956a4.002 4.002 0 0 1-4.003-4.003v-28.3A4.002 4.002 0 0 1 7.459.65"/><path stroke="#002140" stroke-linecap="round" stroke-linejoin="round" stroke-width=".824" d="M22.385 3.51H6.68a.824.824 0 0 0-.824.825v29.232c0 .455.369.824.824.824h15.705a.824.824 0 0 0 .824-.824V4.335a.824.824 0 0 0-.824-.825Z"/><path fill="#008C59" d="M38.583 5.676h-27.67A2.071 2.071 0 0 0 8.84 7.748V22.35c0 1.144.927 2.072 2.072 2.072h27.67a2.071 2.071 0 0 0 2.071-2.072V7.748a2.072 2.072 0 0 0-2.072-2.072Z"/><path stroke="#002140" stroke-linecap="round" stroke-linejoin="round" stroke-width=".824" d="M38.224 5.588H11.182a2.476 2.476 0 0 0-2.476 2.477v13.784a2.476 2.476 0 0 0 2.476 2.476h27.042a2.476 2.476 0 0 0 2.477-2.476V8.065a2.476 2.476 0 0 0-2.477-2.477ZM11.72 21.26l4.327.005M18.03 21.265l4.325.005"/><path fill="#085239" d="M18.242 15.948v-3.526c.003-.184-.344-.333-.77-.333h-2.819c-.24 0-.465.044-.611.124l-.962.529c-.104.058-.162.13-.162.204v2.562c0 .069.047.135.135.19l.719.443c.146.091.385.143.639.143h3.057c.427-.002.772-.151.774-.333v-.003Z"/><path fill="#03D47C" d="M37.453 8.412H26.085c-.632 0-1.144.512-1.144 1.143v1.972c0 .632.512 1.144 1.144 1.144h11.368c.631 0 1.143-.512 1.143-1.144V9.555c0-.631-.512-1.143-1.143-1.143Z"/><circle cx="15.059" cy="28.883" r="2.824" fill="#002140"/><path fill="#FED607" fill-rule="evenodd" d="M16.581 27.483a.423.423 0 0 1 .09.592l-1.843 2.496-1.325-1.21a.423.423 0 1 1 .571-.625l.63.575 1.285-1.739a.423.423 0 0 1 .592-.09Z" clip-rule="evenodd"/></svg>
