<svg viewBox="0 0 35 25" xmlns="http://www.w3.org/2000/svg">
<rect x="0.607971" y="0.993652" width="29.1908" height="10.0391" rx="2.5" fill="#FFFAF0" stroke="#002140"/>
<rect x="11.6098" y="3.4375" width="10.0636" height="1.40059" fill="#002140"/>
<rect x="11.6098" y="7.11719" width="15.0954" height="1.40059" fill="#002140"/>
<path fill-rule="evenodd" clip-rule="evenodd" d="M8.8664 2.91928C9.23106 3.19499 9.30838 3.72115 9.03909 4.0945L5.46728 9.0465L2.90046 6.6466C2.56572 6.33362 2.54217 5.80209 2.84786 5.45938C3.15355 5.11667 3.67273 5.09256 4.00746 5.40553L5.22898 6.54761L7.71852 3.09608C7.98781 2.72274 8.50173 2.64358 8.8664 2.91928Z" fill="#03D47C"/>
<rect x="4.80115" y="13.8726" width="29.1908" height="10.0391" rx="2.5" fill="#FFFAF0" stroke="#002140"/>
<rect x="15.8029" y="16.3164" width="10.0636" height="1.40059" fill="#002140"/>
<rect x="15.8029" y="19.9961" width="15.0954" height="1.40059" fill="#002140"/>
<path d="M11.8201 21.4845C12.0977 21.7687 12.5479 21.7687 12.8256 21.4845C13.1033 21.2002 13.1033 20.7393 12.8256 20.455L11.1957 18.7863L12.8256 17.1177C13.1032 16.8334 13.1032 16.3725 12.8256 16.0882C12.5479 15.8039 12.0977 15.8039 11.82 16.0882L10.1902 17.7569L8.5599 16.0877C8.28223 15.8034 7.83204 15.8034 7.55437 16.0877C7.27671 16.372 7.27671 16.8329 7.55437 17.1172L9.18469 18.7863L7.55435 20.4555C7.27668 20.7398 7.27668 21.2007 7.55435 21.485C7.83202 21.7692 8.28221 21.7692 8.55987 21.485L10.1902 19.8158L11.8201 21.4845Z" fill="#F25730"/>
</svg>
