<svg xmlns="http://www.w3.org/2000/svg" width="178" height="219" fill="none" viewBox="0 0 178 219"><path fill="#4ba6a6" d="M67.347 46.717h-8.971v-5.21H69.3v5.21z"/><path fill="#50eef6" d="M176.988 48.279a11 11 0 0 1 .238 3.588h-.007s-1.762-.026-2.85-.048c-1.088-.024-1.545-.53-1.615-1.467s.639-1.521 1.534-1.657l2.683-.414h.017z"/><path fill="#f68dfe" d="M177.219 51.867h.007c-.145 1.426-.588 2.776-1.331 3.907a6 6 0 0 1-.181.262l-.143-.114s-1.374-1.18-2.062-1.767c-.685-.59-1.59-.75-2.255-.088-.666.664-.754 1.343-.064 2.183.693.838 1.819 2.195 1.819 2.195l.012.022a9.16 9.16 0 0 1-4.443 1.226l-.009-.376.209-2.043c.069-.679-.076-1.405-.824-1.593-.745-.188-1.407.074-1.638.852-.233.779-.881 2.398-.881 2.398l-.073.205a8.6 8.6 0 0 1-2.591-1.546l.019-.02 1.307-1.582c.436-.526.719-1.21.203-1.783-.517-.572-1.21-.72-1.838-.203-.165.139-.388.308-.627.484h-.078v-6.2h.036c.25 1.376.683 2.505 1.569 3.588.883 1.08 2.169 1.871 3.562 1.986 1.392.111 2.992-.067 3.721-1.26.333-.547.559-1.288.188-2.293-.388-1.05-1.557-1.516-2.443-2.2a4.5 4.5 0 0 1-1.676-2.857c-.117-.776-.017-1.6.383-2.276.746-1.264 2.417-1.76 3.86-1.483a6.6 6.6 0 0 1 1.826.638l-.01.164s-1.176 1.502-1.7 2.24c-.526.736-.604 1.653.115 2.255.719.603 1.402.631 2.178-.133a976 976 0 0 0 2.027-2.005l.038-.026a11.3 11.3 0 0 1 1.557 3.655h-.017l-2.683.416c-.895.136-1.605.72-1.534 1.657.069.936.527 1.443 1.615 1.467 1.088.021 2.85.048 2.85.048"/><path fill="#50eef6" d="m175.571 55.922.143.114a8.35 8.35 0 0 1-2.693 2.43l-.012-.02-1.819-2.196c-.69-.84-.602-1.519.065-2.183.664-.662 1.569-.503 2.254.088.688.588 2.062 1.767 2.062 1.767m-.14-11.298-.038.026s-1.253 1.243-2.027 2.005c-.776.764-1.459.736-2.178.133-.719-.602-.641-1.519-.115-2.255.524-.738 1.7-2.24 1.7-2.24l.01-.164c.74.383 1.407.907 1.938 1.54q.383.458.71.955"/><path fill="#f68dfe" d="M146.54 15.57a6.5 6.5 0 0 0-.54-1.372 5.9 5.9 0 0 0-2.01-2.148l.043-.067c.093-1.847-.426-3.519-1.31-4.969l.303-.185a18.5 18.5 0 0 1 2.8-1.434l.045.11 1.031 2.512c.345.835 1.079 1.39 1.971 1.102s1.281-.852 1.048-1.914a588 588 0 0 0-.621-2.784l-.022-.095q1.177-.254 2.367-.371l.007.074.429 2.835c.135.896.719 1.605 1.654 1.536.936-.069 1.446-.524 1.469-1.612s.055-2.85.055-2.85v-.06a23 23 0 0 1 2.867.355c-.024.105-.433 1.784-.641 2.634-.214.878.053 1.76.946 2.05.892.293 1.535.064 1.971-.931.436-.998 1.136-2.617 1.136-2.617l.007-.014.017.01a13.3 13.3 0 0 1 2.281 1.537l-.034.04s-1.245 1.522-1.84 2.206c-.593.683-.757 1.588-.098 2.257.66.666 1.336.76 2.181.074.843-.686 2.207-1.805 2.207-1.805l.084-.057q.725 1.058 1.292 2.195l-.033.017-2.505 1.047c-.833.35-1.383 1.088-1.088 1.979.295.893.862 1.276 1.922 1.033 1.062-.24 2.778-.64 2.778-.64l.274-.02q.302 1.023.512 2.074l-.164.034-2.665.533c-.885.179-1.569.793-1.457 1.724.114.933.593 1.421 1.681 1.393 1.088-.027 2.85-.079 2.85-.079l.219-.012q.018.308.031.614.032.783.01 1.562h-.117s-1.81-.095-2.712-.14c-.905-.045-1.719.383-1.838 1.314s.226 1.522 1.286 1.762c1.062.243 2.783.624 2.783.624l.202.038q-.197 1.036-.49 2.048l-.129-.038-2.566-.884c-.857-.295-1.755-.11-2.129.753-.374.862-.207 1.523.745 2.05.953.526 2.503 1.371 2.503 1.371l.297.138a22 22 0 0 1-.881 1.679 17 17 0 0 1-.35.576l-.102-.064-2.138-1.672c-.714-.557-1.624-.676-2.26.017-.435.478-.6.95-.421 1.462l-.286.095c-.966-2.986-3.781-5.16-7.076-5.16H151.4l-.157.027c-.52 0-1.403.814-1.684 1.633-.205.59-.116 1.25-.319 1.84-.3.877-1.209 1.439-2.126 1.565-1.364.186-2.774-.481-3.614-1.57-.755-.978-1.072-2.252-.986-3.49l-.105-.005h-6.555c-1.004.07-1.554.272-2.1.872-.821.902-.233 2.588-1.009 3.529-.912 1.107-3.162 1.026-4.369.252-1.207-.776-1.769-2.264-1.764-3.698q-.001-.254.026-.562c.107-1.31.602-3.242 2.088-4.45q.37-.301.826-.535c.702-.355 1.893-.572 2.681-.588 2.01-.043 3.971.542 5.962.816 1.993.276 4.181.186 5.783-1.028.676-.512 1.207-1.196 1.634-1.931a8.7 8.7 0 0 0 1.133-3.515 7.5 7.5 0 0 0-.205-2.633"/><path fill="#50eef6" d="M169.883 23.07H170a23 23 0 0 1-.396 3.6l-.202-.039s-1.721-.38-2.783-.624c-1.06-.24-1.405-.83-1.286-1.762.119-.93.933-1.36 1.838-1.314zm.076-2.175-.219.012s-1.762.053-2.85.079c-1.088.028-1.566-.46-1.681-1.393-.112-.931.572-1.545 1.457-1.724l2.665-.533.164-.034c.236 1.181.388 2.384.464 3.593m-.973 7.784.128.038a23 23 0 0 1-1.278 3.39l-.298-.138s-1.55-.845-2.502-1.371c-.953-.527-1.12-1.188-.746-2.05s1.272-1.048 2.129-.753c.855.293 2.567.884 2.567.884m-.003-13.45-.274.019s-1.716.4-2.778.64c-1.06.243-1.626-.14-1.922-1.033-.295-.89.255-1.629 1.088-1.979l2.505-1.047.034-.017a20.7 20.7 0 0 1 1.347 3.417m-1.029 40.452c.748.188.893.914.824 1.593l-.209 2.043.009.376a8.6 8.6 0 0 1-3.216-.557l.073-.205s.648-1.619.881-2.398c.231-.778.893-1.04 1.638-.852m-1.452-21.383.103.064c-.677 1.079-1.412 2-2.212 2.876l-.334-.302s-1.188-1.303-1.916-2.112a2.2 2.2 0 0 1-.46-.72c-.178-.511-.014-.983.422-1.461.635-.693 1.545-.574 2.259-.017zm-.159-24.681-.084.057s-1.364 1.119-2.207 1.805c-.845.685-1.521.593-2.181-.074-.659-.67-.495-1.574.098-2.257.595-.684 1.84-2.205 1.84-2.205l.034-.04a13.4 13.4 0 0 1 2.433 2.616z"/><path fill="#f68dfe" d="m164.059 36.936.333.302c-.75.822-1.559 1.598-2.43 2.422h-.205v-3.181c0-.796-.126-1.56-.36-2.279l.286-.095c.083.23.233.469.459.719.729.81 1.917 2.112 1.917 2.112"/><path fill="#50eef6" d="M164.3 54.205c.516.574.233 1.257-.203 1.783l-1.307 1.581-.019.021a9 9 0 0 1-.867-.845h-.147v-2.26h.078c.239-.175.462-.344.627-.483.628-.516 1.321-.369 1.838.203"/><path fill="#ff7101" d="m151.243 29.067.157-.026h2.921c3.295 0 6.11 2.173 7.076 5.159.234.72.36 1.483.36 2.279v119.495c0 4.09-3.345 7.435-7.436 7.435H67.85c-3.15 0-5.86-1.983-6.938-4.764l-.04-.152 2.883-.767V46.716h3.592v107.62a2.5 2.5 0 0 0 2.496 2.495h82.485a2.505 2.505 0 0 0 2.498-2.495V38.116a2.505 2.505 0 0 0-2.498-2.497H69.843a2.503 2.503 0 0 0-2.496 2.498v3.39h-3.592v-6.555l-2.974-.807.03-.116c.944-3.029 3.71-4.989 7.039-4.989h49.769l.133.008c-.086 1.235.231 2.51.986 3.488.84 1.088 2.25 1.755 3.614 1.569.917-.126 1.826-.688 2.126-1.564.203-.591.115-1.25.319-1.841.296-.86.974-1.376 1.479-1.293l.362.026a6 6 0 0 0-.026.562c-.005 1.434.557 2.922 1.764 3.698 1.207.774 3.457.855 4.369-.252.776-.941.188-2.627 1.009-3.529.546-.6 1.096-.802 2.1-.871h6.555l.105.004c-.086 1.238.231 2.512.986 3.49.84 1.089 2.25 1.756 3.614 1.57.917-.126 1.826-.688 2.126-1.564.203-.591.114-1.25.319-1.841.281-.819 1.165-1.633 1.684-1.633"/><path fill="#4ed7de" d="m161.545 5.355-.007.014s-.7 1.62-1.136 2.617c-.436.995-1.079 1.224-1.971.93-.893-.29-1.16-1.17-.946-2.05.208-.85.617-2.528.641-2.633 1.186.224 2.352.562 3.419 1.122"/><path fill="#50eef6" d="M155.262 3.879v.06s-.034 1.761-.057 2.85c-.024 1.087-.534 1.542-1.47 1.611-.935.07-1.519-.64-1.654-1.536l-.429-2.835-.007-.074a22.4 22.4 0 0 1 3.617-.076"/><path fill="#f25730" d="M154.826 145.374v8.962a2.505 2.505 0 0 1-2.498 2.495H69.843a2.5 2.5 0 0 1-2.496-2.495v-8.962z"/><path fill="#bf3013" d="M154.826 131.017v14.357H67.347v-14.357z"/><path fill="#ffa75a" d="M154.826 127.319v3.698H67.347v-3.698z"/><path fill="#f25730" d="M154.826 117.74v9.579H67.348v-9.579z"/><path fill="#bf3013" d="M154.826 99.588v18.152H67.348V99.588z"/><path fill="#ffa75a" d="M154.826 95.89v3.698H67.347v-3.697z"/><path fill="#f25730" d="M154.826 86.312v9.578H67.348v-9.578z"/><path fill="#bf3013" d="M154.826 68.398v17.914H67.348V68.398z"/><path fill="#ffa75a" d="M154.826 64.7v3.698H67.347V64.7z"/><path fill="#f25730" d="M154.826 55.122V64.7H67.348v-9.579z"/><path fill="#bf3013" d="M154.826 38.117V55.12H67.347v-8.404H69.3v-5.21h-1.953v-3.39a2.503 2.503 0 0 1 2.496-2.498h82.485a2.505 2.505 0 0 1 2.498 2.498"/><path fill="#50eef6" d="M149.921 7.205c.234 1.062-.155 1.626-1.047 1.914-.893.288-1.627-.266-1.972-1.102l-1.031-2.512-.045-.11a20 20 0 0 1 3.452-1.069l.022.096s.388 1.719.621 2.783"/><path fill="#f68dfe" d="M128.012 20.107h.223l2.017-2.24-4.369.055zm8.002-7.338q.01-.14.009-.28c0-.982-.323-1.887-.869-2.615l.196-.131 3.307-.057c-.953-3.529-3.586-4.929-3.586-4.929s-.112 3.024-.169 4.705l-.052.05a4.37 4.37 0 0 0-6.822.533l-.138-.007a4.36 4.36 0 0 0-4.738-1.774l-.071-.257c-.841-1.29-1.779-2.321-2.912-3.307 0 2.355 0 3.921-.084 6.331l.06.02a4.4 4.4 0 0 0-.233 1.723 4.36 4.36 0 0 0 1.461 2.983 4.35 4.35 0 0 0 2.898 1.1c.714 0 1.383-.171 1.979-.474a4.4 4.4 0 0 0 1.692-1.523l.029-.02c.217.341.481.65.783.917a4.35 4.35 0 0 0 2.898 1.1c.712 0 1.386-.169 1.979-.474a4.36 4.36 0 0 0 2.383-3.614m-23.186 2.8a7.1 7.1 0 0 1 1.129-2.055c.959-1.204 2.371-2.064 3.888-2.295l-.029-.188c.274-3.38.326-6.469.257-9.86q.047.016.091.034c2.714.964 5.031 2.621 6.745 4.94l.138.143q1.188-.284 2.407-.397a17.5 17.5 0 0 1 5.162.269l.007-.067c.103-1.724.029-2.274-.026-4.921q.044.014.091.033l.043-.117c2.804-.183 7.664 2.095 9.992 5.926.884 1.45 1.403 3.122 1.31 4.97l-.043.066a5.9 5.9 0 0 1 2.01 2.148q.35.659.54 1.371c.229.85.288 1.745.205 2.633a8.7 8.7 0 0 1-1.133 3.515c-.427.735-.958 1.419-1.634 1.93-1.602 1.215-3.79 1.305-5.783 1.03-1.991-.275-3.953-.86-5.962-.817-.788.016-1.979.233-2.681.588a4.7 4.7 0 0 0-.826.535l-.098-.114c-1.659-1.205-3.543-1.26-5.569-.957-1.121.167-2.252.471-3.174 1.13q-.313.226-.585.5l-.084-.085c-1.874.307-3.428-.383-4.759-1.736-1.329-1.352-2.034-3.254-2.093-5.152a5 5 0 0 1 0-.367 8 8 0 0 1 .467-2.633z"/><path fill="#cf4cd9" d="m138.657 9.686-3.307.057-.196.13a4 4 0 0 0-.304-.361l.052-.05c.057-1.68.169-4.705.169-4.705s2.633 1.4 3.586 4.929"/><path fill="#50eef6" d="M136.023 12.488q0 .142-.009.281h-8.722a4.35 4.35 0 0 1 .736-2.724 4.37 4.37 0 0 1 7.126-.171c.546.728.869 1.633.869 2.614"/><path fill="#fffaf0" d="M127.292 12.77h8.722a4.36 4.36 0 0 1-2.383 3.613l-.074-.142a2.409 2.409 0 0 0-4.755-.54l-.048.056a4.3 4.3 0 0 1-.783-.916 4.34 4.34 0 0 1-.679-2.072"/><path fill="#002140" d="m133.557 16.24.074.143a4.3 4.3 0 0 1-1.979.474 4.35 4.35 0 0 1-2.898-1.1l.048-.057a2.408 2.408 0 0 1 4.755.54m-3.305 1.627-2.017 2.24h-.223l-2.129-2.185z"/><path fill="#f68dfe" d="m128.628 24.87.098.113c-1.486 1.208-1.981 3.14-2.088 4.45l-.362-.026c-.505-.083-1.183.433-1.479 1.293-.204.59-.116 1.25-.319 1.84-.3.877-1.209 1.439-2.126 1.565-1.364.186-2.774-.481-3.614-1.57-.755-.978-1.072-2.252-.986-3.487q.015-.21.043-.417c.167-1.155.686-2.269 1.505-3.088q.271-.275.586-.5c.921-.66 2.052-.964 3.173-1.131 2.027-.302 3.91-.248 5.569.957"/><path fill="#50eef6" d="m127.89 10.038.138.007a4.35 4.35 0 0 0-.735 2.724h-7.322l-.059.005a4.4 4.4 0 0 1 .233-1.724 4.375 4.375 0 0 1 4.126-2.93 4.36 4.36 0 0 1 3.619 1.918"/><path fill="#fffaf0" d="m127.971 14.84-.028.02a4.4 4.4 0 0 1-1.693 1.523l-.074-.142a2.409 2.409 0 0 0-4.755-.54l-.047.056a4.35 4.35 0 0 1-1.462-2.983l.059-.005h7.322c.047.76.29 1.467.678 2.072"/><path fill="#f68dfe" d="M127.452 5.876v.015c-.809.076-1.614.207-2.405.397l-.138-.143c-1.714-2.319-4.031-3.976-6.745-4.94l.043-.117c3.867-.252 7.809 2.617 9.245 4.788"/><path fill="#002140" d="m126.176 16.24.074.143a4.35 4.35 0 0 1-1.979.474 4.34 4.34 0 0 1-2.897-1.1l.047-.057a2.409 2.409 0 0 1 4.755.54"/><path fill="#cf4cd9" d="m123.081 8.007.071.257a4.38 4.38 0 0 0-3.007 2.786l-.06-.019c.084-2.41.084-3.976.084-6.33 1.133.985 2.071 2.016 2.912 3.306"/><path fill="#ff7101" d="M63.755 46.803v110.923l-2.884.767-44.512 11.838V22.095l44.422 12.05 2.974.807v6.555H61.4V38.82l-6.638-1.345v12.352L61.4 50.92v-4.202h2.355z"/><path fill="#28736d" d="M61.4 46.802v4.117l-6.638-1.093V37.474l6.638 1.345v2.688h-3.024v5.21H61.4z"/><path fill="#ffa75a" d="M16.36 22.095H7.787v148.236h8.571z"/><path stroke="#002140" stroke-linecap="round" stroke-linejoin="round" d="M67.347 46.633v2.353m0 0v105.35a2.5 2.5 0 0 0 2.496 2.495h82.485a2.505 2.505 0 0 0 2.498-2.495V38.116a2.505 2.505 0 0 0-2.498-2.497H69.843a2.503 2.503 0 0 0-2.496 2.498v3.138m50.272-12.215h-49.77c-3.328 0-6.094 1.96-7.037 4.989m81.597-4.989h-6.547"/><path stroke="#002140" stroke-linecap="round" stroke-linejoin="round" d="M60.912 158.645c1.078 2.781 3.788 4.764 6.938 4.764h86.471c4.091 0 7.436-3.345 7.436-7.435V36.479c0-.796-.126-1.56-.36-2.279-.966-2.986-3.781-5.16-7.076-5.16H151.4m3.447 26.082H67.788m87.059 9.578H67.788m87.059 3.698H67.619m87.228 17.914H67.788m87.059 9.578H67.788m87.059 3.698H67.619m87.228 18.152H67.788m87.059 9.579H67.788m87.059 3.698H67.619m87.228 14.357H67.452m-.105-103.867H69.3v5.21H58.376v-5.21z"/><path stroke="#002140" stroke-linecap="round" stroke-linejoin="round" d="M61.4 46.802v4.117l-6.638-1.093V37.474l6.638 1.345v2.521M16.36 22.095H7.787v148.236h8.571z"/><path stroke="#002140" stroke-linecap="round" stroke-linejoin="round" d="M63.755 41.424v-6.471l-2.974-.808-44.422-12.05m.001 148.236 44.511-11.838 2.884-.767V46.802m71.399-36.928a4.34 4.34 0 0 1 .86 2.895 4.36 4.36 0 0 1-2.383 3.614 4.3 4.3 0 0 1-1.979.474 4.35 4.35 0 0 1-2.898-1.1 4.3 4.3 0 0 1-.783-.916 4.34 4.34 0 0 1-.688-2.353 4.37 4.37 0 0 1 7.871-2.614"/><path stroke="#002140" stroke-linecap="round" stroke-linejoin="round" d="M128.802 15.7a2.408 2.408 0 0 1 4.755.54m-5.614-1.38a4.4 4.4 0 0 1-1.693 1.523 4.35 4.35 0 0 1-1.979.474 4.34 4.34 0 0 1-2.897-1.1 4.35 4.35 0 0 1-1.472-3.269 4.375 4.375 0 0 1 4.369-4.369 4.36 4.36 0 0 1 3.619 1.92"/><path stroke="#002140" stroke-linecap="round" stroke-linejoin="round" d="M121.421 15.7a2.409 2.409 0 0 1 4.755.54m9.931-3.47h-16.136m-1.343-1.613a5.4 5.4 0 0 0-.783.062c-1.517.231-2.929 1.09-3.888 2.295a7.1 7.1 0 0 0-1.129 2.055 8 8 0 0 0-.466 2.633 8 8 0 0 0 0 .367c.059 1.898.764 3.8 2.093 5.153 1.33 1.352 2.885 2.042 4.759 1.735m9.414-.587c-1.659-1.206-3.542-1.26-5.569-.958-1.121.167-2.252.471-3.173 1.13q-.315.226-.586.5c-.819.82-1.338 1.934-1.505 3.089a6 6 0 0 0-.043.417c-.086 1.235.231 2.51.986 3.488.84 1.088 2.25 1.755 3.614 1.569.917-.126 1.826-.688 2.126-1.564.203-.59.115-1.25.319-1.84.296-.86.974-1.377 1.479-1.294"/><path stroke="#002140" stroke-linecap="round" stroke-linejoin="round" d="M120.497 29.581c-.321 1.145-.376 2.857-.159 4.029m2.097-3.94c-.433 1.142-.514 2.906-.278 4.106m17.2-22.39c1.536-.557 3.257-.226 4.633.664a5.9 5.9 0 0 1 2.01 2.148q.35.659.54 1.371c.229.85.288 1.745.205 2.633a8.7 8.7 0 0 1-1.133 3.515c-.427.735-.958 1.419-1.634 1.93-1.602 1.215-3.79 1.305-5.783 1.03-1.991-.275-3.952-.86-5.962-.817-.788.016-1.979.233-2.681.588a4.7 4.7 0 0 0-.826.535c-1.486 1.207-1.981 3.14-2.088 4.45a6 6 0 0 0-.026.562c-.005 1.434.557 2.922 1.764 3.698 1.207.774 3.457.855 4.369-.252.776-.941.188-2.627 1.009-3.53.546-.6 1.096-.801 2.1-.87h.008c.542-.036 1.216-.034 2.092-.034h4.372"/><path stroke="#002140" stroke-linecap="round" stroke-linejoin="round" d="M129.545 29.581c-.321 1.145-.379 3.195-.162 4.364m2.1-4.275c-.433 1.142-.514 2.906-.278 4.106m22.185-8.906c-1.659-1.206-3.543-1.26-5.569-.958-1.121.167-2.252.471-3.174 1.13-1.157.83-1.888 2.18-2.09 3.589a6 6 0 0 0-.043.414c-.086 1.238.231 2.512.986 3.49.84 1.089 2.25 1.756 3.614 1.57.917-.126 1.826-.688 2.126-1.564.202-.59.114-1.25.319-1.84.281-.82 1.164-1.634 1.683-1.634q.04-.001.074.005"/><path stroke="#002140" stroke-linecap="round" stroke-linejoin="round" d="M145.259 29.581c-.321 1.145-.376 2.857-.159 4.029m2.097-3.94c-.433 1.142-.514 2.906-.278 4.106m15.945-17.073c1.086 2.404 1.524 5.435.89 7.997-.635 2.564-1.838 4.879-3.921 6.5m-42.017-20.169c.274-3.38.327-6.469.258-9.86q.047.016.09.034c2.714.964 5.031 2.621 6.745 4.94"/><path stroke="#002140" stroke-linecap="round" stroke-linejoin="round" d="M118.207 1.088c3.866-.252 7.809 2.617 9.245 4.788m5.172.217c.102-1.724.028-2.274-.027-4.921l.091.033c2.748.99 6.709 3.817 7.928 7.528"/><path stroke="#002140" stroke-linecap="round" stroke-linejoin="round" d="M132.731 1.088c2.804-.183 7.664 2.095 9.993 5.926.883 1.45 1.402 3.122 1.309 4.97m-18.986-5.696q1.189-.284 2.407-.397a17.5 17.5 0 0 1 5.162.269m-9.535 1.847c-.841-1.29-1.779-2.321-2.912-3.307 0 2.355 0 3.921-.084 6.331m14.817-1.569c.057-1.68.169-4.705.169-4.705s2.633 1.4 3.586 4.929l-3.307.057m-17.086 7.45c1.288 4.819 6.162 5.324 9.748 2.914l-2.129-2.185 4.369-.055-2.016 2.24c3.859 2.41 9.104 1.905 10.49-2.914m-23.041-1.623h-12.771m12.212 2.633h-7.955M142.2 15.57h12.771m-12.212 2.633h7.955m-7.688-11.374a18.5 18.5 0 0 1 2.8-1.434 20 20 0 0 1 3.452-1.069 22.4 22.4 0 0 1 5.984-.448 23 23 0 0 1 2.864.355c1.186.224 2.352.562 3.419 1.122q.008.006.017.01a13.3 13.3 0 0 1 2.281 1.537 13.4 13.4 0 0 1 2.433 2.617l.067.098q.725 1.058 1.292 2.195c.553 1.095.998 2.24 1.348 3.417.202.68.371 1.374.512 2.073a27 27 0 0 1 .495 4.208q.032.782.01 1.561a22.8 22.8 0 0 1-.886 5.646 22.6 22.6 0 0 1-2.16 5.069 19.8 19.8 0 0 1-2.561 3.452c-.75.822-1.56 1.598-2.431 2.422"/><path stroke="#002140" stroke-linecap="round" stroke-linejoin="round" d="M153.221 10.36c-2.855.278-5.321 1.176-7.45 3.193m.1-8.048 1.031 2.512c.345.836 1.079 1.39 1.971 1.102s1.281-.852 1.048-1.914c-.233-1.064-.621-2.783-.621-2.783m2.352-.393.429 2.835c.135.896.719 1.605 1.654 1.536.936-.069 1.446-.524 1.469-1.612s.055-2.85.055-2.85m2.869.291-.002.004c-.024.105-.433 1.784-.641 2.634-.214.878.053 1.76.946 2.05.892.293 1.535.064 1.971-.931.436-.998 1.136-2.617 1.136-2.617m2.271 1.574s-1.245 1.521-1.84 2.205c-.593.683-.757 1.588-.098 2.257.66.667 1.336.76 2.181.074.843-.686 2.207-1.805 2.207-1.805m1.343 2.155-2.505 1.047c-.833.35-1.383 1.088-1.088 1.979.296.893.862 1.276 1.922 1.033 1.062-.24 2.778-.64 2.778-.64m.622 2.088-2.665.533c-.885.179-1.569.793-1.457 1.724.115.933.593 1.421 1.681 1.393a598 598 0 0 0 2.85-.079m.143 2.163s-1.81-.094-2.712-.139c-.905-.045-1.719.383-1.838 1.314s.226 1.522 1.286 1.762c1.062.243 2.783.624 2.783.624m-.416 2.048-2.567-.884c-.857-.295-1.755-.11-2.129.753-.374.862-.207 1.523.746 2.05.952.526 2.502 1.371 2.502 1.371m-1.036 2.329-2.138-1.672c-.714-.557-1.624-.676-2.259.017-.436.478-.6.95-.422 1.462.083.23.233.469.46.719.728.81 1.916 2.112 1.916 2.112m-2.267 11.35c.25 1.376.684 2.505 1.57 3.588.883 1.08 2.169 1.871 3.561 1.986 1.393.111 2.993-.067 3.722-1.26.333-.547.559-1.288.188-2.293-.388-1.05-1.557-1.516-2.443-2.2a4.5 4.5 0 0 1-1.676-2.857c-.117-.776-.017-1.6.383-2.276.745-1.264 2.417-1.76 3.86-1.483a6.6 6.6 0 0 1 1.826.638c.74.383 1.407.907 1.938 1.54q.383.458.71.955a11.3 11.3 0 0 1 1.557 3.655 11 11 0 0 1 .238 3.588c-.145 1.426-.588 2.776-1.331 3.907a8.35 8.35 0 0 1-2.874 2.693 9.16 9.16 0 0 1-5.25 1.202 8.6 8.6 0 0 1-5-2.079 9 9 0 0 1-.867-.845"/><path stroke="#002140" stroke-linecap="round" stroke-linejoin="round" d="M172.773 42.293s-1.176 1.502-1.7 2.24c-.526.736-.604 1.653.115 2.255.719.603 1.402.631 2.178-.133.774-.762 2.027-2.005 2.027-2.005m1.578 3.631-2.683.414c-.895.136-1.605.72-1.534 1.657.07.936.527 1.443 1.615 1.467 1.088.021 2.85.048 2.85.048m-1.648 4.055s-1.374-1.179-2.062-1.767c-.685-.59-1.59-.75-2.254-.088-.667.664-.755 1.343-.065 2.183.693.838 1.819 2.195 1.819 2.195m-4.44.872.209-2.043c.069-.679-.076-1.405-.824-1.593-.745-.188-1.407.074-1.638.852-.233.779-.881 2.398-.881 2.398m-2.645-1.361 1.307-1.582c.436-.526.719-1.21.203-1.783-.517-.572-1.21-.72-1.838-.203-.165.139-.388.307-.627.484"/><path fill="#002140" d="M92.914 71.76c.455 1.13.562 2.438.35 3.712l-.186-.031c-.997.221-1.973-.472-2.621-1.262-.055-.067-.112-.143-.117-.231a.38.38 0 0 1 .076-.229c.565-.866.777-1.288 1.153-1.96-.672-.083-.757-.168-2.322-.29a3.9 3.9 0 0 1 .696-2.926l.066-.114c1.338.812 2.367 1.992 2.905 3.33"/><path fill="#fffaf0" d="M90.457 74.179c.648.79 1.624 1.483 2.621 1.261l.186.032c-.219 1.335-.788 2.633-1.669 3.659a7 7 0 0 1-.698.695l-.035.01c-1.098-4.355-2.643-8.284-5.36-12.522l.017-.01a7.9 7.9 0 0 1 4.49 1.125l-.066.114a3.9 3.9 0 0 0-.696 2.926c1.565.122 1.65.207 2.322.29-.376.672-.588 1.093-1.153 1.96a.38.38 0 0 0-.076.229c.005.088.062.164.117.23"/><path fill="#f2c8aa" d="M81.457 131.722c-1.479-.081-2.888.316-4.203.99-1.485.757-2.85 1.864-4.061 3.029q-.108.102-.212.204c-1.081 1.057-2.186 2.217-3.65 2.586a4 4 0 0 1-.229.05c-.902.169-1.807-.009-2.621-.426-.874-.443-1.643-1.16-2.195-2.012a5.8 5.8 0 0 1-.708-1.552 8 8 0 0 1-.257-1.431c-.097-1.06.012-2.134.253-3.188.216-.943.54-1.872.921-2.76l.014.01 1.346-3.446.033-.071c1.314.65 3.036.505 4.143-.483.876-.779 1.326-1.927 1.616-3.062.317-1.243.479-2.527.479-3.812.171 1.431.124 2.881.414 4.29.293 1.41.993 2.829 2.25 3.531 1.634.912 3.634.419 4.988-.84l.026.028c-1.35 2.515-1.845 3.912-2.67 6.643l-.077.291c1.424.376 2.921.84 4.419 1.376zm15.407-51.055c1.429 2.269-.588 3.95-.588 3.95l-.019.021c-1.369-1.24-3.321-2.15-5.474-2.15l.617-.329c-.17-.79-.348-1.561-.538-2.323l.035-.01q.376-.322.698-.695l.31.024s3.397-.97 4.96 1.512"/><path fill="#f2c8aa" d="M81.452 93.357a5 5 0 0 1-1.21.112c-2.292-.06-4.442-1.767-5.023-3.983a5.7 5.7 0 0 1 .14-3.26c.415-1.202 1.246-2.285 2.386-2.85.098-.047.2-.093.302-.13l-.064-.17c-1.56-2.576-3.333-6.01-2.593-8.928.448-1.767 1.7-3.195 2.865-4.596 1.621-1.947 3.166-4.007 4.428-6.204a53 53 0 0 1 2.82 3.966c2.716 4.239 4.261 8.167 5.359 12.522.19.762.369 1.533.538 2.324l-.617.328c2.153 0 4.105.91 5.474 2.15.724.657 1.286 1.405 1.628 2.162l-.016.095c-.474-.064-.95-.016-1.39.196-1.417.676-1.684 2.657-1.144 4.128.541 1.474 1.646 2.664 2.374 4.055a8.75 8.75 0 0 1 .712 6.167c-.528 2.047-1.557 4.026-3.324 5.192-1.1-1.102-2.061-2.673-2.773-4.059s-1.531-2.788-2.82-3.667c-1.285-.878-3.159-1.08-4.345-.071-.39.328-.68.764-.902 1.224-1.19 2.478-.329 5.583 1.505 7.633s4.454 3.217 7.083 4.024l.031.045a8.9 8.9 0 0 0 .971 3.564l-.093.048c-3.192 3.359-8.152 5.545-12.437 5.967l-.174-.055c.702-1.726.866-3.869.985-5.717.477-7.345.562-14.567-.671-22.186z"/><path fill="#f2c8aa" d="m110.197 105.902.312.031c1.222 1.172 1.555 3.072 1.131 4.71s-1.507 3.04-2.759 4.179c-.143.13-.295.266-.364.447-.058.15-.053.317-.053.476 0 .977-.238 1.95-.688 2.815 0 0 20.517 33.116 23.288 37.569 2.774 4.454 2.226 10.107 0 12.185-2.521 2.353-6.721 3.781-13.359-1.093-5.55-4.073-20.788-16.369-25.638-20.292l-.162.126c-1.177 3.528-3.277 12.857-3.95 16.638-.117.652-.24 1.295-.381 1.909-.655 2.798-1.715 4.993-4.331 4.781a5 5 0 0 1-.414-.052c-3.53-.588-3.948-4.286-3.024-10 .245-1.517.569-3.35.933-5.312a325 325 0 0 1 2.21-10.878c.38-1.703.742-3.222 1.059-4.398.29-1.088.69-1.962 1.162-2.636 1.276-1.821 3.079-2.197 4.714-1.478.379.164.748.39 1.098.669 2.438 1.933 26.638 22.435 30.252 24.79 3.614 2.353 4.791 0 3.193-2.69-2.048-3.448-25.579-38.562-25.579-38.562-2.166-.786-3.959-2.46-5-4.51a8.9 8.9 0 0 1-.97-3.564l-.032-.045c-2.629-.807-5.25-1.974-7.083-4.024s-2.695-5.155-1.505-7.633c.221-.46.512-.896.902-1.224 1.186-1.01 3.06-.807 4.346.071 1.288.879 2.107 2.281 2.819 3.667s1.674 2.957 2.773 4.059c1.767-1.166 2.796-3.145 3.324-5.192a8.75 8.75 0 0 0-.712-6.167c-.728-1.39-1.833-2.581-2.373-4.055-.54-1.471-.274-3.452 1.142-4.128.44-.212.917-.26 1.39-.196.806.11 1.613.546 2.256 1.07 1.673 1.366 2.802 3.323 3.435 5.39q.047.154.091.31l.188-.055c1.207-.048 2.605 1.09 3.193 2.519.543 1.314.812 2.785.84 4.288h.169c.715.257 2.269 1.343 2.236 4.102a15 15 0 0 1-.079 1.383m-92.659 31.153h-.002l-6.89.502-.106.01c-.114-1.203-.221-2.357-.321-3.438l.174-.017 2.871-.255 3.767-.333.171-.017c.11 1.155.224 2.343.336 3.548M2.7 103.845a11 11 0 0 1-.302-1.178A6.84 6.84 0 0 1 3.44 97.5c1.022-1.49 2.736-2.495 4.515-2.8v8.236c0 .028.1.038.1.067a164 164 0 0 0 7.226 5.628c-.055-.081.197-.052.14-.133.91-.31 1.51-1.21 1.743-2.141.233-.928.162-1.904.122-2.862-.07-1.654-.039-3.35.533-4.904.571-1.553 1.769-2.957 3.367-3.39 1.597-.434 3.542.361 4.069 1.93.414 1.233-.081 2.581-.71 3.719-.63 1.136-1.419 2.231-1.65 3.51-.357 1.962.664 3.957.426 5.935-.176 1.443-1.002 2.717-1.866 3.884-1.679 2.269-3.584 4.357-5.488 6.443l.528 5.509-3.498.255-3.445.247h-.028l-.055-.588c-.336-2.688-.421-3.697-1.598-4.79-.75-.695-4.723-3.093-5.326-3.919s-.767-2.057-.114-2.845l.357-.443a4 4 0 0 1-.407-.472c-.8-1.088-1.148-2.823-.055-4.252l.152-.186c-.271-.281-.478-.526-.588-.716-.704-1.217-1.078-3.3.52-4.562zm45.005 25.057c3.445-4.285 7.226-4.704 11.09-3.697-1.224 1.159-3.152 4.307-5.338 8.652a133 133 0 0 0-1.924 3.998c-.869 1.088-17.183 21.54-23.662 29.788-5.545 7.057-13.95 4.369-14.79-3.445-.34-3.186-1.372-14.093-2.243-23.431l.143-.015 6.68-.631.172-.016c.679 7.119 1.353 14.188 1.636 17.286.671 7.309 3.445 3.611 6.386 0 2.94-3.615 19.785-25.922 21.85-28.489"/><path fill="#fed607" d="m17.833 140.105-.171.016-6.681.631-.143.015-.298-3.2.105-.01 6.89-.502h.003c.098 1.009.195 2.031.295 3.05m-.631-6.598-.171.017-3.781-3.445 3.247-3.917z"/><path fill="#fed607" d="m17.03 133.524-3.766.333-.014-.164-3.193-3.362 2.94-3.945 3.498-.255.002.031-3.247 3.917z"/><path fill="#fed607" d="m13.25 133.693.014.164-2.871.255-.174.017c-.131-1.398-.25-2.674-.35-3.781l.188-.017zm-.252-7.307-2.941 3.945-.188.017c-.16-1.71-.281-3.008-.345-3.712h.028zm57.814 16.55.005.019c-.912.264-1.898.402-3.03.402a9 9 0 0 1-2.582-.405 10 10 0 0 1-1.255-.481l.057-.123 2.436-4.117.038-.076c.814.416 1.719.595 2.621.426l.533.069zm-6.317-15.724a16.4 16.4 0 0 0-.921 2.759l-.24-.059-3.865-1.429-.055-.021a14.5 14.5 0 0 1 1.272-2.707v-.01c2.426.75 3.669 1.395 3.81 1.467m-.21 8.931-.112.071-4.453 2.436-.038.019a6 6 0 0 1-.205-.417 9 9 0 0 1-.423-1.169 12 12 0 0 1-.358-1.733 14 14 0 0 1-.126-2.079h.057l4.37-.083.323-.028q.06.72.257 1.43a5.7 5.7 0 0 0 .707 1.553"/><path fill="#fed607" d="m70.812 142.936-1.177-4.286-.533-.069q.115-.021.229-.05c1.464-.369 2.569-1.529 3.65-2.586q.104-.102.212-.205l.226.136 3.276 3.279.005.005c-.348.33-.698.657-1.053.969-.428.373-.862.728-1.304 1.042-1.153.812-2.267 1.417-3.526 1.784zm-4.332-4.781-.037.076-2.436 4.117-.057.123c-1.8-.821-3.393-2.164-4.267-3.802l.038-.019 4.453-2.436.112-.071c.552.852 1.321 1.569 2.195 2.012m-3.148-8.243.24.059c-.24 1.055-.35 2.129-.252 3.189l-.323.028-4.37.083h-.057c.015-1.635.303-3.266.843-4.809l.055.021zm20.362 4.624c-.864.259-1.719.628-2.512 1.059l-.033-.138-3.784-2.521-.111-.224c1.314-.674 2.723-1.072 4.202-.991l.02-.054a50 50 0 0 1 5.69 2.423l-.053.108c-1.086-.162-2.262-.01-3.419.338"/><path fill="#fed607" d="m81.15 135.457.033.138a15 15 0 0 0-1.043.619c-1.204.786-2.319 1.888-3.44 2.946l-.005-.005-3.276-3.279-.226-.135c1.212-1.165 2.576-2.272 4.062-3.029l.112.224z"/><path fill="#99f6ff" d="m75.76 140.255-.113-.126a38 38 0 0 0 1.053-.969c1.121-1.058 2.236-2.16 3.44-2.946q.498-.325 1.043-.619c.793-.431 1.648-.8 2.512-1.059.926.435 1.52 1.497 1.398 2.516l.076.055c-.472.674-.872 1.548-1.162 2.636a111 111 0 0 0-1.06 4.397l-.188-.011c-.485.597-1.345.781-2.107.669a3.54 3.54 0 0 1-2.654-2.015c-.258-.576-.36-1.219-.677-1.764-.316-.548-.971-.988-1.562-.764m-10.633 2.947c-.124.86.364 1.772 1.145 2.148 1.412.676 3.143-.383 4.626.112 1.077.357 1.586 1.569 1.52 2.7-.09 1.581-1.162 2.145-1.627 2.378-.69.348-1.51.124-2.28.077a4.9 4.9 0 0 0-3.974 1.7c-.358.423-.643.909-1.05 1.285-1.012.934-2.74.943-3.765.022-.643-.581-.985-1.429-1.595-2.045-.895-.91-2.364-1.198-3.538-.696-1.281.548-2.157 1.903-3.52 2.193-.944.203-1.94-.174-2.694-.778-.753-.605-1.307-1.417-1.84-2.224l-.082-.031a180 180 0 0 1 5.081-12.188 133 133 0 0 1 1.924-3.998l.138.069a2.32 2.32 0 0 1 1.798 1.419c.147.381.193.793.324 1.181.13.386.378.769.766.895.79.255 1.665-.664 2.407-.292l.165-.046q.17.601.423 1.169.093.212.205.417c.874 1.638 2.467 2.981 4.267 3.802q.616.284 1.255.481zm18.102 27.419c.56 1.808-.866 3.948-2.75 4.127-1.123.107-2.283-.379-3.364-.058-1.448.429-2.293 2.172-3.788 2.377-1.01.138-1.995-.519-2.55-1.374-.552-.855-.762-1.883-.962-2.881l-.438-2.202c-.081-.405-.167-.824-.41-1.16-.69-.955-2.219-.71-3.183-.029-.957.674-1.871 1.724-3.033 1.567-.726-.1-1.31-.686-1.61-1.355-.3-.666-.352-1.421-.557-2.123a1.2 1.2 0 0 0-.733-.779c-.438-.157-.926-.045-1.388-.105-.774-.102-1.422-.705-1.74-1.419-.317-.714-.346-1.526-.263-2.302.143-1.305.643-2.641 1.686-3.436s2.702-.848 3.574.133c.733.829.936 2.286 2.019 2.512.75.155 1.443-.431 1.917-1.033.71-.898 1.257-1.941 2.13-2.683.872-.743 2.234-1.1 3.15-.412.455.34.717.874 1.043 1.34.327.467.796.912 1.367.91.67 0 1.164-.605 1.529-1.165 1.016-1.552 1.902-3.295 3.464-4.292.388-.248.826-.446 1.286-.441s.938.252 1.104.681h.01a240 240 0 0 0-.933 5.312c-.924 5.714-.505 9.412 3.023 10q.213.035.415.052zm-19.718 8.384a4.7 4.7 0 0 1 .568 3.85 4.7 4.7 0 0 1-2.564 2.928c-.652.291-1.448.415-2.057.043-.386-.233-.65-.64-1.043-.866-.619-.355-1.428-.177-2.024.216-.595.395-1.04.974-1.533 1.491-.898.94-2.288 1.735-3.448 1.147-.626-.316-1.011-.966-1.3-1.609-.545-1.215-.988-2.66-2.195-3.222-1.026-.476-2.271-.109-3.178.565-.91.673-1.577 1.612-2.334 2.452-.757.838-1.68 1.617-2.797 1.795-1.115.179-2.422-.466-2.617-1.578l-.143-.029a611 611 0 0 1 4.053-18.293q.198-.842.416-1.695l.098.026c.843-1.174 2.228-2.307 3.593-1.833.978.34 1.523 1.412 1.647 2.44.124 1.027-.076 2.062-.09 3.098-.01.795.088 1.593.295 2.362.164.612.402 1.221.826 1.693.424.471 1.057.788 1.686.707.947-.124 1.545-1.036 2.145-1.779.529-.657 1.17-1.252 1.95-1.571.784-.319 1.726-.324 2.431.14.764.5 1.121 1.431 1.295 2.327s.215 1.828.555 2.676c.34.845 1.088 1.619 2 1.628.638.005 1.236-.359 1.874-.352.786.009 1.46.586 1.89 1.243m8.481 26.826c.76 1.14.71 2.762-.116 3.855-.824 1.095-2.37 1.588-3.676 1.171-.796-.252-1.562-.812-2.384-.652-.769.15-1.264.869-1.769 1.469-.602.709-1.35 1.331-2.24 1.597-.893.269-1.94.131-2.617-.504-1.033-.972-.983-2.781-2.126-3.622-.981-.721-2.39-.369-3.429.269-1.155.71-2.11 1.724-3.302 2.367-1.195.643-2.82.817-3.803-.119-.907-.862-.919-2.286-1.447-3.422-.203-.433-.503-.845-.931-1.061-1.595-.81-3.595 1.476-5.138.571-1.024-.6-1.084-2.267-2.179-2.726-1.01-.424-2.445.414-3.143-.431l-.088-.012c.286-2.102.71-4.871 1.329-8.381l.088.014c.221.965 1 2.007 1.969 1.807.845-.176 1.25-1.188 2.033-1.545.748-.343 1.65.003 2.267.548.617.543 1.048 1.264 1.612 1.862.564.597 1.352 1.09 2.164.962 1.229-.196 1.786-1.588 2.336-2.705.519-1.055 1.245-2.043 2.25-2.65 1.007-.605 2.328-.772 3.364-.217 1.143.614 1.712 1.924 2.038 3.179.327 1.255.507 2.585 1.21 3.676.7 1.09 2.15 1.855 3.312 1.281.843-.419 1.297-1.407 2.152-1.8.672-.31 1.49-.183 2.12.207.628.391 1.085 1.012 1.409 1.676.445.912.878 2.103 1.89 2.195.424.041.834-.145 1.245-.25 1.331-.335 2.84.248 3.6 1.391m9.305.019c.324-.919 1.062-1.898 2.026-1.774l.217.007c-.279 6.66-.176 10.645-.176 10.645-4.448 2.155-9.367 3.405-15.565 3.696l-.011-.222A3.08 3.08 0 0 1 69 216.09c.99-.733 2.302-.795 3.524-.933 1.223-.138 2.564-.462 3.254-1.483.577-.853.546-1.979.972-2.917a3.23 3.23 0 0 1 1.5-1.54c.58-.286 1.255-.398 1.766-.796.767-.6.955-1.654 1.279-2.571m4.25-25.531.095.012c-.562 4.464-1.097 9.069-1.383 12.438-.25 2.96-.433 5.693-.567 8.155l-.104-.005c-.553.64-1.167.871-2.008.764-.838-.107-1.607-.571-2.18-1.193-.67-.728-1.084-1.652-1.689-2.433-.607-.778-1.53-1.445-2.507-1.302-.957.14-1.621.978-2.288 1.678-.978 1.031-2.495 1.912-3.76 1.265-.847-.436-1.247-1.398-1.697-2.236s-1.179-1.71-2.129-1.664c-.69.031-1.266.545-1.942.688-1 .212-2.036-.469-2.489-1.384-.454-.914-.43-1.997-.228-3 .129-.652.338-1.307.76-1.821.42-.512 1.09-.862 1.745-.76 1.147.181 1.84 1.596 2.997 1.653.698.033 1.329-.472 1.676-1.076.35-.605.484-1.308.665-1.981.257-.955.64-1.91 1.35-2.596.71-.685 1.812-1.038 2.716-.642.824.359 1.334 1.242 2.165 1.588 1.235.514 2.65-.391 3.347-1.531.7-1.141.95-2.5 1.555-3.696.574-1.133 1.538-2.142 2.776-2.44 1.236-.295 2.72.314 3.124 1.519"/><path fill="#50eef6" d="M77.745 83.376c-1.14.564-1.971 1.648-2.386 2.85a5.7 5.7 0 0 0-.14 3.26c.58 2.216 2.73 3.924 5.024 3.983.414.012.821-.026 1.21-.112l.004.026c1.233 7.619 1.148 14.841.671 22.186-.119 1.848-.283 3.991-.985 5.717a6.6 6.6 0 0 1-.581 1.119q-.338.512-.784.924c-1.354 1.259-3.354 1.752-4.988.84-1.257-.702-1.957-2.121-2.25-3.531-.29-1.409-.243-2.859-.414-4.29 0 1.285-.162 2.569-.479 3.812-.29 1.135-.74 2.283-1.616 3.061-1.107.989-2.829 1.134-4.143.484a3.4 3.4 0 0 1-.983-.722c-1.158-1.24-1.315-3.104-1.205-4.797.11-1.695.554-3.453.105-5.091.188 1.26-.01 2.553-.386 3.769-.326 1.062-.8 2.098-1.543 2.924s-1.779 1.429-2.888 1.483c-1.457.072-2.905-.89-3.405-2.259-.902-2.476 1.281-5.338.39-7.819.28 2.005-.345 4.226-1.959 5.448-1.612 1.223-4.248 1.069-5.4-.593-.8-1.155-.762-2.7-.41-4.057.355-1.36.989-2.634 1.298-4.003.605-2.676-.076-5.483-1.102-8.026-1.029-2.543-2.403-4.945-3.276-7.545-.434-1.29-.734-2.66-.798-4.02a2.96 2.96 0 0 1-2.8 1.177 2.96 2.96 0 0 1-2.31-1.986c-.192-.614-.176-1.274-.092-1.912a9.65 9.65 0 0 1 3.366-6.09q.446-.312.879-.645a9 9 0 0 0-.879.645c-.61.424-1.247.8-1.943 1.052-1.035.376-2.226.448-3.216-.033-.993-.484-1.665-1.593-1.51-2.684.146-1.007.593-2.128 2.003-2.704 1.019-.42 2.119-.553 3.221-.498.71.036 1.481.031 2.181.203q.283.11.576.19a3.3 3.3 0 0 0-.576-.19 5.64 5.64 0 0 1-3.09-2.989 5.63 5.63 0 0 1 .23-4.845c.353-.645.853-1.235 1.515-1.557s1.5-.338 2.105.079c.535.371.821 1.014.952 1.652.133.64.138 1.298.255 1.938a5.7 5.7 0 0 0 1.43 2.857c-1.154-2.964-.211-6.436 1.636-9.038 1.877-2.643 4.565-4.576 7.186-6.48 2.621-1.903 5.286-3.886 7.074-6.589 1.126-1.7 1.874-3.64 3.098-5.271 1.816-2.417 4.67-4.026 7.68-4.324s6.127.717 8.384 2.73c3.678 3.289 4.728 8.818 3.664 13.634-.519 2.345-1.464 4.548-2.662 6.629-1.262 2.197-2.807 4.257-4.429 6.204-1.164 1.4-2.416 2.829-2.864 4.596-.74 2.919 1.034 6.352 2.593 8.928l.064.17a3 3 0 0 0-.302.13"/><path fill="#f68dfe" d="M89.883 135.629c-1.636-.719-3.438-.343-4.714 1.478l-.076-.055c.121-1.019-.472-2.08-1.398-2.516 1.157-.348 2.333-.5 3.42-.338l.052-.107c.966.49 1.88 1.004 2.716 1.538m-29.195-9.884v.01a14.4 14.4 0 0 0-1.274 2.707 15 15 0 0 0-.717 6.888c.08.586.193 1.167.358 1.733l-.165.046c-.742-.372-1.616.547-2.407.292-.388-.126-.636-.509-.766-.895-.131-.388-.177-.8-.324-1.181a2.32 2.32 0 0 0-1.798-1.419l-.138-.069c2.186-4.345 4.114-7.493 5.338-8.652.695.181 1.326.364 1.893.54m13.655 15.426c.443-.314.876-.669 1.304-1.042l.112.126c.59-.224 1.246.216 1.562.764.317.545.42 1.188.677 1.764a3.54 3.54 0 0 0 2.654 2.015c.762.112 1.622-.072 2.107-.669l.189.012a324 324 0 0 0-2.21 10.878h-.01c-.166-.429-.645-.676-1.104-.681s-.898.193-1.286.441c-1.562.997-2.448 2.74-3.464 4.292-.365.56-.86 1.162-1.529 1.165-.571.002-1.04-.443-1.367-.91-.326-.466-.588-1-1.042-1.34-.917-.688-2.279-.331-3.15.412-.874.742-1.422 1.785-2.131 2.683-.474.602-1.167 1.188-1.917 1.033-1.083-.226-1.286-1.683-2.02-2.512-.87-.981-2.53-.928-3.573-.133s-1.543 2.131-1.686 3.436c-.083.776-.054 1.588.262 2.302.32.714.967 1.317 1.74 1.419.463.06.95-.052 1.389.105.347.126.628.424.733.779.205.702.257 1.457.557 2.123.3.669.884 1.255 1.61 1.355 1.162.157 2.076-.893 3.033-1.567.965-.681 2.493-.926 3.183.029.243.336.33.755.41 1.16l.438 2.202c.2.998.41 2.026.962 2.881.555.855 1.54 1.512 2.55 1.374 1.495-.205 2.34-1.948 3.788-2.377 1.081-.321 2.24.165 3.364.058 1.884-.179 3.31-2.319 2.75-4.127l.015-.238c2.616.212 3.676-1.983 4.33-4.781l.044.01c-.048.34-1.048 7.333-1.977 14.719l-.095-.012c-.405-1.205-1.888-1.814-3.124-1.519-1.238.298-2.202 1.307-2.776 2.44-.605 1.196-.855 2.555-1.555 3.696-.697 1.14-2.112 2.045-3.347 1.531-.831-.346-1.34-1.229-2.165-1.588-.904-.396-2.007-.043-2.716.642-.71.686-1.093 1.641-1.35 2.596-.181.673-.314 1.376-.665 1.981-.347.604-.978 1.109-1.676 1.076-1.157-.057-1.85-1.472-2.997-1.653-.655-.102-1.324.248-1.746.76-.421.514-.63 1.169-.76 1.821-.201 1.003-.225 2.086.23 3 .452.915 1.488 1.596 2.488 1.384.676-.143 1.252-.657 1.942-.688.95-.046 1.679.826 2.129 1.664s.85 1.8 1.698 2.236c1.264.647 2.78-.234 3.76-1.265.666-.7 1.33-1.538 2.287-1.678.976-.143 1.9.524 2.507 1.302.605.781 1.02 1.705 1.688 2.433.574.622 1.343 1.086 2.181 1.193.84.107 1.455-.124 2.008-.764l.104.005q-.091 1.669-.152 3.159l-.217-.007c-.964-.124-1.702.855-2.026 1.774-.324.917-.512 1.971-1.279 2.571-.511.398-1.185.51-1.766.796a3.22 3.22 0 0 0-1.5 1.54c-.426.938-.395 2.064-.972 2.917-.69 1.021-2.03 1.345-3.254 1.483-1.222.138-2.534.2-3.524.933a3.08 3.08 0 0 0-1.214 2.112l.011.222c-3.795.178-8.068 0-13.007-.557-12.997-1.458-21.4-11.653-21.4-11.653q.09-.736.212-1.633l.088.012c.698.845 2.134.007 3.143.431 1.096.459 1.155 2.126 2.179 2.726 1.543.905 3.543-1.381 5.138-.571.428.216.729.628.93 1.061.53 1.136.541 2.56 1.449 3.422.983.936 2.607.762 3.802.119 1.193-.643 2.147-1.657 3.302-2.367 1.038-.638 2.448-.99 3.429-.269 1.143.841 1.093 2.65 2.126 3.622.676.635 1.724.773 2.617.504.89-.266 1.638-.888 2.24-1.597.505-.6 1-1.319 1.77-1.469.82-.16 1.587.4 2.383.652 1.307.417 2.852-.076 3.676-1.171.826-1.093.876-2.715.116-3.855-.76-1.143-2.269-1.726-3.6-1.391-.412.105-.821.291-1.245.25-1.012-.092-1.445-1.283-1.89-2.195-.324-.664-.781-1.286-1.41-1.676s-1.447-.517-2.119-.207c-.855.393-1.31 1.381-2.152 1.8-1.162.574-2.612-.191-3.312-1.281-.703-1.091-.883-2.422-1.21-3.676s-.895-2.565-2.038-3.179c-1.036-.555-2.357-.388-3.364.217-1.005.607-1.731 1.595-2.25 2.65-.55 1.116-1.107 2.509-2.336 2.705-.812.128-1.6-.365-2.164-.962-.564-.598-.995-1.319-1.612-1.862-.617-.545-1.52-.891-2.267-.548-.783.357-1.188 1.369-2.033 1.545-.97.2-1.748-.842-1.97-1.807l-.087-.014c.5-2.841 1.128-6.164 1.914-10.012l.143.029c.195 1.112 1.502 1.757 2.617 1.578 1.116-.178 2.04-.957 2.797-1.795.757-.84 1.424-1.779 2.334-2.452.907-.674 2.152-1.041 3.178-.565 1.207.562 1.65 2.007 2.195 3.222.288.643.674 1.293 1.3 1.609 1.16.588 2.55-.207 3.448-1.147.493-.517.938-1.096 1.533-1.491.596-.393 1.405-.571 2.024-.216.393.226.657.633 1.043.866.61.372 1.405.248 2.057-.043a4.7 4.7 0 0 0 2.564-2.928 4.7 4.7 0 0 0-.569-3.85c-.43-.657-1.104-1.234-1.89-1.243-.638-.007-1.236.357-1.874.352-.912-.009-1.66-.783-2-1.628-.34-.848-.38-1.781-.555-2.676-.173-.896-.53-1.827-1.295-2.327-.705-.464-1.648-.459-2.43-.14s-1.422.914-1.95 1.571c-.6.743-1.198 1.655-2.146 1.779-.629.081-1.262-.236-1.686-.707-.424-.472-.662-1.081-.826-1.693a8.7 8.7 0 0 1-.295-2.362c.014-1.036.214-2.071.09-3.098-.123-1.028-.669-2.1-1.647-2.44-1.365-.474-2.75.659-3.593 1.833l-.098-.026c1.348-5.329 3.164-10.895 5.138-16.157l.081.031c.534.807 1.088 1.619 1.84 2.224.756.604 1.75.981 2.696.778 1.362-.29 2.238-1.645 3.519-2.193 1.174-.502 2.643-.214 3.538.696.61.616.952 1.464 1.595 2.045 1.024.921 2.753.912 3.765-.022.407-.376.692-.862 1.05-1.285a4.9 4.9 0 0 1 3.973-1.7c.772.047 1.59.271 2.281-.076.465-.234 1.536-.798 1.626-2.379.067-1.131-.442-2.343-1.519-2.7-1.483-.495-3.214.564-4.626-.112-.78-.376-1.269-1.288-1.145-2.148l.079-.25c.86.262 1.735.405 2.583.405 1.13 0 2.117-.138 3.029-.402 1.26-.367 2.373-.972 3.526-1.784"/><path stroke="#002140" stroke-linecap="round" stroke-linejoin="round" d="M81.369 83.572c-.945-.67-2.238-.748-3.322-.327a3 3 0 0 0-.302.131c-1.14.565-1.971 1.648-2.386 2.85a5.7 5.7 0 0 0-.14 3.26c.58 2.216 2.73 3.924 5.024 3.983.414.012.821-.026 1.21-.112 1.763-.376 3.17-1.688 3.309-3.614"/><path stroke="#002140" stroke-linecap="round" stroke-linejoin="round" d="M79.038 86.403a3.94 3.94 0 0 0 3.021.328 5 5 0 0 0-.771 3.19m-34.61-17.726q-.03-.067-.054-.138c-1.155-2.964-.212-6.436 1.635-9.038 1.877-2.643 4.565-4.576 7.186-6.48 2.621-1.903 5.286-3.886 7.074-6.589 1.126-1.7 1.874-3.64 3.098-5.271 1.816-2.417 4.67-4.026 7.68-4.324s6.127.717 8.384 2.73c3.678 3.289 4.728 8.818 3.664 13.634-.519 2.345-1.464 4.548-2.662 6.629-1.262 2.197-2.807 4.257-4.428 6.204-1.165 1.4-2.417 2.829-2.865 4.596-.74 2.919 1.034 6.352 2.593 8.928m-35.493-3.49a9.65 9.65 0 0 0-3.366 6.09c-.084.638-.1 1.298.093 1.912.32 1.02 1.254 1.82 2.309 1.986a2.96 2.96 0 0 0 2.8-1.176q.002-.005.007-.01m-1.843-8.802q.446-.312.879-.645-.459.295-.879.645m.736-4.664c-.7-.172-1.471-.167-2.18-.203-1.103-.055-2.203.079-3.222.498-1.41.576-1.857 1.697-2.003 2.704-.154 1.091.517 2.2 1.51 2.684.99.48 2.18.41 3.216.033.696-.252 1.334-.628 1.943-1.052m.736-4.664q.283.11.576.19a3.3 3.3 0 0 0-.576-.19"/><path stroke="#002140" stroke-linecap="round" stroke-linejoin="round" d="m46.628 72.062-.004-.005a5.7 5.7 0 0 1-1.431-2.857c-.117-.64-.122-1.298-.255-1.938-.131-.638-.417-1.281-.953-1.652-.604-.417-1.442-.4-2.104-.079s-1.162.912-1.514 1.557a5.63 5.63 0 0 0-.231 4.845 5.64 5.64 0 0 0 3.09 2.988m1.757 9.449c-.54 1.273-.721 2.644-.657 4.028.064 1.36.364 2.728.798 4.019.873 2.6 2.247 5.002 3.276 7.545 1.026 2.543 1.707 5.35 1.102 8.026-.31 1.369-.943 2.643-1.297 4.003-.353 1.357-.39 2.902.41 4.057 1.151 1.662 3.787 1.816 5.4.593 1.613-1.222 2.237-3.443 1.959-5.448.89 2.481-1.293 5.343-.39 7.819.5 1.369 1.947 2.331 3.404 2.259 1.11-.054 2.145-.657 2.888-1.483s1.217-1.862 1.543-2.924c.376-1.216.574-2.509.386-3.769.45 1.638.004 3.396-.105 5.091-.11 1.693.047 3.557 1.204 4.797.282.3.617.543.984.722 1.314.65 3.036.505 4.143-.484.876-.778 1.326-1.926 1.616-3.061.317-1.243.479-2.527.479-3.812.171 1.431.124 2.881.414 4.29.293 1.41.993 2.829 2.25 3.531 1.634.912 3.634.419 4.988-.84a5 5 0 0 0 .784-.924 6.5 6.5 0 0 0 .58-1.119c.703-1.726.867-3.869.986-5.717.477-7.345.562-14.567-.671-22.186m1.193-30.078.033.043a53 53 0 0 1 2.82 3.966c2.716 4.238 4.261 8.167 5.359 12.522.19.762.369 1.533.538 2.324"/><path stroke="#002140" stroke-linecap="round" stroke-linejoin="round" d="M85.519 67.305a7.9 7.9 0 0 1 4.49 1.124c1.338.811 2.367 1.992 2.905 3.33.455 1.132.562 2.439.35 3.713-.219 1.335-.788 2.633-1.669 3.659a7 7 0 0 1-.698.695"/><path stroke="#002140" stroke-linecap="round" stroke-linejoin="round" d="M89.943 68.543a3.9 3.9 0 0 0-.696 2.926c1.565.122 1.65.207 2.322.29-.376.672-.588 1.093-1.153 1.96a.38.38 0 0 0-.076.229c.005.088.062.164.117.23.648.791 1.624 1.484 2.621 1.263m-.233 36.276c-2.629-.807-5.25-1.974-7.083-4.024s-2.695-5.155-1.505-7.633c.221-.46.512-.896.902-1.224 1.186-1.01 3.06-.807 4.346.071 1.288.879 2.107 2.281 2.819 3.667s1.673 2.957 2.773 4.059c1.767-1.166 2.796-3.145 3.324-5.192.526-2.05.27-4.29-.712-6.167-.728-1.39-1.833-2.581-2.374-4.055-.54-1.471-.273-3.452 1.143-4.128.44-.212.917-.26 1.39-.196.806.11 1.613.546 2.256 1.07 1.673 1.366 2.802 3.323 3.435 5.39q.047.154.091.31c.559 1.973.712 4.047.709 6.102-.002 2.159-.557 4.14-1.445 6.109"/><path stroke="#002140" stroke-linecap="round" stroke-linejoin="round" d="M103.838 93.61c1.207-.048 2.605 1.09 3.193 2.519.543 1.314.812 2.785.84 4.288.055 2.916-.8 5.959-2.352 8.233m2.521-8.236c.715.26 2.269 1.346 2.236 4.105a15 15 0 0 1-.079 1.383c-.228 2.136-.971 4.136-2.578 5.605m-14.743.255a8.9 8.9 0 0 0 .971 3.564c1.041 2.05 2.834 3.724 5 4.51 0 0 23.531 35.114 25.579 38.562 1.598 2.69.421 5.042-3.193 2.69-3.614-2.355-27.814-22.857-30.252-24.79a5 5 0 0 0-1.098-.669c-1.635-.719-3.438-.343-4.714 1.478-.471.674-.871 1.548-1.162 2.636a111 111 0 0 0-1.06 4.397 325 325 0 0 0-2.209 10.879 240 240 0 0 0-.933 5.312c-.924 5.714-.505 9.412 3.023 10q.213.035.415.052c2.616.212 3.676-1.983 4.33-4.781.141-.614.265-1.257.382-1.909.673-3.781 2.773-13.11 3.95-16.638"/><path stroke="#002140" stroke-linecap="round" stroke-linejoin="round" d="M110.509 105.933c1.222 1.172 1.555 3.072 1.131 4.71s-1.507 3.04-2.759 4.178c-.143.131-.295.267-.364.448-.058.15-.053.317-.053.476 0 .976-.238 1.95-.688 2.815 0 0 20.517 33.116 23.288 37.569 2.774 4.454 2.226 10.107 0 12.185-2.521 2.353-6.721 3.781-13.359-1.093-5.55-4.073-20.788-16.369-25.638-20.292l-1.505-1.22m-9.245-24.369c4.285-.421 9.245-2.607 12.438-5.966m-84.45-4.976c-1.686-1.326-3.529-2.519-4.796-3.765-.947-.933-1.462-1.719-1.81-2.788a11 11 0 0 1-.302-1.178A6.84 6.84 0 0 1 3.44 97.5c1.022-1.49 2.736-2.495 4.515-2.8v8.236c0 .028.1.038.1.067a164 164 0 0 0 7.226 5.628c-.055-.081.197-.052.14-.133.91-.31 1.51-1.21 1.743-2.141.233-.928.162-1.904.121-2.862-.069-1.654-.038-3.35.534-4.904.571-1.553 1.769-2.957 3.367-3.39 1.597-.434 3.542.361 4.069 1.93.414 1.233-.081 2.581-.71 3.719-.63 1.136-1.419 2.231-1.65 3.51-.357 1.962.664 3.957.426 5.935-.176 1.443-1.002 2.717-1.866 3.884-1.679 2.269-3.584 4.357-5.488 6.443l.528 5.509.002.031.705 7.345c.11 1.155.224 2.343.336 3.548.098 1.009.195 2.031.295 3.05.679 7.119 1.353 14.188 1.636 17.286.671 7.309 3.445 3.611 6.386 0 2.94-3.615 19.785-25.922 21.85-28.489 3.445-4.285 7.226-4.704 11.09-3.697.695.181 1.326.364 1.893.54 2.424.75 3.666 1.396 3.807 1.467l.014.01 1.346-3.446"/><path stroke="#002140" stroke-linecap="round" stroke-linejoin="round" d="M2.41 103.86c-1.598 1.261-1.224 3.345-.52 4.561.11.191.317.436.588.717 1.474 1.522 4.908 4.095 5.815 4.807m-5.967-4.621c-1.093 1.428-.745 3.164.055 4.252q.186.25.407.472c.436.44.957.8 1.474 1.154l3.535 2.431"/><path stroke="#002140" stroke-linecap="round" stroke-linejoin="round" d="M2.43 114.49c-.652.789-.487 2.02.115 2.846.603.826 4.576 3.224 5.326 3.919 1.177 1.093 1.262 2.102 1.598 4.79l.055.591c.064.704.185 2.002.345 3.712.1 1.107.219 2.383.35 3.781.1 1.081.207 2.235.321 3.438l.298 3.2c.871 9.338 1.902 20.245 2.243 23.431.84 7.814 9.245 10.502 14.79 3.445 6.479-8.248 22.793-28.7 23.662-29.788l.036-.045"/><path stroke="#002140" stroke-linecap="round" stroke-linejoin="round" d="m9.552 126.633 3.446-.247 3.497-.255.031-.002-.029.033-3.247 3.917 3.78 3.445-3.766.333-2.871.255m.252 3.445 6.89-.502m-6.555 3.697 6.682-.631"/><path stroke="#002140" stroke-linecap="round" stroke-linejoin="round" d="m12.998 126.386-2.941 3.945 3.193 3.362m61.85-3.874c.63.136 1.286.293 1.957.472 1.424.376 2.921.84 4.419 1.376 1.957.7 3.912 1.521 5.69 2.424.967.49 1.882 1.004 2.717 1.538l.257.164M77.133 130c.826-2.731 1.322-4.129 2.672-6.643m9.852-40.785a7.6 7.6 0 0 1 1.126-.084c2.153 0 4.105.91 5.474 2.15.724.657 1.286 1.405 1.629 2.162m-5.981-7.645s3.397-.97 4.96 1.512c1.428 2.269-.589 3.95-.589 3.95m-8.657 80.981-.002.014c-.048.34-1.048 7.333-1.977 14.719-.562 4.464-1.097 9.069-1.383 12.438a272 272 0 0 0-.719 11.314c-.279 6.66-.176 10.645-.176 10.645-4.448 2.155-9.367 3.405-15.564 3.696-3.796.178-8.07 0-13.008-.557-12.997-1.458-21.4-11.653-21.4-11.653q.09-.736.212-1.633c.286-2.102.71-4.872 1.329-8.381.5-2.841 1.128-6.164 1.914-10.012a611 611 0 0 1 4.053-18.293q.198-.842.416-1.695c1.348-5.329 3.164-10.895 5.138-16.157a180 180 0 0 1 5.081-12.188 133 133 0 0 1 1.924-3.998c2.186-4.345 4.114-7.493 5.338-8.652"/><path stroke="#002140" stroke-linecap="round" stroke-linejoin="round" d="m64.538 127.109-.043.103a16.4 16.4 0 0 0-.921 2.759c-.24 1.055-.35 2.129-.253 3.188q.06.721.257 1.431a5.8 5.8 0 0 0 .707 1.553c.553.852 1.322 1.569 2.196 2.012.814.416 1.719.595 2.621.426q.114-.021.229-.05c1.464-.369 2.569-1.529 3.65-2.586q.104-.102.212-.205c1.212-1.164 2.576-2.271 4.061-3.028 1.315-.674 2.724-1.072 4.203-.991"/><path stroke="#002140" stroke-linecap="round" stroke-linejoin="round" d="M60.686 125.755c-.517.855-.94 1.764-1.272 2.707a15 15 0 0 0-.717 6.888c.079.586.193 1.167.358 1.733q.17.601.423 1.169.093.212.205.417c.874 1.638 2.467 2.981 4.267 3.802q.616.284 1.255.481c.86.262 1.735.405 2.583.405 1.13 0 2.117-.138 3.029-.402 1.259-.367 2.373-.972 3.526-1.784.442-.314.876-.669 1.304-1.042.355-.312.705-.639 1.053-.969 1.121-1.058 2.236-2.16 3.44-2.946q.498-.325 1.043-.619c.793-.431 1.648-.8 2.512-1.059 1.157-.348 2.333-.5 3.42-.338m-27.646-5.715 3.864 1.429m-4.705 3.359 4.37-.083m-3.277 5.462 4.453-2.436m-.167 6.134 2.436-4.117m3.193.419 1.176 4.286m2.607-7.06 3.276 3.279m.672-6.219 3.783 2.521"/><path stroke="#002140" stroke-linecap="round" stroke-linejoin="round" d="M75.76 140.255c.59-.224 1.245.216 1.561.764.317.545.42 1.188.677 1.764a3.54 3.54 0 0 0 2.654 2.015c.762.112 1.622-.072 2.107-.669m.915-9.605.021.012c.926.435 1.52 1.497 1.398 2.516m-31.498-3.126a2.32 2.32 0 0 1 1.798 1.419c.147.381.193.793.324 1.181.13.386.378.769.766.896.79.254 1.665-.665 2.407-.293m-12.357 12.945c.533.807 1.088 1.619 1.84 2.224.755.604 1.75.981 2.696.778 1.362-.29 2.238-1.645 3.519-2.193 1.174-.502 2.643-.214 3.538.696.61.616.952 1.464 1.595 2.045 1.024.921 2.753.912 3.765-.022.407-.376.692-.861 1.05-1.285a4.9 4.9 0 0 1 3.973-1.7c.772.047 1.59.271 2.281-.076.465-.234 1.536-.798 1.626-2.379.067-1.131-.442-2.343-1.519-2.7-1.483-.495-3.214.564-4.626-.112-.78-.376-1.269-1.288-1.145-2.148m15.602 11.817c-.166-.429-.645-.676-1.104-.681s-.898.193-1.286.441c-1.562.997-2.448 2.74-3.464 4.292-.365.56-.86 1.162-1.529 1.165-.571.002-1.04-.443-1.367-.91-.326-.466-.588-1-1.042-1.34-.917-.688-2.28-.331-3.15.412-.874.742-1.422 1.785-2.131 2.683-.474.602-1.167 1.188-1.917 1.033-1.083-.226-1.286-1.683-2.02-2.512-.87-.981-2.53-.928-3.573-.133s-1.543 2.131-1.686 3.436c-.083.776-.054 1.588.262 2.302.32.714.967 1.317 1.74 1.419.463.06.95-.052 1.389.105.347.126.628.424.733.779.205.702.257 1.457.557 2.123.3.669.884 1.255 1.61 1.355 1.162.157 2.076-.893 3.033-1.567.964-.681 2.493-.926 3.183.029.243.336.329.755.41 1.16l.438 2.202c.2.998.41 2.026.962 2.881.555.855 1.54 1.512 2.55 1.374 1.495-.205 2.34-1.948 3.788-2.377 1.081-.321 2.24.165 3.364.058 1.884-.179 3.31-2.319 2.75-4.127m-41.816-4.395c.843-1.174 2.228-2.307 3.593-1.833.978.34 1.523 1.412 1.647 2.44.124 1.027-.076 2.062-.09 3.098-.01.795.088 1.593.295 2.362.164.612.402 1.221.826 1.693.424.471 1.057.788 1.686.707.947-.124 1.545-1.036 2.145-1.779.529-.657 1.17-1.252 1.95-1.571.783-.319 1.726-.324 2.431.14.764.5 1.121 1.431 1.295 2.327s.215 1.828.555 2.676c.34.845 1.088 1.619 2 1.628.638.005 1.236-.359 1.874-.352.786.009 1.46.586 1.89 1.243a4.7 4.7 0 0 1 .57 3.85 4.7 4.7 0 0 1-2.565 2.928c-.652.291-1.448.415-2.057.043-.386-.233-.65-.64-1.043-.866-.619-.355-1.428-.177-2.024.216-.595.395-1.04.974-1.533 1.491-.898.94-2.288 1.735-3.448 1.147-.626-.316-1.012-.966-1.3-1.609-.545-1.215-.988-2.66-2.195-3.222-1.026-.476-2.271-.109-3.178.565-.91.673-1.577 1.612-2.334 2.452-.757.838-1.68 1.617-2.797 1.795-1.115.179-2.422-.466-2.617-1.578m48.557-5.898c-.405-1.205-1.888-1.814-3.124-1.519-1.238.298-2.202 1.307-2.776 2.44-.605 1.196-.855 2.555-1.555 3.696-.697 1.14-2.112 2.045-3.347 1.531-.831-.346-1.34-1.229-2.165-1.588-.904-.396-2.007-.043-2.716.642-.71.686-1.093 1.641-1.35 2.596-.181.673-.314 1.376-.665 1.981-.347.604-.978 1.109-1.676 1.076-1.157-.057-1.85-1.472-2.997-1.653-.655-.102-1.324.248-1.746.76-.421.514-.63 1.169-.76 1.821-.201 1.003-.225 2.086.23 3 .452.915 1.488 1.596 2.488 1.384.676-.143 1.252-.657 1.942-.688.95-.046 1.679.826 2.129 1.664s.85 1.8 1.698 2.236c1.264.647 2.78-.234 3.76-1.265.666-.7 1.33-1.538 2.287-1.678.976-.143 1.9.524 2.507 1.302.605.781 1.02 1.705 1.688 2.433.574.622 1.343 1.086 2.181 1.193.84.107 1.455-.124 2.008-.764m-.265 3.157c-.964-.124-1.702.855-2.026 1.774-.324.917-.512 1.971-1.279 2.571-.511.398-1.185.51-1.766.796a3.23 3.23 0 0 0-1.5 1.54c-.426.938-.395 2.064-.972 2.917-.69 1.021-2.03 1.345-3.254 1.483-1.222.138-2.534.2-3.524.933a3.08 3.08 0 0 0-1.215 2.112m-32.766-21.988c.221.965 1 2.007 1.969 1.807.845-.176 1.25-1.188 2.033-1.545.748-.343 1.65.003 2.267.548.617.543 1.048 1.264 1.612 1.862.564.597 1.352 1.09 2.164.962 1.229-.196 1.786-1.588 2.336-2.705.519-1.055 1.245-2.043 2.25-2.65 1.007-.605 2.328-.772 3.364-.217 1.143.614 1.712 1.924 2.038 3.179s.507 2.585 1.21 3.676c.7 1.09 2.15 1.855 3.312 1.281.843-.419 1.297-1.407 2.152-1.8.671-.31 1.49-.183 2.119.207.629.391 1.086 1.012 1.41 1.676.445.912.878 2.103 1.89 2.195.424.041.833-.145 1.245-.25 1.331-.335 2.84.248 3.6 1.391.76 1.14.71 2.762-.116 3.855-.824 1.095-2.37 1.588-3.677 1.171-.795-.252-1.562-.812-2.383-.652-.769.15-1.264.869-1.769 1.469-.602.709-1.35 1.331-2.24 1.597-.893.269-1.94.131-2.617-.504-1.033-.972-.983-2.781-2.126-3.622-.981-.721-2.39-.369-3.429.269-1.155.71-2.11 1.724-3.302 2.367-1.196.643-2.82.817-3.803-.119-.907-.862-.919-2.286-1.447-3.422-.203-.433-.503-.845-.931-1.061-1.595-.81-3.595 1.476-5.138.571-1.024-.6-1.084-2.267-2.179-2.726-1.01-.424-2.445.414-3.143-.431"/></svg>