<svg xmlns="http://www.w3.org/2000/svg" xml:space="preserve" id="Layer_1" x="0" y="0" viewBox="0 0 68 68"><style>.st0{fill:#0164bf;stroke:#002140;stroke-linecap:round;stroke-linejoin:round}.st1{fill:#b0d9ff}.st2{fill:#fffaf0}.st3{fill:#fed607}.st4{fill:none;stroke:#002140;stroke-linecap:round;stroke-linejoin:round}</style><path d="M42.97 59c.508 0 1.959-.373 1.959-1.847s-1.397-1.847-1.959-1.847H25.261c-.508 0-1.959.373-1.959 1.847S24.699 59 25.261 59zm0-46.836c.508 0 1.959-.373 1.959-1.847S43.532 8.47 42.97 8.47H25.261c-.508 0-1.959.373-1.959 1.847s1.397 1.847 1.959 1.847z" class="st0"/><path d="M45.72 14.024c2.382 1.784 3.154 4.35 2.382 7.284-1.424 5.406-11.144 8.529-11.211 12.429v.04c.067 3.9 9.782 7.023 11.211 12.429.773 2.934 0 5.5-2.382 7.284s-6.412 2.498-11.458 2.498h-.193c-5.046 0-9.077-.715-11.459-2.498s-3.154-4.35-2.377-7.284c1.425-5.406 11.144-8.529 11.207-12.429v-.04c-.067-3.9-9.782-7.023-11.207-12.429-.773-2.934-.004-5.5 2.377-7.284s6.412-2.498 11.459-2.498h.193c5.046 0 9.077.714 11.458 2.498m-2.952 38.092c1.186-.593 1.33-1.361.445-1.968 0 0-5.94-4.035-8.947-4.035h-.099c-3.006 0-8.947 4.035-8.947 4.035-.885.607-.746 1.375.44 1.968 1.258.629 2.889 1.191 8.461 1.191h.189c5.572 0 7.203-.562 8.461-1.191zm-7.981-18.747a.809.809 0 1 0-1.617 0 .809.809 0 0 0 1.617 0m0 6.574a.809.809 0 1 0-1.617 0 .809.809 0 0 0 1.617 0" class="st1"/><path d="M44.277 43.668c2.377 2.444 3.155 5.127 1.645 5.554-1.708.476-1.64-1.802-4.732-4.193-2.764-2.134-3.191-3.091-2.413-3.954.683-.763 2.566-.422 5.5 2.593" class="st2"/><path d="M43.208 50.152c.885.607.746 1.375-.445 1.968-1.258.629-2.889 1.191-8.461 1.191h-.189c-5.572 0-7.203-.562-8.461-1.191-1.186-.593-1.326-1.362-.44-1.968 0 0 5.941-4.035 8.947-4.035h.099c3.006 0 8.947 4.035 8.947 4.035zm-1.676-27.19c.706 0 .998.836.422 1.218 0 0-5.217 4.354-7.891 4.354s-8.07-4.354-8.07-4.354c-.571-.382-.283-1.218.422-1.218zm-7.554 9.602a.809.809 0 1 1 0 1.617.809.809 0 0 1 0-1.617m0 6.575a.809.809 0 1 1 0 1.617.809.809 0 0 1 0-1.617" class="st3"/><path d="M45.177 15.795c2.098 2.507 1.609 6.956-.234 6.938-1.609-.014-.126-1.546-1.267-4.04s-3.73-2.746-2.894-4.201c.62-1.087 2.894-.49 4.395 1.308z" class="st2"/><path d="M31.435 33.778c-.067 3.9-9.782 7.023-11.207 12.429-.773 2.934-.005 5.5 2.377 7.284s6.412 2.498 11.459 2.498m2.826-22.211c.067 3.9 9.782 7.023 11.211 12.429.773 2.934 0 5.5-2.382 7.284s-6.412 2.498-11.459 2.498m2.63-22.211v-.04c.067-3.9 9.782-7.023 11.211-12.429.773-2.934 0-5.5-2.382-7.284s-6.412-2.498-11.459-2.498m-2.825 22.251v-.04c-.067-3.9-9.782-7.023-11.207-12.429-.773-2.934-.005-5.5 2.377-7.284s6.412-2.498 11.459-2.498" class="st4"/><path d="M26.42 22.962h15.112c.706 0 .998.836.422 1.218 0 0-5.217 4.354-7.891 4.354s-8.07-4.354-8.07-4.354c-.571-.382-.283-1.218.422-1.218zm7.693 30.345c-5.572 0-7.203-.562-8.461-1.191-1.186-.593-1.326-1.362-.44-1.968 0 0 5.941-4.035 8.947-4.035m.143 7.194c5.572 0 7.203-.562 8.461-1.191 1.186-.593 1.33-1.362.445-1.968 0 0-5.941-4.035-8.947-4.035m.526-12.74a.809.809 0 1 1-1.617 0 .809.809 0 0 1 1.617 0m0 6.574a.809.809 0 1 1-1.617 0 .809.809 0 0 1 1.617 0" class="st4"/></svg>