<svg xmlns="http://www.w3.org/2000/svg" id="Layer_1" viewBox="0 0 68 68"><defs><style>.st0{fill:#00b268}.st1{fill:#fffaf0}.st2{fill:#002140}.st3,.st4{fill:none;stroke:#002140;stroke-linecap:round;stroke-linejoin:round}.st5{fill:#5be3aa}.st6{fill:#085239}.st7{fill:#03d47c}.st8{fill:#008c59}.st4{stroke-width:.333px}</style></defs><path d="M39.196 13.616h-6.33l-.074-.052 4.4-6.235 2.133 6.241z" class="st7"/><path d="m39.326 13.57 1.521 4.456-.162.057c-4.402-4.06-10.233-.683-10.888-.28l2.993-4.24.073.053h6.332z" class="st7"/><path d="m40.848 18.026-1.521-4.456-2.133-6.241 8.318 12.964h-3.888z" class="st0"/><path d="m31.023 26.094.065-.379c.694.287 1.541.46 2.58.469 5.009.042 7.181-3.6 7.908-5.354l.208-.072 3.045 8.911-15.087-.092 1.281-3.482Z" class="st7"/><path d="M31.088 25.715c-2.652-1.099-3.017-3.854-2.952-5.323l-.11-.079 1.772-2.51c.655-.403 6.483-3.782 10.888.28l.162-.057.776 2.267.16.464-.208.072c-.726 1.754-2.898 5.396-7.908 5.354-1.04-.009-1.887-.182-2.58-.469Zm6.875-4.406-3.486-.357 3.341-1.986c-.415-.747-1.204-1.229-2.217-1.237-1.779-.013-3.575 1.439-4.002 3.245-.432 1.804.663 3.28 2.442 3.296 1.686.013 3.382-1.29 3.923-2.961Z" class="st1"/><path d="m31.088 25.715-.065.379-1.281 3.482-8.007-.05-.14-.101 6.432-9.11.11.079c-.065 1.469.3 4.224 2.952 5.324v-.002ZM63.676 56.09a6.54 6.54 0 0 1-1.716 4.581l-.177-.109-2.466-2.51.188-.324c.288-.445.45-.981.437-1.553-.035-1.504-1.269-2.698-2.753-2.665-1.487.035-2.665 1.285-2.63 2.79.017.74.322 1.399.802 1.879l-.03.028-2.861 2.315-.035.031a6.52 6.52 0 0 1-1.61-4.165 6.515 6.515 0 0 1 4.048-6.204 6.3 6.3 0 0 1 4.071-.23c2.673.736 4.666 3.184 4.733 6.136Z" class="st7"/><path d="m58.98 49.818-.039.138a6.3 6.3 0 0 0-1.841-.23 6.3 6.3 0 0 0-2.23.46l-.052-.125c-.609-2.24-2.358-2.678-6.019-2.678l-.004.004c-.03 0-.058-1.086-.078-2.17.013-.812-.03-1.78-.032-2.174l2.487.063a8.8 8.8 0 0 1 1.885.23c3.127.767 5.295 3.051 5.924 6.482Z" class="st5"/><path d="m51.517 29.652 5.725 8.926h-9.366l-3.047-8.913 6.607.042.082-.055Z" class="st0"/><path d="m45.723 20.617 5.794 9.035-.082.055-6.607-.042-3.045-8.908-.16-.464h3.888l.017.026zm2.993 24.599c.019 1.086.048 2.17.078 2.17l-.013.283c-.38 3.37-1.141 5.07-3.894 6.451l-.251.088c-.62.228-1.325.364-2.127.394a11 11 0 0 1-.365.007h-.041c-5.094 0-6.54-5.547-6.54-11.595v-.053h1.266c6.144-.015 11.856-.011 11.856.055v.028s.013 1.088.035 2.174z" class="st0"/><path d="m29.742 29.573 15.087.092 3.047 8.913-11.121.039-3.27.011-18.437.066 6.544-9.27.14.101 8.007.05.002-.002Zm7.741 2.254-9.2-.074s-.865 4.776 3.925 4.816c0 0 4.348.377 5.275-4.741Z" class="st7"/><path d="m42.509 54.608.525 2.987H30.365l.525-2.987.007-.075q.747.075 1.569.075h9.678q.185.002.365-.007z" class="st8"/><path d="M22.445 47.357c-.341-1.364-.486-2.838-.486-4.342 0 0 5.556-.028 11.599-.046q.999-.001 2.003-.007v.053c0 6.048 1.446 11.595 6.54 11.595h-9.637q-.825 0-1.569-.074c-5.072-.493-7.512-3.425-8.452-7.176z" class="st7"/><path d="M41.319 57.595v2.591H32.08v-2.591z" class="st6"/><path d="m34.477 20.952 3.486.357c-.543 1.671-2.237 2.974-3.923 2.961-1.779-.015-2.874-1.489-2.442-3.296.43-1.804 2.224-3.258 4.002-3.245 1.016.009 1.802.49 2.217 1.237l-3.341 1.986Zm-6.196 10.8 9.2.074c-.927 5.118-5.275 4.741-5.275 4.741-4.789-.039-3.925-4.816-3.925-4.816Z" class="st2"/><path d="M36.828 42.662v.296h-1.266q-1.005.001-2.003.007v-.208l-.074-4.027v-.103l3.27-.011v.013l.074 4.032v.002Z" class="st8"/><path d="M22.445 47.357H19.32l-2.492-.064a9 9 0 0 1-1.884-.232c-3.741-.915-6.11-4.003-6.11-8.632V24.464l.037-.252c.642.199 1.323.3 2.029.282a6.2 6.2 0 0 0 1.606-.245l.179.6v12.487c0 4.566 1.348 5.678 6.231 5.678h3.043c0 1.502.145 2.976.486 4.34z" class="st5"/><path d="M17.183 17.833c.067 3.033-1.921 5.63-4.675 6.418a6.3 6.3 0 0 1-1.606.245 6.3 6.3 0 0 1-2.029-.282c-2.58-.799-4.48-3.199-4.545-6.081a6.55 6.55 0 0 1 1.716-4.583l.179.109 2.464 2.51-.186.324c-.29.447-.452.981-.439 1.553.035 1.504 1.269 2.7 2.753 2.665 1.487-.035 2.665-1.285 2.63-2.79a2.73 2.73 0 0 0-.8-1.877l.028-.031 2.861-2.315.035-.031a6.53 6.53 0 0 1 1.612 4.165Z" class="st7"/><path d="m21.594 29.422-6.544 9.272 18.435-.066 3.27-.011 11.121-.039-3.047-8.913-3.045-8.908-.16-.464-.776-2.267-1.521-4.456-2.133-6.241-4.4 6.235-2.993 4.24-1.774 2.51-6.432 9.11Zm19.982-9.13h3.942" class="st3"/><path d="M28.136 20.391c-.065 1.469.3 4.224 2.952 5.324.694.287 1.541.46 2.581.469 5.009.042 7.181-3.6 7.908-5.354m-11.838-2.99.061-.037c.655-.403 6.483-3.782 10.888.28" class="st3"/><path d="M34.038 24.267c1.686.013 3.382-1.29 3.923-2.961l-3.486-.357 3.341-1.986c-.415-.747-1.204-1.229-2.217-1.237-1.779-.013-3.575 1.439-4.003 3.245-.432 1.804.664 3.281 2.442 3.296" class="st4"/><path d="m21.734 29.523 8.007.05 15.087.092 6.607.042" class="st3"/><path d="m29.737 29.582.004-.009 1.282-3.48m5.816 3.494.026-3.493m.618 5.732-9.2-.074s-.865 4.776 3.925 4.816c0 0 4.348.377 5.275-4.741Zm8.046-11.507-.017-.026-8.318-12.964m10.682 31.249h9.366l-5.725-8.926-5.794-9.035M33.485 38.731l.073 4.027m3.196-4.128.074 4.031M8.835 24.464v13.965c0 4.627 2.369 7.717 6.11 8.632a9 9 0 0 0 1.884.232l2.492.064h3.142" class="st3"/><path d="M12.686 24.85v12.487c0 4.566 1.348 5.678 6.231 5.678h2.691m-6.039-29.347a6.53 6.53 0 0 1 1.612 4.165c.067 3.033-1.921 5.63-4.675 6.418a6.3 6.3 0 0 1-1.606.245 6.3 6.3 0 0 1-2.029-.282c-2.58-.799-4.48-3.199-4.545-6.081a6.55 6.55 0 0 1 1.716-4.583" class="st3"/><path d="m12.614 16.011.032.033c.48.48.782 1.143.8 1.877.035 1.504-1.143 2.755-2.63 2.79-1.485.035-2.719-1.161-2.753-2.665a2.7 2.7 0 0 1 .439-1.553m4.171-.48 2.861-2.315m-6.849 2.471-2.464-2.51M58.98 49.818c-.629-3.434-2.796-5.718-5.924-6.482a8.8 8.8 0 0 0-1.885-.23l-2.487-.063s.013 1.088.035 2.174c.02 1.086.048 2.17.078 2.17l.004-.004c3.661 0 5.409.438 6.019 2.678" class="st3"/><path d="M52.431 60.553a6.52 6.52 0 0 1-1.61-4.165 6.515 6.515 0 0 1 4.048-6.204 6.3 6.3 0 0 1 2.23-.46 6.3 6.3 0 0 1 1.841.23c2.673.736 4.666 3.184 4.733 6.136a6.54 6.54 0 0 1-1.716 4.581" class="st3"/><path d="M55.388 58.21s-.022-.02-.03-.031a2.74 2.74 0 0 1-.802-1.879c-.035-1.504 1.143-2.755 2.63-2.79 1.485-.033 2.719 1.161 2.753 2.665a2.73 2.73 0 0 1-.437 1.553m-4.175.48-2.861 2.315m6.849-2.471 2.466 2.51M48.697 45.736c.009-.16.015-.337.02-.521.013-.812-.03-1.78-.033-2.175v-.028c0-.066-5.714-.07-11.856-.055h-1.266q-1.005.001-2.003.007c-6.045.018-11.599.046-11.599.046 0 1.504.145 2.978.486 4.342.94 3.753 3.38 6.683 8.452 7.176q.747.074 1.569.074h9.678m-.001.006q.185.002.365-.007c.802-.031 1.506-.166 2.127-.394" class="st3"/><path d="M42.103 54.608c-5.094 0-6.54-5.547-6.54-11.595m-4.674 11.595-.523 2.987h6.613" class="st3"/><path d="M36.867 60.185H32.08v-2.591m10.429-2.986.525 2.987h-6.056" class="st3"/><path d="M36.867 60.185h4.452v-2.591m3.568-3.475c2.755-1.38 3.516-3.081 3.894-6.451M32.867 13.616h6.33" class="st3"/></svg>