<?xml version="1.0" encoding="utf-8"?>
<!-- Generator: Adobe Illustrator 28.1.0, SVG Export Plug-In . SVG Version: 6.00 Build 0)  -->
<svg version="1.1" id="Layer_1" xmlns="http://www.w3.org/2000/svg" xmlns:xlink="http://www.w3.org/1999/xlink" x="0px" y="0px"
	 viewBox="0 0 68 68" style="enable-background:new 0 0 68 68;" xml:space="preserve">
<style type="text/css">
	.st0{fill:#FFFAF0;}
	.st1{fill:#00B268;}
	.st2{fill:none;stroke:#002140;stroke-width:0.999;stroke-linecap:round;stroke-linejoin:round;}
</style>
<path class="st0" d="M57.722,15.048l-3.24,4.209h-8.275H31.365h-8.248v-4.209H57.722z"/>
<path class="st0" d="M52.97,24.679V40.03c0,1.359-0.759,2.075-2.085,2.085H27.169c-1.325-0.013-2.085-0.726-2.085-2.085V24.679
	c0-1.272,0.666-1.981,1.842-2.075h0.316h1.645l19.797-0.01h2.201C52.211,22.604,52.97,23.32,52.97,24.679z"/>
<path class="st1" d="M51.082,26.177v12.351c0,1.175-0.659,1.792-1.805,1.802H28.778c-1.146-0.01-1.801-0.626-1.801-1.802V26.177
	c0-1.102,0.576-1.712,1.595-1.795h0.273l20.436-0.01c1.146,0.01,1.805,0.629,1.805,1.805H51.082z"/>
<path class="st0" d="M46.037,34.845l-1.422-0.013V33.17h2.128c0.972,0,0.972-1.608,0-1.608c-1.778,0-2.704-1.209-2.704-2.581
	c0-1.372,0.859-2.284,2.001-2.284v-1.175h1.692v1.116h1.142v1.662h-2.128c-0.976,0-0.976,1.608,0,1.608
	c1.778,0,2.704,1.325,2.704,2.344c0,1.399-0.576,2.461-1.715,2.461v1.185H46.04v-1.042L46.037,34.845z"/>
<path class="st0" d="M49.03,37.453h-20.01v1.778h20.01V37.453z"/>
<path class="st0" d="M38.324,34.845l-1.422-0.013V33.17h2.128c0.972,0,0.972-1.608,0-1.608c-1.778,0-2.704-1.209-2.704-2.581
	c0-1.372,0.859-2.284,2.001-2.284v-1.175h1.692v1.116h1.142v1.662h-2.128c-0.976,0-0.976,1.608,0,1.608
	c1.778,0,2.704,1.325,2.704,2.344c0,1.399-0.576,2.461-1.715,2.461v1.185h-1.695v-1.042L38.324,34.845z"/>
<path class="st0" d="M30.616,34.845l-1.422-0.013V33.17h2.128c0.972,0,0.972-1.608,0-1.608c-1.778,0-2.704-1.209-2.704-2.581
	c0-1.372,0.859-2.284,2.001-2.284v-1.175h1.692v1.116h1.142v1.662h-2.128c-0.976,0-0.976,1.608,0,1.608
	c1.778,0,2.704,1.325,2.704,2.344c0,1.399-0.576,2.461-1.715,2.461v1.185h-1.695v-1.042L30.616,34.845z"/>
<path class="st0" d="M23.117,19.257V56.9h-5.931V19.257v-4.209v-2.081l2.967-2.467l2.964,2.467v2.081V19.257z"/>
<path class="st0" d="M17.186,15.048v4.209h-3.447l-3.24-4.209H17.186z"/>
<path class="st2" d="M17.186,12.967v2.081v4.209V56.9"/>
<path class="st2" d="M23.116,12.967v2.081v4.209V56.9"/>
<path class="st2" d="M57.722,15.048H23.116"/>
<path class="st2" d="M23.116,19.257h8.248h14.842h8.275"/>
<path class="st2" d="M17.186,15.048h-6.687"/>
<path class="st2" d="M13.739,19.258h3.446"/>
<path class="st2" d="M17.186,56.9h5.931"/>
<path class="st2" d="M23.117,12.967L20.153,10.5"/>
<path class="st2" d="M17.186,12.967l2.967-2.467"/>
<path class="st2" d="M13.739,19.257l-3.24-4.209"/>
<path class="st2" d="M54.482,19.257l3.24-4.209"/>
<path class="st2" d="M25.081,24.679V40.03"/>
<path class="st2" d="M27.243,22.604h1.645l19.797-0.01l2.201-0.003"/>
<path class="st2" d="M25.081,24.679c0-1.272,0.666-1.981,1.842-2.075c0.08-0.007,0.16-0.01,0.243-0.01"/>
<path class="st2" d="M52.97,24.679c0-1.359-0.759-2.075-2.084-2.085"/>
<path class="st2" d="M25.081,40.03c0,1.359,0.759,2.075,2.085,2.085"/>
<path class="st2" d="M52.97,40.03c0,1.359-0.759,2.075-2.084,2.085"/>
<path class="st2" d="M27.169,42.114h23.716"/>
<path class="st2" d="M52.97,40.03V24.679"/>
<path class="st2" d="M28.887,22.591l2.478-3.333"/>
<path class="st2" d="M48.684,22.591l-2.478-3.333"/>
</svg>
