<svg xmlns="http://www.w3.org/2000/svg" id="Layer_1" viewBox="0 0 68 68"><defs><style>.st0{fill:#f25730}.st1{fill:#fffaf0}.st2{fill:#8dc8ff}.st3{fill:#002140}.st4{fill:#fed607}.st5{fill:none;stroke:#002140;stroke-linecap:round;stroke-linejoin:round;stroke-width:1px}</style></defs><path d="M55.318 12.682c.223 2.959-.46 6.005-2.431 8.732-2.096-.915-5.344-4.201-6.302-6.292 2.728-1.976 5.773-2.659 8.737-2.44z" class="st0"/><path d="m37.728 36.731-1.581 1.572c-.052.052-.331-.133-.743-.477-1.323-1.104-4.038-3.814-5.181-5.176-.374-.442-.58-.739-.524-.795l1.572-1.585 4.811-4.849 8.832-8.887a15 15 0 0 1 1.671-1.417c.958 2.092 4.205 5.378 6.302 6.293a14 14 0 0 1-1.417 1.675l-8.892 8.827-4.85 4.815zm.622-5.321c1.761-1.761 0-3.522-1.761-1.761l-2.973 2.972 1.761 1.761z" class="st1"/><path d="M42.573 31.916c2.766 2.577 3.411 5.541 1.808 8.904-.589 1.031-1.035 1.529-2.165.399l-4.493-4.493 4.85-4.815v.004Zm-5.984-2.267c1.765-1.761 3.527 0 1.761 1.761l-2.973 2.972a325 325 0 0 0-1.761-1.761zm-.506-4.223-4.811 4.849-.047-.047-4.497-4.497c-1.13-1.125-.631-1.576.399-2.16 3.363-1.602 6.323-.958 8.905 1.804z" class="st0"/><path d="M35.399 37.827q-.94 1-1.856.365a25 25 0 0 1-3.69-3.689 2 2 0 0 1-.103-.18c-.271-.571-.116-1.125.46-1.671 1.147 1.357 3.858 4.072 5.181 5.176h.009Z" class="st3"/><path d="M26.009 38.965q-.213-.246-.425-.498c-.305-.369-.541-.739-.627-1.078-.112-.421 0-.795.473-1.057l4.274-1.98.052-.03q.045.09.103.18a25 25 0 0 0 3.69 3.689l-1.98 4.274c-.266.472-.636.584-1.057.472-.339-.086-.709-.322-1.078-.627q-.27-.22-.533-.447a28 28 0 0 1-2.887-2.895l-.004-.004Z" class="st2"/><path d="m30.507 42.938-.009.039c-.528 4.235-4.081 7.525-9.223 10.326l1.254-2.607c-2.942 1.817-6.289 3.329-9.884 4.656q1.56-5.076 4.609-10.145l-2.895 1.456c2.891-5.274 6.272-8.844 10.554-9.265l.039-.009c.086.339.322.709.627 1.078.142.167.279.335.425.498-1.237.876-2.431 2.397-3.561 4.854-.743 1.533-1.516 2.959-2.586 4.141 1.383-1.018 2.758-1.722 4.124-2.358 2.045-.881 3.583-2.191 4.88-3.702l.03-.034c.176.155.357.305.533.447.369.305.739.541 1.078.627h.004Z" class="st0"/><path d="m28.896 41.86-.03.034c-1.302 1.512-2.839 2.822-4.88 3.703-1.366.636-2.741 1.34-4.124 2.358 1.07-1.177 1.843-2.607 2.586-4.14 1.134-2.461 2.324-3.982 3.561-4.854a28 28 0 0 0 2.887 2.895z" class="st4"/><path d="M55.318 12.683c.223 2.959-.46 6.005-2.431 8.732a14 14 0 0 1-1.418 1.675M36.147 38.303l1.581-1.572 4.846-4.815 8.892-8.827m3.852-10.406c-2.96-.223-6.01.46-8.737 2.44q-.858.618-1.671 1.418M29.695 31.856l1.572-1.585 4.815-4.845 8.827-8.891m-8.762 21.769c-.052.052-.331-.133-.743-.477-1.323-1.104-4.038-3.814-5.181-5.176-.374-.442-.58-.739-.524-.795m5.679 2.526a325 325 0 0 0-1.761-1.761m-3.759 1.881a25.2 25.2 0 0 0 3.69 3.69" class="st5"/><path d="M33.548 38.192c.606.425 1.229.301 1.856-.365m-5.546-3.325a2 2 0 0 1-.103-.18c-.271-.571-.116-1.125.46-1.671m22.667-11.236c-2.096-.915-5.344-4.201-6.302-6.292q.001-.006-.004-.013M33.548 38.192l-1.985 4.274m0 0c-.266.472-.636.584-1.057.472-.339-.086-.709-.322-1.078-.627m.276-7.959-4.274 1.976m0 0c-.473.266-.584.636-.473 1.057.086.339.322.709.627 1.078m3.844 3.848q-.27-.22-.533-.447a28 28 0 0 1-2.887-2.895 43 43 0 0 1-.425-.498m9.795-4.089 2.973-2.972m-4.734 1.211 2.973-2.972m1.76 1.761c1.761-1.761 0-3.522-1.761-1.761m1.134 7.078.004.004 4.489 4.493m2.166-.399c1.602-3.367.958-6.327-1.808-8.904" class="st5"/><path d="M42.217 41.224c1.13 1.125 1.576.631 2.165-.4m-13.162-10.6-4.498-4.497m.404-2.16c3.363-1.602 6.323-.958 8.905 1.804m-9.309.356c-1.13-1.125-.632-1.576.399-2.16m3.377 19.41c-.528 4.235-4.081 7.525-9.223 10.326m-6.916-6.641c2.891-5.274 6.272-8.844 10.554-9.265m-3.638 15.905 1.254-2.603m-5.274-5.493-2.895 1.456m8.17 4.038c-2.942 1.817-6.289 3.329-9.884 4.656m4.609-10.15c-2.036 3.38-3.574 6.765-4.609 10.145m16.22-13.452c-1.302 1.512-2.839 2.822-4.88 3.702m-1.542-1.782c1.134-2.461 2.324-3.982 3.561-4.854.013-.009.03-.017.039-.03m-2.062 6.666c-1.366.636-2.741 1.34-4.124 2.358" class="st5"/><path d="M22.444 43.819c-.743 1.533-1.516 2.959-2.586 4.141" class="st5"/></svg>