<svg width="97" height="96" viewBox="0 0 97 96" fill="none" xmlns="http://www.w3.org/2000/svg">
<path d="M29.2957 75.9774L34.0887 73.7742L38.7527 76.6277L43.9383 73.9031L49.1239 76.7567L53.4013 74.2957L58.5868 76.7567L62.8642 73.7742L67.5283 76.2352C67.5283 76.2352 66.4912 67.5515 66.4912 66.6433C66.4912 65.7351 68.6943 41.3717 68.4365 35.9283C68.1787 30.4849 66.4912 19.9849 66.4912 19.9849L61.1767 22.5747L55.4755 19.8501L51.4559 22.1821L45.4911 19.4575L41.8641 22.1821L36.2918 19.3286L32.6648 22.5689L27.4792 20.1079C27.4792 20.1079 30.2039 29.0494 29.4246 39.6783C28.6453 50.3073 26.6999 70.2644 29.2957 75.9715V75.9774Z" fill="#E5FAFE"/>
<path d="M30.2686 9.42627H19.9033" stroke="#008C59" stroke-width="3" stroke-linecap="round" stroke-linejoin="round"/>
<path d="M19.9033 9.55518V19.9205" stroke="#008C59" stroke-width="3" stroke-linecap="round" stroke-linejoin="round"/>
<path d="M65.0024 9.42627H75.3736" stroke="#008C59" stroke-width="3" stroke-linecap="round" stroke-linejoin="round"/>
<path d="M75.3743 9.55518V19.9205" stroke="#008C59" stroke-width="3" stroke-linecap="round" stroke-linejoin="round"/>
<path d="M30.2686 86.3485H19.9033" stroke="#008C59" stroke-width="3" stroke-linecap="round" stroke-linejoin="round"/>
<path d="M19.9033 86.2195V75.8484" stroke="#008C59" stroke-width="3" stroke-linecap="round" stroke-linejoin="round"/>
<path d="M65.0024 86.3485H75.3736" stroke="#008C59" stroke-width="3" stroke-linecap="round" stroke-linejoin="round"/>
<path d="M75.3743 86.2195V75.8484" stroke="#008C59" stroke-width="3" stroke-linecap="round" stroke-linejoin="round"/>
<path d="M27.4211 19.7505C33.2513 31.2115 24.8957 66.866 28.9739 76.6278" stroke="#002140" stroke-linecap="round" stroke-linejoin="round"/>
<path d="M66.3037 19.7505C72.1338 31.2115 63.7783 66.866 67.8565 76.6278" stroke="#002140" stroke-linecap="round" stroke-linejoin="round"/>
<path d="M28.9741 76.6278L34.107 73.4227L39.2457 76.663L43.9449 73.3231L49.0953 76.9208L53.4254 73.5692L58.4762 76.7977L62.6071 73.2587L67.8571 76.6278" stroke="#002140" stroke-linecap="round" stroke-linejoin="round"/>
<path d="M66.3042 19.7506L61.0717 22.6041L55.933 19.3698L51.2338 22.7096L46.0834 19.1119L41.7533 22.4577L36.7024 19.235L32.5716 22.7741L27.3215 19.4049" stroke="#002140" stroke-linecap="round" stroke-linejoin="round"/>
<path d="M35.0967 30.2565H37.4404" stroke="#002140" stroke-linecap="round" stroke-linejoin="round"/>
<path d="M41.946 30.2565H57.7196" stroke="#002140" stroke-linecap="round" stroke-linejoin="round"/>
<path d="M59.9751 30.2565H62.3189" stroke="#002140" stroke-linecap="round" stroke-linejoin="round"/>
<path d="M34.5166 67.2H36.8604" stroke="#002140" stroke-linecap="round" stroke-linejoin="round"/>
<path d="M41.3657 67.2H57.1334" stroke="#002140" stroke-linecap="round" stroke-linejoin="round"/>
<path d="M59.3892 67.2H61.7329" stroke="#002140" stroke-linecap="round" stroke-linejoin="round"/>
<path d="M35.876 39.1041H58.9152" stroke="#002140" stroke-linecap="round" stroke-linejoin="round"/>
<path d="M35.876 48.532H58.9152" stroke="#002140" stroke-linecap="round" stroke-linejoin="round"/>
<path d="M36.5557 58.5458H47.2491" stroke="#002140" stroke-linecap="round" stroke-linejoin="round"/>
<path d="M83.1842 46.2819H13.1936V52.112H83.1842V46.2819Z" fill="#03D47C"/>
<path d="M82.7101 46.4108H14.114C13.5153 46.4108 13.03 46.8961 13.03 47.4948V51.192C13.03 51.7907 13.5153 52.276 14.114 52.276H82.7101C83.3088 52.276 83.7941 51.7907 83.7941 51.192V47.4948C83.7941 46.8961 83.3088 46.4108 82.7101 46.4108Z" stroke="#002140" stroke-linecap="round" stroke-linejoin="round"/>
</svg>
