<?xml version="1.0" encoding="utf-8"?>
<!-- Generator: Adobe Illustrator 27.3.1, SVG Export Plug-In . SVG Version: 6.00 Build 0)  -->
<svg version="1.1" id="Layer_1" xmlns="http://www.w3.org/2000/svg" xmlns:xlink="http://www.w3.org/1999/xlink" x="0px" y="0px"
	 viewBox="0 0 60 60" style="enable-background:new 0 0 60 60;" xml:space="preserve">
<style type="text/css">
	.st0{fill:#5CDCA4;}
	.st1{fill:#EC572F;}
	.st2{fill:none;stroke:#002140;stroke-linecap:round;stroke-linejoin:round;}
	.st3{fill:#048659;}
</style>
<path class="st0" d="M11,32.7c0,0-5-7-3.1-11.4c1.9-4.3,4.6-11.2,17.4-11.3C38.1,10,42.1,21.9,41.5,25.9c-0.7,4-6.2,10.7-12.6,11.7
	s-9.4-0.1-9.4-0.1S13.4,41,7.1,39.1C7.1,39.1,10.3,35.1,11,32.7L11,32.7z"/>
<path class="st1" d="M41,21c0,0,1.8,9-4.7,13.2c-5.6,3.3-8.5,4.3-16,3.8c0,0,0.7,4.6,5.8,7.6c5.1,3,11.7,3.7,14.7,2.3
	c0,0,8.5,2.9,12.5,1.4c0,0-3.9-5.1-3.8-6.7c0,0,4.5-4.2,3.3-10S45.8,21.3,41,21L41,21z"/>
<path class="st2" d="M11,32.5c-2.1-2.3-3.3-5.2-3.3-8.4c0-7.8,7.5-14.1,16.8-14.1s16.8,6.3,16.8,14.1s-7.5,14.1-16.8,14.1
	c-1.6,0-3.1-0.2-4.6-0.5"/>
<path class="st2" d="M11,32.5c-0.4,3.3-4,6.7-4,6.7s8.9,0.9,12.9-1.5"/>
<path class="st2" d="M19.9,37.7c1.8,6.2,8.4,10.7,16.4,10.7c1.6,0,3.1-0.2,4.6-0.5"/>
<path class="st2" d="M49.8,42.7c2.1-2.3,3.3-5.2,3.3-8.4c0-6.3-5-11.7-11.8-13.5"/>
<path class="st2" d="M49.8,42.7c0.4,3.3,4,6.7,4,6.7s-8.9,0.9-12.9-1.5"/>
<path class="st3" d="M17.5,27.2c1.3,0,2.3-1,2.3-2.3c0-1.3-1-2.3-2.3-2.3c-1.3,0-2.3,1-2.3,2.3C15.2,26.2,16.2,27.2,17.5,27.2z"/>
<path class="st3" d="M24.6,27.2c1.3,0,2.3-1,2.3-2.3c0-1.3-1-2.3-2.3-2.3c-1.3,0-2.3,1-2.3,2.3C22.3,26.2,23.3,27.2,24.6,27.2z"/>
<path class="st3" d="M31.7,27.2c1.3,0,2.3-1,2.3-2.3c0-1.3-1-2.3-2.3-2.3c-1.3,0-2.3,1-2.3,2.3C29.4,26.2,30.4,27.2,31.7,27.2z"/>
</svg>
