<?xml version="1.0" encoding="utf-8"?>
<!-- Generator: Adobe Illustrator 27.3.1, SVG Export Plug-In . SVG Version: 6.00 Build 0)  -->
<svg version="1.1" id="Layer_1" xmlns="http://www.w3.org/2000/svg" xmlns:xlink="http://www.w3.org/1999/xlink" x="0px" y="0px"
	 viewBox="0 0 68 68" style="enable-background:new 0 0 68 68;" xml:space="preserve">
<style type="text/css">
	.st0{fill:#FFFAF0;}
	.st1{fill:#FFED8F;}
	.st2{fill:#E4BC07;}
	.st3{fill:#D18000;}
	.st4{fill:#0164BF;}
	.st5{fill:#0185FF;}
	.st6{fill:#F25730;}
	.st7{fill:none;stroke:#002140;stroke-linecap:round;stroke-linejoin:round;}
</style>
<path class="st0" d="M24.5,27.1v11h-3.7v-9.6c0-0.9,0.4-1.4,1.4-1.4H24.5z"/>
<path class="st1" d="M28.9,24.7v13.4h-4.5V26.3c0-0.9,0.5-1.6,1.5-1.6H28.9z"/>
<path class="st2" d="M28.9,22.7v2H26c-1.1,0-1.5,0.7-1.5,1.6v0.8h-2.3c-1,0-1.4,0.5-1.4,1.4v9.6h-2.7V24.5c0-1.5,0.7-2.4,2.4-2.4
	h8.4C28.9,22.3,28.9,22.5,28.9,22.7L28.9,22.7z"/>
<path class="st3" d="M43,40.7v22.8c0,1.3-0.3,2-1.9,1.9h-2.6V40.7H43z"/>
<path class="st3" d="M38.5,40.7v24.7h-1.2c-1.6,0-1.9-0.7-1.9-1.9V40.7H38.5z"/>
<path class="st4" d="M28.9,22.1h-8.4c-1.7,0-2.4,0.9-2.4,2.4v13.6h-2.8V22.7c0-4.1,3.4-6.1,6.8-6.1S28.6,18.4,28.9,22.1L28.9,22.1z"
	/>
<path class="st5" d="M28.9,38.1v2.6H8.1c-2,0-2-2.6,0-2.6H28.9z"/>
<path class="st5" d="M28.9,22.1c-0.3-3.7-3.5-5.5-6.8-5.5h12.7V31c0,0.8,0.4,1.3,1.3,1.3h3.3c0.9,0,1.5-0.5,1.5-1.4v-2.9
	c0-0.9-0.5-1.5-1.5-1.5h-1.9v-10h13.9c3.3,0.1,6.6,2.1,6.6,6.1v18H28.9v-18C28.9,22.5,28.9,22.3,28.9,22.1L28.9,22.1z"/>
<path class="st6" d="M37.7,30.7c0.6,0,1.2-0.5,1.2-1.2c0-0.6-0.5-1.2-1.2-1.2s-1.2,0.5-1.2,1.2C36.6,30.2,37.1,30.7,37.7,30.7z"/>
<path class="st6" d="M44.1,9.8l0,1.5c0,1.1-0.5,1.8-1.8,1.8h-3.2c-1.1,0-1.6,0.6-1.6,1.6v12h1.9c0.9,0,1.4,0.6,1.5,1.5V31
	c0,0.9-0.5,1.4-1.5,1.4h-3.3c-0.9,0-1.3-0.5-1.3-1.3V10.6c0-1.5,0.9-2.6,2.6-2.6h4.9C43.4,8,44.1,8.6,44.1,9.8z M38.9,29.6
	c0-0.6-0.5-1.2-1.2-1.2c-0.6,0-1.2,0.5-1.2,1.2c0,0.6,0.5,1.2,1.2,1.2C38.4,30.7,38.9,30.2,38.9,29.6z"/>
<path class="st7" d="M58,40.7H43h-4.6h-3.1h-6.4H8.1"/>
<path class="st7" d="M28.9,38.1h-4.5h-3.7h-2.7h-2.8H8.1"/>
<path class="st7" d="M8.1,38.1c-2,0-2,2.6,0,2.6"/>
<path class="st7" d="M28.9,40.7v-2.6V24.7v-2"/>
<path class="st7" d="M15.3,38.1V22.7"/>
<path class="st7" d="M28.9,22.7c0-0.2,0-0.4,0-0.6c-0.3-3.7-3.5-5.5-6.8-5.5c-3.4,0-6.8,2-6.8,6.1"/>
<path class="st7" d="M58,40.7v-18"/>
<path class="st7" d="M58,22.7c0-4-3.3-6-6.6-6.1"/>
<path class="st7" d="M34.8,16.6H22.1"/>
<path class="st7" d="M51.4,16.6H37.5"/>
<path class="st7" d="M24.5,26.3v0.8v11"/>
<path class="st7" d="M20.8,28.5v9.6"/>
<path class="st7" d="M24.5,26.3c0-0.9,0.5-1.6,1.5-1.6"/>
<path class="st7" d="M20.8,28.5c0-0.9,0.4-1.4,1.4-1.4"/>
<path class="st7" d="M18.1,38.1V24.5"/>
<path class="st7" d="M26,24.7h2.9"/>
<path class="st7" d="M22.2,27.1h2.3"/>
<path class="st7" d="M18.1,24.5c0-1.5,0.7-2.4,2.4-2.4"/>
<path class="st7" d="M35.3,40.7v22.8"/>
<path class="st7" d="M20.5,22.1h8.4h0"/>
<path class="st7" d="M34.8,31V16.6v-6"/>
<path class="st7" d="M37.5,26.6v-10v-2"/>
<path class="st7" d="M35.3,63.5c0,1.3,0.3,2,1.9,1.9"/>
<path class="st7" d="M43,40.7v22.8"/>
<path class="st7" d="M43,63.5c0,1.3-0.3,2-1.9,1.9"/>
<path class="st7" d="M37.3,65.4h1.2h2.6"/>
<path class="st7" d="M38.5,40.7v24.7"/>
<path class="st7" d="M34.8,10.6c0-1.5,0.9-2.6,2.6-2.6"/>
<path class="st7" d="M37.5,14.7c0-1,0.5-1.6,1.6-1.6"/>
<path class="st7" d="M36.1,32.4h3.3"/>
<path class="st7" d="M40.8,31v-2.8"/>
<path class="st7" d="M39.4,26.6h-1.9"/>
<path class="st7" d="M39.4,26.6c0.9,0,1.4,0.6,1.5,1.5"/>
<path class="st7" d="M39.4,32.4c0.9,0,1.5-0.5,1.5-1.4"/>
<path class="st7" d="M36.1,32.4c-0.9,0-1.3-0.5-1.3-1.3"/>
<path class="st7" d="M39.1,13.1h3.2"/>
<path class="st7" d="M37.4,8h4.9"/>
<path class="st7" d="M42.3,13.1c1.3,0,1.8-0.7,1.8-1.8"/>
<path class="st7" d="M42.3,8c1.1,0,1.8,0.6,1.8,1.8"/>
<path class="st7" d="M44.1,11.3l0-1.5"/>
<path class="st7" d="M37.7,30.7c0.6,0,1.2-0.5,1.2-1.2c0-0.6-0.5-1.2-1.2-1.2s-1.2,0.5-1.2,1.2C36.6,30.2,37.1,30.7,37.7,30.7z"/>
</svg>
