<svg xmlns="http://www.w3.org/2000/svg" xml:space="preserve" id="Layer_1" x="0" y="0" viewBox="0 0 68 68"><style>.st0{fill:#28736d}.st0,.st1,.st2,.st3{stroke:#002140;stroke-linecap:round;stroke-linejoin:round}.st1{fill:#4ed7de}.st2{fill:#4ba6a6}.st3{fill:#50eef6}</style><path d="M34.14 59.879c2.546-4.389 4.742-5.08 10.928-7.472 9.438-3.652 11.615-10.851 6.523-20.565-2.949-7.783 4.607-12.406 4.607-12.406L44.104 8.405s-1.363 3.997-4.742 4.151c-4.085.188-5.36-3.202-5.36-3.202h-.05s-.944 3.321-5.034 3.321c-3.026 0-5.084-3.974-5.084-3.974L12.012 19.436s7.215 4.98 4.266 12.406c-4.396 9.994-3.578 16.146 6.546 20.6 5.153 2.265 9.05 3.049 11.25 7.46z" class="st0"/><path d="M34.121 53.052c1.632-2.569 4.404-3.033 8.324-4.765 7.702-3.41 8.324-8.121 4.98-15.773-2.488-6.646 2.88-10.874 2.88-10.874l-7.311-6.846s-1.321 2.569-4.435 2.569c-3.11 0-4.492-1.762-4.492-1.762h-.038s-1.34 1.912-4.454 1.912-4.569-2.718-4.569-2.718l-7.311 6.846s5.368 4.227 2.88 10.874c-3.344 7.652-2.722 12.363 4.98 15.773 3.916 1.735 6.827 2.549 8.559 4.834l.019-.065z" class="st1"/><path d="M34.121 53.052c1.632-2.569 4.404-3.033 8.324-4.765 7.702-3.41 8.324-8.121 4.98-15.773-2.488-6.646 2.88-10.874 2.88-10.874l-7.311-6.846s-1.321 2.569-4.435 2.569c-3.11 0-4.492-1.762-4.492-1.762h-.038s.077 27.031.077 37.524l.019-.065z" class="st2"/><path d="m35.491 23.218 2.223 4.504c.188.376.549.641.964.703l4.968.722c1.052.154 1.471 1.444.71 2.185l-3.598 3.506a1.27 1.27 0 0 0-.369 1.133l.849 4.949c.18 1.048-.918 1.843-1.858 1.352l-4.446-2.338a1.29 1.29 0 0 0-1.194 0l-4.446 2.338c-.941.495-2.039-.303-1.858-1.352l.848-4.949a1.27 1.27 0 0 0-.369-1.133l-3.598-3.506c-.76-.741-.342-2.031.71-2.185l4.969-.722c.419-.061.779-.323.964-.703l2.223-4.504c.468-.952 1.828-.952 2.296 0z" class="st3"/></svg>