<svg xmlns="http://www.w3.org/2000/svg" width="48" height="48" fill="none" viewBox="0 0 48 48"><path fill="#fed607" d="M26.188 15.662c0 .423-.084.828-.231 1.201v.05a56 56 0 0 0-5.912.063v-.012a3.2 3.2 0 0 1-.272-1.302v-.094a3.213 3.213 0 0 1 3.208-3.124c1.741 0 3.207 1.44 3.207 3.218M22.98 3.689c1.77 0 3.208 1.44 3.208 3.218a3.21 3.21 0 0 1-3.207 3.219 3.21 3.21 0 0 1-3.208-3.219 3.21 3.21 0 0 1 3.208-3.218"/><path fill="#002140" d="M24.2 3.689a3.213 3.213 0 0 1 3.207 3.218 3.21 3.21 0 0 1-3.207 3.219h-1.22c1.77 0 3.208-1.44 3.208-3.219A3.21 3.21 0 0 0 22.98 3.69zm0 8.758a3.21 3.21 0 0 1 3.191 2.926q.016.147.016.292c0 .464-.097.904-.272 1.302v.01q-.592-.037-1.179-.064v-.05c.15-.37.232-.774.232-1.201a3.213 3.213 0 0 0-3.207-3.218H24.2zm14.437 10.452c.087.473-.053.897-.316.947-.26.05-.544-.295-.631-.769-.091-.476.05-.897.312-.95.263-.05.544.295.635.772m-2.989.307c.087.474-.054.897-.316.947-.26.05-.544-.295-.632-.768-.09-.477.05-.897.313-.95.263-.05.544.294.635.77m5.61 5.076c.36 0 .647.58.647 1.296 0 .715-.287 1.295-.647 1.295s-.644-.58-.644-1.295.288-1.296.644-1.296m-2.622 0c.36 0 .647.58.647 1.296 0 .715-.287 1.295-.647 1.295s-.644-.58-.644-1.295.288-1.296.644-1.296m-6.427 9.869v1.408c0 1.634-5.127 1.634-5.127 0V38.15c0 1.634 5.127 1.634 5.127 0m-11.291 0v1.408c0 1.634-5.127 1.634-5.127 0V38.15c0 1.634 5.127 1.634 5.127 0"/><path fill="#f68dfe" d="M9.204 26.672q0 .132.003.264h-.003s-1.244.476-2.439-.066a2.16 2.16 0 0 1-.975-.847 2.34 2.34 0 0 1-.284-1.6c.053-.295.19-.552.387-.756.291-.301.71-.477 1.176-.458.781.025 1.353.662 1.366 1.189.012.527-.157.944-.613 1.13.375.071.841.056 1.379-.057l.062.006q-.061.583-.062 1.195z"/><path fill="#f68dfe" d="M4.783 22.159c.497-.436 1.035 0 .87.561-.154.518.19.894.24.95a1.44 1.44 0 0 0-.387.756 2.35 2.35 0 0 0 .284 1.6c-.978-.436-1.32-1.355-1.422-2.02-.104-.665.09-1.559.415-1.844z"/><path fill="#fbccff" d="M31.08 27.547c1.004 0 1.82.816 1.82 1.826a1.818 1.818 0 1 1-3.635 0c0-1.007.812-1.826 1.816-1.826"/><path fill="#f68dfe" d="M39.368 16.346c1.76.326 1.685 1.506 1.466 2.352-.219.85-.982 2.162-1.47 2.977-1.181-2.355-3.213-4.137-5.676-5.166 2.031-.276 4.085-.417 5.683-.163z"/><path fill="#f68dfe" d="m40.405 25.217-.047.298c3.758.62 3.59 8.162-.51 8.162h-1.587c-1.417 1.778-3.47 3.03-6.056 3.692v.778c0 1.634-5.126 1.634-5.126 0v-.236c-2.154.066-4.308.094-6.165 0v.236c0 1.634-5.127 1.634-5.127 0v-1.202c-3.83-1.603-6.487-5.42-6.584-10.012Q9.2 26.8 9.2 26.669c0-.408.022-.803.063-1.195.556-5.502 4.948-9.379 10.5-9.91h.01v.095c0 .464.097.903.272 1.302v.012a55 55 0 0 1 7.087 0v-.01a3.2 3.2 0 0 0 .256-1.593h.016c1.087.044 2.107.123 2.957.248 1.163.154 2.282.455 3.323.891 2.467 1.029 4.495 2.81 5.677 5.166a10.6 10.6 0 0 1 1.044 3.542m1.5 4.357c0-.716-.287-1.296-.646-1.296s-.644.58-.644 1.296c0 .715.287 1.295.644 1.295.356 0 .647-.58.647-1.295m-2.622 0c0-.716-.288-1.296-.647-1.296s-.644.58-.644 1.296c0 .715.287 1.295.644 1.295.356 0 .647-.58.647-1.295m-.96-5.728c.263-.05.404-.474.316-.947-.09-.477-.372-.822-.635-.772-.262.05-.403.474-.312.95.087.474.372.82.631.769m-2.992.307c.263-.05.404-.473.316-.947-.09-.477-.372-.822-.634-.772-.263.05-.404.474-.313.95.087.474.372.82.631.77M32.9 29.37a1.818 1.818 0 1 0-3.636 0 1.817 1.817 0 1 0 3.636 0"/><path stroke="#002140" stroke-linecap="round" stroke-linejoin="round" d="M36.592 25.47h3.26m-3.26 8.207h3.26m.001-8.207q.265.002.51.045c3.757.62 3.588 8.162-.51 8.162M22.98 3.689c1.77 0 3.208 1.44 3.208 3.218a3.21 3.21 0 0 1-3.207 3.219 3.21 3.21 0 0 1-3.208-3.219 3.21 3.21 0 0 1 3.208-3.218"/><path stroke="#002140" stroke-linecap="round" stroke-linejoin="round" d="M24.2 3.689a3.213 3.213 0 0 1 3.207 3.218 3.21 3.21 0 0 1-3.208 3.219m-1.219 0h1.22m-1.22-6.437h1.22m-4.155 13.275a3.2 3.2 0 0 1-.272-1.302v-.094a3.213 3.213 0 0 1 3.208-3.124c1.741 0 3.207 1.44 3.207 3.218 0 .423-.084.828-.231 1.201"/><path stroke="#002140" stroke-linecap="round" stroke-linejoin="round" d="M24.2 12.447a3.21 3.21 0 0 1 3.191 2.926q.016.147.016.292c0 .464-.097.904-.272 1.302m-4.155-4.52h1.22m-8.41 24.501c-3.829-1.603-6.486-5.42-6.583-10.012q-.004-.132-.003-.264c0-.408.022-.803.063-1.195.556-5.502 4.948-9.379 10.5-9.91m18.494 18.11c-1.416 1.778-3.47 3.03-6.055 3.692m-1.842-21.751c1.163.154 2.282.455 3.323.89 2.467 1.03 4.496 2.811 5.677 5.167a10.6 10.6 0 0 1 1.07 3.796M27.407 15.37c1.088.044 2.107.123 2.957.248m-9.447 22.297c1.857.094 4.01.065 6.165 0m-11.291 1.643v-2.61m5.126 2.61v-1.643m-5.126 1.643c0 1.634 5.127 1.634 5.127 0"/><path stroke="#002140" stroke-linecap="round" stroke-linejoin="round" d="M15.791 38.15c0 1.634 5.127 1.634 5.127 0m6.164 1.408v-1.643m5.127 1.643V37.4m-5.127 2.158c0 1.634 5.127 1.634 5.127 0"/><path stroke="#002140" stroke-linecap="round" stroke-linejoin="round" d="M27.082 38.15c0 1.634 5.127 1.634 5.127 0M18.857 17.064c.397-.031.791-.063 1.188-.088a55 55 0 0 1 7.087 0c.41.025.826.057 1.238.091m10.913 12.507c0 .715-.287 1.295-.647 1.295s-.644-.58-.644-1.295c0-.716.288-1.296.644-1.296s.647.58.647 1.296m2.622 0c0 .715-.287 1.295-.647 1.295s-.644-.58-.644-1.295c0-.716.288-1.296.644-1.296s.647.58.647 1.296m-15.567-9.248c1.038-1.113 2.735-2.377 3.742-2.75 1.003-.37 1.629-.314 2.61.576.982.888 2 2.438 2 2.438m-1.005-4.084c2.032-.273 4.085-.417 5.683-.16 1.76.326 1.685 1.506 1.466 2.352-.219.85-.982 2.162-1.47 2.977m-3.716 1.531c.087.474-.054.897-.316.947-.26.05-.544-.295-.632-.768-.09-.477.05-.897.313-.95.263-.05.544.294.635.77m2.989-.306c.087.473-.053.897-.316.947-.26.05-.544-.295-.631-.769-.091-.476.05-.897.312-.95.263-.05.544.295.635.772M6.83 24.668c.113.47.46.759.994.86.375.071.841.056 1.379-.057"/><path stroke="#002140" stroke-linecap="round" stroke-linejoin="round" d="M9.204 26.936s-1.244.476-2.439-.066a2.16 2.16 0 0 1-.975-.847 2.34 2.34 0 0 1-.284-1.6c.053-.295.19-.552.387-.756.291-.301.71-.477 1.176-.458.781.025 1.353.662 1.366 1.189.012.527-.157.944-.613 1.13"/><path stroke="#002140" stroke-linecap="round" stroke-linejoin="round" d="m5.903 23.677-.01-.01c-.052-.056-.393-.433-.24-.95.166-.562-.372-.998-.869-.562-.322.286-.516 1.177-.416 1.845.103.665.444 1.587 1.423 2.02"/></svg>