<svg xmlns="http://www.w3.org/2000/svg" xmlns:xlink="http://www.w3.org/1999/xlink" xml:space="preserve" id="Layer_1" x="0" y="0" viewBox="0 0 68 68"><style>.st0{fill:#fffaf0;stroke:#002140;stroke-miterlimit:10}.st1,.st2{fill:#5be3aa;stroke:#002140;stroke-linecap:round;stroke-linejoin:round}.st2{fill:none}.st3{fill:#ffed8f}.st4{fill:#99f6ff}.st5{fill:#d18000}.st7,.st8,.st9{stroke:#002140;stroke-width:1.0509}.st7{fill:#e5fafe;stroke-miterlimit:10}.st8,.st9{fill:#ccf6ff;stroke-linecap:round;stroke-linejoin:round}.st9{fill:none}</style><path d="M39.538 43.181h15.784s2.256-.424 2.256-3.963V13.566l-2.985 2.561-2.376-2.925-2.376 2.925-2.681-2.741-2.74 2.865-2.256-2.865-2.256 2.805-2.681-2.376v11.756l2.316 17.61z" class="st0"/><path d="M58.962 23.01H35.469v38.022h23.493z" class="st1"/><path d="M58.962 61.032s.388-2.694-2.861-2.694h-18.16c-2.395 0-2.473 2.694-2.473 2.694M47.215 23.01v35.258" class="st2"/><path d="M33.582 42.516c10.248 0 18.556-8.308 18.556-18.556S43.83 5.404 33.582 5.404 15.026 13.712 15.026 23.96s8.308 18.556 18.556 18.556" class="st3"/><path d="M33.853 39.046c8.316 0 15.057-6.741 15.057-15.057S42.168 8.932 33.853 8.932s-15.057 6.741-15.057 15.057 6.741 15.057 15.057 15.057" class="st4"/><path d="m24.68 40.33-6.085-5.355-12.82 12.657s-.811 3 .73 4.867 5.014.961 5.275.569c.26-.392 12.9-12.738 12.9-12.738" class="st5"/><path d="M33.523 42.358c10.127 0 18.336-8.209 18.336-18.336S43.65 5.686 33.523 5.686s-18.336 8.209-18.336 18.336 8.21 18.336 18.336 18.336" class="st2"/><path d="M18.478 34.996 6.418 47.053a3.977 3.977 0 0 0 0 5.623 3.977 3.977 0 0 0 5.623 0l12.423-12.423" class="st2"/><defs><path id="SVGID_1_" d="M33.629 9.458c8.126 0 14.713 6.587 14.713 14.713s-6.587 14.713-14.713 14.713-14.713-6.587-14.713-14.713S25.503 9.458 33.629 9.458"/></defs><clipPath id="SVGID_00000026851416195346436300000010833639386532402350_"><use xlink:href="#SVGID_1_" style="overflow:visible"/></clipPath><g style="clip-path:url(#SVGID_00000026851416195346436300000010833639386532402350_)"><path d="M33.501 47.935h19.757s2.824-.531 2.824-4.961v-32.11l-3.736 3.205-2.974-3.661-2.974 3.661-3.355-3.431-3.431 3.586-2.824-3.586-2.824 3.511-3.355-2.974V25.89l2.899 22.044z" class="st7"/><path d="M57.814 22.685H28.407v47.593h29.407z" class="st8"/><path d="M43.11 22.685v44.134" class="st9"/></g><path d="M33.629 38.884c8.126 0 14.713-6.587 14.713-14.713S41.754 9.458 33.629 9.458s-14.713 6.587-14.713 14.713 6.587 14.713 14.713 14.713" class="st2"/></svg>