<svg xmlns="http://www.w3.org/2000/svg" id="Layer_1" viewBox="0 0 68 68"><defs><style>.st0{fill:#f25730}.st1{fill:#fffaf0}.st2{fill:#0164bf}.st3{fill:none;stroke:#002140;stroke-linecap:round;stroke-linejoin:round;stroke-width:1px}</style></defs><path d="M34.228 60.012c14.118 0 25.563-11.445 25.563-25.563S48.346 8.886 34.228 8.886 8.665 20.331 8.665 34.449 20.11 60.012 34.228 60.012" class="st1"/><path d="M34.285 51.822c9.531 0 17.257-7.726 17.257-17.257s-7.726-17.257-17.257-17.257-17.257 7.726-17.257 17.257 7.726 17.257 17.257 17.257" class="st2"/><path d="M34.028 41.883a7.234 7.234 0 1 0 0-14.469 7.234 7.234 0 0 0 0 14.469" class="st0"/><path d="M34.097 52.022c9.699 0 17.562-7.863 17.562-17.562s-7.863-17.562-17.562-17.562-17.562 7.863-17.562 17.562 7.863 17.562 17.562 17.562" class="st3"/><path d="M34.097 42.13a7.67 7.67 0 1 0 0-15.34 7.67 7.67 0 0 0 0 15.34" class="st3"/><path d="M34.096 60.364C48.402 60.364 60 48.766 60 34.46S48.402 8.556 34.096 8.556 8.192 20.154 8.192 34.46 19.79 60.364 34.096 60.364" class="st3"/></svg>