<svg xmlns="http://www.w3.org/2000/svg" viewBox="0 0 36 36"><path fill="#03d47c" d="M22 29a7 7 0 1 1 14 0 7 7 0 1 1-14 0"/><path fill="#fcfbf9" d="M29.6 26.9a.6.6 0 0 0-1.2 0v1.5h-1.5a.6.6 0 0 0 0 1.2h1.5v1.5a.6.6 0 0 0 1.2 0v-1.5h1.5a.6.6 0 0 0 0-1.2h-1.5z"/><path fill="#e6e1da" fill-rule="evenodd" d="M23.115 2.55a.64.64 0 0 1 .963 0l1.837 2.1a.64.64 0 0 0 .964 0l1.196-1.368a.64.64 0 0 1 1.122.422v17.301Q29.099 21.001 29 21a7.97 7.97 0 0 0-5.347 2.05 1.6 1.6 0 0 0-.856-.25h-9.6a1.601 1.601 0 0 0 0 3.201h8.387A8 8 0 0 0 21 29c0 .867.139 1.701.395 2.483l-.116-.133a.64.64 0 0 0-.963 0l-1.837 2.099a.64.64 0 0 1-.963 0l-1.837-2.099a.64.64 0 0 0-.964 0l-1.836 2.099a.64.64 0 0 1-.964 0l-1.837-2.099a.64.64 0 0 0-.963 0l-1.196 1.367a.64.64 0 0 1-1.122-.422V3.703a.64.64 0 0 1 1.122-.422L9.115 4.65a.64.64 0 0 0 .963 0l1.837-2.1a.64.64 0 0 1 .964 0l1.836 2.1a.64.64 0 0 0 .964 0l1.837-2.1a.64.64 0 0 1 .963 0l1.837 2.1a.64.64 0 0 0 .963 0zm-9.918 13.851a1.6 1.6 0 1 0 0 3.2h6.399a1.6 1.6 0 1 0 0-3.2zm0-6.401a1.601 1.601 0 0 0 0 3.201h9.6a1.6 1.6 0 0 0 0-3.201z" clip-rule="evenodd"/></svg>