<svg xmlns="http://www.w3.org/2000/svg" viewBox="0 0 36 36"><path fill="#03D47C" d="M22,29c0-3.866,3.134-7,7-7l0,0c3.866,0,7,3.134,7,7l0,0c0,3.866-3.134,7-7,7l0,0C25.134,36,22,32.866,22,29L22,29z"/><path fill="#FCFBF9" d="M29.6,26.9c0-0.331-0.269-0.6-0.6-0.6s-0.6,0.269-0.6,0.6v1.5h-1.5c-0.331,0-0.6,0.269-0.6,0.6c0,0.331,0.269,0.6,0.6,0.6h1.5v1.5c0,0.331,0.269,0.6,0.6,0.6s0.6-0.269,0.6-0.6v-1.5h1.5c0.331,0,0.6-0.269,0.6-0.6c0-0.331-0.269-0.6-0.6-0.6h-1.5V26.9z"/><path fill="#E6E1DA" fill-rule="evenodd" clip-rule="evenodd" d="M23.115,2.55c0.255-0.291,0.708-0.291,0.963,0l1.837,2.1c0.255,0.291,0.709,0.291,0.964,0l1.196-1.368c0.389-0.444,1.122-0.169,1.122,0.422v17.301C29.132,21.003,29.066,21,29,21c-2.056,0-3.93,0.776-5.347,2.05c-0.248-0.157-0.541-0.25-0.856-0.25h-9.6c-0.884,0-1.601,0.717-1.601,1.601c0,0.883,0.717,1.6,1.601,1.6h8.387C21.209,26.927,21,27.939,21,29c0,0.867,0.139,1.701,0.395,2.483l-0.116-0.133c-0.255-0.291-0.708-0.291-0.963,0l-1.837,2.099c-0.255,0.291-0.708,0.291-0.963,0l-1.837-2.099c-0.255-0.291-0.709-0.291-0.964,0l-1.836,2.099c-0.255,0.291-0.709,0.291-0.964,0l-1.837-2.099c-0.255-0.291-0.708-0.291-0.963,0l-1.196,1.367c-0.389,0.445-1.122,0.169-1.122-0.422V3.703c0-0.591,0.733-0.867,1.122-0.422L9.115,4.65c0.255,0.291,0.708,0.291,0.963,0l1.837-2.1c0.255-0.291,0.709-0.291,0.964,0l1.836,2.1c0.255,0.291,0.709,0.291,0.964,0l1.837-2.1c0.255-0.291,0.708-0.291,0.963,0l1.837,2.1c0.255,0.291,0.708,0.291,0.963,0L23.115,2.55z M13.197,16.401c-0.884,0-1.601,0.716-1.601,1.6c0,0.884,0.717,1.6,1.601,1.6h6.399c0.884,0,1.601-0.716,1.601-1.6c0-0.884-0.717-1.6-1.601-1.6H13.197z M13.197,10c-0.884,0-1.6,0.716-1.601,1.6c0,0.884,0.717,1.601,1.601,1.601h9.6c0.884,0,1.6-0.717,1.6-1.601c0-0.884-0.716-1.6-1.6-1.6H13.197z"/></svg>
