<svg xmlns="http://www.w3.org/2000/svg" width="69" height="68" fill="none" viewBox="0 0 69 68"><path fill="#aad3ff" d="M58.69 22.057 32.076 2.527 6.387 22.174l.466 5.577v24.524H5.69v4.07h10.344V54.25h10.81v1.976h10.923V54.25h10.464v2.326h10.691v-3.951h-1.163V27.172z"/><path fill="#dff4f8" d="M15.337 27.287H6.853V52.16h8.484zm20.923.347h-8.137v24.872h8.138zm21.502.116H49.51v24.525h8.253z"/><path fill="#59a9ff" d="M15.337 43.675h12.786v-16.04l-.697-5.346H15.918l-.816 5.811zm21.155 0h12.783v-16.04l-.697-5.346H37.07l-.813 5.811z"/><path fill="#002140" d="M18.669 43.482h6.2v-9.763s-.23-3.178-3.023-3.178c-2.792 0-2.946 3.409-2.946 3.409zm21.088-.081 6.029.08V33.72s-.232-3.178-3.023-3.178-2.947 3.409-2.947 3.409l-.063 9.451z"/><path fill="#87c2ff" d="M19.138 18.568h26.5L32.192 7.527z"/><path stroke="#002140" stroke-linecap="round" stroke-linejoin="round" d="M6.17 22.13h52.3L32.32 2.256zm0 0s.697 3.024.697 5.462h8.25c0-2.441.696-5.461.696-5.461m-8.946 5.461v24.525m8.25-24.525v24.41m-3.99-24.06v23.944m5.191.511H5.753v3.874h10.565zm32.39-30.267s.697 3.024.697 5.462h8.253c0-2.441.697-5.461.697-5.461m-8.951 5.461v24.525m8.253-24.525v24.41m-3.989-24.06v23.944m5.191.511H48.294v3.874h10.565zM27.496 22.13s.697 3.024.697 5.462h8.253c0-2.441.697-5.461.697-5.461m-8.95 5.461v24.525m8.254-24.525v24.41m-3.99-24.06v23.944m5.188.511H27.08v3.874h10.565zm-21.249 1.755H27.08m11.167 0h10.047m-32.827-5.289h12.32m-12.32-5.23h12.32m8.835 5.23h12.32m-12.32-5.23h12.32m-24.063-.116v-9.938a3.079 3.079 0 1 0-6.158 0V43.4m21.036.001V33.58a3.079 3.079 0 1 1 6.158 0v9.938"/><path fill="#ff7102" d="M64.855 46.081 39.76 46.2a1.31 1.31 0 0 0-1.302 1.314l.065 13.713a1.31 1.31 0 0 0 1.314 1.302l25.096-.118a1.31 1.31 0 0 0 1.302-1.315l-.064-13.712a1.31 1.31 0 0 0-1.315-1.303"/><path stroke="#002140" stroke-linecap="round" stroke-linejoin="round" d="m64.639 46.007-24.741.117a1.564 1.564 0 0 0-1.557 1.571l.062 13.193c.004.864.708 1.56 1.572 1.557l24.74-.117a1.564 1.564 0 0 0 1.557-1.571l-.062-13.193a1.564 1.564 0 0 0-1.571-1.557m-23.61 13.769 3.768-.02m1.728-.008 3.768-.017"/><path fill="#f5d5ff" d="m46.685 55.117-.014-3.073c0-.16-.304-.287-.677-.285l-2.455.012c-.208 0-.405.044-.532.115l-.833.464c-.093.05-.143.115-.141.178l.01 2.23c0 .06.044.117.122.165l.628.383c.127.079.336.124.559.122l2.663-.017c.373-.002.672-.134.672-.293z"/><path fill="#002140" d="m62.733 51.44-10.449.049a.72.72 0 0 0-.719.725l.011 2.266c.002.398.327.72.725.718l10.45-.049a.72.72 0 0 0 .718-.725l-.01-2.266a.72.72 0 0 0-.726-.718"/></svg>