<svg xmlns="http://www.w3.org/2000/svg" xmlns:xlink="http://www.w3.org/1999/xlink" id="Layer_1" width="68" height="68" x="0" y="0" version="1.1" viewBox="0 0 68 68" style="enable-background:new 0 0 68 68" xml:space="preserve"><style type="text/css">.st0{fill:#4ed7de}.st1{fill:#99f6ff}.st2{fill:none;stroke:#002140;stroke-linecap:round;stroke-linejoin:round}</style><path d="M12.7,37.1c0,0-5.4-7.6-3.4-12.3c2-4.7,4.9-12.1,18.8-12.2c13.9-0.1,18.2,12.8,17.5,17.1	c-0.7,4.3-6.8,11.6-13.6,12.7s-10.1-0.1-10.1-0.1S15.3,46,8.5,44C8.5,44,12,39.6,12.7,37.1z" class="st0"/><path d="M45.2,24.4c0,0,1.9,9.8-5.1,14.2c-6,3.6-9.2,4.7-17.3,4.1c0,0,0.7,4.9,6.3,8.2c5.6,3.3,12.7,4,15.9,2.5	c0,0,9.2,3.1,13.5,1.6c0,0-4.2-5.6-4.1-7.2c0,0,4.8-4.6,3.6-10.9C56.9,30.7,50.4,24.8,45.2,24.4L45.2,24.4z" class="st1"/><path d="M12.7,36.8c-0.5,3.6-4.3,7.2-4.3,7.2s9.6,1,13.9-1.6" class="st2"/><path d="M22.4,42.4c2,6.7,9.1,11.6,17.7,11.6c1.7,0,3.4-0.2,5-0.6" class="st2"/><path d="M54.7,47.8c2.2-2.5,3.6-5.7,3.6-9.1c0-6.9-5.4-12.6-12.8-14.6" class="st2"/><path d="M54.7,47.8c0.5,3.6,4.3,7.2,4.3,7.2s-9.6,1-13.9-1.6" class="st2"/><path d="M12.7,36.8c-2.2-2.5-3.6-5.7-3.6-9.1c0-8.4,8.2-15.3,18.2-15.3c10.1,0,18.2,6.8,18.2,15.3	c0,8.4-8.2,15.3-18.2,15.3c-1.7,0-3.4-0.2-5-0.6" class="st2"/></svg>