<svg xmlns="http://www.w3.org/2000/svg" xml:space="preserve" id="Layer_1" width="68" height="68" x="0" y="0" viewBox="0 0 68 68"><style>.st0{fill:#4ed7de}.st1{fill:#99f6ff}.st2{fill:none;stroke:#002140;stroke-linecap:round;stroke-linejoin:round}</style><path d="M12.7 37.1s-5.4-7.6-3.4-12.3 4.9-12.1 18.8-12.2 18.2 12.8 17.5 17.1S38.8 41.3 32 42.4s-10.1-.1-10.1-.1S15.3 46 8.5 44c0 0 3.5-4.4 4.2-6.9" class="st0"/><path d="M45.2 24.4s1.9 9.8-5.1 14.2c-6 3.6-9.2 4.7-17.3 4.1 0 0 .7 4.9 6.3 8.2s12.7 4 15.9 2.5c0 0 9.2 3.1 13.5 1.6 0 0-4.2-5.6-4.1-7.2 0 0 4.8-4.6 3.6-10.9-1.1-6.2-7.6-12.1-12.8-12.5" class="st1"/><path d="M12.7 36.8c-.5 3.6-4.3 7.2-4.3 7.2s9.6 1 13.9-1.6m.1 0c2 6.7 9.1 11.6 17.7 11.6 1.7 0 3.4-.2 5-.6m9.6-5.6c2.2-2.5 3.6-5.7 3.6-9.1 0-6.9-5.4-12.6-12.8-14.6m9.2 23.7C55.2 51.4 59 55 59 55s-9.6 1-13.9-1.6" class="st2"/><path d="M12.7 36.8c-2.2-2.5-3.6-5.7-3.6-9.1 0-8.4 8.2-15.3 18.2-15.3 10.1 0 18.2 6.8 18.2 15.3 0 8.4-8.2 15.3-18.2 15.3-1.7 0-3.4-.2-5-.6" class="st2"/></svg>