<?xml version="1.0" encoding="utf-8"?>
<!-- Generator: Adobe Illustrator 26.3.1, SVG Export Plug-In . SVG Version: 6.00 Build 0)  -->
<svg version="1.1" id="Layer_1" xmlns="http://www.w3.org/2000/svg" xmlns:xlink="http://www.w3.org/1999/xlink" x="0px" y="0px" fill="#C6C9CA" viewBox="0 0 60 60" style="enable-background:new 0 0 60 60;" xml:space="preserve">
<path d="M31.1,27l1.5-2.2h-4.9l1.5,2.2C29.6,27.8,30.4,27.8,31.1,27z"/>
<path d="M28.1,34.9L25.5,39h9.4l-3-4.5C30.8,33.4,28.9,33.4,28.1,34.9z"/>
<path d="M30,0C13.5,0,0,13.5,0,30s13.5,30,30,30s30-13.5,30-30S46.5,0,30,0z M35.2,30.8l4.1,10.5h1.9c1.1,0,1.9,0.8,1.9,1.9
	S42.4,45,41.2,45H18.8c-1.1,0-1.9-0.8-1.9-1.9s0.8-1.9,1.9-1.9h1.9l4.1-10.5c0.4-0.8,0.4-1.5,0-2.6L21,18.8h-2.2
	c-1.1,0-1.9-0.8-1.9-1.9s0.8-1.9,1.9-1.9h22.5c1.1,0,1.9,0.8,1.9,1.9s-0.8,1.9-1.9,1.9H39l-3.8,9.4C34.9,28.9,34.9,30,35.2,30.8z"/>
</svg>
