<svg width="44" height="44" viewBox="0 0 44 44" fill="none" xmlns="http://www.w3.org/2000/svg">
<path d="M6 1.33216e-05C5.48825 1.33216e-05 4.97594 0.194951 4.58594 0.585951L0.585936 4.58595C-0.196065 5.36795 -0.196065 6.63408 0.585936 7.41408L15.1719 22L0.585936 36.5859C-0.196065 37.3679 -0.196065 38.6341 0.585936 39.4141L4.58594 43.4141C5.36794 44.1961 6.63406 44.1961 7.41406 43.4141L22 28.8281L36.5859 43.4141C37.3659 44.1961 38.6341 44.1961 39.4141 43.4141L43.4141 39.4141C44.1961 38.6321 44.1961 37.3659 43.4141 36.5859L28.8281 22L43.4141 7.41408C44.1961 6.63408 44.1961 5.36595 43.4141 4.58595L39.4141 0.585951C38.6321 -0.196049 37.3659 -0.196049 36.5859 0.585951L22 15.1719L7.41406 0.585951C7.02306 0.194951 6.51175 1.33216e-05 6 1.33216e-05Z" fill="#C2C2C2"/>
</svg>
