<svg xmlns="http://www.w3.org/2000/svg" xmlns:xlink="http://www.w3.org/1999/xlink" id="Layer_1" x="0" y="0" version="1.1" viewBox="0 0 20 20" style="enable-background:new 0 0 20 20" xml:space="preserve"><style type="text/css">.st0{fill:#8b9c8f}</style><path d="M14.6,17.4c0.8,0.8,2,0.8,2.8,0c0.8-0.8,0.8-2,0-2.8L12.8,10l4.6-4.6c0.8-0.8,0.8-2,0-2.8s-2-0.8-2.8,0L10,7.2	L5.4,2.6c-0.8-0.8-2-0.8-2.8,0c-0.8,0.8-0.8,2,0,2.8L7.2,10l-4.6,4.6c-0.8,0.8-0.8,2,0,2.8c0.8,0.8,2,0.8,2.8,0l4.6-4.6L14.6,17.4z" class="st0"/></svg>