<svg xmlns="http://www.w3.org/2000/svg" width="68" height="68" viewBox="0 0 80 80"><path fill="#085239" d="M40 0c22.1 0 40 17.9 40 40S62.1 80 40 80 0 62.1 0 40 17.9 0 40 0"/><path fill="#03d47c" d="M11.9 59.5h56.5L40 9.8z"/><path fill="#002140" d="M33.3 53.8s2.3 3.1 7.1 3 6.8-3.2 6.8-3.2H33.3z"/><path fill="#fffaf0" d="M28.5 29.4s.3 8.7 11.5 8.7 10-9.3 10-9.3-4.5-4-10.6-4.2c-6.1.1-10.9 4.8-10.9 4.8m21 19.8H31.6l1.3 4h15.4z"/><path fill="none" stroke="#002140" stroke-linecap="round" stroke-linejoin="round" d="M40 9.6 12 59.4h56.6zM50.5 29s-11.2-9.8-21.5.1m-.3.7s0 8 11.2 8 10.2-9.4 10.2-9.4"/><path fill="#002140" d="m41 31.6 3-2.6c-.8-1.5-2.3-2.5-4.1-2.5-2.5 0-4.6 2.1-4.6 4.6s2.1 4.6 4.6 4.6c2.2 0 4-1.5 4.4-3.5z"/><path fill="none" stroke="#002140" stroke-linecap="round" stroke-linejoin="round" d="M20.2 45.3h40M33.5 21.7h13.4M32.4 45.2l2.6-7.5m13.2 7.5L45 37m4.4 12.2H31.3s.4 7.4 9 7.4 9.1-7.4 9.1-7.4m-9.1 10V57m0-7.8v-3.5m-7 8h13.9m-10.1-.2v-4m7.1 4v-4M66.1 28s-1.3 5.5-5.6 5.5c0 0 5 1.4 5.4 5.4 0 0 1.5-4.8 5.8-5.2-.1-.1-5.3-1.3-5.6-5.7"/><path fill="#fed607" d="M66.1 28s-1.3 5.5-5.6 5.5c0 0 5 1.4 5.4 5.4 0 0 1.5-4.8 5.8-5.2 0 0-5.2-1.2-5.6-5.7m-51 .2s-2.2 5.2-5.6 5.5c0 0 4.9 2.2 5.4 5.4 0 0 2-5 5.8-5.5 0 0-5.2-.8-5.6-5.4"/><path fill="none" stroke="#002140" stroke-linecap="round" stroke-linejoin="round" d="M71.9 33.6c-4.1 1.1-4.9 1.9-6 6-1.1-4.1-1.9-4.9-6-6 4.1-1.1 4.9-1.9 6-6 1.1 4.1 1.9 4.9 6 6m-50.9 0c-4.1 1.1-4.9 1.9-6 6-1.1-4.1-1.9-4.9-6-6 4.1-1.1 4.9-1.9 6-6 1.1 4.1 1.9 4.9 6 6"/></svg>
