<svg width="52" height="52" viewBox="0 0 52 52" fill="none" xmlns="http://www.w3.org/2000/svg">
<path d="M0 26C0 11.6406 11.6406 0 26 0V0C40.3594 0 52 11.6406 52 26V26C52 40.3594 40.3594 52 26 52V52C11.6406 52 0 40.3594 0 26V26Z" fill="#0185FF"/>
<path d="M34.2504 31.375L33.5004 29.75H18.5004L17.7504 31.375C17.5004 31.75 17.7504 32.25 18.2504 32.25H33.7504C34.2504 32.25 34.5004 31.75 34.2504 31.375Z" fill="white"/>
<path d="M26.625 22.25V19.75H27.875C28.25 19.75 28.5 19.5 28.5 19.125C28.5 18.75 28.25 18.5 27.875 18.5H24.125C23.75 18.5 23.5 18.75 23.5 19.125C23.5 19.5 23.75 19.75 24.125 19.75H25.375V22.25C21.875 22.5 19.125 25.125 18.5 28.5H33.5C32.875 25.125 30.125 22.625 26.625 22.25Z" fill="white"/>
</svg>
