<svg xmlns="http://www.w3.org/2000/svg" width="28" height="28" fill="none" viewBox="0 0 28 28"><path fill="#e6e1da" d="M0 14C0 6.268 6.268 0 14 0s14 6.268 14 14-6.268 14-14 14S0 21.732 0 14"/><path fill="#a2a9a3" d="M12.8 8a1.2 1.2 0 0 0-1.2 1.2v7.2a1.2 1.2 0 0 0 1.2 1.2h4.8a1.2 1.2 0 0 0 1.2-1.2v-5.503a1.2 1.2 0 0 0-.352-.848L16.75 8.35A1.2 1.2 0 0 0 15.902 8z"/><path fill="#a2a9a3" d="M9.2 11.6a1.2 1.2 0 0 1 1.2-1.2v7.2a1.2 1.2 0 0 0 1.2 1.2h4.8a1.2 1.2 0 0 1-1.2 1.2h-4.8a1.2 1.2 0 0 1-1.2-1.2z"/></svg>