<svg width="28" height="28" viewBox="0 0 28 28" fill="none" xmlns="http://www.w3.org/2000/svg">
<path d="M0 14C0 6.26801 6.26801 0 14 0C21.732 0 28 6.26801 28 14C28 21.732 21.732 28 14 28C6.26801 28 0 21.732 0 14Z" fill="#E6E1DA"/>
<path d="M12.7992 8C12.1365 8 11.5992 8.53726 11.5992 9.2V16.4C11.5992 17.0627 12.1365 17.6 12.7992 17.6H17.5992C18.262 17.6 18.7992 17.0627 18.7992 16.4V10.8971C18.7992 10.5788 18.6728 10.2736 18.4477 10.0485L16.7507 8.35147C16.5256 8.12643 16.2204 8 15.9022 8L12.7992 8Z" fill="#A2A9A3"/>
<path d="M9.19922 11.6C9.19922 10.9373 9.73648 10.4 10.3992 10.4L10.3992 17.6C10.3992 18.2627 10.9365 18.8 11.5992 18.8H16.3992C16.3992 19.4627 15.862 20 15.1992 20H10.3992C9.73648 20 9.19922 19.4627 9.19922 18.8L9.19922 11.6Z" fill="#A2A9A3"/>
</svg>
