<svg xmlns="http://www.w3.org/2000/svg" xmlns:xlink="http://www.w3.org/1999/xlink" id="Layer_1" width="68" height="68" x="0" y="0" version="1.1" viewBox="0 0 68 68" style="enable-background:new 0 0 68 68" xml:space="preserve"><style type="text/css">.st0{fill:#0164bf}.st1{fill:#0676de}.st2,.st3{fill:none;stroke:#002140;stroke-width:.999;stroke-linecap:round;stroke-linejoin:round}.st3{fill:#50eef6}.st4{fill:#0185ff}.st5{fill:#03d47c}.st6{fill:none;stroke:#002140;stroke-width:.9999;stroke-linecap:round;stroke-linejoin:round}</style><path d="M56.721,11c2.426,0,3.929,1.627,3.929,4.623v34.024H7.353V15.623c0-2.995,1.5-4.623,3.926-4.623H56.721z" class="st0"/><path d="M63.999,49.647v3.36c0,2.466-1.601,3.993-4.548,3.993H8.548C5.604,57,4,55.472,4,53.007v-3.36H63.999z" class="st1"/><path d="M4,49.647h3.352H60.65h3.349" class="st2"/><path d="M8.547,57h50.905" class="st2"/><path d="M4,49.647v3.36" class="st2"/><path d="M8.548,57C5.604,57,4,55.472,4,53.007" class="st2"/><path d="M7.353,15.623c0-2.995,1.5-4.623,3.926-4.623" class="st2"/><path d="M7.353,15.623v34.024" class="st2"/><path d="M64,49.647v3.36" class="st2"/><path d="M59.452,57C62.399,57,64,55.472,64,53.007" class="st2"/><path d="M60.651,15.623c0-2.995-1.503-4.623-3.929-4.623" class="st2"/><path d="M60.65,15.623v34.024" class="st2"/><path d="M11.278,11h45.443" class="st2"/><path d="M10.137,14.628h47.726v35.027H10.137V14.628z" class="st3"/><path d="M34.405,43.932c6.403,0,11.594-5.242,11.594-11.709s-5.191-11.709-11.594-11.709	c-6.403,0-11.594,5.242-11.594,11.709S28.002,43.932,34.405,43.932z" class="st4"/><path d="M27.923,42.173c0,0,2.672-1.651,3.117-2.391c0.445-0.74,0.62-4.002,2.491-4.406	c1.871-0.404,7.231,1.133,7.981-1.508c0.75-2.641-1.747-4.406-1.747-4.406s-1.995-1.89-1.623-2.647	c0.372-0.757,2.092-3.625,0.75-4.913c-1.556-1.493-4.309-1.89-4.309-1.89s-7.781-0.626-11.4,6.927	C19.57,34.494,25.426,41.171,27.923,42.173z" class="st5"/><path d="M39.643,38.268c0,0-4.115,1.639-4.487,2.647c-0.372,1.007-0.75,3.022-0.75,3.022s5.986-1.133,7.107-2.391	c1.122-1.258,3.241-5.288,3.241-5.288s-3.241-0.125-5.112,2.015V38.268z" class="st5"/><path d="M33.876,44c6.559,0,11.876-5.37,11.876-11.994s-5.317-11.994-11.876-11.994S22,25.382,22,32.006	S27.317,44,33.876,44z" class="st6"/><path d="M37.32,20.604c0.941,0.495,1.984,1.104,2.232,2.146c0.44,1.844-1.911,3.626-1.206,5.385	c0.4,0.996,1.578,1.377,2.345,2.129c0.84,0.825,1.139,2.169,0.727,3.279c-0.411,1.11-1.516,1.918-2.688,1.975	c-1.122,0.057-2.193-0.518-3.314-0.552c-1.437-0.045-2.858,0.882-3.399,2.231c-0.237,0.592-0.316,1.235-0.518,1.839	c-0.541,1.617-2.029,2.863-3.703,3.102" class="st6"/><path d="M34.521,43.516c0.096-2.226,1.798-4.275,3.951-4.759c0.406-0.091,0.834-0.137,1.206-0.33	c0.395-0.205,0.682-0.558,1.003-0.865c1.127-1.076,2.745-1.599,4.278-1.395" class="st6"/></svg>