<svg xmlns="http://www.w3.org/2000/svg" width="68" height="68" fill="none" viewBox="0 0 68 68"><path fill="#d4f5fd" d="M17.1 40.397c.064.558.101 1.162.101 1.821 0 1.49-.388 2.929-1.055 4.119-1.004 1.798-2.648 3.034-4.557 3.043a5 5 0 0 1-2.096-.474c-4.118-1.891-2.164-7.984-2.164-10.63 0-2.648-1.644-5.346-1.644-5.346s.827.102 2.005.89c1.328.886 1.785 1.596 1.785 1.596v-3.699l3.329 2.92.146-3.653 3.087 2.915c-.01 1.272.242 2.36.516 3.537.205.9.424 1.85.548 2.97z"/><path fill="#84eaf4" d="M26.9 35.051q-.034.255-.073.517a87 87 0 0 1-.571 3.247c-.265 1.36-.525 2.582-.74 3.763-.397 2.181-.64 4.234-.452 6.798h-13.47c1.908-.01 3.552-1.245 4.557-3.044a8.5 8.5 0 0 0 1.055-4.118c0-.66-.037-1.26-.1-1.822-.12-1.12-.339-2.07-.549-2.97-.27-1.176-.525-2.264-.516-3.537 0-.61.069-1.264.22-1.993.748-3.592 3.068-6.11 6-5.894 3.803.277 5.241 4.22 4.639 9.049z"/><path fill="#d4f5fd" d="M26.9 35.052c.603-4.829-.836-8.772-4.64-9.049h13.375c.014.162.023.328.037.494.429 5.165 2.986 12.507 3.25 18.07q.035.733.015 1.42c-.078 2.365-.503 4.745-1.32 6.7-1.123 2.685-2.982 4.58-5.699 4.58h-.146c-3.561-.088-6.338-2.795-6.712-7.812 0-.023 0-.051-.005-.074-.182-2.564.055-4.617.452-6.798.215-1.18.475-2.403.74-3.763a70 70 0 0 0 .57-3.247q.04-.261.074-.517z"/><path fill="#d4f5fd" d="M38.927 44.561c-.264-5.562-2.822-12.904-3.25-18.069q-.022-.25-.037-.493c-.608-8.274.931-14.394 1.11-15.063l1.442 3.46 3.124-3.27 1.79 3.27 3-3.704 1.662 3.2 2.662-3.034 1.497 3.537s.895-.788 1.886-1.586c1.274-1.024 2.16-1.112 2.16-1.112s-.767 2.117-1.087 8.159c-.46 8.697 3.854 18.272 3.407 26.222-.626 11.184-6.927 11.221-6.927 11.221h-19.43v-.041c2.717 0 4.576-1.896 5.7-4.58.816-1.955 1.241-4.335 1.319-6.7q.02-.688-.014-1.421z"/><path stroke="#002140" stroke-linecap="round" stroke-linejoin="round" d="m36.763 10.877-.018.06c-.178.668-1.717 6.788-1.11 15.062.014.161.023.327.037.493.429 5.165 2.986 12.507 3.25 18.07q.036.733.014 1.42c-.077 2.366-.502 4.745-1.32 6.7-1.123 2.685-2.981 4.58-5.698 4.58h-.146c-3.562-.087-6.338-2.794-6.712-7.812q.001-.036-.005-.074c-.183-2.564.055-4.616.452-6.798.215-1.18.475-2.403.74-3.763.196-.992.393-2.061.57-3.247q.04-.262.074-.516c.602-4.829-.836-8.772-4.64-9.049-2.936-.216-5.255 2.302-6 5.894-.15.729-.214 1.38-.219 1.992-.009 1.273.242 2.362.516 3.538.206.9.425 1.85.548 2.97.064.558.1 1.162.1 1.822a8.5 8.5 0 0 1-1.054 4.118c-1.005 1.798-2.649 3.034-4.557 3.044a5 5 0 0 1-2.096-.475c-4.119-1.891-2.165-7.983-2.165-10.63S5.682 32.93 5.682 32.93s.826.102 2.004.89c1.329.886 1.786 1.596 1.786 1.596v-3.699l3.328 2.92.146-3.653 3.087 2.915m6.227-7.896h13.416M11.59 49.38h13.429"/><path stroke="#002140" stroke-linecap="round" stroke-linejoin="round" d="m36.735 10.918.01.018 1.443 3.46 3.123-3.27 1.79 3.27 3-3.704 1.662 3.2 2.662-3.034 1.498 3.537s.895-.788 1.886-1.586c1.273-1.024 2.16-1.112 2.16-1.112s-.768 2.117-1.087 8.159c-.462 8.697 3.853 18.272 3.406 26.222C57.662 57.262 51.36 57.3 51.36 57.3H31.786M10.923 37.427h5.63m-6.329 2.97h6.886m-7.292 2.97h7.292m-6.64 2.97h5.676m3.028-11.285h7.762m-6.822 3.763h6.146m-5.575 3.759h4.84m-6.228 3.763h5.717m-5.388-15.044h7.292m3.027 1.088h6.571m-6.776 4.063h7.63m-8.091 4.059h8.99m-9.141 12.18h8.493m-9-8.122H38.95m-10.58 4.063H38.7m-9.412-20.301h6.562m5.593 8.144h12.804m-12.055 4.276h12.804m-12.302 4.275h12.804m-13.306 4.275h12.804M40.36 53.568h12.804"/><path fill="#4ed7de" d="M53 30.444C53 31.611 52.224 32 51.057 32H40.945C39.706 32 39 31.611 39 30.444 39 27.334 42.5 25 46 25s7 2.333 7 5.444m-3.887-9.333a3.111 3.111 0 1 1-6.223 0 3.111 3.111 0 0 1 6.222 0"/><path stroke="#002140" d="M53 30.444C53 31.611 52.224 32 51.057 32H40.945C39.706 32 39 31.611 39 30.444 39 27.334 42.5 25 46 25s7 2.333 7 5.444Zm-3.887-9.333a3.111 3.111 0 1 1-6.223 0 3.111 3.111 0 0 1 6.222 0Z"/></svg>