<svg xmlns="http://www.w3.org/2000/svg" xml:space="preserve" id="Layer_1" x="0" y="0" viewBox="0 0 189 30"><style>.st0{fill:#002e22}@media (prefers-color-scheme:dark){.st0{fill:#e7ece9}}.st1{fill:#03d47c}</style><path d="M0 23.1h13.9V19H5.1v-3.8h7.1V11H5.1V7.4h8.8V3.3H0zM31.1 7.7H25l-2 3.7-2.1-3.7h-6.3l5.1 7.5-5.5 8h6.1l2.4-4.1 2.4 4.1h6.3l-5.5-8zm9.7-.4c-1.7 0-3.2.7-4.2 2V7.7h-4.7v22h5V22c.9.9 2.3 1.5 3.9 1.5 4.1 0 6.9-3.1 6.9-8.1 0-4.9-2.7-8.1-6.9-8.1m-1.1 12.1c-1.9 0-3-1.5-3-4s1.1-4 3-4 3 1.4 3 4-1.2 4-3 4m16.7.2c-1.5 0-2.7-.9-3-3.1H64v-.7c0-4.8-2.7-8.5-7.9-8.5-3.7 0-7.9 2-7.9 8.1 0 4.9 3.2 8.1 8.1 8.1 2.9 0 6.6-1.1 7.7-5.6h-5.1c0 .8-.7 1.7-2.5 1.7m-.2-8.6c1.4 0 2.4.8 2.6 2.6h-5.2c.4-2 1.4-2.6 2.6-2.6m17.7-3.7c-1.7 0-3.2.8-4.2 2.2V7.7H65v15.4h5v-8.6c0-2.1 1.1-3 2.4-3 1.5 0 2.3.6 2.3 3v8.6h5v-9c0-4.9-2-6.8-5.8-6.8m24-6.6c-1.5 0-2.6 1.1-2.6 2.6 0 1.4 1.1 2.6 2.6 2.6s2.6-1.2 2.6-2.6c0-1.5-1-2.6-2.6-2.6m2.5 7h-5v15.4h5zm-11.5 5.8-1.2-.3c-1.3-.3-1.8-.9-1.8-1.4 0-.8.7-1.4 1.9-1.4 1.5 0 2.2.5 2.2 1.9h4.3c-.1-3.2-2-5.1-6.8-5.1-4.1 0-6.6 1.5-6.6 5 0 2.7 1.8 3.9 6 4.9l1.2.3c1.3.3 1.8.9 1.8 1.5 0 .8-.8 1.2-2.1 1.2-1.7 0-2.5-.6-2.7-2h-4.9c.3 3.7 2.9 5.6 7.4 5.6s7.2-1.7 7.2-5.1c.1-2.9-1.7-4.2-5.9-5.1m31-5.8-2.8 9.4-2.7-9.4h-6.5v-.5c0-1.3.9-2.5 2.4-2.5h.7V.6h-1c-4.3.1-7.1 3.1-7.1 6.9v.2H101v4.5h1.9V23h5V12.3h2.8l3.7 10.4-.6 1.6c-.5 1.2-1 1.5-2 1.5-.5 0-1.1 0-1.8-.2l-.3 4.1c.7.2 1.7.3 2.9.3 3 0 4.5-1.3 6-5.2L125 7.7z" class="st0"/><path d="M144.5 23.1c2.7 0 4.3-.3 4.3-1.1 0-.7-.7-.9-2.1-.9-.4-.1-.5-1.5-.5-3.2v-11c0-1.7.1-3.1.5-3.2 1.5-.1 2.1-.3 2.1-.9 0-.9-1.6-1.2-4.3-1.2-2.8 0-4.4.3-4.4 1.2 0 .6.7.8 2.1.9.4.1.5 1.6.5 3.2v3.9c-.1.3-.3.4-1.1.4h-8.5c-.8 0-1-.1-1.1-.4V6.9c0-1.7.1-3.1.5-3.2 1.5-.1 2.1-.3 2.1-.9 0-.9-1.6-1.2-4.4-1.2-2.7 0-4.3.3-4.3 1.2 0 .6.7.8 2.1.9.4.1.4 1.6.4 3.2v10.9c0 1.7-.1 3.1-.4 3.2-1.5.1-2.1.3-2.1.9 0 .8 1.6 1.1 4.3 1.1 2.8 0 4.4-.3 4.4-1.1 0-.7-.7-.9-2.1-.9-.4-.1-.5-1.5-.5-3.2v-4.3c.1-.3.3-.4 1.1-.4h8.5c.8 0 .9.1 1.1.4v4.2c0 1.7-.1 3.1-.5 3.2-1.5.1-2.1.3-2.1.9 0 1 1.6 1.3 4.4 1.3m11.8.3c2.7 0 4.6-1.2 5.7-2.5.7-.7 1-1.5 1-2s-.2-.8-.6-.8c-.3 0-.5.2-.8.5-.9.9-2.2 1.9-4.3 1.9-3 0-4.8-2.1-5-5.3h8.8c1.2 0 1.8-.9 1.8-2.2 0-2.6-2.3-5.2-6.1-5.2-4.1 0-7.5 3.3-7.5 8.1 0 4.4 2.8 7.5 7 7.5m-3.9-9.8c.4-2.6 2-4.2 4.3-4.2 2.1 0 3.4 1.4 3.4 3q0 1.2-1.5 1.2zm15.2 9.5c2.3 0 3.7-.3 3.7-1.1 0-.6-.6-.7-1.7-.8-.3-.1-.4-1.2-.4-3.1V7.5c0-2.1.1-3.8.1-4.8 0-1.1-.2-1.6-1-1.6s-3 .5-4.1 1c-.4.2-.6.4-.6.8s.4.7 2 .8c.4.2.4 1.9.4 3.3v11c0 2.1 0 3-.4 3.1-1.1.1-1.7.2-1.7.8 0 .9 1.3 1.2 3.7 1.2m8.1 5.5c2.9 0 4.4-.2 4.4-1.1 0-.6-.6-.7-2.3-.9-.4-.2-.5-1.2-.5-3.1v-1.9c1 1 2.6 1.7 4.6 1.7 4.2 0 7.1-3.4 7.1-8.1 0-4.6-2.6-7.5-6.1-7.5-2.5 0-4.7 1.5-5.6 3.6V9.5c0-1.1-.2-1.6-1-1.6s-3 .5-4 1c-.4.2-.6.5-.6.8 0 .4.4.7 1.9.8.4.2.4 2 .4 3.2v9.7c0 2.1-.1 3-.4 3.1-1.2.1-1.8.3-1.8.9.1.9 1.5 1.2 3.9 1.2m1.6-12.4c0-4.4 2.2-6.2 4.3-6.2 2.3 0 4 2.2 4 5.9 0 3.6-1.6 5.8-4.2 5.8-2.3 0-4.1-1.5-4.1-5.5" class="st1"/></svg>