<svg width="68" height="68" viewBox="0 0 68 68" fill="none" xmlns="http://www.w3.org/2000/svg">
<path d="M58.7716 22.5239L62.5675 24.2835C62.1014 27.0923 61.0977 29.3622 59.3662 31.5177H56.3932C58.1246 29.3622 59.1283 27.0923 59.5945 24.2835L55.7986 22.5239C55.8794 21.6751 55.8604 20.9168 55.7605 20.0346C55.6368 18.9903 55.4656 18.1891 55.1041 17.2497L58.5242 15.0322C57.4111 12.3427 55.927 10.397 53.6865 8.67554H56.6595C58.9 10.397 60.3889 12.3427 61.4972 15.0322L58.0771 17.2497C58.4338 18.1891 58.6098 18.9903 58.7335 20.0346C58.8334 20.9168 58.8524 21.6751 58.7716 22.5239Z" fill="#002140"/>
<path d="M34.1075 13.5065C35.2777 12.0615 36.3623 11.0935 38.0937 10.2923L37.6371 6.38676L37.6228 6.27708C38.7978 5.80021 39.8871 5.47594 41.1571 5.28996C41.3141 5.26611 41.4711 5.24227 41.6328 5.22319C42.9933 5.06583 44.2063 5.09444 45.5001 5.26134L45.971 9.29568C47.8072 9.63426 49.1201 10.2637 50.5899 11.3415L51.8077 10.2923L53.6819 8.67575C55.9223 10.3973 57.4112 12.3429 58.5196 15.0324L55.0994 17.2499C55.4562 18.1893 55.6322 18.9905 55.7558 20.0348C55.8557 20.917 55.8748 21.6753 55.7939 22.5241L59.5898 24.2838C59.1237 27.0925 58.12 29.3624 56.3885 31.5179L54.7426 30.6452L52.7828 29.6104C51.6983 30.9027 50.2427 31.9185 48.692 32.6815L49.1771 36.8159C47.9546 37.2833 46.775 37.5599 45.4145 37.7172C44.4251 37.8317 43.5118 37.8508 42.5937 37.784C42.5176 37.784 42.4462 37.7745 42.3749 37.7697C42.2607 37.7602 42.1466 37.7506 42.0324 37.7363C41.9468 37.7268 41.8659 37.722 41.785 37.7125C41.6138 37.6934 41.4425 37.6695 41.2761 37.6457L40.7956 33.5446C39.3781 33.1965 38.07 32.6767 36.8855 31.9042C36.6144 31.723 36.348 31.5322 36.0864 31.3272L33.1514 34.0882C31.1535 32.362 29.4078 30.216 28.4231 27.6743L30.3449 26.3152L31.8005 25.2852C31.515 24.4554 31.3914 23.8212 31.2867 22.9151C31.1726 21.9232 31.1535 21.1507 31.2677 20.2017L27.4004 18.9333C27.8237 16.4344 29.0272 13.6781 30.4733 11.68L34.1028 13.5208L34.1075 13.5065ZM44.6534 31.1126C49.9668 30.4879 53.7722 25.6667 53.1491 20.34C52.526 15.0134 47.712 11.1984 42.3987 11.8231C37.0853 12.443 33.2798 17.269 33.903 22.5956C34.5261 27.9223 39.34 31.7373 44.6534 31.1126Z" fill="#E4BC07"/>
<path d="M52.7879 29.6102L54.7477 30.645C53.8391 31.4605 52.7784 32.1329 51.67 32.6765L52.1552 36.811C50.5807 37.7218 47.3841 37.9364 44.7584 37.884C43.9687 37.8697 43.2314 37.8315 42.6035 37.779C43.5216 37.8458 44.4349 37.8267 45.4243 37.7123C46.7848 37.5549 47.9645 37.2783 49.187 36.811L48.7018 32.6765C50.2477 31.9183 51.7033 30.9026 52.7926 29.6055L52.7879 29.6102Z" fill="#002140"/>
<path d="M45.4432 25.1134C46.9702 24.3075 47.8787 22.5812 47.5743 20.7834C47.3555 19.472 46.5373 18.4133 45.4528 17.8363C44.6821 17.4262 43.7736 17.2593 42.8413 17.4167C40.6008 17.7982 39.1024 19.9202 39.4829 22.1663C39.8587 24.4076 41.9803 25.9097 44.216 25.533C44.6536 25.4567 45.0674 25.3137 45.4432 25.1181V25.1134ZM53.1493 20.3447C53.7724 25.6713 49.9622 30.4973 44.6536 31.1172C39.3402 31.7419 34.5263 27.9269 33.9032 22.6003C33.28 17.2736 37.0902 12.4477 42.3989 11.8277C47.7122 11.203 52.5262 15.018 53.1493 20.3447Z" fill="#E4BC07"/>
<path d="M51.7413 10.2111L51.8126 10.2969L50.5949 11.3508C49.125 10.2731 47.8122 9.63883 45.976 9.30025L45.5051 5.26592C44.2065 5.09901 42.9935 5.0704 41.6378 5.22777C41.4761 5.24684 41.3143 5.26592 41.1621 5.29453C43.1505 4.93211 45.9808 4.83673 48.4971 5.42328L48.949 9.30025C50.0146 9.49577 50.8993 9.79143 51.7461 10.2111H51.7413Z" fill="#002140"/>
<path d="M45.4479 17.8317C44.1493 18.5279 43.2645 19.8965 43.2645 21.475C43.2645 23.0534 44.1493 24.422 45.4479 25.1135C45.0721 25.3138 44.6583 25.4568 44.2207 25.5284C41.9849 25.9051 39.8634 24.4029 39.4876 22.1617C39.1071 19.9156 40.6102 17.7935 42.8459 17.412C43.7735 17.2546 44.6868 17.4215 45.4574 17.8317H45.4479Z" fill="#002140"/>
<path d="M41.7901 37.7028C41.871 37.7124 41.9518 37.7171 42.0375 37.7267C42.1469 37.741 42.2658 37.7505 42.3799 37.7601C42.4513 37.7648 42.5274 37.7744 42.5988 37.7744C43.2219 37.8268 43.964 37.865 44.7536 37.8793V37.946C45.0152 38.6184 45.0628 38.7186 45.2911 39.5102L41.1622 41.5464C41.4428 42.648 41.5332 43.5683 41.5332 44.7605C41.5332 45.762 41.4571 46.6156 41.2526 47.555L45.2816 50.03C44.3921 53.1201 42.6083 55.8526 40.3821 58.0462H36.862C39.0882 55.8478 40.5105 53.4396 41.4 50.3542L37.371 47.8793C37.5708 46.9351 37.6517 46.0862 37.6517 45.0848C37.6517 43.8926 37.5613 42.9723 37.2806 41.8707L41.4096 39.8392C40.5153 36.6776 39.1025 34.298 36.8145 32.0757L36.8906 31.8945C38.075 32.6671 39.3831 33.1869 40.8007 33.535L41.2811 37.6361C41.4524 37.6599 41.6236 37.6838 41.7901 37.7028Z" fill="#002140"/>
<path d="M32.9945 34.6651L36.8142 32.0804C39.1023 34.3074 40.5151 36.6822 41.4093 39.8439L37.2804 41.8754C37.5611 42.9817 37.6514 43.8973 37.6514 45.0895C37.6514 46.0909 37.5753 46.9445 37.3708 47.8839L41.3998 50.3589C40.5103 53.449 39.088 55.8572 36.8618 58.0508L34.8592 56.6679L33.0659 55.4328C31.6769 56.7442 29.9121 57.6884 28.076 58.3417V63.0389C26.6441 63.3966 25.2837 63.5539 23.7425 63.5539C22.0871 63.5539 20.6363 63.3346 19.1046 62.9245V58.2607C17.8773 57.8029 16.7404 57.2354 15.7082 56.5058C15.1469 56.11 14.6141 55.6617 14.1147 55.161L10.4614 57.8696C8.43976 55.6713 6.77012 53.0389 5.99951 50.0537L10.1047 47.8172C9.89535 46.8491 9.83827 46.1243 9.83827 45.0895C9.83827 43.9641 9.91914 43.0962 10.1712 42.047L5.99951 40.1157C6.80342 37.3689 8.51112 34.4362 10.3901 32.3808L14.2146 34.9226C14.8472 34.3026 15.4513 33.7733 16.0983 33.325C16.9783 32.7051 17.9249 32.2282 19.1046 31.8372V27.2735C20.6553 26.8491 22.0586 26.625 23.7425 26.625C25.2884 26.625 26.6441 26.8157 28.076 27.1734V31.7609C30.0928 32.3808 31.4818 33.2583 32.9898 34.6603L32.9945 34.6651ZM34.6879 45.0942C34.6879 39.038 29.7884 34.1262 23.7472 34.1262C17.7061 34.1262 12.8065 39.038 12.8065 45.0942C12.8065 51.1505 17.7061 56.0623 23.7472 56.0623C29.7884 56.0623 34.6879 51.1505 34.6879 45.0942Z" fill="#8DC8FF"/>
<path d="M33.1563 34.0786L36.0913 31.3175C36.3529 31.5225 36.6193 31.7133 36.8904 31.8945L36.8143 32.0757L32.9946 34.6603C31.4866 33.2583 30.0976 32.3809 28.0808 31.761V27.1735C26.6489 26.8158 25.2933 26.6251 23.7473 26.6251C22.0634 26.6251 20.6601 26.854 19.1094 27.2736C21.2166 26.1911 26.9772 25.8573 30.3498 26.3056L28.428 27.6646C29.4127 30.2064 31.1537 32.3523 33.1563 34.0738V34.0786Z" fill="#002140"/>
<path d="M34.8638 56.668C33.9505 57.2164 32.9706 57.6599 31.9621 58.0127V62.7147C30.4161 63.2249 25.2169 63.6494 23.7471 63.554C25.2883 63.554 26.6487 63.3966 28.0805 63.039V58.3418C29.9167 57.6885 31.6815 56.7443 33.0705 55.4329L34.8638 56.668Z" fill="#002140"/>
<path d="M23.7473 34.1216C29.7885 34.1216 34.688 39.0334 34.688 45.0896C34.688 51.1459 29.7885 56.0577 23.7473 56.0577C17.7062 56.0577 12.8066 51.1459 12.8066 45.0896C12.8066 39.0334 17.7062 34.1216 23.7473 34.1216ZM28.3805 45.0896C28.3805 43.3061 27.3816 41.7611 25.9117 40.979C25.2648 40.6356 24.5275 40.4401 23.7426 40.4401C21.1834 40.4401 19.1047 42.5241 19.1047 45.0896C19.1047 47.6552 21.1834 49.7391 23.7426 49.7391C24.5275 49.7391 25.2648 49.5436 25.9117 49.2003C27.3768 48.423 28.3805 46.8731 28.3805 45.0896Z" fill="#8DC8FF"/>
<path d="M25.9115 40.9837C24.4417 41.761 23.4427 43.3108 23.4427 45.0943C23.4427 46.8778 24.4417 48.4229 25.9115 49.205C25.2646 49.5483 24.5273 49.7438 23.7424 49.7438C21.1832 49.7438 19.1045 47.6599 19.1045 45.0943C19.1045 42.5288 21.1832 40.4448 23.7424 40.4448C24.5273 40.4448 25.2646 40.6403 25.9115 40.9837Z" fill="#002140"/>
<path d="M16.0319 33.225L16.1032 33.3251C15.461 33.7734 14.8522 34.3027 14.2195 34.9227L10.395 32.3809L14.2623 32.0471L16.0271 33.2202L16.0319 33.225Z" fill="#002140"/>
<path d="M15.7127 56.5059L15.6747 56.5631L14.338 57.555L10.4707 57.8698L14.1239 55.1611C14.6234 55.6618 15.1562 56.1101 15.7175 56.5059H15.7127Z" fill="#002140"/>
<path d="M25.9115 40.9837C27.3766 41.761 28.3803 43.3108 28.3803 45.0943C28.3803 46.8778 27.3814 48.4229 25.9115 49.205C25.2646 49.5483 24.5273 49.7438 23.7424 49.7438C21.1832 49.7438 19.1045 47.6599 19.1045 45.0943C19.1045 42.5288 21.1832 40.4448 23.7424 40.4448C24.5273 40.4448 25.2646 40.6403 25.9115 40.9837Z" stroke="#002140" stroke-linecap="round" stroke-linejoin="round"/>
<path d="M25.9117 49.2003C24.4418 48.423 23.4429 46.8731 23.4429 45.0896C23.4429 43.3061 24.4418 41.7611 25.9117 40.979" stroke="#002140" stroke-linecap="round" stroke-linejoin="round"/>
<path d="M34.688 45.0896C34.688 51.1459 29.7885 56.0577 23.7473 56.0577C17.7062 56.0577 12.8066 51.1459 12.8066 45.0896C12.8066 39.0334 17.7062 34.1216 23.7473 34.1216C29.7885 34.1216 34.688 39.0334 34.688 45.0896Z" stroke="#002140" stroke-linecap="round" stroke-linejoin="round"/>
<path d="M10.1048 47.8173C9.89546 46.8492 9.83838 46.1244 9.83838 45.0896C9.83838 43.9641 9.91925 43.0962 10.1714 42.0471" stroke="#002140" stroke-linecap="round" stroke-linejoin="round"/>
<path d="M19.1095 58.2608C17.8823 57.803 16.7454 57.2355 15.7132 56.5059C15.1519 56.1101 14.6191 55.6618 14.1196 55.1611" stroke="#002140" stroke-linecap="round" stroke-linejoin="round"/>
<path d="M33.0705 55.4329C31.6815 56.7443 29.9167 57.6885 28.0806 58.3418" stroke="#002140" stroke-linecap="round" stroke-linejoin="round"/>
<path d="M37.2803 41.8755C37.5609 42.9818 37.6513 43.8974 37.6513 45.0896C37.6513 46.091 37.5752 46.9446 37.3707 47.8841" stroke="#002140" stroke-linecap="round" stroke-linejoin="round"/>
<path d="M28.0806 31.761C30.0975 32.3809 31.4865 33.2584 32.9944 34.6604" stroke="#002140" stroke-linecap="round" stroke-linejoin="round"/>
<path d="M14.2192 34.9228C14.8519 34.3028 15.456 33.7735 16.1029 33.3252C16.983 32.7053 17.9296 32.2284 19.1093 31.8374" stroke="#002140" stroke-linecap="round" stroke-linejoin="round"/>
<path d="M6.00439 40.1157C6.8083 37.3689 8.516 34.4362 10.3949 32.3809" stroke="#002140" stroke-linecap="round" stroke-linejoin="round"/>
<path d="M10.4614 57.865C8.43976 55.6666 6.77012 53.0343 5.99951 50.0491" stroke="#002140" stroke-linecap="round" stroke-linejoin="round"/>
<path d="M28.0808 63.039C26.6489 63.3967 25.2885 63.554 23.7473 63.554C22.0919 63.554 20.6411 63.3347 19.1094 62.9246" stroke="#002140" stroke-linecap="round" stroke-linejoin="round"/>
<path d="M41.4047 50.3589C40.5152 53.449 39.0929 55.8572 36.8667 58.0508" stroke="#002140" stroke-linecap="round" stroke-linejoin="round"/>
<path d="M36.8145 32.0806C39.1025 34.3076 40.5153 36.6824 41.4096 39.844" stroke="#002140" stroke-linecap="round" stroke-linejoin="round"/>
<path d="M19.1094 27.2735C20.6601 26.8491 22.0634 26.625 23.7473 26.625C25.2933 26.625 26.6489 26.8157 28.0808 27.1734" stroke="#002140" stroke-linecap="round" stroke-linejoin="round"/>
<path d="M28.0806 31.7609V27.3499" stroke="#002140" stroke-linecap="round" stroke-linejoin="round"/>
<path d="M19.1094 27.4023V31.8373" stroke="#002140" stroke-linecap="round" stroke-linejoin="round"/>
<path d="M19.1094 58.2607V62.9245" stroke="#002140" stroke-linecap="round" stroke-linejoin="round"/>
<path d="M28.0806 63.039V58.3418" stroke="#002140" stroke-linecap="round" stroke-linejoin="round"/>
<path d="M33.0708 55.4329L34.8641 56.668L36.8667 58.0509" stroke="#002140" stroke-linecap="round" stroke-linejoin="round"/>
<path d="M37.3755 47.8889L41.4045 50.3591" stroke="#002140" stroke-linecap="round" stroke-linejoin="round"/>
<path d="M37.2803 41.8755L41.4092 39.844" stroke="#002140" stroke-linecap="round" stroke-linejoin="round"/>
<path d="M32.9849 34.67L32.9944 34.6652L36.8141 32.0806" stroke="#002140" stroke-linecap="round" stroke-linejoin="round"/>
<path d="M10.3955 32.3816L10.3901 32.3762" stroke="#002140" stroke-linecap="round" stroke-linejoin="round"/>
<path d="M14.2239 34.9274L14.2191 34.9226L10.3994 32.3809" stroke="#002140" stroke-linecap="round" stroke-linejoin="round"/>
<path d="M10.1714 42.0471L6.00439 40.1157" stroke="#002140" stroke-linecap="round" stroke-linejoin="round"/>
<path d="M5.99951 50.0539L10.1047 47.8174" stroke="#002140" stroke-linecap="round" stroke-linejoin="round"/>
<path d="M10.4663 57.8649L14.1196 55.1562H14.1243" stroke="#002140" stroke-linecap="round" stroke-linejoin="round"/>
<path d="M10.4517 57.8745L10.4612 57.865" stroke="#002140" stroke-linecap="round" stroke-linejoin="round"/>
<path d="M34.8641 56.6729C33.9508 57.2165 32.9708 57.6647 31.9624 58.0176" stroke="#002140" stroke-linecap="round" stroke-linejoin="round"/>
<path d="M41.1621 41.5513C41.4428 42.6528 41.5331 43.5732 41.5331 44.7654C41.5331 45.7668 41.457 46.6204 41.2525 47.5599" stroke="#002140" stroke-linecap="round" stroke-linejoin="round"/>
<path d="M31.9621 62.7195C30.4161 63.2297 25.2169 63.6542 23.7471 63.5588" stroke="#002140" stroke-linecap="round" stroke-linejoin="round"/>
<path d="M45.2862 50.0396C44.3967 53.1297 42.6129 55.8622 40.3867 58.0558" stroke="#002140" stroke-linecap="round" stroke-linejoin="round"/>
<path d="M44.7583 37.9507C45.0199 38.6231 45.0675 38.7232 45.2958 39.5148" stroke="#002140" stroke-linecap="round" stroke-linejoin="round"/>
<path d="M19.1094 27.2736C21.2166 26.1911 26.9772 25.8573 30.3498 26.3056" stroke="#002140" stroke-linecap="round" stroke-linejoin="round"/>
<path d="M31.9624 62.7195V58.0176" stroke="#002140" stroke-linecap="round" stroke-linejoin="round"/>
<path d="M41.2573 47.5598L45.2864 50.0395" stroke="#002140" stroke-linecap="round" stroke-linejoin="round"/>
<path d="M41.1621 41.5511L45.291 39.5149" stroke="#002140" stroke-linecap="round" stroke-linejoin="round"/>
<path d="M16.0319 33.2251L14.2671 32.052" stroke="#002140" stroke-linecap="round" stroke-linejoin="round"/>
<path d="M14.3384 57.5502L15.675 56.5583" stroke="#002140" stroke-linecap="round" stroke-linejoin="round"/>
<path d="M10.4614 57.865H10.4662L14.3382 57.5503" stroke="#002140" stroke-linecap="round" stroke-linejoin="round"/>
<path d="M10.395 32.381H10.3998L14.2671 32.052" stroke="#002140" stroke-linecap="round" stroke-linejoin="round"/>
<path d="M36.8667 58.051H40.3868" stroke="#002140" stroke-linecap="round" stroke-linejoin="round"/>
<path d="M45.4477 17.8315C46.5322 18.4133 47.3504 19.472 47.5692 20.7786C47.8736 22.5764 46.9699 24.3027 45.4382 25.1086C45.0624 25.3089 44.6485 25.452 44.2109 25.5235C41.9752 25.9002 39.8536 24.3981 39.4778 22.1568C39.0973 19.9107 40.6005 17.7886 42.8362 17.4071C43.7638 17.2498 44.6771 17.4167 45.4477 17.8268V17.8315Z" stroke="#002140" stroke-linecap="round" stroke-linejoin="round"/>
<path d="M45.448 25.1135C44.1494 24.422 43.2646 23.0582 43.2646 21.475C43.2646 19.8917 44.1494 18.5279 45.448 17.8364" stroke="#002140" stroke-linecap="round" stroke-linejoin="round"/>
<path d="M53.1493 20.34C53.7724 25.6667 49.9622 30.4926 44.6536 31.1125C39.3402 31.7372 34.5263 27.9223 33.9032 22.5956C33.28 17.269 37.0902 12.443 42.3989 11.8231C47.7122 11.1984 52.5262 15.0134 53.1493 20.34Z" stroke="#002140" stroke-linecap="round" stroke-linejoin="round"/>
<path d="M31.8053 25.2756C31.5199 24.4458 31.3962 23.8116 31.2915 22.9055C31.1774 21.9136 31.1583 21.1411 31.2725 20.1921" stroke="#002140" stroke-linecap="round" stroke-linejoin="round"/>
<path d="M40.8006 33.5348C39.383 33.1867 38.0749 32.6669 36.8905 31.8944C36.6193 31.7132 36.3529 31.5224 36.0913 31.3174" stroke="#002140" stroke-linecap="round" stroke-linejoin="round"/>
<path d="M52.7876 29.6104C51.7031 30.9027 50.2475 31.9184 48.6968 32.6814" stroke="#002140" stroke-linecap="round" stroke-linejoin="round"/>
<path d="M55.104 17.2498C55.4608 18.1892 55.6368 18.9903 55.7604 20.0347C55.8603 20.9169 55.8794 21.6751 55.7985 22.524" stroke="#002140" stroke-linecap="round" stroke-linejoin="round"/>
<path d="M45.9712 9.29565C47.8073 9.63423 49.1202 10.2637 50.5901 11.3414" stroke="#002140" stroke-linecap="round" stroke-linejoin="round"/>
<path d="M34.1074 13.5064C35.2776 12.0614 36.3622 11.0934 38.0936 10.2922" stroke="#002140" stroke-linecap="round" stroke-linejoin="round"/>
<path d="M27.4102 18.9236C27.8335 16.4248 29.037 13.6685 30.4831 11.6704" stroke="#002140" stroke-linecap="round" stroke-linejoin="round"/>
<path d="M33.156 34.0786C31.1582 32.3571 29.4124 30.2064 28.4277 27.6694" stroke="#002140" stroke-linecap="round" stroke-linejoin="round"/>
<path d="M41.7897 37.7027C41.6185 37.6837 41.4473 37.6598 41.2808 37.636" stroke="#002140" stroke-linecap="round" stroke-linejoin="round"/>
<path d="M42.3796 37.7648C42.2654 37.7553 42.1513 37.7458 42.0371 37.7314" stroke="#002140" stroke-linecap="round" stroke-linejoin="round"/>
<path d="M49.1821 36.811C47.9596 37.2784 46.7799 37.555 45.4194 37.7123C44.43 37.8268 43.5167 37.8458 42.5986 37.7791" stroke="#002140" stroke-linecap="round" stroke-linejoin="round"/>
<path d="M59.5993 24.2837C59.1331 27.0925 58.1294 29.3624 56.3979 31.5178" stroke="#002140" stroke-linecap="round" stroke-linejoin="round"/>
<path d="M53.6865 8.67554C55.927 10.397 57.4159 12.3427 58.5242 15.0322" stroke="#002140" stroke-linecap="round" stroke-linejoin="round"/>
<path d="M37.623 6.27708C38.798 5.80021 39.8873 5.47594 41.1574 5.28996C41.3143 5.26611 41.4713 5.24227 41.6331 5.22319C42.9935 5.06583 44.2065 5.09444 45.5004 5.26134" stroke="#002140" stroke-linecap="round" stroke-linejoin="round"/>
<path d="M45.9709 9.29557L45.5 5.26123" stroke="#002140" stroke-linecap="round" stroke-linejoin="round"/>
<path d="M37.6323 6.38672L38.089 10.2923" stroke="#002140" stroke-linecap="round" stroke-linejoin="round"/>
<path d="M40.8003 33.5349L41.2807 37.636" stroke="#002140" stroke-linecap="round" stroke-linejoin="round"/>
<path d="M49.1821 36.811L48.7017 32.6765" stroke="#002140" stroke-linecap="round" stroke-linejoin="round"/>
<path d="M52.7876 29.6104L54.7474 30.6452L56.3933 31.5178" stroke="#002140" stroke-linecap="round" stroke-linejoin="round"/>
<path d="M55.8037 22.5239L59.5997 24.2836" stroke="#002140" stroke-linecap="round" stroke-linejoin="round"/>
<path d="M55.104 17.2497L58.5242 15.0322" stroke="#002140" stroke-linecap="round" stroke-linejoin="round"/>
<path d="M54.7476 30.645C53.839 31.4605 52.7783 32.1329 51.6699 32.6765" stroke="#002140" stroke-linecap="round" stroke-linejoin="round"/>
<path d="M58.0771 17.2498C58.4339 18.1892 58.6099 18.9903 58.7336 20.0347C58.8335 20.9169 58.8525 21.6751 58.7716 22.524" stroke="#002140" stroke-linecap="round" stroke-linejoin="round"/>
<path d="M48.9443 9.29565C50.0099 9.49117 50.8946 9.78683 51.7414 10.2065" stroke="#002140" stroke-linecap="round" stroke-linejoin="round"/>
<path d="M62.5724 24.2837C62.1063 27.0925 61.1026 29.3624 59.3711 31.5178" stroke="#002140" stroke-linecap="round" stroke-linejoin="round"/>
<path d="M56.6597 8.67554C58.9001 10.397 60.389 12.3427 61.4974 15.0322" stroke="#002140" stroke-linecap="round" stroke-linejoin="round"/>
<path d="M48.9441 9.29567L48.4922 5.4187" stroke="#002140" stroke-linecap="round" stroke-linejoin="round"/>
<path d="M52.1551 36.811L51.6699 32.6765" stroke="#002140" stroke-linecap="round" stroke-linejoin="round"/>
<path d="M58.772 22.5239L62.5727 24.2836" stroke="#002140" stroke-linecap="round" stroke-linejoin="round"/>
<path d="M58.0771 17.2497L61.4973 15.0322" stroke="#002140" stroke-linecap="round" stroke-linejoin="round"/>
<path d="M50.5854 11.3508L50.595 11.346L51.8127 10.2921L53.6869 8.67554" stroke="#002140" stroke-linecap="round" stroke-linejoin="round"/>
<path d="M34.1126 13.5112L34.1078 13.5064L30.4784 11.6657L30.4736 11.6609" stroke="#002140" stroke-linecap="round" stroke-linejoin="round"/>
<path d="M31.2775 20.1921L27.4102 18.9236" stroke="#002140" stroke-linecap="round" stroke-linejoin="round"/>
<path d="M28.4277 27.6648L30.3495 26.3057H30.3542L31.8051 25.2756" stroke="#002140" stroke-linecap="round" stroke-linejoin="round"/>
<path d="M33.1465 34.0881L33.156 34.0786L36.091 31.3175L36.0957 31.3127" stroke="#002140" stroke-linecap="round" stroke-linejoin="round"/>
<path d="M48.4923 5.4186C45.9711 4.83682 43.1456 4.92742 41.1572 5.28984" stroke="#002140" stroke-linecap="round" stroke-linejoin="round"/>
<path d="M52.1552 36.811C50.5806 37.7219 47.3841 37.9365 44.7583 37.884C43.9687 37.8697 43.2313 37.8315 42.6034 37.7791C42.5273 37.7791 42.456 37.7695 42.3846 37.7648C42.2657 37.7505 42.1515 37.7409 42.0421 37.7314C41.9565 37.7219 41.8756 37.7171 41.7948 37.7076C41.7377 37.698 41.6759 37.6932 41.6235 37.6837" stroke="#002140" stroke-linecap="round" stroke-linejoin="round"/>
<path d="M59.371 31.5178H56.3979" stroke="#002140" stroke-linecap="round" stroke-linejoin="round"/>
<path d="M53.6865 8.67554H56.6595" stroke="#002140" stroke-linecap="round" stroke-linejoin="round"/>
</svg>
