<svg xmlns="http://www.w3.org/2000/svg" width="68" height="68" fill="none" viewBox="0 0 68 68"><path fill="#002140" d="m58.772 22.524 3.796 1.76c-.467 2.808-1.47 5.078-3.202 7.234h-2.973c1.732-2.156 2.735-4.426 3.201-7.235l-3.795-1.76a11.5 11.5 0 0 0-.038-2.488c-.124-1.045-.295-1.846-.657-2.785l3.42-2.218c-1.113-2.69-2.597-4.635-4.837-6.356h2.973c2.24 1.721 3.729 3.667 4.837 6.356l-3.42 2.218c.357.94.533 1.74.657 2.785.1.882.118 1.64.038 2.489"/><path fill="#e4bc07" d="M34.108 13.507c1.17-1.445 2.254-2.413 3.986-3.215l-.457-3.905-.014-.11c1.175-.477 2.264-.801 3.534-.987q.234-.037.476-.067a15.4 15.4 0 0 1 3.867.038l.471 4.035c1.836.338 3.15.968 4.619 2.046l1.218-1.05 1.874-1.616c2.24 1.721 3.73 3.667 4.838 6.356L55.1 17.25c.356.94.532 1.74.656 2.785.1.882.119 1.64.038 2.49l3.796 1.759c-.466 2.809-1.47 5.078-3.202 7.234l-1.645-.873-1.96-1.035c-1.085 1.293-2.54 2.309-4.091 3.072l.485 4.134c-1.222.467-2.402.744-3.763.901-.989.115-1.902.134-2.82.067-.076 0-.148-.01-.22-.014a8 8 0 0 1-.342-.034c-.085-.01-.166-.014-.247-.023q-.258-.031-.509-.067l-.48-4.101c-1.418-.349-2.726-.868-3.91-1.64a13 13 0 0 1-.8-.578l-2.935 2.761c-1.998-1.726-3.743-3.872-4.728-6.414l1.922-1.359 1.456-1.03c-.286-.83-.41-1.464-.514-2.37-.114-.992-.133-1.764-.02-2.713L27.4 18.933c.424-2.499 1.627-5.255 3.073-7.253l3.63 1.84zm10.545 17.606c5.314-.625 9.12-5.446 8.496-10.773s-5.437-9.142-10.75-8.517c-5.314.62-9.12 5.446-8.496 10.773.623 5.326 5.437 9.141 10.75 8.517"/><path fill="#002140" d="m52.788 29.61 1.96 1.035c-.909.816-1.97 1.488-3.078 2.031l.485 4.135c-1.574.91-4.77 1.125-7.397 1.073a34 34 0 0 1-2.155-.105 15 15 0 0 0 2.821-.067c1.36-.157 2.54-.434 3.763-.901l-.485-4.135c1.546-.758 3.001-1.773 4.09-3.07z"/><path fill="#e4bc07" d="M45.443 25.113a4.12 4.12 0 0 0 2.131-4.33 4.095 4.095 0 0 0-4.733-3.366 4.11 4.11 0 0 0-3.358 4.75 4.104 4.104 0 0 0 5.96 2.951zm7.706-4.768c.623 5.326-3.187 10.152-8.495 10.772-5.314.625-10.128-3.19-10.75-8.517-.624-5.326 3.186-10.152 8.495-10.772 5.313-.625 10.127 3.19 10.75 8.517"/><path fill="#002140" d="m51.741 10.211.072.086-1.218 1.054c-1.47-1.078-2.783-1.712-4.619-2.05l-.47-4.035a15.4 15.4 0 0 0-3.868-.038c-.162.019-.324.038-.476.067 1.989-.363 4.819-.458 7.335.128L48.95 9.3a10.3 10.3 0 0 1 2.797.911zm-6.293 7.621a4.13 4.13 0 0 0 0 7.281 4.104 4.104 0 0 1-5.96-2.952 4.113 4.113 0 0 1 3.358-4.749c.928-.157 1.84.01 2.611.42zM41.79 37.703c.081.01.162.014.248.024.109.014.228.024.342.033.071.005.147.014.219.014.623.053 1.365.091 2.155.105v.067c.261.672.309.773.537 1.564l-4.129 2.036c.28 1.102.371 2.022.371 3.215 0 1.001-.076 1.855-.28 2.794l4.029 2.475c-.89 3.09-2.674 5.823-4.9 8.016h-3.52c2.226-2.198 3.648-4.606 4.538-7.692l-4.029-2.475c.2-.944.28-1.793.28-2.794 0-1.192-.09-2.113-.37-3.214l4.129-2.032c-.895-3.161-2.307-5.541-4.595-7.763l.076-.181c1.184.772 2.492 1.292 3.91 1.64l.48 4.101q.258.037.51.067"/><path fill="#8dc8ff" d="m32.995 34.665 3.82-2.585c2.287 2.227 3.7 4.602 4.594 7.764l-4.129 2.031c.281 1.107.371 2.022.371 3.215 0 1-.076 1.854-.28 2.794l4.029 2.475c-.89 3.09-2.312 5.498-4.538 7.692l-2.003-1.383-1.793-1.235c-1.39 1.311-3.154 2.255-4.99 2.909v4.697c-1.432.358-2.792.515-4.334.515-1.655 0-3.106-.22-4.637-.63v-4.663c-1.228-.458-2.365-1.026-3.397-1.755a12 12 0 0 1-1.593-1.345L10.46 57.87c-2.02-2.2-3.689-4.831-4.46-7.816l4.105-2.237c-.21-.968-.267-1.693-.267-2.727 0-1.126.081-1.994.333-3.043L6 40.116c.803-2.747 2.511-5.68 4.39-7.735l3.825 2.542c.632-.62 1.236-1.15 1.883-1.598.88-.62 1.827-1.097 3.007-1.488v-4.564c1.55-.424 2.954-.648 4.637-.648 1.546 0 2.902.19 4.334.548v4.588c2.017.62 3.406 1.497 4.914 2.9zm1.693 10.43c0-6.057-4.9-10.969-10.94-10.969-6.042 0-10.942 4.912-10.942 10.968 0 6.057 4.9 10.968 10.941 10.968s10.94-4.911 10.94-10.968"/><path fill="#002140" d="m33.156 34.079 2.935-2.762q.393.307.8.578l-.077.18-3.82 2.585c-1.507-1.402-2.896-2.28-4.913-2.899v-4.587a17.3 17.3 0 0 0-4.334-.549c-1.684 0-3.087.229-4.638.649 2.108-1.083 7.868-1.417 11.24-.968l-1.921 1.359c.985 2.541 2.726 4.687 4.728 6.409zm1.708 22.589c-.913.548-1.893.992-2.902 1.345v4.702c-1.546.51-6.745.934-8.215.839 1.541 0 2.902-.157 4.334-.515v-4.697c1.836-.654 3.6-1.598 4.99-2.91z"/><path fill="#8dc8ff" d="M23.747 34.122c6.041 0 10.941 4.911 10.941 10.968 0 6.056-4.9 10.968-10.94 10.968-6.042 0-10.941-4.912-10.941-10.968 0-6.057 4.9-10.968 10.94-10.968m4.634 10.968a4.65 4.65 0 0 0-2.47-4.111 4.6 4.6 0 0 0-2.168-.539 4.647 4.647 0 0 0-4.638 4.65 4.647 4.647 0 0 0 4.638 4.65c.785 0 1.522-.196 2.169-.54a4.65 4.65 0 0 0 2.469-4.11"/><path fill="#002140" d="M25.912 40.984a4.64 4.64 0 0 0-2.47 4.11c0 1.784 1 3.329 2.47 4.111a4.6 4.6 0 0 1-2.17.539 4.647 4.647 0 0 1-4.637-4.65 4.647 4.647 0 0 1 4.637-4.65 4.6 4.6 0 0 1 2.17.54m-9.88-7.759.071.1c-.642.448-1.25.978-1.884 1.598l-3.824-2.542 3.867-.334 1.765 1.173zm-.319 23.281-.038.057-1.337.992-3.867.315 3.653-2.709q.75.751 1.593 1.345z"/><path stroke="#002140" stroke-linecap="round" stroke-linejoin="round" d="M25.912 40.984a4.65 4.65 0 0 1 2.468 4.11 4.65 4.65 0 0 1-2.468 4.111 4.6 4.6 0 0 1-2.17.539 4.647 4.647 0 0 1-4.637-4.65 4.647 4.647 0 0 1 4.637-4.65 4.6 4.6 0 0 1 2.17.54"/><path stroke="#002140" stroke-linecap="round" stroke-linejoin="round" d="M25.912 49.2a4.64 4.64 0 0 1-2.47-4.11c0-1.784 1-3.329 2.47-4.111"/><path stroke="#002140" stroke-linecap="round" stroke-linejoin="round" d="M34.688 45.09c0 6.056-4.9 10.968-10.94 10.968-6.042 0-10.941-4.912-10.941-10.968 0-6.057 4.9-10.968 10.94-10.968 6.041 0 10.941 4.911 10.941 10.968m-24.583 2.727c-.21-.968-.267-1.693-.267-2.727 0-1.126.081-1.994.333-3.043M19.11 58.26c-1.228-.457-2.365-1.024-3.397-1.754a12 12 0 0 1-1.593-1.345m18.95.272c-1.389 1.311-3.153 2.255-4.99 2.909m9.2-16.466c.28 1.106.371 2.021.371 3.214 0 1.001-.076 1.855-.28 2.794M28.08 31.761c2.018.62 3.407 1.497 4.914 2.9m-18.774.262c.632-.62 1.236-1.15 1.883-1.598.88-.62 1.827-1.097 3.006-1.488M6.004 40.116c.804-2.747 2.512-5.68 4.39-7.735m.067 25.484C8.44 55.667 6.771 53.035 6 50.049m22.08 12.99c-1.431.358-2.791.515-4.333.515-1.655 0-3.106-.22-4.638-.63m22.296-12.565c-.89 3.09-2.312 5.498-4.538 7.692m-.052-25.971c2.288 2.228 3.7 4.602 4.595 7.764m-22.3-12.57c1.55-.425 2.953-.649 4.637-.649 1.546 0 2.902.19 4.334.548m-.001 4.587v-4.41m-8.97.052v4.435m0 26.423v4.665m8.97.114v-4.697m4.99-2.909 1.794 1.235 2.003 1.383m.509-10.162 4.029 2.47m-4.125-8.483 4.13-2.032m-8.425-5.174.01-.005 3.82-2.584m-26.419.301-.006-.006m3.834 2.551-.005-.004-3.82-2.542m-.228 9.666-4.167-1.931M6 50.054l4.105-2.237m.361 10.048 3.654-2.709h.004m-3.672 2.719.01-.01m24.402-1.192a16 16 0 0 1-2.902 1.345m9.2-16.467c.28 1.102.371 2.022.371 3.214 0 1.002-.076 1.855-.28 2.795"/><path stroke="#002140" stroke-linecap="round" stroke-linejoin="round" d="M31.962 62.72c-1.546.51-6.745.934-8.215.839M45.286 50.04c-.89 3.09-2.673 5.822-4.9 8.016m4.372-20.106c.262.673.31.773.538 1.565M19.11 27.274c2.107-1.083 7.867-1.417 11.24-.968m1.612 36.414v-4.702m9.295-10.458 4.03 2.48m-4.125-8.489 4.129-2.036m-29.259-6.29-1.765-1.173m.071 25.498 1.337-.992m-5.214 1.307h.005l3.872-.315m-3.943-25.169h.005l3.867-.329m22.6 25.999h3.52m5.061-40.219a4.11 4.11 0 0 1 2.121 2.947 4.11 4.11 0 0 1-2.13 4.33c-.377.2-.79.343-1.228.414a4.104 4.104 0 0 1-4.733-3.366 4.113 4.113 0 0 1 3.358-4.75 4.1 4.1 0 0 1 2.612.42z"/><path stroke="#002140" stroke-linecap="round" stroke-linejoin="round" d="M45.448 25.114a4.11 4.11 0 0 1-2.183-3.639c0-1.583.884-2.947 2.183-3.639"/><path stroke="#002140" stroke-linecap="round" stroke-linejoin="round" d="M53.15 20.34c.622 5.327-3.188 10.153-8.496 10.773-5.314.624-10.128-3.19-10.75-8.517-.624-5.327 3.186-10.153 8.495-10.773 5.313-.625 10.127 3.19 10.75 8.517m-21.344 4.936c-.285-.83-.409-1.464-.514-2.37-.114-.992-.133-1.765-.018-2.714M40.8 33.535c-1.417-.348-2.725-.868-3.91-1.64a13 13 0 0 1-.799-.578m16.697-1.707c-1.085 1.293-2.54 2.308-4.091 3.071m6.407-15.431c.357.94.533 1.74.656 2.785.1.882.12 1.64.038 2.489M45.971 9.296c1.836.338 3.15.968 4.62 2.045m-16.484 2.165c1.17-1.445 2.255-2.413 3.987-3.214M27.41 18.924c.424-2.5 1.627-5.255 3.073-7.254m2.673 22.409c-1.998-1.722-3.744-3.873-4.728-6.41M41.79 37.703a16 16 0 0 1-.51-.067m1.1.129a8 8 0 0 1-.343-.034m7.145-.92c-1.222.467-2.402.744-3.763.901-.989.115-1.902.134-2.82.067M59.6 24.284c-.467 2.809-1.47 5.078-3.202 7.234M53.687 8.676c2.24 1.721 3.729 3.667 4.837 6.356M37.623 6.277c1.175-.477 2.264-.801 3.534-.987q.234-.037.476-.067a15.4 15.4 0 0 1 3.867.038m.47 4.035L45.5 5.26m-7.868 1.127.457 3.905M40.8 33.535l.48 4.101m7.902-.825-.48-4.135m4.086-3.066 1.96 1.035 1.645.873m-.589-8.994 3.796 1.76m-4.496-7.034 3.42-2.218"/><path stroke="#002140" stroke-linecap="round" stroke-linejoin="round" d="M54.748 30.645c-.909.816-1.97 1.488-3.078 2.031m6.407-15.426c.357.94.533 1.74.657 2.785.1.882.118 1.64.038 2.489M48.944 9.296a10.3 10.3 0 0 1 2.797.91m10.831 14.078c-.466 2.809-1.47 5.078-3.2 7.234M56.66 8.676c2.24 1.721 3.729 3.667 4.837 6.356M48.944 9.296l-.452-3.877m3.663 31.392-.485-4.135m7.102-10.152 3.8 1.76m-4.495-7.034 3.42-2.218M50.585 11.35l.01-.004 1.218-1.054 1.874-1.616m-19.574 4.835-.005-.005-3.63-1.84-.004-.005m.804 8.531-3.868-1.268m1.018 8.741 1.921-1.36h.005l1.451-1.03m1.342 8.813.009-.01 2.935-2.76.005-.005M48.492 5.419c-2.52-.582-5.346-.492-7.335-.13m10.998 31.522c-1.574.91-4.77 1.126-7.397 1.073a34 34 0 0 1-2.155-.105c-.076 0-.147-.01-.218-.014q-.179-.02-.343-.034c-.086-.01-.166-.014-.247-.023-.057-.01-.12-.015-.172-.024m17.748-6.166h-2.973M53.687 8.676h2.973"/></svg>