<svg xmlns="http://www.w3.org/2000/svg" width="68" height="68" fill="none" viewBox="0 0 68 68"><circle cx="34.5" cy="33.5" r="22.5" fill="#ffe789"/><mask id="a" width="56" height="56" x="6.096" y="6.096" fill="#000" maskUnits="userSpaceOnUse"><path fill="#fff" d="M6.096 6.096h56v56h-56z"/><path fill-rule="evenodd" d="M37.203 8.023a6 6 0 0 0-6.406 0l-5.117 3.23a6 6 0 0 1-1.881.78l-5.903 1.333a6 6 0 0 0-4.53 4.53L12.033 23.8a6 6 0 0 1-.78 1.881l-3.23 5.117a6 6 0 0 0 0 6.406l3.23 5.117a6 6 0 0 1 .78 1.881l1.333 5.903a6 6 0 0 0 4.53 4.53l5.903 1.334c.667.15 1.303.414 1.88.779l5.118 3.23a6 6 0 0 0 6.406 0l5.117-3.23a6 6 0 0 1 1.881-.78l5.903-1.333a6 6 0 0 0 4.53-4.53l1.334-5.903c.15-.666.414-1.303.779-1.88l3.23-5.117a6 6 0 0 0 0-6.407l-3.23-5.117a6 6 0 0 1-.78-1.88l-1.333-5.904a6 6 0 0 0-4.53-4.53L44.2 12.033a6 6 0 0 1-1.88-.78zM34 53c10.493 0 19-8.506 19-19s-8.507-19-19-19-19 8.507-19 19 8.507 19 19 19" clip-rule="evenodd"/></mask><path fill="#f8d004" fill-rule="evenodd" d="M37.203 8.023a6 6 0 0 0-6.406 0l-5.117 3.23a6 6 0 0 1-1.881.78l-5.903 1.333a6 6 0 0 0-4.53 4.53L12.033 23.8a6 6 0 0 1-.78 1.881l-3.23 5.117a6 6 0 0 0 0 6.406l3.23 5.117a6 6 0 0 1 .78 1.881l1.333 5.903a6 6 0 0 0 4.53 4.53l5.903 1.334c.667.15 1.303.414 1.88.779l5.118 3.23a6 6 0 0 0 6.406 0l5.117-3.23a6 6 0 0 1 1.881-.78l5.903-1.333a6 6 0 0 0 4.53-4.53l1.334-5.903c.15-.666.414-1.303.779-1.88l3.23-5.117a6 6 0 0 0 0-6.407l-3.23-5.117a6 6 0 0 1-.78-1.88l-1.333-5.904a6 6 0 0 0-4.53-4.53L44.2 12.033a6 6 0 0 1-1.88-.78zM34 53c10.493 0 19-8.506 19-19s-8.507-19-19-19-19 8.507-19 19 8.507 19 19 19" clip-rule="evenodd"/><path fill="#002140" d="m30.797 8.023.534.845zm6.406 0-.534.845zm-11.523 3.23.534.846zm-1.881.78.22.975zm-5.903 1.333-.22-.975zm-4.53 4.53.976.22zM12.033 23.8l.975.22zm-.78 1.881-.845-.534zm-3.23 5.117.845.534zm0 6.406.845-.533zm3.23 5.117-.845.534zm.78 1.881.975-.22zm1.333 5.903.976-.22zm4.53 4.53.22-.975zm5.903 1.334.22-.976zm1.88.779-.533.846zm5.118 3.23-.534.846zm6.406 0-.534-.845zm5.117-3.23.534.846zm1.881-.78-.22-.975zm5.903-1.333.22.975zm4.53-4.53.975.22zm1.334-5.903-.976-.22zm.779-1.88.845.533zm3.23-5.117-.845-.534zm0-6.407.846-.534zm-3.23-5.117.845-.534zm-.78-1.88-.975.22zm-1.333-5.904.975-.22zm-4.53-4.53.22-.975zM44.2 12.033l.22-.976zm-1.88-.78.533-.845zM31.33 8.869a5 5 0 0 1 5.339 0l1.067-1.69a7 7 0 0 0-7.474 0zM26.214 12.1l5.117-3.23-1.068-1.692-5.117 3.23zm-2.195.909a7 7 0 0 0 2.195-.909l-1.068-1.691a5 5 0 0 1-1.567.65zm-5.902 1.334 5.902-1.334-.44-1.95-5.903 1.333zm-3.775 3.775a5 5 0 0 1 3.775-3.775l-.441-1.951a7 7 0 0 0-5.285 5.285zm-1.334 5.903 1.334-5.903-1.951-.441-1.334 5.903zm-.909 2.194a7 7 0 0 0 .909-2.194l-1.95-.441a5 5 0 0 1-.65 1.567zm-3.23 5.117 3.23-5.117-1.691-1.068-3.23 5.117zm0 5.339a5 5 0 0 1 0-5.34l-1.692-1.067a7 7 0 0 0 0 7.474zm3.23 5.116-3.23-5.116-1.692 1.067 3.23 5.117zm.909 2.195a7 7 0 0 0-.909-2.195l-1.691 1.068a5 5 0 0 1 .65 1.568zm1.334 5.903-1.334-5.903-1.95.44 1.333 5.903zm3.775 3.775a5 5 0 0 1-3.775-3.775l-1.951.44a7 7 0 0 0 5.285 5.285zm5.902 1.333-5.902-1.333-.441 1.95 5.903 1.334zm2.195.91a7 7 0 0 0-2.195-.91l-.44 1.951a5 5 0 0 1 1.567.65zm5.117 3.23-5.117-3.23-1.068 1.69 5.117 3.231zm5.339 0a5 5 0 0 1-5.34 0l-1.067 1.691a7 7 0 0 0 7.474 0zm5.116-3.23-5.117 3.23 1.068 1.691 5.117-3.23zm2.195-.91a7 7 0 0 0-2.195.91l1.068 1.69a5 5 0 0 1 1.568-.649zm5.903-1.333-5.903 1.333.44 1.951 5.903-1.334zm3.775-3.775a5 5 0 0 1-3.775 3.775l.44 1.95a7 7 0 0 0 5.285-5.285zm1.333-5.903-1.333 5.903 1.95.44 1.334-5.902zm.91-2.195a7 7 0 0 0-.91 2.195l1.951.44a5 5 0 0 1 .65-1.567zm3.23-5.116-3.23 5.116 1.69 1.068 3.231-5.117zm0-5.34a5 5 0 0 1 0 5.34l1.691 1.067a7 7 0 0 0 0-7.474zm-3.23-5.116 3.23 5.117 1.691-1.068-3.23-5.117zm-.91-2.194c.176.777.483 1.52.91 2.194l1.69-1.068a5 5 0 0 1-.649-1.567zm-1.333-5.903 1.333 5.903 1.951-.441-1.334-5.903zm-3.775-3.775a5 5 0 0 1 3.775 3.775l1.95-.441a7 7 0 0 0-5.285-5.285zm-5.903-1.334 5.903 1.334.44-1.951-5.902-1.334zm-2.195-.909a7 7 0 0 0 2.195.909l.44-1.95a5 5 0 0 1-1.567-.65zm-5.117-3.23 5.118 3.23 1.067-1.691-5.117-3.23zM52 34c0 9.941-8.059 18-18 18v2c11.046 0 20-8.954 20-20zM34 16c9.941 0 18 8.06 18 18h2c0-11.045-8.954-20-20-20zM16 34c0-9.94 8.059-18 18-18v-2c-11.046 0-20 8.955-20 20zm18 18c-9.941 0-18-8.059-18-18h-2c0 11.046 8.954 20 20 20z" mask="url(#a)"/><mask id="b" width="54" height="54" x="7" y="7" maskUnits="userSpaceOnUse" style="mask-type:alpha"><path fill="#d9d9d9" d="M30.797 8.023a6 6 0 0 1 6.406 0l5.117 3.23a6 6 0 0 0 1.881.78l5.903 1.333a6 6 0 0 1 4.53 4.53l1.334 5.903c.15.667.414 1.303.779 1.881l3.23 5.117a6 6 0 0 1 0 6.406l-3.23 5.117a6 6 0 0 0-.78 1.881l-1.333 5.903a6 6 0 0 1-4.53 4.53l-5.903 1.334a6 6 0 0 0-1.88.779l-5.118 3.23a6 6 0 0 1-6.406 0l-5.117-3.23a6 6 0 0 0-1.881-.78l-5.903-1.333a6 6 0 0 1-4.53-4.53l-1.333-5.903a6 6 0 0 0-.78-1.88l-3.23-5.117a6 6 0 0 1 0-6.407l3.23-5.117a6 6 0 0 0 .78-1.88l1.333-5.904a6 6 0 0 1 4.53-4.53l5.903-1.333a6 6 0 0 0 1.88-.78z"/></mask><g mask="url(#b)"><path fill="#ffe789" d="M-4.432 29.496c-.888-3.985 10.18-2.58 13.046.337 2.865 2.916 3.284 8.78 5.18 12.394 2.734 5.22 5.87 9.941 11.417 11.977 2.825 1.04 6.1 1.392 8.186 3.544 2.154 2.225 2.33 5.643 2.385 8.742 0 0-31.868.295-40.207-36.995zm77.429 6.712c1.148 3.918-9.99 3.242-13.04.52s-3.854-8.545-5.982-12.027c-3.072-5.029-6.51-9.534-12.18-11.202-2.886-.851-6.177-.988-8.4-2.998C31.1 8.42 30.7 5.023 30.441 1.934c0 0 31.78-2.386 42.549 34.276z"/><path fill="#deb606" d="M33.985 67.038c-3.105.605-.48-6.396 1.838-8.555s5.411-3.219 8.249-4.612c4.099-2.01 7.969-5.024 9.66-9.278.864-2.166 1.204-4.695 2.914-6.266 1.767-1.622 4.418-1.688 6.82-1.666 0 0-.431 24.685-29.482 30.371z"/></g><path fill="#fffaf0" d="M33.765 27.16c-.326-.075-2.239-.447-4.085-.166-1.846.28-3.245.614-3.245.614s-.559-1.62-2.405-1.343c-1.846.281-4.029 2.909-4.477 6.21-.447 3.3 2.07 5.035 2.07 5.035s1.679 3.748 2.852 4.03c1.176.28 10.519 3.972 10.519 3.972s1.454-.336 1.79-.503 1.063-.895 1.063-.895.895.559 1.735 0a3.8 3.8 0 0 0 1.232-1.399s1.68-.784 1.79-1.176c.112-.392.392-1.399.392-1.399s-.95-4.866-3.467-6.322c-2.517-1.455-3.412-2.294-3.412-2.294s-.392-3.916-2.35-4.363z"/><path fill="#ffe789" d="m44.117 26.49-1.566.504-.615.67s-3.02-4.03-4.587-3.637c-1.566.392-2.798 1.79-2.798 1.79s-1.168 2.578-2.516 3.86c-1.348 1.285-2.63 3.02-1.51 4.307 1.118 1.288 2.964.951 4.14-.222 1.176-1.176 1.454-2.239 1.454-2.239l2.294 1.288s4.866 4.755 4.588 7.33c0 0 1.232-.223 1.455-.504.222-.28 1.062-1.846 1.062-1.846s3.245.055 2.797-5.428c-.448-3.973-4.196-5.875-4.196-5.875zm-9.679 18.517s-.785-3.02-1.118-3.19-1.51-.167-1.51-.167-1.176-.364-1.063 1.343 1.455 2.965 1.455 2.965l2.238-.951z"/><path fill="#ffe789" d="M31.92 40.699s-1.679-2.127-2.293-1.958c-.615.167-1.68 2.127-1.79 2.35-.112.222-.112 2.964-.112 2.964s.84.84 1.118.84 2.069-.337 2.069-.337l.392-2.686.503-.222.111-.951zm-4.084-.896c.055-.503-1.621-1.398-2.07-1.117-.447.28-1.175 1.901-1.175 1.901s.222 2.014 1.118 2.461c.895.448 1.565.504 1.62.337.057-.167.449-3.078.504-3.582z"/><path stroke="#002140" stroke-linecap="round" stroke-linejoin="round" d="M21.51 37.34c-1.822-.614-2.467-3.57-1.442-6.606 1.024-3.035 3.328-4.998 5.149-4.383.405.137.751.39 1.035.734m19.271 10.698c2.607-.036 3.33-3.516 2.423-6.589-.908-3.073-3.136-5.119-4.98-4.575a2.3 2.3 0 0 0-1.062.693"/><path stroke="#002140" stroke-linecap="round" stroke-linejoin="round" d="M24.088 29.819c.392-1.062 3.215-4.244 9.705-2.625M21.96 34.685s-1.287 4.643 2.35 6.601"/><path stroke="#002140" stroke-linecap="round" stroke-linejoin="round" d="M27.96 40.172s-.069-1.626-1.748-1.626-2.909 4.477.84 4.866"/><path stroke="#002140" stroke-linecap="round" stroke-linejoin="round" d="M31.92 41.064s-.222-2.183-2.126-2.239c-1.902-.056-2.406 2.909-2.35 4.085s1.287 2.908 3.412 1.79"/><path stroke="#002140" stroke-linecap="round" stroke-linejoin="round" d="M34.326 45.092s-.083-3.65-2.266-3.65-1.51 4.03.42 4.28c1.93.253 1.846-.63 1.846-.63m4.95-14.393s-.67 1.343-1.68 1.426"/><path stroke="#002140" stroke-linecap="round" stroke-linejoin="round" d="M43.262 29.692c-1.379-1.927-3.02-4.092-5.097-5.296-.427-.248-.928-.41-1.413-.324-1.389.246-2.292 2.047-2.96 3.121-.445.716-.872 1.447-1.398 2.107-.504.633-1.181 1.057-1.712 1.662-.721.82-1.123 2.552.035 3.22 1.09.63 4.826.46 6.085-4.03"/><path stroke="#002140" stroke-linecap="round" stroke-linejoin="round" d="M36.423 31.705s6.252 2.896 6.63 8.099c.083 2.392-2.014 2.686-2.014 2.686"/><path stroke="#002140" stroke-linecap="round" stroke-linejoin="round" d="M36.382 36.365s4.239 2.726 4.239 6.252c0 1.176-1.133 2.096-2.77 1.72"/><path stroke="#002140" stroke-linecap="round" stroke-linejoin="round" d="M33.317 37.664s4.239 2.727 4.239 6.253c0 1.176-1.535 2.374-3.263 1.355m7.459-13.398s.503 2.223-1.3 2.393m2.726 5.83s3.106-.127 2.35-4.952"/></svg>