<svg xmlns="http://www.w3.org/2000/svg" width="16" height="16" fill="none" viewBox="0 0 16 16"><g id="Info"><g id="Shape"><path fill="#8B9C8F" d="M9.6 4.7903C9.6 5.68242 8.93728 6.4 7.99053 6.4C7.06272 6.4 6.4 5.68242 6.4 4.7903C6.4 3.89818 7.06272 3.2 7.99053 3.2C8.93728 3.2 9.6 3.89818 9.6 4.7903Z"/><path fill="#8B9C8F" d="M9.6 12.8V7.2H5.6V8.8H6.4V12.8H9.6Z"/><path fill="#8B9C8F" fill-rule="evenodd" d="M16 8C16 12.4183 12.4183 16 8 16C3.58172 16 0 12.4183 0 8C0 3.58172 3.58172 0 8 0C12.4183 0 16 3.58172 16 8ZM14.4 8C14.4 11.5346 11.5346 14.4 8 14.4C4.46538 14.4 1.6 11.5346 1.6 8C1.6 4.46538 4.46538 1.6 8 1.6C11.5346 1.6 14.4 4.46538 14.4 8Z" clip-rule="evenodd"/></g></g></svg>