<svg xmlns="http://www.w3.org/2000/svg" xml:space="preserve" id="Layer_1" x="0" y="0" viewBox="0 0 68 68"><style>.st0{fill:#ffed8f}.st1{fill:#cbf7ff}.st2{fill:#002140}.st3{fill:#fff2b2}</style><path d="M29.1 47.7s1.1 1.7 5.7 1.5 6.5-1.5 6.5-1.5 2.3-4.9 3.4-7.3c1.1-2.3 4-8 3.4-12.2s-5.9-10.5-14.4-10.5-11.6 9.6-11.6 12.7 2.3 9.3 2.3 9.3z" class="st0"/><path d="M41.3 47.7s-2.4 1.3-5.4 1.2-7-.6-7-.6l2.2 4.9s-.1 1.7-.1 2.1c0 .3 1.2 2.7 3.7 2.7s4.7-2.1 4.7-2.4-.4-2.3-.4-2.3 2.1-4.1 2.3-5.6" class="st1"/><path d="M28.8 49c-.2 0-.5-.2-.5-.4-.4-2.4-1.7-4.6-3-6.9-1.8-3.1-3.9-6.5-3.9-11 0-.3.2-.5.5-.5s.5.2.5.5c0 4.2 1.9 7.4 3.8 10.5 1.4 2.4 2.8 4.7 3.2 7.2-.1.3-.3.6-.6.6m12.5-1.1c-.3 0-.5-.3-.5-.6.3-2.4 1.6-4.5 3.1-6.7 1.8-2.9 3.7-5.8 3.7-9.7 0-.3.2-.5.5-.5s.5.2.5.5c0 4.2-2 7.4-3.9 10.3-1.4 2.1-2.6 4.2-2.9 6.3 0 .2-.2.4-.5.4" class="st2"/><path d="M48.1 31.2c-.3 0-.5-.2-.5-.5 0-7-5.7-12.6-12.6-12.6-7.2 0-12.6 5.4-12.6 12.6 0 .3-.2.5-.5.5s-.5-.2-.5-.5c0-7.6 6-13.6 13.6-13.6 7.5 0 13.6 6.1 13.6 13.6 0 .3-.2.5-.5.5M34.9 55c-3.4 0-6.2-3-6.9-7.4 0-.3.1-.5.4-.6.3 0 .5.1.6.4.6 3.8 3 6.5 5.9 6.5s5.4-2.9 5.9-6.8c0-.3.3-.5.6-.4.3 0 .5.3.4.6-.5 4.4-3.4 7.7-6.9 7.7" class="st2"/><path d="M34.8 49.4c-3.7 0-6.3-1.4-6.5-1.4-.2-.1-.3-.4-.2-.7.1-.2.4-.3.7-.2.1 0 5.9 3 12.3-.2.2-.1.5 0 .7.2.1.2 0 .5-.2.7-2.5 1.2-4.8 1.6-6.8 1.6m.2 9.2c-2.7 0-4.9-1.8-4.9-3.9 0-.5.1-1.1.4-1.6.1-.2.4-.3.7-.2.2.1.3.4.2.7-.2.4-.3.7-.3 1.1 0 1.6 1.8 2.9 3.9 2.9 2.2 0 3.9-1.3 3.9-2.9 0-.5-.2-.9-.5-1.4-.2-.2-.1-.5.1-.7s.5-.1.7.1c.4.6.6 1.3.6 1.9.1 2.2-2.1 4-4.8 4" class="st2"/><path d="M35.6 48.9h-.2c-.3-.1-.4-.4-.3-.6.5-1.3.4-2.7-.1-4-.5.4-1 .6-1.4.7-.7.1-1.5-.2-1.8-.8-.3-.5-.3-1.2.1-1.8.3-.5.9-.8 1.5-.8.7 0 1.4.3 1.9 1 .1-.2.3-.4.3-.6.2-.4.3-1 .3-1.6q0-1.05-.3-1.8-.45-.9-1.2-1.2c-.3-.1-.4-.4-.3-.6.1-.3.4-.4.6-.3.8.3 1.4.9 1.8 1.7.3.6.4 1.4.4 2.3 0 .7-.2 1.4-.4 2-.2.4-.4.7-.7 1.1.8 1.6.9 3.4.3 5.1-.1.1-.3.2-.5.2m-2.2-6.2c-.3 0-.6.1-.7.4-.1.2-.1.5 0 .7s.5.4.8.3c.3 0 .7-.2 1.1-.6-.3-.5-.7-.8-1.2-.8" class="st2"/><path d="M17.5 24.7h-6.8c-.3 0-.5-.2-.5-.5s.2-.5.5-.5h6.8c.3 0 .5.2.5.5s-.2.5-.5.5m40.4 0h-6.8c-.3 0-.5-.2-.5-.5s.2-.5.5-.5h6.8c.3 0 .5.2.5.5s-.2.5-.5.5M34.3 14.1c-.3 0-.5-.2-.5-.5V6c0-.3.2-.5.5-.5s.5.2.5.5v7.6c0 .2-.2.5-.5.5M23.5 17c-.1 0-.3 0-.4-.1l-5.8-5.8c-.2-.2-.2-.5 0-.7s.5-.2.7 0l5.8 5.8c.2.2.2.5 0 .7 0 0-.2.1-.3.1m21.2-1.1c-.1 0-.3 0-.4-.1-.2-.2-.2-.5 0-.7l5.8-5.8c.2-.2.5-.2.7 0s.2.5 0 .7L45 15.8c0 .1-.1.1-.3.1" class="st3"/></svg>