<svg xmlns="http://www.w3.org/2000/svg" xmlns:xlink="http://www.w3.org/1999/xlink" id="Layer_1" x="0" y="0" version="1.1" viewBox="0 0 68 68" style="enable-background:new 0 0 68 68" xml:space="preserve"><style type="text/css">.st0{fill:#ffed8f}.st1{fill:#cbf7ff}.st2{fill:#002140}.st3{fill:#fff2b2}</style><g><path d="M29.1,47.7c0,0,1.1,1.7,5.7,1.5c4.6-0.2,6.5-1.5,6.5-1.5s2.3-4.9,3.4-7.3c1.1-2.3,4-8,3.4-12.2 c-0.6-4.2-5.9-10.5-14.4-10.5c-8.5,0-11.6,9.6-11.6,12.7c0,3.1,2.3,9.3,2.3,9.3L29.1,47.7L29.1,47.7z" class="st0"/></g><g><path d="M41.3,47.7c0,0-2.4,1.3-5.4,1.2c-3-0.1-7-0.6-7-0.6l2.2,4.9c0,0-0.1,1.7-0.1,2.1c0,0.3,1.2,2.7,3.7,2.7 c2.5,0,4.7-2.1,4.7-2.4S39,53.3,39,53.3S41.1,49.2,41.3,47.7L41.3,47.7z" class="st1"/></g><g><path d="M28.8,49c-0.2,0-0.5-0.2-0.5-0.4c-0.4-2.4-1.7-4.6-3-6.9c-1.8-3.1-3.9-6.5-3.9-11c0-0.3,0.2-0.5,0.5-0.5 s0.5,0.2,0.5,0.5c0,4.2,1.9,7.4,3.8,10.5c1.4,2.4,2.8,4.7,3.2,7.2C29.3,48.7,29.1,49,28.8,49C28.8,49,28.8,49,28.8,49z" class="st2"/></g><g><path d="M41.3,47.9C41.3,47.9,41.3,47.9,41.3,47.9c-0.3,0-0.5-0.3-0.5-0.6c0.3-2.4,1.6-4.5,3.1-6.7 c1.8-2.9,3.7-5.8,3.7-9.7c0-0.3,0.2-0.5,0.5-0.5s0.5,0.2,0.5,0.5c0,4.2-2,7.4-3.9,10.3c-1.4,2.1-2.6,4.2-2.9,6.3 C41.8,47.7,41.6,47.9,41.3,47.9z" class="st2"/></g><g><path d="M48.1,31.2c-0.3,0-0.5-0.2-0.5-0.5c0-7-5.7-12.6-12.6-12.6c-7.2,0-12.6,5.4-12.6,12.6c0,0.3-0.2,0.5-0.5,0.5 s-0.5-0.2-0.5-0.5c0-7.6,6-13.6,13.6-13.6c7.5,0,13.6,6.1,13.6,13.6C48.6,31,48.4,31.2,48.1,31.2z" class="st2"/></g><g><path d="M34.9,55c-3.4,0-6.2-3-6.9-7.4c0-0.3,0.1-0.5,0.4-0.6c0.3,0,0.5,0.1,0.6,0.4c0.6,3.8,3,6.5,5.9,6.5 c2.9,0,5.4-2.9,5.9-6.8c0-0.3,0.3-0.5,0.6-0.4c0.3,0,0.5,0.3,0.4,0.6C41.3,51.7,38.4,55,34.9,55z" class="st2"/></g><g><path d="M34.8,49.4c-3.7,0-6.3-1.4-6.5-1.4c-0.2-0.1-0.3-0.4-0.2-0.7c0.1-0.2,0.4-0.3,0.7-0.2c0.1,0,5.9,3,12.3-0.2 c0.2-0.1,0.5,0,0.7,0.2c0.1,0.2,0,0.5-0.2,0.7C39.1,49,36.8,49.4,34.8,49.4z" class="st2"/></g><g><path d="M35,58.6c-2.7,0-4.9-1.8-4.9-3.9c0-0.5,0.1-1.1,0.4-1.6c0.1-0.2,0.4-0.3,0.7-0.2c0.2,0.1,0.3,0.4,0.2,0.7 c-0.2,0.4-0.3,0.7-0.3,1.1c0,1.6,1.8,2.9,3.9,2.9c2.2,0,3.9-1.3,3.9-2.9c0-0.5-0.2-0.9-0.5-1.4c-0.2-0.2-0.1-0.5,0.1-0.7 c0.2-0.2,0.5-0.1,0.7,0.1c0.4,0.6,0.6,1.3,0.6,1.9C39.9,56.8,37.7,58.6,35,58.6z" class="st2"/></g><g><path d="M35.6,48.9c-0.1,0-0.1,0-0.2,0c-0.3-0.1-0.4-0.4-0.3-0.6c0.5-1.3,0.4-2.7-0.1-4c-0.5,0.4-1,0.6-1.4,0.7 c-0.7,0.1-1.5-0.2-1.8-0.8c-0.3-0.5-0.3-1.2,0.1-1.8c0.3-0.5,0.9-0.8,1.5-0.8c0.7,0,1.4,0.3,1.9,1c0.1-0.2,0.3-0.4,0.3-0.6 c0.2-0.4,0.3-1,0.3-1.6c0-0.7-0.1-1.3-0.3-1.8c-0.3-0.6-0.7-1-1.2-1.2c-0.3-0.1-0.4-0.4-0.3-0.6c0.1-0.3,0.4-0.4,0.6-0.3 c0.8,0.3,1.4,0.9,1.8,1.7c0.3,0.6,0.4,1.4,0.4,2.3c0,0.7-0.2,1.4-0.4,2c-0.2,0.4-0.4,0.7-0.7,1.1c0.8,1.6,0.9,3.4,0.3,5.1 C36,48.8,35.8,48.9,35.6,48.9z M33.4,42.7C33.4,42.7,33.4,42.7,33.4,42.7c-0.3,0-0.6,0.1-0.7,0.4c-0.1,0.2-0.1,0.5,0,0.7 c0.1,0.2,0.5,0.4,0.8,0.3c0.3,0,0.7-0.2,1.1-0.6c0,0,0,0,0,0C34.3,43,33.9,42.7,33.4,42.7z" class="st2"/></g><g><path d="M17.5,24.7h-6.8c-0.3,0-0.5-0.2-0.5-0.5s0.2-0.5,0.5-0.5h6.8c0.3,0,0.5,0.2,0.5,0.5S17.8,24.7,17.5,24.7z" class="st3"/></g><g><path d="M57.9,24.7h-6.8c-0.3,0-0.5-0.2-0.5-0.5s0.2-0.5,0.5-0.5h6.8c0.3,0,0.5,0.2,0.5,0.5S58.2,24.7,57.9,24.7z" class="st3"/></g><g><path d="M34.3,14.1c-0.3,0-0.5-0.2-0.5-0.5V6c0-0.3,0.2-0.5,0.5-0.5s0.5,0.2,0.5,0.5v7.6 C34.8,13.8,34.6,14.1,34.3,14.1z" class="st3"/></g><g><path d="M23.5,17c-0.1,0-0.3,0-0.4-0.1l-5.8-5.8c-0.2-0.2-0.2-0.5,0-0.7s0.5-0.2,0.7,0l5.8,5.8c0.2,0.2,0.2,0.5,0,0.7 C23.8,16.9,23.6,17,23.5,17z" class="st3"/></g><g><path d="M44.7,15.9c-0.1,0-0.3,0-0.4-0.1c-0.2-0.2-0.2-0.5,0-0.7l5.8-5.8c0.2-0.2,0.5-0.2,0.7,0s0.2,0.5,0,0.7 l-5.8,5.8C45,15.9,44.9,15.9,44.7,15.9z" class="st3"/></g></svg>