<svg xmlns="http://www.w3.org/2000/svg" xmlns:xlink="http://www.w3.org/1999/xlink" id="Layer_1" x="0" y="0" version="1.1" viewBox="0 0 20 20" style="enable-background:new 0 0 20 20" xml:space="preserve"><style type="text/css">.st0{fill:#8b9c8f}</style><path d="M2,3c0-1.1,0.9-2,2-2h12c1.1,0,2,0.9,2,2s-0.9,2-2,2H4C2.9,5,2,4.1,2,3z" class="st0"/><path d="M2,10c0-1.1,0.9-2,2-2h9c1.1,0,2,0.9,2,2c0,1.1-0.9,2-2,2H4C2.9,12,2,11.1,2,10z" class="st0"/><path d="M4,15c-1.1,0-2,0.9-2,2c0,1.1,0.9,2,2,2h12c1.1,0,2-0.9,2-2c0-1.1-0.9-2-2-2H4z" class="st0"/></svg>