<svg xmlns="http://www.w3.org/2000/svg" xml:space="preserve" fill="#03d47c" viewBox="0 0 20 20"><path d="M8.8 7.8c0 .4.1.6.4.8.1 0 .4.1.6.2v-2c-.4 0-.7.1-.8.2s-.2.4-.2.8m1.6 2.7v2.2c.2 0 .5-.1.6-.2.2-.2.4-.5.4-.9s-.2-.6-.4-.8c-.1 0-.4-.2-.6-.3"/><path d="M10 1.1C5.1 1.1 1.2 5 1.2 9.9s3.9 8.8 8.8 8.8 8.8-3.9 8.8-8.8c0-4.8-3.9-8.8-8.8-8.8m1.9 12.4c-.4.2-.9.4-1.5.5v1.1h-.6V14c-.8-.1-1.2-.2-1.6-.5-.6-.5-1-1.2-1-2.2h1.5c.1.5.1.8.2 1s.4.4.9.5v-2.5l-.5-.1c-.8-.3-1.3-.6-1.5-1s-.4-.8-.4-1.3c0-.4 0-.6.1-1 .1-.3.3-.5.5-.8s.6-.5.9-.5c.2-.1.5-.1.9-.1v-.7h.5v.8c.6 0 1.1.2 1.5.5.6.4 1 1 1 2h-1.5c0-.4-.1-.6-.1-.8-.1-.4-.4-.5-.8-.5v2.1c.9.4 1.5.6 1.8.9.5.4.8 1 .8 1.6-.1 1-.5 1.6-1.1 2.1"/></svg>