<svg xmlns="http://www.w3.org/2000/svg" width="68" height="68" fill="none" viewBox="0 0 68 68"><path fill="#712b02" d="m7.553 34.115 15.374-12.322 2.348-.354v2.582s-4.106 10.21-4.693 10.21-13.026-.116-13.026-.116z"/><path stroke="#002140" stroke-linecap="round" stroke-linejoin="round" d="m6.499 34.231 15.72-12.06a3.75 3.75 0 0 1 3.632-.523"/><path fill="#06cd7c" d="m30.559 12.103-12.527.81s-1.546 5.782.096 9.032c1.64 3.25 4.035 6.759 3.72 8.838-.315 2.08-1.1 6.858-1.1 6.858l11.905-.545s2.751-4.866 1.747-8.265c-1.005-3.399-6.564-10.366-3.841-16.728"/><path fill="#0b4f38" d="M32.19 34.926c.625-.822.663-1.843.086-2.281s-1.55-.128-2.175.693c-.623.821-.662 1.842-.085 2.28.577.439 1.55.129 2.175-.692m-6.721.608c.623-.822.661-1.843.084-2.281s-1.55-.128-2.174.693c-.624.82-.662 1.842-.085 2.28.577.439 1.55.129 2.174-.693m-4.381-18.926c.624-.821.662-1.842.085-2.28-.577-.44-1.55-.13-2.175.692-.623.821-.662 1.842-.085 2.28.577.44 1.55.129 2.175-.692m6.852-.537c.625-.82.663-1.842.086-2.28s-1.55-.128-2.174.693c-.625.821-.663 1.842-.086 2.28.577.439 1.55.129 2.175-.692m.697 15.141c1.884-.791 2.244-4.213.804-7.645-1.44-3.43-4.135-5.57-6.019-4.78S21.18 23 22.62 26.431s4.135 5.571 6.018 4.78"/><path stroke="#002140" stroke-linecap="round" stroke-linejoin="round" d="M21.82 33.255c1.015-7.912-8.12-12.633-3.502-20.65l12.669-.651c-5.447 9.457 8.244 14.33 1.832 25.266l-12.669.65c.977-1.665 1.49-3.193 1.67-4.615"/><path fill="#06cd7c" d="m48.076 26.111-8.227-9.485s-5.538 2.267-7.133 5.538c-1.595 3.275-2.94 7.304-4.785 8.308a827 827 0 0 1-6.126 3.275l7.64 9.15s5.538-.757 7.639-3.608c2.097-2.854 4.279-11.498 10.995-13.178z"/><path fill="#0b4f38" d="M30.537 40.322c1.032 0 1.868-.588 1.868-1.313 0-.724-.836-1.312-1.868-1.312-1.031 0-1.867.588-1.867 1.312s.836 1.313 1.867 1.313m8.223-19.024c1.031 0 1.867-.587 1.867-1.312s-.836-1.312-1.867-1.312-1.867.587-1.867 1.312.836 1.312 1.867 1.312m4.57 5.132c1.03 0 1.867-.588 1.867-1.313 0-.724-.836-1.312-1.868-1.312-1.031 0-1.867.588-1.867 1.312s.836 1.312 1.867 1.312m-5.062 5.731c1.86-3.222 1.935-6.662.165-7.684-1.77-1.021-4.712.763-6.572 3.985s-1.934 6.663-.165 7.685c1.77 1.021 4.712-.763 6.572-3.986M24.14 36a1.538 1.538 0 1 0 0-3.077 1.538 1.538 0 0 0 0 3.077"/><path fill="#0b4f38" d="M29.883 38.458a1.538 1.538 0 1 0 0-3.077 1.538 1.538 0 0 0 0 3.077"/><path fill="#712b02" d="M8.111 33.527s-1.877.354-1.994 1.525 0 22.765 0 22.765 1.761 1.525 2.582 1.525h38.373s1.644-1.408 1.644-2.932V35.405s-.587-1.878-1.995-1.878z"/><path fill="#c88000" d="M6.233 38.454h35.438s3.285.117 3.285 2.699V52.77s-.703 1.994-4.81 1.994H6z"/><path fill="#f6dc5e" d="M38.587 49.425a2.582 2.582 0 1 0 0-5.163 2.582 2.582 0 0 0 0 5.163"/><path stroke="#002140" stroke-linecap="round" stroke-linejoin="round" d="M46.548 33.443H8.11a2.097 2.097 0 0 0-2.097 2.097v21.51c0 1.159.939 2.097 2.097 2.097h38.436a2.097 2.097 0 0 0 2.098-2.097V35.54a2.097 2.097 0 0 0-2.098-2.097"/><path stroke="#002140" stroke-linecap="round" stroke-linejoin="round" d="M6.435 38.337h34.758c2.147 0 3.883 1.69 3.883 3.774v8.877c0 2.083-1.74 3.774-3.883 3.774H6.275"/><path stroke="#002140" stroke-linecap="round" stroke-linejoin="round" d="M38.587 49.58a2.737 2.737 0 1 0 0-5.474 2.737 2.737 0 0 0 0 5.475M21.84 33.333c11.873-1.863 7.774-15.3 18.43-16.664l8.184 9.694c-4.814.615-6.617 3.695-8.24 7.059"/><path fill="#06cd7c" d="m66.806 20.506-5.04-11.498s-5.963.52-8.456 3.172c-2.494 2.653-4.973 6.101-7.035 6.515-2.061.414-6.822 1.305-6.822 1.305l4.577 11.002s5.513.924 8.364-1.177c2.85-2.101 7.501-9.708 14.412-9.32"/><path fill="#0b4f38" d="M48.077 29.128c.215-.692-.409-1.501-1.394-1.808-.984-.306-1.957.007-2.172.699s.408 1.501 1.393 1.807 1.958-.006 2.173-.698m-2.871-6.11c.215-.692-.409-1.501-1.393-1.807-.985-.307-1.958.006-2.173.698s.409 1.501 1.394 1.808c.985.306 1.957-.007 2.172-.7M61.502 12.44c.215-.693-.409-1.502-1.393-1.808-.985-.306-1.958.007-2.173.699s.409 1.5 1.394 1.807 1.957-.007 2.172-.699m2.842 6.258c.215-.692-.409-1.501-1.394-1.808-.984-.306-1.957.007-2.172.699s.409 1.501 1.393 1.807c.985.306 1.958-.006 2.173-.698m-8.7 4.664c2.733-2.525 3.825-5.788 2.439-7.289s-4.726-.67-7.46 1.854c-2.732 2.525-3.824 5.789-2.438 7.29 1.386 1.5 4.726.67 7.46-1.855"/><path stroke="#002140" stroke-linecap="round" stroke-linejoin="round" d="M67.092 20.86C56.341 18.966 56.436 33.5 43.966 31.203l-4.937-11.689C51.499 21.811 51.404 7.278 62.155 9.17z"/></svg>