<svg width="66" height="53" viewBox="0 0 66 53" fill="none" xmlns="http://www.w3.org/2000/svg">
<path d="M2.54395 26.2883L18.1349 13.7925L20.5165 13.4338V16.0521C20.5165 16.0521 16.3524 26.4066 15.757 26.4066C15.1616 26.4066 2.54752 26.2883 2.54752 26.2883H2.54395Z" fill="#712B02"/>
<path d="M1.4751 26.4066L17.4176 14.1763C18.4936 13.3513 19.8924 13.1792 21.101 13.6454" stroke="#002140" stroke-width="1.07598" stroke-linecap="round" stroke-linejoin="round"/>
<path d="M25.875 3.96497L13.1712 4.7863C13.1712 4.7863 11.6039 10.6504 13.268 13.9465C14.9322 17.2426 17.3604 20.8005 17.0412 22.9095C16.722 25.0184 15.9257 29.8639 15.9257 29.8639L27.9983 29.3116C27.9983 29.3116 30.7887 24.3764 29.7701 20.9296C28.7515 17.4829 23.1133 10.4173 25.875 3.96497Z" fill="#06CD7C"/>
<path d="M27.5303 27.1106C28.1631 26.2779 28.2017 25.2423 27.6166 24.7977C27.0314 24.3531 26.0441 24.6677 25.4114 25.5005C24.7786 26.3332 24.74 27.3687 25.3251 27.8134C25.9102 28.258 26.8975 27.9433 27.5303 27.1106Z" fill="#0B4F38"/>
<path d="M20.7124 27.7272C21.3452 26.8944 21.3838 25.8589 20.7987 25.4143C20.2136 24.9697 19.2263 25.2843 18.5935 26.1171C17.9607 26.9498 17.9221 27.9853 18.5072 28.4299C19.0923 28.8746 20.0797 28.5599 20.7124 27.7272Z" fill="#0B4F38"/>
<path d="M16.27 8.5332C16.9028 7.70046 16.9414 6.66495 16.3563 6.22034C15.7712 5.77572 14.7839 6.09035 14.1511 6.92309C13.5183 7.75584 13.4797 8.79134 14.0648 9.23596C14.65 9.68058 15.6373 9.36595 16.27 8.5332Z" fill="#0B4F38"/>
<path d="M23.2207 7.9895C23.8535 7.15676 23.8921 6.12125 23.307 5.67663C22.7219 5.23201 21.7346 5.54665 21.1018 6.37939C20.469 7.21214 20.4304 8.24764 21.0155 8.69226C21.6007 9.13688 22.588 8.82225 23.2207 7.9895Z" fill="#0B4F38"/>
<path d="M23.9262 23.3443C25.8367 22.5424 26.2015 19.0717 24.7411 15.5923C23.2806 12.1129 20.5479 9.94239 18.6374 10.7443C16.727 11.5462 16.3622 15.0169 17.8226 18.4963C19.2831 21.9757 22.0158 24.1462 23.9262 23.3443Z" fill="#0B4F38"/>
<path d="M17.0117 25.4166C18.041 17.3934 8.77683 12.6052 13.4609 4.47439L26.3082 3.81445C20.7848 13.4051 34.6686 18.3474 28.1661 29.4372L15.3188 30.0971C16.3087 28.4079 16.8288 26.8584 17.0117 25.4166" stroke="#002140" stroke-width="1.07598" stroke-linecap="round" stroke-linejoin="round"/>
<path d="M43.6389 18.1719L35.2965 8.55261C35.2965 8.55261 29.6798 10.8516 28.0623 14.1692C26.4447 17.4904 25.0818 21.5756 23.2096 22.5942C21.3374 23.6164 16.9976 25.9154 16.9976 25.9154L24.7446 35.194C24.7446 35.194 30.3613 34.4264 32.4917 31.5356C34.6186 28.6412 36.8315 19.8755 43.6425 18.1719H43.6389Z" fill="#06CD7C"/>
<path d="M25.8537 32.5829C26.8996 32.5829 27.7474 31.9872 27.7474 31.2523C27.7474 30.5174 26.8996 29.9216 25.8537 29.9216C24.8078 29.9216 23.96 30.5174 23.96 31.2523C23.96 31.9872 24.8078 32.5829 25.8537 32.5829Z" fill="#0B4F38"/>
<path d="M34.1926 13.2905C35.2384 13.2905 36.0863 12.6948 36.0863 11.9599C36.0863 11.225 35.2384 10.6293 34.1926 10.6293C33.1467 10.6293 32.2988 11.225 32.2988 11.9599C32.2988 12.6948 33.1467 13.2905 34.1926 13.2905Z" fill="#0B4F38"/>
<path d="M38.8259 18.4948C39.8717 18.4948 40.7196 17.899 40.7196 17.1641C40.7196 16.4292 39.8717 15.8335 38.8259 15.8335C37.78 15.8335 36.9321 16.4292 36.9321 17.1641C36.9321 17.899 37.78 18.4948 38.8259 18.4948Z" fill="#0B4F38"/>
<path d="M33.6925 24.3064C35.5793 21.0385 35.6542 17.5495 33.8598 16.5135C32.0654 15.4775 29.0813 17.2869 27.1946 20.5548C25.3078 23.8227 25.2329 27.3117 27.0273 28.3477C28.8217 29.3837 31.8058 27.5743 33.6925 24.3064Z" fill="#0B4F38"/>
<path d="M19.3639 28.1999C20.2256 28.1999 20.9241 27.5014 20.9241 26.6398C20.9241 25.7781 20.2256 25.0796 19.3639 25.0796C18.5022 25.0796 17.8037 25.7781 17.8037 26.6398C17.8037 27.5014 18.5022 28.1999 19.3639 28.1999Z" fill="#0B4F38"/>
<path d="M25.1896 30.6925C26.0512 30.6925 26.7497 29.994 26.7497 29.1323C26.7497 28.2707 26.0512 27.5721 25.1896 27.5721C24.3279 27.5721 23.6294 28.2707 23.6294 29.1323C23.6294 29.994 24.3279 30.6925 25.1896 30.6925Z" fill="#0B4F38"/>
<path d="M3.11012 25.6927C3.11012 25.6927 1.20563 26.0514 1.08727 27.2386C0.968913 28.4257 1.08727 50.3256 1.08727 50.3256C1.08727 50.3256 2.8734 51.8714 3.70549 51.8714H42.6202C42.6202 51.8714 44.288 50.444 44.288 48.8981V27.5972C44.288 27.5972 43.6926 25.6927 42.2652 25.6927H3.11371H3.11012Z" fill="#712B02"/>
<path d="M1.20644 30.6892H37.1443C37.1443 30.6892 40.4763 30.8076 40.4763 33.4258V45.2078C40.4763 45.2078 39.7625 47.2307 35.5985 47.2307H0.969727L1.20644 30.6892Z" fill="#C88000"/>
<path d="M34.0162 41.8149C35.4622 41.8149 36.6344 40.6427 36.6344 39.1967C36.6344 37.7507 35.4622 36.5785 34.0162 36.5785C32.5702 36.5785 31.3979 37.7507 31.3979 39.1967C31.3979 40.6427 32.5702 41.8149 34.0162 41.8149Z" fill="#F6DC5E"/>
<path d="M42.09 25.6067H3.11075C1.93611 25.6067 0.983887 26.5589 0.983887 27.7336V49.5473C0.983887 50.722 1.93611 51.6742 3.11075 51.6742H42.09C43.2647 51.6742 44.2169 50.722 44.2169 49.5473V27.7336C44.2169 26.5589 43.2647 25.6067 42.09 25.6067Z" stroke="#002140" stroke-width="1.07598" stroke-linecap="round" stroke-linejoin="round"/>
<path d="M1.41091 30.5707H36.6601C38.8372 30.5707 40.5982 32.2851 40.5982 34.3976V43.4C40.5982 45.5125 38.8336 47.2269 36.6601 47.2269H1.24951" stroke="#002140" stroke-width="1.07598" stroke-linecap="round" stroke-linejoin="round"/>
<path d="M34.0158 41.9726C35.549 41.9726 36.7918 40.7297 36.7918 39.1966C36.7918 37.6634 35.549 36.4205 34.0158 36.4205C32.4826 36.4205 31.2397 37.6634 31.2397 39.1966C31.2397 40.7297 32.4826 41.9726 34.0158 41.9726Z" stroke="#002140" stroke-width="1.07598" stroke-linecap="round" stroke-linejoin="round"/>
<path d="M17.0337 25.4956C29.074 23.6054 24.9171 9.97989 35.7235 8.59546L44.023 18.4264C39.1416 19.0504 37.3124 22.1744 35.6662 25.5852" stroke="#002140" stroke-width="1.07598" stroke-linecap="round" stroke-linejoin="round"/>
<path d="M64.8463 12.4871L59.7354 0.827026C59.7354 0.827026 53.6883 1.35426 51.1598 4.04422C48.6312 6.73418 46.117 10.2311 44.026 10.6508C41.935 11.0704 37.1074 11.9742 37.1074 11.9742L41.7485 23.1322C41.7485 23.1322 47.34 24.0683 50.2308 21.9378C53.1216 19.8074 57.838 12.0926 64.8463 12.4871Z" fill="#06CD7C"/>
<path d="M45.8545 21.2311C46.0727 20.5293 45.4399 19.7087 44.4412 19.3982C43.4425 19.0877 42.456 19.4049 42.2378 20.1067C42.0196 20.8084 42.6524 21.629 43.6511 21.9395C44.6499 22.25 45.6363 21.9328 45.8545 21.2311Z" fill="#0B4F38"/>
<path d="M42.9434 15.035C43.1616 14.3333 42.5288 13.5127 41.5301 13.2022C40.5313 12.8917 39.5448 13.2089 39.3267 13.9106C39.1085 14.6124 39.7413 15.433 40.74 15.7435C41.7387 16.054 42.7252 15.7368 42.9434 15.035Z" fill="#0B4F38"/>
<path d="M59.4693 4.30689C59.6874 3.60513 59.0547 2.78453 58.0559 2.47403C57.0572 2.16354 56.0707 2.48073 55.8526 3.18248C55.6344 3.88424 56.2671 4.70483 57.2659 5.01533C58.2646 5.32582 59.2511 5.00864 59.4693 4.30689Z" fill="#0B4F38"/>
<path d="M62.3501 10.6528C62.5683 9.95108 61.9355 9.13048 60.9368 8.81998C59.9381 8.50949 58.9516 8.82667 58.7334 9.52843C58.5152 10.2302 59.148 11.0508 60.1467 11.3613C61.1455 11.6718 62.1319 11.3546 62.3501 10.6528Z" fill="#0B4F38"/>
<path d="M53.5276 15.383C56.2995 12.8225 57.4068 9.513 56.0009 7.99103C54.5949 6.46906 51.2082 7.31093 48.4364 9.87141C45.6645 12.4319 44.5572 15.7414 45.9631 17.2633C47.369 18.7853 50.7558 17.9434 53.5276 15.383Z" fill="#0B4F38"/>
<path d="M65.1385 12.8457C54.2352 10.9269 54.332 25.6643 41.6856 23.3366L36.6787 11.4828C49.3251 13.8105 49.2283 -0.92687 60.1316 0.991967L65.1385 12.8457V12.8457Z" stroke="#002140" stroke-width="1.07598" stroke-linecap="round" stroke-linejoin="round"/>
</svg>
