<?xml version="1.0" encoding="utf-8"?>
<!-- Generator: Adobe Illustrator 24.3.0, SVG Export Plug-In . SVG Version: 6.00 Build 0)  -->
<svg version="1.1" id="Layer_1" fill="#03D47C" xmlns="http://www.w3.org/2000/svg" xmlns:xlink="http://www.w3.org/1999/xlink" x="0px" y="0px"
	 viewBox="0 0 20 20" style="enable-background:new 0 0 20 20;" xml:space="preserve">
<path d="M8.8,7.8c0,0.4,0.1,0.6,0.4,0.8c0.1,0,0.4,0.1,0.6,0.2v-2C9.4,6.8,9.1,6.9,9,7S8.8,7.4,8.8,7.8z"/>
<path d="M10.4,10.5v2.2c0.2,0,0.5-0.1,0.6-0.2c0.2-0.2,0.4-0.5,0.4-0.9S11.2,11,11,10.8C10.9,10.8,10.6,10.6,10.4,10.5z"/>
<path d="M10,1.1C5.1,1.1,1.2,5,1.2,9.9s3.9,8.8,8.8,8.8s8.8-3.9,8.8-8.8C18.8,5.1,14.9,1.1,10,1.1z M11.9,13.5
	c-0.4,0.2-0.9,0.4-1.5,0.5v1.1H9.8V14c-0.8-0.1-1.2-0.2-1.6-0.5c-0.6-0.5-1-1.2-1-2.2h1.5c0.1,0.5,0.1,0.8,0.2,1s0.4,0.4,0.9,0.5
	v-2.5l-0.5-0.1C8.5,9.9,8,9.6,7.8,9.2S7.4,8.4,7.4,7.9c0-0.4,0-0.6,0.1-1C7.6,6.6,7.8,6.4,8,6.1s0.6-0.5,0.9-0.5
	c0.2-0.1,0.5-0.1,0.9-0.1V4.8h0.5v0.8c0.6,0,1.1,0.2,1.5,0.5c0.6,0.4,1,1,1,2h-1.5c0-0.4-0.1-0.6-0.1-0.8c-0.1-0.4-0.4-0.5-0.8-0.5
	v2.1c0.9,0.4,1.5,0.6,1.8,0.9c0.5,0.4,0.8,1,0.8,1.6C12.9,12.4,12.5,13,11.9,13.5z"/>
</svg>
