<svg xmlns="http://www.w3.org/2000/svg" xmlns:xlink="http://www.w3.org/1999/xlink" id="Layer_1" x="0" y="0" version="1.1" viewBox="0 0 20 20" style="enable-background:new 0 0 20 20" xml:space="preserve"><path d="M6 18C4.89543 18 4 17.2041 4 16.2222L4 3.77778C4 2.79594 4.89543 2 6 2C7.10457 2 8 2.79594 8 3.77778L8 16.2222C8 17.2041 7.10457 18 6 18Z"/><path d="M14 18C12.8954 18 12 17.2041 12 16.2222L12 3.77778C12 2.79594 12.8954 2 14 2C15.1046 2 16 2.79594 16 3.77778L16 16.2222C16 17.2041 15.1046 18 14 18Z"/></svg>