<?xml version="1.0" encoding="utf-8"?>
<!-- Generator: Adobe Illustrator 26.5.0, SVG Export Plug-In . SVG Version: 6.00 Build 0)  -->
<svg version="1.1" id="Layer_1" xmlns="http://www.w3.org/2000/svg" xmlns:xlink="http://www.w3.org/1999/xlink" x="0px" y="0px"
	 viewBox="0 0 68 68" style="enable-background:new 0 0 68 68;" xml:space="preserve">
<style type="text/css">
	.st0{fill:#FFC68C;}
	.st1{fill:#FFF2B2;}
	.st2{fill:#0C1B33;}
	.st3{fill:#780505;}
	.st4{fill:#002140;}
</style>
<g>
	<path class="st0" d="M56.8,19.5C58.1,29.5,52,31.6,51,38c-1.4,8.8,1.1,11.2,1.2,11.2c-2.4,4.3-7.4,3.2-7.4,3.2s-1-1.8-1.4-5.6
		c-0.2-1.3-0.2-2.9-0.2-4.7c0.1-6.4,3.4-11,3.4-11s4.8-0.1,6.5-2.7c-2.9,0.4-4.9-0.2-4.9-0.3c0.1-1.6,1-2.6,1-2.6s7.5,0.5,7.5-5.2
		C56.8,20,56.8,19.8,56.8,19.5L56.8,19.5L56.8,19.5z"/>
</g>
<g>
	<path class="st1" d="M43.3,46.8c0,0-1.1-0.2-4,1.2c-2.9,1.3-4.9,3.4-9.4,3.6c-4.4,0.2-7.4-3.6-12.1-3.2c-4.6,0.4-5.9,4.9-5.9,5
		c-2.1-1.4-1.3-6.2-1.3-6.2s1.2-2.3,5-3.8c-1.8-0.8-4.3-0.7-4.3-0.7s2.5-2.4,7.5-3c-3.9-1.2-6.7-0.2-7.4-0.1
		c0.4-4.8,4.5-9.9,4.9-14.5c0.4-4.6-1-8.2-1-8.2s2.2-2.5,7.8-1.7c3.6,0.5,5.8,3.4,11.7,3.9c3.1,0.3,6.3-1.9,8.9-3.5s6.8-1.2,6.8-1.2
		s5.8,0.3,6.3,5.2c0,0.2,0,0.5,0,0.7c0,5.7-7.5,5.2-7.5,5.2s-0.9,1-1,2.6c-0.1,0.1,1.9,0.7,4.9,0.3c-1.7,2.7-6.5,2.7-6.5,2.7
		s-3.3,4.6-3.4,11c0,1.8,0.1,3.3,0.2,4.7L43.3,46.8L43.3,46.8z"/>
</g>
<g>
	<path class="st2" d="M12,53.9c-0.1,0-0.2,0-0.3-0.1c-2.4-1.6-1.6-6.5-1.5-6.7c0-0.1,0-0.1,0-0.1c0-0.1,1-2,4-3.5
		c-1.4-0.3-2.9-0.2-2.9-0.2c-0.2,0-0.4-0.1-0.5-0.3c-0.1-0.2,0-0.4,0.1-0.6c0.1-0.1,1.8-1.7,5.3-2.7c-1.9-0.2-3.3,0.1-4.1,0.3
		c-0.3,0.1-0.5,0.1-0.7,0.1c-0.1,0-0.3,0-0.4-0.1c-0.1-0.1-0.2-0.2-0.1-0.4c0.2-2.5,1.4-5.1,2.5-7.6c1.1-2.4,2.2-4.7,2.4-6.9
		c0.4-4.4-1-7.9-1-8c-0.1-0.2,0-0.4,0.1-0.5c0.1-0.1,2.4-2.7,8.3-1.9c1.6,0.2,3,0.9,4.4,1.6c1.9,0.9,4,2,7.3,2.3
		c2.4,0,4.5-1,6.7-2.1c2.6-1.3,5.3-2.6,9-2.6c0,0,0.1,0,0.1,0c1.7,0.1,6,0.3,6.7,5.4c0,0.1,0.1,0.1,0.1,0.2
		c0.8,6.3-1.3,9.6-3.2,12.6c-1.2,1.9-2.3,3.6-2.7,6c-1.3,8.1,0.8,10.5,1,10.7c0.1,0,0.1,0.1,0.2,0.2c0.1,0.2,0.1,0.3,0,0.5
		c-2.5,4.6-7.9,3.5-7.9,3.5c-0.1,0-0.3-0.1-0.3-0.3c0-0.1-0.9-1.8-1.4-5.3c-0.4,0-1.5,0.2-3.5,1.1c-0.8,0.4-1.5,0.8-2.3,1.2
		c-2,1.1-4,2.3-7.3,2.4c-2.3,0.1-4.2-0.8-6-1.6c-1.9-0.9-3.8-1.7-6-1.6c-4.3,0.3-5.4,4.6-5.5,4.6c0,0.2-0.1,0.3-0.3,0.4
		C12.1,53.9,12.1,53.9,12,53.9z M11.1,47.3c-0.2,1.1-0.3,3.8,0.6,5.1c0.6-1.5,2.4-4.3,6.1-4.6c2.5-0.2,4.5,0.7,6.5,1.7
		c1.8,0.8,3.5,1.6,5.6,1.5c3.1-0.1,4.9-1.2,6.8-2.3c0.7-0.4,1.5-0.9,2.3-1.2c2-0.9,3.2-1.1,3.8-1.2c-0.1-1.3-0.2-2.7-0.2-4.2
		c0.1-6.5,3.3-11.1,3.5-11.3c0.1-0.1,0.2-0.2,0.4-0.2c0,0,3.4-0.1,5.3-1.6c-2.1,0.1-3.9-0.2-4.1-0.7c0-0.1-0.1-0.2-0.1-0.3
		c0.1-1.8,1.1-2.9,1.1-2.9C49,25,49.2,25,49.3,25c0,0,3.8,0.2,5.8-1.7c0.8-0.8,1.2-1.8,1.2-3c0-0.2,0-0.5,0-0.7
		c-0.5-4.4-4-4.6-5.8-4.7c0,0,0,0,0,0c-3.5,0-6.1,1.3-8.6,2.5c-2.3,1.1-4.5,2.2-7.1,2.2c-3.5-0.3-5.8-1.4-7.7-2.4
		c-1.4-0.7-2.6-1.3-4.1-1.5c-4.4-0.6-6.5,0.8-7.2,1.3c0.3,1,1.3,4.2,1,8.1c-0.2,2.3-1.3,4.8-2.4,7.2c-1,2.2-2.1,4.5-2.4,6.6
		c1.2-0.3,3.7-0.7,7,0.2c0.2,0.1,0.4,0.3,0.4,0.5c0,0.2-0.2,0.4-0.4,0.5c-2.9,0.3-5,1.3-6.1,2.1c0.9,0.1,2.1,0.2,3.1,0.7
		c0.2,0.1,0.3,0.3,0.3,0.5c0,0.2-0.1,0.4-0.3,0.5C12.6,45.1,11.3,47,11.1,47.3z M45.2,52c1,0.2,4.5,0.5,6.4-2.7
		c-0.6-0.8-2.3-3.8-1.1-11.4c0.4-2.6,1.6-4.5,2.8-6.4c1.4-2.3,2.9-4.6,3.2-8.3c-0.2,0.3-0.4,0.5-0.7,0.8c-2,1.9-5.3,2-6.3,1.9
		c-0.2,0.3-0.6,0.9-0.7,1.8c0.6,0.2,2.2,0.4,4.3,0.1c0.2,0,0.4,0.1,0.5,0.2c0.1,0.2,0.1,0.4,0,0.5c-1.6,2.5-5.6,2.9-6.7,3
		c-0.6,1-3.1,5.1-3.2,10.5c0,1.6,0,3.2,0.2,4.6C44.3,49.7,45,51.4,45.2,52z"/>
</g>
<g>
	<path class="st3" d="M31.1,27.4l-1.3-1.7l2.2-1.3l-0.6-0.9l-2.2,1.3L27.8,23l-1.1,0.6l1.5,1.9L26,26.8l0.6,0.8l2.2-1.3l1.2,1.6
		L31.1,27.4z"/>
	<path class="st3" d="M30.1,28.5c-0.2,0-0.3-0.1-0.4-0.2l-1-1.3l-1.8,1.1c-0.2,0.1-0.5,0.1-0.7-0.1l-0.6-0.8
		c-0.1-0.1-0.1-0.3-0.1-0.4c0-0.1,0.1-0.3,0.2-0.3l1.7-1l-1.1-1.5c-0.1-0.1-0.1-0.3-0.1-0.4s0.1-0.3,0.2-0.3l1.1-0.6
		c0.2-0.1,0.5-0.1,0.6,0.1l1.1,1.5l1.8-1.1c0.2-0.1,0.5-0.1,0.7,0.1l0.6,0.9c0.1,0.1,0.1,0.3,0.1,0.4c0,0.1-0.1,0.3-0.2,0.3l-1.7,1
		l0.9,1.2c0.1,0.1,0.1,0.3,0.1,0.4s-0.1,0.3-0.2,0.3l-1,0.6C30.2,28.5,30.1,28.5,30.1,28.5z M28.8,25.9c0.2,0,0.3,0.1,0.4,0.2l1,1.3
		l0.2-0.1l-1-1.3c-0.1-0.1-0.1-0.3-0.1-0.4c0-0.1,0.1-0.3,0.2-0.3l1.7-1l0,0l-1.8,1.1c-0.2,0.1-0.5,0.1-0.7-0.1l-1.2-1.5l-0.2,0.1
		l1.1,1.4c0.1,0.1,0.1,0.3,0.1,0.4c0,0.1-0.1,0.3-0.2,0.3L26.7,27l0,0l1.8-1.1C28.6,25.9,28.7,25.9,28.8,25.9z"/>
</g>
<g>
	<path class="st3" d="M34.1,40.4l-1.3-1.7l2.2-1.3l-0.6-0.9l-2.2,1.3L30.8,36l-1.1,0.6l1.5,1.9L29,39.8l0.6,0.8l2.2-1.3l1.2,1.6
		L34.1,40.4z"/>
	<path class="st3" d="M33.1,41.5c-0.2,0-0.3-0.1-0.4-0.2l-1-1.3l-1.8,1.1c-0.2,0.1-0.5,0.1-0.7-0.1l-0.6-0.8
		c-0.1-0.1-0.1-0.3-0.1-0.4c0-0.1,0.1-0.3,0.2-0.3l1.7-1l-1.1-1.5c-0.1-0.1-0.1-0.3-0.1-0.4s0.1-0.3,0.2-0.3l1.1-0.6
		c0.2-0.1,0.5-0.1,0.6,0.1l1.1,1.5l1.8-1.1c0.2-0.1,0.5-0.1,0.7,0.1l0.6,0.9c0.1,0.1,0.1,0.3,0.1,0.4c0,0.1-0.1,0.3-0.2,0.3l-1.7,1
		l0.9,1.2c0.1,0.1,0.1,0.3,0.1,0.4c0,0.1-0.1,0.3-0.2,0.3l-1,0.6C33.2,41.5,33.1,41.5,33.1,41.5z M31.8,38.9c0.2,0,0.3,0.1,0.4,0.2
		l1,1.3l0.2-0.1l-1-1.3c-0.1-0.1-0.1-0.3-0.1-0.4c0-0.1,0.1-0.3,0.2-0.3l1.7-1l0,0l-1.8,1.1c-0.2,0.1-0.5,0.1-0.7-0.1l-1.2-1.5
		l-0.2,0.1l1.1,1.4c0.1,0.1,0.1,0.3,0.1,0.4c0,0.1-0.1,0.3-0.2,0.3L29.7,40l0,0l1.8-1.1C31.6,38.9,31.7,38.9,31.8,38.9z"/>
</g>
<g>
	<path class="st3" d="M23.7,46.2c-0.2,0-0.3,0-0.5,0c-1.8-0.3-2.9-2-2.6-3.8c0.3-1.8,2-3.1,3.7-2.8c1.8,0.3,2.9,2,2.6,3.8l0,0
		C26.6,45,25.3,46.2,23.7,46.2z M23.8,41.5c-0.6,0-1.1,0.5-1.2,1.1c-0.1,0.7,0.3,1.4,1,1.5c0.7,0.1,1.3-0.4,1.4-1.1l0,0
		c0.1-0.7-0.3-1.4-1-1.5C23.9,41.5,23.8,41.5,23.8,41.5z"/>
</g>
<g>
	<path class="st3" d="M42.7,29.2c-0.2,0-0.3,0-0.5,0c-1.8-0.3-2.9-2-2.6-3.8c0.1-0.9,0.6-1.7,1.3-2.2c0.7-0.5,1.6-0.7,2.4-0.6
		c0.8,0.1,1.6,0.6,2.1,1.3c0.5,0.7,0.7,1.6,0.6,2.5l0,0C45.6,28,44.3,29.2,42.7,29.2z M42.8,24.5c-0.3,0-0.5,0.1-0.7,0.2
		c-0.3,0.2-0.5,0.5-0.5,0.9c-0.1,0.7,0.3,1.4,1,1.5c0.7,0.1,1.3-0.4,1.4-1.1l0,0c0.1-0.4,0-0.7-0.2-1c-0.2-0.3-0.5-0.5-0.8-0.5
		C42.9,24.5,42.8,24.5,42.8,24.5z"/>
</g>
<g>
	<path class="st4" d="M23.6,37.6c0,0.3,0.2,0.5,0.5,0.5c0.3,0,0.5-0.2,0.5-0.5H23.6z M24.2,34.9l-0.5-0.1L24.2,34.9z M24.8,33.3
		l-0.3-0.4L24.8,33.3z M26.4,32.3l-0.2-0.5L26.4,32.3z M29,31.9l-0.1-0.5L29,31.9z M35.6,31.8l0,0.5L35.6,31.8z M40,30.2
		c0.1-0.3-0.1-0.5-0.3-0.6l-4.3-1.4c-0.3-0.1-0.5,0.1-0.6,0.3c-0.1,0.3,0.1,0.5,0.3,0.6l3.8,1.3l-1.3,3.8c-0.1,0.3,0.1,0.5,0.3,0.6
		c0.3,0.1,0.5-0.1,0.6-0.3L40,30.2z M24.6,37.6c0-0.4,0-0.9,0-1.4c0-0.5,0-0.9,0.1-1.3l-1-0.2c-0.1,0.5-0.1,1-0.1,1.4
		c0,0.5,0,0.9,0,1.3H24.6z M24.6,34.9c0-0.3,0.1-0.5,0.2-0.8c0.1-0.3,0.2-0.4,0.3-0.4l-0.6-0.8c-0.4,0.3-0.5,0.6-0.6,1
		c-0.1,0.3-0.2,0.7-0.2,0.9L24.6,34.9z M25.1,33.7c0.5-0.4,1-0.7,1.5-0.9l-0.4-0.9c-0.7,0.2-1.2,0.7-1.7,1L25.1,33.7z M26.5,32.8
		c0.4-0.1,0.7-0.2,1.2-0.2c0.4,0,0.9-0.1,1.3-0.1l-0.1-1c-0.4,0.1-0.8,0.1-1.3,0.1c-0.5,0-0.9,0.1-1.4,0.3L26.5,32.8z M29,32.4
		c0.9-0.1,1.8,0,2.8,0v-1c-0.9,0-2-0.1-2.9,0L29,32.4z M31.8,32.4c1.2,0,2.5,0,3.8-0.1l-0.1-1c-1.2,0.1-2.4,0.1-3.7,0.1V32.4z
		 M35.6,32.3c0.7-0.1,1.7-0.5,2.5-0.9c0.4-0.2,0.8-0.4,1.1-0.6c0.3-0.2,0.5-0.3,0.6-0.3l-0.4-0.9c-0.1,0.1-0.3,0.2-0.6,0.3
		c-0.3,0.2-0.6,0.4-1,0.5c-0.8,0.4-1.6,0.7-2.1,0.8L35.6,32.3z"/>
</g>
</svg>
