<svg width="280" height="255" viewBox="0 0 280 255" fill="none" xmlns="http://www.w3.org/2000/svg">
<g clip-path="url(#clip0_2432_56357)">
<path d="M32.5732 85.4508L136.96 208.765L135.326 214.796L2.84375 150.692C3.56142 146.491 4.47686 142.286 5.59574 138.088C10.9048 118.159 20.2655 100.391 32.5506 85.4338L32.5732 85.4508Z" fill="#FCFBF9"/>
<path d="M182.408 40.9141L140.286 196.484L98.1758 40.9565C122.687 33.1443 149.644 32.0186 176.345 39.1491C178.39 39.695 180.411 40.2833 182.408 40.9141Z" fill="#FCFBF9"/>
<path d="M277.952 150.649L277.743 150.686L145.246 214.795L143.613 208.765L248 85.4507L248.127 85.3489C263.466 104.042 273.841 126.559 277.952 150.649Z" fill="#FCFBF9"/>
<path d="M146.739 220.317L145.244 214.795L277.741 150.686L277.95 150.649C281.225 169.843 280.522 190.032 275.179 210.078C274.198 213.76 273.077 217.364 271.828 220.894H8.94171L8.73828 220.317H146.739Z" fill="#B1F2D6"/>
<path d="M248.124 85.3489L247.997 85.4508L143.611 208.765L140.285 196.484L182.407 40.9141C209.037 49.3117 231.496 65.0831 248.124 85.3489Z" fill="#B1F2D6"/>
<path d="M98.1748 40.9565L140.285 196.484L136.96 208.765L32.5734 85.4508L32.5508 85.4338C49.7239 64.5203 72.6214 49.1053 98.1748 40.9565Z" fill="#B1F2D6"/>
<path d="M135.327 214.796L133.833 220.317H8.73836C1.08421 198.546 -1.25809 174.685 2.84447 150.692L135.327 214.796Z" fill="#B1F2D6"/>
<path d="M140.387 225.991C142.921 218.515 153.09 207.416 171.229 207.416C185.981 207.416 197.201 217.491 212.481 221.199C225.461 224.545 236.613 223.168 236.613 223.168V229.95C236.613 229.95 228.36 231.257 215.49 228.681C198.961 225.991 193.367 216.173 171.351 215.627C157.777 215.627 149.976 224.294 147.62 227.56C145.8 226.57 143.509 225.991 140.387 225.991Z" fill="#FFFAF0"/>
<path d="M153.331 233.48C151.71 231.028 150.107 228.912 147.621 227.56C149.978 224.294 157.779 215.627 171.352 215.627C193.368 216.173 198.962 225.991 215.491 228.68C228.361 231.257 236.614 229.95 236.614 229.95V234.326C236.614 235.638 235.789 236.266 234.23 236.416C202.904 237.946 196.575 223.422 177.096 223.422C162.585 223.422 153.331 233.48 153.331 233.48Z" fill="#FFFAF0"/>
<path d="M103.68 223.422C118.189 223.422 127.445 233.48 127.445 233.48C129.07 231.028 130.669 228.91 133.155 227.56C134.975 226.57 137.266 225.991 140.386 225.991C143.505 225.991 145.799 226.57 147.619 227.56C150.105 228.912 151.707 231.028 153.329 233.48C153.329 233.48 162.583 223.422 177.094 223.422C196.573 223.422 202.902 237.946 234.228 236.416C235.787 236.266 236.612 235.638 236.612 234.326V216.173C236.607 216.156 236.598 216.142 236.593 216.125C235.2 212.649 234.103 207.696 233.552 204.322C234.465 203.519 235.202 202.715 235.776 201.969L229.376 180.617C237.466 181.853 238.757 186.743 239.675 189.659C240.593 192.573 242.433 199.171 244.272 208.683C245.815 216.665 248.979 226.918 249.954 235.752C249.934 245.447 238.135 243.875 228.029 243.875C217.922 243.875 186.189 237.279 173.93 236.51C161.667 235.743 157.59 238.031 153.089 240.648C151.908 245.023 145.644 248.692 140.386 248.692C135.128 248.692 128.866 245.023 127.685 240.648C123.184 238.031 119.107 235.743 106.845 236.51C94.5852 237.279 62.861 243.875 52.7458 243.875C42.6307 243.875 30.8401 245.447 30.8203 235.752C31.7951 226.918 34.9596 216.665 36.5023 208.683C38.3388 199.171 40.1782 192.573 41.0993 189.659C42.0176 186.743 43.3088 181.853 51.3981 180.617L44.9956 201.969C45.5692 202.715 46.3066 203.519 47.2193 204.319C46.6683 207.708 45.5664 212.694 44.1621 216.173V234.326C44.1621 235.638 44.9871 236.266 46.5468 236.416C77.8726 237.946 84.2016 223.422 103.68 223.422Z" fill="#085239"/>
<path d="M170.952 201.016C152.319 201.016 144.113 207.914 140.387 211.011V167.295C140.387 164.226 153.291 148.964 171.922 148.964C190.553 148.964 204.982 161.924 214.055 162.113C218.318 162.113 220.912 162.006 223.37 160.583L229.377 180.617L235.777 201.969C235.203 202.715 234.466 203.519 233.553 204.319C230.126 207.329 224.207 210.313 214.922 210.137C203.903 209.707 195.147 204.78 183.579 202.353C183.577 202.353 183.571 202.351 183.568 202.351C179.734 201.544 175.589 201.016 170.952 201.016Z" fill="#FFFAF0"/>
<path d="M183.582 202.353C195.149 204.78 203.906 209.707 214.925 210.137C224.209 210.313 230.129 207.329 233.556 204.322C234.107 207.696 235.203 212.649 236.596 216.125L236.472 216.173C234.573 216.45 225.808 217.616 214.134 214.301C201.849 210.81 194.827 205.493 183.582 202.353Z" fill="#B1F2D6"/>
<path d="M108.855 148.964C127.486 148.964 140.387 164.226 140.387 167.295V211.011C136.661 207.914 128.458 201.016 109.824 201.016C105.188 201.016 101.043 201.544 97.2087 202.351C85.6357 204.777 76.8768 209.707 65.8575 210.137C56.5731 210.313 50.6509 207.329 47.2236 204.319C46.311 203.519 45.5736 202.715 45 201.969L51.4025 180.617L57.4094 160.583C59.8647 162.006 62.4613 162.113 66.7249 162.113C75.7946 161.924 90.2242 148.964 108.858 148.964H108.855Z" fill="#FFFAF0"/>
<path d="M109.426 215.627C123 215.627 130.801 224.294 133.157 227.56C130.671 228.91 129.072 231.028 127.447 233.48C127.447 233.48 118.191 223.422 103.682 223.422C84.2036 223.422 77.8746 237.946 46.5487 236.416C44.9891 236.266 44.1641 235.638 44.1641 234.326V229.95C44.1641 229.95 52.4144 231.257 65.2843 228.68C81.8161 225.991 87.4076 216.173 109.426 215.627Z" fill="#FFFAF0"/>
<path d="M65.8551 210.137C76.8744 209.707 85.6333 204.777 97.2063 202.35C85.9582 205.49 78.9341 210.81 66.6462 214.301C54.9714 217.616 46.2069 216.45 44.3082 216.173H44.1641C45.5683 212.694 46.6702 207.708 47.2212 204.319C50.6485 207.329 56.5706 210.313 65.8551 210.137Z" fill="#B1F2D6"/>
<path d="M97.2091 202.351C101.043 201.544 105.188 201.016 109.825 201.016C128.459 201.016 136.661 207.914 140.388 211.011C144.115 207.914 152.32 201.016 170.954 201.016C175.59 201.016 179.735 201.544 183.569 202.351C183.572 202.351 183.578 202.353 183.58 202.353C194.826 205.493 201.847 210.81 214.132 214.301C225.807 217.616 234.571 216.45 236.47 216.173L236.594 216.125C236.6 216.142 236.609 216.156 236.614 216.173V223.168C236.614 223.168 225.462 224.545 212.482 221.199C197.202 217.491 185.982 207.416 171.23 207.416C153.091 207.416 142.922 218.515 140.388 225.991C137.853 218.515 127.687 207.416 109.548 207.416C94.7962 207.416 83.5763 217.491 68.2963 221.199C55.3161 224.545 44.1641 223.168 44.1641 223.168V216.173H44.3082C46.2069 216.45 54.9714 217.616 66.6462 214.301C78.9341 210.81 85.9582 205.49 97.2063 202.351H97.2091Z" fill="#FFFAF0"/>
<path d="M109.548 207.416C127.687 207.416 137.853 218.515 140.388 225.991C137.268 225.991 134.977 226.57 133.157 227.56C130.801 224.294 123 215.627 109.426 215.627C87.4076 216.173 81.8161 225.991 65.2843 228.681C52.4144 231.257 44.1641 229.95 44.1641 229.95V223.168C44.1641 223.168 55.3161 224.545 68.2963 221.199C83.5763 217.491 94.7962 207.416 109.548 207.416Z" fill="#FFFAF0"/>
<path d="M30.822 235.752C30.8418 245.447 42.6409 243.875 52.7476 243.875C62.8542 243.875 94.5869 237.279 106.847 236.51C119.109 235.743 123.186 238.031 127.687 240.648C128.868 245.023 135.132 248.692 140.388 248.692C145.643 248.692 151.91 245.023 153.091 240.648C157.592 238.031 161.669 235.743 173.931 236.51C186.191 237.279 217.915 243.875 228.03 243.875C238.145 243.875 249.936 245.447 249.956 235.752C249.981 235.975 250.004 236.196 250.026 236.416C250.171 237.873 250.162 240.953 249.631 243.074C249.1 245.199 248.164 246.918 244.997 248.154C240.539 249.891 233.944 249.645 228.03 249.645C217.915 249.645 186.191 243.049 173.931 242.28C161.669 241.513 156.591 244.805 156.591 244.805C153.636 251.339 146.739 254.134 140.388 254.134C134.036 254.134 127.142 251.339 124.186 244.805C124.186 244.805 119.109 241.513 106.847 242.28C94.5869 243.049 62.8627 249.645 52.7476 249.645C46.8339 249.645 40.2393 249.891 35.7807 248.154C32.6134 246.918 31.6753 245.199 31.147 243.074C30.6158 240.953 30.6073 237.873 30.7514 236.416C30.774 236.196 30.7966 235.975 30.822 235.752Z" fill="#008C59"/>
<path d="M140.387 167.295C140.387 164.226 127.486 148.964 108.855 148.964C90.2239 148.964 75.7915 161.924 66.7218 162.113C62.4582 162.113 59.8616 162.006 57.4062 160.583" stroke="#002140" stroke-linecap="round" stroke-linejoin="round"/>
<path d="M97.2049 202.35C85.6318 204.777 76.8729 209.707 65.8536 210.137C56.5692 210.313 50.647 207.329 47.2197 204.319C46.3071 203.519 45.5697 202.715 44.9961 201.969" stroke="#002140" stroke-linecap="round" stroke-linejoin="round"/>
<path d="M140.386 211.011C136.659 207.914 128.457 201.016 109.823 201.016C105.186 201.016 101.041 201.544 97.207 202.351" stroke="#002140" stroke-linecap="round" stroke-linejoin="round"/>
<path d="M44.1641 223.168C44.1641 223.168 55.3161 224.545 68.2963 221.199C83.5763 217.491 94.7962 207.416 109.548 207.416C127.687 207.416 137.853 218.515 140.388 225.991" stroke="#002140" stroke-linecap="round" stroke-linejoin="round"/>
<path d="M140.386 225.991C137.267 225.991 134.975 226.57 133.156 227.56C130.669 228.91 129.07 231.028 127.445 233.48C127.445 233.48 118.189 223.422 103.68 223.422C84.2017 223.422 77.8727 237.946 46.5469 236.416" stroke="#002140" stroke-linecap="round" stroke-linejoin="round"/>
<path d="M127.688 240.648C128.869 245.023 135.133 248.692 140.388 248.692" stroke="#002140" stroke-linecap="round" stroke-linejoin="round"/>
<path d="M140.388 254.134C134.039 254.134 127.142 251.339 124.186 244.805C124.186 244.805 119.109 241.513 106.847 242.28C94.5869 243.049 62.8627 249.645 52.7476 249.645C46.8339 249.645 40.2393 249.891 35.7807 248.154C32.6134 246.918 31.6753 245.199 31.147 243.074C30.6158 240.953 30.6073 237.873 30.7514 236.416C30.774 236.196 30.7966 235.975 30.822 235.752C31.7968 226.918 34.9613 216.665 36.504 208.683C38.3406 199.171 40.18 192.573 41.1011 189.659C42.0193 186.743 43.3106 181.853 51.3998 180.617" stroke="#002140" stroke-linecap="round" stroke-linejoin="round"/>
<path d="M127.685 240.648C123.184 238.031 119.107 235.743 106.845 236.51C94.5852 237.279 62.861 243.875 52.7458 243.875C42.6307 243.875 30.8401 245.448 30.8203 235.752V235.729" stroke="#002140" stroke-linecap="round" stroke-linejoin="round"/>
<path d="M57.4055 160.583L51.3986 180.617L44.9961 201.969" stroke="#002140" stroke-linecap="round" stroke-linejoin="round"/>
<path d="M44.1641 234.326V229.95V223.168V216.173" stroke="#002140" stroke-linecap="round" stroke-linejoin="round"/>
<path d="M44.1641 234.326C44.1641 235.638 44.9891 236.266 46.5487 236.416" stroke="#002140" stroke-linecap="round" stroke-linejoin="round"/>
<path d="M44.1641 216.173C45.5683 212.694 46.6702 207.708 47.2212 204.319" stroke="#002140" stroke-linecap="round" stroke-linejoin="round"/>
<path d="M44.3086 216.173C46.2073 216.45 54.9719 217.616 66.6466 214.301C78.9345 210.81 85.9586 205.49 97.2068 202.35" stroke="#002140" stroke-linecap="round" stroke-linejoin="round"/>
<path d="M133.157 227.56C130.801 224.294 123 215.627 109.426 215.627C87.4076 216.173 81.8161 225.991 65.2843 228.68C52.4144 231.257 44.1641 229.95 44.1641 229.95" stroke="#002140" stroke-linecap="round" stroke-linejoin="round"/>
<path d="M140.387 167.295C140.387 164.226 153.291 148.964 171.922 148.964C190.553 148.964 204.982 161.924 214.055 162.113C218.318 162.113 220.912 162.006 223.37 160.583" stroke="#002140" stroke-linecap="round" stroke-linejoin="round"/>
<path d="M233.555 204.319C234.467 203.519 235.205 202.715 235.778 201.969" stroke="#002140" stroke-linecap="round" stroke-linejoin="round"/>
<path d="M183.582 202.353C195.149 204.78 203.906 209.707 214.925 210.137C224.209 210.313 230.129 207.329 233.556 204.322" stroke="#002140" stroke-linecap="round" stroke-linejoin="round"/>
<path d="M140.387 211.011C144.113 207.914 152.319 201.016 170.952 201.016C175.589 201.016 179.734 201.544 183.568 202.351" stroke="#002140" stroke-linecap="round" stroke-linejoin="round"/>
<path d="M236.613 223.168C236.613 223.168 225.461 224.545 212.481 221.199C197.201 217.491 185.981 207.416 171.229 207.416C153.09 207.416 142.921 218.515 140.387 225.991" stroke="#002140" stroke-linecap="round" stroke-linejoin="round"/>
<path d="M140.387 225.991C143.509 225.991 145.8 226.57 147.62 227.56C150.106 228.912 151.708 231.028 153.33 233.48C153.33 233.48 162.583 223.422 177.095 223.422C196.574 223.422 202.903 237.946 234.229 236.416" stroke="#002140" stroke-linecap="round" stroke-linejoin="round"/>
<path d="M153.09 240.648C151.909 245.023 145.645 248.692 140.387 248.692" stroke="#002140" stroke-linecap="round" stroke-linejoin="round"/>
<path d="M140.387 254.134C146.738 254.134 153.635 251.339 156.591 244.805C156.591 244.805 161.668 241.513 173.931 242.28C186.19 243.049 217.914 249.645 228.029 249.645C233.943 249.645 240.538 249.891 244.996 248.154C248.164 246.918 249.099 245.199 249.63 243.074C250.161 240.953 250.17 237.873 250.026 236.416C250.003 236.196 249.98 235.975 249.955 235.752C248.98 226.918 245.816 216.665 244.273 208.683C242.434 199.171 240.594 192.573 239.676 189.659C238.758 186.743 237.467 181.853 229.377 180.617" stroke="#002140" stroke-linecap="round" stroke-linejoin="round"/>
<path d="M153.09 240.648C157.591 238.031 161.668 235.743 173.93 236.51C186.19 237.279 217.914 243.875 228.029 243.875C238.144 243.875 249.935 245.448 249.955 235.752V235.729" stroke="#002140" stroke-linecap="round" stroke-linejoin="round"/>
<path d="M223.371 160.583L229.378 180.617L235.778 201.969" stroke="#002140" stroke-linecap="round" stroke-linejoin="round"/>
<path d="M236.613 234.326V229.95V223.168V216.173" stroke="#002140" stroke-linecap="round" stroke-linejoin="round"/>
<path d="M236.615 234.326C236.615 235.638 235.79 236.266 234.23 236.416" stroke="#002140" stroke-linecap="round" stroke-linejoin="round"/>
<path d="M236.615 216.173C236.609 216.156 236.601 216.142 236.595 216.125C235.202 212.649 234.106 207.696 233.555 204.322" stroke="#002140" stroke-linecap="round" stroke-linejoin="round"/>
<path d="M236.471 216.173C234.573 216.45 225.808 217.616 214.133 214.301C201.848 210.81 194.827 205.493 183.582 202.353C183.579 202.353 183.573 202.35 183.57 202.35" stroke="#002140" stroke-linecap="round" stroke-linejoin="round"/>
<path d="M147.621 227.56C149.978 224.294 157.779 215.627 171.352 215.627C193.368 216.173 198.962 225.991 215.491 228.68C228.361 231.257 236.614 229.95 236.614 229.95" stroke="#002140" stroke-linecap="round" stroke-linejoin="round"/>
<path d="M140.387 167.295V211.011" stroke="#002140" stroke-linecap="round" stroke-linejoin="round"/>
<path d="M154.893 58.0038L154.789 62.1701C142.857 63.1629 132.852 57.0365 127.226 48.7576L122.508 51.1165C122.601 46.294 123.194 41.7826 124.197 37.5315C128.204 39.9724 132.287 42.1899 136.494 44.0284L131.035 46.7466C136.963 54.5502 145.699 58.4478 154.893 58.0038Z" fill="#03D47C"/>
<path d="M88.7258 68.4717C90.6048 71.6453 90.6585 75.3562 90.2827 77.8311C89.6526 82.1105 87.5844 86.6671 85.8637 88.466C84.1458 90.2677 81.3147 91.7725 77.7659 90.9013C75.6525 90.4205 73.1322 89.1251 71.9822 84.5543C70.8351 79.9835 72.5529 74.4426 73.2537 73.0453C73.9515 71.6453 75.6694 67.9343 79.1617 66.2146C82.6539 64.4921 86.8441 65.2982 88.7258 68.4717ZM83.51 83.536C84.9821 80.453 86.0925 77.025 85.8241 74.0664C85.5557 71.1079 84.5357 70.0331 82.6003 70.0331C80.6648 70.0331 78.9469 71.914 77.8196 74.0127C76.6922 76.1086 76.0989 79.1746 76.0989 81.8107C76.0989 84.4468 76.7459 85.6828 78.1417 86.3277C79.5375 86.9726 81.956 86.6502 83.51 83.536Z" fill="#03D47C"/>
<path d="M106.666 172.431L110.811 174.655C108.387 181.174 105.16 186.885 100.484 191.622L96.5625 189.289C101.583 184.09 104.951 178.47 106.666 172.431Z" fill="#03D47C"/>
<path d="M211.027 120.416C207.885 118.745 204.577 118.032 200.539 117.605L201.412 113.741C204.384 113.769 207.687 114.573 211.016 116.137H211.103C211.101 112.567 210.86 109.448 210.315 106.325L214.81 105.615C215.373 109.739 215.568 114.047 215.46 118.504C218.52 120.623 221.71 123.731 224.318 127.137L220.769 129.903C219.122 127.23 217.277 125.063 215.217 123.33H215.214C215.008 126.246 214.683 129.473 214.262 132.497L209.951 132.171C210.473 128.121 210.852 124.192 211.016 120.439L211.027 120.416Z" fill="#03D47C"/>
<path d="M190.831 130.231L187.325 133.571C193.326 140.074 195.573 148.992 189.845 159.067L186.13 155.922C189.899 150.132 189.484 141.703 184.505 136.598L180.665 140.238L180.502 140.074C180.177 136.881 179.332 133.328 177.871 129.66C181.423 129.467 185.683 129.589 190.831 130.231Z" fill="#FED607"/>
<path d="M189.822 165.736C189.983 168.573 189.353 171.775 185.609 175.268C181.865 178.764 177.669 179.361 174.106 178.793C171.188 178.388 168.718 176.122 168.436 173.928C168.15 171.733 169.244 169.054 171.027 167.719C172.81 166.384 174.16 165.652 175.564 164.399C176.966 163.143 177.994 161.844 179.613 160.546C181.235 159.248 183.99 158.518 186.259 159.573C188.525 160.628 189.658 162.897 189.822 165.736ZM185.448 166.305C185.448 164.925 184.97 163.986 183.916 163.884C182.862 163.782 181.797 164.724 180.743 165.861C179.69 166.995 177.912 168.576 176.05 169.549C174.186 170.522 172.971 171.085 172.971 172.632C172.971 174.179 174.604 174.612 175.819 174.691C177.034 174.773 179.534 174.332 182.368 172.143C185.14 170.005 185.448 167.682 185.448 166.305Z" fill="#03D47C"/>
<path d="M184.765 60.2214C186.288 62.4813 186.921 64.894 186.478 67.1624C186.031 69.4308 184.712 70.6329 183.031 71.5267C181.352 72.4205 178.148 72.2225 175.888 71.2099C173.627 70.1973 170.793 68.8453 168.482 68.2146C166.171 67.5838 163.809 66.1102 163.021 64.0087C162.232 61.9043 162.286 59.2767 163.6 57.277C164.911 55.2801 167.957 54.2279 170.372 54.1233C172.791 54.0186 174.506 54.2223 177.569 55.2263C180.635 56.2333 183.242 57.9615 184.765 60.2214ZM181.824 66.1639C182.296 64.9534 181.717 63.788 180.827 62.6934C179.937 61.5988 176.676 59.1183 173.209 58.6431C169.742 58.1708 169.324 58.6431 168.536 59.0646C167.748 59.486 167.013 60.8267 167.276 61.9043C167.539 62.9819 168.85 63.7965 170.113 64.218C171.373 64.6394 172.418 64.9025 173.421 65.2702C175.696 66.1074 177.673 67.4763 179.092 67.5301C180.51 67.5838 181.352 67.3717 181.824 66.1639Z" fill="#FED607"/>
<path d="M57.4456 100.6C56.4172 96.9487 55.5837 93.5942 55.1655 90.9411L59.3472 89.6711C59.6156 91.6001 60.1439 94.0496 60.8842 96.9091C62.9101 94.867 65.1083 92.8362 67.4138 90.9411L70.3325 94.7821C67.8603 96.7055 65.08 99.2652 62.3308 102.125C64.0402 107.906 66.0322 113.436 67.3771 115.673L63.5288 117.605C62.2093 115.201 60.531 110.777 58.9601 105.813C56.5669 108.559 54.3178 111.439 52.4643 114.208L49.7773 110.907C51.1901 108.285 53.8912 104.557 57.4032 100.612L57.4456 100.6Z" fill="#FED607"/>
<path d="M92.7001 171.555L89.7419 175.486C87.7895 175.13 86.0433 174.394 84.447 173.382C84.447 173.382 81.2966 175.899 77.129 174.434C73.2525 173.042 71.9528 170.154 71.6618 167.53C71.3708 164.905 72.1252 163.146 72.5348 162.365C71.2577 160.849 70.2095 158.926 69.2969 156.759L73.4814 154.55C73.9052 155.922 74.5522 157.296 75.4225 158.671C76.4029 157.845 77.4314 157.364 78.9684 157.163L81.5141 160.679C81.5141 160.679 78.9684 161.383 77.632 162.758C76.2927 164.133 75.3207 166.61 76.7928 168.655C78.2677 170.7 81.9154 170.502 83.523 168.387C85.1279 166.274 85.029 165.406 85.2296 164.633L89.465 167.53C89.2898 168.76 88.8292 169.648 88.2415 170.386C89.4621 170.918 90.889 171.337 92.7001 171.555Z" fill="#FED607"/>
<path d="M188.042 183.392C189.116 184.574 189.777 187.275 189.082 189.705C188.389 192.137 185.883 194.041 182.041 196.145C179.625 197.469 176.766 198.258 173.364 198.258C169.962 198.258 167.837 197.084 166.45 195.523C165.062 193.959 165.062 191.617 165.758 189.705C166.45 187.795 168.445 186.475 170.538 185.779C172.632 185.086 175.729 183.544 177.336 182.848C178.944 182.156 179.631 181.72 182.32 181.372C185.007 181.027 186.968 182.209 188.042 183.392ZM184.016 189.309C185.57 187.993 184.866 186.081 184.247 185.7C183.174 184.916 181.871 185.377 181.128 185.7C180.382 186.019 178.147 187.094 176.418 187.917C174.692 188.743 173.166 189.218 171.996 189.642C170.824 190.07 170.01 190.983 170.01 192.064C170.01 193.144 171.431 194.329 174.166 193.812C178.108 193.237 181.843 191.501 184.016 189.309Z" fill="#FED607"/>
<path d="M186.675 104.141C185.528 108.947 183.966 113.41 182.152 117.673L182.121 117.704L178.82 114.742L178.804 114.725C177.21 115.701 175.246 116.756 173.345 117.548C170.533 118.722 165.202 119.361 160.961 118.858C156.723 118.351 149.447 116.176 145.429 116.244C141.508 116.306 139.586 117.305 139.499 117.353H139.496C138.936 116.988 138.366 116.671 137.789 116.383C136.829 115.902 135.696 115.413 134.379 114.994C136.035 113.812 139.99 112.287 143.892 112.154C147.839 112.021 154.335 113.195 157.279 113.849C160.226 114.502 164.47 114.887 167.722 114.366C169.954 114.01 173.02 112.816 175.325 111.648V111.608L171.864 108.506C176.436 107.465 181.344 106.045 186.675 104.141Z" fill="#FED607"/>
<path d="M134.732 120.099C132.158 121.91 130.966 123.075 129.669 125.691C128.372 128.31 129.423 131.453 131.07 132.734C132.72 134.018 136.122 133.871 137.738 132.734C139.354 131.6 141.332 129.815 140.278 125.598C139.541 122.637 136.834 120.965 134.774 120.006L134.732 120.099ZM134.379 114.994C135.696 115.413 136.829 115.902 137.789 116.383C138.366 116.671 138.936 116.988 139.496 117.353H139.499C141.341 118.547 143.025 120.218 144.127 122.877C145.562 126.342 145.068 130.536 144.127 132.395C143.186 134.25 140.513 137.302 136.848 138.094C133.184 138.886 129.2 137.78 127.092 135.119C125.309 132.89 124.617 131.252 124.617 127.784C124.617 124.317 126.798 120.442 129.756 118.309C129.333 118.236 128.895 118.176 128.437 118.131C126.027 117.899 122.043 117.936 119.138 118.951C115.222 120.258 112.097 121.91 109.258 124.817L106 121.539C108.238 119.03 112.654 116.705 115.527 115.546C118.398 114.389 121.797 113.849 126.744 113.849C129.773 113.849 132.305 114.335 134.379 114.994Z" fill="#FED607"/>
<path d="M137.657 175.308C138.131 179.689 135.249 181.745 135.249 181.745C135.249 181.745 133.594 183.137 131.565 183.137C129.536 183.137 127.016 182.308 124.422 180.164C121.826 178.02 119.045 173.73 117.992 170.417C116.938 167.105 117.729 164.432 118.63 163.264C119.534 162.099 121.207 160.716 124.558 161.115C128.304 161.556 131.613 164.116 133.825 166.712C136.038 169.309 137.038 171.532 137.657 175.308ZM132.122 178.224C133.667 177.016 133.235 175.011 132.396 172.836C131.557 170.664 130.135 168.93 128.505 167.496C126.875 166.062 124.171 164.848 122.738 165.915C121.8 166.704 121.716 168.412 122.962 171.212C124.21 174.01 125.623 175.444 127.253 176.753C128.884 178.06 131.195 178.94 132.122 178.224Z" fill="#0185FF"/>
<path d="M216.475 157.053L212.477 159.551C212.477 159.551 212.477 156.482 210.835 155.769C209.193 155.056 206.837 156.81 205.743 158.071C204.647 159.333 203.551 161.361 203.497 163.607C203.444 165.855 204.209 166.842 205.797 166.404C207.385 165.966 208.979 164.045 209.357 163.389L212.039 167.224C208.097 172.214 204.757 170.898 204.757 170.898C203.735 172.194 202.274 173.492 200.378 174.787L196.434 172.267C198.205 171.153 199.499 170.038 200.321 168.924C200.321 168.924 197.968 166.24 199.171 161.743C200.378 157.248 203.497 154.072 204.537 153.085C205.577 152.098 207.385 151.167 209.027 151.057C209.428 149.558 209.465 147.694 209.137 145.465L213.68 145.575C214.031 148.09 213.943 150.217 213.573 152.098C214.935 152.989 215.986 154.482 216.475 157.053Z" fill="#0185FF"/>
<path d="M200.105 75.1301C200.178 79.8791 198.788 83.9379 196.129 87.4028C196.983 91.9481 196.231 97.2429 193.64 102.676L188.97 101.652C190.781 98.2725 191.773 94.6916 191.891 91.6398C189.247 93.7271 186.012 95.5402 182.251 97.1043L180.395 93.3877C184.548 91.4927 188.306 89.3911 191.046 86.7522C189.919 83.5957 187.67 80.2779 184.234 77.5654L188.713 75.5798C191.027 77.5767 192.829 80.1761 194.118 82.4388H194.268C195.296 80.3288 195.765 77.9218 195.497 75.1301H200.105Z" fill="#0185FF"/>
<path d="M116.3 21.8959H116.294C114.834 20.7928 113.901 19.6642 113.316 18.7931L116.422 15.5347C116.422 15.5347 117.911 17.6758 121.55 20.2045C125.189 22.7303 127.865 22.7303 128.458 20.872C129.051 19.0137 126.607 18.7874 125.118 17.7522C123.629 16.717 120.815 14.7003 122.508 10.3134C123.42 7.94598 125.381 6.96451 127.342 6.66753V6.65055C128.698 4.87712 130.088 3.08954 131.524 1.27368C132.888 1.67815 134.208 2.16747 135.485 2.74164C134.335 4.19829 133.151 5.50221 132.024 6.96734C132.849 7.15402 133.648 7.40292 134.538 7.84699C135.581 6.50065 136.626 5.15714 137.68 3.82494C138.926 4.49811 140.136 5.25047 141.308 6.07638C140.223 7.451 139.144 8.82846 138.076 10.2144L138.065 10.2257C139.206 11.1563 140.147 12.1151 141.009 13.2521L137.669 16.0382C136.556 14.8502 135.005 13.2917 133.36 12.0981C131.716 10.9045 128.385 9.79296 127.006 11.8662C125.63 14.3835 128.837 15.4216 130.345 16.338C131.854 17.2516 135.154 20.1196 133.25 23.5562C131.343 26.9927 128.811 26.7099 126.087 26.5713V26.5883C124.875 28.3391 123.683 30.104 122.508 31.8775C121.219 31.2467 119.959 30.5849 118.733 29.8777L118.786 29.7816C119.713 28.3843 120.654 26.9899 121.606 25.5983L121.626 25.4399C121.572 25.4145 121.516 25.3862 121.462 25.3607C120.906 25.0807 120.346 24.7611 119.79 24.4132L119.575 24.2774C118.62 25.6718 117.676 27.0748 116.744 28.4833L116.713 28.5314C115.614 27.8243 114.373 27.0748 113.353 26.2771C114.336 24.7894 115.32 23.3327 116.3 21.8959Z" fill="#0185FF"/>
<path d="M115.435 58.3546C116.065 60.8775 115.475 65.3748 114.212 68.6473C112.361 72.9861 110.078 75.4695 108.03 77.0082C105.981 78.544 102.868 78.9004 101.254 78.2527C99.6381 77.605 98.4514 76.7734 97.6688 74.6012C96.8833 72.4317 97.4371 67.6997 98.3384 64.8628C99.2397 62.0231 101.568 58.2754 103.893 55.9108C106.216 53.5434 109.132 53.1502 111.378 53.5434C113.621 53.9394 114.805 55.8316 115.435 58.3546ZM110.669 63.9549C111.378 60.6428 111.299 58.7901 110.194 58.1962C109.092 57.605 107.25 58.4479 105.942 60.2864C104.735 61.8024 102.198 66.6362 101.924 68.6077C101.647 69.9484 101.41 73.4528 102.828 73.9251C104.246 74.4003 105.735 73.2067 106.925 71.7614C108.114 70.3189 109.959 67.267 110.669 63.9549Z" fill="#0185FF"/>
<path d="M105.894 131.113L102.086 133.221C99.0143 125.069 94.0726 119.579 87.9922 115.707L91.151 112.706C97.6637 116.94 102.877 122.719 105.894 131.113Z" fill="#0185FF"/>
<path d="M113.92 156.609L112.024 160.679C88.6603 149.114 77.7287 132.185 74.2957 107.996L67.5938 108.46C70.0293 104.11 73.1373 99.992 76.3809 96.2273C78.435 99.3952 81.1079 103.069 85.1087 107.25L78.7769 107.685C82.012 130.517 93.0454 146.115 113.92 156.609Z" fill="#0185FF"/>
<path d="M89.739 175.486C87.7866 175.13 86.0405 174.394 84.4441 173.382C84.4441 173.382 81.2937 175.899 77.1262 174.434C73.2496 173.042 71.9499 170.154 71.6589 167.53C71.3679 164.905 72.1223 163.146 72.532 162.365" stroke="#002140" stroke-linecap="round" stroke-linejoin="round"/>
<path d="M88.2422 170.386C89.4628 170.918 90.8896 171.337 92.7008 171.555" stroke="#002140" stroke-linecap="round" stroke-linejoin="round"/>
<path d="M89.4656 167.53C89.2904 168.76 88.8299 169.648 88.2422 170.386" stroke="#002140" stroke-linecap="round" stroke-linejoin="round"/>
<path d="M72.5348 162.365C71.2577 160.849 70.2095 158.925 69.2969 156.759" stroke="#002140" stroke-linecap="round" stroke-linejoin="round"/>
<path d="M75.4216 158.671C74.5513 157.296 73.9043 155.922 73.4805 154.55" stroke="#002140" stroke-linecap="round" stroke-linejoin="round"/>
<path d="M75.4219 158.671C76.4023 157.845 77.4308 157.364 78.9678 157.163" stroke="#002140" stroke-linecap="round" stroke-linejoin="round"/>
<path d="M81.5127 160.679C81.5127 160.679 78.9669 161.383 77.6305 162.758C76.2912 164.133 75.3193 166.61 76.7913 168.655C78.2662 170.7 81.9139 170.502 83.5216 168.387C85.1264 166.274 85.0275 165.406 85.2281 164.633" stroke="#002140" stroke-linecap="round" stroke-linejoin="round"/>
<path d="M81.5145 160.679L78.9688 157.163" stroke="#002140" stroke-linecap="round" stroke-linejoin="round"/>
<path d="M85.2266 164.633L89.4619 167.53" stroke="#002140" stroke-linecap="round" stroke-linejoin="round"/>
<path d="M89.7422 175.486L92.7004 171.555" stroke="#002140" stroke-linecap="round" stroke-linejoin="round"/>
<path d="M69.2969 156.759L73.4814 154.55" stroke="#002140" stroke-linecap="round" stroke-linejoin="round"/>
<path d="M96.5625 189.289C101.583 184.09 104.951 178.47 106.666 172.431" stroke="#002140" stroke-linecap="round" stroke-linejoin="round"/>
<path d="M100.484 191.622C105.161 186.885 108.387 181.174 110.811 174.655" stroke="#002140" stroke-linecap="round" stroke-linejoin="round"/>
<path d="M100.484 191.622L96.5625 189.289" stroke="#002140" stroke-linecap="round" stroke-linejoin="round"/>
<path d="M106.668 172.431L110.813 174.655" stroke="#002140" stroke-linecap="round" stroke-linejoin="round"/>
<path d="M122.739 165.915C121.801 166.704 121.717 168.412 122.963 171.212C124.212 174.01 125.624 175.444 127.255 176.753C128.885 178.06 131.196 178.94 132.123 178.224C133.668 177.016 133.236 175.011 132.397 172.836C131.558 170.664 130.137 168.93 128.506 167.496C126.876 166.062 124.172 164.848 122.739 165.915Z" stroke="#002140" stroke-linecap="round" stroke-linejoin="round"/>
<path d="M135.249 181.745C135.249 181.745 138.131 179.689 137.657 175.308C137.038 171.532 136.038 169.309 133.825 166.712C131.613 164.116 128.304 161.556 124.558 161.115C121.207 160.716 119.534 162.099 118.63 163.264C117.729 164.432 116.938 167.105 117.992 170.417C119.045 173.73 121.826 178.02 124.422 180.164C127.016 182.308 129.534 183.137 131.565 183.137C133.597 183.137 135.249 181.745 135.249 181.745Z" stroke="#002140" stroke-linecap="round" stroke-linejoin="round"/>
<path d="M74.293 107.997C77.7259 132.185 88.6576 149.114 112.021 160.679" stroke="#002140" stroke-linecap="round" stroke-linejoin="round"/>
<path d="M113.916 156.609C93.042 146.116 82.0086 130.517 78.7734 107.686" stroke="#002140" stroke-linecap="round" stroke-linejoin="round"/>
<path d="M112.023 160.679L113.919 156.609" stroke="#002140" stroke-linecap="round" stroke-linejoin="round"/>
<path d="M67.5938 108.46L74.2957 107.997" stroke="#002140" stroke-linecap="round" stroke-linejoin="round"/>
<path d="M78.7734 107.685L85.1053 107.25" stroke="#002140" stroke-linecap="round" stroke-linejoin="round"/>
<path d="M67.5938 108.46C70.0293 104.11 73.1373 99.992 76.3809 96.2273" stroke="#002140" stroke-linecap="round" stroke-linejoin="round"/>
<path d="M85.1067 107.25C81.1059 103.069 78.433 99.3952 76.3789 96.2273" stroke="#002140" stroke-linecap="round" stroke-linejoin="round"/>
<path d="M58.9609 105.813C60.5319 110.777 62.2102 115.201 63.5297 117.605" stroke="#002140" stroke-linecap="round" stroke-linejoin="round"/>
<path d="M55.1641 90.9409C55.5822 93.594 56.4157 96.9485 57.4442 100.6C57.4442 100.603 57.447 100.609 57.447 100.611" stroke="#002140" stroke-linecap="round" stroke-linejoin="round"/>
<path d="M60.8847 96.9091C60.1444 94.0496 59.6161 91.6001 59.3477 89.6711" stroke="#002140" stroke-linecap="round" stroke-linejoin="round"/>
<path d="M67.3783 115.673C66.0334 113.436 64.0414 107.906 62.332 102.125" stroke="#002140" stroke-linecap="round" stroke-linejoin="round"/>
<path d="M60.8828 96.9089C62.9087 94.8668 65.1069 92.836 67.4124 90.9409" stroke="#002140" stroke-linecap="round" stroke-linejoin="round"/>
<path d="M49.7773 110.907C51.1901 108.285 53.8912 104.557 57.4032 100.612" stroke="#002140" stroke-linecap="round" stroke-linejoin="round"/>
<path d="M58.9606 105.813C56.5674 108.559 54.3183 111.439 52.4648 114.208" stroke="#002140" stroke-linecap="round" stroke-linejoin="round"/>
<path d="M70.3337 94.782C67.8614 96.7053 65.0812 99.2651 62.332 102.125" stroke="#002140" stroke-linecap="round" stroke-linejoin="round"/>
<path d="M102.086 133.221C99.0143 125.069 94.0726 119.579 87.9922 115.707" stroke="#002140" stroke-linecap="round" stroke-linejoin="round"/>
<path d="M91.1523 112.706C97.665 116.94 102.878 122.719 105.896 131.113" stroke="#002140" stroke-linecap="round" stroke-linejoin="round"/>
<path d="M87.9922 115.707L91.151 112.706" stroke="#002140" stroke-linecap="round" stroke-linejoin="round"/>
<path d="M102.086 133.221L105.895 131.113" stroke="#002140" stroke-linecap="round" stroke-linejoin="round"/>
<path d="M109.258 124.817C112.097 121.91 115.222 120.258 119.138 118.951C122.043 117.936 126.027 117.899 128.437 118.131C128.895 118.176 129.333 118.236 129.756 118.309C131.551 118.626 133.059 119.214 134.732 119.986C134.746 119.992 134.76 120 134.774 120.006C136.834 120.965 139.541 122.637 140.278 125.598C141.332 129.815 139.355 131.6 137.738 132.734C136.122 133.871 132.72 134.018 131.07 132.734C129.423 131.453 128.372 128.31 129.669 125.691C130.966 123.075 132.158 121.91 134.732 120.099" stroke="#002140" stroke-linecap="round" stroke-linejoin="round"/>
<path d="M139.495 117.353C141.337 118.547 143.021 120.218 144.123 122.877C145.558 126.342 145.064 130.536 144.123 132.395C143.182 134.25 140.509 137.302 136.845 138.094C133.18 138.886 129.196 137.78 127.088 135.118C125.306 132.89 124.613 131.252 124.613 127.784C124.613 124.317 126.795 120.442 129.753 118.309" stroke="#002140" stroke-linecap="round" stroke-linejoin="round"/>
<path d="M106 121.539C108.238 119.03 112.654 116.705 115.527 115.546C118.398 114.389 121.797 113.849 126.744 113.849C129.773 113.849 132.305 114.335 134.379 114.994C135.696 115.413 136.829 115.902 137.789 116.383C138.366 116.671 138.936 116.988 139.496 117.353" stroke="#002140" stroke-linecap="round" stroke-linejoin="round"/>
<path d="M139.492 117.353H139.495C139.583 117.305 141.504 116.307 145.426 116.244C149.443 116.176 156.719 118.352 160.957 118.858C165.198 119.361 170.53 118.722 173.341 117.548C175.243 116.756 177.206 115.701 178.8 114.725" stroke="#002140" stroke-linecap="round" stroke-linejoin="round"/>
<path d="M134.316 115.037L134.376 114.994C136.031 113.812 139.987 112.287 143.889 112.154C147.836 112.021 154.332 113.195 157.276 113.849C160.223 114.502 164.467 114.887 167.719 114.366C169.951 114.01 173.017 112.816 175.322 111.648" stroke="#002140" stroke-linecap="round" stroke-linejoin="round"/>
<path d="M186.672 104.141C185.525 108.947 183.962 113.41 182.148 117.673" stroke="#002140" stroke-linecap="round" stroke-linejoin="round"/>
<path d="M171.863 108.506C176.435 107.465 181.343 106.045 186.674 104.141" stroke="#002140" stroke-linecap="round" stroke-linejoin="round"/>
<path d="M182.12 117.704L178.82 114.742" stroke="#002140" stroke-linecap="round" stroke-linejoin="round"/>
<path d="M175.324 111.608L171.863 108.506" stroke="#002140" stroke-linecap="round" stroke-linejoin="round"/>
<path d="M106 121.539L109.258 124.817" stroke="#002140" stroke-linecap="round" stroke-linejoin="round"/>
<path d="M176.416 187.917C178.145 187.094 180.38 186.019 181.126 185.7C181.869 185.377 183.172 184.916 184.245 185.7C184.864 186.081 185.568 187.993 184.014 189.309C181.841 191.501 178.106 193.237 174.164 193.812C171.429 194.329 170.008 193.141 170.008 192.064C170.008 190.986 170.822 190.07 171.994 189.642C173.164 189.218 174.69 188.743 176.416 187.917Z" stroke="#002140" stroke-linecap="round" stroke-linejoin="round"/>
<path d="M182.041 196.145C185.883 194.041 188.389 192.137 189.082 189.705C189.777 187.275 189.116 184.574 188.042 183.392C186.968 182.209 185.007 181.027 182.32 181.372C179.631 181.72 178.944 182.156 177.336 182.848C175.729 183.544 172.632 185.086 170.538 185.779C168.445 186.475 166.45 187.795 165.758 189.705C165.062 191.617 165.062 193.959 166.45 195.523C167.837 197.084 169.959 198.258 173.364 198.258C176.768 198.258 179.625 197.469 182.041 196.145Z" stroke="#002140" stroke-linecap="round" stroke-linejoin="round"/>
<path d="M185.609 175.268C189.353 171.775 189.983 168.573 189.822 165.736C189.658 162.897 188.525 160.628 186.259 159.573C183.99 158.518 181.235 159.248 179.613 160.546C177.994 161.844 176.966 163.143 175.564 164.399C174.16 165.652 172.81 166.384 171.027 167.719C169.244 169.054 168.15 171.733 168.436 173.928C168.718 176.122 171.188 178.388 174.106 178.793C177.669 179.361 181.865 178.764 185.609 175.268Z" stroke="#002140" stroke-linecap="round" stroke-linejoin="round"/>
<path d="M182.366 172.143C185.138 170.005 185.446 167.682 185.446 166.305C185.446 164.927 184.968 163.986 183.915 163.884C182.861 163.782 181.795 164.724 180.742 165.861C179.688 166.995 177.91 168.576 176.049 169.549C174.184 170.522 172.969 171.085 172.969 172.632C172.969 174.179 174.602 174.612 175.817 174.691C177.032 174.773 179.532 174.332 182.366 172.143Z" stroke="#002140" stroke-linecap="round" stroke-linejoin="round"/>
<path d="M177.871 129.66C181.423 129.467 185.683 129.589 190.831 130.231" stroke="#002140" stroke-linecap="round" stroke-linejoin="round"/>
<path d="M180.502 140.074C180.177 136.881 179.332 133.328 177.871 129.66" stroke="#002140" stroke-linecap="round" stroke-linejoin="round"/>
<path d="M186.129 155.922C189.898 150.132 189.482 141.703 184.504 136.598" stroke="#002140" stroke-linecap="round" stroke-linejoin="round"/>
<path d="M189.845 159.067C195.572 148.992 193.325 140.074 187.324 133.571" stroke="#002140" stroke-linecap="round" stroke-linejoin="round"/>
<path d="M187.324 133.571L190.831 130.231" stroke="#002140" stroke-linecap="round" stroke-linejoin="round"/>
<path d="M180.664 140.238L184.504 136.598" stroke="#002140" stroke-linecap="round" stroke-linejoin="round"/>
<path d="M189.844 159.067L186.129 155.922" stroke="#002140" stroke-linecap="round" stroke-linejoin="round"/>
<path d="M200.379 174.787C202.275 173.492 203.736 172.194 204.758 170.898C204.758 170.898 208.098 172.213 212.04 167.224" stroke="#002140" stroke-linecap="round" stroke-linejoin="round"/>
<path d="M196.434 172.267C198.205 171.153 199.499 170.038 200.321 168.924C200.321 168.924 197.968 166.24 199.171 161.743C200.378 157.248 203.497 154.072 204.537 153.085C205.577 152.098 207.385 151.167 209.027 151.057C209.428 149.558 209.465 147.694 209.137 145.465" stroke="#002140" stroke-linecap="round" stroke-linejoin="round"/>
<path d="M213.574 152.098C213.944 150.217 214.032 148.09 213.682 145.575" stroke="#002140" stroke-linecap="round" stroke-linejoin="round"/>
<path d="M196.434 172.267L200.378 174.787" stroke="#002140" stroke-linecap="round" stroke-linejoin="round"/>
<path d="M209.137 145.465L213.68 145.575" stroke="#002140" stroke-linecap="round" stroke-linejoin="round"/>
<path d="M212.478 159.551C212.478 159.551 212.478 156.482 210.836 155.769C209.195 155.056 206.838 156.81 205.745 158.071C204.649 159.333 203.552 161.361 203.499 163.607C203.445 165.855 204.211 166.842 205.799 166.404C207.387 165.966 208.98 164.045 209.359 163.389" stroke="#002140" stroke-linecap="round" stroke-linejoin="round"/>
<path d="M216.476 157.053C215.987 154.482 214.936 152.989 213.574 152.098" stroke="#002140" stroke-linecap="round" stroke-linejoin="round"/>
<path d="M209.359 163.389L212.041 167.224" stroke="#002140" stroke-linecap="round" stroke-linejoin="round"/>
<path d="M212.477 159.551L216.475 157.053" stroke="#002140" stroke-linecap="round" stroke-linejoin="round"/>
<path d="M211.105 116.137C211.102 112.567 210.862 109.448 210.316 106.325" stroke="#002140" stroke-linecap="round" stroke-linejoin="round"/>
<path d="M209.953 132.171C210.476 128.121 210.854 124.192 211.018 120.439" stroke="#002140" stroke-linecap="round" stroke-linejoin="round"/>
<path d="M215.218 123.33C215.012 126.246 214.687 129.473 214.266 132.497" stroke="#002140" stroke-linecap="round" stroke-linejoin="round"/>
<path d="M214.812 105.615C215.375 109.739 215.57 114.047 215.462 118.504" stroke="#002140" stroke-linecap="round" stroke-linejoin="round"/>
<path d="M215.219 123.33C217.279 125.063 219.124 127.23 220.771 129.903" stroke="#002140" stroke-linecap="round" stroke-linejoin="round"/>
<path d="M200.539 117.605C204.577 118.032 207.885 118.745 211.027 120.416C211.027 120.416 211.033 120.416 211.036 120.416" stroke="#002140" stroke-linecap="round" stroke-linejoin="round"/>
<path d="M211.018 116.137C207.689 114.573 204.386 113.769 201.414 113.741" stroke="#002140" stroke-linecap="round" stroke-linejoin="round"/>
<path d="M224.319 127.137C221.711 123.731 218.521 120.623 215.461 118.504" stroke="#002140" stroke-linecap="round" stroke-linejoin="round"/>
<path d="M210.316 106.325L214.812 105.615" stroke="#002140" stroke-linecap="round" stroke-linejoin="round"/>
<path d="M209.953 132.171L214.265 132.497" stroke="#002140" stroke-linecap="round" stroke-linejoin="round"/>
<path d="M220.77 129.903L224.318 127.137" stroke="#002140" stroke-linecap="round" stroke-linejoin="round"/>
<path d="M201.412 113.741L200.539 117.605" stroke="#002140" stroke-linecap="round" stroke-linejoin="round"/>
<path d="M191.047 86.7522C189.919 83.5957 187.67 80.2779 184.234 77.5654" stroke="#002140" stroke-linecap="round" stroke-linejoin="round"/>
<path d="M188.969 101.652C190.78 98.2724 191.772 94.6915 191.89 91.6396" stroke="#002140" stroke-linecap="round" stroke-linejoin="round"/>
<path d="M196.13 87.4026C196.983 91.9479 196.232 97.2427 193.641 102.676" stroke="#002140" stroke-linecap="round" stroke-linejoin="round"/>
<path d="M188.715 75.5798C191.029 77.5767 192.832 80.1761 194.12 82.4388" stroke="#002140" stroke-linecap="round" stroke-linejoin="round"/>
<path d="M196.129 87.4028C198.788 83.9379 200.178 79.8791 200.104 75.1301" stroke="#002140" stroke-linecap="round" stroke-linejoin="round"/>
<path d="M182.25 97.1042C186.011 95.5401 189.246 93.727 191.89 91.6396" stroke="#002140" stroke-linecap="round" stroke-linejoin="round"/>
<path d="M191.046 86.7522C188.306 89.3911 184.548 91.4927 180.395 93.3877" stroke="#002140" stroke-linecap="round" stroke-linejoin="round"/>
<path d="M195.499 75.1301C195.767 77.9218 195.298 80.3288 194.27 82.4388" stroke="#002140" stroke-linecap="round" stroke-linejoin="round"/>
<path d="M180.395 93.3877L182.251 97.1043" stroke="#002140" stroke-linecap="round" stroke-linejoin="round"/>
<path d="M188.969 101.652L193.639 102.676" stroke="#002140" stroke-linecap="round" stroke-linejoin="round"/>
<path d="M184.234 77.5654L188.713 75.5798" stroke="#002140" stroke-linecap="round" stroke-linejoin="round"/>
<path d="M195.496 75.1301H200.104" stroke="#002140" stroke-linecap="round" stroke-linejoin="round"/>
<path d="M83.5088 83.5362C84.9809 80.4532 86.0913 77.0251 85.8229 74.0666C85.5545 71.108 84.5345 70.0332 82.599 70.0332C80.6636 70.0332 78.9457 71.9141 77.8184 74.0128C76.691 76.1087 76.0977 79.1747 76.0977 81.8108C76.0977 84.447 76.7447 85.683 78.1405 86.3279C79.5362 86.9728 81.9548 86.6503 83.5088 83.5362Z" stroke="#002140" stroke-linecap="round" stroke-linejoin="round"/>
<path d="M77.7659 90.9013C75.6525 90.4205 73.1322 89.1251 71.9822 84.5543C70.8351 79.9835 72.5529 74.4426 73.2537 73.0453C73.9515 71.6453 75.6694 67.9343 79.1617 66.2146C82.6539 64.4921 86.8441 65.2982 88.7258 68.4717C90.6048 71.6453 90.6585 75.3562 90.2827 77.8311C89.6526 82.1105 87.5844 86.6671 85.8637 88.466C84.1458 90.2677 81.3147 91.7725 77.7659 90.9013Z" stroke="#002140" stroke-linecap="round" stroke-linejoin="round"/>
<path d="M102.829 73.9251C104.247 74.4002 105.736 73.2066 106.926 71.7613C108.115 70.3188 109.96 67.2669 110.67 63.9548C111.379 60.6427 111.3 58.79 110.195 58.1961C109.093 57.6049 107.251 58.4478 105.943 60.2863C104.736 61.8023 102.199 66.6362 101.925 68.6076C101.648 69.9483 101.411 73.4527 102.829 73.9251Z" stroke="#002140" stroke-linecap="round" stroke-linejoin="round"/>
<path d="M101.254 78.2527C102.868 78.9004 105.981 78.544 108.03 77.0082C110.078 75.4695 112.361 72.9861 114.212 68.6473C115.475 65.3748 116.065 60.8775 115.435 58.3546C114.805 55.8316 113.621 53.9394 111.378 53.5434C109.132 53.1502 106.216 53.5434 103.893 55.9108C101.568 58.2754 99.2397 62.0231 98.3384 64.8628C97.4371 67.6997 96.8833 72.4317 97.6688 74.6011C98.4514 76.7734 99.6381 77.605 101.254 78.2527Z" stroke="#002140" stroke-linecap="round" stroke-linejoin="round"/>
<path d="M173.418 65.27C175.693 66.1073 177.671 67.4762 179.089 67.53C180.507 67.5837 181.349 67.3716 181.821 66.1638C182.293 64.9533 181.714 63.7879 180.824 62.6933C179.934 61.5987 176.673 59.1182 173.207 58.643C169.74 58.1706 169.322 58.643 168.533 59.0644C167.745 59.4859 167.01 60.8266 167.273 61.9042C167.536 62.9818 168.847 63.7964 170.11 64.2179C171.37 64.6393 172.415 64.9023 173.418 65.27Z" stroke="#002140" stroke-linecap="round" stroke-linejoin="round"/>
<path d="M177.569 55.2263C180.635 56.2333 183.242 57.9615 184.765 60.2214C186.288 62.4813 186.921 64.894 186.478 67.1624C186.031 69.4308 184.712 70.6329 183.031 71.5267C181.352 72.4205 178.148 72.2225 175.888 71.2099C173.627 70.1973 170.793 68.8453 168.482 68.2146C166.171 67.5838 163.809 66.1102 163.021 64.0087C162.232 61.9043 162.286 59.2767 163.6 57.277C164.911 55.2801 167.957 54.2279 170.372 54.1233C172.791 54.0186 174.506 54.2223 177.569 55.2263Z" stroke="#002140" stroke-linecap="round" stroke-linejoin="round"/>
<path d="M122.508 51.1165L127.226 48.7576" stroke="#002140" stroke-linecap="round" stroke-linejoin="round"/>
<path d="M131.035 46.7467L136.494 44.0286" stroke="#002140" stroke-linecap="round" stroke-linejoin="round"/>
<path d="M131.035 46.7466C136.963 54.5503 145.699 58.4479 154.893 58.0038" stroke="#002140" stroke-linecap="round" stroke-linejoin="round"/>
<path d="M127.227 48.7576C132.852 57.0364 142.857 63.1628 154.789 62.1701" stroke="#002140" stroke-linecap="round" stroke-linejoin="round"/>
<path d="M154.789 62.1702L154.894 58.0039" stroke="#002140" stroke-linecap="round" stroke-linejoin="round"/>
<path d="M122.508 51.1165C122.601 46.294 123.194 41.7826 124.197 37.5315" stroke="#002140" stroke-linecap="round" stroke-linejoin="round"/>
<path d="M136.492 44.0284C132.285 42.1899 128.202 39.9724 124.195 37.5315" stroke="#002140" stroke-linecap="round" stroke-linejoin="round"/>
<path d="M126.086 26.5713C128.81 26.7099 131.341 26.9927 133.248 23.5562C135.153 20.1196 131.853 17.2516 130.344 16.338C128.835 15.4216 125.628 14.3835 127.004 11.8662C128.383 9.79295 131.714 10.9045 133.359 12.0981C135.003 13.2917 136.554 14.8502 137.667 16.0382" stroke="#002140" stroke-linecap="round" stroke-linejoin="round"/>
<path d="M119.789 24.4131C120.346 24.761 120.905 25.0806 121.462 25.3606C121.515 25.3861 121.572 25.4144 121.626 25.4398" stroke="#002140" stroke-linecap="round" stroke-linejoin="round"/>
<path d="M113.316 18.793C113.901 19.6641 114.834 20.7927 116.294 21.8929" stroke="#002140" stroke-linecap="round" stroke-linejoin="round"/>
<path d="M138.062 10.2256C139.204 11.1561 140.145 12.115 141.007 13.252" stroke="#002140" stroke-linecap="round" stroke-linejoin="round"/>
<path d="M132.023 6.96729C132.848 7.15396 133.648 7.40287 134.538 7.84693C134.538 7.84693 134.538 7.84976 134.544 7.84976" stroke="#002140" stroke-linecap="round" stroke-linejoin="round"/>
<path d="M116.422 15.5347C116.422 15.5347 117.911 17.6758 121.55 20.2044C125.189 22.7302 127.865 22.7302 128.458 20.8719C129.052 19.0136 126.608 18.7874 125.119 17.7522C123.63 16.7169 120.815 14.7003 122.508 10.3133C123.421 7.94594 125.381 6.96447 127.342 6.66748" stroke="#002140" stroke-linecap="round" stroke-linejoin="round"/>
<path d="M113.316 18.793L116.422 15.5347" stroke="#002140" stroke-linecap="round" stroke-linejoin="round"/>
<path d="M137.668 16.0382L141.008 13.2522" stroke="#002140" stroke-linecap="round" stroke-linejoin="round"/>
<path d="M138.074 10.2144C139.142 8.82849 140.222 7.45104 141.307 6.07642" stroke="#002140" stroke-linecap="round" stroke-linejoin="round"/>
<path d="M122.508 31.8776C123.683 30.1041 124.876 28.3392 126.088 26.5884" stroke="#002140" stroke-linecap="round" stroke-linejoin="round"/>
<path d="M134.516 7.87811C134.516 7.87811 134.533 7.85831 134.538 7.847C135.581 6.50066 136.626 5.15715 137.68 3.82495" stroke="#002140" stroke-linecap="round" stroke-linejoin="round"/>
<path d="M118.785 29.7817C119.712 28.3844 120.653 26.99 121.605 25.5984" stroke="#002140" stroke-linecap="round" stroke-linejoin="round"/>
<path d="M132.023 6.9674C133.151 5.50226 134.335 4.19835 135.485 2.7417H135.487" stroke="#002140" stroke-linecap="round" stroke-linejoin="round"/>
<path d="M116.742 28.4832C117.675 27.0747 118.618 25.6718 119.573 24.2773" stroke="#002140" stroke-linecap="round" stroke-linejoin="round"/>
<path d="M127.34 6.65055C128.696 4.87712 130.086 3.08954 131.522 1.27368" stroke="#002140" stroke-linecap="round" stroke-linejoin="round"/>
<path d="M113.352 26.2771C114.335 24.7893 115.318 23.3327 116.299 21.8958L116.315 21.8704" stroke="#002140" stroke-linecap="round" stroke-linejoin="round"/>
<path d="M118.66 29.8381C118.683 29.8523 118.708 29.8664 118.731 29.8777C119.957 30.5848 121.217 31.2467 122.506 31.8774" stroke="#002140" stroke-linecap="round" stroke-linejoin="round"/>
<path d="M113.352 26.2771C114.372 27.0747 115.612 27.8243 116.711 28.5314C116.722 28.537 116.731 28.5455 116.742 28.5512" stroke="#002140" stroke-linecap="round" stroke-linejoin="round"/>
<path d="M135.493 2.74457C135.493 2.74457 135.488 2.74457 135.485 2.74457C134.208 2.1704 132.888 1.68108 131.523 1.27661" stroke="#002140" stroke-linecap="round" stroke-linejoin="round"/>
<path d="M141.308 6.07639C140.135 5.25049 138.926 4.49812 137.68 3.82495" stroke="#002140" stroke-linecap="round" stroke-linejoin="round"/>
<path d="M49.7773 110.907L52.4643 114.208" stroke="#002140" stroke-linecap="round" stroke-linejoin="round"/>
<path d="M63.5273 117.605L67.3756 115.673" stroke="#002140" stroke-linecap="round" stroke-linejoin="round"/>
<path d="M55.1641 90.9411L59.3457 89.6711" stroke="#002140" stroke-linecap="round" stroke-linejoin="round"/>
<path d="M67.4141 90.9409L70.3328 94.782" stroke="#002140" stroke-linecap="round" stroke-linejoin="round"/>
<path d="M84.8463 136.544L84.883 136.623C83.4053 140.583 82.3119 144.919 81.6366 149.374L77.469 148.169C78.1754 144.981 79.0089 142.057 79.9526 139.09L79.8792 139.067C77.2091 140.699 74.8809 142.506 73.0811 144.441L70.3828 141.316C73.6321 138.151 77.5538 135.523 81.8061 133.404C83.3545 129.456 85.1176 126.175 87.0586 123.386L91.4268 124.888C90.0084 126.577 88.3725 128.865 87.2225 131L87.248 131.029C89.4998 130.169 91.7998 129.439 94.1053 128.828L95.6311 132.485C92.0201 133.458 88.1719 135.003 84.8463 136.544Z" fill="#03D47C"/>
<path d="M87.2227 131C88.3726 128.865 90.0085 126.577 91.4269 124.888" stroke="#002140" stroke-linecap="round" stroke-linejoin="round"/>
<path d="M81.6367 149.374C82.312 144.919 83.4055 140.583 84.8832 136.623" stroke="#002140" stroke-linecap="round" stroke-linejoin="round"/>
<path d="M81.8047 133.404C83.353 129.456 85.1161 126.175 87.0572 123.386" stroke="#002140" stroke-linecap="round" stroke-linejoin="round"/>
<path d="M77.4688 148.169C78.1751 144.981 79.0086 142.057 79.9523 139.09C79.9552 139.081 79.958 139.076 79.9608 139.067" stroke="#002140" stroke-linecap="round" stroke-linejoin="round"/>
<path d="M84.8164 136.558C84.8164 136.558 84.8362 136.55 84.8447 136.544C88.1702 135.003 92.0185 133.458 95.6294 132.485" stroke="#002140" stroke-linecap="round" stroke-linejoin="round"/>
<path d="M73.082 144.441C74.8818 142.506 77.21 140.699 79.8801 139.067" stroke="#002140" stroke-linecap="round" stroke-linejoin="round"/>
<path d="M87.2461 131.029C89.498 130.169 91.7979 129.439 94.1035 128.828" stroke="#002140" stroke-linecap="round" stroke-linejoin="round"/>
<path d="M70.3828 141.316C73.6321 138.151 77.5538 135.523 81.8061 133.404" stroke="#002140" stroke-linecap="round" stroke-linejoin="round"/>
<path d="M70.3828 141.316L73.0811 144.441" stroke="#002140" stroke-linecap="round" stroke-linejoin="round"/>
<path d="M77.4688 148.169L81.6363 149.374" stroke="#002140" stroke-linecap="round" stroke-linejoin="round"/>
<path d="M87.0586 123.386L91.4267 124.888" stroke="#002140" stroke-linecap="round" stroke-linejoin="round"/>
<path d="M94.1055 128.828L95.6312 132.485" stroke="#002140" stroke-linecap="round" stroke-linejoin="round"/>
</g>
<defs>
<clipPath id="clip0_2432_56357">
<rect width="280" height="254.815" fill="white"/>
</clipPath>
</defs>
</svg>
