<svg xmlns="http://www.w3.org/2000/svg" width="68" height="68" fill="none" viewBox="0 0 68 68"><path fill="#00B268" d="M52.0211 5.11499L7.45224 18.5637L16.6864 26.0851L18.6252 42.8405L25.6905 35.4302L36.5185 44.7793L52.0211 5.11499Z"/><path fill="#085239" d="M12.8126 23.0083L7.6821 19.4756C7.6821 19.4756 7.9081 25.1374 7.45611 25.518L12.8126 23.0122V23.0083Z"/><path fill="#085239" d="M16.686 26.0851L18.6248 42.8405L51.2198 6.25293L49.511 6.70889L16.686 26.0851Z"/><path fill="#085239" d="M35.8922 33.7808C35.8922 33.7808 34.4093 32.5834 32.9859 33.3803C31.5626 34.1773 32.9859 36.7425 32.9859 36.7425C32.9859 36.7425 34.4688 37.7099 35.6662 37.0835C36.8636 36.457 36.8636 34.4627 35.8922 33.7768V33.7808Z"/><path fill="#085239" d="M17.959 18.9641C17.959 18.9641 16.4761 17.7667 15.0528 18.5637C13.6294 19.3606 15.0528 21.9259 15.0528 21.9259C15.0528 21.9259 16.5356 22.8933 17.733 22.2668C18.9304 21.6404 18.9304 19.6461 17.959 18.9602V18.9641Z"/><path fill="#03D47C" d="M42.8263 16.0541C42.8263 16.0541 38.116 14.0043 33.4811 19.0952C28.8462 24.186 27.0977 28.2143 28.7709 32.1633L42.8263 16.0541Z"/><path fill="#085239" d="M46.7756 8.30676C46.7756 8.30676 46.0144 7.24418 44.7258 7.92614C43.4333 8.60809 44.1192 9.67464 44.1192 9.67464L46.7796 8.30676H46.7756Z"/><path fill="#085239" d="M48.5992 9.59521L46.5493 11.9503C46.5493 11.9503 48.2225 12.8622 48.7538 11.5697C49.2851 10.2772 48.6031 9.59521 48.6031 9.59521H48.5992Z"/><path stroke="#002E22" stroke-linecap="round" stroke-linejoin="round" d="M23.0098 38.4513L21.4159 23.8052"/><path stroke="#008C59" stroke-linecap="round" stroke-linejoin="round" d="M21.2457 23.5792C21.2457 23.5792 22.8237 20.0823 20.8453 17.5011L43.4885 9.8252"/><path stroke="#008C59" stroke-linecap="round" stroke-linejoin="round" d="M29.1079 31.727C29.1079 31.727 32.2441 29.3917 36.2327 30.6446L46.2043 12.4658"/><path stroke="#002140" stroke-linecap="round" stroke-linejoin="round" d="M7.07512 18.7541L52.4766 5L36.2881 44.8903L25.8328 35.4579L18.6207 43.118L16.8009 26.315L7.07512 18.7541Z"/><path stroke="#002140" stroke-linecap="round" stroke-linejoin="round" d="M25.833 35.4579L52.4768 5"/><path stroke="#002140" stroke-linecap="round" stroke-linejoin="round" d="M16.8014 26.315L52.4771 5"/><path stroke="#002140" stroke-linecap="round" stroke-linejoin="round" d="M7.07533 18.7539C8.59387 22.6672 7 25.8946 7 25.8946L12.7926 23.1945"/><path stroke="#002140" stroke-linecap="round" stroke-linejoin="round" d="M28.8348 31.9808C26.7017 30.0658 28.141 24.9789 32.0503 20.6255C35.7614 16.4902 40.3646 14.4998 42.6483 15.943"/><path stroke="#002140" stroke-linecap="round" stroke-linejoin="round" d="M36.1418 36.9296C37.0058 36.0656 36.9292 34.5883 35.9708 33.6298C35.0123 32.6714 33.535 32.5948 32.671 33.4588C31.807 34.3228 31.8835 35.8002 32.842 36.7586C33.8004 37.717 35.2778 37.7936 36.1418 36.9296Z"/><path stroke="#002140" stroke-linecap="round" stroke-linejoin="round" d="M48.6112 9.77368C49.0869 10.4398 49.0671 11.32 48.5279 11.8632C48.0164 12.3746 47.1957 12.4182 46.5455 12.0178"/><path stroke="#002140" stroke-linecap="round" stroke-linejoin="round" d="M18.5704 21.285C19.081 20.1749 18.4966 18.8159 17.2652 18.2495C16.0338 17.6831 14.6216 18.1239 14.111 19.2339C13.6005 20.344 14.1848 21.703 15.4163 22.2694C16.6477 22.8358 18.0599 22.3951 18.5704 21.285Z"/><path stroke="#002140" stroke-linecap="round" stroke-linejoin="round" d="M44.0795 9.77356C43.909 9.38897 43.8932 8.9568 44.0755 8.56825C44.4284 7.79907 45.4077 7.49377 46.2602 7.88629C46.4544 7.97748 46.6289 8.09643 46.7756 8.2352"/><path stroke="#008C59" stroke-linecap="round" stroke-linejoin="round" d="M17.3169 45.6833C17.3169 45.6833 17.075 46.2424 16.7658 47.1702"/><path stroke="#008C59" stroke-linecap="round" stroke-linejoin="round" d="M15.9167 50.3142C15.1039 54.283 14.981 59.7585 19.4414 62.3991C30.7373 68.4811 46.7235 47.519 60.0375 62.8828"/><path stroke="#008C59" stroke-linecap="round" stroke-linejoin="round" d="M61.0683 64.1516C61.3775 64.56 61.6868 64.9882 61.996 65.4402"/></svg>