<svg xmlns="http://www.w3.org/2000/svg" width="68" height="68" fill="none" viewBox="0 0 68 68"><path fill="#00b268" d="M52.021 5.115 7.452 18.564l9.234 7.521 1.94 16.755 7.064-7.41 10.829 9.35z"/><path fill="#085239" d="m12.813 23.008-5.13-3.532s.225 5.661-.227 6.042l5.357-2.506zm3.873 3.077 1.939 16.755L51.22 6.253l-1.709.456zm19.206 7.695s-1.483-1.197-2.906-.4 0 3.362 0 3.362 1.483.968 2.68.342c1.198-.627 1.198-2.621.226-3.307zM17.959 18.964s-1.483-1.197-2.906-.4 0 3.362 0 3.362 1.483.967 2.68.34c1.197-.626 1.197-2.62.226-3.306z"/><path fill="#03d47c" d="M42.826 16.054s-4.71-2.05-9.345 3.041-6.383 9.12-4.71 13.068z"/><path fill="#085239" d="M46.776 8.307s-.762-1.063-2.05-.38c-1.293.681-.607 1.748-.607 1.748l2.66-1.368zM48.6 9.595l-2.05 2.355s1.672.912 2.204-.38c.531-1.293-.15-1.975-.15-1.975z"/><path stroke="#002e22" stroke-linecap="round" stroke-linejoin="round" d="m23.01 38.451-1.594-14.646"/><path stroke="#008c59" stroke-linecap="round" stroke-linejoin="round" d="M21.246 23.58s1.578-3.498-.4-6.079l22.643-7.676M29.108 31.727s3.136-2.335 7.125-1.082l9.971-18.18"/><path stroke="#002140" stroke-linecap="round" stroke-linejoin="round" d="M7.075 18.754 52.477 5 36.288 44.89l-10.455-9.432-7.212 7.66-1.82-16.803zm18.758 16.704L52.477 5M16.801 26.315 52.477 5"/><path stroke="#002140" stroke-linecap="round" stroke-linejoin="round" d="M7.075 18.754C8.594 22.667 7 25.894 7 25.894l5.793-2.7m16.042 8.786c-2.133-1.914-.694-7.001 3.215-11.355 3.711-4.135 8.315-6.125 10.598-4.682M36.142 36.93c.864-.864.787-2.342-.171-3.3-.959-.959-2.436-1.035-3.3-.171s-.787 2.341.171 3.3 2.436 1.035 3.3.17M48.611 9.774c.476.666.456 1.546-.083 2.09-.512.51-1.332.554-1.983.154M18.57 21.285c.511-1.11-.073-2.47-1.305-3.035-1.231-.567-2.643-.126-3.154.984-.51 1.11.074 2.469 1.305 3.035 1.232.567 2.644.126 3.154-.984M44.08 9.774a1.44 1.44 0 0 1-.005-1.206c.353-.769 1.333-1.074 2.185-.682.194.091.369.21.516.35"/><path stroke="#008c59" stroke-linecap="round" stroke-linejoin="round" d="M17.317 45.683s-.242.56-.551 1.487m-.849 3.144c-.813 3.969-.936 9.444 3.524 12.085 11.296 6.082 27.283-14.88 40.597.484m1.03 1.269q.465.611.928 1.288"/></svg>