<svg xmlns="http://www.w3.org/2000/svg" width="387" height="264" fill="none" viewBox="0 0 387 264"><g clip-path="url(#a)"><path fill="#1a3d32" d="M.5 0H387v264H.5z"/><g clip-path="url(#b)"><rect width="220" height="476.373" x="84" y="20" fill="#061b09" rx="14.08"/><path fill="#8b9c8f" fill-rule="evenodd" d="M104.676 48.403a1.174 1.174 0 0 1-1.66 0l-4.936-4.936 4.936-4.937a1.174 1.174 0 0 1 1.66 1.66l-3.277 3.277 3.277 3.277a1.174 1.174 0 0 1 0 1.659" clip-rule="evenodd"/><path fill="#e7ece9" d="M115.411 46.586c-1.825 0-2.932-.847-2.962-2.423h1.396c.03.808.529 1.217 1.566 1.217.848 0 1.407-.28 1.407-.868 0-.429-.21-.648-1.117-.858l-.928-.2c-1.546-.348-2.144-.917-2.144-2.024 0-1.137.857-2.064 2.613-2.064 1.795 0 2.722.877 2.792 2.284h-1.396c-.04-.699-.489-1.078-1.396-1.078-.748 0-1.207.25-1.207.748 0 .42.199.629 1.097.828l.918.21c1.565.359 2.174.927 2.174 2.034 0 1.466-1.177 2.194-2.813 2.194m8.265-2.553v.25h-3.451c.08.847.519 1.216 1.117 1.216.588 0 .848-.259.967-.608h1.367c-.369 1.316-1.407 1.695-2.334 1.695-1.506 0-2.493-1.007-2.493-2.583 0-1.845 1.226-2.563 2.443-2.563 1.536 0 2.384 1.107 2.384 2.593m-3.421-.578h2.004c-.059-.678-.408-.988-.967-.988-.499 0-.908.27-1.037.988m6.003 3.111c-1.077 0-1.506-.578-1.506-1.376v-2.523h-.688V41.55h.279q.45 0 .449-.449v-.888h1.307v1.337h1.017v1.117h-1.017v2.204c0 .369.109.548.508.548.21 0 .339-.04.509-.09v1.108c-.259.08-.598.13-.858.13m3.448 0c-1.077 0-1.506-.578-1.506-1.376v-2.523h-.688V41.55h.279q.449 0 .449-.449v-.888h1.306v1.337h1.018v1.117h-1.018v2.204c0 .369.11.548.509.548.21 0 .339-.04.509-.09v1.108c-.26.08-.599.13-.858.13m2.392-5.764a.71.71 0 0 1-.728-.718c0-.4.309-.708.728-.708s.728.309.728.708a.71.71 0 0 1-.728.718m.668 5.665h-1.346V41.55h1.346zm2.562 0h-1.347V41.55h1.267v.598c.339-.479.808-.708 1.406-.708 1.207 0 1.805.619 1.805 2.105v2.922h-1.336v-2.813c0-.798-.279-1.067-.838-1.067-.618 0-.957.419-.957 1.207zm5.529-.938h1.676c1.226 0 1.815.509 1.815 1.386 0 1.078-.928 1.786-2.713 1.786-1.546 0-2.384-.519-2.384-1.337 0-.429.25-.758.689-.937-.439-.22-.579-.589-.579-.968 0-.409.259-.778.718-1.017a1.62 1.62 0 0 1-.548-1.237c0-1.037.847-1.765 2.124-1.765q.614 0 1.077.21c.269-.529.529-.878 1.556-.928v1.007c-.459 0-.738.12-.888.42.24.279.379.648.379 1.056.01 1.038-.847 1.766-2.124 1.766-.359 0-.678-.06-.967-.17-.17.1-.26.27-.26.4 0 .189.1.328.429.328m.798-3.122c-.539 0-.868.33-.868.798 0 .47.339.788.868.788s.868-.319.868-.788c0-.468-.339-.797-.868-.797m.03 5.306c.917 0 1.316-.22 1.316-.678 0-.29-.219-.429-.668-.429h-1.396c-.07 0-.13 0-.2-.01-.179.13-.289.29-.289.519 0 .359.269.598 1.237.598m5.236-1.127c-1.356 0-2.144-.578-2.254-1.695h1.327c.079.499.388.708.967.708.529 0 .828-.15.828-.489 0-.259-.19-.419-.708-.528l-.409-.1c-1.287-.29-1.845-.688-1.845-1.506 0-1.017.758-1.536 2.014-1.536 1.387 0 2.145.559 2.204 1.646h-1.316c-.03-.479-.319-.669-.838-.669-.469 0-.738.14-.738.47 0 .249.18.408.688.518l.419.09c1.277.289 1.855.698 1.855 1.526 0 1.027-.828 1.565-2.194 1.565"/><g clip-path="url(#c)"><path fill="#03d47c" d="M217.467 62.24h-46.934v46.933h46.934z"/><path fill="#008c59" d="M180.624 82.715s-.939 2.288-2.523 2.464c0 0 2.171.938 2.347 2.346 0 0 .88-2.053 2.581-2.288 0 0-2.288-.528-2.405-2.522m27.573 5.221s-.938 2.288-2.522 2.464c0 0 2.17.939 2.346 2.347 0 0 .88-2.054 2.582-2.288.058 0-2.288-.528-2.406-2.523"/><path fill="#002140" d="M193.941 104.715c-10.56 0-19.184-8.624-19.184-19.184s8.624-19.184 19.184-19.184 19.184 8.624 19.184 19.184c0 10.618-8.624 19.184-19.184 19.184m0-37.782c-10.266 0-18.597 8.39-18.597 18.598s8.331 18.597 18.597 18.597 18.598-8.33 18.598-18.597-8.331-18.598-18.598-18.598"/><path fill="#002140" d="M208.139 93.333c-.118 0-.235-.117-.294-.234-.469-1.702-.762-1.995-2.464-2.464-.117-.06-.234-.176-.234-.294s.117-.234.234-.293c1.702-.47 1.995-.763 2.464-2.464.059-.117.176-.235.294-.235s.234.118.293.235c.469 1.701.763 1.995 2.464 2.464.117.059.235.176.235.293 0 .118-.118.235-.235.294-1.701.469-1.995.762-2.464 2.464-.059.176-.176.234-.293.234m-1.702-2.933c.88.352 1.35.763 1.702 1.701.352-.88.762-1.35 1.701-1.701-.88-.352-1.349-.763-1.701-1.701-.352.938-.763 1.349-1.702 1.7m-26.048-2.111c-.117 0-.234-.117-.293-.235-.469-1.701-.763-1.994-2.464-2.464-.117-.058-.235-.176-.235-.293s.118-.235.235-.293c1.701-.47 1.995-.763 2.464-2.464.059-.235.528-.235.587 0 .469 1.701.762 1.994 2.464 2.464.117.058.234.176.234.293s-.117.235-.234.293c-1.702.47-1.995.763-2.464 2.464-.059.176-.176.235-.294.235m-1.642-2.933c.88.352 1.349.762 1.701 1.701.352-.88.763-1.35 1.701-1.701-.88-.352-1.349-.763-1.701-1.702-.411.88-.821 1.35-1.701 1.702"/><path fill="#008c59" d="m190.363 74.501 13.082 4.459s.411-2.581-3.109-4.165l.469-3.168s-.293-2.054-1.818-2.464c-1.467-.411-2.992.645-3.227 1.114s-1.173 2.758-1.173 2.758-3.403 0-4.224 1.466"/><path fill="#002140" d="M203.445 79.253h-.058c-.176-.058-.235-.234-.176-.352.469-1.584-1.995-3.813-5.456-4.87-3.227-.996-6.395-.703-7.158.646-.058.118-.234.176-.41.118-.118-.06-.176-.235-.118-.411.88-1.643 4.283-2.053 7.803-.939 3.872 1.232 6.395 3.696 5.808 5.574a.25.25 0 0 1-.235.234"/><path fill="#002140" d="M200.336 75.088s-.059 0 0 0c-.176 0-.293-.176-.293-.352l.41-2.757c.118-1.232-.645-2.347-1.818-2.64-1.115-.294-2.347.352-2.758 1.466l-.821 2.171c-.059.176-.235.235-.352.176-.176-.059-.235-.235-.176-.352l.821-2.17c.528-1.409 1.995-2.23 3.462-1.878 1.466.352 2.405 1.76 2.229 3.285l-.411 2.758c-.058.176-.176.293-.293.293"/><path fill="#03d47c" d="M188.133 97.323s.294.762.998.762 1.701.059 1.701.059l.645.528s.528 1.76 1.878 1.584c1.408-.176 1.114-1.467 1.29-1.232 1.232.117 1.232-.293 1.408-1.232 0 0 1.115-.176 1.232-1.056 0 0 1.878.645 4.4-.587 2.464-1.232 2.054-3.11 1.995-3.872s-.997-2.64-1.349-2.874c-.352-.235-1.232-.998-1.232-.998l-12.555-3.696 3.872 8.8c0-.117-5.632.294-4.283 3.814"/><path fill="#008c59" d="M181.445 79.37s-.117 2.875 4.635 4.4c4.811 1.526 14.373 4.283 14.373 4.283s6.982 1.526 8.038-2.17c.997-3.696-.822-4.694-2.171-5.515 0 0-6.16-3.403-12.555-4.87-6.453-1.525-9.738-1.7-11.498 1.174-.352 1.056-.822 2.288-.822 2.699"/><path fill="#8eecc4" d="M190.949 83.067a2.754 2.754 0 0 0 2.758-2.758 2.754 2.754 0 0 0-2.758-2.757 2.754 2.754 0 0 0-2.757 2.757 2.754 2.754 0 0 0 2.757 2.758m5.574 1.877a2.754 2.754 0 0 0 2.757-2.757 2.754 2.754 0 0 0-2.757-2.758 2.754 2.754 0 0 0-2.758 2.758 2.754 2.754 0 0 0 2.758 2.757"/><path fill="#002140" d="m189.365 86.939-1.056-2.288-8.213 9.21s-.235 1.584.117 2.23c.294.645 1.76 1.232 1.76 1.232l6.16-.059s-.586-1.936.47-2.64l-5.339-.059-.411-.176zm-2.112-12.614s-2.581.294-3.461.88c0 0 .059 3.168 2.581 2.406 2.582-.763 1.232-3.227.88-3.286m-2.698 4.576s-2.054 0-2.464 1.995c0 0 1.232 1.643 2.053 1.995 0 0 1.701-.059 1.936-1.526.235-1.466-.821-2.464-1.525-2.464m12.378-2.405s-3.226-1.173-3.754-1.173c-.528.058-.47 2.405 1.349 2.816 1.819.469 2.405-1.643 2.405-1.643m8.096 3.344-2.933-1.408s-.939.821-.997 1.35c-.059.527.176 2.346 1.525 2.463 1.349.176 2.464-.938 2.405-2.405m2.816 2.053s-1.173.294-1.056 1.643c.118 1.35 1.878 1.584 1.878 1.584s.88-2.523-.822-3.227m-5.456 6.454 2.054.176s1.349-1.056 1.056-2.054c-.294-.997-1.056-1.818-2.347-1.701s-1.525 1.35-1.584 1.643c-.235.88.587 1.877.821 1.936"/><path fill="#002140" d="M203.739 88.875c-1.643 0-3.344-.47-4.518-.822-3.696-1.056-7.45-2.229-11.088-3.344l-1.114-.352c-2.992-.938-4.752-2.112-5.515-3.637-.469-.997-.469-2.112.059-3.285 2.288-5.456 9.914-3.05 14.49-1.584.528.176 1.056.352 1.526.47q3.255.966 6.864 2.815l.234.117c1.819.94 4.518 2.288 4.518 4.811 0 .645-.176 1.35-.587 2.053-1.115 2.171-2.992 2.758-4.869 2.758m-16.251-14.198c-2.347 0-4.4.763-5.339 3.051-.41 1.056-.469 1.995-.058 2.816.645 1.35 2.346 2.464 5.162 3.344l1.115.352c3.637 1.115 7.333 2.288 11.029 3.344 3.579.997 7.099 1.467 8.742-1.643.352-.645.528-1.232.528-1.818 0-2.112-2.406-3.344-4.224-4.283l-.235-.117a39 39 0 0 0-6.747-2.758c-.469-.117-.997-.293-1.584-.469-2.405-.821-5.632-1.819-8.389-1.819"/><path fill="#002140" d="M190.832 83.536c-1.76 0-3.168-1.408-3.168-3.11 0-1.7 1.408-3.109 3.168-3.109S194 78.725 194 80.427s-1.408 3.109-3.168 3.109m0-5.632c-1.408 0-2.581 1.115-2.581 2.523s1.173 2.522 2.581 2.522 2.581-1.114 2.581-2.522-1.173-2.523-2.581-2.523"/><path fill="#002140" d="m191.184 80.544 1.76.117c.059-.997-.528-1.936-1.467-2.053-.938-.176-1.877.645-2.053 1.76s.469 2.17 1.408 2.347c.587.117 1.115-.118 1.525-.587zm5.339 1.584 1.76.117c.058-.997-.528-1.936-1.467-2.053-.939-.176-1.877.645-2.053 1.76s.469 2.17 1.408 2.347c.586.117 1.114-.118 1.525-.587z"/><path fill="#002140" d="M196.464 85.355c-1.76 0-3.168-1.408-3.168-3.11s1.408-3.109 3.168-3.109 3.168 1.408 3.168 3.11c0 1.7-1.408 3.109-3.168 3.109m0-5.691c-1.408 0-2.581 1.115-2.581 2.523s1.173 2.522 2.581 2.522 2.581-1.114 2.581-2.522-1.173-2.523-2.581-2.523m-4.107 13.963a.32.32 0 0 1-.293-.176l-3.989-8.8c-.059-.176 0-.294.117-.41.176-.06.293 0 .411.116l3.989 8.8c.059.176 0 .294-.117.411-.059.059-.059.059-.118.059m6.395 3.578c-.997 0-1.467-.234-1.467-.234-.176-.059-.234-.235-.117-.411.059-.117.235-.235.411-.117 0 0 .469.176 1.466.176.939-.059 4.518-.763 4.518-3.696 0-2.875-2.582-4.4-2.582-4.4-.117-.059-.176-.235-.117-.411.059-.117.235-.176.411-.117.117.058 2.874 1.642 2.874 4.869 0 3.403-4.048 4.224-5.104 4.283-.117.058-.176.058-.293.058m-3.872 2.112h-.117c-.176 0-.294-.176-.294-.293 0-.176.176-.293.294-.293 0 0 .645.058.938-.352.118-.118.176-.411.059-.763-.059-.352-.411-1.173-1.76-1.819-.117-.058-.176-.234-.117-.41.058-.118.234-.176.41-.118 1.526.763 1.936 1.702 2.054 2.23.117.469.058.938-.176 1.232-.352.528-.998.586-1.291.586"/><path fill="#002140" d="M193.413 100.667c-.938 0-1.466-.939-1.818-1.584l-.176-.352c-.235-.352-.411-.352-1.702-.294h-.234c-1.35.059-1.819-1.349-1.819-2.112 0-.645.235-1.232.704-1.701.88-.88 2.405-1.35 4.224-1.35 1.232 0 2.933.822 3.051.88 1.525.763 1.936 1.702 2.053 2.23.117.47.059.939-.176 1.232-.293.41-.821.587-1.115.587-.176 0-.293-.118-.293-.235 0-.176.117-.293.235-.293a.92.92 0 0 0 .704-.352c.117-.118.176-.411.058-.763-.058-.352-.41-1.173-1.76-1.819 0 0-1.701-.821-2.757-.821-1.701 0-3.051.41-3.813 1.173-.352.411-.587.822-.528 1.291 0 .059.058 1.584 1.232 1.525h.234c1.291-.058 1.819-.058 2.23.587.058.117.117.235.234.41.294.529.704 1.291 1.291 1.291.704 0 .997-.293.997-.938 0-.528-.997-1.702-2.112-2.288-.117-.059-.176-.235-.117-.411.059-.117.235-.176.411-.117 1.114.586 2.405 1.936 2.405 2.816-.059.88-.587 1.408-1.643 1.408"/><path fill="#002140" d="M188.485 94.976h-5.162c-.235 0-.411-.117-.47-.293-.117-.176-.058-.411.059-.587l6.219-7.216a.36.36 0 0 1 .41-.059.36.36 0 0 1 .059.411l-6.16 7.157h5.045c.176 0 .294.118.294.294s-.118.293-.294.293"/><path fill="#002140" d="M188.075 97.733h-5.808c-1.056 0-1.936-.586-2.406-1.525a2.73 2.73 0 0 1 .411-2.816l7.92-8.917a.284.284 0 0 1 .411 0 .284.284 0 0 1 0 .41l-7.862 8.86c-.528.586-.645 1.466-.352 2.17.352.762 1.056 1.173 1.878 1.173h5.866c.176 0 .294.117.294.293a.38.38 0 0 1-.352.352m16.426-8.976c-.117 0-.176-.058-.234-.117a.31.31 0 0 1 .117-.41 1.58 1.58 0 0 0 .821-1.409 1.64 1.64 0 0 0-1.642-1.642 1.64 1.64 0 0 0-1.643 1.642c0 .528.235.998.645 1.35.118.117.176.293.059.41-.117.118-.293.176-.411.06-.586-.412-.88-1.057-.88-1.76a2.229 2.229 0 1 1 4.459 0c0 .82-.411 1.524-1.056 1.935-.117-.059-.176-.059-.235-.059m3.931-3.344a1.98 1.98 0 0 1-1.995-1.994c0-.88.528-1.643 1.408-1.878.176-.058.294.059.352.176.059.176-.058.294-.176.352a1.39 1.39 0 0 0-.997 1.35c0 .762.645 1.408 1.408 1.408h.176c.176 0 .293.058.352.234s-.059.294-.235.352zm-5.456-2.816a2.29 2.29 0 0 1-2.288-2.288c0-.88.528-1.701 1.291-2.053.117-.059.293 0 .41.117.059.118 0 .294-.117.41-.587.294-.939.88-.939 1.526a1.703 1.703 0 0 0 3.403 0c0-.117 0-.234-.059-.352-.058-.176.059-.293.235-.352s.293.059.352.235.059.293.059.47c-.059 1.231-1.056 2.287-2.347 2.287m-18.656.587c-.176 0-.293-.117-.293-.293s.117-.294.293-.294c.88-.058 1.525-.821 1.525-1.701a1.702 1.702 0 0 0-3.402 0v.235c0 .176-.118.293-.235.352-.176 0-.293-.118-.352-.235v-.352a2.29 2.29 0 0 1 2.288-2.288c1.232 0 2.288 1.056 2.288 2.288s-.88 2.17-2.112 2.288m1.467-5.221a2.354 2.354 0 0 1-2.347-2.347c0-.117 0-.293.059-.41 0-.177.176-.294.352-.235.176 0 .293.176.234.352v.293c0 .939.763 1.76 1.76 1.76.998 0 1.76-.763 1.76-1.76 0-.352-.117-.763-.352-1.056-.117-.117-.058-.293.059-.41.117-.118.293-.06.411.058.293.41.469.88.469 1.408-.059 1.29-1.115 2.347-2.405 2.347m9.21.527a2.353 2.353 0 0 1-2.346-2.346q0-.44.176-.88c.058-.176.234-.235.41-.176s.235.235.176.41c-.058.235-.117.411-.117.646 0 .939.763 1.76 1.76 1.76.821 0 1.525-.587 1.701-1.408.059-.176.176-.293.352-.235.176.059.235.176.235.352-.293 1.115-1.232 1.878-2.347 1.878"/><path fill="#8eecc4" d="m195.525 88.112-1.408 1.701s-.293.528 0 .763c.294.235.704.235.939 0s1.232-1.701 1.232-1.701zm1.526.938-1.408 1.702s-.294.528 0 .763c.293.234.704.234.938 0 .235-.235 1.232-1.702 1.232-1.702z"/><path fill="#002140" d="M196.757 91.456s-.117.528-.762.293c-.646-.293-.587-1.056-.587-1.056s-1.173.646-1.291-.117-.352-.645.118-1.173c.528-.528 1.114-1.467 1.114-1.467s-1.173-.88-1.76-.704c-.586.176-1.466.997-1.466 1.232s-.118 3.05 3.461 4.107c3.579 1.056 4.048-.118 4.283-.704.234-.528.704-1.115-.176-1.526-.88-.41-1.643-.645-1.643-.645z"/><path fill="#002140" d="m193.941 89.93 1.467-1.935s-1.819-1.467-2.933-.059c-1.115 1.408.704 3.344.704 3.344s2.464 1.819 4.341 1.877 2.464-1.408 2.464-1.408l-.117-1.056-1.819-1.056-1.643 2.171s-.469-.059-.762-.117c-.294-.118-.176-1.115-.176-1.115s-1.056.41-1.291.176c-.235-.176-.235-.821-.235-.821"/><path fill="#002140" d="M197.813 93.45c-1.173 0-2.464-.527-3.109-.82-2.464-1.174-2.816-2.817-2.875-3.051v-.06c-.117-1.055.235-1.876.998-2.287 1.114-.528 2.346.059 3.109.821.352.352.88.704 1.525.998.235.117.411.176.646.293.528.235 1.114.47 1.584.821.352.235.528.587.586 1.056 0 .587-.293 1.29-.762 1.702-.47.41-1.056.528-1.702.528m-5.397-4.047c0 .058.235 1.525 2.523 2.64.704.352 3.05 1.349 4.224.352.352-.294.586-.822.586-1.232a.72.72 0 0 0-.293-.587 11.5 11.5 0 0 0-1.467-.763c-.234-.117-.469-.176-.645-.293-.704-.352-1.291-.704-1.701-1.115-.646-.645-1.643-1.114-2.464-.704-.822.41-.822 1.35-.763 1.702"/><path fill="#002140" d="M194.528 91.221c-.293 0-.469-.117-.528-.176-.117-.058-.352-.293-.411-.645-.058-.293.059-.587.352-.939a97 97 0 0 0 1.115-1.525c.117-.117.293-.176.411-.059.117.118.176.294.058.411 0 .059-.586.88-1.173 1.584a.72.72 0 0 0-.235.528c0 .117.118.176.176.235 0 0 .118.058.235.058.176-.058.411-.176.587-.469l.997-1.35c.117-.117.293-.175.411-.058s.176.293.058.41l-.997 1.35c-.293.41-.645.645-.997.704.058-.117 0-.059-.059-.059"/><path fill="#002140" d="M196.053 92.16c-.293 0-.469-.117-.528-.176-.117-.059-.352-.293-.41-.645-.059-.294.058-.587.352-.939.293-.352.645-.88 1.056-1.408.117-.117.293-.176.41-.059.118.118.176.294.059.411-.411.587-.763 1.056-1.056 1.467a.72.72 0 0 0-.235.528c0 .117.118.176.176.234 0 0 .118.059.235.059.176-.059.411-.176.587-.47l.997-1.349c.117-.117.293-.176.411-.058s.176.293.058.41l-.997 1.35c-.293.41-.645.645-.997.704 0-.059-.059-.059-.118-.059"/></g><path fill="#fff" d="M163.401 131.637c-1.368 0-2.065-.129-2.065-.49 0-.284.297-.374 1.058-.413.181-.052.246-.658.246-1.381v-4.337c0-.955-.039-1.703-.246-1.755h-.271c-.8 0-1.51.077-1.639.31-.142.206-.219.439-.309.748-.194.736-.349 1.02-.607 1.02-.245 0-.4-.31-.4-.787 0-1.007.49-2.349 1.007-2.349.361 0 .296.206.838.206h4.776c.542 0 .477-.206.839-.206.516 0 1.007 1.342 1.007 2.349 0 .477-.155.787-.401.787-.258 0-.413-.284-.606-1.02-.091-.309-.168-.529-.31-.748-.129-.233-.839-.31-1.639-.31h-.284c-.207.052-.232.8-.232 1.755v4.337c0 .723.064 1.329.245 1.381.774.039 1.058.129 1.058.413 0 .361-.697.49-2.065.49m7.03.129c-1.988 0-3.343-1.406-3.343-3.368 0-2.014 1.497-3.42 3.562-3.42 1.975 0 3.343 1.406 3.343 3.368 0 2.052-1.536 3.42-3.562 3.42m-1.911-3.949c0 1.549.93 3.227 2.324 3.227.98 0 1.729-.813 1.729-2.117 0-1.562-.968-3.227-2.336-3.227-.968 0-1.717.788-1.717 2.117m8.878 3.937c-1.536 0-2.672-1.343-2.672-3.279 0-2.091 1.252-3.485 3.072-3.485.852 0 1.523.323 1.962.814v-1.149c0-.581-.078-1.33-.284-1.42-.697-.026-.917-.181-.917-.361 0-.155.091-.258.297-.349.504-.245 1.523-.451 1.885-.451.374 0 .451.245.451.709 0 .452-.012 1.149-.012 2.078v4.26c0 .632.025 1.342.18 1.419.658.039.839.181.839.362 0 .129-.077.232-.271.335-.477.233-1.368.439-1.704.439-.374 0-.451-.245-.451-.71 0-.18.013-.464.013-.8a2.54 2.54 0 0 1-2.388 1.588m-1.162-3.472c0 1.626.723 2.516 1.704 2.516.942 0 1.858-.787 1.833-2.684-.013-1.73-.775-2.427-1.73-2.427-1.174 0-1.807 1.033-1.807 2.595m9.128 3.472c-1.536 0-2.672-1.343-2.672-3.279 0-2.091 1.252-3.485 3.072-3.485.852 0 1.523.323 1.962.814v-1.149c0-.581-.078-1.33-.284-1.42-.697-.026-.917-.181-.917-.361 0-.155.091-.258.297-.349.503-.245 1.523-.451 1.885-.451.374 0 .451.245.451.709 0 .452-.013 1.149-.013 2.078v4.26c0 .632.026 1.342.181 1.419.658.039.839.181.839.362 0 .129-.077.232-.271.335-.478.233-1.368.439-1.704.439-.374 0-.451-.245-.451-.71 0-.18.012-.464.012-.8a2.54 2.54 0 0 1-2.387 1.588m-1.162-3.472c0 1.626.723 2.516 1.704 2.516.942 0 1.858-.787 1.833-2.684-.013-1.73-.775-2.427-1.73-2.427-1.174 0-1.807 1.033-1.807 2.595m14.037 3.484c-2.426 0-4.504-2.026-4.504-4.749 0-2.775 2.039-4.814 4.582-4.814.852 0 1.575.258 2.117.49.219.103.322.142.438.142.22 0 .271-.142.517-.142.516 0 .826 1.226.826 2.143 0 .838-.233 1.161-.491 1.161-.322 0-.426-.387-.645-1.123-.336-1.084-1.639-1.768-2.749-1.781-1.807 0-2.969 1.433-2.969 3.408 0 2.129 1.42 4.143 3.485 4.143 1.007 0 1.936-.426 2.427-1.239.258-.452.387-1.007.671-1.007.219 0 .348.206.348.606 0 .917-.632 2.362-1.149 2.362-.271 0-.271-.155-.516-.155-.103 0-.258.065-.426.155-.387.168-1.006.4-1.962.4m6.445-.129c-1.046 0-1.626-.129-1.626-.477 0-.258.258-.336.748-.362.155-.064.168-.451.168-1.355v-4.801c0-.594-.026-1.342-.181-1.42-.684-.038-.877-.18-.877-.361 0-.142.077-.245.258-.336.503-.245 1.432-.451 1.794-.451.374 0 .452.245.452.709 0 .452-.026 1.175-.026 2.091v4.569c0 .852.026 1.291.168 1.355.503.039.748.104.748.362 0 .361-.632.477-1.626.477m3.707 2.427c-.787 0-1.329-.516-1.329-1.11 0-.504.335-.865.787-.865.439 0 .684.284.723.697 0 .116 0 .219.013.31 0 .09.064.168.193.168.349 0 .594-.362.8-.955.104-.323.026-.633-.335-1.394-.452-.981-1.304-2.93-1.781-4.118-.233-.58-.323-.761-.452-.813-.413-.038-.658-.155-.658-.387 0-.336.581-.49 1.703-.49 1.136 0 1.652.167 1.652.49 0 .258-.258.349-.787.374-.103.117.026.671.207 1.214.335.955.929 2.232 1.342 3.084.413-.994.878-2.4 1.097-3.213.116-.401.245-.968.116-1.11-.555-.039-.787-.117-.787-.362 0-.31.594-.477 1.445-.477.814 0 1.33.18 1.33.464 0 .258-.245.336-.671.387-.233.117-.362.401-.568.981-.594 1.652-.917 2.633-1.472 4.092-.697 1.871-1.213 3.033-2.568 3.033m8.004-2.31c-1.536 0-2.672-1.343-2.672-3.279 0-2.091 1.252-3.485 3.072-3.485.852 0 1.523.323 1.962.814v-1.149c0-.581-.077-1.33-.284-1.42-.697-.026-.916-.181-.916-.361 0-.155.09-.258.297-.349.503-.245 1.523-.451 1.884-.451.374 0 .452.245.452.709 0 .452-.013 1.149-.013 2.078v4.26c0 .632.026 1.342.18 1.419.659.039.839.181.839.362 0 .129-.077.232-.271.335-.477.233-1.368.439-1.703.439-.375 0-.452-.245-.452-.71 0-.18.013-.464.013-.8a2.54 2.54 0 0 1-2.388 1.588m-1.161-3.472c0 1.626.722 2.516 1.703 2.516.942 0 1.859-.787 1.833-2.684-.013-1.73-.774-2.427-1.73-2.427-1.174 0-1.806 1.033-1.806 2.595m9.501 3.484c-1.82 0-3.046-1.329-3.046-3.252 0-2.091 1.472-3.524 3.266-3.524 1.626 0 2.646 1.136 2.646 2.259 0 .568-.284.968-.788.968h-3.82c.077 1.381.878 2.285 2.168 2.285.904 0 1.472-.452 1.846-.826.129-.117.232-.22.361-.22.168 0 .271.116.271.336 0 .232-.142.568-.426.877-.464.555-1.303 1.097-2.478 1.097m-1.703-4.259 2.671-.026c.413 0 .633-.142.633-.503 0-.684-.555-1.304-1.459-1.304-.994 0-1.691.723-1.845 1.833"/><path fill="#afbbb0" d="M160.724 143.968c-.755 0-1.015-.382-1.015-.992v-2.173h-.564v-.641h.221c.237 0 .343-.107.343-.343v-.694h.71v1.037h.854v.641h-.854v2.021c0 .32.076.495.48.495.145 0 .244-.015.374-.053v.625a2.3 2.3 0 0 1-.549.077m2.756.023c-1.067 0-1.777-.771-1.777-1.961 0-1.182.71-1.952 1.777-1.952 1.068 0 1.77.77 1.77 1.952 0 1.19-.702 1.961-1.77 1.961m0-.641c.664 0 1.053-.458 1.053-1.32 0-.861-.389-1.311-1.053-1.311-.671 0-1.06.45-1.06 1.311 0 .862.389 1.32 1.06 1.32m4.042.641c-1.007 0-1.663-.771-1.663-1.961 0-1.182.671-1.952 1.663-1.952.496 0 .816.153 1.144.542v-2.052h.709v5.339h-.679v-.504c-.35.412-.678.588-1.174.588m.099-.641c.671 0 1.06-.458 1.06-1.32 0-.861-.389-1.311-1.06-1.311-.664 0-1.06.45-1.06 1.311 0 .862.396 1.32 1.06 1.32m4.295.641c-1.007 0-1.662-.771-1.662-1.961 0-1.182.671-1.952 1.662-1.952.496 0 .816.153 1.144.542v-2.052h.709v5.339h-.678v-.504c-.351.412-.679.588-1.175.588m.099-.641c.671 0 1.06-.458 1.06-1.32 0-.861-.389-1.311-1.06-1.311-.663 0-1.06.45-1.06 1.311 0 .862.397 1.32 1.06 1.32m5.615 1.518c-1.243 0-2.906-.672-2.906-2.838 0-1.838 1.457-3.546 3.402-3.546 1.594 0 2.608.953 2.608 2.425 0 1.213-.725 2.418-1.693 2.418-.465 0-.687-.198-.763-.526-.328.412-.618.518-.991.518-.656 0-1.144-.495-1.144-1.258 0-1.182.739-2.067 1.609-2.067.427 0 .724.198.846.503l.069-.373h.595l-.397 1.967a2.4 2.4 0 0 0-.068.466c0 .221.084.351.335.351.488 0 1.121-.794 1.121-1.999 0-1.258-.831-2.013-2.158-2.013-1.579 0-2.89 1.403-2.89 3.142 0 1.792 1.288 2.418 2.44 2.418.77 0 1.548-.229 2.052-.9h.564c-.618.907-1.563 1.312-2.631 1.312m-.252-2.09c.534 0 1.014-.664 1.014-1.487 0-.473-.213-.763-.617-.763-.534 0-.984.671-.984 1.495 0 .427.213.755.587.755m7.427-.862v.252h-2.692c.038.808.465 1.197 1.06 1.197.465 0 .724-.168.884-.549h.733c-.275.839-.916 1.175-1.617 1.175-1.053 0-1.785-.771-1.785-1.961 0-1.296.786-1.952 1.762-1.952 1.014 0 1.655.77 1.655 1.838m-2.669-.282h1.929c-.046-.641-.374-.946-.915-.946-.542 0-.915.298-1.014.946m3.772 2.273h-.801l1.274-1.922-1.205-1.823h.816l.808 1.266.801-1.266h.801l-1.213 1.807 1.282 1.938h-.816l-.885-1.381zm3.942 1.655h-.71v-5.4h.679v.488c.32-.404.679-.572 1.175-.572 1.006 0 1.662.77 1.662 1.952 0 1.19-.671 1.961-1.662 1.961-.496 0-.855-.168-1.144-.55zm1.044-2.212c.664 0 1.06-.458 1.06-1.32 0-.861-.396-1.311-1.06-1.311-.671 0-1.06.45-1.06 1.311 0 .862.389 1.32 1.06 1.32m5.79-1.434v.252h-2.692c.038.808.465 1.197 1.06 1.197.465 0 .725-.168.885-.549h.732c-.274.839-.915 1.175-1.617 1.175-1.052 0-1.784-.771-1.784-1.961 0-1.296.785-1.952 1.761-1.952 1.015 0 1.655.77 1.655 1.838m-2.669-.282h1.93c-.046-.641-.374-.946-.916-.946-.541 0-.915.298-1.014.946m4.243 2.273h-.709v-3.745h.679v.488c.29-.404.625-.572 1.144-.572.869 0 1.304.488 1.304 1.541v2.288h-.709v-2.227c0-.672-.222-.954-.755-.954-.679 0-.954.458-.954 1.221zm4.803.084c-.923 0-1.48-.42-1.587-1.206h.725c.084.435.381.611.877.611.534 0 .824-.138.824-.496 0-.282-.191-.427-.71-.549l-.327-.076c-.908-.214-1.267-.542-1.267-1.114 0-.694.534-1.083 1.419-1.083.908 0 1.457.404 1.533 1.152h-.725c-.061-.405-.335-.557-.793-.557-.465 0-.724.122-.724.45 0 .267.175.412.671.526l.335.076c.908.206 1.297.534 1.297 1.129 0 .725-.58 1.137-1.548 1.137m2.756-4.569a.407.407 0 0 1-.412-.419c0-.229.176-.412.412-.412s.412.183.412.412a.407.407 0 0 1-.412.419m.351 4.485h-.709v-3.745h.709zm1.984 0h-.702v-3.104h-.564v-.641h.557v-.656c0-.648.404-1.022 1.113-1.022q.24.002.458.061v.641a1 1 0 0 0-.336-.054c-.343 0-.526.115-.526.488v.542h.786v.641h-.786zm1.742 1.731a1.7 1.7 0 0 1-.473-.054l.046-.617a1.1 1.1 0 0 0 .336.053c.289 0 .434-.099.564-.465l.252-.709-1.419-3.684h.747l1.045 2.837.977-2.837h.724l-1.685 4.545c-.26.694-.534.931-1.114.931m3.353-1.709c-.275 0-.458-.205-.458-.472 0-.26.183-.466.458-.466.274 0 .457.206.457.466 0 .267-.183.472-.457.472m2.629.062c-1.06 0-1.754-.771-1.754-1.961 0-1.182.694-1.952 1.754-1.952.831 0 1.472.465 1.647 1.289h-.724c-.153-.442-.473-.648-.923-.648-.656 0-1.053.457-1.053 1.311 0 .855.397 1.32 1.053 1.32.457 0 .785-.198.93-.702h.725c-.176.847-.809 1.343-1.655 1.343m3.94 0c-1.067 0-1.777-.771-1.777-1.961 0-1.182.71-1.952 1.777-1.952 1.068 0 1.77.77 1.77 1.952 0 1.19-.702 1.961-1.77 1.961m0-.641c.664 0 1.053-.458 1.053-1.32 0-.861-.389-1.311-1.053-1.311-.671 0-1.06.45-1.06 1.311 0 .862.389 1.32 1.06 1.32m6.742-3.272c.862 0 1.296.488 1.296 1.541v2.288h-.709v-2.243c0-.656-.206-.938-.717-.938-.648 0-.915.458-.915 1.251v1.93h-.709v-2.243c0-.656-.214-.938-.717-.938-.656 0-.916.458-.916 1.251v1.93h-.709v-3.745h.679v.488c.29-.404.602-.572 1.098-.572.526 0 .9.206 1.106.664.259-.443.679-.664 1.213-.664"/><path fill="#061b09" d="M84 163.333h220v37.547H84z"/><path fill="#03d47c" d="M102.773 181.436h4.023v-4.023h-4.023zm1.341-2.682h1.341v1.341h-1.341zm4.023-1.341v4.023h4.023v-4.023zm2.682 2.682h-1.341v-1.341h1.341zm-8.046 6.705h4.023v-4.023h-4.023zm1.341-2.682h1.341v1.341h-1.341zm7.376-1.341h.67v2.682h-2.011v-.67h-.671v2.011h-1.341v-4.023h2.012v.671h1.341zm0 3.353h.67v.67h-.67zm-1.341 0h.67v.67h-.67z"/><path fill="#e7ece9" d="M129.109 184.212c-1.611 0-2.587-.748-2.614-2.138h1.232c.027.713.467 1.073 1.382 1.073.748 0 1.241-.246 1.241-.765 0-.379-.185-.572-.986-.757l-.818-.176c-1.364-.308-1.892-.81-1.892-1.786 0-1.004.756-1.822 2.305-1.822 1.584 0 2.403.774 2.464 2.015h-1.232c-.035-.616-.431-.95-1.232-.95-.66 0-1.065.22-1.065.66 0 .369.176.554.968.73l.81.185c1.382.317 1.918.818 1.918 1.795 0 1.294-1.038 1.936-2.481 1.936m4.485-.105h-1.188v-6.16h1.188v2.323c.281-.414.686-.599 1.196-.599 1.039 0 1.567.546 1.567 1.857v2.579h-1.179v-2.482c0-.704-.247-.942-.74-.942-.545 0-.844.37-.844 1.065zm5.635-4.436c1.294 0 1.857.537 1.857 1.822v2.614h-1.117v-.564c-.256.379-.678.669-1.294.669-.933 0-1.514-.475-1.514-1.258 0-.889.757-1.364 1.919-1.364.334 0 .581.026.827.079v-.343c0-.537-.238-.766-.722-.766-.466 0-.712.247-.739.59h-1.179c.088-1.003.906-1.479 1.962-1.479m-.228 3.644c.475 0 .906-.335.906-.863v-.053a2.5 2.5 0 0 0-.722-.088c-.528 0-.844.168-.844.528 0 .3.202.476.66.476m4.295.792h-1.188v-4.339h1.118v.634c.255-.502.642-.687 1.047-.687.105 0 .255.009.352.036v1.1a3 3 0 0 0-.44-.036c-.563 0-.889.37-.889 1.162zm5.935-2.148v.22h-3.044c.07.748.457 1.074.985 1.074.519 0 .748-.229.854-.537h1.205c-.325 1.162-1.24 1.496-2.059 1.496-1.329 0-2.2-.889-2.2-2.279 0-1.628 1.083-2.262 2.156-2.262 1.355 0 2.103.977 2.103 2.288m-3.018-.51h1.769c-.053-.598-.361-.871-.854-.871-.44 0-.801.237-.915.871m7.893 2.763c-1.294 0-2.139-.889-2.139-2.279 0-1.373.872-2.262 2.174-2.262 1.065 0 1.883.537 2.024 1.637h-1.206c-.149-.44-.431-.651-.853-.651-.59 0-.959.458-.959 1.276s.36 1.285.959 1.285c.431 0 .748-.238.871-.722h1.197c-.176 1.074-.968 1.716-2.068 1.716m4.684 0c-1.311 0-2.173-.889-2.173-2.279 0-1.373.862-2.262 2.173-2.262 1.32 0 2.174.889 2.174 2.262 0 1.39-.854 2.279-2.174 2.279m0-.994c.616 0 .986-.467.986-1.285s-.37-1.276-.986-1.276c-.625 0-.994.458-.994 1.276s.369 1.285.994 1.285m4.644.994c-1.179 0-1.936-.889-1.936-2.279 0-1.373.792-2.262 1.936-2.262.502 0 .88.168 1.188.502v-2.226h1.179v6.16h-1.109v-.502c-.352.405-.748.607-1.258.607m.229-.994c.625 0 .994-.458.994-1.285 0-.818-.369-1.276-.994-1.276-.616 0-.986.458-.986 1.276 0 .827.37 1.285.986 1.285m7.216-1.259v.22h-3.045c.071.748.458 1.074.986 1.074.519 0 .748-.229.853-.537h1.206c-.326 1.162-1.241 1.496-2.059 1.496-1.329 0-2.2-.889-2.2-2.279 0-1.628 1.082-2.262 2.156-2.262 1.355 0 2.103.977 2.103 2.288m-3.018-.51h1.768c-.052-.598-.36-.871-.853-.871-.44 0-.801.237-.915.871"/><path fill="#8b9c8f" fill-rule="evenodd" d="M283.224 177.17a1.173 1.173 0 0 1 1.659 0l4.936 4.937-4.936 4.936a1.173 1.173 0 0 1-1.659-1.659l3.277-3.277-3.277-3.277a1.173 1.173 0 0 1 0-1.66" clip-rule="evenodd"/><path fill="#061b09" d="M84 200.88h220v37.547H84z"/><path fill="#03d47c" fill-rule="evenodd" d="M103.36 215.409c0-.572.464-1.036 1.035-1.036h6.143c.572 0 1.035.464 1.035 1.036v8.489c0 .572-.463 1.035-1.035 1.035h-1.898v-1.886a.46.46 0 0 0-.46-.46h-1.427a.46.46 0 0 0-.46.46v1.886h-1.898a1.035 1.035 0 0 1-1.035-1.035zm2.284.138a.586.586 0 1 0 0 1.173h3.65a.587.587 0 0 0 0-1.173zm-.587 2.933c0-.324.263-.587.587-.587h3.65a.587.587 0 0 1 0 1.174h-3.65a.587.587 0 0 1-.587-.587m.587 1.76a.587.587 0 0 0 0 1.173h3.65a.586.586 0 1 0 0-1.173z" clip-rule="evenodd"/><path fill="#e7ece9" d="M129.206 221.653h-1.285l-1.646-6.16h1.294l1.038 4.427 1.215-4.427h1.205l1.215 4.427 1.038-4.427h1.276l-1.646 6.16h-1.284l-1.224-4.347zm7.43.106c-1.312 0-2.174-.889-2.174-2.279 0-1.373.862-2.262 2.174-2.262 1.32 0 2.173.889 2.173 2.262 0 1.39-.853 2.279-2.173 2.279m0-.995c.616 0 .985-.466.985-1.284s-.369-1.276-.985-1.276c-.625 0-.995.457-.995 1.276 0 .818.37 1.284.995 1.284m4.159.889h-1.188v-4.338h1.118v.633c.255-.501.642-.686 1.047-.686.106 0 .255.009.352.035v1.1a3 3 0 0 0-.44-.035c-.563 0-.889.37-.889 1.162zm6.198 0h-1.461l-1.161-1.601-.379.396v1.205h-1.188v-6.16h1.188v3.503l1.567-1.681h1.39l-1.804 1.909zm2.133.106c-1.197 0-1.892-.511-1.989-1.496h1.17c.071.44.343.625.854.625.466 0 .73-.132.73-.432 0-.228-.167-.369-.625-.466l-.36-.088c-1.136-.255-1.628-.607-1.628-1.329 0-.897.668-1.355 1.777-1.355 1.223 0 1.892.493 1.945 1.452h-1.162c-.026-.422-.281-.59-.739-.59-.413 0-.651.124-.651.414 0 .22.158.361.607.458l.37.079c1.126.255 1.637.616 1.637 1.346 0 .907-.731 1.382-1.936 1.382m3.915 1.769h-1.188v-6.213h1.118v.501a1.55 1.55 0 0 1 1.258-.598c1.18 0 1.936.889 1.936 2.262 0 1.39-.792 2.279-1.944 2.279-.502 0-.898-.185-1.18-.511zm.951-2.764c.625 0 .994-.457.994-1.284 0-.828-.369-1.276-.994-1.276-.616 0-.986.448-.986 1.276 0 .827.37 1.284.986 1.284m4.831-3.546c1.294 0 1.857.537 1.857 1.822v2.613h-1.118v-.563c-.255.378-.677.669-1.293.669-.933 0-1.514-.475-1.514-1.259 0-.888.757-1.364 1.919-1.364.334 0 .58.027.827.08v-.344c0-.536-.238-.765-.722-.765-.466 0-.713.246-.739.589h-1.179c.088-1.003.906-1.478 1.962-1.478m-.229 3.643c.476 0 .907-.334.907-.862v-.053a2.4 2.4 0 0 0-.722-.088c-.528 0-.845.167-.845.528 0 .299.203.475.66.475m4.982.898c-1.293 0-2.138-.889-2.138-2.279 0-1.373.871-2.262 2.173-2.262 1.065 0 1.884.537 2.024 1.637h-1.205c-.15-.44-.431-.651-.854-.651-.589 0-.959.457-.959 1.276 0 .818.361 1.284.959 1.284.431 0 .748-.237.871-.721h1.197c-.176 1.073-.968 1.716-2.068 1.716m6.77-2.253v.22h-3.045c.071.748.458 1.074.986 1.074.519 0 .748-.229.854-.537h1.205c-.325 1.161-1.241 1.496-2.059 1.496-1.329 0-2.2-.889-2.2-2.279 0-1.628 1.082-2.262 2.156-2.262 1.355 0 2.103.977 2.103 2.288m-3.018-.51h1.769c-.053-.599-.361-.872-.854-.872-.44 0-.801.238-.915.872m5.491 2.763c-1.197 0-1.892-.511-1.989-1.496H172c.071.44.343.625.854.625.466 0 .73-.132.73-.432 0-.228-.167-.369-.625-.466l-.36-.088c-1.136-.255-1.628-.607-1.628-1.329 0-.897.668-1.355 1.777-1.355 1.223 0 1.892.493 1.945 1.452h-1.162c-.026-.422-.281-.59-.739-.59-.413 0-.651.124-.651.414 0 .22.158.361.607.458l.37.079c1.126.255 1.637.616 1.637 1.346 0 .907-.731 1.382-1.936 1.382"/><path fill="#8b9c8f" fill-rule="evenodd" d="M283.224 214.717a1.173 1.173 0 0 1 1.659 0l4.936 4.936-4.936 4.937a1.173 1.173 0 1 1-1.659-1.66l3.277-3.277-3.277-3.277a1.17 1.17 0 0 1 0-1.659" clip-rule="evenodd"/><path fill="#061b09" d="M84 238.427h220v37.547H84z"/><g clip-path="url(#d)"><path fill="#03d47c" fill-rule="evenodd" d="M110.954 259.369a4.106 4.106 0 1 0-6.975 0c.809-.963 2.07-1.582 3.487-1.582s2.679.619 3.488 1.582m1.793-2.169a5.28 5.28 0 1 1-10.56 0 5.28 5.28 0 0 1 10.56 0m-5.28 0a1.76 1.76 0 1 0 0-3.52 1.76 1.76 0 0 0 0 3.52" clip-rule="evenodd"/></g><path fill="#e7ece9" d="M128.114 259.2h-1.232v-6.16h2.464c1.364 0 2.262.774 2.262 2.094s-.898 2.104-2.262 2.104h-1.232zm0-5.034v1.945h1.25c.642 0 1.012-.369 1.012-.977 0-.598-.37-.968-1.012-.968zm5.454 5.034h-1.188v-4.338h1.118v.633c.255-.501.642-.686 1.047-.686.105 0 .255.009.352.035v1.1a3 3 0 0 0-.44-.035c-.563 0-.889.369-.889 1.161zm3.85.106c-1.312 0-2.174-.889-2.174-2.28 0-1.372.862-2.261 2.174-2.261 1.32 0 2.173.889 2.173 2.261 0 1.391-.853 2.28-2.173 2.28m0-.995c.616 0 .985-.466.985-1.285 0-.818-.369-1.276-.985-1.276-.625 0-.995.458-.995 1.276s.37 1.285.995 1.285m4.309.889h-1.179v-3.353h-.608v-.985h.608v-.678c0-.827.563-1.25 1.381-1.25.247 0 .467.036.687.097v.977a1.2 1.2 0 0 0-.388-.062c-.316 0-.501.097-.501.476v.44h.845v.985h-.845zm2.054-4.998a.63.63 0 0 1-.643-.634.62.62 0 0 1 .643-.625.62.62 0 0 1 .642.625.63.63 0 0 1-.642.634m.589 4.998h-1.188v-4.338h1.188zm2.313.053c-.862 0-1.241-.387-1.241-1.171v-5.042h1.188v4.77c0 .308.08.448.361.448.044 0 .097 0 .15-.008v.95a2 2 0 0 1-.458.053m5.118-2.2v.22h-3.045c.07.748.458 1.073.986 1.073.519 0 .748-.228.853-.536h1.206c-.326 1.161-1.241 1.496-2.059 1.496-1.329 0-2.2-.889-2.2-2.28 0-1.628 1.082-2.261 2.156-2.261 1.355 0 2.103.977 2.103 2.288m-3.019-.511h1.769c-.053-.598-.361-.871-.853-.871-.44 0-.801.238-.916.871"/><path fill="#8b9c8f" fill-rule="evenodd" d="M283.224 252.264a1.17 1.17 0 0 1 1.659 0l4.936 4.936-4.936 4.936a1.173 1.173 0 0 1-1.659-1.659l3.277-3.277-3.277-3.277a1.17 1.17 0 0 1 0-1.659" clip-rule="evenodd"/></g><rect width="222.347" height="478.72" x="82.827" y="18.827" stroke="#061b09" stroke-width="2.347" rx="15.253"/></g><path stroke="#1a3d32" stroke-width="2" d="M1.5 1H386v262H1.5z"/><defs><clipPath id="a"><path fill="#fff" d="M.5 0H387v264H.5z"/></clipPath><clipPath id="b"><rect width="220" height="476.373" x="84" y="20" fill="#fff" rx="14.08"/></clipPath><clipPath id="c"><rect width="46.933" height="46.933" x="170.533" y="62.24" fill="#fff" rx="23.467"/></clipPath><clipPath id="d"><path fill="#fff" d="M101.6 251.333h11.733v11.733H101.6z"/></clipPath></defs></svg>