<svg xmlns="http://www.w3.org/2000/svg" width="48" height="48" fill="none" viewBox="0 0 48 48"><path fill="#fffaf0" d="m42.353 31.412 3.177-1.059-19.765-14.47S24.221 13.225 24 12c-.22-1.224-.706-3.176-.706-3.176l-2.117 3.53-2.118-1.766-1.607 2.913-2.628-1.5-1.412 2.823-2.824-1.765-1.058 2.824-2.47-1.412-1.413 2.117-2.823-1.411s-.055 5.244 2.849 7.693c2.903 2.449 21.15 14.189 21.15 14.189z"/><path stroke="#002140" stroke-linecap="round" stroke-linejoin="round" stroke-width=".706" d="M5.673 22.82c-1.038-.868-3.005-3.488-2.84-7.554l2.84 1.586 1.222-2.531 2.549 1.532 1.204-2.707 2.83 1.683 1.33-2.948 2.662 1.653 1.453-2.875s2.25 1.574 2.497 1.688c.217-1.5 2.045-3.876 2.045-3.876"/><path stroke="#002140" stroke-linecap="round" stroke-linejoin="round" stroke-width=".706" d="M26.424 16.342c-.859-.573-2.305-1.841-2.961-7.871"/><path stroke="#002140" stroke-linecap="round" stroke-linejoin="round" stroke-width=".706" d="m26.019 16.04 19.44 14.467-20.346 6.782-19.44-14.468"/><path fill="#00b268" d="M18.25 19.983 4.067 28.508l22.5 10.935 14.397-8.778z"/><path fill="#fed607" d="M18.455 24.352c.968-.21 1.64-.904 1.499-1.549s-1.04-.995-2.007-.785c-.968.211-1.639.905-1.498 1.549.14.644 1.038.996 2.006.785m-7.573 4.709c.877-.191 1.475-.869 1.334-1.513-.14-.644-.965-1.012-1.843-.82-.877.19-1.475.868-1.334 1.512.14.645.965 1.012 1.843.821m23.678 3.38c.877-.191 1.475-.868 1.334-1.513-.14-.644-.965-1.012-1.842-.82-.878.19-1.475.868-1.335 1.512.14.645.966 1.012 1.843.821"/><path stroke="#002140" stroke-linecap="round" stroke-linejoin="round" stroke-width=".706" d="M40.81 30.901 18.105 19.783 3.833 28.518 26.666 39.42z"/><path stroke="#002140" stroke-linecap="round" stroke-linejoin="round" stroke-width=".706" d="M10.9 29.139c1.015-.221 1.703-1.017 1.537-1.777-.165-.76-1.122-1.197-2.137-.976-1.014.22-1.702 1.016-1.537 1.776s1.123 1.198 2.137.977m23.572 3.472c1.014-.22 1.703-1.016 1.537-1.776s-1.122-1.198-2.137-.977-1.703 1.017-1.537 1.777 1.122 1.197 2.137.976M18.46 24.502c1.014-.22 1.703-1.016 1.537-1.776s-1.122-1.198-2.137-.977-1.703 1.017-1.537 1.777c.165.76 1.122 1.197 2.137.976"/><path fill="#00b268" d="M22.81 16.4 7.136 21.714l19.655 15.473 15.938-5.512z"/><path fill="#fed607" d="M22.079 20.716c.99 0 1.794-.534 1.794-1.194s-.803-1.194-1.794-1.194c-.99 0-1.794.535-1.794 1.194 0 .66.803 1.194 1.794 1.194m-8.401 2.988c.898 0 1.626-.535 1.626-1.194 0-.66-.728-1.194-1.626-1.194s-1.626.534-1.626 1.194.728 1.194 1.626 1.194m14.044 11.024c.898 0 1.626-.534 1.626-1.194s-.728-1.194-1.626-1.194-1.626.534-1.626 1.194.728 1.194 1.626 1.194m8.371-2.682c.898 0 1.626-.535 1.626-1.194 0-.66-.728-1.194-1.626-1.194s-1.626.534-1.626 1.194.728 1.194 1.626 1.194M27.921 24.9s-4.581-3.054-6.773-1.99c-2.19 1.063-.34 4.579.797 5.445s4.715 2.855 6.84 1.86.2-4.781-.864-5.312z"/><path stroke="#002140" stroke-linecap="round" stroke-linejoin="round" stroke-width=".706" d="M42.53 31.873 22.71 16.176 6.906 21.674l19.99 15.512z"/><path stroke="#002140" stroke-linecap="round" stroke-linejoin="round" stroke-width=".706" d="M13.68 23.786c1.038 0 1.88-.631 1.88-1.41 0-.777-.842-1.408-1.88-1.408s-1.88.63-1.88 1.409c0 .778.842 1.409 1.88 1.409m14.041 11.157c1.039 0 1.88-.631 1.88-1.41 0-.777-.841-1.408-1.88-1.408s-1.88.63-1.88 1.409c0 .778.842 1.409 1.88 1.409m8.249-2.749c1.038 0 1.88-.63 1.88-1.409 0-.778-.842-1.408-1.88-1.408s-1.88.63-1.88 1.408.842 1.41 1.88 1.41M22.052 20.864c1.038 0 1.88-.63 1.88-1.408 0-.779-.842-1.41-1.88-1.41-1.039 0-1.88.631-1.88 1.41s.841 1.408 1.88 1.408m7.44 8.659c.942-1.482-.398-4.022-2.995-5.673s-5.465-1.788-6.408-.306c-.942 1.483.399 4.023 2.995 5.674 2.597 1.65 5.465 1.787 6.408.305"/><path fill="#fed607" d="M23.766 21.624s.975 1.999 7.59 1.794 7.382-1.488 7.382-1.898-3.025-1.793-7.025-1.744c-4 .05-7.794.513-7.947 1.846z"/><path fill="#ffed8f" d="M24.321 21.012c.642.451 1.488.496 2.263.38s1.525-.375 2.304-.471c.9-.111 1.811-.003 2.717-.003.365 0 .745-.022 1.07-.19s.583-.518.536-.88c0 0-2.746-.1-4.838.061-2.095.16-4.052 1.1-4.052 1.1z"/><path fill="#d18000" d="M23.87 21.984v2.206s2.768 1.488 7.742 1.488 7.178-1.59 7.178-1.59v-2.205s-2.307 1.745-7.434 1.537c-5.128-.207-6.872-1.026-7.486-1.436"/><path stroke="#002140" stroke-linecap="round" stroke-linejoin="round" stroke-width=".706" d="M31.304 23.334c4.134 0 7.486-.781 7.486-1.745 0-.963-3.352-1.744-7.486-1.744s-7.486.781-7.486 1.744c0 .964 3.351 1.745 7.486 1.745"/><path stroke="#002140" stroke-linecap="round" stroke-linejoin="round" stroke-width=".706" d="M23.818 21.59v2.289c0 .962 3.35 1.744 7.486 1.744s7.486-.78 7.486-1.744v-2.29"/><path stroke="#d18000" stroke-miterlimit="10" stroke-width=".706" d="M31.338 22.105c1.586 0 2.872-.26 2.872-.58s-1.286-.58-2.872-.58-2.872.26-2.872.58 1.286.58 2.872.58Z"/><path fill="#002140" d="m7.556 22.389-1.066.738 2.458 1.964 1.226-.82zm30.536 2.374 1.473 1.31s-2.62.819-3.44.819l-1.473-1.31z"/></svg>