<svg xmlns="http://www.w3.org/2000/svg" width="48" height="48" fill="none" viewBox="0 0 48 48"><path fill="#4ba6a6" d="M33.036 12.945c0 2.47-2.015 4.473-4.5 4.473-2.486 0-4.5-2.003-4.5-4.473 0-2.471 2.014-4.474 4.5-4.474 2.485 0 4.5 2.003 4.5 4.474"/><path fill="#4ed7de" d="M27.635 31.735c0 1.789-.969 3.56-3.6 3.56H7.831c-2.685 0-3.596-1.793-3.596-3.56 0-5.39 5.4-8.967 11.698-8.967s11.702 3.598 11.702 8.967"/><path fill="#4ba6a6" d="M36.635 31.735c2.605 0 3.6-1.83 3.6-3.58 0-5.387-5.469-8.947-12.076-8.947-1.828 0-3.888.51-4.944 1.241s-.892 1.539 0 1.976c4.558 2.232 6.235 5.557 6.235 7.549 0 1.135.774 1.76 1.772 1.76z"/><path fill="#4ed7de" d="M20.436 16.524c0 2.47-2.015 4.473-4.5 4.473-2.486 0-4.5-2.003-4.5-4.474s2.014-4.473 4.5-4.473c2.485 0 4.5 2.003 4.5 4.473"/><path stroke="#002140" stroke-width=".706" d="M33.036 12.945c0 2.47-2.015 4.473-4.5 4.473-2.486 0-4.5-2.003-4.5-4.473 0-2.471 2.014-4.474 4.5-4.474 2.485 0 4.5 2.003 4.5 4.474Zm-5.401 18.79c0 1.789-.969 3.56-3.6 3.56H7.831c-2.685 0-3.596-1.793-3.596-3.56 0-5.39 5.4-8.967 11.698-8.967s11.702 3.598 11.702 8.967Z"/><path stroke="#002140" stroke-width=".706" d="M36.635 31.735c2.605 0 3.6-1.83 3.6-3.58 0-5.387-5.469-8.947-12.076-8.947-1.828 0-3.888.51-4.944 1.241s-.892 1.539 0 1.976c4.558 2.232 6.235 5.557 6.235 7.549 0 1.135.774 1.76 1.772 1.76zM20.436 16.524c0 2.47-2.015 4.473-4.5 4.473-2.486 0-4.5-2.003-4.5-4.474s2.014-4.473 4.5-4.473c2.485 0 4.5 2.003 4.5 4.473Z"/></svg>