<svg xmlns="http://www.w3.org/2000/svg" id="Layer_1" width="68" height="68" data-name="Layer 1" version="1.1" viewBox="0 0 68 68"><defs><style>.cls-1{fill:#03d47c;stroke-linecap:round;stroke:#002140}.cls-2,.cls-3{stroke:#002140;fill:#8eecc4;stroke-miterlimit:10}.cls-3{fill:#28736d}</style></defs><path d="M34.418,59.869h-14.474c-1.408,0-1.505-2.694.092-2.694,6.155,0,12.125-2.155,12.125-5.926l.018-.014v-4.199H11.452c-2.909,0-5.287-2.477-5.287-5.507V14.507c0-3.03,2.378-5.507,5.287-5.507h45.261c2.909,0,5.287,2.477,5.287,5.507v27.027c0,3.03-2.378,5.507-5.287,5.507h-20.675v.029l-.051,4.17v.014c.005,3.771,5.974,5.926,12.134,5.926,1.597,0,1.505,2.694.092,2.694h-14.475.683l-.005-.005Z" class="cls-3"/><path d="M57.272,11.742H10.889c-1.26,0-2.281,1.064-2.281,2.376v27.969c0,1.312,1.021,2.376,2.281,2.376h46.383c1.26,0,2.281-1.064,2.281-2.376V14.118c0-1.312-1.021-2.376-2.281-2.376Z" class="cls-2"/><path d="M27.25,20.563v1.166l.845-.803c1.571-1.494,3.655-2.426,5.989-2.426,3.578,0,6.585,2.198,8.025,5.248.351.743.025,1.632-.748,1.983-.778.353-1.694.017-2.048-.732-1.013-2.146-3.022-3.504-5.229-3.504-1.822,0-3.517.93-4.619,2.464l-.569.792h3.229c.759,0,1.375.616,1.375,1.375s-.616,1.375-1.375,1.375h-7.625v-7.625c0-.759.616-1.375,1.375-1.375s1.375.616,1.375,1.375v.688ZM35.875,28.5h7.625v7.625c0,.759-.616,1.375-1.375,1.375s-1.375-.616-1.375-1.375v-1.854l-.845.804c-1.57,1.494-3.655,2.426-5.989,2.426-3.579,0-6.585-2.199-8.025-5.249-.351-.743-.025-1.631.749-1.982.779-.353,1.694-.016,2.047.732,1.013,2.146,3.022,3.505,5.23,3.505,1.823,0,3.517-.931,4.619-2.465l.569-.792h-3.229c-.759,0-1.375-.616-1.375-1.375s.616-1.375,1.375-1.375Z" class="cls-1"/></svg>