<svg xmlns="http://www.w3.org/2000/svg" id="Layer_1" width="68" height="68" data-name="Layer 1" viewBox="0 0 68 68"><defs><style>.cls-1{fill:#03d47c;stroke-linecap:round;stroke:#002140}.cls-2,.cls-3{stroke:#002140;fill:#8eecc4;stroke-miterlimit:10}.cls-3{fill:#28736d}</style></defs><path d="M34.418 59.869H19.944c-1.408 0-1.505-2.694.092-2.694 6.155 0 12.125-2.155 12.125-5.926l.018-.014v-4.199H11.452c-2.909 0-5.287-2.477-5.287-5.507V14.507C6.165 11.477 8.543 9 11.452 9h45.261C59.622 9 62 11.477 62 14.507v27.027c0 3.03-2.378 5.507-5.287 5.507H36.038v.029l-.051 4.17v.014c.005 3.771 5.974 5.926 12.134 5.926 1.597 0 1.505 2.694.092 2.694H33.738h.683l-.005-.005Z" class="cls-3"/><path d="M57.272 11.742H10.889c-1.26 0-2.281 1.064-2.281 2.376v27.969c0 1.312 1.021 2.376 2.281 2.376h46.383c1.26 0 2.281-1.064 2.281-2.376V14.118c0-1.312-1.021-2.376-2.281-2.376Z" class="cls-2"/><path d="M27.25 20.563v1.166l.845-.803c1.571-1.494 3.655-2.426 5.989-2.426 3.578 0 6.585 2.198 8.025 5.248a1.48 1.48 0 0 1-.748 1.983c-.778.353-1.694.017-2.048-.732-1.013-2.146-3.022-3.504-5.229-3.504-1.822 0-3.517.93-4.619 2.464l-.569.792h3.229a1.376 1.376 0 0 1 0 2.75H24.5v-7.625a1.376 1.376 0 0 1 2.75 0v.688Zm8.625 7.937H43.5v7.625a1.376 1.376 0 0 1-2.75 0v-1.854l-.845.804c-1.57 1.494-3.655 2.426-5.989 2.426-3.579 0-6.585-2.199-8.025-5.249a1.48 1.48 0 0 1 .749-1.982c.779-.353 1.694-.016 2.047.732 1.013 2.146 3.022 3.505 5.23 3.505 1.823 0 3.517-.931 4.619-2.465l.569-.792h-3.229a1.376 1.376 0 0 1 0-2.75Z" class="cls-1"/></svg>