<svg width="48" height="48" viewBox="0 0 48 48" fill="none" xmlns="http://www.w3.org/2000/svg">
<path d="M18.2959 34.8273V29.2062L6.11719 10.0017V18.3546L18.2959 34.8273Z" fill="#002140"/>
<path d="M27.6111 9.79218C27.6111 9.79218 26.7781 8.95925 26.1546 8.90748C25.5311 8.85572 7.41832 8.80396 7.41832 8.80396C7.41832 8.80396 6.3148 9.66277 6.16892 10.0016C6.02304 10.3404 6.76421 11.9545 6.76421 11.9545L18.1406 29.6226V35.1919H39.6886V29.7261L27.6134 9.79218H27.6111Z" fill="#003C73"/>
<path d="M38.0724 31.9377C38.0724 31.9377 37.7595 31.3142 37.0842 31.3142H21.1573C21.1573 31.3142 20.5996 31.6319 20.4279 32.0954C20.2561 32.5589 24.5384 38.4977 24.5384 38.4977L26.6208 38.653L40.83 38.4977C40.83 38.4977 41.4018 37.7683 41.1947 37.3C40.9877 36.8318 38.0724 31.9401 38.0724 31.9401V31.9377Z" fill="#FF7101"/>
<path d="M9.58984 11.1709L13.1804 17.3003L29.6155 17.145L25.712 10.938L9.58984 11.1709Z" fill="#4ED7DE"/>
<path d="M15.1714 19.0181L16.2255 20.8133H19.9337L18.9196 19.0181H15.1714Z" fill="#4BA6A6"/>
<path d="M20.7144 19.0181L21.7685 20.8133H25.4767L24.4626 19.0181H20.7144Z" fill="#4BA6A6"/>
<path d="M25.8677 19.0181L26.9218 20.8133H30.63L29.6159 19.0181H25.8677Z" fill="#4BA6A6"/>
<path d="M17.3193 22.3755L18.3734 24.1708H22.0816L21.0652 22.3755H17.3193Z" fill="#4BA6A6"/>
<path d="M22.771 22.3357L23.8251 24.131H27.5333L26.5192 22.3357H22.771Z" fill="#4BA6A6"/>
<path d="M28.0537 22.3755L29.1078 24.1708H32.816L31.8019 22.3755H28.0537Z" fill="#4BA6A6"/>
<path d="M18.8535 25.4204L19.9076 27.2157H23.6158L22.6017 25.4204H18.8535Z" fill="#4BA6A6"/>
<path d="M24.7217 25.458L25.7758 27.2533H29.484L28.4699 25.458H24.7217Z" fill="#4BA6A6"/>
<path d="M30.2393 25.3145L31.2934 27.1121H35.0016L33.9875 25.3145H30.2393Z" fill="#4BA6A6"/>
<path d="M18.2676 34.8508L6.47948 18.6368C6.31713 18.3898 6.23242 18.098 6.23242 17.8039V10.3146C6.23242 9.46986 6.91712 8.78516 7.76182 8.78516H26.3546C26.9805 8.78516 27.4346 9.11692 27.8722 9.84632" stroke="#002140" stroke-width="0.705875" stroke-linecap="round" stroke-linejoin="round"/>
<path d="M22.1051 35.0672H18.6511C18.404 35.0672 18.2017 34.8672 18.2017 34.6178V29.8955C18.2017 29.6484 18.4017 29.446 18.6511 29.446H39.4038C39.6509 29.446 39.8532 29.646 39.8532 29.8955V34.8319" stroke="#002140" stroke-width="0.705875" stroke-linecap="round" stroke-linejoin="round"/>
<path d="M18.3598 29.5544L6.23047 10.7805" stroke="#002140" stroke-width="0.705875" stroke-linecap="round" stroke-linejoin="round"/>
<path d="M39.8182 29.7215L27.7783 9.68872" stroke="#002140" stroke-width="0.705875" stroke-linecap="round" stroke-linejoin="round"/>
<path d="M29.6254 17.2415H13.1526L9.40674 10.9968L25.8795 10.9192L29.6254 17.1638" stroke="#002140" stroke-width="0.705875" stroke-linecap="round" stroke-linejoin="round"/>
<path d="M21.0254 33.3238C20.6018 33.3238 20.2583 32.9802 20.2583 32.5567V32.1379C20.2583 31.7144 20.6018 31.3708 21.0254 31.3708H37.6817C38.1052 31.3708 38.4487 31.7144 38.4487 32.1379V32.5567" stroke="#002140" stroke-width="0.705875" stroke-linecap="round" stroke-linejoin="round"/>
<path d="M20.2583 32.138L24.2465 38.1708C24.4371 38.4579 24.7594 38.632 25.103 38.632H40.2628C41.0699 38.632 41.5616 37.745 41.1357 37.0603L37.7193 31.6062" stroke="#002140" stroke-width="0.705875" stroke-linecap="round" stroke-linejoin="round"/>
<path d="M16.2655 20.8533L15.1714 19.0181" stroke="#002140" stroke-width="0.705875" stroke-linecap="round" stroke-linejoin="round"/>
<path d="M18.9595 19.0181L20.0136 20.8533" stroke="#002140" stroke-width="0.705875" stroke-linecap="round" stroke-linejoin="round"/>
<path d="M16.2656 20.8533H20.0138" stroke="#002140" stroke-width="0.705875" stroke-linecap="round" stroke-linejoin="round"/>
<path d="M15.2114 19.0181H18.9596" stroke="#002140" stroke-width="0.705875" stroke-linecap="round" stroke-linejoin="round"/>
<path d="M21.7026 20.8533L20.6108 19.0181" stroke="#002140" stroke-width="0.705875" stroke-linecap="round" stroke-linejoin="round"/>
<path d="M24.397 19.0181L25.4511 20.8533" stroke="#002140" stroke-width="0.705875" stroke-linecap="round" stroke-linejoin="round"/>
<path d="M21.7031 20.8533H25.4513" stroke="#002140" stroke-width="0.705875" stroke-linecap="round" stroke-linejoin="round"/>
<path d="M20.6509 19.0181H24.3967" stroke="#002140" stroke-width="0.705875" stroke-linecap="round" stroke-linejoin="round"/>
<path d="M27.1429 20.8533L26.0488 19.0181" stroke="#002140" stroke-width="0.705875" stroke-linecap="round" stroke-linejoin="round"/>
<path d="M29.8369 19.0181L30.891 20.8533" stroke="#002140" stroke-width="0.705875" stroke-linecap="round" stroke-linejoin="round"/>
<path d="M27.1426 20.8533H30.8908" stroke="#002140" stroke-width="0.705875" stroke-linecap="round" stroke-linejoin="round"/>
<path d="M26.0889 19.0181H29.8371" stroke="#002140" stroke-width="0.705875" stroke-linecap="round" stroke-linejoin="round"/>
<path d="M18.2958 24.0533L17.2017 22.218" stroke="#002140" stroke-width="0.705875" stroke-linecap="round" stroke-linejoin="round"/>
<path d="M20.9873 22.218L22.0414 24.0533" stroke="#002140" stroke-width="0.705875" stroke-linecap="round" stroke-linejoin="round"/>
<path d="M18.2959 24.0532H22.0417" stroke="#002140" stroke-width="0.705875" stroke-linecap="round" stroke-linejoin="round"/>
<path d="M17.2417 22.218H20.9875" stroke="#002140" stroke-width="0.705875" stroke-linecap="round" stroke-linejoin="round"/>
<path d="M23.7592 24.0533L22.6675 22.218" stroke="#002140" stroke-width="0.705875" stroke-linecap="round" stroke-linejoin="round"/>
<path d="M26.4536 22.218L27.5077 24.0533" stroke="#002140" stroke-width="0.705875" stroke-linecap="round" stroke-linejoin="round"/>
<path d="M23.7593 24.0532H27.5075" stroke="#002140" stroke-width="0.705875" stroke-linecap="round" stroke-linejoin="round"/>
<path d="M22.7051 22.218H26.4533" stroke="#002140" stroke-width="0.705875" stroke-linecap="round" stroke-linejoin="round"/>
<path d="M29.3285 24.0533L28.2344 22.218" stroke="#002140" stroke-width="0.705875" stroke-linecap="round" stroke-linejoin="round"/>
<path d="M32.0229 22.218L33.0771 24.0533" stroke="#002140" stroke-width="0.705875" stroke-linecap="round" stroke-linejoin="round"/>
<path d="M29.3286 24.0532H33.0768" stroke="#002140" stroke-width="0.705875" stroke-linecap="round" stroke-linejoin="round"/>
<path d="M28.2744 22.218H32.0226" stroke="#002140" stroke-width="0.705875" stroke-linecap="round" stroke-linejoin="round"/>
<path d="M20.0394 27.2531L18.9453 25.4202" stroke="#002140" stroke-width="0.705875" stroke-linecap="round" stroke-linejoin="round"/>
<path d="M22.731 25.4202L23.7851 27.2531" stroke="#002140" stroke-width="0.705875" stroke-linecap="round" stroke-linejoin="round"/>
<path d="M20.0396 27.2532H23.7854" stroke="#002140" stroke-width="0.705875" stroke-linecap="round" stroke-linejoin="round"/>
<path d="M18.9854 25.4202H22.7312" stroke="#002140" stroke-width="0.705875" stroke-linecap="round" stroke-linejoin="round"/>
<path d="M25.8417 27.2531L24.7476 25.4202" stroke="#002140" stroke-width="0.705875" stroke-linecap="round" stroke-linejoin="round"/>
<path d="M28.5356 25.4202L29.5898 27.2531" stroke="#002140" stroke-width="0.705875" stroke-linecap="round" stroke-linejoin="round"/>
<path d="M25.8418 27.2532H29.59" stroke="#002140" stroke-width="0.705875" stroke-linecap="round" stroke-linejoin="round"/>
<path d="M24.7876 25.4202H28.5358" stroke="#002140" stroke-width="0.705875" stroke-linecap="round" stroke-linejoin="round"/>
<path d="M31.411 27.2272L30.3169 25.3943" stroke="#002140" stroke-width="0.705875" stroke-linecap="round" stroke-linejoin="round"/>
<path d="M34.1025 25.3943L35.1566 27.2272" stroke="#002140" stroke-width="0.705875" stroke-linecap="round" stroke-linejoin="round"/>
<path d="M31.4111 27.2273H35.157" stroke="#002140" stroke-width="0.705875" stroke-linecap="round" stroke-linejoin="round"/>
<path d="M30.3569 25.3943H34.1028" stroke="#002140" stroke-width="0.705875" stroke-linecap="round" stroke-linejoin="round"/>
<path d="M24.2655 33.3497L22.9902 31.5027" stroke="#002140" stroke-width="0.705875" stroke-linecap="round" stroke-linejoin="round"/>
<path d="M26.3476 36.5238L25.0723 34.6768" stroke="#002140" stroke-width="0.705875" stroke-linecap="round" stroke-linejoin="round"/>
<path d="M37.3852 35.2313C37.4361 34.2945 36.2908 33.4706 34.8272 33.391C33.3635 33.3115 32.1357 34.0065 32.0848 34.9433C32.0339 35.8802 33.1792 36.7041 34.6429 36.7836C36.1065 36.8632 37.3343 36.1682 37.3852 35.2313Z" fill="#002140"/>
</svg>
