<svg xmlns="http://www.w3.org/2000/svg" xml:space="preserve" id="Layer_1" width="68" height="68" x="0" y="0" viewBox="0 0 68 68"><style>.st0{fill:#0164bf}.st1{fill:#003c73}.st2{fill:#002140}.st3{fill:#f9b5fe}</style><path d="M43.4 15.1v-3.4s-.9-3.5-3.8-3.5H28.9s-3.2.4-3.2 2.7v4.2h3.4s0-3.5 2.4-3.5h6.2s1.6.9 1.6 3.3zM23.7 58.5V15.7s-7 .6-7 6-.4 30.5-.4 30.5 1 6 7.4 6.3" class="st0"/><path d="M45 15.1H23.7V59h20.1s7.3-1.6 7.3-7.4V22.4c.1 0 1-4.8-6.1-7.3" class="st1"/><path d="M31.5 21.5c0-1.3-1.1-2.4-2.4-2.4s-2.4 1.1-2.4 2.4v29.9c0 1.3 1.1 2.4 2.4 2.4s2.4-1.1 2.4-2.4zm7.5 0c0-1.3-1.1-2.4-2.4-2.4s-2.4 1.1-2.4 2.4v29.9c0 1.3 1.1 2.4 2.4 2.4s2.4-1.1 2.4-2.4zm7.5 0c0-1.3-1.1-2.4-2.4-2.4s-2.4 1.1-2.4 2.4v29.9c0 1.3 1.1 2.4 2.4 2.4s2.4-1.1 2.4-2.4z" class="st2"/><path d="m46.5 27-4-1.8-3.1 2.9 1.5 9.3 7.1-1z" class="st3"/><path d="M43.6 59.3H24c-4.5 0-8.1-3.6-8.1-8.1V22.8c0-4.5 3.6-8.1 8.1-8.1h19.6c4.5 0 8.1 3.6 8.1 8.1v28.4c.1 4.5-3.6 8.1-8.1 8.1M24 15.7c-3.9 0-7.1 3.2-7.1 7.1v28.4c0 3.9 3.2 7.1 7.1 7.1h19.6c3.9 0 7.1-3.2 7.1-7.1V22.8c0-3.9-3.2-7.1-7.1-7.1z" class="st2"/><path d="M23.6 59.2c-.3 0-.5-.2-.5-.5V15.3c0-.3.2-.5.5-.5s.5.2.5.5v43.5c0 .2-.2.4-.5.4m0 5c1.4 0 2.5-1.1 2.5-2.5s-1.1-2.5-2.5-2.5-2.5 1.1-2.5 2.5 1.1 2.5 2.5 2.5m19.9 0c1.4 0 2.5-1.1 2.5-2.5s-1.1-2.5-2.5-2.5-2.5 1.1-2.5 2.5 1.1 2.5 2.5 2.5m-.2-48.8c-.3 0-.5-.2-.5-.5v-3.1c0-1.8-1.5-3.3-3.3-3.3H29.3c-1.8 0-3.3 1.5-3.3 3.3v3.1c0 .3-.2.5-.5.5s-.5-.2-.5-.5v-3.1c0-2.4 1.9-4.3 4.3-4.3h10.2c2.4 0 4.3 1.9 4.3 4.3v3.1c0 .3-.2.5-.5.5" class="st2"/><path d="M39.6 15.5c-.3 0-.5-.2-.5-.5v-1.3c0-1.1-.9-1.9-1.9-1.9h-5.4c-1.1 0-1.9.9-1.9 1.9V15c0 .3-.2.5-.5.5s-.5-.2-.5-.5v-1.3c0-1.6 1.3-2.9 2.9-2.9h5.4c1.6 0 2.9 1.3 2.9 2.9V15c0 .3-.3.5-.5.5" class="st2"/><path d="M42.2 25.7c-.2 0-.3-.1-.4-.2-3-4.1-9.1-8.4-11-9.7-.2-.2-.3-.5-.1-.7s.5-.3.7-.1c1.7 1.2 7.3 5.1 10.6 9 .3-1.7.8-5.1.3-8.5 0-.3.1-.5.4-.6.3 0 .5.1.6.4.8 4.9-.5 9.7-.5 9.9-.1.3-.3.4-.6.5q.15 0 0 0" class="st2"/><path d="M40.7 38.1c-.1 0-.2 0-.3-.1s-.2-.2-.2-.3l-1.5-9.5c0-.2 0-.3.1-.4l3.1-2.9c.1-.1.3-.2.5-.1l4 1.6c.2.1.3.2.3.4l1.5 9.7c0 .3-.1.5-.4.6zc.1 0 0 0 0 0m-.9-9.9 1.4 8.8 6.1-1-1.4-8.9-3.4-1.4z" class="st2"/><path d="M23.6 62.6c.5 0 .9-.4.9-.9s-.4-.9-.9-.9-.9.4-.9.9.4.9.9.9m19.9 0c.5 0 .9-.4.9-.9s-.4-.9-.9-.9-.9.4-.9.9.4.9.9.9" class="st1"/></svg>