<svg xmlns="http://www.w3.org/2000/svg" width="48" height="48" fill="none" viewBox="0 0 48 48"><path fill="#5be3aa" d="M10.339 25.974s-3.513-4.918-2.186-7.962c1.327-3.045 3.2-7.807 12.178-7.885 8.98-.078 11.789 8.275 11.32 11.087-.468 2.81-4.371 7.494-8.82 8.198-4.45.703-6.558-.078-6.558-.078s-4.294 2.421-8.666 1.094c0 0 2.263-2.81 2.732-4.45z"/><path fill="#f25730" d="M31.339 17.779s1.249 6.324-3.28 9.211c-3.904 2.342-5.934 3.045-11.165 2.655 0 0 .468 3.2 4.059 5.308 3.59 2.108 8.197 2.576 10.306 1.64 0 0 5.934 2.03 8.743 1.014 0 0-2.732-3.59-2.654-4.685 0 0 3.122-2.967 2.341-7.026s-4.995-7.884-8.353-8.12z"/><path stroke="#002140" stroke-linecap="round" stroke-linejoin="round" stroke-width=".706" d="M10.297 25.812c-1.45-1.64-2.306-3.67-2.306-5.868 0-5.454 5.277-9.876 11.788-9.876 6.51 0 11.788 4.422 11.788 9.876s-5.278 9.875-11.788 9.875a14 14 0 0 1-3.23-.377m-6.253-3.63C10 28.11 7.53 30.484 7.53 30.484s6.2.662 9.019-1.04"/><path stroke="#002140" stroke-linecap="round" stroke-linejoin="round" stroke-width=".706" d="M16.563 29.44c1.268 4.308 5.91 7.503 11.446 7.503 1.12 0 2.205-.131 3.231-.376m6.251-3.631c1.45-1.64 2.306-3.67 2.306-5.868 0-4.43-3.485-8.181-8.282-9.433m5.976 15.302c.297 2.298 2.767 4.672 2.767 4.672s-6.2.662-9.018-1.04"/><path fill="#008c59" d="M14.894 22.125a1.614 1.614 0 1 0 0-3.229 1.614 1.614 0 0 0 0 3.229m4.97 0a1.614 1.614 0 1 0 0-3.228 1.614 1.614 0 0 0 0 3.228m4.968 0a1.614 1.614 0 1 0 0-3.229 1.614 1.614 0 0 0 0 3.229"/></svg>