<?xml version="1.0" encoding="utf-8"?>
<!-- Generator: Adobe Illustrator 27.3.1, SVG Export Plug-In . SVG Version: 6.00 Build 0)  -->
<svg width="68" height="68" version="1.1" id="Layer_1" xmlns="http://www.w3.org/2000/svg" xmlns:xlink="http://www.w3.org/1999/xlink" x="0px" y="0px"
	 viewBox="0 0 68 68" style="enable-background:new 0 0 68 68;" xml:space="preserve">
<style type="text/css">
	.st0{fill:#03D47C;}
	.st1{fill:#FCDCFF;}
	.st2{fill:#5AB0FF;}
	.st3{fill:#8DC8FF;}
	.st4{fill:none;stroke:#002140;stroke-linecap:round;stroke-linejoin:round;}
</style>
<path class="st0" d="M59.1,10.3c0.6-0.3,1.3,0.1,1.2,1l-0.6,6.4c0,0.7-0.8,1-1.3,0.6L58,18.1l-1.2-0.9l-7.8,11
	c-0.8,1.1-1.5,1.2-2.8,0l-2.8-2.9c-0.6-0.6-1.2-0.9-1.7,0l-6.5,12.5c-0.6,1-1.4,1.2-2.6,0l-2.9-2.6c-0.9-0.8-1.4-0.7-1.7,0L22.7,47
	c-0.8,1.7-2.9,0.5-2-1.3l6.3-14c0.8-1.4,1.8-1,2.8,0l2.6,2.4c1,1,1.4,0.9,1.9,0l6.5-12.4c0.7-1.2,1.7-0.8,2.5,0l3,3.1
	c0.7,0.8,1.3,1,2.1,0l6.6-9.2l-1.4-1.2c-0.6-0.4-0.8-1.3,0-1.6l2.3-1L59.1,10.3L59.1,10.3z"/>
<path class="st1" d="M58,18.1L58,18.1l0,34.1c0,4.9-1.7,6.6-6.6,6.6H16.7l-0.1,0c-4.8,0-6.6-1.7-6.6-6.6V17.3c0-4.9,1.8-6.6,6.6-6.6
	l0.1,0h34.9c1.9,0,3.3,0.3,4.4,1l0,0.1l-2.3,1c-0.8,0.4-0.6,1.2,0,1.6l1.4,1.2l-6.6,9.2c-0.7,1-1.3,0.8-2.1,0l-3-3.1
	c-0.8-0.8-1.9-1.2-2.5,0l-6.5,12.4c-0.6,0.9-1,1-1.9,0l-2.6-2.4c-1.1-1-2-1.4-2.8,0l-6.3,14c-0.9,1.8,1.2,2.9,2,1.3l5.4-11.8
	c0.3-0.7,0.9-0.8,1.7,0l2.9,2.6c1.1,1.2,1.9,1,2.6,0l6.5-12.5c0.5-0.9,1-0.6,1.7,0l2.8,2.9c1.2,1.2,2,1.1,2.8,0l7.8-11L58,18.1
	L58,18.1z M52.8,48V33.2c0-0.7-0.2-1.1-1.1-1.1h-4.5c-0.8,0-1.1,0.4-1.1,1.1V48c0,0.7,0.2,1.1,1.1,1.1h4.5
	C52.6,49.1,52.8,48.7,52.8,48z M43.1,48v-7.3c0-0.7-0.2-1.1-1.1-1.1h-4.5c-0.8,0-1.1,0.4-1.1,1.1V48c0,0.7,0.2,1.1,1.1,1.1h4.5
	C42.9,49.1,43.1,48.7,43.1,48z M33.5,48V44c0-0.7-0.2-1.1-1.1-1.1h-4.5c-0.8,0-1.1,0.4-1.1,1.1V48c0,0.7,0.2,1.1,1.1,1.1h4.5
	C33.2,49.1,33.5,48.7,33.5,48z"/>
<path class="st2" d="M52.8,33.2V48c0,0.7-0.2,1.1-1.1,1.1h-4.5c-0.8,0-1.1-0.4-1.1-1.1V33.2c0-0.7,0.2-1.1,1.1-1.1h4.5
	C52.6,32.1,52.8,32.5,52.8,33.2z"/>
<path class="st3" d="M43.1,40.7V48c0,0.7-0.2,1.1-1.1,1.1h-4.5c-0.8,0-1.1-0.4-1.1-1.1v-7.3c0-0.7,0.2-1.1,1.1-1.1h4.5
	C42.9,39.6,43.1,40,43.1,40.7z"/>
<path class="st2" d="M33.5,44V48c0,0.7-0.2,1.1-1.1,1.1h-4.5c-0.8,0-1.1-0.4-1.1-1.1V44c0-0.7,0.2-1.1,1.1-1.1h4.5
	C33.2,42.9,33.5,43.3,33.5,44z"/>
<path class="st4" d="M10,17.3v34.8"/>
<path class="st4" d="M51.4,10.7H16.7"/>
<path class="st4" d="M10,17.3c0-4.9,1.8-6.6,6.6-6.6"/>
<path class="st4" d="M57.9,18.1v34"/>
<path class="st4" d="M55.9,11.7c-1-0.7-2.4-1-4.4-1h-0.2"/>
<path class="st4" d="M51.5,58.7h-0.2H16.7"/>
<path class="st4" d="M10,52.1L10,52.1c0,4.9,1.8,6.6,6.6,6.6"/>
<path class="st4" d="M57.9,52.1c0,4.9-1.7,6.6-6.6,6.6"/>
<path class="st4" d="M17.3,15.1v1.8v4.3v4.5V30v4.5v4.3v4.5v4.3v4.5"/>
<path class="st4" d="M13.3,16.9h4"/>
<path class="st4" d="M15,21.2h2.3"/>
<path class="st4" d="M13.3,25.7h4"/>
<path class="st4" d="M15,30h2.3"/>
<path class="st4" d="M13.3,34.4h4"/>
<path class="st4" d="M15,38.7h2.3"/>
<path class="st4" d="M13.3,43.2h4"/>
<path class="st4" d="M15,47.4h2.3"/>
<path class="st4" d="M13.3,51.9h4"/>
<path class="st4" d="M54.1,51.9h-1.8H48h-4.5h-4.3h-4.5h-4.3H26h-4.3h-4.5"/>
<path class="st4" d="M52.3,55.9v-4"/>
<path class="st4" d="M48,54.2v-2.3"/>
<path class="st4" d="M43.5,55.9v-4"/>
<path class="st4" d="M39.2,54.2v-2.3"/>
<path class="st4" d="M34.8,55.9v-4"/>
<path class="st4" d="M30.5,54.2v-2.3"/>
<path class="st4" d="M26,55.9v-4"/>
<path class="st4" d="M21.7,54.2v-2.3"/>
<path class="st4" d="M17.3,55.9v-4"/>
<path class="st4" d="M32.4,49.1h-4.5"/>
<path class="st4" d="M27.9,49.1c-0.8,0-1.1-0.4-1.1-1.1"/>
<path class="st4" d="M26.9,48V44"/>
<path class="st4" d="M32.4,49.1c0.8,0,1.1-0.4,1.1-1.1"/>
<path class="st4" d="M32.4,42.9h-4.5"/>
<path class="st4" d="M27.9,42.9c-0.8,0-1.1,0.4-1.1,1.1"/>
<path class="st4" d="M32.4,42.9c0.8,0,1.1,0.4,1.1,1.1"/>
<path class="st4" d="M33.5,48V44"/>
<path class="st4" d="M42.1,49.1h-4.5"/>
<path class="st4" d="M37.6,49.1c-0.8,0-1.1-0.4-1.1-1.1"/>
<path class="st4" d="M36.5,48v-7.3"/>
<path class="st4" d="M42.1,49.1c0.8,0,1.1-0.4,1.1-1.1"/>
<path class="st4" d="M42.1,39.6h-4.5"/>
<path class="st4" d="M37.6,39.6c-0.8,0-1.1,0.4-1.1,1.1"/>
<path class="st4" d="M42.1,39.6c0.8,0,1.1,0.4,1.1,1.1"/>
<path class="st4" d="M43.1,48v-7.3"/>
<path class="st4" d="M51.7,49.1h-4.5"/>
<path class="st4" d="M47.2,49.1c-0.8,0-1.1-0.4-1.1-1.1"/>
<path class="st4" d="M46.2,48V33.2"/>
<path class="st4" d="M51.7,49.1c0.8,0,1.1-0.4,1.1-1.1"/>
<path class="st4" d="M51.7,32.1h-4.5"/>
<path class="st4" d="M47.2,32.1c-0.8,0-1.1,0.4-1.1,1.1"/>
<path class="st4" d="M51.7,32.1c0.8,0,1.1,0.4,1.1,1.1"/>
<path class="st4" d="M52.8,48V33.2"/>
<path class="st4" d="M53.6,14.4l1.4,1.2"/>
<path class="st4" d="M56.8,17.1l1.2,0.9l0.4,0.3"/>
<path class="st4" d="M53.6,12.8l2.3-1l3.2-1.4"/>
<path class="st4" d="M59.8,17.8l0.6-6.4"/>
<path class="st4" d="M53.6,14.4c-0.6-0.4-0.8-1.3,0-1.6"/>
<path class="st4" d="M58.4,18.4c0.5,0.5,1.3,0.1,1.3-0.6"/>
<path class="st4" d="M60.3,11.4c0.1-0.9-0.6-1.3-1.2-1"/>
<path class="st4" d="M56.8,17.1l-7.8,11"/>
<path class="st4" d="M55,15.6l-6.6,9.2"/>
<path class="st4" d="M41.7,25.2l-6.5,12.5"/>
<path class="st4" d="M40.8,21.7l-6.5,12.4"/>
<path class="st4" d="M28.1,35.1L22.7,47"/>
<path class="st4" d="M27,31.6l-6.3,14"/>
<path class="st4" d="M46.2,28.1l-2.8-2.9"/>
<path class="st4" d="M46.4,24.8l-3-3.1"/>
<path class="st4" d="M32.7,37.7l-2.9-2.6"/>
<path class="st4" d="M32.4,34.1l-2.6-2.4"/>
<path class="st4" d="M22.7,47c-0.8,1.7-2.9,0.5-2-1.3"/>
<path class="st4" d="M27,31.6c0.8-1.4,1.8-1,2.8,0"/>
<path class="st4" d="M28.1,35.1c0.3-0.7,0.9-0.8,1.7,0"/>
<path class="st4" d="M32.4,34.1c1,1,1.4,0.9,1.9,0"/>
<path class="st4" d="M32.7,37.7c1.1,1.2,1.9,1,2.6,0"/>
<path class="st4" d="M41.7,25.2c0.5-0.9,1-0.6,1.7,0"/>
<path class="st4" d="M40.8,21.7c0.7-1.2,1.7-0.8,2.5,0"/>
<path class="st4" d="M48.5,24.8c-0.7,1-1.3,0.8-2.1,0"/>
<path class="st4" d="M48.9,28.1c-0.8,1.1-1.5,1.2-2.8,0"/>
</svg>
