<svg xmlns="http://www.w3.org/2000/svg" width="48" height="48" fill="none" viewBox="0 0 48 48"><path fill="#722b03" d="M10.75 37.53V14.864h.294c0 1.008.95 1.825 2.125 1.825s2.123-.817 2.123-1.825v-.298h15.283v.297c0 1.01.95 1.826 2.122 1.826s2.123-.817 2.123-1.825v-.298h1.422c1 0 1.813.813 1.813 1.815v19.333a1.814 1.814 0 0 1-1.813 1.815H10.748z"/><path fill="#fed607" d="M30.576 14.566h4.247v.297c0 1.01-.95 1.826-2.123 1.826-1.172 0-2.122-.817-2.122-1.825v-.298zm-15.283 0v.297c0 1.01-.951 1.826-2.123 1.826s-2.126-.817-2.126-1.825v-.298z"/><path fill="#722b03" d="M18.427 14.567h-3.134V8.182c0-.973.788-1.763 1.763-1.763h11.729c.973 0 1.763.79 1.763 1.763v6.385h-3.011v-3.794c0-.973-.788-1.762-1.762-1.762h-5.586c-.973 0-1.763.788-1.763 1.762v3.794zm-7.678.297v22.665H8.166c-1 0-1.813-.813-1.813-1.815V16.382c0-1.002.813-1.814 1.813-1.814h2.877v.297z"/><path stroke="#002140" stroke-linecap="round" stroke-linejoin="round" stroke-width=".706" d="M34.82 14.566h1.423c1 0 1.813.813 1.813 1.815v19.333a1.814 1.814 0 0 1-1.813 1.815H8.166c-1 0-1.813-.813-1.813-1.815V16.382c0-1.002.813-1.814 1.813-1.814h26.655zM10.75 37.53V14.864"/><path stroke="#002140" stroke-linecap="round" stroke-linejoin="round" stroke-width=".706" d="M15.293 14.864c0 1.009-.951 1.825-2.123 1.825s-2.126-.816-2.126-1.825m23.778 0c0 1.009-.951 1.825-2.123 1.825s-2.123-.816-2.123-1.825m-15.283-.444V8.182c0-.973.788-1.763 1.763-1.763h11.729c.973 0 1.763.79 1.763 1.763v6.238"/><path stroke="#002140" stroke-linecap="round" stroke-linejoin="round" stroke-width=".706" d="M18.426 14.567v-3.794c0-.973.79-1.762 1.763-1.762h5.586c.973 0 1.762.788 1.762 1.762v3.573"/><path fill="#fffaf0" d="M32.585 26.84c-.293-.068-2.011-.402-3.67-.15-1.66.253-2.917.553-2.917.553s-.503-1.457-2.162-1.207c-1.66.252-3.621 2.614-4.023 5.58-.403 2.967 1.859 4.526 1.859 4.526s1.51 3.37 2.564 3.621c1.057.253 9.454 3.572 9.454 3.572s1.307-.303 1.61-.453c.302-.15.954-.804.954-.804s.805.502 1.56 0c.754-.503 1.107-1.258 1.107-1.258s1.509-.704 1.61-1.056c.1-.353.351-1.258.351-1.258s-.854-4.373-3.116-5.682c-2.262-1.307-3.067-2.062-3.067-2.062s-.352-3.519-2.111-3.921z"/><path fill="#5ab0ff" d="m41.89 26.238-1.408.453-.552.602s-2.714-3.621-4.124-3.269c-1.407.352-2.514 1.61-2.514 1.61s-1.05 2.316-2.262 3.468c-1.211 1.155-2.364 2.715-1.357 3.872 1.005 1.157 2.665.854 3.722-.2 1.056-1.058 1.306-2.012 1.306-2.012l2.062 1.157s4.374 4.273 4.124 6.587c0 0 1.107-.2 1.307-.452s.954-1.66.954-1.66 2.917.05 2.515-4.878c-.403-3.57-3.771-5.28-3.771-5.28zm-8.7 16.642s-.705-2.714-1.005-2.867c-.3-.152-1.357-.15-1.357-.15s-1.057-.327-.955 1.208c.1 1.534 1.307 2.664 1.307 2.664l2.012-.855z"/><path fill="#5ab0ff" d="M30.928 39.009s-1.51-1.912-2.062-1.76c-.552.15-1.51 1.912-1.61 2.112s-.1 2.664-.1 2.664.755.755 1.006.755c.25 0 1.859-.303 1.859-.303l.352-2.414.453-.2.1-.855zm-3.671-.805c.05-.452-1.457-1.257-1.86-1.005-.402.253-1.057 1.71-1.057 1.71s.2 1.81 1.005 2.212 1.407.452 1.457.302.402-2.767.453-3.219z"/><path stroke="#002140" stroke-linecap="round" stroke-linejoin="round" stroke-width=".705" d="M21.57 35.99c-1.637-.552-2.216-3.21-1.296-5.938s2.992-4.491 4.628-3.939c.364.123.676.35.93.66m17.321 9.615c2.343-.032 2.994-3.16 2.178-5.922s-2.82-4.6-4.476-4.112c-.369.11-.69.323-.955.623"/><path stroke="#002140" stroke-linecap="round" stroke-linejoin="round" stroke-width=".705" d="M23.888 29.23c.352-.955 2.89-3.815 8.722-2.36m-10.634 6.733s-1.157 4.173 2.111 5.933"/><path stroke="#002140" stroke-linecap="round" stroke-linejoin="round" stroke-width=".705" d="M27.368 38.536s-.061-1.462-1.57-1.462-2.615 4.024.754 4.374"/><path stroke="#002140" stroke-linecap="round" stroke-linejoin="round" stroke-width=".705" d="M30.928 39.336s-.2-1.962-1.912-2.012c-1.71-.05-2.161 2.614-2.111 3.671s1.157 2.614 3.066 1.61"/><path stroke="#002140" stroke-linecap="round" stroke-linejoin="round" stroke-width=".705" d="M33.09 42.957s-.075-3.28-2.037-3.28-1.357 3.621.377 3.846c1.735.227 1.66-.566 1.66-.566m4.449-12.937s-.603 1.207-1.51 1.283"/><path stroke="#002140" stroke-linecap="round" stroke-linejoin="round" stroke-width=".705" d="M41.12 29.116c-1.238-1.732-2.713-3.678-4.58-4.76-.384-.223-.834-.368-1.27-.291-1.248.22-2.06 1.839-2.66 2.805-.4.643-.784 1.3-1.257 1.893-.452.569-1.061.95-1.539 1.494-.648.736-1.009 2.293.032 2.894.98.566 4.337.413 5.47-3.622"/><path stroke="#002140" stroke-linecap="round" stroke-linejoin="round" stroke-width=".705" d="M34.974 30.925s5.62 2.603 5.958 7.279c.075 2.15-1.81 2.414-1.81 2.414"/><path stroke="#002140" stroke-linecap="round" stroke-linejoin="round" stroke-width=".705" d="M34.938 35.113s3.81 2.45 3.81 5.619c0 1.057-1.019 1.884-2.49 1.546"/><path stroke="#002140" stroke-linecap="round" stroke-linejoin="round" stroke-width=".705" d="M32.183 36.28s3.81 2.451 3.81 5.62c0 1.057-1.38 2.135-2.933 1.218m6.704-12.04s.452 1.998-1.169 2.15m2.451 5.239s2.791-.113 2.112-4.45"/></svg>