<svg xmlns="http://www.w3.org/2000/svg" width="48" height="48" fill="none" viewBox="0 0 48 48"><path fill="#ffd7b0" stroke="#002140" stroke-linecap="round" stroke-linejoin="round" stroke-width=".706" d="M29.294 16.235h14.823v24.706H29.294z"/><rect width="3.529" height="4.941" x="32.823" y="19.765" fill="#002140" rx=".353"/><rect width="3.529" height="4.941" x="32.823" y="26.823" fill="#002140" rx=".353"/><rect width="3.529" height="4.941" x="37.765" y="19.765" fill="#002140" rx=".353"/><rect width="3.529" height="4.941" x="37.765" y="26.823" fill="#002140" rx=".353"/><path fill="#ffa75a" stroke="#002140" stroke-linecap="round" stroke-linejoin="round" stroke-width=".706" d="M23.647 7.059h5.647v33.882h-5.647z"/><path fill="#8dc8ff" stroke="#002140" stroke-linecap="round" stroke-linejoin="round" stroke-width=".706" d="M33.529 35.294h7.059v5.647h-7.059z"/><path stroke="#002140" stroke-linejoin="round" stroke-width=".706" d="M37.059 35.294v5.647"/><path fill="#ffd7b0" stroke="#002140" stroke-linecap="round" stroke-linejoin="round" stroke-width=".706" d="M9.529 7.059h19.765v33.882H9.529z"/><rect width="4.235" height="5.647" x="14.471" y="10.588" fill="#002140" rx=".353"/><rect width="4.235" height="5.647" x="14.471" y="18.352" fill="#002140" rx=".353"/><rect width="4.235" height="5.647" x="14.471" y="26.117" fill="#002140" rx=".353"/><rect width="4.235" height="5.647" x="21.529" y="10.588" fill="#002140" rx=".353"/><rect width="4.235" height="5.647" x="21.529" y="18.352" fill="#002140" rx=".353"/><rect width="4.235" height="5.647" x="21.529" y="26.117" fill="#002140" rx=".353"/><path fill="#ffa75a" stroke="#002140" stroke-linecap="round" stroke-linejoin="round" stroke-width=".706" d="M3.882 7.059h5.647v33.882H3.882z"/><path fill="#8dc8ff" stroke="#002140" stroke-linecap="round" stroke-linejoin="round" stroke-width=".706" d="M13.765 35.294h12.706v5.647H13.765z"/><path stroke="#002140" stroke-linejoin="round" stroke-width=".706" d="M18 35.294v5.647m4.235-5.647v5.647"/></svg>