<svg xmlns="http://www.w3.org/2000/svg" xml:space="preserve" id="Layer_1" x="0" y="0" viewBox="0 0 136 136"><style>.st0{fill:#03d47c}.st1{fill:#00b268}.st3{fill:#5be3aa}.st4{fill:#008c59}.st6{fill:#002140}.st7{fill:none;stroke:#002140;stroke-linecap:round;stroke-linejoin:round}</style><path d="M78.393 27.231h-12.66l-.147-.105 8.8-12.469 4.266 12.482z" class="st0"/><path d="m78.652 27.139 3.043 8.913-.324.114c-8.805-8.12-20.466-1.366-21.776-.561l5.986-8.479.147.105h12.664z" class="st0"/><path d="m81.695 36.052-3.043-8.913-4.266-12.482 16.636 25.928h-7.776z" class="st1"/><path d="m62.046 52.187.13-.758c1.388.574 3.082.92 5.161.937 10.019.083 14.363-7.2 15.815-10.708l.415-.145 6.09 17.821-30.174-.184z" class="st0"/><path d="M62.176 51.429c-5.303-2.199-6.034-7.708-5.904-10.647l-.22-.158 3.544-5.019c1.31-.806 12.967-7.564 21.776.561l.324-.114 1.552 4.533.32.929-.415.145c-1.452 3.508-5.796 10.792-15.815 10.708-2.081-.018-3.775-.364-5.162-.938m13.749-8.812-6.972-.714 6.682-3.972c-.83-1.493-2.408-2.457-4.435-2.474-3.557-.026-7.149 2.877-8.005 6.491-.865 3.609 1.327 6.561 4.884 6.591 3.372.025 6.765-2.58 7.846-5.922" style="fill:#fffaf0"/><path d="m62.176 51.429-.13.758-2.563 6.964-16.014-.101-.281-.201 12.863-18.22.22.158c-.13 2.939.601 8.449 5.904 10.647v-.005zm65.176 60.751a13.08 13.08 0 0 1-3.432 9.163l-.355-.219-4.931-5.019.376-.649a5.5 5.5 0 0 0 .873-3.105c-.069-3.009-2.537-5.396-5.507-5.33-2.974.07-5.329 2.571-5.26 5.58a5.47 5.47 0 0 0 1.603 3.758l-.06.057-5.723 4.629-.069.061a13.04 13.04 0 0 1-3.22-8.33c-.13-5.597 3.246-10.45 8.096-12.408a12.6 12.6 0 0 1 4.46-.919 12.5 12.5 0 0 1 3.683.46c5.346 1.471 9.332 6.368 9.466 12.271" class="st0"/><path d="m117.959 99.637-.078.276a12.5 12.5 0 0 0-3.682-.46 12.6 12.6 0 0 0-4.461.92l-.104-.25c-1.218-4.48-4.715-5.356-12.037-5.356l-.009.009c-.061 0-.117-2.172-.156-4.34.026-1.625-.061-3.561-.065-4.349l4.975.127c1.271.031 2.537.158 3.769.46 6.255 1.532 10.59 6.1 11.848 12.963" class="st3"/><path d="m103.034 59.304 11.45 17.852H95.751L89.657 59.33l13.213.083z" class="st1"/><path d="m91.446 41.233 11.588 18.071-.164.11-13.213-.084-6.09-17.817-.32-.929h7.776l.035.053zm5.987 49.198c.039 2.172.095 4.34.156 4.34l-.026.565c-.761 6.74-2.282 10.139-7.789 12.903l-.501.175c-1.241.455-2.65.727-4.253.788a19 19 0 0 1-.73.013h-.082c-10.188 0-13.079-11.094-13.079-23.19v-.105h2.533c12.288-.031 23.712-.022 23.712.109v.057s.026 2.177.069 4.349z" class="st1"/><path d="m59.483 59.146 30.174.184 6.094 17.826-22.243.079-6.54.022-36.874.131 13.088-18.54.281.201 16.014.101zm15.482 4.507-18.4-.149s-1.729 9.552 7.849 9.631c.001 0 8.697.753 10.551-9.482" class="st0"/><path d="m85.019 109.215 1.05 5.974H60.732l1.05-5.974.013-.149c.994.101 2.045.149 3.138.149h19.355c.246 0 .493 0 .73-.013v.013z" class="st4"/><path d="M44.891 94.714c-.683-2.729-.972-5.676-.972-8.685 0 0 11.113-.057 23.198-.092 1.331 0 2.667-.009 4.007-.013v.105c0 12.097 2.892 23.191 13.079 23.191H64.929c-1.098 0-2.148-.049-3.138-.149-10.144-.986-15.024-6.85-16.905-14.353z" class="st0"/><path d="M82.637 115.189v5.181H64.16v-5.181z" style="fill:#085239"/><path d="m68.953 41.903 6.972.714c-1.085 3.342-4.474 5.948-7.845 5.921-3.557-.031-5.749-2.978-4.884-6.592.86-3.609 4.448-6.517 8.005-6.491 2.032.018 3.605.981 4.435 2.475zM56.561 63.504l18.4.149c-1.854 10.235-10.551 9.482-10.551 9.482-9.578-.079-7.849-9.631-7.849-9.631" class="st6"/><path d="M73.656 85.324v.591h-2.533c-1.34 0-2.675.009-4.007.013v-.416l-.147-8.054v-.206l6.54-.022v.026l.147 8.063z" class="st4"/><path d="M44.891 94.714h-6.25l-4.984-.127c-1.266-.035-2.537-.162-3.769-.464-7.482-1.831-12.219-8.006-12.219-17.265v-27.93l.073-.504c1.284.399 2.645.6 4.059.565a12.5 12.5 0 0 0 3.211-.491l.359 1.2v24.973c0 9.132 2.697 11.357 12.461 11.357h6.086c0 3.005.29 5.952.972 8.681v.005z" class="st3"/><path d="M34.366 35.666c.134 6.066-3.843 11.26-9.349 12.837a12.6 12.6 0 0 1-3.211.491 12.6 12.6 0 0 1-4.059-.565c-5.161-1.599-8.96-6.399-9.09-12.163a13.1 13.1 0 0 1 3.432-9.167l.359.219 4.927 5.019-.372.648a5.46 5.46 0 0 0-.877 3.105c.069 3.009 2.537 5.4 5.507 5.33 2.974-.07 5.329-2.571 5.26-5.58a5.47 5.47 0 0 0-1.599-3.753l.056-.061 5.723-4.629.069-.061a13.07 13.07 0 0 1 3.224 8.33" class="st0"/><path d="M43.188 58.844 30.1 77.388l36.869-.131 6.54-.022 22.243-.079-6.095-17.826-6.09-17.817-.32-.929-1.552-4.533-3.043-8.913-4.266-12.482-8.8 12.469-5.986 8.48-3.549 5.019zm39.964-18.259h7.884" class="st7"/><path d="M56.271 40.782c-.13 2.939.601 8.449 5.904 10.647 1.387.574 3.082.92 5.161.937 10.019.083 14.363-7.2 15.815-10.708m-23.672-5.979.121-.074c1.31-.806 12.967-7.564 21.776.561" class="st7"/><path d="M68.076 48.534c3.371.026 6.764-2.58 7.845-5.921l-6.972-.714 6.682-3.972c-.83-1.493-2.407-2.457-4.435-2.475-3.557-.026-7.149 2.877-8.005 6.491-.864 3.608 1.327 6.56 4.885 6.591" style="fill:none;stroke:#002140;stroke-width:.3333;stroke-linecap:round;stroke-linejoin:round"/><path d="m43.469 59.045 16.014.101 30.174.184 13.213.083" class="st7"/><path d="m59.474 59.163.009-.017 2.563-6.959m11.631 6.985.052-6.986m1.236 11.467-18.4-.149s-1.729 9.552 7.849 9.631c.001 0 8.697.753 10.551-9.482m16.092-23.016-.035-.053-16.636-25.927m21.365 62.499h18.733l-11.45-17.852-11.588-18.071M66.969 77.462l.147 8.054m6.393-8.255.147 8.063M17.669 48.928v27.93c0 9.254 4.737 15.434 12.219 17.265 1.236.302 2.507.429 3.769.464l4.984.127h6.285" class="st7"/><path d="M25.371 49.699v24.973c0 9.132 2.697 11.357 12.461 11.357h5.381M31.137 27.336a13.06 13.06 0 0 1 3.224 8.33c.134 6.066-3.842 11.26-9.349 12.837a12.6 12.6 0 0 1-3.212.491 12.6 12.6 0 0 1-4.059-.565c-5.161-1.599-8.96-6.399-9.09-12.163a13.1 13.1 0 0 1 3.432-9.167" class="st7"/><path d="m25.229 32.022.065.066a5.48 5.48 0 0 1 1.599 3.753c.069 3.009-2.286 5.51-5.26 5.58-2.97.07-5.438-2.321-5.507-5.33a5.44 5.44 0 0 1 .877-3.105m8.342-.96 5.723-4.629m-13.697 4.941-4.927-5.019m105.515 72.318c-1.257-6.868-5.593-11.436-11.847-12.964-1.236-.302-2.503-.429-3.769-.46l-4.975-.127s.026 2.177.069 4.349c.039 2.172.095 4.34.156 4.34l.009-.009c7.322 0 10.819.876 12.038 5.356" class="st7"/><path d="M104.863 121.106a13.04 13.04 0 0 1-3.22-8.33c-.13-5.597 3.246-10.45 8.095-12.408a12.6 12.6 0 0 1 4.461-.919 12.5 12.5 0 0 1 3.683.46c5.346 1.472 9.331 6.369 9.465 12.272a13.08 13.08 0 0 1-3.432 9.163" class="st7"/><path d="M110.776 116.42s-.044-.04-.061-.062a5.47 5.47 0 0 1-1.603-3.757c-.07-3.009 2.286-5.51 5.26-5.58 2.969-.066 5.437 2.321 5.506 5.33a5.46 5.46 0 0 1-.873 3.105m-8.35.96-5.723 4.629m13.697-4.941 4.932 5.02M97.394 91.473c.017-.32.03-.674.039-1.042.026-1.625-.061-3.561-.065-4.349v-.057c0-.131-11.428-.14-23.712-.109h-2.533c-1.34 0-2.675.009-4.007.013-12.089.035-23.198.092-23.198.092 0 3.009.29 5.956.973 8.685 1.88 7.507 6.76 13.367 16.904 14.353.994.1 2.044.149 3.138.149h19.355m.001.007c.246 0 .493 0 .73-.013 1.604-.061 3.013-.333 4.253-.788" class="st7"/><path d="M84.206 109.215c-10.188 0-13.079-11.094-13.079-23.191m-9.349 23.191-1.046 5.974h13.226m-.224 5.181H64.16v-5.181m20.859-5.974 1.05 5.974h-12.11" class="st7"/><path d="M73.733 120.37h8.904v-5.181m7.137-6.95c5.511-2.76 7.032-6.163 7.789-12.903m-31.83-68.105h12.66" class="st7"/></svg>