<svg width="102" height="102" viewBox="0 0 102 102" fill="none" xmlns="http://www.w3.org/2000/svg">
<path d="M58.7947 20.4233H49.2997L49.1895 20.3445L55.7896 10.9927L58.9892 20.3544L58.7947 20.4233Z" fill="#072419"/>
<path d="M58.9891 20.3543L61.2712 27.0389L61.0281 27.1243C54.4247 21.0343 45.6785 26.0995 44.6963 26.7039L49.1861 20.3445L49.2963 20.4233H58.7945L58.9891 20.3543Z" fill="#072419"/>
<path d="M61.2713 27.0389L58.9891 20.3544L55.7896 10.9927L68.2669 30.4387H62.4351L61.2713 27.0389Z" fill="#1A3D32"/>
<path d="M46.5346 39.1401L46.6319 38.5718C47.6725 39.0021 48.9432 39.2616 50.5025 39.2748C58.0168 39.3372 61.2748 33.8745 62.364 31.2434L62.6752 31.135L67.2428 44.5009L44.6123 44.3629L46.5346 39.1401Z" fill="#072419"/>
<path d="M46.6316 38.5719C42.654 36.9229 42.1062 32.7906 42.2034 30.5865L42.0381 30.4683L44.6963 26.7039C45.6785 26.0995 54.4215 21.031 61.0281 27.1244L61.2712 27.039L62.435 30.4387L62.6749 31.1351L62.3637 31.2435C61.2745 33.8746 58.0165 39.3373 50.5022 39.2748C48.943 39.2617 47.6722 39.0022 46.6316 38.5719ZM56.9435 31.9629L51.7146 31.4275L56.7263 28.4481C56.1039 27.328 54.9207 26.6054 53.4003 26.5922C50.7324 26.5725 48.0385 28.7503 47.3967 31.4603C46.7483 34.167 48.3919 36.3809 51.0598 36.4039C53.5884 36.4236 56.1331 34.4692 56.9435 31.9629Z" fill="#061B09"/>
<path d="M46.6315 38.5718L46.5343 39.14L44.6119 44.3629L32.6013 44.2873L32.3906 44.1362L42.038 30.4714L42.2033 30.5897C42.1061 32.7938 42.6539 36.9261 46.6315 38.5751V38.5718Z" fill="#072419"/>
<path d="M95.5137 84.1354C95.5753 86.783 94.5865 89.2104 92.9397 91.0072L92.6739 90.843L88.9751 87.0786L89.2571 86.5925C89.6883 85.9256 89.9314 85.1209 89.912 84.2635C89.8601 82.0069 88.0091 80.2166 85.782 80.2659C83.5517 80.3185 81.785 82.1941 81.8368 84.4508C81.8628 85.561 82.3198 86.5498 83.0395 87.2691L82.9941 87.3118L78.7021 90.7839L78.6502 90.8299C77.1914 89.1612 76.287 86.9833 76.2351 84.5822C76.1379 80.3842 78.6697 76.7446 82.3069 75.2763C83.3442 74.8558 84.4691 74.6128 85.6523 74.5865C86.6086 74.5635 87.539 74.685 88.4143 74.9314C92.4243 76.0351 95.4132 79.7075 95.5137 84.1354Z" fill="#072419"/>
<path d="M88.4695 74.7276L88.4111 74.9346C87.5326 74.6882 86.6022 74.5667 85.6492 74.5897C84.4659 74.616 83.341 74.859 82.3037 75.2795L82.2259 75.0923C81.3117 71.7319 78.6892 71.0749 73.1977 71.0749C73.1977 71.0749 73.1955 71.0771 73.1912 71.0815C73.1458 71.0815 73.1037 69.4522 73.0745 67.8263C73.094 66.6076 73.0291 65.1557 73.0259 64.5645L76.7571 64.6597C77.7102 64.6827 78.66 64.778 79.5839 65.0046C84.2747 66.1543 87.5261 69.5804 88.4695 74.7276Z" fill="#072419"/>
<path d="M77.2758 44.4778L85.8631 57.8666H71.8135L67.2427 44.4975L77.1526 44.5599L77.2758 44.4778Z" fill="#1A3D32"/>
<path d="M68.5846 30.9249L77.2757 44.478L77.1525 44.5601L67.2425 44.4977L62.6749 31.1351L62.4351 30.4387H68.2669L68.2929 30.4781L68.5846 30.9249Z" fill="#1A3D32"/>
<path d="M73.0744 67.8228C73.1035 69.4521 73.1457 71.0781 73.1911 71.0781L73.1716 71.5018C72.6011 76.5571 71.46 79.1061 67.33 81.1789L66.954 81.3103C66.0236 81.6519 64.9668 81.8555 63.7641 81.9015C63.5858 81.9081 63.401 81.9114 63.2163 81.9114H63.1547C55.5139 81.9114 53.3452 73.591 53.3452 64.5183V64.4395C53.9806 64.4395 54.616 64.4395 55.2449 64.4395C64.4611 64.4165 73.029 64.4231 73.029 64.5216V64.5643C73.029 64.5643 73.0484 66.1969 73.0808 67.8261L73.0744 67.8228Z" fill="#1A3D32"/>
<path d="M44.6123 44.3596L67.2427 44.4976L71.8136 57.8667L55.1317 57.9258L50.2269 57.9423L22.5718 58.0408L32.3877 44.1362L32.5984 44.2873L44.609 44.3629L44.6123 44.3596ZM56.2241 47.7397L42.4241 47.628C42.4241 47.628 41.1274 54.7921 48.3111 54.8513C48.3111 54.8513 54.8334 55.4163 56.2241 47.7397Z" fill="#072419"/>
<path d="M63.7641 81.9115L64.5518 86.392H45.5488L46.3366 81.9115L46.3463 81.7998C47.0919 81.8754 47.8796 81.9115 48.6998 81.9115H63.2162C63.401 81.9115 63.5858 81.9115 63.7641 81.9016V81.9115Z" fill="#1A3D32"/>
<path d="M33.6679 71.0355C33.1557 68.989 32.9385 66.7784 32.9385 64.5217C32.9385 64.5217 41.273 64.479 50.3368 64.4527C51.3353 64.4527 52.337 64.4462 53.3419 64.4429V64.5217C53.3419 73.5943 55.5106 81.9147 63.1513 81.9147H48.6965C47.8731 81.9147 47.0854 81.8786 46.343 81.8031C38.7347 81.064 35.0748 76.6656 33.6646 71.0388L33.6679 71.0355Z" fill="#072419"/>
<path d="M61.978 86.3921V90.278H56.2499H55.3001H48.1196V86.3921H48.1618H55.4686H56.0845H61.9359H61.978Z" fill="#1A3D32"/>
<path d="M51.7147 31.4274L56.9436 31.9628C56.1299 34.4691 53.5884 36.4236 51.0599 36.4039C48.392 36.3809 46.7484 34.1702 47.3967 31.4603C48.0418 28.7536 50.7325 26.5725 53.4004 26.5922C54.924 26.6053 56.104 27.328 56.7264 28.4481L51.7147 31.4274Z" fill="#2A604F"/>
<path d="M42.4208 47.6279L56.2208 47.7396C54.8301 55.4162 48.3078 54.8512 48.3078 54.8512C41.1241 54.7921 42.4208 47.6279 42.4208 47.6279Z" fill="#2A604F"/>
<path d="M55.2415 63.9929V64.4364C54.6126 64.4364 53.9772 64.4364 53.3419 64.4364C52.3369 64.4364 51.3352 64.4429 50.3368 64.4462V64.1342L50.2266 58.0934V57.939L55.1313 57.9226V57.9423L55.2415 63.9896V63.9929Z" fill="#1A3D32"/>
<path d="M33.6678 71.0355H28.9803L25.2426 70.9402C24.2928 70.9139 23.3397 70.8187 22.4158 70.592C16.8044 69.219 13.2515 64.5874 13.2515 57.6433V36.6961L13.3066 36.3184C14.2694 36.6173 15.2905 36.7684 16.3506 36.7421C17.1869 36.7224 17.9941 36.5976 18.7592 36.3742L19.0282 37.2742V56.0042C19.0282 62.853 21.0511 64.5217 28.3741 64.5217H32.9385C32.9385 66.7751 33.1557 68.9857 33.6678 71.0322V71.0355Z" fill="#072419"/>
<path d="M25.7745 26.7498C25.875 31.2992 22.8926 35.195 18.7626 36.3775C17.9943 36.6009 17.1871 36.7257 16.354 36.7454C15.294 36.7717 14.2728 36.6206 13.31 36.3217C9.43942 35.1228 6.58994 31.5226 6.49269 27.1998C6.43434 24.5523 7.41982 22.1215 9.06662 20.3247L9.33568 20.4889L13.0312 24.2533L12.7525 24.7395C12.3181 25.4096 12.0749 26.2111 12.0944 27.0684C12.1463 29.3251 13.9973 31.1186 16.2243 31.066C18.4547 31.0135 20.2214 29.1378 20.1695 26.8812C20.1436 25.7775 19.6897 24.7855 18.9701 24.0661L19.0122 24.0201L23.3043 20.5481L23.3561 20.5021C24.8149 22.1708 25.7194 24.3486 25.7745 26.7498Z" fill="#072419"/>
<path d="M32.3907 44.1331L22.5747 58.0409L50.2266 57.9424L55.1313 57.926L71.8133 57.8668L67.2424 44.4977L62.6748 31.1351L62.435 30.4387L61.2712 27.0389L58.989 20.3544L55.7894 10.9927L49.1893 20.3445L44.6995 26.7039L42.038 30.4683L32.3907 44.1331Z" stroke="#2A604F" stroke-width="0.75" stroke-linecap="round" stroke-linejoin="round"/>
<path d="M62.3638 30.4387H62.4351H68.267H68.2767" stroke="#2A604F" stroke-width="0.75" stroke-linecap="round" stroke-linejoin="round"/>
<path d="M42.2034 30.5864C42.1061 32.7905 42.654 36.9228 46.6316 38.5718C47.6722 39.0021 48.9429 39.2616 50.5022 39.2747C58.0165 39.3371 61.2744 33.8745 62.3637 31.2434" stroke="#2A604F" stroke-width="0.75" stroke-linecap="round" stroke-linejoin="round"/>
<path d="M44.6089 26.7597C44.6089 26.7597 44.6413 26.74 44.6997 26.7039C45.6819 26.0995 54.4248 21.031 61.0315 27.1244" stroke="#2A604F" stroke-width="0.75" stroke-linecap="round" stroke-linejoin="round"/>
<path d="M51.0565 36.4005C53.585 36.4202 56.1298 34.4657 56.9402 31.9594L51.7113 31.424L56.723 28.4447C56.1006 27.3246 54.9174 26.6019 53.397 26.5888C50.7291 26.569 48.0352 28.7469 47.3933 31.4568C46.745 34.1635 48.3885 36.3775 51.0565 36.4005Z" stroke="#2A604F" stroke-width="0.75" stroke-linecap="round" stroke-linejoin="round"/>
<path d="M32.6016 44.2842L44.6122 44.3597L67.2426 44.4977L77.1526 44.5601" stroke="#2A604F" stroke-width="0.75" stroke-linecap="round" stroke-linejoin="round"/>
<path d="M44.6055 44.3728L44.612 44.3597L46.5343 39.1401" stroke="#2A604F" stroke-width="0.75" stroke-linecap="round" stroke-linejoin="round"/>
<path d="M55.2578 44.3794L55.2967 39.1401" stroke="#2A604F" stroke-width="0.75" stroke-linecap="round" stroke-linejoin="round"/>
<path d="M56.2238 47.7396L42.4238 47.6279C42.4238 47.6279 41.1271 54.7921 48.3107 54.8512C48.3107 54.8512 54.8331 55.4162 56.2238 47.7396Z" stroke="#2A604F" stroke-width="0.75" stroke-linecap="round" stroke-linejoin="round"/>
<path d="M68.2929 30.4781L68.2669 30.4387L55.7896 10.9927" stroke="#2A604F" stroke-width="0.75" stroke-linecap="round" stroke-linejoin="round"/>
<path d="M71.8132 57.8668H85.8629L77.2755 44.4779L68.5845 30.9248" stroke="#2A604F" stroke-width="0.75" stroke-linecap="round" stroke-linejoin="round"/>
<path d="M50.2266 58.0967L50.3368 64.1374" stroke="#2A604F" stroke-width="0.75" stroke-linecap="round" stroke-linejoin="round"/>
<path d="M55.1313 57.9456L55.2416 63.9929" stroke="#2A604F" stroke-width="0.75" stroke-linecap="round" stroke-linejoin="round"/>
<path d="M13.2515 36.6963V57.6435C13.2515 64.5843 16.8044 69.2191 22.4158 70.5922C23.343 70.8188 24.296 70.9141 25.2426 70.9404L28.9803 71.0356H33.6938" stroke="#2A604F" stroke-width="0.75" stroke-linecap="round" stroke-linejoin="round"/>
<path d="M19.0283 37.2742V56.0041C19.0283 62.8529 21.0512 64.5216 28.3742 64.5216H32.4102" stroke="#2A604F" stroke-width="0.75" stroke-linecap="round" stroke-linejoin="round"/>
<path d="M23.3527 20.5021C24.8115 22.1708 25.7159 24.3486 25.771 26.7498C25.8715 31.2992 22.8892 35.195 18.7592 36.3775C17.9909 36.6009 17.1837 36.7257 16.3506 36.7454C15.2906 36.7717 14.2694 36.6206 13.3066 36.3217C9.436 35.1228 6.58652 31.5226 6.48927 27.1998C6.43092 24.5523 7.4164 22.1215 9.0632 20.3247" stroke="#2A604F" stroke-width="0.75" stroke-linecap="round" stroke-linejoin="round"/>
<path d="M18.9214 24.0168L18.97 24.0661C19.6897 24.7855 20.1435 25.7808 20.1695 26.8812C20.2213 29.1379 18.4546 31.0135 16.2243 31.066C13.9972 31.1186 12.1462 29.3251 12.0943 27.0684C12.0749 26.2078 12.318 25.4063 12.7524 24.7395" stroke="#2A604F" stroke-width="0.75" stroke-linecap="round" stroke-linejoin="round"/>
<path d="M19.0088 24.0201L23.3008 20.5481" stroke="#2A604F" stroke-width="0.75" stroke-linecap="round" stroke-linejoin="round"/>
<path d="M13.0276 24.2534L9.33203 20.489" stroke="#2A604F" stroke-width="0.75" stroke-linecap="round" stroke-linejoin="round"/>
<path d="M88.4695 74.7276C87.5261 69.5771 84.2747 66.151 79.5839 65.0046C78.6568 64.778 77.7069 64.6827 76.7571 64.6597L73.0259 64.5645C73.0259 64.5645 73.0453 66.197 73.0777 67.8263C73.1069 69.4555 73.1491 71.0815 73.1944 71.0815C73.1944 71.0815 73.1966 71.0793 73.2009 71.0749C78.6924 71.0749 81.315 71.7319 82.2291 75.0923" stroke="#2A604F" stroke-width="0.75" stroke-linecap="round" stroke-linejoin="round"/>
<path d="M78.6468 90.8299C77.188 89.1612 76.2836 86.9833 76.2317 84.5822C76.1345 80.3842 78.6662 76.7446 82.3035 75.2763C83.3408 74.8558 84.4657 74.6128 85.6489 74.5865C86.6052 74.5635 87.5356 74.685 88.4109 74.9314C92.4209 76.0351 95.4098 79.7075 95.5102 84.1354C95.5718 86.783 94.5831 89.2104 92.9363 91.0072" stroke="#2A604F" stroke-width="0.75" stroke-linecap="round" stroke-linejoin="round"/>
<path d="M83.0817 87.3151C83.0817 87.3151 83.0493 87.2855 83.0363 87.2691C82.3167 86.5497 81.8596 85.5577 81.8336 84.4507C81.7818 82.1941 83.5485 80.3184 85.7788 80.2659C88.0059 80.2166 89.8569 82.0068 89.9088 84.2635C89.9282 85.1241 89.6851 85.9289 89.2539 86.5924" stroke="#2A604F" stroke-width="0.75" stroke-linecap="round" stroke-linejoin="round"/>
<path d="M82.9908 87.3118L78.6987 90.7838" stroke="#2A604F" stroke-width="0.75" stroke-linecap="round" stroke-linejoin="round"/>
<path d="M88.9717 87.0784L92.6705 90.8428" stroke="#2A604F" stroke-width="0.75" stroke-linecap="round" stroke-linejoin="round"/>
<path d="M73.0451 68.6047C73.0581 68.3649 73.0678 68.0989 73.0743 67.823C73.0937 66.6043 73.0289 65.1524 73.0256 64.5611V64.5184C73.0256 64.4199 64.4545 64.4133 55.2415 64.4363C54.6126 64.4363 53.9773 64.4363 53.3419 64.4363C52.337 64.4363 51.3353 64.4429 50.3368 64.4462C41.2697 64.4725 32.9385 64.5152 32.9385 64.5152C32.9385 66.7718 33.1557 68.9825 33.6679 71.0289C35.078 76.6591 38.7379 81.0541 46.3462 81.7932C47.0918 81.8688 47.8796 81.9049 48.6997 81.9049H63.2162" stroke="#2A604F" stroke-width="0.75" stroke-linecap="round" stroke-linejoin="round"/>
<path d="M63.2163 81.9114C63.4011 81.9114 63.5859 81.9114 63.7642 81.9016C64.9668 81.8556 66.0236 81.6519 66.954 81.3103" stroke="#2A604F" stroke-width="0.75" stroke-linecap="round" stroke-linejoin="round"/>
<path d="M63.1547 81.9116C55.5139 81.9116 53.3452 73.5912 53.3452 64.5186" stroke="#2A604F" stroke-width="0.75" stroke-linecap="round" stroke-linejoin="round"/>
<path d="M46.3333 81.9114L45.5488 86.3919H48.1195H48.1617H55.4685" stroke="#2A604F" stroke-width="0.75" stroke-linecap="round" stroke-linejoin="round"/>
<path d="M55.3001 90.278H48.1196V86.3921" stroke="#2A604F" stroke-width="0.75" stroke-linecap="round" stroke-linejoin="round"/>
<path d="M63.7638 81.9114L64.5516 86.3919H61.9776H61.9355H56.0842H55.4683" stroke="#2A604F" stroke-width="0.75" stroke-linecap="round" stroke-linejoin="round"/>
<path d="M55.2998 90.278H56.2496H61.9778V86.3921" stroke="#2A604F" stroke-width="0.75" stroke-linecap="round" stroke-linejoin="round"/>
<path d="M67.3301 81.179C71.4633 79.1096 72.6044 76.5573 73.1717 71.502" stroke="#2A604F" stroke-width="0.75" stroke-linecap="round" stroke-linejoin="round"/>
<path d="M49.2993 20.4233H58.7943" stroke="#2A604F" stroke-width="0.75" stroke-linecap="round" stroke-linejoin="round"/>
</svg>
