<svg width="48" height="48" viewBox="0 0 48 48" fill="none" xmlns="http://www.w3.org/2000/svg">
<path d="M33.0357 12.9445C33.0357 15.4153 31.021 17.4183 28.5357 17.4183C26.0504 17.4183 24.0357 15.4153 24.0357 12.9445C24.0357 10.4737 26.0504 8.4707 28.5357 8.4707C31.021 8.4707 33.0357 10.4737 33.0357 12.9445Z" fill="#4BA6A6"/>
<path d="M27.6354 31.7345C27.6354 33.524 26.6661 35.2942 24.0355 35.2942C21.9331 35.2942 19.078 35.2942 15.9332 35.2942C12.7884 35.2942 9.93338 35.2942 7.83095 35.2942C5.14568 35.2942 4.23451 33.5024 4.23535 31.7345C4.23535 26.3443 9.63535 22.7676 15.9332 22.7676C22.2311 22.7676 27.6354 26.3659 27.6354 31.7345Z" fill="#4ED7DE"/>
<path d="M36.6353 31.7345C39.2397 31.7345 40.2354 29.9041 40.2354 28.1554C40.2354 22.7676 34.7664 19.2078 28.1594 19.2078C26.3311 19.2078 24.2714 19.7184 23.2149 20.4494C22.1583 21.1804 22.3229 21.988 23.2149 22.4248C27.7735 24.6571 29.4498 27.9818 29.4498 29.9735C29.4498 31.1087 30.2242 31.7345 31.2217 31.7345H36.6353Z" fill="#4BA6A6"/>
<path d="M20.4357 16.5235C20.4357 18.9944 18.421 20.9974 15.9357 20.9974C13.4504 20.9974 11.4357 18.9944 11.4357 16.5235C11.4357 14.0527 13.4504 12.0497 15.9357 12.0497C18.421 12.0497 20.4357 14.0527 20.4357 16.5235Z" fill="#4ED7DE"/>
<path d="M33.0357 12.9445C33.0357 15.4153 31.021 17.4183 28.5357 17.4183C26.0504 17.4183 24.0357 15.4153 24.0357 12.9445C24.0357 10.4737 26.0504 8.4707 28.5357 8.4707C31.021 8.4707 33.0357 10.4737 33.0357 12.9445Z" stroke="#002140" stroke-width="0.705882"/>
<path d="M27.6354 31.7345C27.6354 33.524 26.6661 35.2942 24.0355 35.2942C21.9331 35.2942 19.078 35.2942 15.9332 35.2942C12.7884 35.2942 9.93338 35.2942 7.83095 35.2942C5.14568 35.2942 4.23451 33.5024 4.23535 31.7345C4.23535 26.3443 9.63535 22.7676 15.9332 22.7676C22.2311 22.7676 27.6354 26.3659 27.6354 31.7345Z" stroke="#002140" stroke-width="0.705882"/>
<path d="M36.6353 31.7345C39.2397 31.7345 40.2354 29.9041 40.2354 28.1554C40.2354 22.7676 34.7664 19.2078 28.1594 19.2078C26.3311 19.2078 24.2714 19.7184 23.2149 20.4494C22.1583 21.1804 22.3229 21.988 23.2149 22.4248C27.7735 24.6571 29.4498 27.9818 29.4498 29.9735C29.4498 31.1087 30.2242 31.7345 31.2217 31.7345H36.6353Z" stroke="#002140" stroke-width="0.705882"/>
<path d="M20.4357 16.5235C20.4357 18.9944 18.421 20.9974 15.9357 20.9974C13.4504 20.9974 11.4357 18.9944 11.4357 16.5235C11.4357 14.0527 13.4504 12.0497 15.9357 12.0497C18.421 12.0497 20.4357 14.0527 20.4357 16.5235Z" stroke="#002140" stroke-width="0.705882"/>
</svg>
