<svg xmlns="http://www.w3.org/2000/svg" id="Layer_1" viewBox="0 0 68 68"><defs><style>.st0{fill:#4ed7de}.st1{fill:#fffaf0}.st2,.st3{fill:none;stroke:#002140;stroke-miterlimit:10}.st4{fill:#002140}.st5{fill:#50eef6}.st3{stroke-linecap:round}.st6{fill:#fcdcff}.st7{fill:#4ba6a6}</style></defs><path d="M59.958 17.649c.172 3.082 1.856 5.028 4.033 5.948-2.177.922-3.861 2.866-4.033 5.95-.171-3.084-1.856-5.028-4.033-5.95 2.177-.921 3.861-2.866 4.033-5.948" class="st6"/><path d="M56.604 28.595v25.389a2.24 2.24 0 0 1-2.236 2.236h-5.591a2.24 2.24 0 0 0 2.236-2.236V28.595a2.24 2.24 0 0 0-2.236-2.236h5.591a2.24 2.24 0 0 1 2.236 2.236" class="st0"/><path d="M35.918 42.935H21.612c-.943 0-1.709.764-1.709 1.709v6.051a1.71 1.71 0 0 0 1.709 1.711h23.285a1.71 1.71 0 0 0 1.709-1.711v-6.051c0-.945-.766-1.709-1.709-1.709zm-7.005-16.576h19.864a2.24 2.24 0 0 1 2.236 2.236v25.389a2.24 2.24 0 0 1-2.236 2.236H17.404a2.24 2.24 0 0 1-2.236-2.236V28.595a2.24 2.24 0 0 1 2.236-2.236zm19.841 11.068v-5.956c0-.982-.796-1.776-1.776-1.776H36.115c-.982 0-1.776.794-1.776 1.776v5.956c0 .98.794 1.776 1.776 1.776h10.863c.98 0 1.776-.796 1.776-1.776m-16.697-.017v-5.969c0-.98-.796-1.776-1.776-1.776H19.398c-.98 0-1.776.796-1.776 1.776v5.969c0 .98.796 1.776 1.776 1.776h10.883c.98 0 1.776-.796 1.776-1.776" class="st5"/><path d="M41.432 31.803h-3.738a.72.72 0 0 0-.723.723v3.882c0 .399.322.723.723.723h7.762a.723.723 0 0 0 .723-.723v-3.882a.723.723 0 0 0-.723-.723h-4.023Zm7.322-.332v5.956c0 .98-.796 1.776-1.776 1.776H36.115a1.776 1.776 0 0 1-1.776-1.776v-5.956c0-.982.794-1.776 1.776-1.776h10.863c.98 0 1.776.794 1.776 1.776" class="st7"/><path d="M46.606 44.644v6.051a1.71 1.71 0 0 1-1.709 1.711h-3.388v-9.471h3.388c.943 0 1.709.764 1.709 1.709m-4.551-11.472-.022-.056a5 5 0 0 0-.6-1.314h4.023c.399 0 .723.324.723.723v3.882a.723.723 0 0 1-.723.723h-3.912v-.082c.278-.471.479-.993.589-1.547l-2.795-1.217v-.032z" class="st1"/><path d="M43.779 23.269v3.09h-2.303v-3.09z" class="st7"/><path d="m39.338 34.285 2.795 1.217a5 5 0 0 1-.589 1.547v.082h-3.85a.72.72 0 0 1-.723-.723v-3.882c0-.399.322-.723.723-.723h3.738c.259.403.464.844.6 1.314l.022.056-2.717 1.081z" class="st4"/><path d="M41.509 52.143v.263h-5.591v-9.471h5.591z" class="st1"/><path d="M41.475 26.328v.032H28.913v-3.09h12.562z" class="st0"/><path d="M34.701 16.838a3.057 3.057 0 0 1 1.414-5.769 3.057 3.057 0 0 1 1.381 5.786c-.414.211-.883.33-1.381.33s-.991-.125-1.414-.347" class="st5"/><path d="M37.496 23.137v.132h-2.795v-6.431c.423.222.904.347 1.414.347s.967-.119 1.381-.33z" class="st7"/><path d="M35.918 52.143v.263H30.7v-9.471h5.218z" class="st1"/><path d="M24.66 31.803h-3.738a.72.72 0 0 0-.723.723v3.882c0 .399.322.723.723.723h7.762a.723.723 0 0 0 .723-.723v-3.882a.723.723 0 0 0-.723-.723h-4.023Zm7.397-.362v5.969c0 .98-.796 1.776-1.776 1.776H19.398c-.98 0-1.776-.796-1.776-1.776v-5.969c0-.98.796-1.776 1.776-1.776h10.883c.98 0 1.776.796 1.776 1.776" class="st7"/><path d="M30.7 52.143v.263h-5.404v-9.471H30.7zm-5.417-18.971-.022-.056a5 5 0 0 0-.6-1.314h4.023c.399 0 .723.324.723.723v3.882a.723.723 0 0 1-.723.723h-3.912v-.082c.278-.471.479-.993.589-1.547l-2.795-1.217v-.032z" class="st1"/><path d="m22.566 34.285 2.795 1.217a5 5 0 0 1-.589 1.547v.082h-3.85a.72.72 0 0 1-.723-.723v-3.882c0-.399.322-.723.723-.723h3.738c.259.403.464.844.6 1.314l.022.056-2.717 1.081v.032Z" class="st4"/><path d="M25.296 52.143v.263h-3.684a1.71 1.71 0 0 1-1.709-1.711v-6.051c0-.945.766-1.709 1.709-1.709h3.684z" class="st1"/><path d="M11.873 11.391c.291 5.268 3.166 8.591 6.888 10.162-3.722 1.571-6.597 4.894-6.888 10.162-.291-5.268-3.166-8.591-6.888-10.162 3.722-1.571 6.597-4.894 6.888-10.162M8.822 31.564c.171 3.086 1.858 5.03 4.036 5.95-2.178.919-3.865 2.864-4.036 5.948-.171-3.084-1.856-5.03-4.036-5.948 2.18-.921 3.865-2.864 4.036-5.95" class="st6"/><path d="M48.777 26.359h5.591a2.24 2.24 0 0 1 2.236 2.236v25.389a2.24 2.24 0 0 1-2.236 2.236H17.404a2.24 2.24 0 0 1-2.236-2.236V28.595a2.24 2.24 0 0 1 2.236-2.236z" class="st2"/><path d="M48.777 26.359a2.24 2.24 0 0 1 2.236 2.236v25.389a2.24 2.24 0 0 1-2.236 2.236m-7.268-13.285h3.388c.943 0 1.709.764 1.709 1.709v6.051a1.71 1.71 0 0 1-1.709 1.711H21.612a1.71 1.71 0 0 1-1.709-1.711v-6.051c0-.945.766-1.709 1.709-1.709zm-16.213-.132v9.34m5.404-9.34v9.34m5.218-9.34v9.34m5.591-9.34v9.34M30.281 29.665H19.398c-.981 0-1.776.795-1.776 1.776v5.969c0 .981.795 1.776 1.776 1.776h10.883c.981 0 1.776-.795 1.776-1.776v-5.969c0-.981-.795-1.776-1.776-1.776Z" class="st2"/><path d="M24.66 31.803h4.023c.399 0 .723.324.723.723v3.882a.723.723 0 0 1-.723.723h-7.762a.72.72 0 0 1-.723-.723v-3.882c0-.399.322-.723.723-.723h3.738Z" class="st2"/><path d="m24.577 31.676.084.127c.259.402.464.844.6 1.314m.115 2.316-.015.069a5 5 0 0 1-.589 1.547" class="st2"/><path d="m22.566 34.253 2.717-1.081.013-.006m.065 2.336-2.795-1.217" class="st3"/><path d="M46.978 39.203H36.115a1.776 1.776 0 0 1-1.776-1.776v-5.956c0-.982.794-1.776 1.776-1.776h10.863c.98 0 1.776.794 1.776 1.776v5.956c0 .98-.796 1.776-1.776 1.776Z" class="st2"/><path d="M41.432 31.803h4.023c.399 0 .723.324.723.723v3.882a.723.723 0 0 1-.723.723h-7.762a.72.72 0 0 1-.723-.723v-3.882c0-.399.322-.723.723-.723h3.738Z" class="st2"/><path d="m41.349 31.676.084.127c.259.402.464.844.6 1.314m.115 2.316-.015.069a5 5 0 0 1-.589 1.547" class="st2"/><path d="m39.338 34.253 2.717-1.081.013-.006m.065 2.336-2.795-1.217" class="st3"/><path d="M28.913 26.426v-3.421m-.263.264h15.391m-2.566-.033v3.092m2.304.098v-3.224m-9.078-6.364a3.057 3.057 0 0 1 1.414-5.769 3.057 3.057 0 0 1 1.381 5.786c-.414.211-.883.33-1.381.33s-.991-.125-1.414-.347Zm0-.015v6.314m2.796-6.347v6.347" class="st2"/><path d="m4.972 21.559.013-.006c3.722-1.571 6.597-4.894 6.888-10.162l.006-.093" class="st3"/><path d="m18.774 21.559-.013-.006c-3.722-1.571-6.597-4.894-6.888-10.162q-.001-.046-.006-.093" class="st3"/><path d="m18.774 21.547-.013.006c-3.722 1.571-6.597 4.894-6.888 10.162q-.001.046-.006.093" class="st3"/><path d="m4.972 21.547.013.006c3.722 1.571 6.597 4.894 6.888 10.162l.006.093M4.78 37.516l.006-.002c2.18-.921 3.865-2.864 4.036-5.95l.004-.058" class="st3"/><path d="m12.864 37.516-.006-.002c-2.178-.921-3.865-2.864-4.036-5.95l-.004-.058" class="st3"/><path d="M12.864 37.511s-.004 0-.006.004c-2.178.919-3.865 2.864-4.036 5.949l-.004.058" class="st3"/><path d="M4.78 37.511s.004 0 .006.004c2.18.919 3.865 2.864 4.036 5.949l.004.058m47.09-19.921.009-.004c2.177-.921 3.861-2.866 4.033-5.948l.004-.058" class="st3"/><path d="m64 23.601-.009-.004c-2.177-.921-3.861-2.866-4.033-5.948q.001-.029-.004-.058" class="st3"/><path d="M64 23.593s-.006 0-.009.004c-2.177.922-3.861 2.866-4.033 5.95q.001.029-.004.058" class="st3"/><path d="M55.916 23.593s.006 0 .009.004c2.177.922 3.861 2.866 4.033 5.95l.004.058" class="st3"/></svg>