<svg width="48" height="48" viewBox="0 0 48 48" fill="none" xmlns="http://www.w3.org/2000/svg">
<rect x="29.2939" y="16.2349" width="14.8235" height="24.7059" fill="#FFD7B0" stroke="#002140" stroke-width="0.705882" stroke-linecap="round" stroke-linejoin="round"/>
<rect x="32.8232" y="19.7646" width="3.52941" height="4.94118" rx="0.352941" fill="#002140"/>
<rect x="32.8232" y="26.8232" width="3.52941" height="4.94118" rx="0.352941" fill="#002140"/>
<rect x="37.7646" y="19.7646" width="3.52941" height="4.94118" rx="0.352941" fill="#002140"/>
<rect x="37.7646" y="26.8232" width="3.52941" height="4.94118" rx="0.352941" fill="#002140"/>
<rect x="23.647" y="7.05859" width="5.64706" height="33.8824" fill="#FFA75A" stroke="#002140" stroke-width="0.705882" stroke-linecap="round" stroke-linejoin="round"/>
<rect x="33.5293" y="35.2939" width="7.05882" height="5.64706" fill="#8DC8FF" stroke="#002140" stroke-width="0.705882" stroke-linecap="round" stroke-linejoin="round"/>
<path d="M37.0586 35.2939V40.941" stroke="#002140" stroke-width="0.705882" stroke-linejoin="round"/>
<rect x="9.5293" y="7.05859" width="19.7647" height="33.8824" fill="#FFD7B0" stroke="#002140" stroke-width="0.705882" stroke-linecap="round" stroke-linejoin="round"/>
<rect x="14.4707" y="10.5879" width="4.23529" height="5.64706" rx="0.352941" fill="#002140"/>
<rect x="14.4707" y="18.3525" width="4.23529" height="5.64706" rx="0.352941" fill="#002140"/>
<rect x="14.4707" y="26.1172" width="4.23529" height="5.64706" rx="0.352941" fill="#002140"/>
<rect x="21.5293" y="10.5879" width="4.23529" height="5.64706" rx="0.352941" fill="#002140"/>
<rect x="21.5293" y="18.3525" width="4.23529" height="5.64706" rx="0.352941" fill="#002140"/>
<rect x="21.5293" y="26.1172" width="4.23529" height="5.64706" rx="0.352941" fill="#002140"/>
<rect x="3.88232" y="7.05859" width="5.64706" height="33.8824" fill="#FFA75A" stroke="#002140" stroke-width="0.705882" stroke-linecap="round" stroke-linejoin="round"/>
<rect x="13.7646" y="35.2939" width="12.7059" height="5.64706" fill="#8DC8FF" stroke="#002140" stroke-width="0.705882" stroke-linecap="round" stroke-linejoin="round"/>
<path d="M18 35.2939V40.941" stroke="#002140" stroke-width="0.705882" stroke-linejoin="round"/>
<path d="M22.2354 35.2939V40.941" stroke="#002140" stroke-width="0.705882" stroke-linejoin="round"/>
</svg>
