<svg xmlns="http://www.w3.org/2000/svg" xml:space="preserve" fill="#fff" viewBox="0 0 20 20"><path d="M10 4.3h2.8c.7 0 1.1.1 1.3.2.3.1.6.3.8.5s.4.5.5.8c.1.2.2.6.2 1.3v5.6c0 .7-.1 1.1-.2 1.3-.1.3-.3.6-.5.8s-.5.4-.8.5c-.2.1-.6.2-1.3.2H7.2c-.7 0-1.1-.1-1.3-.2-.3-.1-.6-.3-.8-.5s-.4-.5-.5-.8c-.1-.2-.2-.6-.2-1.3V7.1c0-.7.1-1.1.2-1.3.1-.3.3-.6.5-.8s.5-.4.8-.5c.2-.1.6-.2 1.3-.2zM10 3H7.1c-.7 0-1.3.2-1.7.3q-.6.3-1.2.9c-.4.4-.7.8-.8 1.2-.2.5-.3 1-.4 1.7v5.8c0 .7.2 1.3.3 1.7.2.5.4.9.8 1.2.4.4.8.6 1.2.8s1 .3 1.7.3h5.8c.7 0 1.3-.2 1.7-.3.5-.2.9-.4 1.2-.8.4-.4.6-.8.8-1.2s.3-1 .3-1.7V7.1c0-.7-.2-1.3-.3-1.7-.2-.5-.4-.9-.8-1.2-.4-.4-.8-.6-1.2-.8s-1-.3-1.7-.3C12.1 3 11.9 3 10 3"/><path d="M10 6.4C8 6.4 6.4 8 6.4 10S8 13.6 10 13.6s3.6-1.6 3.6-3.6S12 6.4 10 6.4m0 5.9c-1.3 0-2.3-1-2.3-2.3s1-2.3 2.3-2.3 2.3 1 2.3 2.3-1 2.3-2.3 2.3m3.7-5.2c.5 0 .8-.4.8-.8s-.4-.8-.8-.8-.8.4-.8.8.4.8.8.8"/></svg>