<svg xmlns="http://www.w3.org/2000/svg" width="68" height="68" fill="none" viewBox="0 0 68 68"><path fill="#e4bc07" d="M23.578 17.636c.906 0 1.733.342 2.357.903l.089.11a4.14 4.14 0 0 1-2.463.914c-.054.004-.102.004-.155.004v.011c-1.02.096-1.366.832-1.366 1.582 0 .863.539 1.588 1.514 1.625a7.4 7.4 0 0 0 3.463-.947l.011.02a3.52 3.52 0 0 1-3.452 2.808 3.52 3.52 0 0 1-3.523-3.516 3.52 3.52 0 0 1 3.523-3.516zm23.989 4.204.011.02a3.52 3.52 0 0 1-3.452 2.808 3.52 3.52 0 0 1-3.523-3.516 3.52 3.52 0 0 1 3.523-3.516 3.52 3.52 0 0 1 2.357.903l.089.11a4.14 4.14 0 0 1-2.463.914c-.054.004-.102.004-.156.004v.011c-1.019.096-1.366.832-1.366 1.582 0 .863.54 1.588 1.514 1.625a7.4 7.4 0 0 0 3.464-.947z"/><path fill="#002140" d="M48.15 15.38q0-.15-.01-.3a4.19 4.19 0 0 0-4.187-3.891c-2.22 0-3.875 1.57-4.156 3.61v.287H36.55v-.27A7.405 7.405 0 0 1 43.937 8c3.897 0 7.251 3.152 7.403 7.099q.006.145.005.292a7.39 7.39 0 0 1-3.778 6.445 7.4 7.4 0 0 1-3.464.947c-.974-.038-1.514-.762-1.514-1.625 0-.751.347-1.486 1.366-1.582v-.01c.054 0 .102 0 .156-.005a4.16 4.16 0 0 0 2.463-.913 4.16 4.16 0 0 0 1.579-3.27zm-28.873-.772v.478h-3.292l.015-.27c.297-3.81 3.492-6.814 7.387-6.814s7.242 3.146 7.403 7.087q.006.15.006.306a7.39 7.39 0 0 1-3.779 6.445 7.4 7.4 0 0 1-3.463.947c-.975-.039-1.514-.762-1.514-1.626 0-.75.346-1.485 1.366-1.581v-.011c.053 0 .101 0 .155-.004a4.16 4.16 0 0 0 2.463-.914 4.16 4.16 0 0 0 1.568-3.562 4.2 4.2 0 0 0-8.313-.477z"/><path fill="#fffaf0" d="M54.125 26.251h.413v26.68a3.53 3.53 0 0 1-3.522 3.516H16.617a3.53 3.53 0 0 1-3.523-3.516v-26.68z"/><path fill="#fed607" d="M51.366 15.1c1.775.18 3.172 1.685 3.172 3.502v7.65H44.127v-1.586a3.52 3.52 0 0 0 3.452-2.807l-.011-.02a7.39 7.39 0 0 0 3.779-6.446q-.002-.149-.006-.293z"/><path fill="#fed607" d="M48.15 15.38a4.17 4.17 0 0 1-1.578 3.27l-.09-.111a3.52 3.52 0 0 0-2.356-.903 3.52 3.52 0 0 0-3.523 3.516 3.52 3.52 0 0 0 3.523 3.516v1.585H23.578v-1.585a3.52 3.52 0 0 0 3.452-2.808l-.01-.02a7.39 7.39 0 0 0 3.778-6.445q-.002-.155-.006-.306l.126-.003h17.129l.094-.006q.013.15.012.3z"/><path fill="#fed607" d="M23.578 26.251H13.095v-7.65a3.527 3.527 0 0 1 3.522-3.515H27.59q.013.144.011.292a4.17 4.17 0 0 1-1.579 3.27l-.089-.111a3.52 3.52 0 0 0-2.357-.903 3.52 3.52 0 0 0-3.523 3.516 3.52 3.52 0 0 0 3.523 3.516v1.585z"/><path stroke="#002140" stroke-miterlimit="10" d="M30.916 15.086h17.129m-31.958 0h11.516M16.617 56.447a3.53 3.53 0 0 1-3.523-3.516v-34.33a3.527 3.527 0 0 1 3.523-3.515"/><path stroke="#002140" stroke-miterlimit="10" d="M51.296 15.1c1.816.18 3.242 1.683 3.242 3.5v34.316c0 1.933-1.62 3.514-3.6 3.514H15.995M13 26.251h41.126M15.98 15.395q-.001-.124.005-.25c-.003-.02 0-.04 0-.06l.015-.27m0 .002c.297-3.812 3.492-6.815 7.387-6.815s7.242 3.146 7.403 7.087q.006.15.006.306a7.39 7.39 0 0 1-3.779 6.445 7.4 7.4 0 0 1-3.463.947q-.084.005-.167.004"/><path stroke="#002140" stroke-miterlimit="10" d="m19.247 14.799.03-.19a4.2 4.2 0 0 1 8.324.769 4.17 4.17 0 0 1-1.579 3.27 4.14 4.14 0 0 1-2.463.913q-.078.005-.155.004m.436 3.215q-.084.008-.168.009-.061.001-.116-.004c-.975-.039-1.514-.762-1.514-1.625 0-.751.346-1.486 1.365-1.582q.075-.008.156-.011m12.987-4.75a7.405 7.405 0 0 1 7.387-6.815c3.897 0 7.251 3.151 7.403 7.098q.006.146.005.293a7.39 7.39 0 0 1-3.778 6.445 7.4 7.4 0 0 1-3.464.947q-.082.005-.166.004"/><path stroke="#002140" stroke-miterlimit="10" d="M39.797 14.799a4.195 4.195 0 0 1 4.156-3.61c2.12 0 4.035 1.716 4.187 3.891q.012.15.01.3a4.17 4.17 0 0 1-1.578 3.27 4.14 4.14 0 0 1-2.463.913c-.054.004-.102.004-.156.004m.436 3.213q-.084.008-.167.009-.06.001-.117-.004c-.974-.039-1.514-.762-1.514-1.625 0-.751.347-1.486 1.366-1.582q.075-.008.156-.011"/><path fill="#50eef6" stroke="#002140" d="m34.69 37.605-.006-.002c-.718-.213-1.254-.42-1.612-.702-.322-.254-.51-.574-.51-1.1 0-.563.211-.957.528-1.22.328-.271.81-.433 1.39-.433.543 0 .99.169 1.344.484.36.32.657.82.837 1.527l.01.04.017.038.036.083c.082.19.198.459.351.682.182.264.496.578.987.578.573 0 .94-.423 1.139-.882.202-.466.299-1.097.299-1.835 0-.759-.12-1.55-.37-2.172-.23-.574-.67-1.228-1.422-1.228-.439 0-.798.21-1.037.54a6 6 0 0 0-.697-.276l.104-.738.002-.011.001-.011a7 7 0 0 1 .037-.305c.012-.094.028-.217.028-.32 0-.252-.053-.555-.274-.793-.228-.245-.542-.325-.851-.325-.368 0-.699.131-.942.423-.22.264-.328.615-.385.98l-.002.01-.11.783c-2.716.225-5.061 2.157-5.061 5.149 0 1.447.558 2.531 1.42 3.332.845.786 1.964 1.283 3.08 1.624l.005.001c.711.208 1.258.445 1.624.757.34.29.538.653.538 1.194 0 .562-.216.986-.557 1.278-.349.297-.862.482-1.485.482-1.2 0-2.25-.864-2.696-2.12-.031-.087-.065-.19-.101-.3a8 8 0 0 0-.301-.815 1.9 1.9 0 0 0-.342-.53.95.95 0 0 0-.685-.307c-.557 0-.942.436-1.161.92-.23.505-.36 1.212-.36 2.096 0 .934.159 1.79.437 2.43.14.32.318.608.543.824.228.218.524.38.874.38.46 0 .822-.224 1.066-.552.375.176.808.339 1.271.46l-.102.73a4 4 0 0 0-.068.653c0 .253.053.555.274.793.227.245.542.325.85.325.365 0 .7-.129.947-.419.227-.267.336-.623.383-.998l.113-.866c2.885-.24 5.12-2.237 5.12-5.189 0-1.438-.53-2.556-1.379-3.4-.836-.833-1.961-1.382-3.14-1.747Z"/></svg>