<svg width="20" height="20" viewBox="0 0 20 20" fill="#F68DFE" xmlns="http://www.w3.org/2000/svg">
<g clip-path="url(#clip0_367_3654)">
<path d="M10.75 5.75C10.75 5.5 10.625 5.25 10.5 5C10.625 5.375 10.75 5.5 10.75 5.75Z" />
<path d="M13.625 1.25C12.375 1.25 11.125 2 10.75 3.125C11.625 3.875 12.125 5 12.125 6.25C12.125 6.5 12.125 6.75 12 7C12.5 7.5 13.125 7.625 13.625 7.625C15.375 7.625 16.75 6.25 16.75 4.5C16.875 2.75 15.375 1.25 13.625 1.25Z" />
<path d="M7.75 9.5C9.47589 9.5 10.875 8.10089 10.875 6.375C10.875 4.64911 9.47589 3.25 7.75 3.25C6.02411 3.25 4.625 4.64911 4.625 6.375C4.625 8.10089 6.02411 9.5 7.75 9.5Z" />
<path d="M13.625 9C12.25 9 11.125 9.375 10.125 10.125C12.875 11 14.875 13.5 15.25 16.375H19C19.625 16.375 20 15.875 20 15.375C20 11.75 17.125 9 13.625 9Z" />
<path d="M13 18.25H2.375C1.75 18.25 1.375 17.75 1.375 17.25C1.375 13.75 4.25 10.875 7.75 10.875C11.25 10.875 14.125 13.75 14.125 17.25C14 17.875 13.625 18.25 13 18.25Z" />
</g>
<defs>
<clipPath id="clip0_367_3654">
<rect width="20" height="20" fill="white"/>
</clipPath>
</defs>
</svg>
