<svg xmlns="http://www.w3.org/2000/svg" width="20" height="20" fill="#f68dfe" viewBox="0 0 20 20"><g clip-path="url(#a)"><path d="M10.75 5.75c0-.25-.125-.5-.25-.75.125.375.25.5.25.75m2.875-4.5c-1.25 0-2.5.75-2.875 1.875.875.75 1.375 1.875 1.375 3.125 0 .25 0 .5-.125.75.5.5 1.125.625 1.625.625A3.095 3.095 0 0 0 16.75 4.5c.125-1.75-1.375-3.25-3.125-3.25"/><path d="M7.75 9.5a3.125 3.125 0 1 0 0-6.25 3.125 3.125 0 0 0 0 6.25m5.875-.5c-1.375 0-2.5.375-3.5 1.125 2.75.875 4.75 3.375 5.125 6.25H19c.625 0 1-.5 1-1C20 11.75 17.125 9 13.625 9"/><path d="M13 18.25H2.375c-.625 0-1-.5-1-1 0-3.5 2.875-6.375 6.375-6.375s6.375 2.875 6.375 6.375c-.125.625-.5 1-1.125 1"/></g><defs><clipPath id="a"><path fill="#fff" d="M0 0h20v20H0z"/></clipPath></defs></svg>