<svg xmlns="http://www.w3.org/2000/svg" width="69" height="68" fill="none" viewBox="0 0 69 68"><path fill="#5ab0ff" d="M42.76 53.936v4.182c0 1.066-.565 1.57-1.603 1.57h-9.171q-.855 0-1.264-.466l-.043-.056c-.197-.254-.29-.602-.29-1.048v-4.182c0-1.071.563-1.574 1.597-1.574h9.171c.55 0 .968.141 1.236.433v.009q.366.386.366 1.132m.001-20.916v4.18c0 1.067-.565 1.57-1.603 1.57h-9.171q-.855 0-1.264-.465l-.043-.056c-.197-.254-.29-.602-.29-1.048v-4.182c0-1.071.563-1.574 1.597-1.574h9.171c.55 0 .968.141 1.236.433v.009q.366.386.366 1.132m.001-20.913v4.182c0 1.066-.565 1.57-1.603 1.57h-9.171q-.855 0-1.264-.466l-.043-.056c-.197-.254-.29-.602-.29-1.048v-4.182c0-1.071.563-1.574 1.597-1.574h9.171c.55 0 .968.141 1.236.432v.01q.366.386.366 1.132"/><path fill="#b0d9ff" d="M13.625 49.14h-3.65q-.856 0-1.264-.466l-.043-.056c-.197-.254-.291-.602-.291-1.048v-4.182c0-1.07.564-1.573 1.597-1.573h9.172c.55 0 .968.14 1.235.432v.01q.367.386.367 1.131v4.182c0 1.067-.564 1.57-1.602 1.57zm49.041-26.67v4.183c0 1.066-.563 1.569-1.602 1.569h-9.171q-.855 0-1.264-.465l-.042-.057c-.198-.253-.292-.601-.292-1.047V22.47c0-1.071.564-1.574 1.598-1.574h9.171c.55 0 .968.14 1.236.432v.01q.366.386.366 1.132M18.234 11.627a4.27 4.27 0 0 1 .85 2.57 4.303 4.303 0 0 1-4.303 4.304 4.32 4.32 0 0 1-3.045-1.26 4.3 4.3 0 0 1-1.264-3.044 4.306 4.306 0 0 1 4.304-4.304 4.29 4.29 0 0 1 3.453 1.734z"/><path fill="#003c73" d="m57.198 55.689-5.826 4.506v-9.012zm-26.81-1.752v4.181q.001.669.292 1.048l-1.072-1.372-.037-.07q-.19-.351-.188-.893v-4.182c0-1.071.564-1.574 1.597-1.574h9.172c.488 0 .874.113 1.141.348l.066.066 1.034 1.31c-.268-.29-.686-.432-1.236-.432h-9.171c-1.039 0-1.598.503-1.598 1.574zM19.145 41.81H9.974c-1.039 0-1.598.503-1.598 1.574v4.181q.002.669.291 1.048l-1.07-1.372-.038-.07q-.19-.351-.188-.893v-4.182c0-1.07.563-1.573 1.597-1.573h9.171c.489 0 .874.112 1.142.347l.066.066 1.034 1.31c-.268-.29-.686-.431-1.236-.431zm42.121-21.787 1.034 1.31c-.268-.29-.686-.431-1.236-.431h-9.171c-1.038 0-1.598.502-1.598 1.574v4.181c0 .447.1.794.292 1.048l-1.071-1.372-.038-.07q-.19-.351-.188-.893v-4.182c0-1.071.564-1.574 1.598-1.574h9.17c.49 0 .875.113 1.142.348l.066.066zm-30.878-7.917v4.182q.001.668.292 1.047l-1.072-1.371-.037-.07q-.19-.352-.188-.894v-4.177c0-1.07.564-1.573 1.597-1.573h9.172c.488 0 .874.112 1.141.347l.066.066 1.034 1.31c-.268-.29-.686-.431-1.236-.431h-9.171c-1.039 0-1.598.502-1.598 1.574zm-13.676-2.34.127.127a9.4 9.4 0 0 1 1.39 1.73 4.29 4.29 0 0 0-3.448-1.73 4.306 4.306 0 0 0-4.304 4.304c0 1.189.484 2.265 1.264 3.045l-.019.018c-.667-.624-1.146-1.296-1.55-1.992a4.3 4.3 0 0 1-.705-2.358 4.31 4.31 0 0 1 4.304-4.304 4.3 4.3 0 0 1 2.936 1.16zM30.388 33.02v4.18q.001.67.292 1.048l-1.072-1.371-.037-.071q-.19-.35-.188-.893v-4.181c0-1.072.564-1.574 1.597-1.574h9.172c.488 0 .874.112 1.141.347l.066.066 1.034 1.311c-.268-.291-.686-.432-1.236-.432h-9.171c-1.039 0-1.598.503-1.598 1.574z"/><path stroke="#003c73" stroke-linecap="round" stroke-linejoin="round" d="M18.234 11.627a4.27 4.27 0 0 1 .85 2.57 4.303 4.303 0 0 1-4.303 4.304 4.32 4.32 0 0 1-3.045-1.26 4.3 4.3 0 0 1-1.264-3.044 4.306 4.306 0 0 1 4.304-4.304c1.414 0 2.664.677 3.449 1.73m13.765-1.091h9.167m-9.167 7.325h9.167m1.602-5.751v4.182m-12.371-4.182v4.182m0-4.182c0-1.071.564-1.574 1.598-1.574m10.406.433c-.267-.292-.686-.433-1.235-.433m1.602 1.574q-.001-.739-.362-1.132m-11.67 6.418c.267.31.695.465 1.263.465m-1.602-1.569q.002.668.291 1.048m12.08-1.048c0 1.067-.564 1.57-1.602 1.57"/><path stroke="#003c73" stroke-linecap="round" stroke-linejoin="round" d="M10.172 15.268a4.3 4.3 0 0 1-.705-2.358 4.31 4.31 0 0 1 4.304-4.304 4.3 4.3 0 0 1 2.936 1.16M30.98 9.25h9.172m-10.769 1.574V15m0-4.176c0-1.072.564-1.574 1.597-1.574m10.314.343c-.268-.23-.653-.348-1.142-.348M29.383 15c0 .362.066.658.188.893m-11.338-4.266-.004-.005a9.3 9.3 0 0 0-1.391-1.729"/><path stroke="#003c73" stroke-linecap="round" stroke-linejoin="round" d="M11.76 17.293s-.024-.023-.038-.033c-.667-.625-1.146-1.297-1.55-1.992m20.554 2.124-.042-.057-1.076-1.372m12.79-4.989-.005-.01-1.034-1.306m10.535 11.239h9.17m-9.17 7.325h9.171m1.597-5.751v4.182m-12.367-4.182v4.182m0-4.183c0-1.07.564-1.573 1.598-1.573m10.407.433c-.268-.292-.686-.433-1.236-.433m1.603 1.574q-.002-.738-.362-1.132M50.63 27.757c.268.31.695.465 1.264.465m-1.599-1.569c0 .446.1.794.292 1.048m12.079-1.048c0 1.066-.564 1.57-1.602 1.57m-10.181-8.609h9.171m-10.768 1.575v4.181m0-4.182c0-1.071.563-1.574 1.597-1.574m10.313.344c-.267-.23-.653-.348-1.141-.348m-10.769 5.76q.002.542.188.893m1.155 1.494-.043-.056-1.07-1.372"/><path stroke="#003c73" stroke-linecap="round" stroke-linejoin="round" d="m62.305 21.339-.005-.01-1.034-1.306M9.974 41.81h9.17m-9.17 7.33h9.17m1.598-5.756v4.181M8.377 43.384v4.181m0-4.181c0-1.072.564-1.574 1.597-1.574m10.407.437c-.268-.292-.686-.432-1.236-.432m1.603 1.569q-.002-.74-.362-1.133M8.71 48.674c.268.31.695.465 1.264.465m-1.597-1.574q.002.669.291 1.048m12.08-1.048c0 1.067-.564 1.57-1.603 1.57M8.964 40.527h9.171M7.366 42.101v4.182m0-4.183c0-1.07.564-1.573 1.598-1.573m10.313.348c-.268-.23-.654-.348-1.142-.348M7.366 46.283c0 .361.066.657.188.892m1.156 1.499-.042-.061-1.071-1.367"/><path stroke="#003c73" stroke-linecap="round" stroke-linejoin="round" d="m20.386 42.256-.005-.01-1.034-1.31m12.643-9.491h9.167M31.99 38.77h9.167m1.602-5.751v4.182m-12.371-4.182v4.182m0-4.181c0-1.072.564-1.575 1.598-1.575m10.406.437c-.267-.291-.686-.432-1.235-.432m1.602 1.569q-.001-.74-.362-1.132m-11.67 6.423c.267.31.695.465 1.263.465M30.388 37.2q.002.67.291 1.048m12.08-1.048c0 1.067-.564 1.57-1.602 1.57M30.98 30.162h9.172m-10.769 1.574v4.182m0-4.182c0-1.071.564-1.574 1.597-1.574m10.314.343c-.268-.23-.653-.347-1.142-.347m-10.769 5.76c0 .362.066.658.188.893"/><path stroke="#003c73" stroke-linecap="round" stroke-linejoin="round" d="m30.726 38.31-.042-.062-1.076-1.367m12.79-4.99-.005-.01-1.034-1.31M31.99 52.358h9.167m-9.167 7.33h9.167m1.602-5.751v4.176m-12.371-4.176v4.176m0-4.177c0-1.071.564-1.574 1.598-1.574m10.406.433c-.267-.292-.686-.433-1.235-.433m1.602 1.575q-.001-.74-.362-1.133m-11.67 6.418c.267.31.695.465 1.263.465m-1.602-1.574q.002.669.291 1.048m12.08-1.048c0 1.067-.564 1.57-1.602 1.57M30.98 51.075h9.172m-10.769 1.574v4.182m0-4.181c0-1.072.564-1.575 1.597-1.575m10.314.348c-.268-.23-.653-.348-1.142-.348M29.383 56.83c0 .362.066.658.188.893"/><path stroke="#003c73" stroke-linecap="round" stroke-linejoin="round" d="m30.726 59.222-.042-.06-1.076-1.368m12.79-4.99-.005-.01-1.034-1.31M20.748 34.776h8.466m13.545 0h6.714M19.085 13.863h10.19m13.484 0h6.714M20.748 55.689h8.466m13.809 0h8.212m4.92-36.075c-1.053-3.26-3.28-5.75-6.677-5.75m-.004 20.913c3.674 0 5.976-2.904 6.911-6.555m-42.53 12.305c1.057-3.261 3.279-5.751 6.676-5.751m.001 20.913c-3.675 0-5.977-2.904-6.907-6.554 0-.005 0-.015-.005-.02m37.752 2.068v9.012m0-9.012 5.826 4.506m-5.826 4.505 5.826-4.506"/></svg>