<svg width="20" height="20" viewBox="0 0 20 20" fill="none" xmlns="http://www.w3.org/2000/svg">
<path fill-rule="evenodd" clip-rule="evenodd" d="M16.364 16.364C19.8787 12.8492 19.8787 7.15076 16.364 3.63604C12.8492 0.12132 7.15076 0.12132 3.63604 3.63604C0.12132 7.15076 0.12132 12.8492 3.63604 16.364C7.15076 19.8787 12.8492 19.8787 16.364 16.364ZM6.11091 6.11091C6.6967 5.52513 7.64645 5.52513 8.23223 6.11091L10 7.87868L11.7678 6.11091C12.3536 5.52513 13.3033 5.52513 13.8891 6.11091C14.4749 6.6967 14.4749 7.64645 13.8891 8.23223L12.1213 10L13.8891 11.7678C14.4749 12.3536 14.4749 13.3033 13.8891 13.8891C13.3033 14.4749 12.3536 14.4749 11.7678 13.8891L10 12.1213L8.23223 13.8891C7.64645 14.4749 6.6967 14.4749 6.11091 13.8891C5.52513 13.3033 5.52513 12.3536 6.11091 11.7678L7.87868 10L6.11091 8.23223C5.52513 7.64645 5.52513 6.6967 6.11091 6.11091Z" fill="#A2A9A3"/>
</svg>
