<svg xmlns="http://www.w3.org/2000/svg" id="Layer_1" version="1.1" viewBox="0 0 235 153"><defs><style>.st0{isolation:isolate;opacity:.3}.st0,.st1{fill:#fffaf0;fill-rule:evenodd}.st2{fill:#a2a9a3}</style></defs><rect width="235" height="153" x="0" class="st2" rx="16" ry="16"/><path d="M17.28,62.522c0-.313.085-.62.246-.889l2.706-4.51c.312-.52.875-.839,1.482-.839h12.269c.954,0,1.728.774,1.728,1.728v24.191c0,.954-.774,1.728-1.728,1.728h-12.269c-.607,0-1.169-.318-1.482-.839l-2.706-4.51c-.161-.269-.246-.576-.246-.889v-15.17ZM38.015,58.011c0-.954.774-1.728,1.728-1.728h5.76c.954,0,1.728.774,1.728,1.728v9.216c0,.954-.774,1.728-1.728,1.728h-5.76c-.954,0-1.728-.774-1.728-1.728v-9.216ZM51.263,56.283c-.954,0-1.728.774-1.728,1.728v12.672c0,.954.774,1.728,1.728,1.728h5.76c.954,0,1.728-.774,1.728-1.728v-12.672c0-.954-.774-1.728-1.728-1.728h-5.76ZM38.015,72.987c0-.954.774-1.728,1.728-1.728h5.76c.954,0,1.728.774,1.728,1.728v9.216c0,.954-.774,1.728-1.728,1.728h-5.76c-.954,0-1.728-.774-1.728-1.728v-9.216ZM51.263,74.716c-.954,0-1.728.774-1.728,1.728v5.76c0,.954.774,1.728,1.728,1.728h5.76c.954,0,1.728-.774,1.728-1.728v-5.76c0-.954-.774-1.728-1.728-1.728h-5.76Z" class="st0"/><path d="M158.625,29.5c0-3.245,2.63-5.875,5.875-5.875h47c3.245,0,5.875,2.63,5.875,5.875v35.25c0,3.245-2.63,5.875-5.875,5.875h-47c-3.245,0-5.875-2.63-5.875-5.875V29.5ZM164.5,35.375v11.75h20.562v-11.75h-20.562ZM190.937,35.375v11.75h20.563v-11.75h-20.563ZM185.062,53h-20.562v11.75h20.562v-11.75ZM190.937,64.75v-11.75h20.563v11.75h-20.563Z" class="st1"/></svg>