<svg xmlns="http://www.w3.org/2000/svg" width="119" height="192" fill="none" viewBox="0 0 119 192"><g clip-path="url(#a)"><path fill="#f68dfe" d="M1.84 171.363s.377-15.776 2.737-18.576c0 0-7.227-12.387 1.623-27.577 0 0 5.014-5.75 7.374-7.52s9.733-7.667 13.123-12.387c3.393-4.72 10.323-10.913 18.433-6.046 8.11 4.866 3.244 17.106 1.327 19.17s-5.457 5.603-7.227 6.49c-1.77.883-9.88 4.866-8.406 11.353 0 0 4.866 7.52 5.31 12.387H81.11s-5.16 9.88-14.6 12.24c-9.436 2.36-17.106 2.653-17.106 2.653l-1.034 6.637s-15.336 5.75-29.64 4.13c-14.303-1.624-16.893-2.954-16.893-2.954zm94.754-85.676v15.926s7.816 2.804 11.65 2.507c3.833-.293 10.47-3.98 9.88-11.65-.59-7.667-8.7-8.257-11.504-7.963-2.803.293-7.816 2.213-10.026 1.18"/><path fill="#f68dfe" d="M96.594 101.613v2.804s-3.097.146-5.457-.147-7.373-2.653-11.503-2.36-7.374 4.13-7.963 7.227c-.59 3.096.883 7.226 1.623 8.256 0 0-3.687 7.077.293 12.684 0 0-2.183 3.2-2.063 5.603s1.326 10.323 15.04 10.323 16.96-10.176 16.81-17.106c0 0 4.866-6.49 0-13.124 0 0 2.36-8.553-1.18-11.943l-5.603-2.213z"/><path fill="#fed607" d="M92.467 116.95s1.77 9.436-.444 13.566c0 0 9.144-.443 11.354-1.623 0 0 4.57-7.076 0-13.123 0 0-7.667 1.623-10.914 1.18z"/><path fill="#ff7101" d="M36.134 148.654h54.563s5.16-1.034 5.013-4.57c0 0-4.57 1.623-10.47 1.623s-14.45-3.243-13.863-9.143 2.213-6.49 2.213-6.49-4.13-3.834-.293-12.684c0 0-3.98-4.57-1.033-10.323 2.95-5.75 9.436-5.457 11.206-5.16 1.77.293 7.227 2.653 9.437 2.653s3.687-.146 3.687-.146V8.507s-.884-6.93-6.49-6.93H24.927s-6.93.443-6.93 7.227v105.493s6.34-6.047 8.7-8.997 8.257-9.586 15.483-7.52 8.847 9.587 7.227 13.274-1.77 7.52-8.11 11.943-11.65 7.077-10.47 13.273c0 0 4.72 6.49 5.31 12.387z"/><path fill="#fff2b2" d="M23.503 109.417V11.5H91.19v93.197l-5.31-1.624S82 101 77.5 102.5c-3.243 1.92-4.61 2.663-5.187 5.883-.573 3.22-.813 5.617-.813 5.617l2 3.5s-2 3-2 6 2 7 2 7l-2 4 .482 4.5H33s-3-1.5-2-6.5 12-9 16-15c1-2.187 6.88-12.657-1.673-17.817s-12.814.244-17.827 4.817l-4 4.917z"/><path stroke="#002140" stroke-linecap="round" stroke-linejoin="round" d="M33 139h38.5"/><path fill="#fed607" d="M1.807 171.523c-1.067 1.17.85 16.21 2.62 17.39 11.207 2.804 29.64 2.064 46.157-2.063 0 0-1.917-13.713-2.214-16.663 0 0-9.29 3.243-17.253 3.686s-23.3-.59-29.313-2.35z"/><path fill="#fff2b2" d="m101.46 122.7-2.36-3.097-2.356 3.247 2.063 3.39z"/><path fill="#fffaf0" d="M104.707 117.54s1.473 4.57.443 7.52l5.16 3.393h5.16l1.77-2.653v-8.11l-1.77-3.243h-5.456l-5.31 3.096z"/><path fill="#002140" d="M101.387 102.94s-1.474-8.037-.147-17.113c-.78-.01-4.423-.067-4.423-.067l-.294 15.337 4.867 1.843z"/><path stroke="#002140" stroke-linecap="round" stroke-linejoin="round" d="M18.1 114.147V8.297A6.797 6.797 0 0 1 24.898 1.5h64.714a6.797 6.797 0 0 1 6.796 6.797v96.233m-.381 39.573a6.8 6.8 0 0 1-6.42 4.567H36.07"/><path stroke="#002140" stroke-linecap="round" stroke-linejoin="round" d="M90.85 104.163V11.457H23.38v97.423m79.934 6.93c-12.83 3.577-16.567-1.483-21.444-1.637-4.876-.15-9.953 2.314-10.326 9.494-.14 2.693.66 4.833 2.083 6.453"/><path stroke="#002140" stroke-linecap="round" stroke-linejoin="round" d="M103.314 128.973c-12.83 3.577-16.367-1.313-22.507-1.193-6.14.123-10.48 4.046-9.163 10.3.88 4.176 5.293 6.34 9.107 7.186 4.976 1.107 23.003 2.987 22.563-16.293M98.75 104.3c-9.256 1.357-12.64-2.49-16.883-2.62-4.876-.15-9.953 2.313-10.326 9.493-.14 2.694.66 4.834 2.083 6.454m29.543 11.163s5.16-5.677.146-13.147c0 0 3.147-9.206-1.153-12.033"/><path stroke="#002140" stroke-linecap="round" stroke-linejoin="round" d="M103.167 128.79q-.3.15-.59.29m-21.493 20.06s-8.183 15.04-31.19 14.6M4.217 153.12s-5.98 17.507.213 35.793m-.116-35.966s-3.577-8.48-.804-20.597c2.774-12.113 12.44-14.67 18.257-21.257 5.817-6.586 12.83-17.843 22.643-12.367 7.184 4.011 6.354 12.341 2.48 18.461-1.936 3.06-4.493 5.536-7.556 7.45-3.16 1.973-7.094 3.67-8.28 7.53-.284.92-.387 1.89-.387 2.846-.347 2.477 8.353 7.934 4.373 22.534M96.404 85.73c4.55.737 6.836-1.217 12.846-1.123 6.01.09 9.254 5.253 8.664 11.003s-8.554 12.387-21.234 5.75m-47.153 62.377s-3.06 4.203 1.363 23.003"/><path stroke="#002140" stroke-linecap="round" stroke-linejoin="round" d="M1.84 171.363c17.847 4.06 35.154 2.47 46.394-.99M4.43 188.913c13.864 2.764 33.107 1.824 46.46-2.17"/><path stroke="#002140" stroke-linecap="round" stroke-linejoin="round" d="M24.787 174.023s6.527 8.627 0 16.257m-13.103-16.977s6.527 8.627 0 16.257m25.713-16.31s6.527 8.627 0 16.257"/><path fill="#002140" d="M20.78 183.993a2.046 2.046 0 1 0 .001-4.093 2.046 2.046 0 0 0 0 4.093m-12.941-.886a2.047 2.047 0 1 0 0-4.094 2.047 2.047 0 0 0 0 4.094m25.574.373a2.047 2.047 0 1 0 0-4.093 2.047 2.047 0 0 0 0 4.093m11.566-1.503a2.047 2.047 0 1 0 0-4.094 2.047 2.047 0 0 0 0 4.094"/><path stroke="#002140" stroke-linecap="round" stroke-linejoin="round" d="M92.254 117.14s2.213 4.72 0 12.977m6.783-10.767-2.506 3.393 2.653 3.39 2.507-3.39zm5.604-1.327 5.603-3.686h5.163l1.917 3.096v8.7l-1.917 2.067h-4.72l-5.456-3.393m5.602-10.47V128.2"/><path stroke="#002140" stroke-linecap="round" stroke-linejoin="round" d="m110.76 118.17-5.16 2.95 4.94 3.54m4.644-9.953-3.98 3.613 5.823 2.507-5.897 3.316 4.2 3.54"/><path fill="#f25730" d="M57.431 47.848v3.853s-12.803-1.145-15.196 14.051c0 0-.832 15.3 14.99 16.135v3.539s-18.322-.831-18.736-18.528c0-11.762 9.471-18.425 18.946-19.05z"/><path fill="#f25730" d="M56.704 47.848v3.853S69.507 50.556 71.9 65.752c0 0 .832 15.3-14.99 16.135v3.539s18.322-.831 18.736-18.528c0-11.762-9.471-18.425-18.945-19.05z"/><path fill="#f25730" fill-rule="evenodd" d="m67.137 79.706-24-24 2.785-2.353 23.784 23.784z" clip-rule="evenodd"/><path stroke="#002140" stroke-linecap="round" stroke-linejoin="round" d="M57.168 85.417c10.302 0 18.654-8.352 18.654-18.654 0-10.303-8.352-18.654-18.654-18.654-10.303 0-18.654 8.351-18.654 18.654s8.351 18.654 18.654 18.654"/><path fill="#002140" d="m66.2 78.769.3.4a.5.5 0 0 0 .053-.754zm-9.032 3.018v.5zM42.144 66.762h-.5zm3.017-9.032.354-.354a.5.5 0 0 0-.753.053zm12.007-5.991v-.5zm15.024 15.023h.5zm-3.374 9.487-.354.353a.5.5 0 0 0 .741-.038zM47.68 55.112l-.316-.388a.5.5 0 0 0-.038.741zM66.2 78.769l-.301-.4a14.46 14.46 0 0 1-8.73 2.918v1c3.502 0 6.734-1.162 9.332-3.119zm-9.032 3.018v-.5c-8.021 0-14.524-6.503-14.524-14.525h-1c0 8.574 6.95 15.525 15.524 15.525zM42.144 66.762h.5c0-3.278 1.086-6.3 2.917-8.731l-.4-.301-.399-.3a15.46 15.46 0 0 0-3.118 9.332zm3.017-9.032-.353.354 21.038 21.039.354-.354.353-.354-21.038-21.039zm12.007-5.991v.5c8.021 0 14.524 6.502 14.524 14.523h1c0-8.573-6.95-15.523-15.524-15.523zm15.024 15.023h-.5c0 3.478-1.223 6.67-3.262 9.17l.388.317.387.316a15.46 15.46 0 0 0 3.487-9.803zm-3.374 9.487.353-.354-21.136-21.137-.354.354-.353.353 21.136 21.137zM47.68 55.112l.316.387a14.46 14.46 0 0 1 9.171-3.26v-1c-3.717 0-7.13 1.306-9.803 3.485z"/></g><defs><clipPath id="a"><path fill="#fff" d="M.5.5h118v191H.5z"/></clipPath></defs></svg>