<?xml version="1.0" encoding="UTF-8"?>
<svg id="Layer_1" xmlns="http://www.w3.org/2000/svg" version="1.1" viewBox="0 0 20 20">
  <!-- Generator: Adobe Illustrator 30.3.0, SVG Export Plug-In . SVG Version: 2.1.3 Build 182)  -->
  <path d="M11,9v-1c0-.55-.45-1-1-1s-1,.45-1,1v5.46c0,2.24-1.62,4.16-3.84,4.53-.54.09-1.06-.28-1.15-.82-.09-.54.28-1.06.82-1.15,1.25-.21,2.16-1.29,2.16-2.55v-5.46c0-1.66,1.34-3,3-3s3,1.34,3,3v1c0,.55-.45,1-1,1s-1-.45-1-1Z"/>
  <path d="M11,12.69v-.19c0-.55.45-1,1-1,.55,0,1,.45,1,1v.19c0,1.69-.44,3.35-1.29,4.81-.28.48-.89.64-1.37.37-.48-.28-.64-.89-.37-1.37.67-1.16,1.02-2.47,1.02-3.81Z"/>
  <path d="M15,10.84v-2.84c0-2.76-2.24-5-5-5s-5,2.24-5,5v5c0,.55-.45,1-1,1s-1-.45-1-1v-5c0-3.87,3.13-7,7-7s7,3.13,7,7v2.84c0,2.2-.36,4.39-1.05,6.48-.17.52-.74.81-1.26.63-.52-.17-.81-.74-.63-1.26.63-1.88.95-3.86.95-5.85Z"/>
</svg>