<svg xmlns="http://www.w3.org/2000/svg" viewBox="0 0 20 20"><path d="M11 9V8c0-.55-.45-1-1-1s-1 .45-1 1v5.46c0 2.24-1.62 4.16-3.84 4.53-.54.09-1.06-.28-1.15-.82s.28-1.06.82-1.15a2.586 2.586 0 0 0 2.16-2.55V8.01c0-1.66 1.34-3 3-3s3 1.34 3 3v1c0 .55-.45 1-1 1s-1-.45-1-1Z"/><path d="M11 12.69v-.19c0-.55.45-1 1-1s1 .45 1 1v.19c0 1.69-.44 3.35-1.29 4.81-.28.48-.89.64-1.37.37a1.01 1.01 0 0 1-.37-1.37 7.6 7.6 0 0 0 1.02-3.81Z"/><path d="M15 10.84V8c0-2.76-2.24-5-5-5S5 5.24 5 8v5c0 .55-.45 1-1 1s-1-.45-1-1V8c0-3.87 3.13-7 7-7s7 3.13 7 7v2.84c0 2.2-.36 4.39-1.05 6.48-.17.52-.74.81-1.26.63a.99.99 0 0 1-.63-1.26c.63-1.88.95-3.86.95-5.85Z"/></svg>