<svg xmlns="http://www.w3.org/2000/svg" width="20" height="20" fill="none" viewBox="0 0 20 20"><path fill="#a2a9a3" d="M11 9V8a1 1 0 1 0-2 0v5.459a4.59 4.59 0 0 1-3.836 4.527 1 1 0 0 1-.328-1.972A2.59 2.59 0 0 0 7 13.459V8a3 3 0 0 1 6 0v1a1 1 0 1 1-2 0"/><path fill="#a2a9a3" d="M11 12.69v-.19a1 1 0 0 1 2 0v.19a9.6 9.6 0 0 1-1.288 4.81 1 1 0 0 1-1.733-1A7.6 7.6 0 0 0 11 12.69"/><path fill="#a2a9a3" d="M15 10.838V8A5 5 0 0 0 5 8v5a1 1 0 1 1-2 0V8a7 7 0 0 1 14 0v2.838c0 2.202-.355 4.39-1.052 6.478a1 1 0 1 1-1.896-.632A18.5 18.5 0 0 0 15 10.838"/></svg>