<svg xmlns="http://www.w3.org/2000/svg" width="255" height="166" fill="none" viewBox="0 0 255 166"><g clip-path="url(#a)"><path stroke="#002140" stroke-linecap="round" stroke-linejoin="round" d="M81.257 84.123V97.77m33.333-13.647V97.77m36.666-74.313v13.646m0 16.687v13.647m0 16.686V97.77m33.334-43.98v13.647m0 16.686V97.77m-16.667-60.273V53.26m0 14.59v16m0 14.587v16m-33.333-76.94V53.26m0 14.59v16m0 14.587v16m-36.667-16v16"/><path fill="#0164bf" d="M111.57 104.24a1.765 1.765 0 1 1-.003 3.53 1.765 1.765 0 0 1 .003-3.53m4.233-5.213c.977 0 1.767.79 1.767 1.763a1.765 1.765 0 0 1-3.53 0c0-.974.79-1.764 1.763-1.764m73.53-11.649v.08c-8.94 0-12 2.863-16.587 8.51-2.65 3.26-9.373 12.196-9.373 12.196l-6.353 1.177 2.746 4.547s-24.473 30.12-24.786 30.59v.233h-11.844v-.233c.054-.054 1.12-1.317 2.884-3.424 1.553-1.85 3.643-4.343 6.063-7.233 9.9-11.823 25.29-30.233 31.617-37.843.946-1.14 1.693-2.04 2.183-2.637 5.49-6.667 11.03-5.963 15.57-5.963z"/><path fill="#e96df2" d="m99.427 121.78-5.377 1.017-.01-.047c-8.314-6.587-24.157-28.94-24.157-28.94l-7.216 10.667-.174.23c-3.733-2.777-7.326-4.367-9.896-5.25l.11-.314s8.626-13.883 11.45-18.353 6.666-6.667 10.666-3.687c3.76 2.803 17.58 13.374 19.214 14.624-1.577 10.25.223 21.046 5.39 30.053"/><path fill="#e96df2" d="M94.037 91.727c.81-5.26 2.51-10.374 5.1-15.03q.57-1.026 1.189-2.017c-2.936 9.62-2.926 20.116.027 29.73l6.783-.013-1.63 10.313c5.557 9.506 15.344 16.436 26.157 18.52l.42.59c-2.42 2.89-4.51 5.383-6.063 7.233l-.217-.183H59.687v-11.61h.236l34.127-6.463 5.377-1.017c-5.167-9.007-6.967-19.803-5.39-30.053"/><path fill="#002140" d="M149.543 43.587c2.18.353 4.3 2.456 3.203 5.596l-3.843-1.647 1.253 4.157c-4.55.314-5.556-2.62-5.203-4.8a4 4 0 0 1 4.59-3.306m10.08 9.333c2.18.353 4.3 2.456 3.2 5.596l-3.843-1.646 1.256 4.157c-4.55.313-5.556-2.62-5.203-4.8a4 4 0 0 1 4.59-3.307"/><path fill="#50eef6" d="M109.52 73.867c.246-.334.586-.594.96-.777 1-.49 2.156-.423 3.2-.003.626.25 1.213.63 1.7 1.086 1.133 1.064 1.846 2.484 2.486 3.914l.27.613c.264.6.564 1.327.864 2.103.416 1.08.836 2.264 1.156 3.36l.047.144a4 4 0 0 0-.673.23q-.245.104-.484.223l-.066-.127c-2.034-.62-4.817-2.093-6.524-3.363s-3.07-3.123-3.346-5.23c-.09-.69-.054-1.427.306-2.02q.045-.075.1-.15s0-.003.004-.003"/><path fill="#50eef6" d="m118.98 84.633.066.127a9.62 9.62 0 0 0-4.376 4.387 9.5 9.5 0 0 0-.93 3.496l-.17-.01c-2.197 1.49-5.257 2.587-6.904 2.744-1.646.16-1.993-1.044-2.04-1.254-1.393-6.543-.863-13.913 4.89-20.253q-.055.075-.1.15c-.36.593-.396 1.33-.306 2.02.276 2.107 1.64 3.96 3.346 5.23s4.49 2.743 6.524 3.363"/><path fill="#50eef6" d="m114.136 95.82-.096-.007a9.5 9.5 0 0 1-.3-3.17 9.5 9.5 0 0 1 .93-3.496 9.62 9.62 0 0 1 4.86-4.61 4 4 0 0 1 .673-.23q.21-.052.423-.057c.347-.007.687.083 1.014.197 2.586.883 4.62 3.22 5.14 5.903l.013.09c-.627.11-.97.647-1.403 1.243-.934 1.28-1.65 2.71-2.194 4.2l-.22-.083c-2.94.203-5.896.213-8.84.02m25.327 5.466a2.1 2.1 0 0 1-.317.857c-.763 1.167-2.16 1.013-3.276.59-2.917-1.1-5.034-3.677-6.577-6.39-.55-.967-2.617-5.1-2.437-5.907v-.006c.13-.02.27-.02.43.003.26.037.74.237 1.317.513.637.31 1.387.714 2.09 1.114a39 39 0 0 1 2.17 1.303 26.6 26.6 0 0 1 3.477 2.78 25 25 0 0 1 1.576 1.62c.79.887 1.547 1.873 1.574 3.123q.004.2-.027.4"/><path fill="#50eef6" d="M139.146 102.143c.17-.26.274-.553.317-.856-.03.723-.25 1.47-.64 2.013-1.427 1.993-3.713 3.35-6.093 3.95-3.324.84-6.837.543-9.96-.807a2.16 2.16 0 0 1-1.277-2.216c.247-2.287.563-4.567 1.193-6.774.15-.526.32-1.053.51-1.57.544-1.49 1.26-2.92 2.194-4.2.433-.597.776-1.133 1.403-1.243q.03-.01.063-.01v.006c-.18.807 1.887 4.94 2.437 5.907 1.543 2.713 3.66 5.29 6.577 6.39 1.116.424 2.513.577 3.276-.59"/><path fill="#fed607" d="m114.04 95.813.096.007c-2.636 3.043-4.616 5.33-7 8.577l-6.783.013c-2.953-9.613-2.963-20.11-.027-29.73 1.954-3.133 4.244-6.01 6.767-8.693 2.097-2.227 4.353-4.324 6.71-6.317v13.12l-.123.297c-1.044-.42-2.2-.487-3.2.003a2.6 2.6 0 0 0-.96.777q-.005.002-.004.003c-5.753 6.34-6.283 13.71-4.89 20.253.047.21.394 1.414 2.04 1.254 1.647-.157 4.707-1.254 6.904-2.744l.17.01a9.5 9.5 0 0 0 .3 3.17"/><path fill="#fed607" d="m163.686 95.967.014.01c-6.327 7.61-21.717 26.02-31.617 37.843l-.42-.59c-10.813-2.083-20.6-9.013-26.157-18.52l1.63-10.313c2.384-3.247 4.364-5.534 7-8.577 2.944.193 5.9.183 8.84-.02l.22.083a22 22 0 0 0-.51 1.57c-.63 2.207-.946 4.487-1.193 6.774-.103.936.41 1.84 1.277 2.216a15.55 15.55 0 0 0 9.96.807c2.38-.6 4.666-1.957 6.093-3.95.39-.543.61-1.29.64-2.013q.03-.2.027-.4c-.027-1.25-.784-2.237-1.574-3.124a25 25 0 0 0-1.576-1.62l.17-.176zm-46.116 4.823a1.765 1.765 0 0 0-3.53 0 1.764 1.764 0 0 0 3.53 0m-4.237 5.217a1.765 1.765 0 1 0-3.53-.005 1.765 1.765 0 0 0 3.53.005m-53.096 8.116c.893.004 1.983-.563 2.993-1.57a6329 6329 0 0 0-6.813 8.077c.46-.763.56-1.72.516-2.44-.05-.77-.386-1.56-1.05-1.99-.81-.527-1.727-.253-2.58.21-.853.46-1.386 1.38-2.01 2.107.557-.857.757-2.03.784-3.04.016-.654-.107-1.517-.694-1.847-.69-.387-1.8-.03-2.443.417a11.2 11.2 0 0 0-2.01 1.786c.52-1.103 1.147-2.603.676-3.73-.343-.833-1.053-1.273-1.983-1.273-.933 0-2.12.7-3.113 1.91l-.084-.037 4.757-10.673.034.013c-.254.917-.437 2.064-.38 3.014.056.946.456 1.92 1.24 2.45.963.65 2.05.31 3.06-.26 1.013-.567 1.773-1.484 2.51-2.377a7.06 7.06 0 0 0-1.06 3.527c-.02.803.13 1.87.826 2.276.814.474 2.13.037 2.894-.513a13.6 13.6 0 0 0 2.38-2.203c-.617 1.363-1.36 3.21-.804 4.596.41 1.027 1.25 1.567 2.353 1.57m-4.079 17.037a7.07 7.07 0 0 0-3.584.84c-.71.383-1.56 1.04-1.57 1.84-.01.94 1.017 1.853 1.874 2.24a13.5 13.5 0 0 0 3.086.953c-1.486.147-3.456.427-4.386 1.594-.687.863-.744 1.853-.2 2.806.543.95 1.986 1.734 3.86 2.004v.056c-2.624-.163-6.164-.38-9.964-.606.72-.187 1.543-.504 2.15-.904.643-.423 1.16-1.11 1.203-1.9.057-.966-.64-1.623-1.463-2.136-.826-.51-1.886-.517-2.826-.694 1.02.057 2.136-.353 3.026-.83.574-.31 1.264-.85 1.257-1.523-.007-.787-.867-1.577-1.577-1.913a11.2 11.2 0 0 0-2.55-.854c1.217-.1 2.83-.3 3.577-1.266.55-.714.58-1.547.117-2.357-.46-.81-1.66-1.49-3.204-1.75l-.016-.077 8.263-1.986 2.193-.527.01.047c-.916.236-2.003.65-2.797 1.17-.796.52-1.443 1.346-1.516 2.286-.09 1.15.74 1.92 1.733 2.507s2.163.79 3.303.98"/><path fill="#0185ff" d="M24.94 129.653c0 1.567-.94 2.587-3.057 2.51-1.87-.07-3.616.473-4 2.973-.456-.043-3.066-.263-10.04-.543-7.763-.313-7.216-5.647-2.353-6.51 4.58-.813 11.663-2.11 12.473-2.257.637 1.714 1.72 1.794 3.293 1.71 2.98-.16 3.684.547 3.684 2.117m31.993-11.463c.044.72-.056 1.677-.517 2.44l-3.24 3.847.054.22-8.263 1.986-8.104 1.95s-2.136-2.243-4.133-5.646l.133-.08 5.647-1.41 3.916-8.794.084.037c.993-1.21 2.18-1.913 3.113-1.91.93 0 1.64.44 1.983 1.273.47 1.127-.156 2.627-.676 3.73a11.2 11.2 0 0 1 2.01-1.786c.643-.447 1.753-.804 2.443-.417.587.33.71 1.193.694 1.847-.027 1.01-.227 2.183-.784 3.04.624-.727 1.157-1.647 2.01-2.107.854-.463 1.77-.737 2.58-.21.663.43 1 1.22 1.05 1.99m9.814-9.793a1053 1053 0 0 0-3.504 4.143.02.02 0 0 0-.013.013c-1.01 1.007-2.1 1.573-2.993 1.57-1.104-.003-1.944-.543-2.354-1.57-.556-1.387.187-3.233.803-4.597-.7.827-1.503 1.567-2.38 2.204-.763.55-2.08.987-2.893.513-.696-.406-.846-1.473-.826-2.276a7.06 7.06 0 0 1 1.06-3.527c-.737.893-1.497 1.81-2.51 2.376-1.01.57-2.097.911-3.06.261-.784-.53-1.184-1.504-1.24-2.451-.057-.95.126-2.096.38-3.013l-.034-.013 1.6-3.594s1.49.224 3.813 1.02a36.7 36.7 0 0 1 9.897 5.251 37.6 37.6 0 0 1 4.253 3.69m-7.06 32.473v2.9s-1.73-.11-4.453-.277v-.057c-1.87-.27-3.313-1.053-3.856-2.003-.544-.953-.487-1.943.2-2.807.93-1.166 2.9-1.446 4.386-1.593a13.5 13.5 0 0 1-3.087-.953c-.856-.387-1.883-1.3-1.873-2.24.01-.8.86-1.457 1.57-1.84a7.06 7.06 0 0 1 3.583-.84c-1.14-.19-2.31-.394-3.303-.98-.993-.587-1.823-1.357-1.733-2.507.073-.94.72-1.767 1.517-2.287.793-.52 1.88-.933 2.796-1.169l-.01-.047 4.263-1.027z"/><path fill="#0185ff" d="M17.963 125.823c-.48-1.286-.706-3.49-.706-7.23 0-10.116 5.333-18.743 8.626-22.116 3.294-3.374 7.057-1.804 6.197 1.176-.863 2.98-2.51 5.254-2.747 14.04-.11 4.177 1.587 8.21 3.397 11.294 1.997 3.403 4.133 5.646 4.133 5.646l8.104-1.95.016.077c1.544.26 2.744.94 3.204 1.75.463.81.433 1.643-.117 2.357-.747.966-2.36 1.166-3.577 1.266.877.18 1.734.467 2.55.854.71.336 1.57 1.126 1.577 1.913.007.673-.683 1.213-1.257 1.523-.89.477-2.006.887-3.026.83.94.177 2 .184 2.826.694.824.513 1.52 1.17 1.464 2.136-.044.79-.56 1.477-1.204 1.9-.606.4-1.43.717-2.15.904-9.683-.58-21.056-1.234-23.233-1.234-3.923 0-4.237-1.96-4.237-5.413q0-.604.08-1.103c.384-2.5 2.13-3.044 4-2.974 2.117.077 3.057-.943 3.057-2.51s-.703-2.276-3.683-2.116c-1.574.083-2.657.003-3.294-1.71z"/><path fill="#e5fafe" d="M162.62 36.66c.226.31.43.637.593.983.403.85.56 1.854.237 2.734-.327.883-1.207 1.586-2.144 1.523-.45-.03-.873-.223-1.25-.473-1.133-.754-1.846-1.987-2.796-2.964-1.384-1.423-3.28-2.293-5.237-2.63s-3.977-.17-5.917.264c-1.673-2.434-3.176-4.717-4.85-7.15-4.236 3.763-7.686.393-4.08-3.06a152 152 0 0 1 2.864-2.687 121 121 0 0 1 4.576-3.977c.56-.463 1.16-.96 1.817-1.493 4.233-3.45 7.293.393 3.45 3.843l5.567 5.334h.156c5.884-3.214 10.04-1.724 12.16.11 1.15 1 2.117 1.996 3.137 3.186.637.744 1.48 1.667 1.88 2.587.217.493.387.967.443 1.45.054.41.024.83-.126 1.27-.324.953-1.2 1.713-2.134 1.647-.446-.03-.87-.24-1.243-.51-.803-.58-1.19-1.317-1.8-2.13l-.053.026q.078.151.146.307c.404.92.56 2.007.237 2.96s-1.2 1.713-2.137 1.647c-.446-.034-.87-.24-1.243-.51-.8-.58-1.56-1.534-2.173-2.347zm-15.767 108.05q.86-1.046 1.727-2.09c1.693-2.037 5.34-6.58 14.17-6.907q.496-.02 1.016-.02l9.334-.08v-4.04a3.252 3.252 0 1 1 6.506 0v16.393a3.253 3.253 0 1 1-6.506 0v-2c-1.32.01-2.69-.096-3.857.514-.69.356-1.323.84-1.813 1.44-.12.15-.247.3-.374.46-2.976 3.65-8.29 10.12-9.576 11.593-.63.72-1.397 1.357-2.307 1.647s-2.013.136-2.643-.58a2.16 2.16 0 0 1-.507-1.2l-.1.01c-.42.33-.673.416-1.18.58-.91.29-2.013.136-2.643-.58-.36-.407-.52-.944-.527-1.494h-.123c-.384.287-.644.517-1.1.66-.91.29-2.014.137-2.644-.58-.596-.68-.643-1.713-.35-2.566.294-.857.877-1.58 1.45-2.28l.49-.597-.04-.033c-.65-.01-1.283-.237-1.706-.72-.597-.68-.644-1.71-.35-2.567.293-.857.876-1.58 1.45-2.28q1.099-1.344 2.203-2.683"/><path fill="#fff2b2" d="m235.766 126.043 1.88 2.59c-17.02 12.313-28.47-1.02-28.47-1.02l.08-4.313c.027-.007.134-.014.31-.017v.094s10.277 14.746 26.12 2.746l-.016-.04zm10.194 21.177-.314 3.06c-4.076-1.02-5.646-3.45-5.646-3.45l.236-4.313s.12.036.35.096l-.036.137s1.96 3.453 5.41 4.47m7.06-2.9h.233c-.01 1.75-.153 3.686-.153 3.686s-4.474 2.197-7.454 2.274l.314-3.06c3.53-.47 7.06-2.9 7.06-2.9M224.08 153l-.1 3.53s-10.074 6.353-24.55 1.096l-.294-3.37c12.72 5.857 24.944-1.256 24.944-1.256"/><path fill="#ffed8f" d="M137.333 159.3c-10.2 5.856-20-1.257-20-1.257l10.117-5.723s1.02 4.313 9.883 6.98m115.923-15.217q0 .12-.003.24h-.233s-3.53 2.427-7.06 2.897c-3.45-1.017-5.41-4.47-5.41-4.47l.036-.137c1.36.36 6.554 1.604 12.67 1.47m-17.586-18 .016.04c-15.843 12-26.116-2.746-26.116-2.746v-.094c1.896-.05 11.686.017 11.686.017s4.827 6.857 14.414 2.783m-24.21 21.193L224.08 153s-12.224 7.113-24.944 1.256c11.054-2.666 12.324-6.98 12.324-6.98m-21.31-98.729-9.13 11.46-.18-.01.73-11.834-4.524 1.72-.026-.073 2.883-9.81.02.007 5.96.076L184 48.007l5.96.39z"/><path fill="#fff2b2" d="M181.333 35.143 179.903 40l-2.883 9.81.026.073-3.32 1.26 5.254-17.413zm13.1 12.394L180.55 64.71l.29-4.713.18.01 9.13-11.46 1.93-2.424zm-37.65 21.333.013.197a8.707 8.707 0 0 1-9.503-8.67q.002-1.087.253-2.097z"/><path fill="#fffaf0" d="m154.606 51.7.017.103a8.68 8.68 0 0 0-5.983 3.947c-1.487.353-3.057-.13-4.407-.847-2.81-1.49-4.95-3.906-6.613-6.653l.076-.047a8.71 8.71 0 0 1 8.227-5.843 8.703 8.703 0 0 1 8.703 8.703q0 .322-.02.637m-1.86-2.517c1.097-3.14-1.023-5.243-3.203-5.596a4 4 0 0 0-4.59 3.306c-.353 2.18.653 5.114 5.203 4.8l-1.253-4.156z"/><path fill="#fffaf0" d="M148.64 55.75a8.68 8.68 0 0 1 7.36-4.057 8.704 8.704 0 0 1 8.706 8.704c0 4.54-3.473 8.27-7.91 8.67l-.013-.197-9.237-10.57a8.6 8.6 0 0 1 1.094-2.55m14.183 2.767c1.1-3.14-1.02-5.244-3.2-5.597a4 4 0 0 0-4.59 3.307c-.353 2.18.653 5.113 5.203 4.8l-1.256-4.157z"/><path fill="#fffaf0" d="M147.546 58.3a8.7 8.7 0 0 0-.253 2.097 8.707 8.707 0 0 0 17.413 0 8.703 8.703 0 0 0-10.083-8.594l-.017-.103q.02-.316.02-.637a8.703 8.703 0 0 0-8.703-8.703 8.71 8.71 0 0 0-8.227 5.843l-.076.047c1.663 2.747 3.803 5.163 6.613 6.653 1.35.717 2.92 1.2 4.407.847a8.6 8.6 0 0 0-1.094 2.55m-18.29-10.093c-1.46-3.677-.58-6.687.41-7.6.52-.48 1.214-.787 1.92-.777 1.974.023 3.07 2.22 3.834 4.04l10.686-7.773c1.94-.434 3.96-.6 5.917-.264 1.957.337 3.853 1.207 5.237 2.63.95.977 1.663 2.21 2.796 2.964.377.25.8.443 1.25.473.937.063 1.817-.64 2.144-1.523.323-.88.166-1.884-.237-2.734a6 6 0 0 0-.593-.983l.08-.06c.613.813 1.373 1.767 2.173 2.347.373.27.797.476 1.243.51.937.066 1.814-.694 2.137-1.647s.167-2.04-.237-2.96a5 5 0 0 0-.146-.307l.053-.026c.61.813.997 1.55 1.8 2.13.373.27.797.48 1.243.51.934.066 1.81-.694 2.134-1.647.15-.44.18-.86.126-1.27l.344-.037 5.41-.473-5.254 17.413 3.32-1.26 4.524-1.72-.73 11.834-.29 4.713 13.883-17.173s1.947 14.503-.237 23.763c-2.59 10.98-4.706 16.077-4.706 16.077h-8.037c-4.54 0-10.08-.704-15.57 5.963-.49.597-1.237 1.497-2.183 2.637l-.014-.01h-4.353v-.117l.237-8.707-7.404 1.24-.01-.063-.586-5.883-22.707 8.47-.26.04c-.577-.277-1.057-.477-1.317-.514-.16-.023-.3-.023-.43-.003a.2.2 0 0 0-.063.01l-.013-.09c-.52-2.683-2.554-5.02-5.14-5.903-.327-.114-.667-.204-1.014-.197-.143 0-.283.023-.423.057l-.047-.144c-.32-1.096-.74-2.28-1.156-3.36l.333-.13 5.06-11.646-4.237-2h-.026l.733-4.12-7.06 1.766V59.67c4.82-4.09 10.067-7.78 15.233-11.377z"/><path fill="#0185ff" d="m159.57 87.143-.237 8.707v.117H136.51l-.17.176a26.6 26.6 0 0 0-3.477-2.78 39 39 0 0 0-2.17-1.303l.053-.093 21.42-3.584z"/><path fill="#0185ff" d="m152.156 88.32.01.063-21.42 3.584-.053.093c-.703-.4-1.453-.803-2.09-1.114l.26-.04 22.707-8.47zm-27.763-19.293-5.06 11.646-.333.13c-.3-.776-.6-1.503-.864-2.103l-.27-.613h.29l1.974-11.064h.026z"/><path fill="#0185ff" d="m120.863 62.907-.733 4.116-1.974 11.06h-.29c-.64-1.426-1.353-2.846-2.486-3.91a5.5 5.5 0 0 0-1.7-1.086l.123-.297v-8.117zm23.687-43.764.066.08a121 121 0 0 0-4.576 3.977l-.197-.213s-1.41-1.57-7.843-9.727c-6.43-8.157-18.197-6.9-18.197 7.687V59.67c-2.357 1.993-4.613 4.09-6.71 6.317l-.19-.177c.157-.783 0-23.06 0-45.49s21.02-22.117 27.293-14.277c6.274 7.844 10.354 13.1 10.354 13.1m38.396 85.704c7.674 9.59 20.72 25.906 23.72 29.67 4.314 5.41 1.884 9.02-4.783 9.02h-22.277v-7.844h18.984l-19.43-23.69-.1.08s-9.02 16.237-16.314 23.53v.1c-8.826.327-12.473 4.87-14.166 6.907q-.867 1.045-1.727 2.09H134.98v-.233c.313-.47 24.786-30.59 24.786-30.59l-2.746-4.547 6.353-1.177s6.723-8.936 9.373-12.196c4.587-5.647 7.647-8.51 16.587-8.51v-.08h.157s-.864 7.14-6.197 17.256z"/><path stroke="#002140" stroke-linecap="round" stroke-linejoin="round" d="M129.036 48.293c-5.166 3.597-10.413 7.287-15.233 11.377-2.357 1.993-4.613 4.09-6.71 6.317-2.523 2.683-4.813 5.56-6.767 8.693q-.62.99-1.19 2.017c-2.59 4.656-4.29 9.77-5.1 15.03-1.576 10.25.224 21.046 5.39 30.053l-5.376 1.017-34.127 6.463m79.07-68.013c-4.013-3.594-7.607-7.924-9.66-12.85a5 5 0 0 1-.077-.19c-1.46-3.677-.58-6.687.41-7.6.52-.48 1.214-.787 1.92-.777 1.974.023 3.07 2.22 3.834 4.04.626 1.493 1.35 2.98 2.2 4.38 1.663 2.746 3.803 5.163 6.613 6.653 1.35.717 2.92 1.2 4.407.847l.023-.007m-41.76 10.067c.157-.783 0-23.06 0-45.49s21.02-22.117 27.293-14.277c6.274 7.844 10.354 13.1 10.354 13.1"/><path stroke="#002140" stroke-linecap="round" stroke-linejoin="round" d="M139.843 22.987s-1.41-1.57-7.843-9.727c-6.43-8.157-18.197-6.9-18.197 7.687V72.79m38.22-36.957c1.957.337 3.853 1.207 5.237 2.63.95.977 1.663 2.21 2.796 2.964.377.25.8.443 1.25.473.937.063 1.817-.64 2.144-1.523.323-.88.166-1.884-.237-2.734a6 6 0 0 0-.593-.983c-.324-.45-.697-.87-1.077-1.277-1.02-1.1-2.12-2.163-3.45-2.86-1.333-.693-2.937-.983-4.353-.48"/><path stroke="#002140" stroke-linecap="round" stroke-linejoin="round" d="M152.023 35.833c-1.957-.336-3.977-.17-5.917.264-1.673-2.434-3.176-4.717-4.85-7.15-4.236 3.763-7.686.393-4.08-3.06a152 152 0 0 1 2.864-2.687 121 121 0 0 1 4.576-3.977c.56-.463 1.16-.96 1.817-1.493 4.233-3.45 7.293.393 3.45 3.843l5.567 5.334m7.25 9.693c.613.813 1.373 1.767 2.173 2.347.373.27.797.476 1.243.51.937.066 1.814-.694 2.137-1.647s.167-2.04-.237-2.96a5 5 0 0 0-.146-.307c-.397-.786-.95-1.473-1.514-2.133-1.02-1.19-2.113-2.343-3.44-3.093-1.323-.754-2.923-1.067-4.333-.52"/><path stroke="#002140" stroke-linecap="round" stroke-linejoin="round" d="M167.923 34.517c.61.813.997 1.55 1.8 2.13.373.27.797.48 1.243.51.934.066 1.81-.694 2.134-1.647.15-.44.18-.86.126-1.27-.056-.483-.226-.957-.443-1.45-.4-.92-1.243-1.843-1.88-2.587a29.5 29.5 0 0 0-3.137-3.186c-2.12-1.834-6.276-3.324-12.16-.11M135.42 43.87l10.686-7.773m27.464-1.894 5.41-.473-5.254 17.413 3.32-1.26 4.524-1.72-.73 11.834-.29 4.713 13.883-17.173-2.353-1.414-1.93 2.424-9.13 11.46"/><path stroke="#002140" stroke-linecap="round" stroke-linejoin="round" d="m178.98 33.73 2.353 1.413-1.43 4.857-2.883 9.81m2.903-9.803 5.96.076L184 48.007l5.96.39m-35.337 3.406q.676-.11 1.377-.11a8.704 8.704 0 0 1 8.706 8.704A8.704 8.704 0 0 1 156 69.103a8.707 8.707 0 0 1-8.707-8.706q.002-1.087.253-2.097a8.6 8.6 0 0 1 1.094-2.55 8.68 8.68 0 0 1 5.983-3.947"/><path stroke="#002140" stroke-linecap="round" stroke-linejoin="round" d="M160.236 61.027c-4.55.313-5.556-2.62-5.203-4.8a4 4 0 0 1 4.59-3.307c2.18.353 4.3 2.456 3.2 5.596l-3.843-1.646zm-22.54-12.824a8.71 8.71 0 0 1 8.227-5.843 8.703 8.703 0 0 1 8.703 8.703q0 .322-.02.637"/><path stroke="#002140" stroke-linecap="round" stroke-linejoin="round" d="M150.156 51.693c-4.55.314-5.556-2.62-5.203-4.8a4 4 0 0 1 4.59-3.306c2.18.353 4.3 2.456 3.203 5.596l-3.843-1.647zm-2.626 6.587.016.02 9.237 10.57m3.983-19.013a12.4 12.4 0 0 1 4.334-2.45c.806-.26 1.853-.347 2.666-.107 1.13.337 1.89 1.18 2.037 2.353s-.403 2.557-1.043 3.55c-.637.997-1.494 1.827-2.344 2.65M148.783 39.92a7.07 7.07 0 0 1 4.977 1.853 7.05 7.05 0 0 1 2.223 4.82m13.43 28.394-2.363-1.48"/><path stroke="#002140" stroke-linecap="round" stroke-linejoin="round" d="m125.803 64.24 1.207-2.42c.813-.627 1.66-1.27 2.66-1.513 1-.247 2.2.02 2.746.89.517.823.317 1.886.174 2.846-.144.964-.147 2.1.603 2.72.527.437 1.293.477 1.95.29.66-.183 1.247-.553 1.85-.88 1.44-.78 3.34-1.26 4.623-.243.92.727 1.207 2 1.2 3.17-.006 1.173-.246 2.343-.123 3.51.127 1.163.73 2.39 1.84 2.773 1.09.377 2.29-.176 3.177-.916.883-.74 1.57-1.877 2.563-2.46 1.333-.787 2.403-.62 3.24.173.573.543.783 1.363 1.2 2.037 1.443 2.336 3.75 1.57 4.41 1.34 1.303-.464 1.963-1.87 2.623-3.084.664-1.216 1.727-2.503 3.107-2.383.75.067 1.42.573 1.793 1.23.37.653.474 1.437.404 2.187l-1.247 2.343m-41.02-15.14 1.963 1.177m.11 28.55c-.18.806 1.887 4.94 2.437 5.906 1.543 2.713 3.66 5.29 6.577 6.39 1.116.423 2.513.577 3.276-.59.17-.26.274-.553.317-.857m0 0q.03-.2.027-.4c-.027-1.25-.784-2.236-1.574-3.123a25 25 0 0 0-1.576-1.62 26.6 26.6 0 0 0-3.477-2.78 39 39 0 0 0-2.17-1.303c-.703-.4-1.453-.803-2.09-1.114-.577-.276-1.057-.476-1.317-.513-.16-.023-.3-.023-.43-.003a.2.2 0 0 0-.063.01c-.627.11-.97.647-1.403 1.243-.934 1.28-1.65 2.71-2.194 4.2-.19.517-.36 1.044-.51 1.57-.63 2.207-.946 4.487-1.193 6.773-.103.937.41 1.84 1.277 2.217a15.55 15.55 0 0 0 9.96.807c2.38-.6 4.666-1.957 6.093-3.95.39-.544.61-1.29.64-2.014m0 0c.02-.363-.01-.723-.09-1.046"/><path stroke="#002140" stroke-linecap="round" stroke-linejoin="round" d="M126.78 90.35c-.52-2.683-2.554-5.02-5.14-5.903-.327-.114-.667-.204-1.014-.197a2 2 0 0 0-.423.056c-.23.054-.453.137-.673.23q-.245.105-.484.224a9.62 9.62 0 0 0-4.376 4.386 9.5 9.5 0 0 0-.93 3.497 9.5 9.5 0 0 0 .3 3.17l.096.007c2.944.193 5.9.183 8.84-.02m-13.46-21.93q-.055.075-.1.15c-.36.593-.396 1.33-.306 2.02.276 2.107 1.64 3.96 3.346 5.23s4.49 2.743 6.524 3.363m1.176-.47c-.32-1.096-.74-2.28-1.156-3.36-.3-.776-.6-1.503-.864-2.103l-.27-.613c-.64-1.43-1.353-2.85-2.486-3.914a5.5 5.5 0 0 0-1.7-1.086c-1.044-.42-2.2-.487-3.2.003a2.6 2.6 0 0 0-.96.777"/><path stroke="#002140" stroke-linecap="round" stroke-linejoin="round" d="m109.57 73.81-.05.057q-.005.002-.004.003c-5.753 6.34-6.283 13.71-4.89 20.253.047.21.394 1.414 2.04 1.254 1.647-.157 4.707-1.254 6.904-2.744"/><path stroke="#002140" stroke-linecap="round" stroke-linejoin="round" d="m100.363 74.56-.037.12c-2.936 9.62-2.926 20.116.027 29.73l6.783-.013m7.017-8.597s-.013.013-.017.02c-2.636 3.043-4.616 5.33-7 8.577l-1.63 10.313c5.557 9.507 15.344 16.437 26.157 18.52"/><path stroke="#002140" stroke-linecap="round" stroke-linejoin="round" d="M113.333 106.007a1.764 1.764 0 1 1-1.763-1.767c.976 0 1.763.79 1.763 1.767m4.237-5.217a1.765 1.765 0 0 1-3.53 0 1.764 1.764 0 0 1 3.53 0m-23.373-8.94-.16-.123c-1.634-1.25-15.454-11.82-19.214-14.624-4-2.98-7.843-.783-10.666 3.687s-11.45 18.353-11.45 18.353"/><path stroke="#002140" stroke-linecap="round" stroke-linejoin="round" d="M94.04 122.75c-8.314-6.587-24.157-28.94-24.157-28.94l-7.216 10.667m-44.704 21.35c.637 1.713 1.72 1.793 3.294 1.71 2.98-.16 3.683.546 3.683 2.116s-.94 2.587-3.057 2.51c-1.87-.07-3.616.474-4 2.974q-.08.499-.08 1.103c0 3.453.314 5.413 4.237 5.413 2.177 0 13.55.654 23.233 1.234 3.8.226 7.34.443 9.96.606 2.724.167 4.454.277 4.454.277v-20.627l-4.264 1.027-2.193.527-8.263 1.986-8.104 1.95s-2.136-2.243-4.133-5.646c-1.81-3.084-3.507-7.117-3.397-11.294.237-8.786 1.884-11.06 2.747-14.04.86-2.98-2.903-4.55-6.197-1.176s-8.626 12-8.626 22.116c0 3.74.226 5.944.706 7.23"/><path stroke="#002140" stroke-linecap="round" stroke-linejoin="round" d="M63.243 112.54c1.393-1.654 2.64-3.13 3.503-4.143a37.6 37.6 0 0 0-4.253-3.69c-3.733-2.777-7.327-4.367-9.897-5.25-2.323-.797-3.813-1.02-3.813-1.02l-1.6 3.593-4.757 10.673-3.916 8.793-5.647 1.41m20.314 1.571 3.24-3.847c1.996-2.37 4.59-5.447 6.813-8.077M18.04 125.81s-.027 0-.077.013c-.81.15-7.893 1.447-12.473 2.26-4.863.863-5.41 6.197 2.353 6.51 6.974.28 9.584.5 10.04.543a.3.3 0 0 1 .077.007"/><path stroke="#002140" stroke-linecap="round" stroke-linejoin="round" d="M47.217 102.043c-.254.917-.437 2.064-.38 3.014.056.946.456 1.92 1.24 2.45.963.65 2.05.31 3.06-.26 1.013-.567 1.773-1.484 2.51-2.377a7.06 7.06 0 0 0-1.06 3.527c-.02.803.13 1.87.826 2.276.814.474 2.13.037 2.894-.513a13.6 13.6 0 0 0 2.38-2.203c-.617 1.363-1.36 3.21-.804 4.596.41 1.027 1.25 1.567 2.353 1.57.894.004 1.984-.563 2.994-1.57a9 9 0 0 0 .693-.783m-7.61 9.02q.055-.08.103-.16c.46-.763.56-1.72.517-2.44-.05-.77-.386-1.56-1.05-1.99-.81-.527-1.727-.253-2.58.21-.853.46-1.386 1.38-2.01 2.107.557-.857.757-2.03.784-3.04.016-.654-.107-1.517-.694-1.847-.69-.387-1.8-.03-2.443.417a11.2 11.2 0 0 0-2.01 1.786c.52-1.103 1.147-2.603.677-3.73-.344-.833-1.054-1.273-1.984-1.273-.933 0-2.12.7-3.113 1.91m12.923 11.477c-.917.236-2.003.65-2.797 1.17-.796.52-1.443 1.346-1.516 2.286-.09 1.15.74 1.92 1.733 2.507s2.163.79 3.303.98a7.07 7.07 0 0 0-3.583.84c-.71.383-1.56 1.04-1.57 1.84-.01.94 1.017 1.853 1.874 2.24.986.44 2.023.76 3.086.953-1.486.147-3.456.427-4.386 1.594-.687.863-.744 1.853-.2 2.806.543.95 1.986 1.734 3.86 2.004m-10.094-.517q.066-.014.13-.033c.72-.187 1.543-.504 2.15-.904.643-.423 1.16-1.11 1.203-1.9.057-.966-.64-1.623-1.463-2.136-.826-.51-1.886-.517-2.826-.694 1.02.057 2.136-.353 3.026-.83.574-.31 1.264-.85 1.257-1.523-.007-.787-.867-1.577-1.577-1.913a11.2 11.2 0 0 0-2.55-.854c1.217-.1 2.83-.3 3.577-1.266.55-.714.58-1.547.117-2.357-.46-.81-1.66-1.49-3.204-1.75m14.704 14.11h66.116m68.63-93.333s1.947 14.503-.237 23.763c-2.59 10.98-4.706 16.077-4.706 16.077h-8.037c-4.54 0-10.08-.704-15.57 5.963-.49.597-1.237 1.497-2.183 2.637-6.327 7.61-21.717 26.02-31.617 37.843-2.42 2.89-4.51 5.383-6.063 7.233a363 363 0 0 1-2.884 3.424m43.92 3.903c-2.976 3.65-8.29 10.12-9.576 11.593-.63.72-1.397 1.357-2.307 1.647s-2.013.137-2.643-.58a2.15 2.15 0 0 1-.507-1.2 3.1 3.1 0 0 1 .157-1.37c.293-.857.876-1.577 1.45-2.277a737 737 0 0 1 9.233-11.086m10.237-9.651v-3.883a3.252 3.252 0 1 1 6.506 0v16.393a3.253 3.253 0 1 1-6.506 0v-2c-1.32.01-2.69-.096-3.857.514-.69.356-1.323.84-1.813 1.44-.12.15-.247.3-.374.46"/><path stroke="#002140" stroke-linecap="round" stroke-linejoin="round" d="M151.923 159.85c-.42.33-.673.417-1.18.58-.91.29-2.013.137-2.643-.58-.36-.407-.52-.943-.527-1.493a3.1 3.1 0 0 1 .177-1.077c.293-.857.876-1.577 1.45-2.28q4.562-5.586 9.233-11.087"/><path stroke="#002140" stroke-linecap="round" stroke-linejoin="round" d="M147.45 158.36c-.384.283-.644.513-1.1.656-.91.29-2.014.137-2.644-.579-.596-.68-.643-1.714-.35-2.567.294-.857.877-1.58 1.45-2.28l.49-.597a755 755 0 0 1 8.744-10.49"/><path stroke="#002140" stroke-linecap="round" stroke-linejoin="round" d="M145.256 152.96c-.65-.01-1.283-.237-1.706-.72-.597-.68-.644-1.71-.35-2.567.293-.856.876-1.58 1.45-2.28q1.099-1.344 2.203-2.683.86-1.045 1.727-2.09c1.693-2.037 5.34-6.58 14.17-6.907q.496-.02 1.016-.02l9.334-.08m4.156-37.883 5.69 7.117c7.674 9.59 20.72 25.906 23.72 29.67 4.314 5.41 1.884 9.02-4.783 9.02h-22.197"/><path stroke="#002140" stroke-linecap="round" stroke-linejoin="round" d="m174.98 106.907 4.18 5.096 19.43 23.69h-18.824m9.724-48.316s-.864 7.14-6.197 17.256"/><path stroke="#002140" stroke-linecap="round" stroke-linejoin="round" d="M179.06 112.083s-9.02 16.237-16.314 23.53m-39.61 9.097h23.767m-11.923-.234c.313-.47 24.786-30.589 24.786-30.589l-2.746-4.547 6.353-1.177s6.723-8.936 9.373-12.196c4.587-5.647 7.647-8.51 16.587-8.51m-71.177-9.374 1.974-11.06.733-4.116-7.06 1.766m6.353 2.354 4.237 2-5.06 11.646m11.413 11.294 21.42-3.584 7.404-1.24-.237 8.707m4.353.117H136.51m-7.647-5.06 22.707-8.47.586 5.883m-14.823 70.98c-8.863-2.667-9.883-6.98-9.883-6.98l-10.117 5.723s9.8 7.113 20 1.257"/><path stroke="#002140" stroke-linecap="round" stroke-linejoin="round" d="m117.333 158.043.08 3.53s8.077 6.354 19.687 1.1l.233-3.373m61.803-5.044c11.054-2.666 12.324-6.98 12.324-6.98L224.08 153s-12.224 7.113-24.944 1.256"/><path stroke="#002140" stroke-linecap="round" stroke-linejoin="round" d="m224.08 153-.1 3.53s-10.074 6.353-24.55 1.096l-.294-3.37m46.51-3.976c2.98-.077 7.454-2.273 7.454-2.273s.143-1.937.153-3.684q.004-.12.003-.24c-6.116.134-11.31-1.11-12.67-1.47-.23-.06-.35-.096-.35-.096L240 146.83s1.57 2.43 5.646 3.45"/><path stroke="#002140" stroke-linecap="round" stroke-linejoin="round" d="M253.02 144.32s-3.53 2.43-7.06 2.9c-3.45-1.017-5.41-4.47-5.41-4.47m5.096 7.53.314-3.06m-10.29-21.137.096-.04 1.88 2.59c-17.02 12.314-28.47-1.02-28.47-1.02l.08-4.313c.027-.007.134-.013.31-.017 1.9-.05 11.69.017 11.69.017s4.827 6.857 14.414 2.783"/><path stroke="#002140" stroke-linecap="round" stroke-linejoin="round" d="M209.57 123.377s10.273 14.746 26.116 2.746"/></g><defs><clipPath id="a"><path fill="#fff" d="M.5.5h254v165H.5z"/></clipPath></defs></svg>