<svg xmlns="http://www.w3.org/2000/svg" xmlns:xlink="http://www.w3.org/1999/xlink" xml:space="preserve" id="Layer_1" x="0" y="0" style="enable-background:new 0 0 165 169" viewBox="0 0 165 169"><style>.st1{fill:#8dc8ff}.st2{fill:#4ed7de}.st3{fill:#4ba6a6}.st4{fill:#fffaf0}.st5{fill:#ff7101}.st6{fill:#e96df2}.st7{fill:#28736d}.st8{fill:#e4bc07}.st9{fill:#002140}.st10,.st11,.st12{fill:none;stroke:#fffaf0;stroke-width:3.3333;stroke-linecap:round;stroke-linejoin:round}.st11,.st12{stroke:#002140;stroke-width:1}.st12{stroke-width:4.3333}.st13{fill:#fff;filter:url(#Adobe_OpacityMaskFilter)}.st14{mask:url(#path-1-inside-1_1563_13286_00000174583492016717537580000008885843371402182331_);fill:#002140}</style><defs><path id="SVGID_1_" d="M0 0h165v169H0z"/></defs><clipPath id="SVGID_00000148632024359265129290000016118982274481208493_"><use xlink:href="#SVGID_1_" style="overflow:visible"/></clipPath><g style="clip-path:url(#SVGID_00000148632024359265129290000016118982274481208493_)"><path d="M45.447 100.658c21.647 0 39.196-17.549 39.196-39.196S67.094 22.265 45.447 22.265 6.25 39.814 6.25 61.461s17.549 39.197 39.197 39.197" class="st1"/><path d="M48.16 92.695c16.981 0 30.746-13.766 30.746-30.746 0-16.981-13.766-30.746-30.746-30.746-16.981 0-30.746 13.766-30.746 30.746S31.179 92.695 48.16 92.695" class="st2"/><path d="M36.347 46.355H48.29s.553-1.55-1.437-1.99c-1.99-.443-10.177.22-10.177.22l-.333 1.77zm14.266-1.77-.443 1.327-.443.663h12.056l-1.217-2.653zm-3.65 5.75H37.12s2.323 2.877 5.197 2.877 5.196-1.88 4.646-2.877m3.76 0s2.323 3.097 4.533 3.097 5.31-2.323 5.197-3.097H50.72z" class="st3"/><path d="m36.346 46.908.883 2.947 10.323.15v-3.467zm24.184 3.097v-3.393l-10.803-.037s.257 2.803.627 3.28l10.177.147v.003z" class="st4"/><path d="M19.647 24.565h53.53s-1.217-2.323-3.87-2.433-9.4 0-10.286-.553c-.883-.553-2.213-2.987-2.213-5.64S60.9 2.335 45.083 2.005c-12.496-.22-13.713 6.303-13.273 9.4s.553 9.953-2.653 10.617c-3.207.663-9.07.443-9.51 2.543" class="st5"/><path d="M31.923 14.612s.11 5.273-1.327 6.34h26.986l-1.033-6.563-24.626.22z" class="st6"/><path d="M49.506 105.524v-5.086s-9.51.22-11.943-.664v5.42l11.943.334zm-7.556 16.517 1.033 1.327s4.497.663 5.9-1.917.443-8.407.443-8.407l-7.373 8.997z" class="st7"/><path d="M43.977 123.774s1.55 3.98 8.847 3.207c0 0 .997-7.19-3.207-7.63 0 0 0 3.65-5.64 4.423" class="st1"/><path d="M84.493 140.324s-1.18-.59-1.917.59-.293 1.99.293 1.99c.587 0 1.033-.074 1.327-.664.293-.59.293-1.916.293-1.916zm-.737-7.003s2.727 6.71 3.98 7.226l1.18-1.473s6.857 5.013 11.503 4.35c4.647-.663 4.35-3.393 4.35-3.393s2.95-1.844 1.624-4.497c0 0 1.916-2.137.883-4.203 0 0 1.843-3.024.073-4.204s-5.75-.736-6.856-.81c-1.107-.073-6.637 2.36-6.93-7.666 0 0-1.327.443-3.097 2.803s-6.71 11.87-6.71 11.87z" class="st2"/><path d="M93.562 118.648v-31.78s7.816-6.563 14.229-6.34c6.414.223 12.937 2.007 17.364 3.43 4.426 1.423 23.556 10.95 33.363 11.943 1.696 6.857-9.917 76.756-1.4 112.919-1.77-.11-26.987-16.59-60.396-20.707-.787-1.063-3.67-4.876-3.673-5.429l-.15-41.253s9.587 5.16 11.87-1.4c0 0 2.58-1.107 1.623-4.497 0 0 1.4-2.063.884-4.203 0 0 1.99-2.877.073-4.204s-5.9-.883-5.9-.883-7.41.517-7.666-3.687c-.073-1.769-.22-3.906-.22-3.906z" class="st4"/><path d="m116.863 81.745 7.519 1.88s27.687 12.607 34.137 12.277c-.627-6.637-10.047-10.25-10.047-10.25s-21.55-8.44-23.856-19.56c-3.444.173-9.307 7.36-7.757 15.657z" class="st8"/><path d="M132.456 65.598s-2.877.663-2.877 8.183c0 0 4.093 4.647 8.517 6.747s19.466 8.737 20.349 13.713c0 0 .11-7.52-6.303-10.95s-17.586-9.4-19.686-17.696z" class="st4"/><path d="M11.793 216.673s21.237 5.894 41.09 4.937l2.657-4.14 3.48 3.96s16.59-.443 19.023-4.093c0 0-8.517-11.504-10.727-20.57s-5.197-15.373-5.197-15.373 6.857.333 9.29-3.43c0 0-9.623-7.63-9.843-19.243 0 0 3.54 3.316 10.287 1.879s17.807-11.723 19.907-19.243l-2.84-2.286-1.18 1.473s-3.797-4.757-3.98-7.227c0 0-8.73 14.45-15.89 14.784 0 0-6.987-1.584-7.3-7.41s-.997-17.253-.997-17.253-3.907 3.096-6.527 3.54c-2.617.443-7.263.846-11.097-4.94l12.757-15.52s-9.843-3.317-20.903-.11l-.883 16.7-1.107 3.206s-2.877-1.216-4.093 1.66-1.66 6.413-1.66 6.413.25.98 1.327 1.99l1.077 1.01-.303 1.094s-10.177 34.949-14.71 40.256c0 0 12.72 3.317 15.816 3.317 0 0-6.303 21.899-17.473 34.616z" class="st5"/><path d="m33.47 122.114.333-15.706s12.387-2.877 20.903.11l-12.757 15.52s-7.04-1.807-9.033.183m1.661 4.87-4.647-.883s-1.84.61-2.213 1.77-1.66 6.413-1.66 6.413l1.327 1.99 2.323 1.66.443 1.66 4.867.883s.27-1.803-1.55-2.653-2.877-1.217-2.213-3.76 1.88-5.863 1.88-5.863l1.437-1.217zm16.256 27.65s.22-2.544 2.653-2.434 4.8 1.437 5.42 1.55c.62.114 3.097-.663 4.533 0 1.437.664 2.877 3.097 2.763 4.647 0 0-7.52 2.433-15.373-3.76z" class="st8"/><path d="M74.06 159.717s-.22-2.543-2.543-2.763c0 0-2.877 1.327-4.093 1.437s-5.863.333-5.863.333 3.317 2.213 6.413 2.323 6.083-1.327 6.083-1.327zm9.179-16.96c.692 0 1.253-.577 1.253-1.29 0-.712-.561-1.29-1.253-1.29s-1.253.578-1.253 1.29.561 1.29 1.253 1.29M58.207 163.11c.712 0 1.29-.694 1.29-1.55s-.578-1.55-1.29-1.55-1.29.694-1.29 1.55.577 1.55 1.29 1.55m.187 8.33c.712 0 1.29-.694 1.29-1.55s-.578-1.55-1.29-1.55-1.29.694-1.29 1.55.577 1.55 1.29 1.55m-16.077 4.534s2.1-.11 2.543-1.99 2.543-13.824-1.437-13.937-14.046.443-14.046.443-1.327-.663-2.213 2.434c-.887 3.096-2.1 10.84-2.1 10.84s-.11 1.55 1.107 1.77 13.823.773 16.147.443z" class="st8"/><path d="M32.88 168.787s-.293 2.137 1.917 2.137 2.213-2.137 2.213-2.137z" class="st5"/><path d="M49.84 31.535s25.66 4.203 25.436 30.746c0 0 .443 26.323-27.43 29.973 0 0 15.593 1.327 25.66-13.05 3.317-5.42 6.303-15.153 4.977-22.23-1.327-7.077-6.303-16.146-14.71-21.346-6.083-3.98-13.16-4.203-13.937-4.093zm3.207 95.446 1.327-.333.443.883 4.757-4.093-.663-1.217-4.093-3.207L63 107.291l-8.96.11-3.87 4.977-.443 6.526s4.423 1.55 3.317 8.074z" class="st9"/><path d="M26.17 48.198s-8.647 12.167.543 28.093m3.55 4.31s1.99 2.1 3.43 2.877" class="st10"/><path d="M58.25 24.622c15.137 5.393 25.97 19.85 25.97 36.836 0 21.59-17.503 39.093-39.093 39.093S6.034 83.048 6.034 61.458c0-16.867 10.683-31.24 25.653-36.72" class="st11"/><path d="M48.083 92.524c16.926 0 30.646-13.721 30.646-30.646s-13.72-30.646-30.646-30.646-30.646 13.721-30.646 30.646 13.721 30.646 30.646 30.646" class="st11"/><path d="M46.736 31.292c16.007 1.017 28.676 14.32 28.676 30.586S62.976 91.201 47.18 92.431l-.807.043" class="st11"/><path d="M47.863 95.811c18.741 0 33.933-15.192 33.933-33.933S66.604 27.945 47.863 27.945 13.93 43.138 13.93 61.878s15.192 33.933 33.933 33.933" class="st11"/><path d="M31.48 52.878s4.977.22 4.977 3.76-3.65 4.647-5.42 4.533m37.16-.763s-4.977-.22-4.977-3.76 3.65-4.647 5.42-4.533m-32.183 4.526S51.72 54.428 63 57.194" class="st11"/><path d="M35.684 42.815H62.67" class="st12"/><path d="M42.246 53.198a5.983 5.983 0 1 0 0-11.967 5.983 5.983 0 0 0 0 11.967m-5.236-3.046h10.286m-10.509-3.65h10.95" class="st11"/><path d="M42.723 46.168q-.295.336-.49.743l1.743 1.25-1.63 1.7q.115.196.25.377l4.793.303c.58-.58.937-1.38.937-2.263 0-.73-.247-1.407-.657-1.943" class="st9"/><path d="M55.703 53.198a5.983 5.983 0 1 0 0-11.966 5.983 5.983 0 0 0 0 11.966m-5.236-3.046H60.75m-10.507-3.65h10.95" class="st11"/><path d="M56.18 46.168q-.295.336-.49.743l1.743 1.25-1.63 1.7q.115.196.25.377l4.793.303c.58-.58.937-1.38.937-2.263 0-.73-.247-1.407-.657-1.943" class="st9"/><path d="M73.026 24.565c0-3.687-12.446-1.827-14.316-3.123l-.047-.033c-2.7-2.227-1.6-8.44-1.6-10.493 0-8.17-7.967-8.847-12.63-8.847s-12.663.83-12.663 8.997c0 2.053 1.1 8.267-1.6 10.493q-.023.019-.047.033c-1.863 1.293-10.43.483-10.43 3.083 2.1 0 52.773-.11 53.326-.11zM30.87 21.029h27.263m-25.88-6.527H56.64M37.82 99.921v5.383m11.723-4.793v5.013m11.164 42.913-.84-25.293-5.013-3.98 8.407-11.796s-6.637-.294-9.29.073" class="st11"/><path d="m54.957 145.671-.25-19.28s-1.473 1.033-4.277 1.033-7.076-2.95-8.406-5.31l12.757-15.78s-13.42-2.58-21.087 0l-.7 15.767" class="st11"/><path d="M59.867 123.148s-4.57 4.203-5.013 5.16m-5.188-15.65c.53 10.173-1.46 10.766-6.437 10.853" class="st11"/><path d="M49.7 118.991c4.59 1.383 3.29 8.1 3.29 8.1m-11.337 3.207s10.617 18.469 21.566 18.469c18.47 0 24.773-28.533 30.303-30.413" class="st11"/><path d="M38.557 140.364s9.18 18.58 24.663 18.36 23.28-16.416 25.63-19.543" class="st11"/><path d="M84.343 142.057c.448-.776.383-1.653-.147-1.959-.529-.306-1.322.076-1.77.852-.448.777-.383 1.654.147 1.96.529.305 1.322-.076 1.77-.853m-.37-9.02s1.553 5.74 3.69 7.507m-27.06 2.437s2.387 4.906 8.05 4.906m-7.386 11.094c11.06 7.3 25.733-5.824 30.746-17.77m1.696-20.423V86.945" class="st11"/><path d="M88.853 139.177s5.08 3.95 9.577 4.17 6.266-1.473 6.34-3.76" class="st11"/><path d="M98.353 139.661s3.503 1.18 6.6-.22c2.1-.92 1.917-3.243 1.587-3.76m-7.561.22s3.504 1.18 6.6-.22c2.1-.92 1.917-3.244 1.587-3.76m-7.227-.184s3.504 1.18 6.6-.22c1.53-.693 1.944-2.443 1.217-3.903-.58-1.167-2.12-1.227-3.257-1.24-1.323-.017-2.646.103-3.97.117-2.483.026-5.436-.314-6.433-2.98-.323-.863-.407-1.807-.387-2.723" class="st11"/><path d="M96.723 188.114c34.329 4.156 58.626 20.043 60.396 20.706-8.407-44.02 2.213-97.989 1.4-112.919-18.433-1.437-48.293-26.433-64.663-9.18" class="st11"/><path d="M158.519 95.901c-.737-11.833-30.82-13.383-33.697-30.413-5.086 1.99-7.833 7.25-8.173 16.177" class="st11"/><path d="m97.469 92.548.257 21.823 48.666 13.05.22-23.223zm.58 26.869-.063 5.204 47.556 12.83v-5.384zm8.87 15.194 38.773 10.46v-5.384l-37.533-9.996s-1.323 1.16-1.063 2.01m-8.763 11.646-.053 4.13 47.56 12.83v-5.383l-44.58-11.873m-3.347 14.896v-3.17l47.483 13.05v3.32zm0 6.514v-3.17l47.483 13.05v3.316z" class="st9"/><path d="M28.653 43.205s3.383-3.503 4.77-4.17" class="st10"/><path d="M129.639 73.998c-.117-1.71-.193-6.86 2.926-8.513 4.867 17.033 26.69 12.83 25.954 30.413M96.733 188.03l-3.687-5.899v-40.257m-64.583-4.483c-4.783 14.983-11.867 36.326-15.013 41.569 0 0 19.243 6.637 42.136 1.327 0 0 9.623 4.313 15.927-2.324 0 0-9.217-6.449-10.25-18.986m-19.24-36.863s-4.903-1.99-8.773 0c0 0-.493 1.614-1.327 4.304" class="st11"/><path d="M55.59 180.287s.59-17.623-.883-23.373M32.99 122.101s8 .527 11.833 9.08c1.537.29 7.02 1.333 7.02 1.333l-1.987 4.75 4.7 7.117m.37.296 5.33-9.81-2.793-3.416 2.107-8.01m-8.46 30.956c-.037-1.096 1.037-1.976 2.127-2.113s2.163.28 3.167.727c1.003.446 2.027.933 3.123.953.94.017 1.863-.313 2.803-.3 1.103.017 2.193.537 2.897 1.39s1.013 2.017.82 3.107m5.61-1.297a4.05 4.05 0 0 1 2.587 2.843m-16.147 3.55c.773 0 1.4-.776 1.4-1.733s-.627-1.733-1.4-1.733-1.4.776-1.4 1.733.626 1.733 1.4 1.733m.663 8.293c.773 0 1.4-.776 1.4-1.733s-.627-1.733-1.4-1.733-1.4.776-1.4 1.733.627 1.733 1.4 1.733m-31.24-9.849c-.423 2.476-1.503 8.463-2.61 11.919-.27.844.313 1.72 1.193 1.807 3.65.37 12.04 1.06 17.46.273a1.4 1.4 0 0 0 1.19-1.196c.317-2.364 1.003-8.38.533-13.203a1.4 1.4 0 0 0-1.443-1.27l-14.99.51a1.395 1.395 0 0 0-1.33 1.16z" class="st11"/><path d="m27.52 161.701 3.107 5.723a2.47 2.47 0 0 0 2.19 1.293l5.353-.033a2.47 2.47 0 0 0 1.913-.923l5.2-6.464" class="st11"/><path d="M37.077 168.721c.043.12.077.25.09.383.123 1.06-.783 2.04-2.027 2.187-1.243.146-2.353-.597-2.477-1.66-.037-.324.02-.637.153-.92m9.484 6.823c-1.903-2.71-.11-10.39-.11-10.39m-7.267-38.077s-2.77-.493-3.497-.743-1.547-.363-2.247-.053c-1.07.476-1.507 1.736-1.833 2.863l-1.01 3.507c-.183.64-.37 1.303-.293 1.966.067.56.33 1.094.733 1.49.653.64 1.593.877 2.367 1.36.777.484 1.413 1.49.957 2.283l4.873.984c.457-.79-.18-1.8-.957-2.283-.777-.484-1.717-.72-2.367-1.36a2.55 2.55 0 0 1-.733-1.49c-.08-.664.107-1.324.293-1.967l1.01-3.507c.323-1.126.76-2.386 1.833-2.863.7-.31 1.523-.197 2.247.053.723.25 1.403.627 2.14.85m4.321 18.84s-.96 1.734-3.43 1.327m106.359 1.587-40.033-10.767" class="st11"/></g><defs><filter id="Adobe_OpacityMaskFilter" width="165" height="2" x="0" y="168" filterUnits="userSpaceOnUse"><feColorMatrix values="1 0 0 0 0 0 1 0 0 0 0 0 1 0 0 0 0 0 1 0"/></filter></defs><mask id="path-1-inside-1_1563_13286_00000174583492016717537580000008885843371402182331_" width="165" height="2" x="0" y="168" maskUnits="userSpaceOnUse"><path d="M0 0h165v169H0z" class="st13"/></mask><path d="M165 169v-1H0v2h165z" class="st14"/></svg>