<svg xmlns="http://www.w3.org/2000/svg" width="161" height="169" fill="none" viewBox="0 0 161 169"><path fill="#8dc8ff" d="M45.447 100.658c21.647 0 39.196-17.549 39.196-39.196 0-21.648-17.549-39.197-39.196-39.197-21.648 0-39.197 17.549-39.197 39.197 0 21.647 17.55 39.196 39.197 39.196"/><path fill="#4ed7de" d="M48.16 92.695c16.98 0 30.746-13.766 30.746-30.747 0-16.98-13.765-30.746-30.746-30.746S17.414 44.968 17.414 61.948 31.179 92.695 48.16 92.695"/><path fill="#4ba6a6" d="M36.347 46.355H48.29s.553-1.55-1.437-1.99c-1.99-.443-10.177.22-10.177.22l-.333 1.77zm14.266-1.77-.443 1.327-.444.663h12.057l-1.217-2.653zm-3.65 5.75H37.12s2.323 2.877 5.197 2.877 5.196-1.88 4.646-2.877m3.76 0s2.324 3.097 4.534 3.097 5.31-2.324 5.196-3.097H50.72z"/><path fill="#fffaf0" d="m36.346 46.908.884 2.947 10.323.15v-3.467zm24.184 3.097v-3.393l-10.803-.037s.256 2.803.626 3.28l10.177.147z"/><path fill="#ff7101" d="M19.647 24.565h53.53s-1.218-2.323-3.87-2.433c-2.654-.11-9.4 0-10.287-.553-.884-.554-2.214-2.987-2.214-5.64 0-2.654 4.094-13.604-11.723-13.934-12.496-.22-13.713 6.304-13.273 9.4s.553 9.954-2.653 10.617-9.07.443-9.51 2.543"/><path fill="#e96df2" d="M31.923 14.612s.11 5.273-1.326 6.34h26.986l-1.033-6.563-24.627.22z"/><path fill="#28736d" d="M49.506 105.524v-5.086s-9.51.22-11.943-.664v5.42l11.943.334zm-7.556 16.517 1.033 1.327s4.497.663 5.9-1.917.444-8.407.444-8.407l-7.374 8.997z"/><path fill="#8dc8ff" d="M43.977 123.774s1.55 3.98 8.846 3.207c0 0 .997-7.19-3.206-7.63 0 0 0 3.65-5.64 4.423"/><path fill="#4ed7de" d="M84.493 140.324s-1.18-.59-1.917.59-.293 1.99.293 1.99c.587 0 1.034-.074 1.327-.664s.293-1.916.293-1.916zm-.737-7.003s2.727 6.71 3.98 7.226l1.18-1.473s6.857 5.013 11.503 4.35c4.647-.663 4.35-3.393 4.35-3.393s2.95-1.844 1.624-4.497c0 0 1.916-2.137.883-4.203 0 0 1.843-3.024.073-4.204s-5.75-.736-6.856-.81c-1.107-.073-6.637 2.36-6.93-7.666 0 0-1.327.443-3.097 2.803s-6.71 11.87-6.71 11.87z"/><path fill="#fffaf0" d="M93.563 118.648v-31.78s7.816-6.563 14.229-6.34c6.414.223 12.937 2.007 17.364 3.43 4.426 1.423 23.556 10.95 33.363 11.943 1.696 6.857-9.917 76.756-1.4 112.919-1.77-.11-26.987-16.59-60.396-20.706-.787-1.064-3.67-4.877-3.674-5.43l-.15-41.253s9.587 5.16 11.87-1.4c0 0 2.58-1.107 1.623-4.497 0 0 1.4-2.063.884-4.203 0 0 1.99-2.877.073-4.204s-5.9-.883-5.9-.883-7.41.517-7.666-3.687c-.074-1.769-.22-3.906-.22-3.906z"/><path fill="#e4bc07" d="m116.863 81.745 7.519 1.88S152.069 96.23 158.519 95.9c-.627-6.636-10.047-10.25-10.047-10.25s-21.55-8.44-23.856-19.56c-3.444.174-9.307 7.36-7.757 15.657z"/><path fill="#fffaf0" d="M132.456 65.598s-2.877.663-2.877 8.183c0 0 4.094 4.647 8.517 6.747s19.466 8.736 20.35 13.713c0 0 .11-7.52-6.304-10.95-6.413-3.43-17.586-9.4-19.686-17.696z"/><path fill="#ff7101" d="M11.793 216.673s21.237 5.894 41.09 4.937l2.656-4.14 3.48 3.96s16.59-.443 19.024-4.093c0 0-8.517-11.504-10.727-20.57s-5.197-15.373-5.197-15.373 6.857.333 9.29-3.43c0 0-9.623-7.63-9.843-19.243 0 0 3.54 3.316 10.287 1.879 6.746-1.436 17.806-11.723 19.906-19.243l-2.84-2.286-1.18 1.473s-3.797-4.757-3.98-7.227c0 0-8.73 14.45-15.89 14.784 0 0-6.986-1.584-7.3-7.41-.313-5.827-.996-17.253-.996-17.253s-3.907 3.096-6.527 3.54c-2.616.443-7.263.846-11.096-4.94l12.756-15.52s-9.843-3.317-20.903-.11l-.883 16.7-1.107 3.206s-2.877-1.216-4.093 1.66-1.66 6.413-1.66 6.413.25.98 1.327 1.99l1.076 1.01-.303 1.094s-10.177 34.949-14.71 40.256c0 0 12.72 3.317 15.816 3.317 0 0-6.303 21.899-17.473 34.616z"/><path fill="#e4bc07" d="m33.47 122.114.334-15.706s12.386-2.877 20.903.11l-12.757 15.52s-7.04-1.807-9.033.183m1.66 4.87-4.647-.883s-1.84.61-2.213 1.77-1.66 6.413-1.66 6.413l1.327 1.99 2.323 1.66.443 1.66 4.867.883s.27-1.803-1.55-2.653-2.877-1.217-2.214-3.76c.664-2.543 1.88-5.863 1.88-5.863l1.437-1.217zm16.256 27.65s.22-2.544 2.654-2.434 4.8 1.437 5.42 1.55c.62.114 3.096-.663 4.533 0 1.436.664 2.877 3.097 2.763 4.647 0 0-7.52 2.433-15.373-3.76z"/><path fill="#e4bc07" d="M74.06 159.717s-.22-2.543-2.544-2.763c0 0-2.876 1.327-4.093 1.437s-5.863.333-5.863.333 3.316 2.213 6.413 2.323 6.083-1.327 6.083-1.327zm9.18-16.96c.692 0 1.253-.577 1.253-1.29 0-.712-.561-1.29-1.254-1.29-.692 0-1.253.578-1.253 1.29s.561 1.29 1.253 1.29M58.207 163.11c.712 0 1.29-.694 1.29-1.55s-.578-1.55-1.29-1.55-1.29.694-1.29 1.55.577 1.55 1.29 1.55m.186 8.33c.713 0 1.29-.694 1.29-1.55s-.577-1.55-1.29-1.55c-.712 0-1.29.694-1.29 1.55s.578 1.55 1.29 1.55m-16.076 4.534s2.1-.11 2.543-1.99 2.543-13.824-1.437-13.937-14.046.443-14.046.443-1.327-.663-2.214 2.434c-.886 3.096-2.1 10.84-2.1 10.84s-.11 1.55 1.107 1.77 13.823.773 16.146.443z"/><path fill="#ff7101" d="M32.88 168.787s-.293 2.137 1.917 2.137 2.213-2.137 2.213-2.137z"/><path fill="#002140" d="M49.84 31.535S75.5 35.74 75.276 62.282c0 0 .443 26.323-27.43 29.973 0 0 15.594 1.326 25.66-13.05 3.317-5.42 6.303-15.153 4.977-22.23-1.327-7.077-6.304-16.147-14.71-21.346-6.083-3.98-13.16-4.204-13.937-4.094zm3.207 95.446 1.326-.333.444.883 4.756-4.093-.663-1.217-4.093-3.207L63 107.291l-8.96.11-3.87 4.977-.444 6.526s4.424 1.55 3.317 8.074z"/><path stroke="#fffaf0" stroke-linecap="round" stroke-linejoin="round" stroke-width="3.333" d="M26.17 48.198s-8.646 12.167.543 28.093m3.55 4.31s1.99 2.1 3.43 2.877"/><path stroke="#002140" stroke-linecap="round" stroke-linejoin="round" d="M58.25 24.622c15.136 5.393 25.97 19.85 25.97 36.836 0 21.59-17.504 39.093-39.093 39.093S6.033 83.048 6.033 61.458c0-16.866 10.683-31.24 25.653-36.72"/><path stroke="#002140" stroke-linecap="round" stroke-linejoin="round" d="M48.084 92.525c16.925 0 30.646-13.721 30.646-30.647S65.009 31.232 48.083 31.232s-30.646 13.72-30.646 30.646 13.721 30.647 30.647 30.647"/><path stroke="#002140" stroke-linecap="round" stroke-linejoin="round" d="M46.736 31.292c16.007 1.017 28.677 14.32 28.677 30.586 0 16.267-12.437 29.323-28.233 30.553l-.807.044"/><path stroke="#002140" stroke-linecap="round" stroke-linejoin="round" d="M47.863 95.811c18.74 0 33.933-15.192 33.933-33.933 0-18.74-15.192-33.933-33.933-33.933-18.74 0-33.933 15.193-33.933 33.933s15.192 33.933 33.933 33.933"/><path stroke="#002140" stroke-linecap="round" stroke-linejoin="round" d="M31.48 52.878s4.977.22 4.977 3.76-3.65 4.647-5.42 4.534m37.16-.764s-4.977-.22-4.977-3.76 3.65-4.647 5.42-4.533m-32.183 4.527s15.263-2.214 26.542.553"/><path stroke="#002140" stroke-linecap="round" stroke-linejoin="round" stroke-width="4.333" d="M35.684 42.815H62.67"/><path stroke="#002140" stroke-linecap="round" stroke-linejoin="round" d="M42.246 53.198a5.983 5.983 0 1 0 0-11.966 5.983 5.983 0 0 0 0 11.966m-5.236-3.046h10.286m-10.509-3.65h10.95"/><path fill="#002140" d="M42.723 46.168q-.295.337-.49.744l1.743 1.25-1.63 1.7q.115.196.25.376l4.794.304c.58-.58.936-1.38.936-2.264 0-.73-.246-1.406-.656-1.943"/><path stroke="#002140" stroke-linecap="round" stroke-linejoin="round" d="M55.703 53.198a5.983 5.983 0 1 0 0-11.966 5.983 5.983 0 0 0 0 11.966m-5.236-3.046H60.75m-10.507-3.65h10.95"/><path fill="#002140" d="M56.18 46.168q-.295.337-.49.744l1.743 1.25-1.63 1.7q.115.196.25.376l4.794.304c.58-.58.936-1.38.936-2.264 0-.73-.246-1.406-.656-1.943"/><path stroke="#002140" stroke-linecap="round" stroke-linejoin="round" d="M73.026 24.565c0-3.687-12.446-1.827-14.316-3.123q-.024-.016-.047-.034c-2.7-2.226-1.6-8.44-1.6-10.493 0-8.17-7.966-8.846-12.63-8.846-4.663 0-12.663.83-12.663 8.996 0 2.054 1.1 8.267-1.6 10.494a.4.4 0 0 1-.047.033c-1.863 1.293-10.43.483-10.43 3.083 2.1 0 52.773-.11 53.327-.11zM30.87 21.029h27.263m-25.88-6.527H56.64M37.82 99.921v5.383m11.723-4.793v5.013m11.164 42.913-.84-25.293-5.014-3.98 8.407-11.796s-6.637-.294-9.29.073"/><path stroke="#002140" stroke-linecap="round" stroke-linejoin="round" d="m54.957 145.671-.25-19.28s-1.474 1.033-4.277 1.033-7.077-2.95-8.407-5.31l12.757-15.78s-13.42-2.58-21.086 0l-.7 15.767"/><path stroke="#002140" stroke-linecap="round" stroke-linejoin="round" d="M59.867 123.148s-4.57 4.203-5.014 5.16m-5.186-15.65c.53 10.173-1.46 10.766-6.437 10.853"/><path stroke="#002140" stroke-linecap="round" stroke-linejoin="round" d="M49.7 118.991c4.59 1.383 3.29 8.1 3.29 8.1m-11.337 3.207s10.617 18.469 21.566 18.469c18.47 0 24.774-28.533 30.303-30.413"/><path stroke="#002140" stroke-linecap="round" stroke-linejoin="round" d="M38.557 140.364s9.18 18.58 24.663 18.36 23.28-16.416 25.63-19.543"/><path stroke="#002140" stroke-linecap="round" stroke-linejoin="round" d="M84.343 142.057c.449-.776.383-1.653-.146-1.959-.53-.306-1.322.076-1.77.852-.449.777-.383 1.654.146 1.96.53.305 1.322-.076 1.77-.853m-.37-9.02s1.553 5.74 3.69 7.507m-27.06 2.437s2.387 4.906 8.05 4.906m-7.386 11.094c11.06 7.3 25.733-5.824 30.746-17.77m1.697-20.423V86.945"/><path stroke="#002140" stroke-linecap="round" stroke-linejoin="round" d="M88.853 139.177s5.08 3.95 9.577 4.17 6.266-1.473 6.34-3.76"/><path stroke="#002140" stroke-linecap="round" stroke-linejoin="round" d="M98.353 139.661s3.503 1.18 6.6-.22c2.1-.92 1.917-3.243 1.587-3.76m-7.56.22s3.503 1.18 6.599-.22c2.1-.92 1.917-3.244 1.587-3.76m-7.226-.184s3.503 1.18 6.599-.22c1.53-.693 1.944-2.443 1.217-3.903-.58-1.167-2.12-1.227-3.257-1.24-1.323-.017-2.646.103-3.97.117-2.483.026-5.436-.314-6.433-2.98-.323-.863-.407-1.807-.387-2.723"/><path stroke="#002140" stroke-linecap="round" stroke-linejoin="round" d="M96.723 188.114c34.33 4.156 58.626 20.043 60.396 20.706-8.407-44.02 2.213-97.989 1.4-112.919-18.433-1.436-48.293-26.433-64.663-9.18"/><path stroke="#002140" stroke-linecap="round" stroke-linejoin="round" d="M158.519 95.901c-.737-11.833-30.82-13.383-33.697-30.413-5.086 1.99-7.833 7.25-8.173 16.177"/><path fill="#002140" d="m97.47 92.548.256 21.823 48.666 13.05.22-23.223zm.58 26.869-.064 5.204 47.556 12.83v-5.384zm8.869 15.194 38.773 10.46v-5.384l-37.533-9.996s-1.323 1.16-1.063 2.01m-8.763 11.646-.054 4.13 47.56 12.83v-5.383l-44.58-11.873m-3.346 14.896v-3.17l47.483 13.05v3.32zm0 6.514v-3.17l47.483 13.05v3.316z"/><path stroke="#fffaf0" stroke-linecap="round" stroke-linejoin="round" stroke-width="3.333" d="M28.653 43.205s3.383-3.503 4.77-4.17"/><path stroke="#002140" stroke-linecap="round" stroke-linejoin="round" d="M129.639 73.998c-.117-1.71-.193-6.86 2.926-8.513 4.867 17.033 26.69 12.83 25.954 30.413M96.733 188.03l-3.687-5.899v-40.257m-64.583-4.483c-4.783 14.983-11.866 36.326-15.013 41.569 0 0 19.243 6.637 42.136 1.327 0 0 9.624 4.313 15.927-2.324 0 0-9.217-6.449-10.25-18.986m-19.24-36.863s-4.903-1.99-8.773 0c0 0-.493 1.614-1.327 4.304"/><path stroke="#002140" stroke-linecap="round" stroke-linejoin="round" d="M55.59 180.287s.59-17.623-.884-23.373M32.99 122.101s8 .527 11.834 9.08c1.536.29 7.02 1.333 7.02 1.333l-1.987 4.75 4.7 7.117m.369.296 5.33-9.81-2.793-3.416 2.107-8.01m-8.46 30.956c-.037-1.096 1.036-1.976 2.126-2.113s2.164.28 3.167.727 2.026.933 3.123.953c.94.017 1.863-.313 2.803-.3a3.9 3.9 0 0 1 2.897 1.39 3.9 3.9 0 0 1 .82 3.107m5.611-1.297a4.05 4.05 0 0 1 2.586 2.843m-16.146 3.55c.773 0 1.4-.776 1.4-1.733s-.627-1.733-1.4-1.733c-.774 0-1.4.776-1.4 1.733s.626 1.733 1.4 1.733m.663 8.293c.773 0 1.4-.776 1.4-1.733s-.627-1.733-1.4-1.733-1.4.776-1.4 1.733.627 1.733 1.4 1.733m-31.24-9.849c-.423 2.476-1.503 8.463-2.61 11.919-.27.844.314 1.72 1.194 1.807 3.65.37 12.04 1.06 17.46.273a1.4 1.4 0 0 0 1.19-1.196c.316-2.364 1.003-8.38.533-13.203a1.4 1.4 0 0 0-1.444-1.27l-14.99.51a1.394 1.394 0 0 0-1.33 1.16z"/><path stroke="#002140" stroke-linecap="round" stroke-linejoin="round" d="m27.52 161.701 3.107 5.723a2.47 2.47 0 0 0 2.19 1.293l5.353-.033a2.47 2.47 0 0 0 1.914-.923l5.2-6.464"/><path stroke="#002140" stroke-linecap="round" stroke-linejoin="round" d="M37.077 168.721c.043.12.076.25.09.383.123 1.06-.784 2.04-2.027 2.187s-2.353-.597-2.477-1.66c-.036-.324.02-.637.154-.92m9.483 6.823c-1.903-2.71-.11-10.39-.11-10.39m-7.267-38.077s-2.77-.493-3.497-.743-1.546-.363-2.246-.053c-1.07.476-1.507 1.736-1.833 2.863l-1.01 3.507c-.184.64-.37 1.303-.294 1.966.067.56.33 1.094.734 1.49.653.64 1.593.877 2.366 1.36.777.484 1.413 1.49.957 2.283l4.873.984c.457-.79-.18-1.8-.956-2.283-.777-.484-1.717-.72-2.367-1.36a2.55 2.55 0 0 1-.733-1.49c-.08-.664.106-1.324.293-1.967l1.01-3.507c.323-1.126.76-2.386 1.833-2.863.7-.31 1.524-.197 2.247.053s1.403.627 2.14.85m4.32 18.84s-.96 1.734-3.43 1.327m106.359 1.587-40.033-10.767"/></svg>