<?xml version="1.0" encoding="utf-8"?>
<!-- Generator: Adobe Illustrator 28.1.0, SVG Export Plug-In . SVG Version: 6.00 Build 0)  -->
<svg version="1.1" id="Layer_1" xmlns="http://www.w3.org/2000/svg" xmlns:xlink="http://www.w3.org/1999/xlink" x="0px" y="0px"
	 viewBox="0 0 165 169" style="enable-background:new 0 0 165 169;" xml:space="preserve">
<style type="text/css">
	.st0{clip-path:url(#SVGID_00000112599866460347765390000008846926583986358719_);}
	.st1{fill:#8DC8FF;}
	.st2{fill:#4ED7DE;}
	.st3{fill:#4BA6A6;}
	.st4{fill:#FFFAF0;}
	.st5{fill:#FF7101;}
	.st6{fill:#E96DF2;}
	.st7{fill:#28736D;}
	.st8{fill:#E4BC07;}
	.st9{fill:#002140;}
	.st10{fill:none;stroke:#FFFAF0;stroke-width:3.3333;stroke-linecap:round;stroke-linejoin:round;}
	.st11{fill:none;stroke:#002140;stroke-width:1;stroke-linecap:round;stroke-linejoin:round;}
	.st12{fill:none;stroke:#002140;stroke-width:4.3333;stroke-linecap:round;stroke-linejoin:round;}
	.st13{fill:#FFFFFF;filter:url(#Adobe_OpacityMaskFilter);}
	.st14{mask:url(#path-1-inside-1_1563_13286_00000174583492016717537580000008885843371402182331_);fill:#002140;}
</style>
<g>
	<defs>
		<rect id="SVGID_1_" width="165" height="169"/>
	</defs>
	<clipPath id="SVGID_00000148632024359265129290000016118982274481208493_">
		<use xlink:href="#SVGID_1_"  style="overflow:visible;"/>
	</clipPath>
	<g style="clip-path:url(#SVGID_00000148632024359265129290000016118982274481208493_);">
		<path class="st1" d="M45.447,100.658c21.647,0,39.196-17.549,39.196-39.196S67.094,22.265,45.447,22.265S6.25,39.814,6.25,61.461
			S23.799,100.658,45.447,100.658z"/>
		<path class="st2" d="M48.16,92.695c16.981,0,30.746-13.766,30.746-30.746c0-16.981-13.766-30.746-30.746-30.746
			c-16.981,0-30.746,13.766-30.746,30.746C17.414,78.929,31.179,92.695,48.16,92.695z"/>
		<path class="st3" d="M36.347,46.355H48.29c0,0,0.553-1.55-1.437-1.99c-1.99-0.443-10.177,0.22-10.177,0.22l-0.333,1.77H36.347z"/>
		<path class="st3" d="M50.613,44.585l-0.443,1.327l-0.443,0.663h12.056l-1.217-2.653L50.613,44.585z"/>
		<path class="st3" d="M46.963,50.335H37.12c0,0,2.323,2.877,5.197,2.877C45.19,53.212,47.513,51.332,46.963,50.335z"/>
		<path class="st3" d="M50.723,50.335c0,0,2.323,3.097,4.533,3.097s5.31-2.323,5.197-3.097H50.72H50.723z"/>
		<path class="st4" d="M36.346,46.908l0.883,2.947l10.323,0.15v-3.467L36.346,46.908z"/>
		<path class="st4" d="M60.53,50.005v-3.393l-10.803-0.037c0,0,0.257,2.803,0.627,3.28l10.177,0.147V50.005z"/>
		<path class="st5" d="M19.647,24.565h53.53c0,0-1.217-2.323-3.87-2.433c-2.653-0.11-9.4,0-10.286-0.553
			c-0.883-0.553-2.213-2.987-2.213-5.64S60.9,2.335,45.083,2.005c-12.496-0.22-13.713,6.303-13.273,9.4
			c0.44,3.097,0.553,9.953-2.653,10.617C25.95,22.685,20.087,22.465,19.647,24.565z"/>
		<path class="st6" d="M31.923,14.612c0,0,0.11,5.273-1.327,6.34h26.986l-1.033-6.563l-24.626,0.22V14.612z"/>
		<path class="st7" d="M49.506,105.524v-5.086c0,0-9.51,0.22-11.943-0.664v5.42l11.943,0.334V105.524z"/>
		<path class="st7" d="M41.95,122.041l1.033,1.327c0,0,4.497,0.663,5.9-1.917c1.403-2.58,0.443-8.407,0.443-8.407l-7.373,8.997
			H41.95z"/>
		<path class="st1" d="M43.977,123.774c0,0,1.55,3.98,8.847,3.207c0,0,0.997-7.19-3.207-7.63
			C49.617,119.351,49.617,123.001,43.977,123.774z"/>
		<path class="st2" d="M84.493,140.324c0,0-1.18-0.59-1.917,0.59c-0.737,1.18-0.293,1.99,0.293,1.99
			c0.587,0,1.033-0.074,1.327-0.664c0.293-0.59,0.293-1.916,0.293-1.916H84.493z"/>
		<path class="st2" d="M83.756,133.321c0,0,2.727,6.71,3.98,7.226l1.18-1.473c0,0,6.857,5.013,11.503,4.35
			c4.647-0.663,4.35-3.393,4.35-3.393s2.95-1.844,1.624-4.497c0,0,1.916-2.137,0.883-4.203c0,0,1.843-3.024,0.073-4.204
			c-1.77-1.18-5.75-0.736-6.856-0.81c-1.107-0.073-6.637,2.36-6.93-7.666c0,0-1.327,0.443-3.097,2.803
			c-1.77,2.36-6.71,11.87-6.71,11.87V133.321z"/>
		<path class="st4" d="M93.562,118.648v-31.78c0,0,7.816-6.563,14.229-6.34c6.414,0.223,12.937,2.007,17.364,3.43
			c4.426,1.423,23.556,10.95,33.363,11.943c1.696,6.857-9.917,76.756-1.4,112.919c-1.77-0.11-26.987-16.59-60.396-20.707
			c-0.787-1.063-3.67-4.876-3.673-5.429c-0.003-0.554-0.15-41.253-0.15-41.253s9.587,5.16,11.87-1.4c0,0,2.58-1.107,1.623-4.497
			c0,0,1.4-2.063,0.884-4.203c0,0,1.99-2.877,0.073-4.204c-1.917-1.326-5.9-0.883-5.9-0.883s-7.41,0.517-7.666-3.687
			c-0.073-1.769-0.22-3.906-0.22-3.906V118.648z"/>
		<path class="st8" d="M116.863,81.745l7.519,1.88c0,0,27.687,12.607,34.137,12.277c-0.627-6.637-10.047-10.25-10.047-10.25
			s-21.55-8.44-23.856-19.56c-3.444,0.173-9.307,7.36-7.757,15.657L116.863,81.745z"/>
		<path class="st4" d="M132.456,65.598c0,0-2.877,0.663-2.877,8.183c0,0,4.093,4.647,8.517,6.747
			c4.423,2.1,19.466,8.737,20.349,13.713c0,0,0.11-7.52-6.303-10.95s-17.586-9.4-19.686-17.696V65.598z"/>
		<path class="st5" d="M11.793,216.673c0,0,21.237,5.894,41.09,4.937l2.657-4.14l3.48,3.96c0,0,16.59-0.443,19.023-4.093
			c0,0-8.517-11.504-10.727-20.57c-2.21-9.067-5.197-15.373-5.197-15.373s6.857,0.333,9.29-3.43c0,0-9.623-7.63-9.843-19.243
			c0,0,3.54,3.316,10.287,1.879c6.747-1.436,17.807-11.723,19.907-19.243l-2.84-2.286l-1.18,1.473c0,0-3.797-4.757-3.98-7.227
			c0,0-8.73,14.45-15.89,14.784c0,0-6.987-1.584-7.3-7.41c-0.313-5.827-0.997-17.253-0.997-17.253s-3.907,3.096-6.527,3.54
			c-2.617,0.443-7.263,0.846-11.097-4.94l12.757-15.52c0,0-9.843-3.317-20.903-0.11l-0.883,16.7l-1.107,3.206
			c0,0-2.877-1.216-4.093,1.66c-1.217,2.877-1.66,6.413-1.66,6.413s0.25,0.98,1.327,1.99l1.077,1.01l-0.303,1.094
			c0,0-10.177,34.949-14.71,40.256c0,0,12.72,3.317,15.816,3.317c0,0-6.303,21.899-17.473,34.616V216.673z"/>
		<path class="st8" d="M33.47,122.114l0.333-15.706c0,0,12.387-2.877,20.903,0.11l-12.757,15.52c0,0-7.04-1.807-9.033,0.183"/>
		<path class="st8" d="M34.577,127.091l-4.647-0.883c0,0-1.84,0.61-2.213,1.77c-0.373,1.16-1.66,6.413-1.66,6.413l1.327,1.99
			l2.323,1.66l0.443,1.66l4.867,0.883c0,0,0.27-1.803-1.55-2.653c-1.82-0.85-2.877-1.217-2.213-3.76s1.88-5.863,1.88-5.863
			l1.437-1.217H34.577z"/>
		<path class="st8" d="M50.833,154.741c0,0,0.22-2.544,2.653-2.434s4.8,1.437,5.42,1.55c0.62,0.114,3.097-0.663,4.533,0
			c1.437,0.664,2.877,3.097,2.763,4.647c0,0-7.52,2.433-15.373-3.76L50.833,154.741z"/>
		<path class="st8" d="M74.06,159.717c0,0-0.22-2.543-2.543-2.763c0,0-2.877,1.327-4.093,1.437c-1.217,0.11-5.863,0.333-5.863,0.333
			s3.317,2.213,6.413,2.323c3.097,0.11,6.083-1.327,6.083-1.327L74.06,159.717z"/>
		<path class="st8" d="M83.239,142.757c0.692,0,1.253-0.577,1.253-1.29c0-0.712-0.561-1.29-1.253-1.29s-1.253,0.578-1.253,1.29
			C81.986,142.18,82.547,142.757,83.239,142.757z"/>
		<path class="st8" d="M58.207,163.11c0.712,0,1.29-0.694,1.29-1.55s-0.578-1.55-1.29-1.55c-0.713,0-1.29,0.694-1.29,1.55
			S57.494,163.11,58.207,163.11z"/>
		<path class="st8" d="M58.394,171.44c0.712,0,1.29-0.694,1.29-1.55s-0.578-1.55-1.29-1.55c-0.712,0-1.29,0.694-1.29,1.55
			S57.681,171.44,58.394,171.44z"/>
		<path class="st8" d="M42.317,175.974c0,0,2.1-0.11,2.543-1.99c0.443-1.88,2.543-13.824-1.437-13.937
			c-3.98-0.113-14.046,0.443-14.046,0.443s-1.327-0.663-2.213,2.434c-0.887,3.096-2.1,10.84-2.1,10.84s-0.11,1.55,1.107,1.77
			c1.217,0.22,13.823,0.773,16.147,0.443V175.974z"/>
		<path class="st5" d="M32.88,168.787c0,0-0.293,2.137,1.917,2.137c2.21,0,2.213-2.137,2.213-2.137H32.88z"/>
		<path class="st9" d="M49.84,31.535c0,0,25.66,4.203,25.436,30.746c0,0,0.443,26.323-27.43,29.973c0,0,15.593,1.327,25.66-13.05
			c3.317-5.42,6.303-15.153,4.977-22.23c-1.327-7.077-6.303-16.146-14.71-21.346c-6.083-3.98-13.16-4.203-13.937-4.093H49.84z"/>
		<path class="st9" d="M53.047,126.981l1.327-0.333l0.443,0.883l4.757-4.093l-0.663-1.217l-4.093-3.207L63,107.291l-8.96,0.11
			l-3.87,4.977l-0.443,6.526c0,0,4.423,1.55,3.317,8.074L53.047,126.981z"/>
		<path class="st10" d="M26.17,48.198c0,0-8.647,12.167,0.543,28.093"/>
		<path class="st10" d="M30.263,80.601c0,0,1.99,2.1,3.43,2.877"/>
		<path class="st11" d="M58.25,24.622c15.137,5.393,25.97,19.85,25.97,36.836c0,21.59-17.503,39.093-39.093,39.093
			c-21.59,0-39.093-17.503-39.093-39.093c0-16.867,10.683-31.24,25.653-36.72"/>
		<path class="st11" d="M48.083,92.524c16.926,0,30.646-13.721,30.646-30.646S65.009,31.232,48.083,31.232
			S17.437,44.953,17.437,61.878S31.158,92.524,48.083,92.524z"/>
		<path class="st11" d="M46.736,31.292c16.007,1.017,28.676,14.32,28.676,30.586S62.976,91.201,47.18,92.431l-0.807,0.043"/>
		<path class="st11" d="M47.863,95.811c18.741,0,33.933-15.192,33.933-33.933S66.604,27.945,47.863,27.945
			S13.93,43.138,13.93,61.878S29.122,95.811,47.863,95.811z"/>
		<path class="st11" d="M31.48,52.878c0,0,4.977,0.22,4.977,3.76c0,3.54-3.65,4.647-5.42,4.533"/>
		<path class="st11" d="M68.197,60.408c0,0-4.977-0.22-4.977-3.76c0-3.54,3.65-4.647,5.42-4.533"/>
		<path class="st11" d="M36.457,56.641c0,0,15.263-2.213,26.543,0.553"/>
		<path class="st12" d="M35.684,42.815H62.67"/>
		<path class="st11" d="M42.246,53.198c3.304,0,5.983-2.679,5.983-5.983c0-3.305-2.679-5.983-5.983-5.983
			c-3.304,0-5.983,2.679-5.983,5.983C36.263,50.519,38.942,53.198,42.246,53.198z"/>
		<path class="st11" d="M37.01,50.152h10.286"/>
		<path class="st11" d="M36.787,46.502h10.95"/>
		<path class="st9" d="M42.723,46.168c-0.197,0.223-0.36,0.473-0.49,0.743l1.743,1.25l-1.63,1.7c0.077,0.13,0.16,0.257,0.25,0.377
			l4.793,0.303c0.58-0.58,0.937-1.38,0.937-2.263c0-0.73-0.247-1.407-0.657-1.943"/>
		<path class="st11" d="M55.703,53.198c3.305,0,5.983-2.679,5.983-5.983c0-3.305-2.679-5.983-5.983-5.983
			c-3.304,0-5.983,2.679-5.983,5.983C49.72,50.519,52.399,53.198,55.703,53.198z"/>
		<path class="st11" d="M50.467,50.152H60.75"/>
		<path class="st11" d="M50.243,46.502h10.95"/>
		<path class="st9" d="M56.18,46.168c-0.197,0.223-0.36,0.473-0.49,0.743l1.743,1.25l-1.63,1.7c0.077,0.13,0.16,0.257,0.25,0.377
			l4.793,0.303c0.58-0.58,0.937-1.38,0.937-2.263c0-0.73-0.247-1.407-0.657-1.943"/>
		<path class="st11" d="M73.026,24.565c0-3.687-12.446-1.827-14.316-3.123c-0.017-0.01-0.03-0.023-0.047-0.033
			c-2.7-2.227-1.6-8.44-1.6-10.493c0-8.17-7.967-8.847-12.63-8.847c-4.663,0-12.663,0.83-12.663,8.997c0,2.053,1.1,8.267-1.6,10.493
			c-0.017,0.013-0.03,0.023-0.047,0.033c-1.863,1.293-10.43,0.483-10.43,3.083c2.1,0,52.773-0.11,53.326-0.11H73.026z"/>
		<path class="st11" d="M30.87,21.029h27.263"/>
		<path class="st11" d="M32.253,14.502H56.64"/>
		<path class="st11" d="M37.82,99.921v5.383"/>
		<path class="st11" d="M49.543,100.511v5.013"/>
		<path class="st11" d="M60.707,148.437l-0.84-25.293l-5.013-3.98l8.407-11.796c0,0-6.637-0.294-9.29,0.073"/>
		<path class="st11" d="M54.957,145.671l-0.25-19.28c0,0-1.473,1.033-4.277,1.033s-7.076-2.95-8.406-5.31l12.757-15.78
			c0,0-13.42-2.58-21.087,0l-0.7,15.767"/>
		<path class="st11" d="M59.867,123.148c0,0-4.57,4.203-5.013,5.16"/>
		<path class="st11" d="M49.666,112.658c0.53,10.173-1.46,10.766-6.437,10.853"/>
		<path class="st11" d="M49.7,118.991c4.59,1.383,3.29,8.1,3.29,8.1"/>
		<path class="st11" d="M41.653,130.298c0,0,10.617,18.469,21.566,18.469c18.47,0,24.773-28.533,30.303-30.413"/>
		<path class="st11" d="M38.557,140.364c0,0,9.18,18.58,24.663,18.36s23.28-16.416,25.63-19.543"/>
		<path class="st11" d="M84.343,142.057c0.448-0.776,0.383-1.653-0.147-1.959c-0.529-0.306-1.322,0.076-1.77,0.852
			c-0.448,0.777-0.383,1.654,0.147,1.96C83.102,143.215,83.895,142.834,84.343,142.057z"/>
		<path class="st11" d="M83.973,133.037c0,0,1.553,5.74,3.69,7.507"/>
		<path class="st11" d="M60.603,142.981c0,0,2.387,4.906,8.05,4.906"/>
		<path class="st11" d="M61.267,158.981c11.06,7.3,25.733-5.824,30.746-17.77"/>
		<path class="st11" d="M93.709,120.788V86.945"/>
		<path class="st11" d="M88.853,139.177c0,0,5.08,3.95,9.577,4.17c4.496,0.22,6.266-1.473,6.34-3.76"/>
		<path class="st11" d="M98.353,139.661c0,0,3.503,1.18,6.6-0.22c2.1-0.92,1.917-3.243,1.587-3.76"/>
		<path class="st11" d="M98.979,135.901c0,0,3.504,1.18,6.6-0.22c2.1-0.92,1.917-3.244,1.587-3.76"/>
		<path class="st11" d="M99.939,131.737c0,0,3.504,1.18,6.6-0.22c1.53-0.693,1.944-2.443,1.217-3.903
			c-0.58-1.167-2.12-1.227-3.257-1.24c-1.323-0.017-2.646,0.103-3.97,0.117c-2.483,0.026-5.436-0.314-6.433-2.98
			c-0.323-0.863-0.407-1.807-0.387-2.723"/>
		<path class="st11" d="M96.723,188.114c34.329,4.156,58.626,20.043,60.396,20.706c-8.407-44.02,2.213-97.989,1.4-112.919
			c-18.433-1.437-48.293-26.433-64.663-9.18"/>
		<path class="st11" d="M158.519,95.901c-0.737-11.833-30.82-13.383-33.697-30.413c-5.086,1.99-7.833,7.25-8.173,16.177"/>
		<path class="st9" d="M97.469,92.548l0.257,21.823l48.666,13.05l0.22-23.223L97.469,92.548z"/>
		<path class="st9" d="M98.049,119.417l-0.063,5.204l47.556,12.83v-5.384L98.049,119.417z"/>
		<path class="st9" d="M106.919,134.611l38.773,10.46v-5.384l-37.533-9.996c0,0-1.323,1.16-1.063,2.01"/>
		<path class="st9" d="M98.333,143.347l-0.053,4.13l47.56,12.83v-5.383l-44.58-11.873"/>
		<path class="st9" d="M97.913,157.947v-3.17l47.483,13.05v3.32L97.913,157.947z"/>
		<path class="st9" d="M97.913,164.461v-3.17l47.483,13.05v3.316L97.913,164.461z"/>
		<path class="st10" d="M28.653,43.205c0,0,3.383-3.503,4.77-4.17"/>
		<path class="st11" d="M129.639,73.998c-0.117-1.71-0.193-6.86,2.926-8.513c4.867,17.033,26.69,12.83,25.954,30.413"/>
		<path class="st11" d="M96.733,188.03l-3.687-5.899v-40.257"/>
		<path class="st11" d="M28.463,137.391c-4.783,14.983-11.867,36.326-15.013,41.569c0,0,19.243,6.637,42.136,1.327
			c0,0,9.623,4.313,15.927-2.324c0,0-9.217-6.449-10.25-18.986"/>
		<path class="st11" d="M42.023,122.114c0,0-4.903-1.99-8.773,0c0,0-0.493,1.614-1.327,4.304"/>
		<path class="st11" d="M55.59,180.287c0,0,0.59-17.623-0.883-23.373"/>
		<path class="st11" d="M32.99,122.101c0,0,8,0.527,11.833,9.08c1.537,0.29,7.02,1.333,7.02,1.333l-1.987,4.75l4.7,7.117"/>
		<path class="st11" d="M54.926,144.677l5.33-9.81l-2.793-3.416l2.107-8.01"/>
		<path class="st11" d="M51.11,154.397c-0.037-1.096,1.037-1.976,2.127-2.113c1.09-0.137,2.163,0.28,3.167,0.727
			c1.003,0.446,2.027,0.933,3.123,0.953c0.94,0.017,1.863-0.313,2.803-0.3c1.103,0.017,2.193,0.537,2.897,1.39
			s1.013,2.017,0.82,3.107"/>
		<path class="st11" d="M71.657,156.864c1.267,0.43,2.277,1.543,2.587,2.843"/>
		<path class="st11" d="M58.097,163.257c0.773,0,1.4-0.776,1.4-1.733s-0.627-1.733-1.4-1.733s-1.4,0.776-1.4,1.733
			S57.323,163.257,58.097,163.257z"/>
		<path class="st11" d="M58.76,171.55c0.773,0,1.4-0.776,1.4-1.733s-0.627-1.733-1.4-1.733c-0.773,0-1.4,0.776-1.4,1.733
			S57.987,171.55,58.76,171.55z"/>
		<path class="st11" d="M27.52,161.701c-0.423,2.476-1.503,8.463-2.61,11.919c-0.27,0.844,0.313,1.72,1.193,1.807
			c3.65,0.37,12.04,1.06,17.46,0.273c0.62-0.09,1.107-0.576,1.19-1.196c0.317-2.364,1.003-8.38,0.533-13.203
			c-0.073-0.74-0.7-1.297-1.443-1.27l-14.99,0.51c-0.663,0.023-1.22,0.506-1.33,1.16H27.52z"/>
		<path class="st11" d="M27.52,161.701l3.107,5.723c0.437,0.803,1.277,1.3,2.19,1.293l5.353-0.033
			c0.743-0.003,1.447-0.344,1.913-0.923l5.2-6.464"/>
		<path class="st11" d="M37.077,168.721c0.043,0.12,0.077,0.25,0.09,0.383c0.123,1.06-0.783,2.04-2.027,2.187
			c-1.243,0.146-2.353-0.597-2.477-1.66c-0.037-0.324,0.02-0.637,0.153-0.92"/>
		<path class="st11" d="M42.3,175.534c-1.903-2.71-0.11-10.39-0.11-10.39"/>
		<path class="st11" d="M34.923,127.067c0,0-2.77-0.493-3.497-0.743c-0.727-0.25-1.547-0.363-2.247-0.053
			c-1.07,0.476-1.507,1.736-1.833,2.863c-0.337,1.17-0.673,2.337-1.01,3.507c-0.183,0.64-0.37,1.303-0.293,1.966
			c0.067,0.56,0.33,1.094,0.733,1.49c0.653,0.64,1.593,0.877,2.367,1.36c0.777,0.484,1.413,1.49,0.957,2.283l4.873,0.984
			c0.457-0.79-0.18-1.8-0.957-2.283c-0.777-0.484-1.717-0.72-2.367-1.36c-0.403-0.397-0.663-0.93-0.733-1.49
			c-0.08-0.664,0.107-1.324,0.293-1.967c0.337-1.17,0.673-2.337,1.01-3.507c0.323-1.126,0.76-2.386,1.833-2.863
			c0.7-0.31,1.523-0.197,2.247,0.053c0.723,0.25,1.403,0.627,2.14,0.85"/>
		<path class="st11" d="M42.76,146.997c0,0-0.96,1.734-3.43,1.327"/>
		<path class="st11" d="M145.689,149.911l-40.033-10.767"/>
	</g>
</g>
<defs>
	<filter id="Adobe_OpacityMaskFilter" filterUnits="userSpaceOnUse" x="0" y="168" width="165" height="2">
		<feColorMatrix  type="matrix" values="1 0 0 0 0  0 1 0 0 0  0 0 1 0 0  0 0 0 1 0"/>
	</filter>
</defs>
<mask maskUnits="userSpaceOnUse" x="0" y="168" width="165" height="2" id="path-1-inside-1_1563_13286_00000174583492016717537580000008885843371402182331_">
	<path class="st13" d="M0,0h165v169H0V0z"/>
</mask>
<path class="st14" d="M165,169v-1H0v1v1h165V169z"/>
</svg>
