<svg xmlns="http://www.w3.org/2000/svg" width="134" height="116" fill="none" viewBox="0 0 134 116"><path fill="#d18000" d="m24.677 51.131-.595-5.064s.893-1.335-3.264-1.335c-4.156 0-11.278.266-11.278.266s-2.372.265-2.372 2.13v4.003h17.517zm55.301 0-.595-5.064s.892-1.335-3.264-1.335-11.279.266-11.279.266-2.371.265-2.371 2.13v4.003h17.517z"/><path fill="#e4bc07" d="m133.325 43.751-.659-15.049S126.387-.174 98.556.718c-27.832.892-34.022 27.566-34.022 27.566l-1.632 15.821 15.041-.354.073-12.983s4.646-15.62 20.636-15.813 19.198 15.99 19.198 15.99l1.865 14.318s5.442 1.31 8.947 1.543 4.663-3.055 4.663-3.055"/><path fill="#ff7101" d="M84.6 51.662H1.38v28.539s.803 34.673 44.279 34.407c28.539 0 39.48-25.604 39.745-36.272S84.6 51.662 84.6 51.662"/><path fill="#bf3013" d="M9.651 51.397H1.38v29.608s3.2 32.277 37.342 33.073c0 0-27.743-6.938-29.608-37.607-1.07-17.067.53-25.074.53-25.074z"/><path fill="#d18000" d="M45.393 58.334s7.203 4.534 7.203 9.334-3.2 10.668-5.064 11.206l4.003 24.544 6.134-1.069-3.738-25.074s6.399-4.27 5.338-9.334c-1.07-5.065-4.8-11.472-13.868-9.599z"/><path fill="#002140" d="M47.524 78.874s5.25-4.71 5.25-9.872c0-5.16-4.977-9.96-8.892-9.96s-6.464 6.592-6.4 7.999c.057 1.415 2.316 8.36 5.154 10.314l-4.8 25.428s11.022 2.315 13.691.619l-4.004-24.544z"/><path stroke="#002140" stroke-linecap="round" stroke-linejoin="round" d="M85.18 51.453v24.865c0 21.11-17.116 38.226-38.227 38.226S8.727 97.429 8.727 76.318V51.453h76.46z"/><path stroke="#002140" stroke-linecap="round" stroke-linejoin="round" d="M48.826 114.552c-34.166 0-47.455-17.115-47.455-38.226V51.461h9.687"/><path stroke="#002140" stroke-linecap="round" stroke-linejoin="round" d="M59.036 68.456c0-5.957-4.831-10.789-10.788-10.789S37.459 62.5 37.459 68.456c0 3.93 2.107 7.356 5.242 9.245l-5.37 24.648s9.148 5.394 20.17 0l-4.462-24.246c3.545-1.769 5.99-5.419 5.99-9.655z"/><path stroke="#002140" stroke-linecap="round" stroke-linejoin="round" d="m51.174 103.289-4.462-24.246c3.546-1.768 5.99-5.418 5.99-9.655 0-5.217-3.698-9.566-8.618-10.571M6.813 50.939V46.99c0-1.318 1.23-2.38 2.75-2.38h12.364c1.52 0 2.75 1.07 2.75 2.38v3.947m37.439.002V46.99c0-1.318 1.23-2.38 2.749-2.38h12.364c1.52 0 2.75 1.07 2.75 2.38v3.947"/><path stroke="#002140" stroke-linecap="round" stroke-linejoin="round" d="M77.944 44.612v-9.768c0-11.383 9.229-20.604 20.604-20.604 11.384 0 20.604 9.229 20.604 20.604v9.68"/><path stroke="#002140" stroke-linecap="round" stroke-linejoin="round" d="M133.326 44.507V35.48c0-19.197-15.564-34.761-34.762-34.761-19.197 0-34.76 15.564-34.76 34.761v9.125"/><path stroke="#002140" stroke-linecap="round" stroke-linejoin="round" d="M119.152 44.515s2.171 2.347 8.039 2.347 6.134-2.355 6.134-2.355"/></svg>