<svg xmlns="http://www.w3.org/2000/svg" id="Layer_1" viewBox="0 0 164 164"><defs><style>.st0{fill:#99f6ff}.st1{fill:#4ed7de}.st2{fill:#002140}.st3{fill:#03d47c}.st4{fill:#008c59}.st5{fill:none;stroke:#002140;stroke-linecap:round;stroke-linejoin:round;stroke-width:1.5px}</style></defs><path d="m40.177 76.131-.595-5.065s.892-1.335-3.264-1.335-11.279.265-11.279.265-2.372.265-2.372 2.13v4.004h17.517-.008Zm55.301 0-.595-5.065s.892-1.335-3.264-1.335-11.279.265-11.279.265-2.371.265-2.371 2.13v4.004h17.517z" class="st1"/><path d="m148.825 68.751-.659-15.049s-6.279-28.877-34.11-27.984c-27.832.892-34.022 27.566-34.022 27.566l-1.632 15.821 15.041-.354.072-12.983s4.647-15.62 20.636-15.813c15.99-.193 19.197 15.99 19.197 15.99l1.866 14.318s5.442 1.31 8.947 1.543 4.663-3.055 4.663-3.055Z" class="st0"/><path d="M100.1 76.662H16.879v28.539s.804 34.673 44.28 34.407c28.539 0 39.48-25.604 39.745-36.272s-.804-26.674-.804-26.674" class="st3"/><path d="M25.151 76.396h-8.272v29.608s3.2 32.277 37.342 33.073c0 0-27.743-6.938-29.608-37.607-1.069-17.067.531-25.075.531-25.075h.008Z" class="st4"/><path d="M60.893 83.334s7.203 4.534 7.203 9.333-3.2 10.668-5.065 11.206l4.004 24.544 6.134-1.069-3.738-25.074s6.399-4.269 5.338-9.334c-1.069-5.065-4.799-11.472-13.867-9.599l-.008-.008Z" class="st1"/><path d="M63.023 103.874s5.25-4.711 5.25-9.872-4.976-9.96-8.891-9.96-6.464 6.592-6.399 7.999c-.482 4.959 2.315 8.36 5.153 10.314l-4.799 25.428s11.022 2.315 13.691.619l-4.004-24.544z" class="st2"/><path d="M100.679 76.453v24.865c0 21.111-17.115 38.226-38.226 38.226s-38.226-17.115-38.226-38.226V76.453h76.461z" class="st5"/><path d="M64.326 139.552c-34.166 0-47.455-17.115-47.455-38.226V76.461h9.687" class="st5"/><path d="M74.536 93.456c0-5.957-4.832-10.789-10.789-10.789s-10.788 4.832-10.788 10.789c0 3.931 2.106 7.356 5.241 9.245l-5.37 24.648s9.148 5.394 20.17 0l-4.462-24.246c3.545-1.769 5.989-5.419 5.989-9.655l.008.008Z" class="st5"/><path d="m66.674 128.289-4.462-24.246c3.545-1.768 5.989-5.418 5.989-9.655 0-5.217-3.698-9.567-8.618-10.571m-37.27-7.879v-3.947c0-1.319 1.23-2.38 2.749-2.38h12.364c1.519 0 2.749 1.069 2.749 2.38v3.947m37.44 0v-3.947c0-1.319 1.23-2.38 2.749-2.38h12.364c1.519 0 2.749 1.069 2.749 2.38v3.947" class="st5"/><path d="M93.444 69.612v-9.768c0-11.383 9.229-20.604 20.604-20.604s20.604 9.229 20.604 20.604v9.679" class="st5"/><path d="M148.826 69.507v-9.028c0-19.197-15.564-34.761-34.762-34.761S79.303 41.282 79.303 60.479v9.124" class="st5"/><path d="M134.652 69.515s2.171 2.347 8.039 2.347 6.134-2.355 6.134-2.355" class="st5"/></svg>