<svg xmlns="http://www.w3.org/2000/svg" width="219" height="200" fill="none" viewBox="0 0 219 200"><g clip-path="url(#a)"><path fill="#fed607" d="m165.65 32.847-.822.313a1.37 1.37 0 0 1-1.852-1.28c0-.556.337-1.08.884-1.287l1.374-.522 2.381-.904.479-.183.483-.184 2.342-.889 1.73-.658a1.373 1.373 0 0 1 1.854 1.28c0 .554-.336 1.08-.884 1.287l-.797.302z"/><path fill="#e4bc07" d="m166.745 35.938-1.095-3.092 7.172-2.724.093.247 1.008 3.006.062.183v.104c-3.671 2.605-6.496 2.433-7.22 2.333z"/><path fill="#5ab0ff" d="M184.291 83.85c.135.77-.175 1.468-.693 1.56-.516.092-1.046-.46-1.181-1.228-.135-.771.175-1.469.693-1.56.519-.091 1.046.458 1.181 1.229m2.816-8.078c.135.769-.175 1.467-.693 1.558-.519.091-1.048-.458-1.184-1.229-.132-.769.178-1.467.694-1.558.518-.09 1.048.458 1.183 1.23m.323-9.507c.251 1.43-.327 2.73-1.289 2.9-.964.17-1.949-.854-2.2-2.285-.25-1.433.328-2.731 1.292-2.9.961-.171 1.947.853 2.197 2.284m-3.5-8.604c.135.771-.175 1.469-.693 1.56-.519.091-1.048-.46-1.181-1.229-.135-.77.175-1.469.693-1.56.516-.09 1.046.46 1.181 1.23m-4.251-6.988c.135.77-.175 1.467-.694 1.558s-1.048-.458-1.181-1.229c-.135-.769.175-1.466.694-1.557.516-.092 1.045.457 1.181 1.228m-6.23-3.908c.084.49.073.964-.016 1.382l-.046.033-2.57-3.527.051-.037q.178-.1.381-.136c.964-.169 1.947.853 2.2 2.285m-7.688 3.28c.135.77-.177 1.468-.693 1.56-.519.09-1.048-.46-1.183-1.23s.175-1.468.693-1.56c.519-.09 1.048.46 1.183 1.23m-3.598 11.844c.135.769-.175 1.467-.693 1.558-.519.09-1.046-.458-1.181-1.23-.135-.768.175-1.466.693-1.557.517-.091 1.046.458 1.181 1.229m3.988 18.744c.135.77-.175 1.467-.693 1.558-.519.093-1.046-.458-1.181-1.227s.175-1.468.693-1.56c.516-.09 1.046.458 1.181 1.23m4.38 5.568c.133.77-.177 1.467-.693 1.558-.519.091-1.048-.458-1.183-1.229-.135-.769.175-1.467.693-1.558.519-.09 1.048.458 1.183 1.23m8.235 3.464c.25 1.433-.328 2.73-1.292 2.9-.961.17-1.947-.854-2.197-2.285-.251-1.43.325-2.73 1.289-2.9s1.947.854 2.2 2.285"/><path fill="#0185ff" d="m172.603 65.035.006.011c-.328.21-.6.536-.8.945l-.144-.013-7.116-9.491-1.564 1.568-1.719-6.353 5.707 2.196-1.486 1.648 7.014 9.352z"/><path fill="#0185ff" d="m173.387 48.182 1.249 1.716-3.128.393 2.346 14.353-.04.178a1.63 1.63 0 0 0-1.205.224l-.006-.01-.102-.138.024-.018-2.346-14.353-3.049.313 3.049-7.06.638.875z"/><path fill="#0185ff" d="M176.092 67.815c.33 1.883-.428 3.59-1.695 3.811-1.265.223-2.559-1.122-2.889-3.002-.173-.99-.044-1.93.301-2.633.2-.409.472-.736.8-.945a1.63 1.63 0 0 1 1.205-.224c1.046.213 2.003 1.413 2.278 2.993"/><path fill="#fcdcff" d="m125.943 65.918.175.022c-.33 3.064-2.918 5.449-6.059 5.449a6.09 6.09 0 0 1-5.149-2.838l.142-.091c.534.135 1.088.2 1.639.193.521-.009 1.144-.158 1.316-.653.138-.391-.095-.838-.434-1.076s-.76-.318-1.167-.393l-2.367-.431h-.022a6 6 0 0 1-.057-.829c0-3.378 2.729-6.118 6.099-6.118 2.76 0 5.091 1.84 5.84 4.365l-.186.053c-.459.173-.887.313-1.367.689-.388.304-.618.8-.634 1.293-.009.273.073.571.297.73.301.212.716.09 1.061-.039z"/><path fill="#e4bc07" d="M216.938 102.213c.39 2.509 1.017 8.705.547 9.802-.332.78-1.562 1.005-2.162.865h-.113c.004-1.236-.146-2.254-.383-2.789l.077-.036c.08-2.275.235-4.235-.352-7.033l-.055-.009q.046-.245-.009-.591c-.053-.324-.284-1.095-.366-1.413a15 15 0 0 0-.193-.691c1.551-.391 2.756.275 3.009 1.895"/><path fill="#fed607" d="M214.827 110.091c.237.535.387 1.553.383 2.787-.009 2.106-.479 4.84-1.766 6.851q-.076.12-.162.231c-.633.858-1.42 1.209-1.661 1.389a2 2 0 0 1-.355.215c-.347.165-.633.138-.83-.009-.335-.249-.891-1.035-1.179-1.475-.268-.411-.191-.72.06-1.009.139-.165.339-.32.56-.487a4.35 4.35 0 0 0 1.197-1.373c.766-1.358.875-3.042.839-4.287-.013-.566-.06-1.042-.084-1.353a5 5 0 0 1-.02-.833c.042-.554.251-.623.594-.892.782-.157 1.952-.406 2.266-.026a1.1 1.1 0 0 1 .158.271m-.898-9.773q.107.35.193.691c.082.317.313 1.089.366 1.413q.055.346.009.591c-.049.282-.189.469-.375.558-.374.184-1.511.367-2.031.42-.45.044-.672-.133-.811-.442-.098-.214-.158-.491-.228-.8a22 22 0 0 0-.472-1.743c-.503-1.593-1.175-3.008-2.101-4.349a17 17 0 0 0-1.655-2.026 2 2 0 0 1-.389-.562c-.28-.663.217-1.094.547-1.425.259-.209.286-.289.625-.524.248-.171.469-.231.671-.218.352.02.64.256.893.48a14 14 0 0 1 1.874 2.042c1.407 1.865 2.322 3.973 2.884 5.894"/><path fill="#e4bc07" d="M213.325 119.991c1.092 1.204 1.037 2.324-.217 3.398-1.917 1.637-6.882 4.626-8.813 4.851-.84.098-1.383-.749-1.536-1.349l-.029-.058c.514-.26 1.031-.551 1.558-.9.277-.184.591-.373.733-.684l.129.069c2.641-.989 3.89-1.929 6.13-3.723l-.013-.031q.167-.076.354-.215c.242-.18 1.028-.531 1.662-1.389zm-1.345-27.389c.182.807-.275 1.32-.933 1.82a14 14 0 0 0-1.874-2.04c-.253-.224-.541-.46-.893-.48l.007-.2c-1.511-1.673-4.378-4.078-6.254-5.28l-.136-.055a35 35 0 0 0 .82-2.243l.016.005a33.8 33.8 0 0 1 8.768 7.64c.206.25.412.517.481.833zm-.067 20.322-.188.007c-.541.009-1.852.035-2.215-.367-.364-.4-.384-1.653-.39-2.195-.054-4.051-.523-6.091-.47-7.765.035-1.126 1.289-1.562 1.823-1.595h.107q.264.831.471 1.74c.071.309.131.586.229.8l-.076.022c.26 2.249.574 3.975.574 7.164h.031c-.018.205-.011.471.02.836.024.311.071.787.084 1.353m-2.645 6.089a29 29 0 0 1-6.039 3.8l.004.007q-.14.059-.301.158c-.614.377-1.243.715-1.861 1.026l-.08-.375c-.257-.478-.706-1.403-.52-1.911.186-.509.846-.934 1.342-1.147 3.866-1.653 6.802-4.389 7.336-4.44 1.116-.113 1.573.573 1.847 1.035l.078.045c-.293.52-.683.991-1.197 1.373-.221.167-.42.322-.56.487zm-.789-22.355-.09.064c-.439.367-.729.68-1.303.889-.658.24-1.301-.465-1.93-1.047-2.085-1.933-3.7-3.293-5.838-4.913l-.106-.071c.459-.711.891-1.454 1.296-2.22l.27.147c1.153.853 3.525 2.933 5.577 4.6l.08-.038c.073.17.197.358.389.562a17 17 0 0 1 1.655 2.027"/><path fill="#fed607" d="M205.043 124.535c.084.298.062.527-.022.714-.142.311-.456.5-.733.684-.528.349-1.044.64-1.558.9-.808.409-1.613.74-2.448 1.104l-.235.047a34 34 0 0 0-.744-3.122c.565-.273 1.163-.553 1.768-.858a25 25 0 0 0 1.861-1.026q.16-.1.301-.156c.933-.384 1.285.467 1.52.951.113.313.179.365.29.762m-38.278-88.54c.724.1 3.549.272 7.22-2.333v-.104l-.062-.183h.004c13.45-1.864 26.81 11.294 30.049 29.785 1.318 7.529.759 14.798-1.261 20.964a35 35 0 0 1-.82 2.242h-.002a32 32 0 0 1-1.385 2.994 30 30 0 0 1-1.296 2.22h-.002c-3.409 5.309-8.252 8.969-14.033 9.989-7.277 1.282-14.577-1.88-20.311-7.951a35.6 35.6 0 0 1-3.285-4.045l-.107-.12a10 10 0 0 1-1.005-2.035c5.013 7.788 12.094 12.097 19.159 10.85 11.013-1.942 17.568-17.066 14.639-33.781-2.928-16.718-14.229-28.694-25.242-26.754-6.496 1.145-11.441 6.874-13.803 14.811 2.034-7.324 6.064-13.277 11.452-16.562q.037.007.091.013"/><path fill="#f68dfe" d="m182.756 121.238.326-.125c1.329-2.744 3.651-2.853 5.082-2.195.864.4 1.458 1.06 1.947 1.833l.164-.107c.547-2.511 2.608-3.624 4.263-3.246 1.765.402 2.86 2.162 3.529 3.848q.706 1.779 1.236 3.616c.295 1.031.547 2.071.744 3.122q.327 1.69.47 3.405c.842 10.224-.208 21.048-5.058 30.082-1.542 2.873-3.48 5.515-5.574 8.013-2.8 3.34-5.875 6.376-10.166 7.08h-.235c-1.961.347-4.462-.862-5.317-2.667s-.765-4.268-.235-6.195c.372-1.349 1.001-2.753 1.606-4.107.259-.578.512-1.144.74-1.698 1.808-4.377 2.736-8.968 2.969-13.624.221-4.407-.184-8.871-1.059-13.262a68 68 0 0 0-1.582-6.289c-.182-.605-.372-1.211-.521-1.827-.166-.671-.281-1.351-.288-2.042-.013-1.369.441-2.771 1.398-3.749.955-.978 2.437-1.464 3.746-1.073.723.215 1.316.649 1.815 1.207"/><path fill="#e4bc07" d="M154.387 71.524v-.009l-.024-.142c-1.093-6.666-.718-13.115.842-18.755q.008-.038.02-.074c2.361-7.937 7.306-13.666 13.802-14.81 11.013-1.94 22.314 10.035 25.243 26.753 2.928 16.715-3.627 31.84-14.64 33.782-7.065 1.246-14.146-3.062-19.159-10.851-.488-1.345-.683-2.79-.485-4.196a9.3 9.3 0 0 1 .841-2.74l.065.033c4.014 9.274 10.884 15.116 17.513 13.947 8.691-1.531 13.678-14.535 11.135-29.044-2.542-14.512-11.647-25.032-20.34-23.5-8.195 1.444-13.094 13.086-11.499 26.575l.113.114c-1.378 1.384-2.41 3.144-3.021 5.03a47 47 0 0 1-.342-1.748l-.062-.365z"/><path fill="#ffed8f" d="M189.537 65.418c2.544 14.508-2.443 27.513-11.134 29.044-6.629 1.169-13.499-4.673-17.513-13.947l-.065-.033a9.2 9.2 0 0 1 2.191-2.878c1.44-1.262 3.257-2.058 4.606-3.42 1.256-1.273 2.045-3.142 1.615-4.882-.385-1.56-1.714-2.787-3.241-3.276-1.526-.486-3.212-.3-4.708.276-1.32.509-2.488 1.309-3.476 2.304l-.113-.113c-1.595-13.489 3.303-25.13 11.498-26.575 8.694-1.531 17.799 8.989 20.34 23.5m-3.396 3.748c.962-.168 1.54-1.468 1.29-2.9-.251-1.43-1.237-2.455-2.198-2.284-.964.169-1.542 1.467-1.292 2.9.251 1.431 1.236 2.456 2.2 2.284m.273 8.165c.518-.091.828-.789.693-1.558-.135-.77-.665-1.32-1.183-1.229-.516.091-.826.79-.693 1.558.135.771.664 1.32 1.183 1.229m-2.816 8.08c.518-.093.828-.791.693-1.56-.135-.771-.662-1.32-1.181-1.229-.518.091-.828.789-.693 1.56.135.769.665 1.32 1.181 1.229m-.361-26.189c.518-.091.828-.789.693-1.56-.135-.769-.665-1.32-1.181-1.229-.518.091-.828.79-.693 1.56.133.77.662 1.32 1.181 1.23m-4.252-6.989c.519-.09.829-.789.694-1.558-.135-.77-.665-1.32-1.181-1.228-.519.09-.829.788-.694 1.557.133.771.663 1.32 1.181 1.23m-1.511 40.336c.964-.17 1.542-1.467 1.292-2.9-.253-1.431-1.236-2.454-2.2-2.285s-1.54 1.47-1.289 2.9c.25 1.431 1.236 2.456 2.197 2.285m-3.077-20.943c1.267-.222 2.025-1.928 1.695-3.81-.275-1.58-1.232-2.78-2.278-2.994l.04-.178-2.346-14.353 3.128-.393-1.249-1.716.046-.033c.089-.418.1-.891.016-1.383-.253-1.43-1.236-2.453-2.2-2.284a1.2 1.2 0 0 0-.381.136l-.051.037-.638-.875-3.049 7.06 3.049-.314 2.346 14.354-.024.018-7.014-9.351 1.486-1.65-5.707-2.195 1.719 6.353 1.564-1.569 7.116 9.492.144.013c-.345.702-.474 1.642-.301 2.633.33 1.88 1.624 3.225 2.889 3.002m-4.559 16.136c.516-.091.826-.789.693-1.558-.135-.77-.665-1.32-1.183-1.229-.518.092-.829.79-.693 1.558.135.771.664 1.32 1.183 1.23m-4.38-5.569c.518-.09.828-.789.693-1.558-.135-.77-.664-1.32-1.181-1.229-.518.092-.828.79-.693 1.56s.662 1.32 1.181 1.227m-.39-30.586c.516-.092.828-.79.693-1.56s-.664-1.32-1.183-1.23c-.518.092-.828.79-.693 1.56s.664 1.32 1.183 1.23m-3.598 11.842c.518-.091.829-.79.693-1.558-.135-.771-.664-1.32-1.18-1.229-.519.091-.829.789-.694 1.558.135.771.663 1.32 1.181 1.229"/><path fill="#0185ff" d="M118.415 164.958c-3.93 4.537-13.45 11.977-28.437 5.975a41 41 0 0 1-2.838-1.271l-.014.013c-1.703-1.704-2.23-4.244-2.488-6.644a19 19 0 0 1-.075-.88l.23-.018c6.022 1.491 11.5.133 15.659-3.062 4.159-3.196 6.702-8.5 6.292-13.738-.306-3.909-1.967-9.187-1.542-13.082l-.049-.078c9.963-6.3 21.845-10.351 33.341-11.06 2.41-.149 4.854-.167 7.209.362 2.357.529 6.205 2.305 7.377 4.58l.027.06.057.031a69 69 0 0 1 .906 8.3l-.046.194c3.558 3.266 7.24 6.475 11.465 8.811 4.143 2.291 8.749 4.258 13.538 4.811l.22.011c-.233 4.656-1.161 9.247-2.969 13.625-.228.553-.481 1.12-.74 1.697l-.275-.122c-9.998 1.067-20.311-.151-29.806-3.464-3.47 3.135-7.77 5.366-12.349 6.284-4.648.933-11.72.311-14.613-1.258z"/><path fill="#e4bc07" d="M171.894 132.675c1.51.163 3.724.156 5.636.02l.141-.033q.28 1.17.517 2.349l-.191.038a32.7 32.7 0 0 1-8.614-.309c-.31-.051-.631-.114-.886-.3-.653-.474-.658-1.142-.509-1.929l.011-.167c1.008.256 1.965.416 2.769.414.417-.003.884-.029 1.159-.423zm4.925-3.235-.229.066c-.959.067-3.086.04-4.865.085l-.055.107a2.2 2.2 0 0 0-.643-.185 30 30 0 0 1-2.558-.491l.004-.027c.086-.566.095-.993.383-1.533.333-.618 1.281-.522 2.136-.507 1.89.036 3.456.02 5.08-.057h.013c.149.613.339 1.22.521 1.824q.11.357.213.718"/><path fill="#99f6ff" d="m175.297 13.782-4.396 14.082.018.047-2.342.889-.091-.242 2.149-12.96-.066-.194z"/><path fill="#99f6ff" d="m175.296 13.782-4.727 1.622-2.313.794-.1-.291 1.664-5.865-.033-.095.192-.067z"/><path fill="#fed607" d="M171.67 129.697c.664.329.587.932.558 1.405-.055.329-.022.407-.12.807a1.3 1.3 0 0 1-.181.426c-.275.394-.742.42-1.159.422-.804.003-1.761-.157-2.769-.413-2.138-.542-4.504-1.507-6.102-2.227-1.074-.484-1.803-.86-1.883-.924a1.2 1.2 0 0 1-.173-.171c-.33-.398-.352-.927-.243-1.189.157-.387.531-.973.886-1.36a.9.9 0 0 1 .545-.298c.428-.069.917.156 1.382.402l.264.14c2.005 1.056 3.596 1.774 5.793 2.305.765.184 1.604.347 2.559.491.268.04.479.104.643.184"/><path fill="#ccf6ff" d="m170.569 15.404.066.194-2.149 12.96.091.242-.483.184-.055-.146-3.735-10.96-.1-.291.933-.32 2.572-.883.547-.186z"/><path fill="#ccf6ff" d="m169.787 9.947.033.095-1.664 5.865.1.29-.548.187-.099-.289-4.894-3.615-.033-.098 1.575-.54z"/><path fill="#f68dfe" d="M160.468 87.418c.257.715.599 1.4 1.006 2.035l.107.12a35.6 35.6 0 0 0 3.285 4.045 75 75 0 0 1-1.528 1.924l-.091-.076c-2.202-3.277-6.088-7.41-9.124-9.933l-.438-.031c.751-.707 1.466-1.573 1.557-2.602.06-.691-.195-1.371-.507-1.987-1.32-2.6-3.709-4.515-5.096-7.08-.396-.733-.711-1.544-.669-2.378.047-.884.49-1.695.957-2.446 1.168-1.878 2.349-3.345 3.727-5.071h.035a46 46 0 0 0 .672 7.435q.011.072.024.142v.01l.062.364q.156.882.341 1.749c.612-1.887 1.644-3.647 3.022-5.032.988-.995 2.156-1.795 3.476-2.304 1.495-.576 3.181-.762 4.708-.276 1.526.49 2.856 1.716 3.241 3.276.43 1.74-.359 3.609-1.615 4.882-1.349 1.362-3.166 2.158-4.606 3.42a9.2 9.2 0 0 0-2.191 2.878 9.3 9.3 0 0 0-.842 2.74c-.197 1.407-.002 2.851.485 4.196z"/><path fill="#99f6ff" d="m168.039 28.838.055.146-.478.182-.085-.222-9.659-8.97-.066-.192 2.317-.796.547-.186 2.57-.882.964-.331.1.29z"/><path fill="#99f6ff" d="m167.609 16.095.099.29-2.572.881-.932.32-.964.332-2.57.882-.1-.291 1.662-5.865-.033-.095.483-.167.033.098z"/><path fill="#ccf6ff" d="m167.531 28.944.085.223-2.382.904-.091-.24-12.061-8.429 4.724-1.62.066.191z"/><path fill="#4ed7de" d="m163.247 95.466.091.076c-1.775 2.167-3.678 4.227-5.803 6.044-2.815 2.407-6.484 4.514-10.031 5.567l-.064.029a91 91 0 0 0-2.954-6.153c-1.528-2.903-3.11-5.727-4.958-8.465a55 55 0 0 0-2.04-2.838l.084-.064c3.675.942 7.167.111 10.435-1.02 2.16-.749 4.083-1.647 5.678-3.14l.439.031c3.035 2.522 6.921 6.656 9.123 9.933"/><path fill="#e4bc07" d="M162.655 123.635c1.32.643.645 2.345.434 2.838l-.414.245-.264-.14c-.465-.247-.955-.472-1.382-.403l-.016-.106c-2.12-.774-3.631-1.723-6.473-3.151l-.013.02a3 3 0 0 0-.282-.178 34 34 0 0 1-1.859-1.122l-.124.028-.079-.34.115-.028c.237-.489.718-1.385 1.252-1.465 1.043-.158 2.277.705 2.762.94 3.636 1.769 4.841 2.133 6.343 2.862"/><path fill="#ccf6ff" d="m162.199 12.549.033.095-1.662 5.865.1.29-.547.188-.1-.29-4.896-3.617-.033-.096 5.53-1.895z"/><path fill="#e4bc07" d="m161.898 130.118-.007.015c-.332 1.593-1.4 2.282-2.971 1.778-1.207-.387-3.257-1.205-5.1-2.04l-.122.015a69 69 0 0 0-.534-3.74c1.972 1.08 3.806 2.169 6.538 2.889l.14-.013q.073.09.172.171c.08.065.809.44 1.884.925"/><path fill="#99f6ff" d="m160.023 18.698.1.288-2.317.796-4.724 1.62 1.819-6.351.193-.067.033.096z"/><path fill="#fed607" d="M154.527 122.938c.844.615.503 1.24.285 1.733-.168.289-.164.371-.396.713-.388.571-.864.542-1.303.407h-.009v.002a73 73 0 0 0-.839-4.127l.124-.028c.556.364 1.169.733 1.858 1.122q.16.09.282.178z"/><path fill="#4ed7de" d="m153.105 125.793.059.353-.057-.031-.027-.06c-1.172-2.275-5.02-4.051-7.377-4.58-2.355-.529-4.799-.511-7.209-.362-11.496.709-23.378 4.76-33.341 11.06a69 69 0 0 0-6.755 4.862L98.21 137a76 76 0 0 1 .514-2.367q.177-.773.352-1.551.168-.752.333-1.509c.605-2.791 1.147-5.604 1.502-8.429l.069.009c10.086.313 16.868-2.94 23.587-7.187 4.015-2.537 7.269-5.968 8.392-7.48a34 34 0 0 0 2.597-4.075 36 36 0 0 0 2.204-4.887 34 34 0 0 0 1.768-6.96c1.848 2.738 3.43 5.563 4.958 8.465a91 91 0 0 1 2.954 6.153c1.978 4.553 3.595 9.304 4.743 14.144l.08.34q.48 2.055.839 4.127z"/><path fill="#f68dfe" d="M52.539 16.011s.013.013.017.013zm22.4 62.984c-1.358-.624-2.548-1.606-3.294-2.904 1.644 1.162 3.919 1.229 5.753.4 1.832-.831 3.126-2.113 3.94-3.958a7.2 7.2 0 0 1-5.426.271c-2.185-.775-4.044-2.793-4-5.118 1.184 1.66 3.525 2.376 5.43 1.658a5.8 5.8 0 0 0 1.543-.895c1.867-1.474 2.984-3.78 3.278-6.142.297-2.365-.653-6.056-1.697-8.774l.007-.15c-7.145-.35-13.966-4.279-18.333-10.012l-.06-.111a30.5 30.5 0 0 0 6.804-4.996l.109.111q.464.465.955.905c4.169 3.731 9.595 6.158 15.182 6.242.08 0 .047-.058-.024-.093-3.516-6.81-8.596-12.48-14.94-16.756-2.757-1.86-5.757-3.429-8.952-4.3l-.035.14c1.039 3.214 2.337 6.251 3.999 8.956q.319.522.658 1.029l.172.189a38 38 0 0 1-6.298 4.702l-.095-.158q-.262-.464-.508-.931a53 53 0 0 1-1.759-3.696v-.08a2.39 2.39 0 0 0 2.267-2.39c0-1.283-1.068-2.392-2.384-2.392-.57 0-1.095.2-1.504.533l-.025-.03-.913-2.439c-1.9-5.06-4.098-10.17-7.878-14.026l.038-.038c2.111.38 3.92.918 5.587 2.267-.252-.271-2.051-3.905-2.538-6.031 1.798 2.43 3.496 3.882 5.815 5.244 2.038 1.196 4.243 2.073 6.42 2.989 4.143 1.742 8.246 3.653 12.083 5.982a52 52 0 0 1 5.373 3.716c2.552 2.024 4.905 4.358 6.874 6.96l.253-.191a28.06 28.06 0 0 1 8.667-10.145c-.576.747-.76 1.62-1.017 2.527-.612 2.167-1.227 4.353-1.35 6.6 1.817-2.991 4.157-5.685 6.798-7.973-.547 2.89-.802 5.9-.694 8.84a19.1 19.1 0 0 1 5.774-.447c4.411.315 8.729 2.098 11.97 5.109 2.72 2.526 4.67 5.775 7.255 8.442q.946.975 1.994 1.833.642.527 1.316 1.007a14 14 0 0 0 1.91 1.167 8 8 0 0 0 1.728.635c1.325.31 2.798.187 3.928-.575 1.13-.763 1.819-2.231 1.449-3.547.941 1.518 1.159 3.484.594 5.18-.563 1.695-1.753 3.138-3.184 4.204a9 9 0 0 1-2.238 1.24c2.335.678 5.083-.24 7.008-1.726.848-.658 1.635-1.531 1.743-2.602.634 2.422-.048 5-1.652 6.917-1.604 1.92-3.966 3.114-6.421 3.574 1.66.882 3.733.477 5.528-.076 1.573-.487 3.157-1.287 3.992-2.707.06 2.811-.937 5.53-2.758 7.667a11.65 11.65 0 0 1-7.22 3.947l-.306-.014c-.135 3.087-.292 6.127-.609 9.147-.273 2.602-.665 5.189-1.267 7.78-.452 1.949-1.48 4.456-2.639 6.082a8.36 8.36 0 0 1-3.011 2.603c-.645.328-1.336.573-2.056.642-1.216.113-2.455-.31-3.412-1.074a4 4 0 0 1-.183-.153c-.909-.795-1.529-1.893-1.828-3.067l-.242.065q-.59.363-1.216.673c-1.65.822-3.452 1.365-5.279 1.676a23.6 23.6 0 0 1-4.451.317l-.027.018c-2.229-3.44-5.273-6.31-9.059-7.77-4.643-1.792-9.983-1.259-14.522.781q-1.073.484-2.091 1.065c2.317-1.73 4.17-4.34 5.5-7.342-1.969.717-4.01 1.329-6.105 1.369-1.693.033-3.516-.467-4.967-1.412a7 7 0 0 1-.962-.744q.446.085.9.115.253.023.505.023a8.33 8.33 0 0 0 5.056-1.64c.693-.52 1.291-1.08 1.778-1.7.79-1.005 1.283-2.167 1.42-3.571l-.02-.012c-.416.78-1.22 1.283-2.044 1.6a7.3 7.3 0 0 1-2.131.467 7.4 7.4 0 0 1-3.729-.698m51.179-13.055a6.05 6.05 0 0 0-.219-2.422 6.1 6.1 0 0 0-5.84-4.365c-3.37 0-6.099 2.74-6.099 6.118a6.15 6.15 0 0 0 .95 3.28 6.09 6.09 0 0 0 5.149 2.838c3.141 0 5.729-2.385 6.059-5.45m-.071 23.064a5.9 5.9 0 0 0-.042-1.873c-.275-1.453-1.345-2.796-2.78-3.131-1.434-.336-3.122.56-3.428 2.007-.031.146-.071.115-.082.264-.857-4.696-.983-9.72-.257-14.438-1.573 4.88-2.344 10.289-1.903 15.398.042.48.109.987.209 1.493.21 1.074.564 2.15 1.123 3.002.822 1.256 2.377 2.143 3.824 1.754 1.052-.282 1.956-1.15 2.507-2.091a6.5 6.5 0 0 0 .829-2.385m-6.948-36.384a8.7 8.7 0 0 0 .195-1.842 8.69 8.69 0 0 0-3.753-7.16 8.6 8.6 0 0 0-4.909-1.53 8.65 8.65 0 0 0-7.389 4.152l-.031.1a9.4 9.4 0 0 0-2.86-.442c-5.224 0-9.46 4.249-9.46 9.49 0 5.243 4.236 9.492 9.46 9.492 3.837 0 7.143-2.291 8.627-5.587l.155.045q.73.127 1.498.129c4.154 0 7.626-2.932 8.467-6.847"/><path fill="#0164bf" d="M137.625 99.473a51 51 0 0 0-4.732-2.309l-.257-.009c1.218-3.217 1.836-6.882 1.652-11.177l.007-.007a50 50 0 0 1 3.193 3.755q1.074 1.401 2.04 2.838a34.2 34.2 0 0 1-1.768 6.96z"/><path fill="#0164bf" d="m137.625 99.473.135.051a36 36 0 0 1-2.204 4.887l-.166-.093q-2.342-1.416-4.684-2.836l-.181-.038a25.3 25.3 0 0 0 2.111-4.289l.257.01a51 51 0 0 1 4.732 2.308"/><path fill="#0164bf" d="m135.39 104.318.166.093a34 34 0 0 1-2.597 4.075c-1.123 1.512-4.377 4.943-8.392 7.48-6.719 4.247-13.501 7.5-23.588 7.187l-.068-.009c.259-2.06.418-4.124.425-6.189h.191c1.887.278 4.399.138 6.265-.257 7.012-1.494 13.718-4.843 18.669-10.043 1.536-1.613 2.911-3.333 4.063-5.211l.182.038q2.342 1.42 4.684 2.836"/><path fill="#4ed7de" d="M100.982 111.495a42 42 0 0 0-11.319 1.834c-5.17 1.584-10.153 4.286-13.534 8.52l-.031.037c-5.736-.026-11.108-3.337-13.771-8.433h-.158l-.221-.018h.356c2.466-4.335 4.95-8.691 8.065-12.584a39 39 0 0 1 4.14-4.456 31 31 0 0 1 2.87-2.337 27 27 0 0 1 2.359-1.518 25 25 0 0 1 2.091-1.065c4.54-2.04 9.879-2.573 14.522-.782 3.787 1.46 6.831 4.331 9.059 7.771a26.5 26.5 0 0 1 1.788 3.227q.14.296.273.595l.051-.022a21.7 21.7 0 0 0 5.363-.753c2.036-.549 3.975-1.391 5.687-2.489l.065-.087c.957.765 2.195 1.187 3.411 1.074.72-.07 1.412-.314 2.056-.642a8.36 8.36 0 0 0 3.011-2.603c1.159-1.626 2.187-4.133 2.639-6.082.602-2.591.994-5.178 1.267-7.78l.139.016a48 48 0 0 1 3.135 3.053l-.006.007c.184 4.295-.435 7.96-1.653 11.177a25.3 25.3 0 0 1-2.111 4.289c-1.152 1.878-2.528 3.598-4.063 5.211-4.952 5.2-11.658 8.549-18.67 10.043-1.865.395-4.378.535-6.265.26h-.191a37.4 37.4 0 0 0-.352-5.403v-.06z"/><path fill="#002140" d="M126.156 65.271q-.001.34-.038.669l-.175-.022-.873.326c-.345.13-.76.251-1.061.038-.224-.158-.306-.456-.297-.729.016-.493.246-.989.634-1.293.48-.376.908-.516 1.367-.689l.186-.053c.168.555.257 1.144.257 1.753m-.151 21.859a5.8 5.8 0 0 1 .042 1.874l-.177-.02c-.729-.575-2.763-.629-3.702.26l-.115.107a3.5 3.5 0 0 0-1.243-.829 3.56 3.56 0 0 0-2.902.171l-.144.031c-.1-.506-.166-1.013-.209-1.493-.44-5.109.331-10.518 1.904-15.398-.727 4.718-.601 9.742.257 14.438.011-.149.051-.118.082-.264.305-1.447 1.993-2.343 3.427-2.007 1.435.335 2.505 1.678 2.78 3.13"/><path fill="#cf4cd9" d="m122.053 89.35.115-.106c.939-.889 2.973-.835 3.702-.26l.177.02a6.5 6.5 0 0 1-.828 2.385c-.552.942-1.456 1.809-2.508 2.09-1.447.39-3.002-.497-3.824-1.753-.558-.853-.913-1.928-1.123-3.002l.144-.03a3.56 3.56 0 0 1 2.902-.172c.467.182.893.469 1.243.829"/><path fill="#002140" d="M119.295 50.778q-.002.951-.195 1.842l-.102-.022a4.8 4.8 0 0 1-2.09.477 4.79 4.79 0 0 1-4.078-2.275l.033-.022 2.362-1.938-3.113-.576a4.81 4.81 0 0 1 3.399-4.602l.031-.044a8.7 8.7 0 0 1 3.753 7.16"/><path fill="#fffaf0" d="M112.83 50.8a4.79 4.79 0 0 0 4.079 2.275c.748 0 1.457-.17 2.089-.477l.102.022c-.842 3.915-4.314 6.847-8.468 6.847a8.7 8.7 0 0 1-1.497-.13l-.156-.044a9.4 9.4 0 0 0 .623-1.893 9.5 9.5 0 0 0 .213-2.011 9.49 9.49 0 0 0-6.602-9.05l.031-.1a8.65 8.65 0 0 1 12.298-2.621l-.031.044a4.81 4.81 0 0 0-3.399 4.602l3.113.576-2.362 1.938z"/><path fill="#fed607" d="m118.636 98.935-.064.087c-1.712 1.098-3.651 1.94-5.687 2.489l-.018-.067a44 44 0 0 0 2.302-4.989h-.002a16 16 0 0 0 1.216-.675l.242-.065c.299 1.174.919 2.271 1.828 3.067q.09.08.183.153"/><path fill="#002140" d="M117.573 66.924c.339.238.572.685.434 1.076-.172.495-.795.644-1.316.653a6.4 6.4 0 0 1-1.639-.193l-.142.091a6.1 6.1 0 0 1-.893-2.449h.022q1.184.212 2.367.429c.407.075.828.155 1.167.393"/><path fill="#fed607" d="M115.167 96.453h.002a44 44 0 0 1-2.301 4.991l.017.067a21.7 21.7 0 0 1-5.363.753l-.051.022q-.133-.299-.273-.595l.115-.053c.933-1.24 1.768-2.04 2.601-3.35l-.026-.16c1.828-.31 3.629-.853 5.279-1.675"/><path fill="#fed607" d="m109.888 98.129.026.16c-.833 1.309-1.668 2.109-2.601 3.349l-.115.053a26.5 26.5 0 0 0-1.788-3.227l.027-.017a23.6 23.6 0 0 0 4.451-.318"/><path fill="#002140" d="M109.815 55.389a9.5 9.5 0 0 1-.213 2.01l-.113-.024a5.2 5.2 0 0 1-2.28.523 5.22 5.22 0 0 1-4.453-2.487l.033-.022 2.581-2.118-3.4-.627a5.25 5.25 0 0 1 3.711-5.029l.033-.046a9.49 9.49 0 0 1 4.101 7.82"/><path fill="#fffaf0" d="M102.756 55.411a5.22 5.22 0 0 0 4.453 2.487 5.2 5.2 0 0 0 2.28-.523l.113.025a9.4 9.4 0 0 1-.623 1.893c-1.484 3.296-4.789 5.587-8.626 5.587-5.224 0-9.46-4.249-9.46-9.491s4.236-9.491 9.46-9.491c.996 0 1.958.155 2.86.442a9.3 9.3 0 0 1 2.501 1.229l-.033.046a5.25 5.25 0 0 0-3.711 5.03l3.401.626-2.581 2.118zm3.988 89.922c.41 5.238-2.133 10.542-6.292 13.738s-9.637 4.553-15.659 3.062l-.23.018c-.078-1.12-.06-2.256.122-3.342l.186.031c2.778 1.242 6.54 1.037 9.378-.06 2.526-.976 4.836-2.558 6.54-4.667 1.706-2.107 2.876-4.751 2.871-7.464-.006-3.029-1.772-6.738-1.743-12.203l-.047-.064a69 69 0 0 1 3.283-2.209l.049.078c-.425 3.895 1.236 9.173 1.542 13.082"/><path fill="#f68dfe" d="m105.018 33.769-.024.31a19.1 19.1 0 0 0-5.774.447c-.108-2.94.147-5.948.694-8.84-2.641 2.29-4.98 4.983-6.797 7.974.122-2.247.737-4.433 1.349-6.6.257-.907.44-1.78 1.017-2.527a28.06 28.06 0 0 0-8.667 10.145l-.252.19c-1.97-2.602-4.323-4.935-6.875-6.96a52 52 0 0 0-5.372-3.715l.055-.09c-1.276-3.95-2.555-7.899-3.895-11.823-1.154-3.376-2.415-6.833-4.827-9.453l.026-.08c2.546.8 5.663 2.833 5.758 2.833A32 32 0 0 1 70.18.54l.093-.016c.993 1.923 2.369 3.236 4.013 4.396 7.439 5.247 16.38 8.404 22.865 14.8 4.203 4.144 6.618 8.271 7.867 14.049"/><path fill="#0185ff" d="M103.66 146.649c.005 2.713-1.165 5.357-2.871 7.464-1.704 2.109-4.014 3.691-6.54 4.667-2.838 1.097-6.6 1.302-9.378.06l-.186-.031c.228-1.365.72-2.649 1.615-3.727q.676.183 1.369.247c2.506.226 5.102-.705 7.019-2.372 2.268-1.973 3.489-4.524 3.939-7.502a12.2 12.2 0 0 1-.829-3.657c-.109-1.609.1-3.209.412-4.798l.188.035a64 64 0 0 1 3.472-2.653l.047.064c-.029 5.465 1.736 9.174 1.743 12.203"/><path fill="#0164bf" d="M101.07 112.206c.193 1.58.275 3.165.266 4.749-.007 2.065-.166 4.129-.425 6.189-.355 2.825-.898 5.638-1.502 8.429l-.125-.027c-1.468-.74-3.473-1.962-3.959-3.537-.177-.576-.183-1.189-.177-1.791.04-3.245.408-6.485 1.093-9.656.112-.52.239-1.049.522-1.498.282-.442.698-.778 1.121-1.086.75-.549 2.094-1.292 2.911-1.727z"/><path fill="#fbccff" d="m98.868 133.035.208.047q-.175.778-.352 1.551A74 74 0 0 0 98.21 137c-.312 1.589-.52 3.189-.412 4.798a12.2 12.2 0 0 0 .829 3.657c-.45 2.978-1.67 5.529-3.94 7.503-1.916 1.666-4.512 2.597-7.018 2.371l.018-.254c-.47-2.195-1.194-3.937-2.504-5.413-1.307-1.473-3.423-2.698-5.39-2.742-1.13-.027-2.22.315-3.186.9l-.024-.04c.009-.04-.352-1.327-.339-2.46.027-2.009.405-3.631 1.043-5.069l.058-.105a58 58 0 0 1 4.017 2.392 50 50 0 0 1 5.175 3.846q.634.537 1.232 1.091c.62.574 1.227 1.163 1.898 1.676.237.18.497.355.791.389.636.071 1.168-.578 1.217-1.218.088-1.107-.676-2.456-1.11-3.433a30 30 0 0 0-.758-1.587 37 37 0 0 0-1.141-2.069c-.975-1.644-2.063-3.22-3.208-4.749a84 84 0 0 0-1.553-2.013 58 58 0 0 0-.813-1.011l.137-.111c1.073-.736 2.778-1.403 4.068-1.574 2.463 1.02 4.712 2.325 6.95 3.776-.862-1.549-1.8-2.918-2.885-4.316 2.395-.093 5.707.703 7.506 1.8"/><path fill="#ff7101" d="M90.565 144.889c.434.977 1.198 2.326 1.11 3.433-.05.64-.581 1.289-1.217 1.218-.294-.034-.554-.209-.79-.389-.672-.513-1.279-1.102-1.9-1.676a37 37 0 0 0-1.231-1.091l.08-.093c.21-1.882 1.772-2.929 2.973-2.876l.217-.113q.402.783.757 1.587"/><path fill="#f68dfe" d="M77.542 196.609q-.05.038-.1.071c-1.298.88-2.99 1.269-4.472.755a3.88 3.88 0 0 1-2.409-4.713l-.055-.12q-.503.24-1.04.433c-1.125.409-2.873.756-3.987.314-1.548-.614-2.444-2.503-2.198-4.154.246-1.653 1.325-3.073 2.595-4.155s2.742-1.891 4.11-2.847c1.364-.956 3.194-2.173 3.938-3.667 1.407-2.824.552-6.28.078-8.784-.869-4.593-2.191-8.042-1.877-12.707.16-2.346.658-4.649 1.901-6.644a7.94 7.94 0 0 1 2.581-2.571c.966-.585 2.056-.927 3.186-.9 1.967.044 4.083 1.269 5.39 2.742 1.31 1.475 2.034 3.218 2.504 5.413l-.018.254a8 8 0 0 1-1.37-.247c-.894 1.078-1.386 2.362-1.614 3.727-.182 1.086-.2 2.222-.122 3.342q.028.443.075.88c.257 2.4.784 4.94 2.488 6.644l.013-.013c.966.478 1.912.898 2.839 1.271l-.025.062c.392 7.531.098 13.64-1.125 18.567-.822 3.315-2.167 6.915-4.894 8.964-.957.718-2.174.947-3.363.863-1.19-.085-2.581-1.256-2.894-2.589z"/><path fill="#ff7101" d="m89.807 143.302-.217.113c-1.201-.053-2.763.994-2.973 2.876l-.08.093a50 50 0 0 0-5.175-3.847l.042-.064c-.355-1.942.655-4.424 2.346-5.438.414-.249 1.376-.651 1.668-.522l.04-.029c1.145 1.529 2.233 3.105 3.208 4.749.4.678.784 1.367 1.14 2.069"/><path fill="#ff7101" d="m85.458 136.484-.04.029c-.292-.129-1.254.273-1.668.522-1.69 1.014-2.7 3.496-2.346 5.438l-.042.064a58 58 0 0 0-4.017-2.391q-.602-.33-1.212-.642l.06-.115c-.671-1.558-.804-3.872-.157-5.438.647-1.569 2.242-3.189 3.91-3.66l.144-.149c1.074 1.031 2.056 2.158 3.002 3.318q.412.5.813 1.011a84 84 0 0 1 1.553 2.013"/><path fill="#cf4cd9" d="M85.106 45.429c.07.035.104.093.024.093-5.587-.084-11.013-2.511-15.182-6.242a25 25 0 0 1-.955-.905l-.109-.11q.177-.172.35-.345c.306-.307 1.25-1.434.86-2.14-.419-.756-.705-1.334-1.33-2.038-.37-.415-.657-.971-1.174-1.178-.782-.313-2.113.358-2.346.865l-.066.04c-1.662-2.705-2.96-5.742-3.999-8.956l.035-.14c3.195.871 6.195 2.44 8.953 4.3C76.51 32.95 81.59 38.62 85.106 45.43"/><path fill="#fed607" d="m82.844 77.627.02.01c-.138 1.405-.632 2.567-1.42 3.572l-.091-.071a8.6 8.6 0 0 0-3.74.862l-.004-.23a8.5 8.5 0 0 1 1.068-1.95l-.01-.127a7.3 7.3 0 0 0 2.132-.466c.824-.318 1.628-.82 2.045-1.6"/><path fill="#ff7101" d="M79.835 129.895q.129.12.255.247l-.144.149c-1.668.471-3.263 2.091-3.91 3.66-.647 1.567-.514 3.88.157 5.438l-.06.115a59 59 0 0 0-6.006-2.686l.018-.045c-.886-1.987-1.139-3.991-.782-5.907.356-1.917 1.825-4.288 4.38-5.124l.029-.06a25 25 0 0 1 5.217 3.456q.432.367.846.757"/><path fill="#f68dfe" d="m61.214 134.931-.514.107c-2.011.497-4.145-.814-5.16-2.625a7 7 0 0 1-.478-1.058l-.22.083c-1.348.062-2.633-.767-3.384-1.896-.751-1.127-1.033-2.509-1.086-3.864-.122-3.096.906-6.24 2.909-8.598q.155-.183.321-.36c1.985-2.109 5.113-3.5 8.346-3.285l.221.018h.158c2.663 5.096 8.035 8.407 13.77 8.433l.032-.037.22.18c2.45.942 3.91 4.184 2.815 6.902l-.175.207a25 25 0 0 0-5.632-3.658c-.704-.334-2.607-1.12-4.61-1.809l-.055-.06a10.97 10.97 0 0 0-3.235 5.613c-.312 1.398-.339 2.894.168 4.234.508 1.337 2.092 2.604 3.479 2.951l.064.113c-1.03 1.378-3.01 1.838-4.646 1.309-1.429-.46-2.579-1.573-3.308-2.9"/><path fill="#fed607" d="m78.668 79.693.008.127c-.438.6-.8 1.258-1.067 1.95l.004.23a8.6 8.6 0 0 0-3 2.37l-.004.179q-.253 0-.505-.023l.013-.186a11.45 11.45 0 0 1-.233-4.789 5.6 5.6 0 0 1 1.055-.556q.35.164.716.294a7.4 7.4 0 0 0 3.013.404m-1.33 14.309.04.056a31 31 0 0 0-2.869 2.337l-.141-.144c-1.423-1.236-2.927-3.167-3.76-5.1l.057-.025c1.642 1.232 3.483 2.072 5.528 1.936l.024-.024q.534.526 1.121.964"/><path fill="#fed607" d="m73.672 89.104.2-.046c.088.386.207.76.352 1.108.442 1.067 1.154 2.045 1.993 2.872l-.024.024c-2.045.136-3.886-.704-5.528-1.936l-.057.025a8.3 8.3 0 0 1-.578-1.893c-.226-1.374-.226-2.82.062-4.187l.022.004a8.4 8.4 0 0 0 3.558 4.03"/><path fill="#fed607" d="m74.166 85.155-.007.011c-.547 1.143-.587 2.592-.288 3.892l-.199.046a8.4 8.4 0 0 1-3.558-4.029l-.022-.004c.228-1.102.645-2.153 1.276-3.076.702-1.022 1.664-1.886 2.517-2.444a11.45 11.45 0 0 0 .232 4.789l-.013.186a8 8 0 0 1-.9-.115c.295.273.619.522.962.744"/><path fill="#ff7101" d="M73.357 125.48q.209.096.415.202l-.03.06c-2.554.836-4.023 3.207-4.38 5.124-.356 1.916-.103 3.92.783 5.907l-.018.045a44 44 0 0 0-.815-.305l-.144.009-.064-.113c-1.387-.347-2.971-1.614-3.479-2.951-.507-1.34-.48-2.836-.168-4.234a10.97 10.97 0 0 1 3.235-5.613l.055.06c2.003.689 3.906 1.475 4.61 1.809"/><path fill="#fed607" d="M59.71 39.389a38 38 0 0 0 6.299-4.703l-.173-.188q-.339-.506-.658-1.03l.066-.04c.233-.506 1.564-1.177 2.347-.864.516.207.804.763 1.174 1.178.624.705.91 1.282 1.329 2.038.39.706-.554 1.833-.86 2.14q-.173.173-.35.344a30.5 30.5 0 0 1-7.517 5.367c-.46.233-.97.46-1.48.362-.545-.107-.946-.56-1.304-.984-.559-.663-1.117-1.362-1.336-2.2-.29-1.107.795-2.014 1.586-2.362l.275-.147q.245.467.507.93zm-2.479-9.647a2.39 2.39 0 0 1 2.384 2.391 2.366 2.366 0 0 1-2.269 2.391q-.055.003-.115.002a2.39 2.39 0 0 1-2.386-2.393c0-.749.343-1.418.882-1.858a2.38 2.38 0 0 1 1.504-.533"/><path fill="#ff7101" d="m53.518 116.642.084.078q-.165.177-.321.36c-2.003 2.358-3.03 5.502-2.909 8.598.053 1.355.335 2.737 1.086 3.864l-.235.016c-.791.128-2.085-.314-2.659-.994-.518-.613-.888-1.555-.99-2.351q-.073-.563-.097-1.104c-.03-.569-.02-1.123.026-1.671a15 15 0 0 1 .26-1.827c.106-.529.239-1.062.396-1.611l.04-.14c.11-.376.272-.76.478-1.129.452-.805 1.11-1.533 1.868-1.931 1.068-.562 2.045-.42 2.973-.158"/><path fill="#03d47c" d="m48.511 118.631.166.1a5.6 5.6 0 0 0-.478 1.129l-.04.14-.22-.063c-6.985-1.508-16.212-1.515-21.98-1.288-.529.02-1.07 0-1.563-.187-.421-.16-.809-.482-.955-.9a1 1 0 0 1-.058-.222c-.068-.489.198-.978.579-1.291a3 3 0 0 1 1.327-.611c5.082-.938 14.83.264 23.222 3.193"/><path fill="#03d47c" d="m47.94 119.938.219.062c-.157.549-.29 1.082-.397 1.611h-.188c-2.5-.507-6.733-.991-9.278-1.098-6.868-.291-17.081-.198-25.44.947v-.007c-1.146-.522-.778-1.835-.335-2.351.443-.513 1.086-.844 1.748-.987 2.705-.582 6.206-.584 9.117-.531l.055-.022c.146.418.534.74.955.9.494.187 1.034.207 1.564.187 5.767-.227 14.994-.22 21.98 1.289"/><path fill="#03d47c" d="M47.574 121.611h.188a15 15 0 0 0-.259 1.826l-.093-.006c-9.832-1.618-19.297-1.734-28.768 1.369-1.23.402-2.39.777-3.46 1.411l-.031-.051c-5.421.731-7.382 1.842-10.326 2.315-1.35.218-3.036.258-3.738-.918-.47-.784-.246-1.842.324-2.557.569-.714 1.406-1.171 2.262-1.485 2.472-.904 5.665-1.573 9.183-2.055 8.359-1.145 18.572-1.238 25.44-.947 2.545.107 6.779.591 9.278 1.098"/><path fill="#03d47c" d="m47.41 123.431.093.007a12 12 0 0 0-.027 1.671l-.11.004c-5.734-.784-9.95-1.073-15.956.225-4.582.991-8.92 2.857-13.32 4.477-1.107.407-1.375.576-2.523.843-.86.197-1.914.262-2.47-.425-.341-.422-.38-1.031-.21-1.544a3.9 3.9 0 0 1 .959-1.483c.428-.397.873-.72 1.336-.995 1.07-.633 2.23-1.009 3.46-1.411 9.471-3.102 18.936-2.987 28.768-1.369"/><path stroke="#002140" stroke-linecap="round" stroke-linejoin="round" d="M157.699 68.493c-1.595-13.489 3.303-25.13 11.498-26.575 8.694-1.531 17.799 8.989 20.34 23.5 2.544 14.508-2.443 27.513-11.134 29.044-6.629 1.169-13.499-4.673-17.513-13.947m-5.668-27.971c2.034-7.324 6.064-13.277 11.452-16.562l.071-.044.044-.027m-12.428 35.462c-1.093-6.666-.718-13.115.841-18.755m-.401 21.072-.011-.052a49 49 0 0 1-.341-1.75l-.062-.364"/><path stroke="#002140" stroke-linecap="round" stroke-linejoin="round" d="M173.927 33.373c13.45-1.862 26.809 11.296 30.048 29.787 1.319 7.529.76 14.798-1.26 20.964a36 36 0 0 1-.82 2.243h-.002a32 32 0 0 1-1.385 2.993 30 30 0 0 1-1.296 2.22h-.002c-3.41 5.309-8.253 8.969-14.033 9.989-7.277 1.282-14.577-1.88-20.311-7.951a35.6 35.6 0 0 1-3.285-4.045"/><path stroke="#002140" stroke-linecap="round" stroke-linejoin="round" d="M154.777 73.507a46 46 0 0 1-.39-1.983v-.009l-.024-.142a46 46 0 0 1-.672-7.435c-.033-4.056.499-7.894 1.514-11.32q.008-.038.02-.074c2.361-7.937 7.306-13.666 13.802-14.81 11.013-1.94 22.314 10.035 25.243 26.753 2.928 16.715-3.627 31.84-14.64 33.782-7.065 1.246-14.146-3.062-19.159-10.851l-.038-.056"/><path stroke="#002140" stroke-linecap="round" stroke-linejoin="round" d="M173.814 64.822c1.046.213 2.003 1.413 2.278 2.993.33 1.883-.428 3.59-1.695 3.812-1.265.222-2.559-1.123-2.889-3.003-.173-.99-.044-1.93.301-2.633.2-.409.472-.736.8-.944a1.63 1.63 0 0 1 1.205-.225m-7.231-28.858a4 4 0 0 0 .182.031c.724.1 3.549.272 7.22-2.333"/><path stroke="#002140" stroke-linecap="round" stroke-linejoin="round" d="m166.791 36.069-.026-.074-.02-.057-1.095-3.091-.006-.02m8.341.731-.062-.182-1.008-3.007"/><path stroke="#002140" stroke-linecap="round" stroke-linejoin="round" d="m170.919 27.911 1.73-.658a1.373 1.373 0 0 1 1.854 1.28c0 .554-.336 1.08-.884 1.287l-.797.302-7.172 2.725-.822.313a1.37 1.37 0 0 1-1.852-1.28c0-.556.337-1.08.884-1.287l1.374-.522 2.381-.904.479-.183.483-.184zm-10.295-14.822-5.53 1.895-.193.067-1.819 6.351 4.724-1.62 2.317-.796.547-.186 2.57-.882m1.903 11.913-12.061-8.429m14.449 7.542-9.659-8.97m-2.745-4.894 4.896 3.618m2.209-6.054-1.662 5.865m.054-5.42 1.575-.54.483-.167 1.575-.54 5.53-1.895.192-.067 5.317 3.902-4.727 1.622-2.313.794-.547.186-2.573.883-.932.32-.964.33m7.661 9.947 4.396-14.082m-6.811 14.776 2.149-12.96m-.815-5.556-1.664 5.865m-5.441-3.427 4.894 3.616m-3.306 1.782 3.736 10.96m4.486 36.042-2.346-14.353-3.049.313 3.049-7.06.638.875 2.57 3.527 1.249 1.716-3.128.393 2.346 14.353m-2.189 1.334-7.116-9.491-1.564 1.569-1.719-6.354 5.707 2.196-1.486 1.649 7.014 9.35.102.138m14.827 1.232c.251 1.43-.327 2.73-1.289 2.9-.964.17-1.949-.854-2.2-2.285-.25-1.433.328-2.731 1.292-2.9.961-.171 1.947.853 2.197 2.284m-8.664 23.403c.25 1.433-.328 2.73-1.292 2.9-.961.17-1.947-.854-2.197-2.285-.251-1.43.325-2.73 1.289-2.9s1.947.854 2.2 2.285m-7.898-45.051q.18-.1.381-.136c.964-.169 1.947.853 2.2 2.285.084.49.073.964-.016 1.382m10.497 9.513c.135.771-.175 1.469-.693 1.56-.519.091-1.048-.46-1.181-1.229-.135-.77.175-1.469.693-1.56.516-.09 1.046.46 1.181 1.23m-4.251-6.988c.135.77-.175 1.467-.694 1.558s-1.048-.458-1.181-1.229c-.135-.769.175-1.466.694-1.557.516-.092 1.045.457 1.181 1.228m-13.528 29.96c.135.77-.175 1.467-.693 1.558-.519.094-1.046-.458-1.181-1.227s.175-1.468.693-1.56c.516-.09 1.046.458 1.181 1.23m4.38 5.568c.133.77-.177 1.467-.693 1.558-.519.091-1.048-.458-1.183-1.229-.135-.769.175-1.466.693-1.558.519-.09 1.048.458 1.183 1.23m13.76-2.355c.135.77-.175 1.468-.693 1.56-.516.092-1.046-.46-1.181-1.228-.135-.771.175-1.469.693-1.56.519-.091 1.046.458 1.181 1.229m2.816-8.078c.135.77-.175 1.467-.693 1.558-.519.091-1.048-.458-1.184-1.229-.132-.769.178-1.467.694-1.558.518-.09 1.048.458 1.183 1.23m-24.944-13.883c.135.769-.175 1.467-.693 1.558-.519.09-1.046-.458-1.181-1.23-.135-.768.175-1.466.693-1.557.517-.091 1.046.458 1.181 1.229m3.598-11.844c.135.77-.177 1.468-.693 1.56-.519.09-1.048-.46-1.183-1.23s.175-1.468.693-1.56c.519-.09 1.048.46 1.183 1.23m-60.047-2.478a9.49 9.49 0 0 1 4.101 7.82 9.5 9.5 0 0 1-.213 2.01 9.4 9.4 0 0 1-.623 1.894c-1.484 3.296-4.789 5.587-8.626 5.587-5.224 0-9.46-4.249-9.46-9.491s4.236-9.491 9.46-9.491c.996 0 1.958.155 2.86.442a9.3 9.3 0 0 1 2.501 1.229"/><path stroke="#002140" stroke-linecap="round" stroke-linejoin="round" d="M109.489 57.375a5.2 5.2 0 0 1-2.28.523 5.22 5.22 0 0 1-4.453-2.487l-.015-.022m-.771-2.745a5.25 5.25 0 0 1 3.711-5.029m-2.892 7.774 2.581-2.118-3.4-.627m-9.921-5.575a12.4 12.4 0 0 1 1.271-3.998c.537-1.033 1.268-2.031 2.325-2.513a3.38 3.38 0 0 1 2.755-.01 3.4 3.4 0 0 1 1.824 2.076"/><path stroke="#002140" stroke-linecap="round" stroke-linejoin="round" d="M103.244 46.24a8.65 8.65 0 0 1 12.298-2.622 8.7 8.7 0 0 1 3.753 7.16q-.002.951-.195 1.842c-.842 3.915-4.314 6.847-8.468 6.847a8.7 8.7 0 0 1-1.497-.13"/><path stroke="#002140" stroke-linecap="round" stroke-linejoin="round" d="M118.997 52.598a4.8 4.8 0 0 1-2.089.477 4.79 4.79 0 0 1-4.078-2.275l-.014-.022m-.704-2.514a4.81 4.81 0 0 1 3.399-4.602m-2.648 7.116 2.362-1.938-3.113-.576m-9.083-5.102a11.3 11.3 0 0 1 1.165-3.662c.49-.947 1.159-1.858 2.127-2.3a3.1 3.1 0 0 1 2.523-.01 3.12 3.12 0 0 1 1.671 1.9m15.384 24.428a6.05 6.05 0 0 1 .219 2.422c-.33 3.064-2.918 5.449-6.059 5.449a6.09 6.09 0 0 1-5.149-2.838 6.15 6.15 0 0 1-.95-3.28c0-3.378 2.729-6.118 6.099-6.118 2.76 0 5.091 1.84 5.84 4.365"/><path stroke="#002140" stroke-linecap="round" stroke-linejoin="round" d="M125.713 63.57c-.459.174-.887.314-1.367.69-.388.304-.618.8-.634 1.293-.009.273.073.571.297.729.301.213.716.091 1.061-.038l.873-.326m-10.891 2.542c.534.135 1.088.2 1.639.193.521-.009 1.144-.158 1.316-.653.138-.391-.095-.838-.434-1.076-.339-.237-.76-.317-1.167-.393l-2.366-.431M70.273.524c.993 1.923 2.368 3.236 4.012 4.396 7.44 5.246 16.381 8.404 22.866 14.8 4.203 4.144 6.618 8.271 7.867 14.049M65.65 2.827c2.412 2.62 3.673 6.077 4.827 9.453 1.34 3.924 2.619 7.873 3.895 11.822"/><path stroke="#002140" stroke-linecap="round" stroke-linejoin="round" d="M86.816 34.678a28.06 28.06 0 0 1 8.667-10.145c-.576.747-.76 1.62-1.017 2.527-.611 2.167-1.227 4.353-1.35 6.6 1.818-2.991 4.157-5.685 6.798-7.973-.547 2.89-.802 5.9-.694 8.84a19.1 19.1 0 0 1 5.774-.447c4.411.315 8.729 2.098 11.97 5.109 2.721 2.526 4.67 5.775 7.256 8.442a24 24 0 0 0 1.993 1.833q.642.527 1.316 1.007a14 14 0 0 0 1.91 1.167 8 8 0 0 0 1.728.635c1.325.31 2.798.187 3.928-.575 1.13-.763 1.819-2.231 1.449-3.547.942 1.518 1.159 3.484.594 5.18-.563 1.695-1.753 3.138-3.184 4.204a9 9 0 0 1-2.237 1.24c2.335.678 5.082-.24 7.007-1.726.849-.658 1.635-1.531 1.744-2.602.633 2.422-.049 5-1.653 6.917-1.604 1.92-3.966 3.114-6.42 3.574 1.659.882 3.733.477 5.527-.076 1.573-.487 3.157-1.287 3.992-2.707.06 2.811-.937 5.53-2.758 7.667a11.65 11.65 0 0 1-7.22 3.947M65.479 2.687l.197.06c2.546.8 5.663 2.833 5.758 2.833a32.3 32.3 0 0 1-1.29-5.247M52.537 16.009c-.253-.271-2.052-3.905-2.54-6.031 1.8 2.43 3.496 3.882 5.816 5.244 2.038 1.196 4.243 2.073 6.42 2.989 4.143 1.742 8.246 3.653 12.084 5.982a52 52 0 0 1 5.372 3.716c2.552 2.024 4.905 4.358 6.875 6.96 2.069 2.729 3.715 5.753 4.734 9.024M52.539 16.011s.01.009.017.013q-.006-.001-.017-.013m0 0-.003-.002"/><path stroke="#002140" stroke-linecap="round" stroke-linejoin="round" d="M46.95 13.742c2.11.38 3.918.918 5.587 2.267m9.603 27.362c4.367 5.733 11.188 9.662 18.333 10.011a21 21 0 0 0 1.584.018M57.348 34.604a52 52 0 0 0 1.76 3.696q.245.467.507.931M46.911 13.78c3.78 3.855 5.978 8.967 7.878 14.027l.913 2.437m13.291 8.131q.464.465.955.905c4.169 3.73 9.595 6.158 15.182 6.242.08 0 .047-.058-.024-.093-3.516-6.81-8.596-12.48-14.94-16.756-2.757-1.86-5.757-3.429-8.952-4.3a22 22 0 0 0-2.22-.482"/><path stroke="#002140" stroke-linecap="round" stroke-linejoin="round" d="M61.179 24.513c1.039 3.214 2.337 6.251 3.999 8.956q.32.522.658 1.029m14.631 19.035c1.043 2.718 1.994 6.41 1.697 8.773-.295 2.363-1.412 4.67-3.28 6.143a5.8 5.8 0 0 1-1.541.895c-1.905.718-4.247.003-5.43-1.657-.044 2.324 1.814 4.342 3.999 5.117a7.2 7.2 0 0 0 5.425-.27c-.813 1.844-2.106 3.126-3.939 3.957-1.834.829-4.11.762-5.753-.4.746 1.298 1.936 2.28 3.294 2.904q.35.164.716.294a7.4 7.4 0 0 0 3.013.404 7.3 7.3 0 0 0 2.131-.466c.824-.318 1.628-.82 2.045-1.6l.018-.032"/><path stroke="#002140" stroke-linecap="round" stroke-linejoin="round" d="M82.864 77.638c-.138 1.404-.632 2.566-1.42 3.57-.488.62-1.086 1.18-1.78 1.7a8.33 8.33 0 0 1-5.56 1.618 8 8 0 0 1-.9-.115c.295.273.619.522.962.744 1.451.945 3.274 1.445 4.967 1.412 2.096-.04 4.136-.652 6.106-1.37-1.332 3.003-3.184 5.614-5.501 7.343m38.026-3.816c-.1-.506-.166-1.013-.209-1.493-.44-5.109.331-10.518 1.904-15.398-.727 4.718-.601 9.742.257 14.438.011-.149.051-.118.082-.264.305-1.447 1.993-2.343 3.427-2.007 1.435.335 2.505 1.678 2.78 3.13a5.8 5.8 0 0 1 .042 1.874 6.5 6.5 0 0 1-.828 2.385c-.552.942-1.456 1.809-2.508 2.09-1.447.39-3.002-.497-3.824-1.752-.558-.854-.913-1.93-1.123-3.003"/><path stroke="#002140" stroke-linecap="round" stroke-linejoin="round" d="M116.558 95.438q.03.14.067.277c.299 1.174.919 2.272 1.828 3.067q.09.08.183.153c.958.765 2.196 1.187 3.412 1.074.72-.07 1.411-.314 2.056-.642a8.36 8.36 0 0 0 3.011-2.603c1.159-1.626 2.187-4.133 2.639-6.082.602-2.591.994-5.178 1.267-7.78.317-3.02.474-6.06.609-9.147v-.013m-23.827 29.331a25 25 0 0 0-.605-1.382 26.5 26.5 0 0 0-1.788-3.227c-2.228-3.44-5.272-6.31-9.059-7.77-4.643-1.792-9.982-1.259-14.522.781a25 25 0 0 0-2.091 1.065c-.813.464-1.6.973-2.36 1.518a31 31 0 0 0-2.869 2.337 39 39 0 0 0-4.14 4.456c-3.115 3.893-5.599 8.249-8.065 12.582m.022.02c2.663 5.096 8.036 8.407 13.772 8.433l.03-.037c3.381-4.234 8.364-6.936 13.535-8.52a42 42 0 0 1 14.369-1.796m-41.862 1.92-.222-.018c-3.233-.215-6.36 1.176-8.346 3.285q-.165.177-.321.36c-2.003 2.358-3.03 5.502-2.909 8.598.053 1.355.334 2.737 1.086 3.864.75 1.129 2.036 1.958 3.385 1.896"/><path stroke="#002140" stroke-linecap="round" stroke-linejoin="round" d="M56.252 121.035c-1.139 1.496-1.522 3.434-1.669 5.311-.132 1.683-.088 3.438.479 5.009q.194.548.479 1.058c1.014 1.811 3.148 3.122 5.16 2.625m.843-11.074c-.939 1.778-1.349 3.458-1.413 5.329-.06 1.72.106 3.482.797 5.058q.13.294.286.58c.73 1.327 1.879 2.44 3.308 2.9 1.635.529 3.615.069 4.646-1.309"/><path stroke="#002140" stroke-linecap="round" stroke-linejoin="round" d="M68.889 123.431a10.97 10.97 0 0 0-3.432 5.793c-.312 1.398-.339 2.894.168 4.234.508 1.337 2.092 2.604 3.479 2.951"/><path stroke="#002140" stroke-linecap="round" stroke-linejoin="round" d="M69.312 136.513q.406.147.815.305a59 59 0 0 1 7.218 3.328 58 58 0 0 1 4.017 2.392 50 50 0 0 1 5.175 3.846q.634.537 1.232 1.091c.62.574 1.227 1.163 1.898 1.676.237.18.496.355.791.389.636.071 1.168-.578 1.216-1.218.09-1.107-.675-2.456-1.11-3.433a30 30 0 0 0-.757-1.587 37 37 0 0 0-1.141-2.069c-.975-1.644-2.063-3.22-3.208-4.749a84 84 0 0 0-1.553-2.013 58 58 0 0 0-.813-1.011c-.946-1.16-1.928-2.287-3.002-3.318a22 22 0 0 0-1.101-1.004 25 25 0 0 0-5.632-3.658c-.704-.334-2.607-1.12-4.61-1.809m7.601-1.642c2.45.942 3.91 4.184 2.816 6.902m-25.646-12.289c-.928-.262-1.905-.404-2.973.158-.758.398-1.416 1.126-1.868 1.931a5.6 5.6 0 0 0-.478 1.129l-.04.14a21 21 0 0 0-.397 1.611 15 15 0 0 0-.259 1.827 12 12 0 0 0-.026 1.671q.025.54.097 1.104c.102.796.472 1.738.99 2.351.574.68 1.868 1.122 2.659.994m66.685-40.865a3.56 3.56 0 0 1 2.902-.171 3.55 3.55 0 0 1 2.031 2.084m3.029-1.622c-.729-.575-2.763-.629-3.702.26m2.399-30.693 1.646-9.087 1.899-10.469m-1.303 21.074 2.63-8.431 2.426-7.778m-20.382 25.307-18.036 3.922m17.358-6.485-19.808 1.098"/><path stroke="#002140" stroke-linecap="round" stroke-linejoin="round" d="M73.743 125.742c-2.555.836-4.023 3.207-4.38 5.124s-.104 3.92.782 5.907m9.801-6.482c-1.668.471-3.263 2.091-3.91 3.66-.647 1.567-.514 3.88.157 5.438m9.225-2.876c-.292-.129-1.254.273-1.668.522-1.69 1.014-2.7 3.496-2.346 5.438m8.186.942c-1.2-.053-2.763.994-2.973 2.876m-38.106-27.66c-8.392-2.929-18.14-4.131-23.222-3.193a3 3 0 0 0-1.327.611c-.381.313-.647.802-.579 1.291a1 1 0 0 0 .058.222c.146.418.534.74.955.9.494.187 1.034.207 1.564.187 5.767-.227 14.994-.22 21.98 1.289m-.53 3.493c-9.832-1.618-19.297-1.733-28.768 1.369-1.23.402-2.39.778-3.46 1.411a7.8 7.8 0 0 0-1.336.995 3.9 3.9 0 0 0-.96 1.483c-.17.513-.13 1.122.211 1.544.556.687 1.61.622 2.47.425 1.148-.267 1.416-.436 2.524-.843 4.4-1.62 8.737-3.486 13.319-4.477 6.006-1.298 10.222-1.009 15.956-.225"/><path stroke="#002140" stroke-linecap="round" stroke-linejoin="round" d="M47.574 121.611c-2.5-.507-6.733-.991-9.278-1.098-6.868-.291-17.081-.198-25.44.947-3.518.482-6.71 1.151-9.183 2.055-.856.314-1.693.771-2.262 1.485-.57.715-.793 1.773-.324 2.558.702 1.175 2.388 1.135 3.738.917 2.944-.473 4.905-1.584 10.326-2.315m-2.295-4.707c-1.146-.522-.778-1.835-.335-2.351.443-.513 1.086-.844 1.748-.987 2.705-.582 6.206-.584 9.117-.531m51.555-38.589h-.002a5.6 5.6 0 0 0-1.054.556c-.854.558-1.815 1.422-2.517 2.444-.632.923-1.048 1.974-1.276 3.076-.288 1.367-.288 2.813-.062 4.187a8.3 8.3 0 0 0 .578 1.893c.833 1.933 2.337 3.864 3.76 5.1"/><path stroke="#002140" stroke-linecap="round" stroke-linejoin="round" d="M74.16 85.167c-.548 1.142-.588 2.59-.289 3.89.089.387.209.76.353 1.11.443 1.066 1.154 2.044 1.993 2.87q.534.528 1.121.965m-2.725-9.632a8.6 8.6 0 0 1 3-2.37 8.6 8.6 0 0 1 3.74-.862m-10.687 9.988c1.641 1.232 3.482 2.072 5.527 1.936m-6.079-7.987a8.4 8.4 0 0 0 3.558 4.03l-.138-.07m.355-9.517s-.004.022-.004.033a11.45 11.45 0 0 0 .232 4.789m3.492-2.57a8.5 8.5 0 0 1 1.068-1.95m26.76 18.626a23.6 23.6 0 0 0 4.451-.317c1.828-.312 3.629-.854 5.279-1.676q.625-.31 1.217-.673m-8.862 6.484a21.7 21.7 0 0 0 5.363-.753c2.036-.549 3.975-1.391 5.687-2.489"/><path stroke="#002140" stroke-linecap="round" stroke-linejoin="round" d="M115.169 96.455a44 44 0 0 1-2.302 4.989m-2.953-3.155c-.833 1.308-1.668 2.109-2.601 3.349m-6.329 9.917q.047.328.086.651c.193 1.58.275 3.165.266 4.749-.006 2.065-.166 4.129-.425 6.189-.355 2.825-.897 5.638-1.502 8.429q-.165.757-.333 1.509-.175.778-.352 1.551A76 76 0 0 0 98.21 137c-.312 1.589-.52 3.189-.412 4.798a12.2 12.2 0 0 0 .829 3.657c-.45 2.978-1.67 5.529-3.94 7.503-1.916 1.666-4.512 2.597-7.018 2.371a8 8 0 0 1-1.37-.247c-.894 1.078-1.386 2.362-1.614 3.727-.182 1.086-.2 2.222-.122 3.342q.028.443.075.88c.257 2.4.785 4.94 2.488 6.644"/><path stroke="#002140" stroke-linecap="round" stroke-linejoin="round" d="M100.795 112.251c-.817.435-2.162 1.178-2.91 1.727-.424.308-.84.644-1.122 1.086-.283.449-.41.978-.523 1.498a48.6 48.6 0 0 0-1.092 9.656c-.006.602 0 1.215.178 1.791.485 1.575 2.49 2.797 3.959 3.537m55.076-56.222q.158-.855.429-1.686c.612-1.887 1.644-3.647 3.022-5.032.988-.995 2.156-1.795 3.476-2.304 1.496-.576 3.182-.762 4.708-.276 1.527.49 2.856 1.716 3.241 3.276.43 1.74-.359 3.609-1.615 4.882-1.349 1.362-3.166 2.158-4.606 3.42a9.23 9.23 0 0 0-3.033 5.618c-.197 1.407-.002 2.851.486 4.196.257.715.598 1.4 1.005 2.035"/><path stroke="#002140" stroke-linecap="round" stroke-linejoin="round" d="M137.572 89.662c3.675.942 7.167.111 10.435-1.02 2.16-.749 4.083-1.647 5.678-3.14.751-.707 1.466-1.573 1.557-2.602.06-.691-.195-1.371-.507-1.987-1.321-2.6-3.709-4.515-5.096-7.08-.396-.733-.711-1.544-.669-2.377.047-.885.49-1.696.957-2.447 1.168-1.878 2.349-3.345 3.727-5.071m11.376 29.469a73 73 0 0 1-1.693 2.136c-1.774 2.166-3.677 4.226-5.802 6.044-2.816 2.406-6.484 4.513-10.031 5.566"/><path stroke="#002140" stroke-linecap="round" stroke-linejoin="round" d="M154.124 85.533c3.035 2.522 6.921 6.656 9.123 9.933M131.16 82.918a49.5 49.5 0 0 1 6.328 6.809c.718.933 1.395 1.88 2.04 2.837 1.848 2.738 3.43 5.563 4.958 8.465a90 90 0 0 1 2.953 6.153c1.979 4.553 3.596 9.304 4.744 14.144l.08.34q.48 2.055.839 4.127l.06.353a69 69 0 0 1 .906 8.3"/><path stroke="#002140" stroke-linecap="round" stroke-linejoin="round" d="M98.398 137.035a69 69 0 0 1 6.755-4.862c9.963-6.3 21.845-10.351 33.341-11.06 2.41-.149 4.854-.167 7.209.362 2.357.529 6.205 2.305 7.377 4.58m-18.791-40.077c.183 4.295-.435 7.96-1.653 11.177a25.3 25.3 0 0 1-2.111 4.289c-1.152 1.878-2.528 3.598-4.064 5.211-4.951 5.2-11.657 8.549-18.669 10.043-1.866.395-4.378.535-6.265.26"/><path stroke="#002140" stroke-linecap="round" stroke-linejoin="round" d="M139.528 92.564a34 34 0 0 1-1.768 6.96 36 36 0 0 1-2.204 4.887 34 34 0 0 1-2.597 4.075c-1.123 1.512-4.377 4.943-8.392 7.48-6.719 4.247-13.501 7.5-23.588 7.187"/><path stroke="#002140" stroke-linecap="round" stroke-linejoin="round" d="M130.706 101.482q2.342 1.42 4.684 2.836m-2.497-7.154a51 51 0 0 1 4.732 2.31l-.208-.163m-38.549 33.724c-1.799-1.097-5.111-1.893-7.506-1.8 1.086 1.398 2.023 2.767 2.885 4.316-2.238-1.451-4.487-2.756-6.95-3.776-1.29.171-2.995.838-4.068 1.574m-5.941 6.902c-.639 1.438-1.017 3.06-1.044 5.069-.013 1.133.348 2.42.339 2.46m11.104 7.295c-.47-2.195-1.194-3.938-2.504-5.413-1.307-1.473-3.423-2.698-5.39-2.742-1.13-.027-2.22.315-3.186.9a7.94 7.94 0 0 0-2.58 2.571c-1.244 1.995-1.742 4.298-1.902 6.644-.314 4.665 1.008 8.114 1.877 12.707.474 2.504 1.33 5.96-.078 8.784-.744 1.494-2.574 2.711-3.939 3.667-1.367.956-2.84 1.764-4.11 2.847-1.269 1.082-2.348 2.502-2.594 4.155-.246 1.651.65 3.54 2.198 4.154 1.114.442 2.862.095 3.988-.314q.536-.193 1.039-.433c3.764-1.771 6.252-5.311 7.231-9.451"/><path stroke="#002140" stroke-linecap="round" stroke-linejoin="round" d="M70.561 192.722a3.88 3.88 0 0 0 2.409 4.713c1.482.514 3.174.125 4.473-.755l.1-.071c1.249-.878 2.164-2.167 2.862-3.531a16.26 16.26 0 0 0 1.757-7.732"/><path stroke="#002140" stroke-linecap="round" stroke-linejoin="round" d="M77.677 196.8c.313 1.333 1.704 2.504 2.894 2.589s2.406-.145 3.363-.863c2.727-2.049 4.072-5.648 4.894-8.964 1.222-4.927 1.517-11.036 1.125-18.567m-2.813-1.333c.965.478 1.911.898 2.837 1.271 14.988 6.002 24.508-1.438 28.438-5.975 2.107-2.432 3.206-4.549 3.853-7.603m-20.352-22.909c-.028 5.465 1.737 9.174 1.744 12.203.004 2.713-1.165 5.357-2.871 7.464-1.704 2.109-4.015 3.691-6.54 4.667-2.838 1.097-6.6 1.302-9.378.06"/><path stroke="#002140" stroke-linecap="round" stroke-linejoin="round" d="M105.202 132.251c-.425 3.895 1.236 9.173 1.542 13.082.41 5.238-2.133 10.542-6.292 13.738s-9.637 4.553-15.659 3.062m33.702 2.902c2.893 1.569 9.965 2.191 14.613 1.258 4.579-.918 8.879-3.149 12.349-6.284 9.495 3.313 19.808 4.531 29.806 3.464m-21.239-28.833c3.558 3.266 7.24 6.475 11.465 8.811 4.142 2.291 8.748 4.258 13.538 4.811"/><path stroke="#002140" stroke-linecap="round" stroke-linejoin="round" d="M187.262 140.113c.472-5.44-.78-10.918-2.845-15.969-.416-1.022-.937-2.095-1.661-2.906-.499-.558-1.092-.991-1.815-1.207-1.309-.391-2.791.096-3.746 1.073-.957.978-1.411 2.38-1.398 3.749.007.691.122 1.371.288 2.042.149.616.339 1.223.521 1.827q.11.357.213.718a68 68 0 0 1 1.369 5.571c.875 4.391 1.28 8.855 1.059 13.262-.233 4.656-1.161 9.247-2.969 13.625-.228.553-.481 1.12-.74 1.697-.605 1.354-1.234 2.758-1.606 4.107-.53 1.927-.621 4.391.235 6.196.855 1.804 3.356 3.013 5.317 2.666m3.598-55.451c1.329-2.744 3.651-2.853 5.082-2.195.864.4 1.458 1.06 1.947 1.833.324.504.601 1.058.88 1.616 2.477 4.962 3.044 10.686 2.749 16.226"/><path stroke="#002140" stroke-linecap="round" stroke-linejoin="round" d="M190.275 120.644c.547-2.511 2.608-3.624 4.263-3.246 1.765.402 2.86 2.162 3.529 3.848a40 40 0 0 1 1.236 3.616c.295 1.031.547 2.071.744 3.122q.327 1.69.47 3.405c.842 10.224-.208 21.049-5.058 30.082-1.542 2.873-3.48 5.515-5.574 8.013-2.8 3.34-5.875 6.376-10.166 7.08m19.6-84.913c2.138 1.62 3.753 2.98 5.837 4.913.629.583 1.272 1.287 1.93 1.047.574-.209.864-.522 1.303-.889m-5.659-12.593a33.9 33.9 0 0 1 8.769 7.64c.206.25.412.517.481.833.182.807-.275 1.32-.933 1.82"/><path stroke="#002140" stroke-linecap="round" stroke-linejoin="round" d="M206.435 94.069c-.28-.663.217-1.094.547-1.425.259-.209.286-.289.625-.524.248-.171.469-.231.671-.218.352.02.64.256.893.48a14 14 0 0 1 1.874 2.042c1.407 1.865 2.322 3.973 2.884 5.894q.107.35.193.691c.082.317.313 1.089.366 1.413q.055.346.009.591c-.049.282-.189.469-.375.558-.374.184-1.511.367-2.031.42-.45.044-.672-.133-.811-.442-.098-.214-.158-.491-.228-.8a22 22 0 0 0-.472-1.743c-.503-1.593-1.175-3.008-2.101-4.349a17 17 0 0 0-1.655-2.026 2 2 0 0 1-.389-.562m-5.656-4.563c1.152.854 3.524 2.934 5.576 4.6m-4.325-7.684c1.877 1.202 4.744 3.607 6.254 5.28"/><path stroke="#002140" stroke-linecap="round" stroke-linejoin="round" d="M210.473 101.009c-.534.033-1.788.469-1.823 1.595-.053 1.674.416 3.714.47 7.765.006.542.026 1.795.39 2.195.363.402 1.674.376 2.215.367m2.162-12.602.042-.011c1.551-.391 2.756.275 3.009 1.895.39 2.509 1.017 8.705.547 9.802-.332.78-1.562 1.005-2.162.865"/><path stroke="#002140" stroke-linecap="round" stroke-linejoin="round" d="M211.809 110.738c.042-.554.251-.623.594-.891.782-.158 1.952-.407 2.266-.027q.084.101.158.271c.237.536.387 1.553.383 2.787-.009 2.106-.479 4.84-1.766 6.851q-.076.12-.162.231c-.633.858-1.42 1.209-1.661 1.389a2 2 0 0 1-.355.215c-.347.165-.633.138-.83-.009-.335-.249-.891-1.035-1.179-1.475-.268-.411-.191-.72.06-1.009.139-.165.339-.32.56-.487a4.35 4.35 0 0 0 1.197-1.373c.766-1.358.875-3.042.839-4.287-.013-.566-.06-1.042-.084-1.353a5 5 0 0 1-.02-.833"/><path stroke="#002140" stroke-linecap="round" stroke-linejoin="round" d="M210.996 117.166c-.274-.462-.731-1.148-1.847-1.035-.534.051-3.47 2.787-7.336 4.44-.496.213-1.156.638-1.342 1.147-.186.508.263 1.433.52 1.911m12.333-3.638c1.093 1.204 1.037 2.324-.217 3.398-1.916 1.637-6.881 4.626-8.813 4.851-.839.098-1.382-.749-1.535-1.349m8.445-23.32c.26 2.249.574 3.975.574 7.164m3.126-.68c.08-2.275.235-4.235-.352-7.033m-5.271 15.98-.013.009a29 29 0 0 1-6.039 3.802"/><path stroke="#002140" stroke-linecap="round" stroke-linejoin="round" d="M205.15 125.318c2.64-.989 3.89-1.929 6.13-3.723m-12.015 3.285.038-.018c.565-.273 1.163-.553 1.768-.858a25 25 0 0 0 1.861-1.026q.16-.1.301-.156c.933-.384 1.285.467 1.52.951.113.313.179.365.29.762.084.298.062.527-.022.714-.142.311-.456.5-.733.684-.527.349-1.044.64-1.558.9-.808.409-1.613.74-2.448 1.104m-24.21-1.039c-1.624.077-3.19.093-5.08.057-.855-.015-1.804-.111-2.136.507-.288.54-.297.967-.383 1.533m9.524 6.054a32.7 32.7 0 0 1-8.614-.309c-.31-.051-.631-.114-.886-.3-.653-.474-.658-1.142-.509-1.929"/><path stroke="#002140" stroke-linecap="round" stroke-linejoin="round" d="M171.67 129.698c.664.328.587.931.558 1.404-.055.329-.022.407-.12.807a1.3 1.3 0 0 1-.181.426c-.275.394-.742.42-1.159.423-.804.002-1.761-.158-2.769-.414-2.138-.542-4.504-1.506-6.102-2.226-1.074-.485-1.803-.86-1.883-.925a1.2 1.2 0 0 1-.173-.171c-.33-.398-.352-.927-.243-1.189.157-.387.531-.973.886-1.36a.9.9 0 0 1 .545-.298c.428-.069.917.156 1.382.403l.264.14c2.005 1.055 3.596 1.773 5.793 2.304.765.184 1.604.347 2.559.491.268.04.479.105.643.185m4.92-.191c-.959.066-3.086.04-4.865.084m5.805 3.104c-1.912.136-4.125.143-5.636-.02h-.014m-8.791-6.202c.211-.493.886-2.195-.434-2.838-1.502-.728-2.707-1.093-6.343-2.862-.485-.235-1.719-1.098-2.762-.94-.534.08-1.015.976-1.252 1.465m9.593 8.835c-.332 1.593-1.4 2.282-2.971 1.778-1.207-.387-3.257-1.205-5.1-2.04m7.194-3.802c-2.121-.774-3.632-1.723-6.474-3.151m-1.433 3.197.057.031c1.972 1.08 3.806 2.169 6.538 2.889m-7.315-7.397c.556.364 1.169.733 1.858 1.122q.16.09.282.178c.844.615.503 1.24.286 1.733-.169.289-.164.371-.397.713-.388.571-.864.542-1.303.407M58.45 40.109q.636-.346 1.26-.72a38 38 0 0 0 6.299-4.702q.557-.511 1.092-1.045"/><path stroke="#002140" stroke-linecap="round" stroke-linejoin="round" d="M58.833 38.447c-.791.348-1.877 1.255-1.586 2.362.219.838.777 1.538 1.336 2.2.358.424.76.878 1.304.984.51.098 1.02-.129 1.48-.362q.36-.18.714-.371a30.5 30.5 0 0 0 7.153-5.34c.306-.307 1.25-1.433.86-2.14-.419-.756-.705-1.333-1.33-2.038-.37-.415-.657-.97-1.173-1.178-.783-.313-2.114.358-2.347.865m-9.517-3.154a2.38 2.38 0 0 1 1.504-.533 2.39 2.39 0 0 1 2.384 2.391 2.366 2.366 0 0 1-2.269 2.391q-.055.003-.115.002a2.39 2.39 0 0 1-2.386-2.393c0-.749.343-1.418.882-1.858"/><path fill="#fffaf0" stroke="#fffaf0" stroke-miterlimit="10" d="M192.958 52.487c2.867 5.882 3.884 10.64 4.508 16.39.625 5.752-.443 9.805 2.269 10.119 2.712.313 3.977-2.587 2.736-12.314-.859-6.744-3.454-14.013-9.382-21.255-5.395-6.59-9.38-8.003-10.322-7.058-.742.744-.339 1.047 1.538 2.509 1.876 1.464 5.897 5.955 8.653 11.609ZM177.762 35.86c.782-.431 2.229.195 2.346.824.118.63-.547 1.256-1.486.943-1.296-.434-1.642-1.334-.86-1.765z"/></g><defs><clipPath id="a"><path fill="#fff" d="M.5 0h218v200H.5z"/></clipPath></defs></svg>