<svg xmlns="http://www.w3.org/2000/svg" xml:space="preserve" id="Layer_1" x="0" y="0" viewBox="0 0 40 26"><style>.st0{fill:#296bb4}.st1,.st2{fill-rule:evenodd;clip-rule:evenodd;fill:#fff}.st2{fill:#296bb4}</style><path d="M0 0h40v26H0z" class="st0"/><path d="M18.442 24.448V12.332H40v3.342l-2.507 2.674L40 21.022v3.426h-3.927l-2.173-2.34-2.089 2.34z" class="st1"/><path d="M19.862 23.111v-9.443h8.022v2.173h-5.432v1.421H27.8v2.172h-5.348v1.421h5.432v2.256z" class="st2"/><path d="m27.884 23.111 4.428-4.763-4.428-4.68h3.426l2.674 2.925 2.757-2.925H40l-4.345 4.68L40 22.944v.167h-3.342L33.9 20.103l-2.674 3.008z" class="st2"/><path d="M19.444 1.552h5.181l1.838 4.095V1.552h6.434l1.087 3.092 1.17-3.092H40v12.116H14.096z" class="st1"/><path d="m20.447 2.889-4.178 9.442h2.841l.752-1.922h4.262l.752 1.922H27.8l-4.178-9.442zm.334 5.432 1.253-3.008 1.253 3.008zm7.103 4.011V2.889h4.094l2.089 5.766 2.089-5.766H40v9.443h-2.507V5.814l-2.339 6.518h-2.257l-2.423-6.518v6.518z" class="st2"/></svg>