<svg xmlns="http://www.w3.org/2000/svg" xmlns:xlink="http://www.w3.org/1999/xlink" id="Layer_1" x="0" y="0" version="1.1" viewBox="0 0 40 26" style="enable-background:new 0 0 40 26" xml:space="preserve"><style type="text/css">.st0{fill:#296bb4}.st1,.st2{fill-rule:evenodd;clip-rule:evenodd;fill:#fff}.st2{fill:#296bb4}</style><rect width="40" height="26" class="st0"/><g><polygon points="18.442 24.448 18.442 12.332 40 12.332 40 15.674 37.493 18.348 40 21.022 40 24.448 36.073 24.448 33.9 22.108 31.811 24.448" class="st1"/><polygon points="19.862 23.111 19.862 13.668 27.884 13.668 27.884 15.841 22.452 15.841 22.452 17.262 27.8 17.262 27.8 19.434 22.452 19.434 22.452 20.855 27.884 20.855 27.884 23.111" class="st2"/><polygon points="27.884 23.111 32.312 18.348 27.884 13.668 31.31 13.668 33.984 16.593 36.741 13.668 40 13.668 40 13.668 35.655 18.348 40 22.944 40 23.111 36.658 23.111 33.9 20.103 31.226 23.111" class="st2"/><polygon points="19.444 1.552 24.625 1.552 26.463 5.647 26.463 1.552 32.897 1.552 33.984 4.644 35.154 1.552 40 1.552 40 13.668 14.096 13.668" class="st1"/><path d="M20.447,2.889l-4.178,9.442h2.841l0.752-1.922h4.262l0.752,1.922H27.8l-4.178-9.442L20.447,2.889L20.447,2.889 z M20.781,8.321l1.253-3.008l1.253,3.008H20.781L20.781,8.321z" class="st2"/><polygon points="27.884 12.332 27.884 2.889 31.978 2.889 34.067 8.655 36.156 2.889 40 2.889 40 12.332 37.493 12.332 37.493 5.814 35.154 12.332 32.897 12.332 30.474 5.814 30.474 12.332" class="st2"/></g></svg>