<svg xmlns="http://www.w3.org/2000/svg" xml:space="preserve" id="Layer_1" x="0" y="0" viewBox="0 0 40 26"><style>.st0{fill:#fff}.st1{fill:#d13028}.st2{fill:#004a77}</style><path d="M0 0h40v26H0z" class="st0"/><g id="Calque_3"><path d="M23.848 13.992a123 123 0 0 1-3.15 2.05h-.073v.074h.147c.952-.513 2.124-1.099 3.223-1.758-.073-.147-.147-.293-.147-.366m6.007-4.835c-1.465-1.612-10.695-.147-14.577.66h-.074v.072h.147c3.223-.586 10.036-1.391 11.5.074.44.44.367 1.025-.219 1.685.293.22.513.512.586.805 1.832-1.318 3.223-2.637 2.637-3.296" class="st1"/><path d="M24.361 13.552c0 .586.367 1.026.806 1.026.88 0 1.245-1.1 1.245-1.758 0-.586-.44-1.026-.805-1.026-.733-.073-1.246 1.026-1.246 1.758m-.44 0c0-.952.66-1.904 1.759-1.904.66 0 1.172.512 1.245 1.245.073 1.025-.66 1.905-1.758 1.905-.733 0-1.172-.513-1.245-1.246m-10.329-.292c-.074 0-.074 0-.147.072-.073 0-.22 0-.366.074-.147 0-.22.073-.22.073v.073c0 .073 0 .073.073.147.074 0 .147.073.22.073s.147 0 .22-.073c.073 0 .146-.074.22-.074.073 0 0-.073 0-.146zm1.025-.514c0 .074 0 .147-.073.293l-.146.88c0 .073 0 .146.073.22v.072h-.88v-.22l-.439.22c-.147.073-.293.074-.44.074-.292 0-.512 0-.585-.147-.147-.146-.22-.22-.147-.366 0-.073.073-.22.147-.293.073-.073.146-.147.293-.147-.074-.146.073-.22.22-.22s.439-.073.659-.073c.146 0 .293-.073.293-.073.073 0 .073-.073.073-.073 0-.073 0-.147-.147-.147-.366-.073-.952.074-1.245.147l.22-.44c.44-.073.806-.073 1.245-.073.66-.146.88.073.88.366m2.636 1.319.367-1.758h.879l-.366 1.758zm.367-2.198c0-.146.293-.293.513-.293.293 0 .512.147.44.293 0 .147-.294.293-.587.293-.22 0-.44-.146-.366-.293m3.956 1.393c-.074 0-.074 0-.147.072-.073 0-.22 0-.366.074-.147 0-.22.073-.22.073-.073 0-.073.073-.073.146s0 .074.073.147c.073 0 .147.073.22.073h.22c.074 0 .146-.073.22-.073 0 0 .073-.073.073-.147-.074-.146-.074-.22 0-.366m.879-.514c0 .074 0 .147-.074.293l-.146.88c0 .073 0 .146.073.22h-.879v-.22l-.44.22c-.146.072-.293.072-.439.072-.293 0-.513 0-.586-.146-.147-.147-.22-.22-.147-.366 0-.074.074-.22.147-.293.073-.074.146-.147.293-.147.146 0 .22-.073.366-.146.147 0 .44-.074.66-.074.146 0 .293-.073.293-.073.073 0 .073-.073.073-.146s0-.147-.147-.147c-.366-.073-.952.073-1.245.147l.146-.513c.44-.073.806-.073 1.246-.073.586 0 .806.22.806.512m-10.622.734c-.293.073-.44.073-.733.073-.44 0-.732-.22-.732-.586 0-.293.366-.732 1.098-.732q.33 0 .66.22l.146-.733c-.366-.147-.586-.147-.879-.147-.952 0-1.905.513-2.051 1.392-.147.952 1.026 1.172 1.538 1.172.293 0 .586 0 .88-.073zm7.105-1.172.074-.366.879-.22-.147.586h.44l-.074.366h-.44l-.292 1.465h-.88l.294-1.465h-.366l.073-.366zm4.835-.659-.44 2.417h-.878l.512-2.417zm-7.692 1.098c-.146 0-.22.074-.293.147-.146.073-.22.146-.22.293 0 .146 0 .293.074.366.073.073.146.147.293.147.073 0 .146 0 .22-.074.073-.073.146-.073.146-.146.073-.073.073-.147.073-.22 0-.146 0-.293-.073-.366 0-.073-.146-.147-.22-.147m-1.538 1.978.44-2.417h.732l-.073.366c.073-.073.22-.146.366-.22.147-.073.366-.146.513-.146.22 0 .366 0 .513.073.146.073.293.22.293.366-.074.074-.074.22-.074.44-.073.293-.22.586-.439.66-.22.072-.44.219-.733.219h-.293c-.073 0-.146-.073-.22-.073-.073 0-.073-.074-.146-.147l-.146.806h-.733zm15.823-1.831q0-.22-.22-.22c-.366 0-.732.66-.805.952.586.074 1.025-.293 1.025-.732m.073 1.099c-.146.44-.512.659-.879.659-.366 0-.586-.22-.586-.66 0-.732.66-1.464 1.319-1.464.293 0 .513.146.513.44 0 .585-.806.805-1.392.805v.22c0 .293.146.512.513.512.073 0 .366-.22.512-.512" class="st2"/><path d="M26.925 12.893h.22c.073 0 .146 0 .146.073s-.073.293-.073.366l-.146.586c-.074.293-.147.513-.147.66h.366l.22-.953c.586-.586.806-.805.953-.805.073 0 .146 0 .146.146 0 .147-.073.366-.073.44l-.22.659c-.073.146-.073.293-.073.44q0 .22.22.22c.293 0 .439-.294.586-.587l-.074-.073c-.073.146-.22.366-.366.366-.073 0-.073 0-.073-.073s0-.22.073-.293l.22-.806c.073-.22.073-.366.073-.44q0-.22-.22-.22c-.22 0-.586.147-1.172.88l.073-.366c.074-.22.074-.44.147-.586-.147.22-.513.293-.806.366" class="st2"/></g></svg>