<svg xmlns="http://www.w3.org/2000/svg" xml:space="preserve" id="Layer_1" x="0" y="0" viewBox="0 0 40 26"><style>.st0{fill:#0e9fdb}.st1{fill-rule:evenodd;clip-rule:evenodd;fill:#fff}</style><path d="M0 0h40v26H0z" class="st0"/><g id="Calque_3"><path d="M29.035 11.7c0 .585-.65 1.105-1.3 1.105-.39 0-.715-.26-.715-.455 0-.065 0-.39.195-.39.26 0 .455.52.845.52.26 0 .52-.195.52-.52 0-.39-.65-.715-.65-1.365s.65-1.43 1.365-1.43c.325 0 .455.195.455.39 0 .13-.13.325-.325.325-.26 0-.455-.195-.65-.195s-.455.195-.455.52c.065.455.715.845.715 1.495m-12.675.195c-.39.455-.845.91-1.365.91-.195 0-.26-.13-.26-.26 0-.455.91-1.885.91-2.47 0-.195-.065-.26-.26-.26-.52 0-1.69 1.495-2.08 2.795 0 .065-.13.13-.325.13s-.26 0-.26-.13.78-2.145 1.17-3.185c.325-.91.585-1.56.585-1.755 0-.13-.065-.195-.26-.195h-.26v-.13h1.04c.065 0 .13 0 .13.065s-.26.78-.715 2.08c-.39.91-.52 1.3-.52 1.3s.975-1.495 1.69-1.495c.325 0 .52.195.52.585 0 .65-.715 2.08-.715 2.275 0 .065.065.13.13.13.13 0 .455-.325.585-.52zc0-.065 0 0 0 0" class="st1"/><path d="M12.655 11.96c-.065.195-.65.78-1.43.78s-.91-.52-.975-.91c0-1.43 1.625-2.6 2.535-2.6.52 0 .65.325.65.52 0 .13-.13.26-.26.26-.325 0-.39-.52-.715-.52-.52 0-1.625 1.56-1.56 2.405 0 .455.325.585.585.585.325 0 .585-.26.78-.39.13-.065.26-.195.26-.195zm7.735-1.755c.065.065.065.065.13 0 .13-.13.455-.52.52-.52s.13.065.13.195c0 .52-.845 2.535-.845 2.665 0 .065 0 .13.065.13h.26c.065 0 .065-.065.13-.13 0 0 .13-.39.26-.52.585-1.3.975-1.885 1.235-2.145.52-.52.52 0 .715 0s.325-.195.325-.39c0-.26-.195-.325-.325-.325-.52 0-.845.52-1.495 1.56-.065.065-.065.13-.13.13 0 0-.065 0-.065-.065s.325-1.17.325-1.365-.065-.26-.26-.26c-.195.065-.845.715-.975 1.04m-.455-.91-.195-.13s-.065-.065-.065 0c-.13.065-.13.195-.26.195s-.26-.065-.52-.065c-1.56 0-2.405 2.145-2.405 2.795 0 .52.26.65.52.65.39 0 .78-.195 1.365-.975.13-.195.13-.26.195-.26 0 0 .065 0 .065.065s-.26.52-.26.845c0 .26.065.325.26.325.455 0 .975-.65 1.17-.975l-.13-.065c-.195.195-.52.585-.585.585s-.13 0-.13-.13c0-.325.975-2.6.975-2.73zm-2.535 2.99c-.195 0-.26-.065-.26-.39 0-.975.78-2.47 1.625-2.47.325 0 .455.26.455.52 0 .455-1.105 2.34-1.82 2.34m9.425-.325c-.26.065-.65.455-1.04.455s-.585-.26-.585-.585c0-.52.26-.845.39-1.105h.455c.52 0 1.625-.26 1.625-.91 0-.325-.26-.52-.65-.52-.975 0-2.405 1.365-2.405 2.6 0 .52.39.975.91.975.52-.065 1.105-.65 1.3-.91m-1.17-1.43c.13-.195.65-1.105 1.105-1.105.195 0 .325.195.325.39 0 .39-.585.65-1.43.715m-1.43 1.365c-.325.39-.715.91-1.17.91-.325 0-.455-.195-.455-.52 0-.455.91-2.665 1.04-2.86.39-.91.65-1.56.65-1.755q0-.195-.195-.195h-.26v-.13h1.04c.065 0 .13 0 .13.065s-.325.78-.78 2.145c-.455 1.17-.91 2.47-.91 2.665 0 .13 0 .13.13.13s.39-.195.78-.455q.098 0 0 0m-12.22 2.99c-.065-.325-.26-.585-.65-.585-.325 0-.52.26-.52.52q0 .487.585.585l.13.065c.39.195.715.455.715.975 0 .585-.52.975-1.105.975-.195 0-.39-.065-.52-.065-.195-.065-.325-.13-.39-.13v-.78l.13-.065c.13.325.39.845.845.845.325 0 .52-.26.52-.52 0-.325-.13-.52-.52-.65l-.195-.065c-.325-.195-.78-.455-.78-.975s.39-.91 1.04-.91c.13 0 .325 0 .455.065.065 0 .13.065.195.065 0 .195.065.39.065.65m3.38.065c-.195-.52-.52-.715-.91-.715-.78 0-1.17.65-1.17 1.43 0 .91.455 1.56 1.17 1.56.52 0 .78-.325 1.04-.78h.13c-.065.26-.195.585-.26.78-.13.065-.585.13-.91.13-1.3 0-1.82-.845-1.82-1.625 0-1.04.78-1.69 1.885-1.69.455 0 .715.13.91.13.065.325.065.52.065.78zm1.885-.845v.13c-.39 0-.455.065-.455.585v.65h1.56v-.65c0-.52-.065-.52-.455-.585v-.13h1.495v.13c-.39 0-.455.065-.455.585v1.69c0 .52.065.52.455.585v.13H17.92v-.13c.455 0 .455-.065.455-.585v-.845h-1.56v.845c0 .52.065.52.455.585v.13h-1.43v-.13c.39 0 .455-.065.455-.585v-1.69c0-.52-.065-.52-.455-.585v-.13zm4.81.065.845 2.405c.195-.585.455-1.56.52-1.82.065-.325.065-.39-.195-.39h-.195v-.13h1.235v.13c-.325 0-.39.065-.52.52-.065.195-.455 1.235-.845 2.6H22.6l-.78-2.47-.78 2.34h-.26l-.78-2.6c-.13-.455-.26-.455-.52-.52v-.13h1.365v.13h-.13c-.195 0-.26.065-.195.325l.52 1.95.715-2.405zm3.12.715.455 1.105h-.78zm.13-.78-1.04 2.535c-.195.455-.26.52-.52.52v.13h1.17v-.13h-.13c-.26 0-.26-.065-.195-.39.065-.195.195-.52.26-.585h.91c.13.26.26.52.26.715.065.195.065.26-.13.26h-.13v.13h1.3v-.13c-.325 0-.39-.065-.52-.52a8.3 8.3 0 0 1-.715-1.69l-.39-.91zm2.795.455c0-.13 0-.195.065-.26h.26c.325 0 .585.13.585.585s-.26.585-.65.585h-.195zm-.91-.455v.13c.39 0 .39.065.39.585v1.69c0 .52-.065.52-.455.585v.13h1.235c.39 0 .715-.065.91-.195.26-.195.455-.39.455-.715 0-.52-.39-.78-.91-.845.325-.065.715-.325.715-.715 0-.26-.13-.455-.325-.52-.065-.065-.26-.13-.65-.13zm1.105 1.625c.52 0 .845.26.845.715 0 .52-.39.65-.65.65s-.39-.065-.39-.52v-.845z" class="st1"/></g></svg>