<svg xmlns="http://www.w3.org/2000/svg" xmlns:xlink="http://www.w3.org/1999/xlink" id="Layer_1" x="0" y="0" version="1.1" viewBox="0 0 40 26" style="enable-background:new 0 0 40 26" xml:space="preserve"><style type="text/css">.st0{fill:#1957a3}.st1{fill:#fff}</style><rect width="40" height="26" class="st0"/><path d="M17.824,5.211c-0.312,0-0.52,0.26-0.52,0.52v3.846h10.239l-4.678-4.366H17.824 M27.802,10.824	c0-0.312-0.26-0.52-0.52-0.52l0,0h-3.846v10.239l4.418-4.626v-5.093 M22.189,20.802c0.312,0,0.52-0.26,0.52-0.52v-3.846H12.522	l4.626,4.418h5.041 M12.211,15.189c0,0.312,0.26,0.52,0.52,0.52l0,0h3.846V5.522l-4.366,4.626V15.189" class="st1"/></svg>