<svg xmlns="http://www.w3.org/2000/svg" xml:space="preserve" id="Layer_1" x="0" y="0" viewBox="0 0 40 26"><style>.st0{fill:#008656}.st1{fill:#fff}</style><path d="M0 0h40v26H0z" class="st0"/><path id="Calque_4" d="M12.07 18.59c-1.365 0-1.82-.91-1.82-1.885 0-1.235.65-2.08 1.95-2.08.26 0 .585.065.845.13l-.13.65c-.26-.065-.52-.13-.78-.13-.715 0-1.105.585-1.105 1.3 0 .845.39 1.365 1.17 1.365.26 0 .585-.065.78-.195l.065.65c-.26.13-.65.195-.975.195m2.015-3.12c-.26 0-.455-.195-.455-.455s.195-.455.455-.455.455.195.455.455-.26.455-.455.455m-.39.195h.78v2.86h-.78zm2.6 2.925c-.65 0-.845-.26-.845-.91v-1.43h-.52v-.585h.52v-.91l.78-.195v1.105h.715v.585h-.78v1.3c0 .39.065.455.325.455.13 0 .26 0 .39-.065v.585c-.195.065-.39.065-.585.065m1.69-3.12c-.26 0-.455-.195-.455-.455s.195-.455.455-.455.455.195.455.455-.26.455-.455.455m-.39.195h.78v2.86h-.78zm1.365 2.86v-.52l1.17-1.755h-1.17v-.65h1.95v.52l-1.17 1.69h1.17v.715zm5.07-1.235h-1.82q0 .78.78.78c.26 0 .585-.065.845-.195l.065.585c-.325.13-.715.195-1.04.195-.91 0-1.43-.455-1.43-1.495 0-.91.52-1.56 1.365-1.56s1.235.585 1.235 1.3c.065.13 0 .26 0 .39m-1.235-1.105c-.325 0-.52.26-.585.585h1.105c0-.39-.195-.585-.52-.585m3.64 2.34V16.64c0-.325-.065-.455-.39-.455-.39 0-.65.455-.65.975v1.43h-.78v-2.86h.715c0 .13 0 .39-.065.52.195-.325.52-.585.975-.585.65 0 .845.455.845.91v2.015zm2.08.065c-.195 0-.455 0-.585-.065v-.65c.195.065.39.065.65.065s.455-.13.455-.325c0-.52-1.17-.195-1.17-1.235 0-.52.39-.91 1.235-.91.195 0 .39 0 .52.065v.585c-.195-.065-.325-.065-.52-.065-.325 0-.455.13-.455.325 0 .455 1.17.26 1.17 1.235-.065.585-.52.975-1.3.975m-5.525-6.305a.51.51 0 0 1-.715 0L21.17 11.05v.845c0 .325-.195.52-.52.52a.513.513 0 0 1-.52-.52v-1.04c0-.26.13-.39.325-.455.325-.13.585-.39.715-.715a.49.49 0 0 1 .455-.325h.975c.26 0 .52.26.52.52s-.195.52-.52.52h-.845l1.235 1.235c.26.13.26.455 0 .65m0-6.045a.51.51 0 0 1 0 .715L21.755 8.19h.845c.325 0 .52.195.52.52s-.26.52-.52.52h-1.04c-.26 0-.39-.13-.455-.325a1.3 1.3 0 0 0-.715-.715.49.49 0 0 1-.325-.455V6.63c0-.26.26-.52.52-.52s.52.195.52.52v.845L22.34 6.24c.13-.195.455-.195.65 0m-5.98 0a.51.51 0 0 1 .715 0l1.235 1.235V6.63c0-.325.195-.52.52-.52s.52.26.52.52v1.04c0 .26-.13.39-.325.455-.325.13-.585.39-.715.715a.49.49 0 0 1-.455.325h-1.04c-.26 0-.52-.26-.52-.52s.195-.52.52-.52h.845L17.075 6.89c-.325-.195-.325-.455-.065-.65m0 6.045a.51.51 0 0 1 0-.715l1.235-1.235H17.4c-.325 0-.52-.195-.52-.52s.26-.52.52-.52h1.04c.26 0 .39.13.455.325.13.325.39.585.715.78.195.065.325.26.325.455v1.04c0 .26-.26.52-.52.52a.513.513 0 0 1-.52-.52v-.845l-1.235 1.235c-.13.195-.455.195-.65 0" class="st1"/></svg>