<?xml version="1.0" encoding="utf-8"?>
<!-- Generator: Adobe Illustrator 27.3.1, SVG Export Plug-In . SVG Version: 6.00 Build 0)  -->
<svg version="1.1" id="Layer_1" xmlns="http://www.w3.org/2000/svg" xmlns:xlink="http://www.w3.org/1999/xlink" x="0px" y="0px"
	 viewBox="0 0 40 26" style="enable-background:new 0 0 40 26;" xml:space="preserve">
<style type="text/css">
	.st0{fill:#008656;}
	.st1{fill:#FFFFFF;}
</style>
<rect class="st0" width="40" height="26"/>
<g id="Calque_3_00000023244031827351939090000010617725868588124853_">
</g>
<g id="Calque_4">
	<g>
		<g>
			<path class="st1" d="M12.07,18.59c-1.365,0-1.82-0.91-1.82-1.885c0-1.235,0.65-2.08,1.95-2.08c0.26,0,0.585,0.065,0.845,0.13
				l-0.13,0.65c-0.26-0.065-0.52-0.13-0.78-0.13c-0.715,0-1.105,0.585-1.105,1.3c0,0.845,0.39,1.365,1.17,1.365
				c0.26,0,0.585-0.065,0.78-0.195l0.065,0.65C12.785,18.525,12.395,18.59,12.07,18.59"/>
			<path class="st1" d="M14.085,15.47c-0.26,0-0.455-0.195-0.455-0.455s0.195-0.455,0.455-0.455c0.26,0,0.455,0.195,0.455,0.455
				C14.54,15.275,14.28,15.47,14.085,15.47 M13.695,15.665h0.78v2.86h-0.78V15.665z"/>
			<path class="st1" d="M16.295,18.59c-0.65,0-0.845-0.26-0.845-0.91v-1.43h-0.52v-0.585h0.52v-0.91l0.78-0.195v1.105h0.715v0.585
				h-0.78v1.3c0,0.39,0.065,0.455,0.325,0.455c0.13,0,0.26,0,0.39-0.065v0.585C16.685,18.59,16.49,18.59,16.295,18.59"/>
			<path class="st1" d="M17.985,15.47c-0.26,0-0.455-0.195-0.455-0.455s0.195-0.455,0.455-0.455c0.26,0,0.455,0.195,0.455,0.455
				C18.44,15.275,18.18,15.47,17.985,15.47 M17.595,15.665h0.78v2.86h-0.78V15.665z"/>
			<path class="st1" d="M18.96,18.525v-0.52l1.17-1.755c-0.13,0-0.325,0-0.65,0h-0.52V15.6h1.95v0.52l-1.17,1.69
				c0.13,0,0.455,0,0.65,0h0.52v0.715H18.96z"/>
			<path class="st1" d="M24.03,17.29h-1.82c0,0.52,0.26,0.78,0.78,0.78c0.26,0,0.585-0.065,0.845-0.195L23.9,18.46
				c-0.325,0.13-0.715,0.195-1.04,0.195c-0.91,0-1.43-0.455-1.43-1.495c0-0.91,0.52-1.56,1.365-1.56c0.845,0,1.235,0.585,1.235,1.3
				C24.095,17.03,24.03,17.16,24.03,17.29 M22.795,16.185c-0.325,0-0.52,0.26-0.585,0.585h1.105
				C23.315,16.38,23.12,16.185,22.795,16.185"/>
			<path class="st1" d="M26.435,18.525V16.64c0-0.325-0.065-0.455-0.39-0.455c-0.39,0-0.65,0.455-0.65,0.975v1.43h-0.78v-2.86h0.715
				c0,0.13,0,0.39-0.065,0.52l0,0c0.195-0.325,0.52-0.585,0.975-0.585c0.65,0,0.845,0.455,0.845,0.91v2.015L26.435,18.525
				L26.435,18.525z"/>
			<path class="st1" d="M28.515,18.59c-0.195,0-0.455,0-0.585-0.065v-0.65c0.195,0.065,0.39,0.065,0.65,0.065
				s0.455-0.13,0.455-0.325c0-0.52-1.17-0.195-1.17-1.235c0-0.52,0.39-0.91,1.235-0.91c0.195,0,0.39,0,0.52,0.065v0.585
				c-0.195-0.065-0.325-0.065-0.52-0.065c-0.325,0-0.455,0.13-0.455,0.325c0,0.455,1.17,0.26,1.17,1.235
				C29.75,18.2,29.295,18.59,28.515,18.59"/>
		</g>
		<g>
			<path class="st1" d="M22.99,12.285c-0.195,0.195-0.52,0.195-0.715,0L21.17,11.05v0.845c0,0.325-0.195,0.52-0.52,0.52
				c-0.325,0-0.52-0.26-0.52-0.52v-1.04c0-0.26,0.13-0.39,0.325-0.455c0.325-0.13,0.585-0.39,0.715-0.715
				c0.065-0.195,0.26-0.325,0.455-0.325H22.6c0.26,0,0.52,0.26,0.52,0.52s-0.195,0.52-0.52,0.52h-0.845l1.235,1.235
				C23.25,11.765,23.25,12.09,22.99,12.285"/>
			<path class="st1" d="M22.99,6.24c0.195,0.195,0.195,0.52,0,0.715L21.755,8.19H22.6c0.325,0,0.52,0.195,0.52,0.52
				c0,0.325-0.26,0.52-0.52,0.52h-1.04c-0.26,0-0.39-0.13-0.455-0.325c-0.13-0.325-0.39-0.585-0.715-0.715
				c-0.195-0.065-0.325-0.26-0.325-0.455V6.63c0-0.26,0.26-0.52,0.52-0.52c0.26,0,0.52,0.195,0.52,0.52v0.845L22.34,6.24
				C22.47,6.045,22.795,6.045,22.99,6.24"/>
			<path class="st1" d="M17.01,6.24c0.195-0.195,0.52-0.195,0.715,0l1.235,1.235V6.63c0-0.325,0.195-0.52,0.52-0.52
				c0.325,0,0.52,0.26,0.52,0.52v1.04c0,0.26-0.13,0.39-0.325,0.455c-0.325,0.13-0.585,0.39-0.715,0.715
				c-0.065,0.195-0.26,0.325-0.455,0.325h-1.04c-0.26,0-0.52-0.26-0.52-0.52s0.195-0.52,0.52-0.52h0.845L17.075,6.89
				C16.75,6.695,16.75,6.435,17.01,6.24"/>
			<path class="st1" d="M17.01,12.285c-0.195-0.195-0.195-0.52,0-0.715l1.235-1.235H17.4c-0.325,0-0.52-0.195-0.52-0.52
				s0.26-0.52,0.52-0.52h1.04c0.26,0,0.39,0.13,0.455,0.325c0.13,0.325,0.39,0.585,0.715,0.78c0.195,0.065,0.325,0.26,0.325,0.455
				v1.04c0,0.26-0.26,0.52-0.52,0.52c-0.26,0-0.52-0.195-0.52-0.52V11.05l-1.235,1.235C17.53,12.48,17.205,12.48,17.01,12.285"/>
		</g>
	</g>
</g>
</svg>
