<?xml version="1.0" encoding="utf-8"?>
<!-- Generator: Adobe Illustrator 27.3.1, SVG Export Plug-In . SVG Version: 6.00 Build 0)  -->
<svg version="1.1" id="Layer_1" xmlns="http://www.w3.org/2000/svg" xmlns:xlink="http://www.w3.org/1999/xlink" x="0px" y="0px"
	 viewBox="0 0 40 26" style="enable-background:new 0 0 40 26;" xml:space="preserve">
<style type="text/css">
	.st0{fill:#073C2C;}
	.st1{fill:#03D47C;}
	.st2{fill:#FFFAF0;}
</style>
<rect class="st0" width="40" height="26"/>
<path class="st1" d="M13,8.275h2.64V7.495h-1.67V6.773h1.344V5.975h-1.344V5.29h1.67V4.511H13V8.275z"/>
<path class="st1" d="M18.929,5.34h-1.162l-0.388,0.707L16.973,5.34h-1.195l0.975,1.419l-1.04,1.515h1.162l0.465-0.79l0.459,0.79
	h1.194l-1.04-1.515L18.929,5.34z"/>
<path class="st1" d="M20.761,5.27L20.761,5.27c-0.321,0-0.6,0.131-0.808,0.38V5.341h-0.891v4.181h0.95V8.055
	c0.172,0.178,0.434,0.291,0.742,0.291c0.778,0,1.318-0.6,1.318-1.538C22.073,5.87,21.562,5.27,20.761,5.27L20.761,5.27z
	 M20.553,7.568c-0.356,0-0.57-0.279-0.57-0.76s0.214-0.76,0.57-0.76c0.356,0,0.57,0.273,0.57,0.76
	C21.122,7.295,20.909,7.568,20.553,7.568z"/>
<path class="st1" d="M23.747,7.604c-0.291,0-0.51-0.167-0.564-0.594h2.025V6.885c0-0.915-0.511-1.615-1.503-1.615
	c-0.7,0-1.508,0.38-1.508,1.538c0,0.938,0.606,1.538,1.544,1.538c0.558,0,1.253-0.202,1.473-1.069h-0.962
	C24.21,7.437,24.085,7.603,23.747,7.604L23.747,7.604z M23.706,5.971c0.273,0,0.457,0.154,0.487,0.493h-0.992
	C23.272,6.089,23.48,5.971,23.706,5.971L23.706,5.971z"/>
<path class="st1" d="M27.061,5.27c-0.327,0-0.618,0.143-0.808,0.416V5.341h-0.891v2.934h0.95V6.642c0-0.392,0.202-0.57,0.463-0.57
	c0.279,0,0.445,0.119,0.445,0.564v1.639h0.95v-1.71C28.171,5.638,27.797,5.27,27.061,5.27L27.061,5.27z"/>
<path class="st1" d="M31.639,4.007c-0.29,0-0.498,0.213-0.498,0.486c0,0.273,0.207,0.492,0.498,0.492
	c0.291,0,0.504-0.219,0.504-0.492C32.143,4.22,31.935,4.007,31.639,4.007z"/>
<path class="st1" d="M32.122,5.347h-0.948v2.928h0.948V5.347z"/>
<path class="st1" d="M29.925,6.446l-0.237-0.053c-0.25-0.054-0.339-0.162-0.339-0.276c0-0.162,0.137-0.266,0.356-0.266
	c0.279,0,0.428,0.091,0.428,0.36h0.818c-0.019-0.616-0.379-0.98-1.288-0.98c-0.784,0-1.253,0.291-1.253,0.944
	c0,0.515,0.347,0.749,1.143,0.929l0.237,0.054c0.25,0.054,0.338,0.17,0.338,0.284c0,0.162-0.143,0.234-0.392,0.234
	c-0.327,0-0.475-0.12-0.517-0.39h-0.926c0.053,0.707,0.546,1.061,1.407,1.061c0.861,0,1.366-0.318,1.366-0.971
	C31.067,6.859,30.721,6.626,29.925,6.446L29.925,6.446z"/>
<path class="st1" d="M35.832,5.346L35.832,5.346l-0.533,1.79l-0.522-1.79h-1.23V5.254c0-0.24,0.178-0.48,0.456-0.48h0.135V4h-0.195
	c-0.812,0.018-1.347,0.59-1.347,1.31v0.037h-0.356v0.864h0.356v2.063h0.948V6.211h0.534l0.71,1.987l-0.118,0.308
	c-0.089,0.225-0.189,0.29-0.385,0.29c-0.101,0-0.201,0-0.344-0.042L33.882,9.53c0.142,0.041,0.32,0.059,0.545,0.059
	c0.569,0,0.865-0.243,1.15-0.996l1.221-3.248L35.832,5.346L35.832,5.346z"/>
<path class="st2" d="M33.005,19.052l-0.602,2.885h-0.719l0.602-2.885H33.005L33.005,19.052z M36.046,20.918l0.384-1.088l0.217,1.088
	H36.046z M36.848,21.937h0.668l-0.585-2.885h-0.618c-0.134,0-0.251,0.086-0.301,0.207l-1.086,2.678h0.752l0.15-0.432h0.936
	L36.848,21.937z M34.96,21.004c0-0.76-1.019-0.812-1.019-1.14c0-0.104,0.1-0.207,0.301-0.242c0.1-0.017,0.384-0.017,0.719,0.121
	l0.134-0.622C34.927,19.069,34.693,19,34.425,19c-0.719,0-1.22,0.397-1.22,0.95c0,0.415,0.351,0.639,0.635,0.777
	c0.284,0.138,0.368,0.225,0.368,0.363c0,0.19-0.217,0.276-0.435,0.276c-0.368,0-0.568-0.104-0.735-0.19l-0.134,0.639
	c0.167,0.086,0.485,0.155,0.802,0.155C34.459,21.989,34.96,21.591,34.96,21.004z M31.969,19.052l-1.17,2.885H30.03l-0.568-2.298
	c-0.033-0.138-0.067-0.19-0.167-0.259c-0.184-0.104-0.468-0.19-0.719-0.242l0.017-0.086h1.237c0.15,0,0.301,0.104,0.334,0.294
	l0.301,1.676l0.752-1.969H31.969L31.969,19.052z"/>
<path class="st2" d="M30.949,23.63c-0.05,0.017-0.134,0.052-0.251,0.052c-0.267,0-0.468-0.173-0.468-0.501
	c0-0.311,0.201-0.518,0.501-0.518c0.117,0,0.201,0.035,0.234,0.052l-0.05,0.086c-0.05-0.017-0.117-0.035-0.184-0.035
	c-0.217,0-0.368,0.155-0.368,0.415c0,0.242,0.134,0.397,0.368,0.397c0.084,0,0.15-0.017,0.201-0.035L30.949,23.63z"/>
<path class="st2" d="M31.2,23.302c0,0.156,0.083,0.276,0.201,0.276s0.201-0.121,0.201-0.276c0-0.121-0.05-0.277-0.201-0.277
	C31.267,23.025,31.2,23.163,31.2,23.302z M31.751,23.284c0,0.259-0.184,0.38-0.334,0.38c-0.184,0-0.334-0.138-0.334-0.363
	c0-0.242,0.15-0.38,0.334-0.38C31.618,22.921,31.751,23.077,31.751,23.284z"/>
<path class="st2" d="M31.935,23.129c0-0.069,0-0.138,0-0.19h0.117v0.121c0.033-0.069,0.1-0.138,0.217-0.138
	c0.1,0,0.167,0.052,0.201,0.138c0.017-0.035,0.05-0.069,0.083-0.086c0.034-0.035,0.084-0.052,0.15-0.052
	c0.1,0,0.234,0.069,0.234,0.311v0.415h-0.117V23.25c0-0.138-0.05-0.225-0.15-0.225c-0.067,0-0.134,0.052-0.15,0.121
	c0,0.017-0.017,0.035-0.017,0.069v0.432h-0.117v-0.432c0-0.121-0.05-0.19-0.15-0.19c-0.083,0-0.134,0.069-0.15,0.121
	c0,0.017-0.017,0.035-0.017,0.069v0.432h-0.117v-0.518H31.935z"/>
<path class="st2" d="M33.155,23.129c0-0.069,0-0.138,0-0.19h0.1v0.121c0.033-0.069,0.1-0.138,0.217-0.138
	c0.1,0,0.167,0.052,0.201,0.138c0.017-0.035,0.05-0.069,0.084-0.086c0.033-0.035,0.083-0.052,0.15-0.052
	c0.1,0,0.234,0.069,0.234,0.311v0.415h-0.117V23.25c0-0.138-0.05-0.225-0.15-0.225c-0.067,0-0.134,0.052-0.15,0.121
	c0,0.017-0.017,0.035-0.017,0.069v0.432H33.59v-0.432c0-0.121-0.05-0.19-0.15-0.19c-0.083,0-0.134,0.069-0.15,0.121
	c0,0.017-0.017,0.035-0.017,0.069v0.432h-0.117V23.129L33.155,23.129z"/>
<path class="st2" d="M34.81,23.232c0-0.086-0.033-0.207-0.167-0.207s-0.184,0.121-0.184,0.207H34.81z M34.442,23.319
	c0,0.173,0.117,0.242,0.234,0.242c0.084,0,0.15-0.017,0.184-0.035l0.017,0.086c-0.05,0.017-0.117,0.052-0.234,0.052
	c-0.217,0-0.334-0.138-0.334-0.363c0-0.207,0.117-0.38,0.318-0.38c0.234,0,0.284,0.207,0.284,0.328c0,0.035,0,0.052,0,0.052h-0.468
	V23.319z"/>
<path class="st2" d="M35.127,23.163c0-0.086,0-0.156,0-0.225h0.117v0.138c0.033-0.104,0.1-0.156,0.184-0.156
	c0.017,0,0.017,0,0.033,0v0.121c-0.017,0-0.033,0-0.05,0c-0.084,0-0.15,0.069-0.167,0.173c0,0.017,0,0.035,0,0.052v0.38h-0.117
	V23.163L35.127,23.163z"/>
<path class="st2" d="M36.097,23.63c-0.033,0.017-0.1,0.035-0.201,0.035c-0.201,0-0.334-0.138-0.334-0.363s0.15-0.38,0.368-0.38
	c0.067,0,0.134,0.017,0.167,0.035l-0.033,0.104c-0.033-0.017-0.084-0.035-0.15-0.035c-0.15,0-0.251,0.121-0.251,0.277
	c0,0.173,0.1,0.259,0.234,0.259c0.067,0,0.117-0.017,0.15-0.035L36.097,23.63z"/>
<path class="st2" d="M36.28,23.647v-0.708h0.117v0.708H36.28z M36.414,22.749c0,0.052-0.033,0.086-0.083,0.086
	c-0.05,0-0.084-0.035-0.084-0.086s0.033-0.086,0.084-0.086C36.397,22.663,36.414,22.697,36.414,22.749z"/>
<path class="st2" d="M37.015,23.284c-0.134,0-0.284,0.017-0.284,0.155c0,0.086,0.05,0.121,0.117,0.121
	c0.084,0,0.15-0.052,0.167-0.121c0-0.017,0-0.035,0-0.035V23.284z M37.132,23.474c0,0.069,0,0.121,0.017,0.173h-0.117l-0.017-0.086
	c-0.033,0.052-0.117,0.104-0.217,0.104c-0.134,0-0.217-0.104-0.217-0.207c0-0.173,0.15-0.259,0.418-0.259v-0.017
	c0-0.052-0.017-0.173-0.15-0.156c-0.067,0-0.134,0.017-0.184,0.052l-0.033-0.086c0.05-0.035,0.134-0.069,0.234-0.069
	c0.217,0,0.267,0.156,0.267,0.294V23.474z"/>
<path class="st2" d="M37.367,22.61H37.5v1.037h-0.134V22.61z"/>
</svg>
