<?xml version="1.0" encoding="utf-8"?>
<!-- Generator: Adobe Illustrator 27.3.1, SVG Export Plug-In . SVG Version: 6.00 Build 0)  -->
<svg version="1.1" id="Layer_1" xmlns="http://www.w3.org/2000/svg" xmlns:xlink="http://www.w3.org/1999/xlink" x="0px" y="0px"
	 viewBox="0 0 40 26" style="enable-background:new 0 0 40 26;" xml:space="preserve">
<style type="text/css">
	.st0{fill:#128741;}
	.st1{fill:#FFFFFF;}
</style>
<rect class="st0" width="40" height="26"/>
<g id="Calque_3_00000023244031827351939090000010617725868588124853_">
</g>
<path class="st1" d="M20,2.275C14.085,2.275,9.275,7.085,9.275,13S14.085,23.725,20,23.725S30.725,18.915,30.725,13
	S25.915,2.275,20,2.275z M26.435,20.8l-0.26-0.455L23.77,16.25l3.77,2.08c0,0,0.065,0,0-0.065L22.6,14.04l6.37,0.975l0,0
	l-0.065-0.065l-5.98-2.08l6.305-1.495c0,0,0,0,0-0.065l-6.37,0.455l4.615-3.445l0.455-0.39c0,0-0.065-0.065-0.065,0l-4.81,2.405
	L22.21,10.79l3.12-5.46c0,0,0-0.065,0,0l-4.03,4.81l0.65-6.305c0,0,0,0-0.065,0L20,9.88l-0.52-1.885l-1.105-4.42H18.31v0.52
	l0.455,5.915L14.93,5.005l0,0l2.925,5.59l-5.525-2.99l0,0l4.42,3.64l0.52,0.455l-6.37-0.65c0,0,0,0,0,0.065l6.045,1.755L10.9,14.625
	v0.065l6.24-0.715l-4.875,4.16c0,0,0,0,0,0.065h0.065l3.965-2.145l0.91-1.495h1.04l-0.715-0.52L20,10.205l-1.495,4.615h3.705
	l1.04,0.65h-4.875l-1.95,6.11l-0.26,0.585c-2.47-0.91-4.68-3.12-5.655-5.59C9.6,14.235,9.6,11.44,10.575,8.97s3.25-4.68,5.72-5.59
	c1.95-0.78,4.55-0.91,6.565-0.26c2.47,0.715,4.55,2.405,5.915,4.55c1.495,2.405,1.82,5.525,0.975,8.255
	C29.1,17.81,28.06,19.565,26.435,20.8z"/>
</svg>
