<svg xmlns="http://www.w3.org/2000/svg" xml:space="preserve" id="Layer_1" x="0" y="0" viewBox="0 0 40 26"><style>.st0{fill:#fff}.st1{fill:#70b62c}</style><path d="M0 0h40v26H0z" class="st0"/><g id="Calque_4"><path d="M19.545 8.97V2.34L17.14 3.77v6.565zm.91 8.06v6.63l2.405-1.43v-6.565z" class="st1"/><path d="M17.14 15.145v7.085l2.405 1.43v-7.085l4.16-2.405v7.54l2.405-1.365V5.655L23.705 4.29v7.085z" class="st1"/><path d="m16.23 4.29-2.34 1.365v14.69l2.34 1.365v-7.085l6.63-3.77V3.77l-2.405-1.43v7.085L16.23 11.83zm-3.315 1.885L10.9 7.345c-.195.13-.39.39-.39.52v10.14c0 .195.195.455.39.52l2.015 1.17zm14.17 13.65 2.015-1.17c.195-.13.39-.39.39-.52V7.93c0-.195-.195-.455-.39-.52l-2.015-1.17z" class="st1"/></g></svg>