<?xml version="1.0" encoding="utf-8"?>
<!-- Generator: Adobe Illustrator 27.3.1, SVG Export Plug-In . SVG Version: 6.00 Build 0)  -->
<svg version="1.1" id="Layer_1" xmlns="http://www.w3.org/2000/svg" xmlns:xlink="http://www.w3.org/1999/xlink" x="0px" y="0px"
	 viewBox="0 0 40 26" style="enable-background:new 0 0 40 26;" xml:space="preserve">
<style type="text/css">
	.st0{fill:#FFFFFF;}
	.st1{fill:#70B62C;}
</style>
<rect class="st0" width="40" height="26"/>
<g id="Calque_3_00000023244031827351939090000010617725868588124853_">
</g>
<g id="Calque_4">
	<g>
		<polygon class="st1" points="19.545,8.97 19.545,2.34 17.14,3.77 17.14,10.335 		"/>
		<polygon class="st1" points="20.455,17.03 20.455,23.66 22.86,22.23 22.86,15.665 		"/>
		<polygon class="st1" points="17.14,15.145 17.14,22.23 19.545,23.66 19.545,16.575 23.705,14.17 23.705,21.71 26.11,20.345 
			26.11,5.655 23.705,4.29 23.705,11.375 		"/>
		<polygon class="st1" points="16.23,4.29 13.89,5.655 13.89,20.345 16.23,21.71 16.23,14.625 22.86,10.855 22.86,3.77 20.455,2.34 
			20.455,9.425 16.23,11.83 		"/>
		<path class="st1" d="M12.915,6.175L10.9,7.345c-0.195,0.13-0.39,0.39-0.39,0.52v10.14c0,0.195,0.195,0.455,0.39,0.52l2.015,1.17
			V6.175z"/>
		<path class="st1" d="M27.085,19.825l2.015-1.17c0.195-0.13,0.39-0.39,0.39-0.52V7.93c0-0.195-0.195-0.455-0.39-0.52l-2.015-1.17
			V19.825z"/>
	</g>
</g>
</svg>
