<?xml version="1.0" encoding="utf-8"?>
<!-- Generator: Adobe Illustrator 27.3.1, SVG Export Plug-In . SVG Version: 6.00 Build 0)  -->
<svg version="1.1" id="Layer_1" xmlns="http://www.w3.org/2000/svg" xmlns:xlink="http://www.w3.org/1999/xlink" x="0px" y="0px"
	 viewBox="0 0 40 26" style="enable-background:new 0 0 40 26;" xml:space="preserve">
<style type="text/css">
	.st0{fill:#153557;}
	.st1{fill:#FFFFFF;}
</style>
<rect class="st0" width="40" height="26"/>
<g id="Calque_3_00000023244031827351939090000010617725868588124853_">
</g>
<g>
	<g>
		<g>
			<path class="st1" d="M12.655,16.835c-0.065-0.325-0.26-0.52-0.585-0.52c-0.52,0-0.78,0.455-0.78,0.975
				c0,0.455,0.26,0.975,0.78,0.975c0.325,0,0.585-0.325,0.65-0.715h0.39c-0.065,0.65-0.455,1.04-1.04,1.04
				c-0.715,0-1.17-0.585-1.17-1.365s0.39-1.365,1.17-1.365c0.52,0,0.975,0.325,0.975,0.91
				C13.045,16.835,12.655,16.835,12.655,16.835z"/>
			<path class="st1" d="M13.37,16.705h0.325v0.325l0,0c0.065-0.195,0.325-0.39,0.52-0.39c0.13,0,0.13,0,0.13,0v0.39
				c-0.065,0-0.13,0-0.195,0c-0.325,0-0.455,0.26-0.455,0.65v0.91H13.37V16.705z"/>
			<path class="st1" d="M14.8,17.745c0,0.325,0.195,0.52,0.455,0.52c0.26,0,0.325-0.13,0.39-0.325h0.325
				c-0.065,0.39-0.39,0.65-0.845,0.65c-0.52,0-0.91-0.39-0.91-0.975c0-0.52,0.325-0.975,0.845-0.975s0.91,0.52,0.845,1.105
				C15.97,17.745,14.8,17.745,14.8,17.745z M15.645,17.485c0-0.26-0.195-0.455-0.455-0.455c-0.325,0-0.455,0.26-0.455,0.455H15.645z
				"/>
			<path class="st1" d="M17.855,18.59H17.53v-0.26l0,0c-0.13,0.26-0.325,0.325-0.52,0.325c-0.52,0-0.845-0.39-0.845-0.975
				c0-0.715,0.325-0.975,0.78-0.975c0.26,0,0.455,0.065,0.585,0.325l0,0v-0.91h0.39L17.855,18.59L17.855,18.59z M17.01,18.265
				c0.325,0,0.455-0.325,0.455-0.65c0-0.39-0.195-0.65-0.455-0.65c-0.325,0-0.455,0.325-0.455,0.715
				C16.555,18.005,16.685,18.265,17.01,18.265z"/>
			<path class="st1" d="M18.245,15.99h0.39v0.39h-0.39V15.99z M18.245,16.705h0.39v1.885h-0.39V16.705z"/>
			<path class="st1" d="M18.765,16.705h0.325V16.12h0.39v0.585h0.325v0.325H19.48v0.975c0,0.195,0,0.26,0.195,0.26
				c0.065,0,0.13,0,0.195,0v0.325c-0.065,0-0.195,0-0.26,0c-0.39,0-0.455-0.195-0.455-0.455V17.03H18.83L18.765,16.705
				L18.765,16.705z"/>
			<path class="st1" d="M20.845,15.99h0.39v1.56c0,0.325,0,0.78,0.585,0.78c0.52,0,0.585-0.39,0.585-0.78v-1.495h0.39v1.625
				c0,0.65-0.39,0.975-0.975,0.975s-0.975-0.325-0.975-0.975V15.99z"/>
			<path class="st1" d="M23.12,16.705h0.325v0.325l0,0c0.13-0.26,0.325-0.325,0.52-0.325c0.325,0,0.65,0.26,0.65,0.65v1.3h-0.39
				v-1.17c0-0.325-0.13-0.39-0.325-0.39c-0.195,0-0.39,0.26-0.39,0.455v1.105h-0.39V16.705L23.12,16.705z"/>
			<path class="st1" d="M25.005,15.99h0.39v0.39h-0.39V15.99z M25.005,16.705h0.39v1.885h-0.39V16.705z"/>
			<path class="st1" d="M25.59,17.615c0-0.585,0.325-0.975,0.91-0.975s0.91,0.39,0.91,0.975c0,0.585-0.325,0.975-0.91,0.975
				C25.915,18.655,25.59,18.2,25.59,17.615z M26.955,17.615c0-0.325-0.195-0.65-0.455-0.65c-0.325,0-0.455,0.325-0.455,0.65
				c0,0.325,0.195,0.65,0.455,0.65S26.955,18.005,26.955,17.615z"/>
			<path class="st1" d="M27.605,16.705h0.325v0.325l0,0c0.13-0.26,0.325-0.325,0.52-0.325c0.325,0,0.65,0.26,0.65,0.65v1.3h-0.39
				v-1.17c0-0.325-0.13-0.39-0.325-0.39c-0.195,0-0.39,0.26-0.39,0.455v1.105h-0.39L27.605,16.705L27.605,16.705z"/>
		</g>
		<g>
			<g>
				<g>
					<path class="st1" d="M10.965,11.18h2.015v0.585h-1.235v0.715h1.17v0.585h-1.17v1.17h-0.78V11.18z"/>
					<path class="st1" d="M13.175,11.18h2.145v0.585h-1.43v0.65h1.3V13h-1.3v0.65h1.43v0.585h-2.145V11.18z"/>
					<path class="st1" d="M15.58,11.18h1.235c0.325,0,0.845,0.065,1.105,0.26c0.39,0.325,0.52,0.845,0.52,1.3
						c0,0.715-0.195,1.17-0.78,1.43c-0.325,0.13-0.65,0.13-0.845,0.13H15.58L15.58,11.18L15.58,11.18z M16.425,13.65h0.325
						c0.52,0,0.91-0.26,0.91-0.91c0-0.91-0.65-0.91-0.91-0.91h-0.325V13.65L16.425,13.65z"/>
					<path class="st1" d="M18.635,11.18h2.145v0.585h-1.365v0.65h1.3V13h-1.3v0.65h1.43v0.585H18.7L18.635,11.18L18.635,11.18z"/>
					<path class="st1" d="M21.04,11.18h1.365c0.52,0,0.715,0.065,0.91,0.26c0.065,0.13,0.195,0.325,0.195,0.585
						c0,0.325-0.13,0.455-0.26,0.585c-0.195,0.13-0.325,0.13-0.39,0.195l0,0c0.585,0,0.585,0.325,0.65,0.78
						c0,0.26,0.065,0.52,0.13,0.78h-0.91c-0.065-0.195-0.065-0.39-0.13-0.715c-0.065-0.325-0.065-0.52-0.39-0.52h-0.325v1.17H21.04
						V11.18L21.04,11.18z M21.885,12.545h0.325c0.195,0,0.26,0,0.325,0c0.195-0.065,0.26-0.26,0.26-0.325
						c0-0.325-0.325-0.325-0.52-0.325H21.95L21.885,12.545L21.885,12.545z"/>
					<path class="st1" d="M24.745,11.18h0.975l1.105,3.055h-0.91l-0.195-0.65h-1.17l-0.195,0.65H23.51L24.745,11.18z M25.59,13.065
						l-0.325-1.3l0,0l-0.39,1.3H25.59z"/>
					<path class="st1" d="M26.955,11.18H27.8v2.47h1.3v0.585h-2.145V11.18z"/>
				</g>
				<g>
					<path class="st1" d="M10.965,7.8h1.105l0.91,2.275V7.8h0.715v3.055H12.59L11.615,8.45v2.405h-0.65V7.8z"/>
					<path class="st1" d="M15.06,7.8h0.975l1.105,3.055h-0.91l-0.195-0.65h-1.17l-0.26,0.715H13.76L15.06,7.8z M15.905,9.685
						l-0.325-1.3l0,0l-0.39,1.3H15.905z"/>
					<path class="st1" d="M16.555,7.8H17.4l0.65,2.21l0.715-2.21h0.845l-1.04,3.055h-0.91L16.555,7.8z"/>
					<path class="st1" d="M20.455,7.8l0.65,1.3l0.65-1.3H22.6l-1.105,1.95v1.105H20.65V9.75L19.545,7.8H20.455L20.455,7.8z"/>
				</g>
				<rect x="10.965" y="14.625" class="st1" width="18.135" height="0.845"/>
				<path class="st1" d="M27.41,9.165c0-0.91-0.715-1.69-1.625-1.755c-0.065,0-0.13,0-0.195,0s-0.13,0-0.195,0
					c-0.52,0.065-0.91,0.325-1.3,0.715l0,0l0,0V8.19l0,0C23.9,8.515,23.77,8.84,23.77,9.165c0,0.91,0.715,1.69,1.625,1.755
					c0.065,0,0.13,0,0.195,0s0.13,0,0.195,0C26.63,10.92,27.41,10.075,27.41,9.165z M26.37,10.465h-0.26
					c0.065-0.13,0.13-0.325,0.195-0.52h0.39C26.695,10.205,26.565,10.335,26.37,10.465z M24.42,10.01h0.39
					c0.065,0.195,0.13,0.325,0.195,0.52h-0.26C24.615,10.335,24.55,10.205,24.42,10.01z M23.965,9.165h0.26
					c0,0.26,0.065,0.455,0.13,0.65H24.16C23.965,9.685,23.965,9.425,23.965,9.165z M24.485,8.32
					c0.065-0.195,0.195-0.325,0.325-0.455h0.26c-0.065,0.13-0.13,0.26-0.13,0.325l0,0v0.065V8.32l0,0l0,0L24.485,8.32
					C24.42,8.32,24.485,8.32,24.485,8.32z M26.76,8.32h-0.39c-0.065-0.195-0.13-0.325-0.195-0.52h0.26
					C26.565,7.93,26.695,8.125,26.76,8.32z M27.28,9.1h-0.26c0-0.26-0.065-0.455-0.13-0.65h0.195
					C27.215,8.645,27.28,8.905,27.28,9.1z M26.955,9.1H26.5c0-0.26,0-0.455-0.065-0.65h0.39C26.89,8.645,26.955,8.905,26.955,9.1z
					 M25.005,8.32c0.065-0.195,0.13-0.325,0.195-0.455h0.39V8.32H25.005L25.005,8.32z M25.135,7.735H24.94
					c0.13-0.065,0.26-0.13,0.325-0.195C25.135,7.605,25.135,7.67,25.135,7.735z M25.525,7.475v0.26H25.2
					C25.265,7.605,25.395,7.475,25.525,7.475z M25.655,7.735v-0.26c0.13,0,0.26,0.13,0.325,0.26H25.655z M26.045,7.865
					c0.065,0.13,0.13,0.325,0.195,0.52h-0.585v-0.52H26.045z M25.525,8.45V9.1h-0.65c0-0.26,0-0.455,0.065-0.65H25.525z
					 M25.525,9.165v0.65H24.94c-0.065-0.195-0.065-0.39-0.065-0.65H25.525z M25.525,10.01v0.52h-0.39
					c-0.065-0.13-0.13-0.325-0.195-0.52C24.94,10.01,25.525,10.01,25.525,10.01z M25.525,10.595v0.26c-0.13,0-0.26-0.13-0.325-0.26
					H25.525z M25.655,10.595h0.325c-0.13,0.13-0.195,0.26-0.325,0.26V10.595z M25.655,10.465v-0.52h0.585
					c-0.065,0.195-0.13,0.325-0.195,0.52H25.655z M25.655,9.88V9.23h0.65c0,0.26,0,0.455-0.065,0.65H25.655z M25.655,9.1V8.45h0.585
					c0.065,0.195,0.065,0.39,0.065,0.65H25.655z M26.11,7.735c-0.065-0.065-0.13-0.13-0.13-0.195c0.13,0.065,0.26,0.13,0.325,0.195
					H26.11z M24.81,8.45c-0.065,0.26-0.065,0.39-0.065,0.65H24.29c0-0.26,0.065-0.455,0.13-0.65H24.81z M24.16,9.1H23.9
					c0-0.26,0.065-0.455,0.195-0.65h0.195C24.16,8.645,24.16,8.905,24.16,9.1z M24.225,9.165h0.455c0,0.26,0,0.455,0.065,0.65h-0.39
					C24.29,9.685,24.29,9.425,24.225,9.165z M25.135,10.595c0.065,0.065,0.13,0.13,0.13,0.195c-0.13-0.065-0.26-0.13-0.325-0.195
					C24.875,10.595,25.135,10.595,25.135,10.595z M26.11,10.595h0.195c-0.13,0.065-0.26,0.13-0.325,0.195
					C25.98,10.725,26.045,10.66,26.11,10.595z M26.37,9.88c0.065-0.195,0.065-0.39,0.065-0.65h0.455c0,0.26-0.065,0.455-0.13,0.65
					H26.37z M27.02,9.165h0.26c0,0.26-0.065,0.455-0.195,0.65H26.89C26.955,9.685,27.02,9.425,27.02,9.165z M27.02,8.32h-0.195
					C26.76,8.125,26.63,7.995,26.5,7.8h0.065C26.825,7.93,26.955,8.125,27.02,8.32z M26.435,7.735L26.435,7.735L26.435,7.735
					L26.435,7.735z M24.55,7.865L24.55,7.865c-0.065,0.13-0.13,0.26-0.195,0.325l0,0v0.065V8.32l0,0c0,0,0,0,0,0.065H24.03
					c0.065-0.065,0.065-0.13,0.13-0.195C24.355,8.06,24.42,7.93,24.55,7.865z M24.095,10.01h0.195
					c0.065,0.195,0.195,0.325,0.325,0.52H24.55C24.42,10.335,24.225,10.205,24.095,10.01z M24.68,10.595L24.68,10.595L24.68,10.595
					L24.68,10.595z M26.435,10.595L26.435,10.595L26.435,10.595L26.435,10.595z M26.63,10.465L26.63,10.465
					c0.065-0.13,0.195-0.325,0.26-0.52h0.195C26.955,10.205,26.825,10.335,26.63,10.465z"/>
			</g>
		</g>
	</g>
</g>
</svg>
