<?xml version="1.0" encoding="utf-8"?>
<!-- Generator: Adobe Illustrator 27.3.1, SVG Export Plug-In . SVG Version: 6.00 Build 0)  -->
<svg version="1.1" id="Layer_1" xmlns="http://www.w3.org/2000/svg" xmlns:xlink="http://www.w3.org/1999/xlink" x="0px" y="0px"
	 viewBox="0 0 40 26" style="enable-background:new 0 0 40 26;" xml:space="preserve">
<style type="text/css">
	.st0{fill:#EE7623;}
	.st1{fill:#FFFFFF;}
</style>
<rect class="st0" width="40" height="26"/>
<path class="st1" d="M25.98,15.47c1.17,0,2.21-0.065,2.99-0.26l0,0c-1.56,0.91-4.745,2.795-10.92,6.37l-0.325,0.195
	c-1.105,0.65-2.34,0.715-2.86,0.195c-0.715-0.715-0.325-2.47,0.975-4.745l1.17-2.145c0.195,0.26,0.585,0.455,1.04,0.455h7.995V15.47
	H25.98z M18.895,9.815c0.195-0.455,0.585-0.65,0.91-0.715l-1.17-2.145C17.27,4.68,16.035,3.51,15.06,3.77
	c-0.78,0.195-1.3,1.3-1.3,2.6v0.455c-0.065,7.15,0,10.79,0,12.61c0,0,0,0,0,0.065c0.195-0.78,0.65-1.69,1.17-2.73L18.895,9.815z
	 M28.905,10.595L28.58,10.4c-6.11-3.575-9.295-5.46-10.92-6.305l0,0c0.585,0.585,1.105,1.43,1.755,2.405l4.03,6.89
	c0.195,0.455,0.26,0.78,0.13,1.105h2.47c2.6,0,4.29-0.585,4.615-1.56C30.725,12.285,30.01,11.31,28.905,10.595z"/>
<g id="Calque_3_00000023244031827351939090000010617725868588124853_">
</g>
</svg>
