<?xml version="1.0" encoding="utf-8"?>
<!-- Generator: Adobe Illustrator 27.3.1, SVG Export Plug-In . SVG Version: 6.00 Build 0)  -->
<svg version="1.1" id="Layer_1" xmlns="http://www.w3.org/2000/svg" xmlns:xlink="http://www.w3.org/1999/xlink" x="0px" y="0px"
	 viewBox="0 0 40 26" style="enable-background:new 0 0 40 26;" xml:space="preserve">
<style type="text/css">
	.st0{fill:#81B83E;}
	.st1{fill:#FFFFFF;}
</style>
<rect class="st0" width="40" height="26"/>
<g id="Calque_3">
	<g>
		<path id="_x33_" class="st1" d="M9.6,11.895l1.3-1.69l0.78,1.69H9.6L9.6,11.895z M10.965,10.14l0.65-0.845l0.325,2.535
			L10.965,10.14z M12.2,8.645l0.52,0.585l-0.52,2.6l-0.52-2.6L12.2,8.645z M12.395,11.895l0.325-2.6l0.65,0.845L12.395,11.895z
			 M12.59,11.895l0.78-1.69l1.3,1.69H12.59z"/>
		<g id="_x32_" transform="translate(47.000000, 7.000000)">
			<path id="R" class="st1" d="M-35.06,7.365c0.585,0.065,0.91-0.13,0.91-0.65c0-0.39-0.26-0.585-0.65-0.585h-0.26V7.365
				 M-35.775,6.455c0-0.26-0.065-0.39-0.455-0.455V5.935h1.56c0.91,0,1.3,0.39,1.3,0.78c0,0.325-0.195,0.585-0.65,0.715l0,0
				c0.39,0.065,0.715,1.04,1.04,1.365c0.065,0.065,0.195,0.13,0.325,0.13V8.99h-0.975c-0.39-0.455-0.585-1.105-0.845-1.365
				c-0.13-0.13-0.26-0.13-0.52-0.13V8.47c0,0.26,0.13,0.39,0.455,0.455V8.99h-1.56V8.925c0.325,0,0.455-0.13,0.455-0.39v-2.08"/>
			<path id="E" class="st1" d="M-30.445,8.21L-30.445,8.21c-0.13-0.195-0.195-0.325-0.455-0.325h-0.455v0.65
				c0,0.26,0.13,0.325,0.39,0.325h0.13c0.325,0,0.52-0.26,0.52-0.455h0.065l-0.065,0.52h-1.95V8.86
				c0.325-0.065,0.325-0.13,0.325-0.39V6.975c0-0.195-0.065-0.325-0.325-0.325V6.585h1.95v0.52h-0.065
				c-0.065-0.325-0.195-0.39-0.52-0.39h-0.52V7.69h0.455c0.195,0,0.325-0.065,0.39-0.325h0.065L-30.445,8.21"/>
			<path id="G" class="st1" d="M-27.39,8.86c-0.26,0.13-0.585,0.195-0.975,0.195c-0.91,0-1.43-0.585-1.43-1.235
				c0-0.715,0.585-1.3,1.43-1.3c0.39,0,0.52,0.13,0.715,0.13c0.065,0,0.13,0,0.195-0.065h0.065v0.65h-0.065
				c-0.195-0.39-0.52-0.585-0.845-0.585c-0.52,0-0.78,0.455-0.78,1.17s0.39,1.04,0.845,1.04c0.26,0,0.39-0.065,0.39-0.26V8.21
				c0-0.195-0.065-0.26-0.26-0.325V7.82H-27v0.13c-0.195,0.065-0.26,0.13-0.26,0.39L-27.39,8.86"/>
			<path id="I" class="st1" d="M-25.7,8.6c0,0.195,0.065,0.26,0.325,0.325v0.13h-1.235V8.99c0.26-0.13,0.26-0.195,0.26-0.39V7.105
				c0-0.195-0.065-0.26-0.325-0.325V6.715h1.235V6.78c-0.325,0.065-0.325,0.195-0.325,0.39V8.6"/>
			<path id="O" class="st1" d="M-23.425,6.715c-0.52,0-0.78,0.39-0.78,1.17c0,0.52,0.195,1.105,0.78,1.105
				c0.455,0,0.78-0.325,0.78-1.105C-22.58,7.17-22.84,6.715-23.425,6.715 M-23.425,9.055c-0.78,0-1.43-0.52-1.43-1.235
				s0.585-1.3,1.43-1.3c0.845,0,1.43,0.52,1.43,1.3C-21.995,8.535-22.58,9.055-23.425,9.055"/>
			<path id="N" class="st1" d="M-19.135,8.99L-19.135,8.99l-1.885-1.95v1.495c0,0.26,0.065,0.325,0.39,0.39v0.13h-0.91V8.99
				c0.325-0.065,0.39-0.195,0.39-0.455v-1.56c-0.195-0.195-0.26-0.26-0.39-0.26V6.65h0.78l1.495,1.56V7.17
				c0-0.325-0.065-0.455-0.325-0.455V6.65h0.845v0.065c-0.325,0-0.39,0.195-0.39,0.39L-19.135,8.99"/>
			<path id="S" class="st1" d="M-16.73,7.17L-16.73,7.17c-0.195-0.325-0.455-0.52-0.65-0.52c-0.195,0-0.455,0.13-0.455,0.325
				c0,0.065,0.065,0.195,0.13,0.26c0.13,0.13,0.715,0.455,0.845,0.52c0.195,0.195,0.325,0.39,0.325,0.52
				c0,0.52-0.52,0.65-0.845,0.65c-0.325,0-0.52-0.13-0.585-0.13s-0.13,0-0.13,0.065h-0.065V8.145h0.065
				c0.065,0.39,0.325,0.585,0.65,0.585s0.52-0.13,0.52-0.39c0-0.065-0.065-0.195-0.13-0.26c-0.195-0.195-0.65-0.39-0.845-0.52
				c-0.195-0.13-0.26-0.325-0.26-0.52c0-0.455,0.325-0.65,0.78-0.65c0.13,0,0.195,0,0.26,0s0.195,0.065,0.26,0.065
				c0.065,0,0.065,0,0.13-0.065h0.065L-16.73,7.17"/>
		</g>
	</g>
</g>
</svg>
