<svg xmlns="http://www.w3.org/2000/svg" xml:space="preserve" id="Layer_1" x="0" y="0" viewBox="0 0 40 26"><style>.st0{fill:#81b83e}.st1{fill:#fff}</style><path d="M0 0h40v26H0z" class="st0"/><g id="Calque_3"><path id="_x33_" d="m9.6 11.895 1.3-1.69.78 1.69zm1.365-1.755.65-.845.325 2.535zM12.2 8.645l.52.585-.52 2.6-.52-2.6zm.195 3.25.325-2.6.65.845zm.195 0 .78-1.69 1.3 1.69z" class="st1"/><g id="_x32_" transform="translate(47 7)"><path id="R" d="M-35.06 7.365c.585.065.91-.13.91-.65 0-.39-.26-.585-.65-.585h-.26zm-.715-.91c0-.26-.065-.39-.455-.455v-.065h1.56c.91 0 1.3.39 1.3.78 0 .325-.195.585-.65.715.39.065.715 1.04 1.04 1.365.065.065.195.13.325.13v.065h-.975c-.39-.455-.585-1.105-.845-1.365-.13-.13-.26-.13-.52-.13v.975c0 .26.13.39.455.455v.065h-1.56v-.065c.325 0 .455-.13.455-.39v-2.08" class="st1"/><path id="E" d="M-30.445 8.21c-.13-.195-.195-.325-.455-.325h-.455v.65c0 .26.13.325.39.325h.13c.325 0 .52-.26.52-.455h.065l-.065.52h-1.95V8.86c.325-.065.325-.13.325-.39V6.975c0-.195-.065-.325-.325-.325v-.065h1.95v.52h-.065c-.065-.325-.195-.39-.52-.39h-.52v.975h.455c.195 0 .325-.065.39-.325h.065z" class="st1"/><path id="G" d="M-27.39 8.86q-.39.195-.975.195c-.91 0-1.43-.585-1.43-1.235 0-.715.585-1.3 1.43-1.3.39 0 .52.13.715.13.065 0 .13 0 .195-.065h.065v.65h-.065c-.195-.39-.52-.585-.845-.585-.52 0-.78.455-.78 1.17s.39 1.04.845 1.04c.26 0 .39-.065.39-.26v-.39c0-.195-.065-.26-.26-.325V7.82H-27v.13c-.195.065-.26.13-.26.39z" class="st1"/><path id="I" d="M-25.7 8.6c0 .195.065.26.325.325v.13h-1.235V8.99c.26-.13.26-.195.26-.39V7.105c0-.195-.065-.26-.325-.325v-.065h1.235v.065c-.325.065-.325.195-.325.39V8.6" class="st1"/><path id="O" d="M-23.425 6.715q-.78 0-.78 1.17c0 .52.195 1.105.78 1.105.455 0 .78-.325.78-1.105.065-.715-.195-1.17-.78-1.17m0 2.34c-.78 0-1.43-.52-1.43-1.235s.585-1.3 1.43-1.3 1.43.52 1.43 1.3c0 .715-.585 1.235-1.43 1.235" class="st1"/><path id="N" d="m-19.135 8.99-1.885-1.95v1.495c0 .26.065.325.39.39v.13h-.91V8.99c.325-.065.39-.195.39-.455v-1.56c-.195-.195-.26-.26-.39-.26V6.65h.78l1.495 1.56V7.17c0-.325-.065-.455-.325-.455V6.65h.845v.065c-.325 0-.39.195-.39.39z" class="st1"/><path id="S" d="M-16.73 7.17c-.195-.325-.455-.52-.65-.52s-.455.13-.455.325c0 .065.065.195.13.26.13.13.715.455.845.52.195.195.325.39.325.52 0 .52-.52.65-.845.65s-.52-.13-.585-.13-.13 0-.13.065h-.065v-.715h.065c.065.39.325.585.65.585s.52-.13.52-.39a.5.5 0 0 0-.13-.26c-.195-.195-.65-.39-.845-.52s-.26-.325-.26-.52c0-.455.325-.65.78-.65h.26c.065 0 .195.065.26.065s.065 0 .13-.065h.065z" class="st1"/></g></g></svg>