<?xml version="1.0" encoding="utf-8"?>
<!-- Generator: Adobe Illustrator 27.3.1, SVG Export Plug-In . SVG Version: 6.00 Build 0)  -->
<svg version="1.1" id="Layer_1" xmlns="http://www.w3.org/2000/svg" xmlns:xlink="http://www.w3.org/1999/xlink" x="0px" y="0px"
	 viewBox="0 0 40 26" style="enable-background:new 0 0 40 26;" xml:space="preserve">
<style type="text/css">
	.st0{fill:#FFFFFF;}
	.st1{fill:#002856;}
	.st2{fill:url(#SVGID_1_);}
	.st3{fill:url(#SVGID_00000134246039911715052470000008588444421810791831_);}
	.st4{fill:url(#SVGID_00000021805985392685901650000006904530898588094143_);}
	.st5{fill:url(#SVGID_00000132066650800167212810000015830914846326977449_);}
	.st6{fill:url(#SVGID_00000003103567486079293260000011285796600666717626_);}
	.st7{fill:url(#SVGID_00000183211236889798865550000012062148758300768390_);}
	.st8{fill:url(#SVGID_00000047041238294985539770000010778084736662595505_);}
	.st9{fill:url(#SVGID_00000067948809236407209120000001310613607099893926_);}
	.st10{fill:url(#SVGID_00000142870715195055580800000018376819749621256326_);}
	.st11{fill:url(#SVGID_00000155135835678588746200000001982768201723520645_);}
	.st12{fill:url(#SVGID_00000012473695331122407230000017041080157972945564_);}
	.st13{fill:url(#SVGID_00000101791551947120738270000017511951603333756069_);}
	.st14{fill:url(#SVGID_00000061433146399229353610000015769297328184820922_);}
	.st15{fill:url(#SVGID_00000016060627017717782290000014755667744296616125_);}
	.st16{fill:url(#SVGID_00000119824771372154293240000012827357013025413561_);}
	.st17{fill:url(#SVGID_00000101102713224214190390000014788494325474261157_);}
</style>
<rect class="st0" width="40" height="26"/>
<g id="Calque_5">
	<g>
		<path class="st1" d="M25.395,15.665c0,0.39-0.065,1.04-0.975,1.04c-0.195,0-0.585,0-0.845-0.195
			c-0.195-0.195-0.195-0.455-0.195-0.845V14.3c0-0.13-0.065-0.195-0.26-0.195V13.91h1.235v0.195c-0.195,0-0.26,0.065-0.26,0.195
			v1.43c0,0.325,0,0.715,0.52,0.715c0.585,0,0.585-0.455,0.585-0.78v-1.43c0-0.13,0-0.195-0.195-0.195H24.94v-0.195h0.845v0.195
			h-0.13c-0.195,0-0.195,0.065-0.195,0.195v1.43H25.395z"/>
		<path class="st1" d="M29.62,16.64h-1.365v-0.195h0.13c0.195,0,0.26-0.065,0.26-0.195v-2.08h-0.26c-0.13,0-0.195,0.065-0.195,0.13
			c-0.065,0.065-0.065,0.26-0.065,0.39h-0.26v-0.715h2.21v0.715H29.88c0-0.13,0-0.325-0.065-0.39s-0.13-0.13-0.195-0.13h-0.26v2.08
			c0,0.13,0.065,0.195,0.26,0.195h0.13L29.62,16.64L29.62,16.64z"/>
		<g>
			<path class="st1" d="M27.8,15.925c-0.065,0.455-0.39,0.845-1.04,0.845c-0.39,0-0.78-0.13-0.975-0.195v-0.65h0.195
				c0,0.065,0,0.195,0,0.195s0.065,0.13,0.13,0.195c0.13,0.13,0.26,0.195,0.585,0.195c0.455,0,0.585-0.195,0.585-0.455
				s-0.195-0.325-0.715-0.52c-0.585-0.13-0.845-0.325-0.845-0.845c0-0.455,0.325-0.845,0.975-0.845c0.39,0,0.585,0.065,0.845,0.195
				v0.585h-0.195c0-0.065,0-0.195,0-0.195c0-0.065-0.065-0.195-0.13-0.195c-0.195-0.195-0.39-0.195-0.585-0.195
				s-0.52,0.13-0.52,0.39c0,0.195,0.13,0.325,0.585,0.455c0.455,0.13,0.585,0.195,0.78,0.26C27.8,15.405,27.865,15.6,27.8,15.925"/>
			<path class="st1" d="M12.525,15.665c-0.065,0.52-0.455,0.975-1.43,0.975c-0.52,0-1.04-0.195-1.235-0.325V15.47h0.26
				c0,0.13,0,0.195,0,0.26s0.065,0.195,0.13,0.26c0.195,0.195,0.39,0.325,0.845,0.325c0.585,0,0.845-0.325,0.845-0.65
				c0-0.39-0.26-0.52-0.975-0.65c-0.65-0.195-1.105-0.39-1.105-1.04c0-0.585,0.455-1.105,1.365-1.105c0.585,0,0.845,0.13,1.04,0.195
				v0.78H12.07c0-0.065,0-0.195,0-0.26c0-0.13-0.13-0.195-0.195-0.26c-0.195-0.065-0.455-0.13-0.715-0.065
				c-0.325,0-0.65,0.195-0.65,0.52c0,0.325,0.13,0.455,0.78,0.585c0.585,0.13,0.845,0.195,1.04,0.39
				C12.525,15.08,12.525,15.34,12.525,15.665"/>
		</g>
		<path class="st1" d="M15.385,14.17c0.195,0,0.195,0.065,0.195,0.195v2.015c0,0.13,0,0.195-0.195,0.195H15.32v0.13h0.845V16.51
			H16.1c-0.195,0-0.195-0.065-0.195-0.195v-1.69l1.105,2.015h0.585v-2.275c0-0.13,0-0.195,0.195-0.195h0.195v-0.325
			c0-0.26,0-0.585,0.39-0.585h0.39v2.86c0,0.195-0.065,0.325-0.325,0.325h-0.13v0.195H20v-0.195h-0.13
			c-0.26,0-0.325-0.065-0.325-0.325v-2.86h0.39c0.39,0,0.39,0.26,0.39,0.585v0.26h0.26c0.195,0,0.195,0.065,0.195,0.195v1.95
			c0,0.13-0.13,0.195-0.26,0.195v0.195h1.235v-0.195c-0.195,0-0.26-0.065-0.26-0.195v-2.145h0.325c0.26,0,0.455,0.13,0.455,0.52
			c0,0.195-0.13,0.52-0.455,0.52h-0.195c0,0,0.52,0.975,0.585,1.17c0.13,0.195,0.26,0.26,0.585,0.26h0.52V16.38
			c-0.065,0-0.195,0-0.26-0.13l-0.585-0.975c0.325-0.065,0.585-0.325,0.585-0.65c0-0.65-0.65-0.65-1.04-0.65H20.78V13h-2.925v0.975
			h-0.65v0.195h0.065c0.195,0,0.195,0.065,0.195,0.195v1.69L16.36,14.04h-1.755v0.195h0.065c0.195,0,0.195,0.065,0.195,0.195v1.43
			c0,0.325-0.065,0.78-0.585,0.78s-0.52-0.39-0.52-0.715v-1.43c0-0.13,0.065-0.195,0.26-0.195v-0.195h-1.365V14.3
			c0.195,0,0.26,0.065,0.26,0.195v1.365c0,0.39,0.065,0.585,0.195,0.78c0.195,0.195,0.65,0.195,0.845,0.195
			c0.975,0,0.975-0.585,0.975-1.17v-1.43c0,0.065,0,0,0.195,0L15.385,14.17L15.385,14.17z"/>
		<g>
			
				<linearGradient id="SVGID_1_" gradientUnits="userSpaceOnUse" x1="12.2589" y1="250.1257" x2="17.3935" y2="244.0066" gradientTransform="matrix(1 0 0 1 0 -239)">
				<stop  offset="0.3427" style="stop-color:#F5A800"/>
				<stop  offset="0.4882" style="stop-color:#E98F07"/>
				<stop  offset="0.6854" style="stop-color:#DC740E"/>
				<stop  offset="0.8605" style="stop-color:#D46413"/>
				<stop  offset="0.9944" style="stop-color:#D15E14"/>
			</linearGradient>
			<path class="st2" d="M12.46,9.49l-0.065,0.195c-0.065,0.13-0.065,0.39,0,0.52l0.26,1.495c0,0.13,0.065,0.195,0.13,0.195
				s0.065-0.13,0-0.325L12.59,9.555C12.525,9.425,12.46,9.425,12.46,9.49"/>
			
				<linearGradient id="SVGID_00000080902868070175225970000004459941316790523067_" gradientUnits="userSpaceOnUse" x1="12.4096" y1="250.2692" x2="17.5259" y2="244.1718" gradientTransform="matrix(1 0 0 1 0 -239)">
				<stop  offset="0.3427" style="stop-color:#F5A800"/>
				<stop  offset="0.4882" style="stop-color:#E98F07"/>
				<stop  offset="0.6854" style="stop-color:#DC740E"/>
				<stop  offset="0.8605" style="stop-color:#D46413"/>
				<stop  offset="0.9944" style="stop-color:#D15E14"/>
			</linearGradient>
			<path style="fill:url(#SVGID_00000080902868070175225970000004459941316790523067_);" d="M13.045,11.115c0,0.13,0,0.26,0,0.26
				c-0.065,0-0.065-0.065-0.13-0.195l-0.065-0.845c0-0.13,0-0.39,0.065-0.52c0.065-0.13,0.13-0.065,0.13,0.065V11.115z"/>
			
				<linearGradient id="SVGID_00000079458538293598111390000006300113530864543396_" gradientUnits="userSpaceOnUse" x1="12.008" y1="249.9436" x2="17.105" y2="243.8692" gradientTransform="matrix(1 0 0 1 0 -239)">
				<stop  offset="0.3427" style="stop-color:#F5A800"/>
				<stop  offset="0.4882" style="stop-color:#E98F07"/>
				<stop  offset="0.6854" style="stop-color:#DC740E"/>
				<stop  offset="0.8605" style="stop-color:#D46413"/>
				<stop  offset="0.9944" style="stop-color:#D15E14"/>
			</linearGradient>
			<path style="fill:url(#SVGID_00000079458538293598111390000006300113530864543396_);" d="M13.435,8.06l-0.13,2.6
				c0,0.13,0,0.26-0.065,0.26c0,0-0.065-0.065-0.065-0.195l-0.065-2.21c0-0.13,0.065-0.26,0.13-0.39l0.065-0.195
				C13.37,7.995,13.435,7.995,13.435,8.06"/>
			
				<linearGradient id="SVGID_00000091729540152444553820000001394527695499743930_" gradientUnits="userSpaceOnUse" x1="12.3902" y1="250.276" x2="17.475" y2="244.2163" gradientTransform="matrix(1 0 0 1 0 -239)">
				<stop  offset="0.3427" style="stop-color:#F5A800"/>
				<stop  offset="0.4882" style="stop-color:#E98F07"/>
				<stop  offset="0.6854" style="stop-color:#DC740E"/>
				<stop  offset="0.8605" style="stop-color:#D46413"/>
				<stop  offset="0.9944" style="stop-color:#D15E14"/>
			</linearGradient>
			<path style="fill:url(#SVGID_00000091729540152444553820000001394527695499743930_);" d="M13.825,8.645L13.63,10.66
				c0,0.195-0.065,0.26-0.065,0.26c-0.065,0-0.065-0.13-0.065-0.195l0.065-1.755C13.63,8.84,13.76,8.645,13.825,8.645
				C13.825,8.45,13.825,8.515,13.825,8.645"/>
			
				<linearGradient id="SVGID_00000169550190170641967560000004530116399769269945_" gradientUnits="userSpaceOnUse" x1="12.1697" y1="250.1" x2="17.2431" y2="244.0537" gradientTransform="matrix(1 0 0 1 0 -239)">
				<stop  offset="0.3427" style="stop-color:#F5A800"/>
				<stop  offset="0.4882" style="stop-color:#E98F07"/>
				<stop  offset="0.6854" style="stop-color:#DC740E"/>
				<stop  offset="0.8605" style="stop-color:#D46413"/>
				<stop  offset="0.9944" style="stop-color:#D15E14"/>
			</linearGradient>
			<path style="fill:url(#SVGID_00000169550190170641967560000004530116399769269945_);" d="M13.89,10.465
				c-0.065,0-0.065-0.195,0-0.195l0.26-2.795c0-0.13,0.13-0.26,0.195-0.325V7.085c0.065-0.13,0.13-0.13,0.13,0l-0.455,3.12
				C13.955,10.335,13.955,10.465,13.89,10.465"/>
			
				<linearGradient id="SVGID_00000177457166499624262460000013348536138218849980_" gradientUnits="userSpaceOnUse" x1="12.5195" y1="250.4013" x2="17.5802" y2="244.3702" gradientTransform="matrix(1 0 0 1 0 -239)">
				<stop  offset="0.3427" style="stop-color:#F5A800"/>
				<stop  offset="0.4882" style="stop-color:#E98F07"/>
				<stop  offset="0.6854" style="stop-color:#DC740E"/>
				<stop  offset="0.8605" style="stop-color:#D46413"/>
				<stop  offset="0.9944" style="stop-color:#D15E14"/>
			</linearGradient>
			<path style="fill:url(#SVGID_00000177457166499624262460000013348536138218849980_);" d="M14.735,7.54
				C14.8,7.475,14.93,7.475,14.93,7.605L14.28,10.4c0,0.13-0.065,0.26-0.13,0.195c-0.065,0-0.065-0.195,0-0.26L14.605,7.8
				C14.605,7.8,14.67,7.605,14.735,7.54"/>
			
				<linearGradient id="SVGID_00000181085716520442037170000010269138254469462423_" gradientUnits="userSpaceOnUse" x1="12.8559" y1="250.6859" x2="17.8808" y2="244.6974" gradientTransform="matrix(1 0 0 1 0 -239)">
				<stop  offset="0.3427" style="stop-color:#F5A800"/>
				<stop  offset="0.4882" style="stop-color:#E98F07"/>
				<stop  offset="0.6854" style="stop-color:#DC740E"/>
				<stop  offset="0.8605" style="stop-color:#D46413"/>
				<stop  offset="0.9944" style="stop-color:#D15E14"/>
			</linearGradient>
			<path style="fill:url(#SVGID_00000181085716520442037170000010269138254469462423_);" d="M14.8,10.4
				c-0.065,0.13-0.13,0.195-0.195,0.195c-0.065,0,0.065-0.195,0.065-0.195l1.495-3.705C16.23,6.565,16.36,6.5,16.425,6.5
				c0.065,0,0,0.26-0.065,0.325C15.515,8.905,15.255,9.49,14.8,10.4"/>
			
				<linearGradient id="SVGID_00000142149268212331838050000006706054691791592634_" gradientUnits="userSpaceOnUse" x1="13.0694" y1="250.866" x2="18.0775" y2="244.8975" gradientTransform="matrix(1 0 0 1 0 -239)">
				<stop  offset="0.3427" style="stop-color:#F5A800"/>
				<stop  offset="0.4882" style="stop-color:#E98F07"/>
				<stop  offset="0.6854" style="stop-color:#DC740E"/>
				<stop  offset="0.8605" style="stop-color:#D46413"/>
				<stop  offset="0.9944" style="stop-color:#D15E14"/>
			</linearGradient>
			<path style="fill:url(#SVGID_00000142149268212331838050000006706054691791592634_);" d="M15.125,10.205
				c0.065,0,0.13-0.065,0.195-0.195l2.795-4.615c0.065-0.065,0.065-0.195,0-0.26C18.05,5.07,17.92,5.2,17.855,5.33l-2.6,4.68
				C15.19,10.075,15.125,10.205,15.125,10.205"/>
			
				<linearGradient id="SVGID_00000062159245516766814790000015071502326214515618_" gradientUnits="userSpaceOnUse" x1="13.5663" y1="251.2864" x2="18.5593" y2="245.336" gradientTransform="matrix(1 0 0 1 0 -239)">
				<stop  offset="0.3427" style="stop-color:#F5A800"/>
				<stop  offset="0.4882" style="stop-color:#E98F07"/>
				<stop  offset="0.6854" style="stop-color:#DC740E"/>
				<stop  offset="0.8605" style="stop-color:#D46413"/>
				<stop  offset="0.9944" style="stop-color:#D15E14"/>
			</linearGradient>
			<path style="fill:url(#SVGID_00000062159245516766814790000015071502326214515618_);" d="M15.255,10.725
				c-0.065-0.065,0-0.195,0.13-0.26l2.99-4.29c0-0.195,0.195-0.325,0.325-0.26c0.13,0.065,0.13,0.195,0,0.26l-3.25,4.29
				C15.385,10.66,15.255,10.725,15.255,10.725"/>
			
				<linearGradient id="SVGID_00000049934727794767545950000010627745251957654971_" gradientUnits="userSpaceOnUse" x1="14.2461" y1="251.8575" x2="19.2237" y2="245.9256" gradientTransform="matrix(1 0 0 1 0 -239)">
				<stop  offset="0.3427" style="stop-color:#F5A800"/>
				<stop  offset="0.4882" style="stop-color:#E98F07"/>
				<stop  offset="0.6854" style="stop-color:#DC740E"/>
				<stop  offset="0.8605" style="stop-color:#D46413"/>
				<stop  offset="0.9944" style="stop-color:#D15E14"/>
			</linearGradient>
			<path style="fill:url(#SVGID_00000049934727794767545950000010627745251957654971_);" d="M16.1,10.205L15.905,10.4
				c-0.065-0.065,0.065-0.13,0.13-0.195l0.13-0.13l4.16-4.745c0.065-0.065,0.195-0.13,0.195,0l0.13,0.195
				c0.065,0.065,0.065,0.195,0,0.26L16.1,10.205z"/>
			
				<linearGradient id="SVGID_00000083804630006492884350000015240082654055940225_" gradientUnits="userSpaceOnUse" x1="14.6898" y1="252.2321" x2="19.6508" y2="246.3199" gradientTransform="matrix(1 0 0 1 0 -239)">
				<stop  offset="0.3427" style="stop-color:#F5A800"/>
				<stop  offset="0.4882" style="stop-color:#E98F07"/>
				<stop  offset="0.6854" style="stop-color:#DC740E"/>
				<stop  offset="0.8605" style="stop-color:#D46413"/>
				<stop  offset="0.9944" style="stop-color:#D15E14"/>
			</linearGradient>
			<path style="fill:url(#SVGID_00000083804630006492884350000015240082654055940225_);" d="M15.775,10.985
				c-0.065-0.065,0.065-0.13,0.195-0.195l4.42-4.095c0.065-0.065,0.195-0.065,0.26,0c0.13,0.13,0.13,0.195,0.13,0.195
				c0,0.13-0.065,0.195-0.13,0.26l-4.615,3.64C15.905,10.985,15.775,11.05,15.775,10.985"/>
			
				<linearGradient id="SVGID_00000018201819289098847360000016129442479642763691_" gradientUnits="userSpaceOnUse" x1="15.3975" y1="252.8278" x2="20.3416" y2="246.9356" gradientTransform="matrix(1 0 0 1 0 -239)">
				<stop  offset="0.3427" style="stop-color:#F5A800"/>
				<stop  offset="0.4882" style="stop-color:#E98F07"/>
				<stop  offset="0.6854" style="stop-color:#DC740E"/>
				<stop  offset="0.8605" style="stop-color:#D46413"/>
				<stop  offset="0.9944" style="stop-color:#D15E14"/>
			</linearGradient>
			<path style="fill:url(#SVGID_00000018201819289098847360000016129442479642763691_);" d="M16.685,10.66l5.135-3.705
				c0.13-0.065,0.195-0.065,0.195,0.065l0.13,0.39c0,0.13-0.065,0.195-0.195,0.325l-5.2,3.055c-0.13,0.065-0.26,0.195-0.26,0.13
				C16.425,10.79,16.555,10.725,16.685,10.66"/>
			
				<linearGradient id="SVGID_00000088092150629993513940000016910065014129719468_" gradientUnits="userSpaceOnUse" x1="15.6768" y1="253.0569" x2="20.5959" y2="247.1946" gradientTransform="matrix(1 0 0 1 0 -239)">
				<stop  offset="0.3427" style="stop-color:#F5A800"/>
				<stop  offset="0.4882" style="stop-color:#E98F07"/>
				<stop  offset="0.6854" style="stop-color:#DC740E"/>
				<stop  offset="0.8605" style="stop-color:#D46413"/>
				<stop  offset="0.9944" style="stop-color:#D15E14"/>
			</linearGradient>
			<path style="fill:url(#SVGID_00000088092150629993513940000016910065014129719468_);" d="M16.165,11.375
				c0-0.065,0.13-0.13,0.26-0.195l4.615-2.275c0.13-0.065,0.195-0.065,0.195,0.065v0.52c0,0.13-0.13,0.195-0.26,0.26l-4.55,1.56
				C16.295,11.44,16.165,11.44,16.165,11.375"/>
			
				<linearGradient id="SVGID_00000134219077865133245930000013572463511463287742_" gradientUnits="userSpaceOnUse" x1="16.3571" y1="253.6249" x2="21.244" y2="247.8009" gradientTransform="matrix(1 0 0 1 0 -239)">
				<stop  offset="0.3427" style="stop-color:#F5A800"/>
				<stop  offset="0.4882" style="stop-color:#E98F07"/>
				<stop  offset="0.6854" style="stop-color:#DC740E"/>
				<stop  offset="0.8605" style="stop-color:#D46413"/>
				<stop  offset="0.9944" style="stop-color:#D15E14"/>
			</linearGradient>
			<path style="fill:url(#SVGID_00000134219077865133245930000013572463511463287742_);" d="M21.495,10.985l-4.42,0.585
				c-0.195,0-0.26,0.065-0.325,0c0-0.065,0.13-0.13,0.26-0.195l4.615-1.43c0.195-0.065,0.26,0,0.195,0.13l-0.065,0.52
				C21.82,10.79,21.69,10.92,21.495,10.985"/>
			
				<linearGradient id="SVGID_00000120523130471563767730000010538303677018893239_" gradientUnits="userSpaceOnUse" x1="16.4263" y1="253.6762" x2="21.273" y2="247.9" gradientTransform="matrix(1 0 0 1 0 -239)">
				<stop  offset="0.3427" style="stop-color:#F5A800"/>
				<stop  offset="0.4882" style="stop-color:#E98F07"/>
				<stop  offset="0.6854" style="stop-color:#DC740E"/>
				<stop  offset="0.8605" style="stop-color:#D46413"/>
				<stop  offset="0.9944" style="stop-color:#D15E14"/>
			</linearGradient>
			<path style="fill:url(#SVGID_00000120523130471563767730000010538303677018893239_);" d="M16.49,12.025
				c0-0.065,0.195-0.13,0.39-0.13l3.9-0.455c0.195,0,0.325,0.065,0.26,0.195l-0.065,0.195c-0.065,0.13-0.195,0.195-0.39,0.195h-3.77
				C16.62,12.09,16.49,12.09,16.49,12.025"/>
			
				<linearGradient id="SVGID_00000036223424546072075740000014612215553100947115_" gradientUnits="userSpaceOnUse" x1="12.4876" y1="250.376" x2="17.5308" y2="244.3658" gradientTransform="matrix(1 0 0 1 0 -239)">
				<stop  offset="0.3427" style="stop-color:#F5A800"/>
				<stop  offset="0.4882" style="stop-color:#E98F07"/>
				<stop  offset="0.6854" style="stop-color:#DC740E"/>
				<stop  offset="0.8605" style="stop-color:#D46413"/>
				<stop  offset="0.9944" style="stop-color:#D15E14"/>
			</linearGradient>
			<path style="fill:url(#SVGID_00000036223424546072075740000014612215553100947115_);" d="M15.905,6.24
				c0,0-1.105,3.445-1.17,3.705c-0.065,0.195-0.13,0.39-0.195,0.39c-0.065,0,0-0.13,0.065-0.26l1.04-3.835
				c0.065-0.195,0.195-0.26,0.26-0.26C16.035,5.85,15.97,6.11,15.905,6.24"/>
		</g>
	</g>
</g>
</svg>
