<svg xmlns="http://www.w3.org/2000/svg" xml:space="preserve" id="Layer_1" x="0" y="0" viewBox="0 0 40 26"><style>.st0{fill:#fff}.st1{fill:#dc142e}.st2{fill:#253779}</style><path d="M0 0h40v26H0z" class="st0"/><g id="Calque_3"><path id="_x31__2_" d="M9.6 10.855v4.16l3.51 1.235 3.51-1.235v-4.16z" class="st1"/><path id="_x31__1_" d="M13.11 14.885h-1.105v-.325c-.13.26-.455.39-.91.39-.52 0-.975-.26-.975-.975V11.96h1.105v1.56c0 .325.065.585.325.585.195 0 .455-.13.455-.585v-1.56h1.105zm2.08-2.08c0-.13-.065-.195-.13-.26a.5.5 0 0 0-.26-.13c-.195 0-.325.065-.325.26 0 .065.065.13.13.195.195.065.585.13.975.26.325.13.715.325.715.78 0 .78-.78 1.04-1.495 1.04s-1.43-.26-1.43-1.04h1.17c0 .13.065.195.13.26s.195.065.26.065.325-.065.325-.26-.13-.26-.65-.26c-.845-.13-1.235-.39-1.235-.91 0-.78.78-.91 1.365-.91.65 0 1.365.195 1.43.91z" class="st0"/><path id="_x31_" d="M17.075 10.855h1.105v1.43a.93.93 0 0 1 .78-.39c.975 0 1.3.78 1.3 1.495 0 .78-.39 1.56-1.235 1.56-.52 0-.715-.26-.845-.39v.26h-1.105zm1.56 1.885c-.39 0-.455.325-.455.715 0 .325.065.78.455.78s.455-.325.455-.78c.065-.39-.065-.715-.455-.715m4.745 1.495c0 .26 0 .455.13.65h-1.17c0-.065-.065-.195-.065-.26-.26.26-.585.325-.91.325-.585 0-1.04-.26-1.04-.845 0-.91 1.105-.845 1.69-.975.195 0 .26-.065.26-.26s-.195-.26-.325-.26c-.325 0-.39.195-.39.26h-1.04c.065-.78.78-.975 1.495-.975 1.365 0 1.365.585 1.365 1.17zm-1.105-.65c-.13.065-.26.13-.455.13-.26.065-.325.13-.325.26s.13.26.325.26c.26 0 .455-.195.455-.455zm1.495-1.625h1.105v.325c.26-.26.52-.455.91-.455.52 0 .975.26.975.975v2.015h-1.105v-1.56c0-.325-.065-.585-.325-.585-.195 0-.455.13-.455.585v1.56H23.77zm3.38-1.105h1.105v1.95l.715-.845h1.3l-1.04 1.105 1.235 1.82h-1.3l-.585-1.04-.195.26v.845H27.15z" class="st2"/></g></svg>