<svg width="52" height="52" viewBox="0 0 52 52" fill="none" xmlns="http://www.w3.org/2000/svg">
<g clip-path="url(#clip0_26_81633)">
<rect width="52" height="52" fill="#FFD7B0"/>
<path d="M26 52C40.3594 52 52 40.3594 52 26C52 11.6406 40.3594 0 26 0C11.6406 0 0 11.6406 0 26C0 40.3594 11.6406 52 26 52Z" fill="#FFD7B0"/>
<path d="M26 46.7669C37.4692 46.7669 46.7668 37.4693 46.7668 26.0002C46.7668 14.531 37.4692 5.2334 26 5.2334C14.5309 5.2334 5.23328 14.531 5.23328 26.0002C5.23328 37.4693 14.5309 46.7669 26 46.7669Z" fill="#FFD7B0" stroke="#002140" stroke-width="0.65" stroke-miterlimit="10"/>
<path d="M47.1198 18.6221V22.322L47.0783 22.3636L42.6896 24.9871L42.5857 25.0528C41.9489 24.0699 41.0628 23.2634 40.0176 22.7235L40.0418 22.6785C40.8932 21.5294 41.2809 20.0481 41.1113 18.629L41.184 18.6221H47.1233H47.1198Z" fill="#FFC68C"/>
<path d="M47.1198 14.6617V18.6213H41.1805L41.1078 18.6282C41.0974 18.5313 41.0836 18.4344 41.0663 18.3409C40.8067 16.8353 39.9102 15.4509 38.64 14.5994V14.5752H47.1163V14.6617H47.1198Z" fill="#FF7101"/>
<path d="M32.6903 33.9822C31.157 32.7466 30.1741 30.8499 30.1741 28.7248C30.1741 28.1883 30.2364 27.6657 30.3541 27.1638C31.0567 24.1907 33.7321 21.9756 36.9198 21.9756C37.4597 21.9756 37.9893 22.0379 38.4912 22.1625C39.0242 22.2905 39.5364 22.4809 40.0141 22.7267C41.0593 23.2666 41.9454 24.073 42.5822 25.056C43.2675 26.1116 43.6655 27.3715 43.6655 28.7248C43.6655 32.4524 40.644 35.474 36.9163 35.474C35.3138 35.474 33.8429 34.9167 32.6834 33.9822H32.6903ZM42.5753 29.2474C42.5961 28.9878 42.3919 28.7663 42.1323 28.7663C41.9038 28.7663 41.71 28.9394 41.6893 29.1678C41.492 31.6321 39.4776 33.5704 37.0236 33.5704C36.7191 33.5704 36.4214 33.5392 36.1341 33.4838C35.9023 33.4388 35.6773 33.5842 35.6219 33.8161V33.8369C35.5561 34.0861 35.7188 34.3284 35.968 34.3768C36.3106 34.4426 36.6637 34.4806 37.0236 34.4806C39.9414 34.4806 42.3365 32.179 42.5753 29.2509V29.2474ZM40.6751 28.7248C40.6751 26.6516 38.9965 24.9695 36.9198 24.9695C34.8431 24.9695 33.1645 26.6481 33.1645 28.7248C33.1645 30.8015 34.8466 32.4801 36.9198 32.4801C38.993 32.4801 40.6751 30.798 40.6751 28.7248ZM38.1589 23.6577C38.2177 23.4085 38.0585 23.1662 37.8093 23.1178C37.4667 23.052 37.1171 23.0139 36.7537 23.0139C33.8359 23.0139 31.4409 25.3156 31.202 28.2437C31.1813 28.5033 31.3855 28.7248 31.6451 28.7248C31.8735 28.7248 32.0673 28.5517 32.0846 28.3233C32.2819 25.859 34.2963 23.9207 36.7537 23.9207C37.0583 23.9207 37.3559 23.9484 37.6432 24.0073C37.8751 24.0523 38.1001 23.9069 38.1554 23.6785V23.6577H38.1589Z" fill="#002140"/>
<path d="M42.1323 28.7662C42.3919 28.7662 42.5961 28.9877 42.5753 29.2473C42.3365 32.1754 39.9449 34.477 37.0237 34.477C36.6637 34.477 36.3107 34.4424 35.968 34.3732C35.7188 34.3247 35.5596 34.079 35.6184 33.8332V33.8125C35.6773 33.5806 35.9023 33.4352 36.1342 33.4802C36.4214 33.5356 36.7191 33.5667 37.0237 33.5667C39.4776 33.5667 41.492 31.6285 41.6893 29.1642C41.7066 28.9358 41.9039 28.7627 42.1323 28.7627V28.7662Z" fill="#FFFAF0"/>
<path d="M36.9233 24.9727C38.9965 24.9727 40.6786 26.6513 40.6786 28.728C40.6786 30.8047 39 32.4833 36.9233 32.4833C34.8466 32.4833 33.168 30.8012 33.168 28.728C33.168 26.6548 34.8501 24.9727 36.9233 24.9727ZM38.2004 28.7245C38.2004 28.0184 37.6294 27.4474 36.9233 27.4474C36.2172 27.4474 35.6461 28.0184 35.6461 28.7245C35.6461 29.4306 36.2172 30.0017 36.9233 30.0017C37.6294 30.0017 38.2004 29.4306 38.2004 28.7245Z" fill="#FF7101"/>
<path d="M37.8924 18.6216C38.4392 19.6911 38.685 20.9198 38.5085 22.107L38.4946 22.1624C37.9893 22.0412 37.4632 21.9755 36.9232 21.9755C33.7355 21.9755 31.0601 24.1906 30.3575 27.1637L30.2536 27.1395H23.3695L23.2518 27.1672C23.0857 26.4715 22.8157 25.8139 22.4523 25.2185L22.5492 25.1562C24.4667 25.1078 26.1522 24.4848 27.7547 23.4361C29.3607 22.3873 30.759 20.6672 31.074 18.7774L31.1086 18.6182H37.8889L37.8924 18.6216Z" fill="#FFC68C"/>
<path d="M37.8059 23.1175C38.0551 23.166 38.2178 23.4117 38.1555 23.6574V23.6782C38.0966 23.9066 37.8716 24.0555 37.6398 24.007C37.3525 23.9516 37.0548 23.9205 36.7502 23.9205C34.2963 23.9205 32.2819 25.8553 32.0812 28.323C32.0639 28.5515 31.87 28.7245 31.6416 28.7245C31.382 28.7245 31.1778 28.503 31.1986 28.2434C31.4374 25.3153 33.829 23.0137 36.7502 23.0137C37.1102 23.0137 37.4632 23.0483 37.8059 23.1175Z" fill="#FFFAF0"/>
<path d="M37.8785 18.594C37.8785 18.594 37.8889 18.6113 37.8924 18.6217H31.112L31.0774 18.7809C30.759 20.6706 29.3607 22.3908 27.7582 23.4396C26.1522 24.4883 24.4666 25.1147 22.5526 25.1597L22.4557 25.222C22.0439 24.5471 21.5178 23.9483 20.9052 23.4569L20.919 23.4396C21.3412 23.4084 21.7635 23.3772 22.1788 23.3392C23.4283 23.2215 24.6397 23.0208 25.7646 22.4289C27.1213 21.7124 28.2081 20.5218 28.8796 19.1408C29.1876 18.504 29.4126 17.8256 29.551 17.1334C29.7137 16.3235 29.7656 15.4893 29.7137 14.6656L29.7379 14.6241C31.472 14.2433 34.054 14.8698 35.4973 15.9081C36.4802 16.6142 37.3282 17.5245 37.882 18.5974L37.8785 18.594Z" fill="#FF7101"/>
<path d="M36.9233 30.0016C37.6286 30.0016 38.2004 29.4298 38.2004 28.7244C38.2004 28.0191 37.6286 27.4473 36.9233 27.4473C36.2179 27.4473 35.6461 28.0191 35.6461 28.7244C35.6461 29.4298 36.2179 30.0016 36.9233 30.0016Z" fill="#FFFAF0"/>
<path d="M32.6904 33.9823H20.9571L20.9398 33.9615C22.4593 32.7259 23.4318 30.8396 23.4318 28.7248C23.4318 28.1884 23.3695 27.6692 23.2519 27.1673L23.3695 27.1396H30.2537L30.3576 27.1639C30.2364 27.6657 30.1776 28.1884 30.1776 28.7248C30.1776 30.85 31.1605 32.7432 32.6938 33.9823H32.6904Z" fill="#FF7101"/>
<path d="M29.4784 17.1164L29.5476 17.1302C29.4092 17.8259 29.1877 18.5008 28.8762 19.1377C28.2082 20.5187 27.1214 21.7093 25.7611 22.4257C24.6363 23.0211 23.4249 23.2218 22.1754 23.336L22.1616 23.2668C22.1027 22.7511 22.1027 22.4154 22.1097 22.0589H22.2481C23.238 21.9758 24.2209 21.8235 25.1312 21.332C26.038 20.8405 26.8549 20.0964 27.2425 19.1377H22.7119C23.546 17.5975 25.1762 16.5557 27.0452 16.5557C28.0316 16.5557 28.8727 16.8568 29.4749 17.1164H29.4784Z" fill="#002140"/>
<path d="M22.7222 19.1378H27.2425C26.8583 20.0965 26.0415 20.8407 25.1312 21.3321C24.2209 21.8236 23.238 21.9759 22.2481 22.0624H22.1096C22.1131 21.879 22.1165 21.6956 22.1165 21.481C22.1165 20.6295 22.3311 19.83 22.7119 19.1309H22.7188L22.7222 19.1378Z" fill="#FFFAF0"/>
<path d="M23.2518 27.1711C23.3694 27.6695 23.4318 28.1921 23.4318 28.7286C23.4318 30.8399 22.4626 32.7262 20.9397 33.9653C19.7768 34.9102 18.2954 35.4778 16.6826 35.4778C15.0697 35.4778 13.6021 34.9171 12.4427 33.9791C11.0478 32.8508 10.1133 31.1791 9.95758 29.2859C9.94027 29.1024 9.93335 28.919 9.93335 28.7321C9.93335 28.1506 10.006 27.5864 10.1445 27.0465C10.3798 26.1293 10.8055 25.2882 11.3697 24.5683C12.6053 22.997 14.5263 21.9863 16.6791 21.9863C18.2747 21.9863 19.7387 22.5401 20.8947 23.4677C21.5108 23.9592 22.0334 24.5579 22.4453 25.2329C22.8053 25.8282 23.0787 26.4823 23.2448 27.1815L23.2518 27.1711ZM22.338 29.2478C22.3588 28.9882 22.1546 28.7667 21.895 28.7667C21.6666 28.7667 21.4727 28.9397 21.452 29.1682C21.2547 31.6325 19.2403 33.5707 16.7864 33.5707C16.4818 33.5707 16.1841 33.5396 15.8969 33.4842C15.665 33.4392 15.44 33.5846 15.3846 33.8165V33.8372C15.3189 34.0864 15.4815 34.3287 15.7307 34.3772C16.0734 34.4429 16.4264 34.481 16.7864 34.481C19.7041 34.481 22.0992 32.1794 22.338 29.2512V29.2478ZM20.4379 28.7251C20.4379 26.6519 18.7592 24.9698 16.6826 24.9698C14.6059 24.9698 12.9272 26.6485 12.9272 28.7251C12.9272 30.8018 14.6093 32.4805 16.6826 32.4805C18.7558 32.4805 20.4379 30.7984 20.4379 28.7251ZM17.9216 23.6581C17.9805 23.4089 17.8213 23.1666 17.5721 23.1181C17.2294 23.0524 16.8798 23.0143 16.5164 23.0143C13.5987 23.0143 11.2036 25.3159 10.9648 28.2441C10.944 28.5036 11.1482 28.7251 11.4078 28.7251C11.6362 28.7251 11.83 28.5521 11.8473 28.3237C12.0446 25.8593 14.059 23.9211 16.5164 23.9211C16.821 23.9211 17.1186 23.9488 17.4059 24.0076C17.6378 24.0526 17.8628 23.9073 17.9182 23.6788V23.6581H17.9216Z" fill="#002140"/>
<path d="M21.8951 28.7662C22.1547 28.7662 22.3589 28.9877 22.3381 29.2473C22.0993 32.1754 19.7077 34.477 16.7865 34.477C16.4265 34.477 16.0735 34.4424 15.7308 34.3732C15.4816 34.3247 15.3224 34.079 15.3813 33.8332V33.8125C15.4401 33.5806 15.6651 33.4352 15.897 33.4802C16.1842 33.5356 16.4819 33.5667 16.7865 33.5667C19.2404 33.5667 21.2548 31.6285 21.4521 29.1642C21.4694 28.9358 21.6667 28.7627 21.8951 28.7627V28.7662Z" fill="#FFFAF0"/>
<path d="M16.6826 24.9727C18.7558 24.9727 20.4379 26.6513 20.4379 28.728C20.4379 30.8047 18.7593 32.4833 16.6826 32.4833C14.6059 32.4833 12.9272 30.8012 12.9272 28.728C12.9272 26.6548 14.6094 24.9727 16.6826 24.9727ZM17.9632 28.7245C17.9632 28.0184 17.3921 27.4474 16.686 27.4474C15.98 27.4474 15.4089 28.0184 15.4089 28.7245C15.4089 29.4306 15.98 30.0017 16.686 30.0017C17.3921 30.0017 17.9632 29.4306 17.9632 28.7245Z" fill="#FF7101"/>
<path d="M17.5686 23.1175C17.8178 23.166 17.9805 23.4117 17.9182 23.6574V23.6782C17.8593 23.9066 17.6344 24.0555 17.4025 24.007C17.1152 23.9516 16.8175 23.9205 16.513 23.9205C14.059 23.9205 12.0446 25.8553 11.8439 28.323C11.8266 28.5515 11.6328 28.7245 11.4043 28.7245C11.1447 28.7245 10.9405 28.503 10.9613 28.2434C11.2001 25.3153 13.5918 23.0137 16.513 23.0137C16.8729 23.0137 17.2259 23.0483 17.5686 23.1175Z" fill="#FFFAF0"/>
<path d="M16.6826 30.0016C17.3879 30.0016 17.9597 29.4298 17.9597 28.7244C17.9597 28.0191 17.3879 27.4473 16.6826 27.4473C15.9772 27.4473 15.4054 28.0191 15.4054 28.7244C15.4054 29.4298 15.9772 30.0016 16.6826 30.0016Z" fill="#FFFAF0"/>
<path d="M12.4427 33.9755V33.9824H8.29626V33.8544C8.3378 32.2623 8.33781 30.1544 9.8434 29.2926L9.95416 29.2822C10.1064 31.1755 11.0444 32.8507 12.4392 33.9755H12.4427Z" fill="#FFC68C"/>
<path d="M11.3213 24.5162L11.3767 24.5612C10.8091 25.2845 10.3868 26.1256 10.1514 27.0393L10.0303 27.0116C7.70788 27.8285 6.27844 29.8082 6.4065 33.9374V33.9789H4.3056C4.3056 33.9789 3.48877 25.8487 11.3178 24.5127L11.3213 24.5162Z" fill="#FF7101"/>
<path d="M10.0303 27.0117L10.1515 27.0394C10.013 27.5793 9.94035 28.1435 9.94035 28.725C9.94035 28.9119 9.94727 29.0953 9.96458 29.2788L9.85382 29.2891C8.34823 30.151 8.34824 32.2588 8.30671 33.8509V33.979H6.41348V33.9374C6.28542 29.8083 7.71139 27.8285 10.0373 27.0117H10.0303Z" fill="#FFA75A"/>
<path d="M23.2518 27.1701C23.3694 27.6685 23.4318 28.1912 23.4318 28.7276C23.4318 30.8389 22.4626 32.7252 20.9397 33.9643C19.7768 34.9092 18.2954 35.4768 16.6826 35.4768C15.0697 35.4768 13.6021 34.9161 12.4427 33.9782C11.0478 32.8498 10.1133 31.1781 9.95758 29.2849C9.94027 29.1014 9.93335 28.918 9.93335 28.7311C9.93335 28.1496 10.006 27.5855 10.1445 27.0455C10.3798 26.1283 10.8055 25.2873 11.3697 24.5674C12.6053 22.996 14.5263 21.9854 16.6791 21.9854C18.2747 21.9854 19.7387 22.5391 20.8947 23.4667C21.5108 23.9582 22.0334 24.557 22.4453 25.2319C22.8053 25.8272 23.0787 26.4814 23.2448 27.1805L23.2518 27.1701Z" stroke="#002140" stroke-width="0.65" stroke-linecap="round" stroke-linejoin="round"/>
<path d="M16.6826 32.4794C18.7566 32.4794 20.4379 30.7981 20.4379 28.7241C20.4379 26.6501 18.7566 24.9688 16.6826 24.9688C14.6086 24.9688 12.9272 26.6501 12.9272 28.7241C12.9272 30.7981 14.6086 32.4794 16.6826 32.4794Z" stroke="#002140" stroke-width="0.65" stroke-linecap="round" stroke-linejoin="round"/>
<path d="M16.6826 30.0016C17.3879 30.0016 17.9597 29.4298 17.9597 28.7244C17.9597 28.0191 17.3879 27.4473 16.6826 27.4473C15.9772 27.4473 15.4054 28.0191 15.4054 28.7244C15.4054 29.4298 15.9772 30.0016 16.6826 30.0016Z" stroke="#FFFAF0" stroke-width="0.65" stroke-linecap="round" stroke-linejoin="round"/>
<path d="M11.4079 28.7245C11.6363 28.7245 11.8301 28.5515 11.8474 28.323C12.0447 25.8587 14.0591 23.9205 16.5165 23.9205C16.8211 23.9205 17.1187 23.9482 17.406 24.007C17.6379 24.052 17.8629 23.9066 17.9183 23.6782V23.6574C17.984 23.4082 17.8213 23.166 17.5721 23.1175C17.2295 23.0517 16.8799 23.0137 16.5165 23.0137C13.5987 23.0137 11.2037 25.3153 10.9648 28.2434C10.9441 28.503 11.1483 28.7245 11.4079 28.7245Z" stroke="#FFFAF0" stroke-width="0.65" stroke-linecap="round" stroke-linejoin="round"/>
<path d="M21.895 28.7656C21.6666 28.7656 21.4728 28.9387 21.452 29.1671C21.2547 31.6314 19.2403 33.5697 16.7864 33.5697C16.4818 33.5697 16.1842 33.5385 15.8969 33.4831C15.665 33.4381 15.44 33.5835 15.3846 33.8154V33.8362C15.3189 34.0854 15.4816 34.3277 15.7308 34.3761C16.0734 34.4419 16.4264 34.4799 16.7864 34.4799C19.7041 34.4799 22.0992 32.1783 22.338 29.2502C22.3588 28.9906 22.1546 28.7691 21.895 28.7691V28.7656Z" stroke="#FFFAF0" stroke-width="0.65" stroke-linecap="round" stroke-linejoin="round"/>
<path d="M42.5857 25.055C43.271 26.1107 43.6691 27.3705 43.6691 28.7238C43.6691 32.4514 40.6475 35.473 36.9199 35.473C35.3174 35.473 33.8464 34.9158 32.6869 33.9813C31.1536 32.7456 30.1707 30.8489 30.1707 28.7238C30.1707 28.1873 30.233 27.6647 30.3506 27.1628C31.0532 24.1897 33.7287 21.9746 36.9164 21.9746C37.4563 21.9746 37.9859 22.0369 38.4878 22.1615C39.0208 22.2896 39.533 22.4799 40.0106 22.7257C41.0559 23.2656 41.942 24.0721 42.5788 25.055H42.5857Z" stroke="#002140" stroke-width="0.65" stroke-linecap="round" stroke-linejoin="round"/>
<path d="M36.9233 32.4794C38.9973 32.4794 40.6786 30.7981 40.6786 28.7241C40.6786 26.6501 38.9973 24.9688 36.9233 24.9688C34.8493 24.9688 33.168 26.6501 33.168 28.7241C33.168 30.7981 34.8493 32.4794 36.9233 32.4794Z" stroke="#002140" stroke-width="0.65" stroke-linecap="round" stroke-linejoin="round"/>
<path d="M36.9233 30.0016C37.6286 30.0016 38.2004 29.4298 38.2004 28.7244C38.2004 28.0191 37.6286 27.4473 36.9233 27.4473C36.2179 27.4473 35.6461 28.0191 35.6461 28.7244C35.6461 29.4298 36.2179 30.0016 36.9233 30.0016Z" stroke="#FFFAF0" stroke-width="0.65" stroke-linecap="round" stroke-linejoin="round"/>
<path d="M31.645 28.7245C31.8735 28.7245 32.0673 28.5515 32.0846 28.323C32.2819 25.8587 34.2963 23.9205 36.7537 23.9205C37.0582 23.9205 37.3559 23.9482 37.6432 24.007C37.8751 24.052 38.1 23.9066 38.1554 23.6782V23.6574C38.2212 23.4082 38.0585 23.166 37.8093 23.1175C37.4666 23.0517 37.1171 23.0137 36.7537 23.0137C33.8359 23.0137 31.4408 25.3153 31.202 28.2434C31.1812 28.503 31.3854 28.7245 31.645 28.7245Z" stroke="#FFFAF0" stroke-width="0.65" stroke-linecap="round" stroke-linejoin="round"/>
<path d="M42.1322 28.7656C41.9038 28.7656 41.71 28.9387 41.6892 29.1671C41.4919 31.6314 39.4775 33.5697 37.0236 33.5697C36.719 33.5697 36.4214 33.5385 36.1341 33.4831C35.9022 33.4381 35.6772 33.5835 35.6218 33.8154V33.8362C35.5561 34.0854 35.7187 34.3277 35.9679 34.3761C36.3106 34.4419 36.6636 34.4799 37.0236 34.4799C39.9413 34.4799 42.3364 32.1783 42.5752 29.2502C42.596 28.9906 42.3918 28.7691 42.1322 28.7691V28.7656Z" stroke="#FFFAF0" stroke-width="0.65" stroke-linecap="round" stroke-linejoin="round"/>
<path d="M12.4392 33.9818H4.3056C4.3056 33.9818 3.48877 25.8516 11.3178 24.5156" stroke="#002140" stroke-width="0.65" stroke-linecap="round" stroke-linejoin="round"/>
<path d="M32.7041 33.9814H32.6903H20.957" stroke="#002140" stroke-width="0.65" stroke-linecap="round" stroke-linejoin="round"/>
<path d="M29.7103 14.6621C29.7622 15.4859 29.7103 16.32 29.5476 17.1299C29.4091 17.8256 29.1876 18.5005 28.8761 19.1373C28.2081 20.5183 27.1213 21.709 25.7611 22.4254C24.6362 23.0207 23.4249 23.2215 22.1754 23.3357C21.76 23.3772 21.3378 23.4049 20.9155 23.4361" stroke="#002140" stroke-width="0.65" stroke-linecap="round" stroke-linejoin="round"/>
<path d="M29.7379 14.6201C31.4719 14.2394 34.0539 14.8659 35.4972 15.9042C36.4802 16.6103 37.3282 17.5206 37.882 18.5935C37.8854 18.6039 37.8923 18.6108 37.8958 18.6212C38.4427 19.6907 38.6884 20.9194 38.5119 22.1066" stroke="#002140" stroke-width="0.65" stroke-linecap="round" stroke-linejoin="round"/>
<path d="M38.6434 14.5996C39.9102 15.451 40.8101 16.8355 41.0697 18.3411C41.087 18.4345 41.1008 18.5315 41.1112 18.6284C41.2808 20.0474 40.8932 21.5288 40.0417 22.6779" stroke="#002140" stroke-width="0.65" stroke-linecap="round" stroke-linejoin="round"/>
<path d="M38.6434 14.5752H47.1197" stroke="#002140" stroke-width="0.65" stroke-linecap="round" stroke-linejoin="round"/>
<path d="M47.1198 22.3216V18.6216V14.6621" stroke="#002140" stroke-width="0.65" stroke-linecap="round" stroke-linejoin="round"/>
<path d="M42.6896 24.9893L47.0783 22.3623" stroke="#002140" stroke-width="0.65" stroke-linecap="round" stroke-linejoin="round"/>
<path d="M22.1616 23.2693C22.1027 22.7536 22.1027 22.4178 22.1097 22.0613C22.1131 21.8814 22.1166 21.6979 22.1166 21.4833C22.1166 20.6319 22.3312 19.8324 22.7119 19.1332C23.546 17.5999 25.1762 16.5547 27.0452 16.5547C28.0316 16.5547 28.8727 16.8558 29.4749 17.1154" stroke="#002140" stroke-width="0.65" stroke-linecap="round" stroke-linejoin="round"/>
<path d="M22.248 22.0614C23.2379 21.9748 24.2209 21.8226 25.1312 21.3311C26.038 20.8396 26.8548 20.0955 27.2425 19.1367H22.7222" stroke="#002140" stroke-width="0.65" stroke-linecap="round" stroke-linejoin="round"/>
</g>
<defs>
<clipPath id="clip0_26_81633">
<rect width="52" height="52" fill="white"/>
</clipPath>
</defs>
</svg>
