<svg width="52" height="52" viewBox="0 0 52 52" fill="none" xmlns="http://www.w3.org/2000/svg">
<g clip-path="url(#clip0_26_81615)">
<rect width="52" height="52" fill="#B1F2D6"/>
<path d="M26 52C40.3594 52 52 40.3594 52 26C52 11.6406 40.3594 0 26 0C11.6406 0 0 11.6406 0 26C0 40.3594 11.6406 52 26 52Z" fill="#B1F2D6"/>
<path d="M26 46.7669C37.4692 46.7669 46.7668 37.4693 46.7668 26.0002C46.7668 14.531 37.4692 5.2334 26 5.2334C14.5309 5.2334 5.23328 14.531 5.23328 26.0002C5.23328 37.4693 14.5309 46.7669 26 46.7669Z" fill="#B1F2D6" stroke="#002140" stroke-width="0.65" stroke-miterlimit="10"/>
<path d="M46.7736 18.6221V22.322L46.7321 22.3636L42.3434 24.9871L42.2395 25.0528C41.6027 24.0699 40.7166 23.2634 39.6714 22.7235L39.6956 22.6785C40.5471 21.5294 40.9347 20.0481 40.7651 18.629L40.8378 18.6221H46.7771H46.7736Z" fill="#5BE3AA"/>
<path d="M46.7737 14.6617V18.6213H40.8344L40.7617 18.6282C40.7513 18.5313 40.7375 18.4344 40.7202 18.3409C40.4606 16.8353 39.5642 15.4509 38.2939 14.5994V14.5752H46.7702V14.6617H46.7737Z" fill="#00B268"/>
<path d="M32.3443 33.9822C30.811 32.7466 29.828 30.8499 29.828 28.7248C29.828 28.1883 29.8903 27.6657 30.008 27.1638C30.7106 24.1907 33.3861 21.9756 36.5738 21.9756C37.1137 21.9756 37.6432 22.0379 38.1451 22.1625C38.6781 22.2905 39.1904 22.4809 39.668 22.7267C40.7133 23.2666 41.5993 24.073 42.2362 25.056C42.9215 26.1116 43.3195 27.3715 43.3195 28.7248C43.3195 32.4524 40.2979 35.474 36.5703 35.474C34.9678 35.474 33.4968 34.9167 32.3373 33.9822H32.3443ZM42.2292 29.2474C42.25 28.9878 42.0458 28.7663 41.7862 28.7663C41.5578 28.7663 41.364 28.9394 41.3432 29.1678C41.1459 31.6321 39.1315 33.5704 36.6776 33.5704C36.373 33.5704 36.0753 33.5392 35.7881 33.4838C35.5562 33.4388 35.3312 33.5842 35.2758 33.8161V33.8369C35.2101 34.0861 35.3727 34.3284 35.6219 34.3768C35.9646 34.4426 36.3176 34.4806 36.6776 34.4806C39.5953 34.4806 41.9904 32.179 42.2292 29.2509V29.2474ZM40.3291 28.7248C40.3291 26.6516 38.6504 24.9695 36.5738 24.9695C34.4971 24.9695 32.8184 26.6481 32.8184 28.7248C32.8184 30.8015 34.5005 32.4801 36.5738 32.4801C38.647 32.4801 40.3291 30.798 40.3291 28.7248ZM37.8128 23.6577C37.8717 23.4085 37.7125 23.1662 37.4633 23.1178C37.1206 23.052 36.771 23.0139 36.4076 23.0139C33.4899 23.0139 31.0948 25.3156 30.856 28.2437C30.8352 28.5033 31.0394 28.7248 31.299 28.7248C31.5274 28.7248 31.7212 28.5517 31.7386 28.3233C31.9358 25.859 33.9502 23.9207 36.4076 23.9207C36.7122 23.9207 37.0099 23.9484 37.2971 24.0073C37.529 24.0523 37.754 23.9069 37.8094 23.6785V23.6577H37.8128Z" fill="#002140"/>
<path d="M41.7862 28.7662C42.0458 28.7662 42.25 28.9877 42.2292 29.2473C41.9904 32.1754 39.5988 34.477 36.6776 34.477C36.3176 34.477 35.9646 34.4424 35.622 34.3732C35.3728 34.3247 35.2135 34.079 35.2724 33.8332V33.8125C35.3312 33.5806 35.5562 33.4352 35.7881 33.4802C36.0754 33.5356 36.373 33.5667 36.6776 33.5667C39.1315 33.5667 41.1459 31.6285 41.3432 29.1642C41.3605 28.9358 41.5578 28.7627 41.7862 28.7627V28.7662Z" fill="#FFFAF0"/>
<path d="M36.5772 24.9727C38.6504 24.9727 40.3325 26.6513 40.3325 28.728C40.3325 30.8047 38.6539 32.4833 36.5772 32.4833C34.5005 32.4833 32.8219 30.8012 32.8219 28.728C32.8219 26.6548 34.504 24.9727 36.5772 24.9727ZM37.8544 28.7245C37.8544 28.0184 37.2833 27.4474 36.5772 27.4474C35.8712 27.4474 35.3001 28.0184 35.3001 28.7245C35.3001 29.4306 35.8712 30.0017 36.5772 30.0017C37.2833 30.0017 37.8544 29.4306 37.8544 28.7245Z" fill="#00B268"/>
<path d="M37.5463 18.6216C38.0932 19.6911 38.3389 20.9198 38.1624 22.107L38.1485 22.1624C37.6432 22.0412 37.1171 21.9755 36.5772 21.9755C33.3895 21.9755 30.714 24.1906 30.0114 27.1637L29.9076 27.1395H23.0234L22.9057 27.1672C22.7396 26.4715 22.4696 25.8139 22.1062 25.2185L22.2031 25.1562C24.1206 25.1078 25.8062 24.4848 27.4087 23.4361C29.0146 22.3873 30.4129 20.6672 30.7279 18.7774L30.7625 18.6182H37.5428L37.5463 18.6216Z" fill="#5BE3AA"/>
<path d="M37.4598 23.1175C37.709 23.166 37.8717 23.4117 37.8094 23.6574V23.6782C37.7506 23.9066 37.5256 24.0555 37.2937 24.007C37.0064 23.9516 36.7088 23.9205 36.4042 23.9205C33.9502 23.9205 31.9359 25.8553 31.7351 28.323C31.7178 28.5515 31.524 28.7245 31.2956 28.7245C31.036 28.7245 30.8318 28.503 30.8525 28.2434C31.0913 25.3153 33.483 23.0137 36.4042 23.0137C36.7641 23.0137 37.1172 23.0483 37.4598 23.1175Z" fill="#FFFAF0"/>
<path d="M37.5325 18.594C37.5325 18.594 37.5428 18.6113 37.5463 18.6217H30.766L30.7313 18.7809C30.4129 20.6706 29.0146 22.3908 27.4121 23.4396C25.8062 24.4883 24.1206 25.1147 22.2066 25.1597L22.1097 25.222C21.6978 24.5471 21.1717 23.9483 20.5591 23.4569L20.5729 23.4396C20.9952 23.4084 21.4174 23.3772 21.8328 23.3392C23.0822 23.2215 24.2936 23.0208 25.4185 22.4289C26.7753 21.7124 27.8621 20.5218 28.5335 19.1408C28.8416 18.504 29.0665 17.8256 29.205 17.1334C29.3677 16.3235 29.4196 15.4893 29.3677 14.6656L29.3919 14.6241C31.1259 14.2433 33.7079 14.8698 35.1512 15.9081C36.1342 16.6142 36.9821 17.5245 37.5359 18.5974L37.5325 18.594Z" fill="#00B268"/>
<path d="M36.5772 30.0016C37.2826 30.0016 37.8544 29.4298 37.8544 28.7244C37.8544 28.0191 37.2826 27.4473 36.5772 27.4473C35.8719 27.4473 35.3 28.0191 35.3 28.7244C35.3 29.4298 35.8719 30.0016 36.5772 30.0016Z" fill="#FFFAF0"/>
<path d="M32.3443 33.9823H20.6111L20.5938 33.9615C22.1132 32.7259 23.0858 30.8396 23.0858 28.7248C23.0858 28.1884 23.0235 27.6692 22.9058 27.1673L23.0235 27.1396H29.9076L30.0115 27.1639C29.8903 27.6657 29.8315 28.1884 29.8315 28.7248C29.8315 30.85 30.8145 32.7432 32.3477 33.9823H32.3443Z" fill="#00B268"/>
<path d="M29.1323 17.1164L29.2015 17.1302C29.0631 17.8259 28.8416 18.5008 28.5301 19.1377C27.8621 20.5187 26.7753 21.7093 25.4151 22.4257C24.2902 23.0211 23.0788 23.2218 21.8293 23.336L21.8155 23.2668C21.7567 22.7511 21.7567 22.4154 21.7636 22.0589H21.902C22.8919 21.9758 23.8749 21.8235 24.7851 21.332C25.692 20.8405 26.5088 20.0964 26.8964 19.1377H22.3658C23.1999 17.5975 24.8301 16.5557 26.6992 16.5557C27.6856 16.5557 28.5266 16.8568 29.1289 17.1164H29.1323Z" fill="#002140"/>
<path d="M22.3762 19.1378H26.8964C26.5122 20.0965 25.6954 20.8407 24.7851 21.3321C23.8748 21.8236 22.8919 21.9759 21.902 22.0624H21.7635C21.767 21.879 21.7705 21.6956 21.7705 21.481C21.7705 20.6295 21.9851 19.83 22.3658 19.1309H22.3727L22.3762 19.1378Z" fill="#FFFAF0"/>
<path d="M22.9057 27.1711C23.0234 27.6695 23.0857 28.1921 23.0857 28.7286C23.0857 30.8399 22.1166 32.7262 20.5937 33.9653C19.4307 34.9102 17.9494 35.4778 16.3365 35.4778C14.7236 35.4778 13.2561 34.9171 12.0966 33.9791C10.7018 32.8508 9.76726 31.1791 9.61151 29.2859C9.59421 29.1024 9.58728 28.919 9.58728 28.7321C9.58728 28.1506 9.65996 27.5864 9.79841 27.0465C10.0338 26.1293 10.4595 25.2882 11.0237 24.5683C12.2593 22.997 14.1802 21.9863 16.333 21.9863C17.9286 21.9863 19.3927 22.5401 20.5487 23.4677C21.1648 23.9592 21.6874 24.5579 22.0993 25.2329C22.4592 25.8282 22.7326 26.4823 22.8988 27.1815L22.9057 27.1711ZM21.992 29.2478C22.0127 28.9882 21.8085 28.7667 21.5489 28.7667C21.3205 28.7667 21.1267 28.9397 21.1059 29.1682C20.9086 31.6325 18.8943 33.5707 16.4403 33.5707C16.1357 33.5707 15.8381 33.5396 15.5508 33.4842C15.3189 33.4392 15.0939 33.5846 15.0386 33.8165V33.8372C14.9728 34.0864 15.1355 34.3287 15.3847 34.3772C15.7273 34.4429 16.0804 34.481 16.4403 34.481C19.358 34.481 21.7532 32.1794 21.992 29.2512V29.2478ZM20.0918 28.7251C20.0918 26.6519 18.4132 24.9698 16.3365 24.9698C14.2598 24.9698 12.5812 26.6485 12.5812 28.7251C12.5812 30.8018 14.2633 32.4805 16.3365 32.4805C18.4097 32.4805 20.0918 30.7984 20.0918 28.7251ZM17.5756 23.6581C17.6344 23.4089 17.4752 23.1666 17.226 23.1181C16.8833 23.0524 16.5338 23.0143 16.1703 23.0143C13.2526 23.0143 10.8575 25.3159 10.6187 28.2441C10.5979 28.5036 10.8021 28.7251 11.0617 28.7251C11.2902 28.7251 11.484 28.5521 11.5013 28.3237C11.6986 25.8593 13.7129 23.9211 16.1703 23.9211C16.4749 23.9211 16.7726 23.9488 17.0599 24.0076C17.2918 24.0526 17.5167 23.9073 17.5721 23.6788V23.6581H17.5756Z" fill="#002140"/>
<path d="M21.5489 28.7662C21.8085 28.7662 22.0127 28.9877 21.9919 29.2473C21.7531 32.1754 19.3615 34.477 16.4403 34.477C16.0803 34.477 15.7273 34.4424 15.3846 34.3732C15.1354 34.3247 14.9762 34.079 15.0351 33.8332V33.8125C15.0939 33.5806 15.3189 33.4352 15.5508 33.4802C15.838 33.5356 16.1357 33.5667 16.4403 33.5667C18.8942 33.5667 20.9086 31.6285 21.1059 29.1642C21.1232 28.9358 21.3205 28.7627 21.5489 28.7627V28.7662Z" fill="#FFFAF0"/>
<path d="M16.3365 24.9727C18.4097 24.9727 20.0918 26.6513 20.0918 28.728C20.0918 30.8047 18.4132 32.4833 16.3365 32.4833C14.2598 32.4833 12.5812 30.8012 12.5812 28.728C12.5812 26.6548 14.2633 24.9727 16.3365 24.9727ZM17.6171 28.7245C17.6171 28.0184 17.046 27.4474 16.34 27.4474C15.6339 27.4474 15.0628 28.0184 15.0628 28.7245C15.0628 29.4306 15.6339 30.0017 16.34 30.0017C17.046 30.0017 17.6171 29.4306 17.6171 28.7245Z" fill="#00B268"/>
<path d="M17.2225 23.1175C17.4717 23.166 17.6344 23.4117 17.5721 23.6574V23.6782C17.5132 23.9066 17.2883 24.0555 17.0564 24.007C16.7691 23.9516 16.4714 23.9205 16.1669 23.9205C13.7129 23.9205 11.6986 25.8553 11.4978 28.323C11.4805 28.5515 11.2867 28.7245 11.0582 28.7245C10.7987 28.7245 10.5945 28.503 10.6152 28.2434C10.854 25.3153 13.2457 23.0137 16.1669 23.0137C16.5268 23.0137 16.8799 23.0483 17.2225 23.1175Z" fill="#FFFAF0"/>
<path d="M16.3365 30.0016C17.0418 30.0016 17.6136 29.4298 17.6136 28.7244C17.6136 28.0191 17.0418 27.4473 16.3365 27.4473C15.6311 27.4473 15.0593 28.0191 15.0593 28.7244C15.0593 29.4298 15.6311 30.0016 16.3365 30.0016Z" fill="#FFFAF0"/>
<path d="M12.0966 33.9755V33.9824H7.9502V33.8544C7.99173 32.2623 7.99173 30.1544 9.49732 29.2926L9.60807 29.2822C9.76036 31.1755 10.6983 32.8507 12.0932 33.9755H12.0966Z" fill="#00B268"/>
<path d="M10.9752 24.5162L11.0306 24.5612C10.463 25.2845 10.0407 26.1256 9.80537 27.0393L9.68423 27.0116C7.36181 27.8285 5.93237 29.8082 6.06043 33.9374V33.9789H3.95953C3.95953 33.9789 3.1427 25.8487 10.9718 24.5127L10.9752 24.5162Z" fill="#00B268"/>
<path d="M9.68417 27.0117L9.80531 27.0394C9.66686 27.5793 9.59418 28.1435 9.59418 28.725C9.59418 28.9119 9.6011 29.0953 9.6184 29.2788L9.50765 29.2891C8.00206 30.151 8.00206 32.2588 7.96053 33.8509V33.979H6.06729V33.9374C5.93923 29.8083 7.36521 27.8285 9.69109 27.0117H9.68417Z" fill="#5BE3AA"/>
<path d="M22.9057 27.1701C23.0234 27.6685 23.0857 28.1912 23.0857 28.7276C23.0857 30.8389 22.1166 32.7252 20.5937 33.9643C19.4307 34.9092 17.9494 35.4768 16.3365 35.4768C14.7236 35.4768 13.2561 34.9161 12.0966 33.9782C10.7018 32.8498 9.76726 31.1781 9.61151 29.2849C9.59421 29.1014 9.58728 28.918 9.58728 28.7311C9.58728 28.1496 9.65996 27.5855 9.79841 27.0455C10.0338 26.1283 10.4595 25.2873 11.0237 24.5674C12.2593 22.996 14.1802 21.9854 16.333 21.9854C17.9286 21.9854 19.3927 22.5391 20.5487 23.4667C21.1648 23.9582 21.6874 24.557 22.0993 25.2319C22.4592 25.8272 22.7326 26.4814 22.8988 27.1805L22.9057 27.1701Z" stroke="#002140" stroke-width="0.65" stroke-linecap="round" stroke-linejoin="round"/>
<path d="M16.3365 32.4794C18.4105 32.4794 20.0918 30.7981 20.0918 28.7241C20.0918 26.6501 18.4105 24.9688 16.3365 24.9688C14.2625 24.9688 12.5812 26.6501 12.5812 28.7241C12.5812 30.7981 14.2625 32.4794 16.3365 32.4794Z" stroke="#002140" stroke-width="0.65" stroke-linecap="round" stroke-linejoin="round"/>
<path d="M16.3365 30.0016C17.0418 30.0016 17.6136 29.4298 17.6136 28.7244C17.6136 28.0191 17.0418 27.4473 16.3365 27.4473C15.6311 27.4473 15.0593 28.0191 15.0593 28.7244C15.0593 29.4298 15.6311 30.0016 16.3365 30.0016Z" stroke="#FFFAF0" stroke-width="0.65" stroke-linecap="round" stroke-linejoin="round"/>
<path d="M11.0618 28.7245C11.2902 28.7245 11.4841 28.5515 11.5014 28.323C11.6986 25.8587 13.713 23.9205 16.1704 23.9205C16.475 23.9205 16.7727 23.9482 17.0599 24.007C17.2918 24.052 17.5168 23.9066 17.5722 23.6782V23.6574C17.6379 23.4082 17.4753 23.166 17.2261 23.1175C16.8834 23.0517 16.5338 23.0137 16.1704 23.0137C13.2527 23.0137 10.8576 25.3153 10.6188 28.2434C10.598 28.503 10.8022 28.7245 11.0618 28.7245Z" stroke="#FFFAF0" stroke-width="0.65" stroke-linecap="round" stroke-linejoin="round"/>
<path d="M21.549 28.7656C21.3205 28.7656 21.1267 28.9387 21.1059 29.1671C20.9087 31.6314 18.8943 33.5697 16.4403 33.5697C16.1358 33.5697 15.8381 33.5385 15.5508 33.4831C15.3189 33.4381 15.094 33.5835 15.0386 33.8154V33.8362C14.9728 34.0854 15.1355 34.3277 15.3847 34.3761C15.7273 34.4419 16.0804 34.4799 16.4403 34.4799C19.3581 34.4799 21.7532 32.1783 21.992 29.2502C22.0128 28.9906 21.8085 28.7691 21.549 28.7691V28.7656Z" stroke="#FFFAF0" stroke-width="0.65" stroke-linecap="round" stroke-linejoin="round"/>
<path d="M42.2397 25.055C42.925 26.1107 43.323 27.3705 43.323 28.7238C43.323 32.4514 40.3014 35.473 36.5738 35.473C34.9713 35.473 33.5003 34.9158 32.3408 33.9813C30.8075 32.7456 29.8246 30.8489 29.8246 28.7238C29.8246 28.1873 29.8869 27.6647 30.0046 27.1628C30.7072 24.1897 33.3826 21.9746 36.5703 21.9746C37.1103 21.9746 37.6398 22.0369 38.1417 22.1615C38.6747 22.2896 39.1869 22.4799 39.6646 22.7257C40.7098 23.2656 41.5959 24.0721 42.2327 25.055H42.2397Z" stroke="#002140" stroke-width="0.65" stroke-linecap="round" stroke-linejoin="round"/>
<path d="M36.5772 32.4794C38.6512 32.4794 40.3326 30.7981 40.3326 28.7241C40.3326 26.6501 38.6512 24.9688 36.5772 24.9688C34.5032 24.9688 32.8219 26.6501 32.8219 28.7241C32.8219 30.7981 34.5032 32.4794 36.5772 32.4794Z" stroke="#002140" stroke-width="0.65" stroke-linecap="round" stroke-linejoin="round"/>
<path d="M36.5772 30.0016C37.2826 30.0016 37.8544 29.4298 37.8544 28.7244C37.8544 28.0191 37.2826 27.4473 36.5772 27.4473C35.8719 27.4473 35.3 28.0191 35.3 28.7244C35.3 29.4298 35.8719 30.0016 36.5772 30.0016Z" stroke="#FFFAF0" stroke-width="0.65" stroke-linecap="round" stroke-linejoin="round"/>
<path d="M31.299 28.7245C31.5274 28.7245 31.7212 28.5515 31.7385 28.323C31.9358 25.8587 33.9502 23.9205 36.4076 23.9205C36.7122 23.9205 37.0098 23.9482 37.2971 24.007C37.529 24.052 37.754 23.9066 37.8094 23.6782V23.6574C37.8751 23.4082 37.7124 23.166 37.4632 23.1175C37.1206 23.0517 36.771 23.0137 36.4076 23.0137C33.4899 23.0137 31.0948 25.3153 30.8559 28.2434C30.8352 28.503 31.0394 28.7245 31.299 28.7245Z" stroke="#FFFAF0" stroke-width="0.65" stroke-linecap="round" stroke-linejoin="round"/>
<path d="M41.7863 28.7656C41.5578 28.7656 41.364 28.9387 41.3432 29.1671C41.146 31.6314 39.1316 33.5697 36.6776 33.5697C36.3731 33.5697 36.0754 33.5385 35.7881 33.4831C35.5562 33.4381 35.3313 33.5835 35.2759 33.8154V33.8362C35.2101 34.0854 35.3728 34.3277 35.622 34.3761C35.9646 34.4419 36.3177 34.4799 36.6776 34.4799C39.5954 34.4799 41.9905 32.1783 42.2293 29.2502C42.2501 28.9906 42.0459 28.7691 41.7863 28.7691V28.7656Z" stroke="#FFFAF0" stroke-width="0.65" stroke-linecap="round" stroke-linejoin="round"/>
<path d="M12.0932 33.9818H3.95953C3.95953 33.9818 3.1427 25.8516 10.9718 24.5156" stroke="#002140" stroke-width="0.65" stroke-linecap="round" stroke-linejoin="round"/>
<path d="M32.358 33.9814H32.3442H20.611" stroke="#002140" stroke-width="0.65" stroke-linecap="round" stroke-linejoin="round"/>
<path d="M29.3642 14.6621C29.4161 15.4859 29.3642 16.32 29.2015 17.1299C29.0631 17.8256 28.8416 18.5005 28.5301 19.1373C27.8621 20.5183 26.7753 21.709 25.415 22.4254C24.2902 23.0207 23.0788 23.2215 21.8293 23.3357C21.414 23.3772 20.9917 23.4049 20.5695 23.4361" stroke="#002140" stroke-width="0.65" stroke-linecap="round" stroke-linejoin="round"/>
<path d="M29.3918 14.6201C31.1259 14.2394 33.7079 14.8659 35.1512 15.9042C36.1341 16.6103 36.9821 17.5206 37.5359 18.5935C37.5393 18.6039 37.5463 18.6108 37.5497 18.6212C38.0966 19.6907 38.3423 20.9194 38.1658 22.1066" stroke="#002140" stroke-width="0.65" stroke-linecap="round" stroke-linejoin="round"/>
<path d="M38.2974 14.5996C39.5641 15.451 40.464 16.8355 40.7236 18.3411C40.7409 18.4345 40.7548 18.5315 40.7651 18.6284C40.9347 20.0474 40.5471 21.5288 39.6957 22.6779" stroke="#002140" stroke-width="0.65" stroke-linecap="round" stroke-linejoin="round"/>
<path d="M38.2974 14.5752H46.7737" stroke="#002140" stroke-width="0.65" stroke-linecap="round" stroke-linejoin="round"/>
<path d="M46.7737 22.3216V18.6216V14.6621" stroke="#002140" stroke-width="0.65" stroke-linecap="round" stroke-linejoin="round"/>
<path d="M42.3434 24.9893L46.7321 22.3623" stroke="#002140" stroke-width="0.65" stroke-linecap="round" stroke-linejoin="round"/>
<path d="M21.8155 23.2693C21.7567 22.7536 21.7567 22.4178 21.7636 22.0613C21.767 21.8814 21.7705 21.6979 21.7705 21.4833C21.7705 20.6319 21.9851 19.8324 22.3658 19.1332C23.1999 17.5999 24.8301 16.5547 26.6992 16.5547C27.6856 16.5547 28.5266 16.8558 29.1289 17.1154" stroke="#002140" stroke-width="0.65" stroke-linecap="round" stroke-linejoin="round"/>
<path d="M21.902 22.0614C22.8919 21.9748 23.8748 21.8226 24.7851 21.3311C25.6919 20.8396 26.5087 20.0955 26.8964 19.1367H22.3762" stroke="#002140" stroke-width="0.65" stroke-linecap="round" stroke-linejoin="round"/>
</g>
<defs>
<clipPath id="clip0_26_81615">
<rect width="52" height="52" fill="white"/>
</clipPath>
</defs>
</svg>
