<svg xmlns="http://www.w3.org/2000/svg" width="52" height="52" fill="none" viewBox="0 0 52 52"><g clip-path="url(#a)"><path fill="#b0d9ff" d="M0 0h52v52H0z"/><path fill="#b0d9ff" d="M26 52c14.36 0 26-11.64 26-26S40.36 0 26 0 0 11.64 0 26s11.64 26 26 26"/><path fill="#b0d9ff" stroke="#002140" stroke-miterlimit="10" stroke-width=".65" d="M26 46.767c11.47 0 20.767-9.298 20.767-20.767S37.469 5.233 26 5.233C14.53 5.233 5.233 14.531 5.233 26c0 11.47 9.298 20.767 20.767 20.767Z"/><path fill="#0185ff" d="M32.69 33.982H20.957l-.017-.02a6.73 6.73 0 0 0 2.492-5.237q-.002-.805-.18-1.558l.117-.027h6.885l.104.024a6.6 6.6 0 0 0-.18 1.56c0 2.126.982 4.02 2.516 5.258z"/><path fill="#5ab0ff" d="M47.12 18.622v3.7l-.042.042-4.388 2.623-.104.066a6.76 6.76 0 0 0-2.568-2.33l.024-.044a5.74 5.74 0 0 0 1.07-4.05l.072-.007h5.94z"/><path fill="#0185ff" d="M47.12 14.662v3.96h-5.94l-.072.006A5.73 5.73 0 0 0 38.64 14.6v-.024h8.476v.087z"/><path fill="#002140" d="M32.69 33.982a6.74 6.74 0 0 1-2.516-5.257q.002-.807.18-1.561a6.752 6.752 0 0 1 9.66-4.437 6.76 6.76 0 0 1 2.568 2.329 6.749 6.749 0 0 1-9.899 8.926zm9.885-4.735a.445.445 0 0 0-.886-.08c-.197 2.465-2.211 4.403-4.665 4.403q-.459-.001-.89-.086a.44.44 0 0 0-.512.332v.02a.437.437 0 0 0 .346.54c.343.067.696.105 1.056.105 2.917 0 5.313-2.302 5.551-5.23zm-1.9-.522a3.754 3.754 0 0 0-3.755-3.756 3.75 3.75 0 0 0-3.756 3.756 3.756 3.756 0 0 0 7.51 0m-2.516-5.067a.444.444 0 0 0-.35-.54 5.6 5.6 0 0 0-1.055-.104c-2.918 0-5.313 2.302-5.552 5.23-.02.26.183.48.443.48a.44.44 0 0 0 .44-.4c.197-2.465 2.211-4.403 4.669-4.403q.457-.001.89.086a.44.44 0 0 0 .511-.329v-.02z"/><path fill="#fffaf0" d="M42.132 28.766c.26 0 .464.222.443.481-.239 2.928-2.63 5.23-5.551 5.23q-.54 0-1.056-.104a.446.446 0 0 1-.35-.54v-.02a.446.446 0 0 1 .516-.333q.431.085.89.087c2.454 0 4.468-1.939 4.665-4.403a.44.44 0 0 1 .443-.401z"/><path fill="#0185ff" d="M36.923 24.973a3.754 3.754 0 0 1 3.756 3.755 3.75 3.75 0 0 1-3.756 3.755 3.756 3.756 0 0 1 0-7.51m1.277 3.752a1.276 1.276 0 1 0-2.554 0 1.276 1.276 0 1 0 2.554 0"/><path fill="#5ab0ff" d="M37.892 18.622c.547 1.07.793 2.298.616 3.485l-.013.055a6.75 6.75 0 0 0-8.137 5.001l-.104-.023h-6.885l-.117.027a6.8 6.8 0 0 0-.8-1.949l.097-.062c1.918-.048 3.603-.671 5.206-1.72 1.606-1.049 3.004-2.769 3.319-4.659l.035-.159h6.78z"/><path fill="#fffaf0" d="M37.806 23.118c.25.048.412.294.35.54v.02a.443.443 0 0 1-.516.329 4.7 4.7 0 0 0-.89-.087c-2.454 0-4.468 1.935-4.669 4.403a.44.44 0 0 1-.44.401.445.445 0 0 1-.442-.48c.238-2.929 2.63-5.23 5.551-5.23q.54 0 1.056.104"/><path fill="#0185ff" d="M37.879 18.594s.01.017.013.028h-6.78l-.035.159c-.318 1.89-1.716 3.61-3.319 4.659-1.606 1.048-3.291 1.675-5.205 1.72l-.097.062a6.8 6.8 0 0 0-1.55-1.765l.013-.017c.422-.032.845-.063 1.26-.1 1.25-.119 2.46-.32 3.586-.911 1.356-.717 2.443-1.907 3.115-3.288a8.4 8.4 0 0 0 .671-2.008c.163-.81.215-1.644.163-2.467l.024-.042c1.734-.38 4.316.246 5.76 1.284.982.706 1.83 1.617 2.384 2.69z"/><path fill="#fffaf0" d="M36.923 30.002a1.277 1.277 0 1 0 0-2.555 1.277 1.277 0 0 0 0 2.555"/><path fill="#002140" d="m29.478 17.116.07.014a8.2 8.2 0 0 1-.672 2.008c-.668 1.38-1.755 2.571-3.115 3.288-1.125.595-2.336.796-3.586.91l-.013-.07a8 8 0 0 1-.052-1.207h.138c.99-.083 1.973-.236 2.883-.727.907-.492 1.724-1.236 2.111-2.194h-4.53a4.92 4.92 0 0 1 4.333-2.582c.987 0 1.828.3 2.43.56z"/><path fill="#fffaf0" d="M22.722 19.138h4.52c-.384.958-1.2 1.703-2.11 2.194-.911.492-1.894.644-2.884.73h-.138c.003-.183.006-.366.006-.581 0-.852.215-1.651.596-2.35h.007z"/><path fill="#002140" d="M23.252 27.171c.117.498.18 1.021.18 1.558 0 2.11-.97 3.997-2.492 5.236a6.73 6.73 0 0 1-4.257 1.513c-1.613 0-3.08-.56-4.24-1.499a6.74 6.74 0 0 1-2.51-5.247 6.74 6.74 0 0 1 1.436-4.164 6.74 6.74 0 0 1 5.31-2.582c1.596 0 3.06.554 4.216 1.482a6.75 6.75 0 0 1 2.35 3.714zm-.914 2.077a.445.445 0 0 0-.886-.08c-.197 2.465-2.212 4.403-4.666 4.403q-.457-.002-.89-.087a.44.44 0 0 0-.511.332v.021a.437.437 0 0 0 .346.54c.342.066.695.104 1.055.104 2.918 0 5.313-2.302 5.552-5.23zm-1.9-.523a3.754 3.754 0 0 0-3.755-3.755 3.75 3.75 0 0 0-3.756 3.755 3.756 3.756 0 0 0 7.51 0m-2.516-5.067a.444.444 0 0 0-.35-.54 5.6 5.6 0 0 0-1.056-.104c-2.917 0-5.312 2.302-5.551 5.23a.444.444 0 0 0 .443.481.44.44 0 0 0 .44-.401c.197-2.465 2.211-4.403 4.668-4.403q.459 0 .89.087a.44.44 0 0 0 .512-.33v-.02z"/><path fill="#fffaf0" d="M21.895 28.766c.26 0 .464.222.443.481-.239 2.928-2.63 5.23-5.552 5.23q-.541 0-1.055-.104a.446.446 0 0 1-.35-.54v-.02a.445.445 0 0 1 .516-.333q.432.085.89.087c2.453 0 4.468-1.939 4.665-4.403a.44.44 0 0 1 .443-.401z"/><path fill="#0185ff" d="M16.683 24.973a3.754 3.754 0 0 1 3.755 3.755 3.75 3.75 0 0 1-3.755 3.755 3.754 3.754 0 1 1 0-7.51m1.28 3.752a1.276 1.276 0 1 0-2.554 0 1.276 1.276 0 1 0 2.554 0"/><path fill="#fffaf0" d="M17.569 23.118a.444.444 0 0 1 .35.54v.02a.443.443 0 0 1-.517.329 4.7 4.7 0 0 0-.89-.087c-2.453 0-4.467 1.935-4.668 4.403a.44.44 0 0 1-.44.401.445.445 0 0 1-.443-.48c.24-2.929 2.63-5.23 5.552-5.23q.54 0 1.056.104m-.886 6.884a1.277 1.277 0 1 0 0-2.555 1.277 1.277 0 0 0 0 2.555"/><path fill="#0164bf" d="M12.443 33.976v.006H8.296v-.128c.042-1.592.042-3.7 1.547-4.561l.111-.01a6.72 6.72 0 0 0 2.485 4.692z"/><path fill="#0185ff" d="m11.321 24.516.056.045a6.7 6.7 0 0 0-1.226 2.478l-.12-.027c-2.323.816-3.753 2.796-3.625 6.925v.042h-2.1s-.817-8.13 7.012-9.466z"/><path fill="#5ab0ff" d="m10.03 27.012.122.027a6.8 6.8 0 0 0-.187 2.24l-.111.01c-1.506.862-1.506 2.97-1.547 4.562v.128H6.413v-.042c-.128-4.129 1.298-6.108 3.624-6.925z"/><path stroke="#002140" stroke-linecap="round" stroke-linejoin="round" stroke-width=".65" d="M23.252 27.17c.117.498.18 1.021.18 1.558 0 2.11-.97 3.997-2.492 5.236a6.73 6.73 0 0 1-4.257 1.513c-1.613 0-3.08-.56-4.24-1.499a6.74 6.74 0 0 1-2.51-5.247 6.74 6.74 0 0 1 1.436-4.164 6.74 6.74 0 0 1 5.31-2.582c1.596 0 3.06.554 4.216 1.482a6.75 6.75 0 0 1 2.35 3.714z"/><path stroke="#002140" stroke-linecap="round" stroke-linejoin="round" stroke-width=".65" d="M16.683 32.48a3.755 3.755 0 1 0 0-7.511 3.755 3.755 0 0 0 0 7.51"/><path stroke="#fffaf0" stroke-linecap="round" stroke-linejoin="round" stroke-width=".65" d="M16.683 30.002a1.277 1.277 0 1 0 0-2.555 1.277 1.277 0 0 0 0 2.555m-5.275-1.277a.44.44 0 0 0 .44-.402c.197-2.464 2.211-4.402 4.669-4.402q.457-.001.889.086a.44.44 0 0 0 .512-.329v-.02a.437.437 0 0 0-.346-.54 5.6 5.6 0 0 0-1.055-.104c-2.918 0-5.313 2.301-5.552 5.23-.02.259.183.48.443.48m10.487.042a.444.444 0 0 0-.443.401c-.197 2.464-2.212 4.403-4.666 4.403-.304 0-.602-.032-.89-.087a.44.44 0 0 0-.511.332v.021a.437.437 0 0 0 .346.54c.342.066.695.104 1.055.104 2.918 0 5.313-2.302 5.552-5.23a.445.445 0 0 0-.443-.48z"/><path stroke="#002140" stroke-linecap="round" stroke-linejoin="round" stroke-width=".65" d="M42.586 25.055a6.749 6.749 0 1 1-12.415 3.669q.002-.807.18-1.561a6.752 6.752 0 0 1 9.66-4.437 6.76 6.76 0 0 1 2.568 2.329z"/><path stroke="#002140" stroke-linecap="round" stroke-linejoin="round" stroke-width=".65" d="M36.923 32.48a3.755 3.755 0 1 0 0-7.511 3.755 3.755 0 0 0 0 7.51"/><path stroke="#fffaf0" stroke-linecap="round" stroke-linejoin="round" stroke-width=".65" d="M36.923 30.002a1.277 1.277 0 1 0 0-2.555 1.277 1.277 0 0 0 0 2.555m-5.278-1.277a.44.44 0 0 0 .44-.402c.197-2.464 2.211-4.402 4.669-4.402q.457-.001.89.086a.44.44 0 0 0 .511-.329v-.02a.437.437 0 0 0-.346-.54 5.6 5.6 0 0 0-1.055-.104c-2.918 0-5.313 2.301-5.552 5.23-.02.259.183.48.443.48m10.487.042a.444.444 0 0 0-.443.401c-.197 2.464-2.211 4.403-4.665 4.403-.305 0-.602-.032-.89-.087a.44.44 0 0 0-.512.332v.021a.437.437 0 0 0 .346.54c.343.066.696.104 1.056.104 2.917 0 5.313-2.302 5.551-5.23a.445.445 0 0 0-.443-.48z"/><path stroke="#002140" stroke-linecap="round" stroke-linejoin="round" stroke-width=".65" d="M12.44 33.982H4.305s-.817-8.13 7.012-9.466m21.387 9.465H20.957m8.753-19.319c.052.824 0 1.658-.162 2.468a8.2 8.2 0 0 1-.672 2.007c-.668 1.381-1.755 2.572-3.115 3.288-1.125.596-2.336.796-3.586.91-.415.042-.837.07-1.26.101m8.823-8.816c1.734-.38 4.316.246 5.76 1.284.982.706 1.83 1.617 2.384 2.69l.014.027c.547 1.07.792 2.298.616 3.486m.131-7.507a5.74 5.74 0 0 1 2.468 4.028 5.73 5.73 0 0 1-1.07 4.05m-1.398-8.103h8.477m0 7.747v-7.66M42.69 24.99l4.388-2.628"/><path stroke="#002140" stroke-linecap="round" stroke-linejoin="round" stroke-width=".65" d="M22.162 23.27a8 8 0 0 1-.052-1.209c.003-.18.007-.363.007-.578 0-.851.214-1.65.595-2.35a4.93 4.93 0 0 1 4.333-2.578c.987 0 1.828.3 2.43.56"/><path stroke="#002140" stroke-linecap="round" stroke-linejoin="round" stroke-width=".65" d="M22.248 22.061c.99-.086 1.973-.238 2.883-.73.907-.491 1.724-1.235 2.111-2.194h-4.52"/></g><defs><clipPath id="a"><path fill="#fff" d="M0 0h52v52H0z"/></clipPath></defs></svg>