<svg xmlns="http://www.w3.org/2000/svg" fill="none" viewBox="0 0 52 52"><g clip-path="url(#a)"><path fill="#780505" d="M0 0h52v52H0z"/><path fill="#780505" d="M26 52c14.36 0 26-11.64 26-26S40.36 0 26 0 0 11.64 0 26s11.64 26 26 26"/><path fill="#780505" stroke="#002140" stroke-miterlimit="10" stroke-width=".65" d="M26 46.767c11.47 0 20.767-9.298 20.767-20.767S37.469 5.233 26 5.233C14.53 5.233 5.233 14.531 5.233 26c0 11.47 9.298 20.767 20.767 20.767Z"/><path fill="#ffd7b0" d="m32.32 19.157-.332.1H21.552l-.314-.103c.609-1.88 1.183-3.658 1.671-5.157l.132.041h7.5l.218-.065zm2.115 7.033 1.61 5.348-.143.041h-18.41l-.242-.013a913 913 0 0 1 1.686-5.286l.734.08h14.204z"/><path fill="#ff7101" d="M37.57 35.203c1.157 0 2.102.945 2.102 2.101 0 .578-.236 1.104-.617 1.485-.38.38-.906.616-1.484.616H15.1a2.107 2.107 0 0 1-2.101-2.101c0-.578.235-1.104.616-1.485.38-.38.907-.616 1.485-.616zM29.382 9.4l1.377 4.573-.218.065h-7.5l-.132-.041 1.399-4.306.103-.305c.807-2.377 4.174-2.37 4.97.014m2.939 9.757 2.115 7.033-.561.17H19.669l-.733-.08c.74-2.302 1.543-4.794 2.301-7.127l.315.104h10.436zM16.188 35.058c0-.1.415-1.454 1.062-3.492l.243.014h18.41l.141-.042 1.018 3.375v.29H16.188z"/><path stroke="#002140" stroke-linecap="round" stroke-linejoin="round" stroke-width=".65" d="M37.062 35.203h.509c1.156 0 2.1.945 2.1 2.101 0 .578-.235 1.104-.616 1.485-.38.38-.906.616-1.484.616H15.1a2.107 2.107 0 0 1-2.101-2.101c0-.578.235-1.104.616-1.485.38-.38.907-.616 1.485-.616zm-20.874-.145c0-.1.415-1.454 1.062-3.493a913 913 0 0 1 1.686-5.285 2564 2564 0 0 1 2.302-7.126c.609-1.88 1.183-3.659 1.671-5.157l1.399-4.306.103-.305c.807-2.377 4.174-2.37 4.97.014l1.378 4.573 1.561 5.184 2.115 7.033 1.61 5.348 1.017 3.374m-19.57-3.332h18.41M19.67 26.36h14.204m-12.321-7.102h10.435m-8.948-5.22h7.501"/></g><defs><clipPath id="a"><path fill="#fff" d="M0 0h52v52H0z"/></clipPath></defs></svg>