<svg xmlns="http://www.w3.org/2000/svg" width="52" height="52" fill="none" viewBox="0 0 52 52"><g clip-path="url(#a)"><path fill="#0164bf" d="M0 0h52v52H0z"/><path fill="#0164bf" d="M26 52c14.36 0 26-11.64 26-26S40.36 0 26 0 0 11.64 0 26s11.64 26 26 26"/><path fill="#0164bf" stroke="#002140" stroke-miterlimit="10" stroke-width=".65" d="M26 46.767c11.47 0 20.767-9.298 20.767-20.767S37.469 5.233 26 5.233C14.53 5.233 5.233 14.531 5.233 26c0 11.47 9.298 20.767 20.767 20.767Z"/><path fill="#5ab0ff" d="M20.002 20.86c1.34-.456 3.16-.678 4.61-.577-.419 1.246-.841 2.55-1.277 3.932l-.017.082c-1.53-.311-3.26-.214-4.7.55l-.267-.093 1.412-3.976zm23.511-1.242.018.052a21.3 21.3 0 0 0-2.32 4.105c-.055.024-.11.042-.162.062-1.665.644-3.202 1.589-4.666 2.61-.218.152-.436.308-.654.46.194-1.353.436-2.644.727-3.783l-.1-.197c2.36-1.18 4.658-2.506 7.16-3.305z"/><path fill="#5ab0ff" d="M41.208 23.775c1.679-.603 4.416-1.028 6.144-.263a36 36 0 0 0-2.485 3.468l-.19-.118c-.908-.284-2.49-.007-3.365.353-.495.2-.98.419-1.464.647a24.6 24.6 0 0 1 1.357-4.087zm1.63 6.652.1.048a36 36 0 0 0-1.366 3.285h-.06c-.792.052-1.595.377-2.339.772l-.076-.139q0-1.608.163-3.1c1.16-.579 2.748-1.323 3.575-.866z"/><path fill="#5ab0ff" d="M39.851 27.862a27 27 0 0 0-.588 3.434c-.301.152-.575.294-.796.398-1.08.509-2.077 1.187-3.105 1.782q-.067.041-.138.076c.007-.976.048-1.983.121-3 .737-.44 1.45-.987 2.15-1.41q1.145-.695 2.36-1.276zm-4.548 8.604.097.221c-1.696.769-3.648 1.344-5.586 1.146l.028-.273c.183-.91.339-1.904.47-2.942.288.045.558.072.796.069 1.426-.02 2.873-.436 4.12-1.135a34 34 0 0 0 .079 2.917zm.423-9.559a50 50 0 0 0-.381 3.641 7 7 0 0 1-1.021.513c-.993.38-2.35.57-3.703.425.083-1.097.138-2.204.159-3.27 1.163.173 2.319.072 3.15-.27.643-.264 1.225-.64 1.796-1.035zm-5.106 4.579a63 63 0 0 1-.311 3.128c-1.481-.242-3.472-1.086-4.454-1.855.224-.98.429-2.042.584-3.163l.18.027c1 1.15 2.503 1.71 4.005 1.866zm.139-6.524c.041 1.007.052 2.108.024 3.253-1.509-.218-3.032-.9-3.876-2.1h-.17c0-.08.007-.15.007-.226a27 27 0 0 0-.183-3.973h.006c.042.284.139.557.264.81.318.637.844 1.128 1.467 1.474a4.9 4.9 0 0 0 2.153.582h.304v.183zm2.931-1.152.105.276c-.776.305-1.579.547-2.392.644l-.02-.18a12.5 12.5 0 0 1 2.183-2.018l.177.01c-.028.426-.045.852-.052 1.264z"/><path fill="#5ab0ff" d="M30.669 21.14c.038 1.174.059 2.381.031 3.479v.159h-.25a4.86 4.86 0 0 1-2.152-.582l.045-.08c.422-.896 1.212-1.937 2.323-2.98zm-.966-3.803c-.72.484-1.398 1.02-1.99 1.644-.481.505-.882 1.121-1.062 1.782l-.205-.055c-.429-.235-1.083-.37-1.827-.422.453-1.36.903-2.652 1.36-3.884 1.423.07 2.79.364 3.728.935z"/><path fill="#5ab0ff" d="m35.778 13.356.027.014c-.578 1.246-1.145 3.15-1.543 5.23l-.111-.024a19 19 0 0 0-3.486 2.561c-.051-1.478-.134-2.904-.197-4.001l-.131-.215q.273-.165.557-.332c1.004-.588 2.052-1.121 3.05-1.689a9 9 0 0 1 .252-.142c.53-.304 1.035-.62 1.384-1.128.056-.083.132-.177.19-.274z"/><path fill="#5ab0ff" d="m34.15 14.669.053.09q-.127.068-.253.141c-.997.568-2.045 1.101-3.05 1.69l-.082-.139c.197-.65.623-1.647 1.139-2.734a15 15 0 0 1 2.197.952zm-.515-4.202-.114.231c-.53.949-1.09 2.022-1.564 3.018a18.4 18.4 0 0 0-4.548-.927 54 54 0 0 1 1.626-3.472l.025-.159c1.585.232 3.135.672 4.575 1.312zm-10.812 2.647c1.46-.357 3.035-.443 4.586-.325a73 73 0 0 0-1.433 3.613c-1.634-.083-3.337.128-4.534.547l-.28-.097 1.366-3.842.298.104z"/><path fill="#002140" d="m49.788 20.646.01.117a40 40 0 0 0-2.443 2.748c-1.727-.761-4.465-.339-6.143.264a21.6 21.6 0 0 1 2.319-4.105l-.018-.052q.1-.036.201-.066c1.115-.343 2.295-.578 3.44-.37a4.68 4.68 0 0 1 2.63 1.464zm-5.108 6.216.19.118a34 34 0 0 0-1.928 3.495l-.1-.048c-.828-.457-2.416.29-3.576.865q.2-1.803.589-3.433.72-.345 1.464-.648c.875-.36 2.457-.636 3.364-.353zm-3.634-3.025c.051-.021.107-.038.162-.063a25 25 0 0 0-1.357 4.088c-.81.388-1.592.813-2.36 1.277-.7.419-1.412.97-2.15 1.409a50 50 0 0 1 .381-3.641l.654-.46c1.465-1.025 2.998-1.97 4.666-2.61zM39.1 34.397l.076.139c-.92.495-1.744 1.093-2.319 1.415-.456.253-.944.505-1.457.74l-.097-.22c-.065-.904-.09-1.89-.08-2.918l.14-.077c1.03-.595 2.027-1.273 3.104-1.782.221-.104.495-.246.796-.398a29 29 0 0 0-.163 3.101m-2.748-11.474.1.197a37 37 0 0 0-.726 3.783c-.571.398-1.153.772-1.797 1.035-.83.343-1.983.443-3.15.27a47 47 0 0 0-.023-3.253v-.184c.214 0 .429-.02.643-.045.814-.097 1.617-.342 2.392-.644q.437-.172.858-.36a40 40 0 0 0 1.7-.806zm-.474-9.868c0 .097-.045.2-.1.305-.06.097-.135.194-.19.273-.354.509-.856.824-1.385 1.129l-.052-.09a15 15 0 0 0-2.198-.952 54 54 0 0 1 1.565-3.018l.114-.232c.92.412 1.779.993 2.132 1.938.076.197.114.419.114.647m-.533 17.493a47 47 0 0 0-.121 3c-1.25.7-2.693 1.115-4.119 1.136a5 5 0 0 1-.796-.07c.132-1.013.235-2.07.312-3.128 1.353.142 2.71-.045 3.703-.426a7 7 0 0 0 1.021-.512"/><path fill="#002140" d="m34.15 18.58.112.023a31 31 0 0 0-.52 3.943l-.176-.01c-.806.58-1.54 1.259-2.184 2.017l.02.18a6 6 0 0 1-.646.045h-.052v-.16a69 69 0 0 0-.035-3.478 18.8 18.8 0 0 1 3.485-2.56zm-2.194-4.863c-.515 1.086-.937 2.083-1.138 2.734l.083.138q-.284.167-.558.333c-.214.135-.429.27-.64.415-.938-.571-2.308-.865-3.727-.934a76 76 0 0 1 1.433-3.614 18.4 18.4 0 0 1 4.547.928"/><path fill="#002140" d="M29.703 17.337q.313-.213.64-.415l.132.215c.063 1.097.142 2.526.197 4-1.11 1.039-1.9 2.084-2.322 2.98l-.045.08c-.623-.346-1.146-.837-1.467-1.474a2.7 2.7 0 0 1-.291-1.063 2.9 2.9 0 0 1 .107-.896c.18-.661.582-1.277 1.063-1.783.591-.623 1.27-1.156 1.99-1.644zm1.08 10.875a66 66 0 0 1-.159 3.27c-1.502-.152-3.004-.712-4.005-1.865l-.18-.028c.156-1.114.264-2.287.302-3.488h.17c.844 1.204 2.367 1.886 3.876 2.104zm-.474 6.403a41 41 0 0 1-.47 2.941l-.028.274c-1.606-.163-3.202-.858-4.635-2.402l-.048-.017c.249-.78.498-1.676.723-2.655.983.768 2.977 1.613 4.454 1.855zm-1.253-25.46-.024.16a54 54 0 0 0-1.627 3.47c-1.55-.117-3.125-.027-4.586.326l-.297-.104 1.432-4.042.36.128a18 18 0 0 1 4.739.062z"/><path fill="#002140" d="M26.56 21.912a27 27 0 0 1 .184 3.973h-.183c-.7-.73-1.894-1.318-3.24-1.592l.017-.083q.654-2.064 1.277-3.932c.748.052 1.399.19 1.828.423l.204.055a2.8 2.8 0 0 0-.107.896c0 .083.014.17.028.253h-.007z"/><path fill="#002140" d="M21.442 16.95c1.197-.42 2.9-.634 4.534-.547a124 124 0 0 0-1.36 3.883c-1.45-.1-3.271.121-4.61.578l-.24-.083 1.395-3.925.28.097z"/><path fill="#002140" d="M24.155 8.3a.7.7 0 0 1-.035.214l-.159.454-1.433 4.043-1.367 3.841-1.395 3.925-1.412 3.977-4.651 13.107a.65.65 0 0 1-.831.395.65.65 0 0 1-.398-.83L22.892 8.081a.65.65 0 0 1 .83-.395c.267.094.433.35.433.616z"/><path stroke="#002140" stroke-linecap="round" stroke-linejoin="round" stroke-width=".65" d="m18.354 24.75-4.651 13.108a.65.65 0 0 1-.831.394.65.65 0 0 1-.398-.83L22.892 8.077a.65.65 0 0 1 .83-.395.654.654 0 0 1 .398.831l-.159.453-1.433 4.043-1.367 3.842-1.395 3.925-1.412 3.977zm5.964-15.655a18 18 0 0 1 4.738.063c1.585.232 3.136.671 4.576 1.311.92.412 1.779.994 2.132 1.939.076.197.114.418.114.647a.7.7 0 0 1-.1.304c-.06.097-.135.194-.19.274-.354.509-.856.824-1.385 1.128q-.127.069-.253.142c-.997.568-2.045 1.1-3.05 1.69q-.283.165-.556.331c-.215.135-.43.27-.64.416-.72.484-1.399 1.02-1.99 1.644-.482.505-.883 1.121-1.063 1.782a2.8 2.8 0 0 0-.108.897 2.7 2.7 0 0 0 .29 1.063c.32.636.846 1.128 1.469 1.474.65.36 1.408.553 2.153.581h.304c.218 0 .433-.02.647-.045.814-.097 1.617-.343 2.392-.644q.437-.172.858-.36a40 40 0 0 0 1.7-.806c2.36-1.18 4.658-2.506 7.16-3.305q.102-.036.202-.066c1.114-.343 2.294-.578 3.44-.37a4.68 4.68 0 0 1 2.63 1.464M26.56 21.912c.167 1.333.215 2.669.184 3.974 0 .076 0 .145-.007.221a31 31 0 0 1-.301 3.489 35 35 0 0 1-.585 3.163 34 34 0 0 1-.723 2.655v.017m16.444-1.671c.373-1.05.82-2.15 1.367-3.285a35 35 0 0 1 4.413-6.964 40 40 0 0 1 2.443-2.748M25.18 35.428c1.433 1.543 3.028 2.239 4.634 2.402 1.938.197 3.89-.374 5.586-1.146.513-.235 1-.485 1.458-.74.574-.32 1.394-.921 2.319-1.416.744-.395 1.547-.72 2.34-.772"/><path stroke="#002140" stroke-linecap="round" stroke-linejoin="round" stroke-width=".65" d="M18.62 24.847c1.44-.765 3.171-.866 4.701-.55 1.346.27 2.54.861 3.24 1.588m9.259-12.542s-.008.017-.015.027c-.578 1.247-1.145 3.15-1.543 5.23a31 31 0 0 0-.52 3.942 26 26 0 0 0-.051 1.264M20.002 20.86c1.34-.457 3.16-.679 4.61-.578.748.052 1.398.19 1.827.422m-4.997-3.755c1.197-.42 2.9-.634 4.534-.547 1.422.069 2.79.363 3.727.934q.01.01.021.014m-6.901-4.236c1.46-.357 3.035-.443 4.586-.325 1.585.117 3.146.446 4.547.927.793.274 1.534.592 2.198.952m-3.682 2.472c.062 1.097.142 2.526.197 4a62 62 0 0 1 .031 3.48"/><path stroke="#002140" stroke-linecap="round" stroke-linejoin="round" stroke-width=".65" d="M28.343 24.12c.422-.896 1.211-1.938 2.322-2.98a18.8 18.8 0 0 1 3.486-2.56m-10.813 5.634q.654-2.065 1.277-3.932c.454-1.36.904-2.651 1.36-3.884a76 76 0 0 1 1.434-3.613 54 54 0 0 1 1.626-3.472m4.486 1.385a54 54 0 0 0-1.564 3.018c-.516 1.087-.938 2.084-1.14 2.735m12.71 3.218a21.3 21.3 0 0 0-2.319 4.105 25 25 0 0 0-1.357 4.087 27 27 0 0 0-.588 3.434 29 29 0 0 0-.163 3.101m-2.647-11.273a37 37 0 0 0-.727 3.783 49 49 0 0 0-.38 3.641 47 47 0 0 0-.122 3.001 34 34 0 0 0 .08 2.918M30.759 24.96c.041 1.008.052 2.109.024 3.254a63 63 0 0 1-.47 6.4 41 41 0 0 1-.471 2.942"/><path stroke="#002140" stroke-linecap="round" stroke-linejoin="round" stroke-width=".65" d="M26.907 26.11c.844 1.202 2.367 1.884 3.876 2.102 1.163.173 2.32.072 3.15-.27.644-.263 1.225-.64 1.796-1.035.218-.152.436-.308.654-.46 1.464-1.025 2.998-1.97 4.666-2.61q.079-.028.163-.062c1.678-.603 4.416-1.028 6.143-.263.01 0 .02.01.028.013M26.616 29.62c1 1.149 2.502 1.71 4.005 1.865 1.353.142 2.71-.045 3.703-.425a7 7 0 0 0 1.02-.513c.738-.44 1.451-.986 2.15-1.408a27 27 0 0 1 3.825-1.925c.875-.36 2.457-.637 3.364-.353M25.81 32.728s.027.025.041.032c.983.768 2.977 1.613 4.455 1.855.287.045.557.073.796.07 1.426-.022 2.872-.437 4.118-1.136l.139-.076c1.031-.596 2.028-1.274 3.105-1.783.221-.104.494-.245.796-.398 1.159-.578 2.748-1.322 3.575-.865"/></g><defs><clipPath id="a"><path fill="#fff" d="M0 0h52v52H0z"/></clipPath></defs></svg>