<svg xmlns="http://www.w3.org/2000/svg" width="52" height="52" fill="none" viewBox="0 0 52 52"><g clip-path="url(#a)"><path fill="#f68dfe" d="M0 0h52v52H0z"/><path fill="#f68dfe" d="M26 52c14.36 0 26-11.64 26-26S40.36 0 26 0 0 11.64 0 26s11.64 26 26 26"/><path fill="#f68dfe" stroke="#002140" stroke-miterlimit="10" stroke-width=".65" d="M26 46.767c11.47 0 20.767-9.298 20.767-20.767S37.469 5.233 26 5.233C14.53 5.233 5.233 14.531 5.233 26c0 11.47 9.298 20.767 20.767 20.767Z"/><path fill="#f9b5fe" d="M37.12 34.854c-.065.024-.127.045-.19.073l-.055-.146c.2-1.315-.343-2.786-1.502-3.437-1.16-.654-2.88-.204-3.368 1.035-.571 1.46.633 3.146.152 4.642l.212.332c-1.226.775-2.444 1.582-3.707 2.291l-.153-.273c.33-.492.343-1.125.26-1.71-.128-.9-.474-1.8-1.132-2.43s-1.661-.938-2.513-.62c-1.024.381-1.581 1.572-1.509 2.662.056.834.412 1.634.409 2.471 0 .81-.665 1.925-1.468 1.925v.024a13.2 13.2 0 0 1-5.333-.644l.11-.315c.156-.003.295-.093.42-.187 1.02-.761 1.889-1.84 2.041-3.108.152-1.266-.609-2.682-1.858-2.949-1.375-.294-2.866.797-4.147.215l-.453.076a41 41 0 0 1-.502-4.222c.543.328 1.27.688 2.229 1.014 1.1.374 2.51.71 4.295.903q1.128.118 2.198.08c5.815-.163 10.21-3.278 10.21-3.278s.599-1.79.81-3.07q.037-.213.059-.446c.138-1.25.07-2.835.07-2.835-.804-.246-1.762-.464-2.815-.654a60 60 0 0 0-4.638-.637 105 105 0 0 0-6.742-.46c-1.942-.073-3.634-.077-4.78-.028v-.014c1-3.326 2.804-6.393 5.424-8.663.253-.218.505-.43.758-.623l.007.01c-.73 1.1-.976 2.063-.97 3.316.004 1.253.7 2.596 1.904 2.945.388.115.8.115 1.205.118.367.004.747.004 1.09-.125.952-.36 1.291-1.557 1.187-2.564-.107-1.01-.491-1.575-.505-2.59-.02-1.415.488-3.052 1.464-3.786l-.028-.093q.788-.212 1.624-.329c4.129-.599 8.42 1.374 10.912 4.725 1.426 1.914 2.306 4.17 2.717 6.527l-.03.007c-.219 1.07-1.222 1.769-2.153 2.34-.932.567-1.95 1.225-2.236 2.277-.288 1.066.373 2.267 1.384 2.714.99.432 2.201.187 3.035-.509-.398 2.596-1.138 4.932-1.972 7.521v.055c-.481.122-.96.27-1.426.447M36.087 19.52c.176-.35.218-.754.218-1.146 0-1.612-.71-3.215-1.904-4.298-2.205-1.997-7.3-2.143-7.317 1.869 0 .654.24 1.36.796 1.696.9.543 2.115-.087 3.088.3.837.337 1.218 1.295 1.883 1.911.46.426 1.09.686 1.716.64.63-.04 1.24-.408 1.52-.972"/><path fill="#fcdcff" d="M21.556 32.556q-1.07.038-2.198-.08c-1.786-.194-3.195-.53-4.295-.903l.02-.056 14.755-8.954.052-.29c1.052.19 2.011.408 2.814.654 0 0 .07 1.585-.069 2.834l-.173-.017-10.913 6.514zm-10.041-3.022c-.156-1.315-.149-2.772-.069-3.921h.024l7.037-4.392v-.045c2.087.076 4.458.225 6.745.46l-.01.097-13.346 7.971-.132.066c-.11-.097-.19-.177-.249-.236"/><path fill="#002140" d="M37.138 34.905c.43.343.305 1.077.121 1.285-.183.21-.457.318-.716.422-4.268 1.72-6.358 4.759-10.868 5.683-1.454.298-2.828.44-4.313.37-1.343-.059-2.814-.297-4.035-.965-.167-.09-.655-.312-.485-.783q.189.068.38.132c1.71.575 3.541.8 5.338.644a12.5 12.5 0 0 0 2.478-.46c1.27-.378 2.464-.942 3.624-1.59 1.263-.709 2.481-1.515 3.707-2.29l.17-.108c1.394-.879 2.855-1.727 4.391-2.319.063-.028.125-.048.19-.073zm-4.562-8.697c-.21 1.28-.81 3.07-.81 3.07s-4.395 3.115-10.21 3.278l-.007-.298 10.913-6.514.173.017a6 6 0 0 1-.059.447m-2.686-3.935-.052.29-14.754 8.954-.021.056a11 11 0 0 1-2.23-1.018 6.6 6.6 0 0 1-1.069-.786l.132-.065 13.346-7.971.01-.097c1.634.166 3.223.377 4.638.637M11.47 25.27c.128-1.492.599-3.153.81-3.963.208-.076.716-.128 1.45-.16 1.146-.048 2.838-.044 4.78.028v.045l-7.04 4.392h-.024a10 10 0 0 1 .024-.342"/><path stroke="#002140" stroke-linecap="round" stroke-linejoin="round" stroke-width=".65" d="M13.73 21.134c1-3.326 2.804-6.393 5.424-8.663.253-.218.505-.43.758-.623 1.769-1.402 3.489-2.278 5.354-2.77q.788-.21 1.624-.328c4.129-.599 8.42 1.374 10.913 4.725 1.425 1.914 2.305 4.17 2.717 6.527.311 1.765.363 3.586.186 5.365q-.072.747-.187 1.464c-.398 2.596-1.138 4.932-1.972 7.521m-24.177 5.33a70 70 0 0 1-1.034-4.9 41 41 0 0 1-.502-4.223m1.582 9.168c.765.481 1.578.876 2.426 1.187q.189.074.38.135c1.71.575 3.541.8 5.338.644a12.5 12.5 0 0 0 2.478-.46c1.27-.378 2.464-.942 3.624-1.59 1.263-.709 2.481-1.515 3.706-2.29l.17-.108c1.395-.879 2.856-1.727 4.392-2.319.063-.027.125-.048.19-.072q.703-.266 1.43-.447"/><path stroke="#002140" stroke-linecap="round" stroke-linejoin="round" stroke-width=".65" d="M11.446 25.612q.01-.176.024-.342c.128-1.492.599-3.153.81-3.963.208-.076.716-.128 1.45-.16 1.146-.048 2.838-.044 4.78.028 2.084.076 4.455.225 6.742.46a60 60 0 0 1 4.638.637c1.052.19 2.011.409 2.814.655 0 0 .07 1.585-.069 2.834a6 6 0 0 1-.059.447c-.211 1.28-.81 3.07-.81 3.07s-4.395 3.115-10.21 3.278q-1.07.038-2.198-.08c-1.786-.194-3.195-.53-4.295-.903a11 11 0 0 1-2.23-1.018 6.6 6.6 0 0 1-1.318-1.021c-.156-1.315-.149-2.772-.069-3.922m5.396 15.306c-.17.47.318.693.485.782 1.221.668 2.692.907 4.035.966 1.485.07 2.86-.073 4.313-.37 4.51-.924 6.6-3.963 10.868-5.683.26-.104.533-.212.716-.423.184-.207.308-.941-.121-1.284m3.35-14.897c-.218 1.07-1.222 1.768-2.153 2.34-.93.567-1.948 1.225-2.236 2.277-.287 1.066.374 2.267 1.385 2.714.99.432 2.201.186 3.035-.51.021-.01.038-.027.06-.044m-13.496-10.84c0 .654.24 1.36.796 1.696.9.543 2.115-.087 3.088.3.837.337 1.218 1.295 1.883 1.912.46.425 1.09.685 1.716.64.63-.042 1.24-.409 1.52-.973.176-.35.218-.754.218-1.145a5.9 5.9 0 0 0-1.904-4.3c-2.204-1.996-7.3-2.142-7.317 1.87m-7.164-4.088c-.73 1.1-.976 2.063-.97 3.316.004 1.252.7 2.595 1.904 2.945.388.114.8.114 1.205.118.367.003.747.003 1.09-.125.952-.36 1.291-1.557 1.187-2.565-.107-1.01-.491-1.575-.505-2.589-.02-1.415.488-3.052 1.464-3.786"/><path stroke="#002140" stroke-linecap="round" stroke-linejoin="round" stroke-width=".65" d="M32.158 37.02c.48-1.495-.724-3.18-.153-4.64.488-1.24 2.208-1.69 3.368-1.036 1.16.651 1.703 2.122 1.502 3.437l.166-.56m-14.554 7.444q.034.005.07.004c.802 0 1.467-1.115 1.467-1.925.003-.837-.353-1.637-.409-2.471-.072-1.09.485-2.281 1.51-2.662.85-.318 1.855-.01 2.512.62.658.63 1.004 1.53 1.132 2.43.083.584.07 1.218-.26 1.71M13.79 34.706c1.28.58 2.771-.51 4.146-.215 1.25.266 2.01 1.682 1.858 2.949s-1.02 2.346-2.042 3.108c-.124.093-.263.183-.419.187"/></g><defs><clipPath id="a"><path fill="#fff" d="M0 0h52v52H0z"/></clipPath></defs></svg>