<svg xmlns="http://www.w3.org/2000/svg" width="52" height="52" fill="none" viewBox="0 0 52 52"><g clip-path="url(#a)"><path fill="#50eef6" d="M0 0h52v52H0z"/><path fill="#50eef6" d="M26 52c14.36 0 26-11.64 26-26S40.36 0 26 0 0 11.64 0 26s11.64 26 26 26"/><path fill="#50eef6" stroke="#002140" stroke-miterlimit="10" stroke-width=".65" d="M26 46.767c11.47 0 20.767-9.298 20.767-20.767S37.469 5.233 26 5.233C14.53 5.233 5.233 14.531 5.233 26c0 11.47 9.298 20.767 20.767 20.767Z"/><path fill="#99f6ff" d="m16.967 40.814-.045.131-.08-.03a13 13 0 0 1-2.426-1.188l-.045-.045c-.755-3.094-1.34-6.04-1.537-9.123.543.328 1.27.688 2.229 1.014q.451.158.976.294l-.042.152c-.149 3.416.097 5.614.9 8.68.01.046.035.094.07.115m2.187-28.344c1.8-1.557 3.516-2.568 5.354-3.166-3.945 3.094-5.731 6.887-7.258 11.664v.17a55 55 0 0 0-3.52.01v-.014c1-3.326 2.804-6.393 5.424-8.663m17.762-.052-.28.076a17.8 17.8 0 0 0-5.863 9.629l-.062.308c-.263-.06-.54-.111-.82-.16a60 60 0 0 0-4.639-.636c-.155-.018-.311-.031-.467-.049l.007-.072c1.045-4.805 3.6-9.013 7.424-12.1l.028-.073a12.24 12.24 0 0 1 4.672 3.077m-7.842 26.674.138.235c-1.33.78-2.7 1.468-4.174 1.904q-.596.177-1.208.29l-.045-.224a24.8 24.8 0 0 1-.599-8.428l-.048-.433c2.405-.283 4.489-1.024 6.005-1.716l.034.076a25.1 25.1 0 0 0-.104 8.296m10.159-23.217c1.37 2.907 1.793 6.268 1.474 9.49a29 29 0 0 1-.81 4.476l-.103-.028c-.547 1.08-2.198 2.426-3.354 2.077-.98-.298-1.464-1.395-1.662-2.399-.415-2.118-.11-4.312.353-6.417.613-2.758 1.665-5.676 4.053-7.178z"/><path fill="#002140" d="M37.138 34.905c.43.343.305 1.077.121 1.285-.183.21-.457.318-.716.422-4.268 1.72-6.358 4.759-10.868 5.683-1.454.298-2.828.44-4.313.37-1.343-.059-2.814-.297-4.035-.965-.167-.09-.655-.312-.485-.783l.08.028c2.197.796 4.61 1.01 6.908.578q.612-.114 1.208-.29c1.474-.437 2.845-1.125 4.174-1.904 1.128-.665 2.222-1.388 3.326-2.084 1.454-.917 2.977-1.796 4.583-2.392z"/><path fill="#ccf6ff" d="M32.704 22.927s.07 1.585-.069 2.834l-.173-.017-10.913 6.514.007.297q-1.07.039-2.198-.08a21.4 21.4 0 0 1-3.32-.608q-.524-.136-.975-.294l.02-.056 14.755-8.954.052-.29c.28.048.558.1.82.159a22 22 0 0 1 1.994.495"/><path fill="#002140" d="m32.462 25.744.173.017a6 6 0 0 1-.059.447c-.21 1.28-.81 3.07-.81 3.07s-.98.692-2.623 1.443c-1.516.692-3.6 1.433-6.005 1.717q-.77.098-1.582.118l-.007-.298zm-2.572-3.471-.052.29-14.754 8.954-.021.056a11 11 0 0 1-2.23-1.018 6.6 6.6 0 0 1-1.069-.786l.132-.065 13.346-7.971.01-.097c1.634.166 3.223.377 4.638.637"/><path fill="#ccf6ff" d="m25.252 21.636-.01.097-13.346 7.971-.132.066c-.11-.097-.19-.177-.249-.236-.155-1.315-.149-2.772-.069-3.921h.024l7.037-4.392v-.045c1.945.069 4.136.204 6.278.412.156.017.312.03.467.048"/><path fill="#002140" d="M18.51 21.176v.045l-7.04 4.392h-.024q.01-.177.024-.343c.128-1.491.6-3.153.81-3.963.208-.076.717-.128 1.45-.159a55 55 0 0 1 3.517-.01q.608.016 1.263.038"/><path stroke="#002140" stroke-linecap="round" stroke-linejoin="round" stroke-width=".65" d="M13.73 21.133c1-3.326 2.804-6.392 5.424-8.663 1.8-1.557 3.516-2.568 5.354-3.167a14 14 0 0 1 2.382-.554c1.81-.263 3.648-.03 5.354.592a12.24 12.24 0 0 1 4.672 3.077q.474.502.887 1.056.838 1.133 1.429 2.402c1.37 2.907 1.793 6.268 1.474 9.49a29 29 0 0 1-.81 4.476c-.38 1.484-.848 2.952-1.35 4.51M14.37 39.681c-.754-3.094-1.339-6.04-1.536-9.123m1.582 9.169c.765.481 1.578.876 2.426 1.187l.08.031c2.197.796 4.61 1.01 6.908.578q.612-.114 1.208-.29c1.474-.436 2.845-1.125 4.174-1.904 1.128-.665 2.222-1.388 3.326-2.084 1.454-.917 2.977-1.796 4.583-2.391q.7-.266 1.43-.447"/><path stroke="#002140" stroke-linecap="round" stroke-linejoin="round" stroke-width=".65" d="M11.446 25.612q.01-.177.024-.343c.128-1.491.599-3.153.81-3.963.208-.076.717-.128 1.45-.159a55 55 0 0 1 3.517-.01q.608.016 1.263.038c1.942.069 4.133.204 6.275.412.156.017.312.03.467.048a60 60 0 0 1 4.638.637c.28.048.558.1.82.16a21 21 0 0 1 1.994.494s.07 1.585-.069 2.835a6 6 0 0 1-.059.446c-.211 1.28-.81 3.07-.81 3.07s-.98.692-2.623 1.444c-1.516.692-3.6 1.433-6.005 1.716q-.77.098-1.582.118c-.713.024-1.447 0-2.198-.08a21.4 21.4 0 0 1-3.32-.609q-.524-.136-.975-.294a11 11 0 0 1-2.23-1.018 6.6 6.6 0 0 1-1.069-.785c-.11-.097-.19-.177-.249-.236-.155-1.315-.149-2.772-.069-3.921m5.396 15.305c-.17.471.318.692.485.782 1.221.669 2.692.907 4.035.966 1.485.07 2.86-.073 4.313-.37 4.51-.924 6.6-3.963 10.868-5.683.26-.104.533-.212.716-.423.184-.207.308-.941-.121-1.284m2.045-19.008c-2.388 1.502-3.44 4.42-4.053 7.178-.463 2.104-.768 4.299-.353 6.417.198 1.003.682 2.1 1.662 2.398 1.156.35 2.807-.996 3.354-2.076m-3.157-17.32a17.8 17.8 0 0 0-5.863 9.629"/><path stroke="#002140" stroke-linecap="round" stroke-linejoin="round" stroke-width=".65" d="M29.177 30.797a25.1 25.1 0 0 0-.103 8.296m3.142-29.679c-3.824 3.087-6.379 7.296-7.424 12.1M23.186 32.87a24.8 24.8 0 0 0 .599 8.428m.737-32.005-.014.01c-3.945 3.095-5.731 6.888-7.258 11.664a.233.233 0 0 0 .17-.297m-1.423 11.349c-.149 3.416.097 5.614.9 8.68.01.045.035.093.07.114q.019.01.045.01c.062-.003.03-.13-.01-.086"/></g><defs><clipPath id="a"><path fill="#fff" d="M0 0h52v52H0z"/></clipPath></defs></svg>