<svg xmlns="http://www.w3.org/2000/svg" width="52" height="52" fill="none" viewBox="0 0 52 52"><g clip-path="url(#a)"><path fill="#ff7101" d="M0 0h52v52H0z"/><path fill="#ff7101" d="M26 52c14.36 0 26-11.64 26-26S40.36 0 26 0 0 11.64 0 26s11.64 26 26 26"/><path fill="#ff7101" stroke="#002140" stroke-miterlimit="10" stroke-width=".65" d="M26 46.767c11.47 0 20.767-9.298 20.767-20.767S37.469 5.233 26 5.233C14.53 5.233 5.233 14.531 5.233 26c0 11.47 9.298 20.767 20.767 20.767Z"/><path fill="#ffa75a" d="M21.21 32.621a27.3 27.3 0 0 0 3.357 8.823c-2.44.54-5.036.336-7.38-.53a13 13 0 0 1-2.425-1.187l-.045-.045-.021-.093.042-.01a17.8 17.8 0 0 1 2.505-7.338l.035-.156a22 22 0 0 0 2.426.391c.509.055 1.014.083 1.506.087zm13.37-22.338-.07.388c-4.997 1.844-9.21 5.724-11.459 10.553l-.014.183a114 114 0 0 0-4.18-.232c-.108 0-.219-.007-.323-.01l.014-.395a16.93 16.93 0 0 1 4.832-10.747l-.052-.114a13.5 13.5 0 0 1 3.908-1.16c2.54-.366 5.14.236 7.344 1.534m4.475 4.589c1.783 3.122 2.354 6.895 1.998 10.494-.316 3.205-1.174 5.919-2.16 8.985v.056q-.724.181-1.426.446c-1.606.596-3.13 1.475-4.583 2.392q-.674.428-1.353.862l-.104-.46a19.2 19.2 0 0 1-3.136-6.251l-.412-.018c2.596-.941 4.233-2.1 4.233-2.1s.6-1.79.81-3.07q.038-.214.06-.447c.138-1.25.068-2.835.068-2.835-.803-.246-1.761-.464-2.814-.654a12 12 0 0 0-.533-.093l.032-.18c2.329-3.091 5.69-5.774 9.32-7.127"/><path fill="#ffd7b0" d="m21.895 32.258.007.297q-.34.013-.692.007a15 15 0 0 1-1.506-.086 22 22 0 0 1-2.426-.391 17 17 0 0 1-1.87-.512l.022-.056 14.755-8.954.051-.29c1.053.19 2.011.408 2.814.654 0 0 .07 1.585-.069 2.834l-.173-.017zm-10.034-2.725c-.155-1.315-.149-2.772-.069-3.921h.024l7.037-4.392v-.045c1.315.048 2.737.124 4.184.232.852.066 1.713.142 2.562.228l-.01.097-13.347 7.971-.132.066a5 5 0 0 1-.249-.236"/><path fill="#002140" d="M26.02 42.295c-1.453.298-2.827.44-4.312.37-1.343-.059-2.814-.297-4.035-.965-.167-.09-.655-.312-.485-.783 2.343.862 4.939 1.066 7.38.526q.413-.092.816-.21c2.212-.655 4.195-1.88 6.147-3.126.453-.287.903-.578 1.353-.862 1.454-.917 2.977-1.796 4.583-2.392l.017.052c.43.343.305 1.077.121 1.285-.183.21-.457.318-.716.422-4.268 1.72-6.358 4.759-10.868 5.683m-4.126-10.037 10.913-6.514.173.017a6 6 0 0 1-.059.447c-.21 1.28-.81 3.07-.81 3.07s-1.637 1.16-4.233 2.1c-1.658.603-3.71 1.115-5.977 1.178zm8.341-9.985-.052.29-14.754 8.954-.021.056a11 11 0 0 1-2.229-1.018 6.6 6.6 0 0 1-1.07-.786l.132-.065 13.346-7.971.01-.097c1.43.145 2.828.325 4.105.54q.272.045.533.097m-18.42 2.997c.128-1.492.599-3.153.81-3.963.208-.076.717-.128 1.45-.16 1.08-.048 2.652-.044 4.458.018l.322.01v.045l-7.04 4.392h-.024a10 10 0 0 1 .024-.342"/><path stroke="#002140" stroke-linecap="round" stroke-linejoin="round" stroke-width=".65" d="M14.076 21.134c1-3.327 2.804-6.393 5.424-8.664 1.294-1.118 2.544-1.955 3.828-2.56a13.5 13.5 0 0 1 3.908-1.16c2.54-.367 5.14.235 7.344 1.533 1.381.813 2.61 1.9 3.569 3.191q.5.676.906 1.398c1.783 3.122 2.354 6.895 1.998 10.494-.316 3.206-1.174 5.92-2.16 8.986m-24.176 5.33-.021-.093c-.744-3.06-1.322-5.978-1.516-9.03m1.582 9.168c.765.481 1.578.876 2.426 1.187 2.343.865 4.939 1.07 7.38.53q.413-.093.816-.211c2.212-.655 4.195-1.88 6.147-3.126.453-.287.903-.578 1.353-.862 1.454-.917 2.977-1.796 4.583-2.391q.701-.266 1.43-.447"/><path stroke="#002140" stroke-linecap="round" stroke-linejoin="round" stroke-width=".65" d="M11.792 25.612q.01-.176.024-.342c.128-1.492.599-3.153.81-3.963.208-.076.717-.128 1.45-.16 1.08-.048 2.652-.044 4.458.018l.322.01c1.312.049 2.734.125 4.181.232.852.066 1.713.142 2.562.229 1.429.145 2.827.325 4.104.54q.272.045.533.096a25 25 0 0 1 2.814.655s.07 1.585-.069 2.834a6 6 0 0 1-.059.447c-.21 1.28-.81 3.07-.81 3.07s-1.637 1.16-4.233 2.1c-1.658.603-3.71 1.115-5.977 1.177q-.34.013-.692.007a15 15 0 0 1-1.506-.086 22 22 0 0 1-2.426-.391 17 17 0 0 1-1.87-.513 11 11 0 0 1-2.228-1.017 6.6 6.6 0 0 1-1.319-1.021c-.155-1.315-.149-2.772-.069-3.922m5.396 15.305c-.17.471.318.692.485.782 1.221.669 2.692.907 4.035.966 1.485.07 2.86-.073 4.313-.37 4.51-.924 6.6-3.963 10.868-5.683.26-.104.533-.212.716-.423.184-.207.308-.941-.12-1.284m1.671-20.071-.1.038c-3.631 1.353-6.992 4.036-9.321 7.127m4.776-11.329c-4.998 1.846-9.21 5.726-11.46 10.554m.329-11.201a16.93 16.93 0 0 0-4.832 10.747"/><path stroke="#002140" stroke-linecap="round" stroke-linejoin="round" stroke-width=".65" d="M21.21 32.621a27.3 27.3 0 0 0 3.357 8.822l.052.09m3.672-10.137a19.2 19.2 0 0 0 3.136 6.25M17.243 32.24a17.8 17.8 0 0 0-2.506 7.338"/></g><defs><clipPath id="a"><path fill="#fff" d="M0 0h52v52H0z"/></clipPath></defs></svg>