<svg xmlns="http://www.w3.org/2000/svg" width="52" height="52" fill="none" viewBox="0 0 52 52"><g clip-path="url(#a)"><path fill="#fed607" d="M0 0h52v52H0z"/><path fill="#fed607" d="M26 52c14.36 0 26-11.64 26-26S40.36 0 26 0 0 11.64 0 26s11.64 26 26 26"/><path fill="#fed607" stroke="#002140" stroke-miterlimit="10" stroke-width=".65" d="M26 46.767c11.47 0 20.767-9.298 20.767-20.767S37.469 5.233 26 5.233C14.53 5.233 5.233 14.531 5.233 26c0 11.47 9.298 20.767 20.767 20.767Z"/><path fill="#e4bc07" d="m43.904 20.348-9.611 16.288-.277.076a8.3 8.3 0 0 0-2.219-3.292l.928-.204 9.449-15.312.235-.055c.755 1.2 1.426 2.294 1.495 2.499m-5.914-2.319-1.641 2.807H16.015l-1.71-2.921.017-.01h23.453z"/><path fill="#fff2b2" d="M34.016 36.712c.325.893.502 1.852.502 2.855a8.304 8.304 0 0 1-8.307 8.307 8.304 8.304 0 0 1-7.801-11.162 8.3 8.3 0 0 1 1.654-2.73 8.3 8.3 0 0 1 2.506-1.88 8.24 8.24 0 0 1 3.641-.841c1.004 0 1.966.176 2.855.505a8.2 8.2 0 0 1 2.731 1.654 8.3 8.3 0 0 1 2.219 3.292"/><path fill="#e4bc07" d="m19.86 33.542.204.44a8.3 8.3 0 0 0-1.654 2.73l-.343-.076L8.46 20.348c.076-.229.914-1.585 1.779-2.953l.336.021z"/><path stroke="#002140" stroke-linecap="round" stroke-linejoin="round" stroke-width=".65" d="M34.016 36.712c.325.893.502 1.852.502 2.855a8.304 8.304 0 0 1-8.307 8.307 8.304 8.304 0 0 1-7.801-11.162 8.3 8.3 0 0 1 1.654-2.73 8.3 8.3 0 0 1 2.506-1.88 8.24 8.24 0 0 1 3.641-.841c1.004 0 1.966.176 2.855.505a8.2 8.2 0 0 1 2.731 1.654 8.3 8.3 0 0 1 2.219 3.292m-15.949-.076L8.46 20.348c.076-.228.914-1.585 1.779-2.952a317 317 0 0 1 1.717-2.686c.155-.246.249-.388.249-.388h14.599"/><path stroke="#002140" stroke-linecap="round" stroke-linejoin="round" stroke-width=".65" d="m22.303 31.586-6.288-10.75-1.71-2.921-2.101-3.593m3.745 6.514H27.29m7.003 15.8 9.611-16.288c-.069-.204-.74-1.298-1.495-2.499a301 301 0 0 0-2-3.14c-.16-.245-.25-.387-.25-.387H26.804"/><path stroke="#002140" stroke-linecap="round" stroke-linejoin="round" stroke-width=".65" d="m30.06 31.586 6.289-10.75 1.64-2.807 2.17-3.707m-3.748 6.514h-9.12m-16.717-3.419 9.286 16.125m-5.538-15.638h23.453m4.399 0-9.45 15.312"/><path fill="#002140" d="M27.56 43.16h-2.277v-5.159H23.66v-1.337c1.363 0 1.99-.357 2.113-1.304h1.787z"/></g><defs><clipPath id="a"><path fill="#fff" d="M0 0h52v52H0z"/></clipPath></defs></svg>