<svg xmlns="http://www.w3.org/2000/svg" fill="none" viewBox="0 0 52 52"><g clip-path="url(#a)"><path fill="#50eef6" d="M0 0h52v52H0z"/><path fill="#50eef6" d="M26 52c14.36 0 26-11.64 26-26S40.36 0 26 0 0 11.64 0 26s11.64 26 26 26"/><path fill="#50eef6" stroke="#002140" stroke-miterlimit="10" stroke-width=".65" d="M26 46.767c11.47 0 20.767-9.298 20.767-20.767S37.469 5.233 26 5.233C14.53 5.233 5.233 14.531 5.233 26c0 11.47 9.298 20.767 20.767 20.767Z"/><path fill="#4ba6a6" d="M42.454 28.492c0 1.437-.183 2.828-.526 4.157l-.18.263h-3.81v-.367c.394-1.225.605-2.533.605-3.89 0-7.016-5.686-12.702-12.702-12.702s-12.706 5.686-12.706 12.702c0 1.364.215 2.675.613 3.904v.353H9.864v-.062c-.308-1.263-.636-3-.636-4.358 0-9.175 7.438-16.613 16.613-16.613s16.613 7.438 16.613 16.613"/><path fill="#e5fafe" d="M38.543 28.656c0 1.356-.211 2.665-.605 3.89v.367h-24.19v-.353a12.7 12.7 0 0 1-.613-3.905c0-7.015 5.687-12.702 12.706-12.702s12.702 5.687 12.702 12.703m-10.94 1.346c.917-1.032 3.71-5.773 2.675-6.69s-5.503 2.332-6.42 3.367a2.503 2.503 0 1 0 3.744 3.323"/><path stroke="#002140" stroke-linecap="round" stroke-linejoin="round" stroke-width=".65" d="M9.864 32.85c-.308-1.263-.636-3-.636-4.358 0-9.175 7.438-16.613 16.613-16.613s16.613 7.438 16.613 16.613c0 1.437-.183 2.828-.526 4.157m-32.064.263h31.884"/><path stroke="#002140" stroke-linecap="round" stroke-linejoin="round" stroke-width=".65" d="M13.748 32.56a12.7 12.7 0 0 1-.613-3.905c0-7.015 5.687-12.702 12.706-12.702s12.702 5.687 12.702 12.703c0 1.356-.211 2.665-.605 3.89M26.004 16.115v3.541m-12.17 9.591h3.444m-.208-9.193 2.433 2.506m-5.298 1.71 3.295 1.034m3.707-8.119 1.401 3.232m15.475 8.83h-3.444m.208-9.193-2.433 2.506m5.299 1.71-3.295 1.034m-3.708-8.119-1.4 3.232"/><path stroke="#002140" stroke-linecap="round" stroke-linejoin="round" stroke-width=".65" d="M27.603 30.001a2.503 2.503 0 1 1-3.745-3.323c.917-1.035 5.385-4.285 6.42-3.367 1.035.917-1.758 5.659-2.675 6.69"/></g><defs><clipPath id="a"><path fill="#fff" d="M0 0h52v52H0z"/></clipPath></defs></svg>