<svg xmlns="http://www.w3.org/2000/svg" width="52" height="52" fill="none" viewBox="0 0 52 52"><g clip-path="url(#a)"><path fill="#f68dfe" d="M0 0h52v52H0z"/><path fill="#f68dfe" d="M26 52c14.36 0 26-11.64 26-26S40.36 0 26 0 0 11.64 0 26s11.64 26 26 26"/><path fill="#f68dfe" stroke="#002140" stroke-miterlimit="10" stroke-width=".65" d="M26 46.767c11.47 0 20.767-9.298 20.767-20.767S37.469 5.233 26 5.233C14.53 5.233 5.233 14.531 5.233 26c0 11.47 9.298 20.767 20.767 20.767Z"/><path fill="#002140" d="M16 17.68a.805.805 0 1 1 .003 1.61.805.805 0 0 1-.003-1.61m20.179 0a.805.805 0 1 1 .003 1.61.805.805 0 0 1-.003-1.61"/><path fill="#f9b5fe" d="M30.143 32.05a1.225 1.225 0 1 0 0-2.45 1.225 1.225 0 0 0 0 2.45m-4.195-2.45a1.225 1.225 0 1 1 0 2.45 1.226 1.226 0 1 1 0-2.45m-4.236 0a1.226 1.226 0 1 1-1.226 1.225c0-.678.547-1.225 1.226-1.225m-7.782-9.2c.77.232.662 1.184.617 2.187-.038.841.076 2.067-1.267 2.029-1.34-.039-1.457-.918-1.415-2.146.038-1.226.754-2.461 2.066-2.07m26.388 2.07c.037 1.228-.077 2.107-1.42 2.146-1.339.038-1.225-1.188-1.263-2.029-.045-1.003-.152-1.955.613-2.187 1.311-.391 2.031.844 2.07 2.07m-5.559-1.09v4.253a2.325 2.325 0 0 1-2.316 2.32H19.74a2.326 2.326 0 0 1-2.32-2.32V21.38a2.324 2.324 0 0 1 2.32-2.32h12.705a2.323 2.323 0 0 1 2.316 2.32"/><path fill="#cf4cd9" d="M25.924 15.582c1.17-.024 5.084-.048 10.065.526 4.34.502 7.223 3.05 8.168 6.133l-.121.038s-1.994 0-2.146 2.108c-.153 2.108-.346 3.067-2.146 3.18l-.097.018c-.097-.519-.433-.75-.938-.823-1.367-.194-1.457 1.19-2.032 2.8-.574 1.609-.803 4.021-3.565 4.021H19.067c-2.758 0-2.987-2.412-3.565-4.021-.574-1.61-.664-2.994-2.028-2.8-.502.072-.838.304-.938.823l-.097-.017c-1.803-.114-1.994-1.073-2.146-3.18-.156-2.109-2.15-2.109-2.15-2.109l-.117-.038c.945-3.084 3.828-5.631 8.168-6.133 4.978-.574 8.64-.55 9.726-.526zm12.975 9.034c1.343-.038 1.457-.918 1.42-2.146-.039-1.226-.759-2.461-2.07-2.07-.765.232-.658 1.184-.613 2.187.038.841-.076 2.067 1.263 2.029m-1.914-6.13a.805.805 0 1 0-1.61-.003.805.805 0 0 0 1.61.003m.038 6.936a.498.498 0 1 0-.997 0 .498.498 0 0 0 .997 0m-1.879 3.814a.441.441 0 1 0-.882-.004.441.441 0 0 0 .882.004m-.384-3.603V21.38a2.323 2.323 0 0 0-2.316-2.318H19.74a2.324 2.324 0 0 0-2.32 2.318v4.254a2.326 2.326 0 0 0 2.32 2.32h12.705a2.325 2.325 0 0 0 2.316-2.32m-.668 5.652a.441.441 0 0 0-.883 0c0 .242.198.44.44.44a.443.443 0 0 0 .443-.44m-2.724-.46c0-.679-.547-1.225-1.225-1.225-.679 0-1.226.546-1.226 1.225 0 .678.547 1.225 1.226 1.225s1.225-.547 1.225-1.225m-4.195 0a1.228 1.228 0 0 0-2.454 0c0 .678.55 1.225 1.229 1.225.678 0 1.225-.547 1.225-1.225m-4.233 0c0-.679-.55-1.225-1.229-1.225-.678 0-1.225.546-1.225 1.225 0 .678.547 1.225 1.225 1.225.679 0 1.23-.547 1.23-1.225m-4.008.48a.44.44 0 0 0-.44-.442.441.441 0 0 0 0 .883.44.44 0 0 0 .44-.44m-1.014-2.069a.441.441 0 1 0-.882-.004.441.441 0 0 0 .882.004m-1.111-10.75a.805.805 0 1 0-1.61-.003.805.805 0 0 0 1.61.003m-.65 6.936a.499.499 0 1 0-.998 0 .499.499 0 0 0 .997 0m-1.61-2.835c.045-1.003.152-1.955-.616-2.187-1.312-.391-2.028.844-2.066 2.07-.042 1.228.076 2.108 1.415 2.146 1.343.038 1.229-1.188 1.267-2.029"/><path fill="#712a76" d="M12.536 27.585c-.11.582.08 1.527.668 3.011 1.333 3.354 1.15 4.943-.575 5.517-1.723.575-2.415-.92-3.218-2.872-.807-1.956-1.724-4.714-1.724-8.74 0-.768.114-1.53.34-2.26l.117.038s1.993 0 2.15 2.108c.151 2.108.342 3.067 2.145 3.18zm31.621-5.344c.225.73.339 1.492.339 2.26 0 4.026-.92 6.784-1.724 8.74-.806 1.952-1.495 3.447-3.218 2.872-1.728-.574-1.908-2.163-.579-5.517.592-1.484.783-2.43.672-3.01l.097-.018c1.8-.114 1.993-1.073 2.146-3.18.152-2.109 2.146-2.109 2.146-2.109z"/><path stroke="#002140" stroke-linecap="round" stroke-linejoin="round" stroke-width=".65" d="M25.92 15.582c-1.087-.024-4.748-.048-9.725.526-4.34.502-7.224 3.05-8.169 6.133a7.7 7.7 0 0 0-.339 2.26c0 4.026.917 6.784 1.724 8.74.803 1.952 1.495 3.447 3.219 2.872 1.723-.574 1.907-2.163.574-5.517-.588-1.484-.779-2.43-.668-3.01.1-.52.436-.752.938-.824 1.364-.194 1.454 1.19 2.028 2.8.578 1.609.807 4.021 3.565 4.021h7.38m-.195-17.991s-.114 0-.328-.01"/><path stroke="#002140" stroke-linecap="round" stroke-linejoin="round" stroke-width=".65" d="M13.93 20.4c-1.31-.391-2.027.844-2.065 2.07-.042 1.228.076 2.107 1.415 2.146 1.343.038 1.229-1.188 1.267-2.029.045-1.003.152-1.955-.616-2.187m-5.787 1.88s1.993 0 2.15 2.107c.151 2.108.342 3.067 2.145 3.18m12.051.385h-4.75a2.326 2.326 0 0 1-2.32-2.319V21.38a2.324 2.324 0 0 1 2.32-2.32h4.233m-7.166-.574a.804.804 0 1 1-1.609-.002.804.804 0 0 1 1.609.002m6.133 12.339c0 .678-.55 1.225-1.228 1.225a1.223 1.223 0 0 1-1.226-1.225c0-.678.547-1.225 1.226-1.225s1.228.546 1.228 1.225m-7.282-4.905a.498.498 0 1 0 0-.996.498.498 0 0 0 0 .997m2.26 3.315a.44.44 0 1 1-.44-.443c.246 0 .44.197.44.443m7.646-13.644s.124 0 .356-.01h.004c1.17-.024 5.084-.048 10.065.526 4.34.502 7.223 3.05 8.168 6.133.225.73.34 1.492.34 2.26 0 4.026-.922 6.784-1.725 8.74-.806 1.952-1.495 3.447-3.218 2.872-1.727-.574-1.907-2.163-.578-5.517.591-1.484.782-2.43.671-3.01-.097-.52-.433-.752-.938-.824-1.367-.194-1.457 1.19-2.032 2.8-.574 1.609-.803 4.021-3.565 4.021h-6.666"/><path stroke="#002140" stroke-linecap="round" stroke-linejoin="round" stroke-width=".65" d="M38.249 20.4c1.311-.391 2.031.844 2.07 2.07.037 1.228-.077 2.107-1.42 2.146-1.339.038-1.225-1.188-1.263-2.029-.045-1.003-.152-1.955.613-2.187m5.787 1.88s-1.994 0-2.146 2.107c-.153 2.108-.346 3.067-2.146 3.18m-15.254.385h7.954a2.325 2.325 0 0 0 2.316-2.319V21.38a2.323 2.323 0 0 0-2.315-2.32h-8.473m11.404-.574a.803.803 0 1 0 .803-.806.8.8 0 0 0-.803.806M30.143 32.05a1.225 1.225 0 1 0 0-2.45 1.225 1.225 0 0 0 0 2.45m6.382-6.13a.498.498 0 1 0 0-.996.498.498 0 0 0 0 .997m-2.263 3.315a.441.441 0 1 0 .881-.003.441.441 0 0 0-.882.003m-7.088 1.589c0 .678-.55 1.225-1.225 1.225a1.226 1.226 0 1 1 0-2.45c.678 0 1.225.547 1.225 1.225m6.037.46c0 .243.197.44.439.44a.443.443 0 0 0 .443-.44.441.441 0 0 0-.883 0m-14.277.021a.44.44 0 1 1-.88 0 .44.44 0 0 1 .88 0"/></g><defs><clipPath id="a"><path fill="#fff" d="M0 0h52v52H0z"/></clipPath></defs></svg>