<svg xmlns="http://www.w3.org/2000/svg" width="52" height="52" fill="none" viewBox="0 0 52 52"><g clip-path="url(#a)"><path fill="#4ba6a6" d="M0 0h52v52H0z"/><path fill="#4ba6a6" d="M26 52c14.36 0 26-11.64 26-26S40.36 0 26 0 0 11.64 0 26s11.64 26 26 26"/><path fill="#4ba6a6" stroke="#002140" stroke-miterlimit="10" stroke-width=".65" d="M26 46.767c11.47 0 20.767-9.298 20.767-20.767S37.469 5.233 26 5.233C14.53 5.233 5.233 14.531 5.233 26c0 11.47 9.298 20.767 20.767 20.767Z"/><path fill="#50eef6" d="M36.214 11.152a.68.68 0 0 1-.845.454l-.401-.122-3.631-1.1-.415-.125a.678.678 0 0 1 .194-1.325q.098 0 .197.03l4.447 1.347a.677.677 0 0 1 .454.841"/><path fill="#50eef6" d="M36.778 7.971c0 .765-.308 1.457-.81 1.956l-.208.384-4.447-1.347a.7.7 0 0 0-.197-.03l.228-.215a2.768 2.768 0 1 1 5.434-.748"/><path fill="#28736d" d="m34.397 13.15-.038.065c-2.226-.09-3.278-1.01-3.53-1.267l.01-.027.498-1.537 3.63 1.1-.037.122-.51 1.48zm-9.709 11.995a.7.7 0 0 1 .218.166c.364.391.385 1.163.01 1.876-.435.834-1.245 1.273-1.81.98-.56-.298-.664-1.212-.228-2.046.225-.43.55-.755.89-.928.204-.104.418-.155.616-.135a.8.8 0 0 1 .304.087m-5.102-1.792c.426.225.506.92.173 1.554-.332.637-.948.969-1.377.744-.43-.222-.505-.92-.173-1.554.332-.637.948-.97 1.377-.744m9.771 4.886c.426.225.505.92.173 1.557-.332.634-.948.966-1.377.741-.43-.221-.506-.92-.173-1.554.332-.633.948-.969 1.377-.744"/><path fill="#002140" d="m24.45 19.199-.066 5.766v.093a1.1 1.1 0 0 0-.617.135l-.03-.059.062-5.852-1.084.142 1.236-3.001L25.529 19z"/><path fill="#002140" d="m24.993 25.274-.087.038a.8.8 0 0 0-.523-.253v-.093h.018l3.395-6.314-1.287-.796 3.316-1.837-.014.536-.052 2.153-.028 1.045-1.343-.793z"/><path fill="#4ed7de" d="M23.214 35.086c.232.12.273.495.093.837-.176.34-.509.52-.74.398-.229-.12-.27-.495-.094-.834.18-.343.512-.523.74-.401"/><path fill="#28736d" d="M19.666 34.594c.426.221.505.917.173 1.554-.332.633-.948.965-1.377.744-.43-.225-.506-.92-.174-1.558.333-.633.949-.965 1.378-.74"/><path fill="#4ed7de" d="M12.817 32.42a14 14 0 0 1 .09-2.322c.519-4.34 1.664-6.604 1.903-7.037l.01-.02q.036-.059.035-.06c.073-.148.142-.297.218-.45.056-.11.11-.22.17-.331 1.557-2.96 3.63-5.39 5.929-7.148 3.354-2.485 7.085-3.277 10.02-1.744 4.897 2.565 5.724 10.65 1.844 18.06-3.876 7.41-10.992 11.342-15.89 8.777-2.592-1.353-4.156-4.201-4.33-7.7zm18.087-2.115c3.368-6.434 2.963-13.287-.903-15.308-3.645-1.907-9.065 1.16-12.491 6.908 0 0-1.499 1.945-2.368 5.656-1.131 4.852-.28 9.186 2.669 10.73 3.866 2.02 9.726-1.551 13.093-7.986"/><path fill="#50eef6" d="m34.397 13.15.034-.056c5.818 3.33 7.092 12.49 2.807 20.683-4.36 8.335-12.827 12.512-18.908 9.332-3.68-1.925-5.514-5.85-5.514-10.664.173 3.5 1.738 6.348 4.33 7.7 4.898 2.566 12.014-1.366 15.89-8.777 3.88-7.41 3.053-15.495-1.844-18.06-2.936-1.533-6.667-.74-10.02 1.745 3.038-2.33 6.472-3.482 9.625-3.136q.01.012.031.031c.253.256 1.305 1.177 3.53 1.267z"/><path fill="#ccf6ff" d="M30.001 14.997c3.866 2.022 4.271 8.875.903 15.309s-9.227 10.006-13.093 7.985c-2.949-1.544-3.8-5.877-2.669-10.73.87-3.71 2.368-5.655 2.368-5.655 3.426-5.75 8.846-8.816 12.491-6.909m-4.624 1.7c-.18.343-.139.716.093.837.232.122.561-.058.741-.401.177-.34.135-.716-.093-.834-.232-.121-.561.059-.741.398m.152 2.305-1.578-2.579-1.236 3.001 1.084-.142-.063 5.853.032.059c-.34.173-.665.498-.89.928-.436.834-.332 1.747.229 2.045.564.294 1.374-.145 1.81-.98.373-.713.353-1.484-.01-1.875l.086-.039 3.395-6.313 1.343.793.028-1.045h.027c.163-.139.308-.319.423-.537.332-.633.252-1.332-.177-1.554a.6.6 0 0 0-.187-.062h-.034l.014-.537-3.316 1.838 1.287.796-3.395 6.313h-.017l.065-5.766zm5.947 2.575c.176-.343.134-.717-.094-.838-.232-.12-.564.06-.74.402-.18.34-.139.713.093.834.228.121.56-.059.74-.398m-.437 4.008c.177-.34.135-.713-.093-.834-.232-.121-.564.059-.74.398-.18.342-.14.716.093.837.228.122.56-.058.74-.401m-1.509 4.212c.333-.637.253-1.332-.173-1.557-.429-.225-1.045.11-1.377.744-.332.633-.256 1.332.173 1.554.429.225 1.045-.107 1.377-.74m-2.692 3.821c.18-.342.138-.716-.094-.837-.228-.121-.56.059-.737.398-.18.342-.139.716.093.837.229.121.561-.058.738-.398m-3.53 2.305c.18-.342.138-.716-.094-.837-.229-.121-.56.059-.74.401-.177.34-.136.713.093.834.231.122.564-.058.74-.398m-2.067-15.25c.18-.339.138-.716-.093-.833-.229-.122-.561.055-.741.398-.177.342-.135.716.093.837.232.121.564-.059.741-.401M19.837 36.15c.332-.637.253-1.332-.173-1.554-.43-.225-1.045.108-1.377.741-.333.637-.257 1.332.173 1.557.429.222 1.045-.11 1.377-.744m-.08-11.241c.333-.634.253-1.33-.172-1.555-.43-.224-1.046.108-1.378.745-.332.633-.256 1.332.173 1.554.43.225 1.045-.107 1.378-.744m-2.55 7.784c.18-.34.138-.713-.094-.835-.228-.12-.56.06-.74.399-.177.342-.135.716.093.837.232.121.564-.059.74-.401m-.042-3.493c.18-.342.139-.716-.093-.837-.229-.121-.561.059-.738.401-.18.34-.138.713.094.834.228.122.56-.058.737-.398"/><path stroke="#002140" stroke-linecap="round" stroke-linejoin="round" stroke-width=".65" d="M17.51 21.906c3.426-5.75 8.846-8.816 12.491-6.909 3.866 2.022 4.271 8.875.903 15.309s-9.227 10.006-13.093 7.985c-2.949-1.544-3.8-5.877-2.669-10.73.87-3.71 2.368-5.655 2.368-5.655"/><path stroke="#002140" stroke-linecap="round" stroke-linejoin="round" stroke-width=".65" d="M15.243 22.2c1.557-2.96 3.63-5.39 5.929-7.147 3.038-2.33 6.472-3.482 9.625-3.136l.041.003h.025M14.82 23.041q.119-.255.253-.509m-2.257 9.888q-.002-.415.018-.834M34.42 13.087s.008.003.011.007c5.818 3.33 7.092 12.491 2.807 20.684-4.36 8.334-12.827 12.511-18.908 9.33-3.68-1.924-5.514-5.849-5.514-10.663"/><path stroke="#002140" stroke-linecap="round" stroke-linejoin="round" stroke-width=".65" d="M14.82 23.04q.036-.057.035-.058c.073-.15.142-.298.218-.45.056-.111.11-.222.17-.332l.059-.115c1.554-2.97 3.627-5.378 5.87-7.033 3.354-2.485 7.085-3.277 10.02-1.744 4.897 2.565 5.724 10.65 1.844 18.06-3.876 7.41-10.992 11.342-15.89 8.777-2.592-1.353-4.156-4.201-4.33-7.7v-.025a14 14 0 0 1 .09-2.322c.52-4.34 1.665-6.604 1.904-7.037z"/><path stroke="#002140" stroke-linecap="round" stroke-linejoin="round" stroke-width=".65" d="M24.906 25.31c.364.392.385 1.164.01 1.877-.435.834-1.245 1.273-1.81.98-.56-.298-.664-1.212-.228-2.046.225-.43.55-.755.89-.928.204-.104.418-.155.616-.135a.8.8 0 0 1 .522.253m5.86-13.429.031.034c.007.007.017.021.031.032.253.256 1.305 1.176 3.53 1.266"/><path stroke="#002140" stroke-linecap="round" stroke-linejoin="round" stroke-width=".65" d="m30.818 11.986.01-.038.01-.028.499-1.537.003-.01m3.05 2.8.007-.024.024-.062.509-1.482"/><path stroke="#002140" stroke-linecap="round" stroke-linejoin="round" stroke-width=".65" d="M35.76 10.311a.677.677 0 0 1 .454.841.68.68 0 0 1-.845.454l-.401-.122-3.631-1.1-.415-.125a.678.678 0 0 1 .194-1.325q.098 0 .197.03zM24.4 24.966l3.396-6.314-1.287-.796 3.316-1.837-.014.536-.052 2.153-.028 1.045-1.343-.793-3.395 6.314m-1.257-.139.063-5.853-1.084.142 1.236-3.001L25.529 19l-1.08.198-.065 5.766v.086m5.146 4.746c-.332.634-.948.966-1.377.741-.43-.221-.506-.92-.173-1.554.332-.633.948-.969 1.377-.744.426.225.505.92.173 1.557m-9.691 6.352c-.332.633-.948.965-1.377.744-.43-.225-.506-.92-.174-1.558.333-.633.949-.965 1.378-.74.426.221.505.917.173 1.554m10.006-19.593q.099.015.187.062c.43.221.509.92.177 1.554-.115.218-.26.398-.423.537m1.254 6.877c-.18.342-.513.523-.741.401-.232-.12-.274-.495-.094-.837.177-.34.509-.52.74-.398.23.12.27.495.094.834m.437-4.008c-.18.339-.513.519-.741.398-.232-.122-.274-.495-.094-.835.177-.342.51-.522.741-.401.228.121.27.495.093.837m-14.308 7.622c-.176.339-.509.519-.737.398-.232-.122-.273-.495-.093-.834.176-.343.508-.523.737-.402.232.121.273.495.093.838m.042 3.492c-.177.343-.51.523-.741.402-.229-.121-.27-.495-.093-.838.18-.339.512-.519.74-.398.232.121.274.495.094.834m6.098 3.233c-.176.34-.509.52-.74.398-.229-.12-.27-.495-.094-.834.18-.343.512-.523.74-.401.233.12.274.495.094.837m3.531-2.305c-.177.339-.51.519-.738.398-.232-.121-.273-.495-.093-.838.176-.34.509-.52.737-.398.232.121.273.495.094.838M21.24 20.673c-.176.343-.508.523-.74.402-.228-.122-.27-.495-.093-.838.18-.343.512-.52.74-.398.232.118.274.495.094.834m4.97-3.54c-.18.342-.509.522-.74.401-.232-.121-.274-.495-.094-.837.18-.34.509-.52.74-.398.23.117.27.495.094.834m-6.451 7.774c-.333.637-.949.969-1.378.744-.43-.222-.505-.92-.173-1.554.332-.637.948-.97 1.377-.744.426.225.506.92.173 1.554M31.344 8.719a2.768 2.768 0 1 1 5.434-.748c0 .765-.308 1.457-.81 1.956"/></g><defs><clipPath id="a"><path fill="#fff" d="M0 0h52v52H0z"/></clipPath></defs></svg>