<svg xmlns="http://www.w3.org/2000/svg" fill="none" viewBox="0 0 52 52"><g clip-path="url(#a)"><path fill="#03d47c" d="M0 0h52v52H0z"/><path fill="#03d47c" d="M26 52c14.36 0 26-11.64 26-26S40.36 0 26 0 0 11.64 0 26s11.64 26 26 26"/><path fill="#03d47c" stroke="#002140" stroke-miterlimit="10" stroke-width=".65" d="M26 46.767c11.47 0 20.767-9.298 20.767-20.767S37.469 5.233 26 5.233C14.53 5.233 5.233 14.531 5.233 26c0 11.47 9.298 20.767 20.767 20.767Z"/><path fill="#002140" d="M35.92 18.462c.917 1.128 1.772 2.326 2.436 3.492 1.963 3.454 5.465 9.93-.059 14.955-1.547 1.603-3.108 2.482-3.108 2.482-6.302 4.012-12.467.066-15.398-2.613-2.932-2.679-5.76-7.082-6.694-9.172-2.918-6.528-2.056-10.643 2.312-14.478l.858-.685c2.662-1.928 5.164-2.745 7.868-2.312-1.063-.09-1.977.124-2.673.681-2.817 2.25-.969 9.252 4.133 15.638 5.098 6.386 11.519 9.74 14.336 7.49 2.797-2.233 1-9.138-4.008-15.482zm-17.538-4.3c.062-.58-.298-1.107-.54-1.138-.221-.027-.792-.08-.924 1.167-.09.858-.038 1.664.08 2.2s.626 1.282 1.11 1.195c.45-.08.426-.654.336-1.267-.128-.855-.142-1.408-.058-2.156zm15.336 22.176c.07-.699-1.18-1.2-1.786-1.575-3.499-2.02-9.466-7.745-12.338-14.329-.537-1.502-1.056-1.062-1.073-1.066 0 0-.838.125-.381 1.516 2.398 6.248 8.359 12.751 13.273 15.52 1.79.896 2.253.443 2.302-.066z"/><path fill="#008c59" d="M35.916 18.458c5.008 6.348 6.805 13.253 4.008 15.485-2.817 2.25-9.234-1.104-14.336-7.49-5.102-6.39-6.95-13.387-4.132-15.637.695-.557 1.609-.769 2.672-.682 2.076.329 4.274 1.398 6.759 3.26 1.211.91 3.23 2.852 5.026 5.064zm2.932 6.278c-.831-1.702-1.219-1.893-1.44-1.768-.364.207-.163.682.277 1.675 1.076 2.43 1.07 3.738.3 4.984-.55.896-1.63 1.201-2.332 1.17-.661-.028-1.007.242-.945.65.104.693.869 1.433 1.627 1.6 1.18.263 2.34.09 3.222-1.347.88-1.44.65-4.177-.706-6.964zM26.862 12.82c-.166-.762-.91-1.028-1.457-1.163-.931-.229-2.44-.215-3.32 1.222-.882 1.436-.488 4.143.409 6.448 1.073 2.755 2.575 4.606 2.976 5.13.426.553 1.039 1.228 1.544.826.402-.322-.35-1.211-.813-1.941a21.6 21.6 0 0 1-1.79-3.385c-1.014-2.444-1.062-4.026-.297-5.275.55-.897 1.443-1.028 1.924-1.128.61-.125.914-.326.824-.741zm7.04 7.23c-3.012-3.77-6.684-5.846-8.203-4.63-.485.387-.692 1.062-.65 1.927q.016.385.1.817c.2 1.035.674 2.253 1.387 3.527a20.3 20.3 0 0 0 1.862 2.751 20.5 20.5 0 0 0 1.835 2.018c1.229 1.184 2.475 2.063 3.572 2.544q.403.177.775.28c.834.232 1.537.18 2.021-.207 1.52-1.212.308-5.25-2.703-9.024z"/><path fill="#03d47c" d="M37.408 22.968c.221-.124.609.066 1.44 1.769 1.356 2.786 1.585 5.527.706 6.964-.883 1.436-2.042 1.61-3.223 1.346-.758-.166-1.519-.907-1.626-1.599-.063-.408.284-.682.945-.65.702.03 1.782-.274 2.332-1.17.769-1.247.78-2.555-.3-4.985-.44-.993-.641-1.467-.278-1.675zM25.401 11.657c.55.135 1.291.398 1.457 1.163.094.416-.214.616-.823.741-.481.1-1.37.232-1.925 1.128-.768 1.246-.716 2.831.298 5.275a22 22 0 0 0 1.79 3.385c.463.73 1.218 1.62.813 1.942-.506.401-1.118-.274-1.544-.828-.405-.522-1.907-2.377-2.976-5.129-.897-2.305-1.291-5.008-.409-6.448.88-1.44 2.388-1.45 3.32-1.222z"/><path fill="#085239" d="M25.699 15.419c1.52-1.211 5.191.862 8.203 4.631 3.01 3.773 4.219 7.812 2.703 9.023-.485.388-1.19.44-2.021.208-.09-1.841-1.305-4.53-3.354-7.099s-4.403-4.344-6.178-4.839c-.042-.865.166-1.54.65-1.927z"/><path fill="#00b268" d="M25.052 17.347c1.775.495 4.129 2.274 6.178 4.839s3.264 5.257 3.354 7.095a6 6 0 0 1-.776-.28c-.138-1.19-.692-2.665-1.595-4.195a19.5 19.5 0 0 0-3.167-4.011 16 16 0 0 0-.685-.63c-1.115-.966-2.23-1.658-3.205-2.004a5.5 5.5 0 0 1-.1-.817z"/><path fill="#002140" d="M30.693 22.615q.514.645.949 1.295l-2.25.543-.041.021a12 12 0 0 0-.582-.8 12 12 0 0 0-.585-.674l.024-.028.796-2.118.042-.052a19 19 0 0 1 1.647 1.817z"/><path fill="#00b268" d="m29.392 24.45 2.25-.544q.306.453.57.9l-.072.031-2.33.416a8 8 0 0 0-.46-.786l.042-.02zm-.346-3.656-.042.052-.796 2.118-.024.028a9 9 0 0 0-.64-.616l.816-2.212q.343.297.686.63"/><path fill="#002140" d="m32.14 24.84.073-.03c.903 1.53 1.457 3.004 1.595 4.195-1.097-.482-2.343-1.36-3.572-2.544-.038-.326-.186-.741-.425-1.208l2.33-.416zm-3.783-4.672-.817 2.211c-.363-.315-.706-.55-1.003-.685-.713-1.274-1.191-2.492-1.388-3.527.976.343 2.09 1.035 3.205 2.004z"/><path fill="#00b268" d="M29.81 25.252c.24.467.385.883.427 1.208a21 21 0 0 1-1.835-2.018 20.6 20.6 0 0 1-1.862-2.752c.294.139.64.374 1.004.686.207.18.425.387.64.616q.295.31.585.675c.215.266.408.536.582.8.18.27.332.536.46.785"/><path fill="#b1f2d6" d="M17.842 13.02c.246.032.602.558.54 1.14-.08.75-.066 1.3.059 2.156.09.612.114 1.187-.336 1.266-.484.087-.99-.657-1.11-1.194-.119-.536-.17-1.343-.08-2.201.131-1.246.702-1.194.924-1.166zm14.094 21.744c.605.374 1.855.872 1.786 1.575-.049.508-.513.962-2.302.066-4.918-2.766-10.875-9.273-13.273-15.52-.457-1.388.38-1.516.38-1.516.021.003.537-.436 1.073 1.066 2.873 6.583 8.84 12.308 12.34 14.329z"/><path stroke="#002140" stroke-miterlimit="10" stroke-width=".65" d="M25.052 17.347c1.775.495 4.129 2.274 6.178 4.838s3.264 5.258 3.354 7.096"/><path stroke="#00b268" stroke-miterlimit="10" stroke-width=".65" d="M25.152 18.164c.976.343 2.09 1.035 3.205 2.004q.343.297.685.63a19.6 19.6 0 0 1 3.167 4.011c.904 1.53 1.457 3.005 1.596 4.195M26.54 21.69c.294.139.64.374 1.004.686.207.18.425.387.64.616q.295.31.585.675c.215.266.408.536.582.8.18.27.332.536.46.785.239.467.384.883.425 1.208m-.844-2.011 2.25-.544"/><path stroke="#00b268" stroke-miterlimit="10" stroke-width=".65" d="m32.14 24.84-2.33.412-.061.01m-1.392-5.094-.813 2.212-.021.052m.685.536.796-2.118"/><path stroke="#002140" stroke-miterlimit="10" stroke-width=".65" d="M35.916 18.458c-1.793-2.212-3.81-4.153-5.025-5.064-2.485-1.862-4.683-2.931-6.76-3.26-2.707-.433-5.206.38-7.867 2.312l-.858.685c-4.368 3.835-5.227 7.95-2.312 14.478.93 2.09 3.758 6.493 6.693 9.172 2.932 2.679 9.096 6.625 15.399 2.613 0 0 1.564-.879 3.108-2.481 5.524-5.022 2.025-11.502.059-14.956-.661-1.166-1.52-2.364-2.437-3.492"/><path stroke="#002140" stroke-miterlimit="10" stroke-width=".65" d="M24.135 10.134c3.232.27 7.822 3.36 11.664 8.172l.12.152c5.009 6.348 6.805 13.253 4.009 15.485-2.818 2.25-9.235-1.104-14.336-7.49-5.102-6.39-6.95-13.387-4.133-15.637.696-.557 1.61-.769 2.672-.682z"/><path stroke="#002140" stroke-miterlimit="10" stroke-width=".65" d="M25.052 17.347c-.042-.865.166-1.54.65-1.928 1.52-1.211 5.192.862 8.203 4.631 3.012 3.773 4.22 7.812 2.703 9.023-.484.388-1.19.44-2.02.208a6 6 0 0 1-.776-.28c-1.097-.482-2.343-1.36-3.572-2.544a21 21 0 0 1-1.834-2.018 20.6 20.6 0 0 1-1.862-2.752c-.713-1.274-1.191-2.492-1.388-3.527a5.5 5.5 0 0 1-.1-.817z"/></g><defs><clipPath id="a"><path fill="#fff" d="M0 0h52v52H0z"/></clipPath></defs></svg>