<svg xmlns="http://www.w3.org/2000/svg" width="52" height="52" fill="none" viewBox="0 0 52 52"><g clip-path="url(#a)"><path fill="#cf4cd9" d="M0 0h52v52H0z"/><path fill="#cf4cd9" d="M26 52c14.36 0 26-11.64 26-26S40.36 0 26 0 0 11.64 0 26s11.64 26 26 26"/><path fill="#cf4cd9" stroke="#002140" stroke-miterlimit="10" stroke-width=".65" d="M26 46.767c11.47 0 20.767-9.298 20.767-20.767S37.469 5.233 26 5.233C14.53 5.233 5.233 14.531 5.233 26c0 11.47 9.298 20.767 20.767 20.767Z"/><path fill="#f68dfe" d="m18.316 18.337-.038.024c-2.682.543-5.545-.533-7.102-2.918-1.55-2.37-1.36-5.347.246-7.5l.069-.045 3.759 5.746.159.024 4.011-2.51.021-.138-3.714-5.68v-.03c2.63-.472 5.407.612 6.933 2.948 1.516 2.316 1.37 5.21-.135 7.348l-.062.031 3.627 5.69.114.083-.737 1-2.274 3.095-.28-.208zm11.543 17.499-3.71-5.656-.139-.1 2.984-4.108.332.238 4.662 6.909.038-.024c2.683-.561 5.548.502 7.123 2.876 1.565 2.36 1.392 5.34-.2 7.5l-.07.045-3.793-5.725-.163-.024-3.994 2.534-.02.138 3.751 5.663v.027c-2.627.485-5.413-.578-6.953-2.907-1.53-2.309-1.399-5.202.093-7.348z"/><path fill="#f68dfe" d="m22.034 35.56.038.028c1.523 2.229 1.574 5.226-.1 7.535-1.669 2.294-4.56 3.24-7.203 2.588l-.066-.048 4.036-5.562-.038-.156-3.88-2.696-.139.034-3.994 5.5-.028.018c-1.43-2.215-1.446-5.137.194-7.4 1.627-2.243 4.423-3.195 7.016-2.63l.055.044 7.546-10.4h-.004l.737-1.004 4.084-5.555-.038-.028c-1.505-2.24-1.54-5.237.15-7.535 1.678-2.288 4.578-3.212 7.216-2.547l.069.048-4.074 5.538.038.156 3.866 2.717.139-.031 4.025-5.476.024-.017h.004a6.52 6.52 0 0 1-.24 7.396c-1.64 2.236-4.443 3.17-7.029 2.593l-.055-.045-5.092 6.929h.004l-.301.419-2.984 4.108z"/><path stroke="#002140" stroke-linecap="round" stroke-linejoin="round" stroke-width=".65" d="M30.25 15.828c-1.505-2.24-1.54-5.237.149-7.535 1.679-2.288 4.58-3.212 7.216-2.547m4.075 2.91.013.024h.004a6.52 6.52 0 0 1-.24 7.397c-1.64 2.236-4.443 3.17-7.029 2.592m-4.125-2.849-.025.035-4.084 5.555-.737 1-2.274 3.095-.225.308M37.702 5.77l-.017.024-4.074 5.538m.772 7.292-5.092 6.93-2.52 3.426M41.679 8.697l-4.025 5.476m-.139.031-3.866-2.717m-11.577 24.1c1.522 2.229 1.574 5.226-.1 7.535-1.67 2.294-4.56 3.24-7.203 2.589m-4.091-2.886s-.01-.018-.018-.024c-1.43-2.215-1.446-5.137.194-7.4 1.627-2.243 4.423-3.195 7.016-2.63m4.14 2.823.023-.035 3.977-5.479 2.984-4.108.3-.415m-14.608 20.13.017-.024 4.035-5.562m-.813-7.286 7.545-10.4M10.688 42.783l3.994-5.5m.138-.035 3.88 2.696m-.422-21.583c-2.682.544-5.545-.533-7.102-2.917-1.55-2.371-1.36-5.348.246-7.5m4.271-2.631s.02-.004.031-.004c2.634-.47 5.41.613 6.936 2.949 1.516 2.316 1.37 5.21-.135 7.348m-4.23 2.697.021.034 4.597 6.96M11.477 7.874l.014.024 3.759 5.746m7.213 1.993 3.627 5.69M15.727 5.34l3.714 5.68m-.021.138-4.011 2.51m18.617 19.427c2.683-.56 5.549.502 7.123 2.876 1.565 2.36 1.392 5.34-.2 7.5m-4.258 2.655s-.017.003-.027.003c-2.63.485-5.417-.578-6.957-2.907-1.53-2.309-1.399-5.202.093-7.348m4.213-2.72-.025-.035-4.662-6.908M40.893 43.54l-.014-.023-3.793-5.725m-7.223-1.952-.004-.004-3.71-5.655M36.66 46.102l-3.752-5.662m.022-.139 3.993-2.533"/></g><defs><clipPath id="a"><path fill="#fff" d="M0 0h52v52H0z"/></clipPath></defs></svg>