<svg xmlns="http://www.w3.org/2000/svg" xmlns:xlink="http://www.w3.org/1999/xlink" id="Layer_1" x="0" y="0" version="1.1" viewBox="0 0 40 40" style="enable-background:new 0 0 40 40" xml:space="preserve"><style type="text/css">.st0{fill:#8b9c8f}.st1{fill-rule:evenodd;clip-rule:evenodd}.st1,.st2{fill:#fff}</style><path d="M20,0L20,0c11,0,20,9,20,20l0,0c0,11-9,20-20,20l0,0C9,40,0,31,0,20l0,0C0,9,9,0,20,0z" class="st0"/><path d="M15.9,13c0-1.7,1.3-3,3-3h2c1.7,0,3,1.3,3,3H27c0.2,0,0.5,0.2,0.5,0.4l0.3,2c0.1,0.3-0.2,0.6-0.5,0.6H12.5	c-0.3,0-0.5-0.3-0.5-0.6l0.3-2c0-0.2,0.2-0.4,0.5-0.4H15.9z M17.9,13c0-0.6,0.4-1,1-1h2c0.6,0,1,0.4,1,1H17.9z" class="st1"/><path d="M13,18.5l0.9,10c0,0.3,0.2,0.5,0.5,0.5h11.1c0.3,0,0.5-0.2,0.5-0.5l0.9-10c0-0.3-0.2-0.5-0.5-0.5H13.5	C13.2,18,12.9,18.3,13,18.5z" class="st2"/></svg>