<svg xmlns="http://www.w3.org/2000/svg" xmlns:xlink="http://www.w3.org/1999/xlink" id="Layer_1" x="0" y="0" version="1.1" viewBox="0 0 512 512" style="enable-background:new 0 0 512 512" xml:space="preserve"><style type="text/css">.st0{fill:#03d47c}.st1{fill:#002e22}</style><path d="M256,0L256,0c141.4,0,256,114.6,256,256l0,0c0,141.4-114.6,256-256,256l0,0C114.6,512,0,397.4,0,256l0,0	C0,114.6,114.6,0,256,0z" class="st0"/><path d="M326.6,197v-41.7H185.4v201.3h141.2V315h-89.3v-38.6h71.9v-42.7h-71.9V197H326.6z" class="st1"/><path d="M256.3,88.9C256.3,88.9,256.3,88.9,256.3,88.9c35.7,0,68.5,11.1,95.8,30c6.9,4.8,16.4,4.4,22.3-1.5	c6.7-6.7,6.3-17.7-1.4-23.3c-32.9-23.7-73.2-37.7-116.7-37.7c-110.3,0-200,89.7-200,200c0,43.5,14,83.9,37.7,116.7	c5.5,7.7,16.6,8.1,23.3,1.4c6-6,6.3-15.4,1.5-22.3c-18.9-27.2-30-60.1-30-95.8C88.9,163.8,163.8,88.9,256.3,88.9	C256.3,88.9,256.3,88.9,256.3,88.9z" class="st1"/><path d="M421.3,143.4c-5.5-8-16.8-8.5-23.6-1.6c-5.9,5.9-6.4,15.2-1.8,22.2c17.5,26.4,27.8,58.3,27.8,92.4	c0,34.2-10.7,67.1-28.9,94.1c-4.7,6.9-4.3,16.3,1.7,22.3c6.8,6.8,17.9,6.3,23.4-1.5c22.9-32.5,36.4-72.1,36.4-114.8	C456.3,213.8,443.4,175.4,421.3,143.4z" class="st1"/><path d="M256.3,423.8c-34.1,0-66-10.4-92.4-27.8c-7-4.6-16.3-4.1-22.2,1.8c-6.8,6.8-6.3,18.1,1.6,23.6	c32.2,22.1,71.1,35,113,35c42.1,0,82.2-13.5,114.8-36.4c7.8-5.5,8.3-16.7,1.5-23.4c-5.9-5.9-15.3-6.3-22.3-1.6	C323.6,413.1,291.2,423.8,256.3,423.8z" class="st1"/></svg>