<svg xmlns="http://www.w3.org/2000/svg" fill="none" viewBox="0 0 150 150"><g clip-path="url(#a)"><path fill="#000" d="M150 0H0v150h150z"/><path fill="#fff" d="m112.592 103.01-2.948-2.58c-6.45 8.661-14.927 13.268-24.14 13.268-16.4 0-26.905-15.48-26.905-39.62s10.873-40.171 26.72-40.171c9.03 0 17.875 5.16 21.376 12.899-1.842-1.658-4.238-2.58-7.186-2.58-6.081 0-10.689 4.423-10.689 10.504 0 5.897 4.792 10.688 10.873 10.688 6.634 0 11.425-5.529 11.425-13.268 0-13.084-14.005-23.219-32.433-23.219-25.245 0-43.857 19.718-43.857 45.7 0 26.167 18.98 44.964 44.963 44.964 14.005 0 25.062-5.529 32.801-16.585"/></g><defs><clipPath id="a"><rect width="100%" height="100%" fill="#fff"/></clipPath></defs></svg>