<?xml version="1.0" encoding="UTF-8"?>
<svg id="Layer_1" xmlns="http://www.w3.org/2000/svg" version="1.1" viewBox="0 0 20 20">
  <!-- Generator: Adobe Illustrator 29.4.0, SVG Export Plug-In . SVG Version: 2.1.0 Build 152)  -->
  <defs>
    <style>
      .st0 {
        fill-rule: evenodd;
      }
    </style>
  </defs>
  <path class="st0" d="M10,19c4.97,0,9-4.03,9-9S14.97,1,10,1,1,5.03,1,10s4.03,9,9,9ZM10,16c-3.31,0-6-2.69-6-6,0-1.11.3-2.15.83-3.05l8.22,8.22c-.89.53-1.93.83-3.05.83ZM6.95,4.83c.89-.53,1.94-.83,3.05-.83,3.31,0,6,2.69,6,6,0,1.11-.3,2.15-.83,3.05L6.95,4.83Z"/>
</svg>