<svg xmlns="http://www.w3.org/2000/svg" viewBox="0 0 40 40" xmlns:xlink="http://www.w3.org/1999/xlink">
  <defs>
    <linearGradient id="a" x1="11.34" x2="26.34" y1="34.23" y2="12.23" gradientTransform="matrix(1 0 0 -1 0 42)" gradientUnits="userSpaceOnUse">
      <stop offset="0" stop-color="#0c50d3"/>
      <stop offset=".55" stop-color="#381e96"/>
    </linearGradient>
    <linearGradient id="b" x1="21.42" x2="22.92" y1="22.42" y2="11.42" gradientTransform="matrix(1 0 0 -1 0 42)" gradientUnits="userSpaceOnUse">
      <stop offset="0" stop-color="#7a4da2" stop-opacity=".7"/>
      <stop offset="1" stop-color="#5da3ff"/>
    </linearGradient>
  </defs>
  <path fill="#fff" d="M0 0h40v40H0z"/>
  <path fill="url(#a)" d="M10.5 9.21v7.72c0 .34.21.64.53.75l6.37 2.25c.78.28 1.6-.3 1.6-1.13v-3.69c0-.55.53-.93 1.05-.76l2.08.69a2 2 0 0 1 1.37 1.9v7.76c0 1.08-.69 2.03-1.71 2.37l-1.87.62a.7.7 0 0 1-.92-.66V21.5l-2.89 1.24c-.37.16-.61.52-.61.92v7.59c0 .84.84 1.42 1.63 1.12l9.32-3.58a3.2 3.2 0 0 0 2.05-2.99v-9.7a3 3 0 0 0-1.98-2.82l-14.41-5.2c-.78-.28-1.61.3-1.61 1.13"/>
  <path fill="url(#b)" d="M28.5 25.94V16c0 .91-.54 1.73-1.38 2.08l-11.01 4.66c-.37.16-.61.52-.61.92v7.88c0 .7.7 1.19 1.36.93l9.72-3.74a3 3 0 0 0 1.92-2.8Z"/>
</svg>
