<?xml version="1.0" encoding="UTF-8"?>
<svg id="Layer_1" xmlns="http://www.w3.org/2000/svg" xmlns:xlink="http://www.w3.org/1999/xlink" version="1.1" viewBox="0 0 40 40">
  <!-- Generator: Adobe Illustrator 29.4.0, SVG Export Plug-In . SVG Version: 2.1.0 Build 152)  -->
  <defs>
    <style>
      .st0 {
        fill: url(#linear-gradient1);
      }

      .st1 {
        fill: url(#linear-gradient);
      }

      .st2 {
        fill: #fff;
      }
    </style>
    <linearGradient id="linear-gradient" x1="11.34" y1="34.23" x2="26.34" y2="12.23" gradientTransform="translate(0 42) scale(1 -1)" gradientUnits="userSpaceOnUse">
      <stop offset="0" stop-color="#0c50d3"/>
      <stop offset=".55" stop-color="#381e96"/>
    </linearGradient>
    <linearGradient id="linear-gradient1" x1="21.42" y1="22.42" x2="22.92" y2="11.42" gradientTransform="translate(0 42) scale(1 -1)" gradientUnits="userSpaceOnUse">
      <stop offset="0" stop-color="#7a4da2" stop-opacity=".7"/>
      <stop offset="1" stop-color="#5da3ff"/>
    </linearGradient>
  </defs>
  <rect class="st2" width="40" height="40"/>
  <path class="st1" d="M10.5,9.21v7.72c0,.34.21.64.53.75l6.37,2.25c.78.28,1.6-.3,1.6-1.13v-3.69c0-.55.53-.93,1.05-.76l2.08.69c.82.27,1.37,1.04,1.37,1.9v7.76c0,1.08-.69,2.03-1.71,2.37l-1.87.62c-.45.15-.92-.19-.92-.66v-5.53l-2.89,1.24c-.37.16-.61.52-.61.92v7.59c0,.84.84,1.42,1.63,1.12l9.32-3.58c1.24-.48,2.05-1.66,2.05-2.99v-9.7c0-1.26-.79-2.39-1.98-2.82l-14.41-5.2c-.78-.28-1.61.3-1.61,1.13Z"/>
  <path class="st0" d="M28.5,25.94v-9.94c0,.91-.54,1.73-1.38,2.08l-11.01,4.66c-.37.16-.61.52-.61.92v7.88c0,.7.7,1.19,1.36.93l9.72-3.74c1.16-.45,1.92-1.56,1.92-2.8Z"/>
</svg>