<svg xmlns="http://www.w3.org/2000/svg" id="Layer_1" version="1.1" viewBox="0 0 40 40"><defs><style>.st0{fill:#264759}.st1{fill:#e2c06b}.st2{fill:#e7f2f5}.st3{fill:#b5d5e0}.st4{fill:#36677d}</style></defs><rect width="40" height="40" class="st0"/><path d="M15.314,22.676c-.133-.126-.307-.197-.49-.192-.983.029-2.114-.954-2.657-1.445-.091-.083-.231.016-.186.131.19.493.663,1.343,1.816,2.107.54.357,1.237.522,1.996.62.222.029.441.05.656.063.12.007.179-.149.083-.224-.414-.326-.821-.68-1.219-1.058v-.004l.002.002Z" class="st1"/><path d="M29.786,19.379c.07.185.344.151.368-.045.147-1.189-.472-2.571-1.228-3.445-.758-.873-1.877-1.477-3.064-1.474-1.235.005-2.32.642-3.174,1.497-.434.436-.802.932-1.16,1.431-.66.923-.92,1.076-.507,1.551l.371.43c.208.242.411.364.669.177.597-.427,1.361-.915,1.99-1.289.701-.414,1.469-.81,2.295-.879.809-.066,1.657.14,2.317.604.504.355.916.85,1.121,1.438l.004.002Z" class="st3"/><path d="M19.01,24.787c5.347,3.87,13.366,2.535,13.968-4.628.194-2.292-.877-5.232-3.986-6.611-1.734-.769-3.67-.769-5.134.264-.222.158-.043.504.213.407,1.418-.549,3.222-.418,4.671.828,1.818,1.564,2.654,4.563.995,6.543-.547.653-1.304,1.133-2.154,1.253-1.51.213-3.043-.301-4.3-1.115-.681-.439-1.3-.974-1.84-1.581-.647-.728-1.262-1.486-1.831-2.277-.956-1.334-1.772-2.679-3.167-3.608-1.144-.76-2.508-1.198-3.887-1.112-1.381.086-2.778.757-3.826,1.739-1.892,1.775-2.231,4.752-1.04,7.065.857,1.668,2.335,2.864,4,3.649.307.147.506-.206.316-.38-1.573-1.433-3.029-3.699-2.514-5.544.31-1.13.925-1.587,1.888-1.576.717.003,1.666.852,2.125,1.469.169.226.337.45.513.671,1.25,1.569,2.433,2.783,4.988,4.542v.004Z" class="st2"/><path d="M18.095,24.728c-.061-.04-.129-.063-.203-.065-.384-.007-1.216-.009-1.773-.072-2.982-.26-5.75-2.959-4.908-5.781.036-.12-.074-.233-.195-.204-1.042.262-1.357,1.664-1.002,2.862.004.011.007.023.011.034,1.357,3.683,5.724,6.373,8.976,4.493.034-.02.063-.043.09-.072,0,0,0-.002.004-.004.154-.169.125-.436-.065-.563l-.934-.629Z" class="st3"/><path d="M13.262,20.189c-.855-1.076-1.625-1.633-1.625-.342,0,.23.125.445.328.567.805.486,1.549,1.264,2.408,1.488.147.038.255-.133.152-.24-.43-.454-.832-.929-1.266-1.469v-.004h.002Z" class="st4"/><path d="M24.961,22.068c-.221-.09-.276-.375-.106-.542.506-.495,1.022-.983,1.565-1.438.294-.246.613-.475.943-.678.328-.203.694-.371,1.04-.561.206-.113.454-.052.594.133.307.409.741,1.164.533,1.956-.31,1.176-2.005,1.438-2.005,1.438,0,0-1.327.195-2.562-.308h-.002Z" class="st4"/><path d="M27.959,18.536c.246-.111.231-.472-.027-.55-.545-.169-1.399-.409-2.656.145-1.354.597-2.372,1.402-2.851,1.75-.14.102-.163.303-.05.432.253.289.755.775,1.538,1.151.124.059.271.029.357-.077.464-.561,2.406-2.268,3.687-2.851h.002Z" class="st1"/></svg>