<svg xmlns="http://www.w3.org/2000/svg" xmlns:xlink="http://www.w3.org/1999/xlink" id="Layer_1" x="0" y="0" version="1.1" viewBox="0 0 40 40" style="enable-background:new 0 0 40 40" xml:space="preserve"><style type="text/css">.st0{fill:#28495c}.st1{fill:#fff}</style><rect width="40" height="40" class="st0"/><path d="M23.658,17.08c-0.37,0-0.68-0.249-0.778-0.588h2.051l0.283-0.44h-2.335c0.097-0.342,0.407-0.588,0.778-0.588	h1.408l0.281-0.44h-1.722c-0.689,0-1.247,0.559-1.247,1.25c0,0.692,0.558,1.247,1.247,1.247h1.483l0.281-0.439h-1.73V17.08z M17.784,17.52h1.483l0.281-0.439h-1.729c-0.449,0-0.811-0.363-0.811-0.808c0-0.445,0.361-0.808,0.811-0.808h1.407l0.286-0.442	h-1.725c-0.69,0-1.25,0.559-1.25,1.25c0,0.692,0.56,1.247,1.25,1.247 M8.67,17.08H7.282c-0.447,0-0.808-0.363-0.808-0.808	c0-0.445,0.361-0.808,0.808-0.808h1.386c0.447,0,0.811,0.361,0.811,0.808c0,0.447-0.361,0.808-0.811,0.808 M7.251,17.52h1.452	c0.69,0,1.246-0.558,1.246-1.247c0-0.689-0.557-1.249-1.249-1.249H7.25c-0.692,0-1.25,0.557-1.25,1.25	c0,0.693,0.559,1.247,1.25,1.247L7.251,17.52z M12.305,16.712c0.469,0,0.844-0.378,0.844-0.844c0-0.466-0.377-0.844-0.845-0.844	h-2.101v2.497h0.48v-2.055h1.589c0.224,0,0.405,0.181,0.405,0.403s-0.181,0.406-0.405,0.406h-1.352l1.435,1.247h0.696l-0.962-0.808	h0.218 M20.245,15.024h-0.48v2.259c0,0.062,0.027,0.122,0.071,0.165c0.045,0.048,0.109,0.073,0.174,0.073h2.188l0.286-0.439h-2.238	V15.024z M14.368,16.641h1.279l-0.676-1.09l-1.242,1.971h-0.567l1.513-2.367C14.741,15.057,14.853,15,14.973,15	c0.12,0,0.227,0.056,0.293,0.15l1.516,2.371h-0.566l-0.266-0.439h-1.298l-0.283-0.44L14.368,16.641z" class="st1"/><path d="M9.544,23.759l-2.812-4.172L6.72,19.569H6v5.506h0.769v-4.19l2.812,4.172l0.013,0.018h0.718v-5.506H9.544	V23.759z" class="st1"/><path d="M16.787,24.434c-0.053,0.006-0.111,0.007-0.168,0.007c-0.344,0-0.511-0.196-0.511-0.601v-2.108h0.843v-0.634	h-0.843v-1.074h-0.476l-0.27,1.068l-0.678,0.225v0.413h0.672v2.115c0,0.427,0.094,0.748,0.278,0.953	c0.192,0.207,0.489,0.311,0.881,0.311c0.08,0,0.157-0.003,0.227-0.007c0.076-0.006,0.15-0.015,0.223-0.031l0.032-0.007v-0.661	l-0.045,0.004c-0.05,0.006-0.106,0.013-0.164,0.022L16.787,24.434z" class="st1"/><path d="M24.635,23.668c-0.102,0.258-0.255,0.468-0.455,0.624c-0.196,0.153-0.407,0.231-0.631,0.231	c-0.264,0-0.467-0.085-0.602-0.253c-0.137-0.171-0.207-0.421-0.207-0.743v-2.429h-0.753v2.451c0,0.515,0.122,0.915,0.361,1.191	c0.246,0.276,0.595,0.417,1.037,0.417c0.288,0,0.559-0.067,0.802-0.199c0.22-0.116,0.409-0.28,0.563-0.484l0.108,0.602h0.531v-3.976	h-0.753v2.57V23.668z" class="st1"/><path d="M26.116,21.438l0.388,0.246v3.391h0.753v-3.976h-1.141V21.438z" class="st1"/><path d="M27.25,19.809h-0.903v0.686h0.903V19.809z" class="st1"/><path d="M29.933,24.434c-0.053,0.006-0.111,0.007-0.168,0.007c-0.344,0-0.511-0.196-0.511-0.601v-2.108h0.843v-0.634	h-0.843v-1.074h-0.476l-0.27,1.068l-0.679,0.225v0.413h0.672v2.115c0,0.427,0.094,0.748,0.28,0.953	c0.192,0.207,0.489,0.311,0.881,0.311c0.08,0,0.157-0.003,0.227-0.007c0.076-0.006,0.15-0.015,0.223-0.031l0.032-0.007v-0.661	l-0.045,0.004c-0.05,0.006-0.106,0.013-0.164,0.022L29.933,24.434z" class="st1"/><path d="M34,22.856c0-1.221-0.561-1.839-1.667-1.839c-0.571,0-1.018,0.175-1.329,0.521	c-0.312,0.354-0.458,0.834-0.458,1.512c0,0.677,0.161,1.212,0.48,1.572c0.325,0.356,0.806,0.536,1.432,0.536	c0.274,0,0.53-0.025,0.763-0.076c0.238-0.05,0.43-0.12,0.573-0.207l0.02-0.013v-0.654l-0.057,0.027	c-0.204,0.092-0.407,0.162-0.603,0.206s-0.406,0.066-0.626,0.066c-0.391,0-0.687-0.097-0.882-0.287	c-0.189-0.189-0.302-0.49-0.336-0.893H34v-0.473V22.856z M31.309,22.717c0.024-0.34,0.12-0.603,0.284-0.782	c0.175-0.189,0.424-0.286,0.739-0.286c0.334,0,0.574,0.085,0.715,0.255c0.141,0.165,0.216,0.438,0.221,0.813H31.309z" class="st1"/><path d="M12.747,21.017c-0.571,0-1.018,0.175-1.328,0.521c-0.312,0.354-0.458,0.834-0.458,1.512	c0,0.677,0.161,1.212,0.482,1.572c0.325,0.356,0.806,0.536,1.432,0.536c0.274,0,0.531-0.025,0.763-0.076	c0.238-0.05,0.43-0.12,0.573-0.207l0.02-0.013v-0.654l-0.057,0.027c-0.204,0.092-0.407,0.162-0.603,0.206	c-0.196,0.043-0.406,0.066-0.626,0.066c-0.391,0-0.687-0.097-0.882-0.287c-0.189-0.189-0.302-0.49-0.336-0.893h2.691v-0.473	c0-1.221-0.561-1.839-1.667-1.839L12.747,21.017z M11.724,22.717c0.024-0.34,0.12-0.603,0.284-0.782	c0.175-0.189,0.424-0.286,0.739-0.286c0.335,0,0.574,0.085,0.715,0.255c0.141,0.165,0.215,0.438,0.221,0.813H11.724z" class="st1"/><path d="M21.083,22.687c-0.211-0.248-0.574-0.472-1.075-0.668l-0.574-0.224c-0.357-0.143-0.609-0.277-0.749-0.403	c-0.137-0.122-0.203-0.266-0.203-0.44c0-0.529,0.385-0.787,1.176-0.787c0.42,0,0.886,0.109,1.386,0.325l0.057,0.025v-0.698	l-0.021-0.011c-0.186-0.101-0.413-0.181-0.675-0.235c-0.26-0.06-0.517-0.091-0.763-0.091c-0.594,0-1.068,0.133-1.412,0.396	c-0.347,0.266-0.524,0.633-0.524,1.092c0,0.322,0.109,0.608,0.325,0.848c0.217,0.232,0.574,0.447,1.06,0.637l0.575,0.224	c0.371,0.143,0.63,0.283,0.77,0.417c0.136,0.13,0.204,0.298,0.204,0.5c0,0.277-0.112,0.489-0.34,0.645	c-0.225,0.158-0.547,0.239-0.953,0.239c-0.49,0-1.012-0.112-1.551-0.333l-0.056-0.022v0.698l0.022,0.011	c0.127,0.062,0.283,0.118,0.462,0.167c0.181,0.05,0.375,0.091,0.58,0.12c0.209,0.029,0.412,0.045,0.602,0.045	c0.628,0,1.124-0.139,1.473-0.412c0.357-0.28,0.538-0.676,0.538-1.174c0-0.347-0.112-0.647-0.33-0.892H21.083z" class="st1"/></svg>