<?xml version="1.0" encoding="UTF-8"?>
<svg id="Layer_1" xmlns="http://www.w3.org/2000/svg" version="1.1" viewBox="0 0 40 40">
  <!-- Generator: Adobe Illustrator 29.4.0, SVG Export Plug-In . SVG Version: 2.1.0 Build 152)  -->
  <defs>
    <style>
      .st0 {
        fill: #e30124;
      }

      .st1 {
        fill: #fff;
      }
    </style>
  </defs>
  <rect class="st1" width="40" height="40"/>
  <path class="st0" d="M17.71,20.87h2.24l-1.18-1.91-2.18,3.45h-.99l2.65-4.14c.06-.08.13-.15.22-.2.09-.05.19-.07.29-.07.1,0,.2.02.29.07.09.05.17.11.23.19l2.66,4.15h-.99l-.47-.77h-2.27l-.49-.77M28,21.64v-3.6h-.84v3.95c0,.06.01.11.03.16s.05.1.09.13c.04.04.09.07.14.1.05.02.11.03.17.03h3.83l.5-.77h-3.92M14.09,21c.39,0,.77-.16,1.05-.43.28-.28.43-.65.43-1.05s-.16-.77-.43-1.05c-.28-.28-.65-.43-1.05-.43h-3.68v4.37h.84v-3.6h2.79c.19,0,.37.07.5.21.13.13.21.31.21.5s-.07.37-.21.5c-.13.13-.31.21-.5.21h-2.37l2.51,2.18h1.22l-1.69-1.42h.38ZM5.24,22.41h2.54c.57-.01,1.11-.25,1.51-.66.4-.41.62-.96.62-1.53s-.22-1.12-.62-1.53c-.4-.41-.94-.65-1.51-.66h-2.54c-.29,0-.58.04-.85.15-.27.11-.52.27-.73.47-.21.2-.38.45-.49.72-.11.27-.17.56-.17.85s.06.58.17.85c.11.27.28.51.49.72.21.2.46.36.73.47.27.11.56.16.85.15ZM7.73,21.65h-2.43c-.37-.01-.72-.17-.97-.43-.26-.26-.4-.62-.4-.98s.14-.72.4-.98.6-.42.97-.43h2.43c.19,0,.38.03.56.09.18.07.34.17.47.3.14.13.24.29.32.46.07.17.11.36.11.55s-.04.38-.11.55c-.07.17-.18.33-.32.46s-.3.24-.47.3c-.18.07-.37.1-.56.09ZM23.69,22.41h2.59l.49-.77h-3.03c-.19,0-.38-.03-.56-.09-.18-.07-.34-.17-.47-.3-.14-.13-.24-.29-.32-.46s-.11-.36-.11-.55.04-.38.11-.55c.07-.17.18-.33.32-.46.14-.13.3-.24.47-.3.18-.07.37-.1.56-.09h2.46l.5-.77h-3.02c-.29,0-.58.04-.85.15-.27.11-.52.27-.73.47-.21.2-.38.45-.49.72-.11.27-.17.56-.17.85s.06.58.17.85c.11.27.28.51.49.72.21.2.46.36.73.47.27.11.56.16.85.15ZM33.97,21.65c-.31,0-.61-.1-.85-.29-.25-.19-.42-.45-.51-.74h3.59l.49-.77h-4.09c.08-.3.26-.56.51-.74.25-.19.55-.29.85-.29h2.47l.49-.77h-3.02c-.57.01-1.11.25-1.51.66-.4.41-.62.96-.62,1.53s.22,1.12.62,1.53c.4.41.94.65,1.51.66h2.59l.49-.77h-3.03"/>
</svg>