<?xml version="1.0" encoding="utf-8"?>
<!-- Generator: Adobe Illustrator 28.3.0, SVG Export Plug-In . SVG Version: 6.00 Build 0)  -->
<svg version="1.1" id="Layer_1" xmlns="http://www.w3.org/2000/svg" xmlns:xlink="http://www.w3.org/1999/xlink" x="0px" y="0px"
	 viewBox="0 0 40 40" style="enable-background:new 0 0 40 40;" xml:space="preserve">
<style type="text/css">
	.st0{fill:#2CA01C;}
	.st1{fill:#FFFFFF;}
</style>
<rect class="st0" width="40" height="40"/>
<path class="st1" d="M13.331,12.22c-4.296,0-7.78,3.484-7.78,7.78s3.477,7.774,7.78,7.774h1.112v-2.886h-1.112
	c-2.697,0-4.888-2.191-4.888-4.888s2.19-4.888,4.888-4.888h2.671v15.112c0,1.592,1.294,2.886,2.886,2.886V12.22H13.331z
	 M26.669,27.774c4.296,0,7.78-3.484,7.78-7.774s-3.477-7.774-7.78-7.774h-1.111v2.886h1.111c2.697,0,4.888,2.191,4.888,4.888
	s-2.191,4.888-4.888,4.888h-2.671V9.776c0-1.592-1.293-2.886-2.886-2.886v20.884H26.669z"/>
</svg>
