<svg xmlns="http://www.w3.org/2000/svg" xml:space="preserve" id="Layer_1" x="0" y="0" viewBox="0 0 40 40"><style>.st0{fill:#2ca01c}.st1{fill:#fff}</style><circle cx="20" cy="20" r="20" class="st0"/><path d="M13.331 12.22c-4.296 0-7.78 3.484-7.78 7.78s3.477 7.774 7.78 7.774h1.112v-2.886h-1.112c-2.697 0-4.888-2.191-4.888-4.888s2.19-4.888 4.888-4.888h2.671v15.112a2.89 2.89 0 0 0 2.886 2.886V12.22zm13.338 15.554c4.296 0 7.78-3.484 7.78-7.774s-3.477-7.774-7.78-7.774h-1.111v2.886h1.111c2.697 0 4.888 2.191 4.888 4.888s-2.191 4.888-4.888 4.888h-2.671V9.776a2.89 2.89 0 0 0-2.886-2.886v20.884z" class="st1"/></svg>