<?xml version="1.0" encoding="UTF-8"?>
<svg id="Layer_1" xmlns="http://www.w3.org/2000/svg" version="1.1" viewBox="0 0 40 40">
  <!-- Generator: Adobe Illustrator 30.5.1, SVG Export Plug-In . SVG Version: 2.1.4 Build 3)  -->
  <rect width="40" height="40" fill="#250157"/>
  <path d="M13.86,13.87c1.2,0,2.29-.08,3.43.41,1.94.83,2.56,3.16,1.73,5.01-.43.96-1.17,1.48-2.15,1.84.21.33.54,1.05.73,1.42.65,1.24,1.25,2.52,1.89,3.76h-2.2s-.1-.21-.1-.21c-.6-1.29-1.26-2.57-1.86-3.86-.13-.27-.3-.57-.4-.85h-2.05c-.02,1.63,0,3.29,0,4.92h-1.88c.02-1,0-2.08,0-3.09v-6.15c0-1.01-.03-2.2,0-3.2h2.84ZM23.67,17.49c.63,0,1.36-.05,1.94.19.75.31.98,1.07.99,1.82,0,.51,0,1.03,0,1.55v3.6c.91.02,1.85,0,2.77,0,0,.54,0,1.09,0,1.64h-2.76s-4.67,0-4.67,0v-1.64c.88-.03,1.88,0,2.77,0v-3.47s0-.98,0-.98c0-.2,0-.41,0-.61-.05-.51-.47-.48-.86-.48-.15,0-.31,0-.46,0h-1.18v-1.63s1.47,0,1.47,0ZM12.89,15.55v4.12s1.42,0,1.42,0c.9,0,1.83.06,2.54-.59.45-.47.59-.91.58-1.57-.01-.54-.18-1.02-.58-1.4-.66-.62-1.72-.57-2.58-.57h-1.38ZM25.27,13.35c.78-.12,1.52.42,1.63,1.2.12.78-.42,1.51-1.21,1.63-.78.11-1.5-.42-1.62-1.2-.12-.78.42-1.51,1.2-1.63Z" fill="#fefefe"/>
</svg>