<svg xmlns="http://www.w3.org/2000/svg" viewBox="0 0 40 40"><path fill="#250157" d="M0 0h40v40H0z"/><path fill="#fefefe" d="M13.86 13.87c1.2 0 2.29-.08 3.43.41 1.94.83 2.56 3.16 1.73 5.01-.43.96-1.17 1.48-2.15 1.84.21.33.54 1.05.73 1.42.65 1.24 1.25 2.52 1.89 3.76h-2.2l-.1-.21c-.6-1.29-1.26-2.57-1.86-3.86-.13-.27-.3-.57-.4-.85h-2.05c-.02 1.63 0 3.29 0 4.92H11c.02-1 0-2.08 0-3.09v-6.15c0-1.01-.03-2.2 0-3.2h2.84Zm9.81 3.62c.63 0 1.36-.05 1.94.19.75.31.98 1.07.99 1.82v5.15c.91.02 1.85 0 2.77 0v1.64h-7.43v-1.64c.88-.03 1.88 0 2.77 0v-5.06c-.05-.51-.47-.48-.86-.48h-1.64v-1.63h1.47Zm-10.78-1.94v4.12h1.42c.9 0 1.83.06 2.54-.59.45-.47.59-.91.58-1.57-.01-.54-.18-1.02-.58-1.4-.66-.62-1.72-.57-2.58-.57h-1.38Zm12.38-2.2c.78-.12 1.52.42 1.63 1.2a1.43 1.43 0 1 1-1.63-1.2"/></svg>