<svg xmlns="http://www.w3.org/2000/svg" id="Layer_1" viewBox="0 0 40 40"><defs><linearGradient id="linear-gradient" x1="18.5" x2="18.5" y1="31" y2="13.2" gradientTransform="matrix(1 0 0 -1 0 42)" gradientUnits="userSpaceOnUse"><stop offset="0" stop-color="#0ae"/><stop offset="1" stop-color="#05a"/></linearGradient><style>.st0{fill:url(#linear-gradient)}.st1{fill:#fff}</style></defs><path d="M0 0h40v40H0z" class="st1"/><path d="M37 11H0v17.8h19.2" class="st0"/><path d="M18.8 14.5v8.4l-3.1-8.4h-3.1l-2.6 7c-.3-1.7-2.1-2.4-3.6-2.8-.9-.3-2-.7-2-1.3s.6-.8 1.6-.7c.7 0 1.3 0 2.6.7l1.3-2.1c-1.2-.6-2.8-.9-4-.9s-2.8.5-3.6 1.3c-.6.6-.8 1.3-.9 2.1 0 1.1.4 1.9 1.3 2.5.7.5 1.6.8 2.4 1 1 .3 1.8.6 1.8 1.2 0 .7-.9.9-1.4.9-.9 0-1.7 0-2.9-.8l-1.1 2.1c1.2.7 2.5 1 4 1s2.6-.3 3.5-1.1l-.2.7h3l.6-1.3c1.2.3 2.5.4 3.7 0l.4 1.3h5.4v-3.2H23c2.8 0 4.4-1.3 4.4-3.7s-1.6-3.8-5-3.8h-3.6Zm-5.8 7 1.1-3.6 1.1 3.6c-.8.2-1.6.2-2.3 0Zm8.8-1.8v-2.8h.8c1 0 1.8.3 1.8 1.3s-.8 1.5-1.8 1.5z" class="st1"/></svg>