<?xml version="1.0" encoding="utf-8"?>
<!-- Generator: Adobe Illustrator 28.1.0, SVG Export Plug-In . SVG Version: 6.00 Build 0)  -->
<svg version="1.1" id="Layer_1" xmlns="http://www.w3.org/2000/svg" xmlns:xlink="http://www.w3.org/1999/xlink" x="0px" y="0px"
     viewBox="0 0 40 40" style="enable-background:new 0 0 40 40;" xml:space="preserve">
<style type="text/css">
	.st0{fill:#010202;}
	.st1{fill:#FFFFFF;}
</style>
    <rect class="st0" width="40" height="40"/>
    <path class="st1" d="M4.896,17.719c0,0.176,0.027,0.336,0.08,0.485c0.053,0.144,0.128,0.267,0.224,0.373
	c0.096,0.101,0.208,0.176,0.341,0.235c0.133,0.053,0.277,0.08,0.432,0.08c0.149,0,0.293-0.027,0.421-0.08
	c0.133-0.059,0.251-0.139,0.347-0.24c0.101-0.107,0.176-0.229,0.235-0.373c0.053-0.144,0.08-0.304,0.08-0.48v-2.714h0.661v4.399
	H7.061v-0.411c-0.149,0.155-0.32,0.272-0.523,0.357c-0.197,0.085-0.411,0.128-0.64,0.128c-0.235,0-0.453-0.037-0.661-0.117
	c-0.203-0.085-0.379-0.203-0.528-0.352c-0.149-0.149-0.267-0.331-0.352-0.539c-0.085-0.213-0.128-0.448-0.128-0.709v-2.751h0.661
	v2.709H4.896z M8.207,15h0.64v1.605c0.149-0.149,0.315-0.261,0.512-0.347c0.192-0.091,0.4-0.133,0.629-0.133
	c0.235,0,0.453,0.043,0.661,0.133c0.208,0.091,0.384,0.208,0.533,0.357c0.149,0.149,0.272,0.331,0.357,0.533
	c0.091,0.208,0.133,0.421,0.133,0.656c0,0.235-0.043,0.448-0.133,0.656c-0.091,0.203-0.208,0.379-0.357,0.528
	c-0.149,0.149-0.331,0.272-0.533,0.357c-0.208,0.091-0.427,0.133-0.661,0.133c-0.224,0-0.437-0.043-0.635-0.128
	c-0.192-0.091-0.363-0.208-0.512-0.352v0.4H8.207V15z M8.831,17.805c0,0.155,0.027,0.299,0.08,0.432
	c0.059,0.133,0.139,0.251,0.24,0.352c0.101,0.101,0.219,0.181,0.352,0.24c0.133,0.059,0.277,0.091,0.432,0.091
	c0.149,0,0.293-0.032,0.427-0.091c0.133-0.059,0.251-0.139,0.347-0.24c0.101-0.101,0.181-0.219,0.24-0.352
	c0.059-0.133,0.091-0.277,0.091-0.432c0-0.155-0.032-0.299-0.091-0.432c-0.059-0.139-0.139-0.256-0.24-0.357
	c-0.096-0.101-0.213-0.176-0.347-0.235c-0.133-0.059-0.277-0.091-0.427-0.091c-0.149,0-0.293,0.032-0.427,0.091
	c-0.133,0.053-0.251,0.133-0.352,0.235c-0.101,0.101-0.181,0.219-0.24,0.357C8.863,17.506,8.831,17.65,8.831,17.805z M11.887,17.799
	c0-0.224,0.043-0.443,0.128-0.64c0.085-0.203,0.197-0.379,0.347-0.528c0.149-0.155,0.32-0.277,0.523-0.363
	c0.203-0.091,0.421-0.133,0.656-0.133c0.229,0,0.443,0.043,0.64,0.128s0.368,0.203,0.512,0.352c0.144,0.149,0.256,0.325,0.331,0.528
	c0.08,0.203,0.117,0.421,0.117,0.661v0.208h-2.613c0.021,0.128,0.064,0.251,0.128,0.363c0.064,0.107,0.139,0.208,0.235,0.288
	c0.096,0.08,0.203,0.144,0.32,0.187c0.123,0.048,0.251,0.069,0.384,0.069c0.384,0,0.688-0.155,0.923-0.469l0.459,0.341
	c-0.16,0.213-0.357,0.384-0.592,0.501c-0.235,0.123-0.501,0.181-0.795,0.181c-0.24,0-0.464-0.043-0.672-0.128
	c-0.208-0.085-0.384-0.203-0.538-0.352c-0.149-0.149-0.272-0.325-0.357-0.528C11.929,18.264,11.887,18.039,11.887,17.799z
	 M13.524,16.685c-0.24,0-0.448,0.075-0.629,0.224c-0.176,0.149-0.293,0.341-0.352,0.592H14.5c-0.053-0.245-0.171-0.443-0.352-0.592
	C13.966,16.765,13.758,16.685,13.524,16.685z M16.83,16.765c-0.208,0-0.384,0.075-0.517,0.219c-0.133,0.149-0.203,0.347-0.203,0.597
	v1.824h-0.629V16.2h0.629v0.395c0.08-0.128,0.181-0.235,0.309-0.309c0.128-0.075,0.283-0.112,0.459-0.112h0.219v0.592H16.83z
	 M4,22.364h0.619v-0.619c0-0.219,0.064-0.395,0.197-0.533c0.133-0.144,0.325-0.213,0.576-0.213H5.93v0.56H5.498
	c-0.075,0-0.139,0.021-0.181,0.069c-0.043,0.043-0.064,0.107-0.064,0.197v0.539H5.93v0.555H5.253v2.645H4.619v-2.645H4V22.364z
	 M9.423,23.964c0,0.229-0.048,0.448-0.139,0.656c-0.091,0.203-0.208,0.379-0.363,0.533c-0.155,0.149-0.336,0.272-0.549,0.357
	c-0.208,0.091-0.432,0.133-0.672,0.133c-0.24,0-0.464-0.043-0.672-0.133C6.821,25.42,6.64,25.302,6.48,25.153
	c-0.155-0.155-0.277-0.331-0.373-0.533c-0.091-0.208-0.133-0.421-0.133-0.656c0-0.229,0.043-0.448,0.133-0.645
	c0.091-0.208,0.213-0.384,0.373-0.533c0.155-0.149,0.336-0.272,0.549-0.357c0.208-0.091,0.432-0.133,0.672-0.133
	c0.24,0,0.464,0.043,0.672,0.133c0.208,0.091,0.389,0.208,0.549,0.357c0.155,0.149,0.277,0.331,0.363,0.533
	C9.38,23.516,9.423,23.729,9.423,23.964z M8.789,23.964c0-0.155-0.032-0.299-0.091-0.432c-0.053-0.133-0.133-0.251-0.235-0.352
	c-0.096-0.101-0.213-0.176-0.347-0.235c-0.128-0.059-0.272-0.091-0.421-0.091c-0.149,0-0.293,0.032-0.427,0.091
	c-0.128,0.053-0.245,0.133-0.347,0.235c-0.096,0.101-0.176,0.219-0.235,0.352c-0.053,0.133-0.08,0.277-0.08,0.432
	c0,0.155,0.027,0.304,0.08,0.443c0.059,0.133,0.139,0.251,0.235,0.352c0.101,0.101,0.213,0.181,0.347,0.24
	c0.133,0.053,0.277,0.08,0.427,0.08c0.149,0,0.293-0.027,0.421-0.08c0.133-0.059,0.251-0.139,0.347-0.24
	c0.101-0.101,0.176-0.219,0.235-0.352C8.762,24.263,8.789,24.118,8.789,23.964z M11.199,22.924c-0.208,0-0.384,0.075-0.517,0.219
	c-0.133,0.149-0.203,0.347-0.203,0.597v1.824H9.844v-3.205h0.629v0.395c0.08-0.128,0.181-0.235,0.309-0.309
	c0.128-0.075,0.283-0.112,0.459-0.112h0.219v0.592H11.199z M13.023,21.164h1.61c0.181,0,0.347,0.032,0.501,0.096
	c0.16,0.059,0.293,0.139,0.411,0.245c0.117,0.101,0.208,0.224,0.272,0.363c0.069,0.139,0.101,0.288,0.101,0.448
	c0,0.187-0.048,0.363-0.149,0.523c-0.096,0.155-0.224,0.283-0.389,0.379c0.251,0.085,0.453,0.224,0.603,0.427
	c0.155,0.197,0.235,0.421,0.235,0.677c0,0.171-0.032,0.331-0.101,0.485c-0.069,0.149-0.16,0.283-0.283,0.395
	c-0.117,0.112-0.256,0.203-0.421,0.272c-0.16,0.064-0.331,0.096-0.523,0.096h-1.866V21.164z M13.678,21.724v1.291h0.901
	c0.096,0,0.187-0.016,0.267-0.048c0.085-0.032,0.155-0.08,0.213-0.139c0.059-0.059,0.107-0.128,0.139-0.203
	c0.032-0.08,0.048-0.165,0.048-0.251c0-0.187-0.064-0.336-0.187-0.459c-0.123-0.128-0.283-0.187-0.48-0.187h-0.901V21.724z
	 M14.793,25.004c0.224,0,0.4-0.069,0.538-0.208c0.139-0.144,0.208-0.315,0.208-0.523c0-0.101-0.021-0.192-0.059-0.277
	c-0.037-0.091-0.091-0.165-0.155-0.224c-0.064-0.069-0.139-0.117-0.235-0.155c-0.091-0.037-0.192-0.059-0.304-0.059h-1.109v1.445
	H14.793z M16.643,22.359h0.635v1.93c0,0.112,0.016,0.219,0.048,0.315c0.037,0.091,0.091,0.176,0.155,0.245
	c0.069,0.069,0.149,0.123,0.24,0.165c0.091,0.037,0.197,0.059,0.309,0.059c0.229,0,0.421-0.075,0.565-0.219
	c0.149-0.149,0.219-0.347,0.219-0.587v-1.904h0.635v3.205h-0.629v-0.357c-0.107,0.133-0.245,0.24-0.411,0.315
	c-0.165,0.069-0.341,0.107-0.533,0.107c-0.187,0-0.352-0.032-0.501-0.096c-0.149-0.064-0.283-0.149-0.389-0.256
	c-0.107-0.107-0.192-0.235-0.251-0.384c-0.059-0.149-0.091-0.315-0.091-0.485V22.359z M21.197,25.633
	c-0.197,0-0.373-0.027-0.533-0.08c-0.16-0.053-0.299-0.128-0.421-0.219c-0.117-0.096-0.213-0.208-0.288-0.341
	c-0.075-0.128-0.128-0.272-0.155-0.421h0.608c0.037,0.187,0.128,0.325,0.272,0.416c0.144,0.091,0.315,0.139,0.517,0.139
	c0.176,0,0.315-0.037,0.411-0.112c0.101-0.075,0.149-0.176,0.149-0.293c0-0.197-0.149-0.336-0.443-0.416l-0.592-0.144
	c-0.576-0.149-0.869-0.448-0.869-0.906c0-0.149,0.027-0.277,0.08-0.395c0.059-0.117,0.139-0.219,0.235-0.304
	c0.101-0.085,0.219-0.149,0.352-0.197c0.139-0.048,0.288-0.069,0.453-0.069c0.187,0,0.357,0.027,0.512,0.08
	c0.155,0.053,0.288,0.128,0.4,0.224c0.112,0.091,0.208,0.203,0.277,0.331s0.117,0.272,0.139,0.421h-0.608
	c-0.037-0.187-0.128-0.325-0.272-0.416c-0.139-0.091-0.288-0.139-0.453-0.139c-0.155,0-0.277,0.037-0.363,0.112
	c-0.085,0.069-0.128,0.165-0.128,0.277c0,0.203,0.155,0.341,0.458,0.416l0.555,0.144c0.592,0.149,0.885,0.459,0.885,0.917
	c0,0.139-0.027,0.267-0.08,0.384c-0.053,0.117-0.133,0.219-0.24,0.309c-0.101,0.091-0.224,0.155-0.373,0.208
	C21.538,25.612,21.378,25.633,21.197,25.633z M23.063,21.911c-0.107,0-0.203-0.037-0.277-0.107
	c-0.069-0.075-0.107-0.165-0.107-0.277c0-0.107,0.037-0.192,0.107-0.267c0.075-0.075,0.165-0.112,0.277-0.112
	c0.107,0,0.192,0.037,0.267,0.112c0.069,0.069,0.107,0.16,0.107,0.267c0,0.107-0.037,0.203-0.107,0.277
	C23.256,21.879,23.165,21.911,23.063,21.911z M23.378,25.564h-0.635v-3.205h0.635V25.564z M26.727,25.564h-0.635v-1.925
	c0-0.235-0.069-0.421-0.208-0.565c-0.139-0.144-0.32-0.213-0.549-0.213s-0.421,0.075-0.565,0.219
	c-0.149,0.149-0.219,0.341-0.219,0.576v1.904h-0.635v-3.205h0.635v0.352c0.112-0.133,0.251-0.235,0.411-0.309
	c0.165-0.075,0.341-0.112,0.533-0.112c0.187,0,0.352,0.032,0.501,0.096c0.149,0.064,0.283,0.149,0.389,0.267
	c0.107,0.107,0.192,0.24,0.251,0.389c0.059,0.149,0.091,0.304,0.091,0.48V25.564z M27.148,23.964c0-0.224,0.043-0.443,0.128-0.64
	c0.085-0.203,0.197-0.379,0.347-0.528c0.149-0.155,0.32-0.277,0.523-0.363c0.203-0.091,0.421-0.133,0.656-0.133
	c0.229,0,0.443,0.043,0.64,0.128c0.197,0.085,0.368,0.203,0.512,0.352c0.144,0.149,0.256,0.325,0.331,0.528
	c0.08,0.203,0.117,0.421,0.117,0.661v0.208h-2.608c0.021,0.128,0.064,0.251,0.128,0.363c0.064,0.107,0.139,0.208,0.235,0.288
	s0.203,0.144,0.32,0.187c0.123,0.048,0.251,0.069,0.384,0.069c0.384,0,0.688-0.155,0.923-0.469l0.459,0.341
	c-0.16,0.213-0.357,0.384-0.592,0.501c-0.235,0.123-0.501,0.181-0.795,0.181c-0.24,0-0.464-0.043-0.672-0.128
	c-0.208-0.085-0.384-0.203-0.538-0.352c-0.149-0.149-0.272-0.325-0.357-0.528C27.191,24.422,27.148,24.198,27.148,23.964z
	 M28.785,22.849c-0.24,0-0.448,0.075-0.629,0.224c-0.176,0.149-0.293,0.341-0.352,0.592h1.957c-0.053-0.245-0.171-0.443-0.352-0.592
	C29.228,22.924,29.025,22.849,28.785,22.849z M32.027,25.633c-0.197,0-0.373-0.027-0.533-0.08c-0.16-0.053-0.299-0.128-0.421-0.219
	c-0.117-0.096-0.213-0.208-0.288-0.341c-0.075-0.128-0.128-0.272-0.155-0.421h0.608c0.037,0.187,0.128,0.325,0.272,0.416
	c0.144,0.091,0.315,0.139,0.517,0.139c0.176,0,0.315-0.037,0.411-0.112c0.101-0.075,0.149-0.176,0.149-0.293
	c0-0.197-0.149-0.336-0.443-0.416l-0.592-0.144c-0.576-0.149-0.869-0.448-0.869-0.906c0-0.149,0.027-0.277,0.08-0.395
	c0.059-0.117,0.139-0.219,0.235-0.304c0.101-0.085,0.219-0.149,0.352-0.197c0.139-0.048,0.288-0.069,0.453-0.069
	c0.187,0,0.357,0.027,0.512,0.08c0.155,0.053,0.288,0.128,0.4,0.224c0.112,0.091,0.208,0.203,0.277,0.331
	c0.069,0.128,0.117,0.272,0.139,0.421h-0.608c-0.037-0.187-0.128-0.325-0.272-0.416c-0.139-0.091-0.288-0.139-0.453-0.139
	c-0.155,0-0.277,0.037-0.363,0.112c-0.085,0.069-0.128,0.165-0.128,0.277c0,0.203,0.155,0.341,0.459,0.416l0.555,0.144
	c0.592,0.149,0.885,0.459,0.885,0.917c0,0.139-0.027,0.267-0.08,0.384c-0.053,0.117-0.133,0.219-0.24,0.309
	c-0.101,0.091-0.224,0.155-0.373,0.208C32.369,25.612,32.209,25.633,32.027,25.633z M34.821,25.633c-0.197,0-0.373-0.027-0.533-0.08
	c-0.16-0.053-0.299-0.128-0.421-0.219c-0.117-0.096-0.213-0.208-0.288-0.341c-0.075-0.128-0.128-0.272-0.155-0.421h0.608
	c0.037,0.187,0.128,0.325,0.272,0.416c0.144,0.091,0.315,0.139,0.517,0.139c0.176,0,0.315-0.037,0.411-0.112
	c0.101-0.075,0.149-0.176,0.149-0.293c0-0.197-0.149-0.336-0.443-0.416l-0.592-0.144c-0.576-0.149-0.869-0.448-0.869-0.906
	c0-0.149,0.027-0.277,0.08-0.395c0.059-0.117,0.139-0.219,0.235-0.304c0.101-0.085,0.219-0.149,0.352-0.197
	c0.139-0.048,0.288-0.069,0.453-0.069c0.187,0,0.357,0.027,0.512,0.08c0.155,0.053,0.288,0.128,0.4,0.224
	c0.112,0.091,0.208,0.203,0.277,0.331c0.069,0.128,0.117,0.272,0.139,0.421h-0.608c-0.037-0.187-0.128-0.325-0.272-0.416
	c-0.139-0.091-0.288-0.139-0.453-0.139c-0.155,0-0.277,0.037-0.363,0.112c-0.085,0.069-0.128,0.165-0.128,0.277
	c0,0.203,0.155,0.341,0.459,0.416l0.555,0.144C35.707,23.889,36,24.198,36,24.657c0,0.139-0.027,0.267-0.08,0.384
	c-0.053,0.117-0.133,0.219-0.24,0.309c-0.101,0.091-0.224,0.155-0.373,0.208C35.163,25.612,35.003,25.633,34.821,25.633z"/>
</svg>
