<svg xmlns="http://www.w3.org/2000/svg" xmlns:xlink="http://www.w3.org/1999/xlink" id="Layer_1" x="0" y="0" version="1.1" viewBox="0 0 40 40" style="enable-background:new 0 0 40 40" xml:space="preserve"><style type="text/css">.st0{fill:#1ab4d7}.st1{fill:#fff}</style><circle cx="20" cy="20" r="20" class="st0"/><path d="M9.574,19.942l3.413-3.422c0.113-0.115,0.176-0.268,0.176-0.43c0-0.337-0.274-0.612-0.612-0.612	c-0.164,0-0.319,0.064-0.435,0.182c0,0.001-3.41,3.408-3.41,3.408l-3.425-3.414c-0.116-0.114-0.269-0.177-0.432-0.177	c-0.337,0-0.611,0.274-0.611,0.611c0,0.164,0.066,0.319,0.184,0.435l3.413,3.412l-3.411,3.417c-0.12,0.118-0.185,0.273-0.185,0.438	c0,0.337,0.274,0.611,0.611,0.611c0.163,0,0.316-0.063,0.432-0.179l3.42-3.415l3.407,3.403c0.121,0.125,0.277,0.191,0.443,0.191	c0.337,0,0.611-0.274,0.611-0.612c0-0.163-0.063-0.316-0.178-0.431L9.574,19.942z" class="st1"/><path d="M29.864,19.941c0,0.613,0.498,1.111,1.112,1.111c0.612,0,1.111-0.498,1.111-1.111	c0-0.613-0.498-1.111-1.111-1.111C30.363,18.83,29.864,19.328,29.864,19.941z" class="st1"/><path d="M27.757,19.942c0-1.775,1.444-3.218,3.218-3.218c1.774,0,3.218,1.444,3.218,3.218	c0,1.774-1.444,3.217-3.218,3.217C29.2,23.159,27.757,21.716,27.757,19.942z M26.491,19.942c0,2.472,2.012,4.484,4.484,4.484	c2.473,0,4.485-2.011,4.485-4.484c0-2.473-2.013-4.485-4.485-4.485C28.502,15.457,26.491,17.469,26.491,19.942z" class="st1"/><path d="M26.172,15.534l-0.188,0c-0.565,0-1.11,0.178-1.565,0.529c-0.06-0.274-0.305-0.481-0.597-0.481	c-0.336,0-0.606,0.269-0.606,0.606c0,0.001,0.002,7.553,0.002,7.553c0.001,0.336,0.275,0.61,0.612,0.61	c0.336,0,0.611-0.273,0.611-0.61c0-0.002,0-4.644,0-4.644c0-1.548,0.142-2.173,1.467-2.339c0.122-0.015,0.256-0.013,0.256-0.013	c0.363-0.012,0.621-0.262,0.621-0.599C26.786,15.808,26.51,15.534,26.172,15.534z" class="st1"/><path d="M14.43,19.203c0-0.017,0.001-0.034,0.002-0.051c0.355-1.404,1.626-2.442,3.14-2.442	c1.532,0,2.815,1.064,3.152,2.493H14.43z M21.976,19.088c-0.264-1.248-0.947-2.273-1.987-2.931	c-1.521-0.965-3.528-0.912-4.997,0.132c-1.198,0.852-1.89,2.246-1.89,3.682c0,0.36,0.043,0.724,0.134,1.081	c0.452,1.779,1.982,3.126,3.806,3.35c0.541,0.066,1.068,0.034,1.613-0.107c0.469-0.114,0.922-0.304,1.34-0.572	c0.434-0.279,0.796-0.646,1.147-1.087c0.007-0.008,0.014-0.015,0.021-0.024c0.244-0.302,0.198-0.732-0.069-0.937	c-0.226-0.173-0.605-0.243-0.903,0.139c-0.064,0.091-0.136,0.185-0.214,0.279c-0.237,0.262-0.531,0.516-0.884,0.713	c-0.449,0.24-0.96,0.377-1.503,0.38c-1.779-0.02-2.731-1.261-3.069-2.148c-0.059-0.166-0.105-0.337-0.137-0.514	c-0.004-0.033-0.007-0.065-0.009-0.094c0.368,0,6.383-0.001,6.383-0.001C21.635,20.412,22.106,19.794,21.976,19.088z" class="st1"/></svg>