<?xml version="1.0" encoding="utf-8"?>
<!-- Generator: Adobe Illustrator 26.5.0, SVG Export Plug-In . SVG Version: 6.00 Build 0)  -->
<svg version="1.1" id="Layer_1" xmlns="http://www.w3.org/2000/svg" xmlns:xlink="http://www.w3.org/1999/xlink" x="0px" y="0px"
	 viewBox="0 0 80 80" style="enable-background:new 0 0 80 80;" xml:space="preserve">
<style type="text/css">
 	.st0{fill:none;}
</style>
<g>
		<g>
	
		<path d="M48.9,55.7c1.9,0,3.6-5,3.6-8.1c0-1.8-0.6-2.6-1.4-2.6s-1.3,1.1-1.9,3.4c-0.3,1-0.5,1.9-1.1,2.8
			c-0.6,0.8-4,1.1-6.4,1.1H34c5.2-7.7,11.3-16.3,17.2-24.1c0.5-0.6,0.6-1.1,0.6-1.6c0-0.7-0.5-1.4-1.6-1.4c-1.6,0-3.2,0.1-5.3,0.1
			H34.3c-1.8,0-1.6-0.7-2.7-0.7c-1.8,0-3.3,4.7-3.3,7.8c0,1.6,0.5,2.6,1.3,2.6c0.9,0,1.3-1.1,1.9-3.1c0.3-1.3,0.7-2.1,1.1-2.7
			c0.5-0.8,4-1,6.8-1h5.8c-5.5,7.5-11.9,16.4-16.9,23.9c-0.4,0.6-0.7,1.2-0.7,1.8c0,0.8,0.5,1.4,1.8,1.4c1.6,0,3.1-0.1,5.1-0.1h11.7
			C47.9,55,47.6,55.7,48.9,55.7z"/>
	</g>
</g>
</svg>
