<?xml version="1.0" encoding="utf-8"?>
<!-- Generator: Adobe Illustrator 26.5.0, SVG Export Plug-In . SVG Version: 6.00 Build 0)  -->
<svg version="1.1" id="Layer_1" xmlns="http://www.w3.org/2000/svg" xmlns:xlink="http://www.w3.org/1999/xlink" x="0px" y="0px"
	 viewBox="0 0 80 80" style="enable-background:new 0 0 80 80;" xml:space="preserve">
<style type="text/css">
 	.st0{fill:none;}
</style>
<g>
	<path d="M46.6,25.3h-8h-4.9c-3.7,0-5.7,0.3-5.7,1.5c0,0.9,1,1.2,3.2,1.3c0.5,0.2,0.7,2.2,0.7,4.5v15.3
		c0,2.3-0.1,4.3-0.7,4.5c-2.1,0.1-3.1,0.4-3.1,1.3c0,1.2,2.3,1.6,6.3,1.6c4.5,0,6.8-0.4,6.8-1.6c0-0.9-1-1.2-3.7-1.3
		c-0.5-0.2-0.7-2.3-0.7-4.5v-6.1c3.2,0,7.1,0,7.6,0.8c0,2.4,0.2,3.4,1.1,3.4c1.2,0,1.7-2.5,1.7-5.5c0-2.9-0.5-5.4-1.7-5.4
		c-1,0-1,1-1.1,3.2c-0.6,0.8-4.4,0.8-7.6,0.8V33c0-2.9,0.1-4.7,1-4.9h3.5c3.4,0,6.3,0.3,6.8,0.9c0.4,0.5,0.7,1.2,1,2.3
		c0.6,2.2,1,3.1,1.8,3.1c0.8,0,1.3-0.9,1.3-2.4c0-3-1.6-7.5-3.1-7.5C48.2,24.6,48.4,25.3,46.6,25.3z"/>
</g>
</svg>
