<?xml version="1.0" encoding="utf-8"?>
<!-- Generator: Adobe Illustrator 26.5.0, SVG Export Plug-In . SVG Version: 6.00 Build 0)  -->
<svg version="1.1" id="Layer_1" xmlns="http://www.w3.org/2000/svg" xmlns:xlink="http://www.w3.org/1999/xlink" x="0px" y="0px"
	 viewBox="0 0 80 80" style="enable-background:new 0 0 80 80;" xml:space="preserve">
<style type="text/css">
 	.st0{fill:none;}
</style>
<g>
	<path d="M40,55.3c3.9,0,6.2-0.4,6.2-1.6c0-0.9-0.9-1.2-3-1.3c-0.5-0.2-0.7-2.2-0.7-4.5V32.5c0-2.4,0.2-4.4,0.7-4.6
		c2.1-0.1,3-0.4,3-1.3c0-1.2-2.2-1.6-6.2-1.6c-3.9,0-6.1,0.4-6.1,1.6c0,0.9,0.9,1.2,3,1.3c0.5,0.2,0.7,2.2,0.7,4.6v15.4
		c0,2.4-0.1,4.4-0.7,4.5c-2,0.1-3,0.4-3,1.3C33.8,54.9,36.1,55.3,40,55.3z"/>
</g>
</svg>
