<?xml version="1.0" encoding="utf-8"?>
<!-- Generator: Adobe Illustrator 26.5.0, SVG Export Plug-In . SVG Version: 6.00 Build 0)  -->
<svg version="1.1" id="Layer_1" xmlns="http://www.w3.org/2000/svg" xmlns:xlink="http://www.w3.org/1999/xlink" x="0px" y="0px"
	 viewBox="0 0 80 80" style="enable-background:new 0 0 80 80;" xml:space="preserve">
<style type="text/css">
 	.st0{fill:none;}
</style>
<g>

	<path d="M40.7,55.7c6.1,0,11.1-3.5,11.1-9.2c0-5.8-4.6-7.8-11-9c-4.5-0.8-7.4-1.6-7.4-5c0-2.9,2.7-5.1,6.5-5.1
		c3.9,0,6.4,2.1,7.7,5.6c0.4,1,0.8,1.9,1.7,1.9c0.7,0,1.3-0.9,1.3-2.5c0-3.3-1.6-7.4-3.3-7.4c-0.9,0-1,0.8-1.7,0.8
		c-0.4,0-1-0.2-1.6-0.5c-1.2-0.4-2.7-0.8-4.6-0.8c-6.2,0-10.5,3.9-10.5,8.8c0,5.9,4.2,7.7,10.7,8.9c4.6,0.9,7.6,1.8,7.6,5.2
		c0,3.1-2.7,5.4-6.7,5.4c-4,0-7.4-2.2-8.7-5.2c-0.9-2-1.2-3.4-2.1-3.4c-0.8,0-1.4,0.9-1.4,2.8c0,3.7,1.8,8,3.5,8
		c1.1,0,1-0.8,1.9-0.8c0.5,0,1.1,0.3,1.9,0.6C36.9,55.2,38.6,55.7,40.7,55.7z"/>
</g>
</svg>
