<?xml version="1.0" encoding="utf-8"?>
<!-- Generator: Adobe Illustrator 26.5.0, SVG Export Plug-In . SVG Version: 6.00 Build 0)  -->
<svg version="1.1" id="Layer_1" xmlns="http://www.w3.org/2000/svg" xmlns:xlink="http://www.w3.org/1999/xlink" x="0px" y="0px"
	 viewBox="0 0 80 80" style="enable-background:new 0 0 80 80;" xml:space="preserve">
<style type="text/css">
 	.st0{fill:none;}
</style>
<g>

	<path d="M39.6,24.5c-5.8,0-10.4,4.6-10.4,10.6c0,5.5,4,9.2,9.5,9.2c2.6,0,5.2-0.9,7-2.6c-0.4,7.4-3.2,10.6-7,10.6
		c-2.6,0-4.5-1.6-5.8-3.6c-0.7-0.9-1-1.3-1.6-1.3c-0.7,0-1.2,0.5-1.2,1.3c0,0.7,0.4,1.8,1.2,2.9c1.5,2.2,4.2,3.9,7.7,3.9
		c6.8,0,11.5-6.3,11.5-16.2C50.5,29.1,45.3,24.5,39.6,24.5z M33.7,33.8c0-3.6,2.1-6.3,5.4-6.3c3.2,0,6.2,2.9,6.5,11
		c-0.9,1.2-3.1,2.4-5.4,2.4C36.3,40.9,33.7,37.8,33.7,33.8z"/>
</g>
</svg>
