<?xml version="1.0" encoding="utf-8"?>
<!-- Generator: Adobe Illustrator 26.5.0, SVG Export Plug-In . SVG Version: 6.00 Build 0)  -->
<svg version="1.1" id="Layer_1" xmlns="http://www.w3.org/2000/svg" xmlns:xlink="http://www.w3.org/1999/xlink" x="0px" y="0px"
	 viewBox="0 0 80 80" style="enable-background:new 0 0 80 80;" xml:space="preserve">
<style type="text/css">
 	.st0{fill:none;}
</style>
<g>

	<path d="M33.5,55h11.3c1.8,0,1.6,0.7,2.8,0.7c1.8,0,3.2-4.5,3.2-7c0-1.3-0.4-2.4-1.3-2.4c-0.6,0-1,0.8-1.4,1.8
		c-0.5,1.2-0.8,2-1.1,2.3c-0.6,0.7-3.4,0.8-6.9,0.8h-5.4c2.2-1.9,5.1-4.4,8.5-7.8c2.8-2.8,5.2-6.3,5.2-10.3c0-4.8-3.4-8.6-8.9-8.6
		c-3.9,0-7,1.9-8.9,4.8c-0.9,1.3-1.3,2.5-1.3,3.4c0,0.7,0.5,1.3,1.1,1.3c0.6,0,1-0.5,1.7-1.6c1.4-2.4,3.4-4.1,6.1-4.1
		c3.2,0,5.2,2.2,5.2,5.4c0,2.8-1.6,5.2-4.1,8.1c-2.1,2.5-5.3,5.7-9.6,9.7c-0.6,0.6-0.9,1.1-0.9,1.8c0,0.8,0.6,1.6,1.8,1.6
		C31.7,55.1,32.6,55,33.5,55z"/>
</g>
</svg>
