<?xml version="1.0" encoding="utf-8"?>
<!-- Generator: Adobe Illustrator 26.5.0, SVG Export Plug-In . SVG Version: 6.00 Build 0)  -->
<svg version="1.1" id="Layer_1" xmlns="http://www.w3.org/2000/svg" xmlns:xlink="http://www.w3.org/1999/xlink" x="0px" y="0px"
	 viewBox="0 0 80 80" style="enable-background:new 0 0 80 80;" xml:space="preserve">
<style type="text/css">
 	.st0{fill:none;}
</style>
<g>
	<path d="M26.9,55.3c3.5,0,5.8-0.4,5.8-1.6c0-0.9-1-1.2-3.3-1.3c-0.8-0.2-0.9-2-0.9-4.5v-9.6c0-2.7,0-4.9,0-6.4
		c2.6,6,5.5,12.6,8.4,18.4c0.7,1.4,1.3,2.1,2.4,2.1c1,0,1.6-0.8,2.3-2.1c2.7-5.5,5.1-11,8.1-18.3c0.1,0.9,0.1,2,0.1,3.2v12.8
		c0,2.5-0.2,4.4-0.8,4.5c-2.3,0.1-3.2,0.4-3.2,1.3c0,1.2,2.2,1.6,6.3,1.6c4,0,6.3-0.4,6.3-1.6c0-0.9-1-1.2-3-1.3
		c-0.5-0.2-0.7-1.5-0.7-4.5V32.8c0-2.8,0.2-4.5,0.7-4.9c2-0.1,3-0.4,3-1.3c0-1.2-2.2-1.6-5.2-1.6c-2.9,0-4.2,0.5-5,2.6
		c-2.9,7-5.6,13.4-8.1,18.6c-3.1-6.6-6-13.4-8.5-18.8c-1-2.1-1.9-2.4-5-2.4c-2.9,0-5,0.4-5,1.6c0,0.9,0.9,1.1,3,1.3
		c0.7,0.4,0.8,2.1,0.8,5.1v14.9c0,2.4-0.2,4.3-0.7,4.5c-2.3,0.1-3.2,0.5-3.2,1.3C21.5,54.9,23.7,55.3,26.9,55.3z"/>
</g>
</svg>
