<?xml version="1.0" encoding="utf-8"?>
<!-- Generator: Adobe Illustrator 26.5.0, SVG Export Plug-In . SVG Version: 6.00 Build 0)  -->
<svg version="1.1" id="Layer_1" xmlns="http://www.w3.org/2000/svg" xmlns:xlink="http://www.w3.org/1999/xlink" x="0px" y="0px"
	 viewBox="0 0 80 80" style="enable-background:new 0 0 80 80;" xml:space="preserve">
<style type="text/css">
 	.st0{fill:none;}
</style>
<g>

	<path d="M40.6,55.6c5.8,0,10.6-4.6,10.6-10.6c0-5.5-4-9.2-9.4-9.2c-2.8,0-5.6,1-7.3,2.9c0.4-7.4,3-10.8,6.8-10.8
		c2.6,0,4.3,1.6,5.4,3.3c0.7,0.9,1,1.4,1.7,1.4c0.6,0,1.2-0.5,1.2-1.3s-0.4-1.9-1.2-3c-1.5-2.1-4.2-3.7-7.4-3.7
		c-6.9,0-11.4,7-11.4,16.4C29.6,51.1,34.9,55.6,40.6,55.6z M34.4,41.7c0.9-1.3,3.3-2.4,5.6-2.4c3.9,0,6.6,3.1,6.6,7.1
		c0,3.6-2.2,6.3-5.6,6.3C37.7,52.6,34.6,49.5,34.4,41.7z"/>
</g>
</svg>
