<?xml version="1.0" encoding="utf-8"?>
<!-- Generator: Adobe Illustrator 26.5.0, SVG Export Plug-In . SVG Version: 6.00 Build 0)  -->
<svg version="1.1" id="Layer_1" xmlns="http://www.w3.org/2000/svg" xmlns:xlink="http://www.w3.org/1999/xlink" x="0px" y="0px"
	 viewBox="0 0 80 80" style="enable-background:new 0 0 80 80;" xml:space="preserve">
<style type="text/css">
 	.st0{fill:none;}
</style>
<g>
	<path d="M40.6,55.8c3.1,0,5.1-0.8,6.4-1.3c0.5-0.3,1.1-0.5,1.4-0.5c0.8,0,0.8,0.5,1.7,0.5c1.7,0,3.7-4.7,3.7-7.7
		c0-1.3-0.4-2-1.1-2c-0.9,0-1.3,1.8-2.2,3.3c-1.6,2.6-4.6,4-7.9,4c-6.7,0-11.3-6.6-11.3-13.5c0-6.4,3.8-11.1,9.7-11.1
		c3.6,0,7.9,2.3,8.9,5.8c0.7,2.4,1,3.7,2.1,3.7c0.8,0,1.6-1.1,1.6-3.8c0-3-1-7-2.7-7c-0.8,0-1,0.5-1.7,0.5c-0.4,0-0.7-0.1-1.4-0.5
		c-1.8-0.8-4.1-1.6-6.9-1.6c-8.3,0-14.9,6.6-14.9,15.7C26,49.2,32.7,55.8,40.6,55.8z"/>
</g>
</svg>
