<?xml version="1.0" encoding="utf-8"?>
<!-- Generator: Adobe Illustrator 26.5.0, SVG Export Plug-In . SVG Version: 6.00 Build 0)  -->
<svg version="1.1" id="Layer_1" xmlns="http://www.w3.org/2000/svg" xmlns:xlink="http://www.w3.org/1999/xlink" x="0px" y="0px"
	 viewBox="0 0 80 80" style="enable-background:new 0 0 80 80;" xml:space="preserve">
<style type="text/css">
 	.st0{fill:none;}
</style>
<g>
		<g>
	
		<path d="M40,55.3c4.5,0,6.8-0.4,6.8-1.6c0-0.9-1-1.2-3.4-1.3c-0.6-0.2-0.8-2.1-0.8-4.5v-5.7c0.4-1,0.9-2,1.9-3.5
			c4.7-7,6.5-10,8.1-10.8c2.3-0.2,3.2-0.6,3.2-1.3c0-1-2.1-1.6-5.8-1.6c-3.9,0-6.3,0.5-6.3,1.6c0,0.8,0.9,1.1,3.3,1.3
			c0.5,0.2,0.4,0.6,0,1.5c-1.3,2.6-4.1,6.9-5.9,9.4c-1.8-2.2-5-6.9-6-9.1c-0.5-1.1-0.6-1.6-0.3-1.7c2.1-0.1,3-0.5,3-1.3
			c0-1-2.1-1.7-6.6-1.7c-4.6,0-6.9,0.6-6.9,1.8c0,0.8,0.8,1.1,2.9,1.3c1.5,0.9,2.9,2.9,8.6,11.2c0.9,1.3,1.4,2.2,1.8,3.2V48
			c0,2.4-0.2,4.3-0.8,4.5c-2.5,0.1-3.5,0.4-3.5,1.3C33.2,54.8,35.6,55.3,40,55.3z"/>
	</g>
</g>
</svg>
