<?xml version="1.0" encoding="utf-8"?>
<!-- Generator: Adobe Illustrator 26.5.0, SVG Export Plug-In . SVG Version: 6.00 Build 0)  -->
<svg version="1.1" id="Layer_1" xmlns="http://www.w3.org/2000/svg" xmlns:xlink="http://www.w3.org/1999/xlink" x="0px" y="0px"
	 viewBox="0 0 80 80" style="enable-background:new 0 0 80 80;" xml:space="preserve">
<style type="text/css">
 	.st0{fill:none;}
</style>
<g>
	<path d="M37.9,55.8c4.8,0,8.7-2.3,8.7-8.9V32.5c0-2.4,0.1-4.4,0.6-4.6c2.1-0.1,3-0.4,3-1.3c0-1.2-2.2-1.6-6.3-1.6
		c-4.1,0-6.3,0.4-6.3,1.6c0,0.9,1,1.2,3.3,1.3c0.5,0.2,0.7,2.1,0.7,4.6v14.3c0,4.4-1.6,6.2-4.1,6.2c-2.2,0-3-1.4-3-2
		c0-0.3,0.3-0.5,0.5-0.7c0.5-0.5,0.9-1.1,0.9-2c0-1.6-1.2-2.9-3-2.9c-2.1,0-3.4,1.5-3.4,3.8C29.4,52.9,32.5,55.8,37.9,55.8z"/>
</g>
</svg>
