<?xml version="1.0" encoding="utf-8"?>
<!-- Generator: Adobe Illustrator 26.5.0, SVG Export Plug-In . SVG Version: 6.00 Build 0)  -->
<svg version="1.1" id="Layer_1" xmlns="http://www.w3.org/2000/svg" xmlns:xlink="http://www.w3.org/1999/xlink" x="0px" y="0px"
	 viewBox="0 0 80 80" style="enable-background:new 0 0 80 80;" xml:space="preserve">
<style type="text/css">
 	.st0{fill:none;}
</style>
<g>
	<path d="M45.3,45.2c1.2,0,1.7-2.6,1.7-5.3c0-2.7-0.5-5.3-1.7-5.3c-0.9,0-1.1,1-1.1,3.2c-0.5,0.8-4.4,0.8-7.9,0.8h-0.3
		V33c0-3,0.2-4.7,1-4.9h3.8c3.7,0,6.4,0.3,7,1c0.3,0.4,0.7,1.3,1.1,2.7c0.4,1.4,0.8,2.3,1.6,2.3c0.8,0,1.3-0.9,1.3-2.5
		c0-2.9-1.4-7-3.1-7c-1.2,0-1,0.7-2.7,0.7h-8.8h-4.5c-3.7,0-5.6,0.3-5.6,1.5c0,0.9,1,1.2,3.2,1.3c0.5,0.2,0.7,2.1,0.7,4.5v15.2
		c0,2.3-0.2,4.3-0.7,4.5c-2.2,0.1-3.2,0.4-3.2,1.4c0,1.2,2,1.5,5.6,1.5c1.2,0,3,0,4.5,0h9.4c1.8,0,1.5,0.7,2.7,0.7
		c1.8,0,3.5-4.7,3.5-7.8c0-1.5-0.5-2.4-1.3-2.4c-0.9,0-1.4,1-1.8,2.6c-0.5,1.7-0.8,2.6-1.3,3c-0.7,0.6-3.3,1.1-7.6,1.1h-3.9
		c-0.8-0.1-1-1.9-1-4.9v-6h0.3c3.5,0,7.4,0,7.9,0.8C44.2,44.3,44.4,45.2,45.3,45.2z"/>
</g>
</svg>
