<svg xmlns="http://www.w3.org/2000/svg" xml:space="preserve" id="Layer_1" x="0" y="0" viewBox="0 0 80 80"><style>.st0{fill-rule:evenodd;clip-rule:evenodd}</style><path d="M26 25.5c0-1.9 1.6-3.5 3.5-3.5h20.9c1.9 0 3.5 1.6 3.5 3.5v28.9c0 1.9-1.6 3.5-3.5 3.5H44v-6.4c0-.9-.7-1.6-1.6-1.6h-4.9c-.9 0-1.6.7-1.6 1.6V58h-6.5c-1.9 0-3.5-1.6-3.5-3.5v-29zm7.8.5c-1.1 0-2 .9-2 2s.9 2 2 2h12.4c1.1 0 2-.9 2-2s-.9-2-2-2zm-2 10c0-1.1.9-2 2-2h12.4c1.1 0 2 .9 2 2s-.9 2-2 2H33.8c-1.1 0-2-.9-2-2m2 6c-1.1 0-2 .9-2 2s.9 2 2 2h12.4c1.1 0 2-.9 2-2s-.9-2-2-2z" class="st0"/></svg>