<?xml version="1.0" encoding="utf-8"?>
<!-- Generator: Adobe Illustrator 26.5.0, SVG Export Plug-In . SVG Version: 6.00 Build 0)  -->
<svg version="1.1" id="Layer_1" xmlns="http://www.w3.org/2000/svg" xmlns:xlink="http://www.w3.org/1999/xlink" x="0px" y="0px"
	 viewBox="0 0 80 80" style="enable-background:new 0 0 80 80;" xml:space="preserve">
<style type="text/css">
 	.st0{fill:none;}
</style>
<g>
	<path d="M34.2,55.3c4.5,0,6.8-0.4,6.8-1.6c0-0.9-1.1-1.2-3.7-1.3c-0.5-0.2-0.7-2.1-0.7-4.5v-4.2
		c1.6,0.2,3.3,0.3,4.5,0.3c6.6,0,11.5-3.7,11.5-9.8c0-4.9-3-9.1-11.3-9.1c-1.8,0-4.3,0.2-5.5,0.2h-2.8c-3.1,0-5,0.3-5,1.5
		c0,0.9,1,1.2,3.1,1.3c0.5,0.2,0.6,2.1,0.6,4.5v15.3c0,2.9-0.1,4.3-0.6,4.5c-2.2,0.1-3.2,0.4-3.2,1.3C27.9,54.9,30.1,55.3,34.2,55.3
		z M36.7,40.8v-8.2c0-2.4,0.1-3.9,0.5-4.3c0.9-0.3,2.1-0.4,3.3-0.4c5.6,0,6.8,3.4,6.8,6.8c0,4.1-2.1,6.5-6.7,6.5
		C39.4,41.2,38.1,41.1,36.7,40.8z"/>
</g>
</svg>
