<?xml version="1.0" encoding="utf-8"?>
<!-- Generator: Adobe Illustrator 26.5.0, SVG Export Plug-In . SVG Version: 6.00 Build 0)  -->
<svg version="1.1" id="Layer_1" xmlns="http://www.w3.org/2000/svg" xmlns:xlink="http://www.w3.org/1999/xlink" x="0px" y="0px"
	 viewBox="0 0 80 80" style="enable-background:new 0 0 80 80;" xml:space="preserve">
<style type="text/css">
 	.st0{fill:none;}
</style>
<g>

	<path d="M40.8,55.3c5.2,0,7.5-0.4,7.5-1.6c0-0.9-1-1.2-4-1.3c-0.8-0.2-0.9-1.5-0.9-4.5V31.6c0-2.9,0.1-3.8,0.6-4.1
		c0.8-0.4,1.1-0.8,1.1-1.3c0-0.8-0.7-1.1-1.7-1.1c-1.4,0-3.6,0.4-5.6,1.1c-3,1-5.6,2.4-5.6,3.5c0,0.5,0.4,0.9,1.1,0.9
		c0.9,0,3.1-0.9,4.4-1.1c0.6,0.2,0.8,1.6,0.8,3.1v15.2c0,3-0.1,4.3-0.9,4.5c-3.1,0.1-4,0.4-4,1.3C33.3,54.8,35.7,55.3,40.8,55.3z"/>
</g>
</svg>
