<?xml version="1.0" encoding="utf-8"?>
<!-- Generator: Adobe Illustrator 26.5.0, SVG Export Plug-In . SVG Version: 6.00 Build 0)  -->
<svg version="1.1" id="Layer_1" xmlns="http://www.w3.org/2000/svg" xmlns:xlink="http://www.w3.org/1999/xlink" x="0px" y="0px"
	 viewBox="0 0 80 80" style="enable-background:new 0 0 80 80;" xml:space="preserve">
<style type="text/css">
	.st0{fill:none;}
</style>
<g>
	<path d="M40.1,55.8c6.4,0,11.3-3.1,12.9-8.1c0.3-0.9,0.5-2.5,1-2.9c1.9-0.1,2.9-0.4,2.9-1.3c0-1.2-2.4-1.6-6.6-1.6
		s-6.6,0.4-6.6,1.6c0,0.9,1.1,1.3,3.9,1.3c0.9,0.2,1.2,1,1.2,1.9c0,3.2-3.1,5.8-7.5,5.8c-6.9,0-11.3-6.6-11.3-13.6
		c0-6.5,3.8-11.3,9.7-11.3c4,0,7.9,2.2,9.1,5.8c0.6,1.7,1.2,3,2.1,3c1.1,0,1.6-1.3,1.6-3.3c0-3.2-1-6.9-2.7-6.9
		c-0.8,0-1,0.5-1.7,0.5c-0.3,0-0.7-0.1-1.4-0.5c-1.8-0.8-4-1.6-6.8-1.6c-8.6,0-15.3,6.6-15.3,15.7C24.5,49.2,31.1,55.8,40.1,55.8z"
		/>
</g>
</svg>
