<?xml version="1.0" encoding="utf-8"?>
<!-- Generator: Adobe Illustrator 26.5.0, SVG Export Plug-In . SVG Version: 6.00 Build 0)  -->
<svg version="1.1" id="Layer_1" xmlns="http://www.w3.org/2000/svg" xmlns:xlink="http://www.w3.org/1999/xlink" x="0px" y="0px"
	 viewBox="0 0 80 80" style="enable-background:new 0 0 80 80;" xml:space="preserve">
<style type="text/css">
 	.st0{fill:none;}
</style>
<g>
	<path d="M31.8,55.3c3.9,0,6.2-0.4,6.2-1.6c0-0.9-0.9-1.2-3-1.3c-0.5-0.2-0.7-1.5-0.7-4.5v-4.5c0.6-0.8,1.4-1.6,2.3-2.5
		c2.8,3.6,5.9,7.8,8.5,11.4c1.8,2.5,3.4,3,5.9,3c3.3,0,5-0.6,5-1.6c0-0.8-0.9-1.2-3.5-1.3c-0.7-0.2-1.8-1-3.2-2.8
		c-2.9-3.7-5.9-7.6-9.3-12.1l2.2-2.2c4.2-4.3,6.5-6.8,8.2-7.1c2.4-0.3,3.2-0.8,3.2-1.5c0-1-2.1-1.7-5.9-1.7c-3.9,0-6.3,0.5-6.3,1.7
		c0,0.7,0.6,1.1,2.4,1.2c0.3,0.5-0.3,1.7-2.6,4.3c-2.9,3.2-5,5.4-6.8,7.2v-6.9c0-2.4,0.2-4.4,0.7-4.6c2.1-0.1,3-0.4,3-1.3
		c0-1.2-2.2-1.6-6.2-1.6c-3.9,0-6.1,0.4-6.1,1.6c0,0.9,0.9,1.2,3,1.3c0.5,0.2,0.7,2.2,0.7,4.6v15.4c0,3-0.1,4.4-0.7,4.5
		c-2,0.1-3,0.4-3,1.3C25.7,54.9,27.9,55.3,31.8,55.3z"/>
</g>
</svg>
