<?xml version="1.0" encoding="utf-8"?>
<!-- Generator: Adobe Illustrator 26.5.0, SVG Export Plug-In . SVG Version: 6.00 Build 0)  -->
<svg version="1.1" id="Layer_1" xmlns="http://www.w3.org/2000/svg" xmlns:xlink="http://www.w3.org/1999/xlink" x="0px" y="0px"
	 viewBox="0 0 80 80" style="enable-background:new 0 0 80 80;" xml:space="preserve">
<style type="text/css">
 	.st0{fill:none;}
</style>
<g>
		<g>
	
		<path d="M48.6,55.2c4.6,0,6.8-0.6,6.8-1.8c0-0.8-0.9-1.2-2.9-1.3c-0.9-0.6-2.1-2.3-4.5-5.5c-1.8-2.4-3.7-5-5.4-7.4
			c1.7-2.5,3-4.2,4.5-6.2c2.6-3.5,3.4-4.5,4.9-5.1c2.1-0.2,2.8-0.6,2.8-1.3c0-1-2-1.6-5.6-1.6c-3.7,0-6,0.5-6,1.6
			c0,0.8,0.8,1.1,2.8,1.3c0.5,0.4-0.4,2-1.8,4.2c-0.8,1.3-1.8,2.7-3.2,4.7c-1.3-1.8-2.4-3.4-3.3-4.8c-1.3-2-2.3-3.7-2-4.1
			c1.8-0.2,2.9-0.4,2.9-1.3c0-1-2-1.7-6.6-1.7s-6.8,0.6-6.8,1.8c0,0.8,0.9,1.2,2.9,1.3c1.1,0.6,2.1,2.1,4.4,5c1.5,2,3.3,4.5,5,7
			c-2,2.7-3.4,4.5-5,6.7c-2.8,3.6-3.8,4.9-5.2,5.6c-2,0.2-2.7,0.6-2.7,1.3c0,1,2,1.6,5.6,1.6c3.7,0,6-0.5,6-1.6c0-0.8-0.8-1.1-3-1.2
			c-0.5-0.5,0.5-2.1,2.2-4.7c1-1.5,2.1-3.1,3.8-5.3c1.3,1.8,2.5,3.6,3.5,5.1c1.3,1.9,2.4,4.3,2.1,4.7c-1.8,0.2-2.9,0.4-2.9,1.3
			C42,54.6,44,55.2,48.6,55.2z"/>
	</g>
</g>
</svg>
