<?xml version="1.0" encoding="utf-8"?>
<!-- Generator: Adobe Illustrator 26.5.0, SVG Export Plug-In . SVG Version: 6.00 Build 0)  -->
<svg version="1.1" id="Layer_1" xmlns="http://www.w3.org/2000/svg" xmlns:xlink="http://www.w3.org/1999/xlink" x="0px" y="0px"
	 viewBox="0 0 80 80" style="enable-background:new 0 0 80 80;" xml:space="preserve">
<style type="text/css">
 	.st0{fill:none;}
</style>
<g>

	<path d="M38.5,55.7c6.3,0,11.3-4.1,11.3-9.8c0-5.5-4.3-9.5-12.2-9.5c-0.7,0-1.8,0-3,0.2c0.3-1.9,0.8-5,1.3-7.4h10
		c2,0,2.8-1.3,2.8-3c0-1.2-0.5-1.6-1.1-1.6c-0.4,0-0.9,0.2-1.3,0.5H35.5c-1.5,0-1.9,0.3-2.1,1.3c-0.7,4-1.9,11.2-1.9,12.5
		c0,0.9,0.5,1.3,1.4,1.3c0.8,0,1.9-0.2,3.2-0.2c5.6,0,8.7,2.6,8.7,6.3c0,3.3-2.7,6-7,6c-3.7,0-5.5-1.8-6.8-1.8
		c-0.8,0-1.2,0.6-1.2,1.3C29.8,53.8,34.5,55.7,38.5,55.7z"/>
</g>
</svg>
