<?xml version="1.0" encoding="utf-8"?>
<!-- Generator: Adobe Illustrator 26.5.0, SVG Export Plug-In . SVG Version: 6.00 Build 0)  -->
<svg version="1.1" id="Layer_1" xmlns="http://www.w3.org/2000/svg" xmlns:xlink="http://www.w3.org/1999/xlink" x="0px" y="0px"
	 viewBox="0 0 80 80" style="enable-background:new 0 0 80 80;" xml:space="preserve">
<style type="text/css">
	.st0{fill:none;}
</style>
<g>
	<path d="M29,55.3c3.8,0,6.3-0.6,6.3-1.7c0-0.8-0.9-1.1-3.5-1.2c-0.5-0.8,0-3,0.9-5.6c0.2-0.5,0.4-1,0.6-1.6
		C35.3,45.1,37,45,39,45c1.9,0,3.9,0,6,0.2l0.3,0.7c1.3,3.7,1.9,5.9,1.5,6.6C44,52.5,43,52.8,43,53.7c0,1,2.1,1.6,6.8,1.6
		c4.6,0,6.8-0.5,6.8-1.6c0-0.8-0.9-1.1-2.8-1.3c-0.6-0.4-1.1-0.9-2.4-4.2c-2.4-6.1-6.8-16.2-9-20.7c-0.9-1.9-1.7-2.6-3.1-2.6
		c-1.3,0-2.3,0.9-2.4,2.2c-0.2,0.8-0.3,1.6-0.7,2.9c-1,2.6-4.5,11.1-7.1,17.5c-1.3,3.1-2.1,4.4-2.9,5c-2.1,0.2-3,0.5-3,1.3
		C23.2,54.7,25.4,55.3,29,55.3z M34.4,42.3c1.4-3.5,3.1-7.6,4.6-11.1c1.7,3.5,3.4,7.2,5,11.1c-1.8,0-3.4-0.1-4.9-0.1
		C37.3,42.2,36,42.2,34.4,42.3z"/>
</g>
</svg>
