<?xml version="1.0" encoding="utf-8"?>
<!-- Generator: Adobe Illustrator 26.5.0, SVG Export Plug-In . SVG Version: 6.00 Build 0)  -->
<svg version="1.1" id="Layer_1" xmlns="http://www.w3.org/2000/svg" xmlns:xlink="http://www.w3.org/1999/xlink" x="0px" y="0px"
	 viewBox="0 0 80 80" style="enable-background:new 0 0 80 80;" xml:space="preserve">
<style type="text/css">
 	.st0{fill:none;}
</style>
<g>
		<g>
	
		<path d="M48.1,55.4c1.5,0,1.9-1,2.6-2.6c1.4-3.5,4.5-12,7.2-19.9c1-2.9,1.8-4.4,2.7-5c1.8-0.2,2.5-0.6,2.5-1.3
			c0-1-1.9-1.6-5.5-1.6c-4,0-6.1,0.5-6.1,1.6c0,0.8,0.8,1.2,3.7,1.3c0.4,0.7,0.1,2.9-0.8,5.7C53.3,37.4,51,44.3,49,49.3
			c-1.9-4.6-3.6-9.2-5.2-14.8c-1.2-3.9-1.4-6-1-6.6c2.6-0.2,3.4-0.4,3.4-1.3c0-1-2-1.7-6.5-1.7c-4.2,0-6.3,0.6-6.3,1.8
			c0,0.8,0.8,1.1,2.4,1.2c0.5,0.3,0.8,0.8,1.9,4.1l1,3c-1.4,3.9-3.7,10.1-5.5,14.5c-2-4.5-3.8-9.4-5.6-15c-1.3-3.9-1.6-5.9-1.2-6.5
			c2.1-0.2,2.9-0.5,2.9-1.3c0-1-1.9-1.7-6.1-1.7c-4.3,0-6.4,0.6-6.4,1.8c0,0.8,0.7,1.2,2.5,1.3c0.5,0.2,1,0.8,2.1,4
			c2.5,7,6.3,17,8,20.9c0.8,1.7,1.3,2.5,2.7,2.5c1.4,0,1.8-1,2.5-2.6c1-2.4,3.2-8,5.4-13.7c1.8,5.2,3.9,10.8,5.2,13.7
			C46.1,54.6,46.8,55.4,48.1,55.4z"/>
	</g>
</g>
</svg>
