<svg xmlns="http://www.w3.org/2000/svg" xml:space="preserve" viewBox="0 0 80 80"><path d="M33.5 55h11.3c1.8 0 1.6.7 2.8.7 1.8 0 3.2-4.5 3.2-7 0-1.3-.4-2.4-1.3-2.4-.6 0-1 .8-1.4 1.8-.5 1.2-.8 2-1.1 2.3-.6.7-3.4.8-6.9.8h-5.4c2.2-1.9 5.1-4.4 8.5-7.8 2.8-2.8 5.2-6.3 5.2-10.3 0-4.8-3.4-8.6-8.9-8.6-3.9 0-7 1.9-8.9 4.8-.9 1.3-1.3 2.5-1.3 3.4 0 .7.5 1.3 1.1 1.3s1-.5 1.7-1.6c1.4-2.4 3.4-4.1 6.1-4.1 3.2 0 5.2 2.2 5.2 5.4 0 2.8-1.6 5.2-4.1 8.1-2.1 2.5-5.3 5.7-9.6 9.7-.6.6-.9 1.1-.9 1.8 0 .8.6 1.6 1.8 1.6 1.1.2 2 .1 2.9.1"/></svg>