<?xml version="1.0" encoding="utf-8"?>
<!-- Generator: Adobe Illustrator 26.5.0, SVG Export Plug-In . SVG Version: 6.00 Build 0)  -->
<svg version="1.1" id="Layer_1" xmlns="http://www.w3.org/2000/svg" xmlns:xlink="http://www.w3.org/1999/xlink" x="0px" y="0px"
	 viewBox="0 0 80 80" style="enable-background:new 0 0 80 80;" xml:space="preserve">
<style type="text/css">
 	.st0{fill:none;}
</style>
<g>

	<path d="M43.9,55.3c2.1,0,2.4-0.3,2.4-1.3v-5.3h2.8c1.6,0,2.1-0.3,2.1-1.9c0-1.5-0.5-1.9-2.1-1.9h-2.8V27.1
		c0-1.3-0.8-2.1-2.3-2.1c-2,0-2.7,1-4,2.6c-3.5,4.8-7,10.3-10.2,15.8c-0.6,1.1-1.4,2.3-1.4,3.4c0,1.2,0.8,1.9,2.1,1.9h10.9V54
		C41.5,54.9,41.8,55.3,43.9,55.3z M31.8,44.9c3.1-5.3,6.4-10.6,9.8-15.4v15.4H31.8z"/>
</g>
</svg>
