<svg xmlns="http://www.w3.org/2000/svg" xml:space="preserve" viewBox="0 0 19 19"><path fill-rule="evenodd" d="M7.5 15a7.5 7.5 0 1 1 7.35-5.996A3 3 0 0 0 12 12a3 3 0 0 0-2.996 2.85q-.73.148-1.504.15m2.917-9.167a1.25 1.25 0 1 1 0-2.5 1.25 1.25 0 0 1 0 2.5M7.5 12.5c-1.841 0-3.333-1.866-3.333-4.167h6.666c0 2.301-1.492 4.167-3.333 4.167M3.333 4.583a1.25 1.25 0 1 0 2.5 0 1.25 1.25 0 0 0-2.5 0" clip-rule="evenodd"/><path d="M15.006 11a1 1 0 0 0-1 1v2h-2a1 1 0 1 0 0 2h2v2a1 1 0 1 0 2 0v-2h2a1 1 0 1 0 0-2h-2v-2a1 1 0 0 0-1-1"/></svg>