<svg xmlns="http://www.w3.org/2000/svg" xmlns:xlink="http://www.w3.org/1999/xlink" xml:space="preserve" id="Layer_1" x="0" y="0" viewBox="0 0 20 20"><style>.st0{clip-path:url(#SVGID_2_)}</style><defs><path id="SVGID_1_" d="M1 5h17.8v10H1z"/></defs><clipPath id="SVGID_2_"><use xlink:href="#SVGID_1_" style="overflow:visible"/></clipPath><path d="M14 12.5c-.4 0-.7-.3-.7-.7s.3-.7.7-.7.7.3.7.7c0 .3-.3.7-.7.7m-8.2 0c-.4 0-.7-.3-.7-.7s.3-.7.7-.7.7.3.7.7c0 .3-.3.7-.7.7M14.2 8l1.5-2.6c.1-.1 0-.3-.1-.4s-.3 0-.4.1l-1.5 2.6c-1.1-.5-2.4-.8-3.8-.8s-2.7.3-3.8.8L4.6 5.2C4.5 5 4.3 5 4.2 5c-.2.1-.2.3-.1.5L5.5 8C3 9.4 1.3 12 1 15h17.8c-.3-3-2-5.6-4.6-7" class="st0"/></svg>