<svg xmlns="http://www.w3.org/2000/svg" xmlns:xlink="http://www.w3.org/1999/xlink" xml:space="preserve" viewBox="0 0 20 20">
  <defs>
    <path id="a" d="M4 3h11.8v14H4z"/>
  </defs>
  <clipPath id="b">
    <use xlink:href="#a" overflow="visible"/>
  </clipPath>
  <path d="M13.8 16.4c-.8.7-1.6.6-2.4.3-.8-.4-1.6-.4-2.5 0-1.1.5-1.7.3-2.4-.3-3.8-3.9-3.2-9.8 1.1-10.1 1.1.1 1.8.6 2.4.7.9-.2 1.8-.7 2.8-.7 1.2.1 2.1.6 2.6 1.4-2.4 1.5-1.8 4.7.4 5.5-.4 1.2-1 2.4-2 3.2M9.9 6.3c-.1-1.7 1.3-3.2 2.9-3.3.3 2-1.8 3.5-2.9 3.3" clip-path="url(#b)"/>
</svg>
