<svg width="20" height="20" viewBox="0 0 20 20" fill="none" xmlns="http://www.w3.org/2000/svg">
<path d="M6.25 10.625V11.25H13.75V10.625C13.75 9.11625 14.825 7.85375 16.25 7.56375V6.25C16.25 3.48875 14.0113 1.25 11.25 1.25H8.75C5.98875 1.25 3.75 3.48875 3.75 6.25V7.56375C5.175 7.85375 6.25 9.11625 6.25 10.625Z" fill="black"/>
<path d="M16.875 8.75C15.84 8.75 15 9.59 15 10.625V12.5H5V10.625C5 9.59 4.16 8.75 3.125 8.75C2.09 8.75 1.25 9.59 1.25 10.625C1.25 11.44 1.77375 12.1275 2.5 12.385V12.5V18.75H5V16.25H15V18.75H17.5V12.5V12.385C18.2262 12.1262 18.75 11.44 18.75 10.625C18.75 9.59 17.91 8.75 16.875 8.75Z" fill="black"/>
</svg>
