<svg xmlns="http://www.w3.org/2000/svg" id="Layer_1" version="1.1" viewBox="0 0 20 20"><path d="M3.675,11.4c.497.663,1.437.797,2.1.3.663-.497.797-1.437.3-2.1l-1.2-1.601h6.625c.828,0,1.5-.672,1.5-1.5s-.672-1.5-1.5-1.5h-6.624l1.2-1.6c.497-.663.363-1.603-.3-2.1-.663-.497-1.603-.363-2.1.3L0,6.5l3.675,4.9Z"/><path d="M16.324,8.6c-.497-.663-1.437-.797-2.1-.3-.663.497-.797,1.437-.3,2.1l1.2,1.601h-6.625c-.828,0-1.5.672-1.5,1.5s.672,1.5,1.5,1.5h6.624l-1.2,1.6c-.497.663-.363,1.603.3,2.1.663.497,1.603.363,2.1-.3l3.675-4.9-3.675-4.9Z"/></svg>