<?xml version="1.0" encoding="UTF-8"?>
<svg id="Layer_1" xmlns="http://www.w3.org/2000/svg" version="1.1" viewBox="0 0 20 20">
  <!-- Generator: Adobe Illustrator 29.7.1, SVG Export Plug-In . SVG Version: 2.1.1 Build 8)  -->
  <path d="M16,2.5c0-.828.672-1.5,1.5-1.5s1.5.672,1.5,1.5v7.5h-6.5c-.828,0-1.5-.672-1.5-1.5s.672-1.5,1.5-1.5h2.154c-.928-1.782-2.817-3-4.993-3-3.095,0-5.604,2.462-5.604,5.5s2.509,5.5,5.604,5.5c1.66,0,3.149-.706,4.177-1.834.563-.617,1.529-.67,2.158-.117.629.552.683,1.501.119,2.118-1.584,1.737-3.89,2.833-6.455,2.833-4.783,0-8.661-3.806-8.661-8.5S4.878,1,9.661,1c2.504,0,4.759,1.043,6.339,2.709v-1.209Z"/>
</svg>