<svg width="84" height="72" viewBox="0 0 84 72" fill="none" xmlns="http://www.w3.org/2000/svg">
<rect width="84" height="72" fill="url(#paint0_linear_120_1671)"/>
<path d="M12 26C12 11.6406 23.6406 0 38 0C52.3594 0 64 11.6406 64 26C64 40.3594 52.3594 52 38 52C23.6406 52 12 40.3594 12 26Z" fill="#03D47C"/>
<path fill-rule="evenodd" clip-rule="evenodd" d="M33.5858 17.5858C34.3668 16.8047 35.6332 16.8047 36.4142 17.5858L44.8284 26L36.4142 34.4142C35.6332 35.1953 34.3668 35.1953 33.5858 34.4142C32.8047 33.6332 32.8047 32.3668 33.5858 31.5858L39.1716 26L33.5858 20.4142C32.8047 19.6332 32.8047 18.3668 33.5858 17.5858Z" fill="#FCFBF9"/>
<defs>
<linearGradient id="paint0_linear_120_1671" x1="0" y1="36" x2="21.253" y2="36" gradientUnits="userSpaceOnUse">
<stop stop-color="#FCFBF9" stop-opacity="0"/>
<stop offset="1" stop-color="#FCFBF9"/>
</linearGradient>
</defs>
</svg>
