<?xml version="1.0" encoding="UTF-8"?>
<svg id="Layer_1" xmlns="http://www.w3.org/2000/svg" version="1.1" viewBox="0 0 20 20">
  <!-- Generator: Adobe Illustrator 29.4.0, SVG Export Plug-In . SVG Version: 2.1.0 Build 152)  -->
  <path d="M8.15,2.51c.76.08,1.35.72,1.35,1.49s-.59,1.42-1.35,1.49h-.15s-.99,0-.99,0c1.62,1.85,2.66,3.97,3.4,6.43.24-.39.5-.77.77-1.14.64-.84,1.38-1.6,2.23-2.28h-1.41c-.83,0-1.5-.67-1.5-1.5s.67-1.5,1.5-1.5h6.5v6.65c-.08.76-.72,1.35-1.5,1.35s-1.42-.59-1.49-1.35v-.15s0-1.32,0-1.32c-.77.58-1.4,1.22-1.93,1.92-.85,1.12-1.47,2.44-1.93,4.05l-.18.71v.03s-.03.07-.04.1v.02s-.02.02-.02.03c0,.02-.02.05-.03.07,0,.02-.02.04-.03.06-.01.02-.02.05-.04.07-.01.03-.03.05-.04.07,0,.01-.01.02-.02.03-.02.02-.03.05-.05.07-.01.02-.02.03-.03.05-.02.02-.04.05-.06.07-.01.01-.02.02-.03.03-.02.02-.03.03-.05.05-.02.02-.04.03-.06.05-.02.01-.03.03-.05.04-.02.02-.05.03-.07.05-.01,0-.02.02-.04.03-.02.02-.05.03-.07.04-.02,0-.03.02-.05.03-.02.01-.05.02-.07.04-.02,0-.04.02-.06.02-.02.01-.05.02-.08.03-.02,0-.03,0-.05.01-.03,0-.06.02-.09.02-.02,0-.04,0-.06.01-.02,0-.04,0-.06.01,0,0-.01,0-.02,0-.02,0-.05,0-.07,0-.02,0-.04,0-.07,0-.02,0-.04,0-.05,0-.03,0-.07,0-.1,0,0,0,0,0-.01,0-.04,0-.08,0-.12-.01-.01,0-.03,0-.04,0-.03,0-.06-.01-.09-.02,0,0-.01,0-.02,0-.01,0-.02,0-.03,0-.03,0-.06-.02-.09-.03-.02,0-.03-.01-.05-.02-.03-.01-.06-.02-.09-.04-.01,0-.02-.01-.04-.02-.03-.01-.06-.03-.08-.04-.02-.01-.04-.02-.06-.03-.01,0-.03-.02-.04-.03-.03-.02-.06-.04-.08-.06,0,0-.02-.01-.03-.02-.02-.02-.05-.04-.07-.06-.01-.01-.03-.03-.04-.04-.02-.02-.03-.03-.05-.05-.02-.02-.03-.04-.05-.06-.01-.01-.02-.03-.03-.04-.02-.02-.03-.04-.05-.06-.01-.02-.03-.04-.04-.06-.01-.02-.02-.04-.04-.06,0-.01-.02-.03-.02-.04-.01-.03-.03-.05-.04-.08,0-.02-.02-.03-.02-.05-.01-.02-.02-.05-.03-.08,0-.02-.01-.04-.02-.06,0-.01,0-.03-.01-.04v-.02s-.02-.06-.03-.09v-.04s-.2-1.07-.2-1.07c-.74-3.96-1.76-6.77-3.83-8.98v1.8c0,.83-.67,1.5-1.5,1.5s-1.5-.67-1.5-1.5V2.5h6.65Z"/>
</svg>