<svg width="20" height="20" viewBox="0 0 20 20" fill="none" xmlns="http://www.w3.org/2000/svg">
<path d="M4 2.5C4 1.67157 3.32843 1 2.5 1C1.67157 1 1 1.67157 1 2.5V10H7.5C8.32843 10 9 9.32843 9 8.5C9 7.67157 8.32843 7 7.5 7H5.34565C6.27373 5.21818 8.16299 4 10.3392 4C13.4342 4 15.9432 6.46243 15.9432 9.5C15.9432 12.5376 13.4342 15 10.3392 15C8.67956 15 7.19003 14.2939 6.1617 13.1663C5.59875 12.549 4.63252 12.4965 4.00355 13.049C3.37457 13.6015 3.32105 14.5497 3.88399 15.167C5.46767 16.9036 7.77396 18 10.3392 18C15.1224 18 19 14.1944 19 9.5C19 4.80558 15.1224 1 10.3392 1C7.83498 1 5.58058 2.04259 4 3.70862V2.5Z" fill="#8B9C8F"/>
</svg>
