<?xml version="1.0" encoding="utf-8"?>
<!-- Generator: Adobe Illustrator 24.0.2, SVG Export Plug-In . SVG Version: 6.00 Build 0)  -->
<svg version="1.1" id="Layer_1" xmlns="http://www.w3.org/2000/svg" xmlns:xlink="http://www.w3.org/1999/xlink" x="0px" y="0px"
	 viewBox="0 0 20 20" style="enable-background:new 0 0 20 20;" xml:space="preserve">
<path d="M18.1,5h-1.6l-6.2-3.5c-0.2-0.1-0.4-0.1-0.6,0L3.5,5H1.9C1.5,5,1.2,5.2,1.2,5.6v1.2c0,0.4,0.2,0.6,0.6,0.6h0.6v8.8H1.9
	c-0.4,0-0.6,0.2-0.6,0.6v1.2c0,0.4,0.2,0.6,0.6,0.6h16.2c0.4,0,0.6-0.2,0.6-0.6v-1.2c0-0.4-0.2-0.6-0.6-0.6h-0.6V7.5h0.6
	c0.4,0,0.6-0.2,0.6-0.6V5.6C18.8,5.2,18.5,5,18.1,5z M8.8,16.2H5V7.5h3.8V16.2z M15,16.2h-3.8V7.5H15V16.2z"/>
</svg>
