<?xml version="1.0" encoding="utf-8"?>
<!-- Generator: Adobe Illustrator 26.5.0, SVG Export Plug-In . SVG Version: 6.00 Build 0)  -->
<svg version="1.1" id="Layer_1" xmlns="http://www.w3.org/2000/svg" xmlns:xlink="http://www.w3.org/1999/xlink" x="0px" y="0px"
	 viewBox="0 0 20 20" style="enable-background:new 0 0 20 20;" xml:space="preserve">
<style type="text/css">
	.st0{fill-rule:evenodd;clip-rule:evenodd;}
</style>
<path class="st0" d="M10.6,2.4c-0.3-0.2-0.8-0.2-1.1,0L4.3,5.8C4.1,5.9,3.9,6,3.7,6H2v2h1c0.6,0,1,0.4,1,1v6c0,0.6-0.4,1-1,1H2v2h16
	v-2h-1c-0.6,0-1-0.4-1-1V9c0-0.6,0.4-1,1-1h1V6h-1.7c-0.2,0-0.4-0.1-0.6-0.2L10.6,2.4z M14,9c0-0.6-0.4-1-1-1h-1c-0.6,0-1,0.4-1,1v6
	c0,0.6,0.4,1,1,1h1c0.6,0,1-0.4,1-1V9z M8,8c0.6,0,1,0.4,1,1v6c0,0.6-0.4,1-1,1H7c-0.6,0-1-0.4-1-1V9c0-0.6,0.4-1,1-1H8z"/>
</svg>
