<svg xmlns="http://www.w3.org/2000/svg" viewBox="0 0 20 20"><path d="M15 10.5c2.49 0 4.5 2.01 4.5 4.5s-2.01 4.5-4.5 4.5-4.5-2.01-4.5-4.5 2.01-4.5 4.5-4.5m-3.75-.5a6.24 6.24 0 0 0-2.5 5H4.5c-.28 0-.5.22-.5.5v2c0 .28-.22.5-.5.5h-1c-.28 0-.5-.22-.5-.5v-2c0-.28-.22-.5-.5-.5h-1c-.28 0-.5-.22-.5-.5V12c0-1.1.9-2 2-2zm1.16 3.48c-.26.45-.41.97-.41 1.52 0 1.66 1.34 3 3 3 .56 0 1.08-.15 1.52-.42l-4.11-4.11ZM15 12c-.56 0-1.08.15-1.52.42l4.11 4.11c.26-.45.42-.97.42-1.52 0-1.66-1.34-3-3-3H15Zm1-10c1.1 0 2 .9 2 2v5h-1.25c-.24-.07-.49-.13-.75-.17V7.5c0-.83-.67-1.5-1.5-1.5h-2c-.83 0-1.5.67-1.5 1.5V9H9V7.5C9 6.67 8.33 6 7.5 6h-2C4.67 6 4 6.67 4 7.5V9H2V4c0-1.1.9-2 2-2z"/></svg>