<svg xmlns="http://www.w3.org/2000/svg" xmlns:xlink="http://www.w3.org/1999/xlink" id="Layer_1" x="0" y="0" version="1.1" viewBox="0 0 20 20" style="enable-background:new 0 0 20 20" xml:space="preserve"><path d="M4 8.93133C4 9.30295 3.89557 9.6671 3.69861 9.98223L1.67719 13.2165C1.5614 13.4018 1.5 13.6158 1.5 13.8343C1.5 14.4781 2.02189 15 2.66569 15H17.3343C17.9781 15 18.5 14.4781 18.5 13.8343C18.5 13.6158 18.4386 13.4018 18.3228 13.2165L16.3014 9.98223C16.1044 9.6671 16 9.30295 16 8.93133V7C16 3.68629 13.3137 1 10 1C6.68629 1 4 3.68629 4 7V8.93133ZM10 19C8.51353 19 7.27954 17.9189 7.0415 16.5H12.9585C12.7205 17.9189 11.4865 19 10 19Z"/></svg>