<?xml version="1.0" encoding="UTF-8"?>
<svg id="Layer_1" xmlns="http://www.w3.org/2000/svg" xmlns:xlink="http://www.w3.org/1999/xlink" version="1.1" viewBox="0 0 20 20">
  <!-- Generator: Adobe Illustrator 29.0.0, SVG Export Plug-In . SVG Version: 2.1.0 Build 186)  -->
  <defs>
    <style>
      .st0 {
        fill: none;
      }

      .st1 {
        fill-rule: evenodd;
      }

      .st2 {
        clip-path: url(#clippath);
      }
    </style>
    <clipPath id="clippath">
      <rect class="st0" width="20" height="20"/>
    </clipPath>
  </defs>
  <g class="st2">
    <path class="st1" d="M18.657,9.039c-.989-1.083-4.064-4.446-4.212-4.594-.866-.867-2.47-.877-3.326,0-.645.66-1.598.673-2.23,0-.839-.894-2.466-.866-3.333,0-.113.113-3.059,3.344-4.11,4.498-.888.813-1.445,1.981-1.445,3.28,0,2.455,1.99,4.444,4.444,4.444s4.444-1.99,4.444-4.444c0-.342-.039-.674-.112-.994.725-.527,1.721-.527,2.446,0-.073.32-.112.652-.112.994,0,2.455,1.99,4.444,4.444,4.444s4.444-1.99,4.444-4.444c0-1.248-.515-2.376-1.343-3.184ZM4.444,14.444c1.227,0,2.222-.995,2.222-2.222s-.995-2.222-2.222-2.222-2.222.995-2.222,2.222.995,2.222,2.222,2.222ZM17.778,12.222c0,1.227-.995,2.222-2.222,2.222s-2.222-.995-2.222-2.222.995-2.222,2.222-2.222,2.222.995,2.222,2.222Z"/>
  </g>
</svg>