<?xml version="1.0" encoding="UTF-8"?>
<svg id="Layer_1" xmlns="http://www.w3.org/2000/svg" version="1.1" viewBox="0 0 20 20">
  <!-- Generator: Adobe Illustrator 29.1.0, SVG Export Plug-In . SVG Version: 2.1.0 Build 142)  -->
  <path d="M2.753,10.454l2.39-2.482,3.329,3.329H3.113c-.441,0-.666-.529-.36-.847Z"/>
  <path d="M11.739,1.123l-3.82,3.967,2.357,2.357,2.289-5.793c.201-.509-.445-.925-.825-.531Z"/>
  <path d="M16.824,8.301h-5.695l3.604,3.604,2.464-2.772c.287-.322.058-.832-.374-.832Z"/>
  <path d="M8.282,19.163l3.789-4.263-2.235-2.235-2.392,5.98c-.208.52.466.937.838.518Z"/>
  <path d="M3.707,2.293c-.391-.391-1.024-.391-1.414,0-.391.391-.391,1.024,0,1.414l14,14c.39.391,1.024.391,1.414,0,.391-.39.391-1.024,0-1.414L3.707,2.293Z"/>
</svg>
