<?xml version="1.0" encoding="utf-8"?>
<!-- Generator: Adobe Illustrator 28.1.0, SVG Export Plug-In . SVG Version: 6.00 Build 0)  -->
<svg version="1.1" id="Layer_1" xmlns="http://www.w3.org/2000/svg" xmlns:xlink="http://www.w3.org/1999/xlink" x="0px" y="0px"
	 viewBox="0 0 20 20" style="enable-background:new 0 0 20 20;" xml:space="preserve">
<path d="M4,3c0-1.105,0.895-2,2-2h8c1.105,0,2,0.895,2,2v0.202c-0.045,0.088-0.086,0.182-0.122,0.281
	c-0.06,0.166-0.102,0.245-0.12,0.275c-0.031,0.019-0.109,0.061-0.275,0.12c-0.628,0.226-1.031,0.66-1.256,1.133
	C14.15,5.004,14.074,5,14,5c-0.804,0-1.84,0.443-2.242,1.562c-0.186,0.518-0.325,0.698-0.412,0.784
	c-0.087,0.087-0.266,0.226-0.784,0.412C9.443,8.16,9,9.196,9,10c0,0.804,0.443,1.84,1.562,2.242
	c0.518,0.186,0.698,0.325,0.784,0.412c0.087,0.087,0.226,0.266,0.412,0.784C12.16,14.557,13.196,15,14,15c0.673,0,1.51-0.311,2-1.07
	v4.13c0,0.813-0.918,1.286-1.58,0.814L10,15.725l-4.42,3.149C4.918,19.346,4,18.872,4,18.06V3z"/>
<path d="M19.841,5.76c0.212,0.076,0.212,0.403,0,0.479C18.95,6.56,18.56,6.95,18.24,7.841c-0.076,0.212-0.403,0.212-0.479,0
	C17.44,6.95,17.05,6.56,16.159,6.24c-0.212-0.076-0.212-0.403,0-0.479C17.05,5.44,17.44,5.05,17.76,4.159
	c0.076-0.212,0.403-0.212,0.479,0C18.56,5.05,18.95,5.44,19.841,5.76z"/>
<path d="M14.359,7.238c0.48,1.336,1.066,1.922,2.402,2.402c0.318,0.114,0.318,0.605,0,0.719c-1.336,0.48-1.922,1.066-2.402,2.402
	c-0.114,0.318-0.605,0.318-0.719,0c-0.48-1.336-1.066-1.922-2.402-2.402c-0.318-0.114-0.318-0.605,0-0.719
	c1.336-0.48,1.922-1.066,2.402-2.402C13.755,6.921,14.245,6.921,14.359,7.238z"/>
</svg>
