<?xml version="1.0" encoding="utf-8"?>
<!-- Generator: Adobe Illustrator 24.3.0, SVG Export Plug-In . SVG Version: 6.00 Build 0)  -->
<svg version="1.1" id="Layer_1" xmlns="http://www.w3.org/2000/svg" xmlns:xlink="http://www.w3.org/1999/xlink" x="0px" y="0px"
	 viewBox="0 0 20 20" style="enable-background:new 0 0 20 20;" xml:space="preserve">
<path d="M13.8,5V3.8c0-0.6-0.5-1.2-1.2-1.2h-5C6.8,2.5,6.2,3,6.2,3.8V5H5v12.5h10V5H13.8z M7.5,3.8h5V5h-5V3.8z"/>
<path d="M3.8,5H2.5C1.8,5,1.2,5.5,1.2,6.2v10c0,0.8,0.5,1.2,1.2,1.2h1.2V5z"/>
<path d="M17.5,5h-1.2v12.5h1.2c0.8,0,1.2-0.5,1.2-1.2v-10C18.8,5.5,18.2,5,17.5,5z"/>
</svg>
