<svg xmlns="http://www.w3.org/2000/svg" xmlns:xlink="http://www.w3.org/1999/xlink" id="Layer_1" x="0" y="0" version="1.1" viewBox="0 0 20 20" style="enable-background:new 0 0 20 20" xml:space="preserve"><style type="text/css">.st0{fill-rule:evenodd;clip-rule:evenodd}</style><path d="M6,5c0-1.7,1.3-3,3-3h2c1.7,0,3,1.3,3,3v13H6V5z M8,5c0-0.6,0.4-1,1-1h2c0.6,0,1,0.4,1,1v1H8V5z" class="st0"/><path d="M2,6C1.4,6,1,6.4,1,7v10c0,0.6,0.4,1,1,1h2V6H2z"/><path d="M18,6h-2v12h2c0.6,0,1-0.4,1-1V7C19,6.4,18.6,6,18,6z"/></svg>