<?xml version="1.0" encoding="utf-8"?>
<!-- Generator: Adobe Illustrator 24.3.0, SVG Export Plug-In . SVG Version: 6.00 Build 0)  -->
<svg version="1.1" id="Layer_1" xmlns="http://www.w3.org/2000/svg" xmlns:xlink="http://www.w3.org/1999/xlink" x="0px" y="0px"
	 viewBox="0 0 20 20" style="enable-background:new 0 0 20 20;" xml:space="preserve">
<path d="M18.1,9.5h-2.8l0.1-2.3v0c0-0.5-0.1-0.9-0.3-1.4l2.4-2.4c0.1-0.1,0.2-0.3,0.2-0.4c0-0.2-0.1-0.3-0.2-0.4
	c-0.1-0.1-0.3-0.2-0.4-0.2c-0.2,0-0.3,0.1-0.4,0.2l-2.2,2.2c-0.5-0.5-1.3-0.8-2-0.9v2.5c0,0.2-0.1,0.3-0.2,0.4C12.2,7,12,7,11.9,7
	S11.6,7,11.4,6.8c-0.1-0.1-0.2-0.3-0.2-0.4V3.9H8.8v2.5c0,0.2-0.1,0.3-0.2,0.4C8.4,7,8.3,7,8.1,7S7.8,7,7.7,6.8
	C7.6,6.7,7.5,6.6,7.5,6.4V3.9c-0.7,0-1.5,0.3-2,0.9L3.3,2.5C3.1,2.4,3,2.4,2.8,2.4c-0.2,0-0.3,0.1-0.4,0.2C2.3,2.7,2.2,2.8,2.2,3
	c0,0.2,0.1,0.3,0.2,0.4l2.4,2.4C4.6,6.3,4.5,6.7,4.5,7.2l0.1,2.3H1.9c-0.2,0-0.3,0.1-0.4,0.2C1.3,9.8,1.2,10,1.2,10.2
	c0,0.2,0.1,0.3,0.2,0.4c0.1,0.1,0.3,0.2,0.4,0.2h2.8l0,0.6c1.6-0.8,3.4-1.2,5.2-1.2c1.8,0,3.6,0.4,5.2,1.2l0-0.6h2.8
	c0.2,0,0.3-0.1,0.4-0.2c0.1-0.1,0.2-0.3,0.2-0.4c0-0.2-0.1-0.3-0.2-0.4C18.4,9.6,18.3,9.5,18.1,9.5z"/>
<path d="M14.6,13.9c0.2-0.4,0.4-0.8,0.5-1.2c-1.6-0.8-3.3-1.3-5.1-1.3c-1.8,0-3.5,0.4-5.1,1.3c0.1,0.4,0.3,0.8,0.5,1.2l-2.7,2.7
	c-0.1,0.1-0.1,0.1-0.1,0.2c0,0.1,0,0.2,0,0.2c0,0.1,0,0.2,0,0.2c0,0.1,0.1,0.1,0.1,0.2c0.1,0.1,0.1,0.1,0.2,0.1c0.1,0,0.2,0,0.2,0
	c0.1,0,0.2,0,0.2,0c0.1,0,0.1-0.1,0.2-0.1l2.6-2.6c0.5,0.5,1,0.9,1.6,1.1c0.6,0.3,1.3,0.4,2,0.4h0.5c0.7,0,1.3-0.1,2-0.4
	c0.6-0.3,1.2-0.6,1.6-1.1l2.6,2.6c0.1,0.1,0.3,0.2,0.4,0.2c0.2,0,0.3-0.1,0.4-0.2c0.1-0.1,0.2-0.3,0.2-0.4c0-0.2-0.1-0.3-0.2-0.4
	L14.6,13.9z"/>
</svg>
