<?xml version="1.0" encoding="utf-8"?>
<!-- Generator: Adobe Illustrator 26.5.0, SVG Export Plug-In . SVG Version: 6.00 Build 0)  -->
<svg version="1.1" id="Layer_1" xmlns="http://www.w3.org/2000/svg" xmlns:xlink="http://www.w3.org/1999/xlink" x="0px" y="0px"
	 viewBox="0 0 21 20" style="enable-background:new 0 0 21 20;" xml:space="preserve">
<path d="M11,1c2.8,0,4.7,2.2,5,4.5C16,5.8,15.8,6,15.5,6h-9C6.2,6,6,5.8,6,5.5C6.3,3.2,8.2,1,11,1z"/>
<path d="M6,8L6,8L6,8L5,8C3.9,8,3,7.1,3,6V5c0-0.6-0.4-1-1-1C1.4,4,1,4.4,1,5v1c0,2.2,1.8,4,4,4h0.5C5.8,10,6,10.2,6,10.5
	C6,10.8,5.8,11,5.5,11H2c-0.6,0-1,0.4-1,1c0,0.6,0.4,1,1,1h3.8c0.2,0,0.4,0.2,0.5,0.4c0.1,0.3-0.1,0.7-0.4,0.8C4.2,14.7,3,16.2,3,18
	v1c0,0.6,0.4,1,1,1c0.6,0,1-0.4,1-1v-1c0-1.1,0.9-2,2-2l2.5,0c0.3,0,0.5-0.2,0.5-0.5l0-1.5l0-5c0-0.5-0.5-1-1-1L6,8z"/>
<path d="M16.5,10c-0.3,0-0.5,0.2-0.5,0.5c0,0.3,0.2,0.5,0.5,0.5H20c0.6,0,1,0.4,1,1c0,0.6-0.4,1-1,1h-3.7c-0.2,0-0.4,0.2-0.5,0.4
	c-0.1,0.3,0.1,0.7,0.4,0.8c1.6,0.5,2.8,2,2.8,3.8v1c0,0.6-0.4,1-1,1s-1-0.4-1-1v-1c0-1.1-0.9-2-2-2h-2.5c-0.3,0-0.5-0.2-0.5-0.5
	l0-1.5l0-5c0-0.4,0.5-1,1-1l3,0h1c1.1,0,2-0.9,2-2V5c0-0.6,0.4-1,1-1c0.6,0,1,0.4,1,1v1c0,2.2-1.8,4-4,4H16.5z"/>
</svg>
