<svg xmlns="http://www.w3.org/2000/svg" id="Layer_1" version="1.1" viewBox="0 0 20 20"><defs><style>.st0{fill-rule:evenodd}</style></defs><path d="M1,3c0-1.105.895-2,2-2h6c1.105,0,2,.895,2,2v2h6c1.105,0,2,.895,2,2v10c0,1.105-.895,2-2,2h-9v-3c0-.552-.448-1-1-1h-2c-.552,0-1,.448-1,1v3h-1c-1.105,0-2-.895-2-2V3ZM3,4c0-.552.448-1,1-1s1,.448,1,1-.448,1-1,1-1-.448-1-1ZM3,8c0-.552.448-1,1-1s1,.448,1,1-.448,1-1,1-1-.448-1-1ZM4,11c-.552,0-1,.448-1,1s.448,1,1,1,1-.448,1-1-.448-1-1-1ZM7,4c0-.552.448-1,1-1s1,.448,1,1-.448,1-1,1-1-.448-1-1ZM8,7c-.552,0-1,.448-1,1s.448,1,1,1,1-.448,1-1-.448-1-1-1ZM7,12c0-.552.448-1,1-1s1,.448,1,1-.448,1-1,1-1-.448-1-1ZM12,7c-.552,0-1,.448-1,1s.448,1,1,1,1-.448,1-1-.448-1-1-1ZM15,8c0-.552.448-1,1-1s1,.448,1,1-.448,1-1,1-1-.448-1-1ZM16,11c-.552,0-1,.448-1,1s.448,1,1,1,1-.448,1-1-.448-1-1-1ZM15,16c0-.552.448-1,1-1s1,.448,1,1-.448,1-1,1-1-.448-1-1ZM12,11c-.552,0-1,.448-1,1s.448,1,1,1,1-.448,1-1-.448-1-1-1ZM11,16c0-.552.448-1,1-1s1,.448,1,1-.448,1-1,1-1-.448-1-1Z" class="st0"/></svg>