<svg xmlns="http://www.w3.org/2000/svg" id="Layer_1" viewBox="0 0 20 20"><defs><style>.st0{fill-rule:evenodd}</style></defs><path d="M1 3a2 2 0 0 1 2-2h6a2 2 0 0 1 2 2v2h6a2 2 0 0 1 2 2v10a2 2 0 0 1-2 2H8v-3a1 1 0 0 0-1-1H5a1 1 0 0 0-1 1v3H3a2 2 0 0 1-2-2zm2 1a1 1 0 1 1 2 0 1 1 0 0 1-2 0m0 4a1 1 0 1 1 2 0 1 1 0 0 1-2 0m1 3a1 1 0 1 0 0 2 1 1 0 0 0 0-2m3-7a1 1 0 1 1 2 0 1 1 0 0 1-2 0m1 3a1 1 0 1 0 0 2 1 1 0 0 0 0-2m-1 5a1 1 0 1 1 2 0 1 1 0 0 1-2 0m5-5a1 1 0 1 0 0 2 1 1 0 0 0 0-2m3 1a1 1 0 1 1 2 0 1 1 0 0 1-2 0m1 3a1 1 0 1 0 0 2 1 1 0 0 0 0-2m-1 5a1 1 0 1 1 2 0 1 1 0 0 1-2 0m-3-5a1 1 0 1 0 0 2 1 1 0 0 0 0-2m-1 5a1 1 0 1 1 2 0 1 1 0 0 1-2 0" class="st0"/></svg>