<svg xmlns="http://www.w3.org/2000/svg" xml:space="preserve" id="Layer_1" x="0" y="0" viewBox="0 0 20 20"><style>.st0{fill-rule:evenodd;clip-rule:evenodd}</style><path d="M15.2 1H4.8C3.8 1 3 1.8 3 2.8v14.5c0 1 .8 1.8 1.8 1.8H8v-3.2c0-.5.4-.9.8-.9h2.4c.4 0 .8.4.8.8V19h3.2c1 0 1.8-.8 1.8-1.8V2.8c0-1-.8-1.8-1.8-1.8m-2.1 12H6.9c-.6 0-1-.4-1-1s.4-1 1-1h6.2c.6 0 1 .4 1 1s-.4 1-1 1m0-4H6.9c-.6 0-1-.4-1-1s.4-1 1-1h6.2c.6 0 1 .4 1 1s-.4 1-1 1m0-4H6.9c-.6 0-1-.4-1-1s.4-1 1-1h6.2c.6 0 1 .4 1 1s-.4 1-1 1" class="st0"/></svg>