<?xml version="1.0" encoding="UTF-8"?>
<svg id="Layer_1" data-name="Layer 1" xmlns="http://www.w3.org/2000/svg" version="1.1" viewBox="0 0 20 20">
  <path class="cls-1" d="M3,3c-1.105,0-2,.895-2,2v3h18v-3c0-1.105-.895-2-2-2H3Z"/>
  <path class="cls-1" d="M19,10H1v7c0,1.105.895,2,2,2h14c1.105,0,2-.895,2-2v-7Z"/>
  <path class="cls-1" d="M6,1c-.552,0-1,.448-1,1v2c0,.552.448,1,1,1s1-.448,1-1v-2c0-.552-.448-1-1-1Z"/>
  <path class="cls-1" d="M14,1c-.552,0-1,.448-1,1v2c0,.552.448,1,1,1s1-.448,1-1v-2c0-.552-.448-1-1-1Z"/>
</svg>