<svg xmlns="http://www.w3.org/2000/svg" viewBox="0 0 20 20"><path fill-rule="evenodd" d="M12.65 1.5a1.5 1.5 0 0 1 1.286.729L15 4h3a2 2 0 0 1 2 2v10a2 2 0 0 1-2 2H2a2 2 0 0 1-2-2V6a2 2 0 0 1 2-2h3l1.063-1.771c.272-.452.76-.729 1.287-.729zm-1.9 9.5a.75.75 0 0 0 0 1.5h.902c-.406.566-1.027.902-1.686.902-.797 0-1.535-.491-1.911-1.287a.823.823 0 0 0-1.082-.39.79.79 0 0 0-.398 1.061C7.18 14.068 8.449 15 9.967 15c.989 0 1.871-.395 2.533-1.025v.275a.75.75 0 0 0 1.5 0V11zm-.717-4c-.989 0-1.871.395-2.533 1.025V7.75a.75.75 0 0 0-1.5 0V11h3.25a.75.75 0 0 0 0-1.5h-.901c.407-.566 1.026-.902 1.685-.902.797 0 1.535.491 1.911 1.287.189.4.674.575 1.083.39a.793.793 0 0 0 .398-1.061C12.82 7.932 11.551 7 10.033 7"/></svg>