<svg xmlns="http://www.w3.org/2000/svg" viewBox="0 0 20 20"><path fill-rule="evenodd" d="M15 10.5c2.49 0 4.5 2.01 4.5 4.5s-2.01 4.5-4.5 4.5-4.5-2.01-4.5-4.5 2.01-4.5 4.5-4.5m-2.59 2.98c-.26.45-.41.97-.41 1.52 0 1.66 1.34 3 3 3 .56 0 1.08-.15 1.52-.42l-4.11-4.11ZM15 12c-.56 0-1.08.15-1.52.42l4.11 4.11c.26-.45.42-.97.42-1.52 0-1.66-1.34-3-3-3Z"/><path fill-rule="evenodd" d="M10 2c2.69 0 4.93.45 6.11.75.57.14 1.02.57 1.24 1.11L18.21 6h.8c.55 0 1 .45 1 1v.5c0 .28-.22.5-.5.5h-.58c.05.25.08.51.08.77v1.43A6.25 6.25 0 0 0 8.84 14H5.01v2c0 .55-.45 1-1 1h-2c-.55 0-1-.45-1-1V8.77c0-.26.03-.52.08-.77H.51c-.28 0-.5-.22-.5-.5V7c0-.55.45-1 1-1h.8l.86-2.14c.22-.55.67-.97 1.24-1.11C5.09 2.45 7.33 2 10.02 2ZM3.62 9.16a.498.498 0 0 0-.62.49v.36c0 .55.45 1 1 1h2.28c.4 0 .72-.32.72-.72 0-.16-.11-.31-.27-.35zM10 4c-3.04 0-4.59.44-5.19.66-.2.08-.35.25-.44.45l-.7 1.67c-.1.24 0 .5.25.58.73.23 2.52.64 6.08.64s5.34-.4 6.08-.64c.25-.08.35-.34.25-.58l-.7-1.67a.78.78 0 0 0-.44-.45C14.59 4.43 13.04 4 10 4"/></svg>