<svg xmlns="http://www.w3.org/2000/svg" viewBox="0 0 20 20"><path fill-rule="evenodd" d="M1 8.77V16a1 1 0 0 0 1 1h2a1 1 0 0 0 1-1v-2h7.901a3 3 0 0 1 2.599-1.5h1.934c.562 0 1.102.157 1.566.441v-4.17A4 4 0 0 0 18.925 8h.575a.5.5 0 0 0 .5-.5V7a1 1 0 0 0-1-1h-.8l-.855-2.139c-.219-.546-.666-.968-1.236-1.112A25.6 25.6 0 0 0 10 2c-2.693 0-4.933.453-6.109.75-.57.143-1.017.565-1.235 1.111L1.8 6H1a1 1 0 0 0-1 1v.5a.5.5 0 0 0 .5.5h.575A4 4 0 0 0 1 8.77m2.675-1.99.695-1.669a.8.8 0 0 1 .437-.446C5.41 4.436 6.957 4 10 4s4.59.436 5.192.665a.8.8 0 0 1 .438.447l.695 1.668c.1.238-.003.503-.248.582-.736.233-2.522.638-6.078.638s-5.341-.405-6.076-.638c-.245-.079-.347-.344-.248-.582M13 10.28a.36.36 0 0 1 .272-.348l3.107-.777A.5.5 0 0 1 17 9.64V10a1 1 0 0 1-1 1h-2.28a.72.72 0 0 1-.72-.72M3 9.64a.5.5 0 0 1 .621-.485l3.107.777A.36.36 0 0 1 7 10.28a.72.72 0 0 1-.72.719H4a1 1 0 0 1-1-1zm12.5 4.86a1 1 0 0 0-1 1v.5H8.25a.25.25 0 0 0-.25.25v.616a.25.25 0 0 0 .111.208l1.137.758a1 1 0 0 0 .555.168H14.5v.5a1 1 0 0 0 1 1h1.934a1 1 0 0 0 .857-.485l.592-.986a2 2 0 0 0 0-2.058l-.592-.985a1 1 0 0 0-.857-.486zM18 17a.5.5 0 1 1-1 0 .5.5 0 0 1 1 0" clip-rule="evenodd"/></svg>