<svg xmlns="http://www.w3.org/2000/svg" xml:space="preserve" viewBox="0 0 20 20"><path d="M15.5 11a1 1 0 0 1 1 1v2.5H19a1 1 0 1 1 0 2h-2.5V19a1 1 0 1 1-2 0v-2.5H12a1 1 0 1 1 0-2h2.5V12a1 1 0 0 1 1-1"/><path d="M10 3c2.693 0 4.932.453 6.108.749.57.144 1.018.566 1.237 1.112L18.2 7h.8a1 1 0 0 1 1 1v.5a.5.5 0 0 1-.5.5h-.575q.075.38.075.77v2.73h-.5V12a3 3 0 1 0-6 0v.5H12A3 3 0 0 0 9.042 15H5v2a1 1 0 0 1-1 1H2a1 1 0 0 1-1-1V9.77q0-.39.075-.77H.5a.5.5 0 0 1-.5-.5V8a1 1 0 0 1 1-1h.8l.855-2.139c.219-.546.666-.968 1.237-1.112A25.6 25.6 0 0 1 10 3m-6.379 7.155a.5.5 0 0 0-.621.486V11a1 1 0 0 0 1 1h2.281A.72.72 0 0 0 7 11.281a.36.36 0 0 0-.272-.35zM10 5c-3.042 0-4.59.436-5.192.664a.8.8 0 0 0-.438.447l-.695 1.67c-.1.237.003.502.248.58.734.234 2.52.639 6.076.639s5.342-.405 6.077-.639c.246-.078.348-.343.25-.58l-.696-1.67a.8.8 0 0 0-.438-.447C14.59 5.436 13.042 5 10 5"/><path d="M15.5 11a1 1 0 0 1 1 1v2.5H19a1 1 0 1 1 0 2h-2.5V19a1 1 0 1 1-2 0v-2.5H12a1 1 0 1 1 0-2h2.5V12a1 1 0 0 1 1-1"/></svg>