<?xml version="1.0" encoding="utf-8"?>
<!-- Generator: Adobe Illustrator 27.3.1, SVG Export Plug-In . SVG Version: 6.00 Build 0)  -->
<svg version="1.1" id="Layer_1" xmlns="http://www.w3.org/2000/svg" xmlns:xlink="http://www.w3.org/1999/xlink" x="0px" y="0px"
	 viewBox="0 0 20 20" style="enable-background:new 0 0 20 20;" xml:space="preserve">
<path d="M5.6,0.4C6.4,0.1,7.2,0,8,0c3.1,0,5.9,1.8,7.2,4.4C15.7,5.5,16,6.7,16,8c0,0.7-0.1,1.4-0.3,2h-1.9c0.2-0.6,0.3-1.3,0.3-2
	c0-1.3-0.4-2.5-1.1-3.6h-0.7c-1.4,0-1.8,1.2-1.8,1.8C10.1,6.4,8.9,6.9,8.9,8c0,1.3,0.4,1.8,1.8,1.8c0.2,0,0.4,0.1,0.6,0.2H9
	c-0.7,0-1.4,0.2-1.9,0.7h0c-1.8,0-1.8-0.9-1.8-1.8C5.3,8.2,3.6,8,2.7,8c-0.1-0.9,0-2.7,1.8-2.7c1.3,0,1.8-0.4,1.8-1.3
	s0.4-1.3,1.3-1.3c0.8,0,1.4-0.3,1.8-0.7C8.9,1.8,8.5,1.8,8,1.8C4.6,1.8,1.8,4.6,1.8,8c0,2.7,1.8,5.1,4.2,5.9v1.9c-2.2-0.6-4-2-5-4
	C0.3,10.7,0,9.4,0,8C0,4.4,2.4,1.4,5.6,0.4z"/>
<path d="M8,13c0-0.6,0.4-1,1-1h10c0.6,0,1,0.4,1,1v1H8V13z"/>
<path d="M8,15h12v4c0,0.6-0.4,1-1,1H9c-0.6,0-1-0.4-1-1V15z"/>
</svg>
