<svg xmlns="http://www.w3.org/2000/svg" xml:space="preserve" id="Layer_1" x="0" y="0" viewBox="0 0 264 172"><style>.st0,.st1{stroke:#002140}.st0{fill:#780505}.st1{stroke-linejoin:round}.st1,.st2{fill:#f25730}.st2,.st3,.st4{stroke:#002140}.st3{fill:#bf3013}.st4{fill:#780505;stroke-linejoin:round}</style><path d="M9.317 92c-8-9.2.333-26.167 5.5-33.5 10.667 1.333 38.8 4.9 66 8.5s45.667 9.833 48.5 14c-1.166 2.667-2.2 6.7 27-10.5s76.167-13.833 96-10c1.334 1.667 4.1 8.1 4.5 20.5s-2.833 16.833-4.5 17.5c-2.833 2.167-13.5 5.2-33.5 0s-72-2.167-95.5 0c-34.667 1.667-106 2.7-114-6.5z" class="st0"/><path d="M195.271 80.313c-.969-8.347-2.663-16.382-4.278-21.089-9.426 1.413-18.687 3.766-27.002 7.395.671 4.117 1.142 9.213 1.451 14.434a326 326 0 0 1 .508 14.853c10.335-.324 20.803-.399 30.082-.027.176-4.855-.15-10.301-.761-15.566zm44.807-.696c-.989-8.514-2.73-16.706-4.374-21.37-8.408-.752-18.204-1.106-28.361-.608-.159.848-.077 1.777.238 2.774l.127.416c1.292 4.394 2.085 11.838 2.541 19.527.351 5.935.495 11.936.526 16.673 3.033.393 5.754.875 8.041 1.47 8.997 2.339 16.089 3.005 21.445 2.84.99-6.035.705-14.067-.183-21.722zM64.008 64.793a11122 11122 0 0 0-28.118-3.626c-1.687 4.476-3.64 10.656-4.93 17.097-1.335 6.664-1.972 13.72-.784 19.43 8.508.937 18.858 1.472 29.791 1.726.229-4.823.638-11.087 1.271-17.269.672-6.575 1.59-12.939 2.77-17.358zm44.143 7.32c-7.526-1.918-16.767-3.715-27.334-5.113l-.549-.073c-.911 4.786-1.836 11.969-1.89 19.302-.034 4.533.27 9.18 1.138 13.372 10.868-.033 21.585-.263 30.996-.582a325 325 0 0 1-1.67-14.701c-.38-4.29-.643-8.515-.691-12.205z" class="st1"/><path d="M141.127 158.204a.99.99 0 0 1 1.114.803c.275 1.511.605 3.5.855 5.405.153 1.164.277 2.309.341 3.299.035.558.054 1.098.041 1.578-.014.527-.49.888-1.015.83l-1.05-.117c-.574-.064-.998-.604-1.006-1.181a19 19 0 0 0-.04-.952 49 49 0 0 0-.328-3.16 114 114 0 0 0-.816-5.179 1.01 1.01 0 0 1 .851-1.18z" class="st2"/><path d="M146.361 157.058a.99.99 0 0 1 1.099.787c.269 1.356.588 3.124.829 4.818a42 42 0 0 1 .333 2.979c.033.482.05.948.039 1.367-.013.515-.477.864-.989.814l-1.042-.103c-.587-.057-1.028-.616-1.043-1.206a16 16 0 0 0-.035-.721 40 40 0 0 0-.32-2.854 92 92 0 0 0-.778-4.549 1.01 1.01 0 0 1 .859-1.199z" class="st3"/><path d="M151.516 155.927a.99.99 0 0 1 1.103.79c.269 1.383.59 3.188.833 4.918.15 1.07.273 2.122.334 3.033.033.494.051.973.04 1.402-.014.517-.48.868-.994.817l-1.043-.105c-.586-.059-1.024-.614-1.037-1.202a17 17 0 0 0-.036-.76 42 42 0 0 0-.321-2.906 95 95 0 0 0-.785-4.656 1.01 1.01 0 0 1 .858-1.195z" class="st2"/><path d="M156.699 154.785a.99.99 0 0 1 1.091.777 83 83 0 0 1 .813 4.482c.149.986.269 1.956.328 2.795.031.438.048.863.038 1.247-.012.507-.468.848-.972.802l-1.035-.093c-.597-.054-1.05-.626-1.07-1.225a14 14 0 0 0-.031-.585 35 35 0 0 0-.315-2.678 82 82 0 0 0-.754-4.184c-.12-.579.278-1.14.865-1.212z" class="st3"/><path d="M161.863 153.653a.99.99 0 0 1 1.091.777c.265 1.271.577 2.917.814 4.495.148.988.268 1.96.328 2.802.031.44.047.866.038 1.252-.012.506-.469.848-.974.802l-1.035-.094c-.596-.054-1.049-.625-1.068-1.224q-.009-.27-.031-.59a36 36 0 0 0-.316-2.684 81 81 0 0 0-.755-4.198 1.01 1.01 0 0 1 .865-1.211z" class="st2"/><path d="M167.023 152.521a.99.99 0 0 1 1.091.778c.266 1.279.579 2.935.816 4.524.148.993.268 1.971.328 2.816.031.444.048.874.038 1.263-.012.507-.469.849-.975.803l-1.035-.095c-.596-.054-1.047-.624-1.066-1.222a15 15 0 0 0-.032-.602 37 37 0 0 0-.316-2.699 82 82 0 0 0-.757-4.229 1.01 1.01 0 0 1 .864-1.209z" class="st3"/><path d="M172.184 151.389a.99.99 0 0 1 1.092.779c.266 1.282.579 2.946.816 4.54.149.997.269 1.977.329 2.826.031.445.048.877.038 1.267-.012.508-.47.851-.976.804l-1.036-.095c-.595-.054-1.046-.623-1.064-1.221a15 15 0 0 0-.032-.609 37 37 0 0 0-.316-2.707 82 82 0 0 0-.759-4.247 1.01 1.01 0 0 1 .864-1.209z" class="st2"/><path d="M177.353 150.254a.99.99 0 0 1 1.089.774c.264 1.249.574 2.865.81 4.413.148.972.268 1.929.327 2.756.031.43.047.846.038 1.223-.013.504-.467.844-.97.799l-1.033-.092c-.599-.053-1.054-.627-1.075-1.228a16 16 0 0 0-.03-.557 34 34 0 0 0-.315-2.64 80 80 0 0 0-.748-4.109 1.01 1.01 0 0 1 .865-1.214z" class="st3"/><path d="M182.481 149.14a.99.99 0 0 1 1.109.798c.273 1.459.599 3.375.846 5.208.152 1.126.276 2.234.338 3.192.035.532.053 1.048.041 1.507-.014.524-.486.881-1.007.825l-1.047-.112c-.579-.062-1.008-.607-1.018-1.189a18 18 0 0 0-.038-.875 46 46 0 0 0-.326-3.058 105 105 0 0 0-.804-4.968 1.01 1.01 0 0 1 .854-1.186z" class="st2"/><path d="M162.921 69.008c-9.949-2.689-52.018 0-44.77 8.068 5.638 6.275 16.482 24.653 11.441 41.685-3.183 10.758 3.923 33.773 10.224 42.738 0 0 1.983-1 20-6.5 18.018-5.5 24-4.5 24-4.5-1.326-3.138-3.982-8.99-8.459-20.083-5.969-14.792 1.057-18.826 4.477-28.687s-6.964-30.031-16.913-32.721z" class="st4"/><path d="M178.853 104.219c.347-.792.679-1.617.981-2.489 1.794-5.173-.213-13.179-3.96-20.014-23.339-3.189-42.656 2.039-50.869 5.678 3.207 6.23 5.927 14.158 5.879 22.32 20.756-6.426 37.946-6.675 47.969-5.495zm.16 35.086a687 687 0 0 1-3.656-8.888c-2.292-5.681-2.664-9.772-2.064-13.219-19.284.155-35.097 5.504-44.43 10.091.389 7.385 2.721 16.377 5.635 23.75 12.924-4.677 23.6-7.794 32.022-9.663 4.955-1.1 9.11-1.762 12.493-2.071z" class="st1"/></svg>