<svg xmlns="http://www.w3.org/2000/svg" width="20" height="20" viewBox="0 0 20 20"><path d="M5.62104 0.359664C6.37256 0.12592 7.17157 0 8 0C11.1411 0 13.8594 1.81029 15.1684 4.44444C15.7007 5.51552 16 6.7228 16 8C16 8.6906 15.9125 9.36076 15.748 10H13.8938C14.1067 9.37232 14.2222 8.69964 14.2222 8C14.2222 6.678 13.8099 5.4523 13.1069 4.44444H12.4444C11.0222 4.44444 10.6667 5.62963 10.6667 6.22222C10.0741 6.37037 8.88889 6.93333 8.88889 8C8.88889 9.33333 9.33333 9.77778 10.6667 9.77778C10.8632 9.77778 11.0597 9.86466 11.2178 10H9C8.28557 10 7.62946 10.2497 7.11422 10.6667L7.11111 10.6667C5.33333 10.6667 5.33333 9.77778 5.33333 8.88889C5.33333 8.17778 3.55442 8 2.66496 8C2.51681 7.11111 2.66496 5.33333 4.44274 5.33333C5.77778 5.33333 6.22222 4.88889 6.22222 4C6.22222 3.11111 6.66667 2.66667 7.55556 2.66667C8.33925 2.66667 8.96939 2.35958 9.35575 1.92591C8.91932 1.82892 8.46563 1.77778 8 1.77778C4.56356 1.77778 1.77778 4.56356 1.77778 8C1.77778 10.7368 3.54469 13.0609 6 13.8938V15.748C3.82051 15.187 2.00048 13.7307 0.955377 11.7945C0.345926 10.6654 0 9.37308 0 8C0 4.41015 2.3645 1.37256 5.62104 0.359664Z"/><path d="M8 13C8 12.4477 8.44772 12 9 12H19C19.5523 12 20 12.4477 20 13V14H8V13Z"/><path d="M8 15H20V19C20 19.5523 19.5523 20 19 20H9C8.44771 20 8 19.5523 8 19V15Z"/></svg>