<?xml version="1.0" encoding="UTF-8"?>
<svg xmlns="http://www.w3.org/2000/svg" version="1.1" viewBox="0 0 20 20">
  <defs>
    <style>
      .cls-1 {
        fill-rule: evenodd;
      }
    </style>
  </defs>
  <!-- Generator: Adobe Illustrator 28.6.0, SVG Export Plug-In . SVG Version: 1.2.0 Build 709)  -->
  <g>
    <g id="Layer_1">
      <path class="cls-1" d="M10,.879l5.061,5.061c.586.586.586,1.536,0,2.121-.586.586-1.536.586-2.121,0l-2.939-2.939-2.939,2.939c-.586.586-1.536.586-2.121,0-.586-.586-.586-1.536,0-2.121L10,.879Z"/>
      <path class="cls-1" d="M4.939,11.939c.586-.586,1.536-.586,2.121,0l2.939,2.939,2.939-2.939c.586-.586,1.536-.586,2.121,0,.586.586.586,1.536,0,2.121l-5.061,5.061-5.061-5.061c-.586-.586-.586-1.536,0-2.121Z"/>
    </g>
  </g>
</svg>