<?xml version="1.0" encoding="utf-8"?>
<!-- Generator: Adobe Illustrator 24.0.2, SVG Export Plug-In . SVG Version: 6.00 Build 0)  -->
<svg version="1.1" id="Layer_1" xmlns="http://www.w3.org/2000/svg" xmlns:xlink="http://www.w3.org/1999/xlink" x="0px" y="0px"
	 viewBox="0 0 613 432" style="enable-background:new 0 0 613 432;" xml:space="preserve">
<style type="text/css">
	.st0{clip-path:url(#SVGID_2_);}
	.st1{clip-path:url(#SVGID_4_);}
	.st2{fill:#FED607;}
	.st3{fill:#03D47C;}
	.st4{fill:#0185FF;}
	.st5{fill:#0B1B34;}
	.st6{fill:#FFFFFF;}
	.st7{clip-path:url(#SVGID_6_);}
	.st8{clip-path:url(#SVGID_8_);}
</style>
<g>
	<defs>
		<rect id="SVGID_1_" x="0.4" y="0.1" width="612.2" height="431.6"/>
	</defs>
	<clipPath id="SVGID_2_">
		<use xlink:href="#SVGID_1_"  style="overflow:visible;"/>
	</clipPath>
	<g class="st0">
		<g>
			<defs>
				<path id="SVGID_3_" d="M179.2,200.1l160.2-46.6c4-1.2,8.2,1.1,9.3,5.1l27.6,94.9c1.2,4-1.1,8.2-5.1,9.3L211,309.5
					c-4,1.2-8.2-1.1-9.3-5.1l-27.6-94.9C172.9,205.5,175.2,201.3,179.2,200.1z"/>
			</defs>
			<clipPath id="SVGID_4_">
				<use xlink:href="#SVGID_3_"  style="overflow:visible;"/>
			</clipPath>
			<g class="st1">
				<path class="st2" d="M179.2,200.1l160.2-46.6c4-1.2,8.2,1.1,9.3,5.1l27.6,94.9c1.2,4-1.1,8.2-5.1,9.3L211,309.5
					c-4,1.2-8.2-1.1-9.3-5.1l-27.6-94.9C172.9,205.5,175.2,201.3,179.2,200.1z"/>
				<path class="st3" d="M345.5,259.8l-8.7-80.6c-1-9.1-6.3-16.7-13.6-21l-124.8,36.3l8.8,80.2c1.6,15.3,15.4,26.2,30.5,24.6
					l13.1-1.4l93.8-27.3C345.6,267.2,346,263.6,345.5,259.8z"/>
				<path class="st4" d="M322.4,261.6l3-74.3c0.4-10.2-3.1-19.7-9-27l-136,39.6l-1.1,27.5l18.7,64.3c5.4,3.1,11.7,5.1,18.4,5.4
					l32.4,1.4l69.1-20.1C320.5,273.4,322.1,267.6,322.4,261.6z"/>
				<path class="st5" d="M298.6,263.6l13.9-68.8c2.3-11.4,0.4-22.6-4.6-32.2c0,0-82.8,24.1-135.9,39.5
					c11.7,40.3,31.8,109.3,31.8,109.3l82-23.9C292.1,281.3,296.7,273.1,298.6,263.6z"/>
				<path class="st6" d="M205.9,228.3l8.1-2.3l-0.7-2.4l-5.1,1.5l-0.7-2.2l4.4-1.3l-0.7-2.4l-4.4,1.3l-0.6-2.1l5.1-1.5l-0.7-2.4
					l-8.1,2.3L205.9,228.3z"/>
				<path class="st3" d="M218.4,218.4c0.7,2.4,0.5,4.9-0.4,7l2.3,1.3c1.2-2.7,1.5-5.9,0.6-9c-0.9-3.1-2.8-5.6-5.3-7.2l-1.3,2.3
					C216.2,214.1,217.7,216,218.4,218.4z"/>
				<path class="st4" d="M216.9,227.3c-1.3,1.9-3.3,3.4-5.7,4.1c-2.4,0.7-4.8,0.5-6.9-0.4l-1.3,2.3c2.7,1.2,5.9,1.5,8.9,0.6
					c3.1-0.9,5.6-2.9,7.3-5.4L216.9,227.3z"/>
				<path class="st2" d="M202.4,230.1c-2-1.3-3.5-3.3-4.2-5.8c-1.6-5.6,1.6-11.4,7.1-13c2.5-0.7,5-0.5,7.2,0.5l1.3-2.3
					c-2.8-1.3-6-1.6-9.2-0.7c-6.9,2-10.9,9.3-8.9,16.3c0.9,3.1,2.9,5.7,5.5,7.4L202.4,230.1z"/>
				<path class="st6" d="M217.8,294.6c1.2-0.3,1.7-1.3,1.3-2.5c-0.3-1.1-1.3-1.7-2.4-1.3l-1.5,0.4l1.1,3.8L217.8,294.6z
					 M216.3,291.6l0.6-0.2c0.7-0.2,1.1,0.2,1.3,0.9c0.2,0.7,0,1.4-0.6,1.6l-0.6,0.2L216.3,291.6z M220.6,293.8
					c0.3-0.1,0.5-0.4,0.4-0.7c-0.1-0.3-0.4-0.5-0.7-0.4c-0.3,0.1-0.5,0.4-0.4,0.7C220,293.8,220.2,293.9,220.6,293.8z M224.8,290.4
					c0.4-0.2,0.6-0.6,0.4-1c-0.2-0.6-0.7-0.9-1.6-0.6l-1.7,0.5l1.1,3.8l1.8-0.5c0.9-0.3,1.2-0.9,1-1.5
					C225.7,290.6,225.3,290.3,224.8,290.4z M223.7,289.4c0.4-0.1,0.6,0,0.7,0.3c0.1,0.3,0,0.5-0.4,0.6l-0.6,0.2l-0.3-0.9
					L223.7,289.4z M223.8,292.1l-0.3-1l0.6-0.2c0.4-0.1,0.6,0,0.7,0.3c0.1,0.3,0,0.6-0.5,0.7L223.8,292.1z M227.4,291.8
					c0.4-0.1,0.7-0.4,0.8-0.8c0,0.1,0.1,0.3,0.2,0.4l0.8-0.2c-0.1-0.2-0.2-0.4-0.3-0.7l-0.3-0.9c-0.2-0.8-0.7-1-1.6-0.7
					c-0.8,0.2-1.1,0.7-1,1.3l0.9-0.2c-0.1-0.3,0.1-0.4,0.3-0.5c0.3-0.1,0.4,0,0.5,0.3l0,0.1l-0.6,0.3c-0.4,0.2-0.6,0.3-0.8,0.5
					c-0.1,0.2-0.2,0.4-0.1,0.7C226.4,291.8,226.9,292,227.4,291.8z M227.6,291.2c-0.2,0.1-0.4,0-0.5-0.2c-0.1-0.2,0.1-0.4,0.4-0.5
					l0.4-0.2l0.1,0.2C228.1,290.8,227.9,291.1,227.6,291.2z M229.8,288.2l-0.8,0.2l0.8,2.7l0.9-0.3l-0.3-1.1c-0.1-0.3-0.1-0.5,0-0.7
					c0.1-0.1,0.2-0.2,0.5-0.3c0.1,0,0.1,0,0.2,0l-0.2-0.8l-0.1,0c-0.5,0.1-0.7,0.5-0.7,1L229.8,288.2z M232,287.5l-0.8,0.2l0.8,2.7
					l0.9-0.3l-0.3-1.1c-0.1-0.3-0.1-0.5,0-0.7c0.1-0.1,0.2-0.2,0.5-0.3c0.1,0,0.1,0,0.2,0l-0.2-0.8l-0.1,0c-0.5,0.1-0.7,0.5-0.7,1
					L232,287.5z M236.3,287.7c-0.2-0.9-0.9-1.2-1.7-1c-0.8,0.2-1.2,1-0.9,1.8c0.3,0.9,0.9,1.2,1.8,1c0.6-0.2,0.9-0.6,1-1.1l-0.7-0.1
					c-0.1,0.3-0.2,0.5-0.5,0.5c-0.4,0.1-0.7-0.1-0.8-0.4l1.9-0.5L236.3,287.7z M234.3,288c-0.1-0.4,0-0.7,0.4-0.8
					c0.3-0.1,0.6,0.1,0.7,0.4l0,0L234.3,288z M236.7,286.8l0.4,1.2c0.2,0.6,0.6,0.8,1.3,0.6c0.2,0,0.3-0.1,0.5-0.2l-0.2-0.7
					c-0.1,0-0.1,0.1-0.2,0.1c-0.3,0.1-0.4,0-0.5-0.3l-0.3-1l0.6-0.2l-0.2-0.6l-0.6,0.2l-0.3-1l-0.8,0.6l0.2,0.6l-0.5,0.1l0.2,0.6
					L236.7,286.8z M239,286.1l0.4,1.2c0.2,0.6,0.6,0.8,1.3,0.6c0.2,0,0.3-0.1,0.5-0.2l-0.2-0.7c-0.1,0-0.1,0.1-0.2,0.1
					c-0.3,0.1-0.4,0-0.5-0.3l-0.3-1l0.6-0.2l-0.2-0.6l-0.6,0.2l-0.3-1l-0.8,0.6l0.2,0.6l-0.5,0.1l0.2,0.6L239,286.1z"/>
			</g>
		</g>
		<g>
			<defs>
				<path id="SVGID_5_" d="M452.6,257.9l153.1,66.3c3.8,1.7,5.6,6.1,3.9,9.9l-39.3,90.7c-1.7,3.8-6.1,5.6-9.9,3.9l-153.1-66.3
					c-3.8-1.7-5.6-6.1-3.9-9.9l39.3-90.7C444.4,258,448.8,256.3,452.6,257.9z"/>
			</defs>
			<clipPath id="SVGID_6_">
				<use xlink:href="#SVGID_5_"  style="overflow:visible;"/>
			</clipPath>
			<g class="st7">
				<path class="st2" d="M452.6,257.9l153.1,66.3c3.8,1.7,5.6,6.1,3.9,9.9l-39.3,90.7c-1.7,3.8-6.1,5.6-9.9,3.9l-153.1-66.3
					c-3.8-1.7-5.6-6.1-3.9-9.9l39.3-90.7C444.4,258,448.8,256.3,452.6,257.9z"/>
				<path class="st3" d="M542.6,410l44.7-67.6c5-7.6,5.8-16.9,2.9-24.9l-119.3-51.7l-44.4,67.3c-8.5,12.8-4.9,30,7.8,38.4l11,7.3
					l89.7,38.9C537.9,415.7,540.5,413.2,542.6,410z"/>
				<path class="st4" d="M523.6,396.6l49.7-55.3c6.8-7.6,10.2-17.1,10.3-26.5l-129.9-56.3L435.3,279l-26.6,61.5
					c2.2,5.9,5.7,11.4,10.7,15.9l24,21.7l66,28.6C514.7,404.5,519.6,401.1,523.6,396.6z"/>
				<path class="st5" d="M504,383l54.6-44.1c9-7.3,14.8-17.1,17-27.7c0,0-79.1-34.3-129.8-56.3c-16.7,38.5-45.2,104.4-45.2,104.4
					l78.3,33.9C487.8,392.5,496.5,389.1,504,383z"/>
				<path class="st6" d="M455.2,296.7l7.7,3.3l1-2.3l-4.9-2.1l0.9-2.1l4.2,1.8l1-2.3l-4.2-1.8l0.9-2l4.9,2.1l1-2.3l-7.7-3.3
					L455.2,296.7z"/>
				<path class="st3" d="M471.1,297c-1,2.3-2.7,4.1-4.8,5.1l1,2.4c2.7-1.3,4.9-3.6,6.2-6.6c1.3-2.9,1.4-6.1,0.5-8.9l-2.4,1
					C472.2,292.3,472.1,294.7,471.1,297z"/>
				<path class="st4" d="M464.3,302.9c-2.2,0.6-4.7,0.5-7-0.5c-2.3-1-4-2.7-5.1-4.7l-2.4,1c1.3,2.7,3.6,4.9,6.5,6.1
					c3,1.3,6.2,1.4,9,0.5L464.3,302.9z"/>
				<path class="st2" d="M451.4,295.8c-0.7-2.3-0.6-4.8,0.4-7.2c2.3-5.3,8.5-7.8,13.8-5.5c2.4,1,4.1,2.8,5.2,4.9l2.4-1
					c-1.3-2.7-3.6-5.1-6.6-6.4c-6.6-2.9-14.4,0.2-17.2,6.8c-1.3,3-1.4,6.3-0.5,9.2L451.4,295.8z"/>
				<path class="st6" d="M422.1,355.3c1.1,0.5,2.1,0,2.6-1.1c0.5-1.1,0.1-2.1-1-2.6l-1.5-0.6l-1.6,3.6L422.1,355.3z M422.8,352
					l0.5,0.2c0.6,0.3,0.7,0.9,0.4,1.6c-0.3,0.7-0.9,1.1-1.5,0.8l-0.5-0.2L422.8,352z M424.7,356.5c0.3,0.1,0.6,0,0.7-0.3
					c0.1-0.3,0-0.6-0.3-0.7c-0.3-0.1-0.6,0-0.7,0.3C424.2,356,424.3,356.3,424.7,356.5z M430.1,356.5c0.5,0.1,0.8-0.1,1-0.5
					c0.2-0.5,0-1.1-0.8-1.5l-1.6-0.7l-1.6,3.6l1.7,0.7c0.8,0.4,1.4,0.1,1.7-0.5C430.7,357.2,430.6,356.8,430.1,356.5z M429.9,355
					c0.4,0.2,0.5,0.4,0.3,0.7c-0.1,0.2-0.3,0.4-0.7,0.2l-0.5-0.2l0.4-0.9L429.9,355z M428.3,357.2l0.4-1l0.6,0.3
					c0.4,0.2,0.5,0.4,0.3,0.7c-0.1,0.3-0.4,0.4-0.8,0.2L428.3,357.2z M431.2,359.3c0.4,0.2,0.8,0.1,1.1-0.1
					c-0.1,0.1-0.1,0.3-0.1,0.4l0.8,0.3c0-0.2,0.1-0.4,0.2-0.7l0.4-0.9c0.3-0.7,0.1-1.2-0.7-1.6c-0.7-0.3-1.3-0.2-1.6,0.4l0.8,0.4
					c0.1-0.2,0.3-0.3,0.6-0.2c0.3,0.1,0.3,0.3,0.2,0.6l0,0.1l-0.7-0.2c-0.4-0.1-0.7-0.1-0.9-0.1c-0.2,0-0.4,0.2-0.5,0.4
					C430.5,358.6,430.7,359.1,431.2,359.3z M431.8,358.9c-0.2-0.1-0.3-0.3-0.2-0.5c0.1-0.2,0.3-0.2,0.6-0.2l0.5,0.1l-0.1,0.2
					C432.4,358.9,432.1,359.1,431.8,358.9z M435.4,358l-0.8-0.3l-1.1,2.6l0.8,0.4l0.5-1c0.1-0.3,0.3-0.5,0.5-0.6
					c0.2,0,0.3,0,0.6,0.1c0.1,0,0.1,0,0.2,0.1l0.3-0.8l-0.1,0c-0.4-0.2-0.8-0.1-1.2,0.4L435.4,358z M437.5,358.9l-0.8-0.3l-1.1,2.6
					l0.8,0.4l0.5-1c0.1-0.3,0.3-0.5,0.5-0.6c0.2,0,0.3,0,0.6,0.1c0.1,0,0.1,0,0.2,0.1l0.3-0.8l-0.1,0c-0.4-0.2-0.8-0.1-1.2,0.4
					L437.5,358.9z M440.7,361.7c0.4-0.8,0.1-1.5-0.7-1.8c-0.8-0.3-1.5,0-1.9,0.8c-0.4,0.8-0.1,1.5,0.8,1.9c0.5,0.2,1.1,0.2,1.5-0.2
					l-0.5-0.5c-0.2,0.2-0.5,0.2-0.7,0.1c-0.3-0.1-0.5-0.5-0.3-0.8l1.8,0.8L440.7,361.7z M439,360.8c0.2-0.4,0.4-0.5,0.8-0.4
					c0.3,0.1,0.4,0.4,0.2,0.8l0,0L439,360.8z M441.6,361.3l-0.5,1.2c-0.2,0.6-0.1,1,0.6,1.3c0.1,0.1,0.3,0.1,0.5,0.2l0.3-0.7
					c-0.1,0-0.1,0-0.2-0.1c-0.2-0.1-0.3-0.3-0.2-0.6l0.4-1l0.6,0.3l0.2-0.5l-0.6-0.3l0.4-0.9l-1,0l-0.3,0.6l-0.4-0.2l-0.2,0.6
					L441.6,361.3z M443.8,362.3l-0.5,1.2c-0.2,0.6-0.1,1,0.6,1.3c0.1,0.1,0.3,0.1,0.5,0.2l0.3-0.7c-0.1,0-0.1,0-0.2-0.1
					c-0.2-0.1-0.3-0.3-0.2-0.6l0.4-1l0.6,0.3l0.2-0.5l-0.6-0.3l0.4-0.9l-1,0l-0.3,0.6l-0.4-0.2l-0.2,0.5L443.8,362.3z"/>
			</g>
		</g>
		<g>
			<defs>
				<path id="SVGID_7_" d="M41.7,2.4l159.1,50c4,1.2,6.2,5.5,4.9,9.4l-29.6,94.3c-1.2,4-5.5,6.2-9.4,4.9L7.5,111
					c-4-1.2-6.2-5.5-4.9-9.4L32.2,7.3C33.5,3.3,37.7,1.1,41.7,2.4z"/>
			</defs>
			<clipPath id="SVGID_8_">
				<use xlink:href="#SVGID_7_"  style="overflow:visible;"/>
			</clipPath>
			<g class="st8">
				<path class="st2" d="M41.7,2.4l159.1,50c4,1.2,6.2,5.5,4.9,9.4l-29.6,94.3c-1.2,4-5.5,6.2-9.4,4.9L7.5,111
					c-4-1.2-6.2-5.5-4.9-9.4L32.2,7.3C33.5,3.3,37.7,1.1,41.7,2.4z"/>
				<path class="st3" d="M147,144.2l37.4-71.9c4.2-8.1,4-17.4,0.3-25l-124-39L23.5,79.9c-7.1,13.6-1.8,30.3,11.8,37.4l11.7,6.1
					l93.2,29.3C142.9,150.4,145.3,147.6,147,144.2z"/>
				<path class="st4" d="M126.8,132.9l43.7-60.2c6-8.3,8.3-18.1,7.5-27.5L42.8,2.8L26.6,25.1L6.6,89c2.8,5.6,6.9,10.8,12.3,14.7
					l26.2,19.1l68.6,21.6C118.7,141.6,123.2,137.8,126.8,132.9z"/>
				<path class="st5" d="M105.8,121.4l49.7-49.5c8.2-8.2,12.9-18.6,14-29.3c0,0-82.3-25.9-135-42.4C21.9,40.1,0.4,108.7,0.4,108.7
					l81.5,25.6C90.6,132.5,99,128.2,105.8,121.4z"/>
				<path class="st6" d="M48.3,40.6l8,2.5l0.7-2.4L52,39.2l0.7-2.2l4.3,1.4l0.8-2.4l-4.3-1.4l0.7-2.1l5.1,1.6l0.7-2.4l-8-2.5
					L48.3,40.6z"/>
				<path class="st3" d="M64.1,39.3c-0.8,2.4-2.3,4.3-4.2,5.6l1.2,2.3c2.5-1.6,4.5-4.1,5.5-7.2c1-3.1,0.7-6.2-0.4-8.9l-2.3,1.2
					C64.7,34.5,64.9,36.9,64.1,39.3z"/>
				<path class="st4" d="M58,45.9c-2.2,0.9-4.6,1-7,0.3c-2.4-0.7-4.3-2.2-5.5-4.1l-2.3,1.2c1.6,2.5,4.1,4.5,7.1,5.4
					c3.1,1,6.3,0.7,9-0.4L58,45.9z"/>
				<path class="st2" d="M44.4,40.1c-0.9-2.2-1.1-4.7-0.3-7.2c1.7-5.5,7.6-8.6,13.2-6.9c2.5,0.8,4.4,2.3,5.7,4.3l2.3-1.2
					c-1.6-2.6-4.1-4.6-7.2-5.6c-6.9-2.2-14.3,1.7-16.4,8.6c-1,3.1-0.7,6.4,0.5,9.2L44.4,40.1z"/>
				<path class="st6" d="M21.5,102.4c1.1,0.4,2.1-0.2,2.5-1.3c0.4-1.1-0.1-2.1-1.3-2.5l-1.5-0.5l-1.2,3.8L21.5,102.4z M21.8,99
					l0.6,0.2c0.7,0.2,0.8,0.8,0.6,1.5c-0.2,0.7-0.7,1.1-1.4,0.9l-0.6-0.2L21.8,99z M24.1,103.3c0.3,0.1,0.6-0.1,0.7-0.4
					c0.1-0.3,0-0.6-0.4-0.7c-0.3-0.1-0.6,0.1-0.7,0.4C23.7,102.9,23.8,103.2,24.1,103.3z M29.6,102.7c0.5,0,0.8-0.2,0.9-0.6
					c0.2-0.6-0.1-1.1-1-1.4l-1.7-0.5l-1.2,3.8l1.8,0.6c0.9,0.3,1.4-0.1,1.6-0.7C30.2,103.4,30.1,103,29.6,102.7z M29.2,101.3
					c0.4,0.1,0.5,0.4,0.4,0.6c-0.1,0.3-0.3,0.4-0.7,0.3l-0.6-0.2l0.3-0.9L29.2,101.3z M27.8,103.7l0.3-1l0.6,0.2
					c0.4,0.1,0.5,0.4,0.4,0.7c-0.1,0.3-0.3,0.4-0.8,0.3L27.8,103.7z M31,105.4c0.4,0.1,0.8,0.1,1-0.2c0,0.2-0.1,0.3-0.1,0.4l0.8,0.3
					c0-0.2,0.1-0.4,0.2-0.8l0.3-0.9c0.2-0.8,0-1.2-0.9-1.5c-0.8-0.2-1.3,0-1.6,0.5l0.8,0.3c0.1-0.3,0.3-0.3,0.6-0.3
					c0.3,0.1,0.4,0.3,0.3,0.6l0,0.1l-0.7-0.1c-0.4-0.1-0.7-0.1-0.9,0c-0.2,0.1-0.4,0.2-0.5,0.5C30.1,104.8,30.4,105.2,31,105.4z
					 M31.4,105c-0.2-0.1-0.3-0.2-0.3-0.4c0.1-0.2,0.2-0.3,0.6-0.2l0.5,0.1l-0.1,0.2C32.1,104.9,31.8,105.1,31.4,105z M35,103.7
					l-0.8-0.3l-0.8,2.7l0.9,0.3l0.3-1.1c0.1-0.3,0.2-0.5,0.4-0.6c0.1-0.1,0.3-0.1,0.6,0c0.1,0,0.1,0,0.2,0.1l0.3-0.8l-0.1,0
					c-0.5-0.1-0.8,0-1.1,0.5L35,103.7z M37.2,104.4l-0.8-0.3l-0.8,2.7l0.9,0.3l0.3-1.1c0.1-0.3,0.2-0.5,0.4-0.6
					c0.1-0.1,0.3-0.1,0.6,0c0.1,0,0.1,0,0.2,0.1l0.3-0.8l-0.1,0c-0.5-0.1-0.8,0-1.1,0.5L37.2,104.4z M40.6,106.8
					c0.3-0.8-0.1-1.5-0.9-1.7c-0.8-0.3-1.5,0.1-1.8,1c-0.3,0.9,0.1,1.5,1,1.8c0.6,0.2,1.1,0.1,1.4-0.3l-0.5-0.5
					c-0.2,0.2-0.4,0.3-0.7,0.2c-0.4-0.1-0.5-0.4-0.4-0.8l1.9,0.6L40.6,106.8z M38.8,106c0.1-0.4,0.4-0.5,0.7-0.4
					c0.3,0.1,0.4,0.4,0.3,0.7l0,0L38.8,106z M41.5,106.3l-0.4,1.2c-0.2,0.6,0,1,0.7,1.2c0.2,0,0.3,0.1,0.5,0.1l0.2-0.7
					c-0.1,0-0.2,0-0.3-0.1c-0.3-0.1-0.3-0.3-0.3-0.5l0.3-1l0.6,0.2l0.2-0.6l-0.6-0.2l0.3-1l-1,0.1l-0.2,0.6l-0.5-0.1l-0.2,0.6
					L41.5,106.3z M43.8,107.1l-0.4,1.2c-0.2,0.6,0,1,0.7,1.2c0.2,0,0.3,0.1,0.5,0.1l0.2-0.7c-0.1,0-0.2,0-0.3-0.1
					c-0.3-0.1-0.3-0.3-0.3-0.5l0.3-1l0.6,0.2l0.2-0.6l-0.6-0.2l0.3-1l-1,0.1l-0.2,0.6l-0.5-0.1l-0.2,0.6L43.8,107.1z"/>
			</g>
		</g>
	</g>
</g>
</svg>
