<?xml version="1.0" encoding="utf-8"?>
<!-- Generator: Adobe Illustrator 26.5.0, SVG Export Plug-In . SVG Version: 6.00 Build 0)  -->
<svg version="1.1" id="Layer_1" xmlns="http://www.w3.org/2000/svg" xmlns:xlink="http://www.w3.org/1999/xlink" x="0px" y="0px"
	 viewBox="0 0 20 20" style="enable-background:new 0 0 20 20;" xml:space="preserve">
<path d="M1,13v-2c0-1.1,0.9-2,2-2s2,0.9,2,2c0,0.6,0.4,1,1,1h8c0.6,0,1-0.4,1-1c0-1.1,0.9-2,2-2s2,0.9,2,2v2c0,0.4-0.1,0.8-0.3,1.1
	C18.1,15,17,15.9,17,17h-2v-2H5v2H3c0-1.1-1.1-2-1.7-2.9C1.1,13.8,1,13.4,1,13z"/>
<path d="M4,7h0.6C5.9,7,7,8.1,7,9.4C7,9.7,7.3,10,7.6,10h4.8c0.3,0,0.6-0.3,0.6-0.6C13,8.1,14.1,7,15.4,7H16V4c0-1.1-0.9-2-2-2H6
	C4.9,2,4,2.9,4,4V7z"/>
</svg>
