<svg xmlns="http://www.w3.org/2000/svg" xmlns:xlink="http://www.w3.org/1999/xlink" id="Layer_1" x="0" y="0" enable-background="new 0 0 20 20" version="1.1" viewBox="0 0 20 20" xml:space="preserve"><path fill-rule="evenodd" d="M1.8,13.6c0.1-0.3,0-0.6-0.2-0.9C0.6,11.5,0,10,0,8.4c0-4.4,4.5-8,10-8	c5.5,0,10,3.6,10,8c0,1.3-0.4,2.6-1.1,3.7C18.5,10.9,17.4,10,16,10c-1.7,0-3,1.3-3,3c-1.7,0-3,1.3-3,3c0,0.1,0,0.3,0,0.4l0,0	c-0.9,0-1.8-0.1-2.7-0.3c-0.2-0.1-0.5,0-0.7,0.1l-5.2,2.7c-0.4,0.2-0.8-0.1-0.7-0.6L1.8,13.6z M19,15h-2v-2c0-0.6-0.4-1-1-1	c-0.6,0-1,0.4-1,1v2h-2c-0.6,0-1,0.4-1,1c0,0.6,0.4,1,1,1h2v2c0,0.6,0.4,1,1,1c0.6,0,1-0.4,1-1v-2h2c0.6,0,1-0.4,1-1	C20,15.4,19.6,15,19,15z" clip-rule="evenodd"/></svg>