<?xml version="1.0" encoding="utf-8"?>
<!-- Generator: Adobe Illustrator 27.9.0, SVG Export Plug-In . SVG Version: 6.00 Build 0)  -->
<svg version="1.1" id="Layer_1" xmlns="http://www.w3.org/2000/svg" xmlns:xlink="http://www.w3.org/1999/xlink" x="0px" y="0px"
	 viewBox="0 0 20 20" style="enable-background:new 0 0 20 20;" xml:space="preserve">
<style type="text/css">
	.st0{fill-rule:evenodd;clip-rule:evenodd;}
</style>
<path class="st0" d="M2.4,11.4c0.1-0.2,0-0.5-0.2-0.7C1.4,9.7,1,8.6,1,7.3c0-3.4,3.5-6.2,7.8-6.2c4.3,0,7.8,2.8,7.8,6.2
	c0,0.9-0.2,1.8-0.7,2.6c-1.1-0.7-2.5-0.6-3.5,0.4l-3.3,3.3c-0.1,0-0.2,0-0.3,0c-0.7,0-1.4-0.1-2.1-0.2c-0.2,0-0.4,0-0.6,0.1l-4,2.1
	c-0.3,0.2-0.6-0.1-0.6-0.4L2.4,11.4z M18.2,10.1c0.6,0,1,0.4,1,1v1.1c0,2.4-1.9,4.3-4.3,4.3h-1.5l1.6,1.6c0.4,0.4,0.4,1,0,1.4
	c-0.4,0.4-1,0.4-1.4,0l-4-4l4-4c0.4-0.4,1-0.4,1.4,0c0.4,0.4,0.4,1,0,1.4l-1.6,1.6h1.5c1.3,0,2.3-1,2.3-2.3v-1.1
	C17.2,10.6,17.7,10.1,18.2,10.1z"/>
</svg>
