<?xml version="1.0" encoding="utf-8"?>
<!-- Generator: Adobe Illustrator 27.9.0, SVG Export Plug-In . SVG Version: 6.00 Build 0)  -->
<svg version="1.1" id="Layer_1" xmlns="http://www.w3.org/2000/svg" xmlns:xlink="http://www.w3.org/1999/xlink" x="0px" y="0px"
	 viewBox="0 0 20 20" style="enable-background:new 0 0 20 20;" xml:space="preserve">
<style type="text/css">
	.st0{fill-rule:evenodd;clip-rule:evenodd;}
</style>
<path class="st0" d="M13.1,3.4c0-0.6,0.1-1.1,0.4-1.6C12.3,1.4,11,1.1,9.6,1.1c-4.9,0-8.9,3.2-8.9,7.1c0,3.9,4,7.1,8.9,7.1
	c0.8,0,1.6-0.1,2.4-0.3c0.2,0,0.4,0,0.6,0.1l4.6,2.4c0.3,0.2,0.7-0.1,0.6-0.5l-0.9-4.2c-0.1-0.3,0-0.6,0.2-0.8
	c0.9-1.1,1.4-2.4,1.4-3.8c0-0.6-0.1-1.1-0.2-1.6c-0.5,0.2-1,0.4-1.5,0.4C14.7,6.9,13.1,5.3,13.1,3.4z M16.7,5.2c1,0,1.8-0.8,1.8-1.8
	c0-1-0.8-1.8-1.8-1.8c-1,0-1.8,0.8-1.8,1.8C14.9,4.4,15.7,5.2,16.7,5.2z"/>
</svg>
