<svg xmlns="http://www.w3.org/2000/svg" id="Layer_1" data-name="Layer 1" version="1.1" viewBox="0 0 20 20"><path d="M0,8.44c0-.95.21-1.85.58-2.7l11.93,10.44c-.8.17-1.65.26-2.51.26-.93,0-1.82-.1-2.68-.29-.24-.05-.49-.03-.71.09l-5.16,2.7c-.38.2-.81-.14-.72-.55l1.06-4.75c.07-.32-.02-.65-.22-.9-.99-1.24-1.57-2.72-1.57-4.3ZM20,8.44c0,1.74-.7,3.36-1.88,4.67L4.91,1.56c1.49-.71,3.23-1.11,5.09-1.11,5.52,0,10,3.58,10,8ZM1.25,2.34c.36-.42,1-.46,1.41-.09l16,14c.42.36.46,1,.09,1.41-.36.42-1,.46-1.41.09L1.34,3.75c-.42-.36-.46-1-.09-1.41Z"/></svg>