<svg xmlns="http://www.w3.org/2000/svg" xmlns:xlink="http://www.w3.org/1999/xlink" id="Layer_1" x="0" y="0" enable-background="new 0 0 20 20" version="1.1" viewBox="0 0 20 20" xml:space="preserve"><path fill-rule="evenodd" d="M13.1,3.4c0-0.9,0.3-1.7,0.8-2.3c-1.2-0.4-2.5-0.6-4-0.6C4.5,0.4,0,4,0,8.4	c0,4.4,4.5,8,10,8c0.9,0,1.8-0.1,2.7-0.3c0.2-0.1,0.5,0,0.7,0.1l5.2,2.7c0.4,0.2,0.8-0.1,0.7-0.6l-1.1-4.7c-0.1-0.3,0-0.6,0.2-0.9	c1-1.2,1.6-2.7,1.6-4.3c0-1-0.2-1.9-0.6-2.8c-0.7,0.8-1.6,1.3-2.7,1.3C14.7,6.9,13.1,5.3,13.1,3.4z M16.7,5.2c1,0,1.8-0.8,1.8-1.8	c0-1-0.8-1.8-1.8-1.8c-1,0-1.8,0.8-1.8,1.8C14.9,4.4,15.7,5.2,16.7,5.2z" clip-rule="evenodd"/></svg>