<svg xmlns="http://www.w3.org/2000/svg" xmlns:xlink="http://www.w3.org/1999/xlink" id="Layer_1" x="0" y="0" enable-background="new 0 0 20 20" version="1.1" viewBox="0 0 20 20" xml:space="preserve"><path fill-rule="evenodd" d="M1.4,11.8c0.2,0.2,0.3,0.5,0.2,0.8l-0.9,4.3c-0.1,0.4,0.3,0.7,0.6,0.5L6,15	c0.2-0.1,0.4-0.1,0.6-0.1C6.8,14.9,7.1,15,7.4,15l5-5c0.9-0.9,2.2-1.1,3.3-0.6C16.1,8.6,17,8,18,7.9l0,0c0-4-4-7.3-9-7.3	c-5,0-9,3.3-9,7.3C0,9.3,0.5,10.6,1.4,11.8z M18.2,10.1c0.6,0,1,0.4,1,1v1.1c0,2.4-1.9,4.3-4.3,4.3h-1.5l1.6,1.6	c0.4,0.4,0.4,1,0,1.4c-0.4,0.4-1,0.4-1.4,0l-4-4l4-4c0.4-0.4,1-0.4,1.4,0c0.4,0.4,0.4,1,0,1.4l-1.6,1.6h1.5c1.3,0,2.3-1,2.3-2.3	v-1.1C17.2,10.6,17.7,10.1,18.2,10.1z" clip-rule="evenodd"/></svg>