<svg width="18" height="18" viewBox="0 0 18 18" xmlns="http://www.w3.org/2000/svg">
<style type="text/css">.st0{fill-rule:evenodd;clip-rule:evenodd}</style>
<path class="st0" fill-rule="evenodd" clip-rule="evenodd" d="M9 18C13.9706 18 18 13.9706 18 9C18 4.02944 13.9706 0 9 0C4.02944 0 0 4.02944 0 9C0 13.9706 4.02944 18 9 18ZM14.189 6.91464C14.6941 6.25801 14.5712 5.31624 13.9146 4.81114C13.258 4.30604 12.3162 4.42888 11.8111 5.08551L7.76209 10.3492L5.96031 8.84774C5.3239 8.3174 4.37805 8.40338 3.84771 9.0398C3.31736 9.67621 3.40335 10.6221 4.03976 11.1524L8.23798 14.6509L14.189 6.91464Z" />
</svg>