<?xml version="1.0" encoding="utf-8"?>
<!-- Generator: Adobe Illustrator 24.3.0, SVG Export Plug-In . SVG Version: 6.00 Build 0)  -->
<svg version="1.1" id="Layer_1" xmlns="http://www.w3.org/2000/svg" xmlns:xlink="http://www.w3.org/1999/xlink" x="0px" y="0px"
	 viewBox="0 0 20 20" style="enable-background:new 0 0 20 20;" xml:space="preserve">
<path d="M10.4,9l0.5-0.8H9.2L9.8,9C9.9,9.2,10.1,9.2,10.4,9z"/>
<path d="M9.4,11.6L8.5,13h3.1l-1-1.5C10.2,11.1,9.6,11.1,9.4,11.6z"/>
<path d="M10,0C4.5,0,0,4.5,0,10s4.5,10,10,10s10-4.5,10-10S15.5,0,10,0z M11.8,10.2l1.4,3.5h0.6c0.4,0,0.6,0.2,0.6,0.6
	S14.1,15,13.8,15H6.2c-0.4,0-0.6-0.2-0.6-0.6s0.2-0.6,0.6-0.6h0.6l1.4-3.5c0.1-0.2,0.1-0.5,0-0.9L7,6.2H6.2C5.9,6.2,5.6,6,5.6,5.6
	S5.9,5,6.2,5h7.5c0.4,0,0.6,0.2,0.6,0.6s-0.2,0.6-0.6,0.6H13l-1.2,3.1C11.6,9.6,11.6,10,11.8,10.2z"/>
</svg>
