<?xml version="1.0" encoding="utf-8"?>
<!-- Generator: Adobe Illustrator 26.5.0, SVG Export Plug-In . SVG Version: 6.00 Build 0)  -->
<svg version="1.1" id="Layer_1" xmlns="http://www.w3.org/2000/svg" xmlns:xlink="http://www.w3.org/1999/xlink" x="0px" y="0px"
	 viewBox="0 0 20 20" style="enable-background:new 0 0 20 20;" xml:space="preserve">
<path d="M11,2h2v1c0,0.6-0.4,1-1,1H8C7.4,4,7,3.6,7,3V2h2c0-0.6,0.4-1,1-1C10.6,1,11,1.4,11,2z"/>
<path d="M5,2H4C3.4,2,3,2.4,3,3v15c0,0.6,0.4,1,1,1h12c0.6,0,1-0.4,1-1V3c0-0.6-0.4-1-1-1h-1v1c0,1.7-1.3,3-3,3H8C6.3,6,5,4.7,5,3V2
	z"/>
</svg>
