<?xml version="1.0" encoding="utf-8"?>
<!-- Generator: Adobe Illustrator 26.5.0, SVG Export Plug-In . SVG Version: 6.00 Build 0)  -->
<svg version="1.1" id="Layer_1" xmlns="http://www.w3.org/2000/svg" xmlns:xlink="http://www.w3.org/1999/xlink" x="0px" y="0px"
	 viewBox="0 0 20 20" style="enable-background:new 0 0 20 20;" xml:space="preserve">
<style type="text/css">
	.st0{fill-rule:evenodd;clip-rule:evenodd;}
</style>
<path class="st0" d="M4,6l3.1-3.7c1.5-1.8,4.3-1.8,5.8,0L16,6h4v12H0V6H4z M9.3,4.1c0.4-0.4,1.1-0.4,1.5,0L12.3,6H7.7L9.3,4.1z
	 M8.6,8.4C8,7.9,7,7.9,6.4,8.4C5.9,9,5.9,10,6.4,10.6L7.9,12l-1.4,1.4c-0.6,0.6-0.6,1.5,0,2.1c0.6,0.6,1.5,0.6,2.1,0l1.4-1.4
	l1.4,1.4c0.6,0.6,1.5,0.6,2.1,0c0.6-0.6,0.6-1.5,0-2.1L12.1,12l1.4-1.4c0.6-0.6,0.6-1.5,0-2.1c-0.6-0.6-1.5-0.6-2.1,0L10,9.9
	L8.6,8.4z"/>
</svg>
