<?xml version="1.0" encoding="utf-8"?>
<!-- Generator: Adobe Illustrator 24.3.0, SVG Export Plug-In . SVG Version: 6.00 Build 0)  -->
<svg version="1.1" id="Layer_1" xmlns="http://www.w3.org/2000/svg" xmlns:xlink="http://www.w3.org/1999/xlink" x="0px" y="0px"
	 viewBox="0 0 20 20" style="enable-background:new 0 0 20 20;" xml:space="preserve">
<path d="M11.8,10l4-4c0.2-0.2,0.2-0.6,0-0.9l-0.9-0.9C14.6,4,14.2,4,14,4.2l-4,4l-4-4C5.8,4,5.4,4,5.1,4.2L4.2,5.1
	C4,5.4,4,5.8,4.2,6l4,4l-4,4c-0.2,0.2-0.2,0.6,0,0.9l0.9,0.9C5.4,16,5.8,16,6,15.8l4-4l4,4c0.2,0.2,0.6,0.2,0.9,0l0.9-0.9
	c0.2-0.2,0.2-0.6,0-0.9L11.8,10z"/>
</svg>
