<?xml version="1.0" encoding="utf-8"?>
<!-- Generator: Adobe Illustrator 24.3.0, SVG Export Plug-In . SVG Version: 6.00 Build 0)  -->
<svg version="1.1" id="Layer_1" xmlns="http://www.w3.org/2000/svg" xmlns:xlink="http://www.w3.org/1999/xlink" x="0px" y="0px"
	 viewBox="0 0 20 20" style="enable-background:new 0 0 20 20;" xml:space="preserve">
<path d="M17.5,6.2h-1.6l-4.5-4.5C10.6,1,9.5,1,8.8,1.8L4.1,6.2H2.5c-0.8,0-1.2,0.5-1.2,1.2v8.8c0,0.8,0.5,1.2,1.2,1.2h15
	c0.8,0,1.2-0.5,1.2-1.2V7.5C18.8,6.8,18.2,6.2,17.5,6.2z M12.9,13.4c0.2,0.2,0.2,0.6,0,0.9l-0.5,0.5c-0.2,0.2-0.6,0.2-0.9,0L10,13.2
	l-1.5,1.5c-0.2,0.2-0.6,0.2-0.9,0l-0.5-0.5c-0.2-0.2-0.2-0.6,0-0.9l1.5-1.5l-1.5-1.5c-0.2-0.2-0.2-0.6,0-0.9L7.6,9
	c0.2-0.2,0.6-0.2,0.9,0l1.5,1.5L11.5,9c0.2-0.2,0.6-0.2,0.9,0l0.5,0.5c0.2,0.2,0.2,0.6,0,0.9l-1.5,1.5L12.9,13.4z M5.9,6.2l3.6-3.6
	C9.6,2.5,9.9,2.4,10,2.4s0.4,0,0.5,0.1l3.6,3.8H5.9z"/>
</svg>
