<?xml version="1.0" encoding="utf-8"?>
<!-- Generator: Adobe Illustrator 26.5.0, SVG Export Plug-In . SVG Version: 6.00 Build 0)  -->
<svg version="1.1" id="Layer_1" xmlns="http://www.w3.org/2000/svg" xmlns:xlink="http://www.w3.org/1999/xlink" x="0px" y="0px"
	 viewBox="0 0 20 20" style="enable-background:new 0 0 20 20;" xml:space="preserve">
<path d="M14.6,17.4c0.8,0.8,2,0.8,2.8,0c0.8-0.8,0.8-2,0-2.8L12.8,10l4.6-4.6c0.8-0.8,0.8-2,0-2.8c-0.8-0.8-2-0.8-2.8,0L10,7.2
	L5.4,2.6c-0.8-0.8-2-0.8-2.8,0s-0.8,2,0,2.8L7.2,10l-4.6,4.6c-0.8,0.8-0.8,2,0,2.8c0.8,0.8,2,0.8,2.8,0l4.6-4.6L14.6,17.4z"/>
</svg>
