<?xml version="1.0" encoding="UTF-8"?>
<svg id="Layer_1" xmlns="http://www.w3.org/2000/svg" version="1.1" viewBox="0 0 20 20">
  <!-- Generator: Adobe Illustrator 30.3.0, SVG Export Plug-In . SVG Version: 2.1.3 Build 182)  -->
  <path d="M19,3.5c0,1.1-2.24,2-5,2s-5-.9-5-2,2.24-2,5-2,5,.9,5,2Z"/>
  <path d="M14,7.5c1.57,0,3.08-.25,4.28-.73.24-.1.48-.21.72-.34v1.07c0,1.1-2.24,2-5,2-.35,0-.7-.01-1.03-.04,0-.67,0-1.18,0-1.38,0-.23-.04-.44-.1-.62.37.03.75.04,1.13.04Z"/>
  <path d="M12.98,11.46v1.99c.33.03.67.04,1.02.04,2.76,0,5-.9,5-2v-1.07c-.24.13-.48.24-.72.34-1.19.48-2.71.73-4.28.73-.34,0-.68-.01-1.02-.04Z"/>
  <path d="M11,8.5c0,1.1-2.24,2-5,2s-5-.9-5-2,2.24-2,5-2,5,.9,5,2Z"/>
  <path d="M6,12.5c1.57,0,3.08-.25,4.28-.73.24-.1.48-.21.72-.34v1.07c0,1.1-2.24,2-5,2s-5-.9-5-2v-1.07c.24.13.48.24.72.34,1.19.48,2.71.73,4.28.73Z"/>
  <path d="M6,16.5c1.57,0,3.08-.25,4.28-.73.24-.1.48-.21.72-.34v1.07c0,1.1-2.24,2-5,2s-5-.9-5-2v-1.07c.24.13.48.24.72.34,1.19.48,2.71.73,4.28.73Z"/>
</svg>