<?xml version="1.0" encoding="utf-8"?>
<!-- Generator: Adobe Illustrator 26.2.1, SVG Export Plug-In . SVG Version: 6.00 Build 0)  -->
<svg version="1.1" id="Layer_1" xmlns="http://www.w3.org/2000/svg" xmlns:xlink="http://www.w3.org/1999/xlink" x="0px" y="0px"
	 viewBox="0 0 20 20" style="enable-background:new 0 0 20 20;" xml:space="preserve">
<style type="text/css">
	.st0{fill-rule:evenodd;clip-rule:evenodd;}
</style>
<path class="st0" d="M12.2,1.9c0.3,0,0.5,0.2,0.5,0.5v3.4l3.6-3.6c0.2-0.2,0.5-0.2,0.7,0L17.9,3c0.2,0.2,0.2,0.5,0,0.7l-3.6,3.6h3.4
	c0.3,0,0.5,0.2,0.5,0.5V9c0,0.3-0.2,0.5-0.5,0.5H11c-0.3,0-0.5-0.2-0.5-0.5V2.4c0-0.3,0.2-0.5,0.5-0.5H12.2z"/>
<path class="st0" d="M7.8,18.1c-0.3,0-0.5-0.2-0.5-0.5v-3.4l-3.6,3.6c-0.2,0.2-0.5,0.2-0.7,0L2.1,17c-0.2-0.2-0.2-0.5,0-0.7l3.6-3.6
	H2.4c-0.3,0-0.5-0.2-0.5-0.5V11c0-0.3,0.2-0.5,0.5-0.5H9c0.3,0,0.5,0.2,0.5,0.5v6.6c0,0.3-0.2,0.5-0.5,0.5H7.8z"/>
</svg>
