<?xml version="1.0" encoding="utf-8"?>
<!-- Generator: Adobe Illustrator 26.5.0, SVG Export Plug-In . SVG Version: 6.00 Build 0)  -->
<svg version="1.1" id="Layer_1" xmlns="http://www.w3.org/2000/svg" xmlns:xlink="http://www.w3.org/1999/xlink" x="0px" y="0px"
	 viewBox="0 0 20 20" style="enable-background:new 0 0 20 20;" xml:space="preserve">
<path d="M14.1,8h2.4C17.3,8,18,8.7,18,9.5c0,0.8-0.7,1.5-1.5,1.5H10v6.5c0,0.8-0.7,1.5-1.5,1.5S7,18.3,7,17.5v-2.4l-3.4,3.4
	c-0.6,0.6-1.5,0.6-2.1,0c-0.6-0.6-0.6-1.5,0-2.1L4.9,13H2.5C1.7,13,1,12.3,1,11.5S1.7,10,2.5,10H9V9.5c0,0,0,0,0,0v-6
	C9,2.7,9.7,2,10.5,2C11.3,2,12,2.7,12,3.5v2.4l3.4-3.4c0.6-0.6,1.5-0.6,2.1,0c0.6,0.6,0.6,1.5,0,2.1L14.1,8z"/>
</svg>
