<svg xmlns="http://www.w3.org/2000/svg" xmlns:xlink="http://www.w3.org/1999/xlink" id="Layer_1" x="0" y="0" version="1.1" viewBox="0 0 20 20" style="enable-background:new 0 0 20 20" xml:space="preserve"><style type="text/css">.st0{fill-rule:evenodd;clip-rule:evenodd}</style><path d="M1.097,9.615c0.142,0.178,0.206,0.408,0.156,0.63L0.515,13.57c-0.065,0.291,0.24,0.524,0.504,0.386l3.609-1.892	c0.153-0.08,0.33-0.1,0.499-0.062C5.723,12.135,6.351,12.205,7,12.205c3.866,0,7-2.508,7-5.603S10.866,1,7,1	C3.134,1,0,3.508,0,6.603C0,7.712,0.402,8.745,1.097,9.615z M13,17.208c-3.183,0-5.87-1.701-6.72-4.029	c0.237,0.017,0.477,0.026,0.72,0.026c4.199,0,8-2.76,8-6.603c0-0.125-0.004-0.248-0.012-0.371C17.886,6.917,20,9.064,20,11.605	c0,1.109-0.403,2.142-1.097,3.012c-0.142,0.178-0.206,0.408-0.156,0.63l0.739,3.325c0.065,0.291-0.24,0.524-0.504,0.386	l-3.609-1.892c-0.153-0.08-0.33-0.1-0.499-0.062C14.277,17.137,13.649,17.208,13,17.208z" class="st0"/></svg>