<svg xmlns="http://www.w3.org/2000/svg" xml:space="preserve" id="Layer_1" x="0" y="0" viewBox="0 0 20 20"><style>.st0{fill-rule:evenodd;clip-rule:evenodd}</style><path d="M1.097 9.615a.75.75 0 0 1 .156.63L.515 13.57a.35.35 0 0 0 .504.386l3.609-1.892a.73.73 0 0 1 .499-.062A8.6 8.6 0 0 0 7 12.205c3.866 0 7-2.508 7-5.603S10.866 1 7 1 0 3.508 0 6.603c0 1.109.402 2.142 1.097 3.012M13 17.208c-3.183 0-5.87-1.701-6.72-4.029q.356.026.72.026c4.199 0 8-2.76 8-6.603a6 6 0 0 0-.012-.371C17.886 6.917 20 9.064 20 11.605c0 1.109-.403 2.142-1.097 3.012a.75.75 0 0 0-.156.63l.739 3.325a.35.35 0 0 1-.504.386l-3.609-1.892a.73.73 0 0 0-.499-.062 8.6 8.6 0 0 1-1.874.204" class="st0"/></svg>