<svg xmlns="http://www.w3.org/2000/svg" xml:space="preserve" id="Layer_1" x="0" y="0" viewBox="0 0 38 38"><style>.st0{opacity:.9;fill:#002e22;enable-background:new}.st1{fill:#fcfbf9}.st2{fill:#03d47c}.st3{fill:#afbbb0}</style><circle cx="19" cy="19" r="19" class="st0"/><path d="M15.691 25.904c-1.03 0-1.742-.132-1.742-.515 0-.277.304-.383 1.016-.422.185-.053.238-.647.238-1.399v-4.673c0-.713-.066-1.439-.264-1.584-.7-.04-1.016-.132-1.016-.409 0-.383.713-.502 1.61-.502.766 0 1.109.145 1.703.898 1.531 1.914 3.656 4.805 4.686 6.072.026-.33.04-.845.04-1.571v-3.062c0-.805-.053-1.346-.29-1.412-.713-.04-1.003-.132-1.003-.422 0-.37.7-.515 1.782-.515 1.016 0 1.729.145 1.729.515 0 .29-.29.383-1.003.422-.185.053-.238.62-.238 1.412v3.59c0 .898.026 2.072.026 2.93 0 .436-.251.673-.594.673-.37 0-.647-.264-1.016-.752-1.874-2.534-4.066-5.478-5.148-6.679-.04.475-.026 1.175-.026 2.046v3.023c0 .766.053 1.333.29 1.399.726.04 1.003.145 1.003.422-.001.383-.701.515-1.783.515" class="st1"/><path d="M21.878 12.75c.349.557-.092 1.25-.795 1.25h-4.167c-.703 0-1.143-.693-.795-1.25l2.084-3.329c.351-.561 1.238-.561 1.589 0z" class="st2"/><path d="M19 3a.5.5 0 0 1 .5.5v2a.5.5 0 0 1-1 0v-2A.5.5 0 0 1 19 3m0 29a.5.5 0 0 1 .5.5v2a.5.5 0 0 1-1 0v-2a.5.5 0 0 1 .5-.5m16-13a.5.5 0 0 1-.5.5h-2a.5.5 0 0 1 0-1h2a.5.5 0 0 1 .5.5M6 19a.5.5 0 0 1-.5.5h-2a.5.5 0 0 1 0-1h2a.5.5 0 0 1 .5.5M27 5.144a.5.5 0 0 1 .183.683l-1 1.732a.5.5 0 0 1-.866-.5l1-1.732A.5.5 0 0 1 27 5.144M12.5 30.258a.5.5 0 0 1 .183.683l-1 1.732a.5.5 0 0 1-.866-.5l1-1.732a.5.5 0 0 1 .683-.183M32.856 27a.5.5 0 0 1-.683.183l-1.732-1a.5.5 0 0 1 .5-.866l1.732 1a.5.5 0 0 1 .183.683M7.742 12.5a.5.5 0 0 1-.683.183l-1.732-1a.5.5 0 0 1 .5-.866l1.732 1a.5.5 0 0 1 .183.683M32.856 11a.5.5 0 0 1-.183.683l-1.732 1a.5.5 0 0 1-.5-.866l1.732-1a.5.5 0 0 1 .683.183M7.742 25.5a.5.5 0 0 1-.183.683l-1.732 1a.5.5 0 0 1-.5-.866l1.732-1a.5.5 0 0 1 .683.183M27 32.856a.5.5 0 0 1-.683-.183l-1-1.732a.5.5 0 0 1 .866-.5l1 1.732a.5.5 0 0 1-.183.683M12.5 7.742a.5.5 0 0 1-.683-.183l-1-1.732a.5.5 0 0 1 .866-.5l1 1.732a.5.5 0 0 1-.183.683" class="st3"/></svg>