<svg xmlns="http://www.w3.org/2000/svg" id="Layer_1" data-name="Layer 1" version="1.1" viewBox="0 0 273 188"><defs><style>.cls-1,.cls-10,.cls-2,.cls-3,.cls-4,.cls-5,.cls-6,.cls-7,.cls-8,.cls-9{stroke-width:0}.cls-1,.cls-10{fill:#0164bf}.cls-2{fill:#28736d}.cls-3{fill:#8dc8ff}.cls-4{fill:#99f6ff}.cls-5{fill:#4ba6a6}.cls-6{fill:#5be3aa}.cls-11,.cls-7{fill:#50eef6}.cls-8{fill:#4ed7de}.cls-12{stroke-width:1px}.cls-12,.cls-13{fill:none;stroke-linejoin:round}.cls-11,.cls-12,.cls-13{stroke:#002140;stroke-linecap:round}.cls-13{stroke-width:1px}.cls-9{fill:#5ab0ff}.cls-10{fill-rule:evenodd}</style></defs><path d="M221.627,31.19c0-1.683-1.373-3.06-3.056-3.06h-53.46c-1.68,0-3.056,1.377-3.056,3.06v36.503c0,1.683,1.376,3.06,3.056,3.06h53.46c1.683,0,3.056-1.377,3.056-3.06V31.19Z" class="cls-1"/><path d="M221.131,136.085c-4.57-4.09-9.11-5.1-9.777-5.233,1.967-.317,4.237-.497,6.857-.497,5.083,0,9.523,2.417,13.2,5.73h-10.28Z" class="cls-8"/><path d="M20.726,124.339c-.153-.097-.303-.2-.447-.307-.24-.18-.473-.37-.693-.576l1.193.9s-.037-.01-.05-.014h-.003v-.003Z" class="cls-7"/><path d="M21.313,127.286c.437-.587,1.097-.954,2.07-1.18-.57.363-1.503.84-2.07,1.18Z" class="cls-7"/><path d="M223.701,138.752c-.84-1.01-1.707-1.893-2.57-2.667h10.28c1.143,1.03,2.213,2.147,3.206,3.307-4.27-.307-7.916-.333-10.9-.23l-.016-.41Z" class="cls-8"/><path d="M214.984,141.495c-.356-.386-.74-.75-1.146-1.086l.176-.207s3.354-.817,9.704-1.04c2.983-.103,6.629-.077,10.899.23h.004c4.726,5.523,7.683,11.973,8.453,14.373,1.453,4.52-1.29,6.457-5.003,6.457h-11.947c-1.793,0-3.273-.127-4.543-.373l.02-.11c.487-7.75-2.903-14.207-6.617-18.244Z" class="cls-8"/><path d="M221.628,31.19c0-1.683-1.374-3.06-3.057-3.06h-53.459c-1.68,0-3.057,1.377-3.057,3.06v36.503c0,1.683,1.377,3.06,3.057,3.06h53.459c1.683,0,3.057-1.377,3.057-3.06V31.19ZM222.861,77.776h-62.579c-1.51,0-2.9-.54-3.984-1.437-1.396-1.153-2.29-2.897-2.29-4.837V27.22c0-3.45,2.824-6.273,6.274-6.273h62.579c1.403,0,2.703.467,3.75,1.25,1.53,1.147,2.527,2.973,2.527,5.023v44.283c0,3.45-2.824,6.273-6.277,6.273Z" class="cls-8"/><path d="M95.672,158.715h-35.52c-4.52,0-6.03-.86-10.333-4.733-4.307-3.877-28.416-26.05-28.416-26.05l-.38-.166c.083-.177.18-.337.287-.48h.003c.567-.34,1.5-.817,2.07-1.18,1.11-.254,2.633-.324,4.693-.324h104.623c4.343,0,7.846.56,10.846,2.137.717.377,1.403.81,2.067,1.307.646.483,1.823,1.49,3.326,2.826,6.517,5.79,19.2,17.757,21.647,20.207,1.036,1.036,1.816,1.92,2.396,2.763l-.243.25s.86,3.443-3.447,3.443h-41.759v-.43s-2.37-2.366-5.6-5.166c-2.187-1.897-4.52-3.227-9.04-3.227h-21.743c-3.873,0-4.09,2.367-1.29,4.52,2.797,2.153,5.813,4.303,5.813,4.303ZM101.269,129.872h-58.77c-6.183,0-6.73,2.493-4.463,5.17.18.213.377.427.59.64,2.153,2.153,3.713,3.597,5.517,5.253.63.577,1.29,1.18,2.017,1.85,2.8,2.584,5.813,3.447,10.98,3.447h89.766c6.027,0,8.193-.443,4.737-4.307-.39-.436-.764-.846-1.12-1.236-2.257-2.45-3.98-4.084-6.077-5.8-.703-.574-1.453-1.16-2.277-1.79-3.883-2.97-9.16-3.207-14.826-3.223-.507-.004-1.02-.004-1.533-.004h-24.54Z" class="cls-7"/><path d="M23.383,126.106c-.973.226-1.633.593-2.07,1.18h-.003c-.203.123-.36.23-.433.303-.05.05-.09.033-.13-.033.007-.124.01-.25.01-.377,0-.537-.077-1.263-.193-1.927-.003-.543.007-.963.007-.963,0,0,.057.017.157.05h.003c.063.047.127.087.193.127l.023.013c.85.51,1.793.877,2.803,1.057.083.056.133.106.133.143,0,.087-.2.243-.5.427Z" class="cls-2"/><path d="M99,48.5H25.236c-4.593,0-8.353,3.76-8.353,8.353v60.466c0,2.417,1.04,4.603,2.693,6.13l-3.757-2.83-4.55-3.423c-2.963-2.08-4.907-5.517-4.907-9.39v-54.246c0-6.307,5.157-11.463,11.463-11.463h71.717s7.52,4.95,9.457,6.403c-.407-.363.847.633,0,0Z" class="cls-5"/><path d="M199.968,138.912c0-.843.273-1.83.936-2.827h20.227c.863.774,1.73,1.657,2.57,2.667l.017.41c-6.35.223-9.704,1.04-9.704,1.04l-.176.207c-3.817-3.157-9.607-3.947-13.547-1.174h-.32c-.003-.103-.003-.21-.003-.323Z" class="cls-8"/><path d="M185.848,113.602c-1.427.41-2.95.607-4.5.607h-5.113c1.776-3.067,1.936-6.297-.16-9.363v-.377h2.69c1.553,0,2.75-.203,3.653-.637l.863.38c2.794,2.454,3.434,5.624,2.47,9.034l.097.356Z" class="cls-2"/><path d="M20.923,124.466c-.067-.04-.13-.08-.193-.124.013.004.033.01.05.014,0,0,.002,0,.007.003l.137.107Z" class="cls-7"/><path d="M127.342,129.875c5.666.017,10.943.254,14.826,3.224.824.63,1.574,1.216,2.277,1.79l-.123.15h-11.824l-5.156-4.954v-.21Z" class="cls-4"/><path d="M203.024,133.919c1-.73,2.28-1.41,3.894-1.977,1.263-.443,2.73-.816,4.43-1.09,0,0,0,.004.006,0,.667.134,5.207,1.143,9.777,5.233h-20.227c.484-.733,1.177-1.473,2.12-2.166Z" class="cls-8"/><path d="M176.075,104.846c2.096,3.066,1.936,6.296.16,9.363h-9.15c1.776-3.067,1.94-6.297-.16-9.363v-.377h9.15v.377Z" class="cls-2"/><path d="M200.904,136.085c-.663.997-.936,1.984-.936,2.827,0,.113,0,.22.003.327.017,2.933.33,3.396,3.063,6.13,3.23,3.23,9.85,9.203,9.85,9.203,2.917,2.677,4.827,4.527,8.697,5.277,1.27.246,2.75.373,4.543.373h11.947c3.713,0,6.456-1.937,5.003-6.457-.77-2.4-3.727-8.85-8.453-14.373h-.004c-.993-1.16-2.063-2.277-3.206-3.307h4.076c6.297,0,7.427.084,11.624,3.31,4.2,3.23,18.969,17.517,22.766,21.314,1.063,1.063,1.697,2.41,1.547,3.539-.164,1.274-1.32,2.27-3.97,2.27h-53.28c-6.616,0-9.04.97-14.69-3.713-5.653-4.68-17.276-15.496-21.473-19.533-1.236-1.187-1.826-2.3-1.936-3.273-.267-2.344,2.25-3.914,5.326-3.914h19.503Z" class="cls-3"/><path d="M23.749,125.536c-1.01-.18-1.953-.547-2.803-1.057l-.023-.013-.137-.107c.633.213,2.457.833,2.963,1.177Z" class="cls-7"/><path d="M20.61,128.766c-.513,2.74-2.323,4.763-4.48,4.763-1.307,0-2.487-.744-3.327-1.937-.807-1.143-1.303-2.696-1.303-4.413,0-3.277,1.81-5.973,4.133-6.313l.187-.247,3.757,2.83.01.007c.22.206.453.396.693.576.103.324.203.757.283,1.22.003.86.037,2.027.183,2.304-.017.416-.063.82-.137,1.21Z" class="cls-5"/><path d="M133.492,125.672H25.236c-.507,0-1.007-.046-1.487-.136-.507-.344-2.33-.964-2.963-1.177,0,0-.002,0-.007-.003l-1.193-.9-.01-.007c-1.653-1.527-2.693-3.713-2.693-6.13v-60.466c0-4.593,3.76-8.353,8.353-8.353h67.666c.527.463.157,6.527.157,8.073H30.69c-2.977,0-5.41,2.433-5.41,5.41v48.913c0,2.976,2.433,5.413,5.41,5.413h96.702c2.977,0,5.413-2.437,5.413-5.413v-48.913c0-2.977-2.436-5.41-5.413-5.41h-34.333c.02-.297.03-.62.03-.97,0-3.23-.187-5.003-.187-7.103.017.157,0-.167,0,0h40.59c1.58,0,3.06.443,4.323,1.213,2.413,1.47,4.03,4.127,4.03,7.14v60.466c0,4.597-3.756,8.353-8.353,8.353Z" class="cls-7"/><path d="M62.583,78.553c-1.35,0-2.16-1.057-2.16-2.877s.81-2.88,2.16-2.88,2.157,1.037,2.157,2.88-.81,2.877-2.157,2.877Z" class="cls-6"/><path d="M194.278,86.023c-3.07-1.777-6.297-1.937-9.367.163h-.12v-8.41h10.117v8.246h-.63Z" class="cls-2"/><path d="M156.162,76.509l-6.87-5.19c-1.87-1.583-3.06-3.943-3.06-6.57V23.61c0-4.737,3.873-8.61,8.61-8.61h59.799c2.247,0,3.847.887,5.833,2.29l6.244,4.767-.107.14c-1.047-.783-2.347-1.25-3.75-1.25h-62.579c-3.45,0-6.274,2.823-6.274,6.273v44.283c0,1.94.894,3.683,2.29,4.837l-.136.17Z" class="cls-5"/><path d="M20.563,125.252c.117.664.193,1.39.193,1.927,0,.127-.003.253-.01.377-.147-.277-.18-1.444-.183-2.304Z" class="cls-5"/><path d="M96.532,140.849h-12.057v-.214l-5.65-5.596h12.42l5.287,5.163v.647Z" class="cls-4"/><path d="M122.732,42.096c2.13,0,4.13.59,5.843,1.61l9.387,5.777-.144.23c-1.263-.77-2.743-1.213-4.323-1.213h-40.59c-.147-1.84-1.183-3.163-3.043-4.36-1.067-.687-2.137-1.373-3.17-2.043h36.043-.003Z" class="cls-5"/><path d="M111.602,140.849h-15.07v-.647l-5.287-5.163h14.976l5.38,5.38v.43Z" class="cls-4"/><path d="M143.702,146.232h-13.724v-.43l-5.156-4.953h13.723l5.157,4.953v.43Z" class="cls-4"/><path d="M95.409,77.483l.207-.953c.323.093.673.18,1.05.267l.9.203c.947.203,1.283.643,1.283,1.073,0,.613-.543.887-1.487.887-1.237,0-1.797-.453-1.953-1.477Z" class="cls-6"/><path d="M112.892,149.892c4.52,0,6.853,1.33,9.04,3.227,3.23,2.8,5.6,5.166,5.6,5.166v.43h-31.86s-3.017-2.15-5.813-4.303c-2.8-2.153-2.583-4.52,1.29-4.52h21.743Z" class="cls-4"/><path d="M150.348,140.849h-11.803l-6.046-5.81h11.823l.123-.15c2.097,1.716,3.82,3.35,6.077,5.8l-.174.16Z" class="cls-4"/><path d="M97.242,72.053c1.057,0,1.62.343,1.62,1.363h3.94v4.407h-.4c0-1.95-1.313-2.833-4.327-3.517l-.9-.2c-.947-.207-1.283-.617-1.283-1.047,0-.613.517-1.007,1.35-1.007Z" class="cls-6"/><path d="M58.726,129.872v.213l5.157,4.954h-12.35l-5.157-4.954v-.213h12.35Z" class="cls-4"/><path d="M74.679,78.689c-1.1,0-1.933-.633-2.133-2.25h7.666v-.47h.583v1.483h-4.207c-.157.607-.63,1.237-1.91,1.237Z" class="cls-6"/><path d="M157.938,114.209c1.774-3.067,1.937-6.297-.163-9.363v-.377h9.15v.377c2.1,3.066,1.936,6.296.16,9.363h-9.147Z" class="cls-2"/><path d="M21.023,127.766l.38.166s24.11,22.173,28.416,26.05c4.303,3.873,5.813,4.733,10.333,4.733h109.138c4.307,0,3.447-3.443,3.447-3.443l.243-.25c1.107,1.613,1.477,3.083,1.477,5.2v6.03c0,3.443-1.29,4.736-6.887,4.736H60.153c-7.537,0-9.473-1.51-13.563-4.953-.437-.367-.99-.84-1.633-1.393l-.02-.357c2.817-.173,3.16-1.066,3.16-2.986,0-2.15,0-2.797-1.613-4.304,0,0-.97-.863-3.337-2.8-2.37-1.936-3.23-1.72-6.46-1.72-1.953,0-4.067-.316-5.43.34l-.103-.196c-2.787-2.444-5.15-4.517-6.307-5.527-3.443-3.013-4.303-4.52-4.303-8.397v-7.75c0-.849.047-1.563.16-2.159.077-.387.18-.727.32-1.02Z" class="cls-5"/><path d="M38.036,135.042c-2.267-2.677-1.72-5.17,4.463-5.17h3.877v.213l5.157,4.954h-13.497v.003Z" class="cls-4"/><path d="M11.933,137.405c-4.09,0-4.737,3.66-1.723,6.887,3.013,3.23,6.673,6.677,9.687,9.257,3.013,2.583,4.413,2.476,6.567,2.476h5.703c2.583,0,3.23,5.06.217,5.06s.647,0-5.597,0-7.967-1.293-11.84-4.52c-3.877-3.23-4.09-4.09-8.827-8.396-4.737-4.307-4.09-6.027-4.09-9.257s3.013-7.32,7.533-7.32h3.24c.84,1.193,2.02,1.937,3.327,1.937,2.157,0,3.967-2.024,4.48-4.763l.093.02c-.113.596-.16,1.309-.16,2.159v6.46h-8.61Z" class="cls-2"/><path d="M56.433,70.123h.503v11.11h-.257l-3.937-5.737,3.69-5.373Z" class="cls-6"/><path d="M185.468,100.492l-.793-.09c.08-.526.116-1.106.116-1.746v-3.323h.12c3.07-2.097,6.297-1.937,9.367-.16h.63v5.424c0,2.136-.33,4.003-.92,5.61l-.344-.127c-1.59-3.363-4.28-5.473-8.176-5.587Z" class="cls-2"/><path d="M124.822,140.849h-13.22v-.43l-5.38-5.38h12.553l6.047,5.81Z" class="cls-4"/><path d="M86.172,129.872v.213l5.073,4.954h-12.42l-5.003-4.954v-.213h12.35Z" class="cls-4"/><path d="M148.788,114.209c1.777-3.067,1.937-6.297-.163-9.363v-.377h9.15v.377c2.1,3.066,1.937,6.296.163,9.363h-9.15Z" class="cls-2"/><path d="M148.938,132.052c-1.503-1.337-2.68-2.343-3.326-2.826-.664-.497-1.35-.93-2.067-1.307l.077-.147c1.776-1.613,3.873-1.613,10.009-1.613h39.717c7.426,0,8.233,1.29,13.4,5.166l.17.617c-1.614.567-2.894,1.247-3.894,1.977l-.15-.334c-3.39-2.746-3.553-2.906-8.073-2.906h-37.456c-4.684,0-7.75-.324-7.91,1.13l-.497.243Z" class="cls-2"/><path d="M141.845,104.469h6.78v.377c2.1,3.066,1.94,6.296.163,9.363h-6.943v-9.74Z" class="cls-2"/><path d="M127.342,130.085l5.156,4.954h-13.723l-5.156-4.954v-.213h12.19c.513,0,1.026,0,1.533.003v.21Z" class="cls-4"/><path d="M69.929,140.849h-12.35l-6.047-5.81h12.35l6.047,5.81Z" class="cls-4"/><path d="M184.911,86.186c3.07-2.1,6.297-1.94,9.367-.163h.63v9.15h-.63c-3.07-1.777-6.297-1.937-9.367.16h-.12v-9.146h.12Z" class="cls-2"/><path d="M75.086,146.232h-12.35v-.43l-5.157-4.953h12.35l5.157,4.953v.43Z" class="cls-4"/><path d="M101.269,129.872v.213l4.953,4.954h-14.976l-5.073-4.954v-.213h15.097Z" class="cls-4"/><path d="M30.69,56.573c-2.977,0-5.41,2.433-5.41,5.41v48.913c0,2.976,2.433,5.413,5.41,5.413h96.702c2.976,0,5.413-2.437,5.413-5.413v-48.913c0-2.977-2.437-5.41-5.413-5.41H30.69Z" class="cls-10"/><path d="M119.036,84.622c1.022,0,1.857.835,1.857,1.857,0,.511-.208.976-.545,1.313-.336.336-.801.544-1.312.544h-7.512c-1.022,0-1.857-.835-1.857-1.857,0-.511.208-.976.544-1.313.337-.337.802-.544,1.313-.544h7.512Z" class="cls-8"/><path d="M119.036,92.931c1.022,0,1.857.835,1.857,1.857,0,.511-.208.976-.545,1.313-.336.337-.801.544-1.312.544h-7.512c-1.022,0-1.857-.835-1.857-1.857,0-.511.208-.976.544-1.313.337-.337.802-.544,1.313-.544h7.512Z" class="cls-8"/><path d="M119.036,101.24c1.022,0,1.857.835,1.857,1.857,0,.511-.208.976-.545,1.312-.336.337-.801.545-1.312.545h-7.512c-1.022,0-1.857-.835-1.857-1.857,0-.511.208-.977.544-1.313.337-.337.802-.544,1.313-.544h7.512Z" class="cls-8"/><path d="M105.326,84.622c1.022,0,1.857.835,1.857,1.857,0,.511-.208.976-.544,1.313-.337.336-.802.544-1.313.544h-7.511c-1.022,0-1.857-.835-1.857-1.857,0-.511.208-.976.544-1.313.337-.337.802-.544,1.313-.544h7.511Z" class="cls-8"/><path d="M105.326,92.931c1.022,0,1.857.835,1.857,1.857,0,.511-.208.976-.544,1.313-.337.337-.802.544-1.313.544h-7.511c-1.022,0-1.857-.835-1.857-1.857,0-.511.208-.976.544-1.313.337-.337.802-.544,1.313-.544h7.511Z" class="cls-8"/><path d="M105.326,101.24c1.022,0,1.857.835,1.857,1.857,0,.511-.208.976-.544,1.312-.337.337-.802.545-1.313.545h-7.511c-1.022,0-1.857-.835-1.857-1.857,0-.511.208-.977.544-1.313.337-.337.802-.544,1.313-.544h7.511Z" class="cls-8"/><path d="M63.831,67.609c1.022,0,1.857.839,1.857,1.861,0,.507-.208.972-.544,1.309-.336.337-.802.548-1.313.548h-23.265c-1.022,0-1.857-.839-1.857-1.857,0-.511.208-.976.544-1.313.336-.341.802-.548,1.313-.548h23.265Z" class="cls-8"/><path d="M63.831,93.367c1.022,0,1.857.839,1.857,1.861,0,.507-.208.972-.544,1.309-.336.337-.802.548-1.313.548h-23.265c-1.022,0-1.857-.839-1.857-1.857,0-.511.208-.976.544-1.313.336-.341.802-.548,1.313-.548h23.265Z" class="cls-8"/><path d="M55.231,84.622c1.022,0,1.857.835,1.857,1.857,0,.511-.208.976-.544,1.313-.336.336-.802.544-1.313.544h-14.665c-1.022,0-1.857-.835-1.857-1.857,0-.511.208-.976.544-1.313.336-.337.802-.544,1.313-.544h14.665Z" class="cls-8"/><path d="M55.231,101.24c1.022,0,1.857.835,1.857,1.857,0,.511-.208.976-.544,1.312-.336.337-.802.545-1.313.545h-14.665c-1.022,0-1.857-.835-1.857-1.857,0-.511.208-.977.544-1.313.336-.337.802-.544,1.313-.544h14.665Z" class="cls-8"/><path d="M63.831,71.328h-23.265c-1.022,0-1.857-.839-1.857-1.857,0-.511.208-.976.544-1.313.336-.341.802-.548,1.313-.548h23.265c1.022,0,1.857.839,1.857,1.861,0,.507-.208.972-.544,1.309-.336.337-.802.548-1.313.548Z" class="cls-12"/><path d="M55.231,88.336h-14.665c-1.022,0-1.857-.835-1.857-1.857,0-.511.208-.976.544-1.313.336-.337.802-.544,1.313-.544h14.665c1.022,0,1.857.835,1.857,1.857,0,.511-.208.976-.544,1.313-.336.336-.802.544-1.313.544Z" class="cls-12"/><path d="M63.831,97.085h-23.265c-1.022,0-1.857-.839-1.857-1.857,0-.511.208-.976.544-1.313.336-.341.802-.548,1.313-.548h23.265c1.022,0,1.857.839,1.857,1.861,0,.507-.208.972-.544,1.309-.336.337-.802.548-1.313.548Z" class="cls-12"/><path d="M55.231,104.954h-14.665c-1.022,0-1.857-.835-1.857-1.857,0-.511.208-.977.544-1.313.336-.337.802-.544,1.313-.544h14.665c1.022,0,1.857.835,1.857,1.857,0,.511-.208.976-.544,1.312-.336.337-.802.545-1.313.545Z" class="cls-12"/><path d="M119.036,88.336h-7.512c-1.022,0-1.857-.835-1.857-1.857,0-.511.208-.976.544-1.313.337-.337.802-.544,1.313-.544h7.512c1.022,0,1.857.835,1.857,1.857,0,.511-.208.976-.545,1.313-.336.336-.801.544-1.312.544Z" class="cls-12"/><path d="M119.036,104.954h-7.512c-1.022,0-1.857-.835-1.857-1.857,0-.511.208-.977.544-1.313.337-.337.802-.544,1.313-.544h7.512c1.022,0,1.857.835,1.857,1.857,0,.511-.208.976-.545,1.312-.336.337-.801.545-1.312.545Z" class="cls-12"/><path d="M119.036,96.645h-7.512c-1.022,0-1.857-.835-1.857-1.857,0-.511.208-.976.544-1.313.337-.337.802-.544,1.313-.544h7.512c1.022,0,1.857.835,1.857,1.857,0,.511-.208.976-.545,1.313-.336.337-.801.544-1.312.544Z" class="cls-12"/><path d="M105.326,88.336h-7.511c-1.022,0-1.857-.835-1.857-1.857,0-.511.208-.976.544-1.313.337-.337.802-.544,1.313-.544h7.511c1.022,0,1.857.835,1.857,1.857,0,.511-.208.976-.544,1.313-.337.336-.802.544-1.313.544Z" class="cls-12"/><path d="M105.326,104.954h-7.511c-1.022,0-1.857-.835-1.857-1.857,0-.511.208-.977.544-1.313.337-.337.802-.544,1.313-.544h7.511c1.022,0,1.857.835,1.857,1.857,0,.511-.208.976-.544,1.312-.337.337-.802.545-1.313.545Z" class="cls-12"/><path d="M105.326,96.645h-7.511c-1.022,0-1.857-.835-1.857-1.857,0-.511.208-.976.544-1.313.337-.337.802-.544,1.313-.544h7.511c1.022,0,1.857.835,1.857,1.857,0,.511-.208.976-.544,1.313-.337.337-.802.544-1.313.544Z" class="cls-12"/><path d="M91.205,87.551h-2.933" class="cls-12"/><path d="M82.896,87.551h-2.933" class="cls-12"/><path d="M74.587,87.551h-2.933" class="cls-12"/><path d="M66.278,87.551h-2.933" class="cls-12"/><path d="M91.205,96.275h-2.933" class="cls-12"/><path d="M82.896,96.275h-2.933" class="cls-12"/><path d="M74.587,96.275h-2.933" class="cls-12"/><path d="M91.205,104.999h-2.933" class="cls-12"/><path d="M82.896,104.999h-2.933" class="cls-12"/><path d="M74.587,104.999h-2.933" class="cls-12"/><path d="M66.278,104.999h-2.933" class="cls-12"/><path d="M99.161,67.269h21.437" class="cls-12"/><path d="M99.161,71.423h21.437" class="cls-12"/><path d="M39.108,78.199h81.215" class="cls-12"/><path d="M32.383,161.085c3.013,0,2.367-5.06-.217-5.06h-2.367v-.323c0-1.613.57-2.457,1.457-2.887,1.363-.656,3.477-.34,5.43-.34,3.23,0,4.09-.216,6.46,1.72,2.367,1.937,3.337,2.8,3.337,2.8,1.613,1.507,1.613,2.154,1.613,4.304,0,1.919-.343,2.813-3.16,2.986-.343.02-.723.03-1.143.03h-6.673c-2.153,0-4.737-3.23-4.737-3.23Z" class="cls-5"/><path d="M129.978,146.232h-54.892v-.43l-5.157-4.953h54.893l5.156,4.953v.43Z" class="cls-4"/><path d="M138.545,140.849h-13.723l-6.047-5.81h13.723l6.047,5.81Z" class="cls-4"/><path d="M84.476,140.849h-14.547l-6.047-5.81h14.943l5.65,5.596v.214Z" class="cls-4"/><path d="M44.223,140.849h13.357l5.157,4.953v.43h-5.597c-5.167,0-8.18-.863-10.98-3.447-.727-.67-1.387-1.273-2.017-1.85l.08-.086Z" class="cls-4"/><path d="M38.41,135.039h13.123l6.047,5.81h-13.357l-.08.086c-1.803-1.656-3.363-3.1-5.517-5.253-.213-.213-.41-.427-.59-.64h.373v-.003Z" class="cls-4"/><path d="M199.971,139.239h.32c3.94-2.777,9.73-1.987,13.547,1.17.406.336.79.7,1.146,1.086,3.714,4.037,7.104,10.494,6.617,18.244l-.02.11c-3.87-.75-5.78-2.6-8.697-5.277,0,0-6.62-5.973-9.85-9.203-2.733-2.734-3.046-3.197-3.063-6.13Z" class="cls-8"/><path d="M73.822,129.872v.213l5.003,4.954h-14.943l-5.157-4.954v-.213h15.097Z" class="cls-4"/><path d="M182.418,103.832c1.313-.63,2.003-1.746,2.257-3.43l.793.09c3.897.114,6.587,2.224,8.177,5.587l.343.127c-1.453,3.963-4.5,6.36-8.14,7.396l-.097-.356c.964-3.41.324-6.58-2.47-9.034l-.863-.38Z" class="cls-2"/><path d="M113.619,129.872v.213l5.156,4.954h-12.553l-4.953-4.954v-.213h12.35Z" class="cls-4"/><path d="M151.641,141.925c3.457,3.864,1.29,4.307-4.736,4.307h-3.203v-.43l-5.157-4.953h11.803l.173-.16c.357.39.73.8,1.12,1.236Z" class="cls-4"/><path d="M271.49,164.258l-.08,6.504c-.213,1.22-1.38,2.163-3.956,2.163h-53.28c-6.616,0-9.04.967-14.69-3.713-5.653-4.684-17.276-15.5-21.473-19.537-.913-.876-1.473-1.71-1.75-2.48l-.186-.696v-6.5c.11.973.7,2.086,1.936,3.273,4.197,4.037,15.82,14.853,21.473,19.533,5.65,4.683,8.074,3.713,14.69,3.713h53.28c2.65,0,3.806-.996,3.97-2.27l.066.01Z" class="cls-9"/><path d="M231.411,136.085h4.076c6.297,0,7.427.084,11.624,3.31,4.2,3.23,18.969,17.517,22.766,21.314,1.063,1.063,1.697,2.41,1.547,3.539-.164,1.274-1.32,2.27-3.97,2.27h-53.28c-6.616,0-9.04.97-14.69-3.713-5.653-4.68-17.276-15.496-21.473-19.533-1.236-1.187-1.826-2.3-1.936-3.273-.267-2.344,2.25-3.914,5.326-3.914h19.503" class="cls-13"/><path d="M176.261,147.195c.277.77.837,1.604,1.75,2.48,4.197,4.037,15.82,14.853,21.473,19.537,5.65,4.68,8.074,3.713,14.69,3.713h53.28c2.576,0,3.743-.943,3.956-2.163l.08-6.504" class="cls-13"/><path d="M176.075,139.395v7.104" class="cls-13"/><path d="M93.059,56.573h34.333c2.976,0,5.413,2.433,5.413,5.41v48.913c0,2.976-2.437,5.413-5.413,5.413H30.69c-2.977,0-5.41-2.437-5.41-5.413v-48.913c0-2.977,2.433-5.41,5.41-5.41h62.369Z" class="cls-13"/><path d="M92.902,48.5h40.59c1.58,0,3.06.443,4.323,1.213,2.413,1.47,4.03,4.127,4.03,7.14v60.466c0,4.597-3.757,8.353-8.353,8.353H25.236c-.507,0-1.007-.046-1.487-.136-1.01-.18-1.953-.547-2.803-1.057" class="cls-13"/><path d="M19.576,123.449c-1.653-1.527-2.693-3.713-2.693-6.13v-60.466c0-4.593,3.76-8.353,8.353-8.353h67.764" class="cls-13"/><path d="M20.923,124.466c-.067-.04-.13-.08-.193-.124h-.003c-.153-.1-.303-.203-.447-.31-.24-.18-.473-.37-.693-.576" class="cls-13"/><path d="M122.732,42.096c2.13,0,4.13.59,5.843,1.61.004,0,.004.003.007.003" class="cls-13"/><path d="M138.635,49.9l-.677-.417-9.386-5.773" class="cls-13"/><path d="M58.842,42.096H17.826c-6.307,0-11.463,5.157-11.463,11.463v54.246c0,3.873,1.943,7.31,4.907,9.39l4.55,3.423,3.757,2.83.01.007,1.193.9s.003.003.007.003l.137.107.023.013.423.32" class="cls-13"/><path d="M122.732,42.096H58.5" class="cls-13"/><path d="M44.956,164.642c.643.553,1.197,1.026,1.633,1.393,4.09,3.443,6.027,4.953,13.563,4.953h107.418c5.597,0,6.887-1.293,6.887-4.736v-6.03c0-2.117-.37-3.587-1.477-5.2-.58-.843-1.36-1.727-2.396-2.763-2.447-2.45-15.13-14.417-21.647-20.207-1.503-1.336-2.68-2.343-3.326-2.826-.664-.497-1.35-.93-2.067-1.307-3-1.577-6.503-2.137-10.846-2.137H28.076c-2.06,0-3.583.07-4.693.324-.973.226-1.633.593-2.07,1.18h-.003c-.107.143-.203.303-.287.48-.14.293-.243.633-.32,1.02-.113.596-.16,1.31-.16,2.16v7.749c0,3.877.86,5.384,4.303,8.397,1.157,1.01,3.52,3.083,6.307,5.527" class="cls-13"/><path d="M21.403,127.932s24.11,22.173,28.416,26.05c4.303,3.873,5.813,4.733,10.333,4.733h109.139c4.307,0,3.447-3.443,3.447-3.443" class="cls-13"/><path d="M95.672,158.715s-3.017-2.15-5.813-4.303c-2.8-2.153-2.583-4.52,1.29-4.52h21.743c4.52,0,6.853,1.33,9.04,3.227,3.23,2.8,5.6,5.166,5.6,5.166" class="cls-13"/><path d="M143.702,146.232h3.203c6.027,0,8.193-.443,4.737-4.307-.39-.436-.764-.846-1.12-1.236-2.257-2.45-3.98-4.084-6.077-5.8-.703-.574-1.453-1.16-2.277-1.79-3.883-2.97-9.16-3.207-14.826-3.224-.507-.003-1.02-.003-1.533-.003H42.499c-6.183,0-6.73,2.493-4.463,5.17.18.213.377.427.59.64,2.153,2.153,3.713,3.597,5.517,5.253.63.577,1.29,1.18,2.017,1.85,2.8,2.584,5.813,3.447,10.98,3.447h86.563Z" class="cls-13"/><path d="M38.409,135.039h105.913" class="cls-13"/><path d="M44.223,140.849h106.125" class="cls-13"/><path d="M46.376,130.086l5.157,4.953,6.047,5.81,5.157,4.953" class="cls-13"/><path d="M58.726,130.086l5.157,4.953,6.047,5.81,5.157,4.953" class="cls-13"/><path d="M73.822,130.086l5.003,4.953,5.65,5.596" class="cls-13"/><path d="M86.172,130.086l5.073,4.953,5.287,5.163" class="cls-13"/><path d="M101.269,130.086l4.953,4.953,5.38,5.38" class="cls-13"/><path d="M113.619,130.086l5.156,4.953,6.047,5.81,5.156,4.953" class="cls-13"/><path d="M127.342,130.086l5.156,4.953,6.047,5.81,5.157,4.953" class="cls-13"/><path d="M20.28,124.032c.103.324.203.757.283,1.22.117.664.193,1.39.193,1.927,0,.127-.003.253-.01.377-.017.416-.063.82-.137,1.21-.513,2.739-2.323,4.763-4.48,4.763-1.307,0-2.487-.744-3.327-1.937-.807-1.143-1.303-2.696-1.303-4.413,0-3.277,1.81-5.973,4.133-6.313" class="cls-13"/><path d="M16.13,133.529h3.767" class="cls-13"/><path d="M12.576,131.592h-3.013c-4.52,0-7.533,4.09-7.533,7.32s-.647,4.95,4.09,9.257c4.737,4.306,4.95,5.166,8.827,8.396,3.873,3.227,5.597,4.52,11.84,4.52s2.583,0,5.597,0,2.367-5.06-.217-5.06h-5.703c-2.153,0-3.553.107-6.567-2.476-3.013-2.58-6.673-6.027-9.687-9.257-3.013-3.227-2.367-6.887,1.723-6.887h8.393" class="cls-13"/><path d="M12.816,131.592h-.013" class="cls-13"/><path d="M12.803,131.592h-.227" class="cls-13"/><path d="M29.8,155.702c0-1.613.57-2.457,1.457-2.887,1.363-.656,3.477-.34,5.43-.34,3.23,0,4.09-.216,6.46,1.72,2.367,1.937,3.337,2.8,3.337,2.8,1.613,1.507,1.613,2.154,1.613,4.304,0,1.919-.343,2.813-3.16,2.986-.343.02-.723.03-1.143.03h-6.673c-2.153,0-4.737-3.23-4.737-3.23" class="cls-13"/><path d="M141.952,104.469h36.813c1.553,0,2.75-.203,3.653-.637,1.313-.63,2.003-1.746,2.257-3.43.08-.526.116-1.106.116-1.746v-20.663" class="cls-13"/><path d="M141.845,114.209h39.503c1.55,0,3.073-.197,4.5-.607,3.64-1.036,6.686-3.433,8.14-7.396.59-1.607.92-3.474.92-5.61v-22.39" class="cls-13"/><path d="M226.611,22.197c1.53,1.147,2.527,2.973,2.527,5.023v44.283c0,3.45-2.824,6.273-6.277,6.273h-62.579c-1.51,0-2.9-.54-3.984-1.437-1.396-1.153-2.29-2.897-2.29-4.837V27.22c0-3.45,2.824-6.273,6.274-6.273h62.579c1.403,0,2.703.467,3.75,1.25Z" class="cls-13"/><path d="M156.162,76.509l-6.87-5.19c-1.87-1.583-3.06-3.943-3.06-6.57V23.61c0-4.737,3.873-8.61,8.61-8.61h59.799c2.247,0,3.847.887,5.833,2.29l6.244,4.767,1.083.827" class="cls-13"/><path d="M221.627,67.693c0,1.683-1.373,3.06-3.056,3.06h-53.46c-1.68,0-3.056-1.377-3.056-3.06V31.19c0-1.683,1.376-3.06,3.056-3.06h53.46c1.683,0,3.056,1.377,3.056,3.06v36.503Z" class="cls-13"/><path d="M148.625,104.846c2.1,3.066,1.94,6.296.163,9.363" class="cls-13"/><path d="M157.775,104.846c2.1,3.066,1.937,6.296.163,9.363" class="cls-13"/><path d="M166.925,104.846c2.1,3.066,1.936,6.296.16,9.363" class="cls-13"/><path d="M176.075,104.846c2.096,3.066,1.936,6.296.16,9.363" class="cls-13"/><path d="M183.281,104.212c2.794,2.454,3.434,5.624,2.47,9.034" class="cls-13"/><path d="M185.468,100.492c3.897.114,6.587,2.224,8.177,5.587" class="cls-13"/><path d="M184.911,95.332c3.07-2.097,6.297-1.937,9.367-.16" class="cls-13"/><path d="M184.911,86.186c3.07-2.1,6.297-1.94,9.367-.163" class="cls-13"/><path d="M211.348,130.852c-1.7.274-3.167.647-4.43,1.09-1.614.567-2.894,1.247-3.894,1.977-.943.693-1.636,1.433-2.12,2.166-.663.997-.936,1.984-.936,2.827,0,.113,0,.22.003.327.017,2.933.33,3.396,3.063,6.13,3.23,3.23,9.85,9.203,9.85,9.203,2.917,2.677,4.827,4.527,8.697,5.277,1.27.246,2.75.373,4.543.373h11.947c3.713,0,6.456-1.937,5.003-6.457-.77-2.4-3.727-8.85-8.453-14.373" class="cls-13"/><path d="M234.617,139.392c-.993-1.16-2.063-2.277-3.206-3.307-3.677-3.313-8.117-5.73-13.2-5.73-2.62,0-4.89.18-6.857.497" class="cls-13"/><path d="M200.291,139.235c3.94-2.773,9.73-1.983,13.547,1.174.406.336.79.7,1.146,1.086,3.714,4.037,7.103,10.494,6.617,18.244" class="cls-13"/><path d="M214.014,140.202s3.354-.817,9.704-1.04c2.983-.103,6.63-.077,10.9.23h.003c.02,0,.04.003.06.003" class="cls-13"/><path d="M211.271,130.839s.027,0,.077.013c0,0,0,.003.006,0,.667.133,5.207,1.143,9.777,5.233.863.774,1.73,1.657,2.57,2.667" class="cls-13"/><path d="M143.622,127.772c1.776-1.613,3.873-1.613,10.009-1.613h39.717c7.426,0,8.233,1.29,13.4,5.166" class="cls-13"/><path d="M202.875,133.585c-3.39-2.746-3.554-2.906-8.074-2.906h-37.456c-4.683,0-7.75-.323-7.91,1.13" class="cls-13"/><path d="M191.418,52.631l.332.295.332-.295,5.497-4.886c.825-.734.9-1.998.166-2.824-.734-.826-1.998-.9-2.824-.166l-1.171,1.041v-5.046c0-1.105-.895-2-2-2s-2,.895-2,2v5.046l-1.171-1.041c-.826-.734-2.09-.66-2.824.166-.734.826-.659,2.09.166,2.824l5.497,4.886ZM187.25,53.757c0-1.105-.895-2-2-2s-2,.895-2,2v4c0,1.104.895,2,2,2h13c1.105,0,2-.896,2-2v-4c0-1.105-.895-2-2-2s-2,.895-2,2v2h-9v-2Z" class="cls-11"/></svg>