<?xml version="1.0" encoding="utf-8"?>
<!-- Generator: Adobe Illustrator 24.3.0, SVG Export Plug-In . SVG Version: 6.00 Build 0)  -->
<svg version="1.1" id="Layer_1" xmlns="http://www.w3.org/2000/svg" xmlns:xlink="http://www.w3.org/1999/xlink" x="0px" y="0px"
	 viewBox="0 0 20 20" style="enable-background:new 0 0 20 20;" xml:space="preserve">
<path d="M18.2,15.4l-0.8-1.6h-15l-0.8,1.6c-0.2,0.4,0,0.9,0.5,0.9h15.5C18.2,16.2,18.5,15.8,18.2,15.4z"/>
<path d="M10.6,6.2V3.8h1.2c0.4,0,0.6-0.2,0.6-0.6s-0.2-0.6-0.6-0.6H8.1c-0.4,0-0.6,0.2-0.6,0.6s0.2,0.6,0.6,0.6h1.2v2.5
	c-3.5,0.2-6.2,2.9-6.9,6.2h15C16.9,9.1,14.1,6.6,10.6,6.2z"/>
</svg>
