<?xml version="1.0" encoding="utf-8"?>
<!-- Generator: Adobe Illustrator 26.5.0, SVG Export Plug-In . SVG Version: 6.00 Build 0)  -->
<svg version="1.1" id="Layer_1" xmlns="http://www.w3.org/2000/svg" xmlns:xlink="http://www.w3.org/1999/xlink" x="0px" y="0px"
	 viewBox="0 0 20 20" style="enable-background:new 0 0 20 20;" xml:space="preserve">
<g>
	<path d="M18.7,1.3c-0.4-0.4-1-0.4-1.4,0l-1.6,1.6C13.6,1.4,10.9,1.8,9,3.8L8.2,4.5c-0.3,0.3-0.3,0.8,0,1.2l6.2,6.1
		c0.3,0.3,0.8,0.3,1.2,0l0.6-0.6c2-1.9,2.4-4.7,0.9-6.9l1.6-1.6C19.1,2.3,19.1,1.7,18.7,1.3z"/>
	<path d="M10.3,11.3l-1.8,1.8l-1.6-1.6l1.8-1.8c0.4-0.4,0.4-1,0-1.4c-0.4-0.4-1-0.4-1.4,0l-1.9,1.9L4.5,9.2c-0.3-0.3-0.8-0.3-1.2,0
		L2.8,9.8c-2,1.9-2.4,4.7-0.9,6.9l-1.6,1.6c-0.4,0.4-0.4,1,0,1.4s1,0.4,1.4,0l1.6-1.6c2.1,1.5,4.8,1.1,6.7-0.9l0.7-0.7
		c0.3-0.3,0.3-0.8,0-1.2l-0.9-0.8l1.8-1.8c0.4-0.4,0.4-1,0-1.4S10.7,10.9,10.3,11.3z"/>
</g>
</svg>
