<?xml version="1.0" encoding="utf-8"?>
<!-- Generator: Adobe Illustrator 25.4.1, SVG Export Plug-In . SVG Version: 6.00 Build 0)  -->
<svg version="1.1" id="Layer_1" xmlns="http://www.w3.org/2000/svg" xmlns:xlink="http://www.w3.org/1999/xlink" x="0px" y="0px"
	 viewBox="0 0 20 20" style="enable-background:new 0 0 20 20;" xml:space="preserve">
<g>
	<path d="M19.1,1c-0.3-0.4-0.9-0.4-1.3,0l-2.1,2.1c-2-1.3-4.6-1.1-6.3,0.6L9,4.2C8.7,4.4,8.7,4.8,9,5l6.2,6.2c0.2,0.2,0.6,0.2,0.8,0
		l0.5-0.4c1.8-1.8,2-4.5,0.5-6.4l2.1-2.1C19.5,2,19.5,1.4,19.1,1z"/>
	<path d="M11,11l-1.9,2l-1.8-1.9l1.9-1.9c0.4-0.3,0.4-0.9,0-1.3c-0.3-0.4-0.9-0.4-1.3,0L6,9.9l-1-1c-0.2-0.2-0.6-0.2-0.8,0L3.7,9.4
		c-1.7,1.7-1.9,4.4-0.5,6.4l-2.1,2.1c-0.4,0.3-0.4,0.9,0,1.3c0.3,0.4,0.9,0.4,1.3,0l2.1-2.1c2,1.2,4.6,1,6.3-0.7l0.5-0.5
		c0.2-0.2,0.2-0.6,0-0.8l-0.9-0.9l1.9-1.9c0.4-0.3,0.4-0.9,0-1.3C12,10.6,11.4,10.6,11,11z"/>
</g>
</svg>
