<svg xmlns="http://www.w3.org/2000/svg" xmlns:xlink="http://www.w3.org/1999/xlink" id="Layer_1" x="0" y="0" version="1.1" viewBox="0 0 273 188" style="enable-background:new 0 0 273 188" xml:space="preserve"><style type="text/css">.st0{fill:#03d47c}.st1{fill:#4ed7de}.st2{fill:#50eef6}.st3{fill:#28736d}.st4{fill:#4ba6a6}.st5{fill:#99f6ff}.st6{fill:#8dc8ff}.st7{fill:#5be3aa}.st8{fill-rule:evenodd;clip-rule:evenodd;fill:#0164bf}.st9{fill:none;stroke:#002140;stroke-width:.9999;stroke-linecap:round;stroke-linejoin:round}.st10{fill:#5ab0ff}.st11{fill:none;stroke:#002140;stroke-width:1;stroke-linecap:round;stroke-linejoin:round}.st12{fill:#002140}</style><path d="M221.628,31.19c0-1.683-1.374-3.06-3.057-3.06h-53.46c-1.68,0-3.056,1.377-3.056,3.06v36.503	c0,1.683,1.376,3.06,3.056,3.06h53.46c1.683,0,3.057-1.377,3.057-3.06V31.19z" class="st0"/><path d="M221.131,136.085c-4.57-4.09-9.11-5.1-9.777-5.233c1.967-0.317,4.237-0.497,6.857-0.497	c5.083,0,9.523,2.417,13.2,5.73H221.131z" class="st1"/><path d="M20.726,124.339c-0.153-0.097-0.303-0.2-0.447-0.307c-0.24-0.18-0.473-0.37-0.693-0.576l1.193,0.9	c0,0-0.037-0.01-0.05-0.014h-0.003V124.339z" class="st2"/><path d="M21.313,127.286c0.437-0.587,1.097-0.954,2.07-1.18C22.813,126.469,21.88,126.946,21.313,127.286z" class="st2"/><path d="M223.701,138.752c-0.84-1.01-1.707-1.893-2.57-2.667h10.28c1.143,1.03,2.213,2.147,3.206,3.307	c-4.27-0.307-7.916-0.333-10.899-0.23L223.701,138.752z" class="st1"/><path d="M214.984,141.495c-0.356-0.386-0.74-0.75-1.146-1.086l0.176-0.207c0,0,3.354-0.817,9.704-1.04	c2.983-0.103,6.629-0.077,10.899,0.23h0.004c4.726,5.523,7.683,11.973,8.453,14.373c1.453,4.52-1.29,6.457-5.003,6.457h-11.947	c-1.793,0-3.273-0.127-4.543-0.373l0.02-0.11C222.088,151.989,218.698,145.532,214.984,141.495z" class="st1"/><path d="M221.628,31.19c0-1.683-1.374-3.06-3.057-3.06h-53.46c-1.68,0-3.056,1.377-3.056,3.06v36.503	c0,1.683,1.376,3.06,3.056,3.06h53.46c1.683,0,3.057-1.377,3.057-3.06V31.19z M222.861,77.776h-62.58	c-1.509,0-2.899-0.54-3.983-1.437c-1.396-1.153-2.29-2.897-2.29-4.837V27.22c0-3.45,2.824-6.273,6.273-6.273h62.58	c1.403,0,2.703,0.467,3.75,1.25c1.53,1.147,2.526,2.973,2.526,5.023v44.283C229.137,74.953,226.314,77.776,222.861,77.776z" class="st1"/><path d="M95.672,158.715h-35.52c-4.52,0-6.03-0.86-10.333-4.733c-4.307-3.877-28.416-26.05-28.416-26.05l-0.38-0.166	c0.083-0.177,0.18-0.337,0.287-0.48h0.003c0.567-0.34,1.5-0.817,2.07-1.18c1.11-0.254,2.633-0.324,4.693-0.324h104.622	c4.344,0,7.847,0.56,10.847,2.137c0.717,0.377,1.403,0.81,2.067,1.307c0.646,0.483,1.823,1.489,3.326,2.826	c6.517,5.79,19.2,17.757,21.647,20.207c1.036,1.036,1.816,1.92,2.396,2.763l-0.243,0.25c0,0,0.86,3.443-3.447,3.443h-41.759v-0.43	c0,0-2.37-2.366-5.6-5.166c-2.187-1.897-4.52-3.227-9.04-3.227H91.149c-3.873,0-4.09,2.367-1.29,4.52	C92.656,156.565,95.672,158.715,95.672,158.715z M101.269,129.872h-58.77c-6.183,0-6.73,2.493-4.463,5.17	c0.18,0.213,0.377,0.427,0.59,0.64c2.153,2.153,3.713,3.597,5.517,5.253c0.63,0.577,1.29,1.18,2.017,1.85	c2.8,2.584,5.813,3.447,10.98,3.447h89.766c6.027,0,8.193-0.443,4.737-4.307c-0.39-0.436-0.764-0.846-1.12-1.236	c-2.257-2.45-3.98-4.084-6.077-5.8c-0.703-0.574-1.453-1.16-2.277-1.79c-3.883-2.97-9.16-3.207-14.826-3.223	c-0.507-0.004-1.02-0.004-1.533-0.004H101.269z" class="st2"/><path d="M23.383,126.106c-0.973,0.226-1.633,0.593-2.07,1.18H21.31c-0.203,0.123-0.36,0.23-0.433,0.303	c-0.05,0.05-0.09,0.033-0.13-0.033c0.007-0.124,0.01-0.25,0.01-0.377c0-0.537-0.077-1.263-0.193-1.927	c-0.003-0.543,0.007-0.963,0.007-0.963s0.057,0.017,0.157,0.05h0.003c0.063,0.047,0.127,0.087,0.193,0.127l0.023,0.013	c0.85,0.51,1.793,0.877,2.803,1.057c0.083,0.056,0.133,0.106,0.133,0.143C23.883,125.766,23.683,125.922,23.383,126.106z" class="st3"/><path d="M99,48.5H25.236c-4.593,0-8.353,3.76-8.353,8.353v60.466c0,2.417,1.04,4.603,2.693,6.13l-3.757-2.83	l-4.55-3.423c-2.963-2.08-4.907-5.517-4.907-9.39V53.56c0-6.307,5.157-11.463,11.463-11.463h71.717	C89.543,42.096,97.063,47.046,99,48.5C98.593,48.136,99.847,49.133,99,48.5z" class="st4"/><path d="M199.968,138.912c0-0.843,0.273-1.83,0.936-2.827h20.227c0.863,0.774,1.73,1.657,2.57,2.667l0.017,0.41	c-6.35,0.223-9.704,1.04-9.704,1.04l-0.176,0.207c-3.817-3.157-9.607-3.947-13.547-1.174h-0.32	C199.968,139.132,199.968,139.025,199.968,138.912z" class="st1"/><path d="M185.848,113.602c-1.427,0.41-2.95,0.607-4.5,0.607h-5.113c1.776-3.067,1.936-6.297-0.16-9.363v-0.377h2.69	c1.553,0,2.75-0.203,3.653-0.637l0.863,0.38c2.794,2.454,3.434,5.624,2.47,9.034L185.848,113.602z" class="st3"/><path d="M20.923,124.466c-0.067-0.04-0.13-0.08-0.193-0.124c0.013,0.004,0.033,0.01,0.05,0.014	c0,0,0.002,0.001,0.007,0.003L20.923,124.466z" class="st2"/><path d="M127.342,129.876c5.666,0.016,10.943,0.253,14.826,3.223c0.824,0.63,1.574,1.216,2.277,1.79l-0.123,0.15	h-11.824l-5.156-4.953V129.876z" class="st5"/><path d="M203.024,133.919c1-0.73,2.28-1.41,3.894-1.977c1.263-0.443,2.73-0.817,4.43-1.09c0,0,0,0.003,0.006,0	c0.667,0.133,5.207,1.143,9.777,5.233h-20.227C201.388,135.352,202.081,134.612,203.024,133.919z" class="st1"/><path d="M176.075,104.846c2.096,3.066,1.936,6.296,0.16,9.363h-9.15c1.776-3.067,1.94-6.297-0.16-9.363v-0.377h9.15	V104.846z" class="st3"/><path d="M200.904,136.085c-0.663,0.997-0.936,1.984-0.936,2.827c0,0.113,0,0.22,0.003,0.327	c0.017,2.933,0.33,3.396,3.063,6.13c3.23,3.23,9.85,9.203,9.85,9.203c2.917,2.677,4.827,4.527,8.697,5.277	c1.27,0.246,2.75,0.373,4.543,0.373h11.947c3.713,0,6.456-1.937,5.003-6.457c-0.77-2.4-3.727-8.85-8.453-14.373h-0.004	c-0.993-1.16-2.063-2.277-3.206-3.307h4.076c6.297,0,7.427,0.084,11.624,3.31c4.2,3.23,18.969,17.517,22.766,21.314	c1.063,1.063,1.697,2.41,1.547,3.539c-0.164,1.274-1.32,2.27-3.97,2.27h-53.28c-6.616,0-9.04,0.97-14.69-3.713	c-5.653-4.68-17.276-15.496-21.473-19.533c-1.236-1.187-1.826-2.3-1.936-3.273c-0.267-2.344,2.25-3.914,5.326-3.914H200.904z" class="st6"/><path d="M23.75,125.536c-1.01-0.18-1.953-0.547-2.803-1.057l-0.023-0.013l-0.137-0.107	C21.42,124.572,23.243,125.192,23.75,125.536z" class="st2"/><path d="M20.61,128.766c-0.513,2.739-2.323,4.763-4.48,4.763c-1.307,0-2.487-0.744-3.327-1.937	c-0.807-1.143-1.303-2.696-1.303-4.413c0-3.277,1.81-5.973,4.133-6.313l0.187-0.247l3.757,2.83l0.01,0.007	c0.22,0.206,0.453,0.396,0.693,0.576c0.103,0.324,0.203,0.757,0.283,1.22c0.003,0.86,0.037,2.027,0.183,2.304	C20.73,127.972,20.683,128.376,20.61,128.766z" class="st4"/><path d="M133.492,125.672H25.236c-0.507,0-1.007-0.046-1.487-0.136c-0.507-0.344-2.33-0.964-2.963-1.177	c0,0-0.002-0.001-0.007-0.003l-1.193-0.9l-0.01-0.007c-1.653-1.527-2.693-3.713-2.693-6.13V56.853c0-4.593,3.76-8.353,8.353-8.353	h67.666c0.527,0.463,0.157,6.527,0.157,8.073H69.062H30.69c-2.977,0-5.41,2.433-5.41,5.41v48.913c0,2.976,2.433,5.413,5.41,5.413	h96.702c2.976,0,5.413-2.437,5.413-5.413V61.983c0-2.977-2.437-5.41-5.413-5.41H93.059c0.02-0.297,0.03-0.62,0.03-0.97	c0-3.23-0.187-5.003-0.187-7.103c0.017,0.157,0-0.167,0,0h40.59c1.58,0,3.06,0.443,4.323,1.213c2.413,1.47,4.03,4.127,4.03,7.14	v60.466C141.845,121.916,138.088,125.672,133.492,125.672z" class="st2"/><path d="M62.583,78.553c-1.35,0-2.16-1.057-2.16-2.877c0-1.82,0.81-2.88,2.16-2.88c1.35,0,2.157,1.037,2.157,2.88	C64.739,77.519,63.929,78.553,62.583,78.553z" class="st7"/><path d="M194.278,86.023c-3.07-1.777-6.297-1.937-9.367,0.163h-0.12v-8.41h10.117v8.247H194.278z" class="st3"/><path d="M156.162,76.509l-6.87-5.19c-1.87-1.583-3.06-3.943-3.06-6.57V23.61c0-4.737,3.873-8.61,8.61-8.61h59.799	c2.247,0,3.847,0.887,5.833,2.29l6.243,4.767l-0.106,0.14c-1.047-0.783-2.347-1.25-3.75-1.25h-62.58	c-3.449,0-6.273,2.823-6.273,6.273v44.283c0,1.94,0.894,3.683,2.29,4.837L156.162,76.509z" class="st4"/><path d="M20.563,125.252c0.117,0.664,0.193,1.39,0.193,1.927c0,0.127-0.003,0.253-0.01,0.377	C20.6,127.279,20.566,126.112,20.563,125.252z" class="st4"/><path d="M96.532,140.849H84.476v-0.214l-5.65-5.596h12.42l5.287,5.163V140.849z" class="st5"/><path d="M122.732,42.096c2.13,0,4.13,0.59,5.843,1.61l9.387,5.777l-0.144,0.23c-1.263-0.77-2.743-1.213-4.323-1.213	H92.906c-0.147-1.84-1.183-3.163-3.043-4.36c-1.067-0.687-2.137-1.373-3.17-2.043h36.043H122.732z" class="st4"/><path d="M111.602,140.849h-15.07v-0.647l-5.287-5.163h14.977l5.38,5.38V140.849z" class="st5"/><path d="M143.702,146.232h-13.724v-0.43l-5.156-4.953h13.723l5.157,4.953V146.232z" class="st5"/><path d="M95.409,77.483l0.207-0.953c0.323,0.093,0.673,0.18,1.05,0.267l0.9,0.203c0.947,0.203,1.283,0.643,1.283,1.073	c0,0.613-0.543,0.887-1.487,0.887C96.126,78.959,95.565,78.506,95.409,77.483z" class="st7"/><path d="M112.892,149.892c4.52,0,6.853,1.33,9.04,3.227c3.23,2.8,5.6,5.166,5.6,5.166v0.43h-31.86	c0,0-3.017-2.15-5.813-4.303c-2.8-2.153-2.583-4.52,1.29-4.52H112.892z" class="st5"/><path d="M150.348,140.849h-11.803l-6.047-5.81h11.824l0.123-0.15c2.097,1.716,3.82,3.35,6.077,5.8L150.348,140.849z" class="st5"/><path d="M97.242,72.053c1.057,0,1.62,0.343,1.62,1.363h3.94v4.407h-0.4c0-1.95-1.313-2.833-4.326-3.517l-0.9-0.2	c-0.947-0.207-1.283-0.617-1.283-1.047C95.892,72.446,96.409,72.053,97.242,72.053z" class="st7"/><path d="M58.726,129.872v0.213l5.157,4.954h-12.35l-5.157-4.954v-0.213H58.726z" class="st5"/><path d="M74.679,78.689c-1.1,0-1.933-0.633-2.133-2.25h7.667v-0.47h0.583v1.483h-4.207	C76.432,78.059,75.959,78.689,74.679,78.689z" class="st7"/><path d="M157.938,114.209c1.773-3.067,1.937-6.297-0.163-9.363v-0.377h9.15v0.377c2.1,3.066,1.936,6.296,0.16,9.363	H157.938z" class="st3"/><path d="M21.023,127.766l0.38,0.166c0,0,24.11,22.173,28.416,26.05c4.303,3.873,5.813,4.733,10.333,4.733h109.139	c4.307,0,3.447-3.443,3.447-3.443l0.243-0.25c1.107,1.613,1.477,3.083,1.477,5.2v6.03c0,3.443-1.29,4.736-6.887,4.736H60.153	c-7.537,0-9.473-1.51-13.563-4.953c-0.437-0.367-0.99-0.84-1.633-1.393l-0.02-0.357c2.817-0.173,3.16-1.066,3.16-2.986	c0-2.15,0-2.797-1.613-4.304c0,0-0.97-0.863-3.337-2.8c-2.37-1.936-3.23-1.72-6.46-1.72c-1.953,0-4.067-0.316-5.43,0.34	l-0.103-0.196c-2.787-2.444-5.15-4.517-6.307-5.527c-3.443-3.013-4.303-4.52-4.303-8.397v-7.75c0-0.849,0.047-1.563,0.16-2.159	C20.78,128.399,20.883,128.059,21.023,127.766z" class="st4"/><path d="M38.036,135.042c-2.267-2.677-1.72-5.17,4.463-5.17h3.877v0.213l5.157,4.954H38.036V135.042z" class="st5"/><path d="M11.933,137.405c-4.09,0-4.737,3.66-1.723,6.887c3.013,3.23,6.673,6.677,9.687,9.257	c3.013,2.583,4.413,2.476,6.567,2.476h5.703c2.583,0,3.23,5.06,0.217,5.06c-3.013,0,0.647,0-5.597,0	c-6.243,0-7.967-1.293-11.84-4.52c-3.877-3.23-4.09-4.09-8.827-8.396c-4.737-4.307-4.09-6.027-4.09-9.257s3.013-7.32,7.533-7.32	h3.24c0.84,1.193,2.02,1.937,3.327,1.937c2.157,0,3.967-2.024,4.48-4.763l0.093,0.02c-0.113,0.596-0.16,1.309-0.16,2.159v6.46	H11.933z" class="st3"/><path d="M56.432,70.123h0.503v11.11h-0.257l-3.937-5.737L56.432,70.123z" class="st7"/><path d="M185.468,100.492l-0.793-0.09c0.08-0.526,0.116-1.106,0.116-1.746v-3.323h0.12	c3.07-2.097,6.297-1.937,9.367-0.16h0.63v5.424c0,2.136-0.33,4.003-0.92,5.61l-0.343-0.127	C192.055,102.716,189.365,100.606,185.468,100.492z" class="st3"/><path d="M124.822,140.849h-13.22v-0.43l-5.38-5.38h12.553L124.822,140.849z" class="st5"/><path d="M86.172,129.872v0.213l5.073,4.954h-12.42l-5.003-4.954v-0.213H86.172z" class="st5"/><path d="M148.788,114.209c1.777-3.067,1.937-6.297-0.163-9.363v-0.377h9.15v0.377c2.1,3.066,1.936,6.296,0.163,9.363	H148.788z" class="st3"/><path d="M148.938,132.052c-1.503-1.337-2.68-2.343-3.326-2.826c-0.664-0.497-1.35-0.93-2.067-1.307l0.077-0.147	c1.776-1.613,3.873-1.613,10.01-1.613h39.716c7.426,0,8.233,1.29,13.4,5.166l0.17,0.617c-1.614,0.567-2.894,1.247-3.894,1.977	l-0.15-0.334c-3.39-2.746-3.553-2.906-8.073-2.906h-37.456c-4.683,0-7.75-0.324-7.91,1.13L148.938,132.052z" class="st3"/><path d="M141.845,104.469h6.78v0.377c2.1,3.066,1.94,6.296,0.163,9.363h-6.943V104.469z" class="st3"/><path d="M127.342,130.085l5.156,4.954h-13.723l-5.156-4.954v-0.213h12.19c0.513,0,1.026,0,1.533,0.003V130.085z" class="st5"/><path d="M69.929,140.849h-12.35l-6.047-5.81h12.35L69.929,140.849z" class="st5"/><path d="M184.911,86.186c3.07-2.1,6.297-1.94,9.367-0.163h0.63v9.15h-0.63c-3.07-1.777-6.297-1.937-9.367,0.16h-0.12	v-9.146H184.911z" class="st3"/><path d="M75.086,146.232h-12.35v-0.43l-5.157-4.953h12.35l5.157,4.953V146.232z" class="st5"/><path d="M101.269,129.872v0.213l4.953,4.954H91.245l-5.073-4.954v-0.213H101.269z" class="st5"/><path d="M30.689,56.573c-2.977,0-5.41,2.433-5.41,5.41v48.913c0,2.976,2.433,5.413,5.41,5.413h96.703	c2.976,0,5.413-2.437,5.413-5.413V61.983c0-2.977-2.437-5.41-5.413-5.41H30.689z" class="st8"/><path d="M119.035,84.622c1.022,0,1.858,0.835,1.858,1.857c0,0.511-0.208,0.976-0.545,1.313	c-0.336,0.336-0.802,0.544-1.313,0.544h-7.511c-1.022,0-1.857-0.835-1.857-1.857c0-0.511,0.208-0.976,0.544-1.313	c0.337-0.337,0.802-0.544,1.313-0.544H119.035z" class="st1"/><path d="M119.035,92.931c1.022,0,1.858,0.835,1.858,1.857c0,0.511-0.208,0.976-0.545,1.313	c-0.336,0.337-0.802,0.544-1.313,0.544h-7.511c-1.022,0-1.857-0.835-1.857-1.857c0-0.511,0.208-0.976,0.544-1.313	c0.337-0.337,0.802-0.544,1.313-0.544H119.035z" class="st1"/><path d="M119.035,101.24c1.022,0,1.858,0.835,1.858,1.857c0,0.511-0.208,0.976-0.545,1.313	c-0.336,0.336-0.802,0.544-1.313,0.544h-7.511c-1.022,0-1.857-0.835-1.857-1.857c0-0.511,0.208-0.977,0.544-1.313	c0.337-0.337,0.802-0.544,1.313-0.544H119.035z" class="st1"/><path d="M105.326,84.622c1.022,0,1.857,0.835,1.857,1.857c0,0.511-0.208,0.976-0.544,1.313	c-0.337,0.336-0.802,0.544-1.313,0.544h-7.511c-1.022,0-1.857-0.835-1.857-1.857c0-0.511,0.208-0.976,0.544-1.313	s0.802-0.544,1.313-0.544H105.326z" class="st1"/><path d="M105.326,92.931c1.022,0,1.857,0.835,1.857,1.857c0,0.511-0.208,0.976-0.544,1.313	c-0.337,0.337-0.802,0.544-1.313,0.544h-7.511c-1.022,0-1.857-0.835-1.857-1.857c0-0.511,0.208-0.976,0.544-1.313	s0.802-0.544,1.313-0.544H105.326z" class="st1"/><path d="M105.326,101.24c1.022,0,1.857,0.835,1.857,1.857c0,0.511-0.208,0.976-0.544,1.313	c-0.337,0.336-0.802,0.544-1.313,0.544h-7.511c-1.022,0-1.857-0.835-1.857-1.857c0-0.511,0.208-0.977,0.544-1.313	c0.337-0.337,0.802-0.544,1.313-0.544H105.326z" class="st1"/><path d="M63.831,67.609c1.022,0,1.857,0.839,1.857,1.861c0,0.507-0.208,0.972-0.544,1.309	c-0.336,0.337-0.802,0.548-1.313,0.548H40.566c-1.022,0-1.857-0.839-1.857-1.857c0-0.511,0.208-0.976,0.544-1.313	c0.337-0.341,0.802-0.548,1.313-0.548H63.831z" class="st1"/><path d="M63.831,93.367c1.022,0,1.857,0.839,1.857,1.861c0,0.507-0.208,0.972-0.544,1.309	c-0.336,0.337-0.802,0.548-1.313,0.548H40.566c-1.022,0-1.857-0.839-1.857-1.857c0-0.511,0.208-0.976,0.544-1.313	c0.337-0.341,0.802-0.548,1.313-0.548H63.831z" class="st1"/><path d="M55.231,84.622c1.022,0,1.857,0.835,1.857,1.857c0,0.511-0.208,0.976-0.544,1.313	c-0.337,0.336-0.802,0.544-1.313,0.544H40.566c-1.022,0-1.857-0.835-1.857-1.857c0-0.511,0.208-0.976,0.544-1.313	c0.337-0.337,0.802-0.544,1.313-0.544H55.231z" class="st1"/><path d="M55.231,101.24c1.022,0,1.857,0.835,1.857,1.857c0,0.511-0.208,0.976-0.544,1.313	c-0.337,0.336-0.802,0.544-1.313,0.544H40.566c-1.022,0-1.857-0.835-1.857-1.857c0-0.511,0.208-0.977,0.544-1.313	c0.337-0.337,0.802-0.544,1.313-0.544H55.231z" class="st1"/><path d="M63.831,71.328H40.566c-1.022,0-1.857-0.839-1.857-1.857c0-0.511,0.208-0.976,0.544-1.313	c0.337-0.341,0.802-0.548,1.313-0.548h23.265c1.022,0,1.857,0.839,1.857,1.861c0,0.507-0.208,0.972-0.544,1.309	C64.807,71.116,64.342,71.328,63.831,71.328z" class="st9"/><path d="M55.231,88.336H40.566c-1.022,0-1.857-0.835-1.857-1.857c0-0.511,0.208-0.976,0.544-1.313	c0.337-0.337,0.802-0.544,1.313-0.544h14.665c1.022,0,1.857,0.835,1.857,1.857c0,0.511-0.208,0.976-0.544,1.313	C56.208,88.128,55.742,88.336,55.231,88.336z" class="st9"/><path d="M63.831,97.085H40.566c-1.022,0-1.857-0.839-1.857-1.857c0-0.511,0.208-0.976,0.544-1.313	c0.337-0.341,0.802-0.548,1.313-0.548h23.265c1.022,0,1.857,0.839,1.857,1.861c0,0.507-0.208,0.972-0.544,1.309	C64.807,96.873,64.342,97.085,63.831,97.085z" class="st9"/><path d="M55.231,104.954H40.566c-1.022,0-1.857-0.835-1.857-1.857c0-0.511,0.208-0.977,0.544-1.313	c0.337-0.337,0.802-0.544,1.313-0.544h14.665c1.022,0,1.857,0.835,1.857,1.857c0,0.511-0.208,0.976-0.544,1.313	C56.208,104.746,55.742,104.954,55.231,104.954z" class="st9"/><path d="M119.035,88.336h-7.511c-1.022,0-1.857-0.835-1.857-1.857c0-0.511,0.208-0.976,0.544-1.313	c0.337-0.337,0.802-0.544,1.313-0.544h7.511c1.022,0,1.858,0.835,1.858,1.857c0,0.511-0.208,0.976-0.545,1.313	C120.012,88.128,119.546,88.336,119.035,88.336z" class="st9"/><path d="M119.035,104.954h-7.511c-1.022,0-1.857-0.835-1.857-1.857c0-0.511,0.208-0.977,0.544-1.313	c0.337-0.337,0.802-0.544,1.313-0.544h7.511c1.022,0,1.858,0.835,1.858,1.857c0,0.511-0.208,0.976-0.545,1.313	C120.012,104.746,119.546,104.954,119.035,104.954z" class="st9"/><path d="M119.035,96.645h-7.511c-1.022,0-1.857-0.835-1.857-1.857c0-0.511,0.208-0.976,0.544-1.313	c0.337-0.337,0.802-0.544,1.313-0.544h7.511c1.022,0,1.858,0.835,1.858,1.857c0,0.511-0.208,0.976-0.545,1.313	C120.012,96.437,119.546,96.645,119.035,96.645z" class="st9"/><path d="M105.326,88.336h-7.511c-1.022,0-1.857-0.835-1.857-1.857c0-0.511,0.208-0.976,0.544-1.313	s0.802-0.544,1.313-0.544h7.511c1.022,0,1.857,0.835,1.857,1.857c0,0.511-0.208,0.976-0.544,1.313	C106.302,88.128,105.837,88.336,105.326,88.336z" class="st9"/><path d="M105.326,104.954h-7.511c-1.022,0-1.857-0.835-1.857-1.857c0-0.511,0.208-0.977,0.544-1.313	c0.337-0.337,0.802-0.544,1.313-0.544h7.511c1.022,0,1.857,0.835,1.857,1.857c0,0.511-0.208,0.976-0.544,1.313	C106.302,104.746,105.837,104.954,105.326,104.954z" class="st9"/><path d="M105.326,96.645h-7.511c-1.022,0-1.857-0.835-1.857-1.857c0-0.511,0.208-0.976,0.544-1.313	s0.802-0.544,1.313-0.544h7.511c1.022,0,1.857,0.835,1.857,1.857c0,0.511-0.208,0.976-0.544,1.313	C106.302,96.437,105.837,96.645,105.326,96.645z" class="st9"/><path d="M91.205,87.551h-2.933" class="st9"/><path d="M82.896,87.551h-2.933" class="st9"/><path d="M74.587,87.551h-2.933" class="st9"/><path d="M66.278,87.551h-2.933" class="st9"/><path d="M91.205,96.275h-2.933" class="st9"/><path d="M82.896,96.275h-2.933" class="st9"/><path d="M74.587,96.275h-2.933" class="st9"/><path d="M91.205,104.999h-2.933" class="st9"/><path d="M82.896,104.999h-2.933" class="st9"/><path d="M74.587,104.999h-2.933" class="st9"/><path d="M66.278,104.999h-2.933" class="st9"/><path d="M99.161,67.269h21.437" class="st9"/><path d="M99.161,71.423h21.437" class="st9"/><path d="M39.108,78.199h81.215" class="st9"/><path d="M32.383,161.085c3.013,0,2.367-5.06-0.217-5.06h-2.367v-0.323c0-1.613,0.57-2.457,1.457-2.887	c1.363-0.656,3.477-0.34,5.43-0.34c3.23,0,4.09-0.216,6.46,1.72c2.367,1.937,3.337,2.8,3.337,2.8	c1.613,1.507,1.613,2.154,1.613,4.304c0,1.92-0.343,2.813-3.16,2.986c-0.343,0.02-0.723,0.03-1.143,0.03h-6.673	C34.966,164.315,32.383,161.085,32.383,161.085z" class="st4"/><path d="M129.978,146.232H75.086v-0.43l-5.157-4.953h54.893l5.156,4.953V146.232z" class="st5"/><path d="M138.545,140.849h-13.723l-6.047-5.81h13.723L138.545,140.849z" class="st5"/><path d="M84.476,140.849H69.929l-6.047-5.81h14.943l5.65,5.596V140.849z" class="st5"/><path d="M44.223,140.849h13.357l5.157,4.953v0.43h-5.597c-5.167,0-8.18-0.863-10.98-3.447	c-0.727-0.67-1.387-1.273-2.017-1.85L44.223,140.849z" class="st5"/><path d="M38.409,135.039h13.123l6.047,5.81H44.223l-0.08,0.086c-1.803-1.656-3.363-3.1-5.517-5.253	c-0.213-0.213-0.41-0.427-0.59-0.64h0.373V135.039z" class="st5"/><path d="M199.971,139.239h0.32c3.94-2.777,9.73-1.987,13.547,1.17c0.406,0.336,0.79,0.7,1.146,1.086	c3.714,4.037,7.104,10.494,6.617,18.244l-0.02,0.11c-3.87-0.75-5.78-2.6-8.697-5.277c0,0-6.62-5.973-9.85-9.203	C200.301,142.635,199.988,142.172,199.971,139.239z" class="st1"/><path d="M73.822,129.872v0.213l5.003,4.954H63.882l-5.157-4.954v-0.213H73.822z" class="st5"/><path d="M182.418,103.832c1.313-0.63,2.003-1.746,2.257-3.43l0.793,0.09c3.897,0.114,6.587,2.224,8.177,5.587	l0.343,0.127c-1.453,3.963-4.5,6.36-8.14,7.396l-0.097-0.356c0.964-3.41,0.324-6.58-2.47-9.034L182.418,103.832z" class="st3"/><path d="M113.619,129.872v0.213l5.156,4.954h-12.553l-4.953-4.954v-0.213H113.619z" class="st5"/><path d="M151.642,141.925c3.456,3.864,1.29,4.307-4.737,4.307h-3.203v-0.43l-5.157-4.953h11.803l0.174-0.16	C150.878,141.079,151.252,141.489,151.642,141.925z" class="st5"/><path d="M271.49,164.258l-0.08,6.504c-0.213,1.22-1.38,2.163-3.956,2.163h-53.28c-6.616,0-9.04,0.967-14.69-3.713	c-5.653-4.684-17.276-15.5-21.473-19.537c-0.913-0.876-1.473-1.71-1.75-2.48l-0.186-0.696v-6.5c0.11,0.973,0.7,2.086,1.936,3.273	c4.197,4.037,15.82,14.853,21.473,19.533c5.65,4.683,8.074,3.713,14.69,3.713h53.28c2.65,0,3.806-0.996,3.97-2.27L271.49,164.258z" class="st10"/><path d="M231.411,136.085h4.076c6.297,0,7.427,0.084,11.624,3.31c4.2,3.23,18.969,17.517,22.766,21.314	c1.063,1.063,1.697,2.41,1.547,3.539c-0.164,1.274-1.32,2.27-3.97,2.27h-53.28c-6.616,0-9.04,0.97-14.69-3.713	c-5.653-4.68-17.276-15.496-21.473-19.533c-1.236-1.187-1.826-2.3-1.936-3.273c-0.267-2.344,2.25-3.914,5.326-3.914h19.503" class="st11"/><path d="M176.261,147.195c0.277,0.77,0.837,1.604,1.75,2.48c4.197,4.037,15.82,14.853,21.473,19.537	c5.65,4.68,8.074,3.713,14.69,3.713h53.28c2.576,0,3.743-0.943,3.956-2.163l0.08-6.504" class="st11"/><path d="M176.075,139.395v0.604v6.5" class="st11"/><path d="M93.059,56.573h34.333c2.976,0,5.413,2.433,5.413,5.41v48.913c0,2.976-2.437,5.413-5.413,5.413H30.69	c-2.977,0-5.41-2.437-5.41-5.413V61.983c0-2.977,2.433-5.41,5.41-5.41H93.059z" class="st11"/><path d="M92.902,48.5h40.59c1.58,0,3.06,0.443,4.323,1.213c2.413,1.47,4.03,4.127,4.03,7.14v60.466	c0,4.597-3.757,8.353-8.353,8.353H25.236c-0.507,0-1.007-0.046-1.487-0.136c-1.01-0.18-1.953-0.547-2.803-1.057" class="st11"/><path d="M19.576,123.449c-1.653-1.527-2.693-3.713-2.693-6.13V56.853c0-4.593,3.76-8.353,8.353-8.353H93" class="st11"/><path d="M20.923,124.466c-0.067-0.04-0.13-0.08-0.193-0.124h-0.003c-0.153-0.1-0.303-0.203-0.447-0.31	c-0.24-0.18-0.473-0.37-0.693-0.576" class="st11"/><path d="M122.732,42.096c2.13,0,4.13,0.59,5.843,1.61c0.003,0,0.003,0.003,0.007,0.003" class="st11"/><path d="M138.635,49.9l-0.677-0.417l-9.386-5.773" class="st11"/><path d="M58.842,42.096H17.826c-6.307,0-11.463,5.157-11.463,11.463v54.246c0,3.873,1.943,7.31,4.907,9.39l4.55,3.423	l3.757,2.83l0.01,0.007l1.193,0.9c0,0,0.003,0.003,0.007,0.003l0.137,0.107l0.023,0.013l0.423,0.32" class="st11"/><path d="M122.732,42.096H58.5" class="st11"/><path d="M44.956,164.642c0.643,0.553,1.197,1.026,1.633,1.393c4.09,3.443,6.027,4.953,13.563,4.953h107.419	c5.597,0,6.887-1.293,6.887-4.736v-6.03c0-2.117-0.37-3.587-1.477-5.2c-0.58-0.843-1.36-1.727-2.396-2.763	c-2.447-2.45-15.13-14.417-21.647-20.207c-1.503-1.337-2.68-2.343-3.326-2.826c-0.664-0.497-1.35-0.93-2.067-1.307	c-3-1.577-6.503-2.137-10.847-2.137H28.076c-2.06,0-3.583,0.07-4.693,0.324c-0.973,0.226-1.633,0.593-2.07,1.18H21.31	c-0.107,0.143-0.203,0.303-0.287,0.48c-0.14,0.293-0.243,0.633-0.32,1.02c-0.113,0.596-0.16,1.309-0.16,2.159v7.75	c0,3.877,0.86,5.384,4.303,8.397c1.157,1.01,3.52,3.083,6.307,5.527" class="st11"/><path d="M21.403,127.932c0,0,24.11,22.173,28.416,26.05c4.303,3.873,5.813,4.733,10.333,4.733h109.139	c4.307,0,3.447-3.443,3.447-3.443" class="st11"/><path d="M95.672,158.715c0,0-3.017-2.15-5.813-4.303c-2.8-2.153-2.583-4.52,1.29-4.52h21.743	c4.52,0,6.853,1.33,9.04,3.227c3.23,2.8,5.6,5.166,5.6,5.166" class="st11"/><path d="M143.702,146.232h3.203c6.027,0,8.193-0.443,4.737-4.307c-0.39-0.436-0.764-0.846-1.12-1.236	c-2.257-2.45-3.98-4.084-6.077-5.8c-0.703-0.574-1.453-1.16-2.277-1.79c-3.883-2.97-9.16-3.207-14.826-3.224	c-0.507-0.003-1.02-0.003-1.533-0.003h-83.31c-6.183,0-6.73,2.493-4.463,5.17c0.18,0.213,0.377,0.427,0.59,0.64	c2.153,2.153,3.713,3.597,5.517,5.253c0.63,0.577,1.29,1.18,2.017,1.85c2.8,2.584,5.813,3.447,10.98,3.447H143.702z" class="st11"/><path d="M38.409,135.039h13.123h12.35h14.943h12.42h14.977h12.553h13.723h11.824" class="st11"/><path d="M44.223,140.849h13.357h12.35h14.547h12.056h15.07h13.22h13.723h11.803" class="st11"/><path d="M46.376,130.086l5.157,4.953l6.047,5.81l5.157,4.953" class="st11"/><path d="M58.726,130.086l5.157,4.953l6.047,5.81l5.157,4.953" class="st11"/><path d="M73.822,130.086l5.003,4.953l5.65,5.596" class="st11"/><path d="M86.172,130.086l5.073,4.953l5.287,5.163" class="st11"/><path d="M101.269,130.086l4.953,4.953l5.38,5.38" class="st11"/><path d="M113.619,130.086l5.156,4.953l6.047,5.81l5.156,4.953" class="st11"/><path d="M127.342,130.086l5.156,4.953l6.047,5.81l5.157,4.953" class="st11"/><path d="M20.28,124.032c0.103,0.324,0.203,0.757,0.283,1.22c0.117,0.664,0.193,1.39,0.193,1.927	c0,0.127-0.003,0.253-0.01,0.377c-0.017,0.416-0.063,0.82-0.137,1.21c-0.513,2.739-2.323,4.763-4.48,4.763	c-1.307,0-2.487-0.744-3.327-1.937c-0.807-1.143-1.303-2.696-1.303-4.413c0-3.277,1.81-5.973,4.133-6.313" class="st11"/><path d="M16.13,133.529h3.767" class="st11"/><path d="M12.576,131.592H9.563c-4.52,0-7.533,4.09-7.533,7.32s-0.647,4.95,4.09,9.257	c4.737,4.306,4.95,5.166,8.827,8.396c3.873,3.227,5.597,4.52,11.84,4.52c6.243,0,2.583,0,5.597,0c3.013,0,2.367-5.06-0.217-5.06	h-5.703c-2.153,0-3.553,0.107-6.567-2.476c-3.013-2.58-6.673-6.027-9.687-9.257c-3.013-3.227-2.367-6.887,1.723-6.887h8.393" class="st11"/><path d="M12.816,131.592h-0.013" class="st11"/><path d="M12.803,131.592h-0.227" class="st11"/><path d="M29.799,155.702c0-1.613,0.57-2.457,1.457-2.887c1.363-0.656,3.477-0.34,5.43-0.34	c3.23,0,4.09-0.216,6.46,1.72c2.367,1.937,3.337,2.8,3.337,2.8c1.613,1.507,1.613,2.154,1.613,4.304c0,1.92-0.343,2.813-3.16,2.986	c-0.343,0.02-0.723,0.03-1.143,0.03h-6.673c-2.153,0-4.737-3.23-4.737-3.23" class="st11"/><path d="M141.952,104.469h36.813c1.553,0,2.75-0.203,3.653-0.637c1.313-0.63,2.003-1.746,2.257-3.43	c0.08-0.526,0.116-1.106,0.116-1.746V77.993" class="st11"/><path d="M141.845,114.209h39.503c1.55,0,3.073-0.197,4.5-0.607c3.64-1.036,6.686-3.433,8.14-7.396	c0.59-1.607,0.92-3.474,0.92-5.61v-22.39" class="st11"/><path d="M226.611,22.197c1.53,1.147,2.526,2.973,2.526,5.023v44.283c0,3.45-2.823,6.273-6.276,6.273h-62.58	c-1.509,0-2.899-0.54-3.983-1.437c-1.396-1.153-2.29-2.897-2.29-4.837V27.22c0-3.45,2.824-6.273,6.273-6.273h62.58	C224.264,20.947,225.564,21.413,226.611,22.197z" class="st11"/><path d="M156.162,76.509l-6.87-5.19c-1.87-1.583-3.06-3.943-3.06-6.57V23.61c0-4.737,3.873-8.61,8.61-8.61h59.799	c2.247,0,3.847,0.887,5.833,2.29l6.243,4.767l1.084,0.827" class="st11"/><path d="M221.628,67.693c0,1.683-1.374,3.06-3.057,3.06h-53.46c-1.68,0-3.056-1.377-3.056-3.06V31.19	c0-1.683,1.376-3.06,3.056-3.06h53.46c1.683,0,3.057,1.377,3.057,3.06V67.693z" class="st11"/><path d="M148.625,104.846c2.1,3.066,1.94,6.296,0.163,9.363" class="st11"/><path d="M157.775,104.846c2.1,3.066,1.936,6.296,0.163,9.363" class="st11"/><path d="M166.925,104.846c2.1,3.066,1.936,6.296,0.16,9.363" class="st11"/><path d="M176.075,104.846c2.096,3.066,1.936,6.296,0.16,9.363" class="st11"/><path d="M183.281,104.212c2.794,2.454,3.434,5.624,2.47,9.034" class="st11"/><path d="M185.468,100.492c3.897,0.114,6.587,2.224,8.177,5.587" class="st11"/><path d="M184.911,95.332c3.07-2.097,6.297-1.937,9.367-0.16" class="st11"/><path d="M184.911,86.186c3.07-2.1,6.297-1.94,9.367-0.163" class="st11"/><path d="M211.348,130.852c-1.7,0.273-3.167,0.647-4.43,1.09c-1.614,0.567-2.894,1.247-3.894,1.977	c-0.943,0.693-1.636,1.433-2.12,2.166c-0.663,0.997-0.936,1.984-0.936,2.827c0,0.113,0,0.22,0.003,0.327	c0.017,2.933,0.33,3.396,3.063,6.13c3.23,3.23,9.85,9.203,9.85,9.203c2.917,2.677,4.827,4.527,8.697,5.277	c1.27,0.246,2.75,0.373,4.543,0.373h11.947c3.713,0,6.456-1.937,5.003-6.457c-0.77-2.4-3.727-8.85-8.453-14.373" class="st11"/><path d="M234.617,139.392c-0.993-1.16-2.063-2.277-3.206-3.307c-3.677-3.313-8.117-5.73-13.2-5.73	c-2.62,0-4.89,0.18-6.857,0.497" class="st11"/><path d="M200.291,139.235c3.94-2.773,9.73-1.983,13.547,1.174c0.406,0.336,0.79,0.7,1.146,1.086	c3.714,4.037,7.104,10.494,6.617,18.244" class="st11"/><path d="M214.014,140.202c0,0,3.354-0.817,9.704-1.04c2.983-0.103,6.629-0.077,10.899,0.23h0.004	c0.02,0,0.04,0.003,0.06,0.003" class="st11"/><path d="M211.271,130.839c0,0,0.027,0,0.077,0.013c0,0,0,0.003,0.006,0c0.667,0.133,5.207,1.143,9.777,5.233	c0.863,0.774,1.73,1.657,2.57,2.667" class="st11"/><path d="M143.622,127.772c1.776-1.613,3.873-1.613,10.01-1.613h39.716c7.426,0,8.233,1.29,13.4,5.166" class="st11"/><path d="M202.874,133.585c-3.39-2.746-3.553-2.906-8.073-2.906h-37.456c-4.683,0-7.75-0.323-7.91,1.13" class="st11"/><path d="M181.422,49.685l-2.602,3.904c0,0,4.62-0.065,13.206,8.523c0,0,3.057-16.135,12.1-25.894l-0.39-0.52	l-3.514-1.561c0,0-6.896,7.351-10.278,20.233c0,0-4.359-4.033-8.524-4.684L181.422,49.685z" class="st12"/><path d="M200.297,34.079c-3.087,2.726-9.332,13.937-10.416,20.312c-0.441-0.425-2.645-2.906-8.631-4.924	c-0.226,0.373-2.169,3.622-2.408,3.969c5.486,0.694,13.033,8.327,13.272,8.717c1.714-9.91,7.59-22.162,12.086-26.08	c-0.515-0.269-3.464-1.706-3.903-1.996V34.079z" class="st11"/></svg>