<?xml version="1.0" encoding="utf-8"?>
<!-- Generator: Adobe Illustrator 27.3.1, SVG Export Plug-In . SVG Version: 6.00 Build 0)  -->
<svg version="1.1" id="Layer_1" xmlns="http://www.w3.org/2000/svg" xmlns:xlink="http://www.w3.org/1999/xlink" x="0px" y="0px"
	 viewBox="0 0 20 20" style="enable-background:new 0 0 20 20;" xml:space="preserve">
<path d="M8,0C6.9,0,6,0.9,6,2v12c0,1.1,0.9,2,2,2h8c1.1,0,2-0.9,2-2V4.8c0-0.5-0.2-1-0.6-1.4l-2.8-2.8C14.2,0.2,13.7,0,13.2,0H8z"/>
<path d="M2,6c0-1.1,0.9-2,2-2v12c0,1.1,0.9,2,2,2h8c0,1.1-0.9,2-2,2H4c-1.1,0-2-0.9-2-2V6z"/>
</svg>
