<svg xmlns="http://www.w3.org/2000/svg" id="Layer_1" viewBox="0 0 20 20"><defs><style>.st0{fill-rule:evenodd}</style></defs><path d="M18.25 3c.966 0 1.75.783 1.75 1.75v10.5A1.75 1.75 0 0 1 18.25 17H1.75A1.75 1.75 0 0 1 0 15.25V4.75C0 3.783.784 3 1.75 3zM8.829 5.75a.25.25 0 0 0-.241.317l.885 3.183H7.917l-.36-1.079A.25.25 0 0 0 7.321 8h-.974a.25.25 0 0 0-.237.329L6.668 10l-.558 1.671a.25.25 0 0 0 .237.329h.974a.25.25 0 0 0 .236-.171l.36-1.079h1.556l-.885 3.183a.25.25 0 0 0 .241.317h1.017a.25.25 0 0 0 .224-.139l1.681-3.361h2.5a.75.75 0 0 0 0-1.5h-2.5L10.07 5.889a.25.25 0 0 0-.224-.139z" class="st0"/></svg>