<svg xmlns="http://www.w3.org/2000/svg" xml:space="preserve" id="Layer_1" x="0" y="0" viewBox="0 0 20 20"><style>.st0{fill-rule:evenodd;clip-rule:evenodd}</style><path d="M1.5 3A1.5 1.5 0 0 0 0 4.5v1a.5.5 0 0 0 .5.5h19a.5.5 0 0 0 .5-.5v-1A1.5 1.5 0 0 0 18.5 3zM.5 8a.5.5 0 0 0-.5.5v7A1.5 1.5 0 0 0 1.5 17h10.356v-1.5c0-.833.407-1.571 1.034-2.025A4 4 0 0 1 20 11.528V8.5a.5.5 0 0 0-.5-.5z"/><path d="M18.855 14v1h.5a.5.5 0 0 1 .5.5v3a1.5 1.5 0 0 1-1.5 1.5h-3a1.5 1.5 0 0 1-1.5-1.5v-3a.5.5 0 0 1 .5-.5h.5v-1a2 2 0 1 1 4 0m-1 0v1h-2v-1a1 1 0 0 1 2 0" class="st0"/></svg>