<svg xmlns="http://www.w3.org/2000/svg" xmlns:xlink="http://www.w3.org/1999/xlink" id="Layer_1" x="0" y="0" version="1.1" viewBox="0 0 20 20" style="enable-background:new 0 0 20 20" xml:space="preserve"><style type="text/css">.st0{fill-rule:evenodd;clip-rule:evenodd}</style><path d="M1.5,3C0.672,3,0,3.672,0,4.5v1C0,5.776,0.224,6,0.5,6h19C19.776,6,20,5.776,20,5.5v-1C20,3.672,19.328,3,18.5,3H1.5z"/><path d="M0.5,8C0.224,8,0,8.224,0,8.5v7C0,16.328,0.672,17,1.5,17h11.817c0.088-0.175,0.193-0.342,0.314-0.499L14.022,16	l-0.39-0.501C13.222,14.972,13,14.324,13,13.657V12.25c0-1.243,1.007-2.25,2.25-2.25h4.389c0.123,0,0.243,0.01,0.361,0.029V8.5	C20,8.224,19.776,8,19.5,8H0.5z"/><path d="M15,13.657V13c0-0.036,0.002-0.073,0.006-0.108l-0.001-0.002l-0.002-0.001L15,12.886V12.25	c0-0.138,0.112-0.25,0.25-0.25h4.389c0.138,0,0.25,0.112,0.25,0.25v0.636l-0.003,0.003l-0.003,0.003	c0.004,0.035,0.006,0.071,0.006,0.108v0.657c0,0.222-0.074,0.438-0.211,0.614l-0.867,1.115c-0.281,0.361-0.281,0.867,0,1.228	l0.867,1.115c0.137,0.175,0.211,0.392,0.211,0.614v1.407c0,0.138-0.112,0.25-0.25,0.25H15.25C15.112,20,15,19.888,15,19.75v-1.407	c0-0.222,0.074-0.438,0.211-0.614l0.867-1.115c0.281-0.361,0.281-0.867,0-1.228l-0.867-1.115C15.074,14.095,15,13.879,15,13.657z M18.494,12.889H16.39c-0.428,0-0.658,0.502-0.379,0.826l1.052,1.223c0.199,0.232,0.559,0.232,0.758,0l1.052-1.223	C19.153,13.391,18.922,12.889,18.494,12.889z" class="st0"/></svg>