<?xml version="1.0" encoding="UTF-8"?>
<svg id="Layer_1" xmlns="http://www.w3.org/2000/svg" version="1.1" viewBox="0 0 20 20">
  <!-- Generator: Adobe Illustrator 30.3.0, SVG Export Plug-In . SVG Version: 2.1.3 Build 182)  -->
  <path d="M1.2,3c-.66,0-1.2.53-1.2,1.18v.79c0,.22.18.39.4.39h15.2c.22,0,.4-.18.4-.39v-.79c0-.65-.54-1.18-1.2-1.18H1.2Z"/>
  <path d="M.4,6.93c-.22,0-.4.18-.4.39v5.5c0,.65.54,1.18,1.2,1.18h13.6c.66,0,1.2-.53,1.2-1.18v-5.5c0-.22-.18-.39-.4-.39H.4Z"/>
  <path d="M19.6,10.93c.22,0,.4.18.4.39v5.5c0,.65-.54,1.18-1.2,1.18H5.2c-.66,0-1.2-.53-1.2-1.18v-.82h12.5c.83,0,1.5-.67,1.5-1.5v-3.57h1.6Z"/>
  <path d="M18.8,7c.66,0,1.2.53,1.2,1.18v.79c0,.22-.18.39-.4.39h-1.6v-2.36h.8Z"/>
</svg>