<svg xmlns="http://www.w3.org/2000/svg" id="Layer_1" viewBox="0 0 20 20"><defs><style>.st0{fill-rule:evenodd}</style></defs><path d="M19.64 12a.25.25 0 0 1 .25.25v.636l-.003.003-.003.004a1 1 0 0 1 .006.107v.657a1 1 0 0 1-.211.613l-.867 1.115a1 1 0 0 0 0 1.229l.867 1.115a1 1 0 0 1 .211.613v1.407a.25.25 0 0 1-.25.25h-4.39a.25.25 0 0 1-.25-.25v-1.407a1 1 0 0 1 .211-.613l.867-1.115a1 1 0 0 0 0-1.229l-.867-1.115a1 1 0 0 1-.211-.613V13q0-.054.006-.107v-.003h-.003L15 12.887v-.636a.25.25 0 0 1 .25-.25zm-3.249.889a.5.5 0 0 0-.38.826l1.053 1.223a.5.5 0 0 0 .758 0l1.053-1.223a.5.5 0 0 0-.379-.826h-2.104Z" class="st0"/><path d="M18.25 3c.966 0 1.75.783 1.75 1.75v5.281a2 2 0 0 0-.361-.031H15.25q-.128 0-.251.015L15 10a.75.75 0 0 0-.75-.75h-2.5l-1.681-3.361a.25.25 0 0 0-.224-.139H8.828a.25.25 0 0 0-.241.317l.885 3.183H7.916l-.36-1.079A.25.25 0 0 0 7.32 8h-.974a.25.25 0 0 0-.237.329L6.667 10l-.558 1.671a.25.25 0 0 0 .237.329h.974a.25.25 0 0 0 .236-.171l.36-1.079h1.556l-.885 3.183a.25.25 0 0 0 .241.317h1.017a.25.25 0 0 0 .224-.139l1.681-3.361h1.826a2.24 2.24 0 0 0-.576 1.5v1.465l.003.002a3 3 0 0 0 .629 1.782l.39.501-.39.501a3 3 0 0 0-.311.499H1.75A1.75 1.75 0 0 1 0 15.25V4.75C0 3.784.784 3 1.75 3z"/></svg>