<svg xmlns="http://www.w3.org/2000/svg" xml:space="preserve" id="Layer_1" x="0" y="0" viewBox="0 0 20 20"><style>.st0{fill-rule:evenodd;clip-rule:evenodd}</style><path d="M1.5 3A1.5 1.5 0 0 0 0 4.5v1a.5.5 0 0 0 .5.5h19a.5.5 0 0 0 .5-.5v-1A1.5 1.5 0 0 0 18.5 3zM.5 8a.5.5 0 0 0-.5.5v7A1.5 1.5 0 0 0 1.5 17h11.817q.132-.263.314-.499l.391-.501-.39-.501A3 3 0 0 1 13 13.657V12.25A2.25 2.25 0 0 1 15.25 10h4.389q.184 0 .361.029V8.5a.5.5 0 0 0-.5-.5z"/><path d="M15 13.657V13q0-.055.006-.108l-.001-.002-.002-.001-.003-.003v-.636a.25.25 0 0 1 .25-.25h4.389a.25.25 0 0 1 .25.25v.636l-.003.003-.003.003a1 1 0 0 1 .006.108v.657a1 1 0 0 1-.211.614l-.867 1.115a1 1 0 0 0 0 1.228l.867 1.115a1 1 0 0 1 .211.614v1.407a.25.25 0 0 1-.25.25H15.25a.25.25 0 0 1-.25-.25v-1.407a1 1 0 0 1 .211-.614l.867-1.115a1 1 0 0 0 0-1.228l-.867-1.115a1 1 0 0 1-.211-.614m3.494-.768H16.39a.5.5 0 0 0-.379.826l1.052 1.223a.5.5 0 0 0 .758 0l1.052-1.223a.5.5 0 0 0-.379-.826" class="st0"/></svg>