<?xml version="1.0" encoding="utf-8"?>
<!-- Generator: Adobe Illustrator 26.5.0, SVG Export Plug-In . SVG Version: 6.00 Build 0)  -->
<svg version="1.1" id="Layer_1" xmlns="http://www.w3.org/2000/svg" xmlns:xlink="http://www.w3.org/1999/xlink" x="0px" y="0px"
	 viewBox="0 0 20 20" style="enable-background:new 0 0 20 20;" xml:space="preserve">
<path d="M1.5,3C0.7,3,0,3.7,0,4.5v1C0,5.8,0.2,6,0.5,6h19C19.8,6,20,5.8,20,5.5v-1C20,3.7,19.3,3,18.5,3H1.5z"/>
<path d="M0.5,8C0.2,8,0,8.2,0,8.5v7C0,16.3,0.7,17,1.5,17h17c0.8,0,1.5-0.7,1.5-1.5v-7C20,8.2,19.8,8,19.5,8H0.5z"/>
</svg>
