<?xml version="1.0" encoding="utf-8"?>
<!-- Generator: Adobe Illustrator 28.1.0, SVG Export Plug-In . SVG Version: 6.00 Build 0)  -->
<svg version="1.1" id="Layer_1" xmlns="http://www.w3.org/2000/svg" xmlns:xlink="http://www.w3.org/1999/xlink" x="0px" y="0px"
	 viewBox="0 0 20 20" style="enable-background:new 0 0 20 20;" xml:space="preserve">
<path d="M4,0C2.895,0,2,0.895,2,2v16c0,1.105,0.895,2,2,2h8.302l-1.808-1.628c-1.232-1.108-1.331-3.005-0.223-4.237
	c1.108-1.232,3.005-1.331,4.237-0.223l0.157,0.141l1.872-2.457c0.386-0.506,0.901-0.856,1.464-1.037V7.5C18,7.224,17.776,7,17.5,7
	h-6C11.224,7,11,6.776,11,6.5v-6C11,0.224,10.776,0,10.5,0H4z"/>
<path d="M13,0l5,5h-4.5C13.224,5,13,4.776,13,4.5V0z"/>
<path d="M19.528,12.619c0.439,0.335,0.524,0.962,0.189,1.401l-4.503,5.91l-3.384-3.045c-0.411-0.369-0.444-1.002-0.074-1.412
	c0.37-0.411,1.002-0.444,1.412-0.074l1.77,1.593l3.187-4.184C18.461,12.37,19.089,12.285,19.528,12.619z"/>
</svg>
