<?xml version="1.0" encoding="utf-8"?>
<!-- Generator: Adobe Illustrator 27.3.1, SVG Export Plug-In . SVG Version: 6.00 Build 0)  -->
<svg version="1.1" id="Layer_1" xmlns="http://www.w3.org/2000/svg" xmlns:xlink="http://www.w3.org/1999/xlink" x="0px" y="0px"
	 viewBox="0 0 20 20" style="enable-background:new 0 0 20 20;" xml:space="preserve">
<style type="text/css">
	.st0{fill-rule:evenodd;clip-rule:evenodd;}
</style>
<path d="M4,0C2.895,0,2,0.895,2,2v16c0,1.105,0.895,2,2,2h7.541c-0.439-0.554-0.639-1.235-0.599-1.905
	C10.364,17.582,10,16.833,10,16c0-0.834,0.364-1.582,0.943-2.095c-0.046-0.771,0.226-1.558,0.815-2.147s1.376-0.861,2.147-0.815
	C14.418,10.364,15.166,10,16,10c0.784,0,1.492,0.322,2,0.84V7.5C18,7.224,17.776,7,17.5,7h-6C11.224,7,11,6.776,11,6.5v-6
	C11,0.224,10.776,0,10.5,0H4z"/>
<path d="M13,0l5,5h-4.5C13.224,5,13,4.776,13,4.5V0z"/>
<path class="st0" d="M16.8,12.8c0-0.442-0.358-0.8-0.8-0.8c-0.442,0-0.8,0.358-0.8,0.8v0.367c0,0.089-0.058,0.166-0.142,0.196
	c-0.088,0.031-0.174,0.067-0.257,0.107c-0.08,0.038-0.176,0.025-0.239-0.038l-0.259-0.259c-0.312-0.312-0.819-0.312-1.131,0
	s-0.312,0.819,0,1.131l0.259,0.259c0.063,0.063,0.076,0.159,0.038,0.239c-0.04,0.083-0.075,0.169-0.107,0.257
	c-0.03,0.083-0.107,0.142-0.196,0.142H12.8c-0.442,0-0.8,0.358-0.8,0.8c0,0.442,0.358,0.8,0.8,0.8h0.367
	c0.089,0,0.166,0.058,0.196,0.142c0.031,0.088,0.067,0.174,0.107,0.257c0.038,0.08,0.025,0.176-0.038,0.239l-0.26,0.26
	c-0.312,0.312-0.312,0.819,0,1.131c0.312,0.312,0.819,0.312,1.131,0l0.26-0.26c0.063-0.063,0.159-0.076,0.239-0.038
	c0.083,0.04,0.169,0.075,0.257,0.107c0.083,0.03,0.142,0.107,0.142,0.196V19.2c0,0.442,0.358,0.8,0.8,0.8c0.442,0,0.8-0.358,0.8-0.8
	v-0.367c0-0.089,0.058-0.166,0.142-0.196c0.088-0.031,0.174-0.067,0.257-0.107c0.08-0.038,0.176-0.025,0.239,0.038l0.26,0.26
	c0.312,0.312,0.819,0.312,1.131,0c0.312-0.312,0.312-0.819,0-1.131l-0.26-0.26c-0.063-0.063-0.076-0.159-0.038-0.239
	c0.04-0.083,0.075-0.169,0.107-0.257c0.03-0.083,0.107-0.142,0.196-0.142H19.2c0.442,0,0.8-0.358,0.8-0.8c0-0.442-0.358-0.8-0.8-0.8
	h-0.367c-0.089,0-0.166-0.058-0.196-0.142c-0.031-0.088-0.067-0.174-0.107-0.257c-0.038-0.08-0.025-0.176,0.038-0.239l0.259-0.259
	c0.312-0.312,0.312-0.819,0-1.131c-0.312-0.312-0.819-0.312-1.131,0l-0.259,0.259c-0.063,0.063-0.159,0.076-0.239,0.038
	c-0.083-0.04-0.169-0.075-0.257-0.107c-0.083-0.03-0.142-0.107-0.142-0.196V12.8z M17.5,16c0,0.828-0.672,1.5-1.5,1.5
	s-1.5-0.672-1.5-1.5s0.672-1.5,1.5-1.5S17.5,15.172,17.5,16z"/>
</svg>
