<?xml version="1.0" encoding="utf-8"?>
<!-- Generator: Adobe Illustrator 24.3.0, SVG Export Plug-In . SVG Version: 6.00 Build 0)  -->
<svg version="1.1" id="Layer_1" xmlns="http://www.w3.org/2000/svg" xmlns:xlink="http://www.w3.org/1999/xlink" x="0px" y="0px"
	 viewBox="0 0 20 20" style="enable-background:new 0 0 20 20;" xml:space="preserve">
<path d="M9.6,13.2c0.2,0.2,0.6,0.2,0.9,0l4.9-5c0.2-0.2,0.2-0.6,0-0.9l-0.9-0.9c-0.2-0.2-0.6-0.2-0.9,0l-2.4,2.4v-7
	c0-0.4-0.2-0.6-0.6-0.6H9.4C9,1.2,8.8,1.5,8.8,1.9V9L6.4,6.5c-0.2-0.2-0.6-0.2-0.9,0L4.6,7.4C4.4,7.6,4.4,8,4.6,8.2L9.6,13.2z"/>
<path d="M18.1,13.8h-1.2c-0.4,0-0.6,0.2-0.6,0.6v1.9H3.8v-1.9c0-0.4-0.2-0.6-0.6-0.6H1.9c-0.4,0-0.6,0.2-0.6,0.6v3.8
	c0,0.4,0.2,0.6,0.6,0.6h1.9h12.5h1.9c0.4,0,0.6-0.2,0.6-0.6v-3.8C18.8,14,18.5,13.8,18.1,13.8z"/>
</svg>
