<?xml version="1.0" encoding="utf-8"?>
<!-- Generator: Adobe Illustrator 26.5.0, SVG Export Plug-In . SVG Version: 6.00 Build 0)  -->
<svg version="1.1" id="Layer_1" xmlns="http://www.w3.org/2000/svg" xmlns:xlink="http://www.w3.org/1999/xlink" x="0px" y="0px"
	 viewBox="0 0 101 100" style="enable-background:new 0 0 101 100;" xml:space="preserve">
<style type="text/css">
	.st0{fill:#03D47C;}
	.st1{fill:#FFFFFF;}
</style>
<path class="st0" d="M50.5,0L50.5,0c27.6,0,50,22.4,50,50l0,0c0,27.6-22.4,50-50,50l0,0c-27.6,0-50-22.4-50-50l0,0
	C0.5,22.4,22.9,0,50.5,0z"/>
<path class="st1" d="M53.4,69.5v-3.6c0-2,1.3-3.3,3.2-3.3h3.2v-3.2c0-2,1.3-3.2,3.2-3.2h3.6V37h-6.5c-2,0-3.2-1.3-3.2-3.2v-6.5H35.9
	c-1,0-1.6,0.6-1.6,1.6v42.2c0,1,0.7,1.6,1.6,1.6h20.8C55,72.8,53.4,71.4,53.4,69.5z"/>
<path class="st1" d="M66.8,33.8l-6.5-6.5v6.5H66.8z"/>
<path class="st1" d="M66.8,65.9v-6.5h-3.6v6.5h-6.5v3.6h6.5v3.2V76h3.6v-4.9v-1.6h6.5v-3.6H66.8z"/>
</svg>
