<svg xmlns="http://www.w3.org/2000/svg" xmlns:xlink="http://www.w3.org/1999/xlink" xml:space="preserve" id="Layer_1" x="0" y="0" viewBox="0 0 375 220"><style>.st0{fill:none}.st1{fill:#712a76}.st2{fill:#03d47c;stroke:#002140}.st4{opacity:.5}.st5{fill:#ccf6ff}.st5,.st6,.st7{stroke:#002140;stroke-width:.8852}.st6{fill:#99f6ff}.st7{fill:none;stroke-linecap:round;stroke-linejoin:round}.st8{fill:#002140}.st10,.st9{stroke:#002140}.st9{fill:#fbccff}.st10{fill:none;stroke-linecap:round;stroke-linejoin:round}.st11{opacity:.9}.st12{fill:#e5fafe;stroke:#002140;stroke-width:.9741}.st13,.st14{fill:#99f6ff;stroke:#002140;stroke-linejoin:round}.st14{fill:none;stroke-width:.9741;stroke-linecap:round}</style><path d="M0 0h375v220H0z" class="st0"/><path d="M0 0h375v220H0z" class="st1"/><path d="M187.582 172.196a6.24 6.24 0 1 0-3.293 12.04 6.24 6.24 0 0 0 3.293-12.04z" class="st2"/><defs><path id="SVGID_1_" d="M0 0h375v220H0z"/></defs><clipPath id="SVGID_00000057109139307859050850000015794502080407023794_"><use xlink:href="#SVGID_1_" style="overflow:visible"/></clipPath><g style="clip-path:url(#SVGID_00000057109139307859050850000015794502080407023794_)"><g class="st4"><path d="m323.241 64.506 51.784-.04h.165l.125.108 8.169 7.095.153.132-.001.202.155 88.035.002 1.068-.757-.754-2.249-2.239-2.605 2.077-.277-.224-2.644-2.149-2.236 2.244-.344.346-.311-.377-1.765-2.138-2.21 2.072-.342.321-.301-.36-1.899-2.279-2.137 1.916-.304.272-.296-.28-2.178-2.061-2.565 2.456-.356.34-.301-.389-1.891-2.443-2.125 2.467-.336.39-.336-.391-2.059-2.396-2.403 2.179-.347.314-.294-.363-1.905-2.349-2.409 2.568-.368.39-.314-.434-1.848-2.55-1.929 2.858-.369.546-.366-.548-2.065-3.085-2.993 2.455-.408.333-.259-.458-1.441-2.556-1.882 2.787-.354.525-.372-.513-1.953-2.696-3.438 2.607-.712.54.002-.894.257-94.236.002-.441z" class="st5"/><path d="M375.024 64.908s3.762 3.269 2.98 7.446l5.189-.351z" class="st6"/><path d="m347.136 149.152 19.676-.017m-38.015-16.667 48.878-.037m-18.222-7.011-30.434.024.002 2.903 30.434-.024zm-11.296-5.691-19.142.015.002 2.902 19.143-.015zm-18.52-12.452 26.887-.02m-26.883 4.07 26.886-.023m-26.785-7.36 11.184-.011m26.725-.019 10.055-.007m-10.049 7.976 10.054-.01m-10.053 2.362 10.057-.011m-10.055 2.882 10.055-.006m-32.498-25.967 16.563-.013m-23.226 3.354 29.467-.025m-12.532-8.331a7.742 7.742 0 1 0-4.103-14.931 7.742 7.742 0 0 0 4.103 14.931" class="st7"/><path d="M355.125 77.04a.4.4 0 0 0 .157-.007c.354-.07.465-.413.467-.731v-.68c0-.242-.048-.495-.289-.604a.6.6 0 0 0-.523.046c-.016.01-.186.158-.15.188 0 0-.483-.409-.906-.41l-.002-.652s.001-.511-.565-.509c-.567 0-.567.566-.567.566l.001.652s-1.869.229-1.867 2.096c.002 2.492 3.966 1.329 3.97 2.859.002.217-.17.907-1.557.909-1.687.001-.908-1.401-1.971-1.4-.581.001-.721.44-.722.78v1.274s.029.482.568.481.68-.254.68-.254.397.396.908.396l-.001.732c.001.459-.073 1.138.567 1.137.535 0 .593-.448.595-.874l.001-1.023c-.001.031.786-.216.833-.235.554-.257.991-.704 1.175-1.294.211-.67.172-1.505-.348-2.026-.368-.37-.893-.542-1.391-.659-.482-.116-.977-.166-1.451-.309-.296-.087-.663-.24-.664-.601-.002-.765.851-.871 1.375-.871.508.001.874.152 1.124.594.115.204.319.402.557.432zm10.457 61.445a.4.4 0 0 0 .121-.005c.271-.053.355-.315.356-.557l-.002-.518c-.001-.183-.036-.376-.221-.459a.46.46 0 0 0-.397.035c-.011.006-.142.122-.114.145 0 0-.367-.313-.692-.312l-.001-.496s0-.389-.432-.39c-.432 0-.433.432-.433.432l.002.495s-1.425.175-1.423 1.598c.001 1.898 3.022 1.013 3.023 2.176 0 .166-.129.691-1.188.691-1.283.001-.692-1.068-1.5-1.067-.444 0-.551.335-.55.595l.001.971s.021.368.431.365c.409-.002.519-.194.519-.194s.303.302.692.299v.558c.001.349-.056.866.43.864.411.001.452-.341.454-.666v-.781c0 .024.598-.164.633-.18.424-.196.756-.539.896-.985.161-.509.129-1.146-.265-1.543-.282-.281-.68-.414-1.059-.502-.367-.087-.745-.126-1.106-.236-.224-.067-.506-.182-.506-.458 0-.581.648-.664 1.046-.664.398.001.666.117.859.453.089.156.244.307.424.328zm11.085-.008a.4.4 0 0 0 .121-.006c.271-.053.355-.314.356-.557l-.002-.517c-.001-.183-.036-.376-.221-.46a.45.45 0 0 0-.397.036c-.011.006-.142.122-.114.145 0 0-.367-.313-.692-.312l-.001-.496s0-.389-.432-.39-.433.431-.433.431l.002.496s-1.425.174-1.423 1.598c.001 1.898 3.022 1.013 3.023 2.176 0 .165-.129.691-1.188.691-1.283 0-.692-1.069-1.5-1.067-.444-.001-.551.335-.55.595l.001.971s.021.367.431.365c.41.001.519-.195.519-.195s.303.303.692.3v.558c.001.348-.056.866.43.864.411.001.451-.341.454-.667v-.78c0 .024.598-.165.633-.18.424-.197.756-.539.896-.985.16-.509.129-1.147-.265-1.544-.282-.281-.68-.413-1.059-.502-.38-.088-.745-.126-1.106-.235-.224-.067-.506-.182-.506-.458 0-.582.647-.665 1.046-.664.398.001.666.117.859.453.089.156.244.307.424.327zm-5.541.004a.4.4 0 0 0 .121-.006c.27-.052.355-.314.355-.557l-.001-.517c-.001-.183-.036-.376-.221-.46a.45.45 0 0 0-.397.036c-.011.006-.142.122-.114.145 0 0-.367-.313-.692-.312l-.001-.496s0-.389-.432-.39-.433.431-.433.431l.002.496s-1.425.174-1.423 1.598c.001 1.898 3.022 1.013 3.023 2.176 0 .165-.129.691-1.188.691-1.283 0-.692-1.069-1.5-1.067-.444-.001-.551.335-.55.595l.001.971s.021.367.431.365c.41.001.519-.195.519-.195s.303.303.692.3v.558c.001.348-.056.866.43.864.411.001.451-.341.454-.667v-.78c0 .024.598-.165.633-.18.424-.197.756-.539.896-.985.16-.509.129-1.147-.265-1.544-.282-.28-.68-.413-1.059-.502-.367-.086-.745-.126-1.106-.235-.224-.067-.507-.182-.506-.458 0-.582.647-.665 1.046-.664.389 0 .666.117.859.453.089.156.244.307.424.327z" class="st8"/></g><g class="st4"><path d="m-12.685 64.506 51.784-.04h.165l.125.108 8.169 7.095.153.132v.202l.155 88.035.002 1.068-.757-.754-2.249-2.239-2.605 2.077-.276-.224-2.644-2.149-2.236 2.244-.344.346-.311-.377-1.765-2.138-2.21 2.072-.342.321-.301-.36-1.899-2.279-2.137 1.916-.304.272-.296-.28-2.178-2.061-2.566 2.456-.355.34-.303-.389-1.891-2.443-2.126 2.467-.335.39-.336-.391-2.059-2.396-2.403 2.179-.347.314-.294-.363-1.904-2.349-2.41 2.568-.368.39-.314-.434-1.848-2.55-1.929 2.858-.369.546-.366-.548-2.065-3.085-2.994 2.455-.408.333-.259-.458-1.442-2.556-1.881 2.787-.354.525-.372-.513-1.953-2.696-3.438 2.607-.712.54.002-.894.257-94.236.001-.441z" class="st5"/><path d="M39.099 64.908s3.761 3.269 2.98 7.446l5.189-.351z" class="st6"/><path d="m11.21 149.152 19.676-.017m-38.015-16.667 48.878-.037m-18.222-7.011-30.434.024.002 2.903 30.434-.024zm-11.295-5.691-19.143.015.002 2.902 19.143-.015zm-18.521-12.452 26.887-.02m-26.883 4.07 26.886-.023m-26.785-7.36L5 103.933m26.726-.019 10.055-.007m-10.05 7.976 10.054-.01m-10.053 2.362 10.057-.011m-10.055 2.882 10.054-.006M9.291 91.133l16.563-.013M2.628 94.474l29.467-.025m-12.532-8.331a7.742 7.742 0 1 0-4.103-14.931 7.742 7.742 0 0 0 4.103 14.931" class="st7"/><path d="M19.199 77.04a.4.4 0 0 0 .158-.007c.354-.07.465-.413.466-.731v-.68c.001-.242-.047-.495-.288-.604a.6.6 0 0 0-.523.046c-.016.01-.186.158-.15.188 0 0-.483-.409-.906-.41l-.001-.652s0-.511-.566-.509c-.567 0-.567.566-.567.566l.002.652s-1.869.229-1.868 2.096c.002 2.492 3.967 1.329 3.97 2.859.001.217-.17.907-1.557.909-1.687.001-.909-1.401-1.971-1.4-.582.001-.721.44-.723.78l.001 1.274s.028.482.567.481.68-.254.68-.254.397.396.908.396l-.001.732c.001.459-.073 1.138.566 1.137.536 0 .594-.448.596-.874.002-.34-.001-.683.001-1.023-.001.031.786-.216.833-.235.554-.257.991-.704 1.176-1.294.211-.67.171-1.505-.349-2.026-.368-.37-.893-.542-1.391-.659-.482-.116-.977-.166-1.451-.309-.297-.087-.663-.24-.664-.601-.002-.765.851-.871 1.374-.871.509.001.875.152 1.125.594.114.204.319.402.557.432zm10.458 61.445q.058.007.121-.005c.27-.053.354-.315.355-.557l-.001-.518c-.001-.183-.036-.376-.221-.459a.46.46 0 0 0-.397.035c-.011.006-.141.122-.113.145 0 0-.368-.313-.692-.312l-.002-.496s0-.389-.432-.39c-.432 0-.433.432-.433.432l.001.495s-1.425.175-1.423 1.598c.001 1.898 3.022 1.013 3.023 2.176 0 .166-.129.691-1.188.691-1.283.001-.692-1.068-1.5-1.067-.444 0-.551.335-.55.595v.971s.021.368.431.365c.41-.002.519-.194.519-.194s.304.302.692.299v.558c.001.349-.056.866.431.864.41.001.451-.341.454-.666v-.781c.001.024.598-.164.633-.18.424-.196.755-.539.896-.985.16-.509.129-1.146-.265-1.543-.282-.281-.68-.414-1.06-.502-.367-.087-.745-.126-1.106-.236-.224-.067-.506-.182-.506-.458-.001-.581.647-.664 1.045-.664.398.001.666.117.859.453.089.156.243.307.424.328zm11.085-.008q.058.007.121-.006c.27-.053.354-.314.355-.557l-.001-.517c-.001-.183-.036-.376-.221-.46a.46.46 0 0 0-.398.036c-.011.006-.141.122-.113.145 0 0-.368-.313-.692-.312l-.002-.496s0-.389-.432-.39-.433.431-.433.431l.001.496s-1.425.174-1.423 1.598c.001 1.898 3.022 1.013 3.023 2.176 0 .165-.129.691-1.188.691-1.283 0-.692-1.069-1.5-1.067-.444-.001-.551.335-.55.595v.971s.021.367.431.365c.41.001.519-.195.519-.195s.304.303.692.3v.558c.001.348-.056.866.431.864.41.001.451-.341.454-.667v-.78c0 .024.598-.165.633-.18.424-.197.756-.539.896-.985.16-.509.129-1.147-.265-1.544-.282-.281-.68-.413-1.06-.502-.38-.088-.745-.126-1.106-.235-.224-.067-.506-.182-.506-.458-.001-.582.647-.665 1.046-.664.398.001.666.117.859.453.089.156.243.307.424.327zm-5.541.004q.058.007.121-.006c.27-.052.354-.314.355-.557l-.001-.517c-.001-.183-.036-.376-.221-.46a.45.45 0 0 0-.397.036c-.011.006-.141.122-.113.145 0 0-.367-.313-.692-.312l-.001-.496s0-.389-.432-.39-.433.431-.433.431l.001.496s-1.425.174-1.423 1.598c.001 1.898 3.022 1.013 3.023 2.176 0 .165-.129.691-1.188.691-1.283 0-.692-1.069-1.5-1.067-.444-.001-.551.335-.55.595v.971s.021.367.431.365c.41.001.519-.195.519-.195s.304.303.692.3v.558c.001.348-.056.866.431.864.41.001.451-.341.454-.667v-.78c0 .024.598-.165.633-.18.424-.197.755-.539.896-.985.16-.509.129-1.147-.265-1.544-.282-.28-.68-.413-1.06-.502-.367-.086-.745-.126-1.106-.235-.224-.067-.506-.182-.506-.458-.001-.582.647-.665 1.046-.664.389 0 .666.117.859.453.089.156.243.307.424.327z" class="st8"/></g><g class="st4"><path d="m67.315 64.506 51.784-.04h.165l.125.108 8.169 7.095.153.132v.202l.154 88.035.002 1.068-.757-.754-2.249-2.239-2.605 2.077-.277-.224-2.644-2.149-2.236 2.244-.344.346-.311-.377-1.765-2.138-2.21 2.072-.342.321-.301-.36-1.899-2.279-2.137 1.916-.304.272-.296-.28-2.177-2.061-2.566 2.456-.356.34-.301-.389-1.891-2.443-2.125 2.467-.335.39-.336-.391-2.059-2.396-2.403 2.179-.347.314-.294-.363-1.904-2.349-2.41 2.568-.368.39-.314-.434-1.848-2.55-1.929 2.858-.368.546-.366-.548-2.065-3.085-2.994 2.455-.408.333-.259-.458-1.442-2.556-1.881 2.787-.354.525-.372-.513-1.953-2.696-3.438 2.607-.712.54.002-.894.257-94.236.001-.441z" class="st5"/><path d="M119.099 64.908s3.761 3.269 2.98 7.446l5.189-.351z" class="st6"/><path d="m91.21 149.152 19.676-.017m-38.015-16.667 48.878-.037m-18.222-7.011-30.434.024.002 2.903 30.434-.024zm-11.295-5.691-19.143.015.002 2.902 19.143-.015zm-18.521-12.452 26.887-.02m-26.883 4.07 26.886-.023m-26.785-7.36L85 103.933m26.726-.019 10.054-.007m-10.049 7.976 10.054-.01m-10.053 2.362 10.057-.011m-10.055 2.882 10.055-.006M89.291 91.133l16.563-.013m-23.226 3.354 29.467-.025m-12.532-8.331a7.742 7.742 0 1 0-4.103-14.931 7.742 7.742 0 0 0 4.103 14.931" class="st7"/><path d="M99.199 77.04a.5.5 0 0 0 .158-.007c.354-.07.465-.413.466-.731v-.68c.001-.242-.047-.495-.288-.604a.6.6 0 0 0-.523.046c-.016.01-.186.158-.15.188 0 0-.483-.409-.906-.41l-.001-.652s0-.511-.566-.509c-.567 0-.567.566-.567.566l.002.652s-1.869.229-1.868 2.096c.002 2.492 3.966 1.329 3.97 2.859.002.217-.17.907-1.557.909-1.687.001-.909-1.401-1.971-1.4-.582.001-.721.44-.723.78l.001 1.274s.028.482.567.481.68-.254.68-.254.397.396.908.396l-.001.732c.001.459-.073 1.138.566 1.137.536 0 .594-.448.596-.874.002-.34-.001-.683.001-1.023-.001.031.786-.216.833-.235.554-.257.992-.704 1.176-1.294.21-.67.171-1.505-.349-2.026-.368-.37-.893-.542-1.391-.659-.482-.116-.977-.166-1.451-.309-.297-.087-.663-.24-.664-.601-.002-.765.851-.871 1.374-.871.509.001.875.152 1.125.594.114.204.319.402.557.432zm10.458 61.445q.059.007.12-.005c.271-.053.355-.315.356-.557l-.001-.518c-.002-.183-.036-.376-.222-.459a.46.46 0 0 0-.397.035c-.011.006-.141.122-.114.145 0 0-.367-.313-.692-.312l-.001-.496s0-.389-.432-.39c-.432 0-.433.432-.433.432l.002.495s-1.425.175-1.423 1.598c.001 1.898 3.022 1.013 3.023 2.176 0 .166-.128.691-1.188.691-1.283.001-.691-1.068-1.499-1.067-.445 0-.551.335-.55.595v.971s.021.368.431.365c.41-.002.519-.194.519-.194s.304.302.692.299v.558c.001.349-.056.866.43.864.411.001.452-.341.454-.666v-.781c.001.024.598-.164.633-.18.424-.196.756-.539.897-.985.16-.509.128-1.146-.265-1.543-.283-.281-.681-.414-1.06-.502-.367-.087-.745-.126-1.106-.236-.223-.067-.506-.182-.505-.458-.001-.581.647-.664 1.045-.664.398.001.666.117.859.453.089.156.244.307.424.328zm11.085-.008q.058.007.12-.006c.271-.053.355-.314.356-.557l-.002-.517c-.001-.183-.035-.376-.221-.46a.45.45 0 0 0-.397.036c-.011.006-.141.122-.114.145 0 0-.367-.313-.692-.312l-.001-.496s0-.389-.432-.39-.433.431-.433.431l.002.496s-1.425.174-1.423 1.598c.001 1.898 3.022 1.013 3.023 2.176 0 .165-.128.691-1.188.691-1.283 0-.692-1.069-1.5-1.067-.444-.001-.55.335-.549.595v.971s.021.367.431.365c.41.001.519-.195.519-.195s.304.303.692.3v.558c.001.348-.056.866.43.864.411.001.452-.341.454-.667v-.78c.001.024.598-.165.633-.18.424-.197.756-.539.897-.985.16-.509.128-1.147-.265-1.544-.283-.281-.681-.413-1.06-.502-.38-.088-.745-.126-1.106-.235-.224-.067-.506-.182-.505-.458-.001-.582.647-.665 1.045-.664s.666.117.859.453c.089.156.244.307.424.327zm-5.542.004a.4.4 0 0 0 .121-.006c.271-.052.355-.314.356-.557l-.002-.517c-.001-.183-.035-.376-.221-.46a.45.45 0 0 0-.397.036c-.011.006-.141.122-.114.145 0 0-.367-.313-.692-.312l-.001-.496s0-.389-.432-.39-.433.431-.433.431l.002.496s-1.425.174-1.423 1.598c.001 1.898 3.022 1.013 3.023 2.176 0 .165-.128.691-1.188.691-1.283 0-.692-1.069-1.5-1.067-.444-.001-.55.335-.549.595v.971s.021.367.431.365c.41.001.519-.195.519-.195s.304.303.692.3v.558c.001.348-.056.866.43.864.411.001.452-.341.454-.667v-.78c.001.024.598-.165.633-.18.424-.197.756-.539.897-.985.16-.509.128-1.147-.265-1.544-.283-.28-.681-.413-1.06-.502-.367-.086-.745-.126-1.106-.235-.224-.067-.506-.182-.506-.458 0-.582.648-.665 1.046-.664.389 0 .666.117.859.453.089.156.244.307.424.327z" class="st8"/></g><g class="st4"><path d="m243.315 64.506 51.784-.04h.165l.125.108 8.169 7.095.153.132v.202l.154 88.035.002 1.068-.757-.754-2.249-2.239-2.605 2.077-.277-.224-2.644-2.149-2.236 2.244-.344.346-.311-.377-1.765-2.138-2.21 2.072-.342.321-.301-.36-1.899-2.279-2.137 1.916-.304.272-.296-.28-2.177-2.061-2.566 2.456-.356.34-.301-.389-1.891-2.443-2.125 2.467-.335.39-.337-.391-2.059-2.396-2.403 2.179-.347.314-.294-.363-1.904-2.349-2.41 2.568-.368.39-.314-.434-1.848-2.55-1.929 2.858-.368.546-.366-.548-2.065-3.085-2.994 2.455-.408.333-.259-.458-1.441-2.556-1.882 2.787-.354.525-.371-.513-1.954-2.696-3.438 2.607-.712.54.002-.894.258-94.236.001-.441z" class="st5"/><path d="M295.099 64.908s3.761 3.269 2.98 7.446l5.189-.351z" class="st6"/><path d="m267.21 149.152 19.676-.017m-38.015-16.667 48.878-.037m-18.222-7.011-30.434.024.002 2.903 30.434-.024zm-11.295-5.691-19.143.015.002 2.902 19.143-.015zm-18.521-12.452 26.887-.02m-26.883 4.07 26.886-.023m-26.785-7.36 11.184-.011m26.726-.019 10.054-.007m-10.049 7.976 10.054-.01m-10.053 2.362 10.057-.011m-10.055 2.882 10.055-.006m-32.498-25.967 16.563-.013m-23.226 3.354 29.467-.025m-12.532-8.331a7.742 7.742 0 1 0-4.103-14.931 7.742 7.742 0 0 0 4.103 14.931" class="st7"/><path d="M275.199 77.04a.4.4 0 0 0 .157-.007c.355-.07.466-.413.467-.731v-.68c.001-.242-.047-.495-.289-.604a.6.6 0 0 0-.523.046c-.015.01-.186.158-.15.188 0 0-.483-.409-.906-.41l-.001-.652s0-.511-.566-.509c-.567 0-.567.566-.567.566l.001.652s-1.869.229-1.867 2.096c.002 2.492 3.966 1.329 3.97 2.859.002.217-.17.907-1.557.909-1.687.001-.908-1.401-1.971-1.4-.581.001-.721.44-.722.78l.001 1.274s.028.482.567.481.68-.254.68-.254.397.396.908.396l-.001.732c.001.459-.073 1.138.567 1.137.536 0 .593-.448.596-.874v-1.023c0 .031.786-.216.833-.235.554-.257.992-.704 1.176-1.294.21-.67.171-1.505-.349-2.026-.368-.37-.893-.542-1.391-.659-.482-.116-.976-.166-1.45-.309-.297-.087-.664-.24-.665-.601-.002-.765.851-.871 1.375-.871.508.001.874.152 1.125.594.114.204.318.402.556.432zm10.458 61.445q.059.007.12-.005c.271-.053.355-.315.356-.557l-.001-.518c-.002-.183-.036-.376-.222-.459a.46.46 0 0 0-.397.035c-.011.006-.141.122-.114.145 0 0-.367-.313-.692-.312l-.001-.496s0-.389-.432-.39c-.432 0-.433.432-.433.432l.002.495s-1.425.175-1.423 1.598c.001 1.898 3.022 1.013 3.023 2.176 0 .166-.128.691-1.188.691-1.283.001-.691-1.068-1.499-1.067-.445 0-.551.335-.55.595v.971s.021.368.431.365c.41-.002.519-.194.519-.194s.304.302.692.299v.558c.001.349-.056.866.43.864.411.001.452-.341.454-.666v-.781c.001.024.598-.164.633-.18.424-.196.756-.539.897-.985.16-.509.128-1.146-.265-1.543-.283-.281-.681-.414-1.06-.502-.367-.087-.745-.126-1.106-.236-.223-.067-.506-.182-.505-.458-.001-.581.647-.664 1.045-.664.398.001.666.117.859.453.089.156.244.307.424.328zm11.085-.008q.059.007.12-.006c.271-.053.355-.314.356-.557l-.002-.517c-.001-.183-.035-.376-.221-.46a.45.45 0 0 0-.397.036c-.011.006-.141.122-.114.145 0 0-.367-.313-.692-.312l-.001-.496s0-.389-.432-.39-.433.431-.433.431l.002.496s-1.425.174-1.423 1.598c.001 1.898 3.022 1.013 3.023 2.176 0 .165-.128.691-1.188.691-1.283 0-.692-1.069-1.5-1.067-.444-.001-.55.335-.549.595v.971s.021.367.431.365c.41.001.519-.195.519-.195s.304.303.692.3v.558c.001.348-.056.866.43.864.411.001.452-.341.454-.667v-.78c.001.024.598-.165.633-.18.424-.197.756-.539.897-.985.16-.509.128-1.147-.265-1.544-.283-.281-.681-.413-1.06-.502-.38-.088-.745-.126-1.106-.235-.224-.067-.506-.182-.505-.458-.001-.582.647-.665 1.045-.664s.666.117.859.453c.089.156.244.307.424.327zm-5.542.004a.4.4 0 0 0 .121-.006c.271-.052.355-.314.356-.557l-.002-.517c-.001-.183-.035-.376-.221-.46a.45.45 0 0 0-.397.036c-.011.006-.141.122-.114.145 0 0-.367-.313-.692-.312l-.001-.496s0-.389-.432-.39-.433.431-.433.431l.002.496s-1.425.174-1.423 1.598c.001 1.898 3.022 1.013 3.023 2.176 0 .165-.128.691-1.188.691-1.283 0-.692-1.069-1.5-1.067-.444-.001-.55.335-.549.595v.971s.021.367.431.365c.41.001.519-.195.519-.195s.304.303.692.3v.558c.001.348-.056.866.43.864.411.001.452-.341.454-.667v-.78c.001.024.598-.165.633-.18.424-.197.756-.539.897-.985.16-.509.128-1.147-.265-1.544-.283-.28-.681-.413-1.06-.502-.367-.086-.745-.126-1.106-.235-.224-.067-.506-.182-.506-.458 0-.582.648-.665 1.046-.664.389 0 .666.117.859.453.089.156.244.307.424.327z" class="st8"/></g><path d="M155.437 29.5h61a7.5 7.5 0 0 1 7.5 7.5v150a7.5 7.5 0 0 1-7.5 7.5h-61a7.5 7.5 0 0 1-7.5-7.5V37a7.5 7.5 0 0 1 7.5-7.5z" class="st9"/><path d="m155 42 4 4m0-4-4 4" class="st10"/><path d="m216.308 40.591-3.526 4.25 3.04.002-.733 2.794 3.526-3.645-3.036.001z" class="st8"/><g class="st11"><path d="m152.758 59.659 56.984-.043h.183l.137.119 8.989 7.808.168.144v.222l.169 96.878.002 1.175-.833-.829-2.475-2.465-2.559 2.041-.307.244-.305-.247-2.91-2.365-2.46 2.47-.379.381-.342-.414-1.942-2.354-2.432 2.281-.377.353-.331-.397-2.089-2.507-2.352 2.108-.334.299-.326-.308-2.396-2.266-2.824 2.701-.391.374-.331-.428-2.081-2.688-2.34 2.715-.369.429-.368-.43-2.267-2.636-2.645 2.397-.381.345-.323-.399-2.097-2.585-2.652 2.826-.404.429-.345-.478-2.034-2.806-2.123 3.144-.405.601-.403-.602-2.273-3.393-3.294 2.699-.449.368-1.87-3.319-2.071 3.069-.39.577-.409-.563-2.15-2.967-3.782 2.868-.784.594.002-.983.283-103.701.001-.486z" class="st12"/><path d="M209.937 60s3.944 3.699 3.085 8.296l5.915-.796z" class="st13"/><path d="m179.052 152.807 21.652-.019m-41.833-18.341 53.787-.041m-20.051-7.714-33.491.026.003 3.194 33.491-.026zm-12.43-6.264-21.066.017.003 3.194 21.065-.017zm-20.381-13.702 29.587-.023m-29.582 4.48 29.586-.026m-29.475-8.099 12.307-.012m29.41-.021 11.064-.007m-11.057 8.776 11.063-.01m-11.062 2.599 11.066-.012m-11.064 3.172 11.064-.008M176.941 88.96l18.227-.014m-25.56 3.691 32.427-.028m-13.79-9.168a8.521 8.521 0 0 0-4.515-16.431 8.52 8.52 0 0 0 4.515 16.431" class="st14"/><path d="M187.844 73.452a.5.5 0 0 0 .173-.007c.39-.077.512-.454.513-.805v-.748c.001-.266-.052-.545-.317-.664a.66.66 0 0 0-.576.05c-.017.012-.205.174-.165.207 0 0-.532-.45-.997-.451l-.002-.717s.001-.563-.622-.56c-.623-.001-.624.623-.624.623l.002.717s-2.057.252-2.055 2.307c.002 2.742 4.364 1.463 4.369 3.146.001.239-.188.998-1.714 1-1.856.001-.999-1.541-2.168-1.54-.641.001-.794.484-.796.859l.001 1.402s.032.531.624.529c.593-.001.749-.28.749-.28s.437.436.999.436l-.001.806c.001.505-.08 1.252.624 1.251.589 0 .653-.493.655-.962l.001-1.126c-.001.034.865-.238.916-.258.61-.282 1.092-.775 1.294-1.424.232-.738.189-1.656-.384-2.23-.405-.408-.982-.596-1.53-.725-.53-.127-1.075-.183-1.596-.34-.326-.096-.73-.265-.731-.662-.002-.842.936-.958 1.512-.958.56.001.963.167 1.238.654.126.225.351.443.613.475zm11.508 67.617a.4.4 0 0 0 .133-.007c.297-.058.39-.346.391-.613l-.002-.569c-.001-.201-.039-.413-.243-.506a.5.5 0 0 0-.437.04c-.012.006-.156.133-.125.159 0 0-.405-.344-.762-.344l-.001-.545s0-.428-.476-.429c-.475-.001-.476.475-.476.475l.002.545s-1.568.192-1.566 1.758c.001 2.089 3.326 1.115 3.327 2.395 0 .182-.141.76-1.307.76-1.412.001-.762-1.176-1.651-1.174-.488 0-.606.369-.605.655l.001 1.068s.023.405.474.402c.451-.002.571-.214.571-.214s.334.333.761.33v.613c.001.384-.061.954.474.952.452 0 .497-.376.5-.734l-.001-.859c.001.027.658-.181.697-.199.467-.215.832-.592.987-1.083.176-.56.141-1.262-.292-1.699-.311-.309-.748-.455-1.166-.552-.404-.095-.82-.139-1.217-.259-.246-.074-.557-.201-.556-.504-.001-.64.712-.732 1.15-.731s.733.129.946.499c.098.172.268.337.466.36zm12.198-.01a.4.4 0 0 0 .133-.006c.297-.058.39-.346.391-.613l-.001-.569c-.002-.202-.04-.414-.244-.506a.5.5 0 0 0-.437.04c-.012.006-.156.133-.125.159 0 0-.405-.344-.762-.344l-.001-.545s0-.428-.475-.429c-.476-.001-.476.474-.476.474l.001.546s-1.568.192-1.566 1.758c.002 2.089 3.326 1.115 3.327 2.395 0 .182-.141.76-1.307.76-1.412 0-.761-1.176-1.65-1.174-.489-.001-.607.369-.606.655l.001 1.068s.023.405.474.402c.452.001.571-.214.571-.214s.335.332.762.33v.613c.001.384-.062.954.474.951.451.001.496-.375.499-.733v-.859c0 .026.658-.181.697-.199.466-.215.831-.592.986-1.083.176-.56.142-1.262-.292-1.699-.311-.309-.748-.455-1.166-.552s-.82-.139-1.217-.259c-.246-.074-.557-.201-.556-.504-.001-.64.712-.732 1.15-.731.439.001.733.129.946.499.098.171.268.337.466.36zm-6.098.005a.4.4 0 0 0 .133-.006c.298-.058.39-.347.391-.613l-.001-.569c-.002-.202-.04-.414-.244-.506a.5.5 0 0 0-.437.039c-.012.007-.155.134-.125.159 0 0-.404-.344-.761-.343l-.002-.546s0-.428-.475-.429c-.475 0-.476.475-.476.475l.002.545s-1.569.192-1.566 1.758c.001 2.089 3.325 1.115 3.327 2.395-.001.182-.142.76-1.308.76-1.412.001-.761-1.175-1.65-1.174-.489 0-.606.369-.605.655v1.068s.024.405.475.402c.451.001.571-.214.571-.214s.334.333.761.33v.613c.001.384-.061.954.474.952.452.001.496-.376.499-.734v-.859c.001.027.658-.181.697-.198.466-.216.831-.593.986-1.083.176-.561.142-1.262-.291-1.699-.311-.309-.749-.455-1.167-.553-.403-.094-.819-.138-1.216-.258-.246-.074-.558-.201-.557-.505 0-.64.712-.731 1.151-.73.428 0 .733.129.945.498.098.172.268.338.467.361z" class="st8"/></g><path d="M183.699 186.381a8.566 8.566 0 1 1 10.523-6.002 8.566 8.566 0 0 1-10.523 6.002" class="st10"/></g></svg>