<svg xmlns="http://www.w3.org/2000/svg" xml:space="preserve" id="Layer_1" x="0" y="0" viewBox="0 0 129 153"><style>.st0{fill:#fffaf0}.st1{fill:#28736d}.st2{fill:#ff7101}.st3{fill:#50eef6}.st4{fill:#0185ff}.st5{fill:#003c73}.st6{fill:#fed607}.st7{fill:#bf3013}.st8{fill:#002140}.st9{fill:none;stroke:#002140;stroke-width:1;stroke-linecap:round;stroke-linejoin:round}.st10{fill:#780505}</style><path d="M4.217 102.172s-2.213.356-1.473 1.77c.737 1.413 1.623 2.063 1.623 2.063l9.437 5.16 40.256-2.507s20.94 3.687 35.686 3.097 34.213-5.603 36.569-21.823c2.36-16.22-1.77-23.3-11.65-30.82V18.856s-2.653-12.83-11.503-14.747c-7.52-2.507-13.566-.293-16.516 1.18 0 0-6.34 22.71-6.047 30.82s.443 18.58 0 20.94c0 0-48.663-7.227-75.503 29.05 0 0 10.027 11.353 19.023 13.863l-3.98.883-15.927 1.327z" class="st0"/><path d="M84.88 78.282s8.847-15.63 20.496-15.19c11.65.443 21.233 15.78 21.53 20.496 0 0 2.506-15.337-12.24-24.48v-11.06s-19.907 2.653-33.623-1.18L80.6 57.046s4.57 11.503 4.277 21.233zm-51.316 31.41s-17.4-1.917-20.203-4.72l9.437-4.57-18.58 1.77s-2.213 1.18-1.033 2.506c1.18 1.327 10.617 6.49 10.617 6.49l19.76-1.473zm33.03 1.18 5.457 6.49 9.29.293 1.327-1.623 2.213 1.77h8.997l2.803-6.49s-17.697.736-30.083-.444z" class="st1"/><path d="M72.937 117.802v21.233s-5.16-.294-5.31 1.623c-.147 1.917 4.13 1.917 4.13 1.917l12.83 7.076s2.36-.736 2.653-2.063l2.653-1.917 6.49 3.687s2.507.147 3.097-1.917c0 0 3.013-1.173 2.506-2.653-.503-1.48-1.18-2.36-2.653-2.803s-6.34-2.654-6.34-2.654l-.443-21.529h-7.667l.443 21.233-5.31-.147v-20.94l-7.077-.146z" class="st2"/><path d="m80.86 53.619.183-6.747-8.147-4.313-.11-7.853 1.99-1.99s3.023 2.913 5.823 3.393l.147 3.023 14.267.663 9.51-12.057-.883-23.555S96.45.866 87.823 5.18c0 0-8.736.553-10.84 3.43l-4.647-.22-4.867 4.647-.22 31.853 13.603 8.736z" class="st3"/><path d="M86.06 37.289c8.715 0 15.78-7.065 15.78-15.78s-7.065-15.78-15.78-15.78-15.78 7.065-15.78 15.78 7.065 15.78 15.78 15.78" class="st4"/><path d="M75.993 33.932s4.093-1.107 4.867-2.877c0 0-8.183-6.303-3.43-15.483l-.11-.997s-2.433-2.653-2.763-4.093c0 0-4.793 4.35-4.277 11.023.517 6.673 4.387 10.986 5.713 12.423zm14.823-22.449s5.42 2.543 6.303 7.963-2.653 9.29-2.653 9.29 2.987 2.433 3.43 3.54c0 0 5.31-5.53 4.314-12.83-.997-7.3-6.084-10.507-6.084-10.507s-4.646-1.326-5.31 2.544" class="st5"/><path d="M109.38 24.086a3.153 3.153 0 1 0 0-6.307 3.153 3.153 0 0 0 0 6.307" class="st6"/><path d="M107.956 41.566s2.764-7.41 7.077-7.963c0 0-1.107-4.533-3.87-4.647 0 0-7.3 4.647-3.207 12.607zm-21.452-9.294c5.944 0 10.763-4.819 10.763-10.763s-4.819-10.763-10.763-10.763-10.763 4.819-10.763 10.763c-.001 5.945 4.818 10.763 10.763 10.763" class="st2"/><path d="m80.307 6.283 6.857-.663s-1.217-3.43-3.98-3.097-2.877 3.76-2.877 3.76" class="st7"/><path d="M37.286 103.942c-6.967-3.317-13.713-9.953-12.176-35.936-1.66 1.193-14.477 10.093-20.006 18.093 0 0 13.729 16.223 32.182 17.843m1.568-42.29c.78 12.303-.57 38.973 16.093 42.436 0 0 12.83-2.803 15.483-5.013 0 0-15.78.883-17.107-41.29 0 .001-12.969 3.357-14.469 3.867" class="st1"/><path d="M114.982 33.319s-5.523 1.84-6.676 8.633c0 0 10.243 3.453 12.316.46z" class="st8"/><path d="m54.46 108.805-39.876 2.167a2.8 2.8 0 0 1-1.49-.324l-9.613-5.293c-1.653-.91-1.117-2.923.867-3.24l19.657-1.79m41.974 10.314 5.11 6.153c.38.58 1.027.927 1.72.927h7.51c.82 0 1.56-.487 1.887-1.237l1.837-4.22m-1.184 3.477.693 1.053c.38.58 1.027.926 1.72.926h7.51c.82 0 1.56-.486 1.887-1.236l1.993-5.023" class="st9"/><path d="M92.627 117.715v21.516s-2.77 2.19-7.24 0v-21.516" class="st9"/><path d="M92.546 135.448s-3.443 1.097-7.12 0m7.12-5.776s-3.443 1.096-7.12 0m7.2 9.853 7.447 2.646a2.742 2.742 0 0 1 .236 5.067l-.52.24m-19.046-8.193c.21-.104.443-.16.69-.167l3.953-.067" class="st9"/><path d="m94.739 143.055 3.197 1.137c.587.206 1.083.61 1.41 1.136.867 1.397.177 3.094-1.173 3.93-1.35.834-4.02-1.033-4.02-1.033s-2.143-1.293-4.447-2.657m-9.413-27.749v21.516s-2.77 2.19-7.24 0v-21.516" class="st9"/><path d="M80.217 135.551s-3.443 1.097-7.12 0m7.12-5.776s-3.443 1.096-7.12 0m7.196 9.853 7.447 2.647a2.74 2.74 0 0 1 .237 5.066l-.52.24" class="st9"/><path d="m82.407 143.158 3.197 1.137c.587.206 1.083.61 1.41 1.136.867 1.397.177 3.094-1.173 3.93-1.35.834-4.02-1.033-4.02-1.033s-9.597-5.79-10.017-5.796l-2.7-.047a1.63 1.63 0 0 1-.003-3.26l3.953-.067m7.252-81.966S33.94 49.289 4.963 86.172c0 0 21.603 26.87 57.429 16.333C98.22 91.968 80.306 57.196 80.306 57.196m27.707-15.037s1.026-6.923 6.95-8.823c0 0 6.28 7.493 5.293 9.3-.99 1.807-12.24-.477-12.24-.477z" class="st9"/><path d="M114.963 33.336s-.297-4.603-4.067-4.5c0 0-7.237 5.503-2.883 13.323m-21.68-4.8c8.796 0 15.926-7.131 15.926-15.926S95.129 5.506 86.333 5.506s-15.927 7.131-15.927 15.927 7.131 15.926 15.927 15.926m22.953-13.183a3.336 3.336 0 0 0 3.336-3.337 3.336 3.336 0 1 0-6.673 0 3.337 3.337 0 0 0 3.337 3.337" class="st9"/><path d="m103.735 4.74.604 22.103a2.3 2.3 0 0 1-.44 1.413l-7.767 10.6c-.46.63-1.21.98-1.987.93l-12.823-.803m33.23 2.553v17.413s12.647 8.253 12.647 21.426-3.95 31.557-42.86 31.557c-14.043 0-34.59-3.104-44.603-7.32" class="st9"/><path d="M86.866 5.383c2.847-1.727 6.273-2.633 9.95-2.633 9.797 0 17.737 7.943 17.737 17.737v10.79M80.307 57.192a117.3 117.3 0 0 0 .36-20.496m-25.59 67.329s-9.72-1.823-12.013-11.976m-3.694 12.419s-9.72-1.823-12.013-11.976m43.203 6.667s-9.72-1.823-12.013-11.977M86.38 32.166c5.974 0 10.817-4.843 10.817-10.817S92.354 10.533 86.38 10.533 75.564 15.376 75.564 21.35s4.842 10.816 10.816 10.816M74.72 10.533a5.84 5.84 0 0 0 2.477 3.997" class="st9"/><path d="M76.496 33.802c1.833-.133 3.553-1.297 4.363-2.947m16.924 1.527c-.417-1.627-1.7-3.007-3.293-3.54m1.473-20.069c-2.027-.303-4.187.54-5.47 2.14" class="st9"/><path d="m109.78 20.816 1.143-.543c-.2-.64-.79-1.103-1.493-1.103a1.572 1.572 0 1 0 0 3.146c.613 0 1.14-.357 1.4-.87l-1.047-.63z" class="st8"/><path d="m71.363 27.589-3.483 3.357a1.63 1.63 0 0 0-.497 1.17v11.903c0 .56.287 1.08.763 1.377l12.213 7.633" class="st9"/><path d="M74.463 32.603 73.17 33.74c-.35.307-.55.753-.55 1.22v6.7c0 .597.33 1.147.857 1.43l7.45 4.407m-.33-41.018a3.209 3.209 0 1 1 6.26-1.4M76.893 8.42h-4.5c-.47 0-.92.187-1.253.52l-3.22 3.22c-.333.333-.52.783-.52 1.253l-.02 18.38m-43.377 68.532s-7.13 2.204-10.85 4.82c0 0 6.273 4.33 30.566 4.293m67.134-28.223a8.5 8.5 0 0 1-.283 3.27c-.33 1.143-.894 2.403-.33 3.45.316.59.933.957 1.546 1.223.827.36 1.797.587 2.61.203.907-.43 1.327-1.463 1.667-2.407" class="st9"/><path d="M111.83 89.175c.086.98-.517 1.87-1.01 2.72-.494.853-.897 1.923-.424 2.79.26.477.74.79 1.21 1.063.717.42 1.514.813 2.34.73 1.347-.133 2.234-1.43 2.924-2.593m-49.893-20.95c-.903-.393-1.937-.103-2.9.093-.963.197-2.11.237-2.78-.487-.37-.4-.513-.953-.623-1.483-.17-.813-.29-1.693.053-2.45.557-1.237 2.063-1.66 3.39-1.947" class="st9"/><path d="M70.42 68.539c-.903-.393-1.937-.103-2.9.093-.963.197-2.11.237-2.78-.487-.37-.4-.513-.953-.623-1.483-.17-.813-.29-1.693.053-2.45.557-1.237 2.063-1.66 3.39-1.947" class="st9"/><path d="m88.196 21.546 4.833-2.3c-.847-2.7-3.34-4.673-6.323-4.673-3.677 0-6.653 2.98-6.653 6.657s2.98 6.653 6.653 6.653c2.6 0 4.827-1.503 5.92-3.677z" class="st10"/><path d="M83.243 19.326a2.807 2.807 0 1 0 0-5.615 2.807 2.807 0 0 0 0 5.615" class="st0"/></svg>