<?xml version="1.0" encoding="utf-8"?>
<!-- Generator: Adobe Illustrator 27.3.1, SVG Export Plug-In . SVG Version: 6.00 Build 0)  -->
<svg version="1.1" id="Layer_1" xmlns="http://www.w3.org/2000/svg" xmlns:xlink="http://www.w3.org/1999/xlink" x="0px" y="0px"
	 viewBox="0 0 101 101" style="enable-background:new 0 0 101 101;" xml:space="preserve">
<style type="text/css">
	.st0{fill:#FFC68C;}
	.st1{fill:#FFF2B2;}
	.st2{fill:none;stroke:#780505;stroke-width:1.5;stroke-linecap:round;stroke-linejoin:round;}
	.st3{fill:none;stroke:#0C1B33;stroke-linecap:round;stroke-linejoin:round;}
	.st4{fill:#780505;}
</style>
<path class="st0" d="M24.8,8.9c17.9-2.2,21.6,8.6,33.1,10.5c15.8,2.6,20.1-2,20.1-2.2c7.8,4.2,5.7,13.2,5.7,13.2s-3.3,1.7-10.1,2.5
	c-2.4,0.3-5.2,0.4-8.4,0.4c-11.4-0.2-19.8-6.1-19.8-6.1s-0.1-8.7-4.9-11.7c0.7,5.2-0.4,8.8-0.5,8.7c-2.9-0.1-4.7-1.8-4.7-1.8
	s0.8-13.5-9.3-13.5C25.7,8.9,25.2,8.9,24.8,8.9L24.8,8.9L24.8,8.9z"/>
<path class="st1" d="M73.7,33.1c0,0-0.3,2,2.1,7.2c2.4,5.2,6,8.8,6.4,16.8c0.3,7.9-6.4,13.4-5.7,21.6c0.7,8.3,8.8,10.6,9,10.6
	c-2.6,3.8-11.2,2.4-11.2,2.4s-4.2-2.1-6.8-9c-1.4,3.2-1.2,7.8-1.2,7.8S62,86,60.9,77c-2.1,7-0.3,12-0.2,13.4
	c-8.7-0.7-17.8-8.1-26-8.8C26.5,80.9,20,83.4,20,83.4s-4.4-3.9-3-14c0.9-6.5,6-10.4,6.9-21c0.5-5.6-2.7-11.4-5.6-16
	s-2.8-12.2-2.8-12.2S15.9,9.9,24.8,9c0.4,0,0.9-0.1,1.3-0.1c10.1,0,9.3,13.5,9.3,13.5s1.8,1.7,4.7,1.8c0.1,0.1,1.2-3.5,0.5-8.7
	c4.8,3,4.9,11.7,4.9,11.7s8.3,5.9,19.8,6.1c3.2,0.1,6-0.1,8.4-0.4L73.7,33.1L73.7,33.1z"/>
<path class="st2" d="M45.9,64.8c1.1,0.5,2.3,1,3.5,1.3"/>
<path class="st2" d="M54,66.9c1.4,0.3,2.9,0.4,4.4,0.2"/>
<path class="st2" d="M62.5,66.7c1.4-0.1,2.8-0.5,4.1-1.1"/>
<path class="st2" d="M69.8,63.6c1-0.8,1.8-1.8,2.4-2.9"/>
<path class="st2" d="M72.9,53c0.3,1.3,0.2,2.6,0,3.9"/>
<path class="st2" d="M68.5,46.4c1.1,0.9,2,2,2.7,3.3"/>
<path class="st2" d="M65,44.9c-1.4-0.4-2.8-0.6-4.2-0.6"/>
<path class="st2" d="M57.1,44.2c-1.4,0.2-2.8,0.6-4.1,1.1"/>
<path class="st2" d="M49.2,45.9c-1.4,0.3-2.9,0.3-4.2-0.1"/>
<path class="st2" d="M41.8,44.5c-0.9-0.5-1.7-1.3-2-2.3"/>
<path class="st2" d="M38.5,38.1c-0.2-1.2,0-2.6,0.6-3.7"/>
<path class="st2" d="M41.5,31.7c0.8-0.5,1.8-0.9,2.8-1.1"/>
<path class="st2" d="M48.5,30.4c1,0,2.1,0.2,3.1,0.5"/>
<path class="st3" d="M24.8,8.9c17.9-2.2,21.6,8.6,33.1,10.5c15.8,2.6,20.1-2,20.1-2.2c7.8,4.2,5.7,13.2,5.7,13.2s-3.3,1.7-10.1,2.5
	c-2.4,0.3-5.2,0.4-8.4,0.4c-11.4-0.2-19.8-6.1-19.8-6.1s-0.1-8.7-4.9-11.7c0.7,5.2-0.4,8.8-0.5,8.7c-2.9-0.1-4.7-1.8-4.7-1.8
	s0.8-13.5-9.3-13.5C25.7,8.9,25.2,8.9,24.8,8.9c-8.8,1-9.1,8.4-9.3,11.4c0,12.1,8.5,18.5,8.5,28.2c-0.9,10.6-6,14.4-6.9,21
	c-1.4,10.1,3,14,3,14s6.5-2.5,14.7-1.9c8.2,0.7,17.4,8.1,26,8.8C60.7,89,58.9,84.1,61,77c1.1,9,5.4,13.5,5.4,13.5s-0.2-4.6,1.2-7.8
	c2.6,6.8,6.8,9,6.8,9s8.6,1.5,11.2-2.4c-0.2,0-8.3-2.3-9-10.6c-0.7-8.3,6.1-13.7,5.7-21.6c-0.3-7.9-4-11.6-6.4-16.8
	c-2.4-5.2-2.1-7.2-2.1-7.2"/>
<path class="st4" d="M35.8,66.3c0.5,0,0.8-0.5,1-1.8c0.3-1.2,0.7-1.9,2.3-3.4c1.3-1.1,2.8-2.6,2.8-5.1c0-3-2.3-4.9-5.5-4.9
	c-3.6,0-6,2.6-6,4.4c0,1,0.5,1.6,1.3,1.6c1.1,0,1.4-1,2-2.1c0.6-1.2,1.6-2.2,3-2.2c1.4,0,2.4,1,2.4,2.4c0,1.4-0.8,2.2-2.2,3.6
	c-1.6,1.5-2.3,2.8-2.3,5C34.7,65.5,35.1,66.3,35.8,66.3z M33.8,70.6c0,1.3,0.9,2.3,2.2,2.3c1.3,0,2.2-1.1,2.2-2.3
	c0-1.3-0.9-2.4-2.2-2.4C34.8,68.3,33.8,69.3,33.8,70.6z"/>
</svg>
