<svg xmlns="http://www.w3.org/2000/svg" xmlns:xlink="http://www.w3.org/1999/xlink" id="Layer_1" x="0" y="0" version="1.1" viewBox="0 0 20 20" style="enable-background:new 0 0 20 20" xml:space="preserve"><style type="text/css">.st0{fill-rule:evenodd;clip-rule:evenodd}</style><path d="M14,6c0,3-4,6-4,6S6,9,6,6c0-2.209,1.791-4,4-4C12.209,2,14,3.791,14,6z M11.5,5.5C11.5,6.328,10.828,7,10,7	C9.172,7,8.5,6.328,8.5,5.5S9.172,4,10,4C10.828,4,11.5,4.672,11.5,5.5z" class="st0"/><path d="M10.602,12.798l0.004-0.003l0.012-0.009l0.04-0.031c0.034-0.026,0.081-0.063,0.141-0.111	c0.119-0.095,0.286-0.233,0.485-0.408c0.397-0.347,0.929-0.846,1.464-1.448c0.083-0.094,0.168-0.191,0.253-0.292V18l-6-2v-5.503	c0.085,0.101,0.169,0.198,0.253,0.292c0.535,0.602,1.067,1.1,1.464,1.448c0.199,0.174,0.366,0.312,0.485,0.408	c0.06,0.048,0.107,0.085,0.141,0.111l0.04,0.031l0.012,0.009l0.004,0.003L10,13.25L10.602,12.798z"/><path d="M14,18V9.123c0.45-0.736,0.817-1.565,0.948-2.439l3.736-1.245C19.331,5.223,20,5.705,20,6.387v8.892	c0,0.43-0.275,0.813-0.684,0.949L14,18z"/><path d="M5,6c0-0.231,0.016-0.459,0.046-0.682L0.684,6.772C0.275,6.908,0,7.29,0,7.721v8.892c0,0.683,0.669,1.165,1.316,0.949L6,16	V9.123C5.434,8.197,5,7.125,5,6z"/></svg>