<svg xmlns="http://www.w3.org/2000/svg" xmlns:xlink="http://www.w3.org/1999/xlink" xml:space="preserve" id="Layer_1" x="0" y="0" viewBox="0 0 400 328"><style>.st0{fill:none}.st1{fill:#085239}.st2{fill:#03d47c}.st3{fill:#fffaf0}.st4{fill:#061b09}.st5{fill-rule:evenodd;clip-rule:evenodd;fill:#8b9c8f}.st6{fill:#e7ece9}.st7{fill:#1a3d32}.st9{fill:#afbbb0}.st10{fill-rule:evenodd;clip-rule:evenodd;fill:#e7ece9}.st11{fill:#072419}.st12{fill:#008c59}.st13{fill:#e3a171}.st14{fill:#002140}.st15{fill:#cf4cd9}.st16{fill:#49225b}.st17{fill:#fed607}.st18{fill:#fff2b2}.st19{fill-rule:evenodd;clip-rule:evenodd;fill:#fed607}</style><path d="M0 0h400v328H0z" class="st0"/><path d="M0 0h400v328H0z" class="st1"/><path d="M82.264 50.063c-1.87 0-2.992-.22-2.992-.814 0-.44.528-.638 1.518-.704.352-.11.506-1.144.66-2.31l.99-8.184c.154-1.232.242-2.2-.022-2.31-.99-.066-1.408-.242-1.408-.616 0-.682 1.166-.924 3.234-.924 1.892 0 2.97.198 2.97.792 0 .462-.506.66-1.584.726-.286.11-.462 1.034-.638 2.332l-.99 8.184c-.154 1.276-.198 2.178.066 2.288.968.066 1.408.242 1.408.616 0 .682-1.144.924-3.212.924m8.669.22c-2.596 0-4.444-1.254-4.444-2.552 0-.638.396-1.056.946-1.056.66 0 .946.616 1.188.99.682 1.034 1.474 1.386 2.42 1.386 1.188 0 2.046-.66 2.046-1.65 0-1.21-1.056-1.452-2.75-2.244-1.606-.748-2.772-1.628-2.772-3.234 0-1.848 1.672-3.212 4.224-3.212 2.222 0 4.07 1.1 4.07 2.354 0 .572-.33.99-.902.99-.682 0-.836-.594-1.364-1.21-.506-.616-1.122-.902-1.87-.902-1.034 0-1.848.616-1.848 1.518 0 .858.528 1.232 2.42 2.09 1.562.726 3.168 1.474 3.168 3.432 0 2.024-1.848 3.3-4.532 3.3m9.991 0c-2.596 0-4.444-1.254-4.444-2.552 0-.638.396-1.056.946-1.056.66 0 .946.616 1.188.99.682 1.034 1.474 1.386 2.42 1.386 1.188 0 2.046-.66 2.046-1.65 0-1.21-1.056-1.452-2.75-2.244-1.606-.748-2.772-1.628-2.772-3.234 0-1.848 1.672-3.212 4.224-3.212 2.222 0 4.07 1.1 4.07 2.354 0 .572-.33.99-.902.99-.682 0-.836-.594-1.364-1.21-.506-.616-1.122-.902-1.87-.902-1.034 0-1.848.616-1.848 1.518 0 .858.528 1.232 2.42 2.09 1.562.726 3.168 1.474 3.168 3.432 0 2.024-1.848 3.3-4.532 3.3m9.99 0c-1.826 0-2.926-1.122-2.926-3.234 0-.396.022-.77.066-1.012l.33-2.75c.132-.99.264-2.288-.022-2.486-.902-.066-1.298-.242-1.298-.594 0-.264.22-.44.506-.594.726-.396 2.31-.704 2.838-.704.484 0 .792.286.792.792 0 .286-.11.99-.374 3.102l-.308 2.42c-.044.396-.088.88-.088 1.232 0 1.21.396 2.09 1.628 2.09 1.298 0 2.904-1.232 3.256-4.07l.154-1.188c.11-.968.264-2.288-.022-2.486-.88-.066-1.276-.242-1.276-.594 0-.264.22-.44.506-.594.66-.352 2.222-.704 2.794-.704.484 0 .792.308.792.792 0 .286-.132 1.078-.374 3.124l-.374 3.014c-.132.99-.264 2.244.044 2.442.924.066 1.276.22 1.276.55 0 .286-.242.484-.506.594-.66.374-2.222.704-2.772.704-.506 0-.792-.374-.792-.792 0-.198.066-.572.198-1.606-.902 1.628-2.442 2.552-4.048 2.552m13.739 0c-2.75 0-4.488-1.914-4.488-4.752 0-3.542 2.706-6.798 6.182-6.798 2.112 0 3.322 1.166 3.322 2.552 0 1.826-2.002 3.366-6.182 3.894l-1.034.154c.242 1.782 1.386 2.882 3.146 2.882 1.496 0 2.464-.88 3.102-1.452.264-.242.44-.374.66-.374s.374.176.374.462c0 .396-.33.99-.88 1.562-.814.902-2.288 1.87-4.202 1.87m-2.244-5.962.638-.11c3.146-.484 4.576-1.65 4.576-2.926 0-.77-.616-1.32-1.606-1.32-1.804 0-3.476 1.936-3.608 4.356m17.573 5.962c-1.826 0-2.926-1.122-2.926-3.234 0-.396.022-.77.066-1.012l.33-2.75c.132-.99.264-2.288-.022-2.486-.902-.066-1.298-.242-1.298-.594 0-.264.22-.44.506-.594.726-.396 2.31-.704 2.838-.704.484 0 .792.286.792.792 0 .286-.11.99-.374 3.102l-.308 2.42c-.044.396-.088.88-.088 1.232 0 1.21.396 2.09 1.628 2.09 1.298 0 2.904-1.232 3.256-4.07l.154-1.188c.11-.968.264-2.288-.022-2.486-.88-.066-1.276-.242-1.276-.594 0-.264.22-.44.506-.594.66-.352 2.222-.704 2.794-.704.484 0 .792.308.792.792 0 .286-.132 1.078-.374 3.124l-.374 3.014c-.132.99-.264 2.244.044 2.442.924.066 1.276.22 1.276.55 0 .286-.242.484-.506.594-.66.374-2.222.704-2.772.704-.506 0-.792-.374-.792-.792 0-.198.066-.572.198-1.606-.902 1.628-2.442 2.552-4.048 2.552m17.986-.154c-.484 0-.792-.308-.792-.792 0-.264.132-1.034.374-3.08l.308-2.42c.044-.418.088-.902.088-1.276 0-1.166-.418-2.068-1.606-2.068-1.32 0-2.97 1.254-3.3 4.07l-.55 4.598c-.088.638-.55.902-1.408.902-.682 0-.99-.264-.99-.814 0-.198.088-.66.176-1.452l.572-4.554c.11-.968.198-2.398-.088-2.508-.858-.022-1.276-.176-1.276-.528 0-.264.242-.44.528-.594.77-.418 2.288-.704 2.816-.704.462 0 .748.352.748.77 0 .176-.044.55-.198 1.76.902-1.694 2.464-2.662 4.158-2.662 1.782 0 2.882 1.1 2.882 3.19 0 .418-.044.792-.066 1.034l-.352 2.75c-.11 1.034-.242 2.354.066 2.53.88.044 1.254.176 1.254.528 0 .308-.264.484-.528.616-.726.374-2.2.704-2.816.704m5.839 0c-.484 0-.748-.308-.748-.792 0-.242.066-.704.396-3.454l.968-7.744c.11-.968.176-2.354-.066-2.442-.924-.044-1.386-.264-1.386-.616 0-.286.264-.44.528-.572.814-.396 2.354-.726 2.882-.726s.836.308.836.814c0 .242-.066.66-.396 3.388l-.968 7.788c-.11.946-.242 2.31.022 2.486.902.044 1.276.198 1.276.55 0 .308-.242.484-.506.616-.726.396-2.244.704-2.838.704m6.435 0c-.484 0-.748-.308-.748-.792 0-.242.044-.704.396-3.454l.33-2.64c.176-1.386.198-2.31-.022-2.464-.858-.044-1.276-.22-1.276-.572 0-.264.242-.462.506-.594.77-.418 2.332-.704 2.816-.704s.792.308.792.814c0 .242-.066.66-.418 3.454l-.352 2.596c-.154 1.232-.242 2.266.044 2.464.858.066 1.254.22 1.254.572 0 .308-.242.484-.528.616-.748.418-2.244.704-2.794.704m.264-14.256c0-.924.858-1.606 1.958-1.606.88 0 1.298.418 1.298 1.1 0 1.078-1.056 1.65-1.936 1.65-.792 0-1.32-.418-1.32-1.144m19.865 14.256c-.484 0-.792-.308-.792-.792 0-.264.132-1.034.374-3.08l.308-2.42c.044-.418.088-.946.088-1.276 0-1.166-.418-2.068-1.54-2.068-1.254 0-2.816 1.21-3.124 4.048v-.022l-.572 4.642c-.088.638-.506.902-1.386.902-.704 0-.99-.264-.99-.814 0-.198.066-.66.154-1.452l.506-3.96c.066-.418.088-.946.088-1.276 0-1.166-.418-2.068-1.518-2.068-1.254 0-2.838 1.254-3.146 4.07l-.55 4.598c-.088.638-.55.902-1.408.902-.682 0-.99-.264-.99-.814 0-.198.088-.66.176-1.452l.572-4.554c.11-.946.198-2.376-.088-2.508-.858-.022-1.276-.176-1.276-.528 0-.264.242-.44.528-.594.77-.418 2.288-.704 2.816-.704.462 0 .748.352.748.77 0 .176-.044.528-.176 1.694.858-1.672 2.376-2.596 3.982-2.596 1.562 0 2.574.924 2.75 2.662.88-1.716 2.442-2.662 4.114-2.662 1.716 0 2.772 1.1 2.772 3.19 0 .418-.022.792-.044 1.034l-.352 2.75c-.11 1.012-.242 2.354.066 2.53.88.044 1.254.176 1.254.528 0 .308-.264.484-.528.616-.726.374-2.2.704-2.816.704m6.275 0c-.484 0-.748-.308-.748-.792 0-.242.044-.704.396-3.454l.33-2.64c.176-1.386.198-2.31-.022-2.464-.858-.044-1.276-.22-1.276-.572 0-.264.242-.462.506-.594.77-.418 2.332-.704 2.816-.704s.792.308.792.814c0 .242-.066.66-.418 3.454l-.352 2.596c-.154 1.232-.242 2.266.044 2.464.858.066 1.254.22 1.254.572 0 .308-.242.484-.528.616-.748.418-2.244.704-2.794.704m.264-14.256c0-.924.858-1.606 1.958-1.606.88 0 1.298.418 1.298 1.1 0 1.078-1.056 1.65-1.936 1.65-.792 0-1.32-.418-1.32-1.144m8.205 14.256c-1.562 0-2.574-.814-2.574-2.266 0-.264.044-.66.088-1.012l.748-6.292h-.682c-.55 0-1.012-.066-1.012-.506 0-.748.594-.836 1.166-.836h.704l.132-1.144c.088-.616.528-.88 1.408-.88.682 0 .99.242.99.792 0 .176-.066.704-.132 1.078l-.022.154h2.86c.528 0 1.012.022 1.012.506 0 .726-.594.836-1.188.836h-2.838l-.682 5.412c-.044.352-.088.792-.088 1.056 0 .792.286 1.298 1.188 1.298 1.188 0 1.98-.946 2.42-.946.286 0 .44.176.44.418 0 .77-1.782 2.332-3.938 2.332m9.193.154c-2.75 0-4.488-1.914-4.488-4.752 0-3.542 2.706-6.798 6.182-6.798 2.112 0 3.322 1.166 3.322 2.552 0 1.826-2.002 3.366-6.182 3.894l-1.034.154c.242 1.782 1.386 2.882 3.146 2.882 1.496 0 2.464-.88 3.102-1.452.264-.242.44-.374.66-.374s.374.176.374.462c0 .396-.33.99-.88 1.562-.814.902-2.288 1.87-4.202 1.87m-2.244-5.962.638-.11c3.146-.484 4.576-1.65 4.576-2.926 0-.77-.616-1.32-1.606-1.32-1.804 0-3.476 1.936-3.608 4.356m12.239 5.94c-2.178 0-3.806-1.826-3.806-4.664 0-3.454 2.354-6.864 5.764-6.864 1.342 0 2.354.594 2.948 1.452l.242-1.914c.088-.88.22-2.354-.088-2.552-1.056-.066-1.518-.242-1.518-.638 0-.242.22-.44.528-.594.77-.374 2.486-.704 3.08-.704.55 0 .792.33.792.77 0 .374-.176 1.496-.484 4.004l-.858 7.084c-.11.968-.22 2.398.088 2.596.924.066 1.32.198 1.32.572 0 .286-.22.462-.528.616-.66.33-2.09.704-2.706.704-.572 0-.836-.33-.836-.814 0-.242.044-.616.154-1.518-.88 1.452-2.42 2.464-4.092 2.464m-1.298-4.686c0 1.914.858 3.102 2.266 3.102 2.134 0 3.564-3.014 3.564-5.742 0-2.222-1.1-2.97-2.178-2.97-2.31 0-3.652 3.124-3.652 5.61m20.135 4.708c-2.64 0-4.466-1.98-4.466-4.928 0-3.608 2.662-6.644 5.918-6.644 2.244 0 3.872 1.452 3.872 3.014 0 .814-.44 1.364-1.122 1.364-.77 0-1.056-.704-1.298-1.584-.33-.968-.924-1.562-1.804-1.562-1.738 0-3.19 1.826-3.19 4.466 0 2.354 1.188 3.784 3.08 3.784 1.386 0 2.288-.88 3.014-1.54.264-.286.44-.462.682-.462s.396.198.396.462c0 .484-.44 1.188-.99 1.782-.814.902-2.266 1.848-4.092 1.848m9.994-.022c-2.156 0-3.762-1.76-3.762-4.532 0-3.63 2.574-6.996 5.962-6.996 1.342 0 2.398.55 3.124 1.364.506-.66 1.034-1.21 1.54-1.21.374 0 .572.242.572.572 0 .396-.264 1.364-.528 3.388l-.374 2.728c-.154 1.122-.22 2.442.088 2.64.88.066 1.298.22 1.298.594 0 .264-.198.462-.528.616-.66.352-2.156.704-2.662.704-.616 0-.88-.44-.88-.902 0-.242.066-.704.198-1.65-.814 1.562-2.244 2.684-4.048 2.684m-1.254-4.62c0 1.892.792 3.058 2.178 3.058 2.09 0 3.586-3.102 3.586-6.204 0-1.518-.748-2.574-2.112-2.574-1.98 0-3.652 2.838-3.652 5.72m12.252 4.422c-.682 0-.99-.264-.99-.814 0-.198.088-.66.176-1.452l.572-4.554c.11-.946.198-2.398-.088-2.508-.858-.022-1.276-.176-1.276-.528 0-.264.242-.44.528-.594.77-.396 2.222-.704 2.75-.704.418 0 .682.352.682.77 0 .176-.022.55-.154 1.782.814-1.76 2.156-2.684 3.212-2.684 1.034 0 1.628.748 1.628 1.606 0 .902-.55 1.452-1.188 1.452-.484 0-.792-.264-1.012-.55-.154-.176-.352-.33-.594-.33-.66 0-2.002 1.232-2.288 3.696v-.022l-.55 4.532c-.088.638-.55.902-1.408.902m10.703.198c-2.178 0-3.806-1.826-3.806-4.664 0-3.454 2.354-6.864 5.764-6.864 1.342 0 2.354.594 2.948 1.452l.242-1.914c.088-.88.22-2.354-.088-2.552-1.056-.066-1.518-.242-1.518-.638 0-.242.22-.44.528-.594.77-.374 2.486-.704 3.08-.704.55 0 .792.33.792.77 0 .374-.176 1.496-.484 4.004l-.858 7.084c-.11.968-.22 2.398.088 2.596.924.066 1.32.198 1.32.572 0 .286-.22.462-.528.616-.66.33-2.09.704-2.706.704-.572 0-.836-.33-.836-.814 0-.242.044-.616.154-1.518-.88 1.452-2.42 2.464-4.092 2.464m-1.298-4.686c0 1.914.858 3.102 2.266 3.102 2.134 0 3.564-3.014 3.564-5.742 0-2.222-1.1-2.97-2.178-2.97-2.31 0-3.652 3.124-3.652 5.61m14.537 4.708c-2.596 0-4.444-1.254-4.444-2.552 0-.638.396-1.056.946-1.056.66 0 .946.616 1.188.99.682 1.034 1.474 1.386 2.42 1.386 1.188 0 2.046-.66 2.046-1.65 0-1.21-1.056-1.452-2.75-2.244-1.606-.748-2.772-1.628-2.772-3.234 0-1.848 1.672-3.212 4.224-3.212 2.222 0 4.07 1.1 4.07 2.354 0 .572-.33.99-.902.99-.682 0-.836-.594-1.364-1.21-.506-.616-1.122-.902-1.87-.902-1.034 0-1.848.616-1.848 1.518 0 .858.528 1.232 2.42 2.09 1.562.726 3.168 1.474 3.168 3.432 0 2.024-1.848 3.3-4.532 3.3" class="st2"/><path d="M303.332 50.129c-1.738 0-2.816-.924-2.816-2.882l-.022-6.71h-.616c-.418 0-.814-.176-.814-.616 0-.572.726-1.21 1.452-1.848.66-.55 1.276-1.034 1.804-1.034.374 0 .594.242.594.726v1.386h3.08c.704 0 1.056.132 1.056.66s-.198.682-1.056.682h-3.08v5.874c0 1.342.352 1.914 1.43 1.914 1.276 0 2.024-.946 2.508-.946.242 0 .418.198.418.506 0 .77-1.694 2.288-3.938 2.288m10.092.154c-3.388 0-5.698-2.398-5.698-5.742 0-3.432 2.552-5.83 6.072-5.83 3.366 0 5.698 2.398 5.698 5.742 0 3.498-2.618 5.83-6.072 5.83m-3.256-6.732c0 2.64 1.584 5.5 3.96 5.5 1.672 0 2.948-1.386 2.948-3.608 0-2.662-1.65-5.5-3.982-5.5-1.65 0-2.926 1.342-2.926 3.608M64.498 72.093c0-2.09 1.892-3.52 4.686-3.52.858 0 1.694.154 2.464.352v-1.254c0-1.012-.044-2.728-1.694-2.728-.858 0-1.562.594-2.288 1.474-.374.462-.77.902-1.452.902-.55 0-.946-.352-.946-.858 0-1.166 2.882-2.728 5.258-2.728 2.244 0 3.542 1.21 3.542 3.454v4.136c0 1.254.066 2.068 1.386 2.354.132.022.176.088.176.22 0 .506-.638 1.188-1.782 1.188-.99 0-1.782-.528-2.134-1.826-.814 1.32-2.134 2.002-3.652 2.002-2.134 0-3.564-1.32-3.564-3.168m2.464-.33c0 1.122.77 1.958 2.024 1.958 1.43 0 2.706-1.21 2.706-2.838v-.66a5.15 5.15 0 0 0-2.09-.462c-1.716 0-2.64.814-2.64 2.002m20.02 3.3c-1.87 0-2.882-.22-2.882-.814 0-.44.44-.572 1.386-.616.264-.11.308-1.122.308-2.31v-2.486c0-2.332-.682-3.344-2.288-3.344-1.43 0-2.97 1.122-2.97 4.026v1.804c0 1.474.022 2.2.264 2.31.99.066 1.408.176 1.408.616 0 .616-1.1.814-2.904.814-1.76 0-2.772-.22-2.772-.814 0-.44.462-.572 1.298-.616.242-.11.286-.77.286-2.31v-3.08c0-.99-.044-2.244-.33-2.398-1.122-.066-1.408-.308-1.408-.616 0-.22.11-.396.44-.572.814-.418 2.376-.748 2.97-.748.638 0 .77.396.77 1.21v1.298c.726-1.694 2.244-2.662 4.048-2.662 1.98 0 3.608 1.166 3.608 4.158v3.41c0 1.672 0 2.2.242 2.31.88.066 1.32.176 1.32.616 0 .616-1.1.814-2.794.814m5.835 4.136c-1.342 0-2.266-.88-2.266-1.892 0-.858.572-1.474 1.342-1.474.748 0 1.166.484 1.232 1.188 0 .198 0 .374.022.528 0 .154.11.286.33.286.594 0 1.012-.616 1.364-1.628.176-.55.044-1.078-.572-2.376a196 196 0 0 1-3.036-7.018c-.396-.99-.55-1.298-.77-1.386-.704-.066-1.122-.264-1.122-.66 0-.572.99-.836 2.904-.836 1.936 0 2.816.286 2.816.836 0 .44-.44.594-1.342.638-.176.198.044 1.144.352 2.068.572 1.628 1.584 3.806 2.288 5.258.704-1.694 1.496-4.092 1.87-5.478.198-.682.418-1.65.198-1.892-.946-.066-1.342-.198-1.342-.616 0-.528 1.012-.814 2.464-.814 1.386 0 2.266.308 2.266.792 0 .44-.418.572-1.144.66-.396.198-.616.682-.968 1.672-1.012 2.816-1.562 4.488-2.508 6.974-1.188 3.19-2.068 5.17-4.378 5.17m14.679-3.916c-3.388 0-5.698-2.398-5.698-5.742 0-3.432 2.552-5.83 6.072-5.83 3.366 0 5.698 2.398 5.698 5.742 0 3.498-2.618 5.83-6.072 5.83m-3.256-6.732c0 2.64 1.584 5.5 3.96 5.5 1.672 0 2.948-1.386 2.948-3.608 0-2.662-1.65-5.5-3.982-5.5-1.65 0-2.926 1.342-2.926 3.608m21.006 6.512c-1.87 0-2.882-.22-2.882-.814 0-.44.44-.572 1.386-.616.264-.11.308-1.122.308-2.31v-2.486c0-2.332-.682-3.344-2.288-3.344-1.43 0-2.97 1.122-2.97 4.026v1.804c0 1.474.022 2.2.264 2.31.99.066 1.408.176 1.408.616 0 .616-1.1.814-2.904.814-1.76 0-2.772-.22-2.772-.814 0-.44.462-.572 1.298-.616.242-.11.286-.77.286-2.31v-3.08c0-.99-.044-2.244-.33-2.398-1.122-.066-1.408-.308-1.408-.616 0-.22.11-.396.44-.572.814-.418 2.376-.748 2.97-.748.638 0 .77.396.77 1.21v1.298c.726-1.694 2.244-2.662 4.048-2.662 1.98 0 3.608 1.166 3.608 4.158v3.41c0 1.672 0 2.2.242 2.31.88.066 1.32.176 1.32.616 0 .616-1.1.814-2.794.814m8.858.22c-3.102 0-5.192-2.266-5.192-5.544 0-3.564 2.508-6.006 5.566-6.006 2.772 0 4.51 1.936 4.51 3.85 0 .968-.484 1.65-1.342 1.65h-6.512c.132 2.354 1.496 3.894 3.696 3.894 1.54 0 2.508-.77 3.146-1.408.22-.198.396-.374.616-.374.286 0 .462.198.462.572 0 .396-.242.968-.726 1.496-.792.946-2.222 1.87-4.224 1.87m-2.904-7.26 4.554-.044c.704 0 1.078-.242 1.078-.858 0-1.166-.946-2.222-2.486-2.222-1.694 0-2.882 1.232-3.146 3.124m17.049 7.04c-1.76 0-2.772-.22-2.772-.814 0-.44.44-.572 1.276-.616.264-.11.286-.836.286-2.31v-3.08c0-1.012-.044-2.266-.308-2.398-1.122-.066-1.408-.308-1.408-.616 0-.242.11-.418.44-.572.77-.418 2.354-.77 2.97-.77.66 0 .77.418.77 1.21 0 .748-.044 1.98-.044 3.564v2.662c0 1.474.022 2.2.264 2.31.858.066 1.298.176 1.298.616 0 .616-1.078.814-2.772.814m-1.76-14.41c0-.968.88-1.386 1.694-1.386.968 0 1.518.528 1.518 1.32 0 .99-.88 1.408-1.716 1.408-.924 0-1.496-.528-1.496-1.342m15.99 14.41c-1.87 0-2.882-.22-2.882-.814 0-.44.44-.572 1.386-.616.264-.11.308-1.122.308-2.31v-2.486c0-2.332-.682-3.344-2.288-3.344-1.43 0-2.97 1.122-2.97 4.026v1.804c0 1.474.022 2.2.264 2.31.99.066 1.408.176 1.408.616 0 .616-1.1.814-2.904.814-1.76 0-2.772-.22-2.772-.814 0-.44.462-.572 1.298-.616.242-.11.286-.77.286-2.31v-3.08c0-.99-.044-2.244-.33-2.398-1.122-.066-1.408-.308-1.408-.616 0-.22.11-.396.44-.572.814-.418 2.376-.748 2.97-.748.638 0 .77.396.77 1.21v1.298c.726-1.694 2.244-2.662 4.048-2.662 1.98 0 3.608 1.166 3.608 4.158v3.41c0 1.672 0 2.2.242 2.31.88.066 1.32.176 1.32.616 0 .616-1.1.814-2.794.814m10.904 4.136c-1.342 0-2.266-.88-2.266-1.892 0-.858.572-1.474 1.342-1.474.748 0 1.166.484 1.232 1.188 0 .198 0 .374.022.528 0 .154.11.286.33.286.594 0 1.012-.616 1.364-1.628.176-.55.044-1.078-.572-2.376a196 196 0 0 1-3.036-7.018c-.396-.99-.55-1.298-.77-1.386-.704-.066-1.122-.264-1.122-.66 0-.572.99-.836 2.904-.836 1.936 0 2.816.286 2.816.836 0 .44-.44.594-1.342.638-.176.198.044 1.144.352 2.068.572 1.628 1.584 3.806 2.288 5.258.704-1.694 1.496-4.092 1.87-5.478.198-.682.418-1.65.198-1.892-.946-.066-1.342-.198-1.342-.616 0-.528 1.012-.814 2.464-.814 1.386 0 2.266.308 2.266.792 0 .44-.418.572-1.144.66-.396.198-.616.682-.968 1.672-1.012 2.816-1.562 4.488-2.508 6.974-1.188 3.19-2.068 5.17-4.378 5.17m14.68-3.916c-3.388 0-5.698-2.398-5.698-5.742 0-3.432 2.552-5.83 6.072-5.83 3.366 0 5.698 2.398 5.698 5.742 0 3.498-2.618 5.83-6.072 5.83m-3.256-6.732c0 2.64 1.584 5.5 3.96 5.5 1.672 0 2.948-1.386 2.948-3.608 0-2.662-1.65-5.5-3.982-5.5-1.65 0-2.926 1.342-2.926 3.608m15.374 6.732c-1.98 0-3.586-1.166-3.586-4.158v-2.97c0-.99-.044-2.332-.33-2.486-1.056-.066-1.364-.352-1.364-.682q0-.33.462-.528c.814-.308 2.2-.55 2.882-.55s.792.374.792 1.21c0 .748-.022 1.936-.022 3.476v1.606c0 2.09.528 3.344 2.2 3.344 1.43 0 2.97-1.078 2.97-4.026v-1.364c0-1.012-.066-2.332-.33-2.486-1.144-.066-1.474-.33-1.474-.682 0-.22.176-.396.506-.528.814-.33 2.244-.55 2.948-.55.66 0 .792.374.792 1.21 0 .748-.022 1.98-.022 3.542v2.112c0 1.1.044 2.288.308 2.42 1.122.066 1.408.308 1.408.616 0 .22-.132.396-.44.572-.814.396-2.376.748-2.97.748-.638 0-.77-.418-.77-1.21 0-.352 0-.77.022-1.276-.726 1.672-2.222 2.64-3.982 2.64m11.855-.22c-1.76 0-2.772-.22-2.772-.814 0-.44.44-.572 1.276-.616.242-.11.286-.77.286-2.31v-3.058c0-.99-.044-2.266-.33-2.42-1.122-.066-1.408-.308-1.408-.616 0-.22.132-.396.44-.572.77-.396 2.376-.748 2.97-.748.638 0 .77.418.77 1.21v1.452c.726-1.826 2.178-2.794 3.344-2.794.858 0 1.672.55 1.672 1.628 0 .99-.55 1.584-1.298 1.584-.506 0-.814-.242-1.078-.528-.198-.198-.374-.462-.748-.462-.726 0-1.914 1.144-1.914 3.168v2.156c0 1.452.066 2.178.308 2.288 1.232.066 1.694.198 1.694.638 0 .616-1.144.814-3.212.814m22.902.11c-.594 0-.99-.396-1.43-1.342-.418-.88-1.056-2.662-1.672-4.312a82 82 0 0 1-1.958 4.246c-.506 1.012-.88 1.408-1.474 1.408s-.946-.418-1.408-1.342c-.726-1.386-2.2-5.236-2.926-6.996-.396-1.012-.506-1.254-.77-1.408-.704-.066-1.122-.264-1.122-.66 0-.572.99-.836 2.904-.836 1.738 0 2.706.286 2.706.836 0 .44-.418.594-1.254.638-.154.22.044 1.1.352 2.046.55 1.672 1.518 3.916 2.2 5.302.792-1.518 1.606-3.366 2.134-4.906-.132-.396-.286-.748-.396-1.056-.396-1.012-.396-1.122-.682-1.386-.66-.044-1.034-.242-1.034-.638 0-.55 1.012-.836 2.772-.836 1.738 0 2.684.286 2.684.836 0 .44-.484.594-1.364.638-.154.264.022 1.1.352 2.046.572 1.76 1.364 3.872 1.98 5.258.77-1.628 1.584-3.784 2.046-5.434.22-.77.396-1.672.198-1.914-.99-.066-1.474-.22-1.474-.616 0-.55 1.034-.814 2.552-.814 1.32 0 2.222.308 2.222.792 0 .44-.352.572-1.034.66-.396.154-.616.726-.99 1.672-1.012 2.772-2.09 5.412-2.706 6.754-.44.968-.792 1.364-1.408 1.364m11.906.11c-3.388 0-5.698-2.398-5.698-5.742 0-3.432 2.552-5.83 6.072-5.83 3.366 0 5.698 2.398 5.698 5.742 0 3.498-2.618 5.83-6.072 5.83m-3.256-6.732c0 2.64 1.584 5.5 3.96 5.5 1.672 0 2.948-1.386 2.948-3.608 0-2.662-1.65-5.5-3.982-5.5-1.65 0-2.926 1.342-2.926 3.608m13.35 6.512c-1.76 0-2.772-.22-2.772-.814 0-.44.44-.572 1.276-.616.242-.11.286-.77.286-2.31v-3.058c0-.99-.044-2.266-.33-2.42-1.122-.066-1.408-.308-1.408-.616 0-.22.132-.396.44-.572.77-.396 2.376-.748 2.97-.748.638 0 .77.418.77 1.21v1.452c.726-1.826 2.178-2.794 3.344-2.794.858 0 1.672.55 1.672 1.628 0 .99-.55 1.584-1.298 1.584-.506 0-.814-.242-1.078-.528-.198-.198-.374-.462-.748-.462-.726 0-1.914 1.144-1.914 3.168v2.156c0 1.452.066 2.178.308 2.288 1.232.066 1.694.198 1.694.638 0 .616-1.144.814-3.212.814m9.339 0c-1.782 0-2.794-.22-2.794-.814 0-.44.44-.572 1.276-.616.264-.11.308-.77.308-2.332v-8.228c0-1.012-.066-2.222-.374-2.354-1.166-.044-1.496-.308-1.496-.616 0-.242.132-.418.44-.572.88-.418 2.486-.77 3.102-.77.638 0 .77.418.77 1.21 0 .77-.022 1.936-.022 3.498v5.61l1.364-1.122c.836-.726 1.54-1.364 1.914-1.804.286-.352.396-.66.242-.77-.682-.044-1.21-.176-1.21-.616 0-.55.924-.836 3.014-.836 2.002 0 3.014.264 3.014.836 0 .418-.55.616-1.562.726-.836.154-1.298.506-3.498 2.354 1.1 1.826 2.2 3.696 3.19 4.972.462.594.682.748.902.814 1.188.044 1.606.176 1.606.572 0 .55-.924.858-2.332.858-.924 0-1.474-.132-1.804-.528-.66-.704-2.024-3.058-3.322-5.236-.572.506-1.078.946-1.518 1.364v.66c0 1.474.022 2.2.264 2.31 1.012.066 1.452.154 1.452.616 0 .616-1.122.814-2.926.814m15.662.198c-.836 0-1.474-.132-2.002-.33-.33-.11-.616-.264-.814-.264-.374 0-.286.396-.792.396-.814 0-1.562-1.826-1.562-3.102 0-.726.198-1.056.55-1.056.418 0 .572.55.902 1.122.66 1.122 2.002 2.046 3.476 2.046 1.21 0 2.354-.528 2.354-1.694 0-1.364-1.43-1.54-3.014-1.87-1.936-.418-4.114-1.034-4.114-3.3 0-2.156 2.002-3.454 4.18-3.454.748 0 1.43.132 1.958.308.286.088.506.176.704.176.33 0 .286-.33.704-.33.704 0 1.496 1.716 1.496 2.882 0 .66-.286.946-.594.946-.374 0-.594-.374-.902-.968-.572-1.1-1.848-1.826-3.146-1.826-1.254.022-2.112.704-2.112 1.65 0 1.166 1.232 1.342 2.816 1.65 1.958.418 4.312 1.034 4.312 3.542 0 2.134-1.936 3.476-4.4 3.476m8.317 3.894c-1.804 0-2.816-.22-2.816-.792 0-.44.462-.572 1.32-.638.242-.088.286-.77.286-2.31v-7.172c0-.946-.044-2.222-.33-2.398-1.122-.066-1.408-.308-1.408-.616 0-.22.11-.396.44-.572.77-.396 2.376-.748 2.97-.748.616 0 .77.396.77 1.21 0 .286 0 .726-.022 1.298.682-1.584 2.31-2.684 4.136-2.684 2.53 0 4.488 2.178 4.488 5.566 0 3.41-2.156 5.962-5.258 5.962-1.408 0-2.596-.55-3.366-1.276v1.43c0 1.386.066 2.178.352 2.31 1.276.088 1.716.198 1.716.638 0 .616-1.122.792-3.278.792m1.144-9.152c0 2.904 1.364 4.048 2.992 4.048 1.936 0 3.124-1.672 3.124-4.312 0-2.684-1.21-4.334-2.948-4.334-1.518 0-3.168 1.32-3.168 4.598m9.77 2.09c0-2.09 1.892-3.52 4.686-3.52.858 0 1.694.154 2.464.352v-1.254c0-1.012-.044-2.728-1.694-2.728-.858 0-1.562.594-2.288 1.474-.374.462-.77.902-1.452.902-.55 0-.946-.352-.946-.858 0-1.166 2.882-2.728 5.258-2.728 2.244 0 3.542 1.21 3.542 3.454v4.136c0 1.254.066 2.068 1.386 2.354.132.022.176.088.176.22 0 .506-.638 1.188-1.782 1.188-.99 0-1.782-.528-2.134-1.826-.814 1.32-2.134 2.002-3.652 2.002-2.134 0-3.564-1.32-3.564-3.168m2.464-.33c0 1.122.77 1.958 2.024 1.958 1.43 0 2.706-1.21 2.706-2.838v-.66a5.15 5.15 0 0 0-2.09-.462c-1.716 0-2.64.814-2.64 2.002m14.74 3.52c-3.036 0-5.148-2.354-5.148-5.632 0-3.3 2.31-5.94 5.5-5.94 2.662 0 4.378 1.892 4.378 3.278 0 .704-.418 1.188-1.078 1.188-.836 0-1.078-.814-1.518-1.76-.33-.704-.836-1.518-2.09-1.518-1.76 0-2.86 1.672-2.86 3.806 0 2.618 1.43 4.4 3.608 4.4 1.562 0 2.486-.924 3.08-1.518.264-.264.418-.418.66-.418.264 0 .44.198.44.572 0 .418-.264 1.078-.77 1.65-.748.902-2.2 1.892-4.202 1.892m11.259 0c-3.102 0-5.192-2.266-5.192-5.544 0-3.564 2.508-6.006 5.566-6.006 2.772 0 4.51 1.936 4.51 3.85 0 .968-.484 1.65-1.342 1.65h-6.512c.132 2.354 1.496 3.894 3.696 3.894 1.54 0 2.508-.77 3.146-1.408.22-.198.396-.374.616-.374.286 0 .462.198.462.572 0 .396-.242.968-.726 1.496-.792.946-2.222 1.87-4.224 1.87m-2.904-7.26 4.554-.044c.704 0 1.078-.242 1.078-.858 0-1.166-.946-2.222-2.486-2.222-1.694 0-2.882 1.232-3.146 3.124" class="st3"/><path d="M103 118.416c0-6.857 5.559-12.416 12.416-12.416h169.168c6.857 0 12.416 5.559 12.416 12.416V329H103z" class="st0"/><path d="M103 118.416c0-6.857 5.559-12.416 12.416-12.416h169.168c6.857 0 12.416 5.559 12.416 12.416V328H103z" class="st4"/><path d="M120.715 128.977a1.036 1.036 0 0 1-1.464 0l-4.352-4.353 4.352-4.353a1.036 1.036 0 0 1 1.464 1.463l-2.89 2.89 2.89 2.89a1.034 1.034 0 0 1 0 1.463" class="st5"/><path d="M129.705 127.124h-1.231v-6.156h1.231zm2.86.106c-1.196 0-1.891-.511-1.988-1.496h1.17c.07.44.343.625.853.625.466 0 .73-.132.73-.431 0-.229-.167-.369-.625-.466l-.36-.088c-1.135-.255-1.627-.607-1.627-1.328 0-.897.668-1.354 1.776-1.354 1.223 0 1.891.492 1.944 1.451h-1.161c-.026-.423-.281-.59-.739-.59-.413 0-.651.124-.651.414 0 .22.159.36.607.457l.37.079c1.125.255 1.635.616 1.635 1.346 0 .906-.729 1.381-1.934 1.381m4.406 0c-1.196 0-1.891-.511-1.988-1.496h1.17c.07.44.343.625.853.625.466 0 .73-.132.73-.431 0-.229-.167-.369-.625-.466l-.36-.088c-1.135-.255-1.627-.607-1.627-1.328 0-.897.668-1.354 1.776-1.354 1.223 0 1.891.492 1.944 1.451h-1.161c-.026-.423-.281-.59-.739-.59-.413 0-.651.124-.651.414 0 .22.159.36.607.457l.37.079c1.125.255 1.635.616 1.635 1.346 0 .906-.73 1.381-1.934 1.381m4.247-.018c-1.046 0-1.574-.554-1.574-1.864v-2.56h1.178v2.472c0 .712.247.949.73.949.51 0 .81-.369.81-1.073v-2.348h1.187v4.336h-1.117v-.545c-.29.431-.695.633-1.214.633m7.393-2.234v.22h-3.043c.07.748.457 1.073.985 1.073.519 0 .747-.229.853-.537h1.205c-.326 1.161-1.24 1.496-2.058 1.496-1.328 0-2.199-.889-2.199-2.278 0-1.627 1.082-2.26 2.155-2.26 1.354 0 2.102.976 2.102 2.286m-3.017-.51h1.768c-.053-.598-.361-.871-.853-.871-.44 0-.8.238-.915.871m7.888 2.762c-1.293 0-2.137-.889-2.137-2.278 0-1.372.871-2.26 2.172-2.26 1.065 0 1.883.536 2.023 1.635h-1.205c-.149-.439-.431-.65-.853-.65-.589 0-.958.457-.958 1.275s.36 1.284.958 1.284c.431 0 .748-.238.871-.721h1.196c-.176 1.073-.967 1.715-2.067 1.715m4.543-4.538c1.293 0 1.856.536 1.856 1.82v2.612h-1.117v-.563c-.255.378-.677.669-1.293.669-.932 0-1.513-.475-1.513-1.258 0-.888.757-1.363 1.918-1.363.334 0 .58.026.826.079v-.343c0-.537-.237-.765-.721-.765-.466 0-.712.246-.739.589h-1.178c.088-1.003.906-1.477 1.961-1.477m-.229 3.641c.475 0 .906-.335.906-.862v-.053a2.4 2.4 0 0 0-.721-.088c-.528 0-.844.167-.844.528 0 .299.202.475.659.475m4.293.791h-1.187v-4.336h1.117v.633c.255-.501.642-.686 1.046-.686.106 0 .255.009.352.036v1.099a3 3 0 0 0-.44-.035c-.562 0-.888.369-.888 1.161zm3.61.106c-1.178 0-1.935-.889-1.935-2.278 0-1.372.792-2.26 1.935-2.26.501 0 .88.167 1.187.501v-2.225h1.179v6.156h-1.108v-.501c-.352.404-.748.607-1.258.607m.229-.994c.624 0 .994-.458.994-1.284 0-.818-.37-1.275-.994-1.275-.616 0-.985.457-.985 1.275 0 .826.369 1.284.985 1.284" class="st6"/><path d="M113.347 159.285h173v1.035h-173z" class="st7"/><defs><path id="SVGID_1_" d="M123.694 149.456c5.714 0 10.347 4.632 10.347 10.347s-4.632 10.347-10.347 10.347-10.347-4.632-10.347-10.347 4.632-10.347 10.347-10.347"/></defs><clipPath id="SVGID_00000175293280714573863990000007979028640395835572_"><use xlink:href="#SVGID_1_" style="overflow:visible"/></clipPath><g style="clip-path:url(#SVGID_00000175293280714573863990000007979028640395835572_)"><path d="M123.694 149.456c5.714 0 10.347 4.632 10.347 10.347s-4.632 10.347-10.347 10.347-10.347-4.632-10.347-10.347 4.632-10.347 10.347-10.347" class="st2"/><path d="M124.362 162.56h-.942v-3.262h-.84v-.679c.692-.007.981-.195 1.049-.767h.733z" class="st9"/><path d="M123.694 149.456c5.714 0 10.347 4.632 10.347 10.347s-4.632 10.347-10.347 10.347-10.347-4.632-10.347-10.347 4.632-10.347 10.347-10.347" class="st2"/><path d="M125.925 157.751a.62.62 0 0 1 .13.868l-2.701 3.659-1.942-1.773a.62.62 0 1 1 .838-.917l.923.844 1.883-2.55a.62.62 0 0 1 .869-.131" class="st10"/></g><path d="M123.693 170.149c-5.705 0-10.347-4.642-10.347-10.347s4.642-10.346 10.347-10.346 10.347 4.641 10.347 10.346c0 5.706-4.642 10.347-10.347 10.347m0-19.658c-5.135 0-9.312 4.177-9.312 9.312s4.177 9.312 9.312 9.312 9.312-4.177 9.312-9.312-4.177-9.312-9.312-9.312" class="st2"/><path d="M154.216 149.973c5.429 0 9.829 4.401 9.829 9.829s-4.401 9.829-9.829 9.829-9.829-4.401-9.829-9.829 4.401-9.829 9.829-9.829" class="st4"/><path d="M154.216 170.149c-5.705 0-10.346-4.642-10.346-10.347s4.641-10.346 10.346-10.346 10.347 4.641 10.347 10.346c0 5.706-4.642 10.347-10.347 10.347m0-19.658c-5.135 0-9.312 4.177-9.312 9.312s4.177 9.312 9.312 9.312 9.312-4.177 9.312-9.312-4.177-9.312-9.312-9.312" class="st2"/><path d="M155.847 162.56h-3.303v-.794c1.574-1.103 2.294-1.755 2.294-2.468 0-.417-.249-.672-.646-.672-.424 0-.659.275-.686.726h-.948c.027-.942.693-1.58 1.641-1.58 1.029 0 1.587.605 1.587 1.425 0 .996-.76 1.648-1.883 2.495h1.944z" class="st6"/><path d="M184.738 149.973c5.429 0 9.829 4.401 9.829 9.829s-4.401 9.829-9.829 9.829-9.829-4.401-9.829-9.829 4.401-9.829 9.829-9.829" class="st4"/><path d="M184.738 170.149c-5.705 0-10.347-4.642-10.347-10.347s4.642-10.346 10.347-10.346 10.347 4.641 10.347 10.346c0 5.706-4.642 10.347-10.347 10.347m0-19.658c-5.135 0-9.312 4.177-9.312 9.312s4.177 9.312 9.312 9.312 9.312-4.177 9.312-9.312-4.177-9.312-9.312-9.312" class="st7"/><path d="M185.596 160.119c.47.114.84.491.84 1.042 0 .895-.699 1.48-1.708 1.48-.968 0-1.648-.464-1.728-1.446h.934c.095.464.397.618.821.618.41 0 .733-.221.733-.652 0-.41-.262-.592-.74-.592h-.484v-.78h.451c.511 0 .719-.229.719-.625 0-.377-.296-.565-.693-.565-.383 0-.672.168-.753.619h-.935c.074-.922.727-1.446 1.709-1.446.941 0 1.6.531 1.6 1.324 0 .572-.329.895-.766 1.023" class="st9"/><path d="M215.261 149.973c5.429 0 9.829 4.401 9.829 9.829s-4.401 9.829-9.829 9.829-9.829-4.401-9.829-9.829 4.401-9.829 9.829-9.829" class="st4"/><path d="M215.262 170.149c-5.706 0-10.348-4.642-10.348-10.347s4.642-10.346 10.348-10.346c5.705 0 10.347 4.641 10.347 10.346-.001 5.706-4.642 10.347-10.347 10.347m0-19.658c-5.135 0-9.312 4.177-9.312 9.312s4.178 9.312 9.312 9.312 9.312-4.177 9.312-9.312-4.178-9.312-9.312-9.312" class="st7"/><path d="M216.451 162.56h-.921v-.982h-2.065v-.8l1.998-2.926h.988v2.885h.612v.841h-.612zm-.921-3.484-1.11 1.661h1.11z" class="st9"/><path d="M245.784 149.973c5.429 0 9.829 4.401 9.829 9.829s-4.401 9.829-9.829 9.829-9.829-4.401-9.829-9.829 4.401-9.829 9.829-9.829" class="st4"/><path d="M245.784 170.149c-5.705 0-10.347-4.642-10.347-10.347s4.642-10.346 10.347-10.346 10.347 4.641 10.347 10.346c0 5.706-4.642 10.347-10.347 10.347m0-19.658c-5.135 0-9.312 4.177-9.312 9.312s4.177 9.312 9.312 9.312 9.312-4.177 9.312-9.312-4.177-9.312-9.312-9.312" class="st7"/><path d="M245.972 159.372c.948 0 1.506.713 1.506 1.614 0 .955-.679 1.655-1.661 1.655-.955 0-1.513-.532-1.641-1.298h.948c.088.302.316.464.666.464.464 0 .746-.31.746-.821 0-.491-.282-.8-.739-.8-.377 0-.592.208-.666.457h-.895l.296-2.791h2.704v.868h-1.984l-.121.988c.188-.228.498-.336.841-.336" class="st9"/><path d="M276.306 149.973c5.429 0 9.829 4.401 9.829 9.829s-4.401 9.829-9.829 9.829-9.829-4.401-9.829-9.829 4.401-9.829 9.829-9.829" class="st4"/><path d="M276.307 170.149c-5.706 0-10.348-4.642-10.348-10.347s4.642-10.346 10.348-10.346c5.705 0 10.347 4.641 10.347 10.346-.001 5.706-4.642 10.347-10.347 10.347m0-19.658c-5.135 0-9.312 4.177-9.312 9.312s4.178 9.312 9.312 9.312 9.312-4.177 9.312-9.312-4.178-9.312-9.312-9.312" class="st7"/><path d="M276.395 162.641c-.921 0-1.809-.659-1.809-2.314 0-1.614.72-2.555 1.843-2.555.928 0 1.466.47 1.607 1.25h-.941c-.101-.302-.316-.464-.652-.464-.646 0-.888.538-.908 1.46.255-.397.638-.525 1.049-.525.766 0 1.499.538 1.499 1.554 0 .766-.551 1.594-1.688 1.594m-.02-.787c.464 0 .774-.31.774-.787 0-.484-.31-.787-.774-.787-.457 0-.766.296-.766.767 0 .491.309.807.766.807" class="st9"/><path d="M117.717 193.747c-2.14 0-3.972-1.786-3.972-4.188 0-2.447 1.798-4.245 4.04-4.245.752 0 1.389.227 1.867.432.193.091.284.126.387.126.193 0 .239-.126.455-.126.455 0 .729 1.082.729 1.89 0 .739-.205 1.024-.433 1.024-.284 0-.376-.341-.569-.99-.296-.956-1.445-1.559-2.424-1.571-1.594 0-2.618 1.263-2.618 3.005 0 1.878 1.252 3.653 3.073 3.653.888 0 1.707-.375 2.14-1.092.227-.399.341-.888.592-.888.193 0 .307.182.307.535 0 .808-.558 2.083-1.013 2.083-.239 0-.239-.137-.455-.137-.091 0-.228.057-.376.137a4.1 4.1 0 0 1-1.73.352m5.637-.113c-.91 0-1.434-.114-1.434-.422 0-.227.228-.295.66-.318.137-.057.16-.399.16-1.195v-4.268c0-.524-.046-1.15-.194-1.218-.603-.034-.774-.159-.774-.319 0-.125.069-.216.228-.296.455-.227 1.297-.398 1.605-.398.33 0 .398.216.398.626 0 .398-.011 1.002-.011 1.81v1.536a2.23 2.23 0 0 1 2.105-1.4c1.025 0 1.855.603 1.855 2.151v1.776c0 .785 0 1.115.137 1.195.444.034.671.091.671.318 0 .319-.557.422-1.422.422-.968 0-1.503-.114-1.503-.422 0-.227.228-.295.717-.318.137-.057.148-.569.148-1.195v-1.298c0-1.206-.341-1.718-1.172-1.718-.74 0-1.536.557-1.536 2.082v.934c0 .762.011 1.138.136 1.195.512.034.717.091.717.318 0 .319-.557.422-1.491.422m8.808.113c-1.752 0-2.947-1.24-2.947-2.97 0-1.776 1.32-3.016 3.141-3.016 1.741 0 2.948 1.24 2.948 2.97 0 1.81-1.355 3.016-3.142 3.016m-1.684-3.482c0 1.365.819 2.845 2.049 2.845.865 0 1.525-.717 1.525-1.866 0-1.378-.854-2.846-2.06-2.846-.854 0-1.514.694-1.514 1.867m8.409 3.482c-1.753 0-2.948-1.24-2.948-2.97 0-1.776 1.32-3.016 3.141-3.016 1.742 0 2.948 1.24 2.948 2.97 0 1.81-1.354 3.016-3.141 3.016m-1.685-3.482c0 1.365.82 2.845 2.049 2.845.865 0 1.525-.717 1.525-1.866 0-1.378-.854-2.846-2.06-2.846-.854 0-1.514.694-1.514 1.867m8.193 3.471c-.433 0-.763-.068-1.036-.171-.171-.057-.319-.136-.421-.136-.193 0-.148.205-.41.205-.421 0-.808-.945-.808-1.605 0-.376.103-.546.285-.546.216 0 .296.284.466.58.342.58 1.036 1.058 1.799 1.058.626 0 1.217-.273 1.217-.876 0-.706-.739-.797-1.559-.967-1.001-.217-2.128-.535-2.128-1.708 0-1.115 1.036-1.786 2.162-1.786.387 0 .74.068 1.013.159.148.045.262.091.364.091.171 0 .148-.171.365-.171.364 0 .774.888.774 1.491 0 .342-.148.49-.308.49-.193 0-.307-.194-.466-.501-.296-.569-.956-.945-1.628-.945-.649.012-1.092.364-1.092.854 0 .603.637.694 1.456.853 1.013.217 2.231.535 2.231 1.833 0 1.104-1.001 1.798-2.276 1.798m5.645.011c-1.605 0-2.686-1.172-2.686-2.868 0-1.843 1.298-3.107 2.88-3.107 1.434 0 2.333 1.002 2.333 1.992 0 .501-.251.854-.694.854h-3.369c.068 1.217.774 2.014 1.912 2.014.797 0 1.297-.398 1.627-.728.114-.103.205-.194.319-.194.148 0 .239.103.239.296 0 .205-.125.501-.376.774-.409.489-1.149.967-2.185.967m-1.502-3.755 2.356-.023c.364 0 .558-.125.558-.444 0-.603-.49-1.15-1.287-1.15-.876 0-1.491.638-1.627 1.617m7.284 2.105c0-1.081.978-1.821 2.424-1.821.444 0 .876.08 1.275.182v-.649c0-.523-.023-1.411-.877-1.411-.444 0-.808.307-1.183.763-.194.239-.399.466-.752.466-.284 0-.489-.182-.489-.444 0-.603 1.491-1.411 2.72-1.411 1.161 0 1.833.626 1.833 1.787v2.14c0 .649.034 1.07.717 1.218.068.011.091.045.091.113 0 .262-.33.615-.922.615-.512 0-.922-.273-1.104-.945-.421.683-1.104 1.036-1.89 1.036-1.104 0-1.843-.683-1.843-1.639m1.274-.171c0 .581.399 1.013 1.047 1.013.74 0 1.4-.626 1.4-1.468v-.341a2.7 2.7 0 0 0-1.081-.239c-.888 0-1.366.421-1.366 1.035m10.271 1.821c-1.57 0-2.663-1.217-2.663-2.913 0-1.707 1.195-3.073 2.845-3.073 1.378 0 2.265.979 2.265 1.696 0 .364-.216.614-.557.614-.433 0-.558-.421-.786-.91-.17-.364-.432-.786-1.081-.786-.91 0-1.479.865-1.479 1.969 0 1.355.739 2.277 1.866 2.277.808 0 1.286-.478 1.593-.786.137-.136.217-.216.342-.216.136 0 .228.103.228.296 0 .216-.137.558-.399.854-.387.466-1.138.978-2.174.978m3.059-1.65c0-1.081.979-1.821 2.424-1.821.444 0 .877.08 1.275.182v-.649c0-.523-.023-1.411-.876-1.411-.444 0-.808.307-1.184.763-.193.239-.398.466-.751.466-.285 0-.489-.182-.489-.444 0-.603 1.491-1.411 2.72-1.411 1.161 0 1.832.626 1.832 1.787v2.14c0 .649.034 1.07.717 1.218.068.011.091.045.091.113 0 .262-.33.615-.922.615-.512 0-.922-.273-1.104-.945-.421.683-1.104 1.036-1.889 1.036-1.104 0-1.844-.683-1.844-1.639m1.275-.171c0 .581.398 1.013 1.047 1.013.74 0 1.4-.626 1.4-1.468v-.341a2.7 2.7 0 0 0-1.081-.239c-.888 0-1.366.421-1.366 1.035m6.396 1.708c-.91 0-1.434-.114-1.434-.422 0-.227.228-.295.661-.318.125-.057.147-.399.147-1.195v-1.582c0-.512-.022-1.173-.17-1.252-.581-.034-.729-.16-.729-.319 0-.114.069-.205.228-.296.398-.205 1.229-.387 1.536-.387.331 0 .399.217.399.626v.751c.375-.944 1.127-1.445 1.73-1.445.444 0 .865.285.865.842 0 .512-.285.82-.672.82-.262 0-.421-.126-.557-.274-.103-.102-.194-.239-.387-.239-.376 0-.991.592-.991 1.639v1.116c0 .751.035 1.127.16 1.183.637.035.876.103.876.33 0 .319-.592.422-1.662.422m5.879.102c-1.354 0-2.356-1.184-2.356-2.891 0-1.844 1.104-3.073 2.709-3.073.751 0 1.343.285 1.73.717v-1.013c0-.512-.068-1.172-.25-1.252-.615-.022-.808-.159-.808-.318 0-.137.079-.228.262-.308.443-.216 1.343-.398 1.661-.398.33 0 .399.216.399.626 0 .398-.012 1.013-.012 1.832v3.756c0 .558.023 1.184.16 1.252.58.034.739.16.739.319 0 .114-.068.205-.239.296-.421.205-1.206.387-1.502.387-.33 0-.398-.217-.398-.626 0-.16.011-.41.011-.706a2.24 2.24 0 0 1-2.106 1.4m-1.024-3.062c0 1.434.637 2.22 1.502 2.22.831 0 1.639-.694 1.617-2.368-.012-1.525-.683-2.139-1.526-2.139-1.035 0-1.593.91-1.593 2.287m10.444 2.994c-.899 0-1.457-.478-1.457-1.491l-.011-3.472h-.319c-.216 0-.421-.091-.421-.318 0-.296.375-.626.751-.956.341-.285.66-.535.933-.535.194 0 .307.125.307.375v.717h1.309c.421 0 .911-.113 1.821-.113 1.013 0 1.457.148 1.457.432 0 .228-.227.307-.694.33-.091.103.023.592.193 1.07.296.842.808 1.98 1.184 2.72.353-.876.774-2.117.967-2.834.092-.353.205-.853.103-.979-.49-.034-.706-.102-.706-.318 0-.273.524-.421 1.286-.421.706 0 1.161.159 1.161.409 0 .228-.205.296-.58.342-.216.102-.33.353-.501.865-.524 1.457-.819 2.322-1.297 3.608-.626 1.65-1.082 2.674-2.277 2.674-.694 0-1.172-.455-1.172-.979 0-.443.307-.762.694-.762s.615.25.638.615c.011.102.011.193.011.273a.164.164 0 0 0 .171.148c.307 0 .523-.319.705-.843.091-.284.023-.557-.296-1.229a102 102 0 0 1-1.57-3.63c-.205-.513-.399-.683-.82-.683h-1.787v3.039c0 .694.183.99.74.99.421 0 .751-.342 1.002-.342.125 0 .216.103.216.251 0 .409-.854 1.047-1.741 1.047m9.485 2.083c-.933 0-1.457-.114-1.457-.41 0-.228.239-.296.683-.33.125-.046.148-.399.148-1.195v-3.711c0-.489-.023-1.149-.171-1.24-.58-.034-.728-.16-.728-.319 0-.114.057-.205.227-.296.399-.205 1.23-.387 1.537-.387.319 0 .398.205.398.626 0 .148 0 .376-.011.672a2.34 2.34 0 0 1 2.139-1.389c1.309 0 2.322 1.127 2.322 2.88 0 1.764-1.115 3.084-2.72 3.084-.728 0-1.343-.285-1.741-.66v.74c0 .717.034 1.126.182 1.195.66.045.888.102.888.33 0 .318-.581.41-1.696.41m.592-4.735c0 1.502.705 2.094 1.548 2.094 1.001 0 1.616-.865 1.616-2.231 0-1.388-.626-2.242-1.525-2.242-.786 0-1.639.683-1.639 2.379m7.842 2.731c-1.605 0-2.686-1.172-2.686-2.868 0-1.843 1.297-3.107 2.879-3.107 1.434 0 2.334 1.002 2.334 1.992 0 .501-.251.854-.695.854h-3.369c.069 1.217.774 2.014 1.913 2.014.796 0 1.297-.398 1.627-.728.114-.103.205-.194.319-.194.148 0 .239.103.239.296 0 .205-.125.501-.376.774-.41.489-1.149.967-2.185.967m-1.502-3.755 2.356-.023c.364 0 .557-.125.557-.444 0-.603-.489-1.15-1.286-1.15-.876 0-1.491.638-1.627 1.617" class="st6"/><path d="M113.347 212.051a4.14 4.14 0 0 1 4.138-4.139h165.03a4.14 4.14 0 0 1 4.138 4.139v28.97a4.14 4.14 0 0 1-4.138 4.139h-165.03a4.14 4.14 0 0 1-4.138-4.139z" class="st11"/><path d="m142.106 229.081-8.692-5.911a.914.914 0 0 0-1.27.242l-3.061 4.501a.914.914 0 0 0 .242 1.27l8.692 5.911a.914.914 0 0 0 1.27-.242l3.061-4.5a.915.915 0 0 0-.242-1.271" class="st12"/><path d="M131.58 224.206s.34.045.704.023.885-.181.885-.181.181 2.067.432 2.316c.25.25 1.112.886 1.908.455.795-.432 1.149-.497.999-1.044-.149-.548-1.272-2.681-1.272-2.681s-.023-1.18-.023-1.408.249-1.908-1.159-2.203c-1.408-.296-2.476-.25-3.407-.568-.932-.317-1.726-1.136-1.726-1.136s-3.52 1.408-3.588 4.429c0 0 1.34 1.295 1.863 2.225s1.181 3.18 2.021 3.225l2.361-3.452zm3.951 9.267-5.769-3.861s-1.681 1.432-.932 2.204 1.999-.091 1.999-.091-.523 1.067 0 1.499 1.863-.159 1.863-.159-.544 1.09.273 1.499 2.135-.591 2.566-1.091" class="st13"/><path d="M138.498 235.492c-.22 0-.442-.063-.637-.196l-8.735-5.942a1.14 1.14 0 0 1-.301-1.578l2.582-3.796a.21.21 0 0 1 .295-.056.21.21 0 0 1 .056.296l-2.581 3.795a.71.71 0 0 0 .188.987l8.735 5.942a.71.71 0 0 0 .988-.19l3.048-4.482a.706.706 0 0 0-.188-.986l-5.711-3.885a.21.21 0 0 1-.056-.296.21.21 0 0 1 .295-.056l5.711 3.885a1.13 1.13 0 0 1 .301 1.579l-3.048 4.482c-.22.323-.578.497-.942.497" class="st14"/><path d="m133.175 227.11-.119-.081a.21.21 0 0 0-.294.056l-.215.317a.21.21 0 0 0 .056.294l.118.08a.21.21 0 0 0 .294-.056l.216-.316a.213.213 0 0 0-.056-.294m.462-.665-.119-.081a.21.21 0 0 0-.294.056l-.139.204a.213.213 0 0 0 .056.294l.119.081c.097.065.228.04.294-.056l.139-.204a.213.213 0 0 0-.056-.294m.066 1.18-.119-.08a.21.21 0 0 0-.294.056l-.139.204a.213.213 0 0 0 .056.294l.119.08a.21.21 0 0 0 .294-.056l.139-.204a.21.21 0 0 0-.056-.294m.512-.785-.118-.081a.21.21 0 0 0-.294.056l-.235.346a.21.21 0 0 0 .056.294l.118.08a.21.21 0 0 0 .294-.056l.235-.345a.21.21 0 0 0-.056-.294" class="st1"/><path d="m140.868 229.369-3.014-2.049a.825.825 0 1 0-.928 1.365l3.013 2.05a.825.825 0 1 0 .929-1.366" class="st2"/><path d="M129.127 227.889a.2.2 0 0 1-.137-.051c-.6-.506-1.003-1.314-1.431-2.171-.56-1.12-1.194-2.391-2.415-3.357a.22.22 0 0 1-.08-.181c.2-3.116 3.587-4.497 3.731-4.555.109-.04.233.01.276.119s-.01.233-.119.276c-.032.014-3.198 1.308-3.455 4.077 1.237 1.015 1.877 2.297 2.443 3.431.425.851.792 1.586 1.325 2.036a.212.212 0 0 1-.138.376m.49 4.438c-.196 0-.393-.039-.585-.133-.335-.164-.53-.44-.562-.798-.056-.629.438-1.457 1.199-2.016a.215.215 0 0 1 .298.046.214.214 0 0 1-.046.298c-.638.467-1.07 1.154-1.027 1.635q.026.307.325.452c.624.31 1.427-.267 1.743-.528a.214.214 0 0 1 .3.028.214.214 0 0 1-.028.3c-.36.298-.98.716-1.617.716" class="st14"/><path d="M131.475 233.662c-.196 0-.393-.04-.584-.134-.419-.205-.54-.52-.566-.747-.069-.587.393-1.352 1.236-2.047a.213.213 0 1 1 .27.328c-.709.585-1.134 1.239-1.083 1.669.021.181.129.316.331.414.536.262 1.201-.123 1.55-.377a.214.214 0 0 1 .297.048.214.214 0 0 1-.048.298c-.379.274-.887.548-1.403.548" class="st14"/><path d="M133.455 234.957q-.337 0-.65-.152c-.433-.212-.562-.526-.595-.753-.081-.569.341-1.308 1.189-2.078a.21.21 0 0 1 .3.014.213.213 0 0 1-.014.301c-.719.653-1.112 1.291-1.054 1.704.026.184.144.324.36.43.642.312 1.439-.064 2.363-1.12a.21.21 0 0 1 .3-.02.214.214 0 0 1 .02.301c-.799.913-1.544 1.373-2.219 1.373m-1.38-5.163a.2.2 0 0 1-.12-.037l-1.804-1.228a.21.21 0 0 1-.056-.296.21.21 0 0 1 .295-.056l1.804 1.228a.212.212 0 0 1-.119.389m2.628 1.787a.2.2 0 0 1-.12-.037l-1.803-1.226a.21.21 0 0 1-.056-.295.21.21 0 0 1 .295-.057l1.803 1.226a.21.21 0 0 1 .056.295.2.2 0 0 1-.175.094" class="st14"/><path d="m132.273 227.326.999-1.47a.167.167 0 0 0-.043-.232l-.503-.342a.17.17 0 0 0-.146-.021l-.321.104a.17.17 0 0 0-.087.065l-.726 1.068a.16.16 0 0 0-.029.096l.002.271c0 .055.028.106.074.138l.547.368c.077.051.18.032.233-.045" class="st1"/><path d="M134.866 227.176c-.406 0-.715-.144-.933-.3-.646-.466-1-1.42-.962-2.548-1.036.467-2.226-.425-2.283-.468a.214.214 0 0 1-.041-.298.216.216 0 0 1 .298-.041c.013.011 1.29.96 2.131.24a.21.21 0 0 1 .238-.025.21.21 0 0 1 .111.212c-.134 1.142.162 2.155.755 2.582.388.28.893.288 1.458.024.284-.134.455-.303.524-.517.165-.51-.252-1.259-.621-1.919-.265-.476-.514-.925-.565-1.299-.05-.372-.02-.715.01-1.045.058-.657.104-1.176-.469-1.733-.343-.333-1.079-.439-1.93-.563-1.266-.184-2.842-.413-3.828-1.568a.212.212 0 1 1 .323-.276c.882 1.032 2.308 1.24 3.565 1.423.924.134 1.723.25 2.166.68.719.698.656 1.398.596 2.075-.027.308-.056.626-.012.951.04.294.271.709.515 1.148.41.736.875 1.571.654 2.257q-.16.493-.749.771a2.2 2.2 0 0 1-.951.237" class="st14"/><path d="M154.317 223.501h-1.087v-5.432h2.173c1.203 0 1.995.683 1.995 1.847s-.792 1.855-1.995 1.855h-1.086zm0-4.438v1.715h1.102c.566 0 .892-.326.892-.862 0-.527-.326-.853-.892-.853zm4.832 4.438h-1.048v-5.432h1.048v2.049c.248-.365.605-.528 1.055-.528.916 0 1.381.481 1.381 1.638v2.273h-1.04v-2.188c0-.621-.217-.83-.651-.83-.482 0-.745.326-.745.939zm3.543 1.739c-.248 0-.45-.024-.621-.07l.062-.869c.163.054.288.054.412.054.271 0 .411-.085.527-.411l.194-.528-1.373-3.74h1.102l.83 2.553.815-2.553h1.063l-1.645 4.4c-.334.876-.675 1.164-1.366 1.164m4.871-1.646c-1.055 0-1.668-.45-1.754-1.319h1.032c.062.388.303.551.753.551.411 0 .644-.116.644-.38 0-.202-.147-.326-.551-.411l-.318-.078c-1.001-.225-1.436-.535-1.436-1.172 0-.791.59-1.195 1.568-1.195 1.079 0 1.668.435 1.715 1.281h-1.024c-.024-.373-.249-.52-.652-.52-.365 0-.575.108-.575.364 0 .194.14.319.536.404l.326.07c.993.225 1.443.543 1.443 1.187 0 .799-.644 1.218-1.707 1.218m2.933-4.5c-.326 0-.566-.249-.566-.559s.24-.551.566-.551.567.241.567.551-.241.559-.567.559m.52 4.407h-1.048v-3.825h1.048zm2.598.093c-1.14 0-1.885-.783-1.885-2.009 0-1.211.768-1.995 1.916-1.995.939 0 1.661.474 1.785 1.444h-1.063c-.132-.388-.38-.575-.753-.575-.52 0-.846.404-.846 1.126s.319 1.133.846 1.133c.381 0 .66-.21.769-.637h1.055c-.155.947-.854 1.513-1.824 1.513m4.009-4.004c1.14 0 1.637.474 1.637 1.607v2.304h-.986v-.496c-.225.333-.597.589-1.14.589-.823 0-1.335-.419-1.335-1.109 0-.784.667-1.203 1.692-1.203.295 0 .512.023.729.07v-.303c0-.473-.209-.675-.636-.675-.411 0-.629.217-.652.52h-1.04c.078-.885.799-1.304 1.731-1.304m-.202 3.213c.419 0 .799-.295.799-.761v-.046a2.2 2.2 0 0 0-.636-.078c-.466 0-.745.148-.745.466 0 .264.178.419.582.419m3.834.745c-.76 0-1.094-.342-1.094-1.032v-4.447h1.048v4.206c0 .272.069.396.318.396q.06.002.132-.008v.838a1.7 1.7 0 0 1-.404.047m4.628.046c-1.14 0-1.885-.783-1.885-2.009 0-1.211.768-1.995 1.916-1.995.939 0 1.661.474 1.785 1.444h-1.063c-.132-.388-.38-.575-.753-.575-.52 0-.846.404-.846 1.126s.319 1.133.846 1.133c.381 0 .66-.21.769-.637h1.055c-.155.947-.854 1.513-1.824 1.513m4.009-4.004c1.14 0 1.637.474 1.637 1.607v2.304h-.986v-.496c-.225.333-.597.589-1.14.589-.823 0-1.335-.419-1.335-1.109 0-.784.667-1.203 1.692-1.203.295 0 .512.023.729.07v-.303c0-.473-.209-.675-.636-.675-.412 0-.629.217-.652.52h-1.04c.078-.885.799-1.304 1.731-1.304m-.202 3.213c.419 0 .799-.295.799-.761v-.046a2.2 2.2 0 0 0-.636-.078c-.466 0-.745.148-.745.466 0 .264.178.419.582.419m3.788.698h-1.048v-3.825h.985v.558c.225-.442.567-.605.924-.605.093 0 .225.008.31.031v.97a2.5 2.5 0 0 0-.388-.031c-.496 0-.783.326-.783 1.024zm3.185.093c-1.04 0-1.707-.783-1.707-2.009 0-1.211.698-1.995 1.707-1.995.442 0 .776.148 1.047.443v-1.964h1.04v5.432h-.978v-.442c-.31.357-.659.535-1.109.535m.202-.876c.55 0 .876-.404.876-1.133 0-.722-.326-1.126-.876-1.126-.544 0-.87.404-.87 1.126 0 .729.326 1.133.87 1.133" class="st6"/><path d="M153 233.21c0-1.426.895-2.421 2.24-2.421 1.036 0 1.782.578 2.051 1.533h-.679c-.229-.632-.7-.928-1.372-.928-.975 0-1.587.7-1.587 1.823s.618 1.822 1.594 1.822c.793 0 1.345-.43 1.479-1.345h-1.298v-.592h1.984v.148c0 1.46-.908 2.395-2.186 2.395-1.331 0-2.226-.982-2.226-2.435m5.831 2.361h-.625v-3.302h.598v.558c.182-.404.498-.592.875-.592.067 0 .154.007.222.027v.592a1.5 1.5 0 0 0-.242-.021c-.559 0-.828.391-.828 1.164zm4.431-1.756v.222h-2.374c.034.713.411 1.056.935 1.056.41 0 .639-.148.78-.484h.646c-.242.74-.807 1.036-1.426 1.036-.928 0-1.574-.68-1.574-1.729 0-1.143.693-1.721 1.554-1.721.894 0 1.459.679 1.459 1.62m-2.353-.249h1.701c-.04-.564-.33-.833-.807-.833s-.807.262-.894.833m4.387-1.371c.854 0 1.311.376 1.311 1.331v2.045h-.598v-.458c-.202.29-.511.532-1.029.532-.666 0-1.137-.343-1.137-.928 0-.68.572-1.029 1.419-1.029.249 0 .471.02.72.074v-.337c0-.497-.256-.692-.7-.692-.45 0-.679.195-.726.538h-.632c.054-.693.619-1.076 1.372-1.076m-.195 2.925c.471 0 .881-.343.881-.82v-.054a2.6 2.6 0 0 0-.7-.088c-.504 0-.807.162-.807.505 0 .289.195.457.626.457m3.492.504c-.665 0-.894-.336-.894-.874v-1.917h-.498v-.564h.195c.209 0 .303-.095.303-.303v-.612h.625v.915h.754v.564h-.754v1.783c0 .282.068.437.424.437.128 0 .215-.014.33-.047v.551a2 2 0 0 1-.485.067m3.711-.053h-.618v-2.738h-.498v-.564h.491v-.579c0-.572.356-.901.982-.901q.212.002.403.054v.565a.9.9 0 0 0-.296-.047c-.302 0-.464.1-.464.43v.478h.693v.564h-.693zm2.556.074c-.942 0-1.567-.68-1.567-1.729 0-1.042.625-1.721 1.567-1.721.941 0 1.56.679 1.56 1.721 0 1.049-.619 1.729-1.56 1.729m0-.565c.585 0 .928-.404.928-1.164s-.343-1.157-.928-1.157c-.592 0-.935.397-.935 1.157s.343 1.164.935 1.164m2.959.491h-.626v-3.302h.599v.558c.181-.404.497-.592.874-.592.067 0 .155.007.222.027v.592a1.5 1.5 0 0 0-.242-.021c-.558 0-.827.391-.827 1.164zm4.54.053c-.665 0-.894-.336-.894-.874v-1.917h-.498v-.564h.195c.209 0 .303-.095.303-.303v-.612h.625v.915h.754v.564h-.754v1.783c0 .282.068.437.424.437.128 0 .215-.014.33-.047v.551a2 2 0 0 1-.485.067m1.751-.053h-.625v-4.708h.625v1.829c.243-.363.538-.497.989-.497.76 0 1.143.43 1.143 1.358v2.018h-.625v-1.964c0-.592-.195-.841-.666-.841-.598 0-.841.404-.841 1.076zm5.876-1.756v.222h-2.374c.034.713.411 1.056.935 1.056.41 0 .639-.148.78-.484h.646c-.242.74-.807 1.036-1.426 1.036-.928 0-1.574-.68-1.574-1.729 0-1.143.693-1.721 1.554-1.721.894 0 1.459.679 1.459 1.62m-2.353-.249h1.701c-.04-.564-.33-.833-.807-.833s-.807.262-.894.833m5.701 2.005h-.619v-2.738h-.497v-.564h.491v-.579c0-.572.356-.901.982-.901q.211.002.403.054v.565a.9.9 0 0 0-.296-.047c-.302 0-.464.1-.464.43v.478h.693v.564h-.693zm1.935 0h-.626v-3.302h.599v.558c.182-.404.498-.592.874-.592.068 0 .155.007.222.027v.592a1.5 1.5 0 0 0-.242-.021c-.558 0-.827.391-.827 1.164zm4.431-1.756v.222h-2.374c.034.713.41 1.056.935 1.056.41 0 .639-.148.78-.484h.646c-.243.74-.807 1.036-1.426 1.036-.928 0-1.574-.68-1.574-1.729 0-1.143.693-1.721 1.554-1.721.894 0 1.459.679 1.459 1.62m-2.354-.249h1.702c-.041-.564-.33-.833-.807-.833s-.807.262-.895.833m5.981 3.464h-.625v-1.883a1.21 1.21 0 0 1-1.009.498c-.888 0-1.466-.68-1.466-1.729 0-1.042.578-1.721 1.473-1.721.464 0 .76.174 1.029.497v-.423h.598zm-1.546-1.95c.591 0 .934-.404.934-1.164 0-.753-.343-1.157-.934-1.157-.585 0-.935.404-.935 1.157 0 .76.35 1.164.935 1.164m3.659.558c-.76 0-1.143-.431-1.143-1.359v-2.01h.626v1.957c0 .591.195.84.665.84.565 0 .807-.403.807-1.076v-1.721h.626v3.302h-.599v-.444c-.235.363-.531.511-.982.511m5.366-1.823v.222h-2.374c.034.713.41 1.056.935 1.056.41 0 .639-.148.78-.484h.646c-.243.74-.807 1.036-1.426 1.036-.928 0-1.574-.68-1.574-1.729 0-1.143.693-1.721 1.554-1.721.894 0 1.459.679 1.459 1.62m-2.354-.249h1.702c-.041-.564-.33-.833-.807-.833s-.807.262-.895.833m3.742 2.005h-.626v-3.302h.599v.43c.256-.357.551-.504 1.009-.504.767 0 1.15.43 1.15 1.358v2.018h-.626v-1.964c0-.592-.195-.841-.665-.841-.599 0-.841.404-.841 1.076zm4.114.053c-.666 0-.895-.336-.895-.874v-1.917h-.497v-.564h.195c.208 0 .302-.095.302-.303v-.612h.626v.915h.753v.564h-.753v1.783c0 .282.067.437.424.437.127 0 .215-.014.329-.047v.551a2 2 0 0 1-.484.067m4.108.021c-.814 0-1.305-.37-1.399-1.063h.639c.074.383.336.538.773.538.471 0 .726-.121.726-.437 0-.249-.168-.377-.625-.484l-.289-.068c-.801-.188-1.117-.477-1.117-.981 0-.612.471-.955 1.251-.955.8 0 1.285.356 1.352 1.015h-.639c-.054-.356-.296-.491-.699-.491-.411 0-.639.108-.639.397 0 .235.154.363.592.464l.295.067c.801.182 1.144.471 1.144.996 0 .638-.511 1.002-1.365 1.002m2.739 1.385h-.625v-4.761h.599v.43c.282-.357.598-.504 1.035-.504.888 0 1.466.679 1.466 1.721 0 1.049-.591 1.729-1.466 1.729-.437 0-.753-.148-1.009-.485zm.922-1.95c.585 0 .935-.404.935-1.164s-.35-1.157-.935-1.157c-.592 0-.935.397-.935 1.157s.343 1.164.935 1.164m5.105-1.265v.222h-2.374c.034.713.411 1.056.935 1.056.41 0 .639-.148.78-.484h.646c-.242.74-.807 1.036-1.426 1.036-.928 0-1.573-.68-1.573-1.729 0-1.143.692-1.721 1.553-1.721.895 0 1.459.679 1.459 1.62m-2.353-.249h1.701c-.04-.564-.329-.833-.807-.833-.477 0-.807.262-.894.833m3.741 2.005h-.625v-3.302h.598v.43c.256-.357.552-.504 1.009-.504.767 0 1.15.43 1.15 1.358v2.018h-.625v-1.964c0-.592-.195-.841-.666-.841-.599 0-.841.404-.841 1.076zm4.33.074c-.888 0-1.467-.68-1.467-1.729 0-1.042.592-1.721 1.467-1.721.437 0 .719.134 1.008.477v-1.809h.626v4.708h-.599v-.444c-.309.363-.598.518-1.035.518m.087-.565c.592 0 .935-.404.935-1.164s-.343-1.157-.935-1.157c-.585 0-.935.397-.935 1.157s.35 1.164.935 1.164m5.334-1.265v.222h-2.374c.034.713.411 1.056.935 1.056.41 0 .639-.148.78-.484h.646c-.242.74-.807 1.036-1.426 1.036-.928 0-1.574-.68-1.574-1.729 0-1.143.693-1.721 1.554-1.721.894 0 1.459.679 1.459 1.62m-2.354-.249h1.702c-.04-.564-.33-.833-.807-.833s-.807.262-.895.833m3.742 2.005h-.625v-3.302h.598v.558c.182-.404.498-.592.875-.592.067 0 .154.007.222.027v.592a2 2 0 0 0-.243-.021c-.558 0-.827.391-.827 1.164z" class="st9"/><path d="M270.919 230.889a1.034 1.034 0 0 0 1.463 0l4.353-4.353-4.353-4.353a1.034 1.034 0 1 0-1.463 1.463l2.89 2.89-2.89 2.89a1.034 1.034 0 0 0 0 1.463" class="st5"/><path d="M113.347 253.437a4.14 4.14 0 0 1 4.138-4.138h165.03a4.14 4.14 0 0 1 4.138 4.138v28.971a4.14 4.14 0 0 1-4.138 4.139h-165.03a4.14 4.14 0 0 1-4.138-4.139z" class="st11"/><path d="m135.099 258.43-9.117.017-1.802 1.592.07 15.102s.252 1.685 1.668 1.998 7.886.188 8.98.188 1.87-1.742 1.87-1.742-.084-13.884-.012-15.086-1.656-2.071-1.656-2.071z" class="st15"/><path d="M124.207 275.297c-.028 1.192 1.443 1.822 1.443 1.822l.95.093-.95-1.119v-16.512l.998-1.151-.998.148-1.339 1.171s-.075 14.356-.104 15.548" class="st16"/><path d="M135.637 259.946h-8.932v15.933h9.028z" class="st17"/><path d="M130.828 259.995c-.102.367.113.767.43.978.318.211.712.268 1.093.278.382.01.766-.019 1.141.044a.6.6 0 0 1 .288.105.6.6 0 0 1 .179.256c.27.631.095 1.359.192 2.039.027.179.073.359.172.51.272.415.87.498 1.34.337v-4.596zm4.734 5.735c-.376-.033-.719.256-.87.601-.153.345-.156.734-.156 1.111l-.003 1.646c0 .42 0 .855.163 1.244.163.388.528.723.95.716l-.081-5.316z" class="st18"/><path d="M134.685 277.425h-8.364a2.286 2.286 0 0 1-2.284-2.284V260.5a2.286 2.286 0 0 1 2.284-2.284h8.364a2.286 2.286 0 0 1 2.284 2.284v14.641a2.287 2.287 0 0 1-2.284 2.284m-8.364-18.783a1.86 1.86 0 0 0-1.858 1.858v14.641a1.86 1.86 0 0 0 1.858 1.858h8.364a1.86 1.86 0 0 0 1.858-1.858V260.5a1.86 1.86 0 0 0-1.858-1.858z" class="st14"/><path d="M127.552 277.425a2.286 2.286 0 0 1-2.284-2.284V260.5a2.286 2.286 0 0 1 2.284-2.284.213.213 0 0 1 0 .426 1.86 1.86 0 0 0-1.858 1.858v14.641a1.86 1.86 0 0 0 1.858 1.858.213.213 0 0 1 0 .426" class="st14"/><path d="M135.274 276.098h-8.125a.64.64 0 0 1-.639-.639v-15.123a.64.64 0 0 1 .639-.639h8.125c.353 0 .639.286.639.639v15.123a.64.64 0 0 1-.639.639m-8.125-15.975a.214.214 0 0 0-.213.213v15.123c0 .117.096.213.213.213h8.125a.213.213 0 0 0 .213-.213v-15.123a.214.214 0 0 0-.213-.213z" class="st14"/><path d="M143.653 261.03h-14.314c-.592 0-1.072.48-1.072 1.072v7.554c0 .592.48 1.071 1.072 1.071h14.314c.592 0 1.072-.479 1.072-1.071v-7.554c0-.592-.48-1.072-1.072-1.072" class="st12"/><path d="M143.468 270.891h-13.99c-.824 0-1.494-.67-1.494-1.494v-7.132c0-.823.67-1.493 1.494-1.493h13.99c.824 0 1.494.67 1.494 1.493v7.132c0 .824-.67 1.494-1.494 1.494m-13.99-9.694c-.589 0-1.068.479-1.068 1.067v7.132a1.07 1.07 0 0 0 1.068 1.068h13.99a1.07 1.07 0 0 0 1.068-1.068v-7.132c0-.589-.479-1.067-1.068-1.067z" class="st14"/><path d="m131.995 269.307-2.24-.003a.21.21 0 0 1-.212-.213c0-.118.095-.213.213-.213l2.239.003c.118 0 .213.096.212.213a.21.21 0 0 1-.212.213m3.263.003-2.237-.003a.21.21 0 0 1-.212-.213c0-.118.095-.213.213-.213l2.237.003a.213.213 0 0 1-.001.426" class="st14"/><path d="M133.131 266.344v-1.824c.001-.096-.178-.173-.399-.173h-1.458a.7.7 0 0 0-.316.065l-.498.273q-.082.046-.084.106v1.325q0 .055.07.098l.372.23a.66.66 0 0 0 .33.074h1.582c.221-.002.399-.079.401-.173z" class="st1"/><path d="M143.069 262.445h-5.881a.59.59 0 0 0-.592.591v1.021c0 .326.265.591.592.591h5.881a.59.59 0 0 0 .591-.591v-1.021a.59.59 0 0 0-.591-.591" class="st2"/><circle cx="131.484" cy="273.035" r="1.461" class="st14"/><path d="M132.271 272.311a.22.22 0 0 1 .046.307l-.953 1.291-.685-.626a.219.219 0 1 1 .295-.324l.326.298.665-.9a.22.22 0 0 1 .306-.046" class="st19"/><path d="M155.652 264.888h-1.172l-1.855-5.432h1.149l1.327 4.051 1.28-4.051h1.125zm2.818-4.408a.553.553 0 0 1-.567-.558c0-.311.241-.551.567-.551s.566.24.566.551c0 .31-.241.558-.566.558m.519 4.408h-1.047v-3.826h1.047zm1.994 0h-1.048v-3.826h.985v.559c.225-.442.567-.605.924-.605.093 0 .225.007.31.031v.97a2.4 2.4 0 0 0-.388-.031c-.496 0-.783.326-.783 1.024zm3.249.078c-.838 0-1.172-.451-1.172-1.071v-1.964h-.535v-.869h.217q.35 0 .349-.349v-.691h1.017v1.04h.792v.869h-.792v1.715c0 .287.085.427.396.427.163 0 .264-.031.396-.07v.862a2.5 2.5 0 0 1-.668.101m2.676 0c-.923 0-1.389-.489-1.389-1.646v-2.258h1.04v2.181c0 .628.217.838.644.838.45 0 .714-.326.714-.947v-2.072h1.047v3.826h-.985v-.481c-.256.38-.613.559-1.071.559m4.629-3.989c1.141 0 1.638.473 1.638 1.606v2.305h-.986v-.497c-.225.334-.597.59-1.141.59-.822 0-1.334-.419-1.334-1.11 0-.783.667-1.202 1.691-1.202.295 0 .513.023.73.069v-.302c0-.474-.21-.675-.636-.675-.412 0-.629.217-.652.52h-1.04c.077-.885.799-1.304 1.73-1.304m-.201 3.213c.419 0 .799-.295.799-.761v-.046a2.1 2.1 0 0 0-.636-.078c-.466 0-.745.147-.745.466 0 .263.178.419.582.419m3.834.745c-.761 0-1.094-.342-1.094-1.033v-4.446h1.047v4.206c0 .271.07.396.318.396.039 0 .086 0 .132-.008v.838c-.1.023-.225.047-.403.047m4.628.046c-1.141 0-1.886-.784-1.886-2.01 0-1.21.769-1.994 1.917-1.994.939 0 1.661.473 1.785 1.443h-1.063c-.132-.388-.38-.574-.753-.574-.52 0-.846.404-.846 1.125 0 .722.318 1.133.846 1.133.38 0 .66-.209.768-.636h1.056c-.156.947-.854 1.513-1.824 1.513m4.008-4.004c1.141 0 1.638.473 1.638 1.606v2.305h-.986v-.497c-.225.334-.597.59-1.141.59-.822 0-1.334-.419-1.334-1.11 0-.783.667-1.202 1.691-1.202.295 0 .513.023.73.069v-.302c0-.474-.21-.675-.636-.675-.412 0-.629.217-.652.52h-1.04c.077-.885.799-1.304 1.73-1.304m-.201 3.213c.419 0 .799-.295.799-.761v-.046a2.1 2.1 0 0 0-.636-.078c-.466 0-.745.147-.745.466 0 .263.178.419.582.419m3.787.698h-1.047v-3.826h.985v.559c.225-.442.567-.605.924-.605.093 0 .225.007.31.031v.97a2.4 2.4 0 0 0-.388-.031c-.497 0-.784.326-.784 1.024zm3.186.093c-1.04 0-1.708-.784-1.708-2.01 0-1.21.699-1.994 1.708-1.994.442 0 .776.147 1.047.442v-1.963h1.04v5.432h-.978v-.442c-.31.357-.659.535-1.109.535m.201-.877c.551 0 .877-.403.877-1.133 0-.721-.326-1.125-.877-1.125-.543 0-.869.404-.869 1.125 0 .73.326 1.133.869 1.133" class="st6"/><path d="M153.868 276.957h-.653v-4.707h.653zm1.679 0h-.625v-3.302h.599v.431c.255-.357.551-.505 1.008-.505.767 0 1.15.431 1.15 1.359v2.017h-.625v-1.963c0-.592-.195-.841-.666-.841-.598 0-.841.403-.841 1.076zm4.235.074c-.813 0-1.304-.37-1.398-1.062h.638c.074.383.337.538.774.538.471 0 .726-.121.726-.437 0-.249-.168-.377-.625-.485l-.289-.067c-.801-.188-1.117-.477-1.117-.982 0-.612.471-.955 1.251-.955.8 0 1.285.357 1.352 1.016h-.639c-.054-.357-.296-.491-.699-.491-.411 0-.639.107-.639.397 0 .235.154.363.591.464l.296.067c.801.181 1.144.471 1.144.995 0 .639-.511 1.002-1.366 1.002m3.13-.02c-.665 0-.894-.336-.894-.874v-1.917h-.498v-.565h.195c.209 0 .303-.094.303-.302v-.612h.625v.914h.754v.565h-.754v1.782c0 .283.068.437.424.437.128 0 .215-.013.33-.047v.552c-.162.04-.323.067-.485.067m2.371-3.43c.854 0 1.311.377 1.311 1.332v2.044h-.598v-.457a1.18 1.18 0 0 1-1.029.531c-.666 0-1.137-.343-1.137-.928 0-.679.572-1.029 1.419-1.029.249 0 .471.02.72.074v-.336c0-.498-.256-.693-.7-.693-.45 0-.679.195-.726.538h-.632c.054-.692.619-1.076 1.372-1.076m-.195 2.926c.471 0 .881-.343.881-.821v-.054a2.7 2.7 0 0 0-.7-.087c-.504 0-.807.161-.807.504 0 .29.195.458.626.458m3.102.45h-.625v-3.302h.598v.431c.256-.357.552-.505 1.009-.505.767 0 1.15.431 1.15 1.359v2.017h-.625v-1.963c0-.592-.195-.841-.666-.841-.599 0-.841.403-.841 1.076zm4.114.054c-.666 0-.894-.336-.894-.874v-1.917h-.498v-.565h.195c.209 0 .303-.094.303-.302v-.612h.625v.914h.753v.565h-.753v1.782c0 .283.067.437.424.437.128 0 .215-.013.329-.047v.552c-.161.04-.322.067-.484.067m4.242-3.43c.855 0 1.312.377 1.312 1.332v2.044h-.599v-.457a1.18 1.18 0 0 1-1.029.531c-.666 0-1.136-.343-1.136-.928 0-.679.571-1.029 1.419-1.029.249 0 .471.02.719.074v-.336c0-.498-.255-.693-.699-.693-.451 0-.679.195-.726.538h-.633c.054-.692.619-1.076 1.372-1.076m-.195 2.926c.471 0 .881-.343.881-.821v-.054a2.6 2.6 0 0 0-.699-.087c-.504 0-.807.161-.807.504 0 .29.195.458.625.458m3.103.45h-.626v-3.302h.599v.431c.256-.357.551-.505 1.009-.505.766 0 1.15.431 1.15 1.359v2.017h-.626v-1.963c0-.592-.195-.841-.665-.841-.599 0-.841.403-.841 1.076zm4.329.074c-.888 0-1.466-.679-1.466-1.728 0-1.043.592-1.722 1.466-1.722.437 0 .72.135 1.009.478v-1.809h.625v4.707h-.598v-.444c-.31.364-.599.518-1.036.518m.087-.565c.592 0 .935-.403.935-1.163s-.343-1.157-.935-1.157c-.585 0-.934.397-.934 1.157s.349 1.163.934 1.163m5.143.491h-.619v-2.737h-.498v-.565h.491v-.578c0-.572.357-.901.982-.901q.212.002.404.053v.565a1 1 0 0 0-.296-.047c-.303 0-.464.101-.464.431v.477h.692v.565h-.692zm2.097.041c-.592 0-.821-.269-.821-.801v-3.947h.626v3.82c0 .262.08.376.316.376q.069.002.148-.007v.525c-.074.02-.175.034-.269.034m3.664-1.796v.222H192.4c.034.713.41 1.056.935 1.056.41 0 .639-.148.78-.484h.646c-.242.739-.807 1.035-1.426 1.035-.928 0-1.574-.679-1.574-1.728 0-1.143.693-1.722 1.554-1.722.894 0 1.459.679 1.459 1.621m-2.354-.249h1.702c-.04-.565-.33-.834-.807-.834s-.807.263-.895.834m3.327 2.004h-.706l1.123-1.694-1.063-1.608h.72l.713 1.117.706-1.117h.706l-1.069 1.594 1.13 1.708h-.72l-.78-1.217zm3.166-3.954a.36.36 0 0 1-.363-.37c0-.202.155-.363.363-.363.209 0 .363.161.363.363 0 .208-.154.37-.363.37m.31 3.954h-.626v-3.302h.626zm2.637.074c-.444 0-.733-.148-1.029-.504v.43h-.598v-4.707h.625v1.829c.289-.35.578-.498 1.009-.498.888 0 1.466.679 1.466 1.722 0 1.049-.578 1.728-1.473 1.728m-.081-.565c.586 0 .935-.403.935-1.163s-.349-1.157-.935-1.157c-.591 0-.934.397-.934 1.157s.343 1.163.934 1.163m3.149.532c-.592 0-.82-.269-.82-.801v-3.947h.625v3.82c0 .262.081.376.316.376q.069.002.148-.007v.525c-.074.02-.175.034-.269.034m3.665-1.796v.222h-2.374c.033.713.41 1.056.934 1.056.411 0 .639-.148.781-.484h.645c-.242.739-.807 1.035-1.426 1.035-.928 0-1.573-.679-1.573-1.728 0-1.143.692-1.722 1.553-1.722.895 0 1.46.679 1.46 1.621m-2.354-.249h1.701c-.04-.565-.329-.834-.807-.834-.477 0-.807.263-.894.834" class="st9"/><path d="M270.919 272.276a1.034 1.034 0 0 0 1.463 0l4.353-4.353-4.353-4.353a1.034 1.034 0 1 0-1.463 1.463l2.89 2.89-2.89 2.889a1.036 1.036 0 0 0 0 1.464" class="st5"/></svg>