<?xml version="1.0" encoding="utf-8"?>
<!-- Generator: Adobe Illustrator 28.1.0, SVG Export Plug-In . SVG Version: 6.00 Build 0)  -->
<svg version="1.1" id="Layer_1" xmlns="http://www.w3.org/2000/svg" xmlns:xlink="http://www.w3.org/1999/xlink" x="0px" y="0px"
	 viewBox="0 0 400 328" style="enable-background:new 0 0 400 328;" xml:space="preserve">
<style type="text/css">
	.st0{fill:none;}
	.st1{fill:#085239;}
	.st2{fill:#03D47C;}
	.st3{fill:#FFFAF0;}
	.st4{fill:#061B09;}
	.st5{fill-rule:evenodd;clip-rule:evenodd;fill:#8B9C8F;}
	.st6{fill:#E7ECE9;}
	.st7{fill:#1A3D32;}
	.st8{clip-path:url(#SVGID_00000030445765655168227300000013207561837566629542_);}
	.st9{fill:#AFBBB0;}
	.st10{fill-rule:evenodd;clip-rule:evenodd;fill:#E7ECE9;}
	.st11{fill:#072419;}
	.st12{fill:#008C59;}
	.st13{fill:#E3A171;}
	.st14{fill:#002140;}
	.st15{fill:#CF4CD9;}
	.st16{fill:#49225B;}
	.st17{fill:#FED607;}
	.st18{fill:#FFF2B2;}
	.st19{fill-rule:evenodd;clip-rule:evenodd;fill:#FED607;}
</style>
<g>
	<rect class="st0" width="400" height="328"/>
</g>
<g>
	<rect class="st1" width="400" height="328"/>
</g>
<g>
	<path class="st2" d="M82.264,50.063c-1.87,0-2.992-0.22-2.992-0.814c0-0.44,0.528-0.638,1.518-0.704
		c0.352-0.11,0.506-1.144,0.66-2.31l0.99-8.184c0.154-1.232,0.242-2.2-0.022-2.31c-0.99-0.066-1.408-0.242-1.408-0.616
		c0-0.682,1.166-0.924,3.234-0.924c1.892,0,2.97,0.198,2.97,0.792c0,0.462-0.506,0.66-1.584,0.726
		c-0.286,0.11-0.462,1.034-0.638,2.332l-0.99,8.184c-0.154,1.276-0.198,2.178,0.066,2.288c0.968,0.066,1.408,0.242,1.408,0.616
		C85.476,49.821,84.332,50.063,82.264,50.063z M90.933,50.283c-2.596,0-4.444-1.254-4.444-2.552c0-0.638,0.396-1.056,0.946-1.056
		c0.66,0,0.946,0.616,1.188,0.99c0.682,1.034,1.474,1.386,2.42,1.386c1.188,0,2.046-0.66,2.046-1.65c0-1.21-1.056-1.452-2.75-2.244
		c-1.606-0.748-2.772-1.628-2.772-3.234c0-1.848,1.672-3.212,4.224-3.212c2.222,0,4.07,1.1,4.07,2.354c0,0.572-0.33,0.99-0.902,0.99
		c-0.682,0-0.836-0.594-1.364-1.21c-0.506-0.616-1.122-0.902-1.87-0.902c-1.034,0-1.848,0.616-1.848,1.518
		c0,0.858,0.528,1.232,2.42,2.09c1.562,0.726,3.168,1.474,3.168,3.432C95.465,49.007,93.617,50.283,90.933,50.283z M100.924,50.283
		c-2.596,0-4.444-1.254-4.444-2.552c0-0.638,0.396-1.056,0.946-1.056c0.66,0,0.946,0.616,1.188,0.99
		c0.682,1.034,1.474,1.386,2.42,1.386c1.188,0,2.046-0.66,2.046-1.65c0-1.21-1.056-1.452-2.75-2.244
		c-1.606-0.748-2.772-1.628-2.772-3.234c0-1.848,1.672-3.212,4.224-3.212c2.222,0,4.07,1.1,4.07,2.354c0,0.572-0.33,0.99-0.902,0.99
		c-0.682,0-0.836-0.594-1.364-1.21c-0.506-0.616-1.122-0.902-1.87-0.902c-1.034,0-1.848,0.616-1.848,1.518
		c0,0.858,0.528,1.232,2.42,2.09c1.562,0.726,3.168,1.474,3.168,3.432C105.456,49.007,103.608,50.283,100.924,50.283z
		 M110.914,50.283c-1.826,0-2.926-1.122-2.926-3.234c0-0.396,0.022-0.77,0.066-1.012l0.33-2.75c0.132-0.99,0.264-2.288-0.022-2.486
		c-0.902-0.066-1.298-0.242-1.298-0.594c0-0.264,0.22-0.44,0.506-0.594c0.726-0.396,2.31-0.704,2.838-0.704
		c0.484,0,0.792,0.286,0.792,0.792c0,0.286-0.11,0.99-0.374,3.102l-0.308,2.42c-0.044,0.396-0.088,0.88-0.088,1.232
		c0,1.21,0.396,2.09,1.628,2.09c1.298,0,2.904-1.232,3.256-4.07l0.154-1.188c0.11-0.968,0.264-2.288-0.022-2.486
		c-0.88-0.066-1.276-0.242-1.276-0.594c0-0.264,0.22-0.44,0.506-0.594c0.66-0.352,2.222-0.704,2.794-0.704
		c0.484,0,0.792,0.308,0.792,0.792c0,0.286-0.132,1.078-0.374,3.124l-0.374,3.014c-0.132,0.99-0.264,2.244,0.044,2.442
		c0.924,0.066,1.276,0.22,1.276,0.55c0,0.286-0.242,0.484-0.506,0.594c-0.66,0.374-2.222,0.704-2.772,0.704
		c-0.506,0-0.792-0.374-0.792-0.792c0-0.198,0.066-0.572,0.198-1.606C114.06,49.359,112.52,50.283,110.914,50.283z M124.653,50.283
		c-2.75,0-4.488-1.914-4.488-4.752c0-3.542,2.706-6.798,6.182-6.798c2.112,0,3.322,1.166,3.322,2.552
		c0,1.826-2.002,3.366-6.182,3.894l-1.034,0.154c0.242,1.782,1.386,2.882,3.146,2.882c1.496,0,2.464-0.88,3.102-1.452
		c0.264-0.242,0.44-0.374,0.66-0.374s0.374,0.176,0.374,0.462c0,0.396-0.33,0.99-0.88,1.562
		C128.041,49.315,126.567,50.283,124.653,50.283z M122.409,44.321l0.638-0.11c3.146-0.484,4.576-1.65,4.576-2.926
		c0-0.77-0.616-1.32-1.606-1.32C124.213,39.965,122.541,41.901,122.409,44.321z M139.982,50.283c-1.826,0-2.926-1.122-2.926-3.234
		c0-0.396,0.022-0.77,0.066-1.012l0.33-2.75c0.132-0.99,0.264-2.288-0.022-2.486c-0.902-0.066-1.298-0.242-1.298-0.594
		c0-0.264,0.22-0.44,0.506-0.594c0.726-0.396,2.31-0.704,2.838-0.704c0.484,0,0.792,0.286,0.792,0.792
		c0,0.286-0.11,0.99-0.374,3.102l-0.308,2.42c-0.044,0.396-0.088,0.88-0.088,1.232c0,1.21,0.396,2.09,1.628,2.09
		c1.298,0,2.904-1.232,3.256-4.07l0.154-1.188c0.11-0.968,0.264-2.288-0.022-2.486c-0.88-0.066-1.276-0.242-1.276-0.594
		c0-0.264,0.22-0.44,0.506-0.594c0.66-0.352,2.222-0.704,2.794-0.704c0.484,0,0.792,0.308,0.792,0.792
		c0,0.286-0.132,1.078-0.374,3.124l-0.374,3.014c-0.132,0.99-0.264,2.244,0.044,2.442c0.924,0.066,1.276,0.22,1.276,0.55
		c0,0.286-0.242,0.484-0.506,0.594c-0.66,0.374-2.222,0.704-2.772,0.704c-0.506,0-0.792-0.374-0.792-0.792
		c0-0.198,0.066-0.572,0.198-1.606C143.128,49.359,141.588,50.283,139.982,50.283z M157.968,50.129
		c-0.484,0-0.792-0.308-0.792-0.792c0-0.264,0.132-1.034,0.374-3.08l0.308-2.42c0.044-0.418,0.088-0.902,0.088-1.276
		c0-1.166-0.418-2.068-1.606-2.068c-1.32,0-2.97,1.254-3.3,4.07l-0.55,4.598c-0.088,0.638-0.55,0.902-1.408,0.902
		c-0.682,0-0.99-0.264-0.99-0.814c0-0.198,0.088-0.66,0.176-1.452l0.572-4.554c0.11-0.968,0.198-2.398-0.088-2.508
		c-0.858-0.022-1.276-0.176-1.276-0.528c0-0.264,0.242-0.44,0.528-0.594c0.77-0.418,2.288-0.704,2.816-0.704
		c0.462,0,0.748,0.352,0.748,0.77c0,0.176-0.044,0.55-0.198,1.76c0.902-1.694,2.464-2.662,4.158-2.662c1.782,0,2.882,1.1,2.882,3.19
		c0,0.418-0.044,0.792-0.066,1.034l-0.352,2.75c-0.11,1.034-0.242,2.354,0.066,2.53c0.88,0.044,1.254,0.176,1.254,0.528
		c0,0.308-0.264,0.484-0.528,0.616C160.058,49.799,158.584,50.129,157.968,50.129z M163.807,50.129
		c-0.484,0-0.748-0.308-0.748-0.792c0-0.242,0.066-0.704,0.396-3.454l0.968-7.744c0.11-0.968,0.176-2.354-0.066-2.442
		c-0.924-0.044-1.386-0.264-1.386-0.616c0-0.286,0.264-0.44,0.528-0.572c0.814-0.396,2.354-0.726,2.882-0.726
		s0.836,0.308,0.836,0.814c0,0.242-0.066,0.66-0.396,3.388l-0.968,7.788c-0.11,0.946-0.242,2.31,0.022,2.486
		c0.902,0.044,1.276,0.198,1.276,0.55c0,0.308-0.242,0.484-0.506,0.616C165.919,49.821,164.401,50.129,163.807,50.129z
		 M170.242,50.129c-0.484,0-0.748-0.308-0.748-0.792c0-0.242,0.044-0.704,0.396-3.454l0.33-2.64c0.176-1.386,0.198-2.31-0.022-2.464
		c-0.858-0.044-1.276-0.22-1.276-0.572c0-0.264,0.242-0.462,0.506-0.594c0.77-0.418,2.332-0.704,2.816-0.704
		s0.792,0.308,0.792,0.814c0,0.242-0.066,0.66-0.418,3.454l-0.352,2.596c-0.154,1.232-0.242,2.266,0.044,2.464
		c0.858,0.066,1.254,0.22,1.254,0.572c0,0.308-0.242,0.484-0.528,0.616C172.288,49.843,170.792,50.129,170.242,50.129z
		 M170.506,35.873c0-0.924,0.858-1.606,1.958-1.606c0.88,0,1.298,0.418,1.298,1.1c0,1.078-1.056,1.65-1.936,1.65
		C171.034,37.017,170.506,36.599,170.506,35.873z M190.371,50.129c-0.484,0-0.792-0.308-0.792-0.792c0-0.264,0.132-1.034,0.374-3.08
		l0.308-2.42c0.044-0.418,0.088-0.946,0.088-1.276c0-1.166-0.418-2.068-1.54-2.068c-1.254,0-2.816,1.21-3.124,4.048v-0.022
		l-0.572,4.642c-0.088,0.638-0.506,0.902-1.386,0.902c-0.704,0-0.99-0.264-0.99-0.814c0-0.198,0.066-0.66,0.154-1.452l0.506-3.96
		c0.066-0.418,0.088-0.946,0.088-1.276c0-1.166-0.418-2.068-1.518-2.068c-1.254,0-2.838,1.254-3.146,4.07l-0.55,4.598
		c-0.088,0.638-0.55,0.902-1.408,0.902c-0.682,0-0.99-0.264-0.99-0.814c0-0.198,0.088-0.66,0.176-1.452l0.572-4.554
		c0.11-0.946,0.198-2.376-0.088-2.508c-0.858-0.022-1.276-0.176-1.276-0.528c0-0.264,0.242-0.44,0.528-0.594
		c0.77-0.418,2.288-0.704,2.816-0.704c0.462,0,0.748,0.352,0.748,0.77c0,0.176-0.044,0.528-0.176,1.694
		c0.858-1.672,2.376-2.596,3.982-2.596c1.562,0,2.574,0.924,2.75,2.662c0.88-1.716,2.442-2.662,4.114-2.662
		c1.716,0,2.772,1.1,2.772,3.19c0,0.418-0.022,0.792-0.044,1.034l-0.352,2.75c-0.11,1.012-0.242,2.354,0.066,2.53
		c0.88,0.044,1.254,0.176,1.254,0.528c0,0.308-0.264,0.484-0.528,0.616C192.461,49.799,190.987,50.129,190.371,50.129z
		 M196.646,50.129c-0.484,0-0.748-0.308-0.748-0.792c0-0.242,0.044-0.704,0.396-3.454l0.33-2.64c0.176-1.386,0.198-2.31-0.022-2.464
		c-0.858-0.044-1.276-0.22-1.276-0.572c0-0.264,0.242-0.462,0.506-0.594c0.77-0.418,2.332-0.704,2.816-0.704
		s0.792,0.308,0.792,0.814c0,0.242-0.066,0.66-0.418,3.454l-0.352,2.596c-0.154,1.232-0.242,2.266,0.044,2.464
		c0.858,0.066,1.254,0.22,1.254,0.572c0,0.308-0.242,0.484-0.528,0.616C198.692,49.843,197.196,50.129,196.646,50.129z
		 M196.91,35.873c0-0.924,0.858-1.606,1.958-1.606c0.88,0,1.298,0.418,1.298,1.1c0,1.078-1.056,1.65-1.936,1.65
		C197.438,37.017,196.91,36.599,196.91,35.873z M205.115,50.129c-1.562,0-2.574-0.814-2.574-2.266c0-0.264,0.044-0.66,0.088-1.012
		l0.748-6.292h-0.682c-0.55,0-1.012-0.066-1.012-0.506c0-0.748,0.594-0.836,1.166-0.836h0.704l0.132-1.144
		c0.088-0.616,0.528-0.88,1.408-0.88c0.682,0,0.99,0.242,0.99,0.792c0,0.176-0.066,0.704-0.132,1.078l-0.022,0.154h2.86
		c0.528,0,1.012,0.022,1.012,0.506c0,0.726-0.594,0.836-1.188,0.836h-2.838l-0.682,5.412c-0.044,0.352-0.088,0.792-0.088,1.056
		c0,0.792,0.286,1.298,1.188,1.298c1.188,0,1.98-0.946,2.42-0.946c0.286,0,0.44,0.176,0.44,0.418
		C209.053,48.567,207.271,50.129,205.115,50.129z M214.308,50.283c-2.75,0-4.488-1.914-4.488-4.752c0-3.542,2.706-6.798,6.182-6.798
		c2.112,0,3.322,1.166,3.322,2.552c0,1.826-2.002,3.366-6.182,3.894l-1.034,0.154c0.242,1.782,1.386,2.882,3.146,2.882
		c1.496,0,2.464-0.88,3.102-1.452c0.264-0.242,0.44-0.374,0.66-0.374s0.374,0.176,0.374,0.462c0,0.396-0.33,0.99-0.88,1.562
		C217.696,49.315,216.222,50.283,214.308,50.283z M212.064,44.321l0.638-0.11c3.146-0.484,4.576-1.65,4.576-2.926
		c0-0.77-0.616-1.32-1.606-1.32C213.868,39.965,212.196,41.901,212.064,44.321z M224.303,50.261c-2.178,0-3.806-1.826-3.806-4.664
		c0-3.454,2.354-6.864,5.764-6.864c1.342,0,2.354,0.594,2.948,1.452l0.242-1.914c0.088-0.88,0.22-2.354-0.088-2.552
		c-1.056-0.066-1.518-0.242-1.518-0.638c0-0.242,0.22-0.44,0.528-0.594c0.77-0.374,2.486-0.704,3.08-0.704
		c0.55,0,0.792,0.33,0.792,0.77c0,0.374-0.176,1.496-0.484,4.004l-0.858,7.084c-0.11,0.968-0.22,2.398,0.088,2.596
		c0.924,0.066,1.32,0.198,1.32,0.572c0,0.286-0.22,0.462-0.528,0.616c-0.66,0.33-2.09,0.704-2.706,0.704
		c-0.572,0-0.836-0.33-0.836-0.814c0-0.242,0.044-0.616,0.154-1.518C227.515,49.249,225.975,50.261,224.303,50.261z M223.005,45.575
		c0,1.914,0.858,3.102,2.266,3.102c2.134,0,3.564-3.014,3.564-5.742c0-2.222-1.1-2.97-2.178-2.97
		C224.347,39.965,223.005,43.089,223.005,45.575z M243.14,50.283c-2.64,0-4.466-1.98-4.466-4.928c0-3.608,2.662-6.644,5.918-6.644
		c2.244,0,3.872,1.452,3.872,3.014c0,0.814-0.44,1.364-1.122,1.364c-0.77,0-1.056-0.704-1.298-1.584
		c-0.33-0.968-0.924-1.562-1.804-1.562c-1.738,0-3.19,1.826-3.19,4.466c0,2.354,1.188,3.784,3.08,3.784
		c1.386,0,2.288-0.88,3.014-1.54c0.264-0.286,0.44-0.462,0.682-0.462s0.396,0.198,0.396,0.462c0,0.484-0.44,1.188-0.99,1.782
		C246.418,49.337,244.966,50.283,243.14,50.283z M253.134,50.261c-2.156,0-3.762-1.76-3.762-4.532c0-3.63,2.574-6.996,5.962-6.996
		c1.342,0,2.398,0.55,3.124,1.364c0.506-0.66,1.034-1.21,1.54-1.21c0.374,0,0.572,0.242,0.572,0.572
		c0,0.396-0.264,1.364-0.528,3.388l-0.374,2.728c-0.154,1.122-0.22,2.442,0.088,2.64c0.88,0.066,1.298,0.22,1.298,0.594
		c0,0.264-0.198,0.462-0.528,0.616c-0.66,0.352-2.156,0.704-2.662,0.704c-0.616,0-0.88-0.44-0.88-0.902
		c0-0.242,0.066-0.704,0.198-1.65C256.368,49.139,254.938,50.261,253.134,50.261z M251.88,45.641c0,1.892,0.792,3.058,2.178,3.058
		c2.09,0,3.586-3.102,3.586-6.204c0-1.518-0.748-2.574-2.112-2.574C253.552,39.921,251.88,42.759,251.88,45.641z M264.132,50.063
		c-0.682,0-0.99-0.264-0.99-0.814c0-0.198,0.088-0.66,0.176-1.452l0.572-4.554c0.11-0.946,0.198-2.398-0.088-2.508
		c-0.858-0.022-1.276-0.176-1.276-0.528c0-0.264,0.242-0.44,0.528-0.594c0.77-0.396,2.222-0.704,2.75-0.704
		c0.418,0,0.682,0.352,0.682,0.77c0,0.176-0.022,0.55-0.154,1.782c0.814-1.76,2.156-2.684,3.212-2.684
		c1.034,0,1.628,0.748,1.628,1.606c0,0.902-0.55,1.452-1.188,1.452c-0.484,0-0.792-0.264-1.012-0.55
		c-0.154-0.176-0.352-0.33-0.594-0.33c-0.66,0-2.002,1.232-2.288,3.696v-0.022l-0.55,4.532
		C265.452,49.799,264.99,50.063,264.132,50.063z M274.835,50.261c-2.178,0-3.806-1.826-3.806-4.664c0-3.454,2.354-6.864,5.764-6.864
		c1.342,0,2.354,0.594,2.948,1.452l0.242-1.914c0.088-0.88,0.22-2.354-0.088-2.552c-1.056-0.066-1.518-0.242-1.518-0.638
		c0-0.242,0.22-0.44,0.528-0.594c0.77-0.374,2.486-0.704,3.08-0.704c0.55,0,0.792,0.33,0.792,0.77c0,0.374-0.176,1.496-0.484,4.004
		l-0.858,7.084c-0.11,0.968-0.22,2.398,0.088,2.596c0.924,0.066,1.32,0.198,1.32,0.572c0,0.286-0.22,0.462-0.528,0.616
		c-0.66,0.33-2.09,0.704-2.706,0.704c-0.572,0-0.836-0.33-0.836-0.814c0-0.242,0.044-0.616,0.154-1.518
		C278.047,49.249,276.507,50.261,274.835,50.261z M273.537,45.575c0,1.914,0.858,3.102,2.266,3.102c2.134,0,3.564-3.014,3.564-5.742
		c0-2.222-1.1-2.97-2.178-2.97C274.879,39.965,273.537,43.089,273.537,45.575z M288.074,50.283c-2.596,0-4.444-1.254-4.444-2.552
		c0-0.638,0.396-1.056,0.946-1.056c0.66,0,0.946,0.616,1.188,0.99c0.682,1.034,1.474,1.386,2.42,1.386
		c1.188,0,2.046-0.66,2.046-1.65c0-1.21-1.056-1.452-2.75-2.244c-1.606-0.748-2.772-1.628-2.772-3.234
		c0-1.848,1.672-3.212,4.224-3.212c2.222,0,4.07,1.1,4.07,2.354c0,0.572-0.33,0.99-0.902,0.99c-0.682,0-0.836-0.594-1.364-1.21
		c-0.506-0.616-1.122-0.902-1.87-0.902c-1.034,0-1.848,0.616-1.848,1.518c0,0.858,0.528,1.232,2.42,2.09
		c1.562,0.726,3.168,1.474,3.168,3.432C292.606,49.007,290.758,50.283,288.074,50.283z"/>
</g>
<g>
	<path class="st3" d="M303.332,50.129c-1.738,0-2.816-0.924-2.816-2.882l-0.022-6.71h-0.616c-0.418,0-0.814-0.176-0.814-0.616
		c0-0.572,0.726-1.21,1.452-1.848c0.66-0.55,1.276-1.034,1.804-1.034c0.374,0,0.594,0.242,0.594,0.726v1.386h3.08
		c0.704,0,1.056,0.132,1.056,0.66s-0.198,0.682-1.056,0.682h-3.08v5.874c0,1.342,0.352,1.914,1.43,1.914
		c1.276,0,2.024-0.946,2.508-0.946c0.242,0,0.418,0.198,0.418,0.506C307.27,48.611,305.576,50.129,303.332,50.129z M313.424,50.283
		c-3.388,0-5.698-2.398-5.698-5.742c0-3.432,2.552-5.83,6.072-5.83c3.366,0,5.698,2.398,5.698,5.742
		C319.496,47.951,316.878,50.283,313.424,50.283z M310.168,43.551c0,2.64,1.584,5.5,3.96,5.5c1.672,0,2.948-1.386,2.948-3.608
		c0-2.662-1.65-5.5-3.982-5.5C311.444,39.943,310.168,41.285,310.168,43.551z M64.498,72.093c0-2.09,1.892-3.52,4.686-3.52
		c0.858,0,1.694,0.154,2.464,0.352v-1.254c0-1.012-0.044-2.728-1.694-2.728c-0.858,0-1.562,0.594-2.288,1.474
		c-0.374,0.462-0.77,0.902-1.452,0.902c-0.55,0-0.946-0.352-0.946-0.858c0-1.166,2.882-2.728,5.258-2.728
		c2.244,0,3.542,1.21,3.542,3.454v4.136c0,1.254,0.066,2.068,1.386,2.354c0.132,0.022,0.176,0.088,0.176,0.22
		c0,0.506-0.638,1.188-1.782,1.188c-0.99,0-1.782-0.528-2.134-1.826c-0.814,1.32-2.134,2.002-3.652,2.002
		C65.928,75.261,64.498,73.941,64.498,72.093z M66.962,71.763c0,1.122,0.77,1.958,2.024,1.958c1.43,0,2.706-1.21,2.706-2.838v-0.66
		c-0.506-0.242-1.298-0.462-2.09-0.462C67.886,69.761,66.962,70.575,66.962,71.763z M86.982,75.063c-1.87,0-2.882-0.22-2.882-0.814
		c0-0.44,0.44-0.572,1.386-0.616c0.264-0.11,0.308-1.122,0.308-2.31v-2.486c0-2.332-0.682-3.344-2.288-3.344
		c-1.43,0-2.97,1.122-2.97,4.026v1.804c0,1.474,0.022,2.2,0.264,2.31c0.99,0.066,1.408,0.176,1.408,0.616
		c0,0.616-1.1,0.814-2.904,0.814c-1.76,0-2.772-0.22-2.772-0.814c0-0.44,0.462-0.572,1.298-0.616c0.242-0.11,0.286-0.77,0.286-2.31
		v-3.08c0-0.99-0.044-2.244-0.33-2.398c-1.122-0.066-1.408-0.308-1.408-0.616c0-0.22,0.11-0.396,0.44-0.572
		c0.814-0.418,2.376-0.748,2.97-0.748c0.638,0,0.77,0.396,0.77,1.21v1.298c0.726-1.694,2.244-2.662,4.048-2.662
		c1.98,0,3.608,1.166,3.608,4.158v3.41c0,1.672,0,2.2,0.242,2.31c0.88,0.066,1.32,0.176,1.32,0.616
		C89.776,74.865,88.676,75.063,86.982,75.063z M92.817,79.199c-1.342,0-2.266-0.88-2.266-1.892c0-0.858,0.572-1.474,1.342-1.474
		c0.748,0,1.166,0.484,1.232,1.188c0,0.198,0,0.374,0.022,0.528c0,0.154,0.11,0.286,0.33,0.286c0.594,0,1.012-0.616,1.364-1.628
		c0.176-0.55,0.044-1.078-0.572-2.376c-0.77-1.672-2.222-4.994-3.036-7.018c-0.396-0.99-0.55-1.298-0.77-1.386
		c-0.704-0.066-1.122-0.264-1.122-0.66c0-0.572,0.99-0.836,2.904-0.836c1.936,0,2.816,0.286,2.816,0.836
		c0,0.44-0.44,0.594-1.342,0.638c-0.176,0.198,0.044,1.144,0.352,2.068c0.572,1.628,1.584,3.806,2.288,5.258
		c0.704-1.694,1.496-4.092,1.87-5.478c0.198-0.682,0.418-1.65,0.198-1.892c-0.946-0.066-1.342-0.198-1.342-0.616
		c0-0.528,1.012-0.814,2.464-0.814c1.386,0,2.266,0.308,2.266,0.792c0,0.44-0.418,0.572-1.144,0.66
		c-0.396,0.198-0.616,0.682-0.968,1.672c-1.012,2.816-1.562,4.488-2.508,6.974C96.007,77.219,95.127,79.199,92.817,79.199z
		 M107.496,75.283c-3.388,0-5.698-2.398-5.698-5.742c0-3.432,2.552-5.83,6.072-5.83c3.366,0,5.698,2.398,5.698,5.742
		C113.568,72.951,110.95,75.283,107.496,75.283z M104.24,68.551c0,2.64,1.584,5.5,3.96,5.5c1.672,0,2.948-1.386,2.948-3.608
		c0-2.662-1.65-5.5-3.982-5.5C105.516,64.943,104.24,66.285,104.24,68.551z M125.246,75.063c-1.87,0-2.882-0.22-2.882-0.814
		c0-0.44,0.44-0.572,1.386-0.616c0.264-0.11,0.308-1.122,0.308-2.31v-2.486c0-2.332-0.682-3.344-2.288-3.344
		c-1.43,0-2.97,1.122-2.97,4.026v1.804c0,1.474,0.022,2.2,0.264,2.31c0.99,0.066,1.408,0.176,1.408,0.616
		c0,0.616-1.1,0.814-2.904,0.814c-1.76,0-2.772-0.22-2.772-0.814c0-0.44,0.462-0.572,1.298-0.616c0.242-0.11,0.286-0.77,0.286-2.31
		v-3.08c0-0.99-0.044-2.244-0.33-2.398c-1.122-0.066-1.408-0.308-1.408-0.616c0-0.22,0.11-0.396,0.44-0.572
		c0.814-0.418,2.376-0.748,2.97-0.748c0.638,0,0.77,0.396,0.77,1.21v1.298c0.726-1.694,2.244-2.662,4.048-2.662
		c1.98,0,3.608,1.166,3.608,4.158v3.41c0,1.672,0,2.2,0.242,2.31c0.88,0.066,1.32,0.176,1.32,0.616
		C128.04,74.865,126.94,75.063,125.246,75.063z M134.104,75.283c-3.102,0-5.192-2.266-5.192-5.544c0-3.564,2.508-6.006,5.566-6.006
		c2.772,0,4.51,1.936,4.51,3.85c0,0.968-0.484,1.65-1.342,1.65h-6.512c0.132,2.354,1.496,3.894,3.696,3.894
		c1.54,0,2.508-0.77,3.146-1.408c0.22-0.198,0.396-0.374,0.616-0.374c0.286,0,0.462,0.198,0.462,0.572
		c0,0.396-0.242,0.968-0.726,1.496C137.536,74.359,136.106,75.283,134.104,75.283z M131.2,68.023l4.554-0.044
		c0.704,0,1.078-0.242,1.078-0.858c0-1.166-0.946-2.222-2.486-2.222C132.652,64.899,131.464,66.131,131.2,68.023z M148.249,75.063
		c-1.76,0-2.772-0.22-2.772-0.814c0-0.44,0.44-0.572,1.276-0.616c0.264-0.11,0.286-0.836,0.286-2.31v-3.08
		c0-1.012-0.044-2.266-0.308-2.398c-1.122-0.066-1.408-0.308-1.408-0.616c0-0.242,0.11-0.418,0.44-0.572
		c0.77-0.418,2.354-0.77,2.97-0.77c0.66,0,0.77,0.418,0.77,1.21c0,0.748-0.044,1.98-0.044,3.564v2.662c0,1.474,0.022,2.2,0.264,2.31
		c0.858,0.066,1.298,0.176,1.298,0.616C151.021,74.865,149.943,75.063,148.249,75.063z M146.489,60.653
		c0-0.968,0.88-1.386,1.694-1.386c0.968,0,1.518,0.528,1.518,1.32c0,0.99-0.88,1.408-1.716,1.408
		C147.061,61.995,146.489,61.467,146.489,60.653z M162.479,75.063c-1.87,0-2.882-0.22-2.882-0.814c0-0.44,0.44-0.572,1.386-0.616
		c0.264-0.11,0.308-1.122,0.308-2.31v-2.486c0-2.332-0.682-3.344-2.288-3.344c-1.43,0-2.97,1.122-2.97,4.026v1.804
		c0,1.474,0.022,2.2,0.264,2.31c0.99,0.066,1.408,0.176,1.408,0.616c0,0.616-1.1,0.814-2.904,0.814c-1.76,0-2.772-0.22-2.772-0.814
		c0-0.44,0.462-0.572,1.298-0.616c0.242-0.11,0.286-0.77,0.286-2.31v-3.08c0-0.99-0.044-2.244-0.33-2.398
		c-1.122-0.066-1.408-0.308-1.408-0.616c0-0.22,0.11-0.396,0.44-0.572c0.814-0.418,2.376-0.748,2.97-0.748
		c0.638,0,0.77,0.396,0.77,1.21v1.298c0.726-1.694,2.244-2.662,4.048-2.662c1.98,0,3.608,1.166,3.608,4.158v3.41
		c0,1.672,0,2.2,0.242,2.31c0.88,0.066,1.32,0.176,1.32,0.616C165.273,74.865,164.173,75.063,162.479,75.063z M173.383,79.199
		c-1.342,0-2.266-0.88-2.266-1.892c0-0.858,0.572-1.474,1.342-1.474c0.748,0,1.166,0.484,1.232,1.188c0,0.198,0,0.374,0.022,0.528
		c0,0.154,0.11,0.286,0.33,0.286c0.594,0,1.012-0.616,1.364-1.628c0.176-0.55,0.044-1.078-0.572-2.376
		c-0.77-1.672-2.222-4.994-3.036-7.018c-0.396-0.99-0.55-1.298-0.77-1.386c-0.704-0.066-1.122-0.264-1.122-0.66
		c0-0.572,0.99-0.836,2.904-0.836c1.936,0,2.816,0.286,2.816,0.836c0,0.44-0.44,0.594-1.342,0.638
		c-0.176,0.198,0.044,1.144,0.352,2.068c0.572,1.628,1.584,3.806,2.288,5.258c0.704-1.694,1.496-4.092,1.87-5.478
		c0.198-0.682,0.418-1.65,0.198-1.892c-0.946-0.066-1.342-0.198-1.342-0.616c0-0.528,1.012-0.814,2.464-0.814
		c1.386,0,2.266,0.308,2.266,0.792c0,0.44-0.418,0.572-1.144,0.66c-0.396,0.198-0.616,0.682-0.968,1.672
		c-1.012,2.816-1.562,4.488-2.508,6.974C176.573,77.219,175.693,79.199,173.383,79.199z M188.063,75.283
		c-3.388,0-5.698-2.398-5.698-5.742c0-3.432,2.552-5.83,6.072-5.83c3.366,0,5.698,2.398,5.698,5.742
		C194.135,72.951,191.517,75.283,188.063,75.283z M184.807,68.551c0,2.64,1.584,5.5,3.96,5.5c1.672,0,2.948-1.386,2.948-3.608
		c0-2.662-1.65-5.5-3.982-5.5C186.083,64.943,184.807,66.285,184.807,68.551z M200.181,75.283c-1.98,0-3.586-1.166-3.586-4.158
		v-2.97c0-0.99-0.044-2.332-0.33-2.486c-1.056-0.066-1.364-0.352-1.364-0.682c0-0.22,0.154-0.396,0.462-0.528
		c0.814-0.308,2.2-0.55,2.882-0.55s0.792,0.374,0.792,1.21c0,0.748-0.022,1.936-0.022,3.476v1.606c0,2.09,0.528,3.344,2.2,3.344
		c1.43,0,2.97-1.078,2.97-4.026v-1.364c0-1.012-0.066-2.332-0.33-2.486c-1.144-0.066-1.474-0.33-1.474-0.682
		c0-0.22,0.176-0.396,0.506-0.528c0.814-0.33,2.244-0.55,2.948-0.55c0.66,0,0.792,0.374,0.792,1.21c0,0.748-0.022,1.98-0.022,3.542
		v2.112c0,1.1,0.044,2.288,0.308,2.42c1.122,0.066,1.408,0.308,1.408,0.616c0,0.22-0.132,0.396-0.44,0.572
		c-0.814,0.396-2.376,0.748-2.97,0.748c-0.638,0-0.77-0.418-0.77-1.21c0-0.352,0-0.77,0.022-1.276
		C203.437,74.315,201.941,75.283,200.181,75.283z M212.036,75.063c-1.76,0-2.772-0.22-2.772-0.814c0-0.44,0.44-0.572,1.276-0.616
		c0.242-0.11,0.286-0.77,0.286-2.31v-3.058c0-0.99-0.044-2.266-0.33-2.42c-1.122-0.066-1.408-0.308-1.408-0.616
		c0-0.22,0.132-0.396,0.44-0.572c0.77-0.396,2.376-0.748,2.97-0.748c0.638,0,0.77,0.418,0.77,1.21v1.452
		c0.726-1.826,2.178-2.794,3.344-2.794c0.858,0,1.672,0.55,1.672,1.628c0,0.99-0.55,1.584-1.298,1.584
		c-0.506,0-0.814-0.242-1.078-0.528c-0.198-0.198-0.374-0.462-0.748-0.462c-0.726,0-1.914,1.144-1.914,3.168v2.156
		c0,1.452,0.066,2.178,0.308,2.288c1.232,0.066,1.694,0.198,1.694,0.638C215.248,74.865,214.104,75.063,212.036,75.063z
		 M234.938,75.173c-0.594,0-0.99-0.396-1.43-1.342c-0.418-0.88-1.056-2.662-1.672-4.312c-0.616,1.452-1.254,2.816-1.958,4.246
		c-0.506,1.012-0.88,1.408-1.474,1.408s-0.946-0.418-1.408-1.342c-0.726-1.386-2.2-5.236-2.926-6.996
		c-0.396-1.012-0.506-1.254-0.77-1.408c-0.704-0.066-1.122-0.264-1.122-0.66c0-0.572,0.99-0.836,2.904-0.836
		c1.738,0,2.706,0.286,2.706,0.836c0,0.44-0.418,0.594-1.254,0.638c-0.154,0.22,0.044,1.1,0.352,2.046
		c0.55,1.672,1.518,3.916,2.2,5.302c0.792-1.518,1.606-3.366,2.134-4.906c-0.132-0.396-0.286-0.748-0.396-1.056
		c-0.396-1.012-0.396-1.122-0.682-1.386c-0.66-0.044-1.034-0.242-1.034-0.638c0-0.55,1.012-0.836,2.772-0.836
		c1.738,0,2.684,0.286,2.684,0.836c0,0.44-0.484,0.594-1.364,0.638c-0.154,0.264,0.022,1.1,0.352,2.046
		c0.572,1.76,1.364,3.872,1.98,5.258c0.77-1.628,1.584-3.784,2.046-5.434c0.22-0.77,0.396-1.672,0.198-1.914
		c-0.99-0.066-1.474-0.22-1.474-0.616c0-0.55,1.034-0.814,2.552-0.814c1.32,0,2.222,0.308,2.222,0.792
		c0,0.44-0.352,0.572-1.034,0.66c-0.396,0.154-0.616,0.726-0.99,1.672c-1.012,2.772-2.09,5.412-2.706,6.754
		C235.906,74.777,235.554,75.173,234.938,75.173z M246.844,75.283c-3.388,0-5.698-2.398-5.698-5.742c0-3.432,2.552-5.83,6.072-5.83
		c3.366,0,5.698,2.398,5.698,5.742C252.916,72.951,250.298,75.283,246.844,75.283z M243.588,68.551c0,2.64,1.584,5.5,3.96,5.5
		c1.672,0,2.948-1.386,2.948-3.608c0-2.662-1.65-5.5-3.982-5.5C244.864,64.943,243.588,66.285,243.588,68.551z M256.938,75.063
		c-1.76,0-2.772-0.22-2.772-0.814c0-0.44,0.44-0.572,1.276-0.616c0.242-0.11,0.286-0.77,0.286-2.31v-3.058
		c0-0.99-0.044-2.266-0.33-2.42c-1.122-0.066-1.408-0.308-1.408-0.616c0-0.22,0.132-0.396,0.44-0.572
		c0.77-0.396,2.376-0.748,2.97-0.748c0.638,0,0.77,0.418,0.77,1.21v1.452c0.726-1.826,2.178-2.794,3.344-2.794
		c0.858,0,1.672,0.55,1.672,1.628c0,0.99-0.55,1.584-1.298,1.584c-0.506,0-0.814-0.242-1.078-0.528
		c-0.198-0.198-0.374-0.462-0.748-0.462c-0.726,0-1.914,1.144-1.914,3.168v2.156c0,1.452,0.066,2.178,0.308,2.288
		c1.232,0.066,1.694,0.198,1.694,0.638C260.15,74.865,259.006,75.063,256.938,75.063z M266.277,75.063
		c-1.782,0-2.794-0.22-2.794-0.814c0-0.44,0.44-0.572,1.276-0.616c0.264-0.11,0.308-0.77,0.308-2.332v-8.228
		c0-1.012-0.066-2.222-0.374-2.354c-1.166-0.044-1.496-0.308-1.496-0.616c0-0.242,0.132-0.418,0.44-0.572
		c0.88-0.418,2.486-0.77,3.102-0.77c0.638,0,0.77,0.418,0.77,1.21c0,0.77-0.022,1.936-0.022,3.498v5.61l1.364-1.122
		c0.836-0.726,1.54-1.364,1.914-1.804c0.286-0.352,0.396-0.66,0.242-0.77c-0.682-0.044-1.21-0.176-1.21-0.616
		c0-0.55,0.924-0.836,3.014-0.836c2.002,0,3.014,0.264,3.014,0.836c0,0.418-0.55,0.616-1.562,0.726
		c-0.836,0.154-1.298,0.506-3.498,2.354c1.1,1.826,2.2,3.696,3.19,4.972c0.462,0.594,0.682,0.748,0.902,0.814
		c1.188,0.044,1.606,0.176,1.606,0.572c0,0.55-0.924,0.858-2.332,0.858c-0.924,0-1.474-0.132-1.804-0.528
		c-0.66-0.704-2.024-3.058-3.322-5.236c-0.572,0.506-1.078,0.946-1.518,1.364v0.66c0,1.474,0.022,2.2,0.264,2.31
		c1.012,0.066,1.452,0.154,1.452,0.616C269.203,74.865,268.081,75.063,266.277,75.063z M281.939,75.261
		c-0.836,0-1.474-0.132-2.002-0.33c-0.33-0.11-0.616-0.264-0.814-0.264c-0.374,0-0.286,0.396-0.792,0.396
		c-0.814,0-1.562-1.826-1.562-3.102c0-0.726,0.198-1.056,0.55-1.056c0.418,0,0.572,0.55,0.902,1.122
		c0.66,1.122,2.002,2.046,3.476,2.046c1.21,0,2.354-0.528,2.354-1.694c0-1.364-1.43-1.54-3.014-1.87
		c-1.936-0.418-4.114-1.034-4.114-3.3c0-2.156,2.002-3.454,4.18-3.454c0.748,0,1.43,0.132,1.958,0.308
		c0.286,0.088,0.506,0.176,0.704,0.176c0.33,0,0.286-0.33,0.704-0.33c0.704,0,1.496,1.716,1.496,2.882
		c0,0.66-0.286,0.946-0.594,0.946c-0.374,0-0.594-0.374-0.902-0.968c-0.572-1.1-1.848-1.826-3.146-1.826
		c-1.254,0.022-2.112,0.704-2.112,1.65c0,1.166,1.232,1.342,2.816,1.65c1.958,0.418,4.312,1.034,4.312,3.542
		C286.339,73.919,284.403,75.261,281.939,75.261z M290.256,79.155c-1.804,0-2.816-0.22-2.816-0.792c0-0.44,0.462-0.572,1.32-0.638
		c0.242-0.088,0.286-0.77,0.286-2.31v-7.172c0-0.946-0.044-2.222-0.33-2.398c-1.122-0.066-1.408-0.308-1.408-0.616
		c0-0.22,0.11-0.396,0.44-0.572c0.77-0.396,2.376-0.748,2.97-0.748c0.616,0,0.77,0.396,0.77,1.21c0,0.286,0,0.726-0.022,1.298
		c0.682-1.584,2.31-2.684,4.136-2.684c2.53,0,4.488,2.178,4.488,5.566c0,3.41-2.156,5.962-5.258,5.962
		c-1.408,0-2.596-0.55-3.366-1.276v1.43c0,1.386,0.066,2.178,0.352,2.31c1.276,0.088,1.716,0.198,1.716,0.638
		C293.534,78.979,292.412,79.155,290.256,79.155z M291.4,70.003c0,2.904,1.364,4.048,2.992,4.048c1.936,0,3.124-1.672,3.124-4.312
		c0-2.684-1.21-4.334-2.948-4.334C293.05,65.405,291.4,66.725,291.4,70.003z M301.17,72.093c0-2.09,1.892-3.52,4.686-3.52
		c0.858,0,1.694,0.154,2.464,0.352v-1.254c0-1.012-0.044-2.728-1.694-2.728c-0.858,0-1.562,0.594-2.288,1.474
		c-0.374,0.462-0.77,0.902-1.452,0.902c-0.55,0-0.946-0.352-0.946-0.858c0-1.166,2.882-2.728,5.258-2.728
		c2.244,0,3.542,1.21,3.542,3.454v4.136c0,1.254,0.066,2.068,1.386,2.354c0.132,0.022,0.176,0.088,0.176,0.22
		c0,0.506-0.638,1.188-1.782,1.188c-0.99,0-1.782-0.528-2.134-1.826c-0.814,1.32-2.134,2.002-3.652,2.002
		C302.6,75.261,301.17,73.941,301.17,72.093z M303.634,71.763c0,1.122,0.77,1.958,2.024,1.958c1.43,0,2.706-1.21,2.706-2.838v-0.66
		c-0.506-0.242-1.298-0.462-2.09-0.462C304.558,69.761,303.634,70.575,303.634,71.763z M318.374,75.283
		c-3.036,0-5.148-2.354-5.148-5.632c0-3.3,2.31-5.94,5.5-5.94c2.662,0,4.378,1.892,4.378,3.278c0,0.704-0.418,1.188-1.078,1.188
		c-0.836,0-1.078-0.814-1.518-1.76c-0.33-0.704-0.836-1.518-2.09-1.518c-1.76,0-2.86,1.672-2.86,3.806c0,2.618,1.43,4.4,3.608,4.4
		c1.562,0,2.486-0.924,3.08-1.518c0.264-0.264,0.418-0.418,0.66-0.418c0.264,0,0.44,0.198,0.44,0.572c0,0.418-0.264,1.078-0.77,1.65
		C321.828,74.293,320.376,75.283,318.374,75.283z M329.633,75.283c-3.102,0-5.192-2.266-5.192-5.544
		c0-3.564,2.508-6.006,5.566-6.006c2.772,0,4.51,1.936,4.51,3.85c0,0.968-0.484,1.65-1.342,1.65h-6.512
		c0.132,2.354,1.496,3.894,3.696,3.894c1.54,0,2.508-0.77,3.146-1.408c0.22-0.198,0.396-0.374,0.616-0.374
		c0.286,0,0.462,0.198,0.462,0.572c0,0.396-0.242,0.968-0.726,1.496C333.065,74.359,331.635,75.283,329.633,75.283z M326.729,68.023
		l4.554-0.044c0.704,0,1.078-0.242,1.078-0.858c0-1.166-0.946-2.222-2.486-2.222C328.181,64.899,326.993,66.131,326.729,68.023z"/>
</g>
<g>
	<path class="st0" d="M103,118.416c0-6.857,5.559-12.416,12.416-12.416h169.168c6.857,0,12.416,5.559,12.416,12.416V329H103V118.416
		z"/>
</g>
<g>
	<g>
		<path class="st4" d="M103,118.416c0-6.857,5.559-12.416,12.416-12.416h169.168c6.857,0,12.416,5.559,12.416,12.416V328H103
			V118.416z"/>
	</g>
	<g>
		<path class="st5" d="M120.715,128.977c-0.404,0.404-1.059,0.404-1.464,0l-4.352-4.353l4.352-4.353c0.405-0.404,1.06-0.404,1.464,0
			s0.404,1.059,0,1.463l-2.89,2.89l2.89,2.89C121.119,127.918,121.119,128.573,120.715,128.977z"/>
	</g>
	<g>
		<path class="st6" d="M129.705,127.124h-1.231v-6.156h1.231V127.124z M132.565,127.23c-1.196,0-1.891-0.511-1.988-1.496h1.17
			c0.07,0.44,0.343,0.625,0.853,0.625c0.466,0,0.73-0.132,0.73-0.431c0-0.229-0.167-0.369-0.625-0.466l-0.36-0.088
			c-1.135-0.255-1.627-0.607-1.627-1.328c0-0.897,0.668-1.354,1.776-1.354c1.223,0,1.891,0.492,1.944,1.451h-1.161
			c-0.026-0.423-0.281-0.59-0.739-0.59c-0.413,0-0.651,0.124-0.651,0.414c0,0.22,0.159,0.36,0.607,0.457l0.37,0.079
			c1.125,0.255,1.635,0.616,1.635,1.346C134.499,126.755,133.77,127.23,132.565,127.23z M136.971,127.23
			c-1.196,0-1.891-0.511-1.988-1.496h1.17c0.07,0.44,0.343,0.625,0.853,0.625c0.466,0,0.73-0.132,0.73-0.431
			c0-0.229-0.167-0.369-0.625-0.466l-0.36-0.088c-1.135-0.255-1.627-0.607-1.627-1.328c0-0.897,0.668-1.354,1.776-1.354
			c1.223,0,1.891,0.492,1.944,1.451h-1.161c-0.026-0.423-0.281-0.59-0.739-0.59c-0.413,0-0.651,0.124-0.651,0.414
			c0,0.22,0.159,0.36,0.607,0.457l0.37,0.079c1.125,0.255,1.635,0.616,1.635,1.346C138.905,126.755,138.175,127.23,136.971,127.23z
			 M141.218,127.212c-1.046,0-1.574-0.554-1.574-1.864v-2.56h1.178v2.472c0,0.712,0.247,0.949,0.73,0.949
			c0.51,0,0.81-0.369,0.81-1.073v-2.348h1.187v4.336h-1.117v-0.545C142.142,127.01,141.737,127.212,141.218,127.212z
			 M148.611,124.978v0.22h-3.043c0.07,0.748,0.457,1.073,0.985,1.073c0.519,0,0.747-0.229,0.853-0.537h1.205
			c-0.326,1.161-1.24,1.496-2.058,1.496c-1.328,0-2.199-0.889-2.199-2.278c0-1.627,1.082-2.26,2.155-2.26
			C147.863,122.692,148.611,123.668,148.611,124.978z M145.594,124.468h1.768c-0.053-0.598-0.361-0.871-0.853-0.871
			C146.069,123.597,145.709,123.835,145.594,124.468z M153.482,127.23c-1.293,0-2.137-0.889-2.137-2.278
			c0-1.372,0.871-2.26,2.172-2.26c1.065,0,1.883,0.536,2.023,1.635h-1.205c-0.149-0.439-0.431-0.65-0.853-0.65
			c-0.589,0-0.958,0.457-0.958,1.275s0.36,1.284,0.958,1.284c0.431,0,0.748-0.238,0.871-0.721h1.196
			C155.373,126.588,154.582,127.23,153.482,127.23z M158.025,122.692c1.293,0,1.856,0.536,1.856,1.82v2.612h-1.117v-0.563
			c-0.255,0.378-0.677,0.669-1.293,0.669c-0.932,0-1.513-0.475-1.513-1.258c0-0.888,0.757-1.363,1.918-1.363
			c0.334,0,0.58,0.026,0.826,0.079v-0.343c0-0.537-0.237-0.765-0.721-0.765c-0.466,0-0.712,0.246-0.739,0.589h-1.178
			C156.152,123.166,156.97,122.692,158.025,122.692z M157.796,126.333c0.475,0,0.906-0.335,0.906-0.862v-0.053
			c-0.22-0.062-0.413-0.088-0.721-0.088c-0.528,0-0.844,0.167-0.844,0.528C157.137,126.157,157.339,126.333,157.796,126.333z
			 M162.089,127.124h-1.187v-4.336h1.117v0.633c0.255-0.501,0.642-0.686,1.046-0.686c0.106,0,0.255,0.009,0.352,0.036v1.099
			c-0.185-0.026-0.29-0.035-0.44-0.035c-0.562,0-0.888,0.369-0.888,1.161L162.089,127.124L162.089,127.124z M165.699,127.23
			c-1.178,0-1.935-0.889-1.935-2.278c0-1.372,0.792-2.26,1.935-2.26c0.501,0,0.88,0.167,1.187,0.501v-2.225h1.179v6.156h-1.108
			v-0.501C166.605,127.027,166.209,127.23,165.699,127.23z M165.928,126.236c0.624,0,0.994-0.458,0.994-1.284
			c0-0.818-0.37-1.275-0.994-1.275c-0.616,0-0.985,0.457-0.985,1.275C164.943,125.778,165.312,126.236,165.928,126.236z"/>
	</g>
	<g>
		<rect x="113.347" y="159.285" class="st7" width="173" height="1.035"/>
	</g>
	<g>
		<g>
			<g>
				<defs>
					<path id="SVGID_1_" d="M123.694,149.456L123.694,149.456c5.714,0,10.347,4.632,10.347,10.347l0,0
						c0,5.714-4.632,10.347-10.347,10.347l0,0c-5.714,0-10.347-4.632-10.347-10.347l0,0
						C113.347,154.088,117.979,149.456,123.694,149.456z"/>
				</defs>
				<clipPath id="SVGID_00000175293280714573863990000007979028640395835572_">
					<use xlink:href="#SVGID_1_"  style="overflow:visible;"/>
				</clipPath>
				<g style="clip-path:url(#SVGID_00000175293280714573863990000007979028640395835572_);">
					<g>
						<path class="st2" d="M123.694,149.456L123.694,149.456c5.714,0,10.347,4.632,10.347,10.347l0,0
							c0,5.714-4.632,10.347-10.347,10.347l0,0c-5.714,0-10.347-4.632-10.347-10.347l0,0
							C113.347,154.088,117.979,149.456,123.694,149.456z"/>
					</g>
					<g>
						<path class="st9" d="M124.362,162.56h-0.942v-3.262h-0.84v-0.679c0.692-0.007,0.981-0.195,1.049-0.767h0.733
							C124.362,157.852,124.362,162.56,124.362,162.56z"/>
					</g>
					<g>
						<path class="st2" d="M123.694,149.456L123.694,149.456c5.714,0,10.347,4.632,10.347,10.347l0,0
							c0,5.714-4.632,10.347-10.347,10.347l0,0c-5.714,0-10.347-4.632-10.347-10.347l0,0
							C113.347,154.088,117.979,149.456,123.694,149.456z"/>
					</g>
					<g>
						<path class="st10" d="M125.925,157.751c0.275,0.204,0.334,0.593,0.13,0.868l-2.701,3.659l-1.942-1.773
							c-0.253-0.231-0.271-0.624-0.039-0.877c0.231-0.253,0.623-0.271,0.877-0.04l0.923,0.844l1.883-2.55
							C125.26,157.606,125.649,157.548,125.925,157.751z"/>
					</g>
				</g>
			</g>
		</g>
	</g>
	<g>
		<path class="st2" d="M123.693,170.149c-5.705,0-10.347-4.642-10.347-10.347s4.642-10.346,10.347-10.346
			c5.705,0,10.347,4.641,10.347,10.346C134.04,165.508,129.398,170.149,123.693,170.149z M123.693,150.491
			c-5.135,0-9.312,4.177-9.312,9.312s4.177,9.312,9.312,9.312s9.312-4.177,9.312-9.312S128.828,150.491,123.693,150.491z"/>
	</g>
	<g>
		<path class="st4" d="M154.216,149.973L154.216,149.973c5.429,0,9.829,4.401,9.829,9.829l0,0c0,5.429-4.401,9.829-9.829,9.829l0,0
			c-5.429,0-9.829-4.401-9.829-9.829l0,0C144.387,154.374,148.788,149.973,154.216,149.973z"/>
	</g>
	<g>
		<path class="st2" d="M154.216,170.149c-5.705,0-10.346-4.642-10.346-10.347s4.641-10.346,10.346-10.346
			s10.347,4.641,10.347,10.346C164.563,165.508,159.921,170.149,154.216,170.149z M154.216,150.491
			c-5.135,0-9.312,4.177-9.312,9.312s4.177,9.312,9.312,9.312s9.312-4.177,9.312-9.312S159.351,150.491,154.216,150.491z"/>
	</g>
	<g>
		<path class="st6" d="M155.847,162.56h-3.303v-0.794c1.574-1.103,2.294-1.755,2.294-2.468c0-0.417-0.249-0.672-0.646-0.672
			c-0.424,0-0.659,0.275-0.686,0.726h-0.948c0.027-0.942,0.693-1.58,1.641-1.58c1.029,0,1.587,0.605,1.587,1.425
			c0,0.996-0.76,1.648-1.883,2.495h1.944L155.847,162.56L155.847,162.56z"/>
	</g>
	<g>
		<path class="st4" d="M184.738,149.973L184.738,149.973c5.429,0,9.829,4.401,9.829,9.829l0,0c0,5.429-4.401,9.829-9.829,9.829l0,0
			c-5.429,0-9.829-4.401-9.829-9.829l0,0C174.909,154.374,179.31,149.973,184.738,149.973z"/>
	</g>
	<g>
		<path class="st7" d="M184.738,170.149c-5.705,0-10.347-4.642-10.347-10.347s4.642-10.346,10.347-10.346
			s10.347,4.641,10.347,10.346C195.085,165.508,190.443,170.149,184.738,170.149z M184.738,150.491
			c-5.135,0-9.312,4.177-9.312,9.312s4.177,9.312,9.312,9.312s9.312-4.177,9.312-9.312S189.873,150.491,184.738,150.491z"/>
	</g>
	<g>
		<path class="st9" d="M185.596,160.119c0.47,0.114,0.84,0.491,0.84,1.042c0,0.895-0.699,1.48-1.708,1.48
			c-0.968,0-1.648-0.464-1.728-1.446h0.934c0.095,0.464,0.397,0.618,0.821,0.618c0.41,0,0.733-0.221,0.733-0.652
			c0-0.41-0.262-0.592-0.74-0.592h-0.484v-0.78h0.451c0.511,0,0.719-0.229,0.719-0.625c0-0.377-0.296-0.565-0.693-0.565
			c-0.383,0-0.672,0.168-0.753,0.619h-0.935c0.074-0.922,0.727-1.446,1.709-1.446c0.941,0,1.6,0.531,1.6,1.324
			C186.362,159.668,186.033,159.991,185.596,160.119z"/>
	</g>
	<g>
		<path class="st4" d="M215.261,149.973L215.261,149.973c5.429,0,9.829,4.401,9.829,9.829l0,0c0,5.429-4.401,9.829-9.829,9.829l0,0
			c-5.429,0-9.829-4.401-9.829-9.829l0,0C205.432,154.374,209.833,149.973,215.261,149.973z"/>
	</g>
	<g>
		<path class="st7" d="M215.262,170.149c-5.706,0-10.348-4.642-10.348-10.347s4.642-10.346,10.348-10.346
			c5.705,0,10.347,4.641,10.347,10.346C225.608,165.508,220.967,170.149,215.262,170.149z M215.262,150.491
			c-5.135,0-9.312,4.177-9.312,9.312s4.178,9.312,9.312,9.312s9.312-4.177,9.312-9.312S220.396,150.491,215.262,150.491z"/>
	</g>
	<g>
		<path class="st9" d="M216.451,162.56h-0.921v-0.982h-2.065v-0.8l1.998-2.926h0.988v2.885h0.612v0.841h-0.612V162.56z
			 M215.53,159.076l-1.11,1.661h1.11V159.076z"/>
	</g>
	<g>
		<path class="st4" d="M245.784,149.973L245.784,149.973c5.429,0,9.829,4.401,9.829,9.829l0,0c0,5.429-4.401,9.829-9.829,9.829l0,0
			c-5.429,0-9.829-4.401-9.829-9.829l0,0C235.955,154.374,240.356,149.973,245.784,149.973z"/>
	</g>
	<g>
		<path class="st7" d="M245.784,170.149c-5.705,0-10.347-4.642-10.347-10.347s4.642-10.346,10.347-10.346
			s10.347,4.641,10.347,10.346C256.131,165.508,251.489,170.149,245.784,170.149z M245.784,150.491
			c-5.135,0-9.312,4.177-9.312,9.312s4.177,9.312,9.312,9.312s9.312-4.177,9.312-9.312S250.919,150.491,245.784,150.491z"/>
	</g>
	<g>
		<path class="st9" d="M245.972,159.372c0.948,0,1.506,0.713,1.506,1.614c0,0.955-0.679,1.655-1.661,1.655
			c-0.955,0-1.513-0.532-1.641-1.298h0.948c0.088,0.302,0.316,0.464,0.666,0.464c0.464,0,0.746-0.31,0.746-0.821
			c0-0.491-0.282-0.8-0.739-0.8c-0.377,0-0.592,0.208-0.666,0.457h-0.895l0.296-2.791h2.704v0.868h-1.984l-0.121,0.988
			C245.319,159.48,245.629,159.372,245.972,159.372z"/>
	</g>
	<g>
		<path class="st4" d="M276.306,149.973L276.306,149.973c5.429,0,9.829,4.401,9.829,9.829l0,0c0,5.429-4.401,9.829-9.829,9.829l0,0
			c-5.429,0-9.829-4.401-9.829-9.829l0,0C266.477,154.374,270.878,149.973,276.306,149.973z"/>
	</g>
	<g>
		<path class="st7" d="M276.307,170.149c-5.706,0-10.348-4.642-10.348-10.347s4.642-10.346,10.348-10.346
			c5.705,0,10.347,4.641,10.347,10.346C286.653,165.508,282.012,170.149,276.307,170.149z M276.307,150.491
			c-5.135,0-9.312,4.177-9.312,9.312s4.178,9.312,9.312,9.312s9.312-4.177,9.312-9.312S281.441,150.491,276.307,150.491z"/>
	</g>
	<g>
		<path class="st9" d="M276.395,162.641c-0.921,0-1.809-0.659-1.809-2.314c0-1.614,0.72-2.555,1.843-2.555
			c0.928,0,1.466,0.47,1.607,1.25h-0.941c-0.101-0.302-0.316-0.464-0.652-0.464c-0.646,0-0.888,0.538-0.908,1.46
			c0.255-0.397,0.638-0.525,1.049-0.525c0.766,0,1.499,0.538,1.499,1.554C278.083,161.813,277.532,162.641,276.395,162.641z
			 M276.375,161.854c0.464,0,0.774-0.31,0.774-0.787c0-0.484-0.31-0.787-0.774-0.787c-0.457,0-0.766,0.296-0.766,0.767
			C275.609,161.538,275.918,161.854,276.375,161.854z"/>
	</g>
	<g>
		<path class="st6" d="M117.717,193.747c-2.14,0-3.972-1.786-3.972-4.188c0-2.447,1.798-4.245,4.04-4.245
			c0.752,0,1.389,0.227,1.867,0.432c0.193,0.091,0.284,0.126,0.387,0.126c0.193,0,0.239-0.126,0.455-0.126
			c0.455,0,0.729,1.082,0.729,1.89c0,0.739-0.205,1.024-0.433,1.024c-0.284,0-0.376-0.341-0.569-0.99
			c-0.296-0.956-1.445-1.559-2.424-1.571c-1.594,0-2.618,1.263-2.618,3.005c0,1.878,1.252,3.653,3.073,3.653
			c0.888,0,1.707-0.375,2.14-1.092c0.227-0.399,0.341-0.888,0.592-0.888c0.193,0,0.307,0.182,0.307,0.535
			c0,0.808-0.558,2.083-1.013,2.083c-0.239,0-0.239-0.137-0.455-0.137c-0.091,0-0.228,0.057-0.376,0.137
			C119.106,193.543,118.559,193.747,117.717,193.747z M123.354,193.634c-0.91,0-1.434-0.114-1.434-0.422
			c0-0.227,0.228-0.295,0.66-0.318c0.137-0.057,0.16-0.399,0.16-1.195v-4.268c0-0.524-0.046-1.15-0.194-1.218
			c-0.603-0.034-0.774-0.159-0.774-0.319c0-0.125,0.069-0.216,0.228-0.296c0.455-0.227,1.297-0.398,1.605-0.398
			c0.33,0,0.398,0.216,0.398,0.626c0,0.398-0.011,1.002-0.011,1.81v1.536c0.375-0.888,1.172-1.4,2.105-1.4
			c1.025,0,1.855,0.603,1.855,2.151v1.776c0,0.785,0,1.115,0.137,1.195c0.444,0.034,0.671,0.091,0.671,0.318
			c0,0.319-0.557,0.422-1.422,0.422c-0.968,0-1.503-0.114-1.503-0.422c0-0.227,0.228-0.295,0.717-0.318
			c0.137-0.057,0.148-0.569,0.148-1.195v-1.298c0-1.206-0.341-1.718-1.172-1.718c-0.74,0-1.536,0.557-1.536,2.082v0.934
			c0,0.762,0.011,1.138,0.136,1.195c0.512,0.034,0.717,0.091,0.717,0.318C124.845,193.531,124.288,193.634,123.354,193.634z
			 M132.162,193.747c-1.752,0-2.947-1.24-2.947-2.97c0-1.776,1.32-3.016,3.141-3.016c1.741,0,2.948,1.24,2.948,2.97
			C135.304,192.541,133.949,193.747,132.162,193.747z M130.478,190.265c0,1.365,0.819,2.845,2.049,2.845
			c0.865,0,1.525-0.717,1.525-1.866c0-1.378-0.854-2.846-2.06-2.846C131.138,188.398,130.478,189.092,130.478,190.265z
			 M138.887,193.747c-1.753,0-2.948-1.24-2.948-2.97c0-1.776,1.32-3.016,3.141-3.016c1.742,0,2.948,1.24,2.948,2.97
			C142.028,192.541,140.674,193.747,138.887,193.747z M137.202,190.265c0,1.365,0.82,2.845,2.049,2.845
			c0.865,0,1.525-0.717,1.525-1.866c0-1.378-0.854-2.846-2.06-2.846C137.862,188.398,137.202,189.092,137.202,190.265z
			 M145.395,193.736c-0.433,0-0.763-0.068-1.036-0.171c-0.171-0.057-0.319-0.136-0.421-0.136c-0.193,0-0.148,0.205-0.41,0.205
			c-0.421,0-0.808-0.945-0.808-1.605c0-0.376,0.103-0.546,0.285-0.546c0.216,0,0.296,0.284,0.466,0.58
			c0.342,0.58,1.036,1.058,1.799,1.058c0.626,0,1.217-0.273,1.217-0.876c0-0.706-0.739-0.797-1.559-0.967
			c-1.001-0.217-2.128-0.535-2.128-1.708c0-1.115,1.036-1.786,2.162-1.786c0.387,0,0.74,0.068,1.013,0.159
			c0.148,0.045,0.262,0.091,0.364,0.091c0.171,0,0.148-0.171,0.365-0.171c0.364,0,0.774,0.888,0.774,1.491
			c0,0.342-0.148,0.49-0.308,0.49c-0.193,0-0.307-0.194-0.466-0.501c-0.296-0.569-0.956-0.945-1.628-0.945
			c-0.649,0.012-1.092,0.364-1.092,0.854c0,0.603,0.637,0.694,1.456,0.853c1.013,0.217,2.231,0.535,2.231,1.833
			C147.671,193.042,146.67,193.736,145.395,193.736z M151.04,193.747c-1.605,0-2.686-1.172-2.686-2.868
			c0-1.843,1.298-3.107,2.88-3.107c1.434,0,2.333,1.002,2.333,1.992c0,0.501-0.251,0.854-0.694,0.854h-3.369
			c0.068,1.217,0.774,2.014,1.912,2.014c0.797,0,1.297-0.398,1.627-0.728c0.114-0.103,0.205-0.194,0.319-0.194
			c0.148,0,0.239,0.103,0.239,0.296c0,0.205-0.125,0.501-0.376,0.774C152.816,193.269,152.076,193.747,151.04,193.747z
			 M149.538,189.992l2.356-0.023c0.364,0,0.558-0.125,0.558-0.444c0-0.603-0.49-1.15-1.287-1.15
			C150.289,188.375,149.674,189.013,149.538,189.992z M156.822,192.097c0-1.081,0.978-1.821,2.424-1.821
			c0.444,0,0.876,0.08,1.275,0.182v-0.649c0-0.523-0.023-1.411-0.877-1.411c-0.444,0-0.808,0.307-1.183,0.763
			c-0.194,0.239-0.399,0.466-0.752,0.466c-0.284,0-0.489-0.182-0.489-0.444c0-0.603,1.491-1.411,2.72-1.411
			c1.161,0,1.833,0.626,1.833,1.787v2.14c0,0.649,0.034,1.07,0.717,1.218c0.068,0.011,0.091,0.045,0.091,0.113
			c0,0.262-0.33,0.615-0.922,0.615c-0.512,0-0.922-0.273-1.104-0.945c-0.421,0.683-1.104,1.036-1.89,1.036
			C157.561,193.736,156.822,193.053,156.822,192.097z M158.096,191.926c0,0.581,0.399,1.013,1.047,1.013c0.74,0,1.4-0.626,1.4-1.468
			v-0.341c-0.261-0.125-0.671-0.239-1.081-0.239C158.574,190.891,158.096,191.312,158.096,191.926z M168.367,193.747
			c-1.57,0-2.663-1.217-2.663-2.913c0-1.707,1.195-3.073,2.845-3.073c1.378,0,2.265,0.979,2.265,1.696
			c0,0.364-0.216,0.614-0.557,0.614c-0.433,0-0.558-0.421-0.786-0.91c-0.17-0.364-0.432-0.786-1.081-0.786
			c-0.91,0-1.479,0.865-1.479,1.969c0,1.355,0.739,2.277,1.866,2.277c0.808,0,1.286-0.478,1.593-0.786
			c0.137-0.136,0.217-0.216,0.342-0.216c0.136,0,0.228,0.103,0.228,0.296c0,0.216-0.137,0.558-0.399,0.854
			C170.154,193.235,169.403,193.747,168.367,193.747z M171.426,192.097c0-1.081,0.979-1.821,2.424-1.821
			c0.444,0,0.877,0.08,1.275,0.182v-0.649c0-0.523-0.023-1.411-0.876-1.411c-0.444,0-0.808,0.307-1.184,0.763
			c-0.193,0.239-0.398,0.466-0.751,0.466c-0.285,0-0.489-0.182-0.489-0.444c0-0.603,1.491-1.411,2.72-1.411
			c1.161,0,1.832,0.626,1.832,1.787v2.14c0,0.649,0.034,1.07,0.717,1.218c0.068,0.011,0.091,0.045,0.091,0.113
			c0,0.262-0.33,0.615-0.922,0.615c-0.512,0-0.922-0.273-1.104-0.945c-0.421,0.683-1.104,1.036-1.889,1.036
			C172.166,193.736,171.426,193.053,171.426,192.097z M172.701,191.926c0,0.581,0.398,1.013,1.047,1.013c0.74,0,1.4-0.626,1.4-1.468
			v-0.341c-0.262-0.125-0.672-0.239-1.081-0.239C173.179,190.891,172.701,191.312,172.701,191.926z M179.097,193.634
			c-0.91,0-1.434-0.114-1.434-0.422c0-0.227,0.228-0.295,0.661-0.318c0.125-0.057,0.147-0.399,0.147-1.195v-1.582
			c0-0.512-0.022-1.173-0.17-1.252c-0.581-0.034-0.729-0.16-0.729-0.319c0-0.114,0.069-0.205,0.228-0.296
			c0.398-0.205,1.229-0.387,1.536-0.387c0.331,0,0.399,0.217,0.399,0.626v0.751c0.375-0.944,1.127-1.445,1.73-1.445
			c0.444,0,0.865,0.285,0.865,0.842c0,0.512-0.285,0.82-0.672,0.82c-0.262,0-0.421-0.126-0.557-0.274
			c-0.103-0.102-0.194-0.239-0.387-0.239c-0.376,0-0.991,0.592-0.991,1.639v1.116c0,0.751,0.035,1.127,0.16,1.183
			c0.637,0.035,0.876,0.103,0.876,0.33C180.759,193.531,180.167,193.634,179.097,193.634z M184.976,193.736
			c-1.354,0-2.356-1.184-2.356-2.891c0-1.844,1.104-3.073,2.709-3.073c0.751,0,1.343,0.285,1.73,0.717v-1.013
			c0-0.512-0.068-1.172-0.25-1.252c-0.615-0.022-0.808-0.159-0.808-0.318c0-0.137,0.079-0.228,0.262-0.308
			c0.443-0.216,1.343-0.398,1.661-0.398c0.33,0,0.399,0.216,0.399,0.626c0,0.398-0.012,1.013-0.012,1.832v3.756
			c0,0.558,0.023,1.184,0.16,1.252c0.58,0.034,0.739,0.16,0.739,0.319c0,0.114-0.068,0.205-0.239,0.296
			c-0.421,0.205-1.206,0.387-1.502,0.387c-0.33,0-0.398-0.217-0.398-0.626c0-0.16,0.011-0.41,0.011-0.706
			C186.752,193.156,185.955,193.736,184.976,193.736z M183.952,190.674c0,1.434,0.637,2.22,1.502,2.22
			c0.831,0,1.639-0.694,1.617-2.368c-0.012-1.525-0.683-2.139-1.526-2.139C184.51,188.387,183.952,189.297,183.952,190.674z
			 M194.396,193.668c-0.899,0-1.457-0.478-1.457-1.491l-0.011-3.472h-0.319c-0.216,0-0.421-0.091-0.421-0.318
			c0-0.296,0.375-0.626,0.751-0.956c0.341-0.285,0.66-0.535,0.933-0.535c0.194,0,0.307,0.125,0.307,0.375v0.717h1.309
			c0.421,0,0.911-0.113,1.821-0.113c1.013,0,1.457,0.148,1.457,0.432c0,0.228-0.227,0.307-0.694,0.33
			c-0.091,0.103,0.023,0.592,0.193,1.07c0.296,0.842,0.808,1.98,1.184,2.72c0.353-0.876,0.774-2.117,0.967-2.834
			c0.092-0.353,0.205-0.853,0.103-0.979c-0.49-0.034-0.706-0.102-0.706-0.318c0-0.273,0.524-0.421,1.286-0.421
			c0.706,0,1.161,0.159,1.161,0.409c0,0.228-0.205,0.296-0.58,0.342c-0.216,0.102-0.33,0.353-0.501,0.865
			c-0.524,1.457-0.819,2.322-1.297,3.608c-0.626,1.65-1.082,2.674-2.277,2.674c-0.694,0-1.172-0.455-1.172-0.979
			c0-0.443,0.307-0.762,0.694-0.762s0.615,0.25,0.638,0.615c0.011,0.102,0.011,0.193,0.011,0.273
			c0.011,0.079,0.068,0.148,0.171,0.148c0.307,0,0.523-0.319,0.705-0.843c0.091-0.284,0.023-0.557-0.296-1.229
			c-0.398-0.865-1.149-2.583-1.57-3.63c-0.205-0.513-0.399-0.683-0.82-0.683h-1.787v3.039c0,0.694,0.183,0.99,0.74,0.99
			c0.421,0,0.751-0.342,1.002-0.342c0.125,0,0.216,0.103,0.216,0.251C196.137,193.03,195.283,193.668,194.396,193.668z
			 M203.881,195.751c-0.933,0-1.457-0.114-1.457-0.41c0-0.228,0.239-0.296,0.683-0.33c0.125-0.046,0.148-0.399,0.148-1.195v-3.711
			c0-0.489-0.023-1.149-0.171-1.24c-0.58-0.034-0.728-0.16-0.728-0.319c0-0.114,0.057-0.205,0.227-0.296
			c0.399-0.205,1.23-0.387,1.537-0.387c0.319,0,0.398,0.205,0.398,0.626c0,0.148,0,0.376-0.011,0.672
			c0.353-0.82,1.195-1.389,2.139-1.389c1.309,0,2.322,1.127,2.322,2.88c0,1.764-1.115,3.084-2.72,3.084
			c-0.728,0-1.343-0.285-1.741-0.66v0.74c0,0.717,0.034,1.126,0.182,1.195c0.66,0.045,0.888,0.102,0.888,0.33
			C205.577,195.659,204.996,195.751,203.881,195.751z M204.473,191.016c0,1.502,0.705,2.094,1.548,2.094
			c1.001,0,1.616-0.865,1.616-2.231c0-1.388-0.626-2.242-1.525-2.242C205.326,188.637,204.473,189.32,204.473,191.016z
			 M212.315,193.747c-1.605,0-2.686-1.172-2.686-2.868c0-1.843,1.297-3.107,2.879-3.107c1.434,0,2.334,1.002,2.334,1.992
			c0,0.501-0.251,0.854-0.695,0.854h-3.369c0.069,1.217,0.774,2.014,1.913,2.014c0.796,0,1.297-0.398,1.627-0.728
			c0.114-0.103,0.205-0.194,0.319-0.194c0.148,0,0.239,0.103,0.239,0.296c0,0.205-0.125,0.501-0.376,0.774
			C214.09,193.269,213.351,193.747,212.315,193.747z M210.813,189.992l2.356-0.023c0.364,0,0.557-0.125,0.557-0.444
			c0-0.603-0.489-1.15-1.286-1.15C211.564,188.375,210.949,189.013,210.813,189.992z"/>
	</g>
	<g>
		<path class="st11" d="M113.347,212.051c0-2.286,1.853-4.139,4.138-4.139h165.03c2.285,0,4.138,1.853,4.138,4.139v28.97
			c0,2.286-1.853,4.139-4.138,4.139h-165.03c-2.285,0-4.138-1.853-4.138-4.139L113.347,212.051L113.347,212.051z"/>
	</g>
	<g>
		<path class="st12" d="M142.106,229.081l-8.692-5.911c-0.417-0.284-0.986-0.176-1.27,0.242l-3.061,4.501
			c-0.284,0.417-0.176,0.986,0.242,1.27l8.692,5.911c0.417,0.284,0.986,0.176,1.27-0.242l3.061-4.5
			C142.632,229.934,142.524,229.365,142.106,229.081z"/>
	</g>
	<g>
		<path class="st13" d="M131.58,224.206c0,0,0.34,0.045,0.704,0.023c0.363-0.022,0.885-0.181,0.885-0.181s0.181,2.067,0.432,2.316
			c0.25,0.25,1.112,0.886,1.908,0.455c0.795-0.432,1.149-0.497,0.999-1.044c-0.149-0.548-1.272-2.681-1.272-2.681
			s-0.023-1.18-0.023-1.408c0-0.227,0.249-1.908-1.159-2.203c-1.408-0.296-2.476-0.25-3.407-0.568
			c-0.932-0.317-1.726-1.136-1.726-1.136s-3.52,1.408-3.588,4.429c0,0,1.34,1.295,1.863,2.225c0.523,0.931,1.181,3.18,2.021,3.225
			l2.361-3.452H131.58z"/>
	</g>
	<g>
		<path class="st13" d="M135.531,233.473l-5.769-3.861c0,0-1.681,1.432-0.932,2.204c0.749,0.772,1.999-0.091,1.999-0.091
			s-0.523,1.067,0,1.499c0.523,0.432,1.863-0.159,1.863-0.159s-0.544,1.09,0.273,1.499
			C133.782,234.973,135.1,233.973,135.531,233.473L135.531,233.473z"/>
	</g>
	<g>
		<path class="st14" d="M138.498,235.492c-0.22,0-0.442-0.063-0.637-0.196l-8.735-5.942c-0.518-0.353-0.652-1.061-0.301-1.578
			l2.582-3.796c0.066-0.098,0.198-0.123,0.295-0.056c0.097,0.066,0.123,0.198,0.056,0.296l-2.581,3.795
			c-0.22,0.323-0.136,0.767,0.188,0.987l8.735,5.942c0.157,0.106,0.345,0.145,0.533,0.11c0.187-0.036,0.348-0.143,0.455-0.3
			l3.048-4.482c0.107-0.156,0.146-0.346,0.111-0.532c-0.036-0.186-0.142-0.347-0.299-0.454l-5.711-3.885
			c-0.097-0.066-0.123-0.198-0.056-0.296c0.066-0.098,0.198-0.124,0.295-0.056l5.711,3.885c0.251,0.171,0.421,0.429,0.478,0.727
			s-0.006,0.601-0.177,0.852l-3.048,4.482C139.22,235.318,138.862,235.492,138.498,235.492z"/>
	</g>
	<g>
		<path class="st1" d="M133.175,227.11l-0.119-0.081c-0.097-0.066-0.228-0.041-0.294,0.056l-0.215,0.317
			c-0.066,0.096-0.041,0.228,0.056,0.294l0.118,0.08c0.097,0.066,0.229,0.041,0.294-0.056l0.216-0.316
			C133.296,227.307,133.271,227.176,133.175,227.11z"/>
	</g>
	<g>
		<path class="st1" d="M133.637,226.445l-0.119-0.081c-0.097-0.066-0.228-0.041-0.294,0.056l-0.139,0.204
			c-0.065,0.097-0.04,0.228,0.056,0.294l0.119,0.081c0.097,0.065,0.228,0.04,0.294-0.056l0.139-0.204
			C133.758,226.642,133.733,226.51,133.637,226.445z"/>
	</g>
	<g>
		<path class="st1" d="M133.703,227.625l-0.119-0.08c-0.096-0.066-0.228-0.041-0.294,0.056l-0.139,0.204
			c-0.065,0.096-0.04,0.228,0.056,0.294l0.119,0.08c0.097,0.066,0.228,0.041,0.294-0.056l0.139-0.204
			C133.825,227.823,133.8,227.691,133.703,227.625z"/>
	</g>
	<g>
		<path class="st1" d="M134.215,226.84l-0.118-0.081c-0.097-0.066-0.228-0.041-0.294,0.056l-0.235,0.346
			c-0.066,0.096-0.041,0.228,0.056,0.294l0.118,0.08c0.097,0.066,0.228,0.041,0.294-0.056l0.235-0.345
			C134.337,227.037,134.312,226.905,134.215,226.84z"/>
	</g>
	<g>
		<path class="st2" d="M140.868,229.369l-3.014-2.049c-0.377-0.257-0.89-0.159-1.147,0.218c-0.256,0.377-0.158,0.891,0.219,1.147
			l3.013,2.05c0.377,0.256,0.891,0.159,1.147-0.219C141.343,230.139,141.245,229.626,140.868,229.369z"/>
	</g>
	<g>
		<path class="st14" d="M129.127,227.889c-0.049,0-0.097-0.017-0.137-0.051c-0.6-0.506-1.003-1.314-1.431-2.171
			c-0.56-1.12-1.194-2.391-2.415-3.357c-0.055-0.044-0.084-0.111-0.08-0.181c0.2-3.116,3.587-4.497,3.731-4.555
			c0.109-0.04,0.233,0.01,0.276,0.119s-0.01,0.233-0.119,0.276c-0.032,0.014-3.198,1.308-3.455,4.077
			c1.237,1.015,1.877,2.297,2.443,3.431c0.425,0.851,0.792,1.586,1.325,2.036c0.09,0.075,0.101,0.21,0.025,0.3
			C129.248,227.863,129.188,227.889,129.127,227.889z"/>
	</g>
	<g>
		<path class="st14" d="M129.617,232.327c-0.196,0-0.393-0.039-0.585-0.133c-0.335-0.164-0.53-0.44-0.562-0.798
			c-0.056-0.629,0.438-1.457,1.199-2.016c0.096-0.067,0.228-0.049,0.298,0.046c0.069,0.095,0.049,0.229-0.046,0.298
			c-0.638,0.467-1.07,1.154-1.027,1.635c0.018,0.206,0.125,0.354,0.325,0.452c0.624,0.31,1.427-0.267,1.743-0.528
			c0.09-0.075,0.226-0.062,0.3,0.028c0.075,0.091,0.062,0.225-0.028,0.3C130.874,231.909,130.254,232.327,129.617,232.327z"/>
	</g>
	<g>
		<path class="st14" d="M131.475,233.662c-0.196,0-0.393-0.04-0.584-0.134c-0.419-0.205-0.54-0.52-0.566-0.747
			c-0.069-0.587,0.393-1.352,1.236-2.047c0.089-0.076,0.224-0.062,0.299,0.028c0.075,0.091,0.062,0.226-0.029,0.3
			c-0.709,0.585-1.134,1.239-1.083,1.669c0.021,0.181,0.129,0.316,0.331,0.414c0.536,0.262,1.201-0.123,1.55-0.377
			c0.094-0.067,0.227-0.048,0.297,0.048c0.069,0.096,0.047,0.229-0.048,0.298C132.499,233.388,131.991,233.662,131.475,233.662z"/>
	</g>
	<g>
		<path class="st14" d="M133.455,234.957c-0.225,0-0.441-0.051-0.65-0.152c-0.433-0.212-0.562-0.526-0.595-0.753
			c-0.081-0.569,0.341-1.308,1.189-2.078c0.086-0.079,0.221-0.073,0.3,0.014c0.079,0.087,0.073,0.222-0.014,0.301
			c-0.719,0.653-1.112,1.291-1.054,1.704c0.026,0.184,0.144,0.324,0.36,0.43c0.642,0.312,1.439-0.064,2.363-1.12
			c0.076-0.089,0.211-0.097,0.3-0.02c0.088,0.077,0.097,0.212,0.02,0.301C134.875,234.497,134.13,234.957,133.455,234.957z"/>
	</g>
	<g>
		<path class="st14" d="M132.075,229.794c-0.042,0-0.083-0.012-0.12-0.037l-1.804-1.228c-0.097-0.066-0.123-0.198-0.056-0.296
			c0.066-0.098,0.198-0.123,0.295-0.056l1.804,1.228c0.097,0.066,0.123,0.198,0.056,0.296
			C132.21,229.762,132.143,229.794,132.075,229.794z"/>
	</g>
	<g>
		<path class="st14" d="M134.703,231.581c-0.042,0-0.083-0.012-0.12-0.037l-1.803-1.226c-0.097-0.065-0.123-0.198-0.056-0.295
			c0.065-0.1,0.198-0.125,0.295-0.057l1.803,1.226c0.097,0.065,0.123,0.198,0.056,0.295
			C134.838,231.549,134.771,231.581,134.703,231.581z"/>
	</g>
	<g>
		<path class="st1" d="M132.273,227.326l0.999-1.47c0.053-0.077,0.032-0.18-0.043-0.232l-0.503-0.342
			c-0.042-0.029-0.096-0.036-0.146-0.021l-0.321,0.104c-0.035,0.011-0.065,0.034-0.087,0.065l-0.726,1.068
			c-0.02,0.028-0.029,0.062-0.029,0.096l0.002,0.271c0,0.055,0.028,0.106,0.074,0.138l0.547,0.368
			C132.117,227.422,132.22,227.403,132.273,227.326z"/>
	</g>
	<g>
		<path class="st14" d="M134.866,227.176c-0.406,0-0.715-0.144-0.933-0.3c-0.646-0.466-1-1.42-0.962-2.548
			c-1.036,0.467-2.226-0.425-2.283-0.468c-0.093-0.07-0.111-0.204-0.041-0.298c0.071-0.092,0.205-0.11,0.298-0.041
			c0.013,0.011,1.29,0.96,2.131,0.24c0.067-0.057,0.162-0.066,0.238-0.025c0.078,0.041,0.122,0.125,0.111,0.212
			c-0.134,1.142,0.162,2.155,0.755,2.582c0.388,0.28,0.893,0.288,1.458,0.024c0.284-0.134,0.455-0.303,0.524-0.517
			c0.165-0.51-0.252-1.259-0.621-1.919c-0.265-0.476-0.514-0.925-0.565-1.299c-0.05-0.372-0.02-0.715,0.01-1.045
			c0.058-0.657,0.104-1.176-0.469-1.733c-0.343-0.333-1.079-0.439-1.93-0.563c-1.266-0.184-2.842-0.413-3.828-1.568
			c-0.077-0.089-0.066-0.224,0.023-0.3c0.089-0.076,0.224-0.065,0.3,0.024c0.882,1.032,2.308,1.24,3.565,1.423
			c0.924,0.134,1.723,0.25,2.166,0.68c0.719,0.698,0.656,1.398,0.596,2.075c-0.027,0.308-0.056,0.626-0.012,0.951
			c0.04,0.294,0.271,0.709,0.515,1.148c0.41,0.736,0.875,1.571,0.654,2.257c-0.106,0.328-0.357,0.587-0.749,0.771
			C135.458,227.11,135.141,227.176,134.866,227.176z"/>
	</g>
	<g>
		<path class="st6" d="M154.317,223.501h-1.087v-5.432h2.173c1.203,0,1.995,0.683,1.995,1.847s-0.792,1.855-1.995,1.855h-1.086
			V223.501z M154.317,219.063v1.715h1.102c0.566,0,0.892-0.326,0.892-0.862c0-0.527-0.326-0.853-0.892-0.853H154.317z
			 M159.149,223.501h-1.048v-5.432h1.048v2.049c0.248-0.365,0.605-0.528,1.055-0.528c0.916,0,1.381,0.481,1.381,1.638v2.273h-1.04
			v-2.188c0-0.621-0.217-0.83-0.651-0.83c-0.482,0-0.745,0.326-0.745,0.939V223.501z M162.692,225.24
			c-0.248,0-0.45-0.024-0.621-0.07l0.062-0.869c0.163,0.054,0.288,0.054,0.412,0.054c0.271,0,0.411-0.085,0.527-0.411l0.194-0.528
			l-1.373-3.74h1.102l0.83,2.553l0.815-2.553h1.063l-1.645,4.4C163.724,224.952,163.383,225.24,162.692,225.24z M167.563,223.594
			c-1.055,0-1.668-0.45-1.754-1.319h1.032c0.062,0.388,0.303,0.551,0.753,0.551c0.411,0,0.644-0.116,0.644-0.38
			c0-0.202-0.147-0.326-0.551-0.411l-0.318-0.078c-1.001-0.225-1.436-0.535-1.436-1.172c0-0.791,0.59-1.195,1.568-1.195
			c1.079,0,1.668,0.435,1.715,1.281h-1.024c-0.024-0.373-0.249-0.52-0.652-0.52c-0.365,0-0.575,0.108-0.575,0.364
			c0,0.194,0.14,0.319,0.536,0.404l0.326,0.07c0.993,0.225,1.443,0.543,1.443,1.187C169.27,223.175,168.626,223.594,167.563,223.594
			z M170.496,219.094c-0.326,0-0.566-0.249-0.566-0.559s0.24-0.551,0.566-0.551s0.567,0.241,0.567,0.551
			S170.822,219.094,170.496,219.094z M171.016,223.501h-1.048v-3.825h1.048V223.501z M173.614,223.594
			c-1.14,0-1.885-0.783-1.885-2.009c0-1.211,0.768-1.995,1.916-1.995c0.939,0,1.661,0.474,1.785,1.444h-1.063
			c-0.132-0.388-0.38-0.575-0.753-0.575c-0.52,0-0.846,0.404-0.846,1.126c0,0.721,0.319,1.133,0.846,1.133
			c0.381,0,0.66-0.21,0.769-0.637h1.055C175.283,223.028,174.584,223.594,173.614,223.594z M177.623,219.59
			c1.14,0,1.637,0.474,1.637,1.607v2.304h-0.986v-0.496c-0.225,0.333-0.597,0.589-1.14,0.589c-0.823,0-1.335-0.419-1.335-1.109
			c0-0.784,0.667-1.203,1.692-1.203c0.295,0,0.512,0.023,0.729,0.07v-0.303c0-0.473-0.209-0.675-0.636-0.675
			c-0.411,0-0.629,0.217-0.652,0.52h-1.04C175.97,220.009,176.691,219.59,177.623,219.59z M177.421,222.803
			c0.419,0,0.799-0.295,0.799-0.761v-0.046c-0.194-0.054-0.365-0.078-0.636-0.078c-0.466,0-0.745,0.148-0.745,0.466
			C176.839,222.648,177.017,222.803,177.421,222.803z M181.255,223.548c-0.76,0-1.094-0.342-1.094-1.032v-4.447h1.048v4.206
			c0,0.272,0.069,0.396,0.318,0.396c0.039,0,0.085,0,0.132-0.008v0.838C181.558,223.525,181.434,223.548,181.255,223.548z
			 M185.883,223.594c-1.14,0-1.885-0.783-1.885-2.009c0-1.211,0.768-1.995,1.916-1.995c0.939,0,1.661,0.474,1.785,1.444h-1.063
			c-0.132-0.388-0.38-0.575-0.753-0.575c-0.52,0-0.846,0.404-0.846,1.126c0,0.721,0.319,1.133,0.846,1.133
			c0.381,0,0.66-0.21,0.769-0.637h1.055C187.552,223.028,186.853,223.594,185.883,223.594z M189.892,219.59
			c1.14,0,1.637,0.474,1.637,1.607v2.304h-0.986v-0.496c-0.225,0.333-0.597,0.589-1.14,0.589c-0.823,0-1.335-0.419-1.335-1.109
			c0-0.784,0.667-1.203,1.692-1.203c0.295,0,0.512,0.023,0.729,0.07v-0.303c0-0.473-0.209-0.675-0.636-0.675
			c-0.412,0-0.629,0.217-0.652,0.52h-1.04C188.239,220.009,188.96,219.59,189.892,219.59z M189.69,222.803
			c0.419,0,0.799-0.295,0.799-0.761v-0.046c-0.194-0.054-0.365-0.078-0.636-0.078c-0.466,0-0.745,0.148-0.745,0.466
			C189.108,222.648,189.286,222.803,189.69,222.803z M193.478,223.501h-1.048v-3.825h0.985v0.558
			c0.225-0.442,0.567-0.605,0.924-0.605c0.093,0,0.225,0.008,0.31,0.031v0.97c-0.163-0.023-0.256-0.031-0.388-0.031
			c-0.496,0-0.783,0.326-0.783,1.024L193.478,223.501L193.478,223.501z M196.663,223.594c-1.04,0-1.707-0.783-1.707-2.009
			c0-1.211,0.698-1.995,1.707-1.995c0.442,0,0.776,0.148,1.047,0.443v-1.964h1.04v5.432h-0.978v-0.442
			C197.462,223.416,197.113,223.594,196.663,223.594z M196.865,222.718c0.55,0,0.876-0.404,0.876-1.133
			c0-0.722-0.326-1.126-0.876-1.126c-0.544,0-0.87,0.404-0.87,1.126C195.995,222.314,196.321,222.718,196.865,222.718z"/>
	</g>
	<g>
		<path class="st9" d="M153,233.21c0-1.426,0.895-2.421,2.24-2.421c1.036,0,1.782,0.578,2.051,1.533h-0.679
			c-0.229-0.632-0.7-0.928-1.372-0.928c-0.975,0-1.587,0.7-1.587,1.823s0.618,1.822,1.594,1.822c0.793,0,1.345-0.43,1.479-1.345
			h-1.298v-0.592h1.984v0.148c0,1.46-0.908,2.395-2.186,2.395C153.895,235.645,153,234.663,153,233.21z M158.831,235.571h-0.625
			v-3.302h0.598v0.558c0.182-0.404,0.498-0.592,0.875-0.592c0.067,0,0.154,0.007,0.222,0.027v0.592
			c-0.101-0.014-0.155-0.021-0.242-0.021c-0.559,0-0.828,0.391-0.828,1.164V235.571z M163.262,233.815v0.222h-2.374
			c0.034,0.713,0.411,1.056,0.935,1.056c0.41,0,0.639-0.148,0.78-0.484h0.646c-0.242,0.74-0.807,1.036-1.426,1.036
			c-0.928,0-1.574-0.68-1.574-1.729c0-1.143,0.693-1.721,1.554-1.721C162.697,232.195,163.262,232.874,163.262,233.815z
			 M160.909,233.566h1.701c-0.04-0.564-0.33-0.833-0.807-0.833C161.325,232.733,160.996,232.995,160.909,233.566z M165.296,232.195
			c0.854,0,1.311,0.376,1.311,1.331v2.045h-0.598v-0.458c-0.202,0.29-0.511,0.532-1.029,0.532c-0.666,0-1.137-0.343-1.137-0.928
			c0-0.68,0.572-1.029,1.419-1.029c0.249,0,0.471,0.02,0.72,0.074v-0.337c0-0.497-0.256-0.692-0.7-0.692
			c-0.45,0-0.679,0.195-0.726,0.538h-0.632C163.978,232.578,164.543,232.195,165.296,232.195z M165.101,235.12
			c0.471,0,0.881-0.343,0.881-0.82v-0.054c-0.235-0.061-0.437-0.088-0.7-0.088c-0.504,0-0.807,0.162-0.807,0.505
			C164.475,234.952,164.67,235.12,165.101,235.12z M168.593,235.624c-0.665,0-0.894-0.336-0.894-0.874v-1.917h-0.498v-0.564h0.195
			c0.209,0,0.303-0.095,0.303-0.303v-0.612h0.625v0.915h0.754v0.564h-0.754v1.783c0,0.282,0.068,0.437,0.424,0.437
			c0.128,0,0.215-0.014,0.33-0.047v0.551C168.916,235.598,168.755,235.624,168.593,235.624z M172.304,235.571h-0.618v-2.738h-0.498
			v-0.564h0.491v-0.579c0-0.572,0.356-0.901,0.982-0.901c0.141,0,0.276,0.02,0.403,0.054v0.565
			c-0.101-0.034-0.195-0.047-0.296-0.047c-0.302,0-0.464,0.1-0.464,0.43v0.478h0.693v0.564h-0.693L172.304,235.571L172.304,235.571z
			 M174.86,235.645c-0.942,0-1.567-0.68-1.567-1.729c0-1.042,0.625-1.721,1.567-1.721c0.941,0,1.56,0.679,1.56,1.721
			C176.42,234.965,175.801,235.645,174.86,235.645z M174.86,235.08c0.585,0,0.928-0.404,0.928-1.164s-0.343-1.157-0.928-1.157
			c-0.592,0-0.935,0.397-0.935,1.157S174.268,235.08,174.86,235.08z M177.819,235.571h-0.626v-3.302h0.599v0.558
			c0.181-0.404,0.497-0.592,0.874-0.592c0.067,0,0.155,0.007,0.222,0.027v0.592c-0.101-0.014-0.155-0.021-0.242-0.021
			c-0.558,0-0.827,0.391-0.827,1.164L177.819,235.571L177.819,235.571z M182.359,235.624c-0.665,0-0.894-0.336-0.894-0.874v-1.917
			h-0.498v-0.564h0.195c0.209,0,0.303-0.095,0.303-0.303v-0.612h0.625v0.915h0.754v0.564h-0.754v1.783
			c0,0.282,0.068,0.437,0.424,0.437c0.128,0,0.215-0.014,0.33-0.047v0.551C182.682,235.598,182.521,235.624,182.359,235.624z
			 M184.11,235.571h-0.625v-4.708h0.625v1.829c0.243-0.363,0.538-0.497,0.989-0.497c0.76,0,1.143,0.43,1.143,1.358v2.018h-0.625
			v-1.964c0-0.592-0.195-0.841-0.666-0.841c-0.598,0-0.841,0.404-0.841,1.076V235.571z M189.986,233.815v0.222h-2.374
			c0.034,0.713,0.411,1.056,0.935,1.056c0.41,0,0.639-0.148,0.78-0.484h0.646c-0.242,0.74-0.807,1.036-1.426,1.036
			c-0.928,0-1.574-0.68-1.574-1.729c0-1.143,0.693-1.721,1.554-1.721C189.421,232.195,189.986,232.874,189.986,233.815z
			 M187.633,233.566h1.701c-0.04-0.564-0.33-0.833-0.807-0.833C188.05,232.733,187.72,232.995,187.633,233.566z M193.334,235.571
			h-0.619v-2.738h-0.497v-0.564h0.491v-0.579c0-0.572,0.356-0.901,0.982-0.901c0.141,0,0.275,0.02,0.403,0.054v0.565
			c-0.101-0.034-0.195-0.047-0.296-0.047c-0.302,0-0.464,0.1-0.464,0.43v0.478h0.693v0.564h-0.693L193.334,235.571L193.334,235.571z
			 M195.269,235.571h-0.626v-3.302h0.599v0.558c0.182-0.404,0.498-0.592,0.874-0.592c0.068,0,0.155,0.007,0.222,0.027v0.592
			c-0.101-0.014-0.154-0.021-0.242-0.021c-0.558,0-0.827,0.391-0.827,1.164L195.269,235.571L195.269,235.571z M199.7,233.815v0.222
			h-2.374c0.034,0.713,0.41,1.056,0.935,1.056c0.41,0,0.639-0.148,0.78-0.484h0.646c-0.243,0.74-0.807,1.036-1.426,1.036
			c-0.928,0-1.574-0.68-1.574-1.729c0-1.143,0.693-1.721,1.554-1.721C199.135,232.195,199.7,232.874,199.7,233.815z
			 M197.346,233.566h1.702c-0.041-0.564-0.33-0.833-0.807-0.833C197.763,232.733,197.434,232.995,197.346,233.566z M203.327,237.03
			h-0.625v-1.883c-0.235,0.316-0.578,0.498-1.009,0.498c-0.888,0-1.466-0.68-1.466-1.729c0-1.042,0.578-1.721,1.473-1.721
			c0.464,0,0.76,0.174,1.029,0.497v-0.423h0.598L203.327,237.03L203.327,237.03z M201.781,235.08c0.591,0,0.934-0.404,0.934-1.164
			c0-0.753-0.343-1.157-0.934-1.157c-0.585,0-0.935,0.404-0.935,1.157C200.846,234.676,201.196,235.08,201.781,235.08z
			 M205.44,235.638c-0.76,0-1.143-0.431-1.143-1.359v-2.01h0.626v1.957c0,0.591,0.195,0.84,0.665,0.84
			c0.565,0,0.807-0.403,0.807-1.076v-1.721h0.626v3.302h-0.599v-0.444C206.187,235.49,205.891,235.638,205.44,235.638z
			 M210.806,233.815v0.222h-2.374c0.034,0.713,0.41,1.056,0.935,1.056c0.41,0,0.639-0.148,0.78-0.484h0.646
			c-0.243,0.74-0.807,1.036-1.426,1.036c-0.928,0-1.574-0.68-1.574-1.729c0-1.143,0.693-1.721,1.554-1.721
			C210.241,232.195,210.806,232.874,210.806,233.815z M208.452,233.566h1.702c-0.041-0.564-0.33-0.833-0.807-0.833
			C208.869,232.733,208.54,232.995,208.452,233.566z M212.194,235.571h-0.626v-3.302h0.599v0.43
			c0.256-0.357,0.551-0.504,1.009-0.504c0.767,0,1.15,0.43,1.15,1.358v2.018H213.7v-1.964c0-0.592-0.195-0.841-0.665-0.841
			c-0.599,0-0.841,0.404-0.841,1.076V235.571z M216.308,235.624c-0.666,0-0.895-0.336-0.895-0.874v-1.917h-0.497v-0.564h0.195
			c0.208,0,0.302-0.095,0.302-0.303v-0.612h0.626v0.915h0.753v0.564h-0.753v1.783c0,0.282,0.067,0.437,0.424,0.437
			c0.127,0,0.215-0.014,0.329-0.047v0.551C216.631,235.598,216.469,235.624,216.308,235.624z M220.416,235.645
			c-0.814,0-1.305-0.37-1.399-1.063h0.639c0.074,0.383,0.336,0.538,0.773,0.538c0.471,0,0.726-0.121,0.726-0.437
			c0-0.249-0.168-0.377-0.625-0.484l-0.289-0.068c-0.801-0.188-1.117-0.477-1.117-0.981c0-0.612,0.471-0.955,1.251-0.955
			c0.8,0,1.285,0.356,1.352,1.015h-0.639c-0.054-0.356-0.296-0.491-0.699-0.491c-0.411,0-0.639,0.108-0.639,0.397
			c0,0.235,0.154,0.363,0.592,0.464l0.295,0.067c0.801,0.182,1.144,0.471,1.144,0.996
			C221.781,235.281,221.27,235.645,220.416,235.645z M223.155,237.03h-0.625v-4.761h0.599v0.43c0.282-0.357,0.598-0.504,1.035-0.504
			c0.888,0,1.466,0.679,1.466,1.721c0,1.049-0.591,1.729-1.466,1.729c-0.437,0-0.753-0.148-1.009-0.485V237.03z M224.077,235.08
			c0.585,0,0.935-0.404,0.935-1.164s-0.35-1.157-0.935-1.157c-0.592,0-0.935,0.397-0.935,1.157S223.485,235.08,224.077,235.08z
			 M229.182,233.815v0.222h-2.374c0.034,0.713,0.411,1.056,0.935,1.056c0.41,0,0.639-0.148,0.78-0.484h0.646
			c-0.242,0.74-0.807,1.036-1.426,1.036c-0.928,0-1.573-0.68-1.573-1.729c0-1.143,0.692-1.721,1.553-1.721
			C228.618,232.195,229.182,232.874,229.182,233.815z M226.829,233.566h1.701c-0.04-0.564-0.329-0.833-0.807-0.833
			C227.246,232.733,226.916,232.995,226.829,233.566z M230.57,235.571h-0.625v-3.302h0.598v0.43
			c0.256-0.357,0.552-0.504,1.009-0.504c0.767,0,1.15,0.43,1.15,1.358v2.018h-0.625v-1.964c0-0.592-0.195-0.841-0.666-0.841
			c-0.599,0-0.841,0.404-0.841,1.076V235.571z M234.9,235.645c-0.888,0-1.467-0.68-1.467-1.729c0-1.042,0.592-1.721,1.467-1.721
			c0.437,0,0.719,0.134,1.008,0.477v-1.809h0.626v4.708h-0.599v-0.444C235.626,235.49,235.337,235.645,234.9,235.645z
			 M234.987,235.08c0.592,0,0.935-0.404,0.935-1.164s-0.343-1.157-0.935-1.157c-0.585,0-0.935,0.397-0.935,1.157
			S234.402,235.08,234.987,235.08z M240.321,233.815v0.222h-2.374c0.034,0.713,0.411,1.056,0.935,1.056
			c0.41,0,0.639-0.148,0.78-0.484h0.646c-0.242,0.74-0.807,1.036-1.426,1.036c-0.928,0-1.574-0.68-1.574-1.729
			c0-1.143,0.693-1.721,1.554-1.721C239.756,232.195,240.321,232.874,240.321,233.815z M237.967,233.566h1.702
			c-0.04-0.564-0.33-0.833-0.807-0.833C238.384,232.733,238.055,232.995,237.967,233.566z M241.709,235.571h-0.625v-3.302h0.598
			v0.558c0.182-0.404,0.498-0.592,0.875-0.592c0.067,0,0.154,0.007,0.222,0.027v0.592c-0.101-0.014-0.155-0.021-0.243-0.021
			c-0.558,0-0.827,0.391-0.827,1.164L241.709,235.571L241.709,235.571z"/>
	</g>
	<g>
		<path class="st5" d="M270.919,230.889c0.404,0.404,1.059,0.404,1.463,0l4.353-4.353l-4.353-4.353
			c-0.404-0.404-1.059-0.404-1.463,0c-0.404,0.404-0.404,1.059,0,1.463l2.89,2.89l-2.89,2.89
			C270.515,229.83,270.515,230.485,270.919,230.889z"/>
	</g>
	<g>
		<path class="st11" d="M113.347,253.437c0-2.285,1.853-4.138,4.138-4.138h165.03c2.285,0,4.138,1.853,4.138,4.138v28.971
			c0,2.286-1.853,4.139-4.138,4.139h-165.03c-2.285,0-4.138-1.853-4.138-4.139L113.347,253.437L113.347,253.437z"/>
	</g>
	<g>
		<path class="st15" d="M135.099,258.43l-9.117,0.017l-1.802,1.592l0.07,15.102c0,0,0.252,1.685,1.668,1.998s7.886,0.188,8.98,0.188
			s1.87-1.742,1.87-1.742s-0.084-13.884-0.012-15.086c0.073-1.202-1.656-2.071-1.656-2.071L135.099,258.43z"/>
	</g>
	<g>
		<path class="st16" d="M124.207,275.297c-0.028,1.192,1.443,1.822,1.443,1.822l0.95,0.093l-0.95-1.119v-16.512l0.998-1.151
			l-0.998,0.148l-1.339,1.171C124.311,259.749,124.236,274.105,124.207,275.297L124.207,275.297z"/>
	</g>
	<g>
		<path class="st17" d="M135.637,259.946h-8.932v15.933h9.028L135.637,259.946z"/>
	</g>
	<g>
		<path class="st18" d="M130.828,259.995c-0.102,0.367,0.113,0.767,0.43,0.978c0.318,0.211,0.712,0.268,1.093,0.278
			c0.382,0.01,0.766-0.019,1.141,0.044c0.102,0.017,0.207,0.042,0.288,0.105c0.085,0.062,0.139,0.158,0.179,0.256
			c0.27,0.631,0.095,1.359,0.192,2.039c0.027,0.179,0.073,0.359,0.172,0.51c0.272,0.415,0.87,0.498,1.34,0.337v-4.596
			L130.828,259.995L130.828,259.995z"/>
	</g>
	<g>
		<path class="st18" d="M135.562,265.73c-0.376-0.033-0.719,0.256-0.87,0.601c-0.153,0.345-0.156,0.734-0.156,1.111
			c0,0.548-0.003,1.097-0.003,1.646c0,0.42,0,0.855,0.163,1.244c0.163,0.388,0.528,0.723,0.95,0.716l-0.081-5.316L135.562,265.73z"
			/>
	</g>
	<g>
		<path class="st14" d="M134.685,277.425h-8.364c-1.259,0-2.284-1.024-2.284-2.284V260.5c0-1.26,1.024-2.284,2.284-2.284h8.364
			c1.259,0,2.284,1.024,2.284,2.284v14.641C136.969,276.4,135.944,277.425,134.685,277.425z M126.321,258.642
			c-1.024,0-1.858,0.834-1.858,1.858v14.641c0,1.024,0.833,1.858,1.858,1.858h8.364c1.024,0,1.858-0.834,1.858-1.858V260.5
			c0-1.024-0.833-1.858-1.858-1.858H126.321z"/>
	</g>
	<g>
		<path class="st14" d="M127.552,277.425c-1.259,0-2.284-1.024-2.284-2.284V260.5c0-1.26,1.024-2.284,2.284-2.284
			c0.118,0,0.213,0.096,0.213,0.213s-0.095,0.213-0.213,0.213c-1.024,0-1.858,0.834-1.858,1.858v14.641
			c0,1.024,0.833,1.858,1.858,1.858c0.118,0,0.213,0.096,0.213,0.213S127.669,277.425,127.552,277.425z"/>
	</g>
	<g>
		<path class="st14" d="M135.274,276.098h-8.125c-0.352,0-0.639-0.286-0.639-0.639v-15.123c0-0.353,0.287-0.639,0.639-0.639h8.125
			c0.353,0,0.639,0.286,0.639,0.639v15.123C135.913,275.812,135.626,276.098,135.274,276.098z M127.149,260.123
			c-0.117,0-0.213,0.096-0.213,0.213v15.123c0,0.117,0.096,0.213,0.213,0.213h8.125c0.118,0,0.213-0.096,0.213-0.213v-15.123
			c0-0.117-0.096-0.213-0.213-0.213H127.149z"/>
	</g>
	<g>
		<path class="st12" d="M143.653,261.03h-14.314c-0.592,0-1.072,0.48-1.072,1.072v7.554c0,0.592,0.48,1.071,1.072,1.071h14.314
			c0.592,0,1.072-0.479,1.072-1.071v-7.554C144.725,261.51,144.245,261.03,143.653,261.03z"/>
	</g>
	<g>
		<path class="st14" d="M143.468,270.891h-13.99c-0.824,0-1.494-0.67-1.494-1.494v-7.132c0-0.823,0.67-1.493,1.494-1.493h13.99
			c0.824,0,1.494,0.67,1.494,1.493v7.132C144.962,270.221,144.292,270.891,143.468,270.891z M129.478,261.197
			c-0.589,0-1.068,0.479-1.068,1.067v7.132c0,0.589,0.479,1.068,1.068,1.068h13.99c0.589,0,1.068-0.479,1.068-1.068v-7.132
			c0-0.589-0.479-1.067-1.068-1.067H129.478z"/>
	</g>
	<g>
		<path class="st14" d="M131.995,269.307L131.995,269.307l-2.24-0.003c-0.118,0-0.213-0.096-0.212-0.213
			c0-0.118,0.095-0.213,0.213-0.213l0,0l2.239,0.003c0.118,0,0.213,0.096,0.212,0.213
			C132.208,269.212,132.113,269.307,131.995,269.307z"/>
	</g>
	<g>
		<path class="st14" d="M135.258,269.31L135.258,269.31l-2.237-0.003c-0.118,0-0.213-0.096-0.212-0.213
			c0-0.118,0.095-0.213,0.213-0.213l0,0l2.237,0.003c0.118,0,0.213,0.096,0.212,0.213
			C135.471,269.215,135.375,269.31,135.258,269.31z"/>
	</g>
	<g>
		<path class="st1" d="M133.131,266.344v-1.824c0.001-0.096-0.178-0.173-0.399-0.173h-1.458c-0.124,0-0.241,0.023-0.316,0.065
			l-0.498,0.273c-0.054,0.03-0.084,0.067-0.084,0.106v1.325c0,0.036,0.024,0.07,0.07,0.098l0.372,0.23
			c0.075,0.047,0.199,0.074,0.33,0.074h1.582c0.221-0.002,0.399-0.079,0.401-0.173L133.131,266.344L133.131,266.344z"/>
	</g>
	<g>
		<path class="st2" d="M143.069,262.445h-5.881c-0.327,0-0.592,0.265-0.592,0.591v1.021c0,0.326,0.265,0.591,0.592,0.591h5.881
			c0.326,0,0.591-0.265,0.591-0.591v-1.021C143.66,262.71,143.395,262.445,143.069,262.445z"/>
	</g>
	<g>
		<ellipse class="st14" cx="131.484" cy="273.035" rx="1.461" ry="1.461"/>
	</g>
	<g>
		<path class="st19" d="M132.271,272.311c0.098,0.072,0.118,0.209,0.046,0.307l-0.953,1.291l-0.685-0.626
			c-0.09-0.082-0.096-0.22-0.014-0.31c0.081-0.089,0.22-0.095,0.309-0.014l0.326,0.298l0.665-0.9
			C132.037,272.26,132.174,272.239,132.271,272.311z"/>
	</g>
	<g>
		<path class="st6" d="M155.652,264.888h-1.172l-1.855-5.432h1.149l1.327,4.051l1.28-4.051h1.125L155.652,264.888z M158.47,260.48
			c-0.326,0-0.567-0.248-0.567-0.558c0-0.311,0.241-0.551,0.567-0.551c0.325,0,0.566,0.24,0.566,0.551
			C159.036,260.232,158.795,260.48,158.47,260.48z M158.989,264.888h-1.047v-3.826h1.047V264.888z M160.983,264.888h-1.048v-3.826
			h0.985v0.559c0.225-0.442,0.567-0.605,0.924-0.605c0.093,0,0.225,0.007,0.31,0.031v0.97c-0.163-0.024-0.256-0.031-0.388-0.031
			c-0.496,0-0.783,0.326-0.783,1.024L160.983,264.888L160.983,264.888z M164.232,264.966c-0.838,0-1.172-0.451-1.172-1.071v-1.964
			h-0.535v-0.869h0.217c0.233,0,0.349-0.116,0.349-0.349v-0.691h1.017v1.04h0.792v0.869h-0.792v1.715
			c0,0.287,0.085,0.427,0.396,0.427c0.163,0,0.264-0.031,0.396-0.07v0.862C164.698,264.927,164.434,264.966,164.232,264.966z
			 M166.908,264.966c-0.923,0-1.389-0.489-1.389-1.646v-2.258h1.04v2.181c0,0.628,0.217,0.838,0.644,0.838
			c0.45,0,0.714-0.326,0.714-0.947v-2.072h1.047v3.826h-0.985v-0.481C167.723,264.787,167.366,264.966,166.908,264.966z
			 M171.537,260.977c1.141,0,1.638,0.473,1.638,1.606v2.305h-0.986v-0.497c-0.225,0.334-0.597,0.59-1.141,0.59
			c-0.822,0-1.334-0.419-1.334-1.11c0-0.783,0.667-1.202,1.691-1.202c0.295,0,0.513,0.023,0.73,0.069v-0.302
			c0-0.474-0.21-0.675-0.636-0.675c-0.412,0-0.629,0.217-0.652,0.52h-1.04C169.884,261.396,170.606,260.977,171.537,260.977z
			 M171.336,264.19c0.419,0,0.799-0.295,0.799-0.761v-0.046c-0.194-0.055-0.365-0.078-0.636-0.078c-0.466,0-0.745,0.147-0.745,0.466
			C170.754,264.034,170.932,264.19,171.336,264.19z M175.17,264.935c-0.761,0-1.094-0.342-1.094-1.033v-4.446h1.047v4.206
			c0,0.271,0.07,0.396,0.318,0.396c0.039,0,0.086,0,0.132-0.008v0.838C175.473,264.911,175.348,264.935,175.17,264.935z
			 M179.798,264.981c-1.141,0-1.886-0.784-1.886-2.01c0-1.21,0.769-1.994,1.917-1.994c0.939,0,1.661,0.473,1.785,1.443h-1.063
			c-0.132-0.388-0.38-0.574-0.753-0.574c-0.52,0-0.846,0.404-0.846,1.125c0,0.722,0.318,1.133,0.846,1.133
			c0.38,0,0.66-0.209,0.768-0.636h1.056C181.466,264.415,180.768,264.981,179.798,264.981z M183.806,260.977
			c1.141,0,1.638,0.473,1.638,1.606v2.305h-0.986v-0.497c-0.225,0.334-0.597,0.59-1.141,0.59c-0.822,0-1.334-0.419-1.334-1.11
			c0-0.783,0.667-1.202,1.691-1.202c0.295,0,0.513,0.023,0.73,0.069v-0.302c0-0.474-0.21-0.675-0.636-0.675
			c-0.412,0-0.629,0.217-0.652,0.52h-1.04C182.153,261.396,182.875,260.977,183.806,260.977z M183.605,264.19
			c0.419,0,0.799-0.295,0.799-0.761v-0.046c-0.194-0.055-0.365-0.078-0.636-0.078c-0.466,0-0.745,0.147-0.745,0.466
			C183.023,264.034,183.201,264.19,183.605,264.19z M187.392,264.888h-1.047v-3.826h0.985v0.559
			c0.225-0.442,0.567-0.605,0.924-0.605c0.093,0,0.225,0.007,0.31,0.031v0.97c-0.163-0.024-0.256-0.031-0.388-0.031
			c-0.497,0-0.784,0.326-0.784,1.024V264.888z M190.578,264.981c-1.04,0-1.708-0.784-1.708-2.01c0-1.21,0.699-1.994,1.708-1.994
			c0.442,0,0.776,0.147,1.047,0.442v-1.963h1.04v5.432h-0.978v-0.442C191.377,264.803,191.028,264.981,190.578,264.981z
			 M190.779,264.104c0.551,0,0.877-0.403,0.877-1.133c0-0.721-0.326-1.125-0.877-1.125c-0.543,0-0.869,0.404-0.869,1.125
			C189.91,263.701,190.236,264.104,190.779,264.104z"/>
	</g>
	<g>
		<path class="st9" d="M153.868,276.957h-0.653v-4.707h0.653V276.957z M155.547,276.957h-0.625v-3.302h0.599v0.431
			c0.255-0.357,0.551-0.505,1.008-0.505c0.767,0,1.15,0.431,1.15,1.359v2.017h-0.625v-1.963c0-0.592-0.195-0.841-0.666-0.841
			c-0.598,0-0.841,0.403-0.841,1.076L155.547,276.957L155.547,276.957z M159.782,277.031c-0.813,0-1.304-0.37-1.398-1.062h0.638
			c0.074,0.383,0.337,0.538,0.774,0.538c0.471,0,0.726-0.121,0.726-0.437c0-0.249-0.168-0.377-0.625-0.485l-0.289-0.067
			c-0.801-0.188-1.117-0.477-1.117-0.982c0-0.612,0.471-0.955,1.251-0.955c0.8,0,1.285,0.357,1.352,1.016h-0.639
			c-0.054-0.357-0.296-0.491-0.699-0.491c-0.411,0-0.639,0.107-0.639,0.397c0,0.235,0.154,0.363,0.591,0.464l0.296,0.067
			c0.801,0.181,1.144,0.471,1.144,0.995C161.148,276.668,160.637,277.031,159.782,277.031z M162.912,277.011
			c-0.665,0-0.894-0.336-0.894-0.874v-1.917h-0.498v-0.565h0.195c0.209,0,0.303-0.094,0.303-0.302v-0.612h0.625v0.914h0.754v0.565
			h-0.754v1.782c0,0.283,0.068,0.437,0.424,0.437c0.128,0,0.215-0.013,0.33-0.047v0.552
			C163.235,276.984,163.074,277.011,162.912,277.011z M165.283,273.581c0.854,0,1.311,0.377,1.311,1.332v2.044h-0.598V276.5
			c-0.202,0.289-0.511,0.531-1.029,0.531c-0.666,0-1.137-0.343-1.137-0.928c0-0.679,0.572-1.029,1.419-1.029
			c0.249,0,0.471,0.02,0.72,0.074v-0.336c0-0.498-0.256-0.693-0.7-0.693c-0.45,0-0.679,0.195-0.726,0.538h-0.632
			C163.965,273.965,164.53,273.581,165.283,273.581z M165.088,276.507c0.471,0,0.881-0.343,0.881-0.821v-0.054
			c-0.236-0.06-0.437-0.087-0.7-0.087c-0.504,0-0.807,0.161-0.807,0.504C164.462,276.339,164.657,276.507,165.088,276.507z
			 M168.19,276.957h-0.625v-3.302h0.598v0.431c0.256-0.357,0.552-0.505,1.009-0.505c0.767,0,1.15,0.431,1.15,1.359v2.017h-0.625
			v-1.963c0-0.592-0.195-0.841-0.666-0.841c-0.599,0-0.841,0.403-0.841,1.076V276.957z M172.304,277.011
			c-0.666,0-0.894-0.336-0.894-0.874v-1.917h-0.498v-0.565h0.195c0.209,0,0.303-0.094,0.303-0.302v-0.612h0.625v0.914h0.753v0.565
			h-0.753v1.782c0,0.283,0.067,0.437,0.424,0.437c0.128,0,0.215-0.013,0.329-0.047v0.552
			C172.627,276.984,172.466,277.011,172.304,277.011z M176.546,273.581c0.855,0,1.312,0.377,1.312,1.332v2.044h-0.599V276.5
			c-0.201,0.289-0.511,0.531-1.029,0.531c-0.666,0-1.136-0.343-1.136-0.928c0-0.679,0.571-1.029,1.419-1.029
			c0.249,0,0.471,0.02,0.719,0.074v-0.336c0-0.498-0.255-0.693-0.699-0.693c-0.451,0-0.679,0.195-0.726,0.538h-0.633
			C175.228,273.965,175.793,273.581,176.546,273.581z M176.351,276.507c0.471,0,0.881-0.343,0.881-0.821v-0.054
			c-0.235-0.06-0.437-0.087-0.699-0.087c-0.504,0-0.807,0.161-0.807,0.504C175.726,276.339,175.921,276.507,176.351,276.507z
			 M179.454,276.957h-0.626v-3.302h0.599v0.431c0.256-0.357,0.551-0.505,1.009-0.505c0.766,0,1.15,0.431,1.15,1.359v2.017h-0.626
			v-1.963c0-0.592-0.195-0.841-0.665-0.841c-0.599,0-0.841,0.403-0.841,1.076L179.454,276.957L179.454,276.957z M183.783,277.031
			c-0.888,0-1.466-0.679-1.466-1.728c0-1.043,0.592-1.722,1.466-1.722c0.437,0,0.72,0.135,1.009,0.478v-1.809h0.625v4.707h-0.598
			v-0.444C184.509,276.877,184.22,277.031,183.783,277.031z M183.87,276.466c0.592,0,0.935-0.403,0.935-1.163
			c0-0.76-0.343-1.157-0.935-1.157c-0.585,0-0.934,0.397-0.934,1.157C182.936,276.063,183.285,276.466,183.87,276.466z
			 M189.013,276.957h-0.619v-2.737h-0.498v-0.565h0.491v-0.578c0-0.572,0.357-0.901,0.982-0.901c0.141,0,0.276,0.02,0.404,0.053
			v0.565c-0.101-0.033-0.195-0.047-0.296-0.047c-0.303,0-0.464,0.101-0.464,0.431v0.477h0.692v0.565h-0.692L189.013,276.957
			L189.013,276.957z M191.11,276.998c-0.592,0-0.821-0.269-0.821-0.801v-3.947h0.626v3.82c0,0.262,0.08,0.376,0.316,0.376
			c0.047,0,0.094,0,0.148-0.007v0.525C191.305,276.984,191.204,276.998,191.11,276.998z M194.774,275.202v0.222H192.4
			c0.034,0.713,0.41,1.056,0.935,1.056c0.41,0,0.639-0.148,0.78-0.484h0.646c-0.242,0.739-0.807,1.035-1.426,1.035
			c-0.928,0-1.574-0.679-1.574-1.728c0-1.143,0.693-1.722,1.554-1.722C194.209,273.581,194.774,274.26,194.774,275.202z
			 M192.42,274.953h1.702c-0.04-0.565-0.33-0.834-0.807-0.834C192.837,274.119,192.508,274.382,192.42,274.953z M195.747,276.957
			h-0.706l1.123-1.694l-1.063-1.608h0.72l0.713,1.117l0.706-1.117h0.706l-1.069,1.594l1.13,1.708h-0.72l-0.78-1.217L195.747,276.957
			z M198.913,273.003c-0.208,0-0.363-0.162-0.363-0.37c0-0.202,0.155-0.363,0.363-0.363c0.209,0,0.363,0.161,0.363,0.363
			C199.276,272.841,199.122,273.003,198.913,273.003z M199.223,276.957h-0.626v-3.302h0.626V276.957z M201.86,277.031
			c-0.444,0-0.733-0.148-1.029-0.504v0.43h-0.598v-4.707h0.625v1.829c0.289-0.35,0.578-0.498,1.009-0.498
			c0.888,0,1.466,0.679,1.466,1.722C203.333,276.352,202.755,277.031,201.86,277.031z M201.779,276.466
			c0.586,0,0.935-0.403,0.935-1.163c0-0.76-0.349-1.157-0.935-1.157c-0.591,0-0.934,0.397-0.934,1.157
			C200.845,276.063,201.188,276.466,201.779,276.466z M204.928,276.998c-0.592,0-0.82-0.269-0.82-0.801v-3.947h0.625v3.82
			c0,0.262,0.081,0.376,0.316,0.376c0.047,0,0.094,0,0.148-0.007v0.525C205.123,276.984,205.022,276.998,204.928,276.998z
			 M208.593,275.202v0.222h-2.374c0.033,0.713,0.41,1.056,0.934,1.056c0.411,0,0.639-0.148,0.781-0.484h0.645
			c-0.242,0.739-0.807,1.035-1.426,1.035c-0.928,0-1.573-0.679-1.573-1.728c0-1.143,0.692-1.722,1.553-1.722
			C208.028,273.581,208.593,274.26,208.593,275.202z M206.239,274.953h1.701c-0.04-0.565-0.329-0.834-0.807-0.834
			C206.656,274.119,206.326,274.382,206.239,274.953z"/>
	</g>
	<g>
		<path class="st5" d="M270.919,272.276c0.404,0.404,1.059,0.404,1.463,0l4.353-4.353l-4.353-4.353
			c-0.404-0.404-1.059-0.404-1.463,0c-0.404,0.404-0.404,1.059,0,1.463l2.89,2.89l-2.89,2.889
			C270.515,271.216,270.515,271.872,270.919,272.276z"/>
	</g>
</g>
</svg>
