<?xml version="1.0" encoding="utf-8"?>
<!-- Generator: Adobe Illustrator 28.0.0, SVG Export Plug-In . SVG Version: 6.00 Build 0)  -->
<svg version="1.1" id="Layer_1" xmlns="http://www.w3.org/2000/svg" xmlns:xlink="http://www.w3.org/1999/xlink" x="0px" y="0px"
	 viewBox="0 0 375 243" style="enable-background:new 0 0 375 243;" xml:space="preserve">
<style type="text/css">
	.st0{clip-path:url(#SVGID_00000010269852074394166570000018077247069696708030_);}
	.st1{fill:#03D47C;}
	.st2{fill:#002140;}
	.st3{fill:#780505;}
	.st4{fill:none;stroke:#002140;stroke-width:0.999;stroke-linecap:round;stroke-linejoin:round;}
	.st5{fill:#F25730;}
	.st6{fill:#FFFAF0;}
	.st7{fill:#008C59;}
	.st8{fill:#0185FF;}
	.st9{fill:#A5FBFF;}
	.st10{fill:#8F3013;}
	.st11{fill:#712A76;}
	.st12{fill:#E96DF2;}
	.st13{fill:#FF7101;}
	.st14{fill:#F68DFE;}
	.st15{fill:#00B268;}
	.st16{fill:#5BE3AA;}
	.st17{fill:#B1F2D6;}
	.st18{fill:none;stroke:#002140;stroke-width:0.999;stroke-miterlimit:10;}
	.st19{fill:#B1F2D6;stroke:#002140;stroke-width:0.999;stroke-miterlimit:10;}
	.st20{fill:#5BE3AA;stroke:#002140;stroke-width:0.999;stroke-miterlimit:10;}
	.st21{fill:#28736D;stroke:#002140;stroke-width:0.999;stroke-miterlimit:10;}
	.st22{fill:#002140;stroke:#002140;stroke-width:0.999;stroke-miterlimit:10;}
</style>
<g>
	<defs>
		<polyline id="SVGID_1_" points="375,0.5 375,242.5 0,242.5 0,0.5 		"/>
	</defs>
	<clipPath id="SVGID_00000181076255449018904830000005293959111241456785_">
		<use xlink:href="#SVGID_1_"  style="overflow:visible;"/>
	</clipPath>
	<g style="clip-path:url(#SVGID_00000181076255449018904830000005293959111241456785_);">
		<path class="st1" d="M200.296,69.203v0.503h-22.494v-25.64c0-2.996,1.188-5.732,3.114-7.751c2.051-2.151,4.941-3.496,8.133-3.496
			c3.193,0,5.904,1.263,7.944,3.303c2.041,2.04,3.303,4.851,3.303,7.944V69.203z"/>
		<path class="st2" d="M197.036,36.079l-0.043,0.043c-2.04-2.04-4.851-3.303-7.944-3.303c-3.092,0-6.082,1.345-8.133,3.496
			l-0.021-0.021c6.663-7.013,7.958-16.009,8.211-19.476C189.106,20.226,189.873,28.973,197.036,36.079z"/>
		<path class="st3" d="M189.049,11.162c1.156,0,2.098,0.938,2.098,2.097s-0.942,2.101-2.098,2.101c-1.156,0-2.101-0.942-2.101-2.101
			S187.89,11.162,189.049,11.162z"/>
		<path class="st4" d="M191.147,13.26c0,1.159-0.942,2.101-2.098,2.101c-1.156,0-2.101-0.942-2.101-2.101s0.942-2.097,2.101-2.097
			S191.147,12.101,191.147,13.26z"/>
		<path class="st4" d="M189.106,16.816c0,3.41,0.767,12.157,7.93,19.262c0.089,0.086,0.178,0.175,0.271,0.264"/>
		<path class="st4" d="M189.106,16.788c0.064-0.906,0.057-1.427,0.057-1.427S189.106,15.882,189.106,16.788z"/>
		<path class="st4" d="M189.106,16.788v0.028"/>
		<path class="st4" d="M180.688,36.51c0.071-0.071,0.139-0.146,0.207-0.218c6.663-7.013,7.958-16.009,8.211-19.476"/>
		<path class="st4" d="M196.993,36.121c2.037,2.037,3.303,4.851,3.303,7.944v25.64h-22.494v-25.64c0-2.996,1.188-5.732,3.114-7.751
			c2.051-2.151,4.941-3.496,8.133-3.496C192.242,32.818,194.953,34.081,196.993,36.121z"/>
		<path class="st5" d="M189.049,36.343c4.031,0,7.302,3.267,7.302,7.302s-3.271,7.302-7.302,7.302c-4.031,0-7.302-3.267-7.302-7.302
			S185.015,36.343,189.049,36.343z M193.497,43.645c0-0.46-0.071-0.906-0.199-1.323c-0.261-0.835-0.76-1.566-1.42-2.108
			c-0.492-0.407-1.077-0.71-1.719-0.878c-0.354-0.089-0.725-0.139-1.11-0.139c-2.458,0-4.448,1.99-4.448,4.448
			c0,0.417,0.057,0.824,0.168,1.206c0.167,0.603,0.46,1.156,0.845,1.623c0.364,0.439,0.81,0.81,1.316,1.081
			c0.628,0.342,1.352,0.539,2.119,0.539C191.503,48.093,193.497,46.102,193.497,43.645z"/>
		<path class="st2" d="M193.298,42.321c0.128,0.417,0.199,0.863,0.199,1.323c0,2.458-1.994,4.448-4.448,4.448
			c-0.767,0-1.491-0.196-2.119-0.539l0.807-0.05l5.122-4.951L193.298,42.321z"/>
		<path class="st6" d="M193.298,42.321l-0.439,0.232l-5.122,4.951l-0.807,0.05c-0.506-0.271-0.952-0.642-1.316-1.081l0.278-0.143
			l5.54-5.458l0.446-0.66C192.538,40.755,193.037,41.486,193.298,42.321z"/>
		<path class="st2" d="M191.878,40.213l-0.446,0.66l-5.54,5.458l-0.278,0.143c-0.385-0.467-0.678-1.02-0.845-1.623l0.114-0.032
			l5.037-5.033l0.239-0.45C190.801,39.503,191.386,39.806,191.878,40.213z"/>
		<path class="st6" d="M190.159,39.335l-0.239,0.45l-5.037,5.033l-0.114,0.032c-0.111-0.382-0.168-0.788-0.168-1.206
			c0-2.458,1.99-4.448,4.448-4.448C189.434,39.196,189.805,39.246,190.159,39.335z"/>
		<path class="st4" d="M189.049,50.946c4.033,0,7.302-3.269,7.302-7.302s-3.269-7.302-7.302-7.302c-4.033,0-7.302,3.269-7.302,7.302
			S185.016,50.946,189.049,50.946z"/>
		<path class="st4" d="M193.298,42.321c0.128,0.417,0.199,0.863,0.199,1.323c0,2.458-1.994,4.448-4.448,4.448
			c-0.767,0-1.491-0.196-2.119-0.539c-0.506-0.271-0.952-0.642-1.316-1.081c-0.385-0.467-0.678-1.02-0.845-1.623
			c-0.111-0.382-0.168-0.788-0.168-1.206c0-2.458,1.99-4.448,4.448-4.448c0.385,0,0.756,0.05,1.11,0.139
			c0.642,0.168,1.227,0.471,1.719,0.877C192.538,40.755,193.037,41.486,193.298,42.321z"/>
		<path class="st4" d="M184.883,44.818l5.037-5.033"/>
		<path class="st4" d="M185.892,46.331l5.54-5.458"/>
		<path class="st4" d="M187.736,47.504l5.123-4.951"/>
		<path class="st7" d="M210.224,191.533v6.842h31.055v-6.842h-0.336h-5.015h-3.792h-3.342h-3.567h-3.792h-3.342h-3.568h-3.791
			h-0.257H210.224z"/>
		<path class="st8" d="M210.224,185.112v6.421h0.253h0.257v-0.107l2.953-2.95l-2.796-2.793v-0.571h-0.414H210.224z"/>
		<path class="st7" d="M210.224,178.902v6.21h0.253h0.414h3.791h3.568h3.342h3.792h3.567h3.342h3.792h4.858h0.336v-6.21H210.224z"/>
		<path class="st9" d="M210.734,191.426v0.107h3.791v-0.107l2.95-2.95l-2.793-2.793v-0.571h-3.791v0.571l2.796,2.793
			L210.734,191.426z"/>
		<path class="st8" d="M214.525,191.426v0.107h3.568v-0.107l2.95-2.95l-2.793-2.793v-0.571h-3.568v0.571l2.793,2.793
			L214.525,191.426z"/>
		<path class="st9" d="M218.093,191.426v0.107h3.342v-0.107l2.954-2.95l-2.797-2.793v-0.571h-3.342v0.571l2.793,2.793
			L218.093,191.426z"/>
		<path class="st8" d="M221.435,191.426v0.107h3.792v-0.107l2.95-2.95l-2.793-2.793v-0.571h-3.792v0.571l2.797,2.793
			L221.435,191.426z"/>
		<path class="st3" d="M225.227,191.426v0.107h3.567v-0.107l2.95-2.95l-2.793-2.793v-0.571h-3.567v0.571l2.793,2.793
			L225.227,191.426z"/>
		<path class="st10" d="M228.794,191.426v0.107h3.342v-0.107l2.954-2.95l-2.797-2.793v-0.571h-3.342v0.571l2.793,2.793
			L228.794,191.426z"/>
		<path class="st3" d="M232.136,191.426v0.107h3.792v-0.107l2.95-2.95l-2.793-2.793v-0.571h-3.792v0.571l2.797,2.793
			L232.136,191.426z"/>
		<path class="st10" d="M235.928,191.426v0.107h5.016h0.335v-6.421h-0.335h-4.859v0.571l2.793,2.793L235.928,191.426z"/>
		<path class="st4" d="M210.224,191.533v6.842h31.055v-6.842v-6.421v-6.21h-31.055v6.21V191.533z"/>
		<path class="st4" d="M240.943,185.112h-4.858h-3.792h-3.342h-3.567h-3.792h-3.342h-3.568h-3.791h-0.414"/>
		<path class="st4" d="M240.943,191.533h-5.015h-3.792h-3.342h-3.567h-3.792h-3.342h-3.568h-3.791h-0.257"/>
		<path class="st4" d="M228.794,191.426l2.95-2.95l-2.793-2.793"/>
		<path class="st4" d="M232.136,191.426l2.954-2.95l-2.797-2.793"/>
		<path class="st4" d="M235.928,191.426l2.95-2.95l-2.793-2.793"/>
		<path class="st4" d="M218.093,191.426l2.95-2.95l-2.793-2.793"/>
		<path class="st4" d="M221.435,191.426l2.954-2.95l-2.797-2.793"/>
		<path class="st4" d="M225.227,191.426l2.95-2.95l-2.793-2.793"/>
		<path class="st4" d="M210.734,191.426l2.953-2.95l-2.796-2.793"/>
		<path class="st4" d="M214.525,191.426l2.95-2.95l-2.793-2.793"/>
		<path class="st1" d="M239.181,216.46v6.967c0,4.362,3.567,7.933,7.93,7.933c1.966,0,3.767-0.724,5.155-1.915
			c1.387-1.192,2.361-2.854,2.671-4.734l-0.021-0.275h-7.805c-2.14,0-2.768-1.009-2.768-3.149v-4.827H239.181z"/>
		<path class="st2" d="M239.181,175.438v41.022h5.162v-41.022H239.181z"/>
		<path class="st1" d="M239.181,168.033v7.405h5.162v-4.783c0-2.14,0.628-3.146,2.768-3.146h7.805l0.061-0.492
			c-0.5-3.885-3.846-6.917-7.866-6.917c-2.179,0-4.163,0.892-5.6,2.329C240.073,163.867,239.181,165.85,239.181,168.033z"/>
		<path class="st5" d="M244.343,216.46v4.827c0,2.14,0.628,3.149,2.768,3.149h7.805c0,0,2.772-0.128,2.772-2.14
			c0-1.07-0.746-1.573-1.445-1.805c-0.617-0.21-1.199-0.21-1.199-0.21h-6.549v-48.617h6.549c0,0,0.582,0,1.199-0.21
			c0.699-0.232,1.445-0.735,1.445-1.805c0-2.015-2.772-2.14-2.772-2.14h-7.805c-2.14,0-2.768,1.006-2.768,3.146V216.46z"/>
		<path class="st11" d="M248.495,214.784v5.497h4.199v-0.382c-0.268-1.826,0.756-3.77,2.411-4.584
			c0.446-0.221,0.952-0.381,1.266-0.767c0.275-0.335,0.353-0.781,0.492-1.191c0.222-0.674,0.639-1.306,1.256-1.655
			c0.617-0.35,1.448-0.357,1.998,0.085l0.224,0.079c0.364-1.07,0.717-2.237,1.031-3.492l-0.153-0.036
			c-0.874,0.267-1.848,0.321-2.686-0.039c-0.838-0.361-1.505-1.199-1.491-2.112c0.014-0.981,0.742-1.776,1.248-2.618
			c0.507-0.839,0.739-2.083-0.042-2.679c-0.582-0.443-1.402-0.275-2.123-0.41c-1.363-0.261-2.294-1.87-1.833-3.182
			c0.535-1.541,2.464-2.226,3.078-3.739c0.392-0.97,0.161-2.058,0.046-3.096c-0.11-1.038-0.035-2.233,0.764-2.907
			c1.102-0.931,3.446,0.389,3.913,1.755h0.014c-0.574-3.617-1.573-7.487-3.146-11.59c0,0.528-0.61,1.395-1.013,1.648
			c-0.435,0.275-0.942,0.446-1.306,0.81c-0.806,0.81-0.563,2.137-0.474,3.275c0.075,0.97-0.064,2.069-0.821,2.679
			c-1.009,0.813-2.661,0.249-3.299-0.878c-0.639-1.123-0.464-2.55,0.032-3.745c0.271-0.653,0.631-1.274,0.795-1.962
			c0.161-0.685,0.083-1.488-0.424-1.98c-0.521-0.506-1.316-0.549-2.023-0.721c-0.692-0.164-1.805-0.881-1.805-1.59h-0.128v11.882
			h0.132c1.17,0.135,2.269,0.813,2.914,1.797c0.646,0.989,0.828,2.262,0.485,3.393c-0.246,0.806-0.749,1.555-0.759,2.397
			c-0.007,0.642,0.271,1.241,0.456,1.855c0.328,1.091,0.35,2.315-0.142,3.342c-0.496,1.027-1.57,1.809-2.708,1.769h-0.378v5.119
			h0.378c0.674-0.114,0.81-0.642,1.035-1.284c0.274-0.792,0.335-1.709,0.856-2.369c0.403-0.513,0.752-0.881,1.937-0.877
			c0.77,0,1.444,0.571,1.762,1.273c0.485,1.067,0.324,2.394-0.396,3.318c-0.46,0.585-1.149,1.066-1.27,1.801
			c-0.103,0.632,0.253,1.234,0.464,1.841c0.428,1.22,0.232,2.679-0.635,3.638c-0.867,0.96-2.412,1.288-3.525,0.632H248.495z"/>
		<path class="st12" d="M248.495,206.811v7.973h0.606c1.113,0.656,2.658,0.328,3.525-0.632c0.867-0.959,1.063-2.418,0.635-3.638
			c-0.211-0.607-0.567-1.209-0.464-1.841c0.121-0.735,0.81-1.216,1.27-1.801c0.72-0.924,0.881-2.251,0.396-3.318
			c-0.318-0.702-0.992-1.273-1.762-1.273c-1.185-0.004-1.534,0.364-1.937,0.877c-0.521,0.66-0.582,1.577-0.856,2.369
			c-0.225,0.642-0.361,1.17-1.035,1.284H248.495z"/>
		<path class="st12" d="M248.495,192.835v8.857h0.378c1.138,0.04,2.212-0.742,2.708-1.769c0.492-1.027,0.47-2.251,0.142-3.342
			c-0.185-0.614-0.463-1.213-0.456-1.855c0.01-0.842,0.513-1.591,0.759-2.397c0.343-1.131,0.161-2.404-0.485-3.393
			c-0.645-0.984-1.744-1.662-2.914-1.797h-0.132V192.835z"/>
		<path class="st12" d="M248.623,175.257c0,0.709,1.113,1.426,1.805,1.59c0.707,0.172,1.502,0.215,2.023,0.721
			c0.507,0.492,0.585,1.295,0.424,1.98c-0.164,0.688-0.524,1.309-0.795,1.962c-0.496,1.195-0.671,2.622-0.032,3.745
			c0.638,1.127,2.29,1.691,3.299,0.878c0.757-0.61,0.896-1.709,0.821-2.679c-0.089-1.138-0.332-2.465,0.474-3.275
			c0.364-0.364,0.871-0.535,1.306-0.81c0.403-0.253,1.013-1.12,1.013-1.648c-0.749-1.961-1.63-3.973-2.658-6.035l-0.06-0.232
			c-0.617,0.21-1.199,0.21-1.199,0.21h-6.549v3.593H248.623z"/>
		<path class="st12" d="M255.105,215.315c-1.655,0.814-2.679,2.758-2.411,4.584v0.382h2.35c0,0,0.582,0,1.199,0.21l0.06-0.335
			c0,0,2.209-2.957,4.038-8.29l-0.224-0.079c-0.55-0.442-1.381-0.435-1.998-0.085c-0.617,0.349-1.034,0.981-1.255,1.655
			c-0.14,0.41-0.218,0.856-0.493,1.191C256.057,214.934,255.551,215.094,255.105,215.315z"/>
		<path class="st12" d="M254.292,197.298c-0.461,1.312,0.47,2.921,1.833,3.182c0.721,0.135,1.541-0.033,2.123,0.41
			c0.781,0.596,0.549,1.84,0.042,2.679c-0.506,0.842-1.234,1.637-1.248,2.618c-0.014,0.913,0.653,1.751,1.491,2.112
			c0.838,0.36,1.812,0.306,2.686,0.039l0.153,0.036c1.26-5.009,1.941-11.462,0.735-19.067h-0.014
			c-0.467-1.362-2.811-2.682-3.913-1.751c-0.799,0.674-0.874,1.869-0.764,2.907c0.115,1.038,0.346,2.126-0.046,3.096
			C256.756,195.072,254.827,195.757,254.292,197.298z"/>
		<path class="st4" d="M254.977,167.017c-0.5-3.885-3.846-6.917-7.866-6.917c-2.179,0-4.163,0.892-5.6,2.329
			c-1.438,1.438-2.33,3.421-2.33,5.604v55.394c0,4.362,3.567,7.933,7.93,7.933c1.966,0,3.767-0.724,5.154-1.915
			c1.388-1.192,2.362-2.854,2.672-4.734"/>
		<path class="st4" d="M248.495,201.692v-30.028h6.549c0,0,0.582,0,1.199-0.21c0.699-0.232,1.445-0.735,1.445-1.805
			c0-2.015-2.772-2.14-2.772-2.14h-7.805c-2.14,0-2.768,1.006-2.768,3.146v50.632c0,2.14,0.628,3.149,2.768,3.149h7.805
			c0,0,2.772-0.128,2.772-2.14c0-1.07-0.746-1.573-1.445-1.805c-0.617-0.21-1.199-0.21-1.199-0.21h-6.549V201.692z"/>
		<path class="st4" d="M256.303,171.686c1.028,2.062,1.909,4.074,2.658,6.035c1.573,4.103,2.572,7.973,3.146,11.586
			c1.206,7.605,0.525,14.058-0.735,19.067c-0.314,1.255-0.667,2.422-1.031,3.492c-1.829,5.333-4.038,8.29-4.038,8.29"/>
		<path class="st4" d="M243.965,175.438h-4.156"/>
		<path class="st4" d="M243.965,216.46h-4.156"/>
		<path class="st4" d="M258.947,177.6c0.007,0.039,0.014,0.079,0.014,0.121c0,0.528-0.61,1.395-1.013,1.648
			c-0.435,0.275-0.942,0.446-1.306,0.81c-0.806,0.81-0.563,2.137-0.474,3.275c0.075,0.97-0.064,2.069-0.821,2.679
			c-1.009,0.813-2.661,0.249-3.299-0.878c-0.639-1.123-0.464-2.55,0.032-3.745c0.271-0.653,0.631-1.274,0.795-1.962
			c0.161-0.685,0.083-1.488-0.424-1.98c-0.521-0.506-1.316-0.549-2.023-0.721c-0.692-0.164-1.804-0.881-1.804-1.59v-0.047"/>
		<path class="st4" d="M248.627,187.139c1.17,0.135,2.269,0.813,2.914,1.797c0.646,0.989,0.828,2.262,0.486,3.393
			c-0.247,0.806-0.75,1.555-0.76,2.397c-0.007,0.642,0.271,1.241,0.456,1.855c0.328,1.091,0.35,2.315-0.142,3.342
			c-0.496,1.027-1.57,1.809-2.708,1.769"/>
		<path class="st4" d="M261.219,208.338c-0.874,0.267-1.848,0.321-2.686-0.039c-0.838-0.361-1.505-1.199-1.491-2.112
			c0.014-0.981,0.742-1.776,1.248-2.618c0.507-0.839,0.739-2.083-0.042-2.679c-0.582-0.443-1.402-0.275-2.123-0.41
			c-1.363-0.261-2.294-1.87-1.833-3.182c0.535-1.541,2.464-2.226,3.078-3.739c0.392-0.97,0.161-2.058,0.046-3.096
			c-0.11-1.038-0.035-2.233,0.764-2.907c1.102-0.931,3.446,0.389,3.913,1.755"/>
		<path class="st4" d="M248.873,206.811c0.674-0.114,0.81-0.642,1.035-1.284c0.274-0.792,0.335-1.709,0.856-2.369
			c0.403-0.513,0.752-0.881,1.937-0.877c0.77,0,1.444,0.571,1.762,1.273c0.485,1.067,0.324,2.394-0.396,3.318
			c-0.46,0.585-1.149,1.066-1.27,1.801c-0.103,0.632,0.253,1.234,0.464,1.841c0.428,1.22,0.232,2.679-0.635,3.638
			c-0.867,0.96-2.412,1.288-3.525,0.632"/>
		<path class="st4" d="M252.694,219.899c-0.268-1.826,0.756-3.77,2.411-4.584c0.446-0.221,0.952-0.381,1.266-0.767
			c0.275-0.335,0.353-0.781,0.493-1.191c0.221-0.674,0.638-1.306,1.255-1.655c0.617-0.35,1.448-0.357,1.998,0.085"/>
		<path class="st10" d="M250.229,157.835c1.073,0,1.951,0.877,1.951,1.951c0,0.535-0.221,1.024-0.574,1.377
			c-0.354,0.357-0.839,0.574-1.377,0.574h-7.242c-1.073,0-1.951-0.877-1.951-1.951c0-0.535,0.221-1.024,0.575-1.377
			c0.353-0.357,0.838-0.574,1.376-0.574H250.229z"/>
		<path class="st4" d="M250.229,161.737h-7.242c-1.073,0-1.951-0.877-1.951-1.951c0-0.535,0.221-1.024,0.575-1.377
			c0.353-0.357,0.838-0.574,1.376-0.574h7.242c1.073,0,1.951,0.877,1.951,1.951c0,0.535-0.221,1.024-0.574,1.377
			C251.252,161.52,250.767,161.737,250.229,161.737z"/>
		<path class="st7" d="M167.433,191.533v6.842h-31.056v-6.842h0.336h5.015h3.792h3.342h3.567h3.792h3.342h3.568h3.791h0.257H167.433
			z"/>
		<path class="st8" d="M167.433,185.112v6.421h-0.254h-0.257v-0.107l-2.953-2.95l2.796-2.793v-0.571h0.414H167.433z"/>
		<path class="st7" d="M167.433,178.902v6.21h-0.254h-0.414h-3.791h-3.567h-3.343h-3.792h-3.567h-3.342h-3.792h-4.858h-0.336v-6.21
			H167.433z"/>
		<path class="st9" d="M166.922,191.426v0.107h-3.791v-0.107l-2.95-2.95l2.793-2.793v-0.571h3.791v0.571l-2.796,2.793
			L166.922,191.426z"/>
		<path class="st8" d="M163.131,191.426v0.107h-3.568v-0.107l-2.95-2.95l2.794-2.793v-0.571h3.567v0.571l-2.793,2.793
			L163.131,191.426z"/>
		<path class="st9" d="M159.563,191.426v0.107h-3.342v-0.107l-2.953-2.95l2.796-2.793v-0.571h3.343v0.571l-2.794,2.793
			L159.563,191.426z"/>
		<path class="st8" d="M156.221,191.426v0.107h-3.792v-0.107l-2.95-2.95l2.793-2.793v-0.571h3.792v0.571l-2.796,2.793
			L156.221,191.426z"/>
		<path class="st3" d="M152.429,191.426v0.107h-3.567v-0.107l-2.95-2.95l2.793-2.793v-0.571h3.567v0.571l-2.793,2.793
			L152.429,191.426z"/>
		<path class="st10" d="M148.862,191.426v0.107h-3.342v-0.107l-2.954-2.95l2.797-2.793v-0.571h3.342v0.571l-2.793,2.793
			L148.862,191.426z"/>
		<path class="st3" d="M145.52,191.426v0.107h-3.792v-0.107l-2.95-2.95l2.793-2.793v-0.571h3.792v0.571l-2.797,2.793L145.52,191.426
			z"/>
		<path class="st10" d="M141.728,191.426v0.107h-5.015h-0.336v-6.421h0.336h4.858v0.571l-2.793,2.793L141.728,191.426z"/>
		<path class="st4" d="M167.433,191.533v6.842h-31.056v-6.842v-6.421v-6.21h31.056v6.21V191.533z"/>
		<path class="st4" d="M136.713,185.112h4.858h3.792h3.342h3.567h3.792h3.343h3.567h3.791h0.414"/>
		<path class="st4" d="M136.713,191.533h5.015h3.792h3.342h3.567h3.792h3.342h3.568h3.791h0.257"/>
		<path class="st4" d="M148.862,191.426l-2.95-2.95l2.793-2.793"/>
		<path class="st4" d="M145.52,191.426l-2.954-2.95l2.797-2.793"/>
		<path class="st4" d="M141.728,191.426l-2.95-2.95l2.793-2.793"/>
		<path class="st4" d="M159.563,191.426l-2.95-2.95l2.794-2.793"/>
		<path class="st4" d="M156.221,191.426l-2.953-2.95l2.796-2.793"/>
		<path class="st4" d="M152.429,191.426l-2.95-2.95l2.793-2.793"/>
		<path class="st4" d="M166.922,191.426l-2.953-2.95l2.796-2.793"/>
		<path class="st4" d="M163.131,191.426l-2.95-2.95l2.793-2.793"/>
		<path class="st1" d="M138.475,216.46v6.967c0,4.362-3.567,7.933-7.93,7.933c-1.965,0-3.767-0.724-5.154-1.915
			c-1.388-1.192-2.362-2.854-2.672-4.734l0.021-0.275h7.805c2.14,0,2.768-1.009,2.768-3.149v-4.827H138.475z"/>
		<path class="st2" d="M138.475,175.438v41.022h-5.162v-41.022H138.475z"/>
		<path class="st1" d="M138.475,168.033v7.405h-5.162v-4.783c0-2.14-0.628-3.146-2.768-3.146h-7.805l-0.06-0.492
			c0.499-3.885,3.845-6.917,7.865-6.917c2.18,0,4.163,0.892,5.6,2.329C137.583,163.867,138.475,165.85,138.475,168.033z"/>
		<path class="st5" d="M133.313,216.46v4.827c0,2.14-0.628,3.149-2.768,3.149h-7.805c0,0-2.771-0.128-2.771-2.14
			c0-1.07,0.745-1.573,1.444-1.805c0.617-0.21,1.199-0.21,1.199-0.21h6.549v-48.617h-6.549c0,0-0.582,0-1.199-0.21
			c-0.699-0.232-1.444-0.735-1.444-1.805c0-2.015,2.771-2.14,2.771-2.14h7.805c2.14,0,2.768,1.006,2.768,3.146V216.46z"/>
		<path class="st11" d="M129.161,214.784v5.497h-4.199v-0.382c0.268-1.826-0.756-3.77-2.411-4.584
			c-0.446-0.221-0.952-0.381-1.266-0.767c-0.275-0.335-0.353-0.781-0.492-1.191c-0.222-0.674-0.639-1.306-1.256-1.655
			c-0.617-0.35-1.448-0.357-1.998,0.085l-0.224,0.079c-0.364-1.07-0.717-2.237-1.031-3.492l0.153-0.036
			c0.874,0.267,1.848,0.321,2.686-0.039c0.838-0.361,1.505-1.199,1.491-2.112c-0.014-0.981-0.742-1.776-1.248-2.618
			c-0.507-0.839-0.739-2.083,0.043-2.679c0.581-0.443,1.401-0.275,2.122-0.41c1.363-0.261,2.294-1.87,1.833-3.182
			c-0.535-1.541-2.464-2.226-3.078-3.739c-0.392-0.97-0.161-2.058-0.046-3.096c0.11-1.038,0.035-2.233-0.764-2.907
			c-1.102-0.931-3.446,0.389-3.913,1.755h-0.014c0.574-3.617,1.573-7.487,3.146-11.59c0,0.528,0.61,1.395,1.013,1.648
			c0.435,0.275,0.942,0.446,1.306,0.81c0.806,0.81,0.563,2.137,0.474,3.275c-0.075,0.97,0.064,2.069,0.821,2.679
			c1.009,0.813,2.661,0.249,3.299-0.878c0.639-1.123,0.464-2.55-0.032-3.745c-0.271-0.653-0.631-1.274-0.795-1.962
			c-0.161-0.685-0.082-1.488,0.424-1.98c0.521-0.506,1.316-0.549,2.023-0.721c0.692-0.164,1.805-0.881,1.805-1.59h0.128v11.882
			h-0.132c-1.17,0.135-2.269,0.813-2.914,1.797c-0.646,0.989-0.828,2.262-0.485,3.393c0.246,0.806,0.749,1.555,0.759,2.397
			c0.007,0.642-0.271,1.241-0.456,1.855c-0.328,1.091-0.35,2.315,0.142,3.342c0.496,1.027,1.57,1.809,2.708,1.769h0.378v5.119
			h-0.378c-0.674-0.114-0.81-0.642-1.035-1.284c-0.274-0.792-0.335-1.709-0.856-2.369c-0.403-0.513-0.752-0.881-1.937-0.877
			c-0.77,0-1.444,0.571-1.762,1.273c-0.485,1.067-0.324,2.394,0.396,3.318c0.46,0.585,1.149,1.066,1.27,1.801
			c0.103,0.632-0.253,1.234-0.464,1.841c-0.428,1.22-0.232,2.679,0.635,3.638c0.867,0.96,2.412,1.288,3.525,0.632H129.161z"/>
		<path class="st12" d="M129.161,206.811v7.973h-0.606c-1.113,0.656-2.658,0.328-3.525-0.632c-0.867-0.959-1.063-2.418-0.635-3.638
			c0.211-0.607,0.567-1.209,0.464-1.841c-0.121-0.735-0.81-1.216-1.27-1.801c-0.72-0.924-0.881-2.251-0.396-3.318
			c0.318-0.702,0.992-1.273,1.762-1.273c1.185-0.004,1.534,0.364,1.937,0.877c0.521,0.66,0.582,1.577,0.856,2.369
			c0.225,0.642,0.361,1.17,1.035,1.284H129.161z"/>
		<path class="st12" d="M129.161,192.835v8.857h-0.378c-1.138,0.04-2.212-0.742-2.708-1.769c-0.492-1.027-0.47-2.251-0.142-3.342
			c0.185-0.614,0.463-1.213,0.456-1.855c-0.01-0.842-0.513-1.591-0.759-2.397c-0.343-1.131-0.161-2.404,0.485-3.393
			c0.645-0.984,1.744-1.662,2.914-1.797h0.132V192.835z"/>
		<path class="st12" d="M129.033,175.257c0,0.709-1.113,1.426-1.805,1.591c-0.707,0.171-1.502,0.214-2.023,0.72
			c-0.506,0.492-0.585,1.295-0.424,1.98c0.164,0.688,0.524,1.309,0.795,1.962c0.496,1.195,0.671,2.622,0.032,3.745
			c-0.638,1.127-2.29,1.691-3.299,0.878c-0.757-0.61-0.896-1.709-0.821-2.679c0.089-1.138,0.332-2.465-0.474-3.275
			c-0.364-0.364-0.871-0.535-1.306-0.81c-0.403-0.253-1.013-1.12-1.013-1.648c0.749-1.961,1.63-3.973,2.658-6.035l0.06-0.232
			c0.617,0.21,1.199,0.21,1.199,0.21h6.549v3.593H129.033z"/>
		<path class="st12" d="M122.551,215.315c1.655,0.814,2.679,2.758,2.412,4.584v0.382h-2.351c0,0-0.582,0-1.199,0.21l-0.06-0.335
			c0,0-2.208-2.957-4.038-8.29l0.224-0.079c0.55-0.442,1.381-0.435,1.998-0.085c0.617,0.349,1.034,0.981,1.256,1.655
			c0.139,0.41,0.217,0.856,0.492,1.191C121.599,214.934,122.105,215.094,122.551,215.315z"/>
		<path class="st12" d="M123.364,197.298c0.461,1.312-0.47,2.921-1.833,3.182c-0.721,0.135-1.541-0.033-2.123,0.41
			c-0.781,0.596-0.549,1.84-0.042,2.679c0.506,0.842,1.234,1.637,1.248,2.618c0.014,0.913-0.653,1.751-1.491,2.112
			c-0.838,0.36-1.812,0.306-2.686,0.039l-0.153,0.036c-1.259-5.009-1.941-11.462-0.735-19.067h0.014
			c0.467-1.362,2.811-2.682,3.913-1.751c0.799,0.674,0.874,1.869,0.764,2.907c-0.115,1.038-0.346,2.126,0.046,3.096
			C120.9,195.072,122.829,195.757,123.364,197.298z"/>
		<path class="st4" d="M122.68,167.017c0.499-3.885,3.845-6.917,7.865-6.917c2.18,0,4.163,0.892,5.6,2.329
			c1.438,1.438,2.33,3.421,2.33,5.604v55.394c0,4.362-3.567,7.933-7.93,7.933c-1.965,0-3.767-0.724-5.154-1.915
			c-1.388-1.192-2.362-2.854-2.672-4.734"/>
		<path class="st4" d="M129.161,201.692v-30.028h-6.549c0,0-0.582,0-1.199-0.21c-0.699-0.232-1.444-0.735-1.444-1.805
			c0-2.015,2.771-2.14,2.771-2.14h7.805c2.14,0,2.768,1.006,2.768,3.146v50.632c0,2.14-0.628,3.149-2.768,3.149h-7.805
			c0,0-2.771-0.128-2.771-2.14c0-1.07,0.745-1.573,1.444-1.805c0.617-0.21,1.199-0.21,1.199-0.21h6.549V201.692z"/>
		<path class="st4" d="M121.353,171.686c-1.028,2.062-1.909,4.074-2.658,6.035c-1.573,4.103-2.572,7.973-3.146,11.586
			c-1.206,7.605-0.524,14.058,0.735,19.067c0.314,1.255,0.667,2.422,1.031,3.492c1.83,5.333,4.038,8.29,4.038,8.29"/>
		<path class="st4" d="M133.691,175.438h4.156"/>
		<path class="st4" d="M133.691,216.46h4.156"/>
		<path class="st4" d="M118.709,177.6c-0.007,0.039-0.014,0.079-0.014,0.121c0,0.528,0.61,1.395,1.013,1.648
			c0.435,0.275,0.942,0.446,1.306,0.81c0.806,0.81,0.563,2.137,0.474,3.275c-0.075,0.97,0.064,2.069,0.821,2.679
			c1.009,0.813,2.661,0.249,3.299-0.878c0.639-1.123,0.464-2.55-0.032-3.745c-0.271-0.653-0.631-1.274-0.795-1.962
			c-0.161-0.685-0.082-1.488,0.424-1.98c0.521-0.506,1.316-0.549,2.023-0.72c0.692-0.165,1.805-0.882,1.805-1.591v-0.047"/>
		<path class="st4" d="M129.029,187.139c-1.17,0.135-2.269,0.813-2.914,1.797c-0.646,0.989-0.828,2.262-0.485,3.393
			c0.246,0.806,0.749,1.555,0.759,2.397c0.007,0.642-0.271,1.241-0.456,1.855c-0.328,1.091-0.35,2.315,0.142,3.342
			c0.496,1.027,1.57,1.809,2.708,1.769"/>
		<path class="st4" d="M116.437,208.338c0.874,0.267,1.848,0.321,2.686-0.039c0.838-0.361,1.505-1.199,1.491-2.112
			c-0.014-0.981-0.742-1.776-1.248-2.618c-0.507-0.839-0.739-2.083,0.043-2.679c0.581-0.443,1.401-0.275,2.122-0.41
			c1.363-0.261,2.294-1.87,1.833-3.182c-0.535-1.541-2.464-2.226-3.078-3.739c-0.392-0.97-0.16-2.058-0.046-3.096
			c0.11-1.038,0.035-2.233-0.764-2.907c-1.102-0.931-3.446,0.389-3.913,1.755"/>
		<path class="st4" d="M128.783,206.811c-0.674-0.114-0.81-0.642-1.035-1.284c-0.274-0.792-0.335-1.709-0.856-2.369
			c-0.403-0.513-0.752-0.881-1.937-0.877c-0.77,0-1.444,0.571-1.762,1.273c-0.485,1.067-0.324,2.394,0.396,3.318
			c0.46,0.585,1.149,1.066,1.27,1.801c0.103,0.632-0.253,1.234-0.464,1.841c-0.428,1.22-0.232,2.679,0.635,3.638
			c0.867,0.96,2.412,1.288,3.525,0.632"/>
		<path class="st4" d="M124.962,219.899c0.268-1.826-0.756-3.77-2.411-4.584c-0.446-0.221-0.952-0.381-1.266-0.767
			c-0.275-0.335-0.353-0.781-0.492-1.191c-0.222-0.674-0.639-1.306-1.256-1.655c-0.617-0.35-1.448-0.357-1.998,0.085"/>
		<path class="st10" d="M136.046,158.409c0.353,0.353,0.574,0.842,0.574,1.377c0,1.074-0.878,1.951-1.951,1.951h-7.242
			c-0.538,0-1.023-0.217-1.377-0.574c-0.353-0.353-0.574-0.842-0.574-1.377c0-1.074,0.878-1.951,1.951-1.951h7.242
			C135.207,157.835,135.692,158.052,136.046,158.409z"/>
		<path class="st4" d="M127.427,161.737h7.242c1.073,0,1.951-0.877,1.951-1.951c0-0.535-0.221-1.024-0.574-1.377
			c-0.354-0.357-0.839-0.574-1.377-0.574h-7.242c-1.073,0-1.951,0.877-1.951,1.951c0,0.535,0.221,1.024,0.574,1.377
			C126.404,161.52,126.889,161.737,127.427,161.737z"/>
		<path class="st5" d="M229.265,139.757l5.5,8.761h-5.621v-0.753v-7.933L229.265,139.757z"/>
		<path class="st13" d="M223.411,130.429l5.854,9.328l-0.122,0.075v7.933v0.753h-5.079l-1.074-1.709l0.286-0.178v-16.117
			L223.411,130.429z"/>
		<path class="st1" d="M227.977,194.765v6.967h-3.114H152.65h-3.067v-6.967h0.56h6.21h7.134h7.135h7.134h7.134h3.524h3.735h7.134
			h7.134h7.135h7.134h6.842H227.977z"/>
		<path class="st5" d="M227.977,188.387v6.378h-0.449h-6.842v-0.082l6.296-6.296H227.977z"/>
		<path class="st5" d="M227.977,181.924v6.463h-0.995l-5.957-5.961v-0.502h6.503H227.977z"/>
		<path class="st1" d="M227.977,175.21v6.713h-0.449h-6.503h-7.134h-7.135h-7.134h-7.134h-4.074h-3.859h-7.135h-7.134h-7.134h-7.134
			h-5.875h-0.56v-6.713h10.294h8.729h41.799h7.638H227.977z"/>
		<path class="st7" d="M205.565,152.045l22.412,23.165h-9.934L205.565,152.045z"/>
		<path class="st10" d="M221.025,182.426l5.957,5.961l-6.296,6.296v0.082h-7.134v-0.082l6.296-6.296l-5.957-5.961v-0.502h7.134
			V182.426z M223.54,188.301c0-0.324-0.261-0.585-0.585-0.585c-0.325,0-0.589,0.261-0.589,0.585c0,0.325,0.264,0.589,0.589,0.589
			C223.279,188.89,223.54,188.626,223.54,188.301z"/>
		<path class="st2" d="M224.863,201.732v0.182c-6.838,10.273-20.432,17.275-36.085,17.275c-15.652,0-29.3-7.031-36.128-17.34v-0.117
			H224.863z"/>
		<path class="st13" d="M222.99,146.809l1.074,1.709h-6.656v-0.503v-10.102L222.99,146.809z"/>
		<path class="st5" d="M217.615,121.193l5.796,9.236l-0.135,0.085v16.117l-0.286,0.178l-5.582-8.896v-16.588L217.615,121.193z"/>
		<path class="st2" d="M222.955,187.716c0.324,0,0.585,0.261,0.585,0.585c0,0.325-0.261,0.589-0.585,0.589
			c-0.325,0-0.589-0.264-0.589-0.589C222.366,187.977,222.63,187.716,222.955,187.716z"/>
		<path class="st5" d="M213.891,182.426l5.957,5.961l-6.296,6.296v0.082h-7.135v-0.082l6.296-6.296l-5.957-5.961v-0.502h7.135
			V182.426z M216.405,188.301c0-0.324-0.26-0.585-0.585-0.585c-0.324,0-0.588,0.261-0.588,0.585c0,0.325,0.264,0.589,0.588,0.589
			C216.145,188.89,216.405,188.626,216.405,188.301z"/>
		<path class="st2" d="M205.565,152.045l12.478,23.165h-7.638v-0.335l-10.576-22.662v-0.168H205.565z"/>
		<path class="st13" d="M211.59,111.594l6.025,9.599l-0.207,0.132v16.588l-5.872-9.353v-16.93L211.59,111.594z"/>
		<path class="st5" d="M217.408,148.015v0.503h-5.872v-0.503V128.56l5.872,9.353V148.015z"/>
		<path class="st2" d="M215.82,187.716c0.325,0,0.585,0.261,0.585,0.585c0,0.325-0.26,0.589-0.585,0.589
			c-0.324,0-0.588-0.264-0.588-0.589C215.232,187.977,215.496,187.716,215.82,187.716z"/>
		<path class="st5" d="M214.643,74.2c0,0.474-0.082,0.927-0.235,1.359l-0.503-0.157c-0.589-1.744-2.89-2.793-4.559-1.891
			c-0.617,0.332-1.241,1.263-1.833,1.634c-0.593,0.371-1.374,0.314-1.987-0.025c-0.471-0.26-0.831-0.867-1.192-1.259
			c-1.013-1.113-3.042-0.899-4.031,0.232c-1.223,1.402-2.247,1.427-3.42,1.284c-0.971-0.114-1.463-1.067-2.173-1.712
			c-0.706-0.642-2.033-0.603-2.732,0.05l-0.667,0.945c-0.421,0.631-1.17,1.052-1.948,1.095c-0.781,0.043-1.577-0.293-2.069-0.87
			l-0.913-1.17c-0.699-0.653-2.023-0.692-2.732-0.05c-0.71,0.646-1.199,1.598-2.169,1.712c-1.177,0.143-2.201,0.118-3.421-1.284
			c-0.988-1.131-3.021-1.345-4.034-0.232c-0.357,0.392-0.721,0.999-1.192,1.259c-0.613,0.339-1.395,0.396-1.983,0.025
			c-0.592-0.371-1.217-1.302-1.834-1.634c-1.662-0.899-3.956,0.139-4.551,1.869c-0.118-0.378-0.179-0.774-0.179-1.181
			c0-1.256,0.585-2.401,1.538-3.225c0.949-0.831,2.258-1.345,3.699-1.345h39.88c0.614,0,1.209,0.093,1.759,0.268
			C213.184,70.53,214.643,72.221,214.643,74.2z"/>
		<path class="st14" d="M213.905,75.402l0.503,0.157c-0.257,0.714-0.71,1.352-1.306,1.869c-0.556,0.485-1.234,0.863-1.99,1.088
			c-0.539,0.168-1.113,0.253-1.709,0.253h-3.838v-0.082h-33.574v0.082h-2.468c-2.415,0-4.459-1.445-5.058-3.389
			c0.595-1.73,2.889-2.768,4.551-1.869c0.617,0.332,1.242,1.263,1.834,1.634c0.588,0.371,1.37,0.314,1.983-0.025
			c0.471-0.26,0.835-0.867,1.192-1.259c1.013-1.113,3.046-0.899,4.034,0.232c1.22,1.402,2.244,1.427,3.421,1.284
			c0.97-0.114,1.459-1.067,2.169-1.712c0.709-0.642,2.033-0.603,2.732,0.05l0.913,1.17c0.492,0.578,1.288,0.913,2.069,0.87
			c0.778-0.043,1.527-0.464,1.948-1.095l0.667-0.945c0.699-0.653,2.026-0.692,2.732-0.05c0.71,0.646,1.202,1.598,2.173,1.712
			c1.173,0.143,2.197,0.118,3.42-1.284c0.989-1.131,3.018-1.345,4.031-0.232c0.361,0.392,0.721,0.999,1.192,1.259
			c0.613,0.339,1.394,0.396,1.987,0.025c0.592-0.371,1.216-1.302,1.833-1.634C211.015,72.609,213.316,73.658,213.905,75.402z"/>
		<path class="st10" d="M206.756,182.426l5.957,5.961l-6.296,6.296v0.082h-7.134v-0.082l6.296-6.296l-5.957-5.961v-0.502h7.134
			V182.426z M209.271,188.301c0-0.324-0.26-0.585-0.585-0.585c-0.324,0-0.588,0.261-0.588,0.585c0,0.325,0.264,0.589,0.588,0.589
			C209.011,188.89,209.271,188.626,209.271,188.301z"/>
		<path class="st5" d="M205.686,102.188l5.904,9.406l-0.054,0.036v16.93l-5.971-9.514v-8.019l0.103-8.839H205.686z"/>
		<path class="st13" d="M211.536,148.015v0.503h-5.971v-29.472l5.971,9.514V148.015z"/>
		<path class="st7" d="M210.405,174.875v0.335h-41.799v-0.335l9.068-22.83h22.155v0.168L210.405,174.875z"/>
		<path class="st2" d="M208.686,187.716c0.325,0,0.585,0.261,0.585,0.585c0,0.325-0.26,0.589-0.585,0.589
			c-0.324,0-0.588-0.264-0.588-0.589C208.098,187.977,208.362,187.716,208.686,187.716z"/>
		<path class="st5" d="M199.622,182.426l5.957,5.961l-6.296,6.296v0.082h-7.134v-0.082l6.296-6.296l-5.957-5.961v-0.502h7.134
			V182.426z M202.137,188.301c0-0.324-0.26-0.585-0.585-0.585s-0.589,0.261-0.589,0.585c0,0.325,0.264,0.589,0.589,0.589
			S202.137,188.626,202.137,188.301z"/>
		<path class="st15" d="M205.565,148.518v3.527h-5.736h-22.155h-5.683v-3.527h0.35h0.057h5.871h4.773l-0.503-46.33l-4.437,7.07
			l-6.05,9.638l-0.061-5.126v-35h2.483h6.185h6.186h6.185h6.185h6.186h0.164v32.257l-0.093,7.869l-6.05-9.638l-4.437-7.07
			l-0.507,46.33h4.777h5.871h0.054H205.565z"/>
		<path class="st5" d="M205.472,118.896l-0.346,29.622h-5.871v-0.503v-38.65l0.167-0.107L205.472,118.896z"/>
		<path class="st2" d="M201.552,187.716c0.325,0,0.585,0.261,0.585,0.585c0,0.325-0.26,0.589-0.585,0.589s-0.589-0.264-0.589-0.589
			C200.963,187.977,201.227,187.716,201.552,187.716z"/>
		<path class="st13" d="M194.985,102.188l4.437,7.07l-0.167,0.107v38.65v0.503h-4.777L194.985,102.188z"/>
		<path class="st9" d="M192.488,182.426l5.957,5.961l-6.296,6.296v0.082h-3.735v-12.841h4.074V182.426z M195.003,188.301
			c0-0.324-0.261-0.585-0.585-0.585c-0.325,0-0.589,0.261-0.589,0.585c0,0.325,0.264,0.589,0.589,0.589
			C194.742,188.89,195.003,188.626,195.003,188.301z"/>
		<path class="st2" d="M194.418,187.716c0.324,0,0.585,0.261,0.585,0.585c0,0.325-0.261,0.589-0.585,0.589
			c-0.325,0-0.589-0.264-0.589-0.589C193.829,187.977,194.093,187.716,194.418,187.716z"/>
		<path class="st8" d="M188.414,194.515v0.25h-3.524v-0.082l-6.296-6.296l5.961-5.961v-0.502h3.859V194.515z M183.213,188.301
			c0-0.324-0.264-0.585-0.588-0.585c-0.325,0-0.589,0.261-0.589,0.585c0,0.325,0.264,0.589,0.589,0.589
			C182.949,188.89,183.213,188.626,183.213,188.301z"/>
		<path class="st10" d="M184.89,194.683v0.082h-7.134v-0.082l-6.296-6.296l5.96-5.961v-0.502h7.135v0.502l-5.961,5.961
			L184.89,194.683z M176.079,188.301c0-0.324-0.264-0.585-0.588-0.585c-0.325,0-0.589,0.261-0.589,0.585
			c0,0.325,0.264,0.589,0.589,0.589C175.815,188.89,176.079,188.626,176.079,188.301z"/>
		<path class="st13" d="M182.539,102.188l0.503,46.33h-4.773v-0.503v-38.65l-0.167-0.107L182.539,102.188z"/>
		<path class="st2" d="M182.625,187.716c0.324,0,0.588,0.261,0.588,0.585c0,0.325-0.264,0.589-0.588,0.589
			c-0.325,0-0.589-0.264-0.589-0.589C182.036,187.977,182.3,187.716,182.625,187.716z"/>
		<path class="st5" d="M178.269,148.015v0.503h-5.871l-0.346-29.622l6.05-9.638l0.167,0.107V148.015z"/>
		<path class="st5" d="M177.756,194.683v0.082h-7.134v-0.082l-6.296-6.296l5.96-5.961v-0.502h7.134v0.502l-5.96,5.961
			L177.756,194.683z M168.945,188.301c0-0.324-0.264-0.585-0.589-0.585c-0.324,0-0.588,0.261-0.588,0.585
			c0,0.325,0.264,0.589,0.588,0.589C168.681,188.89,168.945,188.626,168.945,188.301z"/>
		<path class="st2" d="M177.674,152.045l-9.068,22.83v0.335h-8.729l12.114-23.165H177.674z"/>
		<path class="st2" d="M175.491,187.716c0.324,0,0.588,0.261,0.588,0.585c0,0.325-0.264,0.589-0.588,0.589
			c-0.325,0-0.589-0.264-0.589-0.589C174.902,187.977,175.166,187.716,175.491,187.716z"/>
		<path class="st13" d="M171.991,118.993v29.525h-5.985l-0.011-19.976L171.991,118.993z"/>
		<path class="st5" d="M171.991,113.77v5.223l-5.996,9.549l-0.007-17.033l5.85-9.321h0.018L171.991,113.77z"/>
		<path class="st7" d="M171.991,152.045l-12.114,23.165h-10.294L171.991,152.045z"/>
		<path class="st10" d="M170.622,194.683v0.082h-7.135v-0.082l-6.296-6.296l5.961-5.961v-0.502h7.134v0.502l-5.96,5.961
			L170.622,194.683z M161.811,188.301c0-0.324-0.264-0.585-0.589-0.585c-0.324,0-0.588,0.261-0.588,0.585
			c0,0.325,0.264,0.589,0.588,0.589C161.547,188.89,161.811,188.626,161.811,188.301z"/>
		<path class="st2" d="M168.356,187.716c0.325,0,0.589,0.261,0.589,0.585c0,0.325-0.264,0.589-0.589,0.589
			c-0.324,0-0.588-0.264-0.588-0.589C167.768,187.977,168.032,187.716,168.356,187.716z"/>
		<path class="st5" d="M165.995,128.542l0.011,19.976h-5.89v-10.609L165.995,128.542z"/>
		<path class="st13" d="M165.988,111.509l0.007,17.033l-5.879,9.367v-17.047L165.988,111.509z"/>
		<path class="st5" d="M163.487,194.683v0.082h-7.134v-0.082l-6.296-6.296l5.961-5.961v-0.502h7.134v0.502l-5.961,5.961
			L163.487,194.683z M154.677,188.301c0-0.324-0.264-0.585-0.589-0.585s-0.589,0.261-0.589,0.585c0,0.325,0.264,0.589,0.589,0.589
			S154.677,188.626,154.677,188.301z"/>
		<path class="st2" d="M161.222,187.716c0.325,0,0.589,0.261,0.589,0.585c0,0.325-0.264,0.589-0.589,0.589
			c-0.324,0-0.588-0.264-0.588-0.589C160.634,187.977,160.898,187.716,161.222,187.716z"/>
		<path class="st13" d="M154.248,147.255l5.868-9.346v10.609h-6.659L154.248,147.255z"/>
		<path class="st5" d="M160.116,120.862v17.047l-5.868,9.346v-16.741l-0.139-0.085L160.116,120.862z"/>
		<path class="st10" d="M156.353,194.683v0.082h-6.21h-0.56v-6.378h0.474L156.353,194.683z"/>
		<path class="st10" d="M156.018,181.924v0.502l-5.961,5.961h-0.474v-6.463h0.56H156.018z"/>
		<path class="st13" d="M154.248,130.514v16.741l-0.791,1.263h-5.076v-0.753v-7.933l-0.125-0.079l5.853-9.324L154.248,130.514z"/>
		<path class="st2" d="M154.088,187.716c0.325,0,0.589,0.261,0.589,0.585c0,0.325-0.264,0.589-0.589,0.589s-0.589-0.264-0.589-0.589
			C153.499,187.977,153.763,187.716,154.088,187.716z"/>
		<path class="st5" d="M148.381,147.765v0.753h-5.626l5.501-8.765l0.125,0.079V147.765z"/>
		<path class="st4" d="M183.042,148.518l-0.503-46.33"/>
		<path class="st4" d="M172.341,148.518h0.057h5.871h4.773"/>
		<path class="st4" d="M182.539,102.188l-4.437,7.07l-6.05,9.638l-0.061,0.097l-5.996,9.549l-5.879,9.367l-5.868,9.346l-0.791,1.263
			"/>
		<path class="st4" d="M172.398,148.518l-0.346-29.622l-0.061-5.126l-0.135-11.582"/>
		<path class="st4" d="M171.838,102.188l-5.85,9.321l-5.872,9.353l-6.007,9.567l-5.853,9.324l-5.501,8.765h5.626h5.076h6.659h5.89
			h5.985h0.35"/>
		<path class="st4" d="M178.269,109.365v38.65"/>
		<path class="st4" d="M165.988,111.42v0.089l0.007,17.033l0.011,19.976v0.085"/>
		<path class="st4" d="M160.116,120.822v0.04v17.047v10.609v0.085"/>
		<path class="st4" d="M154.248,130.514v16.741v0.257"/>
		<path class="st4" d="M148.381,139.832v7.933"/>
		<path class="st4" d="M205.565,152.045h-5.736h-22.155h-5.683v-3.527v-29.525v-5.223v-35v-0.082h33.574v0.082v32.257v8.019v29.472
			V152.045z"/>
		<path class="st4" d="M224.863,201.914c-6.838,10.273-20.432,17.275-36.085,17.275c-15.652,0-29.3-7.031-36.128-17.34"/>
		<path class="st4" d="M149.583,175.21l22.408-23.165l-12.114,23.165"/>
		<path class="st4" d="M227.977,175.21l-22.412-23.165l12.478,23.165"/>
		<path class="st4" d="M177.674,152.045l-9.068,22.83"/>
		<path class="st4" d="M199.829,152.213l10.576,22.662"/>
		<path class="st4" d="M150.143,181.924h5.875h7.134h7.134h7.134h7.135h3.859h4.074h7.134h7.134h7.135h7.134h6.503"/>
		<path class="st4" d="M150.143,194.765h6.21h7.134h7.135h7.134h7.134h3.524h3.735h7.134h7.134h7.135h7.134h6.842"/>
		<path class="st4" d="M170.622,194.683l-6.296-6.296l5.96-5.961"/>
		<path class="st4" d="M163.487,194.683l-6.296-6.296l5.961-5.961"/>
		<path class="st4" d="M156.353,194.683l-6.296-6.296l5.961-5.961"/>
		<path class="st4" d="M168.945,188.301c0,0.325-0.264,0.589-0.589,0.589c-0.324,0-0.588-0.264-0.588-0.589
			c0-0.324,0.264-0.585,0.588-0.585C168.681,187.716,168.945,187.977,168.945,188.301z"/>
		<path class="st4" d="M161.811,188.301c0,0.325-0.264,0.589-0.589,0.589c-0.324,0-0.588-0.264-0.588-0.589
			c0-0.324,0.264-0.585,0.588-0.585C161.547,187.716,161.811,187.977,161.811,188.301z"/>
		<path class="st4" d="M154.677,188.301c0,0.325-0.264,0.589-0.589,0.589s-0.589-0.264-0.589-0.589c0-0.324,0.264-0.585,0.589-0.585
			S154.677,187.977,154.677,188.301z"/>
		<path class="st4" d="M177.756,194.683l-6.296-6.296l5.96-5.961"/>
		<path class="st4" d="M176.079,188.301c0,0.325-0.264,0.589-0.588,0.589c-0.325,0-0.589-0.264-0.589-0.589
			c0-0.324,0.264-0.585,0.589-0.585C175.815,187.716,176.079,187.977,176.079,188.301z"/>
		<path class="st4" d="M184.89,194.683l-6.296-6.296l5.961-5.961"/>
		<path class="st4" d="M183.213,188.301c0,0.325-0.264,0.589-0.588,0.589c-0.325,0-0.589-0.264-0.589-0.589
			c0-0.324,0.264-0.585,0.589-0.585C182.949,187.716,183.213,187.977,183.213,188.301z"/>
		<path class="st4" d="M206.417,194.683l6.296-6.296l-5.957-5.961"/>
		<path class="st4" d="M213.552,194.683l6.296-6.296l-5.957-5.961"/>
		<path class="st4" d="M220.686,194.683l6.296-6.296l-5.957-5.961"/>
		<path class="st4" d="M208.098,188.301c0,0.325,0.264,0.589,0.588,0.589c0.325,0,0.585-0.264,0.585-0.589
			c0-0.324-0.26-0.585-0.585-0.585C208.362,187.716,208.098,187.977,208.098,188.301z"/>
		<path class="st4" d="M215.232,188.301c0,0.325,0.264,0.589,0.588,0.589c0.325,0,0.585-0.264,0.585-0.589
			c0-0.324-0.26-0.585-0.585-0.585C215.496,187.716,215.232,187.977,215.232,188.301z"/>
		<path class="st4" d="M222.366,188.301c0,0.325,0.264,0.589,0.589,0.589c0.324,0,0.585-0.264,0.585-0.589
			c0-0.324-0.261-0.585-0.585-0.585C222.63,187.716,222.366,187.977,222.366,188.301z"/>
		<path class="st4" d="M199.283,194.683l6.296-6.296l-5.957-5.961"/>
		<path class="st4" d="M200.963,188.301c0,0.325,0.264,0.589,0.589,0.589s0.585-0.264,0.585-0.589c0-0.324-0.26-0.585-0.585-0.585
			S200.963,187.977,200.963,188.301z"/>
		<path class="st4" d="M192.149,194.683l6.296-6.296l-5.957-5.961"/>
		<path class="st4" d="M193.829,188.301c0,0.325,0.264,0.589,0.589,0.589c0.324,0,0.585-0.264,0.585-0.589
			c0-0.324-0.261-0.585-0.585-0.585C194.093,187.716,193.829,187.977,193.829,188.301z"/>
		<path class="st4" d="M188.414,182.426v12.089"/>
		<path class="st4" d="M214.408,75.559c-0.257,0.714-0.71,1.352-1.306,1.869c-0.556,0.485-1.234,0.863-1.99,1.088
			c-0.539,0.168-1.113,0.253-1.709,0.253h-39.88c-2.415,0-4.459-1.445-5.058-3.389c-0.118-0.378-0.179-0.774-0.179-1.181
			c0-1.256,0.585-2.401,1.538-3.225c0.949-0.831,2.258-1.345,3.699-1.345h39.88c0.614,0,1.209,0.093,1.759,0.268
			c2.022,0.631,3.481,2.322,3.481,4.302C214.643,74.675,214.561,75.128,214.408,75.559z"/>
		<path class="st4" d="M164.454,75.402c0,0,0-0.014,0.011-0.021c0.595-1.73,2.889-2.768,4.551-1.869
			c0.617,0.332,1.242,1.263,1.834,1.634c0.588,0.371,1.37,0.314,1.983-0.025c0.471-0.26,0.835-0.867,1.192-1.259
			c1.013-1.113,3.046-0.899,4.034,0.232c1.22,1.402,2.244,1.427,3.421,1.284c0.97-0.114,1.459-1.067,2.169-1.712
			c0.709-0.642,2.033-0.603,2.732,0.05l0.913,1.17c0.492,0.578,1.288,0.913,2.069,0.87c0.778-0.043,1.527-0.464,1.948-1.095
			l0.667-0.945c0.699-0.653,2.026-0.692,2.732-0.05c0.71,0.646,1.202,1.598,2.173,1.712c1.173,0.143,2.197,0.118,3.42-1.284
			c0.989-1.131,3.018-1.345,4.031-0.232c0.361,0.392,0.721,0.999,1.192,1.259c0.613,0.339,1.394,0.396,1.987,0.025
			c0.592-0.371,1.216-1.302,1.833-1.634c1.669-0.903,3.97,0.146,4.559,1.891"/>
		<path class="st4" d="M194.478,148.518l0.507-46.33"/>
		<path class="st4" d="M205.18,148.518h-0.054h-5.871h-4.777"/>
		<path class="st4" d="M194.985,102.188l4.437,7.07l6.05,9.638l0.093,0.15l5.971,9.514l5.872,9.353l5.582,8.896l1.074,1.709"/>
		<path class="st4" d="M205.126,148.518l0.346-29.622l0.093-7.869l0.103-8.839"/>
		<path class="st4" d="M205.686,102.188l5.904,9.406l6.025,9.599l5.796,9.236l5.854,9.328l5.5,8.761h-5.622h-5.079h-6.656h-5.872
			h-5.971h-0.385"/>
		<path class="st4" d="M199.255,109.365v38.65"/>
		<path class="st4" d="M211.536,111.63v16.93v19.455"/>
		<path class="st4" d="M217.408,121.325v16.587v10.103"/>
		<path class="st4" d="M223.276,130.514v16.117"/>
		<path class="st4" d="M229.144,139.832v7.933"/>
		<path class="st4" d="M227.977,194.765v6.967h-3.114H152.65h-3.067v-6.967v-6.378v-6.464v-6.713h10.294h8.729h41.799h7.638h9.934
			v6.713v6.464V194.765z"/>
		<path class="st6" d="M251.081,44.023l2.408,4.056h-6.899v-0.068L251.081,44.023z"/>
		<path class="st6" d="M253.489,48.078l-6.981,9.078l-0.203-0.268l0.456-0.353l-0.171-8.458H253.489z"/>
		<path class="st6" d="M251.081,44.023l-4.491,3.988l-4.487-3.988H251.081z"/>
		<path class="st6" d="M246.59,48.078l0.171,8.458l-0.456,0.353l-6.774-8.811H246.59z"/>
		<path class="st6" d="M246.59,48.011v0.068h-7.059l2.572-4.056L246.59,48.011z"/>
		<path class="st4" d="M239.531,48.078l6.774,8.811l0.203,0.268l6.981-9.078h-6.899H239.531z"/>
		<path class="st4" d="M239.531,48.078l2.572-4.056h8.978l2.408,4.056"/>
		<path class="st4" d="M251.081,44.023l-4.491,3.988l-4.487-3.988"/>
		<path class="st4" d="M246.59,48.011v0.068l0.171,8.458"/>
		<path class="st16" d="M248.748,58.755v99.08c0,0-4.362,0.125-4.362,0c0-19.89-5.961-58.544-39.071-58.544h-15.488V78.645
			l19.894-0.125c0,0-3.778,1.259-3.778,5.415s-1.509,11.204,7.68,11.204h22.03c8.312,0,8.733-6.043,8.733-10.073V58.755H248.748z"/>
		<path class="st4" d="M248.748,58.755v99.08c0,0-4.362,0.125-4.362,0c0-19.89-5.961-58.544-39.071-58.544h-15.488V78.645
			l19.894-0.125c0,0-3.778,1.259-3.778,5.415s-1.509,11.204,7.68,11.204h22.03c8.312,0,8.733-6.043,8.733-10.073V58.755H248.748z"/>
		<path class="st5" d="M252.023,102.819v27.695c0,4.409-3.275,3.653-3.4,3.4c-0.756-4.909-3.902-22.662-20.899-34.623h20.771
			C248.495,99.291,252.023,98.788,252.023,102.819z"/>
		<path class="st4" d="M227.724,99.291c16.997,11.961,20.143,29.714,20.899,34.623c0.125,0.253,3.4,1.009,3.4-3.4v-27.695
			c0-4.031-3.528-3.528-3.528-3.528H227.724z"/>
		<path class="st6" d="M252.148,107.663l5.215,7.834l-0.046,0.068l-0.386-0.257h-4.908v-7.563L252.148,107.663z"/>
		<path class="st6" d="M257.317,115.565l-5.294,7.954v-8.211h4.908L257.317,115.565z"/>
		<path class="st6" d="M252.148,107.663l-0.125,0.082v7.563h-5.219l5.219-7.83L252.148,107.663z"/>
		<path class="st6" d="M252.023,115.308v8.211l-5.344-8.022l0.125-0.189H252.023z"/>
		<path class="st4" d="M246.804,115.308l-0.125,0.189l5.344,8.022l5.294-7.954l0.046-0.068l-5.215-7.834l-0.125-0.185
			L246.804,115.308z"/>
		<path class="st4" d="M252.023,107.745v7.563v8.211"/>
		<path class="st4" d="M256.931,115.308h-4.908h-5.219h-0.125"/>
		<path class="st10" d="M250.229,55.102c1.073,0,1.951,0.877,1.951,1.951c0,0.535-0.221,1.024-0.574,1.377
			c-0.354,0.357-0.839,0.574-1.377,0.574h-7.242c-1.073,0-1.951-0.878-1.951-1.951c0-0.535,0.221-1.024,0.575-1.377
			c0.353-0.357,0.838-0.574,1.376-0.574H250.229z"/>
		<path class="st4" d="M250.229,59.005h-7.242c-1.073,0-1.951-0.878-1.951-1.951c0-0.535,0.221-1.024,0.575-1.377
			c0.353-0.357,0.838-0.574,1.376-0.574h7.242c1.073,0,1.951,0.877,1.951,1.951c0,0.535-0.221,1.024-0.574,1.377
			C251.252,58.787,250.767,59.005,250.229,59.005z"/>
		<path class="st14" d="M241.322,77.072v3.778c0,1.559,1.273,2.832,2.832,2.832h4.908c1.427,0,2.615-1.067,2.804-2.443l-0.093-0.011
			h-2.104c-3.585,0-2.344-4.156-5.929-4.156H241.322z"/>
		<path class="st5" d="M241.322,71.008v6.064h2.418c3.585,0,2.344,4.156,5.929,4.156h2.104l0.093,0.011
			c0.018-0.128,0.029-0.257,0.029-0.389v-5.686h-2.226c-3.585,0-2.344-4.156-5.929-4.156H241.322z"/>
		<path class="st14" d="M241.322,65.365v5.643h2.418c3.585,0,2.344,4.156,5.929,4.156h2.226v-6.064h-2.226
			c-3.585,0-2.344-4.156-5.929-4.156h-2.294l-0.11,0.132C241.325,65.172,241.322,65.268,241.322,65.365z"/>
		<path class="st5" d="M241.336,65.076l0.11-0.132h2.294c3.585,0,2.343,4.156,5.928,4.156h2.226v-3.735
			c0-1.559-1.273-2.832-2.832-2.832h-4.908C242.691,62.532,241.482,63.652,241.336,65.076z"/>
		<path class="st4" d="M241.322,77.072v3.778c0,1.559,1.273,2.832,2.832,2.832h4.908c1.427,0,2.615-1.067,2.804-2.444
			c0.018-0.128,0.029-0.257,0.029-0.389V65.365c0-1.559-1.274-2.832-2.833-2.832h-4.908c-1.463,0-2.672,1.12-2.818,2.543
			c-0.011,0.096-0.014,0.193-0.014,0.289V77.072z"/>
		<path class="st4" d="M251.773,69.099h-2.104c-3.585,0-2.344-4.156-5.929-4.156h-2.294"/>
		<path class="st4" d="M251.773,75.163h-2.104c-3.585,0-2.344-4.156-5.929-4.156h-2.294"/>
		<path class="st4" d="M251.773,81.228h-2.104c-3.585,0-2.344-4.156-5.929-4.156h-2.294"/>
		<path class="st3" d="M246.508,39.346c1.156,0,2.098,0.938,2.098,2.097c0,1.159-0.942,2.097-2.098,2.097
			c-1.156,0-2.101-0.938-2.101-2.097C244.407,40.284,245.349,39.346,246.508,39.346z"/>
		<path class="st4" d="M244.407,41.444c0,1.159,0.942,2.097,2.101,2.097c1.16,0,2.098-0.938,2.098-2.097
			c0-1.159-0.942-2.097-2.098-2.097C245.352,39.346,244.407,40.284,244.407,41.444z"/>
		<path class="st6" d="M126.578,44.023l-2.407,4.056h6.898v-0.068L126.578,44.023z"/>
		<path class="st6" d="M124.171,48.078l6.98,9.078l0.204-0.268l-0.457-0.353l0.171-8.458H124.171z"/>
		<path class="st6" d="M126.578,44.023l4.491,3.988l4.488-3.988H126.578z"/>
		<path class="st6" d="M131.069,48.078l-0.171,8.458l0.457,0.353l6.774-8.811H131.069z"/>
		<path class="st6" d="M131.069,48.011v0.068h7.06l-2.572-4.056L131.069,48.011z"/>
		<path class="st4" d="M138.129,48.078l-6.774,8.811l-0.204,0.268l-6.98-9.078h6.898H138.129z"/>
		<path class="st4" d="M138.129,48.078l-2.572-4.056h-8.979l-2.407,4.056"/>
		<path class="st4" d="M126.578,44.023l4.491,3.988l4.488-3.988"/>
		<path class="st4" d="M131.069,48.011v0.068l-0.171,8.458"/>
		<path class="st16" d="M187.829,78.645v20.646h-15.488c-33.11,0-39.067,38.654-39.067,58.544c0,0.125-4.366,0-4.366,0v-99.08h4.366
			v26.311c0,4.031,0.417,10.073,8.729,10.073h22.03c9.193,0,7.68-7.052,7.68-11.204s-3.778-5.415-3.778-5.415L187.829,78.645z"/>
		<path class="st4" d="M128.908,58.755v99.08c0,0,4.366,0.125,4.366,0c0-19.89,5.957-58.544,39.067-58.544h15.488V78.645
			l-19.894-0.125c0,0,3.778,1.259,3.778,5.415s1.513,11.204-7.68,11.204h-22.03c-8.312,0-8.729-6.043-8.729-10.073V58.755H128.908z"
			/>
		<path class="st5" d="M129.161,99.291h20.771c-16.997,11.961-20.143,29.714-20.899,34.623c-0.125,0.253-3.4,1.009-3.4-3.4v-27.695
			C125.633,98.788,129.161,99.291,129.161,99.291z"/>
		<path class="st4" d="M149.932,99.291c-16.997,11.961-20.143,29.714-20.899,34.623c-0.125,0.253-3.4,1.009-3.4-3.4v-27.695
			c0-4.031,3.528-3.528,3.528-3.528H149.932z"/>
		<path class="st6" d="M130.852,115.308l0.125,0.189l-5.344,8.022v-8.211H130.852z"/>
		<path class="st6" d="M130.852,115.308h-5.219v-7.563l0.125-0.082L130.852,115.308z"/>
		<path class="st6" d="M125.758,107.663l-0.125,0.082v7.563h-4.908l-0.385,0.257l-0.047-0.068l5.34-8.019L125.758,107.663z"/>
		<path class="st6" d="M125.633,115.308v8.211l-5.293-7.954l0.385-0.257H125.633z"/>
		<path class="st4" d="M130.852,115.308l0.125,0.189l-5.344,8.022l-5.293-7.954l-0.047-0.068l5.34-8.019l0.125,0.185
			L130.852,115.308z"/>
		<path class="st4" d="M125.633,107.745v7.563v8.211"/>
		<path class="st4" d="M120.725,115.308h4.908h5.219h0.125"/>
		<path class="st10" d="M136.046,55.676c0.353,0.353,0.574,0.842,0.574,1.377c0,1.074-0.878,1.951-1.951,1.951h-7.242
			c-0.538,0-1.023-0.218-1.377-0.574c-0.353-0.353-0.574-0.842-0.574-1.377c0-1.074,0.878-1.951,1.951-1.951h7.242
			C135.207,55.102,135.692,55.32,136.046,55.676z"/>
		<path class="st4" d="M127.427,59.005h7.242c1.073,0,1.951-0.878,1.951-1.951c0-0.535-0.221-1.024-0.574-1.377
			c-0.354-0.357-0.839-0.574-1.377-0.574h-7.242c-1.073,0-1.951,0.877-1.951,1.951c0,0.535,0.221,1.024,0.574,1.377
			C126.404,58.787,126.889,59.005,127.427,59.005z"/>
		<path class="st14" d="M136.334,77.072v3.778c0,1.559-1.273,2.832-2.832,2.832h-4.908c-1.427,0-2.615-1.067-2.804-2.444
			l0.093-0.011h2.104c3.585,0,2.344-4.156,5.929-4.156H136.334z"/>
		<path class="st5" d="M136.334,71.008v6.064h-2.418c-3.585,0-2.344,4.156-5.929,4.156h-2.104l-0.093,0.011
			c-0.018-0.128-0.028-0.257-0.028-0.389v-5.686h2.225c3.585,0,2.344-4.156,5.929-4.156H136.334z"/>
		<path class="st14" d="M136.334,65.365v5.643h-2.418c-3.585,0-2.344,4.156-5.929,4.156h-2.225v-6.064h2.225
			c3.585,0,2.344-4.156,5.929-4.156h2.294l0.11,0.132C136.331,65.172,136.334,65.268,136.334,65.365z"/>
		<path class="st5" d="M136.32,65.076l-0.11-0.132h-2.294c-3.585,0-2.344,4.156-5.929,4.156h-2.225v-3.735
			c0-1.559,1.273-2.832,2.832-2.832h4.908C134.965,62.532,136.174,63.652,136.32,65.076z"/>
		<path class="st4" d="M136.334,77.072v3.778c0,1.559-1.273,2.832-2.832,2.832h-4.908c-1.427,0-2.615-1.067-2.804-2.444
			c-0.018-0.128-0.028-0.257-0.028-0.389V65.365c0-1.559,1.273-2.832,2.832-2.832h4.908c1.463,0,2.672,1.12,2.818,2.543
			c0.011,0.096,0.014,0.193,0.014,0.289V77.072z"/>
		<path class="st4" d="M125.883,69.099h2.104c3.585,0,2.344-4.156,5.929-4.156h2.294"/>
		<path class="st4" d="M125.883,75.163h2.104c3.585,0,2.344-4.156,5.929-4.156h2.294"/>
		<path class="st4" d="M125.883,81.228h2.104c3.585,0,2.344-4.156,5.929-4.156h2.294"/>
		<path class="st3" d="M131.148,39.346c1.159,0,2.101,0.938,2.101,2.097c0,1.159-0.942,2.097-2.101,2.097
			c-1.159,0-2.098-0.938-2.098-2.097C129.05,40.284,129.992,39.346,131.148,39.346z"/>
		<path class="st4" d="M133.249,41.444c0,1.159-0.942,2.097-2.101,2.097c-1.159,0-2.098-0.938-2.098-2.097
			c0-1.159,0.942-2.097,2.098-2.097C132.304,39.346,133.249,40.284,133.249,41.444z"/>
		<path class="st16" d="M191.061,174.875v0.168c0,0.124-4.366,0-4.366,0V72.31h4.366V174.875z"/>
		<path class="st4" d="M191.061,174.875V72.31h-4.366v102.733c0,0,4.366,0.124,4.366,0"/>
		<path class="st12" d="M204.741,197.041c0.007,3.157-0.293,6.039-0.771,8.614l-0.367-0.064c-0.474-0.663-1.566-0.321-2.108,0.289
			c-0.542,0.61-0.892,1.434-1.612,1.816c-1.195,0.635-2.697-0.286-3.999,0.089c-1.698,0.485-2.305,2.904-4.027,3.278
			c-1.135,0.246-2.369-0.724-2.398-1.883c-0.028-1.324,1.199-2.297,1.709-3.517c0.278-0.671,0.339-1.409,0.582-2.094
			c0.613-1.734,2.418-2.897,4.251-2.993c0.974-0.05,2.151,0.078,2.719-0.714c0.503-0.699,0.182-1.68,0.41-2.507
			c0.292-1.049,1.466-1.67,2.55-1.62c1.088,0.05,2.08,0.628,2.933,1.306H204.741z"/>
		<path class="st11" d="M204.741,197.041h-0.129c-0.852-0.678-1.844-1.256-2.932-1.306c-1.084-0.05-2.258,0.571-2.55,1.62
			c-0.228,0.827,0.093,1.808-0.41,2.507c-0.568,0.792-1.745,0.664-2.719,0.714c-1.833,0.096-3.638,1.259-4.252,2.993
			c-0.242,0.685-0.303,1.423-0.581,2.094c-0.51,1.22-1.737,2.193-1.709,3.517c0.029,1.159,1.263,2.129,2.397,1.883
			c1.723-0.374,2.33-2.793,4.028-3.278c1.302-0.374,2.804,0.546,3.998-0.089c0.721-0.382,1.071-1.206,1.613-1.816
			c0.542-0.61,1.634-0.952,2.108-0.289l0.367,0.064c-0.413,2.226-0.959,4.228-1.548,5.979l-0.117-0.039
			c-0.09,0-0.553,0.303-0.503,0.378c0.05,0.071-0.129,0.064-0.2,0.121c-0.71,0.542-1.737,0.257-2.54-0.135
			c-0.803-0.393-1.655-0.892-2.533-0.71c-0.788,0.164-1.387,0.888-1.544,1.68c-0.157,0.792,0.068,1.623,0.471,2.322
			c0.267,0.464,0.62,1.024,0.346,1.484c-0.321,0.531-1.11,0.36-1.73,0.403c-1.263,0.089-2.198,1.595-1.72,2.768v0.375h-2.636v-0.378
			c-0.642-1.035-1.131-2.583-0.909-3.778c0.153-0.835,0.524-1.655,0.403-2.493c-0.2-1.377-1.784-2.266-3.15-1.998
			c-0.724,0.143-1.416,0.574-1.741,1.234c-0.299,0.603-0.274,1.313-0.481,1.951c-0.207,0.642-0.856,1.26-1.484,1.017
			c-0.728-0.275-0.678-1.309-1.035-2.001c-0.378-0.728-1.287-1.074-2.097-0.938c-0.806,0.135-1.502,0.674-1.994,1.327l-0.446,0.182
			c-0.46-1.099-0.924-2.344-1.352-3.728l0.31-0.093c2.405,0.104,4.306-1.873,4.406-4.273c0.028-0.681-0.107-1.384-0.496-1.944
			c-0.778-1.12-2.408-1.452-3.071-2.643c-0.725-1.299,0.049-2.886,0.734-4.206c0.685-1.32,1.249-3.071,0.247-4.174
			c-0.892-0.977-2.587-0.752-3.585,0.118l-0.411-0.032c0.097-1.291,0.25-2.625,0.464-3.999l0.207,0.032
			c1.163,0.25,2.201-0.884,2.518-2.033c0.314-1.145,0.193-2.379,0.528-3.524c0.311-1.056,0.988-1.966,1.698-2.811
			c0.71-0.842,1.47-1.662,1.987-2.64c0.129-0.242,0.243-0.499,0.332-0.763l2.051,0.374c-0.4,1.21-0.535,2.483,0.061,3.568
			c0.485,0.877,1.733,1.23,2.661,1.612c1.487,0.613,1.74,2.55,2.418,4.006c0.357,0.767,1.081,1.537,1.905,1.362
			c0.599-0.128,0.995-0.717,1.152-1.305c0.157-0.592,0.143-1.217,0.275-1.812c0.25-1.167,1.027-2.141,1.823-3.032
			c0.792-0.889,1.644-1.77,2.108-2.868c0.463-1.099,0.442-2.501-0.393-3.35c-0.485-0.499-1.173-0.742-1.73-1.159
			c-1.07-0.806-1.548-2.155-1.969-3.424h5.387l1.259,0.021c1.255,2.522,2.293,4.972,3.142,7.341l-0.046,0.018
			c-1.662-0.46-3.588,0.724-3.924,2.418c-0.175,0.885,0.032,1.827-0.246,2.686c-0.353,1.088-1.387,1.777-2.172,2.608
			c-1.623,1.716-2.248,4.32-1.577,6.585c0.335,1.134,1.356,2.343,2.483,1.987c1.448-0.46,1.23-2.804,2.486-3.657
			c0.585-0.399,1.356-0.371,2.055-0.249c0.695,0.121,1.398,0.324,2.101,0.224c0.699-0.103,1.409-0.627,1.423-1.334l0.225-0.032
			C204.588,192.653,204.734,194.911,204.741,197.041z M191.414,198.618c0.246-1.759-1.32-3.296-2.982-3.928
			c-0.82-0.314-1.759-0.535-2.272-1.245c-0.806-1.109-0.121-2.636-0.136-4.002c-0.032-3.292-5.251-5.604-6.649-1.891
			c-0.421,1.124-0.089,2.487,0.803,3.286c0.838,0.76,2.24,1.312,2.122,2.436c-0.043,0.403-0.292,0.746-0.549,1.059
			c-0.639,0.785-1.366,1.52-1.816,2.43c-0.449,0.906-0.567,2.065,0.014,2.893c0.603,0.863,1.784,1.148,2.448,1.962
			c0.642,0.788,0.674,1.901,0.563,2.91c-0.107,1.01-0.328,2.041-0.085,3.025c0.246,0.985,1.145,1.909,2.147,1.748
			c0.977-0.157,1.537-1.223,1.676-2.204c0.143-0.978,0.025-2.005,0.368-2.936C187.893,201.914,191.082,200.99,191.414,198.618z"/>
		<path class="st12" d="M204.256,190.281l-0.225,0.032c-0.014,0.707-0.724,1.231-1.423,1.334c-0.703,0.1-1.406-0.103-2.101-0.224
			c-0.699-0.122-1.47-0.15-2.055,0.249c-1.256,0.853-1.038,3.197-2.486,3.657c-1.127,0.356-2.148-0.853-2.483-1.987
			c-0.671-2.265-0.046-4.869,1.577-6.585c0.785-0.831,1.819-1.52,2.172-2.608c0.278-0.859,0.071-1.801,0.246-2.686
			c0.336-1.694,2.262-2.878,3.924-2.418l0.046-0.018C202.875,183.011,203.767,186.775,204.256,190.281z"/>
		<path class="st12" d="M202.305,211.595l0.117,0.039c-1.844,5.479-4.116,8.522-4.116,8.522l-1.259,0.125h-4.695v-0.375
			c-0.478-1.173,0.457-2.679,1.72-2.768c0.62-0.043,1.409,0.128,1.73-0.403c0.274-0.46-0.079-1.02-0.346-1.484
			c-0.403-0.699-0.628-1.53-0.471-2.322c0.157-0.792,0.756-1.516,1.544-1.68c0.878-0.182,1.73,0.317,2.533,0.71
			c0.803,0.392,1.83,0.677,2.54,0.135c0.071-0.057,0.25-0.05,0.2-0.121C201.752,211.898,202.215,211.595,202.305,211.595z"/>
		<path class="st5" d="M191.66,171.664h-10.548c0,0-0.581,0-1.198-0.21c-0.699-0.232-1.445-0.735-1.445-1.805
			c0-2.015,2.772-2.14,2.772-2.14h15.681c0,0,0.01,0,0.035,0.003c0.325,0.022,2.733,0.257,2.733,2.137
			c0,2.015-2.643,2.015-2.643,2.015H191.66z"/>
		<path class="st5" d="M197.047,220.281c0,0,2.643,0,2.643,2.015s-2.768,2.14-2.768,2.14h-15.681c0,0-2.772-0.128-2.772-2.14
			c0-1.07,0.746-1.573,1.445-1.805c0.617-0.21,1.198-0.21,1.198-0.21H197.047z"/>
		<path class="st1" d="M196.957,167.512c-0.025-0.003-0.035-0.003-0.035-0.003h-15.681l-0.061-0.492
			c0.5-3.885,3.845-6.917,7.866-6.917c2.115,0,4.048,0.842,5.475,2.204C195.916,163.638,196.825,165.472,196.957,167.512z"/>
		<path class="st1" d="M189.113,224.436h7.798c-0.499,3.892-3.845,6.924-7.865,6.924c-1.966,0-3.767-0.724-5.155-1.915
			c-1.387-1.192-2.361-2.854-2.672-4.734l0.022-0.275H189.113z"/>
		<path class="st12" d="M195.359,176.248c0.835,0.849,0.857,2.251,0.393,3.35c-0.464,1.098-1.316,1.979-2.108,2.868
			c-0.796,0.891-1.573,1.865-1.823,3.032c-0.132,0.595-0.118,1.22-0.275,1.812c-0.157,0.588-0.553,1.177-1.152,1.305
			c-0.824,0.175-1.548-0.595-1.905-1.362c-0.678-1.456-0.931-3.393-2.418-4.006c-0.928-0.382-2.176-0.735-2.661-1.612
			c-0.596-1.085-0.461-2.358-0.061-3.568c0.164-0.488,0.367-0.97,0.581-1.419c0.749-1.57,1.648-3.239,1.324-4.948v-0.035h6.406
			c0.421,1.269,0.899,2.618,1.969,3.424C194.186,175.506,194.874,175.749,195.359,176.248z"/>
		<path class="st12" d="M188.432,194.69c1.662,0.632,3.228,2.169,2.982,3.928c-0.332,2.372-3.521,3.296-4.348,5.543
			c-0.343,0.931-0.225,1.958-0.368,2.936c-0.139,0.981-0.699,2.047-1.676,2.204c-1.002,0.161-1.901-0.763-2.147-1.748
			c-0.243-0.984-0.022-2.015,0.085-3.025c0.111-1.009,0.079-2.122-0.563-2.91c-0.664-0.814-1.845-1.099-2.448-1.962
			c-0.581-0.828-0.463-1.987-0.014-2.893c0.45-0.91,1.177-1.645,1.816-2.43c0.257-0.313,0.506-0.656,0.549-1.059
			c0.118-1.124-1.284-1.676-2.122-2.436c-0.892-0.799-1.224-2.162-0.803-3.286c1.398-3.713,6.617-1.401,6.649,1.891
			c0.015,1.366-0.67,2.893,0.136,4.002C186.673,194.155,187.612,194.376,188.432,194.69z"/>
		<path class="st12" d="M189.716,219.903v0.378h-8.604c0,0-0.581,0-1.198,0.21l-0.061-0.335c0,0-1.512-2.026-3.071-5.75l0.446-0.182
			c0.492-0.653,1.188-1.192,1.994-1.327c0.81-0.136,1.719,0.21,2.097,0.938c0.357,0.692,0.307,1.726,1.035,2.001
			c0.628,0.243,1.277-0.375,1.484-1.017c0.207-0.638,0.182-1.348,0.481-1.951c0.325-0.66,1.017-1.091,1.741-1.234
			c1.366-0.268,2.95,0.621,3.15,1.998c0.121,0.838-0.25,1.658-0.403,2.493C188.585,217.32,189.074,218.868,189.716,219.903z"/>
		<path class="st11" d="M185.254,171.7c0.324,1.709-0.575,3.378-1.324,4.948c-0.214,0.449-0.417,0.931-0.581,1.419l-2.051-0.374
			c0.271-0.792,0.339-1.648,0.057-2.426c-0.378-1.034-1.395-1.58-2.465-1.316l-0.093-0.043c0.332-0.735,0.685-1.473,1.056-2.222
			l0.061-0.232c0.617,0.21,1.198,0.211,1.198,0.211h4.142V171.7z"/>
		<path class="st12" d="M181.355,175.267c0.282,0.778,0.214,1.634-0.057,2.426c-0.089,0.264-0.203,0.521-0.332,0.763
			c-0.517,0.978-1.277,1.798-1.987,2.64c-0.71,0.845-1.387,1.755-1.698,2.811c-0.335,1.145-0.214,2.379-0.528,3.524
			c-0.317,1.149-1.355,2.283-2.518,2.033l-0.207-0.032c0.742-4.748,2.222-9.945,4.769-15.524l0.093,0.043
			C179.96,173.687,180.977,174.233,181.355,175.267z"/>
		<path class="st12" d="M179.65,204.368c0.389,0.56,0.524,1.263,0.496,1.944c-0.1,2.401-2.001,4.377-4.406,4.273l-0.31,0.093
			c-1.373-4.42-2.401-10.259-1.866-17.247l0.411,0.032c0.998-0.87,2.693-1.095,3.585-0.118c1.002,1.103,0.438,2.854-0.247,4.174
			c-0.684,1.32-1.459,2.907-0.734,4.206C177.242,202.916,178.872,203.248,179.65,204.368z"/>
		<path class="st4" d="M196.911,224.436c-0.499,3.892-3.845,6.924-7.865,6.924c-1.966,0-3.767-0.724-5.155-1.915
			c-1.387-1.192-2.361-2.854-2.672-4.734"/>
		<path class="st4" d="M181.18,167.017c0.5-3.885,3.845-6.917,7.866-6.917c2.115,0,4.048,0.842,5.475,2.204
			c1.395,1.334,2.304,3.168,2.436,5.208c0.008,0.047,0.008,0.093,0.011,0.139"/>
		<path class="st4" d="M179.853,171.686c-0.371,0.749-0.724,1.487-1.056,2.222c-2.547,5.579-4.027,10.776-4.769,15.524
			c-0.214,1.374-0.367,2.708-0.464,3.999c-0.535,6.988,0.493,12.827,1.866,17.247c0.428,1.384,0.892,2.629,1.352,3.728
			c1.559,3.724,3.071,5.75,3.071,5.75"/>
		<path class="st4" d="M189.113,224.436h7.809c0,0,2.768-0.128,2.768-2.14c0-2.012-2.643-2.015-2.643-2.015h-15.935
			c0,0-0.581,0-1.198,0.21c-0.699,0.232-1.445,0.735-1.445,1.805c0,2.012,2.772,2.14,2.772,2.14h7.805"/>
		<path class="st4" d="M189.113,167.509h7.809c0,0,0.01,0,0.035,0.003c0.325,0.022,2.733,0.257,2.733,2.137
			c0,2.015-2.643,2.015-2.643,2.015h-15.935c0,0-0.581,0-1.198-0.21c-0.699-0.232-1.445-0.735-1.445-1.805
			c0-2.015,2.772-2.14,2.772-2.14h7.805"/>
		<path class="st4" d="M198.306,171.686c1.255,2.522,2.293,4.972,3.142,7.341c1.427,3.984,2.319,7.748,2.808,11.254
			c0.332,2.372,0.478,4.63,0.485,6.76c0.007,3.157-0.293,6.039-0.771,8.614c-0.413,2.226-0.959,4.228-1.548,5.979
			c-1.844,5.479-4.116,8.522-4.116,8.522"/>
		<path class="st4" d="M192.352,219.906c-0.478-1.173,0.457-2.679,1.72-2.768c0.62-0.043,1.409,0.128,1.73-0.403
			c0.274-0.46-0.079-1.02-0.346-1.484c-0.403-0.699-0.628-1.53-0.471-2.322c0.157-0.792,0.756-1.516,1.544-1.68
			c0.878-0.182,1.73,0.317,2.533,0.71c0.803,0.392,1.83,0.677,2.54,0.135c0.071-0.057,0.25-0.05,0.2-0.121
			c-0.05-0.075,0.413-0.378,0.503-0.378"/>
		<path class="st4" d="M204.613,197.041c-0.853-0.678-1.845-1.256-2.933-1.306c-1.084-0.05-2.258,0.571-2.55,1.62
			c-0.228,0.827,0.093,1.808-0.41,2.507c-0.568,0.792-1.745,0.664-2.719,0.714c-1.833,0.096-3.638,1.259-4.251,2.993
			c-0.243,0.685-0.304,1.423-0.582,2.094c-0.51,1.22-1.737,2.193-1.709,3.517c0.029,1.159,1.263,2.129,2.398,1.883
			c1.722-0.374,2.329-2.793,4.027-3.278c1.302-0.375,2.804,0.546,3.999-0.089c0.72-0.382,1.07-1.206,1.612-1.816
			c0.542-0.61,1.634-0.952,2.108-0.289"/>
		<path class="st4" d="M179.375,187.552c-0.421,1.124-0.089,2.487,0.803,3.286c0.838,0.76,2.24,1.312,2.122,2.436
			c-0.043,0.403-0.292,0.746-0.549,1.059c-0.639,0.785-1.366,1.52-1.816,2.43c-0.449,0.906-0.567,2.065,0.014,2.893
			c0.603,0.863,1.784,1.148,2.448,1.962c0.642,0.788,0.674,1.901,0.563,2.91c-0.107,1.01-0.328,2.041-0.085,3.025
			c0.246,0.985,1.145,1.909,2.147,1.748c0.977-0.157,1.537-1.223,1.676-2.204c0.143-0.978,0.025-2.005,0.368-2.936
			c0.827-2.247,4.016-3.171,4.348-5.543c0.246-1.759-1.32-3.296-2.982-3.928c-0.82-0.314-1.759-0.535-2.272-1.245
			c-0.806-1.109-0.121-2.636-0.136-4.002C185.992,186.151,180.773,183.839,179.375,187.552z"/>
		<path class="st4" d="M201.402,179.045c-1.662-0.46-3.588,0.724-3.924,2.418c-0.175,0.885,0.032,1.827-0.246,2.686
			c-0.353,1.088-1.387,1.777-2.172,2.608c-1.623,1.716-2.248,4.32-1.577,6.585c0.335,1.134,1.356,2.343,2.483,1.987
			c1.448-0.46,1.23-2.804,2.486-3.657c0.585-0.399,1.356-0.371,2.055-0.249c0.695,0.121,1.398,0.324,2.101,0.224
			c0.699-0.103,1.409-0.627,1.423-1.334"/>
		<path class="st4" d="M185.254,171.7c0.324,1.709-0.575,3.378-1.324,4.948c-0.214,0.449-0.417,0.931-0.581,1.419
			c-0.4,1.21-0.535,2.483,0.061,3.568c0.485,0.877,1.733,1.23,2.661,1.612c1.487,0.613,1.74,2.55,2.418,4.006
			c0.357,0.767,1.081,1.537,1.905,1.362c0.599-0.128,0.995-0.717,1.152-1.305c0.157-0.592,0.143-1.217,0.275-1.812
			c0.25-1.167,1.027-2.141,1.823-3.032c0.792-0.889,1.644-1.77,2.108-2.868c0.464-1.099,0.442-2.501-0.393-3.35
			c-0.485-0.499-1.173-0.742-1.73-1.159c-1.07-0.806-1.548-2.155-1.969-3.425c-0.003-0.007-0.003-0.014-0.007-0.021"/>
		<path class="st4" d="M178.89,173.951c1.07-0.264,2.087,0.282,2.465,1.316c0.282,0.778,0.214,1.634-0.057,2.426
			c-0.089,0.264-0.203,0.521-0.332,0.763c-0.517,0.978-1.277,1.798-1.987,2.64c-0.71,0.845-1.387,1.755-1.698,2.811
			c-0.335,1.145-0.214,2.379-0.528,3.524c-0.317,1.149-1.355,2.283-2.518,2.033"/>
		<path class="st4" d="M173.975,193.463c0.998-0.87,2.693-1.095,3.585-0.118c1.002,1.103,0.438,2.854-0.247,4.174
			c-0.684,1.32-1.459,2.907-0.734,4.206c0.663,1.191,2.293,1.523,3.071,2.643c0.389,0.56,0.524,1.263,0.496,1.944
			c-0.1,2.401-2.001,4.377-4.406,4.273"/>
		<path class="st4" d="M177.228,214.224c0.492-0.653,1.188-1.192,1.994-1.327c0.81-0.136,1.719,0.21,2.097,0.938
			c0.357,0.692,0.307,1.726,1.035,2.001c0.628,0.243,1.277-0.375,1.484-1.017c0.207-0.638,0.182-1.348,0.481-1.951
			c0.325-0.66,1.017-1.091,1.741-1.234c1.366-0.268,2.95,0.621,3.15,1.998c0.121,0.838-0.25,1.658-0.403,2.493
			c-0.222,1.195,0.267,2.743,0.909,3.778"/>
		<path class="st6" d="M184.366,60.788l-2.408,4.056h6.899v-0.068L184.366,60.788z"/>
		<path class="st6" d="M181.958,64.844l6.981,9.078l0.203-0.267l-0.457-0.353l0.172-8.458H181.958z"/>
		<path class="st6" d="M184.366,60.788l4.491,3.988l4.487-3.988H184.366z"/>
		<path class="st6" d="M188.857,64.844l-0.172,8.458l0.457,0.353l6.774-8.811H188.857z"/>
		<path class="st6" d="M188.857,64.776v0.068h7.059l-2.572-4.056L188.857,64.776z"/>
		<path class="st4" d="M195.916,64.844l-6.774,8.811l-0.203,0.267l-6.981-9.078h6.899H195.916z"/>
		<path class="st4" d="M195.916,64.844l-2.572-4.056h-8.978l-2.408,4.056"/>
		<path class="st4" d="M184.366,60.788l4.491,3.988l4.487-3.988"/>
		<path class="st4" d="M188.857,64.776v0.068l-0.172,8.458"/>
		<path class="st10" d="M193.833,72.799c0.353,0.353,0.574,0.842,0.574,1.377c0,1.074-0.878,1.951-1.951,1.951h-7.241
			c-0.539,0-1.024-0.218-1.377-0.574c-0.354-0.353-0.575-0.842-0.575-1.377c0-1.074,0.878-1.951,1.952-1.951h7.241
			C192.994,72.224,193.48,72.442,193.833,72.799z"/>
		<path class="st4" d="M185.215,76.127h7.241c1.073,0,1.951-0.878,1.951-1.951c0-0.535-0.221-1.024-0.574-1.377
			c-0.353-0.357-0.839-0.574-1.377-0.574h-7.241c-1.074,0-1.952,0.878-1.952,1.951c0,0.535,0.221,1.024,0.575,1.377
			C184.191,75.909,184.676,76.127,185.215,76.127z"/>
		<path class="st14" d="M194.122,94.733v3.278c0,1.559-1.274,2.832-2.833,2.832h-4.908c-1.363,0-2.511-0.974-2.775-2.265h0.064
			h2.101c3.585,0,2.344-3.842,5.929-3.842h2.418L194.122,94.733z"/>
		<path class="st5" d="M194.122,89.125v5.607h-2.419c-3.585,0-2.343,3.842-5.928,3.842h-2.169c-0.036-0.178-0.057-0.371-0.057-0.564
			v-5.044h2.226c3.585,0,2.343-3.842,5.928-3.842H194.122z"/>
		<path class="st14" d="M194.122,84.12v5.005h-2.419c-3.585,0-2.343,3.842-5.928,3.842h-2.226v-5.607h2.226
			c3.585,0,2.343-3.838,5.928-3.838h2.294l0.057-0.014C194.097,83.703,194.122,83.91,194.122,84.12z"/>
		<path class="st5" d="M194.054,83.507l-0.057,0.014h-2.294c-3.585,0-2.343,3.838-5.928,3.838h-2.226V84.12
			c0-1.555,1.273-2.829,2.832-2.829h4.908C192.638,81.292,193.772,82.244,194.054,83.507z"/>
		<path class="st4" d="M194.122,94.733v3.278c0,1.559-1.274,2.832-2.833,2.832h-4.908c-1.363,0-2.511-0.974-2.775-2.265
			c-0.036-0.182-0.057-0.375-0.057-0.567V84.12c0-1.555,1.273-2.829,2.832-2.829h4.908c1.349,0,2.483,0.952,2.765,2.215
			c0.043,0.196,0.068,0.403,0.068,0.613V94.733z"/>
		<path class="st4" d="M183.67,87.359h2.105c3.585,0,2.343-3.838,5.928-3.838h2.294"/>
		<path class="st4" d="M183.67,92.967h2.105c3.585,0,2.343-3.842,5.928-3.842h2.294"/>
		<path class="st4" d="M183.67,98.578h2.105c3.585,0,2.343-3.842,5.928-3.842h2.294"/>
		<path class="st3" d="M188.935,56.112c1.159,0,2.101,0.938,2.101,2.097c0,1.159-0.942,2.097-2.101,2.097s-2.097-0.938-2.097-2.097
			C186.838,57.05,187.779,56.112,188.935,56.112z"/>
		<path class="st4" d="M191.036,58.209c0,1.159-0.942,2.097-2.101,2.097s-2.097-0.938-2.097-2.097c0-1.159,0.941-2.097,2.097-2.097
			C190.091,56.112,191.036,57.05,191.036,58.209z"/>
		<path class="st10" d="M193.833,158.409c0.353,0.353,0.574,0.842,0.574,1.377c0,1.074-0.878,1.951-1.951,1.951h-7.241
			c-0.539,0-1.024-0.217-1.377-0.574c-0.354-0.353-0.575-0.842-0.575-1.377c0-1.074,0.878-1.951,1.952-1.951h7.241
			C192.994,157.835,193.48,158.052,193.833,158.409z"/>
		<path class="st4" d="M185.215,161.737h7.241c1.073,0,1.951-0.877,1.951-1.951c0-0.535-0.221-1.024-0.574-1.377
			c-0.353-0.357-0.839-0.574-1.377-0.574h-7.241c-1.074,0-1.952,0.877-1.952,1.951c0,0.535,0.221,1.024,0.575,1.377
			C184.191,161.52,184.676,161.737,185.215,161.737z"/>
		<path class="st14" d="M289.314,209.875c-0.147,3.503,2.104,4.506,2.104,4.506s-2.251,1.851-1.748,4.202
			c0.539,2.511,3.475,3.203,3.475,3.203s-0.453,2.504,1.876,4.505c1.291,1.11,4.505,0.978,4.505,0.978s1.299,2.907,3.403,3.567
			c2.686,0.838,5.679-1.242,5.679-1.242s2.511,1.998,4.355,2.33c3.603,0.224,5.33-2.255,5.33-2.255s2.611,1.795,5.286,0.831
			c2.472-0.891,3.724-4.059,3.724-4.059s3.157,0.703,4.67-1.145c1.73-2.115,1.484-4.634,1.484-4.634s2.579-0.67,2.928-3.756
			c0.285-2.522-2.026-4.052-2.026-4.052s1.809-1.826,1.306-4.512c-0.503-2.687-3.182-3.147-3.182-3.147s0.132-3.032-1.52-4.405
			c-2.012-1.68-4.712-0.999-4.712-0.999s-0.845-2.615-3.849-3.367c-3.003-0.749-5.836,0.888-5.836,0.888s-1.052-1.652-4.505-1.726
			c-3.453-0.075-5.105,2.254-5.105,2.254s-2.985-1.484-5.368-0.578c-2.736,1.042-3.639,3.656-3.639,3.656s-2.254-0.827-4.43,0.6
			c-2.176,1.426-1.102,4.854-1.102,4.854C291.618,206.572,289.399,207.867,289.314,209.875z"/>
		<path class="st4" d="M291.418,214.381c0,0-2.251-1.003-2.104-4.506c0.085-2.008,2.304-3.303,3.103-3.503
			c0,0-1.074-3.428,1.102-4.854c2.176-1.427,4.43-0.6,4.43-0.6s0.903-2.614,3.639-3.656c2.383-0.906,5.368,0.578,5.368,0.578
			s1.652-2.329,5.105-2.254c3.453,0.074,4.505,1.726,4.505,1.726s2.833-1.637,5.836-0.888c3.004,0.752,3.849,3.367,3.849,3.367
			s2.7-0.681,4.712,0.999c1.652,1.373,1.52,4.405,1.52,4.405s2.679,0.46,3.182,3.147c0.503,2.686-1.306,4.512-1.306,4.512
			s2.311,1.53,2.026,4.052c-0.349,3.086-2.928,3.756-2.928,3.756s0.246,2.519-1.484,4.634c-1.513,1.848-4.67,1.145-4.67,1.145
			s-1.252,3.168-3.724,4.059c-2.675,0.964-5.286-0.831-5.286-0.831s-1.727,2.479-5.33,2.255c-1.844-0.332-4.355-2.33-4.355-2.33
			s-2.993,2.08-5.679,1.242c-2.104-0.66-3.403-3.567-3.403-3.567s-3.214,0.132-4.505-0.978c-2.329-2.001-1.876-4.505-1.876-4.505
			s-2.936-0.692-3.475-3.203C289.167,216.232,291.418,214.381,291.418,214.381z"/>
		<path class="st14" d="M276.715,184.249c-0.083,1.955,1.17,2.511,1.17,2.511s-1.253,1.031-0.974,2.344
			c0.299,1.402,1.937,1.787,1.937,1.787s-0.254,1.395,1.045,2.511c0.717,0.618,2.511,0.543,2.511,0.543s0.728,1.623,1.901,1.99
			c1.499,0.467,3.168-0.692,3.168-0.692s1.398,1.113,2.429,1.299c2.008,0.124,2.972-1.256,2.972-1.256s1.455,1.002,2.95,0.46
			c1.376-0.496,2.076-2.262,2.076-2.262s1.762,0.389,2.604-0.638c0.963-1.181,0.827-2.586,0.827-2.586s1.438-0.375,1.634-2.094
			c0.16-1.406-1.131-2.262-1.131-2.262s1.01-1.016,0.728-2.514c-0.282-1.499-1.773-1.755-1.773-1.755s0.075-1.691-0.849-2.458
			c-1.124-0.938-2.629-0.557-2.629-0.557s-0.471-1.459-2.147-1.876c-1.677-0.417-3.254,0.496-3.254,0.496s-0.588-0.92-2.511-0.963
			c-1.926-0.043-2.846,1.255-2.846,1.255s-1.666-0.824-2.993-0.321c-1.527,0.582-2.03,2.037-2.03,2.037s-1.256-0.46-2.468,0.335
			c-1.217,0.796-0.614,2.708-0.614,2.708c-0.446,0.11-1.684,0.835-1.73,1.955L276.715,184.249z"/>
		<path class="st4" d="M277.888,186.764c0,0-1.252-0.56-1.17-2.511c0.046-1.12,1.284-1.841,1.73-1.955c0,0-0.599-1.912,0.614-2.708
			c1.212-0.795,2.468-0.335,2.468-0.335s0.507-1.455,2.03-2.037c1.33-0.506,2.992,0.321,2.992,0.321s0.921-1.298,2.847-1.255
			c1.926,0.042,2.511,0.963,2.511,0.963s1.581-0.917,3.253-0.496c1.677,0.421,2.148,1.876,2.148,1.876s1.505-0.381,2.629,0.557
			c0.92,0.767,0.849,2.457,0.849,2.457s1.494,0.257,1.773,1.756c0.278,1.498-0.728,2.514-0.728,2.514s1.288,0.856,1.131,2.262
			c-0.196,1.719-1.634,2.094-1.634,2.094s0.136,1.405-0.828,2.586c-0.841,1.027-2.604,0.638-2.604,0.638s-0.699,1.766-2.076,2.262
			c-1.491,0.539-2.95-0.46-2.95-0.46s-0.963,1.38-2.971,1.255c-1.031-0.185-2.429-1.298-2.429-1.298s-1.67,1.159-3.168,0.692
			c-1.173-0.367-1.901-1.99-1.901-1.99s-1.794,0.074-2.511-0.543c-1.299-1.116-1.045-2.511-1.045-2.511s-1.638-0.389-1.937-1.787
			c-0.282-1.313,0.973-2.344,0.973-2.344L277.888,186.764z"/>
		<path class="st14" d="M266.791,169.413c-0.036,0.889,0.535,1.145,0.535,1.145s-0.571,0.471-0.442,1.067
			c0.135,0.639,0.881,0.813,0.881,0.813s-0.114,0.635,0.478,1.145c0.328,0.282,1.145,0.25,1.145,0.25s0.328,0.738,0.863,0.906
			c0.681,0.214,1.441-0.314,1.441-0.314s0.639,0.507,1.106,0.592c0.913,0.057,1.352-0.57,1.352-0.57s0.663,0.456,1.341,0.21
			c0.628-0.225,0.945-1.031,0.945-1.031s0.803,0.179,1.185-0.292c0.438-0.539,0.378-1.177,0.378-1.177s0.652-0.172,0.742-0.953
			c0.071-0.642-0.514-1.027-0.514-1.027s0.46-0.464,0.332-1.145c-0.129-0.682-0.806-0.799-0.806-0.799s0.032-0.771-0.386-1.12
			c-0.51-0.428-1.195-0.254-1.195-0.254s-0.214-0.663-0.977-0.856c-0.763-0.192-1.48,0.225-1.48,0.225s-0.268-0.421-1.145-0.439
			c-0.878-0.018-1.295,0.571-1.295,0.571s-0.76-0.378-1.363-0.146c-0.696,0.264-0.924,0.927-0.924,0.927s-0.571-0.21-1.123,0.154
			c-0.553,0.363-0.279,1.234-0.279,1.234c-0.203,0.05-0.767,0.378-0.788,0.888L266.791,169.413z"/>
		<path class="st4" d="M267.326,170.555c0,0-0.571-0.253-0.535-1.145c0.021-0.51,0.585-0.838,0.788-0.888
			c0,0-0.271-0.871,0.278-1.234c0.55-0.364,1.124-0.154,1.124-0.154s0.228-0.663,0.924-0.927c0.606-0.228,1.363,0.146,1.363,0.146
			s0.42-0.592,1.294-0.571c0.874,0.022,1.145,0.439,1.145,0.439s0.721-0.417,1.481-0.225c0.76,0.193,0.977,0.856,0.977,0.856
			s0.685-0.171,1.195,0.254c0.421,0.349,0.385,1.12,0.385,1.12s0.682,0.118,0.807,0.799c0.124,0.681-0.332,1.145-0.332,1.145
			s0.588,0.389,0.514,1.027c-0.09,0.785-0.742,0.953-0.742,0.953s0.06,0.638-0.379,1.177c-0.385,0.471-1.184,0.292-1.184,0.292
			s-0.317,0.803-0.945,1.031c-0.678,0.246-1.341-0.21-1.341-0.21s-0.439,0.628-1.352,0.57c-0.468-0.085-1.106-0.592-1.106-0.592
			s-0.76,0.528-1.441,0.314c-0.535-0.167-0.863-0.906-0.863-0.906s-0.817,0.032-1.145-0.25c-0.593-0.506-0.478-1.145-0.478-1.145
			s-0.746-0.174-0.882-0.813c-0.128-0.596,0.443-1.066,0.443-1.066L267.326,170.555z"/>
		<path class="st17" d="M98.794,119.196c-4.623,4.623-4.623,12.114,0,16.737c4.623,4.623,12.114,4.623,16.737,0l-3.203-3.204
			c-2.85,2.851-7.477,2.851-10.327,0c-2.85-2.85-2.85-7.476,0-10.326l-3.289-3.428"/>
		<path class="st18" d="M98.794,119.196c-4.623,4.623-4.623,12.114,0,16.737c4.623,4.623,12.114,4.623,16.737,0l-3.203-3.204
			c-2.85,2.851-7.477,2.851-10.327,0c-2.85-2.85-2.85-7.476,0-10.326l-3.289-3.428"/>
		<path class="st19" d="M98.712,118.975c-4.623-4.623-4.623-12.114,0-16.737c4.623-4.623,12.114-4.623,16.737,0l-3.203,3.203
			c-2.85-2.85-7.477-2.85-10.327,0c-2.85,2.85-2.85,7.477,0,10.327l-3.203,3.203L98.712,118.975z"/>
		<path class="st7" d="M67.14,119.021v-2.554h19.095v1.266c0,1.509,0.717,1.677,2.147,1.677h6.289v2.764H76.414v-1.473
			c0-1.512-0.717-1.68-2.147-1.68H67.14z M80.905,118.928c0,0.232,0.189,0.418,0.421,0.418c0.232,0,0.417-0.186,0.417-0.418
			s-0.186-0.421-0.417-0.421C81.094,118.507,80.905,118.696,80.905,118.928z"/>
		<path class="st15" d="M67.14,122.174v-3.153h7.127c1.43,0,2.147,0.168,2.147,1.68v1.473H67.14z"/>
		<path class="st15" d="M86.234,116.524v-0.057h8.436v2.943h-6.289c-1.43,0-2.147-0.168-2.147-1.677V116.524z"/>
		<path class="st18" d="M94.671,119.41v-2.943h-8.436H67.14v2.554v3.153h9.274h18.257V119.41z"/>
		<path class="st18" d="M66.972,119.021h7.295c1.43,0,2.147,0.168,2.147,1.68v1.206"/>
		<path class="st18" d="M86.234,116.524v0.032"/>
		<path class="st18" d="M95.676,119.41h-7.295c-1.43,0-2.147-0.168-2.147-1.677v-1.177"/>
		<path class="st18" d="M80.905,118.928c0-0.232,0.189-0.421,0.421-0.421c0.232,0,0.417,0.189,0.417,0.421s-0.186,0.418-0.417,0.418
			C81.094,119.346,80.905,119.16,80.905,118.928z"/>
		<path class="st15" d="M-1.349,119.345v-2.878h18.635v1.202c0,1.509-1.01,1.676-3.021,1.676H-1.349z"/>
		<path class="st7" d="M-1.349,122.174v-2.829h15.613c2.012,0,3.021-0.167,3.021-1.676v-1.202h35.386v2.7H32.867
			c-2.611,0-3.917,0.168-3.917,1.68v1.327H-1.349z M19.551,118.928c0,0.232,0.189,0.417,0.421,0.417
			c0.232,0,0.417-0.185,0.417-0.417s-0.186-0.421-0.417-0.421C19.74,118.507,19.551,118.696,19.551,118.928z"/>
		<path class="st15" d="M28.95,122.021v-1.174c0-1.512,1.306-1.68,3.917-1.68h19.805v3.007H28.95V122.021z"/>
		<path class="st15" d="M52.672,116.485v-0.018h7.719v5.707h-7.719V116.485z M55.222,118.928c0,0.232,0.189,0.418,0.421,0.418
			c0.232,0,0.417-0.186,0.417-0.418s-0.185-0.421-0.417-0.421C55.411,118.507,55.222,118.696,55.222,118.928z"/>
		<path class="st18" d="M52.672,122.174h7.719v-5.707h-7.719H17.286H-1.349v2.878v2.829H28.95H52.672z"/>
		<path class="st18" d="M17.286,116.46v0.007"/>
		<path class="st18" d="M17.286,116.467v0.024"/>
		<path class="st18" d="M-1.013,119.346h15.278c2.012,0,3.021-0.168,3.021-1.677v-1.177"/>
		<path class="st18" d="M19.551,118.928c0-0.232,0.189-0.421,0.421-0.421c0.232,0,0.417,0.189,0.417,0.421s-0.186,0.418-0.417,0.418
			C19.74,119.346,19.551,119.16,19.551,118.928z"/>
		<path class="st18" d="M55.222,118.928c0-0.232,0.189-0.421,0.421-0.421c0.232,0,0.417,0.189,0.417,0.421s-0.185,0.418-0.417,0.418
			C55.411,119.346,55.222,119.16,55.222,118.928z"/>
		<path class="st18" d="M52.672,119.167H32.867c-2.611,0-3.917,0.168-3.917,1.68v1.206"/>
		<path class="st18" d="M52.672,122.192v-0.018v-3.007v-2.682"/>
		<path class="st20" d="M58.118,122.007c0,0.973,0.789,1.762,1.762,1.762s1.762-0.789,1.762-1.762v-5.372
			c0-0.974-0.789-1.762-1.762-1.762s-1.762,0.788-1.762,1.762V122.007z"/>
		<path class="st20" d="M61.686,122.007c0,0.973,0.789,1.762,1.762,1.762c0.973,0,1.762-0.789,1.762-1.762v-5.372
			c0-0.974-0.789-1.762-1.762-1.762c-0.973,0-1.762,0.788-1.762,1.762V122.007z"/>
		<path class="st20" d="M65.253,122.007c0,0.973,0.789,1.762,1.762,1.762s1.762-0.789,1.762-1.762v-5.372
			c0-0.974-0.789-1.762-1.762-1.762s-1.762,0.788-1.762,1.762V122.007z"/>
		<path class="st16" d="M95.099,124.582c-3.107,0-5.625-2.518-5.625-5.622c0-3.103,2.518-5.625,5.625-5.625
			c3.107,0,5.621,2.519,5.621,5.625C100.72,122.067,98.202,124.582,95.099,124.582z M93.251,118.96c0,1.021,0.828,1.845,1.848,1.845
			c1.02,0,1.844-0.824,1.844-1.845c0-1.02-0.824-1.847-1.844-1.847C94.078,117.113,93.251,117.94,93.251,118.96z"/>
		<path class="st2" d="M95.099,120.805c-1.02,0-1.848-0.824-1.848-1.845c0-1.02,0.828-1.847,1.848-1.847
			c1.02,0,1.844,0.827,1.844,1.847C96.943,119.981,96.119,120.805,95.099,120.805z"/>
		<path class="st18" d="M93.251,118.96c0-1.02,0.828-1.847,1.848-1.847c1.02,0,1.844,0.827,1.844,1.847
			c0,1.021-0.824,1.845-1.844,1.845C94.078,120.805,93.251,119.981,93.251,118.96z"/>
		<path class="st18" d="M89.473,118.96c0-3.106,2.518-5.625,5.625-5.625c3.107,0,5.621,2.519,5.621,5.625
			c0,3.107-2.518,5.622-5.621,5.622S89.473,122.064,89.473,118.96z"/>
		<path class="st17" d="M88.942,178.945c-4.623,4.623-4.623,12.114,0,16.737c4.623,4.623,12.114,4.623,16.737,0l-3.204-3.203
			c-2.85,2.85-7.476,2.85-10.326,0c-2.85-2.851-2.85-7.477,0-10.327l-3.289-3.428"/>
		<path class="st18" d="M88.942,178.945c-4.623,4.623-4.623,12.114,0,16.737c4.623,4.623,12.114,4.623,16.737,0l-3.204-3.203
			c-2.85,2.85-7.476,2.85-10.326,0c-2.85-2.851-2.85-7.477,0-10.327l-3.289-3.428"/>
		<path class="st19" d="M88.856,178.724c-4.623-4.623-4.623-12.114,0-16.737c4.623-4.623,12.114-4.623,16.737,0l-3.203,3.203
			c-2.85-2.85-7.477-2.85-10.327,0c-2.85,2.85-2.85,7.477,0,10.327l-3.203,3.203L88.856,178.724z"/>
		<path class="st21" d="M15.37,178.458l22.266,13.93l1.283-2.051l-22.266-13.93L15.37,178.458z"/>
		<path class="st21" d="M36.597,167.818l0.415,23.097l2.397-0.043l-0.415-23.097L36.597,167.818z"/>
		<path class="st21" d="M35.597,168.201l22.266,13.93l1.283-2.05l-22.266-13.93L35.597,168.201z"/>
		<path class="st15" d="M-11.201,179.095v-2.879H7.43v1.202c0,1.509-1.006,1.677-3.021,1.677H-11.201z"/>
		<path class="st7" d="M-11.201,181.923v-2.828h15.61c2.015,0,3.021-0.168,3.021-1.677v-1.202h8.896v5.707H-11.201z M9.699,178.677
			c0,0.232,0.185,0.418,0.417,0.418c0.232,0,0.421-0.186,0.421-0.418s-0.189-0.421-0.421-0.421
			C9.884,178.256,9.699,178.445,9.699,178.677z"/>
		<path class="st18" d="M-11.201,179.095v2.828h27.527v-5.707H7.43h-18.631V179.095z"/>
		<path class="st18" d="M7.43,176.209v0.007"/>
		<path class="st18" d="M7.43,176.216v0.024"/>
		<path class="st18" d="M-10.866,179.095H4.408c2.015,0,3.021-0.168,3.021-1.677v-1.177"/>
		<path class="st18" d="M9.699,178.677c0-0.231,0.185-0.42,0.417-0.42c0.232,0,0.421,0.189,0.421,0.42
			c0,0.232-0.189,0.418-0.421,0.418C9.884,179.095,9.699,178.909,9.699,178.677z"/>
		<path class="st7" d="M57.287,178.77v-2.554h15.528v1.266c0,1.509,0.713,1.677,2.147,1.677h9.852v2.764H70.129v-1.473
			c0-1.512-0.717-1.68-2.151-1.68H57.287z"/>
		<path class="st15" d="M57.287,181.923v-3.153h10.691c1.434,0,2.151,0.168,2.151,1.68v1.473H57.287z"/>
		<path class="st15" d="M72.815,176.273v-0.057h12v2.943h-9.852c-1.434,0-2.147-0.168-2.147-1.677V176.273z"/>
		<path class="st18" d="M84.815,179.159v-2.943h-12H57.287v2.554v3.153h12.842h14.686V179.159z"/>
		<path class="st18" d="M57.12,178.77h10.858c1.434,0,2.151,0.168,2.151,1.68v1.206"/>
		<path class="st18" d="M72.815,176.273v0.032"/>
		<path class="st18" d="M85.824,179.159H74.962c-1.434,0-2.147-0.168-2.147-1.677v-1.177"/>
		<path class="st16" d="M19.055,185.013c-3.107,0-5.622-2.519-5.622-5.622c0-3.104,2.515-5.625,5.622-5.625
			c3.107,0,5.625,2.518,5.625,5.625C24.68,182.498,22.162,185.013,19.055,185.013z M17.207,179.391c0,1.02,0.828,1.844,1.848,1.844
			c1.02,0,1.848-0.824,1.848-1.844c0-1.02-0.828-1.848-1.848-1.848C18.035,177.543,17.207,178.371,17.207,179.391z"/>
		<path class="st2" d="M19.055,181.235c-1.02,0-1.848-0.824-1.848-1.844c0-1.02,0.827-1.848,1.848-1.848
			c1.02,0,1.848,0.828,1.848,1.848C20.903,180.411,20.075,181.235,19.055,181.235z"/>
		<path class="st18" d="M17.207,179.391c0-1.02,0.827-1.848,1.848-1.848c1.02,0,1.848,0.828,1.848,1.848
			c0,1.02-0.828,1.844-1.848,1.844C18.035,181.235,17.207,180.411,17.207,179.391z"/>
		<path class="st18" d="M13.433,179.391c0-3.107,2.515-5.625,5.622-5.625c3.107,0,5.625,2.518,5.625,5.625
			c0,3.107-2.518,5.622-5.625,5.622C15.948,185.013,13.433,182.494,13.433,179.391z"/>
		<path class="st16" d="M56.153,185.013c-3.107,0-5.622-2.519-5.622-5.622c0-3.104,2.515-5.625,5.622-5.625
			c3.107,0,5.625,2.518,5.625,5.625C61.778,182.498,59.26,185.013,56.153,185.013z M54.305,179.391c0,1.02,0.828,1.844,1.848,1.844
			s1.848-0.824,1.848-1.844c0-1.02-0.828-1.848-1.848-1.848S54.305,178.371,54.305,179.391z"/>
		<path class="st2" d="M56.153,181.235c-1.02,0-1.848-0.824-1.848-1.844c0-1.02,0.828-1.848,1.848-1.848s1.848,0.828,1.848,1.848
			C58.001,180.411,57.173,181.235,56.153,181.235z"/>
		<path class="st18" d="M54.305,179.391c0-1.02,0.828-1.848,1.848-1.848s1.848,0.828,1.848,1.848c0,1.02-0.828,1.844-1.848,1.844
			S54.305,180.411,54.305,179.391z"/>
		<path class="st18" d="M50.531,179.391c0-3.107,2.515-5.625,5.622-5.625c3.107,0,5.625,2.518,5.625,5.625
			c0,3.107-2.518,5.622-5.625,5.622C53.046,185.013,50.531,182.494,50.531,179.391z"/>
		<path class="st22" d="M37.961,171.458c1.923,0,3.481-1.559,3.481-3.482s-1.559-3.481-3.481-3.481
			c-1.923,0-3.482,1.558-3.482,3.481S36.038,171.458,37.961,171.458z"/>
		<path class="st22" d="M37.961,194.287c1.923,0,3.481-1.559,3.481-3.481c0-1.923-1.559-3.482-3.481-3.482
			c-1.923,0-3.482,1.559-3.482,3.482C34.479,192.728,36.038,194.287,37.961,194.287z"/>
		<path class="st20" d="M81.797,181.756c0,0.973,0.789,1.762,1.762,1.762c0.973,0,1.762-0.789,1.762-1.762v-5.372
			c0-0.973-0.789-1.762-1.762-1.762c-0.973,0-1.762,0.789-1.762,1.762V181.756z"/>
		<path class="st20" d="M85.364,181.756c0,0.973,0.789,1.762,1.762,1.762c0.973,0,1.762-0.789,1.762-1.762v-5.372
			c0-0.973-0.789-1.762-1.762-1.762c-0.973,0-1.762,0.789-1.762,1.762V181.756z"/>
		<path class="st17" d="M279.572,132.266c4.623-4.623,4.623-12.114,0-16.737c-4.623-4.623-12.114-4.623-16.737,0l3.203,3.203
			c2.85-2.85,7.477-2.85,10.327,0c2.85,2.85,2.85,7.477,0,10.327l3.289,3.428"/>
		<path class="st18" d="M279.572,132.266c4.623-4.623,4.623-12.114,0-16.737c-4.623-4.623-12.114-4.623-16.737,0l3.203,3.203
			c2.85-2.85,7.477-2.85,10.327,0c2.85,2.85,2.85,7.477,0,10.327l3.289,3.428"/>
		<path class="st19" d="M279.657,132.487c4.623,4.623,4.623,12.114,0,16.737c-4.623,4.623-12.114,4.623-16.737,0l3.204-3.203
			c2.85,2.85,7.476,2.85,10.327,0c2.85-2.851,2.85-7.477,0-10.327l3.203-3.203L279.657,132.487z"/>
		<path class="st7" d="M311.226,132.441v2.554h-19.094v-1.267c0-1.509-0.717-1.676-2.148-1.676h-6.289v-2.765h18.257v1.473
			c0,1.513,0.717,1.681,2.147,1.681H311.226z M297.461,132.533c0-0.232-0.189-0.417-0.421-0.417s-0.417,0.185-0.417,0.417
			c0,0.232,0.185,0.421,0.417,0.421S297.461,132.765,297.461,132.533z"/>
		<path class="st15" d="M311.226,129.287v3.154h-7.127c-1.43,0-2.147-0.168-2.147-1.681v-1.473H311.226z"/>
		<path class="st15" d="M292.132,134.938v0.057h-8.437v-2.943h6.289c1.431,0,2.148,0.167,2.148,1.676V134.938z"/>
		<path class="st18" d="M283.695,132.052v2.943h8.437h19.094v-2.554v-3.154h-9.274h-18.257V132.052z"/>
		<path class="st18" d="M311.394,132.441h-7.295c-1.43,0-2.147-0.168-2.147-1.681v-1.205"/>
		<path class="st18" d="M292.132,134.938v-0.033"/>
		<path class="st18" d="M282.689,132.052h7.295c1.431,0,2.148,0.167,2.148,1.676v1.177"/>
		<path class="st18" d="M297.461,132.533c0,0.232-0.189,0.421-0.421,0.421s-0.417-0.189-0.417-0.421
			c0-0.232,0.185-0.417,0.417-0.417S297.461,132.301,297.461,132.533z"/>
		<path class="st15" d="M379.715,132.116v2.879H361.08v-1.202c0-1.509,1.01-1.677,3.022-1.677H379.715z"/>
		<path class="st7" d="M379.715,129.287v2.829h-15.613c-2.012,0-3.022,0.168-3.022,1.677v1.202h-35.386v-2.701h19.805
			c2.611,0,3.917-0.167,3.917-1.68v-1.327H379.715z M358.815,132.533c0-0.232-0.189-0.417-0.421-0.417
			c-0.232,0-0.417,0.185-0.417,0.417c0,0.232,0.185,0.421,0.417,0.421C358.626,132.954,358.815,132.765,358.815,132.533z"/>
		<path class="st15" d="M349.416,129.441v1.173c0,1.513-1.306,1.68-3.917,1.68h-19.805v-3.007h23.722V129.441z"/>
		<path class="st15" d="M325.694,134.977v0.018h-7.719v-5.708h7.719V134.977z M323.144,132.533c0-0.232-0.189-0.417-0.421-0.417
			s-0.417,0.185-0.417,0.417c0,0.232,0.185,0.421,0.417,0.421S323.144,132.765,323.144,132.533z"/>
		<path class="st18" d="M325.694,129.287h-7.719v5.708h7.719h35.386h18.635v-2.879v-2.829h-30.299H325.694z"/>
		<path class="st18" d="M361.08,135.001v-0.006"/>
		<path class="st18" d="M361.08,134.994v-0.024"/>
		<path class="st18" d="M379.379,132.116h-15.277c-2.012,0-3.022,0.168-3.022,1.677v1.177"/>
		<path class="st18" d="M358.815,132.533c0,0.232-0.189,0.421-0.421,0.421c-0.232,0-0.417-0.189-0.417-0.421
			c0-0.232,0.185-0.417,0.417-0.417C358.626,132.116,358.815,132.301,358.815,132.533z"/>
		<path class="st18" d="M323.144,132.533c0,0.232-0.189,0.421-0.421,0.421s-0.417-0.189-0.417-0.421
			c0-0.232,0.185-0.417,0.417-0.417S323.144,132.301,323.144,132.533z"/>
		<path class="st18" d="M325.694,132.294h19.805c2.611,0,3.917-0.167,3.917-1.68v-1.205"/>
		<path class="st18" d="M325.694,129.269v0.018v3.007v2.683"/>
		<path class="st20" d="M320.247,129.455c0-0.973-0.788-1.762-1.762-1.762c-0.973,0-1.762,0.789-1.762,1.762v5.372
			c0,0.973,0.789,1.762,1.762,1.762c0.974,0,1.762-0.789,1.762-1.762V129.455z"/>
		<path class="st20" d="M316.68,129.455c0-0.973-0.789-1.762-1.762-1.762s-1.762,0.789-1.762,1.762v5.372
			c0,0.973,0.789,1.762,1.762,1.762s1.762-0.789,1.762-1.762V129.455z"/>
		<path class="st20" d="M313.113,129.455c0-0.973-0.789-1.762-1.762-1.762c-0.973,0-1.762,0.789-1.762,1.762v5.372
			c0,0.973,0.789,1.762,1.762,1.762c0.973,0,1.762-0.789,1.762-1.762V129.455z"/>
		<path class="st16" d="M283.267,126.879c3.107,0,5.626,2.519,5.626,5.622c0,3.104-2.519,5.626-5.626,5.626
			s-5.621-2.519-5.621-5.626C277.646,129.394,280.164,126.879,283.267,126.879z M285.115,132.501c0-1.02-0.828-1.844-1.848-1.844
			s-1.844,0.824-1.844,1.844c0,1.02,0.824,1.848,1.844,1.848S285.115,133.521,285.115,132.501z"/>
		<path class="st2" d="M283.267,130.657c1.02,0,1.848,0.824,1.848,1.844c0,1.02-0.828,1.848-1.848,1.848s-1.844-0.828-1.844-1.848
			C281.423,131.481,282.247,130.657,283.267,130.657z"/>
		<path class="st18" d="M285.115,132.501c0,1.02-0.828,1.848-1.848,1.848s-1.844-0.828-1.844-1.848c0-1.02,0.824-1.844,1.844-1.844
			S285.115,131.481,285.115,132.501z"/>
		<path class="st18" d="M288.893,132.501c0,3.107-2.519,5.626-5.626,5.626s-5.621-2.519-5.621-5.626
			c0-3.107,2.518-5.622,5.621-5.622C286.371,126.879,288.893,129.398,288.893,132.501z"/>
		<path class="st17" d="M285.861,72.517c4.623-4.623,4.623-12.114,0-16.737c-4.623-4.623-12.114-4.623-16.737,0l3.203,3.203
			c2.85-2.85,7.477-2.85,10.327,0c2.85,2.85,2.85,7.477,0,10.327l3.289,3.428"/>
		<path class="st18" d="M285.861,72.517c4.623-4.623,4.623-12.114,0-16.737c-4.623-4.623-12.114-4.623-16.737,0l3.203,3.203
			c2.85-2.85,7.477-2.85,10.327,0c2.85,2.85,2.85,7.477,0,10.327l3.289,3.428"/>
		<path class="st19" d="M285.943,72.738c4.623,4.623,4.623,12.114,0,16.737c-4.623,4.623-12.114,4.623-16.737,0l3.203-3.203
			c2.85,2.85,7.477,2.85,10.327,0s2.85-7.477,0-10.327l3.203-3.203L285.943,72.738z"/>
		<path class="st21" d="M359.436,72.981l-22.266-13.93l-1.283,2.05l22.267,13.93L359.436,72.981z"/>
		<path class="st21" d="M338.181,83.648l-0.416-23.097l-2.396,0.043l0.415,23.097L338.181,83.648z"/>
		<path class="st21" d="M339.207,83.238l-22.266-13.93l-1.283,2.05l22.266,13.93L339.207,83.238z"/>
		<path class="st15" d="M386,72.367v2.879h-18.631v-1.202c0-1.509,1.006-1.677,3.021-1.677H386z"/>
		<path class="st7" d="M386,69.538v2.829h-15.61c-2.015,0-3.021,0.168-3.021,1.677v1.202h-8.896v-5.707H386z M365.1,72.784
			c0-0.232-0.185-0.417-0.417-0.417c-0.232,0-0.421,0.186-0.421,0.417c0,0.232,0.189,0.421,0.421,0.421
			C364.915,73.205,365.1,73.016,365.1,72.784z"/>
		<path class="st18" d="M386,72.367v-2.829h-27.527v5.707h8.896H386V72.367z"/>
		<path class="st18" d="M367.369,75.252v-0.007"/>
		<path class="st18" d="M367.369,75.245v-0.024"/>
		<path class="st18" d="M385.665,72.367H370.39c-2.015,0-3.021,0.168-3.021,1.677v1.177"/>
		<path class="st18" d="M365.1,72.784c0,0.232-0.185,0.421-0.417,0.421c-0.232,0-0.421-0.189-0.421-0.421
			c0-0.232,0.189-0.417,0.421-0.417C364.915,72.367,365.1,72.552,365.1,72.784z"/>
		<path class="st7" d="M317.511,72.691v2.554h-15.527v-1.266c0-1.509-0.714-1.677-2.148-1.677h-9.852v-2.764h14.686v1.473
			c0,1.512,0.717,1.68,2.151,1.68H317.511z"/>
		<path class="st15" d="M317.511,69.538v3.153h-10.69c-1.434,0-2.151-0.168-2.151-1.68v-1.473H317.511z"/>
		<path class="st15" d="M301.984,75.188v0.057h-12v-2.943h9.852c1.434,0,2.148,0.168,2.148,1.677V75.188z"/>
		<path class="st18" d="M289.984,72.303v2.943h12h15.528v-2.554v-3.153H304.67h-14.686V72.303z"/>
		<path class="st18" d="M317.679,72.691h-10.858c-1.434,0-2.151-0.168-2.151-1.68v-1.206"/>
		<path class="st18" d="M301.984,75.188v-0.032"/>
		<path class="st18" d="M288.975,72.303h10.861c1.434,0,2.148,0.168,2.148,1.677v1.177"/>
		<path class="st16" d="M355.744,66.449c3.107,0,5.622,2.518,5.622,5.622s-2.515,5.625-5.622,5.625
			c-3.107,0-5.626-2.518-5.626-5.625C350.118,68.964,352.637,66.449,355.744,66.449z M357.592,72.071
			c0-1.02-0.828-1.844-1.848-1.844c-1.02,0-1.848,0.824-1.848,1.844s0.828,1.848,1.848,1.848
			C356.764,73.919,357.592,73.091,357.592,72.071z"/>
		<path class="st2" d="M355.744,70.227c1.02,0,1.848,0.824,1.848,1.844s-0.828,1.848-1.848,1.848c-1.02,0-1.848-0.828-1.848-1.848
			S354.724,70.227,355.744,70.227z"/>
		<path class="st18" d="M357.592,72.071c0,1.02-0.828,1.848-1.848,1.848c-1.02,0-1.848-0.828-1.848-1.848s0.828-1.844,1.848-1.844
			C356.764,70.227,357.592,71.051,357.592,72.071z"/>
		<path class="st18" d="M361.366,72.071c0,3.107-2.515,5.625-5.622,5.625c-3.107,0-5.626-2.518-5.626-5.625
			c0-3.107,2.519-5.622,5.626-5.622C358.851,66.449,361.366,68.967,361.366,72.071z"/>
		<path class="st16" d="M318.646,66.449c3.107,0,5.622,2.518,5.622,5.622s-2.515,5.625-5.622,5.625s-5.625-2.518-5.625-5.625
			C313.021,68.964,315.539,66.449,318.646,66.449z M320.494,72.071c0-1.02-0.828-1.844-1.848-1.844s-1.848,0.824-1.848,1.844
			s0.828,1.848,1.848,1.848S320.494,73.091,320.494,72.071z"/>
		<path class="st2" d="M318.646,70.227c1.02,0,1.848,0.824,1.848,1.844s-0.828,1.848-1.848,1.848s-1.848-0.828-1.848-1.848
			S317.626,70.227,318.646,70.227z"/>
		<path class="st18" d="M320.494,72.071c0,1.02-0.828,1.848-1.848,1.848s-1.848-0.828-1.848-1.848s0.828-1.844,1.848-1.844
			S320.494,71.051,320.494,72.071z"/>
		<path class="st18" d="M324.268,72.071c0,3.107-2.515,5.625-5.622,5.625s-5.625-2.518-5.625-5.625c0-3.107,2.518-5.622,5.625-5.622
			S324.268,68.967,324.268,72.071z"/>
		<path class="st22" d="M336.838,86.967c1.923,0,3.482-1.559,3.482-3.481c0-1.923-1.559-3.482-3.482-3.482
			c-1.923,0-3.481,1.559-3.481,3.482C333.357,85.408,334.915,86.967,336.838,86.967z"/>
		<path class="st22" d="M336.838,64.138c1.923,0,3.482-1.559,3.482-3.482c0-1.923-1.559-3.482-3.482-3.482
			c-1.923,0-3.481,1.559-3.481,3.482C333.357,62.579,334.915,64.138,336.838,64.138z"/>
		<path class="st20" d="M293.005,69.706c0-0.973-0.788-1.762-1.762-1.762c-0.973,0-1.762,0.789-1.762,1.762v5.372
			c0,0.973,0.789,1.762,1.762,1.762c0.974,0,1.762-0.789,1.762-1.762V69.706z"/>
		<path class="st20" d="M289.438,69.706c0-0.973-0.789-1.762-1.762-1.762s-1.762,0.789-1.762,1.762v5.372
			c0,0.973,0.789,1.762,1.762,1.762s1.762-0.789,1.762-1.762V69.706z"/>
	</g>
</g>
</svg>
