<svg xmlns="http://www.w3.org/2000/svg" viewBox="0 0 20 20"><path d="m10.802 6.15-.364-.767h-.002a.479.479 0 0 0-.873 0l-.364.768a.49.49 0 0 1-.367.277l-.814.123c-.4.06-.56.572-.27.865l.59.598a.52.52 0 0 1 .14.449l-.14.844c-.069.413.35.73.707.534l.728-.399a.47.47 0 0 1 .454 0l.729.399c.357.195.774-.12.706-.534l-.14-.844a.52.52 0 0 1 .14-.449l.59-.598c.29-.293.13-.805-.27-.865l-.814-.123a.49.49 0 0 1-.366-.277"/><path fill-rule="evenodd" d="M17 6.444V3a2 2 0 0 0-2-2H5a2 2 0 0 0-2 2v3.444L1.386 7.7A1 1 0 0 0 1 8.489v8.51a2 2 0 0 0 2 2h14a2 2 0 0 0 2-2V8.49a1 1 0 0 0-.386-.79zM15 3H5v7.528l5 3.928 5-3.928z" clip-rule="evenodd"/></svg>