<?xml version="1.0" encoding="utf-8"?>
<!-- Generator: Adobe Illustrator 26.5.0, SVG Export Plug-In . SVG Version: 6.00 Build 0)  -->
<svg version="1.1" id="Layer_1" xmlns="http://www.w3.org/2000/svg" xmlns:xlink="http://www.w3.org/1999/xlink" x="0px" y="0px"
	 viewBox="0 0 20 20" style="enable-background:new 0 0 20 20;" xml:space="preserve">
<path d="M0,14.5l0-7.9c0-0.5,0.6-0.8,1-0.5l7.5,6.3c0.9,0.7,2.2,0.7,3.1,0L19,6.2c0.4-0.3,1,0,1,0.5v7.9c0,1.4-1.1,2.5-2.5,2.5h-15
	C1.1,17,0,15.9,0,14.5z"/>
<path d="M9.3,9.7l-8-6.6C0.8,2.8,1,2,1.6,2h16.8c0.6,0,0.8,0.8,0.4,1.2l-8,6.6C10.3,10.1,9.7,10.1,9.3,9.7z"/>
</svg>
