<svg xmlns="http://www.w3.org/2000/svg" width="335" height="540" fill="none" viewBox="0 0 335 540"><g clip-path="url(#a)"><path fill="url(#b)" d="M149.4 73.3h-3.2v.1c-.1.2-.1.4-.2.5-.3.6-.8 1.1-1.6 1.7-3.7 2.8-6.4 5-8.2 6.5-3.1 2.5-5.6 4.9-7.5 7.1-1.7 1.9-2.8 3-3.1 3.3l-2.5 2.1c-.2.1-.8.9-2 2.3-.6.7-1.6 1.8-2.9 3.3l-4.2 4.5c1.4.2 2.8.6 4.3 1.2.8.3 1.6.8 2.4 1.2 2.1 1.3 3.7 2.8 4.9 4.6 1.8 2.7 2.5 6.3 2.1 10.6-.2 1.5-.5 3.4-.9 5.5-.3 1.3-.6 2.3-.8 3.3 0 .1.1.1.2.2.7.6 1.5 1.4 2.3 2.4.8 1.3 1.5 2.3 2 2.8.6.8 1.7 1.9 3.1 3.4 2.5 2.6 5.8 6.5 9.8 11.7l4.4 5.6c.1.1.1.2.2.2l.9-1.2c14.6-18.3 26.1-32 34.5-41.3l4.2-4.5c-.7-.9-1.5-1.8-2.2-2.7-.5-.5-1.2-1.1-1.8-1.8-.2-.3-.5-.6-.8-.9l-.1.1c-.1 0-.2-.1-.3-.1-.1-.1-.2-.1-.3-.2v-.1c.1 0 .2 0 .4-.1-.4-.5-.8-1-1.1-1.6l-2.8-3c-1.3-1.4-2.3-2.5-2.9-3.3-1.1-1.4-1.8-2.1-2-2.3l-2.5-2.1c-.3-.3-1.3-1.4-3.1-3.3-1.9-2.2-4.4-4.6-7.5-7.1-1.5-1.3-3.8-3-6.7-5.3-1.6-.8-2.8-1.6-3.7-2.4-.4-.2-.7-.5-.8-.9m1.4 42.7q-.15.45-.9.9c-1 .7-2 .9-3 .7-.6-.1-1-.4-1.4-.8s-.6-.8-.7-1.3c0-.5.1-1.1.4-1.8.5-1.1 1.2-1.7 1.9-2 .9-.3 1.6-.1 2.3.5.1.1.4.5.9 1.1.6 1.1.8 2 .5 2.7m.3-25.4c.2.6.1 1.2-.2 1.8-.2.4-.6.7-1.2 1-1.2.6-2.3.6-3.2-.1-.6-.4-1-1-1.1-1.8s.1-1.5.5-2.2c.4-.4.7-.7 1.1-.9.3-.1.7-.2 1.3-.2.3 0 .6.1.9.2s.6.3 1 .7q.75.6.9 1.5"/><path fill="url(#c)" d="M106.1 133.8q2.1-5.7 6.3-8.4c1.9-1.2 4-1.8 6.3-2 2.1-.1 4 .3 5.8 1.1.1-.8.2-1.5.3-2 .4-2.8.1-5.2-.7-7.2-1-2.6-2.9-4.6-5.6-6q-3.9-2.1-8.4-1.5c-.2.1-.4.2-.6.2-.1 0-.2 0-.3-.1q-3.6.75-6.9 3c-2.3 1.7-4.2 3.7-5.9 6.2-2.6 4-4.4 9.3-5.5 16.1-1.4 8.5-1.7 18.5-.8 30.1q6.6-.75 14.1-1.5c-.7-4.5-.8-10.2-.1-17.4.4-4.4 1-7.9 2-10.6"/><path fill="url(#d)" d="M41.7 132.8c.1.1.2.2.3.4l2.6 3.2c2.3 2.9 4.2 5.3 5.9 7.2 1.1 1.2 2.7 2.8 5 5 5.8 5.7 11.5 11 17 15.9l.9-2.9c1-3 1.9-5.5 2.8-7.6.4-.8 1.1-2.3 2.2-4.4.9-1.9 1.7-3.4 2.1-4.5.6-1.3.9-2.3 1.2-2.7l1.5-2.1c1.5-1.9 2.8-3.9 3.8-5.8.3-.6.7-1 1-1.2 0-.1 0-.2.1-.3.3-2.6.8-5 1.4-7.1 1.4-5 3.8-9.5 7.2-13.3 1.9-2.2 3.9-3.9 6.2-5.3.2-.2.4-.4.7-.5l1.5-.7c.8-.3 1.2-.5 1.3-.5.3-.1.6-.2 1.1-.2v-.1c0-.1.1-.2.1-.2 0-.1-.1-.2-.1-.2 0-.1 0-.2-.1-.2 0-.1-.1-.1-.1-.2l-.2-.2c-.2-.1-.3-.2-.5-.2-.1 0-.2-.1-.3-.1l-.1-.1c-.1 0-.2 0-.4-.1-.1 0-.1 0-.2-.1 0-.1.1-.2.1-.3-1.4-1.3-3-2.9-4.9-4.9l-3.6-3.9c-2.7-2.8-4.6-5-5.8-6.6l-1.9-2.8c-.3-.5-.6-.9-.7-1.3-2.8 1.2-5.3 2.3-7.7 3.6-11.3 6-20.9 14.4-28.8 25.3-4.5 6.2-8.2 12.8-11 19.8.1 0 .2.1.4.2m24.1-29.4c.1-.9.7-1.6 1.7-2l.5-.2.4-.4c.4-.3.7-.3 1-.1.4.2.6.6.7 1.1l.1 1.2c.1.9.2 1.4.1 1.5-.2.6-.7 1-1.5 1.3-.6.3-1.3.3-2-.1q-.6-.3-.9-.9c-.1-.5-.2-.9-.1-1.4m-2.4 21.1q.15-.6.6-.9c.4-.4 1.1-.5 1.9-.4.5 0 .9.1 1.1.2s.4.4.7.8c.4.6.6 1.1.6 1.4 0 .4-.1.7-.2.9-.2.7-.7 1.3-1.3 1.7-.6.3-1.2.4-1.9.2s-1.2-.6-1.5-1.1c-.4-.8-.5-1.7 0-2.8"/><path fill="url(#e)" d="M85.7 141.8c-.9 1.1-1.6 2-1.8 2.7-.3 1-.6 1.7-.7 2.2-.2.6-.6 1.4-1.1 2.3-2.5 4.5-4.4 9.2-6 14-.3 1.1-.6 1.9-.9 2.6h1.4c.2-.1.4-.1.5-.2.4 0 .8-.1 1.2-.1.2-.1.3-.1.5-.2.1-.1.2-.2.3-.2l.1-.1 2.1-.3c2-.3 4.1-.6 6.2-.9-.1-.7-.2-1.4-.2-2.3-.3-3.4-.4-6.8-.4-10.1-.1.1-.1.2-.2.3v-.6c0-.1 0-.2.1-.2 0-.1 0-.2.1-.2 0 0 .1-.1.1-.2v-.3c0-.1.1-.2.1-.2v-2.9s0-.1-.1-.1c.1-2.4.2-4.8.4-7.2-.6.7-1.2 1.5-1.7 2.2"/><path fill="url(#f)" d="M0 331.1v30.8c6.9.3 13.6 1.4 20 3.4-5.1-8.7-11.7-20-20-34.2"/><path fill="url(#g)" d="M5.2 204.8c-.2 0-.3-.1-.5-.1s-.4-.1-.6-.1c-.1 0-.2-.1-.3-.1l-.1.1c-.5.3-.9.3-1.4-.1-.3-.3-.6-.7-.7-1.3-.5-1.6-.4-3.5.3-5.8.4-1.1 1.3-2.8 2.7-5.2l3.3-5.5q.9-1.35.9-2.1c.1-.8-.2-1.5-.7-2.3-.6-.7-1.2-1.2-2.1-1.4-.2-.1-.4-.1-.7-.2l-.3.6v-.1c-.2 0-.3 0-.5-.1v-.1h-.1l-.1.1c-.3.2-.7.3-1.3.4-.8.2-1.8.7-2.9 1.6V241h20.7v.1c.2 0 .4.1.6.1.1.1.2.1.3.2h8.6v.1h.7c.4-2.5 1.1-5.2 2.1-7.8q1.5-4.05 3.6-6.9c.9-1.3 2-2.4 3.2-3.3 0 0 .1 0 .2.1q.9-.6 2.1-1.2c.5-.3 1.3-.7 2.3-1.2-.1 0-.2 0-.2-.1l-.2-.2c-.1 0-.1-.1-.2-.1s-.1-.1-.2-.1c-.2 0-.3-.1-.4-.1 0-.1-.1-.2-.1-.2l-.2-.2c-.1-.1-.2-.1-.3-.2-.2-.1-.3-.1-.5-.2-.2 0-.4-.1-.6-.1-.2-.1-.4-.1-.5-.2-.1 0-.1 0-.2-.1-1-.7-2-1.5-3-2.5-2.7-2.6-4.6-5.8-5.8-9.4-.3-.9-.5-1.8-.7-2.7-.2 0-.4 0-.6.1h-12c-.3 0-.6 0-.8-.1-.1 0-.2.1-.4.1-1.9 0-3.8 0-5.7.1H5.2z"/><path fill="url(#h)" d="M55 169.5q7.35-1.8 15.3-3.3l-.1-.1-15.9-14.6c-4.6-4.5-8.9-9.3-12.8-14.4l-1.2-1.7c-.4 1-.7 2.1-1.1 3.1q-1.5 4.5-2.4 9.3c-.1.6-.2 1.1-.3 1.7.2.2.4.6.7 1.1.5.9 1.4 2.1 2.6 3.5 1.3 1.6 2.3 2.8 2.7 3.5l1.1 1.7c.5.6 1.2 1.3 2 2.1 3.3 3.2 6 5.5 8.1 7 .6.6 1.1.9 1.3 1.1"/><path fill="url(#i)" d="M123.7 160c5.9-.4 10.7-.6 14.4-.5.2 0 .4 0 .6.1 1.9-.1 4.4-.1 7.4-.1-.1-.2-.3-.3-.4-.5-.9-1.3-1.9-2.4-2.8-3.2-1-.9-1.6-1.5-1.7-1.8-.4-.6-1-1.4-1.7-2.6-.2-.3-.8-1-1.7-2q-1.35-1.5-3.9-4.8c-.8-.9-2.1-2.3-3.8-4.1-1.1-1.2-2.7-3.3-4.7-6.3-1.8 8.3-2.3 16.5-1.7 24.7-.1.4 0 .8 0 1.1"/><path fill="url(#j)" d="M42 162c-.6-.7-1.4-1.9-2.4-3.4-.6-.7-1.5-1.9-2.7-3.4-.4-.5-.7-.9-1-1.4-.3 2.8-.2 5.3.1 7.5.6 4.1 2.1 7.4 4.3 9.9.5.6 1.1 1.2 1.8 1.7l.2.2c.1 0 .2-.1.2-.1.6-.2 1.2-.3 1.8-.5 2.3-.7 4.7-1.4 7.1-2-1.1-.7-2.3-1.7-3.5-2.8-.9-.9-2.3-2.2-4.1-3.9-.7-.7-1.3-1.2-1.8-1.8"/><path fill="url(#k)" d="M53.4 90.2c-2.3 4.3-2.8 9.4-1.7 15.2.2.9.3 1.7.5 2.4.1-.1.2-.2.3-.4C62 95.7 73.7 86.9 87.6 81.1c2.6-1.1 5.9-2.3 9.8-3.6 5.4-1.8 10.6-3.2 15.8-4.3.2-1.5.2-3.1.1-4.8l-.1-.8-.2-.8c0-.4-.1-.8-.2-1.1-.2-.6-.3-1-.5-1.5l-.9-2.2c-.1-.2-.2-.5-.2-.7-.3-.1-.6-.1-1-.2-6.3-2-13.4-3-21.3-3.1-6.1-.1-13.4.3-21.7 1.4-3.7.4-6.5 1-8.6 1.7-1 .3-1.7.5-2.2.5l.4.8c-.1.2-.3.4-.4.7q-2.85 4.5-3.6 9.9c-.5 3.6-.3 7 .8 10.4.4 1.1.6 1.9.7 2.5.2.9.2 1.8.1 2.5-.2.2-.6.9-1 1.8"/><path fill="url(#l)" d="M36.6 276.5c.8-1 1.6-2 2.6-2.8h.2c0-.1.1-.1.1-.2.2-.3.9-.9 2-1.8l2.2-1.7c.3-.2.6-.5.9-.7l-.2-.2c-2.3-1-4.5-2.5-6.5-4.5-2.3-2.2-4-4.8-5.2-7.8-.6.5-1.6 1.5-3.3 2.8-1.4 1.3-2.5 2.3-3.3 3.2-2.6 3-4.6 7.4-5.9 13.3-.7 3.2-1.5 7.9-2.3 14.1q-1.05 9.6-2.1 14.1-3.6 16.95-13.5 24.3c-.1 0-.1.1-.2.1 5.7 9.8 11 18.8 15.8 27 .2-.2.4-.4.7-.5.4-.3.9-.6 1.7-1.1 1-.6 2.1-1.4 3.1-2.5.6-.6 1.5-1.6 2.6-3.1 1.2-1.5 2.1-2.8 2.6-3.8l1.3-3c.3-.6.6-1.1.9-1.4.4-2.9 1.1-5.9 2.3-9q1.5-4.05 3.6-6.9c.9-1.3 2-2.4 3.2-3.3l.1.1c.6-.4 1.3-.9 2.2-1.3.5-.3 1.3-.7 2.3-1.1 0 0-.1-.1-.2-.1l-.2-.2c-.1 0-.1-.1-.2-.1s-.1-.1-.2-.1c-.2 0-.3-.1-.4-.1 0-.1-.1-.2-.1-.2l-.2-.2c-.1-.1-.2-.1-.3-.2-.2-.1-.3-.1-.5-.2-.2 0-.4-.1-.6-.1-.2-.1-.4-.1-.5-.2h-.2c-1-.7-2-1.6-2.9-2.5-2.7-2.6-4.6-5.8-5.8-9.4-2.2-6.7-1.9-14 1.1-21.8q1.2-4.05 3.3-6.9"/><path fill="url(#m)" d="M6.9 319.5c.6-.7 1.1-1.4 1.5-2.3-.1-1.3-.2-3.1-.2-5.3-.1-3.4-.7-6-1.7-7.8-.7-1.3-1.7-2.3-3-3.3-1-.8-2.2-1.3-3.4-1.7v26c.2.4.5.8.7 1.3 2.2-1.9 4.3-4.2 6.1-6.9"/><path fill="url(#n)" d="M46.2 42.1c-.2-.1-.3-.2-.5-.2l-.1-.1-3.3-1.8c-1.5-.9-3.7-2.3-6.6-4.1l-19-12.4c-.5-.3-.9-.6-1.4-.8v1.1c0 .1.1.2.1.2v5.6c0 .1.1.2.1.2v18.1H28v.1h13.4c1.2 0 2.4.1 3.6.1h.2c0-.8 0-1.7.1-2.6.2-1.2.5-2.3.9-3.4"/><path fill="url(#o)" d="M307.2 1.2c-2.2 2.3-3.4 5.8-3.7 10.4V16c2.1.1 4.2.2 6.2.4v-.6c.2-2.7.6-4.8 1.2-6.2.7-1.9 1.9-3.4 3.6-4.6s3.5-1.9 5.5-2.1c1.5-.1 3.1.1 4.8.5 1 .2 1.7.5 2.3.8.4.2.9.6 1.5 1.1 2.2 1.8 3.5 3.4 4.1 4.9.3.7.5 1.9.7 3.8.2 2.5.2 4.4.1 6 .5.1 1.1.3 1.6.4V0h-26.4q-1.2.9-1.5 1.2"/><path fill="url(#p)" d="M137.5 455.6c-1.1-3.4-2.1-7-2.8-10.6q-.45-1.8-.9-2.4c-.5-.5-1.2-.8-2.2-1.1-9.6-2.8-16.8-4.5-21.7-5.3-1.9-.3-2.9-.5-3.2-.5-1.2-.3-2.2-.6-3-1.1-.9-.4-2.2-1.3-3.7-2.7-4.6-3.9-7.9-7-10-9.2-2.5-2.6-4.2-4.2-5-4.8-2.2-1.5-5.8-2.7-10.7-3.7l-10.7-2.1c-1.8-.4-3.2-.4-4.2-.1-.7.2-1.7.8-2.9 1.8l-8.4 7q-1.35 1.2-2.4 1.2c-.6 0-1.3-.4-2.2-1.1-2.1-1.7-4-3.7-5.8-5.9-1.3-1.6-2.3-2.6-3.1-3-.7-.4-1.8-.6-3.3-.8-6.8-.6-13.5-1.5-20.1-2.8-.2 0-.4-.1-.6-.2q0 .6-.3.9c-.2.3-.5.5-.8.6-.1 0-.2.1-.4.1l-5.3 10.7c-.7 1.6-1.6 2.5-2.5 2.8-.3.1-.7.1-1.2.1v6.3c.3.1.5.2.7.3.9.5 1.6 1.1 2.3 1.8q1.35 1.2 1.8 2.4c.6 1.3.5 2.6-.1 4s-1.5 2.4-2.7 3.1c-.6.4-1.3.6-2 .8v5.1c9.9-.2 19.8-.2 29.7.2 29.6-1 59 .5 88.2 4.7-.2-1-.4-1.9-.4-2.7.1-1.2.4-2.2.9-2.9.1-.1.4-.5.9-1.1l1-.9q1.05-.75 2.7-.6c.6 0 1.5.2 2.7.5.7.2 1.4.5 1.8.8.7.4 1.4 1.1 1.8 2.1.3.6.6 1.5 1 2.7l.4 1.4c.2 1 .3 1.6.3 1.7 0 0 0 .5-.1 1.3 2.3.2 4.5.7 6.5 1.2M46 438.5c-.6.8-1.4 1.5-2.7 2.1s-2.8.7-4.2.6c-1.5-.2-2.8-.6-4-1.4q-1.35-.9-3.9-4.2l-2.7-3.7c-.7-.9-1.2-1.6-1.6-2l-2.1-2.1-2-2.7c-1.1-1.7-1.6-3.1-1.7-4 0-1.1.4-2.2 1.1-3.1.5-.7 1.1-1.2 1.9-1.6.7-.3 1.5-.5 2.6-.5 1.9-.1 3.4.3 4.6 1.2q1.05.6 2.4 2.7c2.1 2.9 4.6 5.7 7.4 8.2 1.2 1.1 2 1.8 2.4 2.2l1.5 2c.7 1 1.2 1.8 1.4 2.4.6 1.2.4 2.6-.4 3.9m47.7 5.9c-1.3.8-2.8 1.2-4.6 1.1-1.4-.1-2.6-.4-3.6-.8-1.2-.6-2.3-1.5-3.2-2.8-.7-.9-1.4-2.1-2.3-3.7l-2.4-4.5c-.4-.8-.8-1.3-1.1-1.5q-.6-.6-2.4-.9l-9.3-2c-2.1-.5-3.5-1.1-4.3-1.8q-1.65-1.5-1.8-4.2c-.1-1 0-1.8.4-2.5.1-.3.3-.5.5-.8s.5-.6.8-.8c.2-.2.5-.3.9-.4.7-.2 1.5-.4 2.4-.4.7 0 2.1.2 4.2.7l1.7.4c4.8.8 8.3 1.4 10.4 1.8 2.1.5 3.5 1 4.3 1.6.9.6 1.8 1.6 2.9 3 1.3 1.8 2.5 3.5 3.6 5.2.7 1.2 1.3 2.1 1.9 2.9.5.7 1.2 1.7 2.3 3q1.35 1.95 1.2 3.6c-.1 1.5-.9 2.8-2.5 3.8"/><path fill="url(#q)" d="m331 19.3-.3-3.3c-.1-1.7-.3-3-.5-4.1-.2-.8-.4-1.4-.7-1.8-.4-.6-1-1.2-1.9-1.9-1.2-.9-2.1-1.6-2.8-1.9-.7-.2-1.5-.4-2.6-.5-1-.1-1.8-.1-2.5-.1q-1.8.15-3.3 1.2T314 9.6c-.5.9-.8 2-1.1 3.3-.1.5-.2 1.6-.4 3.5v.1c1.2.1 2.4.2 3.6.4-.3-.6-.3-1.4-.1-2.4.6-1.9 1.6-3.2 3.1-3.7.7-.2 1.7-.2 2.9 0 1.6.4 2.8 1 3.5 1.8.9 1.1 1.3 2.8 1.3 5.2 0 .2 0 .5-.1.7 1.6.2 3 .5 4.3.8"/><path fill="url(#r)" d="M318.7 536.9c.2-.1.5-.1.9-.2 2.1-.2 4.3-.2 6.4-.1 1.4-.6 2.8-1.3 4.1-2 1.7-.9 3.4-1.9 5-3V515q-7.05 6.6-16.5 10.5c-4 1.7-8.2 2.9-12.5 3.6l.1.1c-2.5.4-5 .6-7.5.7-.3 0-.6.1-.9.1h-2a63.9 63.9 0 0 1-20.8-4.4q-11.4-4.5-19.2-12.6c-.2-.3-.5-.5-.7-.8-1 .8-2.1 1.4-3.2 2 .2 0 .3.1.5.2-.1 0-.2 0-.4.1l-.1.1h.1c1.5 1.1 2.8 2 3.7 2.8.1 0 .2-.1.2-.1 1 .9 1.8 1.8 2.7 2.9q2.1 2.85 3.6 6.9c1 2.7 1.7 5.4 2.1 7.9l3.6 1.8h49.5v.1zm-65.8-22.5.1-.1s.1.1.1.2c0-.1-.1-.1-.2-.1"/><path fill="url(#s)" d="M54.8 31.6c.2.6.4 1.2.4 1.6 5.5-2.8 11.7-4.5 18.6-5.2 6.2-.6 13.5-.5 22 .5a122 122 0 0 1 7.3 1.2c2.5.6 4.7 1.3 6.8 2.3.1-.2.2-.4.2-.7q.6-1.65.3-3.9c-.1-.9-.4-2.2-.8-3.9-.2-.7-.2-1.3-.2-1.7 0-.1.1-.2.1-.4l-.1-.5.1-.8c.2-.3.3-.5.5-.6l.2-.1c.1 0 .1-.1.2-.1.3-.2.9-.2 1.9-.2 8.6.6 17.1-.2 25.6-2.2s16.5-5.2 23.9-9.5c4-2.3 7.1-4.8 9.4-7.4h-117c-3.1 11.9-2.9 22.4.6 31.6"/><path fill="url(#t)" d="M189.3 13.2c-.3 1.8-.4 3.6-.4 5.5.2 5.3 1.7 9.9 4.5 14.1.9 1.4 2.5 3.2 4.6 5.5 2.2 2.5 3.8 4.3 4.6 5.5 1.9 2.6 3.2 5.4 4.2 8.4.1.2.1.4.2.6.2 0 .4 0 .7.1 4.3.6 9.4.7 15.5.2l5.4-.4c.6 0 1 0 1.4.1v-12c-.1.2-.3.3-.5.4-.4.2-1.1.4-2 .5-2.1.1-3.9-.1-5.4-.5q-2.85-.75-4.5-2.7c-1.3-1.4-2-3-2-4.9 0-.3.1-1.1.3-2.5l2.3-11c.4-2.1.8-3.7 1.4-4.9.5-.9 1-1.5 1.7-2 1.4-1.2 3-1.4 4.7-.8.6.3 1.1.6 1.4.9.5.4 1.2 1.3 1.9 2.7l2.6 4.8c1.7 3.2 3.1 5.4 4.2 6.8.1.1.2.3.4.4 8.5-4.5 18.1-7.8 28.9-9.9 8.2-1.6 17.3-2.4 27.2-2.5v-.1c0-1 0-2.5.1-4.6-.6-2.4-1.5-4.6-2.8-6.8-.8-1.3-1.8-2.8-3.1-4.3h-36.3c.9 2.1 1 4.1.4 5.9-.6 1.7-1.8 2.9-3.5 3.9-1.7.9-3.4 1.2-5.3.9-3.3-.4-6.3-2.3-8.9-5.7-1.2-1.5-2.2-3.2-3-5h-11.6c.1.3.2.5.2.6.4 1.7.3 3.5-.4 5.2q-1.05 2.7-3.3 3.9c-1.9 1-3.9 1.2-6.1.7-2-.5-3.8-1.5-5.3-3.1-1.9-1.8-3.2-3.9-4-6.5-.1-.3-.1-.5-.2-.8h-3.7c-1.3 1.6-2.3 3-3.1 4.3-1.8 3-2.9 5.9-3.4 9.1"/><path fill="url(#u)" d="M210.4 64.5c.3.2.8.4 1.6.5 2.3.4 4 .1 5.2-.8q1.5-1.35 1.8-3.9c.1-1 .2-2.4.1-4.2h-.1c-3.7.1-7 0-9.9-.5l-1.5-.3c.3 1.7.4 3.4.4 5.1.2.7.4 1.4.8 2.1.6 1.1 1.1 1.7 1.6 2"/><path fill="url(#v)" d="M188.9 113c-3.1 3.4-8.3 9.3-15.5 17.8l-23.9 28.6c2 .1 4.3.1 6.7.2.2 0 .5-.1.8-.1 4.2-.1 9.9.1 17.1.7 15.8 1.3 29 2.7 39.6 4.3 2.9.4 5.8.9 8.7 1.4q-.3-.45-.6-1.2-5.55-14.55-16.2-30.3c-4.1-6-9.6-13.3-16.4-21.8-.1.1-.2.3-.3.4"/><path fill="url(#w)" d="M223.6 64.6c.3.2.9.4 1.7.5.9.1 1.6.1 2.3-.1.8-.3 1.3-.7 1.6-1.4q.15-.3.3-.9c.1-.3.2-.5.4-.6v-2.3c0-.2.1-.3.2-.4v-4.1c-.2.1-.5.1-.9.2-2.9.3-5.3.5-7.4.7.1 1.4.2 2.6.2 3.3.1 1.6.4 2.9.8 3.9.2.5.5.9.8 1.2"/><path fill="url(#x)" d="M201.1 78.7q3.6 1.2 6.3 2.4c8.2 3.5 15.7 8 22.4 13.5V72.7c-.8.5-1.4.9-1.8 1-1 .4-2.2.5-3.6.5-1.2.1-3 .1-5.3.1-3.2 0-5.5-.2-7-.5-1.9-.4-3.7-1.2-5.3-2.2-.5-.3-.9-.6-1.1-1.1-1.1 2.3-2.5 4.4-4.2 6.1 0 .1 0 .1.1.2.1.2.2.4.2.5 0 .2 0 .5-.1.7z"/><path fill="url(#y)" d="M101.9 79.1c0 .1.1.1.2.2-.1.1-.2.1-.3.2h-.3c-.2 0-.4.1-.5.1-.1.1-.2.2-.4.2-.1 0-.3.1-.4.1 0 0-.1.1-.2.1-.2 0-.4.1-.5.1 0 0-.1 0-.1.1-.1-.1-.1-.2-.2-.3-2.5.8-5.1 1.7-7.6 2.7-.1 0-.2.1-.4.1.2.3.9 1.2 1.9 2.6 1.7 2.4 4.4 5.4 8 9.2l7.4 7.6c.5.5.9.8 1.2 1.1.3.2.5.4.8.5.2.1.3.2.5.2.1-.2.2-.4.4-.6 1.7-1.9 2.8-3.2 3.3-3.7.7-.8 1.8-1.9 3.3-3.4.5-.5 1.2-1.3 2-2.5 1-1.1 2.6-2.6 4.7-4.5.7-.7 2-2 3.7-3.9 1.5-1.7 2.8-3 3.8-3.9l3.7-2.9c1.9-1.4 3.7-2.8 5.5-4.3.3-.3.7-.5 1-.8-4.2.2-7.8.2-10.6.3-.5.1-1 .1-1.5.2 0 .1-.1.2-.1.3s-.1.2-.2.3c-.4-.1-.8-.1-1.2-.2-.2 0-.3 0-.5-.1v-.1h-.7c-.2 0-.3.1-.5.1s-.4.1-.6.2c-.2 0-.3.1-.5.1h-.1c.1-.1.3-.2.4-.4-8.1 1-16.4 2.6-24.4 5"/><path fill="url(#z)" d="M161.6 73.8h-.3c-2.4-.2-5-.3-7.8-.4.5.4 1 .8 1.4 1.2.2 0 .4.1.6.1 1.7 1.3 3.4 2.7 5.2 4l3.7 2.9c1 .9 2.3 2.2 3.8 3.9 1.7 1.9 3 3.2 3.7 3.9 2.2 1.9 3.8 3.4 4.7 4.5.9 1.2 1.5 2 2 2.5 1.5 1.5 2.6 2.6 3.3 3.4.4.4 1.2 1.3 2.3 2.5v.2c.8 1.1 1.8 2.1 2.7 3.1q1.5 1.2 2.1 2.1c.1.1.2.2.3.4.1.1.2.3.3.4l2.1-2.1c.1 0 .1-.1.2-.1.1-.1.2-.1.3-.2l2.9-3.1s0-.1.1-.1l.1-.1c4.8-4.7 9.3-8.8 13.6-12.3l4.3-3.3c-3-1.5-6.2-3-9.7-4.3-.2-.1-.3-.1-.5-.2h-.1c-.1 0-.2-.1-.4-.1-.2-.1-.4-.1-.6-.2s-.4-.2-.7-.2c-.1 0-.2-.1-.4-.1-.1 0-.3-.1-.4-.2l-.1-.1s0-.1.1-.1c-8.8-3.2-17.8-5.4-27.1-6.8l.3.3h-3.7l-.4-.4-.4-.4-2.7-.3h-.2c-.2 0-.4 0-.5-.1v-.1h-3.8c-.2 0-.3.1-.5.1l-.1-.1v-.1z"/><path fill="url(#A)" d="M86.2 30.9c-.1 0-.1-.1-.1-.2-3.1-.1-5.9-.1-8.4.1-8.2.5-15.4 2.2-21.5 5.2q-.3.45-1.2.9c-1.1.6-2.1 1.4-3.1 2.4-1.4 1.4-2.4 3.1-3 5-.6 2-.7 3.9-.2 5.8.2.7.5 1.6 1 2.5l1.7 3c.6.9 1.1 1.6 1.5 1.9.2.2.9.4 2.1.7.5.1.9.3 1.3.5.1 0 .2-.1.4-.1 2.8-.9 7-1.7 12.5-2.4q12.75-1.5 21.6-1.2c7.5.3 14.2 1.4 20 3.4v-.2c.2.1.5.1.7.2 1.5-.9 2.7-2.1 3.7-3.6q1.65-2.4 2.1-5.1c.2-1 .2-2 .2-3 0-1.9-.3-3.5-.8-4.8-1-2.4-3.1-4.5-6.3-6.2-4-2.2-8.2-3.4-12.8-3.6h-.1l-.2-.2c-.1 0-.1-.1-.2-.1s-.1-.1-.2-.1-.2 0-.4-.1c-.2 0-.5-.1-.7-.1-.2-.1-.3-.1-.5-.2-.7 0-1.4-.1-2.2-.1-.2 0-.3-.1-.5-.1V31h-6.4z"/><path fill="url(#B)" d="M15.3 72.1c0 .1 0 .2-.1.2v3.6c.4-.2.9-.4 1.4-.8l19-12.4c2.9-1.9 5.1-3.3 6.6-4.1l.8-.4c.2-.3.5-.6 1-.9l1.5-.8c.5-.2 1.1-.7 2-1.3l.1-.1s-.1-.1-.1-.2c-.5-.9-.9-1.6-1.1-2.3-.3-.7-.5-1.4-.7-2.2-.2 0-.4 0-.6.1-1.2 0-2.4.1-3.6.1-4.5 0-8.9.1-13.4.1H15.5v4.5s-.1.1-.1.2V65c0 .1-.1.2-.1.2z"/><path fill="url(#C)" d="M304.6 19s-.1-.1-.2-.1-.1-.1-.2-.2c-.1 0-.1 0-.2-.1-.2 0-.3-.1-.4-.1-.1-.1-.2-.1-.3-.2h-.4v-.1h-1.5c-.2 0-.3.1-.5.1-.2.1-.3.2-.4.2-.1.1-.2.2-.3.2q-19.5-.45-34.2 2.4-18.9 3.6-33 12c-.3.2-.6.3-.8.4 0 0 0 .1.1.1 0 .2.1.3.1.5v3.1c0 .2.1.3.2.5v21.8c0 .1.1.3.1.4V97c3.5 3.2 6.8 6.6 9.8 10.4l2.4 3v-44c0-.2.1-.3.1-.5V57s0-.1.1-.2v-.3c0-.1.1-.3.1-.5v-.8l.1-.2v-.4c0-.5 0-.8.1-1.1l.1-.2c-.1-.6.4-1.2 1.4-1.7 2.9-1.7 7.1-3.1 12.5-4.3 11.5-2.6 23.3-3.9 35.3-3.9 11.9 0 23.7 1.3 35.3 3.9.7.2 1.5.3 2.2.5v.4c1 .3 1.9.5 2.8.8V23.4l-3.3-.9c-8-1.8-17-3-27.1-3.5"/><path fill="url(#D)" d="M305.7 106.5c-1.7-4.4-4.4-7.6-8.3-9.6-2.2-1.2-4.5-1.8-7.1-2-2.5-.2-4.9.2-7.3.9-2.6.9-4.8 2.2-6.7 3.9-1 .9-1.8 1.8-2.5 2.9-1.9 2.6-2.9 5.7-3.1 9.1s.6 6.5 2.2 9.2q2.7 4.95 8.1 7.2c-.2.1-.3.2-.5.3-1.2.8-2.1 1.9-2.8 3.1-.7 1.3-1 2.7-.9 4.1 0 1.2.4 2.5 1 4q.9 2.1 1.8 3c.4.5 1.2 1 2.2 1.5 1.1.6 2 1 2.6 1.2 1.2.4 2.4.4 3.6.2 2.4-.4 4.6-1.6 6.5-3.6.7-.7 1.2-1.3 1.5-1.9l.6-1.7c.3-1.1.4-1.8.4-2.1.2-2.4-1-4.7-3.4-6.9l-.1-.1h.1c2.8-.7 5.3-2 7.5-3.8 2.3-1.9 4-4.2 4.9-6.8 1.4-3.8 1.3-7.9-.3-12.1"/><path fill="url(#E)" d="M276 67.9c-.6-.6-1-.9-1.4-1.1-.7-.3-1.4-.4-2.3-.3q-1.5.15-2.7.9c-.8.6-1.4 1.3-1.8 2.2-.4 1.1-.4 2.2.1 3.4.3.8.7 1.4 1.3 1.8 1.2 1 2.6 1.2 4.2.8q.75-.15 1.8-.9c.6-.4 1-.8 1.4-1.4.6-.8.7-1.7.6-2.8-.1-.8-.5-1.8-1.2-2.6"/><path fill="url(#F)" d="M273.8 186.4c1.6.3 3 .1 4.2-.7 1.4-.7 2.2-1.9 2.4-3.4.2-.9 0-1.9-.5-3.2-.9-2.2-2.1-3.4-3.7-3.7-.7-.1-1.8.1-3.3.7-.9.4-1.7.8-2.1 1.2-.9.8-1.3 2.1-1.4 3.7-.1.9 0 1.8.3 2.4.6 1.7 2 2.7 4.1 3"/><path fill="url(#G)" d="M330.8 80.9c-.3-.4-.5-.7-.8-.9-.9-.9-1.9-1.7-2.8-2.2-1.3-.5-2.5-.7-3.6-.5l-1.4.4c-.8.2-1.4.5-1.8.7s-1 .7-1.7 1.5l-1 1.2q-.9 1.5-.9 3.6c-.1 1.3.2 2.6.8 3.7.6 1.2 1.5 2.1 2.8 2.7.7.3 1.8.5 3.1.6 1.8.1 3.2-.1 4.2-.5 1.4-.6 2.4-1.7 3.1-3.2z"/><path fill="url(#H)" d="M29.7 467.9c5.3-.2 11-.1 17.1.1 5.2.2 12.6.7 22.2 1.4l18.4 1.5c11.1.9 20.1 1.9 26.8 2.8 9.8 1.3 18.7 2.9 26.5 4.9 3.2.9 5.5 1.6 7.1 2.2.3.1.5.3.8.5l.1-.1c1.9-.6 3.5-1.4 4.8-2.5 1.5-1.3 2.4-2.8 2.7-4.4.2-1.5 0-3-.7-4.6q-.9-2.1-2.7-3.9c-2.2-2-5.3-3.8-9.3-5.3-4.9-1.9-11.7-3.5-20.5-4.8-27.9-4.4-56-6.3-84.1-5.8h-.1c-1.9.2-4.9.3-9.1.2-4.2.1-7.3 0-9.1-.2h-.2c-6.8-.1-13.6-.1-20.4.1v18.7c5.1-.3 9.3-.6 12.7-.7 6.1-.3 11.8-.3 17-.1"/><path fill="url(#I)" d="M281.8 271.5c3.8 1.5 7.7 1.7 11.7.7 2.8-.7 5.3-2 7.5-3.8 2.3-1.9 4-4.1 4.9-6.8 1.4-3.8 1.3-7.9-.3-12.1-1.7-4.4-4.4-7.6-8.3-9.6-2.2-1.1-4.5-1.8-7.1-2-2.5-.2-4.9.2-7.3.9-2.6.9-4.8 2.2-6.7 3.9-1 .9-1.8 1.8-2.5 2.9-1.9 2.6-2.9 5.7-3.1 9.1s.6 6.5 2.2 9.2c2 3.6 5 6.1 9 7.6"/><path fill="url(#J)" d="M328.2 212.6c-1.1-.9-2.2-1.3-3.4-1.3-.8 0-1.8.3-2.8 1s-1.7 1.4-2.1 2.3c-.6 1-.7 2.1-.4 3.3s.9 2.2 1.9 2.8c.9.7 2 1 3.2 1.1q1.8 0 3.3-.9c1.6-1 2.4-2.4 2.4-4.1q.15-2.4-2.1-4.2"/><path fill="url(#K)" d="M142.9 490.7c-1.4 2.2-1.9 4.3-1.5 6.4.2 1.1.8 2.2 1.7 3.3 2.4 0 4.9 0 7.8.2l6.5.4c4-.1 9.3.1 15.9.7.3 0 .6 0 .9.1 15.8 1.3 29 2.7 39.6 4.3 12.2 1.8 23.3 4.1 33.5 7 .2-.1.5-.2.8-.4 4.4-1.4 7.8-4.4 10.3-8.8 2.2-3.9 3.2-8.3 3-13.4-.2-3.9-1-7.6-2.6-11.2-.6-1.5-1.4-2.8-2.2-4.1-.2-.1-.4-.2-.6-.4-.3-.2-.6-.6-1-1.1-1.8-2.5-4-4.4-6.8-6-.9-.5-1.5-.9-1.7-1.2q-.3-.3-.3-.6c-.1 0-.1-.1-.2-.1-12.7-3.3-26.7-6-41.9-7.9q-16.8-2.1-40.8-3.6-.6.15-1.2 0l-6.6-.2c-6.7-.2-12-.3-15.7-.2l.5 2c.1.3.1.5.2.7 1.8.5 3.4 1.1 4.9 1.7 1.8.7 3.4 1.4 4.9 2.3 2.1 1.7 4.1 3.4 6.1 5.2.7 1 1.4 2.1 1.8 3.2.8 1.9 1.1 3.8.8 5.6-.3 2.4-1.4 4.5-3.3 6.4-1.9 1.8-4.1 2.8-6.5 3.2 0 .2-.1.4-.2.6-.2.5-.7 1-1.4 1.5-2.1 1.4-3.7 2.9-4.7 4.4"/><path fill="url(#L)" d="M324.1 539.4c-.2-.1-.5-.1-.7-.1-.1 0-.2.1-.3.1-.3 0-.6 0-.9.1-.6 0-1.2 0-1.8.1-1.1 0-2.1.1-3.1.1h-52.8v.4h60c0-.1-.1-.1-.1-.2-.1-.2-.2-.3-.3-.5"/><path fill="url(#M)" d="M261.6 537.3c0-.1-.1-.2-.1-.2v-.2c0-.1-.1-.2-.1-.2s0-.1-.1-.1c-.3-3.2-1.2-6.2-2.4-9.2-.8-1.9-1.8-3.7-3-5.3-.2-.1-.3-.2-.5-.4-.1-.1-.4-.5-.8-1s-1.3-1.2-2.8-2.3c-.7-.5-1.5-1.1-2.3-1.8-.1 0-.2-.1-.3-.1-.7-.2-1.5-.4-2.3-.6-.3 0-.5-.1-.7-.2-.6-.2-1.1-.3-1.7-.5L207 508c-.5-.1-1-.2-1.5-.2-.4-.1-.9-.1-1.3-.2l-37.8-3.4c-1 0-2.1-.1-3.1-.2h-2.7l-13.9.1.2.2c3.6 3.2 6.1 6.2 7.5 8.9.9 1.8 1.6 3.7 2 5.8.5 3.1.3 6.2-.6 9.4-.9 3.1-2.5 5.8-4.6 8.1-1.6 1.7-3.1 2.9-4.8 3.6h115c0-.1.1-.2.1-.2v-2.6z"/><path fill="url(#N)" d="M0 152.9c1.5.2 3 .5 4.5.8q1.35.3 2.4.6s.1-.1.1-.2c.6-1.1.9-2.4.7-3.7-.2-1.4-.7-2.5-1.6-3.4-.9-1-2.5-1.8-4.6-2.4-.4-.1-.9-.2-1.4-.4v8.7z"/><path fill="url(#O)" d="M325.4 540h3.5c-.8-.2-1.7-.3-2.5-.4-.3.1-.6.3-1 .4"/><path fill="url(#P)" d="M46.8 523c-.1-4.7.4-8.4 1.5-10.9.7-1.9 1.9-3.5 3.4-4.9s3.1-2.5 5-3.2c.4-.1 1.6-.5 3.6-1 1.4-.4 2.6-.8 3.4-1.3 2.2-1.1 3.9-3 5-5.7 1-2.3 1.6-4.8 1.7-7.8 0-.9 0-3.6-.1-7.9-.1-3.1.1-5.6.4-7.6l-6.6-.5q-18.75-1.35-30-1.5c.3 3 .4 5.5.4 7.7 0 2.5-.3 4.6-1 6.1-1.1 2.5-3 4.2-5.6 5.2-.1 0-.2.1-.3.1-.7.5-1.3.8-1.7 1.1-3.1 2.5-4.7 6.6-5 12.3-.1 1.8 0 4.3.3 7.4.3 3.5.5 6 .5 7.4q.15 9-4.2 13.8c-.4.5-1.2 1.2-2.3 2.2-1 .9-1.7 1.7-2.1 2.3-.8 1-1.4 2.3-1.9 3.7h35.4c.2-2.1.3-4.5.3-7.1.2-2.2.1-5.5-.1-9.9"/><path fill="url(#Q)" d="M5.2 519.7v-3.1l.1-.1V515l.1-.1v-.3c0-.5-.1-1.5-.2-3-.1-1.3-.2-2.3-.4-3.1-.5-2.6-1.5-5.1-3.1-7.4-.5-.7-1.1-1.4-1.7-2V540h5.2z"/><path fill="url(#R)" d="M141.2 539.5c.2-.4.6-.7 1.4-1 2-.6 3.8-1.7 5.4-3.1s2.9-3 3.9-4.9c1.9-3.8 2.4-7.9 1.4-12.2-.5-1.9-1.2-3.6-2-5.1-.8-1.3-2-2.6-3.5-4-1.8-1.6-3.1-2.8-4-3.7-3.4-3-5.2-6-5.5-9-.2-2.6.5-5.1 2.3-7.6 1.2-1.7 3.1-3.6 5.8-5.6-8.3-2.4-17.8-4.3-28.2-5.9-7.4-1.1-17.2-2.1-29.5-3.2L72.9 473v.1l.2 11.1c0 3.5-.1 6.2-.3 8-.4 3-1.3 5.4-2.6 7.4q-2.25 3.6-6.3 5.1c-.7.3-1.8.6-3.3 1-1.4.4-2.5.7-3.3 1-2.9 1.2-5.1 3.3-6.5 6.3-.8 1.9-1.3 4.4-1.4 7.6-.1 1.9-.1 4.2.1 7.1.2 3.9.2 6.3.2 7.1 0 1.8-.1 3.5-.2 5.2h91.3c0-.2.1-.3.2-.4s.1-.1.2-.1"/><path fill="url(#S)" d="M314.3 164c-.9.2-1.8.7-2.7 1.4-.6.4-1.3 1.1-2.3 2.1-.4.4-.8.9-1.1 1.4l-.6 1.5c-.7 2.6-.5 5.1.7 7.4 1.2 2.5 3.1 4 5.7 4.6.8.2 2 .3 3.7.3l2.1-.2c1.7-.3 3.2-1.2 4.6-2.8 1.7-1.9 2.6-4.1 2.6-6.6q-.15-3.6-2.7-6l-1.8-1.5c-.9-.6-1.5-1-1.8-1.1-.9-.4-2.3-.6-4.3-.6-1-.1-1.7 0-2.1.1"/><path fill="url(#T)" d="M3.3 28.5c-1.2.7-2.2 1.3-2.9 1.6 0 0 .1.1.1.2l8.4 9.8c.6.6.9 1.1 1.1 1.4.5.9.9 1.6 1.3 2.1l1.4 1.4V29.7c0-.1.1-.2.1-.2v-5.3c0-.1.1-.2.1-.2v-1.1c0-.1 0-.2.1-.2v-.1c-.4.2-.8.4-1.3.8z"/><path fill="url(#U)" d="M0 156v9.1c2.3.2 4 .4 5.2.7.5.2.9.3 1.1.5q.3-.45 1.2-.9c1.2-.8 1.9-2 2-3.4.1-1.5-.4-2.7-1.4-3.6-.8-.7-2.3-1.3-4.4-1.7-1.2-.3-2.4-.5-3.7-.7"/><path fill="url(#V)" d="M11.7 54.5c-.4.9-.7 1.5-.9 1.9-.2.3-.6.9-1.2 1.7L1.4 68.5c-.1.1-.2.2-.2.3q.9.45 2.1 1.2l8.3 5.2c.5.3.9.6 1.3.8v-3.8c0-.1-.1-.2-.1-.2v-6.9c0-.1-.1-.2-.1-.2v-9.6c0-.1-.1-.2-.1-.2v-1.7c-.4.5-.8.9-.9 1.1"/><path fill="url(#W)" d="M3.4 177.8q1.35-3.6 1.5-6.3v-2c0-.4 0-.7.1-1.1-.3 0-.7 0-1.1-.1-1.2-.1-2.5-.2-3.9-.2v11c1-.6 1.9-1.1 2.6-1.3z"/><path fill="url(#X)" d="M139.2 450.7c3.3-.2 7.2-.1 11.6.1l6.5.4c4.2-.1 9.8.1 16.8.7 15.8 1.3 29 2.7 39.6 4.3 12.2 1.8 23.3 4.1 33.5 7 .2-.1.5-.2.8-.4 4.4-1.4 7.8-4.4 10.3-8.8 2.2-3.9 3.2-8.3 3-13.4-.2-3.9-1-7.6-2.6-11.2-.8-1.9-1.8-3.7-3-5.3-.2-.1-.3-.2-.5-.4-.1-.1-.4-.5-.8-1s-1.3-1.2-2.8-2.3c-.7-.5-1.5-1.1-2.3-1.8-.1 0-.2-.1-.3-.1-.7-.2-1.5-.4-2.3-.6-.3 0-.5-.1-.7-.2-.6-.2-1.1-.3-1.7-.5l-37.4-7.1c-.5-.1-1-.2-1.5-.2-.4-.1-.9-.1-1.3-.2l-37.8-3.4c-1 0-2.1-.1-3.1-.2h-2.7l-27.3.1c-.6 0-1-.1-1.4-.2-16.1 1-29.8 2.3-41.1 3.7-.4 0-.7.1-1.1.1l-11.4 2.1 1.6.4c2.3.5 3.9 1 4.9 1.6.9.6 2.1 1.6 3.5 3 4.4 4.5 9 8.7 13.8 12.7 1.3 1.2 2.4 1.9 3.3 2.3q1.2.45 4.5.9c2.6.3 6.1 1.1 10.4 2.4 5 1.5 8.5 2.4 10.4 2.7 2.5.5 4.1 1.1 4.9 1.9.9.8 1.5 2.3 2 4.4z"/><path fill="url(#Y)" d="m40.5 370 2.7-1.8q.9-.75 1.2-.9l-.2-.2c-2.3-1-4.5-2.5-6.5-4.5-2.7-2.6-4.6-5.8-5.8-9.4-.7-2.1-1.1-4.2-1.3-6.3-.4.7-.7 1.4-1.2 2-.5.7-1.2 1.6-2.1 2.8l-1.8 2.1c-1.7 1.9-3.7 3.3-6 4.3-.1 0-.2.1-.3.1 5.1 8.6 9.6 16.3 13.7 23.1 0 0 0-.1.1-.1q1.2-3.45 3-6c1.1-2.2 2.6-3.9 4.5-5.2"/><path fill="url(#Z)" d="M261.5 392.6c-.2-3.9-1-7.6-2.6-11.2-.6-1.3-1.2-2.5-2-3.7.2 0 .4.1.6.1-.4-.5-.7-.9-.9-1.3l-.8-1.4q-.6-.9-1.8-1.8c-1-.7-1.7-1.2-2.2-1.6-.9-.9-1.7-1.5-2.3-1.9q-.6-.45-1.8-.9c-.4-.2-.8-.5-.9-.7-.2 0-.4-.1-.6-.2-12.7-3.3-26.7-6-41.9-7.9q-16.8-2.1-40.8-3.6-.6.15-1.2 0l-6.6-.2c-8.7-.2-14.9-.3-18.6-.1-.4 0-.8.1-1.2.1q-26.7 1.65-45 3.9c-15.3 1.9-29.2 4.6-41.9 7.9-.2.1-.4.2-.7.2-.2.5-.6.9-1.2 1.1-.9.5-1.5.8-1.5.8l-.7.7c-.4.4-.9.7-1.7 1.2s-1.4.9-1.7 1.1l-.9 1c.1 0 .2.1.2.1-.7.9-1.4 1.8-2 2.7l-.3.6c-.8 1.3-1.5 2.6-2.1 4-.5 1-.8 2.1-1.1 3.1 2.5 4.2 4.8 8.1 6.9 11.6l10.5 17.2c.5-.4 1-.8 1.4-1.2 1.9-1.7 3.4-2.8 4.6-3.1 1.3-.4 3.2-.3 5.8.2l5.9 1.2 11.2-2.2c10.6-1.6 23.8-3 39.6-4.3l12.3-.7h1.1c4.2-.6 9.8-.7 16.6-.4l6.5.4c4-.1 9.3.1 15.9.7.3 0 .6 0 .9.1 15.8 1.3 29 2.7 39.6 4.3 12.2 1.8 23.3 4.1 33.5 7 .2-.1.5-.2.8-.4 4.4-1.4 7.8-4.4 10.3-8.8 2-4.2 3-8.6 2.8-13.7"/><path fill="url(#aa)" d="M4.2 412.4c.9-2.1 1.8-3.7 2.7-4.9.2-.3.5-.6.8-.9-.4-3.4-1.5-6.7-3.5-9.9q-1.8-2.85-4.2-5.1v28.6c.1 0 .2.1.3.1z"/><path fill="url(#ab)" d="M11.5 405.7q3 .3 9.6 1.2 6.3 1.05 9.6 1.2c1.4.1 2.3.2 2.6.2 1 .1 1.8.4 2.4.7.8.4 2 1.5 3.4 3.3 1.7 2.2 3.8 4.3 6.2 6.3 1.7-1.2 3.3-2.3 4.8-3.5-7.7-12.4-16.9-27.5-27.3-45.4l-.9-1.5c-.4.1-1.1.1-2.1-.2-6.5-1.7-13-2.7-19.7-3.1v22.5c.2.1.3.2.5.4 2.9 2.4 5.3 5.2 7 8.5 1.6 3 2.6 6.1 2.9 9.3.2.1.6.1 1 .1"/><path fill="url(#ac)" d="m255.1 136.3-.7.9c-3.9 5.1-8.2 9.9-12.8 14.4l-15.8 14.6c-.2 0-.5 0-.7-.1 0 .1-.1.1-.1.2 5.5 1 10.7 2.1 15.8 3.4.7-.6 2-1.5 3.7-2.6 1.7-1.2 3-2.2 3.9-3.1.6-.8 1.2-1.4 1.5-1.7.3-.4.9-.8 1.6-1.4q1.5-1.2 3.3-3.9c1.4-2 2.4-3.3 3.1-4 .4-.4.8-.7 1.1-.8-.2-1.4-.4-2.8-.7-4.3-.8-4-1.9-7.9-3.2-11.6"/><path fill="url(#ad)" d="M6.1 57.8c1-1.2 1.5-1.9 1.5-1.9L9 53.7q.6-.9 1.5-2.1l1.7-2 .1-.1c-.2-.2-.4-.5-.5-.9-.4-.6-1-1.3-2-2.3-.4-.5-1-1.3-1.6-2.5-.5-.9-.9-1.6-1.3-2.1-.1-.2-.3-.3-.5-.5L.2 34.3v30.3c0 .1-.1.2-.1.2v.8L3.6 61c.9-1.3 1.7-2.4 2.5-3.2"/><path fill="url(#ae)" d="m254.8 161.6-2.8 2.9c-.4.5-.8 1-1.4 1.5-1.6 1.6-3.5 3.1-5.7 4.6-.1 0-.1.1-.2.1 2.1.6 4.1 1.1 6.1 1.7.6.2 1.1.4 1.7.5.1 0 .2.1.3.1 0-.1.1-.2.2-.2l.1-.1c3.3-2.6 5.3-6.5 6.1-11.6.2-1.7.3-3.6.2-5.8-2 2.9-3.5 5-4.6 6.3"/><path fill="url(#af)" d="M261.5 342.8c-.2-3.9-1-7.6-2.6-11.2-.8-1.9-1.8-3.7-3-5.3-.2-.1-.3-.2-.5-.4-.1-.1-.4-.5-.8-1s-1.3-1.2-2.8-2.3c-.7-.5-1.5-1.1-2.3-1.8-.1 0-.2-.1-.3-.1-.7-.2-1.5-.4-2.3-.6-.3 0-.5-.1-.7-.2-.6-.2-1.1-.3-1.7-.5l-37.4-7.1c-.5-.1-1-.2-1.5-.2-.4-.1-.9-.1-1.3-.2l-37.8-3.4c-1 0-2.1-.1-3.1-.2h-2.7l-27.3.1c-.6 0-1-.1-1.4-.2-16.1 1-29.8 2.3-41.1 3.7-.4 0-.7.1-1.1.1L50 319.5c-.4.1-.7.2-1.1.3-.2.1-.4.1-.7.2 0 0-.1 0-.2.1-.2.2-.5.3-.8.5q-1.95 1.05-3 1.5c-1.2.6-2.1 1.2-2.8 1.8l-1.2.8s-.1 0-.1.1c-1.6 2-2.9 4.2-4 6.7-1.5 3.6-2.4 7.3-2.6 11.2-.2 5.1.8 9.5 3 13.4 2.5 4.4 5.9 7.4 10.3 8.8.3.1.6.2.8.4 10.2-2.8 21.3-5.2 33.5-7 10.6-1.6 23.8-3 39.6-4.3 5.3-.4 9.8-.7 13.4-.7 4.2-.6 9.8-.7 16.6-.4l6.5.4c4.2-.1 9.8.1 16.8.7 15.8 1.3 29 2.7 39.6 4.3 12.2 1.8 23.3 4.2 33.5 7 .2-.1.5-.2.8-.4 4.4-1.4 7.8-4.4 10.3-8.8 2.5-3.8 3.5-8.2 3.3-13.3"/><path fill="url(#ag)" d="m215.5 88.3-.3.3c-4.3 3.7-7.5 6.5-9.7 8.4-3.8 3.3-6.9 6.2-9.4 8.6l-1.2 1.2c-1.1 1.1-2.2 2.2-3.4 3.3l-.1.1-.4.4c6.8 8.1 12.6 15.8 17.4 23 6.7 10.1 12.1 20 16 29.9 5.2-4.6 10.5-9.6 15.9-14.9 2.3-2.2 3.9-3.8 5-5 1.7-1.9 3.7-4.3 5.9-7.2l2.6-3.2.1-.1c-2.8-7.2-6.5-14-11.2-20.5-7.5-10.3-16.6-18.4-27.2-24.3m8.5 13.8c.2-.5.4-.9.8-1.2s.8-.5 1.3-.5c1.2.2 2.1.8 2.8 2 .4.7.5 1.4.2 2-.1.2-.3.5-.6.8-.6.4-1.2.6-2 .5-.7 0-1.4-.3-1.9-.8-.6-.9-.9-1.8-.6-2.8m7.8 24.5c-.7.6-1.4.8-2.1.7-.3 0-.9-.2-1.8-.5-.7-.4-1.2-.8-1.4-1.1-.4-.6-.4-1.3-.2-2.1 0-.4.2-.7.5-1.1.7-.8 1.5-1 2.6-.8.7.2 1.5.6 2.3 1.4.7.7 1 1.3.9 2 0 .6-.3 1.1-.8 1.5"/><path fill="url(#ah)" d="M261.5 294.8c-.2-3.9-1-7.6-2.6-11.2-.6-1.4-1.3-2.8-2.1-4.1-.2 0-.5-.1-.7-.3-.3-.2-.6-.6-1-1.1-1.8-2.5-4-4.4-6.8-6-.9-.5-1.5-.9-1.7-1.2-.2-.2-.2-.4-.3-.7-.1 0-.1 0-.2-.1-12.7-3.3-26.7-6-41.9-7.9q-16.8-2.1-40.8-3.6-.6.15-1.2 0l-6.6-.2c-8.7-.2-14.9-.3-18.6-.1-.4 0-.8.1-1.2.1q-26.7 1.65-45 3.9c-15.3 1.9-29.2 4.6-41.9 7.9-.1 0-.2.1-.2.1-.1.3-.3.6-.7.8-.1.1-.6.3-1.4.8-.3.2-.8.5-1.5 1.1l-3.1 2.6c-.4.5-.7.8-.9 1-.3.3-.6.5-.9.5-1.6 2-2.9 4.3-4 6.7-1.5 3.6-2.4 7.3-2.6 11.2-.2 5.1.8 9.5 3 13.4 2.5 4.4 5.9 7.4 10.3 8.8.3.1.5.2.8.4 1.3-.4 2.6-.7 3.9-1.1l29.7-5.9c10.6-1.6 23.8-3 39.6-4.3l12.3-.7h1.1c4.2-.6 9.8-.7 16.6-.4l6.5.4c4-.1 9.3.1 15.9.7.3 0 .6 0 .9.1 15.8 1.3 29 2.7 39.6 4.3 12.2 1.8 23.3 4.2 33.5 7 .2-.1.5-.2.8-.4 4.4-1.4 7.8-4.4 10.3-8.8 2.3-4.2 3.3-8.6 3.1-13.7"/><path fill="url(#ai)" d="M258.9 185.8c-.6-1.3-1.2-2.5-1.9-3.7-1.2-1.9-2.6-3.7-4.1-5.4-.1 0-.2-.1-.2-.2-.4.3-1.1.3-2.1.1-1.1-.3-1.9-.5-2.5-.5-.9-.1-1.8-.1-2.5.1-.9.2-1.7.7-2.4 1.4s-1.2 1.5-1.4 2.4c-.6 1.8-.4 3.6.6 5.5.1.2.7 1.2 2 3.1 1.4 2.1 2.1 4.3 2 6.4 0 1.2-.3 2.3-.8 3.3-.6 1.1-1.3 2-2.2 2.5-1 .6-2.2 1-3.8 1.1-1.6.2-3 .1-4.2-.4-.8-.4-1.7-.9-2.5-1.5-1.1-.7-2-1.6-2.8-2.7-1.1-1.3-1.8-2.9-2.1-4.7-.3-1.7-.2-3.5.2-5.2 0-.2.4-1.2 1.2-3.1.5-1.2.8-2.3.8-3.1 0-1.3-.2-2.6-.8-4.1-1-2.5-2.3-4.3-4-5.3-1-.4-1.7-.8-2.1-1-.1 0-.1-.1-.2-.1-.2 0-.5-.1-.8-.2-.5-.3-.8-.5-1-.7-1.4-.5-2.4-.9-2.9-1.5-4.6-.7-9.3-1.4-14.1-2-10-1.3-22-2.4-35.9-3.3-.2.2-.5.3-.8.4-1.2.3-2 .5-2.6.7-.9.3-1.7.6-2.3 1.1q-1.5 1.05-2.1 3c-.4 1.3-.4 2.5.1 3.7.2.6.8 1.5 1.7 2.8 1.1 1.5 2 3.3 2.7 5.2.7 1.8.9 3.3.7 4.5-.2 1.1-.9 2.2-2 3.3-2 1.9-4.5 3-7.3 3.2q-4.2.15-7.5-2.4c-2.2-1.8-3.3-3.9-3.3-6.2 0-1.5.6-3.2 1.8-5 .9-1.2 1.3-2.2 1.2-2.8q0-1.05-1.2-1.8c-.7-.4-1.4-.7-2.3-.7-1.2-.1-2 .2-2.5.9-.2.3-.3.7-.3 1.1 0 .6-.1.9-.1 1.2 0 .9-.4 1.7-.9 2.5-.5.7-1.2 1.3-2 1.7-1.5.8-3.2 1.1-5.2.8q-3.3-.45-4.8-2.7c-1-1.4-1.3-3.3-.9-5.6 0-.4.1-.9.3-1.7.1-.7.1-1.3.1-1.8-.2-1-.7-1.8-1.7-2.5-.8-.6-1.7-1-2.8-1.4-.8-.2-1.3-.6-1.5-.9v-.2c-12.2.9-22.8 1.9-31.9 3.1-.1.5-.5 1.2-1.1 1.9-1.3 1.3-2.1 2.2-2.6 2.7-.9 1.1-1.5 2.1-1.9 3.1-.5 1.3-.7 2.7-.4 4.2.2 1.1.9 2.8 2 5 1.1 2.1 1.7 3.8 1.8 5s-.1 2.4-.7 3.6c-.5 1.2-1.3 2.1-2.3 2.8s-2.2 1.1-3.4 1.3c-1.3.1-2.5-.1-3.7-.5-1.2-.5-2.2-1.3-3.1-2.4-1-1.2-1.8-2.5-2.2-4s-.4-3 0-4.4c.1-.3.3-1 .8-2.1q.45-1.35.6-2.1c.2-1.9-.4-3.6-1.8-5.2-1.1-1.2-2.6-2.3-4.5-3.4-.9-.5-1.5-1.1-1.6-1.7-7.3 1.5-14.3 3.1-20.9 4.9-.7.2-1.5.4-2.2.6-.2.1-.4.1-.5.2-.2.2-.3.4-.5.6-.7.7-1.4 1.4-2 2.1-1.8 2.2-3.3 4.7-4.5 7.4-1.5 3.6-2.4 7.3-2.6 11.2-.2 5.1.8 9.5 3 13.4 2.5 4.4 5.9 7.4 10.3 8.8.3.1.5.2.8.3 1.3-.3 2.6-.7 3.9-1l29.7-5.9c10.6-1.6 23.8-3 39.6-4.3l12.4-.7c.3 0 .7 0 1-.1 4.2-.6 9.8-.7 16.6-.4l6.5.4c4-.1 9.3.1 15.9.7.3 0 .6 0 .9.1 15.8 1.3 29 2.7 39.6 4.3 12.2 1.8 23.3 4.1 33.5 6.9.2-.1.5-.2.8-.3 4.4-1.4 7.8-4.4 10.3-8.8 2.2-3.9 3.2-8.3 3-13.4-.2-4.2-1-7.9-2.6-11.5"/><path fill="url(#aj)" d="M261.5 245c-.2-3.9-1-7.6-2.6-11.2-.8-1.9-1.8-3.6-2.9-5.3-.2-.1-.4-.2-.6-.4-.1-.1-.4-.5-.8-1s-1.3-1.2-2.8-2.3c-.7-.5-1.4-1.1-2.3-1.8-.1 0-.2 0-.4-.1-.8-.2-1.5-.4-2.3-.7-.3 0-.5-.1-.7-.2-.6-.1-1.2-.3-1.7-.4l-37.5-7.1c-.5-.1-1-.1-1.5-.2-.4-.1-.9-.1-1.3-.2l-37.7-3.4c-1 0-2.1-.1-3.1-.2h-1.1l-.5-.1c-.3 0-.7.1-1.1.1l-27.3.1c-.6 0-1-.1-1.4-.2-16.1 1-29.8 2.3-41.1 3.7-.3 0-.7.1-1 .1L50 221.8l-1.2.3c-.2.1-.4.2-.7.2H48c-.2.2-.5.4-.8.6q-1.95 1.05-3 1.5c-1.2.6-2.1 1.2-2.8 1.8l-1.2.8s-.1 0-.1.1c-1.6 2-2.9 4.3-4 6.7-1.5 3.5-2.4 7.2-2.6 11 2.2 2.4 5 3.8 8.3 4.1 1.7.2 3.4-.1 5.1-.7s3.2-1.6 4.4-2.8c.7-.7 1.7-1.9 2.9-3.4 2.1-2.4 4.8-4.1 8.1-4.9 3.3-.9 6.5-.9 9.6.1 1.2.4 2.7 1.1 4.6 2.1 2.1 1.1 3.6 1.8 4.6 2.1 2.6 1 5.3 1.4 7.9 1.1q4.35-.45 7.2-3c.5-.4 1.4-1.4 2.7-2.8 1.1-1.2 2-2.1 2.8-2.6 1.2-.7 3-1.3 5.5-1.7 3.2-.4 5.7-.4 7.6.2 1 .3 2.2.9 3.7 1.7 1.9 1 3 1.6 3.6 1.8 2.3 1 4.7 1.4 7.2 1.3s4.9-.8 7.1-2c.7-.4 1.8-1.1 3.1-2.1s2.4-1.7 3.1-2.1c2.5-1.3 5.2-2 8.2-2 2.9 0 5.7.7 8.3 2q1.35.6 5.7 3.3c2.3 1.5 4.3 2.4 5.9 2.9 3.8 1.2 7.6.9 11.2-.7.7-.3 1.7-.9 3-1.7 1.3-.7 2.3-1.3 3-1.6 2.1-.9 4.4-1.3 6.8-1.1s4.6.8 6.7 2c.7.4 2 1.2 3.7 2.4 1.5 1.1 2.8 1.9 3.7 2.4q4.8 2.4 10.2.9 1.05-.3 3.3-1.2 2.1-.9 3.3-1.2c2.6-.7 5.4-.6 8.4.4 2.6.8 5.1 2.2 7.6 4.1.9.7 2.2 1.8 3.9 3.2 1.5 1.2 2.9 2 4.3 2.4 1.7.6 3.5.8 5.3.6 1.9-.2 3.5-.9 5-2 .6-.4 1-.6 1.4-.5z"/></g><defs><linearGradient id="b" x1="167.55" x2="167.55" y1="-.2" y2="540.1" gradientUnits="userSpaceOnUse"><stop stop-color="currentColor" stop-opacity=".2"/><stop offset=".838" stop-color="currentColor" stop-opacity="0"/></linearGradient><linearGradient id="c" x1="167.55" x2="167.55" y1="-.2" y2="540.1" gradientUnits="userSpaceOnUse"><stop stop-color="currentColor" stop-opacity=".2"/><stop offset=".838" stop-color="currentColor" stop-opacity="0"/></linearGradient><linearGradient id="d" x1="167.55" x2="167.55" y1="-.2" y2="540.1" gradientUnits="userSpaceOnUse"><stop stop-color="currentColor" stop-opacity=".2"/><stop offset=".838" stop-color="currentColor" stop-opacity="0"/></linearGradient><linearGradient id="e" x1="167.55" x2="167.55" y1="-.2" y2="540.1" gradientUnits="userSpaceOnUse"><stop stop-color="currentColor" stop-opacity=".2"/><stop offset=".838" stop-color="currentColor" stop-opacity="0"/></linearGradient><linearGradient id="f" x1="167.55" x2="167.55" y1="-.2" y2="540.1" gradientUnits="userSpaceOnUse"><stop stop-color="currentColor" stop-opacity=".2"/><stop offset=".838" stop-color="currentColor" stop-opacity="0"/></linearGradient><linearGradient id="g" x1="167.55" x2="167.55" y1="-.2" y2="540.1" gradientUnits="userSpaceOnUse"><stop stop-color="currentColor" stop-opacity=".2"/><stop offset=".838" stop-color="currentColor" stop-opacity="0"/></linearGradient><linearGradient id="h" x1="167.55" x2="167.55" y1="-.2" y2="540.1" gradientUnits="userSpaceOnUse"><stop stop-color="currentColor" stop-opacity=".2"/><stop offset=".838" stop-color="currentColor" stop-opacity="0"/></linearGradient><linearGradient id="i" x1="167.55" x2="167.55" y1="-.2" y2="540.1" gradientUnits="userSpaceOnUse"><stop stop-color="currentColor" stop-opacity=".2"/><stop offset=".838" stop-color="currentColor" stop-opacity="0"/></linearGradient><linearGradient id="j" x1="167.55" x2="167.55" y1="-.2" y2="540.1" gradientUnits="userSpaceOnUse"><stop stop-color="currentColor" stop-opacity=".2"/><stop offset=".838" stop-color="currentColor" stop-opacity="0"/></linearGradient><linearGradient id="k" x1="167.55" x2="167.55" y1="-.2" y2="540.1" gradientUnits="userSpaceOnUse"><stop stop-color="currentColor" stop-opacity=".2"/><stop offset=".838" stop-color="currentColor" stop-opacity="0"/></linearGradient><linearGradient id="l" x1="167.55" x2="167.55" y1="-.2" y2="540.1" gradientUnits="userSpaceOnUse"><stop stop-color="currentColor" stop-opacity=".2"/><stop offset=".838" stop-color="currentColor" stop-opacity="0"/></linearGradient><linearGradient id="m" x1="167.55" x2="167.55" y1="-.2" y2="540.1" gradientUnits="userSpaceOnUse"><stop stop-color="currentColor" stop-opacity=".2"/><stop offset=".838" stop-color="currentColor" stop-opacity="0"/></linearGradient><linearGradient id="n" x1="167.55" x2="167.55" y1="-.2" y2="540.1" gradientUnits="userSpaceOnUse"><stop stop-color="currentColor" stop-opacity=".2"/><stop offset=".838" stop-color="currentColor" stop-opacity="0"/></linearGradient><linearGradient id="o" x1="167.55" x2="167.55" y1="-.2" y2="540.1" gradientUnits="userSpaceOnUse"><stop stop-color="currentColor" stop-opacity=".2"/><stop offset=".838" stop-color="currentColor" stop-opacity="0"/></linearGradient><linearGradient id="p" x1="167.55" x2="167.55" y1="-.2" y2="540.1" gradientUnits="userSpaceOnUse"><stop stop-color="currentColor" stop-opacity=".2"/><stop offset=".838" stop-color="currentColor" stop-opacity="0"/></linearGradient><linearGradient id="q" x1="167.55" x2="167.55" y1="-.2" y2="540.1" gradientUnits="userSpaceOnUse"><stop stop-color="currentColor" stop-opacity=".2"/><stop offset=".838" stop-color="currentColor" stop-opacity="0"/></linearGradient><linearGradient id="r" x1="167.55" x2="167.55" y1="-.2" y2="540.1" gradientUnits="userSpaceOnUse"><stop stop-color="currentColor" stop-opacity=".2"/><stop offset=".838" stop-color="currentColor" stop-opacity="0"/></linearGradient><linearGradient id="s" x1="167.55" x2="167.55" y1="-.2" y2="540.1" gradientUnits="userSpaceOnUse"><stop stop-color="currentColor" stop-opacity=".2"/><stop offset=".838" stop-color="currentColor" stop-opacity="0"/></linearGradient><linearGradient id="t" x1="167.55" x2="167.55" y1="-.2" y2="540.1" gradientUnits="userSpaceOnUse"><stop stop-color="currentColor" stop-opacity=".2"/><stop offset=".838" stop-color="currentColor" stop-opacity="0"/></linearGradient><linearGradient id="u" x1="167.55" x2="167.55" y1="-.2" y2="540.1" gradientUnits="userSpaceOnUse"><stop stop-color="currentColor" stop-opacity=".2"/><stop offset=".838" stop-color="currentColor" stop-opacity="0"/></linearGradient><linearGradient id="v" x1="167.55" x2="167.55" y1="-.2" y2="540.1" gradientUnits="userSpaceOnUse"><stop stop-color="currentColor" stop-opacity=".2"/><stop offset=".838" stop-color="currentColor" stop-opacity="0"/></linearGradient><linearGradient id="w" x1="167.55" x2="167.55" y1="-.2" y2="540.1" gradientUnits="userSpaceOnUse"><stop stop-color="currentColor" stop-opacity=".2"/><stop offset=".838" stop-color="currentColor" stop-opacity="0"/></linearGradient><linearGradient id="x" x1="167.55" x2="167.55" y1="-.2" y2="540.1" gradientUnits="userSpaceOnUse"><stop stop-color="currentColor" stop-opacity=".2"/><stop offset=".838" stop-color="currentColor" stop-opacity="0"/></linearGradient><linearGradient id="y" x1="167.55" x2="167.55" y1="-.2" y2="540.1" gradientUnits="userSpaceOnUse"><stop stop-color="currentColor" stop-opacity=".2"/><stop offset=".838" stop-color="currentColor" stop-opacity="0"/></linearGradient><linearGradient id="z" x1="167.55" x2="167.55" y1="-.2" y2="540.1" gradientUnits="userSpaceOnUse"><stop stop-color="currentColor" stop-opacity=".2"/><stop offset=".838" stop-color="currentColor" stop-opacity="0"/></linearGradient><linearGradient id="A" x1="167.55" x2="167.55" y1="-.2" y2="540.1" gradientUnits="userSpaceOnUse"><stop stop-color="currentColor" stop-opacity=".2"/><stop offset=".838" stop-color="currentColor" stop-opacity="0"/></linearGradient><linearGradient id="B" x1="167.55" x2="167.55" y1="-.2" y2="540.1" gradientUnits="userSpaceOnUse"><stop stop-color="currentColor" stop-opacity=".2"/><stop offset=".838" stop-color="currentColor" stop-opacity="0"/></linearGradient><linearGradient id="C" x1="167.55" x2="167.55" y1="-.2" y2="540.1" gradientUnits="userSpaceOnUse"><stop stop-color="currentColor" stop-opacity=".2"/><stop offset=".838" stop-color="currentColor" stop-opacity="0"/></linearGradient><linearGradient id="D" x1="167.55" x2="167.55" y1="-.2" y2="540.1" gradientUnits="userSpaceOnUse"><stop stop-color="currentColor" stop-opacity=".2"/><stop offset=".838" stop-color="currentColor" stop-opacity="0"/></linearGradient><linearGradient id="E" x1="167.55" x2="167.55" y1="-.2" y2="540.1" gradientUnits="userSpaceOnUse"><stop stop-color="currentColor" stop-opacity=".2"/><stop offset=".838" stop-color="currentColor" stop-opacity="0"/></linearGradient><linearGradient id="F" x1="167.55" x2="167.55" y1="-.2" y2="540.1" gradientUnits="userSpaceOnUse"><stop stop-color="currentColor" stop-opacity=".2"/><stop offset=".838" stop-color="currentColor" stop-opacity="0"/></linearGradient><linearGradient id="G" x1="167.55" x2="167.55" y1="-.2" y2="540.1" gradientUnits="userSpaceOnUse"><stop stop-color="currentColor" stop-opacity=".2"/><stop offset=".838" stop-color="currentColor" stop-opacity="0"/></linearGradient><linearGradient id="H" x1="167.55" x2="167.55" y1="-.2" y2="540.1" gradientUnits="userSpaceOnUse"><stop stop-color="currentColor" stop-opacity=".2"/><stop offset=".838" stop-color="currentColor" stop-opacity="0"/></linearGradient><linearGradient id="I" x1="167.55" x2="167.55" y1="-.2" y2="540.1" gradientUnits="userSpaceOnUse"><stop stop-color="currentColor" stop-opacity=".2"/><stop offset=".838" stop-color="currentColor" stop-opacity="0"/></linearGradient><linearGradient id="J" x1="167.55" x2="167.55" y1="-.2" y2="540.1" gradientUnits="userSpaceOnUse"><stop stop-color="currentColor" stop-opacity=".2"/><stop offset=".838" stop-color="currentColor" stop-opacity="0"/></linearGradient><linearGradient id="K" x1="167.55" x2="167.55" y1="-.2" y2="540.1" gradientUnits="userSpaceOnUse"><stop stop-color="currentColor" stop-opacity=".2"/><stop offset=".838" stop-color="currentColor" stop-opacity="0"/></linearGradient><linearGradient id="L" x1="167.55" x2="167.55" y1="-.2" y2="540.1" gradientUnits="userSpaceOnUse"><stop stop-color="currentColor" stop-opacity=".2"/><stop offset=".838" stop-color="currentColor" stop-opacity="0"/></linearGradient><linearGradient id="M" x1="167.55" x2="167.55" y1="-.2" y2="540.1" gradientUnits="userSpaceOnUse"><stop stop-color="currentColor" stop-opacity=".2"/><stop offset=".838" stop-color="currentColor" stop-opacity="0"/></linearGradient><linearGradient id="N" x1="167.55" x2="167.55" y1="-.2" y2="540.1" gradientUnits="userSpaceOnUse"><stop stop-color="currentColor" stop-opacity=".2"/><stop offset=".838" stop-color="currentColor" stop-opacity="0"/></linearGradient><linearGradient id="O" x1="167.55" x2="167.55" y1="-.2" y2="540.1" gradientUnits="userSpaceOnUse"><stop stop-color="currentColor" stop-opacity=".2"/><stop offset=".838" stop-color="currentColor" stop-opacity="0"/></linearGradient><linearGradient id="P" x1="167.55" x2="167.55" y1="-.2" y2="540.1" gradientUnits="userSpaceOnUse"><stop stop-color="currentColor" stop-opacity=".2"/><stop offset=".838" stop-color="currentColor" stop-opacity="0"/></linearGradient><linearGradient id="Q" x1="167.55" x2="167.55" y1="-.2" y2="540.1" gradientUnits="userSpaceOnUse"><stop stop-color="currentColor" stop-opacity=".2"/><stop offset=".838" stop-color="currentColor" stop-opacity="0"/></linearGradient><linearGradient id="R" x1="167.55" x2="167.55" y1="-.2" y2="540.1" gradientUnits="userSpaceOnUse"><stop stop-color="currentColor" stop-opacity=".2"/><stop offset=".838" stop-color="currentColor" stop-opacity="0"/></linearGradient><linearGradient id="S" x1="167.55" x2="167.55" y1="-.2" y2="540.1" gradientUnits="userSpaceOnUse"><stop stop-color="currentColor" stop-opacity=".2"/><stop offset=".838" stop-color="currentColor" stop-opacity="0"/></linearGradient><linearGradient id="T" x1="167.55" x2="167.55" y1="-.2" y2="540.1" gradientUnits="userSpaceOnUse"><stop stop-color="currentColor" stop-opacity=".2"/><stop offset=".838" stop-color="currentColor" stop-opacity="0"/></linearGradient><linearGradient id="U" x1="167.55" x2="167.55" y1="-.2" y2="540.1" gradientUnits="userSpaceOnUse"><stop stop-color="currentColor" stop-opacity=".2"/><stop offset=".838" stop-color="currentColor" stop-opacity="0"/></linearGradient><linearGradient id="V" x1="167.55" x2="167.55" y1="-.2" y2="540.1" gradientUnits="userSpaceOnUse"><stop stop-color="currentColor" stop-opacity=".2"/><stop offset=".838" stop-color="currentColor" stop-opacity="0"/></linearGradient><linearGradient id="W" x1="167.55" x2="167.55" y1="-.2" y2="540.1" gradientUnits="userSpaceOnUse"><stop stop-color="currentColor" stop-opacity=".2"/><stop offset=".838" stop-color="currentColor" stop-opacity="0"/></linearGradient><linearGradient id="X" x1="167.55" x2="167.55" y1="-.2" y2="540.1" gradientUnits="userSpaceOnUse"><stop stop-color="currentColor" stop-opacity=".2"/><stop offset=".838" stop-color="currentColor" stop-opacity="0"/></linearGradient><linearGradient id="Y" x1="167.55" x2="167.55" y1="-.2" y2="540.1" gradientUnits="userSpaceOnUse"><stop stop-color="currentColor" stop-opacity=".2"/><stop offset=".838" stop-color="currentColor" stop-opacity="0"/></linearGradient><linearGradient id="Z" x1="167.55" x2="167.55" y1="-.2" y2="540.1" gradientUnits="userSpaceOnUse"><stop stop-color="currentColor" stop-opacity=".2"/><stop offset=".838" stop-color="currentColor" stop-opacity="0"/></linearGradient><linearGradient id="aa" x1="167.55" x2="167.55" y1="-.2" y2="540.1" gradientUnits="userSpaceOnUse"><stop stop-color="currentColor" stop-opacity=".2"/><stop offset=".838" stop-color="currentColor" stop-opacity="0"/></linearGradient><linearGradient id="ab" x1="167.55" x2="167.55" y1="-.2" y2="540.1" gradientUnits="userSpaceOnUse"><stop stop-color="currentColor" stop-opacity=".2"/><stop offset=".838" stop-color="currentColor" stop-opacity="0"/></linearGradient><linearGradient id="ac" x1="167.55" x2="167.55" y1="-.2" y2="540.1" gradientUnits="userSpaceOnUse"><stop stop-color="currentColor" stop-opacity=".2"/><stop offset=".838" stop-color="currentColor" stop-opacity="0"/></linearGradient><linearGradient id="ad" x1="167.55" x2="167.55" y1="-.2" y2="540.1" gradientUnits="userSpaceOnUse"><stop stop-color="currentColor" stop-opacity=".2"/><stop offset=".838" stop-color="currentColor" stop-opacity="0"/></linearGradient><linearGradient id="ae" x1="167.55" x2="167.55" y1="-.2" y2="540.1" gradientUnits="userSpaceOnUse"><stop stop-color="currentColor" stop-opacity=".2"/><stop offset=".838" stop-color="currentColor" stop-opacity="0"/></linearGradient><linearGradient id="af" x1="167.55" x2="167.55" y1="-.2" y2="540.1" gradientUnits="userSpaceOnUse"><stop stop-color="currentColor" stop-opacity=".2"/><stop offset=".838" stop-color="currentColor" stop-opacity="0"/></linearGradient><linearGradient id="ag" x1="167.55" x2="167.55" y1="-.2" y2="540.1" gradientUnits="userSpaceOnUse"><stop stop-color="currentColor" stop-opacity=".2"/><stop offset=".838" stop-color="currentColor" stop-opacity="0"/></linearGradient><linearGradient id="ah" x1="167.55" x2="167.55" y1="-.2" y2="540.1" gradientUnits="userSpaceOnUse"><stop stop-color="currentColor" stop-opacity=".2"/><stop offset=".838" stop-color="currentColor" stop-opacity="0"/></linearGradient><linearGradient id="ai" x1="167.55" x2="167.55" y1="-.2" y2="540.1" gradientUnits="userSpaceOnUse"><stop stop-color="currentColor" stop-opacity=".2"/><stop offset=".838" stop-color="currentColor" stop-opacity="0"/></linearGradient><linearGradient id="aj" x1="167.55" x2="167.55" y1="-.2" y2="540.1" gradientUnits="userSpaceOnUse"><stop stop-color="currentColor" stop-opacity=".2"/><stop offset=".838" stop-color="currentColor" stop-opacity="0"/></linearGradient><clipPath id="a"><path fill="#fff" d="M0 0h335v540H0z"/></clipPath></defs></svg>