<svg xmlns="http://www.w3.org/2000/svg" width="335" height="540" fill="none" viewBox="0 0 335 540"><g clip-path="url(#clip0_88_1732)"><path fill="url(#paint0_linear_88_1732)" d="M149.4 73.3003C148.4 73.3003 147.3 73.3003 146.2 73.3003V73.4003C146.1 73.6003 146.1 73.8003 146 73.9003C145.7 74.5003 145.2 75.0003 144.4 75.6003C140.7 78.4003 138 80.6003 136.2 82.1003C133.1 84.6003 130.6 87.0003 128.7 89.2003C127 91.1003 125.9 92.2003 125.6 92.5003L123.1 94.6003C122.9 94.7003 122.3 95.5003 121.1 96.9003C120.5 97.6003 119.5 98.7003 118.2 100.2L114 104.7C115.4 104.9 116.8 105.3 118.3 105.9C119.1 106.2 119.9 106.7 120.7 107.1C122.8 108.4 124.4 109.9 125.6 111.7C127.4 114.4 128.1 118 127.7 122.3C127.5 123.8 127.2 125.7 126.8 127.8C126.5 129.1 126.2 130.1 126 131.1C126 131.2 126.1 131.2 126.2 131.3C126.9 131.9 127.7 132.7 128.5 133.7C129.3 135 130 136 130.5 136.5C131.1 137.3 132.2 138.4 133.6 139.9C136.1 142.5 139.4 146.4 143.4 151.6L147.8 157.2C147.9 157.3 147.9 157.4 148 157.4C148.3 157 148.6 156.6 148.9 156.2C163.5 137.9 175 124.2 183.4 114.9C184.8 113.4 186.2 111.9 187.6 110.4C186.9 109.5 186.1 108.6 185.4 107.7C184.9 107.2 184.2 106.6 183.6 105.9C183.4 105.6 183.1 105.3 182.8 105L182.7 105.1C182.6 105.1 182.5 105 182.4 105C182.3 104.9 182.2 104.9 182.1 104.8V104.7C182.2 104.7 182.3 104.7 182.5 104.6C182.1 104.1 181.7 103.6 181.4 103L178.6 100C177.3 98.6003 176.3 97.5003 175.7 96.7003C174.6 95.3003 173.9 94.6003 173.7 94.4003L171.2 92.3003C170.9 92.0003 169.9 90.9003 168.1 89.0003C166.2 86.8003 163.7 84.4003 160.6 81.9003C159.1 80.6003 156.8 78.9003 153.9 76.6003C152.3 75.8003 151.1 75.0003 150.2 74.2003C149.8 74.0003 149.5 73.7003 149.4 73.3003ZM150.8 116C150.7 116.3 150.4 116.6 149.9 116.9C148.9 117.6 147.9 117.8 146.9 117.6C146.3 117.5 145.9 117.2 145.5 116.8C145.1 116.4 144.9 116 144.8 115.5C144.8 115 144.9 114.4 145.2 113.7C145.7 112.6 146.4 112 147.1 111.7C148 111.4 148.7 111.6 149.4 112.2C149.5 112.3 149.8 112.7 150.3 113.3C150.9 114.4 151.1 115.3 150.8 116ZM151.1 90.6003C151.3 91.2003 151.2 91.8003 150.9 92.4003C150.7 92.8003 150.3 93.1003 149.7 93.4003C148.5 94.0003 147.4 94.0003 146.5 93.3003C145.9 92.9003 145.5 92.3003 145.4 91.5003C145.3 90.7003 145.5 90.0003 145.9 89.3003C146.3 88.9003 146.6 88.6003 147 88.4003C147.3 88.3003 147.7 88.2003 148.3 88.2003C148.6 88.2003 148.9 88.3003 149.2 88.4003C149.5 88.5003 149.8 88.7003 150.2 89.1003C150.7 89.5003 151 90.0003 151.1 90.6003Z"/><path fill="url(#paint1_linear_88_1732)" d="M106.1 133.8C107.5 130 109.6 127.2 112.4 125.4C114.3 124.2 116.4 123.6 118.7 123.4C120.8 123.3 122.7 123.7 124.5 124.5C124.6 123.7 124.7 123 124.8 122.5C125.2 119.7 124.9 117.3 124.1 115.3C123.1 112.7 121.2 110.7 118.5 109.3C115.9 107.9 113.1 107.4 110.1 107.8C109.9 107.9 109.7 108 109.5 108C109.4 108 109.3 108 109.2 107.9C106.8 108.4 104.5 109.4 102.3 110.9C100 112.6 98.1 114.6 96.4 117.1C93.8 121.1 92 126.4 90.9 133.2C89.5 141.7 89.2 151.7 90.1 163.3C94.5 162.8 99.2 162.3 104.2 161.8C103.5 157.3 103.4 151.6 104.1 144.4C104.5 140 105.1 136.5 106.1 133.8Z"/><path fill="url(#paint2_linear_88_1732)" d="M41.7 132.8C41.8 132.9 41.9 133 42 133.2L44.6 136.4C46.9 139.3 48.8 141.7 50.5 143.6C51.6 144.8 53.2 146.4 55.5 148.6C61.3 154.3 67 159.6 72.5 164.5L73.4 161.6C74.4 158.6 75.3 156.1 76.2 154C76.6 153.2 77.3 151.7 78.4 149.6C79.3 147.7 80.1 146.2 80.5 145.1C81.1 143.8 81.4 142.8 81.7 142.4L83.2 140.3C84.7 138.4 86 136.4 87 134.5C87.3 133.9 87.7 133.5 88 133.3C88 133.2 88 133.1 88.1 133C88.4 130.4 88.9 128 89.5 125.9C90.9 120.9 93.3 116.4 96.7 112.6C98.6 110.4 100.6 108.7 102.9 107.3C103.1 107.1 103.3 106.9 103.6 106.8L105.1 106.1C105.9 105.8 106.3 105.6 106.4 105.6C106.7 105.5 107 105.4 107.5 105.4V105.3C107.5 105.2 107.6 105.1 107.6 105.1C107.6 105 107.5 104.9 107.5 104.9C107.5 104.8 107.5 104.7 107.4 104.7C107.4 104.6 107.3 104.6 107.3 104.5L107.1 104.3C106.9 104.2 106.8 104.1 106.6 104.1C106.5 104.1 106.4 104 106.3 104L106.2 103.9C106.1 103.9 106 103.9 105.8 103.8C105.7 103.8 105.7 103.8 105.6 103.7C105.6 103.6 105.7 103.5 105.7 103.4C104.3 102.1 102.7 100.5 100.8 98.5003L97.2 94.6003C94.5 91.8003 92.6 89.6003 91.4 88.0003L89.5 85.2003C89.2 84.7003 88.9 84.3003 88.8 83.9003C86 85.1003 83.5 86.2003 81.1 87.5003C69.8 93.5003 60.2 101.9 52.3 112.8C47.8 119 44.1 125.6 41.3 132.6C41.4 132.6 41.5 132.7 41.7 132.8ZM65.8 103.4C65.9 102.5 66.5 101.8 67.5 101.4L68 101.2L68.4 100.8C68.8 100.5 69.1 100.5 69.4 100.7C69.8 100.9 70 101.3 70.1 101.8L70.2 103C70.3 103.9 70.4 104.4 70.3 104.5C70.1 105.1 69.6 105.5 68.8 105.8C68.2 106.1 67.5 106.1 66.8 105.7C66.4 105.5 66.1 105.2 65.9 104.8C65.8 104.3 65.7 103.9 65.8 103.4ZM63.4 124.5C63.5 124.1 63.7 123.8 64 123.6C64.4 123.2 65.1 123.1 65.9 123.2C66.4 123.2 66.8 123.3 67 123.4C67.2 123.5 67.4 123.8 67.7 124.2C68.1 124.8 68.3 125.3 68.3 125.6C68.3 126 68.2 126.3 68.1 126.5C67.9 127.2 67.4 127.8 66.8 128.2C66.2 128.5 65.6 128.6 64.9 128.4C64.2 128.2 63.7 127.8 63.4 127.3C63 126.5 62.9 125.6 63.4 124.5Z"/><path fill="url(#paint3_linear_88_1732)" d="M85.7 141.8C84.8 142.9 84.1 143.8 83.9 144.5C83.6 145.5 83.3 146.2 83.2 146.7C83 147.3 82.6 148.1 82.1 149C79.6 153.5 77.7 158.2 76.1 163C75.8 164.1 75.5 164.9 75.2 165.6H76.6C76.8 165.5 77 165.5 77.1 165.4C77.5 165.4 77.9 165.3 78.3 165.3C78.5 165.2 78.6 165.2 78.8 165.1C78.9 165 79 164.9 79.1 164.9L79.2 164.8C79.9 164.7 80.6 164.6 81.3 164.5C83.3 164.2 85.4 163.9 87.5 163.6C87.4 162.9 87.3 162.2 87.3 161.3C87 157.9 86.9 154.5 86.9 151.2C86.8 151.3 86.8 151.4 86.7 151.5V150.9C86.7 150.8 86.7 150.7 86.8 150.7C86.8 150.6 86.8 150.5 86.9 150.5C86.9 150.5 87 150.4 87 150.3V150C87 149.9 87.1 149.8 87.1 149.8V146.9C87.1 146.9 87.1 146.8 87 146.8C87.1 144.4 87.2 142 87.4 139.6C86.8 140.3 86.2 141.1 85.7 141.8Z"/><path fill="url(#paint4_linear_88_1732)" d="M0 331.1V361.9C6.9 362.2 13.6 363.3 20 365.3C14.9 356.6 8.3 345.3 0 331.1Z"/><path fill="url(#paint5_linear_88_1732)" d="M5.2 204.8C5 204.8 4.9 204.7 4.7 204.7C4.5 204.7 4.3 204.6 4.1 204.6C4 204.6 3.9 204.5 3.8 204.5L3.7 204.6C3.2 204.9 2.8 204.9 2.3 204.5C2 204.2 1.7 203.8 1.6 203.2C1.1 201.6 1.2 199.7 1.9 197.4C2.3 196.3 3.2 194.6 4.6 192.2L7.9 186.7C8.5 185.8 8.8 185.1 8.8 184.6C8.9 183.8 8.6 183.1 8.1 182.3C7.5 181.6 6.9 181.1 6 180.9C5.8 180.8 5.6 180.8 5.3 180.7C5.2 180.9 5.1 181.1 5 181.3V181.2C4.8 181.2 4.7 181.2 4.5 181.1V181H4.4L4.3 181.1C4 181.3 3.6 181.4 3 181.5C2.2 181.7 1.2 182.2 0.1 183.1V241H20.8V241.1C21 241.1 21.2 241.2 21.4 241.2C21.5 241.3 21.6 241.3 21.7 241.4H30.3V241.5H31C31.4 239 32.1 236.3 33.1 233.7C34.1 231 35.3 228.7 36.7 226.8C37.6 225.5 38.7 224.4 39.9 223.5C39.9 223.5 40 223.5 40.1 223.6C40.7 223.2 41.4 222.8 42.2 222.4C42.7 222.1 43.5 221.7 44.5 221.2C44.4 221.2 44.3 221.2 44.3 221.1C44.2 221 44.1 220.9 44.1 220.9C44 220.9 44 220.8 43.9 220.8C43.8 220.8 43.8 220.7 43.7 220.7C43.5 220.7 43.4 220.6 43.3 220.6C43.3 220.5 43.2 220.4 43.2 220.4L43 220.2C42.9 220.1 42.8 220.1 42.7 220C42.5 219.9 42.4 219.9 42.2 219.8C42 219.8 41.8 219.7 41.6 219.7C41.4 219.6 41.2 219.6 41.1 219.5C41 219.5 41 219.5 40.9 219.4C39.9 218.7 38.9 217.9 37.9 216.9C35.2 214.3 33.3 211.1 32.1 207.5C31.8 206.6 31.6 205.7 31.4 204.8C31.2 204.8 31 204.8 30.8 204.9H18.8C18.5 204.9 18.2 204.9 18 204.8C17.9 204.8 17.8 204.9 17.6 204.9C15.7 204.9 13.8 204.9 11.9 205H5.2V204.8Z"/><path fill="url(#paint6_linear_88_1732)" d="M55 169.5C59.9 168.3 65 167.2 70.3 166.2L70.2 166.1L54.3 151.5C49.7 147 45.4 142.2 41.5 137.1L40.3 135.4C39.9 136.4 39.6 137.5 39.2 138.5C38.2 141.5 37.4 144.6 36.8 147.8C36.7 148.4 36.6 148.9 36.5 149.5C36.7 149.7 36.9 150.1 37.2 150.6C37.7 151.5 38.6 152.7 39.8 154.1C41.1 155.7 42.1 156.9 42.5 157.6L43.6 159.3C44.1 159.9 44.8 160.6 45.6 161.4C48.9 164.6 51.6 166.9 53.7 168.4C54.3 169 54.8 169.3 55 169.5Z"/><path fill="url(#paint7_linear_88_1732)" d="M123.7 160C129.6 159.6 134.4 159.4 138.1 159.5C138.3 159.5 138.5 159.5 138.7 159.6C140.6 159.5 143.1 159.5 146.1 159.5C146 159.3 145.8 159.2 145.7 159C144.8 157.7 143.8 156.6 142.9 155.8C141.9 154.9 141.3 154.3 141.2 154C140.8 153.4 140.2 152.6 139.5 151.4C139.3 151.1 138.7 150.4 137.8 149.4C136.9 148.4 135.6 146.8 133.9 144.6C133.1 143.7 131.8 142.3 130.1 140.5C129 139.3 127.4 137.2 125.4 134.2C123.6 142.5 123.1 150.7 123.7 158.9C123.6 159.3 123.7 159.7 123.7 160Z"/><path fill="url(#paint8_linear_88_1732)" d="M42 162C41.4 161.3 40.6 160.1 39.6 158.6C39 157.9 38.1 156.7 36.9 155.2C36.5 154.7 36.2 154.3 35.9 153.8C35.6 156.6 35.7 159.1 36 161.3C36.6 165.4 38.1 168.7 40.3 171.2C40.8 171.8 41.4 172.4 42.1 172.9C42.2 173 42.3 173.1 42.3 173.1C42.4 173.1 42.5 173 42.5 173C43.1 172.8 43.7 172.7 44.3 172.5C46.6 171.8 49 171.1 51.4 170.5C50.3 169.8 49.1 168.8 47.9 167.7C47 166.8 45.6 165.5 43.8 163.8C43.1 163.1 42.5 162.6 42 162Z"/><path fill="url(#paint9_linear_88_1732)" d="M53.4 90.2003C51.1 94.5003 50.6 99.6003 51.7 105.4C51.9 106.3 52 107.1 52.2 107.8C52.3 107.7 52.4 107.6 52.5 107.4C62 95.7003 73.7 86.9003 87.6 81.1003C90.2 80.0003 93.5 78.8003 97.4 77.5003C102.8 75.7003 108 74.3003 113.2 73.2003C113.4 71.7003 113.4 70.1003 113.3 68.4003L113.2 67.6003L113 66.8003C113 66.4003 112.9 66.0003 112.8 65.7003C112.6 65.1003 112.5 64.7003 112.3 64.2003L111.4 62.0003C111.3 61.8003 111.2 61.5003 111.2 61.3003C110.9 61.2003 110.6 61.2003 110.2 61.1003C103.9 59.1003 96.8 58.1003 88.9 58.0003C82.8 57.9003 75.5 58.3003 67.2 59.4003C63.5 59.8003 60.7 60.4003 58.6 61.1003C57.6 61.4003 56.9 61.6003 56.4 61.6003L56.8 62.4003C56.7 62.6003 56.5 62.8003 56.4 63.1003C54.5 66.1003 53.3 69.4003 52.8 73.0003C52.3 76.6003 52.5 80.0003 53.6 83.4003C54 84.5003 54.2 85.3003 54.3 85.9003C54.5 86.8003 54.5 87.7003 54.4 88.4003C54.2 88.6003 53.8 89.3003 53.4 90.2003Z"/><path fill="url(#paint10_linear_88_1732)" d="M36.6 276.5C37.4 275.5 38.2 274.5 39.2 273.7C39.2 273.7 39.3 273.7 39.4 273.7C39.4 273.6 39.5 273.6 39.5 273.5C39.7 273.2 40.4 272.6 41.5 271.7L43.7 270C44 269.8 44.3 269.5 44.6 269.3C44.5 269.2 44.4 269.1 44.4 269.1C42.1 268.1 39.9 266.6 37.9 264.6C35.6 262.4 33.9 259.8 32.7 256.8C32.1 257.3 31.1 258.3 29.4 259.6C28 260.9 26.9 261.9 26.1 262.8C23.5 265.8 21.5 270.2 20.2 276.1C19.5 279.3 18.7 284 17.9 290.2C17.2 296.6 16.5 301.3 15.8 304.3C13.4 315.6 8.9 323.7 2.3 328.6C2.2 328.6 2.2 328.7 2.1 328.7C7.8 338.5 13.1 347.5 17.9 355.7C18.1 355.5 18.3 355.3 18.6 355.2C19 354.9 19.5 354.6 20.3 354.1C21.3 353.5 22.4 352.7 23.4 351.6C24 351 24.9 350 26 348.5C27.2 347 28.1 345.7 28.6 344.7L29.9 341.7C30.2 341.1 30.5 340.6 30.8 340.3C31.2 337.4 31.9 334.4 33.1 331.3C34.1 328.6 35.3 326.3 36.7 324.4C37.6 323.1 38.7 322 39.9 321.1L40 321.2C40.6 320.8 41.3 320.3 42.2 319.9C42.7 319.6 43.5 319.2 44.5 318.8C44.5 318.8 44.4 318.7 44.3 318.7C44.2 318.6 44.1 318.5 44.1 318.5C44 318.5 44 318.4 43.9 318.4C43.8 318.4 43.8 318.3 43.7 318.3C43.5 318.3 43.4 318.2 43.3 318.2C43.3 318.1 43.2 318 43.2 318C43.1 317.9 43 317.8 43 317.8C42.9 317.7 42.8 317.7 42.7 317.6C42.5 317.5 42.4 317.5 42.2 317.4C42 317.4 41.8 317.3 41.6 317.3C41.4 317.2 41.2 317.2 41.1 317.1H40.9C39.9 316.4 38.9 315.5 38 314.6C35.3 312 33.4 308.8 32.2 305.2C30 298.5 30.3 291.2 33.3 283.4C34.1 280.7 35.2 278.4 36.6 276.5Z"/><path fill="url(#paint11_linear_88_1732)" d="M6.9 319.5C7.5 318.8 8 318.1 8.4 317.2C8.3 315.9 8.2 314.1 8.2 311.9C8.1 308.5 7.5 305.9 6.5 304.1C5.8 302.8 4.8 301.8 3.5 300.8C2.5 300 1.3 299.5 0.1 299.1V325.1C0.3 325.5 0.6 325.9 0.8 326.4C3 324.5 5.1 322.2 6.9 319.5Z"/><path fill="url(#paint12_linear_88_1732)" d="M46.2 42.1003C46 42.0003 45.9 41.9003 45.7 41.9003L45.6 41.8003L42.3 40.0003C40.8 39.1003 38.6 37.7003 35.7 35.9003L16.7 23.5003C16.2 23.2003 15.8 22.9003 15.3 22.7003V23.8003C15.3 23.9003 15.4 24.0003 15.4 24.0003V29.6003C15.4 29.7003 15.5 29.8003 15.5 29.8003V47.9003H28V48.0003H41.4C42.6 48.0003 43.8 48.1003 45 48.1003C45.1 48.1003 45.2 48.1003 45.2 48.1003C45.2 47.3003 45.2 46.4003 45.3 45.5003C45.5 44.3003 45.8 43.2003 46.2 42.1003Z"/><path fill="url(#paint13_linear_88_1732)" d="M307.2 1.20029C305 3.50029 303.8 7.00029 303.5 11.6003C303.5 12.1003 303.5 13.6003 303.5 16.0003C305.6 16.1003 307.7 16.2003 309.7 16.4003V15.8003C309.9 13.1003 310.3 11.0003 310.9 9.60029C311.6 7.70029 312.8 6.20029 314.5 5.00029C316.2 3.80029 318 3.10029 320 2.90029C321.5 2.80029 323.1 3.00029 324.8 3.40029C325.8 3.60029 326.5 3.90029 327.1 4.20029C327.5 4.40029 328 4.80029 328.6 5.30029C330.8 7.10029 332.1 8.70029 332.7 10.2003C333 10.9003 333.2 12.1003 333.4 14.0003C333.6 16.5003 333.6 18.4003 333.5 20.0003C334 20.1003 334.6 20.3003 335.1 20.4003V0.000292972H308.7C307.9 0.600293 307.4 1.00029 307.2 1.20029Z"/><path fill="url(#paint14_linear_88_1732)" d="M137.5 455.6C136.4 452.2 135.4 448.6 134.7 445C134.4 443.8 134.1 443 133.8 442.6C133.3 442.1 132.6 441.8 131.6 441.5C122 438.7 114.8 437 109.9 436.2C108 435.9 107 435.7 106.7 435.7C105.5 435.4 104.5 435.1 103.7 434.6C102.8 434.2 101.5 433.3 100 431.9C95.4 428 92.1 424.9 90 422.7C87.5 420.1 85.8 418.5 85 417.9C82.8 416.4 79.2 415.2 74.3 414.2L63.6 412.1C61.8 411.7 60.4 411.7 59.4 412C58.7 412.2 57.7 412.8 56.5 413.8L48.1 420.8C47.2 421.6 46.4 422 45.7 422C45.1 422 44.4 421.6 43.5 420.9C41.4 419.2 39.5 417.2 37.7 415C36.4 413.4 35.4 412.4 34.6 412C33.9 411.6 32.8 411.4 31.3 411.2C24.5 410.6 17.8 409.7 11.2 408.4C11 408.4 10.8 408.3 10.6 408.2C10.6 408.6 10.5 408.9 10.3 409.1C10.1 409.4 9.8 409.6 9.5 409.7C9.4 409.7 9.3 409.8 9.1 409.8L3.8 420.5C3.1 422.1 2.2 423 1.3 423.3C1 423.4 0.6 423.4 0.1 423.4V429.7C0.4 429.8 0.6 429.9 0.8 430C1.7 430.5 2.4 431.1 3.1 431.8C4 432.6 4.6 433.4 4.9 434.2C5.5 435.5 5.4 436.8 4.8 438.2C4.2 439.6 3.3 440.6 2.1 441.3C1.5 441.7 0.8 441.9 0.1 442.1V447.2C10 447 19.9 447 29.8 447.4C59.4 446.4 88.8 447.9 118 452.1C117.8 451.1 117.6 450.2 117.6 449.4C117.7 448.2 118 447.2 118.5 446.5C118.6 446.4 118.9 446 119.4 445.4L120.4 444.5C121.1 444 122 443.8 123.1 443.9C123.7 443.9 124.6 444.1 125.8 444.4C126.5 444.6 127.2 444.9 127.6 445.2C128.3 445.6 129 446.3 129.4 447.3C129.7 447.9 130 448.8 130.4 450L130.8 451.4C131 452.4 131.1 453 131.1 453.1C131.1 453.1 131.1 453.6 131 454.4C133.3 454.6 135.5 455.1 137.5 455.6ZM46 438.5C45.4 439.3 44.6 440 43.3 440.6C42 441.2 40.5 441.3 39.1 441.2C37.6 441 36.3 440.6 35.1 439.8C34.2 439.2 32.9 437.8 31.2 435.6L28.5 431.9C27.8 431 27.3 430.3 26.9 429.9L24.8 427.8L22.8 425.1C21.7 423.4 21.2 422 21.1 421.1C21.1 420 21.5 418.9 22.2 418C22.7 417.3 23.3 416.8 24.1 416.4C24.8 416.1 25.6 415.9 26.7 415.9C28.6 415.8 30.1 416.2 31.3 417.1C32 417.5 32.8 418.4 33.7 419.8C35.8 422.7 38.3 425.5 41.1 428C42.3 429.1 43.1 429.8 43.5 430.2L45 432.2C45.7 433.2 46.2 434 46.4 434.6C47 435.8 46.8 437.2 46 438.5ZM93.7 444.4C92.4 445.2 90.9 445.6 89.1 445.5C87.7 445.4 86.5 445.1 85.5 444.7C84.3 444.1 83.2 443.2 82.3 441.9C81.6 441 80.9 439.8 80 438.2L77.6 433.7C77.2 432.9 76.8 432.4 76.5 432.2C76.1 431.8 75.3 431.5 74.1 431.3L64.8 429.3C62.7 428.8 61.3 428.2 60.5 427.5C59.4 426.5 58.8 425.1 58.7 423.3C58.6 422.3 58.7 421.5 59.1 420.8C59.2 420.5 59.4 420.3 59.6 420C59.8 419.7 60.1 419.4 60.4 419.2C60.6 419 60.9 418.9 61.3 418.8C62 418.6 62.8 418.4 63.7 418.4C64.4 418.4 65.8 418.6 67.9 419.1L69.6 419.5C74.4 420.3 77.9 420.9 80 421.3C82.1 421.8 83.5 422.3 84.3 422.9C85.2 423.5 86.1 424.5 87.2 425.9C88.5 427.7 89.7 429.4 90.8 431.1C91.5 432.3 92.1 433.2 92.7 434C93.2 434.7 93.9 435.7 95 437C95.9 438.3 96.3 439.5 96.2 440.6C96.1 442.1 95.3 443.4 93.7 444.4Z"/><path fill="url(#paint15_linear_88_1732)" d="M331 19.3003L330.7 16.0003C330.6 14.3003 330.4 13.0003 330.2 11.9003C330 11.1003 329.8 10.5003 329.5 10.1003C329.1 9.50029 328.5 8.90029 327.6 8.20029C326.4 7.30029 325.5 6.60029 324.8 6.30029C324.1 6.10029 323.3 5.90029 322.2 5.80029C321.2 5.70029 320.4 5.70029 319.7 5.70029C318.5 5.80029 317.4 6.20029 316.4 6.90029C315.4 7.60029 314.6 8.50029 314 9.60029C313.5 10.5003 313.2 11.6003 312.9 12.9003C312.8 13.4003 312.7 14.5003 312.5 16.4003V16.5003C313.7 16.6003 314.9 16.7003 316.1 16.9003C315.8 16.3003 315.8 15.5003 316 14.5003C316.6 12.6003 317.6 11.3003 319.1 10.8003C319.8 10.6003 320.8 10.6003 322 10.8003C323.6 11.2003 324.8 11.8003 325.5 12.6003C326.4 13.7003 326.8 15.4003 326.8 17.8003C326.8 18.0003 326.8 18.3003 326.7 18.5003C328.3 18.7003 329.7 19.0003 331 19.3003Z"/><path fill="url(#paint16_linear_88_1732)" d="M318.7 536.9C318.9 536.8 319.2 536.8 319.6 536.7C321.7 536.5 323.9 536.5 326 536.6C327.4 536 328.8 535.3 330.1 534.6C331.8 533.7 333.5 532.7 335.1 531.6V515C330.4 519.4 324.9 522.9 318.6 525.5C314.6 527.2 310.4 528.4 306.1 529.1L306.2 529.2C303.7 529.6 301.2 529.8 298.7 529.9C298.4 529.9 298.1 530 297.8 530H295.8C288.6 529.7 281.6 528.2 275 525.6C267.4 522.6 261 518.4 255.8 513C255.6 512.7 255.3 512.5 255.1 512.2C254.1 513 253 513.6 251.9 514.2C252.1 514.2 252.2 514.3 252.4 514.4C252.3 514.4 252.2 514.4 252 514.5L251.9 514.6H252C253.5 515.7 254.8 516.6 255.7 517.4C255.8 517.4 255.9 517.3 255.9 517.3C256.9 518.2 257.7 519.1 258.6 520.2C260 522.1 261.2 524.4 262.2 527.1C263.2 529.8 263.9 532.5 264.3 535C265.5 535.6 266.7 536.2 267.9 536.8H317.4V536.9H318.7ZM252.9 514.4C253 514.3 253 514.3 253 514.3C253 514.3 253.1 514.4 253.1 514.5C253.1 514.4 253 514.4 252.9 514.4Z"/><path fill="url(#paint17_linear_88_1732)" d="M54.8 31.6003C55 32.2003 55.2 32.8003 55.2 33.2003C60.7 30.4003 66.9 28.7003 73.8 28.0003C80 27.4003 87.3 27.5003 95.8 28.5003C97.3 28.7003 98.6 28.9003 99.8 29.1003C101 29.3003 102.1 29.5003 103.1 29.7003C105.6 30.3003 107.8 31.0003 109.9 32.0003C110 31.8003 110.1 31.6003 110.1 31.3003C110.5 30.2003 110.6 28.9003 110.4 27.4003C110.3 26.5003 110 25.2003 109.6 23.5003C109.4 22.8003 109.4 22.2003 109.4 21.8003C109.4 21.7003 109.5 21.6003 109.5 21.4003L109.4 20.9003L109.5 20.1003C109.7 19.8003 109.8 19.6003 110 19.5003L110.2 19.4003C110.3 19.4003 110.3 19.3003 110.4 19.3003C110.7 19.1003 111.3 19.1003 112.3 19.1003C120.9 19.7003 129.4 18.9003 137.9 16.9003C146.4 14.9003 154.4 11.7003 161.8 7.40029C165.8 5.10029 168.9 2.60029 171.2 0.000292972H54.2C51.1 11.9003 51.3 22.4003 54.8 31.6003Z"/><path fill="url(#paint18_linear_88_1732)" d="M189.3 13.2003C189 15.0003 188.9 16.8003 188.9 18.7003C189.1 24.0003 190.6 28.6003 193.4 32.8003C194.3 34.2003 195.9 36.0003 198 38.3003C200.2 40.8003 201.8 42.6003 202.6 43.8003C204.5 46.4003 205.8 49.2003 206.8 52.2003C206.9 52.4003 206.9 52.6003 207 52.8003C207.2 52.8003 207.4 52.8003 207.7 52.9003C212 53.5003 217.1 53.6003 223.2 53.1003L228.6 52.7003C229.2 52.7003 229.6 52.7003 230 52.8003V40.8003C229.9 41.0003 229.7 41.1003 229.5 41.2003C229.1 41.4003 228.4 41.6003 227.5 41.7003C225.4 41.8003 223.6 41.6003 222.1 41.2003C220.2 40.7003 218.7 39.8003 217.6 38.5003C216.3 37.1003 215.6 35.5003 215.6 33.6003C215.6 33.3003 215.7 32.5003 215.9 31.1003L218.2 20.1003C218.6 18.0003 219 16.4003 219.6 15.2003C220.1 14.3003 220.6 13.7003 221.3 13.2003C222.7 12.0003 224.3 11.8003 226 12.4003C226.6 12.7003 227.1 13.0003 227.4 13.3003C227.9 13.7003 228.6 14.6003 229.3 16.0003L231.9 20.8003C233.6 24.0003 235 26.2003 236.1 27.6003C236.2 27.7003 236.3 27.9003 236.5 28.0003C245 23.5003 254.6 20.2003 265.4 18.1003C273.6 16.5003 282.7 15.7003 292.6 15.6003V15.5003C292.6 14.5003 292.6 13.0003 292.7 10.9003C292.1 8.50029 291.2 6.30029 289.9 4.10029C289.1 2.80029 288.1 1.30029 286.8 -0.199707H250.5C251.4 1.90029 251.5 3.90029 250.9 5.70029C250.3 7.40029 249.1 8.60029 247.4 9.60029C245.7 10.5003 244 10.8003 242.1 10.5003C238.8 10.1003 235.8 8.20029 233.2 4.80029C232 3.30029 231 1.60029 230.2 -0.199707H218.6C218.7 0.100293 218.8 0.300293 218.8 0.400293C219.2 2.10029 219.1 3.90029 218.4 5.60029C217.7 7.40029 216.6 8.70029 215.1 9.50029C213.2 10.5003 211.2 10.7003 209 10.2003C207 9.70029 205.2 8.70029 203.7 7.10029C201.8 5.30029 200.5 3.20029 199.7 0.600293C199.6 0.300293 199.6 0.100293 199.5 -0.199707H195.8C194.5 1.40029 193.5 2.80029 192.7 4.10029C190.9 7.10029 189.8 10.0003 189.3 13.2003Z"/><path fill="url(#paint19_linear_88_1732)" d="M210.4 64.5003C210.7 64.7003 211.2 64.9003 212 65.0003C214.3 65.4003 216 65.1003 217.2 64.2003C218.2 63.3003 218.8 62.0003 219 60.3003C219.1 59.3003 219.2 57.9003 219.1 56.1003H219C215.3 56.2003 212 56.1003 209.1 55.6003L207.6 55.3003C207.9 57.0003 208 58.7003 208 60.4003C208.2 61.1003 208.4 61.8003 208.8 62.5003C209.4 63.6003 209.9 64.2003 210.4 64.5003Z"/><path fill="url(#paint20_linear_88_1732)" d="M188.9 113C185.8 116.4 180.6 122.3 173.4 130.8L149.5 159.4C151.5 159.5 153.8 159.5 156.2 159.6C156.4 159.6 156.7 159.5 157 159.5C161.2 159.4 166.9 159.6 174.1 160.2C189.9 161.5 203.1 162.9 213.7 164.5C216.6 164.9 219.5 165.4 222.4 165.9C222.2 165.6 222 165.2 221.8 164.7C218.1 155 212.7 144.9 205.6 134.4C201.5 128.4 196 121.1 189.2 112.6C189.1 112.7 189 112.9 188.9 113Z"/><path fill="url(#paint21_linear_88_1732)" d="M223.6 64.6003C223.9 64.8003 224.5 65.0003 225.3 65.1003C226.2 65.2003 226.9 65.2003 227.6 65.0003C228.4 64.7003 228.9 64.3003 229.2 63.6003C229.3 63.4003 229.4 63.1003 229.5 62.7003C229.6 62.4003 229.7 62.2003 229.9 62.1003V59.8003C229.9 59.6003 230 59.5003 230.1 59.4003V55.3003C229.9 55.4003 229.6 55.4003 229.2 55.5003C226.3 55.8003 223.9 56.0003 221.8 56.2003C221.9 57.6003 222 58.8003 222 59.5003C222.1 61.1003 222.4 62.4003 222.8 63.4003C223 63.9003 223.3 64.3003 223.6 64.6003Z"/><path fill="url(#paint22_linear_88_1732)" d="M201.1 78.7003C203.5 79.5003 205.6 80.3003 207.4 81.1003C215.6 84.6003 223.1 89.1003 229.8 94.6003V72.7003C229 73.2003 228.4 73.6003 228 73.7003C227 74.1003 225.8 74.2003 224.4 74.2003C223.2 74.3003 221.4 74.3003 219.1 74.3003C215.9 74.3003 213.6 74.1003 212.1 73.8003C210.2 73.4003 208.4 72.6003 206.8 71.6003C206.3 71.3003 205.9 71.0003 205.7 70.5003C204.6 72.8003 203.2 74.9003 201.5 76.6003C201.5 76.7003 201.5 76.7003 201.6 76.8003C201.7 77.0003 201.8 77.2003 201.8 77.3003C201.8 77.5003 201.8 77.8003 201.7 78.0003L201.1 78.7003Z"/><path fill="url(#paint23_linear_88_1732)" d="M101.9 79.1003C101.9 79.2003 102 79.2003 102.1 79.3003C102 79.4003 101.9 79.4003 101.8 79.5003H101.5C101.3 79.5003 101.1 79.6003 101 79.6003C100.9 79.7003 100.8 79.8003 100.6 79.8003C100.5 79.8003 100.3 79.9003 100.2 79.9003C100.2 79.9003 100.1 80.0003 100 80.0003C99.8 80.0003 99.6 80.1003 99.5 80.1003C99.5 80.1003 99.4 80.1003 99.4 80.2003C99.3 80.1003 99.3 80.0003 99.2 79.9003C96.7 80.7003 94.1 81.6003 91.6 82.6003C91.5 82.6003 91.4 82.7003 91.2 82.7003C91.4 83.0003 92.1 83.9003 93.1 85.3003C94.8 87.7003 97.5 90.7003 101.1 94.5003L108.5 102.1C109 102.6 109.4 102.9 109.7 103.2C110 103.4 110.2 103.6 110.5 103.7C110.7 103.8 110.8 103.9 111 103.9C111.1 103.7 111.2 103.5 111.4 103.3C113.1 101.4 114.2 100.1 114.7 99.6003C115.4 98.8003 116.5 97.7003 118 96.2003C118.5 95.7003 119.2 94.9003 120 93.7003C121 92.6003 122.6 91.1003 124.7 89.2003C125.4 88.5003 126.7 87.2003 128.4 85.3003C129.9 83.6003 131.2 82.3003 132.2 81.4003L135.9 78.5003C137.8 77.1003 139.6 75.7003 141.4 74.2003C141.7 73.9003 142.1 73.7003 142.4 73.4003C138.2 73.6003 134.6 73.6003 131.8 73.7003C131.3 73.8003 130.8 73.8003 130.3 73.9003C130.3 74.0003 130.2 74.1003 130.2 74.2003C130.2 74.3003 130.1 74.4003 130 74.5003C129.6 74.4003 129.2 74.4003 128.8 74.3003C128.6 74.3003 128.5 74.3003 128.3 74.2003V74.1003C128.1 74.1003 127.9 74.1003 127.6 74.1003C127.4 74.1003 127.3 74.2003 127.1 74.2003C126.9 74.2003 126.7 74.3003 126.5 74.4003C126.3 74.4003 126.2 74.5003 126 74.5003H125.9C126 74.4003 126.2 74.3003 126.3 74.1003C118.2 75.1003 109.9 76.7003 101.9 79.1003Z"/><path fill="url(#paint24_linear_88_1732)" d="M161.6 73.8003C161.5 73.8003 161.4 73.8003 161.3 73.8003C158.9 73.6003 156.3 73.5003 153.5 73.4003C154 73.8003 154.5 74.2003 154.9 74.6003C155.1 74.6003 155.3 74.7003 155.5 74.7003C157.2 76.0003 158.9 77.4003 160.7 78.7003L164.4 81.6003C165.4 82.5003 166.7 83.8003 168.2 85.5003C169.9 87.4003 171.2 88.7003 171.9 89.4003C174.1 91.3003 175.7 92.8003 176.6 93.9003C177.5 95.1003 178.1 95.9003 178.6 96.4003C180.1 97.9003 181.2 99.0003 181.9 99.8003C182.3 100.2 183.1 101.1 184.2 102.3C184.2 102.4 184.2 102.4 184.2 102.5C185 103.6 186 104.6 186.9 105.6C187.9 106.4 188.6 107.1 189 107.7C189.1 107.8 189.2 107.9 189.3 108.1C189.4 108.2 189.5 108.4 189.6 108.5C190.3 107.8 191 107.1 191.7 106.4C191.8 106.4 191.8 106.3 191.9 106.3C192 106.2 192.1 106.2 192.2 106.1L195.1 103C195.1 103 195.1 102.9 195.2 102.9L195.3 102.8C200.1 98.1003 204.6 94.0003 208.9 90.5003L213.2 87.2003C210.2 85.7003 207 84.2003 203.5 82.9003C203.3 82.8003 203.2 82.8003 203 82.7003H202.9C202.8 82.7003 202.7 82.6003 202.5 82.6003C202.3 82.5003 202.1 82.5003 201.9 82.4003C201.7 82.3003 201.5 82.2003 201.2 82.2003C201.1 82.2003 201 82.1003 200.8 82.1003C200.7 82.1003 200.5 82.0003 200.4 81.9003C200.4 81.9003 200.4 81.9003 200.3 81.8003C200.3 81.8003 200.3 81.7003 200.4 81.7003C191.6 78.5003 182.6 76.3003 173.3 74.9003L173.6 75.2003C173.4 75.2003 173.1 75.2003 172.9 75.2003C171.9 75.2003 170.9 75.2003 169.9 75.2003L169.5 74.8003C169.4 74.7003 169.2 74.5003 169.1 74.4003C168.2 74.3003 167.3 74.2003 166.4 74.1003C166.3 74.1003 166.3 74.1003 166.2 74.1003C166 74.1003 165.8 74.1003 165.7 74.0003V73.9003C164.4 73.9003 163.2 73.9003 161.9 73.9003C161.7 73.9003 161.6 74.0003 161.4 74.0003L161.3 73.9003V73.8003H161.6Z"/><path fill="url(#paint25_linear_88_1732)" d="M86.2 30.9003C86.1 30.9003 86.1 30.8003 86.1 30.7003C83 30.6003 80.2 30.6003 77.7 30.8003C69.5 31.3003 62.3 33.0003 56.2 36.0003C56 36.3003 55.6 36.6003 55 36.9003C53.9 37.5003 52.9 38.3003 51.9 39.3003C50.5 40.7003 49.5 42.4003 48.9 44.3003C48.3 46.3003 48.2 48.2003 48.7 50.1003C48.9 50.8003 49.2 51.7003 49.7 52.6003L51.4 55.6003C52 56.5003 52.5 57.2003 52.9 57.5003C53.1 57.7003 53.8 57.9003 55 58.2003C55.5 58.3003 55.9 58.5003 56.3 58.7003C56.4 58.7003 56.5 58.6003 56.7 58.6003C59.5 57.7003 63.7 56.9003 69.2 56.2003C77.7 55.2003 84.9 54.8003 90.8 55.0003C98.3 55.3003 105 56.4003 110.8 58.4003C110.8 58.4003 110.8 58.3003 110.8 58.2003C111 58.3003 111.3 58.3003 111.5 58.4003C113 57.5003 114.2 56.3003 115.2 54.8003C116.3 53.2003 117 51.5003 117.3 49.7003C117.5 48.7003 117.5 47.7003 117.5 46.7003C117.5 44.8003 117.2 43.2003 116.7 41.9003C115.7 39.5003 113.6 37.4003 110.4 35.7003C106.4 33.5003 102.2 32.3003 97.6 32.1003H97.5C97.4 32.0003 97.4 32.0003 97.3 31.9003C97.2 31.9003 97.2 31.8003 97.1 31.8003C97 31.8003 97 31.7003 96.9 31.7003C96.8 31.7003 96.7 31.7003 96.5 31.6003C96.3 31.6003 96 31.5003 95.8 31.5003C95.6 31.4003 95.5 31.4003 95.3 31.3003C94.6 31.3003 93.9 31.2003 93.1 31.2003C92.9 31.2003 92.8 31.1003 92.6 31.1003V31.0003H86.2V30.9003Z"/><path fill="url(#paint26_linear_88_1732)" d="M15.3 72.1003C15.3 72.2003 15.3 72.3003 15.2 72.3003V75.9003C15.6 75.7003 16.1 75.5003 16.6 75.1003L35.6 62.7003C38.5 60.8003 40.7 59.4003 42.2 58.6003L43 58.2003C43.2 57.9003 43.5 57.6003 44 57.3003L45.5 56.5003C46 56.3003 46.6 55.8003 47.5 55.2003C47.5 55.2003 47.5 55.2003 47.6 55.1003C47.6 55.1003 47.5 55.0003 47.5 54.9003C47 54.0003 46.6 53.3003 46.4 52.6003C46.1 51.9003 45.9 51.2003 45.7 50.4003C45.5 50.4003 45.3 50.4003 45.1 50.5003C43.9 50.5003 42.7 50.6003 41.5 50.6003C37 50.6003 32.6 50.7003 28.1 50.7003H15.5V55.2003C15.5 55.2003 15.4 55.3003 15.4 55.4003V65.0003C15.4 65.1003 15.3 65.2003 15.3 65.2003V72.1003Z"/><path fill="url(#paint27_linear_88_1732)" d="M304.6 19.0003C304.6 19.0003 304.5 18.9003 304.4 18.9003C304.3 18.9003 304.3 18.8003 304.2 18.7003C304.1 18.7003 304.1 18.7003 304 18.6003C303.8 18.6003 303.7 18.5003 303.6 18.5003C303.5 18.4003 303.4 18.4003 303.3 18.3003H302.9V18.2003H301.4C301.2 18.2003 301.1 18.3003 300.9 18.3003C300.7 18.4003 300.6 18.5003 300.5 18.5003C300.4 18.6003 300.3 18.7003 300.2 18.7003C287.2 18.4003 275.8 19.2003 266 21.1003C253.4 23.5003 242.4 27.5003 233 33.1003C232.7 33.3003 232.4 33.4003 232.2 33.5003C232.2 33.5003 232.2 33.6003 232.3 33.6003C232.3 33.8003 232.4 33.9003 232.4 34.1003V37.2003C232.4 37.4003 232.5 37.5003 232.6 37.7003V59.5003C232.6 59.6003 232.7 59.8003 232.7 59.9003V97.0003C236.2 100.2 239.5 103.6 242.5 107.4C243.3 108.4 244.1 109.4 244.9 110.4V66.4003C244.9 66.2003 245 66.1003 245 65.9003V57.0003C245 57.0003 245 56.9003 245.1 56.8003C245.1 56.7003 245.1 56.6003 245.1 56.5003C245.1 56.4003 245.2 56.2003 245.2 56.0003V55.2003L245.3 55.0003V54.6003C245.3 54.1003 245.3 53.8003 245.4 53.5003L245.5 53.3003C245.4 52.7003 245.9 52.1003 246.9 51.6003C249.8 49.9003 254 48.5003 259.4 47.3003C270.9 44.7003 282.7 43.4003 294.7 43.4003C306.6 43.4003 318.4 44.7003 330 47.3003C330.7 47.5003 331.5 47.6003 332.2 47.8003C332.2 47.9003 332.2 48.0003 332.2 48.2003C333.2 48.5003 334.1 48.7003 335 49.0003V23.4003C333.9 23.1003 332.8 22.8003 331.7 22.5003C323.7 20.7003 314.7 19.5003 304.6 19.0003Z"/><path fill="url(#paint28_linear_88_1732)" d="M305.7 106.5C304 102.1 301.3 98.9003 297.4 96.9003C295.2 95.7003 292.9 95.1003 290.3 94.9003C287.8 94.7003 285.4 95.1003 283 95.8003C280.4 96.7003 278.2 98.0003 276.3 99.7003C275.3 100.6 274.5 101.5 273.8 102.6C271.9 105.2 270.9 108.3 270.7 111.7C270.5 115.1 271.3 118.2 272.9 120.9C274.7 124.2 277.4 126.6 281 128.1C280.8 128.2 280.7 128.3 280.5 128.4C279.3 129.2 278.4 130.3 277.7 131.5C277 132.8 276.7 134.2 276.8 135.6C276.8 136.8 277.2 138.1 277.8 139.6C278.4 141 279 142 279.6 142.6C280 143.1 280.8 143.6 281.8 144.1C282.9 144.7 283.8 145.1 284.4 145.3C285.6 145.7 286.8 145.7 288 145.5C290.4 145.1 292.6 143.9 294.5 141.9C295.2 141.2 295.7 140.6 296 140L296.6 138.3C296.9 137.2 297 136.5 297 136.2C297.2 133.8 296 131.5 293.6 129.3L293.5 129.2H293.6C296.4 128.5 298.9 127.2 301.1 125.4C303.4 123.5 305.1 121.2 306 118.6C307.4 114.8 307.3 110.7 305.7 106.5Z"/><path fill="url(#paint29_linear_88_1732)" d="M276 67.9003C275.4 67.3003 275 67.0003 274.6 66.8003C273.9 66.5003 273.2 66.4003 272.3 66.5003C271.3 66.6003 270.4 66.9003 269.6 67.4003C268.8 68.0003 268.2 68.7003 267.8 69.6003C267.4 70.7003 267.4 71.8003 267.9 73.0003C268.2 73.8003 268.6 74.4003 269.2 74.8003C270.4 75.8003 271.8 76.0003 273.4 75.6003C273.9 75.5003 274.5 75.2003 275.2 74.7003C275.8 74.3003 276.2 73.9003 276.6 73.3003C277.2 72.5003 277.3 71.6003 277.2 70.5003C277.1 69.7003 276.7 68.7003 276 67.9003Z"/><path fill="url(#paint30_linear_88_1732)" d="M273.8 186.4C275.4 186.7 276.8 186.5 278 185.7C279.4 185 280.2 183.8 280.4 182.3C280.6 181.4 280.4 180.4 279.9 179.1C279 176.9 277.8 175.7 276.2 175.4C275.5 175.3 274.4 175.5 272.9 176.1C272 176.5 271.2 176.9 270.8 177.3C269.9 178.1 269.5 179.4 269.4 181C269.3 181.9 269.4 182.8 269.7 183.4C270.3 185.1 271.7 186.1 273.8 186.4Z"/><path fill="url(#paint31_linear_88_1732)" d="M330.8 80.9003C330.5 80.5003 330.3 80.2003 330 80.0003C329.1 79.1003 328.1 78.3003 327.2 77.8003C325.9 77.3003 324.7 77.1003 323.6 77.3003L322.2 77.7003C321.4 77.9003 320.8 78.2003 320.4 78.4003C320 78.6003 319.4 79.1003 318.7 79.9003L317.7 81.1003C317.1 82.1003 316.8 83.3003 316.8 84.7003C316.7 86.0003 317 87.3003 317.6 88.4003C318.2 89.6003 319.1 90.5003 320.4 91.1003C321.1 91.4003 322.2 91.6003 323.5 91.7003C325.3 91.8003 326.7 91.6003 327.7 91.2003C329.1 90.6003 330.1 89.5003 330.8 88.0003C330.8 85.5003 330.8 83.2003 330.8 80.9003Z"/><path fill="url(#paint32_linear_88_1732)" d="M29.7 467.9C35 467.7 40.7 467.8 46.8 468C52 468.2 59.4 468.7 69 469.4L87.4 470.9C98.5 471.8 107.5 472.8 114.2 473.7C124 475 132.9 476.6 140.7 478.6C143.9 479.5 146.2 480.2 147.8 480.8C148.1 480.9 148.3 481.1 148.6 481.3L148.7 481.2C150.6 480.6 152.2 479.8 153.5 478.7C155 477.4 155.9 475.9 156.2 474.3C156.4 472.8 156.2 471.3 155.5 469.7C154.9 468.3 154 467 152.8 465.8C150.6 463.8 147.5 462 143.5 460.5C138.6 458.6 131.8 457 123 455.7C95.1 451.3 67 449.4 38.9 449.9H38.8C36.9 450.1 33.9 450.2 29.7 450.1C25.5 450.2 22.4 450.1 20.6 449.9H20.4C13.6 449.8 6.8 449.8 0 450V468.7C5.1 468.4 9.3 468.1 12.7 468C18.8 467.7 24.5 467.7 29.7 467.9Z"/><path fill="url(#paint33_linear_88_1732)" d="M281.8 271.5C285.6 273 289.5 273.2 293.5 272.2C296.3 271.5 298.8 270.2 301 268.4C303.3 266.5 305 264.3 305.9 261.6C307.3 257.8 307.2 253.7 305.6 249.5C303.9 245.1 301.2 241.9 297.3 239.9C295.1 238.8 292.8 238.1 290.2 237.9C287.7 237.7 285.3 238.1 282.9 238.8C280.3 239.7 278.1 241 276.2 242.7C275.2 243.6 274.4 244.5 273.7 245.6C271.8 248.2 270.8 251.3 270.6 254.7C270.4 258.1 271.2 261.2 272.8 263.9C274.8 267.5 277.8 270 281.8 271.5Z"/><path fill="url(#paint34_linear_88_1732)" d="M328.2 212.6C327.1 211.7 326 211.3 324.8 211.3C324 211.3 323 211.6 322 212.3C321 213 320.3 213.7 319.9 214.6C319.3 215.6 319.2 216.7 319.5 217.9C319.8 219.1 320.4 220.1 321.4 220.7C322.3 221.4 323.4 221.7 324.6 221.8C325.8 221.8 326.9 221.5 327.9 220.9C329.5 219.9 330.3 218.5 330.3 216.8C330.4 215.2 329.7 213.8 328.2 212.6Z"/><path fill="url(#paint35_linear_88_1732)" d="M142.9 490.7C141.5 492.9 141 495 141.4 497.1C141.6 498.2 142.2 499.3 143.1 500.4C145.5 500.4 148 500.4 150.9 500.6L157.4 501C161.4 500.9 166.7 501.1 173.3 501.7C173.6 501.7 173.9 501.7 174.2 501.8C190 503.1 203.2 504.5 213.8 506.1C226 507.9 237.1 510.2 247.3 513.1C247.5 513 247.8 512.9 248.1 512.7C252.5 511.3 255.9 508.3 258.4 503.9C260.6 500 261.6 495.6 261.4 490.5C261.2 486.6 260.4 482.9 258.8 479.3C258.2 477.8 257.4 476.5 256.6 475.2C256.4 475.1 256.2 475 256 474.8C255.7 474.6 255.4 474.2 255 473.7C253.2 471.2 251 469.3 248.2 467.7C247.3 467.2 246.7 466.8 246.5 466.5C246.3 466.3 246.2 466.1 246.2 465.9C246.1 465.9 246.1 465.8 246 465.8C233.3 462.5 219.3 459.8 204.1 457.9C192.9 456.5 179.3 455.3 163.3 454.3C162.9 454.4 162.5 454.4 162.1 454.3L155.5 454.1C148.8 453.9 143.5 453.8 139.8 453.9L140.3 455.9C140.4 456.2 140.4 456.4 140.5 456.6C142.3 457.1 143.9 457.7 145.4 458.3C147.2 459 148.8 459.7 150.3 460.6C152.4 462.3 154.4 464 156.4 465.8C157.1 466.8 157.8 467.9 158.2 469C159 470.9 159.3 472.8 159 474.6C158.7 477 157.6 479.1 155.7 481C153.8 482.8 151.6 483.8 149.2 484.2C149.2 484.4 149.1 484.6 149 484.8C148.8 485.3 148.3 485.8 147.6 486.3C145.5 487.7 143.9 489.2 142.9 490.7Z"/><path fill="url(#paint36_linear_88_1732)" d="M324.1 539.4C323.9 539.3 323.6 539.3 323.4 539.3C323.3 539.3 323.2 539.4 323.1 539.4C322.8 539.4 322.5 539.4 322.2 539.5C321.6 539.5 321 539.5 320.4 539.6C319.3 539.6 318.3 539.7 317.3 539.7H264.5C264.5 539.8 264.5 540 264.5 540.1H324.5C324.5 540 324.4 540 324.4 539.9C324.3 539.7 324.2 539.6 324.1 539.4Z"/><path fill="url(#paint37_linear_88_1732)" d="M261.6 537.3C261.6 537.2 261.5 537.1 261.5 537.1V536.9C261.5 536.8 261.4 536.7 261.4 536.7C261.4 536.7 261.4 536.6 261.3 536.6C261 533.4 260.1 530.4 258.9 527.4C258.1 525.5 257.1 523.7 255.9 522.1C255.7 522 255.6 521.9 255.4 521.7C255.3 521.6 255 521.2 254.6 520.7C254.2 520.2 253.3 519.5 251.8 518.4C251.1 517.9 250.3 517.3 249.5 516.6C249.4 516.6 249.3 516.5 249.2 516.5C248.5 516.3 247.7 516.1 246.9 515.9C246.6 515.9 246.4 515.8 246.2 515.7C245.6 515.5 245.1 515.4 244.5 515.2L207 508C206.5 507.9 206 507.8 205.5 507.8C205.1 507.7 204.6 507.7 204.2 507.6L166.4 504.2C165.4 504.2 164.3 504.1 163.3 504C163 504 162.6 504 162.2 504H160.6L146.7 504.1C146.8 504.2 146.8 504.2 146.9 504.3C150.5 507.5 153 510.5 154.4 513.2C155.3 515 156 516.9 156.4 519C156.9 522.1 156.7 525.2 155.8 528.4C154.9 531.5 153.3 534.2 151.2 536.5C149.6 538.2 148.1 539.4 146.4 540.1H261.4C261.4 540 261.5 539.9 261.5 539.9V537.3H261.6Z"/><path fill="url(#paint38_linear_88_1732)" d="M0 152.9C1.5 153.1 3 153.4 4.5 153.7C5.4 153.9 6.2 154.1 6.9 154.3C6.9 154.3 7 154.2 7 154.1C7.6 153 7.9 151.7 7.7 150.4C7.5 149 7 147.9 6.1 147C5.2 146 3.6 145.2 1.5 144.6C1.1 144.5 0.6 144.4 0.1 144.2V152.9H0Z"/><path fill="url(#paint39_linear_88_1732)" d="M325.4 540H328.9C328.1 539.8 327.2 539.7 326.4 539.6C326.1 539.7 325.8 539.9 325.4 540Z"/><path fill="url(#paint40_linear_88_1732)" d="M46.8 523C46.7 518.3 47.2 514.6 48.3 512.1C49 510.2 50.2 508.6 51.7 507.2C53.2 505.8 54.8 504.7 56.7 504C57.1 503.9 58.3 503.5 60.3 503C61.7 502.6 62.9 502.2 63.7 501.7C65.9 500.6 67.6 498.7 68.7 496C69.7 493.7 70.3 491.2 70.4 488.2C70.4 487.3 70.4 484.6 70.3 480.3C70.2 477.2 70.4 474.7 70.7 472.7L64.1 472.2C51.6 471.3 41.6 470.8 34.1 470.7C34.4 473.7 34.5 476.2 34.5 478.4C34.5 480.9 34.2 483 33.5 484.5C32.4 487 30.5 488.7 27.9 489.7C27.8 489.7 27.7 489.8 27.6 489.8C26.9 490.3 26.3 490.6 25.9 490.9C22.8 493.4 21.2 497.5 20.9 503.2C20.8 505 20.9 507.5 21.2 510.6C21.5 514.1 21.7 516.6 21.7 518C21.8 524 20.4 528.6 17.5 531.8C17.1 532.3 16.3 533 15.2 534C14.2 534.9 13.5 535.7 13.1 536.3C12.3 537.3 11.7 538.6 11.2 540H46.6C46.8 537.9 46.9 535.5 46.9 532.9C47.1 530.7 47 527.4 46.8 523Z"/><path fill="url(#paint41_linear_88_1732)" d="M5.2 519.7V516.6L5.3 516.5V515L5.4 514.9V514.6C5.4 514.1 5.3 513.1 5.2 511.6C5.1 510.3 5 509.3 4.8 508.5C4.3 505.9 3.3 503.4 1.7 501.1C1.2 500.4 0.6 499.7 0 499.1V540H5.2V519.8C5.2 519.7 5.2 519.7 5.2 519.7Z"/><path fill="url(#paint42_linear_88_1732)" d="M141.2 539.5C141.4 539.1 141.8 538.8 142.6 538.5C144.6 537.9 146.4 536.8 148 535.4C149.6 534 150.9 532.4 151.9 530.5C153.8 526.7 154.3 522.6 153.3 518.3C152.8 516.4 152.1 514.7 151.3 513.2C150.5 511.9 149.3 510.6 147.8 509.2C146 507.6 144.7 506.4 143.8 505.5C140.4 502.5 138.6 499.5 138.3 496.5C138.1 493.9 138.8 491.4 140.6 488.9C141.8 487.2 143.7 485.3 146.4 483.3C138.1 480.9 128.6 479 118.2 477.4C110.8 476.3 101 475.3 88.7 474.2L72.9 473V473.1L73.1 484.2C73.1 487.7 73 490.4 72.8 492.2C72.4 495.2 71.5 497.6 70.2 499.6C68.7 502 66.6 503.7 63.9 504.7C63.2 505 62.1 505.3 60.6 505.7C59.2 506.1 58.1 506.4 57.3 506.7C54.4 507.9 52.2 510 50.8 513C50 514.9 49.5 517.4 49.4 520.6C49.3 522.5 49.3 524.8 49.5 527.7C49.7 531.6 49.7 534 49.7 534.8C49.7 536.6 49.6 538.3 49.5 540H140.8C140.8 539.8 140.9 539.7 141 539.6C141.1 539.5 141.1 539.5 141.2 539.5Z"/><path fill="url(#paint43_linear_88_1732)" d="M314.3 164C313.4 164.2 312.5 164.7 311.6 165.4C311 165.8 310.3 166.5 309.3 167.5C308.9 167.9 308.5 168.4 308.2 168.9L307.6 170.4C306.9 173 307.1 175.5 308.3 177.8C309.5 180.3 311.4 181.8 314 182.4C314.8 182.6 316 182.7 317.7 182.7L319.8 182.5C321.5 182.2 323 181.3 324.4 179.7C326.1 177.8 327 175.6 327 173.1C326.9 170.7 326 168.7 324.3 167.1L322.5 165.6C321.6 165 321 164.6 320.7 164.5C319.8 164.1 318.4 163.9 316.4 163.9C315.4 163.8 314.7 163.9 314.3 164Z"/><path fill="url(#paint44_linear_88_1732)" d="M3.3 28.5003C2.1 29.2003 1.1 29.8003 0.4 30.1003C0.4 30.1003 0.5 30.2003 0.5 30.3003L8.9 40.1003C9.5 40.7003 9.8 41.2003 10 41.5003C10.5 42.4003 10.9 43.1003 11.3 43.6003C11.9 44.2003 12.3 44.6003 12.7 45.0003V29.7003C12.7 29.6003 12.8 29.5003 12.8 29.5003V24.2003C12.8 24.1003 12.9 24.0003 12.9 24.0003V22.9003C12.9 22.8003 12.9 22.7003 13 22.7003V22.6003C12.6 22.8003 12.2 23.0003 11.7 23.4003L3.3 28.5003Z"/><path fill="url(#paint45_linear_88_1732)" d="M0 156V165.1C2.3 165.3 4 165.5 5.2 165.8C5.7 166 6.1 166.1 6.3 166.3C6.5 166 6.9 165.7 7.5 165.4C8.7 164.6 9.4 163.4 9.5 162C9.6 160.5 9.1 159.3 8.1 158.4C7.3 157.7 5.8 157.1 3.7 156.7C2.5 156.4 1.3 156.2 0 156Z"/><path fill="url(#paint46_linear_88_1732)" d="M11.7 54.5003C11.3 55.4003 11 56.0003 10.8 56.4003C10.6 56.7003 10.2 57.3003 9.6 58.1003L1.4 68.5003C1.3 68.6003 1.2 68.7003 1.2 68.8003C1.8 69.1003 2.5 69.5003 3.3 70.0003L11.6 75.2003C12.1 75.5003 12.5 75.8003 12.9 76.0003V72.2003C12.9 72.1003 12.8 72.0003 12.8 72.0003V65.1003C12.8 65.0003 12.7 64.9003 12.7 64.9003V55.3003C12.7 55.2003 12.6 55.1003 12.6 55.1003V53.4003C12.2 53.9003 11.8 54.3003 11.7 54.5003Z"/><path fill="url(#paint47_linear_88_1732)" d="M3.4 177.8C4.3 175.4 4.8 173.3 4.9 171.5V169.5C4.9 169.1 4.9 168.8 5 168.4C4.7 168.4 4.3 168.4 3.9 168.3C2.7 168.2 1.4 168.1 0 168.1V179.1C1 178.5 1.9 178 2.6 177.8H3.4Z"/><path fill="url(#paint48_linear_88_1732)" d="M139.2 450.7C142.5 450.5 146.4 450.6 150.8 450.8L157.3 451.2C161.5 451.1 167.1 451.3 174.1 451.9C189.9 453.2 203.1 454.6 213.7 456.2C225.9 458 237 460.3 247.2 463.2C247.4 463.1 247.7 463 248 462.8C252.4 461.4 255.8 458.4 258.3 454C260.5 450.1 261.5 445.7 261.3 440.6C261.1 436.7 260.3 433 258.7 429.4C257.9 427.5 256.9 425.7 255.7 424.1C255.5 424 255.4 423.9 255.2 423.7C255.1 423.6 254.8 423.2 254.4 422.7C254 422.2 253.1 421.5 251.6 420.4C250.9 419.9 250.1 419.3 249.3 418.6C249.2 418.6 249.1 418.5 249 418.5C248.3 418.3 247.5 418.1 246.7 417.9C246.4 417.9 246.2 417.8 246 417.7C245.4 417.5 244.9 417.4 244.3 417.2L206.9 410.1C206.4 410 205.9 409.9 205.4 409.9C205 409.8 204.5 409.8 204.1 409.7L166.3 406.3C165.3 406.3 164.2 406.2 163.2 406.1C162.9 406.1 162.5 406.1 162.1 406.1H160.5L133.2 406.2C132.6 406.2 132.2 406.1 131.8 406C115.7 407 102 408.3 90.7 409.7C90.3 409.7 90 409.8 89.6 409.8L78.2 411.9L79.8 412.3C82.1 412.8 83.7 413.3 84.7 413.9C85.6 414.5 86.8 415.5 88.2 416.9C92.6 421.4 97.2 425.6 102 429.6C103.3 430.8 104.4 431.5 105.3 431.9C106.1 432.2 107.6 432.5 109.8 432.8C112.4 433.1 115.9 433.9 120.2 435.2C125.2 436.7 128.7 437.6 130.6 437.9C133.1 438.4 134.7 439 135.5 439.8C136.4 440.6 137 442.1 137.5 444.2L139.2 450.7Z"/><path fill="url(#paint49_linear_88_1732)" d="M40.5 370C41.1 369.6 42 369 43.2 368.2C43.8 367.7 44.2 367.4 44.4 367.3C44.3 367.2 44.3 367.2 44.2 367.1C41.9 366.1 39.7 364.6 37.7 362.6C35 360 33.1 356.8 31.9 353.2C31.2 351.1 30.8 349 30.6 346.9C30.2 347.6 29.9 348.3 29.4 348.9C28.9 349.6 28.2 350.5 27.3 351.7L25.5 353.8C23.8 355.7 21.8 357.1 19.5 358.1C19.4 358.1 19.3 358.2 19.2 358.2C24.3 366.8 28.8 374.5 32.9 381.3C32.9 381.3 32.9 381.2 33 381.2C33.8 378.9 34.8 376.9 36 375.2C37.1 373 38.6 371.3 40.5 370Z"/><path fill="url(#paint50_linear_88_1732)" d="M261.5 392.6C261.3 388.7 260.5 385 258.9 381.4C258.3 380.1 257.7 378.9 256.9 377.7C257.1 377.7 257.3 377.8 257.5 377.8C257.1 377.3 256.8 376.9 256.6 376.5L255.8 375.1C255.4 374.5 254.8 373.9 254 373.3C253 372.6 252.3 372.1 251.8 371.7C250.9 370.8 250.1 370.2 249.5 369.8C249.1 369.5 248.5 369.2 247.7 368.9C247.3 368.7 246.9 368.4 246.8 368.2C246.6 368.2 246.4 368.1 246.2 368C233.5 364.7 219.5 362 204.3 360.1C193.1 358.7 179.5 357.5 163.5 356.5C163.1 356.6 162.7 356.6 162.3 356.5L155.7 356.3C147 356.1 140.8 356 137.1 356.2C136.7 356.2 136.3 356.3 135.9 356.3C118.1 357.4 103.1 358.7 90.9 360.2C75.6 362.1 61.7 364.8 49 368.1C48.8 368.2 48.6 368.3 48.3 368.3C48.1 368.8 47.7 369.2 47.1 369.4C46.2 369.9 45.6 370.2 45.6 370.2L44.9 370.9C44.5 371.3 44 371.6 43.2 372.1C42.4 372.6 41.8 373 41.5 373.2L40.6 374.2C40.7 374.2 40.8 374.3 40.8 374.3C40.1 375.2 39.4 376.1 38.8 377L38.5 377.6C37.7 378.9 37 380.2 36.4 381.6C35.9 382.6 35.6 383.7 35.3 384.7C37.8 388.9 40.1 392.8 42.2 396.3L52.7 413.5C53.2 413.1 53.7 412.7 54.1 412.3C56 410.6 57.5 409.5 58.7 409.2C60 408.8 61.9 408.9 64.5 409.4L70.4 410.6L81.6 408.4C92.2 406.8 105.4 405.4 121.2 404.1L133.5 403.4H134.6C138.8 402.8 144.4 402.7 151.2 403L157.7 403.4C161.7 403.3 167 403.5 173.6 404.1C173.9 404.1 174.2 404.1 174.5 404.2C190.3 405.5 203.5 406.9 214.1 408.5C226.3 410.3 237.4 412.6 247.6 415.5C247.8 415.4 248.1 415.3 248.4 415.1C252.8 413.7 256.2 410.7 258.7 406.3C260.7 402.1 261.7 397.7 261.5 392.6Z"/><path fill="url(#paint51_linear_88_1732)" d="M4.2 412.4C5.1 410.3 6 408.7 6.9 407.5C7.1 407.2 7.4 406.9 7.7 406.6C7.3 403.2 6.2 399.9 4.2 396.7C3 394.8 1.6 393.1 0 391.6V420.2C0.1 420.2 0.2 420.3 0.3 420.3L4.2 412.4Z"/><path fill="url(#paint52_linear_88_1732)" d="M11.5 405.7C13.5 405.9 16.7 406.3 21.1 406.9C25.3 407.6 28.5 408 30.7 408.1C32.1 408.2 33 408.3 33.3 408.3C34.3 408.4 35.1 408.7 35.7 409C36.5 409.4 37.7 410.5 39.1 412.3C40.8 414.5 42.9 416.6 45.3 418.6C47 417.4 48.6 416.3 50.1 415.1C42.4 402.7 33.2 387.6 22.8 369.7C22.5 369.2 22.2 368.7 21.9 368.2C21.5 368.3 20.8 368.3 19.8 368C13.3 366.3 6.8 365.3 0.1 364.9V387.4C0.3 387.5 0.4 387.6 0.6 387.8C3.5 390.2 5.9 393 7.6 396.3C9.2 399.3 10.2 402.4 10.5 405.6C10.7 405.7 11.1 405.7 11.5 405.7Z"/><path fill="url(#paint53_linear_88_1732)" d="M255.1 136.3L254.4 137.2C250.5 142.3 246.2 147.1 241.6 151.6L225.8 166.2C225.6 166.2 225.3 166.2 225.1 166.1C225.1 166.2 225 166.2 225 166.3C230.5 167.3 235.7 168.4 240.8 169.7C241.5 169.1 242.8 168.2 244.5 167.1C246.2 165.9 247.5 164.9 248.4 164C249 163.2 249.6 162.6 249.9 162.3C250.2 161.9 250.8 161.5 251.5 160.9C252.5 160.1 253.6 158.8 254.8 157C256.2 155 257.2 153.7 257.9 153C258.3 152.6 258.7 152.3 259 152.2C258.8 150.8 258.6 149.4 258.3 147.9C257.5 143.9 256.4 140 255.1 136.3Z"/><path fill="url(#paint54_linear_88_1732)" d="M6.1 57.8003C7.1 56.6003 7.6 55.9003 7.6 55.9003L9 53.7003C9.4 53.1003 9.9 52.4003 10.5 51.6003L12.2 49.6003L12.3 49.5003C12.1 49.3003 11.9 49.0003 11.8 48.6003C11.4 48.0003 10.8 47.3003 9.8 46.3003C9.4 45.8003 8.8 45.0003 8.2 43.8003C7.7 42.9003 7.3 42.2003 6.9 41.7003C6.8 41.5003 6.6 41.4003 6.4 41.2003L0.2 34.3003V64.6003C0.2 64.7003 0.1 64.8003 0.1 64.8003V65.6003L3.6 61.0003C4.5 59.7003 5.3 58.6003 6.1 57.8003Z"/><path fill="url(#paint55_linear_88_1732)" d="M254.8 161.6L252 164.5C251.6 165 251.2 165.5 250.6 166C249 167.6 247.1 169.1 244.9 170.6C244.8 170.6 244.8 170.7 244.7 170.7C246.8 171.3 248.8 171.8 250.8 172.4C251.4 172.6 251.9 172.8 252.5 172.9C252.6 172.9 252.7 173 252.8 173C252.8 172.9 252.9 172.8 253 172.8C253 172.8 253 172.8 253.1 172.7C256.4 170.1 258.4 166.2 259.2 161.1C259.4 159.4 259.5 157.5 259.4 155.3C257.4 158.2 255.9 160.3 254.8 161.6Z"/><path fill="url(#paint56_linear_88_1732)" d="M261.5 342.8C261.3 338.9 260.5 335.2 258.9 331.6C258.1 329.7 257.1 327.9 255.9 326.3C255.7 326.2 255.6 326.1 255.4 325.9C255.3 325.8 255 325.4 254.6 324.9C254.2 324.4 253.3 323.7 251.8 322.6C251.1 322.1 250.3 321.5 249.5 320.8C249.4 320.8 249.3 320.7 249.2 320.7C248.5 320.5 247.7 320.3 246.9 320.1C246.6 320.1 246.4 320 246.2 319.9C245.6 319.7 245.1 319.6 244.5 319.4L207.1 312.3C206.6 312.2 206.1 312.1 205.6 312.1C205.2 312 204.7 312 204.3 311.9L166.5 308.5C165.5 308.5 164.4 308.4 163.4 308.3C163.1 308.3 162.7 308.3 162.3 308.3H160.7L133.4 308.4C132.8 308.4 132.4 308.3 132 308.2C115.9 309.2 102.2 310.5 90.9 311.9C90.5 311.9 90.2 312 89.8 312L50 319.5C49.6 319.6 49.3 319.7 48.9 319.8C48.7 319.9 48.5 319.9 48.2 320C48.2 320 48.1 320 48 320.1C47.8 320.3 47.5 320.4 47.2 320.6C45.9 321.3 44.9 321.8 44.2 322.1C43 322.7 42.1 323.3 41.4 323.9L40.2 324.7C40.2 324.7 40.1 324.7 40.1 324.8C38.5 326.8 37.2 329 36.1 331.5C34.6 335.1 33.7 338.8 33.5 342.7C33.3 347.8 34.3 352.2 36.5 356.1C39 360.5 42.4 363.5 46.8 364.9C47.1 365 47.4 365.1 47.6 365.3C57.8 362.5 68.9 360.1 81.1 358.3C91.7 356.7 104.9 355.3 120.7 354C126 353.6 130.5 353.3 134.1 353.3C138.3 352.7 143.9 352.6 150.7 352.9L157.2 353.3C161.4 353.2 167 353.4 174 354C189.8 355.3 203 356.7 213.6 358.3C225.8 360.1 236.9 362.5 247.1 365.3C247.3 365.2 247.6 365.1 247.9 364.9C252.3 363.5 255.7 360.5 258.2 356.1C260.7 352.3 261.7 347.9 261.5 342.8Z"/><path fill="url(#paint57_linear_88_1732)" d="M215.5 88.3003C215.4 88.4003 215.3 88.5003 215.2 88.6003C210.9 92.3003 207.7 95.1003 205.5 97.0003C201.7 100.3 198.6 103.2 196.1 105.6C195.7 106 195.3 106.4 194.9 106.8C193.8 107.9 192.7 109 191.5 110.1L191.4 110.2C191.3 110.3 191.2 110.4 191 110.6C197.8 118.7 203.6 126.4 208.4 133.6C215.1 143.7 220.5 153.6 224.4 163.5C229.6 158.9 234.9 153.9 240.3 148.6C242.6 146.4 244.2 144.8 245.3 143.6C247 141.7 249 139.3 251.2 136.4L253.8 133.2C253.8 133.2 253.8 133.2 253.9 133.1C251.1 125.9 247.4 119.1 242.7 112.6C235.2 102.3 226.1 94.2003 215.5 88.3003ZM224 102.1C224.2 101.6 224.4 101.2 224.8 100.9C225.2 100.6 225.6 100.4 226.1 100.4C227.3 100.6 228.2 101.2 228.9 102.4C229.3 103.1 229.4 103.8 229.1 104.4C229 104.6 228.8 104.9 228.5 105.2C227.9 105.6 227.3 105.8 226.5 105.7C225.8 105.7 225.1 105.4 224.6 104.9C224 104 223.7 103.1 224 102.1ZM231.8 126.6C231.1 127.2 230.4 127.4 229.7 127.3C229.4 127.3 228.8 127.1 227.9 126.8C227.2 126.4 226.7 126 226.5 125.7C226.1 125.1 226.1 124.4 226.3 123.6C226.3 123.2 226.5 122.9 226.8 122.5C227.5 121.7 228.3 121.5 229.4 121.7C230.1 121.9 230.9 122.3 231.7 123.1C232.4 123.8 232.7 124.4 232.6 125.1C232.6 125.7 232.3 126.2 231.8 126.6Z"/><path fill="url(#paint58_linear_88_1732)" d="M261.5 294.8C261.3 290.9 260.5 287.2 258.9 283.6C258.3 282.2 257.6 280.8 256.8 279.5C256.6 279.5 256.3 279.4 256.1 279.2C255.8 279 255.5 278.6 255.1 278.1C253.3 275.6 251.1 273.7 248.3 272.1C247.4 271.6 246.8 271.2 246.6 270.9C246.4 270.7 246.4 270.5 246.3 270.2C246.2 270.2 246.2 270.2 246.1 270.1C233.4 266.8 219.4 264.1 204.2 262.2C193 260.8 179.4 259.6 163.4 258.6C163 258.7 162.6 258.7 162.2 258.6L155.6 258.4C146.9 258.2 140.7 258.1 137 258.3C136.6 258.3 136.2 258.4 135.8 258.4C118 259.5 103 260.8 90.8 262.3C75.5 264.2 61.6 266.9 48.9 270.2C48.8 270.2 48.7 270.3 48.7 270.3C48.6 270.6 48.4 270.9 48 271.1C47.9 271.2 47.4 271.4 46.6 271.9C46.3 272.1 45.8 272.4 45.1 273L42 275.6C41.6 276.1 41.3 276.4 41.1 276.6C40.8 276.9 40.5 277.1 40.2 277.1C38.6 279.1 37.3 281.4 36.2 283.8C34.7 287.4 33.8 291.1 33.6 295C33.4 300.1 34.4 304.5 36.6 308.4C39.1 312.8 42.5 315.8 46.9 317.2C47.2 317.3 47.4 317.4 47.7 317.6C49 317.2 50.3 316.9 51.6 316.5L81.3 310.6C91.9 309 105.1 307.6 120.9 306.3L133.2 305.6H134.3C138.5 305 144.1 304.9 150.9 305.2L157.4 305.6C161.4 305.5 166.7 305.7 173.3 306.3C173.6 306.3 173.9 306.3 174.2 306.4C190 307.7 203.2 309.1 213.8 310.7C226 312.5 237.1 314.9 247.3 317.7C247.5 317.6 247.8 317.5 248.1 317.3C252.5 315.9 255.9 312.9 258.4 308.5C260.7 304.3 261.7 299.9 261.5 294.8Z"/><path fill="url(#paint59_linear_88_1732)" d="M258.9 185.8C258.3 184.5 257.7 183.3 257 182.1C255.8 180.2 254.4 178.4 252.9 176.7C252.8 176.7 252.7 176.6 252.7 176.5C252.3 176.8 251.6 176.8 250.6 176.6C249.5 176.3 248.7 176.1 248.1 176.1C247.2 176 246.3 176 245.6 176.2C244.7 176.4 243.9 176.9 243.2 177.6C242.5 178.3 242 179.1 241.8 180C241.2 181.8 241.4 183.6 242.4 185.5C242.5 185.7 243.1 186.7 244.4 188.6C245.8 190.7 246.5 192.9 246.4 195C246.4 196.2 246.1 197.3 245.6 198.3C245 199.4 244.3 200.3 243.4 200.8C242.4 201.4 241.2 201.8 239.6 201.9C238 202.1 236.6 202 235.4 201.5C234.6 201.1 233.7 200.6 232.9 200C231.8 199.3 230.9 198.4 230.1 197.3C229 196 228.3 194.4 228 192.6C227.7 190.9 227.8 189.1 228.2 187.4C228.2 187.2 228.6 186.2 229.4 184.3C229.9 183.1 230.2 182 230.2 181.2C230.2 179.9 230 178.6 229.4 177.1C228.4 174.6 227.1 172.8 225.4 171.8C224.4 171.4 223.7 171 223.3 170.8C223.2 170.8 223.2 170.7 223.1 170.7C222.9 170.7 222.6 170.6 222.3 170.5C221.8 170.2 221.5 170 221.3 169.8C219.9 169.3 218.9 168.9 218.4 168.3C213.8 167.6 209.1 166.9 204.3 166.3C194.3 165 182.3 163.9 168.4 163C168.2 163.2 167.9 163.3 167.6 163.4C166.4 163.7 165.6 163.9 165 164.1C164.1 164.4 163.3 164.7 162.7 165.2C161.7 165.9 161 166.9 160.6 168.2C160.2 169.5 160.2 170.7 160.7 171.9C160.9 172.5 161.5 173.4 162.4 174.7C163.5 176.2 164.4 178 165.1 179.9C165.8 181.7 166 183.2 165.8 184.4C165.6 185.5 164.9 186.6 163.8 187.7C161.8 189.6 159.3 190.7 156.5 190.9C153.7 191 151.2 190.2 149 188.5C146.8 186.7 145.7 184.6 145.7 182.3C145.7 180.8 146.3 179.1 147.5 177.3C148.4 176.1 148.8 175.1 148.7 174.5C148.7 173.8 148.3 173.2 147.5 172.7C146.8 172.3 146.1 172 145.2 172C144 171.9 143.2 172.2 142.7 172.9C142.5 173.2 142.4 173.6 142.4 174C142.4 174.6 142.3 174.9 142.3 175.2C142.3 176.1 141.9 176.9 141.4 177.7C140.9 178.4 140.2 179 139.4 179.4C137.9 180.2 136.2 180.5 134.2 180.2C132 179.9 130.4 179 129.4 177.5C128.4 176.1 128.1 174.2 128.5 171.9C128.5 171.5 128.6 171 128.8 170.2C128.9 169.5 128.9 168.9 128.9 168.4C128.7 167.4 128.2 166.6 127.2 165.9C126.4 165.3 125.5 164.9 124.4 164.5C123.6 164.3 123.1 163.9 122.9 163.6C122.9 163.6 122.9 163.5 122.9 163.4C110.7 164.3 100.1 165.3 91 166.5C90.9 167 90.5 167.7 89.9 168.4C88.6 169.7 87.8 170.6 87.3 171.1C86.4 172.2 85.8 173.2 85.4 174.2C84.9 175.5 84.7 176.9 85 178.4C85.2 179.5 85.9 181.2 87 183.4C88.1 185.5 88.7 187.2 88.8 188.4C88.9 189.6 88.7 190.8 88.1 192C87.6 193.2 86.8 194.1 85.8 194.8C84.8 195.5 83.6 195.9 82.4 196.1C81.1 196.2 79.9 196 78.7 195.6C77.5 195.1 76.5 194.3 75.6 193.2C74.6 192 73.8 190.7 73.4 189.2C73 187.7 73 186.2 73.4 184.8C73.5 184.5 73.7 183.8 74.2 182.7C74.5 181.8 74.7 181.1 74.8 180.6C75 178.7 74.4 177 73 175.4C71.9 174.2 70.4 173.1 68.5 172C67.6 171.5 67 170.9 66.9 170.3C59.6 171.8 52.6 173.4 46 175.2C45.3 175.4 44.5 175.6 43.8 175.8C43.6 175.9 43.4 175.9 43.3 176C43.1 176.2 43 176.4 42.8 176.6C42.1 177.3 41.4 178 40.8 178.7C39 180.9 37.5 183.4 36.3 186.1C34.8 189.7 33.9 193.4 33.7 197.3C33.5 202.4 34.5 206.8 36.7 210.7C39.2 215.1 42.6 218.1 47 219.5C47.3 219.6 47.5 219.7 47.8 219.8C49.1 219.5 50.4 219.1 51.7 218.8L81.4 212.9C92 211.3 105.2 209.9 121 208.6L133.4 207.9C133.7 207.9 134.1 207.9 134.4 207.8C138.6 207.2 144.2 207.1 151 207.4L157.5 207.8C161.5 207.7 166.8 207.9 173.4 208.5C173.7 208.5 174 208.5 174.3 208.6C190.1 209.9 203.3 211.3 213.9 212.9C226.1 214.7 237.2 217 247.4 219.8C247.6 219.7 247.9 219.6 248.2 219.5C252.6 218.1 256 215.1 258.5 210.7C260.7 206.8 261.7 202.4 261.5 197.3C261.3 193.1 260.5 189.4 258.9 185.8Z"/><path fill="url(#paint60_linear_88_1732)" d="M261.5 245C261.3 241.1 260.5 237.4 258.9 233.8C258.1 231.9 257.1 230.2 256 228.5C255.8 228.4 255.6 228.3 255.4 228.1C255.3 228 255 227.6 254.6 227.1C254.2 226.6 253.3 225.9 251.8 224.8C251.1 224.3 250.4 223.7 249.5 223C249.4 223 249.3 223 249.1 222.9C248.3 222.7 247.6 222.5 246.8 222.2C246.5 222.2 246.3 222.1 246.1 222C245.5 221.9 244.9 221.7 244.4 221.6L206.9 214.5C206.4 214.4 205.9 214.4 205.4 214.3C205 214.2 204.5 214.2 204.1 214.1L166.4 210.7C165.4 210.7 164.3 210.6 163.3 210.5C163 210.5 162.6 210.5 162.2 210.5L161.7 210.4C161.4 210.4 161 210.5 160.6 210.5L133.3 210.6C132.7 210.6 132.3 210.5 131.9 210.4C115.8 211.4 102.1 212.7 90.8 214.1C90.5 214.1 90.1 214.2 89.8 214.2L50 221.8C49.6 221.9 49.2 222 48.8 222.1C48.6 222.2 48.4 222.3 48.1 222.3H48C47.8 222.5 47.5 222.7 47.2 222.9C45.9 223.6 44.9 224.1 44.2 224.4C43 225 42.1 225.6 41.4 226.2L40.2 227C40.2 227 40.1 227 40.1 227.1C38.5 229.1 37.2 231.4 36.1 233.8C34.6 237.3 33.7 241 33.5 244.8C35.7 247.2 38.5 248.6 41.8 248.9C43.5 249.1 45.2 248.8 46.9 248.2C48.6 247.6 50.1 246.6 51.3 245.4C52 244.7 53 243.5 54.2 242C56.3 239.6 59 237.9 62.3 237.1C65.6 236.2 68.8 236.2 71.9 237.2C73.1 237.6 74.6 238.3 76.5 239.3C78.6 240.4 80.1 241.1 81.1 241.4C83.7 242.4 86.4 242.8 89 242.5C91.9 242.2 94.3 241.2 96.2 239.5C96.7 239.1 97.6 238.1 98.9 236.7C100 235.5 100.9 234.6 101.7 234.1C102.9 233.4 104.7 232.8 107.2 232.4C110.4 232 112.9 232 114.8 232.6C115.8 232.9 117 233.5 118.5 234.3C120.4 235.3 121.5 235.9 122.1 236.1C124.4 237.1 126.8 237.5 129.3 237.4C131.8 237.3 134.2 236.6 136.4 235.4C137.1 235 138.2 234.3 139.5 233.3C140.8 232.3 141.9 231.6 142.6 231.2C145.1 229.9 147.8 229.2 150.8 229.2C153.7 229.2 156.5 229.9 159.1 231.2C160 231.6 161.9 232.7 164.8 234.5C167.1 236 169.1 236.9 170.7 237.4C174.5 238.6 178.3 238.3 181.9 236.7C182.6 236.4 183.6 235.8 184.9 235C186.2 234.3 187.2 233.7 187.9 233.4C190 232.5 192.3 232.1 194.7 232.3C197.1 232.5 199.3 233.1 201.4 234.3C202.1 234.7 203.4 235.5 205.1 236.7C206.6 237.8 207.9 238.6 208.8 239.1C212 240.7 215.4 241 219 240C219.7 239.8 220.8 239.4 222.3 238.8C223.7 238.2 224.8 237.8 225.6 237.6C228.2 236.9 231 237 234 238C236.6 238.8 239.1 240.2 241.6 242.1C242.5 242.8 243.8 243.9 245.5 245.3C247 246.5 248.4 247.3 249.8 247.7C251.5 248.3 253.3 248.5 255.1 248.3C257 248.1 258.6 247.4 260.1 246.3C260.7 245.9 261.1 245.7 261.5 245.8C261.5 245.6 261.5 245.3 261.5 245Z"/></g><defs><linearGradient id="paint0_linear_88_1732" x1="167.55" x2="167.55" y1="-.2" y2="540.1" gradientUnits="userSpaceOnUse"><stop stop-color="currentColor" stop-opacity=".2"/><stop offset=".838" stop-color="currentColor" stop-opacity="0"/></linearGradient><linearGradient id="paint1_linear_88_1732" x1="167.55" x2="167.55" y1="-.2" y2="540.1" gradientUnits="userSpaceOnUse"><stop stop-color="currentColor" stop-opacity=".2"/><stop offset=".838" stop-color="currentColor" stop-opacity="0"/></linearGradient><linearGradient id="paint2_linear_88_1732" x1="167.55" x2="167.55" y1="-.2" y2="540.1" gradientUnits="userSpaceOnUse"><stop stop-color="currentColor" stop-opacity=".2"/><stop offset=".838" stop-color="currentColor" stop-opacity="0"/></linearGradient><linearGradient id="paint3_linear_88_1732" x1="167.55" x2="167.55" y1="-.2" y2="540.1" gradientUnits="userSpaceOnUse"><stop stop-color="currentColor" stop-opacity=".2"/><stop offset=".838" stop-color="currentColor" stop-opacity="0"/></linearGradient><linearGradient id="paint4_linear_88_1732" x1="167.55" x2="167.55" y1="-.2" y2="540.1" gradientUnits="userSpaceOnUse"><stop stop-color="currentColor" stop-opacity=".2"/><stop offset=".838" stop-color="currentColor" stop-opacity="0"/></linearGradient><linearGradient id="paint5_linear_88_1732" x1="167.55" x2="167.55" y1="-.2" y2="540.1" gradientUnits="userSpaceOnUse"><stop stop-color="currentColor" stop-opacity=".2"/><stop offset=".838" stop-color="currentColor" stop-opacity="0"/></linearGradient><linearGradient id="paint6_linear_88_1732" x1="167.55" x2="167.55" y1="-.2" y2="540.1" gradientUnits="userSpaceOnUse"><stop stop-color="currentColor" stop-opacity=".2"/><stop offset=".838" stop-color="currentColor" stop-opacity="0"/></linearGradient><linearGradient id="paint7_linear_88_1732" x1="167.55" x2="167.55" y1="-.2" y2="540.1" gradientUnits="userSpaceOnUse"><stop stop-color="currentColor" stop-opacity=".2"/><stop offset=".838" stop-color="currentColor" stop-opacity="0"/></linearGradient><linearGradient id="paint8_linear_88_1732" x1="167.55" x2="167.55" y1="-.2" y2="540.1" gradientUnits="userSpaceOnUse"><stop stop-color="currentColor" stop-opacity=".2"/><stop offset=".838" stop-color="currentColor" stop-opacity="0"/></linearGradient><linearGradient id="paint9_linear_88_1732" x1="167.55" x2="167.55" y1="-.2" y2="540.1" gradientUnits="userSpaceOnUse"><stop stop-color="currentColor" stop-opacity=".2"/><stop offset=".838" stop-color="currentColor" stop-opacity="0"/></linearGradient><linearGradient id="paint10_linear_88_1732" x1="167.55" x2="167.55" y1="-.2" y2="540.1" gradientUnits="userSpaceOnUse"><stop stop-color="currentColor" stop-opacity=".2"/><stop offset=".838" stop-color="currentColor" stop-opacity="0"/></linearGradient><linearGradient id="paint11_linear_88_1732" x1="167.55" x2="167.55" y1="-.2" y2="540.1" gradientUnits="userSpaceOnUse"><stop stop-color="currentColor" stop-opacity=".2"/><stop offset=".838" stop-color="currentColor" stop-opacity="0"/></linearGradient><linearGradient id="paint12_linear_88_1732" x1="167.55" x2="167.55" y1="-.2" y2="540.1" gradientUnits="userSpaceOnUse"><stop stop-color="currentColor" stop-opacity=".2"/><stop offset=".838" stop-color="currentColor" stop-opacity="0"/></linearGradient><linearGradient id="paint13_linear_88_1732" x1="167.55" x2="167.55" y1="-.2" y2="540.1" gradientUnits="userSpaceOnUse"><stop stop-color="currentColor" stop-opacity=".2"/><stop offset=".838" stop-color="currentColor" stop-opacity="0"/></linearGradient><linearGradient id="paint14_linear_88_1732" x1="167.55" x2="167.55" y1="-.2" y2="540.1" gradientUnits="userSpaceOnUse"><stop stop-color="currentColor" stop-opacity=".2"/><stop offset=".838" stop-color="currentColor" stop-opacity="0"/></linearGradient><linearGradient id="paint15_linear_88_1732" x1="167.55" x2="167.55" y1="-.2" y2="540.1" gradientUnits="userSpaceOnUse"><stop stop-color="currentColor" stop-opacity=".2"/><stop offset=".838" stop-color="currentColor" stop-opacity="0"/></linearGradient><linearGradient id="paint16_linear_88_1732" x1="167.55" x2="167.55" y1="-.2" y2="540.1" gradientUnits="userSpaceOnUse"><stop stop-color="currentColor" stop-opacity=".2"/><stop offset=".838" stop-color="currentColor" stop-opacity="0"/></linearGradient><linearGradient id="paint17_linear_88_1732" x1="167.55" x2="167.55" y1="-.2" y2="540.1" gradientUnits="userSpaceOnUse"><stop stop-color="currentColor" stop-opacity=".2"/><stop offset=".838" stop-color="currentColor" stop-opacity="0"/></linearGradient><linearGradient id="paint18_linear_88_1732" x1="167.55" x2="167.55" y1="-.2" y2="540.1" gradientUnits="userSpaceOnUse"><stop stop-color="currentColor" stop-opacity=".2"/><stop offset=".838" stop-color="currentColor" stop-opacity="0"/></linearGradient><linearGradient id="paint19_linear_88_1732" x1="167.55" x2="167.55" y1="-.2" y2="540.1" gradientUnits="userSpaceOnUse"><stop stop-color="currentColor" stop-opacity=".2"/><stop offset=".838" stop-color="currentColor" stop-opacity="0"/></linearGradient><linearGradient id="paint20_linear_88_1732" x1="167.55" x2="167.55" y1="-.2" y2="540.1" gradientUnits="userSpaceOnUse"><stop stop-color="currentColor" stop-opacity=".2"/><stop offset=".838" stop-color="currentColor" stop-opacity="0"/></linearGradient><linearGradient id="paint21_linear_88_1732" x1="167.55" x2="167.55" y1="-.2" y2="540.1" gradientUnits="userSpaceOnUse"><stop stop-color="currentColor" stop-opacity=".2"/><stop offset=".838" stop-color="currentColor" stop-opacity="0"/></linearGradient><linearGradient id="paint22_linear_88_1732" x1="167.55" x2="167.55" y1="-.2" y2="540.1" gradientUnits="userSpaceOnUse"><stop stop-color="currentColor" stop-opacity=".2"/><stop offset=".838" stop-color="currentColor" stop-opacity="0"/></linearGradient><linearGradient id="paint23_linear_88_1732" x1="167.55" x2="167.55" y1="-.2" y2="540.1" gradientUnits="userSpaceOnUse"><stop stop-color="currentColor" stop-opacity=".2"/><stop offset=".838" stop-color="currentColor" stop-opacity="0"/></linearGradient><linearGradient id="paint24_linear_88_1732" x1="167.55" x2="167.55" y1="-.2" y2="540.1" gradientUnits="userSpaceOnUse"><stop stop-color="currentColor" stop-opacity=".2"/><stop offset=".838" stop-color="currentColor" stop-opacity="0"/></linearGradient><linearGradient id="paint25_linear_88_1732" x1="167.55" x2="167.55" y1="-.2" y2="540.1" gradientUnits="userSpaceOnUse"><stop stop-color="currentColor" stop-opacity=".2"/><stop offset=".838" stop-color="currentColor" stop-opacity="0"/></linearGradient><linearGradient id="paint26_linear_88_1732" x1="167.55" x2="167.55" y1="-.2" y2="540.1" gradientUnits="userSpaceOnUse"><stop stop-color="currentColor" stop-opacity=".2"/><stop offset=".838" stop-color="currentColor" stop-opacity="0"/></linearGradient><linearGradient id="paint27_linear_88_1732" x1="167.55" x2="167.55" y1="-.2" y2="540.1" gradientUnits="userSpaceOnUse"><stop stop-color="currentColor" stop-opacity=".2"/><stop offset=".838" stop-color="currentColor" stop-opacity="0"/></linearGradient><linearGradient id="paint28_linear_88_1732" x1="167.55" x2="167.55" y1="-.2" y2="540.1" gradientUnits="userSpaceOnUse"><stop stop-color="currentColor" stop-opacity=".2"/><stop offset=".838" stop-color="currentColor" stop-opacity="0"/></linearGradient><linearGradient id="paint29_linear_88_1732" x1="167.55" x2="167.55" y1="-.2" y2="540.1" gradientUnits="userSpaceOnUse"><stop stop-color="currentColor" stop-opacity=".2"/><stop offset=".838" stop-color="currentColor" stop-opacity="0"/></linearGradient><linearGradient id="paint30_linear_88_1732" x1="167.55" x2="167.55" y1="-.2" y2="540.1" gradientUnits="userSpaceOnUse"><stop stop-color="currentColor" stop-opacity=".2"/><stop offset=".838" stop-color="currentColor" stop-opacity="0"/></linearGradient><linearGradient id="paint31_linear_88_1732" x1="167.55" x2="167.55" y1="-.2" y2="540.1" gradientUnits="userSpaceOnUse"><stop stop-color="currentColor" stop-opacity=".2"/><stop offset=".838" stop-color="currentColor" stop-opacity="0"/></linearGradient><linearGradient id="paint32_linear_88_1732" x1="167.55" x2="167.55" y1="-.2" y2="540.1" gradientUnits="userSpaceOnUse"><stop stop-color="currentColor" stop-opacity=".2"/><stop offset=".838" stop-color="currentColor" stop-opacity="0"/></linearGradient><linearGradient id="paint33_linear_88_1732" x1="167.55" x2="167.55" y1="-.2" y2="540.1" gradientUnits="userSpaceOnUse"><stop stop-color="currentColor" stop-opacity=".2"/><stop offset=".838" stop-color="currentColor" stop-opacity="0"/></linearGradient><linearGradient id="paint34_linear_88_1732" x1="167.55" x2="167.55" y1="-.2" y2="540.1" gradientUnits="userSpaceOnUse"><stop stop-color="currentColor" stop-opacity=".2"/><stop offset=".838" stop-color="currentColor" stop-opacity="0"/></linearGradient><linearGradient id="paint35_linear_88_1732" x1="167.55" x2="167.55" y1="-.2" y2="540.1" gradientUnits="userSpaceOnUse"><stop stop-color="currentColor" stop-opacity=".2"/><stop offset=".838" stop-color="currentColor" stop-opacity="0"/></linearGradient><linearGradient id="paint36_linear_88_1732" x1="167.55" x2="167.55" y1="-.2" y2="540.1" gradientUnits="userSpaceOnUse"><stop stop-color="currentColor" stop-opacity=".2"/><stop offset=".838" stop-color="currentColor" stop-opacity="0"/></linearGradient><linearGradient id="paint37_linear_88_1732" x1="167.55" x2="167.55" y1="-.2" y2="540.1" gradientUnits="userSpaceOnUse"><stop stop-color="currentColor" stop-opacity=".2"/><stop offset=".838" stop-color="currentColor" stop-opacity="0"/></linearGradient><linearGradient id="paint38_linear_88_1732" x1="167.55" x2="167.55" y1="-.2" y2="540.1" gradientUnits="userSpaceOnUse"><stop stop-color="currentColor" stop-opacity=".2"/><stop offset=".838" stop-color="currentColor" stop-opacity="0"/></linearGradient><linearGradient id="paint39_linear_88_1732" x1="167.55" x2="167.55" y1="-.2" y2="540.1" gradientUnits="userSpaceOnUse"><stop stop-color="currentColor" stop-opacity=".2"/><stop offset=".838" stop-color="currentColor" stop-opacity="0"/></linearGradient><linearGradient id="paint40_linear_88_1732" x1="167.55" x2="167.55" y1="-.2" y2="540.1" gradientUnits="userSpaceOnUse"><stop stop-color="currentColor" stop-opacity=".2"/><stop offset=".838" stop-color="currentColor" stop-opacity="0"/></linearGradient><linearGradient id="paint41_linear_88_1732" x1="167.55" x2="167.55" y1="-.2" y2="540.1" gradientUnits="userSpaceOnUse"><stop stop-color="currentColor" stop-opacity=".2"/><stop offset=".838" stop-color="currentColor" stop-opacity="0"/></linearGradient><linearGradient id="paint42_linear_88_1732" x1="167.55" x2="167.55" y1="-.2" y2="540.1" gradientUnits="userSpaceOnUse"><stop stop-color="currentColor" stop-opacity=".2"/><stop offset=".838" stop-color="currentColor" stop-opacity="0"/></linearGradient><linearGradient id="paint43_linear_88_1732" x1="167.55" x2="167.55" y1="-.2" y2="540.1" gradientUnits="userSpaceOnUse"><stop stop-color="currentColor" stop-opacity=".2"/><stop offset=".838" stop-color="currentColor" stop-opacity="0"/></linearGradient><linearGradient id="paint44_linear_88_1732" x1="167.55" x2="167.55" y1="-.2" y2="540.1" gradientUnits="userSpaceOnUse"><stop stop-color="currentColor" stop-opacity=".2"/><stop offset=".838" stop-color="currentColor" stop-opacity="0"/></linearGradient><linearGradient id="paint45_linear_88_1732" x1="167.55" x2="167.55" y1="-.2" y2="540.1" gradientUnits="userSpaceOnUse"><stop stop-color="currentColor" stop-opacity=".2"/><stop offset=".838" stop-color="currentColor" stop-opacity="0"/></linearGradient><linearGradient id="paint46_linear_88_1732" x1="167.55" x2="167.55" y1="-.2" y2="540.1" gradientUnits="userSpaceOnUse"><stop stop-color="currentColor" stop-opacity=".2"/><stop offset=".838" stop-color="currentColor" stop-opacity="0"/></linearGradient><linearGradient id="paint47_linear_88_1732" x1="167.55" x2="167.55" y1="-.2" y2="540.1" gradientUnits="userSpaceOnUse"><stop stop-color="currentColor" stop-opacity=".2"/><stop offset=".838" stop-color="currentColor" stop-opacity="0"/></linearGradient><linearGradient id="paint48_linear_88_1732" x1="167.55" x2="167.55" y1="-.2" y2="540.1" gradientUnits="userSpaceOnUse"><stop stop-color="currentColor" stop-opacity=".2"/><stop offset=".838" stop-color="currentColor" stop-opacity="0"/></linearGradient><linearGradient id="paint49_linear_88_1732" x1="167.55" x2="167.55" y1="-.2" y2="540.1" gradientUnits="userSpaceOnUse"><stop stop-color="currentColor" stop-opacity=".2"/><stop offset=".838" stop-color="currentColor" stop-opacity="0"/></linearGradient><linearGradient id="paint50_linear_88_1732" x1="167.55" x2="167.55" y1="-.2" y2="540.1" gradientUnits="userSpaceOnUse"><stop stop-color="currentColor" stop-opacity=".2"/><stop offset=".838" stop-color="currentColor" stop-opacity="0"/></linearGradient><linearGradient id="paint51_linear_88_1732" x1="167.55" x2="167.55" y1="-.2" y2="540.1" gradientUnits="userSpaceOnUse"><stop stop-color="currentColor" stop-opacity=".2"/><stop offset=".838" stop-color="currentColor" stop-opacity="0"/></linearGradient><linearGradient id="paint52_linear_88_1732" x1="167.55" x2="167.55" y1="-.2" y2="540.1" gradientUnits="userSpaceOnUse"><stop stop-color="currentColor" stop-opacity=".2"/><stop offset=".838" stop-color="currentColor" stop-opacity="0"/></linearGradient><linearGradient id="paint53_linear_88_1732" x1="167.55" x2="167.55" y1="-.2" y2="540.1" gradientUnits="userSpaceOnUse"><stop stop-color="currentColor" stop-opacity=".2"/><stop offset=".838" stop-color="currentColor" stop-opacity="0"/></linearGradient><linearGradient id="paint54_linear_88_1732" x1="167.55" x2="167.55" y1="-.2" y2="540.1" gradientUnits="userSpaceOnUse"><stop stop-color="currentColor" stop-opacity=".2"/><stop offset=".838" stop-color="currentColor" stop-opacity="0"/></linearGradient><linearGradient id="paint55_linear_88_1732" x1="167.55" x2="167.55" y1="-.2" y2="540.1" gradientUnits="userSpaceOnUse"><stop stop-color="currentColor" stop-opacity=".2"/><stop offset=".838" stop-color="currentColor" stop-opacity="0"/></linearGradient><linearGradient id="paint56_linear_88_1732" x1="167.55" x2="167.55" y1="-.2" y2="540.1" gradientUnits="userSpaceOnUse"><stop stop-color="currentColor" stop-opacity=".2"/><stop offset=".838" stop-color="currentColor" stop-opacity="0"/></linearGradient><linearGradient id="paint57_linear_88_1732" x1="167.55" x2="167.55" y1="-.2" y2="540.1" gradientUnits="userSpaceOnUse"><stop stop-color="currentColor" stop-opacity=".2"/><stop offset=".838" stop-color="currentColor" stop-opacity="0"/></linearGradient><linearGradient id="paint58_linear_88_1732" x1="167.55" x2="167.55" y1="-.2" y2="540.1" gradientUnits="userSpaceOnUse"><stop stop-color="currentColor" stop-opacity=".2"/><stop offset=".838" stop-color="currentColor" stop-opacity="0"/></linearGradient><linearGradient id="paint59_linear_88_1732" x1="167.55" x2="167.55" y1="-.2" y2="540.1" gradientUnits="userSpaceOnUse"><stop stop-color="currentColor" stop-opacity=".2"/><stop offset=".838" stop-color="currentColor" stop-opacity="0"/></linearGradient><linearGradient id="paint60_linear_88_1732" x1="167.55" x2="167.55" y1="-.2" y2="540.1" gradientUnits="userSpaceOnUse"><stop stop-color="currentColor" stop-opacity=".2"/><stop offset=".838" stop-color="currentColor" stop-opacity="0"/></linearGradient><clipPath id="clip0_88_1732"><rect width="335" height="540" fill="#fff"/></clipPath></defs></svg>