<?xml version="1.0" encoding="utf-8"?>
<!-- Generator: Adobe Illustrator 26.5.0, SVG Export Plug-In . SVG Version: 6.00 Build 0)  -->
<svg version="1.1" id="Layer_1" xmlns="http://www.w3.org/2000/svg" xmlns:xlink="http://www.w3.org/1999/xlink" x="0px" y="0px"
	 viewBox="0 0 20 20" style="enable-background:new 0 0 20 20;" xml:space="preserve">
<style type="text/css">
	.st0{fill-rule:evenodd;clip-rule:evenodd;}
</style>
<path class="st0" d="M10,19c5,0,9-4,9-9c0-5-4-9-9-9c-5,0-9,4-9,9C1,15,5,19,10,19z M8,3l0.7,8h2.7L12,3H8z M8,15c0-1.1,0.9-2,2-2
	c1.1,0,2,0.9,2,2s-0.9,2-2,2C8.9,17,8,16.1,8,15z"/>
</svg>
