<?xml version="1.0" encoding="utf-8"?>
<!-- Generator: Adobe Illustrator 26.5.0, SVG Export Plug-In . SVG Version: 6.00 Build 0)  -->
<svg version="1.1" id="Layer_1" xmlns="http://www.w3.org/2000/svg" xmlns:xlink="http://www.w3.org/1999/xlink" x="0px" y="0px"
	 viewBox="0 0 20 20" style="enable-background:new 0 0 20 20;" xml:space="preserve">
<style type="text/css">
	.st0{fill-rule:evenodd;clip-rule:evenodd;}
</style>
<path class="st0" d="M14.2,4.8c0.7-0.5,1.6-0.4,2.1,0.3L20,10l-3.7,4.9c-0.5,0.7-1.4,0.8-2.1,0.3c-0.7-0.5-0.8-1.4-0.3-2.1l1.2-1.6
	l-7.6,0C6.7,11.5,6,10.8,6,10c0-0.8,0.7-1.5,1.5-1.5l7.6,0l-1.2-1.6C13.4,6.2,13.6,5.3,14.2,4.8z"/>
<path class="st0" d="M1,4.5C1,2.6,2.6,1,4.5,1h4C10.4,1,12,2.6,12,4.5v1C12,6.3,11.3,7,10.5,7C9.7,7,9,6.3,9,5.5v-1
	C9,4.2,8.8,4,8.5,4h-4C4.2,4,4,4.2,4,4.5v11C4,15.8,4.2,16,4.5,16h4C8.8,16,9,15.8,9,15.5v-1c0-0.8,0.7-1.5,1.5-1.5
	c0.8,0,1.5,0.7,1.5,1.5v1c0,1.9-1.6,3.5-3.5,3.5h-4C2.6,19,1,17.4,1,15.5V4.5z"/>
</svg>
