<svg xmlns="http://www.w3.org/2000/svg" xmlns:xlink="http://www.w3.org/1999/xlink" id="Layer_1" x="0" y="0" version="1.1" viewBox="0 0 20 20" style="enable-background:new 0 0 20 20" xml:space="preserve"><path d="M10.5,2C9.7,2,9,2.7,9,3.5S9.7,5,10.5,5h2.4L9.9,7.9c-0.6,0.6-0.6,1.5,0,2.1c0.6,0.6,1.5,0.6,2.1,0L15,7.1v2.4	c0,0.8,0.7,1.5,1.5,1.5S18,10.3,18,9.5V2H10.5z"/><path d="M8.5,19c0.8,0,1.5-0.7,1.5-1.5S9.3,16,8.5,16H6.1l2.9-2.9c0.6-0.6,0.6-1.5,0-2.1c-0.6-0.6-1.5-0.6-2.1,0L4,13.9v-2.4	C4,10.7,3.3,10,2.5,10S1,10.7,1,11.5V19H8.5z"/></svg>