<svg xmlns="http://www.w3.org/2000/svg" xmlns:xlink="http://www.w3.org/1999/xlink" id="Layer_1" x="0" y="0" version="1.1" viewBox="0 0 400 400" style="enable-background:new 0 0 400 400" xml:space="preserve"><style type="text/css">.st0{fill-rule:evenodd;clip-rule:evenodd}</style>
<path style="opacity:0.98" d="M 179.5,-0.5 C 192.833,-0.5 206.167,-0.5 219.5,-0.5C 253.944,3.70594 285.61,15.5393 314.5,35C 322.815,41.2005 324.648,49.0338 320,58.5C 314.996,65.0233 308.496,67.19 300.5,65C 291.199,59.6805 281.865,54.3472 272.5,49C 216.954,24.4695 162.954,27.4695 110.5,58C 56.411,95.0103 30.5777,146.51 33,212.5C 34.3532,230.912 38.6865,248.579 46,265.5C 51.5854,277.678 57.9187,289.344 65,300.5C 67.3545,313.292 62.1878,320.625 49.5,322.5C 43.1073,322.597 38.274,319.931 35,314.5C 15.5388,285.609 3.7055,253.942 -0.5,219.5C -0.5,206.167 -0.5,192.833 -0.5,179.5C 10.2365,102.847 50.5699,48.0137 120.5,15C 139.59,7.14572 159.256,1.97905 179.5,-0.5 Z"/>
<path style="opacity:0.968" d="M 348.5,79.5 C 354.265,78.9772 359.265,80.6439 363.5,84.5C 395.735,131.502 406.569,183.169 396,239.5C 390.239,268.513 378.406,294.68 360.5,318C 352.487,322.632 344.987,321.799 338,315.5C 334.107,309.942 333.107,303.942 335,297.5C 376.366,232.689 376.699,167.689 336,102.5C 333.631,91.0855 337.798,83.4188 348.5,79.5 Z"/>
<path style="opacity:0.984" d="M 128.5,98.5 C 175.833,98.5 223.167,98.5 270.5,98.5C 270.5,112.5 270.5,126.5 270.5,140.5C 240.833,140.5 211.167,140.5 181.5,140.5C 181.5,152.5 181.5,164.5 181.5,176.5C 205.5,176.5 229.5,176.5 253.5,176.5C 253.5,191.167 253.5,205.833 253.5,220.5C 229.5,220.5 205.5,220.5 181.5,220.5C 181.5,232.833 181.5,245.167 181.5,257.5C 211.167,257.5 240.833,257.5 270.5,257.5C 270.5,271.833 270.5,286.167 270.5,300.5C 223.167,300.5 175.833,300.5 128.5,300.5C 128.5,233.167 128.5,165.833 128.5,98.5 Z"/>
<path style="opacity:0.971" d="M 219.5,399.5 C 206.167,399.5 192.833,399.5 179.5,399.5C 146.351,395.393 115.685,384.226 87.5,366C 76.7739,356 77.1072,346.334 88.5,337C 94.1667,335 99.8333,335 105.5,337C 158.511,370.468 213.845,374.801 271.5,350C 279.163,346.171 286.496,341.837 293.5,337C 308.393,330.447 317.727,335.113 321.5,351C 320.734,356.2 318.401,360.533 314.5,364C 285.626,383.456 253.96,395.289 219.5,399.5 Z"/>
</svg>
