<?xml version="1.0" encoding="utf-8"?>
<!-- Generator: Adobe Illustrator 27.3.1, SVG Export Plug-In . SVG Version: 6.00 Build 0)  -->
<svg version="1.1" id="Layer_1" xmlns="http://www.w3.org/2000/svg" xmlns:xlink="http://www.w3.org/1999/xlink" x="0px" y="0px"
	 viewBox="0 0 48 48" style="enable-background:new 0 0 48 48;" xml:space="preserve">
<style type="text/css">
	.st0{fill:#03D47C;}
	.st1{fill:#002E22;}
</style>
<rect class="st0" width="48" height="48"/>
<path class="st1" d="M30.6,18.5v-3.9H17.4v18.9h13.2v-3.9h-8.4v-3.6H29v-4h-6.7v-3.4H30.6z"/>
<path class="st1" d="M24,8.3C24,8.3,24,8.3,24,8.3c3.3,0,6.4,1,9,2.8c0.6,0.4,1.5,0.4,2.1-0.1c0.6-0.6,0.6-1.7-0.1-2.2
	C31.9,6.6,28.1,5.3,24,5.3C13.7,5.3,5.3,13.7,5.3,24c0,4.1,1.3,7.9,3.5,10.9c0.5,0.7,1.6,0.8,2.2,0.1c0.6-0.6,0.6-1.4,0.1-2.1
	c-1.8-2.6-2.8-5.6-2.8-9C8.3,15.4,15.4,8.3,24,8.3C24,8.3,24,8.3,24,8.3z"/>
<path class="st1" d="M39.5,13.4c-0.5-0.7-1.6-0.8-2.2-0.2c-0.6,0.6-0.6,1.4-0.2,2.1c1.6,2.5,2.6,5.5,2.6,8.7c0,3.2-1,6.3-2.7,8.8
	c-0.4,0.7-0.4,1.5,0.2,2.1c0.6,0.6,1.7,0.6,2.2-0.1c2.1-3,3.4-6.8,3.4-10.8C42.8,20,41.6,16.4,39.5,13.4z"/>
<path class="st1" d="M24,39.7c-3.2,0-6.2-1-8.7-2.6c-0.7-0.4-1.5-0.4-2.1,0.2c-0.6,0.6-0.6,1.7,0.2,2.2c3,2.1,6.7,3.3,10.6,3.3
	c3.9,0,7.7-1.3,10.8-3.4c0.7-0.5,0.8-1.6,0.1-2.2c-0.6-0.6-1.4-0.6-2.1-0.2C30.3,38.7,27.3,39.7,24,39.7z"/>
</svg>
