<?xml version="1.0" encoding="utf-8"?>
<!-- Generator: Adobe Illustrator 26.5.0, SVG Export Plug-In . SVG Version: 6.00 Build 0)  -->
<svg version="1.1" id="Layer_1" xmlns="http://www.w3.org/2000/svg" xmlns:xlink="http://www.w3.org/1999/xlink" x="0px" y="0px"
	 viewBox="0 0 78 18" style="enable-background:new 0 0 78 18;" xml:space="preserve">
<g>
	<polygon class="st0" points="0,14.7 8.7,14.7 8.7,12.1 3.2,12.1 3.2,9.8 7.6,9.8 7.6,7.2 3.2,7.2 3.2,4.9 8.7,4.9 8.7,2.4 0,2.4
		"/>
	<polygon class="st0" points="19.4,5.1 15.6,5.1 14.4,7.4 13,5.1 9.1,5.1 12.3,9.7 8.9,14.7 12.7,14.7 14.2,12.1 15.7,14.7 
		19.6,14.7 16.2,9.7 	"/>
	<path class="st0" d="M25.4,4.8L25.4,4.8c-1.1,0-2,0.4-2.6,1.2v-1h-2.9v13.7H23V14c0.6,0.6,1.4,1,2.4,1c2.5,0,4.3-2,4.3-5
		C29.7,6.8,28.1,4.8,25.4,4.8z M24.8,12.4c-1.2,0-1.9-0.9-1.9-2.5c0-1.6,0.7-2.5,1.9-2.5c1.2,0,1.9,0.9,1.9,2.5
		C26.6,11.5,25.9,12.4,24.8,12.4z"/>
	<path class="st0" d="M35.2,12.5c-1,0-1.7-0.5-1.8-1.9H40v-0.4c0-3-1.7-5.3-4.9-5.3c-2.3,0-4.9,1.2-4.9,5c0,3.1,2,5,5.1,5
		c1.8,0,4.1-0.7,4.8-3.5h-3.2C36.7,11.9,36.3,12.5,35.2,12.5z M35.1,7.1c0.9,0,1.5,0.5,1.6,1.6h-3.3C33.7,7.5,34.3,7.1,35.1,7.1z"/>
	<path class="st0" d="M46.1,4.8c-1.1,0-2,0.5-2.6,1.4V5.1h-2.9v9.6h3.1V9.3c0-1.3,0.7-1.9,1.5-1.9c0.9,0,1.5,0.4,1.5,1.8v5.4h3.1
		V9.1C49.7,6,48.5,4.8,46.1,4.8z"/>
	<path class="st0" d="M61.1,0.7c-1,0-1.6,0.7-1.6,1.6c0,0.9,0.7,1.6,1.6,1.6c1,0,1.7-0.7,1.7-1.6C62.7,1.4,62.1,0.7,61.1,0.7z"/>
	<rect x="59.6" y="5.1" class="st0" width="3.1" height="9.6"/>
	<path class="st0" d="M55.5,8.7L55.5,8.7l-0.8-0.2c-0.8-0.2-1.1-0.5-1.1-0.9c0-0.5,0.4-0.9,1.2-0.9c0.9,0,1.4,0.3,1.4,1.2h2.7
		c-0.1-2-1.2-3.2-4.2-3.2c-2.6,0-4.1,1-4.1,3.1c0,1.7,1.1,2.5,3.7,3L55,11c0.8,0.2,1.1,0.6,1.1,0.9c0,0.5-0.5,0.8-1.3,0.8
		c-1.1,0-1.6-0.4-1.7-1.3h-3c0.2,2.3,1.8,3.5,4.6,3.5c2.8,0,4.5-1,4.5-3.2C59.2,10.1,58.1,9.3,55.5,8.7z"/>
	<path class="st0" d="M74.8,5.1L74.8,5.1L73.1,11l-1.7-5.9h-4V4.8c0-0.8,0.6-1.6,1.5-1.6h0.4V0.7h-0.6C66,0.7,64.2,2.6,64.2,5v0.1
		h-1.2v2.8h1.2v6.8h3.1V7.9h1.8l2.3,6.5l-0.4,1c-0.3,0.7-0.6,1-1.3,1c-0.3,0-0.7,0-1.1-0.1l-0.2,2.5c0.5,0.1,1,0.2,1.8,0.2
		c1.9,0,2.8-0.8,3.8-3.3l4-10.6H74.8z"/>
</g>
</svg>
