<svg xmlns="http://www.w3.org/2000/svg" viewBox="0 0 20 20"><path d="M19.64 12c.14 0 .25.11.25.25v1.41c0 .22-.07.44-.21.61l-.87 1.12c-.28.36-.28.87 0 1.23l.87 1.12c.14.18.21.39.21.61v1.41c0 .14-.11.25-.25.25h-4.39c-.14 0-.25-.11-.25-.25v-1.41c0-.22.07-.44.21-.61l.87-1.12c.28-.36.28-.87 0-1.23l-.87-1.12a.98.98 0 0 1-.21-.61v-1.41c0-.14.11-.25.25-.25zm-1.39-9c.97 0 1.75.78 1.75 1.75v5.28q-.18-.03-.36-.03h-4.39C14.01 10 13 11.01 13 12.25v.25H9v-1.59h3V9H9V7.5h4v-2H7v9h6.12c.1.36.27.7.51 1l.39.5-.39.5c-.12.16-.22.32-.31.5H1.75C.78 17 0 16.22 0 15.25V4.75C0 3.78.78 3 1.75 3zm-1.86 9.89c-.43 0-.66.5-.38.83l1.05 1.22c.2.23.56.23.76 0l1.05-1.22c.28-.32.05-.83-.38-.83z"/></svg>