<?xml version="1.0" encoding="utf-8"?>
<!-- Generator: Adobe Illustrator 26.5.2, SVG Export Plug-In . SVG Version: 6.00 Build 0)  -->
<svg version="1.1" id="Layer_1" xmlns="http://www.w3.org/2000/svg" xmlns:xlink="http://www.w3.org/1999/xlink" x="0px" y="0px"
	 viewBox="0 0 78 19" style="enable-background:new 0 0 78 19;" xml:space="preserve">
<g>
	<polygon points="0,14 8.7,14 8.7,11.4 3.2,11.4 3.2,9.1 7.6,9.1 7.6,6.5 3.2,6.5 3.2,4.2 8.7,4.2 8.7,1.7 0,1.7 	"/>
	<polygon points="19.4,4.4 15.6,4.4 14.4,6.7 13,4.4 9.1,4.4 12.3,9 8.9,14 12.7,14 14.2,11.4 15.7,14 19.6,14 16.2,9 	"/>
	<path d="M25.4,4.1c-1.1,0-2,0.4-2.6,1.2v-1h-2.9V18H23v-4.7c0.6,0.6,1.4,1,2.4,1c2.5,0,4.3-2,4.3-5C29.7,6.1,28.1,4.1,25.4,4.1z
		 M24.8,11.7c-1.2,0-1.9-0.9-1.9-2.5c0-1.6,0.7-2.5,1.9-2.5s1.9,0.9,1.9,2.5C26.6,10.8,25.9,11.7,24.8,11.7z"/>
	<path d="M35.2,11.8c-1,0-1.7-0.5-1.8-1.9H40V9.5c0-3-1.7-5.3-4.9-5.3c-2.3,0-4.9,1.2-4.9,5c0,3.1,2,5,5.1,5c1.8,0,4.1-0.7,4.8-3.5
		h-3.2C36.7,11.2,36.3,11.8,35.2,11.8z M35.1,6.4c0.9,0,1.5,0.5,1.6,1.6h-3.3C33.7,6.8,34.3,6.4,35.1,6.4z"/>
	<path d="M46.1,4.1c-1.1,0-2,0.5-2.6,1.4V4.4h-2.9V14h3.1V8.6c0-1.3,0.7-1.9,1.5-1.9c0.9,0,1.5,0.4,1.5,1.8v5.4h3.1V8.4
		C49.7,5.3,48.5,4.1,46.1,4.1z"/>
	<path d="M61.1,0c-1,0-1.6,0.7-1.6,1.6c0,0.9,0.7,1.6,1.6,1.6c1,0,1.7-0.7,1.7-1.6C62.7,0.7,62.1,0,61.1,0z"/>
	<rect x="59.6" y="4.4" width="3.1" height="9.6"/>
	<path d="M55.5,8l-0.8-0.2c-0.8-0.2-1.1-0.5-1.1-0.9C53.6,6.4,54,6,54.8,6c0.9,0,1.4,0.3,1.4,1.2h2.7c-0.1-2-1.2-3.2-4.2-3.2
		c-2.6,0-4.1,1-4.1,3.1c0,1.7,1.1,2.5,3.7,3l0.7,0.2c0.8,0.2,1.1,0.6,1.1,0.9c0,0.5-0.5,0.8-1.3,0.8c-1.1,0-1.6-0.4-1.7-1.3h-3
		c0.2,2.3,1.8,3.5,4.6,3.5s4.5-1,4.5-3.2C59.2,9.4,58.1,8.6,55.5,8z"/>
	<path d="M74.8,4.4l-1.7,5.9l-1.7-5.9h-4V4.1c0-0.8,0.6-1.6,1.5-1.6h0.4V0h-0.6c-2.7,0-4.5,1.9-4.5,4.3v0.1H63v2.8h1.2V14h3.1V7.2
		h1.8l2.3,6.5l-0.4,1c-0.3,0.7-0.6,1-1.3,1c-0.3,0-0.7,0-1.1-0.1l-0.2,2.5c0.5,0.1,1,0.2,1.8,0.2c1.9,0,2.8-0.8,3.8-3.3l4-10.6H74.8
		z"/>
</g>
</svg>
