<?xml version="1.0" encoding="utf-8"?>
<!-- Generator: Adobe Illustrator 24.3.0, SVG Export Plug-In . SVG Version: 6.00 Build 0)  -->
<svg version="1.1" id="Layer_1" xmlns="http://www.w3.org/2000/svg" xmlns:xlink="http://www.w3.org/1999/xlink" x="0px" y="0px"
	 viewBox="0 0 78 18" style="enable-background:new 0 0 78 18;" xml:space="preserve">
<style type="text/css">
	.st0{fill:#0B1B34;}
</style>
<g>
	<polygon class="st0" points="0,14.1 8.5,14.1 8.5,11.5 3.1,11.5 3.1,9.2 7.7,9.2 7.7,6.5 3.1,6.5 3.1,4.3 8.5,4.3 8.5,1.7 0,1.7 	
		"/>
	<path class="st0" d="M25.3,4.3c-1.3,0-2.2,0.4-2.9,1.4h-0.1l-0.4-1.2h-2.2v12.8h2.9v-4.1h0.1c0.6,0.6,1.4,0.9,2.5,0.9
		c2.6,0,4.5-2.2,4.5-4.9V9C29.6,6.1,27.4,4.3,25.3,4.3z M24.5,11.9c-1.4,0-2-1.1-2-2.6c0-1.4,0.6-2.6,2-2.6s2,1.2,2,2.6
		S25.8,11.9,24.5,11.9z"/>
	<path class="st0" d="M39.7,9c0-3.2-2.2-4.7-4.7-4.7c-2.7,0-4.9,1.9-4.9,4.9v0.3c0,3.1,2.3,4.9,5,4.9c2.2,0,4.1-1.1,4.6-3.2h-2.8
		c-0.3,0.7-0.9,1-1.7,1c-1.2,0-1.9-0.9-2.1-2.1h6.5C39.6,9.9,39.7,9.4,39.7,9z M33.2,8.2c0.1-1,0.7-1.7,1.9-1.7c1,0,1.7,0.7,1.7,1.7
		H33.2z"/>
	<path class="st0" d="M45.8,4.3c-1.2,0-2.1,0.4-2.8,1.5l0,0l-0.4-1.2h-2.3V14h3V8.5c0-1.2,0.6-1.8,1.6-1.8c0.8,0,1.4,0.5,1.4,1.8V14
		h3V7.7C49.3,5.9,48.2,4.3,45.8,4.3z"/>
	<path class="st0" d="M53.7,8c-0.5-0.1-0.9-0.3-0.9-0.9c0-0.4,0.3-0.7,1-0.7s1.1,0.4,1.1,1h2.7V7.2c0-2-1.8-2.8-3.9-2.8
		c-1.8,0-3.9,0.7-3.9,3v0.1c0,0.7,0.2,1.3,0.7,1.7c0.9,0.9,2.4,1.1,3.4,1.3c0.8,0.2,1,0.6,1,1c0,0.6-0.4,0.9-1.1,0.9
		c-0.8,0-1.3-0.4-1.4-1.4h-2.7v0.2c0.1,2.3,1.9,3.2,4.1,3.2c1.9,0,4.1-0.9,4.1-3.1V11c0-0.7-0.2-1.3-0.6-1.7
		C56.4,8.3,54.9,8.2,53.7,8z"/>
	<rect x="58.5" y="4.6" class="st0" width="3" height="9.5"/>
	<polygon class="st0" points="19,4.6 15.7,4.6 14.2,7 12.5,4.6 9.2,4.6 12.3,9 8.7,14.1 12,14.1 14,11.2 16,14.1 19.5,14.1 15.8,9 	
		"/>
	<path class="st0" d="M60,0c-1,0-1.8,0.8-1.8,1.8S59,3.6,60,3.6s1.8-0.8,1.8-1.8S61,0,60,0z"/>
	<path class="st0" d="M74.9,4.6l-2.1,5.7L71,4.6h-4.1V4.3c0-0.8,0.6-1.6,1.4-1.6c0.1,0,0.9,0,0.9,0V0.1h-1.1c-2.6,0.1-4.2,2-4.2,4.4
		v0.1h-1.7v2.2h1.7V14h3V6.9h1.9l2.5,6.5l-1.7,4.1h3.1L78,4.6H74.9z"/>
</g>
</svg>
