<svg xmlns="http://www.w3.org/2000/svg" xml:space="preserve" id="Layer_1" x="0" y="0" viewBox="0 0 235 148"><style>.st0{fill:#002e22}.st1{fill:#03d47c}.st2{fill:#085239}.st3{fill:#fffaf0}</style><path d="M0 0h235v148H0z" class="st0"/><path d="M109 38h12.3v-3.6h-7.8V31h6.3v-3.7h-6.3v-3.2h7.8v-3.6H109zm27.6-13.7h-5.4l-1.8 3.3-1.9-3.3h-5.6l4.5 6.6-4.8 7h5.4l2.2-3.7 2.1 3.7h5.6l-4.8-7zm8.5-.3c-1.5 0-2.8.6-3.8 1.8v-1.4h-4.1v19.4h4.4V37c.8.8 2 1.4 3.5 1.4 3.6 0 6.1-2.8 6.1-7.2s-2.4-7.2-6.1-7.2m-1 10.7c-1.7 0-2.7-1.3-2.7-3.5s1-3.5 2.7-3.5 2.7 1.3 2.7 3.5-1 3.5-2.7 3.5m14.9.2c-1.4 0-2.4-.8-2.6-2.8h9.4v-.6c0-4.3-2.4-7.5-7-7.5-3.3 0-7 1.8-7 7.2 0 4.4 2.8 7.2 7.2 7.2 2.6 0 5.8-.9 6.9-5h-4.5c-.3.7-.8 1.5-2.4 1.5m-.2-7.6c1.3 0 2.1.7 2.3 2.3h-4.6c.3-1.8 1.3-2.3 2.3-2.3m15.6-3.3c-1.5 0-2.9.7-3.8 1.9v-1.6h-4.1V38h4.4v-7.6c0-1.8.9-2.7 2.2-2.7s2.1.6 2.1 2.6V38h4.4v-8c0-4.3-1.8-6-5.2-6m21.3-5.9c-1.4 0-2.3 1-2.3 2.3s1 2.3 2.3 2.3 2.3-1 2.3-2.3c.1-1.3-.9-2.3-2.3-2.3m2.3 6.3h-4.4V38h4.4zm-10.3 5.1-1.1-.2c-1.2-.3-1.6-.8-1.6-1.3 0-.8.6-1.2 1.7-1.2 1.3 0 2 .4 2 1.7h3.8c-.1-2.9-1.8-4.6-6-4.6-3.6 0-5.8 1.4-5.8 4.4 0 2.4 1.6 3.5 5.3 4.3l1.1.3c1.2.3 1.6.8 1.6 1.3 0 .8-.7 1.1-1.8 1.1-1.5 0-2.2-.6-2.4-1.8h-4.3c.2 3.3 2.5 4.9 6.5 4.9s6.4-1.5 6.4-4.5c0-2.5-1.7-3.6-5.4-4.4m27.5-5.1-2.5 8.3-2.4-8.3h-5.7V24c0-1.1.8-2.2 2.1-2.2h.6v-3.6h-.9c-3.8.1-6.3 2.7-6.3 6.1v.2h-1.7v4h1.7V38h4.4v-9.6h2.5l3.3 9.2-.6 1.4c-.4 1-.9 1.4-1.8 1.4-.5 0-.9 0-1.6-.2l-.3 3.6c.7.2 1.5.3 2.5.3 2.6 0 4-1.1 5.3-4.6l5.7-15.1z" class="st1"/><path d="M39.5 72.2h-3.8c-1 0-1.8.8-1.8 1.8v7c0 1 .8 1.8 1.8 1.8h3.8c1 0 1.8-.8 1.8-1.8v-7c.1-1-.8-1.8-1.8-1.8m.1-10.6h-3.8c-1 0-1.8.8-1.8 1.8v5.2c0 1 .8 1.8 1.8 1.8h3.8c1 0 1.8-.8 1.8-1.8v-5.2c.1-1-.8-1.8-1.8-1.8m9.5 12.3h-3.8c-1 0-1.8.8-1.8 1.8v5.2c0 1 .8 1.8 1.8 1.8h3.8c1 0 1.8-.8 1.8-1.8v-5.2c0-1-.8-1.8-1.8-1.8m-.2-12.3H45c-1 0-1.8.8-1.8 1.8v7.5c0 1 .8 1.8 1.8 1.8h3.8c1 0 1.8-.8 1.8-1.8v-7.5c.1-1-.7-1.8-1.7-1.8M32.1 81.1v-18c0-.9-.8-1.7-1.7-1.7h-6.2c-.5 0-1 .2-1.3.7l-2.1 2.7c-.2.3-.4.7-.4 1v13.1c0 .3.1.7.3 1l1.6 2.3c.3.5.8.7 1.4.7h6.7c.9-.2 1.7-.9 1.7-1.8" class="st2"/><path d="m198 110.3-3 14.3h-3.6l3-14.3zm15.1 9.2 1.9-5.4 1.1 5.4zm4 5.1h3.3l-2.9-14.3h-3.1c-.7 0-1.2.4-1.5 1l-5.4 13.3h3.7l.7-2.1h4.6zm-9.4-4.6c0-3.8-5.1-4-5.1-5.7 0-.5.5-1 1.5-1.2.5-.1 1.9-.1 3.6.6l.7-3.1c-.8-.3-2-.6-3.3-.6-3.6 0-6.1 2-6.1 4.7 0 2.1 1.7 3.2 3.2 3.9 1.4.7 1.8 1.1 1.8 1.8 0 .9-1.1 1.4-2.2 1.4-1.8 0-2.8-.5-3.7-.9l-.7 3.2c.8.4 2.4.8 4 .8 3.8-.1 6.3-2 6.3-4.9m-14.8-9.7-5.8 14.3h-3.8l-2.8-11.4c-.2-.7-.3-.9-.8-1.3-.9-.5-2.3-.9-3.6-1.2l.1-.4h6.1c.7 0 1.5.5 1.7 1.5l1.5 8.3 3.7-9.8zm-5.1 22.7c-.2.1-.7.3-1.2.3-1.3 0-2.3-.9-2.3-2.5 0-1.5 1-2.6 2.5-2.6.6 0 1 .2 1.2.3l-.2.4c-.2-.1-.6-.2-.9-.2-1.1 0-1.8.8-1.8 2.1 0 1.2.7 2 1.8 2 .4 0 .7-.1 1-.2zm1.2-1.6c0 .8.4 1.4 1 1.4s1-.6 1-1.4c0-.6-.2-1.4-1-1.4-.6 0-1 .7-1 1.4m2.8-.1c0 1.3-.9 1.9-1.7 1.9-.9 0-1.7-.7-1.7-1.8 0-1.2.7-1.9 1.7-1.9s1.7.8 1.7 1.8m.9-.8v-.9h.6v.6c.2-.3.5-.7 1.1-.7.5 0 .8.3 1 .7.1-.2.2-.3.4-.4.2-.2.4-.3.7-.3.5 0 1.2.3 1.2 1.5v2.1h-.6v-2c0-.7-.2-1.1-.7-1.1-.3 0-.7.3-.7.6 0 .1-.1.2-.1.3v2.1h-.6v-2.1c0-.6-.2-.9-.7-.9-.4 0-.7.3-.7.6 0 .1-.1.2-.1.3v2.1h-.6zm6 0v-.9h.5v.6c.2-.3.5-.7 1.1-.7.5 0 .8.3 1 .7.1-.2.2-.3.4-.4.2-.2.4-.3.7-.3.5 0 1.2.3 1.2 1.5v2.1h-.6v-2c0-.7-.2-1.1-.7-1.1-.3 0-.7.3-.7.6 0 .1-.1.2-.1.3v2.1h-.6v-2.1c0-.6-.2-.9-.7-.9-.4 0-.7.3-.7.6 0 .1-.1.2-.1.3v2.1h-.6v-2.5zm8.3.5c0-.4-.2-1-.8-1-.7 0-.9.6-.9 1zm-1.9.5c0 .9.6 1.2 1.2 1.2.4 0 .7-.1.9-.2l.1.4c-.2.1-.6.3-1.2.3-1.1 0-1.7-.7-1.7-1.8 0-1 .6-1.9 1.6-1.9 1.2 0 1.4 1 1.4 1.6v.3zm3.4-.8v-1.1h.6v.7c.2-.5.5-.8.9-.8h.2v.6h-.2c-.4 0-.7.3-.8.9v2.2h-.6v-2.5zm4.9 2.3c-.2.1-.5.2-1 .2-1 0-1.7-.7-1.7-1.8s.7-1.9 1.8-1.9c.3 0 .7.1.8.2l-.2.5c-.2-.1-.4-.2-.7-.2-.7 0-1.2.6-1.2 1.4 0 .9.5 1.3 1.2 1.3.3 0 .6-.1.7-.2zm.9.1v-3.5h.6v3.5zm.6-4.5c0 .3-.2.4-.4.4s-.4-.2-.4-.4c0-.3.2-.4.4-.4.3 0 .4.2.4.4m3 2.7c-.7 0-1.4.1-1.4.8q0 .6.6.6c.4 0 .7-.3.8-.6zm.6.9c0 .3 0 .6.1.9h-.6l-.1-.4c-.2.3-.6.5-1.1.5-.7 0-1.1-.5-1.1-1 0-.9.7-1.3 2.1-1.3v-.1c0-.3-.1-.9-.7-.8-.3 0-.7.1-.9.3l-.2-.4c.2-.2.7-.3 1.2-.3 1.1 0 1.3.8 1.3 1.5zm1.2-4.3h.7v5.1h-.7z" class="st3"/></svg>