<?xml version="1.0" encoding="utf-8"?>
<!-- Generator: Adobe Illustrator 27.2.0, SVG Export Plug-In . SVG Version: 6.00 Build 0)  -->
<svg version="1.1" id="Layer_1" xmlns="http://www.w3.org/2000/svg" xmlns:xlink="http://www.w3.org/1999/xlink" x="0px" y="0px"
	 viewBox="0 0 162 34" style="enable-background:new 0 0 162 34;" xml:space="preserve">
<style type="text/css">
	.st0{clip-path:url(#SVGID_00000137132871354614056020000004799738969179966628_);}
	.st2{fill:#008C59;}
	.st3{fill:#E7ECE9;}
</style>
<g>
	<defs>
		<rect id="SVGID_1_" width="162" height="34"/>
	</defs>
	<clipPath id="SVGID_00000109012568731608167600000002078617427052541608_">
		<use xlink:href="#SVGID_1_"  style="overflow:visible;"/>
	</clipPath>
	<g style="clip-path:url(#SVGID_00000109012568731608167600000002078617427052541608_);">
		<path d="M0,25.9h16v-4.7H5.9v-4.4H14V12H5.9V7.8H16V3.1H0V25.9z"/>
		<path d="M35.9,8.1h-7l-2.3,4.3L24,8.1h-7.2l5.9,8.6l-6.3,9.2h7l2.8-4.8l2.8,4.8h7.2L30,16.7L35.9,8.1z"/>
		<path d="M47,7.7L47,7.7c-1.9,0-3.6,0.8-4.9,2.3V8.1h-5.4v25.3h5.7v-8.9c1,1.1,2.6,1.8,4.5,1.8c4.7,0,8-3.6,8-9.3
			C54.9,11.3,51.8,7.7,47,7.7L47,7.7z M45.7,21.6c-2.2,0-3.4-1.7-3.4-4.6s1.3-4.6,3.4-4.6c2.2,0,3.4,1.7,3.4,4.6
			C49.1,19.9,47.9,21.6,45.7,21.6z"/>
		<path d="M65,21.8c-1.8,0-3.1-1-3.4-3.6h12.3v-0.8c0-5.5-3.1-9.8-9.1-9.8c-4.2,0-9.1,2.3-9.1,9.3
			c0,5.7,3.7,9.3,9.3,9.3c3.4,0,7.6-1.2,8.9-6.5h-5.8C67.8,20.8,67.1,21.8,65,21.8L65,21.8z M64.8,11.9c1.7,0,2.8,0.9,2.9,3h-6
			C62.2,12.6,63.4,11.9,64.8,11.9L64.8,11.9z"/>
		<path d="M85.1,7.7c-2,0-3.7,0.9-4.9,2.5V8.1h-5.4v17.8h5.7V16c0-2.4,1.2-3.4,2.8-3.4c1.7,0,2.7,0.7,2.7,3.4v9.9h5.7
			V15.5C91.8,9.9,89.5,7.7,85.1,7.7L85.1,7.7z"/>
		<path d="M112.8,0c-1.8,0-3,1.3-3,2.9s1.3,3,3,3c1.8,0,3-1.3,3-3S114.6,0,112.8,0z"/>
		<path d="M115.7,8.1H110v17.7h5.7V8.1z"/>
		<path d="M102.4,14.8l-1.4-0.3c-1.5-0.3-2-1-2-1.7c0-1,0.8-1.6,2.2-1.6c1.7,0,2.6,0.5,2.6,2.2h5
			c-0.1-3.7-2.3-5.9-7.8-5.9c-4.7,0-7.6,1.8-7.6,5.7c0,3.1,2.1,4.5,6.9,5.6l1.4,0.3c1.5,0.3,2,1,2,1.7c0,1-0.9,1.4-2.4,1.4
			c-2,0-2.9-0.7-3.1-2.4h-5.6c0.3,4.3,3.3,6.4,8.5,6.4c5.2,0,8.3-1.9,8.3-5.9C109.3,17.3,107.2,15.9,102.4,14.8L102.4,14.8z"/>
		<path d="M138.2,8.1L138.2,8.1L134.9,19l-3.2-10.8h-7.4V7.6c0-1.4,1.1-2.9,2.8-2.9h0.8V0h-1.2
			c-4.9,0.1-8.2,3.6-8.2,7.9v0.2h-2.2v5.2h2.2v12.5h5.7V13.4h3.2l4.3,12l-0.7,1.9c-0.5,1.4-1.1,1.8-2.3,1.8c-0.6,0-1.2,0-2.1-0.3
			l-0.4,4.7c0.9,0.3,1.9,0.4,3.3,0.4c3.4,0,5.2-1.5,7-6L144,8.1L138.2,8.1L138.2,8.1z"/>
		<path class="st2" d="M147,19.9h9c3.3,0,6,2.7,6,6l0,0c0,3.3-2.7,6-6,6h-9c-3.3,0-6-2.7-6-6l0,0C141,22.6,143.7,19.9,147,19.9z"/>
		<path class="st3" d="M147.5,28.1c1,0,1.7-0.4,1.7-1.3c0-0.7-0.4-1-1.3-1.2l-0.6-0.1c-0.5-0.1-0.7-0.2-0.7-0.5
			c0-0.3,0.3-0.5,0.7-0.5c0.5,0,0.8,0.2,0.8,0.6h0.8c0-0.8-0.6-1.4-1.7-1.4c-1.1,0-1.6,0.6-1.6,1.2c0,0.7,0.4,1,1.3,1.2l0.6,0.1
			c0.5,0.1,0.7,0.3,0.7,0.5c0,0.4-0.3,0.5-0.8,0.5c-0.6,0-0.9-0.2-0.9-0.7h-0.8C145.7,27.6,146.4,28.1,147.5,28.1z M151.4,28v-3.4
			h1.2v-0.8h-3.3v0.8h1.2V28H151.4z M152.9,25.9c0,1.3,0.8,2.2,2,2.2c1.1,0,2-0.8,2-2.1v-0.2H155v0.7h1c-0.1,0.6-0.5,0.8-1.1,0.8
			c-0.7,0-1.2-0.6-1.2-1.4s0.5-1.4,1.2-1.4c0.5,0,0.9,0.2,1.1,0.7h0.9c-0.2-0.9-0.9-1.5-1.9-1.5C153.7,23.8,152.9,24.7,152.9,25.9z"
			/>
	</g>
</g>
</svg>
