<svg xmlns="http://www.w3.org/2000/svg" viewBox="0 0 20 20"><path d="M4 16.5c0 .83.67 1.5 1.5 1.5H15c0 1.1-.9 2-2 2H4c-1.1 0-2-.9-2-2V6c0-1.1.9-2 2-2z"/><path fill-rule="evenodd" d="M14.01.11c.13-.15.35-.15.47 0l.9 1.07c.13.15.35.15.47 0l.59-.7c.19-.23.55-.09.55.21v14.6c0 .3-.36.44-.55.21l-.59-.7c-.13-.15-.35-.15-.47 0l-.9 1.07c-.13.15-.35.15-.47 0l-.9-1.07c-.13-.15-.35-.15-.47 0l-.9 1.07c-.13.15-.35.15-.47 0l-.9-1.07c-.13-.15-.35-.15-.47 0L9 15.87c-.13.15-.35.15-.47 0l-.9-1.07c-.13-.15-.35-.15-.47 0l-.59.7c-.19.23-.55.09-.55-.21V.7c0-.3.36-.44.55-.21l.59.7c.13.15.35.15.47 0l.9-1.07c.13-.15.35-.15.47 0l.9 1.07c.13.15.35.15.47 0l.9-1.07c.13-.15.35-.15.47 0l.9 1.07c.13.15.35.15.47 0l.9-1.07ZM9.14 10.45c-.43 0-.78.37-.79.82 0 .45.35.82.79.82h4.71c.43 0 .79-.37.79-.82s-.35-.82-.79-.82zm0-3.27c-.43 0-.79.37-.79.82s.35.82.79.82h3.14c.43 0 .79-.37.79-.82s-.35-.82-.79-.82zm0-3.26c-.43 0-.79.37-.79.82s.35.82.79.82h4.71c.43 0 .79-.37.79-.82s-.35-.82-.79-.82z"/></svg>