<svg xmlns="http://www.w3.org/2000/svg" xml:space="preserve" id="Layer_1" x="0" y="0" viewBox="0 0 78 19"><style>.st4{fill:#03d47c}</style><path d="M0 14h8.7v-2.6H3.2V9.1h4.4V6.5H3.2V4.2h5.5V1.7H0zm19.4-9.6h-3.8l-1.2 2.3L13 4.4H9.1L12.3 9l-3.4 5h3.8l1.5-2.6 1.5 2.6h3.9l-3.4-5zm6-.3c-1.1 0-2 .4-2.6 1.2v-1h-2.9V18H23v-4.7c.6.6 1.4 1 2.4 1 2.5 0 4.3-2 4.3-5 0-3.2-1.6-5.2-4.3-5.2m-.6 7.6c-1.2 0-1.9-.9-1.9-2.5s.7-2.5 1.9-2.5 1.9.9 1.9 2.5c-.1 1.6-.8 2.5-1.9 2.5m10.4.1c-1 0-1.7-.5-1.8-1.9H40v-.4c0-3-1.7-5.3-4.9-5.3-2.3 0-4.9 1.2-4.9 5 0 3.1 2 5 5.1 5 1.8 0 4.1-.7 4.8-3.5h-3.2c-.2.5-.6 1.1-1.7 1.1m-.1-5.4c.9 0 1.5.5 1.6 1.6h-3.3c.3-1.2.9-1.6 1.7-1.6m11-2.3c-1.1 0-2 .5-2.6 1.4V4.4h-2.9V14h3.1V8.6c0-1.3.7-1.9 1.5-1.9.9 0 1.5.4 1.5 1.8v5.4h3.1V8.4c-.1-3.1-1.3-4.3-3.7-4.3m15-4.1c-1 0-1.6.7-1.6 1.6s.7 1.6 1.6 1.6c1 0 1.7-.7 1.7-1.6-.1-.9-.7-1.6-1.7-1.6m-1.5 4.4h3.1V14h-3.1zM55.5 8l-.8-.2c-.8-.2-1.1-.5-1.1-.9 0-.5.4-.9 1.2-.9.9 0 1.4.3 1.4 1.2h2.7c-.1-2-1.2-3.2-4.2-3.2-2.6 0-4.1 1-4.1 3.1 0 1.7 1.1 2.5 3.7 3l.7.2c.8.2 1.1.6 1.1.9 0 .5-.5.8-1.3.8-1.1 0-1.6-.4-1.7-1.3h-3c.2 2.3 1.8 3.5 4.6 3.5s4.5-1 4.5-3.2c0-1.6-1.1-2.4-3.7-3m19.3-3.6-1.7 5.9-1.7-5.9h-4v-.3c0-.8.6-1.6 1.5-1.6h.4V0h-.6c-2.7 0-4.5 1.9-4.5 4.3v.1H63v2.8h1.2V14h3.1V7.2h1.8l2.3 6.5-.4 1c-.3.7-.6 1-1.3 1-.3 0-.7 0-1.1-.1l-.2 2.5c.5.1 1 .2 1.8.2 1.9 0 2.8-.8 3.8-3.3l4-10.6z" class="st4"/></svg>