<svg xmlns="http://www.w3.org/2000/svg" xmlns:xlink="http://www.w3.org/1999/xlink" xml:space="preserve" id="Layer_1" x="0" y="0" viewBox="0 0 162 34"><style>.st1{fill:#03d47c}.st2{fill:#cf4cd9}.st3{fill:#e7ece9}</style><defs><path id="SVGID_1_" d="M0 0h162v34H0z"/></defs><clipPath id="SVGID_00000178166439207064073490000012707134799726262716_"><use xlink:href="#SVGID_1_" style="overflow:visible"/></clipPath><g style="clip-path:url(#SVGID_00000178166439207064073490000012707134799726262716_)"><path d="M0 25.9h16v-4.7H5.9v-4.4H14V12H5.9V7.8H16V3.1H0zM35.9 8.1h-7l-2.3 4.3L24 8.1h-7.2l5.9 8.6-6.3 9.2h7l2.8-4.8 2.8 4.8h7.2L30 16.7zM47 7.7c-1.9 0-3.6.8-4.9 2.3V8.1h-5.4v25.3h5.7v-8.9c1 1.1 2.6 1.8 4.5 1.8 4.7 0 8-3.6 8-9.3S51.8 7.7 47 7.7m-1.3 13.9c-2.2 0-3.4-1.7-3.4-4.6s1.3-4.6 3.4-4.6c2.2 0 3.4 1.7 3.4 4.6s-1.2 4.6-3.4 4.6m19.3.2c-1.8 0-3.1-1-3.4-3.6h12.3v-.8c0-5.5-3.1-9.8-9.1-9.8-4.2 0-9.1 2.3-9.1 9.3 0 5.7 3.7 9.3 9.3 9.3 3.4 0 7.6-1.2 8.9-6.5h-5.8c-.3 1.1-1 2.1-3.1 2.1m-.2-9.9c1.7 0 2.8.9 2.9 3h-6c.5-2.3 1.7-3 3.1-3m20.3-4.2c-2 0-3.7.9-4.9 2.5V8.1h-5.4v17.8h5.7V16c0-2.4 1.2-3.4 2.8-3.4 1.7 0 2.7.7 2.7 3.4v9.9h5.7V15.5c.1-5.6-2.2-7.8-6.6-7.8M112.8 0c-1.8 0-3 1.3-3 2.9s1.3 3 3 3c1.8 0 3-1.3 3-3 0-1.6-1.2-2.9-3-2.9m2.9 8.1H110v17.7h5.7zm-13.3 6.7-1.4-.3c-1.5-.3-2-1-2-1.7 0-1 .8-1.6 2.2-1.6 1.7 0 2.6.5 2.6 2.2h5c-.1-3.7-2.3-5.9-7.8-5.9-4.7 0-7.6 1.8-7.6 5.7 0 3.1 2.1 4.5 6.9 5.6l1.4.3c1.5.3 2 1 2 1.7 0 1-.9 1.4-2.4 1.4-2 0-2.9-.7-3.1-2.4h-5.6c.3 4.3 3.3 6.4 8.5 6.4s8.3-1.9 8.3-5.9c-.1-3-2.2-4.4-7-5.5m35.8-6.7L134.9 19l-3.2-10.8h-7.4v-.6c0-1.4 1.1-2.9 2.8-2.9h.8V0h-1.2c-4.9.1-8.2 3.6-8.2 7.9v.2h-2.2v5.2h2.2v12.5h5.7V13.4h3.2l4.3 12-.7 1.9c-.5 1.4-1.1 1.8-2.3 1.8-.6 0-1.2 0-2.1-.3l-.4 4.7c.9.3 1.9.4 3.3.4 3.4 0 5.2-1.5 7-6L144 8.1z" class="st1"/><path d="M147 19.9h9c3.3 0 6 2.7 6 6s-2.7 6-6 6h-9c-3.3 0-6-2.7-6-6s2.7-6 6-6" class="st2"/><path d="m146.6 27.4-1-2.8h-.6l-1 2.8h.6l.2-.6h1l.2.6zm-1.3-2.1.3 1h-.6zm2.6 2.1c.9 0 1.4-.5 1.4-1.4s-.6-1.4-1.5-1.4h-.9v2.8zm-.4-2.3h.4q.9 0 .9.9t-.9.9h-.4zm2.9 2.3v-1.1h1.2v1.1h.6v-2.8h-.6v1.1h-1.2v-1.1h-.6v2.8zm3.5.1c.8 0 1.4-.6 1.4-1.5s-.6-1.4-1.4-1.4-1.4.6-1.4 1.4c.1.9.6 1.5 1.4 1.5m0-.5c-.5 0-.8-.4-.8-.9 0-.6.3-.9.8-.9s.8.4.8.9c.1.5-.3.9-.8.9m3.1.5c.7 0 1.1-.4 1.3-1.1h-.6c-.1.4-.4.6-.7.6-.5 0-.8-.4-.8-.9 0-.6.3-.9.8-.9.3 0 .6.2.7.5h.6c-.1-.6-.6-1-1.3-1-.8 0-1.3.6-1.3 1.4s.5 1.4 1.3 1.4" class="st3"/></g></svg>