<svg xmlns="http://www.w3.org/2000/svg" xml:space="preserve" id="Layer_1" x="0" y="0" viewBox="0 0 313 70"><style>.st0{fill:#fff}</style><path d="M0 56.4h34V46.2H12.5v-9.5h18.2V26.2H12.5v-9H34V7H0zm101.1-39.2c-5.2 0-8.7 1.5-11.7 5.7h-.2l-1.5-4.7h-9v51.4h11.7V53.4h.2c2.2 2.5 5.5 3.7 10 3.7 10.5 0 18-8.7 18-19.5v-1.5c0-11.6-8.7-18.9-17.5-18.9m-3 30.5c-5.5 0-8-4.5-8-10.5 0-5.7 2.5-10.2 8-10.2s8 4.7 8 10.5c0 5.7-2.7 10.2-8 10.2m60.7-11.5c0-12.7-9-19-18.7-19-11 0-19.5 7.7-19.5 19.7v1.2c0 12.2 9.2 19.5 20 19.5 8.7 0 16.5-4.2 18.2-13h-11.2c-1.2 3-3.7 4-6.7 4-5 0-7.7-3.5-8.2-8.2h26c-.2-1 .1-2.7.1-4.2m-26-3.5c.5-4 3-7 7.5-7 4 0 6.7 2.7 6.7 7zm50.7-15.5c-4.7 0-8.5 1.7-11.2 6h-.3l-1.5-5h-9.2v38h12v-22c0-4.7 2.2-7.2 6.2-7.2 3.2 0 5.7 2 5.7 7.2v22h12V30.7c0-7.2-4.2-13.5-13.7-13.5M215.2 32c-2-.5-3.5-1.2-3.5-3.5 0-1.7 1.2-3 4-3 3 0 4.5 1.5 4.5 4h10.7v-.7c0-8-7.2-11.2-15.5-11.2-7.2 0-15.5 3-15.5 12v.4c0 2.7 1 5.2 2.7 7 3.7 3.7 9.5 4.2 13.5 5.2 3.2.7 4 2.2 4 4 0 2.2-1.7 3.5-4.5 3.5-3.2 0-5.2-1.7-5.5-5.5h-10.7v.7c.5 9.2 7.5 12.7 16.2 12.7 7.7 0 16.2-3.5 16.2-12.5v-1c0-2.7-1-5.2-2.5-7-3.3-3.9-9.3-4.4-14.1-5.1m31.2-13.5h-12v38h12zm-170.2 0H62.9L56.7 28l-6.5-9.5H36.7l12.7 17.7L35 56.4h13.2l8-11.5 8 11.5h13.7L63.2 36zM240.4 0c-4 0-7.2 3.2-7.2 7.2s3.2 7.2 7.2 7.2 7.2-3.2 7.2-7.2c.1-4-3.2-7.2-7.2-7.2m27.5 18.5v-1.2c0-3.2 2.2-6.5 5.7-6.5h3.5V.2h-4.2c-10.2.2-17 8-17 17.7v.5h-7v9h7v28.7h12V27.5h7.7l10 26.2-7 16.2h12.5l21.2-51.4h-12.5l-8.2 22.7-7.5-22.7z" class="st0"/></svg>