<?xml version="1.0" encoding="utf-8"?>
<!-- Generator: Adobe Illustrator 24.3.0, SVG Export Plug-In . SVG Version: 6.00 Build 0)  -->
<svg version="1.1" id="Layer_1" xmlns="http://www.w3.org/2000/svg" xmlns:xlink="http://www.w3.org/1999/xlink" x="0px" y="0px"
	 viewBox="0 0 40 40" style="enable-background:new 0 0 40 40;" xml:space="preserve">
<style type="text/css">
	.st0{fill:#03D47C;}
	.st1{fill:#0185FF;}
	.st2{fill:#FED607;}
	.st3{fill:#0B1B34;}
</style>
<g>
	<path class="st0" d="M36,20c0,3.8-1.4,7.4-3.6,10.1l2.8,2.8c3-3.5,4.8-8,4.8-13c0-4.9-1.8-9.4-4.6-12.8L32.5,10
		C34.7,12.8,36,16.2,36,20z"/>
	<path class="st1" d="M30.1,32.4C27.4,34.6,23.8,36,20,36c-3.8,0-7.2-1.3-10-3.5l-2.8,2.8c3.5,2.9,8,4.6,12.8,4.6
		c5,0,9.5-1.8,13-4.8L30.1,32.4z"/>
	<path class="st2" d="M7.7,30.3C5.4,27.5,4,23.9,4,20c0-8.8,7.2-16,16-16c3.9,0,7.5,1.4,10.3,3.7l2.8-2.8C29.6,1.8,25,0,20,0
		C9,0,0,9,0,20c0,5,1.8,9.6,4.9,13.1L7.7,30.3z"/>
	<path class="st3" d="M25.3,20c-1-1.1-2.6-1.6-4.2-1.9v-3.5c0.7,0.2,1,0.8,1.1,1.6h4.1v-0.4c-0.2-2.9-2.4-4.2-5.1-4.5V8.8h-2.2v2.4
		c-2.8,0.2-5.5,1.7-5.5,5.2v0.2c0,1.2,0.6,2.5,1.3,3.1c1,1,2.5,1.3,4.2,1.8v4.1c-1-0.2-1.6-1-1.6-2h-4.3V24c0.4,3.2,2.6,4.7,5.8,4.9
		v2.5h2.2v-2.5c2.9-0.4,5.5-1.8,5.5-5.4v-0.2C26.7,21.9,26.1,20.6,25.3,20z M19,17.5c-0.7-0.4-1.1-0.7-1.1-1.6
		c0-0.7,0.4-1.1,1.1-1.4V17.5z M21.1,25.6v-3.2c1.1,0.4,1.3,1,1.3,1.7C22.5,24.7,22,25.3,21.1,25.6z"/>
</g>
</svg>
