<svg xmlns="http://www.w3.org/2000/svg" xmlns:xlink="http://www.w3.org/1999/xlink" id="Layer_1" x="0" y="0" version="1.1" viewBox="0 0 313 70" style="enable-background:new 0 0 313 70" xml:space="preserve"><style type="text/css">.st0{fill:#fff}</style><path d="M0,56.4h34V46.2H12.5v-9.5h18.2V26.2H12.5v-9H34V7H0V56.4z" class="st0"/><path d="M101.1,17.2c-5.2,0-8.7,1.5-11.7,5.7h-0.2l-1.5-4.7h-9v51.4h11.7V53.4h0.2c2.2,2.5,5.5,3.7,10,3.7	c10.5,0,18-8.7,18-19.5v-1.5C118.6,24.5,109.9,17.2,101.1,17.2z M98.1,47.7c-5.5,0-8-4.5-8-10.5c0-5.7,2.5-10.2,8-10.2s8,4.7,8,10.5	C106.1,43.2,103.4,47.7,98.1,47.7z" class="st0"/><path d="M158.8,36.2c0-12.7-9-19-18.7-19c-11,0-19.5,7.7-19.5,19.7v1.2c0,12.2,9.2,19.5,20,19.5c8.7,0,16.5-4.2,18.2-13	h-11.2c-1.2,3-3.7,4-6.7,4c-5,0-7.7-3.5-8.2-8.2h26C158.5,39.4,158.8,37.7,158.8,36.2z M132.8,32.7c0.5-4,3-7,7.5-7	c4,0,6.7,2.7,6.7,7H132.8L132.8,32.7z" class="st0"/><path d="M183.5,17.2c-4.7,0-8.5,1.7-11.2,6H172l-1.5-5h-9.2v38h12v-22c0-4.7,2.2-7.2,6.2-7.2c3.2,0,5.7,2,5.7,7.2v22h12	V30.7C197.2,23.5,193,17.2,183.5,17.2z" class="st0"/><path d="M215.2,32c-2-0.5-3.5-1.2-3.5-3.5c0-1.7,1.2-3,4-3c3,0,4.5,1.5,4.5,4h10.7v-0.7c0-8-7.2-11.2-15.5-11.2	c-7.2,0-15.5,3-15.5,12V30c0,2.7,1,5.2,2.7,7c3.7,3.7,9.5,4.2,13.5,5.2c3.2,0.7,4,2.2,4,4c0,2.2-1.7,3.5-4.5,3.5	c-3.2,0-5.2-1.7-5.5-5.5h-10.7v0.7c0.5,9.2,7.5,12.7,16.2,12.7c7.7,0,16.2-3.5,16.2-12.5v-1c0-2.7-1-5.2-2.5-7	C226,33.2,220,32.7,215.2,32z" class="st0"/><path d="M246.4,18.5h-12v38h12V18.5z" class="st0"/><path d="M76.2,18.5H62.9L56.7,28l-6.5-9.5H36.7l12.7,17.7L35,56.4h13.2l8-11.5l8,11.5h13.7L63.2,36L76.2,18.5z" class="st0"/><path d="M240.4,0c-4,0-7.2,3.2-7.2,7.2c0,4,3.2,7.2,7.2,7.2c4,0,7.2-3.2,7.2-7.2C247.7,3.2,244.4,0,240.4,0z" class="st0"/><path d="M267.9,18.5v-1.2c0-3.2,2.2-6.5,5.7-6.5c0.5,0,3.5,0,3.5,0V0.2h-4.2c-10.2,0.2-17,8-17,17.7v0.5h-7v9h7v28.7h12	V27.5h7.7l10,26.2l-7,16.2h12.5l21.2-51.4h-12.5l-8.2,22.7l-7.5-22.7H267.9z" class="st0"/></svg>