<svg xmlns="http://www.w3.org/2000/svg" xml:space="preserve" id="Layer_1" x="0" y="0" viewBox="0 0 176 980"><style>.st0{fill:#03d47c}</style><path d="M40.6 212.5c0-12-9-20.7-20.3-20.7-11.2 0-20 8.5-20 20.7 0 12 8.8 20.5 20 20.5s20.3-8.6 20.3-20.5m110.7 78.3c0 13.5-4.9 19.6-16 21.3v38.1c21.6-1.6 35.2-13.2 40.7-33.6v-49.9c-5.2-19.7-17.5-30.7-37-30.7-21.2 0-30.8 14.3-38.2 47l-2.2 9.8c-2.2 10.3-6.7 13.9-11.4 13.9-6.7 0-11-5.6-11-14.7 0-11.5 3.7-17.6 14.8-17.6v-33.7c-25.4.8-40.4 15.6-40.4 53 0 32.3 12 51.6 38.9 51.6 21.2 0 30.8-14.3 38.2-47l2.2-9.8c2.2-10.3 7-13.9 11.7-13.9 6.7 0 9.7 5.9 9.7 16.2M176 173v-39H91v-22l81.8-29.3 3.2 1.2V45.3L55.4 0v39.8l73.7 22-73.7 21.4v50.6h-3.8c-9.9 0-19.7-7.3-19.7-18.8v-5.6H0v8C.8 151 24.3 173 53.9 173h1.5v14.6H91V173zM55.4 192.6h120.5v39H55.4zM176 868.2v-47.8l-32.5-19.1 32.5-18.9v-49.2L113.6 776l-58.4-40.2v47.9l29.1 16-29.1 16.7v49.2l58.4-40.2zm-67.2-436.4c-16.1 0-23.5-8.3-23.5-19.1 0-11.5 4.9-18.3 23.2-18.3H176v-39.1h-70.4c-38.1 0-53.3 15.4-53.3 45.7 0 13.5 5.9 25.4 17.1 33.2H55.2v36.7H176v-39.1zm35.1 439.5V940h-29.7v-55.3H81.3V940H53.1v-68.7H21V980h155V871.3zM176 691.2h-9.1c3.9-3.7 7-8.5 9.1-14v-34.6c-7.6-22.1-29.5-36.3-60.4-36.3-38.6 0-63.3 21-63.3 54 0 13.2 5.4 24.7 15.7 33.2H55.2v36.7H176zM84.3 669c0-14.7 11.3-23.5 31.3-23.5s31.3 8.8 31.3 23.5-11.5 23.5-31.3 23.5-31.3-8.8-31.3-23.5M176 559.2v-43.6c-4.8-16.7-16.4-32.3-41.1-38.6v39.6c6.6 1.7 13.4 6.9 13.5 20.8 0 12-6.9 21-24.4 23.2v-83.4h-5.1c-37.7 0-66.5 21-66.5 61.9 0 28.9 15.7 62.1 63.3 62.1 30.8 0 52.7-15.9 60.3-42m-94.9-20.1c0-11.3 6.4-18.8 20.3-20.1v40.8C86 557 81.1 548.4 81.1 539.1" class="st0"/></svg>