<svg xmlns="http://www.w3.org/2000/svg" id="Layer_1" version="1.1" viewBox="0 0 20 20"><path d="M15.116,4.503c-.55-.619-1.498-.675-2.117-.125-.619.55-.675,1.498-.125,2.118l1.78,2.003h-6.158c-.828,0-1.499.672-1.499,1.5s.671,1.5,1.499,1.5h6.158l-1.78,2.003c-.55.619-.494,1.567.125,2.118.619.55,1.567.495,2.117-.125l4.884-5.497-4.884-5.497Z"/><path d="M5.498,5c.828,0,1.499-.672,1.499-1.5s-.671-1.5-1.499-1.5H1.499C.671,2,0,2.672,0,3.5v13c0,.828.671,1.5,1.499,1.5h3.999c.828,0,1.499-.672,1.499-1.5s-.671-1.5-1.499-1.5h-2.499V5h2.499Z"/></svg>