<?xml version="1.0" encoding="utf-8"?>
<!-- Generator: Adobe Illustrator 24.3.0, SVG Export Plug-In . SVG Version: 6.00 Build 0)  -->
<svg version="1.1" id="Layer_1" xmlns="http://www.w3.org/2000/svg" xmlns:xlink="http://www.w3.org/1999/xlink" x="0px" y="0px"
	 viewBox="0 0 20 20" style="enable-background:new 0 0 20 20;" xml:space="preserve">
<g>
	<path d="M6.3,8.9c0.1,1.9,1.6,3.5,3.6,3.6L6.3,8.9z"/>
	<path d="M10,14.4c-3.8,0-7-3.4-7.9-4.4c0.4-0.5,1.5-1.5,2.8-2.5L4,6.6C2.7,7.5,1.7,8.5,1.1,9.2c-0.4,0.5-0.4,1.2,0,1.6
		c1.3,1.4,4.7,4.8,8.9,4.8c0.9,0,1.7-0.2,2.6-0.4l-1-1C11,14.3,10.5,14.4,10,14.4z"/>
	<path d="M8.9,5.7C9.2,5.7,9.6,5.6,10,5.6s0.8,0,1.1,0.1c0.1,0.2,0.1,0.3,0.1,0.5c0,0.6-0.5,1.2-1.1,1.2l3.1,3.1
		c0.3-0.5,0.5-1.2,0.5-1.8c0-1-0.4-1.9-1-2.6c2.5,1,4.5,3.1,5.2,3.8c-0.4,0.5-1.4,1.5-2.8,2.5l0.9,0.9c1.3-0.9,2.3-1.9,2.8-2.6
		c0.4-0.5,0.4-1.2,0-1.6l0,0c-1.3-1.4-4.7-4.8-8.9-4.8c-0.9,0-1.7,0.2-2.6,0.4l1.3,1.3C8.8,6,8.8,5.9,8.9,5.7z"/>
	<path d="M2.1,1.2C2,1.1,1.9,1.1,1.7,1.1S1.4,1.1,1.2,1.2C1,1.5,1,1.9,1.3,2.1l16.6,16.6c0.1,0.1,0.3,0.2,0.4,0.2s0.3-0.1,0.4-0.2
		c0.2-0.2,0.2-0.6,0-0.9L2.1,1.2z"/>
</g>
</svg>
