<?xml version="1.0" encoding="utf-8"?>
<!-- Generator: Adobe Illustrator 26.5.0, SVG Export Plug-In . SVG Version: 6.00 Build 0)  -->
<svg version="1.1" id="Layer_1" xmlns="http://www.w3.org/2000/svg" xmlns:xlink="http://www.w3.org/1999/xlink" x="0px" y="0px"
	 viewBox="0 0 20 20" style="enable-background:new 0 0 20 20;" xml:space="preserve">
<style type="text/css">
	.st0{fill-rule:evenodd;clip-rule:evenodd;}
</style>
<path class="st0" d="M10,4C6.6,4,3.6,5.5,1.6,7.8c-0.8,1-0.8,2.5,0,3.4c2,2.3,5,3.8,8.4,3.8c3.4,0,6.4-1.5,8.4-3.8
	c0.8-1,0.8-2.5,0-3.4C16.4,5.5,13.4,4,10,4z M6.5,6.6C5.1,7.2,3.9,8.1,3,9.1C2.8,9.3,2.8,9.7,3,9.9c0.9,1.1,2.1,1.9,3.5,2.5
	c-0.6-0.8-1-1.8-1-2.9C5.5,8.4,5.9,7.4,6.5,6.6z M13.5,12.4c1.4-0.5,2.6-1.4,3.5-2.5c0.2-0.2,0.2-0.5,0-0.8
	c-0.9-1.1-2.1-1.9-3.5-2.5c0.6,0.8,1,1.8,1,2.9C14.5,10.6,14.1,11.6,13.5,12.4z"/>
</svg>
