<svg xmlns="http://www.w3.org/2000/svg" xml:space="preserve" id="Layer_1" x="0" y="0" viewBox="0 0 20 20"><style>.st0{fill-rule:evenodd;clip-rule:evenodd}</style><path d="M10 4C6.6 4 3.6 5.5 1.6 7.8c-.8 1-.8 2.5 0 3.4 2 2.3 5 3.8 8.4 3.8s6.4-1.5 8.4-3.8c.8-1 .8-2.5 0-3.4-2-2.3-5-3.8-8.4-3.8M6.5 6.6C5.1 7.2 3.9 8.1 3 9.1c-.2.2-.2.6 0 .8.9 1.1 2.1 1.9 3.5 2.5-.6-.8-1-1.8-1-2.9s.4-2.1 1-2.9m7 5.8c1.4-.5 2.6-1.4 3.5-2.5.2-.2.2-.5 0-.8-.9-1.1-2.1-1.9-3.5-2.5.6.8 1 1.8 1 2.9s-.4 2.1-1 2.9" class="st0"/></svg>