<?xml version="1.0" encoding="utf-8"?>
<!-- Generator: Adobe Illustrator 24.3.0, SVG Export Plug-In . SVG Version: 6.00 Build 0)  -->
<svg version="1.1" id="Layer_1" xmlns="http://www.w3.org/2000/svg" xmlns:xlink="http://www.w3.org/1999/xlink" x="0px" y="0px"
	 viewBox="0 0 20 20" style="enable-background:new 0 0 20 20;" xml:space="preserve">
<path d="M18.9,9.1c-1.2-1.5-4.8-4.8-8.9-4.8S2.4,7.8,1.1,9.1c-0.4,0.5-0.4,1.1,0,1.6c1.2,1.5,4.8,4.8,8.9,4.8s7.6-3.4,8.9-4.8
	C19.2,10.4,19.2,9.6,18.9,9.1z M11.2,6.2c0,0.8-0.5,1.2-1.2,1.2S8.8,7,8.8,6.2c0-0.1,0-0.4,0.1-0.5C9.2,5.6,9.6,5.6,10,5.6
	s0.8,0,1.1,0.1C11.2,5.9,11.2,6.1,11.2,6.2z M10,14.4c-3.8,0-7-3.4-7.9-4.4c0.6-0.8,2.6-2.9,5.2-3.9C6.6,6.9,6.2,7.8,6.2,8.8
	c0,2.1,1.6,3.8,3.8,3.8s3.8-1.6,3.8-3.8c0-1-0.4-1.9-1-2.6c2.5,1,4.5,3,5.2,3.9C17,11,13.8,14.4,10,14.4z"/>
</svg>
