<?xml version="1.0" encoding="utf-8"?>
<!-- Generator: Adobe Illustrator 24.3.0, SVG Export Plug-In . SVG Version: 6.00 Build 0)  -->
<svg version="1.1" id="Layer_1" xmlns="http://www.w3.org/2000/svg" xmlns:xlink="http://www.w3.org/1999/xlink" x="0px" y="0px"
	 viewBox="0 0 1260 812" style="enable-background:new 0 0 1260 812;" xml:space="preserve">
<style type="text/css">
	.st0{fill:#03D47C;}
	.st1{fill-rule:evenodd;clip-rule:evenodd;fill:#0B1B34;}
	.st2{fill:#FFFAF0;}
	.st3{fill:#0B1B34;}
</style>
<rect class="st0" width="1260" height="812"/>
<path class="st1" d="M919,475H340v105h579V475z M396.3,538.7c0,12.1-6.7,18.7-18,18.7c-11.2,0-17.9-6.7-17.9-18.7v-24.4
	c0-12.1,6.7-18.7,17.9-18.7c11.3,0,18,6.7,18,18.7V538.7z M372.4,540.1c0,5.3,2.2,8.2,6,8.2c3.9,0,6.1-2.9,6.1-8.2v-27.3
	c0-5.3-2.2-8.2-6.1-8.2c-3.8,0-6,2.9-6,8.2V540.1z M413.3,527.1V556h-10.2v-59h12.4l9.9,28.7c0.9,2.9,1.7,5.9,2.4,8.8h0.2
	c-0.2-4.3-0.4-8.6-0.4-13.1V497h10.1v59h-11.1l-10.8-31.1c-1.2-3.5-1.9-6.3-2.6-9.3h-0.2C413.1,519.4,413.3,523.1,413.3,527.1z
	 M457.7,530.1h14.2v-8.9h-14.2v-15.3H473V497h-26.9v59h27.5v-8.9h-16V530.1z M516.5,497l11.5,59h-11.6l-2.2-13.8h-10.7l-2.2,13.8
	h-11.6l11.6-59H516.5z M507.9,513.7c-0.1,0.5-0.2,1-0.2,1.5l-2.9,18.6h8.2l-2.9-18.6c-0.4-2.8-0.7-5.2-1.1-8.4h-0.2
	C508.5,509.4,508.2,511.4,507.9,513.7L507.9,513.7z M533.2,497v59h11.6v-22.6h4.9c10.6,0,16.4-5.8,16.4-16.4v-4.9
	c-0.1-10-5.7-15.1-16.6-15.1H533.2z M554.2,516.8c0,5.9-1.8,8.4-5.9,8.4h-3.5V505h3.5c4.1,0,5.9,2.2,5.9,7.6V516.8z M571,556v-59
	h16.2c11,0,16.5,5.2,16.6,15.1v4.9c0,10.6-5.8,16.4-16.4,16.4h-4.9V556H571z M586.1,525.2c4.1,0,5.9-2.5,5.9-8.4v-4.3
	c0-5.3-1.8-7.6-5.9-7.6h-3.5v20.3H586.1z M607.5,543.7c-3.9,0-6.7,2.7-6.7,6.4c0,3.6,2.2,6.2,5.4,6.2c1.5,0,2.7-0.4,3.7-1.3
	c-0.7,4.2-3.6,7.5-8.5,8.8l1.7,4.7c7.7-2.3,11.9-7.8,11.9-15.6C615,547.2,612.1,543.7,607.5,543.7z M658.5,497l11.5,59h-11.6
	l-2.2-13.8h-10.7l-2.2,13.8h-11.6l11.6-59H658.5z M649.9,513.7L649.9,513.7c-0.1,0.5-0.2,1-0.2,1.5l-2.9,18.6h8.2l-2.9-18.6
	c-0.4-2.8-0.7-5.2-1.1-8.4h-0.2C650.5,509.4,650.2,511.4,649.9,513.7z M701.3,556v-10.1h-14.5V497h-11.6v59H701.3z M732.5,545.9V556
	h-26.1v-59h11.6v48.9H732.5z"/>
<path class="st2" d="M778.2,497h-26.9v59h11.6v-25.9H777v-8.9h-14.2V506h15.4V497z"/>
<path class="st2" d="M817.3,556l-8.3-26.8c4.4-2.2,7-6.7,7-13.6v-2.8c-0.1-9.9-4.9-15.8-17.2-15.8h-15.7v59h11.6v-24h4.2l6.5,24
	H817.3z M794.6,505h3.4c4.4,0,6.1,2.1,6.1,7.5v3.7c0,5.7-1.6,8.4-6.1,8.4h-3.4V505z"/>
<path class="st2" d="M833.9,530.1h14.2v-8.9h-14.2v-15.3h15.4V497h-26.9v59h27.5v-8.9h-16V530.1z"/>
<path class="st2" d="M867,530.1h14.2v-8.9H867v-15.3h15.4V497h-26.9v59H883v-8.9h-16V530.1z"/>
<path class="st2" d="M894.1,556.6c3.9,0,6.7-2.7,6.7-6.7c0-4-2.8-6.7-6.7-6.7c-3.8,0-6.7,2.7-6.7,6.7
	C887.4,553.8,890.3,556.6,894.1,556.6z"/>
<path class="st3" d="M394.6,290.7l-7.9-25.5c4.2-2.1,6.7-6.3,6.7-13v-2.7c-0.1-9.4-4.7-15.1-16.4-15.1h-15v56.3h11v-22.9h4l6.2,22.9
	H394.6z M373,242h3.2c4.2,0,5.8,2,5.8,7.1v3.6c0,5.5-1.5,8-5.8,8H373V242z"/>
<path class="st3" d="M410.4,265.9H424v-8.5h-13.5v-14.6h14.7v-8.5h-25.7v56.3h26.2v-8.5h-15.2V265.9z"/>
<path class="st3" d="M445.3,292c10.1,0,16.2-5.5,16.2-15.8v-6.1l-11.2-2.3v8.4c0,4.6-1.7,7.1-5,7.1c-3.4,0-5.2-2.9-5.2-8.2v-25.5
	c0-5.5,1.8-7.9,5.2-7.9c3.3,0,4.9,2.4,4.9,7.1v7.5l11.3-2.1v-5.7c0-10.3-5.8-15.4-16-15.4c-10.8,0-16.8,6-16.8,17.5v23.9
	C428.8,286.1,434.6,292,445.3,292z"/>
<path class="st3" d="M478.8,265.9h13.5v-8.5h-13.5v-14.6h14.7v-8.5h-25.7v56.3H494v-8.5h-15.2V265.9z"/>
<path class="st3" d="M510.4,234.3h-11v56.3h11V234.3z"/>
<path class="st3" d="M518.5,234.3v56.3h11v-21.6h4.7c10.1,0,15.6-5.6,15.6-15.6v-4.7c-0.1-9.5-5.4-14.4-15.8-14.4H518.5z
	 M538.4,253.3c0,5.6-1.7,8-5.6,8h-3.3V242h3.3c3.9,0,5.6,2.1,5.6,7.2V253.3z"/>
<path class="st3" d="M550.4,234.3v9.4h10.7v46.9H572v-46.9h10.7v-9.4H550.4z"/>
<path class="st3" d="M613,292c10.4,0,15.8-5.6,15.8-13.7V274c0-5.9-1.6-9.9-7.9-13.8l-8.1-4.9c-2.6-1.7-4-3.7-4-6.7v-2.5
	c0-2.7,1.6-4.8,4.4-4.8c3.3,0,4.7,2.5,4.7,6.3v6l10.9-2.1v-4.1c0-10.6-6-14.4-15.6-14.4c-8.6,0-15.4,4.5-15.4,13.7v2.9
	c0,5.9,2,10.2,7.8,13.6l8,4.9c3.6,2.3,4.1,4,4.1,7.5v2.3c0,3.1-1.3,5.5-4.4,5.5c-3.2,0-4.8-2.6-4.8-7.1V270l-11.2,2.1v4.5
	C597.2,286.1,602.9,292,613,292z"/>
<path class="st3" d="M648.8,292c10.1,0,16.2-5.5,16.2-15.8v-6.1l-11.2-2.3v8.4c0,4.6-1.7,7.1-5,7.1c-3.4,0-5.2-2.9-5.2-8.2v-25.5
	c0-5.5,1.8-7.9,5.2-7.9c3.3,0,4.9,2.4,4.9,7.1v7.5l11.3-2.1v-5.7c0-10.3-5.8-15.4-16-15.4c-10.8,0-16.8,6-16.8,17.5v23.9
	C632.3,286.1,638.1,292,648.8,292z"/>
<path class="st3" d="M703.9,290.7L693,234.3h-14.4l-11,56.3h11l2.1-13.2h10.2l2.1,13.2H703.9z M684.6,251.7c0.4-2.7,0.8-5,1-8h0.2
	c0.3,3,0.6,5.3,1,8l2.8,17.8h-7.8L684.6,251.7z"/>
<path class="st3" d="M718.6,290.7v-27.6c0-3.8-0.2-7.3-0.4-10.9h0.2c0.6,2.9,1.3,5.6,2.5,8.9l10.3,29.7h10.6v-56.3h-9.7v23.3
	c0,4.2,0.2,8.3,0.4,12.5h-0.2c-0.6-2.8-1.4-5.6-2.3-8.4l-9.4-27.4h-11.8v56.3H718.6z"/>
<path class="st3" d="M759.6,290.7v-27.6c0-3.8-0.2-7.3-0.4-10.9h0.2c0.6,2.9,1.3,5.6,2.5,8.9l10.3,29.7h10.6v-56.3h-9.7v23.3
	c0,4.2,0.2,8.3,0.4,12.5h-0.2c-0.6-2.8-1.4-5.6-2.3-8.4l-9.4-27.4h-11.8v56.3H759.6z"/>
<path class="st3" d="M801.9,234.3h-11v56.3h11V234.3z"/>
<path class="st3" d="M819.7,290.7v-27.6c0-3.8-0.2-7.3-0.4-10.9h0.2c0.6,2.9,1.3,5.6,2.5,8.9l10.3,29.7h10.6v-56.3h-9.7v23.3
	c0,4.2,0.2,8.3,0.4,12.5h-0.2c-0.6-2.8-1.4-5.6-2.3-8.4l-9.4-27.4H810v56.3H819.7z"/>
<path class="st3" d="M862.6,292c6.2,0,10-3.7,11.2-9.4l0.6,8h7.9v-30.8h-16.7v8.4h6.3v7.1c0,4.8-1.7,8.1-5.5,8.1s-5.6-3.3-5.6-8.9
	v-24.5c0-5.8,1.7-8.8,5.4-8.8c3.3,0,4.8,2.4,4.8,6.7v6.1l11.2-2.1v-4.4c0-9.2-5.7-14.6-15.9-14.6c-10.9,0-16.9,6.8-16.9,18.7v22.4
	C849.3,285.6,853.9,292,862.6,292z"/>
<path class="st3" d="M894.6,291.2c3.7,0,6.4-2.6,6.4-6.4c0-3.8-2.7-6.4-6.4-6.4c-3.6,0-6.3,2.6-6.3,6.4
	C888.2,288.6,890.9,291.2,894.6,291.2z"/>
<path class="st3" d="M372.8,346.8h13.3v-8.2h-13.3v-14.1h14.4v-8.2H362v54.4h25.7v-8.2h-14.9V346.8z"/>
<path class="st3" d="M401.4,370.7l4.6-17.5c0.6-2.5,0.9-4.4,1.1-6.6h0.2c0.3,2.8,0.5,4.9,1.1,6.6l4.7,17.5h11.4l-9.5-28.8l8.7-25.6
	h-11.2l-4.1,13.7c-0.6,2.4-0.8,4.2-1.2,6.7h-0.2c-0.3-2.6-0.5-4.4-1.2-6.7l-3.9-13.7h-11.3l8.9,25.5l-9.6,28.9H401.4z"/>
<path class="st3" d="M429.1,316.3v54.4h10.8v-20.8h4.6c9.9,0,15.3-5.4,15.3-15.1v-4.5c-0.1-9.2-5.3-13.9-15.5-13.9H429.1z
	 M448.7,334.6c0,5.4-1.7,7.7-5.5,7.7h-3.3v-18.7h3.3c3.8,0,5.5,2.1,5.5,7V334.6z"/>
<path class="st3" d="M475.3,346.8h13.3v-8.2h-13.3v-14.1h14.4v-8.2h-25.2v54.4h25.7v-8.2h-14.9V346.8z"/>
<path class="st3" d="M505,370.7V344c0-3.7-0.2-7-0.4-10.6h0.2c0.6,2.8,1.3,5.4,2.4,8.6l10.1,28.7h10.4v-54.4h-9.5v22.5
	c0,4.1,0.2,8,0.4,12h-0.2c-0.6-2.7-1.4-5.4-2.3-8.1l-9.3-26.4h-11.6v54.4H505z"/>
<path class="st3" d="M548.5,372c10.2,0,15.5-5.4,15.5-13.3v-4.1c0-5.7-1.6-9.6-7.8-13.3l-7.9-4.8c-2.6-1.6-4-3.6-4-6.4v-2.5
	c0-2.6,1.6-4.6,4.3-4.6c3.3,0,4.6,2.4,4.6,6.1v5.8l10.7-2v-4c0-10.3-5.9-13.9-15.3-13.9c-8.5,0-15.2,4.4-15.2,13.3v2.8
	c0,5.7,1.9,9.8,7.6,13.2l7.9,4.8c3.5,2.2,4,3.9,4,7.3v2.2c0,3-1.2,5.3-4.4,5.3c-3.2,0-4.7-2.5-4.7-6.9v-6.2l-11,2.1v4.4
	C533,366.3,538.6,372,548.5,372z"/>
<path class="st3" d="M579.9,346.8h13.3v-8.2h-13.3v-14.1h14.4v-8.2h-25.2v54.4h25.7v-8.2h-14.9V346.8z"/>
<path class="st3" d="M609,316.3v9h10.5v45.4h10.7v-45.4h10.5v-9H609z"/>
<path class="st3" d="M676.7,370.7l-7.8-24.7c4.1-2,6.5-6.1,6.5-12.6v-2.6c-0.1-9.1-4.6-14.6-16.1-14.6h-14.7v54.4h10.8v-22.1h3.9
	l6.1,22.1H676.7z M655.5,323.7h3.2c4.1,0,5.7,1.9,5.7,6.9v3.4c0,5.3-1.5,7.7-5.7,7.7h-3.2V323.7z"/>
<path class="st3" d="M714.7,370.7L704,316.3h-14.1L679,370.7h10.8l2-12.7h10l2,12.7H714.7z M695.8,333.1c0.4-2.6,0.8-4.8,1-7.7h0.2
	c0.3,2.9,0.6,5.1,1,7.7l2.7,17.2H693L695.8,333.1z"/>
<path class="st3" d="M733.2,372c10,0,15.9-5.3,15.9-15.2v-5.9l-11-2.2v8.1c0,4.4-1.7,6.8-4.9,6.8c-3.3,0-5.1-2.8-5.1-8V331
	c0-5.3,1.8-7.7,5.1-7.7c3.3,0,4.8,2.3,4.8,6.8v7.3l11.1-2.1v-5.5c0-10-5.7-14.9-15.7-14.9c-10.6,0-16.5,5.8-16.5,16.9V355
	C717,366.3,722.6,372,733.2,372z"/>
<path class="st3" d="M788.3,370.7L778,337.5l9.9-21.2h-11.1l-10.6,25.4v-25.4h-10.8v54.4h10.8v-15.9l4-8.4l6.8,24.3H788.3z"/>
<path class="st3" d="M803.7,316.3h-10.8v54.4h10.8V316.3z"/>
<path class="st3" d="M821.2,370.7V344c0-3.7-0.2-7-0.4-10.6h0.2c0.6,2.8,1.3,5.4,2.4,8.6l10.1,28.7H844v-54.4h-9.5v22.5
	c0,4.1,0.2,8,0.4,12h-0.2c-0.6-2.7-1.4-5.4-2.3-8.1l-9.3-26.4h-11.6v54.4H821.2z"/>
<path class="st3" d="M863.3,372c6.1,0,9.8-3.6,11-9l0.5,7.7h7.8v-29.8h-16.4v8.1h6.1v6.9c0,4.6-1.6,7.8-5.4,7.8
	c-3.7,0-5.5-3.1-5.5-8.6v-23.7c0-5.6,1.7-8.5,5.3-8.5c3.3,0,4.7,2.3,4.7,6.4v5.9l11-2v-4.2c0-8.9-5.6-14.1-15.6-14.1
	c-10.7,0-16.6,6.6-16.6,18.1v21.6C850.3,365.8,854.8,372,863.3,372z"/>
<path class="st3" d="M894.7,371.2c3.7,0,6.3-2.5,6.3-6.2c0-3.7-2.6-6.2-6.3-6.2c-3.6,0-6.2,2.5-6.2,6.2
	C888.5,368.7,891.1,371.2,894.7,371.2z"/>
<path class="st3" d="M396.1,453.6l-8.3-26.4c4.4-2.1,7-6.6,7-13.4V411c-0.1-9.8-4.9-15.6-17.1-15.6H362v58.2h11.5v-23.7h4.1
	l6.5,23.7H396.1z M373.5,403.3h3.4c4.4,0,6,2,6,7.4v3.7c0,5.7-1.6,8.3-6,8.3h-3.4V403.3z"/>
<path class="st3" d="M412.6,428h14.2v-8.8h-14.2v-15.1H428v-8.8h-26.8v58.2h27.4v-8.8h-15.9V428z"/>
<path class="st3" d="M445.6,395.4h-11.5v58.2h11.5V395.4z"/>
<path class="st3" d="M463.9,453.6v-29.3c0-4.7,0-11.2-0.2-15.8h0.4c0.1,1.7,0.6,4.9,1.1,8.6l6.3,36.5h8.3l6.2-36.5
	c0.6-3.7,0.8-5.8,1.2-8.6h0.3c-0.2,4.7-0.2,11.2-0.2,15.8v29.3h9.9v-58.2h-15.5l-4.9,30.3c-0.4,3.1-0.9,6.3-0.9,8.5h-0.3
	c-0.1-2.2-0.5-5.4-1-8.5l-5-30.3h-15.4v58.2H463.9z"/>
<path class="st3" d="M530.1,422.9c4.7-1.4,7.5-5.4,7.5-11.1v-2c0-8.7-5-14.3-16-14.3h-16.1v58.2h16.6c10.9,0,16.2-5.9,16.2-15.8
	v-1.7C538.4,428.5,535.2,424.5,530.1,422.9z M520.2,403.3c4.1,0,5.6,2.1,5.6,6.8v1.9c0,5.6-1.4,8.2-5.5,8.2H517v-16.9H520.2z
	 M526.5,437.6c0,5.3-1.5,8.1-5.5,8.1h-4v-18.4h3.7c4.1,0,5.8,2.4,5.8,8.2V437.6z"/>
<path class="st3" d="M543.7,439.4c0,9.6,6,15.6,16.8,15.6c10.8,0,16.7-6,16.7-15.6v-44h-11.4v43.5c0,4.2-2,6.5-5.3,6.5
	c-3.5,0-5.3-2.3-5.3-6.5v-43.5h-11.5V439.4z"/>
<path class="st3" d="M619.3,453.6l-8.3-26.4c4.4-2.1,7-6.6,7-13.4V411c-0.1-9.8-4.9-15.6-17.1-15.6h-15.6v58.2h11.5v-23.7h4.1
	l6.5,23.7H619.3z M596.7,403.3h3.4c4.4,0,6,2,6,7.4v3.7c0,5.7-1.6,8.3-6,8.3h-3.4V403.3z"/>
<path class="st3" d="M637.5,455c10.8,0,16.5-5.8,16.5-14.2v-4.4c0-6.1-1.7-10.2-8.3-14.3l-8.4-5.1c-2.7-1.7-4.2-3.9-4.2-6.9v-2.6
	c0-2.8,1.7-4.9,4.6-4.9c3.5,0,4.9,2.5,4.9,6.5v6.2l11.4-2.1v-4.3c0-11-6.3-14.9-16.3-14.9c-9,0-16.1,4.7-16.1,14.2v3
	c0,6.1,2.1,10.5,8.1,14.1l8.4,5.1c3.7,2.4,4.3,4.2,4.3,7.8v2.4c0,3.2-1.3,5.7-4.6,5.7c-3.4,0-5-2.7-5-7.4v-6.6l-11.7,2.2v4.7
	C620.9,448.9,626.9,455,637.5,455z"/>
<path class="st3" d="M670.9,428H685v-8.8h-14.2v-15.1h15.3v-8.8h-26.8v58.2h27.4v-8.8h-15.9V428z"/>
<path class="st3" d="M702.1,453.6v-29.3c0-4.7,0-11.2-0.2-15.8h0.4c0.1,1.7,0.6,4.9,1.1,8.6l6.3,36.5h8.3l6.2-36.5
	c0.6-3.7,0.8-5.8,1.2-8.6h0.3c-0.2,4.7-0.2,11.2-0.2,15.8v29.3h9.9v-58.2h-15.5l-4.9,30.3c-0.4,3.1-0.9,6.3-0.9,8.5h-0.3
	c-0.1-2.2-0.5-5.4-1-8.5l-5-30.3h-15.4v58.2H702.1z"/>
<path class="st3" d="M755.3,428h14.2v-8.8h-14.2v-15.1h15.3v-8.8h-26.8v58.2h27.4v-8.8h-15.9V428z"/>
<path class="st3" d="M787,453.6v-28.5c0-3.9-0.2-7.5-0.4-11.3h0.2c0.7,3,1.4,5.7,2.6,9.2l10.8,30.7h11.1v-58.2h-10.1v24.1
	c0,4.3,0.2,8.6,0.4,12.9h-0.2c-0.7-2.9-1.5-5.8-2.4-8.7l-9.9-28.3h-12.3v58.2H787z"/>
<path class="st3" d="M815.3,395.4v9.7h11.2v48.5h11.4v-48.5h11.2v-9.7H815.3z"/>
<path class="st3" d="M866.9,455c10.8,0,16.5-5.8,16.5-14.2v-4.4c0-6.1-1.7-10.2-8.3-14.3l-8.4-5.1c-2.7-1.7-4.2-3.9-4.2-6.9v-2.6
	c0-2.8,1.7-4.9,4.6-4.9c3.5,0,4.9,2.5,4.9,6.5v6.2l11.4-2.1v-4.3c0-11-6.3-14.9-16.3-14.9c-9,0-16.1,4.7-16.1,14.2v3
	c0,6.1,2.1,10.5,8.1,14.1l8.4,5.1c3.7,2.4,4.3,4.2,4.3,7.8v2.4c0,3.2-1.3,5.7-4.6,5.7c-3.4,0-5-2.7-5-7.4v-6.6l-11.7,2.2v4.7
	C850.4,448.9,856.3,455,866.9,455z"/>
<path class="st3" d="M894.3,454.2c3.9,0,6.7-2.7,6.7-6.6c0-3.9-2.8-6.6-6.7-6.6c-3.8,0-6.6,2.7-6.6,6.6
	C887.7,451.5,890.5,454.2,894.3,454.2z"/>
</svg>
