<?xml version="1.0" encoding="utf-8"?>
<!-- Generator: Adobe Illustrator 24.3.0, SVG Export Plug-In . SVG Version: 6.00 Build 0)  -->
<svg version="1.1" id="Layer_1" xmlns="http://www.w3.org/2000/svg" xmlns:xlink="http://www.w3.org/1999/xlink" x="0px" y="0px"
	 viewBox="0 0 1260 812" style="enable-background:new 0 0 1260 812;" xml:space="preserve">
<style type="text/css">
	.st0{fill:#0185FF;}
	.st1{fill:#0B1B34;}
	.st2{fill-rule:evenodd;clip-rule:evenodd;fill:#0B1B34;}
	.st3{fill:#FFFAF0;}
</style>
<rect class="st0" width="1260" height="812"/>
<path class="st1" d="M376.8,286c10.3,0,16.4-5.5,16.4-15.8v-6.1l-11.4-2.3v8.4c0,4.6-1.8,7.1-5.1,7.1c-3.4,0-5.3-2.9-5.3-8.2v-25.5
	c0-5.5,1.8-7.9,5.3-7.9c3.4,0,5,2.4,5,7.1v7.5l11.5-2.1v-5.7c0-10.3-5.9-15.4-16.2-15.4c-10.9,0-17,6-17,17.5v23.9
	C360,280.1,365.9,286,376.8,286z"/>
<path class="st1" d="M415.1,286c10.9,0,17.3-6.3,17.3-17.8v-23.3c0-11.5-6.4-17.8-17.3-17.8c-10.8,0-17.2,6.3-17.2,17.8v23.3
	C397.8,279.7,404.2,286,415.1,286z M415.1,277.4c-3.7,0-5.8-2.8-5.8-7.9v-26c0-5.1,2.1-7.9,5.8-7.9c3.8,0,5.9,2.8,5.9,7.9v26
	C420.9,274.6,418.8,277.4,415.1,277.4z"/>
<path class="st1" d="M471.9,284.7l-8-25.5c4.3-2.1,6.7-6.3,6.7-13v-2.7c-0.1-9.4-4.7-15.1-16.6-15.1h-15.2v56.3h11.1v-22.9h4
	l6.3,22.9H471.9z M450.1,236h3.3c4.3,0,5.9,2,5.9,7.1v3.6c0,5.5-1.5,8-5.9,8h-3.3V236z"/>
<path class="st1" d="M476.8,228.3v56.3H488v-21.6h4.7c10.2,0,15.8-5.6,15.8-15.6v-4.7c-0.1-9.5-5.5-14.4-16-14.4H476.8z M497,247.3
	c0,5.6-1.8,8-5.7,8H488V236h3.4c3.9,0,5.7,2.1,5.7,7.2V247.3z"/>
<path class="st1" d="M529.5,286c10.9,0,17.3-6.3,17.3-17.8v-23.3c0-11.5-6.4-17.8-17.3-17.8c-10.8,0-17.2,6.3-17.2,17.8v23.3
	C512.2,279.7,518.7,286,529.5,286z M529.5,277.4c-3.7,0-5.8-2.8-5.8-7.9v-26c0-5.1,2.1-7.9,5.8-7.9c3.8,0,5.9,2.8,5.9,7.9v26
	C535.3,274.6,533.3,277.4,529.5,277.4z"/>
<path class="st1" d="M586.4,284.7l-8-25.5c4.3-2.1,6.7-6.3,6.7-13v-2.7c-0.1-9.4-4.7-15.1-16.6-15.1h-15.2v56.3h11.1v-22.9h4
	l6.3,22.9H586.4z M564.5,236h3.3c4.3,0,5.9,2,5.9,7.1v3.6c0,5.5-1.5,8-5.9,8h-3.3V236z"/>
<path class="st1" d="M625.6,284.7l-11.1-56.3H600l-11.1,56.3H600l2.1-13.2h10.3l2.1,13.2H625.6z M606.1,245.7c0.4-2.7,0.8-5,1-8h0.2
	c0.3,3,0.6,5.3,1,8l2.8,17.8h-7.9L606.1,245.7z"/>
<path class="st1" d="M622,228.3v9.4h10.8v46.9h11.1v-46.9h10.8v-9.4H622z"/>
<path class="st1" d="M669.9,259.9h13.7v-8.5h-13.7v-14.6h14.8v-8.5h-26v56.3h26.5v-8.5h-15.4V259.9z"/>
<path class="st1" d="M719.2,286c10.3,0,16.4-5.5,16.4-15.8v-6.1l-11.4-2.3v8.4c0,4.6-1.8,7.1-5.1,7.1c-3.4,0-5.3-2.9-5.3-8.2v-25.5
	c0-5.5,1.8-7.9,5.3-7.9c3.4,0,5,2.4,5,7.1v7.5l11.5-2.1v-5.7c0-10.3-5.9-15.4-16.2-15.4c-10.9,0-17,6-17,17.5v23.9
	C702.4,280.1,708.3,286,719.2,286z"/>
<path class="st1" d="M774.9,284.7l-11.1-56.3h-14.6l-11.1,56.3h11.1l2.1-13.2h10.3l2.1,13.2H774.9z M755.3,245.7c0.4-2.7,0.8-5,1-8
	h0.2c0.3,3,0.6,5.3,1,8l2.8,17.8h-7.9L755.3,245.7z"/>
<path class="st1" d="M813,284.7l-8-25.5c4.2-2.1,6.7-6.3,6.7-13v-2.7c-0.1-9.4-4.7-15.1-16.6-15.1H780v56.3h11.1v-22.9h4l6.3,22.9
	H813z M791.1,236h3.3c4.2,0,5.9,2,5.9,7.1v3.6c0,5.5-1.5,8-5.9,8h-3.3V236z"/>
<path class="st1" d="M832.9,284.7c12,0,18.4-7,18.4-20.2v-16.7c0-12.7-6.4-19.4-18.3-19.4h-15.1v56.3H832.9z M829,236.4h3.4
	c5.1,0,7.3,3.4,7.3,10.9v17.9c0,7.4-2.3,11.4-7.3,11.4H829V236.4z"/>
<path class="st1" d="M871,286c10.5,0,16-5.6,16-13.7V268c0-5.9-1.6-9.9-8-13.8l-8.2-4.9c-2.6-1.7-4.1-3.7-4.1-6.7v-2.5
	c0-2.7,1.6-4.8,4.4-4.8c3.4,0,4.7,2.5,4.7,6.3v6l11.1-2.1v-4.1c0-10.6-6.1-14.4-15.8-14.4c-8.7,0-15.6,4.5-15.6,13.7v2.9
	c0,5.9,2,10.2,7.9,13.6l8.1,4.9c3.6,2.3,4.2,4,4.2,7.5v2.3c0,3.1-1.3,5.5-4.5,5.5c-3.3,0-4.8-2.6-4.8-7.1V264l-11.3,2.1v4.5
	C854.9,280.1,860.7,286,871,286z"/>
<path class="st1" d="M897.5,285.2c3.8,0,6.5-2.6,6.5-6.4c0-3.8-2.7-6.4-6.5-6.4c-3.7,0-6.4,2.6-6.4,6.4
	C891.1,282.6,893.8,285.2,897.5,285.2z"/>
<path class="st1" d="M396.3,372.6l-8.3-26.4c4.4-2.1,7-6.6,7-13.4V330c-0.1-9.8-4.9-15.6-17.2-15.6H362v58.2h11.6v-23.7h4.2
	l6.5,23.7H396.3z M373.6,322.3h3.4c4.4,0,6.1,2,6.1,7.4v3.7c0,5.7-1.6,8.3-6.1,8.3h-3.4V322.3z"/>
<path class="st1" d="M412.9,347h14.2v-8.8h-14.2v-15.1h15.4v-8.8h-27v58.2h27.6v-8.8h-16V347z"/>
<path class="st1" d="M446.1,314.4h-11.6v58.2h11.6V314.4z"/>
<path class="st1" d="M464.4,372.6v-29.3c0-4.7,0-11.2-0.2-15.8h0.4c0.1,1.7,0.6,4.9,1.1,8.6l6.3,36.5h8.3l6.2-36.5
	c0.6-3.7,0.8-5.8,1.2-8.6h0.3c-0.2,4.7-0.2,11.2-0.2,15.8v29.3h10v-58.2h-15.6l-4.9,30.3c-0.4,3.1-0.9,6.3-0.9,8.5h-0.3
	c-0.1-2.2-0.5-5.4-1-8.5l-5-30.3h-15.5v58.2H464.4z"/>
<path class="st1" d="M531,341.9c4.7-1.4,7.6-5.4,7.6-11.1v-2c0-8.7-5-14.3-16.1-14.3h-16.2v58.2H523c11,0,16.3-5.9,16.3-15.8v-1.7
	C539.4,347.5,536.1,343.5,531,341.9z M521.1,322.3c4.2,0,5.7,2.1,5.7,6.8v1.9c0,5.6-1.4,8.2-5.6,8.2h-3.3v-16.9H521.1z M527.5,356.6
	c0,5.3-1.5,8.1-5.6,8.1h-4v-18.4h3.7c4.1,0,5.8,2.4,5.8,8.2V356.6z"/>
<path class="st1" d="M544.8,358.4c0,9.6,6,15.6,16.9,15.6c10.8,0,16.8-6,16.8-15.6v-44H567v43.5c0,4.2-2,6.5-5.3,6.5
	c-3.5,0-5.3-2.3-5.3-6.5v-43.5h-11.6V358.4z"/>
<path class="st1" d="M620.8,372.6l-8.3-26.4c4.4-2.1,7-6.6,7-13.4V330c-0.1-9.8-4.9-15.6-17.2-15.6h-15.7v58.2H598v-23.7h4.2
	l6.5,23.7H620.8z M598,322.3h3.4c4.4,0,6.1,2,6.1,7.4v3.7c0,5.7-1.6,8.3-6.1,8.3H598V322.3z"/>
<path class="st1" d="M639,374c10.9,0,16.6-5.8,16.6-14.2v-4.4c0-6.1-1.7-10.2-8.3-14.3l-8.5-5.1c-2.7-1.7-4.2-3.9-4.2-6.9v-2.6
	c0-2.8,1.7-4.9,4.6-4.9c3.5,0,4.9,2.5,4.9,6.5v6.2l11.5-2.1v-4.3c0-11-6.3-14.9-16.4-14.9c-9.1,0-16.2,4.7-16.2,14.2v3
	c0,6.1,2.1,10.5,8.2,14.1l8.4,5.1c3.7,2.4,4.3,4.2,4.3,7.8v2.4c0,3.2-1.3,5.7-4.7,5.7c-3.4,0-5-2.7-5-7.4v-6.6l-11.7,2.2v4.7
	C622.3,367.9,628.3,374,639,374z"/>
<path class="st1" d="M672.6,347h14.2v-8.8h-14.2v-15.1H688v-8.8h-27v58.2h27.6v-8.8h-16V347z"/>
<path class="st1" d="M704,372.6v-29.3c0-4.7,0-11.2-0.2-15.8h0.4c0.1,1.7,0.6,4.9,1.1,8.6l6.3,36.5h8.3l6.2-36.5
	c0.6-3.7,0.8-5.8,1.2-8.6h0.3c-0.2,4.7-0.2,11.2-0.2,15.8v29.3h10v-58.2h-15.6l-4.9,30.3c-0.4,3.1-0.9,6.3-0.9,8.5h-0.3
	c-0.1-2.2-0.5-5.4-1-8.5l-5-30.3h-15.5v58.2H704z"/>
<path class="st1" d="M757.5,347h14.2v-8.8h-14.2v-15.1h15.4v-8.8h-27v58.2h27.6v-8.8h-16V347z"/>
<path class="st1" d="M789.3,372.6v-28.5c0-3.9-0.2-7.5-0.4-11.3h0.2c0.7,3,1.4,5.7,2.6,9.2l10.8,30.7h11.2v-58.2h-10.2v24.1
	c0,4.3,0.2,8.6,0.4,12.9h-0.2c-0.7-2.9-1.5-5.8-2.4-8.7l-9.9-28.3h-12.4v58.2H789.3z"/>
<path class="st1" d="M817.8,314.4v9.7h11.2v48.5h11.5v-48.5h11.2v-9.7H817.8z"/>
<path class="st1" d="M869.7,374c10.9,0,16.6-5.8,16.6-14.2v-4.4c0-6.1-1.7-10.2-8.3-14.3l-8.5-5.1c-2.7-1.7-4.2-3.9-4.2-6.9v-2.6
	c0-2.8,1.7-4.9,4.6-4.9c3.5,0,4.9,2.5,4.9,6.5v6.2l11.5-2.1v-4.3c0-11-6.3-14.9-16.4-14.9c-9.1,0-16.2,4.7-16.2,14.2v3
	c0,6.1,2.1,10.5,8.2,14.1l8.4,5.1c3.7,2.4,4.3,4.2,4.3,7.8v2.4c0,3.2-1.3,5.7-4.7,5.7c-3.4,0-5-2.7-5-7.4v-6.6l-11.7,2.2v4.7
	C853.1,367.9,859.1,374,869.7,374z"/>
<path class="st1" d="M897.3,373.2c3.9,0,6.7-2.7,6.7-6.6c0-3.9-2.8-6.6-6.7-6.6c-3.8,0-6.7,2.7-6.7,6.6
	C890.6,370.5,893.4,373.2,897.3,373.2z"/>
<path class="st1" d="M394.8,458.7l-8-25.5c4.2-2.1,6.7-6.3,6.7-13v-2.7c-0.1-9.4-4.7-15.1-16.5-15.1H362v56.3h11.1v-22.9h4l6.2,22.9
	H394.8z M373.1,410h3.3c4.2,0,5.8,2,5.8,7.1v3.6c0,5.5-1.5,8-5.8,8h-3.3V410z"/>
<path class="st1" d="M410.7,433.9h13.6v-8.5h-13.6v-14.6h14.7v-8.5h-25.8v56.3H426v-8.5h-15.3V433.9z"/>
<path class="st1" d="M445.8,460c10.2,0,16.3-5.5,16.3-15.8v-6.1l-11.3-2.3v8.4c0,4.6-1.8,7.1-5,7.1c-3.4,0-5.3-2.9-5.3-8.2v-25.5
	c0-5.5,1.8-7.9,5.3-7.9c3.3,0,4.9,2.4,4.9,7.1v7.5l11.4-2.1v-5.7c0-10.3-5.8-15.4-16.1-15.4c-10.8,0-16.9,6-16.9,17.5v23.9
	C429.2,454.1,435,460,445.8,460z"/>
<path class="st1" d="M479.5,433.9h13.6v-8.5h-13.6v-14.6h14.7v-8.5h-25.8v56.3h26.4v-8.5h-15.3V433.9z"/>
<path class="st1" d="M511.2,402.3h-11.1v56.3h11.1V402.3z"/>
<path class="st1" d="M519.3,402.3v56.3h11.1v-21.6h4.7c10.1,0,15.7-5.6,15.7-15.6v-4.7c-0.1-9.5-5.4-14.4-15.9-14.4H519.3z
	 M539.4,421.3c0,5.6-1.8,8-5.7,8h-3.3V410h3.3c3.9,0,5.7,2.1,5.7,7.2V421.3z"/>
<path class="st1" d="M551.4,402.3v9.4h10.8v46.9h11v-46.9h10.8v-9.4H551.4z"/>
<path class="st1" d="M614.4,460c10.4,0,15.8-5.6,15.8-13.7V442c0-5.9-1.6-9.9-8-13.8l-8.1-4.9c-2.6-1.7-4.1-3.7-4.1-6.7v-2.5
	c0-2.7,1.6-4.8,4.4-4.8c3.3,0,4.7,2.5,4.7,6.3v6l11-2.1v-4.1c0-10.6-6.1-14.4-15.7-14.4c-8.7,0-15.5,4.5-15.5,13.7v2.9
	c0,5.9,2,10.2,7.8,13.6l8,4.9c3.6,2.3,4.1,4,4.1,7.5v2.3c0,3.1-1.3,5.5-4.5,5.5c-3.3,0-4.8-2.6-4.8-7.1V438l-11.2,2.1v4.5
	C598.5,454.1,604.2,460,614.4,460z"/>
<path class="st1" d="M650.4,460c10.2,0,16.3-5.5,16.3-15.8v-6.1l-11.3-2.3v8.4c0,4.6-1.8,7.1-5,7.1c-3.4,0-5.3-2.9-5.3-8.2v-25.5
	c0-5.5,1.8-7.9,5.3-7.9c3.3,0,4.9,2.4,4.9,7.1v7.5l11.4-2.1v-5.7c0-10.3-5.8-15.4-16.1-15.4c-10.8,0-16.9,6-16.9,17.5v23.9
	C633.8,454.1,639.6,460,650.4,460z"/>
<path class="st1" d="M705.8,458.7l-11-56.3h-14.5l-11.1,56.3h11.1l2.1-13.2h10.3l2.1,13.2H705.8z M686.4,419.7c0.4-2.7,0.8-5,1-8
	h0.2c0.3,3,0.6,5.3,1,8l2.8,17.8h-7.9L686.4,419.7z"/>
<path class="st1" d="M720.6,458.7v-27.6c0-3.8-0.2-7.3-0.4-10.9h0.2c0.6,2.9,1.4,5.6,2.5,8.9l10.4,29.7H744v-56.3h-9.7v23.3
	c0,4.2,0.2,8.3,0.4,12.5h-0.2c-0.6-2.8-1.4-5.6-2.3-8.4l-9.5-27.4h-11.9v56.3H720.6z"/>
<path class="st1" d="M761.9,458.7v-27.6c0-3.8-0.2-7.3-0.4-10.9h0.2c0.6,2.9,1.4,5.6,2.5,8.9l10.4,29.7h10.7v-56.3h-9.7v23.3
	c0,4.2,0.2,8.3,0.4,12.5h-0.2c-0.6-2.8-1.4-5.6-2.3-8.4l-9.5-27.4h-11.9v56.3H761.9z"/>
<path class="st1" d="M804.4,402.3h-11.1v56.3h11.1V402.3z"/>
<path class="st1" d="M822.3,458.7v-27.6c0-3.8-0.2-7.3-0.4-10.9h0.2c0.6,2.9,1.4,5.6,2.5,8.9l10.4,29.7h10.7v-56.3h-9.7v23.3
	c0,4.2,0.2,8.3,0.4,12.5h-0.2c-0.6-2.8-1.4-5.6-2.3-8.4l-9.5-27.4h-11.9v56.3H822.3z"/>
<path class="st1" d="M865.3,460c6.2,0,10-3.7,11.2-9.4l0.6,8h8v-30.8h-16.8v8.4h6.3v7.1c0,4.8-1.7,8.1-5.5,8.1s-5.7-3.3-5.7-8.9V418
	c0-5.8,1.8-8.8,5.4-8.8c3.3,0,4.9,2.4,4.9,6.7v6.1L885,420v-4.4c0-9.2-5.7-14.6-16-14.6c-11,0-17,6.8-17,18.7v22.4
	C852,453.6,856.7,460,865.3,460z"/>
<path class="st1" d="M897.5,459.2c3.7,0,6.5-2.6,6.5-6.4c0-3.8-2.7-6.4-6.5-6.4c-3.7,0-6.4,2.6-6.4,6.4
	C891.2,456.6,893.9,459.2,897.5,459.2z"/>
<path class="st2" d="M919,480H340v105h579V480z M396.3,543.7c0,12.1-6.7,18.7-18,18.7c-11.2,0-17.9-6.7-17.9-18.7v-24.4
	c0-12.1,6.7-18.7,17.9-18.7c11.3,0,18,6.7,18,18.7V543.7z M372.4,545.1c0,5.3,2.2,8.2,6,8.2c3.9,0,6.1-2.9,6.1-8.2v-27.3
	c0-5.3-2.2-8.2-6.1-8.2c-3.8,0-6,2.9-6,8.2V545.1z M413.3,532.1V561h-10.2v-59h12.4l9.9,28.7c0.9,2.9,1.7,5.9,2.4,8.8h0.2
	c-0.2-4.3-0.4-8.6-0.4-13.1V502h10.1v59h-11.1l-10.8-31.1c-1.2-3.5-1.9-6.3-2.6-9.3h-0.2C413.1,524.4,413.3,528.1,413.3,532.1z
	 M457.7,535.1h14.2v-8.9h-14.2v-15.3H473V502h-26.9v59h27.5v-8.9h-16V535.1z M516.5,502l11.5,59h-11.6l-2.2-13.8h-10.7l-2.2,13.8
	h-11.6l11.6-59H516.5z M507.9,518.7c-0.1,0.5-0.2,1-0.2,1.5l-2.9,18.6h8.2l-2.9-18.6c-0.4-2.8-0.7-5.2-1.1-8.4h-0.2
	C508.5,514.4,508.2,516.4,507.9,518.7L507.9,518.7z M533.2,502v59h11.6v-22.6h4.9c10.6,0,16.4-5.8,16.4-16.4v-4.9
	c-0.1-10-5.7-15.1-16.6-15.1H533.2z M554.2,521.8c0,5.9-1.8,8.4-5.9,8.4h-3.5V510h3.5c4.1,0,5.9,2.2,5.9,7.6V521.8z M571,561v-59
	h16.2c11,0,16.5,5.2,16.6,15.1v4.9c0,10.6-5.8,16.4-16.4,16.4h-4.9V561H571z M586.1,530.2c4.1,0,5.9-2.5,5.9-8.4v-4.3
	c0-5.3-1.8-7.6-5.9-7.6h-3.5v20.3H586.1z M607.5,548.7c-3.9,0-6.7,2.7-6.7,6.4c0,3.6,2.2,6.2,5.4,6.2c1.5,0,2.7-0.4,3.7-1.3
	c-0.7,4.2-3.6,7.5-8.5,8.8l1.7,4.7c7.7-2.3,11.9-7.8,11.9-15.6C615,552.2,612.1,548.7,607.5,548.7z M658.5,502l11.5,59h-11.6
	l-2.2-13.8h-10.7l-2.2,13.8h-11.6l11.6-59H658.5z M649.9,518.7L649.9,518.7c-0.1,0.5-0.2,1-0.2,1.5l-2.9,18.6h8.2l-2.9-18.6
	c-0.4-2.8-0.7-5.2-1.1-8.4h-0.2C650.5,514.4,650.2,516.4,649.9,518.7z M701.3,561v-10.1h-14.5V502h-11.6v59H701.3z M732.5,550.9V561
	h-26.1v-59h11.6v48.9H732.5z"/>
<path class="st3" d="M778.2,502h-26.9v59h11.6v-25.9H777v-8.9h-14.2V511h15.4V502z"/>
<path class="st3" d="M817.3,561l-8.3-26.8c4.4-2.2,7-6.7,7-13.6v-2.8c-0.1-9.9-4.9-15.8-17.2-15.8h-15.7v59h11.6v-24h4.2l6.5,24
	H817.3z M794.6,510h3.4c4.4,0,6.1,2.1,6.1,7.5v3.7c0,5.7-1.6,8.4-6.1,8.4h-3.4V510z"/>
<path class="st3" d="M833.9,535.1h14.2v-8.9h-14.2v-15.3h15.4V502h-26.9v59h27.5v-8.9h-16V535.1z"/>
<path class="st3" d="M867,535.1h14.2v-8.9H867v-15.3h15.4V502h-26.9v59H883v-8.9h-16V535.1z"/>
<path class="st3" d="M894.1,561.6c3.9,0,6.7-2.7,6.7-6.7c0-4-2.8-6.7-6.7-6.7c-3.8,0-6.7,2.7-6.7,6.7
	C887.4,558.8,890.3,561.6,894.1,561.6z"/>
</svg>
