<svg xmlns="http://www.w3.org/2000/svg" viewBox="0 0 20 20"><defs><style>.cls-1{fill-rule:evenodd}</style></defs><g id="Layer_1"><path d="M5.353 1.977a1 1 0 1 0-1.705 1.045l9.5 15.5a1 1 0 1 0 1.705-1.045z"/><path d="M17 3H8.325l4.463 7.281a1 1 0 0 1 1.576.2l1.759 3.015c.321.549.05 1.215-.487 1.432L16.906 17H17a1 1 0 0 0 1-1V4a1 1 0 0 0-1-1m-3 3.5a1.5 1.5 0 1 1-3.001-.001A1.5 1.5 0 0 1 14 6.5" class="cls-1"/><path d="m2 4.162 3.7 6.037-1.862 3.31a1 1 0 0 0 .872 1.49h3.933l1.226 2H3a1 1 0 0 1-1-1z"/></g></svg>