<svg xmlns="http://www.w3.org/2000/svg" width="20" height="20" fill="none" viewBox="0 0 20 20"><path fill="#a2a9a3" d="M16 12a1 1 0 0 1 1 1v2h2a1 1 0 1 1 0 2h-2v2a1 1 0 1 1-2 0v-2h-2a1 1 0 1 1 0-2h2v-2a1 1 0 0 1 1-1"/><path fill="#a2a9a3" fill-rule="evenodd" d="M17 3a1 1 0 0 1 1 1v6.768a2.986 2.986 0 0 0-3.634-.283l-.002-.005a1 1 0 0 0-1.728 0l-.738 1.267a1 1 0 0 1-1.736-.014L8.372 8.55a1 1 0 0 0-1.743 0l-2.791 4.96A1 1 0 0 0 4.71 15h5.46q-.142.401-.166.846L10 16l.004.154q.024.445.167.846H3a1 1 0 0 1-1-1V4a1 1 0 0 1 1-1zm-4.5 2a1.5 1.5 0 1 0 0 3 1.5 1.5 0 0 0 0-3" clip-rule="evenodd"/></svg>