<svg xmlns="http://www.w3.org/2000/svg" xml:space="preserve" id="Layer_1" x="0" y="0" viewBox="0 0 20 20"><style>.st0{fill-rule:evenodd;clip-rule:evenodd}</style><path d="M12 2c0-1.1-.9-2-2-2S8 .9 8 2v.9c0 .2-.1.4-.4.5l-.6.3c-.2.1-.4 0-.6-.1l-.6-.7c-.8-.8-2-.8-2.8 0s-.8 2 0 2.8l.6.6c.1.3.2.5.1.7l-.3.6c-.1.3-.3.4-.5.4H2c-1.1 0-2 .9-2 2s.9 2 2 2h.9c.2 0 .4.1.5.4l.3.6c.1.2.1.4-.1.6l-.6.6c-.8.8-.8 2 0 2.8s2 .8 2.8 0l.6-.6c.2-.2.4-.2.6-.1l.6.3c.3.1.4.3.4.5v.9c0 1.1.9 2 2 2s2-.9 2-2v-.9c0-.2.1-.4.4-.5l.6-.3c.2-.1.4-.1.6.1l.6.6c.8.8 2 .8 2.8 0s.8-2 0-2.8l-.6-.6c-.2-.2-.2-.4-.1-.6l.3-.6c.1-.2.3-.4.5-.4h.9c1.1 0 2-.9 2-2s-.9-2-2-2h-.9c-.2 0-.4-.1-.5-.4l-.3-.6c-.1-.2-.1-.4.1-.6l.6-.6c.8-.8.8-2 0-2.8s-2-.8-2.8 0l-.6.6c-.2.2-.4.2-.6.1l-.6-.3c-.3-.1-.4-.3-.4-.5zm-2 11c1.7 0 3-1.3 3-3s-1.3-3-3-3-3 1.3-3 3 1.3 3 3 3" class="st0"/></svg>