<?xml version="1.0" encoding="utf-8"?>
<!-- Generator: Adobe Illustrator 24.3.0, SVG Export Plug-In . SVG Version: 6.00 Build 0)  -->
<svg version="1.1" id="Layer_1" xmlns="http://www.w3.org/2000/svg" xmlns:xlink="http://www.w3.org/1999/xlink" x="0px" y="0px"
	 viewBox="0 0 20 20" style="enable-background:new 0 0 20 20;" xml:space="preserve">
<path d="M17.6,8.9h-1.4c-0.1-0.8-0.5-1.5-0.9-2.1l1-1.1c0.2-0.2,0.2-0.6,0-0.9l-0.9-0.9c-0.2-0.2-0.6-0.2-0.9,0l-1,1
	c-0.8-0.4-1.4-0.8-2.2-0.9V2.6c0-0.4-0.2-0.6-0.6-0.6H9.5C9.1,2,8.9,2.2,8.9,2.6V4C8.1,4.1,7.4,4.5,6.8,4.9l-1-1
	c-0.2-0.2-0.6-0.2-0.9,0L4,4.8C3.8,5,3.8,5.4,4,5.6l1,1C4.5,7.2,4.1,8,4,8.9H2.6C2.2,8.9,2,9.1,2,9.5v1.2c0,0.4,0.2,0.6,0.6,0.6H4
	c0.1,0.8,0.5,1.5,0.9,2.1l-0.9,1c-0.2,0.2-0.2,0.6,0,0.9l0.9,0.9c0.2,0.2,0.6,0.2,0.9,0l1-1c0.6,0.5,1.4,0.8,2.1,1v1.4
	c0,0.2,0.2,0.6,0.6,0.6h1.2c0.4,0,0.6-0.4,0.6-0.6v-1.4c0.8-0.1,1.5-0.5,2.1-0.9l1,1c0.2,0.2,0.6,0.2,0.9,0l0.9-0.9
	c0.2-0.2,0.2-0.6,0-0.9l-1-1c0.4-0.6,0.8-1.4,0.9-2.1h1.5c0.4,0,0.6-0.2,0.6-0.6V9.5C18.2,9.1,18,8.9,17.6,8.9z M10.1,12.4
	c-1.2,0-2.2-1-2.2-2.2s1-2.2,2.2-2.2s2.2,1,2.2,2.2S11.4,12.4,10.1,12.4z"/>
</svg>
