<?xml version="1.0" encoding="utf-8"?>
<!-- Generator: Adobe Illustrator 26.5.0, SVG Export Plug-In . SVG Version: 6.00 Build 0)  -->
<svg version="1.1" id="Layer_1" xmlns="http://www.w3.org/2000/svg" xmlns:xlink="http://www.w3.org/1999/xlink" x="0px" y="0px"
	 viewBox="0 0 20 20" style="enable-background:new 0 0 20 20;" xml:space="preserve">
<style type="text/css">
	.st0{fill-rule:evenodd;clip-rule:evenodd;}
</style>
<path class="st0" d="M7.3,1.4C8.2,1.1,9.1,1,10,1c3.5,0,6.6,2,8.1,5c0.6,1.2,0.9,2.6,0.9,4c0,2.7-1.2,5.1-3,6.7
	c-0.1,0.1-0.2,0.2-0.3,0.2C14.2,18.2,12.2,19,10,19c-3.4,0-6.4-1.9-7.9-4.7C1.4,13,1,11.5,1,10C1,6,3.7,2.5,7.3,1.4z M9.9,17
	c1-1.5,0.6-4-0.9-4c-2,0-2-1-2-2c0-0.8-2-1-3-1C3.8,9,4,7,6,7c1.5,0,2-0.5,2-1.5S8.5,4,9.5,4c0.9,0,1.6-0.3,2-0.8
	C11,3.1,10.5,3,10,3c-3.9,0-7,3.1-7,7C3,13.8,6.1,16.9,9.9,17z M14.9,14.9C14.5,14.5,14,14,14,13c0-0.5-0.5-1-1-1c-1.5,0-2-0.5-2-2
	c0-1.2,1.3-1.8,2-2c0-0.7,0.4-2,2-2h0.7c0.8,1.1,1.3,2.5,1.3,4C17,11.9,16.2,13.7,14.9,14.9z"/>
</svg>
