<svg width="151" height="208" viewBox="0 0 151 208" fill="none" xmlns="http://www.w3.org/2000/svg">
<g id="Group 2115">
<path id="Vector" d="M143.289 53.0232C143.289 53.0232 146.423 57.7547 144.291 62.0995L150.092 63.2967L143.289 53.0232Z" fill="#99F6FF"/>
<path id="Vector_2" d="M150.096 63.297L144.295 62.0998C144.295 62.0998 145.725 55.1455 143.293 53.0235L86.8278 37.5544L57.7863 140.743L61.6502 139.025L63.1601 142.522L67.0644 140.659L68.6147 144.015L72.1927 142.22L74.2037 145.431L78.0407 143.669L79.6952 147.207L83.6263 144.967L85.2741 148.811L88.8387 146.78L90.7455 150.233L94.3303 148.131L96.3278 151.531L99.4553 149.688L101.557 153.273L105.488 151.034L107.143 154.571L110.758 152.631L112.644 156.155L116.229 154.053L117.934 157.682L122 155.789L123.574 158.765L150.1 63.2936L150.096 63.297Z" fill="#CCF7FF"/>
<path id="Vector_3" d="M85.3682 148.723L89.0505 146.403L90.7453 150.304" stroke="#002140" stroke-linecap="round" stroke-linejoin="round"/>
<path id="Vector_4" d="M79.8798 147.22L83.5621 144.9L85.257 148.801" stroke="#002140" stroke-linecap="round" stroke-linejoin="round"/>
<path id="Vector_5" d="M90.8327 150.233L94.5117 147.913L96.2099 151.813" stroke="#002140" stroke-linecap="round" stroke-linejoin="round"/>
<path id="Vector_6" d="M96.2934 151.746L99.9724 149.426L101.671 153.327" stroke="#002140" stroke-linecap="round" stroke-linejoin="round"/>
<path id="Vector_7" d="M107.321 154.736L111.003 152.419L112.701 156.316" stroke="#002140" stroke-linecap="round" stroke-linejoin="round"/>
<path id="Vector_8" d="M101.833 153.233L105.515 150.912L107.21 154.813" stroke="#002140" stroke-linecap="round" stroke-linejoin="round"/>
<path id="Vector_9" d="M112.785 156.249L116.464 153.929L118.162 157.83" stroke="#002140" stroke-linecap="round" stroke-linejoin="round"/>
<path id="Vector_10" d="M63.3074 142.68L66.9897 140.36L68.6846 144.261" stroke="#002140" stroke-linecap="round" stroke-linejoin="round"/>
<path id="Vector_11" d="M68.7693 144.19L72.4516 141.87L74.1465 145.771" stroke="#002140" stroke-linecap="round" stroke-linejoin="round"/>
<path id="Vector_12" d="M74.234 145.7L77.9129 143.38L79.6112 147.281" stroke="#002140" stroke-linecap="round" stroke-linejoin="round"/>
<path id="Vector_13" d="M143.565 53.4068L86.5714 37.6384L57.8191 141.177L61.5015 138.857L63.1963 142.757" stroke="#002140" stroke-linecap="round" stroke-linejoin="round"/>
<path id="Vector_14" d="M150.096 63.2969L123.624 159.34L121.925 155.439L118.246 157.759" stroke="#002140" stroke-linecap="round" stroke-linejoin="round"/>
<path id="Vector_15" d="M87.0364 136.983L108.633 142.956" stroke="#002140" stroke-linecap="round" stroke-linejoin="round"/>
<path id="Vector_16" d="M71.9877 113.091L125.638 127.934" stroke="#002140" stroke-linecap="round" stroke-linejoin="round"/>
<path id="Vector_17" d="M107.804 114.678L74.3969 105.438L73.5157 108.625L106.922 117.864L107.804 114.678Z" stroke="#002140" stroke-linecap="round" stroke-linejoin="round"/>
<path id="Vector_18" d="M97.1393 104.993L76.1268 99.1816L75.2457 102.368L96.2581 108.179L97.1393 104.993Z" stroke="#002140" stroke-linecap="round" stroke-linejoin="round"/>
<path id="Vector_19" d="M80.5826 85.7L110.092 93.8649" stroke="#002140" stroke-linecap="round" stroke-linejoin="round"/>
<path id="Vector_20" d="M79.3518 90.1455L108.864 98.3105" stroke="#002140" stroke-linecap="round" stroke-linejoin="round"/>
<path id="Vector_21" d="M81.7124 82.0747L93.9867 85.4712" stroke="#002140" stroke-linecap="round" stroke-linejoin="round"/>
<path id="Vector_22" d="M123.321 93.5862L134.358 96.6397" stroke="#002140" stroke-linecap="round" stroke-linejoin="round"/>
<path id="Vector_23" d="M120.903 102.333L131.94 105.386" stroke="#002140" stroke-linecap="round" stroke-linejoin="round"/>
<path id="Vector_24" d="M120.187 104.912L131.223 107.965" stroke="#002140" stroke-linecap="round" stroke-linejoin="round"/>
<path id="Vector_25" d="M119.316 108.066L130.353 111.12" stroke="#002140" stroke-linecap="round" stroke-linejoin="round"/>
<path id="Vector_26" d="M102.596 72.7295L120.776 77.757" stroke="#002140" stroke-linecap="round" stroke-linejoin="round"/>
<path id="Vector_27" d="M94.2665 74.3638L126.61 83.3123" stroke="#002140" stroke-linecap="round" stroke-linejoin="round"/>
<path id="Vector_28" d="M115.415 70.3518C120.284 70.3518 124.232 66.4041 124.232 61.5344C124.232 56.6647 120.284 52.717 115.415 52.717C110.545 52.717 106.597 56.6647 106.597 61.5344C106.597 66.4041 110.545 70.3518 115.415 70.3518Z" stroke="#002140" stroke-linecap="round" stroke-linejoin="round"/>
<path id="Vector_29" d="M117.759 60.2805C117.813 60.304 117.873 60.3175 117.934 60.3208C118.344 60.3511 118.573 60.0114 118.667 59.6583C118.725 59.4521 118.794 59.2032 118.872 58.9118C118.946 58.6461 118.97 58.3536 118.738 58.1619C118.586 58.0375 118.337 57.9971 118.149 58.0543C118.129 58.061 117.897 58.172 117.927 58.2157C117.927 58.2157 117.524 57.6171 117.056 57.4893L117.255 56.773C117.255 56.773 117.409 56.2148 116.787 56.0399C116.165 55.8684 115.993 56.4906 115.993 56.4906L115.795 57.2069C115.795 57.2069 113.673 56.8874 113.105 58.942C112.348 61.6794 117.053 61.6088 116.589 63.2869C116.521 63.5256 116.128 64.2318 114.601 63.8081C112.752 63.297 114.033 61.9922 112.866 61.6693C112.227 61.4945 111.941 61.9316 111.837 62.3049L111.45 63.7038C111.45 63.7038 111.336 64.2419 111.924 64.4033C112.516 64.5681 112.748 64.3293 112.748 64.3293C112.748 64.3293 113.064 64.8842 113.623 65.0389L113.401 65.8426C113.263 66.3437 112.974 67.0667 113.677 67.2617C114.265 67.4265 114.467 66.949 114.595 66.4816C114.699 66.1083 114.803 65.7317 114.904 65.3584C114.894 65.392 115.832 65.3617 115.889 65.355C116.575 65.244 117.191 64.8842 117.574 64.2923C118.011 63.6198 118.22 62.6916 117.809 61.9619C117.517 61.444 116.996 61.0943 116.484 60.8152C115.993 60.5428 115.462 60.3343 114.985 60.035C114.689 59.85 114.329 59.5676 114.44 59.1707C114.672 58.33 115.64 58.4746 116.212 58.6327C116.77 58.7874 117.127 59.0665 117.268 59.6281C117.332 59.887 117.497 60.1661 117.749 60.2704L117.759 60.2805Z" fill="#002140"/>
<path id="Vector_30" d="M110.525 130.893C110.565 130.91 110.612 130.92 110.659 130.927C110.972 130.95 111.144 130.691 111.218 130.422C111.26 130.265 111.313 130.076 111.376 129.854C111.433 129.652 111.45 129.43 111.275 129.282C111.161 129.188 110.969 129.155 110.828 129.202C110.814 129.205 110.636 129.292 110.656 129.326C110.656 129.326 110.35 128.872 109.994 128.771L110.145 128.226C110.145 128.226 110.263 127.799 109.788 127.668C109.314 127.537 109.183 128.011 109.183 128.011L109.032 128.556C109.032 128.556 107.414 128.314 106.984 129.878C106.409 131.963 109.994 131.909 109.637 133.187C109.587 133.368 109.284 133.906 108.124 133.583C106.715 133.193 107.69 132.201 106.802 131.956C106.318 131.821 106.096 132.154 106.019 132.44L105.723 133.506C105.723 133.506 105.635 133.916 106.086 134.041C106.537 134.165 106.715 133.984 106.715 133.984C106.715 133.984 106.954 134.407 107.381 134.525L107.213 135.137C107.108 135.52 106.886 136.072 107.424 136.22C107.875 136.344 108.026 135.981 108.124 135.625C108.205 135.339 108.282 135.053 108.359 134.771C108.353 134.797 109.065 134.771 109.109 134.767C109.634 134.683 110.101 134.407 110.394 133.96C110.727 133.449 110.885 132.739 110.572 132.185C110.35 131.788 109.95 131.525 109.563 131.31C109.176 131.095 108.786 130.944 108.42 130.715C108.195 130.574 107.919 130.359 108.003 130.056C108.181 129.417 108.917 129.524 109.355 129.646C109.782 129.763 110.051 129.975 110.158 130.406C110.209 130.604 110.333 130.816 110.525 130.897V130.893Z" fill="#002140"/>
<path id="Vector_31" d="M122.695 134.26C122.736 134.276 122.783 134.287 122.83 134.293C123.143 134.317 123.314 134.058 123.388 133.789C123.431 133.632 123.484 133.442 123.546 133.22C123.603 133.019 123.62 132.797 123.445 132.649C123.331 132.555 123.139 132.521 122.998 132.568C122.985 132.571 122.806 132.659 122.827 132.693C122.827 132.693 122.521 132.239 122.164 132.138L122.315 131.593C122.315 131.593 122.433 131.166 121.959 131.035C121.485 130.904 121.354 131.378 121.354 131.378L121.202 131.922C121.202 131.922 119.585 131.68 119.154 133.244C118.579 135.329 122.164 135.275 121.808 136.553C121.757 136.735 121.455 137.273 120.294 136.95C118.885 136.56 119.861 135.568 118.973 135.322C118.489 135.188 118.267 135.521 118.189 135.807L117.893 136.873C117.893 136.873 117.806 137.283 118.257 137.407C118.707 137.532 118.885 137.35 118.885 137.35C118.885 137.35 119.124 137.774 119.551 137.891L119.383 138.504C119.279 138.887 119.057 139.438 119.595 139.586C120.046 139.711 120.197 139.348 120.294 138.991C120.375 138.705 120.452 138.419 120.53 138.137C120.523 138.164 121.236 138.137 121.28 138.134C121.804 138.05 122.272 137.774 122.564 137.327C122.897 136.815 123.055 136.106 122.743 135.551C122.521 135.154 122.12 134.892 121.734 134.677C121.357 134.468 120.957 134.31 120.59 134.081C120.365 133.94 120.089 133.725 120.173 133.422C120.352 132.783 121.088 132.891 121.525 133.012C121.962 133.133 122.221 133.342 122.329 133.772C122.379 133.97 122.504 134.182 122.695 134.263V134.26Z" fill="#002140"/>
<path id="Vector_32" d="M116.612 132.578C116.652 132.595 116.7 132.605 116.747 132.612C117.059 132.635 117.231 132.376 117.305 132.107C117.347 131.951 117.4 131.761 117.463 131.539C117.52 131.337 117.537 131.115 117.362 130.967C117.248 130.873 117.056 130.84 116.915 130.887C116.901 130.89 116.723 130.978 116.743 131.011C116.743 131.011 116.437 130.557 116.081 130.456L116.232 129.911C116.232 129.911 116.35 129.484 115.876 129.353C115.402 129.222 115.27 129.696 115.27 129.696L115.119 130.241C115.119 130.241 113.502 129.999 113.071 131.563C112.496 133.648 116.081 133.594 115.724 134.872C115.674 135.053 115.371 135.591 114.211 135.269C112.802 134.878 113.777 133.886 112.889 133.641C112.405 133.506 112.183 133.839 112.106 134.125L111.81 135.191C111.81 135.191 111.723 135.601 112.173 135.726C112.624 135.85 112.802 135.669 112.802 135.669C112.802 135.669 113.041 136.092 113.468 136.21L113.3 136.822C113.196 137.206 112.974 137.757 113.512 137.905C113.962 138.029 114.114 137.666 114.211 137.31C114.292 137.024 114.369 136.738 114.446 136.456C114.44 136.482 115.153 136.456 115.196 136.452C115.721 136.368 116.188 136.092 116.481 135.645C116.814 135.134 116.972 134.424 116.659 133.87C116.437 133.473 116.037 133.21 115.65 132.995C115.274 132.787 114.874 132.629 114.507 132.4C114.282 132.259 114.006 132.044 114.09 131.741C114.268 131.102 115.005 131.21 115.442 131.331C115.869 131.448 116.138 131.66 116.246 132.091C116.296 132.289 116.42 132.501 116.612 132.582V132.578Z" fill="#002140"/>
<path id="Vector_33" d="M143.549 53.4604C143.549 53.4604 146.309 58.5451 144.13 61.9584L149.945 63.2598L143.549 53.4638" stroke="#002140" stroke-linecap="round" stroke-linejoin="round"/>
<path id="Vector_34" d="M3.21365 179.611C3.21365 179.611 7.37012 164.145 10.4135 162.047C10.4135 162.047 6.68411 148.068 19.3418 135.649C19.3418 135.649 25.7548 131.388 28.5224 130.295C31.29 129.202 40.0368 125.429 44.5934 121.74C49.1501 118.054 57.5471 113.874 64.1416 120.771C70.7361 127.669 62.7393 138.282 60.3214 139.778C57.9035 141.275 53.5184 143.777 51.5612 144.167C49.604 144.557 40.6522 146.268 40.3562 152.974C40.3562 152.974 43.0869 161.59 42.2193 166.442L85.9799 178.431C85.9799 178.431 78.3227 186.67 68.5133 186.448C58.7039 186.226 51.161 184.47 51.161 184.47L48.3867 190.651C48.3867 190.651 31.9323 192.158 18.4473 186.767C4.96233 181.377 3.21365 179.608 3.21365 179.608V179.611Z" fill="#A65E3A"/>
<path id="Vector_35" d="M117.836 121.289L113.592 136.785C113.592 136.785 120.449 141.594 124.259 142.331C128.069 143.067 135.508 141.248 136.978 133.628C138.447 126.011 130.713 123.273 127.908 122.813C125.103 122.352 119.713 122.88 117.836 121.286V121.289Z" fill="#A65E3A"/>
<path id="Vector_36" d="M113.589 136.786L112.842 139.513C112.842 139.513 109.789 138.83 107.572 137.915C105.356 137.001 101.106 133.369 97.0097 132.555C92.9138 131.741 88.7338 134.606 87.3348 137.461C85.9359 140.316 86.2688 144.729 86.7127 145.929C86.7127 145.929 81.238 151.834 83.6189 158.348C83.6189 158.348 80.6394 160.88 80.1148 163.251C79.5902 165.622 78.6553 173.649 91.9991 177.304C105.343 180.96 111.211 171.924 112.916 165.141C112.916 165.141 119.379 160.124 116.413 152.372C116.413 152.372 120.99 144.678 118.451 140.434L113.589 136.789V136.786Z" fill="#A65E3A"/>
<path id="Vector_37" d="M105.484 150.606C105.484 150.606 104.691 160.261 101.439 163.688C101.439 163.688 110.451 165.695 112.92 165.137C112.92 165.137 119.255 159.468 116.417 152.369C116.417 152.369 108.524 151.901 105.484 150.606Z" fill="#FED604"/>
<path id="Vector_38" d="M42.2226 166.439L95.3117 180.983C95.3117 180.983 100.608 181.353 101.409 177.872C101.409 177.872 96.5291 178.232 90.7887 176.658C85.0484 175.084 77.5929 169.65 79.7384 164.068C81.8839 158.485 83.6192 158.344 83.6192 158.344C83.6192 158.344 80.6229 153.512 86.713 145.925C86.713 145.925 84.0563 140.417 88.4616 135.605C92.8636 130.796 99.0983 132.81 100.743 133.57C102.387 134.33 107.065 138.08 109.217 138.668C111.369 139.257 112.842 139.509 112.842 139.509L143.74 26.7327C143.74 26.7327 144.725 19.7548 139.274 18.2583C133.823 16.7652 75.8543 0.88255 75.8543 0.88255C75.8543 0.88255 68.9942 -0.533236 67.185 6.06466C65.3758 12.6659 33.7314 128.169 33.7314 128.169C33.7314 128.169 41.513 123.976 44.5934 121.736C47.6737 119.497 55.183 114.61 61.6632 118.545C68.1434 122.479 67.7163 130.231 65.1572 133.385C62.5947 136.54 61.4311 140.232 54.0799 142.845C46.7321 145.458 40.8573 146.628 40.3562 152.967C40.3562 152.967 43.218 160.537 42.2192 166.435L42.2226 166.439Z" fill="#50EEF7"/>
<path id="Vector_39" d="M40.3126 124.424L66.415 29.1511L123.294 44.7345L130.124 54.9912L107.432 137.875L102.7 134.882C102.7 134.882 98.9841 131.55 95.3186 132.552C91.6531 133.554 89.5009 133.453 88.0851 136.432C86.6694 139.412 86.3802 143.215 86.3802 143.215L85.4789 143.125L82.0858 144.816L80.0681 141.487L76.0865 143.636L74.5127 139.812L70.9212 142.223L69.1624 138.504L65.4028 140.404L63.7886 136.722L62.2854 137.697C62.2854 137.697 71.0893 128.079 64.1451 120.775C57.2008 113.471 50.6937 118.633 44.5969 121.744L40.3126 124.427V124.424Z" fill="#E5FAFE"/>
<path id="Vector_40" d="M3.90671 180.162C1.99325 179.816 0.197495 190.628 1.17608 197.579C4.22282 200.645 28.933 207.072 46.1036 207.455C46.1036 207.455 47.8927 193.6 48.3937 190.651C48.3937 190.651 38.4902 191.33 30.6245 189.639C22.7588 187.947 5.82353 180.505 3.90671 180.162Z" fill="#FED604"/>
<path id="Vector_41" d="M112.704 158.6L111.232 154.958L108.074 157.487L109.177 161.337L112.704 158.6Z" fill="#FF7101"/>
<path id="Vector_42" d="M117.234 154.443C117.234 154.443 117.449 159.286 115.66 161.879L119.776 166.553L124.797 167.928L127.225 165.817L129.387 157.924L128.53 154.295L123.22 152.839L117.227 154.437L117.234 154.443Z" fill="#50EEF7"/>
<path id="Vector_43" d="M123.294 44.7341C123.294 44.7341 126.438 49.4589 124.32 53.8104L130.124 54.9908L123.294 44.7341Z" fill="#CCF7FF"/>
<path id="Vector_44" d="M24.9749 132.023C24.9749 132.023 33.5233 136.294 36.3615 140.851C39.1997 145.407 40.5583 151.72 40.5583 151.72C40.5583 151.72 43.0905 146.706 45.4008 145.872C47.7111 145.038 55.3548 143.047 55.4725 142.616C55.5902 142.186 55.7684 130.278 41.779 123.902C41.779 123.902 38.5675 126.337 32.3126 129.175C26.0577 132.013 24.9749 132.023 24.9749 132.023Z" fill="#FED604"/>
<path id="Vector_45" d="M30.2412 130.332C35.3191 134.24 39.7446 134.045 44.308 132.121C46.171 131.338 47.8827 130.147 49.8533 129.69L41.7791 123.899C41.7791 123.899 31.4888 130.083 30.2446 130.329L30.2412 130.332Z" fill="#FFFAF0"/>
<path id="Vector_46" d="M34.4854 128.146C38.6823 130.88 45.0179 133.584 47.1062 145.034" stroke="#002140" stroke-linecap="round" stroke-linejoin="round"/>
<path id="Vector_47" d="M41.9743 123.714C46.0501 126.518 55.1567 131.226 55.345 142.6" stroke="#002140" stroke-linecap="round" stroke-linejoin="round"/>
<path id="Vector_48" d="M25.415 132.148C25.415 132.148 38.8394 137.307 40.4569 152.036" stroke="#002140" stroke-linecap="round" stroke-linejoin="round"/>
<path id="Vector_49" d="M10.2656 162.074C10.2656 162.074 -0.105421 177.946 1.12538 197.384" stroke="#002140" stroke-linecap="round" stroke-linejoin="round"/>
<path id="Vector_50" d="M51.6657 184.712C51.6657 184.712 47.5798 188.001 46.951 207.479" stroke="#002140" stroke-linecap="round" stroke-linejoin="round"/>
<path id="Vector_51" d="M3.21365 179.611C19.5302 188.254 36.8051 191.253 48.6624 190.836" stroke="#002140" stroke-linecap="round" stroke-linejoin="round"/>
<path id="Vector_52" d="M1.12567 197.384C13.9011 203.719 32.8944 207.859 46.9511 207.476" stroke="#002140" stroke-linecap="round" stroke-linejoin="round"/>
<path id="Vector_53" d="M24.8675 188.23C24.8675 188.23 28.9567 198.349 20.5967 204.065" stroke="#002140" stroke-linecap="round" stroke-linejoin="round"/>
<path id="Vector_54" d="M12.2903 184.087C12.2903 184.087 16.3795 194.205 8.0195 199.922" stroke="#002140" stroke-linecap="round" stroke-linejoin="round"/>
<path id="Vector_55" d="M37.3533 190.789C37.3533 190.789 41.4425 200.907 33.0825 206.624" stroke="#002140" stroke-linecap="round" stroke-linejoin="round"/>
<path id="Vector_56" d="M18.8809 196.957C20.0212 196.957 20.9457 196.032 20.9457 194.892C20.9457 193.752 20.0212 192.827 18.8809 192.827C17.7405 192.827 16.8161 193.752 16.8161 194.892C16.8161 196.032 17.7405 196.957 18.8809 196.957Z" fill="#002140"/>
<path id="Vector_57" d="M6.50928 192.696C7.64963 192.696 8.57407 191.771 8.57407 190.631C8.57407 189.491 7.64963 188.566 6.50928 188.566C5.36893 188.566 4.44449 189.491 4.44449 190.631C4.44449 191.771 5.36893 192.696 6.50928 192.696Z" fill="#002140"/>
<path id="Vector_58" d="M31.3233 199.778C32.4637 199.778 33.3881 198.854 33.3881 197.713C33.3881 196.573 32.4637 195.648 31.3233 195.648C30.183 195.648 29.2586 196.573 29.2586 197.713C29.2586 198.854 30.183 199.778 31.3233 199.778Z" fill="#002140"/>
<path id="Vector_59" d="M42.983 201.352C44.1233 201.352 45.0478 200.427 45.0478 199.287C45.0478 198.147 44.1233 197.222 42.983 197.222C41.8426 197.222 40.9182 198.147 40.9182 199.287C40.9182 200.427 41.8426 201.352 42.983 201.352Z" fill="#002140"/>
<path id="Vector_60" d="M33.9804 128.153L67.5718 5.54685C68.5739 1.8948 72.3437 -0.254065 75.9957 0.744699L138.962 17.996C142.614 18.9982 144.762 22.7679 143.764 26.42L112.779 139.516" stroke="#002140" stroke-linecap="round" stroke-linejoin="round"/>
<path id="Vector_61" d="M101.863 177.923C100.255 180.263 97.2892 181.447 94.3971 180.653L42.3067 166.381" stroke="#002140" stroke-linecap="round" stroke-linejoin="round"/>
<path id="Vector_62" d="M67.6121 163.194C72.3815 163.194 76.2479 159.327 76.2479 154.558C76.2479 149.789 72.3815 145.922 67.6121 145.922C62.8427 145.922 58.9763 149.789 58.9763 154.558C58.9763 159.327 62.8427 163.194 67.6121 163.194Z" stroke="#002140" stroke-linecap="round" stroke-linejoin="round"/>
<path id="Vector_63" d="M67.6092 160.946C71.0816 160.946 73.8966 158.131 73.8966 154.659C73.8966 151.186 71.0816 148.371 67.6092 148.371C64.1367 148.371 61.3217 151.186 61.3217 154.659C61.3217 158.131 64.1367 160.946 67.6092 160.946Z" fill="#03D47C" stroke="#002140"/>
<path id="Vector_64" d="M70.9486 11.3008L74.0895 16.9873" stroke="#002140" stroke-linecap="round" stroke-linejoin="round"/>
<path id="Vector_65" d="M69.8688 15.7027L75.6731 12.5955" stroke="#002140" stroke-linecap="round" stroke-linejoin="round"/>
<path id="Vector_66" d="M135.508 28.7339L130.948 31.9286L133.904 32.739L132.448 35.2612L136.846 32.655L133.894 31.8479L135.508 28.7339Z" fill="#002140"/>
<path id="Vector_67" d="M62.3091 137.565L63.819 136.748L65.5273 140.646" stroke="#002140" stroke-linecap="round" stroke-linejoin="round"/>
<path id="Vector_68" d="M65.6114 140.575L69.2836 138.245L70.9919 142.142" stroke="#002140" stroke-linecap="round" stroke-linejoin="round"/>
<path id="Vector_69" d="M71.076 142.072L74.7483 139.745L76.4566 143.639" stroke="#002140" stroke-linecap="round" stroke-linejoin="round"/>
<path id="Vector_70" d="M76.5407 143.571L80.2163 141.241L81.9212 145.138" stroke="#002140" stroke-linecap="round" stroke-linejoin="round"/>
<path id="Vector_71" d="M82.0052 145.068L85.6809 142.737L86.3668 143.746" stroke="#002140" stroke-linecap="round" stroke-linejoin="round"/>
<path id="Vector_72" d="M123.57 45.1142L66.536 29.4871L40.5648 124.282" stroke="#002140" stroke-linecap="round" stroke-linejoin="round"/>
<path id="Vector_73" d="M107.468 137.676L130.124 54.9907" stroke="#002140" stroke-linecap="round" stroke-linejoin="round"/>
<path id="Vector_74" d="M67.2456 128.832L88.8586 134.751" stroke="#002140" stroke-linecap="round" stroke-linejoin="round"/>
<path id="Vector_75" d="M52.1404 104.976L105.828 119.685" stroke="#002140" stroke-linecap="round" stroke-linejoin="round"/>
<path id="Vector_76" d="M87.934 106.488L54.5049 97.3301L53.6315 100.518L87.0606 109.676L87.934 106.488Z" stroke="#002140" stroke-linecap="round" stroke-linejoin="round"/>
<path id="Vector_77" d="M77.2458 96.8282L56.2192 91.0681L55.3458 94.2563L76.3724 100.016L77.2458 96.8282Z" stroke="#002140" stroke-linecap="round" stroke-linejoin="round"/>
<path id="Vector_78" d="M60.6644 77.5657L90.1968 85.6567" stroke="#002140" stroke-linecap="round" stroke-linejoin="round"/>
<path id="Vector_79" d="M59.4473 82.0146L88.9797 90.1023" stroke="#002140" stroke-linecap="round" stroke-linejoin="round"/>
<path id="Vector_80" d="M61.7876 73.937L74.072 77.2999" stroke="#002140" stroke-linecap="round" stroke-linejoin="round"/>
<path id="Vector_81" d="M103.426 85.344L114.47 88.3706" stroke="#002140" stroke-linecap="round" stroke-linejoin="round"/>
<path id="Vector_82" d="M101.029 94.0972L112.073 97.1204" stroke="#002140" stroke-linecap="round" stroke-linejoin="round"/>
<path id="Vector_83" d="M100.32 96.6799L111.367 99.7031" stroke="#002140" stroke-linecap="round" stroke-linejoin="round"/>
<path id="Vector_84" d="M99.4552 99.8342L110.499 102.861" stroke="#002140" stroke-linecap="round" stroke-linejoin="round"/>
<path id="Vector_85" d="M82.6476 64.5378L100.841 69.5216" stroke="#002140" stroke-linecap="round" stroke-linejoin="round"/>
<path id="Vector_86" d="M74.3207 66.1958L106.688 75.0602" stroke="#002140" stroke-linecap="round" stroke-linejoin="round"/>
<path id="Vector_87" d="M95.4399 62.1301C100.31 62.1301 104.257 58.1824 104.257 53.3127C104.257 48.443 100.31 44.4954 95.4399 44.4954C90.5702 44.4954 86.6226 48.443 86.6226 53.3127C86.6226 58.1824 90.5702 62.1301 95.4399 62.1301Z" stroke="#002140" stroke-linecap="round" stroke-linejoin="round"/>
<path id="Vector_88" d="M97.7804 52.0518C97.8342 52.0753 97.8948 52.0888 97.9553 52.0921C98.3656 52.1224 98.5908 51.7794 98.6884 51.4297C98.7444 51.2212 98.8128 50.9723 98.8935 50.6831C98.9675 50.4175 98.991 50.1249 98.759 49.9332C98.6076 49.8088 98.3554 49.7684 98.1705 49.8256C98.1503 49.8323 97.9183 49.9433 97.9486 49.987C97.9486 49.987 97.5416 49.3918 97.0776 49.264L97.2726 48.5477C97.2726 48.5477 97.4273 47.9861 96.8052 47.818C96.1831 47.6465 96.0116 48.2686 96.0116 48.2686L95.8165 48.9849C95.8165 48.9849 93.6945 48.6722 93.1329 50.7235C92.383 53.4608 97.0877 53.3801 96.6303 55.0616C96.5664 55.3003 96.1696 56.0065 94.6462 55.5895C92.7933 55.0817 94.0712 53.777 92.9043 53.4575C92.2654 53.2826 91.9795 53.7232 91.8752 54.0964L91.4919 55.4953C91.4919 55.4953 91.3776 56.0334 91.9694 56.1948C92.5613 56.3563 92.7933 56.1209 92.7933 56.1209C92.7933 56.1209 93.1094 56.6757 93.671 56.8304L93.4491 57.6341C93.3112 58.1386 93.0253 58.8616 93.7282 59.0533C94.3167 59.2147 94.5151 58.7405 94.6462 58.2731C94.7505 57.8998 94.8514 57.5232 94.9556 57.1499C94.9455 57.1835 95.8838 57.1499 95.941 57.1431C96.627 57.0288 97.2424 56.669 97.6224 56.0771C98.0562 55.4046 98.2647 54.4764 97.851 53.7467C97.5585 53.2288 97.0339 52.8824 96.5227 52.6033C96.0284 52.3309 95.5004 52.1258 95.0229 51.8265C94.7236 51.6416 94.3671 51.3624 94.4747 50.9656C94.7034 50.1249 95.6719 50.2661 96.2469 50.4242C96.8052 50.5789 97.1616 50.8546 97.3029 51.4162C97.3668 51.6752 97.5316 51.9543 97.7838 52.0585L97.7804 52.0518Z" fill="#002140"/>
<path id="Vector_89" d="M90.7221 122.685C90.7624 122.701 90.8095 122.712 90.8565 122.715C91.1693 122.738 91.3408 122.476 91.4148 122.21C91.4574 122.054 91.509 121.864 91.5695 121.642C91.6233 121.44 91.6435 121.218 91.4652 121.07C91.3509 120.976 91.1592 120.946 91.018 120.99C91.0045 120.993 90.8263 121.081 90.8498 121.114C90.8498 121.114 90.5404 120.66 90.184 120.563L90.332 120.018C90.332 120.018 90.4496 119.591 89.9755 119.46C89.5013 119.329 89.3702 119.803 89.3702 119.803L89.2222 120.347C89.2222 120.347 87.6047 120.109 87.1776 121.672C86.6059 123.757 90.1907 123.697 89.841 124.975C89.7905 125.156 89.4913 125.694 88.3277 125.375C86.9187 124.988 87.8905 123.993 87.0027 123.751C86.5151 123.616 86.2965 123.952 86.2192 124.238L85.9266 125.304C85.9266 125.304 85.8392 125.715 86.2898 125.836C86.7404 125.957 86.9187 125.778 86.9187 125.778C86.9187 125.778 87.1608 126.202 87.5879 126.317L87.4197 126.929C87.3155 127.312 87.0969 127.863 87.6316 128.008C88.0822 128.132 88.2302 127.769 88.3311 127.413C88.4084 127.127 88.4891 126.841 88.5665 126.555C88.5597 126.582 89.2726 126.555 89.3164 126.549C89.841 126.461 90.3084 126.185 90.5976 125.738C90.9272 125.227 91.0852 124.517 90.7725 123.963C90.5472 123.569 90.1504 123.303 89.7603 123.092C89.3836 122.886 88.9801 122.728 88.6169 122.5C88.3916 122.358 88.1158 122.147 88.1999 121.844C88.3748 121.205 89.1113 121.309 89.5484 121.43C89.9856 121.551 90.2445 121.76 90.3555 122.187C90.4059 122.385 90.5304 122.597 90.7221 122.675V122.685Z" fill="#002140"/>
<path id="Vector_90" d="M102.899 126.021C102.939 126.037 102.986 126.048 103.033 126.051C103.346 126.074 103.517 125.812 103.591 125.546C103.634 125.39 103.685 125.2 103.746 124.978C103.8 124.776 103.82 124.554 103.642 124.406C103.527 124.312 103.336 124.282 103.194 124.326C103.181 124.329 103.003 124.417 103.026 124.45C103.026 124.45 102.717 123.996 102.361 123.899L102.508 123.354C102.508 123.354 102.626 122.927 102.152 122.796C101.678 122.664 101.547 123.139 101.547 123.139L101.399 123.683C101.399 123.683 99.7812 123.445 99.3541 125.008C98.7824 127.093 102.367 127.033 102.018 128.311C101.967 128.492 101.668 129.03 100.504 128.711C99.0952 128.324 100.067 127.329 99.1792 127.087C98.6916 126.952 98.4731 127.288 98.3957 127.574L98.1032 128.64C98.1032 128.64 98.0157 129.051 98.4663 129.172C98.9169 129.296 99.0952 129.114 99.0952 129.114C99.0952 129.114 99.3373 129.538 99.7644 129.652L99.5963 130.265C99.492 130.648 99.2734 131.199 99.8081 131.344C100.259 131.468 100.407 131.105 100.508 130.749C100.585 130.463 100.666 130.177 100.743 129.891C100.736 129.918 101.449 129.891 101.493 129.885C102.017 129.797 102.485 129.521 102.774 129.074C103.104 128.563 103.262 127.853 102.949 127.298C102.724 126.905 102.327 126.639 101.937 126.428C101.547 126.216 101.157 126.064 100.793 125.836C100.568 125.694 100.292 125.483 100.376 125.18C100.551 124.541 101.288 124.645 101.725 124.766C102.162 124.887 102.421 125.096 102.532 125.523C102.582 125.721 102.707 125.933 102.899 126.011V126.021Z" fill="#002140"/>
<path id="Vector_91" d="M96.812 124.353C96.8523 124.37 96.8994 124.38 96.9465 124.383C97.2592 124.407 97.4307 124.144 97.5047 123.879C97.5473 123.722 97.5989 123.532 97.6594 123.31C97.7132 123.109 97.7334 122.887 97.5551 122.739C97.4408 122.645 97.2491 122.614 97.1079 122.658C97.0944 122.661 96.9162 122.749 96.9397 122.782C96.9397 122.782 96.6304 122.328 96.2739 122.231L96.4219 121.686C96.4219 121.686 96.5396 121.259 96.0654 121.128C95.5913 120.997 95.4601 121.471 95.4601 121.471L95.3121 122.016C95.3121 122.016 93.6946 121.777 93.2675 123.341C92.6958 125.426 96.2806 125.365 95.9309 126.643C95.8805 126.825 95.5812 127.363 94.4176 127.043C93.0086 126.656 93.9804 125.661 93.0926 125.419C92.605 125.284 92.3865 125.621 92.3091 125.906L92.0165 126.973C92.0165 126.973 91.9291 127.383 92.3797 127.504C92.8303 127.628 93.0086 127.447 93.0086 127.447C93.0086 127.447 93.2507 127.87 93.6778 127.985L93.5096 128.597C93.4054 128.98 93.1868 129.532 93.7215 129.676C94.1721 129.801 94.3201 129.438 94.421 129.081C94.4983 128.795 94.579 128.509 94.6564 128.223C94.6496 128.25 95.3626 128.223 95.4063 128.217C95.9309 128.129 96.3983 127.854 96.6875 127.406C97.0171 126.895 97.1752 126.186 96.8624 125.631C96.6371 125.237 96.2403 124.972 95.8502 124.76C95.4736 124.555 95.07 124.397 94.7068 124.168C94.4815 124.027 94.2058 123.815 94.2898 123.512C94.4647 122.873 95.2012 122.977 95.6383 123.099C96.0654 123.216 96.3344 123.428 96.4454 123.855C96.4959 124.054 96.6203 124.265 96.812 124.343V124.353Z" fill="#002140"/>
<path id="Vector_92" d="M116.491 152.334C103.053 152.395 100.767 146.476 96.062 145.027C91.3574 143.581 85.7616 144.623 83.4816 151.51C82.6275 154.093 82.836 156.387 83.7877 158.344" stroke="#002140" stroke-linecap="round" stroke-linejoin="round"/>
<path id="Vector_93" d="M112.984 165.141C99.549 165.201 97.4102 159.498 91.4041 157.981C85.3981 156.465 80.1286 159.125 79.7452 165.561C79.4896 169.862 83.2056 173.141 86.6895 174.981C91.236 177.385 108.276 184.02 112.987 165.141" stroke="#002140" stroke-linecap="round" stroke-linejoin="round"/>
<path id="Vector_94" d="M115.122 139.919C105.753 138.773 103.49 134.129 99.3941 132.867C94.6894 131.421 89.0937 132.464 86.8137 139.351C85.9595 141.934 86.168 144.227 87.1197 146.184" stroke="#002140" stroke-linecap="round" stroke-linejoin="round"/>
<path id="Vector_95" d="M112.89 164.922C112.89 164.922 119.424 160.775 116.538 152.17C116.538 152.17 122.053 144.052 118.623 140.151" stroke="#002140" stroke-linecap="round" stroke-linejoin="round"/>
<path id="Vector_96" d="M112.889 164.922C112.67 164.966 112.452 165.006 112.237 165.046" stroke="#002140" stroke-linecap="round" stroke-linejoin="round"/>
<path id="Vector_97" d="M85.9768 178.834C85.9768 178.834 74.0051 191.287 51.7397 184.726" stroke="#002140" stroke-linecap="round" stroke-linejoin="round"/>
<path id="Vector_98" d="M10.2659 162.074C10.2659 162.074 9.04856 152.866 14.9739 141.819C20.8992 130.772 30.9877 130.863 38.4028 126.004C45.8179 121.145 55.6407 112.062 63.7317 120.005C69.6537 125.819 66.6237 133.705 61.223 138.628C58.5227 141.09 55.3751 142.818 51.8844 143.864C48.2828 144.943 44.0053 145.542 41.8194 148.982C41.2982 149.799 40.9384 150.717 40.6828 151.649C39.6874 153.966 46.6956 161.596 38.9308 174.738" stroke="#002140" stroke-linecap="round" stroke-linejoin="round"/>
<path id="Vector_99" d="M117.786 121.222C122.017 123.152 124.764 121.861 130.585 123.553C136.406 125.244 138.189 131.129 136.08 136.57C133.972 142.008 124.455 146.343 113.885 136.506" stroke="#002140" stroke-linecap="round" stroke-linejoin="round"/>
<path id="Vector_100" d="M105.377 150.677C105.377 150.677 106.272 155.859 101.917 163.305" stroke="#002140" stroke-linecap="round" stroke-linejoin="round"/>
<path id="Vector_101" d="M111.386 154.638L108.044 157.272L109.722 161.277L113.068 158.647L111.386 154.638Z" stroke="#002140" stroke-linecap="round" stroke-linejoin="round"/>
<path id="Vector_102" d="M117.194 154.84L123.63 152.749L128.651 154.124L129.69 157.648L127.37 166.113L124.955 167.609L120.365 166.351L115.959 161.6" stroke="#002140" stroke-linecap="round" stroke-linejoin="round"/>
<path id="Vector_103" d="M124.202 152.903L120.507 166.391" stroke="#002140" stroke-linecap="round" stroke-linejoin="round"/>
<path id="Vector_104" d="M123.11 156.616L117.302 158.109L121.166 162.871" stroke="#002140" stroke-linecap="round" stroke-linejoin="round"/>
<path id="Vector_105" d="M128.338 154.423L123.499 156.878L128.499 160.87L121.875 162.524L125.022 167.088" stroke="#002140" stroke-linecap="round" stroke-linejoin="round"/>
<path id="Vector_106" d="M123.553 45.1677C123.553 45.1677 126.327 50.2456 124.155 53.6623L129.973 54.9469L123.549 45.1677" stroke="#002140" stroke-linecap="round" stroke-linejoin="round"/>
</g>
</svg>
