<?xml version="1.0" encoding="utf-8"?>
<!-- Generator: Adobe Illustrator 27.3.1, SVG Export Plug-In . SVG Version: 6.00 Build 0)  -->
<svg version="1.1" id="Layer_1" xmlns="http://www.w3.org/2000/svg" xmlns:xlink="http://www.w3.org/1999/xlink" x="0px" y="0px"
	 viewBox="0 0 153 200" style="enable-background:new 0 0 153 200;" xml:space="preserve">
<style type="text/css">
	.st0{fill:#99F6FF;}
	.st1{fill:#CCF7FF;}
	.st2{fill:none;stroke:#002140;stroke-linecap:round;stroke-linejoin:round;}
	.st3{fill:#002140;}
	.st4{fill:#A65E3A;}
	.st5{fill:#FED604;}
	.st6{fill:#50EEF7;}
	.st7{fill:#E5FAFE;}
	.st8{fill:#FF7101;}
	.st9{fill:#FFFAF0;}
	.st10{fill:#03D47C;stroke:#002140;}
</style>
<path class="st0" d="M139.5,52.7c0,0,2.9,4.4,0.9,8.4l5.4,1.1L139.5,52.7z"/>
<path class="st1" d="M145.8,62.2l-5.4-1.1c0,0,1.3-6.5-0.9-8.4L87.1,38.4l-26.9,95.7l3.6-1.6l1.4,3.2l3.6-1.7l1.4,3.1l3.3-1.7l1.9,3
	l3.6-1.6l1.5,3.3l3.6-2.1l1.5,3.6l3.3-1.9l1.8,3.2l3.3-1.9l1.9,3.2l2.9-1.7l1.9,3.3l3.6-2.1l1.5,3.3l3.4-1.8l1.8,3.3l3.3-2l1.6,3.4
	l3.8-1.8l1.5,2.8L145.8,62.2L145.8,62.2z"/>
<path class="st2" d="M85.7,141.5l3.4-2.2l1.6,3.6"/>
<path class="st2" d="M80.7,140.1l3.4-2.2l1.6,3.6"/>
<path class="st2" d="M90.8,142.9l3.4-2.2l1.6,3.6"/>
<path class="st2" d="M95.9,144.3l3.4-2.2l1.6,3.6"/>
<path class="st2" d="M106.1,147.1l3.4-2.1l1.6,3.6"/>
<path class="st2" d="M101,145.7l3.4-2.2l1.6,3.6"/>
<path class="st2" d="M111.2,148.5l3.4-2.2l1.6,3.6"/>
<path class="st2" d="M65.3,135.9l3.4-2.2l1.6,3.6"/>
<path class="st2" d="M70.3,137.3l3.4-2.2l1.6,3.6"/>
<path class="st2" d="M75.4,138.7l3.4-2.2l1.6,3.6"/>
<path class="st2" d="M139.7,53.1L86.9,38.4l-26.7,96l3.4-2.2l1.6,3.6"/>
<path class="st2" d="M145.8,62.2l-24.6,89.1l-1.6-3.6l-3.4,2.2"/>
<path class="st2" d="M87.3,130.6l20,5.5"/>
<path class="st2" d="M73.3,108.4l49.8,13.8"/>
<path class="st2" d="M106.6,109.9l-31-8.6l-0.8,3l31,8.6L106.6,109.9z"/>
<path class="st2" d="M96.7,100.9l-19.5-5.4l-0.8,3l19.5,5.4L96.7,100.9z"/>
<path class="st2" d="M81.3,83l27.4,7.6"/>
<path class="st2" d="M80.2,87.1l27.4,7.6"/>
<path class="st2" d="M82.4,79.7l11.4,3.2"/>
<path class="st2" d="M120.9,90.3l10.2,2.8"/>
<path class="st2" d="M118.7,98.5l10.2,2.8"/>
<path class="st2" d="M118,100.8l10.2,2.8"/>
<path class="st2" d="M117.2,103.8l10.2,2.8"/>
<path class="st2" d="M101.7,71l16.9,4.7"/>
<path class="st2" d="M94,72.5l30,8.3"/>
<path class="st2" d="M113.6,68.8c4.5,0,8.2-3.7,8.2-8.2c0-4.5-3.7-8.2-8.2-8.2s-8.2,3.7-8.2,8.2C105.4,65.1,109.1,68.8,113.6,68.8z"
	/>
<path class="st3" d="M115.8,59.4c0,0,0.1,0,0.2,0c0.4,0,0.6-0.3,0.7-0.6c0.1-0.2,0.1-0.4,0.2-0.7c0.1-0.2,0.1-0.5-0.1-0.7
	c-0.1-0.1-0.4-0.2-0.5-0.1c0,0-0.2,0.1-0.2,0.1c0,0-0.4-0.6-0.8-0.7l0.2-0.7c0,0,0.1-0.5-0.4-0.7c-0.6-0.2-0.7,0.4-0.7,0.4l-0.2,0.7
	c0,0-2-0.3-2.5,1.6c-0.7,2.5,3.7,2.5,3.2,4c-0.1,0.2-0.4,0.9-1.8,0.5c-1.7-0.5-0.5-1.7-1.6-2c-0.6-0.2-0.9,0.2-1,0.6l-0.4,1.3
	c0,0-0.1,0.5,0.4,0.6c0.5,0.2,0.8-0.1,0.8-0.1s0.3,0.5,0.8,0.7l-0.2,0.7c-0.1,0.5-0.4,1.1,0.3,1.3c0.5,0.2,0.7-0.3,0.9-0.7
	c0.1-0.3,0.2-0.7,0.3-1c0,0,0.9,0,0.9,0c0.6-0.1,1.2-0.4,1.6-1c0.4-0.6,0.6-1.5,0.2-2.2c-0.3-0.5-0.8-0.8-1.2-1.1
	c-0.5-0.3-0.9-0.4-1.4-0.7c-0.3-0.2-0.6-0.4-0.5-0.8c0.2-0.8,1.1-0.6,1.6-0.5c0.5,0.1,0.8,0.4,1,0.9
	C115.4,59.1,115.5,59.3,115.8,59.4L115.8,59.4z"/>
<path class="st3" d="M109.1,124.9c0,0,0.1,0,0.1,0c0.3,0,0.4-0.2,0.5-0.5c0-0.1,0.1-0.3,0.1-0.5c0.1-0.2,0.1-0.4-0.1-0.5
	c-0.1-0.1-0.3-0.1-0.4-0.1c0,0-0.2,0.1-0.2,0.1c0,0-0.3-0.4-0.6-0.5l0.1-0.5c0,0,0.1-0.4-0.3-0.5c-0.4-0.1-0.6,0.3-0.6,0.3l-0.1,0.5
	c0,0-1.5-0.2-1.9,1.2c-0.5,1.9,2.8,1.9,2.5,3.1c0,0.2-0.3,0.7-1.4,0.4c-1.3-0.4-0.4-1.3-1.2-1.5c-0.4-0.1-0.7,0.2-0.7,0.4l-0.3,1
	c0,0-0.1,0.4,0.3,0.5c0.4,0.1,0.6-0.1,0.6-0.1s0.2,0.4,0.6,0.5l-0.2,0.6c-0.1,0.4-0.3,0.9,0.2,1c0.4,0.1,0.6-0.2,0.6-0.6
	c0.1-0.3,0.1-0.5,0.2-0.8c0,0,0.7,0,0.7,0c0.5-0.1,0.9-0.3,1.2-0.7c0.3-0.5,0.5-1.1,0.2-1.6c-0.2-0.4-0.6-0.6-0.9-0.8
	c-0.4-0.2-0.7-0.3-1.1-0.6c-0.2-0.1-0.5-0.3-0.4-0.6c0.2-0.6,0.8-0.5,1.3-0.4c0.4,0.1,0.6,0.3,0.7,0.7
	C108.8,124.7,108.9,124.9,109.1,124.9L109.1,124.9z"/>
<path class="st3" d="M120.4,128.1c0,0,0.1,0,0.1,0c0.3,0,0.4-0.2,0.5-0.5c0-0.1,0.1-0.3,0.1-0.5c0.1-0.2,0.1-0.4-0.1-0.5
	c-0.1-0.1-0.3-0.1-0.4-0.1c0,0-0.2,0.1-0.2,0.1c0,0-0.3-0.4-0.6-0.5l0.1-0.5c0,0,0.1-0.4-0.3-0.5c-0.4-0.1-0.6,0.3-0.6,0.3l-0.1,0.5
	c0,0-1.5-0.2-1.9,1.2c-0.5,1.9,2.8,1.9,2.5,3.1c0,0.2-0.3,0.7-1.4,0.4c-1.3-0.4-0.4-1.3-1.2-1.5c-0.5-0.1-0.7,0.2-0.7,0.4l-0.3,1
	c0,0-0.1,0.4,0.3,0.5c0.4,0.1,0.6-0.1,0.6-0.1s0.2,0.4,0.6,0.5l-0.2,0.6c-0.1,0.4-0.3,0.9,0.2,1c0.4,0.1,0.6-0.2,0.6-0.6
	c0.1-0.3,0.1-0.5,0.2-0.8c0,0,0.7,0,0.7,0c0.5-0.1,0.9-0.3,1.2-0.7c0.3-0.5,0.5-1.1,0.2-1.6c-0.2-0.4-0.6-0.6-0.9-0.8
	c-0.3-0.2-0.7-0.3-1.1-0.6c-0.2-0.1-0.5-0.3-0.4-0.6c0.2-0.6,0.8-0.5,1.3-0.4c0.4,0.1,0.6,0.3,0.7,0.7
	C120.1,127.8,120.2,128,120.4,128.1L120.4,128.1z"/>
<path class="st3" d="M114.7,126.5c0,0,0.1,0,0.1,0c0.3,0,0.4-0.2,0.5-0.5c0-0.1,0.1-0.3,0.1-0.5c0.1-0.2,0.1-0.4-0.1-0.5
	c-0.1-0.1-0.3-0.1-0.4-0.1c0,0-0.2,0.1-0.2,0.1c0,0-0.3-0.4-0.6-0.5l0.1-0.5c0,0,0.1-0.4-0.3-0.5s-0.6,0.3-0.6,0.3l-0.1,0.5
	c0,0-1.5-0.2-1.9,1.2c-0.5,1.9,2.8,1.9,2.5,3.1c0,0.2-0.3,0.7-1.4,0.4c-1.3-0.4-0.4-1.3-1.2-1.5c-0.4-0.1-0.7,0.2-0.7,0.4l-0.3,1
	c0,0-0.1,0.4,0.3,0.5c0.4,0.1,0.6-0.1,0.6-0.1s0.2,0.4,0.6,0.5l-0.2,0.6c-0.1,0.4-0.3,0.9,0.2,1c0.4,0.1,0.6-0.2,0.6-0.6
	c0.1-0.3,0.1-0.5,0.2-0.8c0,0,0.7,0,0.7,0c0.5-0.1,0.9-0.3,1.2-0.7c0.3-0.5,0.5-1.1,0.2-1.6c-0.2-0.4-0.6-0.6-0.9-0.8
	c-0.3-0.2-0.7-0.3-1.1-0.6c-0.2-0.1-0.5-0.3-0.4-0.6c0.2-0.6,0.8-0.5,1.3-0.4c0.4,0.1,0.6,0.3,0.7,0.7
	C114.4,126.2,114.5,126.4,114.7,126.5L114.7,126.5z"/>
<path class="st2" d="M139.7,53.1c0,0,2.6,4.7,0.5,7.9l5.4,1.2L139.7,53.1"/>
<path class="st4" d="M9.5,170.1c0,0,3.9-14.3,6.7-16.3c0,0-2.1-12.1,8.3-24.5c0,0,5.9-4,8.5-5c2.6-1,10.7-4.5,14.9-7.9
	c4.2-3.4,12-7.3,18.1-0.9s-1.3,16.2-3.5,17.6c-2.2,1.4-6.3,3.7-8.1,4.1c-1.8,0.4-10.1,1.9-10.4,8.2c0,0,2.5,8,1.7,12.5L86.3,169
	c0,0-7.1,7.6-16.2,7.4c-9.1-0.2-16.1-1.8-16.1-1.8l-2.6,5.7c0,0-15.3,1.4-27.8-3.6S9.5,170.1,9.5,170.1L9.5,170.1z"/>
<path class="st4" d="M115.9,116l-3.9,14.4c0,0,6.4,4.5,9.9,5.1c3.5,0.7,10.4-1,11.8-8.1c1.4-7.1-5.8-9.6-8.4-10
	C122.6,117,117.6,117.5,115.9,116L115.9,116z"/>
<path class="st4" d="M111.9,130.4l-0.7,2.5c0,0-2.8-0.6-4.9-1.5c-2.1-0.8-6-4.2-9.8-5c-3.8-0.8-7.7,1.9-9,4.6
	c-1.3,2.6-1,6.7-0.6,7.9c0,0-5.1,5.5-2.9,11.5c0,0-2.8,2.3-3.3,4.5s-1.4,9.6,11,13c12.4,3.4,17.8-5,19.4-11.3c0,0,6-4.7,3.2-11.8
	c0,0,4.2-7.1,1.9-11.1L111.9,130.4L111.9,130.4z"/>
<path class="st5" d="M104.4,143.2c0,0-0.7,9-3.8,12.1c0,0,8.4,1.9,10.6,1.3c0,0,5.9-5.3,3.2-11.8
	C114.5,144.9,107.2,144.4,104.4,143.2L104.4,143.2z"/>
<path class="st6" d="M45.7,157.9L95,171.4c0,0,4.9,0.3,5.7-2.9c0,0-4.5,0.3-9.9-1.1c-5.3-1.5-12.2-6.5-10.2-11.7
	c2-5.2,3.6-5.3,3.6-5.3s-2.8-4.5,2.9-11.5c0,0-2.5-5.1,1.6-9.6c4.1-4.5,9.9-2.6,11.4-1.9c1.5,0.7,5.9,4.2,7.9,4.7
	c2,0.5,3.4,0.8,3.4,0.8l28.7-104.6c0,0,0.9-6.5-4.1-7.9c-5.1-1.4-58.8-16.1-58.8-16.1s-6.4-1.3-8,4.8c-1.7,6.1-31,113.3-31,113.3
	s7.2-3.9,10.1-6c2.9-2.1,9.8-6.6,15.8-3c6,3.6,5.6,10.8,3.2,13.8c-2.4,2.9-3.5,6.3-10.3,8.8c-6.8,2.4-12.3,3.5-12.7,9.4
	C44,145.4,46.6,152.4,45.7,157.9L45.7,157.9z"/>
<path class="st7" d="M44,118.9l24.2-88.4L120.9,45l6.3,9.5l-21,76.9l-4.4-2.8c0,0-3.4-3.1-6.8-2.2c-3.4,0.9-5.4,0.8-6.7,3.6
	c-1.3,2.8-1.6,6.3-1.6,6.3l-0.8-0.1l-3.1,1.6l-1.9-3.1l-3.7,2l-1.5-3.5l-3.3,2.2l-1.6-3.4l-3.5,1.8l-1.5-3.4l-1.4,0.9
	c0,0,8.2-8.9,1.7-15.7c-6.4-6.8-12.5-2-18.1,0.9L44,118.9L44,118.9z"/>
<path class="st5" d="M10.2,170.6c-1.8-0.3-3.4,9.7-2.5,16.2c2.8,2.8,25.7,8.8,41.7,9.2c0,0,1.7-12.9,2.1-15.6c0,0-9.2,0.6-16.5-0.9
	S12,171,10.2,170.6L10.2,170.6z"/>
<path class="st8" d="M111.1,150.6l-1.4-3.4l-2.9,2.3l1,3.6L111.1,150.6z"/>
<path class="st6" d="M115.3,146.8c0,0,0.2,4.5-1.5,6.9l3.8,4.3l4.7,1.3l2.3-2l2-7.3l-0.8-3.4l-4.9-1.4L115.3,146.8L115.3,146.8z"/>
<path class="st1" d="M120.9,45c0,0,2.9,4.4,1,8.4l5.4,1.1L120.9,45z"/>
<path class="st5" d="M29.7,126c0,0,7.9,4,10.6,8.2c2.6,4.2,3.9,10.1,3.9,10.1s2.3-4.7,4.5-5.4c2.1-0.8,9.2-2.6,9.3-3
	c0.1-0.4,0.3-11.4-12.7-17.4c0,0-3,2.3-8.8,4.9C30.7,126,29.7,126,29.7,126L29.7,126z"/>
<path class="st9" d="M34.6,124.4c4.7,3.6,8.8,3.4,13,1.7c1.7-0.7,3.3-1.8,5.1-2.3l-7.5-5.4C45.3,118.5,35.8,124.2,34.6,124.4
	L34.6,124.4z"/>
<path class="st2" d="M38.5,122.4c3.9,2.5,9.8,5,11.7,15.7"/>
<path class="st2" d="M45.5,118.3c3.8,2.6,12.2,7,12.4,17.5"/>
<path class="st2" d="M30.1,126.1c0,0,12.5,4.8,14,18.4"/>
<path class="st2" d="M16.1,153.9c0,0-9.6,14.7-8.5,32.8"/>
<path class="st2" d="M54.5,174.9c0,0-3.8,3.1-4.4,21.1"/>
<path class="st2" d="M9.5,170.1c15.1,8,31.2,10.8,42.2,10.4"/>
<path class="st2" d="M7.6,186.6c11.8,5.9,29.5,9.7,42.5,9.4"/>
<path class="st2" d="M29.6,178.1c0,0,3.8,9.4-4,14.7"/>
<path class="st2" d="M18,174.3c0,0,3.8,9.4-4,14.7"/>
<path class="st2" d="M41.2,180.5c0,0,3.8,9.4-4,14.7"/>
<path class="st3" d="M24.1,186.2c1.1,0,1.9-0.9,1.9-1.9c0-1.1-0.9-1.9-1.9-1.9s-1.9,0.9-1.9,1.9C22.2,185.4,23,186.2,24.1,186.2z"/>
<path class="st3" d="M12.6,182.3c1.1,0,1.9-0.9,1.9-1.9s-0.9-1.9-1.9-1.9s-1.9,0.9-1.9,1.9S11.5,182.3,12.6,182.3z"/>
<path class="st3" d="M35.6,188.8c1.1,0,1.9-0.9,1.9-1.9c0-1.1-0.9-1.9-1.9-1.9c-1.1,0-1.9,0.9-1.9,1.9
	C33.7,188,34.6,188.8,35.6,188.8z"/>
<path class="st3" d="M46.4,190.3c1.1,0,1.9-0.9,1.9-1.9c0-1.1-0.9-1.9-1.9-1.9s-1.9,0.9-1.9,1.9C44.5,189.4,45.4,190.3,46.4,190.3z"
	/>
<path class="st2" d="M38.1,122.4L69.2,8.7c0.9-3.4,4.4-5.4,7.8-4.5l58.4,16c3.4,0.9,5.4,4.4,4.5,7.8l-28.7,104.9"/>
<path class="st2" d="M101,168.6c-1.5,2.2-4.2,3.3-6.9,2.5l-48.3-13.2"/>
<path class="st2" d="M69.3,154.9c4.4,0,8-3.6,8-8s-3.6-8-8-8c-4.4,0-8,3.6-8,8S64.8,154.9,69.3,154.9z"/>
<path class="st10" d="M69.3,152.9c3.2,0,5.9-2.6,5.9-5.9c0-3.2-2.6-5.9-5.9-5.9c-3.2,0-5.9,2.6-5.9,5.9
	C63.4,150.2,66,152.9,69.3,152.9z"/>
<path class="st2" d="M72.4,14l2.9,5.3"/>
<path class="st2" d="M71.4,18.1l5.4-2.9"/>
<path class="st3" d="M132.2,30.2l-4.2,3l2.7,0.8l-1.4,2.3l4.1-2.4l-2.7-0.7L132.2,30.2z"/>
<path class="st2" d="M64.4,131.1l1.4-0.8l1.6,3.6"/>
<path class="st2" d="M67.4,133.9l3.4-2.2l1.6,3.6"/>
<path class="st2" d="M72.5,135.3l3.4-2.2l1.6,3.6"/>
<path class="st2" d="M77.6,136.7l3.4-2.2l1.6,3.6"/>
<path class="st2" d="M82.6,138.1l3.4-2.2l0.6,0.9"/>
<path class="st2" d="M121.2,45.4L68.3,30.9l-24.1,87.9"/>
<path class="st2" d="M106.2,131.2l21-76.7"/>
<path class="st2" d="M68.9,123l20,5.5"/>
<path class="st2" d="M54.9,100.9l49.8,13.6"/>
<path class="st2" d="M88.1,102.3l-31-8.5l-0.8,3l31,8.5L88.1,102.3z"/>
<path class="st2" d="M78.2,93.3L58.7,88l-0.8,3l19.5,5.3L78.2,93.3z"/>
<path class="st2" d="M62.8,75.5L90.2,83"/>
<path class="st2" d="M61.7,79.6l27.4,7.5"/>
<path class="st2" d="M63.9,72.1l11.4,3.1"/>
<path class="st2" d="M102.5,82.7l10.2,2.8"/>
<path class="st2" d="M100.3,90.8l10.2,2.8"/>
<path class="st2" d="M99.6,93.2l10.2,2.8"/>
<path class="st2" d="M98.8,96.1l10.2,2.8"/>
<path class="st2" d="M83.2,63.4l16.9,4.6"/>
<path class="st2" d="M75.5,64.9l30,8.2"/>
<path class="st2" d="M95.1,61.2c4.5,0,8.2-3.7,8.2-8.2s-3.7-8.2-8.2-8.2s-8.2,3.7-8.2,8.2S90.6,61.2,95.1,61.2z"/>
<path class="st3" d="M97.3,51.8c0,0,0.1,0,0.2,0c0.4,0,0.6-0.3,0.7-0.6c0.1-0.2,0.1-0.4,0.2-0.7c0.1-0.2,0.1-0.5-0.1-0.7
	c-0.1-0.1-0.4-0.2-0.5-0.1c0,0-0.2,0.1-0.2,0.1c0,0-0.4-0.6-0.8-0.7l0.2-0.7c0,0,0.1-0.5-0.4-0.7c-0.6-0.2-0.7,0.4-0.7,0.4L95.4,49
	c0,0-2-0.3-2.5,1.6c-0.7,2.5,3.7,2.5,3.2,4c-0.1,0.2-0.4,0.9-1.8,0.5c-1.7-0.5-0.5-1.7-1.6-2c-0.6-0.2-0.9,0.2-1,0.6L91.4,55
	c0,0-0.1,0.5,0.4,0.6c0.5,0.1,0.8-0.1,0.8-0.1s0.3,0.5,0.8,0.7L93.2,57c-0.1,0.5-0.4,1.1,0.3,1.3c0.5,0.1,0.7-0.3,0.9-0.7
	c0.1-0.3,0.2-0.7,0.3-1c0,0,0.9,0,0.9,0c0.6-0.1,1.2-0.4,1.6-1c0.4-0.6,0.6-1.5,0.2-2.2c-0.3-0.5-0.8-0.8-1.2-1.1
	c-0.5-0.3-0.9-0.4-1.4-0.7c-0.3-0.2-0.6-0.4-0.5-0.8c0.2-0.8,1.1-0.6,1.6-0.5c0.5,0.1,0.8,0.4,1,0.9C96.9,51.5,97,51.7,97.3,51.8
	L97.3,51.8z"/>
<path class="st3" d="M90.7,117.3c0,0,0.1,0,0.1,0c0.3,0,0.4-0.2,0.5-0.5c0-0.1,0.1-0.3,0.1-0.5c0-0.2,0.1-0.4-0.1-0.5
	c-0.1-0.1-0.3-0.1-0.4-0.1c0,0-0.2,0.1-0.2,0.1c0,0-0.3-0.4-0.6-0.5l0.1-0.5c0,0,0.1-0.4-0.3-0.5c-0.4-0.1-0.6,0.3-0.6,0.3l-0.1,0.5
	c0,0-1.5-0.2-1.9,1.2c-0.5,1.9,2.8,1.9,2.5,3.1c0,0.2-0.3,0.7-1.4,0.4c-1.3-0.4-0.4-1.3-1.2-1.5c-0.5-0.1-0.7,0.2-0.7,0.5l-0.3,1
	c0,0-0.1,0.4,0.3,0.5c0.4,0.1,0.6-0.1,0.6-0.1s0.2,0.4,0.6,0.5l-0.2,0.6c-0.1,0.4-0.3,0.9,0.2,1c0.4,0.1,0.6-0.2,0.6-0.6
	c0.1-0.3,0.1-0.5,0.2-0.8c0,0,0.7,0,0.7,0c0.5-0.1,0.9-0.3,1.2-0.8c0.3-0.5,0.5-1.1,0.2-1.6c-0.2-0.4-0.6-0.6-0.9-0.8
	c-0.3-0.2-0.7-0.3-1.1-0.5c-0.2-0.1-0.5-0.3-0.4-0.6c0.2-0.6,0.8-0.5,1.3-0.4c0.4,0.1,0.6,0.3,0.7,0.7
	C90.4,117.1,90.5,117.2,90.7,117.3L90.7,117.3z"/>
<path class="st3" d="M102,120.4c0,0,0.1,0,0.1,0c0.3,0,0.4-0.2,0.5-0.5c0-0.1,0.1-0.3,0.1-0.5c0-0.2,0.1-0.4-0.1-0.5
	c-0.1-0.1-0.3-0.1-0.4-0.1c0,0-0.2,0.1-0.2,0.1c0,0-0.3-0.4-0.6-0.5l0.1-0.5c0,0,0.1-0.4-0.3-0.5c-0.4-0.1-0.6,0.3-0.6,0.3l-0.1,0.5
	c0,0-1.5-0.2-1.9,1.2c-0.5,1.9,2.8,1.9,2.5,3.1c0,0.2-0.3,0.7-1.4,0.4c-1.3-0.4-0.4-1.3-1.2-1.5c-0.5-0.1-0.7,0.2-0.7,0.5l-0.3,1
	c0,0-0.1,0.4,0.3,0.5c0.4,0.1,0.6-0.1,0.6-0.1s0.2,0.4,0.6,0.5l-0.2,0.6c-0.1,0.4-0.3,0.9,0.2,1c0.4,0.1,0.6-0.2,0.6-0.6
	c0.1-0.3,0.1-0.5,0.2-0.8c0,0,0.7,0,0.7,0c0.5-0.1,0.9-0.3,1.2-0.8c0.3-0.5,0.5-1.1,0.2-1.6c-0.2-0.4-0.6-0.6-0.9-0.8
	c-0.4-0.2-0.7-0.3-1.1-0.5c-0.2-0.1-0.5-0.3-0.4-0.6c0.2-0.6,0.8-0.5,1.3-0.4c0.4,0.1,0.6,0.3,0.7,0.7
	C101.7,120.1,101.8,120.3,102,120.4L102,120.4z"/>
<path class="st3" d="M96.4,118.9c0,0,0.1,0,0.1,0c0.3,0,0.4-0.2,0.5-0.5c0-0.1,0.1-0.3,0.1-0.5c0-0.2,0.1-0.4-0.1-0.5
	c-0.1-0.1-0.3-0.1-0.4-0.1c0,0-0.2,0.1-0.2,0.1c0,0-0.3-0.4-0.6-0.5l0.1-0.5c0,0,0.1-0.4-0.3-0.5c-0.4-0.1-0.6,0.3-0.6,0.3l-0.1,0.5
	c0,0-1.5-0.2-1.9,1.2c-0.5,1.9,2.8,1.9,2.5,3.1c0,0.2-0.3,0.7-1.4,0.4c-1.3-0.4-0.4-1.3-1.2-1.5c-0.5-0.1-0.7,0.2-0.7,0.5l-0.3,1
	c0,0-0.1,0.4,0.3,0.5c0.4,0.1,0.6-0.1,0.6-0.1s0.2,0.4,0.6,0.5l-0.2,0.6c-0.1,0.4-0.3,0.9,0.2,1c0.4,0.1,0.6-0.2,0.6-0.6
	c0.1-0.3,0.1-0.5,0.2-0.8c0,0,0.7,0,0.7,0c0.5-0.1,0.9-0.3,1.2-0.8c0.3-0.5,0.5-1.1,0.2-1.6c-0.2-0.4-0.6-0.6-0.9-0.8
	c-0.3-0.2-0.7-0.3-1.1-0.5c-0.2-0.1-0.5-0.3-0.4-0.6c0.2-0.6,0.8-0.5,1.3-0.4c0.4,0.1,0.6,0.3,0.7,0.7
	C96.1,118.6,96.2,118.8,96.4,118.9L96.4,118.9z"/>
<path class="st2" d="M114.6,144.8c-12.5,0.1-14.6-5.4-18.9-6.8c-4.4-1.3-9.6-0.4-11.7,6c-0.8,2.4-0.6,4.5,0.3,6.3"/>
<path class="st2" d="M111.4,156.7c-12.5,0.1-14.4-5.2-20-6.6c-5.6-1.4-10.5,1.1-10.8,7c-0.2,4,3.2,7,6.4,8.7
	C91.2,168.1,107,174.2,111.4,156.7"/>
<path class="st2" d="M113.3,133.3c-8.7-1.1-10.8-5.4-14.6-6.5c-4.4-1.3-9.6-0.4-11.7,6c-0.8,2.4-0.6,4.5,0.3,6.3"/>
<path class="st2" d="M111.3,156.5c0,0,6.1-3.8,3.4-11.8c0,0,5.1-7.5,1.9-11.1"/>
<path class="st2" d="M111.3,156.5c-0.2,0-0.4,0.1-0.6,0.1"/>
<path class="st2" d="M86.3,169.4c0,0-11.1,11.6-31.8,5.5"/>
<path class="st2" d="M16.1,153.9c0,0-1.1-8.5,4.4-18.8c5.5-10.2,14.9-10.2,21.7-14.7c6.9-4.5,16-12.9,23.5-5.6
	c5.5,5.4,2.7,12.7-2.3,17.3c-2.5,2.3-5.4,3.9-8.7,4.9c-3.3,1-7.3,1.6-9.3,4.7c-0.5,0.8-0.8,1.6-1.1,2.5c-0.9,2.1,5.6,9.2-1.6,21.4"
	/>
<path class="st2" d="M115.8,116c3.9,1.8,6.5,0.6,11.9,2.2c5.4,1.6,7.1,7,5.1,12.1c-2,5-10.8,9.1-20.6-0.1"/>
<path class="st2" d="M104.3,143.3c0,0,0.8,4.8-3.2,11.7"/>
<path class="st2" d="M109.9,147l-3.1,2.4l1.6,3.7l3.1-2.4L109.9,147z"/>
<path class="st2" d="M115.3,147.2l6-1.9l4.7,1.3l1,3.3l-2.2,7.9l-2.2,1.4l-4.3-1.2l-4.1-4.4"/>
<path class="st2" d="M121.8,145.4l-3.4,12.5"/>
<path class="st2" d="M120.7,148.8l-5.4,1.4l3.6,4.4"/>
<path class="st2" d="M125.6,146.8l-4.5,2.3l4.6,3.7l-6.1,1.5l2.9,4.2"/>
<path class="st2" d="M121.2,45.4c0,0,2.6,4.7,0.6,7.9l5.4,1.2L121.2,45.4"/>
</svg>
