<svg xmlns="http://www.w3.org/2000/svg" xml:space="preserve" id="Layer_1" x="0" y="0" viewBox="0 0 153 200"><style>.st0{fill:#99f6ff}.st1{fill:#ccf7ff}.st2{fill:none;stroke:#002140;stroke-linecap:round;stroke-linejoin:round}.st3{fill:#002140}.st4{fill:#a65e3a}.st5{fill:#fed604}.st6{fill:#50eef7}.st7{fill:#e5fafe}.st8{fill:#ff7101}.st9{fill:#fffaf0}.st10{fill:#03d47c;stroke:#002140}</style><path d="M139.5 52.7s2.9 4.4.9 8.4l5.4 1.1z" class="st0"/><path d="m145.8 62.2-5.4-1.1s1.3-6.5-.9-8.4L87.1 38.4l-26.9 95.7 3.6-1.6 1.4 3.2 3.6-1.7 1.4 3.1 3.3-1.7 1.9 3 3.6-1.6 1.5 3.3 3.6-2.1 1.5 3.6 3.3-1.9 1.8 3.2L94 141l1.9 3.2 2.9-1.7 1.9 3.3 3.6-2.1 1.5 3.3 3.4-1.8 1.8 3.3 3.3-2 1.6 3.4 3.8-1.8 1.5 2.8z" class="st1"/><path d="m85.7 141.5 3.4-2.2 1.6 3.6m-10-2.8 3.4-2.2 1.6 3.6m5.1 1.4 3.4-2.2 1.6 3.6m.1 0 3.4-2.2 1.6 3.6m5.2 1.4 3.4-2.1 1.6 3.6m-10.1-2.9 3.4-2.2 1.6 3.6m5.2 1.4 3.4-2.2 1.6 3.6m-50.9-14 3.4-2.2 1.6 3.6m0 0 3.4-2.2 1.6 3.6m.1 0 3.4-2.2 1.6 3.6m59.3-87L86.9 38.4l-26.7 96 3.4-2.2 1.6 3.6m80.6-73.6-24.6 89.1-1.6-3.6-3.4 2.2m-28.9-19.3 20 5.5m-34-27.7 49.8 13.8" class="st2"/><path d="m106.6 109.9-31-8.6-.8 3 31 8.6zm-9.9-9-19.5-5.4-.8 3 19.5 5.4zM81.3 83l27.4 7.6m-28.5-3.5 27.4 7.6m-25.2-15 11.4 3.2m27.1 7.4 10.2 2.8m-12.4 5.4 10.2 2.8m-10.9-.5 10.2 2.8m-11 .2 10.2 2.8M101.7 71l16.9 4.7M94 72.5l30 8.3m-10.4-12c4.5 0 8.2-3.7 8.2-8.2s-3.7-8.2-8.2-8.2-8.2 3.7-8.2 8.2 3.7 8.2 8.2 8.2" class="st2"/><path d="M115.8 59.4h.2c.4 0 .6-.3.7-.6.1-.2.1-.4.2-.7.1-.2.1-.5-.1-.7-.1-.1-.4-.2-.5-.1l-.2.1s-.4-.6-.8-.7l.2-.7s.1-.5-.4-.7c-.6-.2-.7.4-.7.4l-.2.7s-2-.3-2.5 1.6c-.7 2.5 3.7 2.5 3.2 4-.1.2-.4.9-1.8.5-1.7-.5-.5-1.7-1.6-2-.6-.2-.9.2-1 .6l-.4 1.3s-.1.5.4.6c.5.2.8-.1.8-.1s.3.5.8.7l-.2.7c-.1.5-.4 1.1.3 1.3.5.2.7-.3.9-.7.1-.3.2-.7.3-1h.9c.6-.1 1.2-.4 1.6-1s.6-1.5.2-2.2c-.3-.5-.8-.8-1.2-1.1-.5-.3-.9-.4-1.4-.7-.3-.2-.6-.4-.5-.8.2-.8 1.1-.6 1.6-.5s.8.4 1 .9c-.2.6-.1.8.2.9m-6.7 65.5h.1c.3 0 .4-.2.5-.5 0-.1.1-.3.1-.5.1-.2.1-.4-.1-.5-.1-.1-.3-.1-.4-.1l-.2.1s-.3-.4-.6-.5l.1-.5s.1-.4-.3-.5-.6.3-.6.3l-.1.5s-1.5-.2-1.9 1.2c-.5 1.9 2.8 1.9 2.5 3.1 0 .2-.3.7-1.4.4-1.3-.4-.4-1.3-1.2-1.5-.4-.1-.7.2-.7.4l-.3 1s-.1.4.3.5.6-.1.6-.1.2.4.6.5l-.2.6c-.1.4-.3.9.2 1 .4.1.6-.2.6-.6.1-.3.1-.5.2-.8h.7c.5-.1.9-.3 1.2-.7.3-.5.5-1.1.2-1.6-.2-.4-.6-.6-.9-.8-.4-.2-.7-.3-1.1-.6-.2-.1-.5-.3-.4-.6.2-.6.8-.5 1.3-.4.4.1.6.3.7.7.2.3.3.5.5.5m11.3 3.2h.1c.3 0 .4-.2.5-.5 0-.1.1-.3.1-.5.1-.2.1-.4-.1-.5-.1-.1-.3-.1-.4-.1l-.2.1s-.3-.4-.6-.5l.1-.5s.1-.4-.3-.5-.6.3-.6.3l-.1.5s-1.5-.2-1.9 1.2c-.5 1.9 2.8 1.9 2.5 3.1 0 .2-.3.7-1.4.4-1.3-.4-.4-1.3-1.2-1.5-.5-.1-.7.2-.7.4l-.3 1s-.1.4.3.5.6-.1.6-.1.2.4.6.5l-.2.6c-.1.4-.3.9.2 1 .4.1.6-.2.6-.6.1-.3.1-.5.2-.8h.7c.5-.1.9-.3 1.2-.7.3-.5.5-1.1.2-1.6-.2-.4-.6-.6-.9-.8s-.7-.3-1.1-.6c-.2-.1-.5-.3-.4-.6.2-.6.8-.5 1.3-.4.4.1.6.3.7.7.2.2.3.4.5.5m-5.7-1.6h.1c.3 0 .4-.2.5-.5 0-.1.1-.3.1-.5.1-.2.1-.4-.1-.5-.1-.1-.3-.1-.4-.1l-.2.1s-.3-.4-.6-.5l.1-.5s.1-.4-.3-.5-.6.3-.6.3l-.1.5s-1.5-.2-1.9 1.2c-.5 1.9 2.8 1.9 2.5 3.1 0 .2-.3.7-1.4.4-1.3-.4-.4-1.3-1.2-1.5-.4-.1-.7.2-.7.4l-.3 1s-.1.4.3.5.6-.1.6-.1.2.4.6.5l-.2.6c-.1.4-.3.9.2 1 .4.1.6-.2.6-.6.1-.3.1-.5.2-.8h.7c.5-.1.9-.3 1.2-.7.3-.5.5-1.1.2-1.6-.2-.4-.6-.6-.9-.8s-.7-.3-1.1-.6c-.2-.1-.5-.3-.4-.6.2-.6.8-.5 1.3-.4.4.1.6.3.7.7.2.2.3.4.5.5" class="st3"/><path d="M139.7 53.1s2.6 4.7.5 7.9l5.4 1.2z" class="st2"/><path d="M9.5 170.1s3.9-14.3 6.7-16.3c0 0-2.1-12.1 8.3-24.5 0 0 5.9-4 8.5-5s10.7-4.5 14.9-7.9 12-7.3 18.1-.9-1.3 16.2-3.5 17.6-6.3 3.7-8.1 4.1-10.1 1.9-10.4 8.2c0 0 2.5 8 1.7 12.5L86.3 169s-7.1 7.6-16.2 7.4-16.1-1.8-16.1-1.8l-2.6 5.7s-15.3 1.4-27.8-3.6-14.1-6.6-14.1-6.6M115.9 116l-3.9 14.4s6.4 4.5 9.9 5.1c3.5.7 10.4-1 11.8-8.1s-5.8-9.6-8.4-10c-2.7-.4-7.7.1-9.4-1.4" class="st4"/><path d="m111.9 130.4-.7 2.5s-2.8-.6-4.9-1.5c-2.1-.8-6-4.2-9.8-5s-7.7 1.9-9 4.6c-1.3 2.6-1 6.7-.6 7.9 0 0-5.1 5.5-2.9 11.5 0 0-2.8 2.3-3.3 4.5s-1.4 9.6 11 13 17.8-5 19.4-11.3c0 0 6-4.7 3.2-11.8 0 0 4.2-7.1 1.9-11.1z" class="st4"/><path d="M104.4 143.2s-.7 9-3.8 12.1c0 0 8.4 1.9 10.6 1.3 0 0 5.9-5.3 3.2-11.8.1.1-7.2-.4-10-1.6" class="st5"/><path d="M45.7 157.9 95 171.4s4.9.3 5.7-2.9c0 0-4.5.3-9.9-1.1-5.3-1.5-12.2-6.5-10.2-11.7s3.6-5.3 3.6-5.3-2.8-4.5 2.9-11.5c0 0-2.5-5.1 1.6-9.6s9.9-2.6 11.4-1.9 5.9 4.2 7.9 4.7 3.4.8 3.4.8l28.7-104.6s.9-6.5-4.1-7.9C130.9 19 77.2 4.3 77.2 4.3s-6.4-1.3-8 4.8c-1.7 6.1-31 113.3-31 113.3s7.2-3.9 10.1-6 9.8-6.6 15.8-3 5.6 10.8 3.2 13.8c-2.4 2.9-3.5 6.3-10.3 8.8-6.8 2.4-12.3 3.5-12.7 9.4-.3 0 2.3 7 1.4 12.5" class="st6"/><path d="m44 118.9 24.2-88.4L120.9 45l6.3 9.5-21 76.9-4.4-2.8s-3.4-3.1-6.8-2.2-5.4.8-6.7 3.6-1.6 6.3-1.6 6.3l-.8-.1-3.1 1.6-1.9-3.1-3.7 2-1.5-3.5-3.3 2.2-1.6-3.4-3.5 1.8-1.5-3.4-1.4.9s8.2-8.9 1.7-15.7c-6.4-6.8-12.5-2-18.1.9z" class="st7"/><path d="M10.2 170.6c-1.8-.3-3.4 9.7-2.5 16.2 2.8 2.8 25.7 8.8 41.7 9.2 0 0 1.7-12.9 2.1-15.6 0 0-9.2.6-16.5-.9s-23-8.5-24.8-8.9" class="st5"/><path d="m111.1 150.6-1.4-3.4-2.9 2.3 1 3.6z" class="st8"/><path d="M115.3 146.8s.2 4.5-1.5 6.9l3.8 4.3 4.7 1.3 2.3-2 2-7.3-.8-3.4-4.9-1.4z" class="st6"/><path d="M120.9 45s2.9 4.4 1 8.4l5.4 1.1z" class="st1"/><path d="M29.7 126s7.9 4 10.6 8.2c2.6 4.2 3.9 10.1 3.9 10.1s2.3-4.7 4.5-5.4c2.1-.8 9.2-2.6 9.3-3s.3-11.4-12.7-17.4c0 0-3 2.3-8.8 4.9s-6.8 2.6-6.8 2.6" class="st5"/><path d="M34.6 124.4c4.7 3.6 8.8 3.4 13 1.7 1.7-.7 3.3-1.8 5.1-2.3l-7.5-5.4c.1.1-9.4 5.8-10.6 6" class="st9"/><path d="M38.5 122.4c3.9 2.5 9.8 5 11.7 15.7m-4.7-19.8c3.8 2.6 12.2 7 12.4 17.5m-27.8-9.7s12.5 4.8 14 18.4m-28 9.4s-9.6 14.7-8.5 32.8m46.9-11.8s-3.8 3.1-4.4 21.1" class="st2"/><path d="M9.5 170.1c15.1 8 31.2 10.8 42.2 10.4m-44.1 6.1c11.8 5.9 29.5 9.7 42.5 9.4" class="st2"/><path d="M29.6 178.1s3.8 9.4-4 14.7M18 174.3s3.8 9.4-4 14.7m27.2-8.5s3.8 9.4-4 14.7" class="st2"/><path d="M24.1 186.2c1.1 0 1.9-.9 1.9-1.9 0-1.1-.9-1.9-1.9-1.9s-1.9.9-1.9 1.9c0 1.1.8 1.9 1.9 1.9m-11.5-3.9c1.1 0 1.9-.9 1.9-1.9s-.9-1.9-1.9-1.9-1.9.9-1.9 1.9.8 1.9 1.9 1.9m23 6.5c1.1 0 1.9-.9 1.9-1.9 0-1.1-.9-1.9-1.9-1.9-1.1 0-1.9.9-1.9 1.9 0 1.1.9 1.9 1.9 1.9m10.8 1.5c1.1 0 1.9-.9 1.9-1.9 0-1.1-.9-1.9-1.9-1.9s-1.9.9-1.9 1.9.9 1.9 1.9 1.9" class="st3"/><path d="M38.1 122.4 69.2 8.7c.9-3.4 4.4-5.4 7.8-4.5l58.4 16c3.4.9 5.4 4.4 4.5 7.8l-28.7 104.9M101 168.6c-1.5 2.2-4.2 3.3-6.9 2.5l-48.3-13.2m23.5-3c4.4 0 8-3.6 8-8s-3.6-8-8-8-8 3.6-8 8 3.5 8 8 8" class="st2"/><path d="M69.3 152.9c3.2 0 5.9-2.6 5.9-5.9 0-3.2-2.6-5.9-5.9-5.9-3.2 0-5.9 2.6-5.9 5.9 0 3.2 2.6 5.9 5.9 5.9z" class="st10"/><path d="m72.4 14 2.9 5.3m-3.9-1.2 5.4-2.9" class="st2"/><path d="m132.2 30.2-4.2 3 2.7.8-1.4 2.3 4.1-2.4-2.7-.7z" class="st3"/><path d="m64.4 131.1 1.4-.8 1.6 3.6m0 0 3.4-2.2 1.6 3.6m.1 0 3.4-2.2 1.6 3.6m.1 0 3.4-2.2 1.6 3.6m0 0 3.4-2.2.6.9m34.6-91.4L68.3 30.9l-24.1 87.9m62 12.4 21-76.7M68.9 123l20 5.5m-34-27.6 49.8 13.6" class="st2"/><path d="m88.1 102.3-31-8.5-.8 3 31 8.5zm-9.9-9L58.7 88l-.8 3 19.5 5.3zM62.8 75.5 90.2 83m-28.5-3.4 27.4 7.5m-25.2-15 11.4 3.1m27.2 7.5 10.2 2.8m-12.4 5.3 10.2 2.8m-10.9-.4 10.2 2.8m-11 .1 10.2 2.8M83.2 63.4l16.9 4.6m-24.6-3.1 30 8.2M95.1 61.2c4.5 0 8.2-3.7 8.2-8.2s-3.7-8.2-8.2-8.2-8.2 3.7-8.2 8.2 3.7 8.2 8.2 8.2" class="st2"/><path d="M97.3 51.8h.2c.4 0 .6-.3.7-.6.1-.2.1-.4.2-.7.1-.2.1-.5-.1-.7-.1-.1-.4-.2-.5-.1l-.2.1s-.4-.6-.8-.7l.2-.7s.1-.5-.4-.7c-.6-.2-.7.4-.7.4l-.5.9s-2-.3-2.5 1.6c-.7 2.5 3.7 2.5 3.2 4-.1.2-.4.9-1.8.5-1.7-.5-.5-1.7-1.6-2-.6-.2-.9.2-1 .6l-.3 1.3s-.1.5.4.6.8-.1.8-.1.3.5.8.7l-.2.8c-.1.5-.4 1.1.3 1.3.5.1.7-.3.9-.7.1-.3.2-.7.3-1h.9c.6-.1 1.2-.4 1.6-1s.6-1.5.2-2.2c-.3-.5-.8-.8-1.2-1.1-.5-.3-.9-.4-1.4-.7-.3-.2-.6-.4-.5-.8.2-.8 1.1-.6 1.6-.5s.8.4 1 .9c0 .3.1.5.4.6m-6.6 65.5h.1c.3 0 .4-.2.5-.5 0-.1.1-.3.1-.5s.1-.4-.1-.5c-.1-.1-.3-.1-.4-.1l-.2.1s-.3-.4-.6-.5l.1-.5s.1-.4-.3-.5-.6.3-.6.3l-.1.5s-1.5-.2-1.9 1.2c-.5 1.9 2.8 1.9 2.5 3.1 0 .2-.3.7-1.4.4-1.3-.4-.4-1.3-1.2-1.5-.5-.1-.7.2-.7.5l-.3 1s-.1.4.3.5.6-.1.6-.1.2.4.6.5l-.2.6c-.1.4-.3.9.2 1 .4.1.6-.2.6-.6.1-.3.1-.5.2-.8h.7c.5-.1.9-.3 1.2-.8s.5-1.1.2-1.6c-.2-.4-.6-.6-.9-.8s-.7-.3-1.1-.5c-.2-.1-.5-.3-.4-.6.2-.6.8-.5 1.3-.4.4.1.6.3.7.7.2.2.3.3.5.4m11.3 3.1h.1c.3 0 .4-.2.5-.5 0-.1.1-.3.1-.5s.1-.4-.1-.5c-.1-.1-.3-.1-.4-.1l-.2.1s-.3-.4-.6-.5l.1-.5s.1-.4-.3-.5-.6.3-.6.3l-.1.5s-1.5-.2-1.9 1.2c-.5 1.9 2.8 1.9 2.5 3.1 0 .2-.3.7-1.4.4-1.3-.4-.4-1.3-1.2-1.5-.5-.1-.7.2-.7.5l-.3 1s-.1.4.3.5.6-.1.6-.1.2.4.6.5l-.2.6c-.1.4-.3.9.2 1 .4.1.6-.2.6-.6.1-.3.1-.5.2-.8h.7c.5-.1.9-.3 1.2-.8s.5-1.1.2-1.6c-.2-.4-.6-.6-.9-.8-.4-.2-.7-.3-1.1-.5-.2-.1-.5-.3-.4-.6.2-.6.8-.5 1.3-.4.4.1.6.3.7.7.2.1.3.3.5.4m-5.6-1.5h.1c.3 0 .4-.2.5-.5 0-.1.1-.3.1-.5s.1-.4-.1-.5c-.1-.1-.3-.1-.4-.1l-.2.1s-.3-.4-.6-.5l.1-.5s.1-.4-.3-.5-.6.3-.6.3l-.1.5s-1.5-.2-1.9 1.2c-.5 1.9 2.8 1.9 2.5 3.1 0 .2-.3.7-1.4.4-1.3-.4-.4-1.3-1.2-1.5-.5-.1-.7.2-.7.5l-.3 1s-.1.4.3.5.6-.1.6-.1.2.4.6.5l-.2.6c-.1.4-.3.9.2 1 .4.1.6-.2.6-.6.1-.3.1-.5.2-.8h.7c.5-.1.9-.3 1.2-.8s.5-1.1.2-1.6c-.2-.4-.6-.6-.9-.8s-.7-.3-1.1-.5c-.2-.1-.5-.3-.4-.6.2-.6.8-.5 1.3-.4.4.1.6.3.7.7.2.1.3.3.5.4" class="st3"/><path d="M114.6 144.8c-12.5.1-14.6-5.4-18.9-6.8-4.4-1.3-9.6-.4-11.7 6-.8 2.4-.6 4.5.3 6.3" class="st2"/><path d="M111.4 156.7c-12.5.1-14.4-5.2-20-6.6s-10.5 1.1-10.8 7c-.2 4 3.2 7 6.4 8.7 4.2 2.3 20 8.4 24.4-9.1m1.9-23.4c-8.7-1.1-10.8-5.4-14.6-6.5-4.4-1.3-9.6-.4-11.7 6-.8 2.4-.6 4.5.3 6.3m24 17.4s6.1-3.8 3.4-11.8c0 0 5.1-7.5 1.9-11.1" class="st2"/><path d="M111.3 156.5c-.2 0-.4.1-.6.1m-24.4 12.8s-11.1 11.6-31.8 5.5m-38.4-21s-1.1-8.5 4.4-18.8c5.5-10.2 14.9-10.2 21.7-14.7 6.9-4.5 16-12.9 23.5-5.6 5.5 5.4 2.7 12.7-2.3 17.3-2.5 2.3-5.4 3.9-8.7 4.9s-7.3 1.6-9.3 4.7c-.5.8-.8 1.6-1.1 2.5-.9 2.1 5.6 9.2-1.6 21.4m73.1-49.6c3.9 1.8 6.5.6 11.9 2.2s7.1 7 5.1 12.1c-2 5-10.8 9.1-20.6-.1m-7.9 13.1s.8 4.8-3.2 11.7m8.8-8-3.1 2.4 1.6 3.7 3.1-2.4zm5.4.2 6-1.9 4.7 1.3 1 3.3-2.2 7.9-2.2 1.4-4.3-1.2-4.1-4.4m7.6-8.2-3.4 12.5" class="st2"/><path d="m120.7 148.8-5.4 1.4 3.6 4.4m6.7-7.8-4.5 2.3 4.6 3.7-6.1 1.5 2.9 4.2m-1.3-113.1s2.6 4.7.6 7.9l5.4 1.2z" class="st2"/></svg>