<svg xmlns="http://www.w3.org/2000/svg" xml:space="preserve" id="Layer_1" x="0" y="0" viewBox="0 0 20 20"><style>.st0{fill-rule:evenodd;clip-rule:evenodd}</style><path d="M7.6 1c-.2 0-.5.2-.5.4l-.6 3.2c0 .2-.2.4-.4.4H1.5c-.3 0-.5.2-.5.5v2c0 .3.2.5.5.5h3.8c.3 0 .5.3.5.6l-.5 3c0 .2-.2.4-.5.4H1.5c-.3 0-.5.2-.5.5v2c0 .3.2.5.5.5h2.6c.3 0 .5.3.5.6l-.5 2.8c-.1.3.2.6.5.6h2.2c.2 0 .5-.2.5-.4l.6-3.2c0-.2.2-.4.5-.4h2.5c.3 0 .5.3.5.6l-.5 2.8c-.1.3.2.6.5.6h2.2c.2 0 .5-.2.5-.4l.6-3.2c0-.2.2-.4.5-.4h3.6c.3 0 .5-.2.5-.5v-2c0-.3-.2-.5-.5-.5H16c-.3 0-.5-.3-.5-.6l.5-3c0-.2.2-.4.5-.4h2.3s.2-.2.2-.5v-2c0-.3-.2-.5-.5-.5h-1.6c-.3 0-.5-.3-.5-.6l.5-2.8c.1-.3-.2-.6-.5-.6h-2.2c-.2 0-.5.2-.5.4l-.6 3.2c0 .2-.2.4-.5.4h-2.5c-.2 0-.4-.3-.4-.6l.5-2.8c.1-.3-.1-.6-.4-.6zm3.9 11c.2 0 .5-.2.5-.4l.5-3c0-.3-.2-.6-.5-.6H9.5c-.2 0-.4.2-.5.4l-.5 3c0 .3.2.6.5.6z" class="st0"/></svg>