<?xml version="1.0" encoding="UTF-8"?>
<!-- Generator: Adobe Illustrator 24.3.0, SVG Export Plug-In . SVG Version: 6.00 Build 0)  -->
<svg version="1.1" id="Layer_1" xmlns="http://www.w3.org/2000/svg" xmlns:xlink="http://www.w3.org/1999/xlink" x="0px" y="0px" viewBox="0 0 1598 1148" style="enable-background:new 0 0 1598 1148;" xml:space="preserve">
<style type="text/css">
	.st0{clip-path:url(#SVGID_2_);}
	.st1{fill:#FED607;}
	.st2{fill:#03D47C;}
	.st3{fill:#0185FF;}
	.st4{fill:#0B1B34;}
	.st5{fill:#FFFFFF;}
	.st6{clip-path:url(#SVGID_4_);}
	.st7{clip-path:url(#SVGID_6_);}
</style>
<g>
	<defs>
		<path id="SVGID_1_" d="M849,329.9l491.1-98c11.3-2.3,22.3,5.1,24.5,16.4l58.4,292.3c2.3,11.3-5.1,22.3-16.4,24.5l-491.1,98    c-11.3,2.3-22.3-5.1-24.5-16.4l-58.4-292.3C830.4,343.1,837.7,332.1,849,329.9z"/>
	</defs>
	<clipPath id="SVGID_2_">
		<use xlink:href="#SVGID_1_" style="overflow:visible;"/>
	</clipPath>
	<g class="st0">
		<path class="st1" d="M849,329.9l491.1-98c11.3-2.3,22.3,5.1,24.5,16.4l58.4,292.3c2.3,11.3-5.1,22.3-16.4,24.5l-491.1,98    c-11.3,2.3-22.3-5.1-24.5-16.4l-58.4-292.3C830.4,343.1,837.7,332.1,849,329.9z"/>
		<path class="st2" d="M1329.5,549.7l-5.2-241.7c-0.7-27.3-14.3-51.3-35-65.9l-380.3,75.9l5.5,240.5c0.9,45.8,38.9,81.9,84.5,81    l39.2-0.8l285.9-57.1C1327.8,571.7,1329.9,560.9,1329.5,549.7z"/>
		<path class="st3" d="M1260.4,549l28-220c3.8-30.2-4.1-59.2-19.9-82.5l-414.2,82.7l-10.4,81.6l39.1,196    c15.4,10.7,33.5,18.2,53.3,20.8l95.8,12.4l210.4-42C1251.8,583.5,1258,566.9,1260.4,549z"/>
		<path class="st4" d="M1189.1,548.9l58.9-200.9c9.8-33.2,7.1-67.1-5.4-96.7l-395.2,78.9c-10.3,2.1-17.1,12.3-15.1,22.5l59,295.5    c2.1,10.5,12.3,17,22.6,15l231-46.1C1165.4,599.9,1181,576.6,1189.1,548.9z"/>
		<path class="st5" d="M922.7,420.2l24.6-4.9l-1.5-7.3l-15.6,3.1l-1.4-6.8l13.3-2.6l-1.5-7.4l-13.3,2.6l-1.3-6.5l15.6-3.1l-1.4-7.2    l-24.6,4.9L922.7,420.2z"/>
		<path class="st2" d="M962.2,393.9c1.5,7.4,0.2,14.6-3,20.8l6.5,4.4c4.3-7.8,6.1-17.2,4.2-26.7c-1.9-9.4-7-17.3-13.8-22.8l-4.4,6.5    C956.9,380.5,960.8,386.7,962.2,393.9z"/>
		<path class="st3" d="M955.7,420c-4.4,5.4-10.7,9.3-18,10.8c-7.2,1.4-14.4,0.2-20.4-2.9l-4.4,6.5c7.8,4.3,17,5.9,26.3,4    c9.5-1.9,17.5-7.1,23-14.1L955.7,420z"/>
		<path class="st1" d="M911.9,424.5c-5.5-4.5-9.6-10.8-11.1-18.3c-3.4-17,7.6-33.4,24.6-36.8c7.5-1.5,14.9-0.2,21.1,3.2l4.4-6.5    c-7.9-4.5-17.4-6.3-27-4.3c-21.2,4.2-34.9,24.8-30.7,46c1.9,9.6,7.2,17.7,14.4,23.3L911.9,424.5z"/>
		<g>
			<path class="st5" d="M933.5,607.7l4.6-0.9c3.4-0.7,6.1,1.2,6.8,4.5c0.7,3.4-1.1,6.2-4.5,6.9l-4.5,0.9L933.5,607.7z M939.8,616.3     c1.9-0.4,2.6-2.3,2.2-4.4c-0.4-2.1-1.7-3.5-3.7-3.1l-1.7,0.3l1.5,7.4L939.8,616.3z"/>
			<path class="st5" d="M946.6,615.6c-0.2-0.9,0.3-1.7,1.3-1.9s1.8,0.4,1.9,1.2c0.2,0.9-0.3,1.7-1.3,1.9     C947.5,617,946.7,616.5,946.6,615.6z"/>
			<path class="st5" d="M964.8,610c0.4,1.8-0.6,3.5-3.2,4l-5.4,1.1l-2.3-11.4l5.2-1c2.6-0.5,4.1,0.5,4.4,2.2     c0.2,1.2-0.3,2.3-1.6,2.9C963.4,607.7,964.5,608.5,964.8,610z M957,605l0.6,2.8l1.7-0.3c1.2-0.2,1.6-1,1.4-1.7     c-0.2-0.8-0.8-1.3-2-1L957,605z M961.9,610.4c-0.2-0.9-0.9-1.4-2-1.1l-1.9,0.4l0.6,3l1.9-0.4C961.6,612,962.1,611.3,961.9,610.4z     "/>
			<path class="st5" d="M965.9,610.9c-0.2-0.8,0-1.4,0.5-1.9c0.5-0.5,1.2-0.9,2.4-1.3l1.9-0.7l-0.1-0.3c-0.2-0.9-0.7-1.2-1.5-1.1     c-0.8,0.2-1.2,0.7-1.1,1.4l-2.6,0.5c-0.2-1.8,1-3.2,3.3-3.6c2.6-0.5,4,0.3,4.4,2.6l0.5,2.7c0.2,1,0.4,1.7,0.7,2.2l-2.5,0.5     c-0.2-0.4-0.3-0.8-0.4-1.2c-0.2,1-1.1,1.8-2.4,2C967.5,613.1,966.2,612.3,965.9,610.9z M971.1,608.9l-0.1-0.6l-1.3,0.5     c-0.9,0.4-1.3,0.8-1.2,1.4c0.1,0.6,0.6,0.8,1.3,0.7C970.8,610.7,971.3,609.9,971.1,608.9z"/>
			<path class="st5" d="M979.7,601.8l0.2,0l0.5,2.5c-0.2,0-0.3,0-0.5,0.1c-0.7,0.1-1.2,0.4-1.5,0.8c-0.4,0.6-0.4,1.3-0.2,2.2     l0.7,3.3l-2.6,0.5l-1.6-8.1l2.4-0.5l0.4,2.1C977.6,603.1,978.3,602.1,979.7,601.8z"/>
			<path class="st5" d="M986.3,600.5l0.2,0l0.5,2.5c-0.2,0-0.3,0-0.5,0.1c-0.7,0.1-1.2,0.4-1.5,0.8c-0.4,0.6-0.4,1.3-0.2,2.2     l0.7,3.3l-2.6,0.5l-1.6-8.1l2.4-0.5l0.4,2.1C984.2,601.8,984.9,600.8,986.3,600.5z"/>
			<path class="st5" d="M996.1,603.5l-5.6,1.1c0.2,1.1,1.1,1.6,2.2,1.4c0.8-0.2,1.3-0.7,1.5-1.5l2.1,0.5c-0.4,1.4-1.6,2.5-3.3,2.8     c-2.7,0.5-4.6-0.7-5.1-3.3c-0.5-2.6,0.7-4.6,3.2-5.1c2.5-0.5,4.2,0.7,4.7,3.2L996.1,603.5z M993.3,602.5     c-0.2-1.1-0.9-1.6-1.8-1.5c-1,0.2-1.4,1-1.2,2.1L993.3,602.5L993.3,602.5z"/>
			<path class="st5" d="M995.8,598.8l1.4-0.3l-0.4-1.9l2.4-1.5l0.6,2.9l1.9-0.4l0.3,1.7l-1.9,0.4l0.6,3.1c0.2,0.8,0.6,1.1,1.4,1     c0.3-0.1,0.5-0.1,0.7-0.2l0.4,2c-0.6,0.2-1,0.4-1.4,0.5c-2.1,0.4-3.2-0.4-3.6-2.1l-0.7-3.7l-1.4,0.3L995.8,598.8z"/>
			<path class="st5" d="M1002.7,597.5l1.4-0.3l-0.4-1.9l2.4-1.5l0.6,2.9l1.9-0.4l0.3,1.7l-1.9,0.4l0.6,3.1c0.2,0.8,0.6,1.1,1.4,1     c0.3-0.1,0.5-0.1,0.7-0.2l0.4,2c-0.6,0.2-1,0.4-1.4,0.5c-2.1,0.4-3.2-0.4-3.6-2.1l-0.7-3.7l-1.4,0.3L1002.7,597.5z"/>
		</g>
	</g>
</g>
<g>
	<defs>
		<path id="SVGID_3_" d="M589-309.1l488.4,111c11.2,2.6,18.3,13.7,15.7,25l-66,290.7c-2.6,11.2-13.7,18.3-25,15.7l-488.4-111    c-11.2-2.6-18.3-13.7-15.7-25l66-290.7C566.6-304.6,577.7-311.6,589-309.1z"/>
	</defs>
	<clipPath id="SVGID_4_">
		<use xlink:href="#SVGID_3_" style="overflow:visible;"/>
	</clipPath>
	<g class="st6">
		<path class="st1" d="M589-309.1l488.4,111c11.2,2.6,18.3,13.7,15.7,25l-66,290.7c-2.6,11.2-13.7,18.3-25,15.7l-488.4-111    c-11.2-2.6-18.3-13.7-15.7-25l66-290.7C566.6-304.6,577.7-311.6,589-309.1z"/>
		<path class="st2" d="M937.9,87.7l93.9-222.8c10.5-25.2,7.8-52.6-5.1-74.5l-378.2-85.9L555.3-73.7c-17.8,42.2,2.1,90.7,44.1,108.4    L635.5,50l284.3,64.6C927.3,107.2,933.7,98.1,937.9,87.7z"/>
		<path class="st3" d="M875.1,58.8l115.4-189.5c15.8-26,20.4-55.7,15.5-83.5l-411.9-93.6l-42.7,70.2L507.1-42.5    c9.6,16.1,23.1,30.3,40.2,40.8l82.4,50.4l209.2,47.5C853.1,86.9,865.6,74.2,875.1,58.8z"/>
		<path class="st4" d="M810,29.7l135.8-159.3c22.5-26.3,33.9-58.4,34.5-90.5l-393-89.3c-10.2-2.3-20.6,4.2-23,14.4L497.7-1.2    c-2.4,10.4,4.3,20.6,14.5,22.9l229.7,52.2C767.6,66.5,791.3,51.7,810,29.7z"/>
		<path class="st5" d="M619.4-196.5l24.4,5.5l1.6-7.2l-15.5-3.5l1.5-6.8l13.2,3l1.7-7.4l-13.2-3l1.5-6.5l15.5,3.5l1.6-7.2l-24.4-5.5    L619.4-196.5z"/>
		<path class="st2" d="M666.1-204.4c-1.7,7.3-5.8,13.5-11.3,17.7l4.2,6.6c7.2-5.4,12.5-13.2,14.7-22.7c2.1-9.3,0.7-18.6-3.3-26.4    l-6.6,4.2C666.7-218.8,667.7-211.6,666.1-204.4z"/>
		<path class="st3" d="M649.5-183.3c-6.2,3.1-13.5,4.1-20.9,2.5c-7.2-1.6-13.2-5.7-17.5-11l-6.6,4.2c5.4,7.1,13.2,12.3,22.4,14.4    c9.5,2.1,18.9,0.7,26.8-3.5L649.5-183.3z"/>
		<path class="st1" d="M607.7-197c-3.2-6.3-4.3-13.7-2.6-21.2c3.8-16.9,20.6-27.4,37.5-23.6c7.5,1.7,13.7,5.9,18,11.6l6.6-4.2    c-5.4-7.3-13.4-12.8-22.9-15c-21.1-4.8-42,8.4-46.8,29.5c-2.2,9.5-0.7,19.1,3.6,27.1L607.7-197z"/>
		<g>
			<path class="st5" d="M552.7-20.9l4.5,1c3.4,0.8,5.1,3.6,4.3,6.9c-0.8,3.4-3.5,5.2-7,4.5l-4.5-1L552.7-20.9z M554.9-10.5     c1.9,0.4,3.4-1.1,3.8-3.1c0.5-2.1-0.2-3.9-2.1-4.3l-1.7-0.4l-1.7,7.4L554.9-10.5z"/>
			<path class="st5" d="M561.4-8.4c0.2-0.8,1-1.4,2-1.2c1,0.2,1.5,1,1.3,1.9c-0.2,0.8-1,1.4-2,1.2C561.6-6.7,561.2-7.5,561.4-8.4z"/>
			<path class="st5" d="M580.3-6c-0.4,1.8-2,2.9-4.6,2.3l-5.3-1.2l2.6-11.4l5.1,1.2c2.6,0.6,3.5,2.1,3.1,3.8c-0.3,1.2-1.2,2-2.6,2     C580-8.7,580.6-7.5,580.3-6z M575.2-13.8l-0.6,2.8l1.7,0.4c1.2,0.3,1.8-0.2,2-1c0.2-0.8-0.2-1.5-1.4-1.8L575.2-13.8z M577.5-6.9     c0.2-0.9-0.3-1.6-1.4-1.9l-1.9-0.4l-0.7,3l1.9,0.4C576.6-5.5,577.3-6,577.5-6.9z"/>
			<path class="st5" d="M581-4.8c0.2-0.8,0.6-1.3,1.2-1.5c0.6-0.2,1.4-0.3,2.7-0.2l2,0.2l0.1-0.3c0.2-0.9-0.1-1.4-0.9-1.6     c-0.8-0.2-1.3,0.1-1.6,0.9l-2.5-0.6c0.5-1.7,2.2-2.5,4.5-2c2.6,0.6,3.5,1.9,3,4.2l-0.6,2.7c-0.2,0.9-0.3,1.7-0.3,2.3L586-1.4     c0-0.4,0.1-0.8,0.2-1.3c-0.6,0.8-1.8,1.1-3,0.8C581.5-2.2,580.6-3.4,581-4.8z M586.5-4.5l0.1-0.6l-1.4-0.1c-1,0-1.5,0.2-1.6,0.8     c-0.1,0.6,0.2,1,0.9,1.2C585.5-3,586.3-3.5,586.5-4.5z"/>
			<path class="st5" d="M597.2-7.4l0.2,0l-0.6,2.5c-0.2-0.1-0.3-0.1-0.5-0.1c-0.7-0.2-1.2-0.1-1.7,0.1c-0.6,0.4-0.9,1.1-1.1,1.9     l-0.7,3.3l-2.6-0.6l1.8-8l2.4,0.5l-0.5,2.1C594.8-7.1,595.9-7.7,597.2-7.4z"/>
			<path class="st5" d="M603.8-5.9l0.2,0l-0.6,2.5c-0.2-0.1-0.3-0.1-0.5-0.1c-0.7-0.2-1.2-0.1-1.7,0.1c-0.6,0.4-0.9,1.1-1.1,1.9     l-0.7,3.3l-2.6-0.6l1.8-8l2.4,0.5l-0.5,2.1C601.4-5.6,602.5-6.2,603.8-5.9z"/>
			<path class="st5" d="M611.6,0.8L606-0.4c-0.2,1.1,0.4,2,1.4,2.2c0.8,0.2,1.5-0.1,2-0.7l1.7,1.3c-0.9,1.2-2.5,1.6-4.1,1.3     c-2.6-0.6-3.9-2.5-3.3-5.1c0.6-2.6,2.5-3.9,5-3.4c2.5,0.6,3.6,2.3,3,4.9L611.6,0.8z M609.4-1.2c0.3-1.1-0.1-1.9-1.1-2.1     c-1-0.2-1.7,0.3-2,1.4L609.4-1.2L609.4-1.2z"/>
			<path class="st5" d="M613.2-3.6l1.4,0.3l0.4-1.9l2.8-0.4l-0.7,2.9l1.9,0.4l-0.4,1.7L616.8-1L616,2.1c-0.2,0.8,0.1,1.3,0.9,1.5     c0.3,0.1,0.5,0.1,0.8,0.1l-0.5,2c-0.6,0-1-0.1-1.5-0.2c-2.1-0.5-2.8-1.6-2.4-3.4l0.8-3.7l-1.4-0.3L613.2-3.6z"/>
			<path class="st5" d="M620-2.1l1.4,0.3l0.4-1.9l2.8-0.4L624-1.2l1.9,0.4L625.5,1l-1.9-0.4l-0.7,3.1c-0.2,0.8,0.1,1.3,0.9,1.5     c0.3,0.1,0.5,0.1,0.8,0.1l-0.5,2c-0.6,0-1-0.1-1.5-0.2c-2.1-0.5-2.8-1.6-2.4-3.4L621,0l-1.4-0.3L620-2.1z"/>
		</g>
	</g>
</g>
<g>
	<defs>
		<path id="SVGID_5_" d="M1307.6,786.4l423.9,266.7c9.8,6.1,12.7,19,6.5,28.8l-158.7,252.3c-6.1,9.8-19,12.7-28.8,6.5L1126.6,1074    c-9.8-6.1-12.7-19-6.5-28.8L1278.8,793C1284.9,783.2,1297.8,780.3,1307.6,786.4z"/>
	</defs>
	<clipPath id="SVGID_6_">
		<use xlink:href="#SVGID_5_" style="overflow:visible;"/>
	</clipPath>
	<g class="st7">
		<path class="st1" d="M1307.6,786.4l423.9,266.7c9.8,6.1,12.7,19,6.5,28.8l-158.7,252.3c-6.1,9.8-19,12.7-28.8,6.5L1126.6,1074    c-9.8-6.1-12.7-19-6.5-28.8L1278.8,793C1284.9,783.2,1297.8,780.3,1307.6,786.4z"/>
		<path class="st2" d="M1505,1276.5l162.5-179c18.3-20.2,24.9-47.1,19.9-71.9L1359.3,819l-161.5,178.3    c-30.8,33.9-28.1,86.2,5.6,116.9l29,26.4l246.8,155.3C1488.6,1291.3,1497.6,1284.9,1505,1276.5z"/>
		<path class="st3" d="M1455.4,1228.4l171.7-140.4c23.5-19.3,37.8-45.8,42.3-73.6l-357.5-225l-63.6,52.1l-106.4,169.2    c3.7,18.4,11.7,36.3,24.4,51.8l61,74.9l181.6,114.3C1425.4,1247.6,1441.3,1239.8,1455.4,1228.4z"/>
		<path class="st4" d="M1403.7,1179.4l180.9-105.2c29.9-17.4,51.3-43.8,62.6-73.9l-341.1-214.6c-8.9-5.6-20.9-2.9-26.4,5.9    l-160.5,255.1c-5.7,9-2.8,20.8,6.1,26.4l199.4,125.5C1351.4,1200,1378.7,1193.8,1403.7,1179.4z"/>
		<path class="st5" d="M1298.9,902.7l21.2,13.3l4-6.3l-13.4-8.5l3.7-5.9l11.5,7.2l4-6.4l-11.5-7.2l3.5-5.6l13.4,8.5l3.9-6.2    l-21.2-13.3L1298.9,902.7z"/>
		<path class="st2" d="M1345.6,910.8c-4,6.4-9.9,10.8-16.5,13l1.7,7.7c8.5-2.7,16.2-8.3,21.4-16.5c5.1-8.1,6.8-17.3,5.7-26l-7.7,1.7    C1351,897.4,1349.5,904.5,1345.6,910.8z"/>
		<path class="st3" d="M1322.9,925.2c-6.9,0.8-14.1-0.6-20.5-4.6c-6.2-3.9-10.6-9.7-12.9-16.1l-7.7,1.7c2.7,8.5,8.3,16,16.4,21    c8.2,5.2,17.6,6.9,26.4,5.6L1322.9,925.2z"/>
		<path class="st1" d="M1288.1,898.3c-0.9-7.1,0.5-14.4,4.6-20.9c9.2-14.6,28.5-19,43.2-9.8c6.5,4.1,10.9,10.1,13.1,16.9l7.7-1.7    c-2.7-8.7-8.4-16.5-16.6-21.7c-18.3-11.5-42.4-6-53.9,12.3c-5.2,8.3-7,17.8-5.6,26.8L1288.1,898.3z"/>
		<g>
			<path class="st5" d="M1177.7,1046.2l3.9,2.5c3,1.9,3.6,5,1.8,7.9c-1.9,3-5.1,3.8-8,1.9l-3.9-2.5L1177.7,1046.2z M1176.4,1056.7     c1.7,1,3.5,0.1,4.6-1.6c1.1-1.8,1.1-3.7-0.6-4.8l-1.5-0.9l-4,6.4L1176.4,1056.7z"/>
			<path class="st5" d="M1181.7,1060.9c0.5-0.7,1.4-1,2.2-0.4s1,1.5,0.6,2.2s-1.4,1-2.2,0.5     C1181.4,1062.6,1181.3,1061.6,1181.7,1060.9z"/>
			<path class="st5" d="M1198.8,1069.4c-1,1.6-2.8,2.1-5.1,0.7l-4.6-2.9l6.2-9.9l4.4,2.8c2.3,1.4,2.6,3.2,1.7,4.6     c-0.6,1-1.8,1.5-3.2,1.1C1199.4,1066.7,1199.6,1068.1,1198.8,1069.4z M1196.6,1060.4l-1.5,2.4l1.5,0.9c1.1,0.7,1.8,0.4,2.2-0.3     c0.4-0.7,0.3-1.5-0.7-2.1L1196.6,1060.4z M1196.5,1067.7c0.5-0.8,0.3-1.6-0.7-2.2l-1.7-1.1l-1.6,2.6l1.6,1     C1195.2,1068.7,1196,1068.4,1196.5,1067.7z"/>
			<path class="st5" d="M1199,1070.8c0.4-0.7,1-1,1.7-1.1c0.7,0,1.5,0.2,2.6,0.7l1.8,0.8l0.1-0.2c0.5-0.8,0.4-1.3-0.3-1.8     c-0.7-0.4-1.3-0.3-1.8,0.3l-2.2-1.4c1.1-1.5,2.9-1.6,4.9-0.4c2.2,1.4,2.7,2.9,1.4,4.9l-1.5,2.3c-0.5,0.8-0.9,1.5-1,2.1l-2.2-1.4     c0.1-0.4,0.3-0.8,0.6-1.2c-0.8,0.6-2,0.5-3.1-0.2C1198.7,1073.4,1198.3,1072,1199,1070.8z M1204.2,1072.9l0.3-0.6l-1.3-0.6     c-0.9-0.4-1.5-0.3-1.8,0.2c-0.3,0.5-0.1,1.1,0.5,1.4C1202.7,1074,1203.6,1073.8,1204.2,1072.9z"/>
			<path class="st5" d="M1215.3,1073.7l0.1,0.1l-1.3,2.1c-0.1-0.1-0.2-0.2-0.4-0.3c-0.6-0.4-1.1-0.5-1.6-0.4     c-0.7,0.1-1.2,0.7-1.7,1.4l-1.8,2.8l-2.2-1.4l4.4-6.9l2.1,1.3l-1.1,1.8C1212.9,1073.2,1214.1,1073,1215.3,1073.7z"/>
			<path class="st5" d="M1221,1077.3l0.1,0.1l-1.3,2.1c-0.1-0.1-0.2-0.2-0.4-0.3c-0.6-0.4-1.1-0.5-1.6-0.4c-0.7,0.1-1.2,0.7-1.7,1.4     l-1.8,2.8l-2.2-1.4l4.4-6.9l2.1,1.3l-1.1,1.8C1218.6,1076.8,1219.8,1076.6,1221,1077.3z"/>
			<path class="st5" d="M1226,1086.3l-4.8-3c-0.6,1-0.3,2,0.6,2.5c0.7,0.4,1.4,0.4,2.1,0l1.2,1.8c-1.3,0.8-2.9,0.7-4.3-0.2     c-2.3-1.4-2.9-3.6-1.4-5.9c1.4-2.3,3.7-2.9,5.9-1.5c2.2,1.4,2.6,3.4,1.2,5.6L1226,1086.3z M1224.7,1083.6c0.6-1,0.5-1.8-0.3-2.3     c-0.9-0.5-1.7-0.3-2.4,0.7L1224.7,1083.6L1224.7,1083.6z"/>
			<path class="st5" d="M1229,1082.6l1.2,0.8l1-1.7l2.8,0.5l-1.6,2.5l1.7,1l-0.9,1.5l-1.7-1l-1.7,2.7c-0.4,0.7-0.3,1.3,0.3,1.7     c0.3,0.2,0.4,0.2,0.7,0.3l-1.1,1.8c-0.6-0.2-0.9-0.4-1.4-0.7c-1.8-1.2-2.1-2.5-1.1-4l2-3.2l-1.2-0.8L1229,1082.6z"/>
			<path class="st5" d="M1235,1086.3l1.2,0.8l1-1.7l2.8,0.5l-1.6,2.5l1.7,1l-0.9,1.5l-1.7-1l-1.7,2.7c-0.4,0.7-0.3,1.3,0.3,1.7     c0.3,0.2,0.4,0.2,0.7,0.3l-1.1,1.8c-0.6-0.2-0.9-0.4-1.4-0.7c-1.8-1.2-2.1-2.5-1.1-4l2-3.2l-1.2-0.8L1235,1086.3z"/>
		</g>
	</g>
</g>
</svg>
