<?xml version="1.0" encoding="utf-8"?>
<!-- Generator: Adobe Illustrator 26.5.0, SVG Export Plug-In . SVG Version: 6.00 Build 0)  -->
<svg version="1.1" id="Layer_1" xmlns="http://www.w3.org/2000/svg" xmlns:xlink="http://www.w3.org/1999/xlink" x="0px" y="0px"
	 viewBox="0 0 20 20" style="enable-background:new 0 0 20 20;" xml:space="preserve">
<path d="M4,4V3.5C4,2.7,3.3,2,2.5,2S1,2.7,1,3.5V10h5.5C7.3,10,8,9.4,8,8.5C8,7.7,7.3,7,6.5,7h-1c1.1-1.8,3.1-3,5.4-3
	c3.4,0,6.2,2.7,6.2,6s-2.7,6-6.2,6c-1.8,0-3.5-0.8-4.6-2c-0.6-0.6-1.5-0.7-2.1-0.1C3.5,14.5,3.4,15.4,4,16c1.7,1.8,4.1,3,6.8,3
	c5,0,9.2-4,9.2-9c0-5-4.1-9-9.2-9C8.1,1,5.7,2.1,4,4z"/>
<path d="M12,6c0-0.6-0.4-1-1-1c-0.6,0-1,0.4-1,1v4c0,0.3,0.1,0.5,0.3,0.7l2,2c0.4,0.4,1,0.4,1.4,0c0.4-0.4,0.4-1,0-1.4L12,9.6V6z"/>
</svg>
