<?xml version="1.0" encoding="utf-8"?>
<!-- Generator: Adobe Illustrator 27.3.1, SVG Export Plug-In . SVG Version: 6.00 Build 0)  -->
<svg version="1.1" id="Layer_1" xmlns="http://www.w3.org/2000/svg" xmlns:xlink="http://www.w3.org/1999/xlink" x="0px" y="0px"
	 viewBox="0 0 20 20" style="enable-background:new 0 0 20 20;" xml:space="preserve">
<style type="text/css">
	.st0{fill-rule:evenodd;clip-rule:evenodd;}
</style>
<path class="st0" d="M1.772,7.399C1.285,7.778,1,8.361,1,8.978V18c0,0.552,0.448,1,1,1l16,0c0.552,0,1-0.448,1-1V8.978
	c0-0.617-0.285-1.2-0.772-1.579l-7.614-5.922c-0.361-0.281-0.867-0.281-1.228,0L1.772,7.399z M8,12c-0.552,0-1,0.448-1,1v6h6v-6
	c0-0.552-0.448-1-1-1H8z"/>
</svg>
