<svg width="255" height="166" viewBox="0 0 255 166" fill="none" xmlns="http://www.w3.org/2000/svg">
<g clip-path="url(#clip0_4_2306)">
<path d="M81.2565 84.1232V97.7699" stroke="#002140" stroke-width="0.999999" stroke-linecap="round" stroke-linejoin="round"/>
<path d="M114.59 84.1232V97.7699" stroke="#002140" stroke-width="0.999999" stroke-linecap="round" stroke-linejoin="round"/>
<path d="M151.256 23.4566V37.1033" stroke="#002140" stroke-width="0.999999" stroke-linecap="round" stroke-linejoin="round"/>
<path d="M151.256 53.7899V67.4366" stroke="#002140" stroke-width="0.999999" stroke-linecap="round" stroke-linejoin="round"/>
<path d="M151.256 84.1232V97.7699" stroke="#002140" stroke-width="0.999999" stroke-linecap="round" stroke-linejoin="round"/>
<path d="M184.59 53.7899V67.4366" stroke="#002140" stroke-width="0.999999" stroke-linecap="round" stroke-linejoin="round"/>
<path d="M184.59 84.1232V97.7699" stroke="#002140" stroke-width="0.999999" stroke-linecap="round" stroke-linejoin="round"/>
<path d="M167.923 37.4965V53.2598" stroke="#002140" stroke-width="0.999999" stroke-linecap="round" stroke-linejoin="round"/>
<path d="M167.923 67.8498V83.8498" stroke="#002140" stroke-width="0.999999" stroke-linecap="round" stroke-linejoin="round"/>
<path d="M167.923 98.4365V114.377V114.437" stroke="#002140" stroke-width="0.999999" stroke-linecap="round" stroke-linejoin="round"/>
<path d="M134.59 37.4965V53.2598" stroke="#002140" stroke-width="0.999999" stroke-linecap="round" stroke-linejoin="round"/>
<path d="M134.59 67.8498V83.8498" stroke="#002140" stroke-width="0.999999" stroke-linecap="round" stroke-linejoin="round"/>
<path d="M134.59 98.4365V114.377V114.437" stroke="#002140" stroke-width="0.999999" stroke-linecap="round" stroke-linejoin="round"/>
<path d="M97.9231 98.4365V114.377V114.437" stroke="#002140" stroke-width="0.999999" stroke-linecap="round" stroke-linejoin="round"/>
<path d="M111.57 104.24C112.543 104.24 113.333 105.03 113.333 106.007C113.333 106.983 112.543 107.77 111.57 107.77C110.596 107.77 109.803 106.98 109.803 106.007C109.803 105.033 110.593 104.24 111.57 104.24Z" fill="#0164BF"/>
<path d="M115.803 99.0265C116.78 99.0265 117.57 99.8165 117.57 100.79C117.57 101.763 116.78 102.553 115.803 102.553C114.826 102.553 114.04 101.763 114.04 100.79C114.04 99.8165 114.83 99.0265 115.803 99.0265Z" fill="#0164BF"/>
<path d="M189.333 87.3767V87.4566C180.393 87.4566 177.333 90.32 172.746 95.9667C170.096 99.2266 163.373 108.163 163.373 108.163L157.02 109.34L159.766 113.887C159.766 113.887 135.293 144.007 134.98 144.477V144.71H123.136V144.477C123.19 144.423 124.256 143.16 126.02 141.053C127.573 139.203 129.663 136.71 132.083 133.82C141.983 121.997 157.373 103.587 163.7 95.9766C164.646 94.8366 165.393 93.9367 165.883 93.34C171.373 86.6733 176.913 87.3767 181.453 87.3767H189.333Z" fill="#0164BF"/>
<path d="M99.4265 121.78L94.0499 122.797L94.0398 122.75C85.7265 116.163 69.8832 93.8099 69.8832 93.8099L62.6665 104.477L62.4932 104.707C58.7599 101.93 55.1666 100.34 52.5966 99.4565L52.7066 99.1432C52.7066 99.1432 61.3332 85.2599 64.1565 80.7899C66.9799 76.3199 70.8232 74.1232 74.8232 77.1032C78.5832 79.9065 92.4032 90.4765 94.0365 91.7265C92.4598 101.977 94.2599 112.773 99.4265 121.78Z" fill="#E96DF2"/>
<path d="M94.0365 91.7265C94.8465 86.4665 96.5465 81.3532 99.1365 76.6966C99.5165 76.0132 99.9131 75.3399 100.326 74.6799C97.3898 84.2999 97.3998 94.7965 100.353 104.41L107.136 104.397L105.506 114.71C111.063 124.216 120.85 131.146 131.663 133.23L132.083 133.82C129.663 136.71 127.573 139.203 126.02 141.053L125.803 140.87H59.6865V129.26H59.9232L94.0498 122.797L99.4265 121.78C94.2598 112.773 92.4598 101.977 94.0365 91.7265Z" fill="#E96DF2"/>
<path d="M149.543 43.5865C151.723 43.9399 153.843 46.0432 152.746 49.1832L148.903 47.5365L150.156 51.6932C145.606 52.0065 144.6 49.0732 144.953 46.8932C145.306 44.7132 147.363 43.2332 149.543 43.5865Z" fill="#002140"/>
<path d="M159.623 52.9198C161.803 53.2732 163.923 55.3765 162.823 58.5165L158.98 56.8698L160.236 61.0265C155.686 61.3398 154.68 58.4065 155.033 56.2265C155.386 54.0465 157.44 52.5665 159.623 52.9198Z" fill="#002140"/>
<path d="M109.52 73.8666C109.766 73.5332 110.106 73.2733 110.48 73.0899C111.48 72.5999 112.636 72.6666 113.68 73.0866C114.306 73.3366 114.893 73.7166 115.38 74.1733C116.513 75.2366 117.226 76.6566 117.866 78.0866C117.956 78.2899 118.046 78.4966 118.136 78.6999C118.4 79.2999 118.7 80.0266 119 80.8032C119.416 81.8832 119.836 83.0666 120.156 84.1632L120.203 84.3066C119.973 84.3599 119.75 84.4432 119.53 84.5366C119.366 84.6066 119.206 84.6799 119.046 84.7599L118.98 84.6333C116.946 84.0133 114.163 82.5399 112.456 81.2699C110.75 79.9999 109.386 78.1466 109.11 76.0399C109.02 75.3499 109.056 74.6133 109.416 74.0199C109.446 73.9699 109.48 73.9199 109.516 73.8699C109.516 73.8699 109.516 73.8666 109.52 73.8666Z" fill="#50EEF6"/>
<path d="M118.98 84.6333L119.046 84.76C117.16 85.6866 115.59 87.2533 114.67 89.1466C114.136 90.24 113.823 91.4333 113.74 92.6433L113.57 92.6333C111.373 94.1233 108.313 95.2199 106.666 95.3766C105.02 95.5366 104.673 94.3333 104.626 94.1233C103.233 87.58 103.763 80.21 109.516 73.87C109.48 73.92 109.446 73.97 109.416 74.02C109.056 74.6133 109.02 75.35 109.11 76.04C109.386 78.1466 110.75 80 112.456 81.27C114.163 82.54 116.946 84.0133 118.98 84.6333Z" fill="#50EEF6"/>
<path d="M114.136 95.8199C114.103 95.8165 114.073 95.8165 114.04 95.8132C113.76 94.7832 113.663 93.7098 113.74 92.6432C113.823 91.4332 114.136 90.2399 114.67 89.1465C115.59 87.2532 117.16 85.6865 119.046 84.7599C119.206 84.6799 119.366 84.6065 119.53 84.5365C119.75 84.4432 119.973 84.3599 120.203 84.3065C120.343 84.2732 120.483 84.2532 120.626 84.2499C120.973 84.2432 121.313 84.3332 121.64 84.4465C124.226 85.3299 126.26 87.6665 126.78 90.3498L126.793 90.4399C126.166 90.5499 125.823 91.0865 125.39 91.6832C124.456 92.9632 123.74 94.3932 123.196 95.8832L122.976 95.7999C120.036 96.0032 117.08 96.0132 114.136 95.8199Z" fill="#50EEF6"/>
<path d="M139.463 101.286C139.42 101.59 139.316 101.883 139.146 102.143C138.383 103.31 136.986 103.156 135.87 102.733C132.953 101.633 130.836 99.0565 129.293 96.3432C128.743 95.3765 126.676 91.2432 126.856 90.4365V90.4298C126.986 90.4098 127.126 90.4098 127.286 90.4331C127.546 90.4698 128.026 90.6698 128.603 90.9465C129.24 91.2565 129.99 91.6598 130.693 92.0598C131.626 92.5865 132.476 93.1032 132.863 93.3632C134.096 94.1898 135.26 95.1198 136.34 96.1431C136.89 96.6598 137.416 97.1998 137.916 97.7631C138.706 98.6498 139.463 99.6365 139.49 100.886C139.493 101.02 139.483 101.153 139.463 101.286Z" fill="#50EEF6"/>
<path d="M139.146 102.143C139.316 101.883 139.42 101.59 139.463 101.287C139.433 102.01 139.213 102.757 138.823 103.3C137.396 105.293 135.11 106.65 132.73 107.25C129.406 108.09 125.893 107.793 122.77 106.443C121.903 106.067 121.39 105.163 121.493 104.227C121.74 101.94 122.056 99.6598 122.686 97.4532C122.836 96.9265 123.006 96.3999 123.196 95.8832C123.74 94.3932 124.456 92.9632 125.39 91.6832C125.823 91.0865 126.166 90.5499 126.793 90.4399C126.813 90.4332 126.833 90.4299 126.856 90.4299V90.4365C126.676 91.2432 128.743 95.3765 129.293 96.3432C130.836 99.0565 132.953 101.633 135.87 102.733C136.986 103.157 138.383 103.31 139.146 102.143Z" fill="#50EEF6"/>
<path d="M114.04 95.8132C114.073 95.8166 114.103 95.8166 114.136 95.8199C111.5 98.8633 109.52 101.15 107.136 104.397L100.353 104.41C97.3998 94.7966 97.3898 84.2999 100.326 74.6799C102.28 71.5466 104.57 68.6699 107.093 65.9866C109.19 63.76 111.446 61.6633 113.803 59.67V72.7899L113.68 73.0866C112.636 72.6666 111.48 72.5999 110.48 73.0899C110.106 73.2733 109.766 73.5333 109.52 73.8666C109.516 73.8666 109.516 73.8699 109.516 73.8699C103.763 80.2099 103.233 87.5799 104.626 94.1232C104.673 94.3332 105.02 95.5366 106.666 95.3766C108.313 95.2199 111.373 94.1233 113.57 92.6333L113.74 92.6432C113.663 93.7099 113.76 94.7832 114.04 95.8132Z" fill="#FED607"/>
<path d="M163.686 95.9666L163.7 95.9766C157.373 103.587 141.983 121.997 132.083 133.82L131.663 133.23C120.85 131.147 111.063 124.217 105.506 114.71L107.136 104.397C109.52 101.15 111.5 98.8633 114.136 95.82C117.08 96.0133 120.036 96.0033 122.976 95.8L123.196 95.8833C123.006 96.4 122.836 96.9266 122.686 97.4533C122.056 99.6599 121.74 101.94 121.493 104.227C121.39 105.163 121.903 106.067 122.77 106.443C125.893 107.793 129.406 108.09 132.73 107.25C135.11 106.65 137.396 105.293 138.823 103.3C139.213 102.757 139.433 102.01 139.463 101.287C139.483 101.153 139.493 101.02 139.49 100.887C139.463 99.6366 138.706 98.6499 137.916 97.7633C137.416 97.1999 136.89 96.6599 136.34 96.1433L136.51 95.9666H163.686ZM117.57 100.79C117.57 99.8166 116.78 99.0266 115.803 99.0266C114.826 99.0266 114.04 99.8166 114.04 100.79C114.04 101.763 114.83 102.553 115.803 102.553C116.776 102.553 117.57 101.763 117.57 100.79ZM113.333 106.007C113.333 105.03 112.543 104.24 111.57 104.24C110.596 104.24 109.803 105.03 109.803 106.007C109.803 106.983 110.593 107.77 111.57 107.77C112.546 107.77 113.333 106.98 113.333 106.007Z" fill="#FED607"/>
<path d="M60.2365 114.123C61.1298 114.127 62.2198 113.56 63.2298 112.553C61.0065 115.183 58.4132 118.26 56.4165 120.63C56.8765 119.867 56.9765 118.91 56.9332 118.19C56.8832 117.42 56.5465 116.63 55.8832 116.2C55.0732 115.673 54.1565 115.947 53.3032 116.41C52.4498 116.87 51.9165 117.79 51.2932 118.517C51.8498 117.66 52.0498 116.487 52.0765 115.477C52.0932 114.823 51.9698 113.96 51.3832 113.63C50.6932 113.243 49.5832 113.6 48.9398 114.047C48.1965 114.563 47.5198 115.163 46.9298 115.833C47.4498 114.73 48.0765 113.23 47.6065 112.103C47.2632 111.27 46.5532 110.83 45.6232 110.83C44.6898 110.83 43.5032 111.53 42.5098 112.74L42.4265 112.703L47.1832 102.03L47.2165 102.043C46.9632 102.96 46.7798 104.107 46.8365 105.057C46.8932 106.003 47.2932 106.977 48.0765 107.507C49.0398 108.157 50.1265 107.817 51.1365 107.247C52.1498 106.68 52.9098 105.763 53.6465 104.87C52.9898 105.923 52.6198 107.153 52.5865 108.397C52.5665 109.2 52.7165 110.267 53.4132 110.673C54.2265 111.147 55.5432 110.71 56.3065 110.16C57.1832 109.523 57.9865 108.783 58.6865 107.957C58.0698 109.32 57.3265 111.167 57.8832 112.553C58.2932 113.58 59.1332 114.12 60.2365 114.123Z" fill="#FED607"/>
<path d="M56.1565 131.16C54.9165 131.117 53.6665 131.41 52.5732 132C51.8632 132.383 51.0132 133.04 51.0032 133.84C50.9932 134.78 52.0199 135.693 52.8765 136.08C53.8632 136.52 54.8999 136.84 55.9632 137.033C54.4765 137.18 52.5065 137.46 51.5765 138.627C50.8899 139.49 50.8332 140.48 51.3765 141.433C51.9199 142.383 53.3632 143.167 55.2365 143.437V143.493C52.6132 143.33 49.0732 143.113 45.2732 142.887C45.9932 142.7 46.8165 142.383 47.4232 141.983C48.0665 141.56 48.5832 140.873 48.6265 140.083C48.6832 139.117 47.9865 138.46 47.1632 137.947C46.3365 137.437 45.2765 137.43 44.3365 137.253C45.3565 137.31 46.4732 136.9 47.3632 136.423C47.9365 136.113 48.6265 135.573 48.6199 134.9C48.6132 134.113 47.7532 133.323 47.0432 132.987C46.2265 132.6 45.3699 132.313 44.4932 132.133C45.7099 132.033 47.3232 131.833 48.0699 130.867C48.6199 130.153 48.6499 129.32 48.1865 128.51C47.7265 127.7 46.5265 127.02 44.9832 126.76L44.9665 126.683L53.2299 124.697L55.4232 124.17L55.4332 124.217C54.5165 124.453 53.4299 124.867 52.6365 125.387C51.8399 125.907 51.1932 126.733 51.1199 127.673C51.0299 128.823 51.8599 129.593 52.8532 130.18C53.8465 130.767 55.0165 130.97 56.1565 131.16Z" fill="#FED607"/>
<path d="M24.9398 129.653C24.9398 131.22 23.9998 132.24 21.8832 132.163C20.0132 132.093 18.2665 132.636 17.8832 135.136C17.4265 135.093 14.8165 134.873 7.84319 134.593C0.0798601 134.28 0.626527 128.946 5.48986 128.083C10.0698 127.27 17.1532 125.973 17.9632 125.826C18.5998 127.54 19.6832 127.62 21.2565 127.536C24.2365 127.376 24.9398 128.083 24.9398 129.653Z" fill="#0185FF"/>
<path d="M56.9332 118.19C56.9765 118.91 56.8765 119.867 56.4165 120.63C54.5298 122.87 53.1765 124.477 53.1765 124.477L53.2298 124.697L44.9665 126.683L36.8632 128.633C36.8632 128.633 34.7265 126.39 32.7299 122.987L32.8632 122.907L38.5099 121.497L42.4265 112.703L42.5098 112.74C43.5032 111.53 44.6898 110.827 45.6232 110.83C46.5532 110.83 47.2632 111.27 47.6065 112.103C48.0765 113.23 47.4498 114.73 46.9298 115.833C47.5198 115.163 48.1965 114.563 48.9398 114.047C49.5832 113.6 50.6932 113.243 51.3832 113.63C51.9698 113.96 52.0932 114.823 52.0765 115.477C52.0498 116.487 51.8498 117.66 51.2932 118.517C51.9165 117.79 52.4498 116.87 53.3032 116.41C54.1565 115.947 55.0732 115.673 55.8832 116.2C56.5465 116.63 56.8832 117.42 56.9332 118.19Z" fill="#0185FF"/>
<path d="M66.7465 108.397C65.8831 109.41 64.6365 110.886 63.2431 112.54C63.2365 112.543 63.2332 112.546 63.2298 112.553C62.2198 113.56 61.1298 114.126 60.2365 114.123C59.1332 114.12 58.2932 113.58 57.8832 112.553C57.3265 111.166 58.0698 109.32 58.6865 107.956C57.9865 108.783 57.1832 109.523 56.3065 110.16C55.5432 110.71 54.2265 111.147 53.4132 110.673C52.7165 110.267 52.5665 109.2 52.5865 108.397C52.6198 107.153 52.9898 105.923 53.6465 104.87C52.9098 105.763 52.1498 106.68 51.1365 107.246C50.1265 107.816 49.0398 108.157 48.0765 107.507C47.2932 106.977 46.8932 106.003 46.8365 105.056C46.7798 104.106 46.9632 102.96 47.2165 102.043L47.1832 102.03L48.7832 98.4365C48.7832 98.4365 50.2732 98.6598 52.5965 99.4565C55.1665 100.34 58.7598 101.93 62.4931 104.707C63.9065 105.757 65.3398 106.98 66.7465 108.397Z" fill="#0185FF"/>
<path d="M59.6864 140.87V143.77C59.6864 143.77 57.9565 143.66 55.2331 143.493V143.436C53.3631 143.166 51.9198 142.383 51.3765 141.433C50.8331 140.48 50.8898 139.49 51.5765 138.626C52.5065 137.46 54.4765 137.18 55.9631 137.033C54.8998 136.84 53.8631 136.52 52.8765 136.08C52.0198 135.693 50.9931 134.78 51.0031 133.84C51.0131 133.04 51.8631 132.383 52.5731 132C53.6665 131.41 54.9164 131.116 56.1564 131.16C55.0164 130.97 53.8465 130.766 52.8531 130.18C51.8598 129.593 51.0298 128.823 51.1198 127.673C51.1931 126.733 51.8398 125.906 52.6365 125.386C53.4298 124.866 54.5164 124.453 55.4331 124.217L55.4231 124.17L59.6864 123.143V140.87Z" fill="#0185FF"/>
<path d="M17.9633 125.823C17.4833 124.537 17.2566 122.333 17.2566 118.593C17.2566 108.477 22.5899 99.8499 25.8833 96.4766C29.1766 93.1032 32.9399 94.6733 32.0799 97.6533C31.2166 100.633 29.5699 102.907 29.3332 111.693C29.2232 115.87 30.9199 119.903 32.7299 122.987C34.7266 126.39 36.8632 128.633 36.8632 128.633L44.9666 126.683L44.9832 126.76C46.5266 127.02 47.7266 127.7 48.1866 128.51C48.6499 129.32 48.6199 130.153 48.0699 130.867C47.3232 131.833 45.7099 132.033 44.4932 132.133C45.3699 132.313 46.2266 132.6 47.0432 132.987C47.7532 133.323 48.6132 134.113 48.6199 134.9C48.6266 135.573 47.9366 136.113 47.3632 136.423C46.4732 136.9 45.3566 137.31 44.3366 137.253C45.2766 137.43 46.3366 137.437 47.1632 137.947C47.9866 138.46 48.6832 139.117 48.6266 140.083C48.5832 140.873 48.0666 141.56 47.4232 141.983C46.8166 142.383 45.9932 142.7 45.2732 142.887C35.5899 142.307 24.2166 141.653 22.0399 141.653C18.1166 141.653 17.8033 139.693 17.8033 136.24C17.8033 135.837 17.8299 135.47 17.8833 135.137C18.2666 132.637 20.0133 132.093 21.8833 132.163C23.9999 132.24 24.9399 131.22 24.9399 129.653C24.9399 128.087 24.2366 127.377 21.2566 127.537C19.6833 127.62 18.5999 127.54 17.9633 125.827V125.823Z" fill="#0185FF"/>
<path d="M162.62 36.66C162.846 36.97 163.05 37.2966 163.213 37.6433C163.616 38.4933 163.773 39.4966 163.45 40.3766C163.123 41.26 162.243 41.9633 161.306 41.9C160.856 41.87 160.433 41.6766 160.056 41.4266C158.923 40.6733 158.21 39.44 157.26 38.4633C155.876 37.04 153.98 36.17 152.023 35.8333C150.066 35.4966 148.046 35.6633 146.106 36.0966C144.433 33.6633 142.93 31.38 141.256 28.9467C137.02 32.71 133.57 29.34 137.176 25.8866C138.21 24.8966 139.12 24.0366 140.04 23.2C141.406 21.9466 142.79 20.7433 144.616 19.2233C145.176 18.76 145.776 18.2633 146.433 17.73C150.666 14.28 153.726 18.1233 149.883 21.5733L155.45 26.9066H155.606C161.49 23.6933 165.646 25.1833 167.766 27.0166C168.916 28.0166 169.883 29.0133 170.903 30.2033C171.54 30.9466 172.383 31.87 172.783 32.79C173 33.2833 173.17 33.7566 173.226 34.24C173.28 34.65 173.25 35.07 173.1 35.51C172.776 36.4633 171.9 37.2233 170.966 37.1566C170.52 37.1266 170.096 36.9166 169.723 36.6466C168.92 36.0666 168.533 35.33 167.923 34.5166L167.87 34.5433C167.923 34.6433 167.97 34.7466 168.016 34.85C168.42 35.77 168.576 36.8566 168.253 37.81C167.93 38.7633 167.053 39.5233 166.116 39.4566C165.67 39.4233 165.246 39.2166 164.873 38.9466C164.073 38.3666 163.313 37.4133 162.7 36.6L162.62 36.66Z" fill="#E5FAFE"/>
<path d="M146.853 144.71C147.426 144.013 148.003 143.316 148.58 142.62C150.273 140.583 153.92 136.04 162.75 135.713C163.08 135.7 163.42 135.693 163.766 135.693L173.1 135.613V131.573C173.1 129.776 174.556 128.32 176.353 128.32C178.15 128.32 179.606 129.776 179.606 131.573V147.966C179.606 149.763 178.15 151.22 176.353 151.22C174.556 151.22 173.1 149.763 173.1 147.966V145.966C171.78 145.976 170.41 145.87 169.243 146.48C168.553 146.836 167.92 147.32 167.43 147.92C167.31 148.07 167.183 148.22 167.056 148.38C164.08 152.03 158.766 158.5 157.48 159.973C156.85 160.693 156.083 161.33 155.173 161.62C154.263 161.91 153.16 161.756 152.53 161.04C152.236 160.706 152.073 160.286 152.023 159.84L151.923 159.85C151.503 160.18 151.25 160.266 150.743 160.43C149.833 160.72 148.73 160.566 148.1 159.85C147.74 159.443 147.58 158.906 147.573 158.356H147.45C147.066 158.643 146.806 158.873 146.35 159.016C145.44 159.306 144.336 159.153 143.706 158.436C143.11 157.756 143.063 156.723 143.356 155.87C143.65 155.013 144.233 154.29 144.806 153.59C144.97 153.39 145.133 153.19 145.296 152.993L145.256 152.96C144.606 152.95 143.973 152.723 143.55 152.24C142.953 151.56 142.906 150.53 143.2 149.673C143.493 148.816 144.076 148.093 144.65 147.393C145.383 146.496 146.116 145.603 146.853 144.71Z" fill="#E5FAFE"/>
<path d="M235.766 126.043L237.646 128.633C220.626 140.946 209.176 127.613 209.176 127.613L209.256 123.3C209.283 123.293 209.39 123.286 209.566 123.283V123.377C209.566 123.377 219.843 138.123 235.686 126.123L235.67 126.083C235.703 126.07 235.733 126.056 235.766 126.043Z" fill="#FFF2B2"/>
<path d="M245.96 147.22L245.646 150.28C241.57 149.26 240 146.83 240 146.83L240.236 142.517C240.236 142.517 240.356 142.553 240.586 142.613L240.55 142.75C240.55 142.75 242.51 146.203 245.96 147.22Z" fill="#FFF2B2"/>
<path d="M253.02 144.32H253.253C253.243 146.07 253.1 148.006 253.1 148.006C253.1 148.006 248.626 150.203 245.646 150.28L245.96 147.22C249.49 146.75 253.02 144.32 253.02 144.32Z" fill="#FFF2B2"/>
<path d="M224.08 153L223.98 156.53C223.98 156.53 213.906 162.883 199.43 157.626L199.136 154.256C211.856 160.113 224.08 153 224.08 153Z" fill="#FFF2B2"/>
<path d="M137.333 159.3C127.133 165.156 117.333 158.043 117.333 158.043L127.45 152.32C127.45 152.32 128.47 156.633 137.333 159.3Z" fill="#FFED8F"/>
<path d="M253.256 144.083C253.256 144.163 253.256 144.243 253.253 144.323H253.02C253.02 144.323 249.49 146.75 245.96 147.22C242.51 146.203 240.55 142.75 240.55 142.75L240.586 142.613C241.946 142.973 247.14 144.217 253.256 144.083Z" fill="#FFED8F"/>
<path d="M235.67 126.083L235.686 126.123C219.843 138.123 209.57 123.377 209.57 123.377V123.283C211.466 123.233 221.256 123.3 221.256 123.3C221.256 123.3 226.083 130.157 235.67 126.083Z" fill="#FFED8F"/>
<path d="M211.46 147.276L224.08 153C224.08 153 211.856 160.113 199.136 154.256C210.19 151.59 211.46 147.276 211.46 147.276Z" fill="#FFED8F"/>
<path d="M190.15 48.5466L181.02 60.0065L180.84 59.9965L181.57 48.1632L177.046 49.8832L177.02 49.8099L179.903 39.9999L179.923 40.0066L185.883 40.0832L184 48.0066L189.96 48.3966L190.15 48.5466Z" fill="#FFED8F"/>
<path d="M181.333 35.1434L179.903 40L177.02 49.81L177.046 49.8834L173.726 51.1434L178.98 33.73L181.333 35.1434Z" fill="#FFF2B2"/>
<path d="M194.433 47.5366L180.55 64.7099L180.84 59.9966L181.02 60.0066L190.15 48.5466L192.08 46.1232L194.433 47.5366Z" fill="#FFF2B2"/>
<path d="M156.783 68.87L156.796 69.0667C156.533 69.09 156.27 69.1033 156 69.1033C151.193 69.1033 147.293 65.2067 147.293 60.3967C147.293 59.6733 147.38 58.9733 147.546 58.3L156.783 68.87Z" fill="#FFF2B2"/>
<path d="M154.606 51.6999L154.623 51.8032C152.106 52.1999 149.946 53.6799 148.64 55.7499C147.153 56.1032 145.583 55.6199 144.233 54.9032C141.423 53.4132 139.283 50.9966 137.62 48.2499L137.696 48.2032C138.88 44.7999 142.116 42.3599 145.923 42.3599C150.73 42.3599 154.626 46.2566 154.626 51.0632C154.626 51.2766 154.62 51.4899 154.606 51.6999ZM152.746 49.1832C153.843 46.0432 151.723 43.9399 149.543 43.5866C147.363 43.2332 145.306 44.7132 144.953 46.8932C144.6 49.0732 145.606 52.0066 150.156 51.6932L148.903 47.5366L152.746 49.1832Z" fill="#FFFAF0"/>
<path d="M148.64 55.7499C149.946 53.6799 152.106 52.1999 154.623 51.8032C155.073 51.7299 155.533 51.6932 156 51.6932C160.81 51.6932 164.706 55.5899 164.706 60.3966C164.706 64.9366 161.233 68.6666 156.796 69.0666L156.783 68.8699L147.546 58.2999C147.773 57.3832 148.146 56.5232 148.64 55.7499ZM162.823 58.5166C163.923 55.3766 161.803 53.2732 159.623 52.9199C157.44 52.5666 155.386 54.0466 155.033 56.2266C154.68 58.4066 155.686 61.3399 160.236 61.0266L158.98 56.8699L162.823 58.5166Z" fill="#FFFAF0"/>
<path d="M147.546 58.3C147.38 58.9734 147.293 59.6733 147.293 60.3967C147.293 65.2067 151.193 69.1033 156 69.1033C156.27 69.1033 156.533 69.09 156.796 69.0667C161.233 68.6667 164.706 64.9367 164.706 60.3967C164.706 55.59 160.81 51.6934 156 51.6934C155.533 51.6934 155.073 51.73 154.623 51.8033L154.606 51.7C154.62 51.49 154.626 51.2767 154.626 51.0634C154.626 46.2567 150.73 42.36 145.923 42.36C142.116 42.36 138.88 44.8 137.696 48.2034L137.62 48.25C139.283 50.9967 141.423 53.4134 144.233 54.9034C145.583 55.62 147.153 56.1034 148.64 55.75C148.146 56.5233 147.773 57.3834 147.546 58.3ZM129.256 48.2067C127.796 44.53 128.676 41.52 129.666 40.6067C130.186 40.1267 130.88 39.82 131.586 39.83C133.56 39.8534 134.656 42.05 135.42 43.87L146.106 36.0967C148.046 35.6634 150.066 35.4967 152.023 35.8334C153.98 36.17 155.876 37.04 157.26 38.4634C158.21 39.44 158.923 40.6734 160.056 41.4267C160.433 41.6767 160.856 41.87 161.306 41.9C162.243 41.9634 163.123 41.26 163.45 40.3767C163.773 39.4967 163.616 38.4934 163.213 37.6434C163.05 37.2967 162.846 36.97 162.62 36.66L162.7 36.6C163.313 37.4134 164.073 38.3667 164.873 38.9467C165.246 39.2167 165.67 39.4234 166.116 39.4567C167.053 39.5234 167.93 38.7634 168.253 37.81C168.576 36.8567 168.42 35.77 168.016 34.85C167.97 34.7467 167.923 34.6434 167.87 34.5434L167.923 34.5167C168.533 35.33 168.92 36.0667 169.723 36.6467C170.096 36.9167 170.52 37.1267 170.966 37.1567C171.9 37.2234 172.776 36.4634 173.1 35.51C173.25 35.07 173.28 34.65 173.226 34.24L173.57 34.2034L178.98 33.73L173.726 51.1434L177.046 49.8834L181.57 48.1634L180.84 59.9967L180.55 64.71L194.433 47.5367C194.433 47.5367 196.38 62.04 194.196 71.3C191.606 82.28 189.49 87.3767 189.49 87.3767H181.453C176.913 87.3767 171.373 86.6733 165.883 93.34C165.393 93.9366 164.646 94.8366 163.7 95.9766L163.686 95.9667H159.333V95.85L159.57 87.1433L152.166 88.3833L152.156 88.32L151.57 82.4367L128.863 90.9066L128.603 90.9467C128.026 90.67 127.546 90.47 127.286 90.4333C127.126 90.41 126.986 90.41 126.856 90.43C126.833 90.43 126.813 90.4333 126.793 90.44L126.78 90.35C126.26 87.6666 124.226 85.33 121.64 84.4467C121.313 84.3333 120.973 84.2433 120.626 84.25C120.483 84.25 120.343 84.2733 120.203 84.3066L120.156 84.1633C119.836 83.0667 119.416 81.8833 119 80.8033L119.333 80.6733L124.393 69.0267L120.156 67.0267H120.13L120.863 62.9067L113.803 64.6733V59.67C118.623 55.58 123.87 51.89 129.036 48.2934L129.256 48.2067Z" fill="#FFFAF0"/>
<path d="M159.57 87.1432L159.333 95.8499V95.9666H136.51L136.34 96.1432C135.26 95.1199 134.096 94.1899 132.863 93.3632C132.476 93.1032 131.626 92.5866 130.693 92.0599L130.746 91.9666L152.166 88.3832L159.57 87.1432Z" fill="#0185FF"/>
<path d="M152.156 88.3199L152.166 88.3832L130.746 91.9665L130.693 92.0598C129.99 91.6598 129.24 91.2565 128.603 90.9465L128.863 90.9065L151.57 82.4365L152.156 88.3199Z" fill="#0185FF"/>
<path d="M124.393 69.0266L119.333 80.6733L119 80.8033C118.7 80.0266 118.4 79.2999 118.136 78.6999C118.046 78.4966 117.956 78.29 117.866 78.0866H118.156L120.13 67.0233H120.156L124.393 69.0266Z" fill="#0185FF"/>
<path d="M120.863 62.9066L120.13 67.0233L118.156 78.0833H117.866C117.226 76.6566 116.513 75.2366 115.38 74.1733C114.893 73.7166 114.306 73.3366 113.68 73.0866L113.803 72.7899V64.6733L120.863 62.9066Z" fill="#0185FF"/>
<path d="M144.55 19.1433L144.616 19.2233C142.79 20.7433 141.406 21.9466 140.04 23.2L139.843 22.9867C139.843 22.9867 138.433 21.4167 132 13.26C125.57 5.10334 113.803 6.36001 113.803 20.9467V59.67C111.446 61.6633 109.19 63.76 107.093 65.9866L106.903 65.8099C107.06 65.0266 106.903 42.75 106.903 20.32C106.903 -2.10998 127.923 -1.79665 134.196 6.04334C140.47 13.8867 144.55 19.1433 144.55 19.1433Z" fill="#0185FF"/>
<path d="M182.946 104.847C190.62 114.437 203.666 130.753 206.666 134.517C210.98 139.927 208.55 143.537 201.883 143.537H179.606V135.693H198.59L179.16 112.003L179.06 112.083C179.06 112.083 170.04 128.32 162.746 135.613V135.713C153.92 136.04 150.273 140.583 148.58 142.62C148.003 143.317 147.426 144.013 146.853 144.71H134.98V144.477C135.293 144.007 159.766 113.887 159.766 113.887L157.02 109.34L163.373 108.163C163.373 108.163 170.096 99.2266 172.746 95.9666C177.333 90.32 180.393 87.4566 189.333 87.4566V87.3766H189.49C189.49 87.3766 188.626 94.5166 183.293 104.633L182.946 104.847Z" fill="#0185FF"/>
<path d="M129.036 48.2933C123.87 51.89 118.623 55.58 113.803 59.67C111.446 61.6633 109.19 63.76 107.093 65.9867C104.57 68.67 102.28 71.5466 100.326 74.68C99.9132 75.34 99.5165 76.0133 99.1365 76.6966C96.5465 81.3533 94.8465 86.4666 94.0365 91.7266C92.4598 101.977 94.2599 112.773 99.4265 121.78L94.0499 122.797L59.9232 129.26" stroke="#002140" stroke-width="0.999999" stroke-linecap="round" stroke-linejoin="round"/>
<path d="M138.993 61.2465C134.98 57.6532 131.386 53.3232 129.333 48.3965C129.306 48.3332 129.28 48.2699 129.256 48.2065C127.796 44.5299 128.676 41.5199 129.666 40.6065C130.186 40.1265 130.88 39.8199 131.586 39.8299C133.56 39.8532 134.656 42.0499 135.42 43.8699C136.046 45.3632 136.77 46.8499 137.62 48.2499C139.283 50.9965 141.423 53.4132 144.233 54.9032C145.583 55.6199 147.153 56.1032 148.64 55.7499C148.646 55.7465 148.656 55.7465 148.663 55.7432" stroke="#002140" stroke-width="0.999999" stroke-linecap="round" stroke-linejoin="round"/>
<path d="M106.903 65.8099C107.06 65.0266 106.903 42.75 106.903 20.32C106.903 -2.10998 127.923 -1.79665 134.196 6.04334C140.47 13.8867 144.55 19.1433 144.55 19.1433" stroke="#002140" stroke-width="0.999999" stroke-linecap="round" stroke-linejoin="round"/>
<path d="M139.843 22.9867C139.843 22.9867 138.433 21.4167 132 13.2601C125.57 5.1034 113.803 6.36008 113.803 20.9467V72.79" stroke="#002140" stroke-width="0.999999" stroke-linecap="round" stroke-linejoin="round"/>
<path d="M152.023 35.8333C153.98 36.17 155.876 37.04 157.26 38.4633C158.21 39.44 158.923 40.6733 160.056 41.4266C160.433 41.6766 160.856 41.87 161.306 41.9C162.243 41.9633 163.123 41.26 163.45 40.3766C163.773 39.4966 163.616 38.4933 163.213 37.6433C163.05 37.2966 162.846 36.97 162.62 36.66C162.296 36.21 161.923 35.79 161.543 35.3833C160.523 34.2833 159.423 33.22 158.093 32.5233C156.76 31.83 155.156 31.54 153.74 32.0433" stroke="#002140" stroke-width="0.999999" stroke-linecap="round" stroke-linejoin="round"/>
<path d="M152.023 35.8333C150.066 35.4966 148.046 35.6633 146.106 36.0966C144.433 33.6633 142.93 31.38 141.256 28.9466C137.02 32.71 133.57 29.34 137.176 25.8866C138.21 24.8966 139.12 24.0366 140.04 23.2C141.406 21.9466 142.79 20.7433 144.616 19.2233C145.176 18.76 145.776 18.2633 146.433 17.73C150.666 14.28 153.726 18.1233 149.883 21.5733L155.45 26.9066" stroke="#002140" stroke-width="0.999999" stroke-linecap="round" stroke-linejoin="round"/>
<path d="M162.7 36.6C163.313 37.4134 164.073 38.3667 164.873 38.9467C165.246 39.2167 165.67 39.4234 166.116 39.4567C167.053 39.5234 167.93 38.7634 168.253 37.81C168.576 36.8567 168.42 35.77 168.016 34.85C167.97 34.7467 167.923 34.6434 167.87 34.5434C167.473 33.7567 166.92 33.07 166.356 32.41C165.336 31.22 164.243 30.0667 162.916 29.3167C161.593 28.5634 159.993 28.25 158.583 28.7967" stroke="#002140" stroke-width="0.999999" stroke-linecap="round" stroke-linejoin="round"/>
<path d="M167.923 34.5166C168.533 35.3299 168.92 36.0666 169.723 36.6466C170.096 36.9166 170.52 37.1266 170.966 37.1566C171.9 37.2232 172.776 36.4633 173.1 35.5099C173.25 35.0699 173.28 34.6499 173.226 34.2399C173.17 33.7566 173 33.2832 172.783 32.7899C172.383 31.8699 171.54 30.9466 170.903 30.2032C169.883 29.0132 168.916 28.0166 167.766 27.0166C165.646 25.1833 161.49 23.6932 155.606 26.9066" stroke="#002140" stroke-width="0.999999" stroke-linecap="round" stroke-linejoin="round"/>
<path d="M135.42 43.8699L146.106 36.0966" stroke="#002140" stroke-width="0.999999" stroke-linecap="round" stroke-linejoin="round"/>
<path d="M173.57 34.2034L178.98 33.73L173.726 51.1434L177.046 49.8834L181.57 48.1634L180.84 59.9967L180.55 64.71L194.433 47.5367L192.08 46.1234L190.15 48.5467L181.02 60.0067" stroke="#002140" stroke-width="0.999999" stroke-linecap="round" stroke-linejoin="round"/>
<path d="M178.98 33.73L181.333 35.1434L179.903 40L177.02 49.81" stroke="#002140" stroke-width="0.999999" stroke-linecap="round" stroke-linejoin="round"/>
<path d="M179.923 40.0066L185.883 40.0832L184 48.0066L189.96 48.3965" stroke="#002140" stroke-width="0.999999" stroke-linecap="round" stroke-linejoin="round"/>
<path d="M154.623 51.8032C155.073 51.7299 155.533 51.6932 156 51.6932C160.81 51.6932 164.706 55.5899 164.706 60.3966C164.706 64.9366 161.233 68.6666 156.796 69.0666C156.533 69.0899 156.27 69.1032 156 69.1032C151.193 69.1032 147.293 65.2066 147.293 60.3966C147.293 59.6732 147.38 58.9732 147.546 58.2999C147.773 57.3832 148.146 56.5232 148.64 55.7499C149.946 53.6799 152.106 52.1999 154.623 51.8032Z" stroke="#002140" stroke-width="0.999999" stroke-linecap="round" stroke-linejoin="round"/>
<path d="M160.236 61.0265C155.686 61.3398 154.68 58.4065 155.033 56.2265C155.386 54.0465 157.44 52.5665 159.623 52.9198C161.803 53.2732 163.923 55.3765 162.823 58.5165L158.98 56.8698L160.236 61.0265Z" stroke="#002140" stroke-width="0.999999" stroke-linecap="round" stroke-linejoin="round"/>
<path d="M137.696 48.2032C138.88 44.7999 142.116 42.3599 145.923 42.3599C150.73 42.3599 154.626 46.2566 154.626 51.0632C154.626 51.2766 154.62 51.4899 154.606 51.6999" stroke="#002140" stroke-width="0.999999" stroke-linecap="round" stroke-linejoin="round"/>
<path d="M150.156 51.6932C145.606 52.0065 144.6 49.0732 144.953 46.8932C145.306 44.7132 147.363 43.2332 149.543 43.5865C151.723 43.9399 153.843 46.0432 152.746 49.1832L148.903 47.5365L150.156 51.6932Z" stroke="#002140" stroke-width="0.999999" stroke-linecap="round" stroke-linejoin="round"/>
<path d="M147.53 58.28L147.546 58.3L156.783 68.87" stroke="#002140" stroke-width="0.999999" stroke-linecap="round" stroke-linejoin="round"/>
<path d="M160.766 49.8566C162.023 48.7599 163.51 47.9199 165.1 47.4066C165.906 47.1466 166.953 47.0599 167.766 47.2999C168.896 47.6366 169.656 48.4799 169.803 49.6533C169.95 50.8266 169.4 52.2099 168.76 53.2033C168.123 54.1999 167.266 55.0299 166.416 55.8533" stroke="#002140" stroke-width="0.999999" stroke-linecap="round" stroke-linejoin="round"/>
<path d="M148.783 39.9199C150.6 39.8599 152.426 40.5399 153.76 41.7732C155.09 43.0099 155.91 44.7799 155.983 46.5932" stroke="#002140" stroke-width="0.999999" stroke-linecap="round" stroke-linejoin="round"/>
<path d="M169.413 74.9865L167.05 73.5065" stroke="#002140" stroke-width="0.999999" stroke-linecap="round" stroke-linejoin="round"/>
<path d="M125.803 64.24L127.01 61.82C127.823 61.1933 128.67 60.55 129.67 60.3066C130.67 60.06 131.87 60.3266 132.416 61.1966C132.933 62.02 132.733 63.0833 132.59 64.0433C132.446 65.0066 132.443 66.1433 133.193 66.7633C133.72 67.2 134.486 67.24 135.143 67.0533C135.803 66.87 136.39 66.5 136.993 66.1733C138.433 65.3933 140.333 64.9133 141.616 65.93C142.536 66.6566 142.823 67.93 142.816 69.1C142.81 70.2733 142.57 71.4433 142.693 72.61C142.82 73.7733 143.423 75 144.533 75.3833C145.623 75.76 146.823 75.2066 147.71 74.4666C148.593 73.7266 149.28 72.59 150.273 72.0066C151.606 71.22 152.676 71.3866 153.513 72.18C154.086 72.7233 154.296 73.5433 154.713 74.2166C156.156 76.5533 158.463 75.7866 159.123 75.5566C160.426 75.0933 161.086 73.6866 161.746 72.4733C162.41 71.2566 163.473 69.97 164.853 70.09C165.603 70.1566 166.273 70.6633 166.646 71.32C167.016 71.9733 167.12 72.7566 167.05 73.5066L165.803 75.85" stroke="#002140" stroke-width="0.999999" stroke-linecap="round" stroke-linejoin="round"/>
<path d="M124.783 60.71L126.746 61.8866" stroke="#002140" stroke-width="0.999999" stroke-linecap="round" stroke-linejoin="round"/>
<path d="M126.856 90.4365C126.676 91.2432 128.743 95.3765 129.293 96.3432C130.836 99.0565 132.953 101.633 135.87 102.733C136.986 103.156 138.383 103.31 139.146 102.143C139.316 101.883 139.42 101.59 139.463 101.286M139.463 101.286C139.483 101.153 139.493 101.02 139.49 100.886C139.463 99.6365 138.706 98.6498 137.916 97.7631C137.416 97.1998 136.89 96.6598 136.34 96.1431C135.26 95.1198 134.096 94.1898 132.863 93.3632C132.476 93.1032 131.626 92.5865 130.693 92.0598C129.99 91.6598 129.24 91.2565 128.603 90.9465C128.026 90.6698 127.546 90.4698 127.286 90.4331C127.126 90.4098 126.986 90.4098 126.856 90.4298C126.833 90.4298 126.813 90.4332 126.793 90.4398C126.166 90.5498 125.823 91.0865 125.39 91.6831C124.456 92.9631 123.74 94.3932 123.196 95.8832C123.006 96.3998 122.836 96.9265 122.686 97.4531C122.056 99.6598 121.74 101.94 121.493 104.226C121.39 105.163 121.903 106.066 122.77 106.443C125.893 107.793 129.406 108.09 132.73 107.25C135.11 106.65 137.396 105.293 138.823 103.3C139.213 102.756 139.433 102.01 139.463 101.286ZM139.463 101.286C139.483 100.923 139.453 100.563 139.373 100.24" stroke="#002140" stroke-width="0.999999" stroke-linecap="round" stroke-linejoin="round"/>
<path d="M126.78 90.3498C126.26 87.6665 124.226 85.3299 121.64 84.4465C121.313 84.3332 120.973 84.2432 120.626 84.2499C120.483 84.2499 120.343 84.2732 120.203 84.3065C119.973 84.3599 119.75 84.4432 119.53 84.5365C119.366 84.6065 119.206 84.6799 119.046 84.7599C117.16 85.6865 115.59 87.2532 114.67 89.1465C114.136 90.2399 113.823 91.4332 113.74 92.6432C113.663 93.7098 113.76 94.7832 114.04 95.8132C114.073 95.8165 114.103 95.8165 114.136 95.8199C117.08 96.0132 120.036 96.0032 122.976 95.7999" stroke="#002140" stroke-width="0.999999" stroke-linecap="round" stroke-linejoin="round"/>
<path d="M109.516 73.87C109.48 73.92 109.446 73.97 109.416 74.02C109.056 74.6133 109.02 75.35 109.11 76.04C109.386 78.1466 110.75 80 112.456 81.27C114.163 82.54 116.946 84.0133 118.98 84.6333" stroke="#002140" stroke-width="0.999999" stroke-linecap="round" stroke-linejoin="round"/>
<path d="M120.156 84.1632C119.836 83.0666 119.416 81.8832 119 80.8032C118.7 80.0266 118.4 79.2999 118.136 78.6999C118.046 78.4966 117.956 78.2899 117.866 78.0866C117.226 76.6566 116.513 75.2366 115.38 74.1733C114.893 73.7166 114.306 73.3366 113.68 73.0866C112.636 72.6666 111.48 72.5999 110.48 73.0899C110.106 73.2733 109.766 73.5332 109.52 73.8666" stroke="#002140" stroke-width="0.999999" stroke-linecap="round" stroke-linejoin="round"/>
<path d="M109.57 73.8099C109.553 73.8299 109.536 73.8466 109.52 73.8666C109.516 73.8666 109.516 73.8699 109.516 73.8699C103.763 80.2099 103.233 87.5799 104.626 94.1232C104.673 94.3332 105.02 95.5366 106.666 95.3766C108.313 95.2199 111.373 94.1232 113.57 92.6332" stroke="#002140" stroke-width="0.999999" stroke-linecap="round" stroke-linejoin="round"/>
<path d="M100.363 74.5599C100.35 74.5999 100.34 74.6399 100.326 74.6799C97.3898 84.2999 97.3998 94.7965 100.353 104.41L107.136 104.397" stroke="#002140" stroke-width="0.999999" stroke-linecap="round" stroke-linejoin="round"/>
<path d="M114.153 95.8C114.153 95.8 114.14 95.8133 114.136 95.82C111.5 98.8633 109.52 101.15 107.136 104.397L105.506 114.71C111.063 124.217 120.85 131.147 131.663 133.23" stroke="#002140" stroke-width="0.999999" stroke-linecap="round" stroke-linejoin="round"/>
<path d="M113.333 106.007C113.333 106.98 112.543 107.77 111.57 107.77C110.596 107.77 109.803 106.98 109.803 106.007C109.803 105.033 110.593 104.24 111.57 104.24C112.546 104.24 113.333 105.03 113.333 106.007Z" stroke="#002140" stroke-width="0.999999" stroke-linecap="round" stroke-linejoin="round"/>
<path d="M117.57 100.79C117.57 101.763 116.78 102.553 115.803 102.553C114.826 102.553 114.04 101.763 114.04 100.79C114.04 99.8165 114.83 99.0265 115.803 99.0265C116.776 99.0265 117.57 99.8165 117.57 100.79Z" stroke="#002140" stroke-width="0.999999" stroke-linecap="round" stroke-linejoin="round"/>
<path d="M94.1965 91.8499C94.1965 91.8499 94.1432 91.8065 94.0365 91.7265C92.4032 90.4765 78.5832 79.9065 74.8232 77.1032C70.8232 74.1232 66.9799 76.3199 64.1565 80.7899C61.3332 85.2599 52.7065 99.1432 52.7065 99.1432" stroke="#002140" stroke-width="0.999999" stroke-linecap="round" stroke-linejoin="round"/>
<path d="M94.0398 122.75C85.7265 116.163 69.8832 93.8099 69.8832 93.8099L62.6665 104.477" stroke="#002140" stroke-width="0.999999" stroke-linecap="round" stroke-linejoin="round"/>
<path d="M17.9633 125.827C18.5999 127.54 19.6833 127.62 21.2566 127.537C24.2366 127.377 24.9399 128.083 24.9399 129.653C24.9399 131.223 23.9999 132.24 21.8833 132.163C20.0133 132.093 18.2666 132.637 17.8833 135.137C17.8299 135.47 17.8033 135.837 17.8033 136.24C17.8033 139.693 18.1166 141.653 22.0399 141.653C24.2166 141.653 35.5899 142.307 45.2732 142.887C49.0732 143.113 52.6132 143.33 55.2332 143.493C57.9566 143.66 59.6866 143.77 59.6866 143.77V123.143L55.4232 124.17L53.2299 124.697L44.9666 126.683L36.8632 128.633C36.8632 128.633 34.7266 126.39 32.7299 122.987C30.9199 119.903 29.2233 115.87 29.3333 111.693C29.5699 102.907 31.2166 100.633 32.0799 97.6533C32.9399 94.6733 29.1766 93.1032 25.8833 96.4766C22.5899 99.8499 17.2566 108.477 17.2566 118.593C17.2566 122.333 17.4833 124.537 17.9633 125.823" stroke="#002140" stroke-width="0.999999" stroke-linecap="round" stroke-linejoin="round"/>
<path d="M63.2431 112.54C64.6365 110.886 65.8831 109.41 66.7465 108.397C65.3398 106.98 63.9065 105.757 62.4931 104.707C58.7598 101.93 55.1665 100.34 52.5965 99.4565C50.2731 98.6598 48.7831 98.4365 48.7831 98.4365L47.1831 102.03L42.4265 112.703L38.5098 121.496L32.8632 122.906" stroke="#002140" stroke-width="0.999999" stroke-linecap="round" stroke-linejoin="round"/>
<path d="M53.1765 124.477C53.1765 124.477 54.5298 122.87 56.4165 120.63C58.4132 118.26 61.0065 115.183 63.2298 112.553" stroke="#002140" stroke-width="0.999999" stroke-linecap="round" stroke-linejoin="round"/>
<path d="M18.0398 125.81C18.0398 125.81 18.0132 125.81 17.9632 125.823C17.1532 125.973 10.0699 127.27 5.48986 128.083C0.626527 128.946 0.0798601 134.28 7.84319 134.593C14.8165 134.873 17.4265 135.093 17.8832 135.136C17.9365 135.136 17.9598 135.143 17.9598 135.143" stroke="#002140" stroke-width="0.999999" stroke-linecap="round" stroke-linejoin="round"/>
<path d="M47.2165 102.043C46.9632 102.96 46.7798 104.107 46.8365 105.057C46.8932 106.003 47.2932 106.977 48.0765 107.507C49.0398 108.157 50.1265 107.817 51.1365 107.247C52.1498 106.68 52.9098 105.763 53.6465 104.87C52.9898 105.923 52.6198 107.153 52.5865 108.397C52.5665 109.2 52.7165 110.267 53.4132 110.673C54.2265 111.147 55.5432 110.71 56.3065 110.16C57.1832 109.523 57.9865 108.783 58.6865 107.957C58.0698 109.32 57.3265 111.167 57.8832 112.553C58.2932 113.58 59.1332 114.12 60.2365 114.123C61.1298 114.127 62.2198 113.56 63.2298 112.553C63.2298 112.547 63.2365 112.543 63.2431 112.54C63.4765 112.307 63.7032 112.05 63.9232 111.77" stroke="#002140" stroke-width="0.999999" stroke-linecap="round" stroke-linejoin="round"/>
<path d="M56.3132 120.79C56.3499 120.737 56.3832 120.683 56.4165 120.63C56.8765 119.867 56.9765 118.91 56.9332 118.19C56.8832 117.42 56.5465 116.63 55.8832 116.2C55.0732 115.673 54.1565 115.947 53.3032 116.41C52.4499 116.87 51.9165 117.79 51.2932 118.517C51.8499 117.66 52.0499 116.487 52.0765 115.477C52.0932 114.823 51.9699 113.96 51.3832 113.63C50.6932 113.243 49.5832 113.6 48.9399 114.047C48.1966 114.563 47.5199 115.163 46.9299 115.833C47.4499 114.73 48.0766 113.23 47.6066 112.103C47.2632 111.27 46.5532 110.83 45.6232 110.83C44.6899 110.83 43.5032 111.53 42.5099 112.74" stroke="#002140" stroke-width="0.999999" stroke-linecap="round" stroke-linejoin="round"/>
<path d="M55.4331 124.217C54.5164 124.453 53.4298 124.867 52.6365 125.387C51.8398 125.907 51.1931 126.733 51.1198 127.673C51.0298 128.823 51.8598 129.593 52.8531 130.18C53.8465 130.767 55.0164 130.97 56.1564 131.16C54.9164 131.117 53.6665 131.41 52.5731 132C51.8631 132.383 51.0131 133.04 51.0031 133.84C50.9931 134.78 52.0198 135.693 52.8765 136.08C53.8631 136.52 54.8998 136.84 55.9631 137.033C54.4765 137.18 52.5065 137.46 51.5765 138.627C50.8898 139.49 50.8331 140.48 51.3765 141.433C51.9198 142.383 53.3631 143.167 55.2365 143.437" stroke="#002140" stroke-width="0.999999" stroke-linecap="round" stroke-linejoin="round"/>
<path d="M45.1432 142.92C45.1865 142.91 45.2299 142.9 45.2732 142.887C45.9932 142.7 46.8165 142.383 47.4232 141.983C48.0665 141.56 48.5832 140.873 48.6265 140.083C48.6832 139.117 47.9865 138.46 47.1632 137.947C46.3365 137.437 45.2765 137.43 44.3365 137.253C45.3565 137.31 46.4732 136.9 47.3632 136.423C47.9365 136.113 48.6265 135.573 48.6199 134.9C48.6132 134.113 47.7532 133.323 47.0432 132.987C46.2265 132.6 45.3699 132.313 44.4932 132.133C45.7099 132.033 47.3232 131.833 48.0699 130.867C48.6199 130.153 48.6499 129.32 48.1865 128.51C47.7265 127.7 46.5265 127.02 44.9832 126.76" stroke="#002140" stroke-width="0.999999" stroke-linecap="round" stroke-linejoin="round"/>
<path d="M59.6865 140.87H125.803" stroke="#002140" stroke-width="0.999999" stroke-linecap="round" stroke-linejoin="round"/>
<path d="M194.433 47.5367C194.433 47.5367 196.38 62.04 194.196 71.3C191.606 82.28 189.49 87.3766 189.49 87.3766H181.453C176.913 87.3766 171.373 86.6733 165.883 93.34C165.393 93.9366 164.646 94.8366 163.7 95.9766C157.373 103.587 141.983 121.997 132.083 133.82C129.663 136.71 127.573 139.203 126.02 141.053C124.256 143.16 123.19 144.423 123.136 144.477" stroke="#002140" stroke-width="0.999999" stroke-linecap="round" stroke-linejoin="round"/>
<path d="M167.056 148.38C164.08 152.03 158.766 158.5 157.48 159.973C156.85 160.693 156.083 161.33 155.173 161.62C154.263 161.91 153.16 161.757 152.53 161.04C152.236 160.707 152.073 160.287 152.023 159.84C151.966 159.387 152.03 158.903 152.18 158.47C152.473 157.613 153.056 156.893 153.63 156.193C156.673 152.467 159.75 148.77 162.863 145.107" stroke="#002140" stroke-width="0.999999" stroke-linecap="round" stroke-linejoin="round"/>
<path d="M173.1 135.456V131.573C173.1 129.776 174.556 128.32 176.353 128.32C178.15 128.32 179.606 129.776 179.606 131.573V147.966C179.606 149.763 178.15 151.22 176.353 151.22C174.556 151.22 173.1 149.763 173.1 147.966V145.966C171.78 145.976 170.41 145.87 169.243 146.48C168.553 146.836 167.92 147.32 167.43 147.92C167.31 148.07 167.183 148.22 167.056 148.38" stroke="#002140" stroke-width="0.999999" stroke-linecap="round" stroke-linejoin="round"/>
<path d="M151.923 159.85C151.503 160.18 151.25 160.267 150.743 160.43C149.833 160.72 148.73 160.567 148.1 159.85C147.74 159.443 147.58 158.907 147.573 158.357C147.566 157.993 147.63 157.623 147.75 157.28C148.043 156.423 148.626 155.703 149.2 155C152.24 151.277 155.32 147.58 158.433 143.913" stroke="#002140" stroke-width="0.999999" stroke-linecap="round" stroke-linejoin="round"/>
<path d="M147.45 158.36C147.066 158.643 146.806 158.873 146.35 159.016C145.44 159.306 144.336 159.153 143.706 158.437C143.11 157.757 143.063 156.723 143.356 155.87C143.65 155.013 144.233 154.29 144.806 153.59C144.97 153.39 145.133 153.19 145.296 152.993C148.18 149.47 151.093 145.973 154.04 142.503" stroke="#002140" stroke-width="0.999999" stroke-linecap="round" stroke-linejoin="round"/>
<path d="M145.256 152.96C144.606 152.95 143.973 152.723 143.55 152.24C142.953 151.56 142.906 150.53 143.2 149.673C143.493 148.817 144.076 148.093 144.65 147.393C145.383 146.497 146.116 145.603 146.853 144.71C147.426 144.013 148.003 143.317 148.58 142.62C150.273 140.583 153.92 136.04 162.75 135.713C163.08 135.7 163.42 135.693 163.766 135.693L173.1 135.613" stroke="#002140" stroke-width="0.999999" stroke-linecap="round" stroke-linejoin="round"/>
<path d="M177.256 97.73C177.256 97.73 179.586 100.643 182.946 104.847C190.62 114.437 203.666 130.753 206.666 134.517C210.98 139.927 208.55 143.537 201.883 143.537H179.686" stroke="#002140" stroke-width="0.999999" stroke-linecap="round" stroke-linejoin="round"/>
<path d="M174.98 106.907L179.16 112.003L198.59 135.693H179.766" stroke="#002140" stroke-width="0.999999" stroke-linecap="round" stroke-linejoin="round"/>
<path d="M189.49 87.3766C189.49 87.3766 188.626 94.5166 183.293 104.633" stroke="#002140" stroke-width="0.999999" stroke-linecap="round" stroke-linejoin="round"/>
<path d="M179.06 112.083C179.06 112.083 170.04 128.32 162.746 135.613" stroke="#002140" stroke-width="0.999999" stroke-linecap="round" stroke-linejoin="round"/>
<path d="M123.136 144.71H134.98H146.853H146.903" stroke="#002140" stroke-width="0.999999" stroke-linecap="round" stroke-linejoin="round"/>
<path d="M134.98 144.476C135.293 144.006 159.766 113.887 159.766 113.887L157.02 109.34L163.373 108.163C163.373 108.163 170.096 99.2265 172.746 95.9665C177.333 90.3199 180.393 87.4565 189.333 87.4565" stroke="#002140" stroke-width="0.999999" stroke-linecap="round" stroke-linejoin="round"/>
<path d="M118.156 78.0833L120.13 67.0233L120.863 62.9066L113.803 64.6733" stroke="#002140" stroke-width="0.999999" stroke-linecap="round" stroke-linejoin="round"/>
<path d="M120.156 67.0266L124.393 69.0265L119.333 80.6732" stroke="#002140" stroke-width="0.999999" stroke-linecap="round" stroke-linejoin="round"/>
<path d="M130.746 91.9666L152.166 88.3832L159.57 87.1432L159.333 95.8499" stroke="#002140" stroke-width="0.999999" stroke-linecap="round" stroke-linejoin="round"/>
<path d="M163.686 95.9666H159.333H136.51" stroke="#002140" stroke-width="0.999999" stroke-linecap="round" stroke-linejoin="round"/>
<path d="M128.863 90.9065L151.57 82.4365L152.156 88.3199" stroke="#002140" stroke-width="0.999999" stroke-linecap="round" stroke-linejoin="round"/>
<path d="M137.333 159.3C128.47 156.633 127.45 152.32 127.45 152.32L117.333 158.043C117.333 158.043 127.133 165.156 137.333 159.3Z" stroke="#002140" stroke-width="0.999999" stroke-linecap="round" stroke-linejoin="round"/>
<path d="M117.333 158.043L117.413 161.573C117.413 161.573 125.49 167.927 137.1 162.673L137.333 159.3" stroke="#002140" stroke-width="0.999999" stroke-linecap="round" stroke-linejoin="round"/>
<path d="M199.136 154.256C210.19 151.59 211.46 147.276 211.46 147.276L224.08 153C224.08 153 211.856 160.113 199.136 154.256Z" stroke="#002140" stroke-width="0.999999" stroke-linecap="round" stroke-linejoin="round"/>
<path d="M224.08 153L223.98 156.53C223.98 156.53 213.906 162.883 199.43 157.626L199.136 154.256" stroke="#002140" stroke-width="0.999999" stroke-linecap="round" stroke-linejoin="round"/>
<path d="M245.646 150.28C248.626 150.203 253.1 148.007 253.1 148.007C253.1 148.007 253.243 146.07 253.253 144.323C253.256 144.243 253.256 144.163 253.256 144.083C247.14 144.217 241.946 142.973 240.586 142.613C240.356 142.553 240.236 142.517 240.236 142.517L240 146.83C240 146.83 241.57 149.26 245.646 150.28Z" stroke="#002140" stroke-width="0.999999" stroke-linecap="round" stroke-linejoin="round"/>
<path d="M253.02 144.32C253.02 144.32 249.49 146.75 245.96 147.22C242.51 146.203 240.55 142.75 240.55 142.75" stroke="#002140" stroke-width="0.999999" stroke-linecap="round" stroke-linejoin="round"/>
<path d="M245.646 150.28L245.96 147.22" stroke="#002140" stroke-width="0.999999" stroke-linecap="round" stroke-linejoin="round"/>
<path d="M235.67 126.083C235.703 126.07 235.733 126.057 235.766 126.043L237.646 128.633C220.626 140.947 209.176 127.613 209.176 127.613L209.256 123.3C209.283 123.293 209.39 123.287 209.566 123.283C211.466 123.233 221.256 123.3 221.256 123.3C221.256 123.3 226.083 130.157 235.67 126.083Z" stroke="#002140" stroke-width="0.999999" stroke-linecap="round" stroke-linejoin="round"/>
<path d="M209.57 123.377C209.57 123.377 219.843 138.123 235.686 126.123" stroke="#002140" stroke-width="0.999999" stroke-linecap="round" stroke-linejoin="round"/>
</g>
<defs>
<clipPath id="clip0_4_2306">
<rect width="254" height="165" fill="white" transform="translate(0.5 0.5)"/>
</clipPath>
</defs>
</svg>
