<?xml version="1.0" encoding="utf-8"?>
<!-- Generator: Adobe Illustrator 28.1.0, SVG Export Plug-In . SVG Version: 6.00 Build 0)  -->
<svg version="1.1" id="Layer_1" xmlns="http://www.w3.org/2000/svg" xmlns:xlink="http://www.w3.org/1999/xlink" x="0px" y="0px"
	 viewBox="0 0 218 190" style="enable-background:new 0 0 218 190;" xml:space="preserve">
<style type="text/css">
	.st0{clip-path:url(#SVGID_00000056417323824533792590000000119636534790381739_);}
	.st1{fill:#03D47C;}
	.st2{fill:#FFFAF0;}
	.st3{fill:#780505;}
	.st4{fill:#4BA6A6;}
	.st5{fill:#50EEF6;}
	.st6{fill:#B0D9FF;}
	.st7{fill:#99F6FF;}
	.st8{fill:#D18000;}
	.st9{fill:#E4BC07;}
	.st10{fill:#FFF2B2;}
	.st11{fill:#28736D;}
	.st12{fill:#5AB0FF;}
	.st13{fill:#4ED7DE;}
	.st14{fill:#8DC8FF;}
	.st15{fill:#FFA75A;}
	.st16{fill:none;stroke:#002140;stroke-width:1;stroke-linecap:round;stroke-linejoin:round;}
	.st17{fill:#0164BF;stroke:#002140;stroke-width:1;stroke-linecap:round;stroke-linejoin:round;}
	.st18{fill:none;stroke:#002140;}
</style>
<g>
	<defs>
		<rect id="SVGID_1_" width="218" height="190"/>
	</defs>
	<clipPath id="SVGID_00000004514243584048953990000006669435163715640510_">
		<use xlink:href="#SVGID_1_"  style="overflow:visible;"/>
	</clipPath>
	<g style="clip-path:url(#SVGID_00000004514243584048953990000006669435163715640510_);">
		<path class="st1" d="M199.21,34.701c0.08-0.179,2.634-5.959,2.634-11.623c0-6.834-0.6-17.623-0.6-17.623V5.326
			c3.611-0.127,7.311,2.431,7.311,8.52c0,13.787,1.197,22.18-13.182,33.209c-10.963,8.407-10.187,20.501-10.308,25.295v0.24h-5.153
			v-0.479c0.24-4.436,0.121-11.741,2.758-17.262c4.553-9.547,14.602-10.849,16.474-20.159L199.21,34.701z"/>
		<path class="st2" d="M206.502,120.155c8.8,0,8.343-12.152-0.03-12.152h-0.075v-4.155c14.305,0,14.82,20.462,0,20.462v-4.155
			H206.502z"/>
		<path class="st2" d="M206.397,126.147v-1.837v-23.783l-0.027-0.006c-0.163,0.805-1.068,1.548-2.514,2.173
			c-2.612,1.129-6.994,1.87-11.959,1.87c-5.252,0-9.851-0.829-12.395-2.071c-1.134-0.551-1.861-1.187-2.053-1.867l-0.053,0.017
			c0,0,0.036,6.953,0.069,13.567c0.028,5.46,0.053,10.692,0.053,11.592c0,1.443,4.753,6.105,14.216,5.89
			C202.323,131.453,206.397,127.804,206.397,126.147z"/>
		<path class="st2" d="M206.397,100.26c0,0.088-0.008,0.176-0.027,0.262c-0.163,0.804-1.068,1.547-2.514,2.172l-0.005-0.014
			c-4.586-3.775-18.335-4.496-24.266-0.36l-0.083,0.173c-1.134-0.551-1.861-1.187-2.053-1.867c-0.036-0.121-0.053-0.242-0.053-0.366
			c0-1.404,2.266-2.652,5.773-3.439c2.427-0.543,5.45-0.865,8.728-0.865C199.904,95.956,206.397,97.881,206.397,100.26z"/>
		<path class="st3" d="M203.851,102.68l0.005,0.014c-2.612,1.129-6.994,1.87-11.959,1.87c-5.252,0-9.852-0.829-12.395-2.071
			l0.083-0.173C185.516,98.184,199.265,98.905,203.851,102.68z"/>
		<path class="st1" d="M201.244,5.456c0,0,0.6,10.789,0.6,17.623c0,5.664-2.554,11.444-2.634,11.623l-0.066-0.014
			c0.196-0.978,0.303-2.046,0.303-3.219c0-5.353-2.356-8.167-5.103-8.993l0.069-0.237c-0.119-2.517,0-6.234,0-9.952
			c0-1.779,0.583-3.263,1.516-4.398c1.308-1.592,3.298-2.495,5.313-2.564v0.129H201.244z"/>
		<path class="st1" d="M199.447,31.469c0,1.173-0.107,2.241-0.302,3.219c-1.872,9.31-11.922,10.612-16.474,20.159
			c-2.637,5.521-2.519,12.826-2.758,17.263v0.479h-7.79V72.11c0,0-1.605-15.679,6.592-23.736
			c6.951-6.834,12.238-9.624,13.127-13.787c1.253-5.874,0.416-12.108,0.416-12.108l-0.008-0.264c0.704-0.03,1.412,0.052,2.094,0.262
			C197.091,23.302,199.447,26.116,199.447,31.469z"/>
		<path class="st1" d="M195.853,7.612l0.077,0.278c-0.933,1.134-1.517,2.619-1.517,4.398c0,3.717-0.118,7.435,0,9.952l-0.069,0.237
			c-0.682-0.209-1.39-0.292-2.095-0.262c-0.985,0.041-1.959,0.308-2.837,0.782l-0.152-0.278l-0.958-20.98l-0.005-0.052
			C192.065,1.339,195.795,3.713,195.853,7.612z"/>
		<path class="st4" d="M194.514,172.934v5.512c0,3.957-5.274,4.437-6.95,4.437h-77.395c-9.708,0-13.543-2.878-16.298-6.353
			c-0.933-1.179-4.333-4.998-8.249-9.453l-0.006-0.154c1.409-0.042,3.083-0.105,3.928-0.105c1.319,0,1.864-1.798,1.263-2.878
			c-0.41-0.738-2.089-2.817-3.977-4.885c-0.652-0.713-1.74-0.649-2.042-0.649c-0.958,0-3.185-0.009-5.343-0.009
			c-0.592,0-0.972,0.177-1.214,0.43l-0.066-0.094c-6.056-6.842-10.195-11.664-10.195-11.664l0.05-2.244l0.105-4.761
			c0.036-0.347,0.055-0.708,0.055-1.077c0-0.206-0.006-0.413-0.019-0.614l0.066-2.963c0,0,26.243,30.089,28.761,32.966
			c2.516,2.878,6.471,6.348,14.5,6.348h77.748c2.276,0,6.232-1.975,4.313-5.811h0.003
			C194.156,170.009,194.514,171.221,194.514,172.934z"/>
		<path class="st5" d="M164.688,144.274l-2.208-2.545c-1.395-1.608-3.421-2.533-5.552-2.533h-73.31c-1.96,0-2.967,2.343-1.621,3.767
			l1.222,1.399l5.252,6.008l5.202,5.951l2.945,3.37c1.376,1.457,3.295,2.283,5.301,2.283h72.859c2.065,0,3.171-2.426,1.817-3.985
			l-1.583-1.823l-5.155-5.939L164.688,144.274z M193.548,168.913c1.918,3.836-2.037,5.81-4.313,5.81h-24.633v-0.063
			c0,0-3.504-4.246-6.14-7.063c-1.217-1.3-2.158-2.396-6.772-2.396c-1.858,0-13.988-0.061-19.232-0.061
			c-3.058,0-4.112,1.661-1.857,4.136c2.455,2.696,1.973,2.481,4.668,5.342v0.105h-23.782c-8.029,0-11.984-3.469-14.5-6.347
			c-2.519-2.878-28.761-32.966-28.761-32.966l96.126-0.237c0,0,25.177,28.448,26.87,30.565c0.939,1.173,1.751,2.12,2.329,3.175
			H193.548z"/>
		<path class="st1" d="M192.257,22.478c0,0,0.837,6.234-0.415,12.108c-0.889,4.164-6.177,6.953-13.127,13.787
			c-8.197,8.057-6.592,23.736-6.592,23.736v0.479h-6.232v-0.24c-1.316-23.257,10.093-28.566,15.7-32.727
			c3.713-2.759,4.421-6.355,4.313-10.312c-0.079-3.007,1.448-5.215,3.507-6.314c0.878-0.474,1.853-0.741,2.838-0.782L192.257,22.478
			z"/>
		<path class="st1" d="M189.26,22.718l0.151,0.278c-2.059,1.099-3.586,3.307-3.506,6.314c0.107,3.957-0.601,7.553-4.314,10.312
			c-5.607,4.161-17.016,9.47-15.7,32.727v0.24h-1.539v-2.82c0-0.595-0.074-1.17-0.214-1.718l0.077-0.017
			c0-2.638-2.238-4.992-4.949-8.123l0.035-0.03c0-17.502,8.63-19.421,14.859-24.576c6.231-5.155,6.713-8.511,6.713-18.46
			c0-1.313-0.165-2.459-0.457-3.448l0.096-0.03c-0.247-7.895,3.791-11.317,7.784-11.681l0.006,0.052L189.26,22.718z"/>
		<path class="st6" d="M186.505,72.589c0,0,1.258,0.24,1.258,1.231c0,0.991-4.674,22.657-4.674,22.657l0.08,0.344
			c-3.507,0.788-5.772,2.035-5.772,3.439c0,0.124,0.016,0.245,0.052,0.366l-0.052,0.017c0,0,0.036,6.953,0.069,13.567h-0.064
			c-2.686,0.575-7.817,1.239-12.948-0.501h-0.101v-41.12H186.505z"/>
		<path class="st1" d="M180.417,13.397c0.291,0.989,0.457,2.134,0.457,3.448c0,9.949-0.482,13.306-6.714,18.46
			c-6.229,5.155-14.858,7.074-14.858,24.576l-0.036,0.03c-0.162-0.187-0.327-0.38-0.492-0.573c-1.319-1.539-3.265-1.881-4.991-1.955
			l0.006-0.138c0-8.633,1.918-16.065,9.587-21.462c7.671-5.394,9.947-9.23,10.666-13.305c0.914-5.188,0-13.787,0-13.787
			l-0.006-0.207C176.706,8.363,179.376,9.872,180.417,13.397z"/>
		<path class="st7" d="M176.596,157.99c1.354,1.558,0.248,3.984-1.817,3.984h-5.028v-0.19l-4.848-5.523h10l0.11-0.094
			L176.596,157.99z"/>
		<path class="st7" d="M169.857,150.227l5.156,5.939l-0.11,0.094h-10l-5.257-5.995h10.167L169.857,150.227z"/>
		<path class="st1" d="M174.041,8.691c0,0,0.914,8.6,0,13.787c-0.718,4.075-2.995,7.911-10.666,13.305
			c-7.668,5.397-9.587,12.829-9.587,21.462l-0.005,0.138c-0.377-0.017-0.744-0.019-1.09-0.019h-4.536v-0.24
			c-0.361-25.655,18.334-25.774,18.813-33.927c0.077-1.319,0.239-5.034,0.239-7.074c0-4.673,3.414-7.487,6.827-7.639L174.041,8.691z
			"/>
		<path class="st7" d="M169.858,150.227l-0.044,0.038h-10.168l-5.257-5.992h10.3L169.858,150.227z"/>
		<path class="st7" d="M169.75,161.784v0.19h-10.146v-0.19l-4.847-5.524h10.146L169.75,161.784z"/>
		<path class="st7" d="M159.646,150.266l5.257,5.994h-10.146l-5.257-5.994H159.646z"/>
		<path class="st7" d="M162.48,141.73l2.208,2.544h-10.3l-4.412-5.028v-0.05h6.952C159.059,139.196,161.085,140.122,162.48,141.73z"
			/>
		<path class="st7" d="M164.603,174.66v0.063H135.27v-0.104c-2.695-2.861-2.214-2.647-4.669-5.342
			c-2.254-2.476-1.2-4.136,1.858-4.136c5.244,0,17.374,0.06,19.232,0.06c4.613,0,5.555,1.096,6.771,2.396
			C161.099,170.414,164.603,174.66,164.603,174.66z"/>
		<path class="st5" d="M74.02,85.999v37.576c0,3.348,2.714,6.061,6.058,6.061h72.008c3.345,0,6.059-2.713,6.059-6.061V74.384
			c0-3.348-2.714-6.061-6.059-6.061H80.079c-3.344,0-6.058,2.712-6.058,6.061V85.999z M164.353,113.709v21.464H67.813V69.769
			c0-3.858,3.127-6.986,6.983-6.986h82.573c3.264,0,6.006,2.241,6.768,5.268c0.14,0.548,0.215,1.123,0.215,1.718V113.709z"/>
		<path class="st4" d="M164.215,68.035l-0.077,0.017c-0.762-3.026-3.504-5.268-6.769-5.268H74.797c-3.856,0-6.983,3.128-6.983,6.986
			v65.404l-0.022,0.006c0,0-2.32-2.646-3.76-4.087c-2.219-2.216-2.1-3.348-2.1-6.344v-14.396l-0.006-43.997
			c0-4.315,3.185-8.99,9.895-8.99h80.872c0.347,0,0.713,0.003,1.09,0.019c1.726,0.074,3.672,0.416,4.99,1.955
			c0.165,0.193,0.331,0.385,0.493,0.573C161.977,63.042,164.215,65.397,164.215,68.035z"/>
		<path class="st7" d="M159.645,150.265H149.5l-5.258-5.992h10.146L159.645,150.265z"/>
		<path class="st7" d="M159.604,161.784v0.19h-40.586v-0.19l-4.844-5.524h10.038h10.185h10.044h10.316L159.604,161.784z"/>
		<path class="st7" d="M149.5,150.266l5.257,5.994h-10.316v-0.113l-5.136-5.881H149.5z"/>
		<path class="st7" d="M154.388,144.274h-10.146l-4.412-5.028v-0.05h10.146v0.05L154.388,144.274z"/>
		<path class="st7" d="M149.499,150.265h-10.195l-5.23-5.992h10.168L149.499,150.265z"/>
		<path class="st7" d="M144.44,156.147v0.113h-10.044v-0.077l-5.191-5.917h10.099L144.44,156.147z"/>
		<path class="st7" d="M144.243,144.274h-10.168l-4.39-5.028v-0.05h10.145v0.05L144.243,144.274z"/>
		<path class="st7" d="M134.075,144.273l5.23,5.992h-10.099l-5.258-5.992H134.075z"/>
		<path class="st7" d="M134.397,156.183v0.077h-10.185v-0.124l-5.15-5.87h10.144L134.397,156.183z"/>
		<path class="st7" d="M134.075,144.274h-10.126l-4.41-5.028v-0.05h10.146v0.05L134.075,144.274z"/>
		<path class="st7" d="M123.948,144.273l5.257,5.992h-10.143l-5.257-5.992H123.948z"/>
		<path class="st7" d="M124.213,156.136v0.124h-10.039l-5.26-5.994h10.149L124.213,156.136z"/>
		<path class="st7" d="M119.538,139.246l4.41,5.028h-10.143l-4.412-5.028v-0.05h10.145V139.246z"/>
		<path class="st7" d="M119.062,150.265h-10.148l-5.258-5.992h10.149L119.062,150.265z"/>
		<path class="st7" d="M119.018,161.784v0.19h-10.145v-0.19l-4.848-5.524h10.149L119.018,161.784z"/>
		<path class="st7" d="M114.173,156.26h-10.148l-5.257-5.994h10.145L114.173,156.26z"/>
		<path class="st7" d="M113.805,144.274h-10.148l-4.41-5.028v-0.05h10.146v0.05L113.805,144.274z"/>
		<path class="st7" d="M103.657,144.273l5.257,5.992H98.768l-5.257-5.992H103.657z"/>
		<path class="st7" d="M108.872,161.784v0.19h-6.953c-2.006,0-3.925-0.827-5.301-2.283l-2.945-3.371l0.069-0.06h10.283
			L108.872,161.784z"/>
		<path class="st7" d="M98.768,150.266l5.257,5.994H93.742l-0.069,0.061l-5.202-5.951l0.118-0.104H98.768z"/>
		<path class="st7" d="M99.247,139.246l4.41,5.028H93.511l-4.412-5.028v-0.05h10.149V139.246z"/>
		<path class="st7" d="M98.768,150.265H88.589l-0.118,0.105l-5.252-6.008l0.099-0.089H93.51L98.768,150.265z"/>
		<path class="st8" d="M96.965,18.114c2.885,0.358,2.1,2.528,1.225,3.5c-0.253,0.281-0.812,0.845-1.492,1.52l-0.033-0.036
			c0.947-0.953,1.101-1.76-0.804-1.76H45.185c-2.012,0-3.256-0.085-5.056,1.715c-0.796,0.796-1.219,1.157-2.967,2.905
			c-1.748,1.749-1.264,2.855-0.234,2.855v0.019c-0.867-0.008-1.346-0.014-1.346-0.014c-3.072,0-3.708-2.12-2.541-3.39
			c0.069-0.077,0.14-0.151,0.206-0.226c1.66-1.798,2.978-3.026,4.605-4.755c1.696-1.804,3.554-2.387,6.201-2.387h52.02
			C96.404,18.062,96.701,18.078,96.965,18.114z"/>
		<path class="st9" d="M96.971,18.067l-0.006,0.047c-0.264-0.036-0.562-0.052-0.892-0.052h-52.02c-2.648,0-4.506,0.584-6.201,2.387
			c-1.627,1.729-2.945,2.957-4.605,4.756l-0.102-0.094v-8.054c0-1.033-0.063-1.98-0.063-2.861c0.003-1.649,0.237-3.068,1.547-4.378
			c1.855-1.856,5.436-4.381,7.344-5.549c1.905-1.165,3.6-1.377,6.779-1.377h41.527c3.072,0,6.006,1.341,6.323,4.626
			C96.921,10.803,96.971,18.067,96.971,18.067z"/>
		<path class="st10" d="M36.927,28.815c-1.029,0-1.508-1.112,0.234-2.855c1.742-1.743,2.172-2.109,2.967-2.905
			c1.8-1.801,3.044-1.716,5.056-1.716h13.504v0.353c0,7.553,17.974,6.834,17.974,0v-0.353h19.199c1.905,0,1.751,0.807,0.804,1.76
			l0.033,0.036c-1.503,1.495-3.592,3.525-4.228,4.202c-1.588,1.696-3.284,1.804-7.735,1.908c-2.188,0.052-40.137-0.333-47.809-0.41
			V28.815z"/>
		<path class="st7" d="M93.511,144.274H83.318l-0.099,0.088l-1.222-1.399c-1.346-1.423-0.339-3.767,1.621-3.767h5.48v0.05
			L93.511,144.274z"/>
		<path class="st4" d="M90.808,163.94c0.6,1.079,0.055,2.877-1.263,2.877c-0.845,0-2.519,0.063-3.928,0.105
			c-0.793,0.027-1.503,0.047-1.932,0.047c-1.197,0-1.665,0.088-2.744-1.259l-0.011-0.069c1.095-0.201,1.39-1.556,1.101-2.66
			c-0.487-1.856-1.885-2.216-3.22-2.216h-0.878v-0.039c0,0-0.339-1.228,0.3-1.9c0.242-0.253,0.622-0.43,1.214-0.43
			c2.158,0,4.385,0.009,5.343,0.009c0.303,0,1.39-0.064,2.042,0.65C88.719,161.123,90.398,163.202,90.808,163.94z"/>
		<path class="st11" d="M82.03,162.982c0.289,1.104-0.006,2.459-1.101,2.66c-0.091,0.019-0.19,0.027-0.292,0.027h-18.23
			c-1.921,0-4.737-0.327-7.008-3.153c-1.453-1.806-3.019-3.824-4.531-5.777c-1.203-1.547-2.337-3.012-3.292-4.21
			c-1.247-1.561-1.712-2.145-4.677-2.145c-1.935,0-7.275,0.044-12.439,0.085c-4.283,0.036-8.679,0.075-11.406,0.088
			c-0.663,0.003-1.052,0.752-0.674,1.3c2.686,3.888,4.214,6.204,4.277,6.3l0.044,0.411c-2.381,0.25-3.675,0.793-4.627,1.555
			c-0.017-0.024-1.396-2.238-4.644-6.914c-1.668-2.401-1.371-4.141-0.828-5.18c0.776-1.486,2.425-2.307,4.643-2.307
			c2.219,0,7.748-0.047,13.174-0.091c5.411-0.047,10.523-0.088,12.48-0.088c4.5,0,6.314,1.278,8.458,3.968
			c0.977,1.223,2.119,2.698,3.333,4.263c1.5,1.935,3.05,3.937,4.476,5.708c0.908,1.132,1.839,1.346,3.24,1.346l15.524-0.06h0.878
			C80.144,160.765,81.542,161.126,82.03,162.982z"/>
		<path class="st2" d="M76.662,21.338v0.352c0,6.834-17.974,7.553-17.974,0v-0.352H76.662z"/>
		<path class="st4" d="M68.16,138.372l-0.036,1.691c-0.275,2.663-1.552,4.676-3.083,4.676c-1.731,0-3.138-2.575-3.138-5.752
			c0-3.178,1.407-5.756,3.138-5.756C66.66,133.231,67.995,135.484,68.16,138.372z"/>
		<path class="st11" d="M61.931,110.352v2.998h-0.058H44.378l-0.173,0.08l-1.382-2.968l0.237-0.11h18.813H61.931z"/>
		<path class="st6" d="M52.576,124.847c1.778,2.577-0.666,4.089-3.314,4.089H10.319c-2.012,0-3.333-0.931-4.412-2.655
			c-0.859-1.371-2.26-3.648-4.522-7.547c-1.907-3.285,1.484-5.51,4.027-4.981l0.19,0.09l-1.561,3.258l5.219,8.098l40.415-0.008
			l-5.169-11.116h0.003C45.879,115.98,49.826,120.862,52.576,124.847z"/>
		<path class="st12" d="M44.505,114.074l5.169,11.117l-40.415,0.008l14.544-31.267l11.376,0.091l7.644,16.439l1.382,2.968
			L44.505,114.074z M31.681,114.92v-9.999l-4.024,0.036v9.963H31.681z"/>
		<path class="st13" d="M48.451,181.252c0.63,4.047-0.358,6.834-6.559,7.283c-3.262,0.237-6.675,0.039-9.592-0.865l0.094-0.303
			c-0.573-5.372-3.256-13.9-7.272-19.242l0.083-0.06H42.82l0.239-0.152C45.897,172.473,47.937,177.936,48.451,181.252z"/>
		<path class="st13" d="M43.059,167.913l-0.239,0.152h-8.269v-0.047c-1.374-3.555-6.146-8.971-10.644-9.544
			c0.699-0.038,1.475-0.061,2.345-0.058c7.459,0.011,10.936,1.688,14.831,6.653C41.777,165.953,42.437,166.911,43.059,167.913z"/>
		<path class="st14" d="M30.841,89.389l4.338,4.634l-11.376-0.091l-5.731-6.102l3.482-0.044h0.149v2.308c0,0,1.558,2.17,4.671,2.007
			c4.013-0.209,4.335-2.087,4.335-2.087v-0.625H30.841z"/>
		<path class="st13" d="M34.551,168.018v0.046h-9.348l-0.083,0.061c-2.686-3.577-5.97-5.725-9.623-4.543l-0.102-0.044
			c0.556-1.314,1.47-2.448,2.678-3.415c0.952-0.763,2.246-1.305,4.627-1.556c0.374-0.038,0.773-0.069,1.206-0.093
			C28.405,159.046,33.178,164.463,34.551,168.018z"/>
		<path class="st15" d="M33.146,17.056v6.708h-4.192v-0.237c-1.619-2.437-1.437-6.964,0.36-9.172v-0.16h3.768
			C33.082,15.076,33.146,16.024,33.146,17.056z"/>
		<path class="st13" d="M32.394,187.368L32.3,187.67c-1.814-0.559-3.435-1.393-4.71-2.566c-3.325-3.056-11.225-10.866-12.392-15.181
			c-0.674-2.483-0.564-4.601,0.198-6.385l0.102,0.044c3.652-1.182,6.936,0.966,9.623,4.543
			C29.138,173.467,31.821,181.995,32.394,187.368z"/>
		<path class="st15" d="M30.709,89.388v0.625c0,0-0.322,1.878-4.335,2.087c-3.113,0.162-4.671-2.007-4.671-2.007v-7.465h0.107
			c2.106,1.801,6.419,1.98,8.742,0.361h0.157V89.388z"/>
		<path class="st15" d="M30.709,72.379v10.61h-0.157c-2.323,1.619-6.636,1.44-8.742-0.361h-0.107v-10.61h0.107
			c2.106,1.801,6.419,1.98,8.742,0.361H30.709z"/>
		<path class="st15" d="M30.709,61.23v11.15h-0.157c-2.323,1.619-6.636,1.44-8.742-0.361h-0.107V61.61
			c0-0.259-0.011-0.501-0.03-0.727l0.138-0.011c2.106,1.798,6.419,1.977,8.742,0.358H30.709z"/>
		<path class="st15" d="M30.709,56.673v4.557h-0.157c-2.323,1.619-6.636,1.44-8.742-0.358l-0.138,0.011
			c-0.209-2.448-1.541-2.982-3.677-2.982h-1.597v-0.028c1.797-2.208,1.979-6.735,0.361-9.17v-0.14h5.367
			C28.801,48.563,30.709,51.375,30.709,56.673z"/>
		<path class="st15" d="M29.314,14.195v0.16c-1.797,2.208-1.979,6.735-0.361,9.172v0.237H16.091c-0.231,0-0.46,0-0.677,0.006v-0.242
			c-1.618-2.437-1.439-6.964,0.358-9.172v-0.16H29.314z"/>
		<path class="st14" d="M18.072,87.83l5.731,6.102L9.259,125.199l-5.219-8.098l1.561-3.257L18.072,87.83z"/>
		<path class="st15" d="M16.759,48.704c1.619,2.434,1.437,6.961-0.361,9.17v0.028h-6.234c-4.195,0-8.101-2.605-8.101-8.966v-2.33
			h0.072c2.296,1.798,6.997,1.977,9.526,0.358l0.157-0.063c0.405,0.95,1.384,1.663,3.212,1.663h1.729V48.704z"/>
		<path class="st15" d="M15.771,14.195v0.16c-1.797,2.208-1.976,6.735-0.361,9.172v0.242c-2.051,0.039-3.504,0.388-3.776,3.302
			l-0.099-0.008c-2.53,1.619-7.104,1.44-9.4-0.358H2.063v-2.971c0-5.405,1.632-9.539,8.624-9.539H15.771z"/>
		<path class="st15" d="M11.818,46.9l-0.157,0.063c-2.53,1.619-7.231,1.44-9.526-0.358H2.063v-9.651h0.072
			c2.296,1.798,6.807,1.977,9.337,0.361h0.116V45.7C11.587,46.118,11.659,46.528,11.818,46.9z"/>
		<path class="st15" d="M11.535,27.063l0.099,0.008c-0.03,0.328-0.047,0.686-0.047,1.082v9.161h-0.116
			c-2.53,1.616-7.041,1.437-9.337-0.361H2.063V26.705h0.072C4.431,28.503,9.005,28.682,11.535,27.063z"/>
		<path class="st16" d="M164.353,135.173V69.769c0-0.595-0.075-1.17-0.215-1.718c-0.762-3.026-3.504-5.268-6.768-5.268H74.797
			c-3.856,0-6.983,3.128-6.983,6.986v65.404H164.353z"/>
		<path class="st16" d="M164.215,68.035c0-2.638-2.238-4.992-4.949-8.123c-0.162-0.187-0.328-0.38-0.493-0.573
			c-1.318-1.539-3.264-1.881-4.99-1.955c-0.377-0.016-0.743-0.019-1.09-0.019H71.821c-6.711,0-9.895,4.676-9.895,8.99l0.006,43.997
			v14.396c0,2.996-0.118,4.128,2.1,6.344c1.439,1.441,3.76,4.087,3.76,4.087"/>
		<path class="st17" d="M158.146,85.999v37.576c0,3.348-2.714,6.06-6.058,6.06H80.079c-3.344,0-6.058-2.712-6.058-6.06V74.384
			c0-3.348,2.714-6.061,6.058-6.061h72.009c3.344,0,6.058,2.712,6.058,6.061V85.999z"/>
		<path class="st16" d="M68.16,138.372c0.014,0.201,0.019,0.408,0.019,0.615c0,0.368-0.019,0.729-0.055,1.076
			c-0.275,2.663-1.552,4.676-3.083,4.676c-1.731,0-3.138-2.575-3.138-5.752c0-3.178,1.407-5.756,3.138-5.756
			C66.66,133.231,67.995,135.484,68.16,138.372z"/>
		<path class="st16" d="M85.622,167.076c3.917,4.456,7.316,8.275,8.249,9.453c2.755,3.476,6.59,6.353,16.298,6.353h77.395
			c1.676,0,6.95-0.479,6.95-4.436v-5.513c0-1.713-0.358-2.924-0.963-4.02c-0.578-1.055-1.39-2.002-2.329-3.175
			c-1.693-2.117-26.87-30.565-26.87-30.565l-96.126,0.237l-0.066,2.963l-0.036,1.69l-0.105,4.761l-0.05,2.244
			c0,0,4.14,4.822,10.195,11.665"/>
		<path class="st16" d="M68.226,135.41c0,0,26.243,30.089,28.761,32.966c2.516,2.878,6.471,6.348,14.5,6.348h77.748
			c2.276,0,6.231-1.975,4.313-5.811"/>
		<path class="st16" d="M175.013,156.167l1.583,1.823c1.354,1.558,0.247,3.984-1.817,3.984H101.92c-2.007,0-3.925-0.826-5.302-2.283
			l-2.945-3.37l-5.202-5.951l-5.252-6.008l-1.222-1.399c-1.346-1.423-0.339-3.767,1.621-3.767h73.311
			c2.13,0,4.156,0.926,5.552,2.534l2.207,2.544l5.17,5.953L175.013,156.167z"/>
		<path class="st16" d="M135.27,174.619c-2.695-2.861-2.214-2.647-4.669-5.342c-2.254-2.476-1.2-4.136,1.858-4.136
			c5.244,0,17.374,0.06,19.232,0.06c4.613,0,5.555,1.096,6.771,2.396c2.637,2.817,6.141,7.063,6.141,7.063"/>
		<path class="st16" d="M183.089,96.477c0,0,4.673-21.668,4.673-22.657c0-0.989-1.257-1.231-1.257-1.231h-22.051"/>
		<path class="st16" d="M164.454,113.708c5.131,1.74,10.262,1.077,12.948,0.501"/>
		<path class="st16" d="M148.157,57.124c-0.361-25.655,18.334-25.774,18.813-33.927c0.077-1.319,0.239-5.034,0.239-7.074
			c0-4.673,3.414-7.487,6.827-7.639c2.67-0.121,5.34,1.388,6.38,4.912c0.292,0.989,0.457,2.134,0.457,3.448
			c0,9.949-0.482,13.306-6.713,18.46c-6.229,5.155-14.859,7.074-14.859,24.576"/>
		<path class="st16" d="M165.891,72.349c-1.316-23.257,10.093-28.566,15.7-32.727c3.713-2.759,4.421-6.355,4.313-10.312
			c-0.079-3.007,1.448-5.215,3.507-6.314c0.878-0.474,1.853-0.741,2.838-0.782c0.705-0.03,1.412,0.052,2.095,0.262
			c2.747,0.826,5.103,3.64,5.103,8.993c0,1.173-0.107,2.241-0.303,3.219c-1.872,9.31-11.921,10.612-16.474,20.159
			c-2.637,5.521-2.518,12.826-2.758,17.263"/>
		<path class="st16" d="M194.413,22.239c-0.118-2.517,0-6.234,0-9.952c0-1.779,0.584-3.263,1.517-4.398
			c1.307-1.592,3.297-2.495,5.312-2.564c3.614-0.127,7.313,2.431,7.313,8.52c0,13.787,1.198,22.18-13.181,33.209
			c-10.964,8.407-10.187,20.501-10.309,25.295"/>
		<path class="st16" d="M180.513,13.367c-0.248-7.895,3.79-11.317,7.784-11.681c3.768-0.347,7.498,2.027,7.556,5.926"/>
		<path class="st16" d="M172.123,72.11c0,0-1.605-15.679,6.592-23.736c6.951-6.834,12.238-9.624,13.127-13.787
			c1.253-5.874,0.416-12.108,0.416-12.108"/>
		<path class="st16" d="M153.788,57.245c0-8.633,1.919-16.065,9.587-21.462c7.671-5.394,9.948-9.23,10.666-13.305
			c0.914-5.188,0-13.787,0-13.787"/>
		<path class="st16" d="M188.302,1.738l0.958,20.98"/>
		<path class="st16" d="M201.245,5.455c0,0,0.6,10.789,0.6,17.623c0,5.664-2.554,11.444-2.634,11.623
			c-0.003,0-0.003,0.005-0.003,0.005"/>
		<path class="st16" d="M177.396,100.643c0,0,0.036,6.953,0.069,13.567c0.028,5.461,0.053,10.692,0.053,11.593
			c0,1.443,4.753,6.105,14.216,5.89c10.589-0.24,14.663-3.888,14.663-5.546v-25.62"/>
		<path class="st16" d="M183.169,96.821c2.427-0.543,5.45-0.865,8.728-0.865c8.007,0,14.5,1.925,14.5,4.304
			c0,0.088-0.008,0.176-0.027,0.262c-0.163,0.804-1.068,1.547-2.514,2.172c-2.612,1.129-6.994,1.87-11.959,1.87
			c-5.252,0-9.851-0.829-12.395-2.071c-1.134-0.551-1.861-1.187-2.053-1.867c-0.036-0.121-0.053-0.242-0.053-0.366
			C177.396,98.856,179.662,97.608,183.169,96.821z"/>
		<path class="st16" d="M179.585,102.32c5.932-4.136,19.68-3.415,24.266,0.36"/>
		<path class="st16" d="M206.397,103.848c14.305,0,14.82,20.462,0,20.462"/>
		<path class="st16" d="M206.472,108.003c8.373,0,8.83,12.152,0.03,12.152"/>
		<path class="st16" d="M89.099,139.245l4.412,5.028l5.257,5.992l5.258,5.995l4.847,5.524"/>
		<path class="st16" d="M99.247,139.245l4.41,5.028l5.257,5.992l5.26,5.995l4.844,5.524"/>
		<path class="st16" d="M109.393,139.245l4.412,5.028l5.257,5.992l5.15,5.871"/>
		<path class="st16" d="M119.539,139.245l4.41,5.028l5.257,5.992l5.191,5.918"/>
		<path class="st16" d="M129.685,139.245l4.39,5.028l5.23,5.992l5.136,5.882"/>
		<path class="st16" d="M139.83,139.245l4.412,5.028l5.258,5.992l5.257,5.995l4.847,5.524"/>
		<path class="st16" d="M149.976,139.245l4.412,5.028l5.257,5.992l5.258,5.995l4.847,5.524"/>
		<path class="st16" d="M83.318,144.273h10.193h10.146h10.148h10.143h10.127h10.168h10.145h10.3h0.044"/>
		<path class="st16" d="M88.589,150.266h10.179h10.145h10.149h10.143h10.099h10.195h10.146h10.168"/>
		<path class="st16" d="M93.742,156.26h10.284h10.148h10.039h10.184h10.044h10.316h10.146h10"/>
		<path class="st16" d="M77.932,160.726c0,0-0.339-1.228,0.3-1.9c0.242-0.253,0.622-0.43,1.214-0.43
			c2.158,0,4.385,0.009,5.343,0.009c0.303,0,1.39-0.064,2.042,0.65c1.888,2.068,3.567,4.147,3.977,4.885
			c0.6,1.079,0.055,2.877-1.263,2.877c-0.845,0-2.519,0.063-3.928,0.105c-0.793,0.027-1.503,0.047-1.932,0.047
			c-1.197,0-1.665,0.088-2.744-1.259"/>
		<path class="st16" d="M65.041,144.739l2.967,0.086"/>
		<path class="st16" d="M18.075,160.123c-0.017-0.024-1.396-2.238-4.644-6.914c-1.668-2.401-1.371-4.141-0.828-5.18
			c0.776-1.486,2.425-2.307,4.643-2.307c2.219,0,7.748-0.047,13.174-0.091c5.411-0.047,10.523-0.088,12.48-0.088
			c4.5,0,6.314,1.278,8.458,3.968c0.977,1.223,2.119,2.698,3.333,4.263c1.5,1.935,3.05,3.937,4.476,5.708
			c0.908,1.132,1.839,1.346,3.24,1.346l15.524-0.06h0.878c1.335-0.003,2.733,0.358,3.22,2.214c0.289,1.104-0.006,2.459-1.101,2.66
			c-0.091,0.019-0.19,0.027-0.292,0.027h-18.23c-1.921,0-4.737-0.327-7.008-3.153c-1.453-1.806-3.019-3.824-4.531-5.777
			c-1.203-1.547-2.337-3.012-3.292-4.21c-1.247-1.561-1.712-2.145-4.677-2.145c-1.935,0-7.275,0.044-12.439,0.085
			c-4.283,0.036-8.679,0.075-11.406,0.088c-0.663,0.003-1.052,0.752-0.674,1.3c2.686,3.888,4.214,6.204,4.277,6.3"/>
		<path class="st16" d="M18.075,160.123c-1.208,0.967-2.122,2.102-2.678,3.415c-0.762,1.784-0.873,3.902-0.198,6.386
			c1.167,4.315,9.067,12.124,12.392,15.18c1.274,1.173,2.896,2.008,4.71,2.567c2.918,0.903,6.331,1.101,9.593,0.864
			c6.201-0.448,7.19-3.235,6.559-7.283c-0.515-3.315-2.554-8.779-5.392-13.339c-0.622-1.002-1.283-1.96-1.976-2.844
			c-3.895-4.965-7.371-6.642-14.83-6.653c-0.87-0.003-1.646,0.02-2.345,0.058c-0.432,0.025-0.831,0.055-1.206,0.094
			C20.321,158.818,19.028,159.361,18.075,160.123z"/>
		<path class="st16" d="M15.499,163.582c3.653-1.182,6.936,0.966,9.623,4.543c4.016,5.342,6.7,13.87,7.272,19.243"/>
		<path class="st16" d="M25.204,168.064h9.348h8.269"/>
		<path class="st16" d="M23.288,158.428c0.206,0.005,0.413,0.022,0.619,0.047c4.498,0.572,9.27,5.989,10.644,9.544"/>
		<path class="st16" d="M9.259,125.199l14.544-31.267l11.376,0.091l7.644,16.439l1.382,2.968l0.3,0.644l5.169,11.117L9.259,125.199z
			"/>
		<path class="st16" d="M9.259,125.199l-5.219-8.098l1.561-3.257L18.072,87.83l5.731,6.102"/>
		<path class="st16" d="M30.841,89.389l4.338,4.634"/>
		<path class="st16" d="M18.072,87.83l3.482-0.044"/>
		<path class="st16" d="M5.411,113.753c-2.543-0.529-5.934,1.696-4.027,4.981c2.263,3.899,3.664,6.176,4.522,7.547
			c1.079,1.724,2.4,2.655,4.412,2.655h38.943c2.648,0,5.092-1.512,3.314-4.089c-2.75-3.985-6.697-8.867-8.068-10.775"/>
		<path class="st16" d="M31.68,109.928v-5.006l-4.024,0.036v4.97v4.992h4.024V109.928z"/>
		<path class="st16" d="M27.761,109.928h3.92"/>
		<path class="st16" d="M33.046,14.195H10.687c-6.991,0-8.624,4.133-8.624,9.539v25.201c0,6.361,3.906,8.966,8.101,8.966h7.831
			c2.136,0,3.468,0.534,3.677,2.982c0.019,0.226,0.03,0.468,0.03,0.727v28.483c0,0,1.558,2.17,4.671,2.007
			c4.013-0.209,4.335-2.087,4.335-2.087V56.673c0-5.298-1.907-8.109-8.582-8.109h-7.096c-1.828,0-2.808-0.713-3.212-1.663
			c-0.16-0.372-0.231-0.782-0.231-1.201V28.153c0-0.396,0.016-0.755,0.047-1.082c0.273-2.913,1.726-3.263,3.779-3.302
			c0.217-0.006,0.446-0.006,0.677-0.006h16.862"/>
		<path class="st16" d="M33.145,25.111v-8.054c0-1.033-0.063-1.98-0.063-2.861c0.003-1.649,0.237-3.068,1.547-4.378
			c1.855-1.856,5.436-4.381,7.344-5.549c1.905-1.165,3.6-1.377,6.779-1.377h41.527c3.072,0,6.006,1.341,6.323,4.626
			c0.319,3.285,0.369,10.549,0.369,10.549"/>
		<path class="st16" d="M36.928,28.834c-0.867-0.008-1.346-0.014-1.346-0.014c-3.072,0-3.708-2.12-2.541-3.39
			c0.069-0.077,0.14-0.151,0.206-0.226c1.66-1.798,2.978-3.026,4.605-4.755c1.696-1.804,3.554-2.387,6.201-2.387h52.02
			c0.33,0,0.628,0.016,0.892,0.052c2.885,0.358,2.1,2.528,1.225,3.5c-0.253,0.281-0.812,0.845-1.492,1.52
			c-1.503,1.495-3.592,3.525-4.228,4.202c-1.588,1.696-3.284,1.804-7.734,1.908C82.548,29.296,44.599,28.911,36.928,28.834z"/>
		<path class="st16" d="M36.936,28.815h-0.008c-1.029,0-1.508-1.112,0.234-2.855c1.742-1.743,2.172-2.109,2.967-2.905
			c1.8-1.801,3.044-1.716,5.056-1.716h50.677c1.905,0,1.751,0.807,0.804,1.76"/>
		<path class="st16" d="M58.688,21.69c0,7.553,17.974,6.835,17.974,0"/>
		<path class="st16" d="M21.81,82.628c2.106,1.801,6.419,1.98,8.742,0.361"/>
		<path class="st16" d="M21.81,72.019c2.106,1.801,6.419,1.98,8.742,0.361"/>
		<path class="st16" d="M21.81,60.872c2.106,1.798,6.419,1.977,8.742,0.358"/>
		<path class="st16" d="M16.398,57.874c1.797-2.208,1.979-6.735,0.361-9.17"/>
		<path class="st16" d="M15.771,14.356c-1.797,2.208-1.976,6.735-0.36,9.172"/>
		<path class="st16" d="M29.314,14.356c-1.797,2.208-1.979,6.735-0.36,9.172"/>
		<path class="st16" d="M2.135,46.605c2.296,1.798,6.997,1.977,9.526,0.358"/>
		<path class="st16" d="M2.135,36.954c2.296,1.798,6.807,1.977,9.337,0.361"/>
		<path class="st16" d="M2.135,26.705c2.296,1.798,6.87,1.977,9.4,0.358"/>
		<path class="st16" d="M43.06,110.352h18.813"/>
		<path class="st16" d="M44.378,113.351h17.495"/>
		<path class="st4" d="M130.8,84.338c0,3.5-2.854,6.338-6.375,6.338c-3.52,0-6.375-2.838-6.375-6.338c0-3.5,2.855-6.338,6.375-6.338
			C127.946,78,130.8,80.838,130.8,84.338z"/>
		<path class="st13" d="M123.15,110.957c0,2.535-1.373,5.043-5.1,5.043c-2.978,0-7.023,0-11.478,0s-8.5,0-11.478,0
			c-3.804,0-5.095-2.538-5.094-5.043c0-7.636,7.65-12.703,16.572-12.703S123.15,103.352,123.15,110.957z"/>
		<path class="st4" d="M135.9,110.957c3.689,0,5.1-2.593,5.1-5.07c0-7.633-7.748-12.676-17.108-12.676
			c-2.59,0-5.508,0.723-7.004,1.759c-1.497,1.036-1.264,2.18,0,2.798c6.458,3.163,8.833,7.873,8.833,10.694
			c0,1.609,1.097,2.495,2.51,2.495H135.9z"/>
		<path class="st13" d="M112.95,89.408c0,3.5-2.854,6.338-6.375,6.338c-3.52,0-6.375-2.838-6.375-6.338
			c0-3.5,2.855-6.338,6.375-6.338C110.096,83.07,112.95,85.908,112.95,89.408z"/>
		<path class="st18" d="M130.8,84.338c0,3.5-2.854,6.338-6.375,6.338c-3.52,0-6.375-2.838-6.375-6.338
			c0-3.5,2.855-6.338,6.375-6.338C127.946,78,130.8,80.838,130.8,84.338z"/>
		<path class="st18" d="M123.15,110.957c0,2.535-1.373,5.043-5.1,5.043c-2.978,0-7.023,0-11.478,0s-8.5,0-11.478,0
			c-3.804,0-5.095-2.538-5.094-5.043c0-7.636,7.65-12.703,16.572-12.703S123.15,103.352,123.15,110.957z"/>
		<path class="st18" d="M135.9,110.957c3.689,0,5.1-2.593,5.1-5.07c0-7.633-7.748-12.676-17.108-12.676
			c-2.59,0-5.508,0.723-7.004,1.759c-1.497,1.036-1.264,2.18,0,2.798c6.458,3.163,8.833,7.873,8.833,10.694
			c0,1.609,1.097,2.495,2.51,2.495H135.9z"/>
		<path class="st18" d="M112.95,89.408c0,3.5-2.854,6.338-6.375,6.338c-3.52,0-6.375-2.838-6.375-6.338
			c0-3.5,2.855-6.338,6.375-6.338C110.096,83.07,112.95,85.908,112.95,89.408z"/>
	</g>
</g>
</svg>
