<svg xmlns="http://www.w3.org/2000/svg" viewBox="0 0 190 166"><defs><clipPath id="a"><path fill="none" d="M2 2h185.87v162H2z"/></clipPath></defs><g clip-path="url(#a)"><path fill="#03d47c" d="M171.85 31.59c.07-.15 2.25-5.08 2.25-9.91 0-5.83-.51-15.03-.51-15.03v-.11c3.08-.11 6.23 2.07 6.23 7.26 0 11.76 1.02 18.91-11.24 28.31-9.35 7.17-8.69 17.48-8.79 21.57v.2h-4.39v-.41c.21-3.78.1-10.01 2.35-14.72 3.88-8.14 12.45-9.25 14.05-17.19h.06Z"/><path fill="#fffaf0" d="M178.07 104.45c7.5 0 7.11-10.36-.03-10.36h-.06v-3.54c12.2 0 12.64 17.45 0 17.45v-3.54h.09Z"/><path fill="#fffaf0" d="M177.98 109.56V87.72h-.02c-.14.68-.91 1.31-2.14 1.85-2.23.96-5.96 1.59-10.2 1.59-4.48 0-8.4-.71-10.57-1.77-.97-.47-1.59-1.01-1.75-1.59h-.04l.06 11.58c.02 4.66.04 9.12.04 9.88 0 1.23 4.05 5.21 12.12 5.02 9.03-.2 12.5-3.31 12.5-4.73Z"/><path fill="#fffaf0" d="M177.98 87.48c0 .08 0 .15-.02.22-.14.69-.91 1.32-2.14 1.85-3.91-3.23-15.63-3.85-20.69-.32l-.07.15c-.97-.47-1.59-1.01-1.75-1.59a1.1 1.1 0 0 1-.04-.31c0-1.2 1.93-2.26 4.92-2.93 2.07-.46 4.65-.74 7.44-.74 6.83 0 12.36 1.64 12.36 3.67Z"/><path fill="#780505" d="M175.81 89.55c-2.23.97-5.96 1.61-10.2 1.61-4.48 0-8.4-.71-10.57-1.77l.07-.15c5.06-3.53 16.78-2.91 20.69.31Z"/><path fill="#03d47c" d="M173.59 6.65s.51 9.2.51 15.03c0 4.83-2.18 9.76-2.25 9.91h-.06c.17-.85.26-1.76.26-2.76 0-4.56-2.01-6.96-4.35-7.67l.06-.2c-.1-2.15 0-5.32 0-8.49 0-1.52.5-2.78 1.29-3.75 1.11-1.36 2.81-2.13 4.53-2.19v.11Z"/><path fill="#03d47c" d="M172.06 28.83c0 1-.09 1.91-.26 2.74-1.6 7.94-10.16 9.05-14.05 17.19-2.25 4.71-2.15 10.94-2.35 14.72v.41h-6.64v-.41s-1.37-13.37 5.62-20.24c5.92-5.83 10.43-8.21 11.19-11.76 1.07-5.01.35-10.32.35-10.32v-.23c.59-.03 1.2.04 1.78.22 2.34.7 4.35 3.1 4.35 7.67Z"/><path fill="#03d47c" d="m168.99 8.49.07.24c-.8.97-1.29 2.23-1.29 3.75 0 3.17-.1 6.34 0 8.48l-.06.2c-.58-.18-1.18-.25-1.79-.22-.84.04-1.67.26-2.42.67l-.13-.24-.82-17.89v-.04c3.21-.3 6.39 1.73 6.44 5.05"/><path fill="#4ba6a6" d="M167.85 149.45v4.7c0 3.37-4.5 3.78-5.93 3.78H95.93c-8.28 0-11.55-2.45-13.9-5.42-.8-1.01-3.69-4.26-7.03-8.06v-.13c1.2-.04 2.62-.09 3.34-.09 1.12 0 1.59-1.53 1.08-2.45-.35-.63-1.78-2.4-3.39-4.16-.56-.61-1.48-.55-1.74-.55h-4.56c-.5 0-.83.15-1.04.37l-.06-.08c-5.16-5.83-8.69-9.94-8.69-9.94l.04-1.91.09-4.06c.03-.3.05-.6.05-.92 0-.18 0-.35-.02-.52l.06-2.53s22.38 25.65 24.52 28.11c2.15 2.45 5.52 5.41 12.36 5.41h66.29c1.94 0 5.31-1.68 3.68-4.95.52.93.82 1.97.82 3.43Z"/><path fill="#50eef6" d="m142.42 125.01-1.88-2.17a6.28 6.28 0 0 0-4.73-2.16H73.3c-1.67 0-2.53 2-1.38 3.21l1.04 1.19 4.48 5.12 4.44 5.07 2.51 2.87a6.23 6.23 0 0 0 4.52 1.95h62.12c1.76 0 2.7-2.07 1.55-3.4l-1.35-1.55-4.4-5.07-4.41-5.08Zm24.61 21.01c1.63 3.27-1.74 4.95-3.68 4.95h-21v-.05s-2.99-3.62-5.24-6.02c-1.04-1.11-1.84-2.04-5.77-2.04-1.59 0-11.93-.05-16.4-.05-2.61 0-3.51 1.42-1.58 3.53 2.09 2.3 1.68 2.12 3.98 4.56v.09H97.06c-6.85 0-10.22-2.96-12.36-5.41-2.15-2.45-24.52-28.11-24.52-28.11l81.96-.2s21.47 24.25 22.91 26.06c.8 1 1.49 1.81 1.99 2.71Z"/><path fill="#03d47c" d="M165.93 21.17s.71 5.32-.35 10.32c-.76 3.55-5.27 5.93-11.19 11.76-6.99 6.87-5.62 20.24-5.62 20.24v.41h-5.31v-.2c-1.12-19.83 8.61-24.36 13.39-27.9 3.17-2.35 3.77-5.42 3.68-8.79-.07-2.56 1.23-4.45 2.99-5.38.75-.4 1.58-.63 2.42-.67v.23Z"/><path fill="#03d47c" d="m163.37 21.37.13.24c-1.76.94-3.06 2.82-2.99 5.38.09 3.37-.51 6.44-3.68 8.79-4.78 3.55-14.51 8.07-13.39 27.9v.2h-1.31v-2.4q0-.765-.18-1.47h.07c0-2.26-1.91-4.27-4.22-6.94l.03-.03c0-14.92 7.36-16.56 12.67-20.95 5.31-4.4 5.72-7.26 5.72-15.74 0-1.12-.14-2.1-.39-2.94l.08-.03c-.21-6.73 3.23-9.65 6.64-9.96v.04l.82 17.89Z"/><path fill="#b0d9ff" d="M161.02 63.89s1.07.2 1.07 1.05-3.99 19.32-3.99 19.32l.07.29c-2.99.67-4.92 1.74-4.92 2.93 0 .11.01.21.04.31h-.04l.06 11.58h-.05c-2.29.49-6.67 1.06-11.04-.43h-.09V63.88h18.89Z"/><path fill="#03d47c" d="M155.83 13.42c.25.84.39 1.82.39 2.94 0 8.48-.41 11.34-5.72 15.74s-12.67 6.03-12.67 20.95l-.03.03c-.14-.16-.28-.32-.42-.49-1.12-1.31-2.78-1.6-4.26-1.67v-.12c0-7.36 1.64-13.7 8.18-18.3s8.48-7.87 9.09-11.34c.78-4.42 0-11.76 0-11.76v-.18c2.27-.1 4.55 1.18 5.44 4.19Z"/><path fill="#99f6ff" d="M152.57 136.71c1.15 1.33.21 3.4-1.55 3.4h-4.29v-.16l-4.13-4.71h8.53l.09-.08 1.35 1.56Z"/><path fill="#99f6ff" d="m146.83 130.09 4.4 5.06-.09.08h-8.53l-4.48-5.11h8.67l.04-.03Z"/><path fill="#03d47c" d="M150.4 9.41s.78 7.33 0 11.76c-.61 3.47-2.55 6.75-9.09 11.34-6.54 4.6-8.17 10.94-8.17 18.3v.12c-.33-.01-.64-.02-.93-.02h-3.87v-.2c-.31-21.87 15.63-21.98 16.04-28.93.07-1.12.2-4.29.2-6.03 0-3.98 2.91-6.38 5.82-6.51v.18Z"/><path fill="#99f6ff" d="m146.83 130.09-.04.03h-8.67l-4.48-5.11h8.78zm-.09 9.85v.16h-8.65v-.16l-4.13-4.71h8.65z"/><path fill="#99f6ff" d="m138.12 130.12 4.48 5.11h-8.65l-4.48-5.11zm2.42-7.28 1.88 2.17h-8.78l-3.76-4.29v-.04h5.93c1.82 0 3.54.79 4.73 2.16m1.81 28.08v.05h-25.01v-.09c-2.3-2.44-1.89-2.26-3.98-4.55-1.92-2.11-1.02-3.53 1.58-3.53 4.47 0 14.81.05 16.4.05 3.93 0 4.74.93 5.77 2.04 2.25 2.4 5.24 6.02 5.24 6.02Z"/><path fill="#50eef6" d="M65.11 75.32v32.04c0 2.86 2.31 5.17 5.17 5.17h61.4c2.85 0 5.16-2.31 5.16-5.17V65.42c0-2.85-2.31-5.17-5.16-5.17h-61.4a5.17 5.17 0 0 0-5.17 5.17zm77.02 23.63v18.3H59.82V61.48c0-3.29 2.67-5.96 5.95-5.96h70.4c2.78 0 5.12 1.91 5.77 4.49.12.47.18.96.18 1.46v37.46Z"/><path fill="#4ba6a6" d="M142.02 60.01h-.07a5.96 5.96 0 0 0-5.77-4.48h-70.4c-3.29 0-5.95 2.67-5.95 5.96v55.77h-.02s-1.98-2.25-3.21-3.48c-1.89-1.89-1.79-2.86-1.79-5.41V58.58c0-3.68 2.71-7.67 8.43-7.67h68.95c.29 0 .61 0 .93.02 1.47.06 3.13.35 4.26 1.67.14.16.28.33.42.49 2.31 2.67 4.22 4.68 4.22 6.93Z"/><path fill="#99f6ff" d="M138.12 130.12h-8.65l-4.48-5.11h8.65zm-.03 9.82v.16h-34.61v-.16l-4.13-4.71h34.6l4.13 4.71Z"/><path fill="#99f6ff" d="m129.47 130.12 4.48 5.11h-8.8v-.1l-4.38-5.01h8.69Zm4.17-5.11h-8.65l-3.76-4.29v-.04h8.65v.04zm-4.17 5.11h-8.69l-4.46-5.11h8.67z"/><path fill="#99f6ff" d="M125.16 135.14v.1h-8.56v-.06l-4.43-5.05h8.61zm-.17-10.13h-8.67l-3.74-4.29v-.04h8.65v.04zm-8.67 0 4.46 5.11h-8.61l-4.48-5.11z"/><path fill="#99f6ff" d="M116.59 135.17v.06h-8.68v-.1l-4.39-5.01h8.65l4.43 5.05Zm-.27-10.16h-8.63l-3.76-4.29v-.04h8.65v.04zm-8.64 0 4.48 5.11h-8.65l-4.48-5.11z"/><path fill="#99f6ff" d="M107.91 135.13v.1h-8.56l-4.48-5.11h8.65zm-3.99-14.4 3.76 4.29h-8.65l-3.76-4.29v-.04h8.65z"/><path fill="#99f6ff" d="M103.52 130.12h-8.65l-4.48-5.11h8.65zm-.04 9.82v.16h-8.65v-.16l-4.13-4.71h8.65z"/><path fill="#99f6ff" d="M99.35 135.23H90.7l-4.48-5.11h8.65zm-.32-10.22h-8.65l-3.76-4.29v-.04h8.65v.04z"/><path fill="#99f6ff" d="m90.38 125.01 4.48 5.11h-8.65l-4.48-5.11zm4.45 14.93v.16H88.9c-1.71 0-3.35-.7-4.52-1.95l-2.51-2.87.06-.05h8.77z"/><path fill="#99f6ff" d="m86.21 130.12 4.48 5.11h-8.77l-.06.05-4.44-5.07.1-.09h8.68Zm.41-9.39 3.76 4.29h-8.65l-3.76-4.29v-.04h8.65z"/><path fill="#99f6ff" d="M86.21 130.12h-8.68l-.1.09-4.48-5.12.08-.07h8.69l4.48 5.11Z"/><path fill="#d18000" d="M84.68 17.44c2.46.31 1.79 2.16 1.04 2.98-.22.24-.69.72-1.27 1.3l-.03-.03c.81-.81.94-1.5-.69-1.5H40.52c-1.72 0-2.78-.07-4.31 1.46-.68.68-1.04.99-2.53 2.48s-1.08 2.43-.2 2.43v.02c-.74 0-1.15-.01-1.15-.01-2.62 0-3.16-1.81-2.17-2.89.06-.07.12-.13.18-.19 1.42-1.53 2.54-2.58 3.93-4.05 1.45-1.54 3.03-2.04 5.29-2.04h44.35c.28 0 .54.01.76.04Z"/><path fill="#e4bc07" d="M84.68 17.4v.04c-.23-.03-.48-.04-.76-.04H39.57c-2.26 0-3.84.5-5.29 2.04-1.39 1.47-2.51 2.52-3.93 4.05l-.09-.08v-6.87c0-.88-.05-1.69-.05-2.44 0-1.41.2-2.62 1.32-3.73 1.58-1.58 4.64-3.74 6.26-4.73s3.07-1.17 5.78-1.17h35.41c2.62 0 5.12 1.14 5.39 3.94s.31 8.99.31 8.99"/><path fill="#fff2b2" d="M33.49 26.57c-.88 0-1.29-.95.2-2.43 1.49-1.49 1.85-1.8 2.53-2.48 1.53-1.54 2.6-1.46 4.31-1.46h11.51v.3c0 6.44 15.33 5.83 15.33 0v-.3h16.37c1.62 0 1.49.69.69 1.5l.03.03c-1.28 1.27-3.06 3.01-3.6 3.58-1.35 1.45-2.8 1.54-6.59 1.63-1.87.04-34.22-.28-40.76-.35v-.02Z"/><path fill="#99f6ff" d="M81.73 125.01h-8.69l-.08.07-1.04-1.19c-1.15-1.21-.29-3.21 1.38-3.21h4.67v.04z"/><path fill="#4ba6a6" d="M79.43 141.78c.51.92.05 2.45-1.08 2.45-.72 0-2.15.05-3.35.09-.68.02-1.28.04-1.65.04-1.02 0-1.42.08-2.34-1.07v-.06c.92-.17 1.18-1.33.93-2.27-.42-1.58-1.61-1.89-2.75-1.89h-.75v-.03s-.29-1.05.26-1.62c.21-.22.53-.37 1.03-.37h4.56c.26 0 1.19-.05 1.74.55 1.61 1.76 3.04 3.54 3.39 4.16Z"/><path fill="#28736d" d="M71.94 140.96c.25.94 0 2.1-.94 2.27-.08.02-.16.02-.25.02H55.21c-1.64 0-4.04-.28-5.98-2.69-1.24-1.54-2.57-3.26-3.86-4.93-1.03-1.32-1.99-2.57-2.81-3.59-1.06-1.33-1.46-1.83-3.99-1.83-1.65 0-6.2.04-10.61.07-3.65.03-7.4.06-9.73.07-.57 0-.9.64-.57 1.11 2.29 3.32 3.59 5.29 3.65 5.37l.04.35c-2.03.21-3.13.68-3.95 1.33-.01-.02-1.19-1.91-3.96-5.9-1.42-2.05-1.17-3.53-.71-4.42.66-1.27 2.07-1.97 3.96-1.97s6.61-.04 11.23-.08c4.61-.04 8.97-.07 10.64-.07 3.84 0 5.38 1.09 7.21 3.38.83 1.04 1.81 2.3 2.84 3.63 1.28 1.65 2.6 3.36 3.82 4.87.77.96 1.57 1.15 2.76 1.15l13.24-.05h.75c1.14 0 2.33.3 2.75 1.89Z"/><path fill="#fffaf0" d="M67.37 20.19v.3c0 5.83-15.33 6.44-15.33 0v-.3z"/><path fill="#4ba6a6" d="m60.12 119.98-.03 1.44c-.23 2.27-1.32 3.99-2.63 3.99-1.48 0-2.68-2.19-2.68-4.9s1.2-4.91 2.68-4.91c1.38 0 2.52 1.92 2.66 4.38"/><path fill="#28736d" d="M54.81 96.09v2.56H39.84l-.15.07-1.18-2.53.2-.09H54.8Z"/><path fill="#b0d9ff" d="M46.83 108.45c1.52 2.2-.57 3.49-2.83 3.49H10.8c-1.72 0-2.84-.79-3.76-2.26-.73-1.17-1.93-3.11-3.86-6.44-1.63-2.8 1.26-4.7 3.43-4.25l.16.08-1.33 2.78 4.45 6.9h34.46l-4.41-9.49c1.17 1.62 4.53 5.79 6.88 9.18Z"/><path fill="#5ab0ff" d="m39.95 99.26 4.41 9.48H9.89l12.4-26.65 9.7.08 6.52 14.02 1.18 2.53.26.55Zm-10.94.72v-8.53l-3.43.03v8.49h3.43Z"/><path fill="#4ed7de" d="M43.31 156.54c.54 3.45-.31 5.83-5.59 6.21-2.78.2-5.69.03-8.18-.74l.08-.26c-.49-4.58-2.78-11.85-6.2-16.41l.07-.05h15.02l.2-.13c2.42 3.89 4.16 8.55 4.6 11.37Z"/><path fill="#4ed7de" d="m38.71 145.17-.2.13h-7.05v-.04c-1.17-3.03-5.24-7.65-9.08-8.14.6-.03 1.26-.05 2-.05 6.36 0 9.32 1.44 12.65 5.67.59.75 1.15 1.57 1.69 2.43Z"/><path fill="#8dc8ff" d="m28.3 78.22 3.7 3.95-9.7-.08-4.89-5.2 2.97-.04h.13v1.97s1.33 1.85 3.98 1.71c3.42-.18 3.7-1.78 3.7-1.78v-.53z"/><path fill="#4ed7de" d="M31.46 145.26v.04h-7.97l-.07.05c-2.29-3.05-5.09-4.88-8.2-3.87l-.09-.04c.47-1.12 1.25-2.09 2.28-2.91.81-.65 1.92-1.11 3.95-1.33.32-.03.66-.06 1.03-.08 3.83.49 7.9 5.11 9.08 8.14Z"/><path fill="#ffa75a" d="M30.26 16.54v5.72h-3.57v-.2c-1.38-2.08-1.23-5.94.31-7.82v-.14h3.21c0 .75.05 1.56.05 2.44"/><path fill="#4ed7de" d="m29.62 161.76-.08.26c-1.55-.48-2.93-1.19-4.02-2.19-2.84-2.61-9.57-9.26-10.57-12.94-.58-2.12-.48-3.92.17-5.44l.09.04c3.11-1.01 5.91.82 8.2 3.87 3.42 4.56 5.71 11.83 6.2 16.41Z"/><path fill="#ffa75a" d="M28.18 78.22v.53s-.27 1.6-3.7 1.78c-2.65.14-3.98-1.71-3.98-1.71v-6.36h.09c1.8 1.54 5.47 1.69 7.45.31h.13v5.46Z"/><path fill="#ffa75a" d="M28.18 63.71v9.05h-.13c-1.98 1.38-5.66 1.23-7.45-.31h-.09V63.4h.09c1.8 1.54 5.47 1.69 7.45.31z"/><path fill="#ffa75a" d="M28.19 54.21v9.51h-.13c-1.98 1.38-5.66 1.23-7.45-.31h-.09v-8.87c0-.22 0-.43-.03-.62h.12c1.8 1.52 5.47 1.68 7.45.3h.13Z"/><path fill="#ffa75a" d="M28.18 50.32v3.89h-.13c-1.98 1.38-5.66 1.23-7.45-.31h-.12c-.18-2.08-1.31-2.53-3.14-2.53h-1.36v-.02c1.53-1.88 1.69-5.74.31-7.82v-.12h4.58c5.69 0 7.32 2.4 7.32 6.91ZM27 14.1v.14c-1.53 1.88-1.69 5.74-.31 7.82v.2H15.14v-.21c-1.38-2.08-1.23-5.94.31-7.82v-.14H27Z"/><path fill="#8dc8ff" d="m17.41 76.89 4.89 5.2-12.4 26.66-4.45-6.9 1.33-2.78z"/><path fill="#ffa75a" d="M16.29 43.53c1.38 2.08 1.23 5.94-.31 7.82v.02h-5.32c-3.58 0-6.91-2.22-6.91-7.64v-1.99h.06c1.96 1.53 5.97 1.69 8.12.31l.13-.05c.35.81 1.18 1.42 2.74 1.42h1.47v.12Zm-.84-29.43v.14c-1.53 1.88-1.69 5.74-.31 7.82v.21c-1.75.03-2.99.33-3.22 2.82h-.08c-2.16 1.37-6.06 1.22-8.01-.31h-.06v-2.53c0-4.61 1.39-8.13 7.35-8.13h4.33Z"/><path fill="#ffa75a" d="m12.08 41.99-.13.05c-2.16 1.38-6.17 1.23-8.12-.31h-.06V33.5h.06c1.96 1.53 5.8 1.69 7.96.31h.1v7.15c0 .36.06.71.2 1.02Z"/><path fill="#ffa75a" d="M11.84 25.07h.08c-.03.29-.04.59-.04.93v7.81h-.1c-2.16 1.38-6 1.23-7.96-.31h-.06v-8.74h.06c1.96 1.53 5.86 1.69 8.01.31Z"/><path fill="none" stroke="#002140" stroke-linecap="round" stroke-linejoin="round" d="M142.13 117.25V61.48c0-.51-.06-1-.18-1.46a5.954 5.954 0 0 0-5.77-4.49h-70.4c-3.29 0-5.95 2.67-5.95 5.96v55.77h82.31Z"/><path fill="none" stroke="#002140" stroke-linecap="round" stroke-linejoin="round" d="M142.02 60.01c0-2.25-1.91-4.26-4.22-6.93-.14-.16-.28-.32-.42-.49-1.12-1.31-2.78-1.6-4.26-1.67-.32-.01-.63-.02-.93-.02H63.24c-5.72 0-8.44 3.99-8.44 7.67v49.78c0 2.55-.1 3.52 1.79 5.41 1.23 1.23 3.21 3.48 3.21 3.48"/><path fill="#0164bf" stroke="#002140" stroke-linecap="round" stroke-linejoin="round" d="M136.84 75.33v32.04c0 2.86-2.31 5.17-5.17 5.17h-61.4a5.17 5.17 0 0 1-5.17-5.17V65.43a5.17 5.17 0 0 1 5.17-5.17h61.4a5.17 5.17 0 0 1 5.17 5.17z"/><path fill="none" stroke="#002140" stroke-linecap="round" stroke-linejoin="round" d="M60.12 119.98c.01.17.02.35.02.52 0 .31-.02.62-.05.92-.23 2.27-1.32 3.99-2.63 3.99-1.48 0-2.68-2.19-2.68-4.9s1.2-4.91 2.68-4.91c1.38 0 2.52 1.92 2.66 4.38"/><path fill="none" stroke="#002140" stroke-linecap="round" stroke-linejoin="round" d="M75.01 144.46c3.34 3.8 6.24 7.05 7.03 8.06 2.35 2.96 5.62 5.42 13.9 5.42h65.99c1.43 0 5.93-.41 5.93-3.78v-4.7c0-1.46-.3-2.49-.82-3.43-.49-.9-1.19-1.71-1.99-2.71-1.44-1.81-22.91-26.06-22.91-26.06l-81.96.2-.06 2.53-.03 1.44-.09 4.06-.04 1.91s3.53 4.11 8.69 9.94"/><path fill="none" stroke="#002140" stroke-linecap="round" stroke-linejoin="round" d="M60.17 117.45s22.38 25.65 24.52 28.11c2.15 2.45 5.52 5.41 12.36 5.41h66.29c1.94 0 5.31-1.68 3.68-4.95"/><path fill="none" stroke="#002140" stroke-linecap="round" stroke-linejoin="round" d="m151.22 135.15 1.35 1.56c1.15 1.33.21 3.4-1.55 3.4H88.9c-1.71 0-3.35-.71-4.52-1.95l-2.51-2.87-4.44-5.07-4.48-5.12-1.04-1.19c-1.15-1.21-.29-3.21 1.38-3.21h62.51c1.82 0 3.54.79 4.73 2.16l1.88 2.17 4.41 5.08 4.4 5.06Zm-33.88 15.74c-2.3-2.44-1.89-2.26-3.98-4.55-1.92-2.11-1.02-3.53 1.58-3.53 4.47 0 14.81.05 16.4.05 3.93 0 4.74.93 5.77 2.04 2.25 2.4 5.24 6.02 5.24 6.02m15.76-66.66s3.99-18.48 3.99-19.32-1.07-1.05-1.07-1.05h-18.8m-.01 35.06c4.37 1.48 8.75.92 11.04.43m-24.94-48.67c-.31-21.87 15.63-21.98 16.04-28.93.07-1.12.2-4.29.2-6.03 0-3.98 2.91-6.38 5.82-6.51 2.28-.1 4.55 1.18 5.44 4.19.25.84.39 1.82.39 2.94 0 8.48-.41 11.34-5.72 15.74s-12.67 6.03-12.67 20.95m5.63 10.63c-1.12-19.83 8.61-24.36 13.39-27.9 3.17-2.35 3.77-5.42 3.68-8.79-.07-2.56 1.23-4.45 2.99-5.38.75-.4 1.58-.63 2.42-.67.6-.03 1.2.04 1.79.22 2.34.7 4.35 3.1 4.35 7.67 0 1-.09 1.91-.26 2.74-1.6 7.94-10.17 9.05-14.05 17.19-2.25 4.71-2.15 10.94-2.35 14.72"/><path fill="none" stroke="#002140" stroke-linecap="round" stroke-linejoin="round" d="M167.76 20.96c-.1-2.15 0-5.32 0-8.49 0-1.52.5-2.78 1.29-3.75 1.12-1.36 2.81-2.13 4.53-2.19 3.08-.11 6.24 2.07 6.24 7.26 0 11.76 1.02 18.91-11.24 28.31-9.35 7.17-8.69 17.48-8.79 21.57m-3.88-50.27c-.21-6.73 3.23-9.65 6.64-9.96 3.21-.3 6.39 1.73 6.44 5.05"/><path fill="none" stroke="#002140" stroke-linecap="round" stroke-linejoin="round" d="M148.76 63.48s-1.37-13.37 5.62-20.24c5.92-5.83 10.43-8.21 11.19-11.76 1.07-5.01.35-10.32.35-10.32m-32.8 29.65c0-7.36 1.64-13.7 8.17-18.3 6.54-4.6 8.48-7.87 9.09-11.34.78-4.42 0-11.76 0-11.76m12.17-5.93.82 17.89m10.22-14.72s.51 9.2.51 15.03c0 4.83-2.18 9.76-2.25 9.91q0 0 0 0m-18.6 56.22.06 11.57c.02 4.66.04 9.12.04 9.88 0 1.23 4.05 5.21 12.12 5.02 9.03-.21 12.5-3.32 12.5-4.73V87.71"/><path fill="none" stroke="#002140" stroke-linecap="round" stroke-linejoin="round" d="M158.18 84.55c2.07-.46 4.65-.74 7.44-.74 6.83 0 12.36 1.64 12.36 3.67 0 .08 0 .15-.02.22-.14.69-.91 1.32-2.14 1.85-2.23.96-5.96 1.59-10.2 1.59-4.48 0-8.4-.71-10.57-1.77-.97-.47-1.59-1.01-1.75-1.59a1.1 1.1 0 0 1-.04-.31c0-1.2 1.93-2.26 4.92-2.93Z"/><path fill="none" stroke="#002140" stroke-linecap="round" stroke-linejoin="round" d="M155.12 89.24c5.06-3.53 16.78-2.91 20.69.31m2.17.99c12.2 0 12.64 17.45 0 17.45"/><path fill="none" stroke="#002140" stroke-linecap="round" stroke-linejoin="round" d="M178.04 94.09c7.14 0 7.53 10.36.03 10.36m-100.1 16.28 3.76 4.29 4.48 5.11 4.48 5.11 4.13 4.71m-8.2-19.22 3.76 4.29 4.48 5.11 4.48 5.11 4.13 4.71m-8.2-19.22 3.76 4.29 4.48 5.11 4.39 5.01m-3.98-14.41 3.76 4.29 4.48 5.11 4.43 5.04m-4.02-14.44 3.74 4.29 4.46 5.11 4.38 5.01m-3.93-14.41 3.76 4.29 4.48 5.11 4.48 5.11 4.13 4.71m-8.19-19.22 3.76 4.29 4.48 5.11 4.48 5.11 4.13 4.71m-73.69-14.94h69.42m-64.92 5.11h69.25m-64.86 5.11h69.2m-82.68 3.81s-.29-1.05.26-1.62c.21-.22.53-.37 1.03-.37h4.56c.26 0 1.19-.05 1.74.55 1.61 1.76 3.04 3.54 3.39 4.16.51.92.05 2.45-1.08 2.45-.72 0-2.15.05-3.35.09-.68.02-1.28.04-1.65.04-1.02 0-1.42.08-2.34-1.07m-13.55-17.86 2.53.07"/><path fill="none" stroke="#002140" stroke-linecap="round" stroke-linejoin="round" d="M17.41 138.53s-1.19-1.91-3.96-5.9c-1.42-2.05-1.17-3.53-.71-4.42.66-1.27 2.07-1.97 3.96-1.97s6.61-.04 11.23-.08c4.61-.04 8.97-.07 10.64-.07 3.84 0 5.38 1.09 7.21 3.38.83 1.04 1.81 2.3 2.84 3.63 1.28 1.65 2.6 3.36 3.82 4.87.77.96 1.57 1.15 2.76 1.15l13.24-.05h.75c1.14 0 2.33.3 2.75 1.89.25.94 0 2.1-.94 2.27-.08.02-.16.02-.25.02H55.21c-1.64 0-4.04-.28-5.98-2.69-1.24-1.54-2.57-3.26-3.86-4.93-1.03-1.32-1.99-2.57-2.81-3.59-1.06-1.33-1.46-1.83-3.99-1.83-1.65 0-6.2.04-10.61.07-3.65.03-7.4.06-9.73.07-.57 0-.9.64-.57 1.11 2.29 3.32 3.59 5.29 3.65 5.37"/><path fill="none" stroke="#002140" stroke-linecap="round" stroke-linejoin="round" d="M17.41 138.53c-1.03.82-1.81 1.79-2.28 2.91-.65 1.52-.74 3.33-.17 5.45.99 3.68 7.73 10.34 10.57 12.94 1.09 1 2.47 1.71 4.02 2.19 2.49.77 5.4.94 8.18.74 5.29-.38 6.13-2.76 5.59-6.21-.44-2.83-2.18-7.49-4.6-11.37-.53-.85-1.09-1.67-1.69-2.43-3.32-4.23-6.28-5.66-12.64-5.67-.74 0-1.4.02-2 .05-.37.02-.71.05-1.03.08-2.03.21-3.13.68-3.95 1.33Z"/><path fill="none" stroke="#002140" stroke-linecap="round" stroke-linejoin="round" d="M15.21 141.48c3.11-1.01 5.91.82 8.2 3.87 3.42 4.56 5.71 11.83 6.2 16.41m-6.12-16.46h15.02m-16.65-8.22c.18 0 .35.02.53.04 3.83.49 7.9 5.11 9.08 8.14M9.89 108.75l12.4-26.66 9.7.08 6.52 14.02 1.18 2.53.26.55 4.41 9.48z"/><path fill="none" stroke="#002140" stroke-linecap="round" stroke-linejoin="round" d="m9.9 108.75-4.45-6.9 1.33-2.78 10.63-22.18 4.89 5.2m6-3.88 3.7 3.95m-14.59-5.27 2.97-.04"/><path fill="none" stroke="#002140" stroke-linecap="round" stroke-linejoin="round" d="M6.61 98.99c-2.17-.45-5.06 1.45-3.43 4.25 1.93 3.32 3.12 5.27 3.86 6.44.92 1.47 2.05 2.26 3.76 2.26H44c2.26 0 4.34-1.29 2.83-3.49-2.34-3.4-5.71-7.56-6.88-9.19"/><path fill="none" stroke="#002140" stroke-linecap="round" stroke-linejoin="round" d="M29.01 95.73v-4.27l-3.43.03v8.49h3.43v-4.26Zm-3.34 0h3.34m1.17-81.63H11.11c-5.96 0-7.35 3.52-7.35 8.13v21.49c0 5.42 3.33 7.64 6.91 7.64h6.68c1.82 0 2.96.46 3.14 2.54.02.19.03.4.03.62v24.29s1.33 1.85 3.98 1.71c3.42-.18 3.7-1.78 3.7-1.78V50.31c0-4.52-1.63-6.91-7.32-6.91h-6.05c-1.56 0-2.39-.61-2.74-1.42-.14-.32-.2-.67-.2-1.02V26c0-.34.01-.64.04-.92.23-2.48 1.47-2.78 3.22-2.82h14.96m.15 1.15v-6.87c0-.88-.05-1.69-.05-2.44 0-1.41.2-2.62 1.32-3.73 1.58-1.58 4.64-3.74 6.26-4.73s3.07-1.17 5.78-1.17h35.41c2.62 0 5.12 1.14 5.39 3.94s.31 8.99.31 8.99"/><path fill="none" stroke="#002140" stroke-linecap="round" stroke-linejoin="round" d="M33.49 26.58c-.74 0-1.15-.01-1.15-.01-2.62 0-3.16-1.81-2.17-2.89.06-.07.12-.13.18-.19 1.42-1.53 2.54-2.58 3.93-4.05 1.45-1.54 3.03-2.04 5.29-2.04h44.35c.28 0 .54.01.76.04 2.46.31 1.79 2.16 1.04 2.98-.22.24-.69.72-1.27 1.3-1.28 1.27-3.06 3.01-3.6 3.58-1.35 1.45-2.8 1.54-6.59 1.63-1.87.04-34.22-.28-40.76-.35Z"/><path fill="none" stroke="#002140" stroke-linecap="round" stroke-linejoin="round" d="M33.49 26.57c-.88 0-1.29-.95.2-2.43 1.49-1.49 1.85-1.8 2.53-2.48 1.53-1.54 2.6-1.46 4.31-1.46h43.21c1.62 0 1.49.69.69 1.5"/><path fill="none" stroke="#002140" stroke-linecap="round" stroke-linejoin="round" d="M52.04 20.49c0 6.44 15.33 5.83 15.33 0M20.6 72.45c1.8 1.54 5.47 1.69 7.45.31m-7.45-9.35c1.8 1.54 5.47 1.69 7.45.31M20.6 53.9c1.8 1.53 5.47 1.69 7.45.31m-12.07-2.87c1.53-1.88 1.69-5.74.31-7.82m-.84-29.28c-1.53 1.88-1.68 5.74-.31 7.82M27 14.24c-1.53 1.88-1.69 5.74-.31 7.82M3.82 41.74c1.96 1.53 5.97 1.69 8.12.31m-8.12-8.54c1.96 1.53 5.8 1.69 7.96.31m-7.96-9.05c1.96 1.53 5.86 1.69 8.01.31m26.88 71.01h16.04m-14.91 2.56h14.92"/></g><path fill="#4ba6a6" d="M113.52 73.91c0 2.98-2.43 5.4-5.44 5.4s-5.44-2.42-5.44-5.4 2.43-5.4 5.44-5.4 5.44 2.42 5.44 5.4"/><path fill="#4ed7de" d="M107 96.61c0 2.16-1.17 4.3-4.35 4.3H83.08c-3.24 0-4.34-2.16-4.34-4.3 0-6.51 6.52-10.83 14.13-10.83S107 90.13 107 96.61"/><path fill="#4ba6a6" d="M117.87 96.61c3.15 0 4.35-2.21 4.35-4.32 0-6.51-6.61-10.81-14.59-10.81-2.21 0-4.7.62-5.97 1.5-1.28.88-1.08 1.86 0 2.39 5.51 2.7 7.53 6.71 7.53 9.12 0 1.37.93 2.13 2.14 2.13h6.54Z"/><path fill="#4ed7de" d="M98.3 78.23c0 2.98-2.43 5.4-5.44 5.4s-5.44-2.42-5.44-5.4 2.43-5.4 5.44-5.4 5.44 2.42 5.44 5.4"/><path fill="none" stroke="#002140" d="M113.52 73.91c0 2.98-2.43 5.4-5.44 5.4s-5.44-2.42-5.44-5.4 2.43-5.4 5.44-5.4 5.44 2.42 5.44 5.4ZM107 96.61c0 2.16-1.17 4.3-4.35 4.3H83.08c-3.24 0-4.34-2.16-4.34-4.3 0-6.51 6.52-10.83 14.13-10.83S107 90.13 107 96.61Z"/><path fill="none" stroke="#002140" d="M117.87 96.61c3.15 0 4.35-2.21 4.35-4.32 0-6.51-6.61-10.81-14.59-10.81-2.21 0-4.7.62-5.97 1.5-1.28.88-1.08 1.86 0 2.39 5.51 2.7 7.53 6.71 7.53 9.12 0 1.37.93 2.13 2.14 2.13h6.54ZM98.3 78.23c0 2.98-2.43 5.4-5.44 5.4s-5.44-2.42-5.44-5.4 2.43-5.4 5.44-5.4 5.44 2.42 5.44 5.4Z"/></svg>