<svg xmlns="http://www.w3.org/2000/svg" xmlns:xlink="http://www.w3.org/1999/xlink" xml:space="preserve" id="Layer_1" x="0" y="0" viewBox="0 0 218 190"><style>.st1{fill:#03d47c}.st2{fill:#fffaf0}.st3{fill:#780505}.st4{fill:#4ba6a6}.st5{fill:#50eef6}.st6{fill:#b0d9ff}.st7{fill:#99f6ff}.st8{fill:#d18000}.st9{fill:#e4bc07}.st10{fill:#fff2b2}.st11{fill:#28736d}.st12{fill:#5ab0ff}.st13{fill:#4ed7de}.st14{fill:#8dc8ff}.st15{fill:#ffa75a}.st16{fill:none;stroke-width:1;stroke-linecap:round;stroke-linejoin:round}.st16,.st17,.st18{stroke:#002140}.st17{fill:#0164bf;stroke-width:1;stroke-linecap:round;stroke-linejoin:round}.st18{fill:none}</style><defs><path id="SVGID_1_" d="M0 0h218v190H0z"/></defs><clipPath id="SVGID_00000004514243584048953990000006669435163715640510_"><use xlink:href="#SVGID_1_" style="overflow:visible"/></clipPath><g style="clip-path:url(#SVGID_00000004514243584048953990000006669435163715640510_)"><path d="M199.21 34.701c.08-.179 2.634-5.959 2.634-11.623 0-6.834-.6-17.623-.6-17.623v-.129c3.611-.127 7.311 2.431 7.311 8.52 0 13.787 1.197 22.18-13.182 33.209-10.963 8.407-10.187 20.501-10.308 25.295v.24h-5.153v-.479c.24-4.436.121-11.741 2.758-17.262 4.553-9.547 14.602-10.849 16.474-20.159z" class="st1"/><path d="M206.502 120.155c8.8 0 8.343-12.152-.03-12.152h-.075v-4.155c14.305 0 14.82 20.462 0 20.462v-4.155zm-.105 5.992v-25.62l-.027-.006c-.163.805-1.068 1.548-2.514 2.173-2.612 1.129-6.994 1.87-11.959 1.87-5.252 0-9.851-.829-12.395-2.071-1.134-.551-1.861-1.187-2.053-1.867l-.053.017.069 13.567c.028 5.46.053 10.692.053 11.592 0 1.443 4.753 6.105 14.216 5.89 10.589-.239 14.663-3.888 14.663-5.545" class="st2"/><path d="M206.397 100.26q0 .132-.027.262c-.163.804-1.068 1.547-2.514 2.172l-.005-.014c-4.586-3.775-18.335-4.496-24.266-.36l-.083.173c-1.134-.551-1.861-1.187-2.053-1.867a1.3 1.3 0 0 1-.053-.366c0-1.404 2.266-2.652 5.773-3.439 2.427-.543 5.45-.865 8.728-.865 8.007 0 14.5 1.925 14.5 4.304" class="st2"/><path d="m203.851 102.68.005.014c-2.612 1.129-6.994 1.87-11.959 1.87-5.252 0-9.852-.829-12.395-2.071l.083-.173c5.931-4.136 19.68-3.415 24.266.36" class="st3"/><path d="M201.244 5.456s.6 10.789.6 17.623c0 5.664-2.554 11.444-2.634 11.623l-.066-.014c.196-.978.303-2.046.303-3.219 0-5.353-2.356-8.167-5.103-8.993l.069-.237c-.119-2.517 0-6.234 0-9.952 0-1.779.583-3.263 1.516-4.398 1.308-1.592 3.298-2.495 5.313-2.564v.129h.002z" class="st1"/><path d="M199.447 31.469a16.4 16.4 0 0 1-.302 3.219c-1.872 9.31-11.922 10.612-16.474 20.159-2.637 5.521-2.519 12.826-2.758 17.263v.479h-7.79v-.479s-1.605-15.679 6.592-23.736c6.951-6.834 12.238-9.624 13.127-13.787 1.253-5.874.416-12.108.416-12.108l-.008-.264a6.2 6.2 0 0 1 2.094.262c2.747.825 5.103 3.639 5.103 8.992" class="st1"/><path d="m195.853 7.612.077.278c-.933 1.134-1.517 2.619-1.517 4.398 0 3.717-.118 7.435 0 9.952l-.069.237a6.2 6.2 0 0 0-2.095-.262 6.56 6.56 0 0 0-2.837.782l-.152-.278-.958-20.98-.005-.052c3.768-.348 7.498 2.026 7.556 5.925" class="st1"/><path d="M194.514 172.934v5.512c0 3.957-5.274 4.437-6.95 4.437h-77.395c-9.708 0-13.543-2.878-16.298-6.353-.933-1.179-4.333-4.998-8.249-9.453l-.006-.154c1.409-.042 3.083-.105 3.928-.105 1.319 0 1.864-1.798 1.263-2.878-.41-.738-2.089-2.817-3.977-4.885-.652-.713-1.74-.649-2.042-.649-.958 0-3.185-.009-5.343-.009-.592 0-.972.177-1.214.43l-.066-.094c-6.056-6.842-10.195-11.664-10.195-11.664l.05-2.244.105-4.761a10.5 10.5 0 0 0 .036-1.691l.066-2.963s26.243 30.089 28.761 32.966c2.516 2.878 6.471 6.348 14.5 6.348h77.748c2.276 0 6.232-1.975 4.313-5.811h.003c.604 1.096.962 2.308.962 4.021" class="st4"/><path d="m164.688 144.274-2.208-2.545a7.35 7.35 0 0 0-5.552-2.533h-73.31c-1.96 0-2.967 2.343-1.621 3.767l1.222 1.399 5.252 6.008 5.202 5.951 2.945 3.37a7.3 7.3 0 0 0 5.301 2.283h72.859c2.065 0 3.171-2.426 1.817-3.985l-1.583-1.823-5.155-5.939zm28.86 24.639c1.918 3.836-2.037 5.81-4.313 5.81h-24.633v-.063s-3.504-4.246-6.14-7.063c-1.217-1.3-2.158-2.396-6.772-2.396-1.858 0-13.988-.061-19.232-.061-3.058 0-4.112 1.661-1.857 4.136 2.455 2.696 1.973 2.481 4.668 5.342v.105h-23.782c-8.029 0-11.984-3.469-14.5-6.347-2.519-2.878-28.761-32.966-28.761-32.966l96.126-.237s25.177 28.448 26.87 30.565c.939 1.173 1.751 2.12 2.329 3.175z" class="st5"/><path d="M192.257 22.478s.837 6.234-.415 12.108c-.889 4.164-6.177 6.953-13.127 13.787-8.197 8.057-6.592 23.736-6.592 23.736v.479h-6.232v-.24c-1.316-23.257 10.093-28.566 15.7-32.727 3.713-2.759 4.421-6.355 4.313-10.312-.079-3.007 1.448-5.215 3.507-6.314a6.6 6.6 0 0 1 2.838-.782z" class="st1"/><path d="m189.26 22.718.151.278c-2.059 1.099-3.586 3.307-3.506 6.314.107 3.957-.601 7.553-4.314 10.312-5.607 4.161-17.016 9.47-15.7 32.727v.24h-1.539v-2.82c0-.595-.074-1.17-.214-1.718l.077-.017c0-2.638-2.238-4.992-4.949-8.123l.035-.03c0-17.502 8.63-19.421 14.859-24.576 6.231-5.155 6.713-8.511 6.713-18.46 0-1.313-.165-2.459-.457-3.448l.096-.03c-.247-7.895 3.791-11.317 7.784-11.681l.006.052z" class="st1"/><path d="M186.505 72.589s1.258.24 1.258 1.231-4.674 22.657-4.674 22.657l.08.344c-3.507.788-5.772 2.035-5.772 3.439q-.001.185.052.366l-.052.017.069 13.567h-.064c-2.686.575-7.817 1.239-12.948-.501h-.101v-41.12z" class="st6"/><path d="M180.417 13.397c.291.989.457 2.134.457 3.448 0 9.949-.482 13.306-6.714 18.46-6.229 5.155-14.858 7.074-14.858 24.576l-.036.03q-.244-.282-.492-.573c-1.319-1.539-3.265-1.881-4.991-1.955l.006-.138c0-8.633 1.918-16.065 9.587-21.462 7.671-5.394 9.947-9.23 10.666-13.305.914-5.188 0-13.787 0-13.787l-.006-.207c2.67-.121 5.34 1.388 6.381 4.913" class="st1"/><path d="M176.596 157.99c1.354 1.558.248 3.984-1.817 3.984h-5.028v-.19l-4.848-5.523h10l.11-.094z" class="st7"/><path d="m169.857 150.227 5.156 5.939-.11.094h-10l-5.257-5.995h10.167z" class="st7"/><path d="M174.041 8.691s.914 8.6 0 13.787c-.718 4.075-2.995 7.911-10.666 13.305-7.668 5.397-9.587 12.829-9.587 21.462l-.005.138a24 24 0 0 0-1.09-.019h-4.536v-.24c-.361-25.655 18.334-25.774 18.813-33.927.077-1.319.239-5.034.239-7.074 0-4.673 3.414-7.487 6.827-7.639z" class="st1"/><path d="m169.858 150.227-.044.038h-10.168l-5.257-5.992h10.3zm-.108 11.557v.19h-10.146v-.19l-4.847-5.524h10.146zm-10.104-11.518 5.257 5.994h-10.146l-5.257-5.994z" class="st7"/><path d="m162.48 141.73 2.208 2.544h-10.3l-4.412-5.028v-.05h6.952c2.131 0 4.157.926 5.552 2.534m2.123 32.93v.063H135.27v-.104c-2.695-2.861-2.214-2.647-4.669-5.342-2.254-2.476-1.2-4.136 1.858-4.136 5.244 0 17.374.06 19.232.06 4.613 0 5.555 1.096 6.771 2.396 2.637 2.817 6.141 7.063 6.141 7.063" class="st7"/><path d="M74.02 85.999v37.576a6.06 6.06 0 0 0 6.058 6.061h72.008a6.06 6.06 0 0 0 6.059-6.061V74.384a6.06 6.06 0 0 0-6.059-6.061H80.079a6.06 6.06 0 0 0-6.058 6.061zm90.333 27.71v21.464h-96.54V69.769a6.985 6.985 0 0 1 6.983-6.986h82.573a6.98 6.98 0 0 1 6.983 6.986v43.94z" class="st5"/><path d="m164.215 68.035-.077.017a6.98 6.98 0 0 0-6.769-5.268H74.797a6.985 6.985 0 0 0-6.983 6.986v65.404l-.022.006s-2.32-2.646-3.76-4.087c-2.219-2.216-2.1-3.348-2.1-6.344v-14.396l-.006-43.997c0-4.315 3.185-8.99 9.895-8.99h80.872c.347 0 .713.003 1.09.019 1.726.074 3.672.416 4.99 1.955l.493.573c2.711 3.129 4.949 5.484 4.949 8.122" class="st4"/><path d="M159.645 150.265H149.5l-5.258-5.992h10.146zm-.041 11.519v.19h-40.586v-.19l-4.844-5.524h40.583zM149.5 150.266l5.257 5.994h-10.316v-.113l-5.136-5.881z" class="st7"/><path d="M154.388 144.274h-10.146l-4.412-5.028v-.05h10.146v.05z" class="st7"/><path d="M149.499 150.265h-10.195l-5.23-5.992h10.168zm-5.059 5.882v.113h-10.044v-.077l-5.191-5.917h10.099z" class="st7"/><path d="M144.243 144.274h-10.168l-4.39-5.028v-.05h10.145v.05z" class="st7"/><path d="m134.075 144.273 5.23 5.992h-10.099l-5.258-5.992zm.322 11.91v.077h-10.185v-.124l-5.15-5.87h10.144z" class="st7"/><path d="M134.075 144.274h-10.126l-4.41-5.028v-.05h10.146v.05zm-10.127-.001 5.257 5.992h-10.143l-5.257-5.992zm.265 11.863v.124h-10.039l-5.26-5.994h10.149z" class="st7"/><path d="m119.538 139.246 4.41 5.028h-10.143l-4.412-5.028v-.05h10.145z" class="st7"/><path d="M119.062 150.265h-10.148l-5.258-5.992h10.149zm-.044 11.519v.19h-10.145v-.19l-4.848-5.524h10.149zm-4.845-5.524h-10.148l-5.257-5.994h10.145z" class="st7"/><path d="M113.805 144.274h-10.148l-4.41-5.028v-.05h10.146v.05z" class="st7"/><path d="m103.657 144.273 5.257 5.992H98.768l-5.257-5.992zm5.215 17.511v.19h-6.953a7.3 7.3 0 0 1-5.301-2.283l-2.945-3.371.069-.06h10.283z" class="st7"/><path d="m98.768 150.266 5.257 5.994H93.742l-.069.061-5.202-5.951.118-.104zm.479-11.02 4.41 5.028H93.511l-4.412-5.028v-.05h10.149z" class="st7"/><path d="M98.768 150.265H88.589l-.118.105-5.252-6.008.099-.089H93.51z" class="st7"/><path d="M96.965 18.114c2.885.358 2.1 2.528 1.225 3.5-.253.281-.812.845-1.492 1.52l-.033-.036c.947-.953 1.101-1.76-.804-1.76H45.185c-2.012 0-3.256-.085-5.056 1.715-.796.796-1.219 1.157-2.967 2.905-1.748 1.749-1.264 2.855-.234 2.855v.019l-1.346-.014c-3.072 0-3.708-2.12-2.541-3.39l.206-.226c1.66-1.798 2.978-3.026 4.605-4.755 1.696-1.804 3.554-2.387 6.201-2.387h52.02q.496.001.892.054" class="st8"/><path d="m96.971 18.067-.006.047a7 7 0 0 0-.892-.052h-52.02c-2.648 0-4.506.584-6.201 2.387-1.627 1.729-2.945 2.957-4.605 4.756l-.102-.094v-8.054c0-1.033-.063-1.98-.063-2.861.003-1.649.237-3.068 1.547-4.378 1.855-1.856 5.436-4.381 7.344-5.549 1.905-1.165 3.6-1.377 6.779-1.377h41.527c3.072 0 6.006 1.341 6.323 4.626.319 3.285.369 10.549.369 10.549" class="st9"/><path d="M36.927 28.815c-1.029 0-1.508-1.112.234-2.855s2.172-2.109 2.967-2.905c1.8-1.801 3.044-1.716 5.056-1.716h13.504v.353c0 7.553 17.974 6.834 17.974 0v-.353h19.199c1.905 0 1.751.807.804 1.76l.033.036c-1.503 1.495-3.592 3.525-4.228 4.202-1.588 1.696-3.284 1.804-7.735 1.908-2.188.052-40.137-.333-47.809-.41z" class="st10"/><path d="M93.511 144.274H83.318l-.099.088-1.222-1.399c-1.346-1.423-.339-3.767 1.621-3.767h5.48v.05z" class="st7"/><path d="M90.808 163.94c.6 1.079.055 2.877-1.263 2.877-.845 0-2.519.063-3.928.105-.793.027-1.503.047-1.932.047-1.197 0-1.665.088-2.744-1.259l-.011-.069c1.095-.201 1.39-1.556 1.101-2.66-.487-1.856-1.885-2.216-3.22-2.216h-.878v-.039s-.339-1.228.3-1.9c.242-.253.622-.43 1.214-.43 2.158 0 4.385.009 5.343.009.303 0 1.39-.064 2.042.65 1.887 2.068 3.566 4.147 3.976 4.885" class="st4"/><path d="M82.03 162.982c.289 1.104-.006 2.459-1.101 2.66q-.138.028-.292.027h-18.23c-1.921 0-4.737-.327-7.008-3.153a406 406 0 0 1-4.531-5.777c-1.203-1.547-2.337-3.012-3.292-4.21-1.247-1.561-1.712-2.145-4.677-2.145-1.935 0-7.275.044-12.439.085-4.283.036-8.679.075-11.406.088a.829.829 0 0 0-.674 1.3 381 381 0 0 1 4.277 6.3l.044.411c-2.381.25-3.675.793-4.627 1.555-.017-.024-1.396-2.238-4.644-6.914-1.668-2.401-1.371-4.141-.828-5.18.776-1.486 2.425-2.307 4.643-2.307s7.748-.047 13.174-.091c5.411-.047 10.523-.088 12.48-.088 4.5 0 6.314 1.278 8.458 3.968.977 1.223 2.119 2.698 3.333 4.263 1.5 1.935 3.05 3.937 4.476 5.708.908 1.132 1.839 1.346 3.24 1.346l15.524-.06h.878c1.336-.003 2.734.358 3.222 2.214" class="st11"/><path d="M76.662 21.338v.352c0 6.834-17.974 7.553-17.974 0v-.352z" class="st2"/><path d="m68.16 138.372-.036 1.691c-.275 2.663-1.552 4.676-3.083 4.676-1.731 0-3.138-2.575-3.138-5.752 0-3.178 1.407-5.756 3.138-5.756 1.619 0 2.954 2.253 3.119 5.141" class="st4"/><path d="M61.931 110.352v2.998H44.378l-.173.08-1.382-2.968.237-.11z" class="st11"/><path d="M52.576 124.847c1.778 2.577-.666 4.089-3.314 4.089H10.319c-2.012 0-3.333-.931-4.412-2.655-.859-1.371-2.26-3.648-4.522-7.547-1.907-3.285 1.484-5.51 4.027-4.981l.19.09-1.561 3.258 5.219 8.098 40.415-.008-5.169-11.116h.003c1.37 1.905 5.317 6.787 8.067 10.772" class="st6"/><path d="m44.505 114.074 5.169 11.117-40.415.008 14.544-31.267 11.376.091 7.644 16.439 1.382 2.968zm-12.824.846v-9.999l-4.024.036v9.963z" class="st12"/><path d="M48.451 181.252c.63 4.047-.358 6.834-6.559 7.283-3.262.237-6.675.039-9.592-.865l.094-.303c-.573-5.372-3.256-13.9-7.272-19.242l.083-.06H42.82l.239-.152c2.838 4.56 4.878 10.023 5.392 13.339" class="st13"/><path d="m43.059 167.913-.239.152h-8.269v-.047c-1.374-3.555-6.146-8.971-10.644-9.544a41 41 0 0 1 2.345-.058c7.459.011 10.936 1.688 14.831 6.653a32 32 0 0 1 1.976 2.844" class="st13"/><path d="m30.841 89.389 4.338 4.634-11.376-.091-5.731-6.102 3.482-.044h.149v2.308s1.558 2.17 4.671 2.007c4.013-.209 4.335-2.087 4.335-2.087v-.625z" class="st14"/><path d="M34.551 168.018v.046h-9.348l-.083.061c-2.686-3.577-5.97-5.725-9.623-4.543l-.102-.044c.556-1.314 1.47-2.448 2.678-3.415.952-.763 2.246-1.305 4.627-1.556.374-.038.773-.069 1.206-.093 4.499.572 9.272 5.989 10.645 9.544" class="st13"/><path d="M33.146 17.056v6.708h-4.192v-.237c-1.619-2.437-1.437-6.964.36-9.172v-.16h3.768c0 .881.064 1.829.064 2.861" class="st15"/><path d="m32.394 187.368-.094.302c-1.814-.559-3.435-1.393-4.71-2.566-3.325-3.056-11.225-10.866-12.392-15.181-.674-2.483-.564-4.601.198-6.385l.102.044c3.652-1.182 6.936.966 9.623 4.543 4.017 5.342 6.7 13.87 7.273 19.243" class="st13"/><path d="M30.709 89.388v.625s-.322 1.878-4.335 2.087c-3.113.162-4.671-2.007-4.671-2.007v-7.465h.107c2.106 1.801 6.419 1.98 8.742.361h.157z" class="st15"/><path d="M30.709 72.379v10.61h-.157c-2.323 1.619-6.636 1.44-8.742-.361h-.107v-10.61h.107c2.106 1.801 6.419 1.98 8.742.361z" class="st15"/><path d="M30.709 61.23v11.15h-.157c-2.323 1.619-6.636 1.44-8.742-.361h-.107V61.61q0-.388-.03-.727l.138-.011c2.106 1.798 6.419 1.977 8.742.358z" class="st15"/><path d="M30.709 56.673v4.557h-.157c-2.323 1.619-6.636 1.44-8.742-.358l-.138.011c-.209-2.448-1.541-2.982-3.677-2.982h-1.597v-.028c1.797-2.208 1.979-6.735.361-9.17v-.14h5.367c6.675 0 8.583 2.812 8.583 8.11m-1.395-42.478v.16c-1.797 2.208-1.979 6.735-.361 9.172v.237H16.091c-.231 0-.46 0-.677.006v-.242c-1.618-2.437-1.439-6.964.358-9.172v-.16z" class="st15"/><path d="m18.072 87.83 5.731 6.102-14.544 31.267-5.219-8.098 1.561-3.257z" class="st14"/><path d="M16.759 48.704c1.619 2.434 1.437 6.961-.361 9.17v.028h-6.234c-4.195 0-8.101-2.605-8.101-8.966v-2.33h.072c2.296 1.798 6.997 1.977 9.526.358l.157-.063c.405.95 1.384 1.663 3.212 1.663h1.729zm-.988-34.509v.16c-1.797 2.208-1.976 6.735-.361 9.172v.242c-2.051.039-3.504.388-3.776 3.302l-.099-.008c-2.53 1.619-7.104 1.44-9.4-.358h-.072v-2.971c0-5.405 1.632-9.539 8.624-9.539z" class="st15"/><path d="m11.818 46.9-.157.063c-2.53 1.619-7.231 1.44-9.526-.358h-.072v-9.651h.072c2.296 1.798 6.807 1.977 9.337.361h.116V45.7c-.001.418.071.828.23 1.2" class="st15"/><path d="m11.535 27.063.099.008c-.03.328-.047.686-.047 1.082v9.161h-.116c-2.53 1.616-7.041 1.437-9.337-.361h-.071V26.705h.072c2.296 1.798 6.87 1.977 9.4.358" class="st15"/><path d="M164.353 135.173V69.769a6.983 6.983 0 0 0-6.983-6.986H74.797a6.985 6.985 0 0 0-6.983 6.986v65.404z" class="st16"/><path d="M164.215 68.035c0-2.638-2.238-4.992-4.949-8.123l-.493-.573c-1.318-1.539-3.264-1.881-4.99-1.955a26 26 0 0 0-1.09-.019H71.821c-6.711 0-9.895 4.676-9.895 8.99l.006 43.997v14.396c0 2.996-.118 4.128 2.1 6.344 1.439 1.441 3.76 4.087 3.76 4.087" class="st16"/><path d="M158.146 85.999v37.576a6.06 6.06 0 0 1-6.058 6.06H80.079a6.06 6.06 0 0 1-6.058-6.06V74.384a6.06 6.06 0 0 1 6.058-6.061h72.009a6.06 6.06 0 0 1 6.058 6.061z" class="st17"/><path d="M68.16 138.372q.02.303.019.615 0 .554-.055 1.076c-.275 2.663-1.552 4.676-3.083 4.676-1.731 0-3.138-2.575-3.138-5.752 0-3.178 1.407-5.756 3.138-5.756 1.619 0 2.954 2.253 3.119 5.141" class="st16"/><path d="M85.622 167.076c3.917 4.456 7.316 8.275 8.249 9.453 2.755 3.476 6.59 6.353 16.298 6.353h77.395c1.676 0 6.95-.479 6.95-4.436v-5.513c0-1.713-.358-2.924-.963-4.02-.578-1.055-1.39-2.002-2.329-3.175-1.693-2.117-26.87-30.565-26.87-30.565l-96.126.237-.066 2.963-.036 1.69-.105 4.761-.05 2.244s4.14 4.822 10.195 11.665" class="st16"/><path d="M68.226 135.41s26.243 30.089 28.761 32.966c2.516 2.878 6.471 6.348 14.5 6.348h77.748c2.276 0 6.231-1.975 4.313-5.811" class="st16"/><path d="m175.013 156.167 1.583 1.823c1.354 1.558.247 3.984-1.817 3.984H101.92a7.3 7.3 0 0 1-5.302-2.283l-2.945-3.37-5.202-5.951-5.252-6.008-1.222-1.399c-1.346-1.423-.339-3.767 1.621-3.767h73.311c2.13 0 4.156.926 5.552 2.534l2.207 2.544 5.17 5.953zm-39.743 18.452c-2.695-2.861-2.214-2.647-4.669-5.342-2.254-2.476-1.2-4.136 1.858-4.136 5.244 0 17.374.06 19.232.06 4.613 0 5.555 1.096 6.771 2.396 2.637 2.817 6.141 7.063 6.141 7.063m18.486-78.183s4.673-21.668 4.673-22.657-1.257-1.231-1.257-1.231h-22.051m0 41.119c5.131 1.74 10.262 1.077 12.948.501m-29.245-57.085c-.361-25.655 18.334-25.774 18.813-33.927.077-1.319.239-5.034.239-7.074 0-4.673 3.414-7.487 6.827-7.639 2.67-.121 5.34 1.388 6.38 4.912.292.989.457 2.134.457 3.448 0 9.949-.482 13.306-6.713 18.46-6.229 5.155-14.859 7.074-14.859 24.576m6.59 12.469c-1.316-23.257 10.093-28.566 15.7-32.727 3.713-2.759 4.421-6.355 4.313-10.312-.079-3.007 1.448-5.215 3.507-6.314a6.6 6.6 0 0 1 2.838-.782 6.2 6.2 0 0 1 2.095.262c2.747.826 5.103 3.64 5.103 8.993 0 1.173-.107 2.241-.303 3.219-1.872 9.31-11.921 10.612-16.474 20.159-2.637 5.521-2.518 12.826-2.758 17.263" class="st16"/><path d="M194.413 22.239c-.118-2.517 0-6.234 0-9.952 0-1.779.584-3.263 1.517-4.398 1.307-1.592 3.297-2.495 5.312-2.564 3.614-.127 7.313 2.431 7.313 8.52 0 13.787 1.198 22.18-13.181 33.209-10.964 8.407-10.187 20.501-10.309 25.295m-4.552-58.982c-.248-7.895 3.79-11.317 7.784-11.681 3.768-.347 7.498 2.027 7.556 5.926" class="st16"/><path d="M172.123 72.11s-1.605-15.679 6.592-23.736c6.951-6.834 12.238-9.624 13.127-13.787 1.253-5.874.416-12.108.416-12.108m-38.47 34.766c0-8.633 1.919-16.065 9.587-21.462 7.671-5.394 9.948-9.23 10.666-13.305.914-5.188 0-13.787 0-13.787m14.261-6.953.958 20.98m11.985-17.263s.6 10.789.6 17.623c0 5.664-2.554 11.444-2.634 11.623-.003 0-.003.005-.003.005m-21.812 65.937.069 13.567c.028 5.461.053 10.692.053 11.593 0 1.443 4.753 6.105 14.216 5.89 10.589-.24 14.663-3.888 14.663-5.546v-25.62" class="st16"/><path d="M183.169 96.821c2.427-.543 5.45-.865 8.728-.865 8.007 0 14.5 1.925 14.5 4.304q0 .132-.027.262c-.163.804-1.068 1.547-2.514 2.172-2.612 1.129-6.994 1.87-11.959 1.87-5.252 0-9.851-.829-12.395-2.071-1.134-.551-1.861-1.187-2.053-1.867a1.3 1.3 0 0 1-.053-.366c0-1.404 2.266-2.652 5.773-3.439" class="st16"/><path d="M179.585 102.32c5.932-4.136 19.68-3.415 24.266.36m2.546 1.168c14.305 0 14.82 20.462 0 20.462" class="st16"/><path d="M206.472 108.003c8.373 0 8.83 12.152.03 12.152m-117.403 19.09 4.412 5.028 5.257 5.992 5.258 5.995 4.847 5.524m-9.626-22.539 4.41 5.028 5.257 5.992 5.26 5.995 4.844 5.524m-9.625-22.539 4.412 5.028 5.257 5.992 5.15 5.871m-4.673-16.891 4.41 5.028 5.257 5.992 5.191 5.918m-4.712-16.938 4.39 5.028 5.23 5.992 5.136 5.882m-4.611-16.902 4.412 5.028 5.258 5.992 5.257 5.995 4.847 5.524m-9.628-22.539 4.412 5.028 5.257 5.992 5.258 5.995 4.847 5.524m-86.432-17.511h81.414m-76.143 5.993h81.224m-76.071 5.994h81.161m-96.971 4.466s-.339-1.228.3-1.9c.242-.253.622-.43 1.214-.43 2.158 0 4.385.009 5.343.009.303 0 1.39-.064 2.042.65 1.888 2.068 3.567 4.147 3.977 4.885.6 1.079.055 2.877-1.263 2.877-.845 0-2.519.063-3.928.105-.793.027-1.503.047-1.932.047-1.197 0-1.665.088-2.744-1.259m-15.9-20.971 2.967.086" class="st16"/><path d="M18.075 160.123c-.017-.024-1.396-2.238-4.644-6.914-1.668-2.401-1.371-4.141-.828-5.18.776-1.486 2.425-2.307 4.643-2.307s7.748-.047 13.174-.091c5.411-.047 10.523-.088 12.48-.088 4.5 0 6.314 1.278 8.458 3.968.977 1.223 2.119 2.698 3.333 4.263 1.5 1.935 3.05 3.937 4.476 5.708.908 1.132 1.839 1.346 3.24 1.346l15.524-.06h.878c1.335-.003 2.733.358 3.22 2.214.289 1.104-.006 2.459-1.101 2.66q-.138.028-.292.027h-18.23c-1.921 0-4.737-.327-7.008-3.153a406 406 0 0 1-4.531-5.777c-1.203-1.547-2.337-3.012-3.292-4.21-1.247-1.561-1.712-2.145-4.677-2.145-1.935 0-7.275.044-12.439.085-4.283.036-8.679.075-11.406.088a.829.829 0 0 0-.674 1.3 381 381 0 0 1 4.277 6.3" class="st16"/><path d="M18.075 160.123c-1.208.967-2.122 2.102-2.678 3.415-.762 1.784-.873 3.902-.198 6.386 1.167 4.315 9.067 12.124 12.392 15.18 1.274 1.173 2.896 2.008 4.71 2.567 2.918.903 6.331 1.101 9.593.864 6.201-.448 7.19-3.235 6.559-7.283-.515-3.315-2.554-8.779-5.392-13.339a32 32 0 0 0-1.976-2.844c-3.895-4.965-7.371-6.642-14.83-6.653-.87-.003-1.646.02-2.345.058-.432.025-.831.055-1.206.094-2.383.25-3.676.793-4.629 1.555" class="st16"/><path d="M15.499 163.582c3.653-1.182 6.936.966 9.623 4.543 4.016 5.342 6.7 13.87 7.272 19.243m-7.19-19.304h17.617m-19.533-9.636q.31.008.619.047c4.498.572 9.27 5.989 10.644 9.544m-25.292-42.82 14.544-31.267 11.376.091 7.644 16.439 1.382 2.968.3.644 5.169 11.117zm0 0-5.219-8.098 1.561-3.257L18.072 87.83l5.731 6.102m7.038-4.543 4.338 4.634M18.072 87.83l3.482-.044" class="st16"/><path d="M5.411 113.753c-2.543-.529-5.934 1.696-4.027 4.981 2.263 3.899 3.664 6.176 4.522 7.547 1.079 1.724 2.4 2.655 4.412 2.655h38.943c2.648 0 5.092-1.512 3.314-4.089-2.75-3.985-6.697-8.867-8.068-10.775" class="st16"/><path d="M31.68 109.928v-5.006l-4.024.036v9.962h4.024zm-3.919 0h3.92m1.365-95.733H10.687c-6.991 0-8.624 4.133-8.624 9.539v25.201c0 6.361 3.906 8.966 8.101 8.966h7.831c2.136 0 3.468.534 3.677 2.982q.03.339.03.727v28.483s1.558 2.17 4.671 2.007c4.013-.209 4.335-2.087 4.335-2.087v-33.34c0-5.298-1.907-8.109-8.582-8.109H15.03c-1.828 0-2.808-.713-3.212-1.663a3 3 0 0 1-.231-1.201V28.153q0-.593.047-1.082c.273-2.913 1.726-3.263 3.779-3.302.217-.006.446-.006.677-.006h16.862m.193 1.348v-8.054c0-1.033-.063-1.98-.063-2.861.003-1.649.237-3.068 1.547-4.378 1.855-1.856 5.436-4.381 7.344-5.549 1.905-1.165 3.6-1.377 6.779-1.377h41.527c3.072 0 6.006 1.341 6.323 4.626.319 3.285.369 10.549.369 10.549" class="st16"/><path d="m36.928 28.834-1.346-.014c-3.072 0-3.708-2.12-2.541-3.39l.206-.226c1.66-1.798 2.978-3.026 4.605-4.755 1.696-1.804 3.554-2.387 6.201-2.387h52.02q.495-.001.892.052c2.885.358 2.1 2.528 1.225 3.5-.253.281-.812.845-1.492 1.52-1.503 1.495-3.592 3.525-4.228 4.202-1.588 1.696-3.284 1.804-7.734 1.908-2.188.052-40.137-.333-47.808-.41" class="st16"/><path d="M36.936 28.815h-.008c-1.029 0-1.508-1.112.234-2.855s2.172-2.109 2.967-2.905c1.8-1.801 3.044-1.716 5.056-1.716h50.677c1.905 0 1.751.807.804 1.76" class="st16"/><path d="M58.688 21.69c0 7.553 17.974 6.835 17.974 0M21.81 82.628c2.106 1.801 6.419 1.98 8.742.361m-8.742-10.97c2.106 1.801 6.419 1.98 8.742.361M21.81 60.872c2.106 1.798 6.419 1.977 8.742.358m-14.154-3.356c1.797-2.208 1.979-6.735.361-9.17m-.988-34.348c-1.797 2.208-1.976 6.735-.36 9.172m13.903-9.172c-1.797 2.208-1.979 6.735-.36 9.172M2.135 46.605c2.296 1.798 6.997 1.977 9.526.358M2.135 36.954c2.296 1.798 6.807 1.977 9.337.361m-9.337-10.61c2.296 1.798 6.87 1.977 9.4.358m31.525 83.289h18.813m-17.495 2.999h17.495" class="st16"/><path d="M130.8 84.338c0 3.5-2.854 6.338-6.375 6.338s-6.375-2.838-6.375-6.338S120.905 78 124.425 78s6.375 2.838 6.375 6.338" class="st4"/><path d="M123.15 110.957c0 2.535-1.373 5.043-5.1 5.043H95.094c-3.804 0-5.095-2.538-5.094-5.043 0-7.636 7.65-12.703 16.572-12.703s16.578 5.098 16.578 12.703" class="st13"/><path d="M135.9 110.957c3.689 0 5.1-2.593 5.1-5.07 0-7.633-7.748-12.676-17.108-12.676-2.59 0-5.508.723-7.004 1.759-1.497 1.036-1.264 2.18 0 2.798 6.458 3.163 8.833 7.873 8.833 10.694 0 1.609 1.097 2.495 2.51 2.495z" class="st4"/><path d="M112.95 89.408c0 3.5-2.854 6.338-6.375 6.338s-6.375-2.838-6.375-6.338 2.855-6.338 6.375-6.338 6.375 2.838 6.375 6.338" class="st13"/><path d="M130.8 84.338c0 3.5-2.854 6.338-6.375 6.338s-6.375-2.838-6.375-6.338S120.905 78 124.425 78s6.375 2.838 6.375 6.338zm-7.65 26.619c0 2.535-1.373 5.043-5.1 5.043H95.094c-3.804 0-5.095-2.538-5.094-5.043 0-7.636 7.65-12.703 16.572-12.703s16.578 5.098 16.578 12.703z" class="st18"/><path d="M135.9 110.957c3.689 0 5.1-2.593 5.1-5.07 0-7.633-7.748-12.676-17.108-12.676-2.59 0-5.508.723-7.004 1.759-1.497 1.036-1.264 2.18 0 2.798 6.458 3.163 8.833 7.873 8.833 10.694 0 1.609 1.097 2.495 2.51 2.495zm-22.95-21.549c0 3.5-2.854 6.338-6.375 6.338s-6.375-2.838-6.375-6.338 2.855-6.338 6.375-6.338 6.375 2.838 6.375 6.338z" class="st18"/></g></svg>