<?xml version="1.0" encoding="utf-8"?>
<!-- Generator: Adobe Illustrator 26.5.0, SVG Export Plug-In . SVG Version: 6.00 Build 0)  -->
<svg version="1.1" id="Layer_1" xmlns="http://www.w3.org/2000/svg" xmlns:xlink="http://www.w3.org/1999/xlink" x="0px" y="0px"
	 viewBox="0 0 20 20" style="enable-background:new 0 0 20 20;" xml:space="preserve">
<style type="text/css">
	.st0{fill-rule:evenodd;clip-rule:evenodd;}
</style>
<path class="st0" d="M18,4c0-0.6-0.4-1-1-1H3C2.4,3,2,3.4,2,4v12c0,0.6,0.4,1,1,1h14c0.6,0,1-0.4,1-1V4z M14,6.5
	C14,7.3,13.3,8,12.5,8S11,7.3,11,6.5S11.7,5,12.5,5S14,5.7,14,6.5z M8.4,8.5C8,7.9,7,7.9,6.6,8.5l-2.8,5C3.5,14.2,3.9,15,4.7,15
	h10.5c0.8,0,1.3-0.8,0.9-1.5l-1.8-3c-0.4-0.7-1.3-0.7-1.7,0l-0.7,1.3c-0.4,0.7-1.4,0.7-1.7,0L8.4,8.5z"/>
</svg>
