<svg xmlns="http://www.w3.org/2000/svg" xmlns:xlink="http://www.w3.org/1999/xlink" xml:space="preserve" id="Layer_1" x="0" y="0" viewBox="0 0 335 335"><style>.st1{opacity:.6;fill-rule:evenodd;clip-rule:evenodd;fill:#061b09;enable-background:new}.st2{fill:none;stroke:#e7ece9;stroke-width:2}</style><defs><path id="SVGID_1_" d="M0 0h335v335H0z"/></defs><clipPath id="SVGID_00000023992001998091295250000004505735294696678019_"><use xlink:href="#SVGID_1_" style="overflow:visible"/></clipPath><g style="clip-path:url(#SVGID_00000023992001998091295250000004505735294696678019_)"><path d="M40 0H0v40C0 17.9 17.9 0 40 0m255 0c22.1 0 40 17.9 40 40V0zm40 295c0 22.1-17.9 40-40 40h40zM40 335c-22.1 0-40-17.9-40-40v40z" class="st1"/><path d="M40 1h255c21.5 0 39 17.5 39 39v255c0 21.5-17.5 39-39 39H40c-21.5 0-39-17.5-39-39V40C1 18.5 18.5 1 40 1z" class="st2"/></g></svg>