<?xml version="1.0" encoding="utf-8"?>
<!-- Generator: Adobe Illustrator 28.1.0, SVG Export Plug-In . SVG Version: 6.00 Build 0)  -->
<svg version="1.1" id="Layer_1" xmlns="http://www.w3.org/2000/svg" xmlns:xlink="http://www.w3.org/1999/xlink" x="0px" y="0px"
	 viewBox="0 0 140 19.2" style="enable-background:new 0 0 140 19.2;" xml:space="preserve">
<style type="text/css">
	.st0{fill-rule:evenodd;clip-rule:evenodd;}
</style>
<path class="st0" d="M140,19.2V3.5c0-1.5-1.8-2.2-2.8-1.1l-3,3.5c-0.6,0.7-1.8,0.7-2.4,0l-4.6-5.4c-0.6-0.7-1.8-0.7-2.4,0l-4.6,5.4
	c-0.6,0.7-1.8,0.7-2.4,0l-4.6-5.4c-0.6-0.7-1.8-0.7-2.4,0l-4.6,5.4c-0.6,0.7-1.8,0.7-2.4,0l-4.6-5.4c-0.6-0.7-1.8-0.7-2.4,0
	l-4.6,5.4c-0.2,0.2-0.3,0.3-0.6,0.4c-0.4,0.2-0.9,0.2-1.3,0c-0.2-0.1-0.4-0.2-0.6-0.4l-3-3.5l0,0l-1.6-1.9c-0.6-0.7-1.8-0.7-2.4,0
	l-4.6,5.4c-0.6,0.7-1.8,0.7-2.4,0l-4.6-5.4c-0.6-0.7-1.8-0.7-2.4,0l-4.6,5.4c-0.2,0.2-0.3,0.3-0.6,0.4c-0.4,0.2-0.9,0.2-1.3,0
	c-0.2-0.1-0.4-0.2-0.6-0.4l-3-3.5l0,0l-1.6-1.9c-0.6-0.7-1.8-0.7-2.4,0l-4.6,5.4c-0.6,0.7-1.8,0.7-2.4,0l-4.6-5.4
	c-0.6-0.7-1.8-0.7-2.4,0l-4.6,5.4c-0.2,0.2-0.3,0.3-0.6,0.4c-0.4,0.2-0.9,0.2-1.3,0c-0.2-0.1-0.4-0.2-0.6-0.4l-3-3.5l0,0l-1.6-1.9
	c-0.6-0.7-1.8-0.7-2.4,0l-4.6,5.4c-0.6,0.7-1.8,0.7-2.4,0l-4.6-5.4c-0.6-0.7-1.8-0.7-2.4,0L8.2,5.9c-0.6,0.7-1.8,0.7-2.4,0l-3-3.5
	C1.8,1.3,0,2,0,3.5v15.7H140z"/>
</svg>
