<?xml version="1.0" encoding="utf-8"?>
<!-- Generator: Adobe Illustrator 26.5.0, SVG Export Plug-In . SVG Version: 6.00 Build 0)  -->
<svg version="1.1" id="Layer_1" xmlns="http://www.w3.org/2000/svg" xmlns:xlink="http://www.w3.org/1999/xlink" x="0px" y="0px"
	 viewBox="0 0 20 20" style="enable-background:new 0 0 20 20;" xml:space="preserve">
<style type="text/css">
	.st0{fill-rule:evenodd;clip-rule:evenodd;}
</style>
<path d="M11,1.5C11,0.7,11.7,0,12.5,0H20v7.5C20,8.3,19.3,9,18.5,9S17,8.3,17,7.5V5.1l-4.4,4.4c-0.6,0.6-1.5,0.6-2.1,0
	C9.9,9,9.9,8,10.4,7.4L14.9,3h-2.4C11.7,3,11,2.3,11,1.5z"/>
<path class="st0" d="M1,19h14v-8H1V19z M8,17c1.1,0,2-0.9,2-2s-0.9-2-2-2s-2,0.9-2,2S6.9,17,8,17z"/>
</svg>
