<svg xmlns="http://www.w3.org/2000/svg" xmlns:xlink="http://www.w3.org/1999/xlink" id="Layer_1" x="0" y="0" version="1.1" viewBox="0 0 20 20" style="enable-background:new 0 0 20 20" xml:space="preserve"><style type="text/css">.st0{fill-rule:evenodd;clip-rule:evenodd}</style><path d="M6.75,7C6.336,7,6,7.336,6,7.75C6,8.164,6.336,8.5,6.75,8.5h6.5C13.664,8.5,14,8.164,14,7.75C14,7.336,13.664,7,13.25,7	H6.75z"/><path d="M3.825,1.707L4.75,2.5l1.425-1.221c0.187-0.161,0.464-0.161,0.651,0L8.25,2.5l1.425-1.221	c0.187-0.161,0.464-0.161,0.651,0L11.75,2.5l1.425-1.221c0.187-0.161,0.464-0.161,0.651,0L15.25,2.5l0.925-0.793	C16.499,1.429,17,1.66,17,2.087v5.1L17.631,7.7C17.864,7.89,18,8.175,18,8.476V18c0,1.105-0.895,2-2,2H4c-1.105,0-2-0.895-2-2V8.476	C2,8.175,2.136,7.89,2.369,7.7L3,7.188v-5.1C3,1.66,3.501,1.429,3.825,1.707z M5,4.92v4.608L10,12l5-2.472V4.92l-1.5-1.286	l-1.75,1.5L10,3.634l-1.75,1.5l-1.75-1.5L5,4.92z" class="st0"/></svg>