<svg width="253" height="166" viewBox="0 0 253 166" fill="none" xmlns="http://www.w3.org/2000/svg">
<path d="M80.2566 84.1232V97.7699" stroke="#002140" stroke-width="0.999999" stroke-linecap="round" stroke-linejoin="round"/>
<path d="M113.59 84.1232V97.7699" stroke="#002140" stroke-width="0.999999" stroke-linecap="round" stroke-linejoin="round"/>
<path d="M150.256 23.4566V37.1033" stroke="#002140" stroke-width="0.999999" stroke-linecap="round" stroke-linejoin="round"/>
<path d="M150.256 53.7899V67.4366" stroke="#002140" stroke-width="0.999999" stroke-linecap="round" stroke-linejoin="round"/>
<path d="M150.256 84.1232V97.7699" stroke="#002140" stroke-width="0.999999" stroke-linecap="round" stroke-linejoin="round"/>
<path d="M183.59 53.7899V67.4366" stroke="#002140" stroke-width="0.999999" stroke-linecap="round" stroke-linejoin="round"/>
<path d="M183.59 84.1232V97.7699" stroke="#002140" stroke-width="0.999999" stroke-linecap="round" stroke-linejoin="round"/>
<path d="M166.923 37.4965V53.2598" stroke="#002140" stroke-width="0.999999" stroke-linecap="round" stroke-linejoin="round"/>
<path d="M166.923 67.8498V83.8498" stroke="#002140" stroke-width="0.999999" stroke-linecap="round" stroke-linejoin="round"/>
<path d="M166.923 98.4365V114.377V114.437" stroke="#002140" stroke-width="0.999999" stroke-linecap="round" stroke-linejoin="round"/>
<path d="M133.59 37.4965V53.2598" stroke="#002140" stroke-width="0.999999" stroke-linecap="round" stroke-linejoin="round"/>
<path d="M133.59 67.8498V83.8498" stroke="#002140" stroke-width="0.999999" stroke-linecap="round" stroke-linejoin="round"/>
<path d="M133.59 98.4365V114.377V114.437" stroke="#002140" stroke-width="0.999999" stroke-linecap="round" stroke-linejoin="round"/>
<path d="M96.9231 98.4365V114.377V114.437" stroke="#002140" stroke-width="0.999999" stroke-linecap="round" stroke-linejoin="round"/>
<path d="M110.57 104.24C111.543 104.24 112.333 105.03 112.333 106.007C112.333 106.983 111.543 107.77 110.57 107.77C109.597 107.77 108.803 106.98 108.803 106.007C108.803 105.033 109.593 104.24 110.57 104.24Z" fill="#0164BF"/>
<path d="M114.803 99.0265C115.78 99.0265 116.57 99.8165 116.57 100.79C116.57 101.763 115.78 102.553 114.803 102.553C113.826 102.553 113.04 101.763 113.04 100.79C113.04 99.8165 113.83 99.0265 114.803 99.0265Z" fill="#0164BF"/>
<path d="M188.333 87.3767V87.4566C179.393 87.4566 176.333 90.32 171.746 95.9667C169.096 99.2266 162.373 108.163 162.373 108.163L156.02 109.34L158.766 113.887C158.766 113.887 134.293 144.007 133.98 144.477V144.71H122.136V144.477C122.19 144.423 123.256 143.16 125.02 141.053C126.573 139.203 128.663 136.71 131.083 133.82C140.983 121.997 156.373 103.587 162.7 95.9766C163.646 94.8366 164.393 93.9367 164.883 93.34C170.373 86.6733 175.913 87.3767 180.453 87.3767H188.333Z" fill="#0164BF"/>
<path d="M98.4266 121.78L93.05 122.797L93.04 122.75C84.7266 116.163 68.8833 93.8099 68.8833 93.8099L61.6667 104.477L61.4933 104.707C57.76 101.93 54.1667 100.34 51.5967 99.4565L51.7067 99.1432C51.7067 99.1432 60.3333 85.2599 63.1567 80.7899C65.98 76.3199 69.8233 74.1232 73.8233 77.1032C77.5833 79.9065 91.4033 90.4765 93.0366 91.7265C91.46 101.977 93.26 112.773 98.4266 121.78Z" fill="#E96DF2"/>
<path d="M93.0365 91.7265C93.8465 86.4665 95.5465 81.3532 98.1365 76.6966C98.5165 76.0132 98.9131 75.3399 99.3265 74.6799C96.3898 84.2999 96.3998 94.7965 99.3531 104.41L106.136 104.397L104.506 114.71C110.063 124.216 119.85 131.146 130.663 133.23L131.083 133.82C128.663 136.71 126.573 139.203 125.02 141.053L124.803 140.87H58.6865V129.26H58.9232L93.0498 122.797L98.4265 121.78C93.2598 112.773 91.4598 101.977 93.0365 91.7265Z" fill="#E96DF2"/>
<path d="M148.543 43.5865C150.723 43.9399 152.843 46.0432 151.746 49.1832L147.903 47.5365L149.156 51.6932C144.606 52.0065 143.6 49.0732 143.953 46.8932C144.306 44.7132 146.363 43.2332 148.543 43.5865Z" fill="#002140"/>
<path d="M158.623 52.9198C160.803 53.2732 162.923 55.3765 161.823 58.5165L157.98 56.8698L159.237 61.0265C154.687 61.3398 153.68 58.4065 154.033 56.2265C154.387 54.0465 156.44 52.5665 158.623 52.9198Z" fill="#002140"/>
<path d="M108.52 73.8666C108.767 73.5332 109.107 73.2733 109.48 73.0899C110.48 72.5999 111.637 72.6666 112.68 73.0866C113.307 73.3366 113.893 73.7166 114.38 74.1733C115.513 75.2366 116.227 76.6566 116.867 78.0866C116.957 78.2899 117.047 78.4966 117.137 78.6999C117.4 79.2999 117.7 80.0266 118 80.8032C118.417 81.8832 118.837 83.0666 119.157 84.1632L119.203 84.3066C118.973 84.3599 118.75 84.4432 118.53 84.5366C118.367 84.6066 118.207 84.6799 118.047 84.7599L117.98 84.6333C115.947 84.0133 113.163 82.5399 111.457 81.2699C109.75 79.9999 108.387 78.1466 108.11 76.0399C108.02 75.3499 108.057 74.6133 108.417 74.0199C108.447 73.9699 108.48 73.9199 108.517 73.8699C108.517 73.8699 108.517 73.8666 108.52 73.8666Z" fill="#50EEF6"/>
<path d="M117.98 84.6333L118.047 84.76C116.16 85.6866 114.59 87.2533 113.67 89.1466C113.137 90.24 112.823 91.4333 112.74 92.6433L112.57 92.6333C110.373 94.1233 107.313 95.2199 105.667 95.3766C104.02 95.5366 103.673 94.3333 103.627 94.1233C102.233 87.58 102.763 80.21 108.517 73.87C108.48 73.92 108.447 73.97 108.417 74.02C108.057 74.6133 108.02 75.35 108.11 76.04C108.387 78.1466 109.75 80 111.457 81.27C113.163 82.54 115.947 84.0133 117.98 84.6333Z" fill="#50EEF6"/>
<path d="M113.137 95.8199C113.103 95.8165 113.073 95.8165 113.04 95.8132C112.76 94.7832 112.663 93.7098 112.74 92.6432C112.823 91.4332 113.137 90.2399 113.67 89.1465C114.59 87.2532 116.16 85.6865 118.047 84.7599C118.207 84.6799 118.367 84.6065 118.53 84.5365C118.75 84.4432 118.973 84.3599 119.203 84.3065C119.343 84.2732 119.483 84.2532 119.627 84.2499C119.973 84.2432 120.313 84.3332 120.64 84.4465C123.227 85.3299 125.26 87.6665 125.78 90.3498L125.793 90.4399C125.167 90.5499 124.823 91.0865 124.39 91.6832C123.457 92.9632 122.74 94.3932 122.197 95.8832L121.977 95.7999C119.037 96.0032 116.08 96.0132 113.137 95.8199Z" fill="#50EEF6"/>
<path d="M138.463 101.286C138.42 101.59 138.317 101.883 138.147 102.143C137.383 103.31 135.987 103.156 134.87 102.733C131.953 101.633 129.837 99.0565 128.293 96.3432C127.743 95.3765 125.677 91.2432 125.857 90.4365V90.4298C125.987 90.4098 126.127 90.4098 126.287 90.4331C126.547 90.4698 127.027 90.6698 127.603 90.9465C128.24 91.2565 128.99 91.6598 129.693 92.0598C130.627 92.5865 131.477 93.1032 131.863 93.3632C133.097 94.1898 134.26 95.1198 135.34 96.1431C135.89 96.6598 136.417 97.1998 136.917 97.7631C137.707 98.6498 138.463 99.6365 138.49 100.886C138.493 101.02 138.483 101.153 138.463 101.286Z" fill="#50EEF6"/>
<path d="M138.146 102.143C138.316 101.883 138.42 101.59 138.463 101.287C138.433 102.01 138.213 102.757 137.823 103.3C136.396 105.293 134.11 106.65 131.73 107.25C128.406 108.09 124.893 107.793 121.77 106.443C120.903 106.067 120.39 105.163 120.493 104.227C120.74 101.94 121.056 99.6598 121.686 97.4532C121.836 96.9265 122.006 96.3999 122.196 95.8832C122.74 94.3932 123.456 92.9632 124.39 91.6832C124.823 91.0865 125.166 90.5499 125.793 90.4399C125.813 90.4332 125.833 90.4299 125.856 90.4299V90.4365C125.676 91.2432 127.743 95.3765 128.293 96.3432C129.836 99.0565 131.953 101.633 134.87 102.733C135.986 103.157 137.383 103.31 138.146 102.143Z" fill="#50EEF6"/>
<path d="M113.04 95.8132C113.073 95.8166 113.103 95.8166 113.137 95.8199C110.5 98.8633 108.52 101.15 106.137 104.397L99.3532 104.41C96.3999 94.7966 96.3899 84.2999 99.3265 74.6799C101.28 71.5466 103.57 68.6699 106.093 65.9866C108.19 63.76 110.447 61.6633 112.803 59.67V72.7899L112.68 73.0866C111.637 72.6666 110.48 72.5999 109.48 73.0899C109.107 73.2733 108.767 73.5333 108.52 73.8666C108.517 73.8666 108.517 73.8699 108.517 73.8699C102.763 80.2099 102.233 87.5799 103.627 94.1232C103.673 94.3332 104.02 95.5366 105.667 95.3766C107.313 95.2199 110.373 94.1233 112.57 92.6333L112.74 92.6432C112.663 93.7099 112.76 94.7832 113.04 95.8132Z" fill="#FED607"/>
<path d="M162.687 95.9666L162.7 95.9766C156.373 103.587 140.983 121.997 131.083 133.82L130.663 133.23C119.85 131.147 110.063 124.217 104.507 114.71L106.137 104.397C108.52 101.15 110.5 98.8633 113.137 95.82C116.08 96.0133 119.037 96.0033 121.977 95.8L122.197 95.8833C122.007 96.4 121.837 96.9266 121.687 97.4533C121.057 99.6599 120.74 101.94 120.493 104.227C120.39 105.163 120.903 106.067 121.77 106.443C124.893 107.793 128.407 108.09 131.73 107.25C134.11 106.65 136.397 105.293 137.823 103.3C138.213 102.757 138.433 102.01 138.463 101.287C138.483 101.153 138.493 101.02 138.49 100.887C138.463 99.6366 137.707 98.6499 136.917 97.7633C136.417 97.1999 135.89 96.6599 135.34 96.1433L135.51 95.9666H162.687ZM116.57 100.79C116.57 99.8166 115.78 99.0266 114.803 99.0266C113.827 99.0266 113.04 99.8166 113.04 100.79C113.04 101.763 113.83 102.553 114.803 102.553C115.777 102.553 116.57 101.763 116.57 100.79ZM112.333 106.007C112.333 105.03 111.543 104.24 110.57 104.24C109.597 104.24 108.803 105.03 108.803 106.007C108.803 106.983 109.593 107.77 110.57 107.77C111.547 107.77 112.333 106.98 112.333 106.007Z" fill="#FED607"/>
<path d="M59.2367 114.123C60.1301 114.127 61.2201 113.56 62.2301 112.553C60.0067 115.183 57.4134 118.26 55.4167 120.63C55.8767 119.867 55.9767 118.91 55.9334 118.19C55.8834 117.42 55.5468 116.63 54.8834 116.2C54.0734 115.673 53.1567 115.947 52.3034 116.41C51.4501 116.87 50.9168 117.79 50.2934 118.517C50.8501 117.66 51.0501 116.487 51.0768 115.477C51.0934 114.823 50.9701 113.96 50.3834 113.63C49.6934 113.243 48.5834 113.6 47.9401 114.047C47.1968 114.563 46.5201 115.163 45.9301 115.833C46.4501 114.73 47.0768 113.23 46.6068 112.103C46.2634 111.27 45.5534 110.83 44.6234 110.83C43.6901 110.83 42.5034 111.53 41.5101 112.74L41.4268 112.703L46.1834 102.03L46.2168 102.043C45.9634 102.96 45.7801 104.107 45.8368 105.057C45.8934 106.003 46.2934 106.977 47.0768 107.507C48.0401 108.157 49.1268 107.817 50.1368 107.247C51.1501 106.68 51.9101 105.763 52.6467 104.87C51.9901 105.923 51.6201 107.153 51.5868 108.397C51.5668 109.2 51.7167 110.267 52.4134 110.673C53.2267 111.147 54.5434 110.71 55.3067 110.16C56.1834 109.523 56.9867 108.783 57.6867 107.957C57.0701 109.32 56.3268 111.167 56.8834 112.553C57.2934 113.58 58.1334 114.12 59.2367 114.123Z" fill="#FED607"/>
<path d="M55.1566 131.16C53.9166 131.117 52.6667 131.41 51.5733 132C50.8633 132.383 50.0133 133.04 50.0033 133.84C49.9933 134.78 51.02 135.693 51.8767 136.08C52.8633 136.52 53.9 136.84 54.9633 137.033C53.4767 137.18 51.5067 137.46 50.5767 138.627C49.89 139.49 49.8333 140.48 50.3767 141.433C50.92 142.383 52.3633 143.167 54.2367 143.437V143.493C51.6133 143.33 48.0733 143.113 44.2733 142.886C44.9933 142.7 45.8167 142.383 46.4233 141.983C47.0667 141.56 47.5833 140.873 47.6267 140.083C47.6833 139.117 46.9867 138.46 46.1633 137.947C45.3367 137.437 44.2767 137.43 43.3367 137.253C44.3567 137.31 45.4733 136.9 46.3633 136.423C46.9367 136.113 47.6267 135.573 47.62 134.9C47.6133 134.113 46.7533 133.323 46.0433 132.987C45.2267 132.6 44.37 132.313 43.4933 132.133C44.71 132.033 46.3233 131.833 47.07 130.867C47.62 130.153 47.65 129.32 47.1867 128.51C46.7267 127.7 45.5267 127.02 43.9833 126.76L43.9667 126.683L52.23 124.697L54.4233 124.17L54.4333 124.217C53.5167 124.453 52.43 124.867 51.6367 125.387C50.84 125.907 50.1933 126.733 50.12 127.673C50.03 128.823 50.86 129.593 51.8533 130.18C52.8467 130.767 54.0166 130.97 55.1566 131.16Z" fill="#FED607"/>
<path d="M23.94 129.653C23.94 131.22 23 132.24 20.8833 132.163C19.0133 132.093 17.2666 132.636 16.8833 135.136C16.4266 135.093 13.8166 134.873 6.84331 134.593C-0.920018 134.28 -0.373351 128.946 4.48998 128.083C9.06997 127.27 16.1533 125.973 16.9633 125.826C17.6 127.54 18.6833 127.62 20.2566 127.536C23.2366 127.376 23.94 128.083 23.94 129.653Z" fill="#0185FF"/>
<path d="M55.9333 118.19C55.9766 118.91 55.8766 119.867 55.4166 120.63C53.53 122.87 52.1766 124.477 52.1766 124.477L52.23 124.697L43.9666 126.683L35.8633 128.633C35.8633 128.633 33.7266 126.39 31.73 122.987L31.8633 122.907L37.51 121.497L41.4266 112.703L41.51 112.74C42.5033 111.53 43.69 110.827 44.6233 110.83C45.5533 110.83 46.2633 111.27 46.6066 112.103C47.0766 113.23 46.45 114.73 45.93 115.833C46.52 115.163 47.1966 114.563 47.94 114.047C48.5833 113.6 49.6933 113.243 50.3833 113.63C50.97 113.96 51.0933 114.823 51.0766 115.477C51.05 116.487 50.85 117.66 50.2933 118.517C50.9166 117.79 51.45 116.87 52.3033 116.41C53.1566 115.947 54.0733 115.673 54.8833 116.2C55.5466 116.63 55.8833 117.42 55.9333 118.19Z" fill="#0185FF"/>
<path d="M65.7465 108.397C64.8831 109.41 63.6365 110.886 62.2431 112.54C62.2365 112.543 62.2332 112.546 62.2298 112.553C61.2198 113.56 60.1298 114.126 59.2365 114.123C58.1332 114.12 57.2932 113.58 56.8832 112.553C56.3265 111.166 57.0698 109.32 57.6865 107.956C56.9865 108.783 56.1832 109.523 55.3065 110.16C54.5432 110.71 53.2265 111.147 52.4132 110.673C51.7165 110.267 51.5665 109.2 51.5865 108.397C51.6198 107.153 51.9898 105.923 52.6465 104.87C51.9098 105.763 51.1498 106.68 50.1365 107.246C49.1265 107.816 48.0398 108.157 47.0765 107.507C46.2932 106.977 45.8932 106.003 45.8365 105.056C45.7798 104.106 45.9632 102.96 46.2165 102.043L46.1832 102.03L47.7832 98.4365C47.7832 98.4365 49.2732 98.6598 51.5965 99.4565C54.1665 100.34 57.7598 101.93 61.4931 104.707C62.9065 105.757 64.3398 106.98 65.7465 108.397Z" fill="#0185FF"/>
<path d="M58.6866 140.87V143.77C58.6866 143.77 56.9566 143.66 54.2332 143.493V143.437C52.3632 143.167 50.9199 142.383 50.3766 141.433C49.8332 140.48 49.8899 139.49 50.5766 138.627C51.5066 137.46 53.4766 137.18 54.9632 137.033C53.8999 136.84 52.8632 136.52 51.8766 136.08C51.0199 135.693 49.9932 134.78 50.0032 133.84C50.0132 133.04 50.8632 132.383 51.5732 132C52.6666 131.41 53.9166 131.117 55.1566 131.16C54.0166 130.97 52.8466 130.767 51.8532 130.18C50.8599 129.593 50.0299 128.823 50.1199 127.673C50.1932 126.733 50.8399 125.907 51.6366 125.387C52.4299 124.867 53.5166 124.453 54.4332 124.217L54.4232 124.17L58.6866 123.143V140.87Z" fill="#0185FF"/>
<path d="M16.9633 125.823C16.4833 124.537 16.2566 122.333 16.2566 118.593C16.2566 108.477 21.5899 99.8499 24.8833 96.4766C28.1766 93.1032 31.9399 94.6733 31.0799 97.6533C30.2166 100.633 28.5699 102.907 28.3332 111.693C28.2232 115.87 29.9199 119.903 31.7299 122.987C33.7266 126.39 35.8632 128.633 35.8632 128.633L43.9666 126.683L43.9832 126.76C45.5266 127.02 46.7266 127.7 47.1866 128.51C47.6499 129.32 47.6199 130.153 47.0699 130.867C46.3232 131.833 44.7099 132.033 43.4932 132.133C44.3699 132.313 45.2266 132.6 46.0432 132.987C46.7532 133.323 47.6132 134.113 47.6199 134.9C47.6266 135.573 46.9366 136.113 46.3632 136.423C45.4732 136.9 44.3566 137.31 43.3366 137.253C44.2766 137.43 45.3366 137.437 46.1632 137.947C46.9866 138.46 47.6832 139.117 47.6266 140.083C47.5832 140.873 47.0666 141.56 46.4232 141.983C45.8166 142.383 44.9932 142.7 44.2732 142.887C34.5899 142.307 23.2166 141.653 21.0399 141.653C17.1166 141.653 16.8033 139.693 16.8033 136.24C16.8033 135.837 16.8299 135.47 16.8833 135.137C17.2666 132.637 19.0133 132.093 20.8833 132.163C22.9999 132.24 23.9399 131.22 23.9399 129.653C23.9399 128.087 23.2366 127.377 20.2566 127.537C18.6833 127.62 17.5999 127.54 16.9633 125.827V125.823Z" fill="#0185FF"/>
<path d="M161.62 36.66C161.847 36.97 162.05 37.2966 162.213 37.6433C162.617 38.4933 162.773 39.4966 162.45 40.3766C162.123 41.26 161.243 41.9633 160.307 41.9C159.857 41.87 159.433 41.6766 159.057 41.4266C157.923 40.6733 157.21 39.44 156.26 38.4633C154.877 37.04 152.98 36.17 151.023 35.8333C149.067 35.4966 147.047 35.6633 145.107 36.0966C143.433 33.6633 141.93 31.38 140.257 28.9467C136.02 32.71 132.57 29.34 136.177 25.8866C137.21 24.8966 138.12 24.0366 139.04 23.2C140.407 21.9466 141.79 20.7433 143.617 19.2233C144.177 18.76 144.777 18.2633 145.433 17.73C149.667 14.28 152.727 18.1233 148.883 21.5733L154.45 26.9066H154.607C160.49 23.6933 164.647 25.1833 166.767 27.0166C167.917 28.0166 168.883 29.0133 169.903 30.2033C170.54 30.9466 171.383 31.87 171.783 32.79C172 33.2833 172.17 33.7566 172.227 34.24C172.28 34.65 172.25 35.07 172.1 35.51C171.777 36.4633 170.9 37.2233 169.967 37.1566C169.52 37.1266 169.097 36.9166 168.723 36.6466C167.92 36.0666 167.533 35.33 166.923 34.5166L166.87 34.5433C166.923 34.6433 166.97 34.7466 167.017 34.85C167.42 35.77 167.577 36.8566 167.253 37.81C166.93 38.7633 166.053 39.5233 165.117 39.4566C164.67 39.4233 164.247 39.2166 163.873 38.9466C163.073 38.3666 162.313 37.4133 161.7 36.6L161.62 36.66Z" fill="#E5FAFE"/>
<path d="M145.853 144.71C146.426 144.013 147.003 143.316 147.58 142.62C149.273 140.583 152.92 136.04 161.75 135.713C162.08 135.7 162.42 135.693 162.766 135.693L172.1 135.613V131.573C172.1 129.776 173.556 128.32 175.353 128.32C177.15 128.32 178.606 129.776 178.606 131.573V147.966C178.606 149.763 177.15 151.22 175.353 151.22C173.556 151.22 172.1 149.763 172.1 147.966V145.966C170.78 145.976 169.41 145.87 168.243 146.48C167.553 146.836 166.92 147.32 166.43 147.92C166.31 148.07 166.183 148.22 166.056 148.38C163.08 152.03 157.766 158.5 156.48 159.973C155.85 160.693 155.083 161.33 154.173 161.62C153.263 161.91 152.16 161.756 151.53 161.04C151.236 160.706 151.073 160.286 151.023 159.84L150.923 159.85C150.503 160.18 150.25 160.266 149.743 160.43C148.833 160.72 147.73 160.566 147.1 159.85C146.74 159.443 146.58 158.906 146.573 158.356H146.45C146.066 158.643 145.806 158.873 145.35 159.016C144.44 159.306 143.336 159.153 142.706 158.436C142.11 157.756 142.063 156.723 142.356 155.87C142.65 155.013 143.233 154.29 143.806 153.59C143.97 153.39 144.133 153.19 144.296 152.993L144.256 152.96C143.606 152.95 142.973 152.723 142.55 152.24C141.953 151.56 141.906 150.53 142.2 149.673C142.493 148.816 143.076 148.093 143.65 147.393C144.383 146.496 145.116 145.603 145.853 144.71Z" fill="#E5FAFE"/>
<path d="M234.766 126.043L236.646 128.633C219.626 140.946 208.177 127.613 208.177 127.613L208.257 123.3C208.283 123.293 208.39 123.286 208.567 123.283V123.376C208.567 123.376 218.843 138.123 234.686 126.123L234.67 126.083C234.703 126.07 234.733 126.056 234.766 126.043Z" fill="#FFF2B2"/>
<path d="M244.96 147.22L244.646 150.28C240.57 149.26 239 146.83 239 146.83L239.236 142.517C239.236 142.517 239.356 142.553 239.586 142.613L239.55 142.75C239.55 142.75 241.51 146.203 244.96 147.22Z" fill="#FFF2B2"/>
<path d="M252.02 144.32H252.253C252.243 146.07 252.1 148.006 252.1 148.006C252.1 148.006 247.626 150.203 244.646 150.28L244.96 147.22C248.49 146.75 252.02 144.32 252.02 144.32Z" fill="#FFF2B2"/>
<path d="M223.08 153L222.98 156.53C222.98 156.53 212.906 162.883 198.43 157.626L198.136 154.256C210.856 160.113 223.08 153 223.08 153Z" fill="#FFF2B2"/>
<path d="M136.333 159.3C126.133 165.156 116.333 158.043 116.333 158.043L126.45 152.32C126.45 152.32 127.47 156.633 136.333 159.3Z" fill="#FFED8F"/>
<path d="M252.256 144.083C252.256 144.163 252.256 144.243 252.253 144.323H252.02C252.02 144.323 248.49 146.75 244.96 147.22C241.51 146.203 239.55 142.75 239.55 142.75L239.586 142.613C240.946 142.973 246.14 144.217 252.256 144.083Z" fill="#FFED8F"/>
<path d="M234.67 126.083L234.686 126.123C218.843 138.123 208.57 123.377 208.57 123.377V123.283C210.466 123.233 220.256 123.3 220.256 123.3C220.256 123.3 225.083 130.157 234.67 126.083Z" fill="#FFED8F"/>
<path d="M210.46 147.276L223.08 153C223.08 153 210.856 160.113 198.136 154.256C209.19 151.59 210.46 147.276 210.46 147.276Z" fill="#FFED8F"/>
<path d="M189.15 48.5466L180.02 60.0065L179.84 59.9965L180.57 48.1632L176.046 49.8832L176.02 49.8099L178.903 39.9999L178.923 40.0066L184.883 40.0832L183 48.0066L188.96 48.3966L189.15 48.5466Z" fill="#FFED8F"/>
<path d="M180.333 35.1434L178.903 40L176.02 49.81L176.047 49.8834L172.727 51.1434L177.98 33.73L180.333 35.1434Z" fill="#FFF2B2"/>
<path d="M193.433 47.5366L179.55 64.7099L179.84 59.9966L180.02 60.0066L189.15 48.5466L191.08 46.1232L193.433 47.5366Z" fill="#FFF2B2"/>
<path d="M155.783 68.87L155.797 69.0667C155.533 69.09 155.27 69.1033 155 69.1033C150.193 69.1033 146.293 65.2067 146.293 60.3967C146.293 59.6733 146.38 58.9733 146.547 58.3L155.783 68.87Z" fill="#FFF2B2"/>
<path d="M153.607 51.6999L153.623 51.8032C151.107 52.1999 148.947 53.6799 147.64 55.7499C146.153 56.1032 144.583 55.6199 143.233 54.9032C140.423 53.4132 138.283 50.9966 136.62 48.2499L136.697 48.2032C137.88 44.7999 141.117 42.3599 144.923 42.3599C149.73 42.3599 153.627 46.2566 153.627 51.0632C153.627 51.2766 153.62 51.4899 153.607 51.6999ZM151.747 49.1832C152.843 46.0432 150.723 43.9399 148.543 43.5866C146.363 43.2332 144.307 44.7132 143.953 46.8932C143.6 49.0732 144.607 52.0066 149.157 51.6932L147.903 47.5366L151.747 49.1832Z" fill="#FFFAF0"/>
<path d="M147.64 55.7499C148.947 53.6799 151.107 52.1999 153.623 51.8032C154.073 51.7299 154.533 51.6932 155 51.6932C159.81 51.6932 163.707 55.5899 163.707 60.3966C163.707 64.9366 160.233 68.6666 155.797 69.0666L155.783 68.8699L146.547 58.2999C146.773 57.3832 147.147 56.5232 147.64 55.7499ZM161.823 58.5166C162.923 55.3766 160.803 53.2732 158.623 52.9199C156.44 52.5666 154.387 54.0466 154.033 56.2266C153.68 58.4066 154.687 61.3399 159.237 61.0266L157.98 56.8699L161.823 58.5166Z" fill="#FFFAF0"/>
<path d="M146.547 58.3C146.38 58.9734 146.293 59.6733 146.293 60.3967C146.293 65.2067 150.193 69.1033 155 69.1033C155.27 69.1033 155.533 69.09 155.797 69.0667C160.233 68.6667 163.707 64.9367 163.707 60.3967C163.707 55.59 159.81 51.6934 155 51.6934C154.533 51.6934 154.073 51.73 153.623 51.8033L153.607 51.7C153.62 51.49 153.627 51.2767 153.627 51.0634C153.627 46.2567 149.73 42.36 144.923 42.36C141.117 42.36 137.88 44.8 136.697 48.2034L136.62 48.25C138.283 50.9967 140.423 53.4134 143.233 54.9034C144.583 55.62 146.153 56.1034 147.64 55.75C147.147 56.5233 146.773 57.3834 146.547 58.3ZM128.257 48.2067C126.797 44.53 127.677 41.52 128.667 40.6067C129.187 40.1267 129.88 39.82 130.587 39.83C132.56 39.8534 133.657 42.05 134.42 43.87L145.107 36.0967C147.047 35.6634 149.067 35.4967 151.023 35.8334C152.98 36.17 154.877 37.04 156.26 38.4634C157.21 39.44 157.923 40.6734 159.057 41.4267C159.433 41.6767 159.857 41.87 160.307 41.9C161.243 41.9634 162.123 41.26 162.45 40.3767C162.773 39.4967 162.617 38.4934 162.213 37.6434C162.05 37.2967 161.847 36.97 161.62 36.66L161.7 36.6C162.313 37.4134 163.073 38.3667 163.873 38.9467C164.247 39.2167 164.67 39.4234 165.117 39.4567C166.053 39.5234 166.93 38.7634 167.253 37.81C167.577 36.8567 167.42 35.77 167.017 34.85C166.97 34.7467 166.923 34.6434 166.87 34.5434L166.923 34.5167C167.533 35.33 167.92 36.0667 168.723 36.6467C169.097 36.9167 169.52 37.1267 169.967 37.1567C170.9 37.2234 171.777 36.4634 172.1 35.51C172.25 35.07 172.28 34.65 172.227 34.24L172.57 34.2034L177.98 33.73L172.727 51.1434L176.047 49.8834L180.57 48.1634L179.84 59.9967L179.55 64.71L193.433 47.5367C193.433 47.5367 195.38 62.04 193.196 71.3C190.606 82.28 188.49 87.3767 188.49 87.3767H180.453C175.913 87.3767 170.373 86.6733 164.883 93.34C164.393 93.9366 163.647 94.8366 162.7 95.9766L162.687 95.9667H158.333V95.85L158.57 87.1433L151.167 88.3833L151.157 88.32L150.57 82.4367L127.863 90.9066L127.603 90.9467C127.027 90.67 126.547 90.47 126.287 90.4333C126.127 90.41 125.987 90.41 125.857 90.43C125.833 90.43 125.813 90.4333 125.793 90.44L125.78 90.35C125.26 87.6666 123.227 85.33 120.64 84.4467C120.313 84.3333 119.973 84.2433 119.627 84.25C119.483 84.25 119.343 84.2733 119.203 84.3066L119.157 84.1633C118.837 83.0667 118.417 81.8833 118 80.8033L118.333 80.6733L123.393 69.0267L119.157 67.0267H119.13L119.863 62.9067L112.803 64.6733V59.67C117.623 55.58 122.87 51.89 128.037 48.2934L128.257 48.2067Z" fill="#FFFAF0"/>
<path d="M158.57 87.1432L158.333 95.8499V95.9666H135.51L135.34 96.1432C134.26 95.1199 133.097 94.1899 131.863 93.3632C131.477 93.1032 130.627 92.5866 129.693 92.0599L129.747 91.9666L151.167 88.3832L158.57 87.1432Z" fill="#0185FF"/>
<path d="M151.157 88.3199L151.167 88.3832L129.747 91.9665L129.693 92.0598C128.99 91.6598 128.24 91.2565 127.603 90.9465L127.863 90.9065L150.57 82.4365L151.157 88.3199Z" fill="#0185FF"/>
<path d="M123.393 69.0266L118.333 80.6733L118 80.8033C117.7 80.0266 117.4 79.2999 117.137 78.6999C117.047 78.4966 116.957 78.29 116.867 78.0866H117.157L119.13 67.0233H119.157L123.393 69.0266Z" fill="#0185FF"/>
<path d="M119.863 62.9066L119.13 67.0233L117.157 78.0833H116.867C116.227 76.6566 115.513 75.2366 114.38 74.1733C113.893 73.7166 113.307 73.3366 112.68 73.0866L112.803 72.7899V64.6733L119.863 62.9066Z" fill="#0185FF"/>
<path d="M143.55 19.1433L143.617 19.2233C141.79 20.7433 140.407 21.9466 139.04 23.2L138.843 22.9867C138.843 22.9867 137.433 21.4167 131 13.26C124.57 5.10334 112.803 6.36001 112.803 20.9467V59.67C110.447 61.6633 108.19 63.76 106.093 65.9866L105.903 65.8099C106.06 65.0266 105.903 42.75 105.903 20.32C105.903 -2.10998 126.923 -1.79665 133.197 6.04334C139.47 13.8867 143.55 19.1433 143.55 19.1433Z" fill="#0185FF"/>
<path d="M181.947 104.847C189.62 114.437 202.667 130.753 205.667 134.517C209.98 139.927 207.55 143.537 200.883 143.537H178.607V135.693H197.59L178.16 112.003L178.06 112.083C178.06 112.083 169.04 128.32 161.747 135.613V135.713C152.92 136.04 149.273 140.583 147.58 142.62C147.003 143.317 146.427 144.013 145.853 144.71H133.98V144.477C134.293 144.007 158.767 113.887 158.767 113.887L156.02 109.34L162.373 108.163C162.373 108.163 169.097 99.2266 171.747 95.9666C176.333 90.32 179.393 87.4566 188.333 87.4566V87.3766H188.49C188.49 87.3766 187.627 94.5166 182.293 104.633L181.947 104.847Z" fill="#0185FF"/>
<path d="M128.037 48.2933C122.87 51.89 117.623 55.58 112.803 59.67C110.447 61.6633 108.19 63.76 106.093 65.9867C103.57 68.67 101.28 71.5466 99.3266 74.68C98.9133 75.34 98.5166 76.0133 98.1366 76.6966C95.5466 81.3533 93.8466 86.4666 93.0366 91.7266C91.46 101.977 93.26 112.773 98.4266 121.78L93.05 122.797L58.9233 129.26" stroke="#002140" stroke-width="0.999999" stroke-linecap="round" stroke-linejoin="round"/>
<path d="M137.993 61.2465C133.98 57.6532 130.386 53.3232 128.333 48.3965C128.306 48.3332 128.28 48.2699 128.256 48.2065C126.796 44.5299 127.676 41.5199 128.666 40.6065C129.186 40.1265 129.88 39.8199 130.586 39.8299C132.56 39.8532 133.656 42.0499 134.42 43.8699C135.046 45.3632 135.77 46.8499 136.62 48.2499C138.283 50.9965 140.423 53.4132 143.233 54.9032C144.583 55.6199 146.153 56.1032 147.64 55.7499C147.646 55.7465 147.656 55.7465 147.663 55.7432" stroke="#002140" stroke-width="0.999999" stroke-linecap="round" stroke-linejoin="round"/>
<path d="M105.903 65.8099C106.06 65.0266 105.903 42.75 105.903 20.32C105.903 -2.10998 126.923 -1.79665 133.197 6.04334C139.47 13.8867 143.55 19.1433 143.55 19.1433" stroke="#002140" stroke-width="0.999999" stroke-linecap="round" stroke-linejoin="round"/>
<path d="M138.843 22.9867C138.843 22.9867 137.433 21.4167 131 13.2601C124.57 5.1034 112.803 6.36008 112.803 20.9467V72.79" stroke="#002140" stroke-width="0.999999" stroke-linecap="round" stroke-linejoin="round"/>
<path d="M151.023 35.8333C152.98 36.17 154.877 37.04 156.26 38.4633C157.21 39.44 157.923 40.6733 159.057 41.4266C159.433 41.6766 159.857 41.87 160.307 41.9C161.243 41.9633 162.123 41.26 162.45 40.3766C162.773 39.4966 162.617 38.4933 162.213 37.6433C162.05 37.2966 161.847 36.97 161.62 36.66C161.297 36.21 160.923 35.79 160.543 35.3833C159.523 34.2833 158.423 33.22 157.093 32.5233C155.76 31.83 154.157 31.54 152.74 32.0433" stroke="#002140" stroke-width="0.999999" stroke-linecap="round" stroke-linejoin="round"/>
<path d="M151.023 35.8333C149.067 35.4966 147.047 35.6633 145.107 36.0966C143.433 33.6633 141.93 31.38 140.257 28.9466C136.02 32.71 132.57 29.34 136.177 25.8866C137.21 24.8966 138.12 24.0366 139.04 23.2C140.407 21.9466 141.79 20.7433 143.617 19.2233C144.177 18.76 144.777 18.2633 145.433 17.73C149.667 14.28 152.727 18.1233 148.883 21.5733L154.45 26.9066" stroke="#002140" stroke-width="0.999999" stroke-linecap="round" stroke-linejoin="round"/>
<path d="M161.7 36.6C162.313 37.4134 163.073 38.3667 163.873 38.9467C164.247 39.2167 164.67 39.4234 165.117 39.4567C166.053 39.5234 166.93 38.7634 167.253 37.81C167.577 36.8567 167.42 35.77 167.017 34.85C166.97 34.7467 166.923 34.6434 166.87 34.5434C166.473 33.7567 165.92 33.07 165.357 32.41C164.337 31.22 163.243 30.0667 161.917 29.3167C160.593 28.5634 158.993 28.25 157.583 28.7967" stroke="#002140" stroke-width="0.999999" stroke-linecap="round" stroke-linejoin="round"/>
<path d="M166.923 34.5166C167.533 35.3299 167.92 36.0666 168.723 36.6466C169.096 36.9166 169.52 37.1266 169.966 37.1566C170.9 37.2232 171.776 36.4633 172.1 35.5099C172.25 35.0699 172.28 34.6499 172.226 34.2399C172.17 33.7566 172 33.2832 171.783 32.7899C171.383 31.8699 170.54 30.9466 169.903 30.2032C168.883 29.0132 167.916 28.0166 166.766 27.0166C164.646 25.1833 160.49 23.6932 154.606 26.9066" stroke="#002140" stroke-width="0.999999" stroke-linecap="round" stroke-linejoin="round"/>
<path d="M134.42 43.8699L145.107 36.0966" stroke="#002140" stroke-width="0.999999" stroke-linecap="round" stroke-linejoin="round"/>
<path d="M172.57 34.2034L177.98 33.73L172.726 51.1434L176.046 49.8834L180.57 48.1634L179.84 59.9967L179.55 64.71L193.433 47.5367L191.08 46.1234L189.15 48.5467L180.02 60.0067" stroke="#002140" stroke-width="0.999999" stroke-linecap="round" stroke-linejoin="round"/>
<path d="M177.98 33.73L180.333 35.1434L178.903 40L176.02 49.81" stroke="#002140" stroke-width="0.999999" stroke-linecap="round" stroke-linejoin="round"/>
<path d="M178.923 40.0066L184.883 40.0832L183 48.0066L188.96 48.3965" stroke="#002140" stroke-width="0.999999" stroke-linecap="round" stroke-linejoin="round"/>
<path d="M153.623 51.8032C154.073 51.7299 154.533 51.6932 155 51.6932C159.81 51.6932 163.707 55.5899 163.707 60.3966C163.707 64.9366 160.233 68.6666 155.797 69.0666C155.533 69.0899 155.27 69.1032 155 69.1032C150.193 69.1032 146.293 65.2066 146.293 60.3966C146.293 59.6732 146.38 58.9732 146.547 58.2999C146.773 57.3832 147.147 56.5232 147.64 55.7499C148.947 53.6799 151.107 52.1999 153.623 51.8032Z" stroke="#002140" stroke-width="0.999999" stroke-linecap="round" stroke-linejoin="round"/>
<path d="M159.237 61.0265C154.687 61.3398 153.68 58.4065 154.033 56.2265C154.387 54.0465 156.44 52.5665 158.623 52.9198C160.803 53.2732 162.923 55.3765 161.823 58.5165L157.98 56.8698L159.237 61.0265Z" stroke="#002140" stroke-width="0.999999" stroke-linecap="round" stroke-linejoin="round"/>
<path d="M136.697 48.2032C137.88 44.7999 141.117 42.3599 144.923 42.3599C149.73 42.3599 153.627 46.2566 153.627 51.0632C153.627 51.2766 153.62 51.4899 153.607 51.6999" stroke="#002140" stroke-width="0.999999" stroke-linecap="round" stroke-linejoin="round"/>
<path d="M149.156 51.6932C144.606 52.0065 143.6 49.0732 143.953 46.8932C144.306 44.7132 146.363 43.2332 148.543 43.5865C150.723 43.9399 152.843 46.0432 151.746 49.1832L147.903 47.5365L149.156 51.6932Z" stroke="#002140" stroke-width="0.999999" stroke-linecap="round" stroke-linejoin="round"/>
<path d="M146.53 58.28L146.546 58.3L155.783 68.87" stroke="#002140" stroke-width="0.999999" stroke-linecap="round" stroke-linejoin="round"/>
<path d="M159.767 49.8566C161.023 48.7599 162.51 47.9199 164.1 47.4066C164.907 47.1466 165.953 47.0599 166.767 47.2999C167.897 47.6366 168.657 48.4799 168.803 49.6533C168.95 50.8266 168.4 52.2099 167.76 53.2033C167.123 54.1999 166.267 55.0299 165.417 55.8533" stroke="#002140" stroke-width="0.999999" stroke-linecap="round" stroke-linejoin="round"/>
<path d="M147.783 39.9199C149.6 39.8599 151.427 40.5399 152.76 41.7732C154.09 43.0099 154.91 44.7799 154.983 46.5932" stroke="#002140" stroke-width="0.999999" stroke-linecap="round" stroke-linejoin="round"/>
<path d="M168.413 74.9865L166.05 73.5065" stroke="#002140" stroke-width="0.999999" stroke-linecap="round" stroke-linejoin="round"/>
<path d="M124.803 64.24L126.01 61.82C126.823 61.1933 127.67 60.55 128.67 60.3066C129.67 60.06 130.87 60.3266 131.417 61.1966C131.933 62.02 131.733 63.0833 131.59 64.0433C131.447 65.0066 131.443 66.1433 132.193 66.7633C132.72 67.2 133.487 67.24 134.143 67.0533C134.803 66.87 135.39 66.5 135.993 66.1733C137.433 65.3933 139.333 64.9133 140.617 65.93C141.537 66.6566 141.823 67.93 141.817 69.1C141.81 70.2733 141.57 71.4433 141.693 72.61C141.82 73.7733 142.423 75 143.533 75.3833C144.623 75.76 145.823 75.2066 146.71 74.4666C147.593 73.7266 148.28 72.59 149.273 72.0066C150.607 71.22 151.677 71.3866 152.513 72.18C153.087 72.7233 153.297 73.5433 153.713 74.2166C155.157 76.5533 157.463 75.7866 158.123 75.5566C159.427 75.0933 160.087 73.6866 160.747 72.4733C161.41 71.2566 162.473 69.97 163.853 70.09C164.603 70.1566 165.273 70.6633 165.647 71.32C166.017 71.9733 166.12 72.7566 166.05 73.5066L164.803 75.85" stroke="#002140" stroke-width="0.999999" stroke-linecap="round" stroke-linejoin="round"/>
<path d="M123.783 60.71L125.747 61.8866" stroke="#002140" stroke-width="0.999999" stroke-linecap="round" stroke-linejoin="round"/>
<path d="M125.856 90.4365C125.676 91.2432 127.743 95.3765 128.293 96.3432C129.836 99.0565 131.953 101.633 134.87 102.733C135.986 103.156 137.383 103.31 138.146 102.143C138.316 101.883 138.42 101.59 138.463 101.286M138.463 101.286C138.483 101.153 138.493 101.02 138.49 100.886C138.463 99.6365 137.706 98.6498 136.916 97.7631C136.416 97.1998 135.89 96.6598 135.34 96.1431C134.26 95.1198 133.096 94.1898 131.863 93.3632C131.476 93.1032 130.626 92.5865 129.693 92.0598C128.99 91.6598 128.24 91.2565 127.603 90.9465C127.026 90.6698 126.546 90.4698 126.286 90.4331C126.126 90.4098 125.986 90.4098 125.856 90.4298C125.833 90.4298 125.813 90.4332 125.793 90.4398C125.166 90.5498 124.823 91.0865 124.39 91.6831C123.456 92.9631 122.74 94.3932 122.196 95.8832C122.006 96.3998 121.836 96.9265 121.686 97.4531C121.056 99.6598 120.74 101.94 120.493 104.226C120.39 105.163 120.903 106.066 121.77 106.443C124.893 107.793 128.406 108.09 131.73 107.25C134.11 106.65 136.396 105.293 137.823 103.3C138.213 102.756 138.433 102.01 138.463 101.286ZM138.463 101.286C138.483 100.923 138.453 100.563 138.373 100.24" stroke="#002140" stroke-width="0.999999" stroke-linecap="round" stroke-linejoin="round"/>
<path d="M125.78 90.3498C125.26 87.6665 123.227 85.3299 120.64 84.4465C120.313 84.3332 119.973 84.2432 119.627 84.2499C119.483 84.2499 119.343 84.2732 119.203 84.3065C118.973 84.3599 118.75 84.4432 118.53 84.5365C118.367 84.6065 118.207 84.6799 118.047 84.7599C116.16 85.6865 114.59 87.2532 113.67 89.1465C113.137 90.2399 112.823 91.4332 112.74 92.6432C112.663 93.7098 112.76 94.7832 113.04 95.8132C113.073 95.8165 113.103 95.8165 113.137 95.8199C116.08 96.0132 119.037 96.0032 121.977 95.7999" stroke="#002140" stroke-width="0.999999" stroke-linecap="round" stroke-linejoin="round"/>
<path d="M108.517 73.87C108.48 73.92 108.447 73.97 108.417 74.02C108.057 74.6133 108.02 75.35 108.11 76.04C108.387 78.1466 109.75 80 111.457 81.27C113.163 82.54 115.947 84.0133 117.98 84.6333" stroke="#002140" stroke-width="0.999999" stroke-linecap="round" stroke-linejoin="round"/>
<path d="M119.157 84.1632C118.837 83.0666 118.417 81.8832 118 80.8032C117.7 80.0266 117.4 79.2999 117.137 78.6999C117.047 78.4966 116.957 78.2899 116.867 78.0866C116.227 76.6566 115.513 75.2366 114.38 74.1733C113.893 73.7166 113.307 73.3366 112.68 73.0866C111.637 72.6666 110.48 72.5999 109.48 73.0899C109.107 73.2733 108.767 73.5332 108.52 73.8666" stroke="#002140" stroke-width="0.999999" stroke-linecap="round" stroke-linejoin="round"/>
<path d="M108.57 73.8099C108.553 73.8299 108.537 73.8466 108.52 73.8666C108.517 73.8666 108.517 73.8699 108.517 73.8699C102.763 80.2099 102.233 87.5799 103.627 94.1232C103.673 94.3332 104.02 95.5366 105.667 95.3766C107.313 95.2199 110.373 94.1232 112.57 92.6332" stroke="#002140" stroke-width="0.999999" stroke-linecap="round" stroke-linejoin="round"/>
<path d="M99.3632 74.5599C99.3499 74.5999 99.3399 74.6399 99.3265 74.6799C96.3899 84.2999 96.3999 94.7965 99.3532 104.41L106.137 104.397" stroke="#002140" stroke-width="0.999999" stroke-linecap="round" stroke-linejoin="round"/>
<path d="M113.153 95.8C113.153 95.8 113.14 95.8133 113.137 95.82C110.5 98.8633 108.52 101.15 106.137 104.397L104.507 114.71C110.063 124.217 119.85 131.147 130.663 133.23" stroke="#002140" stroke-width="0.999999" stroke-linecap="round" stroke-linejoin="round"/>
<path d="M112.333 106.007C112.333 106.98 111.543 107.77 110.57 107.77C109.597 107.77 108.803 106.98 108.803 106.007C108.803 105.033 109.593 104.24 110.57 104.24C111.547 104.24 112.333 105.03 112.333 106.007Z" stroke="#002140" stroke-width="0.999999" stroke-linecap="round" stroke-linejoin="round"/>
<path d="M116.57 100.79C116.57 101.763 115.78 102.553 114.803 102.553C113.826 102.553 113.04 101.763 113.04 100.79C113.04 99.8165 113.83 99.0265 114.803 99.0265C115.776 99.0265 116.57 99.8165 116.57 100.79Z" stroke="#002140" stroke-width="0.999999" stroke-linecap="round" stroke-linejoin="round"/>
<path d="M93.1965 91.8499C93.1965 91.8499 93.1432 91.8065 93.0365 91.7265C91.4032 90.4765 77.5832 79.9065 73.8232 77.1032C69.8232 74.1232 65.9799 76.3199 63.1565 80.7899C60.3332 85.2599 51.7065 99.1432 51.7065 99.1432" stroke="#002140" stroke-width="0.999999" stroke-linecap="round" stroke-linejoin="round"/>
<path d="M93.0398 122.75C84.7265 116.163 68.8832 93.8099 68.8832 93.8099L61.6665 104.477" stroke="#002140" stroke-width="0.999999" stroke-linecap="round" stroke-linejoin="round"/>
<path d="M16.9633 125.827C17.5999 127.54 18.6833 127.62 20.2566 127.537C23.2366 127.377 23.9399 128.083 23.9399 129.653C23.9399 131.223 22.9999 132.24 20.8833 132.163C19.0133 132.093 17.2666 132.637 16.8833 135.137C16.8299 135.47 16.8033 135.837 16.8033 136.24C16.8033 139.693 17.1166 141.653 21.0399 141.653C23.2166 141.653 34.5899 142.307 44.2732 142.887C48.0732 143.113 51.6132 143.33 54.2332 143.493C56.9566 143.66 58.6866 143.77 58.6866 143.77V123.143L54.4232 124.17L52.2299 124.697L43.9666 126.683L35.8632 128.633C35.8632 128.633 33.7266 126.39 31.7299 122.987C29.9199 119.903 28.2233 115.87 28.3333 111.693C28.5699 102.907 30.2166 100.633 31.0799 97.6533C31.9399 94.6733 28.1766 93.1032 24.8833 96.4766C21.5899 99.8499 16.2566 108.477 16.2566 118.593C16.2566 122.333 16.4833 124.537 16.9633 125.823" stroke="#002140" stroke-width="0.999999" stroke-linecap="round" stroke-linejoin="round"/>
<path d="M62.2432 112.54C63.6366 110.886 64.8832 109.41 65.7466 108.397C64.3399 106.98 62.9066 105.757 61.4932 104.707C57.7599 101.93 54.1666 100.34 51.5966 99.4565C49.2733 98.6598 47.7833 98.4365 47.7833 98.4365L46.1833 102.03L41.4266 112.703L37.5099 121.496L31.8633 122.906" stroke="#002140" stroke-width="0.999999" stroke-linecap="round" stroke-linejoin="round"/>
<path d="M52.1768 124.476C52.1768 124.476 53.5301 122.87 55.4168 120.63C57.4134 118.26 60.0068 115.183 62.2301 112.553" stroke="#002140" stroke-width="0.999999" stroke-linecap="round" stroke-linejoin="round"/>
<path d="M17.04 125.81C17.04 125.81 17.0133 125.81 16.9633 125.823C16.1533 125.973 9.06997 127.27 4.48998 128.083C-0.373351 128.946 -0.920018 134.28 6.84331 134.593C13.8166 134.873 16.4266 135.093 16.8833 135.136C16.9366 135.136 16.96 135.143 16.96 135.143" stroke="#002140" stroke-width="0.999999" stroke-linecap="round" stroke-linejoin="round"/>
<path d="M46.2165 102.043C45.9632 102.96 45.7798 104.107 45.8365 105.057C45.8932 106.003 46.2932 106.977 47.0765 107.507C48.0398 108.157 49.1265 107.817 50.1365 107.247C51.1498 106.68 51.9098 105.763 52.6465 104.87C51.9898 105.923 51.6198 107.153 51.5865 108.397C51.5665 109.2 51.7165 110.267 52.4132 110.673C53.2265 111.147 54.5432 110.71 55.3065 110.16C56.1832 109.523 56.9865 108.783 57.6865 107.957C57.0698 109.32 56.3265 111.167 56.8832 112.553C57.2932 113.58 58.1332 114.12 59.2365 114.123C60.1298 114.127 61.2198 113.56 62.2298 112.553C62.2298 112.547 62.2365 112.543 62.2431 112.54C62.4765 112.307 62.7032 112.05 62.9232 111.77" stroke="#002140" stroke-width="0.999999" stroke-linecap="round" stroke-linejoin="round"/>
<path d="M55.3133 120.79C55.35 120.737 55.3833 120.683 55.4167 120.63C55.8767 119.867 55.9767 118.91 55.9333 118.19C55.8833 117.42 55.5467 116.63 54.8833 116.2C54.0733 115.673 53.1567 115.947 52.3033 116.41C51.45 116.87 50.9167 117.79 50.2933 118.517C50.85 117.66 51.05 116.487 51.0767 115.477C51.0933 114.823 50.97 113.96 50.3833 113.63C49.6933 113.243 48.5833 113.6 47.94 114.047C47.1967 114.563 46.52 115.163 45.93 115.833C46.45 114.73 47.0767 113.23 46.6067 112.103C46.2633 111.27 45.5533 110.83 44.6233 110.83C43.69 110.83 42.5033 111.53 41.51 112.74" stroke="#002140" stroke-width="0.999999" stroke-linecap="round" stroke-linejoin="round"/>
<path d="M54.4332 124.217C53.5166 124.453 52.4299 124.867 51.6366 125.387C50.8399 125.907 50.1932 126.733 50.1199 127.673C50.0299 128.823 50.8599 129.593 51.8532 130.18C52.8466 130.767 54.0166 130.97 55.1566 131.16C53.9166 131.117 52.6666 131.41 51.5732 132C50.8632 132.383 50.0132 133.04 50.0032 133.84C49.9932 134.78 51.0199 135.693 51.8766 136.08C52.8632 136.52 53.8999 136.84 54.9632 137.033C53.4766 137.18 51.5066 137.46 50.5766 138.627C49.8899 139.49 49.8332 140.48 50.3766 141.433C50.9199 142.383 52.3632 143.167 54.2366 143.437" stroke="#002140" stroke-width="0.999999" stroke-linecap="round" stroke-linejoin="round"/>
<path d="M44.1433 142.92C44.1867 142.91 44.23 142.9 44.2733 142.887C44.9933 142.7 45.8167 142.383 46.4233 141.983C47.0667 141.56 47.5833 140.873 47.6267 140.083C47.6833 139.117 46.9867 138.46 46.1633 137.947C45.3367 137.437 44.2767 137.43 43.3367 137.253C44.3567 137.31 45.4733 136.9 46.3633 136.423C46.9367 136.113 47.6267 135.573 47.62 134.9C47.6133 134.113 46.7533 133.323 46.0433 132.987C45.2267 132.6 44.37 132.313 43.4933 132.133C44.71 132.033 46.3233 131.833 47.07 130.867C47.62 130.153 47.65 129.32 47.1867 128.51C46.7267 127.7 45.5267 127.02 43.9833 126.76" stroke="#002140" stroke-width="0.999999" stroke-linecap="round" stroke-linejoin="round"/>
<path d="M58.6865 140.87H124.803" stroke="#002140" stroke-width="0.999999" stroke-linecap="round" stroke-linejoin="round"/>
<path d="M193.433 47.5367C193.433 47.5367 195.38 62.04 193.196 71.3C190.606 82.28 188.49 87.3766 188.49 87.3766H180.453C175.913 87.3766 170.373 86.6733 164.883 93.34C164.393 93.9366 163.646 94.8366 162.7 95.9766C156.373 103.587 140.983 121.997 131.083 133.82C128.663 136.71 126.573 139.203 125.02 141.053C123.256 143.16 122.19 144.423 122.136 144.477" stroke="#002140" stroke-width="0.999999" stroke-linecap="round" stroke-linejoin="round"/>
<path d="M166.057 148.38C163.08 152.03 157.767 158.5 156.48 159.973C155.85 160.693 155.083 161.33 154.173 161.62C153.263 161.91 152.16 161.756 151.53 161.04C151.237 160.706 151.073 160.286 151.023 159.84C150.967 159.386 151.03 158.903 151.18 158.47C151.473 157.613 152.057 156.893 152.63 156.193C155.673 152.467 158.75 148.77 161.863 145.107" stroke="#002140" stroke-width="0.999999" stroke-linecap="round" stroke-linejoin="round"/>
<path d="M172.1 135.456V131.573C172.1 129.776 173.556 128.32 175.353 128.32C177.15 128.32 178.606 129.776 178.606 131.573V147.966C178.606 149.763 177.15 151.22 175.353 151.22C173.556 151.22 172.1 149.763 172.1 147.966V145.966C170.78 145.976 169.41 145.87 168.243 146.48C167.553 146.836 166.92 147.32 166.43 147.92C166.31 148.07 166.183 148.22 166.056 148.38" stroke="#002140" stroke-width="0.999999" stroke-linecap="round" stroke-linejoin="round"/>
<path d="M150.923 159.85C150.503 160.18 150.25 160.267 149.743 160.43C148.833 160.72 147.73 160.567 147.1 159.85C146.74 159.443 146.58 158.907 146.573 158.357C146.567 157.993 146.63 157.623 146.75 157.28C147.043 156.423 147.627 155.703 148.2 155C151.24 151.277 154.32 147.58 157.433 143.913" stroke="#002140" stroke-width="0.999999" stroke-linecap="round" stroke-linejoin="round"/>
<path d="M146.45 158.36C146.067 158.643 145.807 158.873 145.35 159.016C144.44 159.306 143.337 159.153 142.707 158.436C142.11 157.756 142.063 156.723 142.357 155.87C142.65 155.013 143.233 154.29 143.807 153.59C143.97 153.39 144.133 153.19 144.297 152.993C147.18 149.47 150.093 145.973 153.04 142.503" stroke="#002140" stroke-width="0.999999" stroke-linecap="round" stroke-linejoin="round"/>
<path d="M144.256 152.96C143.606 152.95 142.973 152.723 142.55 152.24C141.953 151.56 141.906 150.53 142.2 149.673C142.493 148.817 143.076 148.093 143.65 147.393C144.383 146.497 145.116 145.603 145.853 144.71C146.426 144.013 147.003 143.317 147.58 142.62C149.273 140.583 152.92 136.04 161.75 135.713C162.08 135.7 162.42 135.693 162.766 135.693L172.1 135.613" stroke="#002140" stroke-width="0.999999" stroke-linecap="round" stroke-linejoin="round"/>
<path d="M176.257 97.73C176.257 97.73 178.587 100.643 181.947 104.847C189.62 114.437 202.667 130.753 205.667 134.517C209.98 139.927 207.55 143.537 200.883 143.537H178.687" stroke="#002140" stroke-width="0.999999" stroke-linecap="round" stroke-linejoin="round"/>
<path d="M173.98 106.907L178.16 112.003L197.59 135.693H178.766" stroke="#002140" stroke-width="0.999999" stroke-linecap="round" stroke-linejoin="round"/>
<path d="M188.49 87.3766C188.49 87.3766 187.627 94.5166 182.293 104.633" stroke="#002140" stroke-width="0.999999" stroke-linecap="round" stroke-linejoin="round"/>
<path d="M178.06 112.083C178.06 112.083 169.04 128.32 161.747 135.613" stroke="#002140" stroke-width="0.999999" stroke-linecap="round" stroke-linejoin="round"/>
<path d="M122.136 144.71H133.98H145.853H145.903" stroke="#002140" stroke-width="0.999999" stroke-linecap="round" stroke-linejoin="round"/>
<path d="M133.98 144.476C134.293 144.006 158.767 113.887 158.767 113.887L156.02 109.34L162.373 108.163C162.373 108.163 169.097 99.2265 171.747 95.9665C176.333 90.3199 179.393 87.4565 188.333 87.4565" stroke="#002140" stroke-width="0.999999" stroke-linecap="round" stroke-linejoin="round"/>
<path d="M117.157 78.0833L119.13 67.0233L119.863 62.9066L112.803 64.6733" stroke="#002140" stroke-width="0.999999" stroke-linecap="round" stroke-linejoin="round"/>
<path d="M119.157 67.0266L123.393 69.0265L118.333 80.6732" stroke="#002140" stroke-width="0.999999" stroke-linecap="round" stroke-linejoin="round"/>
<path d="M129.747 91.9666L151.167 88.3832L158.57 87.1432L158.333 95.8499" stroke="#002140" stroke-width="0.999999" stroke-linecap="round" stroke-linejoin="round"/>
<path d="M162.686 95.9666H158.333H135.51" stroke="#002140" stroke-width="0.999999" stroke-linecap="round" stroke-linejoin="round"/>
<path d="M127.863 90.9065L150.57 82.4365L151.157 88.3199" stroke="#002140" stroke-width="0.999999" stroke-linecap="round" stroke-linejoin="round"/>
<path d="M136.333 159.3C127.47 156.633 126.45 152.32 126.45 152.32L116.333 158.043C116.333 158.043 126.133 165.156 136.333 159.3Z" stroke="#002140" stroke-width="0.999999" stroke-linecap="round" stroke-linejoin="round"/>
<path d="M116.333 158.043L116.413 161.573C116.413 161.573 124.49 167.927 136.1 162.673L136.333 159.3" stroke="#002140" stroke-width="0.999999" stroke-linecap="round" stroke-linejoin="round"/>
<path d="M198.136 154.256C209.19 151.59 210.46 147.276 210.46 147.276L223.08 153C223.08 153 210.856 160.113 198.136 154.256Z" stroke="#002140" stroke-width="0.999999" stroke-linecap="round" stroke-linejoin="round"/>
<path d="M223.08 153L222.98 156.53C222.98 156.53 212.906 162.883 198.43 157.626L198.136 154.256" stroke="#002140" stroke-width="0.999999" stroke-linecap="round" stroke-linejoin="round"/>
<path d="M244.646 150.28C247.626 150.203 252.1 148.007 252.1 148.007C252.1 148.007 252.243 146.07 252.253 144.323C252.256 144.243 252.256 144.163 252.256 144.083C246.14 144.217 240.946 142.973 239.586 142.613C239.356 142.553 239.236 142.517 239.236 142.517L239 146.83C239 146.83 240.57 149.26 244.646 150.28Z" stroke="#002140" stroke-width="0.999999" stroke-linecap="round" stroke-linejoin="round"/>
<path d="M252.02 144.32C252.02 144.32 248.49 146.75 244.96 147.22C241.51 146.203 239.55 142.75 239.55 142.75" stroke="#002140" stroke-width="0.999999" stroke-linecap="round" stroke-linejoin="round"/>
<path d="M244.646 150.28L244.96 147.22" stroke="#002140" stroke-width="0.999999" stroke-linecap="round" stroke-linejoin="round"/>
<path d="M234.67 126.083C234.703 126.07 234.733 126.057 234.766 126.043L236.646 128.633C219.626 140.947 208.177 127.613 208.177 127.613L208.257 123.3C208.283 123.293 208.39 123.287 208.567 123.283C210.467 123.233 220.256 123.3 220.256 123.3C220.256 123.3 225.083 130.157 234.67 126.083Z" stroke="#002140" stroke-width="0.999999" stroke-linecap="round" stroke-linejoin="round"/>
<path d="M208.57 123.377C208.57 123.377 218.843 138.123 234.686 126.123" stroke="#002140" stroke-width="0.999999" stroke-linecap="round" stroke-linejoin="round"/>
</svg>
