<?xml version="1.0" encoding="utf-8"?>
<!-- Generator: Adobe Illustrator 24.3.0, SVG Export Plug-In . SVG Version: 6.00 Build 0)  -->
<svg version="1.1" id="Layer_1" xmlns="http://www.w3.org/2000/svg" xmlns:xlink="http://www.w3.org/1999/xlink" x="0px" y="0px"
	 viewBox="0 0 20 20" style="enable-background:new 0 0 20 20;" xml:space="preserve">
<path d="M17.5,2.5c-1.8-1.6-4.5-1.6-6.2,0L10,3.9c-0.5,0.5-0.5,1.2,0,1.8l0.9,0.9l-5,5l-4.4,4.4c-0.1,0.1-0.2,0.2-0.2,0.5v1.1h2.2
	c0.1,0,0.4-0.1,0.5-0.1l1-1.1h1.2L7.5,15v-1.2l1.2-1.2H10l1.2-1.2l1.2-1.2l1-0.9l0.9,0.9c0.5,0.5,1.2,0.5,1.8,0l1.4-1.2
	C19.1,7,19.1,4.2,17.5,2.5z M17.4,5.2L17,5.6L14.4,3l0.4-0.4c0.2-0.2,0.8-0.2,1.1,0l1.5,1.5C17.6,4.5,17.6,5,17.4,5.2z"/>
</svg>
