<?xml version="1.0" encoding="utf-8"?>
<!-- Generator: Adobe Illustrator 26.5.0, SVG Export Plug-In . SVG Version: 6.00 Build 0)  -->
<svg version="1.1" id="Layer_1" xmlns="http://www.w3.org/2000/svg" xmlns:xlink="http://www.w3.org/1999/xlink" x="0px" y="0px"
	 viewBox="0 0 20 20" style="enable-background:new 0 0 20 20;" xml:space="preserve">
<style type="text/css">
	.st0{fill-rule:evenodd;clip-rule:evenodd;}
</style>
<path class="st0" d="M3,4C1.9,4,1,4.9,1,6v8c0,1.1,0.9,2,2,2h14c1.1,0,2-0.9,2-2V6c0-1.1-0.9-2-2-2H3z M3.5,6C3.2,6,3,6.2,3,6.5v1
	C3,7.8,3.2,8,3.5,8h1C4.8,8,5,7.8,5,7.5v-1C5,6.2,4.8,6,4.5,6H3.5z M3.5,9C3.2,9,3,9.2,3,9.5v1C3,10.8,3.2,11,3.5,11h1
	C4.8,11,5,10.8,5,10.5v-1C5,9.2,4.8,9,4.5,9H3.5z M3,12.5C3,12.2,3.2,12,3.5,12h1C4.8,12,5,12.2,5,12.5v1C5,13.8,4.8,14,4.5,14h-1
	C3.2,14,3,13.8,3,13.5V12.5z M9.5,6C9.2,6,9,6.2,9,6.5v1C9,7.8,9.2,8,9.5,8h1C10.8,8,11,7.8,11,7.5v-1C11,6.2,10.8,6,10.5,6H9.5z
	 M6,6.5C6,6.2,6.2,6,6.5,6h1C7.8,6,8,6.2,8,6.5v1C8,7.8,7.8,8,7.5,8h-1C6.2,8,6,7.8,6,7.5V6.5z M9.5,9C9.2,9,9,9.2,9,9.5v1
	C9,10.8,9.2,11,9.5,11h1c0.3,0,0.5-0.2,0.5-0.5v-1C11,9.2,10.8,9,10.5,9H9.5z M6,9.5C6,9.2,6.2,9,6.5,9h1C7.8,9,8,9.2,8,9.5v1
	C8,10.8,7.8,11,7.5,11h-1C6.2,11,6,10.8,6,10.5V9.5z M12.5,6C12.2,6,12,6.2,12,6.5v1C12,7.8,12.2,8,12.5,8h1C13.8,8,14,7.8,14,7.5
	v-1C14,6.2,13.8,6,13.5,6H12.5z M12,9.5C12,9.2,12.2,9,12.5,9h1C13.8,9,14,9.2,14,9.5v1c0,0.3-0.2,0.5-0.5,0.5h-1
	c-0.3,0-0.5-0.2-0.5-0.5V9.5z M6.5,12C6.2,12,6,12.2,6,12.5v1C6,13.8,6.2,14,6.5,14h7c0.3,0,0.5-0.2,0.5-0.5v-1
	c0-0.3-0.2-0.5-0.5-0.5H6.5z M15,6.5C15,6.2,15.2,6,15.5,6h1C16.8,6,17,6.2,17,6.5v1C17,7.8,16.8,8,16.5,8h-1C15.2,8,15,7.8,15,7.5
	V6.5z M15.5,9C15.2,9,15,9.2,15,9.5v1c0,0.3,0.2,0.5,0.5,0.5h1c0.3,0,0.5-0.2,0.5-0.5v-1C17,9.2,16.8,9,16.5,9H15.5z M15,12.5
	c0-0.3,0.2-0.5,0.5-0.5h1c0.3,0,0.5,0.2,0.5,0.5v1c0,0.3-0.2,0.5-0.5,0.5h-1c-0.3,0-0.5-0.2-0.5-0.5V12.5z"/>
</svg>
