<svg xmlns="http://www.w3.org/2000/svg" id="Layer_1" data-name="Layer 1" viewBox="0 0 233 163"><defs><style>.cls-1,.cls-10,.cls-11,.cls-12,.cls-13,.cls-2,.cls-3,.cls-4,.cls-5,.cls-6,.cls-7,.cls-8,.cls-9{stroke-width:0}.cls-1,.cls-13,.cls-14{fill:#0164bf}.cls-2{fill:#b0d9ff}.cls-3{fill:#28736d}.cls-4{fill:#8dc8ff}.cls-14,.cls-15,.cls-16,.cls-17{stroke:#002140;stroke-linecap:round;stroke-linejoin:round}.cls-15,.cls-16,.cls-17{fill:none}.cls-5{fill:#99f6ff}.cls-6{fill:#4ba6a6}.cls-7{fill:#fed607}.cls-8{fill:#5be3aa}.cls-9{fill:#50eef6}.cls-10{fill:#4ed7de}.cls-16,.cls-17{stroke-width:1px}.cls-11{fill:#fffaf0}.cls-12{fill:#5ab0ff}.cls-13{fill-rule:evenodd}</style></defs><path d="M189.422 27.377c0-1.451-1.176-2.637-2.618-2.637h-45.795c-1.439 0-2.618 1.186-2.618 2.637v31.455c0 1.451 1.179 2.637 2.618 2.637h45.795c1.442 0 2.618-1.186 2.618-2.637z" class="cls-1"/><path d="M188.997 117.766c-3.915-3.525-7.804-4.395-8.375-4.51 1.684-.273 3.629-.428 5.873-.428 4.355 0 8.158 2.083 11.307 4.938z" class="cls-10"/><path d="M17.326 107.643a7 7 0 0 1-.977-.761l1.022.775-.043-.011h-.003v-.003Zm.503 2.54c.374-.506.939-.822 1.773-1.017-.488.313-1.288.724-1.773 1.017" class="cls-9"/><path d="M191.198 120.063a22 22 0 0 0-2.201-2.297h8.806a31 31 0 0 1 2.746 2.849 88 88 0 0 0-9.337-.198z" class="cls-10"/><path d="M183.731 122.427a10 10 0 0 0-.982-.937l.151-.178s2.873-.703 8.312-.896a88 88 0 0 1 9.337.198h.003c4.049 4.76 6.582 10.318 7.241 12.386 1.245 3.895-1.105 5.563-4.285 5.563h-10.234c-1.536 0-2.804-.109-3.892-.321l.017-.095c.417-6.678-2.487-12.242-5.668-15.72m5.691-95.051c0-1.451-1.176-2.637-2.618-2.637h-45.795c-1.439 0-2.618 1.186-2.618 2.637v31.455c0 1.451 1.179 2.637 2.618 2.637h45.795c1.442 0 2.618-1.186 2.618-2.637zm1.056 40.144h-53.606a5.32 5.32 0 0 1-3.412-1.238 5.41 5.41 0 0 1-1.962-4.168V23.955c0-2.973 2.419-5.406 5.374-5.406h53.606c1.203 0 2.316.402 3.213 1.077a5.42 5.42 0 0 1 2.164 4.329v38.159c0 2.973-2.418 5.406-5.377 5.406" class="cls-10"/><path d="M81.526 137.265H51.099c-3.872 0-5.165-.741-8.852-4.079-3.689-3.34-24.342-22.447-24.342-22.447l-.326-.143q.107-.228.246-.414h.003c.485-.293 1.285-.704 1.773-1.017.951-.218 2.256-.278 4.02-.278h89.622c3.72 0 6.721.482 9.291 1.841q.92.485 1.77 1.126c.554.416 1.562 1.284 2.85 2.436 5.582 4.989 16.447 15.3 18.543 17.411.888.894 1.556 1.655 2.053 2.382l-.209.215s.737 2.967-2.952 2.967h-35.772v-.37s-2.03-2.04-4.797-4.452c-1.873-1.635-3.872-2.781-7.744-2.781H77.65c-3.318 0-3.504 2.039-1.105 3.895a193 193 0 0 0 4.98 3.708Zm4.795-24.854H35.978c-5.297 0-5.765 2.149-3.823 4.455q.232.276.505.551c1.845 1.856 3.181 3.1 4.726 4.527.54.497 1.105 1.017 1.728 1.594 2.398 2.226 4.98 2.97 9.406 2.97h76.895c5.163 0 7.019-.382 4.058-3.711q-.501-.562-.96-1.065c-1.933-2.111-3.409-3.519-5.205-4.998a81 81 0 0 0-1.95-1.543c-3.327-2.559-7.847-2.763-12.701-2.777q-.653-.004-1.313-.003H86.323Z" class="cls-9"/><path d="M19.602 109.166c-.834.195-1.399.511-1.773 1.017h-.003a2.3 2.3 0 0 0-.371.261c-.043.043-.077.029-.111-.029q.008-.16.008-.324c0-.463-.066-1.089-.166-1.66-.003-.468.006-.83.006-.83s.049.014.134.043h.003q.08.058.166.109l.02.011c.728.44 1.536.756 2.401.911.071.049.114.092.114.123 0 .075-.171.21-.428.368" class="cls-3"/><path d="M84.377 42.292H21.19c-3.935 0-7.156 3.24-7.156 7.198v52.104a7.2 7.2 0 0 0 2.307 5.282l-3.218-2.439-3.898-2.949a9.9 9.9 0 0 1-4.203-8.092V46.652c0-5.434 4.417-9.878 9.82-9.878h61.434s6.442 4.265 8.101 5.518c.725.546-.348-.313 0 0" class="cls-6"/><path d="M170.868 120.201c0-.726.234-1.577.802-2.435h17.327a22 22 0 0 1 2.201 2.297l.014.354c-5.439.192-8.312.896-8.312.896l-.151.178c-3.269-2.72-8.229-3.401-11.604-1.011h-.274q-.004-.133-.003-.279" class="cls-10"/><path d="M158.773 98.391a14 14 0 0 1-3.855.523h-4.38c1.522-2.643 1.659-5.426-.137-8.068v-.325h2.304c1.33 0 2.356-.175 3.129-.549l.74.327c2.393 2.114 2.941 4.846 2.116 7.784l.083.307Z" class="cls-3"/><path d="M17.495 107.753a4 4 0 0 1-.166-.107l.043.012.006.003z" class="cls-9"/><path d="M108.655 112.414c4.854.014 9.374.218 12.701 2.778a78 78 0 0 1 1.95 1.542l-.106.129h-10.128l-4.417-4.268z" class="cls-5"/><path d="M173.486 115.898c.857-.629 1.953-1.215 3.335-1.703 1.082-.382 2.339-.704 3.795-.939 0 0 0 .003.006 0 .571.115 4.46.985 8.375 4.509H171.67c.414-.632 1.008-1.269 1.816-1.867" class="cls-10"/><path d="M150.401 90.846c1.796 2.643 1.659 5.426.137 8.068H142.7c1.522-2.643 1.662-5.426-.137-8.068v-.325h7.838z" class="cls-3"/><path d="M171.67 117.766c-.568.858-.802 1.709-.802 2.435q0 .145.003.282c.014 2.527.282 2.927 2.624 5.282 2.767 2.783 8.437 7.93 8.437 7.93 2.499 2.307 4.135 3.901 7.45 4.547 1.088.213 2.356.322 3.892.322h10.234c3.18 0 5.53-1.669 4.285-5.564-.659-2.068-3.192-7.626-7.241-12.385h-.003a30.5 30.5 0 0 0-2.747-2.849h3.493c5.393 0 6.361.071 9.956 2.852 3.598 2.783 16.25 15.094 19.502 18.365.911.917 1.454 2.077 1.325 3.051-.14 1.097-1.13 1.956-3.4 1.956h-45.641c-5.667 0-7.743.836-12.583-3.2-4.843-4.033-14.8-13.353-18.394-16.832-1.06-1.022-1.565-1.982-1.659-2.82-.229-2.02 1.927-3.372 4.562-3.372z" class="cls-4"/><path d="M19.916 108.674a7 7 0 0 1-2.401-.91l-.02-.012-.117-.092c.543.184 2.104.718 2.538 1.014" class="cls-9"/><path d="M17.226 111.457c-.44 2.361-1.99 4.105-3.838 4.105-1.119 0-2.13-.641-2.85-1.669-.691-.985-1.116-2.324-1.116-3.803 0-2.823 1.55-5.147 3.541-5.44l.16-.212 3.218 2.438.009.006q.284.266.594.497c.089.278.174.652.243 1.051.003.741.031 1.746.157 1.985a7 7 0 0 1-.117 1.042Z" class="cls-6"/><path d="M113.923 108.792H21.19c-.434 0-.862-.04-1.273-.118-.434-.295-1.996-.83-2.538-1.014l-.006-.002-1.022-.776-.009-.006a7.2 7.2 0 0 1-2.307-5.282V49.49c0-3.958 3.221-7.198 7.156-7.198h57.964c.451.399.134 5.624.134 6.957H25.861c-2.55 0-4.634 2.097-4.634 4.662v42.148c0 2.565 2.084 4.665 4.634 4.665h82.837c2.55 0 4.637-2.1 4.637-4.665V53.911c0-2.565-2.087-4.662-4.637-4.662h-29.41q.026-.383.026-.836c0-2.783-.16-4.311-.16-6.121 0-.144.014.135 0 0h34.769c1.354 0 2.622.382 3.704 1.045a7.22 7.22 0 0 1 3.452 6.153v52.104c0 3.961-3.218 7.198-7.156 7.198" class="cls-9"/><path d="M53.181 68.189c-1.156 0-1.85-.91-1.85-2.479s.694-2.482 1.85-2.482 1.847.893 1.847 2.482-.694 2.479-1.847 2.479" class="cls-8"/><path d="M165.994 74.627c-2.63-1.531-5.394-1.669-8.024.141h-.103v-7.247h8.666v7.106z" class="cls-3"/><path d="m133.343 66.428-5.885-4.472a7.42 7.42 0 0 1-2.621-5.661v-35.45c0-4.082 3.317-7.419 7.375-7.419h51.225c1.925 0 3.295.764 4.997 1.973l5.348 4.107-.091.121a5.33 5.33 0 0 0-3.213-1.077h-53.606c-2.955 0-5.374 2.433-5.374 5.406v38.159c0 1.672.765 3.174 1.962 4.168zM17.187 108.431c.1.571.166 1.197.166 1.66q0 .164-.009.324c-.126-.238-.154-1.243-.157-1.984" class="cls-6"/><path d="M82.263 121.87H71.935v-.184l-4.84-4.823h10.639l4.529 4.449z" class="cls-5"/><path d="M104.706 36.774c1.825 0 3.538.508 5.006 1.387l8.04 4.978-.122.198a7.06 7.06 0 0 0-3.704-1.046h-34.77c-.126-1.585-1.014-2.726-2.607-3.757-.914-.592-1.83-1.183-2.715-1.761h30.875z" class="cls-6"/><path d="M95.172 121.87H82.263v-.558l-4.529-4.449h12.829l4.608 4.636zm27.497 4.639h-11.755v-.371l-4.417-4.268h11.755l4.417 4.268z" class="cls-5"/><path d="m81.301 67.267.177-.822q.416.119.899.23l.771.175c.811.175 1.099.554 1.099.925 0 .529-.465.764-1.273.764-1.059 0-1.539-.391-1.673-1.272" class="cls-8"/><path d="M96.277 129.662c3.872 0 5.871 1.146 7.744 2.781a103 103 0 0 1 4.797 4.452v.37H81.526s-2.584-1.853-4.98-3.708c-2.398-1.856-2.213-3.895 1.105-3.895zm32.086-7.792h-10.111l-5.18-5.006H123.2l.106-.13c1.796 1.48 3.272 2.887 5.205 4.998z" class="cls-5"/><path d="M82.871 62.588c.905 0 1.388.296 1.388 1.175h3.375v3.797h-.343c0-1.68-1.125-2.441-3.706-3.03l-.771-.172c-.811-.178-1.099-.531-1.099-.902 0-.528.443-.867 1.157-.867Z" class="cls-8"/><path d="M49.877 112.411v.184l4.417 4.268H43.715l-4.417-4.268v-.184z" class="cls-5"/><path d="M63.543 68.307c-.942 0-1.656-.546-1.827-1.939h6.567v-.405h.5v1.278h-3.604c-.134.523-.54 1.066-1.636 1.066" class="cls-8"/><path d="M134.865 98.914c1.519-2.643 1.658-5.426-.14-8.068v-.325h7.838v.325c1.798 2.643 1.659 5.426.137 8.068z" class="cls-3"/><path d="m17.58 110.596.326.143s20.653 19.107 24.342 22.447c3.686 3.338 4.98 4.079 8.852 4.079h93.49c3.689 0 2.952-2.967 2.952-2.967l.209-.215c.948 1.39 1.265 2.656 1.265 4.48v5.196c0 2.968-1.105 4.082-5.899 4.082H51.1c-6.456 0-8.115-1.301-11.619-4.268-.374-.316-.848-.724-1.399-1.201l-.017-.307c2.413-.15 2.707-.919 2.707-2.574 0-1.852 0-2.41-1.382-3.708 0 0-.831-.744-2.858-2.413-2.03-1.669-2.767-1.482-5.534-1.482-1.673 0-3.484-.273-4.651.293l-.088-.169-5.402-4.763c-2.95-2.596-3.686-3.894-3.686-7.235v-6.678c0-.733.04-1.347.137-1.861.066-.334.154-.627.274-.879Z" class="cls-6"/><path d="M32.154 116.866c-1.942-2.306-1.473-4.455 3.823-4.455h3.321v.184l4.417 4.268H32.154z" class="cls-5"/><path d="M9.794 118.903c-3.504 0-4.057 3.154-1.476 5.934 2.581 2.784 5.716 5.753 8.298 7.977 2.581 2.226 3.781 2.134 5.625 2.134h4.885c2.213 0 2.767 4.36.186 4.36h-4.794c-5.348 0-6.824-1.115-10.142-3.895-3.321-2.783-3.504-3.524-7.561-7.235s-3.504-5.193-3.504-7.977 2.581-6.307 6.453-6.307h2.775c.72 1.028 1.73 1.669 2.85 1.669 1.847 0 3.398-1.744 3.838-4.105l.08.017c-.097.514-.137 1.129-.137 1.861v5.567z" class="cls-3"/><path d="M47.913 60.925h.431v9.573h-.22l-3.372-4.943z" class="cls-8"/><path d="m158.447 87.095-.68-.077q.102-.68.1-1.505v-2.864h.103c2.63-1.807 5.394-1.669 8.024-.138h.539v4.673c0 1.841-.282 3.45-.788 4.834l-.294-.109c-1.362-2.898-3.666-4.716-7.004-4.814" class="cls-3"/><path d="M106.497 121.87H95.172v-.371l-4.609-4.636h10.753zm-33.108-9.459v.184l4.346 4.268H67.096l-4.286-4.268v-.184z" class="cls-5"/><path d="M127.027 98.914c1.521-2.643 1.659-5.426-.14-8.068v-.325h7.838v.325c1.799 2.643 1.659 5.426.14 8.068zm.128 15.376c-1.288-1.152-2.296-2.019-2.85-2.436a13 13 0 0 0-1.77-1.126l.066-.126c1.522-1.39 3.318-1.39 8.574-1.39h34.022c6.362 0 7.053 1.111 11.479 4.452l.145.531c-1.382.489-2.478 1.075-3.335 1.704l-.128-.288c-2.904-2.366-3.044-2.504-6.916-2.504h-32.086c-4.011 0-6.638-.279-6.775.973z" class="cls-3"/><path d="M121.079 90.521h5.808v.325c1.799 2.643 1.661 5.426.14 8.068h-5.948z" class="cls-3"/><path d="m108.655 112.595 4.417 4.268h-11.755l-4.417-4.268v-.184h10.442q.66 0 1.313.003zm-49.181 9.275H48.895l-5.18-5.007h10.579z" class="cls-5"/><path d="M157.97 74.766c2.63-1.81 5.394-1.672 8.024-.141h.539v7.884h-.539c-2.63-1.531-5.394-1.669-8.024.138h-.103v-7.882h.103Z" class="cls-3"/><path d="M63.892 126.509H53.313v-.371l-4.417-4.268h10.579l4.417 4.268zm22.429-14.098v.184l4.243 4.268H77.735l-4.346-4.268v-.184z" class="cls-5"/><path d="M25.861 49.249c-2.55 0-4.634 2.097-4.634 4.662v42.148c0 2.565 2.084 4.665 4.634 4.665h82.837c2.55 0 4.637-2.1 4.637-4.665V53.911c0-2.565-2.087-4.662-4.637-4.662z" class="cls-13"/><path d="M101.54 73.419a1.6 1.6 0 0 1 0 3.2h-6.435a1.6 1.6 0 0 1-.001-3.2h6.435Zm0 7.16a1.6 1.6 0 0 1 0 3.2h-6.435a1.6 1.6 0 0 1-.001-3.2h6.435Zm0 7.159a1.6 1.6 0 0 1 0 3.2h-6.435a1.6 1.6 0 0 1-1.125-2.731c.288-.29.687-.469 1.124-.469h6.435ZM89.796 73.419a1.6 1.6 0 0 1 0 3.2h-6.434a1.6 1.6 0 0 1-1.125-2.731c.288-.29.687-.469 1.125-.469zm0 7.16a1.6 1.6 0 0 1 0 3.2h-6.434a1.6 1.6 0 0 1-1.125-2.731c.288-.29.687-.469 1.125-.469zm0 7.159a1.6 1.6 0 0 1 0 3.2h-6.434a1.602 1.602 0 0 1-1.125-2.731c.288-.29.687-.469 1.125-.469zM54.251 58.76a1.603 1.603 0 0 1 0 3.205H34.322a1.602 1.602 0 0 1 0-3.203h19.929Zm0 22.195a1.603 1.603 0 0 1 0 3.205H34.322a1.602 1.602 0 0 1 0-3.203h19.929Zm-7.367-7.536a1.6 1.6 0 0 1 0 3.2H34.322a1.6 1.6 0 0 1 0-3.2zm0 14.319a1.6 1.6 0 0 1 0 3.2H34.322a1.6 1.6 0 0 1-1.125-2.731c.288-.29.687-.469 1.125-.469z" class="cls-10"/><path d="M54.251 61.964H34.322a1.602 1.602 0 0 1 0-3.203h19.929a1.603 1.603 0 0 1 0 3.205Zm-7.367 14.655H34.322a1.6 1.6 0 0 1 0-3.2h12.562a1.6 1.6 0 0 1 0 3.2m7.367 7.54H34.322a1.602 1.602 0 0 1 0-3.203h19.929a1.603 1.603 0 0 1 0 3.205Zm-7.367 6.78H34.322a1.6 1.6 0 0 1-1.125-2.731c.288-.29.687-.469 1.125-.469h12.562a1.6 1.6 0 0 1 0 3.2m54.656-14.32h-6.435a1.6 1.6 0 0 1-.001-3.2h6.435a1.6 1.6 0 0 1 0 3.2Zm0 14.32h-6.435a1.6 1.6 0 0 1-1.125-2.731c.288-.29.687-.469 1.124-.469h6.435a1.6 1.6 0 0 1 0 3.2Zm0-7.159h-6.435a1.6 1.6 0 0 1-.001-3.2h6.435a1.6 1.6 0 0 1 0 3.2Zm-11.744-7.161h-6.434a1.6 1.6 0 0 1-1.125-2.731c.288-.29.687-.469 1.125-.469h6.434a1.6 1.6 0 0 1 0 3.2m0 14.32h-6.434a1.602 1.602 0 0 1-1.125-2.731c.288-.29.687-.469 1.125-.469h6.434a1.6 1.6 0 0 1 0 3.2m0-7.159h-6.434a1.6 1.6 0 0 1-1.125-2.731c.288-.29.687-.469 1.125-.469h6.434a1.6 1.6 0 0 1 0 3.2M77.7 75.943h-2.512m-4.606 0H68.07m-4.605 0h-2.513m-4.605 0h-2.513M77.7 83.461h-2.512m-4.606 0H68.07m-4.605 0h-2.513M77.7 90.979h-2.512m-4.606 0H68.07m-4.605 0h-2.513m-4.605 0h-2.513m30.681-32.513h18.363m-18.363 3.58h18.363m-69.805 5.839h69.57" class="cls-16"/><path d="M27.312 139.307c2.581 0 2.027-4.36-.186-4.36h-2.027v-.279c0-1.39.488-2.116 1.248-2.487 1.168-.566 2.978-.293 4.651-.293 2.767 0 3.503-.187 5.534 1.482 2.027 1.669 2.858 2.413 2.858 2.413 1.382 1.298 1.382 1.855 1.382 3.708 0 1.654-.294 2.424-2.707 2.574a17 17 0 0 1-.979.025H31.37c-1.845 0-4.058-2.783-4.058-2.783" class="cls-6"/><path d="M110.914 126.509H63.892v-.371l-4.417-4.268h47.022l4.418 4.268v.371Zm7.338-4.639h-11.755l-5.18-5.007h11.755zm-46.317 0H59.474l-5.18-5.007h12.801l4.84 4.823zm-34.481 0h11.442l4.417 4.268v.371h-4.794c-4.426 0-7.007-.744-9.406-2.97-.623-.577-1.188-1.097-1.728-1.594z" class="cls-5"/><path d="M32.474 116.863h11.242l5.18 5.007H37.455l-.069.074c-1.545-1.427-2.881-2.671-4.726-4.526a9 9 0 0 1-.505-.552h.32z" class="cls-5"/><path d="M170.871 120.482h.274c3.375-2.392 8.335-1.711 11.604 1.009q.523.436.982.936c3.181 3.478 6.085 9.042 5.668 15.72l-.017.095c-3.315-.646-4.951-2.24-7.45-4.547 0 0-5.67-5.147-8.437-7.93-2.342-2.356-2.61-2.755-2.624-5.283" class="cls-10"/><path d="M62.809 112.411v.184l4.286 4.268h-12.8l-4.417-4.268v-.184H62.81Z" class="cls-5"/><path d="M155.834 89.973c1.125-.543 1.716-1.505 1.933-2.956l.68.077c3.338.098 5.642 1.916 7.004 4.814l.294.109c-1.245 3.415-3.854 5.48-6.972 6.374l-.083-.307c.825-2.938.277-5.67-2.116-7.784z" class="cls-3"/><path d="M96.9 112.411v.184l4.417 4.268H90.564l-4.243-4.268v-.184zm32.571 10.387c2.961 3.329 1.105 3.711-4.058 3.711h-2.744v-.37l-4.417-4.269h10.111l.148-.138q.459.503.96 1.066" class="cls-5"/><path d="m232.135 142.042-.068 5.604c-.183 1.052-1.182 1.864-3.389 1.864h-45.641c-5.668 0-7.743.833-12.583-3.199-4.843-4.036-14.8-13.357-18.394-16.835-.783-.755-1.263-1.473-1.5-2.137l-.159-.6v-5.601c.094.838.599 1.798 1.659 2.82 3.594 3.479 13.551 12.799 18.394 16.832 4.84 4.036 6.915 3.2 12.583 3.2h45.641c2.27 0 3.26-.859 3.4-1.956z" class="cls-12"/><path d="M197.802 117.766h3.493c5.393 0 6.361.071 9.956 2.852 3.598 2.783 16.25 15.094 19.502 18.365.911.917 1.454 2.077 1.325 3.051-.14 1.097-1.13 1.956-3.4 1.956h-45.641c-5.667 0-7.743.836-12.583-3.2-4.843-4.033-14.8-13.353-18.394-16.832-1.06-1.022-1.565-1.982-1.659-2.82-.229-2.02 1.927-3.372 4.562-3.372h16.707" class="cls-17"/><path d="M150.56 127.339c.237.663.717 1.381 1.5 2.137 3.594 3.478 13.551 12.799 18.394 16.834 4.84 4.033 6.916 3.2 12.583 3.2h45.641c2.207 0 3.206-.813 3.389-1.864l.068-5.604m-81.734-21.425v6.121M79.288 49.249h29.41c2.55 0 4.637 2.097 4.637 4.662v42.148c0 2.565-2.087 4.665-4.637 4.665H25.861c-2.55 0-4.634-2.1-4.634-4.665V53.911c0-2.565 2.084-4.662 4.634-4.662z" class="cls-17"/><path d="M79.154 42.293h34.769c1.354 0 2.622.382 3.704 1.046a7.22 7.22 0 0 1 3.452 6.153v52.104c0 3.961-3.218 7.198-7.156 7.198H21.19c-.434 0-.862-.04-1.273-.118a7 7 0 0 1-2.401-.911" class="cls-17"/><path d="M16.341 106.877a7.2 7.2 0 0 1-2.307-5.282V49.491c0-3.958 3.221-7.198 7.156-7.198h58.048m-61.743 65.459a4 4 0 0 1-.166-.106h-.003a7 7 0 0 1-.977-.764m88.357-70.108c1.825 0 3.538.508 5.006 1.387l.005.003m8.612 5.335-.579-.359-8.041-4.975" class="cls-17"/><path d="M49.977 36.774H14.842c-5.402 0-9.82 4.444-9.82 9.878v46.744a9.9 9.9 0 0 0 4.203 8.092l3.898 2.949 3.218 2.439.009.006 1.022.775s.003.003.006.003l.117.092.02.012.363.275m86.828-71.265H49.684M38.082 142.372c.551.477 1.025.885 1.399 1.201 3.504 2.967 5.163 4.268 11.619 4.268h92.017c4.794 0 5.899-1.114 5.899-4.082v-5.196c0-1.823-.317-3.09-1.265-4.48-.497-.727-1.165-1.488-2.053-2.382-2.096-2.111-12.961-12.422-18.543-17.411-1.288-1.152-2.296-2.02-2.85-2.436a13 13 0 0 0-1.77-1.126c-2.57-1.359-5.571-1.841-9.291-1.841H23.622c-1.765 0-3.069.06-4.02.278-.834.196-1.399.512-1.773 1.017h-.003a2.5 2.5 0 0 0-.246.414 3.7 3.7 0 0 0-.274.879c-.097.514-.137 1.128-.137 1.861v6.678c0 3.341.737 4.639 3.686 7.235.991.871 3.015 2.657 5.402 4.763" class="cls-17"/><path d="M17.906 110.739s20.653 19.107 24.342 22.447c3.686 3.338 4.98 4.079 8.852 4.079h93.49c3.689 0 2.952-2.967 2.952-2.967" class="cls-17"/><path d="M81.526 137.265s-2.584-1.853-4.98-3.708c-2.398-1.856-2.213-3.895 1.105-3.895h18.626c3.872 0 5.871 1.146 7.744 2.781a103 103 0 0 1 4.797 4.452m13.851-10.387h2.744c5.163 0 7.019-.382 4.058-3.711q-.501-.562-.96-1.065c-1.933-2.111-3.409-3.519-5.205-4.998-.602-.494-1.245-1-1.95-1.542-3.327-2.56-7.847-2.764-12.701-2.778q-.653-.004-1.313-.003H35.978c-5.297 0-5.765 2.149-3.823 4.455q.232.276.505.552c1.845 1.855 3.181 3.099 4.726 4.526.54.497 1.105 1.017 1.728 1.594 2.398 2.227 4.98 2.97 9.406 2.97h74.151Zm-90.195-9.645H123.2m-85.746 5.007h90.909" class="cls-17"/><path d="m39.298 112.596 4.417 4.268 5.18 5.006 4.417 4.269m-3.435-13.543 4.417 4.268 5.18 5.006 4.417 4.269m-1.082-13.543 4.286 4.268 4.84 4.823m1.454-9.091 4.346 4.268 4.529 4.449m4.057-8.717 4.243 4.268 4.608 4.636m1.728-8.904 4.417 4.268 5.18 5.006 4.417 4.269m-2.259-13.543 4.417 4.268 5.18 5.006 4.417 4.269m-105.725-18.76c.089.279.174.652.243 1.051.1.572.166 1.198.166 1.661q0 .164-.009.324a7 7 0 0 1-.117 1.043c-.44 2.361-1.99 4.104-3.838 4.104-1.119 0-2.13-.64-2.85-1.669-.691-.985-1.116-2.323-1.116-3.802 0-2.824 1.55-5.148 3.541-5.441m.425 10.912h3.227" class="cls-17"/><path d="M10.345 113.894H7.764c-3.872 0-6.453 3.524-6.453 6.307s-.554 4.266 3.504 7.977 4.24 4.452 7.561 7.235c3.318 2.78 4.794 3.895 10.142 3.895h4.794c2.581 0 2.027-4.36-.186-4.36h-4.885c-1.845 0-3.044.092-5.625-2.135-2.581-2.223-5.716-5.193-8.298-7.976-2.581-2.78-2.027-5.934 1.476-5.934h7.19m-6.433-5.009h-.011m-.001 0h-.194" class="cls-17"/><path d="M25.099 134.668c0-1.39.488-2.116 1.248-2.487 1.168-.566 2.978-.293 4.651-.293 2.767 0 3.503-.187 5.534 1.482 2.027 1.669 2.858 2.413 2.858 2.413 1.382 1.298 1.382 1.855 1.382 3.708 0 1.654-.294 2.424-2.707 2.574a17 17 0 0 1-.979.025H31.37c-1.845 0-4.058-2.783-4.058-2.783m93.858-48.785h31.535c1.33 0 2.356-.175 3.129-.549 1.125-.543 1.716-1.505 1.933-2.956q.102-.68.1-1.505V67.707" class="cls-17"/><path d="M121.079 98.914h33.839c1.328 0 2.632-.169 3.855-.523 3.118-.893 5.727-2.959 6.972-6.374.506-1.384.788-2.993.788-4.834V67.89m27.158-48.263a5.42 5.42 0 0 1 2.164 4.329v38.159c0 2.973-2.418 5.406-5.377 5.406h-53.606a5.32 5.32 0 0 1-3.412-1.238 5.41 5.41 0 0 1-1.962-4.168v-38.16c0-2.973 2.419-5.406 5.374-5.406h53.606c1.203 0 2.316.402 3.213 1.077Z" class="cls-17"/><path d="m133.343 66.428-5.885-4.472a7.42 7.42 0 0 1-2.621-5.661v-35.45c0-4.082 3.317-7.419 7.375-7.419h51.225c1.925 0 3.295.764 4.997 1.973l5.348 4.107.928.712" class="cls-17"/><path d="M189.422 58.832c0 1.451-1.176 2.637-2.618 2.637h-45.795c-1.439 0-2.618-1.186-2.618-2.637V27.377c0-1.451 1.179-2.637 2.618-2.637h45.795c1.442 0 2.618 1.186 2.618 2.637zm-62.535 32.014c1.799 2.642 1.661 5.426.14 8.068m7.698-8.068c1.798 2.642 1.659 5.426.14 8.068m7.698-8.068c1.799 2.642 1.659 5.426.137 8.068m7.701-8.068c1.796 2.642 1.659 5.426.137 8.068m6.036-8.613c2.393 2.114 2.941 4.846 2.116 7.784m-.243-10.99c3.338.098 5.642 1.916 7.004 4.814m-7.481-9.26c2.63-1.807 5.394-1.669 8.024-.138m-8.024-7.745c2.63-1.81 5.394-1.672 8.024-.141m14.622 38.631c-1.456.235-2.713.557-3.795.939-1.382.488-2.478 1.074-3.335 1.703-.808.598-1.402 1.235-1.816 1.867-.568.859-.802 1.709-.802 2.436q0 .145.003.282c.014 2.527.282 2.926 2.624 5.282 2.767 2.783 8.437 7.93 8.437 7.93 2.499 2.307 4.135 3.901 7.45 4.547 1.088.213 2.356.322 3.892.322h10.233c3.181 0 5.531-1.669 4.286-5.564-.659-2.068-3.192-7.626-7.241-12.385" class="cls-17"/><path d="M200.549 120.615a30.5 30.5 0 0 0-2.747-2.849c-3.149-2.855-6.952-4.938-11.307-4.938-2.244 0-4.189.155-5.873.428m-9.477 7.224c3.375-2.39 8.335-1.709 11.604 1.011q.523.436.982.937c3.181 3.478 6.085 9.042 5.668 15.72" class="cls-17"/><path d="M182.9 121.312s2.873-.703 8.312-.896a88 88 0 0 1 9.337.198h.003l.052.003m-20.054-7.373s.023 0 .066.012q-.001.002.006 0c.571.115 4.46.985 8.375 4.509a22 22 0 0 1 2.201 2.298m-68.597-9.461c1.522-1.39 3.318-1.39 8.574-1.39h34.022c6.362 0 7.053 1.111 11.479 4.452" class="cls-17"/><path d="M173.358 115.611c-2.904-2.367-3.044-2.505-6.916-2.505h-32.086c-4.011 0-6.638-.278-6.775.974" class="cls-17"/><path d="M169.013 56.97c.283 0 1.094-.208 1.094-1.032s-.781-1.032-1.094-1.032h-9.897c-.283 0-1.095.208-1.095 1.032s.781 1.032 1.095 1.032zm0-26.172c.283 0 1.094-.208 1.094-1.032s-.781-1.032-1.094-1.032h-9.897c-.283 0-1.095.208-1.095 1.032s.781 1.032 1.095 1.032z" class="cls-14"/><path d="M170.549 31.838c1.331.997 1.763 2.431 1.331 4.07-.796 3.021-6.227 4.766-6.265 6.946v.023c.038 2.18 5.467 3.925 6.265 6.946.432 1.64 0 3.074-1.331 4.07s-3.583 1.396-6.403 1.396h-.108c-2.82 0-5.072-.399-6.403-1.396s-1.763-2.431-1.329-4.07c.796-3.021 6.228-4.766 6.263-6.946v-.023c-.038-2.18-5.467-3.925-6.263-6.946-.431-1.64-.002-3.074 1.329-4.07s3.583-1.396 6.403-1.396h.108c2.82 0 5.073.399 6.403 1.396M168.9 53.124c.663-.331.743-.761.248-1.1 0 0-3.319-2.255-4.999-2.255h-.056c-1.68 0-4.999 2.255-4.999 2.255-.495.339-.417.768.246 1.1.703.352 1.614.665 4.728.665h.106c3.113 0 4.025-.314 4.728-.665zm-4.46-10.476a.452.452 0 1 0-.903 0 .452.452 0 0 0 .903 0m0 3.674a.452.452 0 1 0-.903 0 .452.452 0 0 0 .903 0" class="cls-2"/><path d="M169.743 48.403c1.329 1.366 1.763 2.865.919 3.104-.954.266-.916-1.007-2.644-2.343-1.544-1.193-1.783-1.728-1.348-2.21.381-.427 1.434-.236 3.073 1.449" class="cls-11"/><path d="M169.146 52.027c.494.339.417.768-.249 1.1-.703.352-1.615.666-4.728.666h-.106c-3.114 0-4.025-.314-4.728-.666-.663-.331-.741-.761-.246-1.1 0 0 3.319-2.255 4.999-2.255h.056c1.68 0 4.999 2.255 4.999 2.255zm-.937-15.195c.394 0 .558.467.236.681 0 0-2.915 2.433-4.409 2.433s-4.51-2.433-4.51-2.433c-.319-.213-.158-.681.236-.681zm-4.221 5.366a.452.452 0 1 1 0 .903.452.452 0 0 1 0-.903m0 3.674a.452.452 0 1 1 0 .903.452.452 0 0 1 0-.903" class="cls-7"/><path d="M170.246 32.826c1.172 1.401.899 3.887-.131 3.877-.899-.008-.07-.864-.708-2.257s-2.084-1.534-1.617-2.348c.346-.608 1.617-.274 2.456.731z" class="cls-11"/><path d="M162.567 42.876c-.038 2.18-5.467 3.925-6.263 6.946-.432 1.64-.003 3.074 1.328 4.07s3.584 1.396 6.404 1.396m1.579-12.412c.038 2.18 5.467 3.925 6.265 6.946.432 1.64 0 3.074-1.331 4.07s-3.583 1.396-6.403 1.396m1.469-12.412v-.023c.038-2.18 5.467-3.925 6.265-6.946.432-1.64 0-3.074-1.331-4.07s-3.583-1.396-6.403-1.396m-1.579 12.435v-.023c-.038-2.18-5.467-3.925-6.263-6.946-.432-1.64-.003-3.074 1.328-4.07s3.584-1.396 6.404-1.396" class="cls-15"/><path d="M159.764 36.832h8.445c.394 0 .558.467.236.681 0 0-2.915 2.433-4.409 2.433s-4.51-2.433-4.51-2.433c-.319-.213-.158-.681.236-.681zm4.299 16.957c-3.114 0-4.025-.314-4.728-.665-.663-.332-.741-.761-.246-1.1 0 0 3.319-2.255 4.999-2.255m.081 4.02c3.113 0 4.025-.314 4.728-.665.663-.332.743-.761.249-1.1 0 0-3.32-2.255-5-2.255m.294-7.119a.452.452 0 1 1-.903 0 .452.452 0 0 1 .903 0m0 3.674a.452.452 0 1 1-.903 0 .452.452 0 0 1 .903 0" class="cls-15"/></svg>