<svg width="218" height="190" viewBox="0 0 218 190" fill="none" xmlns="http://www.w3.org/2000/svg">
<path d="M199.21 34.7016C199.29 34.5226 201.844 28.7428 201.844 23.0786C201.844 16.2441 201.244 5.45542 201.244 5.45542V5.326C204.855 5.19934 208.555 7.75745 208.555 13.8457C208.555 27.6331 209.752 36.0261 195.373 47.0544C184.41 55.4612 185.186 67.5551 185.065 72.3491V72.5887H179.912V72.1096C180.152 67.6735 180.033 60.3681 182.67 54.8471C187.223 45.3003 197.272 43.9979 199.144 34.6879L199.21 34.7016Z" fill="#03D47C"/>
<path d="M206.502 120.155C215.302 120.155 214.845 108.003 206.472 108.003H206.397V103.848C220.702 103.848 221.217 124.31 206.397 124.31V120.155H206.502Z" fill="#FFFAF0"/>
<path d="M206.397 126.147V124.31V100.527L206.37 100.521C206.207 101.326 205.302 102.069 203.856 102.694C201.244 103.823 196.862 104.564 191.897 104.564C186.645 104.564 182.046 103.735 179.502 102.493C178.368 101.942 177.641 101.306 177.449 100.626L177.396 100.643C177.396 100.643 177.432 107.596 177.465 114.21C177.493 119.67 177.518 124.902 177.518 125.802C177.518 127.245 182.271 131.907 191.734 131.692C202.323 131.453 206.397 127.804 206.397 126.147Z" fill="#FFFAF0"/>
<path d="M206.397 100.26C206.397 100.348 206.389 100.436 206.37 100.521C206.207 101.325 205.302 102.069 203.856 102.694L203.851 102.68C199.265 98.9049 185.516 98.1835 179.585 102.319L179.502 102.493C178.368 101.942 177.641 101.306 177.449 100.626C177.413 100.505 177.396 100.384 177.396 100.26C177.396 98.8554 179.662 97.608 183.169 96.8204C185.596 96.278 188.619 95.9558 191.897 95.9558C199.904 95.9558 206.397 97.8806 206.397 100.26Z" fill="#FFFAF0"/>
<path d="M203.851 102.68L203.856 102.694C201.244 103.823 196.862 104.564 191.897 104.564C186.645 104.564 182.045 103.735 179.502 102.493L179.585 102.319C185.516 98.1835 199.265 98.9049 203.851 102.68Z" fill="#780505"/>
<path d="M201.244 5.45535C201.244 5.45535 201.844 16.244 201.844 23.0785C201.844 28.7427 199.29 34.5226 199.21 34.7015L199.144 34.6878C199.34 33.7102 199.447 32.6418 199.447 31.4688C199.447 26.1158 197.091 23.3016 194.344 22.4755L194.413 22.2387C194.294 19.7219 194.413 16.0045 194.413 12.2871C194.413 10.5082 194.996 9.02404 195.929 7.88955C197.237 6.29796 199.227 5.39477 201.242 5.32593V5.45535H201.244Z" fill="#03D47C"/>
<path d="M199.447 31.4687C199.447 32.6418 199.34 33.7102 199.145 34.6877C197.273 43.9977 187.223 45.3002 182.671 54.847C180.034 60.368 180.152 67.6733 179.913 72.1094V72.5886H172.123V72.1094C172.123 72.1094 170.518 56.4303 178.715 48.3732C185.666 41.5387 190.953 38.7493 191.842 34.5858C193.095 28.7124 192.258 22.4782 192.258 22.4782L192.25 22.2138C192.954 22.1835 193.662 22.2661 194.344 22.4754C197.091 23.3015 199.447 26.1157 199.447 31.4687Z" fill="#03D47C"/>
<path d="M195.853 7.61151L195.93 7.88963C194.997 9.02412 194.413 10.5083 194.413 12.2872C194.413 16.0045 194.295 19.7219 194.413 22.2387L194.344 22.4756C193.662 22.2663 192.954 22.1837 192.249 22.214C191.264 22.2553 190.29 22.5224 189.412 22.996L189.26 22.7179L188.302 1.73804L188.297 1.68572C192.065 1.33877 195.795 3.71239 195.853 7.61151Z" fill="#03D47C"/>
<path d="M194.514 172.933V178.446C194.514 182.403 189.24 182.882 187.564 182.882H110.169C100.461 182.882 96.6262 180.005 93.871 176.529C92.9379 175.351 89.5385 171.532 85.6217 167.076L85.6161 166.922C87.0254 166.881 88.699 166.817 89.544 166.817C90.8625 166.817 91.4075 165.019 90.8074 163.94C90.3973 163.202 88.7182 161.123 86.83 159.055C86.1777 158.342 85.0904 158.405 84.7876 158.405C83.8298 158.405 81.603 158.397 79.445 158.397C78.8532 158.397 78.4734 158.573 78.2311 158.826L78.1651 158.733C72.1095 151.89 67.9697 147.069 67.9697 147.069L68.0193 144.824L68.1239 140.063C68.1596 139.716 68.1789 139.356 68.1789 138.987C68.1789 138.78 68.1734 138.574 68.1597 138.373L68.2257 135.41C68.2257 135.41 94.4683 165.498 96.9868 168.376C99.5026 171.254 103.458 174.723 111.487 174.723H189.235C191.511 174.723 195.467 172.749 193.548 168.913H193.551C194.156 170.009 194.514 171.221 194.514 172.933Z" fill="#4BA6A6"/>
<path d="M164.688 144.274L162.48 141.729C161.085 140.121 159.059 139.196 156.928 139.196H83.6177C81.6579 139.196 80.6505 141.539 81.9965 142.963L83.2186 144.362L88.4704 150.37L93.6727 156.321L96.6179 159.691C97.9941 161.148 99.9126 161.974 101.919 161.974H174.778C176.843 161.974 177.949 159.548 176.595 157.989L175.012 156.166L169.857 150.227L164.688 144.274ZM193.548 168.913C195.466 172.749 191.511 174.723 189.235 174.723H164.602V174.66C164.602 174.66 161.098 170.414 158.462 167.597C157.245 166.297 156.304 165.201 151.69 165.201C149.832 165.201 137.702 165.14 132.458 165.14C129.4 165.14 128.346 166.801 130.601 169.276C133.056 171.972 132.574 171.757 135.269 174.618V174.723H111.487C103.458 174.723 99.5025 171.254 96.9867 168.376C94.4681 165.498 68.2256 135.41 68.2256 135.41L164.352 135.173C164.352 135.173 189.529 163.621 191.222 165.738C192.161 166.911 192.973 167.858 193.551 168.913H193.548Z" fill="#50EEF6"/>
<path d="M192.257 22.4782C192.257 22.4782 193.094 28.7124 191.842 34.5859C190.953 38.7494 185.665 41.5388 178.715 48.3733C170.518 56.4304 172.123 72.1095 172.123 72.1095V72.5886H165.891V72.349C164.575 49.092 175.984 43.783 181.591 39.6223C185.304 36.8631 186.012 33.2669 185.904 29.3099C185.825 26.303 187.352 24.0946 189.411 22.9959C190.289 22.5223 191.264 22.2552 192.249 22.2139L192.257 22.4782Z" fill="#03D47C"/>
<path d="M189.26 22.7178L189.411 22.9959C187.352 24.0946 185.825 26.303 185.905 29.31C186.012 33.2669 185.304 36.8632 181.591 39.6223C175.984 43.783 164.575 49.092 165.891 72.3491V72.5886H164.352V69.7689C164.352 69.1742 164.278 68.5986 164.138 68.0507L164.215 68.0342C164.215 65.3962 161.977 63.0418 159.266 59.911L159.301 59.8807C159.301 42.3787 167.931 40.4594 174.16 35.3046C180.391 30.1498 180.873 26.7932 180.873 16.8443C180.873 15.5309 180.708 14.3854 180.416 13.3968L180.512 13.3665C180.265 5.4719 184.303 2.04915 188.297 1.68567L188.302 1.73799L189.26 22.7178Z" fill="#03D47C"/>
<path d="M186.505 72.5886C186.505 72.5886 187.763 72.8282 187.763 73.8195C187.763 74.8108 183.089 96.4763 183.089 96.4763L183.169 96.8205C179.662 97.608 177.397 98.8554 177.397 100.26C177.397 100.384 177.413 100.505 177.449 100.626L177.397 100.643C177.397 100.643 177.433 107.595 177.466 114.21H177.402C174.716 114.785 169.585 115.449 164.454 113.708H164.353V72.5886H186.505Z" fill="#B0D9FF"/>
<path d="M180.417 13.3969C180.708 14.3854 180.874 15.5309 180.874 16.8444C180.874 26.7932 180.392 30.1499 174.16 35.3047C167.931 40.4594 159.302 42.3787 159.302 59.8807L159.266 59.911C159.104 59.7238 158.939 59.531 158.774 59.3383C157.455 57.799 155.509 57.4575 153.783 57.3832L153.789 57.2455C153.789 48.6129 155.707 41.1809 163.376 35.7838C171.047 30.3894 173.323 26.5537 174.042 22.4783C174.956 17.2905 174.042 8.69092 174.042 8.69092L174.036 8.4844C176.706 8.36324 179.376 9.87222 180.417 13.3969Z" fill="#03D47C"/>
<path d="M176.596 157.989C177.95 159.548 176.844 161.974 174.779 161.974H169.751V161.784L164.903 156.26H174.903L175.013 156.167L176.596 157.989Z" fill="#99F6FF"/>
<path d="M169.857 150.227L175.013 156.167L174.903 156.26H164.903L159.646 150.266H169.813L169.857 150.227Z" fill="#99F6FF"/>
<path d="M174.041 8.6909C174.041 8.6909 174.955 17.2905 174.041 22.4783C173.323 26.5536 171.046 30.3894 163.375 35.7838C155.707 41.1809 153.788 48.6129 153.788 57.2455L153.783 57.3832C153.406 57.3666 153.039 57.3639 152.693 57.3639H148.157V57.1243C147.796 31.4688 166.491 31.3504 166.97 23.197C167.047 21.878 167.209 18.1634 167.209 16.1229C167.209 11.45 170.623 8.63582 174.036 8.48438L174.041 8.6909Z" fill="#03D47C"/>
<path d="M169.858 150.227L169.814 150.266H159.646L154.389 144.274H164.689L169.858 150.227Z" fill="#99F6FF"/>
<path d="M169.75 161.784V161.974H159.604V161.784L154.757 156.26H164.903L169.75 161.784Z" fill="#99F6FF"/>
<path d="M159.646 150.266L164.903 156.26H154.757L149.5 150.266H159.646Z" fill="#99F6FF"/>
<path d="M162.48 141.729L164.688 144.274H154.388L149.976 139.246V139.196H156.928C159.059 139.196 161.085 140.121 162.48 141.729Z" fill="#99F6FF"/>
<path d="M164.603 174.66V174.723H135.27V174.619C132.575 171.758 133.056 171.972 130.601 169.277C128.347 166.801 129.401 165.141 132.459 165.141C137.703 165.141 149.833 165.201 151.691 165.201C156.304 165.201 157.246 166.297 158.462 167.597C161.099 170.414 164.603 174.66 164.603 174.66Z" fill="#99F6FF"/>
<path d="M74.0204 85.9987V123.575C74.0204 126.923 76.7344 129.635 80.0787 129.635H152.087C155.432 129.635 158.146 126.923 158.146 123.575V74.384C158.146 71.0356 155.432 68.3232 152.087 68.3232H80.0787C76.7344 68.3232 74.0204 71.0356 74.0204 74.384V85.9987ZM164.353 113.708V135.173H67.8135V69.7689C67.8135 65.9111 70.9403 62.783 74.7966 62.783H157.37C160.634 62.783 163.376 65.0244 164.138 68.0506C164.278 68.5986 164.353 69.1741 164.353 69.7689V113.708Z" fill="#50EEF6"/>
<path d="M164.215 68.034L164.138 68.0506C163.376 65.0243 160.634 62.7829 157.369 62.7829H74.7966C70.9403 62.7829 67.8134 65.911 67.8134 69.7688V135.173L67.7914 135.178C67.7914 135.178 65.471 132.532 64.0315 131.092C61.8129 128.875 61.9313 127.744 61.9313 124.748V110.352L61.9258 66.3543C61.9258 62.0394 65.1104 57.3638 71.8211 57.3638H152.693C153.04 57.3638 153.406 57.3665 153.783 57.383C155.509 57.4574 157.455 57.7988 158.773 59.3381C158.938 59.5309 159.104 59.7236 159.266 59.9109C161.977 63.0417 164.215 65.3961 164.215 68.034Z" fill="#4BA6A6"/>
<path d="M159.645 150.266H149.5L144.242 144.274H154.388L159.645 150.266Z" fill="#99F6FF"/>
<path d="M159.604 161.784V161.974H119.018V161.784L114.174 156.26H124.212H134.397H144.441H154.757L159.604 161.784Z" fill="#99F6FF"/>
<path d="M149.5 150.266L154.757 156.26H144.441V156.147L139.305 150.266H149.5Z" fill="#99F6FF"/>
<path d="M154.388 144.274H144.242L139.83 139.246V139.196H149.976V139.246L154.388 144.274Z" fill="#99F6FF"/>
<path d="M149.499 150.266H139.304L134.074 144.274H144.242L149.499 150.266Z" fill="#99F6FF"/>
<path d="M144.44 156.147V156.26H134.396V156.183L129.205 150.266H139.304L144.44 156.147Z" fill="#99F6FF"/>
<path d="M144.243 144.274H134.075L129.685 139.246V139.196H139.83V139.246L144.243 144.274Z" fill="#99F6FF"/>
<path d="M134.075 144.274L139.305 150.266H129.206L123.948 144.274H134.075Z" fill="#99F6FF"/>
<path d="M134.397 156.183V156.26H124.212V156.136L119.062 150.266H129.206L134.397 156.183Z" fill="#99F6FF"/>
<path d="M134.075 144.274H123.949L119.539 139.246V139.196H129.685V139.246L134.075 144.274Z" fill="#99F6FF"/>
<path d="M123.948 144.274L129.205 150.266H119.062L113.805 144.274H123.948Z" fill="#99F6FF"/>
<path d="M124.213 156.136V156.26H114.174L108.914 150.266H119.063L124.213 156.136Z" fill="#99F6FF"/>
<path d="M119.538 139.246L123.948 144.274H113.805L109.393 139.246V139.196H119.538V139.246Z" fill="#99F6FF"/>
<path d="M119.062 150.266H108.914L103.656 144.274H113.805L119.062 150.266Z" fill="#99F6FF"/>
<path d="M119.018 161.784V161.974H108.873V161.784L104.025 156.26H114.174L119.018 161.784Z" fill="#99F6FF"/>
<path d="M114.173 156.26H104.025L98.7676 150.266H108.913L114.173 156.26Z" fill="#99F6FF"/>
<path d="M113.805 144.274H103.657L99.2471 139.246V139.196H109.393V139.246L113.805 144.274Z" fill="#99F6FF"/>
<path d="M103.657 144.274L108.914 150.266H98.7681L93.5107 144.274H103.657Z" fill="#99F6FF"/>
<path d="M108.872 161.784V161.974H101.919C99.9128 161.974 97.9943 161.148 96.618 159.691L93.6729 156.321L93.7417 156.26H104.025L108.872 161.784Z" fill="#99F6FF"/>
<path d="M98.7679 150.266L104.025 156.26H93.7418L93.673 156.321L88.4707 150.37L88.5891 150.266H98.7679Z" fill="#99F6FF"/>
<path d="M99.2472 139.246L103.657 144.274H93.5109L89.0986 139.246V139.196H99.2472V139.246Z" fill="#99F6FF"/>
<path d="M98.7677 150.266H88.5889L88.4706 150.37L83.2188 144.362L83.3178 144.274H93.5104L98.7677 150.266Z" fill="#99F6FF"/>
<path d="M96.9655 18.1138C99.8502 18.4718 99.0657 20.6417 98.1904 21.6137C97.9372 21.8946 97.3784 22.4591 96.6985 23.1337L96.6655 23.0979C97.6124 22.1451 97.7665 21.3383 95.8617 21.3383H45.1851C43.173 21.3383 41.9288 21.253 40.1287 23.0538C39.3332 23.8496 38.9093 24.2104 37.1615 25.9589C35.4136 27.7075 35.898 28.8144 36.9275 28.8144V28.8337C36.0604 28.8254 35.5815 28.8199 35.5815 28.8199C32.5097 28.8199 31.8739 26.6996 33.0409 25.4302C33.1097 25.3531 33.1813 25.2788 33.2474 25.2044C34.9071 23.4063 36.2256 22.1782 37.8523 20.4489C39.5479 18.6453 41.4058 18.0615 44.0538 18.0615H96.0737C96.404 18.0615 96.7013 18.078 96.9655 18.1138Z" fill="#D18000"/>
<path d="M96.9708 18.0669L96.9653 18.1137C96.7011 18.0779 96.4038 18.0614 96.0735 18.0614H44.0536C41.4057 18.0614 39.5477 18.6452 37.8522 20.4488C36.2254 22.1781 34.907 23.4062 33.2472 25.2043L33.1453 25.1107V17.0563C33.1453 16.0237 33.082 15.0765 33.082 14.1953C33.0848 12.5459 33.3187 11.1278 34.6289 9.81708C36.4841 7.96114 40.0652 5.43607 41.9727 4.26853C43.8774 3.10375 45.573 2.89172 48.7521 2.89172H90.2794C93.3513 2.89172 96.2854 4.23274 96.602 7.51781C96.9213 10.8029 96.9708 18.0669 96.9708 18.0669Z" fill="#E4BC07"/>
<path d="M36.9274 28.8144C35.8979 28.8144 35.419 27.7019 37.1613 25.9589C38.9037 24.2158 39.3331 23.8496 40.1286 23.0538C41.9287 21.2529 43.1729 21.3383 45.185 21.3383H58.6888V21.6907C58.6888 29.2439 76.6628 28.5252 76.6628 21.6907V21.3383H95.8616C97.7664 21.3383 97.6123 22.1451 96.6654 23.0979L96.6984 23.1336C95.1955 24.6289 93.1064 26.6583 92.4705 27.3357C90.8823 29.0319 89.1868 29.1393 84.736 29.2439C82.5477 29.2963 44.5987 28.9107 36.9274 28.8336V28.8144Z" fill="#FFF2B2"/>
<path d="M93.5108 144.274H83.3182L83.2192 144.362L81.997 142.963C80.651 141.539 81.6585 139.196 83.6183 139.196H89.0985V139.246L93.5108 144.274Z" fill="#99F6FF"/>
<path d="M90.8078 163.94C91.4078 165.019 90.8628 166.818 89.5444 166.818C88.6993 166.818 87.0258 166.881 85.6165 166.922C84.8238 166.95 84.1136 166.969 83.6842 166.969C82.4869 166.969 82.019 167.057 80.94 165.711L80.929 165.642C82.0245 165.441 82.319 164.086 82.03 162.982C81.5428 161.126 80.1445 160.765 78.8095 160.765H77.9315V160.727C77.9315 160.727 77.5929 159.498 78.2315 158.827C78.4737 158.573 78.8536 158.397 79.4454 158.397C81.6033 158.397 83.8301 158.405 84.788 158.405C85.0908 158.405 86.178 158.342 86.8304 159.055C88.7186 161.123 90.3976 163.202 90.8078 163.94Z" fill="#4BA6A6"/>
<path d="M82.0296 162.982C82.3186 164.086 82.0241 165.441 80.9286 165.642C80.8378 165.661 80.7387 165.669 80.6368 165.669H62.4069C60.4856 165.669 57.6698 165.341 55.399 162.516C53.9456 160.71 52.3795 158.692 50.8683 156.739C49.6655 155.192 48.5314 153.727 47.5763 152.529C46.3294 150.968 45.8642 150.384 42.8998 150.384C40.9647 150.384 35.6249 150.428 30.4611 150.469C26.1782 150.505 21.7824 150.544 19.0547 150.557C18.3913 150.56 18.0032 151.309 18.3803 151.857C21.0668 155.745 22.5944 158.061 22.6577 158.157L22.7018 158.568C20.3208 158.818 19.0271 159.361 18.0748 160.123C18.0583 160.099 16.6792 157.885 13.4313 153.209C11.7632 150.808 12.0605 149.068 12.6028 148.029C13.379 146.543 15.0277 145.722 17.2463 145.722C19.4648 145.722 24.9946 145.675 30.4198 145.631C35.8313 145.584 40.9427 145.543 42.8998 145.543C47.4001 145.543 49.2141 146.821 51.3583 149.511C52.3354 150.734 53.4777 152.209 54.6916 153.774C56.1917 155.709 57.7414 157.711 59.1672 159.482C60.0755 160.614 61.0059 160.828 62.4069 160.828L77.9311 160.768H78.8092C80.1441 160.765 81.5424 161.126 82.0296 162.982Z" fill="#28736D"/>
<path d="M76.6624 21.3384V21.6908C76.6624 28.5253 58.6885 29.244 58.6885 21.6908V21.3384H76.6624Z" fill="#FFFAF0"/>
<path d="M68.1598 138.373L68.124 140.063C67.8488 142.726 66.5716 144.739 65.0412 144.739C63.3099 144.739 61.9033 142.164 61.9033 138.987C61.9033 135.809 63.3099 133.232 65.0412 133.232C66.6597 133.232 67.9947 135.484 68.1598 138.373Z" fill="#4BA6A6"/>
<path d="M61.9313 110.352V113.351H61.8734H44.3784L44.205 113.43L42.8232 110.462L43.06 110.352H61.8734H61.9313Z" fill="#28736D"/>
<path d="M52.5756 124.847C54.3538 127.424 51.9095 128.936 49.2616 128.936H10.3189C8.30682 128.936 6.9856 128.005 5.90662 126.281C5.04783 124.91 3.6468 122.633 1.38422 118.734C-0.523277 115.449 2.86783 113.224 5.41116 113.753L5.60109 113.843L4.04041 117.101L9.25919 125.199L49.6745 125.191L44.5052 114.075H44.508C45.8787 115.98 49.8259 120.862 52.5756 124.847Z" fill="#B0D9FF"/>
<path d="M44.5048 114.075L49.6741 125.191L9.25879 125.199L23.8031 93.9319L35.1793 94.0228L42.823 110.462L44.2048 113.43L44.5048 114.075ZM31.6808 114.92V104.922L27.6567 104.957V114.92H31.6808Z" fill="#5AB0FF"/>
<path d="M48.4515 181.252C49.0818 185.3 48.0936 188.087 41.8922 188.535C38.6305 188.772 35.2173 188.574 32.2997 187.671L32.3933 187.368C31.8207 181.996 29.137 173.468 25.1211 168.126L25.2037 168.065H42.8198L43.0593 167.914C45.8971 172.474 47.9368 177.937 48.4515 181.252Z" fill="#4ED7DE"/>
<path d="M43.0593 167.913L42.8198 168.065H34.5512V168.018C33.1777 164.463 28.4048 159.047 23.9072 158.474C24.6064 158.436 25.3826 158.413 26.2524 158.416C33.7117 158.427 37.1881 160.104 41.083 165.069C41.7766 165.953 42.4372 166.911 43.0593 167.913Z" fill="#4ED7DE"/>
<path d="M30.8412 89.3885L35.1792 94.0228L23.803 93.932L18.0723 87.8299L21.5542 87.7859H21.7028V90.0934C21.7028 90.0934 23.2608 92.2633 26.3739 92.1008C30.3871 91.8915 30.7091 90.0136 30.7091 90.0136V89.3885H30.8412Z" fill="#8DC8FF"/>
<path d="M34.5513 168.018V168.065H25.2037L25.1211 168.126C22.4347 164.549 19.1509 162.401 15.4983 163.582L15.3965 163.538C15.9525 162.225 16.8663 161.09 18.0747 160.124C19.0271 159.361 20.3207 158.818 22.7017 158.568C23.076 158.529 23.4751 158.499 23.9073 158.474C28.4049 159.047 33.1778 164.463 34.5513 168.018Z" fill="#4ED7DE"/>
<path d="M33.1455 17.0563V23.7641H28.9534V23.5273C27.335 21.0904 27.5166 16.5634 29.314 14.355V14.1953H33.0822C33.0822 15.0765 33.1455 16.0237 33.1455 17.0563Z" fill="#FFA75A"/>
<path d="M32.3938 187.368L32.3002 187.671C30.4863 187.112 28.8651 186.277 27.5907 185.104C24.2656 182.048 16.3659 174.239 15.1988 169.924C14.5245 167.44 14.6346 165.322 15.397 163.538L15.4989 163.582C19.1514 162.401 22.4352 164.549 25.1217 168.125C29.1376 173.467 31.8213 181.995 32.3938 187.368Z" fill="#4ED7DE"/>
<path d="M30.7094 89.3886V90.0136C30.7094 90.0136 30.3873 91.8916 26.3742 92.1009C23.2611 92.2633 21.7031 90.0935 21.7031 90.0935V82.6284H21.8105C23.9162 84.4293 28.2294 84.6083 30.5525 82.9891H30.7094V89.3886Z" fill="#FFA75A"/>
<path d="M30.7094 72.3793V82.989H30.5525C28.2294 84.6081 23.9162 84.4291 21.8105 82.6282H21.7031V72.0186H21.8105C23.9162 73.8194 28.2294 73.9984 30.5525 72.3793H30.7094Z" fill="#FFA75A"/>
<path d="M30.7094 61.23V72.3795H30.5525C28.2294 73.9986 23.9162 73.8196 21.8105 72.0187H21.7031V61.61C21.7031 61.3512 21.6921 61.1089 21.6729 60.8831L21.8105 60.8721C23.9162 62.6702 28.2294 62.8492 30.5525 61.23H30.7094Z" fill="#FFA75A"/>
<path d="M30.7088 56.6726V61.2299H30.5519C28.2288 62.849 23.9156 62.67 21.8099 60.8719L21.6723 60.8829C21.4631 58.435 20.1309 57.9008 17.9949 57.9008H16.3984V57.8732C18.1958 55.6648 18.3775 51.1379 16.759 48.7037V48.5632H22.1264C28.8013 48.5632 30.7088 51.3747 30.7088 56.6726Z" fill="#FFA75A"/>
<path d="M29.3139 14.1953V14.355C27.5165 16.5634 27.3348 21.0904 28.9533 23.5273V23.7641H16.0908C15.8596 23.7641 15.6311 23.7641 15.4136 23.7697V23.5273C13.7952 21.0904 13.9741 16.5634 15.7715 14.355V14.1953H29.3139Z" fill="#FFA75A"/>
<path d="M18.0724 87.8298L23.8032 93.9319L9.25882 125.199L4.04004 117.101L5.60072 113.843L18.0724 87.8298Z" fill="#8DC8FF"/>
<path d="M16.7592 48.7037C18.3777 51.1379 18.196 55.6649 16.3986 57.8733V57.9008H10.1641C5.96931 57.9008 2.06348 55.2959 2.06348 48.935V46.6055H2.13504C4.43065 48.4036 9.13195 48.5826 11.6615 46.9634L11.8184 46.9001C12.223 47.8501 13.2029 48.5633 15.0306 48.5633H16.7592V48.7037Z" fill="#FFA75A"/>
<path d="M15.771 14.1953V14.355C13.9736 16.5634 13.7947 21.0904 15.4105 23.5273V23.7697C13.3598 23.8082 11.9065 24.1579 11.634 27.0712L11.5349 27.063C9.00534 28.6821 4.43065 28.5031 2.13504 26.705H2.06348V23.7339C2.06348 18.3285 3.69572 14.1953 10.6871 14.1953H15.771Z" fill="#FFA75A"/>
<path d="M11.8184 46.9002L11.6615 46.9635C9.13195 48.5826 4.43065 48.4037 2.13504 46.6055H2.06348V36.9541H2.13504C4.43065 38.7522 8.94203 38.9312 11.4716 37.3148H11.5872V45.6996C11.5872 46.1182 11.6588 46.5284 11.8184 46.9002Z" fill="#FFA75A"/>
<path d="M11.5349 27.063L11.634 27.0713C11.6037 27.399 11.5872 27.757 11.5872 28.1535V37.3148H11.4716C8.94203 38.9312 4.43065 38.7522 2.13504 36.9541H2.06348V26.7051H2.13504C4.43065 28.5032 9.00534 28.6822 11.5349 27.063Z" fill="#FFA75A"/>
<path d="M164.353 135.173V69.7689C164.353 69.1741 164.278 68.5986 164.138 68.0506C163.376 65.0244 160.634 62.783 157.37 62.783H74.7966C70.9403 62.783 67.8135 65.9111 67.8135 69.7689V135.173H164.353Z" stroke="#002140" stroke-width="0.999999" stroke-linecap="round" stroke-linejoin="round"/>
<path d="M164.215 68.034C164.215 65.3961 161.977 63.0417 159.266 59.9109C159.104 59.7236 158.938 59.5309 158.773 59.3381C157.455 57.7988 155.509 57.4574 153.783 57.383C153.406 57.3665 153.04 57.3638 152.693 57.3638H71.8211C65.1104 57.3638 61.9258 62.0394 61.9258 66.3543L61.9313 110.352V124.748C61.9313 127.744 61.8129 128.875 64.0315 131.092C65.471 132.532 67.7914 135.178 67.7914 135.178" stroke="#002140" stroke-width="0.999999" stroke-linecap="round" stroke-linejoin="round"/>
<path d="M158.146 85.9987V123.575C158.146 126.923 155.432 129.635 152.088 129.635H80.0788C76.7345 129.635 74.0205 126.923 74.0205 123.575V74.384C74.0205 71.0356 76.7345 68.3232 80.0788 68.3232H152.088C155.432 68.3232 158.146 71.0356 158.146 74.384V85.9987Z" fill="#0164BF" stroke="#002140" stroke-width="0.999999" stroke-linecap="round" stroke-linejoin="round"/>
<path d="M68.1598 138.373C68.1736 138.574 68.1791 138.78 68.1791 138.987C68.1791 139.356 68.1598 139.716 68.124 140.063C67.8488 142.726 66.5716 144.739 65.0412 144.739C63.3099 144.739 61.9033 142.164 61.9033 138.987C61.9033 135.809 63.3099 133.232 65.0412 133.232C66.6597 133.232 67.9947 135.484 68.1598 138.373Z" stroke="#002140" stroke-width="0.999999" stroke-linecap="round" stroke-linejoin="round"/>
<path d="M85.6217 167.076C89.5385 171.532 92.9379 175.351 93.871 176.529C96.6262 180.005 100.461 182.882 110.169 182.882H187.564C189.24 182.882 194.514 182.403 194.514 178.446V172.933C194.514 171.22 194.156 170.009 193.551 168.913C192.973 167.858 192.161 166.911 191.222 165.738C189.529 163.621 164.352 135.173 164.352 135.173L68.2257 135.41L68.1597 138.373L68.1239 140.063L68.0193 144.824L67.9697 147.068C67.9697 147.068 72.1095 151.89 78.1651 158.733" stroke="#002140" stroke-width="0.999999" stroke-linecap="round" stroke-linejoin="round"/>
<path d="M68.2256 135.41C68.2256 135.41 94.4681 165.498 96.9867 168.376C99.5025 171.254 103.458 174.723 111.487 174.723H189.235C191.511 174.723 195.466 172.749 193.548 168.913" stroke="#002140" stroke-width="0.999999" stroke-linecap="round" stroke-linejoin="round"/>
<path d="M175.013 156.167L176.596 157.99C177.95 159.548 176.843 161.974 174.779 161.974H101.92C99.9132 161.974 97.9947 161.148 96.6184 159.691L93.6732 156.321L88.471 150.37L83.2192 144.362L81.997 142.963C80.651 141.539 81.6585 139.196 83.6183 139.196H156.929C159.059 139.196 161.085 140.121 162.481 141.729L164.688 144.274L169.858 150.227L175.013 156.167Z" stroke="#002140" stroke-width="0.999999" stroke-linecap="round" stroke-linejoin="round"/>
<path d="M135.27 174.619C132.575 171.758 133.056 171.972 130.601 169.277C128.347 166.801 129.401 165.141 132.459 165.141C137.703 165.141 149.833 165.201 151.691 165.201C156.304 165.201 157.246 166.297 158.462 167.597C161.099 170.414 164.603 174.66 164.603 174.66" stroke="#002140" stroke-width="0.999999" stroke-linecap="round" stroke-linejoin="round"/>
<path d="M183.089 96.4763C183.089 96.4763 187.762 74.808 187.762 73.8195C187.762 72.8309 186.505 72.5886 186.505 72.5886H164.454" stroke="#002140" stroke-width="0.999999" stroke-linecap="round" stroke-linejoin="round"/>
<path d="M164.454 113.708C169.585 115.449 174.716 114.785 177.402 114.21" stroke="#002140" stroke-width="0.999999" stroke-linecap="round" stroke-linejoin="round"/>
<path d="M148.157 57.1243C147.796 31.4689 166.491 31.3505 166.97 23.197C167.047 21.878 167.209 18.1634 167.209 16.1229C167.209 11.45 170.623 8.63584 174.036 8.4844C176.706 8.36324 179.376 9.87222 180.416 13.3969C180.708 14.3854 180.873 15.5309 180.873 16.8444C180.873 26.7932 180.391 30.1499 174.16 35.3047C167.931 40.4594 159.301 42.3787 159.301 59.8807" stroke="#002140" stroke-width="0.999999" stroke-linecap="round" stroke-linejoin="round"/>
<path d="M165.891 72.349C164.575 49.0919 175.984 43.7829 181.591 39.6222C185.304 36.8631 186.012 33.2669 185.904 29.3099C185.825 26.303 187.352 24.0945 189.411 22.9959C190.289 22.5222 191.264 22.2551 192.249 22.2138C192.954 22.1835 193.661 22.2661 194.344 22.4754C197.091 23.3015 199.447 26.1157 199.447 31.4687C199.447 32.6418 199.34 33.7102 199.144 34.6877C197.272 43.9977 187.223 45.3002 182.67 54.847C180.033 60.368 180.152 67.6733 179.912 72.1094" stroke="#002140" stroke-width="0.999999" stroke-linecap="round" stroke-linejoin="round"/>
<path d="M194.413 22.2387C194.295 19.7219 194.413 16.0045 194.413 12.2872C194.413 10.5083 194.997 9.02412 195.93 7.88962C197.237 6.29803 199.227 5.39484 201.242 5.326C204.856 5.19934 208.555 7.75745 208.555 13.8457C208.555 27.6331 209.753 36.0261 195.374 47.0544C184.41 55.4612 185.187 67.5551 185.065 72.3491" stroke="#002140" stroke-width="0.999999" stroke-linecap="round" stroke-linejoin="round"/>
<path d="M180.513 13.3666C180.265 5.47195 184.303 2.0492 188.297 1.68572C192.065 1.33877 195.795 3.71239 195.853 7.61151" stroke="#002140" stroke-width="0.999999" stroke-linecap="round" stroke-linejoin="round"/>
<path d="M172.123 72.1095C172.123 72.1095 170.518 56.4304 178.715 48.3733C185.666 41.5388 190.953 38.7494 191.842 34.5859C193.095 28.7125 192.258 22.4783 192.258 22.4783" stroke="#002140" stroke-width="0.999999" stroke-linecap="round" stroke-linejoin="round"/>
<path d="M153.788 57.2455C153.788 48.6129 155.707 41.1809 163.375 35.7838C171.046 30.3894 173.323 26.5537 174.041 22.4783C174.955 17.2905 174.041 8.69092 174.041 8.69092" stroke="#002140" stroke-width="0.999999" stroke-linecap="round" stroke-linejoin="round"/>
<path d="M188.302 1.73804L189.26 22.7179" stroke="#002140" stroke-width="0.999999" stroke-linecap="round" stroke-linejoin="round"/>
<path d="M201.245 5.45544C201.245 5.45544 201.845 16.2441 201.845 23.0786C201.845 28.7428 199.291 34.5227 199.211 34.7016C199.208 34.7016 199.208 34.7072 199.208 34.7072" stroke="#002140" stroke-width="0.999999" stroke-linecap="round" stroke-linejoin="round"/>
<path d="M177.396 100.643C177.396 100.643 177.432 107.595 177.465 114.21C177.493 119.67 177.518 124.902 177.518 125.802C177.518 127.245 182.271 131.907 191.734 131.692C202.323 131.453 206.397 127.804 206.397 126.147V100.527" stroke="#002140" stroke-width="0.999999" stroke-linecap="round" stroke-linejoin="round"/>
<path d="M183.169 96.8204C185.596 96.278 188.619 95.9558 191.897 95.9558C199.904 95.9558 206.397 97.8806 206.397 100.26C206.397 100.348 206.389 100.436 206.37 100.521C206.207 101.325 205.302 102.069 203.856 102.694C201.244 103.823 196.862 104.564 191.897 104.564C186.645 104.564 182.046 103.735 179.502 102.493C178.368 101.942 177.641 101.306 177.449 100.626C177.413 100.505 177.396 100.384 177.396 100.26C177.396 98.8554 179.662 97.608 183.169 96.8204Z" stroke="#002140" stroke-width="0.999999" stroke-linecap="round" stroke-linejoin="round"/>
<path d="M179.585 102.319C185.517 98.1835 199.265 98.9049 203.851 102.68" stroke="#002140" stroke-width="0.999999" stroke-linecap="round" stroke-linejoin="round"/>
<path d="M206.397 103.848C220.702 103.848 221.217 124.31 206.397 124.31" stroke="#002140" stroke-width="0.999999" stroke-linecap="round" stroke-linejoin="round"/>
<path d="M206.472 108.003C214.845 108.003 215.302 120.155 206.502 120.155" stroke="#002140" stroke-width="0.999999" stroke-linecap="round" stroke-linejoin="round"/>
<path d="M89.0986 139.246L93.5109 144.274L98.7682 150.266L104.026 156.26L108.873 161.784" stroke="#002140" stroke-width="0.999999" stroke-linecap="round" stroke-linejoin="round"/>
<path d="M99.2471 139.246L103.657 144.274L108.914 150.266L114.174 156.26L119.018 161.784" stroke="#002140" stroke-width="0.999999" stroke-linecap="round" stroke-linejoin="round"/>
<path d="M109.393 139.246L113.805 144.274L119.062 150.266L124.212 156.136" stroke="#002140" stroke-width="0.999999" stroke-linecap="round" stroke-linejoin="round"/>
<path d="M119.539 139.246L123.949 144.274L129.206 150.266L134.397 156.183" stroke="#002140" stroke-width="0.999999" stroke-linecap="round" stroke-linejoin="round"/>
<path d="M129.685 139.246L134.075 144.274L139.305 150.266L144.441 156.147" stroke="#002140" stroke-width="0.999999" stroke-linecap="round" stroke-linejoin="round"/>
<path d="M139.83 139.246L144.242 144.274L149.5 150.266L154.757 156.26L159.604 161.784" stroke="#002140" stroke-width="0.999999" stroke-linecap="round" stroke-linejoin="round"/>
<path d="M149.976 139.246L154.388 144.274L159.645 150.266L164.903 156.26L169.75 161.784" stroke="#002140" stroke-width="0.999999" stroke-linecap="round" stroke-linejoin="round"/>
<path d="M83.3184 144.274H93.511H103.657H113.805H123.948H134.075H144.243H154.389H164.688H164.732" stroke="#002140" stroke-width="0.999999" stroke-linecap="round" stroke-linejoin="round"/>
<path d="M88.5889 150.266H98.7677H108.913H119.062H129.205H139.304H149.499H159.645H169.813" stroke="#002140" stroke-width="0.999999" stroke-linecap="round" stroke-linejoin="round"/>
<path d="M93.7422 156.26H104.026H114.174H124.213H134.397H144.441H154.757H164.903H174.903" stroke="#002140" stroke-width="0.999999" stroke-linecap="round" stroke-linejoin="round"/>
<path d="M77.9315 160.727C77.9315 160.727 77.5929 159.498 78.2315 158.827C78.4737 158.573 78.8536 158.397 79.4454 158.397C81.6033 158.397 83.8301 158.405 84.788 158.405C85.0908 158.405 86.178 158.342 86.8304 159.055C88.7186 161.123 90.3976 163.202 90.8078 163.94C91.4078 165.019 90.8628 166.818 89.5444 166.818C88.6993 166.818 87.0258 166.881 85.6165 166.922C84.8238 166.95 84.1136 166.969 83.6842 166.969C82.4869 166.969 82.019 167.057 80.94 165.711" stroke="#002140" stroke-width="0.999999" stroke-linecap="round" stroke-linejoin="round"/>
<path d="M65.041 144.739L68.0082 144.824" stroke="#002140" stroke-width="0.999999" stroke-linecap="round" stroke-linejoin="round"/>
<path d="M18.0748 160.123C18.0583 160.099 16.6792 157.885 13.4313 153.209C11.7632 150.808 12.0605 149.068 12.6028 148.029C13.379 146.543 15.0277 145.722 17.2463 145.722C19.4648 145.722 24.9946 145.675 30.4198 145.631C35.8313 145.584 40.9427 145.543 42.8998 145.543C47.4001 145.543 49.2141 146.821 51.3583 149.511C52.3354 150.734 53.4777 152.209 54.6916 153.774C56.1917 155.709 57.7414 157.711 59.1672 159.482C60.0755 160.614 61.0059 160.828 62.4069 160.828L77.9311 160.768H78.8092C80.1442 160.765 81.5424 161.126 82.0296 162.982C82.3186 164.086 82.0241 165.441 80.9286 165.642C80.8378 165.661 80.7387 165.669 80.6368 165.669H62.4069C60.4856 165.669 57.6698 165.341 55.399 162.516C53.9456 160.71 52.3795 158.692 50.8683 156.739C49.6655 155.192 48.5314 153.727 47.5763 152.529C46.3294 150.968 45.8642 150.384 42.8998 150.384C40.9647 150.384 35.6249 150.428 30.4611 150.469C26.1782 150.505 21.7824 150.544 19.0547 150.557C18.3913 150.56 18.0032 151.309 18.3803 151.857C21.0668 155.745 22.5944 158.061 22.6577 158.157" stroke="#002140" stroke-width="0.999999" stroke-linecap="round" stroke-linejoin="round"/>
<path d="M18.0752 160.123C16.8669 161.09 15.953 162.225 15.397 163.538C14.6346 165.322 14.5245 167.44 15.1988 169.924C16.3659 174.239 24.2656 182.048 27.5907 185.104C28.8651 186.277 30.4863 187.112 32.3002 187.671C35.2179 188.574 38.631 188.772 41.8928 188.535C48.0942 188.087 49.0824 185.3 48.4521 181.252C47.9373 177.937 45.8977 172.473 43.0599 167.913C42.4378 166.911 41.7772 165.953 41.0835 165.069C37.1887 160.104 33.7123 158.427 26.253 158.416C25.3832 158.413 24.6069 158.436 23.9078 158.474C23.4757 158.499 23.0765 158.529 22.7022 158.568C20.3213 158.818 19.0276 159.361 18.0752 160.123Z" stroke="#002140" stroke-width="0.999999" stroke-linecap="round" stroke-linejoin="round"/>
<path d="M15.499 163.582C19.1516 162.401 22.4354 164.549 25.1218 168.125C29.1378 173.467 31.8215 181.995 32.394 187.368" stroke="#002140" stroke-width="0.999999" stroke-linecap="round" stroke-linejoin="round"/>
<path d="M25.2041 168.065H34.5517H42.8202" stroke="#002140" stroke-width="0.999999" stroke-linecap="round" stroke-linejoin="round"/>
<path d="M23.2881 158.427C23.4945 158.433 23.701 158.449 23.9074 158.474C28.405 159.047 33.1779 164.463 34.5514 168.018" stroke="#002140" stroke-width="0.999999" stroke-linecap="round" stroke-linejoin="round"/>
<path d="M9.25879 125.199L23.8031 93.9319L35.1793 94.0228L42.823 110.462L44.2048 113.43L44.5048 114.075L49.6741 125.191L9.25879 125.199Z" stroke="#002140" stroke-width="0.999999" stroke-linecap="round" stroke-linejoin="round"/>
<path d="M9.25882 125.199L4.04004 117.101L5.60072 113.843L18.0724 87.8298L23.8032 93.9319" stroke="#002140" stroke-width="0.999999" stroke-linecap="round" stroke-linejoin="round"/>
<path d="M30.8408 89.3884L35.1788 94.0228" stroke="#002140" stroke-width="0.999999" stroke-linecap="round" stroke-linejoin="round"/>
<path d="M18.0723 87.8299L21.5542 87.7859" stroke="#002140" stroke-width="0.999999" stroke-linecap="round" stroke-linejoin="round"/>
<path d="M5.41116 113.753C2.86783 113.224 -0.523277 115.449 1.38422 118.734C3.6468 122.633 5.04783 124.91 5.90662 126.281C6.9856 128.005 8.30682 128.936 10.3189 128.936H49.2616C51.9095 128.936 54.3538 127.424 52.5756 124.847C49.8259 120.862 45.8787 115.98 44.508 114.072" stroke="#002140" stroke-width="0.999999" stroke-linecap="round" stroke-linejoin="round"/>
<path d="M31.6804 109.928V104.922L27.6562 104.957V109.928V114.92H31.6804V109.928Z" stroke="#002140" stroke-width="0.999999" stroke-linecap="round" stroke-linejoin="round"/>
<path d="M27.7607 109.928H31.6803" stroke="#002140" stroke-width="0.999999" stroke-linecap="round" stroke-linejoin="round"/>
<path d="M33.0459 14.1953H10.6871C3.69572 14.1953 2.06348 18.3285 2.06348 23.7339V48.935C2.06348 55.2958 5.96931 57.9008 10.1642 57.9008H17.9951C20.131 57.9008 21.4633 58.435 21.6724 60.8829C21.6917 61.1087 21.7027 61.3511 21.7027 61.6099V90.0933C21.7027 90.0933 23.2607 92.2632 26.3738 92.1007C30.3869 91.8915 30.709 90.0135 30.709 90.0135V56.6727C30.709 51.3747 28.8015 48.5632 22.1266 48.5632H15.0306C13.2029 48.5632 12.223 47.8501 11.8184 46.9001C11.6588 46.5283 11.5872 46.118 11.5872 45.6995V28.1534C11.5872 27.7569 11.6037 27.3989 11.634 27.0712C11.9065 24.1579 13.3598 23.8082 15.4132 23.7696C15.6307 23.7641 15.8591 23.7641 16.0903 23.7641H32.9523" stroke="#002140" stroke-width="0.999999" stroke-linecap="round" stroke-linejoin="round"/>
<path d="M33.1453 25.1107V17.0563C33.1453 16.0237 33.082 15.0765 33.082 14.1953C33.0848 12.5459 33.3187 11.1278 34.6289 9.81708C36.4841 7.96114 40.0652 5.43607 41.9727 4.26853C43.8774 3.10375 45.573 2.89172 48.7521 2.89172H90.2794C93.3513 2.89172 96.2855 4.23274 96.602 7.51781C96.9213 10.8029 96.9708 18.0669 96.9708 18.0669" stroke="#002140" stroke-width="0.999999" stroke-linecap="round" stroke-linejoin="round"/>
<path d="M36.9275 28.8337C36.0604 28.8254 35.5815 28.8199 35.5815 28.8199C32.5097 28.8199 31.8739 26.6996 33.0409 25.4302C33.1097 25.3531 33.1813 25.2788 33.2474 25.2044C34.9071 23.4063 36.2256 22.1782 37.8523 20.4489C39.5479 18.6453 41.4058 18.0615 44.0538 18.0615H96.0737C96.404 18.0615 96.7013 18.078 96.9655 18.1138C99.8502 18.4718 99.0657 20.6417 98.1904 21.6137C97.9372 21.8946 97.3784 22.4591 96.6985 23.1337C95.1956 24.6289 93.1065 26.6583 92.4706 27.3357C90.8824 29.0319 89.1869 29.1393 84.7361 29.244C82.5478 29.2963 44.5988 28.9108 36.9275 28.8337Z" stroke="#002140" stroke-width="0.999999" stroke-linecap="round" stroke-linejoin="round"/>
<path d="M36.9356 28.8144H36.9274C35.8979 28.8144 35.419 27.7019 37.1613 25.9589C38.9037 24.2158 39.3331 23.8496 40.1286 23.0538C41.9287 21.2529 43.1729 21.3383 45.185 21.3383H95.8616C97.7664 21.3383 97.6123 22.1451 96.6654 23.0979" stroke="#002140" stroke-width="0.999999" stroke-linecap="round" stroke-linejoin="round"/>
<path d="M58.6885 21.6907C58.6885 29.2439 76.6624 28.5252 76.6624 21.6907" stroke="#002140" stroke-width="0.999999" stroke-linecap="round" stroke-linejoin="round"/>
<path d="M21.8105 82.6284C23.9162 84.4293 28.2294 84.6083 30.5526 82.9891" stroke="#002140" stroke-width="0.999999" stroke-linecap="round" stroke-linejoin="round"/>
<path d="M21.8105 72.0186C23.9162 73.8194 28.2294 73.9984 30.5526 72.3793" stroke="#002140" stroke-width="0.999999" stroke-linecap="round" stroke-linejoin="round"/>
<path d="M21.8105 60.8721C23.9162 62.6702 28.2294 62.8492 30.5526 61.23" stroke="#002140" stroke-width="0.999999" stroke-linecap="round" stroke-linejoin="round"/>
<path d="M16.3984 57.8734C18.1958 55.665 18.3775 51.1381 16.759 48.7039" stroke="#002140" stroke-width="0.999999" stroke-linecap="round" stroke-linejoin="round"/>
<path d="M15.7709 14.355C13.9735 16.5634 13.7946 21.0903 15.4104 23.5273" stroke="#002140" stroke-width="0.999999" stroke-linecap="round" stroke-linejoin="round"/>
<path d="M29.314 14.355C27.5166 16.5634 27.335 21.0903 28.9534 23.5273" stroke="#002140" stroke-width="0.999999" stroke-linecap="round" stroke-linejoin="round"/>
<path d="M2.13477 46.6055C4.43037 48.4036 9.13168 48.5826 11.6612 46.9634" stroke="#002140" stroke-width="0.999999" stroke-linecap="round" stroke-linejoin="round"/>
<path d="M2.13477 36.9541C4.43037 38.7522 8.94175 38.9312 11.4713 37.3148" stroke="#002140" stroke-width="0.999999" stroke-linecap="round" stroke-linejoin="round"/>
<path d="M2.13477 26.7051C4.43037 28.5032 9.00506 28.6822 11.5346 27.063" stroke="#002140" stroke-width="0.999999" stroke-linecap="round" stroke-linejoin="round"/>
<path d="M43.0596 110.352H61.8731" stroke="#002140" stroke-width="0.999999" stroke-linecap="round" stroke-linejoin="round"/>
<path d="M44.3779 113.351H61.873" stroke="#002140" stroke-width="0.999999" stroke-linecap="round" stroke-linejoin="round"/>

<g clip-path="url(#clip0_669_13504)" transform="translate(85 35)">>
<path d="M17.6857 14.8336C17.6857 14.8336 16.1419 16.2677 15.2263 17.0797C14.3106 17.8917 6.21903 21.9878 8.07069 29.3194C9.92235 36.6509 13.3941 37.7615 17.1418 37.7778L17.749 39.2021C17.749 39.2021 18.5144 42.0584 21.691 42.9096C24.8676 43.7609 26.0466 44.3527 26.4716 45.9387C26.8965 47.5247 26.9189 53.531 32.1391 52.6989L36.5143 69.4485C36.5143 69.4485 36.1676 71.0156 35.1732 71.1128C34.1788 71.21 33.8607 71.2953 33.5838 70.2619C33.3069 69.2284 32.4415 66.3144 32.4415 66.3144C32.4415 66.3144 31.6617 64.9927 30.0757 65.4177C28.4897 65.8427 27.9788 67.1512 28.1244 67.9814C28.2699 68.8116 28.5292 70.765 28.5292 70.765C28.5292 70.765 28.1818 72.6452 26.9013 72.3062C25.6191 71.9704 25.6614 72.1283 25.1568 70.561C24.6523 68.9938 23.356 65.4286 20.4825 66.4549C17.609 67.4813 17.713 70.0892 18.1746 71.4961C18.6362 72.9031 21.8841 84.7088 21.8841 84.7088C21.8841 84.7088 23.1804 88.274 25.9366 87.4509C28.3168 86.8131 28.4217 84.6595 28.3457 83.7441C28.2696 82.8286 27.7491 80.2452 27.7491 80.2452C27.7491 80.2452 28.4398 78.6987 29.3193 78.8041C30.1987 78.9094 30.9785 80.2311 30.9785 80.2311L31.6043 81.9351C31.6043 81.9351 32.5906 83.7117 34.5588 83.4407C36.5271 83.1697 36.4288 80.8988 36.2583 80.2624C36.0878 79.6261 35.7534 77.4211 35.7534 77.4211C35.7534 77.4211 35.3013 76.6909 36.7318 76.3076C38.1624 75.9243 38.5741 76.3319 38.6818 77.2312C38.7894 78.1305 39.8241 81.1787 39.8241 81.1787C39.8241 81.1787 40.8018 83.555 42.6842 82.9634C44.5672 82.3742 45.6098 81.5 44.3485 76.4768C43.0877 71.456 37.8035 51.094 37.8035 51.094C37.8035 51.094 40.7239 50.5679 40.7458 47.1571C40.7677 43.7463 39.3695 42.3365 39.8875 41.0927C40.4054 39.8488 43.0964 37.51 43.0964 37.51C43.0964 37.51 45.3068 36.2382 44.2554 32.9459C43.8875 31.2574 43.6387 30.6446 43.6387 30.6446C43.6387 30.6446 50.3293 26.7263 47.9869 18.9315C45.642 11.1373 36.6671 11.9269 36.6671 11.9269C36.6671 11.9269 34.2171 11.9885 33.146 11.1679C32.0755 10.3497 28.7955 7.31345 26.4033 7.27499C24.0111 7.23654 20.1574 8.09732 19.0822 10.4289C18.0041 12.7586 17.6827 14.8318 17.6827 14.8318L17.6857 14.8336Z" fill="#FED607"/>
<path d="M27.1568 75.697C26.8396 74.5133 25.6228 73.8108 24.4391 74.128C23.2553 74.4451 22.5528 75.6619 22.87 76.8457C23.1872 78.0294 24.404 78.732 25.5877 78.4148C26.7715 78.0976 27.474 76.8808 27.1568 75.697Z" fill="#002140"/>
<path d="M26.2072 25.7471C25.1501 21.8021 21.5 19.3525 18.0544 20.2757C14.6088 21.199 12.6725 25.1455 13.7296 29.0905C14.7866 33.0355 18.4368 35.485 21.8824 34.5618C25.3279 33.6386 27.2642 29.6921 26.2072 25.7471Z" fill="#FFFAF0"/>
<path d="M42.716 21.3238C41.6589 17.3788 38.0088 14.9292 34.5632 15.8524C31.1176 16.7756 29.1813 20.7221 30.2384 24.6671C31.2954 28.6121 34.9455 31.0617 38.3911 30.1385C41.8367 29.2152 43.773 25.2688 42.716 21.3238Z" fill="#FFFAF0"/>
<path d="M26.4014 40.4405C26.4014 40.4405 28.747 44.7449 32.7683 43.6675C36.7895 42.59 36.808 37.3674 36.808 37.3674C36.808 37.3674 27.6531 39.8204 26.9525 39.9518C26.2494 40.0838 26.1056 40.1787 26.4038 40.4398L26.4014 40.4405Z" fill="#002140"/>
<path d="M26.0991 39.9547C26.0991 39.9547 33.4105 39.3007 36.9476 37.0479C36.9476 37.0479 36.9112 33.3143 34.9885 33.5449C33.0658 33.7755 31.9216 36.0691 31.137 36.1076C30.3525 36.146 28.3756 34.6912 26.9436 35.7005C25.511 36.7074 24.9801 38.3239 26.0991 39.9547Z" fill="#FFFAF0"/>
<path d="M37.8382 51.1931C43.2218 49.5352 39.2827 42.9964 39.9948 41.1185C41.0986 38.2716 46.4852 37.5437 43.5897 30.7662C45.5906 29.7173 50.4675 26.226 47.6054 18.3576C44.7409 10.4899 36.5052 12.3736 34.1942 11.8057C31.8832 11.2378 29.4927 5.94285 23.4501 7.56197C17.4074 9.18109 18.5568 14.1881 16.7641 16.0043C14.9738 17.8198 5.85135 21.2359 8.30695 30.4003C10.7625 39.5647 16.4731 37.309 17.4618 37.985C18.1862 43.511 24.0699 42.9063 25.9253 44.9987C26.8273 45.9441 26.7299 54.0106 32.1001 52.7332L36.2889 68.3661C36.7408 70.0526 36.2002 70.9538 35.1429 71.2371C33.3799 71.7095 33.1371 68.3825 32.8525 67.3203C32.5679 66.2582 31.6751 65.0411 29.8619 65.527C28.0486 66.0129 27.9259 67.5071 28.2759 68.8133C28.6259 70.1194 29.0944 71.8297 27.2835 72.3149C25.4727 72.8001 25.0264 70.3403 24.8277 69.5988C24.4636 68.24 23.3167 65.7681 20.7205 66.356C18.1244 66.9439 17.6413 68.863 18.2194 71.0208L21.8756 84.6658C22.1249 85.5963 23.2124 88.2483 25.906 87.5265C28.5996 86.8048 28.6113 84.4274 28.2876 83.2194C27.9639 82.0114 27.1791 79.3885 28.9421 78.9161C30.7051 78.4437 31.0706 80.3149 31.4488 81.7262C31.827 83.1376 32.9114 83.9316 34.681 83.4549C36.4506 82.9782 36.5778 81.5391 36.2541 80.331C35.9304 79.123 34.8974 76.6743 36.537 76.1529C38.1791 75.6309 38.4164 76.8134 38.7967 78.137C39.177 79.4606 40.0061 83.8561 43.0274 83.0465C46.0487 82.237 44.9496 78.5369 44.4099 76.5227C43.8702 74.5085 37.8382 51.1931 37.8382 51.1931V51.1931Z" stroke="#002140" stroke-width="0.99999" stroke-linecap="round" stroke-linejoin="round"/>
<path d="M27.0064 75.6269C26.7009 74.4867 25.5289 73.8101 24.3888 74.1156C23.2486 74.4211 22.572 75.593 22.8775 76.7332C23.183 77.8734 24.3549 78.55 25.4951 78.2445C26.6353 77.939 27.3119 76.767 27.0064 75.6269Z" stroke="#002140" stroke-width="0.99999" stroke-linecap="round" stroke-linejoin="round"/>
<path d="M26.1812 25.8618C25.1195 21.8996 21.4539 19.4393 17.9937 20.3664C14.5336 21.2935 12.5893 25.2571 13.6509 29.2193C14.7126 33.1814 18.3782 35.6418 21.8383 34.7147C25.2985 33.7875 27.2428 29.824 26.1812 25.8618Z" stroke="#002140" stroke-width="0.99999" stroke-linecap="round" stroke-linejoin="round"/>
<path d="M19.711 27.8061L21.9279 25.248C20.8124 23.324 18.7228 22.2712 16.7301 22.8052C14.2805 23.4615 12.9046 26.2685 13.6558 29.0721C14.407 31.8758 17.0021 33.6187 19.4517 32.9623C21.2315 32.4854 22.44 30.8719 22.6834 28.9479L19.7127 27.803L19.711 27.8061Z" fill="#002140"/>
<path d="M42.6929 21.4377C41.6312 17.4756 37.9656 15.0152 34.5055 15.9423C31.0453 16.8695 29.101 20.833 30.1627 24.7952C31.2243 28.7574 34.8899 31.2177 38.3501 30.2906C41.8102 29.3635 43.7545 25.3999 42.6929 21.4377Z" stroke="#002140" stroke-width="0.99999" stroke-linecap="round" stroke-linejoin="round"/>
<path d="M36.2188 23.3825L38.4357 20.8245C37.3202 18.9004 35.2306 17.8476 33.2379 18.3816C30.7883 19.038 29.4124 21.8449 30.1636 24.6485C30.9148 27.4522 33.5099 29.1951 35.9595 28.5388C37.7393 28.0619 38.9479 26.4484 39.1912 24.5243L36.2205 23.3795L36.2188 23.3825Z" fill="#002140"/>
<path d="M35.8724 33.8771C33.7596 32.3459 32.1341 35.848 30.9284 36.171C29.7228 36.4941 27.1451 34.0029 25.7762 36.8362C24.4098 39.6688 28.823 44.8577 32.8729 43.7726C36.9229 42.6874 37.9851 35.4083 35.8717 33.8747L35.8724 33.8771Z" stroke="#002140" stroke-width="0.99999" stroke-linecap="round" stroke-linejoin="round"/>
<path d="M26.2492 40.0861C26.2492 40.0861 31.499 39.6127 36.7289 37.3242" stroke="#002140" stroke-width="0.99999" stroke-linecap="round" stroke-linejoin="round"/>
<path d="M27.5219 35.7734C27.5219 35.7734 28.1483 38.6951 28.557 39.6368" stroke="#002140" stroke-width="0.99999" stroke-linecap="round" stroke-linejoin="round"/>
<path d="M33.5908 34.2324C33.5908 34.2324 34.3575 35.9551 34.626 38.0958" stroke="#002140" stroke-width="0.99999" stroke-linecap="round" stroke-linejoin="round"/>
<path d="M30.9791 36.3807C31.1862 37.2302 31.4787 38.3697 31.6832 38.8841" stroke="#002140" stroke-width="0.99999" stroke-linecap="round" stroke-linejoin="round"/>
</g>
<defs>
<clipPath id="clip0_669_13504">
<rect width="47.5505" height="80.2414" fill="white" transform="translate(0 12.307) rotate(-15)"/>
</clipPath>
</defs>
</svg>
