<svg xmlns="http://www.w3.org/2000/svg" width="218" height="190" fill="none" viewBox="0 0 218 190"><path fill="#03d47c" d="M199.21 34.702c.08-.18 2.634-5.96 2.634-11.623 0-6.835-.6-17.624-.6-17.624v-.129c3.611-.127 7.311 2.431 7.311 8.52 0 13.787 1.197 22.18-13.182 33.208-10.963 8.407-10.187 20.501-10.308 25.295v.24h-5.153v-.48c.24-4.435.121-11.74 2.758-17.262 4.553-9.547 14.602-10.85 16.474-20.16z"/><path fill="#fffaf0" d="M206.502 120.155c8.8 0 8.343-12.152-.03-12.152h-.075v-4.155c14.305 0 14.82 20.462 0 20.462v-4.155zm-.105 5.992v-25.62l-.027-.006c-.163.805-1.068 1.548-2.514 2.173-2.612 1.129-6.994 1.87-11.959 1.87-5.252 0-9.851-.829-12.395-2.071-1.134-.551-1.861-1.187-2.053-1.867l-.053.017.069 13.567c.028 5.46.053 10.692.053 11.592 0 1.443 4.753 6.105 14.216 5.89 10.589-.239 14.663-3.888 14.663-5.545"/><path fill="#fffaf0" d="M206.397 100.26q0 .133-.027.261c-.163.804-1.068 1.548-2.514 2.173l-.005-.014c-4.586-3.775-18.335-4.497-24.266-.361l-.083.174c-1.134-.551-1.861-1.187-2.053-1.867a1.3 1.3 0 0 1-.053-.366c0-1.405 2.266-2.652 5.773-3.44 2.427-.542 5.45-.864 8.728-.864 8.007 0 14.5 1.925 14.5 4.304"/><path fill="#780505" d="m203.851 102.68.005.014c-2.612 1.129-6.994 1.87-11.959 1.87-5.252 0-9.852-.829-12.395-2.071l.083-.174c5.931-4.136 19.68-3.414 24.266.361"/><path fill="#03d47c" d="M201.244 5.455s.6 10.789.6 17.624c0 5.664-2.554 11.444-2.634 11.623l-.066-.014c.196-.978.303-2.046.303-3.22 0-5.352-2.356-8.166-5.103-8.992l.069-.237c-.119-2.517 0-6.235 0-9.952 0-1.779.583-3.263 1.516-4.397 1.308-1.592 3.298-2.495 5.313-2.564v.13z"/><path fill="#03d47c" d="M199.447 31.469a16.4 16.4 0 0 1-.302 3.219c-1.872 9.31-11.922 10.612-16.474 20.159-2.637 5.521-2.519 12.826-2.758 17.262v.48h-7.79v-.48s-1.605-15.679 6.592-23.736c6.951-6.834 12.238-9.624 13.127-13.787 1.253-5.874.416-12.108.416-12.108l-.008-.264a6.2 6.2 0 0 1 2.094.261c2.747.826 5.103 3.64 5.103 8.994"/><path fill="#03d47c" d="m195.853 7.612.077.278c-.933 1.134-1.517 2.618-1.517 4.397 0 3.717-.118 7.435 0 9.952l-.069.237a6.2 6.2 0 0 0-2.095-.262 6.6 6.6 0 0 0-2.837.782l-.152-.278-.958-20.98-.005-.052c3.768-.347 7.498 2.026 7.556 5.926"/><path fill="#4ba6a6" d="M194.514 172.933v5.513c0 3.957-5.274 4.436-6.95 4.436h-77.395c-9.708 0-13.543-2.877-16.298-6.353-.933-1.178-4.332-4.997-8.25-9.453l-.005-.154c1.41-.041 3.083-.105 3.928-.105 1.319 0 1.864-1.798 1.263-2.877-.41-.738-2.089-2.817-3.977-4.885-.652-.713-1.74-.65-2.042-.65-.958 0-3.185-.008-5.343-.008-.592 0-.972.176-1.214.429l-.066-.093c-6.056-6.843-10.195-11.664-10.195-11.664l.05-2.245.104-4.761a10.5 10.5 0 0 0 .036-1.69l.066-2.963s26.242 30.088 28.76 32.966c2.517 2.878 6.472 6.347 14.501 6.347h77.748c2.276 0 6.232-1.974 4.313-5.81h.003c.605 1.096.963 2.308.963 4.02"/><path fill="#50eef6" d="m164.688 144.274-2.208-2.545a7.35 7.35 0 0 0-5.552-2.533h-73.31c-1.96 0-2.968 2.343-1.621 3.767l1.222 1.399 5.251 6.008 5.203 5.951 2.945 3.37a7.3 7.3 0 0 0 5.301 2.283h72.859c2.065 0 3.171-2.426 1.817-3.985l-1.583-1.823-5.155-5.939zm28.86 24.639c1.918 3.836-2.037 5.81-4.313 5.81h-24.633v-.063s-3.504-4.246-6.14-7.063c-1.217-1.3-2.158-2.396-6.772-2.396-1.858 0-13.988-.061-19.232-.061-3.058 0-4.112 1.661-1.857 4.136 2.455 2.696 1.973 2.481 4.668 5.342v.105h-23.782c-8.029 0-11.984-3.469-14.5-6.347-2.519-2.878-28.761-32.966-28.761-32.966l96.126-.237s25.177 28.448 26.87 30.565c.939 1.173 1.751 2.12 2.329 3.175z"/><path fill="#03d47c" d="M192.257 22.478s.837 6.234-.415 12.108c-.889 4.163-6.177 6.953-13.127 13.787-8.197 8.057-6.592 23.737-6.592 23.737v.479h-6.232v-.24c-1.316-23.257 10.093-28.566 15.7-32.727 3.713-2.759 4.421-6.355 4.313-10.312-.079-3.007 1.448-5.215 3.507-6.314a6.6 6.6 0 0 1 2.838-.782z"/><path fill="#03d47c" d="m189.26 22.718.151.278c-2.059 1.099-3.586 3.307-3.506 6.314.107 3.957-.601 7.553-4.314 10.312-5.607 4.161-17.016 9.47-15.7 32.727v.24h-1.539v-2.82c0-.595-.074-1.17-.214-1.718l.077-.017c0-2.638-2.238-4.992-4.949-8.123l.035-.03c0-17.502 8.63-19.422 14.859-24.576 6.231-5.155 6.713-8.512 6.713-18.46 0-1.314-.165-2.46-.457-3.448l.096-.03c-.247-7.895 3.791-11.318 7.785-11.681l.005.052z"/><path fill="#b0d9ff" d="M186.505 72.589s1.258.24 1.258 1.23c0 .992-4.674 22.657-4.674 22.657l.08.344c-3.507.788-5.772 2.035-5.772 3.44q-.001.185.052.366l-.052.017.069 13.567h-.064c-2.686.575-7.817 1.239-12.948-.502h-.101v-41.12z"/><path fill="#03d47c" d="M180.417 13.397c.291.988.457 2.134.457 3.447 0 9.95-.482 13.306-6.714 18.46-6.229 5.155-14.858 7.075-14.858 24.577l-.036.03q-.244-.282-.492-.573c-1.319-1.539-3.265-1.88-4.991-1.955l.006-.138c0-8.632 1.918-16.064 9.587-21.461 7.671-5.395 9.947-9.23 10.666-13.306.914-5.187 0-13.787 0-13.787l-.006-.207c2.67-.12 5.34 1.388 6.381 4.913"/><path fill="#99f6ff" d="M176.596 157.989c1.354 1.559.248 3.985-1.817 3.985h-5.028v-.19l-4.848-5.524h10l.11-.093z"/><path fill="#99f6ff" d="m169.857 150.227 5.156 5.94-.11.093h-10l-5.257-5.994h10.167z"/><path fill="#03d47c" d="M174.041 8.69s.914 8.6 0 13.788c-.718 4.076-2.995 7.911-10.666 13.306-7.668 5.397-9.587 12.829-9.587 21.462l-.005.137c-.377-.016-.744-.02-1.09-.02h-4.536v-.239c-.361-25.655 18.334-25.774 18.813-33.927.077-1.319.239-5.034.239-7.074 0-4.673 3.414-7.487 6.827-7.639z"/><path fill="#99f6ff" d="m169.858 150.227-.044.039h-10.168l-5.257-5.992h10.3zm-.108 11.557v.19h-10.146v-.19l-4.847-5.524h10.146zm-10.104-11.518 5.257 5.994h-10.146l-5.257-5.994zm2.834-8.537 2.208 2.545h-10.3l-4.412-5.028v-.05h6.952c2.131 0 4.157.925 5.552 2.533m2.123 32.931v.063H135.27v-.104c-2.695-2.861-2.214-2.647-4.669-5.342-2.254-2.476-1.2-4.136 1.858-4.136 5.244 0 17.374.06 19.232.06 4.613 0 5.555 1.096 6.771 2.396 2.637 2.817 6.141 7.063 6.141 7.063"/><path fill="#50eef6" d="M74.02 85.999v37.576a6.06 6.06 0 0 0 6.059 6.06h72.008a6.06 6.06 0 0 0 6.059-6.06V74.384a6.06 6.06 0 0 0-6.059-6.06H80.079a6.06 6.06 0 0 0-6.059 6.06zm90.333 27.709v21.465h-96.54V69.769a6.985 6.985 0 0 1 6.984-6.986h82.573a6.98 6.98 0 0 1 6.983 6.986z"/><path fill="#4ba6a6" d="m164.215 68.034-.077.017a6.98 6.98 0 0 0-6.769-5.268H74.797a6.985 6.985 0 0 0-6.984 6.986v65.404l-.022.005s-2.32-2.646-3.76-4.086c-2.218-2.217-2.1-3.348-2.1-6.344v-14.396l-.005-43.998c0-4.315 3.184-8.99 9.895-8.99h80.872c.347 0 .713.003 1.09.019 1.726.074 3.672.416 4.99 1.955l.493.573c2.711 3.13 4.949 5.485 4.949 8.123"/><path fill="#99f6ff" d="M159.645 150.266H149.5l-5.258-5.992h10.146zm-.041 11.518v.19h-40.586v-.19l-4.844-5.524h40.583zM149.5 150.266l5.257 5.994h-10.316v-.113l-5.136-5.881zm4.888-5.992h-10.146l-4.412-5.028v-.05h10.146v.05z"/><path fill="#99f6ff" d="M149.499 150.266h-10.195l-5.23-5.992h10.168zm-5.059 5.881v.113h-10.044v-.077l-5.191-5.917h10.099zm-.197-11.873h-10.168l-4.39-5.028v-.05h10.145v.05z"/><path fill="#99f6ff" d="m134.075 144.274 5.23 5.992h-10.099l-5.258-5.992zm.322 11.909v.077h-10.185v-.124l-5.15-5.87h10.144zm-.322-11.909h-10.126l-4.41-5.028v-.05h10.146v.05z"/><path fill="#99f6ff" d="m123.948 144.274 5.257 5.992h-10.143l-5.257-5.992zm.265 11.862v.124h-10.039l-5.26-5.994h10.149zm-4.675-16.89 4.41 5.028h-10.143l-4.412-5.028v-.05h10.145z"/><path fill="#99f6ff" d="M119.062 150.266h-10.148l-5.258-5.992h10.149zm-.044 11.518v.19h-10.145v-.19l-4.848-5.524h10.149zm-4.845-5.524h-10.148l-5.257-5.994h10.145zm-.368-11.986h-10.148l-4.41-5.028v-.05h10.146v.05z"/><path fill="#99f6ff" d="m103.657 144.274 5.257 5.992H98.768l-5.257-5.992zm5.215 17.51v.19h-6.953a7.3 7.3 0 0 1-5.301-2.283l-2.945-3.37.069-.061h10.283z"/><path fill="#99f6ff" d="m98.768 150.266 5.257 5.994H93.742l-.069.061-5.202-5.951.118-.104zm.479-11.02 4.41 5.028H93.511l-4.412-5.028v-.05h10.148z"/><path fill="#99f6ff" d="M98.768 150.266h-10.18l-.117.104-5.252-6.008.099-.088H93.51z"/><path fill="#d18000" d="M96.966 18.114c2.884.358 2.1 2.528 1.224 3.5-.253.28-.812.845-1.492 1.52l-.032-.036c.946-.953 1.1-1.76-.804-1.76H45.185c-2.012 0-3.256-.085-5.056 1.716-.796.796-1.22 1.156-2.968 2.905s-1.263 2.855-.233 2.855v.02l-1.346-.014c-3.072 0-3.708-2.12-2.541-3.39l.206-.226c1.66-1.798 2.979-3.026 4.605-4.755 1.696-1.804 3.554-2.388 6.202-2.388h52.02q.495 0 .892.053"/><path fill="#e4bc07" d="m96.97 18.067-.005.047a7 7 0 0 0-.892-.053h-52.02c-2.647 0-4.505.584-6.2 2.388-1.628 1.73-2.946 2.957-4.606 4.755l-.102-.093v-8.055c0-1.032-.063-1.98-.063-2.86.003-1.65.237-3.068 1.547-4.379 1.855-1.856 5.436-4.38 7.344-5.548 1.904-1.165 3.6-1.377 6.78-1.377h41.526c3.072 0 6.006 1.34 6.323 4.626.32 3.285.369 10.549.369 10.549"/><path fill="#fff2b2" d="M36.927 28.814c-1.03 0-1.508-1.112.234-2.855 1.743-1.743 2.172-2.11 2.968-2.905 1.8-1.801 3.044-1.716 5.056-1.716h13.504v.353c0 7.553 17.974 6.834 17.974 0v-.353h19.199c1.904 0 1.75.807.803 1.76l.033.036c-1.502 1.495-3.592 3.524-4.227 4.202-1.589 1.696-3.284 1.803-7.735 1.908-2.188.052-40.137-.333-47.809-.41z"/><path fill="#99f6ff" d="M93.51 144.274H83.319l-.099.088-1.222-1.399c-1.346-1.424-.338-3.767 1.621-3.767h5.48v.05z"/><path fill="#4ba6a6" d="M90.808 163.94c.6 1.079.055 2.878-1.264 2.878-.845 0-2.518.063-3.927.104-.793.028-1.503.047-1.933.047-1.197 0-1.665.088-2.744-1.258l-.011-.069c1.096-.201 1.39-1.556 1.101-2.66-.487-1.856-1.886-2.217-3.22-2.217h-.879v-.038s-.338-1.229.3-1.9c.243-.254.623-.43 1.214-.43 2.158 0 4.385.008 5.343.008.303 0 1.39-.063 2.042.65 1.889 2.068 3.568 4.147 3.978 4.885"/><path fill="#28736d" d="M82.03 162.982c.289 1.104-.006 2.459-1.101 2.66q-.138.028-.292.027h-18.23c-1.921 0-4.737-.328-7.008-3.153a397 397 0 0 1-4.53-5.777c-1.203-1.547-2.338-3.012-3.293-4.21-1.247-1.561-1.712-2.145-4.676-2.145-1.935 0-7.275.044-12.439.085-4.283.036-8.679.075-11.406.088a.829.829 0 0 0-.675 1.3 382 382 0 0 1 4.278 6.3l.044.411c-2.381.25-3.675.793-4.627 1.555-.017-.024-1.396-2.238-4.644-6.914-1.668-2.401-1.37-4.141-.828-5.18.776-1.486 2.425-2.307 4.643-2.307s7.749-.047 13.174-.091a2194 2194 0 0 1 12.48-.088c4.5 0 6.314 1.278 8.458 3.968.977 1.223 2.12 2.698 3.334 4.263 1.5 1.935 3.05 3.937 4.475 5.708.908 1.132 1.839 1.346 3.24 1.346l15.524-.06h.878c1.335-.003 2.733.358 3.22 2.214"/><path fill="#fffaf0" d="M76.662 21.338v.353c0 6.834-17.974 7.553-17.974 0v-.353z"/><path fill="#4ba6a6" d="m68.16 138.373-.036 1.69c-.275 2.663-1.552 4.676-3.083 4.676-1.731 0-3.138-2.575-3.138-5.752 0-3.178 1.407-5.755 3.138-5.755 1.619 0 2.954 2.252 3.119 5.141"/><path fill="#28736d" d="M61.931 110.352v2.999H44.378l-.173.079-1.382-2.968.237-.11z"/><path fill="#b0d9ff" d="M52.576 124.847c1.778 2.577-.666 4.089-3.314 4.089H10.319c-2.012 0-3.333-.931-4.412-2.655-.86-1.371-2.26-3.648-4.523-7.547-1.907-3.285 1.484-5.51 4.027-4.981l.19.09-1.56 3.258 5.218 8.098 40.416-.008-5.17-11.116h.003c1.37 1.905 5.318 6.787 8.068 10.772"/><path fill="#5ab0ff" d="m44.505 114.075 5.17 11.116-40.416.008 14.544-31.267 11.376.09 7.644 16.44 1.382 2.968zm-12.824.845v-9.998l-4.024.035v9.963z"/><path fill="#4ed7de" d="M48.452 181.252c.63 4.048-.358 6.835-6.56 7.283-3.262.237-6.675.039-9.592-.864l.093-.303c-.572-5.372-3.256-13.9-7.272-19.242l.083-.061H42.82l.24-.151c2.837 4.56 4.877 10.023 5.392 13.338"/><path fill="#4ed7de" d="m43.06 167.913-.24.152h-8.27v-.047c-1.373-3.555-6.146-8.971-10.644-9.544a41 41 0 0 1 2.345-.058c7.46.011 10.936 1.688 14.831 6.653a32 32 0 0 1 1.976 2.844"/><path fill="#8dc8ff" d="m30.841 89.389 4.338 4.634-11.376-.091-5.73-6.102 3.481-.044h.149v2.307s1.558 2.17 4.67 2.008c4.014-.21 4.336-2.087 4.336-2.087v-.626z"/><path fill="#4ed7de" d="M34.551 168.018v.047h-9.347l-.083.061c-2.686-3.577-5.97-5.725-9.623-4.544l-.101-.044c.556-1.313 1.47-2.448 2.678-3.414.952-.763 2.246-1.306 4.627-1.556q.559-.057 1.205-.094c4.498.573 9.27 5.989 10.644 9.544"/><path fill="#ffa75a" d="M33.146 17.056v6.708h-4.193v-.237c-1.618-2.437-1.436-6.964.361-9.172v-.16h3.768c0 .881.063 1.829.063 2.861"/><path fill="#4ed7de" d="m32.394 187.368-.094.303c-1.814-.559-3.435-1.394-4.71-2.567-3.324-3.056-11.224-10.865-12.391-15.18-.675-2.484-.564-4.602.198-6.386l.102.044c3.652-1.181 6.936.967 9.623 4.543 4.016 5.342 6.7 13.87 7.272 19.243"/><path fill="#ffa75a" d="M30.71 89.389v.625s-.323 1.878-4.336 2.087c-3.113.162-4.67-2.007-4.67-2.007v-7.466h.107c2.105 1.801 6.418 1.98 8.741.361h.157z"/><path fill="#ffa75a" d="M30.71 72.38v10.609h-.158c-2.323 1.62-6.636 1.44-8.741-.36h-.108v-10.61h.108c2.105 1.8 6.418 1.98 8.741.36z"/><path fill="#ffa75a" d="M30.71 61.23v11.15h-.158c-2.323 1.619-6.636 1.44-8.741-.361h-.108V61.61q0-.388-.03-.727l.138-.01c2.105 1.797 6.418 1.976 8.741.357z"/><path fill="#ffa75a" d="M30.709 56.673v4.557h-.157c-2.323 1.619-6.636 1.44-8.742-.358l-.138.01c-.209-2.447-1.541-2.981-3.677-2.981h-1.597v-.028c1.798-2.208 1.98-6.735.361-9.17v-.14h5.367c6.675 0 8.583 2.812 8.583 8.11m-1.395-42.478v.16c-1.797 2.208-1.98 6.735-.36 9.172v.237H16.09c-.231 0-.46 0-.677.006v-.243c-1.619-2.437-1.44-6.964.357-9.172v-.16z"/><path fill="#8dc8ff" d="m18.072 87.83 5.731 6.102L9.26 125.199l-5.219-8.098 1.56-3.258z"/><path fill="#ffa75a" d="M16.76 48.704c1.618 2.434 1.436 6.96-.361 9.17v.027h-6.235c-4.195 0-8.1-2.605-8.1-8.966v-2.33h.071c2.296 1.799 6.997 1.978 9.527.358l.156-.063c.405.95 1.385 1.663 3.213 1.663h1.728zm-.989-34.509v.16c-1.797 2.208-1.976 6.735-.36 9.172v.243c-2.051.038-3.504.388-3.777 3.301l-.1-.008c-2.529 1.62-7.103 1.44-9.399-.358h-.072v-2.971c0-5.406 1.633-9.539 8.624-9.539z"/><path fill="#ffa75a" d="m11.818 46.9-.156.064c-2.53 1.619-7.231 1.44-9.527-.358h-.072v-9.652h.072c2.296 1.798 6.807 1.977 9.337.36h.115V45.7c0 .418.072.828.231 1.2"/><path fill="#ffa75a" d="m11.535 27.063.099.008c-.03.328-.047.686-.047 1.082v9.162h-.115c-2.53 1.616-7.041 1.437-9.337-.36h-.072v-10.25h.072c2.296 1.798 6.87 1.977 9.4.358"/><path stroke="#002140" stroke-linecap="round" stroke-linejoin="round" d="M164.353 135.173V69.769a6.98 6.98 0 0 0-6.983-6.986H74.797a6.985 6.985 0 0 0-6.983 6.986v65.404z"/><path stroke="#002140" stroke-linecap="round" stroke-linejoin="round" d="M164.215 68.034c0-2.638-2.238-4.992-4.949-8.123l-.493-.573c-1.318-1.54-3.264-1.88-4.99-1.955a25 25 0 0 0-1.09-.02H71.821c-6.71 0-9.895 4.676-9.895 8.991l.005 43.998v14.396c0 2.996-.118 4.127 2.1 6.344 1.44 1.44 3.76 4.086 3.76 4.086"/><path fill="#0164bf" stroke="#002140" stroke-linecap="round" stroke-linejoin="round" d="M158.146 85.999v37.576a6.06 6.06 0 0 1-6.058 6.06h-72.01a6.06 6.06 0 0 1-6.058-6.06V74.384a6.06 6.06 0 0 1 6.059-6.06h72.009a6.06 6.06 0 0 1 6.058 6.06z"/><path stroke="#002140" stroke-linecap="round" stroke-linejoin="round" d="M68.16 138.373q.02.303.02.614-.001.555-.056 1.076c-.275 2.663-1.552 4.676-3.083 4.676-1.731 0-3.138-2.575-3.138-5.752 0-3.178 1.407-5.755 3.138-5.755 1.619 0 2.954 2.252 3.119 5.141"/><path stroke="#002140" stroke-linecap="round" stroke-linejoin="round" d="M85.622 167.076c3.916 4.456 7.316 8.275 8.249 9.453 2.755 3.476 6.59 6.353 16.298 6.353h77.395c1.676 0 6.95-.479 6.95-4.436v-5.513c0-1.713-.358-2.924-.963-4.02-.578-1.055-1.39-2.002-2.329-3.175-1.693-2.117-26.87-30.565-26.87-30.565l-96.126.237-.066 2.963-.036 1.69-.105 4.761-.05 2.244s4.14 4.822 10.196 11.665"/><path stroke="#002140" stroke-linecap="round" stroke-linejoin="round" d="M68.226 135.41s26.242 30.088 28.76 32.966c2.516 2.878 6.472 6.347 14.501 6.347h77.748c2.276 0 6.231-1.974 4.313-5.81"/><path stroke="#002140" stroke-linecap="round" stroke-linejoin="round" d="m175.013 156.167 1.583 1.823c1.354 1.558.247 3.984-1.817 3.984H101.92a7.3 7.3 0 0 1-5.302-2.283l-2.945-3.37-5.202-5.951-5.252-6.008-1.222-1.399c-1.346-1.424-.338-3.767 1.621-3.767h73.311c2.13 0 4.156.925 5.552 2.533l2.207 2.545 5.17 5.953zm-39.743 18.452c-2.695-2.861-2.214-2.647-4.669-5.342-2.254-2.476-1.2-4.136 1.858-4.136 5.244 0 17.374.06 19.232.06 4.613 0 5.555 1.096 6.771 2.396 2.637 2.817 6.141 7.063 6.141 7.063m18.486-78.184s4.673-21.668 4.673-22.656c0-.99-1.257-1.231-1.257-1.231h-22.051m0 41.119c5.131 1.741 10.262 1.077 12.948.502m-29.245-57.086c-.361-25.655 18.334-25.774 18.813-33.927.077-1.319.239-5.034.239-7.074 0-4.673 3.414-7.487 6.827-7.639 2.67-.12 5.34 1.388 6.38 4.913.292.988.457 2.134.457 3.447 0 9.95-.482 13.306-6.713 18.46-6.229 5.155-14.859 7.075-14.859 24.577m6.59 12.468c-1.316-23.257 10.093-28.566 15.7-32.727 3.713-2.759 4.421-6.355 4.313-10.312-.079-3.007 1.448-5.215 3.507-6.314a6.6 6.6 0 0 1 2.838-.782 6.2 6.2 0 0 1 2.095.261c2.747.826 5.103 3.64 5.103 8.994 0 1.173-.107 2.241-.303 3.219-1.872 9.31-11.921 10.612-16.474 20.159-2.637 5.521-2.518 12.826-2.758 17.262"/><path stroke="#002140" stroke-linecap="round" stroke-linejoin="round" d="M194.413 22.239c-.118-2.517 0-6.235 0-9.952 0-1.779.584-3.263 1.517-4.397 1.307-1.592 3.297-2.495 5.312-2.564 3.614-.127 7.313 2.431 7.313 8.52 0 13.787 1.198 22.18-13.181 33.208-10.964 8.407-10.187 20.501-10.309 25.295m-4.552-58.982c-.248-7.895 3.79-11.318 7.784-11.681 3.768-.347 7.498 2.026 7.556 5.926"/><path stroke="#002140" stroke-linecap="round" stroke-linejoin="round" d="M172.123 72.11s-1.605-15.68 6.592-23.737c6.951-6.834 12.238-9.624 13.127-13.787 1.253-5.873.416-12.108.416-12.108m-38.47 34.768c0-8.633 1.919-16.065 9.587-21.462 7.671-5.395 9.948-9.23 10.666-13.306.914-5.187 0-13.787 0-13.787m14.261-6.953.958 20.98m11.985-17.263s.6 10.79.6 17.624c0 5.664-2.554 11.444-2.634 11.623-.003 0-.003.005-.003.005m-21.812 65.936.069 13.567c.028 5.46.053 10.692.053 11.592 0 1.443 4.753 6.105 14.216 5.89 10.589-.239 14.663-3.888 14.663-5.545v-25.62"/><path stroke="#002140" stroke-linecap="round" stroke-linejoin="round" d="M183.169 96.82c2.427-.542 5.45-.864 8.728-.864 8.007 0 14.5 1.925 14.5 4.304q0 .133-.027.261c-.163.804-1.068 1.548-2.514 2.173-2.612 1.129-6.994 1.87-11.959 1.87-5.252 0-9.851-.829-12.395-2.071-1.134-.551-1.861-1.187-2.053-1.867a1.3 1.3 0 0 1-.053-.366c0-1.405 2.266-2.652 5.773-3.44"/><path stroke="#002140" stroke-linecap="round" stroke-linejoin="round" d="M179.585 102.319c5.932-4.136 19.68-3.414 24.266.361m2.546 1.168c14.305 0 14.82 20.462 0 20.462"/><path stroke="#002140" stroke-linecap="round" stroke-linejoin="round" d="M206.472 108.003c8.373 0 8.83 12.152.03 12.152M89.099 139.246l4.412 5.028 5.257 5.992 5.258 5.994 4.847 5.524m-9.626-22.538 4.41 5.028 5.257 5.992 5.26 5.994 4.844 5.524m-9.625-22.538 4.412 5.028 5.257 5.992 5.15 5.87m-4.673-16.89 4.41 5.028 5.257 5.992 5.191 5.917m-4.712-16.937 4.39 5.028 5.23 5.992 5.136 5.881m-4.611-16.901 4.412 5.028 5.258 5.992 5.257 5.994 4.847 5.524m-9.628-22.538 4.412 5.028 5.257 5.992 5.258 5.994 4.847 5.524m-86.432-17.51h81.414m-76.143 5.992h81.224m-76.071 5.994h81.161m-96.971 4.467s-.34-1.229.3-1.9c.242-.254.622-.43 1.213-.43 2.158 0 4.385.008 5.343.008.303 0 1.39-.063 2.042.65 1.889 2.068 3.568 4.147 3.978 4.885.6 1.079.055 2.878-1.264 2.878-.845 0-2.518.063-3.927.104-.793.028-1.503.047-1.933.047-1.197 0-1.665.088-2.744-1.258m-15.899-20.972 2.967.085"/><path stroke="#002140" stroke-linecap="round" stroke-linejoin="round" d="M18.075 160.123c-.017-.024-1.396-2.238-4.644-6.914-1.668-2.401-1.37-4.141-.828-5.18.776-1.486 2.425-2.307 4.643-2.307s7.749-.047 13.174-.091a2194 2194 0 0 1 12.48-.088c4.5 0 6.314 1.278 8.458 3.968.977 1.223 2.12 2.698 3.334 4.263 1.5 1.935 3.05 3.937 4.475 5.708.908 1.132 1.839 1.346 3.24 1.346l15.524-.06h.878c1.335-.003 2.733.358 3.22 2.214.29 1.104-.005 2.459-1.1 2.66q-.138.028-.292.027h-18.23c-1.921 0-4.737-.328-7.008-3.153a397 397 0 0 1-4.53-5.777c-1.203-1.547-2.338-3.012-3.293-4.21-1.247-1.561-1.712-2.145-4.676-2.145-1.935 0-7.275.044-12.439.085-4.283.036-8.679.075-11.406.088a.829.829 0 0 0-.675 1.3 382 382 0 0 1 4.278 6.3"/><path stroke="#002140" stroke-linecap="round" stroke-linejoin="round" d="M18.075 160.123c-1.208.967-2.122 2.102-2.678 3.415-.762 1.784-.873 3.902-.198 6.386 1.167 4.315 9.067 12.124 12.392 15.18 1.274 1.173 2.895 2.008 4.71 2.567 2.917.903 6.33 1.101 9.592.864 6.201-.448 7.19-3.235 6.56-7.283-.516-3.315-2.555-8.779-5.393-13.339a32 32 0 0 0-1.977-2.844c-3.894-4.965-7.37-6.642-14.83-6.653-.87-.003-1.646.02-2.345.058a26 26 0 0 0-1.206.094c-2.38.25-3.674.793-4.627 1.555"/><path stroke="#002140" stroke-linecap="round" stroke-linejoin="round" d="M15.499 163.582c3.653-1.181 6.936.967 9.623 4.543 4.016 5.342 6.7 13.87 7.272 19.243m-7.19-19.303H42.82m-19.532-9.638q.31.01.62.047c4.497.573 9.27 5.989 10.643 9.544M9.259 125.199l14.544-31.267 11.376.09 7.644 16.44 1.382 2.968.3.645 5.17 11.116z"/><path stroke="#002140" stroke-linecap="round" stroke-linejoin="round" d="m9.259 125.199-5.219-8.098 1.56-3.258L18.073 87.83l5.731 6.102m7.036-4.544 4.339 4.635M18.072 87.83l3.482-.044"/><path stroke="#002140" stroke-linecap="round" stroke-linejoin="round" d="M5.411 113.753c-2.543-.529-5.934 1.696-4.027 4.981 2.263 3.899 3.664 6.176 4.523 7.547 1.079 1.724 2.4 2.655 4.412 2.655h38.943c2.648 0 5.092-1.512 3.314-4.089-2.75-3.985-6.697-8.867-8.068-10.775"/><path stroke="#002140" stroke-linecap="round" stroke-linejoin="round" d="M31.68 109.928v-5.006l-4.024.035v9.963h4.024zm-3.92 0h3.92m1.366-95.733H10.687c-6.991 0-8.624 4.133-8.624 9.539v25.201c0 6.36 3.906 8.966 8.101 8.966h7.831c2.136 0 3.468.534 3.677 2.982q.03.339.03.727v28.483s1.559 2.17 4.672 2.008c4.013-.21 4.335-2.088 4.335-2.088v-33.34c0-5.298-1.907-8.11-8.582-8.11H15.03c-1.828 0-2.808-.713-3.213-1.663a3 3 0 0 1-.23-1.2V28.153c0-.396.016-.754.046-1.082.272-2.913 1.726-3.263 3.78-3.301q.328-.008.676-.006h16.862m.194 1.346v-8.054c0-1.032-.063-1.98-.063-2.86.003-1.65.237-3.068 1.547-4.379 1.855-1.856 5.436-4.38 7.344-5.548 1.904-1.165 3.6-1.377 6.78-1.377h41.526c3.072 0 6.007 1.34 6.323 4.626.32 3.285.369 10.549.369 10.549"/><path stroke="#002140" stroke-linecap="round" stroke-linejoin="round" d="m36.928 28.834-1.346-.014c-3.072 0-3.708-2.12-2.541-3.39l.206-.226c1.66-1.798 2.979-3.026 4.605-4.755 1.696-1.804 3.554-2.388 6.202-2.388h52.02q.495 0 .892.053c2.884.358 2.1 2.528 1.224 3.5-.253.28-.812.845-1.492 1.52-1.502 1.495-3.591 3.524-4.227 4.202-1.589 1.696-3.284 1.803-7.735 1.908-2.188.052-40.137-.333-47.808-.41"/><path stroke="#002140" stroke-linecap="round" stroke-linejoin="round" d="M36.936 28.814h-.009c-1.03 0-1.508-1.112.234-2.855 1.743-1.743 2.172-2.11 2.968-2.905 1.8-1.801 3.044-1.716 5.056-1.716h50.677c1.904 0 1.75.807.803 1.76"/><path stroke="#002140" stroke-linecap="round" stroke-linejoin="round" d="M58.689 21.69c0 7.554 17.973 6.835 17.973 0M21.81 82.628c2.106 1.801 6.42 1.98 8.743.361m-8.743-10.97c2.106 1.8 6.42 1.98 8.743.36M21.81 60.872c2.106 1.798 6.42 1.977 8.743.358m-14.155-3.357c1.798-2.208 1.98-6.735.361-9.17m-.989-34.348c-1.796 2.208-1.975 6.735-.36 9.172m13.904-9.172c-1.797 2.208-1.979 6.735-.36 9.172M2.135 46.606c2.295 1.798 6.997 1.977 9.526.357M2.135 36.954c2.295 1.798 6.807 1.977 9.336.36M2.135 26.705c2.295 1.798 6.87 1.977 9.4.358m31.525 83.289h18.813m-17.495 2.999h17.495"/><g clip-path="url(#a)"><path fill="#fed607" d="M103.686 49.834s-1.544 1.434-2.46 2.246-9.007 4.908-7.155 12.24 5.323 8.442 9.071 8.458l.607 1.424s.765 2.856 3.942 3.708c3.177.851 4.356 1.443 4.781 3.029s.447 7.592 5.667 6.76l4.375 16.75s-.346 1.567-1.341 1.664c-.994.097-1.312.182-1.589-.851a255 255 0 0 0-1.143-3.947s-.779-1.322-2.365-.897-2.097 1.733-1.952 2.564c.146.83.405 2.783.405 2.783s-.347 1.88-1.628 1.541c-1.282-.335-1.24-.178-1.744-1.745-.505-1.567-1.801-5.132-4.674-4.106s-2.77 3.634-2.308 5.041c.461 1.407 3.709 13.213 3.709 13.213s1.296 3.565 4.053 2.742c2.38-.638 2.485-2.791 2.409-3.707s-.597-3.499-.597-3.499.691-1.546 1.57-1.441c.88.106 1.659 1.427 1.659 1.427l.626 1.704s.987 1.777 2.955 1.506 1.87-2.542 1.699-3.178c-.17-.637-.505-2.842-.505-2.842s-.452-.73.979-1.113c1.43-.384 1.842.024 1.95.923.107.9 1.142 3.948 1.142 3.948s.978 2.376 2.86 1.785c1.883-.59 2.926-1.464 1.664-6.487-1.26-5.021-6.544-25.383-6.544-25.383s2.92-.526 2.942-3.937-1.376-4.82-.859-6.064c.518-1.244 3.209-3.583 3.209-3.583s2.211-1.272 1.159-4.564c-.367-1.689-.616-2.301-.616-2.301s6.69-3.918 4.348-11.713c-2.345-7.794-11.32-7.005-11.32-7.005s-2.45.062-3.521-.759c-1.07-.818-4.351-3.854-6.743-3.893s-6.246.822-7.321 3.154c-1.078 2.33-1.399 4.403-1.399 4.403z"/><path fill="#002140" d="M113.157 110.697a2.219 2.219 0 1 0-4.287 1.149 2.219 2.219 0 0 0 4.287-1.149"/><path fill="#fffaf0" d="M112.207 60.747c-1.057-3.945-4.707-6.394-8.153-5.471-3.445.923-5.382 4.87-4.324 8.815s4.707 6.394 8.152 5.471c3.446-.923 5.382-4.87 4.325-8.815m16.509-4.423c-1.057-3.945-4.707-6.395-8.153-5.471-3.445.923-5.382 4.87-4.325 8.814s4.708 6.395 8.153 5.472c3.446-.924 5.382-4.87 4.325-8.815"/><path fill="#002140" d="M112.401 75.44s2.346 4.305 6.367 3.228c4.022-1.078 4.04-6.3 4.04-6.3s-9.155 2.453-9.856 2.584c-.703.132-.846.227-.548.488z"/><path fill="#fffaf0" d="M112.099 74.955s7.311-.654 10.849-2.907c0 0-.037-3.734-1.959-3.503s-3.067 2.524-3.852 2.563c-.784.038-2.761-1.417-4.193-.407-1.433 1.007-1.964 2.623-.845 4.254"/><path stroke="#002140" stroke-linecap="round" stroke-linejoin="round" d="M123.838 86.193c5.384-1.658 1.445-8.196 2.157-10.074 1.104-2.847 6.49-3.575 3.595-10.353 2.001-1.049 6.878-4.54 4.015-12.408s-11.1-5.984-13.411-6.552-4.701-5.863-10.744-4.244-4.893 6.626-6.686 8.442c-1.79 1.816-10.913 5.232-8.457 14.396s8.166 6.91 9.155 7.585c.724 5.526 6.608 4.921 8.463 7.014.902.945.805 9.012 6.175 7.734l4.189 15.633c.452 1.687-.089 2.588-1.146 2.871-1.763.473-2.006-2.854-2.291-3.917-.284-1.062-1.177-2.279-2.99-1.793s-1.936 1.98-1.586 3.286.818 3.017-.992 3.502-2.258-1.974-2.456-2.716c-.364-1.359-1.511-3.831-4.107-3.243s-3.08 2.507-2.502 4.665l3.657 13.645c.249.93 1.336 3.582 4.03 2.861 2.694-.722 2.705-3.099 2.382-4.307-.324-1.208-1.109-3.831.654-4.304 1.763-.472 2.129 1.399 2.507 2.81s1.462 2.206 3.232 1.729 1.897-1.916 1.573-3.124-1.357-3.657.283-4.178c1.642-.522 1.879.661 2.26 1.984.38 1.324 1.209 5.719 4.23 4.91s1.923-4.51 1.383-6.524-6.572-25.33-6.572-25.33"/><path stroke="#002140" stroke-linecap="round" stroke-linejoin="round" d="M113.006 110.627a2.136 2.136 0 1 0-4.129 1.106 2.138 2.138 0 0 0 4.129-1.106m-.825-49.765c-1.062-3.962-4.727-6.423-8.187-5.495s-5.405 4.89-4.343 8.852 4.727 6.423 8.187 5.496 5.405-4.89 4.343-8.853"/><path fill="#002140" d="m105.711 62.806 2.217-2.558c-1.116-1.924-3.205-2.977-5.198-2.443-2.449.657-3.825 3.464-3.074 6.267s3.346 4.547 5.796 3.89c1.779-.476 2.988-2.09 3.231-4.014l-2.97-1.145z"/><path stroke="#002140" stroke-linecap="round" stroke-linejoin="round" d="M128.693 56.438c-1.062-3.962-4.727-6.423-8.188-5.495-3.46.927-5.404 4.89-4.342 8.852 1.061 3.962 4.727 6.423 8.187 5.496s5.405-4.89 4.343-8.853"/><path fill="#002140" d="m122.219 58.383 2.217-2.558c-1.116-1.924-3.205-2.977-5.198-2.443-2.45.656-3.826 3.463-3.074 6.267.751 2.803 3.346 4.546 5.796 3.89 1.779-.477 2.988-2.09 3.231-4.014l-2.97-1.145z"/><path stroke="#002140" stroke-linecap="round" stroke-linejoin="round" d="M121.872 68.877c-2.112-1.53-3.738 1.971-4.944 2.294s-3.783-2.168-5.152.665c-1.366 2.833 3.047 8.022 7.097 6.937s5.112-8.364 2.999-9.898z"/><path stroke="#002140" stroke-linecap="round" stroke-linejoin="round" d="M112.249 75.086s5.25-.473 10.48-2.762"/><path stroke="#002140" stroke-linecap="round" stroke-linejoin="round" d="M113.522 70.774s.626 2.921 1.035 3.863m5.034-5.404s.766 1.722 1.035 3.863m-3.647-1.716c.207.85.5 1.99.704 2.504"/></g><defs><clipPath id="a"><path fill="#fff" d="M86 47.307 131.93 35l20.768 77.507-45.93 12.307z"/></clipPath></defs></svg>