<svg version="1.1" id="Layer_1" xmlns="http://www.w3.org/2000/svg" x="0" y="0" height="100" width="161" viewBox="0 0 161 100" style="enable-background:new 0 0 161 100" xml:space="preserve"><style>.st0,.st1{fill:none;stroke:#0b1b34;stroke-width:2;stroke-miterlimit:10}.st1{fill:#0185ff;stroke:#fff}.st2{fill:#0b1b34}.st5{fill:#fff}</style><path class="st0" d="M113.5 46.7v7.9"/><path class="st1" d="M137.7 72c.1-11.1-10.8-20.2-24.2-20.2s-24.3 9-24.2 20.2h48.4z"/><path class="st2" d="M131.1 66.1c-1.6-3.4-4.7-6.2-8.5-8l8.5 8z"/><path d="M131.1 66.1c-1.6-3.4-4.7-6.2-8.5-8" style="fill:none;stroke:#fff;stroke-width:2;stroke-linecap:round;stroke-linejoin:round;stroke-miterlimit:10"/><path class="st2" d="M117.8 47.7c0-2-2-3.6-4.4-3.6s-4.4 1.6-4.4 3.6h8.8z"/><path class="st1" d="M141.4 79H85.5l3.7-6.9h48.5l3.7 6.9z"/><path class="st0" d="M113.1 31.2v7.1M102 34.2l4 5.1M124.2 34.2l-4 5.1"/><path d="M20.5 44.6c0 12.5 10.1 22.6 22.6 22.6 5.4 0 10.3-1.9 14.2-5h18.4L64.5 51.8c.8-2.3 1.2-4.7 1.2-7.2C65.7 32.1 55.6 22 43.1 22S20.5 32.1 20.5 44.6z" style="fill:#0185ff;stroke:#fff;stroke-width:2;stroke-linejoin:round;stroke-miterlimit:10"/><path class="st5" d="M40.9 32.6h4.6v5.7l-1.2 10.4h-2.2l-1.2-10.4v-5.7zM43.2 55.5c1.3 0 2.3-1 2.3-2.3 0-1.3-1-2.3-2.3-2.3-1.3 0-2.3 1-2.3 2.3 0 1.3 1 2.3 2.3 2.3z"/></svg>