<?xml version="1.0" encoding="utf-8"?>
<!-- Generator: Adobe Illustrator 26.5.0, SVG Export Plug-In . SVG Version: 6.00 Build 0)  -->
<svg version="1.1" id="Layer_1" xmlns="http://www.w3.org/2000/svg" xmlns:xlink="http://www.w3.org/1999/xlink" x="0px" y="0px"
	 viewBox="0 0 20 20" style="enable-background:new 0 0 20 20;" xml:space="preserve">
<style type="text/css">
	.st0{fill-rule:evenodd;clip-rule:evenodd;}
</style>
<path class="st0" d="M16.4,1.5c-2-2-5.1-2-7.1,0L9,1.9C8.4,2.5,8.4,3.4,9,4c0.6,0.6,1.5,0.6,2.1,0l0.4-0.4c0.8-0.8,2-0.8,2.8,0
	c0.8,0.8,0.8,2,0,2.8l-2.8,2.8c-1,1-2.1,0.7-2.8,0l-2.1,2.1c1.8,1.8,4.9,2.1,7.1,0l2.8-2.8C18.3,6.7,18.3,3.5,16.4,1.5z M1.5,16.4
	c2,2,5.1,2,7.1,0L9,16c0.6-0.6,0.6-1.5,0-2.1c-0.6-0.6-1.5-0.6-2.1,0l-0.4,0.4c-0.8,0.8-2,0.8-2.8,0c-0.8-0.8-0.8-2,0-2.8l2.8-2.8
	c1-1,2.1-0.7,2.8,0l2.1-2.1c-1.8-1.8-4.9-2.1-7.1,0L1.5,9.3C-0.4,11.3-0.4,14.4,1.5,16.4z M15,13c0-0.6,0.4-1,1-1c0.6,0,1,0.4,1,1v2
	h2c0.6,0,1,0.4,1,1c0,0.6-0.4,1-1,1h-2v2c0,0.6-0.4,1-1,1c-0.6,0-1-0.4-1-1v-2h-2c-0.6,0-1-0.4-1-1c0-0.6,0.4-1,1-1h2V13z"/>
</svg>
