<svg xmlns="http://www.w3.org/2000/svg" xml:space="preserve" id="Layer_1" x="0" y="0" viewBox="0 0 20 20"><style>.st0{fill-rule:evenodd;clip-rule:evenodd}</style><path d="M16.4 1.5c-2-2-5.1-2-7.1 0l-.3.4c-.6.6-.6 1.5 0 2.1s1.5.6 2.1 0l.4-.4c.8-.8 2-.8 2.8 0s.8 2 0 2.8l-2.8 2.8c-1 1-2.1.7-2.8 0l-2.1 2.1c1.8 1.8 4.9 2.1 7.1 0l2.8-2.8c1.8-1.8 1.8-5-.1-7M1.5 16.4c2 2 5.1 2 7.1 0L9 16c.6-.6.6-1.5 0-2.1s-1.5-.6-2.1 0l-.4.4c-.8.8-2 .8-2.8 0s-.8-2 0-2.8l2.8-2.8c1-1 2.1-.7 2.8 0l2.1-2.1c-1.8-1.8-4.9-2.1-7.1 0L1.5 9.3c-1.9 2-1.9 5.1 0 7.1M15 13c0-.6.4-1 1-1s1 .4 1 1v2h2c.6 0 1 .4 1 1s-.4 1-1 1h-2v2c0 .6-.4 1-1 1s-1-.4-1-1v-2h-2c-.6 0-1-.4-1-1s.4-1 1-1h2z" class="st0"/></svg>