<?xml version="1.0" encoding="utf-8"?>
<!-- Generator: Adobe Illustrator 26.5.0, SVG Export Plug-In . SVG Version: 6.00 Build 0)  -->
<svg version="1.1" id="Layer_1" xmlns="http://www.w3.org/2000/svg" xmlns:xlink="http://www.w3.org/1999/xlink" x="0px" y="0px"
	 viewBox="0 0 20 20" style="enable-background:new 0 0 20 20;" xml:space="preserve">
<style type="text/css">
	.st0{fill-rule:evenodd;clip-rule:evenodd;}
</style>
<path class="st0" d="M13.7,8V6c0-2.2-1.8-4-4-4c-2.2,0-4,1.8-4,4v2h-1c-0.6,0-1,0.4-1,1v6c0,1.7,1.3,3,3,3h6c1.7,0,3-1.3,3-3V9
	c0-0.6-0.4-1-1-1H13.7z M11.7,8V6c0-1.1-0.9-2-2-2c-1.1,0-2,0.9-2,2v2H11.7z"/>
</svg>
