<?xml version="1.0" encoding="utf-8"?>
<!-- Generator: Adobe Illustrator 27.3.1, SVG Export Plug-In . SVG Version: 6.00 Build 0)  -->
<svg version="1.1" id="Layer_1" xmlns="http://www.w3.org/2000/svg" xmlns:xlink="http://www.w3.org/1999/xlink" x="0px" y="0px"
	 viewBox="0 0 40 40" style="enable-background:new 0 0 40 40;" xml:space="preserve">
<style type="text/css">
	.st0{fill:#03D47C;}
	.st1{fill:#FEE45E;}
</style>
<g>
	<path class="st0" d="M11,24v-2c0-1.1,0.9-2,2-2s2,0.9,2,2c0,0.6,0.4,1,1,1h8c0.6,0,1-0.4,1-1c0-1.1,0.9-2,2-2s2,0.9,2,2v2
		c0,0.4-0.1,0.8-0.3,1.1C28.1,26,27,26.9,27,28h-2v-2H15v2h-2c0-1.1-1.1-2-1.7-2.9C11.1,24.8,11,24.4,11,24z"/>
</g>
<g>
	<path class="st1" d="M31,9.8c-0.1-0.2-0.2-0.4-0.5-0.4h-2.1l-0.8-2C27.4,7,27.1,7,27,7c-0.1,0-0.4,0-0.6,0.4l-0.8,1.9h-2.1
		c-0.4,0-0.5,0.4-0.5,0.4c0,0.1-0.1,0.4,0.1,0.6l1.6,1.8l-0.6,1.9c-0.1,0.3,0.1,0.5,0.2,0.7c0.1,0,0.3,0.2,0.7,0.1l2-1.1l2,1.2
		c0.3,0.2,0.6,0,0.7-0.1c0.1-0.1,0.3-0.3,0.2-0.7l-0.6-2l1.5-1.7C31,10.3,31,10,31,9.8z"/>
	<polygon class="st1" points="28.5,7 28.5,7 28.5,7 	"/>
</g>
<g>
	<path class="st0" d="M23.1,16.3c-0.8-0.6-1.2-1.7-1-2.7l0-0.1l0.2-0.5H16c-1.1,0-2,0.9-2,2v3h0.6c1.3,0,2.4,1.1,2.4,2.4
		c0,0.3,0.3,0.6,0.6,0.6h4.8c0.3,0,0.6-0.3,0.6-0.6c0-1.3,1.1-2.4,2.4-2.4H26v-1.4C25.1,17.1,24,17,23.1,16.3z"/>
</g>
</svg>
