<svg xmlns="http://www.w3.org/2000/svg" viewBox="0 0 20 20"><path d="M15.5 11c.55 0 1 .45 1 1v2.5H19c.55 0 1 .45 1 1s-.45 1-1 1h-2.5V19c0 .55-.45 1-1 1s-1-.45-1-1v-2.5H12c-.55 0-1-.45-1-1s.45-1 1-1h2.5V12c0-.55.45-1 1-1"/><path d="M12 0c1.1 0 2 .9 2 2v3h1c1.1 0 2 .9 2 2v2.4c-.44-.26-.95-.4-1.5-.4-.77 0-1.47.29-2 .77V9c0-.55-.45-1-1-1s-1 .45-1 1v3.54A3 3 0 0 0 10.34 18H7.91c.06.16.08.32.08.5 0 .83-.67 1.5-1.5 1.5s-1.5-.67-1.5-1.5c0-.18.03-.34.08-.5h-.08c-1.1 0-2-.9-2-2V7c0-1.1.9-2 2-2h1V2c0-1.1.9-2 2-2h4ZM7.5 8c-.55 0-1 .45-1 1v5c0 .55.45 1 1 1s1-.45 1-1V9c0-.55-.45-1-1-1M8 5h4V2H8z"/></svg>