<?xml version="1.0" encoding="utf-8"?>
<!-- Generator: Adobe Illustrator 24.3.0, SVG Export Plug-In . SVG Version: 6.00 Build 0)  -->
<svg version="1.1" id="Layer_1" xmlns="http://www.w3.org/2000/svg" xmlns:xlink="http://www.w3.org/1999/xlink" x="0px" y="0px"
	 viewBox="0 0 20 20" style="enable-background:new 0 0 20 20;" xml:space="preserve">
<style type="text/css">
	.st0{fill-rule:evenodd;clip-rule:evenodd;}
</style>
<path d="M11.7,18.3c0-0.5,0.4-0.8,0.8-0.8s0.8,0.4,0.8,0.8v0.8c0,0.5-0.4,0.8-0.8,0.8s-0.8-0.4-0.8-0.8V18.3z"/>
<path d="M6.7,18.3c0-0.5,0.4-0.8,0.8-0.8s0.8,0.4,0.8,0.8v0.8C8.3,19.6,8,20,7.5,20s-0.8-0.4-0.8-0.8V18.3z"/>
<path d="M11.9,6.2h1.2V0.6h-1.2V6.2z"/>
<path d="M6.9,6.2h1.2V0.6H6.9V6.2z"/>
<path d="M6.2,0.6C6.2,0.3,6.5,0,6.9,0h6.2c0.3,0,0.6,0.3,0.6,0.6s-0.3,0.6-0.6,0.6H6.9C6.5,1.2,6.2,1,6.2,0.6z"/>
<path class="st0" d="M3.8,6.7C3.8,6,4.3,5.4,5,5.4h10c0.7,0,1.2,0.6,1.2,1.2v10.8c0,0.7-0.6,1.2-1.2,1.2H5c-0.7,0-1.2-0.6-1.2-1.2
	V6.7z M11.9,8.5c0-0.3,0.3-0.6,0.6-0.6s0.6,0.3,0.6,0.6v7.1c0,0.3-0.3,0.6-0.6,0.6s-0.6-0.3-0.6-0.6V8.5z M7.5,7.9
	c-0.3,0-0.6,0.3-0.6,0.6v7.1c0,0.3,0.3,0.6,0.6,0.6s0.6-0.3,0.6-0.6V8.5C8.1,8.2,7.8,7.9,7.5,7.9z"/>
</svg>
