<?xml version="1.0" encoding="utf-8"?>
<!-- Generator: Adobe Illustrator 24.3.0, SVG Export Plug-In . SVG Version: 6.00 Build 0)  -->
<svg version="1.1" id="Layer_1" xmlns="http://www.w3.org/2000/svg" xmlns:xlink="http://www.w3.org/1999/xlink" x="0px" y="0px"
	 viewBox="0 0 20 20" style="enable-background:new 0 0 20 20;" xml:space="preserve">
<path d="M18.2,15.6l-3.9-3.9l-1,0.8l-1-1c2-2.5,1.9-6.1-0.4-8.4c-1.2-1.2-2.9-1.9-4.5-1.9C6,1.2,4.4,1.9,3.1,3.1
	c-2.5,2.5-2.5,6.5,0,8.9c1.2,1.2,2.9,1.9,4.5,1.9c1.4,0,2.9-0.5,4-1.5l1,1l-0.9,0.9l3.9,3.9c0.8,0.8,1.9,0.8,2.6,0
	C19,17.5,19,16.2,18.2,15.6z M7.5,11.4c-1,0-2-0.4-2.8-1.1C3.4,8.8,3.4,6.4,4.9,4.9c0.8-0.8,1.6-1.1,2.6-1.1s2,0.4,2.8,1.1
	s1.1,1.6,1.1,2.6s-0.4,2-1.1,2.8S8.6,11.4,7.5,11.4z"/>
</svg>
