<?xml version="1.0" encoding="utf-8"?>
<!-- Generator: Adobe Illustrator 28.1.0, SVG Export Plug-In . SVG Version: 6.00 Build 0)  -->
<svg version="1.1" id="Layer_1" xmlns="http://www.w3.org/2000/svg" xmlns:xlink="http://www.w3.org/1999/xlink" x="0px" y="0px"
	 viewBox="0 0 20 20" style="enable-background:new 0 0 20 20;" xml:space="preserve">
<path d="M13.556,5.555c0,1.964-1.592,3.556-3.556,3.556c-1.964,0-3.556-1.592-3.556-3.556c0-1.964,1.592-3.556,3.556-3.556
	C11.964,1.999,13.556,3.591,13.556,5.555z"/>
<path d="M11.021,14.494c0.109,1.322,0.637,2.53,1.221,3.508h-8.02c-1.416,0-2.223-0.444-2.223-1.778C1.999,12.667,6,10,9.999,10
	c1.598,0,3.197,0.426,4.54,1.164l-2.024,0.867C11.63,12.411,10.926,13.344,11.021,14.494z"/>
<path d="M16.697,12.584l3,1.286c0.184,0.079,0.306,0.26,0.289,0.459c-0.192,2.332-2.349,4.597-3.171,5.382
	c-0.178,0.17-0.452,0.17-0.631,0c-0.822-0.784-2.979-3.05-3.171-5.382c-0.016-0.199,0.106-0.38,0.289-0.459l3-1.286
	C16.429,12.531,16.571,12.531,16.697,12.584z"/>
</svg>
