<svg width="40" height="40" viewBox="0 0 40 40" fill="#8B9C8F" xmlns="http://www.w3.org/2000/svg">
<path d="M23.5562 15.5551C23.5562 17.519 21.9641 19.1111 20.0001 19.1111C18.0362 19.1111 16.4441 17.519 16.4441 15.5551C16.4441 13.5911 18.0362 11.999 20.0001 11.999C21.9641 11.999 23.5562 13.5911 23.5562 15.5551Z"/>
<path d="M21.0205 24.4936C21.1294 25.8152 21.6572 27.0234 22.2415 28.0012H14.2216C12.8059 28.0012 11.999 27.5567 11.999 26.2232C11.999 22.6671 15.9996 20.0001 19.9988 20.0001C21.597 20.0001 23.1956 20.4261 24.5389 21.1645L22.5152 22.0318C21.6303 22.4111 20.9257 23.3437 21.0205 24.4936Z"/>
<path d="M26.6969 22.5844L29.6969 23.8701C29.8808 23.9489 30.0027 24.13 29.9863 24.3293C29.7941 26.6612 27.6369 28.9265 26.8152 29.7108C26.6368 29.881 26.3631 29.881 26.1847 29.7108C25.363 28.9265 23.2059 26.6612 23.0137 24.3293C22.9973 24.13 23.1192 23.9489 23.303 23.8701L26.303 22.5844C26.4288 22.5305 26.5712 22.5305 26.6969 22.5844Z"/>
</svg>
