<svg xmlns="http://www.w3.org/2000/svg" width="48" height="48" fill="none" viewBox="0 0 48 48"><g clip-path="url(#a)" filter="url(#b)"><path fill="#085239" d="M36 20c0 6.627-5.373 12-12 12s-12-5.373-12-12S17.373 8 24 8s12 5.373 12 12"/><path fill="#fcfbf9" fill-rule="evenodd" d="M24 8c6.627 0 12 5.373 12 12s-5.373 12-12 12-12-5.373-12-12S17.373 8 24 8m0 3a9 9 0 1 0 0 18 9 9 0 0 0 0-18" clip-rule="evenodd"/></g><defs><clipPath id="a"><path fill="#fff" d="M0 0h48v48H0z"/></clipPath><filter id="b" width="48" height="48" x="0" y="0" color-interpolation-filters="sRGB" filterUnits="userSpaceOnUse"><feFlood flood-opacity="0" result="BackgroundImageFix"/><feColorMatrix in="SourceAlpha" result="hardAlpha" values="0 0 0 0 0 0 0 0 0 0 0 0 0 0 0 0 0 0 127 0"/><feOffset dy="4"/><feGaussianBlur stdDeviation="6"/><feComposite in2="hardAlpha" operator="out"/><feColorMatrix values="0 0 0 0 0.00784314 0 0 0 0 0.0705882 0 0 0 0 0.0156863 0 0 0 0.06 0"/><feBlend in2="BackgroundImageFix" result="effect1_dropShadow_725_1687"/><feBlend in="SourceGraphic" in2="effect1_dropShadow_725_1687" result="shape"/></filter></defs></svg>