<svg xmlns="http://www.w3.org/2000/svg" xmlns:xlink="http://www.w3.org/1999/xlink" id="Layer_1" x="0" y="0" version="1.1" viewBox="0 0 20 20" xml:space="preserve" style="enable-background:new 0 0 20 20"><path d="M18,15c0.828,0,1.5,0.672,1.5,1.5S18.828,18,18,18H2c-0.828,0-1.5-0.672-1.5-1.5S1.172,15,2,15H18z"/><path d="M18,8.5c0.828,0,1.5,0.672,1.5,1.5c0,0.828-0.672,1.5-1.5,1.5H2c-0.828,0-1.5-0.672-1.5-1.5c0-0.828,0.672-1.5,1.5-1.5H18z"/><path d="M18,2c0.828,0,1.5,0.672,1.5,1.5S18.828,5,18,5H2C1.172,5,0.5,4.328,0.5,3.5S1.172,2,2,2H18z"/></svg>