<svg width="214" height="190" viewBox="0 0 214 190" fill="none" xmlns="http://www.w3.org/2000/svg">
<path d="M213.097 46.6212L151.262 0.888672C151.262 0.888672 144.749 30.373 112.544 47.5497C81.3413 61.7208 1.47202 95.9288 1.47202 95.9288L1.04169 143.593L71.7483 188.678L206.866 129.852L206.435 82.7607L198.848 77.1796C198.848 77.1796 212.589 59.4302 213.09 46.6212H213.097Z" fill="#06D47C"/>
<path d="M206.442 82.7605L72.1824 141.16L1.47574 95.9286L1.04541 143.593L71.7521 188.681L206.869 129.852L206.442 82.7605Z" fill="#8DECC5"/>
<path d="M71.2795 150.196L1 104.671V114.969L71.0983 160.676L71.2795 150.196Z" fill="#03804C"/>
<path d="M71.2795 169.505L1 123.976V134.275L71.0983 179.981L71.2795 169.505Z" fill="#03804C"/>
<path d="M71.2792 150.196L206.412 92.7485V103.406L71.8195 160.495L71.2792 150.196Z" fill="#03804C"/>
<path d="M71.2792 169.505L206.412 112.054V122.711L71.8195 179.803L71.2792 169.505Z" fill="#03804C"/>
<path d="M202.362 111.032L174.88 123.055C174.88 123.055 202.647 119.046 211.667 122.34C211.667 122.34 211.952 115.325 202.362 111.032V111.032Z" fill="#06D47C"/>
<path d="M83.8491 162.701C83.8491 162.701 101.168 163.847 102.598 168.57C102.598 168.57 113.191 158.123 112.903 149.963L83.8459 162.701H83.8491Z" fill="#06D47C"/>
<path d="M29.459 133.359L13.2852 123.339C13.2852 123.339 8.99182 131.353 9.56449 136.223C9.56449 136.223 17.5786 132.072 29.459 133.359V133.359Z" fill="#06D47C"/>
<path d="M132.154 162.487L152.336 153.328L152.478 106.237L127.43 90.0628C127.43 90.0628 124.799 91.3117 124.136 91.3505C123.473 91.3893 121.988 90.2052 121.988 90.2052L117.837 86.7691C117.837 86.7691 115.116 85.7662 115.116 84.7664C115.116 83.7667 115.258 82.9061 115.258 82.9061L109.389 78.3247C109.389 78.3247 107.632 80.9584 106.096 79.7548L104.559 78.5545L102.372 77.037L100.081 75.4614C100.081 75.4614 98.363 75.7461 97.9327 74.3161C97.5023 72.886 97.5024 71.3104 97.5024 71.3104L81.9013 61.1479L61.8611 69.8803L131.853 114.681L132.137 162.487H132.154Z" fill="#FFFAF0"/>
<path d="M152.336 153.325V106.234L127.43 90.0601C127.43 90.0601 131.866 86.6241 135.59 87.0544L160.279 103.086L160.638 149.889L152.336 153.325V153.325Z" fill="#FED604"/>
<path d="M124.14 165.92L132.154 162.487L131.869 114.681L61.8775 69.8804L54.0057 73.4587L124.14 118.687V165.92Z" fill="#FED604"/>
<path d="M143.034 55.1368C143.034 55.1368 142.523 62.1997 147.043 64.4418C151.56 66.684 157.506 67.1531 158.781 64.8722L144.468 54.5674L143.037 55.14L143.034 55.1368Z" fill="#FFFAF0"/>
<path d="M144.464 54.5637L159.315 65.1921L159.959 63.9044V62.0796C159.959 62.0796 159.315 53.7064 149.547 53.3828L147.509 53.4896L144.468 54.5637H144.464Z" fill="#048C59"/>
<path d="M142.889 20.1038L154.374 16.0239L167.792 12.9115L151.259 0.888672C151.259 0.888672 144.173 18.6025 142.885 20.1038H142.889Z" fill="#048C59"/>
<path d="M172.842 17.0981L170.587 21.178C170.587 21.178 170.911 22.0354 171.555 22.5725C172.199 23.1095 173.486 22.896 173.486 22.896C173.486 22.896 174.237 26.2252 177.78 25.5782C177.78 25.5782 178.21 27.5097 179.498 28.0468C180.785 28.5838 181.753 28.2603 181.753 28.2603C181.753 28.2603 181.753 29.1177 182.827 30.0851C183.901 31.0525 185.082 30.7289 185.082 30.7289C185.082 30.7289 185.189 33.3043 186.907 33.6278C188.625 33.9514 189.269 33.7346 189.269 33.7346C189.269 33.7346 188.838 35.3459 190.019 35.8829C191.2 36.42 192.274 35.7762 192.274 35.7762C192.274 35.7762 192.381 37.0639 193.562 37.6009C194.743 38.138 195.387 38.0312 195.387 38.0312L197.318 35.2391L172.842 17.0981V17.0981Z" fill="#048C59"/>
<path d="M201.932 39.1057C201.932 39.1057 199.356 40.0731 201.932 45.3306C204.507 50.5914 204.937 52.8465 204.937 52.8465C204.937 52.8465 200.644 63.4748 206.869 64.6557C206.869 64.6557 214.061 49.5205 213.094 46.6216L201.929 39.1057H201.932Z" fill="#048C59"/>
<path d="M95.4411 60.8989C95.4411 60.8989 139.132 44.1525 144.93 28.8005L138.381 26.0083C138.381 26.0083 128.397 39.8558 109.933 48.7662C91.4681 57.6765 90.5007 57.4629 90.5007 57.4629L95.4379 60.8989H95.4411Z" fill="#048C59"/>
<path d="M203.863 69.699C203.863 69.699 199.463 66.8001 197.959 64.1179C197.959 64.1179 187.547 86.9826 155.232 99.2221L160.276 103.085C160.276 103.085 179.491 94.1749 182.603 91.813C185.716 89.4512 202.035 74.5295 203.86 69.699H203.863Z" fill="#048C59"/>
<path d="M178.245 95.2136C179.747 94.5503 206.442 82.7605 206.442 82.7605L198.428 77.4641C198.428 77.4641 188.945 88.1636 178.245 95.2136Z" fill="#085239"/>
<path d="M59.5867 76.8918L54.0056 73.4558L24.806 85.4786C24.806 85.4786 29.0994 88.9146 29.5298 90.6326L59.5867 76.8918Z" fill="#048C59"/>
<path d="M124.14 118.687L118.559 115.254L88.2137 128.565L93.9372 131.428L124.14 118.687Z" fill="#048C59"/>
<path d="M19.0789 107.094L20.797 100.94L19.3669 96.7894L22.0846 91.9233L18.3639 88.4873L1.4751 95.9287L19.0789 107.094Z" fill="#048C59"/>
<path d="M23.2307 109.815L26.2364 108.528C26.2364 108.528 30.9245 109.958 30.1739 111.999C30.1739 111.999 33.0728 111.999 33.8234 112.967C34.5741 113.934 34.3605 114.578 34.3605 114.578C34.3605 114.578 37.2594 114.685 38.3336 115.759C39.4077 116.833 38.8707 117.584 38.8707 117.584C38.8707 117.584 42.3067 117.797 43.0573 118.764C43.8079 119.732 43.5944 120.696 43.5944 120.696C43.5944 120.696 46.9236 120.803 47.781 121.663C48.6383 122.521 48.7483 123.702 48.7483 123.702C48.7483 123.702 53.2585 124.776 53.6856 127.675L51.8608 128.532L23.234 109.819L23.2307 109.815Z" fill="#048C59"/>
<path d="M60.4443 133.573L71.7164 141.089L86.9617 134.433C86.9617 134.433 80.1997 131.641 73.9715 133.146C73.9715 133.146 63.7735 129.283 60.4443 133.576V133.573Z" fill="#048C59"/>
<path d="M69.5711 83.7634L64.4171 80.5442C64.4171 80.5442 55.7203 86.0185 55.5068 93.7479C55.2932 101.477 67.853 113.714 87.8188 114.037C107.784 114.361 112.401 111.031 112.401 111.031L108.001 108.239C108.001 108.239 90.0739 113.93 77.0837 107.489C64.0935 101.047 62.3756 95.5727 63.7733 90.7422C65.1677 85.9117 69.5711 83.7634 69.5711 83.7634V83.7634Z" fill="#048C59"/>
<path d="M111.114 64.9789C111.114 64.9789 130.116 57.036 138.809 49.8437C147.506 42.6513 158.348 44.5829 163.609 48.7695C168.869 52.9561 173.376 59.9349 171.658 68.2014C169.94 76.4678 165.003 79.7938 162.211 81.5118C159.419 83.2298 143.316 91.7098 143.316 91.7098L148.684 95.1459C148.684 95.1459 174.234 86.022 177.883 72.1744C181.533 58.3269 176.595 48.0221 167.685 42.4378C158.775 36.8567 147.289 36.64 136.984 44.2626C126.68 51.8852 105.209 63.4777 100.592 64.0147L103.705 66.1631C103.705 66.1631 107.248 63.3709 111.111 64.9821L111.114 64.9789Z" fill="#048C59"/>
<path d="M109.464 78.3961L115.518 82.9128L118.015 81.1365L121.387 78.1244L117.892 75.5943C117.892 75.5943 114.76 74.6301 112.593 75.9566C110.425 77.2799 109.461 78.3961 109.461 78.3961H109.464Z" fill="#FED604"/>
<path d="M81.9142 61.0509L97.7224 71.3493L101.032 69.4533L103.682 66.4411L90.4945 57.5276L81.9142 61.0509Z" fill="#FED604"/>
<path d="M141.381 22.4822C141.381 22.4822 148.969 26.3355 154.993 17.3023C154.993 17.3023 164.99 23.084 169.445 14.5328L165.831 12.0027C165.831 12.0027 161.253 15.9758 153.427 12.1224C153.427 12.1224 149.454 18.6256 144.274 17.9041L141.385 22.4822H141.381Z" fill="#002140"/>
<path d="M152.883 8.26845C153.714 8.26845 154.387 7.59488 154.387 6.76399C154.387 5.93309 153.714 5.25952 152.883 5.25952C152.052 5.25952 151.378 5.93309 151.378 6.76399C151.378 7.59488 152.052 8.26845 152.883 8.26845Z" stroke="#002140" stroke-linecap="round" stroke-linejoin="round"/>
<path d="M209.431 50.1832C210.162 50.1832 210.755 49.5357 210.755 48.737C210.755 47.9383 210.162 47.2908 209.431 47.2908C208.7 47.2908 208.108 47.9383 208.108 48.737C208.108 49.5357 208.7 50.1832 209.431 50.1832Z" stroke="#002140" stroke-linecap="round" stroke-linejoin="round"/>
<path d="M203.407 39.8237L201.239 38.2869C201.239 38.2869 194.012 43.8874 203.498 51.2026C203.498 51.2026 197.176 61.3197 206.028 65.6552L207.384 63.2157C207.384 63.2157 202.236 60.7762 207.112 50.9308C207.112 50.9308 199.884 45.9613 203.407 39.8204V39.8237Z" fill="#002140"/>
<path d="M135.299 68.6382C135.299 68.6382 136.201 71.44 137.557 72.4333C138.913 73.4266 141.53 73.4266 141.53 73.4266L135.299 68.6382V68.6382Z" fill="#002140"/>
<path d="M129.339 73.1545L133.04 71.9801L128.164 68.9097L129.339 73.1545Z" fill="#002140"/>
<path d="M135.752 74.2385L137.376 77.4028L140.899 77.3122L135.661 73.7888" fill="#002140"/>
<path d="M154.539 86.0738L143.52 78.9365C143.52 78.9365 142.924 80.1239 142.772 81.156C142.617 82.1881 138.281 82.7317 137.198 84.2652C136.114 85.8021 136.114 86.8859 136.114 86.8859L142.979 91.6743L154.543 86.0738H154.539Z" fill="#002140"/>
<path d="M117.957 75.2351C117.957 75.2351 120.937 73.7888 121.661 71.9835C122.383 70.1781 123.829 68.0978 126.54 68.2789L126.178 67.4669L117.866 62.4099L111.813 64.94C111.813 64.94 118.678 66.3862 117.957 75.2383V75.2351Z" fill="#002140"/>
<path d="M120.936 60.9605L163.573 48.7663C163.573 48.7663 157.61 44.5214 150.294 45.1523C142.979 45.7832 137.379 51.0246 137.379 51.0246C137.379 51.0246 122.383 60.5108 120.94 60.9605H120.936Z" fill="#002140"/>
<path d="M165.11 49.8499C165.11 49.8499 163.754 48.4037 163.395 49.397C163.036 50.3903 154.543 86.0703 154.543 86.0703C154.543 86.0703 168.995 80.5604 171.073 69.0877C173.15 57.6149 165.653 49.9373 165.11 49.8467V49.8499Z" fill="#002140"/>
<path d="M72.0235 138.555C73.2458 138.555 74.2365 138.009 74.2365 137.336C74.2365 136.662 73.2458 136.116 72.0235 136.116C70.8013 136.116 69.8105 136.662 69.8105 137.336C69.8105 138.009 70.8013 138.555 72.0235 138.555Z" stroke="#002140" stroke-linecap="round" stroke-linejoin="round"/>
<path d="M9.19846 98.5394C10.4957 98.5394 11.5474 97.9527 11.5474 97.229C11.5474 96.5054 10.4957 95.9187 9.19846 95.9187C7.90119 95.9187 6.84955 96.5054 6.84955 97.229C6.84955 97.9527 7.90119 98.5394 9.19846 98.5394Z" stroke="#002140" stroke-linecap="round" stroke-linejoin="round"/>
<path d="M17.5976 88.8726C17.5976 88.8726 20.4868 89.7753 20.3088 91.5839C20.1309 93.3925 17.1479 97.1391 14.346 97.1844C14.346 97.1844 19.7653 100.074 19.4029 102.875C19.0405 105.677 16.6011 105.765 16.6011 105.765L19.9433 108.114C19.9433 108.114 24.9128 106.127 24.8222 103.235C24.7316 100.342 20.9365 97.2717 20.9365 97.2717C20.9365 97.2717 26.2652 96.0067 25.9061 91.8524C25.5438 87.6981 21.5706 86.8828 21.5706 86.8828L17.5976 88.8694V88.8726Z" fill="#002140"/>
<path d="M85.619 135.333L90.5562 132.923C90.5562 132.923 83.8103 127.384 73.0914 132.078C73.0914 132.078 64.3008 125.575 55.2676 130.512L59.9654 133.644C59.9654 133.644 62.1331 131.596 66.7112 132.56C71.2893 133.524 73.0946 134.728 73.0946 134.728C73.0946 134.728 80.562 131.234 85.619 135.33V135.333Z" fill="#002140"/>
<path d="M142.374 117.101L139.12 124.96L143.316 129.913L147.072 122.643L142.374 117.101Z" fill="#FED604"/>
<path d="M143.219 135.168L139.964 143.023L144.16 147.98L147.917 140.707L143.219 135.168Z" fill="#FED604"/>
<path d="M126.372 98.5723L126.236 105.891L134.635 107.243L134.499 100.468L126.372 98.5723Z" fill="#FED604"/>
<path d="M109.707 88.8176L109.571 96.1329L117.97 97.4885L117.834 90.7136L109.707 88.8176Z" fill="#FED604"/>
<path d="M93.1768 77.4353L93.041 84.7538L101.44 86.1094L101.304 79.3345L93.1768 77.4353Z" fill="#FED604"/>
<path d="M77.7309 67.1401L77.595 74.4554L85.9941 75.811L85.8583 69.0361L77.7309 67.1401Z" fill="#FED604"/>
<path d="M197.37 35.365C197.37 35.365 187.897 44.45 199.476 52.6259C199.476 52.6259 191.983 62.0377 203.585 69.5697" stroke="#002140" stroke-linecap="round" stroke-linejoin="round"/>
<path d="M172.726 17.011C172.726 17.011 168.685 29.4997 156.277 22.6503C156.277 22.6503 151.077 33.5019 139.239 26.3484" stroke="#002140" stroke-linecap="round" stroke-linejoin="round"/>
<path d="M182.49 39.5714C182.49 39.5714 183.917 36.1548 180.135 33.0941C176.353 30.0334 173.01 31.9035 173.01 31.9035C173.01 31.9035 173.276 30.3602 172.169 29.464L166.899 25.1997L167.445 28.5257L163.155 29.134C163.155 29.134 166.514 31.8517 168.84 33.7347C171.166 35.6177 170.179 36.5754 170.881 37.1448C171.583 37.711 174.059 35.566 176.78 37.766C179.501 39.9661 178.245 43.1692 178.899 43.8389C179.552 44.5086 181.131 43.2533 182.364 44.2498C183.597 45.2463 187.974 48.7891 187.974 48.7891L187.712 45.201L191.303 44.9778L185.438 40.2314C185.438 40.2314 183.555 38.604 182.49 39.5714Z" stroke="#002140" stroke-linecap="round" stroke-linejoin="round"/>
<path d="M168.543 99.533C207.837 82.188 213.007 46.867 213.007 46.867L151.198 0.891846C149.567 5.87114 143.339 34.4948 104.045 51.8398L1.06812 96.0129V143.706" stroke="#002140" stroke-linecap="round" stroke-linejoin="round"/>
<path d="M169.079 99.2517C168.109 99.7144 167.116 100.167 166.103 100.617L71.6937 141.115" stroke="#002140" stroke-linecap="round" stroke-linejoin="round"/>
<path d="M1.06812 143.434L71.6939 188.536V141.115L1.06812 96.0098" stroke="#002140" stroke-linecap="round" stroke-linejoin="round"/>
<path d="M40.2587 140.499L8.83319 120.43" stroke="#002140" stroke-linecap="round" stroke-linejoin="round"/>
<path d="M123.994 118.35L53.7695 73.5007" stroke="#002140" stroke-linecap="round" stroke-linejoin="round"/>
<path d="M132.306 114.917L62.0784 70.0679" stroke="#002140" stroke-linecap="round" stroke-linejoin="round"/>
<path d="M97.7286 71.3075L82.493 61.5786" stroke="#002140" stroke-linecap="round" stroke-linejoin="round"/>
<path d="M115.472 82.638L109.104 78.571" stroke="#002140" stroke-linecap="round" stroke-linejoin="round"/>
<path d="M152.721 106.428L127.252 90.1602" stroke="#002140" stroke-linecap="round" stroke-linejoin="round"/>
<path d="M123.994 165.775V118.35" stroke="#002140" stroke-linecap="round" stroke-linejoin="round"/>
<path d="M132.125 162.184V115.099" stroke="#002140" stroke-linecap="round" stroke-linejoin="round"/>
<path d="M103.747 66.5126L90.401 57.9873" stroke="#002140" stroke-linecap="round" stroke-linejoin="round"/>
<path d="M121.17 77.8298L116.925 75.2415" stroke="#002140" stroke-linecap="round" stroke-linejoin="round"/>
<path d="M160.309 102.632L135.69 87.1121" stroke="#002140" stroke-linecap="round" stroke-linejoin="round"/>
<path d="M160.308 150.057V102.633" stroke="#002140" stroke-linecap="round" stroke-linejoin="round"/>
<path d="M152.54 153.309V106.428" stroke="#002140" stroke-linecap="round" stroke-linejoin="round"/>
<path d="M206.645 113.895V82.5797L198.609 77.4451" stroke="#002140" stroke-linecap="round" stroke-linejoin="round"/>
<path d="M71.6937 188.536L206.646 130.004V121.482" stroke="#002140" stroke-linecap="round" stroke-linejoin="round"/>
<path d="M202.129 111.032L172.703 123.796C172.703 123.796 203.527 118.833 211.356 122.447C211.356 114.979 202.129 111.032 202.129 111.032Z" stroke="#002140" stroke-linecap="round" stroke-linejoin="round"/>
<path d="M112.968 149.705L82.516 162.912C82.516 162.912 101.395 163.517 102.478 168.694C102.478 168.694 112.136 158.777 112.968 149.702V149.705Z" stroke="#002140" stroke-linecap="round" stroke-linejoin="round"/>
<path d="M206.646 82.5793L172.606 97.6369" stroke="#002140" stroke-linecap="round" stroke-linejoin="round"/>
<path d="M25.2333 85.9021C27.0225 87.0151 35.399 92.8162 24.9163 98.1772C24.9163 98.1772 35.3602 104.603 23.2404 110.003" stroke="#002140" stroke-linecap="round" stroke-linejoin="round"/>
<path d="M52.0157 128.348C52.0157 128.348 62.8543 123.11 73.1526 130.153C73.1526 130.153 81.102 123.65 94.1084 131.599" stroke="#002140" stroke-linecap="round" stroke-linejoin="round"/>
<path d="M95.4772 60.7664L120.668 49.3971C120.668 49.3971 135.075 42.5122 145.312 28.9041" stroke="#002140" stroke-linecap="round" stroke-linejoin="round"/>
<path d="M29.7919 90.4093L59.2244 77.1279" stroke="#002140" stroke-linecap="round" stroke-linejoin="round"/>
<path d="M148.861 94.9552L158.422 90.7718C158.422 90.7718 162.867 88.8208 168.914 84.4336C182.797 74.3618 182.739 53.6358 168.859 43.5542C168.668 43.4151 168.477 43.276 168.29 43.1401C159.331 36.6304 147.153 36.679 138.301 43.3374C119.875 57.1979 100.611 64.0344 100.611 64.0344" stroke="#002140" stroke-linecap="round" stroke-linejoin="round"/>
<path d="M143.367 91.3509L144.276 90.953C144.519 90.8462 144.765 90.7459 145.011 90.6489C146.687 89.9985 154.775 86.7114 163.204 80.8617C174.356 73.1226 174.489 56.6771 163.475 48.7438C156.438 43.674 146.92 43.8293 140.022 49.0868C129.012 57.4827 118.335 62.3487 111.664 64.8691" stroke="#002140" stroke-linecap="round" stroke-linejoin="round"/>
<path d="M88.1456 128.71L118.766 115.309" stroke="#002140" stroke-linecap="round" stroke-linejoin="round"/>
<path d="M25.7282 108.929C25.7282 108.929 31.7817 109.473 29.7919 112.09C29.7919 112.09 36.1139 111.909 34.0367 114.979C34.0367 114.979 39.9996 114.167 38.5533 117.69C38.5533 117.69 44.7848 117.328 43.3418 120.851C43.3418 120.851 49.1235 120.489 48.3114 123.831C48.3114 123.831 53.4589 123.65 53.4589 127.626" stroke="#002140" stroke-linecap="round" stroke-linejoin="round"/>
<path d="M55.0316 106.44C53.9995 105.767 50.8385 105.677 50.8385 105.677L43.4326 100.798L42.9797 103.509L37.651 103.237L45.9627 108.385C45.9627 108.385 47.1372 109.288 48.7646 108.657C48.7646 108.657 45.9628 111.546 49.9391 113.895C53.9122 116.244 58.0696 116.244 59.7844 115.791C59.7844 115.791 58.4288 116.875 60.0562 117.958C61.6836 119.042 66.2002 121.844 66.2002 121.844L66.2908 119.223H72.1631L64.4855 114.254C64.4855 114.254 63.7639 113.532 64.0325 112.086C64.0325 112.086 59.545 112.931 56.054 111.002C54.488 110.158 53.8863 107.99 55.0381 106.437L55.0316 106.44Z" stroke="#002140" stroke-linecap="round" stroke-linejoin="round"/>
<path d="M64.5403 80.6543C56.2285 85.4718 50.2074 96.6728 62.8546 105.457C77.4625 115.723 99.1074 116.305 112.476 111.245" stroke="#002140" stroke-linecap="round" stroke-linejoin="round"/>
<path d="M69.6004 83.7861C66.8309 85.2324 55.8693 95.7086 72.0108 105.104C88.149 114.5 107.781 108.356 107.781 108.356" stroke="#002140" stroke-linecap="round" stroke-linejoin="round"/>
<path d="M81.2348 102.422C82.8555 102.422 84.1693 101.634 84.1693 100.662C84.1693 99.6901 82.8555 98.9021 81.2348 98.9021C79.6141 98.9021 78.3002 99.6901 78.3002 100.662C78.3002 101.634 79.6141 102.422 81.2348 102.422Z" stroke="#002140" stroke-linecap="round" stroke-linejoin="round"/>
<path d="M82.186 98.9898L88.5986 96.1006" stroke="#002140" stroke-linecap="round" stroke-linejoin="round"/>
<path d="M78.1876 100.837C77.6538 100.843 77.107 100.85 76.612 101.05C76.117 101.251 75.6802 101.691 75.6479 102.222C75.6123 102.785 76.0167 103.286 76.0653 103.849C76.1106 104.373 75.8387 104.881 75.457 105.247C75.0752 105.612 74.5996 105.849 74.1305 106.085" stroke="#002140" stroke-linecap="round" stroke-linejoin="round"/>
<path d="M9.13674 98.7177C10.468 98.7177 11.5471 98.0441 11.5471 97.2132C11.5471 96.3823 10.468 95.7087 9.13674 95.7087C7.80553 95.7087 6.72638 96.3823 6.72638 97.2132C6.72638 98.0441 7.80553 98.7177 9.13674 98.7177Z" fill="#002140"/>
<path d="M17.6879 89.0537C17.6879 89.0537 20.3086 89.7752 20.3086 91.765C20.3086 93.7548 16.2449 97.1552 13.896 97.1843C13.896 97.1843 19.4059 99.8956 19.4059 102.875C19.4059 105.855 16.3355 105.765 16.3355 105.765" stroke="#002140" stroke-linecap="round" stroke-linejoin="round"/>
<path d="M20.1376 108.068C21.1891 107.547 24.8386 105.58 24.9163 103.415C25.0069 100.885 22.1144 98.2679 20.4903 97.4525C20.4903 97.4525 26.1814 95.8251 26.0002 92.2144C25.819 88.6037 21.9365 87.1575 21.9365 87.1575" stroke="#002140" stroke-linecap="round" stroke-linejoin="round"/>
<path d="M55.2676 130.334C64.8412 125.637 72.8811 132.14 72.8811 132.14C72.8811 132.14 77.579 129.61 83.2701 130.244C88.9611 130.875 90.6759 132.774 90.6759 132.774" stroke="#002140" stroke-linecap="round" stroke-linejoin="round"/>
<path d="M60.0172 133.657C60.0172 133.657 65.0224 130.425 72.9718 134.764C75.0425 134.191 80.8306 131.962 85.5284 135.217" stroke="#002140" stroke-linecap="round" stroke-linejoin="round"/>
<path d="M72.0103 138.543C73.3076 138.543 74.3592 137.956 74.3592 137.232C74.3592 136.509 73.3076 135.922 72.0103 135.922C70.713 135.922 69.6614 136.509 69.6614 137.232C69.6614 137.956 70.713 138.543 72.0103 138.543Z" fill="#002140"/>
<path d="M117.773 75.7106C117.967 73.3293 118.119 70.7507 116.87 68.7415C116.149 67.5768 115.026 66.7355 113.855 66.0626C111.072 64.4578 107.413 63.7298 104.802 65.6161C103.233 66.7485 102.278 68.6606 100.615 69.6377C99.7387 70.1521 98.6774 70.4045 98.0174 71.1907C97.4092 71.9154 97.2927 73.0381 97.736 73.8793C98.1792 74.7205 99.1563 75.2285 100.078 75.0958" stroke="#002140" stroke-linecap="round" stroke-linejoin="round"/>
<path d="M105.135 70.1555C104.407 70.9029 103.465 71.3461 102.589 71.8832C101.715 72.4203 100.851 73.1159 100.492 74.1221C100.133 75.1283 100.253 76.0763 102.058 76.9822" stroke="#002140" stroke-linecap="round" stroke-linejoin="round"/>
<path d="M107.063 72.1614C106.351 72.8473 105.423 73.2549 104.565 73.7435C103.708 74.2353 102.86 74.8727 102.507 75.798C102.155 76.7201 102.624 78.561 104.568 78.5545" stroke="#002140" stroke-linecap="round" stroke-linejoin="round"/>
<path d="M109.156 73.4912C108.445 74.1771 107.516 74.5848 106.659 75.0733C105.801 75.5651 104.954 76.2025 104.601 77.1278C104.248 78.0499 104.601 79.2988 105.539 79.6094C105.746 79.6773 105.969 79.742 106.186 79.7258C107.393 79.632 108.49 78.9882 109.457 78.257C110.425 77.5258 111.318 76.6878 112.379 76.1022C113.844 75.2869 115.595 74.9957 117.248 75.2901" stroke="#002140" stroke-linecap="round" stroke-linejoin="round"/>
<path d="M135.532 87.1285C135.726 84.7473 135.878 82.1687 134.629 80.1595C133.907 78.9947 132.785 78.1535 131.614 77.4805C128.831 75.8758 125.172 75.1478 122.561 77.0341C120.992 78.1665 120.037 80.0786 118.374 81.0557C117.497 81.5701 116.436 81.8225 115.776 82.6087C115.168 83.3334 115.051 84.4561 115.495 85.2973C115.938 86.1385 116.915 86.6465 117.837 86.5138" stroke="#002140" stroke-linecap="round" stroke-linejoin="round"/>
<path d="M127.097 85.2715C126.385 85.9574 125.457 86.3651 124.599 86.8536C123.742 87.3454 122.894 87.9828 122.542 88.9081C122.189 89.8334 122.542 91.079 123.48 91.3896C123.687 91.4576 123.91 91.5223 124.127 91.5061C125.334 91.4123 126.431 90.7684 127.398 90.0372C128.365 89.306 129.258 88.4681 130.32 87.8825C131.785 87.0671 133.568 86.776 135.532 87.1286" stroke="#002140" stroke-linecap="round" stroke-linejoin="round"/>
<path d="M123.975 82.6216C123.839 83.3107 123.146 83.7152 122.541 84.0678C121.978 84.3978 121.425 84.7602 120.972 85.2325C120.341 85.899 119.93 86.7953 119.943 87.7109C119.956 88.6265 120.565 90.1827 122.483 90.2345" stroke="#002140" stroke-linecap="round" stroke-linejoin="round"/>
<path d="M121.542 80.8003C120.843 81.965 119.435 82.5312 118.646 83.6377C117.941 84.6245 117.827 86.0028 118.364 87.0932C118.678 87.7305 120.173 88.7465 120.173 88.7465" stroke="#002140" stroke-linecap="round" stroke-linejoin="round"/>
<path d="M163.472 48.7466L117.973 62.2447L154.75 86.0735L163.472 48.7466Z" stroke="#002140" stroke-linecap="round" stroke-linejoin="round"/>
<path d="M131.053 58.5212L156.797 75.6851" stroke="#002140" stroke-linecap="round" stroke-linejoin="round"/>
<path d="M153.769 51.5942L161.538 56.7741" stroke="#002140" stroke-linecap="round" stroke-linejoin="round"/>
<path d="M135.955 86.7823C136.136 85.5432 136.884 84.3978 137.945 83.7313C138.676 83.2719 139.524 83.039 140.349 82.7737C141.174 82.5084 142.005 82.1848 142.633 81.5895C143.261 80.9942 143.639 80.0624 143.361 79.2438C143.076 78.4058 142.212 77.9108 141.374 77.6196C139.948 77.1182 138.32 76.9887 136.948 77.6326C137.421 75.9049 135.923 73.9216 134.337 73.0836C132.752 72.2456 130.769 72.3977 129.161 73.1871C129.313 71.5047 128.659 69.7544 127.229 68.8517C125.799 67.949 123.651 68.2305 122.722 69.6411C122.418 70.1006 122.256 70.6376 122.04 71.1456C121.26 72.9833 119.726 74.4781 117.885 75.2384" stroke="#002140" stroke-linecap="round" stroke-linejoin="round"/>
<path d="M148.127 53.3738C151.922 53.1926 157.882 54.4577 160.049 62.5882" stroke="#002140" stroke-linecap="round" stroke-linejoin="round"/>
<path d="M144.332 54.6384L159.328 65.1179C159.328 65.1179 153.006 68.7319 147.405 64.3964C141.805 60.061 143.07 55.0008 143.07 55.0008" stroke="#002140" stroke-linecap="round" stroke-linejoin="round"/>
<path d="M148.172 57.7249C147.353 58.4561 146.849 59.4623 146.849 60.5785C146.849 62.8077 148.871 64.613 151.365 64.613C152.087 64.613 152.766 64.4577 153.371 64.1892L151.679 61.4423L153.484 61.5329" fill="#002140"/>
<path d="M136.683 65.2959L146.862 72.7017C146.862 72.7017 140.359 75.1121 137.046 71.9803C133.732 68.8484 136.683 65.2959 136.683 65.2959Z" stroke="#002140" stroke-linecap="round" stroke-linejoin="round"/>
<path d="M135.723 68.6089L141.863 73.2452" stroke="#002140" stroke-linecap="round" stroke-linejoin="round"/>
<path d="M137.466 69.573L139.634 67.5864" stroke="#002140" stroke-linecap="round" stroke-linejoin="round"/>
<path d="M139.395 63.6102L143.704 59.925" stroke="#002140" stroke-linecap="round" stroke-linejoin="round"/>
<path d="M148.246 69.9354L151.56 66.6838" stroke="#002140" stroke-linecap="round" stroke-linejoin="round"/>
<path d="M140.54 71.9802L142.707 69.9937" stroke="#002140" stroke-linecap="round" stroke-linejoin="round"/>
<path d="M135.842 73.5464L137.188 72.3137" stroke="#002140" stroke-linecap="round" stroke-linejoin="round"/>
<path d="M201.363 38.2576C201.363 38.2576 197.991 40.1859 198.593 44.159C199.195 48.132 203.53 51.1442 203.53 51.1442C203.53 51.1442 199.677 57.0456 201.964 61.381C204.252 65.7165 206.06 65.7165 206.06 65.7165" stroke="#002140" stroke-linecap="round" stroke-linejoin="round"/>
<path d="M202.938 40.1858C202.433 41.1079 202.1 42.3082 202.326 43.7997C202.928 47.7728 207.263 50.785 207.263 50.785C207.263 50.785 203.41 56.6864 205.697 61.0218C205.995 61.5816 207.322 63.2769 207.322 63.2769" stroke="#002140" stroke-linecap="round" stroke-linejoin="round"/>
<path d="M209.431 50.1831C210.296 50.1831 210.997 49.4821 210.997 48.6172C210.997 47.7524 210.296 47.0513 209.431 47.0513C208.566 47.0513 207.865 47.7524 207.865 48.6172C207.865 49.4821 208.566 50.1831 209.431 50.1831Z" fill="#002140"/>
<path d="M152.944 8.26835C153.809 8.26835 154.51 7.56726 154.51 6.70241C154.51 5.83757 153.809 5.13647 152.944 5.13647C152.079 5.13647 151.378 5.83757 151.378 6.70241C151.378 7.56726 152.079 8.26835 152.944 8.26835Z" fill="#002140"/>
<path d="M13.2617 123.501C13.2617 123.501 8.56389 130.004 9.16567 136.387C9.16567 136.387 21.7934 129.965 31.6194 134.983" stroke="#002140" stroke-linecap="round" stroke-linejoin="round"/>
<path d="M170.651 21.0354C170.486 21.6987 170.943 22.404 171.561 22.6952C172.179 22.9896 172.903 22.9475 173.57 22.7922C173.589 23.7984 174.149 24.7788 175.003 25.3061C175.861 25.8335 176.986 25.895 177.892 25.4614C177.766 26.3803 178.206 27.3509 178.979 27.8621C179.749 28.3733 180.817 28.4024 181.613 27.9333C181.526 28.7939 181.93 29.6901 182.632 30.1948C183.334 30.6996 184.311 30.7966 185.101 30.4375C184.738 31.4081 185.447 32.8252 186.337 33.3591C187.226 33.8929 188.378 33.8541 189.329 33.44C189.054 34.2391 189.378 35.2065 190.08 35.6789C190.782 36.1512 191.801 36.0865 192.439 35.53C192.471 36.8824 193.885 38.0245 195.215 37.7689" stroke="#002140" stroke-linecap="round" stroke-linejoin="round"/>
<path d="M155.378 99.4234L164.938 95.24C164.938 95.24 184.969 86.4461 197.813 64.2383" stroke="#002140" stroke-linecap="round" stroke-linejoin="round"/>
</svg>
