<svg xmlns="http://www.w3.org/2000/svg" id="Layer_1" data-name="Layer 1" viewBox="0 0 20 20"><defs><style>.cls-1,.cls-2{stroke-width:0}.cls-2{fill-rule:evenodd}</style></defs><path d="M18 4a2 2 0 0 0-2-2H2a2 2 0 0 0-2 2v8a2 2 0 0 0 2 2h5.019a6.46 6.46 0 0 1 .625-3.323A3 3 0 1 1 11.892 7.2 6.5 6.5 0 0 1 13.5 7c1.747 0 3.332.689 4.5 1.81z" class="cls-1"/><path d="M9 13.5a4.5 4.5 0 1 1 8.31 2.396l2.397 2.397a.999.999 0 1 1-1.414 1.414l-2.397-2.397A4.5 4.5 0 0 1 9 13.5m4.5-2.5a2.5 2.5 0 1 0 0 5 2.5 2.5 0 0 0 0-5" class="cls-2"/></svg>