<?xml version="1.0" encoding="utf-8"?>
<!-- Generator: Adobe Illustrator 26.5.0, SVG Export Plug-In . SVG Version: 6.00 Build 0)  -->
<svg version="1.1" id="Layer_1" xmlns="http://www.w3.org/2000/svg" xmlns:xlink="http://www.w3.org/1999/xlink" x="0px" y="0px"
	 viewBox="0 0 20 20" style="enable-background:new 0 0 20 20;" xml:space="preserve">
<style type="text/css">
	.st0{fill-rule:evenodd;clip-rule:evenodd;}
</style>
<path d="M9.5,6.7c-0.8,0.1-1.3,0.4-1.3,1c0,0.5,0.3,0.9,1.3,1.1V6.7z"/>
<path d="M12.1,12.1c0-0.6-0.3-0.9-1.4-1.2v2.4C11.6,13.2,12.1,12.8,12.1,12.1z"/>
<path class="st0" d="M10,19c5,0,9-4,9-9c0-5-4-9-9-9c-5,0-9,4-9,9C1,15,5,19,10,19z M11,9.2c2.1,0.5,3,1.2,3,2.7
	c0,1.8-1.4,2.8-3.4,2.9V16H9.5v-1.1C7.3,14.7,6,13.6,6,11.7h1.9c0,0.9,0.5,1.4,1.5,1.6v-2.6l-0.2,0c-2.1-0.5-3-1.2-3-2.7
	c0-1.5,1-2.6,3.2-2.8V4h1.2v1.1c2,0.2,3.1,1.3,3.1,3h-1.9c0-0.7-0.4-1.2-1.2-1.4v2.4L11,9.2z"/>
</svg>
