<svg xmlns="http://www.w3.org/2000/svg" id="Layer_1" viewBox="0 0 20 20"><defs><style>.st0{fill-rule:evenodd}</style></defs><path d="M19.64 12c.14 0 .25.11.25.25v1.41c0 .22-.07.44-.21.61l-.87 1.12c-.28.36-.28.87 0 1.23l.87 1.12c.14.18.21.39.21.61v1.41c0 .14-.11.25-.25.25h-4.39c-.14 0-.25-.11-.25-.25v-1.41c0-.22.07-.44.21-.61l.87-1.12c.28-.36.28-.87 0-1.23l-.87-1.12a.98.98 0 0 1-.21-.61v-1.41c0-.14.11-.25.25-.25zm-3.25.89c-.43 0-.66.5-.38.83l1.05 1.22c.2.23.56.23.76 0l1.05-1.22c.28-.32.05-.83-.38-.83z" class="st0"/><path d="M16 4c1.1 0 2 .9 2 2v4h-2.75C14.01 10 13 11.01 13 12.25v1.41c0 .67.22 1.32.63 1.84l.39.5H2c-1.1 0-2-.9-2-2V6c0-1.1.9-2 2-2zM9 7c-1.66 0-3 1.34-3 3s1.34 3 3 3 3-1.34 3-3-1.34-3-3-3" class="st0"/></svg>