<?xml version="1.0" encoding="utf-8"?>
<!-- Generator: Adobe Illustrator 24.3.0, SVG Export Plug-In . SVG Version: 6.00 Build 0)  -->
<svg version="1.1" id="Layer_1" xmlns="http://www.w3.org/2000/svg" xmlns:xlink="http://www.w3.org/1999/xlink" x="0px" y="0px"
	 viewBox="0 0 20 20" style="enable-background:new 0 0 20 20;" xml:space="preserve">
<path d="M16.2,17l-0.9-8c-0.2-2.1-1.8-3.9-3.8-4.5l1-2.5c0.1-0.4-0.1-0.9-0.6-0.9H8C7.5,1.1,7.2,1.6,7.4,2l1,2.5
	C6.4,5.1,4.9,6.9,4.6,9l-0.9,8c0,0.9,0.8,1.8,1.6,1.8h9.2C15.6,18.8,16.4,17.9,16.2,17z M10,13.8c-1,0-1.9-0.9-1.9-1.9S9,10,10,10
	s1.9,0.9,1.9,1.9S11,13.8,10,13.8z"/>
</svg>
