<svg xmlns="http://www.w3.org/2000/svg" width="214" height="190" fill="none" viewBox="0 0 214 190"><path fill="#06d47c" d="M213.097 46.621 151.262.89s-6.513 29.484-38.718 46.66C81.341 61.722 1.472 95.93 1.472 95.93l-.43 47.664 70.706 45.085 135.118-58.826-.431-47.091-7.587-5.581s13.741-17.75 14.242-30.559z"/><path fill="#8decc5" d="m206.442 82.76-134.26 58.4L1.476 95.929l-.43 47.664 70.706 45.088 135.117-58.829z"/><path fill="#03804c" d="M71.28 150.196 1 104.671v10.298l70.098 45.707zm0 19.309L1 123.976v10.299l70.098 45.706zm0-19.309 135.132-57.447v10.657L71.82 160.495zm0 19.309 135.132-57.451v10.657L71.82 179.803z"/><path fill="#06d47c" d="m202.362 111.032-27.482 12.023s27.767-4.009 36.787-.715c0 0 .285-7.015-9.305-11.308M83.85 162.701s17.318 1.146 18.748 5.869c0 0 10.593-10.447 10.305-18.607l-29.057 12.738zm-54.391-29.342-16.174-10.02s-4.293 8.014-3.72 12.884c0 0 8.014-4.151 19.894-2.864"/><path fill="#fffaf0" d="m132.154 162.487 20.182-9.159.142-47.091-25.048-16.174s-2.631 1.249-3.294 1.287c-.663.04-2.148-1.145-2.148-1.145l-4.151-3.436s-2.721-1.003-2.721-2.003.142-1.86.142-1.86l-5.869-4.581s-1.757 2.633-3.293 1.43l-1.537-1.2-2.187-1.518-2.291-1.576s-1.718.285-2.148-1.145-.43-3.006-.43-3.006L81.9 61.148 61.86 69.88l69.992 44.801.284 47.806z"/><path fill="#fed604" d="M152.336 153.325v-47.091L127.43 90.06s4.436-3.436 8.16-3.006l24.689 16.032.359 46.803zM124.14 165.92l8.014-3.433-.285-47.806-69.991-44.8-7.872 3.578 70.134 45.228z"/><path fill="#fffaf0" d="M143.034 55.137s-.511 7.063 4.009 9.305c4.517 2.242 10.463 2.711 11.738.43l-14.313-10.305-1.431.573z"/><path fill="#048c59" d="m144.464 54.564 14.851 10.628.644-1.288V62.08s-.644-8.374-10.412-8.697l-2.038.107-3.041 1.074zm-1.575-34.46 11.485-4.08 13.418-3.113L151.259.89s-7.086 17.714-8.374 19.215zm29.953-3.006-2.255 4.08s.324.857.968 1.395c.644.537 1.931.323 1.931.323s.751 3.33 4.294 2.682c0 0 .43 1.932 1.718 2.469 1.287.537 2.255.213 2.255.213s0 .858 1.074 1.825 2.255.644 2.255.644.107 2.575 1.825 2.899 2.362.107 2.362.107-.431 1.61.75 2.148c1.181.537 2.255-.107 2.255-.107s.107 1.288 1.288 1.825 1.825.43 1.825.43l1.931-2.792zm29.09 22.008s-2.576.967 0 6.225c2.575 5.26 3.005 7.515 3.005 7.515s-4.293 10.629 1.932 11.81c0 0 7.192-15.136 6.225-18.034l-11.165-7.516zM95.441 60.899S139.132 44.153 144.93 28.8l-6.549-2.793s-9.984 13.848-28.448 22.758c-18.465 8.91-19.432 8.697-19.432 8.697l4.937 3.436zm108.422 8.8s-4.4-2.899-5.904-5.581c0 0-10.412 22.865-42.727 35.104l5.044 3.863s19.215-8.91 22.327-11.272 19.432-17.284 21.257-22.114z"/><path fill="#085239" d="m178.245 95.214 28.197-12.454-8.014-5.296s-9.483 10.7-20.183 17.75"/><path fill="#048c59" d="m59.587 76.892-5.581-3.436-29.2 12.023s4.293 3.436 4.724 5.154zm64.553 41.795-5.581-3.433-30.345 13.311 5.723 2.863zM19.079 107.094l1.718-6.154-1.43-4.15 2.718-4.867-3.721-3.436L1.475 95.93zm4.151 2.721 3.006-1.287s4.688 1.43 3.938 3.471c0 0 2.899 0 3.65.968.75.967.537 1.611.537 1.611s2.898.107 3.973 1.181.537 1.825.537 1.825 3.436.213 4.186 1.18c.75.968.537 1.932.537 1.932s3.33.107 4.187.967c.857.858.967 2.039.967 2.039s4.51 1.074 4.938 3.973l-1.825.857-28.627-18.713zm37.214 23.758 11.272 7.516 15.246-6.656s-6.762-2.792-12.99-1.287c0 0-10.198-3.863-13.528.43zm9.127-49.81-5.154-3.219s-8.697 5.475-8.91 13.204 12.346 19.966 32.312 20.289 24.582-3.006 24.582-3.006l-4.4-2.792s-17.927 5.691-30.917-.75c-12.99-6.442-14.708-11.916-13.31-16.747 1.394-4.83 5.797-6.979 5.797-6.979m41.543-18.784s19.002-7.943 27.695-15.135c8.697-7.193 19.539-5.261 24.8-1.075 5.26 4.187 9.767 11.166 8.049 19.432-1.718 8.267-6.655 11.593-9.447 13.31-2.792 1.719-18.895 10.199-18.895 10.199l5.368 3.436s25.55-9.124 29.199-22.972c3.65-13.847-1.288-24.152-10.198-29.736-8.91-5.581-20.396-5.798-30.701 1.825-10.304 7.622-31.775 19.215-36.392 19.752l3.113 2.148s3.543-2.792 7.406-1.18z"/><path fill="#fed604" d="m109.464 78.396 6.054 4.517 2.497-1.776 3.372-3.013-3.495-2.53s-3.132-.964-5.299.363c-2.168 1.323-3.132 2.44-3.132 2.44zM81.914 61.05l15.808 10.3 3.31-1.897 2.65-3.012-13.187-8.913z"/><path fill="#002140" d="M141.381 22.482s7.588 3.854 13.612-5.18c0 0 9.997 5.782 14.452-2.77l-3.614-2.53s-4.578 3.974-12.404.12c0 0-3.973 6.504-9.153 5.782l-2.889 4.578z"/><path stroke="#002140" stroke-linecap="round" stroke-linejoin="round" d="M152.883 8.268a1.504 1.504 0 1 0 0-3.008 1.504 1.504 0 0 0 0 3.008m56.548 41.915c.731 0 1.324-.647 1.324-1.446s-.593-1.446-1.324-1.446-1.323.647-1.323 1.446.592 1.446 1.323 1.446"/><path fill="#002140" d="m203.407 39.824-2.168-1.537s-7.227 5.6 2.259 12.916c0 0-6.322 10.117 2.53 14.452l1.356-2.44s-5.148-2.439-.272-12.284c0 0-7.228-4.97-3.705-11.11zm-68.108 28.814s.902 2.802 2.258 3.795c1.356.994 3.973.994 3.973.994zm-5.96 4.517 3.701-1.175-4.876-3.07zm6.413 1.084 1.624 3.164 3.523-.09-5.238-3.524m18.878 12.285-11.019-7.138s-.596 1.188-.748 2.22c-.155 1.032-4.491 1.576-5.574 3.11-1.084 1.536-1.084 2.62-1.084 2.62l6.865 4.788 11.564-5.6zm-36.582-10.839s2.98-1.446 3.704-3.251c.722-1.806 2.168-3.886 4.879-3.705l-.362-.812-8.312-5.057-6.053 2.53s6.865 1.446 6.144 10.298zm2.979-14.275 42.637-12.194s-5.963-4.245-13.279-3.614-12.915 5.873-12.915 5.873-14.996 9.486-16.439 9.936zm44.174-11.11s-1.356-1.446-1.715-.453-8.852 36.673-8.852 36.673 14.452-5.51 16.53-16.982c2.077-11.473-5.42-19.15-5.963-19.241z"/><path stroke="#002140" stroke-linecap="round" stroke-linejoin="round" d="M72.024 138.555c1.222 0 2.213-.546 2.213-1.219 0-.674-.991-1.22-2.213-1.22-1.223 0-2.213.546-2.213 1.22s.99 1.219 2.212 1.219M9.198 98.54c1.298 0 2.35-.587 2.35-1.311s-1.052-1.31-2.35-1.31c-1.297 0-2.348.586-2.348 1.31s1.051 1.31 2.348 1.31"/><path fill="#002140" d="M17.598 88.873s2.889.902 2.71 2.71c-.177 1.81-3.16 5.556-5.962 5.601 0 0 5.42 2.89 5.057 5.691-.362 2.802-2.802 2.89-2.802 2.89l3.342 2.349s4.97-1.987 4.88-4.879c-.091-2.893-3.887-5.963-3.887-5.963s5.33-1.265 4.97-5.42c-.362-4.154-4.335-4.97-4.335-4.97l-3.973 1.987zm68.021 46.46 4.937-2.41s-6.746-5.539-17.465-.845c0 0-8.79-6.503-17.823-1.566l4.697 3.132s2.168-2.048 6.746-1.084 6.384 2.168 6.384 2.168 7.467-3.494 12.524.602z"/><path fill="#fed604" d="m142.374 117.101-3.254 7.859 4.196 4.953 3.756-7.27zm.845 18.067-3.255 7.855 4.196 4.957 3.757-7.273zm-16.847-36.596-.136 7.319 8.399 1.352-.136-6.775zm-16.665-9.754-.136 7.315 8.399 1.356-.136-6.775zm-16.53-11.383-.136 7.319 8.399 1.355-.136-6.774zM77.73 67.14l-.135 7.315 8.4 1.356-.137-6.775z"/><path stroke="#002140" stroke-linecap="round" stroke-linejoin="round" d="M197.37 35.365s-9.473 9.085 2.106 17.26c0 0-7.493 9.413 4.109 16.945m-30.859-52.559s-4.041 12.489-16.449 5.64c0 0-5.2 10.85-17.038 3.697m43.251 13.223s1.427-3.416-2.355-6.477c-3.782-3.06-7.125-1.19-7.125-1.19s.266-1.544-.841-2.44l-5.27-4.264.546 3.326-4.29.608 5.685 4.6c2.326 1.884 1.339 2.841 2.041 3.41.702.567 3.178-1.578 5.899.622s1.465 5.403 2.119 6.073c.653.67 2.232-.586 3.465.41l5.61 4.54-.262-3.588 3.591-.223-5.865-4.747s-1.883-1.627-2.948-.66"/><path stroke="#002140" stroke-linecap="round" stroke-linejoin="round" d="M168.543 99.533c39.294-17.345 44.464-52.666 44.464-52.666L151.198.892c-1.631 4.98-7.859 33.603-47.153 50.948L1.068 96.013v47.693"/><path stroke="#002140" stroke-linecap="round" stroke-linejoin="round" d="M169.079 99.252q-1.456.692-2.976 1.365l-94.41 40.498"/><path stroke="#002140" stroke-linecap="round" stroke-linejoin="round" d="m1.068 143.434 70.626 45.102v-47.421L1.068 96.01m39.191 44.489L8.833 120.43m115.161-2.08L53.77 73.5m78.536 41.417-70.228-44.85m35.651 1.241-15.236-9.73m32.979 21.06-6.368-4.067m43.617 27.857L127.252 90.16m-3.258 75.615V118.35m8.131 43.834v-47.085m-28.378-48.586-13.346-8.526M121.17 77.83l-4.245-2.588m43.384 27.39-24.619-15.52m24.618 62.945v-47.424m-7.768 50.676v-46.881m54.105 7.467V82.58l-8.036-5.135M71.694 188.536l134.952-58.532v-8.522"/><path stroke="#002140" stroke-linecap="round" stroke-linejoin="round" d="m202.129 111.032-29.426 12.764s30.824-4.963 38.653-1.349c0-7.468-9.227-11.415-9.227-11.415m-89.161 38.673-30.452 13.207s18.879.605 19.962 5.782c0 0 9.658-9.917 10.49-18.992zm93.678-67.125-34.04 15.057M25.233 85.902c1.79 1.113 10.166 6.914-.317 12.275 0 0 10.444 6.426-1.676 11.826m28.776 18.345s10.838-5.238 21.137 1.805c0 0 7.949-6.503 20.955 1.446m1.369-70.833 25.191-11.369s14.407-6.885 24.644-20.493M29.792 90.41l29.432-13.282m89.637 17.827 9.561-4.183s4.445-1.951 10.492-6.338c13.883-10.072 13.825-30.798-.055-40.88l-.569-.414c-8.959-6.51-21.137-6.461-29.989.197-18.426 13.86-37.69 20.697-37.69 20.697"/><path stroke="#002140" stroke-linecap="round" stroke-linejoin="round" d="m143.367 91.35.909-.397q.365-.16.735-.304c1.676-.65 9.764-3.938 18.193-9.787 11.152-7.74 11.285-24.185.271-32.118-7.037-5.07-16.555-4.915-23.453.343-11.01 8.396-21.687 13.262-28.358 15.782M88.146 128.71l30.62-13.401m-93.038-6.38s6.054.544 4.064 3.161c0 0 6.322-.181 4.245 2.889 0 0 5.963-.812 4.516 2.711 0 0 6.232-.362 4.789 3.161 0 0 5.782-.362 4.97 2.98 0 0 5.147-.181 5.147 3.795m1.573-21.186c-1.032-.673-4.193-.763-4.193-.763l-7.406-4.879-.453 2.711-5.329-.272 8.312 5.148s1.174.903 2.802.272c0 0-2.802 2.889 1.174 5.238 3.973 2.349 8.13 2.349 9.845 1.896 0 0-1.355 1.084.272 2.167 1.628 1.084 6.144 3.886 6.144 3.886l.09-2.621h5.873l-7.677-4.969s-.722-.722-.454-2.168c0 0-4.487.845-7.978-1.084-1.566-.844-2.168-3.012-1.016-4.565zm9.508-25.786c-8.312 4.818-14.333 16.019-1.685 24.803 14.608 10.266 36.252 10.848 49.621 5.788"/><path stroke="#002140" stroke-linecap="round" stroke-linejoin="round" d="M69.6 83.786c-2.77 1.446-13.73 11.923 2.41 21.318 16.139 9.396 35.771 3.252 35.771 3.252"/><path stroke="#002140" stroke-linecap="round" stroke-linejoin="round" d="M81.235 102.422c1.62 0 2.934-.788 2.934-1.76s-1.313-1.76-2.934-1.76c-1.62 0-2.935.788-2.935 1.76s1.314 1.76 2.935 1.76m.951-3.432 6.413-2.89m-10.411 4.737c-.534.006-1.081.013-1.576.213-.495.201-.932.641-.964 1.172-.036.563.369 1.064.417 1.627.046.524-.226 1.032-.608 1.398s-.857.602-1.326.838"/><path fill="#002140" d="M9.137 98.718c1.331 0 2.41-.674 2.41-1.505s-1.079-1.504-2.41-1.504-2.41.673-2.41 1.504 1.079 1.505 2.41 1.505"/><path stroke="#002140" stroke-linecap="round" stroke-linejoin="round" d="M17.688 89.054s2.62.721 2.62 2.711-4.063 5.39-6.412 5.42c0 0 5.51 2.71 5.51 5.69s-3.07 2.89-3.07 2.89m3.802 2.303c1.051-.521 4.7-2.488 4.778-4.653.09-2.53-2.802-5.147-4.426-5.963 0 0 5.691-1.627 5.51-5.238-.181-3.61-4.064-5.056-4.064-5.056m33.332 43.176c9.573-4.697 17.613 1.806 17.613 1.806s4.698-2.53 10.39-1.896c5.69.631 7.405 2.53 7.405 2.53m-30.659.883s5.005-3.232 12.955 1.107c2.07-.573 7.859-2.802 12.556.453"/><path fill="#002140" d="M72.01 138.543c1.298 0 2.35-.587 2.35-1.311 0-.723-1.052-1.31-2.35-1.31-1.297 0-2.349.587-2.349 1.31s1.052 1.311 2.35 1.311"/><path stroke="#002140" stroke-linecap="round" stroke-linejoin="round" d="M117.773 75.71c.194-2.38.346-4.96-.903-6.968-.721-1.165-1.844-2.007-3.015-2.68-2.783-1.604-6.442-2.332-9.053-.446-1.569 1.133-2.524 3.045-4.187 4.022-.876.514-1.938.766-2.598 1.553-.608.724-.724 1.847-.281 2.688s1.42 1.35 2.342 1.217"/><path stroke="#002140" stroke-linecap="round" stroke-linejoin="round" d="M105.135 70.156c-.728.747-1.67 1.19-2.546 1.727-.874.537-1.738 1.233-2.097 2.24-.359 1.005-.239 1.953 1.566 2.86"/><path stroke="#002140" stroke-linecap="round" stroke-linejoin="round" d="M107.063 72.161c-.712.686-1.64 1.094-2.498 1.582-.857.492-1.705 1.13-2.058 2.055-.352.922.117 2.763 2.061 2.757"/><path stroke="#002140" stroke-linecap="round" stroke-linejoin="round" d="M109.156 73.491c-.711.686-1.64 1.094-2.497 1.582-.858.492-1.705 1.13-2.058 2.055-.353.922 0 2.17.938 2.481.207.068.43.133.647.117 1.207-.094 2.304-.738 3.271-1.469s1.861-1.57 2.922-2.155a7.43 7.43 0 0 1 4.869-.812m18.284 11.839c.194-2.382.346-4.96-.903-6.97-.722-1.164-1.844-2.006-3.015-2.678-2.783-1.605-6.442-2.333-9.053-.447-1.569 1.132-2.524 3.045-4.187 4.022-.877.514-1.938.767-2.598 1.553-.608.724-.725 1.847-.281 2.688s1.42 1.35 2.342 1.217"/><path stroke="#002140" stroke-linecap="round" stroke-linejoin="round" d="M127.097 85.272c-.712.685-1.64 1.093-2.498 1.582-.857.491-1.705 1.129-2.057 2.054-.353.925 0 2.171.938 2.482.207.068.43.132.647.116 1.207-.094 2.304-.738 3.271-1.469s1.86-1.569 2.922-2.155c1.465-.815 3.248-1.106 5.212-.753"/><path stroke="#002140" stroke-linecap="round" stroke-linejoin="round" d="M123.975 82.622c-.136.689-.829 1.093-1.434 1.446-.563.33-1.116.692-1.569 1.165-.631.666-1.042 1.562-1.029 2.478.013.915.622 2.472 2.54 2.523"/><path stroke="#002140" stroke-linecap="round" stroke-linejoin="round" d="M121.542 80.8c-.699 1.165-2.107 1.731-2.896 2.838a3.45 3.45 0 0 0-.282 3.455c.314.638 1.809 1.653 1.809 1.653m43.299-39.999-45.499 13.498 36.777 23.829zm-32.419 9.774 25.744 17.164m-3.028-24.091 7.769 5.18"/><path stroke="#002140" stroke-linecap="round" stroke-linejoin="round" d="M135.955 86.782a4.4 4.4 0 0 1 1.99-3.05c.731-.46 1.579-.693 2.404-.958.825-.266 1.656-.59 2.284-1.184.628-.596 1.006-1.528.728-2.346-.285-.838-1.149-1.333-1.987-1.624-1.426-.502-3.054-.631-4.426.013.473-1.728-1.025-3.711-2.611-4.55-1.585-.837-3.568-.685-5.176.104.152-1.682-.502-3.433-1.932-4.335s-3.578-.621-4.507.79c-.304.459-.466.996-.682 1.504-.78 1.837-2.314 3.332-4.155 4.092m30.242-21.864c3.795-.181 9.755 1.084 11.922 9.214m-15.717-7.95 14.996 10.48s-6.322 3.614-11.923-.722c-5.6-4.335-4.335-9.395-4.335-9.395"/><path fill="#002140" d="M148.172 57.725c-.819.731-1.323 1.737-1.323 2.853 0 2.23 2.022 4.035 4.516 4.035.722 0 1.401-.155 2.006-.424l-1.692-2.747 1.805.09"/><path stroke="#002140" stroke-linecap="round" stroke-linejoin="round" d="m136.683 65.296 10.179 7.406s-6.503 2.41-9.816-.722-.363-6.684-.363-6.684m-.96 3.313 6.14 4.636m-4.397-3.672 2.168-1.987m-.239-3.976 4.309-3.685m4.542 10.01 3.314-3.251m-11.02 5.296 2.167-1.986m-6.865 3.552 1.346-1.232m64.175-34.056s-3.372 1.928-2.77 5.901 4.937 6.985 4.937 6.985-3.853 5.902-1.566 10.237 4.096 4.335 4.096 4.335"/><path stroke="#002140" stroke-linecap="round" stroke-linejoin="round" d="M202.938 40.186c-.505.922-.838 2.122-.612 3.614.602 3.973 4.937 6.985 4.937 6.985s-3.853 5.901-1.566 10.237c.298.56 1.625 2.255 1.625 2.255"/><path fill="#002140" d="M209.431 50.183a1.566 1.566 0 1 0 0-3.132 1.566 1.566 0 0 0 0 3.132M152.944 8.268a1.566 1.566 0 1 0 0-3.131 1.566 1.566 0 0 0 0 3.131"/><path stroke="#002140" stroke-linecap="round" stroke-linejoin="round" d="M13.262 123.501s-4.698 6.503-4.096 12.886c0 0 12.627-6.422 22.453-1.404M170.651 21.035c-.165.664.292 1.369.91 1.66.618.295 1.342.253 2.009.097a3.08 3.08 0 0 0 1.433 2.514 3.08 3.08 0 0 0 2.889.155 2.53 2.53 0 0 0 1.087 2.401c.77.511 1.838.54 2.634.071a2.53 2.53 0 0 0 1.019 2.262 2.53 2.53 0 0 0 2.469.242c-.363.971.346 2.388 1.236 2.922.889.534 2.041.495 2.992.081-.275.8.049 1.767.751 2.239s1.721.407 2.359-.149c.032 1.352 1.446 2.495 2.776 2.239m-39.837 61.654 9.56-4.183s20.031-8.794 32.875-31.002"/></svg>