<?xml version="1.0" encoding="UTF-8"?>
<svg id="Layer_1" xmlns="http://www.w3.org/2000/svg" version="1.1" viewBox="0 0 20 20">
  <!-- Generator: Adobe Illustrator 29.5.1, SVG Export Plug-In . SVG Version: 2.1.0 Build 141)  -->
  <defs>
    <style>
      .st0 {
        fill-rule: evenodd;
      }
    </style>
  </defs>
  <path class="st0" d="M19.64,12c.14,0,.25.11.25.25v.64h0s0,0,0,0c0,.04,0,.07,0,.11v.66c0,.22-.07.44-.21.61l-.87,1.12c-.28.36-.28.87,0,1.23l.87,1.12c.14.18.21.39.21.61v1.41c0,.14-.11.25-.25.25h-4.39c-.14,0-.25-.11-.25-.25v-1.41c0-.22.07-.44.21-.61l.87-1.12c.28-.36.28-.87,0-1.23l-.87-1.12c-.14-.18-.21-.39-.21-.61v-1.41c0-.14.11-.25.25-.25h4.39ZM16.39,12.89c-.43,0-.66.5-.38.83l1.05,1.22c.2.23.56.23.76,0l1.05-1.22c.28-.32.05-.83-.38-.83h-2.1Z"/>
  <path class="st0" d="M16,4c1.1,0,2,.9,2,2v4h-2.75c-1.24,0-2.25,1.01-2.25,2.25v1.41c0,.67.22,1.32.63,1.84l.39.5H2C.9,16,0,15.1,0,14V6c0-1.1.9-2,2-2h14ZM9,7c-1.66,0-3,1.34-3,3s1.34,3,3,3,3-1.34,3-3-1.34-3-3-3Z"/>
</svg>