<svg xmlns="http://www.w3.org/2000/svg" width="187" height="173" fill="none" viewBox="0 0 187 173"><path fill="#03D47C" d="M131.748 14.666H35.3479V172.119H131.748V14.666Z"/><path fill="#03D47C" d="M131.885 66.8831C131.885 66.8831 140.975 70.0398 157.088 64.3131C169.508 57.9831 179.815 50.4131 179.548 21.7631C179.548 21.7631 185.871 21.7865 183.831 12.2565C183.831 12.2565 184.501 8.63979 184.768 7.16979C185.035 5.69979 186.375 2.34979 184.098 1.41312C181.821 0.476453 181.688 1.94979 181.688 1.94979C181.688 1.94979 180.568 1.04312 178.741 1.01312C178.741 1.01312 176.198 0.879786 175.395 1.94979C175.395 1.94979 171.645 1.01312 170.975 4.35979C171.108 7.03645 171.911 11.9931 171.911 11.9931C171.911 11.9931 170.305 8.24312 168.161 8.37645C166.018 8.50979 165.465 9.40645 166.151 10.5198C166.838 11.6331 168.828 14.5365 168.828 14.5365C168.828 14.5365 169.231 20.4265 173.381 21.4998C173.381 21.4998 175.255 50.6865 152.361 58.1865C152.361 58.1865 138.838 61.9365 131.341 58.7231"/><path fill="#03D47C" d="M35.0077 87.2799L35.2544 81.4699C35.2544 81.4699 2.21105 81.1432 1.40771 108.057C1.40771 129.543 24.681 134.133 29.1844 134.897C29.3077 135.737 25.8077 140.993 28.1177 145.31C28.1177 145.31 25.5077 147.017 25.5077 147.92C25.5077 148.823 25.8077 150.13 26.9144 150.13C26.9144 150.13 28.521 151.337 30.531 151.033C30.531 151.033 31.3077 151.487 32.2377 151.537C33.1677 151.587 35.251 149.83 35.251 149.83V131.203C35.251 131.203 31.3744 128.77 28.2044 128.367C26.1544 127.843 11.391 125.267 8.17771 110.127C7.92771 100.343 16.591 88.7732 34.9877 87.8132"/><path fill="#002140" d="M57.4411 91.4865L83.4478 54.4332C83.4478 54.4332 69.5911 51.6198 59.7478 68.5932C57.6378 73.8165 57.6378 77.7298 57.1378 83.2532C56.6378 88.7765 57.4378 91.4865 57.4378 91.4865H57.4411Z"/><path fill="#002140" d="M83.448 54.433L108.855 91.1197C108.855 91.1197 109.258 80.243 109.258 78.133C109.258 76.023 105.145 53.673 83.4513 54.433H83.448Z"/><path fill="#002140" d="M87.3647 91.6533L84.6213 92.0567L86.5613 94.0633L88.0347 92.1233L87.3647 91.6533Z"/><path fill="#002140" d="M75.9077 86.8398H89.9077L90.4077 88.8398H75.4077L75.9077 86.8398Z"/><path fill="#002140" d="M81.8077 91.8525C81.8077 91.8525 78.9943 91.8525 78.7943 92.1192C78.5943 92.3859 78.9277 92.9559 79.8643 93.7925C80.6677 93.9259 81.8043 91.8525 81.8043 91.8525H81.8077Z"/><path fill="#002140" d="M57.1042 92.1899V107.99C57.1042 107.99 62.2576 107.387 64.0009 107.387C65.7442 107.387 73.4409 107.253 74.5776 102.097C75.5142 99.0166 75.1142 97.9466 75.1142 97.9466C75.1142 97.9466 73.8409 97.1433 74.1776 95.1333C74.5109 93.1233 75.1142 91.9199 75.1142 91.9199L57.1076 92.1866L57.1042 92.1899Z"/><path fill="#002140" d="M90.7112 98.2126C90.7112 98.2126 91.2478 106.179 97.2712 107.183C103.295 108.186 106.978 106.779 109.121 108.389L109.188 91.5859L90.9112 91.8526C90.9112 91.8526 92.7845 93.1259 92.5845 95.1326C92.3845 97.1393 90.7112 98.2126 90.7112 98.2126Z"/><path fill="#FFFAF0" d="M72.8044 69.9959C72.8044 69.9959 73.3077 76.6226 83.1477 76.6226C92.9877 76.6226 93.891 70.1959 93.891 70.1959L90.9777 66.3793C90.9777 66.3793 88.1644 64.3693 83.5477 64.4726C78.9277 64.5726 75.011 66.9826 75.011 66.9826L72.801 69.9959H72.8044Z"/><path stroke="#002140" stroke-linecap="round" stroke-linejoin="round" d="M103.108 15.0693C103.108 15.0693 100.498 29.5293 116.365 29.3293C116.365 29.3293 115.761 42.786 131.228 41.9827"/><path fill="#002140" d="M126.404 22.0997C127.625 22.0997 128.614 21.1102 128.614 19.8897C128.614 18.6691 127.625 17.6797 126.404 17.6797C125.184 17.6797 124.194 18.6691 124.194 19.8897C124.194 21.1102 125.184 22.0997 126.404 22.0997Z"/><path fill="#002140" d="M119.711 27.3862C119.711 28.3229 118.071 38.9662 131.727 38.9662L131.767 34.1795C131.767 34.1795 122.991 35.8529 123.694 22.9995C123.694 22.9995 110.977 25.1529 111.611 14.8662C110.607 14.8662 107.327 14.8662 107.327 14.8662C107.327 14.8662 104.584 27.3862 119.711 27.3862Z"/><path stroke="#002140" stroke-linecap="round" stroke-linejoin="round" d="M63.8578 15.0693C63.8578 15.0693 66.4678 29.5293 50.6011 29.3293C50.6011 29.3293 51.2045 42.786 35.7378 41.9827"/><path fill="#002140" d="M40.5611 22.0997C41.7816 22.0997 42.7711 21.1102 42.7711 19.8897C42.7711 18.6691 41.7816 17.6797 40.5611 17.6797C39.3405 17.6797 38.3511 18.6691 38.3511 19.8897C38.3511 21.1102 39.3405 22.0997 40.5611 22.0997Z"/><path fill="#002140" d="M47.2547 27.3862C47.2547 28.3229 48.8947 38.9662 35.238 38.9662L35.198 34.1795C35.198 34.1795 43.9747 35.8529 43.2713 22.9995C43.2713 22.9995 55.988 25.1529 55.3547 14.8662C56.358 14.8662 59.638 14.8662 59.638 14.8662C59.638 14.8662 62.3813 27.3862 47.2547 27.3862Z"/><path stroke="#002140" stroke-linecap="round" stroke-linejoin="round" d="M71.5776 18.4592C71.5776 18.4592 71.7143 20.4358 74.6576 20.4358C77.601 20.4358 78.081 18.3125 78.081 18.3125"/><path stroke="#002140" stroke-linecap="round" stroke-linejoin="round" d="M78.0979 18.5129C78.0979 18.5129 78.2346 20.4895 81.1779 20.4895C84.1212 20.4895 84.6012 18.3662 84.6012 18.3662"/><path stroke="#002140" stroke-linecap="round" stroke-linejoin="round" d="M84.6682 18.4426C84.6682 18.4426 84.7915 20.4192 87.4149 20.4192C90.0382 20.4192 90.4682 18.2959 90.4682 18.2959"/><path stroke="#002140" stroke-linecap="round" stroke-linejoin="round" d="M90.571 18.4426C90.571 18.4426 90.6944 20.4192 93.3177 20.4192C95.9411 20.4192 96.3711 18.2959 96.3711 18.2959"/><path stroke="#002140" stroke-linecap="round" stroke-linejoin="round" d="M96.3713 18.4426C96.3713 18.4426 96.508 20.4192 99.4347 20.4192C102.361 20.4192 102.838 18.2959 102.838 18.2959"/><path stroke="#002140" stroke-linecap="round" stroke-linejoin="round" d="M64.0776 17.7266C64.0776 17.7266 64.5276 20.3999 67.881 20.3999C71.2343 20.3999 71.5776 18.4599 71.5776 18.4599"/><path stroke="#002140" stroke-linecap="round" stroke-linejoin="round" d="M63.8578 171.957C63.8578 171.957 66.4678 157.497 50.6011 157.697C50.6011 157.697 51.2045 144.24 35.7378 145.043"/><path fill="#002140" d="M40.5611 169.347C41.7816 169.347 42.7711 168.357 42.7711 167.137C42.7711 165.916 41.7816 164.927 40.5611 164.927C39.3405 164.927 38.3511 165.916 38.3511 167.137C38.3511 168.357 39.3405 169.347 40.5611 169.347Z"/><path fill="#002140" d="M47.2547 159.637C47.2547 158.7 48.8947 148.057 35.238 148.057L35.198 152.843C35.198 152.843 43.9747 151.17 43.2713 164.023C43.2713 164.023 55.988 161.87 55.3547 172.157H59.638C59.638 172.157 62.3813 159.637 47.2547 159.637Z"/><path stroke="#002140" stroke-linecap="round" stroke-linejoin="round" d="M103.108 171.957C103.108 171.957 100.498 157.497 116.365 157.697C116.365 157.697 115.761 144.24 131.228 145.043"/><path fill="#002140" d="M126.404 169.347C127.625 169.347 128.614 168.357 128.614 167.137C128.614 165.916 127.625 164.927 126.404 164.927C125.184 164.927 124.194 165.916 124.194 167.137C124.194 168.357 125.184 169.347 126.404 169.347Z"/><path fill="#002140" d="M119.711 159.637C119.711 158.7 118.071 148.057 131.727 148.057L131.767 152.843C131.767 152.843 122.991 151.17 123.694 164.023C123.694 164.023 110.977 161.87 111.611 172.157C110.607 172.157 107.327 172.157 107.327 172.157C107.327 172.157 104.584 159.637 119.711 159.637Z"/><path stroke="#002140" stroke-linecap="round" stroke-linejoin="round" d="M95.3876 168.563C95.3876 168.563 95.251 166.586 92.3076 166.586C89.3643 166.586 88.8843 168.709 88.8843 168.709"/><path stroke="#002140" stroke-linecap="round" stroke-linejoin="round" d="M88.8681 168.51C88.8681 168.51 88.7314 166.533 85.7881 166.533C82.8447 166.533 82.3647 168.657 82.3647 168.657"/><path stroke="#002140" stroke-linecap="round" stroke-linejoin="round" d="M82.2976 168.583C82.2976 168.583 82.1742 166.606 79.5509 166.606C76.9276 166.606 76.4976 168.73 76.4976 168.73"/><path stroke="#002140" stroke-linecap="round" stroke-linejoin="round" d="M76.394 168.583C76.394 168.583 76.2707 166.606 73.6473 166.606C71.024 166.606 70.594 168.73 70.594 168.73"/><path stroke="#002140" stroke-linecap="round" stroke-linejoin="round" d="M70.5944 168.583C70.5944 168.583 70.4577 166.606 67.531 166.606C64.6043 166.606 64.1277 168.73 64.1277 168.73"/><path stroke="#002140" stroke-linecap="round" stroke-linejoin="round" d="M102.888 169.296C102.888 169.296 102.438 166.623 99.0848 166.623C95.7315 166.623 95.3882 168.563 95.3882 168.563"/><path stroke="#002140" stroke-linecap="round" stroke-linejoin="round" d="M57.0874 91.9861L109.281 91.5394L83.2941 54.8994L57.0874 91.9861Z"/><path stroke="#002140" stroke-linecap="round" stroke-linejoin="round" d="M131.644 14.8691H35.2444V172.159H131.644V14.8691Z"/><path stroke="#002140" stroke-linecap="round" stroke-linejoin="round" d="M43.3948 145.813V41.2764"/><path stroke="#002140" stroke-linecap="round" stroke-linejoin="round" d="M123.224 145.813V41.2764"/><path stroke="#002140" stroke-linecap="round" stroke-linejoin="round" d="M83.921 46.8125H81.9744C64.7099 46.8125 50.7144 60.8081 50.7144 78.0725V108.436C50.7144 125.7 64.7099 139.696 81.9744 139.696H83.921C101.185 139.696 115.181 125.7 115.181 108.436V78.0725C115.181 60.8081 101.185 46.8125 83.921 46.8125Z"/><path stroke="#002140" stroke-linecap="round" stroke-linejoin="round" d="M83.9607 54.1367H82.3874C68.4146 54.1367 57.0874 65.4639 57.0874 79.4367V107.59C57.0874 121.563 68.4146 132.89 82.3874 132.89H83.9607C97.9335 132.89 109.261 121.563 109.261 107.59V79.4367C109.261 65.4639 97.9335 54.1367 83.9607 54.1367Z"/><path stroke="#002140" stroke-linecap="round" stroke-linejoin="round" d="M57.1174 108.06C63.3774 106.046 75.1774 110.563 75.1774 98.2129"/><path stroke="#002140" stroke-linecap="round" stroke-linejoin="round" d="M108.914 108.06C102.654 106.046 90.8542 110.563 90.8542 98.2129"/><path stroke="#002140" stroke-linecap="round" stroke-linejoin="round" d="M83.1478 103.043C82.5211 102.353 80.8778 100.587 79.2944 99.32C77.2844 97.7134 74.5244 98.6867 74.1744 96.3067C73.8244 93.9267 73.8744 92.09 76.8844 92.09C79.8944 92.09 79.6978 94.2 79.6978 94.2C79.6978 94.2 81.2044 92.04 83.1611 92.04C85.1178 92.04 86.6778 94.2 86.6778 94.2C86.6778 94.2 86.4778 92.09 89.4911 92.09C92.5044 92.09 92.5511 93.9267 92.2011 96.3067C91.8511 98.6867 89.0878 97.7134 87.0811 99.32C85.5644 100.533 83.9911 102.207 83.3111 102.95"/><path stroke="#002140" stroke-linecap="round" stroke-linejoin="round" d="M83.2241 95.5361V102.799V108.156"/><path stroke="#002140" stroke-linecap="round" stroke-linejoin="round" d="M84.6642 112.976C85.9952 112.976 87.0742 111.897 87.0742 110.566C87.0742 109.235 85.9952 108.156 84.6642 108.156C83.3331 108.156 82.2542 109.235 82.2542 110.566C82.2542 111.897 83.3331 112.976 84.6642 112.976Z"/><path stroke="#002140" stroke-linecap="round" stroke-linejoin="round" d="M84.5645 124.723C85.8955 124.723 86.9745 123.644 86.9745 122.313C86.9745 120.982 85.8955 119.903 84.5645 119.903C83.2335 119.903 82.1545 120.982 82.1545 122.313C82.1545 123.644 83.2335 124.723 84.5645 124.723Z"/><path stroke="#002140" stroke-linecap="round" stroke-linejoin="round" d="M83.1577 112.373V120.206"/><path stroke="#002140" stroke-linecap="round" stroke-linejoin="round" d="M82.9577 124.123C82.9577 125.19 82.5843 126.956 83.471 127.73C84.6877 128.793 86.0543 128.616 86.7143 130.386C86.9743 131.08 87.071 131.82 87.1677 132.556"/><path stroke="#002140" stroke-linecap="round" stroke-linejoin="round" d="M74.9246 66.8825C74.9246 66.8825 83.1579 61.8625 91.7946 66.8825"/><path stroke="#002140" stroke-linecap="round" stroke-linejoin="round" d="M72.7605 69.9199C73.1638 72.1033 74.9738 76.4733 82.9572 76.4733C90.9405 76.4733 93.2372 72.3299 93.8872 70.2599"/><path fill="#002140" d="M83.3875 64.416C80.7008 64.416 78.4975 66.4794 78.2742 69.106L83.9508 69.6227L79.3908 72.7794C80.3342 73.946 81.7708 74.6894 83.3875 74.6894C86.2242 74.6894 88.5242 72.3893 88.5242 69.5527C88.5242 66.716 86.2242 64.416 83.3875 64.416Z"/><path stroke="#002140" stroke-linecap="round" stroke-linejoin="round" d="M78.741 61.6631H87.7776"/><path stroke="#002140" stroke-linecap="round" stroke-linejoin="round" d="M65.0847 81.1426H101.235"/><path stroke="#002140" stroke-linecap="round" stroke-linejoin="round" d="M77.8347 81.1434L79.0414 76.5234"/><path stroke="#002140" stroke-linecap="round" stroke-linejoin="round" d="M89.1847 81.1434L87.978 76.5234"/><path stroke="#002140" stroke-linecap="round" stroke-linejoin="round" d="M83.1577 88.9766V92.0399"/><path stroke="#002140" stroke-linecap="round" stroke-linejoin="round" d="M75.5307 88.9814L90.1907 88.9814C90.1907 88.9814 90.1907 83.3581 82.5573 83.3581C82.5573 83.3581 75.5273 82.9548 75.5273 88.9814L75.5307 88.9814Z"/><path stroke="#002140" stroke-linecap="round" stroke-linejoin="round" d="M76.335 86.7666H88.7816"/><path stroke="#002140" stroke-linecap="round" stroke-linejoin="round" d="M80.5476 83.7529V86.3629"/><path stroke="#002140" stroke-linecap="round" stroke-linejoin="round" d="M85.3711 83.7529V86.3629"/><path stroke="#002140" stroke-linecap="round" stroke-linejoin="round" d="M131.961 59.3531C131.961 59.3531 173.535 68.3898 173.535 21.3965"/><path stroke="#002140" stroke-linecap="round" stroke-linejoin="round" d="M131.961 66.883C131.961 66.883 180.965 75.9196 179.558 21.6963"/><path stroke="#002140" stroke-linecap="round" stroke-linejoin="round" d="M173.045 21.3627C170.488 20.2593 168.798 17.416 169.055 14.646C168.385 13.8027 167.522 12.4727 166.848 11.6293C166.358 11.0127 165.838 10.2627 166.042 9.50267C166.242 8.76267 167.078 8.35934 167.845 8.34267C168.948 8.316 170.012 8.90267 170.722 9.74934C171.432 10.596 171.822 11.6727 172.002 12.7593C174.362 12.1827 177.002 14.146 177.125 16.576"/><path stroke="#002140" stroke-linecap="round" stroke-linejoin="round" d="M172.214 12.4426C171.884 9.99262 171.551 7.54262 171.221 5.09262C171.164 4.68262 171.111 4.26929 171.151 3.85929C171.294 2.42929 172.788 1.28929 174.204 1.52262C174.541 1.57929 174.874 1.70595 175.128 1.93595C175.681 2.43929 175.721 3.28262 175.721 4.02929C175.721 6.10262 175.721 8.17595 175.721 10.2526"/><path stroke="#002140" stroke-linecap="round" stroke-linejoin="round" d="M175.138 1.90313C175.605 1.40313 176.235 1.02313 176.918 0.979799C177.602 0.933133 178.328 1.27647 178.622 1.89313C178.768 2.1998 178.802 2.54647 178.815 2.88647C178.905 5.12313 178.222 7.35647 178.482 9.57647"/><path stroke="#002140" stroke-linecap="round" stroke-linejoin="round" d="M179.561 21.7028C180.805 21.6428 183.041 20.8895 184.011 18.3795C184.981 15.8695 183.701 12.3828 183.701 12.3828"/><path stroke="#002140" stroke-linecap="round" stroke-linejoin="round" d="M178.361 1.16305C179.181 0.699721 180.424 0.739721 181.104 1.24972C181.554 1.58639 181.768 2.16639 181.794 2.72639C181.844 3.87972 181.351 5.08305 181.194 6.22305C181.018 7.49972 180.974 8.79305 181.064 10.0764"/><path stroke="#002140" stroke-linecap="round" stroke-linejoin="round" d="M181.865 1.99345C183.075 0.506779 184.711 1.33011 185.221 2.07345C185.468 2.43345 185.568 2.87678 185.588 3.31345C185.638 4.41678 185.205 5.47678 184.851 6.52345C184.215 8.41678 183.828 10.3901 183.701 12.3834"/><path stroke="#002140" stroke-linecap="round" stroke-linejoin="round" d="M29.5377 134.943C29.5377 134.943 25.6211 140.69 28.3311 145.21"/><path stroke="#002140" stroke-linecap="round" stroke-linejoin="round" d="M28.3546 145.309C28.2179 145.689 27.8112 145.883 27.4512 146.063C26.7979 146.393 26.1646 146.829 25.7979 147.463C25.4312 148.099 25.3979 148.966 25.8746 149.523C26.2779 149.993 26.9579 150.153 27.5712 150.066C28.1846 149.979 28.7446 149.679 29.2746 149.356C30.1012 148.853 30.8979 148.273 31.5012 147.519C32.1046 146.763 32.5046 145.809 32.4479 144.846C32.4046 144.103 32.1046 143.403 31.8046 142.723"/><path stroke="#002140" stroke-linecap="round" stroke-linejoin="round" d="M27.2878 150.276C28.0845 151.04 29.3245 151.206 30.3812 150.903C31.4378 150.6 32.3378 149.886 33.0878 149.08C33.8245 148.286 34.4645 147.346 34.6178 146.273C34.7612 145.296 34.4812 144.293 34.0145 143.423"/><path stroke="#002140" stroke-linecap="round" stroke-linejoin="round" d="M30.6382 151.036C31.3382 151.59 32.3015 151.796 33.1682 151.583C34.0348 151.37 34.7882 150.74 35.1548 149.923"/><path fill="#002140" d="M138.688 67.7862C138.688 67.7862 139.738 60.2362 138.191 60.0195C136.645 59.8029 131.695 59.1162 131.695 59.1162L131.561 66.8162L138.691 67.7862H138.688Z"/><path fill="#002140" d="M26.121 82.6625C26.121 82.6625 25.4243 85.2392 27.341 88.9825C31.151 88.2492 35.5743 87.8425 35.5743 87.8425L35.2577 80.8525C35.2577 80.8525 28.3277 81.7559 26.121 82.6592V82.6625Z"/><path stroke="#002140" stroke-linecap="round" stroke-linejoin="round" d="M91.2444 34.1459C91.2444 34.1459 89.971 29.7959 84.0144 29.7959C78.0577 29.7959 76.3144 34.1459 76.3144 34.1459C76.3144 34.1459 75.3777 32.4726 73.6377 32.4726H65.3377L68.4177 35.2159L64.801 39.0992H73.7544C77.421 39.0992 78.3244 40.7726 78.3244 40.7726C78.3244 40.7726 80.131 36.8226 84.4177 36.8226C88.7044 36.8226 91.111 40.9726 91.111 40.9726C91.111 40.9726 92.7844 38.6959 94.7277 38.6959H103.564L100.551 35.4826L103.798 32.5026H94.5577C94.5577 32.5026 91.511 32.4026 91.2444 34.1426V34.1459Z"/><path stroke="#002140" stroke-linecap="round" stroke-linejoin="round" d="M75.7411 153.049C75.7411 153.049 77.0144 157.399 82.9711 157.399C88.9277 157.399 90.6711 153.049 90.6711 153.049C90.6711 153.049 91.6077 154.723 93.3477 154.723H101.648L98.5677 151.979L102.184 148.096H93.2311C89.5644 148.096 88.6611 146.423 88.6611 146.423C88.6611 146.423 86.8544 150.373 82.5677 150.373C78.2811 150.373 75.8744 146.223 75.8744 146.223C75.8744 146.223 74.2011 148.499 72.2577 148.499H63.4211L66.4344 151.713L63.1877 154.693H72.4277C72.4277 154.693 75.4744 154.793 75.7411 153.053V153.049Z"/><path stroke="#002140" stroke-linecap="round" stroke-linejoin="round" d="M29.5377 134.943C13.5844 132.86 1.40771 121.717 1.40771 108.28C1.40771 93.3599 16.4244 81.2666 34.951 81.2666"/><path stroke="#002140" stroke-linecap="round" stroke-linejoin="round" d="M34.9841 87.8125C20.2307 87.9725 8.3374 97.1525 8.3374 108.456C8.3374 111.312 9.12407 114.116 10.5241 116.599C12.0007 119.222 14.1041 121.456 16.5141 123.246C19.1774 125.226 22.2141 126.679 25.3841 127.646C26.3141 127.929 27.2541 128.169 28.2041 128.369C29.6207 128.666 31.0307 128.852 32.3874 129.376C33.3574 129.749 34.6541 130.306 35.0774 131.343"/></svg>