<?xml version="1.0" encoding="utf-8"?>
<!-- Generator: Adobe Illustrator 26.5.0, SVG Export Plug-In . SVG Version: 6.00 Build 0)  -->
<svg version="1.1" id="Layer_1" xmlns="http://www.w3.org/2000/svg" xmlns:xlink="http://www.w3.org/1999/xlink" x="0px" y="0px"
	 viewBox="0 0 20 20" style="enable-background:new 0 0 20 20;" xml:space="preserve">
<style type="text/css">
	.st0{fill-rule:evenodd;clip-rule:evenodd;}
</style>
<path d="M4.5,6C4.2,6,4,6.2,4,6.5v4C4,10.8,4.2,11,4.5,11h11c0.3,0,0.5-0.2,0.5-0.5v-4C16,6.2,15.8,6,15.5,6H4.5z"/>
<path class="st0" d="M2,2C0.9,2,0,2.9,0,4v9c0,1.1,0.9,2,2,2h7v2H6c-0.6,0-1,0.4-1,1s0.4,1,1,1h8c0.6,0,1-0.4,1-1s-0.4-1-1-1h-3v-2
	h7c1.1,0,2-0.9,2-2V4c0-1.1-0.9-2-2-2H2z M17,13c0.6,0,1-0.4,1-1V5c0-0.6-0.4-1-1-1H3C2.4,4,2,4.4,2,5v7c0,0.6,0.4,1,1,1H17z"/>
</svg>
