<?xml version="1.0" encoding="utf-8"?>
<!-- Generator: Adobe Illustrator 24.3.0, SVG Export Plug-In . SVG Version: 6.00 Build 0)  -->
<svg version="1.1" id="Layer_1" xmlns="http://www.w3.org/2000/svg" xmlns:xlink="http://www.w3.org/1999/xlink" x="0px" y="0px"
	 viewBox="0 0 20 20" style="enable-background:new 0 0 20 20;" xml:space="preserve">
<path d="M18.8,1.2H1.2C0.5,1.2,0,1.8,0,2.5v11.2C0,14.5,0.5,15,1.2,15h6.2v1.9c0,0.4-0.2,0.6-0.6,0.6H5v1.2h2.5h5H15v-1.2h-1.9
	c-0.4,0-0.6-0.2-0.6-0.6V15h6.2c0.8,0,1.2-0.5,1.2-1.2V2.5C20,1.8,19.5,1.2,18.8,1.2z M18.8,13.8h-6.2h-5H1.2V2.5h17.5V13.8z"/>
</svg>
