<?xml version="1.0" encoding="UTF-8"?>
<svg id="Layer_1" xmlns="http://www.w3.org/2000/svg" version="1.1" viewBox="0 0 174 232">
  <!-- Generator: Adobe Illustrator 29.5.1, SVG Export Plug-In . SVG Version: 2.1.0 Build 141)  -->
  <defs>
    <style>
      .st0 {
        fill-rule: evenodd;
      }

      .st0, .st1, .st2 {
        fill: #002140;
      }

      .st3, .st4 {
        fill: #99f6ff;
      }

      .st5 {
        fill: #a65e3a;
      }

      .st6 {
        fill: #e96df2;
      }

      .st6, .st7, .st8, .st9, .st4 {
        stroke: #002140;
      }

      .st10 {
        fill: #fffaf0;
      }

      .st7 {
        fill: #03d47c;
      }

      .st8 {
        fill: none;
        stroke-linecap: round;
      }

      .st8, .st2 {
        stroke-linejoin: round;
      }

      .st11 {
        fill: #50eef6;
      }

      .st12, .st9 {
        fill: #ccf6ff;
      }

      .st13 {
        fill: #e5fafe;
      }

      .st14 {
        fill: #fed607;
      }

      .st2 {
        stroke: #e96df2;
        stroke-width: 1.25px;
      }

      .st15 {
        fill: #ff7101;
      }
    </style>
  </defs>
  <path class="st9" d="M109.62,106.518l56.422,15.458.181.049.103.156,6.776,10.174.126.19-.06.219-26.186,95.947-.317,1.164-.6-1.048-1.779-3.112-3.089,1.324-.37.158-.234-.327-2.238-3.133-3.107,1.777-.478.273-.226-.503-1.282-2.858-3.029,1.595-.469.248-.219-.483-1.387-3.051-2.901,1.448-.412.205-.24-.394-1.754-2.895-3.532,1.905-.488.264-.211-.513-1.329-3.228-3.054,2.051-.482.324-.248-.525-1.527-3.226-3.27,1.654-.472.238-.212-.483-1.372-3.129-3.393,2.075-.517.315-.212-.566-1.25-3.332-2.957,2.536-.565.483-.235-.705-1.326-3.977-3.996,1.776-.544.241-.145-.577-.804-3.215-2.886,2.474-.542.465-.251-.669-1.321-3.523-4.525,1.811-.938.375.271-.973,28.488-102.579.133-.48.48.132Z"/>
  <path class="st4" d="M165.91,122.458s3.119,4.687,1.017,9.003l5.758,1.171-6.775-10.174Z"/>
  <path class="st8" d="M110.312,205.88l21.439,5.871"/>
  <path class="st8" d="M95.329,182.215l53.256,14.591"/>
  <path class="st8" d="M130.834,183.715l-33.161-9.084-.866,3.162,33.16,9.085.867-3.163Z"/>
  <path class="st8" d="M120.232,174.133l-20.858-5.714-.866,3.163,20.858,5.714.866-3.163Z"/>
  <path class="st8" d="M103.784,155.025l29.295,8.026"/>
  <path class="st8" d="M102.577,159.438l29.295,8.023"/>
  <path class="st8" d="M104.897,151.426l12.186,3.335"/>
  <path class="st8" d="M146.202,162.741l10.955,3.002"/>
  <path class="st8" d="M143.824,171.424l10.955,2.999"/>
  <path class="st8" d="M143.12,173.986l10.958,2.999"/>
  <path class="st8" d="M142.263,177.115l10.954,3.002"/>
  <path class="st8" d="M125.59,142.102l18.047,4.944"/>
  <path class="st8" d="M117.33,143.747l32.107,8.793"/>
  <path class="st8" d="M138.28,139.714c4.831,0,8.747-3.916,8.747-8.747s-3.916-8.746-8.747-8.746-8.746,3.916-8.746,8.746,3.915,8.747,8.746,8.747Z"/>
  <path class="st1" d="M140.601,129.717c.054.023.114.036.174.04.407.03.63-.311.727-.658.056-.206.123-.453.203-.74.074-.264.097-.554-.133-.744-.15-.123-.4-.164-.584-.107-.02.007-.25.117-.22.16,0,0-.404-.59-.864-.717l.194-.71s.153-.557-.464-.724c-.617-.17-.787.447-.787.447l-.194.71s-2.105-.31-2.662,1.725c-.744,2.715,3.923,2.635,3.469,4.303-.063.237-.457.937-1.968.524-1.838-.504-.57-1.798-1.728-2.115-.633-.174-.917.263-1.02.634l-.381,1.387s-.113.534.474.694c.587.16.817-.073.817-.073,0,0,.314.55.871.704l-.22.797c-.137.5-.421,1.218.277,1.408.583.16.78-.311.91-.774.104-.371.204-.744.307-1.114-.01.033.921,0,.978-.007.68-.113,1.291-.47,1.668-1.058.43-.667.637-1.587.226-2.311-.29-.514-.81-.858-1.317-1.134-.491-.271-1.014-.474-1.488-.771-.297-.183-.651-.46-.544-.854.227-.834,1.188-.694,1.758-.537.554.153.907.427,1.048.984.063.257.226.534.477.637l-.004-.006Z"/>
  <path class="st1" d="M133.6,199.782c.04.016.086.026.133.03.31.023.48-.237.554-.501.042-.155.093-.343.153-.563.054-.201.074-.421-.103-.568-.114-.093-.304-.123-.444-.08-.013.004-.19.09-.167.124,0,0-.307-.451-.66-.547l.147-.541s.116-.423-.354-.553c-.47-.131-.6.34-.6.34l-.147.54s-1.605-.237-2.028,1.315c-.567,2.068,2.989,2.008,2.642,3.275-.05.18-.347.714-1.502.397-1.397-.383-.433-1.371-1.314-1.611-.484-.133-.7.2-.777.484l-.29,1.057s-.087.407.36.527c.447.12.624-.056.624-.056,0,0,.24.42.664.533l-.167.607c-.104.381-.32.928.21,1.071.447.124.594-.237.694-.59.077-.284.157-.567.233-.851-.006.027.701,0,.744-.007.521-.086.984-.36,1.271-.804.327-.507.484-1.21.174-1.761-.224-.39-.617-.654-1.004-.864-.374-.203-.774-.36-1.135-.587-.223-.14-.497-.35-.413-.65.173-.634.904-.531,1.337-.411.434.12.691.327.801.751.05.197.173.407.364.484v.01Z"/>
  <path class="st1" d="M145.678,203.091c.04.017.087.027.133.03.311.023.481-.237.554-.5.042-.156.094-.344.154-.564.053-.2.073-.42-.104-.567-.113-.094-.303-.124-.443-.08-.014.003-.191.09-.167.123,0,0-.307-.45-.661-.547l.147-.54s.117-.424-.354-.554c-.47-.13-.6.34-.6.34l-.147.541s-1.604-.237-2.028,1.314c-.567,2.068,2.989,2.008,2.642,3.276-.05.18-.347.714-1.501.397-1.398-.384-.434-1.371-1.314-1.612-.484-.133-.701.201-.778.484l-.29,1.058s-.087.407.36.527c.447.123.624-.057.624-.057,0,0,.24.42.664.534l-.167.607c-.103.38-.32.927.21,1.071.447.123.594-.237.694-.591.077-.283.157-.567.234-.851-.007.027.7,0,.744-.006.52-.087.984-.36,1.271-.804.326-.507.483-1.211.173-1.761-.223-.391-.617-.654-1.004-.864-.387-.211-.774-.361-1.134-.588-.224-.14-.497-.35-.414-.65.174-.634.904-.53,1.338-.41.433.12.69.327.8.75.05.197.174.407.364.484v.01Z"/>
  <path class="st1" d="M139.64,201.437c.04.016.087.026.134.03.31.023.48-.237.554-.501.042-.155.093-.343.153-.563.053-.201.073-.421-.103-.568-.114-.093-.304-.123-.444-.08-.013.004-.19.09-.167.124,0,0-.307-.451-.66-.547l.146-.541s.117-.423-.353-.553c-.471-.131-.601.34-.601.34l-.146.54s-1.605-.237-2.029,1.315c-.567,2.068,2.989,2.008,2.642,3.275-.05.18-.347.714-1.501.397-1.397-.383-.433-1.371-1.314-1.611-.484-.133-.701.2-.777.484l-.291,1.057s-.086.407.361.527c.447.124.624-.056.624-.056,0,0,.24.42.663.533l-.166.607c-.104.381-.321.928.21,1.071.447.124.594-.237.694-.59.076-.284.156-.567.233-.851-.007.027.701,0,.744-.007.52-.086.984-.36,1.271-.803.327-.507.484-1.211.173-1.762-.223-.39-.617-.654-1.004-.864-.373-.203-.774-.36-1.134-.587-.223-.14-.497-.35-.413-.65.173-.634.904-.531,1.337-.411.424.117.691.327.801.751.05.197.173.407.363.484v.01Z"/>
  <path class="st9" d="M101.62,86.518l56.422,15.458.181.049.103.156,6.776,10.174.126.19-.06.219-26.186,95.947-.317,1.164-.6-1.048-1.779-3.112-3.089,1.324-.37.158-.234-.327-2.238-3.133-3.107,1.777-.478.273-.226-.503-1.282-2.858-3.029,1.595-.469.248-.219-.483-1.387-3.051-2.901,1.448-.412.205-.24-.394-1.754-2.895-3.532,1.905-.488.264-.211-.513-1.329-3.228-3.054,2.051-.482.324-.248-.525-1.527-3.226-3.27,1.654-.472.238-.212-.483-1.372-3.129-3.394,2.075-.517.315-.212-.566-1.25-3.332-2.957,2.536-.565.483-.235-.705-1.326-3.977-3.996,1.776-.544.241-.145-.577-.804-3.215-2.886,2.474-.542.465-.251-.669-1.321-3.523-4.525,1.811-.938.375.271-.973,28.488-102.579.133-.481.48.132Z"/>
  <path class="st4" d="M157.91,102.458s3.119,4.687,1.017,9.003l5.758,1.171-6.775-10.174Z"/>
  <path class="st8" d="M102.312,185.88l21.439,5.871"/>
  <path class="st8" d="M87.329,162.215l53.256,14.591"/>
  <path class="st8" d="M122.834,163.715l-33.161-9.084-.866,3.162,33.16,9.085.867-3.163Z"/>
  <path class="st8" d="M112.232,154.133l-20.858-5.714-.866,3.163,20.858,5.714.866-3.163Z"/>
  <path class="st8" d="M95.784,135.025l29.295,8.026"/>
  <path class="st8" d="M94.577,139.438l29.295,8.023"/>
  <path class="st8" d="M96.897,131.426l12.186,3.335"/>
  <path class="st8" d="M138.202,142.741l10.955,3.002"/>
  <path class="st8" d="M135.824,151.424l10.955,2.999"/>
  <path class="st8" d="M135.12,153.986l10.958,2.999"/>
  <path class="st8" d="M134.263,157.115l10.954,3.002"/>
  <path class="st8" d="M117.59,122.102l18.047,4.944"/>
  <path class="st8" d="M109.33,123.747l32.107,8.793"/>
  <path class="st8" d="M130.28,119.714c4.831,0,8.747-3.916,8.747-8.747s-3.916-8.746-8.747-8.746-8.746,3.916-8.746,8.746,3.915,8.747,8.746,8.747Z"/>
  <path class="st1" d="M132.601,109.717c.054.023.114.036.174.04.407.03.63-.311.727-.658.056-.206.123-.453.203-.74.074-.264.097-.554-.133-.744-.15-.123-.4-.164-.584-.107-.02.007-.25.117-.22.16,0,0-.404-.59-.864-.717l.194-.71s.153-.557-.464-.724c-.617-.17-.787.447-.787.447l-.194.71s-2.105-.31-2.662,1.725c-.744,2.715,3.923,2.635,3.469,4.303-.063.237-.457.937-1.968.524-1.838-.504-.57-1.798-1.728-2.115-.633-.174-.917.263-1.02.634l-.381,1.387s-.113.534.474.694c.587.16.817-.073.817-.073,0,0,.314.55.871.704l-.22.797c-.137.5-.421,1.218.277,1.408.583.16.78-.311.91-.774.104-.371.204-.744.307-1.114-.01.033.921,0,.978-.007.68-.113,1.291-.47,1.668-1.058.43-.667.637-1.587.226-2.311-.29-.514-.81-.858-1.317-1.134-.491-.271-1.014-.474-1.488-.771-.297-.183-.651-.46-.544-.854.227-.834,1.188-.694,1.758-.537.554.153.907.427,1.048.984.063.257.226.534.477.637l-.004-.006Z"/>
  <path class="st1" d="M125.6,179.782c.04.016.086.026.133.03.31.023.48-.237.554-.501.042-.155.093-.343.153-.563.054-.201.074-.421-.103-.568-.114-.093-.304-.123-.444-.08-.013.004-.19.09-.167.124,0,0-.307-.451-.66-.547l.147-.541s.116-.423-.354-.553c-.47-.131-.6.34-.6.34l-.147.54s-1.605-.237-2.028,1.315c-.567,2.068,2.989,2.008,2.642,3.275-.05.18-.347.714-1.502.397-1.397-.383-.433-1.371-1.314-1.611-.484-.133-.7.2-.777.484l-.29,1.057s-.087.407.36.527c.447.12.624-.056.624-.056,0,0,.24.42.664.533l-.167.607c-.104.381-.32.928.21,1.071.447.124.594-.237.694-.59.077-.284.157-.567.233-.851-.006.027.701,0,.744-.007.521-.086.984-.36,1.271-.804.327-.507.484-1.21.174-1.761-.224-.39-.617-.654-1.004-.864-.374-.203-.774-.36-1.135-.587-.223-.14-.497-.35-.413-.65.173-.634.904-.531,1.337-.411.434.12.691.327.801.751.05.197.173.407.364.484v.01Z"/>
  <path class="st1" d="M137.678,183.091c.04.017.087.027.133.03.311.023.481-.237.554-.5.042-.156.094-.344.154-.564.053-.2.073-.42-.104-.567-.113-.094-.303-.124-.443-.08-.014.003-.191.09-.167.123,0,0-.307-.45-.661-.547l.147-.54s.117-.424-.354-.554c-.47-.13-.6.34-.6.34l-.147.541s-1.604-.237-2.028,1.314c-.567,2.068,2.989,2.008,2.642,3.276-.05.18-.347.714-1.501.397-1.398-.384-.434-1.371-1.314-1.612-.484-.133-.701.201-.778.484l-.29,1.058s-.087.407.36.527c.447.123.624-.057.624-.057,0,0,.24.42.664.534l-.167.607c-.103.38-.32.927.21,1.071.447.123.594-.237.694-.591.077-.283.157-.567.234-.851-.007.027.7,0,.744-.006.52-.087.984-.36,1.271-.804.326-.507.483-1.211.173-1.761-.223-.391-.617-.654-1.004-.864-.387-.211-.774-.361-1.134-.588-.224-.14-.497-.35-.414-.65.174-.634.904-.53,1.338-.41.433.12.69.327.8.75.05.197.174.407.364.484v.01Z"/>
  <path class="st1" d="M131.64,181.437c.04.016.087.026.134.03.31.023.48-.237.554-.501.042-.155.093-.343.153-.563.053-.201.073-.421-.103-.568-.114-.093-.304-.123-.444-.08-.013.004-.19.09-.167.124,0,0-.307-.451-.66-.547l.146-.541s.117-.423-.353-.553c-.471-.131-.601.34-.601.34l-.146.54s-1.605-.237-2.029,1.315c-.567,2.068,2.989,2.008,2.642,3.275-.05.18-.347.714-1.501.397-1.397-.383-.433-1.371-1.314-1.611-.484-.133-.701.2-.777.484l-.291,1.057s-.086.407.361.527c.447.124.624-.056.624-.056,0,0,.24.42.663.533l-.166.607c-.104.381-.321.928.21,1.071.447.124.594-.237.694-.59.076-.284.156-.567.233-.851-.007.027.701,0,.744-.007.52-.086.984-.36,1.271-.803.327-.507.484-1.211.173-1.762-.223-.39-.617-.654-1.004-.864-.373-.203-.774-.36-1.134-.587-.223-.14-.497-.35-.413-.65.173-.634.904-.531,1.337-.411.424.117.691.327.801.751.05.197.173.407.363.484v.01Z"/>
  <path class="st9" d="M93.62,66.518l56.422,15.458.181.05.103.155,6.776,10.175.126.189-.06.219-26.186,95.947-.317,1.164-.6-1.048-1.779-3.112-3.089,1.324-.37.158-.234-.327-2.238-3.133-3.107,1.777-.478.273-.226-.503-1.282-2.858-3.029,1.595-.469.248-.219-.483-1.387-3.051-2.901,1.448-.412.205-.24-.394-1.754-2.895-3.532,1.905-.488.264-.211-.513-1.329-3.228-3.054,2.051-.482.324-.248-.525-1.526-3.226-3.271,1.654-.472.238-.212-.483-1.372-3.129-3.394,2.075-.517.315-.212-.566-1.25-3.332-2.957,2.536-.565.483-.235-.705-1.326-3.977-3.996,1.776-.544.241-.145-.577-.804-3.215-2.886,2.474-.542.465-.251-.669-1.321-3.523-4.525,1.811-.938.375.271-.973,28.488-102.579.133-.481.48.132Z"/>
  <path class="st4" d="M149.91,82.458s3.119,4.687,1.017,9.003l5.758,1.171-6.775-10.174Z"/>
  <path class="st8" d="M94.312,165.88l21.439,5.871"/>
  <path class="st8" d="M79.329,142.215l53.256,14.591"/>
  <path class="st8" d="M114.834,143.715l-33.161-9.084-.866,3.162,33.16,9.085.867-3.163Z"/>
  <path class="st8" d="M104.232,134.133l-20.858-5.714-.866,3.163,20.858,5.714.866-3.163Z"/>
  <path class="st8" d="M87.784,115.025l29.295,8.026"/>
  <path class="st8" d="M86.577,119.438l29.295,8.023"/>
  <path class="st8" d="M88.897,111.426l12.186,3.335"/>
  <path class="st8" d="M130.202,122.741l10.955,3.002"/>
  <path class="st8" d="M127.824,131.424l10.955,2.999"/>
  <path class="st8" d="M127.12,133.986l10.958,2.999"/>
  <path class="st8" d="M126.263,137.115l10.954,3.002"/>
  <path class="st8" d="M109.59,102.102l18.047,4.944"/>
  <path class="st8" d="M101.33,103.747l32.107,8.793"/>
  <path class="st8" d="M122.28,99.714c4.831,0,8.747-3.916,8.747-8.747s-3.916-8.746-8.747-8.746-8.746,3.916-8.746,8.746,3.915,8.747,8.746,8.747Z"/>
  <path class="st1" d="M124.601,89.716c.054.023.114.037.174.04.407.03.63-.31.727-.657.056-.207.123-.454.203-.741.074-.264.097-.554-.133-.744-.15-.123-.4-.163-.584-.107-.02.007-.25.117-.22.16,0,0-.404-.59-.864-.717l.194-.711s.153-.557-.464-.724c-.617-.17-.787.447-.787.447l-.194.711s-2.105-.31-2.662,1.725c-.744,2.715,3.923,2.635,3.469,4.303-.063.237-.457.937-1.968.524-1.838-.504-.57-1.798-1.728-2.115-.633-.174-.917.263-1.02.634l-.381,1.388s-.113.534.474.694c.587.16.817-.073.817-.073,0,0,.314.55.871.704l-.22.797c-.137.5-.421,1.217.277,1.408.583.16.78-.31.91-.774.104-.37.204-.744.307-1.114-.01.033.921,0,.978-.007.68-.113,1.291-.47,1.668-1.057.43-.667.637-1.588.226-2.312-.29-.514-.81-.857-1.317-1.134-.491-.27-1.014-.474-1.488-.771-.297-.183-.651-.46-.544-.854.227-.834,1.188-.694,1.758-.537.554.153.907.427,1.048.984.063.257.226.534.477.637l-.004-.007Z"/>
  <path class="st1" d="M117.6,159.782c.04.016.086.026.133.03.31.023.48-.237.554-.501.042-.155.093-.343.153-.563.054-.201.074-.421-.103-.568-.114-.093-.304-.123-.444-.08-.013.004-.19.09-.167.124,0,0-.307-.451-.66-.547l.147-.541s.116-.423-.354-.553c-.47-.131-.6.34-.6.34l-.147.54s-1.605-.237-2.028,1.315c-.567,2.068,2.989,2.008,2.642,3.275-.05.18-.347.714-1.502.397-1.397-.383-.433-1.371-1.314-1.611-.484-.133-.7.2-.777.484l-.29,1.057s-.087.407.36.527c.447.12.624-.056.624-.056,0,0,.24.42.664.533l-.167.607c-.104.381-.32.928.21,1.071.447.124.594-.237.694-.59.077-.284.157-.567.233-.851-.006.027.701,0,.744-.007.521-.086.984-.36,1.271-.804.327-.507.484-1.21.174-1.761-.224-.39-.617-.654-1.004-.864-.374-.203-.774-.36-1.135-.587-.223-.14-.497-.35-.413-.65.173-.634.904-.531,1.337-.411.434.12.691.327.801.751.05.197.173.407.364.484v.01Z"/>
  <path class="st1" d="M129.678,163.091c.04.017.087.027.133.03.311.023.481-.237.554-.5.042-.156.094-.344.154-.564.053-.2.073-.42-.104-.567-.113-.094-.303-.124-.443-.08-.014.003-.191.09-.167.123,0,0-.307-.45-.661-.547l.147-.54s.117-.424-.354-.554c-.47-.13-.6.34-.6.34l-.147.541s-1.604-.237-2.028,1.314c-.567,2.068,2.989,2.008,2.642,3.276-.05.18-.347.714-1.501.397-1.398-.384-.434-1.371-1.314-1.612-.484-.133-.701.201-.778.484l-.29,1.058s-.087.407.36.527c.447.123.624-.057.624-.057,0,0,.24.42.664.534l-.167.607c-.103.38-.32.927.21,1.071.447.123.594-.237.694-.591.077-.283.157-.567.234-.851-.007.027.7,0,.744-.006.52-.087.984-.36,1.271-.804.326-.507.483-1.211.173-1.761-.223-.391-.617-.654-1.004-.864-.387-.211-.774-.361-1.134-.588-.224-.14-.497-.35-.414-.65.174-.634.904-.53,1.338-.41.433.12.69.327.8.75.05.197.174.407.364.484v.01Z"/>
  <path class="st1" d="M123.64,161.437c.04.016.087.026.134.03.31.023.48-.237.554-.501.042-.155.093-.343.153-.563.053-.201.073-.421-.103-.568-.114-.093-.304-.123-.444-.08-.013.004-.19.09-.167.124,0,0-.307-.451-.66-.547l.146-.541s.117-.423-.353-.553c-.471-.131-.601.34-.601.34l-.146.54s-1.605-.237-2.029,1.315c-.567,2.068,2.989,2.008,2.642,3.275-.05.18-.347.714-1.501.397-1.397-.383-.433-1.371-1.314-1.611-.484-.133-.701.2-.777.484l-.291,1.057s-.086.407.361.527c.447.124.624-.056.624-.056,0,0,.24.42.663.533l-.166.607c-.104.381-.321.928.21,1.071.447.124.594-.237.694-.59.076-.284.156-.567.233-.851-.007.027.701,0,.744-.007.52-.086.984-.36,1.271-.803.327-.507.484-1.211.173-1.762-.223-.39-.617-.654-1.004-.864-.373-.203-.774-.36-1.134-.587-.223-.14-.497-.35-.413-.65.173-.634.904-.531,1.337-.411.424.117.691.327.801.751.05.197.173.407.363.484v.01Z"/>
  <path class="st3" d="M143.244,62.101s3.109,4.694.994,9.003l5.754,1.188-6.748-10.191Z"/>
  <path class="st12" d="M149.997,72.292l-5.755-1.188s1.418-6.898-.994-9.003l-56.011-15.345-28.808,102.359,3.833-1.705,1.498,3.47,3.873-1.848,1.538,3.329,3.549-1.782,1.995,3.186,3.806-1.748,1.641,3.509,3.899-2.221,1.635,3.813,3.536-2.015,1.892,3.426,3.556-2.085,1.981,3.372,3.102-1.828,2.085,3.556,3.899-2.221,1.641,3.509,3.586-1.925,1.872,3.496,3.556-2.085,1.691,3.6,4.033-1.879,1.561,2.953,26.313-94.704-.003.003Z"/>
  <path class="st8" d="M85.789,157.032l3.653-2.302,1.681,3.87"/>
  <path class="st8" d="M80.344,155.541l3.653-2.302,1.681,3.87"/>
  <path class="st8" d="M91.209,158.529l3.649-2.301,1.685,3.869"/>
  <path class="st8" d="M96.626,160.031l3.65-2.302,1.684,3.869"/>
  <path class="st8" d="M107.564,162.996l3.653-2.298,1.685,3.866"/>
  <path class="st8" d="M102.121,161.505l3.653-2.302,1.681,3.87"/>
  <path class="st8" d="M112.986,164.497l3.649-2.301,1.685,3.869"/>
  <path class="st8" d="M63.905,151.038l3.653-2.302,1.681,3.869"/>
  <path class="st8" d="M69.324,152.535l3.653-2.302,1.681,3.87"/>
  <path class="st8" d="M74.744,154.033l3.649-2.302,1.685,3.87"/>
  <path class="st8" d="M143.518,62.482l-56.536-15.642-28.521,102.706,3.653-2.301,1.681,3.869"/>
  <path class="st8" d="M149.996,72.292l-26.259,95.271-1.685-3.87-3.649,2.302"/>
  <path class="st8" d="M87.444,145.386l21.423,5.925"/>
  <path class="st8" d="M72.515,121.686l53.22,14.724"/>
  <path class="st8" d="M108.044,123.26l-33.138-9.165-.874,3.161,33.138,9.165.874-3.161Z"/>
  <path class="st8" d="M97.465,113.653l-20.844-5.765-.874,3.161,20.843,5.765.874-3.161Z"/>
  <path class="st8" d="M81.042,94.515l29.272,8.099"/>
  <path class="st8" d="M79.821,98.925l29.275,8.099"/>
  <path class="st8" d="M82.162,90.919l12.176,3.369"/>
  <path class="st8" d="M123.437,102.338l10.948,3.029"/>
  <path class="st8" d="M121.038,111.014l10.948,3.029"/>
  <path class="st8" d="M120.328,113.573l10.948,3.029"/>
  <path class="st8" d="M119.463,116.702l10.948,3.029"/>
  <path class="st8" d="M102.878,81.649l18.033,4.987"/>
  <path class="st8" d="M94.616,83.27l32.084,8.877"/>
  <path class="st8" d="M115.594,79.29c4.831,0,8.747-3.916,8.747-8.746s-3.916-8.747-8.747-8.747-8.746,3.916-8.746,8.747,3.916,8.746,8.746,8.746Z"/>
  <path class="st1" d="M117.919,69.3c.053.023.113.037.173.04.407.03.634-.307.728-.657.057-.205.125-.451.203-.741.073-.263.097-.554-.133-.744-.151-.124-.397-.163-.584-.107-.02.007-.25.117-.22.16,0,0-.401-.594-.864-.72l.196-.711s.154-.554-.463-.727c-.617-.17-.787.447-.787.447l-.197.71s-2.105-.317-2.669,1.721c-.751,2.715,3.916,2.645,3.456,4.31-.067.237-.457.937-1.971.517-1.835-.507-.564-1.801-1.722-2.122-.634-.173-.917.26-1.021.631l-.383,1.388s-.114.534.47.694c.587.163.817-.073.817-.073,0,0,.314.55.868.704l-.22.797c-.137.497-.424,1.214.273,1.408.584.164.784-.31.911-.774.103-.37.207-.744.307-1.114-.01.033.92.003.977-.003.681-.11,1.291-.467,1.671-1.054.434-.667.641-1.588.234-2.312-.29-.514-.807-.861-1.314-1.138-.487-.27-1.015-.477-1.488-.774-.294-.184-.651-.464-.541-.857.231-.834,1.191-.691,1.758-.534.554.153.908.43,1.048.987.063.257.227.534.477.637l.01.01Z"/>
  <path class="st1" d="M110.743,139.345c.04.017.087.027.133.033.311.024.481-.233.554-.5.042-.156.095-.344.157-.564.057-.2.073-.42-.1-.567-.114-.093-.304-.127-.444-.08-.013.003-.19.09-.17.123,0,0-.304-.45-.657-.55l.15-.54s.117-.424-.354-.554c-.47-.13-.6.34-.6.34l-.15.541s-1.605-.241-2.032,1.311c-.57,2.068,2.986,2.014,2.632,3.282-.05.18-.35.714-1.501.394-1.397-.387-.43-1.371-1.311-1.615-.48-.133-.7.197-.777.48l-.294,1.058s-.086.407.361.53c.447.124.623-.056.623-.056,0,0,.237.42.661.537l-.167.607c-.103.38-.323.927.21,1.074.447.123.597-.237.694-.591.08-.283.157-.567.234-.847-.007.027.7,0,.744-.003.52-.084.984-.357,1.274-.801.33-.507.487-1.211.177-1.761-.221-.394-.617-.654-1.001-.867-.384-.214-.771-.364-1.134-.591-.224-.14-.497-.353-.414-.654.177-.633.907-.527,1.341-.407.424.117.691.327.797.754.05.197.174.407.364.487v-.003Z"/>
  <path class="st1" d="M122.816,142.684c.04.017.087.027.134.034.31.023.48-.234.553-.501.043-.155.095-.343.157-.563.057-.2.073-.421-.1-.567-.113-.094-.304-.127-.444-.08-.013.003-.19.09-.17.123,0,0-.303-.45-.657-.55l.15-.541s.117-.424-.353-.554c-.471-.13-.601.341-.601.341l-.15.54s-1.605-.24-2.032,1.311c-.57,2.068,2.986,2.015,2.632,3.282-.05.181-.35.714-1.501.394-1.397-.387-.43-1.371-1.311-1.614-.48-.134-.7.196-.777.48l-.293,1.057s-.087.407.36.531c.447.123.624-.057.624-.057,0,0,.236.42.66.537l-.167.607c-.103.381-.323.928.21,1.074.447.124.598-.236.694-.59.08-.284.157-.567.234-.847-.007.026.7,0,.744-.004.52-.083.984-.357,1.274-.8.33-.507.487-1.211.177-1.762-.22-.393-.617-.653-1.001-.867-.374-.207-.771-.364-1.134-.59-.224-.14-.497-.354-.414-.654.177-.634.908-.527,1.341-.407.434.12.691.327.798.754.05.197.173.407.363.487v-.004Z"/>
  <path class="st1" d="M116.782,141.017c.04.016.086.026.133.033.31.023.48-.234.554-.5.042-.156.094-.344.157-.564.056-.2.073-.421-.1-.567-.114-.094-.304-.127-.444-.08-.013.003-.19.09-.17.123,0,0-.304-.45-.657-.55l.15-.541s.116-.423-.354-.554c-.47-.13-.6.341-.6.341l-.15.54s-1.605-.24-2.032,1.311c-.57,2.068,2.986,2.015,2.632,3.283-.05.18-.35.713-1.501.393-1.398-.387-.43-1.371-1.311-1.614-.48-.134-.701.196-.777.48l-.294,1.057s-.087.407.36.531c.447.123.624-.057.624-.057,0,0,.237.42.661.537l-.167.607c-.103.381-.324.928.21,1.074.447.124.597-.236.694-.59.08-.284.157-.567.233-.847-.006.026.701,0,.744-.004.521-.083.984-.357,1.275-.8.33-.507.487-1.211.176-1.762-.22-.393-.617-.653-1-.867-.374-.207-.771-.363-1.135-.59-.223-.14-.497-.354-.413-.654.177-.634.907-.527,1.341-.407.423.117.69.327.797.754.05.197.174.407.364.487v-.003Z"/>
  <path class="st8" d="M143.502,62.535s2.739,5.044.577,8.43l5.768,1.291-6.345-9.717"/>
  <path class="st5" d="M4.295,187.671s4.123-15.341,7.142-17.423c0,0-3.699-13.867,8.857-26.186,0,0,6.361-4.226,9.107-5.31,2.745-1.084,11.422-4.827,15.942-8.487,4.52-3.656,12.849-7.802,19.391-.96,6.541,6.841-1.391,17.369-3.79,18.854-2.398,1.484-6.748,3.966-8.69,4.353-1.942.387-10.821,2.085-11.115,8.736,0,0,2.709,8.547,1.848,13.36l43.409,11.892s-7.596,8.173-17.326,7.953c-9.73-.22-17.213-1.961-17.213-1.961l-2.752,6.131s-16.322,1.494-29.699-3.853c-13.377-5.347-15.111-7.102-15.111-7.102v.003Z"/>
  <path class="st5" d="M117.996,129.818l-4.21,15.372s6.801,4.77,10.581,5.501c3.779.73,11.158-1.075,12.616-8.634,1.458-7.555-6.215-10.27-8.997-10.727-2.782-.458-8.129.066-9.99-1.515v.003Z"/>
  <path class="st5" d="M113.783,145.19l-.741,2.705s-3.029-.677-5.227-1.584c-2.198-.907-6.415-4.51-10.478-5.317-4.063-.808-8.209,2.034-9.597,4.867-1.388,2.832-1.057,7.208-.617,8.399,0,0-5.431,5.858-3.069,12.319,0,0-2.955,2.512-3.476,4.864-.52,2.352-1.448,10.314,11.789,13.94,13.236,3.626,19.057-5.337,20.749-12.065,0,0,6.411-4.977,3.469-12.666,0,0,4.54-7.633,2.021-11.843l-4.823-3.616v-.003Z"/>
  <path class="st14" d="M105.743,158.9s-.787,9.577-4.013,12.976c0,0,8.94,1.992,11.389,1.438,0,0,6.284-5.624,3.469-12.666,0,0-7.829-.464-10.845-1.748h0Z"/>
  <path class="st11" d="M42.99,174.605l52.662,14.427s5.254.367,6.048-3.086c0,0-4.841.357-10.535-1.204-5.694-1.561-13.09-6.952-10.962-12.489,2.128-5.538,3.85-5.678,3.85-5.678,0,0-2.972-4.793,3.069-12.319,0,0-2.635-5.464,1.735-10.237,4.367-4.771,10.551-2.772,12.182-2.019,1.631.754,6.271,4.474,8.406,5.058,2.135.583,3.596.833,3.596.833l30.65-111.869s.977-6.922-4.43-8.406c-5.408-1.481-62.91-17.236-62.91-17.236,0,0-6.805-1.404-8.6,5.14-1.795,6.548-33.185,121.123-33.185,121.123,0,0,7.719-4.16,10.775-6.381,3.056-2.222,10.505-7.069,16.933-3.166,6.428,3.903,6.004,11.592,3.466,14.721-2.542,3.129-3.696,6.792-10.988,9.384-7.289,2.592-13.116,3.752-13.613,10.04,0,0,2.839,7.509,1.848,13.36l.003.004Z"/>
  <path class="st13" d="M41.096,132.928l25.893-94.507,56.422,15.458,6.775,10.174-22.51,82.218-4.693-2.969s-3.686-3.306-7.322-2.312c-3.636.994-5.771.894-7.175,3.85-1.404,2.955-1.691,6.728-1.691,6.728l-.894-.09-3.366,1.678-2.002-3.302-3.95,2.131-1.561-3.793-3.563,2.392-1.745-3.689-3.729,1.884-1.601-3.652-1.491.967s8.733-9.54,1.845-16.786c-6.888-7.245-13.343-2.125-19.391.961l-4.25,2.662v-.003Z"/>
  <path class="st14" d="M4.982,188.218c-1.898-.343-3.679,10.381-2.709,17.276,3.022,3.043,27.534,9.417,44.566,9.798,0,0,1.775-13.744,2.272-16.669,0,0-9.824.674-17.626-1.004-7.803-1.678-24.602-9.06-26.503-9.401h0Z"/>
  <path class="st15" d="M112.905,166.829l-1.461-3.613-3.132,2.509,1.094,3.819,3.499-2.715Z"/>
  <path class="st11" d="M117.398,162.706s.214,4.804-1.561,7.375l4.083,4.637,4.98,1.365,2.409-2.095,2.145-7.829-.851-3.6-5.267-1.444-5.945,1.584.007.007Z"/>
  <path class="st12" d="M123.41,53.879s3.119,4.687,1.017,9.003l5.758,1.171-6.775-10.174Z"/>
  <path class="st14" d="M25.881,140.466s8.48,4.237,11.295,8.757c2.815,4.52,4.163,10.781,4.163,10.781,0,0,2.512-4.974,4.804-5.801,2.292-.827,9.874-2.802,9.991-3.229.117-.427.294-12.239-13.583-18.564,0,0-3.186,2.415-9.39,5.231-6.205,2.815-7.279,2.825-7.279,2.825h0Z"/>
  <path class="st10" d="M31.105,138.789c5.037,3.876,9.427,3.682,13.954,1.774,1.848-.777,3.546-1.958,5.501-2.412l-8.009-5.744s-10.208,6.135-11.442,6.378l-.003.004Z"/>
  <path class="st8" d="M35.315,136.62c4.163,2.712,10.448,5.394,12.519,16.752"/>
  <path class="st8" d="M42.744,132.223c4.043,2.782,13.076,7.453,13.263,18.734"/>
  <path class="st8" d="M26.318,140.59s13.317,5.117,14.921,19.728"/>
  <path class="st8" d="M11.29,170.275s-10.288,15.745-9.067,35.026"/>
  <path class="st8" d="M52.358,192.732s-4.053,3.262-4.677,22.583"/>
  <path class="st8" d="M4.295,187.671c16.185,8.573,33.321,11.549,45.083,11.135"/>
  <path class="st8" d="M2.224,205.301c12.673,6.285,31.513,10.391,45.457,10.011"/>
  <path class="st8" d="M25.774,196.221s4.056,10.037-4.236,15.708"/>
  <path class="st8" d="M13.299,192.111s4.056,10.037-4.236,15.708"/>
  <path class="st8" d="M38.159,198.759s4.056,10.037-4.236,15.708"/>
  <path class="st1" d="M19.836,204.878c1.131,0,2.048-.917,2.048-2.048s-.917-2.049-2.048-2.049-2.048.917-2.048,2.049.917,2.048,2.048,2.048Z"/>
  <path class="st1" d="M7.564,200.651c1.131,0,2.048-.917,2.048-2.048s-.917-2.049-2.048-2.049-2.048.917-2.048,2.049.917,2.048,2.048,2.048Z"/>
  <path class="st1" d="M32.179,207.676c1.131,0,2.048-.917,2.048-2.048s-.917-2.048-2.048-2.048-2.048.917-2.048,2.048.917,2.048,2.048,2.048Z"/>
  <path class="st1" d="M43.745,209.237c1.131,0,2.048-.917,2.048-2.048s-.917-2.048-2.048-2.048-2.048.917-2.048,2.048.917,2.048,2.048,2.048Z"/>
  <path class="st8" d="M34.814,136.627L68.135,15.006c.994-3.623,4.734-5.754,8.356-4.764l62.46,17.113c3.623.994,5.754,4.734,4.764,8.356l-30.736,112.186"/>
  <path class="st8" d="M102.151,185.997c-1.594,2.321-4.536,3.495-7.405,2.708l-51.672-14.157"/>
  <path class="st8" d="M68.175,171.386c4.731,0,8.566-3.835,8.566-8.567s-3.835-8.566-8.566-8.566-8.566,3.835-8.566,8.566,3.835,8.567,8.566,8.567Z"/>
  <path class="st7" d="M68.173,156.679c3.447,0,6.24,2.794,6.24,6.241,0,3.446-2.794,6.24-6.24,6.24s-6.241-2.793-6.241-6.24c0-3.447,2.794-6.241,6.241-6.241Z"/>
  <path class="st8" d="M71.486,20.714l3.116,5.641"/>
  <path class="st8" d="M70.414,25.08l5.758-3.082"/>
  <path class="st1" d="M135.525,38.007l-4.524,3.169,2.933.804-1.445,2.502,4.363-2.585-2.928-.801,1.601-3.089Z"/>
  <path class="st8" d="M62.915,145.964l1.498-.811,1.695,3.866"/>
  <path class="st8" d="M66.191,148.949l3.643-2.312,1.695,3.867"/>
  <path class="st8" d="M71.612,150.434l3.643-2.309,1.695,3.863"/>
  <path class="st8" d="M77.033,151.921l3.646-2.312,1.691,3.867"/>
  <path class="st8" d="M82.453,153.406l3.646-2.312.681,1.001"/>
  <path class="st8" d="M123.683,54.256l-56.575-15.501-25.762,94.033"/>
  <path class="st8" d="M107.712,146.074l22.473-82.021"/>
  <path class="st8" d="M67.812,137.301l21.439,5.871"/>
  <path class="st8" d="M52.829,113.636l53.256,14.591"/>
  <path class="st8" d="M88.334,115.136l-33.16-9.084-.866,3.162,33.16,9.084.866-3.162Z"/>
  <path class="st8" d="M77.732,105.554l-20.858-5.714-.866,3.163,20.858,5.714.866-3.163Z"/>
  <path class="st8" d="M61.284,86.446l29.295,8.026"/>
  <path class="st8" d="M60.077,90.859l29.295,8.023"/>
  <path class="st8" d="M62.397,82.846l12.186,3.336"/>
  <path class="st8" d="M103.702,94.162l10.955,3.002"/>
  <path class="st8" d="M101.324,102.845l10.955,2.999"/>
  <path class="st8" d="M100.62,105.407l10.958,2.999"/>
  <path class="st8" d="M99.763,108.536l10.954,3.002"/>
  <path class="st8" d="M83.09,73.523l18.047,4.944"/>
  <path class="st8" d="M74.83,75.168l32.107,8.793"/>
  <path class="st8" d="M95.78,71.135c4.831,0,8.747-3.916,8.747-8.747s-3.916-8.746-8.747-8.746-8.746,3.916-8.746,8.746,3.916,8.747,8.746,8.747Z"/>
  <path class="st1" d="M98.101,61.137c.053.023.113.037.174.04.407.03.63-.31.727-.657.056-.207.123-.454.203-.741.073-.264.097-.554-.133-.744-.15-.123-.4-.163-.584-.107-.02.007-.25.117-.22.16,0,0-.404-.59-.864-.717l.194-.711s.153-.557-.464-.724c-.617-.17-.787.447-.787.447l-.194.71s-2.105-.31-2.662,1.725c-.744,2.715,3.923,2.635,3.469,4.303-.063.237-.457.937-1.968.524-1.838-.504-.57-1.798-1.728-2.115-.634-.174-.917.264-1.021.634l-.38,1.388s-.113.534.474.694c.587.16.817-.073.817-.073,0,0,.314.55.871.704l-.22.797c-.137.5-.42,1.218.277,1.408.584.16.781-.31.911-.774.103-.37.203-.744.307-1.114-.01.033.921,0,.977-.007.68-.113,1.291-.47,1.668-1.057.43-.667.637-1.588.227-2.312-.29-.514-.811-.857-1.318-1.134-.49-.27-1.014-.474-1.488-.771-.297-.183-.65-.46-.544-.854.227-.834,1.188-.694,1.758-.537.554.153.907.427,1.048.984.063.257.227.534.477.637l-.003-.007Z"/>
  <path class="st1" d="M91.1,131.203c.04.016.087.026.133.03.31.023.48-.237.554-.501.042-.155.094-.343.154-.563.053-.201.073-.421-.103-.568-.113-.093-.304-.123-.444-.08-.013.004-.19.09-.167.124,0,0-.307-.451-.661-.547l.147-.541s.117-.423-.354-.553c-.47-.131-.6.34-.6.34l-.147.54s-1.604-.237-2.028,1.315c-.567,2.068,2.989,2.008,2.642,3.275-.05.18-.347.714-1.501.397-1.398-.383-.434-1.371-1.314-1.611-.484-.133-.701.2-.777.484l-.29,1.057s-.087.407.36.527c.447.12.624-.056.624-.056,0,0,.24.42.664.533l-.167.607c-.103.381-.32.928.21,1.071.447.124.594-.237.694-.59.077-.284.157-.567.234-.851-.007.027.7,0,.744-.007.52-.086.984-.36,1.271-.803.327-.508.484-1.211.173-1.762-.223-.39-.617-.654-1.004-.864-.374-.203-.774-.36-1.134-.587-.223-.14-.497-.35-.414-.65.174-.634.904-.531,1.338-.411.434.12.69.327.801.751.05.197.173.407.364.484v.01Z"/>
  <path class="st1" d="M103.178,134.512c.04.016.087.026.133.03.311.023.481-.237.554-.501.042-.155.094-.343.154-.563.053-.2.073-.421-.104-.567-.113-.094-.303-.124-.443-.08-.014.003-.191.09-.167.123,0,0-.307-.45-.661-.547l.147-.541s.117-.423-.354-.553c-.47-.13-.6.34-.6.34l-.147.54s-1.604-.236-2.028,1.315c-.567,2.068,2.989,2.008,2.642,3.275-.05.181-.347.714-1.501.397-1.398-.383-.434-1.371-1.314-1.611-.484-.133-.701.2-.777.484l-.29,1.057s-.087.407.36.527c.447.124.624-.056.624-.056,0,0,.24.42.664.533l-.167.608c-.103.38-.32.927.21,1.07.447.124.594-.236.694-.59.077-.284.157-.567.234-.851-.007.027.7,0,.744-.006.52-.087.984-.361,1.271-.804.326-.507.483-1.211.173-1.762-.223-.39-.617-.653-1.004-.864-.387-.21-.774-.36-1.134-.587-.224-.14-.497-.35-.414-.65.174-.634.904-.531,1.338-.41.433.12.69.326.8.75.05.197.174.407.364.484v.01Z"/>
  <path class="st1" d="M97.14,132.857c.04.017.087.027.133.03.31.024.48-.236.554-.5.042-.156.093-.343.154-.564.053-.2.073-.42-.103-.567-.114-.093-.304-.123-.444-.08-.013.004-.19.09-.167.124,0,0-.307-.451-.66-.547l.147-.541s.117-.424-.354-.554c-.47-.13-.6.341-.6.341l-.147.54s-1.604-.237-2.028,1.314c-.567,2.069,2.989,2.009,2.642,3.276-.05.18-.347.714-1.501.397-1.398-.384-.434-1.371-1.314-1.611-.484-.134-.701.2-.777.484l-.29,1.057s-.087.407.36.527c.447.124.624-.057.624-.057,0,0,.24.421.664.534l-.167.607c-.103.381-.32.928.21,1.071.447.123.594-.237.694-.59.077-.284.157-.568.233-.851-.007.027.701,0,.744-.007.52-.086.984-.36,1.271-.804.327-.507.484-1.211.174-1.761-.223-.39-.617-.654-1.004-.864-.374-.203-.774-.36-1.134-.587-.224-.14-.497-.35-.414-.651.174-.633.904-.53,1.338-.41.424.117.691.327.801.751.05.197.173.407.364.483v.01Z"/>
  <path class="st8" d="M116.662,160.614c-13.33.06-15.598-5.811-20.265-7.249-4.667-1.434-10.218-.4-12.479,6.432-.847,2.562-.641,4.837.304,6.778"/>
  <path class="st8" d="M113.183,173.317c-13.327.06-15.449-5.597-21.406-7.102-5.958-1.504-11.185,1.135-11.565,7.519-.254,4.267,3.432,7.519,6.888,9.344,4.51,2.385,21.412,8.967,26.086-9.761"/>
  <path class="st8" d="M115.303,148.299c-9.293-1.138-11.538-5.745-15.601-6.996-4.667-1.434-10.218-.4-12.479,6.432-.847,2.562-.641,4.837.303,6.778"/>
  <path class="st8" d="M113.089,173.1s6.482-4.113,3.619-12.649c0,0,5.471-8.053,2.069-11.922"/>
  <path class="st8" d="M113.089,173.1c-.217.044-.434.084-.647.124"/>
  <path class="st8" d="M86.393,186.901s-11.876,12.352-33.962,5.844"/>
  <path class="st8" d="M11.29,170.275s-1.207-9.133,4.67-20.091c5.878-10.959,15.885-10.869,23.24-15.689,7.355-4.82,17.099-13.83,25.125-5.951,5.874,5.768,2.869,13.59-2.489,18.474-2.679,2.442-5.801,4.156-9.264,5.194-3.573,1.07-7.816,1.664-9.984,5.077-.517.81-.874,1.721-1.128,2.645-.987,2.298,5.965,9.867-1.738,22.904"/>
  <path class="st8" d="M117.947,129.752c4.196,1.915,6.921.634,12.696,2.312,5.774,1.677,7.542,7.515,5.45,12.913-2.091,5.394-11.531,9.693-22.016-.064"/>
  <path class="st8" d="M105.637,158.97s.887,5.141-3.433,12.526"/>
  <path class="st8" d="M111.598,162.899l-3.316,2.612,1.664,3.973,3.319-2.608-1.667-3.977Z"/>
  <path class="st8" d="M117.359,163.1l6.385-2.075,4.98,1.364,1.031,3.496-2.302,8.396-2.395,1.485-4.554-1.248-4.369-4.713"/>
  <path class="st8" d="M124.31,161.178l-3.666,13.38"/>
  <path class="st8" d="M123.227,164.861l-5.761,1.481,3.833,4.724"/>
  <path class="st8" d="M128.413,162.686l-4.8,2.435,4.96,3.96-6.571,1.641,3.122,4.527"/>
  <path class="st8" d="M123.667,54.309s2.752,5.037.597,8.426l5.771,1.274-6.371-9.701"/>
  <circle class="st6" cx="67" cy="19" r="18.5"/>
  <path class="st0" d="M65.689,10.718l-1.939,13.795c-.04.285.295.468.513.279l.67-.579c.143-.123.362-.093.465.065l.744,1.137c.103.158.322.189.465.065l1.029-.888c.143-.123.361-.093.465.065l.744,1.137c.103.158.322.189.465.065l1.029-.888c.143-.123.361-.093.465.065l.744,1.137c.103.158.322.189.465.065l1.028-.888c.143-.123.361-.093.465.065l.485.741c.158.241.53.158.57-.127l1.939-13.795c.04-.285-.295-.467-.513-.279l-.67.579c-.143.123-.361.093-.465-.065l-.744-1.137c-.103-.158-.322-.189-.465-.065l-1.028.888c-.143.123-.362.093-.465-.065l-.744-1.137c-.103-.158-.322-.189-.465-.065l-1.028.888c-.143.123-.362.093-.465-.065l-.744-1.137c-.103-.158-.322-.189-.465-.065l-1.029.888c-.143.123-.361.093-.465-.065l-.485-.741c-.158-.241-.53-.158-.57.127Z"/>
  <path class="st2" d="M66.261,9.814c.32-.388.887-.468,1.302-.183l.086.067.917.79.372-.567.1-.13c.534-.589,1.564-.308,1.682.528l2.176,15.484c.118.836-.795,1.39-1.471.971l-.132-.097-.515-.444-.662,1.013c-.303.463-.922.576-1.366.271l-.086-.067-.917-.791-.663,1.013c-.303.463-.922.576-1.366.271l-.086-.067-.917-.791-.663,1.013c-.303.463-.922.576-1.366.271l-.086-.067-.917-.791-.372.569c-.493.753-1.657.493-1.782-.398l-2.176-15.485c-.117-.836.795-1.39,1.471-.971l.132.098.513.443.664-1.012.065-.088c.32-.388.887-.468,1.302-.183l.086.067.917.79.663-1.012.065-.088c.32-.388.887-.468,1.302-.183l.086.067.917.79.663-1.012.065-.088ZM62.976,22.584c-.137.019-.232.146-.213.282.019.137.146.232.282.213l5.199-.731c.137-.019.232-.146.213-.282-.019-.137-.146-.232-.282-.213l-5.199.731ZM62.489,19.118c-.137.019-.232.146-.213.282.019.137.146.232.282.213l3.466-.487c.137-.019.232-.146.213-.282-.019-.137-.146-.232-.282-.213l-3.466.487ZM62.002,15.652c-.137.019-.232.146-.213.282.019.137.146.232.282.213l5.199-.731c.137-.019.232-.146.213-.282-.019-.137-.146-.232-.282-.213l-5.199.731Z"/>
</svg>