<?xml version="1.0" encoding="UTF-8"?>
<svg id="Layer_1" xmlns="http://www.w3.org/2000/svg" version="1.1" viewBox="0 0 20 20">
  <!-- Generator: Adobe Illustrator 29.5.1, SVG Export Plug-In . SVG Version: 2.1.0 Build 141)  -->
  <defs>
    <style>
      .st0 {
        fill-rule: evenodd;
      }
    </style>
  </defs>
  <path class="st0" d="M7.34,2.021c.582-.083,1.173.095,1.612.485l6.812,6.055c.825.734.9,1.998.166,2.823l-5.262,5.92c-.764.86-2.095.899-2.909.086L.966,10.597c-.445-.445-.654-1.074-.565-1.697l.646-4.525c.126-.88.817-1.571,1.696-1.697l4.597-.656ZM4.759,4.89c-.828,0-1.5.672-1.5,1.5,0,.828.672,1.5,1.5,1.5.828,0,1.5-.672,1.5-1.5,0-.828-.672-1.5-1.5-1.5Z"/>
  <path d="M11.34,2.02c.582-.083,1.172.095,1.611.485l5.317,4.727c1.651,1.468,1.799,3.995.332,5.646l-3.934,4.426c-.736.828-1.995.893-2.814.171l4.824-5.427.1-.118c.961-1.198.859-2.935-.236-4.012l-.112-.105-6.319-5.617,1.231-.176Z"/>
</svg>