<svg xmlns="http://www.w3.org/2000/svg" fill="none" viewBox="0 0 80 80"><path fill="#002e22" d="M59.267 12.504a33.7 33.7 0 0 0-19.223-6 33.5 33.5 0 0 0-23.706 9.748 33.38 33.38 0 0 0-9.839 23.644c0 7.2 2.211 13.808 6.008 19.2a3.48 3.48 0 0 1-.297 4.504c-1.402 1.304-3.604 1.2-4.71-.304a39.95 39.95 0 0 1-3.079-41.573A40 40 0 0 1 19.176 5.86 40.1 40.1 0 0 1 40.044 0c8.714.008 16.724 2.808 23.428 7.504 1.602 1.2 1.602 3.408.304 4.704a3.486 3.486 0 0 1-4.51.304v-.008Zm-5.11 7.392V28.4H36.239v7.304h14.417V44.2H36.24v7.704h17.822V60.2H25.825V19.896h28.339zM72.979 17.4a3.025 3.025 0 0 0-3.6-1.063c-.42.168-.796.427-1.101.759a3.48 3.48 0 0 0-.4 4.4C71.384 26.8 73.483 33.2 73.483 40s-2.107 13.4-5.807 18.8c-.905 1.4-.905 3.304.304 4.504 1.402 1.4 3.605 1.296 4.702-.304a39.57 39.57 0 0 0 7.313-23c.122-8.085-2.332-16-7.009-22.6zM21.525 67.904c5.31 3.496 11.718 5.6 18.527 5.6 6.912 0 13.416-2.2 18.822-5.8a3.49 3.49 0 0 1 4.51.296c1.401 1.4 1.297 3.6-.305 4.704A40.4 40.4 0 0 1 40.044 80a39.9 39.9 0 0 1-22.628-7c-1.601-1.104-1.706-3.304-.304-4.704 1.105-1.2 3.004-1.296 4.405-.4z"/></svg>