<?xml version="1.0" encoding="utf-8"?>
<!-- Generator: Adobe Illustrator 24.3.0, SVG Export Plug-In . SVG Version: 6.00 Build 0)  -->
<svg version="1.1" id="Layer_1" xmlns="http://www.w3.org/2000/svg" xmlns:xlink="http://www.w3.org/1999/xlink" x="0px" y="0px"
	 viewBox="0 0 20 20" style="enable-background:new 0 0 20 20;" xml:space="preserve">
<path d="M12.5,15c0,0.8-0.5,1.2-1.2,1.2H5c-0.8,0-1.2-0.5-1.2-1.2V8.8C3.8,8,4.2,7.5,5,7.5h1.2V5H5C2.9,5,1.2,6.6,1.2,8.8V15
	c0,2.1,1.6,3.8,3.8,3.8h6.2c2.1,0,3.8-1.6,3.8-3.8v-1.2h-2.5V15z"/>
<path d="M16.9,2.5H9.4C9,2.5,8.8,2.8,8.8,3.1v1.2C8.8,4.8,9,5,9.4,5h3.9L7,11.9c-0.2,0.2-0.2,0.5,0,0.8l1,1c0.2,0.1,0.5,0.1,0.8,0
	L15,6.9v3.9c0,0.2,0.2,0.5,0.6,0.5h1.2c0.4,0,0.6-0.2,0.6-0.6V3.1C17.5,2.8,17.2,2.5,16.9,2.5z"/>
</svg>
