<svg width="52" height="52" viewBox="0 0 52 52" fill="none" xmlns="http://www.w3.org/2000/svg">
<g clip-path="url(#clip0)">
<path d="M17.6801 37.9598H34.32V33.0198H23.764V28.3919H32.76V23.3479H23.764V18.9279H34.32V14.0399H17.6801V37.9598Z" fill="#0B1B34"/>
<path d="M39.1561 42.1199C35.5681 45.0319 30.9922 46.7999 26.0002 46.7999C21.1122 46.7999 16.5882 45.0839 13.0522 42.2759L9.36023 45.9679C13.8842 49.7638 19.7082 51.9998 26.0002 51.9998C32.4482 51.9998 38.3241 49.6598 42.8481 45.8119L39.1561 42.1199Z" fill="#0185FF"/>
<path d="M41.8123 3.50681C41.8768 3.33269 42.123 3.33269 42.1875 3.50681L43.8586 8.02301C43.8789 8.07775 43.922 8.12092 43.9768 8.14117L48.493 9.81232C48.6671 9.87675 48.6671 10.123 48.493 10.1875L43.9768 11.8586C43.922 11.8789 43.8789 11.922 43.8586 11.9768L42.1875 16.493C42.123 16.6671 41.8768 16.6671 41.8123 16.493L40.1412 11.9768C40.1209 11.922 40.0778 11.8789 40.023 11.8586L35.5068 10.1875C35.3327 10.123 35.3327 9.87675 35.5068 9.81232L40.023 8.14117C40.0778 8.12092 40.1209 8.07775 40.1412 8.02301L41.8123 3.50681Z" fill="#FED607"/>
<path d="M5.19998 25.9999C5.19998 31.0959 7.01997 35.7239 10.036 39.3639L6.34398 43.0558C2.39199 38.4799 0 32.4999 0 25.9999C0 11.648 11.648 0 25.9999 0C30.5949 0 34.93 1.19537 38.6929 3.29218L37.7744 5.77451L34.4755 6.99521C31.888 5.84196 29.0265 5.19998 25.9999 5.19998C14.5079 5.19998 5.19998 14.5079 5.19998 25.9999Z" fill="#FED607"/>
<path d="M48.6942 13.3119L46.2254 14.2254L45.0011 17.5342C45.0002 17.5364 44.9994 17.5386 44.9986 17.5408C46.1512 20.1261 46.8001 22.9942 46.8001 25.9999C46.8001 30.9919 45.0321 35.5679 42.1201 39.1559L45.8121 42.8479C49.6601 38.3239 52.0001 32.4479 52.0001 25.9999C52.0001 21.3895 50.7917 17.0537 48.6942 13.3119Z" fill="#03D47C"/>
</g>
<defs>
<clipPath id="clip0">
<rect width="52" height="51.9998" fill="white"/>
</clipPath>
</defs>
</svg>
