<svg fill="#03d47c" style="color:#FFFFFF" viewBox="0 0 40 40" xmlns="http://www.w3.org/2000/svg"><path d="m20 0c11 0 20 9 20 20s-9 20-20 20-20-9-20-20 9-20 20-20z"/><path clip-rule="evenodd" d="m13 12.8c0-1 .8-1.8 1.8-1.8h10.5c1 0 1.8.8 1.8 1.8v14.5c0 1-.8 1.8-1.8 1.8h-3.3v-3.2c0-.4-.4-.8-.8-.8h-2.4c-.4 0-.8.4-.8.8v3.1h-3.2c-1 0-1.8-.8-1.8-1.8zm3.9.2c-.6 0-1 .4-1 1s.4 1 1 1h6.2c.6 0 1-.4 1-1s-.4-1-1-1zm-1 5c0-.6.4-1 1-1h6.2c.6 0 1 .4 1 1s-.4 1-1 1h-6.2c-.6 0-1-.4-1-1zm1 3c-.6 0-1 .4-1 1s.4 1 1 1h6.2c.6 0 1-.4 1-1s-.4-1-1-1z" fill="#fff" fill-rule="evenodd"/><path clip-rule="evenodd" d="m27.9576 6.30479.8416-.50499-.8224.53215c-.0067-.00915-.0131-.01821-.0192-.02716zm1.5092-1.29569c-1.0716-1.36531-3.1954-1.27324-4.1251.27621-.0091.0153-.0179.03084-.0263.04661l-.6617 1.24995-1.5739.22484c-.9414.09705-1.6862.73551-1.9982 1.52593-.3338.84556-.1757 1.86856.6487 2.61046l.014.0124 1.0764.9329-.2079 1.247c-.1763 1.0579.368 1.9006.9864 2.3644.7741.5806 1.7753.5069 2.4714.2285.0192-.0077.0381-.0159.0567-.0248l1.4719-.6972 1.4719.6972c.0187.0089.0376.0171.0567.0248.6962.2784 1.6973.3521 2.4714-.2285.6185-.4638 1.1627-1.3065.9864-2.3644l-.2078-1.247 1.0764-.9329.014-.0124c.8244-.7419.9825-1.7649.6487-2.61046-.312-.79042-1.0568-1.42888-1.9982-1.52593l-1.6273-.23246-.7742-1.19661c-.0228-.05565-.0506-.11059-.084-.16408-.0414-.06613-.0958-.13707-.1664-.20446zm.2859.7907h-.9535l-.6834.68343c.0161.0141.0331.02803.051.04169.0859.06545.2927.19988.5949.19988.1665 0 .3777-.04317.5755-.18387.2014-.14317.3174-.3366.3726-.51316.0252-.08073.0381-.1574.0429-.22797zm-1.754.60354c-.0366-.04534-.0764-.10136-.113-.16774-.2245-.26669-.6197-.24628-.8181.06124l-.8846 1.67085c-.1497.28276-.4256.47682-.7423.52206l-2.1.3c-.017.00242-.0339.0044-.0509.00595-.145.01317-.2881.11976-.3479.27127-.0264.06695-.029.12594-.0182.17466.0095.04265.0377.11703.1389.20984l1.4916 1.29263c.2631.2281.3887.5766.3314.9201l-.3 1.8c-.0142.0855-.0012.1545.0299.22.0346.0732.0972.1507.1837.2156.0065.0048.0512.0335.1601.0386.1017.0049.2246-.0135.3447-.0579l1.8671-.8844c.271-.1284.5853-.1284.8562 0l1.8671.8844c.1202.0444.2431.0628.3448.0579.1089-.0051.1536-.0338.16-.0386.0866-.0649.1491-.1424.1838-.2156.031-.0655.0441-.1345.0298-.22l-.3-1.8c-.0572-.3435.0683-.692.3315-.9201l1.4915-1.29265c.1012-.09279.1294-.16718.1389-.20982.0109-.04872.0083-.10771-.0181-.17466-.0598-.15151-.203-.2581-.3479-.27127-.017-.00155-.034-.00353-.0509-.00595l-2.1-.3c-.2864-.04091-.541-.20382-.6981-.44669z" fill-rule="evenodd"/><path d="m28.7995 5.7998c0-.1-.1-.1 0 0-.6-1-2-1-2.6 0l-.9 1.7-2.1.3c-1.1.1-1.8 1.5-.8 2.4l1.5 1.3-.3 1.8c-.1.6.2 1.1.6 1.4s1 .3 1.5.1l1.9-.9 1.9.9c.5.2 1.1.2 1.5-.1s.7-.8.6-1.4l-.3-1.8 1.5-1.3c1-.9.3-2.3-.8-2.4l-2.1-.3z" fill="#fed607"/></svg>