<svg xmlns="http://www.w3.org/2000/svg" xmlns:xlink="http://www.w3.org/1999/xlink" xml:space="preserve" id="Layer_1" width="80" height="80" x="0" y="0" style="enable-background:new 0 0 80 80" version="1.1">
  <style>
    .st2{fill:#002e22}
  </style>
  <defs>
    <path id="SVGID_1_" d="M0 0h80v80H0z"/>
  </defs>
  <clipPath id="SVGID_00000024711775993299613510000008164662596745180599_">
    <use xlink:href="#SVGID_1_" style="overflow:visible"/>
  </clipPath>
  <g style="clip-path:url(#SVGID_00000024711775993299613510000008164662596745180599_)">
    <defs>
      <path id="SVGID_00000056417918175864889790000003580636569295570879_" d="M0 0h80v80H0z"/>
    </defs>
    <clipPath id="SVGID_00000029738659409910861480000013164532784587167158_">
      <use xlink:href="#SVGID_00000056417918175864889790000003580636569295570879_" style="overflow:visible"/>
    </clipPath>
    <g style="clip-path:url(#SVGID_00000029738659409910861480000013164532784587167158_)">
      <path d="M54.1 28.2v-8.3H25.9v40.3h28.2v-8.3H36.3v-7.7h14.4v-8.5H36.3v-7.3h17.8z" class="st2"/>
      <path d="M40 6.5c7.1 0 13.7 2.2 19.2 6 1.4 1 3.3.9 4.5-.3 1.3-1.3 1.3-3.5-.3-4.7C56.8 2.8 48.7 0 40 0 17.9 0 0 17.9 0 40c0 8.7 2.8 16.8 7.5 23.3 1.1 1.5 3.3 1.6 4.7.3 1.2-1.2 1.3-3.1.3-4.5-3.8-5.4-6-12-6-19.2 0-18.4 15-33.4 33.5-33.4zM73 17.4c-1.1-1.6-3.4-1.7-4.7-.3-1.2 1.2-1.3 3-.4 4.4 3.5 5.3 5.6 11.7 5.6 18.5 0 6.8-2.1 13.4-5.8 18.8-.9 1.4-.9 3.3.3 4.5 1.4 1.4 3.6 1.3 4.7-.3 4.6-6.5 7.3-14.4 7.3-23 0-8.5-2.6-16.2-7-22.6zM40 73.5c-6.8 0-13.2-2.1-18.5-5.6-1.4-.9-3.3-.8-4.4.4-1.4 1.4-1.3 3.6.3 4.7 6.4 4.4 14.2 7 22.6 7 8.4 0 16.4-2.7 23-7.3 1.6-1.1 1.7-3.3.3-4.7-1.2-1.2-3.1-1.3-4.5-.3-5.3 3.6-11.8 5.8-18.8 5.8z" class="st2"/>
    </g>
    <path d="M58 60h12c5.5 0 10 4.5 10 10s-4.5 10-10 10H58c-5.5 0-10-4.5-10-10s4.5-10 10-10z" style="fill:#cf4cd9"/>
    <path d="m56.3 72.5-1.7-4.6h-.9L52 72.5h.9l.4-1H55l.4 1h.9zM54.1 69l.6 1.6h-1.1l.5-1.6zm4.2 3.5c1.4 0 2.4-.9 2.4-2.3s-.9-2.3-2.4-2.3h-1.5v4.6h1.5zm-.7-3.7h.7c.9 0 1.5.5 1.5 1.4 0 .9-.6 1.4-1.5 1.4h-.7v-2.8zm4.7 3.7v-1.9h1.9v1.9h.9v-4.6h-.9v1.8h-1.9v-1.8h-.9v4.6h.9zm5.9.1c1.3 0 2.2-1 2.2-2.4s-.9-2.3-2.2-2.3c-1.3 0-2.2 1-2.2 2.3 0 1.4.8 2.4 2.2 2.4zm0-.8c-.8 0-1.3-.6-1.3-1.5s.5-1.5 1.3-1.5 1.3.6 1.3 1.5-.5 1.5-1.3 1.5zm4.9.8c1.1 0 1.9-.7 2.1-1.7h-.9c-.2.6-.6.9-1.1.9-.8 0-1.3-.6-1.3-1.5s.5-1.5 1.3-1.5c.6 0 1 .3 1.1.9h.9c-.2-1-1-1.7-2.1-1.7-1.3 0-2.2 1-2.2 2.3 0 1.3.9 2.3 2.2 2.3z" style="fill:#fff"/>
  </g>
</svg>
