<svg xmlns="http://www.w3.org/2000/svg" xmlns:xlink="http://www.w3.org/1999/xlink" id="Layer_1" x="0" y="0" version="1.1" viewBox="0 0 80 80" style="enable-background:new 0 0 80 80" xml:space="preserve"><style type="text/css">.st0{fill:#002e22}.st1{fill:#cf4cd9}.st2{fill:#fff}</style><g><g><g><path d="M54.1,28.2v-8.3H25.9v40.3h28.2v-8.3H36.3v-7.7h14.4v-8.5H36.3v-7.3h17.8V28.2z" class="st0"/><path d="M40,6.5c7.1,0,13.7,2.2,19.2,6c1.4,1,3.3,0.9,4.5-0.3c1.3-1.3,1.3-3.5-0.3-4.7C56.8,2.8,48.7,0,40,0 C17.9,0,0,17.9,0,40c0,8.7,2.8,16.8,7.5,23.3c1.1,1.5,3.3,1.6,4.7,0.3c1.2-1.2,1.3-3.1,0.3-4.5c-3.8-5.4-6-12-6-19.2 C6.5,21.5,21.5,6.5,40,6.5z M73,17.4c-1.1-1.6-3.4-1.7-4.7-0.3c-1.2,1.2-1.3,3-0.4,4.4c3.5,5.3,5.6,11.7,5.6,18.5 s-2.1,13.4-5.8,18.8c-0.9,1.4-0.9,3.3,0.3,4.5c1.4,1.4,3.6,1.3,4.7-0.3c4.6-6.5,7.3-14.4,7.3-23C80,31.5,77.4,23.8,73,17.4z M40,73.5c-6.8,0-13.2-2.1-18.5-5.6c-1.4-0.9-3.3-0.8-4.4,0.4c-1.4,1.4-1.3,3.6,0.3,4.7c6.4,4.4,14.2,7,22.6,7s16.4-2.7,23-7.3 c1.6-1.1,1.7-3.3,0.3-4.7c-1.2-1.2-3.1-1.3-4.5-0.3C53.5,71.3,47,73.5,40,73.5z" class="st0"/></g></g><path d="M58,60h12c5.5,0,10,4.5,10,10s-4.5,10-10,10H58c-5.5,0-10-4.5-10-10S52.5,60,58,60z" class="st1"/><path d="M56.3,72.5l-1.7-4.6h-0.9L52,72.5h0.9l0.4-1H55l0.4,1C55.4,72.5,56.3,72.5,56.3,72.5z M54.1,69l0.6,1.6h-1.1 L54.1,69z M58.3,72.5c1.4,0,2.4-0.9,2.4-2.3s-0.9-2.3-2.4-2.3h-1.5v4.6C56.8,72.5,58.3,72.5,58.3,72.5z M57.6,68.8h0.7 c0.9,0,1.5,0.5,1.5,1.4s-0.6,1.4-1.5,1.4h-0.7V68.8z M62.3,72.5v-1.9h1.9v1.9h0.9v-4.6h-0.9v1.8h-1.9v-1.8h-0.9v4.6 C61.4,72.5,62.3,72.5,62.3,72.5z M68.2,72.6c1.3,0,2.2-1,2.2-2.4s-0.9-2.3-2.2-2.3c-1.3,0-2.2,1-2.2,2.3 C66,71.6,66.8,72.6,68.2,72.6z M68.2,71.8c-0.8,0-1.3-0.6-1.3-1.5s0.5-1.5,1.3-1.5s1.3,0.6,1.3,1.5S69,71.8,68.2,71.8z M73.1,72.6 c1.1,0,1.9-0.7,2.1-1.7h-0.9c-0.2,0.6-0.6,0.9-1.1,0.9c-0.8,0-1.3-0.6-1.3-1.5s0.5-1.5,1.3-1.5c0.6,0,1,0.3,1.1,0.9h0.9 c-0.2-1-1-1.7-2.1-1.7c-1.3,0-2.2,1-2.2,2.3S71.8,72.6,73.1,72.6L73.1,72.6z" class="st2"/></g></svg>