<?xml version="1.0" encoding="UTF-8"?>
<svg xmlns="http://www.w3.org/2000/svg" xmlns:xlink="http://www.w3.org/1999/xlink" width="80pt" height="80pt" viewBox="0 0 80 80" version="1.1">
<g id="surface1">
<path style=" stroke:none;fill-rule:nonzero;fill:rgb(4.313725%,10.588235%,20.392157%);fill-opacity:1;" d="M 27.199219 58.398438 L 52.800781 58.398438 L 52.800781 50.800781 L 36.558594 50.800781 L 36.558594 43.679688 L 50.398438 43.679688 L 50.398438 35.917969 L 36.558594 35.917969 L 36.558594 29.121094 L 52.800781 29.121094 L 52.800781 21.601562 L 27.199219 21.601562 Z M 27.199219 58.398438 "/>
<path style=" stroke:none;fill-rule:nonzero;fill:rgb(99.607843%,83.921569%,2.745098%);fill-opacity:1;" d="M 64.328125 5.394531 C 64.425781 5.128906 64.804688 5.128906 64.902344 5.394531 L 67.476562 12.34375 C 67.507812 12.425781 67.574219 12.492188 67.65625 12.523438 L 74.605469 15.097656 C 74.871094 15.195312 74.871094 15.574219 74.605469 15.671875 L 67.65625 18.242188 C 67.574219 18.273438 67.507812 18.339844 67.476562 18.425781 L 64.902344 25.375 C 64.804688 25.640625 64.425781 25.640625 64.328125 25.375 L 61.753906 18.425781 C 61.722656 18.339844 61.65625 18.273438 61.574219 18.242188 L 54.625 15.671875 C 54.359375 15.574219 54.359375 15.195312 54.625 15.097656 L 61.574219 12.523438 C 61.65625 12.492188 61.722656 12.425781 61.753906 12.34375 Z M 64.328125 5.394531 "/>
<path style=" stroke:none;fill-rule:nonzero;fill:rgb(99.607843%,83.921569%,2.745098%);fill-opacity:1;" d="M 8 40 C 8 47.839844 10.800781 54.960938 15.441406 60.558594 L 9.761719 66.238281 C 3.679688 59.199219 0 50 0 40 C 0 17.921875 17.921875 0 40 0 C 47.070312 0 53.738281 1.839844 59.527344 5.066406 L 58.113281 8.882812 L 53.039062 10.761719 C 49.058594 8.988281 44.65625 8 40 8 C 22.320312 8 8 22.320312 8 40 Z M 8 40 "/>
<path style=" stroke:none;fill-rule:nonzero;fill:rgb(1.176471%,83.137255%,48.627451%);fill-opacity:1;" d="M 53.847656 61.539062 L 75.382812 61.539062 C 77.933594 61.539062 80 63.605469 80 66.152344 L 80 75.382812 C 80 77.933594 77.933594 80 75.382812 80 L 53.847656 80 C 51.296875 80 49.230469 77.933594 49.230469 75.382812 L 49.230469 66.152344 C 49.230469 63.605469 51.296875 61.539062 53.847656 61.539062 Z M 53.847656 61.539062 "/>
<path style=" stroke:none;fill-rule:nonzero;fill:rgb(100%,100%,100%);fill-opacity:1;" d="M 58.589844 74.003906 C 60.304688 74.003906 61.265625 73.144531 61.265625 71.898438 C 61.265625 70.773438 60.636719 70.21875 59.476562 69.960938 L 58.523438 69.757812 C 57.832031 69.601562 57.574219 69.386719 57.574219 68.964844 C 57.574219 68.546875 57.96875 68.289062 58.589844 68.289062 C 59.335938 68.289062 59.945312 68.660156 60.277344 69.296875 L 61.292969 68.4375 C 60.832031 67.558594 59.851562 67.136719 58.691406 67.136719 C 57.113281 67.136719 56.132812 67.882812 56.132812 69.082031 C 56.132812 70.179688 56.796875 70.800781 57.941406 71.050781 L 58.820312 71.234375 C 59.484375 71.371094 59.769531 71.558594 59.769531 72.046875 C 59.769531 72.5625 59.273438 72.792969 58.644531 72.792969 C 57.777344 72.792969 57.203125 72.339844 56.863281 71.667969 L 55.707031 72.480469 C 56.160156 73.402344 57.175781 74.003906 58.589844 74.003906 Z M 61.550781 67.292969 L 61.550781 68.527344 L 63.453125 68.527344 L 63.453125 73.847656 L 65.003906 73.847656 L 65.003906 68.527344 L 66.914062 68.527344 L 66.914062 67.292969 Z M 69.800781 74.003906 C 70.789062 74.003906 71.519531 73.585938 71.851562 72.886719 L 71.914062 73.847656 L 73.023438 73.847656 L 73.023438 70.199219 L 69.984375 70.199219 L 69.984375 71.316406 L 71.601562 71.316406 L 71.601562 71.457031 C 71.601562 72.027344 71.148438 72.804688 70.152344 72.804688 C 69.054688 72.804688 68.488281 71.933594 68.488281 70.558594 C 68.488281 69.175781 69.089844 68.308594 70.132812 68.308594 C 70.9375 68.308594 71.34375 68.816406 71.453125 69.433594 L 72.996094 69.148438 C 72.792969 68.058594 71.859375 67.136719 70.140625 67.136719 C 68.128906 67.136719 66.894531 68.519531 66.894531 70.578125 C 66.894531 72.65625 67.992188 74.003906 69.800781 74.003906 Z M 69.800781 74.003906 "/>
<path style=" stroke:none;fill-rule:evenodd;fill:rgb(0.392157%,52.156863%,100%);fill-opacity:1;" d="M 44.617188 71.667969 C 43.109375 71.886719 41.566406 72 40 72 C 32.480469 72 25.519531 69.359375 20.082031 65.039062 L 14.398438 70.71875 C 21.359375 76.558594 30.320312 80 40 80 C 41.914062 80 43.796875 79.867188 45.636719 79.605469 C 44.984375 78.339844 44.617188 76.90625 44.617188 75.382812 Z M 44.617188 71.667969 "/>
<path style=" stroke:none;fill-rule:evenodd;fill:rgb(1.176471%,83.137255%,48.627451%);fill-opacity:1;" d="M 71.117188 21.886719 L 74.914062 20.480469 C 78.140625 26.238281 80 32.90625 80 40 C 80 46.074219 78.648438 51.824219 76.242188 56.960938 C 75.960938 56.9375 75.671875 56.921875 75.382812 56.921875 L 67.164062 56.921875 C 70.21875 52.011719 72 46.214844 72 40 C 72 35.375 71 30.964844 69.230469 26.984375 L 69.230469 26.976562 Z M 71.117188 21.886719 "/>
</g>
</svg>
