<?xml version="1.0" encoding="utf-8"?>
<!-- Generator: Adobe Illustrator 27.3.1, SVG Export Plug-In . SVG Version: 6.00 Build 0)  -->
<svg version="1.1" id="Layer_1" xmlns="http://www.w3.org/2000/svg" xmlns:xlink="http://www.w3.org/1999/xlink" x="0px" y="0px"
	 viewBox="0 0 80 81" style="enable-background:new 0 0 80 81;" xml:space="preserve">
<style type="text/css">
	.st0{clip-path:url(#SVGID_00000155867873058612953140000015119237120475640199_);}
	.st1{clip-path:url(#SVGID_00000165932484536605615620000012610988011729172125_);}
	.st2{fill:#03D47C;}
	.st3{fill:#CF4CD9;}
	.st4{fill:#FFFFFF;}
</style>
<g>
	<defs>
		<rect id="SVGID_1_" width="80" height="80"/>
	</defs>
	<clipPath id="SVGID_00000042018014875499611370000014753425657785366677_">
		<use xlink:href="#SVGID_1_"  style="overflow:visible;"/>
	</clipPath>
	<g style="clip-path:url(#SVGID_00000042018014875499611370000014753425657785366677_);">
		<g>
			<defs>
				<rect id="SVGID_00000157992902090727339880000017179818137624907145_" width="80" height="80"/>
			</defs>
			<clipPath id="SVGID_00000119115249974599184590000012127008977684233661_">
				<use xlink:href="#SVGID_00000157992902090727339880000017179818137624907145_"  style="overflow:visible;"/>
			</clipPath>
			<g style="clip-path:url(#SVGID_00000119115249974599184590000012127008977684233661_);">
				<path class="st2" d="M54.1,28.2v-8.3H25.9v40.3h28.2v-8.3H36.3v-7.7h14.4v-8.5H36.3v-7.3H54.1z"/>
				<path class="st2" d="M40,6.5C40,6.5,40,6.5,40,6.5c7.1,0,13.7,2.2,19.2,6c1.4,1,3.3,0.9,4.5-0.3l0,0c1.3-1.3,1.3-3.5-0.3-4.7
					C56.8,2.8,48.7,0,40,0C17.9,0,0,17.9,0,40c0,8.7,2.8,16.8,7.5,23.3c1.1,1.5,3.3,1.6,4.7,0.3l0,0c1.2-1.2,1.3-3.1,0.3-4.5
					c-3.8-5.4-6-12-6-19.2C6.5,21.5,21.5,6.5,40,6.5C40,6.5,40,6.5,40,6.5L40,6.5z"/>
				<path class="st2" d="M73,17.4c-1.1-1.6-3.4-1.7-4.7-0.3l0,0c-1.2,1.2-1.3,3-0.4,4.4c3.5,5.3,5.6,11.7,5.6,18.5
					c0,6.8-2.1,13.4-5.8,18.8c-0.9,1.4-0.9,3.3,0.3,4.5l0,0c1.4,1.4,3.6,1.3,4.7-0.3c4.6-6.5,7.3-14.4,7.3-23
					C80,31.5,77.4,23.8,73,17.4z"/>
				<path class="st2" d="M40,73.5c-6.8,0-13.2-2.1-18.5-5.6c-1.4-0.9-3.3-0.8-4.4,0.4l0,0c-1.4,1.4-1.3,3.6,0.3,4.7
					c6.4,4.4,14.2,7,22.6,7c8.4,0,16.4-2.7,23-7.3c1.6-1.1,1.7-3.3,0.3-4.7l0,0c-1.2-1.2-3.1-1.3-4.5-0.3C53.5,71.3,47,73.5,40,73.5
					z"/>
			</g>
		</g>
		<path class="st3" d="M58,60h12c5.5,0,10,4.5,10,10l0,0c0,5.5-4.5,10-10,10H58c-5.5,0-10-4.5-10-10l0,0C48,64.5,52.5,60,58,60z"/>
		<path class="st4" d="M56.3,72.5l-1.7-4.6h-0.9L52,72.5h0.9l0.4-1h1.7l0.4,1H56.3z M54.1,69l0.6,1.6h-1.1L54.1,69z M58.3,72.5
			c1.4,0,2.4-0.9,2.4-2.3c0-1.4-0.9-2.3-2.4-2.3h-1.5v4.6H58.3z M57.6,68.8h0.7c0.9,0,1.5,0.5,1.5,1.4c0,0.9-0.6,1.4-1.5,1.4h-0.7
			V68.8z M62.3,72.5v-1.9h1.9v1.9h0.9v-4.6h-0.9v1.8h-1.9v-1.8h-0.9v4.6H62.3z M68.2,72.6c1.3,0,2.2-1,2.2-2.4
			c0-1.4-0.9-2.3-2.2-2.3c-1.3,0-2.2,1-2.2,2.3C66,71.6,66.8,72.6,68.2,72.6z M68.2,71.8c-0.8,0-1.3-0.6-1.3-1.5
			c0-0.9,0.5-1.5,1.3-1.5s1.3,0.6,1.3,1.5C69.5,71.2,69,71.8,68.2,71.8z M73.1,72.6c1.1,0,1.9-0.7,2.1-1.7h-0.9
			c-0.2,0.6-0.6,0.9-1.1,0.9c-0.8,0-1.3-0.6-1.3-1.5c0-0.9,0.5-1.5,1.3-1.5c0.6,0,1,0.3,1.1,0.9h0.9c-0.2-1-1-1.7-2.1-1.7
			c-1.3,0-2.2,1-2.2,2.3C70.9,71.6,71.8,72.6,73.1,72.6z"/>
	</g>
</g>
</svg>
