<?xml version="1.0" encoding="utf-8"?>
<!-- Generator: Adobe Illustrator 26.5.0, SVG Export Plug-In . SVG Version: 6.00 Build 0)  -->
<svg version="1.1" id="Layer_1" xmlns="http://www.w3.org/2000/svg" xmlns:xlink="http://www.w3.org/1999/xlink" x="0px" y="0px"
	 viewBox="0 0 80 81" style="enable-background:new 0 0 80 81;" xml:space="preserve">
<style type="text/css">
	.st0{clip-path:url(#SVGID_00000133515738354390477770000011007628954774516876_);}
	.st1{clip-path:url(#SVGID_00000101801061172099864470000010304357936332209807_);}
	.st2{fill:#03D47C;}
	.st3{fill:#008C59;}
	.st4{fill:#FFFFFF;}
</style>
<g>
	<defs>
		<rect id="SVGID_1_" width="80" height="80"/>
	</defs>
	<clipPath id="SVGID_00000109719144377725207580000013806727012004235438_">
		<use xlink:href="#SVGID_1_"  style="overflow:visible;"/>
	</clipPath>
	<g style="clip-path:url(#SVGID_00000109719144377725207580000013806727012004235438_);">
		<g>
			<defs>
				<rect id="SVGID_00000159430450497752522510000010196965817956746124_" width="80" height="80"/>
			</defs>
			<clipPath id="SVGID_00000039849557488091876660000011033855870603973786_">
				<use xlink:href="#SVGID_00000159430450497752522510000010196965817956746124_"  style="overflow:visible;"/>
			</clipPath>
			<g style="clip-path:url(#SVGID_00000039849557488091876660000011033855870603973786_);">
				<path class="st2" d="M54.1,28.2v-8.3H25.9v40.3h28.2v-8.3H36.3v-7.7h14.4v-8.5H36.3v-7.3H54.1z"/>
				<path class="st2" d="M40,6.5C40,6.5,40,6.5,40,6.5c7.1,0,13.7,2.2,19.2,6c1.4,1,3.3,0.9,4.5-0.3l0,0c1.3-1.3,1.3-3.5-0.3-4.7
					C56.8,2.8,48.7,0,40,0C17.9,0,0,17.9,0,40c0,8.7,2.8,16.8,7.5,23.3c1.1,1.5,3.3,1.6,4.7,0.3l0,0c1.2-1.2,1.3-3.1,0.3-4.5
					c-3.8-5.4-6-12-6-19.2C6.5,21.5,21.5,6.5,40,6.5C40,6.5,40,6.5,40,6.5L40,6.5z"/>
				<path class="st2" d="M73,17.4c-1.1-1.6-3.4-1.7-4.7-0.3l0,0c-1.2,1.2-1.3,3-0.4,4.4c3.5,5.3,5.6,11.7,5.6,18.5
					c0,6.8-2.1,13.4-5.8,18.8c-0.9,1.4-0.9,3.3,0.3,4.5l0,0c1.4,1.4,3.6,1.3,4.7-0.3c4.6-6.5,7.3-14.4,7.3-23
					C80,31.5,77.4,23.8,73,17.4z"/>
				<path class="st2" d="M40,73.5c-6.8,0-13.2-2.1-18.5-5.6c-1.4-0.9-3.3-0.8-4.4,0.4l0,0c-1.4,1.4-1.3,3.6,0.3,4.7
					c6.4,4.4,14.2,7,22.6,7c8.4,0,16.4-2.7,23-7.3c1.6-1.1,1.7-3.3,0.3-4.7l0,0c-1.2-1.2-3.1-1.3-4.5-0.3C53.5,71.3,47,73.5,40,73.5
					z"/>
			</g>
		</g>
		<path class="st3" d="M58,60h12c5.5,0,10,4.5,10,10l0,0c0,5.5-4.5,10-10,10H58c-5.5,0-10-4.5-10-10l0,0C48,64.5,52.5,60,58,60z"/>
		<path class="st4" d="M57.9,73.1c1.5,0,2.5-0.7,2.5-2c0-1-0.5-1.5-2-1.8l-0.8-0.2c-0.8-0.2-1-0.4-1-0.7c0-0.5,0.4-0.7,1.1-0.7
			c0.8,0,1.2,0.3,1.3,1h1.3c-0.1-1.3-0.9-2.1-2.5-2.1c-1.6,0-2.4,0.8-2.4,1.9c0,1,0.5,1.5,1.9,1.8l0.8,0.2c0.8,0.2,1,0.4,1,0.8
			c0,0.5-0.5,0.8-1.3,0.8c-0.9,0-1.4-0.4-1.4-1.1h-1.3C55.3,72.3,56.3,73.1,57.9,73.1z M63.9,73v-5.1h1.8v-1.2h-4.9v1.2h1.8V73H63.9
			z M66,69.8c0,2,1.3,3.3,3.1,3.3c1.7,0,3-1.2,3-3.2v-0.3h-2.9v1.1h1.6C70.5,71.6,70,72,69.2,72c-1.1,0-1.9-0.8-1.9-2.1
			c0-1.3,0.7-2.1,1.8-2.1c0.8,0,1.4,0.4,1.6,1.1H72c-0.3-1.4-1.4-2.2-2.9-2.2C67.3,66.6,66,67.9,66,69.8z"/>
	</g>
</g>
</svg>
