<svg xmlns="http://www.w3.org/2000/svg" width="68" height="68" fill="none" viewBox="0 0 68 68"><path fill="#002140" d="M9.59 63.047h49.492s-.084-24.661-25.52-24.661C10.018 39.672 9.59 63.047 9.59 63.047"/><path fill="#5ab0ff" d="M59.082 63.047s-.73-23.842-24.314-24.617C11.184 37.656 9.595 63.047 9.595 63.047H5s1.674-28.869 30.289-28.869c27.582.646 28.352 29.127 28.352 29.127l-4.554-.258z"/><path stroke="#ff7101" stroke-linecap="round" stroke-linejoin="round" d="M17.974 62.628c0-9.074 7.355-16.433 16.434-16.433 9.078 0 16.433 7.355 16.433 16.433M34.403 46.195v-3.553M18.014 58.88h-3.526m39.612 0h-3.522M23.34 50.46l-2.837-2.836m25.605 2.836 2.836-2.836"/><path fill="#03d47c" d="M44.99 57.419H23.34v3.695h21.65z"/><path fill="#f25730" d="M34.474 55.79a2.021 2.021 0 1 0 0-4.043 2.021 2.021 0 0 0 0 4.043"/><path fill="#f25730" d="m33.633 53.087 9.483-11.131a.35.35 0 0 1 .419-.085l.548.276c.19.094.249.339.124.513l-9.216 12.63"/><path stroke="#002140" stroke-linecap="round" stroke-linejoin="round" d="M63.682 63.256C63.682 47.1 50.583 34 34.426 34 18.268 34 5.17 47.099 5.17 63.256z"/><path stroke="#002140" stroke-linecap="round" stroke-linejoin="round" d="M9.809 63.114c0-13.597 11.02-24.617 24.617-24.617s24.616 11.02 24.616 24.617M27.591 58.75v1.163m4.585-1.163v1.163m4.582-1.163v1.163m4.582-1.163v1.163"/><path fill="#fffaf0" stroke="#002140" stroke-linecap="round" stroke-linejoin="round" d="M59.336 46.997c-3.356 4.045-11.4 4.4-16.716 4.186-5.313-.214-10.396-2.363-14.813-5.266-4.102-2.697-10.752-5.524-15.57-6.589-3.532-.781-6.347-.195-7.772.632 2.463-1.222 7.293-8.063 8.48-19.945 2.387-1.164 7.071-2.038 10.603-1.256 4.819 1.065 8.641 4.516 12.744 7.213 4.416 2.903 9.495 5.048 14.812 5.266 5.313.215 14.226-5.749 14.226-5.749-7.427 8.488-5.99 21.512-5.99 21.512z"/><path stroke="#002140" stroke-linecap="round" stroke-linejoin="round" d="M50.304 41.975a9.8 9.8 0 0 0 1.984-3.325m-8.676 5.968c1.609.215 3.233-.145 4.627-.957M36.46 41.416a12.7 12.7 0 0 0 4.785 2.746m-8.906-7.764c.716 1.065 1.463 2.114 2.29 3.099m-6.247-8.722c.93 1.115 1.762 2.31 2.566 3.52m-8.04-7.113c1.356.142 2.574.816 3.609 1.686m-10.071-.104a8.14 8.14 0 0 1 4.003-1.678m-7.569 7.673a10.9 10.9 0 0 1 1.835-4.195"/><path fill="#03d47c" stroke="#002140" stroke-linejoin="round" d="M23 15c0 7.523-10 20.5-10 20.5S3 22.523 3 15C3 9.477 7.477 5 13 5s10 4.477 10 10Z"/><circle cx="13" cy="15" r="5.5" fill="#fffaf0" stroke="#002140"/></svg>