<?xml version="1.0" encoding="utf-8"?>
<!-- Generator: Adobe Illustrator 26.5.0, SVG Export Plug-In . SVG Version: 6.00 Build 0)  -->
<svg version="1.1" id="Layer_1" xmlns="http://www.w3.org/2000/svg" xmlns:xlink="http://www.w3.org/1999/xlink" x="0px" y="0px"
	 viewBox="0 0 21 20" style="enable-background:new 0 0 21 20;" xml:space="preserve">
<path d="M4.5,1.5C4.2,1.1,3.5,1,3.1,1.4C2.7,1.7,2.6,2.4,3,2.8l11.4,13.3c0.4,0.4,1,0.5,1.4,0.1c0.4-0.4,0.5-1,0.1-1.4L4.5,1.5z"/>
<path d="M1.5,4.7c0.4-0.3,1-0.2,1.3,0.2l8.9,10.3c0.3,0.4,0.3,1,0,1.4l-0.9,1c-0.4,0.5-1.2,0.5-1.6,0L0.2,7c-0.4-0.4-0.3-1,0.1-1.4
	C0.7,5.3,1.1,5,1.5,4.7z"/>
<path d="M16.3,11.1c-0.4,0.5-1.2,0.5-1.6,0L8.3,3.6C7.8,3,8.1,2.1,9,2c3.8-0.3,7.7,0.9,10.7,3.6c0.4,0.4,0.4,1,0.1,1.4L16.3,11.1z"
	/>
</svg>
