<?xml version="1.0" encoding="utf-8"?>
<!-- Generator: Adobe Illustrator 26.5.0, SVG Export Plug-In . SVG Version: 6.00 Build 0)  -->
<svg version="1.1" id="Layer_1" xmlns="http://www.w3.org/2000/svg" xmlns:xlink="http://www.w3.org/1999/xlink" x="0px" y="0px"
	 viewBox="0 0 20 20" style="enable-background:new 0 0 20 20;" xml:space="preserve">
<path d="M3.8,2.3c-0.4-0.4-1-0.5-1.4-0.1c-0.4,0.4-0.5,1-0.1,1.4l12,14c0.4,0.4,1,0.5,1.4,0.1c0.4-0.4,0.5-1,0.1-1.4L3.8,2.3z"/>
<path d="M0,10c0-1.7,0.8-3.2,2.1-4.1l7.9,9.1H5C2.2,15,0,12.8,0,10z"/>
<path d="M20,11c0,2-1.4,3.6-3.3,3.9L6.3,3.1C7.2,2.4,8.3,2,9.5,2c2.9,0,5.3,2.3,5.5,5.1C15.3,7,15.7,7,16,7C18.2,7,20,8.8,20,11z"/>
</svg>
