<?xml version="1.0" encoding="utf-8"?>
<!-- Generator: Adobe Illustrator 26.5.0, SVG Export Plug-In . SVG Version: 6.00 Build 0)  -->
<svg version="1.1" id="Layer_1" xmlns="http://www.w3.org/2000/svg" xmlns:xlink="http://www.w3.org/1999/xlink" x="0px" y="0px"
	 viewBox="0 0 20 20" style="enable-background:new 0 0 20 20;" xml:space="preserve">
<style type="text/css">
	.st0{fill-rule:evenodd;clip-rule:evenodd;}
</style>
<path class="st0" d="M10,2C7.2,2,5,4.2,5,7l0,8c0,0.6-0.4,1-1,1c-0.6,0-1-0.4-1-1l0-8c0-3.9,3.1-7,7-7c3.9,0,7,3.1,7,7l0,8
	c0,2.8-2.2,5-5,5c-2.8,0-5-2.2-5-5V7c0-1.7,1.3-3,3-3c1.7,0,3,1.3,3,3v8c0,0.6-0.4,1-1,1c-0.6,0-1-0.4-1-1V7c0-0.6-0.5-1-1-1
	C9.4,6,9,6.5,9,7v8c0,1.7,1.3,3,3,3c1.7,0,3-1.3,3-3l0-8C15,4.2,12.8,2,10,2z"/>
</svg>
