<svg id="Layer_1" data-name="Layer 1" xmlns="http://www.w3.org/2000/svg" viewBox="0 0 16 16">
    <title>paper-clip</title>
    <path d="M5.12,14.56a2.5,2.5,0,0,1-1.77-4.27L8.66,5a1.5,1.5,0,1,1,2.12,2.12l-4.6,4.6A.5.5,0,1,1,5.47,11l4.6-4.59a.49.49,0,0,0,.15-.36.47.47,0,0,0-.15-.35.5.5,0,0,0-.71,0L4.06,11a1.51,1.51,0,0,0,0,2.12,1.53,1.53,0,0,0,2.12,0l6-6a2.5,2.5,0,0,0,0-3.53,2.54,2.54,0,0,0-3.53,0L3.35,8.88a.48.48,0,0,1-.7,0,.5.5,0,0,1,0-.71L8,2.87a3.59,3.59,0,0,1,5,0,3.51,3.51,0,0,1,0,5l-6,6A2.49,2.49,0,0,1,5.12,14.56Z"/>
</svg>
