<svg xmlns="http://www.w3.org/2000/svg" xml:space="preserve" id="Layer_1" x="0" y="0" viewBox="0 0 20 20"><style>.st0{fill-rule:evenodd;clip-rule:evenodd}</style><path d="M4.2 7.8c-.6.1-.8.3-.8.7s.2.6.8.8zm1.6 3.6c0-.4-.2-.6-.9-.8v1.6c.6-.1.9-.3.9-.8"/><path d="M1.5 4C.7 4 0 4.7 0 5.5v9c0 .8.7 1.5 1.5 1.5h17c.8 0 1.5-.7 1.5-1.5v-9c0-.8-.7-1.5-1.5-1.5zm3.6 5.5c1.3.3 1.9.8 1.9 1.8 0 1.2-.9 1.9-2.1 2v.7h-.7v-.8c-1.4-.1-2.2-.8-2.2-2.1h1.2c0 .6.3.9.9 1v-1.8H4c-1.3-.3-1.9-.8-1.9-1.8s.7-1.8 2-1.9V6h.7v.8c1.3.1 1.9.9 2 2H5.7c0-.5-.3-.8-.7-.9v1.6zM10 7c-.6 0-1 .4-1 1s.4 1 1 1h7c.6 0 1-.4 1-1s-.4-1-1-1zm-1 5c0-.6.4-1 1-1h5c.6 0 1 .4 1 1s-.4 1-1 1h-5c-.6 0-1-.4-1-1" class="st0"/></svg>