<svg xmlns="http://www.w3.org/2000/svg" viewBox="0 0 20 20"><path d="M4.16 7.8c-.52.05-.8.29-.8.7 0 .35.17.58.8.75zM5.8 11.41c0-.4-.2-.63-.9-.81v1.61c.57-.06.9-.33.9-.8"/><path fill-rule="evenodd" d="M1.5 4C.67 4 0 4.67 0 5.5v9c0 .83.67 1.5 1.5 1.5h17c.83 0 1.5-.67 1.5-1.5v-9c0-.83-.67-1.5-1.5-1.5zm3.64 5.47c1.3.31 1.86.83 1.86 1.82 0 1.22-.86 1.86-2.1 1.96v.74h-.74v-.75c-1.34-.12-2.14-.84-2.17-2.1h1.22c.02.59.32.94.95 1.04v-1.76l-.14-.03c-1.3-.31-1.86-.81-1.86-1.81s.65-1.76 1.99-1.85v-.74h.75v.76c1.26.14 1.91.86 1.97 1.98H5.65c-.03-.48-.27-.8-.75-.91v1.59l.23.05ZM10 7c-.55 0-1 .45-1 1s.45 1 1 1h7c.55 0 1-.45 1-1s-.45-1-1-1zm-1 5c0-.55.45-1 1-1h5c.55 0 1 .45 1 1s-.45 1-1 1h-5c-.55 0-1-.45-1-1"/></svg>