<?xml version="1.0" encoding="UTF-8"?>
<svg id="Layer_1" xmlns="http://www.w3.org/2000/svg" version="1.1" viewBox="0 0 20 20">
  <!-- Generator: Adobe Illustrator 30.3.0, SVG Export Plug-In . SVG Version: 2.1.3 Build 182)  -->
  <path d="M4.16,7.8c-.52.05-.8.29-.8.7,0,.35.17.58.8.75v-1.45Z"/>
  <path d="M5.8,11.41c0-.4-.2-.63-.9-.81v1.61c.57-.06.9-.33.9-.8Z"/>
  <path d="M1.5,4c-.83,0-1.5.67-1.5,1.5v9c0,.83.67,1.5,1.5,1.5h17c.83,0,1.5-.67,1.5-1.5V5.5c0-.83-.67-1.5-1.5-1.5H1.5ZM5.14,9.47c1.3.31,1.86.83,1.86,1.82,0,1.22-.86,1.86-2.1,1.96v.74h-.74v-.75c-1.34-.12-2.14-.84-2.17-2.1h1.22c.02.59.32.94.95,1.04v-1.76l-.14-.03c-1.3-.31-1.86-.81-1.86-1.81s.65-1.76,1.99-1.85v-.74h.75v.76c1.26.14,1.91.86,1.97,1.98h-1.22c-.03-.48-.27-.8-.75-.91v1.59l.23.05ZM10,7c-.55,0-1,.45-1,1s.45,1,1,1h7c.55,0,1-.45,1-1s-.45-1-1-1h-7ZM9,12c0-.55.45-1,1-1h5c.55,0,1,.45,1,1s-.45,1-1,1h-5c-.55,0-1-.45-1-1Z" fill-rule="evenodd"/>
</svg>