<svg xmlns="http://www.w3.org/2000/svg" viewBox="0 0 191 168" fill="none">
<path d="M189.837 143.769C191.108 145.975 190.198 148.115 189.065 150.877C188.697 151.414 187.903 152.169 186.24 152.616C184.757 153.013 168.946 157.475 164.302 158.222C159.658 158.971 158.496 158.222 156.544 154.242C156.188 153.519 155.512 151.952 154.668 149.934L154.629 149.839L154.826 149.743C155.083 149.616 155.199 149.29 155.08 149.015L153.138 144.413C153.022 144.135 152.719 144.013 152.46 144.137L152.23 144.251L152.168 143.859C151.342 141.831 150.493 139.731 149.701 137.767L149.548 137.401L149.73 137.314C149.989 137.187 150.103 136.861 149.987 136.586L148.045 131.983C147.926 131.705 147.623 131.584 147.366 131.708L147.295 131.742L147.152 131.411C146.809 130.554 146.537 129.873 146.36 129.431C145.192 126.507 144.635 124.807 145.168 122.943C145.303 122.602 145.446 122.231 145.602 121.829C145.994 120.812 146.394 119.983 146.846 119.292C147.576 118.177 148.437 117.436 149.607 116.88C149.948 116.718 150.313 116.572 150.71 116.44C148.963 117.361 148.112 119.639 148.923 121.659L160.058 149.449C161.208 152.309 164.142 153.829 166.95 153.024L187.372 147.863C189.092 147.371 190.082 145.549 189.771 143.785L189.837 143.769Z" fill="#FF7101"/>
<path d="M150.71 116.44C150.979 116.297 151.27 116.186 151.579 116.114L166.316 112.669L169.869 111.84L171.022 111.57C173.119 111.08 175.261 112.166 176.238 114.213L189.462 142.819C189.613 143.134 189.714 143.457 189.771 143.785C190.082 145.549 189.092 147.371 187.372 147.863L166.95 153.024C164.142 153.829 161.208 152.309 160.058 149.449L148.923 121.659C148.112 119.639 148.963 117.361 150.71 116.44ZM178.612 138.529C180.488 138.031 181.475 135.82 180.658 133.94L173.682 117.51C172.944 115.815 171.209 114.901 169.509 115.309L157.163 118.27C154.853 118.823 153.605 121.521 154.587 123.833L160.82 138.484C161.755 140.682 164.016 141.852 166.202 141.275L178.612 138.529Z" fill="#FFA75A"/>
<path d="M186.24 152.616C187.903 152.169 188.698 151.414 189.065 150.877C188.823 151.467 188.572 152.087 188.33 152.741C187.4 155.238 187.279 156.037 186.356 156.977L186.279 157.015C185.958 156.239 185.45 155.521 184.742 154.97L181.045 155.789L180.794 155.844L178.24 160.213L178.077 160.454C178.082 160.473 178.087 160.491 178.094 160.507L178.064 160.518C176.52 160.939 175.18 161.323 173.457 161.765L172.976 161.858C172.776 160.621 172.186 159.414 171.142 158.598L167.446 159.414L167.194 159.469L164.517 163.904C164.472 163.912 164.43 163.923 164.388 163.931C163.51 164.108 162.861 164.188 162.281 164.27C157.869 164.895 156.127 163.523 154.732 160.907C153.338 158.288 145.95 140.769 143.86 135.537C141.77 130.302 142.759 129.182 143.226 127.81C143.638 126.592 144.094 125.668 145.168 122.943C144.635 124.808 145.192 126.507 146.36 129.431C146.537 129.873 146.809 130.554 147.152 131.411L147.295 131.742L147.137 131.822C146.878 131.946 146.764 132.272 146.88 132.547L148.822 137.15C148.938 137.428 149.242 137.549 149.501 137.425L149.548 137.401L149.701 137.767C150.493 139.731 151.342 141.831 152.169 143.86L152.23 144.251C151.974 144.376 151.858 144.702 151.976 144.977L153.918 149.579C154.034 149.857 154.338 149.979 154.597 149.854L154.629 149.839L154.668 149.934C155.512 151.952 156.188 153.519 156.544 154.242C158.496 158.222 159.658 158.971 164.302 158.222C168.946 157.475 184.757 153.013 186.24 152.616Z" fill="#FF7101"/>
<path d="M186.279 157.014C187.128 159.043 186.718 161.482 185.322 162.482C184.478 163.086 182.504 163.952 180.771 163.486C183.957 163.121 183.824 158.786 181.08 155.968L181.045 155.788L184.742 154.97C185.45 155.521 185.958 156.239 186.279 157.014Z" fill="#B0D9FF"/>
<path d="M181.08 155.969C183.824 158.786 183.957 163.121 180.771 163.486C179.658 163.184 178.647 162.332 178.096 160.507C178.089 160.491 178.084 160.473 178.079 160.454L178.242 160.213L180.796 155.844L181.048 155.789L181.082 155.969H181.08Z" fill="#002140"/>
<path d="M161.504 134.282L162.256 136.098C163.046 137.994 165.025 139.024 166.947 138.542L168.139 138.243L172.495 137.15L175.698 136.347C177.507 135.892 178.484 133.845 177.746 132.06L175.737 127.291L173.529 122.054L172.648 119.964C172.063 118.55 170.609 117.761 169.168 118.071L167.431 118.474L163.929 119.284L159.364 120.34C157.652 120.706 156.697 122.694 157.395 124.371L159.391 129.187L161.504 134.282ZM180.658 133.94C181.475 135.82 180.488 138.031 178.612 138.529L166.202 141.275C164.016 141.852 161.755 140.682 160.82 138.484L154.587 123.833C153.605 121.521 154.853 118.823 157.163 118.27L169.509 115.309C171.209 114.902 172.944 115.815 173.682 117.51L180.658 133.94Z" fill="#FFC68C"/>
<path d="M177.746 132.06C178.484 133.845 177.506 135.892 175.698 136.347L172.495 137.149L172.475 137.054L175.678 127.32L175.737 127.291L177.746 132.06Z" fill="#002140"/>
<path d="M175.737 127.291L175.678 127.32L172.475 137.054L172.495 137.15L168.139 138.243L168.122 138.161L173.465 122.085L173.529 122.054L175.737 127.291Z" fill="#FFFAF0"/>
<path d="M172.648 119.964L173.529 122.053L173.464 122.085L168.122 138.161L168.139 138.243L166.947 138.542C165.025 139.024 163.046 137.994 162.256 136.098L161.504 134.282L167.48 118.722L167.431 118.473L169.168 118.071C170.609 117.761 172.063 118.55 172.648 119.964Z" fill="#002140"/>
<path d="M172.976 161.857C173.265 163.642 172.741 165.49 171.599 166.306C170.772 166.899 168.882 167.672 167.192 167.209V167.196C170.212 167.071 170.269 162.458 167.48 159.593L167.446 159.413L171.142 158.598C172.186 159.413 172.776 160.621 172.976 161.857Z" fill="#B0D9FF"/>
<path d="M169.748 111.244L169.869 111.84L166.316 112.669L166.21 112.142C166.21 112.142 163.887 105.763 163.424 104.392C162.96 103.02 162.2 101.153 160.692 101.526L160.371 101.492C160.566 100.213 160.354 98.5395 159.826 96.874L160.218 96.731C162.659 96.1087 164.47 96.9878 165.807 100.404C167.078 103.645 169.748 111.244 169.748 111.244Z" fill="#F25730"/>
<path d="M167.48 159.594C170.269 162.459 170.212 167.071 167.194 167.196V167.209C166.037 166.894 164.978 165.999 164.413 164.079L164.388 163.931C164.43 163.923 164.472 163.912 164.517 163.905L167.194 159.469L167.446 159.414L167.48 159.594Z" fill="#002140"/>
<path d="M167.431 118.474L167.48 118.723L161.504 134.282L159.391 129.187L159.646 129.065L163.942 119.345L163.929 119.284L167.431 118.474Z" fill="#FFFAF0"/>
<path d="M163.929 119.284L163.942 119.345L159.646 129.065L159.391 129.187L157.395 124.37C156.697 122.694 157.652 120.706 159.364 120.34L163.929 119.284Z" fill="#002140"/>
<path d="M152.6 105.305C151.611 106.137 150.244 106.068 149.303 105.165C148.968 104.847 148.686 104.421 148.496 103.894L147.976 103.597C149.025 103.29 149.896 103.168 150.651 103.012L150.814 102.845C151.509 100.354 150.123 98.4259 150.123 98.4259C150.123 98.4259 147.968 98.7277 145.513 99.4215L145.478 99.2838C144.783 97.5388 144.728 95.7276 146.004 94.2315C146.002 94.2236 145.999 94.2183 145.997 94.2103L146.29 94.0806C146.717 93.6675 147.243 93.2465 147.801 92.8811C148.38 92.4997 148.997 92.1767 149.575 91.986L149.646 91.851C150.137 92.1396 150.7 92.3038 151.3 92.3038C152.664 92.3038 153.844 91.4512 154.402 90.2119L154.478 90.249C156.931 90.9348 158.883 93.8979 159.826 96.8742C160.354 98.5397 160.566 100.213 160.371 101.492C160.159 102.904 159.453 103.841 158.135 103.769L158.029 103.701C157.681 104.31 157.126 104.717 156.277 104.773C156.065 104.789 155.833 104.781 155.581 104.749L155.448 104.701C154.893 105.39 154.036 105.694 152.795 105.39L152.6 105.305Z" fill="#A65E3A"/>
<path d="M155.327 105.687C154.3 106.32 146.475 107.948 146.475 107.948L146.443 107.961C146.16 107.127 145.997 106.476 145.94 105.957L149.271 105.205L149.303 105.165C150.244 106.068 151.611 106.137 152.6 105.305L152.795 105.39C154.036 105.695 154.893 105.39 155.448 104.702L155.581 104.749C155.833 104.781 156.065 104.789 156.277 104.773C156.188 104.948 155.956 105.266 155.349 105.673C155.342 105.679 155.334 105.684 155.327 105.687Z" fill="#FFD7B0"/>
<path d="M155.327 105.687C156.247 109.031 155.961 111.131 153.955 111.994C152.213 112.741 148.731 113.869 148.731 113.869L148.635 113.906C148.21 112.667 147.628 111.049 146.873 109.126C146.707 108.703 146.564 108.316 146.443 107.961L146.475 107.948C146.475 107.948 154.3 106.319 155.327 105.687Z" fill="#FF7101"/>
<path d="M154.74 88.6126C154.74 89.1872 154.619 89.7274 154.402 90.212C153.844 91.4512 152.664 92.3039 151.3 92.3039C150.7 92.3039 150.138 92.1397 149.646 91.8511C148.58 91.2208 147.86 90.0081 147.86 88.6126C147.86 88.4511 147.87 88.2949 147.889 88.1386C148.104 86.3248 149.55 84.9214 151.3 84.9214C151.776 84.9214 152.228 85.0247 152.64 85.21C153.874 85.7714 154.74 87.0848 154.74 88.6126ZM153.484 88.655C153.484 87.3601 152.507 86.3142 151.302 86.3142C150.098 86.3142 149.118 87.3601 149.118 88.655C149.118 89.9498 150.096 90.9958 151.302 90.9958C152.509 90.9958 153.484 89.9472 153.484 88.655Z" fill="#FED607"/>
<path d="M151.302 86.314C152.507 86.314 153.484 87.3599 153.484 88.6548C153.484 89.9496 152.507 90.9955 151.302 90.9955C150.098 90.9955 149.118 89.9469 149.118 88.6548C149.118 87.3626 150.096 86.314 151.302 86.314Z" fill="#FED607"/>
<path d="M152.795 85.2022L152.64 85.2102C152.228 85.0248 151.776 84.9215 151.3 84.9215C149.55 84.9215 148.104 86.3249 147.889 88.1388L147.598 88.0991C146.927 88.3135 146.288 88.6207 145.738 88.9755C145.074 89.3992 144.533 89.8891 144.2 90.3551L144.119 90.4134C142.962 88.5333 141.375 86.4944 139.29 84.4767C137.858 83.0891 136.195 81.7149 134.273 80.4068V80.4015C133.695 75.1665 137.35 69.7514 141.878 69.3781L141.945 69.3013C146.93 74.3165 151.322 80.2082 152.795 85.2022Z" fill="#A65E3A"/>
<path d="M145.94 105.957C145.997 106.476 146.16 107.127 146.444 107.961C146.564 108.316 146.708 108.702 146.873 109.126C147.628 111.049 148.21 112.666 148.635 113.906C149.262 115.727 149.55 116.744 149.55 116.744L149.607 116.879C148.437 117.435 147.576 118.177 146.846 119.292L146.592 119.112C146.592 119.112 146.147 117.713 145.148 115.116C144.566 113.599 143.793 111.671 142.809 109.375C142.732 109.2 142.661 109.026 142.594 108.856C142.268 108.048 142.021 107.307 141.844 106.624C140.728 102.347 142.33 100.404 144.667 99.673C144.951 99.5829 145.234 99.5008 145.513 99.4214C147.969 98.7276 150.123 98.4258 150.123 98.4258C150.123 98.4258 151.51 100.353 150.814 102.845L150.651 103.012C149.896 103.168 149.025 103.29 147.976 103.597C147.734 103.669 147.482 103.748 147.221 103.843C146.32 104.167 145.78 104.603 145.94 105.957Z" fill="#F25730"/>
<path d="M149.646 91.8513L149.575 91.9863C148.997 92.177 148.38 92.5 147.801 92.8813L147.685 92.6801L145.77 89.0338L145.738 88.9756C146.288 88.6208 146.927 88.3136 147.598 88.0991L147.889 88.1388C147.87 88.2951 147.86 88.4513 147.86 88.6128C147.86 90.0083 148.58 91.221 149.646 91.8513Z" fill="#FED607"/>
<path d="M149.303 105.165L149.271 105.204L145.94 105.956C145.78 104.603 146.32 104.166 147.221 103.843C147.482 103.748 147.734 103.669 147.976 103.597L148.496 103.894C148.686 104.421 148.968 104.847 149.303 105.165Z" fill="#FFA75A"/>
<path d="M147.685 92.6801L147.801 92.8813C147.243 93.2467 146.717 93.6678 146.29 94.0808L145.997 94.2106C145.582 93.0773 144.965 91.7877 144.119 90.4134L144.2 90.3552C144.533 89.8891 145.074 89.3993 145.738 88.9756L145.77 89.0338L147.685 92.6801Z" fill="#FED607"/>
<path d="M145.997 94.2104C145.997 94.2104 146.002 94.2237 146.004 94.2316C144.728 95.7277 144.783 97.5389 145.479 99.2839L145.513 99.4216C145.234 99.501 144.95 99.5831 144.667 99.6731C142.33 100.404 140.728 102.348 141.844 106.624C141.594 106.693 140.163 107.05 136.296 107.426C129.819 108.051 129.33 98.5345 128.75 95.6694C128.168 92.8044 127.479 88.0672 123.415 88.1916L123.255 88.2181C123.232 88.0566 123.208 87.8924 123.186 87.7309L123.415 87.6938C124.701 87.0451 129.582 85.8138 133.757 85.1041C135.993 84.7228 138.026 84.4925 139.201 84.5798L139.29 84.4766C141.375 86.4943 142.961 88.5332 144.119 90.4133C144.965 91.7876 145.582 93.0771 145.997 94.2104Z" fill="#FFA75A"/>
<path d="M145.148 115.116L145.071 115.15H145.069C144.852 115.232 133.177 118.254 127.247 118.283V118.256C127.615 118.222 128.002 118.169 128.407 118.097C134.098 117.102 136.886 113.736 136.77 110L136.75 109.846C140.166 109.37 142.438 108.927 142.438 108.927L142.594 108.856C142.66 109.025 142.732 109.2 142.808 109.375C143.793 111.671 144.565 113.598 145.148 115.116Z" fill="#FF7101"/>
<path d="M142.594 108.856L142.438 108.927C142.438 108.927 140.166 109.37 136.75 109.846C136.383 109.897 136 109.95 135.608 110C135.22 110.05 134.845 110.061 134.48 110.032C130.354 109.722 127.655 104.68 127.015 100.902C126.317 96.7893 125.273 91.4325 123.763 90.6857L123.659 90.7069C123.514 89.8887 123.378 89.0572 123.255 88.2178L123.415 88.1914C127.479 88.0669 128.168 92.8041 128.75 95.6692C129.33 98.5343 129.819 108.051 136.296 107.426C140.163 107.05 141.594 106.693 141.844 106.624C142.021 107.307 142.268 108.048 142.594 108.856Z" fill="#FFC68C"/>
<path d="M123.388 70.2651C124.153 66.3938 125.5 62.4933 127.657 58.6538L127.867 58.7862C128.412 59.0113 128.987 59.2893 129.589 59.6097C133.224 61.5454 137.792 65.1201 141.945 69.3012L141.878 69.378C137.35 69.7514 133.695 75.1664 134.275 80.4014V80.4067C133.954 80.1896 133.626 79.9751 133.293 79.7606C133.752 81.8551 133.964 83.5895 133.735 84.9532L133.757 85.1042C129.582 85.8138 124.701 87.0451 123.415 87.6939L123.186 87.7309C122.507 82.8878 122.263 77.7429 123.005 72.5158C123.111 71.7665 123.237 71.0171 123.388 70.2651Z" fill="#BF3013"/>
<path d="M136.77 110C136.886 113.737 134.098 117.102 128.407 118.098C128.002 118.169 127.615 118.222 127.245 118.257C122.383 118.746 120.279 116.472 120.279 114.735L120.338 114.494C121.905 116.064 124.804 116.89 129.105 115.855C134.796 114.486 134.445 110.623 134.445 110.623L134.48 110.032C134.845 110.061 135.22 110.051 135.608 110C136 109.95 136.383 109.897 136.75 109.847L136.77 110Z" fill="#FFC68C"/>
<path d="M123.504 19.0271C121.463 14.8301 112.807 12.0074 106.228 14.6739C101.001 16.7923 99.4935 20.2796 98.9111 25.3902C98.8963 25.5279 98.879 25.6629 98.8568 25.7926L98.6791 25.7635C97.8722 24.5825 95.9696 24.2409 94.3212 24.9453L94.2669 24.5905C94.151 24.2171 93.7956 23.1553 94.1436 21.6592C94.4915 20.1631 95.7772 19.5329 95.7772 19.5329C95.7772 19.5329 93.46 15.2882 95.8931 12.1822C98.3312 9.06555 101.12 10.3127 101.12 10.3127C101.12 10.3127 100.752 5.88802 104.949 3.70875C108.55 1.8393 110.872 3.95766 110.872 3.95766C110.872 3.95766 112.15 0.467665 116.098 0.592118C120.627 0.735108 121.093 4.95329 121.093 4.95329C121.093 4.95329 124.111 3.83321 126.549 5.4511C128.99 7.07165 128.639 11.6817 128.639 11.6817C128.639 11.6817 131.082 12.1531 132.124 14.3005C133.518 17.1656 131.776 19.7818 131.776 19.7818C131.776 19.7818 134.744 21.646 134.912 24.8923C135.144 29.378 131.892 31.6208 131.892 31.6208L131.857 31.6552C130.443 30.0108 127.704 29.8784 125.629 32.2033C125.629 32.2033 124.126 31.2474 123.662 29.7513C123.198 28.2552 123.546 26.7591 123.546 26.7591C123.546 26.7591 121.688 25.6391 121.572 23.1473C121.456 20.6556 123.492 19.0351 123.492 19.0351L123.504 19.0271Z" fill="#002140"/>
<path d="M119.812 113.866C119.381 113.26 119.112 112.577 119.003 111.87C118.751 110.257 117.826 106.108 117.389 101.884C117.219 100.235 117.125 98.5743 117.172 97.0517C117.231 95.2352 117.493 93.6147 118.073 92.4284L118.137 92.4151C118.559 94.8009 118.986 96.4797 119.181 97.1576C119.699 100.28 125.041 100.404 124.745 96.0667C124.358 94.3429 123.983 92.5528 123.659 90.7072L123.763 90.686C125.273 91.4328 126.317 96.7896 127.016 100.902C127.655 104.68 130.354 109.722 134.48 110.032L134.446 110.622C134.446 110.622 134.796 114.486 129.106 115.855C124.804 116.89 121.905 116.064 120.338 114.494C120.143 114.295 119.965 114.086 119.812 113.866Z" fill="#FF7101"/>
<path d="M127.324 35.6062L127.309 35.6088C127.309 35.6088 127.314 35.6088 127.324 35.6062ZM101.773 28.8804C102.714 30.3844 104.36 31.3483 106.519 31.3086L106.583 31.3748C107.331 30.538 108.31 29.8601 109.189 29.5636L109.623 29.553C109.719 29.8548 109.835 30.1488 109.974 30.4268C110.911 32.3677 112.723 33.6811 114.803 33.6811C117.722 33.6811 120.111 31.0941 120.303 27.8212C120.313 27.6782 120.318 27.5326 120.318 27.3869C120.318 23.9128 117.85 21.0954 114.803 21.0954C113.157 21.0954 111.679 21.9189 110.672 23.2244L110.583 23.1476C110.011 20.9339 108.165 19.782 106.122 19.782C103.943 19.782 102.075 21.2622 101.287 23.37C101.028 24.0585 100.885 24.8158 100.885 25.6102C100.885 26.8335 101.196 27.9589 101.773 28.8804ZM105.537 34.8674L105.241 34.8595C98.3311 34.6741 93.5117 40.8412 93.6277 46.5104L93.6203 46.5184C92.5518 43.7883 92.4432 40.7723 93.2847 37.6451C93.7067 36.0775 94.1657 34.8515 94.6345 33.8506C96.4063 30.0587 98.3138 29.4974 98.8567 25.7929C98.8789 25.6631 98.8962 25.5281 98.911 25.3904C99.4934 20.2799 101.001 16.7925 106.228 14.6741C112.806 12.0077 121.463 14.8304 123.504 19.0274L123.492 19.0353C123.492 19.0353 121.456 20.6559 121.572 23.1476C121.688 25.6393 123.546 26.7594 123.546 26.7594C123.546 26.7594 123.198 28.2555 123.662 29.7516C124.126 31.2477 125.629 32.2036 125.629 32.2036C127.704 29.8787 130.443 30.0111 131.857 31.6554C132.178 32.0288 132.432 32.479 132.592 32.9953C133.708 36.578 131.442 39.8058 127.714 39.2365C128.34 45.3374 126.633 49.6059 123.775 52.4312C121.596 54.5893 118.751 55.9054 115.763 56.5515L115.75 56.48C123.24 50.9352 118.248 38.8473 113.137 36.7925L113.088 36.766C112.964 37.1023 112.646 37.4465 111.859 37.4783C110.176 37.5445 110.001 36.1066 110.001 36.1066C110.001 36.1066 106.808 37.4783 105.589 34.9839C105.569 34.9442 105.552 34.9071 105.537 34.8674Z" fill="#A65E3A"/>
<path d="M129.624 59.5328L129.589 59.6096C128.987 59.2892 128.412 59.0111 127.867 58.786L127.657 58.6537C127.931 58.1664 128.217 57.6819 128.516 57.1973L128.651 56.9404C128.809 57.0331 128.925 57.1205 128.982 57.1973C129.446 57.8195 129.624 59.5328 129.624 59.5328Z" fill="#002140"/>
<path d="M128.651 56.9406L128.516 57.1975C128.217 57.682 127.931 58.1666 127.657 58.6538C125.5 62.4934 124.153 66.3938 123.388 70.2651L117.934 70.2995L117.816 70.2757C118.818 64.6594 120.896 60.0996 122.263 57.7297C122.793 56.8135 123.215 56.223 123.43 56.0271C124.143 55.373 127.516 56.2866 128.651 56.9406Z" fill="#F25730"/>
<path d="M124.807 154.237C125.505 153.114 127.015 153.985 126.433 155.73C125.693 157.957 121.678 165.244 117.949 166.711C114.82 167.942 106.312 167.262 104.453 166.886C102.674 166.528 102.492 164.738 104.318 164.479C108.821 165.432 114.556 165.652 117.599 164.254C118.107 164.021 118.541 163.743 118.88 163.414C120.33 162.014 122.011 159.699 123.294 157.401C123.906 156.307 124.427 155.216 124.79 154.229L124.807 154.237Z" fill="#FFFAF0"/>
<path d="M125.041 153.48C124.97 153.721 124.886 153.972 124.789 154.229C124.427 155.217 123.906 156.308 123.294 157.401L122.717 157.102C121.91 156.49 120.047 153.736 120.511 150.871L120.461 150.863C120.525 150.429 120.515 149.968 120.429 149.492C120.392 149.291 120.343 149.084 120.279 148.877C121.673 148.504 124.925 150.249 125.041 153.48Z" fill="#FFFAF0"/>
<path d="M124.745 96.0666C125.041 100.404 119.699 100.28 119.181 97.1576C118.986 96.4797 118.559 94.8009 118.137 92.4151C117.313 87.7494 116.501 80.3855 117.478 72.5396H117.5L122.961 72.5078L123.005 72.5158C122.263 77.7428 122.507 82.8878 123.186 87.7309C123.208 87.8924 123.232 88.0566 123.255 88.2181C123.378 89.0575 123.514 89.8889 123.659 90.7072C123.983 92.5528 124.358 94.3428 124.745 96.0666Z" fill="#F25730"/>
<path d="M123.775 52.4312L123.879 52.5556C123.553 54.4939 122.931 56.1701 122.097 57.6185C121.505 58.6512 120.807 59.5674 120.027 60.3803C116.061 64.5296 110.06 66.0443 105.88 66.6347C106.233 63.9841 106.252 61.7149 105.608 59.6256C105.194 58.2805 104.5 57.0095 103.442 55.7623L103.469 55.6828C106.79 57.0306 111.425 57.4967 115.763 56.5514C118.751 55.9053 121.596 54.5892 123.775 52.4312Z" fill="#BF3013"/>
<path d="M117.934 70.2996L123.388 70.2651C123.237 71.0172 123.111 71.7665 123.005 72.5159L122.961 72.5079L117.5 72.5424H117.478C117.517 72.2352 117.557 71.928 117.601 71.6209C117.665 71.1654 117.737 70.7179 117.816 70.2757L117.934 70.2996Z" fill="#F25730"/>
<path d="M117.35 153.71L117.485 153.612C119.255 153.352 120.249 152.256 120.461 150.863L120.511 150.871C120.047 153.736 121.91 156.49 122.717 157.102L123.294 157.401C122.011 159.699 120.331 162.014 118.88 163.415C118.541 163.743 118.107 164.021 117.599 164.254L117.493 163.83C116.585 159.347 113.845 156.36 110.887 155.031L110.931 154.92C111.425 153.238 113.016 152.227 114.588 152.243C115.62 152.256 116.646 152.709 117.35 153.71Z" fill="#FFFAF0"/>
<path d="M69.6865 67.4053L69.6494 67.3841C69.035 66.1979 68.7389 64.7071 69.6988 62.9197C74.9574 57.1022 79.3449 49.7859 92.0609 48.4434L92.3447 48.4539C92.1423 48.8909 91.9696 49.3543 91.8265 49.8388L91.5994 49.7647C89.1712 52.5053 84.305 64.3178 88.2681 73.7604L88.2952 73.7869C87.8856 74.2344 87.5031 74.756 87.1625 75.3412C85.4475 78.2963 85.4697 81.7731 87.2119 83.105C88.9541 84.4396 91.7574 83.1262 93.4699 80.1737C94.0128 79.239 94.383 78.2487 94.5754 77.2928L94.7951 77.3404C102.235 79.0907 115.459 72.8654 120.163 60.5286L120.027 60.3803C120.807 59.5674 121.505 58.6512 122.097 57.6185L122.263 57.7297C120.896 60.0996 118.818 64.6594 117.816 70.2757C117.737 70.7179 117.665 71.1654 117.601 71.6209C117.557 71.928 117.517 72.2352 117.478 72.5397C116.501 80.3856 117.313 87.7495 118.137 92.4152L118.073 92.4284C117.493 93.6147 117.231 95.2353 117.172 97.0518L116.91 97.0412C111.437 97.6926 105.52 97.3616 99.7674 96.1303C90.4199 94.1311 81.5017 89.7593 75.5965 83.383C71.9715 79.4667 69.4816 74.7957 68.729 69.4548C69.0251 68.7637 69.3435 68.0805 69.6865 67.4053Z" fill="#BF3013"/>
<path d="M120.429 149.491C120.516 149.968 120.525 150.429 120.461 150.863C120.249 152.256 119.255 153.352 117.485 153.612L117.35 153.71C116.646 152.709 115.62 152.256 114.588 152.243L114.124 151.369V151.35C116.844 151.165 118.49 149.706 119.235 148.006L120.348 149.507L120.429 149.491Z" fill="#A65E3A"/>
<path d="M120.318 27.3867C120.318 27.5324 120.313 27.678 120.303 27.821C119.536 26.4732 117.053 25.3266 114.534 24.8738C112.799 24.5587 111.047 24.5746 109.828 25.0777L109.692 25.0248C109.927 24.3601 110.257 23.7538 110.672 23.2242C111.679 21.9187 113.157 21.0952 114.803 21.0952C117.851 21.0952 120.318 23.9126 120.318 27.3867Z" fill="#A65E3A"/>
<path d="M120.027 60.3803L120.163 60.5286C115.459 72.8654 102.235 79.0907 94.795 77.3404L94.5754 77.2927C94.9974 75.23 94.6099 73.3182 93.4205 72.4073C92.0238 71.3401 89.946 71.973 88.2952 73.7868L88.268 73.7604C84.3049 64.3178 89.1712 52.5053 91.5994 49.7646L91.8264 49.8388C90.8517 53.1567 91.2391 57.4781 92.4088 61.1535C93.4625 59.4138 95.6439 57.073 98.2054 55.8152C98.0227 56.2495 95.0591 63.2162 94.2966 65.3902C92.2928 71.0912 100.044 74.6421 102.975 67.3841C104.014 64.8129 105.47 59.6733 105.47 59.6733L105.608 59.6256C106.252 61.7148 106.233 63.9841 105.88 66.6347C110.06 66.0442 116.061 64.5296 120.027 60.3803Z" fill="#BF3013"/>
<path d="M87.5276 114.054C79.4287 111.369 73.378 105.66 69.7925 98.643C66.7251 92.648 65.4592 85.6945 66.2489 78.8575C66.3155 78.2723 66.3994 77.6898 66.4956 77.1099L66.5746 77.1258C67.5888 80.8488 69.3285 84.209 71.6482 87.1721L71.9689 87.2356C71.1472 89.4705 71.1521 92.3409 71.6235 95.296C72.4353 100.404 76.9561 104.649 83.3449 107.514C89.7313 110.381 93.3119 109.939 95.7475 107.94C97.2651 106.695 98.2645 103.767 98.8864 101.148L98.9653 101.159C105.354 102.406 110.911 102.739 117.261 101.9L117.389 101.884C117.826 106.108 118.751 110.257 119.003 111.869C119.111 112.576 119.38 113.26 119.812 113.866L117.609 114.735C114.82 123.084 114.704 139.157 119.235 148.006C118.49 149.706 116.844 151.165 114.122 151.35C113.453 151.398 112.72 151.366 111.918 151.244C98.5631 142.273 90.7825 122.71 89.3907 114.61C88.759 114.443 88.1372 114.258 87.5276 114.054Z" fill="#28736D"/>
<path d="M120.303 27.8212C120.111 31.0941 117.722 33.6811 114.803 33.6811C112.723 33.6811 110.911 32.3677 109.974 30.4268L110.067 30.3738C112.449 31.1232 114.124 29.688 114.124 29.688L110.931 26.7594L115.173 26.9447C115.173 26.9447 115.151 25.8326 114.512 25.025L114.534 24.874C117.053 25.3268 119.536 26.4734 120.303 27.8212Z" fill="#FFFAF0"/>
<path d="M104.318 164.479C104.066 164.426 103.817 164.371 103.572 164.312L103.558 164.204C103.558 164.204 99.7821 159.032 103.442 155.669C105.278 153.983 108.172 153.808 110.887 155.029C113.845 156.361 116.585 159.347 117.493 163.83L117.599 164.254C114.556 165.652 108.821 165.432 104.318 164.479Z" fill="#FFFAF0"/>
<path d="M117.389 101.884L117.261 101.9C110.911 102.74 105.354 102.406 98.9654 101.159L98.8865 101.148C99.5083 98.5321 99.7502 96.2257 99.7502 96.2257L99.7674 96.1304C105.52 97.3617 111.437 97.6927 116.91 97.0413L117.172 97.0519C117.125 98.5744 117.219 100.235 117.389 101.884Z" fill="#F25730"/>
<path d="M107.913 38.7094C114.539 40.0545 116.508 44.4104 116.032 48.5094C115.553 52.6084 112.57 54.4011 110.24 54.0833C108.508 53.8424 106.719 52.9288 106.837 50.6887L106.882 50.2729C110.946 50.7072 113.589 48.5227 113.998 46.3858C114.156 45.5622 114.092 44.7679 113.863 44.0582C113.416 42.676 112.338 41.6142 111.032 41.2858C108.801 40.7218 107.158 41.7757 107.158 41.7757C107.158 41.7757 106.062 40.0916 104.254 39.8453C102.04 39.5435 100.915 40.833 100.434 41.6539C100.401 41.7068 100.372 41.7598 100.347 41.8075C100.347 41.8101 100.347 41.8128 100.345 41.8154C100.194 42.0934 100.132 42.2867 100.132 42.2867C99.2688 44.519 99.8709 47.6462 103.407 49.3117L103.316 49.5342C102.003 52.0974 97.228 50.9429 97.228 46.203C97.228 41.4632 101.287 37.3642 107.913 38.7094Z" fill="#A65E3A"/>
<path d="M113.137 36.7921C118.248 38.8469 123.24 50.9348 115.75 56.4796L115.763 56.5511C111.425 57.4964 106.79 57.0303 103.469 55.6825C103.262 55.6004 103.057 55.5131 102.859 55.4204C102.469 55.2403 102.092 55.055 101.727 54.8643C97.6106 52.7115 94.911 49.8253 93.6204 46.518L93.6278 46.51C93.5118 40.8408 98.3312 34.6737 105.241 34.8591L105.537 34.867C105.552 34.9067 105.569 34.9438 105.589 34.9835C106.808 37.4779 110.001 36.1062 110.001 36.1062C110.001 36.1062 110.176 37.5441 111.859 37.4779C112.646 37.4461 112.964 37.1019 113.088 36.7656L113.137 36.7921ZM116.032 48.5092C116.508 44.4102 114.539 40.0543 107.913 38.7092C101.287 37.364 97.2281 41.463 97.2281 46.2029C97.2281 50.9427 102.003 52.0972 103.316 49.534L103.407 49.3116C103.918 49.5552 104.488 49.7644 105.125 49.9365C105.737 50.1033 106.321 50.2119 106.882 50.2728L106.837 50.6885C106.719 52.9287 108.508 53.8422 110.24 54.0832C112.57 54.4009 115.553 52.6083 116.032 48.5092Z" fill="#002140"/>
<path d="M115.173 26.9447L110.931 26.7594L114.124 29.688C114.124 29.688 112.449 31.1232 110.067 30.3738L109.974 30.4268C109.835 30.1488 109.719 29.8548 109.623 29.553C109.406 28.8777 109.288 28.1469 109.288 27.3869C109.288 26.627 109.404 25.9041 109.621 25.2315C109.643 25.1627 109.665 25.0938 109.692 25.025L109.828 25.0779C111.047 24.5748 112.799 24.5589 114.534 24.874L114.512 25.025C115.151 25.8326 115.173 26.9447 115.173 26.9447Z" fill="#002140"/>
<path d="M113.863 44.0582C114.092 44.7679 114.156 45.5623 113.998 46.3858C113.589 48.5227 110.946 50.7072 106.882 50.273C106.322 50.2121 105.737 50.1035 105.125 49.9367C104.488 49.7646 103.918 49.5554 103.407 49.3118C99.871 47.6462 99.2689 44.519 100.133 42.2868C100.133 42.2868 100.194 42.0935 100.345 41.8154C100.236 42.0379 100.162 42.2974 100.133 42.586C99.9944 43.9179 101.06 45.1863 102.168 46.0786C102.462 46.3116 102.758 46.5208 103.035 46.6982C103.664 47.0981 104.52 47.4397 105.524 47.6833C106.815 47.9957 108.347 48.1493 109.954 48.0619C110.201 48.0513 110.45 48.0302 110.699 48.0063C113.535 47.7257 114.142 45.5014 113.673 44.1271L113.863 44.0582Z" fill="#A65E3A"/>
<path d="M113.863 44.0581L113.673 44.1269C113.52 43.6741 113.248 43.3166 112.905 43.1472C112.404 42.9009 111.745 42.9512 111.03 43.1022C109.754 43.3749 108.293 43.9707 107.215 43.7694C106.975 43.7244 106.751 43.6635 106.539 43.5867C105.312 43.1525 104.5 42.2575 103.671 41.5054C103.634 41.471 103.595 41.4366 103.558 41.4022C102.492 40.4569 101.06 40.6237 100.434 41.6537C100.915 40.8329 102.04 39.5433 104.254 39.8452C106.062 40.0914 107.158 41.7755 107.158 41.7755C107.158 41.7755 108.801 40.7217 111.032 41.2857C112.338 41.614 113.416 42.6758 113.863 44.0581Z" fill="#A65E3A"/>
<path d="M113.673 44.1273C114.142 45.5016 113.535 47.7258 110.699 48.0065C110.45 48.0304 110.201 48.0515 109.954 48.0621L109.944 47.8821L111.047 43.2084L111.03 43.1025C111.745 42.9516 112.404 42.9013 112.905 43.1475C113.248 43.317 113.52 43.6745 113.673 44.1273Z" fill="#FFFAF0"/>
<path d="M111.03 43.1025L111.047 43.2085L109.944 47.8821L109.954 48.0621C108.347 48.1495 106.815 47.9959 105.524 47.6835L105.589 47.3843L106.519 43.6454L106.539 43.5871C106.751 43.6639 106.975 43.7248 107.215 43.7698C108.293 43.9711 109.754 43.3753 111.03 43.1025Z" fill="#FFFAF0"/>
<path d="M110.583 23.1473L110.672 23.2241C110.257 23.7537 109.927 24.36 109.692 25.0247C109.665 25.0935 109.643 25.1624 109.621 25.2312L109.537 25.2021C109.016 24.6434 108.118 24.1535 107.072 23.7934C105.208 23.1552 102.874 22.9169 101.352 23.3962L101.287 23.3697C102.075 21.2619 103.943 19.7817 106.122 19.7817C108.165 19.7817 110.011 20.9336 110.583 23.1473Z" fill="#A65E3A"/>
<path d="M109.623 29.5527L109.189 29.5633C108.31 29.8599 107.331 30.5378 106.583 31.3745L106.519 31.3083C104.36 31.3481 102.714 30.3842 101.773 28.8802C104.145 29.4309 105.704 28.3188 105.704 28.3188L102.975 25.2657L107.081 26.0124C107.081 26.0124 107.432 24.8288 107.027 23.9576L107.072 23.7935C108.118 24.1536 109.016 24.6434 109.537 25.2022L109.621 25.2313C109.403 25.9039 109.288 26.6294 109.288 27.3867C109.288 28.144 109.406 28.8775 109.623 29.5527Z" fill="#FFFAF0"/>
<path d="M107.027 23.9579C107.432 24.8291 107.082 26.0127 107.082 26.0127L102.975 25.266L105.705 28.3191C105.705 28.3191 104.145 29.4312 101.774 28.8804C101.196 27.9589 100.885 26.8336 100.885 25.6102C100.885 24.8158 101.028 24.0585 101.287 23.3701L101.352 23.3965C102.874 22.9173 105.209 23.1556 107.072 23.7937L107.027 23.9579Z" fill="#002140"/>
<path d="M106.539 43.5871L106.519 43.6454L105.589 47.3843L105.524 47.6835C104.52 47.4399 103.664 47.0983 103.035 46.6985C102.758 46.5211 102.462 46.3119 102.168 46.0789L102.339 46.0127L103.558 41.6515L103.671 41.5059C104.5 42.2579 105.312 43.1529 106.539 43.5871Z" fill="#FFFAF0"/>
<path d="M105.608 59.6258L105.47 59.6734C105.47 59.6734 104.014 64.8131 102.975 67.3842C100.044 74.6423 92.2926 71.0914 94.2964 65.3903C95.0589 63.2164 98.0226 56.2496 98.2052 55.8154V55.8127C99.3181 55.2672 100.503 54.923 101.699 54.923L101.727 54.8647C102.092 55.0554 102.469 55.2408 102.859 55.4208C103.057 55.5135 103.261 55.6009 103.469 55.683L103.442 55.7624C104.5 57.0096 105.194 58.2806 105.608 59.6258ZM102.195 60.2957C102.494 59.0829 102.126 57.9258 101.376 57.7139C100.626 57.5021 99.7771 58.315 99.4785 59.5278C99.1799 60.7405 99.5476 61.8977 100.298 62.1095C101.048 62.3214 101.897 61.5084 102.195 60.2957ZM99.8733 66.6508C100.169 65.438 99.8042 64.2808 99.0541 64.069C98.3039 63.8572 97.455 64.6701 97.1564 65.8829C96.8578 67.0956 97.2255 68.2528 97.9757 68.4646C98.7259 68.6764 99.5747 67.8635 99.8733 66.6508Z" fill="#BF3013"/>
<path d="M103.558 41.4026C103.595 41.437 103.634 41.4714 103.671 41.5058L103.558 41.6515L102.339 46.0126L102.168 46.0788C101.06 45.1865 99.9943 43.9181 100.132 42.5862C100.162 42.2976 100.236 42.0381 100.345 41.8156C100.347 41.813 100.347 41.8103 100.347 41.8077C100.374 41.7547 100.404 41.7018 100.434 41.6541C101.06 40.6241 102.492 40.4572 103.558 41.4026Z" fill="#FFFAF0"/>
<path d="M101.376 57.7137C102.126 57.9256 102.494 59.0827 102.195 60.2955C101.897 61.5083 101.048 62.3212 100.298 62.1093C99.5477 61.8975 99.18 60.7403 99.4786 59.5276C99.7771 58.3148 100.626 57.5019 101.376 57.7137Z" fill="#BF3013"/>
<path d="M98.2052 55.8124V55.815C95.6437 57.0728 93.4623 59.4136 92.4086 61.1533C91.2389 57.4779 90.8515 53.1565 91.8262 49.8386C91.9694 49.354 92.1421 48.8906 92.3444 48.4537C92.6825 47.7255 93.1045 47.0741 93.6202 46.5181C94.9108 49.8254 97.6105 52.7116 101.727 54.8644L101.699 54.9227C100.503 54.9227 99.3181 55.2669 98.2052 55.8124Z" fill="#BF3013"/>
<path d="M99.0542 64.0687C99.8044 64.2806 100.17 65.4377 99.8735 66.6505C99.5749 67.8632 98.726 68.6761 97.9758 68.4643C97.2256 68.2525 96.8579 67.0953 97.1565 65.8826C97.4551 64.6698 98.304 63.8569 99.0542 64.0687Z" fill="#BF3013"/>
<path d="M99.7673 96.13L99.75 96.2254C97.5193 96.6649 96.7444 97.9121 96.2805 99.906C95.8166 101.9 95.2367 103.02 93.3785 103.02C92.9047 103.02 92.3988 103.012 91.8411 102.972C91.2662 102.933 90.6344 102.861 89.9238 102.731C88.6208 102.493 87.0538 102.061 85.092 101.278C81.0278 99.6571 76.8475 96.6649 74.6488 93.7998C72.1688 90.5667 71.2731 88.8164 72.5513 86.0731L72.5217 86.0519C73.1386 84.9795 74.022 84.1269 75.2213 83.5814L75.5964 83.3828C81.5016 89.7591 90.4198 94.1308 99.7673 96.13Z" fill="#FFA75A"/>
<path d="M99.75 96.2257C99.75 96.2257 99.5082 98.532 98.8863 101.148C98.2644 103.767 97.265 106.696 95.7474 107.94C93.3118 109.939 89.7312 110.382 83.3449 107.514C76.9561 104.649 72.4353 100.404 71.6234 95.2962C71.1521 92.3411 71.1471 89.4707 71.9689 87.2359C72.1219 86.8175 72.3045 86.4203 72.5216 86.0522L72.5513 86.0734C71.273 88.8167 72.1688 90.567 74.6488 93.8001C76.8475 96.6652 81.0277 99.6574 85.092 101.278C87.0538 102.062 88.6208 102.493 89.9237 102.732L89.9163 102.779C89.9163 102.779 89.2179 105.263 89.4524 106.137C89.6843 107.008 91.2488 107.133 91.3648 106.137C91.4808 105.139 91.8287 103.145 91.8287 103.145L91.8411 102.973C92.3988 103.012 92.9046 103.02 93.3784 103.02C95.2366 103.02 95.8165 101.9 96.2804 99.9063C96.7444 97.9124 97.5192 96.6652 99.75 96.2257Z" fill="#FF7101"/>
<path d="M96.6112 30.0874C96.7247 30.1933 96.8086 30.2516 96.8259 30.2622C96.8111 30.2489 96.7346 30.1801 96.6112 30.0874ZM98.6791 25.7633L98.8568 25.7924C98.3139 29.4969 96.4064 30.0583 94.6346 33.8502L94.3039 33.7389C92.0188 33.3894 90.553 30.4211 91.9695 27.2753C92.4902 26.1181 93.3612 25.3555 94.3212 24.9451C95.9696 24.2408 97.8721 24.5823 98.6791 25.7633Z" fill="#A65E3A"/>
<path d="M93.4206 72.4074C94.61 73.3183 94.9974 75.2301 94.5754 77.2929C94.383 78.2488 94.0128 79.2391 93.4699 80.1738C91.7574 83.1263 88.9541 84.4397 87.2119 83.1051C85.4697 81.7732 85.4475 78.2965 87.1625 75.3413C87.5031 74.7561 87.8856 74.2345 88.2952 73.787C89.9461 71.9732 92.0239 71.3403 93.4206 72.4074ZM91.8585 78.8393C92.7296 77.1605 92.7444 75.3175 91.8931 74.7191C91.0393 74.1233 89.645 74.9998 88.7739 76.6759C87.9028 78.3547 87.888 80.1977 88.7394 80.7961C89.5907 81.3919 90.9874 80.5154 91.8585 78.8393Z" fill="#FED607"/>
<path d="M91.8931 74.7191C92.7444 75.3175 92.7296 77.1605 91.8585 78.8393C90.9874 80.5154 89.5907 81.3919 88.7394 80.7961C87.888 80.1976 87.9028 78.3547 88.7739 76.6759C89.645 74.9997 91.0392 74.1233 91.8931 74.7191Z" fill="#FED607"/>
<path d="M91.8411 102.972L91.8288 103.145C91.8288 103.145 91.4808 105.138 91.3649 106.137C91.2489 107.132 89.6844 107.008 89.4524 106.137C89.218 105.263 89.9163 102.779 89.9163 102.779L89.9237 102.731C90.6344 102.861 91.2662 102.933 91.8411 102.972Z" fill="#FFC68C"/>
<path d="M75.5964 83.3828L75.2213 83.5814C74.022 84.1269 73.1386 84.9795 72.5217 86.0519C72.3045 86.42 72.1219 86.8172 71.9689 87.2356L71.6481 87.172C69.3285 84.209 67.5888 80.8487 66.5746 77.1257L66.4956 77.1098C66.9324 74.5069 67.6727 71.9357 68.7288 69.4546C69.4815 74.7955 71.9714 79.4665 75.5964 83.3828Z" fill="#F25730"/>
<path d="M87.5277 114.054C77.773 116.925 63.2063 129.698 60.4203 142.655L60.3586 142.896C60.023 142.954 59.6702 142.978 59.3123 142.97C58.308 142.954 57.2494 142.686 56.3462 142.167L56.2648 142.194C55.9662 141.031 55.2234 140.083 54.1969 139.726L54.2043 139.702C52.694 125.996 56.9903 110.373 69.7654 98.659L69.7926 98.6431C73.3781 105.66 79.4288 111.369 87.5277 114.054Z" fill="#28736D"/>
<path d="M46.89 82.0403C46.3348 82.0403 45.7524 81.6854 45.4933 80.9652C45.3601 80.5918 45.2096 80.1814 45.059 79.7498C44.832 79.1063 44.6 78.4152 44.4051 77.7374C44.1879 76.9747 44.0201 76.2227 43.9658 75.5634C43.9165 75.002 43.951 74.5042 44.1016 74.1203C44.6272 72.7804 45.8437 72.1264 47.5835 72.2508C48.6618 72.3276 49.1603 73.1167 49.4688 73.8555C53.8736 72.738 57.8194 71.8616 64.5389 67.5083C66.4957 66.2426 68.1343 64.6459 69.6988 62.9194C68.7388 64.7068 69.035 66.1976 69.6494 67.3839L69.6864 67.4051C69.3434 68.0803 69.0251 68.7635 68.729 69.4546C67.6728 71.9357 66.9325 74.5069 66.4957 77.1098C66.3995 77.6897 66.3156 78.2722 66.249 78.8574H66.2267C61.8688 80.8407 59.0804 81.2141 53.5059 81.4127C53.2739 84.5797 51.0678 86.9469 47.9339 87.8181L47.618 87.9002C47.3367 86.6398 46.7173 85.525 46.7173 85.525H46.4804C47.4798 85.0351 48.2991 84.4367 48.0498 83.4569C47.8598 82.7208 47.4699 82.3792 46.8777 82.3368L46.89 82.0403Z" fill="#A65E3A"/>
<path d="M59.67 151.247C59.2283 152.217 58.3893 153.019 57.0494 153.461L56.9901 153.239C56.4102 151.369 57.4072 148.006 58.6854 146.386L59.0284 146.298C59.3566 146.635 59.828 147.31 60.0032 148.504C60.1438 149.455 60.055 150.413 59.67 151.247Z" fill="#FFFAF0"/>
<path d="M59.67 151.247C60.5929 151.385 61.047 154.112 58.1524 155.233C55.248 156.355 50.7198 156.355 46.4235 154.361C42.1273 152.367 38.4875 147.307 37.5572 144.816C36.6293 142.324 37.5967 141.026 38.8749 140.902C38.8749 140.902 38.8206 145.247 43.3488 149.359C44.6295 150.522 45.9522 151.409 47.2552 152.071C50.5569 153.752 53.7279 154.007 55.7612 153.744C56.235 153.684 56.6619 153.586 57.0494 153.461C58.3893 153.019 59.2283 152.217 59.67 151.247Z" fill="#FFFAF0"/>
<path d="M59.3122 142.97V143.02L58.6854 146.012C57.6392 146.883 55.9389 147.074 55.3566 146.576L55.2776 146.497C56.3634 145.16 56.6101 143.534 56.2647 142.194L56.3461 142.167C57.2493 142.686 58.3079 142.954 59.3122 142.97Z" fill="#A65E3A"/>
<path d="M55.2775 146.497L55.3565 146.576C55.9389 147.074 57.6391 146.883 58.6854 146.012C58.6854 146.012 58.831 146.094 59.0284 146.298L58.6854 146.385C57.4071 148.006 56.4102 151.369 56.9901 153.238L57.0493 153.461C56.6619 153.585 56.235 153.683 55.7612 153.744C53.7278 154.006 50.5569 153.752 47.2551 152.07L47.2971 151.978C52.8296 149.2 53.449 143.806 51.6032 139.861L52.114 139.781C52.8864 139.506 53.5921 139.511 54.1967 139.726C55.2233 140.083 55.966 141.031 56.2646 142.194C56.6101 143.533 56.3633 145.159 55.2775 146.497Z" fill="#FFFAF0"/>
<path d="M51.6033 139.861C53.4491 143.806 52.8297 149.2 47.2972 151.978L47.2553 152.071C45.9523 151.409 44.6297 150.522 43.3489 149.359C38.8207 145.247 38.875 140.902 38.875 140.902C38.875 140.902 39.714 134.197 45.9597 135.171C48.3929 135.55 50.4657 137.43 51.6033 139.861Z" fill="#FFFAF0"/>
<path d="M44.6319 88.1334C44.6221 88.1625 44.5999 88.1837 44.5653 88.1916C42.8231 88.5676 41.8632 87.8156 42.0113 86.0733C42.0211 85.9647 42.036 85.8588 42.0557 85.7529C42.2975 84.5295 43.3093 83.5233 44.9133 82.8348C45.7153 82.4906 46.3717 82.3052 46.8775 82.337C47.4698 82.3794 47.8597 82.721 48.0497 83.4571C48.2989 84.4368 47.4796 85.0353 46.4802 85.5251C46.0829 85.7184 45.6585 85.8958 45.2612 86.0733C44.0052 86.6373 44.743 87.8474 44.6319 88.1334Z" fill="#A65E3A"/>
<path d="M47.6179 87.9001C47.7783 88.6336 47.8277 89.4174 47.571 90.0608C46.8727 91.8058 43.5191 93.053 43.0552 93.3019L42.7862 93.4131C42.5913 92.873 42.3939 92.3195 42.1915 91.7555C42.0583 91.3901 41.9275 91.0194 41.7917 90.6434L42.0114 90.5534C42.0114 90.5534 45.3107 89.5021 44.632 88.1331C44.7431 87.8471 44.0053 86.637 45.2613 86.073C45.6586 85.8956 46.083 85.7182 46.4803 85.5249H46.7172C46.7172 85.5249 47.3366 86.6397 47.6179 87.9001Z" fill="#F25730"/>
<path d="M41.192 83.0785C41.4536 81.8631 42.5418 80.6635 44.6813 79.9698L45.0589 79.75C45.2094 80.1816 45.3599 80.592 45.4932 80.9654C45.7523 81.6857 46.3347 82.0378 46.8899 82.0405L46.8775 82.337C46.3717 82.3053 45.7153 82.4906 44.9133 82.8349C43.3093 83.5233 42.2975 84.5295 42.0557 85.7529L42.0113 85.7423C41.2932 85.0088 40.9823 84.0397 41.192 83.0785Z" fill="#A65E3A"/>
<path d="M45.0294 99.6997C45.3922 100.722 45.4465 101.826 45.2416 102.869C45.2416 102.875 45.2392 102.877 45.2392 102.883C45.1726 103.11 45.0541 103.507 44.906 103.995C44.3952 105.266 43.4699 106.338 42.241 106.884L34.4727 110.032L34.4184 109.876C33.4758 109.524 32.617 108.774 32.2789 107.742C31.9384 106.711 32.2321 105.409 33.076 104.834C33.5942 104.482 34.2284 104.432 34.8157 104.259C36.0323 103.905 37.2118 102.668 36.9355 101.315C36.7331 100.317 35.8398 99.6785 35.4474 98.7517C35.0008 97.7005 35.3043 96.3712 36.0545 95.5583C36.8071 94.748 37.9299 94.4329 38.9713 94.5865C39.4846 94.6633 39.9954 94.8434 40.5111 94.7957C41.74 94.6818 42.579 93.0136 42.1102 91.7876L42.1916 91.7559C42.394 92.3199 42.5914 92.8733 42.7863 93.4135C43.6327 95.7807 44.4002 97.9282 45.0294 99.6997Z" fill="#002140"/>
<path d="M45.059 79.7497L44.6815 79.9695C42.542 80.6633 41.4537 81.8628 41.1922 83.0782C40.4889 82.4957 40.1014 81.5742 40.3606 80.6289C40.6542 79.5538 41.7918 78.447 44.2644 77.785L44.4051 77.7373C44.6 78.4152 44.832 79.1063 45.059 79.7497Z" fill="#A65E3A"/>
<path d="M44.906 103.995C44.4396 105.541 43.6869 107.996 43.4032 108.753C43.2971 109.039 43.1983 109.33 43.1021 109.621C43.0996 109.621 43.0996 109.624 43.0996 109.624C42.8134 110.13 42.273 110.744 41.2588 111.078C40.3112 111.39 28.5255 116.736 23.183 118.606C21.1546 119.316 18.2057 118.098 17.1594 115.357C15.9996 112.312 5.43057 85.5754 4.50272 82.4614C3.61436 79.4825 3.46877 78.6537 4.06348 77.3906C5.0234 75.7595 6.21529 73.7947 7.66628 71.8008L7.69096 71.822C6.74584 73.1142 6.44231 74.8909 7.03209 76.5353L8.57685 80.825L13.0705 93.2968L19.4174 110.919C20.2638 113.278 22.6179 114.531 24.8388 113.908C25.0387 113.856 25.2386 113.784 25.436 113.697L34.4726 110.032L42.2409 106.883C43.4698 106.338 44.3952 105.266 44.906 103.995Z" fill="#FF7101"/>
<path d="M39.9779 77.3535C40.5874 76.6279 41.6535 76.0242 43.1242 75.7012C43.3044 75.6588 43.4919 75.6244 43.6844 75.5926L43.9657 75.5635C44.02 76.2228 44.1878 76.9748 44.4049 77.7374L44.2643 77.7851C41.7917 78.4471 40.6541 79.5539 40.3604 80.629L40.0297 80.5257C39.1562 79.4851 39.1735 78.312 39.9779 77.3535Z" fill="#A65E3A"/>
<path d="M43.0551 75.3572L43.1242 75.7014C41.6535 76.0245 40.5874 76.6282 39.9779 77.3537C38.9316 77.3802 37.4115 78.1667 37.4115 78.1667L37.3104 78.209C36.9674 77.2558 36.6268 76.3184 36.2961 75.3996L36.4837 75.3228C36.4837 75.3228 41.8953 72.3677 43.0551 75.3572Z" fill="#F25730"/>
<path d="M41.2587 111.078C42.2729 110.744 42.8133 110.13 43.0996 109.624C42.3716 111.84 41.7744 114.176 39.1069 115.497C36.1777 116.948 27.5853 120.798 22.7092 122.292C17.8306 123.788 15.2913 122.3 14.0131 119.061C12.7348 115.82 3.40206 91.6895 2.35824 88.324C1.31194 84.9611 0.554367 82.9593 2.1929 80.5099C2.67657 79.7897 3.29595 78.6987 4.0634 77.3906C3.46869 78.6537 3.61428 79.4825 4.50265 82.4614C5.43049 85.5754 15.9995 112.312 17.1594 115.357C18.2057 118.098 21.1545 119.316 23.183 118.606C28.5255 116.736 40.3111 111.39 41.2587 111.078Z" fill="#FF7101"/>
<path d="M38.231 81.5956L38.4925 81.487C39.6129 84.5851 40.7431 87.7229 41.7918 90.6436C41.9275 91.0196 42.0583 91.3903 42.1916 91.7557L42.1101 91.7875C42.579 93.0135 41.74 94.6817 40.5111 94.7956C39.9953 94.8432 39.4845 94.6632 38.9713 94.5864C37.9299 94.4328 36.8071 94.7479 36.0545 95.5582C35.3043 96.3711 35.0008 97.7004 35.4474 98.7516C35.8398 99.6784 36.7331 100.317 36.9354 101.315C37.2118 102.668 36.0323 103.905 34.8157 104.259C34.2284 104.431 33.5942 104.482 33.076 104.834C32.232 105.409 31.9384 106.711 32.2789 107.741C32.617 108.774 33.4757 109.523 34.4184 109.876L34.4727 110.032L25.4361 113.697C25.2386 113.784 25.0388 113.856 24.8389 113.908L24.834 113.885C23.9456 113.787 23.2078 113.48 22.4403 112.987C21.6753 112.492 21.1127 111.494 21.3669 110.575C21.6753 109.452 22.9141 109.042 23.9357 108.623C24.9549 108.207 26.0777 107.217 25.7272 106.108C25.4805 105.329 24.6045 104.966 24.2664 104.228C23.9604 103.56 24.1751 102.729 24.5995 102.141C25.024 101.553 25.6261 101.151 26.1961 100.73C27.7014 99.6281 29.2338 97.8804 28.7724 95.9898C28.3405 94.2289 25.9419 93.4901 24.7056 94.7373C24.2244 95.2272 23.9431 95.8998 23.5039 96.432C22.7784 97.3111 21.6038 97.7348 20.5303 97.5097C19.4544 97.282 18.5192 96.4108 18.1564 95.304C17.8603 94.3957 17.9245 93.3683 17.505 92.521C17.0534 91.6075 16.0342 91.0593 15.0817 91.2235C14.1292 91.385 13.3173 92.243 13.152 93.2624L13.0705 93.2968L8.5769 80.825L8.66574 80.7879C8.49054 79.4004 8.69535 77.8408 9.53189 76.7631C10.366 75.688 11.817 75.1293 13.0434 75.6085C13.6924 75.8628 14.2378 76.3712 14.8942 76.6015C15.5876 76.8425 16.3402 76.7498 17.0583 76.6148C18.4575 76.35 20.1158 75.5741 20.1873 74.0516C20.2613 72.5131 18.5858 71.1097 19.1632 69.6983C19.6321 68.5465 21.13 68.5597 22.196 68.0354C22.8179 67.7283 23.3558 67.1431 23.4718 66.4202C23.5853 65.7238 23.2102 64.9347 22.5884 64.7361C23.911 64.1615 25.1622 63.616 26.28 63.1288C28.9303 61.9769 31.9458 63.3724 32.9797 66.2322C31.4917 65.925 30.2283 66.2322 29.1326 67.3602C28.0395 68.4829 27.4916 70.1882 27.7088 71.7982C27.8667 72.9553 28.3899 74.0383 28.4639 75.2061C28.5379 76.3738 27.9037 77.756 26.8155 77.8037C26.3688 77.8249 25.9444 77.613 25.5052 77.5389C24.217 77.3138 22.9807 78.2565 22.2182 79.3925C21.7099 80.1524 21.3299 81.0474 21.3175 81.9822C21.3052 82.9195 21.7148 83.894 22.4724 84.3547C23.5458 85.0114 25.2781 84.7493 25.6952 85.9991C26.0308 87.0027 25.0881 88.0168 25.1301 89.0813C25.1696 90.0875 26.1418 90.8422 27.0771 90.8369C28.0148 90.8316 28.8711 90.2385 29.5151 89.5103C30.1395 88.8059 30.6206 87.9533 30.9168 87.0344C31.1709 86.2374 31.2894 85.3874 31.6201 84.6222C31.9483 83.8543 32.5652 83.1499 33.3474 83.0731C33.9643 83.0122 34.5467 83.3459 35.1414 83.5365C35.7337 83.7272 36.4888 83.7192 36.8441 83.1737C37.1082 82.7739 37.0539 82.2231 37.2636 81.7862C37.4487 81.4023 38.078 81.2778 38.231 81.5956Z" fill="#FFA75A"/>
<path d="M38.4924 81.4868L38.2309 81.5953C38.0779 81.2776 37.4486 81.402 37.2635 81.786C37.0538 82.2229 37.1081 82.7737 36.844 83.1735C36.4887 83.719 35.7336 83.7269 35.1413 83.5363C34.5466 83.3456 33.9642 83.012 33.3473 83.0729C32.5651 83.1497 31.9482 83.854 31.62 84.6219C31.2893 85.3872 31.1708 86.2372 30.9167 87.0342C30.6205 87.953 30.1394 88.8057 29.515 89.51C28.871 90.2382 28.0147 90.8314 27.077 90.8367C26.1417 90.842 25.1695 90.0873 25.13 89.0811C25.088 88.0166 26.0307 87.0024 25.6951 85.9988C25.278 84.749 23.5457 85.0112 22.4723 84.3545C21.7147 83.8937 21.3051 82.9193 21.3174 81.9819C21.3297 81.0472 21.7098 80.1522 22.2181 79.3922C22.9806 78.2563 24.2169 77.3136 25.5051 77.5387C25.9443 77.6128 26.3687 77.8246 26.8154 77.8035C27.9036 77.7558 28.5378 76.3736 28.4638 75.2058C28.3898 74.0381 27.8666 72.9551 27.7087 71.7979C27.4915 70.188 28.0394 68.4827 29.1325 67.3599C30.2282 66.2346 31.4916 65.9248 32.9796 66.2319C33.8803 68.7183 35.0377 71.9144 36.2962 75.3991C36.6269 76.318 36.9674 77.2553 37.3104 78.2086C37.7003 79.289 38.0976 80.3852 38.4924 81.4868Z" fill="#002140"/>
<path d="M28.7724 95.9896C29.2338 97.8802 27.7014 99.6279 26.1961 100.729C25.6261 101.15 25.024 101.553 24.5995 102.141C24.1751 102.729 23.9604 103.56 24.2664 104.227C24.6045 104.966 25.4805 105.329 25.7273 106.107C26.0777 107.217 24.9549 108.207 23.9357 108.623C22.9141 109.041 21.6753 109.452 21.3669 110.574C21.1127 111.493 21.6753 112.492 22.4403 112.987C23.2078 113.479 23.9456 113.786 24.834 113.884L24.8389 113.908C22.618 114.531 20.2638 113.278 19.4174 110.919L13.0706 93.2966L13.152 93.2622C13.3173 92.2427 14.1292 91.3848 15.0817 91.2233C16.0342 91.0591 17.0534 91.6072 17.505 92.5208C17.9245 93.3681 17.8603 94.3955 18.1564 95.3038C18.5192 96.4106 19.4544 97.2818 20.5303 97.5095C21.6038 97.7346 22.7784 97.3109 23.5039 96.4318C23.9431 95.8996 24.2244 95.227 24.7056 94.7371C25.942 93.4899 28.3405 94.2287 28.7724 95.9896Z" fill="#002140"/>
<path d="M22.5882 64.7358C23.2101 64.9344 23.5852 65.7235 23.4717 66.4199C23.3557 67.1428 22.8177 67.728 22.1959 68.0352C21.1298 68.5595 19.632 68.5462 19.1631 69.6981C18.5857 71.1094 20.2612 72.5129 20.1872 74.0513C20.1156 75.5739 18.4574 76.3497 17.0582 76.6145C16.3401 76.7496 15.5874 76.8423 14.894 76.6013C14.2376 76.3709 13.6923 75.8625 13.0433 75.6083C11.8168 75.129 10.3658 75.6878 9.53177 76.7628C8.69523 77.8405 8.49041 79.4002 8.66561 80.7877L8.57678 80.8248L7.03201 76.5351C6.44224 74.8907 6.74576 73.114 7.69088 71.8218C8.16961 71.1677 8.81367 70.6355 9.59099 70.3098C13.0877 68.8428 18.218 66.6318 22.5882 64.7358Z" fill="#002140"/>
<path d="M92.0609 48.4434C79.3449 49.7859 74.9574 57.1022 69.6988 62.9197C68.1343 64.6462 66.4958 66.2429 64.5389 67.5086C57.8194 71.8618 53.8736 72.7383 49.4688 73.8557C49.4589 73.8584 49.4515 73.861 49.4417 73.8637" stroke="#002140" stroke-width="0.99999" stroke-linecap="round" stroke-linejoin="round"/>
<path d="M76.4996 58.2856C73.6149 61.0342 71.357 64.1217 69.6863 67.4052C69.3433 68.0804 69.025 68.7636 68.7289 69.4547C67.6727 71.9358 66.9324 74.507 66.4956 77.1099C66.3994 77.6898 66.3155 78.2724 66.2489 78.8576C65.4592 85.6946 66.7251 92.6481 69.7925 98.643C73.378 105.66 79.4287 111.369 87.5276 114.054C88.1372 114.258 88.759 114.443 89.3907 114.61" stroke="#002140" stroke-width="0.99999" stroke-linecap="round" stroke-linejoin="round"/>
<path d="M53.5059 81.4129C59.0803 81.2143 61.8688 80.8409 66.2267 78.855" stroke="#002140" stroke-width="0.99999" stroke-linecap="round" stroke-linejoin="round"/>
<path d="M89.3909 114.61C90.7826 122.71 98.5632 142.273 111.918 151.245" stroke="#002140" stroke-width="0.99999" stroke-linecap="round" stroke-linejoin="round"/>
<path d="M119.235 148.006C114.704 139.157 114.82 123.084 117.609 114.735L119.812 113.866H119.815" stroke="#002140" stroke-width="0.99999" stroke-linecap="round" stroke-linejoin="round"/>
<path d="M111.918 151.244C112.72 151.366 113.453 151.398 114.122 151.35C116.844 151.165 118.49 149.706 119.235 148.006L120.348 149.507" stroke="#002140" stroke-width="0.99999" stroke-linecap="round" stroke-linejoin="round"/>
<path d="M87.5325 114.054H87.5276C77.7729 116.925 63.2062 129.698 60.4202 142.655" stroke="#002140" stroke-width="0.99999" stroke-linecap="round" stroke-linejoin="round"/>
<path d="M69.7654 98.6592C56.9903 110.374 52.694 125.997 54.2043 139.702" stroke="#002140" stroke-width="0.99999" stroke-linecap="round" stroke-linejoin="round"/>
<path d="M56.3462 142.167C57.2494 142.686 58.308 142.954 59.3123 142.97C59.6701 142.978 60.023 142.954 60.3586 142.896" stroke="#002140" stroke-width="0.99999" stroke-linecap="round" stroke-linejoin="round"/>
<path d="M68.719 69.3779C68.7215 69.4044 68.7264 69.4282 68.7289 69.4547C69.4815 74.7956 71.9714 79.4666 75.5964 83.3829C81.5016 89.7592 90.4197 94.131 99.7673 96.1302C105.519 97.3615 111.437 97.6924 116.91 97.0411" stroke="#002140" stroke-width="0.99999" stroke-linecap="round" stroke-linejoin="round"/>
<path d="M98.9653 101.159C105.354 102.406 110.911 102.74 117.261 101.9" stroke="#002140" stroke-width="0.99999" stroke-linecap="round" stroke-linejoin="round"/>
<path d="M66.5747 77.126C67.5889 80.849 69.3286 84.2092 71.6482 87.1723" stroke="#002140" stroke-width="0.99999" stroke-linecap="round" stroke-linejoin="round"/>
<path d="M118.073 92.4282C117.493 93.6145 117.231 95.2351 117.172 97.0515C117.125 98.5741 117.219 100.234 117.389 101.884C117.826 106.108 118.751 110.257 119.003 111.869C119.112 112.576 119.381 113.26 119.812 113.866C119.965 114.086 120.143 114.295 120.338 114.494C121.905 116.064 124.804 116.89 129.106 115.855C134.796 114.486 134.446 110.622 134.446 110.622" stroke="#002140" stroke-width="0.99999" stroke-linecap="round" stroke-linejoin="round"/>
<path d="M75.2213 83.5815C74.022 84.127 73.1386 84.9797 72.5216 86.0521C72.3045 86.4201 72.1219 86.8173 71.9689 87.2357C71.1471 89.4706 71.1521 92.341 71.6234 95.2961C72.4353 100.404 76.9561 104.649 83.3449 107.514C89.7312 110.381 93.3118 109.939 95.7474 107.94C97.265 106.695 98.2644 103.767 98.8863 101.148C99.5082 98.5319 99.75 96.2255 99.75 96.2255" stroke="#002140" stroke-width="0.99999" stroke-linecap="round" stroke-linejoin="round"/>
<path d="M119.181 97.1577C118.986 96.4798 118.559 94.801 118.137 92.4152C117.313 87.7495 116.501 80.3856 117.478 72.5397C117.517 72.2352 117.557 71.928 117.601 71.6208C117.665 71.1654 117.737 70.7179 117.816 70.2757C118.818 64.6594 120.896 60.0996 122.263 57.7297C122.793 56.8135 123.215 56.223 123.43 56.0271C124.143 55.373 127.516 56.2866 128.651 56.9406C128.809 57.0333 128.925 57.1207 128.982 57.1975C129.446 57.8197 129.624 59.533 129.624 59.533" stroke="#002140" stroke-width="0.99999" stroke-linecap="round" stroke-linejoin="round"/>
<path d="M128.516 57.1973C128.217 57.6818 127.931 58.1664 127.657 58.6536C125.5 62.4932 124.153 66.3936 123.388 70.2649C123.237 71.0169 123.111 71.7663 123.005 72.5157C122.263 77.7427 122.507 82.8877 123.186 87.7308C123.208 87.8923 123.232 88.0565 123.255 88.218C123.378 89.0574 123.514 89.8888 123.659 90.7071C123.983 92.5527 124.358 94.3427 124.745 96.0665" stroke="#002140" stroke-width="0.99999" stroke-linecap="round" stroke-linejoin="round"/>
<path d="M119.181 97.1574C119.699 100.279 125.041 100.404 124.745 96.0664" stroke="#002140" stroke-width="0.99999" stroke-linecap="round" stroke-linejoin="round"/>
<path d="M125.621 75.8574C128.518 77.0093 131.067 78.3359 133.293 79.7605C133.626 79.975 133.954 80.1895 134.273 80.4066C136.195 81.7147 137.858 83.089 139.29 84.4765C141.375 86.4942 142.961 88.5332 144.119 90.4132C144.965 91.7875 145.582 93.077 145.997 94.2104C145.997 94.2183 146.002 94.2236 146.004 94.2315" stroke="#002140" stroke-width="0.99999" stroke-linecap="round" stroke-linejoin="round"/>
<path d="M127.867 58.7861C128.412 59.0112 128.987 59.2892 129.589 59.6096C133.224 61.5453 137.792 65.12 141.945 69.3011C146.929 74.3163 151.322 80.208 152.795 85.2021" stroke="#002140" stroke-width="0.99999" stroke-linecap="round" stroke-linejoin="round"/>
<path d="M134.275 80.4013C133.695 75.1663 137.35 69.7513 141.878 69.3779" stroke="#002140" stroke-width="0.99999" stroke-linecap="round" stroke-linejoin="round"/>
<path d="M123.415 87.694C124.701 87.0452 129.582 85.814 133.757 85.1043C135.993 84.723 138.026 84.4926 139.201 84.58" stroke="#002140" stroke-width="0.99999" stroke-linecap="round" stroke-linejoin="round"/>
<path d="M123.415 88.1914C127.479 88.0669 128.168 92.8041 128.75 95.6692C129.33 98.5343 129.819 108.051 136.296 107.426C140.163 107.05 141.594 106.693 141.844 106.624C141.873 106.616 141.886 106.611 141.886 106.611" stroke="#002140" stroke-width="0.99999" stroke-linecap="round" stroke-linejoin="round"/>
<path d="M123.763 90.686C125.273 91.4328 126.317 96.7896 127.015 100.902C127.654 104.68 130.354 109.722 134.48 110.032C134.845 110.061 135.22 110.05 135.608 110C136 109.95 136.383 109.897 136.75 109.847C140.166 109.37 142.438 108.928 142.438 108.928" stroke="#002140" stroke-width="0.99999" stroke-linecap="round" stroke-linejoin="round"/>
<path d="M120.279 114.735C120.279 116.472 122.383 118.746 127.245 118.256C127.615 118.222 128.002 118.169 128.407 118.097C134.098 117.102 136.886 113.736 136.77 110" stroke="#002140" stroke-width="0.99999" stroke-linecap="round" stroke-linejoin="round"/>
<path d="M146.592 119.112C146.592 119.112 146.147 117.713 145.148 115.116C144.566 113.599 143.793 111.671 142.809 109.375C142.732 109.2 142.661 109.026 142.594 108.856C142.268 108.048 142.021 107.307 141.844 106.624C140.728 102.347 142.33 100.404 144.667 99.673C144.951 99.5829 145.234 99.5008 145.513 99.4214C147.969 98.7276 150.123 98.4258 150.123 98.4258C150.123 98.4258 151.51 100.353 150.814 102.845" stroke="#002140" stroke-width="0.99999" stroke-linecap="round" stroke-linejoin="round"/>
<path d="M150.651 103.012C149.896 103.168 149.025 103.29 147.976 103.597C147.734 103.669 147.482 103.748 147.221 103.844C146.32 104.167 145.78 104.604 145.94 105.957C145.997 106.476 146.16 107.127 146.443 107.961C146.564 108.316 146.707 108.703 146.873 109.126C147.628 111.049 148.21 112.667 148.635 113.906C149.261 115.728 149.55 116.744 149.55 116.744" stroke="#002140" stroke-width="0.99999" stroke-linecap="round" stroke-linejoin="round"/>
<path d="M148.497 103.894C148.687 104.421 148.968 104.847 149.304 105.165C150.244 106.068 151.611 106.137 152.6 105.305C152.756 105.175 152.901 105.022 153.035 104.847C154.078 103.475 153.832 99.4664 152.904 97.2236" stroke="#002140" stroke-width="0.99999" stroke-linecap="round" stroke-linejoin="round"/>
<path d="M155.519 96.7393C156.408 99.5964 156.709 103.139 155.448 104.702C154.893 105.39 154.036 105.695 152.795 105.39" stroke="#002140" stroke-width="0.99999" stroke-linecap="round" stroke-linejoin="round"/>
<path d="M157.733 96.3579C157.733 96.3579 159.327 101.426 158.029 103.701C157.681 104.31 157.126 104.717 156.277 104.773C156.065 104.789 155.833 104.781 155.581 104.749" stroke="#002140" stroke-width="0.99999" stroke-linecap="round" stroke-linejoin="round"/>
<path d="M154.478 90.249C156.931 90.9348 158.883 93.8979 159.826 96.8742C160.354 98.5397 160.566 100.213 160.371 101.492C160.159 102.904 159.453 103.841 158.135 103.769" stroke="#002140" stroke-width="0.99999" stroke-linecap="round" stroke-linejoin="round"/>
<path d="M146.004 94.2314C144.728 95.7275 144.783 97.5387 145.478 99.2837" stroke="#002140" stroke-width="0.99999" stroke-linecap="round" stroke-linejoin="round"/>
<path d="M146.476 107.948C146.476 107.948 154.301 106.32 155.327 105.687C155.335 105.684 155.342 105.679 155.349 105.673C155.956 105.266 156.188 104.948 156.277 104.773C156.324 104.683 156.331 104.633 156.331 104.633" stroke="#002140" stroke-width="0.99999" stroke-linecap="round" stroke-linejoin="round"/>
<path d="M145.881 105.97L145.94 105.957L149.271 105.205" stroke="#002140" stroke-width="0.99999" stroke-linecap="round" stroke-linejoin="round"/>
<path d="M127.247 118.283C133.177 118.254 144.852 115.232 145.069 115.15H145.071" stroke="#002140" stroke-width="0.99999" stroke-linecap="round" stroke-linejoin="round"/>
<path d="M148.731 113.869C148.731 113.869 152.213 112.741 153.955 111.994C155.961 111.131 156.247 109.031 155.327 105.687L155.32 105.655" stroke="#002140" stroke-width="0.99999" stroke-linecap="round" stroke-linejoin="round"/>
<path d="M160.218 96.731C162.659 96.1087 164.47 96.9878 165.807 100.404C167.078 103.645 169.748 111.244 169.748 111.244" stroke="#002140" stroke-width="0.99999" stroke-linecap="round" stroke-linejoin="round"/>
<path d="M160.692 101.527C162.2 101.154 162.96 103.02 163.424 104.392C163.888 105.764 166.21 112.143 166.21 112.143" stroke="#002140" stroke-width="0.99999" stroke-linecap="round" stroke-linejoin="round"/>
<path d="M150.71 116.44C150.979 116.297 151.27 116.186 151.579 116.114L166.316 112.669L169.869 111.84L171.022 111.57C173.119 111.08 175.261 112.166 176.238 114.213L189.462 142.819C189.613 143.134 189.714 143.457 189.771 143.785C190.082 145.549 189.092 147.371 187.372 147.863L166.95 153.024C164.142 153.829 161.208 152.309 160.058 149.449L148.923 121.659C148.112 119.639 148.963 117.361 150.71 116.44Z" stroke="#002140" stroke-width="0.99999" stroke-linecap="round" stroke-linejoin="round"/>
<path d="M186.355 156.978C187.278 156.037 187.399 155.238 188.33 152.741C188.571 152.087 188.823 151.467 189.065 150.877C190.198 148.115 191.108 145.975 189.837 143.77" stroke="#002140" stroke-width="0.99999" stroke-linecap="round" stroke-linejoin="round"/>
<path d="M173.457 161.765C175.179 161.323 176.519 160.939 178.064 160.518" stroke="#002140" stroke-width="0.99999" stroke-linecap="round" stroke-linejoin="round"/>
<path d="M151.988 116.069C151.529 116.183 151.105 116.305 150.71 116.44C150.313 116.572 149.948 116.718 149.607 116.88C148.437 117.436 147.576 118.177 146.846 119.292C146.394 119.983 145.994 120.812 145.602 121.829C145.447 122.231 145.303 122.602 145.168 122.943C144.094 125.668 143.638 126.592 143.226 127.81C142.759 129.182 141.77 130.302 143.86 135.537C145.95 140.769 153.338 158.288 154.732 160.907C156.127 163.523 157.869 164.895 162.281 164.27C162.861 164.188 163.51 164.108 164.388 163.931C164.43 163.923 164.472 163.912 164.517 163.905L167.194 159.469L167.446 159.414L171.142 158.598" stroke="#002140" stroke-width="0.99999" stroke-linecap="round" stroke-linejoin="round"/>
<path d="M154.668 149.934C155.512 151.951 156.188 153.519 156.544 154.242C158.496 158.222 159.658 158.971 164.302 158.222C168.946 157.475 184.757 153.013 186.24 152.616C187.903 152.168 188.697 151.414 189.065 150.876C189.317 150.513 189.374 150.249 189.374 150.249" stroke="#002140" stroke-width="0.99999" stroke-linecap="round" stroke-linejoin="round"/>
<path d="M149.701 137.767C150.493 139.731 151.342 141.831 152.168 143.86" stroke="#002140" stroke-width="0.99999" stroke-linecap="round" stroke-linejoin="round"/>
<path d="M145.602 121.829C145.414 122.213 145.269 122.581 145.168 122.943C144.635 124.808 145.192 126.508 146.36 129.431C146.537 129.873 146.809 130.554 147.152 131.412" stroke="#002140" stroke-width="0.99999" stroke-linecap="round" stroke-linejoin="round"/>
<path d="M157.163 118.27L169.509 115.309C171.209 114.902 172.944 115.815 173.682 117.51L180.658 133.94C181.475 135.82 180.488 138.031 178.612 138.529L166.202 141.275C164.016 141.852 161.755 140.682 160.82 138.484L154.587 123.833C153.605 121.521 154.853 118.823 157.163 118.27Z" stroke="#002140" stroke-width="0.99999" stroke-linecap="round" stroke-linejoin="round"/>
<path d="M163.929 119.284L159.364 120.34C157.652 120.706 156.697 122.694 157.395 124.37L159.391 129.187L161.504 134.282L162.256 136.098C163.046 137.994 165.025 139.024 166.947 138.542L168.139 138.243L172.495 137.149L175.698 136.347C177.507 135.891 178.484 133.845 177.746 132.06L175.737 127.291L173.529 122.053L172.648 119.964C172.063 118.55 170.609 117.761 169.168 118.071L167.431 118.473L163.929 119.284Z" stroke="#002140" stroke-width="0.99999" stroke-linecap="round" stroke-linejoin="round"/>
<path d="M164.413 164.079C164.978 165.999 166.037 166.894 167.192 167.209C168.882 167.672 170.772 166.899 171.599 166.306C172.741 165.49 173.265 163.642 172.976 161.857C172.776 160.621 172.186 159.413 171.142 158.598" stroke="#002140" stroke-width="0.99999" stroke-linecap="round" stroke-linejoin="round"/>
<path d="M167.48 159.594C170.269 162.459 170.212 167.072 167.194 167.196" stroke="#002140" stroke-width="0.99999" stroke-linecap="round" stroke-linejoin="round"/>
<path d="M180.793 155.844L181.045 155.788L184.742 154.97" stroke="#002140" stroke-width="0.99999" stroke-linecap="round" stroke-linejoin="round"/>
<path d="M178.24 160.213L180.794 155.844" stroke="#002140" stroke-width="0.99999" stroke-linecap="round" stroke-linejoin="round"/>
<path d="M180.771 163.486C182.504 163.952 184.478 163.086 185.322 162.482C186.718 161.482 187.128 159.043 186.279 157.014C185.958 156.239 185.45 155.521 184.742 154.97" stroke="#002140" stroke-width="0.99999" stroke-linecap="round" stroke-linejoin="round"/>
<path d="M178.077 160.454C178.082 160.473 178.087 160.491 178.094 160.507C178.644 162.332 179.656 163.184 180.769 163.486" stroke="#002140" stroke-width="0.99999" stroke-linecap="round" stroke-linejoin="round"/>
<path d="M181.08 155.968C183.824 158.786 183.957 163.12 180.771 163.486C180.717 163.494 180.665 163.499 180.611 163.502" stroke="#002140" stroke-width="0.99999" stroke-linecap="round" stroke-linejoin="round"/>
<path d="M159.646 129.065L163.942 119.345" stroke="#002140" stroke-width="0.99999" stroke-linecap="round" stroke-linejoin="round"/>
<path d="M161.496 134.298L161.504 134.282L167.48 118.723" stroke="#002140" stroke-width="0.99999" stroke-linecap="round" stroke-linejoin="round"/>
<path d="M168.122 138.161L173.465 122.085" stroke="#002140" stroke-width="0.99999" stroke-linecap="round" stroke-linejoin="round"/>
<path d="M172.475 137.054L175.678 127.32" stroke="#002140" stroke-width="0.99999" stroke-linecap="round" stroke-linejoin="round"/>
<path d="M152.23 144.251L152.46 144.138C152.719 144.013 153.022 144.135 153.138 144.413L155.08 149.015C155.199 149.291 155.083 149.616 154.826 149.743L154.629 149.839L154.597 149.855C154.338 149.979 154.034 149.857 153.918 149.579L151.976 144.977C151.858 144.702 151.973 144.376 152.23 144.251Z" stroke="#002140" stroke-width="0.99999" stroke-linecap="round" stroke-linejoin="round"/>
<path d="M147.295 131.742L147.366 131.708C147.623 131.583 147.926 131.705 148.045 131.983L149.987 136.585C150.103 136.861 149.989 137.187 149.73 137.314L149.548 137.401L149.501 137.425C149.242 137.549 148.938 137.427 148.822 137.149L146.88 132.547C146.764 132.272 146.878 131.946 147.137 131.822L147.295 131.742Z" stroke="#002140" stroke-width="0.99999" stroke-linecap="round" stroke-linejoin="round"/>
<path d="M152.64 85.21C153.874 85.7714 154.74 87.0848 154.74 88.6126C154.74 89.1872 154.619 89.7274 154.402 90.212C153.844 91.4512 152.664 92.3039 151.3 92.3039C150.7 92.3039 150.138 92.1397 149.646 91.8511C148.58 91.2208 147.86 90.0081 147.86 88.6126C147.86 88.4511 147.87 88.2949 147.889 88.1386C148.104 86.3248 149.55 84.9214 151.3 84.9214C151.776 84.9214 152.228 85.0247 152.64 85.21Z" stroke="#002140" stroke-width="0.99999" stroke-linecap="round" stroke-linejoin="round"/>
<path d="M153.484 88.6548C153.484 89.9469 152.507 90.9955 151.302 90.9955C150.098 90.9955 149.118 89.9469 149.118 88.6548C149.118 87.3626 150.096 86.314 151.302 86.314C152.509 86.314 153.484 87.3599 153.484 88.6548Z" stroke="#002140" stroke-width="0.99999" stroke-linecap="round" stroke-linejoin="round"/>
<path d="M144.2 90.3552C144.533 89.8891 145.074 89.3993 145.738 88.9756C146.288 88.6208 146.927 88.3136 147.598 88.0991" stroke="#002140" stroke-width="0.99999" stroke-linecap="round" stroke-linejoin="round"/>
<path d="M146.291 94.0809C146.717 93.6678 147.243 93.2468 147.801 92.8813C148.381 92.5 148.998 92.177 149.575 91.9863" stroke="#002140" stroke-width="0.99999" stroke-linecap="round" stroke-linejoin="round"/>
<path d="M145.77 89.0337L147.685 92.6799" stroke="#002140" stroke-width="0.99999" stroke-linecap="round" stroke-linejoin="round"/>
<path d="M117.934 70.2996L123.388 70.2651H123.395" stroke="#002140" stroke-width="0.99999" stroke-linecap="round" stroke-linejoin="round"/>
<path d="M117.5 72.5422L122.961 72.5078" stroke="#002140" stroke-width="0.99999" stroke-linecap="round" stroke-linejoin="round"/>
<path d="M98.2053 55.8149C95.6438 57.0727 93.4624 59.4135 92.4087 61.1532" stroke="#002140" stroke-width="0.99999" stroke-linecap="round" stroke-linejoin="round"/>
<path d="M101.7 54.9229C100.503 54.9229 99.3182 55.2671 98.2053 55.8126" stroke="#002140" stroke-width="0.99999" stroke-linecap="round" stroke-linejoin="round"/>
<path d="M103.442 55.7622C104.5 57.0094 105.194 58.2804 105.608 59.6256C106.252 61.7148 106.233 63.9841 105.88 66.6347" stroke="#002140" stroke-width="0.99999" stroke-linecap="round" stroke-linejoin="round"/>
<path d="M123.538 19.1015C123.526 19.0777 123.516 19.0512 123.504 19.0274C121.463 14.8304 112.806 12.0077 106.228 14.6741C101.001 16.7925 99.4934 20.2799 98.911 25.3904C98.8962 25.5281 98.8789 25.6631 98.8567 25.7929C98.3138 29.4974 96.4063 30.0587 94.6345 33.8506C94.1657 34.8515 93.7067 36.0775 93.2847 37.6451C92.4432 40.7723 92.5518 43.7883 93.6203 46.5184C94.9109 49.8257 97.6105 52.7119 101.727 54.8647C102.092 55.0554 102.469 55.2407 102.859 55.4208C103.057 55.5135 103.261 55.6008 103.469 55.6829C106.79 57.0307 111.425 57.4968 115.763 56.5515C118.751 55.9054 121.596 54.5893 123.775 52.4312C126.633 49.6059 128.34 45.3374 127.714 39.2365C127.711 39.2312 127.711 39.2259 127.711 39.2206" stroke="#002140" stroke-width="0.99999" stroke-linecap="round" stroke-linejoin="round"/>
<path d="M125.629 32.2032C127.704 29.8783 130.443 30.0107 131.857 31.655C132.178 32.0284 132.432 32.4785 132.592 32.9949C133.708 36.5776 131.443 39.8054 127.714 39.2361C127.321 39.1752 126.914 39.0746 126.49 38.9263" stroke="#002140" stroke-width="0.99999" stroke-linecap="round" stroke-linejoin="round"/>
<path d="M98.6791 25.7633C97.8722 24.5823 95.9696 24.2408 94.3212 24.9451C93.3612 25.3555 92.4902 26.1181 91.9695 27.2753C90.553 30.4211 92.0188 33.3894 94.3039 33.7389" stroke="#002140" stroke-width="0.99999" stroke-linecap="round" stroke-linejoin="round"/>
<path d="M123.492 19.0352C123.492 19.0352 121.456 20.6557 121.572 23.1474C121.688 25.6391 123.546 26.7592 123.546 26.7592C123.546 26.7592 123.198 28.2553 123.662 29.7514C124.126 31.2475 125.629 32.2034 125.629 32.2034" stroke="#002140" stroke-width="0.99999" stroke-linecap="round" stroke-linejoin="round"/>
<path d="M96.8284 30.265C96.8111 30.2518 96.7272 30.1935 96.6137 30.0876C96.1991 29.6984 95.3675 28.6471 95.7204 26.6982" stroke="#002140" stroke-width="0.99999" stroke-linecap="round" stroke-linejoin="round"/>
<path d="M93.2231 30.1246C94.6075 28.835 96.0708 29.685 96.6113 30.0875C96.7346 30.1802 96.8111 30.249 96.826 30.2623" stroke="#002140" stroke-width="0.99999" stroke-linecap="round" stroke-linejoin="round"/>
<path d="M127.324 35.606L127.309 35.6086" stroke="#002140" stroke-width="0.99999" stroke-linecap="round" stroke-linejoin="round"/>
<path d="M129.268 32.9897C129.268 34.9466 127.595 35.5238 127.341 35.6006" stroke="#002140" stroke-width="0.99999" stroke-linecap="round" stroke-linejoin="round"/>
<path d="M130.093 36.6678C129.5 35.222 127.615 35.5451 127.341 35.6007C127.336 35.6033 127.329 35.6033 127.324 35.606C127.314 35.6086 127.309 35.6086 127.309 35.6086" stroke="#002140" stroke-width="0.99999" stroke-linecap="round" stroke-linejoin="round"/>
<path d="M94.2669 24.5905C94.151 24.2171 93.7956 23.1553 94.1436 21.6592C94.4915 20.1631 95.7772 19.5329 95.7772 19.5329C95.7772 19.5329 93.46 15.2882 95.8931 12.1822C98.3312 9.06555 101.12 10.3127 101.12 10.3127C101.12 10.3127 100.752 5.88802 104.949 3.70875C108.55 1.8393 110.872 3.95766 110.872 3.95766C110.872 3.95766 112.15 0.467665 116.098 0.592118C120.627 0.735108 121.093 4.95329 121.093 4.95329C121.093 4.95329 124.111 3.83321 126.549 5.4511C128.99 7.07165 128.639 11.6817 128.639 11.6817C128.639 11.6817 131.082 12.1531 132.124 14.3005C133.518 17.1656 131.776 19.7818 131.776 19.7818C131.776 19.7818 134.744 21.646 134.912 24.8923C135.144 29.378 131.892 31.6208 131.892 31.6208" stroke="#002140" stroke-width="0.99999" stroke-linecap="round" stroke-linejoin="round"/>
<path d="M110.672 23.2242C111.679 21.9187 113.157 21.0952 114.803 21.0952C117.85 21.0952 120.318 23.9126 120.318 27.3867C120.318 27.5324 120.313 27.678 120.303 27.821C120.111 31.0939 117.722 33.6809 114.803 33.6809C112.723 33.6809 110.911 32.3675 109.974 30.4266C109.835 30.1486 109.719 29.8546 109.623 29.5528C109.406 28.8775 109.288 28.1467 109.288 27.3867C109.288 26.6268 109.404 25.9039 109.621 25.2313C109.643 25.1625 109.665 25.0936 109.692 25.0248C109.927 24.3601 110.257 23.7538 110.672 23.2242Z" stroke="#002140" stroke-width="0.99999" stroke-linecap="round" stroke-linejoin="round"/>
<path d="M106.519 31.3083C104.36 31.348 102.714 30.3841 101.774 28.8801C101.196 27.9586 100.885 26.8332 100.885 25.6099C100.885 24.8155 101.028 24.0582 101.287 23.3697C102.075 21.2619 103.943 19.7817 106.122 19.7817C108.165 19.7817 110.011 20.9336 110.583 23.1473" stroke="#002140" stroke-width="0.99999" stroke-linecap="round" stroke-linejoin="round"/>
<path d="M104.138 18.6722C106.171 17.102 109.009 17.4541 110.119 19.0959" stroke="#002140" stroke-width="0.99999" stroke-linecap="round" stroke-linejoin="round"/>
<path d="M113.544 19.4718C115.227 18.1611 118.132 18.4127 119.176 20.4675" stroke="#002140" stroke-width="0.99999" stroke-linecap="round" stroke-linejoin="round"/>
<path d="M101.352 23.3965C102.874 22.9173 105.209 23.1556 107.072 23.7937C108.118 24.1538 109.016 24.6437 109.537 25.2024" stroke="#002140" stroke-width="0.99999" stroke-linecap="round" stroke-linejoin="round"/>
<path d="M109.828 25.0779C111.047 24.5748 112.799 24.5589 114.534 24.874C117.053 25.3268 119.536 26.4734 120.303 27.8212C120.316 27.8424 120.328 27.8609 120.338 27.8821" stroke="#002140" stroke-width="0.99999" stroke-linecap="round" stroke-linejoin="round"/>
<path d="M101.754 28.8748C101.754 28.8748 101.766 28.8748 101.774 28.8801C104.145 29.4308 105.705 28.3187 105.705 28.3187L102.975 25.2656L107.082 26.0123C107.082 26.0123 107.432 24.8287 107.027 23.9575" stroke="#002140" stroke-width="0.99999" stroke-linecap="round" stroke-linejoin="round"/>
<path d="M110.067 30.3738C112.449 31.1231 114.124 29.6879 114.124 29.6879L110.931 26.7593L115.173 26.9447C115.173 26.9447 115.151 25.8325 114.512 25.0249" stroke="#002140" stroke-width="0.99999" stroke-linecap="round" stroke-linejoin="round"/>
<path d="M109.189 29.5635C108.311 29.86 107.331 30.5379 106.583 31.3747C105.64 32.4312 105.068 33.7446 105.537 34.8673C105.552 34.907 105.569 34.9441 105.589 34.9838C106.808 37.4782 110.001 36.1066 110.001 36.1066C110.001 36.1066 110.176 37.5444 111.859 37.4782C112.646 37.4464 112.965 37.1022 113.088 36.7659C113.209 36.4323 113.137 36.1066 113.137 36.1066" stroke="#002140" stroke-width="0.99999" stroke-linecap="round" stroke-linejoin="round"/>
<path d="M105.241 34.8591C98.3312 34.6737 93.5118 40.8408 93.6278 46.51" stroke="#002140" stroke-width="0.99999" stroke-linecap="round" stroke-linejoin="round"/>
<path d="M113.137 36.7925C118.248 38.8473 123.24 50.9352 115.75 56.48" stroke="#002140" stroke-width="0.99999" stroke-linecap="round" stroke-linejoin="round"/>
<path d="M103.316 49.5342C102.003 52.0974 97.228 50.9429 97.228 46.203C97.228 41.4632 101.287 37.3642 107.913 38.7094C114.539 40.0545 116.508 44.4104 116.032 48.5094C115.553 52.6084 112.57 54.4011 110.24 54.0833C108.508 53.8424 106.719 52.9288 106.837 50.6887" stroke="#002140" stroke-width="0.99999" stroke-linecap="round" stroke-linejoin="round"/>
<path d="M100.345 41.8153C100.194 42.0933 100.133 42.2866 100.133 42.2866C99.2689 44.5188 99.871 47.646 103.407 49.3116C103.918 49.5552 104.488 49.7644 105.125 49.9365C105.737 50.1033 106.322 50.2119 106.882 50.2728C110.946 50.7071 113.589 48.5225 113.998 46.3856C114.156 45.5621 114.092 44.7677 113.863 44.0581C113.416 42.6758 112.338 41.614 111.032 41.2857C108.802 40.7217 107.158 41.7755 107.158 41.7755C107.158 41.7755 106.062 40.0914 104.254 39.8452C102.04 39.5433 100.915 40.8329 100.434 41.6537C100.402 41.7067 100.372 41.7596 100.347 41.8073" stroke="#002140" stroke-width="0.99999" stroke-linecap="round" stroke-linejoin="round"/>
<path d="M100.347 41.8077C100.374 41.7547 100.404 41.7018 100.434 41.6541C101.06 40.6241 102.492 40.4572 103.558 41.4026C103.595 41.437 103.634 41.4714 103.671 41.5058C104.5 42.2578 105.312 43.1528 106.539 43.5871C106.751 43.6639 106.975 43.7248 107.215 43.7698C108.293 43.9711 109.754 43.3753 111.03 43.1025C111.745 42.9516 112.404 42.9013 112.905 43.1476C113.248 43.317 113.52 43.6745 113.673 44.1273C114.141 45.5016 113.534 47.7259 110.699 48.0065C110.45 48.0304 110.201 48.0516 109.954 48.0621C108.347 48.1495 106.815 47.9959 105.524 47.6835C104.52 47.4399 103.664 47.0983 103.034 46.6985C102.758 46.521 102.462 46.3118 102.168 46.0788C101.06 45.1865 99.9943 43.9181 100.132 42.5862C100.162 42.2976 100.236 42.0381 100.345 41.8156" stroke="#002140" stroke-width="0.99999" stroke-linecap="round" stroke-linejoin="round"/>
<path d="M106.519 43.645L105.589 47.3839" stroke="#002140" stroke-width="0.99999" stroke-linecap="round" stroke-linejoin="round"/>
<path d="M103.558 41.6514L102.339 46.0125" stroke="#002140" stroke-width="0.99999" stroke-linecap="round" stroke-linejoin="round"/>
<path d="M111.047 43.208L109.944 47.8816" stroke="#002140" stroke-width="0.99999" stroke-linecap="round" stroke-linejoin="round"/>
<path d="M118.248 156.604C118.174 155.354 117.838 154.401 117.35 153.71C116.646 152.709 115.62 152.256 114.588 152.243C113.016 152.227 111.425 153.238 110.931 154.92" stroke="#002140" stroke-width="0.99999" stroke-linecap="round" stroke-linejoin="round"/>
<path d="M117.493 163.83C116.585 159.347 113.845 156.361 110.887 155.031C108.172 153.808 105.278 153.983 103.442 155.669C99.7821 159.032 103.558 164.204 103.558 164.204" stroke="#002140" stroke-width="0.99999" stroke-linecap="round" stroke-linejoin="round"/>
<path d="M103.573 164.312C103.817 164.371 104.066 164.426 104.318 164.479C108.821 165.432 114.556 165.652 117.599 164.254C118.107 164.021 118.541 163.743 118.88 163.415C120.33 162.014 122.011 159.7 123.294 157.401C123.906 156.308 124.427 155.217 124.79 154.229C124.886 153.972 124.97 153.72 125.041 153.479" stroke="#002140" stroke-width="0.99999" stroke-linecap="round" stroke-linejoin="round"/>
<path d="M125.041 153.48C124.925 150.249 121.673 148.504 120.279 148.877" stroke="#002140" stroke-width="0.99999" stroke-linecap="round" stroke-linejoin="round"/>
<path d="M117.485 153.612C119.255 153.352 120.249 152.256 120.461 150.863C120.526 150.429 120.516 149.968 120.429 149.492C120.392 149.291 120.343 149.084 120.279 148.877" stroke="#002140" stroke-width="0.99999" stroke-linecap="round" stroke-linejoin="round"/>
<path d="M120.511 150.871C120.047 153.736 121.91 156.49 122.717 157.102" stroke="#002140" stroke-width="0.99999" stroke-linecap="round" stroke-linejoin="round"/>
<path d="M104.569 164.452C104.481 164.458 104.397 164.466 104.318 164.479C102.492 164.738 102.674 166.528 104.453 166.886C106.312 167.262 114.82 167.942 117.949 166.711C121.678 165.244 125.693 157.957 126.433 155.73C127.015 153.985 125.505 153.114 124.807 154.237" stroke="#002140" stroke-width="0.99999" stroke-linecap="round" stroke-linejoin="round"/>
<path d="M52.114 139.781C52.8864 139.506 53.5922 139.511 54.1967 139.726C55.2233 140.083 55.9661 141.031 56.2646 142.194C56.6101 143.533 56.3633 145.159 55.2776 146.497C55.0974 146.716 54.8951 146.931 54.6681 147.132" stroke="#002140" stroke-width="0.99999" stroke-linecap="round" stroke-linejoin="round"/>
<path d="M47.2972 151.978C52.8297 149.2 53.4491 143.806 51.6033 139.861C50.4657 137.43 48.3929 135.55 45.9597 135.171C39.714 134.197 38.875 140.902 38.875 140.902C38.875 140.902 38.8207 145.247 43.3489 149.359C44.6297 150.522 45.9523 151.409 47.2553 152.071C50.557 153.752 53.728 154.006 55.7613 153.744C56.2351 153.683 56.662 153.585 57.0495 153.461C58.3894 153.019 59.2284 152.216 59.6701 151.247C60.0551 150.413 60.1439 149.455 60.0033 148.504C59.8281 147.31 59.3567 146.634 59.0285 146.298C58.8311 146.094 58.6855 146.012 58.6855 146.012C57.6392 146.883 55.939 147.074 55.3566 146.576" stroke="#002140" stroke-width="0.99999" stroke-linecap="round" stroke-linejoin="round"/>
<path d="M58.6854 146.386C57.4072 148.006 56.4102 151.369 56.9901 153.239" stroke="#002140" stroke-width="0.99999" stroke-linecap="round" stroke-linejoin="round"/>
<path d="M38.8749 140.902C37.5967 141.026 36.6293 142.324 37.5572 144.816C38.4875 147.307 42.1273 152.367 46.4235 154.361C50.7198 156.355 55.248 156.355 58.1524 155.233C61.047 154.112 60.5929 151.385 59.67 151.247C59.67 151.245 59.6651 151.245 59.6626 151.245" stroke="#002140" stroke-width="0.99999" stroke-linecap="round" stroke-linejoin="round"/>
<path d="M58.6855 146.012L59.3123 143.02" stroke="#002140" stroke-width="0.99999" stroke-linecap="round" stroke-linejoin="round"/>
<path d="M114.124 151.369L114.588 152.243" stroke="#002140" stroke-width="0.99999" stroke-linecap="round" stroke-linejoin="round"/>
<path d="M72.5513 86.0732C71.2731 88.8165 72.1688 90.5668 74.6488 93.8C76.8475 96.665 81.0278 99.6572 85.092 101.278C87.0538 102.062 88.6208 102.493 89.9238 102.731C90.6344 102.861 91.2662 102.933 91.8411 102.972C92.3988 103.012 92.9047 103.02 93.3785 103.02C95.2367 103.02 95.8166 101.9 96.2805 99.9061C96.7444 97.9122 97.5193 96.665 99.75 96.2255" stroke="#002140" stroke-width="0.99999" stroke-linecap="round" stroke-linejoin="round"/>
<path d="M89.9163 102.779C89.9163 102.779 89.218 105.263 89.4524 106.137C89.6844 107.008 91.2489 107.133 91.3649 106.137C91.4808 105.139 91.8288 103.145 91.8288 103.145" stroke="#002140" stroke-width="0.99999" stroke-linecap="round" stroke-linejoin="round"/>
<path d="M133.286 79.7261C133.286 79.7261 133.291 79.7499 133.293 79.7605C133.752 81.855 133.964 83.5894 133.735 84.9531" stroke="#002140" stroke-width="0.99999" stroke-linecap="round" stroke-linejoin="round"/>
<path d="M91.5994 49.7646C89.1712 52.5053 84.3049 64.3178 88.268 73.7604" stroke="#FED607" stroke-width="0.99999" stroke-linecap="round" stroke-linejoin="round"/>
<path d="M94.7949 77.3401C102.235 79.0904 115.459 72.8651 120.163 60.5283" stroke="#FED607" stroke-width="0.99999" stroke-linecap="round" stroke-linejoin="round"/>
<path d="M94.5754 77.2929C94.383 78.2488 94.0128 79.2391 93.4699 80.1738C91.7574 83.1263 88.9541 84.4397 87.2119 83.1051C85.4697 81.7732 85.4475 78.2965 87.1625 75.3413C87.5031 74.7561 87.8856 74.2345 88.2952 73.787C89.9461 71.9732 92.0239 71.3403 93.4206 72.4074C94.61 73.3183 94.9974 75.2301 94.5754 77.2929Z" stroke="#002140" stroke-width="0.99999" stroke-linecap="round" stroke-linejoin="round"/>
<path d="M98.215 55.7939C98.215 55.7939 98.2126 55.7992 98.2052 55.8125V55.8151C98.0226 56.2494 95.0589 63.2161 94.2964 65.3901C92.2926 71.0911 100.044 74.642 102.975 67.384C104.014 64.8129 105.47 59.6732 105.47 59.6732" stroke="#002140" stroke-width="0.99999" stroke-linecap="round" stroke-linejoin="round"/>
<path d="M99.8735 66.6505C99.5749 67.8632 98.726 68.6761 97.9758 68.4643C97.2256 68.2525 96.8579 67.0953 97.1565 65.8826C97.4551 64.6698 98.304 63.8569 99.0542 64.0687C99.8044 64.2806 100.17 65.4377 99.8735 66.6505Z" stroke="#002140" stroke-width="0.99999" stroke-linecap="round" stroke-linejoin="round"/>
<path d="M91.8585 78.8393C90.9874 80.5154 89.5907 81.3919 88.7394 80.7961C87.888 80.1976 87.9028 78.3547 88.7739 76.6759C89.645 74.9997 91.0392 74.1233 91.8931 74.7191C92.7444 75.3175 92.7296 77.1605 91.8585 78.8393Z" stroke="#002140" stroke-width="0.99999" stroke-linecap="round" stroke-linejoin="round"/>
<path d="M102.195 60.2955C101.897 61.5083 101.048 62.3212 100.298 62.1093C99.5477 61.8975 99.18 60.7403 99.4786 59.5276C99.7771 58.3148 100.626 57.5019 101.376 57.7137C102.126 57.9256 102.494 59.0827 102.195 60.2955Z" stroke="#002140" stroke-width="0.99999" stroke-linecap="round" stroke-linejoin="round"/>
<path d="M49.908 74.9835C49.7748 74.7452 49.6588 74.3083 49.4688 73.8555C49.1603 73.1167 48.6618 72.3276 47.5835 72.2508C45.8437 72.1264 44.6272 72.7804 44.1016 74.1203C43.951 74.5042 43.9165 75.002 43.9658 75.5634C44.0201 76.2227 44.1879 76.9747 44.4051 77.7374C44.6 78.4152 44.832 79.1063 45.059 79.7498C45.2096 80.1814 45.3601 80.5918 45.4933 80.9652C45.7524 81.6854 46.3348 82.0376 46.89 82.0403C47.581 82.0429 48.23 81.5054 48.1658 80.4674C48.0326 78.3199 47.4675 77.3508 47.4675 77.3508" stroke="#002140" stroke-width="0.99999" stroke-linecap="round" stroke-linejoin="round"/>
<path d="M50.1399 77.8516C52.346 77.976 52.6939 80.4677 52.6939 80.4677" stroke="#002140" stroke-width="0.99999" stroke-linecap="round" stroke-linejoin="round"/>
<path d="M47.9338 87.8185C51.0678 86.9473 53.2739 84.58 53.5058 81.4131" stroke="#002140" stroke-width="0.99999" stroke-linecap="round" stroke-linejoin="round"/>
<path d="M42.0557 85.7529C42.036 85.8588 42.0211 85.9647 42.0113 86.0733C41.8632 87.8156 42.8231 88.5676 44.5653 88.1916C44.5999 88.1837 44.6221 88.1625 44.6319 88.1334C44.743 87.8474 44.0052 86.6373 45.2612 86.0733C45.6585 85.8958 46.0829 85.7184 46.4802 85.5251C47.4796 85.0353 48.2989 84.4368 48.0497 83.4571C47.8597 82.721 47.4698 82.3794 46.8775 82.337C46.3717 82.3052 45.7153 82.4906 44.9133 82.8348C43.3093 83.5233 42.2975 84.5295 42.0557 85.7529Z" stroke="#002140" stroke-width="0.99999" stroke-linecap="round" stroke-linejoin="round"/>
<path d="M42.0113 85.7422C41.2932 85.0088 40.9823 84.0396 41.192 83.0784C41.4536 81.863 42.5418 80.6635 44.6813 79.9697" stroke="#002140" stroke-width="0.99999" stroke-linecap="round" stroke-linejoin="round"/>
<path d="M41.1971 83.0837L41.1922 83.0784C40.4889 82.4959 40.1014 81.5744 40.3606 80.629C40.6542 79.554 41.7918 78.4471 44.2644 77.7852" stroke="#002140" stroke-width="0.99999" stroke-linecap="round" stroke-linejoin="round"/>
<path d="M43.6844 75.5928C43.4919 75.6245 43.3043 75.659 43.1242 75.7013C41.6535 76.0244 40.5874 76.6281 39.9779 77.3537C39.1735 78.3122 39.1562 79.4853 40.0297 80.5259" stroke="#002140" stroke-width="0.99999" stroke-linecap="round" stroke-linejoin="round"/>
<path d="M36.4839 75.3228C36.4839 75.3228 41.8955 72.3677 43.0553 75.3572" stroke="#002140" stroke-width="0.99999" stroke-linecap="round" stroke-linejoin="round"/>
<path d="M43.0552 93.3019C43.5191 93.053 46.8727 91.8058 47.571 90.0608C47.8277 89.4174 47.7783 88.6336 47.6179 87.9001C47.3366 86.6397 46.7172 85.5249 46.7172 85.5249" stroke="#002140" stroke-width="0.99999" stroke-linecap="round" stroke-linejoin="round"/>
<path d="M42.0115 90.5537C42.0115 90.5537 45.3108 89.5024 44.6321 88.1334C44.6297 88.1308 44.6297 88.1281 44.6272 88.1255" stroke="#002140" stroke-width="0.99999" stroke-linecap="round" stroke-linejoin="round"/>
<path d="M37.4116 78.1666C37.4116 78.1666 38.9317 77.3802 39.978 77.3537C39.9977 77.3511 40.0175 77.3511 40.0372 77.3511" stroke="#002140" stroke-width="0.99999" stroke-linecap="round" stroke-linejoin="round"/>
<path d="M45.2415 102.869C45.4463 101.826 45.392 100.722 45.0293 99.6996C44.4 97.9281 43.6326 95.7806 42.7862 93.4134C42.5912 92.8732 42.3938 92.3198 42.1915 91.7557C42.0582 91.3903 41.9274 91.0196 41.7917 90.6436C40.7429 87.7229 39.6127 84.5851 38.4924 81.487C38.0976 80.3855 37.7003 79.2892 37.3104 78.2088C36.9674 77.2556 36.6268 76.3182 36.2962 75.3994C35.0377 71.9147 33.8803 68.7186 32.9796 66.2322C31.9457 63.3724 28.9302 61.9769 26.2799 63.1288C25.162 63.616 23.9109 64.1615 22.5882 64.7361C18.218 66.632 13.0877 68.843 9.59099 70.31C8.81368 70.6357 8.16961 71.1679 7.69088 71.822C6.74576 73.1142 6.44224 74.891 7.03201 76.5353L8.57678 80.825L13.0704 93.2968L19.4173 110.919C20.2637 113.278 22.6179 114.531 24.8388 113.908C25.0386 113.856 25.2385 113.784 25.4359 113.697L34.4726 110.032L42.2408 106.883C43.4697 106.338 44.3951 105.266 44.9059 103.995C45.0515 103.637 45.1625 103.264 45.239 102.882" stroke="#002140" stroke-width="0.99999" stroke-linecap="round" stroke-linejoin="round"/>
<path d="M43.1021 109.622C43.1983 109.33 43.297 109.039 43.4031 108.753C43.6869 107.996 44.4395 105.541 44.9059 103.995C45.054 103.507 45.1724 103.11 45.2391 102.883C45.2391 102.877 45.2415 102.875 45.2415 102.869C45.2465 102.856 45.2514 102.843 45.2539 102.83" stroke="#002140" stroke-width="0.99999" stroke-linecap="round" stroke-linejoin="round"/>
<path d="M7.98454 71.3691C7.87596 71.5121 7.76985 71.6578 7.66621 71.8008C6.21521 73.7947 5.02333 75.7594 4.0634 77.3906C3.29595 78.6987 2.67657 79.7896 2.1929 80.5099C0.554367 82.9592 1.31194 84.9611 2.35824 88.324C3.40206 91.6895 12.7348 115.82 14.0131 119.061C15.2913 122.3 17.8306 123.788 22.7092 122.292C27.5853 120.798 36.1777 116.948 39.1069 115.497C41.7744 114.176 42.3716 111.84 43.0996 109.624" stroke="#002140" stroke-width="0.99999" stroke-linecap="round" stroke-linejoin="round"/>
<path d="M4.15231 77.2104C4.12023 77.2714 4.09062 77.3323 4.06348 77.3905C3.46877 78.6536 3.61436 79.4824 4.50272 82.4613C5.43057 85.5753 15.9996 112.312 17.1594 115.357C18.2057 118.097 21.1546 119.315 23.183 118.606C28.5255 116.736 40.3112 111.39 41.2587 111.078C42.273 110.744 42.8134 110.13 43.0996 109.624C43.0996 109.624 43.0996 109.621 43.1021 109.621C43.3538 109.176 43.4032 108.819 43.4032 108.819" stroke="#002140" stroke-width="0.99999" stroke-linecap="round" stroke-linejoin="round"/>
<path d="M8.66572 80.7881C8.49051 79.4006 8.69533 77.8409 9.53187 76.7632C10.3659 75.6882 11.8169 75.1294 13.0434 75.6087C13.6924 75.8629 14.2377 76.3713 14.8941 76.6017C15.5875 76.8427 16.3402 76.75 17.0583 76.6149C18.4575 76.3501 20.1157 75.5743 20.1873 74.0517C20.2613 72.5133 18.5858 71.1098 19.1632 69.6985C19.6321 68.5466 21.1299 68.5599 22.196 68.0356C22.8178 67.7284 23.3558 67.1432 23.4718 66.4203C23.5853 65.7239 23.2102 64.9348 22.5883 64.7362C22.5637 64.7256 22.5365 64.7177 22.5094 64.7124" stroke="#002140" stroke-width="0.99999" stroke-linecap="round" stroke-linejoin="round"/>
<path d="M32.9796 66.2323C31.4916 65.9251 30.2282 66.2323 29.1325 67.3603C28.0394 68.483 27.4915 70.1883 27.7087 71.7983C27.8666 72.9554 28.3898 74.0384 28.4638 75.2062C28.5378 76.3739 27.9036 77.7561 26.8154 77.8038C26.3687 77.825 25.9443 77.6132 25.5051 77.539C24.2169 77.3139 22.9806 78.2566 22.2181 79.3926C21.7098 80.1525 21.3297 81.0475 21.3174 81.9823C21.3051 82.9196 21.7147 83.8941 22.4723 84.3548C23.5457 85.0115 25.278 84.7494 25.6951 85.9992C26.0307 87.0028 25.088 88.0169 25.13 89.0814C25.1695 90.0876 26.1417 90.8423 27.077 90.837C28.0147 90.8317 28.871 90.2386 29.515 89.5104C30.1394 88.806 30.6205 87.9534 30.9167 87.0346C31.1708 86.2375 31.2893 85.3875 31.62 84.6223C31.9482 83.8544 32.5651 83.15 33.3473 83.0732C33.9642 83.0123 34.5466 83.346 35.1413 83.5366C35.7336 83.7273 36.4887 83.7193 36.844 83.1738C37.1081 82.774 37.0538 82.2232 37.2635 81.7863C37.4486 81.4024 38.0779 81.2779 38.2309 81.5957C38.2506 81.6354 38.2629 81.6857 38.2654 81.7413" stroke="#002140" stroke-width="0.99999" stroke-linecap="round" stroke-linejoin="round"/>
<path d="M13.1519 93.2622C13.3172 92.2427 14.1291 91.3848 15.0816 91.2233C16.0341 91.0591 17.0533 91.6072 17.5048 92.5208C17.9243 93.3681 17.8602 94.3955 18.1563 95.3038C18.5191 96.4106 19.4543 97.2818 20.5302 97.5095C21.6036 97.7346 22.7783 97.3109 23.5038 96.4318C23.943 95.8996 24.2243 95.227 24.7055 94.7371C25.9418 93.4899 28.3404 94.2287 28.7722 95.9896C29.2337 97.8802 27.7013 99.6279 26.196 100.729C25.626 101.15 25.0238 101.553 24.5994 102.141C24.175 102.729 23.9603 103.56 24.2663 104.227C24.6043 104.966 25.4804 105.329 25.7271 106.107C26.0775 107.217 24.9547 108.207 23.9356 108.623C22.914 109.041 21.6752 109.452 21.3667 110.574C21.1126 111.493 21.6752 112.492 22.4402 112.987C23.2076 113.479 23.9455 113.786 24.8338 113.884" stroke="#002140" stroke-width="0.99999" stroke-linecap="round" stroke-linejoin="round"/>
<path d="M34.4184 109.876C33.4758 109.523 32.617 108.774 32.2789 107.741C31.9384 106.711 32.2321 105.409 33.076 104.834C33.5942 104.482 34.2284 104.431 34.8157 104.259C36.0323 103.905 37.2118 102.668 36.9355 101.315C36.7331 100.317 35.8398 99.6784 35.4474 98.7516C35.0008 97.7004 35.3043 96.3711 36.0545 95.5582C36.8071 94.7479 37.9299 94.4328 38.9713 94.5864C39.4846 94.6632 39.9954 94.8432 40.5111 94.7956C41.74 94.6817 42.579 93.0135 42.1102 91.7875C42.0806 91.7081 42.0435 91.6313 42.0041 91.5571" stroke="#002140" stroke-width="0.99999" stroke-linecap="round" stroke-linejoin="round"/>
<path d="M69.7802 62.7715C69.7505 62.8218 69.7234 62.8721 69.6987 62.9198C68.7388 64.7071 69.0349 66.1979 69.6494 67.3842" stroke="#002140" stroke-width="0.99999" stroke-linecap="round" stroke-linejoin="round"/>
<path d="M93.6276 46.5103L93.6202 46.5182C93.1045 47.0743 92.6825 47.7257 92.3444 48.4538C92.1421 48.8908 91.9694 49.3542 91.8262 49.8387C90.8515 53.1566 91.2389 57.4781 92.4086 61.1534" stroke="#002140" stroke-width="0.99999" stroke-linecap="round" stroke-linejoin="round"/>
<path d="M105.88 66.6348C110.06 66.0443 116.062 64.5297 120.027 60.3804C120.807 59.5674 121.505 58.6512 122.097 57.6185C122.932 56.1701 123.553 54.494 123.879 52.5557" stroke="#002140" stroke-width="0.99999" stroke-linecap="round" stroke-linejoin="round"/>
</svg>