<svg xmlns="http://www.w3.org/2000/svg" fill="none" viewBox="0 0 191 168"><path fill="#ff7101" d="M189.837 143.769c1.271 2.206.361 4.346-.772 7.108-.368.537-1.162 1.292-2.825 1.739-1.483.397-17.294 4.859-21.938 5.606-4.644.749-5.806 0-7.758-3.98-.356-.723-1.032-2.29-1.876-4.308l-.039-.095.197-.096a.566.566 0 0 0 .254-.728l-1.942-4.602a.5.5 0 0 0-.678-.276l-.23.114-.062-.392a1922 1922 0 0 1-2.467-6.092l-.153-.366.182-.087a.57.57 0 0 0 .257-.728l-1.942-4.603c-.119-.278-.422-.399-.679-.275l-.071.034-.143-.331-.792-1.98c-1.168-2.924-1.725-4.624-1.192-6.488q.201-.511.434-1.114c.392-1.017.792-1.846 1.244-2.537.73-1.115 1.591-1.856 2.761-2.412a10 10 0 0 1 1.103-.44c-1.747.921-2.598 3.199-1.787 5.219l11.135 27.79c1.15 2.86 4.084 4.38 6.892 3.575l20.422-5.161c1.72-.492 2.71-2.314 2.399-4.078z"/><path fill="#ffa75a" d="M150.71 116.44a3.6 3.6 0 0 1 .869-.326l14.737-3.445 3.553-.829 1.153-.27c2.097-.49 4.239.596 5.216 2.643l13.224 28.606q.225.473.309.966c.311 1.764-.679 3.586-2.399 4.078l-20.422 5.161c-2.808.805-5.742-.715-6.892-3.575l-11.135-27.79c-.811-2.02.04-4.298 1.787-5.219m27.902 22.089c1.876-.498 2.863-2.709 2.046-4.589l-6.976-16.43c-.738-1.695-2.473-2.609-4.173-2.201l-12.346 2.961c-2.31.553-3.558 3.251-2.576 5.563l6.233 14.651c.935 2.198 3.196 3.368 5.382 2.791z"/><path fill="#ff7101" d="M186.24 152.616c1.663-.447 2.458-1.202 2.825-1.739-.242.59-.493 1.21-.735 1.864-.93 2.497-1.051 3.296-1.974 4.236l-.077.038a5 5 0 0 0-1.537-2.045l-3.697.819-.251.055-2.554 4.369-.163.241q.007.029.017.053l-.03.011c-1.544.421-2.884.805-4.607 1.247l-.481.093c-.2-1.237-.79-2.444-1.834-3.26l-3.696.816-.252.055-2.677 4.435-.129.027c-.878.177-1.527.257-2.107.339-4.412.625-6.154-.747-7.549-3.363-1.394-2.619-8.782-20.138-10.872-25.37-2.09-5.235-1.101-6.355-.634-7.727.412-1.218.868-2.142 1.942-4.867-.533 1.865.024 3.564 1.192 6.488l.792 1.98.143.331-.158.08c-.259.124-.373.45-.257.725l1.942 4.603a.5.5 0 0 0 .679.275l.047-.024.153.366a1792 1792 0 0 0 2.468 6.093l.061.391a.565.565 0 0 0-.254.726l1.942 4.602c.116.278.42.4.679.275l.032-.015.039.095c.844 2.018 1.52 3.585 1.876 4.308 1.952 3.98 3.114 4.729 7.758 3.98 4.644-.747 20.455-5.209 21.938-5.606"/><path fill="#b0d9ff" d="M186.279 157.014c.849 2.029.439 4.468-.957 5.468-.844.604-2.818 1.47-4.551 1.004 3.186-.365 3.053-4.7.309-7.518l-.035-.18 3.697-.818a5 5 0 0 1 1.537 2.044"/><path fill="#002140" d="M181.08 155.969c2.744 2.817 2.877 7.152-.309 7.517-1.113-.302-2.124-1.154-2.675-2.979l-.017-.053.163-.241 2.554-4.369.252-.055.034.18z"/><path fill="#ffc68c" d="m161.504 134.282.752 1.816c.79 1.896 2.769 2.926 4.691 2.444l1.192-.299 4.356-1.093 3.203-.803c1.809-.455 2.786-2.502 2.048-4.287l-2.009-4.769-2.208-5.237-.881-2.09c-.585-1.414-2.039-2.203-3.48-1.893l-1.737.403-3.502.81-4.565 1.056c-1.712.366-2.667 2.354-1.969 4.031l1.996 4.816zm19.154-.342c.817 1.88-.17 4.091-2.046 4.589l-12.41 2.746c-2.186.577-4.447-.593-5.382-2.791l-6.233-14.651c-.982-2.312.266-5.01 2.576-5.563l12.346-2.961c1.7-.407 3.435.506 4.173 2.201z"/><path fill="#002140" d="M177.746 132.06c.738 1.785-.24 3.832-2.048 4.287l-3.203.802-.02-.095 3.203-9.734.059-.029z"/><path fill="#fffaf0" d="m175.737 127.291-.059.029-3.203 9.734.02.096-4.356 1.093-.017-.082 5.343-16.076.064-.031z"/><path fill="#002140" d="m172.648 119.964.881 2.089-.065.032-5.342 16.076.017.082-1.192.299c-1.922.482-3.901-.548-4.691-2.444l-.752-1.816 5.976-15.56-.049-.249 1.737-.402c1.441-.31 2.895.479 3.48 1.893"/><path fill="#b0d9ff" d="M172.976 161.857c.289 1.785-.235 3.633-1.377 4.449-.827.593-2.717 1.366-4.407.903v-.013c3.02-.125 3.077-4.738.288-7.603l-.034-.18 3.696-.815c1.044.815 1.634 2.023 1.834 3.259"/><path fill="#f25730" d="m169.748 111.244.121.596-3.553.829-.106-.527s-2.323-6.379-2.786-7.75-1.224-3.239-2.732-2.866l-.321-.034c.195-1.279-.017-2.953-.545-4.618l.392-.143c2.441-.622 4.252.257 5.589 3.673 1.271 3.241 3.941 10.84 3.941 10.84"/><path fill="#002140" d="M167.48 159.594c2.789 2.865 2.732 7.477-.286 7.602v.013c-1.157-.315-2.216-1.21-2.781-3.13l-.025-.148q.062-.014.129-.026l2.677-4.436.252-.055z"/><path fill="#fffaf0" d="m167.431 118.474.049.249-5.976 15.559-2.113-5.095.255-.122 4.296-9.72-.013-.061z"/><path fill="#002140" d="m163.929 119.284.013.061-4.296 9.72-.255.122-1.996-4.817c-.698-1.676.257-3.664 1.969-4.03z"/><path fill="#a65e3a" d="M152.6 105.305c-.989.832-2.356.763-3.297-.14a3.26 3.26 0 0 1-.807-1.271l-.52-.297c1.049-.307 1.92-.429 2.675-.585l.163-.167c.695-2.491-.691-4.42-.691-4.42s-2.155.303-4.61.996l-.035-.137c-.695-1.745-.75-3.556.526-5.053l-.007-.02.293-.13c.427-.413.953-.835 1.511-1.2.579-.381 1.196-.704 1.774-.895l.071-.135a3.25 3.25 0 0 0 1.654.453c1.364 0 2.544-.853 3.102-2.092l.076.037c2.453.686 4.405 3.649 5.348 6.625.528 1.666.74 3.339.545 4.618-.212 1.412-.918 2.349-2.236 2.277l-.106-.068c-.348.609-.903 1.016-1.752 1.072a3.5 3.5 0 0 1-.696-.024l-.133-.048c-.555.689-1.412.993-2.653.689z"/><path fill="#ffd7b0" d="M155.327 105.687c-1.027.633-8.852 2.261-8.852 2.261l-.032.013c-.283-.834-.446-1.485-.503-2.004l3.331-.752.032-.04c.941.903 2.308.972 3.297.14l.195.085c1.241.305 2.098 0 2.653-.688l.133.047q.378.048.696.024c-.089.175-.321.493-.928.9z"/><path fill="#ff7101" d="M155.327 105.687c.92 3.344.634 5.444-1.372 6.307-1.742.747-5.224 1.875-5.224 1.875l-.096.037a117 117 0 0 0-1.762-4.78q-.249-.633-.43-1.165l.032-.013s7.825-1.629 8.852-2.261"/><path fill="#fed607" d="M154.74 88.613a3.9 3.9 0 0 1-.338 1.599c-.558 1.24-1.738 2.092-3.102 2.092-.6 0-1.162-.164-1.654-.453-1.066-.63-1.786-1.843-1.786-3.238q0-.242.029-.474c.215-1.814 1.661-3.218 3.411-3.218.476 0 .928.104 1.34.289 1.234.561 2.1 1.875 2.1 3.403m-1.256.042c0-1.295-.977-2.34-2.182-2.34-1.204 0-2.184 1.045-2.184 2.34s.978 2.34 2.184 2.34 2.182-1.048 2.182-2.34"/><path fill="#fed607" d="M151.302 86.314c1.205 0 2.182 1.046 2.182 2.34 0 1.296-.977 2.342-2.182 2.342-1.204 0-2.184-1.05-2.184-2.341s.978-2.341 2.184-2.341"/><path fill="#a65e3a" d="m152.795 85.202-.155.008a3.25 3.25 0 0 0-1.34-.288c-1.75 0-3.196 1.403-3.411 3.217l-.291-.04a8 8 0 0 0-1.86.876c-.664.424-1.205.914-1.538 1.38l-.081.058c-1.157-1.88-2.744-3.919-4.829-5.936a37.6 37.6 0 0 0-5.017-4.07v-.005c-.578-5.236 3.077-10.65 7.605-11.024l.067-.077c4.985 5.016 9.377 10.907 10.85 15.901"/><path fill="#f25730" d="M145.94 105.957c.057.519.22 1.17.504 2.004q.18.53.429 1.165c.755 1.923 1.337 3.54 1.762 4.78.627 1.821.915 2.838.915 2.838l.057.135c-1.17.556-2.031 1.298-2.761 2.413l-.254-.18s-.445-1.399-1.444-3.996a162 162 0 0 0-2.339-5.741 14 14 0 0 1-.215-.519 18 18 0 0 1-.75-2.232c-1.116-4.277.486-6.22 2.823-6.951q.427-.133.846-.252c2.456-.693 4.61-.995 4.61-.995s1.387 1.927.691 4.419l-.163.167c-.755.156-1.626.278-2.675.585-.242.072-.494.151-.755.246-.901.324-1.441.76-1.281 2.114"/><path fill="#fed607" d="m149.646 91.851-.071.135c-.578.191-1.195.514-1.774.895l-.116-.2-1.915-3.647-.032-.058a8 8 0 0 1 1.86-.877l.291.04a4 4 0 0 0-.029.474c0 1.395.72 2.608 1.786 3.238"/><path fill="#ffa75a" d="m149.303 105.165-.032.039-3.331.752c-.16-1.353.38-1.79 1.281-2.113.261-.095.513-.174.755-.246l.52.297c.19.527.472.953.807 1.271"/><path fill="#fed607" d="m147.685 92.68.116.201c-.558.366-1.084.787-1.511 1.2l-.293.13c-.415-1.134-1.032-2.423-1.878-3.798l.081-.058c.333-.466.874-.956 1.538-1.38l.032.059z"/><path fill="#ffa75a" d="m145.997 94.21.007.022c-1.276 1.496-1.221 3.307-.525 5.052l.034.138q-.42.117-.846.251c-2.337.731-3.939 2.675-2.823 6.951-.25.069-1.681.426-5.548.802-6.477.625-6.966-8.892-7.546-11.757-.582-2.865-1.271-7.602-5.335-7.477l-.16.026-.069-.487.229-.037c1.286-.649 6.167-1.88 10.342-2.59 2.236-.381 4.269-.611 5.444-.524l.089-.103c2.085 2.017 3.671 4.056 4.829 5.936.846 1.375 1.463 2.664 1.878 3.797"/><path fill="#ff7101" d="m145.148 115.116-.077.034h-.002c-.217.082-11.892 3.104-17.822 3.133v-.027q.552-.051 1.16-.159c5.691-.995 8.479-4.361 8.363-8.097l-.02-.154c3.416-.476 5.688-.919 5.688-.919l.156-.071q.1.255.214.519a161 161 0 0 1 2.34 5.741"/><path fill="#ffc68c" d="m142.594 108.856-.156.071s-2.272.443-5.688.919q-.552.078-1.142.154-.581.075-1.128.032c-4.126-.31-6.825-5.352-7.465-9.13-.698-4.113-1.742-9.47-3.252-10.216l-.104.02a84 84 0 0 1-.404-2.488l.16-.027c4.064-.124 4.753 4.613 5.335 7.478.58 2.865 1.069 12.382 7.546 11.757 3.867-.376 5.298-.733 5.548-.802.177.683.424 1.424.75 2.232"/><path fill="#bf3013" d="M123.388 70.265a39 39 0 0 1 4.269-11.611l.21.132c.545.225 1.12.503 1.722.824 3.635 1.935 8.203 5.51 12.356 9.691l-.067.077c-4.528.373-8.183 5.788-7.603 11.023v.006a53 53 0 0 0-.982-.646c.459 2.094.671 3.829.442 5.192l.022.151c-4.175.71-9.056 1.941-10.342 2.59l-.229.037c-.679-4.843-.923-9.988-.181-15.215q.158-1.124.383-2.25"/><path fill="#ffc68c" d="M136.77 110c.116 3.737-2.672 7.102-8.363 8.098q-.607.106-1.162.159c-4.862.489-6.966-1.785-6.966-3.522l.059-.241c1.567 1.57 4.466 2.396 8.767 1.361 5.691-1.369 5.34-5.232 5.34-5.232l.035-.591q.547.044 1.128-.032.59-.076 1.142-.153z"/><path fill="#002140" d="M123.504 19.027c-2.041-4.197-10.697-7.02-17.276-4.353-5.227 2.118-6.734 5.606-7.317 10.716a7 7 0 0 1-.054.403l-.178-.03c-.807-1.18-2.71-1.522-4.358-.818l-.054-.355c-.116-.373-.471-1.435-.123-2.93.347-1.497 1.633-2.127 1.633-2.127s-2.317-4.245.116-7.35c2.438-3.117 5.227-1.87 5.227-1.87s-.368-4.425 3.829-6.604c3.601-1.87 5.923.249 5.923.249s1.278-3.49 5.226-3.366c4.529.143 4.995 4.361 4.995 4.361s3.018-1.12 5.456.498c2.441 1.62 2.09 6.23 2.09 6.23s2.443.472 3.485 2.62c1.394 2.865-.348 5.48-.348 5.48s2.968 1.865 3.136 5.111c.232 4.486-3.02 6.729-3.02 6.729l-.035.034c-1.414-1.644-4.153-1.777-6.228.548 0 0-1.503-.956-1.967-2.452s-.116-2.992-.116-2.992-1.858-1.12-1.974-3.612 1.92-4.112 1.92-4.112z"/><path fill="#ff7101" d="M119.812 113.866a4.66 4.66 0 0 1-.809-1.996c-.252-1.613-1.177-5.762-1.614-9.986-.17-1.649-.264-3.31-.217-4.832.059-1.817.321-3.437.901-4.624l.064-.013c.422 2.386.849 4.065 1.044 4.743.518 3.122 5.86 3.246 5.564-1.091a116 116 0 0 1-1.086-5.36l.104-.021c1.51.747 2.554 6.104 3.253 10.216.639 3.778 3.338 8.82 7.464 9.13l-.034.59s.35 3.864-5.34 5.233c-4.302 1.035-7.201.209-8.768-1.361a5 5 0 0 1-.526-.628"/><path fill="#a65e3a" d="m127.324 35.606-.015.003zm-25.551-6.726c.941 1.504 2.587 2.468 4.746 2.429l.064.066c.748-.837 1.727-1.515 2.606-1.811l.434-.011c.096.302.212.596.351.874.937 1.94 2.749 3.254 4.829 3.254 2.919 0 5.308-2.587 5.5-5.86q.015-.215.015-.434c0-3.474-2.468-6.292-5.515-6.292-1.646 0-3.124.824-4.131 2.13l-.089-.077c-.572-2.214-2.418-3.366-4.461-3.366-2.179 0-4.047 1.48-4.835 3.588a6.4 6.4 0 0 0-.402 2.24c0 1.224.311 2.349.888 3.27m3.764 5.987-.296-.008c-6.91-.185-11.73 5.982-11.613 11.651l-.008.008c-1.068-2.73-1.177-5.746-.335-8.873.422-1.568.88-2.794 1.35-3.794 1.771-3.792 3.679-4.354 4.222-8.058q.033-.196.054-.403c.582-5.11 2.09-8.597 7.317-10.716 6.578-2.666 15.235.156 17.276 4.353l-.012.008s-2.036 1.62-1.92 4.113c.116 2.491 1.974 3.611 1.974 3.611s-.348 1.497.116 2.993 1.967 2.452 1.967 2.452c2.075-2.325 4.814-2.193 6.228-.549.321.374.575.824.735 1.34 1.116 3.583-1.15 6.81-4.878 6.242.626 6.1-1.081 10.369-3.939 13.194-2.179 2.158-5.024 3.474-8.012 4.12l-.013-.071c7.49-5.545 2.498-17.633-2.613-19.687l-.049-.027c-.124.336-.442.68-1.229.712-1.683.066-1.858-1.371-1.858-1.371s-3.193 1.371-4.412-1.123a1 1 0 0 1-.052-.117"/><path fill="#002140" d="m129.624 59.533-.035.077a20 20 0 0 0-1.722-.824l-.21-.132q.41-.73.859-1.457l.135-.257c.158.093.274.18.331.257.464.622.642 2.336.642 2.336"/><path fill="#f25730" d="m128.651 56.94-.135.258q-.448.726-.859 1.456a39 39 0 0 0-4.269 11.611l-5.454.034-.118-.023c1.002-5.617 3.08-10.176 4.447-12.546.53-.916.952-1.507 1.167-1.703.713-.654 4.086.26 5.221.914"/><path fill="#fffaf0" d="M124.807 154.237c.698-1.123 2.208-.252 1.626 1.493-.74 2.227-4.755 9.514-8.484 10.981-3.129 1.231-11.637.551-13.496.175-1.779-.358-1.961-2.148-.135-2.407 4.503.953 10.238 1.173 13.281-.225.508-.233.942-.511 1.281-.84 1.45-1.4 3.131-3.715 4.414-6.013.612-1.094 1.133-2.185 1.496-3.172z"/><path fill="#fffaf0" d="M125.041 153.48q-.106.362-.252.749c-.362.988-.883 2.079-1.495 3.172l-.577-.299c-.807-.612-2.67-3.366-2.206-6.231l-.05-.008a4.2 4.2 0 0 0-.032-1.371 5 5 0 0 0-.15-.615c1.394-.373 4.646 1.372 4.762 4.603"/><path fill="#f25730" d="M124.745 96.067c.296 4.337-5.046 4.213-5.564 1.09-.195-.677-.622-2.356-1.044-4.742-.824-4.666-1.636-12.03-.659-19.875h.022l5.461-.032.044.008c-.742 5.227-.498 10.372.181 15.215l.069.487q.186 1.26.404 2.49c.324 1.845.699 3.635 1.086 5.359"/><path fill="#bf3013" d="m123.775 52.431.104.125c-.326 1.938-.948 3.614-1.782 5.063a14 14 0 0 1-2.07 2.761c-3.966 4.15-9.967 5.664-14.147 6.255.353-2.65.372-4.92-.272-7.01-.414-1.344-1.108-2.615-2.166-3.863l.027-.08c3.321 1.349 7.956 1.815 12.294.87 2.988-.647 5.833-1.963 8.012-4.12"/><path fill="#f25730" d="m117.934 70.3 5.454-.035a40 40 0 0 0-.383 2.25l-.044-.007-5.461.034h-.022q.058-.46.123-.921.096-.683.215-1.345z"/><path fill="#fffaf0" d="m117.35 153.71.135-.098c1.77-.26 2.764-1.356 2.976-2.749l.05.008c-.464 2.865 1.399 5.619 2.206 6.231l.577.299c-1.283 2.298-2.963 4.613-4.414 6.014-.339.328-.773.606-1.281.839l-.106-.424c-.908-4.483-3.648-7.47-6.606-8.799l.044-.111c.494-1.682 2.085-2.693 3.657-2.677a3.36 3.36 0 0 1 2.762 1.467"/><path fill="#bf3013" d="m69.687 67.405-.038-.02c-.614-1.187-.91-2.678.05-4.465 5.258-5.818 9.646-13.134 22.362-14.477l.284.01q-.304.658-.519 1.386l-.227-.074c-2.428 2.74-7.294 14.553-3.33 23.995l.026.027c-.41.447-.792.969-1.133 1.554-1.715 2.955-1.692 6.432.05 7.764 1.742 1.335 4.545.021 6.258-2.931a9.5 9.5 0 0 0 1.105-2.881l.22.047c7.44 1.75 20.664-4.475 25.368-16.811l-.136-.149a14 14 0 0 0 2.07-2.762l.166.112c-1.367 2.37-3.445 6.93-4.447 12.546q-.119.663-.215 1.345-.065.461-.123.919c-.977 7.846-.165 15.21.659 19.875l-.064.013c-.58 1.187-.842 2.807-.901 4.624l-.262-.01c-5.473.65-11.39.32-17.143-.912-9.347-1.999-18.265-6.37-24.17-12.747-3.625-3.916-6.115-8.587-6.868-13.928q.444-1.036.957-2.05"/><path fill="#a65e3a" d="M120.429 149.491c.087.477.096.938.032 1.372-.212 1.393-1.206 2.489-2.976 2.749l-.135.098a3.36 3.36 0 0 0-2.762-1.467l-.464-.874v-.019c2.72-.185 4.366-1.644 5.111-3.344l1.113 1.501zm-.111-122.104q0 .218-.015.434c-.767-1.348-3.25-2.494-5.769-2.947-1.735-.315-3.487-.3-4.706.204l-.136-.053a6.3 6.3 0 0 1 .98-1.8c1.007-1.306 2.485-2.13 4.131-2.13 3.048 0 5.515 2.818 5.515 6.292"/><path fill="#bf3013" d="m120.027 60.38.136.149c-4.704 12.336-17.928 18.562-25.368 16.811l-.22-.047c.422-2.063.035-3.975-1.154-4.886-1.397-1.067-3.475-.434-5.126 1.38l-.027-.027c-3.963-9.442.903-21.255 3.331-23.995l.227.074c-.974 3.318-.587 7.64.583 11.315 1.053-1.74 3.235-4.081 5.796-5.339-.182.434-3.146 7.401-3.908 9.575-2.004 5.701 5.747 9.252 8.678 1.994 1.039-2.571 2.495-7.71 2.495-7.71l.138-.048c.644 2.089.625 4.358.272 7.009 4.18-.59 10.181-2.105 14.147-6.255"/><path fill="#28736d" d="M87.528 114.054c-8.1-2.685-14.15-8.394-17.735-15.411-3.068-5.995-4.334-12.948-3.544-19.785q.101-.879.247-1.748l.079.016c1.014 3.723 2.754 7.083 5.073 10.046l.32.064c-.82 2.234-.816 5.105-.344 8.06.811 5.108 5.332 9.353 11.72 12.218 6.387 2.867 9.968 2.425 12.404.426 1.517-1.245 2.516-4.173 3.138-6.792l.08.011c6.388 1.247 11.945 1.58 18.295.741l.128-.016c.437 4.224 1.362 8.373 1.614 9.985.108.707.377 1.391.809 1.997l-2.203.869c-2.789 8.349-2.905 24.422 1.626 33.271-.745 1.7-2.391 3.159-5.113 3.344a10 10 0 0 1-2.204-.106c-13.355-8.971-21.136-28.534-22.527-36.634a30 30 0 0 1-1.863-.556"/><path fill="#fffaf0" d="M120.303 27.821c-.192 3.273-2.581 5.86-5.5 5.86-2.08 0-3.892-1.313-4.829-3.254l.093-.053c2.382.75 4.057-.686 4.057-.686l-3.193-2.929 4.242.186s-.022-1.112-.661-1.92l.022-.151c2.519.453 5.002 1.6 5.769 2.947m-15.985 136.658a26 26 0 0 1-.746-.167l-.014-.108s-3.776-5.172-.116-8.535c1.836-1.686 4.73-1.861 7.445-.64 2.958 1.332 5.698 4.318 6.606 8.801l.106.424c-3.043 1.398-8.778 1.178-13.281.225"/><path fill="#f25730" d="m117.389 101.884-.128.016c-6.35.84-11.907.506-18.296-.741l-.079-.011c.622-2.616.864-4.922.864-4.922l.017-.096c5.753 1.232 11.67 1.563 17.143.911l.262.01c-.047 1.523.047 3.184.217 4.833"/><path fill="#a65e3a" d="M107.913 38.71c6.626 1.344 8.595 5.7 8.119 9.8-.479 4.098-3.462 5.891-5.792 5.573-1.732-.24-3.521-1.154-3.403-3.394l.045-.416c4.064.434 6.707-1.75 7.116-3.887a4.7 4.7 0 0 0-.135-2.328c-.447-1.382-1.525-2.444-2.831-2.772-2.231-.564-3.874.49-3.874.49s-1.096-1.684-2.904-1.93c-2.214-.302-3.339.987-3.82 1.808a2 2 0 0 0-.087.153q0 .005-.002.008a3 3 0 0 0-.213.472c-.863 2.232-.261 5.36 3.275 7.025l-.091.222c-1.313 2.563-6.088 1.409-6.088-3.331s4.059-8.839 10.685-7.494"/><path fill="#002140" d="M113.137 36.792c5.111 2.055 10.103 14.143 2.613 19.688l.013.071c-4.338.945-8.973.48-12.294-.869q-.312-.123-.61-.262-.585-.27-1.132-.556c-4.116-2.152-6.816-5.039-8.107-8.346l.008-.008c-.116-5.67 4.703-11.836 11.613-11.65l.296.007q.022.059.052.117c1.219 2.494 4.412 1.122 4.412 1.122s.175 1.438 1.858 1.372c.787-.032 1.105-.376 1.229-.712zm2.895 11.717c.476-4.099-1.493-8.455-8.119-9.8s-10.685 2.754-10.685 7.494 4.775 5.894 6.088 3.331l.091-.222q.764.365 1.718.625a11.4 11.4 0 0 0 1.757.336l-.045.415c-.118 2.24 1.671 3.154 3.403 3.395 2.33.318 5.313-1.475 5.792-5.574m-.859-21.564-4.242-.186 3.193 2.929s-1.675 1.435-4.057.686l-.093.053a6 6 0 0 1-.351-.874 7.1 7.1 0 0 1-.335-2.166c0-.76.116-1.483.333-2.155q.032-.104.071-.207l.136.053c1.219-.503 2.971-.52 4.706-.204l-.022.151c.639.808.661 1.92.661 1.92"/><path fill="#a65e3a" d="M113.863 44.058c.229.71.293 1.504.135 2.328-.409 2.137-3.052 4.321-7.116 3.887q-.84-.089-1.757-.336a10 10 0 0 1-1.718-.625c-3.536-1.666-4.138-4.793-3.274-7.025 0 0 .061-.194.212-.472a2.3 2.3 0 0 0-.212.771c-.139 1.332.927 2.6 2.035 3.493.294.233.59.442.867.62.629.4 1.485.74 2.489.984 1.291.313 2.823.466 4.43.379.247-.01.496-.032.745-.056 2.836-.28 3.443-2.505 2.974-3.879z"/><path fill="#a65e3a" d="m113.863 44.058-.19.069c-.153-.453-.425-.81-.768-.98-.501-.246-1.16-.196-1.875-.045-1.276.273-2.737.869-3.815.667a4.3 4.3 0 0 1-.676-.182c-1.227-.434-2.039-1.33-2.868-2.082l-.113-.103c-1.066-.945-2.498-.778-3.124.252.481-.821 1.606-2.11 3.82-1.809 1.808.246 2.904 1.93 2.904 1.93s1.643-1.053 3.874-.49c1.306.329 2.384 1.39 2.831 2.773"/><path fill="#fffaf0" d="M113.673 44.127c.469 1.375-.138 3.599-2.974 3.88q-.374.037-.745.055l-.01-.18 1.103-4.674-.017-.105c.715-.151 1.374-.202 1.875.044.343.17.615.528.768.98"/><path fill="#fffaf0" d="m111.03 43.103.017.105-1.103 4.674.01.18c-1.607.088-3.139-.066-4.43-.378l.065-.3.93-3.739.02-.058q.317.116.676.183c1.078.201 2.539-.395 3.815-.668"/><path fill="#a65e3a" d="m110.583 23.147.089.077a6.3 6.3 0 0 0-.98 1.8q-.04.104-.071.207l-.084-.029c-.521-.559-1.419-1.049-2.465-1.409-1.864-.638-4.198-.876-5.72-.397l-.065-.026c.788-2.108 2.656-3.588 4.835-3.588 2.043 0 3.889 1.152 4.461 3.365"/><path fill="#fffaf0" d="m109.623 29.553-.434.01c-.879.297-1.858.975-2.606 1.812l-.064-.067c-2.159.04-3.805-.924-4.746-2.428 2.372.55 3.931-.561 3.931-.561l-2.729-3.053 4.106.746s.351-1.183-.054-2.054l.045-.164c1.046.36 1.944.85 2.465 1.408l.084.03a7 7 0 0 0-.333 2.155 7.1 7.1 0 0 0 .335 2.166"/><path fill="#002140" d="M107.027 23.958c.405.871.055 2.055.055 2.055l-4.107-.747 2.73 3.053s-1.56 1.112-3.931.561c-.578-.921-.889-2.046-.889-3.27 0-.794.143-1.552.402-2.24l.065.026c1.522-.479 3.857-.24 5.72.398z"/><path fill="#fffaf0" d="m106.539 43.587-.02.058-.93 3.74-.065.299c-1.004-.244-1.86-.586-2.489-.985a11 11 0 0 1-.867-.62l.171-.066 1.219-4.361.113-.146c.829.752 1.641 1.647 2.868 2.081"/><path fill="#bf3013" d="m105.608 59.626-.138.047s-1.456 5.14-2.495 7.711c-2.931 7.258-10.682 3.707-8.679-1.994.763-2.174 3.727-9.14 3.91-9.575v-.002c1.112-.546 2.297-.89 3.493-.89l.028-.058q.547.285 1.132.556.297.14.61.262l-.027.08c1.058 1.247 1.752 2.518 2.166 3.863m-3.413.67c.299-1.213-.069-2.37-.819-2.582s-1.599.601-1.898 1.814c-.298 1.212.07 2.37.82 2.581.75.212 1.599-.6 1.897-1.813m-2.322 6.355c.296-1.213-.069-2.37-.819-2.582s-1.599.601-1.898 1.814.07 2.37.82 2.582 1.599-.602 1.897-1.814"/><path fill="#fffaf0" d="m103.558 41.403.113.103-.113.145-1.219 4.362-.171.066c-1.108-.892-2.174-2.16-2.036-3.493.03-.288.104-.548.213-.77l.002-.008a2 2 0 0 1 .087-.154c.626-1.03 2.058-1.197 3.124-.251"/><path fill="#bf3013" d="M101.376 57.714c.75.212 1.118 1.369.819 2.581-.298 1.213-1.147 2.026-1.897 1.814s-1.118-1.369-.82-2.581c.3-1.213 1.148-2.026 1.898-1.814m-3.171-1.902v.003c-2.561 1.258-4.743 3.599-5.796 5.338-1.17-3.675-1.558-7.996-.583-11.314q.215-.728.518-1.385c.339-.729.76-1.38 1.276-1.936 1.29 3.307 3.99 6.194 8.107 8.346l-.028.059c-1.196 0-2.38.344-3.494.89m.849 8.256c.75.212 1.116 1.369.82 2.581-.3 1.213-1.148 2.026-1.898 1.814s-1.118-1.369-.82-2.581c.3-1.213 1.148-2.026 1.898-1.814"/><path fill="#ffa75a" d="m99.767 96.13-.017.095c-2.23.44-3.006 1.687-3.47 3.681-.463 1.994-1.043 3.114-2.901 3.114-.474 0-.98-.008-1.538-.048a17 17 0 0 1-1.917-.241c-1.303-.238-2.87-.67-4.832-1.453-4.064-1.62-8.245-4.613-10.443-7.478-2.48-3.233-3.376-4.984-2.098-7.727l-.03-.021a5.85 5.85 0 0 1 2.7-2.47l.375-.2c5.906 6.378 14.824 10.75 24.171 12.748"/><path fill="#ff7101" d="M99.75 96.226s-.242 2.306-.864 4.922c-.622 2.619-1.621 5.548-3.139 6.792-2.435 1.999-6.016 2.442-12.402-.426-6.389-2.865-10.91-7.11-11.722-12.218-.47-2.955-.476-5.825.346-8.06q.229-.63.553-1.184l.03.021c-1.279 2.744-.383 4.494 2.097 7.727 2.198 2.865 6.379 5.857 10.443 7.478 1.962.784 3.529 1.215 4.832 1.454l-.008.047s-.698 2.484-.464 3.358c.232.871 1.797.996 1.913 0 .116-.998.464-2.992.464-2.992l.012-.172c.558.039 1.064.047 1.537.047 1.859 0 2.439-1.12 2.902-3.114s1.24-3.24 3.47-3.68"/><path fill="#a65e3a" d="M96.611 30.087c.114.106.198.165.215.175-.015-.013-.091-.082-.215-.175m2.068-4.324.178.03c-.543 3.704-2.45 4.265-4.222 8.057l-.331-.111c-2.285-.35-3.751-3.318-2.335-6.464a4.5 4.5 0 0 1 2.352-2.33c1.649-.704 3.551-.363 4.358.818"/><path fill="#fed607" d="M93.42 72.407c1.19.911 1.577 2.823 1.155 4.886a9.5 9.5 0 0 1-1.105 2.88c-1.713 2.953-4.516 4.267-6.258 2.932-1.742-1.332-1.764-4.809-.05-7.764a9 9 0 0 1 1.133-1.554c1.651-1.814 3.729-2.447 5.126-1.38M91.86 78.84c.87-1.678.885-3.522.034-4.12-.854-.596-2.248.28-3.12 1.957-.87 1.679-.885 3.522-.034 4.12.852.596 2.248-.28 3.12-1.957"/><path fill="#fed607" d="M91.893 74.72c.851.597.837 2.44-.034 4.12-.872 1.675-2.268 2.552-3.12 1.956-.851-.598-.836-2.441.035-4.12.871-1.676 2.265-2.553 3.12-1.957"/><path fill="#ffc68c" d="m91.841 102.972-.012.173s-.348 1.993-.464 2.992c-.116.995-1.68.871-1.913 0-.234-.874.464-3.358.464-3.358l.008-.048c.71.13 1.342.202 1.917.241"/><path fill="#f25730" d="m75.596 83.383-.375.198a5.85 5.85 0 0 0-2.7 2.47q-.324.555-.552 1.185l-.32-.064c-2.32-2.963-4.06-6.323-5.074-10.046l-.08-.016a33.8 33.8 0 0 1 2.234-7.655c.752 5.34 3.242 10.011 6.867 13.928"/><path fill="#28736d" d="M87.528 114.054c-9.755 2.871-24.322 15.644-27.108 28.601l-.061.241a6.24 6.24 0 0 1-4.012-.729l-.082.027c-.299-1.163-1.042-2.111-2.068-2.468l.007-.024c-1.51-13.706 2.786-29.329 15.561-41.043l.028-.016c3.585 7.017 9.636 12.726 17.735 15.411"/><path fill="#a65e3a" d="M46.89 82.04c-.555 0-1.138-.355-1.397-1.075-.133-.373-.283-.784-.434-1.215a36 36 0 0 1-.654-2.013c-.217-.762-.385-1.514-.44-2.174-.049-.561-.014-1.059.137-1.443.525-1.34 1.742-1.994 3.482-1.87 1.078.078 1.576.867 1.885 1.606 4.405-1.118 8.35-1.994 15.07-6.348 1.957-1.265 3.595-2.862 5.16-4.589-.96 1.788-.664 3.279-.05 4.465l.037.021a35 35 0 0 0-.957 2.05 33.8 33.8 0 0 0-2.48 9.402h-.022c-4.358 1.984-7.147 2.357-12.721 2.556-.232 3.167-2.438 5.534-5.572 6.405l-.316.082c-.281-1.26-.9-2.375-.9-2.375h-.238c1-.49 1.82-1.088 1.57-2.068-.19-.736-.58-1.078-1.172-1.12z"/><path fill="#fffaf0" d="M59.67 151.247c-.442.97-1.28 1.772-2.62 2.214l-.06-.222c-.58-1.87.417-5.233 1.695-6.853l.343-.088c.329.337.8 1.012.975 2.206.14.951.052 1.909-.333 2.743"/><path fill="#fffaf0" d="M59.67 151.247c.923.138 1.377 2.865-1.518 3.986-2.904 1.122-7.432 1.122-11.729-.872s-7.936-7.054-8.866-9.545c-.928-2.492.04-3.79 1.318-3.914 0 0-.054 4.345 4.474 8.457a17.8 17.8 0 0 0 3.906 2.712c3.302 1.681 6.473 1.936 8.506 1.673.474-.06.9-.158 1.288-.283 1.34-.442 2.18-1.244 2.621-2.214"/><path fill="#a65e3a" d="M59.312 142.97v.05l-.627 2.992c-1.046.871-2.746 1.062-3.328.564l-.08-.079c1.086-1.337 1.333-2.963.988-4.303l.081-.027a6.24 6.24 0 0 0 2.966.803"/><path fill="#fffaf0" d="m55.278 146.497.078.079c.583.498 2.283.307 3.33-.564 0 0 .145.082.342.286l-.343.087c-1.278 1.621-2.275 4.984-1.695 6.853l.06.223a7 7 0 0 1-1.289.283c-2.033.262-5.204.008-8.506-1.674l.042-.092c5.533-2.778 6.152-8.172 4.306-12.117l.511-.08c.772-.275 1.478-.27 2.083-.055 1.026.357 1.769 1.305 2.068 2.468.345 1.339.098 2.965-.987 4.303"/><path fill="#fffaf0" d="M51.603 139.861c1.846 3.945 1.227 9.339-4.306 12.117l-.042.093a17.8 17.8 0 0 1-3.906-2.712c-4.528-4.112-4.474-8.457-4.474-8.457s.839-6.705 7.085-5.731c2.433.379 4.506 2.259 5.643 4.69"/><path fill="#a65e3a" d="M44.632 88.133a.09.09 0 0 1-.067.059c-1.742.376-2.702-.376-2.554-2.119q.015-.162.045-.32c.242-1.224 1.253-2.23 2.857-2.918.802-.344 1.459-.53 1.965-.498.592.042.982.384 1.172 1.12.249.98-.57 1.578-1.57 2.068-.397.193-.822.37-1.219.548-1.256.564-.518 1.774-.63 2.06"/><path fill="#f25730" d="M47.618 87.9c.16.734.21 1.517-.047 2.16-.698 1.746-4.052 2.993-4.516 3.242l-.269.111-.595-1.657-.4-1.113.22-.09s3.3-1.05 2.621-2.42c.111-.286-.627-1.496.63-2.06.397-.177.821-.355 1.218-.548h.237s.62 1.115.9 2.375"/><path fill="#a65e3a" d="M41.192 83.079c.262-1.216 1.35-2.415 3.49-3.11l.377-.219c.15.432.3.842.434 1.215.26.72.842 1.073 1.397 1.075l-.013.297c-.505-.032-1.162.154-1.964.498-1.604.688-2.615 1.695-2.857 2.918l-.045-.01c-.718-.734-1.029-1.703-.819-2.664"/><path fill="#002140" d="M45.03 99.7a6.03 6.03 0 0 1 .212 3.169c0 .006-.003.008-.003.014-.066.227-.185.624-.333 1.112-.51 1.271-1.436 2.343-2.665 2.889l-7.768 3.148-.055-.156c-.942-.352-1.801-1.102-2.14-2.134s-.046-2.333.798-2.908c.518-.352 1.152-.402 1.74-.575 1.216-.354 2.396-1.591 2.12-2.944-.203-.998-1.096-1.636-1.489-2.563-.446-1.051-.143-2.38.607-3.194.753-.81 1.876-1.125 2.917-.972.514.077 1.024.257 1.54.21 1.229-.114 2.068-1.782 1.6-3.008l.08-.032.595 1.657c.847 2.368 1.614 4.515 2.243 6.287"/><path fill="#a65e3a" d="m45.059 79.75-.377.22c-2.14.693-3.228 1.893-3.49 3.108-.703-.582-1.09-1.504-.831-2.45.293-1.074 1.43-2.181 3.903-2.843l.141-.048c.195.678.427 1.37.654 2.013"/><path fill="#ff7101" d="M44.906 103.995c-.466 1.546-1.22 4.001-1.503 4.758a26 26 0 0 0-.3.868q-.004.002-.003.003c-.287.506-.827 1.12-1.841 1.454-.948.312-12.733 5.658-18.076 7.528-2.028.71-4.977-.508-6.024-3.249C16 112.312 5.431 85.575 4.503 82.461c-.889-2.978-1.034-3.807-.44-5.07.96-1.632 2.152-3.596 3.603-5.59l.025.021a5.1 5.1 0 0 0-.659 4.713l1.545 4.29 4.493 12.472 6.347 17.622c.847 2.359 3.2 3.612 5.422 2.989q.3-.08.597-.211l9.037-3.665 7.768-3.149c1.229-.545 2.154-1.617 2.665-2.888"/><path fill="#a65e3a" d="M39.978 77.354c.61-.726 1.675-1.33 3.146-1.653q.271-.062.56-.108l.282-.03c.054.66.222 1.412.439 2.174l-.14.048c-2.473.662-3.61 1.769-3.905 2.844l-.33-.103c-.874-1.04-.857-2.214-.052-3.172"/><path fill="#f25730" d="m43.055 75.357.07.344c-1.471.324-2.538.927-3.147 1.653-1.046.026-2.567.813-2.567.813l-.1.042-1.015-2.81.188-.076s5.411-2.955 6.571.034"/><path fill="#ff7101" d="M41.259 111.078c1.014-.334 1.554-.948 1.84-1.454-.727 2.216-1.325 4.552-3.992 5.873-2.93 1.451-11.522 5.301-16.398 6.795-4.878 1.496-7.418.008-8.696-3.231-1.278-3.241-10.61-27.372-11.655-30.737-1.046-3.363-1.804-5.365-.165-7.814.484-.72 1.103-1.811 1.87-3.12-.594 1.264-.449 2.093.44 5.071.927 3.114 11.496 29.851 12.656 32.896 1.047 2.741 3.996 3.959 6.024 3.249 5.343-1.87 17.128-7.216 18.076-7.528"/><path fill="#ffa75a" d="m38.231 81.596.261-.109c1.12 3.098 2.251 6.236 3.3 9.157.136.376.266.746.4 1.112l-.082.031c.469 1.226-.37 2.895-1.599 3.009-.516.047-1.027-.133-1.54-.21-1.041-.153-2.164.162-2.916.972-.75.813-1.054 2.142-.608 3.194.393.926 1.286 1.565 1.488 2.563.277 1.353-.903 2.59-2.12 2.944-.587.172-1.22.223-1.739.575-.844.575-1.138 1.877-.797 2.907.338 1.033 1.197 1.782 2.14 2.135l.054.156-9.037 3.665a4 4 0 0 1-.597.211l-.005-.023c-.888-.098-1.626-.405-2.394-.898-.765-.495-1.327-1.493-1.073-2.412.308-1.123 1.547-1.533 2.569-1.952 1.019-.416 2.142-1.406 1.791-2.515-.247-.779-1.122-1.142-1.46-1.88-.307-.668-.092-1.499.332-2.087s1.027-.99 1.597-1.411c1.505-1.102 3.038-2.85 2.576-4.74-.431-1.761-2.83-2.5-4.066-1.253-.482.49-.763 1.163-1.202 1.695-.726.88-1.9 1.303-2.974 1.078-1.076-.228-2.01-1.1-2.374-2.206-.296-.908-.232-1.936-.651-2.783-.452-.913-1.47-1.462-2.423-1.297-.953.161-1.765 1.019-1.93 2.038l-.082.035-4.493-12.472.089-.037c-.175-1.388.03-2.947.866-4.025.834-1.075 2.285-1.634 3.511-1.154.65.254 1.195.762 1.851.993.694.24 1.446.148 2.164.013 1.4-.265 3.058-1.04 3.13-2.563.073-1.539-1.602-2.942-1.025-4.354.47-1.151 1.967-1.138 3.033-1.663.622-.307 1.16-.892 1.276-1.615.113-.696-.262-1.485-.884-1.684l3.692-1.607c2.65-1.152 5.666.243 6.7 3.103-1.488-.307-2.752 0-3.847 1.128-1.093 1.123-1.641 2.828-1.424 4.438.158 1.157.68 2.24.755 3.408s-.56 2.55-1.648 2.598c-.447.02-.872-.191-1.31-.265-1.289-.225-2.525.718-3.288 1.853-.508.76-.888 1.655-.9 2.59-.013.938.397 1.912 1.154 2.373 1.074.656 2.806.394 3.223 1.644.336 1.004-.607 2.018-.565 3.082.04 1.007 1.012 1.761 1.947 1.756.938-.005 1.794-.599 2.438-1.327a7 7 0 0 0 1.402-2.476c.254-.797.372-1.647.703-2.412.328-.768.945-1.472 1.727-1.549.617-.06 1.2.273 1.794.464.593.19 1.348.182 1.703-.363.264-.4.21-.95.42-1.388.185-.384.814-.508.967-.19"/><path fill="#002140" d="m38.492 81.487-.261.108c-.153-.317-.782-.193-.968.191-.21.437-.155.988-.419 1.388-.355.545-1.11.553-1.703.362-.594-.19-1.177-.524-1.794-.463-.782.077-1.399.781-1.727 1.549-.33.765-.45 1.615-.703 2.412a7 7 0 0 1-1.402 2.476c-.644.728-1.5 1.321-2.438 1.327-.935.005-1.908-.75-1.947-1.756-.042-1.064.9-2.079.565-3.082-.417-1.25-2.15-.988-3.223-1.644-.757-.461-1.167-1.436-1.155-2.373.013-.935.393-1.83.901-2.59.763-1.136 1.999-2.078 3.287-1.853.44.074.864.286 1.31.264 1.089-.047 1.723-1.43 1.649-2.597s-.597-2.25-.755-3.408c-.218-1.61.33-3.315 1.424-4.438 1.095-1.125 2.359-1.435 3.847-1.128.9 2.486 2.058 5.682 3.316 9.167.33.919.671 1.856 1.014 2.81.39 1.08.788 2.176 1.182 3.278m-9.72 14.503c.462 1.89-1.07 3.638-2.576 4.739-.57.421-1.172.824-1.597 1.412-.424.588-.639 1.419-.333 2.086.339.739 1.215 1.102 1.461 1.88.35 1.11-.772 2.1-1.791 2.516-1.022.418-2.26.829-2.57 1.951-.253.919.31 1.918 1.074 2.413.768.492 1.506.799 2.394.897l.005.024c-2.221.623-4.575-.63-5.422-2.989l-6.346-17.622.081-.035c.165-1.02.977-1.877 1.93-2.039.952-.164 1.971.384 2.423 1.298.42.847.355 1.874.651 2.783.363 1.107 1.298 1.978 2.374 2.206 1.074.225 2.248-.2 2.974-1.078.44-.532.72-1.205 1.202-1.695 1.236-1.247 3.634-.508 4.066 1.253m-6.184-31.254c.622.198.997.987.884 1.684-.116.723-.654 1.308-1.276 1.615-1.066.525-2.564.511-3.033 1.663-.577 1.411 1.098 2.815 1.024 4.353-.071 1.523-1.73 2.299-3.129 2.564-.718.135-1.47.227-2.164-.014-.656-.23-1.202-.739-1.85-.993-1.227-.479-2.678.08-3.512 1.155-.837 1.078-1.042 2.637-.866 4.025l-.09.037-1.544-4.29a5.1 5.1 0 0 1 .659-4.713 4.5 4.5 0 0 1 1.9-1.512c3.497-1.467 8.627-3.678 12.997-5.574"/><path stroke="#002140" stroke-linecap="round" stroke-linejoin="round" d="M92.06 48.443c-12.714 1.343-17.102 8.66-22.36 14.477-1.565 1.726-3.203 3.323-5.16 4.589-6.72 4.353-10.665 5.23-15.07 6.347l-.027.008"/><path stroke="#002140" stroke-linecap="round" stroke-linejoin="round" d="M76.5 58.286a33.65 33.65 0 0 0-7.771 11.169 33.8 33.8 0 0 0-2.48 9.403c-.79 6.837.476 13.79 3.544 19.785 3.585 7.017 9.636 12.726 17.735 15.411q.915.306 1.863.556M53.506 81.413c5.574-.199 8.363-.572 12.72-2.558M89.39 114.61c1.393 8.1 9.173 27.663 22.528 36.635m7.317-3.239c-4.531-8.849-4.415-24.922-1.626-33.271l2.203-.869h.003m-7.897 37.378a10 10 0 0 0 2.204.106c2.722-.185 4.368-1.644 5.113-3.344l1.113 1.501"/><path stroke="#002140" stroke-linecap="round" stroke-linejoin="round" d="M87.533 114.054h-.005c-9.755 2.871-24.322 15.644-27.108 28.601m9.345-43.995c-12.775 11.714-17.071 27.337-15.56 41.042m2.141 2.465a6.24 6.24 0 0 0 4.013.729m8.36-73.518.01.077c.752 5.34 3.242 10.012 6.867 13.928C81.502 89.759 90.42 94.13 99.767 96.13c5.752 1.232 11.67 1.562 17.143.911m-17.945 4.118c6.389 1.247 11.946 1.581 18.296.741M66.575 77.126c1.014 3.723 2.754 7.083 5.073 10.046m46.425 5.256c-.58 1.187-.842 2.807-.901 4.624-.047 1.522.047 3.182.217 4.832.437 4.224 1.362 8.373 1.614 9.985.109.707.378 1.391.809 1.997.153.22.331.429.526.628 1.567 1.57 4.466 2.396 8.768 1.361 5.69-1.369 5.34-5.233 5.34-5.233"/><path stroke="#002140" stroke-linecap="round" stroke-linejoin="round" d="M75.221 83.582c-1.199.545-2.082 1.398-2.7 2.47q-.324.554-.552 1.184c-.822 2.235-.817 5.105-.346 8.06.812 5.108 5.333 9.353 11.722 12.218 6.386 2.867 9.967 2.425 12.402.426 1.518-1.245 2.517-4.173 3.14-6.792.621-2.616.863-4.922.863-4.922m19.431.932c-.195-.678-.622-2.357-1.044-4.743-.824-4.666-1.636-12.03-.659-19.875q.058-.458.123-.92.096-.682.215-1.344c1.002-5.617 3.08-10.176 4.447-12.546.53-.916.952-1.507 1.167-1.703.713-.654 4.086.26 5.221.914.158.092.274.18.331.256.464.623.642 2.336.642 2.336"/><path stroke="#002140" stroke-linecap="round" stroke-linejoin="round" d="M128.516 57.197q-.448.727-.859 1.457a39 39 0 0 0-4.269 11.61 40 40 0 0 0-.383 2.252c-.742 5.227-.498 10.372.181 15.215l.069.487q.186 1.26.404 2.49c.324 1.845.699 3.635 1.086 5.359m-5.564 1.09c.518 3.122 5.86 3.247 5.564-1.09"/><path stroke="#002140" stroke-linecap="round" stroke-linejoin="round" d="M125.621 75.857c2.897 1.152 5.446 2.479 7.672 3.903q.5.322.98.647a37.6 37.6 0 0 1 5.017 4.07c2.085 2.017 3.671 4.056 4.829 5.936.846 1.374 1.463 2.664 1.878 3.797q.002.011.007.022m-18.137-35.446c.545.225 1.12.503 1.722.824 3.635 1.935 8.203 5.51 12.356 9.691 4.984 5.015 9.377 10.907 10.85 15.901"/><path stroke="#002140" stroke-linecap="round" stroke-linejoin="round" d="M134.275 80.401c-.58-5.235 3.075-10.65 7.603-11.023m-18.463 18.316c1.286-.649 6.167-1.88 10.342-2.59 2.236-.381 4.269-.611 5.444-.524m-15.786 3.611c4.064-.124 4.753 4.613 5.335 7.478.58 2.865 1.069 12.382 7.546 11.757 3.867-.376 5.298-.733 5.548-.802l.042-.013"/><path stroke="#002140" stroke-linecap="round" stroke-linejoin="round" d="M123.763 90.686c1.51.747 2.554 6.104 3.252 10.216.639 3.778 3.339 8.82 7.465 9.13q.547.043 1.128-.032.59-.076 1.142-.153c3.416-.477 5.688-.919 5.688-.919m-22.159 5.807c0 1.737 2.104 4.011 6.966 3.521q.555-.051 1.162-.159c5.691-.995 8.479-4.361 8.363-8.097m9.822 9.112s-.445-1.399-1.444-3.996a162 162 0 0 0-2.339-5.741 14 14 0 0 1-.215-.519 18 18 0 0 1-.75-2.232c-1.116-4.277.486-6.22 2.823-6.951q.427-.133.846-.252c2.456-.693 4.61-.995 4.61-.995s1.387 1.927.691 4.419"/><path stroke="#002140" stroke-linecap="round" stroke-linejoin="round" d="M150.651 103.012c-.755.156-1.626.278-2.675.585a12 12 0 0 0-.755.247c-.901.323-1.441.76-1.281 2.113.057.519.22 1.17.503 2.004q.181.532.43 1.165a117 117 0 0 1 1.762 4.78 62 62 0 0 1 .915 2.838"/><path stroke="#002140" stroke-linecap="round" stroke-linejoin="round" d="M148.497 103.894c.19.527.471.953.807 1.271.94.903 2.307.972 3.296.14a3 3 0 0 0 .435-.458c1.043-1.372.797-5.38-.131-7.623"/><path stroke="#002140" stroke-linecap="round" stroke-linejoin="round" d="M155.519 96.74c.889 2.856 1.19 6.399-.071 7.962-.555.688-1.412.993-2.653.688"/><path stroke="#002140" stroke-linecap="round" stroke-linejoin="round" d="M157.733 96.358s1.594 5.068.296 7.343c-.348.609-.903 1.016-1.752 1.072a3.5 3.5 0 0 1-.696-.024"/><path stroke="#002140" stroke-linecap="round" stroke-linejoin="round" d="M154.478 90.249c2.453.686 4.405 3.649 5.348 6.625.528 1.666.74 3.339.545 4.618-.212 1.412-.918 2.349-2.236 2.277m-12.131-9.538c-1.276 1.497-1.221 3.308-.526 5.053m.998 8.664s7.825-1.628 8.851-2.261l.022-.014c.607-.407.839-.725.928-.9.047-.09.054-.14.054-.14m-10.45 1.337.059-.013 3.331-.752m-22.024 13.078c5.93-.029 17.605-3.051 17.822-3.133h.002"/><path stroke="#002140" stroke-linecap="round" stroke-linejoin="round" d="M148.731 113.869s3.482-1.128 5.224-1.875c2.006-.863 2.292-2.963 1.372-6.307l-.007-.032m4.898-8.924c2.441-.622 4.252.257 5.589 3.673 1.271 3.241 3.941 10.84 3.941 10.84m-9.056-9.717c1.508-.373 2.268 1.493 2.732 2.865s2.786 7.751 2.786 7.751m-15.5 4.297a3.6 3.6 0 0 1 .869-.326l14.737-3.445 3.553-.829 1.153-.27c2.097-.49 4.239.596 5.216 2.643l13.224 28.606q.225.473.309.966c.311 1.764-.679 3.586-2.399 4.078l-20.422 5.161c-2.808.805-5.742-.715-6.892-3.575l-11.135-27.79c-.811-2.02.04-4.298 1.787-5.219"/><path stroke="#002140" stroke-linecap="round" stroke-linejoin="round" d="M186.355 156.978c.923-.941 1.044-1.74 1.975-4.237.241-.654.493-1.274.735-1.864 1.133-2.762 2.043-4.902.772-7.107m-16.38 17.995c1.722-.442 3.062-.826 4.607-1.247m-26.076-44.449q-.687.17-1.278.371a10 10 0 0 0-1.103.44c-1.17.556-2.031 1.297-2.761 2.412-.452.691-.852 1.52-1.244 2.537a136 136 0 0 1-.434 1.114c-1.074 2.725-1.53 3.649-1.942 4.867-.467 1.372-1.456 2.492.634 7.727 2.09 5.232 9.478 22.751 10.872 25.37 1.395 2.616 3.137 3.988 7.549 3.363.58-.082 1.229-.162 2.107-.339q.062-.014.129-.026l2.677-4.436.252-.055 3.696-.816"/><path stroke="#002140" stroke-linecap="round" stroke-linejoin="round" d="M154.668 149.934c.844 2.017 1.52 3.585 1.876 4.308 1.952 3.98 3.114 4.729 7.758 3.98 4.644-.747 20.455-5.209 21.938-5.606 1.663-.448 2.457-1.202 2.825-1.74.252-.363.309-.627.309-.627m-39.673-12.482c.792 1.964 1.641 4.064 2.467 6.093m-6.566-22.031a6.5 6.5 0 0 0-.434 1.114c-.533 1.865.024 3.565 1.192 6.488l.792 1.981m10.011-13.142 12.346-2.961c1.7-.407 3.435.506 4.173 2.201l6.976 16.43c.817 1.88-.17 4.091-2.046 4.589l-12.41 2.746c-2.186.577-4.447-.593-5.382-2.791l-6.233-14.651c-.982-2.312.266-5.01 2.576-5.563"/><path stroke="#002140" stroke-linecap="round" stroke-linejoin="round" d="m163.929 119.284-4.565 1.056c-1.712.366-2.667 2.354-1.969 4.03l1.996 4.817 2.113 5.095.752 1.816c.79 1.896 2.769 2.926 4.691 2.444l1.192-.299 4.356-1.094 3.203-.802c1.809-.456 2.786-2.502 2.048-4.287l-2.009-4.769-2.208-5.238-.881-2.089c-.585-1.414-2.039-2.203-3.48-1.893l-1.737.402zm.484 44.795c.565 1.92 1.624 2.815 2.779 3.13 1.69.463 3.58-.31 4.407-.903 1.142-.816 1.666-2.664 1.377-4.449-.2-1.236-.79-2.444-1.834-3.259"/><path stroke="#002140" stroke-linecap="round" stroke-linejoin="round" d="M167.48 159.594c2.789 2.865 2.732 7.478-.286 7.602m13.599-11.352.252-.056 3.697-.818m-6.502 5.243 2.554-4.369m-.023 7.642c1.733.466 3.707-.4 4.551-1.004 1.396-1 1.806-3.439.957-5.468a5 5 0 0 0-1.537-2.044m-6.665 5.484q.007.029.017.053c.55 1.825 1.562 2.677 2.675 2.979"/><path stroke="#002140" stroke-linecap="round" stroke-linejoin="round" d="M181.08 155.968c2.744 2.818 2.877 7.152-.309 7.518a2 2 0 0 1-.16.016m-20.965-34.437 4.296-9.72m-2.446 14.953.008-.016 5.976-15.559m.642 19.438 5.343-16.076m-.99 14.969 3.203-9.734m-23.448 16.931.23-.113a.5.5 0 0 1 .678.275l1.942 4.602a.566.566 0 0 1-.254.728l-.197.096-.032.016a.5.5 0 0 1-.679-.276l-1.942-4.602a.564.564 0 0 1 .254-.726m-4.935-12.509.071-.034c.257-.125.56-.003.679.275l1.942 4.602a.57.57 0 0 1-.257.729l-.182.087-.047.024a.5.5 0 0 1-.679-.276l-1.942-4.602c-.116-.275-.002-.601.257-.725zm5.345-46.532c1.234.561 2.1 1.875 2.1 3.403a3.9 3.9 0 0 1-.338 1.599c-.558 1.24-1.738 2.092-3.102 2.092-.6 0-1.162-.164-1.654-.453-1.066-.63-1.786-1.843-1.786-3.238q0-.242.029-.474c.215-1.814 1.661-3.218 3.411-3.218.476 0 .928.104 1.34.289"/><path stroke="#002140" stroke-linecap="round" stroke-linejoin="round" d="M153.484 88.655c0 1.292-.977 2.34-2.182 2.34-1.204 0-2.184-1.048-2.184-2.34s.978-2.341 2.184-2.341 2.182 1.046 2.182 2.34m-9.284 1.701c.333-.466.874-.956 1.538-1.38a8 8 0 0 1 1.86-.876m-1.307 5.981c.426-.412.952-.833 1.51-1.199.58-.381 1.197-.704 1.774-.895m-3.805-2.952 1.915 3.646M117.934 70.3l5.454-.035h.007m-5.895 2.277 5.461-.034M98.205 55.815c-2.561 1.258-4.743 3.599-5.796 5.338m9.291-6.23c-1.197 0-2.382.344-3.495.89m5.237-.051c1.058 1.247 1.752 2.518 2.166 3.864.644 2.089.625 4.358.272 7.009m17.658-47.533-.034-.075c-2.041-4.197-10.698-7.02-17.276-4.353-5.227 2.119-6.735 5.606-7.317 10.716a7 7 0 0 1-.054.403c-.543 3.704-2.45 4.266-4.222 8.058-.47 1-.928 2.227-1.35 3.794-.842 3.127-.733 6.143.335 8.873 1.29 3.308 3.99 6.194 8.107 8.347q.547.285 1.132.556.297.14.61.262c3.321 1.348 7.956 1.814 12.294.868 2.988-.646 5.833-1.962 8.012-4.12 2.858-2.825 4.565-7.094 3.939-13.194q-.004-.009-.003-.016"/><path stroke="#002140" stroke-linecap="round" stroke-linejoin="round" d="M125.629 32.203c2.075-2.325 4.814-2.192 6.228-.548.321.373.575.823.735 1.34 1.116 3.583-1.149 6.81-4.878 6.241q-.589-.088-1.224-.31M98.68 25.763c-.808-1.18-2.71-1.522-4.359-.818a4.5 4.5 0 0 0-2.352 2.33c-1.416 3.146.05 6.114 2.335 6.464m29.188-14.704s-2.036 1.62-1.92 4.112 1.974 3.612 1.974 3.612-.348 1.496.116 2.992 1.967 2.452 1.967 2.452"/><path stroke="#002140" stroke-linecap="round" stroke-linejoin="round" d="M96.828 30.265c-.017-.013-.1-.072-.214-.177-.415-.39-1.246-1.44-.894-3.39"/><path stroke="#002140" stroke-linecap="round" stroke-linejoin="round" d="M93.223 30.125c1.385-1.29 2.848-.44 3.388-.038.124.093.2.162.215.175m30.498 5.344-.015.003m1.959-2.619c0 1.957-1.673 2.534-1.927 2.61m2.752 1.068c-.593-1.446-2.478-1.123-2.752-1.067l-.017.005-.015.003M94.267 24.59c-.116-.373-.471-1.435-.123-2.93.347-1.497 1.633-2.127 1.633-2.127s-2.317-4.245.116-7.35c2.438-3.117 5.227-1.87 5.227-1.87s-.368-4.425 3.829-6.604c3.601-1.87 5.923.249 5.923.249s1.278-3.49 5.226-3.366c4.529.143 4.995 4.361 4.995 4.361s3.018-1.12 5.456.498c2.441 1.62 2.09 6.23 2.09 6.23s2.443.472 3.485 2.62c1.394 2.865-.348 5.48-.348 5.48s2.968 1.865 3.136 5.111c.232 4.486-3.02 6.729-3.02 6.729"/><path stroke="#002140" stroke-linecap="round" stroke-linejoin="round" d="M110.672 23.224c1.007-1.305 2.485-2.129 4.131-2.129 3.047 0 5.515 2.818 5.515 6.292q0 .218-.015.434c-.192 3.273-2.581 5.86-5.5 5.86-2.08 0-3.892-1.313-4.829-3.254a6 6 0 0 1-.351-.874 7.1 7.1 0 0 1-.335-2.166c0-.76.116-1.483.333-2.156q.032-.103.071-.206a6.3 6.3 0 0 1 .98-1.8"/><path stroke="#002140" stroke-linecap="round" stroke-linejoin="round" d="M106.519 31.308c-2.159.04-3.805-.924-4.745-2.428-.578-.921-.889-2.047-.889-3.27 0-.794.143-1.552.402-2.24.788-2.108 2.656-3.588 4.835-3.588 2.043 0 3.889 1.152 4.461 3.365m-6.445-4.475c2.033-1.57 4.871-1.218 5.981.424m3.425.376c1.683-1.31 4.588-1.06 5.632.995"/><path stroke="#002140" stroke-linecap="round" stroke-linejoin="round" d="M101.352 23.397c1.522-.48 3.857-.241 5.72.397 1.046.36 1.944.85 2.465 1.408m.291-.124c1.219-.503 2.971-.52 4.706-.204 2.519.453 5.002 1.6 5.769 2.947q.02.03.035.061"/><path stroke="#002140" stroke-linecap="round" stroke-linejoin="round" d="M101.754 28.875s.012 0 .02.005c2.371.55 3.931-.561 3.931-.561l-2.73-3.053 4.107.746s.35-1.183-.055-2.055m3.04 6.417c2.382.75 4.057-.686 4.057-.686l-3.193-2.929 4.242.186s-.022-1.113-.661-1.92m-5.323 4.539c-.878.296-1.858.974-2.606 1.81-.943 1.057-1.515 2.37-1.046 3.493q.022.059.052.117c1.219 2.494 4.412 1.123 4.412 1.123s.175 1.437 1.858 1.371c.787-.032 1.106-.376 1.229-.712.121-.334.049-.66.049-.66m-7.896-1.246c-6.91-.186-11.73 5.98-11.613 11.65m19.509-9.717c5.111 2.054 10.103 14.142 2.613 19.687"/><path stroke="#002140" stroke-linecap="round" stroke-linejoin="round" d="M103.316 49.534c-1.313 2.563-6.088 1.409-6.088-3.331s4.059-8.839 10.685-7.494 8.595 5.701 8.119 9.8c-.479 4.1-3.462 5.892-5.792 5.574-1.732-.24-3.521-1.154-3.403-3.394"/><path stroke="#002140" stroke-linecap="round" stroke-linejoin="round" d="M100.345 41.815a3 3 0 0 0-.212.472c-.864 2.232-.262 5.359 3.274 7.025q.764.365 1.718.625c.612.166 1.197.275 1.757.336 4.064.434 6.707-1.75 7.116-3.887a4.7 4.7 0 0 0-.135-2.328c-.447-1.382-1.525-2.444-2.831-2.772-2.23-.564-3.874.49-3.874.49s-1.096-1.685-2.904-1.93c-2.214-.303-3.339.987-3.82 1.808a3 3 0 0 0-.087.153"/><path stroke="#002140" stroke-linecap="round" stroke-linejoin="round" d="M100.347 41.808a2 2 0 0 1 .087-.154c.626-1.03 2.058-1.197 3.124-.251l.113.103c.829.752 1.641 1.647 2.868 2.081q.317.116.676.183c1.078.201 2.539-.395 3.815-.668.715-.15 1.374-.2 1.875.046.343.169.615.526.768.98.468 1.374-.139 3.598-2.974 3.879-.249.023-.498.045-.745.055-1.607.088-3.139-.066-4.43-.378-1.004-.244-1.86-.586-2.49-.985a11 11 0 0 1-.866-.62c-1.108-.892-2.174-2.16-2.036-3.493.03-.288.104-.548.213-.77m6.174 1.829-.93 3.739m-2.031-5.733-1.219 4.361m8.708-2.804-1.103 4.674m8.304 108.722c-.074-1.25-.41-2.203-.898-2.894a3.36 3.36 0 0 0-2.762-1.467c-1.572-.016-3.163.995-3.657 2.677m6.562 8.91c-.908-4.483-3.648-7.469-6.606-8.799-2.715-1.223-5.609-1.048-7.445.638-3.66 3.363.116 8.535.116 8.535"/><path stroke="#002140" stroke-linecap="round" stroke-linejoin="round" d="M103.573 164.312q.367.088.745.167c4.503.953 10.238 1.173 13.281-.225.508-.233.942-.511 1.281-.839 1.45-1.401 3.131-3.715 4.414-6.014.612-1.093 1.133-2.184 1.496-3.172q.144-.387.251-.75"/><path stroke="#002140" stroke-linecap="round" stroke-linejoin="round" d="M125.041 153.48c-.116-3.231-3.368-4.976-4.762-4.603m-2.794 4.735c1.77-.26 2.764-1.356 2.976-2.749a4.2 4.2 0 0 0-.032-1.371 5 5 0 0 0-.15-.615m.232 1.994c-.464 2.865 1.399 5.619 2.206 6.231"/><path stroke="#002140" stroke-linecap="round" stroke-linejoin="round" d="M104.569 164.452a3 3 0 0 0-.251.027c-1.826.259-1.644 2.049.135 2.407 1.859.376 10.367 1.056 13.496-.175 3.729-1.467 7.744-8.754 8.484-10.981.582-1.745-.928-2.616-1.626-1.493m-72.693-14.456c.772-.275 1.478-.27 2.083-.055 1.026.357 1.77 1.305 2.068 2.468.345 1.339.098 2.965-.987 4.303-.18.219-.383.434-.61.635"/><path stroke="#002140" stroke-linecap="round" stroke-linejoin="round" d="M47.297 151.978c5.533-2.778 6.152-8.172 4.306-12.117-1.137-2.431-3.21-4.311-5.643-4.69-6.246-.974-7.085 5.731-7.085 5.731s-.054 4.345 4.474 8.457a17.8 17.8 0 0 0 3.906 2.712c3.302 1.681 6.473 1.935 8.506 1.673a7 7 0 0 0 1.288-.283c1.34-.442 2.18-1.245 2.621-2.214.385-.834.474-1.792.333-2.743-.175-1.194-.646-1.87-.974-2.206a1.7 1.7 0 0 0-.344-.286c-1.046.871-2.746 1.062-3.328.564"/><path stroke="#002140" stroke-linecap="round" stroke-linejoin="round" d="M58.685 146.386c-1.278 1.62-2.275 4.983-1.695 6.853"/><path stroke="#002140" stroke-linecap="round" stroke-linejoin="round" d="M38.875 140.902c-1.278.124-2.246 1.422-1.318 3.914.93 2.491 4.57 7.551 8.866 9.545 4.297 1.994 8.825 1.994 11.73.872 2.894-1.121 2.44-3.848 1.517-3.986q-.002-.002-.007-.002m-.977-5.233.626-2.992m54.812 8.349.464.874m-42.037-66.17c-1.278 2.744-.382 4.494 2.098 7.727 2.198 2.865 6.379 5.857 10.443 7.478 1.962.784 3.529 1.215 4.832 1.453.71.13 1.342.202 1.917.241.558.04 1.064.048 1.538.048 1.858 0 2.438-1.12 2.901-3.114.464-1.994 1.24-3.241 3.47-3.68m-9.834 6.553s-.698 2.484-.464 3.358c.232.871 1.797.996 1.913 0 .116-.998.464-2.992.464-2.992m41.457-23.419.007.034c.459 2.095.671 3.83.442 5.193"/><path stroke="#fed607" stroke-linecap="round" stroke-linejoin="round" d="M91.6 49.765c-2.429 2.74-7.295 14.553-3.332 23.995m6.527 3.58c7.44 1.75 20.664-4.475 25.368-16.812"/><path stroke="#002140" stroke-linecap="round" stroke-linejoin="round" d="M94.575 77.293a9.5 9.5 0 0 1-1.105 2.88c-1.713 2.953-4.516 4.267-6.258 2.932-1.742-1.332-1.764-4.809-.05-7.764a9 9 0 0 1 1.133-1.554c1.651-1.814 3.729-2.447 5.126-1.38 1.189.911 1.576 2.823 1.154 4.886m3.64-21.499-.01.019v.002c-.182.434-3.146 7.401-3.909 9.575-2.003 5.701 5.748 9.252 8.679 1.994 1.039-2.571 2.495-7.71 2.495-7.71"/><path stroke="#002140" stroke-linecap="round" stroke-linejoin="round" d="M99.874 66.65c-.3 1.213-1.148 2.026-1.898 1.814s-1.118-1.369-.82-2.581c.3-1.213 1.148-2.026 1.898-1.814s1.116 1.369.82 2.581m-8.015 12.19c-.872 1.675-2.268 2.552-3.12 1.956-.851-.598-.836-2.441.035-4.12.871-1.676 2.265-2.553 3.12-1.957.85.599.836 2.442-.035 4.12m10.336-18.543c-.298 1.212-1.147 2.025-1.897 1.813s-1.118-1.369-.82-2.581c.3-1.213 1.148-2.026 1.898-1.814s1.118 1.369.819 2.581M49.908 74.984c-.133-.239-.25-.676-.44-1.128-.308-.74-.806-1.528-1.885-1.605-1.74-.125-2.956.53-3.481 1.87-.151.383-.185.881-.136 1.442.054.66.222 1.412.44 2.174.194.678.426 1.37.653 2.013.15.431.301.842.434 1.215.26.72.842 1.073 1.397 1.075.691.003 1.34-.535 1.276-1.573-.133-2.147-.698-3.116-.698-3.116m2.672.501c2.206.124 2.554 2.616 2.554 2.616m-4.76 7.351c3.134-.872 5.34-3.239 5.572-6.406m-11.45 4.34q-.03.158-.045.32c-.148 1.743.812 2.495 2.554 2.119a.09.09 0 0 0 .067-.059c.111-.286-.627-1.496.63-2.06.396-.177.82-.355 1.218-.548 1-.49 1.819-1.088 1.57-2.068-.19-.736-.58-1.078-1.172-1.12-.506-.032-1.163.154-1.965.498-1.604.688-2.615 1.695-2.857 2.918"/><path stroke="#002140" stroke-linecap="round" stroke-linejoin="round" d="M42.011 85.742c-.718-.733-1.029-1.702-.819-2.664.262-1.215 1.35-2.415 3.49-3.108"/><path stroke="#002140" stroke-linecap="round" stroke-linejoin="round" d="m41.197 83.084-.005-.006c-.703-.582-1.09-1.504-.831-2.449.293-1.075 1.43-2.182 3.903-2.844m-.58-2.192q-.289.046-.56.108c-1.47.323-2.537.927-3.146 1.653-.805.958-.822 2.131.052 3.172m-3.546-5.203s5.411-2.955 6.571.034m0 17.945c.464-.249 3.818-1.496 4.516-3.241.257-.644.207-1.427.047-2.16-.281-1.261-.9-2.376-.9-2.376m-4.706 5.029s3.299-1.052 2.62-2.42l-.005-.008"/><path stroke="#002140" stroke-linecap="round" stroke-linejoin="round" d="M37.412 78.167s1.52-.787 2.566-.813q.03-.004.06-.003m5.204 25.518a6.03 6.03 0 0 0-.213-3.17 3396 3396 0 0 0-2.243-6.286l-.595-1.657-.4-1.112a4427 4427 0 0 0-3.299-9.157c-.394-1.102-.792-2.198-1.182-3.278l-1.014-2.81c-1.258-3.484-2.416-6.68-3.316-9.167-1.034-2.86-4.05-4.255-6.7-3.103-1.118.487-2.37 1.033-3.692 1.607-4.37 1.896-9.5 4.107-12.997 5.574a4.5 4.5 0 0 0-1.9 1.512 5.1 5.1 0 0 0-.659 4.713l1.545 4.29 4.493 12.472 6.347 17.622c.847 2.359 3.2 3.612 5.422 2.989q.3-.08.597-.211l9.037-3.665 7.768-3.149c1.229-.545 2.154-1.617 2.665-2.888a6 6 0 0 0 .333-1.113"/><path stroke="#002140" stroke-linecap="round" stroke-linejoin="round" d="M43.102 109.622q.143-.439.301-.869c.284-.757 1.037-3.212 1.503-4.758.148-.488.266-.885.333-1.112 0-.006.003-.008.003-.014l.012-.039M7.985 71.37a24 24 0 0 0-.319.43c-1.45 1.995-2.643 3.96-3.603 5.59-.767 1.309-1.386 2.4-1.87 3.12-1.639 2.45-.881 4.451.165 7.814 1.044 3.365 10.377 27.496 11.655 30.737 1.278 3.239 3.818 4.727 8.696 3.231 4.876-1.494 13.469-5.344 16.398-6.795 2.667-1.321 3.265-3.657 3.993-5.873"/><path stroke="#002140" stroke-linecap="round" stroke-linejoin="round" d="M4.152 77.21a4 4 0 0 0-.089.18c-.594 1.264-.449 2.092.44 5.071.928 3.114 11.497 29.851 12.656 32.896 1.047 2.74 3.996 3.958 6.024 3.249 5.343-1.87 17.128-7.216 18.076-7.528 1.014-.334 1.554-.948 1.84-1.454l.003-.003c.252-.445.301-.802.301-.802M8.666 80.788c-.175-1.387.03-2.947.866-4.025.834-1.075 2.285-1.634 3.511-1.154.65.254 1.195.762 1.851.993.694.24 1.446.148 2.164.013 1.4-.265 3.058-1.04 3.13-2.563.073-1.539-1.602-2.942-1.025-4.354.47-1.151 1.967-1.138 3.033-1.662.622-.308 1.16-.893 1.276-1.616.113-.696-.262-1.485-.884-1.684a.4.4 0 0 0-.079-.024m10.471 1.52c-1.488-.307-2.752 0-3.847 1.128-1.094 1.123-1.642 2.828-1.424 4.438.158 1.157.68 2.24.755 3.408s-.56 2.55-1.649 2.598c-.446.021-.87-.19-1.31-.265-1.288-.225-2.524.718-3.287 1.854-.508.76-.888 1.654-.9 2.59-.013.937.397 1.911 1.154 2.372 1.074.656 2.806.394 3.223 1.644.336 1.004-.607 2.018-.565 3.082.04 1.007 1.012 1.761 1.947 1.756.938-.005 1.794-.598 2.438-1.327a7 7 0 0 0 1.402-2.475c.254-.797.372-1.647.703-2.413.328-.768.945-1.472 1.727-1.549.617-.06 1.2.273 1.794.464.593.19 1.348.182 1.703-.363.264-.4.21-.95.42-1.388.185-.384.814-.508.967-.19q.03.061.034.145"/><path stroke="#002140" stroke-linecap="round" stroke-linejoin="round" d="M13.152 93.262c.165-1.02.977-1.877 1.93-2.039.952-.164 1.971.384 2.423 1.298.42.847.355 1.874.651 2.783.363 1.107 1.298 1.978 2.374 2.206 1.074.225 2.248-.2 2.974-1.078.439-.532.72-1.205 1.201-1.695 1.237-1.247 3.635-.508 4.067 1.253.462 1.89-1.07 3.638-2.576 4.739-.57.421-1.172.824-1.597 1.412-.424.588-.639 1.419-.333 2.086.338.739 1.214 1.102 1.461 1.88.35 1.11-.772 2.1-1.791 2.516-1.022.418-2.26.829-2.57 1.951-.253.919.31 1.918 1.074 2.413.768.492 1.505.799 2.394.897m9.584-4.008c-.942-.353-1.801-1.102-2.14-2.135-.34-1.03-.046-2.332.798-2.907.518-.352 1.152-.403 1.74-.575 1.216-.354 2.396-1.591 2.12-2.944-.203-.998-1.096-1.637-1.489-2.563-.446-1.052-.143-2.38.607-3.194.753-.81 1.876-1.125 2.917-.972.514.077 1.024.257 1.54.21 1.229-.114 2.068-1.783 1.6-3.009a2 2 0 0 0-.107-.23M69.78 62.772q-.045.075-.081.148c-.96 1.787-.664 3.278-.05 4.464M93.628 46.51l-.008.008a7.4 7.4 0 0 0-1.276 1.936q-.303.656-.518 1.385c-.974 3.318-.587 7.64.583 11.314m13.471 5.482c4.18-.59 10.182-2.105 14.147-6.255a14 14 0 0 0 2.07-2.762c.835-1.448 1.456-3.124 1.782-5.062"/></svg>