<?xml version="1.0" encoding="utf-8"?>
<!-- Generator: Adobe Illustrator 24.3.0, SVG Export Plug-In . SVG Version: 6.00 Build 0)  -->
<svg version="1.1" id="Layer_1" xmlns="http://www.w3.org/2000/svg" xmlns:xlink="http://www.w3.org/1999/xlink" x="0px" y="0px"
	 viewBox="0 0 20 20" style="enable-background:new 0 0 20 20;" xml:space="preserve">
<path d="M16.8,13c-1-1-2.1-1.4-3.4-0.1c-0.1,0.1-0.4,0.4-0.5,0.6c-1-0.5-2.4-1.5-3.9-3c-1.6-1.6-2.6-3.1-3.1-4
	C6,6.4,6.2,6.2,6.4,6.1c1.2-1.2,0.9-2.4-0.1-3.4c-0.9-1-2.1-1.4-3.4-0.1C2.6,2.8,2.5,3.1,2.4,3.4c-0.8,0.9-1.1,2.5,0.2,5
	c0.8,1.5,2.1,3.1,3.8,4.8c1.2,1.2,4.9,4.6,7.9,4.6c0.9,0,1.6-0.2,2.2-0.9c0.1-0.1,0.2-0.2,0.5-0.4C18.1,15.2,17.8,14,16.8,13z"/>
</svg>
