<?xml version="1.0" encoding="utf-8"?>
<!-- Generator: Adobe Illustrator 27.3.1, SVG Export Plug-In . SVG Version: 6.00 Build 0)  -->
<svg version="1.1" id="Layer_1" xmlns="http://www.w3.org/2000/svg" xmlns:xlink="http://www.w3.org/1999/xlink" x="0px" y="0px"
	 viewBox="0 0 20 20" style="enable-background:new 0 0 20 20;" xml:space="preserve">
<path d="M6.176,2.134C6.088,1.815,6.327,1.5,6.658,1.5h2.033c0.189,0,0.363,0.107,0.447,0.276L12.5,8.5h5c0.829,0,1.5,0.672,1.5,1.5
	c0,0.828-0.671,1.5-1.5,1.5h-5l-3.362,6.724C9.054,18.393,8.88,18.5,8.691,18.5H6.658c-0.331,0-0.57-0.315-0.482-0.634L7.944,11.5
	H4.833l-0.719,2.158C4.046,13.862,3.855,14,3.64,14H1.694c-0.341,0-0.582-0.334-0.474-0.658L2.333,10L1.219,6.658
	C1.111,6.334,1.352,6,1.694,6H3.64c0.215,0,0.406,0.138,0.474,0.342L4.833,8.5h3.111L6.176,2.134z"/>
</svg>
