<svg xmlns="http://www.w3.org/2000/svg" viewBox="0 0 20 20"><path d="M15 10.5c2.49 0 4.5 2.01 4.5 4.5s-2.01 4.5-4.5 4.5-4.5-2.01-4.5-4.5 2.01-4.5 4.5-4.5m-6.31-9c.19 0 .36.11.45.28L12.5 8.5h5c.83 0 1.5.67 1.5 1.5 0 .06 0 .13-.01.19a6.252 6.252 0 0 0-9.61 7.55l-.24.49a.5.5 0 0 1-.45.28H6.66c-.33 0-.57-.32-.48-.63l1.77-6.37H4.84l-.72 2.16c-.07.2-.26.34-.47.34H1.7c-.34 0-.58-.33-.47-.66l1.11-3.34-1.11-3.34a.5.5 0 0 1 .47-.66h1.95c.21 0 .41.14.47.34l.72 2.16h3.11L6.18 2.14c-.09-.32.15-.63.48-.63h2.03Zm3.73 11.98c-.26.45-.41.97-.41 1.52 0 1.66 1.34 3 3 3 .56 0 1.08-.15 1.52-.42l-4.11-4.11ZM15 12c-.56 0-1.08.15-1.52.42l4.11 4.11c.26-.45.42-.97.42-1.52 0-1.66-1.34-3-3-3H15Z"/></svg>