<?xml version="1.0" encoding="UTF-8"?>
<svg id="Layer_1" xmlns="http://www.w3.org/2000/svg" version="1.1" viewBox="0 0 20 20">
  <!-- Generator: Adobe Illustrator 29.2.1, SVG Export Plug-In . SVG Version: 2.1.0 Build 116)  -->
  <path d="M15.814,3.581c.321-.449.217-1.074-.233-1.395-.449-.321-1.074-.217-1.395.233l-10,14c-.321.449-.217,1.074.233,1.395.449.321,1.074.217,1.395-.233L15.814,3.581Z"/>
  <path d="M13,14c-.552,0-1,.448-1,1s.448,1,1,1h6c.552,0,1-.448,1-1s-.448-1-1-1h-6Z"/>
  <path d="M5,2c0-.552-.448-1-1-1s-1,.448-1,1v2H1c-.552,0-1,.448-1,1s.448,1,1,1h2v2c0,.552.448,1,1,1s1-.448,1-1v-2h2c.552,0,1-.448,1-1s-.448-1-1-1h-2v-2Z"/>
</svg>