<?xml version="1.0" encoding="utf-8"?>
<!-- Generator: Adobe Illustrator 24.3.0, SVG Export Plug-In . SVG Version: 6.00 Build 0)  -->
<svg version="1.1" id="Layer_1" xmlns="http://www.w3.org/2000/svg" xmlns:xlink="http://www.w3.org/1999/xlink" x="0px" y="0px"
	 viewBox="0 0 20 20" style="enable-background:new 0 0 20 20;" xml:space="preserve">
<path d="M16.9,8.8h-5.6V3.1c0-0.4-0.2-0.6-0.6-0.6H9.4C9,2.5,8.8,2.8,8.8,3.1v5.6H3.1C2.8,8.8,2.5,9,2.5,9.4v1.2
	c0,0.4,0.2,0.6,0.6,0.6h5.6v5.6c0,0.4,0.2,0.6,0.6,0.6h1.2c0.4,0,0.6-0.2,0.6-0.6v-5.6h5.6c0.4,0,0.6-0.2,0.6-0.6V9.4
	C17.5,9,17.2,8.8,16.9,8.8z"/>
</svg>
