<?xml version="1.0" encoding="utf-8"?>
<!-- Generator: Adobe Illustrator 28.1.0, SVG Export Plug-In . SVG Version: 6.00 Build 0)  -->
<svg version="1.1" id="Layer_1" xmlns="http://www.w3.org/2000/svg" xmlns:xlink="http://www.w3.org/1999/xlink" x="0px" y="0px"
	 viewBox="0 0 20 20" style="enable-background:new 0 0 20 20;" xml:space="preserve">
<style type="text/css">
	.st0{fill-rule:evenodd;clip-rule:evenodd;}
</style>
<path class="st0" d="M10,19c4.971,0,9-4.029,9-9c0-4.971-4.029-9-9-9c-4.971,0-9,4.029-9,9C1,14.971,5.029,19,10,19z M10,4.5
	c0.828,0,1.5,0.672,1.5,1.5v2.5H14c0.828,0,1.5,0.672,1.5,1.5c0,0.828-0.672,1.5-1.5,1.5h-2.5V14c0,0.828-0.672,1.5-1.5,1.5
	c-0.828,0-1.5-0.672-1.5-1.5v-2.5H6c-0.828,0-1.5-0.672-1.5-1.5c0-0.828,0.672-1.5,1.5-1.5h2.5V6C8.5,5.172,9.172,4.5,10,4.5z"/>
</svg>
