<?xml version="1.0" encoding="utf-8"?>
<!-- Generator: Adobe Illustrator 26.5.0, SVG Export Plug-In . SVG Version: 6.00 Build 0)  -->
<svg version="1.1" id="Layer_1" xmlns="http://www.w3.org/2000/svg" xmlns:xlink="http://www.w3.org/1999/xlink" x="0px" y="0px"
	 viewBox="0 0 20 20" style="enable-background:new 0 0 20 20;" xml:space="preserve">
<style type="text/css">
	.st0{fill-rule:evenodd;clip-rule:evenodd;}
</style>
<path d="M7,11c0-0.6,0.4-1,1-1h4c0.6,0,1,0.4,1,1s-0.4,1-1,1H8C7.4,12,7,11.6,7,11z"/>
<path d="M8,13c-0.6,0-1,0.4-1,1s0.4,1,1,1h4c0.6,0,1-0.4,1-1s-0.4-1-1-1H8z"/>
<path class="st0" d="M4,3c0-0.6,0.4-1,1-1h10c0.6,0,1,0.4,1,1v1c0,0.6,0.4,1,1,1h1c0.6,0,1,0.4,1,1v7c0,0.6-0.4,1-1,1h-2v3
	c0,0.6-0.4,1-1,1H5c-0.6,0-1-0.4-1-1v-3H2c-0.6,0-1-0.4-1-1V6c0-0.6,0.4-1,1-1h1c0.6,0,1-0.4,1-1V3z M14,9H6v7h8V9z"/>
</svg>
