<svg xmlns="http://www.w3.org/2000/svg" xml:space="preserve" id="Layer_1" x="0" y="0" viewBox="0 0 20 20"><style>.st0{fill-rule:evenodd;clip-rule:evenodd}</style><path d="M7 11c0-.6.4-1 1-1h4c.6 0 1 .4 1 1s-.4 1-1 1H8c-.6 0-1-.4-1-1m1 2c-.6 0-1 .4-1 1s.4 1 1 1h4c.6 0 1-.4 1-1s-.4-1-1-1z"/><path d="M4 3c0-.6.4-1 1-1h10c.6 0 1 .4 1 1v1c0 .6.4 1 1 1h1c.6 0 1 .4 1 1v7c0 .6-.4 1-1 1h-2v3c0 .6-.4 1-1 1H5c-.6 0-1-.4-1-1v-3H2c-.6 0-1-.4-1-1V6c0-.6.4-1 1-1h1c.6 0 1-.4 1-1zm10 6H6v7h8z" class="st0"/></svg>