<?xml version="1.0" encoding="utf-8"?>
<!-- Generator: Adobe Illustrator 24.3.0, SVG Export Plug-In . SVG Version: 6.00 Build 0)  -->
<svg version="1.1" id="Layer_1" xmlns="http://www.w3.org/2000/svg" xmlns:xlink="http://www.w3.org/1999/xlink" x="0px" y="0px"
	 viewBox="0 0 20 20" style="enable-background:new 0 0 20 20;" xml:space="preserve">
<path d="M10,11.2c2.1,0,3.8-1.7,3.8-3.8S12.1,3.8,10,3.8c-2.1,0-3.8,1.7-3.8,3.8S7.9,11.2,10,11.2z"/>
<path d="M10,1.2c-4.8,0-8.8,3.9-8.8,8.8s3.9,8.8,8.8,8.8s8.8-3.9,8.8-8.8S14.9,1.2,10,1.2z M15.6,15c-1.4-1.5-3.4-2.5-5.6-2.5
	s-4.2,1-5.6,2.5c-1.1-1.4-1.9-3.1-1.9-5c0-4.1,3.4-7.5,7.5-7.5s7.5,3.4,7.5,7.5C17.5,11.9,16.9,13.6,15.6,15z"/>
</svg>
