<?xml version="1.0" encoding="utf-8"?>
<!-- Generator: Adobe Illustrator 26.5.0, SVG Export Plug-In . SVG Version: 6.00 Build 0)  -->
<svg version="1.1" id="Layer_1" xmlns="http://www.w3.org/2000/svg" xmlns:xlink="http://www.w3.org/1999/xlink" x="0px" y="0px"
	 viewBox="0 0 20 20" style="enable-background:new 0 0 20 20;" xml:space="preserve">
<g>
	<circle cx="10" cy="7" r="3"/>
	<path d="M10,1c-5,0-9,4-9,9s4,9,9,9s9-4,9-9S15,1,10,1z M15.9,13.7C14.6,12.1,12.4,11,10,11c-2.4,0-4.6,1.1-5.9,2.7
		C3.4,12.6,3,11.4,3,10c0-3.9,3.1-7,7-7c3.9,0,7,3.1,7,7C17,11.4,16.6,12.6,15.9,13.7z"/>
</g>
</svg>
