<?xml version="1.0" encoding="utf-8"?>
<!-- Generator: Adobe Illustrator 24.3.0, SVG Export Plug-In . SVG Version: 6.00 Build 0)  -->
<svg version="1.1" id="Layer_1" xmlns="http://www.w3.org/2000/svg" xmlns:xlink="http://www.w3.org/1999/xlink" x="0px" y="0px"
	 viewBox="0 0 20 20" style="enable-background:new 0 0 20 20;" xml:space="preserve">
<path d="M10.1,1.4c-4.9,0-8.8,3.9-8.8,8.8s3.9,8.8,8.8,8.8s8.8-3.9,8.8-8.8S14.9,1.4,10.1,1.4z M10.1,16.4c-0.8,0-1.2-0.6-1.2-1.2
	c0-0.8,0.6-1.2,1.2-1.2s1.2,0.6,1.2,1.2C11.4,15.9,10.9,16.4,10.1,16.4z M14.1,8.6c-0.1,0.2-0.4,0.8-0.6,0.9c-0.1,0.2-1,0.9-1.2,1
	c-0.1,0.2-0.5,0.5-0.8,0.8c0,0-0.1,0.1-0.2,0.5c0,0.2,0,0.4,0,0.4c0,0.4-0.4,0.6-0.6,0.6H9.5c-0.4,0-0.6-0.2-0.6-0.6
	c0,0,0.1-1,0.2-1.4s0.6-0.9,0.6-0.9c0.2-0.2,0.6-0.5,0.8-0.6s0.4-0.4,0.5-0.4s0.4-0.6,0.6-0.9c0,0,0-0.1,0-0.5s-0.1-0.9-0.4-1.1
	C11.1,6,10.8,5.8,10,5.8C9.4,5.8,8.9,6,8.6,6.4C8.5,6.8,8.4,7,8.2,7.4c0,0.2-0.4,0.5-0.6,0.5H6.5C6.1,7.8,5.8,7.5,5.9,7
	C6.1,5.8,7,4.8,7,4.8C7.2,4.5,7.8,4.2,8,4c0,0,0.9-0.4,1.9-0.4c1.2,0,2.4,0.2,3.1,0.9c0.9,0.6,1.2,1.5,1.2,2.8
	C14.4,8.1,14.1,8.6,14.1,8.6z"/>
</svg>
