<?xml version="1.0" encoding="utf-8"?>
<!-- Generator: Adobe Illustrator 26.5.0, SVG Export Plug-In . SVG Version: 6.00 Build 0)  -->
<svg version="1.1" id="Layer_1" xmlns="http://www.w3.org/2000/svg" xmlns:xlink="http://www.w3.org/1999/xlink" x="0px" y="0px"
	 viewBox="0 0 20 20" style="enable-background:new 0 0 20 20;" xml:space="preserve">
<style type="text/css">
	.st0{fill-rule:evenodd;clip-rule:evenodd;}
</style>
<path class="st0" d="M10,19c5,0,9-4,9-9c0-5-4-9-9-9c-5,0-9,4-9,9C1,15,5,19,10,19z M10.9,10.9v1.4H8.8v-3h0.5
	c1.3,0,2.1-0.7,2.1-1.8c0-1.1-0.6-1.6-1.5-1.6C9,6,8.3,6.8,8.3,7.8H6C6,5.7,7.6,4,9.9,4c2.3,0,3.9,1.2,3.9,3.5
	C13.8,9.4,12.6,10.7,10.9,10.9z M11.2,14.6c0,0.8-0.6,1.4-1.3,1.4c-0.8,0-1.3-0.6-1.3-1.4c0-0.7,0.6-1.3,1.3-1.3
	C10.6,13.3,11.2,13.9,11.2,14.6z"/>
</svg>
