<?xml version="1.0" encoding="utf-8"?>
<!-- Generator: Adobe Illustrator 26.5.0, SVG Export Plug-In . SVG Version: 6.00 Build 0)  -->
<svg version="1.1" id="Layer_1" xmlns="http://www.w3.org/2000/svg" xmlns:xlink="http://www.w3.org/1999/xlink" x="0px" y="0px"
	 viewBox="0 0 20 20" style="enable-background:new 0 0 20 20;" xml:space="preserve">
<style type="text/css">
	.st0{fill-rule:evenodd;clip-rule:evenodd;}
</style>
<path class="st0" d="M3,1.1v17.9c0,0.4,0.5,0.5,0.7,0.3l0.7-0.9c0.2-0.2,0.4-0.2,0.6,0l1.1,1.3c0.2,0.2,0.4,0.2,0.6,0l1.1-1.3
	c0.2-0.2,0.4-0.2,0.6,0l1.1,1.3c0.2,0.2,0.4,0.2,0.6,0l1.1-1.3c0.2-0.2,0.4-0.2,0.6,0l1.1,1.3c0.2,0.2,0.4,0.2,0.6,0l1.1-1.3
	c0.2-0.2,0.4-0.2,0.6,0l0.7,0.9c0.2,0.3,0.7,0.1,0.7-0.3V1.1c0-0.4-0.5-0.5-0.7-0.3l-0.7,0.9c-0.2,0.2-0.4,0.2-0.6,0l-1.1-1.3
	c-0.2-0.2-0.4-0.2-0.6,0L12,1.7c-0.2,0.2-0.4,0.2-0.6,0l-1.1-1.3c-0.2-0.2-0.4-0.2-0.6,0L8.5,1.7c-0.2,0.2-0.4,0.2-0.6,0L6.8,0.3
	c-0.2-0.2-0.4-0.2-0.6,0L5,1.7c-0.2,0.2-0.4,0.2-0.6,0L3.7,0.8C3.5,0.5,3,0.7,3,1.1z M7,5C6.4,5,6,5.4,6,6c0,0.6,0.4,1,1,1h6
	c0.6,0,1-0.4,1-1c0-0.6-0.4-1-1-1H7z M7,9c-0.6,0-1,0.4-1,1c0,0.6,0.4,1,1,1h4c0.6,0,1-0.4,1-1c0-0.6-0.4-1-1-1H7z M6,14
	c0-0.6,0.4-1,1-1h6c0.6,0,1,0.4,1,1c0,0.6-0.4,1-1,1H7C6.4,15,6,14.6,6,14z"/>
</svg>
