<?xml version="1.0" encoding="utf-8"?>
<!-- Generator: Adobe Illustrator 24.3.0, SVG Export Plug-In . SVG Version: 6.00 Build 0)  -->
<svg version="1.1" id="Layer_1" xmlns="http://www.w3.org/2000/svg" xmlns:xlink="http://www.w3.org/1999/xlink" x="0px" y="0px"
	 viewBox="0 0 20 20" style="enable-background:new 0 0 20 20;" xml:space="preserve">
<path d="M19.9,18.9c-0.2,0.2-0.6,0.2-0.9,0l-3.2-3.2c-0.2-0.2-0.2-0.6,0-0.9s0.6-0.2,0.9,0l3.2,3.2C20,18.2,20,18.6,19.9,18.9z"/>
<path d="M10.5,15H6.9c-0.4,0-0.6-0.2-0.6-0.6s0.2-0.6,0.6-0.6h3.2C10,13.5,10,13.4,10,13.1c0-0.6,0.1-1.2,0.5-1.9H6.9
	c-0.4,0-0.6-0.2-0.6-0.6S6.5,10,6.9,10h4.5c0.8-0.8,1.9-1.2,3-1.2c0.6,0,1.2,0.1,1.9,0.5v-8l-1.2,1l-1.2-1l-1.2,1l-1.2-1l-1.2,1
	l-1.2-1l-1.2,1l-1.2-1L5,2.2l-1.2-1V20L5,19l1.2,1l1.2-1l1.2,1l1.2-1l1.2,1l1.2-1l1.2,1l1.2-1l1.2,1v-3c-0.6,0.2-1.2,0.5-1.9,0.5
	C12.6,17.5,11.1,16.5,10.5,15z M6.9,6.2h6.2c0.4,0,0.6,0.2,0.6,0.6s-0.2,0.6-0.6,0.6H6.9c-0.4,0-0.6-0.2-0.6-0.6S6.5,6.2,6.9,6.2z"
	/>
<path d="M19.9,18l-3-3c0.4-0.5,0.6-1.1,0.6-1.9c0-1-0.5-1.9-1.2-2.5c-0.5-0.4-1.1-0.6-1.9-0.6c-0.2,0-0.6,0-0.9,0.1
	c-0.6,0.2-1.2,0.6-1.6,1.1s-0.6,1.1-0.6,1.9c0,0.2,0,0.4,0.1,0.6c0.1,0.5,0.2,0.9,0.6,1.2c0.6,0.8,1.5,1.2,2.5,1.2
	c0.5,0,1.1-0.1,1.5-0.4l3,3c0.1,0.1,0.2,0.1,0.4,0.1s0.2,0,0.4-0.1C20,18.6,20,18.2,19.9,18z M14.4,15c-0.2,0-0.5-0.1-0.8-0.2
	c-0.5-0.2-0.8-0.6-1-1c-0.1-0.2-0.1-0.4-0.1-0.6c0-1,0.9-1.9,1.9-1.9s1.9,0.9,1.9,1.9S15.4,15,14.4,15z"/>
</svg>
