<svg xmlns="http://www.w3.org/2000/svg" viewBox="0 0 20 20" fill="none" stroke="currentColor" stroke-linecap="round" stroke-linejoin="round" stroke-width="1.5"><path d="M12 17.5H3.7c-.4 0-.7-.4-.7-.8V1.8c0-.6.7-.9 1.1-.5l.4.5.8-1c.2-.2.5-.2.7 0l.9 1.1.9-1.1c.2-.2.5-.2.7 0l.9 1.1.9-1.1c.2-.2.5-.2.7 0l.9 1.1.9-1.1c.2-.2.5-.2.7 0l.4.5c.4-.4 1.1-.1 1.1.5V8"/><line x1="6" y1="7" x2="12" y2="7"/><line x1="6" y1="10" x2="10" y2="10"/><line x1="6" y1="13" x2="9" y2="13"/><circle cx="15" cy="15" r="3.5"/><line x1="15" y1="13" x2="15" y2="17"/><line x1="13" y1="15" x2="17" y2="15"/></svg>
