<svg width="165" height="165" viewBox="0 0 165 165" fill="none" xmlns="http://www.w3.org/2000/svg">
<g id="Frame 2213">
<g id="Group 2134">
<path id="Vector" d="M77.9411 129.245L69.0278 137.523C69.0278 137.523 67.3729 138.924 67.4995 140.832C67.6262 142.743 68.645 147.072 84.434 147.072C100.223 147.072 102.387 143.636 102.004 141.089C101.622 138.542 97.5493 135.105 97.5493 135.105L91.3096 129.375V124.537C91.3096 124.537 98.948 120.718 94.3661 113.077L72.9765 112.184C72.9765 112.184 69.4106 121.478 77.9411 124.79V129.245Z" fill="#FED604"/>
<path id="Vector_2" d="M126.068 61.1246C126.068 61.1246 95.1288 56.796 88.636 54.1223L82.7791 53.3596C82.7791 53.3596 68.645 47.5028 64.0632 43.4275L63.9365 48.9015L58.0797 47.7561L59.0985 52.4674L51.5868 52.8502L52.7323 57.9444L45.2206 59.0898L48.0209 64.6934L41.6547 64.0573L42.1641 70.0408L37.1995 72.5879L47.0021 73.4801L43.1829 83.7921C43.1829 83.7921 58.5891 95.123 87.2372 97.6701C103.406 98.8156 113.085 97.034 113.085 97.034L110.028 91.1772L115.885 89.649L113.465 83.7921H120.214L116.778 78.0619L125.308 77.6792L120.343 72.2051L127.602 71.0596L121.998 65.4561L126.074 61.1275L126.068 61.1246Z" fill="#FFFAF0"/>
<path id="Vector_3" d="M83.3202 63.0673L85.4212 61.1592L88.5727 65.3583L87.9999 24.7749L85.4154 18.7598L83.2252 24.9648L83.3202 63.0673Z" fill="#FED604"/>
<path id="Vector_4" d="M37.2917 73.1895L42.2592 83.2166L43.1801 83.7893L46.5561 73.7622L37.2917 73.1895Z" fill="#FEE45E"/>
<path id="Vector_5" d="M40.1235 79.4606L29.4287 93.0853L37.706 94.4869L34.1401 96.0151L37.8326 99.9609L29.9381 103.78L40.8891 104.29L38.2154 111.801L47.5086 110.146L114.607 114.092L113.971 110.017L118.556 110.909L116.265 106.198L122.249 103.651L126.704 104.413L127.087 97.1548L130.017 99.1925L136 82.8941C136 82.8941 134.345 73.3447 126.324 72.582L123.141 74.4931L125.305 77.6762L121.613 78.3122L119.702 81.4953L120.211 83.7863L117.791 84.1691L115.117 87.3522L115.753 89.0071L113.589 90.5353L113.971 92.4463L112.826 94.3574L113.718 96.9044C113.718 96.9044 105.697 98.6859 91.5629 98.0499C77.4288 97.4138 67.3701 94.6135 67.3701 94.6135C67.3701 94.6135 50.1823 89.5194 43.1772 83.792L40.1207 79.4634L40.1235 79.4606Z" fill="#FFFAF0"/>
<path id="Vector_6" d="M64.0631 97.1579C64.0631 97.1579 79.7226 103.015 94.1129 103.015C108.503 103.015 121.869 102.123 126.707 104.416L127.09 97.1579C127.09 97.1579 119.578 93.3387 112.193 94.228L113.721 96.9017C113.721 96.9017 103.279 98.0472 98.6976 97.9206C94.1157 97.7939 64.066 97.1579 64.066 97.1579H64.0631Z" fill="#FED604"/>
<path id="Vector_7" d="M29.4288 93.0852L52.8561 95.7589L53.6188 89.9021L43.6866 84.2986L40.5035 79.97C40.5035 79.97 30.5714 91.6836 29.4259 93.0852H29.4288Z" fill="#FED604"/>
<path id="Vector_8" d="M53.6215 89.9023C53.6215 89.9023 51.9666 99.4517 52.8588 103.271C52.8588 103.271 61.8988 95.8858 69.2839 95.2498L53.6244 89.9023H53.6215Z" fill="#FEE45E"/>
<path id="Vector_9" d="M45.8539 110.526L114.61 114.092L113.335 109.508L74.1192 105.945L45.8539 110.526Z" fill="#F9B5FF"/>
<path id="Vector_10" d="M40.8889 104.29L38.2152 111.801L74.1189 105.944L40.8889 104.29Z" fill="#002140" stroke="#002140" stroke-miterlimit="10"/>
<path id="Vector_11" d="M111.87 94.1014L115.787 93.2438L113.591 89.9973L110.345 91.4277L111.87 94.1014Z" fill="#0B1B34" stroke="#002140" stroke-miterlimit="10"/>
<g id="Vector_12">
<path d="M113.591 83.9795L114.927 87.7037L118.173 86.6532L117.506 83.9795L113.114 84.1723" fill="#0B1B34"/>
<path d="M113.591 83.9795L114.927 87.7037L118.173 86.6532L117.506 83.9795L113.114 84.1723" stroke="#002140" stroke-miterlimit="10"/>
</g>
<path id="Vector_13" d="M116.55 77.9644L119.034 81.4986L123.043 80.6381L122.375 77.7744L116.55 77.9644Z" fill="#0B1B34" stroke="#002140" stroke-miterlimit="10"/>
<path id="Vector_14" d="M120.467 72.3319L121.995 74.3351L127.532 74.0501V72.4269L126.194 71.1836L120.467 72.3319Z" fill="#0B1B34" stroke="#002140" stroke-miterlimit="10"/>
<path id="Vector_15" d="M47.2235 86.6531L45.2175 90.3773L52.5709 92.956L53.8114 89.6146L47.2235 86.6531Z" fill="#002140" stroke="#002140" stroke-miterlimit="10"/>
<path id="Vector_16" d="M64.3161 96.778L82.7471 97.6386L69.0908 95.0598C69.0908 95.0598 64.8888 95.1548 64.3161 96.778Z" fill="#002140" stroke="#002140" stroke-miterlimit="10"/>
<path id="Vector_17" d="M87.807 107.185V110.242L92.2968 110.624L92.7746 107.28L87.807 107.185Z" fill="#002140"/>
<path id="Vector_18" d="M104.709 108.426L104.997 111.387L109.867 111.577L109.579 109.286L104.709 108.426Z" fill="#0B1B34" stroke="#002140" stroke-miterlimit="10"/>
<g id="Vector_19">
<path d="M77.3022 112.248C77.3022 112.248 74.3406 121.509 84.6556 121.702C94.9705 121.895 91.1484 112.915 91.1484 112.915H87.6142C87.6142 112.915 87.6142 117.307 84.2728 116.734C80.9314 116.162 79.9759 114.061 81.2163 112.533" fill="#002140"/>
<path d="M77.3022 112.248C77.3022 112.248 74.3406 121.509 84.6556 121.702C94.9705 121.895 91.1484 112.915 91.1484 112.915H87.6142C87.6142 112.915 87.6142 117.307 84.2728 116.734C80.9314 116.162 79.9759 114.061 81.2163 112.533" stroke="#002140" stroke-miterlimit="10"/>
</g>
<path id="Vector_20" d="M78.2578 132.492C78.2031 131.623 78.0678 129.435 78.0678 129.435L71.1922 135.165C71.1922 135.165 69.379 140.896 73.8659 141.468C78.3527 142.041 78.3528 138.507 78.3528 138.507C78.3528 138.507 79.691 134.495 83.8901 134.495C88.0892 134.495 90.288 141.848 93.4395 141.753C96.5909 141.658 97.6414 136.406 97.4515 135.355C97.2615 134.305 91.1486 129.53 91.1486 129.53L91.0536 132.777C91.0536 132.777 84.6557 135.64 78.2578 132.489V132.492Z" fill="#002140" stroke="#002140" stroke-miterlimit="10"/>
<path id="Vector_21" d="M55.1728 71.9148C55.2159 71.8514 55.2505 71.7824 55.2735 71.7047C55.426 71.1981 55.0605 70.8211 54.6489 70.6024C54.4053 70.4738 54.1127 70.3194 53.7712 70.139C53.4603 69.975 53.1006 69.8627 52.7926 70.0987C52.594 70.2512 52.4731 70.5563 52.4962 70.8067C52.4962 70.8326 52.5739 71.1578 52.6372 71.1319C52.6372 71.1319 51.7767 71.4744 51.486 72.0212L50.6456 71.5752C50.6456 71.5752 49.9865 71.2269 49.6009 71.9579C49.2152 72.689 49.9462 73.0775 49.9462 73.0775L50.7866 73.5236C50.7866 73.5236 49.8023 76.0937 52.217 77.3716C55.4375 79.0754 56.6463 73.1581 58.6207 74.2028C58.8998 74.3496 59.6769 75.0403 58.7272 76.8333C57.5759 79.0092 56.2952 77.0463 55.5699 78.4192C55.1728 79.1703 55.6448 79.651 56.0822 79.8841L57.7285 80.7561C57.7285 80.7561 58.3703 81.0497 58.7387 80.3532C59.1071 79.6567 58.8739 79.2998 58.8739 79.2998C58.8739 79.2998 59.6568 79.0581 60.005 78.399C60.3216 78.5659 60.6353 78.7329 60.9519 78.8998C61.5419 79.2135 62.3708 79.7718 62.8082 78.9458C63.1738 78.2522 62.6356 77.8723 62.0858 77.5788C61.6455 77.3456 61.2051 77.1125 60.7648 76.8794C60.8051 76.8995 61.0267 75.7167 61.0296 75.6418C61.0785 74.7496 60.7965 73.8805 60.1633 73.2387C59.4409 72.5076 58.3358 71.9867 57.3083 72.3033C56.5773 72.5278 55.9988 73.0861 55.5066 73.6445C55.0289 74.1855 54.623 74.7928 54.1165 75.308C53.8028 75.6303 53.351 76.0016 52.8847 75.7541C51.8976 75.2303 52.3408 74.0589 52.6977 73.3826C53.0459 72.7235 53.492 72.3551 54.2374 72.335C54.5799 72.3263 54.9742 72.1968 55.1757 71.9119L55.1728 71.9148Z" fill="#0B1B34"/>
<path id="Vector_22" d="M83.0324 63.4966V25.2185C83.0324 25.1782 83.0382 25.1379 83.0525 25.1005L85.0787 19.0134C85.1881 18.6882 85.6428 18.6709 85.7752 18.9875L88.164 24.7062C88.1841 24.7523 88.1927 24.8012 88.1927 24.8501V64.6909" stroke="#002140" stroke-linecap="round" stroke-linejoin="round"/>
<path id="Vector_23" d="M78.3842 67.4221C79.357 65.2434 79.4146 62.6733 78.5425 60.4543C80.2377 61.1451 81.6508 62.1524 82.897 63.4964C83.7633 62.5783 84.4656 61.7984 85.3319 60.8803C86.4111 62.4114 87.4386 63.9656 88.5178 65.4938C89.5309 63.836 91.134 62.6704 92.9759 62.0517C92.6478 63.1655 92.2967 64.2419 92.3169 65.4017C92.337 66.5616 92.7544 67.7732 93.6782 68.4755" stroke="#002140" stroke-linecap="round" stroke-linejoin="round"/>
<path id="Vector_24" d="M79.0343 63.7583C77.6845 64.4462 76.0296 64.5066 74.6338 63.9195" stroke="#002140" stroke-linecap="round" stroke-linejoin="round"/>
<path id="Vector_25" d="M36.9083 72.9049L42.3507 83.217C42.3507 83.217 66.6069 102.635 113.715 97.0316C112.431 94.922 110.149 91.1748 110.149 91.1748L116.006 89.7732L113.332 83.9163L120.59 83.7897L116.645 77.9329L125.175 77.5501L120.211 72.2027L128.232 70.9306L121.992 65.5832L126.577 61.1596C126.577 61.1596 106.81 59.0155 88.5434 54.0393" stroke="#002140" stroke-linecap="round" stroke-linejoin="round"/>
<path id="Vector_26" d="M83.0324 53.4864C77.3022 52.0848 67.8536 46.8611 63.2659 43.1082L64.0603 48.9017L57.5674 47.7562L59.2223 52.5942H51.4544L52.7265 58.0683L45.3386 59.0928L48.1418 64.8173L41.7755 64.0546L42.4116 70.2942L37.1995 72.8355C40.3423 73.1694 43.4966 73.4054 46.6538 73.5435C45.3213 76.8418 44.2277 80.2379 43.3786 83.6915" stroke="#002140" stroke-linecap="round" stroke-linejoin="round"/>
<path id="Vector_27" d="M63.7495 96.7119C77.6908 97.8286 92.435 98.6316 101.078 97.984" stroke="#002140" stroke-linecap="round" stroke-linejoin="round"/>
<path id="Vector_28" d="M40.3478 79.4924C40.3478 79.4924 32.8993 90.3772 28.6024 93.2438C28.6024 93.2438 39.2167 94.5043 52.7118 95.7563" stroke="#002140" stroke-linecap="round" stroke-linejoin="round"/>
<path id="Vector_29" d="M126.194 71.2817C126.194 71.2817 135.649 76.1514 135.934 82.7421L129.918 99.0722C129.918 99.0722 121.44 93.0542 112.23 93.8485" stroke="#002140" stroke-linecap="round" stroke-linejoin="round"/>
<path id="Vector_30" d="M39.2024 94.3896L33.855 96.1079L38.2469 100.31L29.748 103.556C29.748 103.556 105.95 106.42 118.844 111.005L116.075 105.942L122.082 103.738" stroke="#002140" stroke-linecap="round" stroke-linejoin="round"/>
<path id="Vector_31" d="M63.0642 96.9797C91.9368 108.006 112.026 99.734 126.865 104.414V97.5381" stroke="#002140" stroke-linecap="round" stroke-linejoin="round"/>
<path id="Vector_32" d="M41.2082 104.129L38.0567 111.577C38.0567 111.577 72.2997 106.742 76.3204 105.991" stroke="#002140" stroke-linecap="round" stroke-linejoin="round"/>
<path id="Vector_33" d="M45.0017 110.409L114.547 114.349L113.704 109.77" stroke="#002140" stroke-linecap="round" stroke-linejoin="round"/>
<path id="Vector_34" d="M73.0048 112.15C73.0048 112.15 66.9897 125.613 84.1774 125.613C101.365 125.613 94.4895 113.58 94.4895 113.58" stroke="#002140" stroke-linecap="round" stroke-linejoin="round"/>
<path id="Vector_35" d="M78.1628 125.044V132.492C78.1628 132.492 85.0385 135.644 91.0536 132.492V125.044" stroke="#002140" stroke-linecap="round" stroke-linejoin="round"/>
<path id="Vector_36" d="M84.5604 143.377C86.1785 143.377 87.4902 142.095 87.4902 140.513C87.4902 138.932 86.1785 137.649 84.5604 137.649C82.9422 137.649 81.6305 138.932 81.6305 140.513C81.6305 142.095 82.9422 143.377 84.5604 143.377Z" fill="#002140" stroke="#002140" stroke-miterlimit="10"/>
<path id="Vector_37" d="M71.2439 135.454C70.2999 137.215 70.6366 139.638 72.1735 140.913C73.7104 142.188 76.3323 141.969 77.4778 140.332C78.0131 139.566 78.2031 138.619 78.6002 137.773C79.3658 136.144 80.9487 134.927 82.7216 134.61C84.4945 134.294 86.4026 134.884 87.6862 136.144C89.154 137.589 89.7785 139.773 91.3903 141.054C91.9572 141.503 92.6537 141.828 93.3761 141.805C94.0438 141.782 94.6741 141.463 95.2066 141.06C96.8787 139.797 97.7853 137.514 97.2241 135.497L91.3414 129.625L100.842 138.28C102.839 140.099 102.266 143.365 99.7798 144.419C96.8413 145.662 92.1299 146.813 84.7535 146.813C76.9569 146.813 72.1361 145.391 69.2437 143.932C66.9412 142.77 66.5325 139.65 68.4407 137.914L78.1656 129.053" stroke="#002140" stroke-linecap="round" stroke-linejoin="round"/>
<path id="Vector_38" d="M77.3017 112.438C77.3017 112.438 74.0552 121.604 84.3673 121.604C94.6793 121.604 91.2429 113.2 91.2429 113.2" stroke="#002140" stroke-linecap="round" stroke-linejoin="round"/>
<path id="Vector_39" d="M81.1988 112.682C80.6865 113.387 80.7498 114.409 81.2189 115.143C81.688 115.877 82.4939 116.349 83.3343 116.576C84.402 116.864 85.6137 116.775 86.5203 116.139C87.4269 115.503 87.9363 114.268 87.5478 113.229" stroke="#002140" stroke-linecap="round" stroke-linejoin="round"/>
<path id="Vector_40" d="M97.7273 90.6479C98.3001 89.7241 99.2786 90.3285 99.8513 89.4046C100.424 88.4779 99.4455 87.8735 100.018 86.9468C100.591 86.02 101.57 86.6273 102.142 85.7006C102.715 84.7767 101.736 84.1694 102.309 83.2456C102.882 82.3217 103.86 82.9261 104.433 82.0023C105.006 81.0756 104.027 80.4712 104.6 79.5444C105.173 78.6177 106.151 79.225 106.724 78.2982C107.297 77.3715 106.318 76.7671 106.891 75.8404C107.464 74.9136 108.442 75.5209 109.015 74.5942C109.588 73.6674 108.609 73.0631 109.182 72.1392C109.755 71.2125 110.733 71.8197 111.306 70.893C111.879 69.9663 110.9 69.359 111.476 68.4352C112.049 67.5084 113.027 68.1157 113.603 67.189" stroke="#002140" stroke-linecap="round" stroke-linejoin="round"/>
<path id="Vector_41" d="M91.9971 88.9297C92.5698 88.0058 93.5483 88.6102 94.1211 87.6864C94.6938 86.7625 93.7153 86.1552 94.288 85.2285C94.8608 84.3018 95.8393 84.9091 96.412 83.9823C96.9848 83.0585 96.0062 82.4512 96.5789 81.5273C97.1517 80.6035 98.1302 81.2079 98.7029 80.284C99.2757 79.3573 98.2971 78.7529 98.8699 77.8262C99.4426 76.8994 100.421 77.5067 100.994 76.58C101.567 75.6532 100.588 75.0489 101.161 74.1221C101.734 73.1954 102.712 73.8027 103.285 72.8759C103.858 71.9492 102.879 71.3448 103.452 70.4209C104.024 69.4971 105.003 70.1015 105.576 69.1748C106.148 68.248 105.17 67.6407 105.746 66.7169C106.318 65.7902 107.297 66.3974 107.872 65.4707" stroke="#002140" stroke-linecap="round" stroke-linejoin="round"/>
<path id="Vector_42" d="M86.8396 86.6389C87.4124 85.7151 88.3909 86.3195 88.9636 85.3956C89.5364 84.4689 88.5578 83.8645 89.1305 82.9377C89.7033 82.011 90.6818 82.6183 91.2545 81.6915C91.8273 80.7677 90.8487 80.1604 91.4215 79.2366C91.9942 78.3127 92.9727 78.9171 93.5455 77.9933C94.1182 77.0665 93.1397 76.4621 93.7124 75.5354C94.2851 74.6087 95.2637 75.2159 95.8364 74.2892C96.4091 73.3625 95.4306 72.7581 96.0033 71.8314C96.5761 70.9046 97.5546 71.5119 98.1273 70.5852C98.7001 69.6613 97.7215 69.054 98.2942 68.1302C98.867 67.2034 99.8455 67.8107 100.418 66.884C100.991 65.9573 100.012 65.35 100.588 64.4261C101.161 63.4994 102.139 64.1067 102.715 63.1799" stroke="#002140" stroke-linecap="round" stroke-linejoin="round"/>
<path id="Vector_43" d="M62.8945 67.8049C63.2629 67.2063 64.2443 67.8136 64.6127 67.2149C64.9811 66.6163 64.0026 66.0119 64.3738 65.4162C64.7451 64.8175 65.7236 65.4248 66.092 64.8262C66.4604 64.2275 65.4819 63.6231 65.8531 63.0245C66.2244 62.4259 67.2029 63.0331 67.5713 62.4345C67.9426 61.8359 66.9612 61.2315 67.3325 60.6329C67.7037 60.0342 68.6823 60.6415 69.0507 60.0428C69.4219 59.4442 68.4405 58.8398 68.8118 58.2412C69.1831 57.6426 70.1616 58.2498 70.53 57.6512C70.8984 57.0526 69.9198 56.4482 70.2911 55.8495C70.6624 55.2509 71.6409 55.8582 72.0093 55.2595C72.3777 54.6609 71.402 54.0536 71.7704 53.455C72.1388 52.8564 73.1202 53.4636 73.4915 52.865" stroke="#002140" stroke-linecap="round" stroke-linejoin="round"/>
<path id="Vector_44" d="M68.2621 82.0082L77.6849 84.9352L84.5605 73.7309L75.7767 70.804L68.2621 82.0082Z" fill="#0B1B34"/>
<path id="Vector_45" d="M40.123 89.9024C40.2497 89.5196 44.0689 84.6816 44.0689 84.6816" stroke="#002140" stroke-linecap="round" stroke-linejoin="round"/>
<path id="Vector_46" d="M47.5083 86.5898L45.344 90.409L52.8557 92.6999L53.6184 89.8996C53.6184 89.8996 51.8052 99.259 52.9507 104.129C52.9507 104.129 62.4051 94.9621 69.5657 95.247" stroke="#002140" stroke-linecap="round" stroke-linejoin="round"/>
<path id="Vector_47" d="M127.343 78.3154C127.343 78.3154 131.035 79.3343 132.946 80.8625L127.852 94.231C125.941 92.7028 122.249 91.684 122.249 91.684L127.343 78.3154Z" fill="#0B1B34"/>
<path id="Vector_48" d="M114.291 93.7217L115.882 93.0856L113.908 90.3457" stroke="#002140" stroke-linecap="round" stroke-linejoin="round"/>
<path id="Vector_49" d="M115.309 87.6722L118.302 86.8462L117.664 83.853" stroke="#002140" stroke-linecap="round" stroke-linejoin="round"/>
<path id="Vector_50" d="M119.255 81.4989L123.394 80.5433L122.355 77.8293" stroke="#002140" stroke-linecap="round" stroke-linejoin="round"/>
<path id="Vector_51" d="M122.485 74.4243L127.786 74.3034L127.277 71.7563" stroke="#002140" stroke-linecap="round" stroke-linejoin="round"/>
<path id="Vector_52" d="M43.3063 100.088L45.344 95.2498" stroke="#002140" stroke-linecap="round" stroke-linejoin="round"/>
<path id="Vector_53" d="M45.8533 100.468L47.8909 95.6299" stroke="#002140" stroke-linecap="round" stroke-linejoin="round"/>
<path id="Vector_54" d="M47.891 107.853L49.3041 104.494" stroke="#002140" stroke-linecap="round" stroke-linejoin="round"/>
<path id="Vector_55" d="M78.83 110.273L79.0862 106.708" stroke="#002140" stroke-linecap="round" stroke-linejoin="round"/>
<path id="Vector_56" d="M82.1426 110.4L82.3958 106.834" stroke="#002140" stroke-linecap="round" stroke-linejoin="round"/>
<path id="Vector_57" d="M92.7082 107.473L92.4549 110.656L87.7435 110.273L87.8701 106.964" stroke="#002140" stroke-linecap="round" stroke-linejoin="round"/>
<path id="Vector_58" d="M109.643 109.381L109.899 111.802L105.061 111.419L104.678 108.745" stroke="#002140" stroke-linecap="round" stroke-linejoin="round"/>
<path id="Vector_59" d="M97.5491 110.527V108.109" stroke="#002140" stroke-linecap="round" stroke-linejoin="round"/>
<path id="Vector_60" d="M100.859 110.91V108.492" stroke="#002140" stroke-linecap="round" stroke-linejoin="round"/>
<path id="Vector_61" d="M89.1449 100.215V98.0503" stroke="#002140" stroke-linecap="round" stroke-linejoin="round"/>
<path id="Vector_62" d="M92.8375 100.597V98.4331" stroke="#002140" stroke-linecap="round" stroke-linejoin="round"/>
</g>
</g>
</svg>
