<svg xmlns="http://www.w3.org/2000/svg" id="Layer_1" version="1.1" viewBox="0 0 28 28"><defs><style>.st0{fill:#fcfbf9}.st1{fill:#03d47c}</style></defs><path d="M0,14C0,6.268,6.268,0,14,0h0c7.732,0,14,6.268,14,14h0c0,7.732-6.268,14-14,14h0C6.268,28,0,21.732,0,14h0Z" class="st1"/><path d="M15.2,18.2c0,.663-.537,1.2-1.2,1.2s-1.2-.537-1.2-1.2v-3h-3c-.663,0-1.2-.537-1.2-1.2s.537-1.2,1.2-1.2h3v-3c0-.663.537-1.2,1.2-1.2s1.2.537,1.2,1.2v3h3c.663,0,1.2.537,1.2,1.2s-.537,1.2-1.2,1.2h-3v3Z" class="st0"/></svg>