<svg xmlns="http://www.w3.org/2000/svg" xml:space="preserve" viewBox="0 0 20 20"><path d="M3 1.8c0-.4.4-.5.7-.3l.8.8q.3.3.6 0l1.2-1.2c.1-.1.3-.1.5 0L8 2.4q.3.3.6 0l1.2-1.2q.3-.3.6 0l1.2 1.2q.3.3.6 0l1.2-1.2q.3-.3.6 0l1 1.2q.3.3.6 0l.8-.8c.2-.3.6-.1.6.2V7c0 .4-.5.6-.8.3-1.1-1-2.5-1.5-4-1.5-3.4 0-6.1 2.8-6.1 6.2 0 2.1.7 3.1 1.5 4.2l.6.9c.1.1.1.3-.1.5l-1.3 1.3q-.3.3-.6 0L5 17.6q-.3-.3-.6 0l-.8.8c-.2.3-.6.1-.6-.2z"/><path d="M12.1 16.2q1.2 0 2.1-.6l3.1 3.1 1.4-1.4-3.1-3.1q.6-.9.6-2.1c0-2.3-1.8-4.1-4.1-4.1S8 9.8 8 12.1c0 2.2 1.8 4.1 4.1 4.1m0-2c1.1 0 2.1-.9 2.1-2.1s-1-2.1-2.1-2.1-2.1.9-2.1 2.1.9 2.1 2.1 2.1" style="fill-rule:evenodd;clip-rule:evenodd"/></svg>