<svg xmlns="http://www.w3.org/2000/svg" id="Layer_1" data-name="Layer 1" version="1.1" viewBox="0 0 20 20"><defs><style>.cls-1{stroke-width:0}</style></defs><path d="M17,1.364v10.775L5.187,1.803l1.012-1.165c.159-.184.443-.184.602,0l1.148,1.322c.159.184.443.184.602,0l1.148-1.322c.159-.184.443-.184.602,0l1.148,1.322c.159.184.443.184.602,0l1.148-1.322c.159-.184.443-.184.602,0l1.148,1.322c.159.184.443.184.602,0l.748-.861c.243-.28.701-.107.701.265Z" class="cls-1"/><path d="M3,18.636V7.861l11.813,10.336-1.012,1.165c-.159.184-.443.184-.602,0l-1.148-1.322c-.159-.184-.443-.184-.602,0l-1.148,1.322c-.159.184-.443.184-.602,0l-1.148-1.322c-.159-.184-.443-.184-.602,0l-1.148,1.322c-.159.184-.443.184-.602,0l-1.148-1.322c-.159-.184-.443-.184-.602,0l-.748.861c-.243.28-.701.107-.701-.265Z" class="cls-1"/><path d="M2.659,2.247c-.416-.364-1.047-.322-1.411.094-.364.416-.322,1.047.094,1.411l16,14c.416.364,1.047.322,1.411-.094.364-.416.322-1.047-.094-1.411L2.659,2.247Z" class="cls-1"/></svg>