<?xml version="1.0" encoding="utf-8"?>
<!-- Generator: Adobe Illustrator 24.3.0, SVG Export Plug-In . SVG Version: 6.00 Build 0)  -->
<svg version="1.1" id="Layer_1" xmlns="http://www.w3.org/2000/svg" xmlns:xlink="http://www.w3.org/1999/xlink" x="0px" y="0px"
	 viewBox="0 0 20 20" style="enable-background:new 0 0 20 20;" xml:space="preserve">
<path d="M15,2.2l-1.2-1l-1.2,1l-1.2-1l-1.2,1l-1.2-1l-1.2,1l-1.2-1L5,2.2l-1.2-1V20L5,19l1.2,1l1.2-1l1.2,1l1.2-1l1.2,1l1.2-1l1.2,1
	l1.2-1l1.2,1V1.2L15,2.2z M13.1,15H6.9c-0.4,0-0.6-0.2-0.6-0.6s0.2-0.6,0.6-0.6h6.2c0.4,0,0.6,0.2,0.6,0.6S13.5,15,13.1,15z
	 M13.1,11.2H6.9c-0.4,0-0.6-0.2-0.6-0.6S6.5,10,6.9,10h6.2c0.4,0,0.6,0.2,0.6,0.6S13.5,11.2,13.1,11.2z M13.1,7.5H6.9
	c-0.4,0-0.6-0.2-0.6-0.6s0.2-0.6,0.6-0.6h6.2c0.4,0,0.6,0.2,0.6,0.6S13.5,7.5,13.1,7.5z"/>
</svg>
