<svg xmlns="http://www.w3.org/2000/svg" xml:space="preserve" id="Layer_1" x="0" y="0" viewBox="0 0 20 20"><style>.st0{fill-rule:evenodd;clip-rule:evenodd}</style><path d="M3 1.1V19c0 .4.5.5.7.3l.7-.9q.3-.3.6 0l1.1 1.3q.3.3.6 0l1.1-1.3q.3-.3.6 0l1.1 1.3q.3.3.6 0l1.1-1.3q.3-.3.6 0l1.1 1.3q.3.3.6 0l1.1-1.3q.3-.3.6 0l.7.9c.2.3.7.1.7-.3V1.1c0-.4-.5-.5-.7-.3l-.7.9q-.3.3-.6 0L13.5.4q-.3-.3-.6 0L12 1.7q-.3.3-.6 0L10.3.4q-.3-.3-.6 0L8.5 1.7q-.3.3-.6 0L6.8.3q-.3-.3-.6 0L5 1.7q-.3.3-.6 0L3.7.8C3.5.5 3 .7 3 1.1M7 5c-.6 0-1 .4-1 1s.4 1 1 1h6c.6 0 1-.4 1-1s-.4-1-1-1zm0 4c-.6 0-1 .4-1 1s.4 1 1 1h4c.6 0 1-.4 1-1s-.4-1-1-1zm-1 5c0-.6.4-1 1-1h6c.6 0 1 .4 1 1s-.4 1-1 1H7c-.6 0-1-.4-1-1" class="st0"/></svg>