<svg xmlns="http://www.w3.org/2000/svg" xml:space="preserve" viewBox="0 0 20 20"><path d="M3 18.636V1.364a.4.4 0 0 1 .701-.265l.748.861a.397.397 0 0 0 .602 0L6.199.638a.397.397 0 0 1 .602 0L7.949 1.96a.397.397 0 0 0 .602 0L9.699.638a.397.397 0 0 1 .602 0l1.148 1.322a.397.397 0 0 0 .602 0L13.199.638a.397.397 0 0 1 .602 0l1.148 1.322a.397.397 0 0 0 .602 0l.748-.861a.4.4 0 0 1 .701.265v5.747a3 3 0 0 0-.464.486l-1.872 2.457-.157-.141a3 3 0 0 0-4.014 4.46l4.289 3.86-.981 1.13a.397.397 0 0 1-.602 0l-1.148-1.322a.397.397 0 0 0-.602 0l-1.148 1.322a.397.397 0 0 1-.602 0L8.551 18.04a.397.397 0 0 0-.602 0l-1.148 1.322a.397.397 0 0 1-.602 0L5.051 18.04a.397.397 0 0 0-.602 0l-.748.861A.4.4 0 0 1 3 18.636"/><path d="M19.528 8.619a1 1 0 0 1 .189 1.401l-4.503 5.91-3.384-3.045a.999.999 0 1 1 1.338-1.486l1.77 1.593 3.187-4.184a1.004 1.004 0 0 1 1.403-.189"/></svg>