<?xml version="1.0" encoding="utf-8"?>
<!-- Generator: Adobe Illustrator 27.3.1, SVG Export Plug-In . SVG Version: 6.00 Build 0)  -->
<svg version="1.1" id="Layer_1" xmlns="http://www.w3.org/2000/svg" xmlns:xlink="http://www.w3.org/1999/xlink" x="0px" y="0px"
	 viewBox="0 0 165 165" style="enable-background:new 0 0 165 165;" xml:space="preserve">
<style type="text/css">
	.st0{fill:#FED604;}
	.st1{fill:#FFFAF0;}
	.st2{fill:#FEE45E;}
	.st3{fill:#F9B5FF;}
	.st4{fill:#002140;stroke:#002140;stroke-miterlimit:10;}
	.st5{fill:#0B1B34;stroke:#002140;stroke-miterlimit:10;}
	.st6{fill:#0B1B34;}
	.st7{fill:none;stroke:#002140;stroke-miterlimit:10;}
	.st8{fill:#002140;}
	.st9{fill:none;stroke:#002140;stroke-linecap:round;stroke-linejoin:round;}
</style>
<path class="st0" d="M77.9,129.2l-8.9,8.3c0,0-1.7,1.4-1.5,3.3c0.1,1.9,1.1,6.2,16.9,6.2s18-3.4,17.6-6c-0.4-2.5-4.5-6-4.5-6
	l-6.2-5.7v-4.8c0,0,7.6-3.8,3.1-11.5L73,112.2c0,0-3.6,9.3,5,12.6V129.2z"/>
<path class="st1" d="M126.1,61.1c0,0-30.9-4.3-37.4-7l-5.9-0.8c0,0-14.1-5.9-18.7-9.9l-0.1,5.5l-5.9-1.1l1,4.7l-7.5,0.4l1.1,5.1
	l-7.5,1.1l2.8,5.6l-6.4-0.6l0.5,6l-5,2.5l9.8,0.9l-3.8,10.3c0,0,15.4,11.3,44.1,13.9c16.2,1.1,25.8-0.6,25.8-0.6l-3.1-5.9l5.9-1.5
	l-2.4-5.9h6.7l-3.4-5.7l8.5-0.4l-5-5.5l7.3-1.1l-5.6-5.6L126.1,61.1L126.1,61.1z"/>
<path class="st0" d="M83.3,63.1l2.1-1.9l3.2,4.2L88,24.8l-2.6-6L83.2,25L83.3,63.1z"/>
<path class="st2" d="M37.3,73.2l5,10l0.9,0.6l3.4-10L37.3,73.2z"/>
<path class="st1" d="M40.1,79.5L29.4,93.1l8.3,1.4L34.1,96l3.7,3.9l-7.9,3.8l11,0.5l-2.7,7.5l9.3-1.7l67.1,3.9L114,110l4.6,0.9
	l-2.3-4.7l6-2.5l4.5,0.8l0.4-7.3l2.9,2l6-16.3c0,0-1.7-9.5-9.7-10.3l-3.2,1.9l2.2,3.2l-3.7,0.6l-1.9,3.2l0.5,2.3l-2.4,0.4l-2.7,3.2
	l0.6,1.7l-2.2,1.5l0.4,1.9l-1.1,1.9l0.9,2.5c0,0-8,1.8-22.2,1.1c-14.1-0.6-24.2-3.4-24.2-3.4s-17.2-5.1-24.2-10.8L40.1,79.5
	L40.1,79.5z"/>
<path class="st0" d="M64.1,97.2c0,0,15.7,5.9,30,5.9c14.4,0,27.8-0.9,32.6,1.4l0.4-7.3c0,0-7.5-3.8-14.9-2.9l1.5,2.7
	c0,0-10.4,1.1-15,1C94.1,97.8,64.1,97.2,64.1,97.2L64.1,97.2z"/>
<path class="st0" d="M29.4,93.1l23.4,2.7l0.8-5.9l-9.9-5.6L40.5,80C40.5,80,30.6,91.7,29.4,93.1L29.4,93.1z"/>
<path class="st2" d="M53.6,89.9c0,0-1.7,9.5-0.8,13.4c0,0,9-7.4,16.4-8L53.6,89.9L53.6,89.9z"/>
<path class="st3" d="M45.9,110.5l68.8,3.6l-1.3-4.6l-39.2-3.6L45.9,110.5z"/>
<path class="st4" d="M40.9,104.3l-2.7,7.5l35.9-5.9L40.9,104.3z"/>
<path class="st5" d="M111.9,94.1l3.9-0.9l-2.2-3.2l-3.2,1.4L111.9,94.1z"/>
<path class="st6" d="M113.6,84l1.3,3.7l3.2-1.1l-0.7-2.7l-4.4,0.2"/>
<path class="st7" d="M113.6,84l1.3,3.7l3.2-1.1l-0.7-2.7l-4.4,0.2"/>
<path class="st5" d="M116.6,78l2.5,3.5l4-0.9l-0.7-2.9L116.6,78z"/>
<path class="st5" d="M120.5,72.3l1.5,2l5.5-0.3v-1.6l-1.3-1.2L120.5,72.3z"/>
<path class="st4" d="M47.2,86.7l-2,3.7l7.4,2.6l1.2-3.3L47.2,86.7z"/>
<path class="st4" d="M64.3,96.8l18.4,0.9l-13.7-2.6C69.1,95.1,64.9,95.2,64.3,96.8z"/>
<path class="st8" d="M87.8,107.2v3.1l4.5,0.4l0.5-3.3L87.8,107.2z"/>
<path class="st5" d="M104.7,108.4l0.3,3l4.9,0.2l-0.3-2.3L104.7,108.4z"/>
<path class="st8" d="M77.3,112.2c0,0-3,9.3,7.4,9.5c10.3,0.2,6.5-8.8,6.5-8.8h-3.5c0,0,0,4.4-3.3,3.8c-3.3-0.6-4.3-2.7-3.1-4.2"/>
<path class="st7" d="M77.3,112.2c0,0-3,9.3,7.4,9.5c10.3,0.2,6.5-8.8,6.5-8.8h-3.5c0,0,0,4.4-3.3,3.8c-3.3-0.6-4.3-2.7-3.1-4.2"/>
<path class="st4" d="M78.3,132.5c-0.1-0.9-0.2-3.1-0.2-3.1l-6.9,5.7c0,0-1.8,5.7,2.7,6.3c4.5,0.6,4.5-3,4.5-3s1.3-4,5.5-4
	c4.2,0,6.4,7.4,9.5,7.3c3.2-0.1,4.2-5.3,4-6.4c-0.2-1.1-6.3-5.8-6.3-5.8l-0.1,3.2C91.1,132.8,84.7,135.6,78.3,132.5L78.3,132.5z"/>
<path class="st6" d="M55.2,71.9c0-0.1,0.1-0.1,0.1-0.2c0.2-0.5-0.2-0.9-0.6-1.1c-0.2-0.1-0.5-0.3-0.9-0.5c-0.3-0.2-0.7-0.3-1,0
	c-0.2,0.2-0.3,0.5-0.3,0.7c0,0,0.1,0.4,0.1,0.3c0,0-0.9,0.3-1.2,0.9l-0.8-0.4c0,0-0.7-0.3-1,0.4c-0.4,0.7,0.3,1.1,0.3,1.1l0.8,0.4
	c0,0-1,2.6,1.4,3.8c3.2,1.7,4.4-4.2,6.4-3.2c0.3,0.1,1.1,0.8,0.1,2.6c-1.2,2.2-2.4,0.2-3.2,1.6c-0.4,0.8,0.1,1.2,0.5,1.5l1.6,0.9
	c0,0,0.6,0.3,1-0.4c0.4-0.7,0.1-1.1,0.1-1.1s0.8-0.2,1.1-0.9c0.3,0.2,0.6,0.3,0.9,0.5c0.6,0.3,1.4,0.9,1.9,0
	c0.4-0.7-0.2-1.1-0.7-1.4c-0.4-0.2-0.9-0.5-1.3-0.7c0,0,0.3-1.2,0.3-1.2c0-0.9-0.2-1.8-0.9-2.4c-0.7-0.7-1.8-1.3-2.9-0.9
	c-0.7,0.2-1.3,0.8-1.8,1.3c-0.5,0.5-0.9,1.1-1.4,1.7c-0.3,0.3-0.8,0.7-1.2,0.4c-1-0.5-0.5-1.7-0.2-2.4c0.3-0.7,0.8-1,1.5-1
	C54.6,72.3,55,72.2,55.2,71.9L55.2,71.9z"/>
<path class="st9" d="M83,63.5V25.2c0,0,0-0.1,0-0.1l2-6.1c0.1-0.3,0.6-0.3,0.7,0l2.4,5.7c0,0,0,0.1,0,0.1v39.8"/>
<path class="st9" d="M78.4,67.4c1-2.2,1-4.7,0.2-7c1.7,0.7,3.1,1.7,4.4,3c0.9-0.9,1.6-1.7,2.4-2.6c1.1,1.5,2.1,3.1,3.2,4.6
	c1-1.7,2.6-2.8,4.5-3.4c-0.3,1.1-0.7,2.2-0.7,3.4c0,1.2,0.4,2.4,1.4,3.1"/>
<path class="st9" d="M79,63.8c-1.3,0.7-3,0.7-4.4,0.2"/>
<path class="st9" d="M36.9,72.9l5.4,10.3c0,0,24.3,19.4,71.4,13.8c-1.3-2.1-3.6-5.9-3.6-5.9l5.9-1.4l-2.7-5.9l7.3-0.1l-3.9-5.9
	l8.5-0.4l-5-5.3l8-1.3l-6.2-5.3l4.6-4.4c0,0-19.8-2.1-38-7.1"/>
<path class="st9" d="M83,53.5c-5.7-1.4-15.2-6.6-19.8-10.4l0.8,5.8l-6.5-1.1l1.7,4.8h-7.8l1.3,5.5l-7.4,1l2.8,5.7l-6.4-0.8l0.6,6.2
	l-5.2,2.5c3.1,0.3,6.3,0.6,9.5,0.7c-1.3,3.3-2.4,6.7-3.3,10.1"/>
<path class="st9" d="M63.7,96.7c13.9,1.1,28.7,1.9,37.3,1.3"/>
<path class="st9" d="M40.3,79.5c0,0-7.4,10.9-11.7,13.8c0,0,10.6,1.3,24.1,2.5"/>
<path class="st9" d="M126.2,71.3c0,0,9.5,4.9,9.7,11.5l-6,16.3c0,0-8.5-6-17.7-5.2"/>
<path class="st9" d="M39.2,94.4l-5.3,1.7l4.4,4.2l-8.5,3.2c0,0,76.2,2.9,89.1,7.4l-2.8-5.1l6-2.2"/>
<path class="st9" d="M63.1,97c28.9,11,49,2.8,63.8,7.4v-6.9"/>
<path class="st9" d="M41.2,104.1l-3.2,7.4c0,0,34.2-4.8,38.3-5.6"/>
<path class="st9" d="M45,110.4l69.5,3.9l-0.8-4.6"/>
<path class="st9" d="M73,112.1c0,0-6,13.5,11.2,13.5c17.2,0,10.3-12,10.3-12"/>
<path class="st9" d="M78.2,125v7.4c0,0,6.9,3.2,12.9,0V125"/>
<path class="st4" d="M84.6,143.4c1.6,0,2.9-1.3,2.9-2.9c0-1.6-1.3-2.9-2.9-2.9c-1.6,0-2.9,1.3-2.9,2.9
	C81.6,142.1,82.9,143.4,84.6,143.4z"/>
<path class="st9" d="M71.2,135.5c-0.9,1.8-0.6,4.2,0.9,5.5c1.5,1.3,4.2,1.1,5.3-0.6c0.5-0.8,0.7-1.7,1.1-2.6
	c0.8-1.6,2.3-2.8,4.1-3.2c1.8-0.3,3.7,0.3,5,1.5c1.5,1.4,2.1,3.6,3.7,4.9c0.6,0.4,1.3,0.8,2,0.8c0.7,0,1.3-0.3,1.8-0.7
	c1.7-1.3,2.6-3.5,2-5.6l-5.9-5.9l9.5,8.7c2,1.8,1.4,5.1-1.1,6.1c-2.9,1.2-7.6,2.4-15,2.4c-7.8,0-12.6-1.4-15.5-2.9
	c-2.3-1.2-2.7-4.3-0.8-6l9.7-8.9"/>
<path class="st9" d="M77.3,112.4c0,0-3.2,9.2,7.1,9.2c10.3,0,6.9-8.4,6.9-8.4"/>
<path class="st9" d="M81.2,112.7c-0.5,0.7-0.4,1.7,0,2.5s1.3,1.2,2.1,1.4c1.1,0.3,2.3,0.2,3.2-0.4s1.4-1.9,1-2.9"/>
<path class="st9" d="M97.7,90.6c0.6-0.9,1.6-0.3,2.1-1.2c0.6-0.9-0.4-1.5,0.2-2.5c0.6-0.9,1.6-0.3,2.1-1.2c0.6-0.9-0.4-1.5,0.2-2.5
	c0.6-0.9,1.6-0.3,2.1-1.2c0.6-0.9-0.4-1.5,0.2-2.5c0.6-0.9,1.6-0.3,2.1-1.2c0.6-0.9-0.4-1.5,0.2-2.5c0.6-0.9,1.6-0.3,2.1-1.2
	c0.6-0.9-0.4-1.5,0.2-2.5c0.6-0.9,1.6-0.3,2.1-1.2c0.6-0.9-0.4-1.5,0.2-2.5c0.6-0.9,1.6-0.3,2.1-1.2"/>
<path class="st9" d="M92,88.9c0.6-0.9,1.6-0.3,2.1-1.2c0.6-0.9-0.4-1.5,0.2-2.5c0.6-0.9,1.6-0.3,2.1-1.2c0.6-0.9-0.4-1.5,0.2-2.5
	c0.6-0.9,1.6-0.3,2.1-1.2c0.6-0.9-0.4-1.5,0.2-2.5c0.6-0.9,1.6-0.3,2.1-1.2c0.6-0.9-0.4-1.5,0.2-2.5c0.6-0.9,1.6-0.3,2.1-1.2
	c0.6-0.9-0.4-1.5,0.2-2.5c0.6-0.9,1.6-0.3,2.1-1.2c0.6-0.9-0.4-1.5,0.2-2.5c0.6-0.9,1.6-0.3,2.1-1.2"/>
<path class="st9" d="M86.8,86.6c0.6-0.9,1.6-0.3,2.1-1.2c0.6-0.9-0.4-1.5,0.2-2.5c0.6-0.9,1.6-0.3,2.1-1.2c0.6-0.9-0.4-1.5,0.2-2.5
	c0.6-0.9,1.6-0.3,2.1-1.2c0.6-0.9-0.4-1.5,0.2-2.5s1.6-0.3,2.1-1.2s-0.4-1.5,0.2-2.5c0.6-0.9,1.6-0.3,2.1-1.2
	c0.6-0.9-0.4-1.5,0.2-2.5c0.6-0.9,1.6-0.3,2.1-1.2c0.6-0.9-0.4-1.5,0.2-2.5c0.6-0.9,1.6-0.3,2.1-1.2"/>
<path class="st9" d="M62.9,67.8c0.4-0.6,1.3,0,1.7-0.6c0.4-0.6-0.6-1.2-0.2-1.8c0.4-0.6,1.3,0,1.7-0.6c0.4-0.6-0.6-1.2-0.2-1.8
	c0.4-0.6,1.3,0,1.7-0.6c0.4-0.6-0.6-1.2-0.2-1.8c0.4-0.6,1.3,0,1.7-0.6c0.4-0.6-0.6-1.2-0.2-1.8c0.4-0.6,1.3,0,1.7-0.6
	c0.4-0.6-0.6-1.2-0.2-1.8c0.4-0.6,1.3,0,1.7-0.6c0.4-0.6-0.6-1.2-0.2-1.8c0.4-0.6,1.3,0,1.7-0.6"/>
<path class="st6" d="M68.3,82l9.4,2.9l6.9-11.2l-8.8-2.9L68.3,82z"/>
<path class="st9" d="M40.1,89.9c0.1-0.4,3.9-5.2,3.9-5.2"/>
<path class="st9" d="M47.5,86.6l-2.2,3.8l7.5,2.3l0.8-2.8c0,0-1.8,9.4-0.7,14.2c0,0,9.5-9.2,16.6-8.9"/>
<path class="st6" d="M127.3,78.3c0,0,3.7,1,5.6,2.5l-5.1,13.4c-1.9-1.5-5.6-2.5-5.6-2.5L127.3,78.3z"/>
<path class="st9" d="M114.3,93.7l1.6-0.6l-2-2.7"/>
<path class="st9" d="M115.3,87.7l3-0.8l-0.6-3"/>
<path class="st9" d="M119.3,81.5l4.1-1l-1-2.7"/>
<path class="st9" d="M122.5,74.4l5.3-0.1l-0.5-2.5"/>
<path class="st9" d="M43.3,100.1l2-4.8"/>
<path class="st9" d="M45.9,100.5l2-4.8"/>
<path class="st9" d="M47.9,107.9l1.4-3.4"/>
<path class="st9" d="M78.8,110.3l0.3-3.6"/>
<path class="st9" d="M82.1,110.4l0.3-3.6"/>
<path class="st9" d="M92.7,107.5l-0.3,3.2l-4.7-0.4l0.1-3.3"/>
<path class="st9" d="M109.6,109.4l0.3,2.4l-4.8-0.4l-0.4-2.7"/>
<path class="st9" d="M97.5,110.5v-2.4"/>
<path class="st9" d="M100.9,110.9v-2.4"/>
<path class="st9" d="M89.1,100.2v-2.2"/>
<path class="st9" d="M92.8,100.6v-2.2"/>
</svg>
