<svg xmlns="http://www.w3.org/2000/svg" xml:space="preserve" id="Layer_1" x="0" y="0" viewBox="0 0 165 165"><style>.st0{fill:#fed604}.st1{fill:#fffaf0}.st2{fill:#fee45e}.st3{fill:#f9b5ff}.st4{fill:#002140}.st4,.st5{stroke:#002140;stroke-miterlimit:10}.st5,.st6{fill:#0b1b34}.st7{fill:none;stroke:#002140;stroke-miterlimit:10}.st8{fill:#002140}.st9{fill:none;stroke:#002140;stroke-linecap:round;stroke-linejoin:round}</style><path d="m77.9 129.2-8.9 8.3s-1.7 1.4-1.5 3.3c.1 1.9 1.1 6.2 16.9 6.2s18-3.4 17.6-6c-.4-2.5-4.5-6-4.5-6l-6.2-5.7v-4.8s7.6-3.8 3.1-11.5l-21.4-.8s-3.6 9.3 5 12.6v4.4z" class="st0"/><path d="M126.1 61.1s-30.9-4.3-37.4-7l-5.9-.8s-14.1-5.9-18.7-9.9l-.1 5.5-5.9-1.1 1 4.7-7.5.4 1.1 5.1-7.5 1.1 2.8 5.6-6.4-.6.5 6-5 2.5 9.8.9-3.8 10.3s15.4 11.3 44.1 13.9c16.2 1.1 25.8-.6 25.8-.6l-3.1-5.9 5.9-1.5-2.4-5.9h6.7l-3.4-5.7 8.5-.4-5-5.5 7.3-1.1-5.6-5.6z" class="st1"/><path d="m83.3 63.1 2.1-1.9 3.2 4.2-.6-40.6-2.6-6-2.2 6.2z" class="st0"/><path d="m37.3 73.2 5 10 .9.6 3.4-10z" class="st2"/><path d="M40.1 79.5 29.4 93.1l8.3 1.4-3.6 1.5 3.7 3.9-7.9 3.8 11 .5-2.7 7.5 9.3-1.7 67.1 3.9-.6-3.9 4.6.9-2.3-4.7 6-2.5 4.5.8.4-7.3 2.9 2 6-16.3s-1.7-9.5-9.7-10.3l-3.2 1.9 2.2 3.2-3.7.6-1.9 3.2.5 2.3-2.4.4-2.7 3.2.6 1.7-2.2 1.5.4 1.9-1.1 1.9.9 2.5s-8 1.8-22.2 1.1c-14.1-.6-24.2-3.4-24.2-3.4s-17.2-5.1-24.2-10.8z" class="st1"/><path d="M64.1 97.2s15.7 5.9 30 5.9c14.4 0 27.8-.9 32.6 1.4l.4-7.3s-7.5-3.8-14.9-2.9l1.5 2.7s-10.4 1.1-15 1c-4.6-.2-34.6-.8-34.6-.8m-34.7-4.1 23.4 2.7.8-5.9-9.9-5.6-3.2-4.3s-9.9 11.7-11.1 13.1" class="st0"/><path d="M53.6 89.9s-1.7 9.5-.8 13.4c0 0 9-7.4 16.4-8z" class="st2"/><path d="m45.9 110.5 68.8 3.6-1.3-4.6-39.2-3.6z" class="st3"/><path d="m40.9 104.3-2.7 7.5 35.9-5.9z" class="st4"/><path d="m111.9 94.1 3.9-.9-2.2-3.2-3.2 1.4z" class="st5"/><path d="m113.6 84 1.3 3.7 3.2-1.1-.7-2.7-4.4.2" class="st6"/><path d="m113.6 84 1.3 3.7 3.2-1.1-.7-2.7-4.4.2" class="st7"/><path d="m116.6 78 2.5 3.5 4-.9-.7-2.9zm3.9-5.7 1.5 2 5.5-.3v-1.6l-1.3-1.2z" class="st5"/><path d="m47.2 86.7-2 3.7 7.4 2.6 1.2-3.3zm17.1 10.1 18.4.9L69 95.1c.1 0-4.1.1-4.7 1.7z" class="st4"/><path d="M87.8 107.2v3.1l4.5.4.5-3.3z" class="st8"/><path d="m104.7 108.4.3 3 4.9.2-.3-2.3z" class="st5"/><path d="M77.3 112.2s-3 9.3 7.4 9.5c10.3.2 6.5-8.8 6.5-8.8h-3.5s0 4.4-3.3 3.8-4.3-2.7-3.1-4.2" class="st8"/><path d="M77.3 112.2s-3 9.3 7.4 9.5c10.3.2 6.5-8.8 6.5-8.8h-3.5s0 4.4-3.3 3.8-4.3-2.7-3.1-4.2" class="st7"/><path d="M78.3 132.5c-.1-.9-.2-3.1-.2-3.1l-6.9 5.7s-1.8 5.7 2.7 6.3 4.5-3 4.5-3 1.3-4 5.5-4 6.4 7.4 9.5 7.3c3.2-.1 4.2-5.3 4-6.4s-6.3-5.8-6.3-5.8l-.1 3.2c.1.1-6.3 2.9-12.7-.2z" class="st4"/><path d="M55.2 71.9c0-.1.1-.1.1-.2.2-.5-.2-.9-.6-1.1-.2-.1-.5-.3-.9-.5-.3-.2-.7-.3-1 0-.2.2-.3.5-.3.7 0 0 .1.4.1.3 0 0-.9.3-1.2.9l-.8-.4s-.7-.3-1 .4c-.4.7.3 1.1.3 1.1l.8.4s-1 2.6 1.4 3.8c3.2 1.7 4.4-4.2 6.4-3.2.3.1 1.1.8.1 2.6-1.2 2.2-2.4.2-3.2 1.6-.4.8.1 1.2.5 1.5l1.6.9s.6.3 1-.4.1-1.1.1-1.1.8-.2 1.1-.9c.3.2.6.3.9.5.6.3 1.4.9 1.9 0 .4-.7-.2-1.1-.7-1.4-.4-.2-.9-.5-1.3-.7l.3-1.2c0-.9-.2-1.8-.9-2.4-.7-.7-1.8-1.3-2.9-.9-.7.2-1.3.8-1.8 1.3s-.9 1.1-1.4 1.7c-.3.3-.8.7-1.2.4-1-.5-.5-1.7-.2-2.4s.8-1 1.5-1c.7.1 1.1 0 1.3-.3" class="st6"/><path d="M83 63.5V25.1l2-6.1c.1-.3.6-.3.7 0l2.4 5.7v39.9" class="st9"/><path d="M78.4 67.4c1-2.2 1-4.7.2-7 1.7.7 3.1 1.7 4.4 3 .9-.9 1.6-1.7 2.4-2.6 1.1 1.5 2.1 3.1 3.2 4.6 1-1.7 2.6-2.8 4.5-3.4-.3 1.1-.7 2.2-.7 3.4s.4 2.4 1.4 3.1" class="st9"/><path d="M79 63.8c-1.3.7-3 .7-4.4.2" class="st9"/><path d="m36.9 72.9 5.4 10.3s24.3 19.4 71.4 13.8c-1.3-2.1-3.6-5.9-3.6-5.9l5.9-1.4-2.7-5.9 7.3-.1-3.9-5.9 8.5-.4-5-5.3 8-1.3-6.2-5.3 4.6-4.4s-19.8-2.1-38-7.1" class="st9"/><path d="M83 53.5c-5.7-1.4-15.2-6.6-19.8-10.4l.8 5.8-6.5-1.1 1.7 4.8h-7.8l1.3 5.5-7.4 1 2.8 5.7-6.4-.8.6 6.2-5.2 2.5c3.1.3 6.3.6 9.5.7-1.3 3.3-2.4 6.7-3.3 10.1m20.4 13.2c13.9 1.1 28.7 1.9 37.3 1.3" class="st9"/><path d="M40.3 79.5s-7.4 10.9-11.7 13.8c0 0 10.6 1.3 24.1 2.5m73.5-24.5s9.5 4.9 9.7 11.5l-6 16.3s-8.5-6-17.7-5.2" class="st9"/><path d="m39.2 94.4-5.3 1.7 4.4 4.2-8.5 3.2s76.2 2.9 89.1 7.4l-2.8-5.1 6-2.2" class="st9"/><path d="M63.1 97c28.9 11 49 2.8 63.8 7.4v-6.9m-85.7 6.6-3.2 7.4s34.2-4.8 38.3-5.6" class="st9"/><path d="m45 110.4 69.5 3.9-.8-4.6M73 112.1s-6 13.5 11.2 13.5 10.3-12 10.3-12" class="st9"/><path d="M78.2 125v7.4s6.9 3.2 12.9 0V125" class="st9"/><path d="M84.6 143.4c1.6 0 2.9-1.3 2.9-2.9s-1.3-2.9-2.9-2.9-2.9 1.3-2.9 2.9c-.1 1.6 1.2 2.9 2.9 2.9z" class="st4"/><path d="M71.2 135.5c-.9 1.8-.6 4.2.9 5.5s4.2 1.1 5.3-.6c.5-.8.7-1.7 1.1-2.6.8-1.6 2.3-2.8 4.1-3.2 1.8-.3 3.7.3 5 1.5 1.5 1.4 2.1 3.6 3.7 4.9.6.4 1.3.8 2 .8s1.3-.3 1.8-.7c1.7-1.3 2.6-3.5 2-5.6l-5.9-5.9 9.5 8.7c2 1.8 1.4 5.1-1.1 6.1-2.9 1.2-7.6 2.4-15 2.4-7.8 0-12.6-1.4-15.5-2.9-2.3-1.2-2.7-4.3-.8-6L78 129m-.7-16.6s-3.2 9.2 7.1 9.2 6.9-8.4 6.9-8.4" class="st9"/><path d="M81.2 112.7c-.5.7-.4 1.7 0 2.5s1.3 1.2 2.1 1.4c1.1.3 2.3.2 3.2-.4s1.4-1.9 1-2.9m10.2-22.7c.6-.9 1.6-.3 2.1-1.2.6-.9-.4-1.5.2-2.5.6-.9 1.6-.3 2.1-1.2.6-.9-.4-1.5.2-2.5.6-.9 1.6-.3 2.1-1.2.6-.9-.4-1.5.2-2.5.6-.9 1.6-.3 2.1-1.2.6-.9-.4-1.5.2-2.5.6-.9 1.6-.3 2.1-1.2.6-.9-.4-1.5.2-2.5.6-.9 1.6-.3 2.1-1.2.6-.9-.4-1.5.2-2.5.6-.9 1.6-.3 2.1-1.2M92 88.9c.6-.9 1.6-.3 2.1-1.2.6-.9-.4-1.5.2-2.5.6-.9 1.6-.3 2.1-1.2.6-.9-.4-1.5.2-2.5.6-.9 1.6-.3 2.1-1.2.6-.9-.4-1.5.2-2.5.6-.9 1.6-.3 2.1-1.2.6-.9-.4-1.5.2-2.5.6-.9 1.6-.3 2.1-1.2.6-.9-.4-1.5.2-2.5.6-.9 1.6-.3 2.1-1.2.6-.9-.4-1.5.2-2.5.6-.9 1.6-.3 2.1-1.2M86.8 86.6c.6-.9 1.6-.3 2.1-1.2.6-.9-.4-1.5.2-2.5.6-.9 1.6-.3 2.1-1.2.6-.9-.4-1.5.2-2.5.6-.9 1.6-.3 2.1-1.2.6-.9-.4-1.5.2-2.5s1.6-.3 2.1-1.2-.4-1.5.2-2.5c.6-.9 1.6-.3 2.1-1.2.6-.9-.4-1.5.2-2.5.6-.9 1.6-.3 2.1-1.2.6-.9-.4-1.5.2-2.5.6-.9 1.6-.3 2.1-1.2m-39.8 4.6c.4-.6 1.3 0 1.7-.6s-.6-1.2-.2-1.8 1.3 0 1.7-.6-.6-1.2-.2-1.8 1.3 0 1.7-.6-.6-1.2-.2-1.8 1.3 0 1.7-.6-.6-1.2-.2-1.8 1.3 0 1.7-.6-.6-1.2-.2-1.8 1.3 0 1.7-.6-.6-1.2-.2-1.8 1.3 0 1.7-.6" class="st9"/><path d="m68.3 82 9.4 2.9 6.9-11.2-8.8-2.9z" class="st6"/><path d="M40.1 89.9c.1-.4 3.9-5.2 3.9-5.2m3.5 1.9-2.2 3.8 7.5 2.3.8-2.8s-1.8 9.4-.7 14.2c0 0 9.5-9.2 16.6-8.9" class="st9"/><path d="M127.3 78.3s3.7 1 5.6 2.5l-5.1 13.4c-1.9-1.5-5.6-2.5-5.6-2.5z" class="st6"/><path d="m114.3 93.7 1.6-.6-2-2.7m1.4-2.7 3-.8-.6-3m1.6-2.4 4.1-1-1-2.7m.1-3.4 5.3-.1-.5-2.5m-84 28.3 2-4.8m.6 5.2 2-4.8m0 12.2 1.4-3.4m29.5 5.8.3-3.6m3 3.7.3-3.6m10.3.7-.3 3.2-4.7-.4.1-3.3m21.8 2.4.3 2.4-4.8-.4-.4-2.7m-7.2 1.8v-2.4m3.4 2.8v-2.4m-11.8-8.3V98m3.7 2.6v-2.2" class="st9"/></svg>