<svg xmlns="http://www.w3.org/2000/svg" xmlns:xlink="http://www.w3.org/1999/xlink" id="Layer_1" x="0" y="0" version="1.1" viewBox="0 0 20 20" style="enable-background:new 0 0 20 20" xml:space="preserve"><path d="M3,1.4v17.3c0,0.4,0.5,0.5,0.7,0.3L4.4,18c0.2-0.2,0.4-0.2,0.6,0l1.1,1.3c0.2,0.2,0.4,0.2,0.6,0L7.9,18	c0.2-0.2,0.4-0.2,0.6,0l1.1,1.3c0.2,0.2,0.4,0.2,0.6,0l1.1-1.3c0.2-0.2,0.4-0.2,0.6,0l0.3,0.3C12.1,17.9,12,17.5,12,17v-0.5h-0.5	c-1.7,0-3-1.3-3-3c0-1.7,1.3-3,3-3H12V10c0-1.7,1.3-3,3-3c0.8,0,1.5,0.3,2,0.8V1.4c0-0.4-0.5-0.5-0.7-0.3L15.6,2	c-0.2,0.2-0.4,0.2-0.6,0l-1.1-1.3c-0.2-0.2-0.4-0.2-0.6,0L12.1,2c-0.2,0.2-0.4,0.2-0.6,0l-1.1-1.3c-0.2-0.2-0.4-0.2-0.6,0L8.6,2	C8.4,2.1,8.1,2.1,7.9,2L6.8,0.6c-0.2-0.2-0.4-0.2-0.6,0L5.1,2C4.9,2.1,4.6,2.1,4.4,2L3.7,1.1C3.5,0.8,3,1,3,1.4z"/><path d="M15,9c0.6,0,1,0.4,1,1v2.5h2.5c0.6,0,1,0.4,1,1s-0.4,1-1,1H16V17c0,0.6-0.4,1-1,1s-1-0.4-1-1v-2.5h-2.5c-0.6,0-1-0.4-1-1	s0.4-1,1-1H14V10C14,9.4,14.4,9,15,9z"/></svg>