<svg xmlns="http://www.w3.org/2000/svg" viewBox="0 0 20 20"><path d="M3 1.82c0-.36.44-.54.69-.28l.77.81c.16.17.42.17.58 0l1.17-1.23c.16-.17.42-.17.58 0l1.17 1.23c.16.17.42.17.58 0l1.17-1.23c.16-.17.42-.17.58 0l1.17 1.23c.16.17.42.17.58 0l1.17-1.23c.16-.17.42-.17.58 0l1.17 1.23c.16.17.42.17.58 0l.77-.81c.25-.26.69-.08.69.28v5.24c0 .38-.52.57-.8.32a6.05 6.05 0 0 0-4.03-1.54c-3.38 0-6.12 2.79-6.12 6.24 0 2.08.74 3.12 1.47 4.16.2.28.4.56.58.86.09.15.07.34-.05.47l-1.26 1.32c-.16.17-.42.17-.58 0l-1.17-1.23a.394.394 0 0 0-.58 0l-.77.81a.4.4 0 0 1-.69-.28z"/><path fill-rule="evenodd" d="M12.08 16.16c.76 0 1.48-.21 2.09-.58l3.12 3.12 1.41-1.41-3.12-3.12c.37-.61.58-1.33.58-2.09 0-2.25-1.83-4.08-4.08-4.08S8 9.83 8 12.08s1.83 4.08 4.08 4.08m0-2c1.15 0 2.08-.93 2.08-2.08S13.23 10 12.08 10 10 10.93 10 12.08s.93 2.08 2.08 2.08"/></svg>