<svg xmlns="http://www.w3.org/2000/svg" xml:space="preserve" viewBox="0 0 20 20"><path d="M3 1.4v17.3c0 .4.5.5.7.3l.7-1q.3-.3.6 0l1.1 1.3q.3.3.6 0L7.9 18q.3-.3.6 0l1.1 1.3q.3.3.6 0l1.1-1.3q.3-.3.6 0l.3.3c-.1-.4-.2-.8-.2-1.3v-.5h-.5c-1.7 0-3-1.3-3-3s1.3-3 3-3h.5V10c0-1.7 1.3-3 3-3 .8 0 1.5.3 2 .8V1.4c0-.4-.5-.5-.7-.3l-.7.9q-.3.3-.6 0L13.9.7q-.3-.3-.6 0L12.1 2q-.3.3-.6 0L10.4.7q-.3-.3-.6 0L8.6 2c-.2.1-.5.1-.7 0L6.8.6q-.3-.3-.6 0L5.1 2c-.2.1-.5.1-.7 0l-.7-.9C3.5.8 3 1 3 1.4"/><path d="M15 9c.6 0 1 .4 1 1v2.5h2.5c.6 0 1 .4 1 1s-.4 1-1 1H16V17c0 .6-.4 1-1 1s-1-.4-1-1v-2.5h-2.5c-.6 0-1-.4-1-1s.4-1 1-1H14V10c0-.6.4-1 1-1"/></svg>