<svg xmlns="http://www.w3.org/2000/svg" id="Layer_1" viewBox="0 0 20 20"><defs><style>.st0{fill-rule:evenodd}</style></defs><path d="M9.72 1.24c.12-.18.36-.21.52-.07l1.15 1c.16.14.41.1.52-.07l.54-.83a.35.35 0 0 1 .64.14l2.18 15.49c.04.32-.33.52-.58.31l-.75-.65a.35.35 0 0 0-.52.07l-.84 1.28c-.12.18-.36.21-.52.07l-1.16-1a.35.35 0 0 0-.52.07l-.84 1.28c-.12.18-.36.21-.52.07l-1.15-1a.35.35 0 0 0-.52.07l-.83 1.28c-.12.18-.36.21-.52.07l-1.16-1a.35.35 0 0 0-.52.07l-.54.83a.35.35 0 0 1-.64-.14L.97 3.11c-.04-.32.33-.52.58-.31l.75.65c.16.14.41.1.52-.07l.83-1.28c.12-.18.36-.21.52-.07l1.15 1c.16.14.41.1.52-.07l.83-1.28c.12-.18.36-.21.52-.07l1.15 1c.16.14.41.1.52-.07l.83-1.28Zm1.37 10.99-5.2.73a.87.87 0 0 0-.74.99c.07.48.51.81.99.75l5.2-.73c.48-.07.81-.51.75-.99a.886.886 0 0 0-.99-.75ZM8.87 9.01 5.4 9.5c-.48.07-.81.51-.75.99.07.48.51.81.99.75l3.47-.49c.48-.07.81-.51.75-.99a.87.87 0 0 0-.99-.74Zm1.24-3.71-5.2.73c-.48.07-.81.51-.75.99.07.48.51.81.99.75l5.2-.73a.87.87 0 0 0 .74-.99.886.886 0 0 0-.99-.75Z" class="st0"/><path d="M15.15 3.09c.1.16.32.19.46.07l1.03-.89c.14-.12.36-.09.46.06l.74 1.14c.1.16.32.19.46.07l.67-.58c.22-.19.55 0 .51.28l-1.94 13.79c-.04.28-.41.37-.57.13l-.49-.74s-.02-.03-.04-.04L14.42 2.03l.7 1.07Z"/></svg>