<svg xmlns="http://www.w3.org/2000/svg" xmlns:xlink="http://www.w3.org/1999/xlink" id="Layer_1" x="0" y="0" version="1.1" viewBox="0 0 295 500" xml:space="preserve" style="enable-background:new 0 0 295 500"><path d="M289.1,5.11l-6.3,7.354c-1.349,1.559-3.73,1.559-5.079,0L268.05,1.169c-1.349-1.559-3.73-1.559-5.079,0	L253.3,12.464c-1.349,1.559-3.73,1.559-5.079,0L238.55,1.169c-1.349-1.559-3.73-1.559-5.079,0L223.8,12.464	c-1.349,1.559-3.73,1.559-5.079,0L209.05,1.169c-1.349-1.559-3.73-1.559-5.079,0L194.3,12.464c-0.337,0.4-0.738,0.695-1.18,0.885	c-0.864,0.4-1.876,0.4-2.74,0c-0.442-0.19-0.842-0.485-1.18-0.885l-6.3-7.354l-3.371-3.94c-1.349-1.559-3.73-1.559-5.079,0	l-9.671,11.294c-1.349,1.559-3.73,1.559-5.079,0l-9.671-11.294c-1.349-1.559-3.73-1.559-5.079,0l-9.671,11.294	c-0.338,0.4-0.738,0.695-1.18,0.885c-0.864,0.4-1.876,0.4-2.74,0c-0.442-0.19-0.843-0.485-1.18-0.885l-6.3-7.354l-3.372-3.94	c-1.348-1.559-3.729-1.559-5.078,0l-9.672,11.294c-1.348,1.559-3.729,1.559-5.078,0L91.008,1.169c-1.349-1.559-3.73-1.559-5.078,0	l-9.672,11.294c-0.337,0.4-0.737,0.695-1.18,0.885c-0.864,0.4-1.875,0.4-2.739,0c-0.443-0.19-0.843-0.485-1.18-0.885l-6.3-7.354	l-3.372-3.94c-1.349-1.559-3.73-1.559-5.078,0l-9.672,11.294c-1.349,1.559-3.73,1.559-5.078,0l-9.63-11.273	c-1.349-1.559-3.73-1.559-5.078,0l-9.672,11.294c-1.349,1.559-3.73,1.559-5.078,0L5.9,5.131C3.856,2.729,0,4.225,0,7.407v485.186	c0,3.182,3.856,4.678,5.9,2.276l6.3-7.354c1.349-1.559,3.73-1.559,5.078,0l9.672,11.294c1.349,1.56,3.73,1.56,5.078,0l9.63-11.273	c1.349-1.559,3.73-1.559,5.078,0l9.672,11.295c1.349,1.559,3.73,1.559,5.078,0l3.372-3.941l6.3-7.354	c0.337-0.4,0.737-0.695,1.18-0.885c0.864-0.4,1.875-0.4,2.739,0c0.443,0.19,0.843,0.485,1.18,0.885l9.672,11.295	c1.349,1.559,3.73,1.559,5.078,0l9.672-11.295c1.349-1.559,3.73-1.559,5.078,0l9.672,11.295c1.349,1.559,3.73,1.559,5.078,0	l3.372-3.941l6.3-7.354c0.337-0.4,0.738-0.695,1.18-0.885c0.864-0.4,1.876-0.4,2.74,0c0.442,0.19,0.842,0.485,1.18,0.885	l9.671,11.295c1.349,1.559,3.73,1.559,5.079,0l9.671-11.295c1.349-1.559,3.73-1.559,5.079,0l9.671,11.295	c1.349,1.559,3.73,1.559,5.079,0l3.371-3.941l6.3-7.354c0.338-0.4,0.738-0.695,1.18-0.885c0.864-0.4,1.876-0.4,2.74,0	c0.442,0.19,0.843,0.485,1.18,0.885l9.671,11.295c1.349,1.559,3.73,1.559,5.079,0l9.671-11.295c1.349-1.559,3.73-1.559,5.079,0	l9.671,11.295c1.349,1.559,3.73,1.559,5.079,0l9.671-11.295c1.349-1.559,3.73-1.559,5.079,0l9.671,11.295	c1.349,1.559,3.73,1.559,5.079,0l9.671-11.295c1.349-1.559,3.73-1.559,5.079,0l6.3,7.354c2.044,2.381,5.9,0.906,5.9-2.276V7.385	C295,4.204,291.144,2.729,289.1,5.11z" class="st0"/></svg>