<svg xmlns="http://www.w3.org/2000/svg" id="Layer_1" data-name="Layer 1" viewBox="0 0 20 20"><defs><style>.cls-1{stroke-width:0}</style></defs><path d="M17 1.364v10.775L5.187 1.803 6.199.638a.397.397 0 0 1 .602 0L7.949 1.96a.397.397 0 0 0 .602 0L9.699.638a.397.397 0 0 1 .602 0l1.148 1.322a.397.397 0 0 0 .602 0L13.199.638a.397.397 0 0 1 .602 0l1.148 1.322a.397.397 0 0 0 .602 0l.748-.861a.4.4 0 0 1 .701.265M3 18.636V7.861l11.813 10.336-1.012 1.165a.397.397 0 0 1-.602 0l-1.148-1.322a.397.397 0 0 0-.602 0l-1.148 1.322a.397.397 0 0 1-.602 0L8.551 18.04a.397.397 0 0 0-.602 0l-1.148 1.322a.397.397 0 0 1-.602 0L5.051 18.04a.397.397 0 0 0-.602 0l-.748.861A.4.4 0 0 1 3 18.636M2.659 2.247a1 1 0 1 0-1.317 1.505l16 14a1 1 0 1 0 1.317-1.505z" class="cls-1"/></svg>