<?xml version="1.0" encoding="utf-8"?>
<!-- Generator: Adobe Illustrator 26.5.0, SVG Export Plug-In . SVG Version: 6.00 Build 0)  -->
<svg version="1.1" id="Layer_1" xmlns="http://www.w3.org/2000/svg" xmlns:xlink="http://www.w3.org/1999/xlink" x="0px" y="0px"
	 viewBox="0 0 20 20" style="enable-background:new 0 0 20 20;" xml:space="preserve">
<style type="text/css">
	.st0{fill-rule:evenodd;clip-rule:evenodd;}
</style>
<path d="M3,1.8c0-0.4,0.4-0.5,0.7-0.3l0.8,0.8c0.2,0.2,0.4,0.2,0.6,0l1.2-1.2C6.4,1,6.6,1,6.8,1.1L8,2.4c0.2,0.2,0.4,0.2,0.6,0
	l1.2-1.2c0.2-0.2,0.4-0.2,0.6,0l1.2,1.2c0.2,0.2,0.4,0.2,0.6,0l1.2-1.2c0.2-0.2,0.4-0.2,0.6,0L15,2.4c0.2,0.2,0.4,0.2,0.6,0l0.8-0.8
	C16.6,1.3,17,1.5,17,1.8v5.2c0,0.4-0.5,0.6-0.8,0.3c-1.1-1-2.5-1.5-4-1.5c-3.4,0-6.1,2.8-6.1,6.2c0,2.1,0.7,3.1,1.5,4.2
	c0.2,0.3,0.4,0.6,0.6,0.9c0.1,0.1,0.1,0.3-0.1,0.5l-1.3,1.3c-0.2,0.2-0.4,0.2-0.6,0L5,17.6c-0.2-0.2-0.4-0.2-0.6,0l-0.8,0.8
	C3.4,18.7,3,18.5,3,18.2V1.8z"/>
<path class="st0" d="M12.1,16.2c0.8,0,1.5-0.2,2.1-0.6l3.1,3.1l1.4-1.4l-3.1-3.1c0.4-0.6,0.6-1.3,0.6-2.1c0-2.3-1.8-4.1-4.1-4.1
	C9.8,8,8,9.8,8,12.1C8,14.3,9.8,16.2,12.1,16.2z M12.1,14.2c1.1,0,2.1-0.9,2.1-2.1S13.2,10,12.1,10S10,10.9,10,12.1
	S10.9,14.2,12.1,14.2z"/>
</svg>
