<svg xmlns="http://www.w3.org/2000/svg" xmlns:xlink="http://www.w3.org/1999/xlink" id="Layer_1" x="0" y="0" version="1.1" viewBox="0 0 20 20" style="enable-background:new 0 0 20 20" xml:space="preserve"><path d="M3,1.364V7h14V1.364c0-0.372-0.458-0.545-0.701-0.265l-0.748,0.861c-0.159,0.184-0.443,0.184-0.602,0l-1.148-1.322	c-0.159-0.184-0.443-0.184-0.602,0l-1.148,1.322c-0.159,0.184-0.443,0.184-0.602,0l-1.148-1.322c-0.159-0.184-0.443-0.184-0.602,0	L8.551,1.959c-0.159,0.184-0.443,0.184-0.602,0L6.801,0.638c-0.159-0.184-0.443-0.184-0.602,0L5.051,1.959	c-0.159,0.184-0.443,0.184-0.602,0L3.701,1.098C3.458,0.818,3,0.991,3,1.364z"/><path d="M3,18.636V13h14v5.636c0,0.372-0.458,0.545-0.701,0.265l-0.748-0.861c-0.159-0.184-0.443-0.184-0.602,0l-1.148,1.322	c-0.159,0.184-0.443,0.184-0.602,0l-1.148-1.322c-0.159-0.184-0.443-0.184-0.602,0l-1.148,1.322c-0.159,0.184-0.443,0.184-0.602,0	L8.551,18.04c-0.159-0.184-0.443-0.184-0.602,0l-1.148,1.322c-0.159,0.184-0.443,0.184-0.602,0L5.051,18.04	c-0.159-0.184-0.443-0.184-0.602,0l-0.748,0.861C3.458,19.182,3,19.008,3,18.636z"/><path d="M2,9c-0.552,0-1,0.448-1,1c0,0.552,0.448,1,1,1h16c0.552,0,1-0.448,1-1c0-0.552-0.448-1-1-1H2z"/></svg>