<svg xmlns="http://www.w3.org/2000/svg" xml:space="preserve" viewBox="0 0 295 500"><path d="m289.1 5.11-6.3 7.354a3.342 3.342 0 0 1-5.079 0L268.05 1.169a3.342 3.342 0 0 0-5.079 0L253.3 12.464a3.342 3.342 0 0 1-5.079 0L238.55 1.169a3.342 3.342 0 0 0-5.079 0L223.8 12.464a3.342 3.342 0 0 1-5.079 0L209.05 1.169a3.342 3.342 0 0 0-5.079 0L194.3 12.464c-.337.4-.738.695-1.18.885-.864.4-1.876.4-2.74 0a3.2 3.2 0 0 1-1.18-.885l-6.3-7.354-3.371-3.94a3.342 3.342 0 0 0-5.079 0l-9.671 11.294a3.342 3.342 0 0 1-5.079 0L150.029 1.17a3.342 3.342 0 0 0-5.079 0l-9.671 11.294a3.2 3.2 0 0 1-1.18.885c-.864.4-1.876.4-2.74 0a3.2 3.2 0 0 1-1.18-.885l-6.3-7.354-3.372-3.94a3.34 3.34 0 0 0-5.078 0l-9.672 11.294a3.34 3.34 0 0 1-5.078 0L91.008 1.169a3.34 3.34 0 0 0-5.078 0l-9.672 11.294c-.337.4-.737.695-1.18.885-.864.4-1.875.4-2.739 0a3.2 3.2 0 0 1-1.18-.885l-6.3-7.354-3.372-3.94a3.34 3.34 0 0 0-5.078 0l-9.672 11.294a3.34 3.34 0 0 1-5.078 0L32.029 1.19a3.34 3.34 0 0 0-5.078 0l-9.672 11.294a3.34 3.34 0 0 1-5.078 0L5.9 5.131C3.856 2.729 0 4.225 0 7.407v485.186c0 3.182 3.856 4.678 5.9 2.276l6.3-7.354a3.34 3.34 0 0 1 5.078 0l9.672 11.294a3.34 3.34 0 0 0 5.078 0l9.63-11.273a3.34 3.34 0 0 1 5.078 0l9.672 11.295a3.34 3.34 0 0 0 5.078 0l3.372-3.941 6.3-7.354c.337-.4.737-.695 1.18-.885.864-.4 1.875-.4 2.739 0 .443.19.843.485 1.18.885l9.672 11.295a3.34 3.34 0 0 0 5.078 0l9.672-11.295a3.34 3.34 0 0 1 5.078 0l9.672 11.295a3.34 3.34 0 0 0 5.078 0l3.372-3.941 6.3-7.354c.337-.4.738-.695 1.18-.885.864-.4 1.876-.4 2.74 0 .442.19.842.485 1.18.885l9.671 11.295a3.342 3.342 0 0 0 5.079 0l9.671-11.295a3.342 3.342 0 0 1 5.079 0l9.671 11.295a3.342 3.342 0 0 0 5.079 0l3.371-3.941 6.3-7.354a3.2 3.2 0 0 1 1.18-.885c.864-.4 1.876-.4 2.74 0 .442.19.843.485 1.18.885l9.671 11.295a3.342 3.342 0 0 0 5.079 0l9.671-11.295a3.342 3.342 0 0 1 5.079 0l9.671 11.295a3.342 3.342 0 0 0 5.079 0l9.671-11.295a3.342 3.342 0 0 1 5.079 0l9.671 11.295a3.342 3.342 0 0 0 5.079 0l9.671-11.295a3.342 3.342 0 0 1 5.079 0l6.3 7.354c2.044 2.381 5.9.906 5.9-2.276V7.385c0-3.181-3.856-4.656-5.9-2.275" class="st0"/></svg>