<svg width="40" height="40" viewBox="0 0 40 40" fill="#8B9C8F" xmlns="http://www.w3.org/2000/svg">
<path d="M24 15C24 17.2091 22.2091 19 20 19C17.7909 19 16 17.2091 16 15C16 12.7909 17.7909 11 20 11C22.2091 11 24 12.7909 24 15Z"/>
<path d="M20 26.5C20 27.5435 20.5327 28.4625 21.3411 29H13.5C11.9076 29 11 28.5 11 27C11 23 15.5 20 19.9985 20C23.0418 20 26.0862 21.3731 27.7372 23.5H23C21.3432 23.5 20 24.8431 20 26.5Z"/>
<path d="M23 25.5H29C29.5523 25.5 30 25.9477 30 26.5C30 27.0523 29.5523 27.5 29 27.5H23C22.4477 27.5 22 27.0523 22 26.5C22 25.9477 22.4477 25.5 23 25.5Z"/>
</svg>
