<svg xmlns="http://www.w3.org/2000/svg" xmlns:xlink="http://www.w3.org/1999/xlink" id="Layer_1" x="0" y="0" version="1.1" viewBox="0 0 20 20" style="enable-background:new 0 0 20 20" xml:space="preserve"><path d="M14,5c0,2.2-1.8,4-4,4C7.8,9,6,7.2,6,5s1.8-4,4-4C12.2,1,14,2.8,14,5z"/><path d="M10,16.5c0,1,0.5,2,1.3,2.5H3.5C1.9,19,1,18.5,1,17c0-4,4.5-7,9-7c3,0,6.1,1.4,7.7,3.5H13C11.3,13.5,10,14.8,10,16.5z"/><path d="M13,15.5h6c0.6,0,1,0.4,1,1c0,0.6-0.4,1-1,1h-6c-0.6,0-1-0.4-1-1C12,15.9,12.4,15.5,13,15.5z"/></svg>