<?xml version="1.0" encoding="utf-8"?>
<!-- Generator: Adobe Illustrator 26.5.0, SVG Export Plug-In . SVG Version: 6.00 Build 0)  -->
<svg version="1.1" id="Layer_1" xmlns="http://www.w3.org/2000/svg" xmlns:xlink="http://www.w3.org/1999/xlink" x="0px" y="0px"
	 viewBox="0 0 20 20" style="enable-background:new 0 0 20 20;" xml:space="preserve">
<path d="M4,2.5C4,1.7,3.3,1,2.5,1S1,1.7,1,2.5V10h6.5C8.3,10,9,9.3,9,8.5S8.3,7,7.5,7H5.3c0.9-1.8,2.8-3,5-3c3.1,0,5.6,2.5,5.6,5.5
	c0,3-2.5,5.5-5.6,5.5c-1.7,0-3.1-0.7-4.2-1.8C5.6,12.5,4.6,12.5,4,13c-0.6,0.6-0.7,1.5-0.1,2.1c1.6,1.7,3.9,2.8,6.5,2.8
	c4.8,0,8.7-3.8,8.7-8.5C19,4.8,15.1,1,10.3,1C7.8,1,5.6,2,4,3.7V2.5z"/>
</svg>
