<?xml version="1.0" encoding="utf-8"?>
<!-- Generator: Adobe Illustrator 24.3.0, SVG Export Plug-In . SVG Version: 6.00 Build 0)  -->
<svg version="1.1" id="Layer_1" xmlns="http://www.w3.org/2000/svg" xmlns:xlink="http://www.w3.org/1999/xlink" x="0px" y="0px"
	 viewBox="0 0 20 20" style="enable-background:new 0 0 20 20;" xml:space="preserve">
<style type="text/css">
	.st0{fill-rule:evenodd;clip-rule:evenodd;}
</style>
<path d="M9.5,2.5l4-2.5v1.8c3.2,0,5.8,2.6,5.8,5.8v1c0,0.4-0.3,0.8-0.8,0.8s-0.8-0.3-0.8-0.8v-1c0-2.3-1.9-4.2-4.2-4.2V5L9.5,2.5z"
	/>
<path class="st0" d="M3,8c0-1.1,0.9-2,2-2h8c1.1,0,2,0.9,2,2v8c0,1.1-0.9,2-2,2H5c-1.1,0-2-0.9-2-2V8z M5,7.5h8
	c0.3,0,0.5,0.2,0.5,0.5v8c0,0.3-0.2,0.5-0.5,0.5H5c-0.3,0-0.5-0.2-0.5-0.5V8C4.5,7.7,4.7,7.5,5,7.5z"/>
</svg>
