<svg width="219" height="200" viewBox="0 0 219 200" fill="none" xmlns="http://www.w3.org/2000/svg">
<g clip-path="url(#clip0_4_2906)">
<path d="M165.65 32.8466L164.828 33.1599C164.126 33.4266 163.331 33.0688 163.065 32.3621C163.005 32.2043 162.976 32.0399 162.976 31.8799C162.976 31.3243 163.313 30.7999 163.86 30.5932L165.234 30.071L167.615 29.1666L168.094 28.9843L168.577 28.7999L170.919 27.911L172.649 27.2532C173.353 26.9866 174.149 27.3443 174.415 28.051C174.474 28.2088 174.503 28.3732 174.503 28.5332C174.503 29.0866 174.167 29.6132 173.619 29.8199L172.822 30.1221L165.65 32.8466Z" fill="#FED607"/>
<path d="M166.745 35.9376L165.65 32.8465L172.822 30.1221L172.915 30.3687L173.923 33.3754L173.985 33.5576V33.6621C170.314 36.2665 167.489 36.0954 166.765 35.9954L166.745 35.9376Z" fill="#E4BC07"/>
<path d="M184.291 83.8509C184.426 84.6198 184.116 85.3176 183.598 85.4109C183.082 85.502 182.552 84.9509 182.417 84.182C182.282 83.4109 182.592 82.7131 183.11 82.622C183.629 82.5309 184.156 83.0798 184.291 83.8509Z" fill="#5AB0FF"/>
<path d="M187.107 75.7731C187.242 76.542 186.932 77.2398 186.414 77.3309C185.895 77.422 185.366 76.8731 185.23 76.102C185.098 75.3331 185.408 74.6354 185.924 74.5442C186.442 74.4531 186.972 75.002 187.107 75.7731Z" fill="#5AB0FF"/>
<path d="M187.43 66.2665C187.681 67.6976 187.103 68.9976 186.141 69.1665C185.177 69.3376 184.192 68.3132 183.941 66.8821C183.691 65.4487 184.269 64.151 185.233 63.9821C186.194 63.811 187.18 64.8354 187.43 66.2665Z" fill="#5AB0FF"/>
<path d="M183.93 57.6621C184.065 58.4332 183.755 59.131 183.237 59.2221C182.718 59.3132 182.189 58.7621 182.056 57.9932C181.921 57.2221 182.231 56.5243 182.749 56.4332C183.265 56.3421 183.795 56.8932 183.93 57.6621Z" fill="#5AB0FF"/>
<path d="M179.679 50.6754C179.814 51.4443 179.504 52.1421 178.985 52.2332C178.467 52.3243 177.937 51.7754 177.804 51.0043C177.669 50.2354 177.979 49.5376 178.498 49.4465C179.014 49.3554 179.543 49.9043 179.679 50.6754Z" fill="#5AB0FF"/>
<path d="M173.449 46.7665C173.533 47.2577 173.522 47.731 173.433 48.1488L173.387 48.1821L170.817 44.6554L170.868 44.6177C170.987 44.551 171.114 44.5065 171.249 44.4821C172.213 44.3132 173.196 45.3354 173.449 46.7665Z" fill="#5AB0FF"/>
<path d="M165.761 50.0466C165.896 50.8177 165.584 51.5154 165.068 51.6066C164.549 51.6977 164.02 51.1466 163.885 50.3777C163.75 49.6066 164.06 48.9088 164.578 48.8177C165.097 48.7266 165.626 49.2777 165.761 50.0466Z" fill="#5AB0FF"/>
<path d="M162.163 61.891C162.298 62.6599 161.988 63.3576 161.47 63.4487C160.951 63.5399 160.424 62.991 160.289 62.2199C160.154 61.451 160.464 60.7532 160.982 60.6621C161.499 60.571 162.028 61.1199 162.163 61.891Z" fill="#5AB0FF"/>
<path d="M166.151 80.6353C166.286 81.4042 165.976 82.102 165.458 82.1931C164.939 82.2864 164.412 81.7353 164.277 80.9664C164.142 80.1953 164.452 79.4975 164.97 79.4064C165.486 79.3153 166.016 79.8642 166.151 80.6353Z" fill="#5AB0FF"/>
<path d="M170.531 86.2042C170.664 86.9731 170.354 87.6709 169.838 87.762C169.319 87.8531 168.79 87.3042 168.655 86.5331C168.52 85.7642 168.83 85.0664 169.348 84.9753C169.867 84.8842 170.396 85.4331 170.531 86.2042Z" fill="#5AB0FF"/>
<path d="M178.766 89.6687C179.016 91.1021 178.438 92.3998 177.474 92.5687C176.513 92.7398 175.527 91.7154 175.277 90.2843C175.026 88.8532 175.602 87.5532 176.566 87.3843C177.53 87.2154 178.513 88.2376 178.766 89.6687Z" fill="#5AB0FF"/>
<path d="M172.603 65.0353L172.609 65.0464C172.281 65.2553 172.009 65.582 171.809 65.9909L171.665 65.9776L164.549 56.4865L162.985 58.0553L161.266 51.702L166.973 53.8976L165.487 55.5465L172.501 64.8976L172.603 65.0353Z" fill="#0185FF"/>
<path d="M173.387 48.182L174.636 49.8976L171.508 50.2909L173.854 64.6442L173.814 64.822C173.613 64.782 173.409 64.7776 173.205 64.8131C172.99 64.8509 172.791 64.9309 172.609 65.0465L172.603 65.0354L172.501 64.8976L172.525 64.8798L170.179 50.5265L167.13 50.8398L170.179 43.7798L170.817 44.6554L173.387 48.182Z" fill="#0185FF"/>
<path d="M176.092 67.8154C176.422 69.6976 175.664 71.4042 174.397 71.6265C173.132 71.8487 171.838 70.5042 171.508 68.6242C171.335 67.6331 171.464 66.6931 171.809 65.9909C172.009 65.582 172.281 65.2554 172.609 65.0465C172.791 64.9309 172.99 64.8509 173.205 64.8131C173.409 64.7776 173.613 64.782 173.814 64.822C174.86 65.0354 175.817 66.2354 176.092 67.8154Z" fill="#0185FF"/>
<path d="M125.943 65.9176L126.118 65.9398C125.788 69.0043 123.2 71.3887 120.059 71.3887C117.894 71.3887 115.993 70.2576 114.91 68.551L115.052 68.4598C115.586 68.5954 116.14 68.6598 116.691 68.6532C117.212 68.6443 117.835 68.4954 118.007 67.9998C118.145 67.6087 117.912 67.1621 117.573 66.9243C117.234 66.6865 116.813 66.6065 116.406 66.531C115.617 66.3865 114.828 66.2443 114.039 66.0998H114.017C113.98 65.831 113.96 65.5532 113.96 65.271C113.96 61.8932 116.689 59.1532 120.059 59.1532C122.819 59.1532 125.15 60.9932 125.899 63.5176L125.713 63.571C125.254 63.7443 124.826 63.8843 124.346 64.2598C123.958 64.5643 123.728 65.0598 123.712 65.5532C123.703 65.8265 123.785 66.1243 124.009 66.2821C124.31 66.4954 124.725 66.3732 125.07 66.2443C125.36 66.1354 125.653 66.0265 125.943 65.9176Z" fill="#FCDCFF"/>
<path d="M216.938 102.213C217.328 104.722 217.955 110.918 217.485 112.015C217.153 112.795 215.923 113.02 215.323 112.88H215.21C215.214 111.644 215.064 110.626 214.827 110.091L214.904 110.055C214.984 107.78 215.139 105.82 214.552 103.022L214.497 103.013C214.528 102.849 214.525 102.653 214.488 102.422C214.435 102.098 214.204 101.327 214.122 101.009C214.065 100.782 214 100.551 213.929 100.318C215.48 99.9265 216.685 100.593 216.938 102.213Z" fill="#E4BC07"/>
<path d="M214.827 110.091C215.064 110.626 215.214 111.644 215.21 112.878C215.201 114.984 214.731 117.718 213.444 119.729C213.393 119.809 213.34 119.886 213.282 119.96C212.649 120.818 211.862 121.169 211.621 121.349C211.497 121.442 211.377 121.513 211.266 121.564C210.919 121.729 210.633 121.702 210.436 121.555C210.101 121.306 209.545 120.52 209.257 120.08C208.989 119.669 209.066 119.36 209.317 119.071C209.456 118.906 209.656 118.751 209.877 118.584C210.391 118.202 210.781 117.731 211.074 117.211C211.84 115.853 211.949 114.169 211.913 112.924C211.9 112.358 211.853 111.882 211.829 111.571C211.798 111.206 211.791 110.94 211.809 110.738C211.851 110.184 212.06 110.115 212.403 109.846C213.185 109.689 214.355 109.44 214.669 109.82C214.725 109.886 214.778 109.978 214.827 110.091Z" fill="#FED607"/>
<path d="M213.929 100.318C214 100.551 214.065 100.782 214.122 101.009C214.204 101.326 214.435 102.098 214.488 102.422C214.525 102.653 214.528 102.849 214.497 103.013C214.448 103.295 214.308 103.482 214.122 103.571C213.748 103.755 212.611 103.938 212.091 103.991C211.641 104.035 211.419 103.858 211.28 103.549C211.182 103.335 211.122 103.058 211.052 102.749C210.912 102.142 210.757 101.564 210.58 101.006C210.077 99.4131 209.405 97.9975 208.479 96.6575C208.001 95.9664 207.454 95.2953 206.824 94.6309C206.632 94.4264 206.508 94.2398 206.435 94.0687C206.155 93.4064 206.652 92.9753 206.982 92.6442C207.241 92.4353 207.268 92.3553 207.607 92.1198C207.855 91.9487 208.076 91.8887 208.278 91.902C208.63 91.922 208.918 92.1576 209.171 92.382C209.875 93.0087 210.498 93.6976 211.045 94.4242C212.452 96.2887 213.367 98.3975 213.929 100.318Z" fill="#FED607"/>
<path d="M213.325 119.991C214.417 121.195 214.362 122.315 213.108 123.389C211.191 125.026 206.226 128.015 204.295 128.24C203.455 128.338 202.912 127.491 202.759 126.891L202.73 126.833C203.244 126.573 203.761 126.282 204.288 125.933C204.565 125.749 204.879 125.56 205.021 125.249L205.15 125.318C207.791 124.329 209.04 123.389 211.28 121.595L211.267 121.564C211.377 121.513 211.497 121.442 211.621 121.349C211.863 121.169 212.649 120.818 213.283 119.96L213.325 119.991Z" fill="#E4BC07"/>
<path d="M211.98 92.6021C212.162 93.4087 211.705 93.9221 211.047 94.4221C210.5 93.6976 209.877 93.0087 209.173 92.3821C208.92 92.1576 208.632 91.9221 208.28 91.9021L208.287 91.7021C206.776 90.0287 203.909 87.6243 202.033 86.4221L201.897 86.3665C202.192 85.6376 202.467 84.8887 202.717 84.1243L202.733 84.1287C206.065 86.1421 209.047 88.7398 211.501 91.7687C211.707 92.0198 211.913 92.2865 211.982 92.6021H211.98Z" fill="#E4BC07"/>
<path d="M211.913 112.924L211.725 112.931C211.184 112.94 209.873 112.966 209.51 112.564C209.146 112.164 209.126 110.911 209.12 110.369C209.066 106.318 208.597 104.278 208.65 102.604C208.685 101.478 209.939 101.042 210.473 101.009H210.58C210.757 101.564 210.912 102.142 211.051 102.749C211.122 103.058 211.182 103.335 211.28 103.549L211.204 103.571C211.464 105.82 211.778 107.546 211.778 110.735H211.809C211.791 110.94 211.798 111.206 211.829 111.571C211.853 111.882 211.9 112.358 211.913 112.924Z" fill="#E4BC07"/>
<path d="M209.268 119.013C207.932 120.104 205.983 121.511 203.229 122.813L203.233 122.82C203.14 122.86 203.038 122.911 202.932 122.978C202.318 123.355 201.689 123.693 201.071 124.004L200.991 123.629C200.734 123.151 200.285 122.226 200.471 121.718C200.657 121.209 201.317 120.784 201.813 120.571C205.679 118.918 208.615 116.182 209.149 116.131C210.265 116.018 210.722 116.704 210.996 117.166L211.074 117.211C210.781 117.731 210.391 118.202 209.877 118.584C209.656 118.751 209.457 118.906 209.317 119.071L209.268 119.013Z" fill="#E4BC07"/>
<path d="M208.479 96.6576L208.389 96.7221C207.95 97.0887 207.66 97.4021 207.086 97.611C206.428 97.851 205.785 97.1465 205.156 96.5643C203.071 94.631 201.456 93.271 199.318 91.651L199.212 91.5799C199.671 90.8687 200.103 90.1265 200.508 89.3599L200.778 89.5065C201.931 90.3599 204.303 92.4399 206.355 94.1065L206.435 94.0687C206.508 94.2399 206.632 94.4265 206.824 94.631C207.454 95.2954 208.001 95.9665 208.479 96.6576Z" fill="#E4BC07"/>
<path d="M205.043 124.535C205.127 124.833 205.105 125.062 205.021 125.249C204.879 125.56 204.565 125.749 204.288 125.933C203.76 126.282 203.244 126.573 202.73 126.833C201.922 127.242 201.117 127.573 200.282 127.937L200.047 127.984C199.85 126.933 199.598 125.893 199.303 124.862C199.868 124.589 200.466 124.309 201.071 124.004C201.689 123.693 202.318 123.355 202.932 122.978C203.038 122.911 203.14 122.86 203.233 122.822C204.166 122.438 204.518 123.289 204.753 123.773C204.866 124.086 204.932 124.138 205.043 124.535Z" fill="#FED607"/>
<path d="M166.765 35.9954C167.489 36.0954 170.314 36.2665 173.985 33.662V33.5576L173.923 33.3754H173.927C187.377 31.5109 200.737 44.6687 203.976 63.1598C205.294 70.6887 204.735 77.9575 202.715 84.1242C202.465 84.8886 202.19 85.6375 201.895 86.3664H201.893C201.476 87.4042 201.013 88.402 200.508 89.3598C200.103 90.1264 199.671 90.8686 199.212 91.5798H199.21C195.801 96.8886 190.958 100.549 185.177 101.569C177.9 102.851 170.6 99.6886 164.866 93.6175C163.703 92.3864 162.602 91.0331 161.581 89.5731L161.474 89.4531C161.067 88.8175 160.726 88.1331 160.469 87.4175C165.482 95.2064 172.563 99.5153 179.628 98.2686C190.641 96.3264 197.196 81.202 194.267 64.4865C191.339 47.7687 180.038 35.7931 169.025 37.7331C162.529 38.8776 157.584 44.6065 155.222 52.5442C157.256 45.2198 161.286 39.2665 166.674 35.982C166.698 35.9865 166.729 35.9909 166.765 35.9954Z" fill="#FED607"/>
<path d="M182.756 121.238L183.082 121.113C184.411 118.369 186.733 118.26 188.164 118.918C189.028 119.318 189.622 119.978 190.111 120.751L190.275 120.644C190.822 118.133 192.883 117.02 194.538 117.398C196.303 117.8 197.398 119.56 198.067 121.246C198.537 122.431 198.951 123.638 199.303 124.862C199.598 125.893 199.85 126.933 200.047 127.984C200.265 129.111 200.422 130.246 200.517 131.389C201.359 141.613 200.309 152.437 195.459 161.471C193.917 164.344 191.979 166.986 189.885 169.484C187.085 172.824 184.01 175.86 179.719 176.564H179.484C177.523 176.911 175.022 175.702 174.167 173.897C173.311 172.093 173.402 169.629 173.932 167.702C174.304 166.353 174.933 164.949 175.538 163.595C175.797 163.017 176.05 162.451 176.278 161.897C178.086 157.52 179.014 152.929 179.247 148.273C179.468 143.866 179.063 139.402 178.188 135.011C178.03 134.226 177.858 133.442 177.671 132.662C177.414 131.582 177.129 130.506 176.819 129.44C176.75 129.2 176.679 128.96 176.606 128.722C176.424 128.117 176.234 127.511 176.085 126.895C175.919 126.224 175.804 125.544 175.797 124.853C175.784 123.484 176.238 122.082 177.195 121.104C178.15 120.126 179.632 119.64 180.941 120.031C181.664 120.246 182.257 120.68 182.756 121.238Z" fill="#F68DFE"/>
<path d="M154.387 71.5243C154.387 71.5243 154.387 71.5176 154.387 71.5154C154.378 71.4687 154.372 71.4198 154.363 71.3731C153.27 64.7065 153.645 58.2576 155.205 52.6176C155.209 52.5932 155.218 52.5687 155.225 52.5443C157.586 44.6065 162.531 38.8776 169.027 37.7332C180.04 35.7932 191.341 47.7687 194.27 64.4865C197.198 81.202 190.643 96.3265 179.63 98.2687C172.565 99.5153 165.484 95.2065 160.471 87.4176C159.983 86.0731 159.788 84.6287 159.986 83.222C160.121 82.2731 160.409 81.3443 160.827 80.482L160.892 80.5154C164.906 89.7887 171.776 95.6309 178.405 94.462C187.096 92.9309 192.083 79.9265 189.54 65.4176C186.998 50.9065 177.893 40.3865 169.2 41.9176C161.005 43.3621 156.106 55.0043 157.701 68.4932L157.814 68.6065C156.436 69.9909 155.404 71.7509 154.793 73.6376C154.668 73.0598 154.555 72.4776 154.451 71.8887C154.429 71.7665 154.409 71.6443 154.389 71.5243H154.387Z" fill="#E4BC07"/>
<path d="M189.537 65.4176C192.081 79.9265 187.094 92.9309 178.403 94.4621C171.774 95.6309 164.904 89.7887 160.89 80.5154L160.825 80.4821C161.359 79.391 162.104 78.4043 163.016 77.6043C164.456 76.3421 166.273 75.5465 167.622 74.1843C168.878 72.911 169.667 71.0421 169.237 69.3021C168.852 67.7421 167.523 66.5154 165.996 66.0265C164.47 65.5399 162.784 65.7265 161.288 66.3021C159.968 66.811 158.8 67.611 157.812 68.6065L157.699 68.4932C156.104 55.0043 161.002 43.3621 169.197 41.9177C177.891 40.3866 186.996 50.9065 189.537 65.4176ZM186.141 69.1665C187.103 68.9976 187.681 67.6976 187.431 66.2665C187.18 64.8354 186.194 63.811 185.233 63.9821C184.269 64.151 183.691 65.4487 183.941 66.8821C184.192 68.3132 185.177 69.3376 186.141 69.1665ZM186.414 77.331C186.932 77.2398 187.242 76.5421 187.107 75.7732C186.972 75.0021 186.442 74.4532 185.924 74.5443C185.408 74.6354 185.098 75.3332 185.231 76.1021C185.366 76.8732 185.895 77.4221 186.414 77.331ZM183.598 85.411C184.116 85.3176 184.426 84.6198 184.291 83.851C184.156 83.0798 183.629 82.531 183.11 82.6221C182.592 82.7132 182.282 83.411 182.417 84.1821C182.552 84.951 183.082 85.5021 183.598 85.411ZM183.237 59.2221C183.755 59.131 184.065 58.4332 183.93 57.6621C183.795 56.8932 183.265 56.3421 182.749 56.4332C182.231 56.5243 181.921 57.2221 182.056 57.9932C182.189 58.7621 182.718 59.3132 183.237 59.2221ZM178.985 52.2332C179.504 52.1421 179.814 51.4443 179.679 50.6754C179.544 49.9043 179.014 49.3554 178.498 49.4465C177.979 49.5377 177.669 50.2354 177.804 51.0043C177.937 51.7754 178.467 52.3243 178.985 52.2332ZM177.474 92.5687C178.438 92.3998 179.016 91.1021 178.766 89.6687C178.513 88.2376 177.53 87.2154 176.566 87.3843C175.602 87.5532 175.026 88.8532 175.277 90.2843C175.527 91.7154 176.513 92.7398 177.474 92.5687ZM174.397 71.6265C175.664 71.4043 176.422 69.6976 176.092 67.8154C175.817 66.2354 174.86 65.0354 173.814 64.8221L173.854 64.6443L171.508 50.291L174.636 49.8977L173.387 48.1821L173.433 48.1488C173.522 47.731 173.533 47.2577 173.449 46.7665C173.196 45.3354 172.213 44.3132 171.249 44.4821C171.114 44.5065 170.988 44.551 170.868 44.6177L170.817 44.6554L170.179 43.7799L167.13 50.8399L170.179 50.5265L172.525 64.8799L172.501 64.8976L165.487 55.5465L166.973 53.8976L161.266 51.7021L162.985 58.0554L164.549 56.4865L171.665 65.9776L171.809 65.991C171.464 66.6932 171.335 67.6332 171.508 68.6243C171.838 70.5043 173.132 71.8487 174.397 71.6265ZM169.838 87.7621C170.354 87.6709 170.664 86.9732 170.531 86.2043C170.396 85.4332 169.866 84.8843 169.348 84.9754C168.83 85.0665 168.519 85.7643 168.655 86.5332C168.79 87.3043 169.319 87.8532 169.838 87.7621ZM165.458 82.1932C165.976 82.1021 166.286 81.4043 166.151 80.6354C166.016 79.8643 165.487 79.3154 164.97 79.4065C164.452 79.4976 164.142 80.1954 164.277 80.9665C164.412 81.7354 164.939 82.2865 165.458 82.1932ZM165.068 51.6065C165.584 51.5154 165.896 50.8177 165.761 50.0465C165.626 49.2777 165.097 48.7265 164.578 48.8177C164.06 48.9088 163.75 49.6065 163.885 50.3777C164.02 51.1465 164.549 51.6977 165.068 51.6065ZM161.47 63.4487C161.988 63.3576 162.299 62.6599 162.163 61.891C162.028 61.1199 161.499 60.571 160.983 60.6621C160.464 60.7532 160.154 61.451 160.289 62.2199C160.424 62.991 160.952 63.5399 161.47 63.4487Z" fill="#FFED8F"/>
<path d="M118.415 164.958C114.485 169.495 104.965 176.935 89.9775 170.933C89.0515 170.56 88.1055 170.14 87.1396 169.662L87.1263 169.675C85.4226 167.971 84.8953 165.431 84.6383 163.031C84.6073 162.74 84.5807 162.446 84.563 162.151L84.7934 162.133C90.815 163.624 96.2938 162.266 100.452 159.071C104.611 155.875 107.154 150.571 106.744 145.333C106.438 141.424 104.777 136.146 105.202 132.251L105.153 132.173C115.116 125.873 126.998 121.822 138.494 121.113C140.904 120.964 143.348 120.946 145.703 121.475C148.06 122.004 151.908 123.78 153.08 126.055L153.107 126.115C153.127 126.126 153.144 126.135 153.164 126.146C153.377 127.391 153.554 128.638 153.698 129.886C153.875 131.404 153.999 132.926 154.07 134.446L154.024 134.64C157.582 137.906 161.264 141.115 165.489 143.451C169.632 145.742 174.238 147.709 179.027 148.262L179.247 148.273C179.014 152.929 178.086 157.52 176.278 161.898C176.05 162.451 175.797 163.018 175.538 163.595L175.263 163.473C165.265 164.54 154.952 163.322 145.457 160.009C141.987 163.144 137.687 165.375 133.108 166.293C128.46 167.226 121.388 166.604 118.495 165.035L118.415 164.958Z" fill="#0185FF"/>
<path d="M171.894 132.675C173.404 132.838 175.618 132.831 177.53 132.695L177.671 132.662C177.858 133.442 178.03 134.226 178.188 135.011L177.997 135.049C175.135 135.326 172.23 135.224 169.383 134.74C169.073 134.689 168.752 134.626 168.497 134.44C167.844 133.966 167.839 133.298 167.988 132.511L167.999 132.344C169.007 132.6 169.964 132.76 170.768 132.758C171.185 132.755 171.652 132.729 171.927 132.335L171.894 132.675Z" fill="#E4BC07"/>
<path d="M176.819 129.44L176.59 129.506C175.631 129.573 173.504 129.546 171.725 129.591L171.67 129.698C171.506 129.618 171.295 129.553 171.027 129.513C170.072 129.369 169.233 129.206 168.469 129.022L168.473 128.995C168.559 128.429 168.568 128.002 168.856 127.462C169.189 126.844 170.137 126.94 170.992 126.955C172.882 126.991 174.448 126.975 176.072 126.898H176.085C176.234 127.511 176.424 128.118 176.606 128.722C176.679 128.96 176.75 129.2 176.819 129.44Z" fill="#E4BC07"/>
<path d="M175.297 13.7821L170.901 27.8643L170.919 27.911L168.577 28.7999L168.486 28.5577L170.635 15.5977L170.569 15.4044L175.297 13.7821Z" fill="#99F6FF"/>
<path d="M175.296 13.7821L170.569 15.4043L168.256 16.1977L168.156 15.9066L169.82 10.0421L169.787 9.94657L169.979 9.87991L175.296 13.7821Z" fill="#99F6FF"/>
<path d="M171.67 129.697C172.334 130.026 172.257 130.629 172.228 131.102C172.173 131.431 172.206 131.509 172.108 131.909C172.066 132.084 172.004 132.224 171.927 132.335C171.652 132.729 171.185 132.755 170.768 132.757C169.964 132.76 169.007 132.6 167.999 132.344C165.861 131.802 163.495 130.837 161.897 130.117C160.823 129.633 160.094 129.257 160.014 129.193C159.948 129.14 159.89 129.082 159.841 129.022C159.511 128.624 159.489 128.095 159.598 127.833C159.755 127.446 160.129 126.86 160.484 126.473C160.648 126.295 160.832 126.204 161.029 126.175C161.457 126.106 161.946 126.331 162.411 126.577C162.5 126.624 162.589 126.671 162.675 126.717C164.68 127.773 166.271 128.491 168.468 129.022C169.233 129.206 170.072 129.369 171.027 129.513C171.295 129.553 171.506 129.617 171.67 129.697Z" fill="#FED607"/>
<path d="M170.569 15.4043L170.635 15.5976L168.486 28.5576L168.577 28.7999L168.094 28.9843L168.039 28.8376L164.304 17.8776L164.204 17.5865L165.137 17.2665L167.709 16.3843L168.256 16.1976L170.569 15.4043Z" fill="#CCF6FF"/>
<path d="M169.787 9.94653L169.82 10.0421L168.156 15.9065L168.256 16.1976L167.708 16.3843L167.609 16.0954L162.715 12.4799L162.682 12.3821L164.257 11.8421L169.787 9.94653Z" fill="#CCF6FF"/>
<path d="M160.468 87.4176C160.725 88.1331 161.067 88.8176 161.474 89.4531L161.581 89.5731C162.602 91.0331 163.703 92.3864 164.866 93.6175C164.368 94.2664 163.858 94.9087 163.338 95.542L163.247 95.4664C161.045 92.1887 157.159 88.0553 154.123 85.5331L153.685 85.502C154.436 84.7953 155.151 83.9287 155.242 82.8998C155.302 82.2087 155.047 81.5287 154.735 80.9131C153.415 78.3131 151.026 76.3976 149.639 73.8331C149.243 73.0998 148.928 72.2887 148.97 71.4553C149.017 70.5709 149.46 69.7598 149.927 69.0087C151.095 67.1309 152.276 65.6642 153.654 63.9376H153.689C153.707 66.3531 153.926 68.842 154.361 71.3731C154.369 71.4198 154.376 71.4687 154.385 71.5153C154.385 71.5176 154.385 71.522 154.385 71.5242C154.405 71.6442 154.425 71.7665 154.447 71.8887C154.551 72.4776 154.664 73.0598 154.788 73.6376C155.4 71.7509 156.432 69.9909 157.81 68.6065C158.798 67.6109 159.966 66.8109 161.286 66.302C162.781 65.7265 164.467 65.5398 165.994 66.0265C167.52 66.5154 168.85 67.742 169.235 69.302C169.665 71.042 168.876 72.9109 167.62 74.1842C166.271 75.5465 164.454 76.342 163.014 77.6042C162.101 78.4042 161.357 79.3909 160.823 80.482C160.404 81.3442 160.116 82.2731 159.981 83.222C159.784 84.6287 159.979 86.0731 160.466 87.4176H160.468Z" fill="#F68DFE"/>
<path d="M168.039 28.8376L168.094 28.9843L167.616 29.1665L167.531 28.9443L157.872 19.9732L157.806 19.782L160.123 18.9865L160.67 18.7998L163.24 17.9176L164.204 17.5865L164.304 17.8776L168.039 28.8376Z" fill="#99F6FF"/>
<path d="M167.609 16.0954L167.708 16.3843L165.136 17.2665L164.204 17.5865L163.24 17.9176L160.67 18.7998L160.57 18.5087L162.232 12.6443L162.199 12.5487L162.682 12.3821L162.715 12.4798L167.609 16.0954Z" fill="#99F6FF"/>
<path d="M167.531 28.9443L167.616 29.1666L165.234 30.071L165.143 29.831L153.082 21.4021L157.806 19.7821L157.872 19.9732L167.531 28.9443Z" fill="#CCF6FF"/>
<path d="M163.247 95.4664L163.338 95.542C161.563 97.7087 159.66 99.7687 157.535 101.586C154.72 103.993 151.051 106.1 147.504 107.153L147.44 107.182C146.529 105.084 145.541 103.031 144.486 101.029C142.958 98.1264 141.376 95.302 139.528 92.5642C138.884 91.6065 138.206 90.6598 137.488 89.7264L137.572 89.662C141.247 90.6042 144.739 89.7731 148.007 88.642C150.167 87.8931 152.09 86.9953 153.685 85.502L154.124 85.5331C157.159 88.0553 161.045 92.1887 163.247 95.4664Z" fill="#4ED7DE"/>
<path d="M162.655 123.635C163.975 124.278 163.3 125.98 163.089 126.473L162.675 126.718C162.589 126.671 162.5 126.624 162.411 126.578C161.946 126.331 161.456 126.106 161.029 126.175L161.013 126.069C158.893 125.295 157.382 124.346 154.54 122.918L154.527 122.938C154.445 122.88 154.352 122.82 154.245 122.76C153.556 122.371 152.943 122.002 152.386 121.638L152.262 121.666L152.183 121.326L152.298 121.298C152.535 120.809 153.016 119.913 153.55 119.833C154.593 119.675 155.827 120.538 156.312 120.773C159.948 122.542 161.153 122.906 162.655 123.635Z" fill="#E4BC07"/>
<path d="M162.199 12.5487L162.232 12.6443L160.57 18.5087L160.67 18.7998L160.123 18.9865L160.023 18.6976L155.127 15.0798L155.094 14.9843L160.624 13.0887L162.199 12.5487Z" fill="#CCF6FF"/>
<path d="M161.898 130.118L161.891 130.133C161.559 131.726 160.491 132.415 158.92 131.911C157.713 131.524 155.663 130.706 153.82 129.871L153.698 129.886C153.554 128.638 153.377 127.391 153.164 126.146C155.136 127.226 156.97 128.315 159.702 129.035L159.842 129.022C159.89 129.082 159.948 129.14 160.014 129.193C160.094 129.258 160.823 129.633 161.898 130.118Z" fill="#E4BC07"/>
<path d="M160.023 18.6976L160.123 18.9865L157.806 19.7821L153.082 21.4021L154.901 15.051L155.094 14.9843L155.127 15.0798L160.023 18.6976Z" fill="#99F6FF"/>
<path d="M154.527 122.938C155.371 123.553 155.03 124.178 154.812 124.671C154.644 124.96 154.648 125.042 154.416 125.384C154.028 125.955 153.552 125.926 153.113 125.791H153.104V125.793C152.865 124.413 152.584 123.035 152.265 121.666L152.389 121.638C152.945 122.002 153.558 122.371 154.247 122.76C154.354 122.82 154.447 122.88 154.529 122.938H154.527Z" fill="#FED607"/>
<path d="M153.105 125.793L153.164 126.146C153.144 126.135 153.127 126.126 153.107 126.115L153.08 126.055C151.908 123.78 148.06 122.004 145.703 121.475C143.348 120.946 140.904 120.964 138.494 121.113C126.998 121.822 115.116 125.873 105.153 132.173C104.032 132.882 102.938 133.618 101.87 134.382C100.676 135.233 99.5173 136.118 98.3985 137.035L98.2102 137C98.3653 136.206 98.5447 135.418 98.7242 134.633C98.8416 134.118 98.959 133.6 99.0764 133.082C99.1872 132.58 99.3002 132.078 99.4088 131.573C100.014 128.782 100.556 125.969 100.911 123.144L100.98 123.153C111.066 123.466 117.848 120.213 124.567 115.966C128.582 113.429 131.836 109.998 132.959 108.486C133.908 107.211 134.778 105.842 135.556 104.411C136.407 102.844 137.149 101.204 137.76 99.5243C138.596 97.2487 139.198 94.8976 139.528 92.5643C141.376 95.302 142.958 98.1265 144.486 101.029C145.541 103.031 146.529 105.084 147.44 107.182C149.418 111.735 151.035 116.486 152.183 121.326L152.263 121.666C152.582 123.035 152.863 124.413 153.102 125.793H153.105Z" fill="#4ED7DE"/>
<path d="M52.5386 16.011C52.5386 16.011 52.5519 16.0243 52.5563 16.0243C52.5497 16.0199 52.5453 16.0154 52.5386 16.011ZM74.939 78.9954C73.5809 78.3709 72.3912 77.3887 71.6446 76.0909C73.2885 77.2532 75.5637 77.3198 77.3981 76.4909C79.2303 75.6598 80.5241 74.3776 81.3372 72.5332C79.6557 73.3265 77.664 73.4265 75.9116 72.8043C73.7271 72.0287 71.8684 70.0109 71.9127 67.6865C73.0957 69.3465 75.4374 70.0621 77.3427 69.3443C77.901 69.1354 78.415 68.8176 78.8847 68.4487C80.7523 66.9754 81.8689 64.6687 82.1635 62.3065C82.4604 59.9421 81.51 56.251 80.4665 53.5332L80.4732 53.3821C73.3283 53.0332 66.507 49.1043 62.1403 43.371L62.0805 43.2599C64.564 41.9221 66.8615 40.2354 68.8842 38.2643L68.9927 38.3754C69.3029 38.6843 69.6197 38.9865 69.9476 39.2799C74.117 43.011 79.5427 45.4376 85.13 45.5221C85.2098 45.5221 85.1765 45.4643 85.1056 45.4287C81.5897 38.6199 76.5097 32.9488 70.1669 28.6732C67.4087 26.8132 64.409 25.2443 61.2143 24.3732L61.1788 24.5132C62.2179 27.7265 63.5161 30.7643 65.1777 33.4688C65.3904 33.8176 65.6097 34.1599 65.8357 34.4976L66.0085 34.6865C64.0789 36.4665 61.9653 38.0443 59.71 39.3888L59.6147 39.231C59.4397 38.9221 59.2713 38.611 59.1074 38.2999C58.4627 37.0799 57.8867 35.8488 57.3483 34.6043V34.5243C58.6089 34.4621 59.6147 33.4154 59.6147 32.1332C59.6147 30.851 58.5469 29.7421 57.2309 29.7421C56.6616 29.7421 56.1365 29.9421 55.7266 30.2754L55.7023 30.2443C55.3987 29.4377 55.0974 28.6265 54.7895 27.8065C52.8886 22.7465 50.6909 17.6354 46.9114 13.7799L46.949 13.7421C49.0604 14.1221 50.8682 14.6599 52.5364 16.0088C52.2838 15.7377 50.4849 12.1043 49.9975 9.97767C51.7964 12.4088 53.4935 13.8599 55.813 15.2221C57.8512 16.4177 60.0556 17.2954 62.2334 18.211C66.3763 19.9532 70.4793 21.8643 74.3164 24.1932C76.1774 25.3221 77.9786 26.5532 79.6889 27.9088C82.2411 29.9332 84.5939 32.2665 86.5634 34.8688L86.816 34.6776C88.8365 30.6621 91.8362 27.1488 95.4828 24.5332C94.9068 25.2799 94.7229 26.1532 94.4659 27.0599C93.8544 29.2265 93.2385 31.4132 93.1167 33.6599C94.9334 30.6688 97.2729 27.9754 99.9137 25.6865C99.3665 28.5776 99.1117 31.5865 99.2202 34.5265C101.108 34.0821 103.06 33.9376 104.994 34.0799C109.405 34.3954 113.723 36.1776 116.964 39.1888C119.684 41.7154 121.634 44.9643 124.219 47.631C124.849 48.2799 125.515 48.8932 126.213 49.4643C126.641 49.8154 127.079 50.151 127.529 50.471C128.136 50.9021 128.77 51.3087 129.439 51.6376C129.991 51.9132 130.567 52.1332 131.167 52.2732C132.492 52.5821 133.965 52.4598 135.095 51.6976C136.225 50.9354 136.914 49.4665 136.544 48.151C137.485 49.6687 137.703 51.6354 137.138 53.331C136.575 55.0265 135.385 56.4687 133.954 57.5354C133.267 58.0465 132.521 58.4798 131.716 58.7754C134.051 59.4532 136.799 58.5354 138.724 57.0487C139.572 56.391 140.359 55.5176 140.467 54.4465C141.101 56.8687 140.419 59.4465 138.815 61.3643C137.211 63.2843 134.849 64.4776 132.394 64.9376C134.054 65.8198 136.127 65.4154 137.922 64.8621C139.495 64.3754 141.079 63.5754 141.914 62.1554C141.974 64.9665 140.977 67.6843 139.156 69.8221C137.335 71.9576 134.714 73.3909 131.936 73.7687L131.63 73.7554C131.495 76.842 131.338 79.882 131.021 82.902C130.748 85.5043 130.356 88.0909 129.754 90.682C129.302 92.6309 128.274 95.1376 127.115 96.7643C126.34 97.8576 125.296 98.7598 124.104 99.3665C123.459 99.6954 122.768 99.9398 122.048 100.009C120.832 100.122 119.593 99.6998 118.636 98.9354C118.574 98.8865 118.512 98.8354 118.453 98.782C117.544 97.9865 116.924 96.8887 116.625 95.7154L116.383 95.7798C115.989 96.022 115.584 96.2465 115.167 96.4531C113.517 97.2754 111.715 97.8176 109.888 98.1287C108.399 98.3798 106.895 98.4798 105.437 98.4465L105.41 98.4642C103.181 95.0243 100.137 92.1531 96.3512 90.6931C91.7077 88.902 86.3685 89.4354 81.829 91.4754C81.1134 91.7976 80.4178 92.1531 79.7376 92.5398C82.055 90.8109 83.9071 88.1998 85.2386 85.1976C83.269 85.9154 81.2286 86.5265 79.1328 86.5665C77.4402 86.5998 75.6169 86.0998 74.1658 85.1554C73.8224 84.9332 73.4989 84.6843 73.2043 84.4109C73.5011 84.4665 73.8024 84.5065 74.1037 84.5265C74.2721 84.542 74.4405 84.5487 74.6089 84.5487C76.41 84.5687 78.22 83.9931 79.6645 82.9087C80.3579 82.3887 80.9561 81.8287 81.4435 81.2087C82.2322 80.2043 82.7263 79.042 82.8636 77.6376L82.8437 77.6265C82.4272 78.4065 81.623 78.9087 80.7988 79.2265C80.1165 79.4887 79.3964 79.6443 78.6676 79.6932C77.6485 79.7665 76.6161 79.6309 75.6546 79.2887C75.4109 79.202 75.1716 79.1043 74.939 78.9954ZM126.118 65.9398C126.142 65.7198 126.156 65.4976 126.156 65.271C126.156 64.6621 126.067 64.0732 125.899 63.5176C125.15 60.9932 122.819 59.1532 120.059 59.1532C116.689 59.1532 113.96 61.8932 113.96 65.271C113.96 65.5532 113.98 65.8309 114.017 66.1021C114.137 66.9954 114.449 67.8265 114.91 68.5509C115.993 70.2576 117.894 71.3887 120.059 71.3887C123.2 71.3887 125.788 69.0043 126.118 65.9398ZM126.047 89.0043C126.131 88.382 126.122 87.7487 126.005 87.1309C125.73 85.6776 124.66 84.3354 123.225 83.9998C121.791 83.6643 120.103 84.5598 119.797 86.0065C119.766 86.1532 119.726 86.122 119.715 86.2709C118.858 81.5754 118.732 76.5509 119.458 71.8332C117.885 76.7132 117.114 82.122 117.555 87.2309C117.597 87.7109 117.664 88.2176 117.764 88.7243C117.974 89.7976 118.328 90.8731 118.887 91.7265C119.709 92.982 121.264 93.8687 122.711 93.4798C123.763 93.1976 124.667 92.3309 125.218 91.3887C125.648 90.6576 125.932 89.842 126.047 89.0043ZM119.099 52.6198C119.228 52.0265 119.294 51.411 119.294 50.7776C119.294 47.8087 117.808 45.1865 115.541 43.6176C114.146 42.6532 112.453 42.0887 110.632 42.0887C107.506 42.0887 104.766 43.751 103.243 46.2399L103.212 46.3399C102.311 46.0532 101.349 45.8976 100.352 45.8976C95.1283 45.8976 90.8924 50.1465 90.8924 55.3887C90.8924 60.631 95.1283 64.8798 100.352 64.8798C104.189 64.8798 107.495 62.5887 108.979 59.2932L109.134 59.3376C109.62 59.4221 110.12 59.4665 110.632 59.4665C114.786 59.4665 118.258 56.5354 119.099 52.6198Z" fill="#F68DFE"/>
<path d="M137.625 99.4732C136.087 98.6221 134.508 97.851 132.893 97.1643L132.636 97.1554C133.854 93.9376 134.472 90.2732 134.288 85.9776L134.295 85.971C135.452 87.1999 136.508 88.4532 137.488 89.7265C138.205 90.6599 138.883 91.6065 139.528 92.5643C139.198 94.8976 138.595 97.2487 137.76 99.5243L137.625 99.4732Z" fill="#0164BF"/>
<path d="M137.625 99.4731L137.76 99.5242C137.149 101.204 136.407 102.844 135.556 104.411L135.39 104.318C133.828 103.373 132.268 102.429 130.706 101.482L130.525 101.444C131.349 100.102 132.06 98.6775 132.636 97.1553L132.893 97.1642C134.508 97.8509 136.088 98.622 137.625 99.4731Z" fill="#0164BF"/>
<path d="M135.39 104.318L135.556 104.411C134.778 105.842 133.907 107.211 132.959 108.486C131.836 109.998 128.582 113.429 124.567 115.966C117.848 120.213 111.066 123.466 100.979 123.153L100.911 123.144C101.17 121.084 101.329 119.02 101.336 116.955H101.527C103.414 117.233 105.926 117.093 107.792 116.698C114.804 115.204 121.51 111.855 126.461 106.655C127.997 105.042 129.372 103.322 130.524 101.444L130.706 101.482C132.268 102.429 133.828 103.373 135.39 104.318Z" fill="#0164BF"/>
<path d="M100.982 111.495C97.149 111.586 93.3295 112.202 89.663 113.329C84.4921 114.913 79.5096 117.615 76.1288 121.849C76.1177 121.862 76.1089 121.873 76.0978 121.886C70.362 121.86 64.9896 118.549 62.3266 113.453H62.1693C62.094 113.446 62.0209 113.44 61.9478 113.435H62.3044C64.7702 109.1 67.2537 104.744 70.3687 100.851C71.6337 99.2709 73.0139 97.7621 74.5093 96.3954C75.4221 95.5598 76.377 94.7754 77.3783 94.0576C78.1382 93.5132 78.9247 93.0043 79.7378 92.5398C80.4179 92.1532 81.1136 91.7976 81.8292 91.4754C86.3686 89.4354 91.7078 88.9021 96.3514 90.6932C100.138 92.1532 103.182 95.0243 105.41 98.4643C106.082 99.4954 106.678 100.58 107.198 101.691C107.291 101.889 107.382 102.086 107.471 102.286L107.522 102.264C109.325 102.242 111.139 101.982 112.885 101.511C114.921 100.962 116.86 100.12 118.572 99.0221L118.637 98.9354C119.594 99.6998 120.832 100.122 122.048 100.009C122.768 99.9398 123.46 99.6954 124.104 99.3665C125.296 98.7598 126.34 97.8576 127.115 96.7643C128.274 95.1376 129.302 92.6309 129.754 90.6821C130.356 88.091 130.748 85.5043 131.021 82.9021L131.16 82.9176C132.286 83.9198 133.327 84.9376 134.295 85.971L134.289 85.9776C134.473 90.2732 133.854 93.9376 132.636 97.1554C132.06 98.6776 131.349 100.102 130.525 101.444C129.373 103.322 127.997 105.042 126.462 106.655C121.51 111.855 114.804 115.204 107.792 116.698C105.927 117.093 103.414 117.233 101.527 116.958H101.336C101.345 115.371 101.263 113.786 101.07 112.206C101.044 111.991 101.015 111.773 100.984 111.555V111.495H100.982Z" fill="#4ED7DE"/>
<path d="M126.156 65.271C126.156 65.4977 126.142 65.7199 126.118 65.9399L125.943 65.9177C125.653 66.0265 125.36 66.1354 125.07 66.2443C124.725 66.3732 124.31 66.4954 124.009 66.2821C123.785 66.1243 123.703 65.8265 123.712 65.5532C123.728 65.0599 123.958 64.5643 124.346 64.2599C124.826 63.8843 125.254 63.7443 125.713 63.571L125.899 63.5177C126.067 64.0732 126.156 64.6621 126.156 65.271Z" fill="#002140"/>
<path d="M126.005 87.1309C126.123 87.7487 126.131 88.3821 126.047 89.0043L125.87 88.9843C125.141 88.4087 123.107 88.3554 122.168 89.2443L122.053 89.3509C121.703 88.9909 121.277 88.7043 120.81 88.5221C119.877 88.1621 118.792 88.2265 117.908 88.6932L117.764 88.7243C117.664 88.2176 117.598 87.7109 117.555 87.231C117.115 82.1221 117.886 76.7132 119.459 71.8332C118.732 76.551 118.858 81.5754 119.716 86.2709C119.727 86.1221 119.767 86.1532 119.798 86.0065C120.103 84.5598 121.791 83.6643 123.225 83.9998C124.66 84.3354 125.73 85.6776 126.005 87.1309Z" fill="#002140"/>
<path d="M122.053 89.3509L122.168 89.2442C123.107 88.3553 125.141 88.4087 125.87 88.9842L126.047 89.0042C125.932 89.842 125.648 90.6576 125.219 91.3887C124.667 92.3309 123.763 93.1976 122.711 93.4798C121.264 93.8687 119.709 92.982 118.887 91.7264C118.329 90.8731 117.974 89.7976 117.764 88.7242L117.908 88.6931C118.792 88.2264 119.877 88.162 120.81 88.522C121.277 88.7042 121.703 88.9909 122.053 89.3509Z" fill="#CF4CD9"/>
<path d="M119.295 50.7776C119.295 51.4109 119.228 52.0265 119.1 52.6198L118.998 52.5976C118.366 52.9043 117.657 53.0754 116.908 53.0754C115.187 53.0754 113.678 52.1687 112.83 50.7998L112.863 50.7776L115.225 48.8398L112.112 48.2643C112.112 46.0954 113.543 44.2621 115.511 43.6621L115.542 43.6176C117.808 45.1865 119.295 47.8087 119.295 50.7776Z" fill="#002140"/>
<path d="M112.83 50.7999C113.678 52.1687 115.187 53.0754 116.909 53.0754C117.657 53.0754 118.366 52.9043 118.998 52.5976L119.1 52.6198C118.258 56.5354 114.786 59.4665 110.632 59.4665C110.12 59.4665 109.62 59.4221 109.135 59.3376L108.979 59.2932C109.25 58.6932 109.46 58.0598 109.602 57.3998C109.742 56.751 109.815 56.0776 109.815 55.3887C109.815 52.1443 108.191 49.2799 105.714 47.5687C104.954 47.0421 104.112 46.6243 103.213 46.3399L103.244 46.2399C104.766 43.751 107.506 42.0887 110.632 42.0887C112.453 42.0887 114.146 42.6532 115.542 43.6176L115.511 43.6621C113.543 44.2621 112.112 46.0954 112.112 48.2643L115.225 48.8399L112.863 50.7776L112.83 50.7999Z" fill="#FFFAF0"/>
<path d="M118.636 98.9353L118.572 99.022C116.86 100.12 114.921 100.962 112.885 101.511L112.867 101.444C113.738 99.8309 114.507 98.1642 115.169 96.4553H115.167C115.584 96.2464 115.989 96.022 116.383 95.7798L116.625 95.7153C116.924 96.8886 117.544 97.9864 118.453 98.782C118.512 98.8353 118.574 98.8864 118.636 98.9353Z" fill="#FED607"/>
<path d="M117.573 66.9243C117.912 67.1621 118.145 67.6087 118.007 67.9998C117.835 68.4954 117.212 68.6443 116.691 68.6532C116.14 68.6598 115.586 68.5954 115.052 68.4598L114.91 68.551C114.449 67.8265 114.137 66.9954 114.017 66.1021H114.039C114.828 66.2443 115.617 66.3865 116.406 66.531C116.813 66.6065 117.234 66.6865 117.573 66.9243Z" fill="#002140"/>
<path d="M115.167 96.4532H115.169C114.507 98.1643 113.738 99.8309 112.868 101.444L112.885 101.511C111.14 101.982 109.325 102.242 107.522 102.264L107.471 102.286C107.382 102.086 107.291 101.889 107.198 101.691L107.313 101.638C108.246 100.398 109.081 99.5976 109.914 98.2887L109.888 98.1287C111.716 97.8176 113.517 97.2754 115.167 96.4532Z" fill="#FED607"/>
<path d="M109.888 98.1287L109.914 98.2887C109.081 99.5976 108.246 100.398 107.313 101.638L107.198 101.691C106.678 100.58 106.082 99.4954 105.41 98.4643L105.437 98.4465C106.895 98.4798 108.399 98.3798 109.888 98.1287Z" fill="#FED607"/>
<path d="M109.815 55.3888C109.815 56.0777 109.742 56.751 109.602 57.3999L109.489 57.3754C108.8 57.711 108.027 57.8977 107.209 57.8977C105.326 57.8977 103.68 56.9065 102.756 55.411L102.789 55.3888L105.37 53.271L101.97 52.6443C101.97 50.2732 103.532 48.271 105.681 47.6154L105.714 47.5688C108.191 49.2799 109.815 52.1443 109.815 55.3888Z" fill="#002140"/>
<path d="M102.756 55.411C103.68 56.9065 105.326 57.8977 107.209 57.8977C108.027 57.8977 108.8 57.711 109.489 57.3754L109.602 57.3999C109.46 58.0599 109.25 58.6932 108.979 59.2932C107.495 62.5888 104.19 64.8799 100.353 64.8799C95.1285 64.8799 90.8926 60.631 90.8926 55.3888C90.8926 50.1465 95.1285 45.8977 100.353 45.8977C101.349 45.8977 102.311 46.0532 103.213 46.3399C104.112 46.6243 104.954 47.0421 105.714 47.5688L105.681 47.6154C103.532 48.271 101.97 50.2732 101.97 52.6443L105.371 53.271L102.79 55.3888L102.756 55.411Z" fill="#FFFAF0"/>
<path d="M106.744 145.333C107.154 150.571 104.611 155.875 100.452 159.071C96.2938 162.266 90.815 163.624 84.7934 162.133L84.563 162.151C84.4855 161.031 84.5032 159.895 84.6849 158.809L84.871 158.84C87.6491 160.082 91.411 159.877 94.249 158.78C96.7746 157.804 99.0853 156.222 100.789 154.113C102.495 152.006 103.665 149.362 103.66 146.649C103.654 143.62 101.888 139.911 101.917 134.446L101.87 134.382C102.938 133.617 104.032 132.882 105.153 132.173L105.202 132.251C104.777 136.146 106.438 141.424 106.744 145.333Z" fill="#FFFAF0"/>
<path d="M105.018 33.7687L104.994 34.0799C103.06 33.9376 101.108 34.0821 99.2203 34.5265C99.1117 31.5865 99.3665 28.5776 99.9137 25.6865C97.2729 27.9754 94.9334 30.6688 93.1167 33.6599C93.2386 31.4132 93.8545 29.2265 94.466 27.0599C94.7229 26.1532 94.9068 25.2799 95.4828 24.5332C91.8362 27.1488 88.8365 30.6621 86.816 34.6776L86.5635 34.8687C84.5939 32.2665 82.2411 29.9332 79.6889 27.9088C77.9786 26.5532 76.1775 25.3221 74.3165 24.1932L74.3719 24.1021C73.0958 20.1532 71.8175 16.2043 70.4771 12.2799C69.3229 8.90433 68.0623 5.44656 65.6497 2.82656L65.6762 2.74656C68.2218 3.54656 71.3389 5.57989 71.4342 5.57989C70.8825 3.93767 70.4616 2.251 70.1802 0.539893L70.2733 0.524338C71.2658 2.44656 72.6416 3.75989 74.2855 4.91989C81.7249 10.1666 90.6665 13.3243 97.1511 19.7199C101.354 23.8643 103.769 27.991 105.018 33.7687Z" fill="#F68DFE"/>
<path d="M103.66 146.649C103.665 149.362 102.495 152.006 100.789 154.113C99.0852 156.222 96.7745 157.804 94.2489 158.78C91.4109 159.877 87.6491 160.082 84.8709 158.84L84.6848 158.809C84.913 157.444 85.4048 156.16 86.2999 155.082C86.7496 155.204 87.2082 155.286 87.669 155.329C90.1747 155.555 92.7712 154.624 94.6876 152.957C96.9562 150.984 98.1769 148.433 98.6266 145.455C98.1636 144.289 97.8844 143.049 97.798 141.798C97.6895 140.189 97.8977 138.589 98.2101 137L98.3984 137.035C99.5172 136.117 100.676 135.233 101.87 134.382L101.917 134.446C101.888 139.911 103.653 143.62 103.66 146.649Z" fill="#0185FF"/>
<path d="M101.07 112.206C101.263 113.786 101.345 115.371 101.336 116.955C101.329 119.02 101.17 121.084 100.911 123.144C100.556 125.969 100.013 128.782 99.4086 131.573L99.2845 131.546C97.8157 130.806 95.8107 129.584 95.3255 128.009C95.1483 127.433 95.1417 126.82 95.1483 126.218C95.1882 122.973 95.5559 119.733 96.2405 116.562C96.3535 116.042 96.4798 115.513 96.7634 115.064C97.0447 114.622 97.4612 114.286 97.8844 113.978C98.6332 113.429 99.978 112.686 100.795 112.251L101.07 112.206Z" fill="#0164BF"/>
<path d="M98.8681 133.035L99.0764 133.082C98.959 133.6 98.8415 134.118 98.7241 134.633C98.5447 135.418 98.3652 136.206 98.2101 137C97.8978 138.589 97.6895 140.189 97.7981 141.798C97.8845 143.049 98.1636 144.289 98.6266 145.455C98.1769 148.433 96.9562 150.984 94.6876 152.958C92.7712 154.624 90.1747 155.555 87.6691 155.329L87.6868 155.075C87.2171 152.88 86.4927 151.138 85.1833 149.662C83.8762 148.189 81.7605 146.964 79.7932 146.92C78.6633 146.893 77.5733 147.235 76.6073 147.82L76.583 147.78C76.5918 147.74 76.2307 146.453 76.244 145.32C76.2706 143.311 76.6494 141.689 77.2875 140.251L77.3451 140.146C78.7142 140.889 80.0612 141.689 81.3617 142.538C83.1983 143.733 84.9441 145.022 86.537 146.384C86.9601 146.742 87.37 147.106 87.7688 147.475C88.3891 148.049 88.9961 148.638 89.6674 149.151C89.9044 149.331 90.1636 149.506 90.4583 149.54C91.0941 149.611 91.6258 148.962 91.6746 148.322C91.7632 147.215 90.9989 145.866 90.5646 144.889C90.3276 144.353 90.075 143.824 89.807 143.302C89.4503 142.6 89.067 141.911 88.666 141.233C87.6912 139.589 86.6034 138.013 85.458 136.484C84.9507 135.804 84.4323 135.135 83.905 134.471C83.6369 134.131 83.3667 133.793 83.0919 133.46L83.2293 133.349C84.3016 132.613 86.0075 131.946 87.2969 131.775C89.7604 132.795 92.0091 134.1 94.2467 135.551C93.3849 134.002 92.4478 132.633 91.3622 131.235C93.7571 131.142 97.0692 131.938 98.8681 133.035Z" fill="#FBCCFF"/>
<path d="M90.5645 144.889C90.9988 145.866 91.7631 147.215 91.6745 148.322C91.6257 148.962 91.094 149.611 90.4582 149.54C90.1635 149.506 89.9043 149.331 89.6673 149.151C88.996 148.638 88.389 148.049 87.7687 147.475C87.3699 147.106 86.96 146.742 86.5369 146.384L86.6166 146.291C86.8271 144.409 88.389 143.362 89.5897 143.415L89.8069 143.302C90.0749 143.824 90.3275 144.353 90.5645 144.889Z" fill="#FF7101"/>
<path d="M77.5422 196.609C77.5089 196.635 77.4757 196.657 77.4425 196.68C76.1442 197.56 74.4516 197.949 72.9695 197.435C71.4851 196.922 69.9365 195.153 70.5613 192.722L70.5059 192.602C70.1714 192.762 69.8236 192.906 69.4669 193.035C68.3414 193.444 66.5934 193.791 65.4791 193.349C63.9305 192.735 63.0354 190.846 63.2814 189.195C63.5273 187.542 64.6062 186.122 65.8756 185.04C67.1451 183.957 68.6184 183.149 69.9853 182.193C71.35 181.237 73.18 180.02 73.9244 178.526C75.3312 175.702 74.476 172.246 74.0019 169.742C73.1334 165.149 71.8108 161.7 72.1254 157.035C72.2849 154.689 72.7834 152.386 74.0263 150.391C74.671 149.358 75.5682 148.449 76.6073 147.82C77.5732 147.235 78.6632 146.893 79.7931 146.92C81.7604 146.964 83.8761 148.189 85.1832 149.662C86.4926 151.137 87.217 152.88 87.6867 155.075L87.669 155.329C87.2082 155.286 86.7496 155.204 86.2998 155.082C85.4048 156.16 84.913 157.444 84.6848 158.809C84.5031 159.895 84.4854 161.031 84.5629 162.151C84.5806 162.446 84.6072 162.74 84.6382 163.031C84.8952 165.431 85.4225 167.971 87.1262 169.675L87.1395 169.662C88.1054 170.14 89.0514 170.56 89.9775 170.933L89.9531 170.995C90.3452 178.526 90.0506 184.635 88.8276 189.562C88.0057 192.877 86.6609 196.477 83.9337 198.526C82.9767 199.244 81.7604 199.473 80.5707 199.389C79.381 199.304 77.9897 198.133 77.6773 196.8L77.5422 196.609Z" fill="#F68DFE"/>
<path d="M89.8068 143.302L89.5897 143.415C88.3889 143.362 86.827 144.409 86.6166 146.291L86.5368 146.384C84.9439 145.022 83.1981 143.733 81.3615 142.537L81.4036 142.473C81.0492 140.531 82.0594 138.049 83.7498 137.035C84.1641 136.786 85.1256 136.384 85.418 136.513L85.4579 136.484C86.6033 138.013 87.6911 139.589 88.6659 141.233C89.0669 141.911 89.4501 142.6 89.8068 143.302Z" fill="#FF7101"/>
<path d="M85.4579 136.484L85.418 136.513C85.1256 136.384 84.1641 136.786 83.7498 137.035C82.0594 138.049 81.0492 140.531 81.4037 142.473L81.3616 142.537C80.0611 141.689 78.7141 140.889 77.345 140.146C76.944 139.926 76.5385 139.713 76.1331 139.504L76.1929 139.389C75.5217 137.831 75.3887 135.517 76.0356 133.951C76.6825 132.382 78.2777 130.762 79.9459 130.291L80.0899 130.142C81.1644 131.173 82.1458 132.3 83.0918 133.46C83.3665 133.793 83.6368 134.131 83.9049 134.471C84.4322 135.135 84.9506 135.804 85.4579 136.484Z" fill="#FF7101"/>
<path d="M85.1058 45.4287C85.1767 45.4642 85.2099 45.522 85.1301 45.522C79.5428 45.4376 74.1171 43.0109 69.9477 39.2798C69.6198 38.9865 69.303 38.6843 68.9928 38.3754L68.8843 38.2643C69.0017 38.1509 69.1191 38.0354 69.2343 37.9198C69.54 37.6131 70.4838 36.4865 70.0939 35.7798C69.6752 35.0243 69.3894 34.4465 68.7646 33.742C68.3947 33.3265 68.1066 32.7709 67.5904 32.5643C66.8084 32.2509 65.4769 32.922 65.2443 33.4287L65.1778 33.4687C63.5162 30.7643 62.218 27.7265 61.179 24.5132L61.2144 24.3732C64.4091 25.2443 67.4088 26.8132 70.167 28.6732C76.5098 32.9487 81.5898 38.6198 85.1058 45.4287Z" fill="#CF4CD9"/>
<path d="M82.8437 77.6265L82.8637 77.6376C82.7263 79.042 82.2323 80.2042 81.4436 81.2087L81.3527 81.1376C80.0611 81.1331 78.7762 81.4398 77.6131 81.9998L77.6086 81.7709C77.8767 81.0776 78.2378 80.4198 78.6765 79.8198L78.6676 79.6931C79.3965 79.6442 80.1165 79.4887 80.7989 79.2265C81.623 78.9087 82.4272 78.4065 82.8437 77.6265Z" fill="#FED607"/>
<path d="M79.8352 129.895C79.9216 129.975 80.0058 130.058 80.09 130.142L79.946 130.291C78.2777 130.762 76.6826 132.382 76.0357 133.951C75.3888 135.518 75.5217 137.831 76.193 139.389L76.1332 139.504C74.1415 138.478 72.1166 137.573 70.1271 136.818L70.1449 136.773C69.2587 134.786 69.0061 132.782 69.3628 130.866C69.7195 128.949 71.1883 126.578 73.7427 125.742L73.7715 125.682C75.6436 126.609 77.4004 127.773 78.9889 129.138C79.2769 129.382 79.5583 129.635 79.8352 129.895Z" fill="#FF7101"/>
<path d="M61.2144 134.931L60.7004 135.038C58.6888 135.535 56.5553 134.224 55.5406 132.413C55.3501 132.073 55.1928 131.72 55.0621 131.355L54.8428 131.438C53.4936 131.5 52.2086 130.671 51.4576 129.542C50.7065 128.415 50.4252 127.033 50.372 125.678C50.2502 122.582 51.2781 119.438 53.2809 117.08C53.385 116.958 53.4914 116.838 53.6021 116.72C55.5872 114.611 58.7154 113.22 61.9477 113.435C62.0208 113.44 62.0939 113.446 62.1693 113.453H62.3266C64.9895 118.549 70.362 121.86 76.0978 121.886C76.1088 121.873 76.1177 121.862 76.1288 121.849L76.3481 122.029C78.7984 122.971 80.2584 126.213 79.1639 128.931L78.9889 129.138C77.4004 127.773 75.6436 126.609 73.7715 125.682C73.6342 125.611 73.4968 125.544 73.3572 125.48C72.6527 125.146 70.7497 124.36 68.7469 123.671L68.6915 123.611C67.0831 125.095 65.9377 127.084 65.457 129.224C65.1446 130.622 65.118 132.118 65.6253 133.458C66.1327 134.795 67.7167 136.062 69.1036 136.409L69.1678 136.522C68.1377 137.9 66.1571 138.36 64.5221 137.831C63.0931 137.371 61.9433 136.258 61.2144 134.931Z" fill="#F68DFE"/>
<path d="M78.6676 79.6932L78.6765 79.8198C78.2378 80.4198 77.8767 81.0776 77.6087 81.7709L77.6131 81.9998C76.4544 82.5576 75.4176 83.3643 74.6134 84.3709L74.6089 84.5487C74.4406 84.5487 74.2722 84.5421 74.1038 84.5265L74.1171 84.3398C73.7028 82.7843 73.6231 81.1398 73.8845 79.551C74.27 79.2998 74.6333 79.1087 74.939 78.9954C75.1717 79.1043 75.4109 79.2021 75.6546 79.2887C76.6161 79.6309 77.6485 79.7665 78.6676 79.6932Z" fill="#FED607"/>
<path d="M77.3384 94.002L77.3783 94.0576C76.3769 94.7754 75.4221 95.5598 74.5093 96.3953L74.3675 96.2509C72.9452 95.0154 71.4409 93.0842 70.6079 91.1509L70.6655 91.1265C72.3072 92.3576 74.1482 93.1976 76.193 93.062L76.2174 93.0376C76.5719 93.3887 76.9485 93.7109 77.3384 94.002Z" fill="#FED607"/>
<path d="M73.6718 89.1042L73.8712 89.0576C73.9598 89.4442 74.0795 89.8176 74.2235 90.1665C74.6665 91.2331 75.3777 92.2109 76.2174 93.0376L76.193 93.062C74.1481 93.1976 72.3071 92.3576 70.6655 91.1265L70.6079 91.1509C70.3331 90.5131 70.1315 89.8731 70.0296 89.2576C69.8036 87.8843 69.8036 86.4376 70.0917 85.0709L70.1138 85.0754C70.8161 86.7598 72.0878 88.202 73.6718 89.1042Z" fill="#FED607"/>
<path d="M74.166 85.1554L74.1594 85.1665C73.6121 86.3087 73.5723 87.7576 73.8713 89.0576L73.672 89.1043C72.0879 88.202 70.8162 86.7598 70.114 85.0754L70.0918 85.0709C70.32 83.9687 70.7365 82.9176 71.3679 81.9954C72.0702 80.9732 73.0317 80.1087 73.8846 79.5509C73.6232 81.1398 73.703 82.7843 74.1173 84.3398L74.104 84.5265C73.8027 84.5065 73.5014 84.4665 73.2045 84.4109C73.4992 84.6843 73.8226 84.9332 74.166 85.1554Z" fill="#FED607"/>
<path d="M73.3572 125.48C73.4968 125.544 73.6342 125.611 73.7715 125.682L73.7427 125.742C71.1883 126.578 69.7195 128.949 69.3628 130.866C69.0061 132.782 69.2587 134.786 70.1448 136.773L70.1271 136.818C69.8546 136.713 69.5821 136.611 69.3118 136.513L69.1678 136.522L69.1036 136.409C67.7167 136.062 66.1327 134.795 65.6253 133.458C65.118 132.118 65.1446 130.622 65.457 129.224C65.9377 127.084 67.0831 125.095 68.6915 123.611L68.7469 123.671C70.7497 124.36 72.6527 125.146 73.3572 125.48Z" fill="#FF7101"/>
<path d="M59.7102 39.3887C61.9655 38.0443 64.079 36.4665 66.0087 34.6865L65.8359 34.4976C65.6099 34.1598 65.3906 33.8176 65.1779 33.4687L65.2443 33.4287C65.477 32.9221 66.8084 32.2509 67.5905 32.5643C68.1067 32.7709 68.3947 33.3265 68.7647 33.7421C69.3894 34.4465 69.6752 35.0243 70.0939 35.7798C70.4839 36.4865 69.5401 37.6132 69.2344 37.9198C69.1191 38.0354 69.0017 38.1509 68.8843 38.2643C66.8616 40.2354 64.5642 41.922 62.0807 43.2598C61.8436 43.3865 61.6066 43.5109 61.3673 43.6309C60.9065 43.8643 60.3969 44.0909 59.8874 43.9932C59.3424 43.8865 58.9414 43.4332 58.5825 43.0087C58.0242 42.3465 57.4659 41.6465 57.2466 40.8087C56.9564 39.702 58.0419 38.7954 58.8328 38.4465L59.1076 38.2998C59.2715 38.6109 59.4399 38.922 59.6149 39.2309L59.7102 39.3887Z" fill="#FED607"/>
<path d="M57.231 29.7421C58.547 29.7421 59.6148 30.8132 59.6148 32.1332C59.6148 33.4532 58.609 34.4621 57.3462 34.5243C57.3085 34.5265 57.2709 34.5265 57.231 34.5265C55.9128 34.5265 54.845 33.4554 54.845 32.1332C54.845 31.3843 55.1884 30.7154 55.7267 30.2754C56.1366 29.9421 56.6616 29.7421 57.231 29.7421Z" fill="#FED607"/>
<path d="M53.518 116.642L53.6022 116.72C53.4914 116.838 53.3851 116.958 53.2809 117.08C51.2782 119.438 50.2502 122.582 50.3721 125.678C50.4252 127.033 50.7066 128.415 51.4576 129.542L51.2228 129.558C50.4319 129.686 49.1381 129.244 48.5643 128.564C48.0458 127.951 47.6759 127.009 47.574 126.213C47.5252 125.838 47.4942 125.469 47.4765 125.109C47.4477 124.54 47.4565 123.986 47.5031 123.438C47.5496 122.826 47.6382 122.222 47.7623 121.611C47.8686 121.082 48.0015 120.549 48.1588 120L48.1987 119.86C48.3095 119.484 48.4712 119.1 48.6773 118.731C49.1292 117.926 49.7872 117.198 50.5449 116.8C51.6127 116.238 52.5897 116.38 53.518 116.642Z" fill="#FF7101"/>
<path d="M48.511 118.631L48.6771 118.731C48.4711 119.1 48.3094 119.484 48.1986 119.86L48.1587 120L47.9394 119.937C40.9541 118.429 31.7267 118.422 25.9599 118.649C25.4305 118.669 24.8899 118.649 24.3958 118.462C23.9749 118.302 23.5872 117.98 23.441 117.562C23.4122 117.491 23.3945 117.418 23.3834 117.34C23.3147 116.851 23.5806 116.362 23.9616 116.049C24.3405 115.738 24.8057 115.529 25.2887 115.438C30.3709 114.5 40.1189 115.702 48.511 118.631Z" fill="#03D47C"/>
<path d="M47.9394 119.938L48.1588 120C48.0015 120.549 47.8686 121.082 47.7622 121.611H47.5739C45.0749 121.104 40.8412 120.62 38.2956 120.513C31.4277 120.222 21.2145 120.315 12.8557 121.46V121.453C11.7103 120.931 12.078 119.618 12.5211 119.102C12.9642 118.589 13.6067 118.258 14.2691 118.115C16.9742 117.533 20.4746 117.531 23.3857 117.584L23.4411 117.562C23.5873 117.98 23.975 118.302 24.3959 118.462C24.89 118.649 25.4305 118.669 25.96 118.649C31.7268 118.422 40.9542 118.429 47.9394 119.938Z" fill="#03D47C"/>
<path d="M47.5739 121.611H47.7622C47.6381 122.222 47.5495 122.826 47.503 123.437L47.4099 123.431C37.5778 121.813 28.1134 121.697 18.6424 124.8C17.4128 125.202 16.2519 125.577 15.1819 126.211L15.1508 126.16C9.72964 126.891 7.76898 128.002 4.82465 128.475C3.47544 128.693 1.78949 128.733 1.08719 127.557C0.61752 126.773 0.84128 125.715 1.41065 125C1.98002 124.286 2.81746 123.829 3.67262 123.515C6.14505 122.611 9.33751 121.942 12.8556 121.46C21.2145 120.315 31.4277 120.222 38.2956 120.513C40.8411 120.62 45.0749 121.104 47.5739 121.611Z" fill="#03D47C"/>
<path d="M47.4099 123.431L47.503 123.438C47.4565 123.986 47.4476 124.54 47.4764 125.109L47.3656 125.113C41.6321 124.329 37.4161 124.04 31.41 125.338C26.8285 126.329 22.4906 128.195 18.0907 129.815C16.983 130.222 16.715 130.391 15.5674 130.658C14.7078 130.855 13.6532 130.92 13.0971 130.233C12.756 129.811 12.7161 129.202 12.8867 128.689C13.0595 128.173 13.4494 127.573 13.846 127.206C14.2735 126.809 14.7188 126.486 15.1819 126.211C16.2519 125.578 17.4128 125.202 18.6424 124.8C28.1134 121.698 37.5778 121.813 47.4099 123.431Z" fill="#03D47C"/>
<path d="M157.699 68.4932C156.104 55.0043 161.002 43.3621 169.197 41.9177C177.891 40.3866 186.996 50.9065 189.537 65.4176C192.081 79.9265 187.094 92.9309 178.403 94.4621C171.774 95.6309 164.904 89.7887 160.89 80.5154" stroke="#002140" stroke-linecap="round" stroke-linejoin="round"/>
<path d="M155.222 52.5443C157.256 45.2199 161.286 39.2666 166.674 35.9821C166.698 35.9666 166.721 35.951 166.745 35.9377C166.76 35.9288 166.774 35.9199 166.789 35.911" stroke="#002140" stroke-linecap="round" stroke-linejoin="round"/>
<path d="M154.361 71.3731C153.268 64.7065 153.643 58.2576 155.202 52.6176" stroke="#002140" stroke-linecap="round" stroke-linejoin="round"/>
<path d="M154.801 73.6909C154.797 73.6731 154.795 73.6554 154.79 73.6376C154.666 73.0598 154.553 72.4776 154.449 71.8887C154.427 71.7665 154.407 71.6443 154.387 71.5243" stroke="#002140" stroke-linecap="round" stroke-linejoin="round"/>
<path d="M173.927 33.3732C187.377 31.511 200.736 44.6688 203.975 63.1599C205.294 70.6888 204.735 77.9576 202.715 84.1243C202.464 84.8887 202.19 85.6376 201.895 86.3665H201.893C201.476 87.4043 201.013 88.4021 200.508 89.3598C200.103 90.1265 199.671 90.8687 199.212 91.5798H199.21C195.8 96.8887 190.957 100.549 185.177 101.569C177.9 102.851 170.6 99.6887 164.866 93.6176C163.703 92.3865 162.602 91.0332 161.581 89.5732" stroke="#002140" stroke-linecap="round" stroke-linejoin="round"/>
<path d="M154.777 73.5065C154.633 72.8532 154.504 72.1931 154.387 71.5243C154.387 71.5243 154.387 71.5176 154.387 71.5154C154.378 71.4687 154.372 71.4198 154.363 71.3732C153.928 68.842 153.709 66.3532 153.691 63.9376C153.658 59.8821 154.19 56.0443 155.205 52.6176C155.209 52.5932 155.218 52.5687 155.225 52.5443C157.586 44.6065 162.531 38.8776 169.027 37.7332C180.04 35.7932 191.341 47.7687 194.27 64.4865C197.198 81.202 190.643 96.3265 179.63 98.2687C172.565 99.5153 165.484 95.2065 160.471 87.4176C160.457 87.3998 160.444 87.3798 160.433 87.362" stroke="#002140" stroke-linecap="round" stroke-linejoin="round"/>
<path d="M173.814 64.8221C174.86 65.0355 175.817 66.2355 176.092 67.8155C176.422 69.6977 175.664 71.4044 174.397 71.6266C173.132 71.8488 171.838 70.5044 171.508 68.6244C171.335 67.6332 171.464 66.6932 171.809 65.991C172.009 65.5821 172.281 65.2555 172.609 65.0466C172.791 64.931 172.99 64.851 173.205 64.8132C173.409 64.7777 173.613 64.7821 173.814 64.8221Z" stroke="#002140" stroke-linecap="round" stroke-linejoin="round"/>
<path d="M166.583 35.9643C166.583 35.9643 166.614 35.971 166.674 35.9821C166.698 35.9866 166.729 35.991 166.765 35.9954C167.489 36.0954 170.314 36.2666 173.985 33.6621" stroke="#002140" stroke-linecap="round" stroke-linejoin="round"/>
<path d="M166.791 36.0688L166.765 35.9955L166.745 35.9377L165.65 32.8466L165.644 32.8266" stroke="#002140" stroke-linecap="round" stroke-linejoin="round"/>
<path d="M173.985 33.5577L173.923 33.3755L172.915 30.3688" stroke="#002140" stroke-linecap="round" stroke-linejoin="round"/>
<path d="M170.919 27.911L172.649 27.2532C173.353 26.9866 174.149 27.3443 174.415 28.051C174.474 28.2088 174.503 28.3732 174.503 28.5332C174.503 29.0866 174.167 29.6132 173.619 29.8199L172.822 30.1221L165.65 32.8466L164.828 33.1599C164.126 33.4266 163.331 33.0688 163.065 32.3621C163.005 32.2043 162.976 32.0399 162.976 31.8799C162.976 31.3243 163.313 30.7999 163.86 30.5932L165.234 30.071L167.615 29.1666L168.094 28.9843L168.577 28.7999L170.919 27.911Z" stroke="#002140" stroke-linecap="round" stroke-linejoin="round"/>
<path d="M160.624 13.0888L155.094 14.9843L154.901 15.051L153.082 21.4021L157.806 19.7821L160.123 18.9865L160.67 18.7999L163.24 17.9177" stroke="#002140" stroke-linecap="round" stroke-linejoin="round"/>
<path d="M165.143 29.831L153.082 21.4021" stroke="#002140" stroke-linecap="round" stroke-linejoin="round"/>
<path d="M167.531 28.9443L157.872 19.9732" stroke="#002140" stroke-linecap="round" stroke-linejoin="round"/>
<path d="M155.127 15.0799L160.023 18.6977" stroke="#002140" stroke-linecap="round" stroke-linejoin="round"/>
<path d="M162.232 12.6443L160.57 18.5088" stroke="#002140" stroke-linecap="round" stroke-linejoin="round"/>
<path d="M160.624 13.0888L162.199 12.5488L162.682 12.3821L164.257 11.8421L169.787 9.94657L169.979 9.87991L175.296 13.7821L170.569 15.4043L168.256 16.1977L167.709 16.3843L165.136 17.2666L164.204 17.5866L163.24 17.9177" stroke="#002140" stroke-linecap="round" stroke-linejoin="round"/>
<path d="M170.901 27.8643L175.297 13.7821" stroke="#002140" stroke-linecap="round" stroke-linejoin="round"/>
<path d="M168.486 28.5577L170.635 15.5977" stroke="#002140" stroke-linecap="round" stroke-linejoin="round"/>
<path d="M169.82 10.0421L168.156 15.9066" stroke="#002140" stroke-linecap="round" stroke-linejoin="round"/>
<path d="M162.715 12.4799L167.609 16.0955" stroke="#002140" stroke-linecap="round" stroke-linejoin="round"/>
<path d="M164.303 17.8777L168.039 28.8377" stroke="#002140" stroke-linecap="round" stroke-linejoin="round"/>
<path d="M172.525 64.8798L170.179 50.5265L167.13 50.8398L170.179 43.7798L170.817 44.6554L173.387 48.1821L174.636 49.8976L171.508 50.2909L173.854 64.6443" stroke="#002140" stroke-linecap="round" stroke-linejoin="round"/>
<path d="M171.665 65.9777L164.549 56.4866L162.985 58.0555L161.266 51.7021L166.973 53.8977L165.487 55.5466L172.501 64.8977L172.603 65.0355" stroke="#002140" stroke-linecap="round" stroke-linejoin="round"/>
<path d="M187.43 66.2665C187.681 67.6976 187.103 68.9976 186.141 69.1665C185.177 69.3376 184.192 68.3132 183.941 66.8821C183.691 65.4487 184.269 64.151 185.233 63.9821C186.194 63.811 187.18 64.8354 187.43 66.2665Z" stroke="#002140" stroke-linecap="round" stroke-linejoin="round"/>
<path d="M178.766 89.6687C179.016 91.1021 178.438 92.3998 177.474 92.5687C176.513 92.7398 175.527 91.7154 175.277 90.2843C175.026 88.8532 175.602 87.5532 176.566 87.3843C177.53 87.2154 178.513 88.2376 178.766 89.6687Z" stroke="#002140" stroke-linecap="round" stroke-linejoin="round"/>
<path d="M170.868 44.6177C170.988 44.551 171.114 44.5065 171.249 44.4821C172.213 44.3132 173.196 45.3354 173.449 46.7665C173.533 47.2577 173.522 47.731 173.433 48.1488" stroke="#002140" stroke-linecap="round" stroke-linejoin="round"/>
<path d="M183.93 57.6621C184.065 58.4332 183.755 59.131 183.237 59.2221C182.718 59.3132 182.189 58.7621 182.056 57.9932C181.921 57.2221 182.231 56.5243 182.749 56.4332C183.265 56.3421 183.795 56.8932 183.93 57.6621Z" stroke="#002140" stroke-linecap="round" stroke-linejoin="round"/>
<path d="M179.679 50.6754C179.814 51.4443 179.504 52.1421 178.985 52.2332C178.467 52.3243 177.937 51.7754 177.804 51.0043C177.669 50.2354 177.979 49.5376 178.498 49.4465C179.014 49.3554 179.543 49.9043 179.679 50.6754Z" stroke="#002140" stroke-linecap="round" stroke-linejoin="round"/>
<path d="M166.151 80.6354C166.286 81.4043 165.976 82.1021 165.458 82.1932C164.939 82.2865 164.412 81.7354 164.277 80.9665C164.142 80.1954 164.452 79.4976 164.97 79.4065C165.486 79.3154 166.016 79.8643 166.151 80.6354Z" stroke="#002140" stroke-linecap="round" stroke-linejoin="round"/>
<path d="M170.531 86.2043C170.664 86.9732 170.354 87.671 169.838 87.7621C169.319 87.8532 168.79 87.3043 168.655 86.5332C168.52 85.7643 168.83 85.0665 169.348 84.9754C169.867 84.8843 170.396 85.4332 170.531 86.2043Z" stroke="#002140" stroke-linecap="round" stroke-linejoin="round"/>
<path d="M184.291 83.8509C184.426 84.6198 184.116 85.3176 183.598 85.4109C183.082 85.502 182.552 84.9509 182.417 84.182C182.282 83.4109 182.592 82.7131 183.11 82.622C183.629 82.5309 184.156 83.0798 184.291 83.8509Z" stroke="#002140" stroke-linecap="round" stroke-linejoin="round"/>
<path d="M187.107 75.7732C187.242 76.5421 186.932 77.2399 186.414 77.331C185.895 77.4221 185.366 76.8732 185.23 76.1021C185.098 75.3332 185.408 74.6354 185.924 74.5443C186.442 74.4532 186.972 75.0021 187.107 75.7732Z" stroke="#002140" stroke-linecap="round" stroke-linejoin="round"/>
<path d="M162.163 61.891C162.298 62.6599 161.988 63.3576 161.47 63.4487C160.951 63.5399 160.424 62.991 160.289 62.2199C160.154 61.451 160.464 60.7532 160.982 60.6621C161.499 60.571 162.028 61.1199 162.163 61.891Z" stroke="#002140" stroke-linecap="round" stroke-linejoin="round"/>
<path d="M165.761 50.0466C165.896 50.8177 165.584 51.5154 165.068 51.6066C164.549 51.6977 164.02 51.1466 163.885 50.3777C163.75 49.6066 164.06 48.9088 164.578 48.8177C165.097 48.7266 165.626 49.2777 165.761 50.0466Z" stroke="#002140" stroke-linecap="round" stroke-linejoin="round"/>
<path d="M105.714 47.5688C108.191 49.2799 109.815 52.1443 109.815 55.3888C109.815 56.0777 109.742 56.751 109.602 57.3999C109.46 58.0599 109.25 58.6932 108.979 59.2932C107.495 62.5888 104.19 64.8799 100.353 64.8799C95.1285 64.8799 90.8926 60.631 90.8926 55.3888C90.8926 50.1465 95.1285 45.8977 100.353 45.8977C101.349 45.8977 102.311 46.0532 103.213 46.3399C104.112 46.6243 104.954 47.0421 105.714 47.5688Z" stroke="#002140" stroke-linecap="round" stroke-linejoin="round"/>
<path d="M109.489 57.3754C108.8 57.711 108.027 57.8977 107.209 57.8977C105.326 57.8977 103.68 56.9065 102.756 55.411C102.75 55.4043 102.745 55.3954 102.741 55.3888" stroke="#002140" stroke-linecap="round" stroke-linejoin="round"/>
<path d="M101.97 52.6443C101.97 50.2732 103.532 48.271 105.681 47.6154" stroke="#002140" stroke-linecap="round" stroke-linejoin="round"/>
<path d="M102.789 55.3887L105.37 53.271L101.97 52.6443" stroke="#002140" stroke-linecap="round" stroke-linejoin="round"/>
<path d="M92.0488 47.0687C92.2416 45.6776 92.6736 44.3176 93.3205 43.071C93.8566 42.0376 94.5877 41.0398 95.6445 40.5576C96.5063 40.1621 97.5365 40.1599 98.4005 40.5487C99.2645 40.9399 99.9469 41.7154 100.224 42.6243" stroke="#002140" stroke-linecap="round" stroke-linejoin="round"/>
<path d="M103.244 46.2399C104.766 43.751 107.506 42.0887 110.632 42.0887C112.453 42.0887 114.146 42.6532 115.542 43.6176C117.808 45.1865 119.295 47.8087 119.295 50.7776C119.295 51.411 119.228 52.0265 119.1 52.6198C118.258 56.5354 114.786 59.4665 110.632 59.4665C110.12 59.4665 109.62 59.4221 109.135 59.3376" stroke="#002140" stroke-linecap="round" stroke-linejoin="round"/>
<path d="M118.997 52.5976C118.366 52.9043 117.657 53.0754 116.908 53.0754C115.187 53.0754 113.678 52.1688 112.83 50.7999C112.825 50.7932 112.821 50.7843 112.816 50.7776" stroke="#002140" stroke-linecap="round" stroke-linejoin="round"/>
<path d="M112.112 48.2643C112.112 46.0954 113.543 44.2621 115.511 43.6621" stroke="#002140" stroke-linecap="round" stroke-linejoin="round"/>
<path d="M112.863 50.7776L115.225 48.8399L112.112 48.2643" stroke="#002140" stroke-linecap="round" stroke-linejoin="round"/>
<path d="M103.029 43.162C103.206 41.8865 103.6 40.6421 104.194 39.4998C104.684 38.5532 105.353 37.6421 106.321 37.1998C107.11 36.8376 108.053 36.8354 108.844 37.1909C109.635 37.5487 110.26 38.2598 110.515 39.0909" stroke="#002140" stroke-linecap="round" stroke-linejoin="round"/>
<path d="M125.899 63.5176C126.067 64.0732 126.156 64.6621 126.156 65.271C126.156 65.4976 126.142 65.7198 126.118 65.9398C125.788 69.0043 123.2 71.3887 120.059 71.3887C117.894 71.3887 115.993 70.2576 114.91 68.551C114.449 67.8265 114.137 66.9954 114.017 66.1021C113.98 65.831 113.96 65.5532 113.96 65.271C113.96 61.8932 116.689 59.1532 120.059 59.1532C122.819 59.1532 125.15 60.9932 125.899 63.5176Z" stroke="#002140" stroke-linecap="round" stroke-linejoin="round"/>
<path d="M125.713 63.5709C125.254 63.7443 124.826 63.8843 124.346 64.2598C123.958 64.5643 123.728 65.0598 123.712 65.5532C123.703 65.8265 123.785 66.1243 124.009 66.282C124.31 66.4954 124.725 66.3732 125.07 66.2443C125.36 66.1354 125.653 66.0265 125.943 65.9176" stroke="#002140" stroke-linecap="round" stroke-linejoin="round"/>
<path d="M115.052 68.4599C115.586 68.5954 116.14 68.6599 116.691 68.6532C117.212 68.6443 117.835 68.4954 118.007 67.9999C118.145 67.6088 117.912 67.1621 117.573 66.9243C117.234 66.6866 116.813 66.6066 116.406 66.531C115.617 66.3866 114.828 66.2443 114.04 66.0999" stroke="#002140" stroke-linecap="round" stroke-linejoin="round"/>
<path d="M70.2732 0.524338C71.2657 2.44656 72.6415 3.75989 74.2854 4.91989C81.7248 10.1665 90.6664 13.3243 97.151 19.7199C101.354 23.8643 103.769 27.991 105.018 33.7687" stroke="#002140" stroke-linecap="round" stroke-linejoin="round"/>
<path d="M65.6497 2.82663C68.0623 5.44663 69.3229 8.9044 70.4771 12.28C71.8175 16.2044 73.0958 20.1533 74.3719 24.1022" stroke="#002140" stroke-linecap="round" stroke-linejoin="round"/>
<path d="M86.8162 34.6776C88.8366 30.6621 91.8364 27.1488 95.483 24.5332C94.907 25.2799 94.7231 26.1532 94.4661 27.0599C93.8546 29.2265 93.2387 31.4132 93.1169 33.6599C94.9336 30.6688 97.2731 27.9754 99.9139 25.6865C99.3667 28.5776 99.1119 31.5865 99.2204 34.5265C101.108 34.0821 103.06 33.9376 104.994 34.0799C109.405 34.3954 113.723 36.1776 116.964 39.1888C119.685 41.7154 121.634 44.9643 124.22 47.631C124.849 48.2799 125.516 48.8932 126.213 49.4643C126.641 49.8154 127.08 50.151 127.529 50.471C128.136 50.9021 128.77 51.3087 129.439 51.6376C129.991 51.9132 130.567 52.1332 131.167 52.2732C132.492 52.5821 133.965 52.4598 135.095 51.6976C136.225 50.9354 136.914 49.4665 136.544 48.151C137.486 49.6687 137.703 51.6354 137.138 53.331C136.575 55.0265 135.385 56.4687 133.954 57.5354C133.267 58.0465 132.521 58.4798 131.717 58.7754C134.052 59.4532 136.799 58.5354 138.724 57.0487C139.573 56.391 140.359 55.5176 140.468 54.4465C141.101 56.8687 140.419 59.4465 138.815 61.3643C137.211 63.2843 134.849 64.4776 132.395 64.9376C134.054 65.8198 136.128 65.4154 137.922 64.8621C139.495 64.3754 141.079 63.5754 141.914 62.1554C141.974 64.9665 140.977 67.6843 139.156 69.8221C137.335 71.9576 134.714 73.3909 131.936 73.7687" stroke="#002140" stroke-linecap="round" stroke-linejoin="round"/>
<path d="M65.479 2.68659C65.5433 2.70659 65.6097 2.72659 65.6762 2.74659C68.2217 3.54659 71.3389 5.57992 71.4341 5.57992C70.8825 3.9377 70.4615 2.25103 70.1802 0.539922C70.1669 0.471033 70.1558 0.402145 70.1447 0.333256" stroke="#002140" stroke-linecap="round" stroke-linejoin="round"/>
<path d="M52.5365 16.0088C52.2839 15.7377 50.485 12.1043 49.9976 9.97767C51.7965 12.4088 53.4935 13.8599 55.8131 15.2221C57.8513 16.4177 60.0557 17.2954 62.2335 18.211C66.3763 19.9532 70.4793 21.8643 74.3165 24.1932C76.1775 25.3221 77.9786 26.5532 79.689 27.9088C82.2411 29.9332 84.5939 32.2665 86.5635 34.8688C88.6327 37.5976 90.2788 40.6221 91.2979 43.8932" stroke="#002140" stroke-linecap="round" stroke-linejoin="round"/>
<path d="M52.5388 16.011C52.5388 16.011 52.5499 16.0199 52.5565 16.0243C52.5521 16.0243 52.5455 16.0176 52.5388 16.011Z" stroke="#002140" stroke-linecap="round" stroke-linejoin="round"/>
<path d="M52.5386 16.011L52.5364 16.0088" stroke="#002140" stroke-linecap="round" stroke-linejoin="round"/>
<path d="M46.9492 13.7421C49.0605 14.1221 50.8683 14.6599 52.5366 16.0088" stroke="#002140" stroke-linecap="round" stroke-linejoin="round"/>
<path d="M62.1404 43.371C66.507 49.1043 73.3284 53.0332 80.4732 53.3821C81.0005 53.4087 81.5277 53.4132 82.0572 53.3999" stroke="#002140" stroke-linecap="round" stroke-linejoin="round"/>
<path d="M57.3484 34.6044C57.8867 35.8488 58.4628 37.0799 59.1075 38.2999C59.2714 38.611 59.4398 38.9222 59.6148 39.231" stroke="#002140" stroke-linecap="round" stroke-linejoin="round"/>
<path d="M46.9114 13.7799C50.6909 17.6354 52.8886 22.7465 54.7895 27.8065C55.0974 28.6265 55.3987 29.4376 55.7023 30.2443" stroke="#002140" stroke-linecap="round" stroke-linejoin="round"/>
<path d="M68.9927 38.3754C69.3029 38.6843 69.6197 38.9865 69.9475 39.2798C74.117 43.0109 79.5426 45.4376 85.13 45.5221C85.2097 45.5221 85.1765 45.4643 85.1056 45.4287C81.5897 38.6198 76.5097 32.9487 70.1669 28.6732C67.4086 26.8132 64.4089 25.2443 61.2143 24.3732C60.4832 24.1754 59.7432 24.0132 58.9944 23.891" stroke="#002140" stroke-linecap="round" stroke-linejoin="round"/>
<path d="M61.179 24.5132C62.218 27.7266 63.5162 30.7644 65.1778 33.4688C65.3905 33.8177 65.6098 34.1599 65.8358 34.4977" stroke="#002140" stroke-linecap="round" stroke-linejoin="round"/>
<path d="M80.4667 53.5332C81.5102 56.251 82.4606 59.9421 82.1637 62.3065C81.8691 64.6687 80.7525 66.9754 78.8849 68.4487C78.4152 68.8176 77.9012 69.1354 77.3429 69.3443C75.4376 70.0621 73.0959 69.3465 71.9128 67.6865C71.8685 70.0109 73.7273 72.0287 75.9117 72.8043C77.6641 73.4265 79.6558 73.3265 81.3374 72.5332C80.5243 74.3776 79.2305 75.6598 77.3983 76.4909C75.5639 77.3198 73.2886 77.2532 71.6448 76.0909C72.3914 77.3887 73.5811 78.3709 74.9391 78.9954C75.1718 79.1043 75.411 79.202 75.6547 79.2887C76.6162 79.6309 77.6486 79.7665 78.6677 79.6932C79.3966 79.6443 80.1166 79.4887 80.799 79.2265C81.6231 78.9087 82.4273 78.4065 82.8439 77.6265C82.8505 77.6176 82.8571 77.6065 82.8616 77.5954" stroke="#002140" stroke-linecap="round" stroke-linejoin="round"/>
<path d="M82.8637 77.6376C82.7263 79.0421 82.2323 80.2043 81.4436 81.2088C80.9562 81.8288 80.358 82.3888 79.6646 82.9088C78.2201 83.9932 76.4101 84.5688 74.6089 84.5488C74.4406 84.5488 74.2722 84.5421 74.1038 84.5265C73.8025 84.5065 73.5012 84.4665 73.2043 84.411C73.499 84.6843 73.8225 84.9332 74.1658 85.1554C75.617 86.0999 77.4403 86.5999 79.1329 86.5665C81.2287 86.5265 83.2691 85.9154 85.2386 85.1976C83.9072 88.1999 82.055 90.811 79.7377 92.5399" stroke="#002140" stroke-linecap="round" stroke-linejoin="round"/>
<path d="M117.764 88.7243C117.664 88.2176 117.598 87.7109 117.555 87.2309C117.115 82.1221 117.886 76.7132 119.459 71.8332C118.732 76.5509 118.858 81.5754 119.716 86.2709C119.727 86.1221 119.767 86.1532 119.798 86.0065C120.103 84.5598 121.791 83.6643 123.225 83.9998C124.66 84.3354 125.73 85.6776 126.005 87.1309C126.123 87.7487 126.131 88.382 126.047 89.0043C125.932 89.842 125.649 90.6576 125.219 91.3887C124.667 92.3309 123.763 93.1976 122.711 93.4798C121.264 93.8687 119.709 92.982 118.887 91.7265C118.329 90.8732 117.974 89.7976 117.764 88.7243Z" stroke="#002140" stroke-linecap="round" stroke-linejoin="round"/>
<path d="M116.558 95.4376C116.578 95.5309 116.6 95.6242 116.625 95.7153C116.924 96.8887 117.544 97.9865 118.453 98.782C118.512 98.8353 118.574 98.8865 118.636 98.9353C119.594 99.6998 120.832 100.122 122.048 100.009C122.768 99.9398 123.459 99.6953 124.104 99.3665C125.296 98.7598 126.34 97.8576 127.115 96.7642C128.274 95.1376 129.302 92.6309 129.754 90.682C130.356 88.0909 130.748 85.5042 131.021 82.902C131.338 79.882 131.495 76.842 131.63 73.7554V73.742" stroke="#002140" stroke-linecap="round" stroke-linejoin="round"/>
<path d="M107.803 103.073C107.697 102.809 107.586 102.546 107.471 102.286C107.382 102.086 107.291 101.889 107.198 101.691C106.678 100.58 106.082 99.4953 105.41 98.4642C103.182 95.0242 100.138 92.1531 96.3514 90.6931C91.7078 88.902 86.3686 89.4354 81.8292 91.4754C81.1136 91.7976 80.4179 92.1531 79.7378 92.5398C78.9247 93.0042 78.1382 93.5131 77.3783 94.0576C76.377 94.7753 75.4221 95.5598 74.5093 96.3953C73.0139 97.762 71.6337 99.2709 70.3687 100.851C67.2537 104.744 64.7702 109.1 62.3044 113.433" stroke="#002140" stroke-linecap="round" stroke-linejoin="round"/>
<path d="M62.3264 113.453C64.9894 118.549 70.3618 121.86 76.0976 121.886C76.1087 121.873 76.1176 121.862 76.1286 121.849C79.5094 117.615 84.4919 114.913 89.6628 113.329C93.3293 112.202 97.1488 111.586 100.981 111.495C101.998 111.471 103.015 111.484 104.032 111.533" stroke="#002140" stroke-linecap="round" stroke-linejoin="round"/>
<path d="M62.1693 113.453C62.0939 113.447 62.0208 113.44 61.9477 113.435C58.7154 113.22 55.5872 114.611 53.6021 116.72C53.4914 116.838 53.385 116.958 53.2809 117.08C51.2781 119.438 50.2502 122.582 50.372 125.678C50.4252 127.033 50.7065 128.415 51.4576 129.542C52.2086 130.671 53.4936 131.5 54.8428 131.438" stroke="#002140" stroke-linecap="round" stroke-linejoin="round"/>
<path d="M56.2517 121.035C55.113 122.531 54.7297 124.469 54.5835 126.346C54.4506 128.029 54.4949 129.784 55.062 131.355C55.1927 131.72 55.35 132.073 55.5406 132.413C56.5552 134.224 58.6887 135.535 60.7003 135.038" stroke="#002140" stroke-linecap="round" stroke-linejoin="round"/>
<path d="M61.5443 123.964C60.605 125.742 60.1951 127.422 60.1309 129.293C60.0711 131.013 60.2372 132.775 60.9284 134.351C61.0149 134.546 61.1101 134.742 61.2142 134.931C61.9431 136.258 63.0929 137.371 64.5219 137.831C66.1569 138.36 68.1375 137.9 69.1677 136.522" stroke="#002140" stroke-linecap="round" stroke-linejoin="round"/>
<path d="M68.8887 123.431C68.8222 123.489 68.7558 123.549 68.6915 123.611C67.0831 125.095 65.9377 127.084 65.457 129.224C65.1446 130.622 65.118 132.118 65.6253 133.458C66.1327 134.795 67.7167 136.062 69.1036 136.409" stroke="#002140" stroke-linecap="round" stroke-linejoin="round"/>
<path d="M69.3118 136.513C69.5821 136.611 69.8546 136.713 70.1271 136.818C72.1165 137.573 74.1414 138.478 76.1331 139.504C76.5386 139.713 76.944 139.926 77.345 140.146C78.7141 140.889 80.0611 141.689 81.3616 142.538C83.1982 143.733 84.944 145.022 86.5369 146.384C86.96 146.742 87.3699 147.106 87.7686 147.475C88.389 148.049 88.996 148.638 89.6673 149.151C89.9043 149.331 90.1635 149.506 90.4582 149.54C91.094 149.611 91.6257 148.962 91.6745 148.322C91.7631 147.215 90.9988 145.866 90.5645 144.889C90.3275 144.353 90.0749 143.824 89.8069 143.302C89.4502 142.6 89.0669 141.911 88.6659 141.233C87.6911 139.589 86.6033 138.013 85.4579 136.484C84.9506 135.804 84.4322 135.135 83.9049 134.471C83.6368 134.131 83.3666 133.793 83.0918 133.46C82.1458 132.3 81.1644 131.173 80.0899 130.142C80.0057 130.058 79.9215 129.975 79.8351 129.895C79.5582 129.635 79.2768 129.382 78.9888 129.138C77.4004 127.773 75.6435 126.609 73.7715 125.682C73.6341 125.611 73.4967 125.544 73.3572 125.48C72.6527 125.146 70.7496 124.36 68.7468 123.671" stroke="#002140" stroke-linecap="round" stroke-linejoin="round"/>
<path d="M76.3481 122.029C78.7984 122.971 80.2584 126.213 79.164 128.931" stroke="#002140" stroke-linecap="round" stroke-linejoin="round"/>
<path d="M53.518 116.642C52.5897 116.38 51.6127 116.238 50.5449 116.8C49.7872 117.198 49.1292 117.926 48.6773 118.731C48.4712 119.1 48.3095 119.484 48.1987 119.86L48.1588 120C48.0015 120.549 47.8686 121.082 47.7623 121.611C47.6382 122.222 47.5496 122.826 47.5031 123.438C47.4565 123.986 47.4477 124.54 47.4765 125.109C47.4942 125.469 47.5252 125.838 47.574 126.213C47.6759 127.009 48.0458 127.951 48.5643 128.564C49.1381 129.244 50.4319 129.686 51.2228 129.558" stroke="#002140" stroke-linecap="round" stroke-linejoin="round"/>
<path d="M117.908 88.6931C118.792 88.2264 119.877 88.162 120.81 88.522C121.277 88.7042 121.703 88.9909 122.053 89.3509C122.398 89.7087 122.673 90.1376 122.841 90.6064" stroke="#002140" stroke-linecap="round" stroke-linejoin="round"/>
<path d="M125.87 88.9843C125.141 88.4087 123.107 88.3554 122.168 89.2443" stroke="#002140" stroke-linecap="round" stroke-linejoin="round"/>
<path d="M124.567 58.551L126.213 49.4643L128.112 38.9954" stroke="#002140" stroke-linecap="round" stroke-linejoin="round"/>
<path d="M126.809 60.0688L129.439 51.6377L131.865 43.8599" stroke="#002140" stroke-linecap="round" stroke-linejoin="round"/>
<path d="M111.483 69.1665L93.4468 73.0887" stroke="#002140" stroke-linecap="round" stroke-linejoin="round"/>
<path d="M110.805 66.6043L90.9966 67.7021" stroke="#002140" stroke-linecap="round" stroke-linejoin="round"/>
<path d="M73.7427 125.742C71.1883 126.578 69.7195 128.949 69.3628 130.866C69.0061 132.782 69.2587 134.786 70.1449 136.773" stroke="#002140" stroke-linecap="round" stroke-linejoin="round"/>
<path d="M79.9459 130.291C78.2777 130.762 76.6825 132.382 76.0356 133.951C75.3887 135.518 75.5217 137.831 76.1929 139.389" stroke="#002140" stroke-linecap="round" stroke-linejoin="round"/>
<path d="M85.418 136.513C85.1256 136.384 84.1641 136.786 83.7498 137.035C82.0594 138.049 81.0492 140.531 81.4036 142.473" stroke="#002140" stroke-linecap="round" stroke-linejoin="round"/>
<path d="M89.5898 143.415C88.3891 143.362 86.8272 144.409 86.6167 146.291" stroke="#002140" stroke-linecap="round" stroke-linejoin="round"/>
<path d="M48.511 118.631C40.1189 115.702 30.3709 114.5 25.2887 115.438C24.8057 115.529 24.3405 115.738 23.9616 116.049C23.5806 116.362 23.3147 116.851 23.3834 117.34C23.3945 117.418 23.4122 117.491 23.441 117.562C23.5872 117.98 23.9749 118.302 24.3958 118.462C24.8899 118.649 25.4305 118.669 25.9599 118.649C31.7267 118.422 40.9541 118.429 47.9394 119.938" stroke="#002140" stroke-linecap="round" stroke-linejoin="round"/>
<path d="M47.4099 123.431C37.5778 121.813 28.1134 121.698 18.6424 124.8C17.4128 125.202 16.2519 125.578 15.1819 126.211C14.7188 126.486 14.2735 126.809 13.846 127.206C13.4494 127.573 13.0595 128.173 12.8867 128.689C12.7161 129.202 12.756 129.811 13.0971 130.233C13.6532 130.92 14.7078 130.855 15.5674 130.658C16.715 130.391 16.983 130.222 18.0907 129.815C22.4906 128.195 26.8285 126.329 31.41 125.338C37.4161 124.04 41.6321 124.329 47.3656 125.113" stroke="#002140" stroke-linecap="round" stroke-linejoin="round"/>
<path d="M47.5739 121.611C45.0749 121.104 40.8411 120.62 38.2956 120.513C31.4277 120.222 21.2145 120.315 12.8556 121.46C9.33751 121.942 6.14505 122.611 3.67262 123.515C2.81746 123.829 1.98002 124.286 1.41065 125C0.84128 125.715 0.61752 126.773 1.08719 127.558C1.78949 128.733 3.47544 128.693 4.82465 128.475C7.76898 128.002 9.72964 126.891 15.1508 126.16" stroke="#002140" stroke-linecap="round" stroke-linejoin="round"/>
<path d="M12.8557 121.453C11.7103 120.931 12.078 119.618 12.5211 119.102C12.9642 118.589 13.6067 118.258 14.2691 118.115C16.9742 117.533 20.4746 117.531 23.3857 117.584" stroke="#002140" stroke-linecap="round" stroke-linejoin="round"/>
<path d="M74.9413 78.9954H74.9391C74.6333 79.1087 74.27 79.2998 73.8845 79.5509C73.0315 80.1087 72.07 80.9732 71.3678 81.9954C70.7363 82.9176 70.3198 83.9687 70.0917 85.0709C69.8036 86.4376 69.8036 87.8843 70.0296 89.2576C70.1315 89.8732 70.3331 90.5132 70.6079 91.1509C71.4409 93.0843 72.9452 95.0154 74.3675 96.2509" stroke="#002140" stroke-linecap="round" stroke-linejoin="round"/>
<path d="M74.1592 85.1665C73.612 86.3087 73.5721 87.7576 73.8712 89.0576C73.9598 89.4443 74.0795 89.8176 74.2235 90.1665C74.6666 91.2332 75.3777 92.2109 76.2174 93.0376C76.5718 93.3887 76.9485 93.7109 77.3384 94.0021" stroke="#002140" stroke-linecap="round" stroke-linejoin="round"/>
<path d="M74.6133 84.3709C75.4175 83.3642 76.4543 82.5576 77.613 81.9998C78.7761 81.4398 80.0611 81.1331 81.3527 81.1376" stroke="#002140" stroke-linecap="round" stroke-linejoin="round"/>
<path d="M70.6655 91.1264C72.3072 92.3576 74.1482 93.1976 76.1931 93.062" stroke="#002140" stroke-linecap="round" stroke-linejoin="round"/>
<path d="M70.1138 85.0753C70.8161 86.7598 72.0877 88.202 73.6718 89.1042C73.6253 89.082 73.5787 89.0576 73.5344 89.0353" stroke="#002140" stroke-linecap="round" stroke-linejoin="round"/>
<path d="M73.8889 79.5176C73.8889 79.5176 73.8845 79.5399 73.8845 79.551C73.6231 81.1399 73.7028 82.7843 74.1171 84.3399" stroke="#002140" stroke-linecap="round" stroke-linejoin="round"/>
<path d="M77.6086 81.7709C77.8767 81.0776 78.2378 80.4198 78.6765 79.8198" stroke="#002140" stroke-linecap="round" stroke-linejoin="round"/>
<path d="M105.437 98.4464C106.895 98.4798 108.399 98.3798 109.888 98.1287C111.716 97.8175 113.517 97.2753 115.167 96.4531C115.584 96.2464 115.989 96.022 116.384 95.7798" stroke="#002140" stroke-linecap="round" stroke-linejoin="round"/>
<path d="M107.522 102.264C109.325 102.242 111.14 101.982 112.885 101.511C114.921 100.962 116.86 100.12 118.572 99.022" stroke="#002140" stroke-linecap="round" stroke-linejoin="round"/>
<path d="M115.169 96.4553C114.507 98.1642 113.738 99.8309 112.867 101.444" stroke="#002140" stroke-linecap="round" stroke-linejoin="round"/>
<path d="M109.914 98.2887C109.081 99.5975 108.246 100.398 107.313 101.638" stroke="#002140" stroke-linecap="round" stroke-linejoin="round"/>
<path d="M100.984 111.555C101.015 111.773 101.044 111.991 101.07 112.206C101.263 113.786 101.345 115.371 101.336 116.955C101.33 119.02 101.17 121.084 100.911 123.144C100.556 125.969 100.014 128.782 99.4087 131.573C99.3002 132.078 99.1872 132.58 99.0764 133.082C98.959 133.6 98.8416 134.118 98.7242 134.633C98.5447 135.418 98.3653 136.206 98.2102 137C97.8978 138.589 97.6895 140.189 97.7981 141.798C97.8845 143.049 98.1637 144.289 98.6267 145.455C98.1769 148.433 96.9562 150.984 94.6876 152.958C92.7713 154.624 90.1748 155.555 87.6691 155.329C87.2083 155.286 86.7497 155.204 86.2999 155.082C85.4049 156.16 84.9131 157.444 84.6849 158.809C84.5032 159.895 84.4855 161.031 84.563 162.151C84.5808 162.446 84.6073 162.74 84.6384 163.031C84.8953 165.431 85.4226 167.971 87.1263 169.675" stroke="#002140" stroke-linecap="round" stroke-linejoin="round"/>
<path d="M100.795 112.251C99.978 112.686 98.6332 113.429 97.8844 113.978C97.4612 114.286 97.0447 114.622 96.7634 115.064C96.4798 115.513 96.3535 116.042 96.2405 116.562C95.5559 119.733 95.1882 122.973 95.1483 126.218C95.1417 126.82 95.1483 127.433 95.3255 128.009C95.8107 129.584 97.8157 130.806 99.2845 131.546" stroke="#002140" stroke-linecap="round" stroke-linejoin="round"/>
<path d="M154.361 75.3243C154.467 74.7554 154.609 74.191 154.79 73.6376C155.402 71.751 156.434 69.991 157.812 68.6065C158.8 67.611 159.968 66.811 161.288 66.3021C162.784 65.7265 164.47 65.5399 165.996 66.0265C167.523 66.5154 168.852 67.7421 169.237 69.3021C169.667 71.0421 168.878 72.911 167.622 74.1843C166.273 75.5465 164.456 76.3421 163.016 77.6043C162.104 78.4043 161.359 79.391 160.825 80.4821C160.407 81.3443 160.119 82.2732 159.983 83.2221C159.786 84.6287 159.981 86.0732 160.469 87.4176C160.726 88.1332 161.067 88.8176 161.474 89.4532" stroke="#002140" stroke-linecap="round" stroke-linejoin="round"/>
<path d="M137.572 89.6621C141.247 90.6043 144.739 89.7732 148.007 88.6421C150.167 87.8932 152.09 86.9954 153.685 85.5021C154.436 84.7954 155.151 83.9288 155.242 82.8999C155.302 82.2088 155.047 81.5288 154.735 80.9132C153.414 78.3132 151.026 76.3977 149.639 73.8332C149.243 73.0999 148.928 72.2888 148.97 71.4555C149.017 70.571 149.46 69.7599 149.927 69.0088C151.095 67.131 152.276 65.6643 153.654 63.9377" stroke="#002140" stroke-linecap="round" stroke-linejoin="round"/>
<path d="M165.03 93.4065C164.977 93.4776 164.921 93.5487 164.866 93.6176C164.368 94.2665 163.858 94.9087 163.337 95.5421C161.563 97.7087 159.66 99.7687 157.535 101.587C154.719 103.993 151.051 106.1 147.504 107.153" stroke="#002140" stroke-linecap="round" stroke-linejoin="round"/>
<path d="M154.124 85.5331C157.159 88.0554 161.045 92.1887 163.247 95.4665" stroke="#002140" stroke-linecap="round" stroke-linejoin="round"/>
<path d="M131.16 82.9176C132.286 83.9198 133.327 84.9376 134.295 85.9709C135.452 87.1998 136.508 88.4531 137.488 89.7265C138.206 90.6598 138.883 91.6065 139.528 92.5642C141.376 95.302 142.958 98.1265 144.486 101.029C145.541 103.031 146.529 105.084 147.439 107.182C149.418 111.735 151.035 116.486 152.183 121.326L152.263 121.666C152.582 123.035 152.863 124.413 153.102 125.793L153.162 126.146C153.375 127.391 153.552 128.638 153.696 129.886C153.873 131.404 153.997 132.926 154.068 134.446" stroke="#002140" stroke-linecap="round" stroke-linejoin="round"/>
<path d="M98.3984 137.035C99.5172 136.118 100.676 135.233 101.87 134.382C102.938 133.618 104.032 132.882 105.153 132.173C115.116 125.873 126.998 121.822 138.494 121.113C140.904 120.964 143.348 120.946 145.703 121.475C148.06 122.004 151.908 123.78 153.08 126.055" stroke="#002140" stroke-linecap="round" stroke-linejoin="round"/>
<path d="M134.289 85.9776C134.472 90.2731 133.854 93.9376 132.636 97.1554C132.06 98.6776 131.349 100.102 130.525 101.444C129.373 103.322 127.997 105.042 126.461 106.655C121.51 111.855 114.804 115.204 107.792 116.698C105.926 117.093 103.414 117.233 101.527 116.958" stroke="#002140" stroke-linecap="round" stroke-linejoin="round"/>
<path d="M139.528 92.5643C139.198 94.8976 138.596 97.2487 137.76 99.5243C137.149 101.204 136.407 102.844 135.556 104.411C134.778 105.842 133.908 107.211 132.959 108.486C131.836 109.998 128.582 113.429 124.567 115.966C117.848 120.213 111.066 123.466 100.979 123.153" stroke="#002140" stroke-linecap="round" stroke-linejoin="round"/>
<path d="M130.706 101.482C132.268 102.429 133.828 103.373 135.39 104.318" stroke="#002140" stroke-linecap="round" stroke-linejoin="round"/>
<path d="M132.893 97.1643C134.508 97.851 136.087 98.6221 137.625 99.4732C137.554 99.4199 137.485 99.3643 137.417 99.311" stroke="#002140" stroke-linecap="round" stroke-linejoin="round"/>
<path d="M98.8681 133.035C97.0691 131.938 93.757 131.142 91.3621 131.235C92.4477 132.633 93.3848 134.002 94.2467 135.551C92.0091 134.1 89.7604 132.795 87.2968 131.775C86.0074 131.946 84.3015 132.613 83.2292 133.349" stroke="#002140" stroke-linecap="round" stroke-linejoin="round"/>
<path d="M77.2875 140.251C76.6494 141.689 76.2706 143.311 76.244 145.32C76.2307 146.453 76.5918 147.74 76.583 147.78" stroke="#002140" stroke-linecap="round" stroke-linejoin="round"/>
<path d="M87.6867 155.075C87.217 152.88 86.4926 151.137 85.1832 149.662C83.8761 148.189 81.7604 146.964 79.7931 146.92C78.6632 146.893 77.5732 147.235 76.6073 147.82C75.5682 148.449 74.671 149.358 74.0263 150.391C72.7834 152.386 72.2849 154.689 72.1254 157.035C71.8108 161.7 73.1334 165.149 74.0019 169.742C74.476 172.246 75.3312 175.702 73.9244 178.526C73.18 180.02 71.35 181.237 69.9853 182.193C68.6184 183.149 67.1451 183.957 65.8756 185.04C64.6062 186.122 63.5273 187.542 63.2814 189.195C63.0354 190.846 63.9305 192.735 65.4791 193.349C66.5934 193.791 68.3414 193.444 69.4669 193.035C69.8236 192.906 70.1714 192.762 70.5059 192.602C74.27 190.831 76.7579 187.291 77.7371 183.151" stroke="#002140" stroke-linecap="round" stroke-linejoin="round"/>
<path d="M70.5614 192.722C69.9366 195.153 71.4852 196.922 72.9696 197.435C74.4517 197.949 76.1443 197.56 77.4426 196.68C77.4758 196.658 77.509 196.635 77.5423 196.609C78.7918 195.731 79.7068 194.442 80.4046 193.078C81.6165 190.7 82.2257 188.015 82.1615 185.346" stroke="#002140" stroke-linecap="round" stroke-linejoin="round"/>
<path d="M77.6772 196.8C77.9896 198.133 79.3809 199.304 80.5706 199.389C81.7603 199.473 82.9766 199.244 83.9337 198.526C86.6609 196.477 88.0057 192.878 88.8276 189.562C90.0505 184.635 90.3452 178.526 89.953 170.995" stroke="#002140" stroke-linecap="round" stroke-linejoin="round"/>
<path d="M87.1394 169.662C88.1053 170.14 89.0513 170.56 89.9774 170.933C104.965 176.935 114.485 169.495 118.415 164.958C120.522 162.526 121.621 160.409 122.268 157.355" stroke="#002140" stroke-linecap="round" stroke-linejoin="round"/>
<path d="M101.916 134.446C101.888 139.911 103.653 143.62 103.66 146.649C103.664 149.362 102.495 152.006 100.789 154.113C99.0851 156.222 96.7744 157.804 94.2488 158.78C91.4108 159.877 87.649 160.082 84.8708 158.84" stroke="#002140" stroke-linecap="round" stroke-linejoin="round"/>
<path d="M105.202 132.251C104.777 136.146 106.438 141.424 106.744 145.333C107.154 150.571 104.611 155.875 100.452 159.071C96.2938 162.266 90.815 163.624 84.7935 162.133" stroke="#002140" stroke-linecap="round" stroke-linejoin="round"/>
<path d="M118.495 165.035C121.388 166.604 128.46 167.226 133.108 166.293C137.687 165.375 141.987 163.144 145.457 160.009C154.952 163.322 165.265 164.54 175.263 163.473" stroke="#002140" stroke-linecap="round" stroke-linejoin="round"/>
<path d="M154.024 134.64C157.582 137.906 161.264 141.115 165.489 143.451C169.631 145.742 174.237 147.709 179.027 148.262" stroke="#002140" stroke-linecap="round" stroke-linejoin="round"/>
<path d="M187.262 140.113C187.734 134.673 186.482 129.195 184.417 124.144C184.001 123.122 183.48 122.049 182.756 121.238C182.257 120.68 181.664 120.247 180.941 120.031C179.632 119.64 178.15 120.127 177.195 121.104C176.238 122.082 175.784 123.484 175.797 124.853C175.804 125.544 175.919 126.224 176.085 126.895C176.234 127.511 176.424 128.118 176.606 128.722C176.679 128.96 176.75 129.2 176.819 129.44C177.129 130.506 177.414 131.582 177.671 132.662C177.858 133.442 178.03 134.226 178.188 135.011C179.063 139.402 179.468 143.866 179.247 148.273C179.014 152.929 178.086 157.52 176.278 161.898C176.05 162.451 175.797 163.018 175.538 163.595C174.933 164.949 174.304 166.353 173.932 167.702C173.402 169.629 173.311 172.093 174.167 173.898C175.022 175.702 177.523 176.911 179.484 176.564" stroke="#002140" stroke-linecap="round" stroke-linejoin="round"/>
<path d="M183.082 121.113C184.411 118.369 186.733 118.26 188.164 118.918C189.028 119.318 189.622 119.978 190.111 120.751C190.435 121.255 190.712 121.809 190.991 122.367C193.468 127.329 194.035 133.053 193.74 138.593" stroke="#002140" stroke-linecap="round" stroke-linejoin="round"/>
<path d="M190.275 120.644C190.822 118.133 192.883 117.02 194.538 117.398C196.303 117.8 197.398 119.56 198.067 121.246C198.536 122.431 198.951 123.638 199.303 124.862C199.598 125.893 199.85 126.933 200.047 127.984C200.265 129.111 200.422 130.246 200.517 131.389C201.359 141.613 200.309 152.438 195.459 161.471C193.917 164.344 191.979 166.986 189.885 169.484C187.085 172.824 184.01 175.86 179.719 176.564" stroke="#002140" stroke-linecap="round" stroke-linejoin="round"/>
<path d="M199.319 91.651C201.457 93.271 203.072 94.631 205.156 96.5643C205.785 97.1465 206.428 97.851 207.086 97.611C207.66 97.4021 207.95 97.0887 208.389 96.7221" stroke="#002140" stroke-linecap="round" stroke-linejoin="round"/>
<path d="M202.73 84.1287C206.062 86.1421 209.044 88.7398 211.499 91.7687C211.705 92.0198 211.911 92.2865 211.98 92.6021C212.162 93.4087 211.705 93.9221 211.047 94.4221" stroke="#002140" stroke-linecap="round" stroke-linejoin="round"/>
<path d="M206.435 94.0687C206.155 93.4064 206.652 92.9753 206.982 92.6442C207.241 92.4353 207.268 92.3553 207.607 92.1198C207.855 91.9487 208.076 91.8887 208.278 91.902C208.63 91.922 208.918 92.1576 209.171 92.382C209.875 93.0087 210.498 93.6976 211.045 94.4242C212.452 96.2887 213.367 98.3975 213.929 100.318C214 100.551 214.065 100.782 214.122 101.009C214.204 101.326 214.435 102.098 214.488 102.422C214.525 102.653 214.528 102.849 214.497 103.013C214.448 103.295 214.308 103.482 214.122 103.571C213.748 103.755 212.611 103.938 212.091 103.991C211.641 104.035 211.419 103.858 211.28 103.549C211.182 103.335 211.122 103.058 211.052 102.749C210.912 102.142 210.757 101.564 210.58 101.006C210.077 99.4131 209.405 97.9975 208.479 96.6575C208.001 95.9664 207.454 95.2953 206.824 94.6309C206.632 94.4264 206.508 94.2398 206.435 94.0687Z" stroke="#002140" stroke-linecap="round" stroke-linejoin="round"/>
<path d="M200.779 89.5064C201.931 90.3598 204.303 92.4398 206.355 94.1064" stroke="#002140" stroke-linecap="round" stroke-linejoin="round"/>
<path d="M202.03 86.422C203.907 87.6242 206.774 90.0287 208.284 91.702" stroke="#002140" stroke-linecap="round" stroke-linejoin="round"/>
<path d="M210.473 101.009C209.939 101.042 208.685 101.478 208.65 102.604C208.597 104.278 209.066 106.318 209.12 110.369C209.126 110.911 209.146 112.164 209.51 112.564C209.873 112.966 211.184 112.94 211.725 112.931" stroke="#002140" stroke-linecap="round" stroke-linejoin="round"/>
<path d="M213.887 100.329C213.9 100.324 213.916 100.322 213.929 100.318C215.48 99.9265 216.685 100.593 216.938 102.213C217.328 104.722 217.955 110.918 217.485 112.015C217.153 112.795 215.923 113.02 215.323 112.88" stroke="#002140" stroke-linecap="round" stroke-linejoin="round"/>
<path d="M211.809 110.738C211.851 110.184 212.06 110.115 212.403 109.847C213.185 109.689 214.355 109.44 214.669 109.82C214.725 109.887 214.778 109.978 214.827 110.091C215.064 110.627 215.214 111.644 215.21 112.878C215.201 114.984 214.731 117.718 213.444 119.729C213.393 119.809 213.34 119.886 213.282 119.96C212.649 120.818 211.862 121.169 211.621 121.349C211.497 121.442 211.377 121.513 211.266 121.564C210.919 121.729 210.633 121.702 210.436 121.555C210.101 121.306 209.545 120.52 209.257 120.08C208.989 119.669 209.066 119.36 209.317 119.071C209.456 118.906 209.656 118.751 209.877 118.584C210.391 118.202 210.781 117.731 211.074 117.211C211.84 115.853 211.949 114.169 211.913 112.924C211.9 112.358 211.853 111.882 211.829 111.571C211.798 111.207 211.791 110.94 211.809 110.738Z" stroke="#002140" stroke-linecap="round" stroke-linejoin="round"/>
<path d="M210.996 117.166C210.722 116.704 210.265 116.018 209.149 116.131C208.615 116.182 205.679 118.918 201.813 120.571C201.317 120.784 200.657 121.209 200.471 121.718C200.285 122.226 200.734 123.151 200.991 123.629" stroke="#002140" stroke-linecap="round" stroke-linejoin="round"/>
<path d="M213.324 119.991C214.417 121.195 214.361 122.315 213.107 123.389C211.191 125.026 206.226 128.015 204.294 128.24C203.455 128.338 202.912 127.491 202.759 126.891" stroke="#002140" stroke-linecap="round" stroke-linejoin="round"/>
<path d="M211.204 103.571C211.464 105.82 211.778 107.546 211.778 110.735" stroke="#002140" stroke-linecap="round" stroke-linejoin="round"/>
<path d="M214.904 110.055C214.984 107.78 215.139 105.82 214.552 103.022" stroke="#002140" stroke-linecap="round" stroke-linejoin="round"/>
<path d="M209.281 119.002C209.281 119.002 209.272 119.009 209.268 119.011C207.932 120.104 205.983 121.511 203.229 122.813" stroke="#002140" stroke-linecap="round" stroke-linejoin="round"/>
<path d="M205.15 125.318C207.79 124.329 209.04 123.389 211.28 121.595" stroke="#002140" stroke-linecap="round" stroke-linejoin="round"/>
<path d="M199.265 124.88C199.279 124.873 199.29 124.869 199.303 124.862C199.868 124.589 200.466 124.309 201.071 124.004C201.689 123.693 202.318 123.355 202.932 122.978C203.038 122.911 203.14 122.86 203.233 122.822C204.166 122.438 204.518 123.289 204.753 123.773C204.866 124.086 204.932 124.138 205.043 124.535C205.127 124.833 205.105 125.062 205.021 125.249C204.879 125.56 204.565 125.749 204.288 125.933C203.761 126.282 203.244 126.573 202.73 126.833C201.922 127.242 201.117 127.573 200.282 127.937" stroke="#002140" stroke-linecap="round" stroke-linejoin="round"/>
<path d="M176.072 126.898C174.448 126.975 172.882 126.991 170.992 126.955C170.137 126.94 169.188 126.844 168.856 127.462C168.568 128.002 168.559 128.429 168.473 128.995" stroke="#002140" stroke-linecap="round" stroke-linejoin="round"/>
<path d="M177.997 135.049C175.135 135.326 172.23 135.224 169.383 134.74C169.073 134.689 168.752 134.626 168.497 134.44C167.844 133.966 167.839 133.298 167.988 132.511" stroke="#002140" stroke-linecap="round" stroke-linejoin="round"/>
<path d="M171.67 129.698C172.334 130.026 172.257 130.629 172.228 131.102C172.173 131.431 172.206 131.509 172.108 131.909C172.066 132.084 172.004 132.224 171.927 132.335C171.652 132.729 171.185 132.755 170.768 132.758C169.964 132.76 169.007 132.6 167.999 132.344C165.861 131.802 163.495 130.838 161.897 130.118C160.823 129.633 160.094 129.258 160.014 129.193C159.948 129.14 159.89 129.082 159.841 129.022C159.511 128.624 159.489 128.095 159.598 127.833C159.755 127.446 160.129 126.86 160.484 126.473C160.648 126.295 160.832 126.204 161.029 126.175C161.457 126.106 161.946 126.331 162.411 126.578C162.5 126.624 162.589 126.671 162.675 126.718C164.68 127.773 166.271 128.491 168.468 129.022C169.233 129.206 170.072 129.369 171.027 129.513C171.295 129.553 171.506 129.618 171.67 129.698Z" stroke="#002140" stroke-linecap="round" stroke-linejoin="round"/>
<path d="M176.59 129.507C175.631 129.573 173.504 129.547 171.725 129.591" stroke="#002140" stroke-linecap="round" stroke-linejoin="round"/>
<path d="M177.53 132.695C175.618 132.831 173.405 132.838 171.894 132.675C171.889 132.675 171.885 132.675 171.88 132.675" stroke="#002140" stroke-linecap="round" stroke-linejoin="round"/>
<path d="M163.089 126.473C163.3 125.98 163.975 124.278 162.655 123.635C161.153 122.907 159.948 122.542 156.312 120.773C155.827 120.538 154.593 119.675 153.55 119.833C153.016 119.913 152.535 120.809 152.298 121.298" stroke="#002140" stroke-linecap="round" stroke-linejoin="round"/>
<path d="M161.891 130.133C161.559 131.726 160.491 132.415 158.92 131.911C157.713 131.524 155.663 130.706 153.82 129.871" stroke="#002140" stroke-linecap="round" stroke-linejoin="round"/>
<path d="M161.014 126.069C158.893 125.295 157.382 124.346 154.54 122.918" stroke="#002140" stroke-linecap="round" stroke-linejoin="round"/>
<path d="M153.107 126.115C153.127 126.126 153.144 126.135 153.164 126.146C155.136 127.226 156.97 128.315 159.702 129.035" stroke="#002140" stroke-linecap="round" stroke-linejoin="round"/>
<path d="M152.387 121.638C152.943 122.002 153.556 122.371 154.245 122.76C154.352 122.82 154.445 122.88 154.527 122.938C155.371 123.553 155.03 124.178 154.813 124.671C154.644 124.96 154.649 125.042 154.416 125.384C154.028 125.955 153.552 125.926 153.113 125.791" stroke="#002140" stroke-linecap="round" stroke-linejoin="round"/>
<path d="M58.4495 40.1088C58.8748 39.8777 59.2935 39.6377 59.7101 39.3888C61.9654 38.0444 64.0789 36.4666 66.0086 34.6866C66.3808 34.3466 66.7441 33.9977 67.1008 33.6421" stroke="#002140" stroke-linecap="round" stroke-linejoin="round"/>
<path d="M58.8328 38.4466C58.0419 38.7955 56.9564 39.7022 57.2466 40.8088C57.4659 41.6466 58.0242 42.3466 58.5825 43.0088C58.9414 43.4333 59.3424 43.8866 59.8874 43.9933C60.3969 44.091 60.9065 43.8644 61.3673 43.631C61.6066 43.511 61.8436 43.3866 62.0807 43.2599C64.5642 41.9222 66.8616 40.2355 68.8843 38.2644C69.0017 38.151 69.1191 38.0355 69.2343 37.9199C69.5401 37.6133 70.4839 36.4866 70.0939 35.7799C69.6752 35.0244 69.3894 34.4466 68.7647 33.7422C68.3947 33.3266 68.1067 32.7711 67.5905 32.5644C66.8084 32.2511 65.477 32.9222 65.2443 33.4288" stroke="#002140" stroke-linecap="round" stroke-linejoin="round"/>
<path d="M55.7267 30.2754C56.1366 29.9421 56.6616 29.7421 57.231 29.7421C58.547 29.7421 59.6148 30.8132 59.6148 32.1332C59.6148 33.4532 58.609 34.4621 57.3462 34.5243C57.3085 34.5265 57.2709 34.5265 57.231 34.5265C55.9128 34.5265 54.845 33.4554 54.845 32.1332C54.845 31.3843 55.1884 30.7154 55.7267 30.2754Z" stroke="#002140" stroke-linecap="round" stroke-linejoin="round"/>
<path d="M192.958 52.4867C195.825 58.3689 196.842 63.1266 197.466 68.8777C198.091 74.6289 197.023 78.6822 199.735 78.9955C202.447 79.3088 203.712 76.4088 202.471 66.6822C201.612 59.9378 199.017 52.6689 193.089 45.4267C187.694 38.8378 183.709 37.4244 182.767 38.3689C182.025 39.1133 182.428 39.4156 184.305 40.8778C186.181 42.3422 190.202 46.8333 192.958 52.4867Z" fill="#FFFAF0" stroke="#FFFAF0" stroke-miterlimit="10"/>
<path d="M177.762 35.8599C178.544 35.4288 179.991 36.0554 180.108 36.6843C180.226 37.3132 179.561 37.9399 178.622 37.6266C177.326 37.1932 176.98 36.2932 177.762 35.8621V35.8599Z" fill="#FFFAF0" stroke="#FFFAF0" stroke-miterlimit="10"/>
</g>
<defs>
<clipPath id="clip0_4_2906">
<rect width="218" height="200" fill="white" transform="translate(0.5)"/>
</clipPath>
</defs>
</svg>
