<svg xmlns="http://www.w3.org/2000/svg" width="133" height="153" fill="none" viewBox="0 0 133 153"><path fill="#d18000" d="M78.15 65.78s4.57-12.683 2.36-19.023c0 0-14.45-14.156-34.506-8.553s-28.02 20.35-30.967 30.673-1.18 29.05 10.764 37.603c0 0 15.483 2.36 33.18-14.746S78.15 65.78 78.15 65.78"/><path fill="#ffc68c" d="M58.097 37.024s15.483 1.474 22.413 9.734c0 0 2.803 7.963-3.687 22.563s-22.12 26.69-26.1 29.196-14.303 10.027-24.92 7.963c0 0-8.7-7.963-10.176-15.63 0 0-1.033 6.047 0 11.504s7.077 14.746 19.907 14.599c12.83-.146 33.033-14.746 39.076-23.446 6.046-8.7 18.876-27.43 14.156-45.86-4.72-18.433-26.25-14.01-30.673-10.616z"/><path fill="#722b03" d="M80.51 46.758s-10.69-11.504-29.05-9.4c0 0 8.737 10.506 16.92 12.276s12.13-2.876 12.13-2.876M67.716 65.337s2.214-9.07-2.876-11.833c-5.087-2.763-14.6-5.863-17.697-2.987s-8.96 16.037-8.96 16.037-.663 3.98.884 6.083c1.55 2.1 6.746 6.413 6.746 6.413s1.66.664 3.097.664 12.497-3.76 14.71-5.864c2.213-2.1 4.093-8.516 4.093-8.516zM16.73 63.014l8.96 1.217s2.1-.334 3.317-1.437c1.217-1.107 11.28-12.167 11.28-12.167s2.213-5.64 2.323-7.076c.11-1.437-.22-4.423-.22-4.423s-13.05 5.42-17.473 10.063c-4.423 4.646-8.183 13.823-8.183 13.823zm-2.1 8.076s11.724 2.544 14.157 4.314 4.533 6.193 4.533 6.193 2.763 4.314 2.323 6.967-1.99 8.406-1.99 8.406-3.43 4.314-3.98 4.977c-.553.663-4.313 3.87-4.313 3.87S16.624 96.97 15.297 90c-1.327-6.966-2.1-14.71-.663-18.913zm23.89 34.064s19.354-7.63 24.883-18.027c0 0-2.1-3.206-6.083-3.096s-13.936 4.423-13.936 4.423-2.324 4.313-2.654 5.863c-.333 1.55-2.213 10.84-2.213 10.84z"/><path fill="#4ba6a6" d="M87.883 44.988s2.36-.737 2.36-1.917c0 0-5.75-12.533-4.13-18.137 1.62-5.603 7.227-8.11 11.943-7.52 4.72.59 6.49 2.804 6.49 2.804s7.963-4.867 12.683-4.867 10.764 3.833 12.387 8.7 2.507 13.567-4.57 20.793c-7.077 7.227-16.37 10.177-16.37 10.177s-4.57 13.273-13.42 15.483c-7.373 1.917-8.553.147-8.553.147s6.49-13.124 1.18-25.66z"/><path fill="#4ba6a6" d="M91.423 86.277s14.157 4.72 24.036-2.36c0 0-.736-11.206-4.866-16.37 0 0-7.22 3.217-10.027 2.654l-2.806-.56-1.47.856zm-22.71-3.39s2.507 4.57 8.7 4.72c6.193.147 10.357-6.156 10.47-8.553s-.443-11.06-6.637-12.387c-3.096-.883-6.49-1.18-7.816-.146l-1.034.146s-7.52-2.213-12.386-1.473c-4.867.737-10.177 5.31-10.177 5.31s-5.16 12.24 6.49 15.926c0 0 10.177-3.686 12.387-3.54zm-3.096 20.053s-7.077-3.096-11.504-1.033c-4.423 2.063-7.076 6.047-6.783 11.503 0 0 6.193 10.027 5.603 20.647 0 0 10.764 3.54 23.003-3.98 0 0-.443-13.42-10.323-27.133z"/><path fill="#4ba6a6" d="M21.82 120.047s2.803 3.833 14.157 3.686c11.353-.146 14.156-3.686 14.156-3.686l-2.36-5.9s-7.816 3.243-13.273 2.95c-5.457-.294-11.943-3.394-11.943-3.394s-.59 4.424-.737 6.34z"/><path fill="#d18000" d="M78.446 87.677S71.7 98.294 65.616 102.94l4.647 8.074s12.277-9.18 17.363-17.697 7.717-16.86 8.664-22.82c0 0-6.674.7-9.107.7 0 0 2.433 6.194-.553 10.95-2.987 4.757-8.184 5.53-8.184 5.53"/><path fill="#ffc68c" d="M50.463 82.924s3.87-2.214 3.54-3.65c-.333-1.437-1.77-2.653-1.77-2.653s2.434-2.1 2.214-3.54-1.99-1.99-2.764-1.99-2.433.883-2.433.883-1.55 6.966 1.217 10.95zm64.81-2.434s-1.99-8.846-4.093-10.84c0 0-2.877 1.217-2.764 3.207.114 1.99 2.987 2.654 2.987 2.654s-1.77 1.436-1.217 3.316c.554 1.88 3.98 1.99 5.087 1.66z"/><path fill="#fffaf0" d="M102.499 38.574a7.134 7.134 0 1 0 0-14.267 7.134 7.134 0 0 0 0 14.267"/><path fill="#ffc68c" d="M113.246 46.094s.444 2.137 1.624 2.137 1.18-2.507 1.18-2.507z"/><path fill="#d18000" d="M96.73 36.434s1.033-7.666 9.069-10.763c0 0-5.16-3.023-8.626.517-3.467 3.54-1.99 9.216-.444 10.25z"/><path fill="#ffc68c" d="M52.454 129.043s-4.424 1.99-4.534 4.647 2.544 4.647 4.533 4.867c0 0-4.203 4.866-.443 12.276 0 0 14.6.773 29.087-1.77 12.606-2.213 17.033-7.853 17.033-7.853s1.99-15.04-8.074-14.93c-4.976.11-7.41 6.79-7.853 6.967s-2.323-.334-2.323-.334 1.55-1.99.553-3.76-4.756-3.096-4.756-3.096l.256 4.02s-4.903 3.833-11.76 4.276c-6.856.444-11.243-.293-11.243-.293l-.48-5.013z"/><path fill="#d18000" d="M68.713 150.72s-1.18-6.71-2.803-7.964c-1.623-1.253-5.603-3.243-5.603-3.243l-8.407-.663s-2.36 8.333.11 11.98c0 0 14.12.553 16.7-.11zm20.497-24.407s-1.254 1.327-1.107 4.867 2.803 11.943 2.653 14.6c0 0 6.857-3.317 7.373-4.57 0 0 1.55-15.557-8.92-14.893z"/><path fill="#722b03" d="m67.09 144.526 1.623 6.194s10.323-1.034 12.387-1.66c2.063-.627 9.66-3.28 9.66-3.28l-1.034-2.95s-3.76 1.473-6.193 1.473-13.936-1.253-16.443.22z"/><path fill="#50eef6" d="M23.147 59.144s6.193-10.95 12.83-13.273l-3.54-15.78-4.867-4.423-6.34.59L2.504 46.314l.737 5.75 5.013 4.72z"/><path fill="#ccf6ff" d="M23 26.111s-.59-.883-1.77.147C20.05 27.29 2.504 46.314 2.504 46.314l11.207 2.803-.59-12.683 1.033-.736 12.24-.294L23 26.114zm.884 12.829-7.08 7.964 11.8 4.277z"/><path fill="#ffc68c" d="M16.067 103.604s-7.63-2.214-9.844 1.106c0 0-1.77 16.257-1.66 22.45s1.88 10.84 2.434 11.17c.553.333 6.413 4.423 10.063 4.757s7.077-.22 7.077-.22 5.863-5.64 2.543-10.287c-3.317-4.647-6.857-5.53-6.857-5.53l.774-1.217s4.313-1.326 5.196-3.206l-4.093-1.99s.333-5.974.883-7.41c0 0-5.64-5.42-6.526-9.623z"/><path fill="#d18000" d="M5.007 115.88s9.733 2.1 12.167-.883l1.216-5.75-2.323-5.64s-4.867-1.99-9.733.443l-1.327 11.834zm19.357 14.267s-3.317-.11-4.867 3.65-3.54 8.736-3.54 8.736 6.083 1.437 8.183.334c2.1-1.104 6.637-8.074.22-12.72z"/><path fill="#722b03" d="m6.224 137.447 1.55 1.66s-.333-6.857.11-7.854 2.653-7.41 2.653-8.96.11-5.64.11-5.64l-5.64-.773s-1.436 14.71 1.217 21.567"/><path fill="#50eef6" d="M92.013 5.761s-7.816-3.686-11.796-3.833-4.423 3.097-4.423 3.687.293 3.833 5.16 3.686c4.866-.146 11.06-3.54 11.06-3.54m-35.097.59S49.1 2.665 45.12 2.518s-4.423 3.097-4.423 3.687.293 3.833 5.16 3.686c4.867-.146 11.06-3.54 11.06-3.54m12.386 16.37s-7.816-3.687-11.796-3.833-4.423 3.096-4.423 3.686.293 3.834 5.16 3.687c4.866-.147 11.06-3.54 11.06-3.54"/><path stroke="#002140" stroke-linecap="round" stroke-linejoin="round" d="M78.077 65.447c4.536-11.376 2.726-18.65 2.726-18.65M25.954 106.66s15.696 4 37.452-19.176a92 92 0 0 0 3.667-4.14M35.34 42.288c14.707-8.367 33.06-7.134 45.286 4.343m-54.659 60.013q-.459-.4-.907-.82c-12.846-12.06-14.833-31.587-5.99-47.213m48.48 6.633c.2-1.277.35-2.56.44-3.85.1-1.383.13-2.807-.31-4.12-.387-1.163-1.127-2.183-1.997-3.043-3.787-3.744-9.583-4.343-14.9-4.62-.963-.05-1.98-.087-2.843.343-.987.49-1.597 1.49-2.154 2.44l-5.17 8.81c-1.24 2.113-2.51 4.31-2.796 6.743-.56 4.764 3.88 7.754 7.077 10.44.596.504 1.216 1.017 1.963 1.237.57.17 1.166.153 1.76.083"/><path stroke="#002140" stroke-linecap="round" stroke-linejoin="round" d="M51.287 37.294c3.693 4.264 7.73 8.44 12.846 10.814 5.117 2.373 11.567 2.61 16.103-.744.16-.116.327-.256.36-.453M52.907 85.16q-.82.192-1.63.414-2.492.674-4.934 1.513c-1.097.377-2.213.793-3.073 1.567-.73.656-1.23 1.53-1.623 2.426-1.91 4.384-1.454 9.49-3.217 13.934m25.107-18.04c-.813-.834-1.83-1.43-2.933-1.814m-35.517 20.704a77 77 0 0 0 4.433-4.087c1.193-1.19 2.353-2.427 3.23-3.863 1.447-2.37 2.043-5.15 2.617-7.867.23-1.09.46-2.21.296-3.313-.153-1.027-.64-1.97-1.133-2.88a97 97 0 0 0-2.703-4.68c-.687-1.114-1.404-2.23-2.37-3.114-1.48-1.356-3.427-2.073-5.344-2.68a72 72 0 0 0-9.566-2.313m2.753-7.823c2.527.403 5.07.72 7.62.943.817.074 1.67.13 2.43-.186.694-.287 1.227-.854 1.737-1.404l9.117-9.843c.953-1.027 1.916-2.07 2.583-3.303.773-1.423 1.12-3.034 1.417-4.623.356-1.897.66-3.854.263-5.744"/><path stroke="#002140" stroke-linecap="round" stroke-linejoin="round" d="M22.824 58.78 8.797 56.915a2.15 2.15 0 0 1-1.183-.563l-3.69-3.463a2.16 2.16 0 0 1-.66-1.297l-.553-4.434a2.14 2.14 0 0 1 .57-1.736l17.86-18.917c.41-.433.976-.676 1.573-.673l4.226.03c.54.003 1.06.21 1.454.58l3.66 3.437c.313.293.53.676.623 1.093l3.213 14.36"/><path stroke="#002140" stroke-linecap="round" stroke-linejoin="round" d="M22.157 60.5s5.884-10.913 15.167-15.443M7.614 56.354l24.656-26.27M16.713 47.008l11.127 3.966a.345.345 0 0 0 .44-.44l-4.117-11.46m-21.136 7.33 9.704 2.683a.52.52 0 0 0 .656-.52l-.463-12.156a.517.517 0 0 1 .507-.537l12.71-.246a.518.518 0 0 0 .466-.72l-3.89-9.074"/><path fill="#002140" d="m119.143 29.601 3.923-1.293s-.84-4.634-3.676-3.794c-2.834.84-.854 4.55-.247 5.087m-12.207-3.35c-.717.003-1.563-.28-2.07.227-.307.306-.343.783-.357 1.216a16.6 16.6 0 0 0 3.307 1.514c.237.076.507.146.72.023.363-.213.26-.76.103-1.15-.17-.427-.35-.857-.636-1.213s-.7-.637-1.16-.664"/><path stroke="#002140" stroke-linecap="round" stroke-linejoin="round" d="M87.22 70.92c15.826 3.114 21.55-16.093 21.55-16.093m-.004-.003c3.457-.13 29.647-13.13 20.467-31.176-8.507-16.257-24.72-3.443-24.72-3.443s-7.76-5.727-14.683-.674c-10.653 7.043 3.877 26.427 2.733 31.51"/><path stroke="#002140" stroke-linecap="round" stroke-linejoin="round" d="M117.633 31.164s2.557-3.296 7.53-2.656"/><path stroke="#002140" stroke-linecap="round" stroke-linejoin="round" d="M122.973 28.281s-.57-5.14-3.827-3.76c-3.26 1.38.124 5.093.124 5.093m-11.22 11.18s3.303 2.887 1.873 9.54"/><path stroke="#002140" stroke-linecap="round" stroke-linejoin="round" d="M110.38 45.954s18.433.86 20.776-13.73m-28.977 6.63a7.254 7.254 0 1 0 0-14.507 7.254 7.254 0 0 0 0 14.507"/><path fill="#002140" d="M104.86 26.718a4.6 4.6 0 0 0-4.997 3.706l3.357.63-2.574 2.93a4.58 4.58 0 0 0 3.257 1.894 4.61 4.61 0 0 0 5.06-4.104 4.61 4.61 0 0 0-4.103-5.06z"/><path stroke="#002140" stroke-linecap="round" stroke-linejoin="round" d="M113.003 45.938c.133.716.333 1.473.866 1.97.537.496 1.507.583 1.94-.004.46-.623-.03-2.007.524-2.447M96.64 36.284c.966-5.243 6.286-10.766 10.08-10.343m-58.95 88.212c-9.947 4.027-19.37 3.937-25.716-1.22-5.94-4.826-8.087-13.2-6.774-22.91m63.527-2.439a81 81 0 0 1-4.344 5.853 80 80 0 0 1-9.053 9.467m-8.02-66.093c9.84-3.91 19.147-3.773 25.433 1.337 7.984 6.486 9.114 19.373 4.21 33.303m-17.09-48.697s-16.96-8.736-16.96-.256 16.96.256 16.96.256M92.686 5.795s-16.96-8.737-16.96-.257 16.96.257 16.96.257m-34.949.44s-16.96-8.737-16.96-.257 16.96.257 16.96.257"/><path stroke="#002140" stroke-linecap="round" stroke-linejoin="round" d="M47.29 112.897c2.933 4.94 6.16 12.536 5.32 21.19m13.023-30.993c5.327 7.726 10.137 18.119 10.35 27.086"/><path stroke="#002140" stroke-linecap="round" stroke-linejoin="round" d="M21.587 120.21c4.407 4.477 21.91 5.427 29.003-.44m39.653-76.852c-.017 1.133-1.11 2.133-2.24 2.046M65.44 102.937s-6.93-3.833-12.683-.443c-5.75 3.393-5.75 8.846-5.31 11.503M78.28 69.24s-8.586-5.033-16.506-4.246-11.81 5.53-11.81 5.53-5.68 11.77 5.86 15.723c3.803.183 10.99-5.463 21.44-2.57m20.492-14.033c3.3 1.827 12.66-2.247 12.66-2.247s5.457 8.7 5.014 16.517c0 0-11.994 7.57-24.1 2.24"/><path stroke="#002140" stroke-linecap="round" stroke-linejoin="round" d="M49.164 77.394s3.716-1.634 4.746.893-2.896 4.24-2.896 4.24"/><path stroke="#002140" stroke-linecap="round" stroke-linejoin="round" d="M49.604 71.64s3.716-1.633 4.746.894-2.896 4.24-2.896 4.24m61.739-2.074s-3.784 1.474-4.704-1.093c-.92-2.57 3.074-4.113 3.074-4.113m3.253 10.513s-3.783 1.474-4.703-1.093 3.073-4.114 3.073-4.114m-60.573 59.287s13.53 2.47 23.374-3.907"/><path stroke="#002140" stroke-linecap="round" stroke-linejoin="round" d="M75.907 126.013c2.706.81 4.47 2.134 4.716 3.83.547 3.717-6.383 7.814-15.48 9.15-9.096 1.337-16.91-.59-17.456-4.306-.287-1.96 1.503-4.027 4.597-5.737"/><path stroke="#002140" stroke-linecap="round" stroke-linejoin="round" d="M60.18 139.45c3.216.96 7.193 2.54 8.173 10.94M22.38 113.594c-.6 2.443-.92 5.059-.746 7.729"/><path stroke="#002140" stroke-linecap="round" stroke-linejoin="round" d="M25.64 122.67c-1.69 2.737-4.373 3.483-5.976 2.873-3.227-1.226-3.654-8.126-1.164-15.906m2.687 16.21c-1.203 1.156-2.98 1.473-4.646 1.563a24.8 24.8 0 0 1-6.52-.517"/><path stroke="#002140" stroke-linecap="round" stroke-linejoin="round" d="M15.857 103.404c-1.963-.71-6.326-1.817-9.403.903 0 0-4.31 21.41 0 32.956 0 0 6.123 7.697 17.686 5.534 2.367-1.144 8.21-9.654-4.393-15.864"/><path stroke="#002140" stroke-linecap="round" stroke-linejoin="round" d="M17.19 115.107c-1.153.95-2.75 1.113-4.246 1.163a48 48 0 0 1-7.297-.31m18.727 14.157c-1.384-.22-2.73.56-3.62 1.486-2.93 3.054-2.567 7.557-4.8 11.01m-5.444-26.276c.444 14.213-4.036 11.503-2.376 22.12m71.669-5.624c.56.314 1.12.774 1.96.59 1.68-.37 1.75-6.636 7.87-7.213 2.98-.38 9.907 2.053 8.507 15.323 0 0-12.177 11.353-46.33 9.29-2.94-6.636.42-12.24.42-12.24"/><path stroke="#002140" stroke-linecap="round" stroke-linejoin="round" d="M89.377 126.387c-1.167 1.73-1.44 4.02-1.214 6.143.244 2.273.99 4.443 1.54 6.657.537 2.17.887 4.39 1.044 6.626m-23.994-1.76c7.677-1.143 15.777 1.48 23.16-1.05m-19.46-32.253c10.323-7.373 21.823-19.316 25.51-40.256"/><path stroke="#002140" stroke-linecap="round" stroke-linejoin="round" d="M78.807 88.43s3.79 3.384 8.003 4.89M73.136 66.704c1.307-.593 2.75-.92 4.27-.92 5.85 0 10.59 4.866 10.59 10.87s-4.74 10.87-10.59 10.87c-3.486 0-6.58-1.73-8.51-4.397"/><path stroke="#002140" stroke-linecap="round" stroke-linejoin="round" d="M87.433 80.78s2.6 1.437 5.144 1.55m-21.07 15.04s3.263 5.31 6.526 6.914"/></svg>