<svg width="133" height="153" viewBox="0 0 133 153" fill="none" xmlns="http://www.w3.org/2000/svg">
<path d="M78.1501 65.7806C78.1501 65.7806 82.72 53.0974 80.5101 46.7574C80.5101 46.7574 66.0602 32.6009 46.0038 38.2042C25.9473 43.8075 17.984 58.554 15.0374 68.8772C12.0908 79.2004 13.8574 97.9269 25.8006 106.48C25.8006 106.48 41.2838 108.84 58.9803 91.7337C76.6768 74.6272 78.1501 65.7806 78.1501 65.7806Z" fill="#D18000"/>
<path d="M58.0967 37.0243C58.0967 37.0243 73.5798 38.4976 80.5098 46.7575C80.5098 46.7575 83.3131 54.7208 76.8231 69.3206C70.3332 83.9205 54.7034 96.0104 50.7234 98.517C46.7434 101.024 36.4202 108.544 25.8037 106.48C25.8037 106.48 17.1038 98.517 15.6271 90.8504C15.6271 90.8504 14.5938 96.897 15.6271 102.354C16.6604 107.81 22.7037 117.1 35.5336 116.953C48.3634 116.807 68.5666 102.207 74.6098 93.5071C80.6564 84.8072 93.4863 66.0773 88.7664 47.6475C84.0464 29.2144 62.5166 33.6377 58.0933 37.031L58.0967 37.0243Z" fill="#FFC68C"/>
<path d="M80.5101 46.7575C80.5101 46.7575 69.8203 35.2543 51.4604 37.3576C51.4604 37.3576 60.197 47.8642 68.3803 49.6341C76.5635 51.4041 80.5101 46.7575 80.5101 46.7575Z" fill="#722B03"/>
<path d="M67.7164 65.3373C67.7164 65.3373 69.9297 56.2674 64.8398 53.5041C59.7532 50.7408 50.2399 47.6408 47.1433 50.5174C44.0467 53.3941 38.1834 66.5539 38.1834 66.5539C38.1834 66.5539 37.5201 70.5339 39.0667 72.6372C40.6167 74.7372 45.8133 79.0505 45.8133 79.0505C45.8133 79.0505 47.4733 79.7138 48.91 79.7138C50.3466 79.7138 61.4065 75.9538 63.6198 73.8505C65.8331 71.7505 67.7131 65.3339 67.7131 65.3339L67.7164 65.3373Z" fill="#722B03"/>
<path d="M16.7305 63.014L25.6904 64.2306C25.6904 64.2306 27.7903 63.8973 29.007 62.794C30.2237 61.6873 40.2869 50.6274 40.2869 50.6274C40.2869 50.6274 42.5002 44.9875 42.6102 43.5508C42.7202 42.1142 42.3902 39.1276 42.3902 39.1276C42.3902 39.1276 29.3403 44.5475 24.9171 49.1908C20.4938 53.8374 16.7338 63.014 16.7338 63.014H16.7305Z" fill="#722B03"/>
<path d="M14.6303 71.0906C14.6303 71.0906 26.3535 73.6339 28.7868 75.4039C31.2201 77.1739 33.3201 81.5972 33.3201 81.5972C33.3201 81.5972 36.0834 85.9105 35.6434 88.5638C35.2034 91.2171 33.6534 96.9703 33.6534 96.9703C33.6534 96.9703 30.2235 101.284 29.6735 101.947C29.1202 102.61 25.3602 105.817 25.3602 105.817C25.3602 105.817 16.6236 96.9704 15.297 90.0004C13.9703 83.0338 13.197 75.2906 14.6336 71.0873L14.6303 71.0906Z" fill="#722B03"/>
<path d="M38.5204 105.154C38.5204 105.154 57.8736 97.5237 63.4035 87.1271C63.4035 87.1271 61.3035 83.9205 57.3202 84.0305C53.3369 84.1405 43.3837 88.4538 43.3837 88.4538C43.3837 88.4538 41.0604 92.7671 40.7304 94.3171C40.3971 95.867 38.5171 105.157 38.5171 105.157L38.5204 105.154Z" fill="#722B03"/>
<path d="M87.883 44.9876C87.883 44.9876 90.243 44.2509 90.243 43.0709C90.243 43.0709 84.493 30.5377 86.113 24.9344C87.733 19.3312 93.3396 16.8245 98.0562 17.4145C102.776 18.0045 104.546 20.2178 104.546 20.2178C104.546 20.2178 112.509 15.3512 117.229 15.3512C121.949 15.3512 127.993 19.1845 129.616 24.0511C131.239 28.9177 132.123 37.6176 125.046 44.8442C117.969 52.0708 108.676 55.0208 108.676 55.0208C108.676 55.0208 104.106 68.294 95.2563 70.504C87.883 72.4206 86.703 70.6507 86.703 70.6507C86.703 70.6507 93.1929 57.5274 87.883 44.9909V44.9876Z" fill="#4BA6A6"/>
<path d="M91.423 86.2772C91.423 86.2772 105.58 90.9971 115.459 83.9172C115.459 83.9172 114.723 72.7106 110.593 67.5474C110.593 67.5474 103.373 70.764 100.566 70.2007L97.7596 69.6407L96.2896 70.4973L91.423 86.2772Z" fill="#4BA6A6"/>
<path d="M68.7132 82.8871C68.7132 82.8871 71.2198 87.4571 77.4131 87.6071C83.6064 87.7538 87.7696 81.4505 87.883 79.0538C87.9963 76.6572 87.4396 67.994 81.2464 66.6673C78.1497 65.784 74.7564 65.4873 73.4298 66.5206L72.3965 66.6673C72.3965 66.6673 64.8765 64.454 60.0099 65.194C55.1433 65.9307 49.8334 70.5039 49.8334 70.5039C49.8334 70.5039 44.6734 82.7438 56.3233 86.4304C56.3233 86.4304 66.4999 82.7438 68.7098 82.8905L68.7132 82.8871Z" fill="#4BA6A6"/>
<path d="M65.6166 102.94C65.6166 102.94 58.54 99.8437 54.1134 101.907C49.6901 103.97 47.0368 107.954 47.3302 113.41C47.3302 113.41 53.5234 123.437 52.9334 134.057C52.9334 134.057 63.6967 137.597 75.9365 130.077C75.9365 130.077 75.4932 116.657 65.6133 102.944L65.6166 102.94Z" fill="#4BA6A6"/>
<path d="M21.8201 120.047C21.8201 120.047 24.6234 123.88 35.9766 123.733C47.3298 123.587 50.1331 120.047 50.1331 120.047L47.7732 114.147C47.7732 114.147 39.9566 117.39 34.5 117.097C29.0433 116.803 22.5567 113.703 22.5567 113.703C22.5567 113.703 21.9667 118.127 21.8201 120.043V120.047Z" fill="#4BA6A6"/>
<path d="M78.4464 87.6771C78.4464 87.6771 71.6998 98.2937 65.6166 102.94L70.2632 111.014C70.2632 111.014 82.5398 101.834 87.6264 93.3171C92.713 84.8005 95.343 76.4573 96.2896 70.4973C96.2896 70.4973 89.6163 71.1973 87.183 71.1973C87.183 71.1973 89.6163 77.3906 86.6297 82.1472C83.6431 86.9038 78.4464 87.6771 78.4464 87.6771Z" fill="#D18000"/>
<path d="M50.4634 82.9238C50.4634 82.9238 54.3333 80.7105 54.0033 79.2738C53.67 77.8372 52.2334 76.6205 52.2334 76.6205C52.2334 76.6205 54.6666 74.5205 54.4467 73.0805C54.2267 71.6406 52.4567 71.0906 51.6834 71.0906C50.91 71.0906 49.25 71.9739 49.25 71.9739C49.25 71.9739 47.7001 78.9405 50.4667 82.9238H50.4634Z" fill="#FFC68C"/>
<path d="M115.273 80.4905C115.273 80.4905 113.283 71.6439 111.18 69.6506C111.18 69.6506 108.303 70.8673 108.416 72.8573C108.53 74.8472 111.403 75.5106 111.403 75.5106C111.403 75.5106 109.633 76.9472 110.186 78.8272C110.74 80.7072 114.166 80.8172 115.273 80.4872V80.4905Z" fill="#FFC68C"/>
<path d="M102.499 38.5743C106.439 38.5743 109.633 35.3806 109.633 31.441C109.633 27.5014 106.439 24.3077 102.499 24.3077C98.5599 24.3077 95.3662 27.5014 95.3662 31.441C95.3662 35.3806 98.5599 38.5743 102.499 38.5743Z" fill="#FFFAF0"/>
<path d="M113.246 46.0941C113.246 46.0941 113.69 48.2308 114.87 48.2308C116.05 48.2308 116.05 45.7241 116.05 45.7241L113.246 46.0941Z" fill="#FFC68C"/>
<path d="M96.7294 36.4342C96.7294 36.4342 97.7627 28.7677 105.799 25.671C105.799 25.671 100.639 22.6477 97.1727 26.1877C93.7061 29.7276 95.1828 35.4043 96.7294 36.4376V36.4342Z" fill="#D18000"/>
<path d="M52.4535 129.043C52.4535 129.043 48.0302 131.033 47.9202 133.69C47.8102 136.347 50.4635 138.337 52.4535 138.557C52.4535 138.557 48.2502 143.423 52.0101 150.833C52.0101 150.833 66.61 151.606 81.0965 149.063C93.703 146.85 98.1297 141.21 98.1297 141.21C98.1297 141.21 100.12 126.17 90.0564 126.28C85.0798 126.39 82.6465 133.07 82.2032 133.247C81.7598 133.423 79.8798 132.913 79.8798 132.913C79.8798 132.913 81.4298 130.923 80.4332 129.153C79.4365 127.383 75.6766 126.057 75.6766 126.057L75.9332 130.077C75.9332 130.077 71.0299 133.91 64.1733 134.353C57.3167 134.797 52.9301 134.06 52.9301 134.06L52.4501 129.047L52.4535 129.043Z" fill="#FFC68C"/>
<path d="M68.7131 150.72C68.7131 150.72 67.5331 144.01 65.9098 142.756C64.2865 141.503 60.3065 139.513 60.3065 139.513L51.9 138.85C51.9 138.85 49.54 147.183 52.01 150.83C52.01 150.83 66.1298 151.383 68.7098 150.72H68.7131Z" fill="#D18000"/>
<path d="M89.2095 126.313C89.2095 126.313 87.9562 127.64 88.1029 131.18C88.2495 134.72 90.9062 143.123 90.7562 145.78C90.7562 145.78 97.6128 142.463 98.1294 141.21C98.1294 141.21 99.6794 125.653 89.2095 126.317V126.313Z" fill="#D18000"/>
<path d="M67.0898 144.526L68.7132 150.72C68.7132 150.72 79.0364 149.686 81.0997 149.06C83.163 148.433 90.7596 145.78 90.7596 145.78L89.7263 142.83C89.7263 142.83 85.9663 144.303 83.533 144.303C81.0997 144.303 69.5965 143.05 67.0898 144.523V144.526Z" fill="#722B03"/>
<path d="M23.147 59.1441C23.147 59.1441 29.3403 48.1942 35.9769 45.8709L32.4369 30.091L27.5703 25.6677L21.2304 26.2577L2.50391 46.3142L3.24055 52.0641L8.25385 56.7841L23.147 59.1441Z" fill="#50EEF6"/>
<path d="M23.0004 26.111C23.0004 26.111 22.4104 25.2277 21.2304 26.2577C20.0504 27.291 2.50391 46.3142 2.50391 46.3142L13.7105 49.1175L13.1205 36.4343L14.1538 35.6976L26.3937 35.4043L23.0004 26.1144V26.111Z" fill="#CCF6FF"/>
<path d="M23.8838 38.9409L16.8038 46.9042L28.6037 51.1808L23.8838 38.9409Z" fill="#CCF6FF"/>
<path d="M16.0667 103.604C16.0667 103.604 8.4368 101.39 6.22349 104.71C6.22349 104.71 4.45352 120.967 4.56352 127.16C4.67352 133.353 6.44349 138 6.99682 138.33C7.55015 138.663 13.4101 142.753 17.0601 143.087C20.71 143.42 24.1366 142.867 24.1366 142.867C24.1366 142.867 29.9999 137.227 26.68 132.58C23.3633 127.933 19.8234 127.05 19.8234 127.05L20.5967 125.833C20.5967 125.833 24.91 124.507 25.7933 122.627L21.7 120.637C21.7 120.637 22.0333 114.663 22.5833 113.227C22.5833 113.227 16.9434 107.807 16.0567 103.604H16.0667Z" fill="#FFC68C"/>
<path d="M5.00708 115.88C5.00708 115.88 14.7403 117.98 17.1736 114.997L18.3903 109.247L16.067 103.607C16.067 103.607 11.2004 101.617 6.33375 104.05L5.00708 115.884V115.88Z" fill="#D18000"/>
<path d="M24.3635 130.147C24.3635 130.147 21.0469 130.037 19.4969 133.797C17.9469 137.557 15.9569 142.533 15.9569 142.533C15.9569 142.533 22.0402 143.97 24.1402 142.867C26.2401 141.763 30.7767 134.793 24.3601 130.147H24.3635Z" fill="#D18000"/>
<path d="M6.22413 137.447L7.77412 139.107C7.77412 139.107 7.44077 132.25 7.8841 131.253C8.32743 130.257 10.5374 123.843 10.5374 122.293C10.5374 120.743 10.6474 116.653 10.6474 116.653L5.00746 115.88C5.00746 115.88 3.57082 130.59 6.22413 137.447Z" fill="#722B03"/>
<path d="M92.0134 5.76121C92.0134 5.76121 84.1968 2.07458 80.2169 1.92792C76.2369 1.78125 75.7936 5.02455 75.7936 5.61455C75.7936 6.20454 76.0869 9.44783 80.9535 9.30117C85.8201 9.1545 92.0134 5.76121 92.0134 5.76121Z" fill="#50EEF6"/>
<path d="M56.9167 6.3513C56.9167 6.3513 49.1002 2.66467 45.1202 2.51801C41.1402 2.37134 40.6969 5.61464 40.6969 6.20463C40.6969 6.79463 40.9902 10.0379 45.8569 9.89126C50.7235 9.7446 56.9167 6.3513 56.9167 6.3513Z" fill="#50EEF6"/>
<path d="M69.3033 22.7211C69.3033 22.7211 61.4867 19.0344 57.5068 18.8878C53.5268 18.7411 53.0835 21.9844 53.0835 22.5744C53.0835 23.1644 53.3768 26.4077 58.2434 26.261C63.1101 26.1143 69.3033 22.7211 69.3033 22.7211Z" fill="#50EEF6"/>
<path d="M78.0767 65.4473C82.6133 54.0707 80.8033 46.7975 80.8033 46.7975" stroke="#002140" stroke-width="0.99999" stroke-linecap="round" stroke-linejoin="round"/>
<path d="M25.9535 106.66C25.9535 106.66 41.65 110.66 63.4064 87.4837C64.7231 86.0837 65.9431 84.7004 67.0731 83.3438" stroke="#002140" stroke-width="0.99999" stroke-linecap="round" stroke-linejoin="round"/>
<path d="M35.3402 42.2875C50.0467 33.9209 68.3999 35.1543 80.6264 46.6308" stroke="#002140" stroke-width="0.99999" stroke-linecap="round" stroke-linejoin="round"/>
<path d="M25.9671 106.644C25.6604 106.377 25.3604 106.104 25.0604 105.824C12.2139 93.7637 10.2272 74.2372 19.0705 58.6107" stroke="#002140" stroke-width="0.99999" stroke-linecap="round" stroke-linejoin="round"/>
<path d="M67.5496 65.244C67.7496 63.9673 67.8996 62.684 67.9896 61.394C68.0896 60.0107 68.1196 58.5874 67.6796 57.2741C67.293 56.1108 66.553 55.0908 65.683 54.2308C61.8964 50.4875 56.0997 49.8875 50.7831 49.6108C49.8198 49.5608 48.8032 49.5242 47.9398 49.9542C46.9532 50.4441 46.3432 51.4441 45.7865 52.3941C44.0632 55.3308 42.3399 58.2674 40.6166 61.204C39.3766 63.3174 38.1066 65.514 37.8199 67.9473C37.2599 72.7106 41.6999 75.7006 44.8965 78.3872C45.4932 78.8905 46.1132 79.4039 46.8598 79.6239C47.4298 79.7939 48.0265 79.7772 48.6198 79.7072" stroke="#002140" stroke-width="0.99999" stroke-linecap="round" stroke-linejoin="round"/>
<path d="M51.2866 37.2943C54.9799 41.5576 59.0165 45.7342 64.1332 48.1075C69.2498 50.4808 75.6997 50.7175 80.2363 47.3642C80.3963 47.2475 80.563 47.1075 80.5963 46.9109" stroke="#002140" stroke-width="0.99999" stroke-linecap="round" stroke-linejoin="round"/>
<path d="M52.9065 85.1604C52.3598 85.2871 51.8165 85.4271 51.2765 85.5737C49.6165 86.0237 47.9698 86.5271 46.3432 87.0871C45.2465 87.4637 44.1299 87.8804 43.2699 88.6537C42.5399 89.3104 42.0399 90.1837 41.6466 91.0803C39.7366 95.4636 40.1932 100.57 38.4299 105.014" stroke="#002140" stroke-width="0.99999" stroke-linecap="round" stroke-linejoin="round"/>
<path d="M63.5369 86.9737C62.7236 86.1404 61.707 85.5437 60.6036 85.1604" stroke="#002140" stroke-width="0.99999" stroke-linecap="round" stroke-linejoin="round"/>
<path d="M25.0867 105.864C26.6167 104.56 28.0966 103.197 29.52 101.777C30.7133 100.587 31.8733 99.3503 32.7499 97.9137C34.1966 95.5437 34.7932 92.7637 35.3666 90.0471C35.5965 88.9571 35.8266 87.8371 35.6632 86.7338C35.5099 85.7071 35.0232 84.7638 34.5299 83.8538C33.6732 82.2705 32.7699 80.7072 31.8266 79.1738C31.1399 78.0605 30.4233 76.9439 29.4566 76.0605C27.9766 74.7039 26.03 73.9872 24.1133 73.3806C20.9834 72.3939 17.7834 71.6206 14.5468 71.0673" stroke="#002140" stroke-width="0.99999" stroke-linecap="round" stroke-linejoin="round"/>
<path d="M17.3007 63.244C19.8273 63.6473 22.3706 63.964 24.9206 64.1873C25.7373 64.2606 26.5906 64.3173 27.3506 64.0006C28.0439 63.714 28.5772 63.1473 29.0872 62.5973C32.1272 59.3174 35.1672 56.0341 38.2038 52.7541C39.1571 51.7274 40.1204 50.6841 40.7871 49.4508C41.5604 48.0275 41.9071 46.4175 42.2038 44.8275C42.5604 42.9309 42.8637 40.9742 42.4671 39.0842" stroke="#002140" stroke-width="0.99999" stroke-linecap="round" stroke-linejoin="round"/>
<path d="M22.8238 58.7808L8.79727 56.9141C8.35394 56.8541 7.94062 56.6574 7.61395 56.3508L3.92399 52.8875C3.56066 52.5441 3.32733 52.0875 3.264 51.5908L2.71068 47.1575C2.63068 46.5242 2.84067 45.8876 3.28066 45.4209L21.1405 26.5044C21.5505 26.0711 22.1171 25.8278 22.7138 25.8311L26.9404 25.8611C27.4804 25.8644 28.0004 26.0711 28.3938 26.4411L32.0537 29.8777C32.367 30.171 32.5837 30.5544 32.677 30.971L35.8903 45.3309" stroke="#002140" stroke-width="0.99999" stroke-linecap="round" stroke-linejoin="round"/>
<path d="M22.1573 60.5007C22.1573 60.5007 28.0406 49.5874 37.3239 45.0575" stroke="#002140" stroke-width="0.99999" stroke-linecap="round" stroke-linejoin="round"/>
<path d="M7.61389 56.3541L32.2703 30.0844" stroke="#002140" stroke-width="0.99999" stroke-linecap="round" stroke-linejoin="round"/>
<path d="M16.7134 47.0075L27.8399 50.9741C28.1133 51.0708 28.3766 50.8074 28.2799 50.5341L24.1633 39.0742" stroke="#002140" stroke-width="0.99999" stroke-linecap="round" stroke-linejoin="round"/>
<path d="M3.02734 46.4041L12.7306 49.0875C13.0673 49.1808 13.4006 48.9175 13.3872 48.5675L12.9239 36.4109C12.9139 36.1209 13.1406 35.8809 13.4306 35.8742L26.1405 35.6276C26.5071 35.6209 26.7505 35.2442 26.6071 34.9076L22.7171 25.8344" stroke="#002140" stroke-width="0.99999" stroke-linecap="round" stroke-linejoin="round"/>
<path d="M119.143 29.601L123.066 28.3077C123.066 28.3077 122.226 23.6744 119.39 24.5144C116.556 25.3544 118.536 29.0644 119.143 29.601Z" fill="#002140"/>
<path d="M106.936 26.251C106.219 26.2544 105.373 25.971 104.866 26.4777C104.559 26.7844 104.523 27.261 104.509 27.6944C105.553 28.3177 106.663 28.8277 107.816 29.2077C108.053 29.2843 108.323 29.3543 108.536 29.231C108.899 29.0177 108.796 28.471 108.639 28.081C108.469 27.6544 108.289 27.2244 108.003 26.8677C107.716 26.511 107.303 26.231 106.843 26.2044" fill="#002140"/>
<path d="M87.2198 70.9206C103.046 74.0339 108.77 54.8274 108.77 54.8274" stroke="#002140" stroke-width="0.99999" stroke-linecap="round" stroke-linejoin="round"/>
<path d="M108.766 54.8241C112.223 54.6941 138.413 41.6943 129.233 23.6478C120.726 7.39128 104.513 20.2045 104.513 20.2045C104.513 20.2045 96.7531 14.4779 89.8299 19.5311C79.1766 26.5744 93.7065 45.9576 92.5632 51.0408" stroke="#002140" stroke-width="0.99999" stroke-linecap="round" stroke-linejoin="round"/>
<path d="M117.633 31.1644C117.633 31.1644 120.19 27.8677 125.163 28.5077" stroke="#002140" stroke-width="0.99999" stroke-linecap="round" stroke-linejoin="round"/>
<path d="M122.973 28.281C122.973 28.281 122.403 23.1411 119.146 24.5211C115.886 25.9011 119.27 29.6144 119.27 29.6144" stroke="#002140" stroke-width="0.99999" stroke-linecap="round" stroke-linejoin="round"/>
<path d="M108.05 40.7942C108.05 40.7942 111.353 43.6808 109.923 50.3341" stroke="#002140" stroke-width="0.99999" stroke-linecap="round" stroke-linejoin="round"/>
<path d="M110.38 45.9542C110.38 45.9542 128.813 46.8142 131.156 32.2244" stroke="#002140" stroke-width="0.99999" stroke-linecap="round" stroke-linejoin="round"/>
<path d="M102.179 38.8542C106.185 38.8542 109.433 35.6068 109.433 31.6009C109.433 27.5951 106.185 24.3477 102.179 24.3477C98.1735 24.3477 94.9261 27.5951 94.9261 31.6009C94.9261 35.6068 98.1735 38.8542 102.179 38.8542Z" stroke="#002140" stroke-width="0.99999" stroke-linecap="round" stroke-linejoin="round"/>
<path d="M104.86 26.7178C102.463 26.4678 100.31 28.1011 99.8629 30.4244L103.22 31.0544L100.646 33.9844C101.386 35.0144 102.543 35.7377 103.903 35.8777C106.433 36.141 108.696 34.3044 108.963 31.7744C109.226 29.2444 107.39 26.9811 104.86 26.7144V26.7178Z" fill="#002140"/>
<path d="M113.003 45.9375C113.136 46.6542 113.336 47.4108 113.869 47.9075C114.406 48.4041 115.376 48.4908 115.809 47.9042C116.269 47.2808 115.779 45.8975 116.333 45.4575" stroke="#002140" stroke-width="0.99999" stroke-linecap="round" stroke-linejoin="round"/>
<path d="M96.6396 36.2843C97.6063 31.041 102.926 25.5178 106.72 25.9411" stroke="#002140" stroke-width="0.99999" stroke-linecap="round" stroke-linejoin="round"/>
<path d="M47.77 114.153C37.8234 118.18 28.4002 118.09 22.0536 112.933C16.1136 108.107 13.967 99.7336 15.2803 90.0237" stroke="#002140" stroke-width="0.99999" stroke-linecap="round" stroke-linejoin="round"/>
<path d="M78.8067 87.5837C77.4734 89.5604 76.0267 91.517 74.4634 93.437C71.6101 96.947 68.5635 100.117 65.4102 102.904" stroke="#002140" stroke-width="0.99999" stroke-linecap="round" stroke-linejoin="round"/>
<path d="M57.3901 36.811C67.23 32.901 76.5366 33.0377 82.8232 38.1476C90.8065 44.6342 91.9365 57.5208 87.0332 71.4506" stroke="#002140" stroke-width="0.99999" stroke-linecap="round" stroke-linejoin="round"/>
<path d="M69.9431 22.7544C69.9431 22.7544 52.9833 14.0178 52.9833 22.4978C52.9833 30.9777 69.9431 22.7544 69.9431 22.7544Z" stroke="#002140" stroke-width="0.99999" stroke-linecap="round" stroke-linejoin="round"/>
<path d="M92.6863 5.79458C92.6863 5.79458 75.7264 -2.942 75.7264 5.53791C75.7264 14.0178 92.6863 5.79458 92.6863 5.79458Z" stroke="#002140" stroke-width="0.99999" stroke-linecap="round" stroke-linejoin="round"/>
<path d="M57.7368 6.23464C57.7368 6.23464 40.777 -2.50194 40.777 5.97798C40.777 14.4579 57.7368 6.23464 57.7368 6.23464Z" stroke="#002140" stroke-width="0.99999" stroke-linecap="round" stroke-linejoin="round"/>
<path d="M47.2899 112.897C50.2232 117.837 53.4498 125.433 52.6099 134.087" stroke="#002140" stroke-width="0.99999" stroke-linecap="round" stroke-linejoin="round"/>
<path d="M65.6334 103.094C70.96 110.82 75.77 121.213 75.9833 130.18" stroke="#002140" stroke-width="0.99999" stroke-linecap="round" stroke-linejoin="round"/>
<path d="M21.587 120.21C25.9937 124.687 43.4968 125.637 50.5901 119.77" stroke="#002140" stroke-width="0.99999" stroke-linecap="round" stroke-linejoin="round"/>
<path d="M90.243 42.9176C90.2264 44.0509 89.133 45.0509 88.0031 44.9643" stroke="#002140" stroke-width="0.99999" stroke-linecap="round" stroke-linejoin="round"/>
<path d="M65.44 102.937C65.44 102.937 58.5101 99.1036 52.7568 102.494C47.0069 105.887 47.0069 111.34 47.4469 113.997" stroke="#002140" stroke-width="0.99999" stroke-linecap="round" stroke-linejoin="round"/>
<path d="M78.2801 69.2406C78.2801 69.2406 69.6935 64.2073 61.7736 64.994C53.8536 65.7806 49.9637 70.5239 49.9637 70.5239C49.9637 70.5239 44.2837 82.2938 55.8236 86.2471C59.6269 86.4304 66.8135 80.7838 77.2634 83.6771" stroke="#002140" stroke-width="0.99999" stroke-linecap="round" stroke-linejoin="round"/>
<path d="M97.7564 69.644C101.056 71.4706 110.416 67.3973 110.416 67.3973C110.416 67.3973 115.873 76.0972 115.43 83.9138C115.43 83.9138 103.436 91.4838 91.3298 86.1538" stroke="#002140" stroke-width="0.99999" stroke-linecap="round" stroke-linejoin="round"/>
<path d="M49.1636 77.3938C49.1636 77.3938 52.8802 75.7605 53.9102 78.2871C54.9402 80.8138 51.0136 82.5271 51.0136 82.5271" stroke="#002140" stroke-width="0.99999" stroke-linecap="round" stroke-linejoin="round"/>
<path d="M49.6036 71.6406C49.6036 71.6406 53.3203 70.0073 54.3503 72.534C55.3802 75.0606 51.4536 76.7739 51.4536 76.7739" stroke="#002140" stroke-width="0.99999" stroke-linecap="round" stroke-linejoin="round"/>
<path d="M113.193 74.7005C113.193 74.7005 109.409 76.1738 108.489 73.6072C107.569 71.0372 111.563 69.4939 111.563 69.4939" stroke="#002140" stroke-width="0.99999" stroke-linecap="round" stroke-linejoin="round"/>
<path d="M114.816 80.0072C114.816 80.0072 111.033 81.4805 110.113 78.9138C109.193 76.3472 113.186 74.8005 113.186 74.8005" stroke="#002140" stroke-width="0.99999" stroke-linecap="round" stroke-linejoin="round"/>
<path d="M52.6134 134.087C52.6134 134.087 66.1433 136.557 75.9865 130.18" stroke="#002140" stroke-width="0.99999" stroke-linecap="round" stroke-linejoin="round"/>
<path d="M75.9067 126.013C78.6134 126.823 80.3767 128.147 80.6234 129.843C81.17 133.56 74.2401 137.657 65.1435 138.993C56.047 140.33 48.2337 138.403 47.687 134.687C47.4004 132.727 49.1904 130.66 52.2837 128.95" stroke="#002140" stroke-width="0.99999" stroke-linecap="round" stroke-linejoin="round"/>
<path d="M60.1798 139.45C63.3964 140.41 67.3731 141.99 68.3531 150.39" stroke="#002140" stroke-width="0.99999" stroke-linecap="round" stroke-linejoin="round"/>
<path d="M22.3806 113.594C21.7806 116.037 21.4606 118.653 21.6339 121.323" stroke="#002140" stroke-width="0.99999" stroke-linecap="round" stroke-linejoin="round"/>
<path d="M25.6404 122.67C23.9504 125.407 21.2671 126.153 19.6638 125.543C16.4371 124.317 16.0105 117.417 18.5005 109.637" stroke="#002140" stroke-width="0.99999" stroke-linecap="round" stroke-linejoin="round"/>
<path d="M21.1873 125.847C19.984 127.003 18.2073 127.32 16.5407 127.41C14.3574 127.527 12.1607 127.353 10.0208 126.893" stroke="#002140" stroke-width="0.99999" stroke-linecap="round" stroke-linejoin="round"/>
<path d="M15.8571 103.404C13.8938 102.694 9.5305 101.587 6.45387 104.307C6.45387 104.307 2.14391 125.717 6.45387 137.263C6.45387 137.263 12.5771 144.96 24.1404 142.797C26.507 141.653 32.3503 133.143 19.7471 126.933" stroke="#002140" stroke-width="0.99999" stroke-linecap="round" stroke-linejoin="round"/>
<path d="M17.1903 115.107C16.037 116.057 14.4403 116.22 12.9437 116.27C10.507 116.353 8.06707 116.247 5.64709 115.96" stroke="#002140" stroke-width="0.99999" stroke-linecap="round" stroke-linejoin="round"/>
<path d="M24.3735 130.117C22.9902 129.897 21.6436 130.677 20.7536 131.603C17.8236 134.657 18.1869 139.16 15.9536 142.613" stroke="#002140" stroke-width="0.99999" stroke-linecap="round" stroke-linejoin="round"/>
<path d="M10.5102 116.337C10.9536 130.55 6.4736 127.84 8.13358 138.457" stroke="#002140" stroke-width="0.99999" stroke-linecap="round" stroke-linejoin="round"/>
<path d="M79.8034 132.833C80.3634 133.147 80.9234 133.607 81.7634 133.423C83.4434 133.053 83.5134 126.787 89.6333 126.21C92.6133 125.83 99.5399 128.263 98.1399 141.533C98.1399 141.533 85.9634 152.886 51.8104 150.823C48.8704 144.187 52.2304 138.583 52.2304 138.583" stroke="#002140" stroke-width="0.99999" stroke-linecap="round" stroke-linejoin="round"/>
<path d="M89.3767 126.387C88.21 128.117 87.9367 130.407 88.1633 132.53C88.4067 134.803 89.1533 136.973 89.7033 139.187C90.24 141.357 90.59 143.577 90.7466 145.813" stroke="#002140" stroke-width="0.99999" stroke-linecap="round" stroke-linejoin="round"/>
<path d="M66.7533 144.053C74.4299 142.91 82.5298 145.533 89.9131 143.003" stroke="#002140" stroke-width="0.99999" stroke-linecap="round" stroke-linejoin="round"/>
<path d="M70.4531 110.75C80.7764 103.377 92.2762 91.4337 95.9629 70.4939" stroke="#002140" stroke-width="0.99999" stroke-linecap="round" stroke-linejoin="round"/>
<path d="M78.8065 88.4304C78.8065 88.4304 82.5965 91.8137 86.8098 93.3204" stroke="#002140" stroke-width="0.99999" stroke-linecap="round" stroke-linejoin="round"/>
<path d="M73.1364 66.7039C74.4431 66.1106 75.8864 65.7839 77.4064 65.7839C83.2563 65.7839 87.9963 70.6505 87.9963 76.6538C87.9963 82.6571 83.2563 87.5237 77.4064 87.5237C73.9198 87.5237 70.8265 85.7937 68.8965 83.1271" stroke="#002140" stroke-width="0.99999" stroke-linecap="round" stroke-linejoin="round"/>
<path d="M87.4333 80.7805C87.4333 80.7805 90.0333 82.2172 92.5766 82.3305" stroke="#002140" stroke-width="0.99999" stroke-linecap="round" stroke-linejoin="round"/>
<path d="M71.5065 97.3704C71.5065 97.3704 74.7698 102.68 78.0331 104.284" stroke="#002140" stroke-width="0.99999" stroke-linecap="round" stroke-linejoin="round"/>
</svg>
