<svg xmlns="http://www.w3.org/2000/svg" xmlns:xlink="http://www.w3.org/1999/xlink" id="Layer_1" x="0" y="0" version="1.1" viewBox="0 0 20 20" style="enable-background:new 0 0 20 20" xml:space="preserve"><path d="M3,0.5h4c0.552,0,1,0.448,1,1c0,0.552-0.448,1-1,1H5v2c0,0.552-0.448,1-1,1s-1-0.448-1-1V0.5z"/><path d="M1,10c0-0.552,0.448-1,1-1h16c0.552,0,1,0.448,1,1c0,0.552-0.448,1-1,1H2C1.448,11,1,10.552,1,10z"/><path d="M5,15.5c0-0.552-0.448-1-1-1s-1,0.448-1,1v4h4c0.552,0,1-0.448,1-1s-0.448-1-1-1H5V15.5z"/><path d="M12,1.5c0-0.552,0.448-1,1-1h4v4c0,0.552-0.448,1-1,1c-0.552,0-1-0.448-1-1v-2h-2C12.448,2.5,12,2.052,12,1.5z"/><path d="M17,15.5c0-0.552-0.448-1-1-1c-0.552,0-1,0.448-1,1v2h-2c-0.552,0-1,0.448-1,1s0.448,1,1,1h4V15.5z"/></svg>