<?xml version="1.0" encoding="UTF-8"?>
<svg id="Layer_1" xmlns="http://www.w3.org/2000/svg" version="1.1" viewBox="0 0 20 20">
  <!-- Generator: Adobe Illustrator 30.3.0, SVG Export Plug-In . SVG Version: 2.1.3 Build 182)  -->
  <path d="M18,3c1.1,0,2,.9,2,2v11c0,1.1-.9,2-2,2H2C.9,18,0,17.1,0,16V5c0-1.1.9-2,2-2h16ZM14,5c-.55,0-1,.45-1,1v9c0,.55.45,1,1,1h3c.55,0,1-.45,1-1V6c0-.55-.45-1-1-1h-3ZM6.71,7.79c-.39-.39-1.02-.39-1.41,0-.39.39-.39,1.02,0,1.41l1.29,1.29-1.29,1.29c-.39.39-.39,1.02,0,1.41.39.39,1.02.39,1.41,0l2.71-2.71-2.71-2.71Z"/>
</svg>