<?xml version="1.0" encoding="utf-8"?>
<!-- Generator: Adobe Illustrator 24.3.0, SVG Export Plug-In . SVG Version: 6.00 Build 0)  -->
<svg version="1.1" id="Layer_1" xmlns="http://www.w3.org/2000/svg" xmlns:xlink="http://www.w3.org/1999/xlink" x="0px" y="0px"
	 viewBox="0 0 20 20" style="enable-background:new 0 0 20 20;" xml:space="preserve">
<g>
	<path d="M19.5,8.6L16.9,6c-0.5-0.5-1.2-0.5-1.8,0s-0.5,1.2,0,1.8l0.9,1H9.2C8.6,8.8,8,9.3,8,10c0,0.7,0.6,1.2,1.2,1.2H16l-1,1
		c-0.5,0.5-0.5,1.2,0,1.8c0.2,0.2,0.6,0.4,0.9,0.4s0.6-0.1,0.9-0.4l2.6-2.6C20.1,10.6,20.1,9.4,19.5,8.6z"/>
	<path d="M10.2,15c0,0.8-0.5,1.2-1.2,1.2H5.2C4.5,16.2,4,15.8,4,15V5c0-0.8,0.5-1.2,1.2-1.2H9c0.8,0,1.2,0.5,1.2,1.2v2.2h2.5V5
		c0-2.1-1.6-3.8-3.8-3.8H5.2C3.1,1.2,1.5,2.9,1.5,5v10c0,2.1,1.6,3.8,3.8,3.8H9c2.1,0,3.8-1.6,3.8-3.8v-2.2h-2.5V15z"/>
</g>
</svg>
