<svg width="205" height="204" viewBox="0 0 205 204" fill="none" xmlns="http://www.w3.org/2000/svg">
<path d="M41.7324 158.177C43.3893 158.177 44.7324 159.52 44.7324 161.177V180.489H63.7588L63.9131 180.493C65.4982 180.574 66.7588 181.884 66.7588 183.489C66.7588 185.094 65.4982 186.405 63.9131 186.485L63.7588 186.489H41.7324C40.0756 186.489 38.7324 185.146 38.7324 183.489C38.7324 183.443 38.7333 183.398 38.7354 183.353C38.7333 183.307 38.7324 183.262 38.7324 183.216V161.177C38.7324 159.52 40.0756 158.177 41.7324 158.177ZM159.608 158.177C161.265 158.177 162.608 159.52 162.608 161.177V183.216C162.608 183.275 162.606 183.334 162.603 183.393C162.604 183.425 162.607 183.457 162.607 183.489C162.607 185.094 161.347 186.405 159.762 186.485L159.607 186.489H137.568C135.912 186.489 134.568 185.146 134.568 183.489C134.568 181.832 135.912 180.489 137.568 180.489H156.608V161.177C156.608 159.52 157.952 158.177 159.608 158.177ZM63.9131 17.0342C65.4982 17.1146 66.7588 18.4252 66.7588 20.0303C66.7588 21.6353 65.4982 22.946 63.9131 23.0264L63.7588 23.0303H44.7324V42.3311C44.7321 43.9876 43.3891 45.3311 41.7324 45.3311C40.0758 45.3311 38.7328 43.9876 38.7324 42.3311V20.3047C38.7324 20.2587 38.7333 20.2125 38.7354 20.167C38.7333 20.1217 38.7324 20.0761 38.7324 20.0303C38.7324 18.3734 40.0756 17.0303 41.7324 17.0303H63.7588L63.9131 17.0342ZM159.762 17.0342C161.347 17.1147 162.607 18.4253 162.607 20.0303C162.607 20.0623 162.604 20.0942 162.603 20.126C162.606 20.185 162.608 20.2448 162.608 20.3047V42.3311C162.608 43.9876 161.265 45.3311 159.608 45.3311C157.952 45.3311 156.609 43.9876 156.608 42.3311V23.0303H137.568C135.912 23.0303 134.568 21.6871 134.568 20.0303C134.568 18.3734 135.912 17.0303 137.568 17.0303H159.607L159.762 17.0342Z" fill="#F68DFE"/>
<path d="M44.7324 180.489H44.2324C44.2324 180.765 44.4563 180.989 44.7324 180.989V180.489ZM63.7588 180.489L63.7714 179.989H63.7588V180.489ZM63.9131 180.493L63.9384 179.994L63.9257 179.993L63.9131 180.493ZM63.9131 186.485L63.9257 186.985L63.9384 186.985L63.9131 186.485ZM63.7588 186.489V186.989L63.7714 186.989L63.7588 186.489ZM38.7354 183.353L39.2348 183.375C39.2355 183.36 39.2355 183.345 39.2348 183.33L38.7354 183.353ZM38.7324 183.216H38.2324V183.216L38.7324 183.216ZM162.608 183.216L163.108 183.216V183.216H162.608ZM162.603 183.393L162.103 183.364C162.103 183.378 162.102 183.393 162.103 183.408L162.603 183.393ZM159.762 186.485L159.774 186.985L159.787 186.985L159.762 186.485ZM159.607 186.489V186.989L159.62 186.989L159.607 186.489ZM156.608 180.489V180.989C156.885 180.989 157.108 180.765 157.108 180.489H156.608ZM63.9131 17.0342L63.9384 16.5347L63.9257 16.5343L63.9131 17.0342ZM63.9131 23.0264L63.9257 23.5264L63.9384 23.5257L63.9131 23.0264ZM63.7588 23.0303V23.5304L63.7714 23.5301L63.7588 23.0303ZM44.7324 23.0303V22.5303C44.4563 22.5303 44.2324 22.7541 44.2324 23.0303H44.7324ZM44.7324 42.3311L45.2324 42.3312V42.3311H44.7324ZM38.7324 42.3311H38.2324V42.3312L38.7324 42.3311ZM38.7354 20.167L39.2348 20.1895C39.2355 20.1745 39.2355 20.1595 39.2348 20.1446L38.7354 20.167ZM63.7588 17.0303L63.7714 16.5303H63.7588V17.0303ZM159.762 17.0342L159.787 16.5347L159.774 16.5343L159.762 17.0342ZM162.603 20.126L162.103 20.1103C162.102 20.1253 162.103 20.1403 162.103 20.1552L162.603 20.126ZM162.608 42.3311L163.108 42.3312V42.3311H162.608ZM156.608 42.3311H156.108V42.3312L156.608 42.3311ZM156.608 23.0303H157.108C157.108 22.7541 156.885 22.5303 156.608 22.5303V23.0303ZM159.607 17.0303L159.62 16.5303H159.607V17.0303ZM41.7324 158.177V158.677C43.1131 158.677 44.2324 159.796 44.2324 161.177H44.7324H45.2324C45.2324 159.244 43.6654 157.677 41.7324 157.677V158.177ZM44.7324 161.177H44.2324V180.489H44.7324H45.2324V161.177H44.7324ZM44.7324 180.489V180.989H63.7588V180.489V179.989H44.7324V180.489ZM63.7588 180.489L63.7461 180.989L63.9004 180.993L63.9131 180.493L63.9257 179.993L63.7714 179.989L63.7588 180.489ZM63.9131 180.493L63.8878 180.993C65.2083 181.059 66.2588 182.152 66.2588 183.489H66.7588H67.2588C67.2588 181.617 65.7881 180.088 63.9384 179.994L63.9131 180.493ZM66.7588 183.489H66.2588C66.2588 184.827 65.2083 185.919 63.8878 185.986L63.9131 186.485L63.9384 186.985C65.7881 186.891 67.2588 185.362 67.2588 183.489H66.7588ZM63.9131 186.485L63.9004 185.986L63.7461 185.989L63.7588 186.489L63.7714 186.989L63.9257 186.985L63.9131 186.485ZM63.7588 186.489V185.989H41.7324V186.489V186.989H63.7588V186.489ZM41.7324 186.489V185.989C40.3517 185.989 39.2324 184.87 39.2324 183.489H38.7324H38.2324C38.2324 185.422 39.7994 186.989 41.7324 186.989V186.489ZM38.7324 183.489H39.2324C39.2324 183.45 39.2332 183.412 39.2348 183.375L38.7354 183.353L38.2359 183.33C38.2334 183.384 38.2324 183.437 38.2324 183.489H38.7324ZM38.7354 183.353L39.2348 183.33C39.2332 183.293 39.2324 183.255 39.2324 183.216L38.7324 183.216L38.2324 183.216C38.2324 183.268 38.2334 183.321 38.2359 183.375L38.7354 183.353ZM38.7324 183.216H39.2324V161.177H38.7324H38.2324V183.216H38.7324ZM38.7324 161.177H39.2324C39.2324 159.796 40.3517 158.677 41.7324 158.677V158.177V157.677C39.7994 157.677 38.2324 159.244 38.2324 161.177H38.7324ZM159.608 158.177V158.677C160.989 158.677 162.108 159.796 162.108 161.177H162.608H163.108C163.108 159.244 161.541 157.677 159.608 157.677V158.177ZM162.608 161.177H162.108V183.216H162.608H163.108V161.177H162.608ZM162.608 183.216L162.108 183.216C162.108 183.262 162.106 183.31 162.103 183.364L162.603 183.393L163.102 183.422C163.105 183.358 163.108 183.289 163.108 183.216L162.608 183.216ZM162.603 183.393L162.103 183.408C162.104 183.436 162.106 183.464 162.107 183.475C162.108 183.49 162.107 183.491 162.107 183.489H162.607H163.107C163.107 183.455 163.105 183.424 163.104 183.407C163.103 183.385 163.102 183.381 163.102 183.377L162.603 183.393ZM162.607 183.489H162.107C162.107 184.827 161.057 185.919 159.736 185.986L159.762 186.485L159.787 186.985C161.637 186.891 163.107 185.362 163.107 183.489H162.607ZM159.762 186.485L159.749 185.986L159.595 185.989L159.607 186.489L159.62 186.989L159.774 186.985L159.762 186.485ZM159.607 186.489V185.989H137.568V186.489V186.989H159.607V186.489ZM137.568 186.489V185.989C136.188 185.989 135.068 184.87 135.068 183.489H134.568H134.068C134.068 185.422 135.635 186.989 137.568 186.989V186.489ZM134.568 183.489H135.068C135.068 182.109 136.188 180.989 137.568 180.989V180.489V179.989C135.635 179.989 134.068 181.556 134.068 183.489H134.568ZM137.568 180.489V180.989H156.608V180.489V179.989H137.568V180.489ZM156.608 180.489H157.108V161.177H156.608H156.108V180.489H156.608ZM156.608 161.177H157.108C157.108 159.796 158.228 158.677 159.608 158.677V158.177V157.677C157.675 157.677 156.108 159.244 156.108 161.177H156.608ZM63.9131 17.0342L63.8878 17.5335C65.2083 17.6005 66.2588 18.6929 66.2588 20.0303H66.7588H67.2588C67.2588 18.1575 65.7881 16.6286 63.9384 16.5348L63.9131 17.0342ZM66.7588 20.0303H66.2588C66.2588 21.3676 65.2083 22.4601 63.8878 22.527L63.9131 23.0264L63.9384 23.5257C65.7881 23.4319 67.2588 21.903 67.2588 20.0303H66.7588ZM63.9131 23.0264L63.9004 22.5265L63.7461 22.5304L63.7588 23.0303L63.7714 23.5301L63.9257 23.5262L63.9131 23.0264ZM63.7588 23.0303V22.5303H44.7324V23.0303V23.5303H63.7588V23.0303ZM44.7324 23.0303H44.2324V42.3311H44.7324H45.2324V23.0303H44.7324ZM44.7324 42.3311L44.2324 42.331C44.2321 43.7116 43.1128 44.8311 41.7324 44.8311V45.3311V45.8311C43.6653 45.8311 45.232 44.2637 45.2324 42.3312L44.7324 42.3311ZM41.7324 45.3311V44.8311C40.352 44.8311 39.2327 43.7116 39.2324 42.331L38.7324 42.3311L38.2324 42.3312C38.2328 44.2637 39.7995 45.8311 41.7324 45.8311V45.3311ZM38.7324 42.3311H39.2324V20.3047H38.7324H38.2324V42.3311H38.7324ZM38.7324 20.3047H39.2324C39.2324 20.265 39.2332 20.2263 39.2348 20.1895L38.7354 20.167L38.2359 20.1445C38.2334 20.1986 38.2324 20.2524 38.2324 20.3047H38.7324ZM38.7354 20.167L39.2348 20.1446C39.2332 20.1077 39.2324 20.0696 39.2324 20.0303H38.7324H38.2324C38.2324 20.0826 38.2334 20.1357 38.2359 20.1894L38.7354 20.167ZM38.7324 20.0303H39.2324C39.2324 18.6496 40.3517 17.5303 41.7324 17.5303V17.0303V16.5303C39.7994 16.5303 38.2324 18.0973 38.2324 20.0303H38.7324ZM41.7324 17.0303V17.5303H63.7588V17.0303V16.5303H41.7324V17.0303ZM63.7588 17.0303L63.7461 17.5301L63.9004 17.534L63.9131 17.0342L63.9257 16.5343L63.7714 16.5304L63.7588 17.0303ZM159.762 17.0342L159.736 17.5335C161.057 17.6006 162.107 18.693 162.107 20.0303H162.607H163.107C163.107 18.1576 161.637 16.6287 159.787 16.5348L159.762 17.0342ZM162.607 20.0303H162.107C162.107 20.0278 162.108 20.0289 162.107 20.0439C162.106 20.0492 162.105 20.0608 162.105 20.0705C162.104 20.0813 162.103 20.095 162.103 20.1103L162.603 20.126L163.102 20.1417C163.102 20.1377 163.103 20.1343 163.104 20.1125C163.105 20.0956 163.107 20.0648 163.107 20.0303H162.607ZM162.603 20.126L162.103 20.1552C162.107 20.2084 162.108 20.2578 162.108 20.3047H162.608H163.108C163.108 20.2318 163.105 20.1616 163.102 20.0967L162.603 20.126ZM162.608 20.3047H162.108V42.3311H162.608H163.108V20.3047H162.608ZM162.608 42.3311L162.108 42.331C162.108 43.7116 160.989 44.8311 159.608 44.8311V45.3311V45.8311C161.541 45.8311 163.108 44.2637 163.108 42.3312L162.608 42.3311ZM159.608 45.3311V44.8311C158.228 44.8311 157.109 43.7116 157.108 42.331L156.608 42.3311L156.108 42.3312C156.109 44.2637 157.676 45.8311 159.608 45.8311V45.3311ZM156.608 42.3311H157.108V23.0303H156.608H156.108V42.3311H156.608ZM156.608 23.0303V22.5303H137.568V23.0303V23.5303H156.608V23.0303ZM137.568 23.0303V22.5303C136.188 22.5303 135.068 21.411 135.068 20.0303H134.568H134.068C134.068 21.9633 135.635 23.5303 137.568 23.5303V23.0303ZM134.568 20.0303H135.068C135.068 18.6496 136.188 17.5303 137.568 17.5303V17.0303V16.5303C135.635 16.5303 134.068 18.0973 134.068 20.0303H134.568ZM137.568 17.0303V17.5303H159.607V17.0303V16.5303H137.568V17.0303ZM159.607 17.0303L159.595 17.5301L159.749 17.534L159.762 17.0342L159.774 16.5343L159.62 16.5304L159.607 17.0303Z" fill="black"/>
<path d="M66.0312 125.311C67.7678 124.812 69.5779 125.767 70.1577 127.458L70.2096 127.623L70.4644 128.499C71.7482 132.848 73.1649 136.782 74.5488 139.987C76.0602 143.487 77.4248 145.86 78.4015 147.009C79.6094 148.43 79.4367 150.561 78.0156 151.769C76.639 152.94 74.5959 152.814 73.3714 151.513L73.2552 151.384L72.9452 151.005C71.3941 149.047 69.8219 146.078 68.3479 142.665C66.8407 139.175 65.3349 134.979 63.9857 130.408L63.7186 129.489L63.6749 129.321C63.2687 127.581 64.2946 125.81 66.0312 125.311ZM79.1682 64.4757C80.7666 63.6771 82.7279 64.2643 83.6162 65.8377C84.5329 67.4618 83.9591 69.5214 82.335 70.4382C77.062 73.4151 72.6647 77.3176 69.7248 81.4902C67.3559 84.8526 66.0508 89.9142 65.7567 96.1789C65.4657 102.375 66.1798 109.371 67.4922 116.254C67.8415 118.086 66.6398 119.855 64.8077 120.204C63.033 120.542 61.3179 119.425 60.8948 117.689L60.8577 117.519L60.607 116.162C59.3872 109.362 58.7069 102.32 59.01 95.8623C59.3303 89.042 60.7643 82.4817 64.2034 77.6004C67.7937 72.5045 72.9881 67.9597 79.0149 64.5573L79.1682 64.4757ZM89.714 60.0351C103.633 55.9718 119.98 57.9688 132.263 71.8118L132.845 72.4805L132.955 72.6148C134.045 74.03 133.845 76.0671 132.472 77.2409C131.098 78.4148 129.055 78.2948 127.827 76.9969L127.71 76.8683L127.226 76.3109C116.999 64.7776 103.543 63.0336 91.607 66.5179C89.8166 67.0406 87.9413 66.0129 87.4187 64.2226C86.8963 62.4325 87.924 60.5579 89.714 60.0351Z" fill="#50EEF6" stroke="#002140" stroke-linecap="round"/>
<path d="M124.334 118.032C124.634 116.191 126.369 114.942 128.21 115.242C130.051 115.542 131.3 117.277 131 119.118C130.394 122.84 129.543 127.101 128.393 131.062C127.264 134.95 125.763 138.862 123.722 141.668C121.778 144.342 117.984 148.187 112.927 150.559C107.748 152.988 101.141 153.894 94.1191 150.283C92.4605 149.43 91.8068 147.394 92.6598 145.735C93.5127 144.077 95.549 143.424 97.2075 144.277C102.005 146.744 106.373 146.173 110.059 144.444C113.867 142.658 116.827 139.664 118.259 137.695C119.596 135.857 120.838 132.861 121.907 129.18C122.954 125.572 123.753 121.6 124.334 118.032ZM71.767 97.1955C71.9179 95.3366 73.5472 93.952 75.4061 94.1029C77.2651 94.2538 78.6496 95.8831 78.4987 97.7421C77.9007 105.109 79.6877 114.655 82.2261 123.115C83.4825 127.302 84.8932 131.124 86.2149 134.153C87.5864 137.297 88.7286 139.271 89.3701 140.025C90.5791 141.445 90.4076 143.576 88.9876 144.785C87.5675 145.994 85.4362 145.824 84.2271 144.404C82.885 142.827 81.4151 140.041 80.0248 136.854C78.5847 133.553 77.0835 129.475 75.7574 125.056C73.1307 116.302 71.068 105.805 71.767 97.1955ZM94.8908 71.9215C102.758 70.1626 111.36 71.749 119.832 77.1857C129.989 83.7039 132.84 94.8995 132.247 107.755C132.161 109.618 130.582 111.059 128.719 110.973C126.856 110.887 125.415 109.307 125.501 107.444L125.543 106.34C125.875 95.0516 123.112 87.3165 116.184 82.8704C109.01 78.266 102.232 77.2005 96.3641 78.5122C90.4566 79.833 85.0809 83.6525 80.9391 89.5213C79.8637 91.0448 77.7568 91.4079 76.2331 90.3326C74.7095 89.2572 74.3457 87.1503 75.421 85.6266C80.3476 78.6456 87.0632 73.6714 94.8908 71.9215Z" fill="#50EEF6" stroke="#002140" stroke-linecap="round"/>
<path d="M94.3659 87.0926C100.202 84.8169 107.387 85.8702 112.392 89.1867C113.947 90.217 114.372 92.3125 113.342 93.8672C112.312 95.4217 110.216 95.8464 108.661 94.8162C105.34 92.6152 100.449 91.9696 96.8195 93.3849C95.0858 94.061 93.7064 95.175 92.8209 96.7677C91.9853 98.2707 91.4503 100.453 91.7614 103.569L91.8356 104.204L91.8538 104.377C91.9969 106.158 90.7191 107.758 88.9277 107.994C87.0786 108.237 85.3826 106.935 85.1393 105.086C84.5389 100.523 85.1756 96.6188 86.9177 93.4855C88.6656 90.3417 91.3669 88.262 94.3659 87.0926Z" fill="#50EEF6" stroke="#002140" stroke-linecap="round"/>
<path d="M97.1287 124.89C96.2808 123.578 95.2108 121.434 94.159 117.667C93.6574 115.871 91.7943 114.821 89.9979 115.323C88.2017 115.825 87.1525 117.687 87.654 119.483C88.848 123.759 90.165 126.558 91.4556 128.556C92.6474 130.4 94.0592 131.8 94.3239 132.121C95.5103 133.56 97.6388 133.765 99.0778 132.578C100.472 131.429 100.708 129.396 99.6425 127.961L99.5353 127.824L99.1882 127.416C98.4255 126.545 97.9568 126.172 97.1287 124.89Z" fill="#50EEF6" stroke="#002140" stroke-linecap="round"/>
<path d="M106.639 119.842C106.639 115.927 106.669 112.356 106.28 109.276C105.879 106.105 105.006 103.158 103.019 100.508C101.9 99.0162 99.7834 98.7141 98.2914 99.8328C96.7993 100.952 96.4963 103.069 97.6153 104.561C98.6674 105.964 99.2678 107.66 99.5792 110.124C99.9022 112.679 99.8843 115.736 99.8843 119.842C99.8843 121.707 101.396 123.219 103.261 123.219C105.126 123.219 106.639 121.707 106.639 119.842Z" fill="#50EEF6" stroke="#002140" stroke-linecap="round"/>
<path d="M134.878 149.079C136.677 149.569 138.533 148.508 139.024 146.709C146.591 118.962 146.652 99.4372 141.009 85.2467C140.32 83.5138 138.357 82.6674 136.624 83.3562C134.891 84.0453 134.044 86.0093 134.733 87.7424C139.584 99.9428 139.918 117.763 132.508 144.932C132.018 146.732 133.078 148.588 134.878 149.079Z" fill="#50EEF6" stroke="#002140" stroke-linecap="round"/>
<path d="M117.948 122.008C119.387 115.004 119.528 106.622 118.391 101.019C118.02 99.1909 116.237 98.0095 114.41 98.3803C112.582 98.7512 111.401 100.534 111.771 102.362C112.695 106.913 112.574 111.866 111.282 118.153C110.636 121.296 109.789 126.368 108.75 128.07C107.678 129.824 106.916 129.973 106.639 129.973C104.774 129.973 103.262 131.485 103.262 133.35C103.262 135.215 104.774 136.727 106.639 136.727C110.373 136.727 112.928 134.186 114.513 131.591C116.13 128.944 117.228 125.511 117.948 122.008Z" fill="#50EEF6" stroke="#002140" stroke-linecap="round"/>
<rect x="38.5" y="103" width="124" height="6" rx="3" fill="#F68DFE" stroke="#002140" stroke-linecap="round" stroke-linejoin="round"/>
</svg>
