<?xml version="1.0" encoding="utf-8"?>
<!-- Generator: Adobe Illustrator 26.5.0, SVG Export Plug-In . SVG Version: 6.00 Build 0)  -->
<svg version="1.1" id="Layer_1" xmlns="http://www.w3.org/2000/svg" xmlns:xlink="http://www.w3.org/1999/xlink" x="0px" y="0px"
	 viewBox="0 0 20 20" style="enable-background:new 0 0 20 20;" xml:space="preserve">
<path d="M6.2,1.4C6,1.6,6,2,6.2,2.1S6.8,2.2,6.9,2c0.4-0.4,0.8-0.6,1.2-0.8C8.8,1,9.4,0.9,10,0.9s1.2,0.1,1.9,0.4
	c0.5,0.2,0.9,0.5,1.2,0.8c0.1,0.1,0.4,0.2,0.6,0.1s0.4-0.5,0.1-0.8C13.5,1,13,0.8,12.4,0.5C11.6,0.1,10.9,0,10,0S8.4,0.1,7.6,0.5
	C7.1,0.8,6.6,1,6.2,1.4z"/>
<path d="M7.5,4.2c-0.1-0.1-0.2-0.4,0-0.5c0.2-0.2,0.6-0.5,1-0.8s1-0.4,1.5-0.4c0.5,0,1.1,0.1,1.6,0.4c0.4,0.1,0.6,0.4,0.9,0.8
	c0.1,0.1,0.1,0.5-0.1,0.6c-0.1,0.1-0.4,0-0.5-0.1c-0.2-0.2-0.5-0.4-0.6-0.5c-0.4-0.1-0.9-0.2-1.3-0.2c-0.4,0-0.9,0.1-1.2,0.2
	C8.6,3.9,8.4,4,8.1,4.2C8,4.4,7.7,4.5,7.5,4.2z"/>
<path d="M10,5.2C9,5.2,8.2,6,8.2,7v4.4c0,1,0.8,1.8,1.8,1.8s1.8-0.8,1.8-1.8V7C11.8,6,11,5.2,10,5.2z"/>
<path d="M7,9.6c0-0.2-0.2-0.4-0.4-0.4C6.2,9.1,6.1,9.4,6.1,9.6v1.7c0,2,1.5,3.6,3.5,3.9v2.6H7.9c-0.2,0-0.4,0.2-0.4,0.4
	s0.1,0.5,0.4,0.5h4.4c0.2,0,0.4-0.2,0.4-0.4S12.4,18,12.2,18h-1.9v-2.6c2-0.2,3.5-1.9,3.5-3.9V9.6c0-0.2-0.2-0.4-0.4-0.4
	c-0.2,0-0.4,0.2-0.4,0.4v1.7c0,1.6-1.4,3-3,3s-3-1.4-3-3V9.6H7z"/>
</svg>
