<?xml version="1.0" encoding="utf-8"?>
<!-- Generator: Adobe Illustrator 26.5.0, SVG Export Plug-In . SVG Version: 6.00 Build 0)  -->
<svg version="1.1" id="Layer_1" xmlns="http://www.w3.org/2000/svg" xmlns:xlink="http://www.w3.org/1999/xlink" x="0px" y="0px"
	 viewBox="0 0 20 21" style="enable-background:new 0 0 20 21;" xml:space="preserve">
<style type="text/css">
	.st0{fill-rule:evenodd;clip-rule:evenodd;}
</style>
<path class="st0" d="M4.3,5.2C3.1,5.3,2.2,6.4,2.1,7.7C2,8.8,2,10.1,2,11c0,0.9,0,2.2,0.1,3.3c0.1,1.3,1,2.4,2.2,2.5
	C5.6,16.9,7.6,17,10,17c2.4,0,4.3-0.1,5.7-0.3c1.2-0.1,2.1-1.2,2.2-2.5c0.1-1.2,0.1-2.5,0.1-3.3c0-0.8,0-2.1-0.1-3.2
	c-0.1-1.3-1-2.4-2.2-2.5C14.3,5.1,12.4,5,10,5C7.6,5,5.7,5.1,4.3,5.2L4.3,5.2z M8.4,8.4l4.1,2.5l-4.1,2.5V8.4z"/>
</svg>
