<?xml version="1.0" encoding="utf-8"?>
<!-- Generator: Adobe Illustrator 26.5.0, SVG Export Plug-In . SVG Version: 6.00 Build 0)  -->
<svg version="1.1" id="Layer_1" xmlns="http://www.w3.org/2000/svg" xmlns:xlink="http://www.w3.org/1999/xlink" x="0px" y="0px"
	 viewBox="0 0 20 20" style="enable-background:new 0 0 20 20;" xml:space="preserve">
<path d="M16.2,6.2c-0.5,0.2-1,0.4-1.5,0.4c0.5-0.4,0.9-0.9,1.1-1.4c-0.5,0.2-1,0.5-1.6,0.6C13.9,5.4,13.1,5,12.4,5
	c-1.6,0-2.9,1.5-2.5,3.1c-2.1,0-4-1-5.2-2.6C4,6.6,4.2,8.1,5.5,9C5,8.9,4.6,8.8,4.2,8.6c0,1.2,0.9,2.2,2,2.5
	c-0.2,0.1-0.6,0.1-1.1,0.1c0.4,1,1.2,1.8,2.4,1.8c-1.1,0.9-2.4,1.2-3.8,1c1.1,0.8,2.5,1.1,3.9,1.1c4.8,0,7.5-4,7.2-7.6
	C15.5,7.2,15.9,6.8,16.2,6.2z"/>
</svg>
