<?xml version="1.0" encoding="utf-8"?>
<!-- Generator: Adobe Illustrator 26.5.0, SVG Export Plug-In . SVG Version: 6.00 Build 0)  -->
<svg version="1.1" id="Layer_1" xmlns="http://www.w3.org/2000/svg" xmlns:xlink="http://www.w3.org/1999/xlink" x="0px" y="0px"
	 viewBox="0 0 20 20" style="enable-background:new 0 0 20 20;" xml:space="preserve">
<path d="M10,4.3c1.9,0,2.1,0,2.8,0c0.7,0,1.1,0.1,1.3,0.2c0.3,0.1,0.6,0.3,0.8,0.5c0.2,0.2,0.4,0.5,0.5,0.8c0.1,0.2,0.2,0.6,0.2,1.3
	c0,0.7,0,1,0,2.8c0,1.9,0,2.1,0,2.8c0,0.7-0.1,1.1-0.2,1.3c-0.1,0.3-0.3,0.6-0.5,0.8c-0.2,0.2-0.5,0.4-0.8,0.5
	c-0.2,0.1-0.6,0.2-1.3,0.2c-0.7,0-1,0-2.8,0c-1.9,0-2.1,0-2.8,0c-0.7,0-1.1-0.1-1.3-0.2c-0.3-0.1-0.6-0.3-0.8-0.5
	c-0.2-0.2-0.4-0.5-0.5-0.8c-0.1-0.2-0.2-0.6-0.2-1.3c0-0.7,0-1,0-2.8c0-1.9,0-2.1,0-2.8c0-0.7,0.1-1.1,0.2-1.3
	c0.1-0.3,0.3-0.6,0.5-0.8c0.2-0.2,0.5-0.4,0.8-0.5c0.2-0.1,0.6-0.2,1.3-0.2C7.9,4.3,8.1,4.3,10,4.3z M10,3C8.1,3,7.9,3,7.1,3
	c-0.7,0-1.3,0.2-1.7,0.3C5,3.5,4.6,3.8,4.2,4.2C3.8,4.6,3.5,5,3.4,5.4C3.2,5.9,3.1,6.4,3,7.1c0,0.7,0,1,0,2.9c0,1.9,0,2.1,0,2.9
	c0,0.7,0.2,1.3,0.3,1.7c0.2,0.5,0.4,0.9,0.8,1.2c0.4,0.4,0.8,0.6,1.2,0.8c0.4,0.2,1,0.3,1.7,0.3c0.7,0,1,0,2.9,0c1.9,0,2.1,0,2.9,0
	c0.7,0,1.3-0.2,1.7-0.3c0.5-0.2,0.9-0.4,1.2-0.8c0.4-0.4,0.6-0.8,0.8-1.2c0.2-0.4,0.3-1,0.3-1.7c0-0.7,0-1,0-2.9c0-1.9,0-2.1,0-2.9
	c0-0.7-0.2-1.3-0.3-1.7c-0.2-0.5-0.4-0.9-0.8-1.2c-0.4-0.4-0.8-0.6-1.2-0.8c-0.4-0.2-1-0.3-1.7-0.3C12.1,3,11.9,3,10,3z"/>
<path d="M10,6.4C8,6.4,6.4,8,6.4,10c0,2,1.6,3.6,3.6,3.6c2,0,3.6-1.6,3.6-3.6C13.6,8,12,6.4,10,6.4z M10,12.3c-1.3,0-2.3-1-2.3-2.3
	c0-1.3,1-2.3,2.3-2.3s2.3,1,2.3,2.3C12.3,11.3,11.3,12.3,10,12.3z"/>
<path d="M13.7,7.1c0.5,0,0.8-0.4,0.8-0.8s-0.4-0.8-0.8-0.8s-0.8,0.4-0.8,0.8S13.3,7.1,13.7,7.1z"/>
</svg>
