<?xml version="1.0" encoding="utf-8"?>
<!-- Generator: Adobe Illustrator 26.5.0, SVG Export Plug-In . SVG Version: 6.00 Build 0)  -->
<svg version="1.1" id="Layer_1" xmlns="http://www.w3.org/2000/svg" xmlns:xlink="http://www.w3.org/1999/xlink" x="0px" y="0px"
	 viewBox="0 0 20 20" style="enable-background:new 0 0 20 20;" xml:space="preserve">
<style type="text/css">
	.st0{fill-rule:evenodd;clip-rule:evenodd;}
</style>
<path class="st0" d="M4.3,4.6C3.1,4.7,2.2,5.8,2.1,7.1C2,8.2,2,9.5,2,10.3c0,0.9,0,2.2,0.1,3.3c0.1,1.3,1,2.4,2.2,2.5
	c1.4,0.1,3.3,0.3,5.7,0.3c2.4,0,4.3-0.1,5.7-0.3c1.2-0.1,2.1-1.2,2.2-2.5c0.1-1.2,0.1-2.5,0.1-3.3c0-0.8,0-2.1-0.1-3.2
	c-0.1-1.3-1-2.4-2.2-2.5c-1.3-0.1-3.3-0.2-5.7-0.2C7.6,4.4,5.7,4.5,4.3,4.6L4.3,4.6z M8.4,7.8l4.1,2.5l-4.1,2.5V7.8z"/>
</svg>
