<?xml version="1.0" encoding="utf-8"?>
<!-- Generator: Adobe Illustrator 26.5.0, SVG Export Plug-In . SVG Version: 6.00 Build 0)  -->
<svg version="1.1" id="Layer_1" xmlns="http://www.w3.org/2000/svg" xmlns:xlink="http://www.w3.org/1999/xlink" x="0px" y="0px"
	 viewBox="0 0 20 20" style="enable-background:new 0 0 20 20;" xml:space="preserve">
<path d="M5.1,3.8c-0.8,0-1.5,0.6-1.5,1.5s0.6,1.5,1.5,1.5s1.5-0.6,1.5-1.5C6.8,4.4,6,3.8,5.1,3.8z M3.9,16.2h2.6V8H3.9V16.2z
	 M13.2,7.6c0,0-2-0.1-2.6,1.4V8H8.1v8.2h2.6v-4.5c0-0.1,0-1.8,1.6-1.8c1.4,0,1.4,2,1.4,2v4.2h2.5v-4.9C16.1,11.4,16.5,7.6,13.2,7.6z
	"/>
</svg>
