<?xml version="1.0" encoding="utf-8"?>
<!-- Generator: Adobe Illustrator 26.5.0, SVG Export Plug-In . SVG Version: 6.00 Build 0)  -->
<svg version="1.1" id="Layer_1" xmlns="http://www.w3.org/2000/svg" xmlns:xlink="http://www.w3.org/1999/xlink" x="0px" y="0px"
	 viewBox="0 0 20 21" style="enable-background:new 0 0 20 21;" xml:space="preserve">
<path d="M5.1,4.4C4.4,4.4,3.6,5,3.6,5.9s0.6,1.5,1.5,1.5s1.5-0.6,1.5-1.5C6.8,5,6,4.4,5.1,4.4z M3.9,16.9h2.6V8.6H3.9V16.9z
	 M13.2,8.3c0,0-2-0.1-2.6,1.4v-1H8.1v8.3h2.6v-4.5c0-0.1,0-1.8,1.6-1.8c1.4,0,1.4,2,1.4,2v4.2h2.5V12C16.1,12,16.5,8.3,13.2,8.3z"/>
</svg>
