<?xml version="1.0" encoding="UTF-8"?>
<svg id="Layer_1" xmlns="http://www.w3.org/2000/svg" version="1.1" viewBox="0 0 20 20">
  <!-- Generator: Adobe Illustrator 29.8.1, SVG Export Plug-In . SVG Version: 2.1.1 Build 2)  -->
  <path d="M17.61,10.45c.52.16.52.94,0,1.1-4.24,1.33-5.73,2.82-7.06,7.06-.16.52-.94.52-1.1,0-1.33-4.24-2.82-5.73-7.06-7.06-.52-.16-.52-.94,0-1.1,4.24-1.33,5.73-2.82,7.06-7.06.16-.52.94-.52,1.1,0,1.33,4.24,2.82,5.73,7.06,7.06Z"/>
  <path d="M18.79,3.33c.28.1.28.53,0,.63-1.18.42-1.7.94-2.12,2.12-.1.28-.53.28-.63,0-.42-1.18-.94-1.7-2.12-2.12-.28-.1-.28-.53,0-.63,1.18-.42,1.7-.94,2.12-2.12.1-.28.53-.28.63,0,.42,1.18.94,1.7,2.12,2.12Z"/>
</svg>