<?xml version="1.0" encoding="utf-8"?>
<!-- Generator: Adobe Illustrator 28.1.0, SVG Export Plug-In . SVG Version: 6.00 Build 0)  -->
<svg version="1.1" id="Layer_1" xmlns="http://www.w3.org/2000/svg" xmlns:xlink="http://www.w3.org/1999/xlink" x="0px" y="0px"
	 viewBox="0 0 20 20" style="enable-background:new 0 0 20 20;" xml:space="preserve">
<path d="M17.611,10.449c0.518,0.163,0.518,0.938,0,1.101c-4.238,1.333-5.728,2.823-7.061,7.061c-0.163,0.518-0.938,0.518-1.101,0
	c-1.333-4.238-2.823-5.728-7.061-7.061c-0.518-0.163-0.518-0.938,0-1.101c4.238-1.333,5.728-2.823,7.061-7.061
	c0.163-0.518,0.938-0.518,1.101,0C11.884,7.626,13.374,9.116,17.611,10.449z"/>
<path d="M18.79,3.33c0.28,0.101,0.28,0.534,0,0.634c-1.179,0.424-1.696,0.941-2.119,2.12c-0.101,0.28-0.534,0.28-0.635,0
	c-0.424-1.179-0.941-1.696-2.12-2.12c-0.28-0.101-0.28-0.534,0-0.634c1.179-0.423,1.696-0.941,2.12-2.12
	c0.101-0.28,0.534-0.28,0.635,0C17.094,2.389,17.611,2.906,18.79,3.33z"/>
</svg>
