<svg width="177" height="158" viewBox="0 0 177 158" fill="none" xmlns="http://www.w3.org/2000/svg">
<path d="M94.4726 24.4864C94.666 24.4998 94.8093 24.6698 94.796 24.8664C94.7826 25.0631 94.6126 25.2064 94.4193 25.1931C94.226 25.1798 94.0793 25.0064 94.0926 24.8131C94.106 24.6198 94.276 24.4731 94.4726 24.4864Z" fill="#FED607" stroke="#FED607" stroke-width="0.99999" stroke-miterlimit="10" stroke-linecap="round"/>
<path d="M124.612 114.122H126.966" stroke="#002140" stroke-width="0.99999" stroke-linecap="round" stroke-linejoin="round"/>
<path d="M131.816 114.229H133.872" stroke="#002140" stroke-width="0.99999" stroke-linecap="round" stroke-linejoin="round"/>
<path d="M74.3995 70.7859H62.2096V78.1258H74.3995V70.7859Z" fill="#FFFAF0"/>
<path d="M86.326 92.3123V92.5223H74.3995V92.3123V85.4624H86.326V92.3123Z" fill="#FFFAF0"/>
<path d="M86.326 63.4495H74.3995V70.786H86.326V63.4495Z" fill="#FFFAF0"/>
<path d="M74.3995 41.4363H62.2096V48.7729H74.3995V41.4363Z" fill="#FFFAF0"/>
<path d="M86.326 48.7727H74.3995V56.1093H86.326V48.7727Z" fill="#FFFAF0"/>
<path d="M74.3995 56.1094H62.2096V63.4493H74.3995V56.1094Z" fill="#FFFAF0"/>
<path d="M86.326 78.126H74.3995V85.4626H86.326V78.126Z" fill="#FFFAF0"/>
<path d="M86.326 34.2629V41.4361H74.3995V34.2629V34.0962H86.326V34.2629Z" fill="#FFFAF0"/>
<path d="M86.326 70.7859H74.3995V78.1258H86.326V70.7859Z" fill="#FFFAF0"/>
<path d="M105.636 20.3832V96.5491C105.636 99.4424 103.293 101.786 100.403 101.786H48.4931C45.5998 101.786 43.2565 99.4424 43.2565 96.5491V20.3832C43.2565 17.4932 45.5998 15.1499 48.4931 15.1499H100.403C103.293 15.1499 105.636 17.4932 105.636 20.3832ZM97.6226 92.5225V26.5298H51.5064V92.5225H97.6226ZM50.5664 22.6565V19.0099H46.9164V22.6565H50.5664Z" fill="#5BE3AA"/>
<path d="M74.3995 78.126H62.2096V85.4626H74.3995V78.126Z" fill="#FFFAF0"/>
<path d="M86.326 56.1094H74.3995V63.4493H86.326V56.1094Z" fill="#FFFAF0"/>
<path d="M62.2096 34.0962H74.3995V34.2629V41.4361H62.2096V34.4195V34.0962Z" fill="#FFFAF0"/>
<path d="M62.2096 85.4624H74.3995V92.3123V92.5223H62.2096V92.3123V85.4624Z" fill="#FFFAF0"/>
<path d="M86.326 41.4363H74.3995V48.7729H86.326V41.4363Z" fill="#FFFAF0"/>
<path d="M74.3995 63.4495H62.2096V70.786H74.3995V63.4495Z" fill="#FFFAF0"/>
<path d="M74.3995 48.7727H62.2096V56.1093H74.3995V48.7727Z" fill="#FFFAF0"/>
<path d="M97.6226 26.5298V34.0964H97.346H86.3261H74.3995H62.2096H51.8964H51.5064V26.5298H58.093H97.6226Z" fill="#99F6FF"/>
<path d="M51.8964 63.4495H62.2096V70.786H51.8964H51.5064V63.4495H51.8964Z" fill="#FFFAF0"/>
<path d="M51.8964 85.4624H62.2096V92.3123V92.5223H51.5064V85.4624H51.8964Z" fill="#FFFAF0"/>
<path d="M51.8964 41.4363H62.2096V48.7729H51.8964H51.5064V41.4363H51.8964Z" fill="#FFFAF0"/>
<path d="M62.2096 85.4626H51.8964H51.5064V78.126H51.8964H62.2096V85.4626Z" fill="#FFFAF0"/>
<path d="M62.2096 63.4493H51.8964H51.5064V56.1094H51.8964H62.2096V63.4493Z" fill="#FFFAF0"/>
<path d="M62.2096 41.4361H51.8964H51.5064V34.0962H51.8964H62.2096V34.4195V41.4361Z" fill="#FFFAF0"/>
<path d="M51.8964 70.7859H62.2096V78.1258H51.8964H51.5064V70.7859H51.8964Z" fill="#FFFAF0"/>
<path d="M51.8964 48.7727H62.2096V56.1093H51.8964H51.5064V48.7727H51.8964Z" fill="#FFFAF0"/>
<path d="M86.326 85.4624H97.3459H97.6226V92.5223H86.326V92.3123V85.4624Z" fill="#FFFAF0"/>
<path d="M97.3459 56.1093H86.326V48.7727H97.3459H97.6226V56.1093H97.3459Z" fill="#FFFAF0"/>
<path d="M97.3459 78.1258H86.326V70.7859H97.3459H97.6226V78.1258H97.3459Z" fill="#FFFAF0"/>
<path d="M86.326 56.1094H97.3459H97.6226V63.4493H97.3459H86.326V56.1094Z" fill="#FFFAF0"/>
<path d="M97.3459 85.4626H86.326V78.126H97.3459H97.6226V85.4626H97.3459Z" fill="#FFFAF0"/>
<path d="M86.326 34.0962H97.3459H97.6226V41.4361H97.3459H86.326V34.2629V34.0962Z" fill="#FFFAF0"/>
<path d="M86.326 63.4495H97.3459H97.6226V70.786H97.3459H86.326V63.4495Z" fill="#FFFAF0"/>
<path d="M97.3459 48.7729H86.326V41.4363H97.3459H97.6226V48.7729H97.3459Z" fill="#FFFAF0"/>
<path d="M172.492 84.7658C175.708 90.3724 176.335 96.799 174.705 102.056L174.648 102.036C173.512 98.2756 168.375 96.3723 163.912 98.4323L163.872 98.409C165.072 96.3957 165.135 93.379 163.739 90.4657C164.379 87.5524 168.655 84.2224 172.492 84.7658Z" fill="#99F6FF"/>
<path d="M174.648 102.036L174.705 102.056C173.272 106.686 170.088 110.406 165.389 111.862C164.682 112.079 162.455 112.419 161.655 112.419L161.539 112.359C163.002 109.516 163.069 103.112 160.612 100.569L161.269 100.539C162.392 100.169 163.272 99.4157 163.872 98.409L163.912 98.4324C168.375 96.3724 173.512 98.2757 174.648 102.036Z" fill="#99F6FF"/>
<path d="M172.492 84.7657C168.655 84.2223 164.379 87.5523 163.739 90.4656C162.372 87.6156 159.612 84.869 155.149 83.2557V83.2424C158.565 83.2424 161.389 76.7724 159.859 74.0691L159.882 74.0125C165.809 76.4358 169.955 80.3457 172.492 84.7657Z" fill="#99F6FF"/>
<path d="M160.612 100.569C163.069 103.112 163.002 109.515 161.539 112.359C161.322 112.779 161.072 113.122 160.799 113.362H154.799C156.819 111.592 157.279 104.286 154.902 101.052C154.695 100.769 154.465 100.516 154.212 100.302H160.329C160.425 100.386 160.522 100.476 160.612 100.569Z" fill="#50EEF6"/>
<path d="M159.859 74.0692C161.389 76.7725 158.565 83.2424 155.152 83.2424V83.2558C152.625 82.3424 149.562 81.7924 145.899 81.7924H144.799V81.6458C147.035 79.2425 147.505 73.8325 144.212 71.5292V71.4392H145.582C151.175 71.4392 155.925 72.3925 159.882 74.0125L159.859 74.0692Z" fill="#99F6FF"/>
<path d="M144.682 103.232V103.009C144.682 101.362 143.152 99.5957 140.565 99.5957V99.009H141.505C141.505 99.009 142.329 97.479 143.622 97.479H150.092C151.505 97.479 152.682 100.606 153.035 100.959C153.389 101.312 154.799 101.126 154.799 101.126L154.902 101.052C157.279 104.286 156.819 111.592 154.799 113.362C153.389 115.242 150.565 116.302 148.212 116.302H140.565V103.242H140.682L144.682 103.232Z" fill="#4BA6A6"/>
<path d="M144.212 71.5292C147.505 73.8325 147.035 79.2425 144.799 81.6458V81.7924H131.739V81.6458C134.212 79.1258 134.212 73.9492 131.152 71.5292V71.4392H144.212V71.5292Z" fill="#99F6FF"/>
<path d="M144.682 103.009V103.232L140.682 103.242H140.565V99.5957C143.152 99.5957 144.682 101.362 144.682 103.009Z" fill="#FFFAF0"/>
<path d="M140.566 96.1023C140.316 96.8223 139.312 97.479 137.792 97.9923L137.739 97.8323C135.269 95.3624 125.036 94.7724 120.566 97.5957L120.492 97.789C119.186 97.2723 118.366 96.6357 118.232 95.9457C118.219 95.879 118.212 95.8123 118.212 95.7457C118.212 93.879 123.229 92.3657 129.419 92.3657C135.609 92.3657 140.626 93.879 140.626 95.7457C140.626 95.8657 140.606 95.9857 140.566 96.1023Z" fill="#FFFAF0"/>
<path d="M140.566 116.302V118.065C140.566 125.595 118.212 124.655 118.212 118.302V95.949H118.232C118.366 96.6356 119.186 97.2723 120.492 97.789C122.539 98.6023 125.776 99.1256 129.419 99.1256C132.749 99.1256 135.742 98.6856 137.792 97.9923C139.312 97.479 140.316 96.8223 140.566 96.1023V116.302ZM135.766 106.192C136.882 104.406 137.072 102.682 135.419 102.412C133.092 102.036 132.516 104.169 132.516 104.169C132.516 104.169 131.802 101.806 129.642 102.382C127.969 102.829 128.172 104.502 129.066 105.956C129.959 107.406 132.529 109.975 132.529 109.975C132.529 109.975 134.972 107.462 135.766 106.192Z" fill="#FFFAF0"/>
<path d="M137.739 97.8324L137.792 97.9924C135.742 98.6857 132.749 99.1257 129.419 99.1257C125.776 99.1257 122.539 98.6024 120.492 97.789L120.566 97.5957C125.036 94.7724 135.269 95.3624 137.739 97.8324Z" fill="#780505"/>
<path d="M135.419 102.412C137.072 102.682 136.882 104.405 135.766 106.192C134.972 107.462 132.529 109.975 132.529 109.975C132.529 109.975 129.959 107.405 129.066 105.955C128.172 104.502 127.969 102.829 129.642 102.382C131.802 101.805 132.516 104.169 132.516 104.169C132.516 104.169 133.092 102.035 135.419 102.412Z" fill="#F68DFE"/>
<path d="M131.152 71.5292C134.212 73.9492 134.212 79.1258 131.739 81.6458V81.7924H116.916V81.6458C118.916 79.1258 119.152 73.9858 116.329 71.5292V71.4392H131.152V71.5292Z" fill="#99F6FF"/>
<path d="M126.329 146.539C126.329 149.042 126.446 151.602 126.446 153.002C126.446 154.885 125.859 157.082 123.506 157.082H52.0931C51.4797 157.082 50.6631 157.125 49.7164 157.039L49.7431 156.729V144.539L49.9831 144.425C51.3198 145.659 53.3697 146.655 56.683 146.655H121.506C123.092 146.655 126.316 145.672 125.812 142.869C126.396 144.919 126.329 146.409 126.329 146.539ZM66.9763 151.315C66.9763 149.985 65.8963 148.905 64.5663 148.905C63.2363 148.905 62.153 149.985 62.153 151.315C62.153 152.645 63.233 153.729 64.5663 153.729C65.8996 153.729 66.9763 152.649 66.9763 151.315ZM59.743 151.315C59.743 149.985 58.663 148.905 57.3297 148.905C55.9964 148.905 54.9164 149.985 54.9164 151.315C54.9164 152.645 55.9964 153.729 57.3297 153.729C58.663 153.729 59.743 152.649 59.743 151.315Z" fill="#4BA6A6"/>
<path d="M110.139 140.302H113.609C115.526 140.302 116.752 138.262 115.859 136.562L115.136 135.019L112.632 129.679L110.019 124.095L108.462 120.772C107.829 119.565 105.916 118.812 104.556 118.815H101.349L94.4193 118.822L87.716 118.829H80.6794L73.6428 118.839H66.8562L59.9896 118.849H52.953L48.8964 118.855C47.1697 118.855 45.9864 120.599 46.6197 122.209L47.3997 124.192L49.5697 129.705L51.7397 135.222L52.6797 137.612C53.3163 139.235 54.8797 140.302 56.623 140.302H110.139ZM125.812 142.868C126.316 145.672 123.092 146.655 121.506 146.655H56.683C53.3697 146.655 51.3197 145.658 49.983 144.425C48.8064 143.338 48.1831 142.062 47.7431 141.125C46.7997 139.125 37.2698 114.065 37.2698 114.065H110.799L110.976 114.015C111.246 114.419 111.426 114.732 111.506 114.892C111.889 115.659 121.532 133.182 125.036 140.772C125.376 141.508 125.626 142.215 125.812 142.865V142.868Z" fill="#50EEF6"/>
<path d="M116.329 71.5292C119.152 73.9858 118.916 79.1258 116.916 81.6458V81.7924H111.079V71.4392H116.329V71.5292Z" fill="#99F6FF"/>
<path d="M115.859 136.562C116.752 138.262 115.526 140.302 113.609 140.302H110.139L108.022 135.169H114.819L115.136 135.019L115.859 136.562Z" fill="#99F6FF"/>
<path d="M112.632 129.679L115.136 135.019L114.819 135.169H108.022L105.763 129.679H112.632Z" fill="#99F6FF"/>
<path d="M110.019 124.095L112.632 129.679H105.763L103.499 124.189H109.819L110.019 124.095Z" fill="#99F6FF"/>
<path d="M110.999 15.3964C111.052 15.7698 111.079 16.1498 111.079 16.5364V100.396C111.079 104.279 108.402 107.539 104.793 108.429C104.156 108.589 103.489 108.672 102.803 108.672H46.0898C44.2331 108.672 42.5198 108.059 41.1398 107.029C39.1232 105.519 37.8165 103.109 37.8165 100.396V16.5364C37.8165 11.9665 41.5198 8.26318 46.0898 8.26318H102.803C106.986 8.26318 110.446 11.3665 110.999 15.3964ZM105.636 96.549V20.3831C105.636 17.4931 103.293 15.1498 100.403 15.1498H48.4931C45.5998 15.1498 43.2565 17.4931 43.2565 20.3831V96.549C43.2565 99.4423 45.5998 101.786 48.4931 101.786H100.403C103.293 101.786 105.636 99.4423 105.636 96.549Z" fill="#4ED7DE"/>
<path d="M41.1298 107.042L41.1398 107.029C42.5198 108.059 44.2331 108.672 46.0898 108.672H102.803C103.489 108.672 104.156 108.589 104.793 108.429L104.799 108.459C104.799 108.459 107.136 109.939 108.916 111.595C109.819 112.439 110.522 113.349 110.976 114.015L110.799 114.065H37.2699L23.7433 102.539L23.7333 102.526C26.21 100.286 30.9533 100.929 33.5399 100.929L33.5799 100.882C36.2699 103.189 38.7932 105.246 41.1298 107.042Z" fill="#50EEF6"/>
<path d="M108.023 135.169L110.139 140.302H102.916L100.859 135.169H108.023Z" fill="#99F6FF"/>
<path d="M108.463 120.772L110.019 124.096L109.819 124.189H103.499L101.349 118.969V118.819H104.556C105.916 118.812 107.829 119.566 108.463 120.772Z" fill="#99F6FF"/>
<path d="M110.999 15.3965C110.446 11.3665 106.986 8.26323 102.803 8.26323H46.0897C41.5198 8.26323 37.8165 11.9665 37.8165 16.5365V100.396C37.8165 103.109 39.1231 105.519 41.1398 107.029L41.1298 107.042C38.7931 105.246 36.2698 103.189 33.5799 100.882C32.2832 99.769 30.9499 98.599 29.5832 97.3723C26.8099 94.8824 26.4733 92.5957 26.4733 87.6558V13.1032C26.4733 6.37658 31.9265 0.919968 38.6565 0.919968H87.2327C90.6993 0.919968 94.5259 0.616641 98.2059 2.96995C104.352 6.89991 110.936 10.2699 110.999 15.3965Z" fill="#4BA6A6"/>
<path d="M105.763 129.679L108.022 135.169H100.859L98.6592 129.679H105.763Z" fill="#99F6FF"/>
<path d="M103.499 124.189L105.763 129.679H98.6593L96.4593 124.189H103.499Z" fill="#99F6FF"/>
<path d="M101.349 118.969L103.499 124.189H96.4593L94.4193 119.096V118.822L101.349 118.819V118.969Z" fill="#99F6FF"/>
<path d="M100.859 135.169L102.916 140.302H68.3229V140.112L66.3729 135.169H73.1862H80.0928H87.0761H93.9727H100.859Z" fill="#99F6FF"/>
<path d="M98.6593 129.679L100.859 135.169H93.9726V135.125L91.836 129.679H98.6593Z" fill="#99F6FF"/>
<path d="M96.4593 124.189L98.6593 129.679H91.836L89.6827 124.189H96.4593Z" fill="#99F6FF"/>
<path d="M94.4193 119.095L96.4593 124.189H89.6826L87.716 119.179V118.829L94.4193 118.822V119.095Z" fill="#99F6FF"/>
<path d="M93.9726 135.125V135.169H87.076V135.125L84.9227 129.679H91.836L93.9726 135.125Z" fill="#99F6FF"/>
<path d="M89.6827 124.189L91.836 129.679H84.9227L82.7527 124.189H89.6827Z" fill="#99F6FF"/>
<path d="M87.716 119.179L89.6827 124.189H82.7528L80.6794 118.949V118.832L87.716 118.829V119.179Z" fill="#99F6FF"/>
<path d="M87.076 135.125V135.169H80.0927V135.042L77.9361 129.679H84.9227L87.076 135.125Z" fill="#99F6FF"/>
<path d="M82.7527 124.189L84.9227 129.679H77.9361L75.7261 124.189H82.7527Z" fill="#99F6FF"/>
<path d="M82.7527 124.189H75.7261L73.6428 119.012V118.839L80.6794 118.832V118.949L82.7527 124.189Z" fill="#99F6FF"/>
<path d="M80.0928 135.042V135.169H73.1862V135.032L71.0662 129.679H77.9361L80.0928 135.042Z" fill="#99F6FF"/>
<path d="M77.9361 129.679H71.0662L68.8929 124.189H75.7261L77.9361 129.679Z" fill="#99F6FF"/>
<path d="M73.6429 119.012L75.7262 124.189H68.8929L66.8563 119.042V118.842L73.6429 118.839V119.012Z" fill="#99F6FF"/>
<path d="M73.1862 135.032V135.169H66.3729L64.2096 129.679H71.0662L73.1862 135.032Z" fill="#99F6FF"/>
<path d="M68.8929 124.189L71.0662 129.679H64.2096L62.043 124.189H68.8929Z" fill="#99F6FF"/>
<path d="M66.8562 119.042L68.8929 124.189H62.0429L59.9896 118.979V118.849L66.8562 118.842V119.042Z" fill="#99F6FF"/>
<path d="M68.3229 140.112V140.302H61.2029V139.842L59.3496 135.169H66.3729L68.3229 140.112Z" fill="#99F6FF"/>
<path d="M64.5663 148.905C65.8963 148.905 66.9762 149.985 66.9762 151.315C66.9762 152.645 65.8963 153.728 64.5663 153.728C63.2363 153.728 62.153 152.648 62.153 151.315C62.153 149.982 63.233 148.905 64.5663 148.905Z" fill="#99F6FF"/>
<path d="M64.2096 129.679L66.3729 135.169H59.3496L57.173 129.679H64.2096Z" fill="#99F6FF"/>
<path d="M62.043 124.189L64.2096 129.679H57.173L54.993 124.189H62.043Z" fill="#99F6FF"/>
<path d="M59.9897 118.979L62.043 124.189H54.993L52.9531 119.042V118.852L59.9897 118.849V118.979Z" fill="#99F6FF"/>
<path d="M61.203 139.842V140.302H56.623C54.8797 140.302 53.3164 139.235 52.6797 137.612L51.7397 135.222L51.8731 135.169H59.3497L61.203 139.842Z" fill="#99F6FF"/>
<path d="M57.173 129.679L59.3497 135.169H51.8731L51.7397 135.222L49.5698 129.705L49.6398 129.679H57.173Z" fill="#99F6FF"/>
<path d="M57.3297 148.905C58.663 148.905 59.743 149.985 59.743 151.315C59.743 152.645 58.663 153.728 57.3297 153.728C55.9964 153.728 54.9164 152.648 54.9164 151.315C54.9164 149.982 55.9964 148.905 57.3297 148.905Z" fill="#99F6FF"/>
<path d="M57.173 129.679H49.6398L49.5698 129.705L47.3998 124.192L47.4131 124.189H54.993L57.173 129.679Z" fill="#99F6FF"/>
<path d="M52.953 119.042L54.993 124.189H47.3998L46.6198 122.209C45.9864 120.599 47.1698 118.855 48.8964 118.855H52.953V119.042Z" fill="#99F6FF"/>
<path d="M50.5664 19.0098H46.9164V22.6564H50.5664V19.0098Z" fill="#4ED7DE"/>
<path d="M49.9831 144.425L49.7431 144.539V156.728L49.7164 157.038C48.4864 156.928 47.0364 156.598 45.5065 155.668C43.5131 154.458 22.1334 136.125 22.1334 136.125V106.736C22.1334 104.739 22.7567 103.409 23.7333 102.526L23.7433 102.539L37.2699 114.066C37.2699 114.066 46.7998 139.125 47.7431 141.125C48.1831 142.062 48.8064 143.339 49.9831 144.425Z" fill="#4BA6A6"/>
<path d="M104.793 108.429C104.156 108.589 103.489 108.672 102.803 108.672H46.0898C44.2331 108.672 42.5198 108.059 41.1398 107.029C39.1232 105.519 37.8165 103.109 37.8165 100.396V16.5364C37.8165 11.9665 41.5198 8.26318 46.0898 8.26318H102.803C106.986 8.26318 110.446 11.3665 110.999 15.3964C111.052 15.7698 111.079 16.1498 111.079 16.5364V100.396C111.079 104.279 108.402 107.539 104.793 108.429Z" stroke="#002140" stroke-width="0.99999" stroke-linecap="round" stroke-linejoin="round"/>
<path d="M41.3898 107.242L41.1298 107.042C38.7931 105.246 36.2698 103.189 33.5799 100.882C32.2832 99.769 30.9499 98.599 29.5832 97.3723C26.8099 94.8824 26.4733 92.5957 26.4733 87.6558V13.1032C26.4733 6.37658 31.9265 0.919968 38.6565 0.919968H87.2327C90.6993 0.919968 94.5259 0.616641 98.2059 2.96995C104.352 6.89991 110.936 10.2699 110.999 15.3965V15.5632" stroke="#002140" stroke-width="0.99999" stroke-linecap="round" stroke-linejoin="round"/>
<path d="M100.403 101.786H48.4931C45.5998 101.786 43.2565 99.4424 43.2565 96.5491V20.3832C43.2565 17.4932 45.5998 15.1499 48.4931 15.1499H100.403C103.293 15.1499 105.636 17.4932 105.636 20.3832V96.5491C105.636 99.4424 103.293 101.786 100.403 101.786Z" stroke="#002140" stroke-width="0.99999" stroke-linecap="round" stroke-linejoin="round"/>
<path d="M97.6226 85.4625V92.5225H86.3261H74.3995H62.2096H51.5064V85.4625V78.1259V70.786V63.4494V56.1095V48.7729V41.4363V34.0964V26.5298H58.093H97.6226V34.0964V41.4363V48.7729V56.1095V63.4494V70.786V78.1259V85.4625Z" stroke="#002140" stroke-width="0.99999" stroke-linecap="round" stroke-linejoin="round"/>
<path d="M62.2096 34.4197V41.4363V48.7729V56.1095V63.4494V70.786V78.1259V85.4625V92.3124" stroke="#002140" stroke-width="0.99999" stroke-linecap="round" stroke-linejoin="round"/>
<path d="M51.8964 34.0962H62.2096H74.3995H86.326H97.3459" stroke="#002140" stroke-width="0.99999" stroke-linecap="round" stroke-linejoin="round"/>
<path d="M51.8964 41.4363H62.2096H74.3995H86.326H97.3459" stroke="#002140" stroke-width="0.99999" stroke-linecap="round" stroke-linejoin="round"/>
<path d="M51.8964 48.7727H62.2096H74.3995H86.326H97.3459" stroke="#002140" stroke-width="0.99999" stroke-linecap="round" stroke-linejoin="round"/>
<path d="M51.8964 56.1094H62.2096H74.3995H86.326H97.3459" stroke="#002140" stroke-width="0.99999" stroke-linecap="round" stroke-linejoin="round"/>
<path d="M51.8964 63.4495H62.2096H74.3995H86.326H97.3459" stroke="#002140" stroke-width="0.99999" stroke-linecap="round" stroke-linejoin="round"/>
<path d="M51.8964 70.7859H62.2096H74.3995H86.326H97.3459" stroke="#002140" stroke-width="0.99999" stroke-linecap="round" stroke-linejoin="round"/>
<path d="M51.8964 78.126H62.2096H74.3995H86.326H97.3459" stroke="#002140" stroke-width="0.99999" stroke-linecap="round" stroke-linejoin="round"/>
<path d="M51.8964 85.4624H62.2096H74.3995H86.326H97.3459" stroke="#002140" stroke-width="0.99999" stroke-linecap="round" stroke-linejoin="round"/>
<path d="M50.5664 19.0098H46.9164V22.6564H50.5664V19.0098Z" stroke="#002140" stroke-width="0.99999" stroke-linecap="round" stroke-linejoin="round"/>
<path d="M125.812 142.865C125.626 142.215 125.376 141.509 125.036 140.772C121.532 133.182 111.889 115.659 111.506 114.892C111.426 114.732 111.246 114.419 110.976 114.016C110.522 113.349 109.819 112.439 108.916 111.596C107.136 109.939 104.799 108.459 104.799 108.459" stroke="#002140" stroke-width="0.99999" stroke-linecap="round" stroke-linejoin="round"/>
<path d="M33.5399 100.929C30.9533 100.929 26.21 100.286 23.7333 102.526C22.7567 103.409 22.1334 104.739 22.1334 106.735V136.125C22.1334 136.125 43.5131 154.458 45.5065 155.668C47.0364 156.598 48.4864 156.928 49.7164 157.038C50.6631 157.125 51.4797 157.082 52.0931 157.082H123.506C125.859 157.082 126.446 154.885 126.446 153.002C126.446 151.602 126.329 149.042 126.329 146.538C126.329 146.408 126.396 144.918 125.812 142.868" stroke="#002140" stroke-width="0.99999" stroke-linecap="round" stroke-linejoin="round"/>
<path d="M23.7433 102.539L37.2699 114.066H110.799" stroke="#002140" stroke-width="0.99999" stroke-linecap="round" stroke-linejoin="round"/>
<path d="M37.2698 114.065C37.2698 114.065 46.7997 139.125 47.7431 141.125C48.1831 142.062 48.8064 143.338 49.983 144.425C51.3197 145.658 53.3697 146.655 56.683 146.655H121.506C123.092 146.655 126.316 145.672 125.812 142.868C125.792 142.758 125.769 142.652 125.739 142.538" stroke="#002140" stroke-width="0.99999" stroke-linecap="round" stroke-linejoin="round"/>
<path d="M49.7431 144.539V156.728" stroke="#002140" stroke-width="0.99999" stroke-linecap="round" stroke-linejoin="round"/>
<path d="M59.743 151.315C59.743 152.648 58.663 153.728 57.3297 153.728C55.9964 153.728 54.9164 152.648 54.9164 151.315C54.9164 149.982 55.9964 148.905 57.3297 148.905C58.663 148.905 59.743 149.985 59.743 151.315Z" stroke="#002140" stroke-width="0.99999" stroke-linecap="round" stroke-linejoin="round"/>
<path d="M66.9762 151.315C66.9762 152.648 65.8963 153.728 64.5663 153.728C63.2363 153.728 62.153 152.648 62.153 151.315C62.153 149.982 63.233 148.905 64.5663 148.905C65.8996 148.905 66.9762 149.985 66.9762 151.315Z" stroke="#002140" stroke-width="0.99999" stroke-linecap="round" stroke-linejoin="round"/>
<path d="M52.953 118.852H48.8964C47.1698 118.852 45.9864 120.599 46.6198 122.209L47.3998 124.192L49.5697 129.705L51.7397 135.222L52.6797 137.612C53.3164 139.235 54.8797 140.302 56.623 140.302H113.609C115.526 140.302 116.752 138.262 115.859 136.562L115.136 135.019L112.632 129.679L110.019 124.095L108.462 120.772C107.829 119.565 105.916 118.812 104.556 118.815H101.349L94.4193 118.822L87.716 118.829H80.6794L73.6428 118.839H66.8562L59.9896 118.849H52.953V118.852Z" stroke="#002140" stroke-width="0.99999" stroke-linecap="round" stroke-linejoin="round"/>
<path d="M52.9531 119.042L54.993 124.189L57.173 129.679L59.3497 135.168L61.203 139.842" stroke="#002140" stroke-width="0.99999" stroke-linecap="round" stroke-linejoin="round"/>
<path d="M66.8563 119.042L68.8929 124.189L71.0662 129.679L73.1862 135.032" stroke="#002140" stroke-width="0.99999" stroke-linecap="round" stroke-linejoin="round"/>
<path d="M59.9896 118.979L62.0429 124.189L64.2096 129.679L66.3729 135.169L68.3229 140.112" stroke="#002140" stroke-width="0.99999" stroke-linecap="round" stroke-linejoin="round"/>
<path d="M73.6428 119.012L75.7261 124.189L77.9361 129.679L80.0928 135.042" stroke="#002140" stroke-width="0.99999" stroke-linecap="round" stroke-linejoin="round"/>
<path d="M87.716 119.179L89.6826 124.189L91.836 129.679L93.9726 135.125" stroke="#002140" stroke-width="0.99999" stroke-linecap="round" stroke-linejoin="round"/>
<path d="M94.4193 119.095L96.4593 124.189L98.6593 129.679L100.859 135.169L102.916 140.302L102.919 140.312" stroke="#002140" stroke-width="0.99999" stroke-linecap="round" stroke-linejoin="round"/>
<path d="M101.349 118.969L103.499 124.189L105.763 129.679L108.023 135.169L110.139 140.302L110.142 140.312" stroke="#002140" stroke-width="0.99999" stroke-linecap="round" stroke-linejoin="round"/>
<path d="M80.6794 118.949L82.7528 124.189L84.9227 129.679L87.076 135.125" stroke="#002140" stroke-width="0.99999" stroke-linecap="round" stroke-linejoin="round"/>
<path d="M109.819 124.189H103.499H96.4593H89.6827H82.7527H75.7261H68.8929H62.0429H54.993H47.4131" stroke="#002140" stroke-width="0.99999" stroke-linecap="round" stroke-linejoin="round"/>
<path d="M49.6398 129.679H57.173H64.2096H71.0662H77.9361H84.9227H91.836H98.6593H105.763H112.632" stroke="#002140" stroke-width="0.99999" stroke-linecap="round" stroke-linejoin="round"/>
<path d="M51.873 135.169H59.3496H66.3729H73.1862H80.0928H87.076H93.9726H100.859H108.022H114.819" stroke="#002140" stroke-width="0.99999" stroke-linecap="round" stroke-linejoin="round"/>
<path d="M111.232 81.7925H145.899C149.562 81.7925 152.625 82.3425 155.149 83.2558C159.612 84.8691 162.372 87.6158 163.739 90.4657C165.135 93.379 165.072 96.3957 163.872 98.409C163.272 99.4156 162.392 100.169 161.269 100.539" stroke="#002140" stroke-width="0.99999" stroke-linecap="round" stroke-linejoin="round"/>
<path d="M111.232 71.4392H145.582C151.175 71.4392 155.925 72.3925 159.882 74.0125C165.809 76.4358 169.955 80.3458 172.492 84.7657C175.708 90.3723 176.335 96.7989 174.705 102.056C173.272 106.686 170.089 110.405 165.389 111.862C164.682 112.079 162.455 112.419 161.655 112.419" stroke="#002140" stroke-width="0.99999" stroke-linecap="round" stroke-linejoin="round"/>
<path d="M154.799 113.362H160.799C161.072 113.122 161.322 112.779 161.539 112.359C163.002 109.515 163.069 103.112 160.612 100.569C160.522 100.476 160.425 100.386 160.329 100.302H154.212C154.465 100.516 154.695 100.769 154.902 101.052C157.279 104.286 156.819 111.592 154.799 113.362Z" stroke="#002140" stroke-width="0.99999" stroke-linecap="round" stroke-linejoin="round"/>
<path d="M154.799 101.126C154.799 101.126 153.389 101.312 153.035 100.959C152.682 100.606 151.505 97.479 150.092 97.479H143.622C142.329 97.479 141.505 99.009 141.505 99.009" stroke="#002140" stroke-width="0.99999" stroke-linecap="round" stroke-linejoin="round"/>
<path d="M140.745 116.302H148.212C150.565 116.302 153.389 115.242 154.799 113.362" stroke="#002140" stroke-width="0.99999" stroke-linecap="round" stroke-linejoin="round"/>
<path d="M140.565 99.5957C143.152 99.5957 144.682 101.362 144.682 103.009" stroke="#002140" stroke-width="0.99999" stroke-linecap="round" stroke-linejoin="round"/>
<path d="M140.682 103.242L144.682 103.232L146.915 103.226" stroke="#002140" stroke-width="0.99999" stroke-linecap="round" stroke-linejoin="round"/>
<path d="M140.682 106.499L146.915 106.479" stroke="#002140" stroke-width="0.99999" stroke-linecap="round" stroke-linejoin="round"/>
<path d="M140.682 109.752L146.915 109.736" stroke="#002140" stroke-width="0.99999" stroke-linecap="round" stroke-linejoin="round"/>
<path d="M140.682 113.009L146.915 112.989" stroke="#002140" stroke-width="0.99999" stroke-linecap="round" stroke-linejoin="round"/>
<path d="M118.212 95.9489V118.302C118.212 124.655 140.566 125.595 140.566 118.065V95.7456" stroke="#002140" stroke-width="0.99999" stroke-linecap="round" stroke-linejoin="round"/>
<path d="M118.232 95.9457C118.219 95.879 118.212 95.8123 118.212 95.7457C118.212 93.879 123.229 92.3657 129.419 92.3657C135.609 92.3657 140.626 93.879 140.626 95.7457C140.626 95.8657 140.606 95.9857 140.566 96.1023C140.316 96.8223 139.312 97.479 137.792 97.9923C135.742 98.6857 132.749 99.1257 129.419 99.1257C125.776 99.1257 122.539 98.6023 120.492 97.789C119.186 97.2723 118.366 96.6357 118.232 95.9457Z" stroke="#002140" stroke-width="0.99999" stroke-linecap="round" stroke-linejoin="round"/>
<path d="M120.566 97.5957C125.036 94.7724 135.269 95.3624 137.739 97.8324" stroke="#002140" stroke-width="0.99999" stroke-linecap="round" stroke-linejoin="round"/>
<path d="M116.329 71.5293C119.152 73.9859 118.916 79.1259 116.916 81.6459" stroke="#002140" stroke-width="0.99999" stroke-linecap="round" stroke-linejoin="round"/>
<path d="M131.152 71.5293C134.212 73.9493 134.212 79.1259 131.739 81.6459" stroke="#002140" stroke-width="0.99999" stroke-linecap="round" stroke-linejoin="round"/>
<path d="M144.212 71.5293C147.505 73.8326 147.035 79.2426 144.799 81.6459" stroke="#002140" stroke-width="0.99999" stroke-linecap="round" stroke-linejoin="round"/>
<path d="M163.912 98.4324C168.375 96.3724 173.512 98.2757 174.648 102.036" stroke="#002140" stroke-width="0.99999" stroke-linecap="round" stroke-linejoin="round"/>
<path d="M163.722 90.539C163.725 90.5157 163.732 90.489 163.739 90.4657C164.379 87.5524 168.655 84.2224 172.492 84.7658C172.509 84.7658 172.529 84.7691 172.545 84.7724" stroke="#002140" stroke-width="0.99999" stroke-linecap="round" stroke-linejoin="round"/>
<path d="M155.152 83.2426C158.565 83.2426 161.389 76.7726 159.859 74.0693" stroke="#002140" stroke-width="0.99999" stroke-linecap="round" stroke-linejoin="round"/>
<path d="M123.672 102.539V109.479" stroke="#002140" stroke-width="0.99999" stroke-linecap="round" stroke-linejoin="round"/>
<path d="M122.442 102.169C122.796 102.169 124.786 102.336 124.786 102.336" stroke="#002140" stroke-width="0.99999" stroke-linecap="round" stroke-linejoin="round"/>
<path d="M122.496 109.549L124.966 109.715" stroke="#002140" stroke-width="0.99999" stroke-linecap="round" stroke-linejoin="round"/>
<path d="M132.516 104.169C132.516 104.169 131.802 101.805 129.642 102.382C127.969 102.829 128.172 104.502 129.066 105.955C129.959 107.405 132.529 109.975 132.529 109.975C132.529 109.975 134.972 107.462 135.766 106.192C136.882 104.405 137.072 102.682 135.419 102.412C133.092 102.035 132.516 104.169 132.516 104.169Z" stroke="#002140" stroke-width="0.99999" stroke-linecap="round" stroke-linejoin="round"/>
<path d="M120.079 115.279V111.512L121.509 113.866L122.999 111.762V115.729" stroke="#002140" stroke-width="0.99999" stroke-linecap="round" stroke-linejoin="round"/>
<path d="M124.589 116.062V112.162H127.006V116.062" stroke="#002140" stroke-width="0.99999" stroke-linecap="round" stroke-linejoin="round"/>
<path d="M128.352 112.496H129.379H130.392" stroke="#002140" stroke-width="0.99999" stroke-linecap="round" stroke-linejoin="round"/>
<path d="M129.379 112.496V116.396" stroke="#002140" stroke-width="0.99999" stroke-linecap="round" stroke-linejoin="round"/>
<path d="M131.759 112.412V116.312" stroke="#002140" stroke-width="0.99999" stroke-linecap="round" stroke-linejoin="round"/>
<path d="M133.869 112.412V116.312" stroke="#002140" stroke-width="0.99999" stroke-linecap="round" stroke-linejoin="round"/>
<path d="M138.132 111.909H135.466V113.616H138.055V115.909H135.389" stroke="#002140" stroke-width="0.99999" stroke-linecap="round" stroke-linejoin="round"/>
<path d="M74.3995 34.2629V41.4362V48.7728V56.1094V63.4493V70.7859V78.1258V85.4624V92.3124" stroke="#002140" stroke-width="0.99999" stroke-linecap="round" stroke-linejoin="round"/>
<path d="M86.326 34.2629V41.4362V48.7728V56.1094V63.4493V70.7859V78.1258V85.4624V92.3124" stroke="#002140" stroke-width="0.99999" stroke-linecap="round" stroke-linejoin="round"/>
<path d="M57.8397 124.772C58.5363 125.112 59.0363 125.739 59.0363 126.252C59.0363 127.549 59.153 128.385 59.153 130.269C59.153 132.152 58.5297 133.362 57.2363 133.362H52.3297C50.4464 133.362 50.4464 131.792 50.5664 130.732L50.2997 130.702C47.1631 131.499 43.2765 131.012 41.7432 129.479L41.6432 129.395C42.4298 128.125 42.9798 125.935 42.9165 123.009C42.8465 119.795 41.9498 117.825 41.0798 116.759L41.5065 116.655C42.4465 115.832 43.8598 113.009 46.4464 112.892C49.0364 112.772 50.5664 112.892 52.0931 112.892C53.6197 112.892 54.093 115.126 54.213 115.596V115.919H60.143C62.7329 115.919 64.9463 117.565 64.9463 119.802V128.742C64.9463 130.625 61.3196 130.862 61.3196 128.272C61.3196 125.682 61.203 123.742 61.203 122.449C61.203 121.155 60.7596 119.959 59.4663 119.959H56.9997C57.093 120.295 57.143 120.685 57.143 121.135L56.223 121.475C57.633 121.475 58.4163 122.492 58.4163 124.769H57.8397V124.772Z" fill="#4BA6A6"/>
<path d="M42.9165 123.009C42.9798 125.935 42.4298 128.125 41.6432 129.395C41.1365 130.219 40.5265 130.655 39.9265 130.655C38.3999 130.655 34.5399 131.065 33.7766 130.302C33.0099 129.539 32.6866 128.419 32.6866 128.419V128.382H34.4666C37.1332 124.772 36.3499 119.595 34.1533 117.555H32.4133V117.425C32.7999 115.999 33.3533 115.646 34.6499 115.646C35.9466 115.646 38.9165 115.716 39.6232 115.716C39.9099 115.716 40.4865 116.026 41.0798 116.759C41.9498 117.825 42.8465 119.795 42.9165 123.009Z" fill="#50EEF6"/>
<path d="M34.1532 117.555C36.3499 119.595 37.1332 124.772 34.4666 128.382H23.5767V128.185C26.0466 125.715 26.4466 119.949 23.86 117.715V117.555H34.1532Z" fill="#99F6FF"/>
<path d="M30.4466 71.2827C34.6832 73.166 34.3132 80.486 30.3933 81.7926H18.3301V81.7159C20.2601 79.5893 21.3667 74.4494 17.7434 71.4094V71.2827H30.4466Z" fill="#99F6FF"/>
<path d="M23.86 117.715C26.4466 119.949 26.0466 125.715 23.5766 128.185V128.382H12.0934C7.4368 128.382 4.67683 126.389 3.13684 124.075L3.15351 124.065C5.97681 125.362 13.5067 122.772 14.2134 117.125L14.2367 117.035C15.2201 117.679 16.48 117.555 17.5834 117.555H23.86V117.715Z" fill="#99F6FF"/>
<path d="M17.7434 71.4094C21.3667 74.4494 20.26 79.5893 18.33 81.7159V81.7926H16.9567C14.5901 81.7926 13.4401 82.4259 12.9268 83.7393L12.5668 83.7159C10.0935 80.3026 3.97685 80.7726 1.62354 83.3626H1.42688V80.696C1.42688 74.576 5.50684 71.2827 11.3101 71.2827H17.7434V71.4094Z" fill="#99F6FF"/>
<path d="M14.2368 117.036L14.2134 117.126C13.5068 122.772 5.97684 125.362 3.15353 124.065L3.13686 124.075C1.87354 122.179 1.42688 120.069 1.42688 118.656V109.362H12.5668V112.006C12.5668 115.009 13.2668 116.399 14.2368 117.036Z" fill="#99F6FF"/>
<path d="M12.5668 83.7157L12.9268 83.739C12.6601 84.4257 12.5668 85.299 12.5668 86.3657V95.5956H12.3301C10.3301 94.0689 3.97685 93.8323 1.62354 95.2423H1.42688V83.3624H1.62354C3.97685 80.7724 10.0935 80.3024 12.5668 83.7157Z" fill="#99F6FF"/>
<path d="M12.5668 95.5956V109.362H1.42688V95.2423H1.62354C3.97685 93.8323 10.3301 94.069 12.3301 95.5956H12.5668Z" fill="#99F6FF"/>
<path d="M30.3933 81.7926H16.9567C14.5901 81.7926 13.4401 82.4259 12.9268 83.7393C12.6601 84.4259 12.5668 85.2992 12.5668 86.3659V112.006C12.5668 115.009 13.2668 116.399 14.2368 117.036C15.2201 117.679 16.4801 117.556 17.5834 117.556H34.1532C36.3499 119.596 37.1332 124.772 34.4666 128.382H12.0934C7.43682 128.382 4.67685 126.389 3.13686 124.076C1.87354 122.179 1.42688 120.069 1.42688 118.656V80.696C1.42688 74.576 5.50684 71.2827 11.3101 71.2827H30.4466" stroke="#002140" stroke-width="0.99999" stroke-linecap="round" stroke-linejoin="round"/>
<path d="M30.4466 71.2827C34.6832 73.166 34.3132 80.486 30.3932 81.7926" stroke="#002140" stroke-width="0.99999" stroke-linecap="round" stroke-linejoin="round"/>
<path d="M32.4133 117.425C32.7999 115.999 33.3533 115.646 34.6499 115.646C35.9466 115.646 38.9165 115.716 39.6232 115.716C39.9099 115.716 40.4865 116.026 41.0798 116.759C41.9498 117.825 42.8465 119.795 42.9165 123.009C42.9798 125.935 42.4298 128.125 41.6432 129.395C41.1365 130.219 40.5265 130.655 39.9265 130.655C38.3999 130.655 34.5399 131.065 33.7766 130.302C33.0099 129.539 32.6866 128.419 32.6866 128.419" stroke="#002140" stroke-width="0.99999" stroke-linecap="round" stroke-linejoin="round"/>
<path d="M17.7434 71.4092C21.3667 74.4491 20.2601 79.5891 18.3301 81.7157" stroke="#002140" stroke-width="0.99999" stroke-linecap="round" stroke-linejoin="round"/>
<path d="M1.62354 83.3624C3.97684 80.7724 10.0935 80.3024 12.5668 83.7157" stroke="#002140" stroke-width="0.99999" stroke-linecap="round" stroke-linejoin="round"/>
<path d="M1.62354 95.2423C3.97684 93.8323 10.3301 94.069 12.3301 95.5956" stroke="#002140" stroke-width="0.99999" stroke-linecap="round" stroke-linejoin="round"/>
<path d="M1.62354 109.362H12.0934" stroke="#002140" stroke-width="0.99999" stroke-linecap="round" stroke-linejoin="round"/>
<path d="M3.15356 124.065C5.97687 125.362 13.5068 122.772 14.2135 117.125" stroke="#002140" stroke-width="0.99999" stroke-linecap="round" stroke-linejoin="round"/>
<path d="M23.86 117.715C26.4466 119.949 26.0466 125.715 23.5767 128.185" stroke="#002140" stroke-width="0.99999" stroke-linecap="round" stroke-linejoin="round"/>
<path d="M41.5065 116.655C42.4465 115.832 43.8598 113.009 46.4464 112.892C49.0364 112.772 50.5664 112.892 52.093 112.892C53.6197 112.892 54.093 115.126 54.213 115.596" stroke="#002140" stroke-width="0.99999" stroke-linecap="round" stroke-linejoin="round"/>
<path d="M48.8497 115.919H60.143C62.7329 115.919 64.9462 117.565 64.9462 119.802V128.742C64.9462 130.625 61.3196 130.862 61.3196 128.272C61.3196 125.682 61.2029 123.742 61.2029 122.449C61.2029 121.155 60.7596 119.959 59.4663 119.959H57.0996" stroke="#002140" stroke-width="0.99999" stroke-linecap="round" stroke-linejoin="round"/>
<path d="M41.7432 129.479C43.2765 131.012 47.1631 131.499 50.2997 130.702C51.2664 130.455 52.1631 130.089 52.8964 129.595C53.433 129.235 53.8864 128.802 54.213 128.302" stroke="#002140" stroke-width="0.99999" stroke-linecap="round" stroke-linejoin="round"/>
<path d="M50.5664 130.732C50.4464 131.792 50.4464 133.362 52.3297 133.362H57.2363C58.5296 133.362 59.153 132.149 59.153 130.269C59.153 128.389 59.0363 127.549 59.0363 126.252C59.0363 125.739 58.5363 125.112 57.8396 124.772C57.523 124.619 57.1663 124.522 56.7997 124.522C55.623 124.522 52.9164 124.642 52.9164 124.642" stroke="#002140" stroke-width="0.99999" stroke-linecap="round" stroke-linejoin="round"/>
<path d="M51.9097 121.475H56.223C57.633 121.475 58.4163 122.492 58.4163 124.769" stroke="#002140" stroke-width="0.99999" stroke-linecap="round" stroke-linejoin="round"/>
<path d="M50.6331 118.459H54.9463C56.0063 118.459 56.713 118.959 56.9997 119.962C57.093 120.295 57.143 120.685 57.143 121.135" stroke="#002140" stroke-width="0.99999" stroke-linecap="round" stroke-linejoin="round"/>
<path d="M52.8497 129.595H52.8964H56.093" stroke="#002140" stroke-width="0.99999" stroke-linecap="round" stroke-linejoin="round"/>
<path d="M124.612 114.122H126.966" stroke="#002140" stroke-width="0.99999" stroke-linecap="round" stroke-linejoin="round"/>
<path d="M131.839 114.259L133.789 114.312" stroke="#002140" stroke-width="0.99999" stroke-linecap="round" stroke-linejoin="round"/>
</svg>
