<svg viewBox="0 0 20 20" xmlns="http://www.w3.org/2000/svg"><path d="m11.458 2.9418 1.2135 2.5604c0.2355 0.49948 0.6931 0.84491 1.2224 0.92427l2.714 0.41078c1.3324 0.20073 1.864 1.9046 0.8995 2.8825l-1.9649 1.9933c-0.3835 0.3874-0.5563 0.9476-0.4665 1.4961l0.4643 2.8125c0.2265 1.3794-1.1641 2.432-2.3552 1.7808l-2.4291-1.328c-0.4733-0.2591-1.0385-0.2591-1.5118 0l-2.4291 1.328c-1.191 0.6512-2.5839-0.4014-2.3551-1.7808l0.46429-2.8125c0.08972-0.5485-0.08523-1.1063-0.46653-1.4961l-1.9649-1.9933c-0.96449-0.97795-0.4329-2.6818 0.89944-2.8825l2.714-0.41078c0.52935-0.07936 0.98694-0.42479 1.2224-0.92427l1.2134-2.5604c0.59663-1.2557 2.317-1.2557 2.9114 0h0.0045z"/></svg>
