<svg xmlns="http://www.w3.org/2000/svg" xmlns:xlink="http://www.w3.org/1999/xlink" id="Layer_1" x="0" y="0" version="1.1" viewBox="0 0 20 20" style="enable-background:new 0 0 20 20" xml:space="preserve"><style type="text/css">.st0{fill-rule:evenodd;clip-rule:evenodd}</style><path d="M8,1C7.448,1,7,1.448,7,2s0.448,1,1,1h1v1.071C5.608,4.556,3,7.474,3,11c0,3.866,3.134,7,7,7	c3.866,0,7-3.134,7-7c0-1.572-0.518-3.024-1.394-4.192l0.758-0.758c0.391-0.391,0.391-1.024,0-1.414	c-0.39-0.391-1.024-0.391-1.414,0l-0.758,0.758C13.276,4.707,12.186,4.241,11,4.071V3h1c0.552,0,1-0.448,1-1s-0.448-1-1-1H8z M10,6.5c0.552,0,1,0.448,1,1v3.586l1.707,1.707c0.391,0.391,0.391,1.024,0,1.414c-0.391,0.391-1.024,0.391-1.414,0l-2-2	C9.09,12.004,8.992,11.736,9,11.47V7.5C9,6.948,9.448,6.5,10,6.5z" class="st0"/></svg>