<svg xmlns="http://www.w3.org/2000/svg" xml:space="preserve" id="Layer_1" x="0" y="0" viewBox="0 0 200 48"><style>.st0{fill:#03d47c}.st1{fill:#002e22}</style><path d="M197.299 25.629c-.382 0-.573-.335-.645-.765-.191-1.004.024-5.856.287-8.604.095-1.625.836-2.581 1.816-2.581.765 0 1.243.621 1.243 1.697 0 1.434-1.506 8.461-1.816 9.345-.263.621-.502.908-.885.908m-2.318 3.872c0-1.123.86-2.008 1.888-2.008 1.052 0 1.697.765 1.697 1.673 0 1.123-.813 2.032-1.888 2.032-1.004 0-1.697-.789-1.697-1.697m-9.753 1.864c-2.366 0-4.135-1.984-4.135-5.067 0-3.753 2.558-7.457 6.262-7.457 1.458 0 2.558.645 3.203 1.577l.263-2.079c.096-.956.239-2.557-.096-2.773-1.147-.072-1.649-.263-1.649-.693 0-.263.239-.478.574-.645.836-.406 2.701-.765 3.346-.765.598 0 .86.358.86.837 0 .406-.191 1.625-.525 4.35l-.932 7.696c-.12 1.052-.24 2.605.095 2.82 1.004.072 1.434.215 1.434.621 0 .311-.239.502-.573.669-.717.359-2.271.765-2.94.765-.622 0-.909-.358-.909-.884 0-.263.048-.669.168-1.649-.956 1.578-2.629 2.677-4.446 2.677m-1.41-5.091c0 2.079.932 3.37 2.462 3.37 2.318 0 3.872-3.274 3.872-6.238 0-2.414-1.195-3.227-2.366-3.227-2.51.001-3.968 3.395-3.968 6.095m-9.17 5.115c-2.988 0-4.876-2.079-4.876-5.163 0-3.848 2.94-7.385 6.716-7.385 2.295 0 3.609 1.267 3.609 2.773 0 1.984-2.175 3.657-6.716 4.23l-1.123.167c.262 1.936 1.505 3.131 3.417 3.131 1.626 0 2.677-.956 3.37-1.577.287-.263.478-.406.717-.406s.407.191.407.502c0 .43-.359 1.075-.956 1.697-.885.98-2.486 2.031-4.565 2.031m-2.438-6.477.693-.119c3.418-.526 4.971-1.793 4.971-3.179 0-.837-.669-1.434-1.744-1.434-1.96 0-3.777 2.103-3.92 4.732m-9.89 6.382c-1.912 0-3.202-.956-3.202-3.203 0-.454.047-1.052.095-1.315l.359-2.988c.143-1.076.239-2.51-.048-2.725-.956-.072-1.386-.239-1.386-.622 0-.287.263-.478.549-.645.765-.43 2.486-.765 3.084-.765.525 0 .86.335.86.884 0 .311-.119 1.052-.406 3.346l-.335 2.629a14 14 0 0 0-.119 1.745c0 1.243.43 1.912 1.434 1.912 2.127 0 4.278-3.37 4.278-5.88 0-1.96-1.577-1.96-1.577-3.346 0-.813.573-1.291 1.314-1.291 1.171 0 1.984 1.123 1.984 3.346 0 4.281-3.036 8.918-6.884 8.918m-11.708.095c-3.251 0-5.498-2.223-5.498-5.569 0-3.992 3.06-7.003 6.884-7.003 3.274 0 6.139 2.247 6.139 5.569 0 3.944-3.629 7.003-7.525 7.003m-2.773-5.138c0 2.366 1.1 3.848 2.916 3.848 2.366 0 4.039-3.083 4.039-6.119 0-2.414-1.147-3.872-2.963-3.872-2.367 0-3.992 3.155-3.992 6.143m-9.792 4.899c-.741 0-1.076-.287-1.076-.884 0-.215.096-.717.191-1.578l.622-4.948c.119-1.028.215-2.605-.096-2.725-.932-.024-1.386-.191-1.386-.574 0-.287.263-.478.574-.645.836-.43 2.414-.765 2.987-.765.454 0 .741.382.741.837 0 .191-.024.597-.167 1.936.884-1.912 2.342-2.916 3.489-2.916 1.124 0 1.769.813 1.769 1.745 0 .98-.597 1.577-1.291 1.577-.525 0-.86-.287-1.099-.597-.167-.191-.382-.358-.645-.358-.717 0-2.175 1.338-2.486 4.015v-.024l-.598 4.924c-.095.694-.597.98-1.529.98m-13.679 4.446c-1.673 0-3.39-.239-3.39-.861 0-.454 1.191-.693 2.028-.741.286-.167.43-1.243.573-2.51l.956-7.744c.12-1.028.215-2.533-.071-2.725-.909-.024-1.339-.191-1.339-.574 0-.287.263-.478.55-.645.86-.454 2.462-.765 3.059-.765.478 0 .813.382.813.837 0 .287-.096.693-.239 1.745.86-1.625 2.462-2.773 4.374-2.773 2.27 0 4.063 1.984 4.063 5.019 0 4.422-2.677 7.505-6.095 7.505-1.458 0-2.629-.645-3.298-1.482l-.191 1.625c-.12.908-.311 2.366-.024 2.486 1.314.072 1.72.239 1.72.621 0 .671-1.171.982-3.489.982m2.39-8.867c0 2.175 1.123 3.274 2.534 3.274 2.127 0 3.728-2.772 3.728-5.76 0-2.056-.836-3.609-2.414-3.609-2.175 0-3.848 2.94-3.848 6.095" class="st0"/><path d="M110.974 35.596c-1.673 0-2.773-.239-2.773-.861 0-.454.574-.693 1.411-.741.286-.167.43-1.243.573-2.51l.956-7.744c.12-1.028.215-2.533-.071-2.725-.909-.024-1.339-.191-1.339-.574 0-.287.263-.478.55-.645.86-.454 2.462-.765 3.059-.765.478 0 .813.382.813.837 0 .287-.096.693-.239 1.745.86-1.625 2.462-2.773 4.374-2.773 2.27 0 4.063 1.984 4.063 5.019 0 4.422-2.677 7.505-6.095 7.505-1.458 0-2.629-.645-3.298-1.482l-.191 1.625c-.12.908-.311 2.366-.024 2.486 1.314.072 1.721.239 1.721.621 0 .671-1.172.982-3.49.982m2.39-8.867c0 2.175 1.123 3.274 2.534 3.274 2.127 0 3.728-2.772 3.728-5.76 0-2.056-.836-3.609-2.414-3.609-2.175 0-3.848 2.94-3.848 6.095" class="st0"/><path d="M94.835 31.15c-1.984 0-2.925-.239-2.925-.884 0-.526.511-.741 1.296-.813.55-.239.956-1.004 2.008-2.988 1.96-3.848 4.23-8.222 4.948-9.799.406-.837.454-1.267.597-1.673.215-.813.717-1.171 1.482-1.171.885 0 1.387.478 1.769 1.578.813 2.462 2.199 7.864 3.203 11.568.526 1.96.669 2.295 1.004 2.438.531.072 1.057.263 1.057.717 0 .741-1.147 1.028-3.4 1.028-1.721-.072-2.964-.311-2.964-.956 0-.526.622-.741 1.482-.741.287-.359-.024-1.96-.382-3.657-.024-.167-.072-.311-.096-.478a48 48 0 0 0-3.226-.096c-1.172 0-2.056.024-3.084.096-.119.239-.191.454-.263.597-.526 1.171-1.434 3.155-1.314 3.537 1.076.096 1.577.287 1.577.693 0 .694-.857 1.004-2.769 1.004m3.534-7.409c.837 0 1.53-.024 2.462-.024.908 0 1.745.024 2.701.024a87 87 0 0 0-1.864-6.477 412 412 0 0 0-3.299 6.477" class="st0"/><path d="M0 31.343h10.429v-3.077H3.834v-2.853h5.308v-3.151H3.834v-2.703h6.595v-3.077H0zm23.42-11.585h-4.591l-1.53 2.791-1.607-2.791h-4.718l3.851 5.604-4.105 5.981h4.591l1.835-3.119 1.812 3.119h4.718l-4.107-5.981zm7.232-.282c-1.267 0-2.368.516-3.189 1.501v-1.219h-3.519v16.508h3.753v-5.792c.681.704 1.712 1.149 2.932 1.149 3.072 0 5.208-2.368 5.208-6.073s-2.017-6.073-5.183-6.073zm-.821 9.076c-1.407 0-2.251-1.102-2.251-3.002s.844-3.002 2.251-3.002 2.251 1.079 2.251 3.002c.001 1.923-.843 3.002-2.251 3.002m12.621.14c-1.149 0-2.017-.657-2.228-2.345h7.998v-.493c0-3.612-2.017-6.378-5.935-6.378-2.767 0-5.958 1.501-5.958 6.073 0 3.706 2.393 6.073 6.098 6.073 2.205 0 4.949-.798 5.816-4.221h-3.8c-.165.633-.658 1.29-1.994 1.29zm-.165-6.449c1.08 0 1.806.61 1.923 1.946h-3.917c.282-1.478 1.103-1.946 1.994-1.946m13.252-2.767c-1.29 0-2.439.563-3.189 1.641v-1.361h-3.519v11.586h3.753v-6.449c0-1.547.798-2.251 1.829-2.251 1.103 0 1.759.469 1.759 2.228v6.472h3.753v-6.754c-.001-3.657-1.479-5.112-4.386-5.112m18.083-4.984c-1.147 0-1.967.842-1.967 1.918s.819 1.943 1.967 1.943 1.99-.865 1.99-1.943-.82-1.918-1.99-1.918m1.907 5.289h-3.746v11.56h3.746zm-8.677 4.343-.938-.212c-.985-.212-1.337-.64-1.337-1.089 0-.639.539-1.05 1.407-1.05 1.103 0 1.689.358 1.689 1.421h3.233c-.075-2.434-1.497-3.872-5.087-3.872-3.097 0-4.949 1.15-4.949 3.729 0 2.034 1.37 2.957 4.513 3.668l.938.212c.986.212 1.337.67 1.337 1.12 0 .639-.564.923-1.548.923-1.29 0-1.877-.474-2.04-1.539h-3.659c.211 2.792 2.158 4.188 5.559 4.188s5.394-1.254 5.394-3.833c0-2.035-1.37-2.957-4.513-3.668zm23.333-4.343-2.107 7.067-2.061-7.067h-4.858v-.364c0-.946.704-1.894 1.8-1.894h.535v-3.06h-.769c-3.208.072-5.322 2.33-5.322 5.172v.146h-1.405v3.412h1.405v8.148h3.745v-8.148h2.11l2.806 7.844-.468 1.216c-.351.889-.748 1.147-1.522 1.147-.397 0-.796 0-1.358-.165l-.234 3.065c.562.163 1.264.234 2.153.234 2.247 0 3.418-.959 4.542-3.932L94 19.78h-3.816z" class="st1"/></svg>