<svg xmlns="http://www.w3.org/2000/svg" xmlns:xlink="http://www.w3.org/1999/xlink" id="Layer_1" x="0" y="0" version="1.1" viewBox="0 0 200 48" style="enable-background:new 0 0 200 48" xml:space="preserve"><style type="text/css">.st0{fill:#03d47c}.st1{fill:#002e22}</style><path d="M197.299,25.629c-0.382,0-0.573-0.335-0.645-0.765c-0.191-1.004,0.024-5.856,0.287-8.604	c0.095-1.625,0.836-2.581,1.816-2.581c0.765,0,1.243,0.621,1.243,1.697c0,1.434-1.506,8.461-1.816,9.345	C197.921,25.342,197.682,25.629,197.299,25.629z M194.981,29.501c0-1.123,0.86-2.008,1.888-2.008c1.052,0,1.697,0.765,1.697,1.673	c0,1.123-0.813,2.032-1.888,2.032C195.674,31.198,194.981,30.409,194.981,29.501z" class="st0"/><path d="M185.228,31.365c-2.366,0-4.135-1.984-4.135-5.067c0-3.753,2.558-7.457,6.262-7.457	c1.458,0,2.558,0.645,3.203,1.577l0.263-2.079c0.096-0.956,0.239-2.557-0.096-2.773c-1.147-0.072-1.649-0.263-1.649-0.693	c0-0.263,0.239-0.478,0.574-0.645c0.836-0.406,2.701-0.765,3.346-0.765c0.598,0,0.86,0.358,0.86,0.837	c0,0.406-0.191,1.625-0.525,4.35l-0.932,7.696c-0.12,1.052-0.24,2.605,0.095,2.82c1.004,0.072,1.434,0.215,1.434,0.621	c0,0.311-0.239,0.502-0.573,0.669c-0.717,0.359-2.271,0.765-2.94,0.765c-0.622,0-0.909-0.358-0.909-0.884	c0-0.263,0.048-0.669,0.168-1.649C188.718,30.266,187.045,31.365,185.228,31.365z M183.818,26.274c0,2.079,0.932,3.37,2.462,3.37	c2.318,0,3.872-3.274,3.872-6.238c0-2.414-1.195-3.227-2.366-3.227C185.276,20.18,183.818,23.574,183.818,26.274z" class="st0"/><path d="M174.648,31.389c-2.988,0-4.876-2.079-4.876-5.163c0-3.848,2.94-7.385,6.716-7.385	c2.295,0,3.609,1.267,3.609,2.773c0,1.984-2.175,3.657-6.716,4.23l-1.123,0.167c0.262,1.936,1.505,3.131,3.417,3.131	c1.626,0,2.677-0.956,3.37-1.577c0.287-0.263,0.478-0.406,0.717-0.406c0.239,0,0.407,0.191,0.407,0.502	c0,0.43-0.359,1.075-0.956,1.697C178.328,30.338,176.727,31.389,174.648,31.389z M172.21,24.912l0.693-0.119	c3.418-0.526,4.971-1.793,4.971-3.179c0-0.837-0.669-1.434-1.744-1.434C174.17,20.18,172.353,22.283,172.21,24.912z" class="st0"/><path d="M162.32,31.294c-1.912,0-3.202-0.956-3.202-3.203c0-0.454,0.047-1.052,0.095-1.315l0.359-2.988	c0.143-1.076,0.239-2.51-0.048-2.725c-0.956-0.072-1.386-0.239-1.386-0.622c0-0.287,0.263-0.478,0.549-0.645	c0.765-0.43,2.486-0.765,3.084-0.765c0.525,0,0.86,0.335,0.86,0.884c0,0.311-0.119,1.052-0.406,3.346l-0.335,2.629	c-0.072,0.478-0.119,1.243-0.119,1.745c0,1.243,0.43,1.912,1.434,1.912c2.127,0,4.278-3.37,4.278-5.88	c0-1.96-1.577-1.96-1.577-3.346c0-0.813,0.573-1.291,1.314-1.291c1.171,0,1.984,1.123,1.984,3.346	C169.204,26.657,166.168,31.294,162.32,31.294z" class="st0"/><path d="M150.612,31.389c-3.251,0-5.498-2.223-5.498-5.569c0-3.992,3.06-7.003,6.884-7.003	c3.274,0,6.139,2.247,6.139,5.569C158.137,28.33,154.508,31.389,150.612,31.389z M147.839,26.251c0,2.366,1.1,3.848,2.916,3.848	c2.366,0,4.039-3.083,4.039-6.119c0-2.414-1.147-3.872-2.963-3.872C149.464,20.108,147.839,23.263,147.839,26.251z" class="st0"/><path d="M138.047,31.15c-0.741,0-1.076-0.287-1.076-0.884c0-0.215,0.096-0.717,0.191-1.578l0.622-4.948	c0.119-1.028,0.215-2.605-0.096-2.725c-0.932-0.024-1.386-0.191-1.386-0.574c0-0.287,0.263-0.478,0.574-0.645	c0.836-0.43,2.414-0.765,2.987-0.765c0.454,0,0.741,0.382,0.741,0.837c0,0.191-0.024,0.597-0.167,1.936	c0.884-1.912,2.342-2.916,3.489-2.916c1.124,0,1.769,0.813,1.769,1.745c0,0.98-0.597,1.577-1.291,1.577	c-0.525,0-0.86-0.287-1.099-0.597c-0.167-0.191-0.382-0.358-0.645-0.358c-0.717,0-2.175,1.338-2.486,4.015v-0.024l-0.598,4.924	C139.481,30.864,138.979,31.15,138.047,31.15z" class="st0"/><path d="M124.368,35.596c-1.673,0-3.39-0.239-3.39-0.861c0-0.454,1.191-0.693,2.028-0.741	c0.286-0.167,0.43-1.243,0.573-2.51l0.956-7.744c0.12-1.028,0.215-2.533-0.071-2.725c-0.909-0.024-1.339-0.191-1.339-0.574	c0-0.287,0.263-0.478,0.55-0.645c0.86-0.454,2.462-0.765,3.059-0.765c0.478,0,0.813,0.382,0.813,0.837	c0,0.287-0.096,0.693-0.239,1.745c0.86-1.625,2.462-2.773,4.374-2.773c2.27,0,4.063,1.984,4.063,5.019	c0,4.422-2.677,7.505-6.095,7.505c-1.458,0-2.629-0.645-3.298-1.482l-0.191,1.625c-0.12,0.908-0.311,2.366-0.024,2.486	c1.314,0.072,1.72,0.239,1.72,0.621C127.857,35.285,126.686,35.596,124.368,35.596z M126.758,26.729	c0,2.175,1.123,3.274,2.534,3.274c2.127,0,3.728-2.772,3.728-5.76c0-2.056-0.836-3.609-2.414-3.609	C128.431,20.634,126.758,23.574,126.758,26.729z" class="st0"/><path d="M110.974,35.596c-1.673,0-2.773-0.239-2.773-0.861c0-0.454,0.574-0.693,1.411-0.741	c0.286-0.167,0.43-1.243,0.573-2.51l0.956-7.744c0.12-1.028,0.215-2.533-0.071-2.725c-0.909-0.024-1.339-0.191-1.339-0.574	c0-0.287,0.263-0.478,0.55-0.645c0.86-0.454,2.462-0.765,3.059-0.765c0.478,0,0.813,0.382,0.813,0.837	c0,0.287-0.096,0.693-0.239,1.745c0.86-1.625,2.462-2.773,4.374-2.773c2.27,0,4.063,1.984,4.063,5.019	c0,4.422-2.677,7.505-6.095,7.505c-1.458,0-2.629-0.645-3.298-1.482l-0.191,1.625c-0.12,0.908-0.311,2.366-0.024,2.486	c1.314,0.072,1.721,0.239,1.721,0.621C114.464,35.285,113.292,35.596,110.974,35.596z M113.364,26.729	c0,2.175,1.123,3.274,2.534,3.274c2.127,0,3.728-2.772,3.728-5.76c0-2.056-0.836-3.609-2.414-3.609	C115.037,20.634,113.364,23.574,113.364,26.729z" class="st0"/><path d="M94.835,31.15c-1.984,0-2.925-0.239-2.925-0.884c0-0.526,0.511-0.741,1.296-0.813	c0.55-0.239,0.956-1.004,2.008-2.988c1.96-3.848,4.23-8.222,4.948-9.799c0.406-0.837,0.454-1.267,0.597-1.673	c0.215-0.813,0.717-1.171,1.482-1.171c0.885,0,1.387,0.478,1.769,1.578c0.813,2.462,2.199,7.864,3.203,11.568	c0.526,1.96,0.669,2.295,1.004,2.438c0.531,0.072,1.057,0.263,1.057,0.717c0,0.741-1.147,1.028-3.4,1.028	c-1.721-0.072-2.964-0.311-2.964-0.956c0-0.526,0.622-0.741,1.482-0.741c0.287-0.359-0.024-1.96-0.382-3.657	c-0.024-0.167-0.072-0.311-0.096-0.478c-1.099-0.072-2.127-0.096-3.226-0.096c-1.172,0-2.056,0.024-3.084,0.096	c-0.119,0.239-0.191,0.454-0.263,0.597c-0.526,1.171-1.434,3.155-1.314,3.537c1.076,0.096,1.577,0.287,1.577,0.693	C97.604,30.84,96.747,31.15,94.835,31.15z M98.369,23.741c0.837,0,1.53-0.024,2.462-0.024c0.908,0,1.745,0.024,2.701,0.024	c-0.574-2.342-1.219-4.517-1.864-6.477C100.664,19.176,99.325,21.829,98.369,23.741z" class="st0"/><path d="M0,31.343h10.429v-3.077H3.834v-2.853h5.308v-3.151H3.834v-2.703h6.595v-3.077H0V31.343z" class="st1"/><path d="M23.42,19.758h-4.591l-1.53,2.791l-1.607-2.791h-4.718l3.851,5.604l-4.105,5.981h4.591l1.835-3.119l1.812,3.119	h4.718l-4.107-5.981L23.42,19.758z" class="st1"/><path d="M30.652,19.476c-1.267,0-2.368,0.516-3.189,1.501v-1.219h-3.519v16.508h3.753v-5.792	c0.681,0.704,1.712,1.149,2.932,1.149c3.072,0,5.208-2.368,5.208-6.073c0-3.705-2.017-6.073-5.183-6.073H30.652z M29.831,28.552	c-1.407,0-2.251-1.102-2.251-3.002c0-1.9,0.844-3.002,2.251-3.002c1.407,0,2.251,1.079,2.251,3.002	C32.083,27.473,31.239,28.552,29.831,28.552z" class="st1"/><path d="M42.452,28.692c-1.149,0-2.017-0.657-2.228-2.345h7.998v-0.493c0-3.612-2.017-6.378-5.935-6.378	c-2.767,0-5.958,1.501-5.958,6.073c0,3.706,2.393,6.073,6.098,6.073c2.205,0,4.949-0.798,5.816-4.221h-3.8	c-0.165,0.633-0.658,1.29-1.994,1.29H42.452z M42.287,22.243c1.08,0,1.806,0.61,1.923,1.946h-3.917	C40.575,22.711,41.396,22.243,42.287,22.243z" class="st1"/><path d="M55.539,19.476c-1.29,0-2.439,0.563-3.189,1.641v-1.361h-3.519v11.586h3.753v-6.449	c0-1.547,0.798-2.251,1.829-2.251c1.103,0,1.759,0.469,1.759,2.228v6.472h3.753v-6.754C59.924,20.931,58.446,19.476,55.539,19.476z" class="st1"/><path d="M73.622,14.492c-1.147,0-1.967,0.842-1.967,1.918s0.819,1.943,1.967,1.943s1.99-0.865,1.99-1.943	S74.792,14.492,73.622,14.492z" class="st1"/><path d="M75.529,19.781h-3.746v11.56h3.746V19.781z" class="st1"/><path d="M66.852,24.124l-0.938-0.212c-0.985-0.212-1.337-0.64-1.337-1.089c0-0.639,0.539-1.05,1.407-1.05	c1.103,0,1.689,0.358,1.689,1.421h3.233c-0.075-2.434-1.497-3.872-5.087-3.872c-3.097,0-4.949,1.15-4.949,3.729	c0,2.034,1.37,2.957,4.513,3.668l0.938,0.212c0.986,0.212,1.337,0.67,1.337,1.12c0,0.639-0.564,0.923-1.548,0.923	c-1.29,0-1.877-0.474-2.04-1.539h-3.659c0.211,2.792,2.158,4.188,5.559,4.188c3.402,0,5.394-1.254,5.394-3.833	c0-2.035-1.37-2.957-4.513-3.668V24.124z" class="st1"/><path d="M90.185,19.781l-2.107,7.067l-2.061-7.067h-4.858v-0.364c0-0.946,0.704-1.894,1.8-1.894h0.535v-3.06h-0.769	c-3.208,0.072-5.322,2.33-5.322,5.172v0.146h-1.405v3.412h1.405v8.148h3.745v-8.148h2.11l2.806,7.844l-0.468,1.216	c-0.351,0.889-0.748,1.147-1.522,1.147c-0.397,0-0.796,0-1.358-0.165l-0.234,3.065c0.562,0.163,1.264,0.234,2.153,0.234	c2.247,0,3.418-0.959,4.542-3.932L94,19.78h-3.816L90.185,19.781z" class="st1"/></svg>