<?xml version="1.0" encoding="utf-8"?>
<!-- Generator: Adobe Illustrator 26.5.0, SVG Export Plug-In . SVG Version: 6.00 Build 0)  -->
<svg version="1.1" id="Layer_1" xmlns="http://www.w3.org/2000/svg" xmlns:xlink="http://www.w3.org/1999/xlink" x="0px" y="0px"
	 viewBox="0 0 20 20" style="enable-background:new 0 0 20 20;" xml:space="preserve">
<path d="M3.5,2C4.3,2,5,2.7,5,3.5v0.6C6.3,2.8,8.1,2,10.1,2c3,0,5.6,1.9,6.8,4.4c0.4,0.8,0,1.8-0.8,2.1c-0.8,0.4-1.8,0-2.2-0.8
	c-0.8-1.6-2.2-2.6-3.8-2.6C8.7,5.2,7.5,5.9,6.7,7h1.8C9.3,7,10,7.7,10,8.5S9.3,10,8.5,10H2V3.5C2,2.7,2.7,2,3.5,2z"/>
<path d="M15,16.5c0,0.8,0.7,1.5,1.5,1.5s1.5-0.7,1.5-1.5V10h-6.5c-0.8,0-1.5,0.7-1.5,1.5s0.7,1.5,1.5,1.5h1.8
	c-0.8,1.1-2.1,1.8-3.4,1.8c-1.6,0-3.1-1-3.8-2.6c-0.4-0.8-1.3-1.1-2.2-0.8c-0.8,0.4-1.2,1.3-0.8,2.1C4.4,16.1,6.9,18,9.9,18
	c2,0,3.7-0.8,5.1-2.1V16.5z"/>
</svg>
