<svg xmlns="http://www.w3.org/2000/svg" id="Layer_1" viewBox="0 0 20 20"><defs><style>.st0{fill-rule:evenodd}</style></defs><path d="m17.896 14.604-4.789 4.789a.5.5 0 0 1-.256.137l-2.352.471.471-2.352a.5.5 0 0 1 .137-.256l4.789-4.789z"/><path d="M18 2a2 2 0 0 1 2 2v5.672l-.232-.232A2.5 2.5 0 0 0 18 8.71V6.001h-7v4h4.672l-2 2H11v2.671L9.692 15.98a2.5 2.5 0 0 0-.641 1.098l-.043.18-.148.744H2a2 2 0 0 1-2-2V4a2 2 0 0 1 2-2zM2 16h7v-4H2zm0-6h7V6H2z" class="st0"/><path d="M17.646 10.854a.5.5 0 0 1 .707 0l1.293 1.293a.5.5 0 0 1 0 .707l-1.043 1.043-2-2z"/></svg>