<?xml version="1.0" encoding="utf-8"?>
<!-- Generator: Adobe Illustrator 27.3.1, SVG Export Plug-In . SVG Version: 6.00 Build 0)  -->
<svg version="1.1" id="Layer_1" xmlns="http://www.w3.org/2000/svg" xmlns:xlink="http://www.w3.org/1999/xlink" x="0px" y="0px"
	 viewBox="0 0 20 20" style="enable-background:new 0 0 20 20;" xml:space="preserve">
<style type="text/css">
	.st0{fill-rule:evenodd;clip-rule:evenodd;}
</style>
<path class="st0" d="M10.692,1.692l7.894,7.894c0.781,0.781,0.781,2.047,0,2.828l-6.172,6.172c-0.781,0.781-2.047,0.781-2.828,0
	l-7.894-7.894c-0.436-0.436-0.647-1.05-0.57-1.662l0.686-5.486c0.113-0.908,0.829-1.623,1.736-1.736l5.486-0.686
	C9.642,1.045,10.255,1.255,10.692,1.692z M6.5,8C7.329,8,8,7.329,8,6.5S7.329,5,6.5,5C5.672,5,5,5.672,5,6.5S5.672,8,6.5,8z"/>
</svg>
