<svg width="20" height="20" viewBox="0 0 20 20" fill="none" xmlns="http://www.w3.org/2000/svg">
<path fill-rule="evenodd" clip-rule="evenodd" d="M10.6913 1.69127L18.5854 9.58539C19.3664 10.3664 19.3664 11.6328 18.5854 12.4138L12.4138 18.5854C11.6328 19.3664 10.3664 19.3664 9.58539 18.5854L1.69127 10.6913C1.25486 10.2549 1.04438 9.6414 1.12093 9.02899L1.80666 3.54315C1.92015 2.63526 2.63526 1.92015 3.54315 1.80666L9.02899 1.12093C9.6414 1.04438 10.2549 1.25486 10.6913 1.69127ZM6.49971 7.99971C7.32813 7.99971 7.99971 7.32813 7.99971 6.49971C7.99971 5.67128 7.32813 4.99971 6.49971 4.99971C5.67128 4.99971 4.99971 5.67128 4.99971 6.49971C4.99971 7.32813 5.67128 7.99971 6.49971 7.99971Z" fill="#03D47C"/>
</svg>
