<svg xmlns="http://www.w3.org/2000/svg" xmlns:xlink="http://www.w3.org/1999/xlink" id="Layer_1" x="0" y="0" version="1.1" viewBox="0 0 20 20" style="enable-background:new 0 0 20 20" xml:space="preserve"><style type="text/css">.st0{fill-rule:evenodd;clip-rule:evenodd}</style><path d="M6 8L7.42236 1.77718C7.52629 1.32247 7.93078 1 8.39722 1H9C10.1046 1 11 1.89543 11 3V6.7L16.3589 6.16411C17.2376 6.07624 18 6.76623 18 7.64926C18 8.24187 17.6529 8.75998 17.1431 9H17.5C18.3284 9 19 9.67157 19 10.5C19 11.3284 18.3284 12 17.5 12H16.5C17.3284 12 18 12.6716 18 13.5C18 14.3284 17.3284 15 16.5 15H16.1156C16.6401 15.2344 17 15.7603 17 16.3642C17 17.2426 16.2457 17.9314 15.3709 17.8519L6 17H3C2.44772 17 2 16.5523 2 16V9C2 8.44772 2.44772 8 3 8H6Z" class="st0"/></svg>