<?xml version="1.0" encoding="UTF-8"?>
<svg id="Layer_1" xmlns="http://www.w3.org/2000/svg" version="1.1" viewBox="0 0 20 20">
  <!-- Generator: Adobe Illustrator 29.5.1, SVG Export Plug-In . SVG Version: 2.1.0 Build 141)  -->
  <path d="M6,11.858l1.422,6.223c.104.455.508.777.975.777h.603c1.105,0,2-.896,2-2v-3.7l5.359.536c.879.088,1.641-.602,1.641-1.485,0-.593-.347-1.111-.857-1.351h.357c.828,0,1.5-.672,1.5-1.5s-.672-1.5-1.5-1.5h-1c.828,0,1.5-.672,1.5-1.5s-.672-1.5-1.5-1.5h-.384c.524-.234.884-.76.884-1.364,0-.878-.754-1.567-1.629-1.488l-9.371.852h-3c-.552,0-1,.448-1,1v7c0,.552.448,1,1,1h3Z"/>
</svg>