<svg xmlns="http://www.w3.org/2000/svg" xml:space="preserve" viewBox="0 0 20 20"><path d="M19.639 12a.25.25 0 0 1 .25.25v.636l-.003.003-.003.004a1 1 0 0 1 .006.107v.657a1 1 0 0 1-.21.613l-.868 1.115a1 1 0 0 0 0 1.229l.868 1.115a1 1 0 0 1 .21.613v1.407a.25.25 0 0 1-.25.25H15.25a.25.25 0 0 1-.25-.249v-1.407c0-.182.052-.358.144-.513q.03-.052.066-.101l.867-1.115a1 1 0 0 0 0-1.229l-.867-1.115a1 1 0 0 1-.21-.613V12.25a.25.25 0 0 1 .25-.25zm-3.249.889a.5.5 0 0 0-.379.826l1.053 1.223a.5.5 0 0 0 .758 0l1.052-1.223a.5.5 0 0 0-.379-.826z" style="fill-rule:evenodd;clip-rule:evenodd"/><path d="M9 1a2 2 0 0 1 2 2v3.7l5.359-.536A1.493 1.493 0 0 1 17.144 9h.356a1.5 1.5 0 0 1 1.413 1H15.25A2.25 2.25 0 0 0 13 12.25v1.408c0 .669.224 1.316.632 1.84l.391.502-.391.502c-.263.338-.45.728-.549 1.142L6 17H3a1 1 0 0 1-1-1V9a1 1 0 0 1 1-1h3l1.422-6.223c.104-.454.509-.777.975-.777z"/></svg>