<?xml version="1.0" encoding="utf-8"?>
<svg viewBox="0 0 20 20" style="enable-background:new 0 0 20 20" xmlns="http://www.w3.org/2000/svg">
  <defs>
    <style type="text/css">.st0{fill-rule:evenodd;clip-rule:evenodd}</style>
  </defs>
  <path d="M -0.006 1.269 C -0.006 0.581 0.628 0.016 1.351 0.016 L 6.867 0.016 C 7.636 0.016 8.224 0.581 8.224 1.269 L 8.224 6.326 C 8.224 7.014 8.858 7.58 9.581 7.58 L 15.053 7.58 C 15.821 7.58 16.409 8.145 16.409 8.834 L 16.409 9.603 C 16.046 9.481 15.641 9.441 15.233 9.441 C 13.288 9.441 11.706 10.856 11.706 12.597 C 9.761 12.597 8.178 14.013 8.178 15.752 C 8.178 16.116 8.27 16.481 8.359 16.805 L 1.351 16.805 C 0.582 16.805 -0.006 16.237 -0.006 15.55 L -0.006 1.269 Z" class="st0" style="transform-origin: 10px 10px;"/>
  <path d="M 16.454 14.742 L 18.805 14.742 C 19.438 14.742 19.98 15.227 19.98 15.793 C 19.98 16.36 19.438 16.845 18.805 16.845 L 16.454 16.845 L 16.454 18.949 C 16.454 19.515 15.911 20 15.279 20 C 14.645 20 14.103 19.515 14.103 18.949 L 14.103 16.845 L 11.75 16.845 C 11.119 16.845 10.575 16.36 10.575 15.793 C 10.575 15.227 11.119 14.742 11.75 14.742 L 14.103 14.742 L 14.103 12.637 C 14.103 12.072 14.645 11.586 15.279 11.586 C 15.911 11.586 16.454 12.072 16.454 12.637 L 16.454 14.742 Z" class="st0" style="transform-origin: 10px 10px;"/>
  <path d="M 11.977 0.297 L 16.138 4.141 C 16.86 4.789 16.364 5.88 15.369 5.88 L 11.208 5.88 C 10.575 5.88 10.077 5.436 10.077 4.87 L 10.077 1.025 C 10.033 0.136 11.254 -0.35 11.977 0.297 Z" class="st0" style="transform-origin: 10px 10px;"/>
</svg>