<svg viewBox="0 0 20 20" xmlns="http://www.w3.org/2000/svg"><path fill-rule="evenodd" clip-rule="evenodd" d="M3 3.69152C3 2.83066 3.55218 2.07035 4.39168 1.87976C5.64585 1.59504 7.6504 1.25 10 1.25C12.3496 1.25 14.3542 1.59504 15.6083 1.87976C16.4478 2.07035 17 2.83066 17 3.69152V13.75C17 14.5784 16.3284 15.25 15.5 15.25H14.9832L15.9138 17.3439C16.1381 17.8486 15.9108 18.4395 15.4061 18.6638C14.9015 18.8881 14.3105 18.6608 14.0862 18.1561L12.7946 15.25H7.20544L5.91382 18.1561C5.68951 18.6608 5.09855 18.8881 4.59387 18.6638C4.08918 18.4395 3.86189 17.8486 4.08619 17.3439L5.0168 15.25H4.5C3.67157 15.25 3 14.5784 3 13.75V3.69152ZM14.5 9.25H10.75V3.25924C12.4258 3.30109 13.606 3.47677 14.2906 3.61334C14.7171 3.6984 15 4.07842 15 4.51329V8.75C15 9.02614 14.7761 9.25 14.5 9.25ZM5.70936 3.61334C6.394 3.47677 7.57421 3.30109 9.25 3.25924V9.25H5.5C5.22386 9.25 5 9.02614 5 8.75V4.51329C5 4.07842 5.2829 3.6984 5.70936 3.61334ZM5.5 13.25C6.05228 13.25 6.5 12.8023 6.5 12.25C6.5 11.6977 6.05228 11.25 5.5 11.25C4.94772 11.25 4.5 11.6977 4.5 12.25C4.5 12.8023 4.94772 13.25 5.5 13.25ZM15.5 12.25C15.5 12.8023 15.0523 13.25 14.5 13.25C13.9477 13.25 13.5 12.8023 13.5 12.25C13.5 11.6977 13.9477 11.25 14.5 11.25C15.0523 11.25 15.5 11.6977 15.5 12.25Z"/></svg>
