<?xml version="1.0" encoding="utf-8"?>
<!-- Generator: Adobe Illustrator 24.3.0, SVG Export Plug-In . SVG Version: 6.00 Build 0)  -->
<svg version="1.1" id="Layer_1" xmlns="http://www.w3.org/2000/svg" xmlns:xlink="http://www.w3.org/1999/xlink" x="0px" y="0px"
	 viewBox="0 0 20 20" style="enable-background:new 0 0 20 20;" xml:space="preserve">
<g>
	<path d="M4.5,8.2h6.9C11.8,8.2,12,8,12,7.7V6.3c0-0.4-0.2-0.6-0.6-0.6H4.5l1.9-1.9c0.2-0.2,0.2-0.6,0-0.9L5.5,2.1
		C5.2,2,4.9,2,4.6,2.1L0.1,6.6C0,6.8,0,7.2,0.1,7.5l4.4,4.4c0.2,0.2,0.6,0.2,0.9,0L6.2,11c0.2-0.2,0.2-0.6,0-0.9L4.5,8.2z"/>
	<path d="M19.9,11.6l-4.4-4.4c-0.2-0.2-0.6-0.2-0.9,0l-0.9,0.9c-0.2,0.2-0.2,0.6,0,0.9l1.8,1.8H9.9c-0.4,0-0.6,0.2-0.6,0.6v1.4
		c0,0.2,0.2,0.5,0.6,0.5h5.6l-1.9,1.9c-0.2,0.2-0.2,0.6,0,0.9l0.9,0.9c0.2,0.2,0.6,0.2,0.9,0l4.4-4.4C20,12.2,20,11.8,19.9,11.6z"/>
</g>
</svg>
