<?xml version="1.0" encoding="utf-8"?>
<!-- Generator: Adobe Illustrator 26.5.0, SVG Export Plug-In . SVG Version: 6.00 Build 0)  -->
<svg version="1.1" id="Layer_1" xmlns="http://www.w3.org/2000/svg" xmlns:xlink="http://www.w3.org/1999/xlink" x="0px" y="0px"
	 viewBox="0 0 20 20" style="enable-background:new 0 0 20 20;" xml:space="preserve">
<path d="M3.7,11.4c0.5,0.7,1.4,0.8,2.1,0.3c0.7-0.5,0.8-1.4,0.3-2.1L4.9,8h6.6C12.3,8,13,7.3,13,6.5S12.3,5,11.5,5H4.9l1.2-1.6
	c0.5-0.7,0.4-1.6-0.3-2.1C5.1,0.8,4.2,0.9,3.7,1.6L0,6.5L3.7,11.4z"/>
<path d="M16.3,8.6c-0.5-0.7-1.4-0.8-2.1-0.3c-0.7,0.5-0.8,1.4-0.3,2.1l1.2,1.6H8.5C7.7,12,7,12.7,7,13.5C7,14.3,7.7,15,8.5,15h6.6
	l-1.2,1.6c-0.5,0.7-0.4,1.6,0.3,2.1c0.7,0.5,1.6,0.4,2.1-0.3l3.7-4.9L16.3,8.6z"/>
</svg>
