<?xml version="1.0" encoding="utf-8"?>
<!-- Generator: Adobe Illustrator 26.5.0, SVG Export Plug-In . SVG Version: 6.00 Build 0)  -->
<svg version="1.1" id="Layer_1" xmlns="http://www.w3.org/2000/svg" xmlns:xlink="http://www.w3.org/1999/xlink" x="0px" y="0px"
	 viewBox="0 0 20 20" style="enable-background:new 0 0 20 20;" xml:space="preserve">
<style type="text/css">
	.st0{fill-rule:evenodd;clip-rule:evenodd;}
</style>
<path class="st0" d="M5.9,3c0-1.7,1.3-3,3-3h2c1.7,0,3,1.3,3,3H17c0.2,0,0.5,0.2,0.5,0.4l0.3,2C17.9,5.7,17.6,6,17.3,6H2.5
	C2.2,6,2,5.7,2,5.4l0.3-2C2.4,3.2,2.6,3,2.8,3H5.9z M7.9,3c0-0.6,0.4-1,1-1h2c0.6,0,1,0.4,1,1H7.9z"/>
<path d="M3,8.5l0.9,10c0,0.3,0.2,0.5,0.5,0.5h11.1c0.3,0,0.5-0.2,0.5-0.5l0.9-10c0-0.3-0.2-0.5-0.5-0.5H3.5C3.2,8,2.9,8.3,3,8.5z"/>
</svg>
