<svg xmlns="http://www.w3.org/2000/svg" viewBox="0 0 240 100"><path fill="#f8f4f0" fill-opacity=".04" d="M40 28c0-4.42 3.58-8 8-8h32c4.42 0 8 3.58 8 8v36c0 4.42-3.58 8-8 8H48c-4.42 0-8-3.58-8-8z"/><path fill="none" stroke="#8b9c8f" stroke-opacity=".4" d="M48 20.5h32c4.14 0 7.5 3.36 7.5 7.5v36c0 4.14-3.36 7.5-7.5 7.5H48c-4.14 0-7.5-3.36-7.5-7.5V28a7.5 7.5 0 0 1 7.11-7.49H48Z"/><path fill="#0185ff" d="M63.97 49.43c-2.38 0-4.18-1.8-4.18-4.18s1.8-4.22 4.18-4.22 4.26 1.84 4.26 4.22-1.89 4.18-4.26 4.18"/><path fill="#f8f4f0" fill-opacity=".04" d="M96 28c0-4.42 3.58-8 8-8h32c4.42 0 8 3.58 8 8v36c0 4.42-3.58 8-8 8h-32c-4.42 0-8-3.58-8-8z"/><path fill="none" stroke="#8b9c8f" stroke-opacity=".4" d="M104 20.5h32c4.14 0 7.5 3.36 7.5 7.5v36c0 4.14-3.36 7.5-7.5 7.5h-32c-4.14 0-7.5-3.36-7.5-7.5V28a7.5 7.5 0 0 1 7.11-7.49h.39Z"/><path fill="#0185ff" d="M119.97 49.43c-2.38 0-4.18-1.8-4.18-4.18s1.8-4.22 4.18-4.22 4.26 1.84 4.26 4.22-1.89 4.18-4.26 4.18"/><path fill="#f8f4f0" fill-opacity=".04" d="M152 28c0-4.42 3.58-8 8-8h32c4.42 0 8 3.58 8 8v36c0 4.42-3.58 8-8 8h-32c-4.42 0-8-3.58-8-8z"/><path fill="none" stroke="#8b9c8f" stroke-opacity=".4" d="M160 20.5h32c4.14 0 7.5 3.36 7.5 7.5v36c0 4.14-3.36 7.5-7.5 7.5h-32c-4.14 0-7.5-3.36-7.5-7.5V28a7.5 7.5 0 0 1 7.11-7.49h.39Z"/><path fill="#0185ff" d="M175.97 49.43c-2.38 0-4.18-1.8-4.18-4.18s1.8-4.22 4.18-4.22 4.26 1.84 4.26 4.22-1.89 4.18-4.26 4.18"/><path fill="#0164bf" d="m223.66 45.78.89-3.31s.09-3.65-2.75-4.41l-10.4-2.79s-3.17-.47-3.77 1.78l-1.08 4.02 3.31.89s.92-3.43 3.28-2.79l6.02 1.61s1.31 1.24.68 3.6l3.8 1.4ZM193.4 82.63l11.08-41.35s-6.89-1.21-8.28 3.98c-1.39 5.2-8.24 29.32-8.24 29.32s-.76 6.13 5.44 8.04Z"/><path fill="#003c73" d="m225.18 46.23-20.56-5.51-11.35 42.37 19.46 5.21s7.51.33 9.01-5.27l7.53-28.12s2.11-4.42-4.09-8.69Z"/><path fill="#002140" d="M210.49 48.92c.34-1.28-.42-2.6-1.7-2.95-1.28-.34-2.6.42-2.95 1.7l-7.74 28.9c-.34 1.28.42 2.6 1.7 2.95 1.28.34 2.6-.42 2.95-1.7zm7.25 1.95c.34-1.28-.42-2.6-1.7-2.95-1.28-.34-2.6.42-2.95 1.7l-7.74 28.9c-.34 1.28.42 2.6 1.7 2.95 1.28.34 2.6-.42 2.95-1.7zm7.24 1.94c.34-1.28-.42-2.6-1.7-2.95-1.28-.34-2.6.42-2.95 1.7l-7.74 28.9c-.34 1.28.42 2.6 1.7 2.95 1.28.34 2.6-.42 2.95-1.7z"/><path fill="#f9b5fe" d="m223.52 58.11-3.4-2.76-3.73 1.95-.99 9.36 7.1.89 1.01-9.44Z"/><path fill="none" stroke="#002140" stroke-linecap="round" stroke-linejoin="round" d="m223.82 46-18.96-5.08c-4.06-1.09-8.24 1.32-9.32 5.38l-7.35 27.42c-1.09 4.06 1.32 8.24 5.38 9.32l18.97 5.08c4.06 1.09 8.24-1.32 9.32-5.38l7.35-27.42c1.09-4.06-1.32-8.24-5.38-9.32Zm-30.64 36.82 11.25-41.98"/><path fill="#002140" d="M191.8 88.11c1.33.36 2.69-.43 3.05-1.76.35-1.33-.43-2.69-1.76-3.05s-2.69.43-3.05 1.76c-.35 1.33.43 2.69 1.76 3.05m19.22 5.15c1.33.36 2.69-.43 3.05-1.76s-.43-2.69-1.76-3.05-2.69.43-3.05 1.76c-.35 1.33.43 2.69 1.76 3.05"/><path fill="none" stroke="#002140" stroke-linecap="round" stroke-linejoin="round" d="m223.57 45.63.81-3.02c.54-2.03-.66-4.12-2.69-4.66l-9.82-2.63c-2.03-.54-4.12.66-4.66 2.69l-.81 3.02"/><path fill="none" stroke="#002140" stroke-linecap="round" stroke-linejoin="round" d="m219.93 44.74.35-1.29c.35-1.29-.42-2.61-1.71-2.96l-5.18-1.39c-1.29-.34-2.61.42-2.96 1.71l-.32 1.21m1.61.9c1.42 1.62 6.32 7.44 8.18 12.32 0 0 2.52-4.38 2.99-9.24m-6.65 11.26-1.05 9.6 7.15.73 1.02-9.77-3.4-2.57-3.71 2.02Z"/><path fill="#003c73" d="M192.2 86.59c.49.13.99-.16 1.12-.65a.914.914 0 0 0-.65-1.12.914.914 0 0 0-1.12.65c-.13.49.16.99.65 1.12m19.23 5.16c.49.13.99-.16 1.12-.65a.914.914 0 0 0-.65-1.12.914.914 0 0 0-1.12.65c-.13.49.16.99.65 1.12"/></svg>