<svg xmlns="http://www.w3.org/2000/svg" fill="none" viewBox="0 0 194 76"><path stroke="#002140" d="M8 .5h32A7.5 7.5 0 0 1 47.5 8v36a7.5 7.5 0 0 1-7.5 7.5H8A7.5 7.5 0 0 1 .5 44V8A7.5 7.5 0 0 1 8 .5Z"/><path fill="#0185ff" d="M23.966 29.43c-2.378 0-4.182-1.804-4.182-4.182s1.804-4.223 4.182-4.223c2.419 0 4.264 1.845 4.264 4.223s-1.886 4.182-4.264 4.182"/><path stroke="#002140" d="M64 .5h32a7.5 7.5 0 0 1 7.5 7.5v36a7.5 7.5 0 0 1-7.5 7.5H64a7.5 7.5 0 0 1-7.5-7.5V8A7.5 7.5 0 0 1 64 .5Z"/><path fill="#0185ff" d="M79.966 29.43c-2.378 0-4.182-1.804-4.182-4.182s1.804-4.223 4.182-4.223c2.419 0 4.264 1.845 4.264 4.223s-1.886 4.182-4.264 4.182"/><path stroke="#002140" d="M120 .5h32a7.5 7.5 0 0 1 7.5 7.5v36a7.5 7.5 0 0 1-7.5 7.5h-32a7.5 7.5 0 0 1-7.5-7.5V8A7.5 7.5 0 0 1 120 .5Z"/><path fill="#0185ff" d="M135.966 29.43c-2.378 0-4.182-1.804-4.182-4.182s1.804-4.223 4.182-4.223c2.419 0 4.264 1.845 4.264 4.223s-1.886 4.182-4.264 4.182"/><path fill="#0164bf" d="m183.66 25.782.886-3.308s.092-3.647-2.746-4.408l-10.397-2.786s-3.169-.467-3.77 1.776l-1.076 4.017 3.308.886s.918-3.425 3.282-2.792l6.025 1.615s1.313 1.237.68 3.601l3.803 1.401zm-30.261 36.845 11.08-41.351s-6.891-1.213-8.283 3.982c-1.393 5.195-8.239 29.324-8.239 29.324s-.757 6.129 5.443 8.042z"/><path fill="#003c73" d="m185.184 26.232-20.557-5.508-11.354 42.373 19.457 5.214s7.511.325 9.01-5.269l7.534-28.116s2.11-4.415-4.086-8.693z"/><path fill="#002140" d="M170.491 28.924a2.406 2.406 0 1 0-4.647-1.245l-7.745 28.903a2.406 2.406 0 1 0 4.647 1.245zm7.246 1.942a2.406 2.406 0 1 0-4.647-1.246l-7.745 28.903a2.406 2.406 0 1 0 4.647 1.246zm7.246 1.941a2.406 2.406 0 1 0-4.647-1.245l-7.745 28.903a2.406 2.406 0 1 0 4.647 1.245z"/><path fill="#f9b5fe" d="m183.521 38.11-3.397-2.766-3.729 1.955-.989 9.36 7.105.889z"/><path stroke="#002140" stroke-linecap="round" stroke-linejoin="round" d="m183.821 26.004-18.964-5.082a7.613 7.613 0 0 0-9.324 5.383l-7.347 27.422a7.61 7.61 0 0 0 5.382 9.323l18.965 5.082a7.613 7.613 0 0 0 9.324-5.383l7.347-27.422a7.613 7.613 0 0 0-5.383-9.323M153.18 62.82l11.249-41.982"/><path fill="#002140" d="M151.805 68.108a2.488 2.488 0 1 0 1.288-4.806 2.488 2.488 0 0 0-1.288 4.806m19.218 5.149a2.488 2.488 0 1 0 1.288-4.805 2.488 2.488 0 0 0-1.288 4.805"/><path stroke="#002140" stroke-linecap="round" stroke-linejoin="round" d="m183.573 25.632.809-3.02a3.804 3.804 0 0 0-2.69-4.659l-9.817-2.63a3.804 3.804 0 0 0-4.659 2.69l-.809 3.02"/><path stroke="#002140" stroke-linecap="round" stroke-linejoin="round" d="m179.928 24.74.346-1.293a2.415 2.415 0 0 0-1.707-2.958l-5.185-1.389a2.415 2.415 0 0 0-2.957 1.708l-.325 1.214m1.618.896c1.42 1.624 6.326 7.442 8.178 12.323 0 0 2.516-4.378 2.992-9.243m-6.65 11.259-1.052 9.595 7.146.732 1.016-9.773-3.402-2.572z"/><path fill="#003c73" d="M152.195 66.594a.919.919 0 1 0 .475-1.775.919.919 0 0 0-.475 1.775m19.232 5.154a.919.919 0 1 0 .475-1.776.919.919 0 0 0-.475 1.776"/></svg>