<svg xmlns="http://www.w3.org/2000/svg" viewBox="0 0 194 192"><path fill="#03d47c" d="M25.89 78.97 50 48l85.16-18.36S128.97 2 106.18 1.33c0 0-35.44 4.87-62.38 12.61l-28.98 8.18S1.12 26.99 1.34 40.93s21.68 34.06 24.55 38.05Z"/><path fill="#085239" d="M25.89 78.97 50 48S37.02 23.67 18.29 21.75C6.49 21.6 2.36 34.87 1.77 36.94 1.18 39 1.48 49.92 8.85 59.5c7.37 9.59 17.03 19.47 17.03 19.47Zm49.18 20.65L25.89 78.97s4.35 29.64 1.55 54.41l49.11 21.09 1.92-16.07s-.15-33.92-3.39-38.78Z"/><path fill="#03d47c" d="M75.07 99.62s6.14 26.94.88 50.14l1.77 19.17 24.18-4.72 71.82-10.62s6.93-2.51 6.64-7.08-3.54-6.64-5.46-6.49c0 0 3.98-40.26-1.62-54.71l-98.21 14.3Z"/><path fill="#008c59" d="M173.13 153.44s7.67-.29 7.23-7.82c-.44-7.52-9-5.01-9-5.01l-92.17 14.16-51.76-21.38s-5.75 1.47-7.08 5.16 6.02 8.15 9.59 10.76c3.56 2.62 45.86 19.02 45.86 19.02z"/><path fill="#0185ff" d="m90.59 3.32-36.61 8.07s20.57 7.52 23.56 30.08l33.18-6.53s-.33-17.92-20.13-31.63Z"/><path fill="#50eef6" d="m94.02 38.49 5.31-1.1 1.66-9.4-11.72-7.41-3.21 12.94 7.96 4.98ZM81.63 17.37l2.32-13.05L67.03 8.3l.66.78z"/><path fill="#ffed8f" d="M132.18 44.47s2.88-10.4 6.19-12.72c3.32-2.32 10.51-4.31 10.51-4.31s-10.06-1.99-11.83-5.09-3.98-9.29-4.31-10.84c0 0-1.44 9.62-5.75 12.06-4.31 2.43-10.62 4.2-10.62 4.2s10.57 1.92 12.17 5.53 3.65 11.17 3.65 11.17Z"/><path fill="#0185ff" d="m15.49 54.49 16.37 5.31-.15-14.89-18.14-7.08zm34.66 44.98-11.8 16.37 10.18 17.84 12.83-13.57-11.21-20.65Z"/><path fill="#50eef6" d="m22.9 51.43 8.81-6.52-17.22-6.86 8.4 13.38Zm24.89 67.65 13.57 1.03-11.21-20.65-2.36 19.61Z"/><path fill="#fed607" d="M112.43 183.82c7.36 0 13.33-3.1 13.33-6.91s-5.97-6.91-13.33-6.91-13.33 3.1-13.33 6.91 5.97 6.91 13.33 6.91"/><path fill="#e4bc07" d="M99.33 178.84v3.76s3.43 5.97 14.05 5.53 12.5-6.19 12.5-6.19v-3.43s-3.99 5.53-13.44 5.31-13.1-4.98-13.1-4.98Z"/><path fill="#fed607" d="M17.65 149.54c7.36 0 13.33-3.1 13.33-6.91s-5.97-6.91-13.33-6.91-13.33 3.09-13.33 6.91 5.97 6.91 13.33 6.91"/><path fill="#e4bc07" d="M4.54 144.56v3.76s3.43 5.97 14.05 5.53 12.5-6.19 12.5-6.19v-3.43s-3.99 5.53-13.44 5.31-13.1-4.98-13.1-4.98Z"/><path fill="#fed607" d="M111.47 166.74c3.71-.88 5.35-7.4 3.64-14.57-1.7-7.16-6.09-12.25-9.81-11.37-3.71.88-5.35 7.4-3.64 14.57 1.7 7.16 6.09 12.25 9.81 11.37"/><path fill="#e4bc07" d="m103.47 141.45-3.66.87s-5.02 4.72-2.13 14.94c2.89 10.23 8.92 10.73 8.92 10.73l3.34-.79s-6.3-2.6-8.27-11.85 1.81-13.9 1.81-13.9Z"/><path fill="#fed607" d="M176.36 178.96c7.36 0 13.33-3.1 13.33-6.91s-5.97-6.91-13.33-6.91-13.33 3.1-13.33 6.91 5.97 6.91 13.33 6.91"/><path fill="#e4bc07" d="M163.25 173.98v3.76s3.43 5.97 14.05 5.53 12.5-6.19 12.5-6.19v-3.43s-3.99 5.53-13.44 5.31-13.1-4.98-13.1-4.98Z"/><path fill="#fed607" d="M153.57 185.59c7.36 0 13.33-3.1 13.33-6.91s-5.97-6.91-13.33-6.91-13.33 3.09-13.33 6.91 5.97 6.91 13.33 6.91"/><path fill="#e4bc07" d="M140.47 180.61v3.76s3.43 5.97 14.05 5.53 12.5-6.19 12.5-6.19v-3.43s-3.99 5.53-13.44 5.31-13.1-4.98-13.1-4.98Z"/><path fill="#fed607" d="M164.74 174.42c7.36 0 13.33-3.1 13.33-6.91s-5.97-6.91-13.33-6.91-13.33 3.1-13.33 6.91 5.97 6.91 13.33 6.91"/><path fill="#e4bc07" d="M151.64 169.44v3.76s3.43 5.97 14.05 5.53 12.5-6.19 12.5-6.19v-3.43s-3.99 5.53-13.44 5.31-13.1-4.98-13.1-4.98Z"/><path fill="#fed607" d="M78.2 179.4s8.96-.11 11.83-11.39c2.88-11.28 1.99-25.66-8.18-27.65 0 0-7.85-1.44-12.5-1.22 0 0-9.73 2.1-12.72 8.96 0 0-1.77-1.44-3.1-1.11s-4.09 2.88-4.09 2.88l-1-.44s-1.22-12.06-6.64-11.83c-5.42.22-7.63 11.39-8.52 15.37s1.66 11.28 4.2 11.94 6.19-3.65 7.08-4.42c.88-.77 3.21-3.54 3.21-3.54s1.11 3.32 2.99 3.76 2.99.44 2.99.44 3.1 12.72 12.72 16.37c7.94 2.2 11.72 1.88 11.72 1.88Z"/><path fill="#0185ff" d="M63.72 140.91s-1.11 2.88 2.21 3.54 5.53-.17 5.75-1.33 0-3.43-2.88-3.87-4.2-.22-5.09 1.66Zm-2.77 18.25c2.26 0 4.09-1.36 4.09-3.04s-1.83-3.04-4.09-3.04-4.09 1.36-4.09 3.04 1.83 3.04 4.09 3.04m1.88 13.88c2.26 0 4.09-1.36 4.09-3.04s-1.83-3.04-4.09-3.04-4.09 1.36-4.09 3.04 1.83 3.04 4.09 3.04m47.63-78.29s4.57 23.45 2.06 50.29l2.21 4.42 30.82-5.01s3.1-38.19-1.92-54.56l-33.18 4.87Z"/><path fill="#50eef6" d="m127.13 113.78-4.57 7.52 9.44 9.29 7.67-12.68-4.57-4.42m-11.96 34.35 18.43-2.8-10.47-10.17-7.96 12.98Z"/><path fill="#fed607" d="M129.78 94.09s1.62 2.06 1.55 3.24-.74 3.61-1.62 4.28c0 0 2.51 7.52 2.51 8.63l1.84-.37-2.21-8.41s1.55-2.95 1.25-4.65-2.39-2.59-3.32-2.73Zm33.14-7.82s.55-9.84-5.53-11.72-10.51.66-10.51.66l2.76-12.17-11.5-8.96-27.32 7.52s-2.76-6.53-9.51-6.75-10.84 4.76-10.84 4.76 3.43-5.97 1.11-9.4-12.5-2.21-16.81.22-8.1 8.51-8.18 9.95-.77 4.2 2.21 5.09c2.99.88 4.76 1.33 4.76 1.33l-.33.77s-5.64-1.44-8.29 1l-3.76-11.94-9.29-4.53-4.98 8.29 2.21 11.17-2.88 2.76-1.55 3.98s-.11-6.97-6.41-8.74c-3.87-1.54-6.08.33-6.08.33l-6.3 9.07 49.18 20.65 87.85-13.35Z"/><path fill="#fff2b2" d="m65.6 95.45 2.65-1.11-.33 1.77 7.74 3.54 2.88-.55.44-2.65s5.75 1 7.85.77c2.1-.22 6.08-5.53 6.3-8.74s-1.55-9.07-6.64-11.17c-4.31 1-8.09-1.38-8.09-1.38s-6.64-2.35-7.94-2.27c-1.66.11-10.06.22-12.61 6.19-2.54 5.97-.66 11.61-.66 11.61l8.41 3.98Z"/><path fill="#50eef6" d="M66.81 89.92c2.63 0 4.76-2.53 4.76-5.64s-2.13-5.64-4.76-5.64-4.76 2.53-4.76 5.64 2.13 5.64 4.76 5.64m17.04 2.92c2.63 0 4.76-2.53 4.76-5.64s-2.13-5.64-4.76-5.64-4.76 2.53-4.76 5.64 2.13 5.64 4.76 5.64m3.31-37.64s1.88-3.87-3.76-3.54-11.61 5.53-12.17 7.74c-.55 2.21 1.88 2.88 1.88 2.88z"/><path fill="#0185ff" d="m75.36 69.24-1.03 4.35 4.07 2.34 2.34-5.36zm15.93-8.55-1.33 6.27 5.01 1.55L96 62.83l-4.72-2.14Z"/><path fill="#50eef6" d="M86.25 71.88c.89-.29 1.22-1.71.74-3.16s-1.59-2.39-2.48-2.09c-.89.29-1.22 1.71-.74 3.16s1.59 2.39 2.48 2.09m-24.38.09 3.1-3.91-3.8-11.43-9.29-4.53-5.42 8.88 2.51 11.21 3.54-2.21 9.37 1.99Z"/><path fill="#d18000" d="m59.59 77.57-13.35-3.24-1.55 3.98s6.19-.88 7.82.15c1.62 1.03 4.35 3.61 4.35 3.61zm37.03 1.18s6.53 2.76 7.74 4.98c1.22 2.21 1.77 4.31 1.77 4.31l8.85-2.21s-2.88-2.88-1.88-4.42c1-1.55 2.43-2.43 2.43-2.43l-1.77-4.87-17.14 4.65Z"/><path fill="#50eef6" d="M115.53 78.97s4.22-2.51 7.61-2.51 7.37 1.18 7.37 1.18 3.54 1.18 4.28 2.21.74 2.65.74 2.65 6.64-.44 9.29.74l4.83-20.2-11.5-8.96-27.32 7.52-2.73 7.93 5.31 3.83 1.62 3.24.5 2.36Z"/><path fill="#0185ff" d="m142.02 67.47-3.87-13.38-11.61 3.54zm-31.19-5.86 10.51 10.29 5.2-14.27zm31.19 5.86-20.46 5.09 1.59 3.91s7.93.63 10.25 2.18 2.14 3.87 2.14 3.87l4.5-.22 1.99-14.82Z"/><path fill="#50eef6" d="M192.01 48.01c-.66-1.22-1.55-1.66-2.65-1.44-1.11.22-4.42 1.11-4.42 1.11s-.66-1.77.33-2.65c1-.88 3.54-2.76 3.1-3.65-.44-.88-1.33-1-2.65-1s-3.32-.55-3.21-1.44c.11-.88.66-1.77 2.21-2.43s3.54-1.77 2.76-3.87c-.77-2.1-3.43-1.88-4.87-1.44s-11.72 3.54-11.72 3.54-2.1 1.77-1.33 3.43 2.88 1.44 4.09 1.44 3.65 0 3.76 1.33-.88 2.1-1.88 2.43-2.65 1.66-2.1 2.54 1.77 1.22 2.99 1.22 3.1.44 3.76 1.99l-16.15 4.65s-1-2.88-3.98-2.76c-2.99.11-5.31 1.55-6.19 1s-2.1-1.33-2.43-1.88-3.32-1.11-4.76-1-1.22.55-2.43-.33c-1.22-.88-3.76-3.43-6.86-2.99s-7.85 1.99-8.18 10.51l8.96-2.21-4.24 1c-.44-.81.15-4.35 5.01-4.28 4.54.07 4.07 5.79 3.99 6.55l6.74 5.69-2.76 12.17 3.76-1.66s.5-1.26 1.22-1.55c.72-.28 3.76-1.55 4.31-2.76.55-1.22.33-3.54 1.55-4.09s5.31-1.77 6.08-2.32 1.71-1.34 1.66-2.76l-.05-1.43 25.71-7.86s1.55-1.55.88-2.76h-.01Zm-12.94-9.18c-1.28 0-2.32-.99-2.32-2.21s1.04-2.21 2.32-2.21 2.32.99 2.32 2.21-1.04 2.21-2.32 2.21"/><path fill="#fed607" d="M81.52 98.88s3.98-.33 4.31 2.32c.33 2.66.22 34.06.22 34.06s1.11 3.98 4.76 3.98 4.2-4.31 4.31-5.75.11-34.4.11-34.4-1-5.75-5.2-5.97-8.18 2.54-8.52 5.75Z"/><path fill="#fff2b2" d="m135.6 90.81 5.16-1.07-.07-1.59s-1.77-.55-3.21-.11-2.54 1.88-1.88 2.76Zm8.83 2.84c2 0 3.63-1.68 3.63-3.74s-1.62-3.74-3.63-3.74-3.63 1.68-3.63 3.74 1.62 3.74 3.63 3.74"/><path fill="#fff2b2" d="M148.27 97.56c2 0 3.63-1.68 3.63-3.74s-1.62-3.74-3.63-3.74-3.63 1.68-3.63 3.74 1.62 3.74 3.63 3.74"/><path fill="#fff2b2" d="M152.18 102.42c2 0 3.63-1.68 3.63-3.74s-1.62-3.74-3.63-3.74-3.63 1.68-3.63 3.74 1.62 3.74 3.63 3.74"/><path fill="#fff2b2" d="M152.97 107.47c2.01 0 3.63-1.68 3.63-3.74s-1.62-3.74-3.63-3.74-3.63 1.68-3.63 3.74 1.63 3.74 3.63 3.74"/><path fill="#fff2b2" d="M156.67 111.05c2.01 0 3.63-1.68 3.63-3.74s-1.62-3.74-3.63-3.74-3.63 1.68-3.63 3.74 1.63 3.74 3.63 3.74"/><path fill="#fff2b2" d="M161.12 112.82c2 0 3.63-1.68 3.63-3.74s-1.62-3.74-3.63-3.74-3.63 1.68-3.63 3.74 1.63 3.74 3.63 3.74"/><path fill="#fff2b2" d="M166.18 114.81c2 0 3.63-1.68 3.63-3.74s-1.62-3.74-3.63-3.74-3.63 1.68-3.63 3.74 1.62 3.74 3.63 3.74"/><path fill="#fff2b2" d="M170.98 116.87c2.01 0 3.63-1.68 3.63-3.74s-1.62-3.74-3.63-3.74-3.63 1.68-3.63 3.74 1.62 3.74 3.63 3.74"/><path fill="#fff2b2" d="M176.14 120.41c2.17 0 3.93-1.68 3.93-3.74s-1.76-3.74-3.93-3.74-3.93 1.68-3.93 3.74 1.76 3.74 3.93 3.74"/><path fill="#fff2b2" d="M175.73 125.85c2 0 3.63-1.68 3.63-3.74s-1.63-3.74-3.63-3.74-3.63 1.68-3.63 3.74 1.62 3.74 3.63 3.74m.11.17v2.95s2.82-.37 2.16-3.32z"/><path fill="#03d47c" d="m118.1 93.28 1.77 9.14s.88 1.77 2.06 2.21 16.37 1.77 16.37 1.77.73.53.88-1.33l.15-1.86s2.8-.65 2.5-3.16c-.29-2.51-2.06-10.03-2.06-10.03l-21.68 3.24Z"/><path fill="#002140" d="M128.49 96.78s3.57-.59 4.61.04c1.03.63 3.58 2.18 3.58 2.18s0-5.53-4.09-5.53-4.09 3.32-4.09 3.32Z"/><path fill="#fed607" d="M130.15 118.46s6.64.55 8.18-4.42c1.55-4.98.88-7.85.88-7.85l-12.94-1.88s-1.66 9.29-.88 11.17 3.87 2.76 4.76 2.99Z"/><path fill="#50eef6" d="m129.26 111.6 2.43 4.54 3.87-4.43-2.77-3.87-3.54 3.76Z"/><path fill="#fff2b2" d="m133.46 104.96 3.54.66s2.32-6.3-2.21-7.96c-4.54-1.66-7.41 0-7.85.55s1.88 1.99 1.88 1.99 3.32-1.33 4.65.11 0 4.65 0 4.65Z"/><path fill="#03d47c" d="m86.69 39.9 18.29-3.98s-.88-6.49-4.72-6.19c-3.83.29-14.2 3.8-14.2 3.8s-1.88 1.22.63 6.38Z"/><path fill="none" stroke="#002140" stroke-linecap="round" stroke-linejoin="round" d="m135.33 90.79 5.36-.76.27-1.58s-1.03-.76-2.68-.62-3.02 1.72-2.95 2.95Zm40.39 34.81c2.1 0 3.81-1.71 3.81-3.81s-1.71-3.81-3.81-3.81-3.81 1.71-3.81 3.81 1.71 3.81 3.81 3.81"/><path fill="#002140" d="M69.96 172.3s1.44 1.44 3.09 1.55 8.34-2.47 8.55-13.91c.21-11.43-5.15-15.55-8.14-15.35 0 0-3.71 4.22-5.15 12.88-1.44 8.65 1.65 14.83 1.65 14.83M32.95 69.85s3.5-1.92 6.94-.07 5.18 5.26 5.01 7l1.03-2.54 2.75-1.92-2.61-12.29 5.77-8.58 9.48 5.63 3.78 11.54s3.71-1.44 6.52-1.72c0 0-3.43-.69-4.74-3.57-1.3-2.88 1.51-9.06 8.1-12.5s13.46-4.26 16.14-1.51 1.44 7.42-.76 9.13l.55 1.03s4.26-5.29 10.44-4.74 9.34 6.73 9.34 6.73l19.5-24.51s-2.06-5.01-4.05-5.01L49.99 47.81 32.96 69.85Zm130.43 13.66-.52 3.09 8.55-1.44z"/><path fill="#002140" d="M81 60.45c3.7-1.84 6.24-4.26 5.68-5.39-.57-1.14-4.02-.57-7.72 1.27s-6.24 4.26-5.68 5.39c.57 1.14 4.02.57 7.72-1.27"/><path fill="none" stroke="#002140" stroke-linecap="round" stroke-linejoin="round" d="m115.7 162.33 57.26-8.61m-82 12.33 9.95-1.5m-70.37-15.31 3.19 1.73m80.78-1.68 60.47-9.1m-83.52 12.57 5.42-.82m-50.27-10.12 11.28 4.7m-30.03-12.8 11.17 4.76m109.57-49.7 24.36-3.66M94.92 96.85l45.69-6.87M26.05 78.77l49.41 21.01 7.32-1.1m-4.75 40.79c.35-11.83-.08-25.94-2.58-39.69m37.12 45.74c.97-13.46 1.29-32.51-2.03-50.91m35.1 49.86c1.06-12.12 1.77-30.33-.81-48.53m15.89 9.41c-.41-5.84-1.1-11.82-2.18-17.73m1.72 54.17c.67-7.62 1.19-17.66.85-28.59m-63.44 32.34c.84-13.16.96-30.99-2.17-48.25m-67.97 35.98c.89-10.01 1.81-37.06-1.48-54.5m18.01 28.76c-.35-7.13-1.1-14.56-2.43-21.88m1.96 52.38c.29-3.58.55-7.63.69-12.02m18.19 16.14c.85-13.18.99-31.1-2.16-48.44m102.95-10.1 10.13 1.5c1.43 7.89 2.19 15.9 2.5 23.53 0 0 .06 2.67.02 4.14m-.87 27.42c.37-4.05.7-8.83.89-14.1M130.62 17.43C125.95 9.41 117.73.66 104.36 1.61 76.94 3.53 16.93 21.73 16.93 21.73m15.58 48.34L50 47.58l76.59-15.78"/><path fill="none" stroke="#002140" stroke-linecap="round" stroke-linejoin="round" d="M50 47.58S25.84 7.74 7.15 27.02C-3.66 38.16 2.99 52.1 11.26 62.78l14.78 15.99 6.46-8.7m78.19-8.25 19.48-24.72M53.72 11.53s19.3 5.71 23.9 30.45M89.89 3.62s16.39 6.04 21 30.78m-83.03 99.32s-3.45.14-5.58 2.26m150.68 17.73s7.33-1.01 7.33-7.33-5.32-6.18-5.32-6.18M61.36 120.06 50.58 99.34a.376.376 0 0 0-.65-.04l-11.16 16.39c-.08.12-.09.28-.02.4l9.98 17.6c.13.23.44.26.61.07l11.96-13.27c.11-.12.13-.29.05-.43h0Z"/><path fill="none" stroke="#002140" stroke-linecap="round" stroke-linejoin="round" d="m61.36 120.06-13.8-1.01-8.8-2.96"/><path fill="none" stroke="#002140" stroke-linecap="round" stroke-linejoin="round" d="m50.58 99.34-3.03 19.71 1.79 14.71m-17.37-89.1-17.94-6.97c-.22-.09-.45.1-.42.33l2 16.22c.01.12.1.22.21.26l15.75 5.47c.2.07.41-.08.42-.29l.19-14.72c0-.13-.08-.25-.2-.3h0Z"/><path fill="none" stroke="#002140" stroke-linecap="round" stroke-linejoin="round" d="m31.97 44.66-9.09 6.88-7.06 2.95"/><path fill="none" stroke="#002140" stroke-linecap="round" stroke-linejoin="round" d="m14.03 37.69 8.84 13.85 9.11 8.13m105.59 56.12 2.18 2.22-7.86 12.83-9.43-9.6 2.54-4.15M86.01 33.04 89.2 20.6l11.92 7.57-.29 1.47M84.08 4.79l-2.55 12.87-14.61-8.78m56.31 138.88 7.98-13.03 10.35 10.55m-51.5-65.61c1.44-.66 3.05-1.02 4.74-1.02 6.13 0 11.13 4.82 11.42 10.88M91.07 59.18c2.09-2.74 5.39-4.51 9.1-4.51 4.6 0 8.56 2.71 10.38 6.63M61.54 72.18c2.05-3.04 5.53-5.04 9.48-5.04 1.11 0 2.17.16 3.19.45M44.73 78.53c1.07-.33 2.2-.51 3.38-.51 3.16 0 6.02 1.28 8.08 3.35l.72.84m71.93 9.45c.95-5.35 5.63-9.42 11.26-9.42 4.38 0 8.19 2.46 10.11 6.08"/><path fill="none" stroke="#002140" stroke-linecap="round" stroke-linejoin="round" d="M106.42 94.76c-.8-.81-1.25-1.72-1.25-2.69 0-3.26 5.1-5.9 11.39-5.9 5.96 0 10.86 2.38 11.35 5.4m-12.69-5.69c-1.32-.96-2.09-2.14-2.09-3.41 0-3.26 5.1-5.9 11.39-5.9s11.39 2.64 11.39 5.9m31.01 96.34c0 3.73-5.99 6.76-13.37 6.76s-13.37-3.03-13.37-6.76c0-3.27 4.58-5.99 10.68-6.62"/><path fill="none" stroke="#002140" stroke-linecap="round" stroke-linejoin="round" d="M140.17 178.81v4.31c0 3.73 5.99 6.76 13.37 6.76s13.37-3.03 13.37-6.76v-3.88m11.01-13.55c6.71.36 11.93 3.23 11.93 6.72 0 3.73-5.99 6.76-13.37 6.76-2.65 0-5.12-.39-7.2-1.06"/><path fill="none" stroke="#002140" stroke-linecap="round" stroke-linejoin="round" d="M167.03 181.5c2.42 1.22 5.76 1.98 9.46 1.98 7.39 0 13.37-3.03 13.37-6.76v-4.31m-77.3 11.36c7.39 0 13.37-3.03 13.37-6.76s-5.99-6.76-13.37-6.76-13.37 3.03-13.37 6.76 5.99 6.76 13.37 6.76"/><path fill="none" stroke="#002140" stroke-linecap="round" stroke-linejoin="round" d="M99.19 177.01v4.31c0 3.73 5.99 6.76 13.37 6.76s13.37-3.03 13.37-6.76v-4.31M17.72 149.26c7.39 0 13.37-3.03 13.37-6.76s-5.99-6.76-13.37-6.76-13.37 3.03-13.37 6.76 5.99 6.76 13.37 6.76"/><path fill="none" stroke="#002140" stroke-linecap="round" stroke-linejoin="round" d="M4.34 142.5v4.31c0 3.73 5.99 6.76 13.37 6.76s13.37-3.03 13.37-6.76v-4.31m80.64 24.41c3.63-.86 5.19-7.39 3.48-14.57s-6.04-12.31-9.67-11.45-5.19 7.39-3.49 14.57c1.71 7.18 6.04 12.31 9.67 11.45Z"/><path fill="none" stroke="#002140" stroke-linecap="round" stroke-linejoin="round" d="m105.54 140.86-4.2 1c-3.63.86-5.19 7.39-3.48 14.57 1.71 7.19 6.04 12.31 9.67 11.45l4.2-1m53.03 7.25c7.39 0 13.37-3.03 13.37-6.76s-5.99-6.76-13.37-6.76-13.37 3.03-13.37 6.76 5.99 6.76 13.37 6.76"/><path fill="none" stroke="#002140" stroke-linecap="round" stroke-linejoin="round" d="M151.39 167.37v4.31c0 3.73 5.99 6.76 13.37 6.76s13.37-3.03 13.37-6.76v-4.31M82.97 64.11c7.02-3.49 11.17-9.41 9.27-13.23-1.9-3.81-9.12-4.08-16.14-.59s-11.17 9.41-9.27 13.23c1.9 3.81 9.12 4.08 16.14.59"/><path fill="none" stroke="#002140" stroke-linecap="round" stroke-linejoin="round" d="M81.08 60.5c4.38-2.18 7.16-5.49 6.21-7.4s-5.27-1.69-9.65.49-7.16 5.49-6.21 7.4 5.27 1.69 9.65-.49m10.1-.3c-.36-.76-.58-1.25-.58-1.25M79.24 76.44c1.62 1.59 4.3 2.37 9.41-.17s6.28-5.19 6.09-7.51M74.2 67.24s.44.88 1.04 2.1m18.38 9.12c.6-1.56-.79-2.97-2.02-3.75m-35.17 73.15c-2.22-1.26-5.3-1.62-7.42 3.76-3.2 8.13 1.18 9.73 4.97 9.5"/><path fill="none" stroke="#002140" stroke-linecap="round" stroke-linejoin="round" d="m49.63 150.21-5.64-2.13c-.74-.28-1.56-.16-2.18.32-.82.63-1.66 1.78-1.27 3.77.15.77.7 1.4 1.43 1.68l5.24 1.97"/><path fill="none" stroke="#002140" stroke-linecap="round" stroke-linejoin="round" d="M48.48 149.13s-1.08-10.72-6.08-11.48c-5.01-.77-7.86 8-8.83 14.33-.97 6.34.83 12.34 4.81 12.95s9.17-8.7 9.17-8.7m27.86-87.22 5.14 1.6-1.57 5.56m7.45-4.09c1.13-.37 1.62-1.96 1.1-3.54s-1.86-2.56-3-2.19c-1.13.37-1.62 1.96-1.1 3.54s1.86 2.56 3 2.19m-5.88-1.48-5.92 3.1M95.5 63.32l-5.33 3.58m.94-6.84 4.99 3.06-1.17 5.53-5.23-1.37 1.42-7.23Z"/><path fill="none" stroke="#002140" stroke-linecap="round" stroke-linejoin="round" d="m75.41 69.01-1.15 4.89 4.72 2.26m12.48 84.64c.88-10.69-3.65-19.78-10.12-20.31s-12.42 7.7-13.3 18.39 3.65 19.78 10.12 20.31 12.42-7.7 13.3-18.39"/><path fill="none" stroke="#002140" stroke-linecap="round" stroke-linejoin="round" d="M63.43 141.67c-4.86 2.72-8.16 7.57-9.22 13.75-2.1 12.18 8.32 25.57 23.96 23.78m3.21-38.7c-4.12-1.23-7.95-1.53-11.37-1.03"/><path fill="none" stroke="#002140" stroke-linecap="round" stroke-linejoin="round" d="M61.03 159.7c2.33 0 4.22-1.57 4.22-3.5s-1.89-3.5-4.22-3.5-4.22 1.57-4.22 3.5 1.89 3.5 4.22 3.5m6.71-14.86c2.33 0 4.22-1.27 4.22-2.83s-1.89-2.83-4.22-2.83-4.22 1.26-4.22 2.83 1.89 2.83 4.22 2.83m-4.63 28.63c2.33 0 4.22-1.55 4.22-3.45s-1.89-3.45-4.22-3.45-4.22 1.54-4.22 3.45 1.89 3.45 4.22 3.45m10.86-29.08c4.27.41 7.67 6.85 7.67 14.74s-3.63 14.76-8.1 14.76c-.98 0-1.91-.31-2.78-.89m11.96-74.37s3.16-.14 3.31 3.88v29.84c0 1.49-.36 7.12 5.46 6.83 3.31-.29 3.88-3.16 3.95-6.47"/><path fill="none" stroke="#002140" stroke-linecap="round" stroke-linejoin="round" d="M81.64 98.49c.92-3.25 4.29-5.61 7.64-5.48 4.19.16 6.16 4.15 6.16 7.93v31.78"/><path fill="none" stroke="#002140" stroke-linecap="round" stroke-linejoin="round" d="M86.1 128.83s1.73 1.94 4.67 1.94 4.39-1.94 4.39-1.94m-9.06-9.92s1.73 1.94 4.67 1.94 4.39-1.94 4.39-1.94M86.1 108.7s1.73 1.94 4.67 1.94 4.39-1.94 4.39-1.94m-9.51-8.42s2.1 1.67 5.23 1.23 4.39-2.57 4.39-2.57"/><path fill="#002140" d="M89.35 98.64c.97 0 1.76-.66 1.76-1.47s-.79-1.47-1.76-1.47-1.76.66-1.76 1.47.79 1.47 1.76 1.47m1.41 9.36c.97 0 1.76-.79 1.76-1.76s-.79-1.76-1.76-1.76-1.76.79-1.76 1.76.79 1.76 1.76 1.76m0 9.36c.97 0 1.76-.79 1.76-1.76s-.79-1.76-1.76-1.76-1.76.79-1.76 1.76.79 1.76 1.76 1.76m0 9.63c.97 0 1.76-.79 1.76-1.76s-.79-1.76-1.76-1.76-1.76.79-1.76 1.76.79 1.76 1.76 1.76m0 9.35c.97 0 1.76-.79 1.76-1.76s-.79-1.76-1.76-1.76-1.76.79-1.76 1.76.79 1.76 1.76 1.76"/><path fill="none" stroke="#002140" stroke-linecap="round" stroke-linejoin="round" d="m94.77 70.73 8.3-2.26c1-.27 2.08-.13 2.98.39l6.45 3.77c.75.44 1.33 1.12 1.65 1.93l1.43 3.64m-2.21-4.3-17.45 4.6m18.7 7.19-8.25 2.18m-61.68-9.23.98-3.66c.1-.41.37-.77.74-.98l6.46-3.78c.37-.22.82-.27 1.23-.16l13.29 3.85m-20.98.08 12.79 3.28m87.96-4-2.53 9.69m-36.67-13.52 2.73-7.62 28.04-7.91 11.07 9.21-2.65 10.16m-.28 2.22c1.71-1.27 3.84-2.02 6.14-2.02 5.66 0 10.25 4.53 10.25 10.13 0 1.01-.15 1.98-.43 2.9"/><path fill="none" stroke="#002140" stroke-linecap="round" stroke-linejoin="round" d="m149.81 63.11-7.62 4.74-23.73 5.32-5.08.72"/><path fill="none" stroke="#002140" stroke-linecap="round" stroke-linejoin="round" d="m110.69 61.82 10.64 10.36 5.32-14.53 15.53 10.21-3.45-13.95m-17.4 18.26 2.01 4.17m18.84-8.48-2.08 14.38"/><path fill="none" stroke="#002140" stroke-linecap="round" stroke-linejoin="round" d="M129.47 56.21c-.11-3.2.45-8.3 6.06-9.89 7.84-2.23 7.4 3.85 10.74 3.05 5.44-1.55 5.23 3.15 8.07 2.81s8.38-3.16 9.73 1.56M151.1 73.49c.24-.78.61-1.41 1.54-1.72 5.44-1.55 2.79-5.43 5.38-6.64s8.79-1.73 7.45-6.45m19.17-10.8c-1.16-4.08 4.75-3.14 3.85-6.32-.91-3.18-5.03.93-5.93-2.22s6.44-2.65 5.37-6.4c-.92-3.22-5.3-1.51-5.3-1.51l-9.48 2.7s-4.63.85-3.71 4.07c1.07 3.76 7.04-.53 7.94 2.61.9 3.15-4.78 1.82-3.87 5.01.91 3.18 5.44-.73 6.6 3.35"/><path fill="none" stroke="#002140" stroke-linecap="round" stroke-linejoin="round" d="M164.06 53.74s15.04-4.28 16.04-4.57m-14.7 9.3 25.13-7.15c1.3-.37 2.06-1.73 1.69-3.03a2.457 2.457 0 0 0-3.03-1.69l-4.37 1.24m-5.67-8.73c1.38 0 2.49-1.12 2.49-2.49s-1.12-2.49-2.49-2.49-2.49 1.12-2.49 2.49 1.12 2.49 2.49 2.49m-36.09 18.28c.32-.92.37-1.94.08-2.95a4.913 4.913 0 0 0-9.6.74m16.38-27.5c-12.59 2.62-14.72 4.75-17.34 17.34-2.62-12.59-4.75-14.72-17.34-17.34 12.59-2.62 14.72-4.75 17.34-17.34 2.62 12.59 4.75 14.72 17.34 17.34"/><path fill="#002140" d="M171.37 150.67c1.85 0 3.35-1.62 3.35-3.61s-1.5-3.61-3.35-3.61-3.35 1.62-3.35 3.61 1.5 3.61 3.35 3.61m-11.39 1.55c1.85 0 3.35-1.62 3.35-3.61s-1.5-3.61-3.35-3.61-3.35 1.62-3.35 3.61 1.5 3.61 3.35 3.61m-11.48 1.95c1.85 0 3.35-1.62 3.35-3.61s-1.5-3.61-3.35-3.61-3.35 1.62-3.35 3.61 1.5 3.61 3.35 3.61m-11.38 1.55c1.85 0 3.35-1.62 3.35-3.61s-1.5-3.61-3.35-3.61-3.35 1.62-3.35 3.61 1.5 3.61 3.35 3.61m-12.36 2.27c1.85 0 3.35-1.62 3.35-3.61s-1.5-3.61-3.35-3.61-3.35 1.62-3.35 3.61 1.5 3.61 3.35 3.61m-25.36 2.74c-.51 1.3-1.7 2.21-3.09 2.21-1.85 0-3.35-1.62-3.35-3.61s1.5-3.61 3.35-3.61c.46 0 .9.1 1.31.28m17.85-3.48c1.56.31 2.74 1.78 2.74 3.55 0 1.5-.84 2.78-2.05 3.33m-88.8-21.85c.91-.65 2.05-.83 3.02-.36 1.5.73 2.02 2.75 1.17 4.5-.1.21-.22.4-.35.59 0 0-.82-3.18-2.95-3.93m6.18 9.58c-1.29-.83-1.7-2.7-.9-4.35.64-1.32 1.88-2.11 3.09-2.12"/><path fill="none" stroke="#002140" stroke-linecap="round" stroke-linejoin="round" d="m65.22 68.68-3.71-11.54-9.68-5.77-5.77 8.86 2.68 11.95m95.6 21.53c-2.02-.16-3.61-1.84-3.61-3.9s1.75-3.91 3.91-3.91 3.91 1.75 3.91 3.91"/><path fill="none" stroke="#002140" stroke-linecap="round" stroke-linejoin="round" d="M148.24 97.8a3.91 3.91 0 1 1 0-7.82 3.91 3.91 0 0 1 3.91 3.91c0 .2-.02.4-.05.6"/><path fill="none" stroke="#002140" stroke-linecap="round" stroke-linejoin="round" d="M149.55 101.47c-.8-.72-1.3-1.76-1.3-2.92a3.91 3.91 0 1 1 7.82 0c0 .7-.18 1.35-.5 1.91"/><path fill="none" stroke="#002140" stroke-linecap="round" stroke-linejoin="round" d="M152.62 107.52c-2.02-.15-3.62-1.84-3.62-3.9s1.75-3.91 3.91-3.91c2.04 0 3.71 1.56 3.9 3.55"/><path fill="none" stroke="#002140" stroke-linecap="round" stroke-linejoin="round" d="M157.34 111.08c-.18.04-.37.06-.57.07-2.16.11-4-1.54-4.12-3.7-.11-2.16 1.54-4 3.7-4.12 1.53-.08 2.9.73 3.61 1.97"/><path fill="none" stroke="#002140" stroke-linecap="round" stroke-linejoin="round" d="M162.64 112.92c-.37.12-.77.18-1.18.18a3.91 3.91 0 1 1 0-7.82c1.58 0 2.94.93 3.56 2.28"/><path fill="none" stroke="#002140" stroke-linecap="round" stroke-linejoin="round" d="M167.57 115.03c-.37.11-.76.18-1.16.18a3.91 3.91 0 1 1 0-7.82c1.62 0 3.01.98 3.6 2.38"/><path fill="none" stroke="#002140" stroke-linecap="round" stroke-linejoin="round" d="M172.27 117.3c-.29.07-.58.1-.89.1a3.91 3.91 0 1 1 0-7.82c1.89 0 3.47 1.34 3.83 3.13"/><path fill="none" stroke="#002140" stroke-linecap="round" stroke-linejoin="round" d="M173.21 119.05c-.5-.66-.8-1.48-.8-2.38a3.91 3.91 0 1 1 7.82 0c0 1.19-.53 2.25-1.36 2.97"/><path fill="none" stroke="#002140" stroke-linecap="round" stroke-linejoin="round" d="M175.81 125.95a3.91 3.91 0 1 0 0-7.82 3.91 3.91 0 1 0 0 7.82m2.47-.45c0 1.62-.99 3.01-2.39 3.61M75.59 69.37l1.31 3.09 1.99 3.02m12.49-14.83 2.2 3.71 1.34 4.3M51.9 51.72l3.16 7.35-8.65 1.37m15.1-3.3-6.45 1.92 3.23 12.08m16.4 3.08c-13.44-1.97-16.86 3.5-18.07 9.95-.37 2-.58 5.07.74 7.61m34.29 1.64c.58-.93 1.03-2.07 1.29-3.44.95-5.05-.12-9.51-6.81-12.63m-7.88 21.94c.4-1.21.53-2.74.56-3.79 0 0 1.2 1.25 3.22 1.77m-7.56 1.82c.66-1.2.97-2.74.97-2.74s-.55 1.75-.34 3.07m-3.91-1.62c.18-.53.33-1.15.48-1.84 0 0-.24.97-.29 2.04m-5.2-2.4c1.54-.58 2.28-1.73 2.35-1.93-.06.2-.46 1.48-.67 2.83m5.3-7.07s1.45-5.4 2.59-5.27c1.14.14.57 5.86.57 5.86"/><path fill="none" stroke="#002140" stroke-linecap="round" stroke-linejoin="round" d="M71.49 85.14c.64-3.09-.9-6.02-3.44-6.55s-5.13 1.54-5.77 4.63.9 6.02 3.44 6.55 5.13-1.54 5.77-4.63"/><path fill="#002140" d="M69.13 79.95c-1.55-.27-3.11 1.12-3.71 3.19l2.09 1.49s-1.49.66-2.28 1.13c.24 1.59 1.14 2.81 2.38 3.03 1.72.29 3.45-1.44 3.87-3.88s-.64-4.65-2.36-4.95Z"/><path fill="none" stroke="#002140" stroke-linecap="round" stroke-linejoin="round" d="M88.53 88.05c.64-3.09-.9-6.02-3.44-6.55s-5.13 1.54-5.77 4.63.9 6.02 3.44 6.55 5.13-1.54 5.77-4.63"/><path fill="#002140" d="M86.17 82.86c-1.55-.27-3.11 1.12-3.71 3.19l2.09 1.49s-1.49.66-2.28 1.13c.24 1.59 1.14 2.81 2.38 3.03 1.72.29 3.45-1.44 3.87-3.88s-.64-4.65-2.36-4.95Z"/><path fill="none" stroke="#002140" stroke-linecap="round" stroke-linejoin="round" d="M97.67 145.54v1m-58.62-62.2c1.19-3.63 4.96-6.29 9.42-6.29 3.39 0 6.37 1.53 8.14 3.84"/><path fill="none" stroke="#002140" stroke-linecap="round" stroke-linejoin="round" d="M33.16 69.24c.62-.1 1.26-.15 1.91-.15 5.24 0 9.49 3.35 9.49 7.48 0 .82-.17 1.6-.47 2.34m-4.68 4.32c-.52.21-1.06.38-1.63.52m48.74-44.19s-3.3-5.49 0-6.59 12.1-2.96 13.81-3.3 3.77.79 4.73 5.91"/><path fill="#002140" d="M89.47 37.16c.82 0 1.49-.65 1.49-1.44s-.67-1.44-1.49-1.44-1.49.65-1.49 1.44.67 1.44 1.49 1.44m5.26-1.23c.82 0 1.49-.65 1.49-1.44s-.67-1.44-1.49-1.44-1.49.65-1.49 1.44.67 1.44 1.49 1.44m5.25-1.14c.82 0 1.49-.65 1.49-1.44s-.67-1.44-1.49-1.44-1.49.65-1.49 1.44.67 1.44 1.49 1.44m26.53 83.05s-2.33-8.8-.11-13.89h-2.97s-3.92 12.83 3.07 13.89Z"/><path fill="none" stroke="#002140" stroke-linecap="round" stroke-linejoin="round" d="M138.54 105.96c1.09-.9.79-2.74.79-2.74s2.85-.16 2.52-2.96c-.32-2.8-.96-7.33-1.69-10.04m-21.83 3.3c.37 1.56.69 3.12.98 4.69.23 1.24.45 2.49.57 3.75.11 1.13.3 2.2 1.49 2.59 1.05.35 2.29.32 3.38.18m2.13-6.88a6.6 6.6 0 0 1 4.81-1.37c3.59.39 6.2 3.56 5.81 7.07-.07.65-.24 1.27-.49 1.85"/><path fill="none" stroke="#002140" stroke-linecap="round" stroke-linejoin="round" d="M128.89 100.32c.65-.54 1.51-.82 2.42-.72 1.78.19 3.07 1.8 2.88 3.58-.07.65-.33 1.24-.72 1.71m-9.65-.95 15.51 2.19s.99 13.9-9.54 12.41-5.97-14.6-5.97-14.6"/><path fill="none" stroke="#002140" stroke-linecap="round" stroke-linejoin="round" d="M126.42 104.76s-3.64 12.72 2.82 13.61m1.87-18.1s4.44 1.38 6.4-1.38m-10.63-1.04s-.11 1.74 2.02 2.47"/><path fill="none" stroke="#002140" stroke-linecap="round" stroke-linejoin="round" d="M128.6 96.71c.32-1.63 1.37-2.93 2.85-3.26 2.14-.48 4.35 1.26 4.93 3.89.15.66.18 1.31.11 1.92m-3.63 7.99-3.86 4 2.47 5.02 3.93-4.36-2.55-4.66Zm-.15.8-1.09 7.71m-2.62-4.51 5.89.58"/></svg>