<svg xmlns="http://www.w3.org/2000/svg" id="Layer_1" viewBox="0 0 20 20"><defs><style>.st0{fill-rule:evenodd}</style></defs><path d="M10.1 11c.6 0 1.2.5 1.2 1.2 0 .5-.2.9-.6 1.1l.7 1.3c.1.2 0 .4-.2.4H9c-.2 0-.3-.2-.2-.4l.7-1.3c-.4-.3-.6-.6-.6-1.1 0-.6.599-1.2 1.199-1.2Z"/><path d="M17 1c1 0 1.9.8 2 1.8v.5l-1.4 4.5 2.301 3.601c0 .1.1.2.1.3v.399l-1 6.101c-.1.5-.5.8-1 .8H2c-.5 0-.9-.3-1-.8L0 12.2v-.4c0-.1 0-.2.1-.3l2.301-3.6L1 3.3v-.5C1.1 1.8 2 1 3 1zM4.2 8.8 2.8 11h3.7c.3 0 .5.2.5.5V15c0 .5.5 1 1 1h4c.5 0 1-.5 1-1v-3.5c0-.3.2-.5.5-.5h3.7l-1.4-2.2zM3.3 4l1 3.2h11.4l1-3.2z" class="st0"/></svg>