<?xml version="1.0" encoding="UTF-8"?>
<svg id="Layer_1" xmlns="http://www.w3.org/2000/svg" version="1.1" viewBox="0 0 194 192">
  <!-- Generator: Adobe Illustrator 30.1.0, SVG Export Plug-In . SVG Version: 2.1.1 Build 136)  -->
  <path d="M25.89,78.97l24.11-30.97,85.16-18.36S128.97,2,106.18,1.33c0,0-35.44,4.87-62.38,12.61l-28.98,8.18S1.12,26.99,1.34,40.93c.22,13.94,21.68,34.06,24.55,38.05Z" fill="#03d47c"/>
  <path d="M25.89,78.97l24.11-30.97s-12.98-24.33-31.71-26.25c-11.8-.15-15.93,13.12-16.52,15.19-.59,2.06-.29,12.98,7.08,22.56,7.37,9.59,17.03,19.47,17.03,19.47h0Z" fill="#085239"/>
  <path d="M75.07,99.62l-49.18-20.65s4.35,29.64,1.55,54.41l49.11,21.09,1.92-16.07s-.15-33.92-3.39-38.78h0Z" fill="#085239"/>
  <path d="M75.07,99.62s6.14,26.94.88,50.14l1.77,19.17,24.18-4.72,71.82-10.62s6.93-2.51,6.64-7.08c-.29-4.57-3.54-6.64-5.46-6.49,0,0,3.98-40.26-1.62-54.71l-98.21,14.3h0Z" fill="#03d47c"/>
  <path d="M173.13,153.44s7.67-.29,7.23-7.82c-.44-7.52-9-5.01-9-5.01l-92.17,14.16-51.76-21.38s-5.75,1.47-7.08,5.16c-1.33,3.69,6.02,8.15,9.59,10.76,3.56,2.62,45.86,19.02,45.86,19.02l97.33-14.89h0Z" fill="#008c59"/>
  <path d="M90.59,3.32l-36.61,8.07s20.57,7.52,23.56,30.08l33.18-6.53s-.33-17.92-20.13-31.63h0Z" fill="#0185ff"/>
  <path d="M94.02,38.49l5.31-1.1,1.66-9.4-11.72-7.41-3.21,12.94,7.96,4.98Z" fill="#50eef6"/>
  <path d="M81.63,17.37l2.32-13.05-16.92,3.98.66.78,13.94,8.29Z" fill="#50eef6"/>
  <path d="M132.18,44.47s2.88-10.4,6.19-12.72c3.32-2.32,10.51-4.31,10.51-4.31,0,0-10.06-1.99-11.83-5.09-1.77-3.1-3.98-9.29-4.31-10.84,0,0-1.44,9.62-5.75,12.06-4.31,2.43-10.62,4.2-10.62,4.2,0,0,10.57,1.92,12.17,5.53,1.6,3.61,3.65,11.17,3.65,11.17h0Z" fill="#ffed8f"/>
  <path d="M15.49,54.49l16.37,5.31-.15-14.89-18.14-7.08,1.92,16.66Z" fill="#0185ff"/>
  <path d="M50.15,99.47l-11.8,16.37,10.18,17.84,12.83-13.57-11.21-20.65Z" fill="#0185ff"/>
  <path d="M22.9,51.43l8.81-6.52-17.22-6.86,8.4,13.38Z" fill="#50eef6"/>
  <path d="M47.79,119.08l13.57,1.03-11.21-20.65-2.36,19.61Z" fill="#50eef6"/>
  <path d="M112.43,183.82c7.36,0,13.33-3.1,13.33-6.91s-5.97-6.91-13.33-6.91-13.33,3.1-13.33,6.91,5.97,6.91,13.33,6.91Z" fill="#fed607"/>
  <path d="M99.33,178.84v3.76s3.43,5.97,14.05,5.53c10.62-.44,12.5-6.19,12.5-6.19v-3.43s-3.99,5.53-13.44,5.31c-9.45-.22-13.1-4.98-13.1-4.98h0Z" fill="#e4bc07"/>
  <path d="M17.65,149.54c7.36,0,13.33-3.1,13.33-6.91s-5.97-6.91-13.33-6.91-13.33,3.09-13.33,6.91,5.97,6.91,13.33,6.91Z" fill="#fed607"/>
  <path d="M4.54,144.56v3.76s3.43,5.97,14.05,5.53c10.62-.44,12.5-6.19,12.5-6.19v-3.43s-3.99,5.53-13.44,5.31c-9.45-.22-13.1-4.98-13.1-4.98h0Z" fill="#e4bc07"/>
  <path d="M111.47,166.74c3.71-.88,5.35-7.4,3.64-14.57-1.7-7.16-6.09-12.25-9.81-11.37-3.71.88-5.35,7.4-3.64,14.57,1.7,7.16,6.09,12.25,9.81,11.37Z" fill="#fed607"/>
  <path d="M103.47,141.45l-3.66.87s-5.02,4.72-2.13,14.94c2.89,10.23,8.92,10.73,8.92,10.73l3.34-.79s-6.3-2.6-8.27-11.85c-1.97-9.25,1.81-13.9,1.81-13.9h0Z" fill="#e4bc07"/>
  <path d="M176.36,178.96c7.36,0,13.33-3.1,13.33-6.91s-5.97-6.91-13.33-6.91-13.33,3.1-13.33,6.91,5.97,6.91,13.33,6.91Z" fill="#fed607"/>
  <path d="M163.25,173.98v3.76s3.43,5.97,14.05,5.53c10.62-.44,12.5-6.19,12.5-6.19v-3.43s-3.99,5.53-13.44,5.31c-9.45-.22-13.1-4.98-13.1-4.98h0Z" fill="#e4bc07"/>
  <path d="M153.57,185.59c7.36,0,13.33-3.1,13.33-6.91s-5.97-6.91-13.33-6.91-13.33,3.09-13.33,6.91,5.97,6.91,13.33,6.91Z" fill="#fed607"/>
  <path d="M140.47,180.61v3.76s3.43,5.97,14.05,5.53c10.62-.44,12.5-6.19,12.5-6.19v-3.43s-3.99,5.53-13.44,5.31c-9.45-.22-13.1-4.98-13.1-4.98h0Z" fill="#e4bc07"/>
  <path d="M164.74,174.42c7.36,0,13.33-3.1,13.33-6.91s-5.97-6.91-13.33-6.91-13.33,3.1-13.33,6.91,5.97,6.91,13.33,6.91Z" fill="#fed607"/>
  <path d="M151.64,169.44v3.76s3.43,5.97,14.05,5.53c10.62-.44,12.5-6.19,12.5-6.19v-3.43s-3.99,5.53-13.44,5.31-13.1-4.98-13.1-4.98h0Z" fill="#e4bc07"/>
  <path d="M78.2,179.4s8.96-.11,11.83-11.39c2.88-11.28,1.99-25.66-8.18-27.65,0,0-7.85-1.44-12.5-1.22,0,0-9.73,2.1-12.72,8.96,0,0-1.77-1.44-3.1-1.11-1.33.33-4.09,2.88-4.09,2.88l-1-.44s-1.22-12.06-6.64-11.83c-5.42.22-7.63,11.39-8.52,15.37-.89,3.98,1.66,11.28,4.2,11.94,2.54.66,6.19-3.65,7.08-4.42.88-.77,3.21-3.54,3.21-3.54,0,0,1.11,3.32,2.99,3.76,1.88.44,2.99.44,2.99.44,0,0,3.1,12.72,12.72,16.37,7.94,2.2,11.72,1.88,11.72,1.88h0Z" fill="#fed607"/>
  <path d="M63.72,140.91s-1.11,2.88,2.21,3.54c3.32.66,5.53-.17,5.75-1.33s0-3.43-2.88-3.87c-2.88-.44-4.2-.22-5.09,1.66h0Z" fill="#0185ff"/>
  <path d="M60.95,159.16c2.26,0,4.09-1.36,4.09-3.04s-1.83-3.04-4.09-3.04-4.09,1.36-4.09,3.04,1.83,3.04,4.09,3.04Z" fill="#0185ff"/>
  <path d="M62.83,173.04c2.26,0,4.09-1.36,4.09-3.04s-1.83-3.04-4.09-3.04-4.09,1.36-4.09,3.04,1.83,3.04,4.09,3.04Z" fill="#0185ff"/>
  <path d="M110.46,94.75s4.57,23.45,2.06,50.29l2.21,4.42,30.82-5.01s3.1-38.19-1.92-54.56l-33.18,4.87h0Z" fill="#0185ff"/>
  <path d="M127.13,113.78l-4.57,7.52,9.44,9.29,7.67-12.68-4.57-4.42" fill="#50eef6"/>
  <path d="M123.14,147.84l18.43-2.8-10.47-10.17-7.96,12.98Z" fill="#50eef6"/>
  <path d="M129.78,94.09s1.62,2.06,1.55,3.24c-.07,1.18-.74,3.61-1.62,4.28,0,0,2.51,7.52,2.51,8.63l1.84-.37-2.21-8.41s1.55-2.95,1.25-4.65c-.3-1.7-2.39-2.59-3.32-2.73h0Z" fill="#fed607"/>
  <path d="M162.92,86.27s.55-9.84-5.53-11.72c-6.08-1.88-10.51.66-10.51.66l2.76-12.17-11.5-8.96-27.32,7.52s-2.76-6.53-9.51-6.75c-6.75-.22-10.84,4.76-10.84,4.76,0,0,3.43-5.97,1.11-9.4-2.32-3.43-12.5-2.21-16.81.22-4.31,2.43-8.1,8.51-8.18,9.95-.08,1.44-.77,4.2,2.21,5.09,2.99.88,4.76,1.33,4.76,1.33l-.33.77s-5.64-1.44-8.29,1l-3.76-11.94-9.29-4.53-4.98,8.29,2.21,11.17-2.88,2.76-1.55,3.98s-.11-6.97-6.41-8.74c-3.87-1.54-6.08.33-6.08.33l-6.3,9.07,49.18,20.65,87.85-13.35h0Z" fill="#fed607"/>
  <path d="M65.6,95.45l2.65-1.11-.33,1.77,7.74,3.54,2.88-.55.44-2.65s5.75,1,7.85.77c2.1-.22,6.08-5.53,6.3-8.74.22-3.21-1.55-9.07-6.64-11.17-4.31,1-8.09-1.38-8.09-1.38,0,0-6.64-2.35-7.94-2.27-1.66.11-10.06.22-12.61,6.19-2.54,5.97-.66,11.61-.66,11.61l8.41,3.98h0Z" fill="#fff2b2"/>
  <path d="M66.81,89.92c2.63,0,4.76-2.53,4.76-5.64s-2.13-5.64-4.76-5.64-4.76,2.53-4.76,5.64,2.13,5.64,4.76,5.64Z" fill="#50eef6"/>
  <path d="M83.85,92.84c2.63,0,4.76-2.53,4.76-5.64s-2.13-5.64-4.76-5.64-4.76,2.53-4.76,5.64,2.13,5.64,4.76,5.64Z" fill="#50eef6"/>
  <path d="M87.16,55.2s1.88-3.87-3.76-3.54c-5.64.33-11.61,5.53-12.17,7.74-.55,2.21,1.88,2.88,1.88,2.88l14.05-7.08h0Z" fill="#50eef6"/>
  <path d="M75.36,69.24l-1.03,4.35,4.07,2.34,2.34-5.36-5.38-1.33Z" fill="#0185ff"/>
  <path d="M91.29,60.69l-1.33,6.27,5.01,1.55,1.03-5.68-4.72-2.14Z" fill="#0185ff"/>
  <path d="M86.25,71.88c.89-.29,1.22-1.71.74-3.16-.48-1.45-1.59-2.39-2.48-2.09-.89.29-1.22,1.71-.74,3.16.48,1.45,1.59,2.39,2.48,2.09Z" fill="#50eef6"/>
  <path d="M61.87,71.97l3.1-3.91-3.8-11.43-9.29-4.53-5.42,8.88,2.51,11.21,3.54-2.21,9.37,1.99Z" fill="#50eef6"/>
  <path d="M59.59,77.57l-13.35-3.24-1.55,3.98s6.19-.88,7.82.15c1.62,1.03,4.35,3.61,4.35,3.61l2.73-4.5h0Z" fill="#d18000"/>
  <path d="M96.62,78.75s6.53,2.76,7.74,4.98c1.22,2.21,1.77,4.31,1.77,4.31l8.85-2.21s-2.88-2.88-1.88-4.42c1-1.55,2.43-2.43,2.43-2.43l-1.77-4.87-17.14,4.65h0Z" fill="#d18000"/>
  <path d="M115.53,78.97s4.22-2.51,7.61-2.51,7.37,1.18,7.37,1.18c0,0,3.54,1.18,4.28,2.21.74,1.03.74,2.65.74,2.65,0,0,6.64-.44,9.29.74l4.83-20.2-11.5-8.96-27.32,7.52-2.73,7.93,5.31,3.83,1.62,3.24.5,2.36h0Z" fill="#50eef6"/>
  <path d="M142.02,67.47l-3.87-13.38-11.61,3.54,15.48,9.84Z" fill="#0185ff"/>
  <path d="M110.83,61.61l10.51,10.29,5.2-14.27-15.71,3.98Z" fill="#0185ff"/>
  <path d="M142.02,67.47l-20.46,5.09,1.59,3.91s7.93.63,10.25,2.18c2.32,1.55,2.14,3.87,2.14,3.87l4.5-.22,1.99-14.82h0Z" fill="#0185ff"/>
  <path d="M192.01,48.01c-.66-1.22-1.55-1.66-2.65-1.44-1.11.22-4.42,1.11-4.42,1.11,0,0-.66-1.77.33-2.65,1-.88,3.54-2.76,3.1-3.65-.44-.88-1.33-1-2.65-1s-3.32-.55-3.21-1.44c.11-.88.66-1.77,2.21-2.43,1.55-.66,3.54-1.77,2.76-3.87-.77-2.1-3.43-1.88-4.87-1.44-1.44.44-11.72,3.54-11.72,3.54,0,0-2.1,1.77-1.33,3.43.77,1.66,2.88,1.44,4.09,1.44s3.65,0,3.76,1.33c.11,1.33-.88,2.1-1.88,2.43-1,.33-2.65,1.66-2.1,2.54.55.88,1.77,1.22,2.99,1.22s3.1.44,3.76,1.99l-16.15,4.65s-1-2.88-3.98-2.76c-2.99.11-5.31,1.55-6.19,1-.88-.55-2.1-1.33-2.43-1.88-.33-.55-3.32-1.11-4.76-1s-1.22.55-2.43-.33c-1.22-.88-3.76-3.43-6.86-2.99-3.1.44-7.85,1.99-8.18,10.51l8.96-2.21-4.24,1c-.44-.81.15-4.35,5.01-4.28,4.54.07,4.07,5.79,3.99,6.55l6.74,5.69-2.76,12.17,3.76-1.66s.5-1.26,1.22-1.55c.72-.28,3.76-1.55,4.31-2.76.55-1.22.33-3.54,1.55-4.09,1.22-.55,5.31-1.77,6.08-2.32.77-.55,1.71-1.34,1.66-2.76l-.05-1.43,25.71-7.86s1.55-1.55.88-2.76h-.01ZM179.07,38.83c-1.28,0-2.32-.99-2.32-2.21s1.04-2.21,2.32-2.21,2.32.99,2.32,2.21-1.04,2.21-2.32,2.21Z" fill="#50eef6"/>
  <path d="M81.52,98.88s3.98-.33,4.31,2.32c.33,2.66.22,34.06.22,34.06,0,0,1.11,3.98,4.76,3.98s4.2-4.31,4.31-5.75c.11-1.44.11-34.4.11-34.4,0,0-1-5.75-5.2-5.97-4.2-.22-8.18,2.54-8.52,5.75h0Z" fill="#fed607"/>
  <path d="M135.6,90.81l5.16-1.07-.07-1.59s-1.77-.55-3.21-.11c-1.44.44-2.54,1.88-1.88,2.76h0Z" fill="#fff2b2"/>
  <path d="M144.43,93.65c2,0,3.63-1.68,3.63-3.74s-1.62-3.74-3.63-3.74-3.63,1.68-3.63,3.74,1.62,3.74,3.63,3.74Z" fill="#fff2b2"/>
  <path d="M148.27,97.56c2,0,3.63-1.68,3.63-3.74s-1.62-3.74-3.63-3.74-3.63,1.68-3.63,3.74,1.62,3.74,3.63,3.74Z" fill="#fff2b2"/>
  <path d="M152.18,102.42c2,0,3.63-1.68,3.63-3.74s-1.62-3.74-3.63-3.74-3.63,1.68-3.63,3.74,1.62,3.74,3.63,3.74Z" fill="#fff2b2"/>
  <path d="M152.97,107.47c2.01,0,3.63-1.68,3.63-3.74s-1.62-3.74-3.63-3.74-3.63,1.68-3.63,3.74,1.63,3.74,3.63,3.74Z" fill="#fff2b2"/>
  <path d="M156.67,111.05c2.01,0,3.63-1.68,3.63-3.74s-1.62-3.74-3.63-3.74-3.63,1.68-3.63,3.74,1.63,3.74,3.63,3.74Z" fill="#fff2b2"/>
  <path d="M161.12,112.82c2,0,3.63-1.68,3.63-3.74s-1.62-3.74-3.63-3.74-3.63,1.68-3.63,3.74,1.63,3.74,3.63,3.74Z" fill="#fff2b2"/>
  <path d="M166.18,114.81c2,0,3.63-1.68,3.63-3.74s-1.62-3.74-3.63-3.74-3.63,1.68-3.63,3.74,1.62,3.74,3.63,3.74Z" fill="#fff2b2"/>
  <path d="M170.98,116.87c2.01,0,3.63-1.68,3.63-3.74s-1.62-3.74-3.63-3.74-3.63,1.68-3.63,3.74,1.62,3.74,3.63,3.74Z" fill="#fff2b2"/>
  <path d="M176.14,120.41c2.17,0,3.93-1.68,3.93-3.74s-1.76-3.74-3.93-3.74-3.93,1.68-3.93,3.74,1.76,3.74,3.93,3.74Z" fill="#fff2b2"/>
  <path d="M175.73,125.85c2,0,3.63-1.68,3.63-3.74s-1.63-3.74-3.63-3.74-3.63,1.68-3.63,3.74,1.62,3.74,3.63,3.74Z" fill="#fff2b2"/>
  <path d="M175.84,126.02v2.95s2.82-.37,2.16-3.32l-2.16.37h0Z" fill="#fff2b2"/>
  <path d="M118.1,93.28l1.77,9.14s.88,1.77,2.06,2.21c1.18.44,16.37,1.77,16.37,1.77,0,0,.73.53.88-1.33l.15-1.86s2.8-.65,2.5-3.16c-.29-2.51-2.06-10.03-2.06-10.03l-21.68,3.24h0Z" fill="#03d47c"/>
  <path d="M128.49,96.78s3.57-.59,4.61.04c1.03.63,3.58,2.18,3.58,2.18,0,0,0-5.53-4.09-5.53s-4.09,3.32-4.09,3.32h0Z" fill="#002140"/>
  <path d="M130.15,118.46s6.64.55,8.18-4.42c1.55-4.98.88-7.85.88-7.85l-12.94-1.88s-1.66,9.29-.88,11.17c.78,1.88,3.87,2.76,4.76,2.99Z" fill="#fed607"/>
  <path d="M129.26,111.6l2.43,4.54,3.87-4.43-2.77-3.87-3.54,3.76Z" fill="#50eef6"/>
  <path d="M133.46,104.96l3.54.66s2.32-6.3-2.21-7.96c-4.54-1.66-7.41,0-7.85.55-.44.55,1.88,1.99,1.88,1.99,0,0,3.32-1.33,4.65.11,1.33,1.44,0,4.65,0,4.65h0Z" fill="#fff2b2"/>
  <path d="M86.69,39.9l18.29-3.98s-.88-6.49-4.72-6.19c-3.83.29-14.2,3.8-14.2,3.8,0,0-1.88,1.22.63,6.38Z" fill="#03d47c"/>
  <path d="M135.33,90.79l5.36-.76.27-1.58s-1.03-.76-2.68-.62c-1.65.14-3.02,1.72-2.95,2.95Z" fill="none" stroke="#002140" stroke-linecap="round" stroke-linejoin="round"/>
  <path d="M175.72,125.6c2.1,0,3.81-1.71,3.81-3.81s-1.71-3.81-3.81-3.81-3.81,1.71-3.81,3.81,1.71,3.81,3.81,3.81Z" fill="none" stroke="#002140" stroke-linecap="round" stroke-linejoin="round"/>
  <path d="M69.96,172.3s1.44,1.44,3.09,1.55,8.34-2.47,8.55-13.91c.21-11.43-5.15-15.55-8.14-15.35,0,0-3.71,4.22-5.15,12.88-1.44,8.65,1.65,14.83,1.65,14.83h0Z" fill="#002140"/>
  <path d="M32.95,69.85s3.5-1.92,6.94-.07,5.18,5.26,5.01,7l1.03-2.54,2.75-1.92-2.61-12.29,5.77-8.58,9.48,5.63,3.78,11.54s3.71-1.44,6.52-1.72c0,0-3.43-.69-4.74-3.57-1.3-2.88,1.51-9.06,8.1-12.5s13.46-4.26,16.14-1.51c2.68,2.75,1.44,7.42-.76,9.13l.55,1.03s4.26-5.29,10.44-4.74c6.18.55,9.34,6.73,9.34,6.73l19.5-24.51s-2.06-5.01-4.05-5.01l-76.15,15.86-17.03,22.04h0Z" fill="#002140"/>
  <path d="M163.38,83.51l-.52,3.09,8.55-1.44-8.03-1.65Z" fill="#002140"/>
  <path d="M81,60.45c3.7-1.84,6.24-4.26,5.68-5.39-.57-1.14-4.02-.57-7.72,1.27-3.7,1.84-6.24,4.26-5.68,5.39.57,1.14,4.02.57,7.72-1.27Z" fill="#002140"/>
  <path d="M115.7,162.33l57.26-8.61" fill="none" stroke="#002140" stroke-linecap="round" stroke-linejoin="round"/>
  <path d="M90.96,166.05l9.95-1.5" fill="none" stroke="#002140" stroke-linecap="round" stroke-linejoin="round"/>
  <path d="M30.54,149.24l3.19,1.73" fill="none" stroke="#002140" stroke-linecap="round" stroke-linejoin="round"/>
  <path d="M114.51,149.29l60.47-9.1" fill="none" stroke="#002140" stroke-linecap="round" stroke-linejoin="round"/>
  <path d="M91.46,152.76l5.42-.82" fill="none" stroke="#002140" stroke-linecap="round" stroke-linejoin="round"/>
  <path d="M46.61,141.82l11.28,4.7" fill="none" stroke="#002140" stroke-linecap="round" stroke-linejoin="round"/>
  <path d="M27.86,133.72l11.17,4.76" fill="none" stroke="#002140" stroke-linecap="round" stroke-linejoin="round"/>
  <path d="M148.6,88.78l24.36-3.66" fill="none" stroke="#002140" stroke-linecap="round" stroke-linejoin="round"/>
  <path d="M94.92,96.85l45.69-6.87" fill="none" stroke="#002140" stroke-linecap="round" stroke-linejoin="round"/>
  <path d="M26.05,78.77l49.41,21.01,7.32-1.1" fill="none" stroke="#002140" stroke-linecap="round" stroke-linejoin="round"/>
  <path d="M78.03,139.47c.35-11.83-.08-25.94-2.58-39.69" fill="none" stroke="#002140" stroke-linecap="round" stroke-linejoin="round"/>
  <path d="M112.57,145.52c.97-13.46,1.29-32.51-2.03-50.91" fill="none" stroke="#002140" stroke-linecap="round" stroke-linejoin="round"/>
  <path d="M145.64,144.47c1.06-12.12,1.77-30.33-.81-48.53" fill="none" stroke="#002140" stroke-linecap="round" stroke-linejoin="round"/>
  <path d="M160.72,105.35c-.41-5.84-1.1-11.82-2.18-17.73" fill="none" stroke="#002140" stroke-linecap="round" stroke-linejoin="round"/>
  <path d="M160.26,141.79c.67-7.62,1.19-17.66.85-28.59" fill="none" stroke="#002140" stroke-linecap="round" stroke-linejoin="round"/>
  <path d="M97.67,145.54c.84-13.16.96-30.99-2.17-48.25" fill="none" stroke="#002140" stroke-linecap="round" stroke-linejoin="round"/>
  <path d="M27.53,133.27c.89-10.01,1.81-37.06-1.48-54.5" fill="none" stroke="#002140" stroke-linecap="round" stroke-linejoin="round"/>
  <path d="M44.06,107.53c-.35-7.13-1.1-14.56-2.43-21.88" fill="none" stroke="#002140" stroke-linecap="round" stroke-linejoin="round"/>
  <path d="M43.59,138.03c.29-3.58.55-7.63.69-12.02" fill="none" stroke="#002140" stroke-linecap="round" stroke-linejoin="round"/>
  <path d="M62.47,142.15c.85-13.18.99-31.1-2.16-48.44" fill="none" stroke="#002140" stroke-linecap="round" stroke-linejoin="round"/>
  <path d="M163.26,83.61l10.13,1.5c1.43,7.89,2.19,15.9,2.5,23.53,0,0,.06,2.67.02,4.14" fill="none" stroke="#002140" stroke-linecap="round" stroke-linejoin="round"/>
  <path d="M175.04,140.2c.37-4.05.7-8.83.89-14.1" fill="none" stroke="#002140" stroke-linecap="round" stroke-linejoin="round"/>
  <path d="M130.62,17.43c-4.67-8.02-12.89-16.77-26.26-15.82C76.94,3.53,16.93,21.73,16.93,21.73" fill="none" stroke="#002140" stroke-linecap="round" stroke-linejoin="round"/>
  <path d="M32.51,70.07l17.49-22.49,76.59-15.78" fill="none" stroke="#002140" stroke-linecap="round" stroke-linejoin="round"/>
  <path d="M50,47.58S25.84,7.74,7.15,27.02c-10.81,11.14-4.16,25.08,4.11,35.76l14.78,15.99,6.46-8.7" fill="none" stroke="#002140" stroke-linecap="round" stroke-linejoin="round"/>
  <path d="M110.69,61.82l19.48-24.72" fill="none" stroke="#002140" stroke-linecap="round" stroke-linejoin="round"/>
  <path d="M53.72,11.53s19.3,5.71,23.9,30.45" fill="none" stroke="#002140" stroke-linecap="round" stroke-linejoin="round"/>
  <path d="M89.89,3.62s16.39,6.04,21,30.78" fill="none" stroke="#002140" stroke-linecap="round" stroke-linejoin="round"/>
  <path d="M27.86,133.72s-3.45.14-5.58,2.26" fill="none" stroke="#002140" stroke-linecap="round" stroke-linejoin="round"/>
  <path d="M172.96,153.71s7.33-1.01,7.33-7.33-5.32-6.18-5.32-6.18" fill="none" stroke="#002140" stroke-linecap="round" stroke-linejoin="round"/>
  <path d="M61.36,120.06l-10.78-20.72c-.13-.26-.49-.28-.65-.04l-11.16,16.39c-.08.12-.09.28-.02.4l9.98,17.6c.13.23.44.26.61.07l11.96-13.27c.11-.12.13-.29.05-.43h0Z" fill="none" stroke="#002140" stroke-linecap="round" stroke-linejoin="round"/>
  <path d="M61.36,120.06l-13.8-1.01-8.8-2.96" fill="none" stroke="#002140" stroke-linecap="round" stroke-linejoin="round"/>
  <path d="M50.58,99.34l-3.03,19.71,1.79,14.71" fill="none" stroke="#002140" stroke-linecap="round" stroke-linejoin="round"/>
  <path d="M31.97,44.66l-17.94-6.97c-.22-.09-.45.1-.42.33l2,16.22c.01.12.1.22.21.26l15.75,5.47c.2.07.41-.08.42-.29l.19-14.72c0-.13-.08-.25-.2-.3h0Z" fill="none" stroke="#002140" stroke-linecap="round" stroke-linejoin="round"/>
  <path d="M31.97,44.66l-9.09,6.88-7.06,2.95" fill="none" stroke="#002140" stroke-linecap="round" stroke-linejoin="round"/>
  <path d="M14.03,37.69l8.84,13.85,9.11,8.13" fill="none" stroke="#002140" stroke-linecap="round" stroke-linejoin="round"/>
  <path d="M137.57,115.79l2.18,2.22-7.86,12.83-9.43-9.6,2.54-4.15" fill="none" stroke="#002140" stroke-linecap="round" stroke-linejoin="round"/>
  <path d="M86.01,33.04l3.19-12.44,11.92,7.57-.29,1.47" fill="none" stroke="#002140" stroke-linecap="round" stroke-linejoin="round"/>
  <path d="M84.08,4.79l-2.55,12.87-14.61-8.78" fill="none" stroke="#002140" stroke-linecap="round" stroke-linejoin="round"/>
  <path d="M123.23,147.76l7.98-13.03,10.35,10.55" fill="none" stroke="#002140" stroke-linecap="round" stroke-linejoin="round"/>
  <path d="M90.06,79.67c1.44-.66,3.05-1.02,4.74-1.02,6.13,0,11.13,4.82,11.42,10.88" fill="none" stroke="#002140" stroke-linecap="round" stroke-linejoin="round"/>
  <path d="M91.07,59.18c2.09-2.74,5.39-4.51,9.1-4.51,4.6,0,8.56,2.71,10.38,6.63" fill="none" stroke="#002140" stroke-linecap="round" stroke-linejoin="round"/>
  <path d="M61.54,72.18c2.05-3.04,5.53-5.04,9.48-5.04,1.11,0,2.17.16,3.19.45" fill="none" stroke="#002140" stroke-linecap="round" stroke-linejoin="round"/>
  <path d="M44.73,78.53c1.07-.33,2.2-.51,3.38-.51,3.16,0,6.02,1.28,8.08,3.35l.72.84" fill="none" stroke="#002140" stroke-linecap="round" stroke-linejoin="round"/>
  <path d="M128.84,91.66c.95-5.35,5.63-9.42,11.26-9.42,4.38,0,8.19,2.46,10.11,6.08" fill="none" stroke="#002140" stroke-linecap="round" stroke-linejoin="round"/>
  <path d="M106.42,94.76c-.8-.81-1.25-1.72-1.25-2.69,0-3.26,5.1-5.9,11.39-5.9,5.96,0,10.86,2.38,11.35,5.4" fill="none" stroke="#002140" stroke-linecap="round" stroke-linejoin="round"/>
  <path d="M115.22,85.88c-1.32-.96-2.09-2.14-2.09-3.41,0-3.26,5.1-5.9,11.39-5.9s11.39,2.64,11.39,5.9" fill="none" stroke="#002140" stroke-linecap="round" stroke-linejoin="round"/>
  <path d="M166.92,178.81c0,3.73-5.99,6.76-13.37,6.76s-13.37-3.03-13.37-6.76c0-3.27,4.58-5.99,10.68-6.62" fill="none" stroke="#002140" stroke-linecap="round" stroke-linejoin="round"/>
  <path d="M140.17,178.81v4.31c0,3.73,5.99,6.76,13.37,6.76s13.37-3.03,13.37-6.76v-3.88" fill="none" stroke="#002140" stroke-linecap="round" stroke-linejoin="round"/>
  <path d="M177.92,165.69c6.71.36,11.93,3.23,11.93,6.72,0,3.73-5.99,6.76-13.37,6.76-2.65,0-5.12-.39-7.2-1.06" fill="none" stroke="#002140" stroke-linecap="round" stroke-linejoin="round"/>
  <path d="M167.03,181.5c2.42,1.22,5.76,1.98,9.46,1.98,7.39,0,13.37-3.03,13.37-6.76v-4.31" fill="none" stroke="#002140" stroke-linecap="round" stroke-linejoin="round"/>
  <path d="M112.56,183.77c7.39,0,13.37-3.03,13.37-6.76s-5.99-6.76-13.37-6.76-13.37,3.03-13.37,6.76,5.99,6.76,13.37,6.76Z" fill="none" stroke="#002140" stroke-linecap="round" stroke-linejoin="round"/>
  <path d="M99.19,177.01v4.31c0,3.73,5.99,6.76,13.37,6.76s13.37-3.03,13.37-6.76v-4.31" fill="none" stroke="#002140" stroke-linecap="round" stroke-linejoin="round"/>
  <path d="M17.72,149.26c7.39,0,13.37-3.03,13.37-6.76s-5.99-6.76-13.37-6.76-13.37,3.03-13.37,6.76,5.99,6.76,13.37,6.76Z" fill="none" stroke="#002140" stroke-linecap="round" stroke-linejoin="round"/>
  <path d="M4.34,142.5v4.31c0,3.73,5.99,6.76,13.37,6.76s13.37-3.03,13.37-6.76v-4.31" fill="none" stroke="#002140" stroke-linecap="round" stroke-linejoin="round"/>
  <path d="M111.72,166.91c3.63-.86,5.19-7.39,3.48-14.57-1.71-7.18-6.04-12.31-9.67-11.45-3.63.86-5.19,7.39-3.49,14.57,1.71,7.18,6.04,12.31,9.67,11.45Z" fill="none" stroke="#002140" stroke-linecap="round" stroke-linejoin="round"/>
  <path d="M105.54,140.86l-4.2,1c-3.63.86-5.19,7.39-3.48,14.57,1.71,7.19,6.04,12.31,9.67,11.45l4.2-1" fill="none" stroke="#002140" stroke-linecap="round" stroke-linejoin="round"/>
  <path d="M164.76,174.13c7.39,0,13.37-3.03,13.37-6.76s-5.99-6.76-13.37-6.76-13.37,3.03-13.37,6.76,5.99,6.76,13.37,6.76Z" fill="none" stroke="#002140" stroke-linecap="round" stroke-linejoin="round"/>
  <path d="M151.39,167.37v4.31c0,3.73,5.99,6.76,13.37,6.76s13.37-3.03,13.37-6.76v-4.31" fill="none" stroke="#002140" stroke-linecap="round" stroke-linejoin="round"/>
  <path d="M82.97,64.11c7.02-3.49,11.17-9.41,9.27-13.23-1.9-3.81-9.12-4.08-16.14-.59-7.02,3.49-11.17,9.41-9.27,13.23,1.9,3.81,9.12,4.08,16.14.59Z" fill="none" stroke="#002140" stroke-linecap="round" stroke-linejoin="round"/>
  <path d="M81.08,60.5c4.38-2.18,7.16-5.49,6.21-7.4-.95-1.91-5.27-1.69-9.65.49-4.38,2.18-7.16,5.49-6.21,7.4.95,1.91,5.27,1.69,9.65-.49Z" fill="none" stroke="#002140" stroke-linecap="round" stroke-linejoin="round"/>
  <path d="M91.18,60.2c-.36-.76-.58-1.25-.58-1.25" fill="none" stroke="#002140" stroke-linecap="round" stroke-linejoin="round"/>
  <path d="M79.24,76.44c1.62,1.59,4.3,2.37,9.41-.17,5.11-2.54,6.28-5.19,6.09-7.51" fill="none" stroke="#002140" stroke-linecap="round" stroke-linejoin="round"/>
  <path d="M74.2,67.24s.44.88,1.04,2.1" fill="none" stroke="#002140" stroke-linecap="round" stroke-linejoin="round"/>
  <path d="M93.62,78.46c.6-1.56-.79-2.97-2.02-3.75" fill="none" stroke="#002140" stroke-linecap="round" stroke-linejoin="round"/>
  <path d="M56.43,147.86c-2.22-1.26-5.3-1.62-7.42,3.76-3.2,8.13,1.18,9.73,4.97,9.5" fill="none" stroke="#002140" stroke-linecap="round" stroke-linejoin="round"/>
  <path d="M49.63,150.21l-5.64-2.13c-.74-.28-1.56-.16-2.18.32-.82.63-1.66,1.78-1.27,3.77.15.77.7,1.4,1.43,1.68l5.24,1.97" fill="none" stroke="#002140" stroke-linecap="round" stroke-linejoin="round"/>
  <path d="M48.48,149.13s-1.08-10.72-6.08-11.48c-5.01-.77-7.86,8-8.83,14.33-.97,6.34.83,12.34,4.81,12.95,3.98.61,9.17-8.7,9.17-8.7" fill="none" stroke="#002140" stroke-linecap="round" stroke-linejoin="round"/>
  <path d="M75.41,69.01l5.14,1.6-1.57,5.56" fill="none" stroke="#002140" stroke-linecap="round" stroke-linejoin="round"/>
  <path d="M86.43,72.08c1.13-.37,1.62-1.96,1.1-3.54-.52-1.58-1.86-2.56-3-2.19-1.13.37-1.62,1.96-1.1,3.54.52,1.58,1.86,2.56,3,2.19Z" fill="none" stroke="#002140" stroke-linecap="round" stroke-linejoin="round"/>
  <path d="M80.55,70.6l-5.92,3.1" fill="none" stroke="#002140" stroke-linecap="round" stroke-linejoin="round"/>
  <path d="M95.5,63.32l-5.33,3.58" fill="none" stroke="#002140" stroke-linecap="round" stroke-linejoin="round"/>
  <path d="M91.11,60.06l4.99,3.06-1.17,5.53-5.23-1.37,1.42-7.23Z" fill="none" stroke="#002140" stroke-linecap="round" stroke-linejoin="round"/>
  <path d="M75.41,69.01l-1.15,4.89,4.72,2.26" fill="none" stroke="#002140" stroke-linecap="round" stroke-linejoin="round"/>
  <path d="M91.46,160.8c.88-10.69-3.65-19.78-10.12-20.31-6.47-.53-12.42,7.7-13.3,18.39-.88,10.69,3.65,19.78,10.12,20.31,6.47.53,12.42-7.7,13.3-18.39Z" fill="none" stroke="#002140" stroke-linecap="round" stroke-linejoin="round"/>
  <path d="M63.43,141.67c-4.86,2.72-8.16,7.57-9.22,13.75-2.1,12.18,8.32,25.57,23.96,23.78" fill="none" stroke="#002140" stroke-linecap="round" stroke-linejoin="round"/>
  <path d="M81.38,140.5c-4.12-1.23-7.95-1.53-11.37-1.03" fill="none" stroke="#002140" stroke-linecap="round" stroke-linejoin="round"/>
  <path d="M61.03,159.7c2.33,0,4.22-1.57,4.22-3.5s-1.89-3.5-4.22-3.5-4.22,1.57-4.22,3.5,1.89,3.5,4.22,3.5Z" fill="none" stroke="#002140" stroke-linecap="round" stroke-linejoin="round"/>
  <path d="M67.74,144.84c2.33,0,4.22-1.27,4.22-2.83s-1.89-2.83-4.22-2.83-4.22,1.26-4.22,2.83,1.89,2.83,4.22,2.83Z" fill="none" stroke="#002140" stroke-linecap="round" stroke-linejoin="round"/>
  <path d="M63.11,173.47c2.33,0,4.22-1.55,4.22-3.45s-1.89-3.45-4.22-3.45-4.22,1.54-4.22,3.45,1.89,3.45,4.22,3.45Z" fill="none" stroke="#002140" stroke-linecap="round" stroke-linejoin="round"/>
  <path d="M73.97,144.39c4.27.41,7.67,6.85,7.67,14.74s-3.63,14.76-8.1,14.76c-.98,0-1.91-.31-2.78-.89" fill="none" stroke="#002140" stroke-linecap="round" stroke-linejoin="round"/>
  <path d="M82.72,98.63s3.16-.14,3.31,3.88v29.84c0,1.49-.36,7.12,5.46,6.83,3.31-.29,3.88-3.16,3.95-6.47" fill="none" stroke="#002140" stroke-linecap="round" stroke-linejoin="round"/>
  <path d="M81.64,98.49c.92-3.25,4.29-5.61,7.64-5.48,4.19.16,6.16,4.15,6.16,7.93v31.78" fill="none" stroke="#002140" stroke-linecap="round" stroke-linejoin="round"/>
  <path d="M86.1,128.83s1.73,1.94,4.67,1.94,4.39-1.94,4.39-1.94" fill="none" stroke="#002140" stroke-linecap="round" stroke-linejoin="round"/>
  <path d="M86.1,118.91s1.73,1.94,4.67,1.94,4.39-1.94,4.39-1.94" fill="none" stroke="#002140" stroke-linecap="round" stroke-linejoin="round"/>
  <path d="M86.1,108.7s1.73,1.94,4.67,1.94,4.39-1.94,4.39-1.94" fill="none" stroke="#002140" stroke-linecap="round" stroke-linejoin="round"/>
  <path d="M85.65,100.28s2.1,1.67,5.23,1.23c3.13-.44,4.39-2.57,4.39-2.57" fill="none" stroke="#002140" stroke-linecap="round" stroke-linejoin="round"/>
  <path d="M89.35,98.64c.97,0,1.76-.66,1.76-1.47s-.79-1.47-1.76-1.47-1.76.66-1.76,1.47.79,1.47,1.76,1.47Z" fill="#002140"/>
  <path d="M90.76,108c.97,0,1.76-.79,1.76-1.76s-.79-1.76-1.76-1.76-1.76.79-1.76,1.76.79,1.76,1.76,1.76Z" fill="#002140"/>
  <path d="M90.76,117.36c.97,0,1.76-.79,1.76-1.76s-.79-1.76-1.76-1.76-1.76.79-1.76,1.76.79,1.76,1.76,1.76Z" fill="#002140"/>
  <path d="M90.76,126.99c.97,0,1.76-.79,1.76-1.76s-.79-1.76-1.76-1.76-1.76.79-1.76,1.76.79,1.76,1.76,1.76Z" fill="#002140"/>
  <path d="M90.76,136.34c.97,0,1.76-.79,1.76-1.76s-.79-1.76-1.76-1.76-1.76.79-1.76,1.76.79,1.76,1.76,1.76Z" fill="#002140"/>
  <path d="M94.77,70.73l8.3-2.26c1-.27,2.08-.13,2.98.39l6.45,3.77c.75.44,1.33,1.12,1.65,1.93l1.43,3.64" fill="none" stroke="#002140" stroke-linecap="round" stroke-linejoin="round"/>
  <path d="M113.37,73.9l-17.45,4.6" fill="none" stroke="#002140" stroke-linecap="round" stroke-linejoin="round"/>
  <path d="M114.62,85.69l-8.25,2.18" fill="none" stroke="#002140" stroke-linecap="round" stroke-linejoin="round"/>
  <path d="M44.69,78.64l.98-3.66c.1-.41.37-.77.74-.98l6.46-3.78c.37-.22.82-.27,1.23-.16l13.29,3.85" fill="none" stroke="#002140" stroke-linecap="round" stroke-linejoin="round"/>
  <path d="M46.41,73.99l12.79,3.28" fill="none" stroke="#002140" stroke-linecap="round" stroke-linejoin="round"/>
  <path d="M147.16,73.27l-2.53,9.69" fill="none" stroke="#002140" stroke-linecap="round" stroke-linejoin="round"/>
  <path d="M107.96,69.44l2.73-7.62,28.04-7.91,11.07,9.21-2.65,10.16" fill="none" stroke="#002140" stroke-linecap="round" stroke-linejoin="round"/>
  <path d="M146.87,75.5c1.71-1.27,3.84-2.02,6.14-2.02,5.66,0,10.25,4.53,10.25,10.13,0,1.01-.15,1.98-.43,2.9" fill="none" stroke="#002140" stroke-linecap="round" stroke-linejoin="round"/>
  <path d="M149.81,63.11l-7.62,4.74-23.73,5.32-5.08.72" fill="none" stroke="#002140" stroke-linecap="round" stroke-linejoin="round"/>
  <path d="M110.69,61.82l10.64,10.36,5.32-14.53,15.53,10.21-3.45-13.95" fill="none" stroke="#002140" stroke-linecap="round" stroke-linejoin="round"/>
  <path d="M121.33,72.17l2.01,4.17" fill="none" stroke="#002140" stroke-linecap="round" stroke-linejoin="round"/>
  <path d="M142.18,67.86l-2.08,14.38" fill="none" stroke="#002140" stroke-linecap="round" stroke-linejoin="round"/>
  <path d="M129.47,56.21c-.11-3.2.45-8.3,6.06-9.89,7.84-2.23,7.4,3.85,10.74,3.05,5.44-1.55,5.23,3.15,8.07,2.81,2.84-.34,8.38-3.16,9.73,1.56" fill="none" stroke="#002140" stroke-linecap="round" stroke-linejoin="round"/>
  <path d="M151.1,73.49c.24-.78.61-1.41,1.54-1.72,5.44-1.55,2.79-5.43,5.38-6.64s8.79-1.73,7.45-6.45" fill="none" stroke="#002140" stroke-linecap="round" stroke-linejoin="round"/>
  <path d="M184.64,47.88c-1.16-4.08,4.75-3.14,3.85-6.32-.91-3.18-5.03.93-5.93-2.22-.9-3.15,6.44-2.65,5.37-6.4-.92-3.22-5.3-1.51-5.3-1.51l-9.48,2.7s-4.63.85-3.71,4.07c1.07,3.76,7.04-.53,7.94,2.61.9,3.15-4.78,1.82-3.87,5.01.91,3.18,5.44-.73,6.6,3.35" fill="none" stroke="#002140" stroke-linecap="round" stroke-linejoin="round"/>
  <path d="M164.06,53.74s15.04-4.28,16.04-4.57" fill="none" stroke="#002140" stroke-linecap="round" stroke-linejoin="round"/>
  <path d="M165.4,58.47l25.13-7.15c1.3-.37,2.06-1.73,1.69-3.03-.37-1.3-1.73-2.06-3.03-1.69l-4.37,1.24" fill="none" stroke="#002140" stroke-linecap="round" stroke-linejoin="round"/>
  <path d="M179.15,39.11c1.38,0,2.49-1.12,2.49-2.49s-1.12-2.49-2.49-2.49-2.49,1.12-2.49,2.49,1.12,2.49,2.49,2.49Z" fill="none" stroke="#002140" stroke-linecap="round" stroke-linejoin="round"/>
  <path d="M143.06,57.39c.32-.92.37-1.94.08-2.95-.74-2.61-3.46-4.12-6.07-3.38-1.96.56-3.3,2.22-3.53,4.12" fill="none" stroke="#002140" stroke-linecap="round" stroke-linejoin="round"/>
  <path d="M149.92,27.68c-12.59,2.62-14.72,4.75-17.34,17.34-2.62-12.59-4.75-14.72-17.34-17.34,12.59-2.62,14.72-4.75,17.34-17.34,2.62,12.59,4.75,14.72,17.34,17.34h0Z" fill="none" stroke="#002140" stroke-linecap="round" stroke-linejoin="round"/>
  <path d="M171.37,150.67c1.85,0,3.35-1.62,3.35-3.61s-1.5-3.61-3.35-3.61-3.35,1.62-3.35,3.61,1.5,3.61,3.35,3.61Z" fill="#002140"/>
  <path d="M159.98,152.22c1.85,0,3.35-1.62,3.35-3.61s-1.5-3.61-3.35-3.61-3.35,1.62-3.35,3.61,1.5,3.61,3.35,3.61Z" fill="#002140"/>
  <path d="M148.5,154.17c1.85,0,3.35-1.62,3.35-3.61s-1.5-3.61-3.35-3.61-3.35,1.62-3.35,3.61,1.5,3.61,3.35,3.61Z" fill="#002140"/>
  <path d="M137.12,155.72c1.85,0,3.35-1.62,3.35-3.61s-1.5-3.61-3.35-3.61-3.35,1.62-3.35,3.61,1.5,3.61,3.35,3.61Z" fill="#002140"/>
  <path d="M124.76,157.99c1.85,0,3.35-1.62,3.35-3.61s-1.5-3.61-3.35-3.61-3.35,1.62-3.35,3.61,1.5,3.61,3.35,3.61Z" fill="#002140"/>
  <path d="M99.4,160.73c-.51,1.3-1.7,2.21-3.09,2.21-1.85,0-3.35-1.62-3.35-3.61s1.5-3.61,3.35-3.61c.46,0,.9.1,1.31.28" fill="#002140"/>
  <path d="M115.47,152.52c1.56.31,2.74,1.78,2.74,3.55,0,1.5-.84,2.78-2.05,3.33" fill="#002140"/>
  <path d="M27.36,137.55c.91-.65,2.05-.83,3.02-.36,1.5.73,2.02,2.75,1.17,4.5-.1.21-.22.4-.35.59,0,0-.82-3.18-2.95-3.93" fill="#002140"/>
  <path d="M34.43,147.93c-1.29-.83-1.7-2.7-.9-4.35.64-1.32,1.88-2.11,3.09-2.12" fill="#002140"/>
  <path d="M65.22,68.68l-3.71-11.54-9.68-5.77-5.77,8.86,2.68,11.95" fill="none" stroke="#002140" stroke-linecap="round" stroke-linejoin="round"/>
  <path d="M144.34,93.71c-2.02-.16-3.61-1.84-3.61-3.9s1.75-3.91,3.91-3.91,3.91,1.75,3.91,3.91" fill="none" stroke="#002140" stroke-linecap="round" stroke-linejoin="round"/>
  <path d="M148.24,97.8c-2.16,0-3.91-1.75-3.91-3.91s1.75-3.91,3.91-3.91,3.91,1.75,3.91,3.91c0,.2-.02.4-.05.6" fill="none" stroke="#002140" stroke-linecap="round" stroke-linejoin="round"/>
  <path d="M149.55,101.47c-.8-.72-1.3-1.76-1.3-2.92,0-2.16,1.75-3.91,3.91-3.91s3.91,1.75,3.91,3.91c0,.7-.18,1.35-.5,1.91" fill="none" stroke="#002140" stroke-linecap="round" stroke-linejoin="round"/>
  <path d="M152.62,107.52c-2.02-.15-3.62-1.84-3.62-3.9s1.75-3.91,3.91-3.91c2.04,0,3.71,1.56,3.9,3.55" fill="none" stroke="#002140" stroke-linecap="round" stroke-linejoin="round"/>
  <path d="M157.34,111.08c-.18.04-.37.06-.57.07-2.16.11-4-1.54-4.12-3.7-.11-2.16,1.54-4,3.7-4.12,1.53-.08,2.9.73,3.61,1.97" fill="none" stroke="#002140" stroke-linecap="round" stroke-linejoin="round"/>
  <path d="M162.64,112.92c-.37.12-.77.18-1.18.18-2.16,0-3.91-1.75-3.91-3.91s1.75-3.91,3.91-3.91c1.58,0,2.94.93,3.56,2.28" fill="none" stroke="#002140" stroke-linecap="round" stroke-linejoin="round"/>
  <path d="M167.57,115.03c-.37.11-.76.18-1.16.18-2.16,0-3.91-1.75-3.91-3.91s1.75-3.91,3.91-3.91c1.62,0,3.01.98,3.6,2.38" fill="none" stroke="#002140" stroke-linecap="round" stroke-linejoin="round"/>
  <path d="M172.27,117.3c-.29.07-.58.1-.89.1-2.16,0-3.91-1.75-3.91-3.91s1.75-3.91,3.91-3.91c1.89,0,3.47,1.34,3.83,3.13" fill="none" stroke="#002140" stroke-linecap="round" stroke-linejoin="round"/>
  <path d="M173.21,119.05c-.5-.66-.8-1.48-.8-2.38,0-2.16,1.75-3.91,3.91-3.91s3.91,1.75,3.91,3.91c0,1.19-.53,2.25-1.36,2.97" fill="none" stroke="#002140" stroke-linecap="round" stroke-linejoin="round"/>
  <path d="M175.81,125.95c2.16,0,3.91-1.75,3.91-3.91s-1.75-3.91-3.91-3.91-3.91,1.75-3.91,3.91,1.75,3.91,3.91,3.91Z" fill="none" stroke="#002140" stroke-linecap="round" stroke-linejoin="round"/>
  <path d="M178.28,125.5c0,1.62-.99,3.01-2.39,3.61" fill="none" stroke="#002140" stroke-linecap="round" stroke-linejoin="round"/>
  <path d="M75.59,69.37l1.31,3.09,1.99,3.02" fill="none" stroke="#002140" stroke-linecap="round" stroke-linejoin="round"/>
  <path d="M91.38,60.65l2.2,3.71,1.34,4.3" fill="none" stroke="#002140" stroke-linecap="round" stroke-linejoin="round"/>
  <path d="M51.9,51.72l3.16,7.35-8.65,1.37" fill="none" stroke="#002140" stroke-linecap="round" stroke-linejoin="round"/>
  <path d="M61.51,57.14l-6.45,1.92,3.23,12.08" fill="none" stroke="#002140" stroke-linecap="round" stroke-linejoin="round"/>
  <path d="M74.69,74.22c-13.44-1.97-16.86,3.5-18.07,9.95-.37,2-.58,5.07.74,7.61" fill="none" stroke="#002140" stroke-linecap="round" stroke-linejoin="round"/>
  <path d="M91.65,93.42c.58-.93,1.03-2.07,1.29-3.44.95-5.05-.12-9.51-6.81-12.63" fill="none" stroke="#002140" stroke-linecap="round" stroke-linejoin="round"/>
  <path d="M78.25,99.29c.4-1.21.53-2.74.56-3.79,0,0,1.2,1.25,3.22,1.77" fill="none" stroke="#002140" stroke-linecap="round" stroke-linejoin="round"/>
  <path d="M74.47,99.09c.66-1.2.97-2.74.97-2.74,0,0-.55,1.75-.34,3.07" fill="none" stroke="#002140" stroke-linecap="round" stroke-linejoin="round"/>
  <path d="M71.19,97.8c.18-.53.33-1.15.48-1.84,0,0-.24.97-.29,2.04" fill="none" stroke="#002140" stroke-linecap="round" stroke-linejoin="round"/>
  <path d="M66.18,95.6c1.54-.58,2.28-1.73,2.35-1.93-.06.2-.46,1.48-.67,2.83" fill="none" stroke="#002140" stroke-linecap="round" stroke-linejoin="round"/>
  <path d="M73.16,89.43s1.45-5.4,2.59-5.27c1.14.14.57,5.86.57,5.86" fill="none" stroke="#002140" stroke-linecap="round" stroke-linejoin="round"/>
  <path d="M71.49,85.14c.64-3.09-.9-6.02-3.44-6.55s-5.13,1.54-5.77,4.63c-.64,3.09.9,6.02,3.44,6.55,2.54.53,5.13-1.54,5.77-4.63Z" fill="none" stroke="#002140" stroke-linecap="round" stroke-linejoin="round"/>
  <path d="M69.13,79.95c-1.55-.27-3.11,1.12-3.71,3.19l2.09,1.49s-1.49.66-2.28,1.13c.24,1.59,1.14,2.81,2.38,3.03,1.72.29,3.45-1.44,3.87-3.88.42-2.44-.64-4.65-2.36-4.95h0Z" fill="#002140"/>
  <path d="M88.53,88.05c.64-3.09-.9-6.02-3.44-6.55-2.54-.53-5.13,1.54-5.77,4.63-.64,3.09.9,6.02,3.44,6.55s5.13-1.54,5.77-4.63Z" fill="none" stroke="#002140" stroke-linecap="round" stroke-linejoin="round"/>
  <path d="M86.17,82.86c-1.55-.27-3.11,1.12-3.71,3.19l2.09,1.49s-1.49.66-2.28,1.13c.24,1.59,1.14,2.81,2.38,3.03,1.72.29,3.45-1.44,3.87-3.88.42-2.44-.64-4.65-2.36-4.95h0Z" fill="#002140"/>
  <path d="M97.67,145.54v1" fill="none" stroke="#002140" stroke-linecap="round" stroke-linejoin="round"/>
  <path d="M39.05,84.34c1.19-3.63,4.96-6.29,9.42-6.29,3.39,0,6.37,1.53,8.14,3.84" fill="none" stroke="#002140" stroke-linecap="round" stroke-linejoin="round"/>
  <path d="M33.16,69.24c.62-.1,1.26-.15,1.91-.15,5.24,0,9.49,3.35,9.49,7.48,0,.82-.17,1.6-.47,2.34" fill="none" stroke="#002140" stroke-linecap="round" stroke-linejoin="round"/>
  <path d="M39.41,83.23c-.52.21-1.06.38-1.63.52" fill="none" stroke="#002140" stroke-linecap="round" stroke-linejoin="round"/>
  <path d="M86.52,39.56s-3.3-5.49,0-6.59c3.3-1.1,12.1-2.96,13.81-3.3,1.71-.34,3.77.79,4.73,5.91" fill="none" stroke="#002140" stroke-linecap="round" stroke-linejoin="round"/>
  <path d="M89.47,37.16c.82,0,1.49-.65,1.49-1.44s-.67-1.44-1.49-1.44-1.49.65-1.49,1.44.67,1.44,1.49,1.44Z" fill="#002140"/>
  <path d="M94.73,35.93c.82,0,1.49-.65,1.49-1.44s-.67-1.44-1.49-1.44-1.49.65-1.49,1.44.67,1.44,1.49,1.44Z" fill="#002140"/>
  <path d="M99.98,34.79c.82,0,1.49-.65,1.49-1.44s-.67-1.44-1.49-1.44-1.49.65-1.49,1.44.67,1.44,1.49,1.44Z" fill="#002140"/>
  <path d="M126.51,117.84s-2.33-8.8-.11-13.89h-2.97s-3.92,12.83,3.07,13.89h0Z" fill="#002140"/>
  <path d="M138.54,105.96c1.09-.9.79-2.74.79-2.74,0,0,2.85-.16,2.52-2.96-.32-2.8-.96-7.33-1.69-10.04" fill="none" stroke="#002140" stroke-linecap="round" stroke-linejoin="round"/>
  <path d="M118.33,93.52c.37,1.56.69,3.12.98,4.69.23,1.24.45,2.49.57,3.75.11,1.13.3,2.2,1.49,2.59,1.05.35,2.29.32,3.38.18" fill="none" stroke="#002140" stroke-linecap="round" stroke-linejoin="round"/>
  <path d="M126.88,97.85c1.3-1.03,3.01-1.56,4.81-1.37,3.59.39,6.2,3.56,5.81,7.07-.07.65-.24,1.27-.49,1.85" fill="none" stroke="#002140" stroke-linecap="round" stroke-linejoin="round"/>
  <path d="M128.89,100.32c.65-.54,1.51-.82,2.42-.72,1.78.19,3.07,1.8,2.88,3.58-.07.65-.33,1.24-.72,1.71" fill="none" stroke="#002140" stroke-linecap="round" stroke-linejoin="round"/>
  <path d="M123.82,103.94l15.51,2.19s.99,13.9-9.54,12.41c-10.53-1.49-5.97-14.6-5.97-14.6Z" fill="none" stroke="#002140" stroke-linecap="round" stroke-linejoin="round"/>
  <path d="M126.42,104.76s-3.64,12.72,2.82,13.61" fill="none" stroke="#002140" stroke-linecap="round" stroke-linejoin="round"/>
  <path d="M131.11,100.27s4.44,1.38,6.4-1.38" fill="none" stroke="#002140" stroke-linecap="round" stroke-linejoin="round"/>
  <path d="M126.88,97.85s-.11,1.74,2.02,2.47" fill="none" stroke="#002140" stroke-linecap="round" stroke-linejoin="round"/>
  <path d="M128.6,96.71c.32-1.63,1.37-2.93,2.85-3.26,2.14-.48,4.35,1.26,4.93,3.89.15.66.18,1.31.11,1.92" fill="none" stroke="#002140" stroke-linecap="round" stroke-linejoin="round"/>
  <path d="M132.86,107.25l-3.86,4,2.47,5.02,3.93-4.36-2.55-4.66Z" fill="none" stroke="#002140" stroke-linecap="round" stroke-linejoin="round"/>
  <path d="M132.71,108.05l-1.09,7.71" fill="none" stroke="#002140" stroke-linecap="round" stroke-linejoin="round"/>
  <path d="M129,111.25l5.89.58" fill="none" stroke="#002140" stroke-linecap="round" stroke-linejoin="round"/>
</svg>