<svg xmlns="http://www.w3.org/2000/svg" viewBox="0 0 153 140"><defs><style>.cls-1{fill:#fff2b2}.cls-2{fill:#fffaf0}.cls-3{fill:#f9b5fe}.cls-4{fill:#002140}.cls-5{fill:#fed607}.cls-6{fill:#fbccff}.cls-7{fill:none;stroke:#002140;stroke-linecap:round;stroke-linejoin:round;stroke-width:1px}</style></defs><g id="Layer_1"><path d="M46.415 47.619S18.083 60.964 15.447 91.436l-.164 24.544s36.241 19.436 69.513 12.352 52.216-23.393 52.216-23.393l-1.484-6.587s1.976-35.248-34.593-52.053c0 0-28.66-10.048-54.52 1.316z" class="cls-3"/><path d="M52.179 56.68s13.508-2.636 19.932-2.636 21.581 1.648 21.581 1.648l18.944-26.684.497-15.157-9.06-10.048-2.14-.824-58.805.66-3.952 2.636-6.096 7.908.164 13.508 18.944 28.993-.01-.005ZM14.786 90.12s-11.86 6.096-12.52 13.176c-.66 7.084 2.14 10.872 12.352 18.121s44.477 11.86 44.477 11.86 29.981.164 45.793-1.152 44.64-12.188 45.465-24.708c.824-12.521-15.157-19.272-15.157-19.272l.164 12.024s-5.928 10.375-27.012 16.144c-21.084 5.764-41.841 3.296-41.841 3.296s-17.296-2.139-23.557-4.115-21.084-3.952-25.036-9.884c-3.952-5.928-3.128-15.485-3.128-15.485z" class="cls-1"/><path d="M43.56 94.623s-4.503-8.673-10.321-9.006c0 0-10.103 4.175-11.751 16.69-1.648 12.521 4.83 22.951 11.751 26.248 0 0 8.018-2.855 11.091-11.97 0 0-16.363 5.928-16.81-11.076-.541-13.299 16.04-10.887 16.04-10.887Z" class="cls-4"/><path d="M33.016 84.411s-6.697-.879-10.654 1.206c-3.952 2.085-8.236 7.139-9.666 13.285-1.43 6.151-1.867 12.739.66 18.557s6.151 10.103 9.666 11.2 10.212-.109 10.212-.109-12.411-6.151-11.642-21.194 10.103-21.744 11.969-22.4c1.867-.66-.551-.551-.551-.551l.005.005Z" class="cls-5"/><path d="M45.204 116.363s1.976-14.055-1.316-20.424c0 0-2.855-1.648-6.479-1.316-3.624.328-9.224 4.061-9.884 9.443s1.867 12.297 10.212 14.054c4.284 0 7.467-1.757 7.467-1.757" class="cls-5"/><path d="M64.366 109.393s-9.224 2.308-10.212 10.708 3.952 15.32 10.212 16.145c0 0 10.376-1.152 10.872-11.037.496-9.884-6.588-15.648-10.872-15.811z" class="cls-4"/><path d="M66.179 137.228s14.824-.66 14.988-12.187c.164-11.528-9.949-15.594-13.672-15.812 0 0 8.564 7.084 7.576 14.496s-5.436 10.376-8.896 13.508z" class="cls-5"/><path d="M106.868 105.932s-9.224 2.309-10.212 10.709 3.952 15.32 10.212 16.144c0 0 10.376-1.151 10.872-11.036s-6.588-15.648-10.872-15.812z" class="cls-4"/><path d="M108.679 134.101s14.824-.66 14.988-12.188c.164-11.532-6.836-17.46-14.332-16.224 4.363 3.128 9.224 7.496 8.236 14.908s-5.436 10.376-8.897 13.509z" class="cls-5"/><path d="M31.919 84.352s4.94-14.332 2.636-28.824c0 0-19.108 15.157-19.272 36.568 0 0 7.412-8.896 16.636-7.74zm25.86-28.824s.164 7.084 5.436 7.248 27.344.164 27.344.164l5.436-6.588s-21.744-4.284-38.217-.824Zm-19.933 31.46s8.236 7.084 8.236 15.32c0 0 10.376 7.085 14.988 7.085s13.176-4.776 13.176-4.776l10.212-7.74s.784-3.093.824-3.788.328-11.86.328-11.86-1.886-7.452-8.236-9.224-23.224-5.272-23.224-5.272-2.14-1.152-5.436 1.976-10.048 12.684-10.872 18.284zm70.997-36.072s-9.884 16.8-10.212 20.757 4.94 16.969 4.94 16.969 10.376 8.733 17.788 9.552c7.412.824 14.66-.824 14.66-.824s-1.316-33.605-27.181-46.453zm-27.671 69.84 14.332-1.484s1.812-7.74 3.788-9.884c1.976-2.14 8.4-4.612 10.872-4.612 0 0-5.436-5.436-11.364-5.273S87.764 105.6 87.764 105.6s-8.564 3.788-9.884 8.072c0 0 3.232 4.776 3.296 7.084z" class="cls-6"/><path d="m43.119 3.639-2.636 1.484 9.557 21.581L71.616 4.632l21.417 21.903 11.036-22.727-2.145-.824-58.804.655Zm41.344 23.229H60.251l12.352 25.696z" class="cls-2"/><path d="M54.443 118.448a96 96 0 0 1-9.368-2.194m50.602 2.834c-4.344.626-9.13 1.048-14.387 1.202m54.516-21.055s-3.451 6.261-14.234 11.96M46.708 47.684c-17.505 8.807-29.827 25.438-31.599 44.879m120.662 6.672q.03-.907.03-1.822c0-22.767-14.432-42.382-35.218-51.313M38.075 87.415c.938-6.717 5.525-12.664 10.003-17.962.928-1.097 1.921-2.239 3.272-2.74 1.539-.571 3.247-.214 4.845.149l14.839 3.366c3.56.809 7.238 1.668 10.172 3.838 5.744 4.245 4.463 12.113 4.126 18.324-.064 1.162-.139 2.358-.66 3.396-.551 1.102-1.549 1.901-2.527 2.651a103 103 0 0 1-12.456 8.152c-1.872 1.037-3.808 2.03-5.908 2.422-4.528.844-9.08-1.206-13.012-3.604a67 67 0 0 1-4.399-2.924" class="cls-7"/><path d="M34.654 56.039c.864 8.355 1.286 16.998-1.35 24.971a29 29 0 0 1-1.157 2.949m45.628 29.728a15.6 15.6 0 0 1 1.767-2.487c2.105-2.438 4.811-4.27 7.551-5.958a118 118 0 0 1 6.672-3.817c1.524-.81 3.113-1.594 4.83-1.743 1.455-.124 2.915.223 4.29.715 3.023 1.082 5.719 2.835 8.375 4.671m24.561-7.59c-2.974.333-5.963.551-8.956.65-2.507.084-5.034.079-7.492-.432-4.051-.844-7.675-3.028-11.209-5.178-1.42-.864-2.87-1.753-3.898-3.053-.958-1.211-1.484-2.701-1.97-4.17a148 148 0 0 1-2.329-7.71c-.511-1.882-.988-3.798-.968-5.749.035-2.994 1.241-5.838 2.537-8.534a108 108 0 0 1 7.238-12.744m-12.948 5.938a176 176 0 0 1-2.621 3.426c-.755.958-1.564 1.946-2.676 2.447-1.018.457-2.174.462-3.296.452l-19.982-.134c-2.085-.015-4.2-.03-6.221-.561-2.333-.611-3.361-6.365-3.361-6.365" class="cls-7"/><path d="m93.851 55.151 18.294-25.542a4.74 4.74 0 0 0 .888-2.77v-11.23a4.75 4.75 0 0 0-1.097-3.038l-6.339-7.63a4.76 4.76 0 0 0-3.674-1.718l-57.762.169a4.75 4.75 0 0 0-3.48 1.524l-6.374 6.886a4.76 4.76 0 0 0-1.266 3.232v11.15c0 .953.288 1.887.824 2.676l18.359 27.022" class="cls-7"/><path d="M97.653 56.685s-26.605-7.06-48.046 1.087m63.426-30.934H33.045m51.036.531-11.13 25.518-13.032-25.518m43.975-23.075L92.769 25.468 71.863 4.294 50.148 26.555 40.686 4.91m80.127 123.169c18.145-5.113 29.891-13.285 29.891-22.489 0-6.241-5.396-12.004-14.521-16.661l-.814-.343m-58.243 45.058c8.872-.035 17.371-.655 25.239-1.762m-67.631-3.049c6.886 1.763 14.591 3.098 22.861 3.908M15.506 89.902c-8.509 4.483-13.474 9.894-13.474 15.713s4.969 11.229 13.474 15.712" class="cls-7"/><path d="M67.559 137.189c7.551 0 13.672-6.324 13.672-14.124s-6.121-14.124-13.672-14.124-13.672 6.323-13.672 14.124 6.121 14.124 13.672 14.124" class="cls-7"/><path d="M64.322 109.214c6.26 1.291 10.977 7.005 10.977 13.851s-4.662 12.49-10.867 13.826m42.39-31.137c6.261 1.29 10.977 7.005 10.977 13.851s-4.662 12.49-10.867 13.826m-60.676-26.53c0 12.649-7.75 22.906-17.306 22.906s-17.306-10.257-17.306-22.906 7.75-22.907 17.306-22.907 17.306 10.257 17.306 22.907" class="cls-7"/><path d="M33.513 128.938c-7.04-2.904-12.153-11.597-12.153-21.869 0-10.46 5.302-19.287 12.54-22.022m75.842 48.761c7.551 0 13.673-6.417 13.673-14.332s-6.122-14.333-13.673-14.333-13.672 6.417-13.672 14.333 6.121 14.332 13.672 14.332" class="cls-7"/><path d="M44.419 116.616a11.9 11.9 0 0 1-5.501 1.34c-6.598 0-11.945-5.346-11.945-11.944s5.347-11.945 11.945-11.945c1.648 0 3.222.333 4.647.938" class="cls-7"/><path d="m37.96 106.369 4.945-3.535a8.07 8.07 0 0 0-7.377-4.805 8.072 8.072 0 0 0 0 16.144 8.07 8.07 0 0 0 7.481-5.049z" class="cls-4"/></g></svg>