<?xml version="1.0" encoding="UTF-8"?>
<svg id="Layer_1" xmlns="http://www.w3.org/2000/svg" xmlns:xlink="http://www.w3.org/1999/xlink" version="1.1" viewBox="0 0 20 20">
  <!-- Generator: Adobe Illustrator 29.5.1, SVG Export Plug-In . SVG Version: 2.1.0 Build 141)  -->
  <defs>
    <clipPath id="clippath">
      <rect width="20" height="20" fill="none"/>
    </clipPath>
  </defs>
  <g clip-path="url(#clippath)">
    <path d="M11,18.5c0,.55-.45,1-1,1-.55,0-1-.45-1-1v-3.52c.33.01.66.02,1,.02s.67,0,1-.02v3.52ZM4.5,14.4c.66.15,1.35.28,2.06.37l-1.68,3.19c-.26.49-.86.68-1.35.42-.49-.26-.68-.86-.42-1.35l1.39-2.63ZM16.88,17.03c.26.49.07,1.09-.42,1.35-.49.26-1.09.07-1.35-.42l-1.68-3.19c.72-.1,1.41-.22,2.06-.37l1.39,2.63ZM10,0c1.53,0,3.05.53,4.19,1.67,1.05,1.05,1.65,2.48,1.78,4.12,2.45.73,4.03,1.89,4.03,3.21,0,2.21-4.48,4-10,4S0,11.21,0,9c0-1.31,1.58-2.48,4.03-3.21.13-1.64.73-3.07,1.78-4.12C6.95.53,8.47,0,10,0ZM10,9c-.55,0-1,.45-1,1s.45,1,1,1,1-.45,1-1-.45-1-1-1ZM4,8c-.55,0-1,.45-1,1s.45,1,1,1,1-.45,1-1-.45-1-1-1ZM16,8c-.55,0-1,.45-1,1s.45,1,1,1,1-.45,1-1-.45-1-1-1ZM10,2c-2.16,0-3.92,1.46-4,4.29,0,.13.05.26.15.35,1.61,1.31,6.09,1.31,7.69,0,.1-.08.15-.21.15-.35-.08-2.84-1.84-4.29-4-4.29Z"/>
  </g>
</svg>