<?xml version="1.0" encoding="utf-8"?>
<!-- Generator: Adobe Illustrator 26.5.0, SVG Export Plug-In . SVG Version: 6.00 Build 0)  -->
<svg version="1.1" id="Layer_1" xmlns="http://www.w3.org/2000/svg" xmlns:xlink="http://www.w3.org/1999/xlink" x="0px" y="0px"
	 viewBox="0 0 20 20" style="enable-background:new 0 0 20 20;" xml:space="preserve">
<path d="M14,8V6c0-2.2-1.8-4-4-4C7.8,2,6,3.8,6,6h2c0-1.1,0.9-2,2-2c1.1,0,2,0.9,2,2v2H5C4.4,8,4,8.4,4,9v6c0,1.7,1.3,3,3,3h6
	c1.7,0,3-1.3,3-3V9c0-0.6-0.4-1-1-1H14z"/>
</svg>
