<?xml version="1.0" encoding="utf-8"?>
<!-- Generator: Adobe Illustrator 26.5.0, SVG Export Plug-In . SVG Version: 6.00 Build 0)  -->
<svg version="1.1" id="Layer_1" xmlns="http://www.w3.org/2000/svg" xmlns:xlink="http://www.w3.org/1999/xlink" x="0px" y="0px"
	 viewBox="0 0 20 20" style="enable-background:new 0 0 20 20;" xml:space="preserve">
<path d="M5,5.5C5,6.3,4.3,7,3.5,7S2,6.3,2,5.5v-4C2,0.7,2.7,0,3.5,0h13C17.3,0,18,0.7,18,1.5v4C18,6.3,17.3,7,16.5,7S15,6.3,15,5.5
	V3H5V5.5z"/>
<path d="M4.5,11.9c-0.6,0.6-0.7,1.5-0.1,2.1c0.6,0.6,1.5,0.7,2.1,0.1l2-1.8l0,6.2c0,0.8,0.7,1.5,1.5,1.5c0.8,0,1.5-0.7,1.5-1.5v-6.2
	l2,1.8c0.6,0.6,1.6,0.5,2.1-0.1c0.6-0.6,0.5-1.6-0.1-2.1L10,7L4.5,11.9z"/>
</svg>
