<?xml version="1.0" encoding="utf-8"?>
<!-- Generator: Adobe Illustrator 26.5.0, SVG Export Plug-In . SVG Version: 6.00 Build 0)  -->
<svg version="1.1" id="Layer_1" xmlns="http://www.w3.org/2000/svg" xmlns:xlink="http://www.w3.org/1999/xlink" x="0px" y="0px"
	 viewBox="0 0 20 20" style="enable-background:new 0 0 20 20;" xml:space="preserve">
<path d="M14,6c0,1.1,0.9,2,2,2s2-0.9,2-2V2c0-1.1-0.9-2-2-2H4C2.9,0,2,0.9,2,2v4c0,1.1,0.9,2,2,2s2-0.9,2-2V4h8V6z"/>
<path d="M3.8,10.9c-0.9,0.7-1,1.9-0.3,2.8s1.9,1,2.8,0.3L8,12.7V18c0,1.1,0.9,2,2,2s2-0.9,2-2v-5.3l1.8,1.4c0.9,0.7,2.1,0.6,2.8-0.3
	c0.7-0.9,0.6-2.1-0.3-2.8l-6.2-5L3.8,10.9z"/>
</svg>
