<?xml version="1.0" encoding="utf-8"?>
<!-- Generator: Adobe Illustrator 24.3.0, SVG Export Plug-In . SVG Version: 6.00 Build 0)  -->
<svg version="1.1" id="Layer_1" xmlns="http://www.w3.org/2000/svg" xmlns:xlink="http://www.w3.org/1999/xlink" x="0px" y="0px"
	 viewBox="0 0 20 20" style="enable-background:new 0 0 20 20;" xml:space="preserve">
<g>
	<path d="M10.5,6.8c-0.2-0.2-0.6-0.2-0.9,0l-4.9,5c-0.2,0.2-0.2,0.6,0,0.9l0.9,0.9c0.2,0.2,0.6,0.2,0.9,0l2.2-2.4v7
		c0,0.4,0.2,0.6,0.6,0.6h1.2c0.4,0,0.6-0.2,0.6-0.6V11l2.5,2.5c0.2,0.2,0.6,0.2,0.9,0l0.9-0.9c0.2-0.2,0.2-0.6,0-0.9L10.5,6.8z"/>
	<path d="M1.2,1.2v4.4c0,0.4,0.2,0.6,0.6,0.6h1.2c0.4,0,0.6-0.2,0.6-0.6V3.8h12.5v1.9c0,0.4,0.2,0.6,0.6,0.6h1.2
		c0.4,0,0.6-0.2,0.6-0.6V1.2H1.2z"/>
</g>
</svg>
