<?xml version="1.0" encoding="UTF-8"?>
<svg id="Layer_1" data-name="Layer 1" xmlns="http://www.w3.org/2000/svg" version="1.1" viewBox="0 0 20 20">
  <defs>
    <style>
      .cls-1 {
        fill-rule: evenodd;
        stroke-width: 0px;
      }
    </style>
  </defs>
  <path class="cls-1" d="M13.56,5.56c0,1.96-1.59,3.56-3.56,3.56s-3.56-1.59-3.56-3.56,1.59-3.56,3.56-3.56,3.56,1.59,3.56,3.56ZM8.91,17.86s.08.09.13.14h-4.81c-1.42,0-2.22-.44-2.22-1.78,0-3.56,4-6.22,8-6.22,1.17,0,2.35.23,3.42.64-1.78.33-3.37,1.22-4.51,2.49-1.21,1.36-1.21,3.37,0,4.73ZM10.35,14.4c1.1-1.32,2.78-2.15,4.65-2.15s3.56.83,4.65,2.15c.46.56.46,1.4,0,1.96-1.1,1.32-2.78,2.15-4.65,2.15s-3.56-.83-4.65-2.15c-.46-.56-.46-1.4,0-1.96ZM11.12,15.16c.5-.61,1.17-1.09,1.94-1.4-.35.44-.57,1-.57,1.62s.21,1.18.57,1.62c-.77-.31-1.44-.8-1.94-1.4-.1-.12-.1-.31,0-.43ZM18.88,15.59c-.5.61-1.17,1.09-1.94,1.4.35-.44.57-1,.57-1.62s-.21-1.18-.57-1.62c.77.31,1.44.8,1.94,1.4.1.12.1.31,0,.43Z"/>
</svg>