<?xml version="1.0" encoding="UTF-8"?>
<svg id="Layer_1" xmlns="http://www.w3.org/2000/svg" version="1.1" viewBox="0 0 21 21">
  <!-- Generator: Adobe Illustrator 30.3.0, SVG Export Plug-In . SVG Version: 2.1.3 Build 182)  -->
  <path d="M14.55,13.85c.34-.38.92-.41,1.3-.07.38.34.41.92.07,1.3l-.9.99h4.12c.51,0,.92.41.92.92,0,.51-.41.92-.92.92h-4.12l.9.99c.34.38.31.96-.07,1.3-.38.34-.96.31-1.3-.07l-2.84-3.15,2.84-3.15Z"/>
  <path d="M10,10c1.68,0,3.37.47,4.75,1.29-.61.09-1.2.36-1.68.79l-.23.23-2.98,3.31h-.01,0s-1.24,1.38-1.24,1.38l.9,1h-5.29c-1.42,0-2.22-.44-2.22-1.78,0-3.56,4-6.22,8-6.22Z"/>
  <path d="M10,2c1.96,0,3.56,1.59,3.56,3.56,0,1.96-1.59,3.56-3.56,3.56-1.96,0-3.56-1.59-3.56-3.56,0-1.96,1.59-3.56,3.56-3.56Z"/>
</svg>