<?xml version="1.0" encoding="utf-8"?>
<!-- Generator: Adobe Illustrator 26.5.0, SVG Export Plug-In . SVG Version: 6.00 Build 0)  -->
<svg version="1.1" id="Layer_1" xmlns="http://www.w3.org/2000/svg" xmlns:xlink="http://www.w3.org/1999/xlink" x="0px" y="0px"
	 viewBox="0 0 20 20" style="enable-background:new 0 0 20 20;" xml:space="preserve">
<path d="M19,17c0,1.5-1,2-2.5,2s-4.2,0-6.5,0c-2.3,0-4.9,0-6.5,0S1,18.5,1,17c0-4,4.5-7,9-7C14.5,10,19,13,19,17z"/>
<path d="M14,5c0,2.2-1.8,4-4,4C7.8,9,6,7.2,6,5s1.8-4,4-4C12.2,1,14,2.8,14,5z"/>
</svg>
