<svg xmlns="http://www.w3.org/2000/svg" xmlns:xlink="http://www.w3.org/1999/xlink" id="Layer_1" x="0" y="0" version="1.1" viewBox="0 0 20 20" xml:space="preserve" style="enable-background:new 0 0 20 20"><style type="text/css">.st0{fill-rule:evenodd;clip-rule:evenodd}</style><path d="M13.556,5.555c0,1.964-1.592,3.556-3.556,3.556c-1.964,0-3.556-1.592-3.556-3.556c0-1.964,1.592-3.556,3.556-3.556	C11.964,1.999,13.556,3.591,13.556,5.555z"/><path d="M11.856,15.5v2.501H4.222c-1.416,0-2.223-0.444-2.223-1.778C1.999,12.667,6,10,9.999,10c1.472,0,2.944,0.361,4.216,0.995	c-0.71,0.624-1.196,1.495-1.326,2.479C12.263,13.929,11.856,14.667,11.856,15.5z"/><path d="M18.855,14v1h0.5c0.276,0,0.5,0.224,0.5,0.5v3c0,0.828-0.672,1.5-1.5,1.5h-3c-0.828,0-1.5-0.672-1.5-1.5v-3	c0-0.276,0.224-0.5,0.5-0.5h0.5v-1c0-1.105,0.895-2,2-2C17.96,12,18.855,12.895,18.855,14z M17.855,14v1h-2v-1c0-0.552,0.448-1,1-1	C17.408,13,17.855,13.448,17.855,14z" class="st0"/></svg>