<svg width="21" height="20" viewBox="0 0 21 20" fill="none" xmlns="http://www.w3.org/2000/svg">
<g id="User Check">
<g id="Shape">
<path d="M14.0562 5.55506C14.0562 7.51901 12.4641 9.1111 10.5001 9.1111C8.53618 9.1111 6.94408 7.51901 6.94408 5.55506C6.94408 3.59112 8.53618 1.99902 10.5001 1.99902C12.4641 1.99902 14.0562 3.59112 14.0562 5.55506Z" fill="#8B9C8F"/>
<path d="M10.7701 14.1357C9.77748 15.2386 9.75393 16.8753 10.6445 18.0012H4.72155C3.30591 18.0012 2.49902 17.5567 2.49902 16.2232C2.49902 12.6671 6.49958 10.0001 10.4988 10.0001C12.7564 10.0001 15.0147 10.8501 16.5534 12.2301L15.1638 14.0539L15.0069 13.9127C13.7754 12.8043 11.8785 12.9042 10.7701 14.1357Z" fill="#8B9C8F"/>
<path d="M20.0282 12.6194C20.4675 12.9541 20.5523 13.5816 20.2176 14.0209L15.7146 19.931L12.331 16.8858C11.9205 16.5163 11.8873 15.884 12.2567 15.4735C12.6262 15.063 13.2585 15.0297 13.669 15.3992L15.4392 16.9924L18.6267 12.8088C18.9614 12.3695 19.5889 12.2847 20.0282 12.6194Z" fill="#8B9C8F"/>
</g>
</g>
</svg>
