<svg xmlns="http://www.w3.org/2000/svg" xml:space="preserve" id="Layer_1" x="0" y="0" viewBox="0 0 20 20"><style>.st0{fill-rule:evenodd;clip-rule:evenodd}</style><path d="M13.556 5.555a3.556 3.556 0 1 1-7.112 0 3.556 3.556 0 0 1 7.112 0m-2.536 8.939c.11 1.321.637 2.53 1.222 3.507h-8.02c-1.416 0-2.223-.444-2.223-1.778 0-3.556 4-6.223 8-6.223a9.55 9.55 0 0 1 4.54 1.165l-2.024.867c-.885.38-1.59 1.312-1.495 2.462"/><path d="m16.697 12.584 3 1.286c.184.079.306.26.29.46-.193 2.331-2.35 4.597-3.172 5.38a.453.453 0 0 1-.63 0c-.822-.784-2.98-3.049-3.171-5.38a.46.46 0 0 1 .289-.46l3-1.286a.5.5 0 0 1 .394 0" class="st0"/></svg>