<?xml version="1.0" encoding="utf-8"?>
<!-- Generator: Adobe Illustrator 26.5.0, SVG Export Plug-In . SVG Version: 6.00 Build 0)  -->
<svg version="1.1" id="Layer_1" xmlns="http://www.w3.org/2000/svg" xmlns:xlink="http://www.w3.org/1999/xlink" x="0px" y="0px"
	 viewBox="0 0 20 20" style="enable-background:new 0 0 20 20;" xml:space="preserve">
<path d="M16,4.5C16,5.9,14.9,7,13.5,7S11,5.9,11,4.5S12.1,2,13.5,2S16,3.1,16,4.5z"/>
<path d="M13,15c0,1-0.5,2-2,2c-1.2,0-2.8,0-4.5,0S3.2,17,2,17c-1.5,0-2-1-2-2c0-3,3-5,6.5-5S13,12,13,15z"/>
<path d="M18,15c1.4,0,2-1,2-2c0-3-3-5-6.7-5c-1,0-2.2,0.3-2.7,0.7c-0.6,0.4-0.5,0.9,0,1.1C13.1,11,14,12.9,14,14c0,0.6,0.4,1,1,1H18
	z"/>
<path d="M9,6.5C9,7.9,7.9,9,6.5,9S4,7.9,4,6.5S5.1,4,6.5,4S9,5.1,9,6.5z"/>
</svg>
