<svg xmlns="http://www.w3.org/2000/svg" xmlns:xlink="http://www.w3.org/1999/xlink" id="Layer_1" x="0" y="0" version="1.1" viewBox="0 0 20 20" style="enable-background:new 0 0 20 20" xml:space="preserve"><path d="M9.77,14.136c-0.993,1.103-1.016,2.74-0.126,3.865H3.722c-1.416,0-2.223-0.444-2.223-1.778c0-3.556,4.001-6.223,8-6.223	c2.258,0,4.516,0.85,6.055,2.23l-1.39,1.824l-0.157-0.141C12.775,12.804,10.878,12.904,9.77,14.136z M9.5,9.111	c1.964,0,3.556-1.592,3.556-3.556S11.464,1.999,9.5,1.999S5.944,3.591,5.944,5.555S7.536,9.111,9.5,9.111z M19.028,12.619	c-0.439-0.334-1.067-0.249-1.403,0.189l-3.187,4.184l-1.77-1.593c-0.41-0.37-1.042-0.337-1.412,0.074	c-0.37,0.41-0.337,1.043,0.074,1.412l3.384,3.045l4.503-5.91C19.552,13.581,19.467,12.954,19.028,12.619z"/></svg>