<?xml version="1.0" encoding="utf-8"?>
<!-- Generator: Adobe Illustrator 24.3.0, SVG Export Plug-In . SVG Version: 6.00 Build 0)  -->
<svg version="1.1" id="Layer_1" xmlns="http://www.w3.org/2000/svg" xmlns:xlink="http://www.w3.org/1999/xlink" x="0px" y="0px"
	 viewBox="0 0 20 20" style="enable-background:new 0 0 20 20;" xml:space="preserve">
<style type="text/css">
	.st0{clip-path:url(#SVGID_2_);}
</style>
<g>
	<defs>
		<rect id="SVGID_1_" width="20" height="20"/>
	</defs>
	<clipPath id="SVGID_2_">
		<use xlink:href="#SVGID_1_"  style="overflow:visible;"/>
	</clipPath>
	<g class="st0">
		<path d="M10.8,5.8c0-0.2-0.1-0.5-0.2-0.8C10.6,5.4,10.8,5.5,10.8,5.8z"/>
		<path d="M13.6,1.2c-1.2,0-2.5,0.8-2.9,1.9c0.9,0.8,1.4,1.9,1.4,3.1c0,0.2,0,0.5-0.1,0.8c0.5,0.5,1.1,0.6,1.6,0.6
			c1.8,0,3.1-1.4,3.1-3.1C16.9,2.8,15.4,1.2,13.6,1.2z"/>
		<path d="M7.8,9.5c1.7,0,3.1-1.4,3.1-3.1S9.5,3.3,7.8,3.3S4.6,4.6,4.6,6.4S6,9.5,7.8,9.5z"/>
		<path d="M13.6,9c-1.4,0-2.5,0.4-3.5,1.1c2.8,0.9,4.8,3.4,5.1,6.2H19c0.6,0,1-0.5,1-1C20,11.8,17.1,9,13.6,9z"/>
		<path d="M13,18.2H2.4c-0.6,0-1-0.5-1-1c0-3.5,2.9-6.4,6.4-6.4s6.4,2.9,6.4,6.4C14,17.9,13.6,18.2,13,18.2z"/>
	</g>
</g>
</svg>
