<?xml version="1.0" encoding="utf-8"?>
<!-- Generator: Adobe Illustrator 24.3.0, SVG Export Plug-In . SVG Version: 6.00 Build 0)  -->
<svg version="1.1" id="Layer_1" xmlns="http://www.w3.org/2000/svg" xmlns:xlink="http://www.w3.org/1999/xlink" x="0px" y="0px"
	 viewBox="0 0 20 20" style="enable-background:new 0 0 20 20;" xml:space="preserve">
<style type="text/css">
	.st0{clip-path:url(#SVGID_2_);}
</style>
<g>
	<defs>
		<rect id="SVGID_1_" width="20" height="20"/>
	</defs>
	<clipPath id="SVGID_2_">
		<use xlink:href="#SVGID_1_"  style="overflow:visible;"/>
	</clipPath>
	<g class="st0">
		<path d="M7.8,9.5c1.7,0,3.1-1.4,3.1-3.1S9.5,3.2,7.8,3.2S4.6,4.6,4.6,6.4S6,9.5,7.8,9.5z"/>
		<path d="M12,7.1c0.5,0.4,1.1,0.5,1.6,0.5c1.8,0,3.1-1.4,3.1-3.1s-1.4-3.1-3.1-3.1c-1.2,0-2.5,0.8-2.9,1.9c0.9,0.8,1.4,1.9,1.4,3.1
			C12.1,6.6,12.1,6.9,12,7.1z"/>
		<path d="M13.6,9c-1.1,0-2.4,0.4-3.2,1l-0.1,0.1c2.8,0.9,4.8,3.4,5.1,6.2h3.8c0.6,0,1-0.5,1-1C20,11.8,17.1,9,13.6,9z"/>
		<path d="M14,16.4c-0.1-0.5-0.2-1.1-0.4-1.6c-0.4-0.8-0.8-1.5-1.4-2c-0.9-0.9-2-1.5-3.2-1.8c-0.2,0-0.5,0-0.8-0.1
			c-0.1,0-0.6,0-0.8,0c-3.4,0.1-6.1,2.9-6.1,6.2c0,0.6,0.5,1,1,1h10.5c0.5,0,0.9-0.2,1-0.8c0-0.1,0.1-0.2,0.1-0.4s0-0.1,0-0.2
			C14,16.8,14,16.5,14,16.4z"/>
	</g>
</g>
</svg>
