<svg xmlns="http://www.w3.org/2000/svg" id="Layer_1" viewBox="0 0 20 20"><defs><style>.st0{fill-rule:evenodd}</style></defs><path d="M3.5 8.299V16a2 2 0 0 0 2 2v-1a.5.5 0 0 1 .5-.5h1a.5.5 0 0 1 .5.5v1h7q.043 0 .085-.002L6.587 11H6a.5.5 0 0 1-.5-.5v-.451zM6 12.5a.5.5 0 0 0-.5.5v1.5a.5.5 0 0 0 .5.5h1a.5.5 0 0 0 .5-.5V13a.5.5 0 0 0-.5-.5zm10.5-.799V4a2 2 0 0 0-2-2v1a.5.5 0 0 1-.5.5h-1a.5.5 0 0 1-.5-.5V2h-7q-.043 0-.085.002L13.413 9H14a.5.5 0 0 1 .5.5v.451zm-4-6.201A.5.5 0 0 1 13 5h1a.5.5 0 0 1 .5.5V7a.5.5 0 0 1-.5.5h-1a.5.5 0 0 1-.5-.5zM1.247 2.342a1 1 0 0 1 1.411-.094l16 14a1 1 0 1 1-1.317 1.505l-15.999-14a1 1 0 0 1-.094-1.411Z" class="st0"/></svg>