<?xml version="1.0" encoding="utf-8"?>
<!-- Generator: Adobe Illustrator 26.5.0, SVG Export Plug-In . SVG Version: 6.00 Build 0)  -->
<svg version="1.1" id="Layer_1" xmlns="http://www.w3.org/2000/svg" xmlns:xlink="http://www.w3.org/1999/xlink" x="0px" y="0px"
	 viewBox="0 0 20 20" style="enable-background:new 0 0 20 20;" xml:space="preserve">
<style type="text/css">
	.st0{fill-rule:evenodd;clip-rule:evenodd;}
</style>
<path class="st0" d="M3.3,3.2C2,3.2,1,4.3,1,5.5v9c0,1.2,1,2.2,2.2,2.2h13.5c1.2,0,2.2-1,2.2-2.2v-9c0-1.2-1-2.2-2.2-2.2H3.3z M4,5
	C3.4,5,3,5.4,3,6v2h2.1C6,8,6.9,8.4,7.5,9c1.4,1.4,3.6,1.4,4.9,0C13.1,8.4,14,8,15,8H17V6c0-0.6-0.4-1-1-1H4z"/>
</svg>
