<?xml version="1.0" encoding="utf-8"?>
<!-- Generator: Adobe Illustrator 24.3.0, SVG Export Plug-In . SVG Version: 6.00 Build 0)  -->
<svg version="1.1" id="Layer_1" xmlns="http://www.w3.org/2000/svg" xmlns:xlink="http://www.w3.org/1999/xlink" x="0px" y="0px"
	 viewBox="0 0 20 20" style="enable-background:new 0 0 20 20;" xml:space="preserve">
<style type="text/css">
	.st0{fill-rule:evenodd;clip-rule:evenodd;}
</style>
<path class="st0" d="M3.1,2.5c-1,0-1.9,0.8-1.9,1.9v11.9c0,0.7,0.6,1.2,1.2,1.2h15c0.7,0,1.2-0.6,1.2-1.2v-10c0-0.7-0.6-1.2-1.2-1.2
	H3.1C2.8,5,2.5,4.7,2.5,4.4c0-0.3,0.3-0.6,0.6-0.6h15c0.3,0,0.6-0.3,0.6-0.6s-0.3-0.6-0.6-0.6H3.1z M12.5,9V7.5h-5V15h5v-1.5H9.3V12
	H12v-1.6H9.3V9H12.5z"/>
</svg>
