<?xml version="1.0" encoding="UTF-8"?>
<svg id="Layer_1" xmlns="http://www.w3.org/2000/svg" xmlns:xlink="http://www.w3.org/1999/xlink" version="1.1" viewBox="0 0 360 280">
  <!-- Generator: Adobe Illustrator 30.0.0, SVG Export Plug-In . SVG Version: 2.1.1 Build 123)  -->
  <defs>
    <style>
      .st0, .st1 {
        fill: none;
      }

      .st1 {
        stroke: #072419;
        stroke-linecap: round;
        stroke-linejoin: round;
        stroke-width: 3px;
      }

      .st2 {
        fill: #072419;
      }

      .st3 {
        clip-path: url(#clippath);
      }

      .st4 {
        fill: #0a2e25;
      }
    </style>
    <clipPath id="clippath">
      <rect class="st0" width="360" height="280"/>
    </clipPath>
  </defs>
  <g class="st3">
    <g>
      <path class="st2" d="M288.286,453.083l-11.895,22.054c-14.601-8.598-31.43,16.619-46.424,7.794-14.732-8.673-1.83-36.484-16.825-44.985-13.75-7.944-28.808,17.484-45.504,7.675-15.649-9.203-2.23-35.09-17.747-44.217-16.172-9.506-30.446,16.7-45.768,7.848-14.731-8.674-1.569-36.009-16.956-45.061-14.863-8.749-31.037,16.846-45.376,8.4-17.875-10.49-1.439-35.934-18.266-45.818-14.339-8.446-28.087,17.738-44.783,7.93-16.565-9.733-2.098-35.015-17.616-44.142-16.434-9.657-29.921,16.678-45.176,7.702-17.613-10.338-2.162-35.539-18.138-44.769-15.78-9.279-31.232,16.246-45.375,8.075-14.863-8.749-7.346-35.446-14.025-39.304l11.896-22.055c6.678,3.859-.838,30.556,14.025,39.305,14.077,8.295,29.595-17.354,45.374-8.075,15.91,9.354.46,34.555,18.072,44.893,15.256,8.976,28.742-17.359,45.176-7.702,15.518,9.127.92,34.333,17.616,44.141,16.696,9.809,30.314-16.451,44.783-7.929,16.827,9.884.26,35.253,18.266,45.818,14.339,8.446,30.513-17.149,45.376-8.4,15.518,9.128,2.225,36.387,16.957,45.061,15.386,9.052,29.726-17.278,45.767-7.848,15.518,9.127,2.098,35.014,17.747,44.217,16.696,9.809,31.885-15.543,45.504-7.675,15.06,8.701,2.158,36.512,16.825,44.985,15.06,8.701,31.889-16.516,46.49-7.918Z"/>
      <path class="st4" d="M301.771,430.04l-11.896,22.055c-14.601-8.598-31.43,16.619-46.424,7.794-14.732-8.674-1.83-36.485-16.825-44.986-13.751-7.944-28.809,17.484-45.506,7.675-15.648-9.203-2.229-35.09-17.747-44.218-16.172-9.506-30.446,16.7-45.768,7.848-14.732-8.673-1.57-36.009-16.956-45.061-14.863-8.75-31.038,16.846-45.377,8.399-17.875-10.489-1.439-35.934-18.266-45.818-14.339-8.447-28.088,17.738-44.784,7.929-16.696-9.808-2.098-35.014-17.616-44.142-16.434-9.657-29.921,16.678-45.177,7.702-17.613-10.338-2.162-35.539-18.073-44.894-15.78-9.279-31.233,16.246-45.376,8.075-14.863-8.749-7.346-35.446-14.025-39.305l11.896-22.055c6.678,3.859-.838,30.556,14.025,39.306,14.077,8.295,29.596-17.354,45.375-8.075,15.911,9.354.46,34.555,18.073,44.893,15.256,8.977,28.743-17.359,45.177-7.702,15.518,9.128.92,34.334,17.616,44.143,16.696,9.808,30.314-16.452,44.784-7.929,16.827,9.884.26,35.252,18.266,45.818,14.339,8.446,30.514-17.149,45.376-8.4,15.518,9.128,2.225,36.388,16.957,45.062,15.386,9.052,29.726-17.279,45.768-7.849,15.518,9.128,2.098,35.015,17.747,44.219,16.697,9.808,31.886-15.544,45.505-7.675,15.06,8.7,2.159,36.512,16.826,44.985,14.994,8.825,31.823-16.392,46.424-7.794Z"/>
      <path class="st2" d="M315.247,406.999l-11.896,22.055c-14.601-8.598-31.43,16.619-46.424,7.794-14.732-8.674-1.831-36.485-16.826-44.986-13.75-7.944-28.809,17.484-45.505,7.675-15.649-9.203-2.229-35.09-17.747-44.218-16.173-9.506-30.446,16.7-45.768,7.848-14.733-8.673-1.57-36.009-16.957-45.061-14.863-8.75-31.037,16.846-45.377,8.399-17.875-10.489-1.439-35.933-18.266-45.818-14.339-8.447-28.088,17.738-44.784,7.929-16.696-9.808-2.098-35.014-17.616-44.142-16.435-9.657-29.921,16.678-45.177,7.702-17.613-10.338-2.162-35.539-18.073-44.894-15.78-9.279-31.232,16.246-45.375,8.075-14.863-8.749-7.347-35.446-14.026-39.305l11.896-22.055c6.679,3.859-.838,30.556,14.025,39.306,14.078,8.295,29.596-17.354,45.376-8.075,15.911,9.354.526,34.431,18.139,44.769,15.256,8.976,28.743-17.359,45.177-7.702,15.518,9.128.92,34.334,17.616,44.142,16.565,9.733,30.314-16.451,44.784-7.929,16.827,9.884.26,35.253,18.266,45.818,14.339,8.447,30.514-17.149,45.377-8.399,15.518,9.128,2.224,36.388,16.956,45.061,15.387,9.052,29.727-17.278,45.769-7.848,15.517,9.128,2.098,35.015,17.747,44.218,16.696,9.809,31.885-15.543,45.505-7.675,15.06,8.701,2.158,36.512,16.825,44.986,15.059,9.025,31.758-16.268,46.359-7.67Z"/>
      <path class="st4" d="M328.919,383.904l-11.896,22.054c-14.601-8.598-31.429,16.619-46.423,7.794-14.732-8.673-1.83-36.484-16.825-44.985-13.751-7.944-28.809,17.484-45.505,7.675-15.648-9.203-2.229-35.09-17.746-44.217-16.173-9.506-30.446,16.7-45.768,7.848-14.732-8.674-1.569-36.009-16.956-45.061-14.863-8.749-31.037,16.846-45.376,8.4-17.875-10.49-1.439-35.934-18.266-45.818-14.339-8.446-28.087,17.738-44.783,7.929-16.565-9.732-2.098-35.014-17.616-44.141-16.434-9.658-29.921,16.678-45.176,7.702-17.613-10.338-2.162-35.539-18.138-44.769-15.779-9.279-31.232,16.246-45.375,8.075-14.863-8.749-7.346-35.446-14.025-39.305l11.895-22.054c6.679,3.859-.837,30.555,14.025,39.305,14.077,8.295,29.595-17.354,45.375-8.075,15.91,9.354.526,34.43,18.138,44.768,15.256,8.976,28.742-17.359,45.176-7.702,15.517,9.128.92,34.334,17.616,44.142,16.565,9.733,30.314-16.451,44.783-7.929,16.827,9.884.26,35.252,18.266,45.817,14.338,8.447,30.513-17.148,45.375-8.399,15.518,9.127,2.225,36.387,16.956,45.06,15.387,9.052,29.727-17.278,45.768-7.848,15.518,9.128,2.098,35.015,17.747,44.218,16.696,9.808,31.885-15.544,45.504-7.675,15.06,8.7,2.158,36.511,16.825,44.985,14.928,8.949,31.757-16.268,46.424-7.794Z"/>
      <path class="st2" d="M342.395,360.862l-11.895,22.054c-14.601-8.597-31.43,16.619-46.424,7.795-14.731-8.674-1.83-36.485-16.825-44.985-13.75-7.944-28.808,17.483-45.504,7.675-15.649-9.204-2.229-35.09-17.747-44.218-16.172-9.506-30.446,16.7-45.767,7.848-14.732-8.673-1.57-36.009-16.956-45.06-14.863-8.75-31.037,16.846-45.376,8.399-17.875-10.489-1.439-35.933-18.266-45.817-14.339-8.447-28.087,17.737-44.783,7.929-16.565-9.733-2.098-35.015-17.616-44.142-16.434-9.657-29.921,16.678-45.176,7.702-17.613-10.338-2.162-35.538-18.138-44.769-15.779-9.278-31.232,16.246-45.375,8.076-14.863-8.75-7.347-35.447-14.025-39.305l11.895-22.054c6.679,3.858-.838,30.555,14.025,39.304,14.077,8.295,29.595-17.354,45.375-8.075,15.91,9.355.526,34.431,18.138,44.769,15.256,8.976,28.742-17.359,45.176-7.702,15.517,9.127.92,34.333,17.616,44.141,16.565,9.733,30.314-16.451,44.783-7.929,16.827,9.884.26,35.253,18.265,45.818,14.339,8.446,30.513-17.149,45.376-8.4,15.518,9.128,2.224,36.387,16.956,45.061,15.387,9.052,29.726-17.278,45.768-7.848,15.517,9.127,2.098,35.014,17.746,44.217,16.696,9.809,31.885-15.543,45.505-7.675,15.059,8.701,2.158,36.512,16.825,44.985,14.993,8.825,31.822-16.392,46.423-7.794Z"/>
      <path class="st4" d="M355.871,337.821l-11.895,22.054c-14.601-8.598-31.43,16.619-46.424,7.794-14.732-8.673-1.83-36.484-16.825-44.985-13.75-7.944-28.808,17.484-45.504,7.675-15.649-9.203-2.23-35.09-17.747-44.217-16.172-9.506-30.446,16.7-45.767,7.848-14.732-8.674-1.57-36.009-16.957-45.061-14.862-8.749-31.036,16.846-45.375,8.4-17.875-10.49-1.439-35.934-18.266-45.818-14.339-8.446-28.087,17.738-44.783,7.929-16.565-9.732-2.098-35.014-17.616-44.141-16.434-9.658-29.921,16.678-45.176,7.702-17.613-10.338-2.162-35.539-18.138-44.769-15.779-9.279-31.232,16.246-45.375,8.075-14.863-8.749-7.346-35.446-14.025-39.305l11.895-22.054c6.679,3.859-.838,30.555,14.025,39.305,14.077,8.295,29.529-17.23,45.375-8.075,15.91,9.354.526,34.43,18.138,44.768,15.256,8.977,28.742-17.359,45.176-7.702,15.517,9.128.92,34.334,17.616,44.142,16.565,9.733,30.314-16.451,44.783-7.929,16.827,9.884.26,35.252,18.266,45.817,14.339,8.447,30.513-17.148,45.376-8.399,15.517,9.127,2.224,36.387,16.956,45.061,15.386,9.051,29.66-17.154,45.767-7.849,15.518,9.128,2.099,35.015,17.747,44.218,16.696,9.808,31.885-15.544,45.504-7.675,15.06,8.7,2.159,36.511,16.826,44.985,14.993,8.825,31.822-16.392,46.423-7.794Z"/>
      <path class="st2" d="M369.347,314.779l-11.895,22.054c-14.601-8.597-31.43,16.619-46.423,7.795-14.732-8.674-1.831-36.485-16.826-44.985-13.75-7.944-28.808,17.483-45.504,7.675-15.648-9.204-2.229-35.09-17.747-44.218-16.172-9.506-30.445,16.7-45.767,7.848-14.732-8.673-1.57-36.009-16.956-45.06-14.863-8.75-31.037,16.846-45.376,8.399-17.875-10.489-1.439-35.933-18.266-45.817-14.339-8.447-28.087,17.737-44.783,7.929-16.565-9.733-2.098-35.014-17.616-44.142-16.434-9.657-29.921,16.678-45.176,7.702-17.613-10.338-2.162-35.538-18.138-44.769-15.779-9.278-31.232,16.246-45.375,8.075-14.863-8.749-7.346-35.446-14.025-39.304l11.895-22.054c6.679,3.858-.838,30.555,14.025,39.304,14.077,8.295,29.595-17.354,45.375-8.075,15.91,9.355.46,34.555,18.072,44.893,15.256,8.976,28.742-17.359,45.176-7.702,15.517,9.127.92,34.333,17.616,44.142,16.565,9.732,30.314-16.452,44.784-7.929,16.827,9.884.26,35.252,18.265,45.817,14.339,8.447,30.513-17.149,45.376-8.399,15.518,9.127,2.224,36.387,16.956,45.06,15.387,9.052,29.726-17.278,45.768-7.848,15.517,9.128,2.098,35.014,17.746,44.218,16.696,9.808,31.885-15.544,45.505-7.676,15.059,8.701,2.158,36.512,16.825,44.986,15.191,8.776,32.02-16.441,46.489-7.919Z"/>
      <path class="st4" d="M382.963,291.812l-11.896,22.054c-14.601-8.598-31.431,16.62-46.424,7.794-14.733-8.673-1.831-36.485-16.826-44.985-13.75-7.945-28.809,17.483-45.505,7.675-15.649-9.204-2.229-35.091-17.747-44.218-16.173-9.506-30.447,16.7-45.769,7.848-14.732-8.674-1.569-36.01-16.956-45.062-14.863-8.749-31.038,16.847-45.377,8.4-17.875-10.49-1.438-35.934-18.266-45.818-14.339-8.447-28.088,17.737-44.784,7.929-16.566-9.733-2.098-35.015-17.616-44.143-16.435-9.657-29.921,16.679-45.177,7.702-17.613-10.338-2.162-35.539-18.073-44.893-15.78-9.279-31.232,16.246-45.376,8.075-14.863-8.75-7.346-35.447-14.025-39.305l11.896-22.055c6.679,3.859-.838,30.556,14.025,39.305,14.077,8.296,29.596-17.354,45.375-8.075,15.911,9.355.46,34.556,18.073,44.894,15.256,8.976,28.743-17.36,45.177-7.702,15.518,9.127.92,34.334,17.616,44.142,16.565,9.733,30.314-16.451,44.784-7.929,16.827,9.884.26,35.253,18.266,45.818,14.339,8.447,30.514-17.149,45.377-8.399,15.517,9.127,2.224,36.387,16.956,45.061,15.387,9.052,29.727-17.278,45.768-7.848,15.518,9.128,2.099,35.015,17.747,44.218,16.697,9.809,31.886-15.544,45.506-7.675,15.06,8.701,2.158,36.512,16.825,44.986,14.994,8.825,31.823-16.392,46.425-7.794Z"/>
      <path class="st2" d="M396.513,268.64l-11.895,22.054c-14.601-8.598-31.431,16.62-46.425,7.795-14.732-8.674-1.83-36.485-16.825-44.986-13.751-7.944-28.809,17.484-45.505,7.675-15.649-9.203-2.23-35.091-17.747-44.218-16.173-9.506-30.447,16.7-45.769,7.848-14.732-8.674-1.569-36.01-16.956-45.062-14.863-8.749-31.038,16.847-45.377,8.4-17.875-10.49-1.439-35.934-18.266-45.818-14.339-8.447-28.088,17.738-44.784,7.929-16.565-9.733-2.098-35.015-17.616-44.143-16.435-9.657-29.921,16.679-45.177,7.703-17.613-10.339-2.162-35.54-18.073-44.894-15.78-9.279-31.232,16.246-45.376,8.075-14.863-8.749-7.346-35.447-14.025-39.305l11.896-22.055c6.679,3.858-.838,30.556,14.025,39.305,14.077,8.295,29.596-17.354,45.375-8.075,15.911,9.355.459,34.556,18.073,44.894,15.256,8.976,28.743-17.359,45.177-7.702,15.518,9.128.92,34.334,17.616,44.142,16.566,9.733,30.315-16.451,44.785-7.929,16.827,9.884.26,35.253,18.266,45.818,14.339,8.447,30.513-17.149,45.376-8.399,15.518,9.127,2.225,36.388,16.957,45.061,15.387,9.052,29.727-17.278,45.768-7.848,15.518,9.128,2.098,35.015,17.747,44.218,16.697,9.809,31.886-15.543,45.505-7.675,15.061,8.701,2.159,36.512,16.826,44.986,14.928,8.949,31.757-16.268,46.424-7.794Z"/>
      <path class="st4" d="M409.99,245.599l-11.896,22.054c-14.601-8.598-31.43,16.62-46.424,7.795-14.732-8.674-1.83-36.486-16.826-44.986-13.75-7.944-28.808,17.484-45.505,7.675-15.649-9.203-2.229-35.091-17.747-44.218-16.172-9.506-30.446,16.7-45.768,7.848-14.732-8.674-1.57-36.01-16.957-45.062-14.863-8.749-31.037,16.847-45.376,8.4-17.875-10.49-1.439-35.934-18.266-45.818-14.34-8.447-28.088,17.738-44.785,7.929-16.565-9.733-2.098-35.015-17.616-44.143-16.435-9.657-29.921,16.678-45.177,7.702-17.613-10.338-2.162-35.539-18.073-44.894-15.78-9.279-31.232,16.246-45.375,8.075-14.863-8.749-7.346-35.447-14.025-39.305L-27.931-7.403c6.679,3.859-.838,30.556,14.025,39.305C.172,40.198,15.69,14.548,31.47,23.827c15.911,9.355.526,34.431,18.139,44.77,15.256,8.976,28.743-17.36,45.177-7.702,15.518,9.128.92,34.334,17.616,44.143,16.566,9.733,30.314-16.452,44.784-7.929,16.828,9.884.26,35.253,18.266,45.818,14.34,8.447,30.514-17.149,45.377-8.4,15.518,9.128,2.224,36.388,16.956,45.062,15.387,9.052,29.727-17.279,45.769-7.848,15.518,9.127,2.098,35.015,17.747,44.218,16.63,9.933,31.689-15.495,45.439-7.551,15.06,8.701,2.158,36.512,16.826,44.986,14.993,8.825,31.757-16.268,46.424-7.794Z"/>
      <path class="st2" d="M423.457,222.558l-11.896,22.054c-14.6-8.598-31.429,16.619-46.423,7.794-14.732-8.673-1.83-36.484-16.825-44.985-13.75-7.944-28.808,17.484-45.504,7.675-15.649-9.203-2.23-35.089-17.747-44.217-16.173-9.506-30.446,16.7-45.768,7.848-14.732-8.673-1.569-36.009-16.956-45.061-14.863-8.749-31.037,16.846-45.376,8.4-17.874-10.489-1.438-35.933-18.265-45.817-14.339-8.447-28.088,17.738-44.784,7.93-16.565-9.733-2.098-35.015-17.616-44.142-16.434-9.657-29.921,16.678-45.176,7.702-17.613-10.338-2.162-35.538-18.138-44.769C17.203,13.69,1.751,39.215-12.392,31.044c-14.863-8.749-7.346-35.446-14.025-39.305l11.895-22.054C-7.843-26.456-15.359.241-.497,8.99,13.58,17.285,29.099-8.364,44.878.915c15.91,9.354.526,34.431,18.138,44.769,15.256,8.976,28.742-17.359,45.177-7.702,15.517,9.128.92,34.333,17.616,44.142,16.696,9.808,30.313-16.451,44.783-7.929,16.827,9.884.26,35.252,18.266,45.817,14.339,8.447,30.513-17.148,45.376-8.399,15.517,9.128,2.224,36.387,16.956,45.061,15.386,9.052,29.726-17.278,45.767-7.848,15.518,9.127,2.098,35.014,17.747,44.217,16.696,9.809,31.885-15.543,45.504-7.675,15.06,8.701,2.158,36.511,16.825,44.985,15.125,8.901,31.954-16.316,46.424-7.794Z"/>
      <path class="st4" d="M437.063,199.591l-11.895,22.054c-14.601-8.597-31.43,16.619-46.424,7.795-14.731-8.674-1.83-36.485-16.825-44.985-13.75-7.944-28.808,17.483-45.504,7.675-15.649-9.203-2.229-35.09-17.747-44.218-16.172-9.506-30.446,16.7-45.767,7.848-14.732-8.673-1.57-36.009-16.956-45.06-14.863-8.75-31.037,16.846-45.376,8.399-17.875-10.489-1.439-35.933-18.266-45.817-14.339-8.447-28.087,17.738-44.783,7.929-16.696-9.808-2.099-35.014-17.616-44.142-16.434-9.657-29.921,16.678-45.176,7.702C47.115,34.433,62.566,9.233,46.589.002,30.81-9.276,15.358,16.248,1.215,8.077-13.648-.672-6.132-27.369-12.811-31.227L-.915-53.282c6.679,3.859-.838,30.555,14.025,39.305,14.077,8.295,29.595-17.354,45.375-8.075,15.91,9.354.526,34.431,18.138,44.769,15.256,8.976,28.742-17.359,45.176-7.702,15.518,9.127.92,34.333,17.616,44.142,16.565,9.733,30.314-16.451,44.783-7.929,16.828,9.884.26,35.252,18.266,45.817,14.339,8.446,30.513-17.149,45.376-8.399,15.517,9.127,2.224,36.387,16.956,45.061,15.387,9.052,29.726-17.278,45.768-7.848,15.517,9.127,2.098,35.014,17.746,44.217,16.696,9.809,31.885-15.543,45.505-7.675,15.059,8.701,2.158,36.512,16.825,44.985,14.993,8.825,31.822-16.392,46.423-7.794Z"/>
      <path class="st2" d="M450.54,176.55l-11.895,22.054c-14.601-8.597-31.43,16.619-46.424,7.795-14.732-8.674-1.83-36.485-16.825-44.985-13.75-7.944-28.808,17.483-45.504,7.675-15.649-9.204-2.23-35.09-17.747-44.218-16.172-9.506-30.446,16.7-45.768,7.848-14.731-8.673-1.569-36.008-16.956-45.06-14.862-8.749-31.037,16.846-45.375,8.399-17.875-10.489-1.439-35.933-18.266-45.817-14.339-8.447-28.087,17.738-44.784,7.929-16.565-9.733-2.098-35.014-17.615-44.142-16.435-9.657-29.921,16.678-45.177,7.702-17.613-10.338-2.162-35.539-18.138-44.769-15.78-9.279-31.232,16.246-45.375,8.075C-.171-23.713,7.345-50.41.666-54.268l11.895-22.054c6.679,3.859-.838,30.555,14.025,39.305,14.077,8.295,29.529-17.23,45.375-8.075,15.91,9.354.526,34.431,18.138,44.769,15.255,8.976,28.742-17.359,45.176-7.702,15.518,9.127.92,34.333,17.616,44.142,16.696,9.808,30.313-16.451,44.783-7.929,16.827,9.884.26,35.252,18.266,45.817,14.339,8.447,30.513-17.149,45.376-8.399,15.517,9.127,2.224,36.387,16.956,45.061,15.386,9.052,29.66-17.154,45.767-7.848,15.518,9.127,2.099,35.014,17.747,44.217,16.696,9.809,31.885-15.543,45.504-7.675,15.06,8.701,2.159,36.512,16.826,44.985,14.993,8.825,31.822-16.392,46.423-7.794Z"/>
      <path class="st4" d="M464.091,153.379l-11.896,22.054c-14.601-8.598-31.43,16.619-46.423,7.794-14.732-8.673-1.831-36.484-16.825-44.985-13.751-7.944-28.809,17.484-45.505,7.675-15.648-9.203-2.229-35.09-17.747-44.217-16.172-9.506-30.445,16.7-45.767,7.848-14.732-8.674-1.57-36.009-16.956-45.061-14.863-8.749-31.037,16.846-45.376,8.399-17.875-10.489-1.439-35.933-18.266-45.817-14.338-8.447-28.087,17.738-44.783,7.929-16.696-9.808-2.098-35.014-17.616-44.142-16.434-9.657-29.921,16.678-45.176,7.702-17.613-10.338-2.162-35.539-18.138-44.769-15.779-9.279-31.232,16.246-45.375,8.075-14.863-8.749-7.346-35.446-14.025-39.305l11.895-22.054c6.679,3.858-.838,30.555,14.025,39.304,14.077,8.295,29.595-17.354,45.375-8.075,15.91,9.354.459,34.555,18.072,44.893,15.256,8.976,28.742-17.359,45.176-7.702,15.518,9.128.92,34.333,17.616,44.142,16.565,9.733,30.314-16.451,44.784-7.929,16.827,9.884.26,35.252,18.265,45.817,14.339,8.447,30.514-17.149,45.376-8.399,15.518,9.127,2.225,36.387,16.956,45.061,15.387,9.052,29.726-17.278,45.768-7.848,15.517,9.128,2.098,35.014,17.747,44.217,16.696,9.809,31.885-15.543,45.504-7.675,15.06,8.701,2.158,36.512,16.825,44.985,14.994,8.825,31.823-16.392,46.49-7.918Z"/>
      <path class="st2" d="M477.576,130.336l-11.896,22.055c-14.601-8.598-31.43,16.619-46.424,7.794-14.732-8.674-1.83-36.485-16.826-44.986-13.75-7.944-28.808,17.484-45.505,7.675-15.649-9.203-2.229-35.09-17.747-44.218-16.173-9.506-30.446,16.7-45.768,7.848-14.732-8.674-1.57-36.009-16.957-45.061-14.863-8.749-31.037,16.846-45.376,8.399-17.875-10.49-1.439-35.934-18.266-45.818-14.34-8.447-28.088,17.738-44.785,7.929-16.565-9.733-2.098-35.015-17.616-44.143-16.434-9.657-29.921,16.679-45.177,7.702-17.613-10.338-2.162-35.539-18.073-44.894-15.78-9.279-31.232,16.246-45.375,8.075-14.863-8.749-7.346-35.447-14.025-39.305l11.896-22.055c6.679,3.859-.838,30.556,14.025,39.306,14.077,8.295,29.596-17.355,45.375-8.075,15.911,9.355.459,34.556,18.073,44.894,15.255,8.976,28.742-17.359,45.177-7.702,15.518,9.128.919,34.334,17.616,44.142,16.565,9.733,30.314-16.452,44.784-7.929,16.828,9.884.26,35.253,18.266,45.818,14.339,8.447,30.514-17.149,45.377-8.399,15.518,9.128,2.224,36.388,16.956,45.062,15.387,9.052,29.727-17.278,45.769-7.848,15.518,9.128,2.098,35.015,17.747,44.219,16.696,9.808,31.885-15.544,45.505-7.676,15.06,8.701,2.158,36.512,16.825,44.986,15.125,8.901,31.889-16.192,46.425-7.794Z"/>
      <path class="st4" d="M491.181,107.37l-11.895,22.054c-14.602-8.598-31.431,16.62-46.425,7.795-14.732-8.674-1.83-36.486-16.825-44.986-13.751-7.944-28.809,17.484-45.505,7.675-15.649-9.203-2.23-35.09-17.748-44.218-16.172-9.506-30.446,16.7-45.768,7.848-14.732-8.674-1.569-36.009-16.956-45.061-14.863-8.749-31.038,16.846-45.377,8.399-17.875-10.49-1.439-35.934-18.266-45.818-14.339-8.447-28.088,17.738-44.784,7.929-16.566-9.733-2.099-35.015-17.616-44.143-16.435-9.657-29.922,16.679-45.178,7.702-17.613-10.338-2.162-35.539-18.072-44.894-15.78-9.279-31.232,16.246-45.376,8.075-14.863-8.749-7.346-35.447-14.025-39.305l11.896-22.055c6.679,3.859-.838,30.556,14.025,39.305,14.077,8.296,29.596-17.354,45.375-8.075,15.911,9.355.46,34.556,18.073,44.894,15.256,8.976,28.743-17.359,45.177-7.702,15.518,9.128.92,34.334,17.616,44.143,16.697,9.809,30.315-16.452,44.785-7.929,16.827,9.884.26,35.253,18.266,45.818,14.339,8.447,30.513-17.149,45.376-8.399,15.518,9.128,2.225,36.388,16.957,45.061,15.387,9.052,29.727-17.278,45.768-7.848,15.518,9.128,2.098,35.015,17.747,44.218,16.697,9.809,31.886-15.544,45.505-7.675,15.061,8.701,2.159,36.512,16.826,44.986,14.994,8.825,31.823-16.392,46.424-7.794Z"/>
      <path class="st2" d="M504.658,84.328l-11.896,22.055c-14.601-8.598-31.43,16.619-46.424,7.794-14.732-8.674-1.83-36.485-16.826-44.986-13.75-7.944-28.808,17.484-45.505,7.675-15.649-9.203-2.229-35.09-17.747-44.218-16.172-9.506-30.446,16.7-45.768,7.848-14.732-8.674-1.57-36.009-16.957-45.061-14.863-8.749-31.037,16.846-45.376,8.399-17.875-10.49-1.439-35.934-18.266-45.818-14.34-8.447-28.088,17.738-44.785,7.929-16.696-9.809-2.098-35.015-17.616-44.143-16.434-9.657-29.921,16.679-45.177,7.702-17.613-10.338-2.162-35.539-18.073-44.894-15.779-9.279-31.232,16.247-45.375,8.075-14.863-8.749-7.346-35.446-14.025-39.305l11.896-22.054c6.679,3.858-.838,30.555,14.025,39.305,14.077,8.295,29.596-17.354,45.376-8.075,15.911,9.354.526,34.431,18.139,44.769,15.256,8.976,28.742-17.359,45.177-7.702,15.518,9.128.92,34.334,17.616,44.142,16.565,9.733,30.314-16.451,44.784-7.929,16.828,9.884.26,35.253,18.266,45.818,14.34,8.447,30.514-17.149,45.377-8.399,15.518,9.128,2.224,36.388,16.956,45.062,15.387,9.052,29.727-17.278,45.769-7.848,15.518,9.128,2.098,35.015,17.747,44.218,16.696,9.809,31.886-15.544,45.505-7.675,15.06,8.701,2.158,36.512,16.826,44.986,14.927,8.949,31.757-16.268,46.358-7.67Z"/>
      <path class="st4" d="M518.126,61.287l-11.896,22.054c-14.601-8.598-31.429,16.619-46.423,7.794-14.732-8.674-1.83-36.484-16.825-44.985-13.751-7.944-28.809,17.484-45.505,7.675-15.648-9.203-2.229-35.09-17.746-44.217-16.173-9.506-30.446,16.7-45.768,7.848-14.732-8.674-1.569-36.009-16.956-45.061-14.863-8.749-31.037,16.846-45.376,8.399-17.874-10.489-1.438-35.933-18.265-45.817-14.339-8.447-28.088,17.737-44.784,7.929-16.565-9.733-2.098-35.014-17.616-44.142-16.434-9.657-29.92,16.678-45.176,7.702-17.613-10.338-2.162-35.539-18.138-44.769-15.78-9.279-31.232,16.246-45.375,8.075-14.863-8.749-7.346-35.446-14.025-39.304l11.895-22.055c6.679,3.859-.838,30.556,14.025,39.305,14.077,8.295,29.596-17.354,45.375-8.075,15.91,9.354.526,34.431,18.138,44.769,15.256,8.976,28.743-17.36,45.177-7.703,15.517,9.128.919,34.334,17.616,44.142,16.565,9.733,30.313-16.451,44.783-7.929,16.827,9.884.26,35.252,18.266,45.817,14.339,8.446,30.513-17.149,45.376-8.399,15.517,9.128,2.224,36.387,16.956,45.061,15.386,9.052,29.726-17.278,45.767-7.848,15.518,9.128,2.098,35.014,17.747,44.217,16.696,9.808,31.885-15.543,45.504-7.675,15.06,8.701,2.158,36.511,16.825,44.985,15.125,8.9,31.823-16.392,46.424-7.794Z"/>
      <path class="st2" d="M534.139,34.312l-13.953,25.921c-14.61-8.603-31.45,16.626-46.453,7.796-14.741-8.679-1.83-36.503-16.834-45.009-13.759-7.949-28.827,17.491-45.533,7.677-15.658-9.209-2.23-35.108-17.757-44.241-16.182-9.511-30.465,16.707-45.796,7.85-14.74-8.679-1.569-36.027-16.965-45.084-14.872-8.754-31.057,16.853-45.404,8.401-17.886-10.496-1.439-35.951-18.276-45.841-14.348-8.452-28.105,17.745-44.811,7.931-16.576-9.739-2.099-35.032-17.626-44.165-16.444-9.663-29.94,16.685-45.205,7.704-17.623-10.345-2.162-35.557-18.148-44.793-15.789-9.284-31.251,16.253-45.403,8.077-14.872-8.754-7.35-35.464-14.033-39.325l14.02-26.045c6.683,3.86-.839,30.57,14.033,39.325,14.085,8.3,29.614-17.361,45.403-8.077,15.92,9.36.525,34.448,18.148,44.792,15.265,8.982,28.761-17.366,45.205-7.703,15.527,9.133.919,34.35,17.625,44.165,16.575,9.738,30.333-16.458,44.812-7.931,16.837,9.89.259,35.27,18.275,45.841,14.348,8.452,30.533-17.156,45.405-8.401,15.526,9.133,2.224,36.406,16.965,45.084,15.396,9.057,29.745-17.285,45.796-7.85,15.527,9.133,2.099,35.032,17.757,44.241,16.706,9.814,31.905-15.55,45.532-7.677,15.069,8.706,2.159,36.53,16.835,45.009,14.936,8.955,31.776-16.274,46.386-7.671Z"/>
      <path class="st1" d="M81.674-191.591c6.656,3.844-.83,30.464,13.981,39.182,14.028,8.266,29.487-17.312,45.211-8.066,15.855,9.321.53,34.327,18.081,44.628,15.203,8.945,28.637-17.317,45.014-7.694,15.464,9.095.922,34.23,17.56,44.004,16.508,9.698,30.203-16.412,44.623-7.921,16.768,9.849.264,35.147,18.208,45.674,14.289,8.417,30.401-17.108,45.212-8.39,15.464,9.095,2.222,36.278,16.903,44.92,15.333,9.02,29.617-17.237,45.603-7.84,15.463,9.095,2.096,34.909,17.69,44.079,16.639,9.773,31.769-15.508,45.341-7.668,15.008,8.669,2.157,36.402,16.773,44.845,14.941,8.793,31.706-16.354,46.256-7.787"/>
      <path class="st1" d="M97.679-218.714c6.656,3.844-.83,30.464,13.982,39.182,14.028,8.266,29.487-17.312,45.211-8.066,15.855,9.321.53,34.327,18.081,44.628,15.203,8.945,28.637-17.317,45.014-7.694,15.464,9.095.922,34.23,17.56,44.004,16.508,9.698,30.203-16.413,44.622-7.921,16.769,9.849.265,35.147,18.208,45.674,14.289,8.416,30.402-17.108,45.213-8.39,15.463,9.095,2.222,36.278,16.903,44.92,15.333,9.02,29.617-17.237,45.603-7.84,15.463,9.095,2.096,34.909,17.69,44.079,16.638,9.773,31.769-15.508,45.341-7.668,15.007,8.669,2.156,36.402,16.772,44.845,14.942,8.793,31.707-16.354,46.257-7.787"/>
      <path class="st1" d="M68.198-168.55c6.656,3.844-.83,30.464,13.981,39.182,14.028,8.266,29.487-17.312,45.212-8.066,15.855,9.321.529,34.327,18.081,44.628,15.202,8.944,28.636-17.317,45.014-7.694,15.463,9.095.922,34.23,17.56,44.004,16.507,9.698,30.202-16.412,44.622-7.921,16.769,9.849.265,35.147,18.208,45.674,14.289,8.417,30.401-17.108,45.212-8.39,15.464,9.095,2.223,36.278,16.903,44.92,15.333,9.019,29.618-17.237,45.603-7.84,15.464,9.095,2.097,34.909,17.691,44.079,16.638,9.773,31.769-15.508,45.34-7.668,15.008,8.669,2.157,36.402,16.773,44.845,14.941,8.793,31.706-16.354,46.256-7.787"/>
      <path class="st1" d="M54.713-145.508c6.656,3.845-.83,30.465,13.982,39.183,14.028,8.266,29.487-17.312,45.213-8.067,15.855,9.322.463,34.453,18.015,44.754,15.203,8.944,28.637-17.317,45.015-7.694,15.464,9.095.922,34.231,17.56,44.005,16.639,9.774,30.204-16.413,44.624-7.921,16.768,9.849.264,35.148,18.208,45.675,14.289,8.417,30.402-17.108,45.213-8.39,15.464,9.095,2.222,36.278,16.903,44.921,15.334,9.02,29.618-17.237,45.604-7.84,15.464,9.095,2.097,34.91,17.691,44.08,16.639,9.774,31.77-15.508,45.342-7.668,15.008,8.67,2.156,36.402,16.773,44.846,14.941,8.793,31.707-16.354,46.257-7.787"/>
      <path class="st1" d="M41.237-122.467c6.656,3.845-.83,30.465,13.982,39.183,14.028,8.266,29.487-17.313,45.212-8.066,15.855,9.321.463,34.452,18.015,44.754,15.203,8.944,28.638-17.317,45.015-7.695,15.464,9.095.922,34.231,17.561,44.005,16.508,9.698,30.203-16.413,44.623-7.921,16.769,9.849.265,35.147,18.208,45.675,14.29,8.417,30.402-17.108,45.214-8.39,15.464,9.095,2.222,36.278,16.903,44.921,15.333,9.02,29.618-17.237,45.604-7.84,15.464,9.095,2.096,34.91,17.691,44.08,16.638,9.773,31.769-15.508,45.341-7.668,15.008,8.669,2.157,36.402,16.773,44.846,14.942,8.793,31.707-16.355,46.257-7.787"/>
      <path class="st1" d="M27.631-99.5c6.656,3.845-.83,30.465,13.982,39.183,14.028,8.266,29.487-17.312,45.212-8.066,15.855,9.321.463,34.452,18.015,44.754,15.203,8.944,28.637-17.317,45.015-7.695,15.464,9.095.922,34.231,17.56,44.005,16.508,9.698,30.204-16.413,44.623-7.921,16.769,9.849.265,35.147,18.209,45.675,14.289,8.417,30.402-17.108,45.213-8.39,15.464,9.095,2.222,36.278,16.903,44.921,15.334,9.02,29.618-17.237,45.604-7.84,15.464,9.095,2.097,34.91,17.691,44.08,16.639,9.774,31.77-15.508,45.342-7.667,15.008,8.669,2.156,36.402,16.772,44.845,14.942,8.794,31.708-16.354,46.258-7.786"/>
      <path class="st1" d="M14.088-76.329c6.655,3.845-.83,30.464,13.981,39.182,14.028,8.266,29.421-17.188,45.211-8.066,15.855,9.321.529,34.328,18.081,44.629,15.202,8.944,28.636-17.317,45.013-7.694,15.464,9.095.922,34.23,17.56,44.004,16.639,9.774,30.203-16.412,44.623-7.921,16.768,9.849.265,35.147,18.208,45.674,14.289,8.417,30.401-17.108,45.212-8.39,15.464,9.095,2.223,36.278,16.903,44.921,15.333,9.019,29.552-17.113,45.603-7.841,15.464,9.095,2.096,34.909,17.691,44.08,16.638,9.773,31.768-15.508,45.34-7.668,15.008,8.669,2.157,36.402,16.773,44.845,14.941,8.793,31.706-16.354,46.256-7.787"/>
      <path class="st1" d="M.612-53.288c6.655,3.845-.83,30.464,13.981,39.182,14.028,8.266,29.487-17.312,45.211-8.066,15.855,9.321.529,34.328,18.081,44.629,15.203,8.944,28.637-17.317,45.014-7.694,15.463,9.095.922,34.23,17.56,44.004,16.507,9.698,30.202-16.413,44.622-7.921,16.769,9.849.265,35.147,18.208,45.674,14.289,8.416,30.401-17.108,45.213-8.39,15.463,9.095,2.222,36.277,16.902,44.92,15.334,9.02,29.618-17.237,45.603-7.84,15.464,9.095,2.097,34.909,17.691,44.079,16.638,9.774,31.769-15.508,45.341-7.668,15.007,8.67,2.156,36.402,16.772,44.845,14.942,8.794,31.706-16.354,46.257-7.786"/>
      <path class="st1" d="M-12.994-30.321C-6.339-26.476-13.824.143.987,8.861,15.015,17.127,30.474-8.451,46.198.795c15.855,9.321.529,34.328,18.081,44.629,15.203,8.944,28.637-17.317,45.014-7.694,15.464,9.095.922,34.23,17.56,44.004,16.638,9.773,30.203-16.412,44.623-7.921,16.768,9.849.264,35.147,18.207,45.674,14.29,8.417,30.402-17.107,45.213-8.389,15.464,9.095,2.222,36.277,16.903,44.92,15.333,9.019,29.617-17.237,45.603-7.84,15.463,9.095,2.096,34.909,17.69,44.079,16.638,9.773,31.769-15.508,45.341-7.668,15.008,8.67,2.156,36.402,16.772,44.845,14.942,8.793,31.707-16.354,46.257-7.787"/>
      <path class="st1" d="M-26.47-7.28c6.656,3.845-.83,30.464,13.981,39.182C1.54,40.168,16.998,14.59,32.723,23.836c15.855,9.321.529,34.328,18.081,44.629,15.203,8.944,28.637-17.317,45.014-7.694,15.463,9.095.922,34.23,17.56,44.004,16.507,9.698,30.202-16.412,44.622-7.92,16.769,9.849.265,35.147,18.208,45.674,14.289,8.416,30.401-17.108,45.213-8.39,15.463,9.095,2.222,36.278,16.902,44.92,15.333,9.02,29.618-17.236,45.603-7.84,15.464,9.095,2.097,34.909,17.691,44.079,16.638,9.774,31.638-15.583,45.341-7.667,15.007,8.669,2.156,36.401,16.772,44.845,14.942,8.793,31.706-16.354,46.257-7.787"/>
      <path class="st1" d="M-39.955,15.762c6.656,3.845-.83,30.465,13.982,39.183,14.028,8.266,29.487-17.312,45.212-8.067,15.856,9.321.464,34.452,18.015,44.754,15.203,8.944,28.637-17.317,45.015-7.695,15.464,9.095.922,34.232,17.56,44.005,16.508,9.698,30.204-16.413,44.624-7.921,16.769,9.849.264,35.148,18.208,45.675,14.289,8.417,30.402-17.108,45.213-8.389,15.464,9.095,2.223,36.278,16.903,44.921,15.334,9.02,29.618-17.237,45.604-7.84,15.464,9.095,2.097,34.909,17.691,44.08,16.639,9.773,31.77-15.508,45.342-7.668,15.008,8.669,2.156,36.402,16.773,44.846,14.941,8.793,31.707-16.355,46.257-7.787"/>
      <path class="st1" d="M-53.431,38.803c6.656,3.845-.83,30.465,13.982,39.183,14.028,8.266,29.487-17.312,45.212-8.066,15.855,9.321.463,34.452,18.015,44.753,15.203,8.945,28.637-17.317,45.015-7.694,15.464,9.095.922,34.231,17.56,44.005,16.508,9.698,30.203-16.413,44.623-7.921,16.769,9.849.265,35.147,18.208,45.675,14.29,8.417,30.402-17.108,45.214-8.39,15.464,9.095,2.222,36.278,16.903,44.921,15.333,9.02,29.618-17.237,45.604-7.84,15.464,9.095,2.096,34.91,17.691,44.08,16.638,9.774,31.769-15.508,45.341-7.668,15.008,8.67,2.157,36.403,16.773,44.846,14.942,8.794,31.707-16.354,46.258-7.787"/>
      <path class="st1" d="M-67.113,61.9c6.656,3.845-.83,30.465,13.982,39.183,14.028,8.265,29.487-17.313,45.212-8.067,15.855,9.321.463,34.452,18.015,44.754,15.203,8.944,28.637-17.318,45.015-7.695,15.464,9.095.922,34.231,17.56,44.005,16.508,9.698,30.203-16.413,44.623-7.921,16.769,9.849.265,35.148,18.209,45.675,14.289,8.417,30.402-17.108,45.213-8.39,15.464,9.095,2.222,36.279,16.903,44.921,15.334,9.02,29.618-17.236,45.604-7.84,15.464,9.095,2.097,34.91,17.691,44.08,16.638,9.774,31.769-15.508,45.342-7.667,15.007,8.669,2.156,36.402,16.772,44.845,14.942,8.794,31.707-16.354,46.258-7.786"/>
      <path class="st1" d="M-80.58,84.941c6.656,3.845-.83,30.465,13.981,39.183,14.028,8.266,29.421-17.188,45.211-8.067,15.855,9.322.529,34.328,18.081,44.629,15.203,8.944,28.637-17.317,45.014-7.694,15.464,9.095.922,34.23,17.56,44.004,16.508,9.698,30.203-16.413,44.622-7.921,16.768,9.849.265,35.147,18.208,45.674,14.289,8.417,30.401-17.108,45.212-8.39,15.464,9.095,2.223,36.278,16.903,44.921,15.333,9.019,29.552-17.113,45.603-7.841,15.464,9.095,2.097,34.909,17.691,44.08,16.638,9.773,31.768-15.508,45.34-7.668,15.008,8.669,2.157,36.402,16.773,44.845,14.941,8.793,31.706-16.354,46.256-7.787"/>
      <path class="st1" d="M-94.056,107.983c6.656,3.845-.83,30.464,13.981,39.182,14.028,8.266,29.487-17.312,45.211-8.066,15.855,9.321.529,34.327,18.081,44.629,15.203,8.944,28.637-17.318,45.014-7.695,15.464,9.095.922,34.231,17.56,44.004,16.508,9.698,30.203-16.412,44.622-7.921,16.769,9.849.265,35.147,18.208,45.674,14.289,8.417,30.401-17.107,45.213-8.389,15.463,9.095,2.222,36.277,16.902,44.92,15.334,9.02,29.618-17.237,45.603-7.84,15.464,9.095,2.097,34.909,17.691,44.079,16.638,9.773,31.769-15.508,45.341-7.668,15.007,8.67,2.156,36.402,16.772,44.845,14.942,8.794,31.706-16.354,46.256-7.786"/>
      <path class="st1" d="M-107.532,131.024c6.655,3.845-.83,30.464,13.981,39.182,14.028,8.266,29.487-17.312,45.211-8.066,15.855,9.321.529,34.328,18.081,44.629,15.203,8.944,28.637-17.317,45.014-7.695,15.464,9.095.922,34.231,17.56,44.004,16.508,9.698,30.203-16.412,44.622-7.921,16.769,9.849.265,35.147,18.208,45.675,14.29,8.416,30.402-17.108,45.213-8.39,15.464,9.095,2.222,36.277,16.903,44.92,15.333,9.02,29.617-17.237,45.603-7.84,15.463,9.095,2.096,34.909,17.69,44.079,16.638,9.774,31.769-15.508,45.341-7.668,15.008,8.67,2.157,36.402,16.772,44.845,14.942,8.794,31.707-16.354,46.257-7.786"/>
      <path class="st1" d="M-121.138,153.991c6.656,3.844-.83,30.464,13.981,39.182,14.029,8.266,29.487-17.312,45.212-8.066,15.855,9.321.529,34.327,18.081,44.628,15.203,8.945,28.637-17.317,45.014-7.694,15.464,9.095.922,34.23,17.56,44.004,16.508,9.698,30.203-16.413,44.622-7.921,16.769,9.849.265,35.147,18.208,45.674,14.289,8.417,30.401-17.107,45.212-8.389,15.464,9.095,2.223,36.277,16.903,44.92,15.334,9.019,29.618-17.237,45.603-7.84,15.464,9.095,2.097,34.909,17.691,44.079,16.638,9.773,31.769-15.508,45.341-7.668,15.007,8.67,2.156,36.402,16.772,44.845,14.941,8.793,31.706-16.354,46.256-7.787"/>
      <path class="st1" d="M-134.697,177.163c6.655,3.844-.83,30.465,13.981,39.183,14.029,8.266,29.488-17.313,45.212-8.067,15.855,9.322.464,34.452,18.015,44.754,15.203,8.944,28.637-17.318,45.015-7.695,15.464,9.095.922,34.231,17.56,44.005,16.638,9.774,30.203-16.413,44.623-7.921,16.769,9.849.265,35.148,18.208,45.675,14.289,8.417,30.402-17.108,45.213-8.389,15.464,9.095,2.222,36.278,16.903,44.921,15.334,9.019,29.618-17.237,45.604-7.841,15.464,9.095,2.097,34.91,17.691,44.08,16.638,9.774,31.769-15.508,45.342-7.667,15.007,8.669,2.156,36.402,16.772,44.845,14.942,8.794,31.708-16.354,46.258-7.786"/>
      <path class="st1" d="M-148.175,200.204c6.656,3.844-.83,30.465,13.982,39.183,14.028,8.266,29.487-17.313,45.212-8.067,15.855,9.322.463,34.453,18.015,44.754,15.203,8.944,28.637-17.318,45.015-7.695,15.464,9.095.922,34.231,17.56,44.005,16.638,9.774,30.203-16.413,44.623-7.921,16.769,9.849.265,35.148,18.208,45.675,14.289,8.417,30.402-17.108,45.214-8.389,15.463,9.095,2.222,36.278,16.903,44.921,15.333,9.019,29.618-17.237,45.604-7.841,15.463,9.096,2.096,34.91,17.69,44.08,16.639,9.774,31.77-15.508,45.342-7.667,15.008,8.669,2.157,36.402,16.773,44.845,14.942,8.794,31.707-16.354,46.257-7.786"/>
      <path class="st1" d="M-161.642,223.245c6.656,3.845-.829,30.465,13.982,39.183,14.028,8.265,29.421-17.189,45.211-8.067,15.855,9.321.529,34.328,18.081,44.629,15.203,8.944,28.637-17.317,45.014-7.695,15.464,9.095.922,34.231,17.56,44.004,16.508,9.698,30.203-16.412,44.622-7.92,16.769,9.848.265,35.146,18.208,45.674,14.289,8.416,30.401-17.108,45.213-8.39,15.463,9.095,2.222,36.278,16.903,44.92,15.333,9.02,29.551-17.112,45.603-7.84,15.463,9.095,2.096,34.909,17.69,44.079,16.638,9.774,31.769-15.508,45.341-7.667,15.007,8.669,2.156,36.401,16.772,44.845,14.942,8.793,31.707-16.354,46.257-7.787"/>
      <path class="st1" d="M99.617-218.524l-16.016,27.111-13.471,23.034-13.471,23.035-13.471,23.034-13.621,22.956-13.546,23.164L2.55-53.156l-13.62,22.956L-24.542-7.166l-13.471,23.034-13.471,23.034-13.695,23.086-13.471,23.034-13.471,23.035-13.471,23.034-13.621,22.956-13.546,23.164-13.471,23.034-13.472,23.034"/>
      <path class="st1" d="M533.971,32.08l-16.014,27.111-13.47,23.034-13.471,23.034-13.619,22.956-13.471,23.034-13.545,23.164-13.47,23.034-13.62,22.956-13.47,23.034-13.471,23.034-13.545,23.164-13.619,22.955-13.471,23.035-13.47,23.034-13.47,23.034-13.695,23.085-13.47,23.034-13.47,23.034-13.62,22.956"/>
    </g>
  </g>
</svg>