<svg viewBox="0 0 81 80" fill="none" xmlns="http://www.w3.org/2000/svg"><rect x=".5" width="80" height="80" rx="40" fill="#C6C9CA"/><path d="M51.125 24.25h-20.25c-.675 0-1.125.45-1.125 1.125v31.5c0 .675.45 1.125 1.125 1.125h7.2v-7.875c0-.675.45-1.125 1.125-1.125h3.825c.675 0 1.125.45 1.125 1.125V58h7.2c.675 0 1.125-.45 1.125-1.125v-31.5c-.225-.675-.675-1.125-1.35-1.125zm-4.5 20.25h-11.25c-.675 0-1.125-.45-1.125-1.125s.45-1.125 1.125-1.125h11.25c.675 0 1.125.45 1.125 1.125S47.3 44.5 46.625 44.5zm0-6.75h-11.25c-.675 0-1.125-.45-1.125-1.125s.45-1.125 1.125-1.125h11.25c.675 0 1.125.45 1.125 1.125s-.45 1.125-1.125 1.125zm0-6.75h-11.25c-.675 0-1.125-.45-1.125-1.125s.45-1.125 1.125-1.125h11.25c.675 0 1.125.45 1.125 1.125S47.3 31 46.625 31z" fill="#fff"/></svg>