<svg xmlns="http://www.w3.org/2000/svg" xmlns:xlink="http://www.w3.org/1999/xlink" id="Layer_1" x="0" y="0" version="1.1" viewBox="0 0 40 40" style="enable-background:new 0 0 40 40" xml:space="preserve"><style type="text/css">.st0{fill-rule:evenodd;clip-rule:evenodd;fill:#fff}</style><path d="M20,0L20,0c11,0,20,9,20,20l0,0c0,11-9,20-20,20l0,0C9,40,0,31,0,20l0,0C0,9,9,0,20,0z"/><path d="M13,12.8c0-1,0.8-1.8,1.8-1.8h10.5c1,0,1.8,0.8,1.8,1.8v14.5c0,1-0.8,1.8-1.8,1.8H22v-3.2	c0-0.4-0.4-0.8-0.8-0.8h-2.4c-0.4,0-0.8,0.4-0.8,0.8V29h-3.2c-1,0-1.8-0.8-1.8-1.8V12.8z M16.9,13c-0.6,0-1,0.4-1,1s0.4,1,1,1h6.2	c0.6,0,1-0.4,1-1s-0.4-1-1-1H16.9z M15.9,18c0-0.6,0.4-1,1-1h6.2c0.6,0,1,0.4,1,1s-0.4,1-1,1h-6.2C16.3,19,15.9,18.6,15.9,18z M16.9,21c-0.6,0-1,0.4-1,1s0.4,1,1,1h6.2c0.6,0,1-0.4,1-1s-0.4-1-1-1H16.9z" class="st0"/></svg>