<svg xmlns="http://www.w3.org/2000/svg" viewBox="0 0 26 26"><g clip-path="url(#a)"><path fill-rule="evenodd" d="M25.167 8a7.5 7.5 0 0 1-8.952 7.36c-.453-.09-.93.022-1.256.348l-7.917 7.917a3.536 3.536 0 0 1-5-5l7.917-7.917c.326-.326.437-.803.348-1.256A7.5 7.5 0 0 1 19.91.842c.417.13.514.65.205.96l-4.323 4.323.625 3.125 3.125.625 4.323-4.323c.309-.31.83-.212.96.205.222.708.342 1.462.342 2.243M5.792 21.125a1.25 1.25 0 1 1-2.5 0 1.25 1.25 0 0 1 2.5 0" clip-rule="evenodd"/></g><defs><clipPath id="a"><path fill="#fff" d="M.167.5h25v25h-25z"/></clipPath></defs></svg>