<svg xmlns="http://www.w3.org/2000/svg" id="Layer_1" data-name="Layer 1" version="1.1" viewBox="0 0 20 20"><defs><style>.cls-1{fill-rule:evenodd;stroke-width:0}</style></defs><path d="M16.364,16.364c3.515-3.515,3.515-9.213,0-12.728C12.849.121,7.151.121,3.636,3.636.121,7.151.121,12.849,3.636,16.364c3.515,3.515,9.213,3.515,12.728,0ZM6.111,6.111c.586-.586,1.536-.586,2.121,0l1.768,1.768,1.768-1.768c.586-.586,1.535-.586,2.121,0,.586.586.586,1.536,0,2.121l-1.768,1.768,1.768,1.768c.586.586.586,1.535,0,2.121s-1.536.586-2.121,0l-1.768-1.768-1.768,1.768c-.586.586-1.536.586-2.121,0-.586-.586-.586-1.536,0-2.121l1.768-1.768-1.768-1.768c-.586-.586-.586-1.536,0-2.121Z" class="cls-1"/></svg>