<svg xmlns="http://www.w3.org/2000/svg" id="Layer_1" data-name="Layer 1" viewBox="0 0 20 20"><defs><style>.cls-1{fill-rule:evenodd;stroke-width:0}</style></defs><path d="M16.364 16.364a9 9 0 0 0 0-12.728 9 9 0 0 0-12.728 0 9 9 0 0 0 0 12.728 9 9 0 0 0 12.728 0M6.111 6.111a1.5 1.5 0 0 1 2.121 0L10 7.879l1.768-1.768a1.5 1.5 0 1 1 2.121 2.121L12.121 10l1.768 1.768a1.5 1.5 0 1 1-2.121 2.121L10 12.121l-1.768 1.768a1.5 1.5 0 1 1-2.121-2.121L7.879 10 6.111 8.232a1.5 1.5 0 0 1 0-2.121" class="cls-1"/></svg>