<?xml version="1.0" encoding="utf-8"?>
<!-- Generator: Adobe Illustrator 24.3.0, SVG Export Plug-In . SVG Version: 6.00 Build 0)  -->
<svg version="1.1" id="Layer_1" xmlns="http://www.w3.org/2000/svg" xmlns:xlink="http://www.w3.org/1999/xlink" x="0px" y="0px"
	 viewBox="0 0 20 20" style="enable-background:new 0 0 20 20;" xml:space="preserve">
<style type="text/css">
	.st0{fill-rule:evenodd;clip-rule:evenodd;}
</style>
<path class="st0" d="M14.4,11.8l3.9,3.9c0.8,0.6,0.8,1.9,0,2.5c-0.8,0.8-1.9,0.8-2.6,0l-3.9-3.9l0.9-0.9l-1-1c-1.1,1-2.6,1.5-4,1.5
	c-1.6,0-3.2-0.6-4.5-1.9c-2.5-2.4-2.5-6.4,0-8.9C4.4,1.9,6,1.2,7.5,1.2c1.6,0,3.2,0.6,4.5,1.9c2.2,2.2,2.4,5.9,0.4,8.4l1,1
	L14.4,11.8z M4.8,10.2c0.8,0.8,1.8,1.1,2.8,1.1c1.1,0,2-0.4,2.8-1.1s1.1-1.8,1.1-2.8S11,5.6,10.2,4.9S8.5,3.8,7.5,3.8
	S5.6,4.1,4.9,4.9C3.4,6.4,3.4,8.8,4.8,10.2z M7,5.2C7,5.1,7.1,5,7.2,5h0.6C7.9,5,8,5.1,8,5.2V7h1.8C9.9,7,10,7.1,10,7.2v0.6
	C10,7.9,9.9,8,9.8,8H8v1.8C8,9.9,7.9,10,7.8,10H7.2C7.1,10,7,9.9,7,9.8V8H5.2C5.1,8,5,7.9,5,7.8V7.2C5,7.1,5.1,7,5.2,7H7V5.2z"/>
</svg>
