<?xml version="1.0" encoding="utf-8"?>
<!-- Generator: Adobe Illustrator 26.5.0, SVG Export Plug-In . SVG Version: 6.00 Build 0)  -->
<svg version="1.1" id="Layer_1" xmlns="http://www.w3.org/2000/svg" xmlns:xlink="http://www.w3.org/1999/xlink" x="0px" y="0px"
	 viewBox="0 0 20 20" style="enable-background:new 0 0 20 20;" xml:space="preserve">
<style type="text/css">
	.st0{fill-rule:evenodd;clip-rule:evenodd;}
</style>
<path d="M8,5c0.6,0,1,0.4,1,1v1h1c0.6,0,1,0.4,1,1s-0.4,1-1,1H9v1c0,0.6-0.4,1-1,1s-1-0.4-1-1V9H6C5.4,9,5,8.6,5,8c0-0.6,0.4-1,1-1
	h1V6C7,5.4,7.4,5,8,5z"/>
<path class="st0" d="M8,1c3.9,0,7,3.1,7,7c0,1.4-0.4,2.7-1.1,3.8l5.2,5.2c0.6,0.6,0.6,1.5,0,2.1c-0.6,0.6-1.5,0.6-2.1,0l-5.2-5.2
	C10.7,14.6,9.4,15,8,15c-3.9,0-7-3.1-7-7C1,4.1,4.1,1,8,1z M8,4c2.2,0,4,1.8,4,4c0,2.2-1.8,4-4,4c-2.2,0-4-1.8-4-4C4,5.8,5.8,4,8,4z
	"/>
</svg>
