<svg xmlns="http://www.w3.org/2000/svg" xmlns:xlink="http://www.w3.org/1999/xlink" id="Layer_1" x="0" y="0" version="1.1" viewBox="0 0 335 540" xml:space="preserve" style="enable-background:new 0 0 335 540"><style type="text/css">.st0{fill:#400000}.st1{opacity:.1;enable-background:new}.st2{fill:#ff7101}.st3{fill:url(#SVGID_1_)}</style><rect width="335" height="540" y="0" class="st0"/><g class="st1"><path d="M179.771,196.447c-0.083-0.119-0.38-0.379-0.89-0.771l-1.127-0.711c-0.629-0.32-1.104-0.51-1.424-0.593 c-0.676-0.237-1.424-0.32-2.254-0.237c-0.558,0-1.092,0.095-1.602,0.296c-0.202,0.083-0.593,0.321-1.186,0.712 c-1.389,0.948-2.278,1.932-2.67,2.964c-0.154,0.391-0.273,0.984-0.356,1.779c-0.201,2.051,0.178,3.699,1.127,4.92 c0.748,0.913,1.697,1.518,2.848,1.838c0.913,0.32,2.04,0.391,3.381,0.237c0.629-0.083,1.104-0.178,1.424-0.296 c1.068-0.32,1.922-0.854,2.551-1.601c0.391-0.439,0.688-0.866,0.89-1.304c0.272-0.629,0.45-1.447,0.534-2.431 c0-0.747-0.143-1.684-0.416-2.786C180.483,197.633,180.21,196.957,179.771,196.447z M177.932,202.85 c-0.51,0.747-1.566,1.162-3.144,1.245c-1.578,0-2.646-0.38-3.204-1.127c-0.32-0.355-0.51-0.925-0.593-1.719 c-0.154-0.948-0.083-1.695,0.237-2.253c0.119-0.154,0.51-0.593,1.187-1.304c0.629-0.439,1.091-0.676,1.364-0.711 c0.392-0.119,1.068,0,2.017,0.355l1.187,0.534c0.391,0.201,0.628,0.332,0.711,0.415c0.119,0.118,0.273,0.474,0.475,1.067 C178.561,200.929,178.489,202.103,177.932,202.85z" class="st2"/><path d="M278.009,453.86v-0.178h37.788v-0.178c0-0.557,0.083-1.387,0.237-2.49l0.771-3.083 c0.356-1.387,0.866-2.466,1.543-3.26c-0.321-0.273-0.594-0.593-0.831-0.949h-0.534c-0.7-1.363-1.079-3.296-1.127-5.81 c-13.217,0.071-26.446,0.131-39.687,0.178h-0.237v4.269c0.119,0,0.214,0.023,0.297,0.059v11.442H278.009z" class="st2"/><path d="M124.423,0.097c1.068,3.759,3.025,7.055,5.873,9.901c2.883,2.846,6.193,4.802,9.907,5.869 c0.747,0.237,1.317,0.498,1.72,0.771c1.246-0.688,2.717-1.292,4.39-1.838c4.947-1.541,10.5-2.075,16.669-1.601 c0.463,0,0.855,0.035,1.187,0.118c0.332-0.083,0.724-0.118,1.186-0.118c6.17-0.474,11.722,0.059,16.67,1.601 c1.661,0.557,3.12,1.186,4.39,1.897c0.391-0.32,0.973-0.593,1.72-0.83c3.714-1.067,7.024-3.024,9.907-5.869 c2.847-2.846,4.805-6.142,5.873-9.901c0.009-0.031,0.015-0.066,0.024-0.097h-79.539C124.408,0.031,124.414,0.066,124.423,0.097z" class="st2"/><path d="M145.126,438.683c18.272-0.32,31.655-0.451,40.162-0.415c14.949,0.083,28.332,0.569,40.161,1.482 c10.642,0.83,26.481,2.668,47.517,5.514v-7.648c0,0,0.059-0.095,0.059-0.178v-1.601h0.297l-0.059-2.964h-0.238v-11.975 c0.036-0.083,0.084-0.154,0.119-0.237v-2.905c0-0.083,0.024-0.155,0.059-0.238v-0.889c0-0.083,0.024-0.154,0.06-0.237v-3.32h-0.06 c-0.142-0.012-0.284-0.035-0.415-0.059c-12.529-1.506-21.937-2.621-28.237-3.32c-10.999-1.221-20.585-2.051-28.772-2.49 c-8.305-0.474-20.822-0.711-37.551-0.711h-2.313c-14.404,0-24.31,0.083-29.721,0.237c-20.964,0.581-41.869,2.241-62.704,4.98 c-7.712,1.019-15.424,2.181-23.136,3.497c-0.178,0.024-0.356,0.048-0.534,0.06c-0.961,0.154-1.756,0.189-2.373,0.118v25.374h-0.059 c0.214,1.648,0.225,3.32,0.059,5.039v1.897c0.154-0.083,0.32-0.142,0.475-0.178c0.154-0.035,0.32-0.059,0.475-0.059 c8.388-1.66,20.881-3.415,37.492-5.276c14.747-1.66,25.781-2.668,33.102-3.024C132.633,439.003,138.008,438.837,145.126,438.683z" class="st2"/><path d="M41.609,342.939c0.154-0.913,0.51-2.134,1.068-3.676l0.593-1.423c1.068-2.288,2.646-4.031,4.746-5.217 c2.017-1.15,4.176-1.624,6.466-1.423v-9.663c-0.083-0.403-0.107-0.889-0.059-1.482c0.024-0.569,0.048-1.186,0.059-1.838v-0.178 c0.036-2.087,0-4.458-0.119-7.114c-0.047-0.557,0-1.02,0.119-1.363v-19.268c-2.052,0.391-4.698,0.593-7.949,0.593 c-4.425-0.036-7.356,0.024-8.78,0.178c-3.714,0.391-7.297,1.399-10.737,3.023c-3.476,1.625-6.549,3.759-9.195,6.403 c-2.693,2.644-4.864,5.668-6.525,9.071c-1.697,3.438-2.764,7.019-3.203,10.73c-0.071,0.83-0.143,1.553-0.237,2.194v1.304 c0.036,0.083,0.083,0.154,0.119,0.237v4.446c0,0.083,0.024,0.154,0.059,0.237v66.814c-0.036,0.083-0.059,0.142-0.059,0.178v33.199 c-0.036,0.083-0.083,0.154-0.119,0.237v2.194c1.637-0.154,3.037-0.154,4.212,0c3.002,0.391,5.339,1.743,7,4.031 c0.83,1.221,1.329,2.609,1.483,4.15c0.154,1.66-0.095,3.106-0.771,4.328c-0.202,0.32-0.629,0.913-1.305,1.778 c-0.51,0.712-0.866,1.34-1.068,1.897c-0.51,1.34-0.439,2.929,0.237,4.743c0.237,0.629,0.593,1.364,1.068,2.194 c0.51,0.913,0.914,1.6,1.186,2.075c1.697,3.284,2.575,6.853,2.61,10.73c0,4.067-0.925,7.588-2.788,10.553 c-0.356,0.557-0.866,1.363-1.542,2.43c-0.593,0.949-0.949,1.838-1.068,2.668c-0.237,1.269-0.083,2.573,0.475,3.913 c0.51,1.221,1.281,2.312,2.313,3.261c0.712,0.628,1.72,1.387,3.026,2.252c1.507,1.032,2.527,1.755,3.085,2.194 c1.72,1.446,3.109,3.249,4.153,5.395c0.368-0.641,0.7-1.269,1.008-1.897c3.797-7.387,6.431-16.149,7.89-26.263 c0.154-1.02,0.285-2.087,0.415-3.202c0.593-5.027,0.985-10.991,1.186-17.904c0.083-2.122,0.142-4.339,0.178-6.639 c0.036-0.676,0.119-1.186,0.237-1.542V424.04c-0.036-0.083-0.059-0.154-0.059-0.237v-67.881c0-0.083,0.024-0.154,0.059-0.237v-3.32 c0-0.083,0.024-0.154,0.059-0.237v-1.304c0.036-0.083,0.059-0.155,0.059-0.238v-0.474c-0.036-0.083-0.059-0.154-0.059-0.237 c-0.154-0.747-0.154-1.921,0-3.498L41.609,342.939z" class="st2"/><path d="M222.957,404.239c0.036,0.083,0.095,0.154,0.178,0.237c0.119,0.083,0.214,0.154,0.297,0.237 c0.202,0.036,0.38,0.083,0.534,0.119c0.059,0,0.095-0.036,0.118-0.06c0.072,0.024,0.131,0.048,0.178,0.06h1.424 c0.083,0,0.166-0.024,0.237-0.06c1.756,0.166,3.655,0.344,5.695,0.534c-0.355-19.493-0.557-36.235-0.593-50.214 c0-4.268-0.059-7.47-0.178-9.604c-0.154-3.118-0.534-5.608-1.127-7.47c-0.83-2.691-2.314-5.015-4.449-6.995 c-2.136-1.981-4.568-3.225-7.297-3.735c-2.764-0.475-5.481-0.06-8.127,1.245c-2.693,1.304-4.627,3.201-5.813,5.691 c-0.629,1.34-1.068,2.94-1.306,4.802c-0.118,1.103-0.201,2.81-0.237,5.098l-0.474,56.736c0.213,0.794,0.189,1.683-0.06,2.667 c2.231,0.083,4.426,0.166,6.585,0.237c0,0,0.036,0.048,0.059,0.06c0.155,0.035,0.333,0.083,0.534,0.118 c0.119,0,0.238-0.023,0.356-0.059c0.036-0.035,0.095-0.059,0.178-0.059c0.036-0.036,0.095-0.095,0.178-0.178 c0.036-0.036,0.048-0.071,0.059-0.119c0.143,0.048,0.273,0.095,0.416,0.119c0.118,0,0.237-0.024,0.356-0.059l0.237-0.119 c0.083-0.083,0.178-0.154,0.297-0.237c0-0.083,0.023-0.154,0.059-0.237c0.035-0.083,0.095-0.154,0.178-0.237v-0.178 c0-0.083,0.024-0.154,0.059-0.237v-52.763c0-0.083,0.024-0.155,0.06-0.238c0.035-0.083,0.094-0.154,0.178-0.237v-0.178 c0-0.083,0.023-0.154,0.059-0.237v-0.237c0-0.083,0.024-0.154,0.059-0.237c0.036-0.083,0.059-0.154,0.059-0.237 c0.036-0.036,0.084-0.095,0.119-0.178c0-0.083,0.024-0.154,0.059-0.237v-0.237c0-0.083,0.024-0.154,0.06-0.237 c0.035-0.036,0.059-0.095,0.059-0.178c0.036-0.083,0.083-0.154,0.119-0.237l0.118-0.237c0.036-0.083,0.06-0.155,0.06-0.238 c0.083-0.035,0.142-0.094,0.178-0.177c0-0.083,0.023-0.155,0.059-0.238c0.036-0.083,0.095-0.154,0.178-0.237 c0.036-0.083,0.083-0.154,0.119-0.237c0.083-0.035,0.154-0.095,0.237-0.178c0-0.083,0.024-0.154,0.059-0.237 c0.036-0.083,0.095-0.154,0.178-0.237c0.036-0.083,0.083-0.154,0.119-0.237c0.083-0.036,0.154-0.095,0.237-0.178 c0.083-0.083,0.178-0.154,0.297-0.237c0.118-0.083,0.237-0.154,0.356-0.237l0.237-0.237c0.083-0.083,0.178-0.143,0.296-0.178 c0.084-0.083,0.178-0.154,0.297-0.237c0.154-0.083,0.297-0.155,0.415-0.238c0.119-0.047,0.214-0.106,0.297-0.177 c0.712-0.119,1.436-0.155,2.195-0.119c0.119,0.059,0.237,0.119,0.356,0.178c0.154,0.035,0.332,0.083,0.534,0.118 c0.083,0.036,0.154,0.06,0.237,0.06c0.083,0.083,0.178,0.142,0.297,0.178c0.118,0.083,0.261,0.154,0.415,0.237 c0.154,0.035,0.32,0.095,0.474,0.178c0.084,0.083,0.178,0.154,0.297,0.237c0.036,0.083,0.083,0.154,0.119,0.237 c0.035,0.083,0.059,0.154,0.059,0.237c0.083,0.083,0.142,0.142,0.178,0.178c0.083,0.083,0.154,0.154,0.237,0.237 c0.036,0.083,0.083,0.154,0.119,0.237c0.036,0.083,0.059,0.154,0.059,0.237l0.178,0.178c0.036,0.083,0.083,0.154,0.119,0.237 l0.119,0.237c0,0.083,0.023,0.155,0.059,0.238c0,0.083,0.024,0.142,0.059,0.177c0.036,0.083,0.06,0.155,0.06,0.238v0.237 c0.083,0.083,0.142,0.154,0.178,0.237c0,0.083,0.023,0.142,0.059,0.178v0.889c0.035,0.083,0.059,0.154,0.059,0.237l0.119,0.237 c0,0.083,0.024,0.154,0.059,0.237c0,0.083,0.024,0.154,0.059,0.237v54.661c0.036,0.083,0.06,0.154,0.06,0.237v0.237 C222.839,404.061,222.922,404.156,222.957,404.239z" class="st2"/><path d="M175.618,209.845c-0.676-0.391-1.281-0.474-1.839-0.237c-0.474,0.154-0.89,0.51-1.246,1.067 c-0.711,1.15-0.771,2.253-0.178,3.32c0.19,0.356,0.451,0.629,0.772,0.83c-0.155,0.676-0.238,1.21-0.238,1.601 c0,0.439,0.083,0.806,0.238,1.126c0.154,0.273,0.439,0.51,0.83,0.712c0.712,0.32,1.282,0.332,1.72,0.059 c0.273-0.202,0.499-0.652,0.653-1.364c-0.154-0.272-0.237-0.889-0.237-1.837c0-0.083-0.024-0.166-0.06-0.238 c0.238-0.154,0.475-0.355,0.712-0.592c0.356-0.356,0.57-0.629,0.653-0.83c0.237-0.593,0.083-1.328-0.475-2.194 C176.567,210.64,176.128,210.165,175.618,209.845z" class="st2"/><path d="M171.11,171.429c0.795-0.154,1.542-0.534,2.254-1.126c0.795-0.629,1.447-1.423,1.958-2.372 c0.32-0.628,0.474-1.15,0.474-1.541c0.036-0.51-0.035-1.127-0.237-1.838l-0.237-0.83l-1.484-2.193 c-0.593-0.747-1.21-1.269-1.838-1.542c-0.511-0.237-1.341-0.356-2.492-0.356c-1.068,0-1.898,0.143-2.492,0.415 c-0.984,0.475-1.756,1.388-2.313,2.728c-0.237,0.747-0.38,1.268-0.415,1.541v1.66c0,0.865,0.023,1.387,0.059,1.541l0.83,1.779 c0.594,1.102,1.602,1.802,3.026,2.075c0.356,0.083,0.913,0.118,1.661,0.118C170.422,171.488,170.837,171.465,171.11,171.429z" class="st2"/><path d="M42.024,194.016c0.475-0.913,1.044-1.541,1.72-1.897c0.558-0.272,1.448-0.415,2.669-0.415 c0.795,0,1.365,0.06,1.721,0.178c0.439,0.202,1.186,0.771,2.254,1.719c0.831,0.83,1.863,1.72,3.085,2.668 c0.225,0.178,0.427,0.332,0.593,0.474v-1.956c0-1.15-0.036-2.253-0.059-3.32c-0.392-0.024-0.819-0.201-1.305-0.533 c-0.558-0.356-1.281-0.985-2.195-1.898c-0.949-0.912-1.697-1.541-2.254-1.897c-1.815-1.15-3.737-1.458-5.754-0.948 c-2.052,0.51-3.619,1.695-4.686,3.557c-0.629,1.15-1.044,2.585-1.246,4.328c-0.273,2.288-0.178,4.185,0.297,5.691 c0.475,1.66,1.483,3.261,3.025,4.802c3.286,3.439,7.534,5.513,12.754,6.225c0.629,0.083,1.104,0.178,1.424,0.296 c0.071,0.036,0.13,0.071,0.178,0.119l-0.059-4.684c-0.19,0.083-0.427,0.143-0.712,0.178c-0.676,0.036-1.72-0.142-3.144-0.533 c-2.1-0.558-3.536-1.269-4.331-2.135c-0.095-0.083-0.214-0.201-0.356-0.355c-0.202-0.083-0.439-0.202-0.712-0.356 c-0.439-0.273-0.747-0.569-0.949-0.889l-0.119-0.297c-0.154-0.095-0.308-0.189-0.475-0.296l-0.593-0.771l-0.831-1.541 c-0.593-1.269-0.736-2.573-0.415-3.913C41.585,195.143,41.751,194.609,42.024,194.016z" class="st2"/><path d="M128.991,404.179c0.534-0.023,1.079-0.047,1.661-0.059l0.059-0.356v-0.059 c-0.285-0.296-0.463-0.782-0.534-1.482v-0.593l-0.474-57.506c-0.036-2.288-0.119-3.995-0.238-5.098 c-0.237-1.862-0.676-3.462-1.305-4.802c-1.186-2.49-3.12-4.387-5.813-5.691c-2.646-1.305-5.363-1.72-8.128-1.245 c-2.728,0.51-5.161,1.754-7.296,3.735c-2.136,1.98-3.619,4.304-4.449,6.995c-0.594,1.862-0.973,4.352-1.127,7.47 c-0.119,2.134-0.178,5.336-0.178,9.604c-0.036,14.11-0.238,31.029-0.594,50.747c0,0.202-0.023,0.38-0.059,0.534 c0,0.119-0.024,0.225-0.059,0.296c2.159-0.213,4.212-0.426,6.169-0.652c0.012-0.023,0.012-0.071,0-0.118v-0.119 c0,0,0.107,0.071,0.178,0.119c0.154,0.035,0.332,0.083,0.534,0.118c0.119,0,0.237-0.023,0.356-0.059 c0.036-0.036,0.083-0.059,0.119-0.059c0.083-0.083,0.154-0.143,0.237-0.178c0.036-0.083,0.095-0.154,0.178-0.237 c0.036-0.036,0.083-0.095,0.119-0.178c0.035-0.083,0.059-0.154,0.059-0.237v-0.237c0.035-0.083,0.083-0.155,0.119-0.238v-53.948 c0-0.083,0.023-0.143,0.059-0.178c0.035-0.083,0.059-0.154,0.059-0.237c0.036-0.083,0.059-0.154,0.059-0.237 c0.036-0.083,0.084-0.155,0.119-0.238v-1.304l0.119-0.237c0.035-0.083,0.059-0.154,0.059-0.237V347.8 c0.036-0.083,0.083-0.154,0.119-0.237v-0.474c0.035-0.083,0.083-0.143,0.118-0.178c0.036-0.083,0.06-0.154,0.06-0.237v-0.237 c0.035-0.083,0.083-0.155,0.118-0.238c0.036-0.083,0.083-0.154,0.119-0.237c0.036-0.035,0.059-0.095,0.059-0.178 c0.083-0.083,0.143-0.154,0.178-0.237c0.036-0.083,0.083-0.154,0.119-0.237c0.119-0.083,0.213-0.154,0.297-0.237 c0.035-0.036,0.083-0.095,0.118-0.178l0.119-0.237c0.119-0.083,0.237-0.154,0.356-0.237c0.118-0.083,0.213-0.154,0.296-0.237 c0.083-0.036,0.155-0.095,0.238-0.178c0.118-0.083,0.213-0.154,0.296-0.237c0.202-0.083,0.38-0.154,0.534-0.237 c0.202-0.036,0.392-0.083,0.593-0.119c0.036-0.036,0.095-0.083,0.178-0.119c0.036-0.035,0.095-0.083,0.178-0.118 c0.202-0.083,0.38-0.154,0.534-0.237c0.238-0.083,0.451-0.154,0.653-0.237c0.261-0.036,0.498-0.072,0.712-0.119h0.059 c1.803,0.142,3.405,0.842,4.805,2.075c0.202,0.19,0.404,0.379,0.593,0.593c0.036,0.083,0.06,0.154,0.06,0.237l0.178,0.178 c0.035,0.083,0.059,0.154,0.059,0.237c0.036,0.083,0.059,0.154,0.059,0.237c0.083,0.083,0.143,0.154,0.178,0.237 c0.036,0.083,0.06,0.143,0.06,0.178v0.237c0.035,0.083,0.059,0.154,0.059,0.237c0.083,0.083,0.142,0.154,0.178,0.237v0.415 c0.036,0.083,0.059,0.155,0.059,0.238v0.237c0.036,0.083,0.095,0.154,0.178,0.237v54.897c0,0.083,0.024,0.154,0.06,0.237v0.178 c0.035,0.083,0.059,0.154,0.059,0.237l0.237,0.237c0.083,0.083,0.178,0.155,0.297,0.238c0.154,0.035,0.332,0.083,0.534,0.118 c0.118,0,0.237-0.024,0.356-0.059c0.059-0.036,0.118-0.071,0.177-0.119v0.178C125.36,404.381,127.282,404.262,128.991,404.179z" class="st2"/><path d="M25.295,249.21c-0.202,0.949-0.261,1.921-0.178,2.905c0,2.051,0.593,3.403,1.78,4.031 c0.356,0.202,0.925,0.332,1.72,0.415c2.017,0.083,3.441-0.498,4.271-1.719c0.356-0.51,0.593-1.186,0.712-2.016 c0.083-0.509,0.154-1.268,0.237-2.252c0-0.214,0.024-0.415,0.059-0.593c-0.308-0.024-0.629-0.048-0.949-0.059 c-3.381-0.155-5.932-0.427-7.652-0.83V249.21z" class="st2"/><path d="M48.965,255.731c0.475,0.392,1.127,0.676,1.958,0.83c0.949,0.083,1.815-0.094,2.61-0.533 c0.202-0.083,0.498-0.202,0.89-0.356c0.024,0,0.036-0.024,0.059-0.059v-1.245c0.083-0.32,0.178-0.617,0.297-0.889l-0.059-3.854 c-0.261,0.119-0.581,0.19-0.949,0.237c-1.803,0.214-3.761,0.344-5.873,0.415c0.012,0.19,0.012,0.38,0,0.593 c0,1.067,0.083,2.051,0.237,2.964C48.372,254.747,48.645,255.376,48.965,255.731z" class="st2"/><path d="M52.999,247.017c0.736-0.072,1.317-0.048,1.72,0.059l-0.356-29.82c-1.151,1.458-2.563,2.739-4.212,3.853 c-2.848,1.897-5.968,3.048-9.373,3.439c-1.151,0.118-2.753,0.178-4.805,0.178c-2.29,0-3.915,0.035-4.864,0.118 c-3.915,0.273-6.858,1.388-8.839,3.32c-1.981,1.933-3.109,4.66-3.381,8.181c-0.202,2.692,0.237,4.826,1.305,6.403 c1.032,1.423,2.492,2.431,4.39,3.024c1.032,0.355,2.824,0.652,5.398,0.889C38.761,247.408,46.438,247.526,52.999,247.017z" class="st2"/><path d="M38.702,256.265c0.154,0.095,0.309,0.178,0.475,0.237h2.669c0.558-0.166,1.056-0.462,1.483-0.889 c1.186-1.186,1.744-2.727,1.661-4.624c-0.012-0.226-0.036-0.451-0.059-0.652h-1.542c-1.495-0.024-3.714-0.107-6.644-0.238 c0.036,0.273,0.036,0.581,0,0.949C36.59,253.656,37.243,255.399,38.702,256.265z" class="st2"/><path d="M197.686,227.927v-1.541l0.119-0.238v-0.177c0-0.083,0.023-0.154,0.059-0.237c0-0.083,0.024-0.155,0.059-0.238 c0.036-0.083,0.083-0.142,0.119-0.177c0.036-0.475,0.392-0.795,1.068-0.949c0.356-0.083,0.89,0,1.601,0.237 c0.238,0.083,2.231,0.889,5.992,2.431c2.409,1.031,4.485,1.565,6.229,1.6c1.459,0.083,2.847-0.118,4.153-0.592 c1.269-0.475,2.455-1.15,3.559-2.016c2.254-1.624,3.856-3.652,4.805-6.106c1.032-2.692,1.068-5.253,0.118-7.707 c-0.51-1.423-1.423-2.81-2.728-4.15c-0.831-0.949-2.077-2.099-3.738-3.439l-5.813-4.802c-0.831-0.676-1.21-1.28-1.127-1.838v-0.177 c-0.083-0.558,0.296-1.162,1.127-1.838l5.813-4.802c1.661-1.34,2.907-2.49,3.738-3.439c1.305-1.34,2.218-2.727,2.728-4.15 c0.95-2.454,0.914-5.015-0.118-7.707c-0.949-2.454-2.551-4.482-4.805-6.106c-1.104-0.865-2.29-1.541-3.559-2.016 c-1.306-0.474-2.694-0.675-4.153-0.592c-1.744,0.035-3.82,0.569-6.229,1.6c-3.761,1.542-5.754,2.348-5.992,2.431 c-0.711,0.237-1.245,0.32-1.601,0.237c-0.676-0.154-1.032-0.474-1.068-0.949c-0.036-0.035-0.083-0.094-0.119-0.177 c-0.035-0.083-0.059-0.155-0.059-0.238c-0.036-0.083-0.059-0.154-0.059-0.237v-0.177c-0.036-0.083-0.083-0.155-0.119-0.238v-1.541 c-0.036,0-0.059,0.024-0.059,0.059c-0.154-1.067-0.238-2.276-0.238-3.616c0-1.032,0.024-2.573,0.06-4.624 c-0.083-4.624-0.748-9.035-2.017-13.221c-0.558-1.778-1.222-3.462-2.017-5.039c-1.982-3.83-4.924-6.877-8.839-9.13 c-3.88-2.288-7.973-3.379-12.28-3.26c-1.068,0-1.78-0.083-2.136-0.237c-0.355,0.154-1.067,0.237-2.135,0.237 c-4.307-0.119-8.4,0.972-12.28,3.26c-3.915,2.253-6.857,5.3-8.839,9.13c-0.795,1.577-1.459,3.261-2.017,5.039 c-1.269,4.186-1.934,8.597-2.017,13.221c0.036,2.051,0.06,3.592,0.06,4.624c0,1.34-0.084,2.549-0.238,3.616 c0-0.035-0.059-0.059-0.059-0.059v1.541c-0.036,0.083-0.083,0.155-0.119,0.238v0.177c0,0.083-0.023,0.154-0.059,0.237 c0,0.083-0.024,0.155-0.059,0.238c-0.036,0.083-0.083,0.142-0.119,0.177c-0.036,0.475-0.392,0.795-1.068,0.949 c-0.356,0.083-0.89,0-1.602-0.237c-0.237-0.083-2.23-0.889-5.991-2.431c-2.409-1.031-4.485-1.565-6.229-1.6 c-1.459-0.083-2.847,0.118-4.153,0.592c-1.269,0.475-2.455,1.151-3.559,2.016c-2.254,1.624-3.856,3.652-4.805,6.106 c-1.032,2.692-1.068,5.253-0.119,7.707c0.511,1.423,1.424,2.81,2.729,4.15c0.831,0.949,2.077,2.099,3.738,3.439l5.813,4.802 c0.831,0.676,1.21,1.28,1.127,1.838v0.177c0.083,0.558-0.296,1.162-1.127,1.838l-5.813,4.802c-1.661,1.34-2.907,2.49-3.738,3.439 c-1.305,1.34-2.218,2.727-2.729,4.15c-0.949,2.454-0.913,5.015,0.119,7.707c0.949,2.454,2.551,4.482,4.805,6.106 c1.104,0.866,2.29,1.541,3.559,2.016c1.306,0.474,2.694,0.675,4.153,0.592c1.744-0.035,3.82-0.569,6.229-1.6 c3.761-1.542,5.754-2.348,5.991-2.431c0.712-0.237,1.246-0.32,1.602-0.237c0.676,0.154,1.032,0.474,1.068,0.949 c0.036,0.035,0.083,0.094,0.119,0.177c0.035,0.083,0.059,0.155,0.059,0.238c0.036,0.083,0.059,0.154,0.059,0.237v0.177l0.119,0.238 v1.541c0.036,0,0.059-0.024,0.059-0.059c0.154,1.067,0.238,2.276,0.238,3.616c0,1.032-0.024,2.573-0.06,4.624 c0.083,4.624,0.748,9.035,2.017,13.221c0.558,1.778,1.222,3.462,2.017,5.039c1.982,3.83,4.924,6.877,8.839,9.13 c3.88,2.288,7.973,3.379,12.28,3.26c1.068,0,1.78,0.083,2.135,0.237c0.356-0.154,1.068-0.237,2.136-0.237 c4.307,0.119,8.4-0.972,12.28-3.26c3.915-2.253,6.857-5.3,8.839-9.13c0.795-1.577,1.459-3.261,2.017-5.039 c1.269-4.186,1.934-8.597,2.017-13.221c-0.036-2.051-0.06-3.592-0.06-4.624c0-1.34,0.084-2.549,0.238-3.616 C197.627,227.903,197.686,227.927,197.686,227.927z M209.313,175.698c0.593-0.392,1.21-0.653,1.839-0.771 c1.068-0.154,2.456,0.32,4.153,1.423c0.985,0.711,1.685,1.422,2.076,2.134c0.237,0.593,0.392,1.34,0.475,2.253 c0.083,1.577-0.155,2.762-0.712,3.557c-0.475,0.676-1.246,1.185-2.314,1.541c-1.981,0.676-3.773,0.569-5.398-0.296 c-0.866-0.475-1.542-1.15-2.017-2.016c-0.51-0.865-0.771-1.814-0.771-2.846C206.644,178.626,207.534,176.966,209.313,175.698z M207.415,212.276c0.475-0.866,1.151-1.541,2.017-2.016c1.625-0.865,3.417-0.972,5.398-0.296c1.068,0.356,1.839,0.865,2.314,1.541 c0.557,0.795,0.795,1.98,0.712,3.557c-0.083,0.913-0.238,1.66-0.475,2.253c-0.391,0.712-1.091,1.423-2.076,2.134 c-1.697,1.103-3.085,1.577-4.153,1.423c-0.629-0.118-1.246-0.379-1.839-0.77c-1.779-1.269-2.669-2.929-2.669-4.98 C206.644,214.09,206.905,213.142,207.415,212.276z M131.008,220.102c-0.593,0.391-1.21,0.652-1.839,0.77 c-1.068,0.154-2.456-0.32-4.153-1.423c-0.985-0.711-1.685-1.422-2.076-2.134c-0.237-0.593-0.392-1.34-0.475-2.253 c-0.083-1.577,0.155-2.762,0.712-3.557c0.475-0.676,1.246-1.185,2.314-1.541c1.981-0.676,3.773-0.569,5.398,0.296 c0.866,0.475,1.542,1.15,2.017,2.016c0.51,0.866,0.771,1.814,0.771,2.846C133.677,217.173,132.787,218.833,131.008,220.102z M132.906,183.523c-0.475,0.866-1.151,1.541-2.017,2.016c-1.625,0.865-3.417,0.972-5.398,0.296 c-1.068-0.356-1.839-0.865-2.314-1.541c-0.557-0.795-0.795-1.98-0.712-3.557c0.083-0.913,0.238-1.66,0.475-2.253 c0.391-0.712,1.091-1.423,2.076-2.134c1.697-1.103,3.085-1.577,4.153-1.423c0.629,0.118,1.246,0.379,1.839,0.771 c1.779,1.268,2.669,2.928,2.669,4.979C133.677,181.709,133.416,182.658,132.906,183.523z M187.601,164.196v3.142 c0,0.083,0.024,0.155,0.06,0.238v14.643c0.035,0.083,0.059,0.154,0.059,0.237v51.459c0,0.083-0.059,0.178-0.059,0.178v3.142 c-0.036,0.083-0.06,0.154-0.06,0.237v0.296c0.024,0.143,0.048,0.285,0.06,0.415c0.118,2.81-0.261,5.431-1.127,7.885 c-1.46,4.186-3.88,7.15-7.238,8.893c-3.239,1.66-7.51,2.015-12.813,1.067c-2.884-0.51-5.102-1.281-6.645-2.312 c-1.103-0.747-2.218-1.814-3.322-3.202c-1.186-1.304-2.076-2.608-2.669-3.912c-0.51-1.186-0.926-2.87-1.246-5.04 c-0.415-2.94-0.463-5.347-0.119-7.232v-0.593c-0.035-0.083-0.083-0.154-0.118-0.237v-0.652c0-0.083-0.024-0.154-0.06-0.237v-2.668 c-0.035-0.036-0.059-0.095-0.059-0.178v-57.269c0-0.035,0.024-0.095,0.059-0.178v-6.462c0.036-0.083,0.06-0.154,0.06-0.237v-2.015 c0.035-0.083,0.083-0.155,0.118-0.238v-0.889c0-0.035,0.024-0.095,0.06-0.178c0-0.083,0.023-0.154,0.059-0.237 s0.059-0.154,0.059-0.237c0.036-0.083,0.083-0.154,0.119-0.237c0-0.036,0.024-0.095,0.059-0.178c0-0.083,0.024-0.154,0.06-0.237 c0.023-1.743,0.107-3.699,0.237-5.869c0.237-2.253,0.558-3.878,0.949-4.862c0.356-1.031,0.914-2.015,1.661-2.964 c0.676-0.913,1.424-1.719,2.254-2.43c2.255-1.933,5.007-3.237,8.246-3.913c2.931-0.593,6.016-0.617,9.255-0.06 c1.862,0.356,3.298,0.866,4.33,1.542c0.748,0.474,1.72,1.423,2.907,2.845c1.934,2.336,3.18,4.305,3.737,5.929 c0.237,0.557,0.475,1.423,0.712,2.608c0.629,3.356,0.795,6.285,0.475,8.775c-0.024,0.379-0.083,0.675-0.178,0.889v0.356 C187.518,164.054,187.566,164.113,187.601,164.196z" class="st2"/><path d="M267.924,283.358c0.368-0.154,0.842-0.249,1.423-0.297c0.712-0.083,1.246-0.094,1.602-0.059l2.314,0.059v-28.1 c0.035-0.154,0.083-0.32,0.118-0.475c-0.106-2.478-0.189-5.406-0.237-8.774c-1.815-1.897-3.714-3.735-5.695-5.513v2.075 c0,0,0.024,0.095,0.06,0.178v28.99l0.177,0.533c0.119,0.392,0.155,0.973,0.119,1.72c-0.035,0.794-0.024,1.363,0.059,1.719 l0.178,0.771l0.06,0.948l-0.06,4.98C268.042,282.647,268.007,283.061,267.924,283.358z" class="st2"/><path d="M292.78,278.615c0.023,0.059,0.035,0.119,0.059,0.178v0.474c-0.035,0.083-0.083,0.154-0.118,0.237v2.016 c0,0.083-0.024,0.142-0.06,0.178v17.607c0.036,0.083,0.06,0.155,0.06,0.238v0.592c0.201,0.095,0.332,0.155,0.415,0.178 c0.237,0.036,0.652,0.06,1.245,0.06c0.285,0,0.641-0.036,1.068-0.119v-1.008c0-0.083,0.024-0.154,0.06-0.237v-17.133 c-0.036-0.083-0.06-0.154-0.06-0.237v-2.016c0,0-0.083-0.095-0.118-0.178v-0.711c0,0-0.024-0.095-0.06-0.178v-0.237 c-0.035-0.083-0.059-0.154-0.059-0.237v-0.238c0,0-0.083-0.094-0.119-0.177v-0.238c-0.035-0.083-0.083-0.154-0.118-0.237 c-0.036-0.083-0.06-0.154-0.06-0.237c-0.118-0.035-0.213-0.095-0.296-0.178c-1.151-5.62-3.844-11.762-8.068-18.437 c-2.717-4.245-5.671-8.193-8.839-11.857c-0.522-0.581-1.056-1.174-1.602-1.778c-0.083,0.841-0.119,1.493-0.119,1.956 c0,0.676,0.036,1.446,0.119,2.312c0.724,0.877,1.436,1.767,2.136,2.668c0.807,1.019,1.601,2.075,2.373,3.142 c0.486,0.676,0.961,1.34,1.423,2.016v0.237c0,0.083-0.023,0.142-0.059,0.178v1.363c-0.035,0.083-0.059,0.154-0.059,0.237v2.431 c-0.036,0.083-0.083,0.154-0.119,0.237v5.336c0,0.083-0.024,0.154-0.059,0.237v16.184c0.498,0.202,0.973,0.404,1.424,0.593 c0.355,0.131,0.771,0.202,1.245,0.237v-16.955c0-0.083-0.023-0.154-0.059-0.237v-5.336c-0.036-0.083-0.059-0.154-0.059-0.237 v-1.008C287.856,266.082,290.692,272.189,292.78,278.615z" class="st2"/><path d="M250.839,523.519c2.61-3.759,4.271-6.249,4.983-7.47c1.269-2.051,2.669-4.897,4.212-8.537 c3.915-9.284,5.896-17.465,5.932-24.544c0.036-5.845-1.21-12.07-3.737-18.674c-1.899-5.016-4.805-10.814-8.721-17.37 c-0.273-0.498-0.474-0.937-0.593-1.305c-3.227-0.367-6.015-0.687-8.364-0.948c-10.999-1.222-20.585-2.052-28.772-2.49 c-0.474-0.024-0.973-0.071-1.483-0.119c8.032,11.181,12.588,21.663,13.644,31.421c1.222,11.703-1.981,24.01-9.61,36.934 c-1.981,3.284-3.796,5.905-5.457,7.885c-1.27,1.541-3.477,3.889-6.644,7.055c-2.967,2.928-5.138,5.3-6.526,7.114 c-1.863,2.442-3.215,4.956-4.117,7.529h48.205c0.333-3.118,1.116-6.083,2.421-8.893 C247.161,529.056,248.703,526.519,250.839,523.519z" class="st2"/><path d="M334.483,488.363c-1.423,1.743-2.254,3.7-2.491,5.869c-0.083,0.913-0.083,2.016,0,3.32 c0.119,1.459,0.202,2.55,0.237,3.261c0.237,2.692-0.119,4.826-1.068,6.403c-0.593,0.984-1.459,1.861-2.61,2.608 c-1.507,1.032-3.168,1.565-4.983,1.601c-1.898,0.083-3.524-0.415-4.864-1.482c-0.914-0.712-1.744-1.743-2.492-3.083 c-1.424-2.371-2.408-4.956-2.966-7.766c-0.593-2.763-0.688-5.537-0.297-8.3c0.748-5.691,3.168-10.612,7.238-14.762 c1.815-1.814,3.595-3.059,5.339-3.735c3.12-1.268,6.193-1.102,9.195,0.474c0.101,0.049,0.182,0.108,0.279,0.159v-46.117 c-1.718-0.023-3.434-0.046-5.156-0.046c-0.866,0.083-1.542,0.154-2.017,0.237c-0.51,0.083-0.866,0.095-1.067,0.059 c-1.27,0.51-2.017,0.807-2.255,0.89c-1.222,0.592-2.218,1.268-2.966,2.015c-0.593,0.593-1.162,1.399-1.72,2.431 c-0.475,0.794-0.795,1.565-0.949,2.312c-0.119,0.628-0.178,1.565-0.178,2.786c0,2.253,0.379,4.032,1.127,5.336h0.593 c0.119,0.154,0.237,0.296,0.356,0.415h0.178c0.119,0,0.214,0.035,0.297,0.118c0.035,0.036,0.059,0.095,0.059,0.178 c0.036,0.036,0.059,0.095,0.059,0.178c0.083,0.083,0.155,0.154,0.238,0.237c0,0.083-0.024,0.154-0.06,0.237 c-0.035,0.083-0.095,0.155-0.178,0.238c0,0.035-0.023,0.094-0.059,0.177c0,0.083-0.024,0.155-0.059,0.238v0.652 c-0.036,0.083-0.06,0.154-0.06,0.237c-0.083,0.083-0.142,0.154-0.178,0.237v0.356l-0.296,0.237c-0.51,0.628-0.89,1.577-1.127,2.845 l-0.772,3.676l0.06,1.186c0.035,0.355,0.071,0.711,0.118,1.067c0.107,0.071,0.214,0.142,0.297,0.237 c0.154,0.154,0.297,0.32,0.415,0.474c0.143,0.083,0.285,0.19,0.416,0.297h-0.89c0.51,1.648,1.4,3.118,2.669,4.387 c0.593,0.593,0.926,0.948,1.009,1.067c0.154,0.273,0.261,0.533,0.296,0.771c0.154,0.083,0.273,0.213,0.356,0.415 c0.356,0.711-0.083,1.458-1.305,2.252c-3.405,2.289-6.383,5.004-8.958,8.122c-0.866,1.079-1.684,2.182-2.432,3.32 c-1.435,2.265-2.598,4.636-3.5,7.114c-1.424,3.878-2.112,7.826-2.076,11.857c0.036,4.186,0.854,8.122,2.432,11.798 c0.51,1.269,1.282,2.786,2.314,4.565c1.578,2.81,2.408,4.292,2.491,4.446c3.121,5.727,4.295,10.695,3.5,14.88 c-0.439,2.372-1.566,4.945-3.381,7.707c-0.202,0.332-0.404,0.641-0.617,0.949H335v-52.237 C334.746,488.048,334.568,488.253,334.483,488.363z" class="st2"/><path d="M233.635,5.433c1.151,2.288,1.685,4.624,1.602,6.996c-0.083,2.608-0.89,4.743-2.432,6.403 c-0.914,0.984-2.231,1.873-3.975,2.668c-2.017,0.83-3.523,1.482-4.508,1.956c-4.509,2.17-8.068,5.608-10.678,10.315 c-2.338,4.185-3.654,8.976-3.975,14.347c-0.035,2.336-0.083,4.067-0.119,5.217c-0.059,1.601-0.177,2.988-0.355,4.15 c0.735,0.806,1.411,1.636,2.017,2.49c0.605,0.842,1.162,1.707,1.661,2.609c1.815,3.356,2.823,6.901,3.025,10.612 c0.083,1.696-0.095,3.178-0.534,4.446c-0.391,1.269-1.424,2.929-3.085,4.98c-0.379,0.451-0.759,0.866-1.127,1.245 c1.329,0.51,2.516,1.067,3.56,1.66c0.308-0.13,0.664-0.249,1.067-0.356c3.275-0.901,6.087-1.458,8.424-1.66 c-0.201-0.913-0.296-2.158-0.296-3.735l-0.178-17.607c-0.036-2.964,0.023-5.241,0.178-6.818c0.272-2.454,0.854-4.541,1.72-6.284 c1.269-2.573,3.227-4.589,5.873-6.047c2.574-1.387,5.303-1.992,8.186-1.838c1.863,0.083,3.477,0.51,4.865,1.304 c1.032,0.557,1.934,1.304,2.729,2.253c0.628,0.747,1.21,1.624,1.72,2.609c0.154-0.51,0.38-0.972,0.652-1.364 c0.202-0.273,0.392-0.534,0.594-0.771c0.557-0.593,1.21-1.15,1.957-1.66c1.661-1.032,3.738-1.624,6.229-1.779 c1.388-0.202,2.705-0.119,3.975,0.237c2.29,0.557,4.307,1.862,6.051,3.913c1.661,1.98,2.764,4.245,3.322,6.818 c0.474,1.98,0.629,4.766,0.474,8.359l-0.534,24.425c2.456,0.771,4.722,1.66,6.822,2.668c0.238-2.193,1.009-4.174,2.314-5.929 c0.51-0.676,1.341-1.719,2.492-3.142c0.866-1.221,1.269-2.395,1.186-3.498c-0.036-0.83-0.392-1.755-1.068-2.786 c-0.391-0.557-0.985-1.423-1.78-2.609c-0.676-1.304-0.949-2.727-0.83-4.268c0.083-1.541,0.558-2.929,1.424-4.15 c0.925-1.245,2.135-2.217,3.618-2.905c0.392-0.474,0.807-0.925,1.246-1.364c-0.154-1.186-0.273-2.585-0.356-4.209 c-0.035-1.15-0.083-2.881-0.118-5.217c-0.321-5.371-1.638-10.161-3.975-14.347c-2.61-4.707-6.17-8.146-10.678-10.315 c-0.985-0.474-2.492-1.126-4.508-1.956c-1.745-0.794-3.062-1.684-3.975-2.668c-1.543-1.66-2.349-3.794-2.432-6.403 c-0.083-2.371,0.45-4.707,1.601-6.996c0.083-0.154,0.594-1.091,1.543-2.786c0.564-1.032,0.986-1.903,1.265-2.646h-9.546 c-0.055,0.28-0.118,0.567-0.202,0.868l-0.534,1.541c-0.392,0.913-0.985,1.684-1.78,2.312c-0.712,0.557-1.424,0.913-2.136,1.067 c-0.355,0.083-0.925,0.119-1.72,0.119c-1.305,0-2.278-0.083-2.907-0.237c-0.629-0.154-1.281-0.474-1.957-0.949 c-0.511-0.32-0.973-0.676-1.365-1.067c-0.971-1.064-1.492-2.288-1.567-3.654h-10.969c0.28,0.743,0.701,1.615,1.265,2.646 C233.042,4.342,233.552,5.279,233.635,5.433z M241.822,24.759c0.202-1.933,1.044-3.498,2.551-4.683 c0.237-0.201,0.735-0.534,1.483-1.008c0.439-0.273,0.735-0.439,0.89-0.474c0.201-0.035,0.51-0.083,0.949-0.118 c0.32-0.083,0.629-0.142,0.949-0.178c0.593-0.083,1.127-0.059,1.602,0.059c0.201,0,0.474,0.059,0.83,0.178 c0.237,0.083,0.57,0.154,1.009,0.237c0.356,0.083,0.628,0.202,0.83,0.356c0.036,0.036,0.178,0.261,0.415,0.652 c0.273,0.237,0.558,0.51,0.831,0.83c1.186,1.34,1.839,2.514,1.958,3.498c0.035,0.747-0.083,1.624-0.356,2.609l-0.534,1.541 c-0.392,0.913-0.985,1.684-1.78,2.312c-0.712,0.557-1.424,0.913-2.136,1.067c-0.355,0.083-0.925,0.119-1.72,0.119 c-1.305,0-2.278-0.083-2.907-0.237c-0.629-0.154-1.281-0.474-1.957-0.948c-0.511-0.32-0.973-0.676-1.365-1.067 C242.142,28.162,241.62,26.574,241.822,24.759z" class="st2"/><path d="M156.16,523.578c1.816-1.66,4.604-4.126,8.365-7.41c6.169-5.775,10.939-12.414,14.297-19.92 c3.476-7.908,4.983-15.853,4.508-23.832c-0.558-9.877-4.153-19.955-10.797-30.235c-0.142-0.249-0.261-0.486-0.356-0.712 c-12.386,0.024-21.047,0.095-25.983,0.237c-5.232,0.143-10.452,0.344-15.661,0.593c3.915,5.253,6.787,10.091,8.602,14.525 c2.491,6.047,3.417,11.833,2.788,17.37c-0.356,2.929-1.341,6.664-2.966,11.205c-1.341,3.996-2.693,7.268-4.034,9.841 c-2.136,4.115-5.28,8.3-9.432,12.569c-1.982,2.015-5.897,5.596-11.746,10.73l-3.915,3.676c-4.675,4.837-8.044,10.766-10.121,17.785 h45.714c0.688-2.917,1.792-5.656,3.381-8.181C150.43,529.246,152.874,526.507,156.16,523.578z" class="st2"/><path d="M253.39,253.953v4.031c0.023,0.249,0.023,0.522,0,0.83v1.838c-0.036,0.083-0.06,0.154-0.06,0.237v0.178 c-0.035,0.071-0.071,0.13-0.118,0.178c-0.024,0.569-0.048,1.043-0.06,1.423c-0.118,1.506-0.035,2.762,0.238,3.794 c4.912,0.083,8.768,0.332,11.568,0.771v-24.781c0.035-0.083,0.083-0.143,0.118-0.178v-2.253c0-0.083,0.024-0.154,0.06-0.237v-0.889 c0-0.083,0.023-0.154,0.059-0.237v-0.356c-1.08-0.866-2.195-1.708-3.322-2.549c-3.085-2.277-5.932-3.925-8.543-4.921v0.415 c0,0.083,0.024,0.154,0.06,0.237v2.016c0.035,0.083,0.059,0.154,0.059,0.237v20.038C253.449,253.775,253.425,253.87,253.39,253.953 z" class="st2"/><path d="M47.838,532.174c0-0.948,0.036-1.636,0.119-2.074l0.237-1.186c0.32-0.83,0.676-1.601,1.068-2.312 c0.273-0.439,0.629-0.866,1.068-1.305c1.21-1.09,2.586-1.588,4.152-1.482v-5.928h-9.195c-1.542-0.036-3.108-0.083-4.686-0.119 h-0.89v7.055c0.036,0.083,0.059,0.154,0.059,0.237v6.522c0.036,0.083,0.083,0.154,0.119,0.237V540h8.008 C47.826,537.142,47.802,534.534,47.838,532.174z" class="st2"/><path d="M251.017,233.263v-1.779c0.035-0.083,0.059-0.154,0.059-0.237v-0.889c0.036-0.083,0.059-0.154,0.059-0.237 c-0.498-0.119-0.996-0.226-1.483-0.297c-2.372-0.356-4.65-0.118-6.822,0.712c-2.337,0.83-4.069,2.169-5.22,4.031 c-0.747,1.221-1.269,2.703-1.542,4.446c-0.202,1.103-0.333,2.692-0.416,4.743l-0.296,9.9c-0.024,0.332-0.071,0.605-0.119,0.83 c1.246-0.059,2.764,0.036,4.568,0.297l11.034,1.186h0.178v-1.779c-0.036-0.083-0.06-0.154-0.06-0.237V233.5 C250.957,233.417,250.981,233.346,251.017,233.263z" class="st2"/><path d="M24.702,537.688c0.831-0.83,2.041-1.387,3.619-1.66c0.534-0.142,0.997-0.178,1.365-0.119v-13.694h-0.012 c-0.308,0.178-0.605,0.201-0.89,0.059c-0.273-0.083-0.534-0.32-0.771-0.711c-0.237-0.439-0.439-0.747-0.593-0.949 c-0.712-1.067-1.934-1.399-3.678-1.008c-0.439,0.083-1.092,0.273-1.958,0.593c-0.866,0.32-1.518,0.51-1.957,0.593 c-1.388,0.237-2.753-0.024-4.093-0.771c-1.305-0.747-2.195-1.778-2.669-3.083c-0.32-0.83-0.51-2.454-0.593-4.861 c-0.083-2.099-0.475-3.616-1.186-4.565c-0.558-0.794-1.329-1.363-2.314-1.719c-0.985-0.356-1.981-0.439-2.966-0.237 c-1.981,0.438-3.464,1.636-4.449,3.616c-0.475,1.032-0.854,2.869-1.127,5.514c-0.109,0.965-0.253,1.825-0.427,2.588V540h0.688 c-0.119-1.138-0.107-2.692,0.035-4.743c0.083-0.984,0.178-1.719,0.297-2.193c0.273-1.506,0.973-2.87,2.076-4.091 c0.629-0.628,1.222-1.043,1.78-1.245c0.154-0.035,0.712-0.118,1.661-0.237c1.424,0,2.432,0.154,3.025,0.474 c0.439,0.202,0.866,0.51,1.305,0.949s0.795,0.913,1.068,1.423c0.51,0.865,0.771,2.371,0.771,4.505L12.672,540h10.749 c0.083-0.237,0.166-0.474,0.273-0.711C23.931,538.731,24.263,538.198,24.702,537.688z M8.507,515.338 c-0.439,0.628-0.949,1.008-1.542,1.126c-0.795,0.154-1.364-0.059-1.72-0.652c-0.119-0.154-0.214-0.451-0.297-0.889 c0-0.593,0.024-0.949,0.059-1.067c0.036-0.273,0.178-0.617,0.415-1.008c0.51-0.747,1.103-1.067,1.78-0.949 c0.439,0.083,0.771,0.261,1.008,0.534c0.32,0.237,0.534,0.51,0.653,0.83C9.136,513.939,9.017,514.626,8.507,515.338z M22.922,531.582c-0.237,0.118-0.629,0.177-1.186,0.177l-1.305-0.177c-0.392-0.119-0.676-0.297-0.831-0.534l-0.237-0.652 c-0.083-0.794,0.119-1.482,0.593-2.075c0.558-0.628,1.21-0.913,1.958-0.83c0.392,0.083,0.676,0.178,0.831,0.296 c0.083,0.083,0.273,0.321,0.593,0.712c0.237,0.557,0.356,1.126,0.356,1.719C23.611,530.846,23.362,531.309,22.922,531.582z" class="st2"/><path d="M36.863,531.463v-6.581c0,0,0.024-0.094,0.059-0.177v-8.182c0.036-0.083,0.059-0.142,0.059-0.178 c0.036-0.083,0.083-0.154,0.119-0.237v-0.059c0.629-0.273,1.281-0.533,1.958-0.771c0.036-0.035,0.095-0.059,0.178-0.059h0.059 v-0.059c0.237-0.083,0.498-0.154,0.771-0.237l0.475,0.118h2.254c0,0-0.083,0.083-0.119,0.119h2.61v-0.059h9.195v-3.973 c-0.024-0.118-0.047-0.26-0.059-0.415l-0.356-4.09c0.036-0.593,0.178-1.459,0.415-2.609v-55.608 c-0.047-0.214-0.095-0.451-0.119-0.712c-0.071-0.83-0.036-1.849,0.119-3.083v-110.98c-3.797,0.391-6.525,1.956-8.186,4.684 c-0.32,0.592-0.617,1.268-0.89,2.015c-0.831,2.217-1.459,5.134-1.898,8.774c0,0.154-0.024,0.297-0.059,0.415v1.186 c0,0.083,0.024,0.154,0.059,0.237v1.364c0.036,0.083,0.059,0.142,0.059,0.178v3.379c0.036,0.083,0.083,0.154,0.119,0.237v66.339 c-0.036,0.083-0.083,0.142-0.119,0.178l0.119,0.237v0.889c-0.036,0.083-0.083,0.154-0.119,0.237v26.856h-0.059 c0,0-0.059,0.024-0.059,0.06c-0.036,1.743-0.083,3.497-0.119,5.276c-0.154,4.185-0.32,7.316-0.475,9.367 c-0.166,1.921-0.38,3.818-0.652,5.691c-0.914,6.213-2.42,12.296-4.508,18.26c-1.72,4.861-3.797,9.497-6.229,13.932 c0.771,2.655,0.973,5.347,0.593,8.062v10.138l0.119,0.237V540h4.568v-8.359C36.745,531.641,36.828,531.546,36.863,531.463z" class="st2"/><path d="M59.465,146.707c0.154-0.154,0.297-0.296,0.415-0.415c-0.036-0.154-0.095-0.296-0.178-0.415 c0.202-0.391,0.356-0.794,0.475-1.185c0.119-0.51,0.261-0.913,0.415-1.186c0.202-0.391,0.38-0.676,0.534-0.83 c0.059-0.047,0.119-0.083,0.178-0.118c0.059-0.285,0.119-0.593,0.178-0.949c0.356-1.577,1.091-3.415,2.195-5.513 c0.629-1.186,1.578-2.941,2.848-5.277c0.391-0.747,0.973-1.861,1.72-3.32c0.676-1.185,1.922-2.881,3.737-5.098 c1.815-2.17,3.061-3.877,3.737-5.099v-0.059c-0.154-0.284-0.214-0.664-0.178-1.126c0-0.356,0.059-0.866,0.178-1.542 c0.119-1.268-0.261-2.454-1.127-3.557c-0.795-1.15-1.815-1.897-3.085-2.253c-2.29-0.794-4.805-0.533-7.534,0.771 c-1.341,0.629-2.29,0.735-2.848,0.297c-0.154-0.119-0.332-0.38-0.534-0.771c-0.154-0.32-0.297-0.735-0.415-1.245v-0.059 c0.119-0.392,0.237-0.735,0.356-1.008c-0.32-0.154-0.676-0.474-1.068-0.949c-0.866-0.984-1.922-1.719-3.144-2.193 c-1.269-0.51-2.527-0.688-3.797-0.534c-1.305,0.237-2.492,0.795-3.559,1.66c-1.068,0.866-1.756,1.874-2.076,3.024v0.059 c-0.119,0.51-0.261,0.925-0.415,1.245c-0.202,0.391-0.38,0.652-0.534,0.771c-0.558,0.438-1.507,0.332-2.847-0.297 c-2.729-1.304-5.244-1.565-7.534-0.771c-1.27,0.356-2.29,1.103-3.085,2.253c-0.866,1.103-1.246,2.289-1.127,3.557 c0.119,0.676,0.178,1.186,0.178,1.542c0.036,0.593-0.083,1.043-0.356,1.363c-0.083,0.083-0.202,0.178-0.356,0.297 c-0.32,0.118-0.748,0.154-1.305,0.118c-0.356-0.035-0.949-0.178-1.78-0.415c-1.222-0.237-2.432,0.095-3.619,1.008 c-0.866,0.593-1.697,1.541-2.492,2.846c-0.558,0.913-0.925,1.755-1.127,2.549c-0.273,1.577,0.083,3.106,1.068,4.565 c0.949,1.387,2.171,2.336,3.678,2.846c0.356,0.035,0.831,0.213,1.424,0.533c0.676,0.202,1.4,0.332,2.195,0.415h1.602 c0.629,0.202,1.044,0.498,1.246,0.889c0.119,0.237,0.142,0.593,0.059,1.067c-0.154,0.51-0.261,0.89-0.297,1.127v0.296 c0.083,0.237,0.095,0.498,0.059,0.771c0,0.237-0.024,0.51-0.059,0.83v0.059c0,0.475-0.035,0.866-0.119,1.186 c0,1.067,0.38,2.099,1.127,3.083c0.795,1.102,1.815,1.861,3.085,2.253c2.29,0.794,4.805,0.533,7.534-0.771 c1.341-0.629,2.29-0.747,2.847-0.356c0.154,0.154,0.332,0.439,0.534,0.83c0.154,0.273,0.297,0.676,0.415,1.186 c0.119,0.391,0.273,0.794,0.475,1.185c0.356,0.747,0.89,1.4,1.602,1.957c1.068,0.865,2.254,1.399,3.559,1.601 c1.27,0.201,2.527,0.023,3.797-0.534C57.543,148.427,58.599,147.692,59.465,146.707z" class="st2"/><path d="M271.483,162.774c-0.012-0.048-0.024-0.107-0.059-0.178c-0.107-0.226-0.19-0.558-0.238-1.008 c-0.035-0.38-0.071-0.759-0.118-1.127c-0.095-0.723-0.214-1.529-0.356-2.43c-2.409-10.671-6.561-20.75-12.458-30.235 c-6.49-10.47-14.51-19.363-24.085-26.678c-1.649-1.221-4.105-2.941-7.356-5.158c-0.296-0.201-0.605-0.427-0.949-0.652 c-2.919-1.968-5.256-3.474-7-4.506c-0.261-0.142-0.522-0.273-0.771-0.415c-1.234-0.688-2.539-1.363-3.915-2.016 c-0.083-0.024-0.178-0.071-0.297-0.118c-0.961-0.451-1.969-0.877-3.025-1.304c-15.211-4.778-30.753-7.126-46.628-7.055 c-16.503,0.071-32.141,2.775-46.924,8.122c-1.649,0.747-3.203,1.541-4.686,2.371c-1.78,0.984-4.366,2.632-7.771,4.921 c-3.714,2.526-6.49,4.47-8.306,5.81c-9.575,7.315-17.595,16.208-24.085,26.678c-5.885,9.497-10.061,19.564-12.517,30.175 c-0.297,2.099-0.534,3.7-0.712,4.803c-1.898,11.655-2.586,27.531-2.076,47.605c0.51,20.382,0.558,35.084,0.119,44.107 c0.083,0.155,0.142,0.309,0.178,0.475v56.32c-0.119,0.024-0.237,0.047-0.356,0.059v5.929c0.13-0.024,0.249-0.036,0.356-0.06v95.448 c0.154-0.035,0.309-0.083,0.475-0.118c0.154-0.036,0.32-0.072,0.475-0.119c5.909-1.138,13.858-2.336,23.848-3.616 c1.554-0.178,3.156-0.38,4.805-0.593c-0.024-0.202-0.024-0.415,0-0.652l0.415-77.426c0-3.118,0.083-5.537,0.237-7.232 c0.237-2.644,0.712-4.98,1.424-6.996c0.985-2.846,2.729-5.715,5.22-8.596c3.832-4.233,8.518-7.257,14.06-9.071 c5.659-1.861,11.153-2.075,16.492-0.652c3.405,0.866,6.442,2.348,9.135,4.446c2.812,2.17,4.888,4.767,6.229,7.767 c0.914,2.098,1.566,4.505,1.958,7.232c0.391,2.609,0.617,5.656,0.652,9.13l-0.118,9.189c-0.083,7.79,0.569,13.873,1.957,18.26 c0.985,3.047,2.373,5.774,4.153,8.181c1.934,2.644,4.188,4.66,6.763,6.047c1.862,0.949,4.033,1.684,6.525,2.194 c1.092,0.201,2.397,0.379,3.915,0.533c1.555-0.154,2.883-0.332,3.975-0.533c2.491-0.51,4.663-1.245,6.525-2.194 c2.575-1.387,4.829-3.403,6.763-6.047c1.78-2.407,3.168-5.134,4.153-8.181c1.388-4.387,2.04-10.47,1.957-18.26l-0.118-9.189 c0.035-3.474,0.261-6.521,0.652-9.13c0.392-2.727,1.044-5.134,1.958-7.232c1.34-3,3.417-5.597,6.229-7.767 c2.693-2.098,5.73-3.58,9.135-4.446c5.339-1.423,10.832-1.209,16.492,0.652c5.541,1.814,10.227,4.838,14.059,9.071 c2.492,2.881,4.236,5.75,5.221,8.596c0.711,2.016,1.186,4.352,1.423,6.996c0.155,1.695,0.238,4.114,0.238,7.232l0.415,76.596 c7.961,0.936,17.251,2.122,27.881,3.557h0.06c0.059,0,0.178,0,0.178,0V301.499c-2.065-6.13-5.055-11.999-8.958-17.608 c-4.864-7.031-10.797-13.184-17.797-18.437c-13.169-9.841-28.925-16.09-47.28-18.734h-0.059c-0.997,5.004-2.776,9.237-5.339,12.687 c-2.575,3.474-5.908,6.142-10.025,8.003c-4.153,1.862-8.388,2.609-12.695,2.253c-0.249-0.023-0.487-0.083-0.712-0.178 c-0.226,0.083-0.427,0.095-0.594,0.06c-0.189,0.059-0.391,0.095-0.593,0.118c-4.307,0.356-8.542-0.391-12.695-2.253 c-4.117-1.861-7.45-4.529-10.025-8.003c-3.049-4.114-5.007-9.331-5.873-15.651c-0.392-2.81-0.593-6.426-0.593-10.849v-0.415 c-0.036-0.083-0.06-0.154-0.06-0.237v-0.889c-0.035-0.083-0.083-0.155-0.118-0.238v-1.126c0-0.036-0.024-0.095-0.06-0.178v-2.312 l-2.788,1.423c-4.069,1.861-7.391,2.822-9.966,2.905c-3.002,0-5.671-0.806-8.008-2.431c-1.222-0.83-2.611-2.11-4.153-3.853 c-0.949-1.067-1.685-2.075-2.195-3.024c-0.795-1.506-1.281-3.343-1.483-5.513c-0.202-2.644,0.142-4.921,1.009-6.818 c0.795-1.814,2.55-3.936,5.279-6.343c3.441-2.965,5.778-4.945,7-5.929h0.06l-0.06-0.059c-1.222-0.984-3.559-2.964-7-5.929 c-2.729-2.407-4.484-4.529-5.279-6.343c-0.867-1.897-1.211-4.174-1.009-6.818c0.202-2.17,0.688-4.007,1.483-5.513 c0.51-0.949,1.246-1.957,2.195-3.024c1.542-1.743,2.931-3.023,4.153-3.853c2.337-1.625,5.006-2.431,8.008-2.431 c2.575,0.083,5.897,1.044,9.966,2.905l2.788,1.423v-2.312c0.036-0.083,0.06-0.178,0.06-0.178v-1.126 c0.035-0.083,0.083-0.155,0.118-0.238v-0.889c0-0.083,0.024-0.154,0.06-0.237v-0.415c0-4.423,0.201-8.039,0.593-10.849 c0.866-6.32,2.824-11.537,5.873-15.651c0.154-0.237,0.332-0.451,0.534-0.652c2.491-3.166,5.659-5.608,9.491-7.351 c3.002-1.34,6.051-2.099,9.136-2.253c0.807-0.06,1.625-0.071,2.432-0.059l1.305-0.238c0.712-0.154,1.246-0.237,1.602-0.237 c0.629,0.036,1.246,0.154,1.839,0.356c0.119,0.035,0.214,0.083,0.297,0.119c0.522,0.011,1.044,0.023,1.542,0.059 c3.085,0.154,6.134,0.913,9.136,2.253c3.832,1.743,7,4.185,9.491,7.351c0.202,0.201,0.38,0.415,0.534,0.652 c3.049,4.114,5.007,9.331,5.873,15.651c0.392,2.81,0.593,6.426,0.593,10.849v0.415c0.036,0.083,0.06,0.154,0.06,0.237v0.889 c0.035,0.083,0.083,0.155,0.118,0.238v1.126c0,0.036,0.024,0.095,0.06,0.178v2.312l2.788-1.423 c4.069-1.861,7.391-2.822,9.966-2.905c3.002,0,5.671,0.806,8.008,2.431c1.222,0.83,2.611,2.11,4.153,3.853 c0.949,1.067,1.685,2.075,2.195,3.024c0.795,1.506,1.281,3.343,1.483,5.513c0.202,2.644-0.143,4.921-1.009,6.818 c-0.795,1.814-2.55,3.936-5.279,6.343c-3.441,2.965-5.778,4.945-7,5.929l-0.06,0.059h0.06c1.222,0.984,3.559,2.964,7,5.929 c2.729,2.407,4.484,4.529,5.279,6.343c0.866,1.897,1.211,4.174,1.009,6.818c-0.202,2.17-0.688,4.007-1.483,5.513 c-0.51,0.949-1.246,1.957-2.195,3.024c-1.542,1.743-2.931,3.023-4.153,3.853c-2.337,1.625-5.006,2.431-8.008,2.431 c-2.575-0.083-5.897-1.044-9.966-2.905l-2.788-1.423v2.312c-0.036,0.083-0.06,0.178-0.06,0.178v1.126 c-0.035,0.083-0.083,0.155-0.118,0.238v0.889c0,0.083-0.024,0.154-0.06,0.237v0.415c0,4.423-0.201,8.039-0.593,10.849 c-0.012,0.047-0.024,0.083-0.059,0.119c0.237,0.023,0.474,0.035,0.712,0.059c11.817,1.707,22.613,4.956,32.39,9.722v-7.41 c0-3.284,0.154-5.846,0.474-7.707c0.475-2.81,1.4-5.098,2.788-6.877c1.626-2.016,3.797-3.439,6.526-4.269 c1.554-0.462,3.132-0.699,4.746-0.711c-0.724-0.652-1.246-1.162-1.543-1.541c-0.237-0.273-0.629-0.866-1.186-1.779 c-0.866-1.577-1.448-3.047-1.721-4.387c-0.273-1.423-0.201-2.869,0.238-4.328c0.439-1.458,1.162-2.703,2.195-3.735 c0.628-0.592,1.269-1.102,1.898-1.541c0.629-0.391,1.127-0.628,1.483-0.711c0.475-0.119,1.222-0.178,2.254-0.178 c1.151,0,2.017,0.059,2.61,0.178c1.068,0.201,2.017,0.735,2.848,1.6c0.795,0.795,1.364,1.743,1.72,2.846 c0.51,1.814,0.415,3.533-0.296,5.158c-0.238,0.628-0.617,1.209-1.128,1.719c-0.984,0.984-2.218,1.423-3.677,1.304 c-1.389-0.201-2.528-0.806-3.441-1.838c-0.629-0.711-0.926-1.422-0.89-2.134c0.083-0.391,0.273-0.735,0.593-1.008 c0.356-0.32,0.712-0.438,1.068-0.355c0.273,0.083,0.558,0.26,0.83,0.533c0.119,0.154,0.321,0.415,0.594,0.771 c0.474,0.628,1.008,0.972,1.601,1.008c0.712,0.083,1.282-0.273,1.721-1.067c0.356-0.558,0.498-1.245,0.415-2.075 c-0.083-1.542-0.617-2.609-1.602-3.202c-0.593-0.32-1.578-0.474-2.966-0.474c-0.747,0-1.305,0.059-1.661,0.178 c-0.51,0.154-1.044,0.474-1.601,0.948c-0.867,0.83-1.46,1.862-1.78,3.083c-0.356,1.221-0.38,2.395-0.06,3.498 c0.119,0.557,0.392,1.209,0.831,1.956c0.747,1.459,1.578,2.585,2.492,3.38c0.593,0.557,1.364,1.126,2.313,1.719 c0.558,0.356,1.388,0.853,2.492,1.482c0.213,0.166,0.391,0.296,0.534,0.415c3.108,1.209,6.43,3.189,9.966,5.928 c3.049,2.324,5.932,4.85,8.661,7.589c0-8.253,0.154-18.663,0.474-31.243C274.07,190.305,273.381,174.429,271.483,162.774z M132.491,113.686c-0.237,2.846-1.187,5.395-2.848,7.648c-1.067,1.423-2.871,3.142-5.398,5.157c-2.812,2.052-4.9,3.617-6.288,4.684 c-2.456,1.814-4.449,3.498-5.992,5.039c-8.388,8.181-13.703,19.884-15.957,35.096c-0.747,5.419-1.163,11.94-1.246,19.564 c0.012,3.771,0.012,7.126,0,10.079c-0.059-0.095-0.142-0.19-0.237-0.297l0.119,5.81c0,7.019-0.024,13.007-0.059,17.963 c0.083,0.083,0.166,0.154,0.237,0.237c0,3.913-0.024,7.115-0.059,9.604c0,2.052-0.095,6.759-0.297,14.11 c-0.154,5.81-0.202,10.517-0.119,14.11c0.083,3.64,0.119,5.869,0.119,6.699c0,2.525-0.142,4.743-0.415,6.64 c-0.747,5.098-2.575,9.094-5.458,11.975c-1.625,1.625-3.524,2.751-5.695,3.379c-2.29,0.712-4.473,0.712-6.525,0 c-1.78-0.592-3.358-1.683-4.746-3.26c-1.269-1.459-2.195-3.166-2.788-5.099c-0.629-2.051-0.949-5.24-0.949-9.544l-0.119-46.539 v-0.059c-0.036-7.825-0.059-12.616-0.059-14.347l0.059-13.754v-0.296c0-9.604,0.237-16.801,0.712-21.58 c0.914-9.485,3.049-18.817,6.407-27.982c3.286-9.011,7.629-17.512,13.051-25.492c2.409-3.557,4.722-6.403,6.941-8.537 c1.981-1.933,4.39-3.794,7.237-5.573c8.625-5.454,16.337-7.268,23.136-5.454c2.289,0.628,4.057,1.624,5.279,2.964 C132.04,108.374,132.693,110.722,132.491,113.686z M238.263,140.245c-2.373,0.51-4.568,0.155-6.585-1.067 c-1.104-0.628-2.338-1.695-3.678-3.201c-1.353-1.494-2.326-2.549-2.907-3.142c-0.012-0.059-0.059-0.178-0.059-0.178l-0.238-0.237 c-0.035-0.083-0.095-0.154-0.178-0.237c-0.035-0.083-0.083-0.154-0.118-0.237l-0.178-0.178c-0.036-0.083-0.083-0.154-0.119-0.237 l-0.474-0.475c-0.083-0.035-0.155-0.094-0.238-0.177c-0.035-0.083-0.095-0.155-0.178-0.238l-0.474-0.474 c-0.083-0.035-0.155-0.095-0.238-0.178c-0.035-0.083-0.094-0.154-0.177-0.237l-0.475-0.474c-0.083-0.036-0.154-0.095-0.237-0.178 c-0.036-0.083-0.095-0.154-0.178-0.237l-0.475-0.474c-0.083-0.036-0.154-0.095-0.237-0.178c-0.119-0.083-0.237-0.154-0.356-0.237 c-0.083-0.083-0.178-0.155-0.297-0.238c-0.118-0.083-0.237-0.154-0.356-0.237c-0.118-0.035-0.213-0.095-0.296-0.178 s-0.155-0.154-0.238-0.237s-0.178-0.154-0.296-0.237c-0.083-0.083-0.178-0.154-0.297-0.237c-0.083-0.083-0.154-0.142-0.237-0.178 c-0.119-0.083-0.261-0.154-0.415-0.237c-0.119-0.083-0.214-0.154-0.297-0.237c-0.119-0.083-0.214-0.154-0.297-0.237 c-0.154-0.083-0.32-0.142-0.474-0.178c-0.083-0.083-0.142-0.154-0.178-0.237l-0.475-0.474c-0.083-0.083-0.154-0.143-0.237-0.178 c-0.083-0.083-0.142-0.154-0.178-0.237l-0.119-0.238c-0.035-0.083-0.083-0.154-0.118-0.237c-0.036-0.083-0.095-0.142-0.178-0.178 c-0.083-0.083-0.143-0.154-0.178-0.237l-0.238-0.237c-0.118-0.083-0.213-0.154-0.296-0.237c-0.119-0.083-0.214-0.142-0.297-0.178 l-0.237-0.237c-0.083-0.083-0.178-0.154-0.297-0.237c-0.083-0.083-0.178-0.154-0.296-0.237c-0.036-0.083-0.095-0.154-0.178-0.237 c-0.036-0.036-0.083-0.095-0.119-0.178c-0.035-0.083-0.059-0.154-0.059-0.237l-0.237-0.238c-0.036-0.083-0.095-0.154-0.178-0.237 c-0.036-0.035-0.095-0.095-0.178-0.178s-0.143-0.154-0.178-0.237c-0.036-0.083-0.083-0.154-0.119-0.237 c-0.083-0.083-0.142-0.154-0.178-0.237c-0.036-0.036-0.083-0.095-0.119-0.178c-0.083-0.083-0.142-0.154-0.178-0.237 c0-0.083-0.023-0.154-0.059-0.237c-0.035-0.083-0.095-0.154-0.178-0.237c0-0.036-0.024-0.095-0.059-0.178 c-0.036-0.083-0.083-0.154-0.119-0.237c-0.035-0.083-0.083-0.154-0.118-0.237c-0.036-0.083-0.084-0.154-0.119-0.237 c-0.036-0.036-0.059-0.095-0.059-0.178v-0.237c-0.036-0.083-0.084-0.155-0.119-0.238v-0.237c0-0.035-0.024-0.095-0.059-0.178 c-0.036-0.083-0.083-0.154-0.119-0.237v-0.237c-0.036-0.083-0.083-0.154-0.119-0.237v-0.178c0-0.083-0.023-0.154-0.059-0.237 c-0.036-0.083-0.083-0.154-0.119-0.237v-3.32c0-0.083,0.024-0.154,0.06-0.237c0.035-0.083,0.083-0.154,0.118-0.237v-0.237 c0.036-0.036,0.083-0.095,0.119-0.178v-0.712c0.036-0.035,0.083-0.095,0.119-0.178c0.035-0.083,0.059-0.154,0.059-0.237v-0.237 c0.035-0.083,0.083-0.154,0.119-0.237c0.035-0.036,0.083-0.095,0.118-0.178c0.036-0.083,0.06-0.154,0.06-0.237v-0.237 c0.035-0.083,0.083-0.154,0.118-0.237c0.036-0.036,0.083-0.095,0.119-0.178c0.035-0.083,0.059-0.154,0.059-0.237l0.237-0.237 c0.036-0.083,0.095-0.155,0.178-0.238c0.036-0.035,0.083-0.094,0.119-0.177c0.036-0.083,0.059-0.155,0.059-0.238l0.475-0.474 c0.083-0.035,0.154-0.095,0.237-0.178c0.083-0.083,0.143-0.154,0.178-0.237l0.237-0.237c0.119-0.083,0.262-0.154,0.416-0.237 c0.154-0.083,0.32-0.142,0.474-0.178c0.119-0.083,0.214-0.154,0.297-0.237c0.119-0.083,0.213-0.154,0.296-0.237 c0.119-0.083,0.262-0.154,0.416-0.237c0.083-0.083,0.178-0.143,0.296-0.178c0.119-0.083,0.238-0.154,0.356-0.237 c0.119-0.083,0.238-0.154,0.356-0.237c0.119-0.083,0.214-0.155,0.297-0.238c0.237-0.083,0.498-0.142,0.771-0.177 c0.202-0.083,0.415-0.143,0.653-0.178c0.154-0.036,0.332-0.083,0.534-0.119h4.271c0.201,0.036,0.379,0.083,0.534,0.119 c0.237,0.035,0.451,0.095,0.652,0.178c0.202,0.035,0.38,0.083,0.534,0.118c0.178,0.024,0.332,0.036,0.475,0.059 c0.759,0.404,1.554,0.878,2.373,1.423c4.947,3.202,9.313,7.174,13.11,11.916c2.456,3.285,4.01,6.202,4.686,8.774 c0.439,1.66,0.558,3.32,0.356,4.98c-0.237,1.779-0.807,3.32-1.72,4.625C242.451,138.443,240.6,139.688,238.263,140.245z M262.347,165.026c-0.593,1.506-1.566,2.763-2.906,3.795c-1.341,1.031-2.824,1.636-4.45,1.837 c-1.981,0.237-3.796-0.083-5.457-0.948c-1.744-0.866-3.026-2.17-3.856-3.913c-0.237-0.391-0.415-0.854-0.534-1.364l-0.237-1.778 c-0.036-1.067,0.023-2.134,0.178-3.201c0.32-1.388,0.913-2.633,1.779-3.735c0.914-1.15,1.994-1.992,3.263-2.55 c1.27-0.557,2.61-0.77,4.034-0.652c1.459,0.119,2.753,0.569,3.856,1.364c0.593,0.391,1.222,0.925,1.898,1.601 c0.949,0.948,1.566,1.66,1.839,2.134c0.32,0.51,0.51,0.972,0.593,1.363C263.095,161.031,263.095,163.046,262.347,165.026z" class="st2"/><path d="M323.746,425.403l2.314-1.008c0.557-0.154,1.008-0.213,1.364-0.177h0.059l0.475-0.119H335v-5.158h-54.619 c-1.388-0.059-2.764-0.118-4.152-0.178v1.364c-0.143,0.047-0.273,0.083-0.415,0.119v0.415c0,0.083,0.023,0.154,0.059,0.237v12.272 h-0.059c0.059,0.747,0.106,1.529,0.118,2.371h0.237v-0.178h39.687c0.071-0.877,0.202-1.612,0.415-2.193 c0.202-0.676,0.57-1.459,1.128-2.372c0.474-0.83,0.889-1.482,1.245-1.956C319.51,427.775,321.219,426.625,323.746,425.403z" class="st2"/><path d="M313.424,14.681c-0.795,6.794-0.439,14.821,1.068,24.069c0.747,4.541,1.661,8.478,2.729,11.798 c2.455,7.505,6.406,14.252,11.864,20.216c1.865,2.041,3.843,3.896,5.915,5.594V0h-17.892C315.254,4.708,314.02,9.6,313.424,14.681z" class="st2"/><path d="M335,364.855c-1.914-2.36-4.015-4.82-6.33-7.392c-1.543-1.743-2.907-3.177-4.093-4.327 c-3.358-3.202-7.736-6.071-13.111-8.597c-2.883-1.422-7.795-3.414-14.712-5.987c-0.225-0.071-0.45-0.154-0.652-0.237 c-0.012,6.983-0.665,13.682-1.958,20.097c0.166,0.024,0.321,0.071,0.475,0.119c3.049,1.067,6.763,3.296,11.152,6.699 c5.019,3.711,8.804,6.877,11.331,9.485c8.209,8.273,14.167,19.135,17.898,32.566V364.855z" class="st2"/><path d="M118.609,63.176c-1.625,2.49-2.61,5.098-2.966,7.826c-0.474,3.438,0.155,6.343,1.899,8.715 c0.83,1.15,2.052,2.194,3.678,3.142c0.344,0.19,0.616,0.391,0.83,0.593c0.534-0.178,1.044-0.356,1.542-0.534 c10.88-3.593,22.412-5.632,34.585-6.106c14.712-0.628,30.041,1.008,45.975,4.921c1.175,0.284,2.29,0.581,3.322,0.889 c1.448-0.877,2.563-1.85,3.322-2.905c1.744-2.371,2.373-5.276,1.899-8.715c-0.356-2.727-1.341-5.336-2.967-7.826 c-1.506-2.288-3.44-4.304-5.813-6.047c-3.998-2.929-9.195-5.004-15.602-6.225c-3.049-0.593-6.68-1.067-10.915-1.423 c-2.254-0.178-5.529-0.415-9.848-0.711l-5.279-0.119c-0.083,0.036-0.178,0.059-0.297,0.059c-4.9,0.32-8.578,0.569-11.034,0.771 c-4.236,0.356-7.866,0.83-10.915,1.423c-6.407,1.221-11.604,3.296-15.602,6.225C122.05,58.872,120.116,60.887,118.609,63.176z" class="st2"/><path d="M300.551,388.173c2.931,3.32,5.671,7.624,8.246,12.924c2.373,5.015,4.212,9.924,5.517,14.702 c0.035,0.166,0.059,0.32,0.059,0.474h19.754c-3.618-17.251-9.906-30.377-18.864-39.364c-2.1-2.135-5.481-5.016-10.144-8.656 c-2.492-1.933-4.331-3.296-5.517-4.09c-2.088-1.376-4.081-2.443-5.992-3.202c-0.118,0.64-0.261,1.269-0.415,1.897 c-1.412,5.68-3.263,11.003-5.576,15.948c1.174,0.391,2.539,1.043,4.093,1.956C295.117,382.861,298.059,385.327,300.551,388.173z" class="st2"/><path d="M299.305,178.128c0.226-0.071,0.463-0.13,0.712-0.178c1.151-0.154,2.527-0.213,4.153-0.178 c0.83,0.036,2.017,0.119,3.559,0.238l-1.898-6.344c-0.143,0.059-0.297,0.095-0.475,0.119c-0.795,0.118-1.863,0.118-3.203,0 c-1.543-0.154-2.61-0.214-3.204-0.178c-0.51,0.035-0.949,0.035-1.305,0c0.415,1.529,0.831,3.106,1.246,4.743 C299.044,176.954,299.187,177.547,299.305,178.128z" class="st2"/><path d="M305.534,196.091c1.898,0.119,4.058,0.143,6.466,0.06c0.439,0,0.807,0.023,1.127,0.059v-0.119l-2.195-7.351 c-0.427,0.059-1.044,0.059-1.839,0c-0.83-0.083-1.898-0.083-3.203,0c-1.697,0.119-2.753,0.178-3.144,0.178 c-0.226,0-0.415-0.024-0.593-0.059c0.771,2.928,1.423,5.359,1.957,7.292C304.514,196.056,304.988,196.032,305.534,196.091z" class="st2"/><path d="M303.339,186.309c1.661-0.272,2.966-0.438,3.915-0.474c1.033-0.024,1.982,0.036,2.848,0.178l-1.542-5.217 h-0.238l-7.771-0.356c-0.249-0.023-0.463-0.071-0.653-0.118c0.594,2.324,1.151,4.434,1.661,6.343 C301.832,186.606,302.426,186.487,303.339,186.309z" class="st2"/><path d="M17.406,438.149c-0.475-1.031-1.151-1.837-2.017-2.43c-1.187-0.866-2.729-1.304-4.627-1.304 c-0.166,0.154-0.392,0.249-0.653,0.296H10.05c-0.154-0.036-0.332-0.083-0.534-0.119c-0.392-0.083-0.807-0.142-1.246-0.177 c-0.154-0.036-0.332-0.083-0.534-0.119H4.177v0.059c-0.154,0-0.332,0.024-0.534,0.06c-0.32,0.023-0.653,0.071-1.008,0.118 c-0.036-0.036-0.071-0.083-0.119-0.118c-0.924,0-1.76,0.108-2.516,0.314v13.007c2.002-0.433,4.615-0.684,7.854-0.754 c2.764,0,4.959,0.273,6.585,0.83c0.071,0.012,0.13,0.035,0.178,0.059c0.095-0.415,0.214-0.806,0.356-1.186 c0.202-0.509,0.688-1.387,1.483-2.608c0.712-1.067,1.163-1.98,1.364-2.727C18.022,440.284,17.88,439.217,17.406,438.149z" class="st2"/><path d="M3.702,503.362c1.625-0.747,3.322-0.972,5.102-0.652c1.815,0.32,3.286,1.127,4.39,2.431 c1.388,1.624,2.112,4.031,2.195,7.232c0,1.305,0.059,2.218,0.178,2.728c0.202,1.031,0.617,1.754,1.246,2.193 c0.831,0.628,1.981,0.747,3.441,0.356c0.202-0.083,0.771-0.297,1.72-0.652c0.676-0.237,1.246-0.392,1.72-0.475 c1.186-0.237,2.349-0.095,3.5,0.415c1.044,0.439,1.898,1.091,2.551,1.957v-4.15l0.119-0.237v-3.38c0,0,0.024-0.094,0.059-0.177 v-0.652c-0.083-0.475-0.142-0.985-0.178-1.542c-0.119-1.458-0.237-2.49-0.356-3.083c-0.629-3.438-2.1-6.248-4.39-8.418 c-0.558-0.51-2.136-1.66-4.746-3.439c-1.934-1.304-3.322-2.632-4.153-3.972c-0.831-1.268-1.329-2.703-1.483-4.327 c-0.024-0.273-0.047-0.546-0.059-0.83c-0.593,0.237-1.424,0.296-2.491,0.178c-0.676-0.036-2.729-0.119-6.17-0.238L0,484.899v21.64 C1.006,505.107,2.232,504.041,3.702,503.362z" class="st2"/><path d="M86.635,447.279c-0.332-0.332-0.593-0.628-0.771-0.889c-8.519,1.079-17.026,2.348-25.509,3.794l-0.474,0.119 c-0.747,0.095-1.4,0.13-1.958,0.118l2.907,4.209c2.1,3.475,3.346,6.557,3.737,9.249c0.119,1.186,0.154,2.276,0.119,3.26 c-0.154,5.419-2.373,11.324-6.644,17.727c-0.202,0.284-0.403,0.509-0.593,0.652v39.424c0.059,0.047,0.119,0.083,0.178,0.118v5.692 c0.237-0.617,0.498-1.245,0.771-1.898c3.168-7.315,7.534-13.908,13.11-19.8c1.459-1.542,4.034-3.973,7.712-7.292 c3.358-3.048,5.873-5.49,7.534-7.352c4.426-5.015,7.451-10.137,9.076-15.354c1.981-6.13,2.053-12.011,0.237-17.667 C94.525,456.646,91.38,451.939,86.635,447.279z" class="st2"/><path d="M8.448,458.484c0.391-0.119,0.712-0.332,0.949-0.652c0.273-0.356,0.415-0.866,0.415-1.542 c0.036-0.438,0-0.889-0.119-1.363c-0.154-0.629-0.534-1.162-1.127-1.601c-0.558-0.438-1.187-0.687-1.898-0.77 c-0.747,0-1.281,0.154-1.602,0.474c-0.237,0.201-0.51,0.569-0.83,1.126c-0.475,0.913-0.653,1.636-0.534,2.194 c0.036,0.355,0.237,0.711,0.593,1.067c0.51,0.557,1.151,0.948,1.898,1.186C6.989,458.804,7.736,458.757,8.448,458.484z" class="st2"/><path d="M0,431.543c0.373-0.086,0.755-0.159,1.151-0.211c1.198-0.154,2.61-0.154,4.212,0v-1.897 c-0.036-0.083-0.059-0.155-0.059-0.238V395.82c-0.036-0.083-0.083-0.154-0.119-0.237v-66.991l0.119-0.237v-3.735 c-0.024-0.119-0.048-0.261-0.059-0.415c-0.392-4.423,0.451-9.035,2.551-13.813c2.29-5.455,5.754-10.114,10.381-13.992 c4.663-3.995,9.824-6.544,15.483-7.647c3.002-0.593,7.261-0.889,12.754-0.889h8.068v-28.576c-0.142,0.143-0.297,0.261-0.475,0.356 c-0.475,0.237-1.27,0.356-2.373,0.356c-4.141-0.131-7.581-0.225-10.322-0.297c-0.593,0.083-1.198,0.06-1.839-0.059 c-2.147-0.012-3.725-0.012-4.746,0c-6.371,0.119-11.924,0.771-16.669,1.957C11.51,263.276,5.498,266.05,0,269.873V431.543z" class="st2"/><path d="M297.348,169.058c2.384-0.297,4.971-0.237,7.771,0.178l-1.958-6.403c-0.237,0.035-0.593,0.059-1.068,0.059 c-3.678-0.32-5.754-0.474-6.229-0.474c-0.308,0-0.593-0.024-0.83-0.059c0.629,2.086,1.258,4.339,1.898,6.758 C297.075,169.093,297.217,169.07,297.348,169.058z" class="st2"/><path d="M5.66,478.581c0.558,0.273,1.163,0.415,1.839,0.415c0.712,0.083,1.305-0.035,1.78-0.355 c0.392-0.202,0.688-0.51,0.89-0.949c0.202-0.439,0.261-0.889,0.178-1.363c-0.036-0.747-0.392-1.566-1.068-2.431 c-0.51-0.51-0.925-0.83-1.246-0.949c-0.949-0.32-1.803-0.059-2.551,0.771c-0.202,0.202-0.415,0.534-0.652,1.008 c-0.202,0.32-0.32,0.628-0.356,0.948c-0.202,0.558-0.213,1.068-0.059,1.542C4.651,477.811,5.066,478.261,5.66,478.581z" class="st2"/><path d="M15.033,460.618c-0.558,0.629-1.127,1.862-1.72,3.676c-0.439,1.577-0.676,2.691-0.712,3.32 c-0.119,1.577,0.297,3.059,1.246,4.446c0.795,1.269,1.934,2.312,3.441,3.142c0.225,0.131,0.427,0.249,0.593,0.356 c0.202-0.344,0.332-0.593,0.415-0.771c1.068-2.17,1.637-4.588,1.72-7.233c0.036-2.608-0.415-5.062-1.364-7.351 c-0.214-0.533-0.534-1.185-0.949-1.956c-0.19,0.249-0.487,0.522-0.89,0.83C16.065,459.634,15.472,460.144,15.033,460.618z" class="st2"/><path d="M312.653,199.174c-0.439-0.035-1.899-0.095-4.39-0.178c-1.317-0.059-2.444-0.201-3.381-0.415 c0.795,2.372,1.328,4.15,1.601,5.336c0.012,0.118,0.012,0.213,0,0.296c2.563,0.202,5.149,0.439,7.771,0.712v-0.534 c-0.035-1.731-0.083-3.462-0.118-5.217C313.744,199.257,313.246,199.257,312.653,199.174z" class="st2"/><path d="M260.39,69.578c-0.392-1.577-1.127-2.786-2.195-3.616c-0.985-0.747-2.314-1.126-3.975-1.126 c-1.269,0.083-2.337,0.297-3.203,0.652l-0.415,0.237l-0.475,15.829v0.119c1.542,0.036,2.907,0.083,4.093,0.119 c2.338,0.119,4.544,0.332,6.644,0.652c-0.035-0.32-0.059-0.617-0.059-0.889v-7.648C260.722,71.772,260.592,70.326,260.39,69.578z" class="st2"/><path d="M275.28,113.567c-4.426-1.814-9.516-3.142-15.246-3.972c-3.595-0.545-7.985-0.936-13.17-1.185 c1.922,2.004,3.773,4.079,5.577,6.225c5.849,6.96,10.559,14.192,14.118,21.698c1.258,2.667,2.349,5.335,3.263,8.003 c0.059-2.834,0.178-5.063,0.356-6.699c0.273-2.929,0.89-5.419,1.839-7.47c1.507-3.178,3.761-5.525,6.763-7.055 c-0.083-0.142-0.166-0.272-0.238-0.415c-0.142-0.308-0.237-0.604-0.296-0.889h-0.178c-0.748-1.008-1.317-2.158-1.721-3.438 c-0.486-1.518-0.676-3.06-0.593-4.625C275.612,113.71,275.458,113.65,275.28,113.567z" class="st2"/><path d="M218.745,87.423c3.192,1.648,6.336,3.486,9.433,5.513c5.742,3.782,11.105,8.087,16.076,12.924 c2.836-0.214,5.719-0.214,8.661,0c1.626,0.035,3.465,0.201,5.517,0.474c5.932,0.794,11.746,2.193,17.441,4.209 c0.178,0.083,0.332,0.154,0.474,0.237c0.724-2.229,2.029-4.245,3.916-6.047c1.032-0.948,1.566-1.458,1.601-1.541 c0.558-0.629,0.89-1.269,1.009-1.897c0.036-0.19,0.059-0.392,0.059-0.593v-0.06c0-0.118-0.023-0.248-0.059-0.414 c-0.083-0.487-0.309-1.02-0.653-1.601c-0.747-1.067-1.328-1.873-1.72-2.431c-0.997-1.411-1.637-3-1.898-4.743 c-0.321-0.071-0.724-0.202-1.187-0.415c-2.693-1.387-5.078-2.371-7.178-2.964c-0.866-0.273-1.388-0.498-1.542-0.652 c-0.178-0.13-0.321-0.261-0.415-0.415c-0.748-0.024-1.792-0.202-3.144-0.534c-3.916-0.865-8.329-1.399-13.229-1.601 c-2.966-0.083-7.392-0.083-13.289,0c-4.188,0.118-7.32,0.332-9.372,0.652c-0.724,0.107-1.389,0.166-1.958,0.178 c-0.012,0.024-0.036,0.047-0.059,0.059c-0.202,0.119-0.677,0.261-1.424,0.415C223.1,86.534,220.751,86.949,218.745,87.423z" class="st2"/><path d="M310.695,472.06c2.764-3.474,6.051-6.426,9.848-8.833c-0.202-0.154-0.416-0.356-0.653-0.593 c-0.747-0.676-1.4-1.399-1.958-2.194c-0.355-0.593-0.616-1.102-0.771-1.541l-0.83-1.838c-0.083-0.142-0.166-0.379-0.238-0.711 h-38.084c-0.7-0.06-1.4-0.143-2.077-0.237v17.785h8.721v-0.178h24.737C309.817,473.163,310.256,472.606,310.695,472.06z" class="st2"/><path d="M240.279,73.847c-0.083-1.779-0.272-3.237-0.593-4.387c-0.474-1.66-1.245-2.929-2.313-3.794 c-0.831-0.676-1.816-1.043-2.966-1.126c-1.068-0.119-2.112,0-3.144,0.356c-1.187,0.557-2.077,1.245-2.67,2.075 c-0.593,0.83-1.092,2.217-1.483,4.15c-0.083,0.391-0.178,0.688-0.297,0.889c0,3.996-0.059,7.612-0.178,10.849 c1.697-0.32,3.619-0.569,5.755-0.771c1.506-0.154,3.796-0.273,6.881-0.356c0.439-0.036,0.854-0.036,1.246,0 c-0.119-0.794-0.155-1.838-0.119-3.142L240.279,73.847z" class="st2"/><path d="M144.237,47.169c3.559-0.486,7.368-0.783,11.449-0.889v-0.237c0.035-0.356,0.273-0.925,0.712-1.719l5.695-9.13 c2.527-4.114,4.532-7.114,5.991-9.011c1.424-1.862,4.01-4.802,7.771-8.833c0.19-0.214,0.368-0.415,0.534-0.593 c-3.262-0.545-7.071-0.854-11.449-0.949h-0.178l-1.186,0.059c-0.321,0-0.594-0.024-0.831-0.059c-0.415,0.012-0.83,0.012-1.246,0 c-0.118,0.178-0.261,0.332-0.415,0.474l-2.966,3.201c-1.934,2.134-3.773,4.328-5.517,6.581c-1.542,2.051-3.203,4.47-4.983,7.233 c-2.017,3.201-3.915,6.462-5.695,9.782c-0.154,0.439-0.391,0.794-0.712,1.067c-0.439,0.356-0.83,0.451-1.186,0.296 c-0.071-0.024-0.131-0.059-0.178-0.119c0.913,0.901,1.827,1.553,2.729,1.956C143.465,46.73,144.023,47.027,144.237,47.169z" class="st2"/><path d="M292.365,154.237v0.059c0.605,1.66,1.21,3.521,1.839,5.573c0.225-0.06,0.462-0.095,0.711-0.119 c2.255-0.154,4.628-0.119,7.119,0.119h0.237l-1.364-4.625c-0.036-0.166-0.083-0.332-0.119-0.474h-0.296 c-3.05-0.154-5.399-0.296-7.06-0.415C293.041,154.355,292.685,154.32,292.365,154.237z" class="st2"/><path d="M185.762,46.28c1.305-0.593,2.634-1.66,3.975-3.201c1.186-1.387,2.076-2.751,2.669-4.091 c0.95-2.288,1.127-4.838,0.534-7.648c-0.439-1.838-1.174-3.699-2.195-5.573c-0.296,0.391-0.652,0.889-1.068,1.482l-6.644,9.604 c-2.052,2.964-4.069,5.988-6.05,9.07c-0.143,0.202-0.273,0.379-0.416,0.534c2.611,0.154,5.102,0.391,7.475,0.711 C184.279,47.015,184.849,46.718,185.762,46.28z" class="st2"/><path d="M277.653,208.185c-0.428,0.083-0.819,0.119-1.187,0.119l-0.119,10.138c1.602-0.344,3.631-0.581,6.111-0.712 c19.056-1.007,36.566,0.586,52.542,4.746v-11.165c-9.533-1.911-18.287-3.193-26.262-3.837 C297.621,206.561,287.263,206.798,277.653,208.185z" class="st2"/><path d="M301.026,139.534c-0.238-0.711-0.629-1.34-1.187-1.897c-0.712-0.628-1.341-0.984-1.898-1.067 c-0.392-0.083-0.985-0.036-1.78,0.118c-0.558,0.119-1.044,0.332-1.483,0.653c-0.392,0.355-0.736,0.913-1.008,1.659 c-0.072,0.19-0.143,0.427-0.238,0.712c0.522,0,1.044,0.142,1.543,0.415c1.423,0.794,2.278,2.17,2.551,4.15 c0.118,0.948,0.059,2.608-0.178,4.98c-0.155,0.948-0.333,1.565-0.534,1.837c-0.155,0.297-0.332,0.522-0.534,0.653l4.923,0.237 h0.238c-0.036-0.249-0.06-0.546-0.06-0.89l0.06-8.299C301.441,141.289,301.299,140.21,301.026,139.534z" class="st2"/><path d="M276.644,194.787l-0.119,10.316h0.297c8.305-1.162,17.322-1.494,27.051-1.008 c-1.768-4.933-3.251-9.616-4.449-14.051c-0.676-2.371-2.053-7.707-4.153-16.006c-1.696-6.64-3.203-11.952-4.508-15.948 c-0.593-1.66-0.926-3.023-1.009-4.091c0-0.592,0.095-0.984,0.297-1.185c0.024-0.036,0.047-0.071,0.059-0.119 c-0.142-0.142-0.237-0.32-0.296-0.533c-0.119-0.439-0.095-1.103,0.059-2.016l0.059-2.846c0-0.391,0.06-0.972,0.178-1.719 l0.238-4.328c0.201-1.577,0.355-2.584,0.474-3.023c0.475-1.625,1.483-2.881,3.026-3.794c0.356-0.202,0.889-0.415,1.601-0.653 c0.748-0.237,1.448-0.332,2.077-0.296c2.171,0.036,4.034,1.269,5.576,3.676c0.51,0.711,0.854,1.422,1.008,2.134 c0.083,0.356,0.119,0.913,0.119,1.66c0.083,4.707,0.059,8.24-0.059,10.612c-0.119,0.711-0.202,1.126-0.238,1.245 c-0.13,0.427-0.356,0.687-0.652,0.77c-0.012,0.095-0.06,0.178-0.119,0.238c0.237,0.391,0.415,0.936,0.534,1.66 c0.237,1.15,0.949,3.58,2.136,7.292c2.906,8.928,5.612,17.951,8.127,27.092c-0.071-7.102-0.119-14.133-0.119-21.105v-7.529 c0.012-2.834,0.036-5.656,0.06-8.478c0.011-1.92,0.035-3.841,0.059-5.75c0.035-2.763,0.024-4.861-0.059-6.284 c-0.155-2.336-0.499-4.387-1.009-6.166c-0.593-2.134-1.507-4.007-2.729-5.632c-1.34-1.778-2.93-3.083-4.746-3.913 c-0.605-0.237-1.079-0.498-1.423-0.77c-0.143-0.143-0.261-0.309-0.356-0.475c-0.107-0.213-0.131-0.45-0.06-0.711 c0.036-0.13,0.072-0.249,0.119-0.356c-0.012-0.071-0.036-0.142-0.059-0.237c-0.083-0.273-0.06-0.557,0.059-0.83 c0.083-0.201,0.392-0.676,0.949-1.423c0.629-0.83,1.068-1.754,1.305-2.786c0.036-0.142,0.06-0.308,0.06-0.474 c-0.155-0.261-0.238-0.676-0.238-1.245c0-0.795-0.059-1.53-0.178-2.194c-0.106-0.213-0.249-0.45-0.415-0.711h0.237 c-0.094-0.344-0.213-0.664-0.356-0.949c-0.272-0.51-0.569-0.972-0.889-1.363c-0.202-0.356-0.499-0.735-0.89-1.127l-2.966-2.43 c-0.866-0.949-1.424-1.743-1.661-2.372c-0.119-0.32-0.19-0.676-0.238-1.067c-0.047,0.036-0.106,0.083-0.178,0.119 c-0.071-0.332-0.13-0.664-0.177-1.008c-0.143,0.035-0.297,0.059-0.475,0.059c-0.202,0-0.688-0.095-1.483-0.296 c-1.341-0.439-3.263-0.688-5.754-0.771c-1.46-0.083-2.551-0.083-3.263,0c-0.451,0.024-0.866,0.024-1.246,0 c-0.273,1.233-0.985,2.537-2.136,3.913c-0.913,0.948-1.578,1.66-2.017,2.134c-0.83,0.83-1.447,1.577-1.839,2.253 c-0.984,1.624-1.388,3.438-1.186,5.454c0.202,2.016,0.926,3.711,2.195,5.098c0.498,0.546,0.854,1.02,1.068,1.423 c0.284,0.166,0.474,0.32,0.593,0.475c0.237,0.272,0.273,0.735,0.119,1.363h0.178v0.119c-0.036,0.118-0.155,0.261-0.356,0.415 c-0.321,0.272-0.772,0.533-1.365,0.77c-1.815,0.83-3.405,2.135-4.746,3.913c-1.222,1.625-2.135,3.498-2.728,5.632 c-0.511,1.779-0.855,3.83-1.009,6.166c-0.083,1.423-0.095,3.521-0.059,6.284c0.024,1.126,0.047,2.253,0.059,3.379v0.711 l0.653,1.423c0.059,0.332,0.106,0.617,0.118,0.83c0.095,0.783,0.119,1.731,0.119,2.846c0.012,0.51,0.012,1.02,0,1.541 c1.436,7.541,2.337,13.387,2.729,17.549C276.585,179.634,276.727,186.132,276.644,194.787z M282.636,113.567 c0.237-1.576,0.854-2.964,1.839-4.149c0.51-0.593,1.044-0.973,1.601-1.127c0.356-0.083,0.689-0.059,1.009,0.059 c0.32,0.119,0.557,0.321,0.712,0.593c0.237,0.475,0.178,0.973-0.178,1.482c-0.083,0.119-0.38,0.558-0.89,1.305 c-1.068,1.387-1.305,2.964-0.712,4.742c0.32,0.83,0.498,1.34,0.534,1.542c0.154,0.676,0.083,1.186-0.237,1.541 c-0.238,0.273-0.558,0.415-0.95,0.415c-0.355,0-0.711-0.095-1.067-0.296c-0.439-0.273-0.855-0.83-1.246-1.66 C282.493,116.591,282.363,115.109,282.636,113.567z" class="st2"/><path d="M320.305,200.597c-0.439-0.32-1.068-0.569-1.898-0.771c-0.724-0.166-1.258-0.308-1.602-0.415v5.158 c0,0.225-0.023,0.427-0.059,0.593c2.136,0.261,4.295,0.545,6.466,0.83c-0.119-0.676-0.498-1.636-1.127-2.905 C321.373,201.783,320.78,200.953,320.305,200.597z" class="st2"/><path d="M325.229,164.196l-8.542-0.77l0.059,23.832l2.966-0.059c1.151-0.083,2.041,0.023,2.67,0.296 c0.51,0.202,1.091,0.51,1.72,0.949c0.51,0.272,1.329,0.628,2.432,1.067c0.866,0.391,1.875,1.102,3.026,2.134 c1.898,1.862,3.357,3.972,4.39,6.343c0.453,1.078,0.797,2.174,1.05,3.285v-22.095l-6.983-1.05 c-1.222-0.237-2.052-0.569-2.491-1.008c-0.511-0.593-0.736-1.624-0.653-3.082L325.229,164.196z" class="st2"/><path d="M296.102,335.528c0.296,0.012,0.629,0.071,1.008,0.178c6.17,1.897,12.197,4.363,18.094,7.411 c3.44,1.814,6.229,3.58,8.364,5.276c1.602,1.221,3.464,2.964,5.576,5.217c-0.083-3.367,0.914-6.237,2.966-8.596 c0.817-0.927,1.789-1.639,2.89-2.174v-78.24c-1.312-0.11-2.788-0.436-4.432-0.984c-2.017-0.676-3.286-1.067-3.797-1.185 c-1.459-0.356-2.764-0.51-3.915-0.475c-1.388,0.083-2.634,0.498-3.737,1.245c-1.187,0.83-1.898,1.862-2.136,3.083 c-0.237,1.15,0,2.348,0.712,3.616c0.593,1.032,1.46,1.992,2.61,2.905c0.914,0.712,2.409,1.696,4.509,2.965 c2.052,1.221,3.559,2.229,4.508,3.023c1.543,1.269,2.694,2.692,3.441,4.268c0.831,1.779,1.032,3.498,0.593,5.158 c-0.629,2.099-1.981,3.593-4.034,4.506c-1.815,0.865-3.856,1.103-6.11,0.711c-1.103-0.201-2.883-0.77-5.339-1.719 c-2.254-0.866-4.058-1.364-5.398-1.482c-1.341-0.119-2.587,0.095-3.737,0.652c-1.27,0.593-2.017,1.482-2.255,2.668 c-0.118,0.794,0.083,1.755,0.593,2.905c0.677,1.577,1.044,2.525,1.128,2.845c0.355,1.506,0.083,3-0.831,4.506 c-0.83,1.423-1.993,2.431-3.5,3.024c-1.388,0.557-2.907,0.687-4.568,0.415c-1.198-0.19-2.373-0.581-3.5-1.186v4.15 c0.036,0.083,0.059,0.154,0.059,0.237v19.564C295.983,331.864,296.066,333.702,296.102,335.528z" class="st2"/></g><linearGradient id="SVGID_1_" x1="167.5" x2="167.5" y1="491.779" y2="43.779" gradientTransform="matrix(1 0 0 -1 0 539.7795)" gradientUnits="userSpaceOnUse"><stop offset="0" style="stop-color:#400000;stop-opacity:0"/><stop offset="1" style="stop-color:#400000"/></linearGradient><rect width="335" height="492" y="48" class="st3"/></svg>