<svg xmlns="http://www.w3.org/2000/svg" xml:space="preserve" id="Layer_1" x="0" y="0" viewBox="0 0 335 540"><style>.st0{fill:#002140}.st1{opacity:.1;enable-background:new}.st2{fill:#0185ff}.st3{fill:url(#SVGID_1_)}</style><path d="M0 0h335v540H0z" class="st0"/><g class="st1"><path d="M318.639 81.672c-.024.024-.035.047-.059.059a2.3 2.3 0 0 1-.415.178c-.119.036-.238.083-.356.119-.238.083-.451.154-.653.237a3 3 0 0 0-.593.178c-.119 0-.237.024-.356.059h-.119c-.154.059-.308.119-.474.178-3.524 1.34-6.763 2.786-9.729 4.328l4.271 3.32c4.307 3.486 8.851 7.6 13.644 12.331l.119.119c.024.047.047.083.059.118l2.907 3.083c.107.059.202.119.297.178.059.047.118.083.178.119.711.711 1.4 1.422 2.076 2.134.107-.095.202-.214.296-.356.084-.107.19-.225.297-.356.415-.604 1.103-1.292 2.076-2.075a42 42 0 0 0 2.729-3.142.4.4 0 0 0 0-.178l.166-.195V76.751a136 136 0 0 0-16.42 4.803c.024.059.047.095.059.118m-47.754 381.14c.32.118.593.237.83.355 10.168-2.845 21.333-5.181 33.517-6.995 8.311-1.237 18.242-2.379 29.768-3.426v-44.774l-20.217 1.84c-.439.035-.866.094-1.305.177-.51.083-1.008.154-1.483.237l-37.432 7.055c-.594.154-1.163.32-1.721.475a2.8 2.8 0 0 1-.711.177c-.795.202-1.567.392-2.314.593-.119.036-.214.083-.297.119a47 47 0 0 1-2.313 1.778q-2.26 1.601-2.848 2.312c-.391.558-.652.89-.771 1.008a2.3 2.3 0 0 1-.534.415 29.7 29.7 0 0 0-2.966 5.277 31.3 31.3 0 0 0-2.551 11.204c-.202 5.063.807 9.521 3.026 13.399 2.491 4.422 5.932 7.351 10.322 8.774m60.568-352.268a288 288 0 0 1 3.547 3.843v-7.822c-.486.467-.943.911-1.352 1.311-.736.913-1.46 1.802-2.195 2.668m-1.661 2.075c-6.858 8.489-12.339 15.746-16.432 21.757-7.119 10.47-12.518 20.572-16.195 30.295-.178.498-.38.901-.594 1.185a511 511 0 0 1 8.661-1.363c8.311-1.237 18.242-2.379 29.768-3.426v-42.672c-1.956-2.237-3.577-4.049-4.852-5.419a5 5 0 0 0-.356-.357m-70.89 133.805q2.189 1.6 4.983 1.956c1.862.237 3.642.036 5.339-.593 1.34-.474 2.764-1.28 4.271-2.43 1.696-1.423 2.99-2.49 3.856-3.202 2.456-1.897 4.983-3.26 7.593-4.09q4.449-1.37 8.365-.356c.83.202 1.933.593 3.322 1.186 1.506.628 2.61 1.043 3.322 1.245 3.559.984 6.964.687 10.203-.89.949-.474 2.195-1.268 3.737-2.371 1.697-1.186 2.931-1.992 3.678-2.431a15.9 15.9 0 0 1 6.704-1.956c2.408-.202 4.686.154 6.822 1.067q1.068.48 3.025 1.601.467.284.878.525v-23.354l-20.217 1.842-1.305.178c-.498.059-.996.118-1.483.178l-37.492 7.114c-.557.142-1.127.284-1.72.415q-.249.178-.712.178c-.735.225-1.495.438-2.254.652a3 3 0 0 1-.356.059 31 31 0 0 1-2.254 1.838q-2.26 1.6-2.848 2.312c-.391.557-.652.889-.771 1.008a1.9 1.9 0 0 1-.593.415 32 32 0 0 0-2.907 5.276 31.3 31.3 0 0 0-2.551 11.205c0 .296-.035.593-.059.889q.57-.088 1.424.534m1.008-85.192q1.122 7.594 6.051 11.561c.024.023.036.047.059.059a1 1 0 0 1 .178.237c.107-.047.202-.083.297-.119.581-.177 1.151-.355 1.72-.533a304 304 0 0 1 6.11-1.719c-.047-.036-.106-.072-.178-.119q-3.328-2.259-5.695-4.624a9.6 9.6 0 0 1-1.423-1.482l-2.788-2.905c-1.175-1.316-2.682-3.344-4.509-6.106-.13 2.122-.071 4.043.178 5.75m.653 49.147c2.491 4.422 5.932 7.351 10.322 8.774.308.107.581.213.83.296 10.168-2.81 21.333-5.122 33.517-6.936 8.311-1.237 18.242-2.379 29.768-3.426v-45.043c-7.432.645-14.181 1.346-20.217 2.108a486 486 0 0 0-14.118 2.015c-.511.534-1.484 1.032-2.907 1.483a10 10 0 0 1-1.009.652c-.261.13-.522.213-.771.237-.047.035-.107.083-.178.118-.475.237-1.186.569-2.136 1.008-1.696 1.032-3.049 2.81-4.033 5.336-.594 1.458-.867 2.822-.831 4.09.036.866.32 1.921.831 3.142.747 1.898 1.15 2.941 1.186 3.143a11.3 11.3 0 0 1 .237 5.157c-.356 1.779-1.068 3.344-2.135 4.684a13.8 13.8 0 0 1-2.848 2.668c-.83.675-1.661 1.185-2.491 1.541-1.151.474-2.527.616-4.153.415-1.578-.154-2.847-.534-3.797-1.126-.913-.593-1.637-1.447-2.194-2.55a7.9 7.9 0 0 1-.831-3.32c-.036-2.134.629-4.268 2.017-6.402 1.222-1.897 1.875-2.929 1.958-3.083.984-1.862 1.186-3.676.593-5.454a5.55 5.55 0 0 0-1.424-2.372c-.676-.711-1.459-1.185-2.373-1.422-.712-.202-1.542-.238-2.491-.119q-.837.125-2.492.533c-.973.261-1.661.238-2.076-.059a.9.9 0 0 1-.237.178 33 33 0 0 0-4.094 5.395 35 35 0 0 0-1.898 3.735 31.3 31.3 0 0 0-2.551 11.205c-.202 5.063.807 9.522 3.026 13.399m3.322-74.106a94 94 0 0 0-3.144 11.62 67 67 0 0 0-.712 4.328c.308.118.664.367 1.067.771.712.711 1.756 2.051 3.145 4.031 1.269 1.814 2.372 3.118 3.322 3.913.747.557 1.281 1.008 1.601 1.363.392.356.914.925 1.543 1.72.83.912 2.112 1.932 3.856 3.082 1.779 1.15 3.025 2.016 3.737 2.609a290 290 0 0 1 15.78-3.379c-.036-.048-.071-.107-.119-.178-.225.023-.463.035-.712.059l-15.839-14.643a134 134 0 0 1-12.813-14.406zm-3.322 219.945c2.491 4.423 5.932 7.352 10.322 8.775.32.118.593.237.83.355 10.168-2.845 21.333-5.181 33.517-6.995 8.311-1.237 18.242-2.379 29.768-3.426v-44.774l-20.217 1.839c-.439.036-.866.095-1.305.178-.51.083-1.008.154-1.483.237l-37.432 7.055c-.594.154-1.163.32-1.721.474a2.8 2.8 0 0 1-.711.178c-.795.202-1.567.392-2.314.593-.119.036-.214.083-.297.119a48 48 0 0 1-2.313 1.778q-2.26 1.6-2.848 2.312c-.391.558-.652.89-.771 1.008a2.3 2.3 0 0 1-.534.415 29.7 29.7 0 0 0-2.966 5.276 31.3 31.3 0 0 0-2.551 11.205c-.202 5.063.807 9.521 3.026 13.398M4.527 74.025c-.32.237-1.151.972-2.492 2.193C1.28 76.887.603 77.386 0 77.733v1.208c.389.46.845.88 1.383 1.249l.059.059a58 58 0 0 1 3.619-3.438.8.8 0 0 0 .178.237c2.456-1.779 4.864-2.988 7.237-3.616 2.93-.711 5.636-.557 8.127.474.985.439 2.135 1.15 3.441 2.134 1.424 1.103 2.515 1.921 3.263 2.431q4.68 3.024 9.432 2.49 2.545-.303 4.627-1.601c1.459-.949 2.527-2.158 3.203-3.616.51-1.067.973-1.66 1.364-1.779.51-.202 1.163-.095 1.958.296a57.7 57.7 0 0 0 11.093 3.557c4.354.866 7.653.688 9.907-.534q.837-.409 1.246-1.067.534-.765.178-1.423c-.32-.628-1.127-.913-2.432-.83-2.693.154-4.9.154-6.644 0q-4.858-.409-10.678-2.312c-2.29-.794-5.719-2.134-10.263-4.031-.629-.273-.985-.557-1.068-.83a23 23 0 0 0-3.619-1.008c-.391.036-.688 0-.89-.119a.2.2 0 0 0-.119-.059 21.7 21.7 0 0 0-3.619-.296c-4.354 0-8.341 1.032-11.983 3.083-.949.557-1.685.83-2.195.83-.392-.036-.985-.261-1.78-.652q-5.57-2.721-11.39-.711c-1.222.439-2.159.972-2.788 1.601-.223.225-.511.672-.847 1.292v.974c1.241-.548 2.831-1.126 4.824-1.733.558-.154 1.008-.202 1.364-.119.439.154.688.498.771 1.008s0 .972-.237 1.363c-.237.321-.973.914-2.195 1.78m19.458-4.091c.119-.237.38-.474.771-.711 1.151-.676 2.705-1.008 4.687-1.008 2.693.083 5.197.711 7.534 1.897.831.439 1.424.889 1.78 1.364l.415.534.475.474q.48.48.712 1.067c.558 1.221.451 2.312-.297 3.261-.712.747-1.922 1.091-3.619 1.008-2.492-.237-4.722-.925-6.703-2.075l-4.746-3.023c-.51-.356-.831-.628-.949-.83q-.178-.356-.178-1.067c0-.44.035-.737.118-.891m182.476-53.415V16.4c-.202-1.862-.333-3.023-.416-3.498-.237-1.304-.593-2.395-1.067-3.261a7.3 7.3 0 0 0-2.373-2.668c-1.033-.711-2.136-1.103-3.322-1.186-.677-.083-1.507-.059-2.492.059-1.032.083-1.874.237-2.551.474-.747.32-1.696.948-2.847 1.897-.914.676-1.543 1.304-1.899 1.897-.237.439-.45 1.043-.652 1.838q-.355 1.6-.534 4.091l-.297 3.261q1.994-.463 4.094-.889a3.4 3.4 0 0 1-.06-.652c0-2.336.439-4.055 1.305-5.158.748-.866 1.922-1.482 3.5-1.838 1.222-.237 2.195-.237 2.907 0 1.507.51 2.551 1.743 3.144 3.676.285 1.032.261 1.838-.059 2.431 1.186-.13 2.397-.248 3.619-.355M34.782 334.757c3.002-2.288 6.786-4.007 11.331-5.157a45 45 0 0 1 12.22-1.423c1.981-5.276 3.464-9.853 4.449-13.754-.771.154-1.637.213-2.61.178-2.729-.083-5.197-.652-7.415-1.719q-3.738-1.726-5.695-4.98a14.5 14.5 0 0 1-1.424-3.202 19.1 19.1 0 0 1-.949-6.699c.036-2.336.534-4.505 1.483-6.521a14.35 14.35 0 0 1 4.153-5.336q2.58-2.187 5.695-2.845c-1.827-2.36-4.058-4.874-6.703-7.529h-.059c-.391-.155-.831-.451-1.305-.89a50 50 0 0 0-1.127-1.067l-1.661-1.245c-.51-.439-1.246-1.15-2.195-2.134-.273-.237-.736-.569-1.364-1.008-.51-.391-.914-.747-1.186-1.067a4 4 0 0 0-.356-.415c-3.18-1.589-5.695-3.877-7.534-6.877a16.5 16.5 0 0 1-2.195-5.869q-.48-3.255.356-6.225c.273-.984.712-2.158 1.305-3.498.356-.747.89-1.897 1.602-3.438 2.408-5.454 2.575-9.936.474-13.458-.629-.865-1.091-1.517-1.364-1.956-.51-.795-.831-1.518-.949-2.194-.154-.83-.024-1.802.415-2.905.036-.118.498-1.031 1.364-2.727 1.341-2.573 2.076-5.217 2.195-7.944.119-2.964-.534-5.537-1.958-7.707a122 122 0 0 1-2.195-2.964c-.795-1.186-1.187-2.277-1.187-3.261.036-.984.439-2.051 1.187-3.201q.658-.942 2.136-2.846c1.424-2.169 1.958-4.707 1.602-7.588-.32-2.763-1.341-5.241-3.085-7.411q-4.343-5.317-12.458-6.936a.8.8 0 0 1-.297.178.6.6 0 0 1-.119-.059c-.202-.036-.38-.083-.534-.119h-7.593v.059c-.154 0-.332.024-.534.06a8 8 0 0 0-1.068.178c-.154 0-.297.023-.415.059-.036 0-.083.024-.119.059-.107.036-.214.071-.297.119-.392.047-.7.023-.949-.06-.498.119-.997.238-1.483.356-.32.083-.558.119-.712.119-2.135.729-4.014 1.705-5.654 2.915v10.249a12.5 12.5 0 0 1 2.214-4.034c.985-1.221 2.076-2.158 3.263-2.786q2.011-1.12 3.915-.711c1.388.32 2.468 1.162 3.263 2.549.795 1.34 1.103 2.763.949 4.268q-.054.712-.534 2.668c-.32 1.067-.451 1.933-.415 2.609.036 1.15.569 2.667 1.602 4.565 1.151 2.015 1.803 3.521 1.958 4.505q.41 2.846-2.492 8.359c-1.898 3.557-2.634 6.32-2.195 8.3.202.747.593 1.636 1.187 2.668.914 1.577 1.4 2.431 1.483 2.549 1.305 2.526 1.72 5.419 1.246 8.656-.439 2.845-1.483 5.655-3.144 8.418-.593.949-.925 1.541-1.008 1.779q-.534 1.066-.534 1.956c-.036.439.059 1.031.297 1.778.273.913.439 1.506.474 1.779.32 1.814-.202 3.403-1.542 4.743-1.341 1.304-2.93 1.802-4.746 1.482-2.136-.273-3.797-1.542-4.983-3.794-.098-.181-.169-.386-.256-.577v146.408c.508 1.499.879 2.811 1.087 3.921.61 3.743.236 7.242-1.087 10.503v65.031c4.642-7.668 9.409-13.061 14.316-16.131 1.269-.795 3.061-1.755 5.398-2.905 2.61-1.269 4.414-2.17 5.398-2.727 4.307-2.573 7-5.49 8.068-8.774q.89-2.721.356-5.869c-.356-1.933-1.091-3.795-2.195-5.573-1.115-1.779-2.575-3.439-4.39-4.98a8.7 8.7 0 0 1-1.72-1.067 52 52 0 0 1-1.78-1.423l-.89-.533c-.925-.581-1.436-1.162-1.542-1.72-3.891-3.901-6.917-8.608-9.076-14.109q-4.27-10.903-2.669-22.232.712-4.57 2.136-8.003c.795-1.779 2.112-4.055 3.975-6.818 1.424-2.17 2.669-3.818 3.737-4.921a24 24 0 0 1 5.636-4.565 24 24 0 0 1 4.924-2.075 35 35 0 0 1-.593-2.667 12.3 12.3 0 0 1-.89-2.312 13.14 13.14 0 0 1-.178-6.225c.826-3.997 3.08-7.412 6.758-10.258m-14.89-22.646c-1.507.273-3.144.32-4.924.118-3.405-.438-6.288-1.565-8.661-3.379-2.693-1.932-4.425-4.47-5.22-7.588-.558-2.217-.558-4.565 0-7.055.795-3.439 2.432-6.426 4.924-8.952q1.602-1.6 3.203-2.49 3.56-1.904 9.254-1.245c2.017.202 3.714.617 5.102 1.245 2.1.866 4.034 2.371 5.814 4.506 1.697 2.134 2.788 4.233 3.263 6.284.475 2.016.415 4.126-.178 6.343-.51 2.052-1.448 3.996-2.788 5.81q-3.863 5.21-9.789 6.403m96.399 95.27h39.212v-83.058a15 15 0 0 0-2.61-1.778c-.677-.356-1.839-.854-3.5-1.482-1.507-.593-2.646-1.127-3.441-1.601-2.1-1.34-3.654-3.237-4.687-5.691-.984-2.372-1.328-4.862-1.008-7.47.083-.628.474-2.431 1.186-5.395.558-2.17.772-3.972.653-5.395-.154-1.897-1.127-4.482-2.907-7.766-1.863-3.32-2.883-5.893-3.085-7.707-.273-2.099.202-4.861 1.424-8.3.795-2.098 1.21-3.237 1.246-3.438.439-1.34.688-2.526.771-3.557.083-1.814-.534-4.589-1.839-8.3-1.269-3.593-1.78-6.367-1.542-8.3.118-1.067.806-3.142 2.076-6.225 1.032-2.525 1.4-4.6 1.127-6.225q-.231-1.422-1.602-3.735c-.984-1.695-1.601-2.928-1.839-3.675-.557-1.696-.569-3.415-.059-5.158.119-.356.439-1.126.949-2.312.392-.949.629-1.743.712-2.371.083-.985-.095-1.957-.534-2.905-.439-.949-1.044-1.743-1.839-2.372-1.578-1.221-3.464-1.838-5.635-1.838h-.475c-2.171 0-4.058.617-5.636 1.838-.795.629-1.4 1.423-1.839 2.372s-.617 1.92-.534 2.905c.084.628.321 1.422.712 2.371.511 1.186.831 1.956.95 2.312.51 1.743.498 3.462-.06 5.158-.237.747-.854 1.98-1.839 3.675q-1.37 2.313-1.602 3.735c-.272 1.625.095 3.7 1.128 6.225 1.269 3.083 1.957 5.158 2.076 6.225.237 1.933-.273 4.707-1.542 8.3-1.306 3.711-1.923 6.486-1.839 8.3.083 1.031.332 2.217.771 3.557.035.201.451 1.34 1.245 3.438 1.223 3.439 1.697 6.201 1.424 8.3-.201 1.814-1.222 4.387-3.085 7.707-1.779 3.284-2.752 5.869-2.906 7.766-.119 1.423.095 3.225.652 5.395.712 2.964 1.104 4.767 1.187 5.395.32 2.608-.024 5.098-1.009 7.47-1.032 2.454-2.586 4.351-4.686 5.691-.795.474-1.934 1.008-3.441 1.601-1.661.628-2.824 1.126-3.5 1.482-2.456 1.304-4.485 3.284-6.11 5.928-1.507 2.455-2.432 5.158-2.788 8.122 0 .024-.024.048-.059.06q3.648 3.663 4.627 8.359.659 3.147-.178 6.225-.355 1.245-.889 2.312a35 35 0 0 1-.594 2.667 21.4 21.4 0 0 1 4.924 2.135c2.053 1.15 3.939 2.644 5.636 4.505 1.068 1.103 2.313 2.751 3.737 4.921 1.863 2.763 3.18 5.039 3.975 6.818q1.424 3.432 2.135 8.003 1.602 11.329-2.669 22.232a39 39 0 0 1-1.128 2.549m156.551-137.303a.4.4 0 0 1-.178.06c-.047.237-.142.45-.296.652-.238.32-.807.735-1.721 1.245-2.728 1.541-4.983 3.533-6.762 5.987-.392.558-.736.925-1.009 1.127a1.3 1.3 0 0 1-.652.296 35 35 0 0 0-2.136 4.15 31.3 31.3 0 0 0-2.551 11.205c-.202 5.063.807 9.521 3.026 13.398 2.491 4.423 5.932 7.351 10.322 8.774.32.119.593.237.83.356 10.168-2.846 21.333-5.182 33.517-6.996 8.311-1.237 18.242-2.378 29.768-3.425v-46.825c-7.428.641-14.183 1.344-20.217 2.111-15.269 1.933-29.246 4.565-41.941 7.885" class="st2"/><path d="M264.122 512.255c-.225.261-.463.51-.712.771-5.256 5.418-11.663 9.604-19.22 12.568-6.609 2.608-13.526 4.067-20.763 4.387h-1.958c-.356 0-.676-.024-.949-.059a66 66 0 0 1-7.534-.712l.059-.059a56 56 0 0 1-12.517-3.557c-7.273-2.964-13.466-7.15-18.567-12.568-2.456-2.609-4.331-5.277-5.636-8.004q-1.602-3.379-2.67-8.537a76.8 76.8 0 0 1-1.661-18.615v-.415a2 2 0 0 1-.178-.474v-.89c-.035-.118-.083-.26-.118-.415V66.496c.035-.154.083-.32.118-.474v-7.114l-.059-.059-.119-.474a10 10 0 0 1 0-1.423c0-.237.036-.451.119-.652a.97.97 0 0 1-.297-.711c.036-.391.356-.806.95-1.245 3.606-2.371 8.412-4.375 14.415-5.988V48a252 252 0 0 0 2.195-.474 162.3 162.3 0 0 1 35.297-3.853c11.983 0 23.752 1.281 35.296 3.853q8.063 1.779 12.458 4.269c1.009.522 1.483 1.091 1.424 1.719l.119.178c.083.237.118.593.118 1.067v.356l.059.237v.771c.048.237.095.415.119.534.012.119.012.213 0 .296l.059.178v8.893c.036.154.084.32.119.474v44.048a130 130 0 0 1 2.373-3.024 91.5 91.5 0 0 1 9.788-10.374V60.093c.036-.154.083-.296.119-.415V37.861a2 2 0 0 0 .178-.474v-3.083c.035-.154.083-.32.118-.474.036-.036.06-.083.06-.119-.238-.118-.51-.261-.831-.415-9.408-5.656-20.407-9.663-32.983-12.035-9.812-1.85-21.202-2.644-34.17-2.371a2 2 0 0 1-.296-.237c-.119-.083-.261-.154-.416-.237-.154-.036-.32-.083-.474-.119h-1.483v.059h-.415a2 2 0 0 0-.297.178c-.119.036-.261.083-.415.119-.036.036-.095.059-.178.059a.33.33 0 0 1-.178.178c-.071.047-.131.083-.178.119-10.097.486-19.138 1.672-27.11 3.557-10.762 2.573-20.087 6.462-28.001 11.679a4.7 4.7 0 0 1-1.127.652v2.49c.036.154.095.32.178.474v21.817c.036.119.083.261.119.415v274.724c.154.355.237.865.237 1.541v.771c-.083-.012-.154-.036-.237-.059v33.317c.154.356.237.866.237 1.542v.77c-.083-.011-.154-.035-.237-.059v91.298c-.036.154-.083.32-.119.474v.593c.036.036.06.083.06.119.201.356.296.913.296 1.66v.77c-.142 10.304.202 18.414 1.009 24.307 1.34 9.331 4.01 17.193 8.008 23.595 4.829 7.743 11.9 14.134 21.238 19.149a66 66 0 0 0 4.093 2.016 43 43 0 0 1 6.407.059q.551.054.889.178h1.424v-.059h49.534a54 54 0 0 0 3.619-1.779c.403-2.573 1.115-5.229 2.136-7.944.984-2.727 2.171-5.015 3.559-6.877a23 23 0 0 1 2.669-2.905c.084.036.155.083.238.119q1.424-1.245 3.737-2.846h.059l-.118-.119a1.3 1.3 0 0 0-.356-.059 2 2 0 0 1 .474-.178 19.6 19.6 0 0 1-3.203-1.956m1.72 2.193a.6.6 0 0 1 .119-.177c0 .035.059.059.059.059l.06.059a.6.6 0 0 0-.238.059M182.138 1.164c-2.218 2.288-3.44 5.751-3.677 10.375q-.054.89 0 5.691c0 1.861-.084 3.427-.238 4.683.38-.107.76-.225 1.127-.356a168 168 0 0 1 6.229-1.719c-.107-1.541-.071-3.533.119-5.988.154-1.862.379-3.118.652-3.794.558-1.458 1.922-3.083 4.094-4.861.628-.557 1.15-.925 1.542-1.126.593-.356 1.364-.628 2.314-.83q2.615-.711 4.805-.534c1.981.202 3.796.913 5.457 2.134s2.848 2.763 3.56 4.624c.557 1.423.949 3.498 1.186 6.225v.593c2.005-.142 4.07-.261 6.17-.356.035-2.419.035-3.877 0-4.387-.238-4.624-1.46-8.086-3.678-10.375Q211.535.901 210.373 0h-26.809q-1.16.9-1.426 1.164" class="st2"/><path d="M276.283 112.678c-4.663 6.427-8.412 13.244-11.212 20.453l.059.06 2.551 3.201c2.255 2.881 4.236 5.276 5.933 7.173q1.6 1.726 4.983 4.98a546 546 0 0 0 15.898 14.881c3.903-9.83 9.219-19.789 15.958-29.88 4.829-7.244 10.642-14.916 17.441-23.002a5 5 0 0 1-.356-.356l-.119-.118a126 126 0 0 0-3.381-3.32 29 29 0 0 0-1.187-1.186c-2.491-2.407-5.636-5.276-9.432-8.596a2529 2529 0 0 0-9.67-8.359c-.107-.095-.201-.202-.296-.296-10.595 5.904-19.648 14.026-27.17 24.365m13.763-10.375q1.12-1.725 2.847-1.956c.475.036.914.214 1.305.534.392.32.677.711.831 1.185.237 1.032 0 1.933-.712 2.727-.51.51-1.151.795-1.898.83-.795.083-1.46-.094-2.017-.533-.321-.32-.51-.569-.593-.771-.273-.628-.202-1.304.237-2.016m-2.67 20.869q1.192-1.192 2.314-1.423c1.032-.273 1.874-.024 2.551.77.273.321.439.676.474 1.068.202.794.119 1.482-.237 2.075-.202.272-.652.628-1.364 1.067q-1.3.533-1.78.533c-.747.119-1.459-.095-2.136-.652-.51-.439-.771-.913-.771-1.423-.035-.676.273-1.34.949-2.015m1.661-67.94v4.15c.083.118.143.261.178.415v2.312c.155.13.273.332.356.593.119.439.214.735.297.889.273.628.807 1.091 1.602 1.364.628.202 1.388.237 2.254.119.795-.083 1.34-.237 1.661-.474.356-.273.629-.711.83-1.304.439-1.032.712-2.336.831-3.913.071-.759.142-1.873.237-3.32a238 238 0 0 1-7.356-.652 4.3 4.3 0 0 1-.89-.179m-62.466-44.167-.012.012c.071 2.016.095 3.533.059 4.565v.118c9.907.13 18.972.984 27.17 2.549 10.797 2.122 20.431 5.43 28.89 9.901.119-.13.237-.273.356-.415 1.151-1.387 2.551-3.652 4.212-6.818l2.551-4.802c.747-1.34 1.388-2.229 1.898-2.668q.48-.48 1.424-.889c1.696-.629 3.262-.38 4.686.771.629.474 1.187 1.15 1.661 2.016.593 1.15 1.068 2.763 1.424 4.861l2.254 10.968c.202 1.387.297 2.217.297 2.49 0 1.814-.653 3.439-1.958 4.861-1.151 1.269-2.646 2.158-4.508 2.668-1.46.391-3.263.557-5.399.474-.949-.083-1.625-.237-2.017-.474a1.8 1.8 0 0 1-.534-.415v11.798c.38-.119.855-.154 1.424-.119l5.399.415c6.05.474 11.211.391 15.483-.237.237-.024.451-.047.652-.059.06-.19.119-.391.178-.593.914-3 2.29-5.786 4.153-8.359.866-1.186 2.408-3 4.627-5.454 2.1-2.288 3.619-4.126 4.568-5.513 2.812-4.114 4.307-8.798 4.508-14.05a26.3 26.3 0 0 0-.356-5.513 24.8 24.8 0 0 0-3.144-8.833c-.788-1.315-1.834-2.762-3.094-4.318h-3.748c-.069.254-.135.508-.218.761-.795 2.573-2.136 4.743-4.034 6.521-1.578 1.577-3.358 2.609-5.339 3.083-2.219.593-4.248.379-6.11-.652-1.507-.83-2.587-2.134-3.263-3.913a8.56 8.56 0 0 1-.415-5.158c.024-.094.103-.317.225-.643h-11.586a21 21 0 0 1-2.983 5.018q-3.969 5.033-8.899 5.691a8.76 8.76 0 0 1-5.279-.949c-1.745-.913-2.907-2.194-3.5-3.854-.595-1.793-.441-3.762.437-5.907h-36.269c-1.255 1.551-2.298 2.995-3.084 4.306a26.2 26.2 0 0 0-2.787 6.758m80.382 54.008q1.192-.231 1.601-.534.766-.48 1.602-1.956c.344-.652.593-1.34.771-2.075a28.3 28.3 0 0 1 .416-5.099l-1.543.296c-2.93.439-6.229.593-9.907.474h-.118c-.036 1.85 0 3.249.118 4.209.202 1.743.807 3.047 1.839 3.913 1.187.914 2.931 1.163 5.221.772m-15.958 8.655c-.38-.142-.973-.486-1.78-1.008v21.876c6.692-5.549 14.143-10.055 22.365-13.517a106 106 0 0 1 6.288-2.371l-.415-.652a1.2 1.2 0 0 1-.06-.652q0-.231.178-.534c.024-.059.048-.119.06-.178-1.709-1.743-3.121-3.782-4.212-6.106-.237.439-.617.794-1.127 1.067-1.626 1.032-3.405 1.755-5.339 2.194-1.507.356-3.833.534-7 .534-2.373 0-4.153-.036-5.339-.119-1.389 0-2.587-.178-3.619-.534m-30.432 332.289c2.491 4.423 5.932 7.352 10.322 8.774.32.119.593.238.83.356 10.168-2.846 21.333-5.181 33.517-6.995 8.311-1.237 18.242-2.379 29.768-3.426v-46.825c-7.428.642-14.183 1.345-20.217 2.112-15.269 1.932-29.246 4.565-41.941 7.884a1.5 1.5 0 0 1-.593.178c-.19.237-.51.475-.949.712-.747.355-1.341.676-1.78.948-.557.392-1.305 1.032-2.254 1.897-.475.392-1.21.925-2.195 1.601-.83.593-1.447 1.186-1.839 1.779l-.83 1.422c-.214.38-.534.807-.95 1.305.19 0 .392-.024.594-.06a26.6 26.6 0 0 0-1.958 3.735 31.3 31.3 0 0 0-2.551 11.205c-.202 5.063.807 9.521 3.026 13.398m-14.416-285.098c1.626-2.763 2.349-5.846 2.195-9.249-.202-3.403-1.222-6.426-3.085-9.07a14.8 14.8 0 0 0-2.55-2.905c-1.863-1.66-4.094-2.94-6.704-3.854a19.1 19.1 0 0 0-7.296-.949c-2.575.202-4.948.866-7.119 2.016-3.88 2.051-6.644 5.252-8.305 9.604-1.626 4.233-1.721 8.264-.297 12.094.949 2.608 2.587 4.861 4.924 6.758a19.2 19.2 0 0 0 7.534 3.794h.118l-.118.119c-2.456 2.17-3.595 4.47-3.441 6.877 0 .32.142 1.031.415 2.134l.594 1.719c.272.558.771 1.186 1.483 1.897 1.934 2.016 4.117 3.225 6.525 3.617a7.5 7.5 0 0 0 3.619-.178c.593-.154 1.447-.557 2.551-1.186 1.032-.557 1.756-1.067 2.195-1.541.628-.629 1.245-1.636 1.839-3.024.628-1.458.972-2.786 1.008-3.972.083-1.387-.237-2.751-.949-4.09a8.9 8.9 0 0 0-2.788-3.142 7 7 0 0 0-.475-.297c3.583-1.517 6.288-3.912 8.127-7.172m4.983-47.783c.439-1.221.451-2.371.06-3.438-.356-.866-.949-1.601-1.78-2.194a5.7 5.7 0 0 0-2.729-.948c-.866-.119-1.637-.024-2.313.296-.356.154-.807.51-1.365 1.067-.676.83-1.068 1.743-1.186 2.727-.155 1.103.035 2.051.593 2.846a5 5 0 0 0 1.424 1.364q1.014.712 1.779.889c1.626.474 3.026.213 4.212-.771.558-.439.985-1.044 1.305-1.838m-55.703 18.378c1.388-.083 2.432-.273 3.144-.593 1.269-.557 2.195-1.447 2.788-2.668a6.76 6.76 0 0 0 .83-3.735q0-2.08-.889-3.557l-1.009-1.245c-.676-.747-1.222-1.245-1.661-1.482-.391-.202-.985-.415-1.78-.652l-1.423-.356q-1.656-.231-3.56.534c-.984.51-1.934 1.245-2.847 2.194-.261.261-.51.569-.771.948-.036 2.312-.071 4.624-.119 6.936.724 1.541 1.768 2.609 3.144 3.201.949.392 2.337.558 4.153.475m-4.449 129.299c.984.628 2.1.948 3.322.948q1.832-.053 3.203-1.067c.949-.675 1.578-1.624 1.898-2.845.321-1.222.202-2.336-.356-3.32-.356-.83-1.044-1.577-2.076-2.253s-1.958-1.008-2.788-1.008c-1.187 0-2.314.439-3.381 1.304-1.46 1.269-2.195 2.644-2.195 4.15 0 1.696.795 3.059 2.373 4.091m22.008 40.847c.949 2.608 2.587 4.861 4.924 6.758a19.2 19.2 0 0 0 7.534 3.794q6.05 1.477 11.746-.711c3.998-1.506 6.976-4.008 8.957-7.529 1.626-2.763 2.349-5.846 2.195-9.248-.202-3.403-1.222-6.427-3.085-9.071a14.8 14.8 0 0 0-2.55-2.905c-1.863-1.66-4.094-2.94-6.704-3.853a19 19 0 0 0-7.296-.949c-2.575.202-4.948.866-7.119 2.016-3.88 2.051-6.644 5.252-8.305 9.604-1.626 4.233-1.721 8.264-.297 12.094m36.602-80.508q-.125-2.49-1.424-3.735-.711-.712-2.135-1.245c-1.424-.557-2.516-.771-3.263-.652-1.578.272-2.812 1.505-3.678 3.675q-.765 1.903-.534 3.202c.202 1.505 1.009 2.632 2.432 3.379 1.222.711 2.634.925 4.212.652q3.15-.534 4.093-2.846c.273-.675.38-1.482.297-2.43m-44.492 1.185q3.862-.942 5.695-4.624c1.151-2.288 1.365-4.743.653-7.351l-.594-1.482a9 9 0 0 0-1.127-1.364c-.949-.984-1.696-1.695-2.254-2.134-.913-.711-1.815-1.162-2.729-1.363-.439-.119-1.103-.178-2.017-.178-1.981 0-3.417.201-4.33.592-.321.155-.914.534-1.78 1.127l-1.839 1.482q-2.544 2.49-2.669 6.047c0 2.454.866 4.648 2.61 6.581 1.388 1.541 2.907 2.466 4.568 2.786l2.135.178c1.661 0 2.883-.095 3.678-.297m66.619 330.629c10.168-2.845 21.333-5.181 33.517-6.995 8.311-1.237 18.242-2.379 29.768-3.426V455.72c-7.428.641-14.183 1.344-20.217 2.112-15.269 1.933-29.246 4.565-41.941 7.885a.6.6 0 0 1-.178.118c-.035.202-.142.392-.296.593-.238.32-.807.735-1.721 1.245-2.728 1.541-4.983 3.533-6.762 5.988-.392.557-.736.925-1.009 1.126a2.6 2.6 0 0 1-.593.356 27 27 0 0 0-2.195 4.09 31.3 31.3 0 0 0-2.551 11.205c-.202 5.063.807 9.521 3.026 13.399 2.491 4.422 5.932 7.351 10.322 8.774.32.118.593.237.83.355m43.068-5.335c-.439.035-.866.095-1.305.178-.51.083-1.008.154-1.483.237l-37.432 7.055c-.594.154-1.163.32-1.721.474a3 3 0 0 1-.711.178c-.795.201-1.567.391-2.314.592-.119.036-.214.083-.297.119a48 48 0 0 1-2.313 1.779q-2.26 1.6-2.848 2.312c-.391.557-.652.889-.771 1.008a2.4 2.4 0 0 1-.534.415 29.7 29.7 0 0 0-2.966 5.276c-1.281 3-2.1 6.082-2.432 9.248a.3.3 0 0 1-.059.119c-.036.083-.084.154-.119.237v.237c-.036.083-.083.154-.119.237v2.431c.036.083.083.154.119.237H335v-34.209zM190.052 540h3.5c-.32-.13-.641-.261-.973-.415-.842.107-1.685.261-2.527.415m11.722-.415c-1.032 0-2.076-.024-3.144-.059-.593-.036-1.21-.06-1.839-.06a8 8 0 0 0-.89-.059c-.095-.035-.201-.071-.296-.118a7 7 0 0 1-.712.059v.059c-.119.154-.214.297-.297.415-.047.059-.071.119-.107.178h60.046c0-.142-.011-.273-.011-.415zM4.883 531.167Q3.705 528.01 0 522.484V540h6.082c.237-3.047-.155-5.988-1.199-8.833M110.714 85.111c-5.374-5.016-11.306-9.094-17.796-12.213-3.524-1.695-7.831-3.379-12.932-5.039-4.425-1.423-8.21-2.395-11.331-2.905-3.797-.628-8.815-.948-15.068-.948-5.019 0-9.1.178-12.22.534.949.439 1.875.925 2.788 1.482q.303.178.534.356 5.286 1.903 8.187 2.846 6.407 2.188 11.034 2.134a39 39 0 0 1 2.61-.119q1.548-.054 2.669.178c.914.154 1.72.498 2.432 1.008.747.557 1.246 1.245 1.483 2.075.439 1.423 0 2.786-1.305 4.091-.914.866-2.23 1.518-3.974 1.956-3.002.711-6.502.628-10.5-.237q-2.367-.534-10.322-3.201c-.866 1.897-2.278 3.474-4.212 4.743q-2.722 1.832-6.051 2.134c-4.117.356-8.127-.889-12.042-3.735a150 150 0 0 1-2.729-2.075c-1.068-.794-2.041-1.34-2.907-1.66-2.053-.711-4.331-.676-6.822.119-1.388.474-3.049 1.281-4.983 2.431A64.5 64.5 0 0 0 0 86.263v4.902c.91.227 2.14.19 3.697-.125 2.729-.391 4.805-.913 6.229-1.541.629-.32 1.4-.771 2.314-1.364 1.388-.913 2.136-1.399 2.254-1.482 1.863-1.15 3.536-1.636 5.042-1.482.985.119 1.922.51 2.788 1.186.795.628 1.4 1.423 1.839 2.371.202.154.415.379.653.652 1.151 1.387 2.729 2.051 4.746 2.016q2.67-.053 4.271-1.779h.356l.475-.119a2 2 0 0 0 .297-.237 2 2 0 0 0 .297-.237l.237-.237a.33.33 0 0 1 .178-.178c.036-.083.083-.154.119-.237a.6.6 0 0 0 .059-.237v-.237l.119-.119c.32-.036.652.083 1.008.356l1.009 1.008q2.136 2.259 5.517 2.49c2.29.154 4.247-.415 5.873-1.719.949-.794 1.661-1.186 2.136-1.186.51 0 1.246.439 2.195 1.304 1.578 1.458 3.559 2.217 5.932 2.253 2.337 0 4.307-.688 5.932-2.075.439-.356.747-.617.949-.771.392-.273.771-.439 1.127-.474q.587-.054 1.246.356c.558.32.949.557 1.187.711q2.901 1.956 6.585 1.601c2.456-.202 4.508-1.103 6.169-2.727.747-.747 1.364-1.126 1.839-1.126.439.036 1.009.415 1.72 1.126 1.578 1.577 3.583 2.348 5.992 2.312s4.366-.866 5.873-2.49c.558-.629 1.008-.984 1.364-1.067.558-.154 1.341.202 2.373 1.067 1.459 1.15 3.168 1.719 5.102 1.719 1.186-.036 2.23-.379 3.144-1.008.985-.711 1.459-1.577 1.424-2.609 0-.202-.024-.498-.06-.889v-.119a5 5 0 0 1-.892-.711m12.043 442.261c.712-1.458 1.981-3.497 3.796-6.106 1.863-2.691 3.145-4.743 3.856-6.165 2.338-4.506 3.5-10.043 3.5-16.6-.035-8.146-1.803-15.805-5.279-23.002-3.643-7.553-8.685-13.434-15.127-17.667-1.27-.83-3.239-1.957-5.933-3.379-2.645-1.459-4.603-2.609-5.873-3.439-4.591-3-7.474-6.403-8.661-10.197-.676-2.098-.831-4.351-.475-6.758.392-2.253 1.21-4.411 2.432-6.462 2.136-3.522 5.398-6.616 9.788-9.308 3.287-3.083 5.992-6.675 8.127-10.79 2.646-5.134 4.153-10.528 4.509-16.184.391-7.387-1.068-13.956-4.39-19.683a29.4 29.4 0 0 0-6.585-7.825c-1.898-1.542-3.891-2.787-5.991-3.735a26 26 0 0 0-2.907-1.127c-.629-.154-1.091-.355-1.364-.592a2.6 2.6 0 0 1-.415-.534l.059-.059c0-.083.024-.142.059-.178 0-.083.024-.154.059-.237s.095-.154.178-.237c0-.083.024-.154.059-.237 0-.083.024-.143.059-.178a.8.8 0 0 1 .178-.237c0-.083.024-.155.059-.238 0-.083.024-.154.059-.237a.6.6 0 0 0 .059-.178c.036-.083.083-.154.119-.237 0-.083.024-.154.059-.237 0-.083.024-.154.059-.237a.8.8 0 0 1 .178-.237c0-.036.024-.095.059-.178v-.237c0-.083.024-.154.059-.237v-.237s.059-.095.059-.178a.8.8 0 0 0 .178-.237v-.238c0-.083.024-.154.059-.237l.178-.177c0-.083.024-.155.059-.238 0-.083.024-.154.059-.237v-.237s.059-.095.059-.178c.036-.083.083-.154.119-.237 0-.083.024-.154.059-.237v-.237s.024-.095.059-.178v-2.964c.154-.273.297-.534.415-.771q0-.89-.178-1.778c-.593-3.166-2.527-5.964-5.814-8.419-3.405-2.525-7.676-4.233-12.814-5.098-3.085-.51-7.736-.807-13.941-.89-.415-.035-.747-.118-1.009-.237a1.8 1.8 0 0 1-.534.178 16 16 0 0 0-1.009-.296h-3.263v.118a8 8 0 0 0-1.068.178c-.949.083-1.898.178-2.847.297h-.059c-2.48.166-4.544.379-6.169.652-5.137.865-9.409 2.573-12.814 5.098-3.286 2.455-5.22 5.253-5.814 8.419a11 11 0 0 0-.178 1.719c.13.272.273.533.415.77v3.024a.6.6 0 0 1 .059.178v.237a.6.6 0 0 1 .059.237l.119.237c0 .083.024.143.059.178v.237a.6.6 0 0 1 .059.237.6.6 0 0 1 .059.238l.178.177a.6.6 0 0 1 .059.237v.238a.8.8 0 0 0 .178.237c0 .083.024.142.059.178v.237a.6.6 0 0 1 .059.237v.237a.6.6 0 0 1 .059.178.8.8 0 0 1 .178.237.6.6 0 0 1 .059.237.6.6 0 0 1 .059.237c.036.083.083.154.119.237 0 .036.024.095.059.178a.6.6 0 0 1 .059.237.6.6 0 0 1 .059.238.8.8 0 0 1 .178.237c.036.035.059.095.059.178a.6.6 0 0 1 .059.237.8.8 0 0 1 .178.237.6.6 0 0 1 .059.237c.036.036.059.095.059.178-.071.237-.19.439-.356.593-.273.237-.736.438-1.364.592-.985.309-1.958.665-2.907 1.068-2.112.972-4.105 2.241-5.992 3.794a29.4 29.4 0 0 0-6.585 7.825c-3.322 5.727-4.781 12.296-4.39 19.683.356 5.656 1.863 11.05 4.508 16.184 2.148 4.115 4.841 7.707 8.068 10.79 4.449 2.668 7.724 5.774 9.848 9.308 1.222 2.051 2.041 4.209 2.432 6.462.356 2.407.202 4.66-.474 6.758-1.187 3.794-4.07 7.197-8.661 10.197-1.269.83-3.227 1.98-5.873 3.439-2.693 1.422-4.663 2.549-5.932 3.379C9.403 462.065 4.36 467.946.718 475.499c-.26.537-.49 1.082-.731 1.625v39.855q1.068 1.774 2.807 4.287c1.815 2.609 3.085 4.648 3.797 6.106 1.946 3.925 2.788 8.134 2.551 12.628h111.051c-.224-4.494.618-8.703 2.564-12.628M.612 168.465c2.539-1.281 5.125-1.957 7.771-2.016.214-.047.427-.083.653-.118 1.697-.356 3.998-.534 6.881-.534 2.337 0 4.117.213 5.339.652 2.409.166 4.781.842 7.119 2.016 3.358 1.66 5.909 4.055 7.653 7.173q.106.178.178.356c1.922-1.281 3.37-2.941 4.331-4.98.819-1.885 1.092-3.806.831-5.751-.059-.415-.13-.83-.237-1.244-.866-3.522-3.405-6.344-7.593-8.478-1.424-.747-3.239-1.482-5.458-2.194a92 92 0 0 1-2.67-.83 3.2 3.2 0 0 1-.83 0 50.4 50.4 0 0 0-18.331-.652 69 69 0 0 0-3.915.771 40 40 0 0 0-2.332.606v15.552c.202-.11.4-.225.61-.329M.256 93.648a66 66 0 0 0 6.348 6.403l.059-2.905c0-1.387-.036-2.407-.119-3.083a6 6 0 0 1-.059-.711c-2.136.509-4.212.616-6.229.296" class="st2"/><path d="M135.274 483.561c.676 2.763 1.091 6.996 1.246 12.687.011.593.011 1.162 0 1.719h21.118a214 214 0 0 1-.593-3.26c-.949-5.656-1.341-12.094-1.186-19.327 0 0-.06-.083-.06-.119v-1.837c-.035-.119-.083-.261-.118-.415v-3.024h-26.695c.201.344.391.676.593 1.008 2.883 4.861 4.781 9.047 5.695 12.568M4.171 224.014c-.202-.865-.736-1.838-1.602-2.905a288 288 0 0 0-2.254-2.667c-.119-.171-.207-.367-.315-.546v15.581c.5-1.086 1.429-2.539 2.807-4.364 1.222-1.862 1.685-3.557 1.364-5.099m13.585-125.86c1.898-1.34 3.18-3 3.856-4.98.356-1.032.451-1.956.297-2.786-.202-1.031-.712-1.779-1.542-2.253-.795-.391-1.72-.415-2.788-.059-.558.202-1.4.676-2.551 1.423v.059c.154.202.297.51.415.949.32 1.269.475 3.201.475 5.81 0 1.269-.024 2.229-.059 2.905a16 16 0 0 0 1.897-1.068m-5.991 2.193a25 25 0 0 0 1.72-.296 3.3 3.3 0 0 1-.119-.949 112 112 0 0 1 0-4.921c.083-.794.095-1.399.059-1.838-.119-.794-.178-1.364-.178-1.719a34 34 0 0 1-4.805 2.194c0 .036.024.095.059.178.356.913.534 2.11.534 3.616v4.031zm32.271 27.627c2.883 1.387 7.036 1.577 12.458.592 2.646-.474 4.414-1.339 5.28-2.608 1.068-1.696.973-3.735-.297-6.106a8.5 8.5 0 0 1-.415-1.186c-6.763.628-13.312.557-19.636-.237-.083.273-.154.593-.237.948-.866 2.846-.807 5.004.178 6.462q.765 1.299 2.669 2.135m10.026-3.972c.083-.392.178-.688.297-.89.32-.711.866-1.067 1.661-1.067.831.083 1.341.498 1.542 1.245.083.356.059.712-.059 1.067-.083.593-.273 1.091-.593 1.482-.439.392-.973.558-1.602.475-.712-.155-1.163-.534-1.364-1.127-.084-.237-.037-.628.118-1.185m-7.89-1.72c.273-.32.771-.474 1.483-.474.439 0 .736.036.89.119.391.154.676.498.831 1.007.154.439.154.89 0 1.364a1.7 1.7 0 0 1-.712 1.008c-.32.273-.712.391-1.186.356-.51-.036-.914-.214-1.187-.534-.32-.439-.475-1.008-.475-1.719.083-.558.202-.925.356-1.127M4.29 196.328c-.083-1.15-.676-2.489-1.78-4.031-1.368-1.858-2.205-3.128-2.51-3.825v15.995a973 973 0 0 1 2.629-3.633c1.187-1.66 1.744-3.166 1.661-4.506m104.052 222.613c-.119.558-.629 1.127-1.543 1.72q-.48.231-.89.533l-1.779 1.423c-.594.474-1.163.83-1.721 1.067-1.815 1.541-3.286 3.201-4.39 4.98-1.103 1.778-1.839 3.64-2.195 5.573-.261 1.517-.273 2.952-.059 4.327h59.738v-28.278h-40.695a39 39 0 0 1-6.466 8.655m-4.094 29.939c.985.557 2.788 1.458 5.399 2.727 2.337 1.15 4.128 2.11 5.398 2.905q6.194 3.877 12.102 12.627c9.515.024 19.03.048 28.534.06v-2.194a2 2 0 0 1-.178-.474v-23.002H96.714c1.341 2.715 3.856 5.157 7.534 7.351m-5.161-347.288q.712-.534 1.068-.711c.439-.273.831-.415 1.186-.415.475.035.926.213 1.365.533a84 84 0 0 0 8.008-6.521 2.9 2.9 0 0 1 1.424-.889c.831-.984 1.637-1.458 2.432-1.423.392 0 1.127.32 2.195.949 1.899 1.067 4.355 1.601 7.356 1.601 3.002 0 5.078-.498 6.585-1.482a5.55 5.55 0 0 0 2.254-2.609c.475-1.15.499-2.229.06-3.261-.356-.913-1.033-1.624-2.017-2.134-.831-.474-1.804-.747-2.907-.83-.866-.036-1.863.035-2.966.237-.677.119-1.661.332-2.966.652-.712.154-1.27.142-1.661-.059-.677-.391-.926-1.387-.772-2.964q.588-4.677-1.067-10.849-.481-2.01-1.602-2.49c-.629-.273-1.305-.202-2.017.237-.475.32-.985.83-1.542 1.541a54 54 0 0 0-4.924 7.114c-.154.32-.321.593-.475.83 2.29 1.862 3.951 3.652 4.983 5.395.119.201.202.391.238.593q.177.054.356.178c.51.439.806 1.103.889 2.016.036 1.304-.415 2.549-1.364 3.735a7.24 7.24 0 0 1-3.381 2.312c-2.373.747-5.078.534-8.128-.652-.593-.273-1.091-.391-1.483-.356q-.409.053-1.245.534c-2.219 1.269-4.651 1.838-7.297 1.719-2.729-.154-5.125-.984-7.178-2.49-2.29 1.814-5.007 2.81-8.127 2.964s-5.932-.557-8.424-2.134c-2.373 1.779-5.137 2.644-8.305 2.609q-4.752-.053-8.186-2.846c-1.863 1.423-4.01 2.217-6.466 2.371s-4.663-.356-6.644-1.541c-.949-.628-1.72-.949-2.314-.949-.32.036-.866.273-1.661.711-2.171 1.15-4.271 1.624-6.288 1.423a7.65 7.65 0 0 1-3.085-1.008c-.154-.083-.297-.154-.415-.237a3 3 0 0 1-.178.593c-.202.676-.617 1.482-1.246 2.431a16.8 16.8 0 0 1-3.975 4.21c.475.118 1.032.474 1.661 1.067 1.388 1.221 3.049 1.98 4.983 2.252 1.898.238 3.702-.035 5.398-.83a40 40 0 0 1 1.898-.948c.712-.273 1.364-.356 1.958-.237.475.083 1.186.45 2.136 1.126 1.625 1.032 3.417 1.565 5.398 1.601q2.972.053 5.339-1.423 1.548-.89 2.136-.889c.392.035 1.127.415 2.195 1.126q1.548 1.12 3.915 1.423c1.032.154 2.492.213 4.39.178 2.373 0 4.034-.391 4.983-1.186l.771-.771c.356-.272.676-.474.949-.592.475-.202 1.008-.178 1.602.059.356.118.89.391 1.602.83 2.29 1.304 4.568 1.897 6.822 1.778 2.575-.118 4.651-1.09 6.229-2.905.558-.628.89-1.007 1.008-1.126.392-.356.795-.533 1.186-.533q.765 0 1.958 1.067c1.578 1.304 3.464 1.98 5.636 2.015 2.171.082 4.093-.499 5.754-1.72" class="st2"/><path d="M79.985 111.73c5.102-1.66 9.409-3.344 12.932-5.039a6 6 0 0 1 .89-.415c-.439 0-.854-.024-1.246-.06-2.456-.154-4.651-.889-6.585-2.193q-3.506 3.147-8.542 3.557c-3.358.272-6.371-.451-9.017-2.194-2.337 1.387-4.865 2.17-7.593 2.372-2.764.201-5.398-.202-7.89-1.186-1.305-.51-2.23-.794-2.788-.83-.475-.036-1.068.036-1.78.237-.391.119-.985.32-1.78.593-1.625.557-3.298.747-5.042.593-1.78-.154-3.417-.629-4.924-1.423-1.186-.557-1.981-.83-2.373-.83-.273.036-.831.237-1.661.593-2.254.984-4.663 1.28-7.237.889-2.527-.439-4.71-1.482-6.525-3.142-.475-.439-.795-.925-.949-1.482a1.26 1.26 0 0 1-.059-.652c-.237.118-.498.261-.771.415-2.1 1.067-4.271 1.6-6.525 1.6a68 68 0 0 0 6.525 4.21c7.32 4.067 15.009 6.604 23.076 7.588 3.286.439 7.771.652 13.466.652 6.253 0 11.271-.32 15.068-.948 3.12-.51 6.905-1.482 11.33-2.905" class="st2"/></g><linearGradient id="SVGID_1_" x1="167.5" x2="167.5" y1="491.779" y2="43.779" gradientTransform="matrix(1 0 0 -1 0 539.78)" gradientUnits="userSpaceOnUse"><stop offset="0" style="stop-color:#002140;stop-opacity:0"/><stop offset="1" style="stop-color:#002140"/></linearGradient><path d="M0 48h335v492H0z" class="st3"/></svg>