<svg xmlns="http://www.w3.org/2000/svg" xmlns:xlink="http://www.w3.org/1999/xlink" id="Layer_1" x="0" y="0" version="1.1" viewBox="0 0 335 540" xml:space="preserve" style="enable-background:new 0 0 335 540"><style type="text/css">.st0{fill:#134038}.st1{opacity:.1;enable-background:new}.st2{fill:#50eef6}.st3{fill:url(#SVGID_1_)}</style><rect width="335" height="540" y="0" class="st0"/><g class="st1"><path d="M36.432,146.47c-0.558-1.778-1.222-3.462-2.017-5.039c-1.981-3.83-4.924-6.877-8.839-9.13 c-3.88-2.288-7.973-3.379-12.28-3.26c-1.068,0-1.78-0.083-2.136-0.237c-0.356,0.154-1.068,0.237-2.136,0.237 c-3.121-0.086-6.128,0.472-9.025,1.652v13.568c2.054-1.502,4.469-2.547,7.245-3.126c2.931-0.593,6.015-0.617,9.254-0.06 c1.863,0.356,3.298,0.866,4.331,1.542c0.747,0.474,1.72,1.423,2.907,2.845c1.934,2.336,3.18,4.305,3.737,5.929 c0.237,0.557,0.475,1.423,0.712,2.608c0.629,3.356,0.795,6.285,0.475,8.775c-0.024,0.379-0.083,0.675-0.178,0.889v0.356 c0.036,0.035,0.083,0.094,0.119,0.177v3.142c0,0.083,0.024,0.155,0.059,0.238v14.643c0.036,0.083,0.059,0.154,0.059,0.237v51.459 c0,0.083-0.059,0.178-0.059,0.178v3.142c-0.036,0.083-0.059,0.154-0.059,0.237v0.296c0.024,0.143,0.047,0.285,0.059,0.415 c0.119,2.81-0.261,5.431-1.127,7.885c-1.459,4.186-3.88,7.15-7.237,8.893c-3.239,1.66-7.51,2.015-12.814,1.067 c-2.883-0.51-5.102-1.281-6.644-2.312C0.56,253.527,0.28,253.317,0,253.088v12.019c2.897,1.18,5.904,1.738,9.025,1.652 c1.068,0,1.78,0.083,2.136,0.237c0.356-0.154,1.068-0.237,2.136-0.237c4.307,0.119,8.4-0.972,12.28-3.26 c3.915-2.253,6.858-5.3,8.839-9.13c0.795-1.577,1.459-3.261,2.017-5.039c1.27-4.186,1.934-8.597,2.017-13.221 c-0.036-2.051-0.059-3.592-0.059-4.624c0-1.34,0.083-2.549,0.237-3.616c0,0.035,0.059,0.059,0.059,0.059v-1.541l0.119-0.238v-0.177 c0-0.083,0.024-0.154,0.059-0.237c0-0.083,0.024-0.155,0.059-0.238s0.083-0.142,0.119-0.177c0.036-0.475,0.391-0.795,1.068-0.949 c0.356-0.083,0.89,0,1.602,0.237c0.237,0.083,2.231,0.889,5.992,2.431c2.408,1.031,4.485,1.565,6.229,1.6 c1.459,0.083,2.847-0.118,4.152-0.592c1.27-0.475,2.456-1.15,3.559-2.016c2.254-1.624,3.856-3.652,4.805-6.106 c1.032-2.692,1.068-5.253,0.119-7.707c-0.51-1.423-1.424-2.81-2.729-4.15c-0.831-0.949-2.076-2.099-3.737-3.439l-5.814-4.802 c-0.831-0.676-1.21-1.28-1.127-1.838v-0.177c-0.083-0.558,0.297-1.162,1.127-1.838l5.814-4.802c1.661-1.34,2.907-2.49,3.737-3.439 c1.305-1.34,2.219-2.727,2.729-4.15c0.949-2.454,0.914-5.015-0.119-7.707c-0.949-2.454-2.551-4.482-4.805-6.106 c-1.103-0.865-2.29-1.541-3.559-2.016c-1.305-0.474-2.693-0.675-4.152-0.592c-1.744,0.035-3.82,0.569-6.229,1.6 c-3.761,1.542-5.754,2.348-5.992,2.431c-0.712,0.237-1.246,0.32-1.602,0.237c-0.676-0.154-1.032-0.474-1.068-0.949 c-0.036-0.035-0.083-0.094-0.119-0.177s-0.059-0.155-0.059-0.238c-0.036-0.083-0.059-0.154-0.059-0.237v-0.177 c-0.036-0.083-0.083-0.155-0.119-0.238v-1.541c-0.036,0-0.059,0.024-0.059,0.059c-0.154-1.067-0.237-2.276-0.237-3.616 c0-1.032,0.024-2.573,0.059-4.624C38.366,155.067,37.701,150.656,36.432,146.47z M50.313,175.698 c0.593-0.392,1.21-0.653,1.839-0.771c1.068-0.154,2.456,0.32,4.153,1.423c0.985,0.711,1.685,1.422,2.076,2.134 c0.237,0.593,0.391,1.34,0.474,2.253c0.083,1.577-0.154,2.762-0.712,3.557c-0.475,0.676-1.246,1.185-2.314,1.541 c-1.981,0.676-3.773,0.569-5.398-0.296c-0.866-0.475-1.542-1.15-2.017-2.016c-0.51-0.865-0.771-1.814-0.771-2.846 C47.644,178.626,48.534,176.966,50.313,175.698z M48.415,212.276c0.475-0.866,1.151-1.541,2.017-2.016 c1.625-0.865,3.417-0.972,5.398-0.296c1.068,0.356,1.839,0.865,2.314,1.541c0.558,0.795,0.795,1.98,0.712,3.557 c-0.083,0.913-0.237,1.66-0.474,2.253c-0.391,0.712-1.091,1.423-2.076,2.134c-1.697,1.103-3.085,1.577-4.153,1.423 c-0.629-0.118-1.246-0.379-1.839-0.77c-1.78-1.269-2.67-2.929-2.67-4.98C47.644,214.09,47.905,213.142,48.415,212.276z" class="st2"/><path d="M81.279,73.847c-0.083-1.779-0.273-3.237-0.593-4.387c-0.474-1.66-1.246-2.929-2.314-3.794 c-0.831-0.676-1.815-1.043-2.966-1.126c-1.068-0.119-2.112,0-3.144,0.356c-1.186,0.557-2.076,1.245-2.669,2.075 C69,67.8,68.502,69.187,68.11,71.12c-0.083,0.391-0.178,0.688-0.297,0.889c0,3.996-0.059,7.612-0.178,10.849 c1.697-0.32,3.619-0.569,5.754-0.771c1.507-0.154,3.797-0.273,6.881-0.356c0.439-0.036,0.854-0.036,1.246,0 c-0.119-0.794-0.154-1.838-0.119-3.142L81.279,73.847z" class="st2"/><path d="M122.864,103.193c0.558-0.629,0.89-1.269,1.009-1.897c0.036-0.19,0.059-0.392,0.059-0.593v-0.06 c0-0.118-0.023-0.248-0.059-0.414c-0.083-0.487-0.309-1.02-0.653-1.601c-0.747-1.067-1.328-1.873-1.72-2.431 c-0.997-1.411-1.637-3-1.898-4.743c-0.321-0.071-0.724-0.202-1.187-0.415c-2.693-1.387-5.078-2.371-7.178-2.964 c-0.866-0.273-1.388-0.498-1.542-0.652c-0.178-0.13-0.321-0.261-0.415-0.415c-0.748-0.024-1.792-0.202-3.144-0.534 c-3.916-0.865-8.329-1.399-13.229-1.601c-2.966-0.083-7.392-0.083-13.288,0c-4.188,0.118-7.32,0.332-9.373,0.652 c-0.724,0.107-1.388,0.166-1.958,0.178c-0.012,0.024-0.036,0.047-0.059,0.059c-0.202,0.119-0.676,0.261-1.424,0.415 c-2.705,0.356-5.054,0.771-7.06,1.245c3.192,1.648,6.336,3.486,9.432,5.513c5.742,3.782,11.105,8.087,16.076,12.924 c2.836-0.214,5.719-0.214,8.661,0c1.625,0.035,3.464,0.201,5.517,0.474c5.932,0.794,11.746,2.193,17.441,4.209 c0.178,0.083,0.332,0.154,0.474,0.237c0.724-2.229,2.029-4.245,3.916-6.047C122.295,103.786,122.829,103.276,122.864,103.193z" class="st2"/><path d="M138.348,169.058c2.384-0.297,4.971-0.237,7.771,0.178l-1.958-6.403c-0.237,0.035-0.593,0.059-1.068,0.059 c-3.678-0.32-5.754-0.474-6.229-0.474c-0.308,0-0.593-0.024-0.83-0.059c0.629,2.086,1.258,4.339,1.898,6.758 C138.075,169.093,138.217,169.07,138.348,169.058z" class="st2"/><path d="M144.339,186.309c1.661-0.272,2.966-0.438,3.915-0.474c1.033-0.024,1.982,0.036,2.848,0.178l-1.542-5.217 h-0.238l-7.771-0.356c-0.249-0.023-0.463-0.071-0.653-0.118c0.594,2.324,1.151,4.434,1.661,6.343 C142.832,186.606,143.426,186.487,144.339,186.309z" class="st2"/><path d="M101.39,69.578c-0.392-1.577-1.127-2.786-2.195-3.616c-0.985-0.747-2.314-1.126-3.975-1.126 c-1.27,0.083-2.337,0.297-3.203,0.652l-0.415,0.237l-0.475,15.829v0.119c1.542,0.036,2.907,0.083,4.093,0.119 c2.337,0.119,4.544,0.332,6.644,0.652c-0.035-0.32-0.059-0.617-0.059-0.889v-7.648C101.722,71.772,101.592,70.326,101.39,69.578z" class="st2"/><path d="M146.534,196.091c1.898,0.119,4.058,0.143,6.466,0.06c0.439,0,0.807,0.023,1.127,0.059v-0.119l-2.195-7.351 c-0.427,0.059-1.044,0.059-1.839,0c-0.83-0.083-1.898-0.083-3.203,0c-1.697,0.119-2.753,0.178-3.144,0.178 c-0.226,0-0.415-0.024-0.593-0.059c0.771,2.928,1.423,5.359,1.957,7.292C145.514,196.056,145.988,196.032,146.534,196.091z" class="st2"/><path d="M133.365,154.237v0.059c0.605,1.66,1.21,3.521,1.839,5.573c0.225-0.06,0.462-0.095,0.711-0.119 c2.255-0.154,4.628-0.119,7.119,0.119h0.237l-1.364-4.625c-0.036-0.166-0.083-0.332-0.119-0.474h-0.296 c-3.05-0.154-5.399-0.296-7.06-0.415C134.041,154.355,133.685,154.32,133.365,154.237z" class="st2"/><path d="M116.28,113.567c-4.426-1.814-9.516-3.142-15.246-3.972c-3.595-0.545-7.985-0.936-13.17-1.185 c1.922,2.004,3.773,4.079,5.576,6.225c5.849,6.96,10.56,14.192,14.119,21.698c1.258,2.667,2.349,5.335,3.263,8.003 c0.059-2.834,0.178-5.063,0.356-6.699c0.273-2.929,0.89-5.419,1.839-7.47c1.507-3.178,3.761-5.525,6.763-7.055 c-0.083-0.142-0.166-0.272-0.238-0.415c-0.142-0.308-0.237-0.604-0.296-0.889h-0.178c-0.748-1.008-1.317-2.158-1.721-3.438 c-0.486-1.518-0.676-3.06-0.593-4.625C116.612,113.71,116.458,113.65,116.28,113.567z" class="st2"/><path d="M140.305,178.128c0.226-0.071,0.463-0.13,0.712-0.178c1.151-0.154,2.527-0.213,4.153-0.178 c0.83,0.036,2.017,0.119,3.559,0.238l-1.898-6.344c-0.143,0.059-0.297,0.095-0.475,0.119c-0.795,0.118-1.863,0.118-3.203,0 c-1.543-0.154-2.61-0.214-3.204-0.178c-0.51,0.035-0.949,0.035-1.305,0c0.415,1.529,0.831,3.106,1.246,4.743 C140.044,176.954,140.187,177.547,140.305,178.128z" class="st2"/><path d="M119.009,453.86v-0.178h37.788v-0.178c0-0.557,0.083-1.387,0.237-2.49l0.771-3.083 c0.356-1.387,0.866-2.466,1.543-3.26c-0.321-0.273-0.594-0.593-0.831-0.949h-0.534c-0.7-1.363-1.079-3.296-1.127-5.81 c-13.217,0.071-26.446,0.131-39.687,0.178h-0.237v4.269c0.119,0,0.214,0.023,0.297,0.059v11.442H119.009z" class="st2"/><path d="M116.932,473.898h8.721v-0.178h24.737c0.427-0.557,0.866-1.114,1.305-1.66 c2.764-3.474,6.051-6.426,9.848-8.833c-0.202-0.154-0.416-0.356-0.653-0.593c-0.747-0.676-1.4-1.399-1.958-2.194 c-0.355-0.593-0.616-1.102-0.771-1.541l-0.83-1.838c-0.083-0.142-0.166-0.379-0.238-0.711h-38.084c-0.7-0.06-1.4-0.143-2.077-0.237 V473.898z" class="st2"/><path d="M74.635,5.433c1.151,2.288,1.685,4.624,1.602,6.996c-0.083,2.608-0.89,4.743-2.432,6.403 c-0.914,0.984-2.231,1.873-3.975,2.668c-2.017,0.83-3.524,1.482-4.508,1.956c-4.508,2.17-8.068,5.608-10.678,10.315 c-2.337,4.185-3.654,8.976-3.975,14.347c-0.036,2.336-0.083,4.067-0.119,5.217c-0.059,1.601-0.178,2.988-0.356,4.15 c0.736,0.806,1.412,1.636,2.017,2.49c0.605,0.842,1.163,1.707,1.661,2.609c1.815,3.356,2.824,6.901,3.026,10.612 c0.083,1.696-0.095,3.178-0.534,4.446c-0.391,1.269-1.424,2.929-3.085,4.98c-0.38,0.451-0.759,0.866-1.127,1.245 c1.329,0.51,2.515,1.067,3.559,1.66c0.308-0.13,0.664-0.249,1.068-0.356c3.275-0.901,6.087-1.458,8.424-1.66 c-0.202-0.913-0.297-2.158-0.297-3.735l-0.178-17.607c-0.036-2.964,0.024-5.241,0.178-6.818c0.273-2.454,0.854-4.541,1.72-6.284 c1.27-2.573,3.227-4.589,5.873-6.047c2.575-1.387,5.304-1.992,8.187-1.838c1.863,0.083,3.476,0.51,4.864,1.304 c1.032,0.557,1.934,1.304,2.729,2.253c0.629,0.747,1.21,1.624,1.72,2.609c0.154-0.51,0.38-0.972,0.653-1.364 c0.202-0.273,0.392-0.534,0.593-0.771c0.558-0.593,1.21-1.15,1.958-1.66c1.661-1.032,3.737-1.624,6.229-1.779 c1.388-0.202,2.705-0.119,3.975,0.237c2.29,0.557,4.307,1.862,6.051,3.913c1.661,1.98,2.764,4.245,3.322,6.818 c0.474,1.98,0.629,4.766,0.474,8.359l-0.534,24.425c2.456,0.771,4.722,1.66,6.822,2.668c0.238-2.193,1.009-4.174,2.314-5.929 c0.51-0.676,1.341-1.719,2.492-3.142c0.866-1.221,1.269-2.395,1.186-3.498c-0.036-0.83-0.392-1.755-1.068-2.786 c-0.391-0.557-0.985-1.423-1.78-2.609c-0.676-1.304-0.949-2.727-0.83-4.268c0.083-1.541,0.558-2.929,1.424-4.15 c0.925-1.245,2.135-2.217,3.618-2.905c0.392-0.474,0.807-0.925,1.246-1.364c-0.154-1.186-0.273-2.585-0.356-4.209 c-0.035-1.15-0.083-2.881-0.118-5.217c-0.321-5.371-1.638-10.161-3.975-14.347c-2.61-4.707-6.17-8.146-10.678-10.315 c-0.985-0.474-2.492-1.126-4.508-1.956c-1.745-0.794-3.062-1.684-3.975-2.668c-1.543-1.66-2.349-3.794-2.432-6.403 c-0.083-2.371,0.45-4.707,1.601-6.996c0.083-0.154,0.594-1.091,1.543-2.786c0.564-1.032,0.986-1.903,1.265-2.646h-9.547 c-0.055,0.28-0.119,0.567-0.202,0.868l-0.534,1.541c-0.392,0.913-0.985,1.684-1.78,2.312c-0.712,0.557-1.424,0.913-2.135,1.067 c-0.356,0.083-0.925,0.119-1.72,0.119c-1.305,0-2.278-0.083-2.907-0.237c-0.629-0.154-1.281-0.474-1.958-0.949 c-0.51-0.32-0.973-0.676-1.364-1.067C83.394,2.59,82.872,1.366,82.797,0H71.828c0.28,0.743,0.701,1.615,1.266,2.646 C74.042,4.342,74.552,5.279,74.635,5.433z M82.822,24.759c0.202-1.933,1.044-3.498,2.551-4.683 c0.237-0.201,0.736-0.534,1.483-1.008c0.439-0.273,0.736-0.439,0.89-0.474c0.202-0.035,0.51-0.083,0.949-0.118 c0.32-0.083,0.629-0.142,0.949-0.178c0.593-0.083,1.127-0.059,1.602,0.059c0.202,0,0.475,0.059,0.831,0.178 c0.237,0.083,0.57,0.154,1.009,0.237c0.356,0.083,0.629,0.202,0.831,0.356c0.035,0.036,0.178,0.261,0.415,0.652 c0.273,0.237,0.558,0.51,0.831,0.83c1.186,1.34,1.839,2.514,1.958,3.498c0.036,0.747-0.083,1.624-0.356,2.609l-0.534,1.541 c-0.392,0.913-0.985,1.684-1.78,2.312c-0.712,0.557-1.424,0.913-2.135,1.067c-0.356,0.083-0.925,0.119-1.72,0.119 c-1.305,0-2.278-0.083-2.907-0.237c-0.629-0.154-1.281-0.474-1.958-0.948c-0.51-0.32-0.973-0.676-1.364-1.067 C83.142,28.162,82.62,26.574,82.822,24.759z" class="st2"/><path d="M133.78,278.615c0.023,0.059,0.035,0.119,0.059,0.178v0.474c-0.035,0.083-0.083,0.154-0.118,0.237v2.016 c0,0.083-0.024,0.142-0.06,0.178v17.607c0.036,0.083,0.06,0.155,0.06,0.238v0.592c0.201,0.095,0.332,0.155,0.415,0.178 c0.237,0.036,0.652,0.06,1.245,0.06c0.285,0,0.641-0.036,1.068-0.119v-1.008c0-0.083,0.024-0.154,0.06-0.237v-17.133 c-0.036-0.083-0.06-0.154-0.06-0.237v-2.016c0,0-0.083-0.095-0.118-0.178v-0.711c0,0-0.024-0.095-0.06-0.178v-0.237 c-0.035-0.083-0.059-0.154-0.059-0.237v-0.238c0,0-0.083-0.094-0.119-0.177v-0.238c-0.035-0.083-0.083-0.154-0.118-0.237 c-0.036-0.083-0.06-0.154-0.06-0.237c-0.118-0.035-0.213-0.095-0.296-0.178c-1.151-5.62-3.844-11.762-8.068-18.437 c-2.717-4.245-5.671-8.193-8.839-11.857c-0.522-0.581-1.056-1.174-1.602-1.778c-0.083,0.841-0.119,1.493-0.119,1.956 c0,0.676,0.036,1.446,0.119,2.312c0.724,0.877,1.436,1.767,2.136,2.668c0.807,1.019,1.601,2.075,2.373,3.142 c0.486,0.676,0.961,1.34,1.423,2.016v0.237c0,0.083-0.023,0.142-0.059,0.178v1.363c-0.035,0.083-0.059,0.154-0.059,0.237v2.431 c-0.036,0.083-0.083,0.154-0.119,0.237v5.336c0,0.083-0.024,0.154-0.059,0.237v16.184c0.498,0.202,0.973,0.404,1.424,0.593 c0.355,0.131,0.771,0.202,1.245,0.237v-16.955c0-0.083-0.023-0.154-0.059-0.237v-5.336c-0.036-0.083-0.059-0.154-0.059-0.237 v-1.008C128.856,266.082,131.692,272.189,133.78,278.615z" class="st2"/><path d="M214.458,0.038c1.151,1.933,1.922,4.268,2.314,6.996c0.273,1.743,0.451,4.245,0.534,7.529l0.237,9.901 c0.118,3.64,0.261,6.249,0.415,7.826c0.048,0.451,0.083,0.877,0.119,1.304c0.439,1.352,0.854,2.395,1.246,3.142 c0.474,1.031,1.281,2.336,2.432,3.913c1.779,2.49,3.025,4.091,3.737,4.802c2.219,2.253,5.671,4.387,10.382,6.403 c0.616,0.261,1.21,0.498,1.779,0.711c5.173,1.02,9.492,2.17,12.933,3.438c6.489,2.371,11.745,5.537,15.779,9.486 c6.253,6.13,10.382,14.916,12.399,26.381c0.676,3.83,1.186,8.739,1.542,14.703c0.593,9.011,0.925,13.908,1.008,14.702 c0.831,8.976,2.373,16.742,4.628,23.299c2.847,8.181,6.822,14.964,11.923,20.335c3.322,3.474,8.863,7.683,16.611,12.627 c7.984,5.134,13.584,9.272,16.788,12.391c1.322,1.302,2.564,2.68,3.736,4.124v-22.76c-3.375-1.766-5.93-3.142-7.651-4.129 c-7-3.996-12.482-8.917-16.433-14.762c-2.966-4.423-5.244-9.699-6.822-15.829c-1.269-4.861-2.159-10.612-2.669-17.252 c-0.273-3.83-0.594-9.628-0.949-17.37c-0.439-6.842-1.163-12.592-2.195-17.252c-2.848-12.841-8.745-24.164-17.678-33.97 c-6.917-7.505-14.333-12.426-22.246-14.762c-1.899-0.593-4.295-1.126-7.178-1.601c-3.239-0.474-5.672-0.866-7.297-1.186 c-1.032-0.202-1.542-0.593-1.542-1.186c0-0.249,0.059-0.439,0.178-0.593v-0.771c0.083-5.3,0.095-9.07,0.059-11.323 c-0.119-4.233-0.439-7.98-0.949-11.264c-0.431-2.859-1.056-5.529-1.846-8.041h-25.348C214.441,0.013,214.45,0.025,214.458,0.038z" class="st2"/><path d="M294.84,376.612c1.032-1.506,2.337-2.608,3.915-3.32c1.626-0.711,3.346-0.853,5.161-0.415 c1.258,0.273,2.326,0.783,3.204,1.542c-0.024-3.095,0.047-6.201,0.237-9.308c0.439-7.351,1.661-13.161,3.678-17.43 c0.32-0.628,0.652-1.09,1.008-1.363c0.048-0.036,0.119-0.119,0.119-0.119l0.059-0.059c0.119-0.284,0.321-0.557,0.594-0.83 c-0.024-0.201-0.024-0.439,0-0.711l0.474-10.019c0.06-0.925,0.214-1.589,0.475-2.016c-0.202-1.494-0.107-3.012,0.296-4.565 c0.392-1.482,1.033-2.822,1.899-4.031c-0.107-0.202-0.226-0.439-0.356-0.712c-7.985-17.157-18.865-33.294-32.628-48.435 c-12.813-14.074-27.679-26.797-44.61-38.179c-10.559-7.197-20.431-12.628-29.602-16.303c-7.557-3-16.93-5.692-28.119-8.063 c-11.354-2.454-21.652-4.055-30.906-4.802c-11.117-0.913-21.475-0.676-31.085,0.711c-0.428,0.083-0.819,0.119-1.187,0.119 l-0.119,10.138c1.602-0.344,3.631-0.581,6.111-0.712c26.256-1.387,49.593,2.134,70,10.553c3.88,1.577,6.62,3.296,8.246,5.158 c1.103,1.304,1.815,2.786,2.135,4.446c0.321,1.743,0.084,3.296-0.711,4.683c-0.795,1.388-2.053,2.372-3.797,2.964 c-1.507,0.558-3.18,0.771-5.042,0.653c-1.187-0.119-2.824-0.439-4.924-0.949c-2.29-0.593-3.939-0.972-4.924-1.126 c-1.222-0.154-2.337-0.083-3.322,0.237c-1.186,0.356-1.934,1.008-2.254,1.956c-0.392,1.221-0.024,2.466,1.127,3.735 c0.273,0.32,0.747,0.806,1.424,1.482c0.676,0.629,1.15,1.127,1.423,1.482c0.748,0.913,1.222,1.957,1.424,3.142 c0.237,1.186,0.178,2.336-0.178,3.439c-0.356,1.15-0.973,2.134-1.839,2.964c-0.866,0.866-1.863,1.459-2.966,1.779 c-1.934,0.592-4.509,0.355-7.712-0.712c-2.017-0.676-3.286-1.067-3.797-1.185c-1.459-0.356-2.764-0.51-3.915-0.475 c-1.388,0.083-2.634,0.498-3.737,1.245c-1.187,0.83-1.898,1.862-2.136,3.083c-0.237,1.15,0,2.348,0.712,3.616 c0.593,1.032,1.46,1.992,2.61,2.905c0.914,0.712,2.409,1.696,4.509,2.965c2.052,1.221,3.559,2.229,4.508,3.023 c1.543,1.269,2.694,2.692,3.441,4.268c0.831,1.779,1.032,3.498,0.593,5.158c-0.629,2.099-1.981,3.593-4.034,4.506 c-1.815,0.865-3.856,1.103-6.11,0.711c-1.103-0.201-2.883-0.77-5.339-1.719c-2.254-0.866-4.058-1.364-5.398-1.482 c-1.341-0.119-2.587,0.095-3.737,0.652c-1.27,0.593-2.017,1.482-2.255,2.668c-0.118,0.794,0.083,1.755,0.593,2.905 c0.677,1.577,1.044,2.525,1.128,2.845c0.355,1.506,0.083,3-0.831,4.506c-0.83,1.423-1.993,2.431-3.5,3.024 c-1.388,0.557-2.907,0.687-4.568,0.415c-1.198-0.19-2.373-0.581-3.5-1.186v4.15c0.036,0.083,0.059,0.154,0.059,0.237v19.564 c0.119,1.849,0.202,3.687,0.238,5.513c0.296,0.012,0.629,0.071,1.008,0.178c6.17,1.897,12.197,4.363,18.094,7.411 c3.44,1.814,6.229,3.58,8.364,5.276c1.602,1.221,3.464,2.964,5.576,5.217c-0.083-3.367,0.914-6.237,2.966-8.596 c1.223-1.388,2.765-2.336,4.628-2.846c1.934-0.474,3.713-0.356,5.339,0.356c0.747,0.355,1.601,0.889,2.551,1.6 c0.51,0.439,1.281,1.068,2.313,1.898c2.017,1.576,3.856,2.074,5.517,1.482c1.222-0.392,2.112-1.281,2.67-2.668 c0.51-1.304,0.628-2.668,0.355-4.091c-0.237-1.067-0.711-2.336-1.423-3.794c-1.151-2.217-1.756-3.415-1.839-3.616 c-1.697-3.913-1.815-7.47-0.356-10.672c0.795-1.742,2.041-3.177,3.737-4.327c1.661-1.103,3.465-1.72,5.398-1.838 c1.899-0.119,3.762,0.273,5.577,1.186c1.779,0.865,3.239,2.075,4.39,3.616c0.391,0.51,0.925,1.328,1.601,2.431 c0.629,0.913,1.27,1.6,1.899,2.075c1.779,1.221,3.915,1.304,6.406,0.237c1.626-0.747,2.67-1.779,3.145-3.083 c0.593-1.304,0.474-2.881-0.356-4.743c-0.439-1.031-1.246-2.466-2.433-4.328c-1.222-2.217-1.874-4.565-1.957-7.054 c-0.083-2.645,0.498-5.016,1.72-7.115c1.222-2.169,3.061-3.758,5.517-4.742c2.456-1.032,4.829-1.127,7.119-0.297 c0.356,0.119,1.281,0.569,2.788,1.364c1.103,0.557,2.052,0.889,2.847,1.008c1.899,0.32,3.536-0.214,4.924-1.601 c1.388-1.458,1.922-3.118,1.602-4.98c-0.273-1.458-1.27-3.166-2.966-5.098c-2.729-2.882-4.722-5.099-5.992-6.64 c-2.135-2.692-3.5-5.253-4.093-7.707c-0.558-2.051-0.617-4.269-0.178-6.64c0.474-2.099,1.341-3.759,2.61-4.98 c1.744-1.624,3.832-2.288,6.288-2.016c1.341,0.143,2.599,0.522,3.797,1.127c0.13,0.035,0.261,0.071,0.415,0.118 c0.392,0.083,0.914,0.392,1.543,0.949c19.457,16.517,36.21,35.476,50.246,56.854c1.744,2.608,3.061,4.802,3.974,6.58 c1.305,2.49,2.171,4.861,2.61,7.114c0.558,2.81,0.475,5.194-0.237,7.174c-0.439,1.34-1.163,2.525-2.195,3.557 c-1.032,1.031-2.218,1.802-3.559,2.312c-2.848,1.031-5.576,0.771-8.187-0.771c-1.578-0.913-3.345-2.727-5.279-5.454 c-2.1-3-3.773-4.98-5.043-5.928c-2.218-1.696-4.603-2.336-7.178-1.898c-1.269,0.238-2.396,0.795-3.381,1.66 c-1.032,0.913-1.697,1.957-2.017,3.143c-0.593,2.288,0.142,4.885,2.195,7.766c0.558,0.794,1.4,1.921,2.551,3.379 c0.984,1.304,1.696,2.49,2.135,3.557c0.866,2.099,0.985,4.328,0.356,6.699c-0.593,2.336-1.779,4.209-3.559,5.632 c-1.744,1.459-3.832,2.253-6.288,2.372c-2.409,0.083-4.568-0.51-6.466-1.779c-1.341-0.913-2.67-2.288-3.975-4.15 c-1.424-2.217-2.515-3.853-3.263-4.92c-1.269-1.779-2.669-3.166-4.212-4.15c-1.815-1.186-3.618-1.625-5.398-1.305 c-1.424,0.237-2.646,0.925-3.678,2.075c-0.985,1.103-1.519,2.395-1.602,3.854c-0.083,1.66,0.594,3.592,2.017,5.81 c2.053,3.165,3.204,5.039,3.441,5.632c0.795,1.98,0.985,4.055,0.593,6.225c-0.439,2.217-1.4,4.055-2.907,5.513 c-1.506,1.458-3.381,2.336-5.635,2.608c-2.254,0.273-4.271-0.142-6.051-1.244c-1.305-0.795-2.587-2.052-3.856-3.795 c-1.305-2.051-2.314-3.58-3.025-4.565c-1.899-2.691-3.856-4.446-5.873-5.276c-1.306-0.51-2.634-0.676-3.975-0.474 c-1.424,0.201-2.575,0.771-3.441,1.719c-1.578,1.66-2.076,4.15-1.483,7.47c0.439,1.743,0.748,3.023,0.949,3.853 c0.356,1.542,0.558,2.846,0.594,3.913c0.083,1.98-0.439,3.854-1.543,5.632c-1.151,1.779-2.634,3.047-4.449,3.794 c-1.863,0.712-3.796,0.736-5.813,0.06c-1.021-0.356-1.911-0.83-2.67-1.423c3.073,7.316,5.232,14.856,6.466,22.646 c0.32,1.981,0.498,3.463,0.534,4.447c0.012,0.273,0,0.533-0.059,0.77h61.814c0.178-0.225,0.51-0.415,1.008-0.592 c2.527-0.913,4.354-2.751,5.458-5.514c0.83-2.217,1.044-4.826,0.652-7.825c0-0.083-0.296-1.542-0.89-4.387 c-0.355-1.743-0.533-3.202-0.533-4.387c0.083-2.49,0.794-4.589,2.135-6.285c1.507-1.932,3.417-2.94,5.754-3.023 c2.1-0.119,4.034,0.652,5.814,2.312c1.424,1.387,2.468,3.225,3.144,5.513c0.51,1.815,0.854,2.941,1.009,3.38 c0.557,1.221,1.281,2.039,2.194,2.43c0.867,0.356,1.78,0.32,2.729-0.118c0.866-0.392,1.566-1.032,2.077-1.897 c0.795-1.305,1.067-3.166,0.83-5.573c-0.083-0.984-0.296-2.466-0.652-4.446c-0.238-1.743-0.273-3.202-0.119-4.387 C293.203,379.695,293.808,378.071,294.84,376.612z M224.602,280.334c-0.391,1.151-1.032,2.075-1.898,2.787 c-0.866,0.747-1.898,1.209-3.085,1.363c-1.186,0.154-2.29-0.023-3.322-0.533c-0.866-0.439-1.388-0.676-1.542-0.712 c-0.712-0.237-1.246-0.142-1.602,0.297c-0.273,0.32-0.38,0.806-0.297,1.482c0.083,0.593,0.333,1.304,0.772,2.134 c0.557,0.913,0.925,1.577,1.127,2.016c1.222,2.608,1.281,5.122,0.178,7.529c-0.558,1.221-1.388,2.229-2.492,3.023 c-1.068,0.795-2.254,1.245-3.559,1.364c-2.492,0.237-5.138-0.806-7.949-3.142c-0.439-0.356-1.483-1.364-3.144-3.024 c-1.305-1.268-2.409-2.217-3.322-2.845c-0.629-0.439-1.543-0.984-2.729-1.66c-1.305-0.747-2.219-1.304-2.729-1.66 c-2.219-1.459-3.619-3.024-4.212-4.684c-0.629-1.897-0.475-3.699,0.475-5.395c0.949-1.695,2.396-2.75,4.33-3.142 c1.187-0.237,2.527-0.142,4.034,0.297c0.748,0.201,2.041,0.688,3.856,1.482c1.542,0.628,2.575,0.593,3.085-0.119 c0.51-0.711,0.296-1.636-0.653-2.786c-0.866-0.949-1.507-1.66-1.898-2.134c-0.712-0.866-1.222-1.66-1.543-2.372 c-0.676-1.541-0.628-3.177,0.119-4.92c0.712-1.696,1.863-2.881,3.441-3.557c2.052-0.83,4.425-0.712,7.118,0.355 c1.151,0.439,2.99,1.459,5.517,3.083c2.528,1.66,4.331,2.881,5.399,3.676c1.898,1.506,3.441,3,4.627,4.505 c1.068,1.34,1.756,2.645,2.076,3.913C225.018,278.058,224.958,279.184,224.602,280.334z" class="st2"/><path d="M184.263,4.662c0.526-1.75,1.203-3.298,2.017-4.662h-28.171c-1.854,4.708-3.088,9.6-3.684,14.681 c-0.795,6.794-0.439,14.821,1.068,24.069c0.747,4.541,1.661,8.478,2.729,11.798c2.455,7.505,6.406,14.252,11.864,20.216 c5.493,6.011,11.888,10.529,19.161,13.576c3.049,1.304,7.024,2.585,11.924,3.854c7.202,1.897,11.212,2.988,12.042,3.261 c9.765,2.964,16.848,7.15,21.238,12.569c0.178,0.213,0.296,0.415,0.356,0.593c3.44,4.055,6.015,9.035,7.712,14.939 c1.423,4.945,2.337,10.873,2.729,17.786c0.237,4.707,0.45,8.216,0.652,10.552c0.83,7.98,2.788,15.177,5.873,21.58 c3.476,7.114,8.186,12.829,14.119,17.133c3.998,2.845,9.432,5.478,16.313,7.885c3.832,1.339,9.611,3.343,17.322,5.987 c11.901,4.779,20.443,11.383,25.628,19.801c3.476,5.727,5.695,12.782,6.644,21.165c0.356,3.118,0.617,6.841,0.771,11.145 c0.119,4.98,0.214,8.715,0.297,11.205c0.083,2.609,0.237,4.684,0.474,6.225c0.321,2.287,0.866,4.266,1.66,5.926v-77.284 c-3.794-4.538-8.509-8.776-14.177-12.707c-4.829-3.285-10.654-6.557-17.5-9.841c-6.407-3.048-9.847-4.684-10.322-4.921 c-3.915-1.98-7.202-3.937-9.848-5.869c-5.611-4.115-10.286-9.343-14-15.711c-3.595-6.201-5.956-12.888-7.059-20.038 c-0.475-2.762-0.854-6.758-1.127-11.975c-0.273-5.537-0.593-9.545-0.949-12.035c-0.226-1.553-0.499-3.071-0.831-4.565 c-0.498-1.494-1.115-3.391-1.839-5.691c-2.1-5.691-5.849-10.647-11.271-14.88c-4.663-3.64-10.286-6.438-16.848-8.418 c-4.947-1.304-8.637-2.348-11.093-3.142c-6.324-2.099-12.007-5.039-17.025-8.833c-2.456-1.779-4.568-3.652-6.348-5.632 c-4.508-4.897-7.736-11.062-9.669-18.497c-1.578-6.047-2.278-13.019-2.077-20.927C183.1,10.745,183.516,7.306,184.263,4.662z" class="st2"/><path d="M155.254,204.925v-0.534c-0.035-1.731-0.083-3.462-0.118-5.217c-0.392,0.083-0.89,0.083-1.483,0 c-0.439-0.035-1.899-0.095-4.39-0.178c-1.317-0.059-2.444-0.201-3.381-0.415c0.795,2.372,1.328,4.15,1.601,5.336 c0.012,0.118,0.012,0.213,0,0.296C150.046,204.415,152.632,204.652,155.254,204.925z" class="st2"/><path d="M161.305,200.597c-0.439-0.32-1.068-0.569-1.898-0.771c-0.724-0.166-1.258-0.308-1.602-0.415v5.158 c0,0.225-0.023,0.427-0.059,0.593c2.136,0.261,4.295,0.545,6.466,0.83c-0.119-0.676-0.498-1.636-1.127-2.905 C162.373,201.783,161.78,200.953,161.305,200.597z" class="st2"/><path d="M196.602,213.106l0.237-9.841c-2.289-0.475-4.722-0.676-7.296-0.593c-1.27,0-2.076-0.237-2.432-0.712 c-0.202-0.272-0.297-0.853-0.297-1.719l0.356-8.952l-8.365-0.652c-0.794,0-1.423-0.178-1.898-0.533 c-0.475-0.475-0.676-1.34-0.593-2.609l0.593-8.181l-7.89-1.186c-1.222-0.237-2.052-0.569-2.491-1.008 c-0.511-0.593-0.736-1.624-0.653-3.082l0.356-9.842l-8.542-0.77l0.059,23.832l2.966-0.059c1.151-0.083,2.041,0.023,2.67,0.296 c0.51,0.202,1.091,0.51,1.72,0.949c0.51,0.272,1.329,0.628,2.432,1.067c0.866,0.391,1.875,1.102,3.026,2.134 c1.898,1.862,3.357,3.972,4.39,6.343c1.352,3.214,1.815,6.581,1.364,10.079C183.409,209.49,190.172,211.173,196.602,213.106z" class="st2"/><path d="M316.849,332.386l7.059,2.609c1.459,0.557,2.586,0.747,3.381,0.592c0.712-0.154,1.507-0.592,2.373-1.304 l5.338-3.977v-21.327c-0.16,0.075-0.323,0.149-0.473,0.227c-2.765,1.387-4.45,3.344-5.043,5.869 c-0.154,0.628-0.237,1.423-0.237,2.371c0.035,1.103,0.059,1.933,0.059,2.49c0,1.15-0.273,1.862-0.83,2.135 c-0.273,0.154-0.855,0.201-1.721,0.118c-1.305-0.201-2.634-0.083-3.974,0.356c-1.341,0.439-2.516,1.103-3.5,2.016 c-0.949,0.913-1.685,2.015-2.195,3.32c-0.475,1.304-0.677,2.632-0.593,3.972v0.415 C316.623,332.303,316.742,332.339,316.849,332.386z" class="st2"/><path d="M142.026,139.534c-0.238-0.711-0.629-1.34-1.187-1.897c-0.712-0.628-1.341-0.984-1.898-1.067 c-0.392-0.083-0.985-0.036-1.78,0.118c-0.558,0.119-1.044,0.332-1.483,0.653c-0.392,0.355-0.736,0.913-1.008,1.659 c-0.072,0.19-0.143,0.427-0.238,0.712c0.522,0,1.044,0.142,1.543,0.415c1.423,0.794,2.278,2.17,2.551,4.15 c0.118,0.948,0.059,2.608-0.178,4.98c-0.155,0.948-0.333,1.565-0.534,1.837c-0.155,0.297-0.332,0.522-0.534,0.653l4.923,0.237 h0.238c-0.036-0.249-0.06-0.546-0.06-0.89l0.06-8.299C142.441,141.289,142.299,140.21,142.026,139.534z" class="st2"/><path d="M117.644,194.787l-0.119,10.316h0.297c8.305-1.162,17.322-1.494,27.051-1.008 c-1.768-4.933-3.251-9.616-4.449-14.051c-0.676-2.371-2.053-7.707-4.153-16.006c-1.696-6.64-3.203-11.952-4.508-15.948 c-0.593-1.66-0.926-3.023-1.009-4.091c0-0.592,0.095-0.984,0.297-1.185c0.024-0.036,0.047-0.071,0.059-0.119 c-0.142-0.142-0.237-0.32-0.296-0.533c-0.119-0.439-0.095-1.103,0.059-2.016l0.059-2.846c0-0.391,0.06-0.972,0.178-1.719 l0.238-4.328c0.201-1.577,0.355-2.584,0.474-3.023c0.475-1.625,1.483-2.881,3.026-3.794c0.356-0.202,0.889-0.415,1.601-0.653 c0.748-0.237,1.448-0.332,2.077-0.296c2.171,0.036,4.034,1.269,5.576,3.676c0.51,0.711,0.854,1.422,1.008,2.134 c0.083,0.356,0.119,0.913,0.119,1.66c0.083,4.707,0.059,8.24-0.059,10.612c-0.119,0.711-0.202,1.126-0.238,1.245 c-0.13,0.427-0.356,0.687-0.652,0.77c-0.012,0.095-0.06,0.178-0.119,0.238c0.237,0.391,0.415,0.936,0.534,1.66 c0.237,1.15,0.949,3.58,2.136,7.292c2.906,8.928,5.612,17.951,8.127,27.092c-0.071-7.102-0.119-14.133-0.119-21.105v-7.529 c0.012-2.834,0.036-5.656,0.06-8.478c0.011-1.92,0.035-3.841,0.059-5.75c0.035-2.763,0.024-4.861-0.059-6.284 c-0.155-2.336-0.499-4.387-1.009-6.166c-0.593-2.134-1.507-4.007-2.729-5.632c-1.34-1.778-2.93-3.083-4.746-3.913 c-0.605-0.237-1.079-0.498-1.423-0.77c-0.143-0.143-0.261-0.309-0.356-0.475c-0.107-0.213-0.131-0.45-0.06-0.711 c0.036-0.13,0.072-0.249,0.119-0.356c-0.012-0.071-0.036-0.142-0.059-0.237c-0.083-0.273-0.06-0.557,0.059-0.83 c0.083-0.201,0.392-0.676,0.949-1.423c0.629-0.83,1.068-1.754,1.305-2.786c0.036-0.142,0.06-0.308,0.06-0.474 c-0.155-0.261-0.238-0.676-0.238-1.245c0-0.795-0.059-1.53-0.178-2.194c-0.106-0.213-0.249-0.45-0.415-0.711h0.237 c-0.094-0.344-0.213-0.664-0.356-0.949c-0.272-0.51-0.569-0.972-0.889-1.363c-0.202-0.356-0.499-0.735-0.89-1.127l-2.966-2.43 c-0.866-0.949-1.424-1.743-1.661-2.372c-0.119-0.32-0.19-0.676-0.238-1.067c-0.047,0.036-0.106,0.083-0.178,0.119 c-0.071-0.332-0.13-0.664-0.177-1.008c-0.143,0.035-0.297,0.059-0.475,0.059c-0.202,0-0.688-0.095-1.483-0.296 c-1.341-0.439-3.263-0.688-5.754-0.771c-1.46-0.083-2.551-0.083-3.263,0c-0.451,0.024-0.866,0.024-1.246,0 c-0.273,1.233-0.985,2.537-2.136,3.913c-0.913,0.948-1.578,1.66-2.017,2.134c-0.83,0.83-1.447,1.577-1.839,2.253 c-0.984,1.624-1.388,3.438-1.186,5.454c0.202,2.016,0.926,3.711,2.195,5.098c0.498,0.546,0.854,1.02,1.068,1.423 c0.284,0.166,0.474,0.32,0.593,0.475c0.237,0.272,0.273,0.735,0.119,1.363h0.178v0.119c-0.036,0.118-0.155,0.261-0.356,0.415 c-0.321,0.272-0.772,0.533-1.365,0.77c-1.815,0.83-3.405,2.135-4.746,3.913c-1.222,1.625-2.135,3.498-2.728,5.632 c-0.511,1.779-0.855,3.83-1.009,6.166c-0.083,1.423-0.095,3.521-0.059,6.284c0.024,1.126,0.047,2.253,0.059,3.379v0.711 l0.653,1.423c0.059,0.332,0.106,0.617,0.118,0.83c0.095,0.783,0.119,1.731,0.119,2.846c0.012,0.51,0.012,1.02,0,1.541 c1.436,7.541,2.337,13.387,2.729,17.549C117.585,179.634,117.727,186.132,117.644,194.787z M123.636,113.567 c0.237-1.576,0.854-2.964,1.839-4.149c0.51-0.593,1.044-0.973,1.601-1.127c0.356-0.083,0.689-0.059,1.009,0.059 c0.32,0.119,0.557,0.321,0.712,0.593c0.237,0.475,0.178,0.973-0.178,1.482c-0.083,0.119-0.38,0.558-0.89,1.305 c-1.068,1.387-1.305,2.964-0.712,4.742c0.32,0.83,0.498,1.34,0.534,1.542c0.154,0.676,0.083,1.186-0.237,1.541 c-0.238,0.273-0.558,0.415-0.95,0.415c-0.355,0-0.711-0.095-1.067-0.296c-0.439-0.273-0.855-0.83-1.246-1.66 C123.493,116.591,123.363,115.109,123.636,113.567z" class="st2"/><path d="M316.611,410.108c6.559-4.255,12.687-8.726,18.389-13.411v-54.634c-7.914,0.974-14.758,2.728-20.524,5.263 c-0.214,0.118-0.439,0.189-0.653,0.237c-0.012,0.249-0.071,0.498-0.178,0.771c-2.254,6.165-3.464,13.908-3.619,23.239 c-0.118,13.315,1.78,26.382,5.695,39.187C315.959,410.547,316.255,410.333,316.611,410.108z" class="st2"/><path d="M326.34,437.438c3.614,4.672,6.49,9.865,8.66,15.553v-52.492c-5.607,4.489-11.516,8.644-17.736,12.455 c-0.582,0.379-1.08,0.533-1.483,0.474c-0.048,0.071-0.107,0.13-0.178,0.178c0.023,0.438-0.071,0.948-0.297,1.541 c-0.985,3.166-1.625,6.344-1.898,9.545c-0.024,0.201-0.059,0.379-0.119,0.533C318.272,428.557,322.627,432.624,326.34,437.438z" class="st2"/><path d="M92.017,233.263v-1.779c0.036-0.083,0.059-0.154,0.059-0.237v-0.889c0.036-0.083,0.059-0.154,0.059-0.237 c-0.498-0.119-0.997-0.226-1.483-0.297c-2.373-0.356-4.651-0.118-6.822,0.712c-2.337,0.83-4.07,2.169-5.22,4.031 c-0.747,1.221-1.269,2.703-1.542,4.446c-0.202,1.103-0.332,2.692-0.415,4.743l-0.297,9.9c-0.024,0.332-0.071,0.605-0.119,0.83 c1.246-0.059,2.764,0.036,4.568,0.297l11.034,1.186h0.178v-1.779c-0.036-0.083-0.059-0.154-0.059-0.237V233.5 C91.958,233.417,91.981,233.346,92.017,233.263z" class="st2"/><path d="M141.551,388.173c2.931,3.32,5.671,7.624,8.246,12.924c2.373,5.015,4.212,9.924,5.517,14.702 c0.035,0.166,0.059,0.32,0.059,0.474h19.754c-3.618-17.251-9.906-30.377-18.864-39.364c-2.1-2.135-5.481-5.016-10.144-8.656 c-2.492-1.933-4.331-3.296-5.517-4.09c-2.088-1.376-4.081-2.443-5.992-3.202c-0.118,0.64-0.261,1.269-0.415,1.897 c-1.412,5.68-3.263,11.003-5.576,15.948c1.174,0.391,2.539,1.043,4.093,1.956C136.117,382.861,139.059,385.327,141.551,388.173z" class="st2"/><path d="M91.839,523.519c2.61-3.759,4.271-6.249,4.983-7.47c1.27-2.051,2.67-4.897,4.212-8.537 c3.915-9.284,5.896-17.465,5.932-24.544c0.036-5.845-1.21-12.07-3.737-18.674c-1.899-5.016-4.805-10.814-8.721-17.37 c-0.273-0.498-0.475-0.937-0.593-1.305c-3.227-0.367-6.015-0.687-8.365-0.948c-10.998-1.222-20.585-2.052-28.771-2.49 c-0.475-0.024-0.973-0.071-1.483-0.119c8.032,11.181,12.588,21.663,13.644,31.421c1.222,11.703-1.981,24.01-9.61,36.934 c-1.981,3.284-3.797,5.905-5.458,7.885c-1.27,1.541-3.476,3.889-6.644,7.055c-2.966,2.928-5.137,5.3-6.526,7.114 c-1.863,2.442-3.215,4.956-4.117,7.529h48.205c0.332-3.118,1.115-6.083,2.42-8.893C88.161,529.056,89.703,526.519,91.839,523.519z" class="st2"/><path d="M112.424,162.596c-0.107-0.226-0.19-0.558-0.238-1.008c-0.035-0.38-0.071-0.759-0.118-1.127 c-0.095-0.723-0.214-1.529-0.356-2.43c-2.409-10.671-6.561-20.75-12.458-30.235c-6.49-10.47-14.51-19.363-24.085-26.678 c-1.649-1.221-4.105-2.941-7.356-5.158c-0.297-0.201-0.605-0.427-0.949-0.652c-2.919-1.968-5.256-3.474-7-4.506 c-0.261-0.142-0.522-0.273-0.771-0.415c-1.234-0.688-2.539-1.363-3.915-2.016C55.095,88.348,55,88.3,54.881,88.253 c-0.961-0.451-1.969-0.877-3.025-1.304c-15.21-4.778-30.753-7.126-46.627-7.055C3.475,79.902,1.734,79.945,0,80.012v47.415 c2.196-0.739,4.414-1.179,6.652-1.291c0.807-0.06,1.625-0.071,2.432-0.059l1.305-0.238c0.712-0.154,1.246-0.237,1.602-0.237 c0.629,0.036,1.246,0.154,1.839,0.356c0.119,0.035,0.214,0.083,0.297,0.119c0.522,0.011,1.044,0.023,1.542,0.059 c3.085,0.154,6.134,0.913,9.136,2.253c3.832,1.743,7,4.185,9.492,7.351c0.202,0.201,0.38,0.415,0.534,0.652 c3.049,4.114,5.007,9.331,5.873,15.651c0.392,2.81,0.593,6.426,0.593,10.849v0.415c0.036,0.083,0.059,0.154,0.059,0.237v0.889 c0.036,0.083,0.083,0.155,0.119,0.238v1.126c0,0.036,0.024,0.095,0.059,0.178v2.312l2.788-1.423 c4.07-1.861,7.392-2.822,9.966-2.905c3.002,0,5.671,0.806,8.009,2.431c1.222,0.83,2.61,2.11,4.153,3.853 c0.949,1.067,1.685,2.075,2.195,3.024c0.795,1.506,1.281,3.343,1.483,5.513c0.202,2.644-0.142,4.921-1.008,6.818 c-0.795,1.814-2.551,3.936-5.28,6.343c-3.441,2.965-5.778,4.945-7,5.929l-0.059,0.059h0.059c1.222,0.984,3.559,2.964,7,5.929 c2.729,2.407,4.485,4.529,5.28,6.343c0.866,1.897,1.21,4.174,1.008,6.818c-0.202,2.17-0.688,4.007-1.483,5.513 c-0.51,0.949-1.246,1.957-2.195,3.024c-1.542,1.743-2.931,3.023-4.153,3.853c-2.337,1.625-5.007,2.431-8.009,2.431 c-2.575-0.083-5.897-1.044-9.966-2.905l-2.788-1.423v2.312c-0.036,0.083-0.059,0.178-0.059,0.178v1.126 c-0.036,0.083-0.083,0.155-0.119,0.238v0.889c0,0.083-0.024,0.154-0.059,0.237v0.415c0,4.423-0.202,8.039-0.593,10.849 c-0.012,0.047-0.024,0.083-0.059,0.119c0.237,0.023,0.475,0.035,0.712,0.059c11.817,1.707,22.614,4.956,32.39,9.722v-7.41 c0-3.284,0.154-5.846,0.475-7.707c0.474-2.81,1.4-5.098,2.788-6.877c1.625-2.016,3.797-3.439,6.525-4.269 c1.554-0.462,3.132-0.699,4.746-0.711c-0.724-0.652-1.246-1.162-1.542-1.541c-0.237-0.273-0.629-0.866-1.187-1.779 c-0.866-1.577-1.447-3.047-1.72-4.387c-0.273-1.423-0.202-2.869,0.237-4.328c0.439-1.458,1.163-2.703,2.195-3.735 c0.629-0.592,1.269-1.102,1.898-1.541c0.629-0.391,1.127-0.628,1.483-0.711c0.475-0.119,1.222-0.178,2.254-0.178 c1.151,0,2.017,0.059,2.61,0.178c1.068,0.201,2.017,0.735,2.847,1.6c0.795,0.795,1.364,1.743,1.72,2.846 c0.51,1.814,0.415,3.533-0.297,5.158c-0.237,0.628-0.617,1.209-1.127,1.719c-0.985,0.984-2.219,1.423-3.678,1.304 c-1.388-0.201-2.527-0.806-3.441-1.838c-0.629-0.711-0.925-1.422-0.89-2.134c0.083-0.391,0.273-0.735,0.593-1.008 c0.356-0.32,0.712-0.438,1.068-0.355c0.273,0.083,0.558,0.26,0.831,0.533c0.119,0.154,0.32,0.415,0.593,0.771 c0.475,0.628,1.008,0.972,1.602,1.008c0.712,0.083,1.281-0.273,1.72-1.067c0.356-0.558,0.498-1.245,0.415-2.075 c-0.083-1.542-0.617-2.609-1.602-3.202c-0.593-0.32-1.578-0.474-2.966-0.474c-0.747,0-1.305,0.059-1.661,0.178 c-0.51,0.154-1.044,0.474-1.602,0.948c-0.866,0.83-1.459,1.862-1.78,3.083c-0.356,1.221-0.38,2.395-0.059,3.498 c0.119,0.557,0.391,1.209,0.83,1.956c0.747,1.459,1.578,2.585,2.492,3.38c0.593,0.557,1.364,1.126,2.314,1.719 c0.558,0.356,1.388,0.853,2.491,1.482c0.214,0.166,0.392,0.296,0.534,0.415c3.109,1.209,6.43,3.189,9.966,5.928 c3.049,2.324,5.932,4.85,8.661,7.589c0-8.253,0.154-18.663,0.474-31.243c0.511-20.074-0.178-35.95-2.076-47.605 C112.471,162.726,112.459,162.667,112.424,162.596z M79.263,140.245c-2.373,0.51-4.568,0.155-6.585-1.067 c-1.103-0.628-2.337-1.695-3.678-3.201c-1.353-1.494-2.325-2.549-2.907-3.142c-0.012-0.059-0.059-0.178-0.059-0.178l-0.237-0.237 c-0.036-0.083-0.095-0.154-0.178-0.237c-0.036-0.083-0.083-0.154-0.119-0.237c-0.036-0.036-0.095-0.095-0.178-0.178 c-0.036-0.083-0.083-0.154-0.119-0.237l-0.475-0.475c-0.083-0.035-0.154-0.094-0.237-0.177c-0.036-0.083-0.095-0.155-0.178-0.238 l-0.475-0.474c-0.083-0.035-0.154-0.095-0.237-0.178c-0.036-0.083-0.095-0.154-0.178-0.237l-0.475-0.474 c-0.083-0.036-0.154-0.095-0.237-0.178c-0.035-0.083-0.095-0.154-0.178-0.237l-0.475-0.474c-0.083-0.036-0.154-0.095-0.237-0.178 c-0.119-0.083-0.237-0.154-0.356-0.237c-0.083-0.083-0.178-0.155-0.297-0.238c-0.119-0.083-0.237-0.154-0.356-0.237 c-0.119-0.035-0.214-0.095-0.297-0.178c-0.083-0.083-0.154-0.154-0.237-0.237c-0.083-0.083-0.178-0.154-0.297-0.237 c-0.083-0.083-0.178-0.154-0.297-0.237c-0.083-0.083-0.154-0.142-0.237-0.178c-0.119-0.083-0.261-0.154-0.415-0.237 c-0.119-0.083-0.214-0.154-0.297-0.237c-0.119-0.083-0.214-0.154-0.297-0.237c-0.154-0.083-0.32-0.142-0.475-0.178 c-0.083-0.083-0.142-0.154-0.178-0.237l-0.475-0.474c-0.083-0.083-0.154-0.143-0.237-0.178c-0.083-0.083-0.142-0.154-0.178-0.237 l-0.119-0.238c-0.036-0.083-0.083-0.154-0.119-0.237c-0.036-0.083-0.095-0.142-0.178-0.178c-0.083-0.083-0.142-0.154-0.178-0.237 l-0.237-0.237c-0.119-0.083-0.214-0.154-0.297-0.237c-0.119-0.083-0.214-0.142-0.297-0.178c-0.083-0.083-0.154-0.154-0.237-0.237 c-0.083-0.083-0.178-0.154-0.297-0.237c-0.083-0.083-0.178-0.154-0.297-0.237c-0.036-0.083-0.095-0.154-0.178-0.237 c-0.036-0.036-0.083-0.095-0.119-0.178c-0.036-0.083-0.059-0.154-0.059-0.237l-0.237-0.238c-0.036-0.083-0.095-0.154-0.178-0.237 c-0.036-0.035-0.095-0.095-0.178-0.178c-0.083-0.083-0.142-0.154-0.178-0.237s-0.083-0.154-0.119-0.237 c-0.083-0.083-0.142-0.154-0.178-0.237c-0.036-0.036-0.083-0.095-0.119-0.178c-0.083-0.083-0.142-0.154-0.178-0.237 c0-0.083-0.024-0.154-0.059-0.237c-0.036-0.083-0.095-0.154-0.178-0.237c0-0.036-0.024-0.095-0.059-0.178 c-0.036-0.083-0.083-0.154-0.119-0.237c-0.036-0.083-0.083-0.154-0.119-0.237c-0.036-0.083-0.083-0.154-0.119-0.237 c-0.036-0.036-0.059-0.095-0.059-0.178v-0.237c-0.036-0.083-0.083-0.155-0.119-0.238v-0.237c0-0.035-0.024-0.095-0.059-0.178 s-0.083-0.154-0.119-0.237v-0.237c-0.036-0.083-0.083-0.154-0.119-0.237v-0.178c0-0.083-0.024-0.154-0.059-0.237 c-0.036-0.083-0.083-0.154-0.119-0.237v-3.32c0-0.083,0.024-0.154,0.059-0.237c0.036-0.083,0.083-0.154,0.119-0.237v-0.237 c0.036-0.036,0.083-0.095,0.119-0.178v-0.712c0.036-0.035,0.083-0.095,0.119-0.178c0.036-0.083,0.059-0.154,0.059-0.237v-0.237 c0.036-0.083,0.083-0.154,0.119-0.237c0.036-0.036,0.083-0.095,0.119-0.178c0.036-0.083,0.059-0.154,0.059-0.237v-0.237 c0.036-0.083,0.083-0.154,0.119-0.237c0.036-0.036,0.083-0.095,0.119-0.178c0.036-0.083,0.059-0.154,0.059-0.237l0.237-0.237 c0.036-0.083,0.095-0.155,0.178-0.238c0.036-0.035,0.083-0.094,0.119-0.177c0.036-0.083,0.059-0.155,0.059-0.238l0.475-0.474 c0.083-0.035,0.154-0.095,0.237-0.178c0.083-0.083,0.142-0.154,0.178-0.237l0.237-0.237c0.119-0.083,0.261-0.154,0.415-0.237 c0.154-0.083,0.32-0.142,0.475-0.178c0.119-0.083,0.214-0.154,0.297-0.237c0.119-0.083,0.214-0.154,0.297-0.237 c0.119-0.083,0.261-0.154,0.415-0.237c0.083-0.083,0.178-0.143,0.297-0.178c0.119-0.083,0.237-0.154,0.356-0.237 c0.119-0.083,0.237-0.154,0.356-0.237s0.214-0.155,0.297-0.238c0.237-0.083,0.498-0.142,0.771-0.177 c0.202-0.083,0.415-0.143,0.653-0.178c0.154-0.036,0.332-0.083,0.534-0.119h4.271c0.202,0.036,0.38,0.083,0.534,0.119 c0.237,0.035,0.451,0.095,0.653,0.178c0.202,0.035,0.38,0.083,0.534,0.118c0.178,0.024,0.332,0.036,0.475,0.059 c0.759,0.404,1.554,0.878,2.373,1.423c4.948,3.202,9.314,7.174,13.11,11.916c2.456,3.285,4.01,6.202,4.687,8.774 c0.439,1.66,0.558,3.32,0.356,4.98c-0.237,1.779-0.807,3.32-1.72,4.625C83.451,138.443,81.6,139.688,79.263,140.245z M103.347,165.026c-0.593,1.506-1.566,2.763-2.906,3.795c-1.341,1.031-2.824,1.636-4.45,1.837 c-1.981,0.237-3.797-0.083-5.458-0.948c-1.744-0.866-3.025-2.17-3.856-3.913c-0.237-0.391-0.415-0.854-0.534-1.364l-0.237-1.778 c-0.036-1.067,0.024-2.134,0.178-3.201c0.32-1.388,0.914-2.633,1.78-3.735c0.914-1.15,1.993-1.992,3.263-2.55 c1.269-0.557,2.61-0.77,4.034-0.652c1.459,0.119,2.753,0.569,3.856,1.364c0.593,0.391,1.222,0.925,1.898,1.601 c0.949,0.948,1.566,1.66,1.839,2.134c0.32,0.51,0.51,0.972,0.593,1.363C104.095,161.031,104.095,163.046,103.347,165.026z" class="st2"/><path d="M305.399,532.589c-0.047-1.612,0-3.284,0.119-5.039c0.237-4.351,1.21-11.323,2.907-20.927 c1.578-9.011,2.408-16.007,2.491-20.987c0.083-8.501-1.34-15.983-4.271-22.469c-3.476-7.707-8.542-13.339-15.186-16.896 c-3.441-1.861-8.068-3.403-13.882-4.624c-13.846-2.845-29.898-4.067-48.17-3.675c-2.254,0.047-4.105-0.048-5.576-0.297 c-0.569,0.024-1.151,0.048-1.72,0.059c-0.036,2.597-0.392,4.589-1.068,5.988h-0.534c-0.273,0.356-0.57,0.676-0.89,0.949 c0.676,0.794,1.187,1.873,1.543,3.26l0.771,3.083c0.154,1.103,0.237,1.933,0.237,2.49v0.237c1.697,0.024,3.393,0.071,5.102,0.119 h0.178c3.429-0.095,5.422-0.154,5.991-0.178c4.39-0.036,8.246,0.083,11.568,0.356c8.934,0.83,16.278,3.059,22.009,6.699 c3.832,2.407,7.202,5.537,10.085,9.367c2.764,3.675,4.9,7.742,6.406,12.212c2.848,8.217,3.56,17.335,2.136,27.33 c-0.32,2.099-1.044,5.893-2.195,11.383c-1.032,4.743-1.685,8.537-1.958,11.383c-0.261,2.335-0.367,4.873-0.332,7.588h23.99 C304.972,537.451,305.043,534.985,305.399,532.589z" class="st2"/><path d="M333.281,525.712c0.13,3.279,0.707,6.497,1.719,9.656v-25.067c-0.405,2.111-0.682,3.656-0.829,4.622 C333.494,519.073,333.198,522.665,333.281,525.712z" class="st2"/><path d="M331.157,515.634h-0.012c0.32-2.253,1.341-7.624,3.085-16.125c0.282-1.394,0.535-2.722,0.77-4.008v-33.13 c-0.203-0.844-0.415-1.685-0.651-2.524c-2.255-7.908-5.778-14.904-10.56-20.986c-4.983-6.284-11.093-11.229-18.33-14.821 c-7.439-3.64-15.033-5.312-22.78-5.039c-0.463,0-0.854-0.024-1.187-0.06H121.381c-1.388-0.059-2.764-0.118-4.152-0.178v1.364 c-0.143,0.047-0.273,0.083-0.415,0.119v0.415c0,0.083,0.023,0.154,0.059,0.237v12.272h-0.059c0.059,0.747,0.106,1.529,0.118,2.371 h0.237v-0.178h39.687c0.071-0.877,0.202-1.612,0.415-2.193c0.202-0.676,0.57-1.459,1.128-2.372c0.474-0.83,0.889-1.482,1.245-1.956 c0.866-1.067,2.575-2.217,5.102-3.439l2.314-1.008c0.557-0.154,1.008-0.213,1.364-0.177h0.059l0.475-0.119h8.542v-0.059h23.967 v0.059h8.542l0.475,0.119h0.059c0.356-0.036,0.807,0.023,1.364,0.177l2.314,1.008c2.527,1.222,4.235,2.372,5.102,3.439 c0.355,0.474,0.771,1.126,1.245,1.956c0.558,0.913,0.926,1.696,1.127,2.372c0.214,0.592,0.356,1.328,0.416,2.193h0.178 c0.712-0.119,2.313-0.213,4.805-0.296c10.524-0.155,19.493,0,26.932,0.474c9.693,0.628,18.533,1.897,26.517,3.794 c4.9,1.221,8.839,2.585,11.805,4.091c3.951,2.015,7.475,4.837,10.56,8.477c2.93,3.439,5.256,7.328,7,11.679 c3.12,7.707,4.354,16.659,3.678,26.856c-0.273,3.877-0.985,8.976-2.136,15.296c-1.341,7.671-2.171,12.769-2.491,15.295 c-0.558,4.624-0.831,9.094-0.831,13.398c0,0.866-0.119,1.459-0.356,1.779l-0.059,0.059c0.035,1.245,0.142,2.49,0.285,3.735h25.722 c-2.029-4.494-3.121-9.237-3.275-14.228C330.362,523.08,330.599,519.701,331.157,515.634z" class="st2"/><path d="M281.018,518.302c0.795-3.593,1.34-6.367,1.661-8.3c1.424-9.402,0.925-17.939-1.483-25.611 c-1.305-4.185-3.204-8.039-5.695-11.56c-2.61-3.64-5.671-6.616-9.195-8.952c-4.746-3.202-10.702-5.336-17.856-6.403 c-4.236-0.593-10.619-0.854-19.161-0.771c-3.204,0.083-5.6,0-7.178-0.237c-0.095-0.012-0.19-0.035-0.297-0.059 c-0.035,0.296-0.095,0.522-0.178,0.652l-0.83,1.838c-0.155,0.439-0.416,0.948-0.771,1.541c-0.558,0.795-1.211,1.518-1.958,2.194 c-0.237,0.237-0.451,0.439-0.653,0.593c3.797,2.407,7.083,5.359,9.848,8.833c0.296,0.368,0.569,0.723,0.83,1.067 c1.709,0.048,3.405,0.142,5.102,0.297c4.864,0.438,9.136,1.541,12.814,3.32c4.354,2.098,7.474,4.944,9.373,8.537 c2.171,4.114,2.811,9.07,1.898,14.88c-0.356,2.099-0.949,4.565-1.78,7.41c-0.985,3.237-1.72,5.668-2.195,7.292 c-2.622,8.644-4.176,17.015-4.722,25.137h29.65c0.011-4.494,0.367-8.952,1.115-13.398 C279.677,524.859,280.223,522.096,281.018,518.302z" class="st2"/><path d="M113.966,445.264v-7.648c0,0,0.059-0.095,0.059-0.178v-1.601h0.297l-0.059-2.964h-0.238v-11.975 c0.036-0.083,0.084-0.154,0.119-0.237v-2.905c0-0.083,0.024-0.155,0.059-0.238v-0.889c0-0.083,0.024-0.154,0.06-0.237v-3.32h-0.06 c-0.142-0.012-0.284-0.035-0.415-0.059c-12.529-1.506-21.937-2.621-28.237-3.32c-10.998-1.221-20.585-2.051-28.771-2.49 c-8.305-0.474-20.822-0.711-37.551-0.711h-2.314c-6.581,0-12.211,0.018-16.915,0.051v31.92c11.336-0.159,20.106-0.221,26.288-0.195 c14.949,0.083,28.332,0.569,40.161,1.482C77.091,440.58,92.93,442.418,113.966,445.264z" class="st2"/><path d="M221.933,531.344c-0.795-4.185,0.379-9.153,3.5-14.88c0.083-0.154,0.913-1.636,2.491-4.446 c1.032-1.779,1.804-3.296,2.314-4.565c1.578-3.676,2.396-7.612,2.432-11.798c0.036-4.031-0.652-7.979-2.076-11.857h-0.012 c-0.937-2.573-2.183-5.051-3.737-7.41c-0.155,0.047-0.309,0.083-0.475,0.118c0.036-0.154,0.083-0.296,0.119-0.415 c0.023-0.047,0.047-0.106,0.059-0.177c-0.581-0.854-1.222-1.708-1.898-2.55c-2.575-3.118-5.553-5.833-8.958-8.122 c-1.222-0.794-1.661-1.541-1.305-2.252c0.083-0.202,0.202-0.332,0.356-0.415c0.035-0.238,0.142-0.498,0.296-0.771 c0.084-0.119,0.416-0.474,1.009-1.067c1.269-1.269,2.147-2.739,2.61-4.387h-0.83c0.178-0.048,0.356-0.107,0.534-0.178 c0.13-0.024,0.249-0.036,0.355-0.059c0.178-0.593,0.297-1.198,0.356-1.838l0.06-1.186l-0.771-3.676 c-0.238-1.268-0.617-2.217-1.128-2.845l-0.949-0.949l-0.118-0.118h-0.06c0-0.083,0.024-0.143,0.06-0.178 c0-0.083,0.023-0.154,0.059-0.237s0.059-0.154,0.059-0.237c0.036-0.083,0.083-0.155,0.119-0.238c0-0.083,0.024-0.142,0.059-0.177 c0-0.083,0.024-0.155,0.06-0.238v-0.652c-0.036-0.083-0.06-0.154-0.06-0.237s0.024-0.154,0.06-0.237 c-0.036-0.036-0.06-0.083-0.06-0.119c0.155,0.036,0.321,0.083,0.475,0.119c0.118,0.036,0.213,0.083,0.296,0.119 c0.083-0.119,0.178-0.238,0.297-0.356h0.653c0.676-1.245,1.032-2.929,1.067-5.039h-0.356c-0.047-0.107-0.094-0.214-0.118-0.297 v-1.778c-0.024-0.119-0.071-0.237-0.119-0.356h0.475c0-0.237-0.024-0.462-0.06-0.652c-0.154-0.747-0.474-1.518-0.949-2.312 c-0.557-1.032-1.127-1.838-1.72-2.431c-0.748-0.747-1.744-1.423-2.966-2.015c-0.273-0.119-1.365-0.558-3.263-1.305 c-0.154,0-0.32,0.024-0.475,0.06c-0.355,0-0.711,0.023-1.067,0.059c-2.373,0-4.77,0.024-7.178,0.059h-23.967 c-2.218-0.035-4.425-0.059-6.644-0.059c-0.866,0.083-1.542,0.154-2.017,0.237c-0.51,0.083-0.866,0.095-1.067,0.059 c-1.27,0.51-2.017,0.807-2.255,0.89c-1.222,0.592-2.218,1.268-2.966,2.015c-0.593,0.593-1.162,1.399-1.72,2.431 c-0.475,0.794-0.795,1.565-0.949,2.312c-0.119,0.628-0.178,1.565-0.178,2.786c0,2.253,0.379,4.032,1.127,5.336h0.593 c0.119,0.154,0.237,0.296,0.356,0.415h0.178c0.119,0,0.214,0.035,0.297,0.118c0.035,0.036,0.059,0.095,0.059,0.178 c0.036,0.036,0.059,0.095,0.059,0.178c0.083,0.083,0.155,0.154,0.238,0.237c0,0.083-0.024,0.154-0.06,0.237 c-0.035,0.083-0.095,0.155-0.178,0.238c0,0.035-0.023,0.094-0.059,0.177c0,0.083-0.024,0.155-0.059,0.238v0.652 c-0.036,0.083-0.06,0.154-0.06,0.237c-0.083,0.083-0.142,0.154-0.178,0.237v0.356l-0.296,0.237c-0.51,0.628-0.89,1.577-1.127,2.845 l-0.772,3.676l0.06,1.186c0.035,0.355,0.071,0.711,0.118,1.067c0.107,0.071,0.214,0.142,0.297,0.237 c0.154,0.154,0.297,0.32,0.415,0.474c0.143,0.083,0.285,0.19,0.416,0.297h-0.89c0.51,1.648,1.4,3.118,2.669,4.387 c0.593,0.593,0.926,0.948,1.009,1.067c0.154,0.273,0.261,0.533,0.296,0.771c0.154,0.083,0.273,0.213,0.356,0.415 c0.356,0.711-0.083,1.458-1.305,2.252c-3.405,2.289-6.383,5.004-8.958,8.122c-0.866,1.079-1.684,2.182-2.432,3.32 c-1.435,2.265-2.598,4.636-3.5,7.114c-1.424,3.878-2.112,7.826-2.076,11.857c0.036,4.186,0.854,8.122,2.432,11.798 c0.51,1.269,1.282,2.786,2.314,4.565c1.578,2.81,2.408,4.292,2.491,4.446c3.121,5.727,4.295,10.695,3.5,14.88 c-0.439,2.372-1.566,4.945-3.381,7.707c-0.202,0.332-0.404,0.641-0.617,0.949h72.907c-0.202-0.308-0.415-0.617-0.617-0.949 C223.499,536.289,222.372,533.716,221.933,531.344z M179.517,479.589c0,2.372-0.498,4.304-1.483,5.81 c-0.273,0.391-0.688,0.889-1.246,1.482c-0.711,0.795-1.15,1.281-1.305,1.482c-1.423,1.743-2.254,3.7-2.491,5.869 c-0.083,0.913-0.083,2.016,0,3.32c0.119,1.459,0.202,2.55,0.237,3.261c0.237,2.692-0.119,4.826-1.068,6.403 c-0.593,0.984-1.459,1.861-2.61,2.608c-1.507,1.032-3.168,1.565-4.983,1.601c-1.898,0.083-3.524-0.415-4.864-1.482 c-0.914-0.712-1.744-1.743-2.492-3.083c-1.424-2.371-2.408-4.956-2.966-7.766c-0.593-2.763-0.688-5.537-0.297-8.3 c0.748-5.691,3.168-10.612,7.238-14.762c1.815-1.814,3.595-3.059,5.339-3.735c3.12-1.268,6.193-1.102,9.195,0.474 c1.542,0.747,2.61,1.755,3.203,3.024C179.399,476.827,179.6,478.083,179.517,479.589z M204.255,476.625 c4.651-0.071,9.29-0.119,13.94-0.119l0.178,0.178C213.663,476.684,208.965,476.661,204.255,476.625z" class="st2"/><path d="M178.034,416.273h19.932c-0.023-0.118-0.047-0.237-0.059-0.355c-1.744-15.379-6.905-29.524-15.483-42.448 c-3.203-4.778-7.451-10.114-12.754-16.007c-1.543-1.743-2.907-3.177-4.093-4.327c-3.358-3.202-7.736-6.071-13.111-8.597 c-2.883-1.422-7.795-3.414-14.712-5.987c-0.225-0.071-0.45-0.154-0.652-0.237c-0.012,6.983-0.665,13.682-1.958,20.097 c0.166,0.024,0.321,0.071,0.475,0.119c3.049,1.067,6.763,3.296,11.152,6.699c5.019,3.711,8.804,6.877,11.331,9.485 c9.847,9.924,16.468,23.56,19.873,40.906C178.022,415.859,178.034,416.072,178.034,416.273z" class="st2"/><path d="M63.957,404.239c0.036,0.083,0.095,0.154,0.178,0.237c0.119,0.083,0.214,0.154,0.297,0.237 c0.202,0.036,0.38,0.083,0.534,0.119c0.059,0,0.095-0.036,0.119-0.06c0.071,0.024,0.131,0.048,0.178,0.06h1.424 c0.083,0,0.166-0.024,0.237-0.06c1.756,0.166,3.654,0.344,5.695,0.534c-0.356-19.493-0.558-36.235-0.593-50.214 c0-4.268-0.059-7.47-0.178-9.604c-0.154-3.118-0.534-5.608-1.127-7.47c-0.831-2.691-2.314-5.015-4.449-6.995 c-2.136-1.981-4.568-3.225-7.296-3.735c-2.765-0.475-5.482-0.06-8.127,1.245c-2.693,1.304-4.627,3.201-5.813,5.691 c-0.629,1.34-1.068,2.94-1.305,4.802c-0.119,1.103-0.202,2.81-0.237,5.098l-0.475,56.736c0.214,0.794,0.19,1.683-0.059,2.667 c2.231,0.083,4.425,0.166,6.585,0.237c0,0,0.036,0.048,0.059,0.06c0.154,0.035,0.332,0.083,0.534,0.118 c0.119,0,0.237-0.023,0.356-0.059c0.036-0.035,0.095-0.059,0.178-0.059c0.036-0.036,0.095-0.095,0.178-0.178 c0.036-0.036,0.047-0.071,0.059-0.119c0.142,0.048,0.273,0.095,0.415,0.119c0.119,0,0.237-0.024,0.356-0.059l0.237-0.119 c0.083-0.083,0.178-0.154,0.297-0.237c0-0.083,0.024-0.154,0.059-0.237c0.036-0.083,0.095-0.154,0.178-0.237v-0.178 c0-0.083,0.024-0.154,0.059-0.237v-52.763c0-0.083,0.024-0.155,0.059-0.238s0.095-0.154,0.178-0.237v-0.178 c0-0.083,0.024-0.154,0.059-0.237v-0.237c0-0.083,0.024-0.154,0.059-0.237c0.036-0.083,0.059-0.154,0.059-0.237 c0.036-0.036,0.083-0.095,0.119-0.178c0-0.083,0.024-0.154,0.059-0.237v-0.237c0-0.083,0.024-0.154,0.059-0.237 c0.036-0.036,0.059-0.095,0.059-0.178c0.036-0.083,0.083-0.154,0.119-0.237l0.119-0.237c0.036-0.083,0.059-0.155,0.059-0.238 c0.083-0.035,0.142-0.094,0.178-0.177c0-0.083,0.024-0.155,0.059-0.238c0.036-0.083,0.095-0.154,0.178-0.237 c0.036-0.083,0.083-0.154,0.119-0.237c0.083-0.035,0.154-0.095,0.237-0.178c0-0.083,0.024-0.154,0.059-0.237 c0.036-0.083,0.095-0.154,0.178-0.237c0.036-0.083,0.083-0.154,0.119-0.237c0.083-0.036,0.154-0.095,0.237-0.178 c0.083-0.083,0.178-0.154,0.297-0.237c0.119-0.083,0.237-0.154,0.356-0.237c0.083-0.083,0.154-0.154,0.237-0.237 c0.083-0.083,0.178-0.143,0.297-0.178c0.083-0.083,0.178-0.154,0.297-0.237c0.154-0.083,0.297-0.155,0.415-0.238 c0.119-0.047,0.214-0.106,0.297-0.177c0.712-0.119,1.436-0.155,2.195-0.119c0.119,0.059,0.237,0.119,0.356,0.178 c0.154,0.035,0.332,0.083,0.534,0.118c0.083,0.036,0.154,0.06,0.237,0.06c0.083,0.083,0.178,0.142,0.297,0.178 c0.119,0.083,0.261,0.154,0.415,0.237c0.154,0.035,0.32,0.095,0.475,0.178c0.083,0.083,0.178,0.154,0.297,0.237 c0.036,0.083,0.083,0.154,0.119,0.237s0.059,0.154,0.059,0.237c0.083,0.083,0.142,0.142,0.178,0.178 c0.083,0.083,0.154,0.154,0.237,0.237c0.036,0.083,0.083,0.154,0.119,0.237c0.036,0.083,0.059,0.154,0.059,0.237 c0.083,0.083,0.142,0.143,0.178,0.178c0.036,0.083,0.083,0.154,0.119,0.237l0.119,0.237c0,0.083,0.024,0.155,0.059,0.238 c0,0.083,0.024,0.142,0.059,0.177c0.035,0.083,0.059,0.155,0.059,0.238v0.237c0.083,0.083,0.142,0.154,0.178,0.237 c0,0.083,0.024,0.142,0.059,0.178v0.889c0.036,0.083,0.059,0.154,0.059,0.237l0.119,0.237c0,0.083,0.024,0.154,0.059,0.237 c0,0.083,0.024,0.154,0.059,0.237v54.661c0.036,0.083,0.059,0.154,0.059,0.237v0.237C63.839,404.061,63.922,404.156,63.957,404.239 z" class="st2"/><path d="M20.593,204.984c0.391-0.439,0.688-0.866,0.89-1.304c0.273-0.629,0.451-1.447,0.534-2.431 c0-0.747-0.142-1.684-0.415-2.786c-0.119-0.83-0.392-1.506-0.831-2.016c-0.083-0.119-0.38-0.379-0.89-0.771l-1.127-0.711 c-0.629-0.32-1.103-0.51-1.424-0.593c-0.676-0.237-1.424-0.32-2.254-0.237c-0.558,0-1.092,0.095-1.602,0.296 c-0.202,0.083-0.593,0.321-1.186,0.712c-1.388,0.948-2.278,1.932-2.67,2.964c-0.154,0.391-0.273,0.984-0.356,1.779 c-0.202,2.051,0.178,3.699,1.127,4.92c0.747,0.913,1.697,1.518,2.848,1.838c0.914,0.32,2.041,0.391,3.381,0.237 c0.629-0.083,1.104-0.178,1.424-0.296C19.11,206.265,19.964,205.731,20.593,204.984z M18.932,202.85 c-0.51,0.747-1.566,1.162-3.144,1.245c-1.578,0-2.646-0.38-3.203-1.127c-0.32-0.355-0.51-0.925-0.593-1.719 c-0.154-0.948-0.083-1.695,0.237-2.253c0.119-0.154,0.51-0.593,1.187-1.304c0.629-0.439,1.091-0.676,1.364-0.711 c0.392-0.119,1.068,0,2.017,0.355l1.187,0.534c0.391,0.201,0.629,0.332,0.712,0.415c0.119,0.118,0.273,0.474,0.475,1.067 C19.56,200.929,19.489,202.103,18.932,202.85z" class="st2"/><path d="M18.398,213.462c0.237-0.593,0.083-1.328-0.475-2.194c-0.356-0.628-0.795-1.103-1.305-1.423 c-0.676-0.391-1.281-0.474-1.839-0.237c-0.475,0.154-0.89,0.51-1.246,1.067c-0.712,1.15-0.771,2.253-0.178,3.32 c0.19,0.356,0.451,0.629,0.771,0.83c-0.154,0.676-0.237,1.21-0.237,1.601c0,0.439,0.083,0.806,0.237,1.126 c0.154,0.273,0.439,0.51,0.831,0.712c0.712,0.32,1.281,0.332,1.72,0.059c0.273-0.202,0.498-0.652,0.653-1.364 c-0.154-0.272-0.237-0.889-0.237-1.837c0-0.083-0.024-0.166-0.059-0.238c0.237-0.154,0.475-0.355,0.712-0.592 C18.101,213.936,18.315,213.663,18.398,213.462z" class="st2"/><path d="M108.924,283.358c0.368-0.154,0.842-0.249,1.423-0.297c0.712-0.083,1.246-0.094,1.602-0.059l2.314,0.059v-28.1 c0.035-0.154,0.083-0.32,0.118-0.475c-0.106-2.478-0.189-5.406-0.237-8.774c-1.815-1.897-3.714-3.735-5.695-5.513v2.075 c0,0,0.024,0.095,0.06,0.178v28.99l0.177,0.533c0.119,0.392,0.155,0.973,0.119,1.72c-0.035,0.794-0.024,1.363,0.059,1.719 l0.178,0.771l0.06,0.948l-0.06,4.98C109.042,282.647,109.007,283.061,108.924,283.358z" class="st2"/><path d="M40.169,246.72c-0.997,5.004-2.776,9.237-5.339,12.687c-2.575,3.474-5.908,6.142-10.025,8.003 c-4.153,1.862-8.388,2.609-12.695,2.253c-0.249-0.023-0.487-0.083-0.712-0.178c-0.225,0.083-0.427,0.095-0.593,0.06 c-0.19,0.059-0.391,0.095-0.593,0.118c-3.452,0.285-6.857-0.151-10.211-1.288v100.829c0.99,0.318,2.034,0.599,3.152,0.828 c1.092,0.201,2.397,0.379,3.915,0.533c1.554-0.154,2.883-0.332,3.975-0.533c2.492-0.51,4.663-1.245,6.525-2.194 c2.575-1.387,4.829-3.403,6.763-6.047c1.78-2.407,3.168-5.134,4.153-8.181c1.388-4.387,2.041-10.47,1.958-18.26l-0.119-9.189 c0.036-3.474,0.261-6.521,0.653-9.13c0.391-2.727,1.044-5.134,1.958-7.232c1.341-3,3.417-5.597,6.229-7.767 c2.693-2.098,5.731-3.58,9.136-4.446c5.339-1.423,10.832-1.209,16.491,0.652c5.541,1.814,10.227,4.838,14.06,9.071 c2.492,2.881,4.236,5.75,5.22,8.596c0.712,2.016,1.186,4.352,1.424,6.996c0.154,1.695,0.237,4.114,0.237,7.232l0.415,76.596 c7.961,0.936,17.251,2.122,27.881,3.557h0.06c0.059,0,0.178,0,0.178,0V301.499c-2.065-6.13-5.055-11.999-8.958-17.608 c-4.864-7.031-10.797-13.184-17.797-18.437c-13.169-9.841-28.925-16.09-47.28-18.734H40.169z" class="st2"/><path d="M94.39,253.953v4.031c0.024,0.249,0.024,0.522,0,0.83v1.838c-0.036,0.083-0.059,0.154-0.059,0.237v0.178 c-0.036,0.071-0.071,0.13-0.119,0.178c-0.024,0.569-0.047,1.043-0.059,1.423c-0.119,1.506-0.036,2.762,0.237,3.794 c4.912,0.083,8.768,0.332,11.568,0.771v-24.781c0.035-0.083,0.083-0.143,0.118-0.178v-2.253c0-0.083,0.024-0.154,0.06-0.237v-0.889 c0-0.083,0.023-0.154,0.059-0.237v-0.356c-1.08-0.866-2.195-1.708-3.322-2.549c-3.085-2.277-5.932-3.925-8.543-4.921v0.415 c0,0.083,0.024,0.154,0.059,0.237v2.016c0.036,0.083,0.059,0.154,0.059,0.237v20.038C94.449,253.775,94.425,253.87,94.39,253.953z" class="st2"/><path d="M45.152,81.732c1.175,0.284,2.29,0.581,3.322,0.889c1.448-0.877,2.563-1.85,3.322-2.905 c1.744-2.371,2.373-5.276,1.898-8.715c-0.356-2.727-1.341-5.336-2.966-7.826c-1.507-2.288-3.441-4.304-5.814-6.047 c-3.998-2.929-9.195-5.004-15.602-6.225c-3.049-0.593-6.68-1.067-10.915-1.423c-2.254-0.178-5.529-0.415-9.847-0.711l-5.28-0.119 c-0.083,0.036-0.178,0.059-0.297,0.059C1.922,48.779,0.939,48.844,0,48.906v27.886C14.462,76.258,29.514,77.892,45.152,81.732z" class="st2"/><path d="M26.762,46.28c1.305-0.593,2.634-1.66,3.975-3.201c1.186-1.387,2.076-2.751,2.669-4.091 c0.949-2.288,1.127-4.838,0.534-7.648c-0.439-1.838-1.174-3.699-2.195-5.573c-0.297,0.391-0.653,0.889-1.068,1.482l-6.644,9.604 c-2.052,2.964-4.069,5.988-6.051,9.07c-0.142,0.202-0.273,0.379-0.415,0.534c2.61,0.154,5.102,0.391,7.475,0.711 C25.279,47.015,25.849,46.718,26.762,46.28z" class="st2"/><path d="M0,13.041c1.299,0.007,2.623,0.054,3.982,0.158c0.463,0,0.854,0.035,1.186,0.118 c0.332-0.083,0.724-0.118,1.186-0.118c6.169-0.474,11.722,0.059,16.67,1.601c1.661,0.557,3.12,1.186,4.39,1.897 c0.391-0.32,0.973-0.593,1.72-0.83c3.714-1.067,7.024-3.024,9.907-5.869c2.848-2.846,4.805-6.142,5.873-9.901 C44.924,0.066,44.929,0.031,44.939,0H0V13.041z" class="st2"/><path d="M9.084,26.182c1.424-1.862,4.01-4.802,7.771-8.833c0.19-0.214,0.368-0.415,0.534-0.593 c-3.263-0.545-7.071-0.854-11.449-0.949H5.762l-1.186,0.059c-0.32,0-0.593-0.024-0.83-0.059c-0.415,0.012-0.831,0.012-1.246,0 c-0.119,0.178-0.261,0.332-0.415,0.474L0,18.531v21.62l3.093-4.958C5.62,31.079,7.625,28.079,9.084,26.182z" class="st2"/><path d="M24.33,472.416c-0.558-9.877-4.153-19.955-10.797-30.235c-0.142-0.249-0.261-0.486-0.356-0.712 c-5.004,0.01-9.389,0.027-13.177,0.054v79.503c1.522-1.352,3.356-2.965,5.525-4.858c6.17-5.775,10.939-12.414,14.297-19.92 C23.298,488.34,24.805,480.395,24.33,472.416z" class="st2"/><path d="M16.321,163.722l-1.483-2.193c-0.593-0.747-1.21-1.269-1.839-1.542c-0.51-0.237-1.341-0.356-2.492-0.356 c-1.068,0-1.898,0.143-2.492,0.415c-0.985,0.475-1.756,1.388-2.313,2.728c-0.237,0.747-0.38,1.268-0.415,1.541v1.66 c0,0.865,0.024,1.387,0.059,1.541l0.831,1.779c0.593,1.102,1.602,1.802,3.025,2.075c0.356,0.083,0.914,0.118,1.661,0.118 c0.558,0,0.973-0.023,1.246-0.059c0.795-0.154,1.542-0.534,2.254-1.126c0.795-0.629,1.447-1.423,1.958-2.372 c0.32-0.628,0.475-1.15,0.475-1.541c0.036-0.51-0.035-1.127-0.237-1.838L16.321,163.722z" class="st2"/></g><linearGradient id="SVGID_1_" x1="167.5" x2="167.5" y1="491.779" y2="43.779" gradientTransform="matrix(1 0 0 -1 0 539.7795)" gradientUnits="userSpaceOnUse"><stop offset="0" style="stop-color:#134038;stop-opacity:0"/><stop offset="1" style="stop-color:#134038"/></linearGradient><rect width="335" height="492" y="48" class="st3"/></svg>