<svg xmlns="http://www.w3.org/2000/svg" xmlns:xlink="http://www.w3.org/1999/xlink" id="Layer_1" x="0" y="0" version="1.1" viewBox="0 0 335 540" xml:space="preserve" style="enable-background:new 0 0 335 540"><style type="text/css">.st0{fill:#49225b}.st1{opacity:.1;enable-background:new}.st2{fill:#f68dfe}.st3{fill:url(#SVGID_1_)}</style><rect width="335" height="540" y="0" class="st0"/><g class="st1"><path d="M202.098,76.04c0.403-0.166,0.842-0.427,1.305-0.771l8.305-5.217c0.842-0.498,1.554-0.913,2.136-1.245 c-0.072-0.083-0.143-0.178-0.238-0.296l-8.186-10.434c-0.629-0.794-1.032-1.34-1.187-1.66c-0.201-0.391-0.498-1.032-0.889-1.897 c-0.178-0.261-0.522-0.628-1.009-1.126v1.66c-0.036,0.083-0.083,0.154-0.119,0.237v9.604c0,0-0.023,0.095-0.059,0.178v6.936 c0,0.083-0.024,0.154-0.059,0.237V76.04z" class="st2"/><path d="M197.174,204.688c-0.249,0.035-0.534,0.059-0.83,0.059h-12.043c-0.214-0.024-0.415-0.036-0.593-0.059 c-0.19,0.901-0.427,1.79-0.712,2.667c-1.186,3.593-3.12,6.723-5.814,9.367c-0.937,0.961-1.934,1.791-2.966,2.49 c-0.047,0.036-0.106,0.048-0.178,0.06c-0.154,0.035-0.332,0.094-0.534,0.177c-0.201,0.036-0.391,0.083-0.593,0.119 c-0.154,0.036-0.32,0.095-0.474,0.178c-0.119,0.035-0.214,0.095-0.297,0.178l-0.237,0.237c-0.036,0.083-0.083,0.154-0.119,0.237 c-0.119,0.035-0.261,0.083-0.415,0.119c-0.036,0.035-0.095,0.083-0.178,0.118c-0.036,0.036-0.095,0.083-0.178,0.119 c-0.083,0.083-0.154,0.154-0.237,0.237c-0.072,0.035-0.143,0.047-0.238,0.059c1.009,0.51,1.78,0.901,2.314,1.186 c0.866,0.415,1.578,0.83,2.135,1.245c0.072-0.012,0.131-0.036,0.178-0.06c1.187,0.961,2.255,2.064,3.204,3.32 c1.388,1.862,2.574,4.15,3.559,6.877c1.009,2.668,1.697,5.277,2.076,7.826h0.772c0,0,0-0.083,0-0.119h8.601 c0.107-0.059,0.214-0.118,0.297-0.178c0.202,0,0.392-0.023,0.593-0.059v-0.059h51.611c2.61,0.035,5.22,0.059,7.83,0.059 c0.392,0.036,0.807,0.059,1.246,0.059c0.273,0.036,0.558,0.083,0.83,0.119c0.155,0,0.333,0.024,0.534,0.059h0.06l0.771-0.178 c0.712-0.154,1.341-0.474,1.898-0.948c0.593-0.51,0.973-1.103,1.127-1.779c0.202-0.711,0.143-1.399-0.178-2.075 c-0.32-0.747-0.795-1.268-1.423-1.541l-1.483-0.593c-0.202-0.083-0.356-0.178-0.475-0.296h-3.797 c-2.728-0.036-5.457-0.06-8.186-0.06c-0.558-0.035-1.127-0.083-1.72-0.118c-0.238,0-0.475-0.024-0.712-0.059 c-0.119-0.036-0.238-0.06-0.356-0.06c-0.155-0.035-0.297-0.059-0.416-0.059c-0.154-0.083-0.32-0.142-0.474-0.178 c-0.154-0.083-0.297-0.154-0.415-0.237l-0.178-0.178c-0.083-0.083-0.143-0.154-0.178-0.237c-0.036-0.083-0.06-0.154-0.06-0.237 s0.024-0.154,0.06-0.237v-0.178c0.083-0.083,0.154-0.154,0.237-0.237l0.237-0.237c0.083-0.036,0.178-0.083,0.297-0.119 c0.035-0.035,0.083-0.083,0.119-0.118c0.118,0,0.237-0.024,0.355-0.06c0.119-0.035,0.261-0.059,0.416-0.059 c0.118-0.036,0.237-0.083,0.356-0.119c0.237,0,0.474-0.023,0.712-0.059c0.593,0,1.162-0.024,1.72-0.059h8.186v-0.059h4.687 c0.083-0.321,0.332-0.617,0.771-0.89c0.237-0.154,0.593-0.391,1.068-0.711c0.557-0.391,0.866-0.949,0.949-1.66 c0.119-0.711-0.036-1.328-0.475-1.838c-0.201-0.273-0.51-0.533-0.949-0.771c-0.237-0.154-0.593-0.379-1.068-0.652 c-0.201-0.118-0.379-0.261-0.533-0.415h-7.119c-1.863,0-3.702-0.023-5.517-0.059c-0.985-0.036-1.981-0.059-2.966-0.059 c-0.273-0.036-0.558-0.06-0.831-0.06c-0.118-0.035-0.261-0.083-0.415-0.118c-0.119,0-0.237-0.024-0.356-0.059 c-0.154-0.036-0.32-0.083-0.474-0.119c-0.084-0.083-0.155-0.154-0.238-0.237l-0.237-0.237c0-0.083-0.024-0.154-0.059-0.237 c0-0.083-0.024-0.143-0.06-0.178c0.036-0.083,0.06-0.154,0.06-0.237c0.035-0.083,0.059-0.155,0.059-0.238 c0.083-0.083,0.154-0.154,0.237-0.237c0.083-0.083,0.154-0.142,0.238-0.178c0.154-0.083,0.32-0.142,0.474-0.177 c0.119-0.036,0.237-0.06,0.356-0.06c0.154-0.035,0.297-0.059,0.415-0.059c0.273-0.036,0.558-0.083,0.831-0.119 c0.985,0,1.981-0.023,2.966-0.059h5.517v-0.059h7.475c0.154,0,0.32,0.024,0.474,0.059c0.154,0.036,0.32,0.095,0.475,0.178 c0.083,0,0.142,0.024,0.178,0.059c0.035,0,0.083-0.023,0.118-0.059c0.238-0.154,0.617-0.356,1.127-0.593 c0.558-0.32,0.973-0.794,1.246-1.423c0.273-0.592,0.38-1.221,0.297-1.897c-0.202-1.387-0.985-2.312-2.373-2.786l-1.602-0.534 c-0.273-0.118-0.474-0.26-0.593-0.415h-15.009c-0.237-0.035-0.45-0.083-0.652-0.118c-0.119,0-0.237-0.024-0.356-0.059 c-0.119-0.036-0.214-0.06-0.297-0.06c-0.154-0.035-0.32-0.095-0.474-0.178c-0.083-0.083-0.178-0.142-0.297-0.177 c-0.035-0.083-0.083-0.155-0.119-0.238c-0.035-0.083-0.083-0.154-0.118-0.237c0-0.083-0.024-0.154-0.059-0.237 c0.035-0.083,0.059-0.142,0.059-0.178v-0.237c0.035-0.083,0.083-0.154,0.118-0.237c0.036-0.083,0.095-0.154,0.178-0.237 c0.083-0.036,0.155-0.083,0.238-0.119c0.035-0.035,0.095-0.059,0.178-0.059c0.083-0.036,0.178-0.083,0.296-0.119 c0.083,0,0.178-0.023,0.297-0.059c0.119-0.035,0.237-0.059,0.356-0.059h0.652v-0.119h15.068c0.119,0.036,0.238,0.083,0.356,0.119 c0.202,0.035,0.38,0.083,0.534,0.118l0.475,0.238l0.059,0.059c0.083-0.119,0.178-0.214,0.297-0.297l1.483-0.77 c0.356-0.154,0.652-0.439,0.889-0.83c0.558-0.747,0.831-1.625,0.831-2.609s-0.297-1.838-0.89-2.549 c-0.202-0.273-0.498-0.652-0.89-1.126c0-0.036-0.023-0.06-0.059-0.06h-0.237c-0.321,0.036-0.617,0.083-0.89,0.119 c-0.392,0-0.795,0.024-1.187,0.059h-13.05c0,0-0.083,0.059-0.119,0.059c-0.356,0.119-0.736,0.178-1.127,0.178l-1.899-0.059 c-0.272-0.036-0.498-0.095-0.652-0.178h-10.263c-1.068-0.035-2.112-0.059-3.144-0.059c-0.273-0.036-0.569-0.083-0.89-0.119 c-0.154,0-0.296-0.023-0.415-0.059s-0.261-0.059-0.415-0.059c-0.036-0.036-0.083-0.06-0.119-0.06 c-0.154-0.083-0.32-0.142-0.475-0.177c0-0.036-0.023-0.06-0.059-0.06c-0.118-0.083-0.237-0.201-0.356-0.355 c-0.083-0.083-0.142-0.178-0.178-0.297c-0.237-0.474-0.379-0.83-0.415-1.067l0.059-0.474c-0.118-0.154-0.213-0.356-0.296-0.593 c-0.273-0.676-0.57-1.684-0.89-3.024c-0.202-0.118-0.38-0.237-0.534-0.355v-0.237c-0.036-0.083-0.059-0.155-0.059-0.238 c-0.083-0.083-0.143-0.154-0.178-0.237v-0.178c0-0.083-0.024-0.154-0.06-0.237v-0.237c-0.035-0.083-0.059-0.154-0.059-0.237 l-0.178-0.178c0-0.083-0.024-0.154-0.059-0.237c-0.036-0.083-0.06-0.154-0.06-0.237c-0.083-0.083-0.142-0.154-0.177-0.237 c0-0.083-0.024-0.154-0.06-0.237v-0.178c-0.035-0.083-0.059-0.154-0.059-0.237c-0.083-0.083-0.143-0.154-0.178-0.237 c0-0.083-0.024-0.155-0.059-0.238c-0.036-0.035-0.06-0.094-0.06-0.177c-0.035-0.083-0.083-0.155-0.118-0.238 c0-0.083-0.024-0.154-0.06-0.237c-0.035-0.083-0.083-0.154-0.118-0.237c-0.083-0.035-0.143-0.095-0.178-0.178 c0-0.083-0.024-0.154-0.06-0.237c-0.035-0.083-0.059-0.154-0.059-0.237c-0.036-0.083-0.083-0.154-0.119-0.237 c0-0.036-0.023-0.095-0.059-0.178c-0.036-0.036-0.059-0.095-0.059-0.178c0.035,0.036,0.083,0.083,0.118,0.119 c-0.083-0.119-0.142-0.214-0.178-0.297v-0.118c-0.035-0.083-0.083-0.154-0.118-0.237c-0.036-0.036-0.083-0.095-0.119-0.178 c-0.475-0.949-0.985-1.921-1.542-2.905c-0.51-0.984-0.914-1.684-1.187-2.075c-0.201-0.154-0.391-0.332-0.593-0.534 c-1.934-1.778-3.536-2.822-4.805-3.142c-0.593-0.083-1.032-0.201-1.305-0.355c-0.036,0-0.083-0.024-0.119-0.06h-0.178v0.06 c-0.201,0.035-0.379,0.059-0.534,0.059v0.059c-0.118-0.201-0.213-0.391-0.296-0.593c-0.238,0.036-0.451,0.095-0.653,0.178 c-0.83,0.273-1.518,0.747-2.076,1.423c-0.558,0.711-0.795,1.458-0.712,2.253c0.036,0.557,0.332,1.268,0.89,2.134l3.263,5.513 c1.388,2.372,2.278,4.115,2.669,5.217c0.712,2.218,0.807,4.127,0.297,5.751c-0.155,0.593-0.392,1.032-0.712,1.304 c-0.439,0.356-0.89,0.38-1.365,0.06l-0.059-0.06c-0.119,0-0.213,0.024-0.297,0.06c-0.201,0-0.391,0.023-0.593,0.059 c-0.201,0-0.379,0.024-0.534,0.059h-6.525c-1.898-0.035-3.797-0.059-5.695-0.059C197.411,204.747,197.293,204.711,197.174,204.688z" class="st2"/><path d="M178.428,308.198c2.219-3.877,3.227-8.335,3.026-13.398c-0.155-3.877-1.009-7.612-2.551-11.205 c-1.068-2.442-2.385-4.672-3.975-6.699c-0.308-0.024-0.605-0.19-0.89-0.474c-0.237-0.202-0.557-0.534-0.949-1.008l-3.085-2.609 c-0.711-0.557-1.222-0.913-1.542-1.067c-0.83-0.439-1.305-0.687-1.424-0.77c-0.344-0.214-0.557-0.475-0.652-0.771 c-0.083-0.036-0.155-0.071-0.238-0.119c-12.695-3.32-26.671-5.952-41.94-7.885c-12.185-1.541-27.194-2.845-45.026-3.912 c-0.356,0-0.747-0.024-1.186-0.06c-3.642-0.154-9.824-0.118-18.568,0.119l-6.644,0.237c-0.475,0.083-0.89,0.083-1.246,0 c-15.981,0.984-29.566,2.194-40.755,3.616C7.113,262.658,3.521,263.165,0,263.71v46.814c0.413-0.063,0.817-0.13,1.232-0.192 c10.595-1.577,23.812-2.999,39.627-4.268c0.273-0.036,0.57-0.059,0.89-0.059c6.609-0.51,11.9-0.736,15.898-0.653l6.525-0.415 c6.798-0.32,12.315-0.177,16.551,0.415h1.068l12.339,0.712c15.815,1.269,29.032,2.691,39.627,4.268l29.662,5.929 c1.305,0.32,2.61,0.676,3.915,1.067c0.237-0.119,0.498-0.237,0.771-0.356C172.496,315.549,175.937,312.621,178.428,308.198z" class="st2"/><path d="M66.131,188.207c-2.254,1.742-4.769,2.549-7.534,2.43c-2.848-0.201-5.28-1.269-7.297-3.201 c-1.068-1.15-1.72-2.253-1.958-3.32c-0.273-1.186-0.059-2.692,0.653-4.506c0.747-1.897,1.661-3.616,2.729-5.157 c0.949-1.305,1.519-2.23,1.72-2.787c0.475-1.15,0.51-2.371,0.119-3.675c-0.391-1.269-1.103-2.253-2.136-2.965 c-0.593-0.438-1.364-0.794-2.314-1.067c-0.558-0.201-1.4-0.438-2.551-0.711c-0.38-0.119-0.653-0.261-0.831-0.415 c-13.917,0.948-25.9,2.051-35.949,3.32c-3.674,0.469-7.25,0.981-10.783,1.514v45.038c0.413-0.063,0.817-0.13,1.232-0.192 c10.595-1.577,23.812-3,39.627-4.268c0.297-0.024,0.593-0.048,0.89-0.06c6.62-0.533,11.912-0.747,15.898-0.652l6.525-0.415 c6.798-0.332,12.315-0.213,16.551,0.356c0.344,0.024,0.676,0.047,1.008,0.059l12.398,0.712c15.815,1.268,29.032,2.691,39.627,4.268 l29.662,5.929c1.328,0.332,2.634,0.664,3.915,1.007c0.225-0.083,0.474-0.189,0.771-0.296c4.39-1.423,7.831-4.352,10.322-8.774 c2.219-3.877,3.227-8.336,3.026-13.398c-0.155-3.878-1.009-7.613-2.551-11.205c-1.175-2.715-2.682-5.182-4.509-7.411 c-0.605-0.723-1.257-1.434-1.957-2.134c-0.202-0.201-0.38-0.391-0.534-0.593c-0.154-0.035-0.332-0.095-0.534-0.178 c-0.712-0.201-1.448-0.391-2.195-0.592c-6.621-1.826-13.597-3.463-20.941-4.921c-0.13,0.581-0.664,1.126-1.602,1.66 c-1.934,1.031-3.44,2.158-4.508,3.379c-1.424,1.625-2.017,3.356-1.78,5.217c0.083,0.557,0.273,1.269,0.593,2.134 c0.439,1.103,0.689,1.814,0.772,2.135c0.391,1.422,0.391,2.905,0,4.446c-0.439,1.506-1.163,2.846-2.195,4.031 c-0.914,1.103-1.934,1.921-3.085,2.431c-1.151,0.474-2.373,0.652-3.678,0.533c-1.27-0.154-2.409-0.592-3.441-1.304 c-1.032-0.747-1.803-1.695-2.313-2.845c-0.558-1.186-0.771-2.396-0.653-3.617c0.119-1.221,0.712-2.881,1.78-4.98 c1.103-2.252,1.756-3.936,1.957-5.039c0.238-1.506,0.095-2.905-0.415-4.209c-0.391-1.032-1.032-2.075-1.898-3.142 c-0.439-0.51-1.281-1.423-2.551-2.727c-0.664-0.735-1.044-1.376-1.127-1.897c-9.041-1.15-19.66-2.17-31.856-3.083 c0.024,0.071,0.024,0.13,0,0.178c-0.154,0.391-0.652,0.711-1.483,0.948c-1.103,0.32-2.053,0.771-2.848,1.364 c-0.914,0.711-1.459,1.565-1.661,2.549c-0.083,0.51-0.059,1.103,0.059,1.779c0.154,0.794,0.261,1.363,0.297,1.719 c0.356,2.336,0.036,4.209-0.949,5.632c-1.032,1.506-2.634,2.395-4.805,2.668c-2.017,0.32-3.761,0.059-5.22-0.771 c-0.795-0.439-1.448-1.008-1.958-1.719c-0.593-0.795-0.914-1.625-0.949-2.49c0-0.237-0.024-0.629-0.059-1.186 c-0.036-0.474-0.142-0.854-0.297-1.126c-0.475-0.676-1.305-0.973-2.492-0.89c-0.831,0.036-1.578,0.273-2.254,0.712 c-0.747,0.474-1.151,1.067-1.186,1.778c-0.083,0.629,0.32,1.566,1.186,2.787c1.186,1.814,1.78,3.498,1.78,5.039 C69.429,184.329,68.35,186.392,66.131,188.207z" class="st2"/><path d="M124.86,163.248c0.831-11.561,0.546-21.58-0.83-30.057c-1.068-6.723-2.907-12.071-5.517-16.066 c-1.626-2.49-3.583-4.565-5.873-6.225c-2.183-1.554-4.485-2.561-6.882-3.024c-0.106,0.036-0.201,0.059-0.296,0.059 c-0.226,0-0.416-0.059-0.594-0.177c-2.93-0.356-5.718,0.154-8.364,1.541c-2.729,1.423-4.603,3.439-5.636,6.047 c-0.795,2.016-1.008,4.423-0.653,7.233c0.059,0.521,0.154,1.185,0.297,2.015c1.792-0.818,3.726-1.197,5.814-1.126 c2.337,0.119,4.425,0.771,6.288,1.956c2.765,1.779,4.865,4.589,6.288,8.419c0.95,2.691,1.602,6.189,1.958,10.493 c0.664,7.126,0.629,12.912-0.119,17.37C115.807,162.204,120.506,162.726,124.86,163.248z" class="st2"/><path d="M172.97,162.003c-0.438,0.557-1.032,1.126-1.779,1.719c-1.815,1.743-3.18,3.047-4.093,3.913 c-1.246,1.126-2.421,2.051-3.5,2.786c2.42,0.652,4.793,1.328,7.118,2.016c0.594,0.201,1.187,0.379,1.78,0.533 c0.083,0.036,0.154,0.083,0.237,0.119c0.083-0.083,0.154-0.154,0.237-0.237c0.641-0.51,1.234-1.091,1.78-1.719 c2.278-2.49,3.726-5.787,4.331-9.901c0.308-2.146,0.332-4.636,0.059-7.47c-0.297,0.475-0.629,0.949-1.008,1.423 c-1.27,1.506-2.172,2.632-2.729,3.379C174.418,160.141,173.599,161.291,172.97,162.003z" class="st2"/><path d="M173.148,248.914c3.299-0.285,6.063-1.648,8.306-4.091c-0.178-3.818-1.033-7.493-2.551-11.027 c-1.068-2.442-2.385-4.671-3.975-6.699c-0.035-0.024-0.071-0.047-0.119-0.059l-1.186-0.83c-0.712-0.557-1.637-1.15-2.788-1.779 c-0.676-0.355-1.685-0.865-3.026-1.541c-0.32-0.19-0.593-0.38-0.83-0.593c-0.024,0.012-0.071,0.012-0.119,0 c-0.249-0.036-0.474-0.119-0.652-0.237c-0.392-0.083-0.783-0.178-1.187-0.297l-39.805-7.469c-0.332-0.036-0.664-0.072-1.008-0.119 c-11.272-1.423-24.975-2.644-41.111-3.676c-0.32,0.119-0.771,0.178-1.364,0.178l-27.348-0.118c-0.427,0-0.795-0.024-1.127-0.06 l-0.475,0.06c-0.427,0.047-0.807,0.047-1.127,0c-1.044,0.071-2.1,0.13-3.144,0.178l-37.729,3.438 c-0.439,0.059-0.878,0.119-1.305,0.178c-0.498,0.059-0.997,0.118-1.483,0.178L0,216.046v24.656 c2.113-0.002,4.166-0.483,6.156-1.452c0.949-0.474,2.195-1.268,3.737-2.371c1.697-1.186,2.931-1.992,3.678-2.431 c2.1-1.15,4.331-1.802,6.703-1.956c2.409-0.202,4.686,0.154,6.822,1.067c0.712,0.32,1.72,0.854,3.025,1.601 c1.305,0.794,2.29,1.34,2.966,1.66c3.642,1.66,7.38,1.897,11.212,0.711c1.578-0.474,3.536-1.446,5.873-2.905 c2.847-1.743,4.746-2.822,5.695-3.26c2.646-1.269,5.422-1.921,8.305-1.957c3.049-0.035,5.79,0.617,8.246,1.957 c0.747,0.391,1.803,1.09,3.144,2.075c1.388,0.984,2.432,1.683,3.144,2.074c2.171,1.186,4.532,1.838,7.059,1.957 c2.574,0.118,4.983-0.32,7.237-1.304c0.51-0.238,1.697-0.854,3.559-1.838c1.459-0.795,2.693-1.34,3.678-1.66 c1.899-0.557,4.426-0.617,7.594-0.178c2.456,0.391,4.271,0.948,5.457,1.66c0.795,0.51,1.721,1.387,2.788,2.608 c1.27,1.423,2.16,2.348,2.67,2.787c1.934,1.695,4.354,2.703,7.237,3.023c2.693,0.273,5.339-0.095,7.949-1.126 c0.95-0.356,2.468-1.067,4.568-2.134c1.899-0.984,3.417-1.684,4.568-2.075c3.085-0.984,6.265-1.032,9.551-0.119 c3.286,0.866,5.992,2.514,8.127,4.921c1.222,1.577,2.195,2.727,2.907,3.438c1.222,1.221,2.693,2.158,4.39,2.787 C169.708,248.854,171.404,249.068,173.148,248.914z" class="st2"/><path d="M175.818,138.585c-0.32-1.043-0.676-2.098-1.068-3.142l-1.186,1.72c-3.916,5.098-8.187,9.9-12.814,14.406 l-15.898,14.643c0,0-0.071,0.059-0.119,0.059c5.327,0.996,10.429,2.087,15.305,3.261c0.19-0.213,0.617-0.569,1.305-1.067 c2.1-1.506,4.805-3.83,8.127-6.996c0.831-0.794,1.507-1.506,2.017-2.134l1.068-1.66c0.475-0.747,1.388-1.921,2.729-3.498 c1.222-1.423,2.1-2.585,2.61-3.497c0.226-0.522,0.439-0.902,0.653-1.127c-0.083-0.533-0.178-1.079-0.297-1.66 C177.598,144.716,176.791,141.621,175.818,138.585z" class="st2"/><path d="M84.995,140.483c-1.744,1.778-3.002,3.142-3.797,4.09c-1.661,2.17-2.942,3.771-3.856,4.802 c-0.866,0.984-1.424,1.636-1.661,1.957c-0.712,1.185-1.281,2.051-1.72,2.608c-0.154,0.237-0.735,0.83-1.72,1.779 c-0.949,0.83-1.898,1.897-2.848,3.201c-0.142,0.202-0.273,0.379-0.415,0.534c3.037,0,5.505,0.023,7.415,0.118 c0.19-0.024,0.391-0.047,0.593-0.059c3.642-0.107,8.436,0.059,14.356,0.474c0-0.32,0.012-0.699,0.059-1.126 c0.688-8.217,0.13-16.458-1.661-24.722C87.665,137.175,86.075,139.297,84.995,140.483z" class="st2"/><path d="M40.86,354.084c7.036-0.593,12.636-0.83,16.788-0.711l6.525-0.415c6.798-0.32,12.315-0.178,16.551,0.415 c3.642,0.035,8.103,0.272,13.407,0.711c15.815,1.269,29.032,2.692,39.627,4.269c12.185,1.814,23.35,4.15,33.518,6.995 c0.237-0.118,0.51-0.237,0.83-0.355c4.39-1.423,7.831-4.352,10.322-8.775c2.219-3.877,3.227-8.335,3.026-13.398 c-0.155-3.877-1.009-7.612-2.551-11.205c-1.068-2.454-2.397-4.683-3.975-6.699c-0.035-0.035-0.083-0.059-0.119-0.059l-1.186-0.83 c-0.712-0.557-1.637-1.15-2.788-1.779c-0.676-0.355-1.685-0.865-3.026-1.541c-0.32-0.201-0.569-0.379-0.771-0.533 c-0.083-0.036-0.142-0.06-0.178-0.06c-0.237-0.035-0.451-0.095-0.652-0.178c-0.392-0.118-0.771-0.213-1.127-0.296l-39.806-7.529 c-0.356-0.036-0.712-0.083-1.067-0.119c-11.272-1.423-24.975-2.644-41.111-3.675c-0.32,0.118-0.771,0.178-1.364,0.178 l-27.348-0.119h-1.602c-0.439,0.035-0.807,0.035-1.127,0c-1.032,0.083-2.052,0.142-3.085,0.178l-37.788,3.438 c-0.439,0.036-0.866,0.095-1.305,0.178c-0.51,0.083-1.008,0.154-1.483,0.237L0,313.914v44.631c0.413-0.063,0.817-0.13,1.232-0.192 C11.827,356.776,25.044,355.353,40.86,354.084z" class="st2"/><path d="M128.182,151.213c-0.012,3.356-0.154,6.735-0.415,10.138c-0.071,0.853-0.154,1.6-0.237,2.253 c2.171,0.296,4.247,0.592,6.228,0.889c0.724,0.106,1.436,0.201,2.136,0.296l0.059,0.059c0.119,0.083,0.214,0.155,0.297,0.238 c0.202,0.035,0.38,0.094,0.534,0.177c0.391,0.036,0.795,0.083,1.186,0.119c0.155,0.036,0.333,0.095,0.534,0.178h1.365 c-0.321-0.688-0.617-1.553-0.89-2.609c-1.543-4.897-3.536-9.58-5.992-14.05c-0.51-0.866-0.89-1.624-1.127-2.253 c-0.154-0.474-0.391-1.209-0.712-2.193c-0.273-0.676-0.89-1.565-1.839-2.668c-0.557-0.712-1.091-1.47-1.601-2.253 c0.201,2.419,0.344,4.826,0.415,7.233c-0.024,0.047-0.048,0.083-0.059,0.118v2.905c0.035,0.083,0.083,0.154,0.118,0.237v0.238 c0,0.083,0.024,0.142,0.059,0.177c0.036,0.083,0.06,0.155,0.06,0.238c0.035,0.083,0.059,0.154,0.059,0.237v0.592 C128.301,151.426,128.241,151.32,128.182,151.213z" class="st2"/><path d="M280.403,146.945c-0.949-1.032-2.491-1.838-4.627-2.431c-0.356-0.083-0.712-0.178-1.068-0.296 c-0.474,0.083-1.008,0.023-1.601-0.178c-3.204-0.593-7.629-1.008-13.289-1.245c-13.371-0.475-26.908-0.202-40.635,0.83 c-0.392,0.035-0.748,0.035-1.068,0c-1.863,0.237-3.358,0.533-4.509,0.889c-2.135,0.593-3.678,1.399-4.627,2.431 c-0.913,0.913-1.447,2.051-1.602,3.438c-0.201,1.34,0.024,2.585,0.653,3.735c0.036,0.083,0.083,0.142,0.119,0.178 c0.676-0.202,1.459-0.391,2.373-0.593c7.154-1.387,14.391-1.992,21.712-1.838c5.457-0.32,12.872-0.332,22.245-0.059 c0.677,0,1.329,0.024,1.958,0.059c7.51-0.201,14.985,0.415,22.424,1.838c0.913,0.202,1.696,0.391,2.373,0.593 c0.035-0.036,0.083-0.095,0.118-0.178c0.629-1.15,0.855-2.395,0.653-3.735C281.851,148.996,281.317,147.858,280.403,146.945z" class="st2"/><path d="M13.571,76.87c0.024-0.059,0.047-0.119,0.059-0.178c-1.708-1.743-3.12-3.782-4.212-6.106 c-0.237,0.439-0.617,0.794-1.127,1.067c-1.625,1.032-3.405,1.755-5.339,2.194C2.184,74.029,1.199,74.163,0,74.252V84.7 c2.452-1.308,4.973-2.522,7.58-3.62c1.815-0.759,3.915-1.553,6.288-2.371l-0.415-0.652c-0.083-0.202-0.095-0.415-0.059-0.652 C13.393,77.25,13.453,77.072,13.571,76.87z" class="st2"/><path d="M14.165,81.91c-0.119,0.036-0.237,0.083-0.356,0.119c-0.237,0.083-0.451,0.154-0.653,0.237 c-0.202,0.036-0.392,0.095-0.593,0.178c-0.119,0-0.237,0.024-0.356,0.059h-0.119c-0.154,0.059-0.309,0.119-0.475,0.178 c-3.524,1.34-6.763,2.786-9.729,4.328l4.271,3.32c4.307,3.486,8.851,7.6,13.644,12.331c0.036,0.036,0.071,0.071,0.119,0.119 c0.024,0.047,0.047,0.083,0.059,0.118l2.907,3.083c0.107,0.059,0.202,0.119,0.297,0.178c0.059,0.047,0.119,0.083,0.178,0.119 c0.712,0.711,1.4,1.422,2.076,2.134c0.107-0.095,0.202-0.214,0.297-0.356c0.083-0.107,0.19-0.225,0.297-0.356 c0.415-0.604,1.103-1.292,2.076-2.075c0.973-1.019,1.886-2.063,2.729-3.142c0.012-0.047,0.012-0.106,0-0.178 c1.068-1.268,1.815-2.11,2.254-2.549c0.712-0.794,1.803-1.933,3.263-3.439c0.475-0.51,1.151-1.34,2.017-2.49 c0.985-1.067,2.575-2.573,4.746-4.506c0.747-0.711,1.993-2.016,3.737-3.913c1.542-1.743,2.812-3.047,3.797-3.913l3.678-2.905 c1.744-1.304,3.464-2.632,5.161-3.972c0.202,0,0.403-0.036,0.593-0.059c0.439-0.379,0.914-0.783,1.424-1.186 c-2.8,0.071-5.386,0.213-7.771,0.415h-0.297l0.119,0.059v0.059c0,0-0.047,0.083-0.059,0.118c-0.202-0.036-0.38-0.083-0.534-0.118 h-3.797v0.059c-0.154,0.036-0.332,0.059-0.534,0.059c-0.059,0.012-0.119,0.012-0.178,0c-0.89,0.095-1.78,0.202-2.669,0.296 c-0.095,0.13-0.214,0.273-0.356,0.415l-0.356,0.356h-3.737l0.297-0.296c-9.23,1.316-18.247,3.569-27.051,6.758 c0.024,0.059,0.047,0.095,0.059,0.119c-0.024,0.024-0.036,0.047-0.059,0.059C14.426,81.815,14.283,81.874,14.165,81.91z" class="st2"/><path d="M65.597,73.313c-0.107,0.356-0.356,0.711-0.771,1.067c-0.842,0.806-2.064,1.601-3.678,2.371 c-2.93,2.3-5.173,4.079-6.703,5.336c-3.12,2.526-5.636,4.897-7.534,7.114c-1.744,1.933-2.764,3.047-3.085,3.32l-2.492,2.134 c-0.154,0.119-0.807,0.866-1.958,2.253c-0.593,0.747-1.566,1.838-2.907,3.26l-2.788,2.964c-0.356,0.57-0.736,1.103-1.127,1.601 c0.166,0.036,0.296,0.059,0.415,0.059v0.06c-0.095,0.095-0.202,0.166-0.297,0.237c-0.071,0.035-0.166,0.071-0.297,0.118 l-0.119-0.059c-0.261,0.332-0.522,0.652-0.771,0.949c-0.688,0.652-1.293,1.245-1.839,1.778c-0.736,0.913-1.459,1.802-2.195,2.668 c1.376,1.458,2.753,2.964,4.153,4.506c8.388,9.248,19.897,23.002,34.526,41.262c0.344,0.426,0.664,0.841,0.949,1.244 c0.059-0.083,0.119-0.154,0.178-0.237l4.449-5.632c4.034-5.134,7.297-9.035,9.788-11.679c1.424-1.505,2.456-2.644,3.085-3.438 c0.475-0.593,1.127-1.542,1.958-2.846c0.795-1.067,1.566-1.873,2.314-2.43c0.071-0.06,0.13-0.119,0.178-0.178 c-0.202-0.913-0.451-2.004-0.771-3.261c-0.474-2.099-0.795-3.913-0.949-5.454c-0.356-4.352,0.356-7.885,2.136-10.612 c1.186-1.814,2.824-3.356,4.924-4.624c0.795-0.486,1.59-0.901,2.373-1.245c1.436-0.629,2.859-1.044,4.272-1.245l-4.212-4.506 c-1.341-1.423-2.313-2.513-2.907-3.26c-1.151-1.387-1.804-2.134-1.958-2.253l-2.492-2.134c-0.32-0.273-1.341-1.387-3.085-3.32 c-1.898-2.217-4.414-4.589-7.534-7.114c-1.78-1.458-4.509-3.616-8.186-6.462c-0.759-0.581-1.293-1.15-1.602-1.719 c-0.107-0.178-0.178-0.356-0.237-0.534v-0.059H65.597z M69.809,113.686c0.273,0.676,0.392,1.269,0.356,1.779 c-0.036,0.509-0.261,0.948-0.653,1.304c-0.392,0.391-0.866,0.652-1.424,0.771c-0.985,0.237-1.981,0.023-2.966-0.653 c-0.474-0.32-0.771-0.616-0.89-0.889c-0.32-0.676-0.142-1.565,0.534-2.668c0.475-0.628,0.771-1.007,0.89-1.126 c0.629-0.593,1.388-0.747,2.254-0.474C68.658,111.967,69.299,112.619,69.809,113.686z M69.038,89.261 c0.439,0.676,0.617,1.399,0.534,2.194c-0.119,0.794-0.498,1.399-1.127,1.838c-0.949,0.676-2.017,0.688-3.203,0.059 c-0.558-0.273-0.949-0.617-1.186-1.008c-0.32-0.557-0.38-1.15-0.178-1.779c0.119-0.557,0.415-1.067,0.89-1.541 c0.32-0.391,0.629-0.628,0.949-0.711c0.32-0.119,0.629-0.178,0.949-0.178c0.593,0,1.032,0.059,1.305,0.178 C68.326,88.514,68.682,88.822,69.038,89.261z" class="st2"/><path d="M309.768,401.986l6.11-12.331c4.034-8.098,6.881-14.406,8.542-18.912c2.646-7.233,4.117-13.908,4.39-20.038 c0.321-6.403-0.629-12.651-2.847-18.734c-2.29-6.165-5.636-11.477-10.026-15.947c-0.771-0.771-1.115-1.423-1.008-1.957 c-0.131-0.521,0.107-0.996,0.712-1.423c0.154-0.118,0.712-0.379,1.661-0.77c1.661-0.558,3.144-1.482,4.449-2.787 c1.269-1.268,2.195-2.727,2.788-4.387c0.593-1.66,0.795-3.403,0.593-5.217c-0.201-1.814-0.771-3.474-1.72-4.98 c-0.629-0.984-0.89-1.719-0.771-2.193c0.024-0.166,0.071-0.32,0.118-0.474c-0.462-0.866-1.127-1.85-2.017-2.965 c-2.289-2.928-4.093-5.003-5.398-6.224c-3.168-2.965-6.976-5.158-11.449-6.581c-4.271-1.34-8.697-1.873-13.288-1.601 c-2.61,0.154-4.366,0.202-5.28,0.119c-0.249-0.024-0.486-0.083-0.712-0.178c-0.142,0.036-0.296,0.059-0.474,0.059 c-2.1,0.154-4.153,1.21-6.17,3.142c-1.744,1.743-3.061,3.771-3.975,6.107c-0.913,2.335-1.281,4.707-1.127,7.114 c0,0.865-0.142,1.399-0.415,1.6c-0.356,0.356-0.747,0.392-1.186,0.119c-0.285,0.071-0.641,0.095-1.068,0.059 c-7.51-0.676-15.21,0.795-23.077,4.387c-9.337,4.233-16.989,10.553-22.957,18.971c-1.424,2.052-3.121,4.779-5.102,8.182 c-10.18,17.429-18.188,31.124-24.026,41.084c9.041-2.739,18.628-3.866,28.772-3.38c10.168,0.475,20.205,2.526,30.135,6.166 c7.914,2.881,14.89,6.498,20.941,10.849c6.799,4.897,12.161,10.529,16.077,16.896c4.983,8.039,7.771,17.204,8.364,27.508 l9.729-19.801c-0.083-0.154-0.119-0.32-0.119-0.474C308.937,402.508,309.21,402.164,309.768,401.986z M286.098,316.616 c-0.557,1.459-1.388,2.728-2.491,3.795c-2.219,2.169-5.007,3.26-8.365,3.26c-0.949,0-2.29-0.142-4.034-0.415 c-1.862-0.272-3.203-0.438-4.034-0.474c-3.286-0.083-6.205,0.794-8.779,2.609c-2.172,1.505-4.426,4.09-6.763,7.766 c-2.883,4.588-4.865,7.47-5.932,8.655c-1.507,1.66-3.227,2.988-5.161,3.972c-2.053,1.032-4.129,1.518-6.229,1.482 c-2.219-0.035-4.248-0.735-6.11-2.074c-1.899-1.388-3.061-3.119-3.5-5.218c-0.558-2.608,0.261-5.928,2.432-9.959 c5.374-10.197,11.841-17.821,19.398-22.884c4.354-2.881,8.982-4.838,13.882-5.869c5.256-1.103,10.239-1.008,14.949,0.296 c3.002,0.83,5.434,2.04,7.297,3.617c2.289,2.051,3.618,4.351,3.974,6.877C286.786,313.593,286.608,315.111,286.098,316.616z M303.361,383.667c-2.337-0.593-4.176-1.636-5.517-3.142c-1.186-1.304-1.958-2.905-2.314-4.802 c-0.32-1.779-0.201-3.557,0.356-5.336l0.712-1.6c0.321-0.475,0.89-1.127,1.721-1.957c1.388-1.387,2.515-2.252,3.381-2.608 c0.985-0.391,2.231-0.593,3.737-0.593c1.27,0,2.231,0.142,2.907,0.415c0.392,0.202,0.831,0.498,1.305,0.889 c0.593,0.475,1.032,0.807,1.305,1.008l1.958,1.304c1.305,1.067,2.171,2.455,2.61,4.15c0.356,1.459,0.38,3.119,0.059,4.98 c-0.32,1.577-0.889,2.941-1.72,4.091c-1.151,1.506-2.729,2.549-4.746,3.142C307.253,384.118,305.342,384.141,303.361,383.667z" class="st2"/><path d="M53.08,7.389c7.439,4.352,15.4,7.529,23.907,9.545c8.507,2.016,17.049,2.751,25.627,2.194 c0.949,0,1.578,0.083,1.899,0.237c0.094,0.036,0.177,0.083,0.237,0.119l0.178,0.059c0.154,0.083,0.32,0.273,0.474,0.593l0.119,0.83 l-0.059,0.534c0.047,0.107,0.095,0.225,0.118,0.356c0.036,0.391-0.023,0.948-0.178,1.66c-0.391,1.696-0.652,2.988-0.771,3.854 c-0.154,1.458-0.059,2.751,0.297,3.854c0.083,0.273,0.166,0.51,0.237,0.711c2.041-0.948,4.295-1.695,6.763-2.253 c1.008-0.225,2.1-0.415,3.263-0.593c1.174-0.225,2.491-0.415,3.974-0.593c8.507-0.948,15.839-1.103,22.009-0.474 c6.952,0.735,13.157,2.466,18.627,5.217c0.059-0.451,0.202-0.984,0.415-1.601c3.483-9.224,3.659-19.775,0.539-31.636H43.637 C45.943,2.589,49.089,5.051,53.08,7.389z" class="st2"/><path d="M299.208,437.616l-16.61-7.47c-7.913-3.64-13.051-6.071-15.424-7.292c-1.222-0.676-2.313-1.186-3.262-1.541 c-0.202-0.083-0.404-0.154-0.594-0.237l-2.017,1.422c-0.13,0.143-0.249,0.261-0.355,0.356c-0.451,0.391-1.187,0.866-2.195,1.423 l-1.602,1.126c-0.629,0.581-1.4,1.316-2.314,2.194c-1.459,1.103-2.812,1.565-4.034,1.363c-0.676-0.118-1.388-0.45-2.135-1.007 c-0.392-0.321-0.985-0.83-1.78-1.542c-0.712-0.676-1.685-1.399-2.907-2.193c-0.866-0.475-1.483-0.866-1.839-1.186 c-0.154-0.119-0.593-0.534-1.305-1.245c-1.305-1.423-2.764-2.644-4.39-3.676c-0.747-0.51-1.162-0.83-1.245-0.948 c-0.024-0.036-0.072-0.071-0.119-0.119c-0.332,0.178-0.842,0.356-1.542,0.534c-2.456,0.557-6.087,1.541-10.916,2.964 c-2.29,0.676-3.939,1.245-4.923,1.719c-1.151,0.557-1.78,0.854-1.899,0.889c-0.747,0.273-1.4,0.321-1.957,0.119 c-0.914-0.237-1.744-1.162-2.492-2.786l-5.339-10.731c-0.107,0-0.225-0.012-0.356-0.059c-0.356-0.119-0.629-0.32-0.83-0.593 c-0.155-0.249-0.25-0.569-0.297-0.948c-0.178,0.071-0.368,0.13-0.593,0.177c-6.561,1.305-13.253,2.253-20.051,2.846 c-1.543,0.154-2.646,0.415-3.322,0.771c-0.748,0.391-1.78,1.399-3.085,3.023c-1.78,2.253-3.714,4.233-5.814,5.929 c-0.913,0.747-1.637,1.126-2.195,1.126c-0.628,0-1.423-0.391-2.372-1.186l-8.424-6.995c-1.222-0.984-2.195-1.577-2.907-1.779 c-1.032-0.32-2.432-0.272-4.212,0.119l-10.737,2.134c-4.9,0.949-8.46,2.17-10.678,3.676c-0.866,0.628-2.551,2.229-5.043,4.802 c-2.1,2.217-5.434,5.3-10.025,9.248c-1.578,1.34-2.824,2.229-3.737,2.668c-0.831,0.439-1.839,0.794-3.026,1.067 c-0.273,0.036-1.341,0.213-3.203,0.534c-4.829,0.747-12.043,2.513-21.653,5.276c-0.985,0.237-1.72,0.593-2.195,1.067 c-0.356,0.356-0.676,1.15-0.949,2.371c-0.795,3.64-1.744,7.174-2.848,10.612c2.041-0.51,4.236-1.008,6.585-1.482 c-0.083-0.83-0.119-1.268-0.119-1.304c0-0.154,0.095-0.735,0.297-1.719l0.415-1.364c0.391-1.186,0.736-2.075,1.008-2.668 c0.475-0.948,1.092-1.636,1.839-2.075c0.475-0.32,1.091-0.569,1.839-0.77c1.186-0.32,2.076-0.475,2.669-0.475 c1.032-0.083,1.922,0.119,2.669,0.593l1.009,0.89c0.51,0.628,0.807,1.007,0.89,1.126c0.51,0.747,0.807,1.719,0.89,2.905 c0,0.782-0.119,1.695-0.356,2.727c29.199-4.209,58.587-5.786,88.153-4.743c31.406-1.102,62.585,0.747,93.552,5.573 c9.372,1.423,16.752,3.178,22.127,5.276c1.008,0.38,1.957,0.783,2.847,1.186l-2.076-13.22c-0.202-0.83-0.57-2.075-1.127-3.735 c-0.475-1.459-0.736-2.704-0.771-3.735v-0.771C299.624,437.794,299.434,437.711,299.208,437.616z M156.301,423.15 c-0.107,1.755-0.712,3.143-1.839,4.15c-0.748,0.676-2.171,1.269-4.271,1.779l-9.314,1.956c-1.222,0.273-2.041,0.593-2.432,0.949 c-0.273,0.237-0.629,0.747-1.068,1.541l-2.432,4.506c-0.831,1.624-1.578,2.869-2.254,3.735c-0.95,1.304-2.017,2.253-3.204,2.845 c-0.984,0.475-2.171,0.747-3.559,0.83c-1.78,0.119-3.322-0.237-4.627-1.067c-1.578-0.948-2.409-2.253-2.492-3.913 c-0.035-1.067,0.38-2.252,1.246-3.557c1.068-1.304,1.839-2.288,2.314-2.964c0.593-0.794,1.222-1.755,1.898-2.905 c1.032-1.695,2.219-3.438,3.559-5.217c1.068-1.458,2.041-2.466,2.907-3.023c0.831-0.593,2.278-1.127,4.331-1.601 c2.088-0.45,5.54-1.067,10.381-1.838l1.72-0.415c2.017-0.438,3.405-0.652,4.153-0.652c0.937,0,1.744,0.119,2.432,0.356 c0.344,0.107,0.641,0.249,0.89,0.415c0.308,0.213,0.569,0.474,0.771,0.771c0.214,0.237,0.392,0.498,0.534,0.77 C156.301,421.336,156.431,422.178,156.301,423.15z M192.072,425.107l-1.957,2.668l-2.077,2.075 c-0.391,0.438-0.925,1.102-1.601,2.015l-2.729,3.735c-1.626,2.134-2.907,3.522-3.856,4.15c-1.151,0.795-2.468,1.269-3.975,1.423 c-1.459,0.154-2.871-0.036-4.212-0.593c-1.222-0.593-2.111-1.28-2.669-2.075c-0.831-1.304-1.009-2.668-0.534-4.09 c0.202-0.558,0.653-1.34,1.364-2.372l1.543-1.956c0.356-0.392,1.151-1.127,2.373-2.194c2.812-2.525,5.279-5.252,7.415-8.181 c0.949-1.34,1.756-2.229,2.432-2.668c1.187-0.865,2.729-1.269,4.627-1.186c1.033,0,1.875,0.155,2.551,0.475 c0.795,0.355,1.424,0.889,1.899,1.6c0.711,0.985,1.067,2.04,1.067,3.143C193.698,422.024,193.14,423.364,192.072,425.107z M247.301,438.92c-0.391,1.423-1.162,2.526-2.313,3.32c-1.863,1.269-4.034,1.518-6.526,0.771c-1.779-0.51-3.713-1.684-5.813-3.498 c-1.187-0.949-2.136-1.814-2.848-2.609c-0.795,0.083-1.803,0.57-3.025,1.483c-1.222,0.83-2.409,1.517-3.559,2.074 c-1.78,0.949-3.477,1.518-5.102,1.72c-1.934,0.272-3.654-0.024-5.161-0.89c-1.27-0.711-2.171-1.754-2.729-3.142 c-0.593-1.422-0.617-2.762-0.059-4.031c0.32-0.747,0.925-1.541,1.839-2.371c0.628-0.676,1.388-1.269,2.254-1.779 c0.593-0.32,1.602-0.688,3.025-1.126c1.068-0.391,2.551-1.032,4.45-1.897c2.016-0.913,3.476-1.542,4.389-1.897 c3.56-1.388,6.704-1.637,9.433-0.771c1.862,0.628,3.998,2.158,6.406,4.565l2.907,3.023c1.187,1.34,1.922,2.348,2.195,3.024 C247.622,436.157,247.693,437.497,247.301,438.92z M283.251,440.284c-0.273,1.387-0.712,2.43-1.305,3.142 c-0.392,0.557-0.985,1.043-1.78,1.482c-1.697,0.83-3.5,1.031-5.398,0.593c-0.273-0.036-1.104-0.32-2.492-0.83l-2.135-0.89 c-0.95-0.474-2.29-1.245-4.034-2.312c-0.475-0.237-1.211-0.592-2.195-1.067c-0.914-0.438-1.602-0.889-2.077-1.363 c-0.711-0.712-1.21-1.577-1.483-2.609c-0.237-1.031-0.237-2.051,0-3.083c0.273-0.948,0.772-1.837,1.483-2.667 c0.712-0.795,1.519-1.4,2.433-1.838c0.913-0.439,1.803-0.629,2.669-0.593c0.593,0,1.448,0.202,2.551,0.593l2.254,0.83 c1.068,0.474,2.587,1.304,4.568,2.49l1.602,1.067c1.744,1.031,3.001,1.921,3.796,2.668c0.914,0.747,1.46,1.565,1.661,2.43 C283.452,438.766,283.405,439.418,283.251,440.284z" class="st2"/><path d="M208.623,41.181c-0.166,0.19-0.332,0.367-0.474,0.534c-0.356,0.51-0.783,1.221-1.305,2.134 c-0.629,1.15-1.163,1.98-1.602,2.49c-0.985,0.913-1.661,1.66-2.017,2.253c-0.178,0.356-0.356,0.652-0.534,0.889 c0.047,0.047,0.095,0.083,0.119,0.119l1.661,2.016c0.676,0.794,1.186,1.482,1.542,2.075l1.305,2.193c0,0,0.558,0.676,1.543,1.897 c0.794,0.866,1.637,1.933,2.55,3.201l3.5,4.565v-0.771c0-0.083-0.023-0.154-0.059-0.237V34.245L208.623,41.181z" class="st2"/><path d="M88.318,74.499c-0.202-0.083-0.391-0.142-0.593-0.178c-0.202-0.035-0.38-0.083-0.534-0.118h-0.653v0.059 c-0.202,0.036-0.38,0.059-0.534,0.059c-0.403,0.036-0.807,0.095-1.187,0.178c-0.071-0.107-0.13-0.202-0.178-0.296 c-0.047-0.107-0.095-0.202-0.119-0.296c-0.546-0.048-1.056-0.107-1.542-0.178c-2.8-0.047-6.324-0.142-10.559-0.296 c0.344,0.284,0.676,0.557,1.009,0.83c1.803,1.482,3.642,2.917,5.517,4.328l3.678,2.905c0.985,0.865,2.254,2.17,3.797,3.913 c1.744,1.897,2.99,3.201,3.737,3.913c2.171,1.933,3.761,3.438,4.746,4.506c0.866,1.15,1.542,1.98,2.017,2.49 c1.459,1.506,2.551,2.644,3.263,3.439c0.558,0.558,1.661,1.802,3.322,3.735c0.178,0.214,0.309,0.403,0.415,0.593 c0.155-0.071,0.309-0.154,0.475-0.237c0.225-0.119,0.486-0.297,0.771-0.534c0.368-0.296,0.783-0.664,1.246-1.126l7.415-7.589 c3.595-3.759,6.265-6.818,8.009-9.189c1.02-1.411,1.649-2.277,1.898-2.609c-0.107-0.024-0.225-0.071-0.356-0.119 c-2.515-0.984-5.054-1.897-7.593-2.727c-0.036,0.107-0.095,0.201-0.178,0.296c0-0.012-0.024-0.036-0.059-0.059 c-0.155-0.036-0.333-0.083-0.534-0.119c-0.083-0.035-0.143-0.083-0.178-0.118c-0.155-0.036-0.297-0.083-0.416-0.119 c-0.118-0.083-0.237-0.154-0.356-0.237c-0.154-0.035-0.332-0.083-0.533-0.118h-0.297c-0.095-0.059-0.19-0.119-0.297-0.178 c0.072-0.036,0.131-0.095,0.178-0.178c-8.044-2.407-16.266-4.043-24.678-4.921c0.154,0.166,0.285,0.296,0.415,0.415h-0.059 C88.638,74.582,88.472,74.535,88.318,74.499z" class="st2"/><path d="M280.759,166.271c0.238-0.272,0.629-0.569,1.187-0.889c1.222-0.83,1.898-1.98,2.017-3.438 c0.118-1.459-0.356-2.668-1.424-3.617c-0.831-0.747-2.29-1.328-4.39-1.719c-5.422-0.984-10.88-1.577-16.373-1.779 c-0.083,0.036-0.154,0.06-0.237,0.06c-0.238,0.035-0.949,0.059-2.136,0.059c-15.151-0.273-25.473-0.296-30.966-0.059 c-0.392,0-0.712-0.024-0.949-0.06c-5.494,0.202-10.916,0.795-16.255,1.779c-2.1,0.391-3.559,0.972-4.389,1.719 c-1.068,0.949-1.543,2.158-1.424,3.617c0.119,1.458,0.795,2.608,2.017,3.438c0.557,0.32,0.949,0.617,1.186,0.889 c0.237-0.201,0.617-0.379,1.127-0.533c1.424-0.356,3.619-0.617,6.585-0.771c7.32-0.356,14.321-0.51,21-0.474 c1.697,0,3.18,0.083,4.449,0.237h0.238c1.578,0,2.764-0.024,3.559-0.059c0.949,0,1.78,0.023,2.492,0.059 c1.15-0.154,2.467-0.237,3.974-0.237c6.68-0.036,13.68,0.118,21,0.474c2.966,0.154,5.161,0.415,6.585,0.771 C280.142,165.892,280.522,166.07,280.759,166.271z" class="st2"/><path d="M211.649,177.832l0.712,0.118c1.15,0.273,2.515,1.044,4.093,2.312c1.032,0.83,1.922,1.684,2.669,2.55 c0.866,1.067,1.899,2.727,3.085,4.98l2.61,5.691c0.238,0.557,0.451,1.091,0.653,1.601c2.812,1.98,5.493,3.343,8.068,4.09 c2.254,0.712,5.006,1.067,8.245,1.067c0.867,0.083,1.4,0.178,1.602,0.297c0.083,0.035,0.154,0.095,0.237,0.178h2.136 c0.083-0.083,0.154-0.143,0.237-0.178c0.202-0.119,0.736-0.214,1.602-0.297c3.239,0,5.992-0.355,8.246-1.067 c3.832-1.103,7.985-3.64,12.458-7.588c2.171-1.98,3.855-3.794,5.042-5.454c0.629-0.913,1.459-2.348,2.491-4.328 c2.219-4.115,3.346-7.529,3.382-10.256v-1.957c0-0.391,0.035-0.747,0.118-1.067c-0.32,0-0.676-0.024-1.067-0.059 c-6.372-0.474-15.875-0.854-28.534-1.127c-0.321,0.273-0.914,0.415-1.78,0.415l-7.534-0.296c-0.83,0-1.341-0.036-1.542-0.119 c-12.256,0.321-21.511,0.688-27.763,1.127c-0.392,0.035-0.748,0.059-1.068,0.059c0.083,0.32,0.119,0.676,0.119,1.067v1.957 C210.201,173.326,210.7,175.425,211.649,177.832z" class="st2"/><path d="M167.572,54.935c-0.035,0.071-0.071,0.13-0.118,0.178c0.023,0.024,0.047,0.047,0.059,0.059 c0.83,0.628,1.483,1.067,1.957,1.304l1.484,0.771c0.498,0.273,0.83,0.569,1.008,0.889l0.771,0.415 c1.46,0.866,3.655,2.253,6.585,4.15l18.983,12.45c0.51,0.344,0.985,0.593,1.424,0.771v-3.616c-0.036-0.083-0.059-0.154-0.059-0.237 v-6.877c-0.036-0.083-0.083-0.154-0.119-0.237V55.35c0-0.083-0.024-0.142-0.059-0.178v-4.506h-12.517 c-4.473,0-8.934-0.024-13.407-0.059c-1.187,0-2.373-0.024-3.56-0.059c-0.189-0.024-0.391-0.047-0.593-0.059 c-0.166,0.747-0.403,1.482-0.712,2.193C168.462,53.311,168.082,54.07,167.572,54.935z" class="st2"/><path d="M170.004,47.999c1.187,0,2.373-0.024,3.56-0.059h13.407V47.88h12.517V29.739c0,0,0.059-0.095,0.059-0.178 v-5.573c0.036-0.083,0.083-0.154,0.119-0.237v-1.126c-0.416,0.19-0.878,0.451-1.365,0.771l-18.983,12.45 c-2.93,1.897-5.125,3.284-6.585,4.15l-3.381,1.838c0,0-0.071,0.036-0.119,0.059c-0.154,0.083-0.308,0.166-0.474,0.237 c0.45,1.079,0.747,2.158,0.889,3.261c0.119,0.901,0.167,1.767,0.119,2.608H170.004z" class="st2"/><path d="M203.403,23.277c-0.463-0.344-0.902-0.605-1.305-0.771v0.059c0.035,0.083,0.059,0.154,0.059,0.237v1.126 c0,0,0.059,0.095,0.059,0.178v5.336c0.036,0.083,0.083,0.154,0.119,0.237v15.236c0.344-0.344,0.795-0.794,1.364-1.364 c0.356-0.439,0.795-1.126,1.306-2.075c0.201-0.32,0.569-0.794,1.127-1.423l8.364-9.782c0.059-0.071,0.095-0.131,0.119-0.178 c-0.688-0.332-1.661-0.865-2.907-1.601L203.403,23.277z" class="st2"/><path d="M100.775,473.72c6.763-0.913,15.697-1.838,26.814-2.786l18.39-1.542c9.574-0.711,16.966-1.185,22.186-1.423 c6.134-0.237,11.829-0.272,17.085-0.118c5.256-0.154,10.951-0.119,17.085,0.118c5.22,0.238,12.612,0.712,22.187,1.423l18.39,1.542 c11.117,0.948,20.05,1.873,26.813,2.786c9.812,1.304,18.651,2.941,26.517,4.921c3.168,0.865,5.517,1.6,7.06,2.193 c0.273,0.119,0.534,0.273,0.771,0.474c0.035-0.035,0.083-0.059,0.119-0.059c1.862-0.557,3.464-1.399,4.805-2.549 c1.506-1.304,2.408-2.786,2.728-4.446c0.238-1.459,0.024-2.988-0.652-4.565c-0.593-1.388-1.507-2.668-2.729-3.854 c-2.171-2.015-5.256-3.77-9.254-5.276c-4.9-1.862-11.722-3.462-20.466-4.802c-27.918-4.352-55.941-6.284-84.06-5.81h-0.178 c-1.863,0.237-4.9,0.32-9.136,0.237c-4.235,0.083-7.273,0-9.135-0.237h-0.119c-28.154-0.474-56.202,1.458-84.119,5.81 c-8.744,1.34-15.566,2.94-20.466,4.802c-3.998,1.506-7.083,3.261-9.254,5.276c-1.222,1.186-2.136,2.466-2.729,3.854 c-0.676,1.577-0.89,3.106-0.652,4.565c0.32,1.66,1.222,3.142,2.729,4.446c1.341,1.15,2.943,1.992,4.805,2.549 c0.036,0,0.083,0.024,0.119,0.059c0.237-0.201,0.498-0.355,0.771-0.474c1.542-0.593,3.892-1.328,7.059-2.193 C82.124,476.661,90.963,475.024,100.775,473.72z" class="st2"/><path d="M15.458,0.761c-0.795,2.573-2.135,4.743-4.034,6.521c-1.578,1.577-3.358,2.609-5.339,3.083 c-2.209,0.59-4.229,0.38-6.085-0.64v43.501c2.679-0.032,5.126-0.208,7.331-0.533c0.237-0.024,0.451-0.047,0.653-0.059 c0.059-0.19,0.119-0.391,0.178-0.593c0.914-3,2.29-5.786,4.153-8.359c0.866-1.186,2.408-3,4.627-5.454 c2.1-2.288,3.619-4.126,4.568-5.513c2.812-4.114,4.307-8.798,4.508-14.05c0.071-1.909-0.047-3.747-0.356-5.513 c-0.486-3.142-1.531-6.083-3.144-8.833C21.729,3.003,20.683,1.556,19.424,0h-3.748C15.607,0.254,15.54,0.508,15.458,0.761z" class="st2"/><path d="M40.86,501.702c0.273-0.035,0.57-0.059,0.89-0.059c6.609-0.51,11.9-0.735,15.898-0.652l6.525-0.415 c2.824-0.131,5.422-0.19,7.771-0.178c0.878-1.079,1.424-2.194,1.661-3.32c0.439-2.099-0.059-4.233-1.483-6.403 c-0.985-1.458-2.575-3.023-4.746-4.683c-0.747-0.51-1.222-1.008-1.424-1.482c-0.083-0.202-0.142-0.391-0.178-0.593 c-2.456-0.356-4.627-1.423-6.526-3.201c-1.934-1.862-3.049-3.996-3.322-6.403c-0.237-1.814,0.035-3.676,0.83-5.573 c0.475-1.15,1.092-2.217,1.839-3.201c2.017-1.779,4.058-3.498,6.11-5.158c1.424-0.83,3.049-1.577,4.865-2.253 c1.471-0.569,3.097-1.126,4.864-1.66c0.036-0.213,0.095-0.45,0.178-0.711l0.475-2.016c-3.702-0.024-8.922,0.06-15.661,0.237 l-6.644,0.237c-0.475,0.083-0.89,0.083-1.246,0c-15.981,0.985-29.566,2.194-40.755,3.617c-3.671,0.465-7.262,0.972-10.783,1.517 v46.814c0.413-0.063,0.817-0.13,1.232-0.192C11.827,504.394,25.044,502.971,40.86,501.702z" class="st2"/><path d="M314.81,482.079c4.426-6.711,9.29-13.031,14.594-18.971c-0.19-0.201-0.404-0.616-0.653-1.245 c-2.575-6.96-5.576-12.426-9.017-16.422l-2.966-3.142c-3.322-3.403-6.051-5.845-8.187-7.351c-0.984-0.711-2.432-1.636-4.33-2.786 c-2.053-1.269-3.524-2.194-4.39-2.787c-0.131-0.083-0.273-0.154-0.415-0.237c-0.843,1.494-1.673,2.822-2.492,3.972l2.907,1.305 c0.949,0.509,1.566,0.948,1.839,1.304c0.142,0.201,0.249,0.415,0.297,0.652c0.296,0.201,0.498,0.533,0.593,1.008 c0.035,0.201,0.059,0.794,0.059,1.778c-0.035,1.222,0.143,2.609,0.534,4.15c0.32,1.221,1.009,3.178,2.076,5.869l1.009,2.55 c0.866,2.051,1.447,3.758,1.72,5.098c0.32,1.826,0.237,3.403-0.237,4.743c1.091,0.77,2.041,1.589,2.847,2.43 c1.388,1.423,2.433,3,3.144,4.743c0.795,1.897,1.068,3.759,0.831,5.573c-0.273,2.407-1.388,4.541-3.322,6.403 c-0.19,0.177-0.392,0.355-0.593,0.533c1.079,1.34,1.874,2.526,2.373,3.557C313.624,483.893,314.217,482.98,314.81,482.079z" class="st2"/><path d="M334.565,38.869c-0.356-0.32-0.499-0.806-0.416-1.482c0-0.356,0.06-0.913,0.178-1.66 c0.154-1.34-0.237-2.632-1.186-3.854c-0.866-1.186-1.982-1.992-3.322-2.431c-2.492-0.83-5.197-0.557-8.127,0.83 c-1.46,0.711-2.492,0.83-3.085,0.356c-0.202-0.119-0.38-0.391-0.534-0.83c-0.202-0.32-0.38-0.747-0.534-1.304v-0.118 c0.154-0.391,0.297-0.747,0.415-1.067c-0.32-0.154-0.712-0.498-1.186-1.008c-0.914-1.067-2.017-1.862-3.322-2.371 c-1.341-0.557-2.729-0.735-4.153-0.534c-1.388,0.201-2.634,0.771-3.737,1.719c-1.187,0.949-1.934,2.039-2.254,3.261v0.118 c-0.155,0.557-0.321,0.984-0.475,1.304c-0.202,0.439-0.391,0.711-0.593,0.83c-0.593,0.474-1.626,0.356-3.085-0.356 c-2.93-1.387-5.612-1.66-8.068-0.83c-1.388,0.439-2.515,1.245-3.381,2.431c-0.949,1.221-1.341,2.514-1.187,3.854 c0.155,0.747,0.238,1.304,0.238,1.66c0.035,0.676-0.119,1.162-0.475,1.482c-0.083,0.119-0.178,0.213-0.296,0.296 c-0.392,0.119-0.867,0.154-1.424,0.119c-0.439-0.036-1.092-0.178-1.958-0.415c-1.305-0.273-2.61,0.083-3.915,1.067 c-0.949,0.628-1.839,1.66-2.67,3.083c-0.593,0.948-0.984,1.873-1.186,2.786c-0.32,1.66,0.059,3.284,1.127,4.861 c1.032,1.506,2.349,2.525,3.975,3.083c0.391,0.036,0.913,0.237,1.542,0.593c0.712,0.237,1.507,0.391,2.373,0.474h1.661 c0.712,0.202,1.163,0.498,1.364,0.889c0.119,0.273,0.143,0.676,0.06,1.186c-0.119,0.557-0.214,0.949-0.297,1.186v0.356 c0.119,0.237,0.154,0.51,0.119,0.83c0,0.237-0.036,0.51-0.119,0.83v0.119c0,0.51-0.035,0.948-0.119,1.304 c0,1.103,0.392,2.193,1.187,3.261c0.866,1.221,1.993,2.051,3.381,2.49c2.456,0.83,5.138,0.557,8.068-0.83 c1.459-0.711,2.492-0.83,3.085-0.356c0.202,0.119,0.391,0.391,0.593,0.83c0.154,0.32,0.32,0.747,0.475,1.304 c0.083,0.439,0.237,0.854,0.474,1.245c0.392,0.794,0.985,1.506,1.78,2.134c1.103,0.913,2.349,1.482,3.737,1.719 c1.424,0.202,2.812,0.024,4.153-0.534c1.305-0.51,2.408-1.304,3.322-2.371c0.202-0.202,0.38-0.38,0.534-0.534 c-0.083-0.119-0.154-0.261-0.238-0.415c0.238-0.391,0.392-0.806,0.475-1.245c0.154-0.557,0.332-0.984,0.534-1.304 c0.154-0.439,0.332-0.711,0.534-0.83c0.593-0.474,1.625-0.356,3.085,0.356c2.93,1.387,5.635,1.66,8.127,0.83 c1.34-0.439,2.456-1.269,3.322-2.49c0.795-1.067,1.186-2.158,1.186-3.261c-0.083-0.356-0.118-0.794-0.118-1.304v-0.119 c-0.036-0.32-0.06-0.593-0.06-0.83c-0.083-0.32-0.059-0.593,0.06-0.83v-0.356c-0.036-0.237-0.143-0.628-0.297-1.186 c-0.083-0.51-0.059-0.913,0.059-1.186c0.167-0.323,0.515-0.578,1.029-0.772V39.181c-0.024-0.007-0.057-0.008-0.08-0.015 C334.766,39.083,334.648,38.988,334.565,38.869z" class="st2"/><path d="M335,457.26v-32.94c-4.434-5.634-9.792-10.514-16.097-14.627l-7.356-4.506 c-3.096,6.32-6.086,12.32-8.957,18.023c-0.617,1.257-1.234,2.442-1.839,3.557c0.285,0.13,0.605,0.332,0.949,0.593l4.093,2.49 c4.663,2.727,9.29,6.485,13.882,11.264c1.696,1.932,2.705,3.082,3.025,3.438c3.998,4.921,6.798,10.493,8.424,16.718 C332.392,459.911,333.686,458.577,335,457.26z" class="st2"/><path d="M332.014,180.144c0.035,0.747,0.178,1.79,0.415,3.142c0.693-0.301,1.553-0.551,2.571-0.754v-10.063 c-0.163,0.19-0.34,0.361-0.495,0.561C332.809,175.283,331.978,177.654,332.014,180.144z" class="st2"/><path d="M335,419.885v-33.202c-3.393-1.699-6.937-3.084-10.639-4.142c-0.652-0.178-1.186-0.38-1.602-0.593 c-0.996,2.146-2.123,4.517-3.381,7.114c-2.278,4.731-4.508,9.319-6.703,13.754c0.403,0.178,0.83,0.391,1.305,0.652 C322.413,408.087,329.406,413.573,335,419.885z" class="st2"/><path d="M287.047,261.838c-1.388,2.845-1.578,5.75-0.593,8.715c0.19,0.604,0.309,1.067,0.356,1.363 c5.897-1.008,11.627-0.652,17.204,1.067c6.371,1.897,11.686,5.312,15.957,10.256l2.551,3.261c1.187,1.577,2.053,2.846,2.61,3.794 c0.06,0.119,0.119,0.237,0.178,0.356l0.831-0.178c1.032-0.32,2.052-0.948,3.085-1.897c1.981-1.862,3.262-3.771,3.856-5.751 c0.628-2.11,0.545-4.031-0.238-5.75c-0.166-0.214-0.32-0.451-0.474-0.712c-2.729-4.185-5.102-7.41-7.119-9.663 c-2.812-3.047-5.909-5.537-9.314-7.47c-3.678-2.051-7.439-3.296-11.271-3.735c-1.186-0.154-2.61-0.237-4.271-0.237 c-0.985-0.035-2.432-0.059-4.331-0.059c-0.32-0.036-0.593-0.071-0.83-0.119c-0.273,0.344-0.807,0.664-1.602,0.949 C290.702,257.059,288.507,258.992,287.047,261.838z" class="st2"/><path d="M26.148,112.975c-0.107-0.119-0.225-0.237-0.356-0.356c-6.858,8.489-12.339,15.746-16.432,21.757 c-3.547,5.217-6.667,10.343-9.36,15.377v14.929c0.412-0.062,0.819-0.127,1.232-0.189c10.595-1.577,23.812-3,39.627-4.269 c7.237-0.593,12.956-0.83,17.144-0.711c0.332,0.024,0.605,0.071,0.831,0.118c2.432-0.059,4.675-0.118,6.703-0.177l-23.907-28.635 C34.429,122.282,29.268,116.33,26.148,112.975z" class="st2"/><path d="M296.717,539.466c0.154-0.391,0.629-0.735,1.424-1.007c1.981-0.629,3.773-1.66,5.398-3.083 c1.625-1.387,2.907-3.024,3.856-4.921c1.934-3.794,2.397-7.861,1.364-12.212c-0.474-1.933-1.151-3.64-2.017-5.099 c-0.688-1.103-1.684-2.276-2.966-3.498c-0.035,0.107-0.071,0.214-0.118,0.297h-0.06l-0.059-0.119v-0.415l-0.059-0.059 c-0.06-0.071-0.143-0.154-0.238-0.237c-0.403-0.368-0.771-0.723-1.127-1.067c-0.023,0.012-0.035,0.012-0.059,0 c-0.154-0.036-0.332-0.083-0.534-0.119h-0.475c0.083-0.201,0.167-0.391,0.238-0.593c-0.831-0.77-1.507-1.411-2.017-1.897 c-3.358-3.047-5.185-6.047-5.458-9.011c-0.237-2.609,0.534-5.134,2.314-7.588c1.186-1.696,3.12-3.558,5.813-5.573 c-8.34-2.372-17.761-4.328-28.237-5.869c-4.615-0.664-10.215-1.34-16.788-2.016l-0.06,0.059c0,0-0.107-0.047-0.178-0.059h-0.296 c0,0-0.083,0.024-0.119,0.059l-0.178-0.059h-1.186v1.186c0,0,0.023,0.083,0.059,0.118v3.32c0,0,0.059,0.083,0.059,0.119v4.92 c0,0-0.023,0.083-0.059,0.119v0.415l-0.059,0.059c0.047,0.38,0.083,0.818,0.118,1.304c0.202,3.913-0.474,7.411-2.017,10.494 c-1.744,3.557-4.271,5.988-7.593,7.292l-2.669,0.889c-1.068,0.356-1.899,0.735-2.492,1.126c-2.456,1.542-3.856,4.305-4.212,8.3 c-0.012,0.226-0.035,0.463-0.059,0.712c0.035,0.047,0.083,0.095,0.118,0.118v0.06c0,0,0,0.083,0,0.118v0.534c0,0,0,0.083,0,0.118 v0.771c0,0,0,0.083,0,0.118v0.356c-0.035,0.036-0.059,0.083-0.059,0.119v0.118c0,0-0.059,0.083-0.059,0.119v1.304 c-0.024,0.225-0.048,0.439-0.06,0.652c0.024,1.352,0.001,2.478-0.059,3.38c0.06,1.541,0.178,3.77,0.356,6.699 c0.202,3.438,0.095,6.319-0.297,8.655c-0.059,0.356-0.154,0.676-0.237,1.008h60.663c0.036-0.154,0.095-0.285,0.202-0.415 C296.575,539.502,296.634,539.466,296.717,539.466z" class="st2"/><path d="M333.793,535.139c-0.593,1.589-1.174,3.213-1.732,4.861H335v-7.946 C334.587,533.076,334.183,534.103,333.793,535.139z" class="st2"/><path d="M233.123,525.357c-0.083-2.194,0-4.269,0.238-6.225v-2.134c0-3.64,0.415-6.32,1.245-8.063 c1.187-2.526,3.18-4.387,5.992-5.573c1.661-0.593,2.907-1.043,3.737-1.363c1.816-0.795,3.382-1.957,4.687-3.498 c1.34-1.541,2.23-3.284,2.669-5.217c0.273-1.067,0.451-2.549,0.534-4.446c0.059-1.103,0.119-2.04,0.178-2.787v-0.237 c-0.035-0.036-0.059-0.083-0.059-0.118v-0.238c0,0-0.024-0.083-0.059-0.118v-7.529c0,0,0.059-0.083,0.059-0.119v-1.008 c0,0,0.024-0.083,0.059-0.118v-0.415c0,0,0-0.083,0-0.119v-0.771c0,0,0-0.083,0-0.118v-0.119c0.024-0.023,0.048-0.047,0.059-0.059 c-2.61-0.261-5.362-0.522-8.245-0.771l-15.246-1.245v0.475c-0.083,1.067-0.095,2.525-0.06,4.387c0.036,2.098,0.036,3.533,0,4.327 c-0.201,3.558-1.091,6.261-2.669,8.122c-0.605,0.759-1.376,1.435-2.314,2.016c-0.474,0.534-0.984,1.008-1.542,1.423 c-0.427,0.308-0.997,0.616-1.72,0.948c-0.249,0.297-0.724,0.653-1.424,1.068c-2.337,1.339-4.307,3.165-5.932,5.454 c-1.578,2.253-2.61,4.707-3.085,7.351c-0.119,0.794-0.237,1.838-0.356,3.142c-0.119,1.518-0.19,2.526-0.237,3.024v0.059 c0,0,0,0.035,0,0.059v0.119c0,0,0.023,0.083,0.059,0.118v0.06c0,0,0,0.083,0,0.118v0.771c0,0,0,0.083,0,0.118v0.356 c0,0.036,0.024,0.083,0.059,0.119v3.082c0,0,0.06,0.083,0.06,0.119V540h23.183c0.391-1.352,0.641-2.846,0.724-4.506 C233.8,533.242,233.598,529.862,233.123,525.357z" class="st2"/><path d="M165.437,527.728c0.118-2.881,0.142-5.252,0.059-7.114c-0.154-3.166-0.629-5.691-1.424-7.588 c-1.388-2.965-3.535-5.063-6.466-6.285c-0.747-0.32-1.839-0.652-3.263-1.007c-1.507-0.392-2.586-0.736-3.262-1.008 c-2.646-1.032-4.746-2.727-6.289-5.099c-1.305-1.98-2.171-4.446-2.61-7.41c-0.237-1.814-0.332-4.482-0.296-8.004l0.178-11.145 v-0.119l-15.78,1.245c-12.304,1.067-22.127,2.135-29.483,3.202c-10.476,1.541-19.897,3.497-28.237,5.869 c2.693,2.015,4.627,3.877,5.814,5.573c1.78,2.454,2.551,4.979,2.314,7.588c-0.273,2.964-2.1,5.964-5.458,9.011 c-0.866,0.83-2.195,2.051-3.975,3.676c-1.542,1.423-2.705,2.762-3.5,4.031c-0.866,1.459-1.542,3.166-2.017,5.099 c-1.032,4.351-0.569,8.418,1.365,12.212c0.949,1.897,2.231,3.534,3.856,4.921c1.625,1.423,3.417,2.454,5.398,3.083 c0.795,0.272,1.27,0.616,1.424,1.007c0.083,0,0.142,0.036,0.178,0.119c0.095,0.13,0.154,0.261,0.202,0.415h91.274 c-0.155-1.613-0.238-3.332-0.238-5.158C165.199,534.048,165.282,531.676,165.437,527.728z" class="st2"/><path d="M63.758,536.384c-2.1-2.336-3.619-5.04-4.568-8.122c-0.914-3.166-1.103-6.284-0.593-9.367 c0.356-2.016,1.008-3.937,1.958-5.751c1.459-2.727,3.975-5.691,7.534-8.892c0.059-0.06,0.119-0.119,0.178-0.178l-13.881-0.06 h-1.602c-0.439,0.036-0.807,0.036-1.127,0c-1.032,0.083-2.052,0.143-3.085,0.178l-37.788,3.439 c-0.439,0.035-0.866,0.095-1.305,0.178c-0.51,0.083-1.008,0.154-1.483,0.237L0,509.553V540h68.516 C66.902,539.289,65.312,538.091,63.758,536.384z" class="st2"/><path d="M199.547,534.072c-1.103-0.985-1.863-1.72-2.254-2.194c-2.848-3.201-4.236-7.802-4.153-13.813 c0-1.387,0.154-3.83,0.475-7.352c0.273-3.118,0.379-5.596,0.296-7.41c-0.237-5.727-1.898-9.841-4.983-12.331 c-0.379-0.297-0.937-0.676-1.661-1.127c-0.095-0.035-0.19-0.071-0.296-0.118c-2.646-0.949-4.533-2.668-5.636-5.158 c-0.676-1.541-1.009-3.581-1.009-6.106c0-2.17,0.143-4.743,0.416-7.707c-7.487,0.083-17.477,0.581-29.958,1.482l-6.644,0.533 c0.356,1.981,0.486,4.506,0.415,7.589c-0.119,4.304-0.154,6.936-0.119,7.885c0.119,2.928,0.689,5.513,1.721,7.766 c1.186,2.644,2.871,4.541,5.042,5.691c0.866,0.475,2.017,0.913,3.441,1.305c1.981,0.557,3.168,0.889,3.559,1.007 c1.899,0.712,3.583,1.779,5.043,3.202c1.506,1.423,2.634,3.059,3.381,4.92c1.103,2.526,1.625,6.166,1.542,10.909 c-0.154,4.387-0.237,7.671-0.237,9.841c-0.024,2.632,0.083,4.992,0.297,7.114h35.368c-0.475-1.411-1.092-2.656-1.91-3.676 C201.244,535.732,200.532,534.985,199.547,534.072z" class="st2"/><path d="M335,461.718c-8.237,8.686-15.442,18.281-21.613,28.78c-3.145,5.335-5.933,10.754-8.365,16.243 c2.207,2.265,3.856,4.399,4.924,6.403c0.949,1.814,1.602,3.735,1.957,5.751c0.511,3.083,0.321,6.201-0.593,9.367 c-0.949,3.082-2.468,5.786-4.568,8.122c-1.554,1.707-3.132,2.905-4.757,3.616h26.908c1.788-5.314,3.833-10.444,6.107-15.41V461.718 z" class="st2"/><path d="M236.742,248.439c2.409,1.151,5.636,1.577,9.67,1.305c1.744-0.083,3.025-0.38,3.856-0.89 c0.557-0.391,0.889-0.747,1.008-1.067c0.083-0.118,0.154-0.533,0.237-1.245c0-0.557-0.035-0.948-0.118-1.185l-1.127-1.423 c-1.46,0-2.931,0.024-4.39,0.059h-8.899c-0.154,0.119-0.332,0.261-0.534,0.415c-0.557,0.439-0.913,0.866-1.067,1.304 c-0.238,0.593-0.214,1.15,0.059,1.66C235.591,247.692,236.03,248.048,236.742,248.439z" class="st2"/><path d="M314.098,220.694c-0.795,0.475-1.874,0.925-3.262,1.364c-1.863,0.593-2.99,0.972-3.382,1.126 c-2.574,1.067-4.84,2.692-6.822,4.862c-1.981,2.098-3.44,4.505-4.39,7.232c-1.898,5.099-1.993,10.648-0.296,16.659 c0.107,0.356,0.19,0.676,0.237,0.949c3.429-0.7,7-0.7,10.737,0c3.797,0.711,7.439,2.075,10.916,4.09l3.737,2.49 c3.322,2.49,6.431,5.692,9.314,9.604c0.723,0.996,1.364,1.909,1.898,2.727c0.38-0.118,0.854-0.201,1.424-0.237 c0.266-0.017,0.527-0.065,0.791-0.096v-58.186c-0.177,0.064-0.349,0.13-0.554,0.184c-1.625,0.557-3.109,0.711-4.449,0.474 c-1.744-0.356-2.943-1.15-3.619-2.371c-0.273-0.392-0.534-1.068-0.771-2.016l-0.237-0.83c-0.083-0.593-0.06-1.304,0.059-2.134 c0.237-2.135,0.747-3.64,1.542-4.506c0.51-0.557,1.282-1.091,2.314-1.601l1.186-0.474c1.222-0.391,2.527-0.273,3.916,0.356 c0.2,0.089,0.406,0.203,0.613,0.32v-15.142c-0.455,0.075-0.909,0.15-1.385,0.238c-0.272,0.024-0.51,0.047-0.711,0.059 c0.118,0.806,0.178,1.459,0.178,1.957c0,2.644-0.867,4.956-2.611,6.936c-0.676,0.794-1.578,1.577-2.729,2.371 c-1.388,0.913-2.432,1.577-3.144,2.016c-2.527,1.743-4.093,3.557-4.686,5.454c-0.273,0.913-0.38,2.099-0.297,3.557 c0.083,2.134,0.119,3.356,0.119,3.676c-0.119,1.814-0.688,3.533-1.72,5.157C317.029,218.536,315.724,219.781,314.098,220.694z M319.912,231.425c-0.083,1.221-0.392,2.288-0.949,3.201c-0.392,0.557-1.246,1.364-2.551,2.431 c-1.187,0.948-1.958,1.814-2.314,2.608c-0.201,0.439-0.379,1.032-0.534,1.779c-0.154,0.913-0.296,1.518-0.415,1.838 c-0.474,1.458-1.424,2.608-2.847,3.438c-1.222,0.795-2.694,1.15-4.39,1.067c-1.032-0.083-1.875-0.32-2.551-0.711 c-1.151-0.712-1.863-2.016-2.136-3.913c-0.51-3.047,0.06-6.082,1.721-9.13c0.51-0.948,1.127-1.778,1.839-2.49 c0.273-0.32,0.747-0.747,1.423-1.304c0.356-0.32,0.855-0.794,1.484-1.423c0.51-0.438,1.222-0.889,2.135-1.363 c0.866-0.475,1.566-0.807,2.076-1.008c1.104-0.391,2.219-0.534,3.322-0.415c1.223,0.119,2.231,0.534,3.026,1.245 C319.354,228.342,319.912,229.729,319.912,231.425z" class="st2"/><path d="M256.14,261.067c1.033,0,1.78-0.059,2.255-0.178c0.83-0.273,1.388-0.735,1.661-1.363 c0.439-0.949,0.201-1.874-0.712-2.787c-0.558-0.51-1.46-0.984-2.729-1.423l-3.856-1.185c-1.032-0.237-1.756-0.558-2.195-0.949 c-0.237-0.237-0.391-0.557-0.474-0.948c-1.033,0.272-2.219,0.45-3.56,0.533c-3.168,0.154-5.908-0.059-8.246-0.652 c-0.118,0.036-0.261,0.095-0.415,0.178c-0.391,0.154-1.364,0.415-2.907,0.771c-2.254,0.592-4.271,1.387-6.051,2.371 c-1.15,0.593-1.981,1.269-2.491,2.016c-0.593,0.984-0.629,1.814-0.119,2.49c0.356,0.438,1.044,0.735,2.077,0.889 c1.625,0.201,4.057,0.296,7.296,0.296L256.14,261.067z" class="st2"/><path d="M216.632,322.367c2.135-3.676,3.974-6.581,5.517-8.715c3.595-5.015,7.89-9.343,12.873-12.983 c-0.333-0.213-0.795-0.534-1.365-0.949c-0.439-0.32-1.127-0.652-2.076-1.007c-0.985-0.392-1.685-0.736-2.076-1.008 c-0.475-0.273-0.748-0.593-0.831-0.949c-0.035,0-0.059,0.024-0.059,0.059c-0.392-0.474-0.629-0.924-0.712-1.363 c-0.083-0.391-0.059-0.889,0.059-1.482c0.036-0.32,0.119-0.806,0.238-1.482c0.118-1.459-0.238-2.727-1.068-3.794 c-0.154-0.238-0.451-0.57-0.89-1.008c-0.356-0.439-0.569-0.83-0.653-1.186c-0.118-0.474-0.059-1.032,0.178-1.66 c0.155-0.391,0.392-0.949,0.712-1.66c0.439-0.984,0.617-2.016,0.534-3.083c-0.119-1.15-0.534-2.098-1.246-2.845 c-0.866-0.913-2.04-1.399-3.5-1.482c-1.032,0-1.862,0.26-2.491,0.77c-0.629,0.51-1.044,1.304-1.246,2.372 c-0.32,1.458-0.202,2.881,0.356,4.268c0.273,0.628,0.475,1.126,0.593,1.482c0.238,0.593,0.332,1.103,0.297,1.542 c-0.036,0.438-0.202,0.913-0.475,1.422c-0.356,0.629-0.617,1.091-0.771,1.364c-1.151,1.933-1.364,4.008-0.652,6.225 c0.201,0.593,0.32,1.043,0.355,1.363c0.119,0.51,0.083,0.949-0.118,1.305c-0.202,0.355-0.558,0.628-1.068,0.83 c-0.202,0.035-0.676,0.142-1.424,0.296c-1.459,0.32-2.812,0.925-4.034,1.838c-1.222,0.913-2.218,1.992-2.966,3.26 c-1.032,1.862-1.601,4.47-1.72,7.826c-0.071,2.182-0.154,3.936-0.237,5.276c0.403,0.83,0.901,1.577,1.483,2.253 c1.767,2.751,3.808,5.063,6.11,6.936C215.054,325.07,215.837,323.731,216.632,322.367z" class="st2"/><path d="M23.419,110.07c-1.139-1.162-2.266-2.265-3.381-3.32c-0.38-0.403-0.783-0.806-1.187-1.186 c-2.491-2.407-5.636-5.276-9.432-8.596C7.326,95.144,4.178,92.425,0,88.825v55.114c1.986-3.449,4.129-6.912,6.453-10.392 c4.829-7.244,10.643-14.916,17.441-23.002c-0.119-0.107-0.237-0.225-0.356-0.356C23.502,110.153,23.455,110.105,23.419,110.07z" class="st2"/><path d="M40.86,403.883c0.273-0.035,0.57-0.059,0.89-0.059c6.609-0.51,11.9-0.735,15.898-0.652l6.525-0.415 c6.798-0.32,12.315-0.178,16.551,0.415h1.068l12.339,0.711c15.815,1.269,29.032,2.692,39.627,4.269l11.153,2.193l5.873-1.186 c2.575-0.557,4.508-0.628,5.814-0.237c1.186,0.356,2.728,1.399,4.627,3.142c0.462,0.427,0.937,0.842,1.423,1.245l10.5-17.192 c2.101-3.462,4.39-7.316,6.882-11.561c-0.297-1.043-0.676-2.098-1.127-3.142c-0.617-1.411-1.329-2.762-2.136-4.031l-0.237-0.356 l-0.119-0.237c-0.617-0.948-1.281-1.85-2.017-2.727c0.083,0,0.166-0.024,0.238-0.059l-0.95-1.008 c-0.32-0.273-0.889-0.652-1.72-1.126c-0.795-0.439-1.364-0.83-1.72-1.186l-0.712-0.652c0,0-0.534-0.297-1.483-0.771 c-0.629-0.273-1.032-0.652-1.187-1.126c-0.273-0.036-0.51-0.119-0.712-0.238c-12.695-3.319-26.671-5.952-41.94-7.884 c-12.185-1.542-27.194-2.846-45.026-3.913c-0.356,0-0.747-0.024-1.186-0.059c-3.642-0.155-9.824-0.119-18.568,0.118l-6.644,0.237 c-0.475,0.083-0.89,0.083-1.246,0c-15.981,0.984-29.566,2.194-40.755,3.617C7.113,360.477,3.521,360.985,0,361.53v46.814 c0.413-0.063,0.817-0.13,1.232-0.192C11.827,406.575,25.044,405.152,40.86,403.883z" class="st2"/><path d="M181.988,381.355c4.057-6.782,8.625-14.489,13.703-23.121c-0.107-0.035-0.202-0.071-0.297-0.118 c-2.337-1.032-4.33-2.467-5.991-4.328l-1.78-2.134c-0.949-1.151-1.661-2.075-2.136-2.787c-0.438-0.652-0.83-1.328-1.186-2.016 c-0.19,2.17-0.629,4.293-1.305,6.344c-1.186,3.593-3.12,6.723-5.814,9.367c-1.981,2.016-4.128,3.521-6.466,4.505 c-0.047,0.06-0.107,0.119-0.178,0.178c0.249,0.131,0.665,0.451,1.246,0.949c1.186,0.747,2.076,1.34,2.67,1.778 c1.945,1.328,3.452,3.071,4.508,5.217c1.139,1.708,2.124,3.723,2.966,6.047C181.952,381.284,181.964,381.331,181.988,381.355z" class="st2"/><path d="M197.115,355.803c4.817-8.216,10.073-17.228,15.779-27.033c-0.059-0.036-0.118-0.071-0.178-0.119 c-6.608-4.944-11.093-13.042-13.466-24.306c-0.628-2.929-1.328-7.613-2.076-14.051c-0.747-6.165-1.507-10.849-2.254-14.05 c-1.341-5.893-3.322-10.316-5.932-13.28c-0.795-0.865-1.899-1.933-3.323-3.201c-1.613-1.316-2.693-2.241-3.262-2.787 c-1.21,2.941-2.943,5.526-5.221,7.767c-1.981,2.015-4.128,3.521-6.466,4.505c-0.071,0.083-0.154,0.166-0.237,0.237 c0.285,0.202,0.581,0.415,0.89,0.653l2.195,1.659c1.068,0.866,1.72,1.459,1.957,1.779c0.06,0.059,0.095,0.119,0.119,0.178h0.178 c0.914,0.83,1.756,1.755,2.551,2.786c1.388,1.862,2.574,4.15,3.559,6.877c2.931,7.79,3.287,15.035,1.068,21.758 c-1.186,3.592-3.12,6.722-5.814,9.367c-0.949,0.948-1.922,1.802-2.906,2.549h-0.238c-0.154,0.035-0.332,0.095-0.534,0.178 c-0.201,0.035-0.391,0.083-0.593,0.118c-0.154,0.036-0.32,0.095-0.474,0.178c-0.119,0.036-0.214,0.095-0.297,0.178l-0.237,0.237 c-0.036,0.083-0.083,0.154-0.119,0.237c-0.119,0.036-0.261,0.083-0.415,0.119c-0.036,0.035-0.095,0.083-0.178,0.118 c-0.036,0.036-0.095,0.083-0.178,0.119l-0.237,0.237c-0.083,0.036-0.143,0.083-0.178,0.119c0.984,0.474,1.744,0.853,2.254,1.126 c0.866,0.439,1.602,0.866,2.195,1.304c0.035-0.035,0.083-0.083,0.118-0.118c1.187,0.948,2.255,2.051,3.204,3.32 c1.388,1.861,2.574,4.149,3.559,6.877c1.151,3.059,1.899,6.047,2.254,8.951c0.368,0.273,0.689,0.724,0.95,1.364l1.305,2.964 c0.557,1.032,1.423,2.289,2.61,3.794c1.151,1.506,2.017,2.55,2.61,3.143c1.032,1.102,2.053,1.956,3.085,2.549 c0.795,0.438,1.364,0.794,1.72,1.067C196.711,355.436,196.925,355.614,197.115,355.803z" class="st2"/><path d="M133.877,87.423c-2.349-1.269-4.9-2.466-7.652-3.616c-0.095,0.415-0.309,0.842-0.653,1.304l-1.898,2.786 c-1.151,1.541-3.061,3.735-5.755,6.581l-3.618,3.853c-1.899,1.992-3.536,3.64-4.924,4.921c0.059,0.095,0.095,0.202,0.119,0.296 c-0.06,0.036-0.119,0.06-0.178,0.06c-0.119,0.035-0.238,0.059-0.356,0.059l-0.119,0.119c-0.119,0.035-0.213,0.083-0.297,0.118 c-0.154,0.083-0.32,0.154-0.474,0.237l-0.237,0.237c-0.036,0.036-0.083,0.095-0.119,0.178s-0.059,0.154-0.059,0.237 c-0.036,0.083-0.083,0.155-0.119,0.238c0.036,0.083,0.083,0.154,0.119,0.237v0.059c0.427,0.024,0.783,0.083,1.067,0.178 c0.084,0.035,0.511,0.213,1.306,0.533l1.542,0.653c0.273,0.177,0.486,0.355,0.652,0.533c2.231,1.352,4.295,3.107,6.17,5.276 c3.405,3.878,5.79,8.324,7.178,13.339c0.593,2.052,1.044,4.411,1.364,7.055c0.012,0.107,0.036,0.214,0.06,0.297 c0.332,0.225,0.664,0.64,1.008,1.245c1.032,1.932,2.29,3.877,3.797,5.809l1.542,2.075c0.238,0.475,0.629,1.388,1.187,2.728 c0.474,1.15,1.186,2.644,2.135,4.505c1.104,2.134,1.839,3.593,2.195,4.387c0.866,2.051,1.804,4.589,2.788,7.589l0.949,2.904 c5.494-4.932,11.153-10.232,16.967-15.888c2.254-2.17,3.915-3.829,4.983-4.98c1.696-1.897,3.678-4.292,5.932-7.173l2.551-3.201 c0.095-0.119,0.202-0.238,0.296-0.356c0.131-0.119,0.25-0.237,0.356-0.356c-2.776-6.96-6.442-13.552-10.974-19.801 C154.794,101.805,145.184,93.387,133.877,87.423z M144.674,104.438c-0.036-0.083,0-0.569,0.118-1.482l0.119-1.245 c0.083-0.51,0.297-0.866,0.653-1.068c0.32-0.201,0.652-0.154,1.008,0.119l0.415,0.415l0.534,0.237 c0.985,0.439,1.543,1.103,1.661,2.016c0.083,0.439,0.024,0.865-0.178,1.304c-0.201,0.474-0.498,0.795-0.89,0.949 c-0.676,0.32-1.328,0.332-1.957,0.059C145.326,105.422,144.828,104.995,144.674,104.438z M151.555,127.262 c-0.32,0.557-0.807,0.925-1.483,1.127c-0.712,0.201-1.341,0.142-1.898-0.178c-0.629-0.356-1.068-0.913-1.305-1.66 c-0.119-0.237-0.178-0.534-0.178-0.889c0.035-0.321,0.237-0.795,0.593-1.423c0.32-0.439,0.558-0.712,0.712-0.83 c0.237-0.154,0.617-0.237,1.127-0.237c0.83-0.083,1.459,0.059,1.898,0.415c0.273,0.272,0.475,0.592,0.593,0.948 C152.053,125.602,152.03,126.515,151.555,127.262z" class="st2"/><path d="M40.86,451.903c7.036-0.592,12.636-0.83,16.788-0.711l6.525-0.415c4.414-0.202,8.293-0.225,11.627-0.059 l1.483-6.344c0.475-2.134,1.151-3.616,2.017-4.446c0.795-0.747,2.409-1.387,4.865-1.897c1.934-0.356,5.422-1.269,10.441-2.727 c4.354-1.269,7.83-2.051,10.44-2.372c2.219-0.272,3.714-0.569,4.509-0.889c0.913-0.356,2.017-1.103,3.322-2.253 c4.829-4.031,9.432-8.276,13.822-12.746c1.388-1.458,2.551-2.466,3.5-3.023c0.985-0.593,2.634-1.127,4.924-1.601l1.602-0.356 l-11.45-2.134c-0.356-0.036-0.712-0.083-1.067-0.118c-11.272-1.423-24.975-2.645-41.111-3.676c-0.32,0.118-0.771,0.178-1.364,0.178 l-27.348-0.119h-1.602c-0.439,0.036-0.807,0.036-1.127,0c-1.032,0.083-2.052,0.142-3.085,0.178l-37.788,3.439 c-0.439,0.035-0.866,0.094-1.305,0.177c-0.51,0.083-1.008,0.154-1.483,0.237L0,411.733v44.631c0.413-0.063,0.817-0.13,1.232-0.192 C11.827,454.595,25.044,453.172,40.86,451.903z" class="st2"/><path d="M291.378,402.757c-2.931-6.403-7.356-12.213-13.288-17.43c-5.375-4.743-11.663-8.738-18.865-11.975 c-9.93-4.47-20.43-7.15-31.5-8.063c-11.07-0.913-21.866,0.035-32.39,2.846c-1.02,0.237-1.732,0.296-2.136,0.177 c-0.296,0.522-0.593,1.044-0.889,1.542c-10.477,17.821-19.601,32.938-27.348,45.352c1.483,1.174,3.085,2.336,4.805,3.498 c2.373-1.98,4.426-4.067,6.17-6.284c1.459-1.779,2.61-2.881,3.44-3.32c0.629-0.356,1.448-0.593,2.433-0.711 c0.272-0.036,1.127-0.119,2.55-0.237c2.219-0.119,5.422-0.51,9.611-1.186c4.354-0.676,7.534-1.091,9.551-1.245 c0.427-0.024,0.783,0,1.067,0.059c0.344-3.178,1.305-6.284,2.907-9.307c1.744-3.32,4.07-6.166,7-8.537 c2.812-2.289,6.015-4.091,9.61-5.395c3.441-1.222,7.06-1.933,10.856-2.135c4.663-0.237,9.112,0.332,13.348,1.72 c4.473,1.458,8.269,3.699,11.39,6.699c2.764,2.691,5.042,6.047,6.822,10.078c1.625,3.593,2.586,7.209,2.907,10.849 c0.332,3.7-0.083,7.126-1.246,10.256l26.754,12.154l1.899-3.913c-0.06-0.249-0.095-0.545-0.119-0.889 C296.159,417.601,294.38,409.397,291.378,402.757z" class="st2"/><path d="M253.234,419.653c-0.677,1.897-1.246,3.237-1.721,4.031c-0.439,0.676-0.961,1.221-1.542,1.66 c0.581,0.403,1.056,0.617,1.424,0.652c0.676,0,1.34-0.332,2.017-1.008c2.052-1.778,3.44-2.881,4.152-3.32 c1.187-0.794,1.875-1.304,2.076-1.541l0.831-1.126c0.32-0.439,0.629-0.712,0.949-0.83c0.439-0.155,0.866-0.06,1.305,0.296 c0.107,0.083,0.19,0.154,0.238,0.237c0.213-0.118,0.427-0.19,0.652-0.237c0.498-0.071,1.222,0.083,2.195,0.474 c0.083-0.842,0.237-1.861,0.475-3.083c0.391-1.897,0.593-3.296,0.593-4.209c0-1.778-0.558-4.292-1.661-7.529 c-0.866-2.525-1.626-4.446-2.254-5.75c-0.95-2.052-2.041-3.771-3.263-5.158c-1.068-1.221-2.871-2.751-5.399-4.565 c-2.218-1.541-3.891-2.573-5.042-3.083c-1.863-0.865-4.247-1.482-7.178-1.838c-8.863-0.984-16.492,0.558-22.898,4.625 c-3.441,2.169-6.229,4.956-8.365,8.359c-1.981,3.177-3.144,6.474-3.5,9.9c0.285,0.249,0.546,0.546,0.771,0.889 c0.831,1.186,1.721,2.81,2.67,4.862l3.915,7.944c2.1-0.949,3.417-1.518,3.975-1.719l1.008-0.297c0-0.095-0.024-0.201-0.059-0.296 l-0.534-2.372c-0.51-2.999-0.119-6.011,1.186-9.011c1.27-2.964,3.168-5.371,5.695-7.233c2.456-1.814,5.28-2.964,8.483-3.438 c3.121-0.474,6.206-0.273,9.255,0.593c1.898,0.557,3.405,1.28,4.508,2.193c1.222,0.901,2.029,1.933,2.432,3.083 c0.7,0.688,1.282,1.399,1.721,2.134c1.068,1.743,1.72,4.186,1.957,7.352c0.155,1.98,0.143,3.557-0.059,4.742 C254.04,417.103,253.708,418.313,253.234,419.653z" class="st2"/><path d="M156.479,60.982c-2.053-0.676-4.924-1.221-8.602-1.66c-8.341-1.031-15.578-1.482-21.712-1.363 c-7.866,0.118-14.973,1.162-21.297,3.142c-0.379,0.107-0.723,0.178-1.008,0.237c-0.071,0.19-0.142,0.403-0.237,0.652l-0.89,2.193 c-0.202,0.439-0.38,0.925-0.534,1.482c-0.119,0.356-0.178,0.735-0.178,1.126l-0.178,0.83l-0.059,0.83 c-0.19,1.707-0.178,3.308,0.059,4.802c5.149,1.079,10.405,2.502,15.78,4.268c3.879,1.269,7.142,2.454,9.788,3.557 c13.881,5.845,25.592,14.667,35.119,26.44c0.107,0.131,0.201,0.249,0.296,0.356c0.143-0.688,0.297-1.494,0.475-2.43 c1.151-5.846,0.593-10.932-1.661-15.237c-0.475-0.866-0.795-1.565-0.949-2.075c-0.154-0.711-0.143-1.541,0.059-2.49 c0.119-0.557,0.356-1.387,0.712-2.49c1.032-3.356,1.281-6.818,0.771-10.375c-0.474-3.593-1.661-6.901-3.559-9.9 c-0.154-0.225-0.297-0.451-0.415-0.652l0.415-0.771C158.211,61.456,157.487,61.29,156.479,60.982z" class="st2"/><path d="M163.242,39.166c-1.033-0.948-2.077-1.743-3.144-2.371c-0.558-0.32-0.95-0.617-1.187-0.889 c-6.146-2.976-13.324-4.695-21.534-5.158c-2.539-0.142-5.339-0.154-8.424-0.059c-0.012,0.071-0.059,0.13-0.118,0.178h-6.348v0.059 c-0.154,0.036-0.32,0.083-0.474,0.118c-0.748,0.036-1.483,0.083-2.195,0.119c-0.155,0.036-0.321,0.095-0.475,0.178 c-0.237,0.036-0.474,0.083-0.712,0.118c-0.118,0.036-0.237,0.059-0.356,0.059c-0.035,0.036-0.095,0.083-0.178,0.119 c-0.035,0.036-0.095,0.083-0.178,0.119c-0.059,0.059-0.118,0.119-0.178,0.178h-0.059c-4.508,0.237-8.756,1.447-12.754,3.616 c-3.239,1.743-5.363,3.818-6.348,6.225c-0.51,1.34-0.771,2.94-0.771,4.802c-0.036,1.031,0.024,2.039,0.178,3.023 c0.32,1.814,1.008,3.522,2.076,5.098c0.985,1.47,2.219,2.656,3.678,3.557c0.238-0.047,0.475-0.107,0.712-0.178 c0.012,0.071,0.012,0.13,0,0.178c5.838-2.039,12.494-3.178,19.992-3.438c5.897-0.202,13.086,0.202,21.593,1.186 c5.458,0.628,9.61,1.423,12.458,2.371c0.13,0.048,0.249,0.083,0.356,0.119c0.356-0.202,0.795-0.356,1.305-0.474 c1.151-0.273,1.839-0.498,2.076-0.652c0.475-0.32,0.985-0.949,1.543-1.897l1.661-3.023c0.474-0.949,0.806-1.802,1.008-2.549 c0.475-1.862,0.415-3.77-0.178-5.751C165.674,42.248,164.665,40.588,163.242,39.166z" class="st2"/><path d="M0,56.181v9.002c0.855,0.116,1.838,0.08,2.953-0.111c0.795-0.154,1.329-0.332,1.602-0.534 c0.51-0.32,1.044-0.972,1.602-1.956c0.344-0.652,0.593-1.34,0.771-2.075c-0.012-1.707,0.119-3.403,0.415-5.099L5.8,55.706 C4.011,55.974,2.067,56.123,0,56.181z" class="st2"/></g><linearGradient id="SVGID_1_" x1="167.5" x2="167.5" y1="491.779" y2="43.779" gradientTransform="matrix(1 0 0 -1 0 539.7795)" gradientUnits="userSpaceOnUse"><stop offset="0" style="stop-color:#49225b;stop-opacity:0"/><stop offset="1" style="stop-color:#49225b"/></linearGradient><rect width="335" height="492" y="48" class="st3"/></svg>