<svg xmlns="http://www.w3.org/2000/svg" xml:space="preserve" id="Layer_1" x="0" y="0" viewBox="0 0 335 540"><style>.st0{fill:#002e22}.st1{opacity:.1;enable-background:new}.st2{fill:#03d47c}.st3{fill:url(#SVGID_1_)}</style><path d="M0 0h335v540H0z" class="st0"/><g class="st1"><path d="M319.937 412.42c1.459-1.779 2.61-2.881 3.44-3.32.629-.356 1.448-.593 2.433-.711a78 78 0 0 1 2.55-.237q2.492-.133 6.64-.73v-35.343c-9.928 16.855-18.616 31.234-26.038 43.127a79 79 0 0 0 4.805 3.498c2.373-1.98 4.426-4.067 6.17-6.284m-2.373-361.813c-1.187 0-2.373-.024-3.56-.059a9 9 0 0 0-.593-.059 12 12 0 0 1-.712 2.193c-.237.629-.617 1.387-1.127 2.253a.7.7 0 0 1-.118.178l.059.059c.83.628 1.483 1.067 1.957 1.304l1.484.771c.498.273.83.569 1.008.889l.771.415c1.46.866 3.655 2.253 6.585 4.15L335 70.363V50.667h-4.029c-4.473 0-8.934-.024-13.407-.06m-217.001 355.41c2.491 4.423 5.932 7.352 10.322 8.774.32.119.593.238.83.356 10.168-2.846 21.333-5.181 33.517-6.995 10.595-1.577 23.812-3 39.628-4.269.273-.035.569-.059.89-.059 6.608-.51 11.9-.735 15.898-.652l6.525-.415c6.799-.32 12.316-.178 16.551.415h1.068l12.339.711c15.815 1.269 29.032 2.692 39.627 4.269l11.153 2.193 5.873-1.186c2.575-.557 4.508-.628 5.814-.237 1.186.356 2.728 1.399 4.627 3.142q.693.64 1.423 1.245l10.5-17.192a933 933 0 0 0 6.882-11.561 26 26 0 0 0-1.127-3.142 29.6 29.6 0 0 0-2.136-4.031l-.237-.356-.119-.237a28 28 0 0 0-2.017-2.727.55.55 0 0 0 .238-.059l-.95-1.008c-.32-.273-.889-.652-1.72-1.126-.795-.439-1.364-.83-1.72-1.186l-.712-.652s-.534-.297-1.483-.771c-.629-.273-1.032-.652-1.187-1.126a1.9 1.9 0 0 1-.712-.238c-12.695-3.319-26.671-5.952-41.94-7.884q-18.278-2.313-45.026-3.913c-.356 0-.748-.024-1.187-.059-3.642-.155-9.823-.119-18.567.118l-6.645.237q-.711.125-1.245 0c-15.982.984-29.567 2.194-40.755 3.617-15.269 1.932-29.246 4.565-41.941 7.884a1.5 1.5 0 0 1-.593.178c-.19.237-.51.475-.949.712-.747.355-1.341.676-1.78.948-.557.392-1.305 1.032-2.254 1.897-.475.392-1.21.925-2.195 1.601-.83.593-1.447 1.186-1.839 1.779l-.83 1.422c-.214.38-.534.807-.95 1.305.19 0 .392-.024.594-.06a26.6 26.6 0 0 0-1.958 3.735 31.3 31.3 0 0 0-2.551 11.205c-.201 5.063.807 9.521 3.026 13.398" class="st2"/><path d="M100.563 356.218c2.491 4.423 5.932 7.352 10.322 8.775.32.118.593.237.83.355 10.168-2.845 21.333-5.181 33.517-6.995 10.595-1.577 23.812-3 39.628-4.269 7.035-.593 12.635-.83 16.788-.711l6.525-.415c6.799-.32 12.316-.178 16.551.415 3.643.035 8.104.272 13.407.711 15.815 1.269 29.032 2.692 39.627 4.269 12.185 1.814 23.35 4.15 33.518 6.995.237-.118.51-.237.83-.355 4.39-1.423 7.831-4.352 10.322-8.775 2.219-3.877 3.227-8.335 3.026-13.398a31.4 31.4 0 0 0-2.551-11.205 30.7 30.7 0 0 0-3.975-6.699.2.2 0 0 0-.119-.059l-1.186-.83c-.712-.557-1.637-1.15-2.788-1.779-.676-.355-1.685-.865-3.026-1.541-.32-.201-.569-.379-.771-.533a.6.6 0 0 0-.178-.06 2.7 2.7 0 0 1-.652-.178 18 18 0 0 0-1.127-.296l-39.806-7.529c-.356-.036-.712-.083-1.067-.119-11.272-1.423-24.975-2.644-41.111-3.675-.32.118-.771.178-1.364.178l-27.348-.119h-1.602a6 6 0 0 1-1.127 0 68 68 0 0 1-3.084.178l-37.789 3.438c-.439.036-.866.095-1.305.178-.51.083-1.008.154-1.483.237l-37.432 7.055c-.594.154-1.163.32-1.721.474a2.8 2.8 0 0 1-.711.178c-.795.202-1.567.392-2.314.593-.119.036-.214.083-.297.119a48 48 0 0 1-2.313 1.778q-2.26 1.6-2.848 2.312c-.391.558-.652.89-.771 1.008a2.3 2.3 0 0 1-.534.415 29.7 29.7 0 0 0-2.966 5.276 31.3 31.3 0 0 0-2.551 11.205c-.201 5.063.807 9.521 3.026 13.398m171.619-205.005a139 139 0 0 1-.415 10.138c-.071.853-.154 1.6-.237 2.253q3.256.444 6.228.889c.724.106 1.436.201 2.136.296l.059.059c.119.083.214.155.297.238q.303.052.534.177c.391.036.795.083 1.186.119a3.5 3.5 0 0 1 .534.178h1.365c-.321-.688-.617-1.553-.89-2.609a77.4 77.4 0 0 0-5.992-14.05c-.51-.866-.89-1.624-1.127-2.253-.154-.474-.391-1.209-.712-2.193-.273-.676-.89-1.565-1.839-2.668a32 32 0 0 1-1.601-2.253c.201 2.419.344 4.826.415 7.233-.024.047-.048.083-.059.118v2.905c.035.083.083.154.118.237v.238c0 .083.024.142.059.177.036.083.06.155.06.238a.6.6 0 0 1 .059.237v.592a3 3 0 0 1-.178-.296" class="st2"/><path d="M312.462 271.738c-.83-.439-1.305-.687-1.424-.77-.344-.214-.557-.475-.652-.771a2 2 0 0 1-.238-.119c-12.695-3.32-26.671-5.952-41.94-7.885q-18.278-2.312-45.026-3.912c-.356 0-.748-.024-1.187-.06-3.642-.154-9.823-.118-18.567.119l-6.645.237q-.711.125-1.245 0c-15.982.984-29.567 2.194-40.755 3.616-15.269 1.933-29.246 4.565-41.941 7.885a.4.4 0 0 1-.178.06c-.047.237-.142.45-.296.652-.238.32-.807.735-1.721 1.245-2.728 1.541-4.983 3.533-6.762 5.987-.392.558-.736.925-1.009 1.127a1.3 1.3 0 0 1-.652.296 35 35 0 0 0-2.136 4.15 31.3 31.3 0 0 0-2.551 11.205c-.202 5.063.807 9.521 3.026 13.398 2.491 4.423 5.932 7.351 10.322 8.774.32.119.593.237.83.356 10.168-2.846 21.333-5.182 33.517-6.996 10.595-1.577 23.812-2.999 39.628-4.268a7 7 0 0 1 .89-.059c6.608-.51 11.9-.736 15.898-.653l6.525-.415c6.799-.32 12.316-.177 16.551.415h1.068l12.339.712c15.815 1.269 29.032 2.691 39.627 4.268l29.662 5.929q1.958.48 3.915 1.067c.237-.119.498-.237.771-.356 4.39-1.423 7.831-4.351 10.322-8.774 2.219-3.877 3.227-8.335 3.026-13.398a31.4 31.4 0 0 0-2.551-11.205c-1.068-2.442-2.385-4.672-3.975-6.699-.308-.024-.605-.19-.89-.474-.237-.202-.557-.534-.949-1.008l-3.085-2.609c-.711-.557-1.222-.913-1.542-1.067m4.034-98.768c.083.036.154.083.237.119l.237-.237a13.6 13.6 0 0 0 1.78-1.719c2.278-2.49 3.726-5.787 4.331-9.901.308-2.146.332-4.636.059-7.47-.297.475-.629.949-1.008 1.423-1.27 1.506-2.172 2.632-2.729 3.379-.985 1.577-1.804 2.727-2.433 3.439-.438.557-1.032 1.126-1.779 1.719a980 980 0 0 1-4.093 3.913 33 33 0 0 1-3.5 2.786c2.42.652 4.793 1.328 7.118 2.016q.89.302 1.78.533m-38.619-85.547c-2.349-1.269-4.9-2.466-7.652-3.616-.095.415-.309.842-.653 1.304l-1.898 2.786c-1.151 1.541-3.061 3.735-5.755 6.581l-3.618 3.853c-1.899 1.992-3.536 3.64-4.924 4.921.059.095.095.202.119.296a.35.35 0 0 1-.178.06 1.3 1.3 0 0 1-.356.059l-.119.119c-.119.035-.213.083-.297.118-.154.083-.32.154-.474.237l-.237.237c-.036.036-.083.095-.119.178s-.059.154-.059.237c-.036.083-.083.155-.119.238.036.083.083.154.119.237v.059q.64.036 1.067.178c.084.035.511.213 1.306.533l1.542.653c.273.177.486.355.652.533 2.231 1.352 4.295 3.107 6.17 5.276 3.405 3.878 5.79 8.324 7.178 13.339.593 2.052 1.044 4.411 1.364 7.055.012.107.036.214.06.297.332.225.664.64 1.008 1.245a40.4 40.4 0 0 0 3.797 5.809l1.542 2.075c.238.475.629 1.388 1.187 2.728.474 1.15 1.186 2.644 2.135 4.505 1.104 2.134 1.839 3.593 2.195 4.387.866 2.051 1.804 4.589 2.788 7.589l.949 2.904a581 581 0 0 0 16.967-15.888q3.381-3.254 4.983-4.98c1.696-1.897 3.678-4.292 5.932-7.173l2.551-3.201c.095-.119.202-.238.296-.356a5 5 0 0 0 .356-.356c-2.776-6.96-6.442-13.552-10.974-19.801q-11.87-16.31-28.831-25.255m10.797 17.015c-.036-.083 0-.569.118-1.482l.119-1.245c.083-.51.297-.866.653-1.068.32-.201.652-.154 1.008.119l.415.415.534.237c.985.439 1.543 1.103 1.661 2.016.083.439.024.865-.178 1.304-.201.474-.498.795-.89.949-.676.32-1.328.332-1.957.059-.831-.32-1.329-.747-1.483-1.304m6.881 22.824c-.32.557-.807.925-1.483 1.127-.712.201-1.341.142-1.898-.178-.629-.356-1.068-.913-1.305-1.66q-.178-.356-.178-.889c.035-.321.237-.795.593-1.423.32-.439.558-.712.712-.83.237-.154.617-.237 1.127-.237.83-.083 1.459.059 1.898.415.273.272.475.592.593.948.439 1.067.416 1.98-.059 2.727m19.932 32.073 1.068-1.66c.475-.747 1.388-1.921 2.729-3.498 1.222-1.423 2.1-2.585 2.61-3.497.226-.522.439-.902.653-1.127a35 35 0 0 0-.297-1.66 89 89 0 0 0-2.432-9.308 54 54 0 0 0-1.068-3.142l-1.186 1.72a134 134 0 0 1-12.814 14.406l-15.898 14.643s-.071.059-.119.059a304 304 0 0 1 15.305 3.261c.19-.213.617-.569 1.305-1.067 2.1-1.506 4.805-3.83 8.127-6.996.831-.794 1.507-1.506 2.017-2.134M197.08 7.389c7.439 4.352 15.4 7.529 23.907 9.545s17.049 2.751 25.627 2.194c.949 0 1.578.083 1.899.237.094.036.177.083.237.119l.178.059c.154.083.32.273.474.593l.119.83-.059.534c.047.107.095.225.118.356.036.391-.023.948-.178 1.66-.391 1.696-.652 2.988-.771 3.854-.154 1.458-.059 2.751.297 3.854.083.273.166.51.237.711 2.041-.948 4.295-1.695 6.763-2.253 1.008-.225 2.1-.415 3.263-.593a58 58 0 0 1 3.974-.593c8.507-.948 15.839-1.103 22.009-.474 6.952.735 13.157 2.466 18.627 5.217.059-.451.202-.984.415-1.601 3.483-9.224 3.659-19.775.539-31.636H187.637q3.458 3.88 9.443 7.387m-66.085 66.339c-.38-.142-.973-.486-1.78-1.008v21.876c6.692-5.549 14.143-10.055 22.365-13.517a106 106 0 0 1 6.288-2.371l-.415-.652a1.2 1.2 0 0 1-.06-.652q0-.231.178-.534c.024-.059.048-.119.06-.178-1.709-1.743-3.121-3.782-4.212-6.106-.237.439-.617.794-1.127 1.067-1.626 1.032-3.405 1.755-5.339 2.194-1.507.356-3.833.534-7 .534-2.373 0-4.153-.036-5.339-.119-1.389 0-2.587-.178-3.619-.534M66.571 11.065l-.012.012c.071 2.016.095 3.533.059 4.565v.118c9.907.13 18.971.984 27.17 2.549 10.797 2.122 20.431 5.43 28.89 9.901.119-.13.237-.273.356-.415 1.151-1.387 2.551-3.652 4.212-6.818l2.551-4.802c.747-1.34 1.388-2.229 1.898-2.668q.48-.48 1.424-.889c1.696-.629 3.262-.38 4.686.771.629.474 1.187 1.15 1.661 2.016.593 1.15 1.068 2.763 1.424 4.861l2.254 10.968c.202 1.387.297 2.217.297 2.49 0 1.814-.653 3.439-1.958 4.861-1.151 1.269-2.646 2.158-4.508 2.668-1.46.391-3.263.557-5.399.474-.949-.083-1.625-.237-2.017-.474a1.8 1.8 0 0 1-.534-.415v11.798c.38-.119.855-.154 1.424-.119l5.399.415c6.05.474 11.211.391 15.483-.237.237-.024.451-.047.652-.059.06-.19.119-.391.178-.593.914-3 2.29-5.786 4.153-8.359.866-1.186 2.408-3 4.627-5.454 2.1-2.288 3.619-4.126 4.568-5.513 2.812-4.114 4.307-8.798 4.508-14.05a26.3 26.3 0 0 0-.356-5.513 24.8 24.8 0 0 0-3.144-8.833c-.788-1.315-1.834-2.762-3.094-4.318h-3.748c-.069.254-.135.508-.218.761-.795 2.573-2.136 4.743-4.034 6.521-1.578 1.577-3.358 2.609-5.339 3.083-2.219.593-4.248.379-6.11-.652-1.507-.83-2.587-2.134-3.263-3.913a8.56 8.56 0 0 1-.415-5.158c.024-.094.103-.317.225-.643h-11.586a21 21 0 0 1-2.983 5.018q-3.969 5.033-8.899 5.691a8.76 8.76 0 0 1-5.279-.949c-1.745-.913-2.907-2.194-3.5-3.854-.595-1.793-.441-3.762.437-5.907H72.443c-1.255 1.551-2.298 2.995-3.084 4.306a26 26 0 0 0-2.788 6.758M329.25 447.279q2.876-.1 5.75-.168v-20.542l-.885 1.206-2.077 2.075c-.391.438-.925 1.102-1.601 2.015l-2.729 3.735c-1.626 2.134-2.907 3.522-3.856 4.15-1.151.795-2.468 1.269-3.975 1.423-1.459.154-2.871-.036-4.212-.593-1.222-.593-2.111-1.28-2.669-2.075q-1.247-1.957-.534-4.09c.202-.558.653-1.34 1.364-2.372l1.543-1.956c.356-.392 1.151-1.127 2.373-2.194a52.8 52.8 0 0 0 7.415-8.181c.949-1.34 1.756-2.229 2.432-2.668 1.187-.865 2.729-1.269 4.627-1.186 1.033 0 1.875.155 2.551.475.082.037.155.083.233.124v-6.053c-2.359.296-4.728.564-7.114.772-1.543.154-2.646.415-3.322.771-.748.391-1.78 1.399-3.085 3.023-1.78 2.253-3.714 4.233-5.814 5.929-.913.747-1.637 1.126-2.195 1.126-.628 0-1.423-.391-2.372-1.186l-8.424-6.995c-1.222-.984-2.195-1.577-2.907-1.779-1.032-.32-2.432-.272-4.212.119l-10.737 2.134c-4.9.949-8.46 2.17-10.678 3.676-.866.628-2.551 2.229-5.043 4.802-2.1 2.217-5.434 5.3-10.025 9.248q-2.367 2.01-3.737 2.668-1.246.658-3.026 1.067-.41.053-3.203.534c-4.829.747-12.043 2.513-21.653 5.276-.985.237-1.72.593-2.195 1.067-.356.356-.676 1.15-.949 2.371a115 115 0 0 1-2.847 10.612c2.04-.51 4.235-1.008 6.584-1.482a41 41 0 0 1-.118-1.304c0-.154.095-.735.296-1.719l.416-1.364c.391-1.186.735-2.075 1.008-2.668.475-.948 1.092-1.636 1.839-2.075.475-.32 1.092-.569 1.839-.77 1.186-.32 2.076-.475 2.67-.475 1.032-.083 1.922.119 2.669.593l1.009.89c.51.628.806 1.007.889 1.126.511.747.807 1.719.89 2.905 0 .782-.118 1.695-.356 2.727a494.4 494.4 0 0 1 88.153-4.744m-65.195-10.375c1.068-1.304 1.839-2.288 2.314-2.964.593-.794 1.222-1.755 1.898-2.905a64 64 0 0 1 3.559-5.217c1.068-1.458 2.041-2.466 2.907-3.023.831-.593 2.278-1.127 4.331-1.601 2.088-.45 5.54-1.067 10.381-1.838l1.72-.415c2.017-.438 3.405-.652 4.153-.652.937 0 1.744.119 2.432.356.344.107.641.249.89.415.308.213.569.474.771.771.214.237.392.498.534.77.356.735.486 1.577.356 2.549-.107 1.755-.712 3.143-1.839 4.15q-1.121 1.014-4.271 1.779l-9.314 1.956c-1.222.273-2.041.593-2.432.949-.273.237-.629.747-1.068 1.541l-2.432 4.506c-.831 1.624-1.578 2.869-2.254 3.735q-1.424 1.956-3.204 2.845c-.984.475-2.171.747-3.559.83q-2.67.178-4.627-1.067-2.367-1.423-2.492-3.913-.053-1.6 1.246-3.557M19.35 21.558a168 168 0 0 1 6.229-1.719c-.107-1.541-.071-3.533.119-5.988.154-1.862.38-3.118.653-3.794.558-1.458 1.922-3.083 4.093-4.861.629-.557 1.151-.925 1.542-1.126.593-.356 1.364-.628 2.314-.83q2.616-.711 4.805-.534c1.981.202 3.797.913 5.458 2.134q2.491 1.832 3.559 4.624c.558 1.423.949 3.498 1.186 6.225v.593c2.005-.142 4.07-.261 6.169-.356.036-2.419.036-3.877 0-4.387-.237-4.624-1.459-8.086-3.677-10.375Q51.535.901 50.373 0H23.565q-1.162.9-1.426 1.164c-2.219 2.288-3.441 5.751-3.678 10.375q-.054.89 0 5.691c0 1.861-.083 3.427-.237 4.683a17 17 0 0 0 1.126-.355" class="st2"/><path d="M104.122 512.255c-.225.261-.463.51-.712.771-5.256 5.418-11.663 9.604-19.22 12.568-6.608 2.608-13.525 4.067-20.763 4.387h-1.958c-.356 0-.676-.024-.949-.059a66 66 0 0 1-7.534-.712l.059-.059a56 56 0 0 1-12.517-3.557c-7.273-2.964-13.466-7.15-18.568-12.568-2.456-2.609-4.331-5.277-5.636-8.004q-1.602-3.379-2.669-8.537a76.8 76.8 0 0 1-1.661-18.615v-.415a2 2 0 0 1-.178-.474v-.89c-.036-.118-.083-.26-.119-.415V66.496c.035-.154.083-.32.119-.474v-7.114l-.059-.059-.119-.474a9.4 9.4 0 0 1 0-1.423c0-.237.036-.451.119-.652a.97.97 0 0 1-.297-.711c.035-.391.356-.806.949-1.245 3.607-2.371 8.412-4.375 14.415-5.988V48a252 252 0 0 0 2.195-.474 162.3 162.3 0 0 1 35.297-3.853c11.983 0 23.753 1.281 35.297 3.853q8.063 1.779 12.458 4.269c1.009.522 1.483 1.091 1.424 1.719l.119.178c.083.237.118.593.118 1.067v.356l.059.237v.771c.048.237.095.415.119.534.012.119.012.213 0 .296l.059.178v8.893c.036.154.084.32.119.474v44.048a130 130 0 0 1 2.373-3.024 91.5 91.5 0 0 1 9.788-10.374V60.093c.036-.154.083-.296.119-.415V37.861a2 2 0 0 0 .178-.474v-3.083c.035-.154.083-.32.118-.474.036-.036.06-.083.06-.119-.238-.118-.51-.261-.831-.415-9.408-5.656-20.407-9.663-32.983-12.035-9.812-1.85-21.202-2.644-34.17-2.371a2 2 0 0 1-.297-.237c-.119-.083-.261-.154-.415-.237-.154-.036-.32-.083-.475-.119H56.07v.059h-.415a2 2 0 0 0-.297.178c-.119.036-.261.083-.415.119-.036.036-.095.059-.178.059a.33.33 0 0 1-.178.178c-.071.047-.131.083-.178.119-10.097.486-19.137 1.672-27.11 3.557C16.849 25.065 7.764 28.816 0 33.808v459.786c1.413 8.568 3.977 15.865 7.723 21.863 4.829 7.743 11.9 14.134 21.237 19.149a66 66 0 0 0 4.093 2.016 43 43 0 0 1 6.407.059q.552.054.89.178h1.424v-.059h49.534a54 54 0 0 0 3.619-1.779c.403-2.573 1.115-5.229 2.136-7.944.985-2.727 2.171-5.015 3.559-6.877a23 23 0 0 1 2.669-2.905c.084.036.155.083.238.119q1.424-1.245 3.737-2.846h.059l-.118-.119a1.3 1.3 0 0 0-.356-.059 2 2 0 0 1 .474-.178 19.7 19.7 0 0 1-3.203-1.957m1.72 2.193a.6.6 0 0 1 .119-.177c0 .035.059.059.059.059l.06.059a.6.6 0 0 0-.238.059M209.597 73.313c-.107.356-.356.711-.771 1.067-.842.806-2.065 1.601-3.678 2.371-2.931 2.3-5.173 4.079-6.703 5.336-3.121 2.526-5.636 4.897-7.534 7.114-1.745 1.933-2.765 3.047-3.085 3.32l-2.492 2.134c-.154.119-.807.866-1.957 2.253-.594.747-1.567 1.838-2.907 3.26l-2.788 2.964c-.356.57-.736 1.103-1.127 1.601.166.036.296.059.415.059v.06c-.095.095-.202.166-.297.237a3 3 0 0 1-.296.118l-.119-.059c-.261.332-.522.652-.771.949-.688.652-1.293 1.245-1.839 1.778-.736.913-1.46 1.802-2.195 2.668a319 319 0 0 1 4.152 4.506q12.583 13.872 34.526 41.262c.344.426.664.841.949 1.244.059-.083.119-.154.178-.237l4.449-5.632c4.034-5.134 7.297-9.035 9.788-11.679 1.424-1.505 2.456-2.644 3.085-3.438q.712-.89 1.958-2.846c.795-1.067 1.566-1.873 2.313-2.43q.108-.09.178-.178a99 99 0 0 0-.771-3.261c-.474-2.099-.795-3.913-.949-5.454-.356-4.352.356-7.885 2.136-10.612 1.186-1.814 2.823-3.356 4.923-4.624.795-.486 1.59-.901 2.373-1.245q2.154-.943 4.272-1.245l-4.212-4.506c-1.341-1.423-2.314-2.513-2.907-3.26-1.151-1.387-1.804-2.134-1.958-2.253l-2.491-2.134c-.321-.273-1.341-1.387-3.085-3.32-1.898-2.217-4.414-4.589-7.534-7.114-1.78-1.458-4.509-3.616-8.187-6.462-.759-.581-1.293-1.15-1.601-1.719a2.7 2.7 0 0 1-.238-.534v-.059zm4.212 40.373q.41 1.014.356 1.779c-.036.509-.261.948-.653 1.304a2.8 2.8 0 0 1-1.423.771c-.985.237-1.982.023-2.966-.653q-.713-.48-.89-.889-.482-1.014.534-2.668c.474-.628.771-1.007.889-1.126.629-.593 1.389-.747 2.255-.474.747.237 1.388.889 1.898 1.956m-.771-24.425c.439.676.617 1.399.534 2.194-.119.794-.499 1.399-1.127 1.838-.95.676-2.017.688-3.204.059-.557-.273-.949-.617-1.186-1.008q-.481-.835-.178-1.779c.118-.557.415-1.067.89-1.541.32-.391.628-.628.949-.711.32-.119.629-.178.949-.178.593 0 1.032.059 1.305.178.356.201.712.509 1.068.948m120.365 264.527-1.78-2.134c-.949-1.151-1.661-2.075-2.136-2.787a21 21 0 0 1-1.186-2.016 28 28 0 0 1-1.305 6.344c-1.186 3.593-3.12 6.723-5.814 9.367-1.981 2.016-4.128 3.521-6.466 4.505q-.071.09-.178.178c.249.131.665.451 1.246.949q1.779 1.12 2.67 1.778c1.945 1.328 3.452 3.071 4.508 5.217 1.139 1.708 2.124 3.723 2.966 6.047.024.048.036.095.06.119 2.765-4.622 5.773-9.684 9.012-15.165v-10.852a17 17 0 0 1-1.597-1.55m-5.695-149.1q-.285 1.352-.712 2.667c-1.186 3.593-3.12 6.723-5.814 9.367a19 19 0 0 1-2.966 2.49.4.4 0 0 1-.178.06 3.5 3.5 0 0 0-.534.177c-.201.036-.391.083-.593.119a2 2 0 0 0-.474.178.7.7 0 0 0-.297.178l-.237.237c-.036.083-.083.154-.119.237-.119.035-.261.083-.415.119a.6.6 0 0 1-.178.118.6.6 0 0 1-.178.119l-.237.237a.7.7 0 0 1-.238.059c1.009.51 1.78.901 2.314 1.186q1.3.622 2.135 1.245a.6.6 0 0 0 .178-.06 19 19 0 0 1 3.204 3.32c1.388 1.862 2.574 4.15 3.559 6.877 1.009 2.668 1.697 5.277 2.076 7.826h.772v-.119H335v-36.578h-6.699c-.214-.024-.415-.036-.593-.059m-95.39-130.189a3 3 0 0 0-.594-.178c-.201-.035-.379-.083-.534-.118h-.652v.059c-.202.036-.38.059-.534.059a10 10 0 0 0-1.186.178 3 3 0 0 1-.178-.296c-.048-.107-.095-.202-.119-.296a27 27 0 0 1-1.542-.178 552 552 0 0 1-10.56-.296l1.009.83a163 163 0 0 0 5.517 4.328l3.678 2.905c.984.865 2.254 2.17 3.796 3.913q2.616 2.845 3.738 3.913c2.171 1.933 3.761 3.438 4.745 4.506.866 1.15 1.543 1.98 2.017 2.49 1.46 1.506 2.551 2.644 3.263 3.439.558.558 1.661 1.802 3.322 3.735.178.214.309.403.415.593.155-.071.309-.154.475-.237.225-.119.486-.297.771-.534.368-.296.783-.664 1.246-1.126l7.415-7.589c3.595-3.759 6.265-6.818 8.009-9.189a278 278 0 0 1 1.898-2.609c-.107-.024-.225-.071-.356-.119a142 142 0 0 0-7.593-2.727.9.9 0 0 1-.178.296c0-.012-.024-.036-.059-.059-.155-.036-.333-.083-.534-.119a.6.6 0 0 1-.178-.118c-.155-.036-.297-.083-.416-.119-.118-.083-.237-.154-.356-.237-.154-.035-.332-.083-.533-.118h-.297c-.095-.059-.19-.119-.297-.178a.42.42 0 0 0 .178-.178 134.6 134.6 0 0 0-24.678-4.921c.154.166.285.296.415.415h-.059c-.154-.037-.32-.084-.474-.12m-85.365-9.426q1.192-.231 1.601-.534.766-.48 1.602-1.956c.344-.652.593-1.34.771-2.075a28.3 28.3 0 0 1 .416-5.099l-1.543.296c-2.93.439-6.229.593-9.907.474h-.118c-.036 1.85 0 3.249.118 4.209.202 1.743.807 3.047 1.839 3.913 1.187.914 2.931 1.163 5.221.772m167.763 204.175a2 2 0 0 1-.237.237c.285.202.581.415.89.653l2.195 1.659q1.602 1.299 1.957 1.779c.06.059.095.119.119.178h.178a21.3 21.3 0 0 1 2.551 2.786c1.388 1.862 2.574 4.15 3.559 6.877 2.931 7.79 3.287 15.035 1.068 21.758-1.186 3.592-3.12 6.722-5.814 9.367a29 29 0 0 1-2.906 2.549h-.238a3.5 3.5 0 0 0-.534.178c-.201.035-.391.083-.593.118a2 2 0 0 0-.474.178.7.7 0 0 0-.297.178l-.237.237c-.036.083-.083.154-.119.237-.119.036-.261.083-.415.119a.6.6 0 0 1-.178.118.6.6 0 0 1-.178.119l-.237.237a.6.6 0 0 0-.178.119c.984.474 1.744.853 2.254 1.126.866.439 1.602.866 2.195 1.304l.118-.118a18 18 0 0 1 3.204 3.32c1.388 1.861 2.574 4.149 3.559 6.877 1.151 3.059 1.899 6.047 2.254 8.951.368.273.689.724.95 1.364l1.305 2.964c.557 1.032 1.423 2.289 2.61 3.794a50 50 0 0 0 1.953 2.426v-85.174c-.624-1.04-1.292-1.981-2.012-2.799-.795-.865-1.899-1.933-3.323-3.201-1.613-1.316-2.693-2.241-3.262-2.787a23.1 23.1 0 0 1-5.221 7.767c-1.981 2.015-4.128 3.521-6.466 4.505M158.165 81.91c-.119.036-.238.083-.356.119-.238.083-.451.154-.653.237a3 3 0 0 0-.593.178c-.119 0-.237.024-.356.059h-.119c-.154.059-.308.119-.474.178-3.524 1.34-6.763 2.786-9.729 4.328l4.271 3.32c4.307 3.486 8.851 7.6 13.644 12.331l.119.119c.024.047.047.083.059.118l2.907 3.083c.107.059.202.119.297.178.059.047.118.083.178.119.711.711 1.4 1.422 2.076 2.134.107-.095.202-.214.296-.356.084-.107.19-.225.297-.356.415-.604 1.103-1.292 2.076-2.075a42 42 0 0 0 2.729-3.142.4.4 0 0 0 0-.178c1.068-1.268 1.815-2.11 2.254-2.549.712-.794 1.804-1.933 3.263-3.439.475-.51 1.151-1.34 2.017-2.49.985-1.067 2.575-2.573 4.746-4.506q1.12-1.067 3.737-3.913c1.543-1.743 2.812-3.047 3.797-3.913l3.678-2.905a247 247 0 0 0 5.161-3.972c.202 0 .403-.036.593-.059.439-.379.914-.783 1.424-1.186-2.8.071-5.387.213-7.771.415h-.297l.119.059v.059s-.048.083-.06.118c-.201-.036-.379-.083-.534-.118h-3.796v.059a2.3 2.3 0 0 1-.534.059.5.5 0 0 1-.178 0c-.89.095-1.78.202-2.67.296-.095.13-.213.273-.356.415l-.355.356h-3.738l.297-.296a135.3 135.3 0 0 0-27.051 6.758c.024.059.047.095.059.119-.024.024-.035.047-.059.059a2.2 2.2 0 0 1-.415.18m70.831 58.573c-1.745 1.778-3.002 3.142-3.797 4.09-1.661 2.17-2.943 3.771-3.856 4.802-.866.984-1.424 1.636-1.661 1.957-.712 1.185-1.282 2.051-1.72 2.608-.155.237-.736.83-1.721 1.779q-1.424 1.245-2.847 3.201a5 5 0 0 1-.416.534c3.038 0 5.506.023 7.416.118.19-.024.391-.047.593-.059 3.642-.107 8.436.059 14.356.474 0-.32.012-.699.059-1.126.688-8.217.131-16.458-1.661-24.722-2.076 3.036-3.666 5.158-4.745 6.344" class="st2"/><path d="M35.427 91.514c1.388-.083 2.432-.273 3.144-.593 1.27-.557 2.195-1.447 2.788-2.668a6.77 6.77 0 0 0 .831-3.735q0-2.08-.89-3.557l-1.009-1.245c-.676-.747-1.222-1.245-1.661-1.482-.392-.202-.985-.415-1.78-.652l-1.424-.356q-1.655-.231-3.559.534c-.985.51-1.934 1.245-2.847 2.194-.261.261-.51.569-.771.948-.036 2.312-.071 4.624-.119 6.936.724 1.541 1.768 2.609 3.144 3.201.949.392 2.337.558 4.153.475m9.669 90.823q3.862-.942 5.695-4.624c1.151-2.288 1.364-4.743.653-7.351l-.593-1.482a9 9 0 0 0-1.127-1.364c-.949-.984-1.697-1.695-2.254-2.134-.914-.711-1.815-1.162-2.729-1.363-.439-.119-1.103-.178-2.017-.178-1.981 0-3.417.201-4.331.592-.32.155-.914.534-1.78 1.127l-1.839 1.482q-2.546 2.49-2.67 6.047c0 2.454.866 4.648 2.61 6.581 1.388 1.541 2.907 2.466 4.568 2.786l2.136.178c1.661 0 2.883-.095 3.678-.297m-14.119 38.476c.985.628 2.1.948 3.322.948q1.833-.053 3.203-1.067c.949-.675 1.578-1.624 1.898-2.845s.202-2.336-.356-3.32c-.356-.83-1.044-1.577-2.076-2.253s-1.958-1.008-2.788-1.008c-1.186 0-2.314.439-3.381 1.304-1.459 1.269-2.195 2.644-2.195 4.15.001 1.696.795 3.059 2.373 4.091M91.13 73.136c.439-1.221.451-2.371.059-3.438-.356-.866-.949-1.601-1.78-2.194a5.7 5.7 0 0 0-2.729-.948c-.866-.119-1.637-.024-2.314.296-.356.154-.807.51-1.364 1.067-.676.83-1.068 1.743-1.186 2.727-.154 1.103.036 2.051.593 2.846a5 5 0 0 0 1.424 1.364q1.014.712 1.78.889c1.625.474 3.025.213 4.212-.771.558-.439.985-1.044 1.305-1.838m-1.542 108.016q-.125-2.49-1.424-3.735-.712-.712-2.136-1.245c-1.424-.557-2.515-.771-3.263-.652-1.578.272-2.812 1.505-3.678 3.675q-.765 1.903-.534 3.202c.202 1.505 1.008 2.632 2.432 3.379 1.222.711 2.634.925 4.212.652q3.15-.534 4.093-2.846c.274-.675.381-1.482.298-2.43m22.127 331.814c10.168-2.845 21.333-5.181 33.517-6.995 10.595-1.577 23.812-3 39.628-4.269.273-.035.569-.059.89-.059 6.608-.51 11.9-.735 15.898-.652l6.525-.415a152 152 0 0 1 7.772-.178c.878-1.079 1.423-2.194 1.661-3.32.439-2.099-.06-4.233-1.483-6.403-.985-1.458-2.575-3.023-4.746-4.683-.748-.51-1.222-1.008-1.424-1.482a3 3 0 0 1-.178-.593c-2.456-.356-4.627-1.423-6.525-3.201-1.934-1.862-3.05-3.996-3.322-6.403-.238-1.814.035-3.676.83-5.573a14.3 14.3 0 0 1 1.839-3.201 188 188 0 0 1 6.11-5.158c1.424-.83 3.049-1.577 4.865-2.253a68 68 0 0 1 4.864-1.66q.054-.32.178-.711l.475-2.016c-3.702-.024-8.922.06-15.661.237l-6.645.237q-.711.125-1.245 0c-15.982.985-29.567 2.194-40.755 3.617-15.269 1.933-29.246 4.565-41.941 7.885a.6.6 0 0 1-.178.118c-.035.202-.142.392-.296.593-.238.32-.807.735-1.721 1.245-2.728 1.541-4.983 3.533-6.762 5.988-.392.557-.736.925-1.009 1.126a2.6 2.6 0 0 1-.593.356 27 27 0 0 0-2.195 4.09 31.3 31.3 0 0 0-2.551 11.205c-.202 5.063.807 9.521 3.026 13.399 2.491 4.422 5.932 7.351 10.322 8.774.32.118.593.237.83.355M52.986 261.66c.949 2.608 2.587 4.861 4.924 6.758a19.2 19.2 0 0 0 7.534 3.794q6.05 1.477 11.746-.711c3.998-1.506 6.976-4.008 8.958-7.529 1.625-2.763 2.349-5.846 2.195-9.248-.202-3.403-1.222-6.427-3.085-9.071a14.8 14.8 0 0 0-2.551-2.905c-1.863-1.66-4.093-2.94-6.703-3.853a19 19 0 0 0-7.297-.949c-2.575.202-4.948.866-7.119 2.016-3.88 2.051-6.644 5.252-8.305 9.604-1.626 4.233-1.721 8.264-.297 12.094" class="st2"/><path d="M309.437 527.728c.118-2.881.142-5.252.059-7.114-.154-3.166-.629-5.691-1.424-7.588-1.388-2.965-3.535-5.063-6.466-6.285-.747-.32-1.839-.652-3.263-1.007-1.507-.392-2.586-.736-3.262-1.008-2.646-1.032-4.746-2.727-6.289-5.099-1.305-1.98-2.171-4.446-2.61-7.41-.237-1.814-.332-4.482-.296-8.004l.178-11.145v-.119l-15.78 1.245c-12.304 1.067-22.127 2.135-29.483 3.202-10.477 1.541-19.897 3.497-28.238 5.869 2.693 2.015 4.627 3.877 5.814 5.573 1.779 2.454 2.551 4.979 2.313 7.588-.272 2.964-2.1 5.964-5.457 9.011-.866.83-2.195 2.051-3.975 3.676-1.542 1.423-2.705 2.762-3.5 4.031-.866 1.459-1.542 3.166-2.017 5.099-1.032 4.351-.569 8.418 1.365 12.212a15.5 15.5 0 0 0 3.856 4.921c1.625 1.423 3.416 2.454 5.398 3.083.795.272 1.269.616 1.424 1.007.083 0 .142.036.178.119.094.13.154.261.201.415h91.274a54 54 0 0 1-.238-5.158c0-.794.083-3.166.238-7.114" class="st2"/><path d="M332.928 490.972c-.379-.297-.937-.676-1.661-1.127a5 5 0 0 1-.296-.118c-2.646-.949-4.533-2.668-5.636-5.158-.676-1.541-1.009-3.581-1.009-6.106 0-2.17.143-4.743.416-7.707-7.487.083-17.477.581-29.958 1.482l-6.644.533c.356 1.981.486 4.506.415 7.589-.119 4.304-.154 6.936-.119 7.885.119 2.928.689 5.513 1.721 7.766 1.186 2.644 2.871 4.541 5.042 5.691.866.475 2.017.913 3.441 1.305 1.981.557 3.168.889 3.559 1.007a14.4 14.4 0 0 1 5.043 3.202c1.506 1.423 2.634 3.059 3.381 4.92 1.103 2.526 1.625 6.166 1.542 10.909-.154 4.387-.237 7.671-.237 9.841-.024 2.632.083 4.992.297 7.114H335v-46.816q-.899-1.263-2.072-2.212m-125.17 45.412c-2.1-2.336-3.619-5.04-4.568-8.122-.913-3.166-1.103-6.284-.593-9.367a19.8 19.8 0 0 1 1.958-5.751c1.459-2.727 3.974-5.691 7.534-8.892l.178-.178-13.882-.06h-1.602a6 6 0 0 1-1.127 0 66 66 0 0 1-3.084.178l-37.789 3.439c-.439.035-.866.095-1.305.178-.51.083-1.008.154-1.483.237l-37.432 7.055c-.594.154-1.163.32-1.721.474a3 3 0 0 1-.711.178c-.795.201-1.567.391-2.314.592-.119.036-.214.083-.297.119a48 48 0 0 1-2.313 1.779q-2.26 1.6-2.848 2.312c-.391.557-.652.889-.771 1.008a2.4 2.4 0 0 1-.534.415 29.7 29.7 0 0 0-2.966 5.276c-1.281 3-2.1 6.082-2.432 9.248a.3.3 0 0 1-.059.119c-.036.083-.083.154-.119.237v.237c-.035.083-.083.154-.119.237v2.431c.036.083.083.154.119.237h115.038c-1.614-.711-3.204-1.909-4.758-3.616" class="st2"/><path d="M244.775 473.72c6.763-.913 15.697-1.838 26.814-2.786l18.39-1.542c9.574-.711 16.966-1.185 22.186-1.423 6.134-.237 11.829-.272 17.085-.118 1.855-.054 3.785-.076 5.75-.083v-17.593c-1.581.048-3.49.053-5.75.009-4.235.083-7.273 0-9.135-.237h-.119a491.5 491.5 0 0 0-84.119 5.81q-13.116 2.01-20.466 4.802c-3.999 1.506-7.083 3.261-9.255 5.276-1.222 1.186-2.135 2.466-2.728 3.854-.677 1.577-.89 3.106-.653 4.565.32 1.66 1.222 3.142 2.729 4.446 1.34 1.15 2.942 1.992 4.805 2.549.036 0 .083.024.119.059.237-.201.498-.355.771-.474 1.542-.593 3.891-1.328 7.059-2.193 7.866-1.98 16.705-3.617 26.517-4.921M30.052 540h3.5c-.32-.13-.641-.261-.973-.415-.842.107-1.684.261-2.527.415m11.722-.415c-1.032 0-2.076-.024-3.144-.059-.593-.036-1.21-.06-1.839-.06a8 8 0 0 0-.89-.059c-.095-.035-.202-.071-.297-.118a7 7 0 0 1-.712.059v.059c-.119.154-.214.297-.297.415-.047.059-.071.119-.107.178h60.046c0-.142-.012-.273-.012-.415zm57.128-293.161q2.189 1.6 4.983 1.956c1.862.237 3.642.036 5.339-.593 1.34-.474 2.764-1.28 4.271-2.43 1.696-1.423 2.99-2.49 3.856-3.202 2.456-1.897 4.983-3.26 7.593-4.09q4.449-1.37 8.365-.356c.83.202 1.933.593 3.322 1.186 1.506.628 2.61 1.043 3.322 1.245 3.559.984 6.964.687 10.203-.89.949-.474 2.195-1.268 3.737-2.371 1.697-1.186 2.931-1.992 3.678-2.431a15.9 15.9 0 0 1 6.704-1.956c2.408-.202 4.686.154 6.822 1.067q1.068.48 3.025 1.601c1.305.794 2.29 1.34 2.966 1.66q5.464 2.49 11.212.711c1.578-.474 3.536-1.446 5.873-2.905 2.848-1.743 4.746-2.822 5.695-3.26a19.6 19.6 0 0 1 8.305-1.957c3.049-.035 5.79.617 8.246 1.957.748.391 1.804 1.09 3.144 2.075 1.388.984 2.432 1.683 3.144 2.074 2.171 1.186 4.533 1.838 7.06 1.957 2.574.118 4.983-.32 7.237-1.304.51-.238 1.697-.854 3.559-1.838 1.46-.795 2.694-1.34 3.678-1.66 1.899-.557 4.426-.617 7.594-.178 2.456.391 4.271.948 5.457 1.66.795.51 1.721 1.387 2.788 2.608 1.27 1.423 2.16 2.348 2.67 2.787 1.934 1.695 4.354 2.703 7.237 3.023 2.693.273 5.339-.095 7.949-1.126.95-.356 2.468-1.067 4.568-2.134 1.899-.984 3.417-1.684 4.568-2.075 3.085-.984 6.265-1.032 9.551-.119 3.286.866 5.992 2.514 8.127 4.921 1.222 1.577 2.195 2.727 2.907 3.438 1.222 1.221 2.693 2.158 4.39 2.787 1.661.592 3.357.806 5.101.652 3.299-.285 6.063-1.648 8.306-4.091a31.4 31.4 0 0 0-2.551-11.027c-1.068-2.442-2.385-4.671-3.975-6.699a.4.4 0 0 0-.119-.059l-1.186-.83c-.712-.557-1.637-1.15-2.788-1.779-.676-.355-1.685-.865-3.026-1.541-.32-.19-.593-.38-.83-.593-.024.012-.071.012-.119 0a1.6 1.6 0 0 1-.652-.237 16 16 0 0 1-1.187-.297l-39.805-7.469c-.332-.036-.664-.072-1.008-.119-11.272-1.423-24.975-2.644-41.111-3.676-.32.119-.771.178-1.364.178l-27.348-.118c-.427 0-.795-.024-1.127-.06l-.475.06a4.5 4.5 0 0 1-1.127 0c-1.044.071-2.1.13-3.144.178l-37.729 3.438-1.305.178c-.498.059-.996.118-1.483.178l-37.492 7.114c-.557.142-1.127.284-1.72.415q-.249.177-.712.178c-.735.225-1.495.438-2.254.652a3 3 0 0 1-.356.059 31 31 0 0 1-2.254 1.838q-2.26 1.6-2.848 2.312c-.391.557-.652.889-.771 1.008a1.9 1.9 0 0 1-.593.415 32 32 0 0 0-2.907 5.276 31.3 31.3 0 0 0-2.551 11.205c0 .296-.036.593-.059.889q.569-.089 1.424.534m70.89-133.805c-6.858 8.489-12.339 15.746-16.432 21.757-7.119 10.47-12.518 20.572-16.195 30.295-.178.498-.38.901-.594 1.185a511 511 0 0 1 8.661-1.363c10.595-1.577 23.812-3 39.628-4.269 7.237-.593 12.956-.83 17.144-.711.332.024.605.071.83.118 2.433-.059 4.675-.118 6.704-.177l-23.907-28.635c-7.202-8.537-12.363-14.489-15.483-17.844a5 5 0 0 0-.356-.356m-40.755-57.387v4.15c.083.118.143.261.178.415v2.312c.155.13.273.332.356.593.119.439.214.735.297.889.273.628.807 1.091 1.602 1.364.628.202 1.388.237 2.254.119.795-.083 1.34-.237 1.661-.474.356-.273.629-.711.83-1.304.439-1.032.712-2.336.831-3.913.071-.759.142-1.873.237-3.32a238 238 0 0 1-7.356-.652 4.3 4.3 0 0 1-.89-.179m-42.89 65.687c1.625-2.763 2.349-5.846 2.195-9.249-.202-3.403-1.222-6.426-3.085-9.07a14.8 14.8 0 0 0-2.551-2.905c-1.863-1.66-4.093-2.94-6.703-3.854a19.1 19.1 0 0 0-7.297-.949c-2.575.202-4.948.866-7.119 2.016-3.88 2.051-6.644 5.252-8.305 9.604-1.625 4.233-1.72 8.264-.297 12.094.949 2.608 2.587 4.861 4.924 6.758a19.2 19.2 0 0 0 7.534 3.794h.119l-.119.119c-2.456 2.17-3.595 4.47-3.441 6.877 0 .32.142 1.031.415 2.134l.593 1.719c.273.558.771 1.186 1.483 1.897 1.934 2.016 4.117 3.225 6.525 3.617a7.5 7.5 0 0 0 3.619-.178c.593-.154 1.447-.557 2.551-1.186 1.032-.557 1.756-1.067 2.195-1.541.629-.629 1.246-1.636 1.839-3.024.629-1.458.973-2.786 1.008-3.972.083-1.387-.237-2.751-.949-4.09a8.9 8.9 0 0 0-2.788-3.142 6 6 0 0 0-.474-.297c3.584-1.517 6.289-3.912 8.128-7.172m30.136-8.241c-4.663 6.427-8.412 13.244-11.212 20.453l.059.06 2.551 3.201c2.255 2.881 4.236 5.276 5.933 7.173q1.6 1.726 4.983 4.98a546 546 0 0 0 15.898 14.881c3.903-9.83 9.219-19.789 15.958-29.88 4.829-7.244 10.642-14.916 17.441-23.002a5 5 0 0 1-.356-.356l-.119-.118a126 126 0 0 0-3.381-3.32 29 29 0 0 0-1.187-1.186c-2.491-2.407-5.636-5.276-9.432-8.596a2529 2529 0 0 0-9.67-8.359c-.107-.095-.201-.202-.296-.296-10.595 5.904-19.648 14.026-27.17 24.365m13.763-10.375q1.12-1.725 2.847-1.956c.475.036.914.214 1.305.534.392.32.677.711.831 1.185.237 1.032 0 1.933-.712 2.727-.51.51-1.151.795-1.898.83-.795.083-1.46-.094-2.017-.533-.321-.32-.51-.569-.593-.771-.273-.628-.202-1.304.237-2.016m-2.67 20.869q1.192-1.192 2.314-1.423c1.032-.273 1.874-.024 2.551.77.273.321.439.676.474 1.068.202.794.119 1.482-.237 2.075-.202.272-.652.628-1.364 1.067q-1.3.533-1.78.533c-.747.119-1.459-.095-2.136-.652-.51-.439-.771-.913-.771-1.423-.035-.676.273-1.34.949-2.015m173.103-62.19c-2.053-.676-4.924-1.221-8.602-1.66-8.341-1.031-15.578-1.482-21.712-1.363-7.866.118-14.973 1.162-21.297 3.142-.379.107-.723.178-1.008.237-.071.19-.142.403-.237.652l-.89 2.193a10 10 0 0 0-.534 1.482 3.5 3.5 0 0 0-.178 1.126l-.178.83-.059.83c-.19 1.707-.178 3.308.059 4.802 5.149 1.079 10.405 2.502 15.78 4.268q5.819 1.903 9.788 3.557c13.881 5.845 25.592 14.667 35.119 26.44.107.131.201.249.296.356.143-.688.297-1.494.475-2.43 1.151-5.846.593-10.932-1.661-15.237-.475-.866-.795-1.565-.949-2.075-.154-.711-.143-1.541.059-2.49q.178-.836.712-2.49c1.032-3.356 1.281-6.818.771-10.375-.474-3.593-1.661-6.901-3.559-9.9a11 11 0 0 1-.415-.652l.415-.771c-.463.002-1.187-.164-2.195-.472" class="st2"/><path d="M307.242 39.166c-1.033-.948-2.077-1.743-3.144-2.371-.558-.32-.95-.617-1.187-.889q-9.219-4.464-21.534-5.158c-2.539-.142-5.339-.154-8.424-.059a.3.3 0 0 1-.118.178h-6.348v.059c-.154.036-.32.083-.474.118-.748.036-1.483.083-2.195.119a2 2 0 0 0-.475.178c-.237.036-.474.083-.712.118a1.2 1.2 0 0 1-.356.059.6.6 0 0 1-.178.119.6.6 0 0 1-.178.119l-.178.178h-.059c-4.508.237-8.756 1.447-12.754 3.616-3.239 1.743-5.363 3.818-6.348 6.225-.51 1.34-.771 2.94-.771 4.802a16 16 0 0 0 .178 3.023 13.1 13.1 0 0 0 2.076 5.098 11.95 11.95 0 0 0 3.678 3.557q.357-.071.712-.178a.4.4 0 0 1 0 .178c5.838-2.039 12.494-3.178 19.992-3.438 5.897-.202 13.086.202 21.593 1.186 5.458.628 9.61 1.423 12.458 2.371.13.048.249.083.356.119.356-.202.795-.356 1.305-.474 1.151-.273 1.839-.498 2.076-.652.475-.32.985-.949 1.543-1.897l1.661-3.023c.474-.949.806-1.802 1.008-2.549.475-1.862.415-3.77-.178-5.751a12 12 0 0 0-3.025-4.981m-203.357 97.107a94 94 0 0 0-3.144 11.62 67 67 0 0 0-.712 4.328c.308.118.664.367 1.067.771.712.711 1.756 2.051 3.145 4.031 1.269 1.814 2.372 3.118 3.322 3.913.747.557 1.281 1.008 1.601 1.363.392.356.914.925 1.543 1.72.83.912 2.112 1.932 3.856 3.082 1.779 1.15 3.025 2.016 3.737 2.609a290 290 0 0 1 15.78-3.379c-.036-.048-.071-.107-.119-.178-.225.023-.463.035-.712.059l-15.839-14.643a134 134 0 0 1-12.813-14.406zm7 326.539c.32.118.593.237.83.355 10.168-2.845 21.333-5.181 33.517-6.995 10.595-1.577 23.812-3 39.628-4.269 7.035-.592 12.635-.83 16.788-.711l6.525-.415c4.414-.202 8.294-.225 11.628-.059l1.483-6.344c.474-2.134 1.15-3.616 2.017-4.446.794-.747 2.408-1.387 4.864-1.897 1.934-.356 5.422-1.269 10.441-2.727 4.354-1.269 7.83-2.051 10.44-2.372 2.219-.272 3.714-.569 4.509-.889.913-.356 2.017-1.103 3.322-2.253a190 190 0 0 0 13.822-12.746c1.388-1.458 2.551-2.466 3.5-3.023.985-.593 2.634-1.127 4.924-1.601l1.602-.356-11.45-2.134c-.356-.036-.712-.083-1.067-.118-11.272-1.423-24.975-2.645-41.111-3.676-.32.118-.771.178-1.364.178l-27.348-.119h-1.602a6 6 0 0 1-1.127 0 68 68 0 0 1-3.084.178l-37.789 3.439c-.439.035-.866.094-1.305.177-.51.083-1.008.154-1.483.237l-37.432 7.055c-.594.154-1.163.32-1.721.475a2.8 2.8 0 0 1-.711.177c-.795.202-1.567.392-2.314.593-.119.036-.214.083-.297.119a47 47 0 0 1-2.313 1.778q-2.26 1.601-2.848 2.312c-.391.558-.652.89-.771 1.008a2.3 2.3 0 0 1-.534.415 29.7 29.7 0 0 0-2.966 5.277 31.3 31.3 0 0 0-2.551 11.204c-.202 5.063.807 9.521 3.026 13.399 2.491 4.422 5.932 7.351 10.322 8.774M99.91 161.232q1.122 7.594 6.051 11.561c.024.023.036.047.059.059a1 1 0 0 1 .178.237c.107-.047.202-.083.297-.119.581-.177 1.151-.355 1.72-.533a304 304 0 0 1 6.11-1.719c-.047-.036-.106-.072-.178-.119q-3.328-2.259-5.695-4.624a9.6 9.6 0 0 1-1.423-1.482l-2.788-2.905c-1.175-1.316-2.682-3.344-4.509-6.106-.13 2.122-.071 4.043.178 5.75M46.461 16.519V16.4c-.202-1.862-.332-3.023-.415-3.498-.237-1.304-.593-2.395-1.068-3.261a7.3 7.3 0 0 0-2.373-2.668c-1.032-.711-2.136-1.103-3.322-1.186-.676-.083-1.507-.059-2.492.059-1.032.083-1.875.237-2.551.474-.747.32-1.697.948-2.847 1.897-.914.676-1.542 1.304-1.898 1.897-.237.439-.451 1.043-.653 1.838q-.355 1.6-.534 4.091l-.297 3.261q1.993-.463 4.093-.889a3.4 3.4 0 0 1-.059-.652c0-2.336.439-4.055 1.305-5.158.747-.866 1.922-1.482 3.5-1.838 1.222-.237 2.195-.237 2.907 0 1.507.51 2.551 1.743 3.144 3.676.285 1.032.261 1.838-.059 2.431 1.186-.13 2.397-.248 3.619-.355m276.857 19.327c-2.93 1.897-5.125 3.284-6.585 4.15l-3.381 1.838-.119.059a6 6 0 0 1-.474.237c.45 1.079.747 2.158.889 3.261.119.901.167 1.767.119 2.608h.237c1.187 0 2.373-.024 3.56-.059h13.407v-.06H335V28.184zM100.563 210.379c2.491 4.422 5.932 7.351 10.322 8.774.308.107.581.213.83.296 10.168-2.81 21.333-5.122 33.517-6.936 10.595-1.577 23.812-3 39.628-4.268.296-.024.593-.048.89-.06 6.62-.533 11.911-.747 15.898-.652l6.525-.415q10.199-.498 16.551.356c.344.024.677.047 1.009.059l12.398.712c15.815 1.268 29.032 2.691 39.627 4.268l29.662 5.929c1.328.332 2.634.664 3.915 1.007.225-.083.474-.189.771-.296 4.39-1.423 7.831-4.352 10.322-8.774 2.219-3.877 3.227-8.336 3.026-13.398a31.4 31.4 0 0 0-2.551-11.205 31 31 0 0 0-4.509-7.411 33 33 0 0 0-1.957-2.134 6 6 0 0 1-.534-.593 3.5 3.5 0 0 1-.534-.178c-.712-.201-1.448-.391-2.195-.592-6.621-1.826-13.597-3.463-20.941-4.921-.13.581-.664 1.126-1.602 1.66-1.934 1.031-3.44 2.158-4.508 3.379-1.424 1.625-2.017 3.356-1.78 5.217.083.557.273 1.269.593 2.134.439 1.103.689 1.814.772 2.135q.587 2.134 0 4.446a10.5 10.5 0 0 1-2.195 4.031c-.914 1.103-1.934 1.921-3.085 2.431-1.151.474-2.373.652-3.678.533a7.56 7.56 0 0 1-3.441-1.304 6.9 6.9 0 0 1-2.313-2.845c-.558-1.186-.771-2.396-.653-3.617q.178-1.832 1.78-4.98c1.103-2.252 1.756-3.936 1.957-5.039.238-1.506.095-2.905-.415-4.209-.391-1.032-1.032-2.075-1.898-3.142-.439-.51-1.281-1.423-2.551-2.727-.664-.735-1.044-1.376-1.127-1.897-9.041-1.15-19.66-2.17-31.856-3.083q.036.106 0 .178c-.154.391-.653.711-1.483.948-1.104.32-2.053.771-2.848 1.364-.913.711-1.459 1.565-1.661 2.549-.083.51-.059 1.103.06 1.779.154.794.261 1.363.296 1.719.356 2.336.036 4.209-.949 5.632q-1.548 2.259-4.805 2.668c-2.017.32-3.761.059-5.22-.771a5.84 5.84 0 0 1-1.958-1.719c-.593-.795-.914-1.625-.949-2.49 0-.237-.024-.629-.06-1.186-.035-.474-.142-.854-.296-1.126q-.712-1.014-2.492-.89a4.4 4.4 0 0 0-2.254.712c-.747.474-1.151 1.067-1.186 1.778-.083.629.32 1.566 1.186 2.787 1.186 1.814 1.78 3.498 1.78 5.039.035 2.288-1.044 4.351-3.263 6.166-2.254 1.742-4.77 2.549-7.534 2.43q-4.271-.302-7.297-3.201c-1.067-1.15-1.72-2.253-1.957-3.32-.273-1.186-.06-2.692.652-4.506a25.3 25.3 0 0 1 2.729-5.157c.949-1.305 1.519-2.23 1.721-2.787.474-1.15.51-2.371.118-3.675-.391-1.269-1.103-2.253-2.135-2.965q-.89-.657-2.314-1.067c-.558-.201-1.4-.438-2.551-.711-.38-.119-.652-.261-.83-.415-13.917.948-25.901 2.051-35.95 3.32a486 486 0 0 0-14.118 2.015c-.511.534-1.484 1.032-2.907 1.483a10 10 0 0 1-1.009.652c-.261.13-.522.213-.771.237-.047.035-.107.083-.178.118-.475.237-1.186.569-2.136 1.008-1.696 1.032-3.049 2.81-4.033 5.336-.594 1.458-.867 2.822-.831 4.09.036.866.32 1.921.831 3.142.747 1.898 1.15 2.941 1.186 3.143a11.3 11.3 0 0 1 .237 5.157c-.356 1.779-1.068 3.344-2.135 4.684a13.8 13.8 0 0 1-2.848 2.668c-.83.675-1.661 1.185-2.491 1.541-1.151.474-2.527.616-4.153.415-1.578-.154-2.847-.534-3.797-1.126-.913-.593-1.637-1.447-2.194-2.55a7.9 7.9 0 0 1-.831-3.32c-.036-2.134.629-4.268 2.017-6.402 1.222-1.897 1.875-2.929 1.958-3.083.984-1.862 1.186-3.676.593-5.454a5.55 5.55 0 0 0-1.424-2.372c-.676-.711-1.459-1.185-2.373-1.422-.712-.202-1.542-.238-2.491-.119q-.837.125-2.492.533c-.973.261-1.661.238-2.076-.059a.9.9 0 0 1-.237.178 33 33 0 0 0-4.094 5.395 35 35 0 0 0-1.898 3.735 31.3 31.3 0 0 0-2.551 11.205c-.201 5.062.807 9.521 3.026 13.398m168.297-47.131c.831-11.561.546-21.58-.83-30.057-1.068-6.723-2.907-12.071-5.517-16.066q-2.439-3.735-5.873-6.225c-2.183-1.554-4.485-2.561-6.882-3.024a.9.9 0 0 1-.296.059c-.226 0-.416-.059-.594-.177-2.93-.356-5.718.154-8.364 1.541-2.729 1.423-4.603 3.439-5.636 6.047-.795 2.016-1.008 4.423-.652 7.233.059.521.154 1.185.296 2.015 1.792-.818 3.726-1.197 5.814-1.126 2.337.119 4.425.771 6.288 1.956 2.765 1.779 4.865 4.589 6.288 8.419q1.424 4.037 1.958 10.493c.664 7.126.629 12.912-.119 17.37 5.066.498 9.765 1.02 14.119 1.542" class="st2"/></g><linearGradient id="SVGID_1_" x1="167.5" x2="167.5" y1="491.779" y2="43.779" gradientTransform="matrix(1 0 0 -1 0 539.78)" gradientUnits="userSpaceOnUse"><stop offset="0" style="stop-color:#002e22;stop-opacity:0"/><stop offset="1" style="stop-color:#002e22"/></linearGradient><path d="M0 48h335v492H0z" class="st3"/></svg>