<svg xmlns="http://www.w3.org/2000/svg" xml:space="preserve" id="Layer_1" x="0" y="0" viewBox="0 0 335 540"><style>.st0{fill:#400000}.st1{opacity:.1;enable-background:new}.st2{fill:#ff7101}.st3{fill:url(#SVGID_1_)}</style><path d="M0 0h335v540H0z" class="st0"/><g class="st1"><path d="M179.771 196.447c-.083-.119-.38-.379-.89-.771l-1.127-.711c-.629-.32-1.104-.51-1.424-.593-.676-.237-1.424-.32-2.254-.237-.558 0-1.092.095-1.602.296-.202.083-.593.321-1.186.712-1.389.948-2.278 1.932-2.67 2.964q-.231.587-.356 1.779c-.201 2.051.178 3.699 1.127 4.92.748.913 1.697 1.518 2.848 1.838.913.32 2.04.391 3.381.237.629-.083 1.104-.178 1.424-.296 1.068-.32 1.922-.854 2.551-1.601.391-.439.688-.866.89-1.304.272-.629.45-1.447.534-2.431 0-.747-.143-1.684-.416-2.786-.118-.83-.391-1.506-.83-2.016m-1.839 6.403c-.51.747-1.566 1.162-3.144 1.245-1.578 0-2.646-.38-3.204-1.127-.32-.355-.51-.925-.593-1.719-.154-.948-.083-1.695.237-2.253.119-.154.51-.593 1.187-1.304.629-.439 1.091-.676 1.364-.711.392-.119 1.068 0 2.017.355l1.187.534c.391.201.628.332.711.415.119.118.273.474.475 1.067.392 1.577.32 2.751-.237 3.498m100.077 251.01v-.178h37.788v-.178c0-.557.083-1.387.237-2.49l.771-3.083c.356-1.387.866-2.466 1.543-3.26a4.5 4.5 0 0 1-.831-.949h-.534c-.7-1.363-1.079-3.296-1.127-5.81q-19.826.107-39.687.178h-.237v4.269c.119 0 .214.023.297.059v11.442zM124.423.097c1.068 3.759 3.025 7.055 5.873 9.901 2.883 2.846 6.193 4.802 9.907 5.869.747.237 1.317.498 1.72.771 1.246-.688 2.717-1.292 4.39-1.838 4.947-1.541 10.5-2.075 16.669-1.601.463 0 .855.035 1.187.118.332-.083.724-.118 1.186-.118 6.17-.474 11.722.059 16.67 1.601 1.661.557 3.12 1.186 4.39 1.897.391-.32.973-.593 1.72-.83 3.714-1.067 7.024-3.024 9.907-5.869 2.847-2.846 4.805-6.142 5.873-9.901.009-.031.015-.066.024-.097H124.4c.008.031.014.066.023.097m20.703 438.586c18.272-.32 31.655-.451 40.162-.415 14.949.083 28.332.569 40.161 1.482q15.963 1.245 47.517 5.514v-7.648s.059-.095.059-.178v-1.601h.297l-.059-2.964h-.238v-11.975c.036-.083.084-.154.119-.237v-2.905c0-.083.024-.155.059-.238v-.889c0-.083.024-.154.06-.237v-3.32h-.06a4 4 0 0 1-.415-.059c-12.529-1.506-21.937-2.621-28.237-3.32-10.999-1.221-20.585-2.051-28.772-2.49q-12.458-.711-37.551-.711h-2.313c-14.404 0-24.31.083-29.721.237a611 611 0 0 0-62.704 4.98 622 622 0 0 0-23.136 3.497 8 8 0 0 1-.534.06c-.961.154-1.756.189-2.373.118v25.374h-.059c.214 1.648.225 3.32.059 5.039v1.897a2 2 0 0 1 .475-.178c.154-.035.32-.059.475-.059 8.388-1.66 20.881-3.415 37.492-5.276q22.12-2.49 33.102-3.024c3.642-.154 9.017-.32 16.135-.474M41.609 342.939c.154-.913.51-2.134 1.068-3.676l.593-1.423c1.068-2.288 2.646-4.031 4.746-5.217 2.017-1.15 4.176-1.624 6.466-1.423v-9.663c-.083-.403-.107-.889-.059-1.482a72 72 0 0 0 .059-1.838v-.178c.036-2.087 0-4.458-.119-7.114-.047-.557 0-1.02.119-1.363v-19.268c-2.052.391-4.698.593-7.949.593-4.425-.036-7.356.024-8.78.178a33.1 33.1 0 0 0-10.737 3.023c-3.476 1.625-6.549 3.759-9.195 6.403a32.7 32.7 0 0 0-6.525 9.071c-1.697 3.438-2.764 7.019-3.203 10.73-.071.83-.143 1.553-.237 2.194v1.304c.036.083.083.154.119.237v4.446c0 .083.024.154.059.237v66.814a.6.6 0 0 0-.059.178v33.199c-.036.083-.083.154-.119.237v2.194c1.637-.154 3.037-.154 4.212 0 3.002.391 5.339 1.743 7 4.031.83 1.221 1.329 2.609 1.483 4.15.154 1.66-.095 3.106-.771 4.328-.202.32-.629.913-1.305 1.778-.51.712-.866 1.34-1.068 1.897-.51 1.34-.439 2.929.237 4.743.237.629.593 1.364 1.068 2.194.51.913.914 1.6 1.186 2.075 1.697 3.284 2.575 6.853 2.61 10.73 0 4.067-.925 7.588-2.788 10.553-.356.557-.866 1.363-1.542 2.43q-.89 1.423-1.068 2.668c-.237 1.269-.083 2.573.475 3.913.51 1.221 1.281 2.312 2.313 3.261.712.628 1.72 1.387 3.026 2.252 1.507 1.032 2.527 1.755 3.085 2.194 1.72 1.446 3.109 3.249 4.153 5.395.368-.641.7-1.269 1.008-1.897 3.797-7.387 6.431-16.149 7.89-26.263.154-1.02.285-2.087.415-3.202.593-5.027.985-10.991 1.186-17.904.083-2.122.142-4.339.178-6.639.036-.676.119-1.186.237-1.542V424.04a.6.6 0 0 1-.059-.237v-67.881c0-.083.024-.154.059-.237v-3.32c0-.083.024-.154.059-.237v-1.304a.6.6 0 0 0 .059-.238v-.474a.6.6 0 0 1-.059-.237c-.154-.747-.154-1.921 0-3.498zm181.348 61.3a.8.8 0 0 0 .178.237c.119.083.214.154.297.237.202.036.38.083.534.119.059 0 .095-.036.118-.06.072.024.131.048.178.06h1.424a.5.5 0 0 0 .237-.06q2.635.249 5.695.534c-.355-19.493-.557-36.235-.593-50.214q0-6.403-.178-9.604c-.154-3.118-.534-5.608-1.127-7.47-.83-2.691-2.314-5.015-4.449-6.995q-3.204-2.97-7.297-3.735c-2.764-.475-5.481-.06-8.127 1.245-2.693 1.304-4.627 3.201-5.813 5.691-.629 1.34-1.068 2.94-1.306 4.802-.118 1.103-.201 2.81-.237 5.098l-.474 56.736c.213.794.189 1.683-.06 2.667 2.231.083 4.426.166 6.585.237 0 0 .036.048.059.06.155.035.333.083.534.118.119 0 .238-.023.356-.059.036-.035.095-.059.178-.059l.178-.178a.2.2 0 0 0 .059-.119c.143.048.273.095.416.119.118 0 .237-.024.356-.059l.237-.119a2 2 0 0 1 .297-.237c0-.083.023-.154.059-.237a.8.8 0 0 1 .178-.237v-.178c0-.083.024-.154.059-.237v-52.763c0-.083.024-.155.06-.238a.8.8 0 0 1 .178-.237v-.178c0-.083.023-.154.059-.237v-.237c0-.083.024-.154.059-.237a.6.6 0 0 0 .059-.237.6.6 0 0 0 .119-.178c0-.083.024-.154.059-.237v-.237c0-.083.024-.154.06-.237.035-.036.059-.095.059-.178.036-.083.083-.154.119-.237l.118-.237a.6.6 0 0 0 .06-.238.33.33 0 0 0 .178-.177.6.6 0 0 1 .059-.238.8.8 0 0 1 .178-.237c.036-.083.083-.154.119-.237a.8.8 0 0 0 .237-.178c0-.083.024-.154.059-.237a.8.8 0 0 1 .178-.237c.036-.083.083-.154.119-.237a.8.8 0 0 0 .237-.178 2 2 0 0 1 .297-.237c.118-.083.237-.154.356-.237l.237-.237a.7.7 0 0 1 .296-.178c.084-.083.178-.154.297-.237.154-.083.297-.155.415-.238.119-.047.214-.106.297-.177a10.3 10.3 0 0 1 2.195-.119l.356.178c.154.035.332.083.534.118.083.036.154.06.237.06a.7.7 0 0 0 .297.178c.118.083.261.154.415.237.154.035.32.095.474.178.084.083.178.154.297.237.036.083.083.154.119.237a.6.6 0 0 1 .059.237l.178.178.237.237c.036.083.083.154.119.237a.6.6 0 0 1 .059.237l.178.178c.036.083.083.154.119.237l.119.237a.6.6 0 0 0 .059.238c0 .083.024.142.059.177.036.083.06.155.06.238v.237a.8.8 0 0 1 .178.237c0 .083.023.142.059.178v.889a.6.6 0 0 1 .059.237l.119.237c0 .083.024.154.059.237 0 .083.024.154.059.237v54.661c.036.083.06.154.06.237v.237s.083.095.118.178m-47.339-194.394c-.676-.391-1.281-.474-1.839-.237q-.712.231-1.246 1.067c-.711 1.15-.771 2.253-.178 3.32.19.356.451.629.772.83-.155.676-.238 1.21-.238 1.601 0 .439.083.806.238 1.126.154.273.439.51.83.712.712.32 1.282.332 1.72.059.273-.202.499-.652.653-1.364-.154-.272-.237-.889-.237-1.837a.54.54 0 0 0-.06-.238c.238-.154.475-.355.712-.592.356-.356.57-.629.653-.83.237-.593.083-1.328-.475-2.194-.356-.628-.795-1.103-1.305-1.423m-4.508-38.416c.795-.154 1.542-.534 2.254-1.126.795-.629 1.447-1.423 1.958-2.372.32-.628.474-1.15.474-1.541.036-.51-.035-1.127-.237-1.838l-.237-.83-1.484-2.193c-.593-.747-1.21-1.269-1.838-1.542q-.766-.356-2.492-.356c-1.068 0-1.898.143-2.492.415-.984.475-1.756 1.388-2.313 2.728-.237.747-.38 1.268-.415 1.541v1.66c0 .865.023 1.387.059 1.541l.83 1.779c.594 1.102 1.602 1.802 3.026 2.075.356.083.913.118 1.661.118.558 0 .973-.023 1.246-.059M42.024 194.016c.475-.913 1.044-1.541 1.72-1.897.558-.272 1.448-.415 2.669-.415.795 0 1.365.06 1.721.178.439.202 1.186.771 2.254 1.719.831.83 1.863 1.72 3.085 2.668.225.178.427.332.593.474v-1.956c0-1.15-.036-2.253-.059-3.32-.392-.024-.819-.201-1.305-.533-.558-.356-1.281-.985-2.195-1.898-.949-.912-1.697-1.541-2.254-1.897-1.815-1.15-3.737-1.458-5.754-.948-2.052.51-3.619 1.695-4.686 3.557-.629 1.15-1.044 2.585-1.246 4.328-.273 2.288-.178 4.185.297 5.691q.712 2.49 3.025 4.802c3.286 3.439 7.534 5.513 12.754 6.225.629.083 1.104.178 1.424.296.071.036.13.071.178.119l-.059-4.684q-.285.125-.712.178c-.676.036-1.72-.142-3.144-.533-2.1-.558-3.536-1.269-4.331-2.135a5 5 0 0 1-.356-.355 7 7 0 0 1-.712-.356c-.439-.273-.747-.569-.949-.889l-.119-.297c-.154-.095-.308-.189-.475-.296l-.593-.771-.831-1.541c-.593-1.269-.736-2.573-.415-3.913.036-.474.202-1.008.475-1.601m86.967 210.163c.534-.023 1.079-.047 1.661-.059l.059-.356v-.059c-.285-.296-.463-.782-.534-1.482v-.593l-.474-57.506c-.036-2.288-.119-3.995-.238-5.098-.237-1.862-.676-3.462-1.305-4.802-1.186-2.49-3.12-4.387-5.813-5.691-2.646-1.305-5.363-1.72-8.128-1.245q-4.093.764-7.296 3.735c-2.136 1.98-3.619 4.304-4.449 6.995-.594 1.862-.973 4.352-1.127 7.47q-.178 3.202-.178 9.604c-.036 14.11-.238 31.029-.594 50.747 0 .202-.023.38-.059.534a.7.7 0 0 1-.059.296c2.159-.213 4.212-.426 6.169-.652.012-.023.012-.071 0-.118v-.119l.178.119c.154.035.332.083.534.118.119 0 .237-.023.356-.059a.2.2 0 0 1 .119-.059.8.8 0 0 1 .237-.178.8.8 0 0 1 .178-.237.6.6 0 0 0 .119-.178.6.6 0 0 0 .059-.237v-.237c.035-.083.083-.155.119-.238v-53.948c0-.083.023-.143.059-.178a.6.6 0 0 0 .059-.237.6.6 0 0 0 .059-.237c.036-.083.084-.155.119-.238v-1.304l.119-.237a.6.6 0 0 0 .059-.237v-.178c.036-.083.083-.154.119-.237v-.474a.6.6 0 0 1 .118-.178.6.6 0 0 0 .06-.237v-.237c.035-.083.083-.155.118-.238.036-.083.083-.154.119-.237.036-.035.059-.095.059-.178a.8.8 0 0 0 .178-.237c.036-.083.083-.154.119-.237.119-.083.213-.154.297-.237a.6.6 0 0 0 .118-.178l.119-.237c.119-.083.237-.154.356-.237.118-.083.213-.154.296-.237a.8.8 0 0 0 .238-.178c.118-.083.213-.154.296-.237.202-.083.38-.154.534-.237.202-.036.392-.083.593-.119a.6.6 0 0 1 .178-.119.6.6 0 0 1 .178-.118c.202-.083.38-.154.534-.237.238-.083.451-.154.653-.237.261-.036.498-.072.712-.119h.059c1.803.142 3.405.842 4.805 2.075.202.19.404.379.593.593.036.083.06.154.06.237l.178.178a.6.6 0 0 1 .059.237.6.6 0 0 1 .059.237.77.77 0 0 1 .238.415v.237a.6.6 0 0 1 .059.237.8.8 0 0 1 .178.237v.415a.6.6 0 0 1 .059.238v.237a.8.8 0 0 0 .178.237v54.897c0 .083.024.154.06.237v.178a.6.6 0 0 1 .059.237l.237.237c.083.083.178.155.297.238.154.035.332.083.534.118.118 0 .237-.024.356-.059.059-.036.118-.071.177-.119v.178c2.124-.154 4.046-.273 5.755-.356M25.295 249.21a9.9 9.9 0 0 0-.178 2.905c0 2.051.593 3.403 1.78 4.031.356.202.925.332 1.72.415 2.017.083 3.441-.498 4.271-1.719.356-.51.593-1.186.712-2.016.083-.509.154-1.268.237-2.252 0-.214.024-.415.059-.593a22 22 0 0 0-.949-.059c-3.381-.155-5.932-.427-7.652-.83zm23.67 6.521c.475.392 1.127.676 1.958.83.949.083 1.815-.094 2.61-.533q.302-.125.89-.356c.024 0 .036-.024.059-.059v-1.245c.083-.32.178-.617.297-.889l-.059-3.854c-.261.119-.581.19-.949.237-1.803.214-3.761.344-5.873.415.012.19.012.38 0 .593 0 1.067.083 2.051.237 2.964.237.913.51 1.542.83 1.897m4.034-8.714c.736-.072 1.317-.048 1.72.059l-.356-29.82c-1.151 1.458-2.563 2.739-4.212 3.853a21 21 0 0 1-9.373 3.439q-1.727.178-4.805.178c-2.29 0-3.915.035-4.864.118-3.915.273-6.858 1.388-8.839 3.32q-2.972 2.9-3.381 8.181c-.202 2.692.237 4.826 1.305 6.403 1.032 1.423 2.492 2.431 4.39 3.024 1.032.355 2.824.652 5.398.889 8.779.747 16.456.865 23.017.356m-14.297 9.248c.154.095.309.178.475.237h2.669a3.5 3.5 0 0 0 1.483-.889c1.186-1.186 1.744-2.727 1.661-4.624a11 11 0 0 0-.059-.652h-1.542c-1.495-.024-3.714-.107-6.644-.238a4.2 4.2 0 0 1 0 .949c-.155 2.608.498 4.351 1.957 5.217" class="st2"/><path d="M197.686 227.927v-1.541l.119-.238v-.177c0-.083.023-.154.059-.237 0-.083.024-.155.059-.238a.6.6 0 0 1 .119-.177c.036-.475.392-.795 1.068-.949.356-.083.89 0 1.601.237.238.083 2.231.889 5.992 2.431q3.613 1.547 6.229 1.6a10.3 10.3 0 0 0 4.153-.592 13.3 13.3 0 0 0 3.559-2.016c2.254-1.624 3.856-3.652 4.805-6.106 1.032-2.692 1.068-5.253.118-7.707-.51-1.423-1.423-2.81-2.728-4.15-.831-.949-2.077-2.099-3.738-3.439l-5.813-4.802c-.831-.676-1.21-1.28-1.127-1.838v-.177c-.083-.558.296-1.162 1.127-1.838l5.813-4.802c1.661-1.34 2.907-2.49 3.738-3.439 1.305-1.34 2.218-2.727 2.728-4.15.95-2.454.914-5.015-.118-7.707-.949-2.454-2.551-4.482-4.805-6.106a13.3 13.3 0 0 0-3.559-2.016 10.3 10.3 0 0 0-4.153-.592q-2.616.053-6.229 1.6c-3.761 1.542-5.754 2.348-5.992 2.431-.711.237-1.245.32-1.601.237-.676-.154-1.032-.474-1.068-.949a.6.6 0 0 1-.119-.177.6.6 0 0 1-.059-.238.6.6 0 0 1-.059-.237v-.177c-.036-.083-.083-.155-.119-.238v-1.541c-.036 0-.059.024-.059.059a25.5 25.5 0 0 1-.238-3.616c0-1.032.024-2.573.06-4.624-.083-4.624-.748-9.035-2.017-13.221a33.4 33.4 0 0 0-2.017-5.039c-1.982-3.83-4.924-6.877-8.839-9.13-3.88-2.288-7.973-3.379-12.28-3.26-1.068 0-1.78-.083-2.136-.237-.355.154-1.067.237-2.135.237-4.307-.119-8.4.972-12.28 3.26-3.915 2.253-6.857 5.3-8.839 9.13a33.4 33.4 0 0 0-2.017 5.039c-1.269 4.186-1.934 8.597-2.017 13.221.036 2.051.06 3.592.06 4.624 0 1.34-.084 2.549-.238 3.616 0-.035-.059-.059-.059-.059v1.541c-.036.083-.083.155-.119.238v.177a.6.6 0 0 1-.059.237.6.6 0 0 1-.059.238.6.6 0 0 1-.119.177c-.036.475-.392.795-1.068.949-.356.083-.89 0-1.602-.237-.237-.083-2.23-.889-5.991-2.431q-3.613-1.547-6.229-1.6a10.3 10.3 0 0 0-4.153.592 13.3 13.3 0 0 0-3.559 2.016c-2.254 1.624-3.856 3.652-4.805 6.106-1.032 2.692-1.068 5.253-.119 7.707.511 1.423 1.424 2.81 2.729 4.15.831.949 2.077 2.099 3.738 3.439l5.813 4.802c.831.676 1.21 1.28 1.127 1.838v.177c.083.558-.296 1.162-1.127 1.838l-5.813 4.802c-1.661 1.34-2.907 2.49-3.738 3.439-1.305 1.34-2.218 2.727-2.729 4.15-.949 2.454-.913 5.015.119 7.707.949 2.454 2.551 4.482 4.805 6.106a13.3 13.3 0 0 0 3.559 2.016c1.306.474 2.694.675 4.153.592q2.616-.053 6.229-1.6c3.761-1.542 5.754-2.348 5.991-2.431.712-.237 1.246-.32 1.602-.237.676.154 1.032.474 1.068.949a.6.6 0 0 1 .119.177.6.6 0 0 1 .059.238.6.6 0 0 1 .059.237v.177l.119.238v1.541c.036 0 .059-.024.059-.059.154 1.067.238 2.276.238 3.616 0 1.032-.024 2.573-.06 4.624.083 4.624.748 9.035 2.017 13.221a33.4 33.4 0 0 0 2.017 5.039c1.982 3.83 4.924 6.877 8.839 9.13 3.88 2.288 7.973 3.379 12.28 3.26 1.068 0 1.78.083 2.135.237.356-.154 1.068-.237 2.136-.237 4.307.119 8.4-.972 12.28-3.26 3.915-2.253 6.857-5.3 8.839-9.13a33.4 33.4 0 0 0 2.017-5.039c1.269-4.186 1.934-8.597 2.017-13.221-.036-2.051-.06-3.592-.06-4.624 0-1.34.084-2.549.238-3.616 0 .035.059.059.059.059m11.627-52.229a5 5 0 0 1 1.839-.771c1.068-.154 2.456.32 4.153 1.423.985.711 1.685 1.422 2.076 2.134.237.593.392 1.34.475 2.253q.124 2.365-.712 3.557c-.475.676-1.246 1.185-2.314 1.541-1.981.676-3.773.569-5.398-.296a5 5 0 0 1-2.017-2.016 5.5 5.5 0 0 1-.771-2.846q0-3.077 2.669-4.979m-1.898 36.578a5 5 0 0 1 2.017-2.016c1.625-.865 3.417-.972 5.398-.296 1.068.356 1.839.865 2.314 1.541q.836 1.192.712 3.557c-.083.913-.238 1.66-.475 2.253-.391.712-1.091 1.423-2.076 2.134-1.697 1.103-3.085 1.577-4.153 1.423a5 5 0 0 1-1.839-.77q-2.669-1.904-2.669-4.98c0-1.032.261-1.98.771-2.846m-76.407 7.826a5 5 0 0 1-1.839.77c-1.068.154-2.456-.32-4.153-1.423-.985-.711-1.685-1.422-2.076-2.134-.237-.593-.392-1.34-.475-2.253q-.124-2.365.712-3.557c.475-.676 1.246-1.185 2.314-1.541 1.981-.676 3.773-.569 5.398.296a5 5 0 0 1 2.017 2.016 5.5 5.5 0 0 1 .771 2.846q0 3.077-2.669 4.98m1.898-36.579a5 5 0 0 1-2.017 2.016c-1.625.865-3.417.972-5.398.296-1.068-.356-1.839-.865-2.314-1.541q-.836-1.192-.712-3.557c.083-.913.238-1.66.475-2.253.391-.712 1.091-1.423 2.076-2.134 1.697-1.103 3.085-1.577 4.153-1.423a5 5 0 0 1 1.839.771q2.669 1.902 2.669 4.979a5.5 5.5 0 0 1-.771 2.846m54.695-19.327v3.142c0 .083.024.155.06.238v14.643a.6.6 0 0 1 .059.237v51.459c0 .083-.059.178-.059.178v3.142a.6.6 0 0 0-.06.237v.296c.024.143.048.285.06.415.118 2.81-.261 5.431-1.127 7.885-1.46 4.186-3.88 7.15-7.238 8.893q-4.859 2.49-12.813 1.067c-2.884-.51-5.102-1.281-6.645-2.312-1.103-.747-2.218-1.814-3.322-3.202q-1.78-1.956-2.669-3.912c-.51-1.186-.926-2.87-1.246-5.04-.415-2.94-.463-5.347-.119-7.232v-.593c-.035-.083-.083-.154-.118-.237v-.652a.6.6 0 0 0-.06-.237v-2.668c-.035-.036-.059-.095-.059-.178v-57.269c0-.035.024-.095.059-.178v-6.462a.6.6 0 0 0 .06-.237v-2.015c.035-.083.083-.155.118-.238v-.889c0-.035.024-.095.06-.178 0-.083.023-.154.059-.237s.059-.154.059-.237c.036-.083.083-.154.119-.237 0-.036.024-.095.059-.178 0-.083.024-.154.06-.237.023-1.743.107-3.699.237-5.869.237-2.253.558-3.878.949-4.862.356-1.031.914-2.015 1.661-2.964a14.7 14.7 0 0 1 2.254-2.43c2.255-1.933 5.007-3.237 8.246-3.913 2.931-.593 6.016-.617 9.255-.06 1.862.356 3.298.866 4.33 1.542.748.474 1.72 1.423 2.907 2.845 1.934 2.336 3.18 4.305 3.737 5.929.237.557.475 1.423.712 2.608.629 3.356.795 6.285.475 8.775q-.036.568-.178.889v.356a.6.6 0 0 1 .118.177m80.323 119.162c.368-.154.842-.249 1.423-.297.712-.083 1.246-.094 1.602-.059l2.314.059v-28.1c.035-.154.083-.32.118-.475a311 311 0 0 1-.237-8.774 104 104 0 0 0-5.695-5.513v2.075s.024.095.06.178v28.99l.177.533c.119.392.155.973.119 1.72-.035.794-.024 1.363.059 1.719l.178.771.06.948-.06 4.98c0 .534-.035.948-.118 1.245m24.856-4.743c.023.059.035.119.059.178v.474c-.035.083-.083.154-.118.237v2.016c0 .083-.024.142-.06.178v17.607c.036.083.06.155.06.238v.592c.201.095.332.155.415.178.237.036.652.06 1.245.06.285 0 .641-.036 1.068-.119v-1.008c0-.083.024-.154.06-.237v-17.133a.6.6 0 0 1-.06-.237v-2.016s-.083-.095-.118-.178v-.711s-.024-.095-.06-.178v-.237a.6.6 0 0 1-.059-.237v-.238s-.083-.094-.119-.177v-.238c-.035-.083-.083-.154-.118-.237a.6.6 0 0 1-.06-.237.7.7 0 0 1-.296-.178c-1.151-5.62-3.844-11.762-8.068-18.437a103 103 0 0 0-8.839-11.857l-1.602-1.778a21 21 0 0 0-.119 1.956c0 .676.036 1.446.119 2.312q1.086 1.316 2.136 2.668a91 91 0 0 1 2.373 3.142c.486.676.961 1.34 1.423 2.016v.237c0 .083-.023.142-.059.178v1.363a.6.6 0 0 0-.059.237v2.431c-.036.083-.083.154-.119.237v5.336a.6.6 0 0 1-.059.237v16.184c.498.202.973.404 1.424.593.355.131.771.202 1.245.237v-16.955a.6.6 0 0 0-.059-.237v-5.336a.6.6 0 0 1-.059-.237v-1.008a85 85 0 0 1 8.483 18.319m-41.941 244.904q3.915-5.639 4.983-7.47c1.269-2.051 2.669-4.897 4.212-8.537 3.915-9.284 5.896-17.465 5.932-24.544q.054-8.768-3.737-18.674c-1.899-5.016-4.805-10.814-8.721-17.37-.273-.498-.474-.937-.593-1.305-3.227-.367-6.015-.687-8.364-.948-10.999-1.222-20.585-2.052-28.772-2.49-.474-.024-.973-.071-1.483-.119 8.032 11.181 12.588 21.663 13.644 31.421 1.222 11.703-1.981 24.01-9.61 36.934-1.981 3.284-3.796 5.905-5.457 7.885-1.27 1.541-3.477 3.889-6.644 7.055-2.967 2.928-5.138 5.3-6.526 7.114-1.863 2.442-3.215 4.956-4.117 7.529h48.205c.333-3.118 1.116-6.083 2.421-8.893.949-2.051 2.491-4.588 4.627-7.588m83.644-35.156q-2.135 2.615-2.491 5.869c-.083.913-.083 2.016 0 3.32.119 1.459.202 2.55.237 3.261q.356 4.038-1.068 6.403c-.593.984-1.459 1.861-2.61 2.608a8.96 8.96 0 0 1-4.983 1.601c-1.898.083-3.524-.415-4.864-1.482-.914-.712-1.744-1.743-2.492-3.083-1.424-2.371-2.408-4.956-2.966-7.766a23.6 23.6 0 0 1-.297-8.3c.748-5.691 3.168-10.612 7.238-14.762q2.723-2.721 5.339-3.735c3.12-1.268 6.193-1.102 9.195.474.101.049.182.108.279.159v-46.117c-1.718-.023-3.434-.046-5.156-.046-.866.083-1.542.154-2.017.237-.51.083-.866.095-1.067.059-1.27.51-2.017.807-2.255.89-1.222.592-2.218 1.268-2.966 2.015-.593.593-1.162 1.399-1.72 2.431-.475.794-.795 1.565-.949 2.312-.119.628-.178 1.565-.178 2.786 0 2.253.379 4.032 1.127 5.336h.593c.119.154.237.296.356.415h.178c.119 0 .214.035.297.118.035.036.059.095.059.178.036.036.059.095.059.178l.238.237a.6.6 0 0 1-.06.237.8.8 0 0 1-.178.238.6.6 0 0 1-.059.177.6.6 0 0 1-.059.238v.652a.6.6 0 0 0-.06.237.8.8 0 0 0-.178.237v.356l-.296.237c-.51.628-.89 1.577-1.127 2.845l-.772 3.676.06 1.186c.035.355.071.711.118 1.067.107.071.214.142.297.237.154.154.297.32.415.474.143.083.285.19.416.297h-.89c.51 1.648 1.4 3.118 2.669 4.387.593.593.926.948 1.009 1.067.154.273.261.533.296.771a.78.78 0 0 1 .356.415c.356.711-.083 1.458-1.305 2.252a41.8 41.8 0 0 0-8.958 8.122 43 43 0 0 0-2.432 3.32 36.7 36.7 0 0 0-3.5 7.114c-1.424 3.878-2.112 7.826-2.076 11.857.036 4.186.854 8.122 2.432 11.798.51 1.269 1.282 2.786 2.314 4.565q2.367 4.215 2.491 4.446c3.121 5.727 4.295 10.695 3.5 14.88-.439 2.372-1.566 4.945-3.381 7.707-.202.332-.404.641-.617.949H335v-52.237c-.254.285-.432.49-.517.6M233.635 5.433c1.151 2.288 1.685 4.624 1.602 6.996-.083 2.608-.89 4.743-2.432 6.403-.914.984-2.231 1.873-3.975 2.668-2.017.83-3.523 1.482-4.508 1.956q-6.763 3.255-10.678 10.315c-2.338 4.185-3.654 8.976-3.975 14.347a314 314 0 0 1-.119 5.217c-.059 1.601-.177 2.988-.355 4.15a26 26 0 0 1 2.017 2.49 26 26 0 0 1 1.661 2.609c1.815 3.356 2.823 6.901 3.025 10.612q.125 2.544-.534 4.446c-.391 1.269-1.424 2.929-3.085 4.98-.379.451-.759.866-1.127 1.245a26 26 0 0 1 3.56 1.66q.462-.195 1.067-.356c3.275-.901 6.087-1.458 8.424-1.66-.201-.913-.296-2.158-.296-3.735l-.178-17.607c-.036-2.964.023-5.241.178-6.818.272-2.454.854-4.541 1.72-6.284q1.904-3.86 5.873-6.047c2.574-1.387 5.303-1.992 8.186-1.838 1.863.083 3.477.51 4.865 1.304a9.3 9.3 0 0 1 2.729 2.253c.628.747 1.21 1.624 1.72 2.609.154-.51.38-.972.652-1.364.202-.273.392-.534.594-.771.557-.593 1.21-1.15 1.957-1.66q2.492-1.547 6.229-1.779a9.5 9.5 0 0 1 3.975.237q3.435.836 6.051 3.913c1.661 1.98 2.764 4.245 3.322 6.818.474 1.98.629 4.766.474 8.359l-.534 24.425a51 51 0 0 1 6.822 2.668 11.9 11.9 0 0 1 2.314-5.929c.51-.676 1.341-1.719 2.492-3.142.866-1.221 1.269-2.395 1.186-3.498-.036-.83-.392-1.755-1.068-2.786a155 155 0 0 1-1.78-2.609c-.676-1.304-.949-2.727-.83-4.268.083-1.541.558-2.929 1.424-4.15.925-1.245 2.135-2.217 3.618-2.905.392-.474.807-.925 1.246-1.364a55 55 0 0 1-.356-4.209c-.035-1.15-.083-2.881-.118-5.217-.321-5.371-1.638-10.161-3.975-14.347q-3.916-7.061-10.678-10.315c-.985-.474-2.492-1.126-4.508-1.956-1.745-.794-3.062-1.684-3.975-2.668-1.543-1.66-2.349-3.794-2.432-6.403-.083-2.371.45-4.707 1.601-6.996.083-.154.594-1.091 1.543-2.786.564-1.032.986-1.903 1.265-2.646h-9.546c-.055.28-.118.567-.202.868l-.534 1.541a5.85 5.85 0 0 1-1.78 2.312q-1.068.836-2.136 1.067c-.355.083-.925.119-1.72.119-1.305 0-2.278-.083-2.907-.237s-1.281-.474-1.957-.949a7.8 7.8 0 0 1-1.365-1.067c-.971-1.064-1.492-2.288-1.567-3.654h-10.969c.28.743.701 1.615 1.265 2.646a249 249 0 0 1 1.542 2.787m8.187 19.326c.202-1.933 1.044-3.498 2.551-4.683.237-.201.735-.534 1.483-1.008.439-.273.735-.439.89-.474.201-.035.51-.083.949-.118.32-.083.629-.142.949-.178.593-.083 1.127-.059 1.602.059.201 0 .474.059.83.178.237.083.57.154 1.009.237.356.083.628.202.83.356.036.036.178.261.415.652.273.237.558.51.831.83 1.186 1.34 1.839 2.514 1.958 3.498.035.747-.083 1.624-.356 2.609l-.534 1.541a5.85 5.85 0 0 1-1.78 2.312q-1.068.836-2.136 1.067c-.355.083-.925.119-1.72.119-1.305 0-2.278-.083-2.907-.237s-1.281-.474-1.957-.948a7.8 7.8 0 0 1-1.365-1.067c-1.222-1.342-1.744-2.93-1.542-4.745M156.16 523.578c1.816-1.66 4.604-4.126 8.365-7.41 6.169-5.775 10.939-12.414 14.297-19.92 3.476-7.908 4.983-15.853 4.508-23.832-.558-9.877-4.153-19.955-10.797-30.235a7 7 0 0 1-.356-.712c-12.386.024-21.047.095-25.983.237a767 767 0 0 0-15.661.593c3.915 5.253 6.787 10.091 8.602 14.525 2.491 6.047 3.417 11.833 2.788 17.37-.356 2.929-1.341 6.664-2.966 11.205-1.341 3.996-2.693 7.268-4.034 9.841-2.136 4.115-5.28 8.3-9.432 12.569-1.982 2.015-5.897 5.596-11.746 10.73l-3.915 3.676c-4.675 4.837-8.044 10.766-10.121 17.785h45.714c.688-2.917 1.792-5.656 3.381-8.181 1.626-2.573 4.07-5.312 7.356-8.241m97.23-269.625v4.031c.023.249.023.522 0 .83v1.838a.6.6 0 0 0-.06.237v.178a.7.7 0 0 1-.118.178c-.024.569-.048 1.043-.06 1.423-.118 1.506-.035 2.762.238 3.794 4.912.083 8.768.332 11.568.771v-24.781a.6.6 0 0 1 .118-.178v-2.253c0-.083.024-.154.06-.237v-.889c0-.083.023-.154.059-.237v-.356a121 121 0 0 0-3.322-2.549c-3.085-2.277-5.932-3.925-8.543-4.921v.415c0 .083.024.154.06.237v2.016a.6.6 0 0 1 .059.237v20.038s-.024.095-.059.178M47.838 532.174c0-.948.036-1.636.119-2.074l.237-1.186q.48-1.245 1.068-2.312a7.4 7.4 0 0 1 1.068-1.305c1.21-1.09 2.586-1.588 4.152-1.482v-5.928h-9.195c-1.542-.036-3.108-.083-4.686-.119h-.89v7.055a.6.6 0 0 1 .059.237v6.522c.036.083.083.154.119.237V540h8.008a197 197 0 0 1-.059-7.826m203.179-298.911v-1.779a.6.6 0 0 0 .059-.237v-.889a.6.6 0 0 0 .059-.237 17 17 0 0 0-1.483-.297c-2.372-.356-4.65-.118-6.822.712-2.337.83-4.069 2.169-5.22 4.031-.747 1.221-1.269 2.703-1.542 4.446-.202 1.103-.333 2.692-.416 4.743l-.296 9.9a6 6 0 0 1-.119.83c1.246-.059 2.764.036 4.568.297l11.034 1.186h.178v-1.779a.6.6 0 0 1-.06-.237V233.5c0-.083.024-.154.06-.237M24.702 537.688c.831-.83 2.041-1.387 3.619-1.66.534-.142.997-.178 1.365-.119v-13.694h-.012c-.308.178-.605.201-.89.059-.273-.083-.534-.32-.771-.711a7.4 7.4 0 0 0-.593-.949c-.712-1.067-1.934-1.399-3.678-1.008-.439.083-1.092.273-1.958.593s-1.518.51-1.957.593c-1.388.237-2.753-.024-4.093-.771-1.305-.747-2.195-1.778-2.669-3.083-.32-.83-.51-2.454-.593-4.861-.083-2.099-.475-3.616-1.186-4.565-.558-.794-1.329-1.363-2.314-1.719s-1.981-.439-2.966-.237c-1.981.438-3.464 1.636-4.449 3.616-.475 1.032-.854 2.869-1.127 5.514a24 24 0 0 1-.427 2.588V540h.688c-.119-1.138-.107-2.692.035-4.743.083-.984.178-1.719.297-2.193.273-1.506.973-2.87 2.076-4.091q.943-.942 1.78-1.245c.154-.035.712-.118 1.661-.237 1.424 0 2.432.154 3.025.474.439.202.866.51 1.305.949s.795.913 1.068 1.423c.51.865.771 2.371.771 4.505L12.672 540h10.749c.083-.237.166-.474.273-.711a6.1 6.1 0 0 1 1.008-1.601m-16.195-22.35c-.439.628-.949 1.008-1.542 1.126-.795.154-1.364-.059-1.72-.652-.119-.154-.214-.451-.297-.889 0-.593.024-.949.059-1.067.036-.273.178-.617.415-1.008.51-.747 1.103-1.067 1.78-.949.439.083.771.261 1.008.534.32.237.534.51.653.83.273.676.154 1.363-.356 2.075m14.415 16.244c-.237.118-.629.177-1.186.177l-1.305-.177c-.392-.119-.676-.297-.831-.534l-.237-.652c-.083-.794.119-1.482.593-2.075.558-.628 1.21-.913 1.958-.83.392.083.676.178.831.296.083.083.273.321.593.712.237.557.356 1.126.356 1.719-.083.628-.332 1.091-.772 1.364" class="st2"/><path d="M36.863 531.463v-6.581s.024-.094.059-.177v-8.182a.6.6 0 0 0 .059-.178c.036-.083.083-.154.119-.237v-.059a29 29 0 0 1 1.958-.771c.036-.035.095-.059.178-.059h.059v-.059c.237-.083.498-.154.771-.237l.475.118h2.254l-.119.119h2.61v-.059h9.195v-3.973a3 3 0 0 1-.059-.415l-.356-4.09c.036-.593.178-1.459.415-2.609v-55.608a6 6 0 0 1-.119-.712c-.071-.83-.036-1.849.119-3.083v-110.98c-3.797.391-6.525 1.956-8.186 4.684-.32.592-.617 1.268-.89 2.015-.831 2.217-1.459 5.134-1.898 8.774 0 .154-.024.297-.059.415v1.186c0 .083.024.154.059.237v1.364a.6.6 0 0 1 .059.178v3.379c.036.083.083.154.119.237v66.339a.6.6 0 0 1-.119.178l.119.237v.889c-.036.083-.083.154-.119.237v26.856h-.059s-.059.024-.059.06c-.036 1.743-.083 3.497-.119 5.276-.154 4.185-.32 7.316-.475 9.367a99 99 0 0 1-.652 5.691 98.5 98.5 0 0 1-4.508 18.26 94.4 94.4 0 0 1-6.229 13.932 19.1 19.1 0 0 1 .593 8.062v10.138l.119.237V540h4.568v-8.359s.083-.095.118-.178m22.602-384.756.415-.415a1.2 1.2 0 0 0-.178-.415c.202-.391.356-.794.475-1.185.119-.51.261-.913.415-1.186.202-.391.38-.676.534-.83.059-.047.119-.083.178-.118.059-.285.119-.593.178-.949.356-1.577 1.091-3.415 2.195-5.513a651 651 0 0 1 2.848-5.277c.391-.747.973-1.861 1.72-3.32.676-1.185 1.922-2.881 3.737-5.098 1.815-2.17 3.061-3.877 3.737-5.099v-.059c-.154-.284-.214-.664-.178-1.126 0-.356.059-.866.178-1.542.119-1.268-.261-2.454-1.127-3.557-.795-1.15-1.815-1.897-3.085-2.253-2.29-.794-4.805-.533-7.534.771-1.341.629-2.29.735-2.848.297-.154-.119-.332-.38-.534-.771a6 6 0 0 1-.415-1.245v-.059a10 10 0 0 1 .356-1.008c-.32-.154-.676-.474-1.068-.949a8 8 0 0 0-3.144-2.193c-1.269-.51-2.527-.688-3.797-.534-1.305.237-2.492.795-3.559 1.66-1.068.866-1.756 1.874-2.076 3.024v.059c-.119.51-.261.925-.415 1.245-.202.391-.38.652-.534.771-.558.438-1.507.332-2.847-.297-2.729-1.304-5.244-1.565-7.534-.771-1.27.356-2.29 1.103-3.085 2.253-.866 1.103-1.246 2.289-1.127 3.557.119.676.178 1.186.178 1.542.036.593-.083 1.043-.356 1.363a4 4 0 0 1-.356.297c-.32.118-.748.154-1.305.118-.356-.035-.949-.178-1.78-.415-1.222-.237-2.432.095-3.619 1.008q-1.3.889-2.492 2.846c-.558.913-.925 1.755-1.127 2.549-.273 1.577.083 3.106 1.068 4.565.949 1.387 2.171 2.336 3.678 2.846q.534.053 1.424.533c.676.202 1.4.332 2.195.415h1.602q.943.303 1.246.889c.119.237.142.593.059 1.067-.154.51-.261.89-.297 1.127v.296c.083.237.095.498.059.771 0 .237-.024.51-.059.83v.059c0 .475-.035.866-.119 1.186 0 1.067.38 2.099 1.127 3.083.795 1.102 1.815 1.861 3.085 2.253 2.29.794 4.805.533 7.534-.771q2.011-.943 2.847-.356c.154.154.332.439.534.83.154.273.297.676.415 1.186.119.391.273.794.475 1.185q.534 1.121 1.602 1.957 1.602 1.298 3.559 1.601c1.27.201 2.527.023 3.797-.534a8 8 0 0 0 3.145-2.194m212.018 16.067c-.012-.048-.024-.107-.059-.178-.107-.226-.19-.558-.238-1.008-.035-.38-.071-.759-.118-1.127a97 97 0 0 0-.356-2.43q-3.613-16.007-12.458-30.235c-6.49-10.47-14.51-19.363-24.085-26.678-1.649-1.221-4.105-2.941-7.356-5.158-.296-.201-.605-.427-.949-.652-2.919-1.968-5.256-3.474-7-4.506-.261-.142-.522-.273-.771-.415a67 67 0 0 0-3.915-2.016c-.083-.024-.178-.071-.297-.118a61 61 0 0 0-3.025-1.304c-15.211-4.778-30.753-7.126-46.628-7.055-16.503.071-32.141 2.775-46.924 8.122a62 62 0 0 0-4.686 2.371c-1.78.984-4.366 2.632-7.771 4.921-3.714 2.526-6.49 4.47-8.306 5.81-9.575 7.315-17.595 16.208-24.085 26.678-5.885 9.497-10.061 19.564-12.517 30.175a271 271 0 0 1-.712 4.803c-1.898 11.655-2.586 27.531-2.076 47.605.51 20.382.558 35.084.119 44.107a1.8 1.8 0 0 1 .178.475v56.32a4 4 0 0 1-.356.059v5.929c.13-.024.249-.036.356-.06v95.448c.154-.035.309-.083.475-.118.154-.036.32-.072.475-.119 5.909-1.138 13.858-2.336 23.848-3.616 1.554-.178 3.156-.38 4.805-.593a3 3 0 0 1 0-.652l.415-77.426c0-3.118.083-5.537.237-7.232.237-2.644.712-4.98 1.424-6.996.985-2.846 2.729-5.715 5.22-8.596q5.748-6.35 14.06-9.071c5.659-1.861 11.153-2.075 16.492-.652 3.405.866 6.442 2.348 9.135 4.446 2.812 2.17 4.888 4.767 6.229 7.767.914 2.098 1.566 4.505 1.958 7.232.391 2.609.617 5.656.652 9.13l-.118 9.189c-.083 7.79.569 13.873 1.957 18.26.985 3.047 2.373 5.774 4.153 8.181q2.9 3.966 6.763 6.047c1.862.949 4.033 1.684 6.525 2.194q1.638.302 3.915.533c1.555-.154 2.883-.332 3.975-.533 2.491-.51 4.663-1.245 6.525-2.194q3.862-2.08 6.763-6.047c1.78-2.407 3.168-5.134 4.153-8.181 1.388-4.387 2.04-10.47 1.957-18.26l-.118-9.189c.035-3.474.261-6.521.652-9.13.392-2.727 1.044-5.134 1.958-7.232 1.34-3 3.417-5.597 6.229-7.767 2.693-2.098 5.73-3.58 9.135-4.446 5.339-1.423 10.832-1.209 16.492.652q8.311 2.721 14.059 9.071c2.492 2.881 4.236 5.75 5.221 8.596.711 2.016 1.186 4.352 1.423 6.996.155 1.695.238 4.114.238 7.232l.415 76.596c7.961.936 17.251 2.122 27.881 3.557h.238V301.499c-2.065-6.13-5.055-11.999-8.958-17.608-4.864-7.031-10.797-13.184-17.797-18.437-13.169-9.841-28.925-16.09-47.28-18.734h-.059c-.997 5.004-2.776 9.237-5.339 12.687-2.575 3.474-5.908 6.142-10.025 8.003-4.153 1.862-8.388 2.609-12.695 2.253a2.4 2.4 0 0 1-.712-.178 1.1 1.1 0 0 1-.594.06 3 3 0 0 1-.593.118c-4.307.356-8.542-.391-12.695-2.253-4.117-1.861-7.45-4.529-10.025-8.003q-4.574-6.171-5.873-15.651c-.392-2.81-.593-6.426-.593-10.849v-.415a.6.6 0 0 1-.06-.237v-.889c-.035-.083-.083-.155-.118-.238v-1.126a.6.6 0 0 0-.06-.178v-2.312L137 228.935c-4.069 1.861-7.391 2.822-9.966 2.905-3.002 0-5.671-.806-8.008-2.431-1.222-.83-2.611-2.11-4.153-3.853-.949-1.067-1.685-2.075-2.195-3.024-.795-1.506-1.281-3.343-1.483-5.513-.202-2.644.142-4.921 1.009-6.818.795-1.814 2.55-3.936 5.279-6.343 3.441-2.965 5.778-4.945 7-5.929h.06l-.06-.059c-1.222-.984-3.559-2.964-7-5.929-2.729-2.407-4.484-4.529-5.279-6.343-.867-1.897-1.211-4.174-1.009-6.818.202-2.17.688-4.007 1.483-5.513.51-.949 1.246-1.957 2.195-3.024 1.542-1.743 2.931-3.023 4.153-3.853 2.337-1.625 5.006-2.431 8.008-2.431 2.575.083 5.897 1.044 9.966 2.905l2.788 1.423v-2.312c.036-.083.06-.178.06-.178v-1.126c.035-.083.083-.155.118-.238v-.889c0-.083.024-.154.06-.237v-.415c0-4.423.201-8.039.593-10.849q1.3-9.48 5.873-15.651a4 4 0 0 1 .534-.652c2.491-3.166 5.659-5.608 9.491-7.351 3.002-1.34 6.051-2.099 9.136-2.253a27 27 0 0 1 2.432-.059l1.305-.238c.712-.154 1.246-.237 1.602-.237a7 7 0 0 1 1.839.356c.119.035.214.083.297.119.522.011 1.044.023 1.542.059 3.085.154 6.134.913 9.136 2.253 3.832 1.743 7 4.185 9.491 7.351.202.201.38.415.534.652q4.574 6.171 5.873 15.651c.392 2.81.593 6.426.593 10.849v.415c.036.083.06.154.06.237v.889c.035.083.083.155.118.238v1.126c0 .036.024.095.06.178v2.312l2.788-1.423c4.069-1.861 7.391-2.822 9.966-2.905 3.002 0 5.671.806 8.008 2.431 1.222.83 2.611 2.11 4.153 3.853.949 1.067 1.685 2.075 2.195 3.024.795 1.506 1.281 3.343 1.483 5.513.202 2.644-.143 4.921-1.009 6.818-.795 1.814-2.55 3.936-5.279 6.343-3.441 2.965-5.778 4.945-7 5.929l-.06.059h.06c1.222.984 3.559 2.964 7 5.929 2.729 2.407 4.484 4.529 5.279 6.343.866 1.897 1.211 4.174 1.009 6.818-.202 2.17-.688 4.007-1.483 5.513-.51.949-1.246 1.957-2.195 3.024-1.542 1.743-2.931 3.023-4.153 3.853-2.337 1.625-5.006 2.431-8.008 2.431-2.575-.083-5.897-1.044-9.966-2.905l-2.788-1.423v2.312c-.036.083-.06.178-.06.178v1.126c-.035.083-.083.155-.118.238v.889a.6.6 0 0 1-.06.237v.415c0 4.423-.201 8.039-.593 10.849a.24.24 0 0 1-.059.119c.237.023.474.035.712.059 11.817 1.707 22.613 4.956 32.39 9.722v-7.41c0-3.284.154-5.846.474-7.707.475-2.81 1.4-5.098 2.788-6.877 1.626-2.016 3.797-3.439 6.526-4.269a17 17 0 0 1 4.746-.711c-.724-.652-1.246-1.162-1.543-1.541-.237-.273-.629-.866-1.186-1.779-.866-1.577-1.448-3.047-1.721-4.387a9 9 0 0 1 .238-4.328c.439-1.458 1.162-2.703 2.195-3.735a17 17 0 0 1 1.898-1.541c.629-.391 1.127-.628 1.483-.711.475-.119 1.222-.178 2.254-.178 1.151 0 2.017.059 2.61.178q1.602.302 2.848 1.6a7 7 0 0 1 1.72 2.846c.51 1.814.415 3.533-.296 5.158a4.9 4.9 0 0 1-1.128 1.719c-.984.984-2.218 1.423-3.677 1.304-1.389-.201-2.528-.806-3.441-1.838q-.944-1.066-.89-2.134c.083-.391.273-.735.593-1.008q.534-.48 1.068-.355c.273.083.558.26.83.533.119.154.321.415.594.771.474.628 1.008.972 1.601 1.008.712.083 1.282-.273 1.721-1.067.356-.558.498-1.245.415-2.075q-.124-2.313-1.602-3.202c-.593-.32-1.578-.474-2.966-.474-.747 0-1.305.059-1.661.178-.51.154-1.044.474-1.601.948-.867.83-1.46 1.862-1.78 3.083-.356 1.221-.38 2.395-.06 3.498.119.557.392 1.209.831 1.956q1.12 2.188 2.492 3.38c.593.557 1.364 1.126 2.313 1.719.558.356 1.388.853 2.492 1.482.213.166.391.296.534.415 3.108 1.209 6.43 3.189 9.966 5.928a85 85 0 0 1 8.661 7.589c0-8.253.154-18.663.474-31.243.51-20.074-.179-35.95-2.077-47.605m-138.992-49.088q-.356 4.269-2.848 7.648c-1.067 1.423-2.871 3.142-5.398 5.157a328 328 0 0 0-6.288 4.684c-2.456 1.814-4.449 3.498-5.992 5.039-8.388 8.181-13.703 19.884-15.957 35.096q-1.121 8.128-1.246 19.564c.012 3.771.012 7.126 0 10.079a2.3 2.3 0 0 0-.237-.297l.119 5.81c0 7.019-.024 13.007-.059 17.963.083.083.166.154.237.237 0 3.913-.024 7.115-.059 9.604 0 2.052-.095 6.759-.297 14.11-.154 5.81-.202 10.517-.119 14.11.083 3.64.119 5.869.119 6.699 0 2.525-.142 4.743-.415 6.64-.747 5.098-2.575 9.094-5.458 11.975q-2.438 2.437-5.695 3.379c-2.29.712-4.473.712-6.525 0-1.78-.592-3.358-1.683-4.746-3.26-1.269-1.459-2.195-3.166-2.788-5.099-.629-2.051-.949-5.24-.949-9.544l-.119-46.539v-.059c-.036-7.825-.059-12.616-.059-14.347l.059-13.754v-.296c0-9.604.237-16.801.712-21.58.914-9.485 3.049-18.817 6.407-27.982a115.7 115.7 0 0 1 13.051-25.492q3.613-5.336 6.941-8.537c1.981-1.933 4.39-3.794 7.237-5.573 8.625-5.454 16.337-7.268 23.136-5.454 2.289.628 4.057 1.624 5.279 2.964 1.506 1.743 2.159 4.091 1.957 7.055m105.772 26.559q-3.56.766-6.585-1.067c-1.104-.628-2.338-1.695-3.678-3.201-1.353-1.494-2.326-2.549-2.907-3.142a2 2 0 0 0-.059-.178l-.238-.237a.8.8 0 0 0-.178-.237c-.035-.083-.083-.154-.118-.237l-.178-.178c-.036-.083-.083-.154-.119-.237l-.474-.475a.8.8 0 0 1-.238-.177.8.8 0 0 0-.178-.238l-.474-.474a.8.8 0 0 1-.238-.178.8.8 0 0 0-.177-.237l-.475-.474a.8.8 0 0 1-.237-.178.8.8 0 0 0-.178-.237l-.475-.474a.8.8 0 0 1-.237-.178c-.119-.083-.237-.154-.356-.237a2 2 0 0 0-.297-.238c-.118-.083-.237-.154-.356-.237a.7.7 0 0 1-.296-.178l-.238-.237a2 2 0 0 0-.296-.237 2 2 0 0 0-.297-.237.8.8 0 0 0-.237-.178c-.119-.083-.261-.154-.415-.237a2 2 0 0 1-.297-.237 2 2 0 0 1-.297-.237 2 2 0 0 0-.474-.178.8.8 0 0 1-.178-.237l-.475-.474a.8.8 0 0 0-.237-.178.8.8 0 0 1-.178-.237l-.119-.238c-.035-.083-.083-.154-.118-.237a.33.33 0 0 0-.178-.178.8.8 0 0 1-.178-.237l-.238-.237a2 2 0 0 1-.296-.237 2 2 0 0 0-.297-.178l-.237-.237a2 2 0 0 0-.297-.237 2 2 0 0 0-.296-.237.8.8 0 0 0-.178-.237.6.6 0 0 1-.119-.178.6.6 0 0 1-.059-.237l-.237-.238a.8.8 0 0 0-.178-.237l-.178-.178a.8.8 0 0 1-.178-.237c-.036-.083-.083-.154-.119-.237a.8.8 0 0 1-.178-.237.6.6 0 0 1-.119-.178.8.8 0 0 1-.178-.237.6.6 0 0 0-.059-.237.8.8 0 0 0-.178-.237.6.6 0 0 0-.059-.178c-.036-.083-.083-.154-.119-.237s-.083-.154-.118-.237c-.036-.083-.084-.154-.119-.237-.036-.036-.059-.095-.059-.178v-.237c-.036-.083-.084-.155-.119-.238v-.237a.6.6 0 0 0-.059-.178c-.036-.083-.083-.154-.119-.237v-.237c-.036-.083-.083-.154-.119-.237v-.178a.6.6 0 0 0-.059-.237c-.036-.083-.083-.154-.119-.237v-3.32c0-.083.024-.154.06-.237s.083-.154.118-.237v-.237a.6.6 0 0 0 .119-.178v-.712a.6.6 0 0 0 .119-.178.6.6 0 0 0 .059-.237v-.237c.035-.083.083-.154.119-.237a.6.6 0 0 0 .118-.178.6.6 0 0 0 .06-.237v-.237c.035-.083.083-.154.118-.237a.6.6 0 0 0 .119-.178.6.6 0 0 0 .059-.237l.237-.237a.8.8 0 0 1 .178-.238.6.6 0 0 0 .119-.177.6.6 0 0 0 .059-.238l.475-.474a.8.8 0 0 0 .237-.178.8.8 0 0 0 .178-.237l.237-.237c.119-.083.262-.154.416-.237a2 2 0 0 1 .474-.178 2 2 0 0 0 .297-.237c.119-.083.213-.154.296-.237.119-.083.262-.154.416-.237a.7.7 0 0 1 .296-.178c.119-.083.238-.154.356-.237.119-.083.238-.154.356-.237.119-.083.214-.155.297-.238.237-.083.498-.142.771-.177.202-.083.415-.143.653-.178.154-.036.332-.083.534-.119h4.271c.201.036.379.083.534.119.237.035.451.095.652.178.202.035.38.083.534.118.178.024.332.036.475.059a28 28 0 0 1 2.373 1.423c4.947 3.202 9.313 7.174 13.11 11.916 2.456 3.285 4.01 6.202 4.686 8.774q.659 2.49.356 4.98c-.237 1.779-.807 3.32-1.72 4.625-1.388 1.932-3.239 3.177-5.576 3.734m24.084 24.781c-.593 1.506-1.566 2.763-2.906 3.795a9 9 0 0 1-4.45 1.837c-1.981.237-3.796-.083-5.457-.948-1.744-.866-3.026-2.17-3.856-3.913a4.7 4.7 0 0 1-.534-1.364l-.237-1.778a18 18 0 0 1 .178-3.201 9.4 9.4 0 0 1 1.779-3.735c.914-1.15 1.994-1.992 3.263-2.55 1.27-.557 2.61-.77 4.034-.652 1.459.119 2.753.569 3.856 1.364.593.391 1.222.925 1.898 1.601.949.948 1.566 1.66 1.839 2.134.32.51.51.972.593 1.363q1.122 3.078 0 6.047m61.399 260.377 2.314-1.008c.557-.154 1.008-.213 1.364-.177h.059l.475-.119H335v-5.158h-54.619l-4.152-.178v1.364a6 6 0 0 1-.415.119v.415c0 .083.023.154.059.237v12.272h-.059c.059.747.106 1.529.118 2.371h.237v-.178h39.687c.071-.877.202-1.612.415-2.193.202-.676.57-1.459 1.128-2.372q.711-1.245 1.245-1.956c.866-1.067 2.575-2.217 5.102-3.439M313.424 14.681c-.795 6.794-.439 14.821 1.068 24.069.747 4.541 1.661 8.478 2.729 11.798 2.455 7.505 6.406 14.252 11.864 20.216A56.5 56.5 0 0 0 335 76.358V0h-17.892a58.5 58.5 0 0 0-3.684 14.681M335 364.855a189 189 0 0 0-6.33-7.392c-1.543-1.743-2.907-3.177-4.093-4.327-3.358-3.202-7.736-6.071-13.111-8.597-2.883-1.422-7.795-3.414-14.712-5.987a8 8 0 0 1-.652-.237q-.018 10.474-1.958 20.097c.166.024.321.071.475.119 3.049 1.067 6.763 3.296 11.152 6.699 5.019 3.711 8.804 6.877 11.331 9.485 8.209 8.273 14.167 19.135 17.898 32.566z" class="st2"/><path d="M118.609 63.176c-1.625 2.49-2.61 5.098-2.966 7.826-.474 3.438.155 6.343 1.899 8.715.83 1.15 2.052 2.194 3.678 3.142.344.19.616.391.83.593a75 75 0 0 0 1.542-.534c10.88-3.593 22.412-5.632 34.585-6.106 14.712-.628 30.041 1.008 45.975 4.921 1.175.284 2.29.581 3.322.889 1.448-.877 2.563-1.85 3.322-2.905 1.744-2.371 2.373-5.276 1.899-8.715-.356-2.727-1.341-5.336-2.967-7.826-1.506-2.288-3.44-4.304-5.813-6.047-3.998-2.929-9.195-5.004-15.602-6.225-3.049-.593-6.68-1.067-10.915-1.423-2.254-.178-5.529-.415-9.848-.711l-5.279-.119a.7.7 0 0 1-.297.059c-4.9.32-8.578.569-11.034.771-4.236.356-7.866.83-10.915 1.423-6.407 1.221-11.604 3.296-15.602 6.225-2.373 1.743-4.307 3.758-5.814 6.047m181.942 324.997c2.931 3.32 5.671 7.624 8.246 12.924 2.373 5.015 4.212 9.924 5.517 14.702.035.166.059.32.059.474h19.754c-3.618-17.251-9.906-30.377-18.864-39.364-2.1-2.135-5.481-5.016-10.144-8.656q-3.738-2.9-5.517-4.09c-2.088-1.376-4.081-2.443-5.992-3.202-.118.64-.261 1.269-.415 1.897-1.412 5.68-3.263 11.003-5.576 15.948q1.762.587 4.093 1.956c3.405 2.099 6.347 4.565 8.839 7.411m-1.246-210.045a6 6 0 0 1 .712-.178c1.151-.154 2.527-.213 4.153-.178.83.036 2.017.119 3.559.238l-1.898-6.344a2 2 0 0 1-.475.119q-1.193.177-3.203 0-2.314-.231-3.204-.178a8 8 0 0 1-1.305 0c.415 1.529.831 3.106 1.246 4.743.154.604.297 1.197.415 1.778m6.229 17.963c1.898.119 4.058.143 6.466.06.439 0 .807.023 1.127.059v-.119l-2.195-7.351c-.427.059-1.044.059-1.839 0q-1.245-.125-3.203 0c-1.697.119-2.753.178-3.144.178-.226 0-.415-.024-.593-.059a648 648 0 0 0 1.957 7.292c.404-.095.878-.119 1.424-.06m-2.195-9.782c1.661-.272 2.966-.438 3.915-.474a15.4 15.4 0 0 1 2.848.178l-1.542-5.217h-.238l-7.771-.356a4 4 0 0 1-.653-.118 599 599 0 0 0 1.661 6.343q.41-.089 1.78-.356M17.406 438.149c-.475-1.031-1.151-1.837-2.017-2.43-1.187-.866-2.729-1.304-4.627-1.304-.166.154-.392.249-.653.296h-.059c-.154-.036-.332-.083-.534-.119a10 10 0 0 0-1.246-.177c-.154-.036-.332-.083-.534-.119H4.177v.059c-.154 0-.332.024-.534.06-.32.023-.653.071-1.008.118-.036-.036-.071-.083-.119-.118a9.5 9.5 0 0 0-2.516.314v13.007c2.002-.433 4.615-.684 7.854-.754 2.764 0 4.959.273 6.585.83a.6.6 0 0 1 .178.059c.095-.415.214-.806.356-1.186.202-.509.688-1.387 1.483-2.608.712-1.067 1.163-1.98 1.364-2.727.202-1.066.06-2.133-.414-3.201M3.702 503.362a8.4 8.4 0 0 1 5.102-.652c1.815.32 3.286 1.127 4.39 2.431 1.388 1.624 2.112 4.031 2.195 7.232 0 1.305.059 2.218.178 2.728.202 1.031.617 1.754 1.246 2.193.831.628 1.981.747 3.441.356.202-.083.771-.297 1.72-.652a11 11 0 0 1 1.72-.475c1.186-.237 2.349-.095 3.5.415 1.044.439 1.898 1.091 2.551 1.957v-4.15l.119-.237v-3.38s.024-.094.059-.177v-.652a14 14 0 0 1-.178-1.542c-.119-1.458-.237-2.49-.356-3.083-.629-3.438-2.1-6.248-4.39-8.418-.558-.51-2.136-1.66-4.746-3.439-1.934-1.304-3.322-2.632-4.153-3.972-.831-1.268-1.329-2.703-1.483-4.327a18 18 0 0 1-.059-.83q-.89.355-2.491.178c-.676-.036-2.729-.119-6.17-.238L0 484.899v21.64c1.006-1.432 2.232-2.498 3.702-3.177m82.933-56.083a6.6 6.6 0 0 1-.771-.889 602 602 0 0 0-25.509 3.794l-.474.119c-.747.095-1.4.13-1.958.118l2.907 4.209q3.15 5.212 3.737 9.249c.119 1.186.154 2.276.119 3.26-.154 5.419-2.373 11.324-6.644 17.727-.202.284-.403.509-.593.652v39.424c.059.047.119.083.178.118v5.692a71 71 0 0 1 .771-1.898c3.168-7.315 7.534-13.908 13.11-19.8 1.459-1.542 4.034-3.973 7.712-7.292 3.358-3.048 5.873-5.49 7.534-7.352 4.426-5.015 7.451-10.137 9.076-15.354 1.981-6.13 2.053-12.011.237-17.667-1.542-4.743-4.687-9.45-9.432-14.11M8.448 458.484c.391-.119.712-.332.949-.652.273-.356.415-.866.415-1.542a4.2 4.2 0 0 0-.119-1.363c-.154-.629-.534-1.162-1.127-1.601a3.7 3.7 0 0 0-1.898-.77c-.747 0-1.281.154-1.602.474-.237.201-.51.569-.83 1.126-.475.913-.653 1.636-.534 2.194.036.355.237.711.593 1.067.51.557 1.151.948 1.898 1.186a3.65 3.65 0 0 0 2.255-.119M0 431.543c.373-.086.755-.159 1.151-.211 1.198-.154 2.61-.154 4.212 0v-1.897a.6.6 0 0 1-.059-.238V395.82c-.036-.083-.083-.154-.119-.237v-66.991l.119-.237v-3.735a3 3 0 0 1-.059-.415c-.392-4.423.451-9.035 2.551-13.813 2.29-5.455 5.754-10.114 10.381-13.992q6.994-5.993 15.483-7.647c3.002-.593 7.261-.889 12.754-.889h8.068v-28.576a2 2 0 0 1-.475.356c-.475.237-1.27.356-2.373.356-4.141-.131-7.581-.225-10.322-.297a5.7 5.7 0 0 1-1.839-.059 303 303 0 0 0-4.746 0c-6.371.119-11.924.771-16.669 1.957A55.5 55.5 0 0 0 0 269.873zm297.348-262.485c2.384-.297 4.971-.237 7.771.178l-1.958-6.403a8 8 0 0 1-1.068.059c-3.678-.32-5.754-.474-6.229-.474-.308 0-.593-.024-.83-.059a207 207 0 0 1 1.898 6.758 6 6 0 0 1 .416-.059M5.66 478.581a4.1 4.1 0 0 0 1.839.415q1.068.125 1.78-.355c.392-.202.688-.51.89-.949s.261-.889.178-1.363c-.036-.747-.392-1.566-1.068-2.431-.51-.51-.925-.83-1.246-.949-.949-.32-1.803-.059-2.551.771-.202.202-.415.534-.652 1.008-.202.32-.32.628-.356.948-.202.558-.213 1.068-.059 1.542.236.593.651 1.043 1.245 1.363m9.373-17.963c-.558.629-1.127 1.862-1.72 3.676-.439 1.577-.676 2.691-.712 3.32q-.178 2.365 1.246 4.446c.795 1.269 1.934 2.312 3.441 3.142.225.131.427.249.593.356a10 10 0 0 0 .415-.771c1.068-2.17 1.637-4.588 1.72-7.233.036-2.608-.415-5.062-1.364-7.351-.214-.533-.534-1.185-.949-1.956-.19.249-.487.522-.89.83-.748.557-1.341 1.067-1.78 1.541m297.62-261.444c-.439-.035-1.899-.095-4.39-.178-1.317-.059-2.444-.201-3.381-.415q1.192 3.558 1.601 5.336c.012.118.012.213 0 .296 2.563.202 5.149.439 7.771.712v-.534c-.035-1.731-.083-3.462-.118-5.217-.392.083-.89.083-1.483 0M260.39 69.578c-.392-1.577-1.127-2.786-2.195-3.616-.985-.747-2.314-1.126-3.975-1.126-1.269.083-2.337.297-3.203.652l-.415.237-.475 15.829v.119c1.542.036 2.907.083 4.093.119 2.338.119 4.544.332 6.644.652a8 8 0 0 1-.059-.889v-7.648c-.083-2.135-.213-3.581-.415-4.329m14.89 43.989c-4.426-1.814-9.516-3.142-15.246-3.972-3.595-.545-7.985-.936-13.17-1.185a128 128 0 0 1 5.577 6.225c5.849 6.96 10.559 14.192 14.118 21.698a78 78 0 0 1 3.263 8.003c.059-2.834.178-5.063.356-6.699.273-2.929.89-5.419 1.839-7.47 1.507-3.178 3.761-5.525 6.763-7.055-.083-.142-.166-.272-.238-.415a4 4 0 0 1-.296-.889h-.178c-.748-1.008-1.317-2.158-1.721-3.438a12.8 12.8 0 0 1-.593-4.625 2.6 2.6 0 0 1-.474-.178m-56.535-26.144a106 106 0 0 1 9.433 5.513 109 109 0 0 1 16.076 12.924 58.5 58.5 0 0 1 8.661 0c1.626.035 3.465.201 5.517.474a86.5 86.5 0 0 1 17.441 4.209c.178.083.332.154.474.237q1.086-3.344 3.916-6.047c1.032-.948 1.566-1.458 1.601-1.541.558-.629.89-1.269 1.009-1.897.036-.19.059-.392.059-.593v-.06c0-.118-.023-.248-.059-.414-.083-.487-.309-1.02-.653-1.601-.747-1.067-1.328-1.873-1.72-2.431-.997-1.411-1.637-3-1.898-4.743a6 6 0 0 1-1.187-.415c-2.693-1.387-5.078-2.371-7.178-2.964-.866-.273-1.388-.498-1.542-.652a1.5 1.5 0 0 1-.415-.415c-.748-.024-1.792-.202-3.144-.534-3.916-.865-8.329-1.399-13.229-1.601-2.966-.083-7.392-.083-13.289 0-4.188.118-7.32.332-9.372.652-.724.107-1.389.166-1.958.178a.15.15 0 0 1-.059.059c-.202.119-.677.261-1.424.415-2.705.358-5.054.773-7.06 1.247m91.95 384.637a39.6 39.6 0 0 1 9.848-8.833 7 7 0 0 1-.653-.593 13 13 0 0 1-1.958-2.194c-.355-.593-.616-1.102-.771-1.541l-.83-1.838c-.083-.142-.166-.379-.238-.711h-38.084c-.7-.06-1.4-.143-2.077-.237v17.785h8.721v-.178h24.737c.427-.557.866-1.114 1.305-1.66M240.279 73.847c-.083-1.779-.272-3.237-.593-4.387-.474-1.66-1.245-2.929-2.313-3.794-.831-.676-1.816-1.043-2.966-1.126a7.1 7.1 0 0 0-3.144.356c-1.187.557-2.077 1.245-2.67 2.075s-1.092 2.217-1.483 4.15c-.083.391-.178.688-.297.889q0 5.994-.178 10.849c1.697-.32 3.619-.569 5.755-.771 1.506-.154 3.796-.273 6.881-.356a7 7 0 0 1 1.246 0c-.119-.794-.155-1.838-.119-3.142zm-96.042-26.678c3.559-.486 7.368-.783 11.449-.889v-.237c.035-.356.273-.925.712-1.719l5.695-9.13c2.527-4.114 4.532-7.114 5.991-9.011 1.424-1.862 4.01-4.802 7.771-8.833.19-.214.368-.415.534-.593-3.262-.545-7.071-.854-11.449-.949h-.178l-1.186.059a6 6 0 0 1-.831-.059q-.622.018-1.246 0a2.6 2.6 0 0 1-.415.474l-2.966 3.201a111 111 0 0 0-5.517 6.581c-1.542 2.051-3.203 4.47-4.983 7.233a161 161 0 0 0-5.695 9.782 2.4 2.4 0 0 1-.712 1.067c-.439.356-.83.451-1.186.296a.36.36 0 0 1-.178-.119c.913.901 1.827 1.553 2.729 1.956.889.451 1.447.748 1.661.89m148.128 107.068v.059c.605 1.66 1.21 3.521 1.839 5.573.225-.06.462-.095.711-.119a43.6 43.6 0 0 1 7.119.119h.237l-1.364-4.625c-.036-.166-.083-.332-.119-.474h-.296a350 350 0 0 1-7.06-.415c-.391 0-.747-.035-1.067-.118M185.762 46.28c1.305-.593 2.634-1.66 3.975-3.201q1.78-2.08 2.669-4.091 1.424-3.433.534-7.648c-.439-1.838-1.174-3.699-2.195-5.573-.296.391-.652.889-1.068 1.482l-6.644 9.604a318 318 0 0 0-6.05 9.07 5 5 0 0 1-.416.534q3.916.231 7.475.711c.237-.153.807-.45 1.72-.888m91.891 161.905a6 6 0 0 1-1.187.119l-.119 10.138c1.602-.344 3.631-.581 6.111-.712 19.056-1.007 36.566.586 52.542 4.746v-11.165c-9.533-1.911-18.287-3.193-26.262-3.837-11.117-.913-21.475-.676-31.085.711m23.373-68.651a4.8 4.8 0 0 0-1.187-1.897c-.712-.628-1.341-.984-1.898-1.067-.392-.083-.985-.036-1.78.118a3.8 3.8 0 0 0-1.483.653c-.392.355-.736.913-1.008 1.659-.072.19-.143.427-.238.712.522 0 1.044.142 1.543.415 1.423.794 2.278 2.17 2.551 4.15q.177 1.422-.178 4.98c-.155.948-.333 1.565-.534 1.837-.155.297-.332.522-.534.653l4.923.237h.238a6 6 0 0 1-.06-.89l.06-8.299c0-1.506-.142-2.585-.415-3.261" class="st2"/><path d="m276.644 194.787-.119 10.316h.297c8.305-1.162 17.322-1.494 27.051-1.008q-2.652-7.399-4.449-14.051c-.676-2.371-2.053-7.707-4.153-16.006-1.696-6.64-3.203-11.952-4.508-15.948-.593-1.66-.926-3.023-1.009-4.091 0-.592.095-.984.297-1.185a.4.4 0 0 0 .059-.119 1.2 1.2 0 0 1-.296-.533c-.119-.439-.095-1.103.059-2.016l.059-2.846c0-.391.06-.972.178-1.719l.238-4.328c.201-1.577.355-2.584.474-3.023.475-1.625 1.483-2.881 3.026-3.794.356-.202.889-.415 1.601-.653.748-.237 1.448-.332 2.077-.296 2.171.036 4.034 1.269 5.576 3.676.51.711.854 1.422 1.008 2.134.083.356.119.913.119 1.66.083 4.707.059 8.24-.059 10.612-.119.711-.202 1.126-.238 1.245-.13.427-.356.687-.652.77a.42.42 0 0 1-.119.238c.237.391.415.936.534 1.66q.356 1.725 2.136 7.292a612 612 0 0 1 8.127 27.092c-.071-7.102-.119-14.133-.119-21.105v-7.529c.012-2.834.036-5.656.06-8.478.011-1.92.035-3.841.059-5.75.035-2.763.024-4.861-.059-6.284-.155-2.336-.499-4.387-1.009-6.166-.593-2.134-1.507-4.007-2.729-5.632-1.34-1.778-2.93-3.083-4.746-3.913-.605-.237-1.079-.498-1.423-.77a2.3 2.3 0 0 1-.356-.475.97.97 0 0 1-.06-.711 3 3 0 0 1 .119-.356c-.012-.071-.036-.142-.059-.237a1.18 1.18 0 0 1 .059-.83c.083-.201.392-.676.949-1.423a7.2 7.2 0 0 0 1.305-2.786 2 2 0 0 0 .06-.474c-.155-.261-.238-.676-.238-1.245 0-.795-.059-1.53-.178-2.194a8 8 0 0 0-.415-.711h.237a5 5 0 0 0-.356-.949 8.4 8.4 0 0 0-.889-1.363c-.202-.356-.499-.735-.89-1.127l-2.966-2.43c-.866-.949-1.424-1.743-1.661-2.372a4.7 4.7 0 0 1-.238-1.067c-.047.036-.106.083-.178.119-.071-.332-.13-.664-.177-1.008a2 2 0 0 1-.475.059c-.202 0-.688-.095-1.483-.296-1.341-.439-3.263-.688-5.754-.771-1.46-.083-2.551-.083-3.263 0a11 11 0 0 1-1.246 0q-.41 1.85-2.136 3.913c-.913.948-1.578 1.66-2.017 2.134-.83.83-1.447 1.577-1.839 2.253-.984 1.624-1.388 3.438-1.186 5.454s.926 3.711 2.195 5.098q.747.819 1.068 1.423c.284.166.474.32.593.475.237.272.273.735.119 1.363h.178v.119c-.036.118-.155.261-.356.415-.321.272-.772.533-1.365.77-1.815.83-3.405 2.135-4.746 3.913-1.222 1.625-2.135 3.498-2.728 5.632-.511 1.779-.855 3.83-1.009 6.166-.083 1.423-.095 3.521-.059 6.284.024 1.126.047 2.253.059 3.379v.711l.653 1.423c.059.332.106.617.118.83.095.783.119 1.731.119 2.846.012.51.012 1.02 0 1.541 1.436 7.541 2.337 13.387 2.729 17.549.356 4.351.498 10.849.415 19.504m5.992-81.22c.237-1.576.854-2.964 1.839-4.149.51-.593 1.044-.973 1.601-1.127a1.7 1.7 0 0 1 1.009.059c.32.119.557.321.712.593.237.475.178.973-.178 1.482-.083.119-.38.558-.89 1.305-1.068 1.387-1.305 2.964-.712 4.742.32.83.498 1.34.534 1.542.154.676.083 1.186-.237 1.541-.238.273-.558.415-.95.415-.355 0-.711-.095-1.067-.296-.439-.273-.855-.83-1.246-1.66-.558-1.423-.688-2.905-.415-4.447m37.669 87.03c-.439-.32-1.068-.569-1.898-.771a23 23 0 0 1-1.602-.415v5.158c0 .225-.023.427-.059.593 2.136.261 4.295.545 6.466.83-.119-.676-.498-1.636-1.127-2.905q-1.068-1.956-1.78-2.49m4.924-36.401-8.542-.77.059 23.832 2.966-.059c1.151-.083 2.041.023 2.67.296.51.202 1.091.51 1.72.949.51.272 1.329.628 2.432 1.067q1.3.586 3.026 2.134c1.898 1.862 3.357 3.972 4.39 6.343a20 20 0 0 1 1.05 3.285v-22.095l-6.983-1.05c-1.222-.237-2.052-.569-2.491-1.008-.511-.593-.736-1.624-.653-3.082zm-29.127 171.332c.296.012.629.071 1.008.178a109.3 109.3 0 0 1 18.094 7.411c3.44 1.814 6.229 3.58 8.364 5.276 1.602 1.221 3.464 2.964 5.576 5.217-.083-3.367.914-6.237 2.966-8.596a9.1 9.1 0 0 1 2.89-2.174V264.6q-1.967-.163-4.432-.984c-2.017-.676-3.286-1.067-3.797-1.185-1.459-.356-2.764-.51-3.915-.475q-2.082.125-3.737 1.245c-1.187.83-1.898 1.862-2.136 3.083-.237 1.15 0 2.348.712 3.616.593 1.032 1.46 1.992 2.61 2.905.914.712 2.409 1.696 4.509 2.965 2.052 1.221 3.559 2.229 4.508 3.023 1.543 1.269 2.694 2.692 3.441 4.268.831 1.779 1.032 3.498.593 5.158-.629 2.099-1.981 3.593-4.034 4.506-1.815.865-3.856 1.103-6.11.711-1.103-.201-2.883-.77-5.339-1.719-2.254-.866-4.058-1.364-5.398-1.482-1.341-.119-2.587.095-3.737.652-1.27.593-2.017 1.482-2.255 2.668-.118.794.083 1.755.593 2.905.677 1.577 1.044 2.525 1.128 2.845.355 1.506.083 3-.831 4.506-.83 1.423-1.993 2.431-3.5 3.024-1.388.557-2.907.687-4.568.415a11 11 0 0 1-3.5-1.186v4.15a.6.6 0 0 1 .059.237v19.564c.119 1.849.202 3.687.238 5.513" class="st2"/></g><linearGradient id="SVGID_1_" x1="167.5" x2="167.5" y1="491.779" y2="43.779" gradientTransform="matrix(1 0 0 -1 0 539.78)" gradientUnits="userSpaceOnUse"><stop offset="0" style="stop-color:#400000;stop-opacity:0"/><stop offset="1" style="stop-color:#400000"/></linearGradient><path d="M0 48h335v492H0z" class="st3"/></svg>