<svg xmlns="http://www.w3.org/2000/svg" xml:space="preserve" id="Layer_1" x="0" y="0" viewBox="0 0 201 244"><style>.st0{fill:#49225b}.st1{fill:#002140}.st2{fill:#712a76}.st3{fill:#fffaf0}.st4{fill:#fed607}.st5{fill:#780505}.st6{fill:#cf4cd9}.st7{fill:#03d47c}.st8{fill:#d18000}.st9{fill:#f68dfe}.st10{fill:#ffed8f}</style><path d="M124.4 196.2s3.7 4.3-.1 7.2c-4.8-.2-8.8-.1-16.1-8.3-5.5-6.6-28.5-39.9-28.5-39.9l6-5.2s23.8 35.1 29.4 42.1c3.7 4.8 9.3 4.1 9.3 4.1" class="st0"/><path d="M124.3 204h-.5c-4.7-.2-8.7-.4-16-8.5-5.4-6.6-28.3-39.6-28.5-39.9-.1-.2-.1-.5.1-.7l6-5.2c.1-.1.2-.1.4-.1.1 0 .3.1.3.2.2.4 23.9 35.1 29.3 42 3.6 4.5 8.9 4 8.9 4 .1 0 .3.1.4.2s2 2.3 1.7 4.8c-.1 1.2-.8 2.3-1.9 3.1 0 0-.1.1-.2.1m-43.9-48.7c2.5 3.7 23.1 33.4 28.2 39.5 7 7.8 10.8 8 15.3 8.1h.3c.8-.7 1.3-1.4 1.4-2.3.2-1.7-.9-3.3-1.3-3.9-1.1.1-6 .1-9.6-4.4-5.1-6.5-26.2-37.4-29.1-41.6zm59.9 45h-.7v-1c.8-.1 1.8-.1 2.7-.1v1c-.6.1-1.3.1-2 .1" class="st1"/><path d="M128.3 196.5s-1-.1-1.6-.1c-.8 0-1.6 0-2.3-.1l-.1 7.2h.9c1 0 2.1.1 3.1.1l.1-6.1z" class="st2"/><path d="M128.8 204.1h-.6c-1 0-2 0-3-.1h-1.4l.1-7.7v-.6l.5.1c.7.1 1.5.1 2.2.1.6 0 1.6.1 1.7.1v.5h.5zm-4-1.1h.4c.9 0 1.7 0 2.6.1l.1-5.6v-.5c-.3 0-.8-.1-1.1-.1-.6 0-1.2 0-1.8-.1z" class="st1"/><path d="M139.6 199.9c-5.3-.1-7.1-2-7.6-3.4-1.1 0-2.3-.1-3.7-.1l-.1 7.2c1.3 0 2.6.1 3.9.1.5-1.3 2.1-3.4 7.5-3.8" class="st2"/><path d="m132.5 204.2-4.2-.1h-.5v-.5l.1-7.7h4.5l.1.3c.7 1.9 3.3 2.9 7.2 3h.5v1h-.5c-5.2.4-6.6 2.4-7 3.5zm-3.7-1.1 3 .1c.5-1 1.6-2.4 4.3-3.2-2.7-.6-3.9-1.8-4.4-3h-2.8z" class="st1"/><path d="M181.1 189.4c-.8.1-1.6.3-2.5.7-3.9.8-9 .8-11.4.5 2.4.3 7.5.3 11.4-.5.9-.3 1.8-.6 2.5-.7.5-1.2.7-2.6-.3-3.4-2.7-2.4-20.8 0-20.8 0-13.5 0-13.2 3.3-17.3 7.4-2.8 2.8-5.2 3.2-9.1 3.2H132c.5 1.4 2.3 3.2 7.6 3.4.8-.1 1.7-.1 2.7-.1-1 .1-1.9.1-2.7.1-5.4.4-7 2.5-7.5 3.8 10 .2 17.9.2 17.9.2s2.7.2 5.3-1.2c2.5-1.4 2-2.9 4.7-2.9 3.7-.2 2.8 3.6 6.8 2.9 2.3-1 1.7-4.3-.2-6.4-.6-.7-1.4-1.3-2.3-1.6-1.5-.5-5.3-1.4-7.8.4 2.4-1.8 6.3-.9 7.8-.4.9.3 1.7.9 2.3 1.6 4.4.1 11.8-.1 16.3-2.8 3.5-1.6 2.2-4.7-1.8-4.2" class="st3"/><path d="M150.4 204.4h-.3s-8 0-17.9-.2c-.2 0-.3-.1-.4-.2s-.1-.3-.1-.5c.4-1 1.4-2.7 4.5-3.6-2.9-.7-4.1-2.1-4.6-3.3-.1-.2 0-.3.1-.5.1-.1.3-.2.4-.2h1.8c3.8 0 6-.5 8.6-3 .7-.7 1.3-1.4 1.9-2.1 2.6-3.1 4.5-5.4 15.8-5.4 1.8-.2 18.4-2.4 21.2.1.6.5 1.1 1.5.6 3.3 2-.1 3.3.9 3.6 1.9s-.2 2.3-2.2 3.2c-4.3 2.5-11.2 2.9-15.5 2.8.9 1.4 1.3 3 1 4.3-.2.9-.8 1.6-1.7 2h-.1c-2.3.4-3.2-.6-4-1.5-.7-.8-1.3-1.4-2.8-1.4-1.4 0-1.8.4-2.4 1.1-.5.5-1 1.1-2.2 1.7-2.2 1.3-4.4 1.5-5.3 1.5m-17.4-1.2c9.5.2 17.1.2 17.2.2s2.6.1 5-1.1c1-.5 1.5-1.1 1.9-1.5.7-.8 1.3-1.4 3.1-1.4 2-.1 2.9.9 3.6 1.7s1.3 1.5 3 1.2c.5-.3.9-.7 1-1.3.3-1.2-.3-2.9-1.4-4.2-.1-.1-.2-.1-.2-.2-.6-.6-1.3-1.1-2-1.3-.6-.2-4.8-1.5-7.3.3-.2.2-.5.1-.7-.1s-.1-.5.1-.7c2.8-2.1 7.3-.8 8.2-.5s1.7.8 2.4 1.6c4.1.1 11.5-.1 15.9-2.7 1.2-.5 1.9-1.3 1.7-2s-1.4-1.4-3.3-1.1h-.1c-.7.1-1.5.3-2.4.7h-.2c-4 .8-9.2.8-11.6.5-.3 0-.5-.3-.4-.5 0-.3.3-.5.5-.4 2.3.2 7.3.3 11.2-.5.8-.3 1.6-.6 2.3-.7.4-1.2.4-2.1-.2-2.6-1.8-1.7-13.2-.8-20.4.1-10.8 0-12.6 2.1-15.1 5.1-.6.7-1.2 1.4-1.9 2.2-2.8 2.8-5.2 3.3-9.3 3.3h-.9c1 1.4 3.4 2.3 6.7 2.3.8-.1 1.7-.1 2.7-.1.3 0 .5.2.5.5s-.2.5-.5.5c-.9.1-1.8.1-2.7.1-4 .1-5.7 1.5-6.4 2.6" class="st1"/><path d="m166.8 197-.5-.5-.7-1 1.5.2.2.5zm-.5-1 .4.3z" class="st1"/><path d="M161.2 159.2c3.7 1.7 14.8 4.8 22.6 4.2s8.9-5.7 8.7-9.3-16.5-6.8-16.5-6.8l-15.3 5.3s-16.2-5.3-21.2-6.9-11.6-1.6-14.6 1.6c-2.9 3.2-3.3 6.1 1 11.4 4 5.1 25.9 2.9 35.3.5" class="st0"/><path d="M181.8 164c-7.5 0-16.9-2.6-20.6-4.3-8.3 2.1-31.3 4.9-35.7-.7-4-5.1-4.3-8.4-.9-12.1 3.1-3.4 9.9-3.5 15.1-1.8 4.7 1.5 19.4 6.3 21.1 6.9l15.1-5.2h.3c2.8.5 16.7 3.4 16.9 7.3.3 5.9-2.9 9.4-9.2 9.8-.7.1-1.4.1-2.1.1m-20.6-5.3h.2c3.8 1.8 14.8 4.7 22.4 4.2 5.7-.4 8.5-3.4 8.2-8.8-.1-2.4-9.8-5.1-16-6.3l-15.1 5.2h-.3s-16.2-5.3-21.2-6.9c-4.9-1.6-11.3-1.6-14.1 1.5-2.6 2.9-3.2 5.4 1 10.8 3.7 4.7 24.9 2.8 34.8.3z" class="st1"/><path d="M170.4 45.9 158.8 41c-4.9-2-7.9-.7-9.5 2.8v.1c-2.1 4.7 1 8.5 3.6 9.7l11.8 5.2c2.5 1.3 2.7-3.3 2-4.8 1.8-.5 2.3-2.7 1.6-3.7 1-.6 4.9-3.3 2.1-4.4m-3.6 3.2c1.3.6 1.9 2.1 1.3 3.4s-2.1 1.9-3.4 1.3l-7.9-3.4c-1.3-.6-1.9-2.1-1.3-3.4s2.1-1.9 3.4-1.3z" class="st4"/><path d="M165.4 59.5c-.3 0-.6-.1-1-.3L152.6 54c-2.9-1.3-6.1-5.4-3.9-10.3v-.1c1.3-2.8 4.1-5.6 10.2-3.1l11.6 4.9c1 .4 1.3 1.1 1.3 1.5 0 1.4-2 2.9-3.1 3.5.2.6.2 1.3 0 2-.3.8-.8 1.5-1.6 1.8.4 1.4.3 3.8-.7 4.8-.1.2-.4.5-1 .5m-10.7-19c-2.2 0-3.9 1.2-5 3.5v.1c-1.9 4.3.8 7.8 3.4 9l11.8 5.2c.6.3.9.2 1 0 .7-.7.8-2.8.4-3.9-.6.1-1.2 0-1.8-.2l-7.8-3.4c-.7-.3-1.3-.9-1.6-1.7s-.3-1.6.1-2.3c.3-.7.9-1.3 1.7-1.6s1.6-.3 2.3.1l7.9 3.4c.5.2.9.6 1.2 1 1-.5 2.7-1.9 2.7-2.7 0-.2-.2-.4-.7-.6l-11.6-4.9c-1.6-.7-2.9-1-4-1m3.2 5.4c-.2 0-.5 0-.7.1-.5.2-.9.6-1.2 1.1-.2.5-.2 1.1 0 1.6s.6.9 1.1 1.2l7.8 3.4c1 .5 2.3 0 2.7-1 .2-.5.2-1.1 0-1.6s-.6-.9-1.1-1.2l-7.9-3.4c-.1-.1-.4-.2-.7-.2" class="st1"/><path d="m183.1 58.4-8.4-9.5c-3.5-4-6.8-4.1-9.8-1.6l-.1.1c-3.9 3.3-2.8 8.1-.9 10.3l8.3 9.8c1.7 2.2 3.9-1.8 3.9-3.5 1.9.3 3.2-1.5 3.1-2.6 1.2 0 5.9-.8 3.9-3m-4.7 1.3c.9 1.1.8 2.7-.3 3.6s-2.7.8-3.6-.3l-5.6-6.5c-.9-1.1-.8-2.7.3-3.6s2.7-.8 3.6.3z" class="st4"/><path d="M173.3 68.6c-.4 0-1-.2-1.5-.9l-8.3-9.8c-2.1-2.5-3.1-7.5 1-11l.1-.1c2.4-2 6.1-3.3 10.5 1.6l8.5 9.6c.6.8.6 1.4.4 1.8-.6 1.3-3 1.7-4.3 1.8-.1.6-.4 1.2-.9 1.7-.6.6-1.4.9-2.2.9-.3 1.5-1.4 3.6-2.7 4-.2.4-.4.4-.6.4M169 46.1c-1.3 0-2.5.5-3.7 1.5l-.1.1c-3.6 3-2.7 7.4-.9 9.6l8.3 9.8c.4.5.7.5.9.5.9-.3 1.9-2.2 2.1-3.3-.6-.2-1.1-.5-1.5-1l-5.6-6.5c-.5-.6-.8-1.4-.7-2.2s.5-1.6 1.1-2.1c1.3-1.1 3.2-.9 4.3.4l5.6 6.5c.4.4.6.9.7 1.5 1.1-.1 3.2-.5 3.6-1.3.1-.2 0-.5-.3-.8l-.1-.2-8.2-9.4c-1.9-2-3.7-3.1-5.5-3.1m1.9 6.6c-.5 0-.9.2-1.3.5-.4.4-.7.9-.7 1.4s.1 1.1.5 1.5l5.6 6.5c.7.9 2 1 2.9.3.4-.4.7-.9.7-1.4 0-.6-.1-1.1-.5-1.5l-5.6-6.5c-.4-.5-1-.8-1.6-.8" class="st1"/><path d="m188.1 74.8-2.6-12.4c-1.1-5.2-4-6.9-7.8-6.2h-.1c-5.1.9-6.4 5.7-5.9 8.5l2.4 12.6c.4 2.8 4.2.4 5.1-1.1 1.5 1.2 3.5.3 4-.8 1 .7 5.6 2.4 4.9-.6m-4.7-1.1c.3 1.4-.7 2.7-2.1 3s-2.7-.7-3-2.1l-1.6-8.4c-.3-1.4.7-2.7 2.1-3s2.7.7 3 2.1z" class="st4"/><path d="M175.5 79.2h-.4c-.4-.1-1.2-.4-1.4-1.7l-2.4-12.6c-.3-1.7 0-3.7.9-5.3.8-1.4 2.3-3.2 5.4-3.8h.1c3-.6 7 .1 8.3 6.6l2.7 13c0 .7-.3 1.1-.6 1.3-1.1.8-3.5 0-4.6-.5-.4.5-.9.9-1.6 1.1-.8.2-1.7.1-2.4-.3-.9 1-2.7 2.2-4 2.2m3.8-22.6c-.5 0-.9 0-1.4.1h-.1c-2.7.5-4 2.1-4.7 3.3-.9 1.7-1 3.5-.8 4.6l2.4 12.6c.1.7.4.8.6.8.9.2 2.7-1 3.4-1.9-.4-.4-.7-1-.8-1.6l-1.6-8.4c-.1-.8 0-1.6.5-2.3s1.2-1.1 2-1.3c.8-.1 1.6 0 2.3.5s1.1 1.2 1.3 2l1.6 8.4c.1.6 0 1.1-.1 1.6 1 .5 3.1 1.1 3.7.7.2-.1.2-.4.1-.9l-.1-.6-2.6-11.6c-.8-4-2.8-6-5.7-6m-.1 7h-.4c-.5.1-1 .4-1.3.9q-.45.75-.3 1.5l1.6 8.4c.2 1.1 1.3 1.9 2.4 1.7s1.9-1.3 1.7-2.4l-1.6-8.4c-.1-.5-.4-1-.9-1.3-.4-.2-.8-.4-1.2-.4" class="st1"/><path d="m186.1 91.5 2.2-12.5c.9-5.2-1.1-7.9-4.9-8.6h-.1c-5-1-8.1 2.9-8.6 5.7l-2.4 12.6c-.7 2.7 3.8 1.9 5.1.9.9 1.7 3.2 1.6 4 .7.7.9 4.3 4.2 4.7 1.2m-3.9-2.8c-.3 1.4-1.6 2.3-3 2s-2.3-1.6-2-3l1.6-8.4c.3-1.4 1.6-2.3 3-2s2.3 1.6 2 3z" class="st4"/><path d="M185 93.2c-1.3 0-3-1.4-3.7-2.2-.5.3-1.2.5-1.9.4-.9-.1-1.6-.5-2.1-1.1-1.3.7-3.7 1.2-4.8.4-.4-.2-1-.8-.6-2.1l2.4-12.6c.6-3.2 3.9-7.2 9.2-6.1h.1c3 .6 6.4 2.7 5.3 9.2l-2.2 12.5c-.2 1.1-.7 1.5-1.2 1.6zm-3.1-3c.7.8 2.5 2.2 3.2 2 .2-.1.4-.3.5-.8l2.2-12.5q1.2-6.9-4.5-8.1h-.1c-4.6-.9-7.5 2.5-8 5.3l-2.4 12.6c-.2.7 0 .9.2 1 .8.5 2.9.1 3.9-.5-.2-.6-.3-1.2-.2-1.8l1.6-8.4c.3-1.7 2-2.7 3.6-2.4.8.2 1.5.6 1.9 1.3.5.7.6 1.5.5 2.3l-1.6 8.4c-.2.7-.4 1.2-.8 1.6m-.7-12.5c-1 0-1.8.7-2 1.7l-1.6 8.4c-.1.5 0 1.1.3 1.6s.8.8 1.3.9c1.1.2 2.2-.5 2.4-1.6l1.6-8.4c.1-.5 0-1.1-.3-1.6s-.8-.8-1.3-.9c-.1-.1-.2-.1-.4-.1" class="st1"/><path d="m176.2 105.7 7.8-10c3.2-4.2 2.7-7.5-.3-9.9l-.1-.1c-4-3.3-8.5-1.2-10.3 1l-8.1 10c-1.9 2.1 2.5 3.5 4.1 3.2.1 1.9 2 2.9 3.2 2.5.2 1.1 1.9 5.7 3.7 3.3m-2.2-4.4c-.9 1.1-2.5 1.3-3.6.4s-1.3-2.5-.4-3.6l5.4-6.7c.9-1.1 2.5-1.3 3.6-.4s1.3 2.5.4 3.6z" class="st4"/><path d="M175.1 106.9h-.3c-1.4-.3-2.3-2.7-2.6-3.9-.6 0-1.3-.2-1.9-.6-.7-.5-1.2-1.2-1.3-2-1.4 0-3.8-.7-4.5-1.9-.2-.4-.5-1.2.4-2.1l8.1-10c2.1-2.5 6.8-4.5 11-1.1l.1.1c2.4 2 4.4 5.4.4 10.6l-7.9 10.2c-.6.5-1.1.7-1.5.7m-2-4.3c.3 1.1 1.1 3.1 1.9 3.3.2.1.5-.1.8-.5l.2-.2 7.6-9.8c2.9-3.7 2.8-6.8-.2-9.2l-.1-.1c-3.6-3-7.8-1.3-9.6.9l-8.1 10c-.5.5-.4.8-.3 1 .5.9 2.5 1.4 3.6 1.4.1-.6.3-1.2.7-1.7L175 91c1.1-1.3 3-1.5 4.3-.4s1.5 3 .4 4.3l-5.4 6.7c-.2.5-.7.8-1.2 1m4.3-11.7c-.6 0-1.2.3-1.6.8l-5.4 6.7c-.4.4-.5 1-.5 1.5.1.6.3 1 .7 1.4.9.7 2.2.6 2.9-.3l5.4-6.7c.7-.9.6-2.2-.3-2.9-.3-.3-.7-.5-1.2-.5" class="st1"/><path d="m161.9 115.6 10.7-6.8c4.4-2.9 5.1-6.1 3.1-9.4l-.1-.1c-2.7-4.4-7.6-4-10-2.5l-11 6.7c-2.5 1.3 1.2 4.1 2.8 4.4-.6 1.8 1 3.4 2.1 3.4-.2 1.2-.1 6 2.4 4.3m-.6-4.8c-1.2.7-2.8.3-3.5-.9s-.3-2.8.9-3.5l7.3-4.5c1.2-.7 2.8-.3 3.5.9s.3 2.8-.9 3.5z" class="st4"/><path d="M160.9 116.5c-.3 0-.6-.1-.8-.2-1.2-.8-1.3-3.3-1.2-4.5-.6-.2-1.2-.6-1.6-1.1-.5-.7-.7-1.5-.6-2.3-1.4-.5-3.3-1.9-3.6-3.3-.1-.4 0-1.3 1.1-1.9l10.9-6.7c1.5-.9 3.4-1.3 5.3-1 1.6.2 3.9 1 5.4 3.7l.1.1c1.6 2.6 2.3 6.5-3.2 10.1l-10.7 6.8c-.3.2-.7.3-1.1.3m-.9-4.8c-.1 1.1 0 3.3.7 3.7.2.1.4.1.7-.1l.1-.1 10.7-6.8c3.9-2.5 4.9-5.5 2.9-8.8l-.1-.1c-1.4-2.3-3.3-3-4.7-3.2-1.9-.3-3.6.3-4.6.9l-11 6.7c-.6.3-.6.6-.6.8.2 1 1.8 2.2 2.9 2.5.2-.5.7-1 1.2-1.3l7.3-4.5c1.5-.9 3.3-.4 4.2 1 .4.7.5 1.5.4 2.3-.2.8-.7 1.5-1.4 1.9l-7.3 4.5c-.3.4-.9.6-1.4.6m7.3-9.7c-.4 0-.7.1-1.1.3l-7.3 4.5c-1 .6-1.3 1.9-.7 2.8.6 1 1.9 1.3 2.8.7l7.3-4.5c.5-.3.8-.7.9-1.3.1-.5 0-1.1-.2-1.6-.4-.5-1-.9-1.7-.9" class="st1"/><path d="m152.1 123.9 9.1-8.7c3.8-3.7 3.8-7 1.2-9.9l-.1-.1c-3.5-3.8-8.2-2.4-10.3-.5l-9.4 8.7c-2.2 1.8 1.9 3.8 3.6 3.7-.2 1.9 1.6 3.2 2.8 2.9.1 1.3 1 6.1 3.1 3.9m-1.5-4.6c-1 1-2.7.9-3.6-.2-1-1-.9-2.7.2-3.6l6.3-5.8c1-1 2.7-.9 3.6.2 1 1 .9 2.7-.2 3.6z" class="st4"/><path d="M151.1 125c-.2 0-.4 0-.5-.1-1.3-.5-1.9-3-2-4.2-.6 0-1.3-.3-1.8-.8-.6-.6-1-1.4-1-2.2-1.5-.2-3.6-1.2-4.1-2.5-.2-.4-.3-1.3.7-2l9.4-8.7c2.4-2.2 7.4-3.5 11 .5l.1.1c2.1 2.3 3.6 6-1.2 10.6l-9.1 8.7q-.9.6-1.5.6m-1.6-4.6c.1 1.1.7 3.2 1.4 3.5.2.1.4 0 .7-.2l9.3-8.9c3.4-3.2 3.7-6.3 1.1-9.2l-.1-.1c-3.2-3.5-7.5-2.4-9.6-.5l-9.4 8.7c-.5.4-.5.7-.4.9.3.9 2.2 1.8 3.4 1.9.1-.6.5-1.1.9-1.6l6.3-5.8c.6-.6 1.4-.8 2.2-.8s1.6.4 2.1 1c.6.6.8 1.4.8 2.2s-.4 1.6-1 2.1l-6.3 5.8c-.3.7-.8.9-1.4 1m5.7-10.9c-.5 0-1 .2-1.4.5l-6.3 5.8c-.4.4-.6.9-.7 1.4 0 .6.2 1.1.5 1.5.8.8 2.1.9 2.9.1l6.3-5.8c.4-.4.6-.9.7-1.4 0-.6-.2-1.1-.5-1.5-.4-.3-.9-.6-1.5-.6.1 0 0 0 0 0" class="st1"/><path d="m147.3 134.2 4.8-11.7c2-4.9.6-7.9-2.9-9.5h-.1c-4.7-2.1-8.5 1.1-9.6 3.7l-5.1 11.8c-1.3 2.5 3.3 2.7 4.8 1.9.6 1.8 2.8 2.3 3.7 1.6.5 1.1 3.4 5.1 4.4 2.2m-3.2-3.6c-.6 1.3-2.1 1.9-3.4 1.3s-1.9-2.1-1.3-3.4l3.4-7.9c.6-1.3 2.1-1.9 3.4-1.3s1.9 2.1 1.3 3.4z" class="st4"/><path d="M146.2 135.7c-1.4 0-2.9-2-3.5-3-.6.2-1.3.2-2 0-.8-.3-1.5-.8-1.8-1.6-1.4.4-3.8.4-4.8-.7-.3-.3-.8-1-.2-2.2l5.1-11.8c.7-1.6 2.1-3 3.7-3.9 1.4-.7 3.8-1.4 6.6-.1h.1c2.8 1.2 5.7 4 3.2 10.1l-4.8 11.7c-.4 1.3-1 1.5-1.6 1.5q.15 0 0 0m-2.7-3.6c.5.9 1.9 2.7 2.7 2.7q.3 0 .6-.6v-.1l4.8-11.7c1.8-4.3.9-7.3-2.7-8.8h-.1c-2.5-1.1-4.5-.6-5.7.1-1.7.9-2.8 2.3-3.3 3.4l-5.1 11.8c-.3.6-.2.9 0 1 .7.7 2.8.7 3.9.4-.1-.6 0-1.2.2-1.8l3.4-7.9c.3-.8.9-1.3 1.7-1.6s1.6-.3 2.3 0 1.3.9 1.6 1.7.3 1.6 0 2.3l-3.4 7.9q-.15.75-.9 1.2m1.6-12.5c-.3 0-.5 0-.8.1-.5.2-.9.6-1.1 1.1l-3.4 7.9c-.2.5-.2 1.1 0 1.6s.6.9 1.1 1.1c1 .5 2.3 0 2.7-1.1l3.4-7.9c.2-.5.2-1.1 0-1.6s-.6-.9-1.1-1.1c-.2 0-.5-.1-.8-.1" class="st1"/><path d="m148.7 144.3-1.6-12.5c-.7-5.2-3.4-7.2-7.3-6.8h-.1c-5.1.5-6.8 5.2-6.5 8l1.5 12.8c.1 2.8 4.2.7 5.2-.7 1.4 1.3 3.5.6 4-.5.9.7 5.2 2.7 4.8-.3m-4.6-1.5c.2 1.4-.9 2.7-2.3 2.8s-2.7-.9-2.8-2.3l-1-8.5c-.1-1.4.9-2.7 2.3-2.8s2.7.9 2.8 2.3z" class="st4"/><path d="M135.9 147.7c-.2 0-.4 0-.6-.1-.4-.1-1.2-.5-1.2-1.8l-1.5-12.7c-.3-3.2 1.6-8 7-8.6h.1c3.1-.3 6.9.7 7.8 7.2l1.6 12.5c.2 1.1-.3 1.6-.7 1.9-1.2.7-3.5-.2-4.6-.9-.4.5-1 .8-1.7 1-.8.2-1.7 0-2.4-.4-.7.9-2.5 1.9-3.8 1.9m4.8-22.2h-1c-4.7.5-6.4 4.7-6.1 7.5l1.5 12.8c0 .7.3.8.5.9.9.3 2.8-.8 3.5-1.6-.4-.5-.6-1-.7-1.7l-1-8.5c-.1-.8.2-1.6.7-2.3.5-.6 1.2-1 2.1-1.1 1.7-.2 3.2 1 3.4 2.7l1 8.5c.1.6 0 1.1-.3 1.6.9.6 3 1.4 3.7.9.2-.1.2-.3.2-.7v-.2l-1.6-12.5c-.6-4.2-2.6-6.3-5.9-6.3m-.2 7h-.2c-.5.1-1 .3-1.4.8-.3.4-.5 1-.5 1.5l1 8.5c.1.6.3 1 .8 1.4.4.3 1 .5 1.5.5.5-.1 1-.3 1.4-.8.3-.4.5-1 .5-1.5l-1-8.5c-.1-1.1-1-1.9-2.1-1.9" class="st1"/><path d="m154 154.4-6.1-11.1c-2.6-4.6-5.8-5.4-9.2-3.7h-.1c-4.6 2.4-4.5 7.3-3.1 9.8l6 11.4c1.2 2.6 4.2-.9 4.5-2.6 1.8.7 3.5-.7 3.5-1.9 1.2.5 6 .7 4.5-1.9m-4.8.3c.7 1.3.2 2.8-1.1 3.5s-2.8.2-3.5-1.1l-4-7.6c-.7-1.3-.2-2.8 1.1-3.5s2.8-.2 3.5 1.1z" class="st4"/><path d="M142.6 162.4c-.5 0-1.2-.2-1.6-1.2l-6-11.3c-1.5-2.9-1.4-8 3.3-10.5l.1-.1c2.7-1.4 6.7-1.9 9.9 3.9l6.1 11.1c.6 1 .4 1.6.1 2v.2l-.1-.1c-.9 1-3.3 1-4.5.8q-.3.9-1.2 1.5c-.7.5-1.6.6-2.4.5-.6 1.4-2.1 3.2-3.5 3.3 0-.1-.1-.1-.2-.1m-.7-23.1c-.9 0-1.9.3-3 .8l-.1.1c-4.2 2.2-4.2 6.7-2.9 9.2l6 11.4c.3.6.6.7.8.6 1-.1 2.3-1.7 2.7-2.8-.5-.3-1-.7-1.3-1.3l-4-7.6c-.8-1.5-.2-3.4 1.3-4.1 1.5-.8 3.4-.2 4.1 1.3l4 7.6c.3.5.4 1 .3 1.6 1.2.2 3.3.2 3.8-.5.1-.2.1-.4-.1-.7l-6.2-11.2c-1.4-2.9-3.3-4.4-5.4-4.4m.9 7c-.3 0-.6.1-1 .2-1 .5-1.4 1.8-.9 2.8l4 7.6c.3.5.7.9 1.2 1 .5.2 1.1.1 1.6-.1.5-.3.8-.7 1-1.2s.1-1.1-.1-1.6l-4-7.6c-.3-.7-1-1.1-1.8-1.1" class="st1"/><path d="m163.3 163.4-8.9-9c-3.7-3.8-7.1-3.7-9.9-1l-.1.1c-3.8 3.5-2.3 8.2-.4 10.3l8.9 9.3c1.8 2.2 3.8-2 3.7-3.7 1.9.2 3.2-1.6 2.9-2.8 1.2-.1 5.9-1.1 3.8-3.2m-4.6 1.6c1 1 .9 2.7-.1 3.6s-2.7.9-3.6-.1l-5.9-6.2c-1-1-.9-2.7.1-3.6 1-1 2.7-.9 3.6.1z" class="st4"/><path d="M154 174.2c-.4 0-.9-.2-1.5-.8l-8.8-9.3c-2.2-2.4-3.6-7.3.4-11l.1-.1c2.3-2.1 5.9-3.7 10.6 1l8.9 9c.8.8.8 1.5.6 1.9-.5 1.3-2.9 1.9-4.2 2.1 0 .6-.3 1.3-.8 1.8-.6.6-1.3 1-2.1 1.1-.2 1.5-1.2 3.7-2.5 4.2-.2 0-.4.1-.7.1m-5.3-22.2q-1.95 0-3.9 1.8l-.1.1c-3.4 3.2-2.3 7.6-.3 9.6l8.9 9.3c.4.5.7.5.9.4.9-.4 1.8-2.3 1.9-3.4-.6-.1-1.1-.4-1.6-.9l-5.9-6.2c-1.2-1.2-1.1-3.2.1-4.3.6-.6 1.4-.9 2.2-.8.8 0 1.6.4 2.1 1l5.9 6.2c.4.4.6.9.8 1.4 1.1-.1 3.2-.7 3.5-1.5.1-.2 0-.5-.4-.8l-8.9-9c-1.7-2-3.5-2.9-5.2-2.9m2.1 6.5c-.5 0-1 .2-1.4.6-.8.8-.9 2.1-.1 2.9l5.9 6.2c.8.8 2.1.9 2.9.1.4-.4.6-.9.7-1.4q0-.9-.6-1.5l-5.9-6.2c-.3-.5-.8-.7-1.5-.7q.15 0 0 0" class="st1"/><path d="M176 167.9v-1.2c0-14 1.5-17.1 1.9-17.9-5.7-4.6-37.6 11.9-37.6 11.9s.8.8 1.5 7.3c7.3.6 18.9 1 34.2-.1" class="st5"/><path d="M156.9 169.1c-6.3 0-11.4-.2-15.2-.5-.2 0-.4-.2-.5-.4-.6-6-1.3-7-1.3-7.1-.1-.1-.2-.3-.1-.4 0-.2.1-.3.3-.4 1.3-.7 32.3-16.6 38.2-11.9.2.1.2.4.1.6-1.5 3.1-1.9 11.3-1.9 17.6v1.2c0 .3-.2.5-.5.5-7.2.6-13.6.8-19.1.8m-14.7-1.5c7 .5 18.3.9 33.3-.2v-.7c0-8.9.6-14.9 1.8-17.7-5.1-2.9-27.4 7.4-36.3 11.9.3.8.8 2.6 1.2 6.7" class="st1"/><path d="M141.8 168.1c.5 5.1 1 15.3-.3 22.4 10.4 1 28.4 1 35.7-.6-1.1-9-1.1-15.9-1.2-22-15.4 1.1-26.9.7-34.2.2" class="st0"/><path d="M158.1 191.6c-5.9 0-12-.2-16.6-.7-.1 0-.3-.1-.4-.2s-.1-.3-.1-.4c1.2-6.4.9-16 .3-22.2v-.1c0-.3.3-.5.5-.5 7 .5 18.7.9 34.2-.2.1 0 .3 0 .4.1s.2.2.2.4c0 6.6.1 13.2 1.1 22 0 .3-.1.5-.4.5-4.1 1-11.6 1.3-19.2 1.3m-16-1.6c10.4.9 27.3.9 34.6-.5-1-8.3-1.1-14.8-1.1-21.1-14.9 1-26.2.7-33.2.2.5 6.1.7 15.1-.3 21.4" class="st1"/><path d="M122.9 151s-3.2 11.8 13.3 12.5c10.5-.6 27.1-13.3 38.3-13.8s16.3 3.9 17.7 7.9c1.3-4.1-.1-8.4-3.8-10.4-4.3-2.3-15.9-3.7-32.6 5.2-12 6.2-20.3 8.9-26 6.4-7.9-3.4-6.9-7.8-6.9-7.8" class="st0"/><path d="M136.2 164c-5.9-.3-10-1.9-12.2-5-2.7-3.7-1.6-8-1.5-8.2s.3-.4.5-.4.3.1.4.2.1.3.1.4c0 .2-.8 4.1 6.5 7.3 5.1 2.2 12.5.4 25.6-6.4 16.8-9.1 28.7-7.5 33-5.2 3.9 2.1 5.5 6.5 4.1 11-.1.2-.3.3-.5.3s-.4-.1-.5-.3c-1.3-4-6.6-8.1-17.2-7.6-5.6.3-12.7 3.7-19.6 7.1s-13.4 6.6-18.7 6.8m-12.9-9.5c.2 1.2.6 2.7 1.5 4 2 2.8 5.9 4.3 11.4 4.5 5-.3 11.4-3.4 18.3-6.7 7-3.4 14.2-6.9 20-7.1 11.7-.6 16 4.1 17.6 6.9.6-3.5-.9-6.7-3.9-8.4-4.2-2.2-15.6-3.7-32.1 5.2-13.4 6.9-21.1 8.8-26.5 6.5-3.6-1.6-5.4-3.4-6.3-4.9" class="st1"/><path d="M89.4 32c3.6 4.8-2.5 7.9-2.5 7.9s-4.7 2.9-11.3 7l-.1-.2-4.8-7.3L81 33s6.1-5.1 8.4-1m-14 14.6.1.2c-1.8 1.1-3.8 2.4-5.9 3.7l-4.8-7.6 5.8-3.6z" class="st2"/><path d="m64.8 42.9 4.8 7.6c-12.5 7.8-27.9 17.4-31.9 20-11.4 7.5-13 8.1-9.1 18.7 2.7 7.6 21.3 58.5 21.3 58.5s6.2 3.1 8.1 7.7c4.3 10-11.6 16-11.6 16 1.6-4.2.3-8.7-2.5-15.2-3-4.8-27.2-73.5-27.2-73.5-2.9-9.6 5.7-13.7 5.7-13.7z" class="st0"/><path d="M46.5 171.9c-.1 0-.3-.1-.4-.1-.1-.1-.2-.3-.1-.5 1.6-4.1.3-8.5-2.5-14.8-3-4.7-26.2-70.7-27.2-73.5-3-9.9 5.8-14.2 5.9-14.3l58.5-36c.1-.1 3.8-3.1 6.7-2.6q1.5.3 2.4 1.8c1 1.4 1.4 2.8 1.1 4.3-.7 2.7-3.7 4.3-3.8 4.3L69.9 50.9h-.1C57.5 58.6 42 68.3 38 70.9l-1.1.7c-10.3 6.8-11.4 7.5-7.8 17.4 2.6 7.3 20 55 21.3 58.3 1.1.6 6.3 3.6 8.2 7.9 1 2.4 1 4.7.1 7-2.6 6.1-11.6 9.6-12 9.7zM64.6 43.6 22.7 69.5c-.4.2-8.2 4-5.4 13.1.2.7 24.2 68.7 27.1 73.4 2.7 6.1 4 10.5 2.9 14.6 2.4-1.1 8.5-4.2 10.4-8.8.8-2 .8-4.1-.1-6.2-1.9-4.4-7.9-7.4-7.9-7.5-.1-.1-.2-.2-.2-.3-.2-.5-18.6-51-21.3-58.5-3.8-10.6-2.2-11.7 8.2-18.5l1.1-.7c3.9-2.6 19.2-12.1 31.4-19.7zm.9-.5 4.3 6.7 16.8-10.4c.1 0 2.8-1.4 3.3-3.7.3-1.1 0-2.3-.9-3.5-.4-.8-1-1.2-1.7-1.3-2.5-.4-5.9 2.4-5.9 2.4z" class="st1"/><path d="M75.4 47.1c-.2 0-.3-.1-.4-.2l-4.8-7.3c-.2-.2-.1-.5.1-.7s.5-.1.7.1l4.8 7.3c.2.2.1.5-.1.7-.1.1-.2.1-.3.1" class="st1"/><path d="M85.7 35c.4-.3.7-.4.7-.4s-.3.1-.7.4" class="st3"/><path d="m86 35.4-.5-.8.7-.4.5.8s-.3.2-.7.4" class="st1"/><path d="M113.6 20.2c-.9-3.2-4.5-4.5-8.2-3.8-.3 2.1-.8 4-1.3 5.2.6-1.2 1-3.1 1.3-5.2.1-.1.2 0-.1.1.3-.1.1-.1.1-.1.9-5.7.7-13.1-1.6-13.9-1.3-.4-3 .1-3.7 2 1.1 1.8 1.1 4.6 1.1 4.6s-.1-2.8-1.1-4.6c0 0-.1-.4.1-.4.1 0-.2.6-.1.4-.6-1.1-1.7-1.8-3.3-1.1-2.7 1.1-.4 6.3-.3 9.8.1 5.3-3.6 7.5-3.6 7.5s-1.6-5.6-4-8.2c-1.4-1.5-3-2.5-4.8-1.3-1.9 2.8 1.4 4.4 2.9 7.6 0 0 1.9 3.4 1.1 6.7-.7 2.8-3.6 5.1-3.6 5.1L72.7 38s2.1 1.5 4.7 1.1c2.3-.3 6.7-3 8.3-4.1.4-.3.7-.4.7-.4s-.2.2-.7.4c-1.5 1-5.3 3.6-6.5 5.1-1.5 1.9-.4 4.8-.4 4.8s8.7-5.6 12.1-7.1c5.8-2.7 4.2 5.1 11.1 4.1 6.8-1 7.4-9.1 5.6-10.3-.8-.5-1.5-.6-2-.3-.7.4-1.3 1.5-1.5 2 .4-1.2 1-1.7 1.5-2-.9.5-1.5 1.9-1.9 3.2-.5 2-2.7 2.9-2.7 2.9s-.2-2.7-1.5-4.2c-1.4-1.5-4.1-1.5-4.1-1.5s2.7 0 4.1 1.5 1.5 4.2 1.5 4.2 2.2-.8 2.7-2.9c.3-1.3.9-2.7 1.9-3.2.4-3.7-1-9.5 2.2-9.3 3.4-.3.2 6.2 1.5 8.5 1.2 2 3.3.7 3.9-.9 1.1-2.7 1.2-6.7.4-9.4" class="st3"/><path d="M78.8 45.4h-.2c-.1 0-.3-.2-.3-.3-.1-.1-1.2-3.3.5-5.3.2-.3.5-.5.8-.9-.8.3-1.5.6-2.2.6-2.9.4-5-1.1-5.1-1.2s-.2-.3-.2-.4c0-.2.1-.3.2-.4l11.9-7.3s2.7-2.2 3.3-4.8c.7-3.1-1.1-6.3-1.1-6.4q-.75-1.5-1.8-2.7c-1.3-1.7-2.6-3.3-1.1-5.5l.1-.1c2.5-1.8 4.8.6 5.5 1.3 2 2.1 3.4 6.1 3.9 7.7 1-.8 2.9-2.9 2.8-6.6 0-1.1-.3-2.3-.5-3.6-.5-2.9-1.1-5.8 1.1-6.7 1.3-.5 2.5-.3 3.4.6 1-1.6 2.7-2 4-1.6 2.8 1 2.8 8.7 2.1 13.8 4-.5 7.2 1.2 8.1 4.3.8 2.9.7 7-.4 9.6-.4 1-1.5 2.1-2.7 2.2-.9 0-1.6-.4-2.1-1.3-.6-1.1-.4-2.8-.2-4.4.2-1.4.4-3.1-.1-3.6-.1-.1-.2-.2-.8-.2-.5 0-.8.1-1 .3-.8.8-.7 2.9-.7 5 0 1 .1 2 0 2.9.5 0 1.1.1 1.8.5 1 .7 1.4 2.7.9 4.9-.8 3.5-3.3 5.8-6.7 6.3-3.7.5-5.2-1.3-6.4-2.8s-2-2.5-4.6-1.3c-3.3 1.5-11.9 7-12 7.1 0 .3-.1.3-.2.3m7.2-10c-1.2.8-5.2 3.5-6.4 5-.9 1.2-.7 2.8-.5 3.7 2-1.3 8.6-5.5 11.6-6.8 3.3-1.5 4.6.1 5.8 1.6 1.1 1.4 2.3 2.9 5.5 2.4 4.3-.6 5.5-4.1 5.8-5.5.5-2 0-3.6-.5-3.9q-.9-.6-1.5-.3h-.1c-.1 0-.1.1-.2.1-.5.4-.8 1.1-1 1.6 0 0 0 .1-.1.1-.1.3-.2.6-.3 1-.6 2.3-2.9 3.2-3 3.2h-.3c-.2 0-.3-.2-.4-.3v-.1s-.2-2.6-1.4-3.9-3.7-1.4-3.7-1.4c-.3 0-.5-.2-.5-.5 0-.1.1-.2.1-.3.1-.1.2-.1.3-.1s3 0 4.4 1.7c1 1.1 1.4 2.8 1.6 3.8.6-.4 1.5-1.1 1.8-2.2q.15-.9.6-1.8c.3-.7.7-1.2 1.3-1.6.1-1 .1-2.1 0-3.2-.1-2.4-.1-4.7 1-5.7.4-.4 1-.6 1.7-.6.6-.1 1.2.1 1.5.5.8.9.6 2.6.3 4.4-.2 1.4-.4 3 0 3.8.3.5.7.8 1.2.8.7 0 1.5-.7 1.9-1.6 1-2.4 1.2-6.2.4-8.9-.9-3-4.3-3.9-7.3-3.5-.3 2.1-.8 3.8-1.3 5-.1.3-.4.4-.7.3s-.4-.4-.3-.7c.5-1.1.9-2.7 1.2-4.7 0-.2 0-.3.1-.4 1-6.5.4-12.6-1.3-13.2-1-.4-2.3.1-3 1.5.9 1.8 1 4.3 1.1 4.6.1.6.9 7.4-1.9 12.5-.1.2-.4.3-.7.2-.2-.1-.3-.4-.2-.7 2.7-4.8 1.8-11.7 1.8-11.9 0-.1-.1-2.5-.9-4.2-.1-.1-.1-.2-.2-.3-.6-1-1.5-1.3-2.6-.8-1.5.6-1 3-.5 5.6.2 1.3.5 2.6.5 3.7.1 5.5-3.6 7.8-3.8 7.9-.1.1-.3.1-.4 0s-.3-.2-.3-.3-1.6-5.5-3.9-8c-1.6-1.7-2.9-2.1-4.1-1.3-1 1.5-.3 2.5 1.1 4.2.6.8 1.4 1.7 1.9 2.8.1.1 2 3.6 1.2 7.1-.7 3-3.6 5.3-3.7 5.4l-11.2 6.9c.8.4 2.1.8 3.7.6 2.2-.3 6.8-3.1 8.1-4 .4-.3.7-.4.7-.4.2-.1.5-.1.7.1.1.2.1.5-.1.7.1-.1-.2.1-.6.3" class="st1"/><path d="m94.7 26.5-.8 2.9 41.1 12 .9-2.9z" class="st1"/><path d="M135 41.9h-.1l-41.1-12q-.45-.15-.3-.6l.8-2.9c0-.1.1-.2.2-.3s.3-.1.4 0L136.1 38c.1 0 .2.1.3.2s.1.3 0 .4l-.9 2.9c-.1.2-.3.4-.5.4M94.5 29.1l40.1 11.7.6-2L95 27.1z" class="st1"/><path d="m144.4 40.9-8.4-2.4-.9 2.9 8.5 2.5z" class="st3"/><path d="m143.8 44.4-9.5-2.7 1.2-3.9 9.4 2.7zm-8.2-3.4 7.5 2.2.6-2-7.5-2.2z" class="st1"/><path d="M70.2 138.8s9.9 9.9 18.6 9c9.6-1 4.7-7.5 4.4-7.5 0 0 2.8-1.8 2.8-4.6.1-2.8-3.9-3.6-4.2-3.5 0 0 3.9-2.8 1.7-5.7-2.3-3-13.8-2.7-23.2 6.5-3.7 3.6-.1 5.8-.1 5.8" class="st5"/><path d="M87.7 148.3c-8.4 0-17.1-8.5-17.8-9.2-.3-.2-1.5-1.1-1.7-2.6-.2-1.3.5-2.6 1.8-4 6.7-6.6 14.6-8.6 19.2-8.3 2.2.2 3.9.8 4.7 1.9.7.9.9 1.8.8 2.8-.2 1.3-1 2.3-1.7 3 .7.2 1.7.6 2.4 1.2.8.7 1.2 1.6 1.2 2.6-.1 2.3-1.7 3.9-2.6 4.6.3.3 1.9 2.7 1 4.9-.7 1.7-2.8 2.7-6.1 3-.4.1-.8.1-1.2.1m-17.1-9.9c.7.7 10 9.6 18.2 8.8 3.1-.3 4.9-1.2 5.3-2.7.5-1.6-.8-3.5-1.1-3.8-.1-.1-.2-.2-.2-.3-.1-.2 0-.5.2-.6 0 0 2.5-1.7 2.6-4.2 0-.6-.2-1.1-.6-1.6-1-1-2.7-1.4-3-1.4-.2 0-.4-.1-.5-.3s0-.5.2-.6c0 0 1.9-1.3 2.1-3 .1-.7-.1-1.4-.6-2-.6-.8-2.1-1.3-4-1.5-4.4-.3-11.9 1.6-18.4 8-1.1 1.1-1.7 2.2-1.6 3.1.1 1.2 1.3 1.9 1.3 1.9 0 .2.1.2.1.2" class="st1"/><path d="M34 215s12.2 18.8 39.3 11.9C70.3 216 63 198.6 63 198.6z" class="st3"/><path d="M61.8 228.9c-19.1 0-28.1-13.5-28.2-13.6l-.3-.4 29.9-17 .2.5c.1.2 7.3 17.6 10.4 28.4l.1.5-.5.1c-4.2 1-8 1.5-11.6 1.5m-27-13.7c.9 1.2 3.9 4.9 9.1 8 5.7 3.4 15.3 6.7 28.9 3.4-2.8-9.7-8.7-24.3-10-27.2z" class="st1"/><path d="M36.5 207.5s12.2 18.8 39.3 11.9c-3.1-10.8-10.3-28.3-10.3-28.3z" class="st3"/><path d="M64.3 221.4c-19.1 0-28.1-13.5-28.2-13.6l-.3-.4 29.9-17 .2.5c.1.2 7.3 17.6 10.4 28.4l.1.5-.5.1c-4.2 1.1-8.1 1.5-11.6 1.5m-27.1-13.7c.9 1.2 3.9 4.9 9.1 8 5.7 3.4 15.3 6.7 28.9 3.4-2.8-9.7-8.7-24.3-10-27.2z" class="st1"/><path d="M38 200.1s12.2 18.8 39.3 11.9C74.2 201.1 67 183.6 67 183.6z" class="st3"/><path d="M65.8 214c-19.1 0-28.1-13.5-28.2-13.6l-.3-.4 29.9-17 .2.5c.1.2 7.3 17.6 10.4 28.4l.1.5-.5.1c-4.2 1-8.1 1.5-11.6 1.5m-27.1-13.8c.9 1.2 3.9 4.9 9.1 8 5.7 3.4 15.3 6.7 28.9 3.4-2.8-9.7-8.7-24.3-10-27.2z" class="st1"/><path d="M46.9 167.9c-1 8.9 1.2 26.2-36.4 57.8 30.2 1.8 51.3-24.7 51.3-24.7s9.6 2.7 8.6 40c21.9-21.3 17.8-77.5 17.8-77.5s-40.3-4.5-41.3 4.4" class="st0"/><path d="M69.9 242.2V241c.9-32.6-6.4-38.5-8-39.4-2.4 2.9-21.7 24.7-48.6 24.7-1 0-1.9 0-2.9-.1l-1.3-.1 1-.8c34-28.5 35.3-45.6 36-54.8 0-.4.1-.9.1-1.3l.2-1.4c1-9.1 37.7-5.3 41.9-4.8h.4v.4c0 .6 3.8 56.6-18 77.9zm-8.3-41.8.3.1c.4.1 9.8 3.1 9 39.3C90.4 219.2 88 169.1 87.7 164c-11.3-1.2-39.3-2.8-40.4 3.9v.1c-.1.8-.2 1.7-.2 2.6-.7 9.2-2 26.3-35.4 54.7 29 1 49.4-24.3 49.6-24.6z" class="st1"/><path d="m60.5 151.1 3.8 36.9c5.6-11.9 7.4-28.8 8.2-34.6-5.9-1.2-11.8-2.3-12-2.3" class="st2"/><path d="M64.3 188.6s-.1 0 0 0c-.3 0-.5-.2-.5-.4l-3.8-37c0-.1 0-.3.1-.4s.2-.2.4-.2c.4 0 2.2.3 12 2.3.3.1.4.3.4.6l-.1 1.1c-.8 6.7-2.8 22.4-8.1 33.7 0 .2-.2.3-.4.3m-3.2-36.9 3.5 34.5c4.7-11 6.5-25.4 7.2-31.7l.1-.6c-7.1-1.5-9.8-2-10.8-2.2" class="st1"/><path d="M84.8 156s-6.2-1.3-12.3-2.5c-.7 5.9-2.6 22.4-8.3 34.3l.2.2z" class="st2"/><path d="M64.4 188.4c-.1 0-.3-.1-.4-.1l-.2-.2c-.1-.1-.2-.4-.1-.6 5.4-11.4 7.4-27.5 8.1-33.5l.1-.6c0-.1.1-.3.2-.3.1-.1.3-.1.4-.1 5.8 1.2 11.7 2.4 12.3 2.5h.1c.2.1.4.3.4.5 0 .1 0 .2-.1.3l-20.4 31.9c-.1.1-.2.2-.4.2m8.5-34.4c-.7 6-2.3 18.8-6.5 29.7L84 156.3c-1.8-.3-6.4-1.3-11.1-2.3" class="st1"/><path d="m69 147.5-2.5 13.1c1.9.5 4 .8 6.3.7l.4-13.9z" class="st4"/><path d="M71.8 161.8c-1.9 0-3.7-.2-5.5-.7-.3-.1-.4-.3-.4-.6l2.5-13.1c0-.2.3-.4.5-.4l4.1-.2c.1 0 .3 0 .4.1s.2.2.1.4l-.4 13.9c0 .3-.2.5-.5.5-.2.1-.5.1-.8.1m-4.8-1.6c1.7.4 3.5.6 5.2.5l.4-12.9-3.2.1z" class="st1"/><path d="m62.6 147.8-5.4 7.8s3.4 3.5 9.3 5l2.5-13.1z" class="st4"/><path d="M66.5 161.1h-.1c-5.9-1.5-9.4-5-9.5-5.1-.2-.2-.2-.4-.1-.6l5.4-7.8c.1-.1.2-.2.4-.2l6.4-.4c.2 0 .3.1.4.2s.1.3.1.4L67 160.7c0 .1-.1.3-.2.3-.2.1-.3.1-.3.1m-8.7-5.5c.9.8 3.8 3.2 8.2 4.4l2.3-11.9-5.5.3zm4.8-7.8" class="st1"/><path d="M85.1 157.3C80.9 155.8 81 147 81 147l-5.5.3 3.5 12.9c2-.7 4-1.6 6.1-2.9" class="st4"/><path d="M79 160.6c-.1 0-.2 0-.2-.1-.1-.1-.2-.2-.2-.3l-3.5-12.9c0-.1 0-.3.1-.4s.2-.2.4-.2l5.5-.3c.1 0 .3 0 .4.1s.2.2.2.4c0 .1-.1 8.5 3.7 9.9.2.1.3.2.3.4s-.1.4-.2.5c-2 1.2-4.1 2.2-6.2 2.8-.2.1-.2.1-.3.1m-2.8-12.9 3.2 11.8c1.6-.5 3.1-1.2 4.7-2.1-3.1-2-3.5-8-3.5-9.8z" class="st1"/><path d="m75.6 147.2-2.4.1-.4 13.9c2-.1 4.1-.4 6.3-1.2z" class="st4"/><path d="M72.7 161.8c-.1 0-.3-.1-.4-.1-.1-.1-.2-.2-.1-.4l.4-13.9c0-.3.2-.5.5-.5l2.4-.1c.2 0 .4.1.5.4l3.5 12.9c.1.3-.1.5-.3.6-2.2.6-4.3 1-6.5 1.1q.15 0 0 0m.9-14-.4 12.9c1.7-.1 3.4-.4 5.2-1l-3.2-12z" class="st1"/><path d="m64.7 141.9-4.9 10.4s3.6 2 9 2.7l2.4-12.8c-3-.2-6.5-.4-6.5-.3" class="st4"/><path d="M68.8 155.4s-.1 0 0 0c-5.5-.7-9-2.6-9.2-2.7s-.3-.4-.2-.7l4.9-10.4c0-.1.1-.1.1-.2.1-.1.2-.2.4-.1 0 0 3.5.2 6.4.3.1 0 .3.1.4.2s.1.3.1.4L69.3 155c-.1.3-.3.4-.5.4m-8.3-3.3c1 .5 4 1.8 7.9 2.3l2.2-11.8c-2.2-.1-4.7-.2-5.5-.2z" class="st1"/><path d="M71.2 142.1 68.8 155c2.2.3 4.7.3 7.4 0L74 142c-1.7 0-1.1.2-2.8.1" class="st4"/><path d="M72.3 155.7c-1.2 0-2.4-.1-3.6-.2-.1 0-.3-.1-.3-.2s-.1-.3-.1-.4l2.4-12.8c0-.1 0-.2.1-.3s.3-.2.5-.2c.8 0 1 0 1.3-.1.3 0 .6-.1 1.5-.1.2 0 .4.2.5.4l2.2 12.9c0 .1 0 .3-.1.4s-.2.2-.3.2c-1.4.3-2.7.4-4.1.4m-2.9-1.2q3.15.3 6.3 0l-2.1-12c-.5 0-.7 0-.9.1-.2 0-.5.1-1.1.1z" class="st1"/><path d="M80.6 142.2c-.6 0-4.1-.1-6.6-.2l2.2 12.9c2.1-.3 4.3-.9 6.6-1.9.1-4.3-.9-9.4-2.2-10.8" class="st4"/><path d="M76.2 155.4c-.2 0-.5-.2-.5-.4l-2.2-12.9c0-.1 0-.3.1-.4s.3-.2.4-.2c1.1 0 2.5.1 3.6.1 1.4.1 2.7.1 3 .1.1 0 .3 0 .4.2 1.5 1.6 2.4 7.1 2.3 11.2 0 .2-.1.4-.3.4-2.2.9-4.4 1.6-6.8 1.9.1 0 0 0 0 0m-1.6-12.9 2 11.8c2-.3 3.9-.9 5.7-1.6 0-4-.8-8.6-1.9-10-.5 0-1.6 0-2.8-.1-1 0-2-.1-3-.1" class="st1"/><path d="m69.1 135.4-2.5 13.1c1.9.5 4 .8 6.3.7l.4-13.9z" class="st4"/><path d="M71.9 149.7c-1.9 0-3.7-.2-5.5-.7-.3-.1-.4-.3-.4-.6l2.5-13.1c0-.2.3-.4.5-.4l4.1-.2c.1 0 .3 0 .4.1s.2.2.1.4l-.4 13.9c0 .3-.2.5-.5.5-.2.1-.5.1-.8.1m-4.8-1.6c1.7.4 3.5.6 5.2.5l.4-12.9-3.2.1z" class="st1"/><path d="m62.7 135.7-5.4 7.8s3.4 3.5 9.3 5l2.5-13.1z" class="st4"/><path d="M66.5 149h-.1c-5.9-1.5-9.4-5-9.5-5.1-.2-.2-.2-.4-.1-.6l5.4-7.8c.1-.1.2-.2.4-.2l6.4-.3c.1 0 .3.1.4.2s.1.3.1.4l-2.5 13c0 .1-.1.3-.2.3-.1.1-.2.1-.3.1m-8.6-5.5c.9.8 3.8 3.2 8.2 4.4l2.3-11.9-5.5.3zm4.8-7.8" class="st1"/><path d="M84.8 144.4c-6.3-3.2-7.8-8-7.8-8l-1.4-1.3 3.5 12.9c2-.6 3.6-2.3 5.7-3.6" class="st4"/><path d="M79.1 148.5c-.1 0-.2 0-.2-.1-.1-.1-.2-.2-.2-.3l-3.5-12.9c-.1-.2 0-.4.2-.6.2-.1.4-.1.6.1l1.4 1.3c.1.1.1.1.1.2 0 0 1.5 4.6 7.5 7.7l.3.3c.1.2 0 .4-.2.6-.8.5-1.5 1-2.2 1.5-1.2.9-2.3 1.7-3.5 2.1-.2.1-.2.1-.3.1m-2.5-11.8 2.9 10.7c.9-.4 1.8-1.1 2.8-1.8.5-.4 1-.8 1.6-1.1-5.4-3-7-7-7.3-7.8" class="st1"/><path d="m75.6 135.1-2.4.1-.4 13.9c2-.1 4.1-.4 6.3-1.2z" class="st4"/><path d="M72.8 149.7c-.1 0-.3-.1-.4-.1-.1-.1-.2-.2-.1-.4l.4-13.9c0-.3.2-.5.5-.5l2.4-.1c.2 0 .4.1.5.4l3.5 12.9c.1.3-.1.5-.3.6-2.2.6-4.3 1-6.5 1.1m.9-14-.4 12.9c1.7-.1 3.4-.4 5.2-1l-3.2-12z" class="st1"/><path d="M58.8 141.2c-7.5 3.1-13.4 9.7-13.4 9.7s5.4 0 9.7 1.4c-3.7 1.2-8.3 4.4-8.3 4.4s8.6 9.8 17.5 31.9c1.6-10 2.6-45.4-5.5-47.4" class="st6"/><path d="M64.2 188.9c-.2 0-.4-.1-.5-.3-8.7-21.7-17.3-31.6-17.4-31.7s-.1-.2-.1-.4c0-.1.1-.3.2-.4.2-.1 3.6-2.5 7-3.9-3.8-.9-8-.9-8-.9-.2 0-.4-.1-.5-.3s0-.4.1-.5c.2-.3 6.1-6.7 13.6-9.8h.3c9 2.2 7.3 39.3 5.8 47.8 0 .2-.2.4-.5.4m-16.7-32.2c1.7 2.1 9 11.6 16.5 29.9.7-5.7 1.2-15.7.7-24.6-.6-12.1-2.7-19.2-5.9-20.2-5.7 2.4-10.5 6.8-12.3 8.7 1.8.1 5.5.3 8.7 1.3.2.1.3.3.3.5s-.1.4-.3.5c-2.9.8-6.5 3-7.7 3.9" class="st1"/><path d="M82.7 142.8c-3.1 15.6-5.8 26.7-18.4 45.5 19.7-11.9 30.2-32.1 30.2-32.1s-3.7-2.5-9.7-2.7c4.1-3.7 12.4-3.4 12.4-3.4s-5.7-7.6-14.5-7.3" class="st6"/><path d="M64.3 188.8c-.1 0-.3-.1-.4-.2-.2-.2-.2-.4-.1-.6 12.5-18.7 15.2-29.6 18.3-45.3 0-.2.2-.4.5-.4 9-.3 14.7 7.2 15 7.5.1.2.1.4 0 .5-.1.2-.3.3-.5.3-.1 0-6.9-.2-11 2.5 5.2.5 8.4 2.6 8.6 2.7s.3.4.2.6-10.9 20.5-30.4 32.3c0 .1-.1.1-.2.1m18.8-45.5c-3 15.1-5.7 25.8-17.1 43.4 16.6-10.8 26.3-27.5 27.9-30.3-1.1-.6-4.4-2.3-9-2.4-.2 0-.4-.1-.5-.3s0-.4.1-.5c3.3-3 9.2-3.5 11.6-3.5-1.7-1.9-6.5-6.5-13-6.4" class="st1"/><path d="M63.5 197.8c2.2 0 4.1-1.9 4.1-4.2s-1.8-4.2-4.1-4.2c-2.2 0-4.1 1.9-4.1 4.2.1 2.3 1.9 4.2 4.1 4.2" class="st4"/><path d="M63.5 198.3c-2.5 0-4.6-2.1-4.6-4.7s2-4.7 4.6-4.7c2.5 0 4.6 2.1 4.6 4.7s-2.1 4.7-4.6 4.7m0-8.4c-2 0-3.6 1.7-3.6 3.7s1.6 3.7 3.6 3.7 3.6-1.7 3.6-3.7-1.6-3.7-3.6-3.7" class="st1"/><path d="M70.9 124.4c1.2 2.1 4.4 2.7 7.5 2.7q2.1 0 3.6-.6c4-1.7 4-6.3 4-7.3v-8.3l.5-17s3.3-10.4 2.7-15.1c-.7-4.7-5.1-12.4-14.2-12.5-9.1-.2-21.5 4.4-23 13.2s-3.6 25.8-.5 32.9 6.6 16.6 7.6 22.5 4.1 4.9 13.4 3.7c7.1-2.5 11.4-13.1 11.4-13.1" class="st7"/><path d="M64 140c-3.2 0-4.9-1.1-5.5-5-1.3-7.3-6.1-19-7.6-22.4-3.6-8.3-.2-29.1.5-33.1 1.7-9.6 15-13.8 23.5-13.6 9.4.2 14 8 14.7 13 .7 4.7-2.3 14.3-2.7 15.3l-.5 16.9v8.3c0 2.7-.8 4.9-2.3 6.4-.2.4-4.4 10.8-11.6 13.4h-.1l-2.4.3c-2.4.2-4.4.5-6 .5m10.2-73.2c-13.4 0-21 7.6-21.9 12.8-.7 4-4 24.5-.5 32.6 1.5 3.4 6.4 15.2 7.7 22.6.8 4.9 2.9 4.6 10.4 3.6.7-.1 1.5-.2 2.3-.3 5.2-1.9 8.9-8.4 10.3-11.3-.1.1-.3.1-.4.2-1.1.5-2.3.7-3.8.7-2.3 0-6.5-.4-7.9-3-.1-.2 0-.5.2-.7.2-.1.5 0 .7.2 1.2 2.2 4.9 2.5 7.1 2.5 1.3 0 2.4-.2 3.4-.6 2.4-1 3.7-3.4 3.7-6.8V111l.5-17.2c0-.1 3.3-10.3 2.6-14.9s-5-11.9-13.7-12.1z" class="st1"/><path d="M52.7 106.2c.8 4.4 5.6 10.1 3.7 15.4-2.3 6.4-8.7 3.8-8.7 3.8 3.4-1.4 4.4-4.8 4.4-4.8-2.2 2.8-5.7 1.1-5.7 1.1 3.2 0 3.6-5.3 3.6-5.3-12.2 1.3-7.4-14.6-7-21.9.4-7.4-6.1-8.9-4.4-16.5s9.9-7 15.2-9.3 9.3-14.3 23-12c17.9 3 13.1 16.9 13.1 16.9s4.2.6 4 7c-.2 6.3-5.7 8.9-7.4 13.5-1.3-1.7 3.5-14.9-1.6-19-6.6 5.1-19.6-3.8-25.9 4.4-5.8 6.2-1 13.8-1 19.5s-7.9 7.6-7.9 7.6" class="st8"/><path d="M50.6 126.4c-1.7 0-3.1-.6-3.1-.6-.2-.1-.3-.3-.3-.5s.1-.4.3-.5c1.5-.6 2.6-1.7 3.2-2.7-1.7.7-3.6.3-4.5-.2q-.3-.15-.3-.6c.1-.2.3-.4.5-.4 2.1 0 2.8-2.9 3-4.2-2.6.1-4.6-.5-5.9-1.9-3.2-3.3-2.3-10.3-1.5-16 .2-1.7.5-3.3.5-4.7.2-3.3-1.1-5.4-2.4-7.4-1.5-2.4-3-4.9-2.1-9.1 1.3-5.8 6.3-7.1 10.8-8.2 1.7-.4 3.3-.8 4.7-1.4 1.5-.7 3-2.3 4.7-4.1 3.9-4.3 8.9-9.6 18.6-8 6.1 1 10.3 3.4 12.5 7 2.4 4.1 1.6 8.5 1.2 10 1.2.4 4.1 2 3.9 7.3-.1 4-2.2 6.5-4.3 8.9-1.3 1.5-2.5 3-3.2 4.7-.1.2-.2.3-.4.3s-.4 0-.5-.2c-.5-.7-.3-2.3.1-5.3.6-4.5 1.5-10.7-1.3-13.4-3.1 2.1-7.4 1.6-11.6 1.1-5.2-.6-10.6-1.3-13.9 3-3.8 4.3-2.8 9.1-1.7 13.7.5 2 .9 3.9.9 5.6 0 3.7-2.9 5.8-5.3 7v.1c.3 1.4 1 3.1 1.8 4.8 1.5 3.4 3.2 7.2 1.9 10.9-.7 2-1.9 3.4-3.6 4.1-.9.8-1.8.9-2.7.9m-1.6-1.2c1 .2 2.5.3 3.9-.3s2.4-1.8 3-3.5c1.2-3.3-.4-6.8-1.9-10.1-.8-1.7-1.5-3.3-1.8-4.9-1.1.5-2 .7-2.1.7-.3.1-.5-.1-.6-.4s.1-.5.4-.6c.1 0 7.5-1.9 7.5-7.1 0-1.6-.4-3.5-.9-5.4-1.1-4.6-2.2-9.9 1.9-14.5 3.6-4.7 9.3-4.1 14.8-3.4 4.3.5 8.4 1 11.2-1.1q.3-.15.6 0c3.6 2.9 2.6 9.6 1.9 14.5-.1 1-.3 2.2-.4 3 .7-1.2 1.6-2.3 2.6-3.4 1.9-2.3 3.9-4.7 4-8.3.2-5.8-3.4-6.4-3.6-6.5-.1 0-.3-.1-.4-.2s-.1-.3 0-.4c0-.1 1.7-5.2-.9-9.7-2-3.4-6-5.6-11.8-6.5-9.2-1.6-13.9 3.6-17.7 7.7-1.8 1.9-3.3 3.6-5 4.3-1.5.6-3.2 1.1-4.9 1.5-4.4 1.1-8.9 2.2-10 7.4-.9 3.8.5 6 1.9 8.4 1.3 2.2 2.7 4.4 2.5 8-.1 1.4-.3 3-.5 4.7-.7 5.4-1.7 12.2 1.2 15.1 1.3 1.3 3.1 1.8 5.7 1.5.1 0 .3 0 .4.1s.2.2.1.4c0 .2-.3 3.9-2.4 5.2 1.1.2 2.5 0 3.6-1.4.1-.2.4-.2.6-.1q.3.15.3.6c.3.3-.5 3.1-3.2 4.7" class="st1"/><path d="M85.8 115.1c-.9-.6-2.1-2.7-3.6-2.7-1.6 0-3 1.2-3.9 2.4 0 0-1.2-2.6-4.3-2.7-3.2-.1-5.8 2.5-6.5 2.8 0 0 2.2 5.9 10.4 6.1 4.4 0 6.5-3.6 8.1-5.3" class="st9"/><path d="M77.8 121.6c-8.5-.2-10.9-6.4-10.9-6.4l-.2-.4.4-.2c.1-.1.4-.3.7-.5 1.2-.9 3.4-2.5 6-2.4 2.4.1 3.8 1.5 4.4 2.4.8-.9 2.2-2.1 3.8-2.1 1.3 0 2.2 1.1 3 1.9.3.4.7.7.9.9.2.1.3.4.2.7.2.2.2.5 0 .7-.3.3-.6.6-.9 1-1.4 1.8-3.5 4.4-7.4 4.4m-9.8-6.5c.6 1.3 3.1 5.2 9.8 5.4 3.4 0 5.3-2.3 6.8-4.1.3-.4.6-.7.8-1-.3-.2-.7-.6-1-1-.7-.7-1.4-1.6-2.3-1.6-1.6 0-2.9 1.4-3.5 2.2l-.5.7-.3-.8c0-.1-1.1-2.4-3.9-2.4-2.3 0-4.2 1.4-5.4 2.2-.2.2-.3.3-.5.4" class="st1"/><path d="M61.5 94.1s.8-.4 2.3-.3 18.1 1.4 22.6.2c0 0 5-.2 5 4.6 0 4.9-3.1 4.4-3.1 4.4s-5.6 1.7-10.4-.6c-3.8-1.8-2.5-7.9-2.5-7.9" class="st3"/><path d="M83.7 104.1c-1.8 0-4-.3-6-1.2-3.6-1.7-3.1-6.6-2.8-8-4.1-.1-8.3-.4-10.9-.6h-.2c-1.3-.1-2.1.3-2.1.3-.2.1-.5 0-.7-.2-.1-.2 0-.5.2-.7 0 0 1-.5 2.6-.4h.2c5.4.4 18.4 1.2 22.2.2h.1c.1 0 2.5-.1 4.1 1.5.9.9 1.4 2.1 1.4 3.7 0 2-.5 3.4-1.4 4.2-.8.7-1.7.8-2.1.7-.4.1-2.2.5-4.6.5m-7.8-9.2c-.2 1-.8 5.7 2.2 7.1 4.6 2.2 10 .6 10.1.6h.2s.8.1 1.4-.5c.7-.6 1.1-1.8 1.1-3.4 0-1.3-.4-2.3-1.1-3-1.2-1.1-3-1.2-3.3-1.2-2 .4-6.2.5-10.6.4" class="st1"/><path d="M77.4 98.4s.4 2.3-1.4 5.1c-1.2 0-.4-.1-.7-.1-2.4 0-3.2 2-3.2 3 0 .9.2 3.8 7.4 3.8 11.6 0 11.6.1 11.4.1 0 0 4.2.3 4.2-2.1 0-3.7-13.1-6.4-17.7-9.8" class="st7"/><path d="M91.3 110.8h-.5c-.1 0-1.4-.1-11.4-.1-6.5 0-7.9-2.3-7.9-4.3 0-1.1.9-3.5 3.7-3.5h.4c1.5-2.5 1.2-4.5 1.2-4.5v-1.1l.8.6c1.8 1.3 4.9 2.5 8 3.7 5.1 2 10 3.9 10 6.5 0 .6-.2 1.2-.7 1.6-1 1-2.7 1.1-3.6 1.1m-.4-1c.7 0 2.5 0 3.3-.7.3-.2.4-.5.4-.9 0-1.9-5-3.8-9.3-5.6-2.7-1.1-5.5-2.1-7.4-3.3-.1 1-.4 2.6-1.5 4.4l-.2.2h-.3c-.3 0-.5 0-.7-.1-2.1 0-2.6 1.8-2.6 2.5 0 2.7 3.7 3.3 6.9 3.3 8 .1 10.5.1 11.4.2" class="st1"/><path d="M78.3 106.2c-.2 0-.4-.1-.5-.3-.6-1.7-1.9-1.9-2-1.9-.3 0-.5-.3-.4-.6 0-.3.3-.5.6-.4.1 0 2.1.3 2.8 2.6.1.3-.1.5-.3.6z" class="st1"/><path d="M74.7 92.4c4 0 7.3-2.1 7.3-4.6s-3.3-4.6-7.3-4.6-7.3 2.1-7.3 4.6 3.3 4.6 7.3 4.6" class="st3"/><path d="M74.7 92.9c-4.3 0-7.8-2.3-7.8-5.1s3.5-5.1 7.8-5.1 7.8 2.3 7.8 5.1-3.5 5.1-7.8 5.1m0-9.2c-3.8 0-6.8 1.8-6.8 4.1s3.1 4.1 6.8 4.1 6.8-1.8 6.8-4.1-3-4.1-6.8-4.1" class="st1"/><path d="M69.1 85.2c-.2 0-.4-.1-.5-.3-.3-.7-1.1-2-1.6-2.3-.3-.1-.4-.4-.3-.7s.4-.4.7-.3c1.1.5 2 2.5 2.2 2.8.1.3 0 .5-.3.7 0 .1-.1.1-.2.1m2.9-1.6c-.3 0-.5-.2-.5-.5 0-.5-.2-1.7-.9-2.1-.2-.1-.3-.4-.2-.7s.4-.3.7-.2c1.2.7 1.4 2.7 1.4 2.9 0 .3-.2.6-.5.6m3.9-.3c-.3 0-.5-.3-.5-.5 0-.7 0-2-.1-2.3s.1-.5.3-.6c.3-.1.5.1.6.3.2.7.1 2.4.1 2.7.1.2-.1.4-.4.4m3.7 1.1s-.1 0 0 0c-.4-.1-.5-.3-.5-.6 0-.1.2-1.4 1.1-2.3.2-.2.5-.2.7 0s.2.5 0 .7c-.6.6-.8 1.7-.8 1.7-.1.4-.3.5-.5.5m2.9-12.1c-.2 0-.4-.1-.5-.4-.1-.4-2.5-8.8-13.7-9.4-.3 0-.5-.3-.5-.5 0-.3.3-.5.5-.5C80.4 62.1 83 71.6 83 71.7c.1.3-.1.5-.4.6zm-6.1.6c-.2 0-.3-.1-.4-.2 0-.1-4.3-6.7-13.9-6.8-.3 0-.5-.2-.5-.5s.2-.5.5-.5c10.2.1 14.6 7 14.8 7.3.1.2.1.5-.2.7zm-11.1-.4c-.2 0-.3-.1-.4-.2s-2.8-3.6-7.7-2.3c-.3.1-.5-.1-.6-.4s.1-.5.4-.6c5.5-1.4 8.7 2.7 8.8 2.7.2.2.1.5-.1.7-.1.1-.3.1-.4.1m-23.4 5c-.1 0-.3-.1-.4-.2-.2-.2-.1-.5.1-.7 5.8-4.4 14.5-1 14.8-.8.3.1.4.4.3.7s-.4.4-.7.3c-.1 0-8.6-3.4-13.9.7 0-.1-.1 0-.2 0M45 90.6c-.1 0-.2 0-.2-.1-.2-.1-.3-.4-.2-.7.3-.5 1.1-1 2.7-1.9 2.4-1.3 5.9-3.3 5.8-5.1 0-.3.2-.5.5-.5.2 0 .5.2.5.5.1 2.4-3.6 4.5-6.4 6-1 .5-2.2 1.2-2.4 1.5 0 .3-.1.3-.3.3m.7 6.2c-.2 0-.4-.1-.5-.3s0-.5.2-.7c7.4-3.5 7.4-5.7 7.4-5.7 0-.3.2-.5.4-.5.3 0 .5.2.6.4 0 .3.1 2.9-8 6.7.1.1 0 .1-.1.1m-.2 6c-.3 0-.5-.2-.5-.5s.2-.5.5-.5c5.5-.2 8.5-4.9 8.6-4.9.1-.2.5-.3.7-.2s.3.5.2.7c-.2.2-3.5 5.2-9.5 5.4m32.4 14.5c-5.4 0-9.9-1.5-10.2-1.6s-.4-.4-.3-.6.4-.4.6-.3c.1 0 10.1 3.3 17.7.2.3-.1.5 0 .7.3.1.3 0 .5-.3.7-2.7.9-5.5 1.3-8.2 1.3" class="st1"/><path d="M65.2 93.8c-2.4 0-4.3 1.4-4.3 4.8 0 2.4 3.3 5.6 8.1 5.6 4.9 0 8.5-2.1 8.3-5.8 0 0-.7-4-4.4-4.1-3.5-.1-7.7-.5-7.7-.5" class="st3"/><path d="M69 104.7c-4.9 0-8.6-3.2-8.6-6.1 0-3.3 1.8-5.3 4.8-5.3 0 0 4.2.4 7.8.5 3.2.1 4.6 3 4.8 4.5.1 1.5-.4 2.8-1.4 3.9-1.4 1.6-4.1 2.5-7.4 2.5m-3.8-10.4c-1.4 0-3.8.6-3.8 4.3 0 2.1 3 5.1 7.6 5.1 2.9 0 5.4-.8 6.7-2.2.8-.8 1.2-1.9 1.1-3.1 0-.1-.7-3.5-3.9-3.6-3.4-.1-7.4-.4-7.7-.5m22.1.1c-2 0-3.6 1.4-4.1 3.2l3.3 1.5-2.5 2.1c.8.9 1.9 1.5 3.3 1.5 2.3 0 4.2-1.9 4.2-4.2 0-2.2-1.9-4.1-4.2-4.1" class="st1"/><path d="M87.3 103.3c-1.4 0-2.7-.6-3.6-1.7l-.3-.4 2.2-2-3-1.4.1-.4c.5-2.1 2.4-3.6 4.6-3.6 2.6 0 4.7 2.1 4.7 4.7s-2.1 4.8-4.7 4.8m-2.5-2c.7.6 1.6 1 2.5 1 2 0 3.7-1.7 3.7-3.7s-1.7-3.7-3.7-3.7c-1.6 0-3 1-3.5 2.4l3.6 1.6zm-6.3-17.2c-1.6 0-3 1.1-3.4 2.7l2.7 1.2-2 1.8c.6.8 1.6 1.3 2.7 1.3 1.9 0 3.5-1.6 3.5-3.5 0-2-1.6-3.5-3.5-3.5" class="st1"/><path d="M78.5 91.5c-1.2 0-2.3-.5-3.1-1.5l-.3-.4 1.8-1.6-2.3-1 .1-.4c.4-1.8 2-3 3.9-3 2.2 0 4 1.8 4 4-.1 2.1-1.9 3.9-4.1 3.9m-1.9-1.7c.5.5 1.2.7 2 .7 1.6 0 3-1.3 3-3 0-1.6-1.3-3-3-3-1.2 0-2.3.8-2.8 1.9l3 1.4zm-3.7 4.5c-2.1 0-3.8 1.4-4.2 3.3l3.4 1.6-2.6 2.2c.8 1 2 1.6 3.4 1.6 2.4 0 4.4-2 4.4-4.4s-2-4.3-4.4-4.3" class="st1"/><path d="M72.9 103.5c-1.5 0-2.8-.7-3.8-1.8l-.3-.4 2.3-2-3.1-1.4.1-.4c.4-1.8 1.9-3.2 3.6-3.6l-.1-.1h1.2c2.7 0 4.9 2.2 4.9 4.9.1 2.6-2.1 4.8-4.8 4.8m-2.7-2c.7.7 1.7 1.1 2.7 1.1 2.1 0 3.9-1.7 3.9-3.9 0-2.1-1.7-3.8-3.7-3.9H73c-1.6 0-3.1 1-3.6 2.6l3.7 1.7z" class="st1"/><path d="M68.7 135.4c-.6 2.2 1.5 3.4 1.5 3.4s9.9 9.9 18.6 9c9.6-1 4.7-7.5 4.4-7.5" class="st5"/><path d="M87.7 148.3c-8.3 0-17-8.4-17.8-9.2-.8-.5-2.2-1.9-1.7-3.9.1-.3.3-.4.6-.4.3.1.4.3.4.6-.5 1.8 1.2 2.8 1.3 2.8 0 0 .1 0 .1.1.1.1 9.8 9.7 18.2 8.9 3.1-.3 4.9-1.2 5.3-2.7.5-1.6-.8-3.5-1.1-3.8-.1-.1-.2-.2-.3-.4 0-.3.2-.5.4-.6.3 0 .5.2.8.5.2.3 1.9 2.7 1 4.9-.7 1.7-2.8 2.7-6.1 3-.3.2-.7.2-1.1.2" class="st1"/><path d="M70.4 143.6s-12.7 6.7-21 3.2c-9.1-3.9-2.2-8.8-2-8.7 0 0-2.1-2.6-1.3-5.4s5-2.3 5.2-2.2c0 0-3-3.9.2-6.1s14.3 1.6 20.6 13.4c2.5 4.9-1.7 5.8-1.7 5.8" class="st5"/><path d="M55.1 148.3c-2 0-4-.3-5.8-1.1-3.1-1.3-4.8-2.9-5-4.8-.3-2.5 2.1-4.3 2.5-4.5-.6-.9-1.7-3.1-1.1-5.3.3-1 .9-1.7 2-2.2.9-.4 2-.5 2.8-.5-.4-.8-1-2.1-.8-3.4.2-1 .7-1.8 1.6-2.5 1.1-.8 2.9-.9 5.2-.4 4.6 1.1 11.6 5.4 16.1 14q1.35 2.7.6 4.5c-.7 1.5-2.2 1.9-2.5 2-.9.4-8.5 4.2-15.6 4.2m-7.6-9.7c-.4.2-2.3 1.7-2.3 3.5 0 1.6 1.5 3.1 4.4 4.3 7.9 3.4 20.4-3.1 20.5-3.1h.1c.2 0 1.4-.4 1.9-1.5.4-.9.2-2.1-.5-3.6-4.4-8.3-11.1-12.4-15.5-13.5-1.9-.5-3.5-.4-4.4.2q-1.05.75-1.2 1.8c-.3 1.7 1.1 3.6 1.1 3.6q.15.3 0 .6c-.1.2-.4.2-.6.1-.3-.1-2.1-.2-3.4.5-.6.3-1 .8-1.2 1.4-.7 2.5 1.2 4.9 1.2 4.9.1.2.2.4 0 .6.2.1.1.2-.1.2" class="st1"/><path d="M69.9 136.1c-1.4 2.9-1.5 5.1 0 7.6s5.9 2.2 7.3.2 1.4-5.2.3-7.9c-1.3-2.7-6.3-2.8-7.6.1" class="st5"/><path d="M73.5 146h-.1c-1.7 0-3.2-.8-3.9-2-1.5-2.5-1.5-4.9 0-8.1.7-1.5 2.3-2.4 4.3-2.4h.1c1.9 0 3.5.9 4.1 2.4 1.3 2.9 1.2 6.2-.3 8.4-.9 1-2.5 1.7-4.2 1.7m.2-11.5c-1.2 0-2.7.5-3.4 1.9-1.4 2.9-1.4 4.9 0 7.2.6 1 1.7 1.5 3.1 1.6 1.4 0 2.8-.5 3.4-1.4 1.2-1.9 1.3-4.8.2-7.4-.5-1.2-1.8-1.9-3.3-1.9.1 0 0 0 0 0m-3.8 1.6" class="st1"/><path d="M106.6 39.4c2.3-2.8 2.2-7 1-7.8-.8-.5-1.5-.6-2-.3-.7.4-1.3 1.5-1.5 2 .4-1.2 1-1.7 1.5-2-.9.5-1.5 1.9-1.9 3.2-.2.8-.6 1.4-1.1 1.8" class="st3"/><path d="M106.6 39.9c-.1 0-.2 0-.3-.1-.2-.2-.2-.5-.1-.7 1.5-1.8 1.9-4.2 1.7-5.7-.1-.7-.3-1.2-.6-1.4q-.9-.6-1.5-.3h-.1c-.1 0-.1.1-.2.1-.5.4-.9 1.1-1 1.6 0 0 0 .1-.1.1-.1.3-.2.6-.3 1-.2.8-.6 1.4-1.2 2-.2.2-.5.2-.7 0s-.2-.5 0-.7c.5-.5.8-1 .9-1.6q.15-.9.6-1.8c.3-.8.8-1.3 1.3-1.6.1 0 .1-.1.2-.1.5-.3 1.4-.4 2.5.3.5.3.9 1.1 1 2.1.2 1.6-.1 4.3-1.9 6.5.1.2-.1.3-.2.3" class="st1"/><path d="M109.2 26.3c-.2 1.6-.4 3.2.1 4.1 1.2 2 3.3.7 3.9-.9.3-.6.5-1.4.6-2.2" class="st3"/><path d="M110.8 31.9c-.8 0-1.5-.4-2-1.3-.6-1-.4-2.7-.2-4.4 0-.3.3-.5.6-.4.3 0 .5.3.4.6-.2 1.4-.4 3 0 3.7.3.5.7.8 1.2.8.7 0 1.5-.7 1.9-1.6q.45-.9.6-2.1c.1-.3.3-.4.6-.4.3.1.4.3.4.6-.2.8-.4 1.6-.7 2.3-.4 1-1.5 2.1-2.7 2.2z" class="st1"/><path d="M121.4 121.2c0 7.5-3.8 9.1-3.8 9.1s3.8 1.1 3.8 8.5c0-7.3 3.8-8.5 3.8-8.5s-3.8-1.7-3.8-9.1" class="st10"/><path d="M121.4 139.3c-.3 0-.5-.2-.5-.5 0-6.9-3.4-8-3.5-8-.2-.1-.3-.2-.4-.5 0-.2.1-.4.3-.5.1-.1 3.5-1.6 3.5-8.7 0-.3.2-.5.5-.5s.5.2.5.5c0 7 3.4 8.6 3.5 8.7.2.1.3.3.3.5s-.1.4-.3.4c-.1 0-3.5 1.3-3.5 8 .1.4-.1.6-.4.6m-2.8-9.1c.9.6 2.1 1.8 2.8 4.4.7-2.6 2-3.8 2.8-4.4-.8-.7-2.1-2.1-2.8-4.8-.7 2.8-2 4.2-2.8 4.8" class="st1"/><path d="M130.7 97.6c0 12.6-6.4 15.3-6.4 15.3s6.4 1.9 6.4 14.2c0-12.2 6.4-14.2 6.4-14.2s-6.4-2.8-6.4-15.3" class="st10"/><path d="M130.7 127.7c-.3 0-.5-.2-.5-.5 0-11.7-6-13.7-6.1-13.8-.2-.1-.3-.2-.4-.5 0-.2.1-.4.3-.5.1 0 6.1-2.8 6.1-14.9 0-.3.2-.5.5-.5s.5.2.5.5c0 11.9 6.1 14.8 6.1 14.9.2.1.3.3.3.5s-.1.4-.3.4c-.1 0-6.1 2.1-6.1 13.8.1.3-.2.6-.4.6m-5.4-14.8c1.5.8 4.2 3.1 5.4 8.8 1.1-5.6 3.9-7.9 5.4-8.8-1.4-1-4.2-3.7-5.4-9.6-1.2 6-3.9 8.6-5.4 9.6" class="st1"/><path d="M189.9 90.9c0 7.5-3.8 9.1-3.8 9.1s3.8 1.1 3.8 8.5c0-7.3 3.8-8.5 3.8-8.5s-3.8-1.7-3.8-9.1" class="st10"/><path d="M189.9 109c-.3 0-.5-.2-.5-.5 0-6.8-3.3-8-3.5-8-.2-.1-.3-.2-.4-.5 0-.2.1-.4.3-.5.1-.1 3.5-1.6 3.5-8.7 0-.3.2-.5.5-.5s.5.2.5.5c0 7 3.4 8.6 3.5 8.7.2.1.3.3.3.5s-.1.4-.3.4c-.1 0-3.5 1.3-3.5 8 .1.4-.1.6-.4.6m-2.8-9c.9.6 2.1 1.8 2.8 4.4.7-2.6 2-3.8 2.8-4.4-.8-.7-2.1-2.1-2.8-4.8-.7 2.7-2 4.1-2.8 4.8" class="st1"/><path d="M151.1 14.8c0 7.5-3.8 9.1-3.8 9.1s3.8 1.1 3.8 8.5c0-7.3 3.8-8.5 3.8-8.5s-3.8-1.6-3.8-9.1" class="st10"/><path d="M151.1 32.9c-.3 0-.5-.2-.5-.5 0-6.8-3.3-8-3.5-8-.2-.1-.3-.2-.4-.5 0-.2.1-.4.3-.5.1-.1 3.5-1.6 3.5-8.7 0-.3.2-.5.5-.5s.5.2.5.5c0 7 3.5 8.7 3.5 8.7.2.1.3.3.3.5s-.1.4-.3.4c-.1 0-3.5 1.3-3.5 8 .1.4-.1.6-.4.6m-2.8-9c.9.6 2.1 1.8 2.8 4.4.7-2.6 2-3.8 2.8-4.4-.8-.7-2.1-2.1-2.8-4.8-.7 2.7-2 4.2-2.8 4.8" class="st1"/><path d="M161.2 24.7c0 4.9-2.5 5.9-2.5 5.9s2.5.7 2.5 5.5c0-4.7 2.5-5.5 2.5-5.5s-2.5-1-2.5-5.9" class="st10"/><path d="M161.2 36.7c-.3 0-.5-.2-.5-.5 0-4.3-2-5-2.1-5-.2-.1-.3-.2-.3-.5s.1-.4.3-.5c.1 0 2.2-1 2.2-5.5 0-.3.2-.5.5-.5s.5.2.5.5c0 4.4 2.2 5.5 2.2 5.5.2.1.3.3.3.5s-.1.4-.3.4c-.1 0-2.1.8-2.1 5-.2.4-.4.6-.7.6m-1.6-6.1c.5.4 1.1 1.1 1.6 2.3.4-1.2 1.1-1.9 1.6-2.3-.5-.4-1.1-1.2-1.6-2.5-.4 1.3-1.1 2.1-1.6 2.5" class="st1"/></svg>