<svg xmlns="http://www.w3.org/2000/svg" id="Layer_1" viewBox="0 0 172 193"><defs><clipPath id="clippath"><path d="M0 0h172v193H0z" class="st0"/></clipPath><style>.st0,.st1,.st2,.st3,.st4{fill:none}.st5{fill:#0676de}.st1{stroke:#fed607}.st1,.st2,.st3,.st4,.st6,.st7{stroke-linecap:round}.st1,.st2,.st6,.st7{stroke-linejoin:round}.st6{fill:#8dc8ff}.st2,.st4,.st6,.st7{stroke:#002140}.st8{fill:#f25730}.st9{fill:#5ab0ff}.st10,.st7{fill:#0185ff}.st11{fill:#0164bf}.st12{fill:#002140}.st13{fill:#003c73}.st14{fill:#ffed8f}.st3{stroke:#d18000}.st3,.st4{stroke-miterlimit:10}.st15{fill:#50eef6}.st16{fill:#fed607}.st17{fill:#780505}.st18{clip-path:url(#clippath)}</style></defs><g class="st18"><path d="M1.371 135.401c0 2.654-.241 2.654 1.566 5.548 1.807 2.897 31.676 45.004 34.084 48.021 1.446 1.81 2.372 2.797 3.611 3.295l.061-.159v-14.901c0-1.795.069-2.636.691-3.028l-.389-.049S6.989 121.274 2.817 114.406c-.967-1.59-1.379-2.918-1.379-4.005h-.067z" class="st11"/><path d="M1.438 110.401c0 1.087.412 2.415 1.379 4.005 4.172 6.868 38.179 59.722 38.179 59.722l.389.049c.55-.349 1.535-.349 3.284-.349 3.734 0 64.253.423 64.253.423h.289c-.223-.684-.686-1.223-1.615-2.656-1.566-2.413-27.939-45.606-33.24-55.138-5.3-9.53-9.876-9.953-15.054-9.953H6.912c-2.92 0-5.474 1.197-5.474 3.897m11.736 6.902c-1.446-2.413.12-3.138 3.253-3.138h42.632c4.939 0 6.347.866 8.433 4.463 2.168 3.741 5.62 9.674 6.826 12.086 1.203 2.413.842 3.5-2.047 3.5h-.563c-4.847.013-39.472.1-43.84.1-4.696 0-4.937-1.207-6.383-3.5-1.244-1.969-5.418-8.75-7.486-12.15-.338-.556-.619-1.023-.824-1.361Zm14.481 25.587c-.177-.305-.218-.584-.141-.792l.714-2.054.049.016c.077-.231.297-.377.632-.377h11.302c.635 0 1.454.52 1.82 1.156l2.145 3.72c.217.377.228.713.069.923l-.668 1.81c-.044.287-.276.475-.658.475H31.62c-.635 0-1.454-.521-1.822-1.157l-2.142-3.72Zm7.166 11.281c-.177-.305-.217-.585-.141-.792l.714-2.054.049.016c.077-.231.297-.377.632-.377h11.302c.635 0 1.454.52 1.82 1.156l2.145 3.72c.218.377.228.713.069.923l-.668 1.81c-.043.287-.276.474-.658.474H38.786c-.635 0-1.454-.52-1.822-1.156zm7.166 11.537c-.177-.305-.218-.584-.141-.792l.714-2.053.049.015c.077-.231.297-.377.632-.377h11.302c.635 0 1.454.52 1.82 1.156l2.145 3.72c.218.377.228.713.069.923l-.668 1.81c-.043.288-.276.475-.658.475H45.952c-.635 0-1.454-.521-1.822-1.156zm6.142-22.818c-.177-.305-.217-.584-.141-.792l.714-2.054.049.016c.077-.231.297-.377.632-.377h11.302c.635 0 1.454.52 1.82 1.156l2.145 3.72c.217.377.228.713.069.923l-.668 1.81c-.044.287-.276.475-.658.475H52.094c-.635 0-1.454-.521-1.822-1.157zm7.166 11.281c-.177-.305-.218-.585-.141-.792l.714-2.054.049.016c.077-.231.297-.377.632-.377h11.302c.635 0 1.454.52 1.82 1.156l2.145 3.72c.217.377.228.713.069.923l-.668 1.81c-.044.287-.276.474-.658.474H59.26c-.635 0-1.454-.52-1.822-1.156zm7.166 11.537c-.177-.305-.218-.584-.141-.792l.714-2.053.049.015c.077-.231.297-.377.632-.377h11.302c.635 0 1.454.52 1.82 1.156l2.145 3.72c.218.377.228.713.069.923l-.668 1.81c-.043.288-.276.475-.658.475H66.426c-.635 0-1.454-.521-1.822-1.156zm6.142-22.818c-.177-.305-.218-.584-.141-.792l.714-2.054.049.016c.077-.231.297-.377.632-.377h11.302c.635 0 1.454.52 1.82 1.156l2.145 3.72c.218.377.228.713.069.923l-.668 1.81c-.044.287-.276.475-.658.475H72.568c-.635 0-1.454-.521-1.822-1.157zm7.166 11.281c-.177-.305-.217-.585-.141-.792l.714-2.054.049.016c.077-.231.297-.377.632-.377h11.302c.635 0 1.454.52 1.82 1.156l2.145 3.72c.217.377.228.713.069.923l-.668 1.81c-.044.287-.276.474-.658.474H79.734c-.635 0-1.454-.52-1.822-1.156zm7.166 11.537c-.177-.305-.218-.584-.141-.792l.714-2.053.049.015c.077-.231.297-.377.632-.377h11.302c.635 0 1.454.52 1.82 1.156l2.145 3.72c.218.377.228.713.069.923l-.668 1.81c-.044.288-.276.475-.658.475H86.9c-.635 0-1.454-.521-1.822-1.156l-2.142-3.721Z" class="st10"/><path d="M16.427 114.165c-3.133 0-4.699.725-3.253 3.138.205.338.486.805.824 1.361l.381-.141h42.632c4.939 0 6.378.849 8.433 4.464 2.047 3.605 4.822 8.112 6.262 10.966v.261h.563c2.889 0 3.25-1.087 2.047-3.5-1.205-2.412-4.658-8.345-6.826-12.086-2.086-3.597-3.493-4.463-8.433-4.463z" class="st12"/><path d="m14.38 118.523-.381.141c2.068 3.4 6.242 10.181 7.486 12.151 1.446 2.292 1.686 3.499 6.383 3.499 4.369 0 38.993-.087 43.84-.1v-.261c-1.441-2.854-4.215-7.361-6.262-10.966-2.055-3.615-3.493-4.464-8.433-4.464z" class="st14"/><path d="M27.514 142.098c-.077.208-.036.487.141.792l2.142 3.72c.369.636 1.188 1.157 1.822 1.157h11.299c.381 0 .614-.188.658-.475l.668-1.81c-.11.146-.299.234-.558.234H32.387c-.635 0-1.454-.521-1.822-1.157l-2.142-3.72c-.174-.3-.218-.574-.146-.779l-.049-.016z" class="st13"/><path d="M44.244 145.482c.159-.21.148-.546-.069-.923l-2.145-3.72c-.366-.636-1.185-1.156-1.82-1.156H28.908c-.335 0-.555.146-.632.377-.072.205-.028.479.146.779l2.142 3.72c.369.636 1.188 1.156 1.822 1.156h11.299c.258 0 .448-.087.558-.233Z" class="st9"/><path d="M34.68 153.379c-.077.207-.036.487.141.792l2.142 3.72c.369.636 1.188 1.156 1.822 1.156h11.299c.381 0 .614-.187.658-.474l.668-1.81c-.11.146-.299.233-.558.233H39.553c-.635 0-1.454-.52-1.822-1.156l-2.142-3.72c-.174-.3-.218-.574-.146-.779l-.049-.016z" class="st13"/><path d="M51.41 156.763c.159-.21.148-.546-.069-.923l-2.145-3.72c-.366-.636-1.185-1.156-1.82-1.156H36.074c-.335 0-.555.146-.632.377-.072.205-.028.479.146.779l2.142 3.72c.368.636 1.188 1.156 1.822 1.156h11.299c.258 0 .448-.087.558-.233Z" class="st9"/><path d="m40.694 192.106-.061.159c.824.33 1.786.446 3.133.446h61.663c3.253 0 3.975-.485 3.975-3.018v-13.514c0-.931-.039-1.464-.192-1.93h-.289s-60.519-.421-64.253-.421c-1.748 0-2.733 0-3.284.349-.622.392-.691 1.233-.691 3.028zm6.925-8.143a2.72 2.72 0 0 1 2.71-2.715h50.581c.745 0 1.423.305 1.915.797.491.493.795 1.169.795 1.918a2.72 2.72 0 0 1-2.71 2.715H50.329a2.7 2.7 0 0 1-1.914-.797 2.7 2.7 0 0 1-.796-1.918" class="st5"/><path d="M41.846 164.916c-.077.208-.036.487.141.792l2.142 3.721c.368.635 1.188 1.156 1.822 1.156H57.25c.381 0 .614-.187.658-.474l.668-1.811c-.11.147-.299.234-.558.234H46.719c-.635 0-1.454-.521-1.822-1.157l-2.142-3.72c-.174-.3-.217-.574-.146-.779l-.049-.015z" class="st13"/><path d="M58.576 168.3c.159-.21.148-.546-.069-.923l-2.145-3.72c-.366-.636-1.185-1.156-1.82-1.156H43.24c-.335 0-.555.146-.632.377-.072.205-.028.479.146.779l2.142 3.72c.368.636 1.188 1.157 1.822 1.157h11.299c.259 0 .448-.087.558-.234Z" class="st9"/><path d="M47.988 142.098c-.077.208-.036.487.141.792l2.142 3.72c.368.636 1.188 1.157 1.822 1.157h11.299c.381 0 .614-.188.658-.475l.668-1.81c-.11.146-.299.234-.558.234H52.861c-.635 0-1.454-.521-1.822-1.157l-2.142-3.72c-.174-.3-.218-.574-.146-.779l-.049-.016z" class="st13"/><path d="M50.33 181.248a2.72 2.72 0 0 0-2.71 2.715c0 .746.304 1.425.796 1.918.491.492 1.17.797 1.914.797h50.581a2.72 2.72 0 0 0 2.711-2.715c0-.749-.305-1.426-.796-1.918a2.7 2.7 0 0 0-1.915-.797z" class="st12"/><path d="M64.718 145.482c.159-.21.148-.546-.069-.923l-2.145-3.72c-.366-.636-1.185-1.156-1.82-1.156H49.382c-.335 0-.555.146-.632.377-.072.205-.028.479.146.779l2.142 3.72c.369.636 1.188 1.156 1.822 1.156h11.299c.258 0 .448-.087.558-.233Z" class="st9"/><path d="M55.154 153.379c-.077.207-.036.487.141.792l2.142 3.72c.369.636 1.188 1.156 1.822 1.156h11.299c.381 0 .614-.187.658-.474l.668-1.81c-.11.146-.299.233-.558.233H60.027c-.635 0-1.454-.52-1.822-1.156l-2.142-3.72c-.174-.3-.217-.574-.146-.779l-.049-.016z" class="st13"/><path d="M71.884 156.763c.159-.21.148-.546-.069-.923l-2.145-3.72c-.366-.636-1.185-1.156-1.82-1.156H56.548c-.335 0-.555.146-.632.377-.072.205-.028.479.146.779l2.142 3.72c.368.636 1.188 1.156 1.822 1.156h11.299c.259 0 .448-.087.558-.233Z" class="st9"/><path d="M62.32 164.916c-.077.208-.036.487.141.792l2.142 3.721c.368.635 1.188 1.156 1.822 1.156h11.299c.381 0 .614-.187.658-.474l.668-1.811c-.11.147-.299.234-.558.234H67.193c-.635 0-1.454-.521-1.822-1.157l-2.142-3.72c-.174-.3-.217-.574-.146-.779l-.049-.015z" class="st13"/><path d="M79.05 168.3c.159-.21.148-.546-.069-.923l-2.145-3.72c-.366-.636-1.185-1.156-1.82-1.156H63.714c-.335 0-.555.146-.632.377-.072.205-.028.479.146.779l2.142 3.72c.369.636 1.188 1.157 1.822 1.157h11.299c.258 0 .448-.087.558-.234Z" class="st9"/><path d="M68.462 142.098c-.077.208-.036.487.141.792l2.142 3.72c.368.636 1.188 1.157 1.822 1.157h11.299c.381 0 .614-.188.658-.475l.668-1.81c-.11.146-.299.234-.558.234H73.335c-.635 0-1.454-.521-1.822-1.157l-2.142-3.72c-.174-.3-.218-.574-.146-.779l-.049-.016z" class="st13"/><path d="M85.192 145.482c.159-.21.148-.546-.069-.923l-2.145-3.72c-.366-.636-1.185-1.156-1.82-1.156H69.856c-.335 0-.555.146-.632.377-.072.205-.028.479.146.779l2.142 3.72c.369.636 1.188 1.156 1.822 1.156h11.299c.258 0 .448-.087.558-.233Z" class="st9"/><path d="M75.628 153.379c-.077.207-.036.487.141.792l2.142 3.72c.369.636 1.188 1.156 1.822 1.156h11.299c.381 0 .614-.187.658-.474l.668-1.81c-.11.146-.299.233-.558.233H80.501c-.635 0-1.454-.52-1.822-1.156l-2.142-3.72c-.174-.3-.217-.574-.146-.779l-.049-.016z" class="st13"/><path d="M92.358 156.763c.159-.21.148-.546-.069-.923l-2.145-3.72c-.366-.636-1.185-1.156-1.82-1.156H77.022c-.335 0-.555.146-.632.377-.072.205-.028.479.146.779l2.142 3.72c.368.636 1.188 1.156 1.822 1.156h11.299c.258 0 .448-.087.558-.233Z" class="st9"/><path d="M82.794 164.916c-.077.208-.036.487.141.792l2.142 3.721c.368.635 1.188 1.156 1.822 1.156h11.299c.381 0 .614-.187.658-.474l.668-1.811c-.11.147-.299.234-.558.234H87.667c-.635 0-1.454-.521-1.822-1.157l-2.142-3.72c-.174-.3-.218-.574-.146-.779l-.049-.015z" class="st13"/><path d="M99.524 168.3c.159-.21.148-.546-.069-.923l-2.145-3.72c-.366-.636-1.185-1.156-1.82-1.156H84.188c-.335 0-.555.146-.632.377-.072.205-.028.479.146.779l2.142 3.72c.369.636 1.188 1.157 1.822 1.157h11.299c.258 0 .448-.087.558-.234Z" class="st9"/><path d="M40.996 174.128S6.989 121.274 2.817 114.406c-.967-1.59-1.379-2.918-1.379-4.005 0-2.7 2.554-3.897 5.474-3.897h52.391c5.177 0 9.753.423 15.054 9.953 5.3 9.532 31.674 52.725 33.24 55.138.929 1.433 1.392 1.972 1.615 2.654.153.466.192.999.192 1.93v13.514c0 2.533-.722 3.018-3.975 3.018H43.766c-1.346 0-2.309-.116-3.132-.446-1.239-.498-2.165-1.485-3.611-3.295-2.408-3.018-32.277-45.124-34.084-48.021-1.807-2.894-1.566-2.894-1.566-5.548v-25.218" class="st4"/><path d="M108.922 174.251s-60.519-.423-64.253-.423c-1.748 0-2.733 0-3.284.349-.622.392-.691 1.233-.691 3.028v14.901" class="st4"/><path d="M50.33 186.678h50.581a2.72 2.72 0 0 0 2.711-2.715c0-.749-.305-1.426-.796-1.918a2.7 2.7 0 0 0-1.915-.797H50.33a2.72 2.72 0 0 0-2.71 2.715c0 .746.304 1.425.796 1.918.491.492 1.17.797 1.914.797Zm-36.332-68.014c-.338-.556-.619-1.023-.824-1.361-1.446-2.413.12-3.138 3.253-3.138h42.632c4.939 0 6.347.866 8.433 4.463 2.168 3.741 5.62 9.674 6.826 12.086 1.203 2.413.842 3.5-2.047 3.5h-.563c-4.847.013-39.471.1-43.84.1-4.696 0-4.937-1.208-6.383-3.5-1.244-1.969-5.418-8.75-7.486-12.15Z" class="st4"/><path d="M14.38 118.523h42.632c4.939 0 6.378.849 8.433 4.464 2.047 3.605 4.822 8.112 6.262 10.966m-15.79 17.388c.077-.231.297-.377.632-.377h11.302c.635 0 1.454.52 1.82 1.156l2.145 3.72c.217.377.228.713.069.923-.11.146-.299.233-.558.233H60.028c-.635 0-1.454-.52-1.822-1.156l-2.142-3.72c-.174-.3-.218-.574-.146-.779Z" class="st4"/><path d="m55.868 151.325-.714 2.054c-.077.207-.036.487.141.792l2.142 3.72c.369.636 1.188 1.156 1.822 1.156h11.299c.381 0 .614-.187.658-.474l.668-1.81v-.008m-36.441-5.414c.077-.231.297-.377.632-.377h11.302c.635 0 1.454.52 1.82 1.156l2.145 3.72c.218.377.228.713.069.923-.11.146-.3.233-.558.233H39.554c-.635 0-1.454-.52-1.822-1.156l-2.142-3.72c-.174-.3-.218-.574-.146-.779Z" class="st4"/><path d="m35.394 151.325-.714 2.054c-.077.207-.036.487.141.792l2.142 3.72c.369.636 1.188 1.156 1.822 1.156h11.299c.381 0 .614-.187.658-.474l.668-1.81v-.008m24.981-5.414c.077-.231.297-.377.632-.377h11.302c.635 0 1.454.52 1.82 1.156l2.145 3.72c.217.377.228.713.069.923-.11.146-.299.233-.558.233H80.502c-.635 0-1.454-.52-1.822-1.156l-2.142-3.72c-.174-.3-.217-.574-.146-.779Z" class="st4"/><path d="m76.342 151.325-.714 2.054c-.077.207-.036.487.141.792l2.142 3.72c.369.636 1.188 1.156 1.822 1.156h11.299c.381 0 .614-.187.658-.474l.668-1.81v-.008M48.751 140.06c.077-.231.297-.377.632-.377h11.302c.635 0 1.454.52 1.82 1.156l2.145 3.72c.218.377.228.713.069.923-.11.146-.299.233-.558.233H52.862c-.635 0-1.454-.52-1.822-1.156l-2.142-3.72c-.174-.3-.218-.574-.146-.779Z" class="st4"/><path d="m48.702 140.044-.714 2.054c-.077.208-.036.487.141.792l2.142 3.72c.368.636 1.188 1.157 1.822 1.157h11.299c.381 0 .614-.188.658-.475l.668-1.81v-.007m-36.441-5.415c.077-.231.297-.377.632-.377h11.302c.635 0 1.454.52 1.82 1.156l2.145 3.72c.218.377.228.713.069.923-.11.146-.299.233-.558.233H32.388c-.635 0-1.454-.52-1.822-1.156l-2.142-3.72c-.174-.3-.218-.574-.146-.779Z" class="st4"/><path d="m28.228 140.044-.714 2.054c-.077.208-.036.487.141.792l2.142 3.72c.369.636 1.188 1.157 1.822 1.157h11.299c.381 0 .614-.188.658-.475l.668-1.81v-.007m24.981-5.415c.077-.231.297-.377.632-.377h11.302c.635 0 1.454.52 1.82 1.156l2.145 3.72c.218.377.228.713.069.923-.11.146-.299.233-.558.233H73.336c-.635 0-1.454-.52-1.822-1.156l-2.142-3.72c-.174-.3-.217-.574-.146-.779Z" class="st4"/><path d="m69.176 140.044-.714 2.054c-.077.208-.036.487.141.792l2.142 3.72c.368.636 1.188 1.157 1.822 1.157h11.299c.381 0 .614-.188.658-.475l.668-1.81v-.007m-22.109 17.403c.077-.231.297-.377.632-.377h11.302c.635 0 1.454.52 1.82 1.156l2.145 3.72c.218.377.228.713.069.923-.11.147-.299.234-.558.234H67.194c-.635 0-1.454-.521-1.822-1.157l-2.142-3.72c-.174-.3-.217-.574-.146-.779Z" class="st4"/><path d="m63.034 162.863-.714 2.053c-.077.208-.036.487.141.792l2.142 3.721c.368.635 1.188 1.156 1.822 1.156h11.299c.381 0 .614-.187.658-.474l.668-1.811v-.007m-36.441-5.415c.077-.231.297-.377.632-.377h11.302c.635 0 1.454.52 1.82 1.156l2.145 3.72c.217.377.228.713.069.923-.11.147-.299.234-.558.234H46.72c-.635 0-1.454-.521-1.822-1.157l-2.142-3.72c-.174-.3-.218-.574-.146-.779Z" class="st4"/><path d="m42.56 162.863-.714 2.053c-.077.208-.036.487.141.792l2.142 3.721c.368.635 1.188 1.156 1.822 1.156H57.25c.381 0 .614-.187.658-.474l.668-1.811v-.007m24.981-5.415c.077-.231.297-.377.632-.377h11.302c.635 0 1.454.52 1.82 1.156l2.145 3.72c.218.377.228.713.069.923-.11.147-.299.234-.558.234H87.668c-.635 0-1.454-.521-1.822-1.157l-2.142-3.72c-.174-.3-.217-.574-.146-.779Z" class="st4"/><path d="m83.508 162.863-.714 2.053c-.077.208-.036.487.141.792l2.142 3.721c.368.635 1.188 1.156 1.822 1.156h11.299c.381 0 .614-.187.658-.474l.668-1.811v-.007" class="st4"/><path d="M169.139 74.894c0-31.13.481-80.838.542-80.897h-28.543v68.591c0 10.314-5.782 12.668-13.731 7.961-7.949-4.705-9.415-5.476-13.188-7.509-3.521-1.9-5.51-2.623-7.496-.815l-.133.187c-3.276-2.284-5.799-2.836-8.914-.7-.358.246-.55.525-1.062.872-3.035-1.995-5.454-2.382-8.407-.359-3.432 2.354-14.634 9.773-19.33 12.85-4.699 3.077-5.405 5.792-5.405 11.945v24.795c0 5.248 1.625 8.325 5.96 8.325 2.293 0 3.982-.711 5.062-2.449l.192.121c.563 3.448 2.296 5.404 5.751 5.404 3.058 0 5.037-1.261 5.94-4.54l.049.012c.863 1.298 2.222 1.998 4.195 1.998 3.342 0 5.267-1.651 5.781-6.154l.097.011c.852.83 2.03 1.271 3.598 1.271 3.954 0 5.93-2.31 5.93-8.912v-1.061l25.657-1.869h10.477c5.902 0 26.978 2.051 26.978-29.077Z" class="st15"/><path d="M74.686 117.811c.563 3.448 2.296 5.404 5.751 5.404 3.058 0 5.037-1.261 5.94-4.54.376-1.372.566-3.098.566-5.233v-20.36c0-4.074.361-4.074 3.703-6.245s8.85-5.789 8.85-5.789" class="st4"/><path d="M86.426 118.687c.862 1.298 2.221 1.998 4.195 1.998 3.342 0 5.267-1.651 5.781-6.154q.142-1.224.141-2.745v-6.125m-.044 8.881c.852.83 2.03 1.271 3.598 1.271 3.954 0 5.93-2.31 5.93-8.912v-1.061l25.657-1.869h10.477c5.902 0 26.978 2.051 26.978-29.077s.481-80.838.542-80.897h-28.543v68.591c0 10.314-5.782 12.668-13.731 7.961-7.949-4.705-9.415-5.476-13.188-7.509-3.521-1.9-5.51-2.623-7.496-.815m-18.14 16.287s-5.963 3.982-9.395 6.153c-3.432 2.172-3.25 3.259-3.25 8.325v17.375c0 3.41-.481 5.774-1.443 7.325-1.08 1.738-2.769 2.449-5.062 2.449-4.335 0-5.96-3.077-5.96-8.325V87.019c0-6.153.706-8.868 5.405-11.945 4.696-3.077 15.898-10.496 19.33-12.85 2.953-2.023 5.372-1.636 8.407.359.491.32.998.687 1.528 1.09" class="st4"/><path d="m96.606 62.588.008-.005c.512-.346.704-.625 1.062-.872 3.115-2.136 5.638-1.584 8.914.7q.498.349 1.021.749" class="st4"/><path d="M67.208 102.492a1.19 1.19 0 0 1-1.638.348l-4.875-3.163a1.187 1.187 0 0 1-.348-1.638l2.052-3.174a1.183 1.183 0 0 1 1.635-.351l4.875 3.164c.545.354.704 1.095.351 1.641l-2.052 3.174ZM24.509 61.221 6.277 89.405a3.085 3.085 0 0 0 .906 4.248l48.992 31.807a3.073 3.073 0 0 0 4.241-.908l18.232-28.184a3.085 3.085 0 0 0-.906-4.248L28.75 60.313a3.073 3.073 0 0 0-4.241.908" class="st17"/><path d="M64.035 94.513a1.185 1.185 0 0 0-1.635.351l-2.052 3.174a1.19 1.19 0 0 0 .348 1.638l4.875 3.163c.545.354 1.282.2 1.638-.348l2.052-3.174a1.19 1.19 0 0 0-.351-1.641l-4.875-3.164Z" class="st8"/><path d="M28.751 60.3 77.74 92.11a3.075 3.075 0 0 1 .905 4.248L60.41 124.542a3.06 3.06 0 0 1-4.241.907L7.181 93.638a3.075 3.075 0 0 1-.905-4.248l18.235-28.184a3.06 3.06 0 0 1 4.241-.907Z" class="st4"/><path d="m65.57 102.84-4.875-3.163a1.187 1.187 0 0 1-.348-1.638l2.052-3.174a1.183 1.183 0 0 1 1.635-.351l4.875 3.164c.545.354.704 1.095.351 1.641l-2.052 3.174a1.19 1.19 0 0 1-1.638.348Z" class="st4"/><path d="M54.514 102.492c-2.439 4.615-1.175 9.14 3.253 10.406 4.425 1.267 8.039-4.253 13.367-3.528 5.328.723 9.213 4.344 17.162 4.344s11.02-3.439 11.02-3.439 3.793 3.71 20.594 3.71c14.604 0 21.086-7.522 22.532-9.488l-9.705-13.225-24.118-15.293-12.548 1.751q.087.072.174.149c2.349 2.082 1.049.943 3.885 3.53 4.064 3.71 1.287 9.53-2.078 12.396-3.614 3.077-5.963 5.248-12.737 5.248s-12.917-.723-16.981-.723-11.381-.454-13.82 4.161Z" class="st15"/><path d="M88.478 78.604c3.084-2.12 5.259-2.818 7.593-.874q.087.072.174.149c2.35 2.082 1.049.943 3.885 3.53 4.064 3.71 1.287 9.53-2.078 12.396-3.614 3.077-5.963 5.248-12.737 5.248s-12.917-.723-16.981-.723-11.381-.454-13.82 4.161-1.175 9.14 3.253 10.406c4.425 1.267 8.039-4.253 13.367-3.528 5.328.723 9.213 4.344 17.162 4.344s11.02-3.439 11.02-3.439 3.793 3.71 20.594 3.71c14.603 0 21.086-7.522 22.532-9.488.218-.298.32-.467.32-.467" class="st4"/><path d="m145.315 152.356-7.348 9.391 2.546-8.012z" class="st6"/><path d="m140.513 153.735-2.546 8.012-2.831-8.017z" class="st7"/><path d="m137.967 161.747-7.417-9.363 4.586 1.346z" class="st6"/><path d="m131.899 149.431 2.569-1.016-2.505 1.041zm8.476 1.34-2.349 2.777-2.713-2.81h.066l.182.067zm3.494-.925-2.37-1.508-6.823-.005-.208.082.269-.113 6.823.008 2.485 1.559z" class="st2"/><path d="m130.55 152.384 1.39-2.92 12.072.397 1.249 2.446-7.471 1.354z" class="st6"/><path d="m138.026 153.548 2.349-2.777.044-.002.038-.01 4.55 1.512-4.55-1.512 4.858 1.597-4.802 1.379-5.377-.005-4.586-1.346 4.763-1.646z" class="st7"/><path d="M135.38 150.738h-.067l-3.373-1.274.023-.008zm5.077.021-.038.01-.044.002.026-.03z" class="st2"/><path d="m141.581 150.459-1.124.3-.056-.018z" class="st2"/><path d="m141.499 148.338 2.37 1.508-2.288.613-1.18.282-5.021-.003-3.417-1.282 2.505-1.041.208-.082z" class="st6"/><path d="m147.221 105.389.005 5.127h2.636l.006-5.127zm.01 15.383.003 5.128h2.613l.005-5.128zm.333-15.383h2.304v-1.6s-1.185.241-2.647.241v1.359zm-.335 10.255.002 5.128h2.621l.005-5.128zm-.003-5.128.003 5.128h2.628l.005-5.128zM128.37 74.623h-.305v5.128h2.544v-5.128zm-.305 10.255v5.128h2.544v-5.128zm.878 53.266-.12.047a11 11 0 0 0 3.757 4.843l.066-.093 1.357-2.081.005-.006c-1.357-.966-2.383-2.356-2.938-3.991l-.049.015zm17.784-1.246.192.07 2.078.997.149.054c.448-1.187.693-2.472.693-3.813v-3.179h-2.603v3.01a8.2 8.2 0 0 1-.509 2.861m-5.497 5.141-.215.082a4.18 4.18 0 0 1 1.103 2.515h.008a10.8 10.8 0 0 0 3.117-1.548l-.041-.057-1.444-2.082-.069-.097a8.3 8.3 0 0 1-2.459 1.187m-13.165-21.267v5.128h2.544v-5.128zm0-30.766v5.128h2.544v-5.128z" class="st14"/><path d="M128.065 79.75v5.128h2.544V79.75zm0 20.511v5.128h2.544v-5.128zm0 10.255v5.128h2.544v-5.128zm0-15.383v5.128h2.544v-5.128zm10.004 47.157a7.9 7.9 0 0 1-2.682-.648 7.6 7.6 0 0 1-1.379-.788l-.006.006-1.356 2.081-.066.093a10.8 10.8 0 0 0 5.563 2.051l.013-.244.092-2.443.011-.069q-.094-.011-.19-.018zm5.62-1.438.07.097 1.443 2.082.041.057a10.96 10.96 0 0 0 3.903-5.069l-.149-.054-2.078-.997-.192-.07a8.36 8.36 0 0 1-3.038 3.954m-15.624-35.463v5.127h2.544v-5.127zm0 20.511v5.127h2.544V125.9z" class="st14"/><path d="m138.156 144.841-.012.244a12 12 0 0 0 .808.028c.32 0 .579-.018.832-.049.256-.033.507-.077.811-.133a2.67 2.67 0 0 0-2.336-2.602l-.011.069z" class="st14"/><path d="M135.267 145.018c0-.172.01-.341.041-.505l.01-.028a11 11 0 0 1-1.418-.626l-.036.067a4.203 4.203 0 0 0 4.133 5.258 4.203 4.203 0 0 0 4.134-4.274q-.003-.138-.013-.274a4.18 4.18 0 0 0-1.103-2.515 4.18 4.18 0 0 0-3.148-1.351 4.18 4.18 0 0 0-2.472.854l-.008.018a7.9 7.9 0 0 0 2.682.648v.021q.096.007.19.018a2.67 2.67 0 0 1 2.336 2.602v.005a2.667 2.667 0 0 1-2.623 2.71 2.666 2.666 0 0 1-2.705-2.628" class="st16"/><path d="M128.065 71.877v2.746h2.544v-1.261c-.074.072-.01-.036-.01-1.725s-.842-1.869-1.264-1.869c-1.144 0-1.27 1.146-1.27 2.11Zm0 59.15v3.179c0 1.405.269 2.749.758 3.985l.12-.047 2.078-1.266.049-.015a8.8 8.8 0 0 1-.461-2.826v-3.01zm0-15.383v5.128h2.544v-5.128z" class="st14"/><path d="m131.021 136.878-2.078 1.266m5.06 2.716-1.357 2.081m5.602-.543-.092 2.443m5.602-3.892 1.444 2.082m1.717-6.063 2.078.997m.732-12.065h-2.165m-17.029-51.277h-2.165m2.165 5.127h-2.165m2.165 5.128h-2.165m2.165 5.128h-2.165m2.165 5.127h-2.165m2.165 5.128h-2.165m2.165 5.128h-2.165m2.165 5.127h-2.165m2.165 5.128h-2.165m2.165 5.128h-2.165m2.165 5.128h-2.165m2.165 5.127h-2.165m21.359-25.638h-2.165m2.165 5.127h-2.165m2.165 5.128h-2.165m2.165 5.128h-2.165m2.165 10.255h-2.165" class="st1"/><path d="M138.609 142.308q-.273 0-.54-.018a7.9 7.9 0 0 1-2.682-.648 7.6 7.6 0 0 1-1.379-.788c-1.357-.966-2.383-2.356-2.938-3.991a8.8 8.8 0 0 1-.461-2.826V73.361c-.074.072-.01-.036-.01-1.725s-.842-1.869-1.264-1.869c-1.144 0-1.27 1.146-1.27 2.11v62.329c0 1.405.269 2.749.758 3.985a11 11 0 0 0 6.495 6.294c.896.32 1.843.525 2.826.6a12 12 0 0 0 .808.028c.32 0 .579-.018.832-.049.256-.033.507-.077.811-.133m1.531-.295a10.8 10.8 0 0 0 3.117-1.548 10.96 10.96 0 0 0 3.903-5.069c.448-1.187.693-2.472.693-3.813v-3.179l.008-5.127.005-5.128.005-5.128.005-5.128.006-5.127v-1.6s-1.185.241-2.647.241v1.359l.005 5.127v5.128l.006 5.128v5.128l.005 5.127v3.01a8.2 8.2 0 0 1-.51 2.861 8.36 8.36 0 0 1-3.038 3.954 8.2 8.2 0 0 1-2.459 1.187" class="st4"/><path d="M135.308 144.513a2.666 2.666 0 0 0 2.664 3.133 2.666 2.666 0 0 0 2.623-2.71v-.005a2.67 2.67 0 0 0-2.336-2.602q-.094-.011-.19-.018-.09-.004-.179-.003" class="st4"/><path d="M133.864 143.926a4.203 4.203 0 0 0 4.133 5.258 4.203 4.203 0 0 0 4.134-4.274q-.003-.138-.013-.274a4.18 4.18 0 0 0-1.103-2.515 4.18 4.18 0 0 0-3.148-1.351 4.18 4.18 0 0 0-2.472.854" class="st4"/><path d="M138.425 117.59c-.054-.759-.932-1.013-1.894-1.013h-4.064c-1.085 0-1.807.244-1.807 1.328h-.059c-.002.539-.002 1.159-.002 1.87q0 .643.053 1.266c.016-.938.891-1.256 1.905-1.356l4.046-.387c.99-.095 1.766-.246 2.065.841l.046-.008c-.138-.703-.223-1.541-.261-2.543h-.028z" class="st16"/><path d="M130.663 115.183h-.041c-.01.536-.018 1.384-.021 2.722h.059c0-1.084.722-1.328 1.807-1.328h4.064c.962 0 1.84.254 1.894 1.013h.028a36 36 0 0 1-.025-1.433v-1.056c0-.816-.904-1.087-1.897-1.087h-4.064c-1.052 0-1.761.171-1.804 1.169" class="st16"/><path d="M130.622 115.183h.041c.043-.998.752-1.169 1.804-1.169h4.064c.993 0 1.896.271 1.896 1.087v-2.564c0-.816-.903-1.087-1.896-1.087h-4.064c-1.085 0-1.807.182-1.807 1.269v1.628s-.023-.336-.038.836" class="st16"/><path d="M130.66 110.155v2.564c0-1.087.722-1.269 1.807-1.269h4.064c.993 0 1.896.271 1.896 1.087v-2.564c0-.815-.903-1.087-1.896-1.087h-4.064c-1.085 0-1.807.182-1.807 1.269" class="st16"/><path d="M130.66 107.591v2.564c0-1.087.722-1.269 1.807-1.269h4.064c.993 0 1.896.272 1.896 1.087v-2.564c0-.815-.903-1.087-1.896-1.087h-4.064c-1.085 0-1.807.182-1.807 1.269" class="st16"/><path d="M130.66 105.027v2.564c0-1.087.722-1.269 1.807-1.269h4.064c.993 0 1.896.272 1.896 1.087v-2.564c0-.815-.903-1.087-1.896-1.087h-4.064c-1.085 0-1.807.182-1.807 1.269" class="st16"/><path d="M130.66 102.463v2.564c0-1.087.722-1.269 1.807-1.269h4.064c.993 0 1.896.272 1.896 1.087v-2.564c0-.815-.903-1.087-1.896-1.087h-4.064c-1.085 0-1.807.182-1.807 1.269" class="st16"/><path d="M130.66 99.9v2.563c0-1.087.722-1.269 1.807-1.269h4.064c.993 0 1.896.272 1.896 1.087v-2.563c0-.815-.903-1.087-1.896-1.087h-4.064c-1.085 0-1.807.182-1.807 1.269" class="st16"/><path d="M130.66 97.336V99.9c0-1.087.722-1.269 1.807-1.269h4.064c.993 0 1.896.272 1.896 1.087v-2.564c0-.815-.903-1.087-1.896-1.087h-4.064c-1.085 0-1.807.182-1.807 1.269" class="st16"/><path d="M130.66 94.772v2.564c0-1.087.722-1.269 1.807-1.269h4.064c.993 0 1.896.272 1.896 1.087V94.59c0-.815-.903-1.087-1.896-1.087h-4.064c-1.085 0-1.807.182-1.807 1.269" class="st16"/><path d="M130.66 92.208v2.564c0-1.087.722-1.269 1.807-1.269h4.064c.993 0 1.896.272 1.896 1.087v-2.564c0-.815-.903-1.087-1.896-1.087h-4.064c-1.085 0-1.807.182-1.807 1.269" class="st16"/><path d="M130.66 89.644v2.564c0-1.087.722-1.269 1.807-1.269h4.064c.993 0 1.896.272 1.896 1.087v-2.564c0-.815-.903-1.087-1.896-1.087h-4.064c-1.085 0-1.807.182-1.807 1.269" class="st16"/><path d="M130.66 87.08v2.564c0-1.087.722-1.269 1.807-1.269h4.064c.993 0 1.896.272 1.896 1.087v-2.564c0-.815-.903-1.087-1.896-1.087h-4.064c-1.085 0-1.807.182-1.807 1.269" class="st16"/><path d="M130.66 84.517v2.564c0-1.087.722-1.269 1.807-1.269h4.064c.993 0 1.896.272 1.896 1.087v-2.564c0-.815-.903-1.087-1.896-1.087h-4.064c-1.085 0-1.807.182-1.807 1.269" class="st16"/><path d="M130.66 81.953v2.564c0-1.087.722-1.269 1.807-1.269h4.064c.993 0 1.896.272 1.896 1.087v-2.564c0-.815-.903-1.087-1.896-1.087h-4.064c-1.085 0-1.807.182-1.807 1.269" class="st16"/><path d="M130.66 79.389v2.564c0-1.087.722-1.269 1.807-1.269h4.064c.993 0 1.896.272 1.896 1.087v-2.564c0-.815-.903-1.087-1.896-1.087h-4.064c-1.085 0-1.807.182-1.807 1.269" class="st16"/><path d="M130.66 76.825v2.564c0-1.087.722-1.269 1.807-1.269h4.064c.993 0 1.896.272 1.896 1.087v-2.564c0-.815-.903-1.087-1.896-1.087h-4.064c-1.085 0-1.807.182-1.807 1.269" class="st16"/><path d="M130.66 74.261v2.564c0-1.087.722-1.269 1.807-1.269h4.064c.993 0 1.896.272 1.896 1.087v-2.564c0-.815-.903-1.087-1.896-1.087h-4.064c-1.085 0-1.807.182-1.807 1.269" class="st16"/><path d="M130.66 72.541v1.72c0-1.087.722-1.269 1.807-1.269h4.064c.993 0 1.896.272 1.896 1.087v-1.538a2.176 2.176 0 0 0-2.167-2.172h-3.432a2.176 2.176 0 0 0-2.168 2.172m-.007 48.5c.102 1.185.35 2.313.757 3.356l.092-.036c0-.543.66-.979 1.687-1.328 1.026-.348 3.027-1.161 3.969-1.479.891-.303 1.723-.274 2.214.505l.038-.026c-.309-.482-.537-1.102-.696-1.902l-.046.008c-.299-1.087-1.075-.936-2.065-.841l-4.046.387c-1.014.1-1.889.418-1.904 1.356" class="st16"/><path d="M139.372 122.059c-.492-.78-1.323-.808-2.214-.505-.942.318-2.943 1.13-3.969 1.479-1.027.349-1.687.785-1.687 1.328l-.092.036a9.7 9.7 0 0 0 1.702 2.856l.184-.074s4.062-3.951 4.487-4.282a1.77 1.77 0 0 1 1.786-.264l.315-.028a3 3 0 0 1-.474-.572z" class="st16"/><path d="m133.296 127.179-.184.074c.814.944 1.835 1.749 3.079 2.38l.03-.059s2.398-5.138 2.677-5.6a1.77 1.77 0 0 1 1.577-.879l.028-.057a2.8 2.8 0 0 1-.619-.433l-.315.028a1.77 1.77 0 0 0-1.786.264c-.425.331-4.487 4.282-4.487 4.282" class="st16"/><path d="m136.221 129.574-.03.059c1.2.61 2.605 1.058 4.233 1.31l.02-.129v-5.058c0-1.208.423-2.264 1.508-2.264v-.018c-.558-.079-1.039-.218-1.449-.436l-.028.057a1.77 1.77 0 0 0-1.577.879c-.279.462-2.677 5.6-2.677 5.6m2.447-67.23v3.441c0 1.195.724 2.351 1.807 3.559l.55.538.054-.056v-5.699c0-1.208.42-2.264 1.505-2.264l.028-.031-1.776-1.659c-1.19 0-2.168.979-2.168 2.171m0-33.33v3.441c0 1.177.704 2.318 1.763 3.507l.044-.038.604.572v-5.7c0-1.208.42-2.264 1.505-2.264l.166-.174-1.551-1.484-.363-.031c-1.19 0-2.168.979-2.168 2.172Zm0-33.073v3.44c0 1.177.704 2.318 1.763 3.507l.044-.038.604.572v-5.699c0-1.208.42-2.264 1.505-2.264l.166-.174-1.551-1.484-.363-.031c-1.19 0-2.168.979-2.168 2.172Z" class="st16"/><path d="m140.444 130.814-.02.129q1.24.193 2.656.228l.005-.175v-5.158c0-1.205.423-2.261 1.505-2.261v-.013q-.44.014-.924.013c-.64 0-1.208-.029-1.712-.103v.018c-1.088 0-1.51 1.056-1.51 2.264zm.635-60.988-.054.056 2.462 2.407.151-.156v-5.7c0-1.208.3-2.128 1.385-2.128l.11-.118-2.521-2.356-.028.031c-1.085 0-1.505 1.056-1.505 2.264v5.699Zm0-66.404 2.498 2.372.061-.064V.03c0-1.208.3-2.128 1.385-2.128l.22-.231-2.493-2.387-.166.174c-1.085 0-1.505 1.056-1.505 2.264zm0 33.074 2.498 2.371.061-.064v-5.699c0-1.208.3-2.128 1.385-2.128l.22-.231-2.493-2.387-.166.174c-1.085 0-1.505 1.056-1.505 2.264z" class="st16"/><path d="m143.085 130.996-.005.175q.29.008.586.008 1.578-.001 2.979-.167l-.035-.308s-.663-3.533-.814-5.269c-.098-1.105.471-1.93 1.341-2.169l-.011-.035c-.696.218-1.535.305-2.536.333v.013c-1.082 0-1.505 1.056-1.505 2.261zm.553-58.863-.151.156 2.59 2.533.12-.126v-5.699c0-1.207.42-2.264 1.505-2.264l.072-.074-2.641-2.472-.11.118c-1.085 0-1.385.92-1.385 2.128zm0-66.403-.061.064 2.62 2.487V2.594c0-1.208.42-2.264 1.505-2.264l.154-.162-2.613-2.497-.22.231c-1.085 0-1.385.92-1.385 2.128v5.699Zm0 33.073-.061.064 2.62 2.487v-5.687c0-1.208.42-2.264 1.505-2.264l.154-.162-2.613-2.497-.22.231c-1.085 0-1.385.92-1.385 2.128z" class="st16"/><path d="M147.137 123.266c-.87.239-1.439 1.064-1.341 2.169.151 1.736.813 5.269.813 5.269l.036.308c1.559-.182 2.956-.513 4.19-.98h-.003c-.54-.002-.916-.361-1.264-1.389s-1.157-3.031-1.477-3.974c-.279-.828-.276-1.605.343-2.108l-.015-.018c-.361.313-.788.534-1.293.688zm-.94-48.569-.12.126 2.329 2.279.095-.097v-5.699c0-1.208.42-2.264 1.505-2.264l.146-.159-2.378-2.223-.072.074c-1.085 0-1.505 1.056-1.505 2.264v5.7Zm0-39.029v5.687l2.235 2.12.069-.072v-5.428c0-1.207.42-2.264 1.505-2.264l.204-.215-2.354-2.254-.154.162c-1.085 0-1.505 1.056-1.505 2.264m0-33.074v5.687l2.235 2.12.069-.072V4.901c0-1.208.42-2.264 1.505-2.264l.204-.215-2.354-2.254-.154.162c-1.085 0-1.505 1.056-1.505 2.264" class="st16"/><path d="M148.434 122.561c-.619.503-.622 1.28-.343 2.108.32.943 1.129 2.946 1.477 3.974s.724 1.387 1.264 1.387h.003c1.169-.436 2.193-.995 3.068-1.661l-.299-.026s-3.841-3.877-4.172-4.302a1.78 1.78 0 0 1-.32-1.621l-.422-.141a2.3 2.3 0 0 1-.271.264zm.067-45.556-.095.097 2.186 2.136q.113.108.225.208l.243-.133v-5.699c0-1.208.42-2.264 1.505-2.264l.105-.113-2.519-2.354-.145.159c-1.086 0-1.505 1.056-1.505 2.264v5.7Zm0-66.676-.069.072 2.628 2.495V7.209c0-1.208.42-2.264 1.505-2.264l.133-.141-2.487-2.382-.205.215c-1.085 0-1.505 1.056-1.505 2.264zm0 33.074-.069.072 2.628 2.495v-5.687c0-1.207.42-2.264 1.505-2.264l.133-.141-2.487-2.382-.205.215c-1.085 0-1.505 1.056-1.505 2.264z" class="st16"/><path d="M149.112 122.42a1.77 1.77 0 0 0 .32 1.621c.33.425 4.172 4.302 4.172 4.302l.299.026a9.4 9.4 0 0 0 2.636-3.108l-.105-.056s-.363.423-1.056.061c-1.403-.725-4.518-2.128-4.871-2.343a1.77 1.77 0 0 1-.875-1.49l-.392.013q-.236.483-.55.833z" class="st16"/><path d="M149.632 121.433c.026.736.432 1.221.875 1.49.353.215 3.468 1.618 4.871 2.343.693.362 1.056-.061 1.056-.061l.105.056c.648-1.241 1.022-2.646 1.111-4.184l-.066-.005c-.118 1.079-.873 1.179-1.976 1.059s-3.128-.341-4.138-.454c-1.011-.11-1.902-.479-1.812-1.29l-.039-.01a5.6 5.6 0 0 1-.379 1.069z" class="st16"/><path d="m149.619 120.377.039.01c-.09.81.801 1.18 1.812 1.29 1.01.113 3.035.333 4.138.454 1.103.12 1.858.02 1.976-1.059l.066.005q.023-.374.023-.759v-1.902c-.102.874-.791 1.028-1.781 1.028h-4.039c-.987 0-1.883-.272-1.883-1.085h-.039c-.061.782-.163 1.449-.312 2.018" class="st16"/><path d="M149.931 118.357h.039c0 .815.896 1.087 1.883 1.087h4.039c.99 0 1.679-.154 1.781-1.028v-2.564c-.102.874-.785 1.028-1.771 1.028h-4.018c-.983 0-1.876-.272-1.876-1.085v.362c0 .82-.025 1.548-.077 2.2m.059-14.689c-.028.057.052.116.2.172.333.121 1.019.221 1.694.221h4.018c1.07 0 1.784-.182 1.784-1.267h.01v-1.6s-2.72 1.903-7.708 2.446v.028z" class="st16"/><path d="M150.008 113.232v2.563c0 .813.893 1.085 1.876 1.085h4.018c.986 0 1.669-.154 1.771-1.028v-2.582c-.092.89-.778 1.046-1.771 1.046h-4.018c-.983 0-1.876-.272-1.876-1.084" class="st16"/><path d="M150.008 110.668v2.564c0 .812.893 1.084 1.876 1.084h4.018c.993 0 1.679-.156 1.774-1.046l.005-2.625c-.069.943-.763 1.107-1.779 1.107h-4.018c-.983 0-1.876-.272-1.876-1.084" class="st16"/><path d="M150.008 108.104v2.564c0 .812.893 1.084 1.876 1.084h4.018c1.016 0 1.71-.164 1.779-1.107l.005-2.703c-.01 1.067-.722 1.246-1.784 1.246h-4.018c-.983 0-1.876-.271-1.876-1.084" class="st16"/><path d="M150.008 105.54v2.564c0 .813.893 1.084 1.876 1.084h4.018c1.062 0 1.774-.179 1.784-1.246v-.02l.005-2.564h-.005c0 1.085-.714 1.267-1.784 1.267h-4.018c-.983 0-1.876-.272-1.876-1.085" class="st16"/><path d="M150.008 103.85v1.69c0 .813.893 1.085 1.876 1.085h4.018c1.07 0 1.784-.182 1.784-1.267h.005l.005-2.564h-.01c0 1.085-.714 1.267-1.784 1.267h-4.018c-.675 0-1.361-.1-1.694-.221zm5.119-30.466q.077.019.151.049l.041-.108c-.691-.287-1.173-.726-1.835-1.328l-.814-.761-.105.113c-1.085 0-1.505 1.056-1.505 2.264v5.699l-.243.133c.939.849 1.817 1.354 2.787 1.651l.015-.049v-5.384c0-1.208.42-2.264 1.505-2.264v-.015zm-4.067-33.101v5.687l2.769 2.625.046-.049v-5.699c0-1.208.42-2.264 1.505-2.264l.069-.072-2.751-2.633-.133.141c-1.085 0-1.505 1.056-1.505 2.264m0-33.074v5.687l2.769 2.625.046-.049V9.773c0-1.208.42-2.264 1.505-2.264l.069-.072-2.751-2.633-.133.141c-1.085 0-1.505 1.056-1.505 2.264" class="st16"/><path d="m153.619 81.048-.015.049c.829.256 1.73.359 2.795.403l.005-.09v-5.415c0-1.044-.338-2.251-1.126-2.561a1 1 0 0 0-.151-.049v.015c-1.088 0-1.508 1.056-1.508 2.264zm.21-65.527 2.498 2.372.108-.113v-5.7c0-1.208.299-2.128 1.384-2.128l.123-.131-2.493-2.384-.069.072c-1.085 0-1.505 1.056-1.505 2.264v5.699zm0 33.073 2.498 2.372.108-.113v-5.699c0-1.208.299-2.128 1.384-2.128l.123-.131-2.493-2.384-.069.072c-1.085 0-1.505 1.056-1.505 2.264v5.699l-.046.049Z" class="st16"/><path d="M157.558 73.735v-.005c-1.008-.046-1.689-.177-2.239-.405l-.041.108c.788.31 1.126 1.518 1.126 2.561v5.415l-.005.09c.742.031 1.566.031 2.503.031h.061v-5.535c0-1.169-.397-2.195-1.405-2.259Zm-1.123-55.955-.108.113 2.626 2.495.041-.044v-5.699c0-1.208.419-2.264 1.505-2.264l.056-.059-2.613-2.5-.123.131c-1.085 0-1.384.92-1.384 2.128zm0 33.073-.108.113 2.626 2.495.041-.044v-5.699c0-1.208.419-2.264 1.505-2.264l.056-.059-2.613-2.5-.123.131c-1.085 0-1.384.92-1.384 2.128z" class="st16"/><path d="M157.558 73.73v.005c1.009.064 1.405 1.09 1.405 2.259v5.535h2.559v-5.535c0-1.126-.368-2.118-1.295-2.246h-1.806q-.468 0-.863-.018m1.436-20.313-.041.044 2.344 2.223v-5.658c0-1.208.42-2.264 1.505-2.264l.107-.113-2.354-2.254-.056.059c-1.086 0-1.505 1.056-1.505 2.264zm0-33.074-.041.044 2.344 2.223v-5.658c0-1.208.42-2.264 1.505-2.264l.107-.113-2.354-2.254-.056.059c-1.086 0-1.505 1.056-1.505 2.264z" class="st16"/><path d="M162.787 73.748h-2.56c.927.128 1.295 1.12 1.295 2.246v5.535h2.56v-5.535c0-1.126-.369-2.118-1.295-2.246m-1.49-23.723v5.658l2.518 2.39.041-.041v-5.699c0-1.208.42-2.264 1.505-2.264l.036-.038-2.488-2.382-.107.113c-1.085 0-1.505 1.056-1.505 2.264Zm0-33.074v5.658l2.518 2.389.041-.041v-5.699c0-1.208.42-2.264 1.505-2.264l.036-.038-2.488-2.382-.107.113c-1.085 0-1.505 1.056-1.505 2.264" class="st16"/><path d="M165.346 73.748h-2.559c.926.128 1.295 1.12 1.295 2.246v5.535h2.559v-5.535c0-1.126-.369-2.118-1.295-2.246m-1.531-48.749 2.762 2.623.095-.1v-5.7c0-1.208.299-2.264 1.384-2.264l.031-.031-2.69-2.572-.036.038c-1.085 0-1.505 1.056-1.505 2.264v5.699l-.041.041Zm0 33.074 2.762 2.623.095-.1v-5.699c0-1.208.299-2.264 1.384-2.264l.031-.031-2.69-2.571-.036.038c-1.085 0-1.505 1.056-1.505 2.264v5.699z" class="st16"/><path d="M167.905 73.748h-2.559c.926.128 1.295 1.12 1.295 2.246v5.535h2.257q.162 0 .315-.023l-.013-.097v-5.415c0-1.126-.368-2.118-1.295-2.246m-1.233-13.152-.095.1 2.487 2.359c.059 0 .121-.003.177-.008l-.01-.144v-5.699c0-1.208.089-1.946 1.172-1.946l.064-.044a11 11 0 0 0-1.042-1.331l-1.338-1.282-.031.031c-1.085 0-1.384 1.056-1.384 2.264zm0-33.074-.095.1 2.487 2.359c.059 0 .121-.003.177-.008l-.01-.144V24.13c0-1.208.089-1.946 1.172-1.946l.064-.043a11 11 0 0 0-1.042-1.331l-1.338-1.282-.031.031c-1.085 0-1.384 1.056-1.384 2.264z" class="st16"/><path d="M168.898 73.748h-.993c.927.128 1.295 1.12 1.295 2.246v5.415l.013.097a2.18 2.18 0 0 0 1.853-2.148V75.92a2.176 2.176 0 0 0-2.168-2.172m.333-16.544v5.699l.01.144a2.175 2.175 0 0 0 1.991-2.164v-3.438c0-.751-.284-1.487-.765-2.23l-.064.043c-1.083 0-1.172.738-1.172 1.946m0-33.074v5.699l.01.144a2.175 2.175 0 0 0 1.991-2.164v-3.438c0-.751-.284-1.487-.765-2.231l-.064.044c-1.083 0-1.172.738-1.172 1.946" class="st16"/><path d="M142.584 61.862c-1.085 0-1.505 1.056-1.505 2.264v5.699m3.944-5.519c-1.085 0-1.385.92-1.385 2.128v5.699m4.064-5.399c-1.085 0-1.505 1.056-1.505 2.264v5.699m3.809-5.656c-1.085 0-1.505 1.056-1.505 2.264v5.699m4.064-5.655c-1.085 0-1.505 1.056-1.505 2.264v5.699m4.064-5.912c-1.085 0-1.505 1.056-1.505 2.264v5.384m14.076-7.315q.112 0 .21.015c.927.128 1.295 1.12 1.295 2.246v5.415m-4.064-7.676q.11 0 .21.015c.926.128 1.295 1.12 1.295 2.246v5.415m-4.064-7.676q.11 0 .21.015c.926.128 1.295 1.12 1.295 2.246v5.415m-4.064-7.676q.11 0 .209.015c.927.128 1.295 1.12 1.295 2.246v5.415m-4.064-7.676q.05 0 .1.003c1.008.064 1.405 1.09 1.405 2.259v5.415" class="st3"/><path d="M154.868 73.356q.136 0 .259.028.077.019.151.049c.788.31 1.126 1.518 1.126 2.561v5.415m-13.82-52.877c-1.085 0-1.505 1.056-1.505 2.264v5.7m3.944-5.52c-1.085 0-1.385.92-1.385 2.128v5.699m4.064-5.399c-1.085 0-1.505 1.056-1.505 2.264v5.699m3.809-5.656c-1.085 0-1.505 1.056-1.505 2.264v5.428m4.064-5.384c-1.085 0-1.505 1.056-1.505 2.264v5.7m4.32-5.401c-1.085 0-1.505 1.056-1.505 2.264v5.699m3.944-5.519c-1.085 0-1.384.92-1.384 2.128v5.699m4.064-5.399c-1.085 0-1.505 1.056-1.505 2.264v5.699m3.808-5.656c-1.085 0-1.505 1.056-1.505 2.264v5.699m4.064-5.655c-1.085 0-1.505 1.056-1.505 2.264v5.699m4.2-5.399c-1.085 0-1.384 1.056-1.384 2.264v5.7m3.731-5.339c-1.082 0-1.172.738-1.172 1.946v5.699M142.584-4.541c-1.085 0-1.505 1.056-1.505 2.264v5.699m3.944-5.52c-1.085 0-1.385.92-1.385 2.128v5.699M147.702.33c-1.085 0-1.505 1.056-1.505 2.264v5.699m3.809-5.655c-1.085 0-1.505 1.056-1.505 2.264v5.428m4.064-5.385c-1.085 0-1.505 1.056-1.505 2.264v5.699m4.32-5.399c-1.085 0-1.505 1.056-1.505 2.264v5.699m3.944-5.52c-1.085 0-1.384.92-1.384 2.128v5.7m4.064-5.4c-1.085 0-1.505 1.056-1.505 2.264v5.699m3.808-5.655c-1.085 0-1.505 1.056-1.505 2.264v5.699m4.064-5.656c-1.085 0-1.505 1.056-1.505 2.264v5.699m4.2-5.399c-1.085 0-1.384 1.056-1.384 2.264v5.7m3.731-5.339c-1.082 0-1.172.738-1.172 1.946v5.699m-30.804 44.25c0-.815-.903-1.087-1.896-1.087h-4.064c-1.085 0-1.807.182-1.807 1.269m7.767 2.382c0-.815-.903-1.087-1.896-1.087h-4.064c-1.085 0-1.807.182-1.807 1.269m7.767 2.382c0-.815-.903-1.087-1.896-1.087h-4.064c-1.085 0-1.807.182-1.807 1.269m7.767 2.382c0-.815-.903-1.087-1.896-1.087h-4.064c-1.085 0-1.807.182-1.807 1.269m7.767 2.382c0-.815-.903-1.087-1.896-1.087h-4.064c-1.085 0-1.807.182-1.807 1.269m7.767 2.381c0-.815-.903-1.087-1.896-1.087h-4.064c-1.085 0-1.807.182-1.807 1.269m7.767 2.382c0-.815-.903-1.087-1.896-1.087h-4.064c-1.085 0-1.807.182-1.807 1.269m7.767 2.382c0-.815-.903-1.087-1.896-1.087h-4.064c-1.085 0-1.807.182-1.807 1.269m7.767 2.382c0-.815-.903-1.087-1.896-1.087h-4.064c-1.085 0-1.807.182-1.807 1.269m7.767 2.382c0-.815-.903-1.087-1.896-1.087h-4.064c-1.085 0-1.807.182-1.807 1.269m7.767 2.382c0-.815-.903-1.087-1.896-1.087h-4.064c-1.085 0-1.807.182-1.807 1.269m7.767 2.381c0-.815-.903-1.087-1.896-1.087h-4.064c-1.085 0-1.807.182-1.807 1.269m7.767 2.382c0-.815-.903-1.087-1.896-1.087h-4.064c-1.085 0-1.807.182-1.807 1.269m7.767 2.382c0-.815-.903-1.087-1.896-1.087h-4.064c-1.085 0-1.807.182-1.807 1.269m7.767 2.382c0-.815-.903-1.087-1.896-1.087h-4.064c-1.085 0-1.807.182-1.807 1.269m7.767 2.382c0-.816-.903-1.087-1.896-1.087h-4.064c-1.085 0-1.807.182-1.807 1.269m7.767 2.382c0-.816-.903-1.087-1.896-1.087h-4.064c-1.052 0-1.761.171-1.804 1.169q-.004.05-.003.1m7.767 2.381q0-.039-.002-.074c-.054-.759-.932-1.013-1.894-1.013h-4.064c-1.085 0-1.807.244-1.807 1.328m8.008 2.234c-.299-1.087-1.075-.936-2.065-.841l-4.046.387c-1.014.1-1.889.418-1.904 1.356q0 .085.007.182m.842 3.138c0-.543.66-.979 1.687-1.328 1.026-.349 3.027-1.161 3.969-1.479.891-.303 1.723-.275 2.214.505a1 1 0 0 1 .079.131m2.501 1.302c-1.085 0-1.508 1.056-1.508 2.264v5.058m4.146-7.237c-1.082 0-1.505 1.056-1.505 2.261v5.158m4.216-7.768q-.084.015-.164.038c-.87.239-1.439 1.064-1.341 2.169.151 1.736.814 5.269.814 5.269m-6.135-7.609a1.77 1.77 0 0 0-1.577.879c-.278.462-2.677 5.6-2.677 5.6m13.749-11.215c0 .813.895 1.085 1.883 1.085h4.039c.99 0 1.679-.154 1.781-1.028q.012-.112.013-.239m-7.678-2.382c0 .813.893 1.085 1.876 1.085h4.018c.985 0 1.669-.154 1.771-1.028q.012-.112.013-.239m-7.678-2.381c0 .812.893 1.084 1.876 1.084h4.018c.993 0 1.679-.156 1.774-1.046a2 2 0 0 0 .01-.22m-7.678-2.382c0 .812.893 1.084 1.876 1.084h4.018c1.016 0 1.71-.164 1.779-1.107 0-.052.005-.103.005-.159m-7.678-2.382c0 .813.893 1.084 1.876 1.084h4.018c1.062 0 1.774-.179 1.784-1.246m-7.678-2.402c0 .813.893 1.085 1.876 1.085h4.018c1.07 0 1.784-.182 1.784-1.267m-7.696-1.69c-.028.057.051.116.2.172.333.121 1.018.221 1.694.221h4.018c1.07 0 1.784-.182 1.784-1.267m-18.117 19.839a1.77 1.77 0 0 0-1.786.264c-.425.331-4.487 4.282-4.487 4.282m17.536 2.851c-.54 0-.916-.359-1.264-1.387s-1.157-3.031-1.477-3.974c-.279-.828-.276-1.605.343-2.108q.127-.103.292-.192m.903-1.025q0 .044.003.089c.026.736.433 1.221.875 1.49.353.215 3.468 1.618 4.871 2.343.693.362 1.057-.061 1.057-.061m-7.266-2.954a2 2 0 0 0-.057.169 1.77 1.77 0 0 0 .32 1.621c.33.425 4.172 4.302 4.172 4.302m-3.946-7.956c-.09.811.801 1.18 1.812 1.29 1.01.113 3.035.333 4.138.454 1.103.12 1.858.02 1.976-1.059" class="st3"/><path d="M150.817 79.445q-.113-.1-.225-.208l-2.186-2.136-2.329-2.279-2.59-2.533-2.462-2.407-.55-.538c-1.083-1.207-1.807-2.364-1.807-3.559v-3.441c0-1.192.978-2.171 2.168-2.171l1.776 1.659 2.521 2.356 2.641 2.472 2.378 2.223 2.518 2.354.814.761c.663.603 1.144 1.041 1.835 1.328.55.228 1.231.359 2.239.405q.395.019.863.018h10.477c1.193 0 2.168.977 2.168 2.172v3.438a2.18 2.18 0 0 1-2.168 2.171h-9.996c-.937 0-1.761 0-2.503-.031-1.065-.044-1.966-.146-2.795-.403-.97-.297-1.848-.802-2.787-1.651Zm6.869 28.477.005-2.564.005-2.564v-1.6s-2.72 1.903-7.708 2.446q-.734.082-1.533.118" class="st4"/><path d="M157.686 107.942v-.02" class="st3"/><path d="M150.008 103.85v12.307c0 .82-.025 1.548-.077 2.2-.061.784-.163 1.451-.312 2.02a5.6 5.6 0 0 1-.379 1.069 3.7 3.7 0 0 1-.55.833 2.3 2.3 0 0 1-.271.264c-.361.313-.788.534-1.293.688-.696.217-1.535.305-2.536.333q-.44.014-.924.013c-.64 0-1.208-.029-1.712-.103-.56-.079-1.042-.218-1.451-.436a2.8 2.8 0 0 1-1.093-1.005c-.309-.482-.537-1.102-.696-1.902-.138-.703-.223-1.541-.261-2.544q-.026-.665-.026-1.43V72.541a2.176 2.176 0 0 0-2.167-2.172h-3.432a2.176 2.176 0 0 0-2.168 2.172v41.806s-.023-.336-.038.836a166 166 0 0 0-.021 2.722c-.002.539-.002 1.159-.002 1.869q0 .644.053 1.267c.103 1.184.351 2.313.758 3.356a9.7 9.7 0 0 0 1.702 2.856c.814.944 1.835 1.749 3.079 2.379 1.2.611 2.605 1.059 4.233 1.311q1.24.193 2.656.228.29.007.586.007 1.578 0 2.979-.166c1.559-.182 2.956-.513 4.19-.98 1.169-.438 2.193-.997 3.068-1.664a9.35 9.35 0 0 0 2.636-3.107c.648-1.241 1.022-2.646 1.111-4.184q.023-.374.023-.759v-7.048l.008-2.625.005-2.703m-17.211-71.928-.044-.051c-1.059-1.19-1.763-2.331-1.763-3.507v-3.441a2.18 2.18 0 0 1 2.168-2.172" class="st4"/><path d="m141.199 26.874 1.551 1.484 2.493 2.387 2.613 2.497 2.354 2.254 2.488 2.382 2.751 2.633 2.493 2.384 2.613 2.5 2.354 2.254 2.488 2.382 2.69 2.571 1.338 1.282c.405.451.758.892 1.042 1.331.481.744.765 1.479.765 2.231v3.438a2.175 2.175 0 0 1-2.168 2.172l-2.487-2.359-2.762-2.623-2.518-2.39-2.344-2.223-2.626-2.495-2.498-2.372-2.769-2.625-2.628-2.495-2.235-2.12-2.62-2.487-2.498-2.372-.604-.572m0-32.983q-.023-.025-.044-.051c-1.059-1.19-1.763-2.331-1.763-3.507v-3.441a2.18 2.18 0 0 1 2.168-2.172" class="st4"/><path d="m141.199-6.2 1.551 1.484 2.493 2.387 2.613 2.497 2.354 2.254 2.488 2.382 2.751 2.633 2.493 2.384 2.613 2.5 2.354 2.254 2.488 2.382 2.69 2.571 1.338 1.282c.405.451.758.892 1.042 1.331.481.743.765 1.479.765 2.231v3.438a2.175 2.175 0 0 1-2.168 2.172l-2.487-2.359L163.815 25l-2.518-2.389-2.344-2.223-2.626-2.495-2.498-2.372-2.769-2.625-2.628-2.495-2.235-2.12-2.62-2.487-2.498-2.372-.604-.572" class="st4"/></g></svg>