<svg xmlns="http://www.w3.org/2000/svg" xmlns:xlink="http://www.w3.org/1999/xlink" id="Layer_1" x="0" y="0" version="1.1" viewBox="0 0 80 80" style="enable-background:new 0 0 80 80" xml:space="preserve"><style type="text/css">.st0{fill:#03d47c}.st1,.st2{fill-rule:evenodd;clip-rule:evenodd;fill:#fff}.st2{fill:#03d47c}.st3{fill:#0b1b34}</style><path d="M61.4,26.3H18.5l21-14.6L61.4,26.3z" class="st0"/><path d="M39.1,11c0.3-0.2,0.6-0.2,0.9,0l21.8,14.6c0.3,0.2,0.4,0.6,0.3,0.9c-0.1,0.3-0.4,0.6-0.8,0.6H18.5	c-0.3,0-0.7-0.2-0.8-0.6c-0.1-0.3,0-0.7,0.3-0.9L39.1,11z M39.5,12.6L21,25.5h37.7L39.5,12.6z" class="st1"/><path d="M50.5,26.2H29.4L39.8,19L50.5,26.2z" class="st0"/><path d="M39.3,18.4c0.3-0.2,0.6-0.2,0.9,0l10.7,7.1c0.3,0.2,0.4,0.6,0.3,0.9c-0.1,0.3-0.4,0.6-0.8,0.6H29.4	c-0.4,0-0.7-0.2-0.8-0.6c-0.1-0.3,0-0.7,0.3-0.9L39.3,18.4z M39.8,20l-7.8,5.4h15.9L39.8,20z" class="st1"/><path d="M58.6,29.1H21.4v26.6h37.3V29.1z" class="st0"/><path d="M20.6,29.1c0-0.4,0.4-0.8,0.8-0.8h37.3c0.4,0,0.8,0.4,0.8,0.8v26.6c0,0.4-0.4,0.8-0.8,0.8H21.4	c-0.4,0-0.8-0.4-0.8-0.8V29.1z M22.2,29.9v25h35.7v-25H22.2z" class="st2"/><path d="M62.2,55.2H17.7v5.1h44.6V55.2z" class="st0"/><path d="M16.9,55.2c0-0.4,0.4-0.8,0.8-0.8h44.6c0.4,0,0.8,0.4,0.8,0.8v5.1c0,0.4-0.4,0.8-0.8,0.8H17.7	c-0.4,0-0.8-0.4-0.8-0.8V55.2z M18.5,56v3.5h43V56H18.5z" class="st1"/><path d="M62.2,26.3H17.7v5.1h44.6V26.3z" class="st0"/><path d="M16.9,26.3c0-0.4,0.4-0.8,0.8-0.8h44.6c0.4,0,0.8,0.4,0.8,0.8v5.1c0,0.4-0.4,0.8-0.8,0.8H17.7	c-0.4,0-0.8-0.4-0.8-0.8V26.3z M18.5,27.1v3.5h43v-3.5H18.5z" class="st1"/><path d="M25.7,34.8v-3.4h-1.5h-4h-1.4v3.4h1.4v16.6h-1.4v3.4h7v-3.4h-1.5V34.8H25.7z" class="st0"/><path d="M17.9,31.4c0-0.4,0.4-0.8,0.8-0.8h7c0.4,0,0.8,0.4,0.8,0.8v3.4c0,0.4-0.4,0.8-0.8,0.8H25v15h0.7	c0.4,0,0.8,0.4,0.8,0.8v3.4c0,0.4-0.4,0.8-0.8,0.8h-7c-0.4,0-0.8-0.4-0.8-0.8v-3.4c0-0.4,0.4-0.8,0.8-0.8h0.6v-15h-0.6	c-0.4,0-0.8-0.4-0.8-0.8V31.4z M19.5,34h0.6c0.4,0,0.8,0.4,0.8,0.8v16.6c0,0.4-0.4,0.8-0.8,0.8h-0.6V54h5.4v-1.8h-0.7	c-0.4,0-0.8-0.4-0.8-0.8V34.8c0-0.4,0.4-0.8,0.8-0.8h0.7v-1.8h-5.4V34z" class="st1"/><path d="M43.4,34.8v-3.4H42h-4h-1.4v3.4H38v16.6h-1.4v3.4h6.9v-3.4H42V34.8H43.4z" class="st0"/><path d="M35.8,31.4c0-0.4,0.4-0.8,0.8-0.8h6.9c0.4,0,0.8,0.4,0.8,0.8v3.4c0,0.4-0.4,0.8-0.8,0.8h-0.6v15h0.6	c0.4,0,0.8,0.4,0.8,0.8v3.4c0,0.4-0.4,0.8-0.8,0.8h-6.9c-0.4,0-0.8-0.4-0.8-0.8v-3.4c0-0.4,0.4-0.8,0.8-0.8h0.6v-15h-0.6	c-0.4,0-0.8-0.4-0.8-0.8V31.4z M37.4,34H38c0.4,0,0.8,0.4,0.8,0.8v16.6c0,0.4-0.4,0.8-0.8,0.8h-0.6V54h5.3v-1.8H42	c-0.4,0-0.8-0.4-0.8-0.8V34.8c0-0.4,0.4-0.8,0.8-0.8h0.6v-1.8h-5.3V34z" class="st1"/><path d="M61,34.8v-3.4h-1.4h-4h-1.5v3.4h1.5v16.6h4V34.8H61z" class="st0"/><path d="M53.3,31.4c0-0.4,0.4-0.8,0.8-0.8h7c0.4,0,0.8,0.4,0.8,0.8v3.4c0,0.4-0.4,0.8-0.8,0.8h-0.6v15.8	c0,0.4-0.4,0.8-0.8,0.8h-4c-0.4,0-0.8-0.4-0.8-0.8V35.6h-0.7c-0.4,0-0.8-0.4-0.8-0.8V31.4z M54.9,34h0.7c0.4,0,0.8,0.4,0.8,0.8v15.8	h2.4V34.8c0-0.4,0.4-0.8,0.8-0.8h0.6v-1.8h-5.4V34z" class="st1"/><path d="M58.3,54c2.1,0,3.8-1.7,3.8-3.8s-1.7-3.8-3.8-3.8c-2.1,0-3.8,1.7-3.8,3.8S56.2,54,58.3,54z" class="st3"/><path d="M58.3,47.3c-1.6,0-3,1.3-3,3c0,1.6,1.3,3,3,3c1.6,0,3-1.3,3-3C61.3,48.6,60,47.3,58.3,47.3z M53.8,50.2	c0-2.5,2-4.6,4.6-4.6c2.5,0,4.6,2,4.6,4.6c0,2.5-2,4.6-4.6,4.6C55.8,54.8,53.8,52.8,53.8,50.2z" class="st1"/><path d="M58.3,55.2c-4.2,0-7.5,3.4-7.5,7.5c0,0.7,0.6,1.3,1.3,1.3h12.6c0.7,0,1.3-0.6,1.3-1.3	C65.8,58.6,62.4,55.2,58.3,55.2z" class="st3"/><path d="M50,62.7c0-4.6,3.7-8.3,8.3-8.3c4.5,0,8.2,3.7,8.4,8.3c0,0,0,0,0,0c0,1.2-0.9,2.1-2.1,2.1H52.1	C50.9,64.8,50,63.9,50,62.7z M58.3,56c-3.7,0-6.7,3-6.7,6.7c0,0.3,0.2,0.5,0.5,0.5h12.6c0.3,0,0.5-0.2,0.5-0.5	C65,59,61.9,56,58.3,56z" class="st1"/></svg>