<svg xmlns="http://www.w3.org/2000/svg" xml:space="preserve" id="Layer_1" x="0" y="0" viewBox="0 0 80 80"><style>.st0{fill:#03d47c}.st1,.st2{fill-rule:evenodd;clip-rule:evenodd;fill:#fff}.st2{fill:#03d47c}.st3{fill:#0b1b34}</style><path d="M61.4 26.3H18.5l21-14.6z" class="st0"/><path d="M39.1 11q.45-.3.9 0l21.8 14.6c.3.2.4.6.3.9s-.4.6-.8.6H18.5c-.3 0-.7-.2-.8-.6-.1-.3 0-.7.3-.9zm.4 1.6L21 25.5h37.7z" class="st1"/><path d="M50.5 26.2H29.4L39.8 19z" class="st0"/><path d="M39.3 18.4q.45-.3.9 0l10.7 7.1c.3.2.4.6.3.9s-.4.6-.8.6h-21c-.4 0-.7-.2-.8-.6-.1-.3 0-.7.3-.9zm.5 1.6L32 25.4h15.9z" class="st1"/><path d="M58.6 29.1H21.4v26.6h37.3V29.1z" class="st0"/><path d="M20.6 29.1c0-.4.4-.8.8-.8h37.3c.4 0 .8.4.8.8v26.6c0 .4-.4.8-.8.8H21.4c-.4 0-.8-.4-.8-.8zm1.6.8v25h35.7v-25z" class="st2"/><path d="M62.2 55.2H17.7v5.1h44.6v-5.1z" class="st0"/><path d="M16.9 55.2c0-.4.4-.8.8-.8h44.6c.4 0 .8.4.8.8v5.1c0 .4-.4.8-.8.8H17.7c-.4 0-.8-.4-.8-.8zm1.6.8v3.5h43V56z" class="st1"/><path d="M62.2 26.3H17.7v5.1h44.6v-5.1z" class="st0"/><path d="M16.9 26.3c0-.4.4-.8.8-.8h44.6c.4 0 .8.4.8.8v5.1c0 .4-.4.8-.8.8H17.7c-.4 0-.8-.4-.8-.8zm1.6.8v3.5h43v-3.5z" class="st1"/><path d="M25.7 34.8v-3.4h-6.9v3.4h1.4v16.6h-1.4v3.4h7v-3.4h-1.5V34.8z" class="st0"/><path d="M17.9 31.4c0-.4.4-.8.8-.8h7c.4 0 .8.4.8.8v3.4c0 .4-.4.8-.8.8H25v15h.7c.4 0 .8.4.8.8v3.4c0 .4-.4.8-.8.8h-7c-.4 0-.8-.4-.8-.8v-3.4c0-.4.4-.8.8-.8h.6v-15h-.6c-.4 0-.8-.4-.8-.8zm1.6 2.6h.6c.4 0 .8.4.8.8v16.6c0 .4-.4.8-.8.8h-.6V54h5.4v-1.8h-.7c-.4 0-.8-.4-.8-.8V34.8c0-.4.4-.8.8-.8h.7v-1.8h-5.4z" class="st1"/><path d="M43.4 34.8v-3.4h-6.8v3.4H38v16.6h-1.4v3.4h6.9v-3.4H42V34.8z" class="st0"/><path d="M35.8 31.4c0-.4.4-.8.8-.8h6.9c.4 0 .8.4.8.8v3.4c0 .4-.4.8-.8.8h-.6v15h.6c.4 0 .8.4.8.8v3.4c0 .4-.4.8-.8.8h-6.9c-.4 0-.8-.4-.8-.8v-3.4c0-.4.4-.8.8-.8h.6v-15h-.6c-.4 0-.8-.4-.8-.8zm1.6 2.6h.6c.4 0 .8.4.8.8v16.6c0 .4-.4.8-.8.8h-.6V54h5.3v-1.8H42c-.4 0-.8-.4-.8-.8V34.8c0-.4.4-.8.8-.8h.6v-1.8h-5.3V34z" class="st1"/><path d="M61 34.8v-3.4h-6.9v3.4h1.5v16.6h4V34.8z" class="st0"/><path d="M53.3 31.4c0-.4.4-.8.8-.8h7c.4 0 .8.4.8.8v3.4c0 .4-.4.8-.8.8h-.6v15.8c0 .4-.4.8-.8.8h-4c-.4 0-.8-.4-.8-.8V35.6h-.7c-.4 0-.8-.4-.8-.8v-3.4zm1.6 2.6h.7c.4 0 .8.4.8.8v15.8h2.4V34.8c0-.4.4-.8.8-.8h.6v-1.8h-5.4V34z" class="st1"/><path d="M58.3 54c2.1 0 3.8-1.7 3.8-3.8s-1.7-3.8-3.8-3.8-3.8 1.7-3.8 3.8 1.7 3.8 3.8 3.8" class="st3"/><path d="M58.3 47.3c-1.6 0-3 1.3-3 3 0 1.6 1.3 3 3 3 1.6 0 3-1.3 3-3s-1.3-3-3-3m-4.5 2.9c0-2.5 2-4.6 4.6-4.6 2.5 0 4.6 2 4.6 4.6 0 2.5-2 4.6-4.6 4.6s-4.6-2-4.6-4.6" class="st1"/><path d="M58.3 55.2c-4.2 0-7.5 3.4-7.5 7.5 0 .7.6 1.3 1.3 1.3h12.6c.7 0 1.3-.6 1.3-1.3-.2-4.1-3.6-7.5-7.7-7.5" class="st3"/><path d="M50 62.7c0-4.6 3.7-8.3 8.3-8.3 4.5 0 8.2 3.7 8.4 8.3 0 1.2-.9 2.1-2.1 2.1H52.1c-1.2 0-2.1-.9-2.1-2.1m8.3-6.7c-3.7 0-6.7 3-6.7 6.7 0 .3.2.5.5.5h12.6c.3 0 .5-.2.5-.5C65 59 61.9 56 58.3 56" class="st1"/></svg>