<?xml version="1.0" encoding="UTF-8"?>
<svg id="Layer_1" xmlns="http://www.w3.org/2000/svg" xmlns:xlink="http://www.w3.org/1999/xlink" version="1.1" viewBox="0 0 254 165">
  <!-- Generator: Adobe Illustrator 29.8.1, SVG Export Plug-In . SVG Version: 2.1.1 Build 2)  -->
  <defs>
    <style>
      .st0, .st1 {
        fill: none;
      }

      .st2 {
        fill: #fff2b2;
      }

      .st3 {
        fill: #0185ff;
      }

      .st4 {
        fill: #fffaf0;
      }

      .st5 {
        fill: #0164bf;
      }

      .st6 {
        fill: #002140;
      }

      .st7 {
        fill: #ffed8f;
      }

      .st8 {
        fill: #50eef6;
      }

      .st9 {
        fill: #e5fafe;
      }

      .st10 {
        fill: #fed607;
      }

      .st1 {
        stroke: #002140;
        stroke-linecap: round;
        stroke-linejoin: round;
        stroke-width: 1px;
      }

      .st11 {
        fill: #e96df2;
      }

      .st12 {
        clip-path: url(#clippath);
      }
    </style>
    <clipPath id="clippath">
      <rect class="st0" width="254" height="165"/>
    </clipPath>
  </defs>
  <g class="st12">
    <g>
      <path class="st1" d="M80.757,83.623v13.647"/>
      <path class="st1" d="M114.09,83.623v13.647"/>
      <path class="st1" d="M150.756,22.956v13.647"/>
      <path class="st1" d="M150.756,53.29v13.647"/>
      <path class="st1" d="M150.756,83.623v13.647"/>
      <path class="st1" d="M184.09,53.29v13.647"/>
      <path class="st1" d="M184.09,83.623v13.647"/>
      <path class="st1" d="M167.423,36.997v15.763"/>
      <path class="st1" d="M167.423,67.35v16"/>
      <path class="st1" d="M167.423,97.937v16"/>
      <path class="st1" d="M134.09,36.997v15.763"/>
      <path class="st1" d="M134.09,67.35v16"/>
      <path class="st1" d="M134.09,97.937v16"/>
      <path class="st1" d="M97.423,97.937v16"/>
      <path class="st5" d="M111.07,103.74c.973,0,1.763.79,1.763,1.767s-.79,1.763-1.763,1.763-1.767-.79-1.767-1.763.79-1.767,1.767-1.767Z"/>
      <path class="st5" d="M115.303,98.527c.977,0,1.767.79,1.767,1.763s-.79,1.764-1.767,1.764-1.763-.79-1.763-1.764.79-1.763,1.763-1.763Z"/>
      <path class="st5" d="M188.833,86.877v.08c-8.94,0-12,2.863-16.587,8.51-2.65,3.26-9.373,12.196-9.373,12.196l-6.353,1.177,2.746,4.547s-24.473,30.12-24.786,30.59v.233h-11.844v-.233c.054-.054,1.12-1.317,2.884-3.424,1.553-1.85,3.643-4.343,6.063-7.233,9.9-11.823,25.29-30.233,31.617-37.843.946-1.14,1.693-2.04,2.183-2.637,5.49-6.667,11.03-5.963,15.57-5.963h7.88Z"/>
      <path class="st11" d="M98.926,121.28l-5.377,1.016-.01-.046c-8.313-6.587-24.157-28.94-24.157-28.94l-7.217,10.666-.173.23c-3.733-2.776-7.327-4.366-9.897-5.25l.11-.313s8.627-13.883,11.45-18.353c2.823-4.47,6.667-6.667,10.667-3.687,3.76,2.803,17.58,13.373,19.213,14.623-1.577,10.249.223,21.047,5.39,30.053Z"/>
      <path class="st11" d="M93.536,91.227c.81-5.26,2.51-10.373,5.1-15.03.38-.683.777-1.357,1.19-2.017-2.937,9.62-2.927,20.117.027,29.73l6.783-.013-1.63,10.313c5.557,9.507,15.344,16.437,26.157,18.52l.42.59c-2.42,2.89-4.51,5.383-6.063,7.233l-.217-.183H59.187v-11.61h.237l34.127-6.463,5.377-1.017c-5.167-9.007-6.967-19.803-5.39-30.053Z"/>
      <path class="st6" d="M149.043,43.087c2.18.353,4.3,2.457,3.203,5.597l-3.843-1.647,1.253,4.157c-4.55.313-5.556-2.62-5.203-4.8s2.41-3.66,4.59-3.307Z"/>
      <path class="st6" d="M159.123,52.42c2.18.353,4.3,2.457,3.2,5.597l-3.843-1.647,1.256,4.157c-4.55.313-5.556-2.62-5.203-4.8.353-2.18,2.407-3.66,4.59-3.307Z"/>
      <path class="st8" d="M109.02,73.367c.246-.333.586-.593.96-.777,1-.49,2.156-.423,3.2-.003.626.25,1.213.63,1.7,1.087,1.133,1.063,1.846,2.483,2.486,3.913.09.203.18.41.27.613.264.6.564,1.327.864,2.103.416,1.08.836,2.263,1.156,3.36l.047.143c-.23.053-.453.137-.673.23-.164.07-.324.143-.484.223l-.066-.127c-2.034-.62-4.817-2.093-6.524-3.363-1.706-1.27-3.07-3.123-3.346-5.23-.09-.69-.054-1.427.306-2.02.03-.05.064-.1.1-.15,0,0,0-.003.004-.003Z"/>
      <path class="st8" d="M118.48,84.133l.066.127c-1.886.927-3.456,2.493-4.376,4.387-.534,1.093-.847,2.287-.93,3.497l-.17-.01c-2.197,1.49-5.257,2.587-6.904,2.743-1.646.16-1.993-1.043-2.04-1.253-1.393-6.543-.863-13.913,4.89-20.253-.036.05-.07.1-.1.15-.36.593-.396,1.33-.306,2.02.276,2.107,1.64,3.96,3.346,5.23,1.707,1.27,4.49,2.743,6.524,3.363Z"/>
      <path class="st8" d="M113.636,95.32c-.033-.003-.063-.003-.096-.007-.28-1.03-.377-2.103-.3-3.17.083-1.21.396-2.403.93-3.497.92-1.893,2.49-3.46,4.376-4.387.16-.08.32-.153.484-.223.22-.093.443-.177.673-.23.14-.033.28-.053.423-.057.347-.007.687.083,1.014.197,2.586.883,4.62,3.22,5.14,5.903l.013.09c-.627.11-.97.647-1.403,1.243-.934,1.28-1.65,2.71-2.194,4.2l-.22-.083c-2.94.203-5.896.213-8.84.02Z"/>
      <path class="st8" d="M138.963,100.787c-.043.303-.147.596-.317.856-.763,1.167-2.16,1.014-3.276.59-2.917-1.1-5.034-3.676-6.577-6.39-.55-.967-2.617-5.1-2.437-5.907v-.007c.13-.02.27-.02.43.003.26.037.74.237,1.317.513.637.31,1.387.713,2.09,1.113.933.527,1.783,1.043,2.17,1.303,1.233.827,2.397,1.757,3.477,2.78.55.517,1.076,1.057,1.576,1.62.79.887,1.547,1.873,1.574,3.124.003.133-.007.266-.027.4Z"/>
      <path class="st8" d="M138.646,101.644c.17-.26.274-.554.317-.857-.03.723-.25,1.47-.64,2.013-1.427,1.994-3.713,3.35-6.093,3.95-3.324.84-6.837.544-9.96-.806-.867-.377-1.38-1.281-1.277-2.217.247-2.287.563-4.567,1.193-6.773.15-.527.32-1.053.51-1.57.544-1.49,1.26-2.92,2.194-4.2.433-.597.776-1.133,1.403-1.243.02-.007.04-.01.063-.01v.007c-.18.807,1.887,4.94,2.437,5.907,1.543,2.713,3.66,5.291,6.577,6.391,1.116.423,2.513.576,3.276-.59Z"/>
      <path class="st10" d="M113.54,95.313c.033.003.063.003.096.007-2.636,3.043-4.616,5.33-7,8.577l-6.783.013c-2.953-9.614-2.963-20.11-.027-29.73,1.954-3.133,4.244-6.01,6.767-8.693,2.097-2.227,4.353-4.323,6.71-6.317v13.12l-.123.297c-1.044-.42-2.2-.487-3.2.003-.374.183-.714.443-.96.777-.004,0-.004.003-.004.003-5.753,6.34-6.283,13.71-4.89,20.253.047.21.394,1.413,2.04,1.253,1.647-.157,4.707-1.253,6.904-2.743l.17.01c-.077,1.067.02,2.14.3,3.17Z"/>
      <path class="st10" d="M163.186,95.467l.014.01c-6.327,7.61-21.717,26.02-31.617,37.843l-.42-.59c-10.813-2.083-20.6-9.013-26.157-18.52l1.63-10.313c2.384-3.247,4.364-5.533,7-8.577,2.944.193,5.9.183,8.84-.02l.22.083c-.19.517-.36,1.043-.51,1.57-.63,2.207-.946,4.486-1.193,6.773-.103.937.41,1.84,1.277,2.217,3.123,1.35,6.636,1.646,9.96.806,2.38-.6,4.666-1.956,6.093-3.95.39-.543.61-1.29.64-2.013.02-.133.03-.267.027-.4-.027-1.25-.784-2.237-1.574-3.123-.5-.563-1.026-1.103-1.576-1.62l.17-.177h27.176ZM117.07,100.29c0-.973-.79-1.763-1.767-1.763s-1.763.79-1.763,1.763.79,1.764,1.763,1.764,1.767-.79,1.767-1.764ZM112.833,105.507c0-.977-.79-1.767-1.763-1.767s-1.767.79-1.767,1.767.79,1.763,1.767,1.763,1.763-.79,1.763-1.763Z"/>
      <path class="st10" d="M59.736,113.624c.893.003,1.983-.564,2.993-1.57-2.223,2.63-4.817,5.706-6.813,8.076.46-.763.56-1.72.517-2.44-.05-.77-.387-1.56-1.05-1.99-.81-.526-1.727-.253-2.58.21-.853.46-1.387,1.38-2.01,2.107.557-.857.757-2.03.783-3.04.017-.653-.107-1.517-.693-1.847-.69-.386-1.8-.03-2.443.417-.743.517-1.42,1.117-2.01,1.787.52-1.104,1.147-2.604.677-3.73-.343-.834-1.053-1.274-1.983-1.274s-2.12.7-3.113,1.91l-.083-.036,4.757-10.674.033.014c-.253.916-.437,2.063-.38,3.013.057.947.457,1.92,1.24,2.45.963.65,2.05.31,3.06-.26,1.013-.567,1.773-1.483,2.51-2.377-.657,1.054-1.027,2.284-1.06,3.527-.02.803.13,1.87.827,2.277.813.473,2.13.036,2.893-.514.877-.636,1.68-1.376,2.38-2.203-.617,1.363-1.36,3.21-.803,4.597.41,1.026,1.25,1.566,2.353,1.57Z"/>
      <path class="st10" d="M55.657,130.66c-1.24-.043-2.49.25-3.583.84-.71.383-1.56,1.04-1.57,1.84-.01.94,1.017,1.853,1.873,2.24.987.44,2.023.76,3.087.953-1.487.147-3.457.427-4.387,1.594-.687.863-.743,1.853-.2,2.806.543.95,1.987,1.734,3.86,2.004v.056c-2.623-.163-6.163-.38-9.963-.606.72-.187,1.543-.504,2.15-.904.643-.423,1.16-1.11,1.203-1.9.057-.966-.64-1.623-1.463-2.136-.827-.51-1.887-.517-2.827-.694,1.02.057,2.137-.353,3.027-.83.573-.31,1.263-.85,1.257-1.523-.007-.787-.867-1.577-1.577-1.913-.817-.387-1.673-.674-2.55-.854,1.217-.1,2.83-.3,3.577-1.266.55-.714.58-1.547.117-2.357-.46-.81-1.66-1.49-3.203-1.75l-.017-.077,8.263-1.986,2.193-.527.01.047c-.917.236-2.003.65-2.797,1.17-.797.52-1.443,1.346-1.517,2.286-.09,1.15.74,1.92,1.733,2.507.993.587,2.163.79,3.303.98Z"/>
      <path class="st3" d="M24.44,129.153c0,1.567-.94,2.587-3.057,2.51-1.87-.07-3.617.474-4,2.974-.457-.044-3.067-.264-10.04-.544-7.763-.313-7.217-5.646-2.353-6.51,4.58-.813,11.663-2.11,12.473-2.256.637,1.713,1.72,1.793,3.293,1.71,2.98-.16,3.683.546,3.683,2.116Z"/>
      <path class="st3" d="M56.433,117.69c.043.72-.057,1.677-.517,2.44-1.887,2.24-3.24,3.847-3.24,3.847l.053.22-8.263,1.986-8.103,1.95s-2.137-2.243-4.133-5.646l.133-.08,5.647-1.41,3.917-8.794.083.037c.993-1.21,2.18-1.913,3.113-1.91.93,0,1.64.44,1.983,1.273.47,1.127-.157,2.627-.677,3.73.59-.67,1.267-1.27,2.01-1.786.643-.447,1.753-.804,2.443-.417.587.33.71,1.193.693,1.847-.027,1.01-.227,2.183-.783,3.04.623-.727,1.157-1.647,2.01-2.107.853-.463,1.77-.737,2.58-.21.663.43,1,1.22,1.05,1.99Z"/>
      <path class="st3" d="M66.246,107.897c-.863,1.013-2.11,2.49-3.503,4.143-.007.003-.01.007-.013.013-1.01,1.007-2.1,1.574-2.993,1.57-1.103-.003-1.943-.543-2.353-1.57-.557-1.386.187-3.233.803-4.596-.7.826-1.503,1.566-2.38,2.203-.763.55-2.08.987-2.893.513-.697-.406-.847-1.473-.827-2.276.033-1.244.403-2.474,1.06-3.527-.737.893-1.497,1.81-2.51,2.377-1.01.57-2.097.91-3.06.26-.783-.53-1.183-1.504-1.24-2.45-.057-.95.127-2.097.38-3.014l-.033-.013,1.6-3.593s1.49.223,3.813,1.02c2.57.883,6.163,2.474,9.897,5.251,1.413,1.05,2.847,2.273,4.253,3.69Z"/>
      <path class="st3" d="M59.186,140.37v2.9s-1.73-.11-4.453-.276v-.057c-1.87-.27-3.313-1.053-3.857-2.003-.543-.954-.487-1.944.2-2.807.93-1.167,2.9-1.447,4.387-1.593-1.063-.194-2.1-.514-3.087-.954-.857-.386-1.883-1.3-1.873-2.24.01-.8.86-1.456,1.57-1.84,1.093-.59,2.343-.883,3.583-.84-1.14-.19-2.31-.393-3.303-.98-.993-.586-1.823-1.356-1.733-2.506.073-.94.72-1.767,1.517-2.287.793-.52,1.88-.933,2.797-1.17l-.01-.047,4.263-1.026v17.726Z"/>
      <path class="st3" d="M17.463,125.323c-.48-1.286-.707-3.49-.707-7.23,0-10.116,5.333-18.743,8.627-22.116,3.293-3.373,7.057-1.803,6.197,1.177-.863,2.98-2.51,5.254-2.747,14.04-.11,4.177,1.587,8.21,3.397,11.294,1.997,3.403,4.133,5.646,4.133,5.646l8.103-1.95.017.077c1.543.26,2.743.94,3.203,1.75.463.81.433,1.643-.117,2.357-.747.966-2.36,1.166-3.577,1.266.877.18,1.733.467,2.55.854.71.336,1.57,1.126,1.577,1.913.007.673-.683,1.213-1.257,1.523-.89.477-2.007.887-3.027.83.94.177,2,.184,2.827.694.823.513,1.52,1.17,1.463,2.136-.043.79-.56,1.477-1.203,1.9-.607.4-1.43.717-2.15.904-9.683-.58-21.057-1.234-23.233-1.234-3.923,0-4.237-1.96-4.237-5.413,0-.403.027-.77.08-1.103.383-2.5,2.13-3.044,4-2.974,2.117.077,3.057-.943,3.057-2.51s-.703-2.276-3.683-2.116c-1.573.083-2.657.003-3.293-1.71v-.004Z"/>
      <path class="st9" d="M162.12,36.16c.226.31.43.637.593.983.403.85.56,1.853.237,2.733-.327.883-1.207,1.587-2.144,1.523-.45-.03-.873-.223-1.25-.473-1.133-.753-1.846-1.987-2.796-2.963-1.384-1.423-3.28-2.293-5.237-2.63-1.957-.337-3.977-.17-5.917.263-1.673-2.433-3.176-4.717-4.85-7.15-4.236,3.763-7.686.393-4.08-3.06,1.034-.99,1.944-1.85,2.864-2.687,1.366-1.253,2.75-2.457,4.576-3.977.56-.463,1.16-.96,1.817-1.493,4.233-3.45,7.293.393,3.45,3.843l5.567,5.333h.156c5.884-3.213,10.04-1.723,12.16.11,1.15,1,2.117,1.997,3.137,3.187.637.743,1.48,1.667,1.88,2.587.217.493.387.967.443,1.45.054.41.024.83-.126,1.27-.324.953-1.2,1.713-2.134,1.647-.446-.03-.87-.24-1.243-.51-.803-.58-1.19-1.317-1.8-2.13l-.053.027c.053.1.1.203.146.307.404.92.56,2.007.237,2.96-.323.953-1.2,1.713-2.137,1.647-.446-.033-.87-.24-1.243-.51-.8-.58-1.56-1.533-2.173-2.347l-.08.06Z"/>
      <path class="st9" d="M146.353,144.21c.573-.697,1.15-1.394,1.727-2.09,1.693-2.037,5.34-6.58,14.17-6.907.33-.013.67-.02,1.016-.02l9.334-.08v-4.04c0-1.797,1.456-3.253,3.253-3.253s3.253,1.456,3.253,3.253v16.393c0,1.797-1.456,3.254-3.253,3.254s-3.253-1.457-3.253-3.254v-2c-1.32.01-2.69-.096-3.857.514-.69.356-1.323.84-1.813,1.44-.12.15-.247.3-.374.46-2.976,3.65-8.29,10.12-9.576,11.593-.63.72-1.397,1.357-2.307,1.647-.91.29-2.013.136-2.643-.58-.294-.334-.457-.754-.507-1.2l-.1.01c-.42.33-.673.416-1.18.58-.91.29-2.013.136-2.643-.58-.36-.407-.52-.944-.527-1.494h-.123c-.384.287-.644.517-1.1.66-.91.29-2.014.137-2.644-.58-.596-.68-.643-1.713-.35-2.566.294-.857.877-1.58,1.45-2.28.164-.2.327-.4.49-.597l-.04-.033c-.65-.01-1.283-.237-1.706-.72-.597-.68-.644-1.71-.35-2.567.293-.857.876-1.58,1.45-2.28.733-.897,1.466-1.79,2.203-2.683Z"/>
      <path class="st2" d="M235.266,125.543l1.88,2.59c-17.02,12.314-28.47-1.02-28.47-1.02l.08-4.313c.027-.007.134-.013.31-.017v.094s10.277,14.746,26.12,2.746l-.016-.04c.033-.013.063-.026.096-.04Z"/>
      <path class="st2" d="M245.46,146.72l-.314,3.06c-4.076-1.02-5.646-3.45-5.646-3.45l.236-4.313s.12.036.35.096l-.036.137s1.96,3.453,5.41,4.47Z"/>
      <path class="st2" d="M252.52,143.82h.233c-.01,1.75-.153,3.686-.153,3.686,0,0-4.474,2.197-7.454,2.274l.314-3.06c3.53-.47,7.06-2.9,7.06-2.9Z"/>
      <path class="st2" d="M223.58,152.5l-.1,3.53s-10.074,6.353-24.55,1.097l-.294-3.37c12.72,5.856,24.944-1.257,24.944-1.257Z"/>
      <path class="st7" d="M136.833,158.8c-10.2,5.856-20-1.257-20-1.257l10.117-5.723s1.02,4.313,9.883,6.98Z"/>
      <path class="st7" d="M252.756,143.583c0,.08,0,.16-.003.24h-.233s-3.53,2.427-7.06,2.897c-3.45-1.017-5.41-4.47-5.41-4.47l.036-.137c1.36.36,6.554,1.604,12.67,1.47Z"/>
      <path class="st7" d="M235.17,125.583l.016.04c-15.843,12-26.116-2.746-26.116-2.746v-.094c1.896-.05,11.686.017,11.686.017,0,0,4.827,6.857,14.414,2.783Z"/>
      <path class="st7" d="M210.96,146.776l12.62,5.724s-12.224,7.113-24.944,1.256c11.054-2.666,12.324-6.98,12.324-6.98Z"/>
      <path class="st7" d="M189.65,48.047l-9.13,11.46-.18-.01.73-11.833-4.524,1.72-.026-.073,2.883-9.81.02.007,5.96.077-1.883,7.923,5.96.39.19.15Z"/>
      <path class="st2" d="M180.833,34.643l-1.43,4.857-2.883,9.81.026.073-3.32,1.26,5.254-17.413,2.353,1.413Z"/>
      <path class="st2" d="M193.933,47.037l-13.883,17.173.29-4.713.18.01,9.13-11.46,1.93-2.423,2.353,1.413Z"/>
      <path class="st2" d="M156.283,68.37l.013.197c-.263.023-.526.037-.796.037-4.807,0-8.707-3.897-8.707-8.707,0-.723.087-1.423.253-2.097l9.237,10.57Z"/>
      <path class="st4" d="M154.106,51.2l.017.103c-2.517.397-4.677,1.877-5.983,3.947-1.487.353-3.057-.13-4.407-.847-2.81-1.49-4.95-3.907-6.613-6.653l.076-.047c1.184-3.403,4.42-5.843,8.227-5.843,4.807,0,8.703,3.897,8.703,8.703,0,.213-.006.427-.02.637ZM152.246,48.683c1.097-3.14-1.023-5.243-3.203-5.597-2.18-.353-4.237,1.127-4.59,3.307s.653,5.113,5.203,4.8l-1.253-4.157,3.843,1.647Z"/>
      <path class="st4" d="M148.14,55.25c1.306-2.07,3.466-3.55,5.983-3.947.45-.073.91-.11,1.377-.11,4.81,0,8.706,3.897,8.706,8.703,0,4.54-3.473,8.27-7.91,8.67l-.013-.197-9.237-10.57c.227-.917.6-1.777,1.094-2.55ZM162.323,58.017c1.1-3.14-1.02-5.243-3.2-5.597-2.183-.353-4.237,1.127-4.59,3.307-.353,2.18.653,5.113,5.203,4.8l-1.256-4.157,3.843,1.647Z"/>
      <path class="st4" d="M147.046,57.8c-.166.673-.253,1.373-.253,2.097,0,4.81,3.9,8.707,8.707,8.707.27,0,.533-.013.796-.037,4.437-.4,7.91-4.13,7.91-8.67,0-4.807-3.896-8.703-8.706-8.703-.467,0-.927.037-1.377.11l-.017-.103c.014-.21.02-.423.02-.637,0-4.807-3.896-8.703-8.703-8.703-3.807,0-7.043,2.44-8.227,5.843l-.076.047c1.663,2.747,3.803,5.163,6.613,6.653,1.35.717,2.92,1.2,4.407.847-.494.773-.867,1.633-1.094,2.55ZM128.756,47.707c-1.46-3.677-.58-6.687.41-7.6.52-.48,1.214-.787,1.92-.777,1.974.023,3.07,2.22,3.834,4.04l10.686-7.773c1.94-.433,3.96-.6,5.917-.263,1.957.337,3.853,1.207,5.237,2.63.95.977,1.663,2.21,2.796,2.963.377.25.8.443,1.25.473.937.063,1.817-.64,2.144-1.523.323-.88.166-1.883-.237-2.733-.163-.347-.367-.673-.593-.983l.08-.06c.613.813,1.373,1.767,2.173,2.347.373.27.797.477,1.243.51.937.067,1.814-.693,2.137-1.647.323-.953.167-2.04-.237-2.96-.046-.103-.093-.207-.146-.307l.053-.027c.61.813.997,1.55,1.8,2.13.373.27.797.48,1.243.51.934.067,1.81-.693,2.134-1.647.15-.44.18-.86.126-1.27l.344-.037,5.41-.473-5.254,17.413,3.32-1.26,4.524-1.72-.73,11.833-.29,4.713,13.883-17.173s1.947,14.503-.237,23.763c-2.59,10.98-4.706,16.077-4.706,16.077h-8.037c-4.54,0-10.08-.703-15.57,5.963-.49.597-1.237,1.497-2.183,2.637l-.014-.01h-4.353v-.117l.237-8.707-7.404,1.24-.01-.063-.586-5.883-22.707,8.47-.26.04c-.577-.277-1.057-.477-1.317-.513-.16-.023-.3-.023-.43-.003-.023,0-.043.003-.063.01l-.013-.09c-.52-2.683-2.554-5.02-5.14-5.903-.327-.113-.667-.203-1.014-.197-.143,0-.283.023-.423.057l-.047-.143c-.32-1.097-.74-2.28-1.156-3.36l.333-.13,5.06-11.647-4.237-2h-.026l.733-4.12-7.06,1.767v-5.003c4.82-4.09,10.067-7.78,15.233-11.377l.22-.087Z"/>
      <path class="st3" d="M159.07,86.644l-.237,8.707v.117h-22.823l-.17.177c-1.08-1.023-2.244-1.953-3.477-2.78-.387-.26-1.237-.777-2.17-1.303l.053-.093,21.42-3.583,7.404-1.24Z"/>
      <path class="st3" d="M151.656,87.82l.01.063-21.42,3.583-.053.093c-.703-.4-1.453-.803-2.09-1.113l.26-.04,22.707-8.47.586,5.883Z"/>
      <path class="st3" d="M123.893,68.527l-5.06,11.647-.333.13c-.3-.777-.6-1.503-.864-2.103-.09-.203-.18-.41-.27-.613h.29l1.974-11.063h.026l4.237,2.003Z"/>
      <path class="st3" d="M120.363,62.407l-.733,4.117-1.974,11.06h-.29c-.64-1.427-1.353-2.847-2.486-3.91-.487-.457-1.074-.837-1.7-1.087l.123-.297v-8.117l7.06-1.767Z"/>
      <path class="st3" d="M144.05,18.644l.066.08c-1.826,1.52-3.21,2.723-4.576,3.977l-.197-.213s-1.41-1.57-7.843-9.727c-6.43-8.157-18.197-6.9-18.197,7.687v38.723c-2.357,1.993-4.613,4.09-6.71,6.317l-.19-.177c.157-.783,0-23.06,0-45.49s21.02-22.117,27.293-14.277c6.274,7.843,10.354,13.1,10.354,13.1Z"/>
      <path class="st3" d="M182.446,104.347c7.674,9.59,20.72,25.907,23.72,29.67,4.314,5.41,1.884,9.02-4.783,9.02h-22.277v-7.843h18.984l-19.43-23.69-.1.08s-9.02,16.236-16.314,23.53v.1c-8.826.326-12.473,4.87-14.166,6.906-.577.697-1.154,1.394-1.727,2.09h-11.873v-.233c.313-.47,24.786-30.59,24.786-30.59l-2.746-4.547,6.353-1.176s6.723-8.937,9.373-12.197c4.587-5.647,7.647-8.51,16.587-8.51v-.08h.157s-.864,7.14-6.197,17.257l-.347.213Z"/>
      <path class="st1" d="M128.536,47.793c-5.166,3.597-10.413,7.287-15.233,11.377-2.357,1.993-4.613,4.09-6.71,6.317-2.523,2.683-4.813,5.56-6.767,8.693-.413.66-.81,1.333-1.19,2.017-2.59,4.657-4.29,9.77-5.1,15.03-1.577,10.25.223,21.046,5.39,30.053l-5.377,1.017-34.127,6.463"/>
      <path class="st1" d="M138.493,60.746c-4.013-3.593-7.607-7.923-9.66-12.85-.027-.063-.053-.127-.077-.19-1.46-3.677-.58-6.687.41-7.6.52-.48,1.214-.787,1.92-.777,1.974.023,3.07,2.22,3.834,4.04.626,1.493,1.35,2.98,2.2,4.38,1.663,2.747,3.803,5.163,6.613,6.653,1.35.717,2.92,1.2,4.407.847.006-.003.016-.003.023-.007"/>
      <path class="st1" d="M106.403,65.31c.157-.783,0-23.06,0-45.49s21.02-22.117,27.293-14.277c6.274,7.843,10.354,13.1,10.354,13.1"/>
      <path class="st1" d="M139.343,22.487s-1.41-1.57-7.843-9.727c-6.43-8.157-18.197-6.9-18.197,7.687v51.843"/>
      <path class="st1" d="M151.523,35.333c1.957.337,3.853,1.207,5.237,2.63.95.977,1.663,2.21,2.796,2.963.377.25.8.443,1.25.473.937.063,1.817-.64,2.144-1.523.323-.88.166-1.883-.237-2.733-.163-.347-.367-.673-.593-.983-.324-.45-.697-.87-1.077-1.277-1.02-1.1-2.12-2.163-3.45-2.86-1.333-.693-2.937-.983-4.353-.48"/>
      <path class="st1" d="M151.523,35.334c-1.957-.337-3.977-.17-5.917.263-1.673-2.433-3.176-4.717-4.85-7.15-4.236,3.763-7.686.393-4.08-3.06,1.034-.99,1.944-1.85,2.864-2.687,1.366-1.253,2.75-2.457,4.576-3.977.56-.463,1.16-.96,1.817-1.493,4.233-3.45,7.293.393,3.45,3.843l5.567,5.333"/>
      <path class="st1" d="M162.2,36.1c.613.813,1.373,1.767,2.173,2.347.373.27.797.477,1.243.51.937.067,1.814-.693,2.137-1.647.323-.953.167-2.04-.237-2.96-.046-.103-.093-.207-.146-.307-.397-.787-.95-1.473-1.514-2.133-1.02-1.19-2.113-2.343-3.44-3.093-1.323-.753-2.923-1.067-4.333-.52"/>
      <path class="st1" d="M167.423,34.016c.61.813.997,1.55,1.8,2.13.373.27.797.48,1.243.51.934.067,1.81-.693,2.134-1.647.15-.44.18-.86.126-1.27-.056-.483-.226-.957-.443-1.45-.4-.92-1.243-1.843-1.88-2.587-1.02-1.19-1.987-2.187-3.137-3.187-2.12-1.833-6.276-3.323-12.16-.11"/>
      <path class="st1" d="M134.92,43.37l10.686-7.773"/>
      <path class="st1" d="M173.07,33.703l5.41-.473-5.254,17.413,3.32-1.26,4.524-1.72-.73,11.833-.29,4.713,13.883-17.173-2.353-1.413-1.93,2.423-9.13,11.46"/>
      <path class="st1" d="M178.48,33.23l2.353,1.413-1.43,4.857-2.883,9.81"/>
      <path class="st1" d="M179.423,39.507l5.96.077-1.883,7.923,5.96.39"/>
      <path class="st1" d="M154.123,51.303c.45-.073.91-.11,1.377-.11,4.81,0,8.706,3.897,8.706,8.703,0,4.54-3.473,8.27-7.91,8.67-.263.023-.526.037-.796.037-4.807,0-8.707-3.897-8.707-8.707,0-.723.087-1.423.253-2.097.227-.917.6-1.777,1.094-2.55,1.306-2.07,3.466-3.55,5.983-3.947Z"/>
      <path class="st1" d="M159.736,60.527c-4.55.313-5.556-2.62-5.203-4.8.353-2.18,2.407-3.66,4.59-3.307,2.18.353,4.3,2.457,3.2,5.597l-3.843-1.647,1.256,4.157Z"/>
      <path class="st1" d="M137.196,47.703c1.184-3.403,4.42-5.843,8.227-5.843,4.807,0,8.703,3.897,8.703,8.703,0,.213-.006.427-.02.637"/>
      <path class="st1" d="M149.656,51.194c-4.55.313-5.556-2.62-5.203-4.8s2.41-3.66,4.59-3.307c2.18.353,4.3,2.457,3.203,5.597l-3.843-1.647,1.253,4.157Z"/>
      <path class="st1" d="M147.03,57.78l.016.02,9.237,10.57"/>
      <path class="st1" d="M160.266,49.357c1.257-1.097,2.744-1.937,4.334-2.45.806-.26,1.853-.347,2.666-.107,1.13.337,1.89,1.18,2.037,2.353.147,1.173-.403,2.557-1.043,3.55-.637.997-1.494,1.827-2.344,2.65"/>
      <path class="st1" d="M148.283,39.42c1.817-.06,3.643.62,4.977,1.853,1.33,1.237,2.15,3.007,2.223,4.82"/>
      <path class="st1" d="M168.913,74.487l-2.363-1.48"/>
      <path class="st1" d="M125.303,63.74l1.207-2.42c.813-.627,1.66-1.27,2.66-1.513,1-.247,2.2.02,2.746.89.517.823.317,1.887.174,2.847-.144.963-.147,2.1.603,2.72.527.437,1.293.477,1.95.29.66-.183,1.247-.553,1.85-.88,1.44-.78,3.34-1.26,4.623-.243.92.727,1.207,2,1.2,3.17-.006,1.173-.246,2.343-.123,3.51.127,1.163.73,2.39,1.84,2.773,1.09.377,2.29-.177,3.177-.917.883-.74,1.57-1.877,2.563-2.46,1.333-.787,2.403-.62,3.24.173.573.543.783,1.363,1.2,2.037,1.443,2.337,3.75,1.57,4.41,1.34,1.303-.463,1.963-1.87,2.623-3.083.664-1.217,1.727-2.503,3.107-2.383.75.067,1.42.573,1.793,1.23.37.653.474,1.437.404,2.187l-1.247,2.343"/>
      <path class="st1" d="M124.283,60.21l1.963,1.177"/>
      <path class="st1" d="M126.356,89.937c-.18.807,1.887,4.94,2.437,5.907,1.543,2.713,3.66,5.29,6.577,6.39,1.116.424,2.513.577,3.276-.59.17-.26.274-.553.317-.856M138.963,100.787c.02-.134.03-.267.027-.4-.027-1.25-.784-2.237-1.574-3.124-.5-.563-1.026-1.103-1.576-1.62-1.08-1.023-2.244-1.953-3.477-2.78-.387-.26-1.237-.777-2.17-1.303-.703-.4-1.453-.803-2.09-1.113-.577-.277-1.057-.477-1.317-.513-.16-.023-.3-.023-.43-.003-.023,0-.043.003-.063.01-.627.11-.97.647-1.403,1.243-.934,1.28-1.65,2.71-2.194,4.2-.19.517-.36,1.043-.51,1.57-.63,2.207-.946,4.487-1.193,6.773-.103.936.41,1.84,1.277,2.216,3.123,1.35,6.636,1.647,9.96.807,2.38-.6,4.666-1.957,6.093-3.95.39-.543.61-1.29.64-2.013ZM138.963,100.787c.02-.364-.01-.724-.09-1.047"/>
      <path class="st1" d="M126.28,89.85c-.52-2.683-2.554-5.02-5.14-5.903-.327-.113-.667-.203-1.014-.197-.143,0-.283.023-.423.057-.23.053-.453.137-.673.23-.164.07-.324.143-.484.223-1.886.927-3.456,2.493-4.376,4.387-.534,1.093-.847,2.287-.93,3.497-.077,1.067.02,2.14.3,3.17.033.003.063.003.096.007,2.944.193,5.9.183,8.84-.02"/>
      <path class="st1" d="M109.016,73.37c-.036.05-.07.1-.1.15-.36.593-.396,1.33-.306,2.02.276,2.107,1.64,3.96,3.346,5.23,1.707,1.27,4.49,2.743,6.524,3.363"/>
      <path class="st1" d="M119.656,83.663c-.32-1.097-.74-2.28-1.156-3.36-.3-.777-.6-1.503-.864-2.103-.09-.203-.18-.41-.27-.613-.64-1.43-1.353-2.85-2.486-3.913-.487-.457-1.074-.837-1.7-1.087-1.044-.42-2.2-.487-3.2.003-.374.183-.714.443-.96.777"/>
      <path class="st1" d="M109.07,73.31c-.017.02-.034.037-.05.057-.004,0-.004.003-.004.003-5.753,6.34-6.283,13.71-4.89,20.253.047.21.394,1.413,2.04,1.253,1.647-.157,4.707-1.253,6.904-2.743"/>
      <path class="st1" d="M99.863,74.06c-.013.04-.023.08-.037.12-2.937,9.62-2.927,20.117.027,29.73l6.783-.013"/>
      <path class="st1" d="M113.653,95.3s-.013.013-.017.02c-2.636,3.043-4.616,5.33-7,8.577l-1.63,10.313c5.557,9.507,15.344,16.437,26.157,18.52"/>
      <path class="st1" d="M112.833,105.507c0,.973-.79,1.763-1.763,1.763s-1.767-.79-1.767-1.763.79-1.767,1.767-1.767,1.763.79,1.763,1.767Z"/>
      <path class="st1" d="M117.07,100.29c0,.974-.79,1.764-1.767,1.764s-1.763-.79-1.763-1.764.79-1.763,1.763-1.763,1.767.79,1.767,1.763Z"/>
      <path class="st1" d="M93.697,91.35s-.053-.043-.16-.123c-1.633-1.25-15.453-11.82-19.213-14.623-4-2.98-7.843-.783-10.667,3.687-2.823,4.47-11.45,18.353-11.45,18.353"/>
      <path class="st1" d="M93.54,122.25c-8.313-6.587-24.157-28.94-24.157-28.94l-7.217,10.667"/>
      <path class="st1" d="M17.463,125.327c.637,1.713,1.72,1.793,3.293,1.71,2.98-.16,3.683.546,3.683,2.116s-.94,2.587-3.057,2.51c-1.87-.07-3.617.474-4,2.974-.053.333-.08.7-.08,1.103,0,3.453.313,5.413,4.237,5.413,2.177,0,13.55.654,23.233,1.234,3.8.226,7.34.443,9.96.606,2.723.167,4.453.277,4.453.277v-20.627l-4.263,1.027-2.193.527-8.263,1.986-8.103,1.95s-2.137-2.243-4.133-5.646c-1.81-3.084-3.507-7.117-3.397-11.294.237-8.786,1.883-11.06,2.747-14.04.86-2.98-2.903-4.55-6.197-1.177-3.293,3.373-8.627,12-8.627,22.116,0,3.74.227,5.944.707,7.23"/>
      <path class="st1" d="M62.743,112.04c1.393-1.653,2.64-3.13,3.503-4.143-1.407-1.417-2.84-2.64-4.253-3.69-3.733-2.777-7.327-4.367-9.897-5.251-2.323-.797-3.813-1.02-3.813-1.02l-1.6,3.593-4.757,10.673-3.917,8.793-5.647,1.41"/>
      <path class="st1" d="M52.676,123.977s1.353-1.607,3.24-3.847c1.997-2.37,4.59-5.447,6.813-8.077"/>
      <path class="st1" d="M17.54,125.31s-.027,0-.077.013c-.81.15-7.893,1.447-12.473,2.26-4.863.864-5.41,6.197,2.353,6.51,6.973.28,9.583.5,10.04.544.053,0,.077.006.077.006"/>
      <path class="st1" d="M46.716,101.543c-.253.917-.437,2.064-.38,3.014.057.946.457,1.92,1.24,2.45.963.65,2.05.31,3.06-.26,1.013-.567,1.773-1.484,2.51-2.377-.657,1.053-1.027,2.283-1.06,3.527-.02.803.13,1.87.827,2.276.813.474,2.13.037,2.893-.513.877-.637,1.68-1.377,2.38-2.203-.617,1.363-1.36,3.21-.803,4.596.41,1.027,1.25,1.567,2.353,1.57.893.004,1.983-.563,2.993-1.57,0-.006.007-.01.013-.013.233-.233.46-.49.68-.77"/>
      <path class="st1" d="M55.813,120.29c.037-.053.07-.107.103-.16.46-.763.56-1.72.517-2.44-.05-.77-.387-1.56-1.05-1.99-.81-.527-1.727-.253-2.58.21-.853.46-1.387,1.38-2.01,2.107.557-.857.757-2.03.783-3.04.017-.654-.107-1.517-.693-1.847-.69-.387-1.8-.03-2.443.417-.743.516-1.42,1.116-2.01,1.786.52-1.103,1.147-2.603.677-3.73-.343-.833-1.053-1.273-1.983-1.273s-2.12.7-3.113,1.91"/>
      <path class="st1" d="M54.933,123.717c-.917.236-2.003.65-2.797,1.17-.797.52-1.443,1.346-1.517,2.286-.09,1.15.74,1.92,1.733,2.507.993.587,2.163.79,3.303.98-1.24-.043-2.49.25-3.583.84-.71.383-1.56,1.04-1.57,1.84-.01.94,1.017,1.853,1.873,2.24.987.44,2.023.76,3.087.953-1.487.147-3.457.427-4.387,1.594-.687.863-.743,1.853-.2,2.806.543.95,1.987,1.734,3.86,2.004"/>
      <path class="st1" d="M44.643,142.42c.043-.01.087-.02.13-.033.72-.187,1.543-.503,2.15-.903.643-.424,1.16-1.11,1.203-1.9.057-.967-.64-1.624-1.463-2.137-.827-.51-1.887-.517-2.827-.693,1.02.056,2.137-.354,3.027-.83.573-.31,1.263-.85,1.257-1.524-.007-.786-.867-1.576-1.577-1.913-.817-.387-1.673-.673-2.55-.853,1.217-.1,2.83-.3,3.577-1.267.55-.713.58-1.547.117-2.357-.46-.81-1.66-1.49-3.203-1.75"/>
      <path class="st1" d="M59.187,140.37h66.117"/>
      <path class="st1" d="M193.933,47.037s1.947,14.503-.237,23.763c-2.59,10.98-4.706,16.077-4.706,16.077h-8.037c-4.54,0-10.08-.703-15.57,5.963-.49.597-1.237,1.497-2.183,2.637-6.327,7.61-21.717,26.02-31.617,37.843-2.42,2.89-4.51,5.383-6.063,7.233-1.764,2.107-2.83,3.37-2.884,3.424"/>
      <path class="st1" d="M166.556,147.88c-2.976,3.65-8.29,10.12-9.576,11.593-.63.72-1.397,1.357-2.307,1.647-.91.29-2.013.136-2.643-.58-.294-.334-.457-.754-.507-1.2-.057-.454.007-.937.157-1.37.293-.857.876-1.577,1.45-2.277,3.043-3.727,6.12-7.423,9.233-11.087"/>
      <path class="st1" d="M172.6,134.956v-3.883c0-1.797,1.456-3.253,3.253-3.253s3.253,1.456,3.253,3.253v16.393c0,1.797-1.456,3.254-3.253,3.254s-3.253-1.457-3.253-3.254v-2c-1.32.01-2.69-.096-3.857.514-.69.356-1.323.84-1.813,1.44-.12.15-.247.3-.374.46"/>
      <path class="st1" d="M151.423,159.35c-.42.33-.673.417-1.18.58-.91.29-2.013.137-2.643-.58-.36-.406-.52-.943-.527-1.493-.007-.363.057-.733.177-1.077.293-.856.876-1.576,1.45-2.28,3.04-3.723,6.12-7.42,9.233-11.086"/>
      <path class="st1" d="M146.95,157.86c-.384.283-.644.513-1.1.657-.91.29-2.014.136-2.644-.58-.596-.68-.643-1.714-.35-2.567.294-.857.877-1.58,1.45-2.28.164-.2.327-.4.49-.597,2.884-3.523,5.797-7.02,8.744-10.49"/>
      <path class="st1" d="M144.756,152.46c-.65-.01-1.283-.237-1.706-.72-.597-.68-.644-1.71-.35-2.567.293-.856.876-1.58,1.45-2.28.733-.896,1.466-1.79,2.203-2.683.573-.697,1.15-1.393,1.727-2.09,1.693-2.037,5.34-6.58,14.17-6.907.33-.013.67-.02,1.016-.02l9.334-.08"/>
      <path class="st1" d="M176.756,97.23s2.33,2.913,5.69,7.117c7.674,9.59,20.72,25.906,23.72,29.67,4.314,5.41,1.884,9.02-4.783,9.02h-22.197"/>
      <path class="st1" d="M174.48,106.407l4.18,5.096,19.43,23.69h-18.824"/>
      <path class="st1" d="M188.99,86.877s-.864,7.14-6.197,17.257"/>
      <path class="st1" d="M178.56,111.583s-9.02,16.237-16.314,23.53"/>
      <path class="st1" d="M122.636,144.21h23.767"/>
      <path class="st1" d="M134.48,143.976c.313-.47,24.786-30.589,24.786-30.589l-2.746-4.547,6.353-1.177s6.723-8.937,9.373-12.197c4.587-5.647,7.647-8.51,16.587-8.51"/>
      <path class="st1" d="M117.656,77.583l1.974-11.06.733-4.117-7.06,1.767"/>
      <path class="st1" d="M119.656,66.527l4.237,2-5.06,11.647"/>
      <path class="st1" d="M130.246,91.467l21.42-3.583,7.404-1.24-.237,8.707"/>
      <path class="st1" d="M163.186,95.467h-27.176"/>
      <path class="st1" d="M128.363,90.407l22.707-8.47.586,5.883"/>
      <path class="st1" d="M136.833,158.8c-8.863-2.667-9.883-6.98-9.883-6.98l-10.117,5.723s9.8,7.113,20,1.257Z"/>
      <path class="st1" d="M116.833,157.543l.08,3.53s8.077,6.354,19.687,1.1l.233-3.373"/>
      <path class="st1" d="M198.636,153.756c11.054-2.666,12.324-6.98,12.324-6.98l12.62,5.724s-12.224,7.113-24.944,1.256Z"/>
      <path class="st1" d="M223.58,152.5l-.1,3.53s-10.074,6.353-24.55,1.097l-.294-3.37"/>
      <path class="st1" d="M245.146,149.78c2.98-.077,7.454-2.273,7.454-2.273,0,0,.143-1.937.153-3.684.003-.08.003-.16.003-.24-6.116.134-11.31-1.11-12.67-1.47-.23-.06-.35-.096-.35-.096l-.236,4.313s1.57,2.43,5.646,3.45Z"/>
      <path class="st1" d="M252.52,143.82s-3.53,2.43-7.06,2.9c-3.45-1.017-5.41-4.47-5.41-4.47"/>
      <path class="st1" d="M245.146,149.78l.314-3.06"/>
      <path class="st1" d="M235.17,125.583c.033-.013.063-.026.096-.04l1.88,2.59c-17.02,12.314-28.47-1.02-28.47-1.02l.08-4.313c.027-.007.134-.013.31-.017,1.9-.05,11.69.017,11.69.017,0,0,4.827,6.857,14.414,2.783Z"/>
      <path class="st1" d="M209.07,122.877s10.273,14.747,26.116,2.747"/>
    </g>
  </g>
</svg>
