<?xml version="1.0" encoding="UTF-8"?>
<svg id="Layer_1" xmlns="http://www.w3.org/2000/svg" xmlns:xlink="http://www.w3.org/1999/xlink" version="1.1" viewBox="0 0 375 220">
  <!-- Generator: Adobe Illustrator 29.5.1, SVG Export Plug-In . SVG Version: 2.1.0 Build 141)  -->
  <defs>
    <style>
      .st0, .st1, .st2 {
        fill: none;
      }

      .st3 {
        fill: #bf3013;
      }

      .st4, .st5 {
        fill: #f25730;
      }

      .st6 {
        fill: #fff2b2;
      }

      .st7 {
        fill: #fee45e;
      }

      .st8 {
        fill: #fffaf0;
      }

      .st9 {
        fill: #f9b5fe;
      }

      .st10 {
        fill: #003c73;
      }

      .st11 {
        fill: #ffed8f;
      }

      .st5 {
        stroke-miterlimit: 10;
      }

      .st5, .st1, .st2 {
        stroke: #002140;
      }

      .st12 {
        fill: #d18000;
      }

      .st13 {
        opacity: .3;
      }

      .st14 {
        fill: #fed607;
      }

      .st15 {
        fill: #780505;
      }

      .st16 {
        fill: #e4bc07;
      }

      .st17 {
        fill: #f68dfe;
      }

      .st1 {
        stroke-width: 1px;
      }

      .st1, .st2 {
        stroke-linecap: round;
        stroke-linejoin: round;
      }

      .st2 {
        stroke-width: 1px;
      }

      .st18 {
        fill: #e96df2;
      }

      .st19 {
        clip-path: url(#clippath);
      }
    </style>
    <clipPath id="clippath">
      <rect class="st0" width="375" height="220"/>
    </clipPath>
  </defs>
  <g class="st19">
    <g>
      <rect class="st15" width="375" height="220"/>
      <g class="st13">
        <path class="st3" d="M187.872-85c107.622,0,194.872,87.245,194.872,194.872s-87.25,194.873-194.872,194.873S-7,217.494-7,109.872,80.245-85,187.872-85ZM343.992,109.872c0-86.22-69.9-156.12-156.12-156.12S31.752,23.652,31.752,109.872s69.9,156.12,156.12,156.12,156.12-69.9,156.12-156.12Z"/>
        <path class="st3" d="M187.872-6.304c64.159,0,116.176,52.011,116.176,116.176s-52.017,116.176-116.176,116.176-116.175-52.017-116.175-116.176S123.708-6.304,187.872-6.304ZM263.015,109.872c0-41.501-33.642-75.143-75.143-75.143s-75.143,33.642-75.143,75.143,33.642,75.143,75.143,75.143,75.143-33.642,75.143-75.143Z"/>
        <path class="st15" d="M187.872-46.248c86.22,0,156.12,69.9,156.12,156.121s-69.9,156.12-156.12,156.12S31.752,196.093,31.752,109.873,101.652-46.248,187.872-46.248ZM304.048,109.873c0-64.165-52.017-116.176-116.176-116.176s-116.175,52.011-116.175,116.176,52.011,116.175,116.175,116.175,116.176-52.017,116.176-116.175Z"/>
        <path class="st15" d="M187.872,185.015c41.501,0,75.143-33.642,75.143-75.143s-33.642-75.143-75.143-75.143-75.143,33.643-75.143,75.143,33.643,75.143,75.143,75.143Z"/>
      </g>
      <path class="st14" d="M210.909,194.024c1.347,0,2.45,1.103,2.45,2.45,0,.674-.276,1.286-.721,1.73-.41.41-.96.676-1.572.714-.051-.004-.104-.006-.157-.006h-9.153c1.232-.126,2.202-1.176,2.202-2.438,0-.674-.277-1.286-.721-1.73s-1.056-.72-1.73-.72h9.402Z"/>
      <path class="st17" d="M211.066,198.918c1.275.081,2.293,1.15,2.293,2.444,0,.673-.276,1.285-.721,1.73s-1.056.72-1.729.72h-54.602c-1.347,0-2.45-1.103-2.45-2.45,0-.674.276-1.286.72-1.73.41-.41.963-.676,1.575-.714.051.004.102.006.155.006h54.602c.053,0,.106-.002.157-.006Z"/>
      <path class="st7" d="M201.507,194.024c.674,0,1.286.276,1.73.72.444.445.721,1.057.721,1.73,0,1.262-.969,2.312-2.202,2.438h-11.399c1.233-.126,2.202-1.176,2.202-2.438-.062-.931-.351-1.317-.844-1.651-.491-.336-1.186-.616-2.057-1.337,0,0-4.35-3.075-4.35-9.875v-4.076c0-.11.004-.331.034-.591.079-.663.323-1.583,1.092-1.583,1.275,0,1.175,1.651,1.175,1.651l.09.015c-.181,1.101-.291,2.402-.291,3.985,0,10.3,15,10.999,15,10.999v.013h-.901Z"/>
      <path class="st8" d="M194.662,21.356l.043.076s-3.377,5.812-3.451,5.925h-.002c-.527-.455-1.409-.376-2.059-.051-.202.106-.4.232-.587.372.463-.397.852-.795.735-1.422-.231-1.254-1.574-1.275-2.475-.825-.047.025-.094.051-.141.079l-.008-.178,1.375-3.976h6.57Z"/>
      <path class="st8" d="M192.004,16.594l2.659,4.762h-6.571l.032-.094,3.88-4.669Z"/>
      <path class="st17" d="M194.446,49.377v34.938c0,3.139-1.707,5.899-4.236,7.397l-.07-.006c.034-.406.034-.833.034-1.296v-3.4s.075-2.102-1.899-2.102-2,2.151-2,2.151v2.95s0,2.701-2.701,2.701-2.901-3.1-2.901-3.1v-3.7h-3.574v4.601s-.1.499-.041,1.203h-.053c-2.531-1.498-4.235-4.259-4.235-7.397v-34.938c0-4.458,3.438-8.15,7.793-8.556.263-.025.531-.038.801-.038h4.488c.433,0,.861.032,1.277.096,4.127.621,7.317,4.203,7.317,8.498ZM187.845,73.244v-20.551c0-2.185-1.789-3.974-3.974-3.974h-.529c-2.184,0-3.972,1.789-3.972,3.974v20.551c0,2.185,1.788,3.974,3.972,3.974h.529c2.185,0,3.974-1.789,3.974-3.974Z"/>
      <path class="st17" d="M190.924,29.348c.02-.011.037-.019.056-.03.722-.361,1.802-.344,1.989.663.151.814-.755,1.056-1.267,1.689,0,0-.797.608-1.069,1.949h-.004c-.185-.079-.336-.102-.548-.102-.374,0-.718.134-.986.355h-.228c-.002-.278-.01-.703-.029-1.328-.03-1.039.886-2.535,2.086-3.196Z"/>
      <path class="st6" d="M192.004,16.594l-3.88,4.669-4.463-4.463.206-.206h8.137Z"/>
      <path class="st14" d="M185.308,179.535v4.076c0,6.8,4.35,9.875,4.35,9.875.871.721,1.566,1.001,2.057,1.337.493.334.782.72.844,1.651,0,1.262-.969,2.312-2.202,2.438h-13.048c-1.232-.126-2.201-1.176-2.201-2.438.061-.931.35-1.317.841-1.651.491-.336,1.184-.616,2.057-1.337,0,0,4.35-3.075,4.35-9.875v-4.08c0-.113-.004-.334-.036-.593h.036s.039-1.613,1.501-1.613,1.425,1.611,1.425,1.611l.06.008c-.03.26-.034.481-.034.591Z"/>
      <path class="st18" d="M188.867,33.875h.228c-.344.28-.563.712-.563,1.192h-.002c0-.854-.695-1.549-1.55-1.549-.131,0-.259.017-.38.049l-.034-.134s.017-.264-.036-2.112c-.026-.856.467-1.964,1.237-2.852.074-.091.153-.176.238-.259.189-.185.395-.353.59-.521.005-.002.009-.006.011-.011.187-.14.385-.266.587-.372.65-.325,1.532-.404,2.059.053.202.174.35.427.414.773.113.608-.274.905-.741,1.215-1.201.661-2.117,2.157-2.087,3.196.019.625.027,1.05.029,1.33Z"/>
      <path class="st11" d="M183.839,33.52c.013-.002.026-.002.039-.002h.015c.822,0,1.496.642,1.545,1.451.04-.68.52-1.243,1.162-1.403.121-.032.249-.049.38-.049.855,0,1.55.695,1.55,1.549h.002c0-.48.219-.912.563-1.194.268-.221.612-.355.986-.355.212,0,.363.023.548.102h.004c-.057.276-.091.584-.091.924,0,4.067-1.734,5.627-3.392,6.188l-.021.147c-.416-.064-.844-.096-1.277-.096h-4.488c-.27,0-.538.013-.801.038l-.007-.081c-1.668-.552-3.419-2.108-3.419-6.197,0-.34-.034-.648-.091-.924h.004c.185-.079.336-.102.548-.102.427,0,.816.174,1.097.455.278.281.452.667.452,1.094,0-.854.693-1.549,1.55-1.549.131,0,.259.017.38.049.642.159,1.122.722,1.164,1.403.047-.81.721-1.451,1.543-1.451.017,0,.036,0,.053.002h.002Z"/>
      <path class="st7" d="M183.888,164.239c-.99.011-2.951.417-2.656,3.298.525,2.625,1.951,4.499-.225,5.851-3.15,1.124-3.751-3.3-3.751-3.3l-.051.004c-.032-.336-.049-.695-.049-1.08,0-4.601,4.301-7.401,4.301-9.801l.009-.187h4.28l.463.187c0,2.4,4.299,5.2,4.299,9.801,0,.661-.051,1.246-.138,1.777-.323,1.198-1.256,3.436-3.6,2.599-2.176-1.352-.75-3.226-.225-5.851.295-2.881-1.666-3.287-2.657-3.298Z"/>
      <path class="st11" d="M190.174,87.01v3.4c0,.463,0,.89-.034,1.296-.099,1.341-.533,2.446-2.365,3.904-1.7,1.124-2.201,1.649-2.201,3.075v3.098h-4.104c-.011,0-.023,0-.034.002l-.013-.289v-2.888c0-1.6-1.024-2.199-2.924-3.899-1.05-.939-1.368-2.125-1.441-2.996-.059-.703.041-1.203.041-1.203v-4.601h3.574v3.7s.202,3.1,2.901,3.1,2.701-2.701,2.701-2.701v-2.95s.025-2.151,2-2.151,1.899,2.102,1.899,2.102Z"/>
      <path class="st17" d="M189.341,26.256c.117.627-.272,1.024-.735,1.422-.002.004-.006.009-.011.011-.208.155-.406.332-.59.521-.085.083-.164.168-.238.259-.77.888-1.263,1.995-1.237,2.852.053,1.849.036,2.112.036,2.112l.034.134c-.642.159-1.122.722-1.162,1.403-.049-.81-.723-1.451-1.545-1.451h-.015l-.011-.21s.013-1.481-.028-3.158c0-.147.007-.293.011-.442.002-.076-.002-.155-.011-.236.126-1.279,1.497-3.158,2.886-3.961.047-.028.094-.053.141-.079.901-.451,2.244-.429,2.475.824Z"/>
      <path class="st9" d="M190.37,170.789c-.47,2.864-2.023,4.243-2.671,8.239l-.09-.015s.1-1.651-1.175-1.651c-.769,0-1.013.92-1.092,1.583l-.06-.009s.039-1.611-1.425-1.611-1.501,1.611-1.501,1.611h-.036c-.076-.661-.323-1.574-1.088-1.574-1.275,0-1.175,1.651-1.175,1.651l-.089.015c-.699-4.306-2.451-5.572-2.763-8.936l.051-.005s.601,4.425,3.751,3.301c2.176-1.352.75-3.226.225-5.851-.295-2.881,1.666-3.287,2.656-3.298.991.011,2.952.417,2.657,3.298-.525,2.625-1.951,4.499.225,5.851,2.344.837,3.277-1.401,3.6-2.599Z"/>
      <path class="st8" d="M188.124,21.262l-.032.094h-8.862l-.032-.094,4.463-4.463,4.463,4.463Z"/>
      <path class="st6" d="M188.092,21.356l-1.375,3.976.008.178c-1.389.803-2.76,2.682-2.886,3.961-.133-1.324-1.589-3.285-3.028-4.04-.068-.034-.138-.066-.21-.094v-.006l-1.371-3.976h8.862Z"/>
      <path class="st7" d="M187.703,113.235c.195,1.297.314,2.782.278,4.425h-.019l-4.312-4.225-4.124,4.125-.296.004c-.029-1.577.085-3.005.27-4.258l.026.004,4.124-4.125,4.051,4.05h.002Z"/>
      <path class="st17" d="M187.762,139.166c.164,1.213.255,2.579.217,4.075l-.229-.006-4.125,4.127-4.312-4.227h-.081c-.029-1.398.053-2.684.2-3.833l.368.046,3.825,3.764,3.899-3.915.238-.031Z"/>
      <path class="st17" d="M187.962,117.66h.019c-.027,1.19-.138,2.465-.359,3.81l-.147-.023-3.825-3.762-3.899,3.912-.134.022c-.247-1.437-.361-2.793-.387-4.055l.296-.004,4.124-4.125,4.312,4.225Z"/>
      <path class="st7" d="M187.75,143.235l.229.006c-.034,1.324-.17,2.748-.448,4.261l-3.915,4.11-3.859-4.05-.059.01c-.296-1.577-.436-3.062-.466-4.435h.081l4.312,4.225,4.125-4.127Z"/>
      <path class="st7" d="M187.762,139.165l-.238.032-3.899,3.915-3.825-3.764-.368-.047c.185-1.436.468-2.667.759-3.653l.433.136,3.001,3.078,3.075-3.114.323-.097c.283.954.557,2.137.739,3.514Z"/>
      <path class="st17" d="M187.703,113.235h-.002l-4.051-4.05-4.124,4.125-.026-.004c.553-3.724,1.749-5.921,1.749-5.921l.038-.227c.06.01.121.015.183.015h4.276c.061,0,.123-.005.182-.015l.037.227s1.181,2.17,1.738,5.85Z"/>
      <path class="st7" d="M187.476,121.447l.146.023c-.187,1.144-.457,2.34-.829,3.583l-.142-.042-3.001-3.075-3.075,3.113-.144.042c-.359-1.202-.625-2.361-.814-3.472l.134-.021,3.899-3.912,3.826,3.761Z"/>
      <path class="st17" d="M183.616,151.612l3.915-4.11c-.34,1.834-.886,3.795-1.717,5.859l-.013.276c-.019-.002-.036-.002-.055-.002h-4.276c-.019,0-.038,0-.057.002l-.013-.276c-.82-2.038-1.364-3.974-1.702-5.789l.059-.011,3.859,4.051Z"/>
      <path class="st17" d="M187.023,135.651l-.323.097-3.075,3.114-3.001-3.077-.433-.136c.52-1.775,1.058-2.763,1.058-2.763l.036-.081c.319.147.674.23,1.048.23h2.55c.372,0,.725-.081,1.043-.23l.039.081s.537.99,1.058,2.765Z"/>
      <path class="st17" d="M186.651,125.011l.142.042c-.27.912-.593,1.849-.979,2.807l-.931.151h-2.55c-.302,0-.593.053-.863.153l-.07-.304c-.38-.945-.701-1.868-.969-2.769l.144-.042,3.075-3.113,3.001,3.075Z"/>
      <path class="st14" d="M185.746,101.783c.72,0,1.311.591,1.311,1.313,0,.362-.149.689-.385.927-.238.238-.567.387-.926.387v.136c.72,0,1.311.591,1.311,1.313,0,.361-.149.689-.385.927-.197.197-.457.333-.744.372-.059.01-.121.014-.182.014h-4.276c-.062,0-.123-.004-.183-.014-.637-.088-1.13-.638-1.13-1.299,0-.361.146-.688.384-.926s.568-.387.929-.387v-.136c-.722,0-1.313-.591-1.313-1.314,0-.361.146-.688.384-.926s.547-.378.895-.385c.011-.002.023-.002.034-.002h4.276Z"/>
      <path class="st14" d="M185.801,153.637c.695.028,1.256.608,1.256,1.312,0,.361-.149.688-.385.926-.238.238-.567.387-.926.387v.136c.72,0,1.311.591,1.311,1.313,0,.361-.149.689-.385.927-.238.238-.567.386-.926.386h-4.28c-.721,0-1.309-.592-1.309-1.313,0-.361.146-.688.384-.926.238-.238.568-.387.929-.387v-.136c-.722,0-1.313-.591-1.313-1.313,0-.362.146-.689.384-.927.226-.225.534-.37.872-.385.019-.002.038-.002.057-.002h4.276c.019,0,.036,0,.055.002Z"/>
      <path class="st14" d="M184.883,128.011c1.381,0,2.512,1.131,2.512,2.512,0,.691-.283,1.318-.738,1.774-.21.211-.457.383-.731.508-.318.149-.671.23-1.043.23h-2.55c-.374,0-.729-.083-1.048-.23-.865-.399-1.466-1.275-1.466-2.282,0-.691.282-1.317.737-1.774.257-.255.57-.457.914-.585.27-.1.561-.153.863-.153h2.55Z"/>
      <path class="st18" d="M183.84,30.149c.04,1.677.027,3.158.027,3.158l.011.21c-.013,0-.026,0-.038.002-.017-.002-.037-.002-.054-.002-.822,0-1.496.642-1.542,1.451-.043-.68-.523-1.243-1.165-1.403l.034-.134s-.017-.264.036-2.112c.026-.856-.467-1.964-1.237-2.852-.074-.091-.153-.176-.238-.259-.185-.189-.382-.365-.59-.521-.005-.002-.009-.006-.011-.011-.465-.395-.852-.793-.735-1.422.214-1.16,1.379-1.264,2.263-.918.072.028.142.059.21.094,1.439.754,2.895,2.716,3.029,4.04-.011.081-.013.159-.011.236.004.149.008.295.011.442Z"/>
      <path class="st6" d="M183.661,16.8l-4.463,4.463-3.882-4.669h8.139l.206.206Z"/>
      <path class="st7" d="M165.458,194.037v-.039c1.77-.127,14.799-1.387,14.799-10.986,0-1.583-.111-2.884-.289-3.985l.089-.015s-.1-1.651,1.175-1.651c.765,0,1.012.914,1.088,1.577.032.259.036.48.036.593v4.08c0,6.8-4.35,9.875-4.35,9.875-.873.721-1.566,1.001-2.057,1.337-.491.334-.78.72-.841,1.651,0,1.262.969,2.312,2.201,2.438h-11.851c-1.233-.126-2.202-1.176-2.202-2.438,0-.673.276-1.285.721-1.73.323-.323.735-.556,1.194-.658.093-.024.189-.039.287-.049Z"/>
      <path class="st17" d="M179.912,28.469c.77.888,1.263,1.996,1.237,2.852-.053,1.849-.036,2.112-.036,2.112l-.034.134c-.121-.032-.249-.049-.38-.049-.857,0-1.549.695-1.549,1.549,0-.427-.175-.814-.453-1.094l.117-.053c.002-.28.01-.716.03-1.375.029-1.039-.889-2.535-2.087-3.196-.468-.31-.855-.608-.742-1.216.047-.249.136-.446.255-.604.491-.64,1.498-.582,2.219-.223.202.106.399.232.586.372.002.004.007.009.011.011.195.168.401.336.591.521.085.083.163.168.238.259h-.003Z"/>
      <path class="st8" d="M179.23,21.356l1.373,3.976v.006c-.886-.346-2.051-.242-2.265.918-.117.629.27,1.026.735,1.422-.187-.14-.385-.266-.586-.372-.721-.359-1.728-.417-2.219.223l-.202-.172c-.074-.113-3.449-5.925-3.449-5.925l.043-.076h6.57Z"/>
      <path class="st8" d="M179.198,21.263l.032.094h-6.57l2.656-4.762,3.882,4.669Z"/>
      <path class="st18" d="M176.755,29.348c1.198.661,2.116,2.157,2.086,3.196-.019.659-.027,1.094-.029,1.375l-.117.053c-.281-.281-.67-.455-1.097-.455-.212,0-.363.023-.548.102h-.004c-.272-1.341-1.069-1.949-1.069-1.949-.512-.633-1.418-.875-1.267-1.689.187-1.007,1.267-1.024,1.989-.663.019.011.036.019.056.03Z"/>
      <path class="st14" d="M165.458,198.912h-9.151c-.053,0-.104.002-.155.006-1.275-.079-2.295-1.15-2.295-2.444,0-.674.276-1.286.72-1.73s1.056-.72,1.73-.72h8.849l.015.062c-.459.102-.871.335-1.194.658-.445.444-.721,1.056-.721,1.73,0,1.262.969,2.312,2.202,2.438Z"/>
      <path class="st1" d="M165.706,198.924c-.085,0-.168-.004-.248-.012-1.233-.126-2.202-1.176-2.202-2.438,0-.674.276-1.286.721-1.73.323-.323.735-.556,1.194-.658.093-.024.189-.039.287-.049.08-.009.163-.013.248-.013"/>
      <path class="st1" d="M201.507,198.924c.085,0,.168-.004.249-.012,1.232-.126,2.202-1.176,2.202-2.438,0-.674-.277-1.286-.721-1.73s-1.056-.72-1.73-.72"/>
      <path class="st1" d="M211.066,198.918c1.275.081,2.293,1.15,2.293,2.444,0,.673-.276,1.285-.721,1.73s-1.056.72-1.729.72h-54.602c-1.347,0-2.45-1.103-2.45-2.45,0-.674.276-1.286.72-1.73.41-.41.963-.676,1.575-.714.051-.004.102-.006.155-.006h54.602c.053,0,.106.002.157.006Z"/>
      <path class="st1" d="M201.259,194.024h9.65c1.347,0,2.45,1.103,2.45,2.45,0,.674-.276,1.286-.721,1.73-.41.41-.96.676-1.572.714-.051.004-.104.006-.157.006h-54.602c-.053,0-.104-.002-.155-.006-1.275-.079-2.295-1.15-2.295-2.444,0-.674.276-1.286.72-1.73s1.056-.72,1.73-.72h8.849"/>
      <path class="st1" d="M165.256,194.012s.07-.005.2-.013c1.772-.128,14.801-1.388,14.801-10.987,0-1.583-.111-2.884-.289-3.984-.699-4.306-2.45-5.572-2.763-8.936-.032-.336-.049-.695-.049-1.08,0-4.601,4.301-7.401,4.301-9.801"/>
      <path class="st1" d="M182.356,179.531c0-.113-.004-.334-.036-.593-.076-.663-.323-1.577-1.088-1.577-1.275,0-1.175,1.651-1.175,1.651"/>
      <path class="st1" d="M177.558,198.925c-.085,0-.168-.004-.249-.013-1.232-.125-2.201-1.175-2.201-2.437.061-.931.35-1.318.841-1.652.491-.335,1.184-.616,2.057-1.336,0,0,4.35-3.075,4.35-9.875v-4.263"/>
      <path class="st1" d="M202.408,194.012s-15-.7-15-11c0-1.583.11-2.884.291-3.984.648-3.995,2.201-5.375,2.671-8.239.087-.531.138-1.116.138-1.777,0-4.601-4.299-7.401-4.299-9.801"/>
      <path class="st1" d="M185.308,179.535c0-.11.004-.331.034-.591.079-.663.323-1.583,1.092-1.583,1.275,0,1.175,1.651,1.175,1.651"/>
      <path class="st1" d="M190.109,198.925c.085,0,.167-.004.248-.013,1.233-.125,2.202-1.175,2.202-2.437-.062-.931-.351-1.318-.844-1.652-.491-.335-1.186-.616-2.057-1.336,0,0-4.35-3.075-4.35-9.875v-4.263"/>
      <path class="st1" d="M182.356,178.936s.038-1.611,1.5-1.611,1.426,1.611,1.426,1.611"/>
      <path class="st1" d="M177.256,170.087s.601,4.425,3.751,3.3c2.176-1.351.75-3.226.225-5.85-.295-2.882,1.666-3.287,2.656-3.298.015-.002.03-.002.045-.002"/>
      <path class="st1" d="M190.521,170.087s-.041.289-.151.701c-.323,1.199-1.256,3.437-3.6,2.599-2.176-1.351-.75-3.226-.225-5.85.295-2.882-1.666-3.287-2.657-3.298-.015-.002-.029-.002-.044-.002"/>
      <path class="st1" d="M185.801,153.637c.695.028,1.256.608,1.256,1.312,0,.361-.149.688-.385.926-.238.238-.567.387-.926.387v.136c.72,0,1.311.591,1.311,1.313,0,.361-.149.689-.385.927-.238.238-.567.386-.926.386h-4.28c-.721,0-1.309-.592-1.309-1.313,0-.361.146-.688.384-.926.238-.238.568-.387.929-.387v-.136c-.722,0-1.313-.591-1.313-1.313,0-.362.146-.689.384-.927.226-.225.534-.37.872-.385.019-.002.038-.002.057-.002h4.276c.019,0,.036,0,.055.002Z"/>
      <path class="st1" d="M185.926,132.805c-.318.149-.671.23-1.043.23h-2.55c-.374,0-.729-.083-1.048-.23-.865-.399-1.466-1.275-1.466-2.282,0-.691.282-1.317.737-1.774.257-.255.57-.457.914-.585.27-.1.561-.153.863-.153h2.55c1.381,0,2.512,1.131,2.512,2.512,0,.691-.283,1.318-.738,1.774-.21.211-.457.383-.731.508Z"/>
      <path class="st1" d="M185.574,101.783h.172c.72,0,1.311.591,1.311,1.313,0,.362-.149.689-.385.927-.238.238-.567.387-.926.387v.136c.72,0,1.311.591,1.311,1.313,0,.361-.149.689-.385.927-.197.197-.457.333-.744.372-.059.01-.121.014-.182.014h-4.276c-.062,0-.123-.004-.183-.014-.637-.088-1.13-.638-1.13-1.299,0-.361.146-.688.384-.926s.568-.387.929-.387v-.136c-.722,0-1.313-.591-1.313-1.314,0-.361.146-.688.384-.926s.547-.378.895-.385c.011-.002.023-.002.034-.002h4.104Z"/>
      <path class="st1" d="M181.249,107.385s-1.196,2.198-1.749,5.921c-.185,1.253-.299,2.682-.27,4.258.026,1.263.141,2.618.387,4.055.189,1.111.455,2.27.814,3.472.268.901.589,1.824.969,2.769"/>
      <path class="st1" d="M185.965,107.385s1.181,2.17,1.738,5.851c.195,1.296.314,2.781.278,4.424-.027,1.19-.138,2.465-.359,3.81-.187,1.143-.457,2.34-.829,3.583-.27.912-.593,1.849-.979,2.807"/>
      <path class="st1" d="M179.526,113.31l4.124-4.125,4.051,4.05"/>
      <path class="st1" d="M179.526,117.56l4.124-4.125,4.312,4.225"/>
      <path class="st1" d="M179.751,121.598l3.899-3.912,3.825,3.761"/>
      <path class="st1" d="M180.575,125.049l3.075-3.113,3.001,3.075"/>
      <path class="st1" d="M181.249,132.886s-.538.988-1.058,2.762c-.291.986-.574,2.217-.759,3.653-.147,1.15-.229,2.436-.2,3.836.03,1.373.17,2.858.466,4.435.338,1.815.882,3.751,1.702,5.789"/>
      <path class="st1" d="M185.965,132.886s.537.99,1.058,2.764c.283.955.557,2.138.739,3.515.164,1.214.255,2.58.217,4.076-.034,1.324-.17,2.748-.448,4.261-.34,1.834-.886,3.795-1.717,5.859"/>
      <path class="st1" d="M187.546,147.485l-.015.017-3.915,4.11-3.859-4.05"/>
      <path class="st1" d="M187.75,143.235l-4.125,4.127-4.312-4.227"/>
      <path class="st1" d="M187.524,139.197l-3.899,3.915-3.825-3.764"/>
      <path class="st1" d="M186.7,135.749l-3.075,3.113-3.001-3.077"/>
      <path class="st1" d="M185.574,101.783v-3.098c0-1.426.501-1.951,2.201-3.075,1.832-1.458,2.266-2.563,2.365-3.904.034-.406.034-.833.034-1.296v-3.4s.075-2.102-1.899-2.102-2,2.151-2,2.151v2.95s0,2.701-2.701,2.701-2.901-3.1-2.901-3.1v-3.7h-3.574v4.601s-.1.499-.041,1.203c.073.871.391,2.057,1.441,2.996,1.9,1.7,2.924,2.299,2.924,3.899v2.888"/>
      <path class="st1" d="M177.005,91.713c-2.531-1.498-4.235-4.259-4.235-7.397v-34.938c0-4.458,3.438-8.15,7.793-8.556.263-.025.531-.038.801-.038h4.488c.433,0,.861.032,1.277.096,4.127.621,7.317,4.203,7.317,8.498v34.938c0,3.139-1.707,5.899-4.236,7.397"/>
      <path class="st1" d="M183.871,48.718h-.527c-2.194,0-3.974,1.779-3.974,3.974v20.552c0,2.195,1.78,3.974,3.974,3.974h.527c2.195,0,3.974-1.779,3.974-3.974v-20.552c0-2.195-1.779-3.974-3.974-3.974Z"/>
      <path class="st1" d="M188.606,27.678c.187-.14.385-.266.587-.372.65-.325,1.532-.404,2.059.053.202.174.35.427.414.773.113.608-.274.905-.741,1.215-.309.208-.653.421-.908.733"/>
      <path class="st1" d="M188.005,28.21c.185-.189.382-.365.59-.521"/>
      <path class="st1" d="M186.566,33.433s.017-.264-.036-2.112c-.026-.856.467-1.964,1.237-2.852"/>
      <path class="st1" d="M183.867,33.307s.013-1.481-.028-3.158c-.002-.147-.006-.293-.01-.442-.002-.076,0-.155.01-.236.126-1.279,1.497-3.158,2.886-3.961.047-.028.094-.053.141-.079.901-.451,2.244-.429,2.475.824.117.627-.272,1.024-.735,1.422-.002.004-.006.009-.011.011-.195.168-.401.336-.59.521-.085.083-.164.168-.238.259"/>
      <path class="st1" d="M188.867,33.919v-.045c-.002-.281-.01-.706-.029-1.33-.03-1.039.886-2.535,2.087-3.196.019-.011.036-.019.055-.03.722-.361,1.802-.344,1.989.663.151.814-.755,1.056-1.267,1.689,0,0-.797.608-1.069,1.949-.057.276-.091.584-.091.924,0,4.067-1.734,5.627-3.392,6.188"/>
      <path class="st1" d="M182.344,35.067c0-.837.663-1.52,1.496-1.547.012-.002.025-.002.038-.002h.015c.822,0,1.496.642,1.545,1.451.004.032.004.064.004.098"/>
      <path class="st1" d="M185.431,35.067c0-.034,0-.066.007-.098.04-.68.52-1.243,1.162-1.403.121-.032.249-.049.38-.049.855,0,1.549.695,1.549,1.549"/>
      <path class="st1" d="M188.532,35.067c0-.48.218-.912.563-1.194.268-.221.612-.355.986-.355.212,0,.363.023.548.102"/>
      <path class="st1" d="M179.073,27.678c-.187-.14-.385-.266-.587-.372-.72-.359-1.727-.417-2.218.223-.119.157-.208.355-.255.604-.113.608.274.905.742,1.216.308.208.652.421.907.733"/>
      <path class="st1" d="M179.674,28.21c-.184-.189-.382-.365-.59-.521"/>
      <path class="st1" d="M181.113,33.433s-.017-.264.036-2.112c.026-.856-.467-1.964-1.237-2.852"/>
      <path class="st1" d="M183.812,33.307s-.013-1.481.028-3.158c0-.147.006-.293.01-.442.002-.076-.002-.155-.01-.236-.134-1.324-1.59-3.285-3.029-4.04-.068-.034-.138-.066-.21-.094-.884-.346-2.049-.242-2.263.918-.117.629.27,1.026.735,1.422.002.004.006.008.011.011.195.168.401.336.59.521.085.083.164.168.238.259"/>
      <path class="st1" d="M178.812,33.919c.002-.28.01-.716.029-1.375.03-1.039-.888-2.535-2.086-3.196-.02-.011-.037-.019-.056-.03-.722-.361-1.802-.344-1.989.663-.151.814.755,1.056,1.267,1.689,0,0,.797.608,1.069,1.949.057.276.091.584.091.924,0,4.089,1.751,5.644,3.419,6.197"/>
      <path class="st1" d="M185.336,35.067c0-.837-.666-1.52-1.497-1.547-.017-.002-.036-.002-.053-.002-.822,0-1.496.642-1.542,1.451-.007.032-.007.064-.007.098"/>
      <path class="st1" d="M182.248,35.067c0-.034,0-.066-.004-.098-.043-.68-.523-1.243-1.165-1.403-.121-.032-.249-.049-.38-.049-.857,0-1.549.695-1.549,1.549"/>
      <path class="st1" d="M179.147,35.067c0-.427-.174-.814-.452-1.094-.281-.281-.67-.455-1.097-.455-.212,0-.363.023-.548.102"/>
      <path class="st1" d="M183.455,16.594l.206.206,4.463,4.463,3.88-4.669"/>
      <path class="st1" d="M191.254,27.357c.074-.113,3.451-5.925,3.451-5.925l-.042-.076-2.659-4.762h-8.137"/>
      <path class="st1" d="M183.678,21.356h11.027"/>
      <path class="st1" d="M188.124,21.263l-.032.094-1.375,3.976"/>
      <path class="st1" d="M176.066,27.357c-.074-.113-3.449-5.925-3.449-5.925l.043-.076,2.656-4.762M175.316,16.594h8.551l-.206.206-4.463,4.463-3.882-4.669Z"/>
      <path class="st1" d="M183.642,21.356h-11.025"/>
      <path class="st1" d="M179.198,21.263l.032.094,1.373,3.976"/>
      <path class="st1" d="M222.758,126.844l2.306,3.143.078.109"/>
      <path class="st16" d="M214.63,126.4c-.974-.614-2.754-2.046-3.184-4.52-.144-.822-.21-1.521-.267-2.127-.158-1.696-.228-2.695-1.609-3.8l-.189-.11c-.406-.425-.655-.999-.655-1.632,0-1.061.699-1.957,1.66-2.257.223-.07.459-.106.703-.106.634,0,1.209.248,1.632.656.022.019.045.041.066.062.079.072.155.149.232.225.38.398.716.863.984,1.428.378.804.616,1.809.644,3.109.008.361.032.716.07,1.061.557,4.951,4.282,8.141,9.329,8.141h35.62c5.047,0,8.772-3.19,9.329-8.141.039-.345.062-.7.07-1.061.028-1.3.266-2.305.644-3.109.268-.565.604-1.03.984-1.428.077-.076.153-.153.232-.225.021-.021.044-.043.066-.062.423-.408.998-.656,1.632-.656,1.305,0,2.363,1.058,2.363,2.363,0,.633-.251,1.207-.655,1.632l-.189.11c-1.381,1.105-1.451,2.104-1.611,3.8-.055.606-.123,1.305-.265,2.127-.43,2.474-2.21,3.906-3.184,4.52l.034.055h4.724c3.677-1.8,2.276-7.826,2.276-7.826l-.051-.066c1.284-1.016,2.108-2.588,2.108-4.352,0,0,1.728,3.897,1.292,8.117-.699,6.801-6.598,13.201-17.699,15.902-12.045,2.931-17.201-.299-19.901,7.699h-.017c-2.701-7.998-7.857-4.768-19.902-7.699-11.101-2.701-17-9.101-17.702-15.902-.433-4.22,1.295-8.117,1.295-8.117,0,1.764.824,3.336,2.108,4.352l-.051.066s-1.401,6.026,2.276,7.826h4.724l.034-.055Z"/>
      <path class="st12" d="M273.165,108.686c2.809.274,5.008,2.641,5.008,5.525,0,1.764-.824,3.336-2.108,4.352-.945.752-2.142,1.198-3.442,1.198l-.092-.008c.16-1.696.23-2.695,1.611-3.8l.189-.11c.404-.425.655-.999.655-1.632,0-1.305-1.058-2.363-2.363-2.363l.71-.09-.181-2.89.013-.182Z"/>
      <path class="st11" d="M270.6,111.299l-2.008-.595-.253-.023c.259-.317.552-.601.875-.85.695-.544,1.526-.924,2.431-1.084.317-.057.644-.087.978-.087.183,0,.363.009.542.026l-.013.182.181,2.891-.71.089c-.634,0-1.209.248-1.632.656-.022.02-.045.041-.066.062-.079.072-.155.149-.232.225l-.093-1.492Z"/>
      <path class="st11" d="M242.827,57.026l-1.889-3.785s-.006-.045-.006-.117c.004-.227.089-.746.737-1.116,1.156-.661,1.798.278,1.985.627.04.072.059.119.059.119l1.683,3.372,26.239,52.567.01.053c-.905.16-1.736.54-2.431,1.084l-.085-.108-26.302-52.697Z"/>
      <path class="st11" d="M270.6,111.3l.093,1.491c-.38.398-.716.863-.984,1.428l-.193-.089c-.225-.076-2.35-.501-2.35-.501l-.064-.009c.119-1.111.563-2.123,1.237-2.939l.252.024,2.009.595Z"/>
      <path class="st12" d="M269.709,114.219c-.378.804-.616,1.809-.644,3.109-.008.362-.032.717-.07,1.061l-.078-.009c-1.316-1.016-1.845-2.38-1.845-4.169,0-.2.011-.398.03-.591l.064.009s2.125.425,2.35.501l.193.089Z"/>
      <path class="st14" d="M253.722,41.627c-.86-.013-1.77-.059-2.767-.136l-.252.006c-.113-3.105-1.72-5.043-3.63-6.252l.019-.03s4.123.623,9.034-.31c1.657-.317,3.406-.81,5.115-1.564,6.77-2.988,7.006,4.233,2.116,6.282-3.742,1.568-6.3,2.055-9.635,2.004Z"/>
      <path class="st14" d="M241.588,50.225c-.008.036-.021.07-.032.106-.291.882-.947,1.677-1.732,2.333-.648.544-1.385.992-2.074,1.313-.59.21-1.158.382-1.695.521-3.384.873-5.623.465-5.623.465-3.162-.499-5.111-2.029-6.31-3.687-4.207,8.396-5.068,11.907-11.603,18.643-1.766,1.866-3.663,3.411-5.637,4.673h-.071v-5.859c0-.969-.397-1.851-1.037-2.491-.639-.64-1.519-1.035-2.488-1.035l1.243-.168c7.079-6.343,9.197-14.805,10.351-17.759,1.097-2.811,2.988-16.11,13.567-19.138,10.483-3.003,16.637,2.274,22.103.767,7.556-2.085,7.669-5.385,9.832-5.685,2.164-.297,5.725,3.409,2.257,7.07-3.466,3.662-6.528,4.522-6.528,4.522l.015.087c-4.911.933-9.034.31-9.034.31l-.019.03c1.91,1.209,3.517,3.147,3.63,6.252.017.419.006.858-.036,1.322-.124,1.832-.506,3.222-1.029,4.286-.162.336-.338.638-.525.91l-.091.021c-.374-1.723-1.358-3.321-2.895-4.446-.633-.463-1.315-.812-2.021-1.048-.008-.098-.023-.202-.038-.308-.393-2.556-2.724-4.127-6.77-3.079-3.247.841-5.447,2.206-4.79,5.121.361,1.058.784,1.575,2.609,2.038.166.045.345.085.534.127,1.717.378,3.077-.463,4.32.081.408.176.801.504,1.192,1.067.589.92.667,1.815.425,2.635Z"/>
      <path class="st14" d="M257.705,42.343c7.282.627,3.908,6.885-1.297,6.339-2.796-.293-4.828-.767-6.77-1.577.523-1.065.905-2.454,1.028-4.286.043-.463.054-.903.037-1.322l.252-.006c.997.076,1.907.123,2.767.136,1.252.338,2.589.597,3.983.716Z"/>
      <path class="st12" d="M244.106,42.543c.706.236,1.388.584,2.021,1.048,1.537,1.124,2.521,2.722,2.895,4.446.438,2.019.044,4.21-1.271,6.008-.61.835-1.36,1.505-2.195,2.004l-.16.079-1.683-3.372s-.019-.047-.059-.119l.055-.017c.34-.227.648-.519.903-.867.228-.308.395-.642.51-.986.483-1.443.007-3.09-1.288-4.038-1.202-.878-2.637-.978-3.84-.259l-.023.055c-1.243-.544-2.603.298-4.32-.081-.189-.043-.368-.083-.534-.128l.107-.408c.134-.238.284-.467.45-.695,1.977-2.701,5.423-3.691,8.432-2.669Z"/>
      <path class="st14" d="M243.834,46.727c1.295.948,1.771,2.595,1.288,4.038l-.068-.023c-1.411.363-2.643.181-3.466-.516.243-.82.164-1.715-.425-2.635-.391-.563-.784-.89-1.192-1.067l.023-.055c1.203-.718,2.638-.618,3.84.259Z"/>
      <path class="st12" d="M238.248,56.258c-.328-.17-.646-.368-.952-.591-.462-.338-.874-.718-1.233-1.133l-.008-.036c.537-.138,1.105-.31,1.695-.521.689-.321,1.426-.769,2.074-1.313l.043.049c.317.189.654.325.999.408h.066c0,.074.006.119.006.119l1.889,3.785c-.656.1-1.328.111-1.995.034-.886-.104-1.762-.368-2.584-.801Z"/>
      <path class="st11" d="M240.832,57.06l-.013.096-26.238,52.568-.085.108c-.379-.297-.797-.546-1.246-.735-.376-.157-.771-.276-1.183-.349l.01-.053,26.171-52.436c.822.433,1.698.697,2.584.801Z"/>
      <path class="st12" d="M216.608,113.62c.021.193.032.391.032.591,0,1.789-.529,3.153-1.845,4.169l-.078.009c-.039-.344-.062-.699-.07-1.061-.028-1.3-.266-2.305-.644-3.109l.193-.089c.225-.076,2.35-.501,2.35-.501l.062-.009Z"/>
      <path class="st11" d="M216.608,113.62l-.062.008s-2.125.425-2.35.502l-.193.089c-.268-.565-.604-1.031-.984-1.428l.093-1.492,2.008-.595.077-.225c.771.848,1.284,1.936,1.411,3.141Z"/>
      <path class="st6" d="M214.496,109.831c.253.193.486.412.701.648l-.077.225-2.008.595.124-1.959.014-.244c.449.189.867.437,1.246.735Z"/>
      <path class="st11" d="M213.112,111.299l-.093,1.492c-.077-.076-.153-.153-.232-.225-.021-.021-.044-.042-.066-.062-.423-.408-.998-.656-1.632-.656-.244,0-.48.036-.703.106l-.006-.195.18-2.891-.013-.182c.179-.017.36-.026.542-.026.334,0,.661.03.978.087.412.073.807.192,1.183.349l-.014.244-.124,1.959Z"/>
      <path class="st12" d="M211.178,119.753l-.089.008c-1.3,0-2.497-.446-3.442-1.198-1.284-1.016-2.108-2.588-2.108-4.352,0-2.884,2.199-5.251,5.008-5.525l.013.182-.181,2.89.007.196c-.961.3-1.66,1.196-1.66,2.257,0,.633.249,1.207.655,1.632l.189.11c1.381,1.105,1.451,2.104,1.608,3.8Z"/>
      <path class="st6" d="M206.811,74.593v8.84c0,1.428-.588,2.935-2.367,3.171.548-.621.88-1.432.88-2.321v-14.912c0-.969-.397-1.851-1.037-2.491-.64-.64-1.52-1.035-2.489-1.035-.272,0-.535.036-.79.104.725-.652,1.566-.742,2.278-.742.969,0,1.851.397,2.488,1.035.638.638,1.037,1.522,1.037,2.491v5.859Z"/>
      <path class="st6" d="M201.008,65.95c.255-.068.518-.104.79-.104.969,0,1.851.397,2.489,1.035.637.637,1.037,1.521,1.037,2.491v14.912c0,.888-.332,1.7-.88,2.32-.646.737-1.594,1.205-2.646,1.205-.969,0-1.85-.395-2.488-1.035-.64-.64-1.037-1.52-1.037-2.491v-5.946c.504-.134,1.007-.281,1.511-.444l.028.089v5.889c0,.546.223,1.043.584,1.403.359.361.856.584,1.402.584.649,0,1.229-.314,1.592-.801.249-.331.395-.742.395-1.186v-14.512c0-1.094-.894-1.989-1.987-1.989h-.257c-.316.215-.641.423-.975.627-.759.465-1.507.854-2.244,1.175l-.019-.045c.191-1.464,1.287-2.805,2.705-3.177Z"/>
      <path class="st14" d="M198.273,78.338c-4.356,1.152-8.621,1.224-12.345.616l-.14.206c-3.126,6.158-9.435,12.659-18.575,15.237h-.14v-7.599c0-.606-.155-1.177-.427-1.677l.202-.066c.484-.166.969-.349,1.455-.548,14.629-5.988,8.254-23.784,8.254-23.784l.006-.004c.882,1.243,9.99,13.571,21.759,8.454.737-.321,1.485-.71,2.244-1.175.334-.204.659-.412.975-.627h.257c1.093,0,1.987.895,1.987,1.989v6.974h-.119c-.807.391-1.617.74-2.426,1.048-.485.185-.972.355-1.456.512-.504.164-1.007.31-1.511.444Z"/>
      <path class="st6" d="M203.286,85.008l.104.049c-.363.487-.943.801-1.592.801-.546,0-1.043-.223-1.402-.584-.361-.359-.584-.857-.584-1.403v-5.889l-.028-.089c.484-.157.971-.327,1.456-.512l.059.153v5.487c0,1.092.895,1.987,1.987,1.987Z"/>
      <path class="st16" d="M160.5,180.082l.034.055h4.726c3.674-1.8,2.274-7.825,2.274-7.825l-.051-.066c1.283-1.015,2.108-2.588,2.108-4.354,0,0,1.728,3.9,1.294,8.12-.701,6.8-6.6,13.201-17.702,15.9-12.045,2.93-17.2-.3-19.899,7.701h-.019c-2.701-8.001-7.854-4.771-19.901-7.701-11.099-2.699-17.001-9.1-17.7-15.9-.436-4.22,1.294-8.12,1.294-8.12,0,1.766.825,3.339,2.108,4.352l-.053.068s-1.4,6.025,2.276,7.825h4.724l.034-.055c-.973-.615-2.754-2.045-3.183-4.52-.143-.825-.211-1.522-.266-2.128-.159-1.693-.229-2.692-1.608-3.797l-.19-.113c-.405-.423-.654-.999-.654-1.632,0-1.06.697-1.957,1.657-2.254.224-.071.459-.107.704-.107.633,0,1.209.247,1.632.655.021.019.045.04.066.061.078.073.155.149.231.228.381.397.717.86.984,1.426.379.803.617,1.808.644,3.111.009.361.032.716.07,1.06.557,4.949,4.282,8.139,9.329,8.139h35.621c5.047,0,8.772-3.19,9.331-8.139.038-.344.062-.699.07-1.06.026-1.303.264-2.308.644-3.111.266-.563.601-1.027.982-1.424.076-.079.155-.155.233-.23,0-.002.003-.002.003-.002.429-.442,1.03-.714,1.693-.714,1.305,0,2.363,1.056,2.363,2.361,0,.633-.248,1.209-.654,1.632l-.189.113c-1.379,1.105-1.45,2.104-1.607,3.797-.055.606-.123,1.303-.268,2.128-.431,2.475-2.214,3.908-3.185,4.52Z"/>
      <path class="st12" d="M164.582,162.369c2.812.274,5.009,2.642,5.009,5.523,0,1.766-.825,3.339-2.108,4.354-.946.751-2.142,1.197-3.443,1.197l-.087-.009c.157-1.693.228-2.692,1.607-3.797l.189-.113c.406-.423.654-.999.654-1.632,0-1.305-1.058-2.361-2.363-2.361l.712-.089-.183-2.892.013-.181Z"/>
      <path class="st6" d="M167.073,94.397v7.1c0,1.436-.831,3.038-2.631,3.262l-.017-.017c.712-.646,1.16-1.577,1.16-2.608v-14.699c0-.969-.397-1.851-1.037-2.491-.639-.64-1.519-1.035-2.488-1.035-.179,0-.355.013-.527.04l-.007-.038c.574-.404,1.271-.64,2.021-.64.969,0,1.851.397,2.489,1.035.24.24.446.514.61.814.272.499.427,1.071.427,1.677v7.599Z"/>
      <path class="st6" d="M162.948,86.071l-.006.013c-1.471.291-2.903.453-4.282.512v-.085c.361-1.328,1.489-2.353,2.873-2.561.172-.028.348-.04.527-.04.969,0,1.851.397,2.488,1.035.638.637,1.037,1.521,1.037,2.491v14.699c0,1.031-.448,1.962-1.16,2.608-.625.571-1.458.918-2.365.918-.969,0-1.851-.396-2.489-1.035-.639-.64-1.037-1.52-1.037-2.491v-6.403c.228-.013.459-.03.697-.047h.842v6.037c0,.546.223,1.043.584,1.403.359.361.857.584,1.403.584.573,0,1.092-.247,1.455-.638.33-.354.532-.831.532-1.349v-13.875c0-.776-.449-1.449-1.099-1.776Z"/>
      <path class="st11" d="M162.017,164.983l-2.008-.597-.251-.023c.26-.315.553-.6.876-.85.695-.542,1.523-.923,2.429-1.082.316-.057.644-.087.977-.087.183,0,.364.008.542.025l-.013.181.183,2.892-.712.089c-.663,0-1.264.272-1.693.714,0,0-.002,0-.002.002-.079.075-.158.151-.234.23l-.094-1.494Z"/>
      <path class="st14" d="M140.903,93.651c.629,1.949.711,4.422-.751,7.267l-.031.011c-1.014-2.926-3.796-5.026-7.066-5.026-.969,0-1.894.185-2.744.519l-.01-.136c-1.448-1.908-4.365-1.281-6.962.841-3.234,2.648-3.343,5.457-1.511,7.283,1.332,1.328,2.688,1.213,3.976.784.952-.317,1.868-.803,2.714-1.003.788-.187,1.515-.125,2.152.555.406.431.64.899.723,1.377.195,1.098-.385,2.265-1.447,3.26-.262.246-.553.48-.869.701-1.008.701-3.464,1.989-6.582,1.551-1.273-.176-2.652-.642-4.091-1.551-.397-.238-.758-.489-1.085-.746-2.44-1.925-3.058-4.369-2.908-6.628h-.034s-1.931,3.693-5.582,7.106l-.062-.064s-2.503,1.966-7.505,2.601c-5.003.638-5.893-4.424-4.374-5.994,1.519-1.571,4.25.289,10.392-4.582,4.445-3.521,3.818-11.605,12.429-18.295,8.69-6.749,20.539-.425,23.457.349,2.539.674,8.326,3.079,15.528,2.765,1.379-.059,2.811-.221,4.282-.512l.006-.013c.65.327,1.099,1.001,1.099,1.776v7.268h-.051c-.396.066-.793.125-1.197.176-.431.06-.85.115-1.256.161-.814.1-1.583.176-2.312.232-.238.017-.469.034-.699.047-6.328.385-9.939-.786-17.629-2.08Z"/>
      <path class="st6" d="M163.515,103.071c-.363.391-.882.638-1.455.638s-1.044-.224-1.403-.585c-.361-.359-.584-.856-.584-1.402v-6.038h-.842c.729-.055,1.498-.132,2.312-.232l.017.145v5.487c0,1.082.878,1.97,1.955,1.987Z"/>
      <path class="st11" d="M163.052,162.378l.011.053c-.906.159-1.734.54-2.429,1.082l-.085-.109-26.238-52.568-.013-.074c.909-.151,1.764-.467,2.529-.916l.038.064,26.187,52.468Z"/>
      <path class="st11" d="M162.017,164.983l.094,1.494c-.381.397-.716.86-.982,1.424l-.196-.09c-.223-.074-2.348-.499-2.348-.499l-.064-.009c.117-1.111.564-2.125,1.237-2.941l.251.024,2.008.597Z"/>
      <path class="st12" d="M161.129,167.901c-.38.803-.618,1.808-.644,3.111-.008.361-.032.716-.07,1.06l-.081-.01c-1.315-1.016-1.844-2.38-1.844-4.17,0-.199.01-.395.031-.588l.064.008s2.125.425,2.348.5l.196.089Z"/>
      <path class="st12" d="M140.121,100.929c.269.769.414,1.596.414,2.457,0,2.756-1.49,5.161-3.708,6.46-.765.448-1.62.765-2.529.916-.404.068-.82.104-1.243.104-.274,0-.544-.015-.81-.045l1.947-3.899s.031-.083.059-.213l.121.019c1.333-.524,2.276-1.823,2.276-3.342,0-1.985-1.608-3.596-3.593-3.596-.744,0-1.437.227-2.011.614-.954.646-2.968,1.284-2.577,3.309l.051.478c-.846.2-1.762.686-2.714,1.003l-.034-.104c-.128-.548-.196-1.12-.196-1.704,0-3.165,1.964-5.87,4.737-6.964.85-.334,1.775-.519,2.744-.519,3.27,0,6.052,2.1,7.066,5.026Z"/>
      <path class="st14" d="M136.648,103.386c0,1.519-.943,2.817-2.276,3.342l-.121-.019c.075-.359.098-1.073-.786-1.349-1.201-.376-2,.75-2,.75l-.072.013c-.083-.478-.317-.946-.723-1.377-.637-.68-1.364-.742-2.152-.555l-.051-.478c-.391-2.025,1.623-2.663,2.577-3.309.574-.387,1.267-.614,2.011-.614,1.985,0,3.593,1.611,3.593,3.596Z"/>
      <path class="st11" d="M132.245,110.822l-26.245,52.582-.085.111c-.378-.298-.799-.544-1.247-.736-.376-.157-.771-.276-1.184-.348l.011-.053,26.451-52.995c1.062-.995,1.642-2.161,1.447-3.26l.072-.013s.799-1.126,2-.75c.884.276.86.99.786,1.35-.028.129-.059.212-.059.212l-1.947,3.9Z"/>
      <path class="st14" d="M122.495,111.635l-.019.13c-.493,2.053-1.311,3.976-2.729,6.413-2.632,4.522-9.675,3.551-5.882-2.694.727-1.197,1.307-2.429,1.773-3.641.499-.701.996-1.464,1.523-2.312l.158-.193c.327.257.688.508,1.085.746,1.439.909,2.818,1.375,4.091,1.551Z"/>
      <path class="st14" d="M115.638,111.844c-1.926,2.724-3.83,4.501-7.306,6.594-4.539,2.737-10.228-1.715-3.819-5.415,1.617-.935,3.047-2.055,4.282-3.207,3.651-3.413,5.582-7.108,5.582-7.108h.034c-.15,2.261.468,4.705,2.908,6.63l-.158.194c-.527.847-1.024,1.61-1.523,2.312Z"/>
      <path class="st12" d="M108.028,167.304c.019.193.029.389.029.588,0,1.79-.529,3.154-1.842,4.17l-.081.01c-.038-.344-.061-.699-.07-1.06-.027-1.303-.265-2.308-.644-3.111l.194-.089c.225-.075,2.35-.5,2.35-.5l.064-.008Z"/>
      <path class="st11" d="M108.028,167.303l-.064.009s-2.125.425-2.35.499l-.194.09c-.267-.566-.603-1.029-.984-1.426l.096-1.492,2.006-.597.079-.223c.771.847,1.283,1.936,1.411,3.14Z"/>
      <path class="st6" d="M105.915,163.515c.253.193.487.412.702.648l-.079.223-2.006.597.123-1.961.013-.243c.448.192.869.438,1.247.736Z"/>
      <path class="st11" d="M104.532,164.983l-.096,1.492c-.076-.079-.153-.155-.231-.228-.022-.021-.045-.042-.066-.061-.423-.408-.999-.655-1.632-.655-.245,0-.48.036-.704.107l-.006-.196.183-2.892-.013-.181c.179-.017.357-.025.54-.025.333,0,.661.03.977.087.413.072.808.191,1.184.348l-.013.243-.123,1.961Z"/>
      <path class="st12" d="M102.598,173.434l-.091.009c-1.301,0-2.497-.446-3.441-1.199-1.284-1.013-2.108-2.586-2.108-4.352,0-2.881,2.197-5.251,5.009-5.523l.013.181-.183,2.892.006.195c-.96.298-1.657,1.195-1.657,2.255,0,.633.248,1.209.654,1.632l.19.113c1.379,1.105,1.449,2.104,1.608,3.797Z"/>
      <path class="st1" d="M162.942,86.083c-1.471.291-2.903.453-4.282.512-7.202.315-12.989-2.091-15.528-2.765-2.918-.774-14.767-7.098-23.457-.349-8.611,6.69-7.984,14.773-12.429,18.295-6.142,4.871-8.872,3.011-10.392,4.582-1.519,1.57-.629,6.632,4.374,5.994,5.002-.635,7.505-2.601,7.505-2.601"/>
      <path class="st1" d="M176.557,60.723s6.375,17.795-8.254,23.784c-.486.2-.971.382-1.455.548"/>
      <path class="st1" d="M114.377,102.708s-1.931,3.695-5.582,7.108c-1.235,1.152-2.665,2.272-4.282,3.207-6.409,3.7-.72,8.152,3.819,5.415,3.476-2.093,5.38-3.87,7.306-6.594.499-.702.996-1.465,1.523-2.312"/>
      <path class="st1" d="M115.669,111.765c-.01.025-.019.053-.031.078-.466,1.212-1.046,2.444-1.773,3.641-3.793,6.245,3.25,7.216,5.882,2.694,1.418-2.437,2.236-4.361,2.729-6.413"/>
      <path class="st1" d="M116.717,96.16s-2.074,3.052-2.306,6.549c-.15,2.259.468,4.703,2.908,6.628.327.257.688.508,1.085.746,1.439.909,2.818,1.375,4.091,1.551,3.118.438,5.574-.85,6.582-1.551.316-.221.607-.455.869-.701,1.062-.995,1.642-2.162,1.447-3.26-.083-.478-.317-.946-.723-1.377-.637-.68-1.364-.742-2.152-.555-.846.2-1.762.686-2.714,1.003-1.288.429-2.644.544-3.976-.784-1.832-1.825-1.724-4.635,1.511-7.283,2.597-2.123,5.514-2.75,6.962-.842"/>
      <path class="st1" d="M125.77,105.09c-.128-.548-.196-1.12-.196-1.704,0-3.165,1.964-5.87,4.737-6.964.85-.334,1.775-.519,2.744-.519,3.27,0,6.052,2.1,7.066,5.026.269.769.414,1.596.414,2.457,0,2.756-1.49,5.161-3.708,6.46-.765.448-1.62.765-2.529.916-.404.068-.82.104-1.243.104-.274,0-.544-.015-.81-.045-.023-.002-.045-.004-.068-.006"/>
      <path class="st1" d="M128.467,103.713c-.391-2.025,1.623-2.663,2.577-3.309"/>
      <path class="st1" d="M131.044,100.404c.574-.387,1.267-.614,2.011-.614,1.984,0,3.593,1.611,3.593,3.596,0,1.519-.943,2.817-2.276,3.342"/>
      <path class="st1" d="M137.755,88.965s2.198,1.743,3.148,4.686c.629,1.949.711,4.422-.751,7.267"/>
      <path class="st1" d="M167.213,94.397c9.14-2.578,15.449-9.078,18.575-15.237"/>
      <path class="st1" d="M140.892,93.648s.006.002.011.002c7.69,1.294,11.301,2.465,17.629,2.08.23-.013.461-.03.699-.047.729-.055,1.498-.132,2.312-.232.406-.047.825-.102,1.256-.161.404-.051.801-.11,1.197-.176"/>
      <path class="st1" d="M204.529,65.041c7.079-6.343,9.197-14.805,10.351-17.759,1.097-2.811,2.988-16.11,13.567-19.138,10.483-3.003,16.637,2.274,22.103.767,7.556-2.085,7.669-5.385,9.832-5.685,2.164-.297,5.725,3.409,2.257,7.07-3.466,3.662-6.528,4.522-6.528,4.522"/>
      <path class="st1" d="M176.495,60.619s.024.034.068.1c.882,1.243,9.99,13.571,21.759,8.453.737-.321,1.485-.71,2.244-1.175.334-.204.659-.412.975-.627"/>
      <path class="st1" d="M247.092,35.216s4.123.623,9.034-.31c1.657-.317,3.406-.81,5.115-1.564,6.77-2.988,7.006,4.233,2.116,6.282-3.742,1.568-6.3,2.055-9.635,2.004-.86-.013-1.77-.059-2.766-.136"/>
      <path class="st1" d="M253.639,41.606c.028.008.056.015.083.021,1.252.338,2.589.597,3.983.716,7.282.627,3.908,6.885-1.297,6.339-2.796-.293-4.828-.767-6.77-1.577-.006,0-.011-.004-.017-.006"/>
      <path class="st1" d="M245.556,56.048c.835-.499,1.585-1.169,2.195-2.004,1.315-1.798,1.708-3.989,1.271-6.008-.374-1.723-1.358-3.322-2.895-4.446-.633-.463-1.315-.812-2.021-1.048-3.009-1.022-6.456-.032-8.432,2.669-.166.227-.316.457-.45.695-.047.079-.09.157-.132.238"/>
      <path class="st1" d="M236.063,54.535c.359.414.771.795,1.233,1.133.306.223.624.421.952.591.822.434,1.697.697,2.584.801.667.077,1.338.066,1.995-.034.011,0,.021,0,.032-.004"/>
      <path class="st1" d="M243.709,52.618c.34-.227.648-.519.903-.867.228-.308.395-.642.51-.986.483-1.443.007-3.09-1.288-4.038-1.202-.878-2.637-.978-3.84-.259"/>
      <path class="st1" d="M239.867,52.713c.317.189.654.325.999.408"/>
      <path class="st1" d="M249.113,48.015c.187-.272.363-.574.525-.91.523-1.065.905-2.454,1.028-4.286.043-.463.054-.903.037-1.322-.113-3.105-1.72-5.043-3.63-6.252-2.958-1.879-6.647-2.006-6.647-2.006"/>
      <path class="st1" d="M241.586,50.223h.002c.823.699,2.055.882,3.466.519"/>
      <path class="st1" d="M241.259,46.12c-.268.185-.487.41-.61.729"/>
      <path class="st1" d="M241.556,50.331c.011-.036.024-.07.032-.106.243-.82.164-1.715-.425-2.635-.391-.563-.784-.89-1.192-1.067-1.243-.544-2.603.298-4.32-.081-.189-.043-.368-.083-.534-.128-1.825-.463-2.248-.98-2.609-2.038-.657-2.916,1.543-4.28,4.79-5.121,4.046-1.048,6.377.523,6.77,3.079.015.106.03.21.038.308.003.011.005.021.005.032"/>
      <path class="st1" d="M222.199,45.973s.108,2.801,1.923,5.304c1.199,1.658,3.148,3.188,6.31,3.687,0,0,2.239.408,5.623-.465.537-.138,1.105-.31,1.695-.521.689-.321,1.426-.769,2.074-1.313.785-.657,1.441-1.451,1.732-2.333"/>
      <path class="st1" d="M203.666,76.334c-.807.391-1.617.739-2.426,1.048-.485.185-.972.355-1.456.512-.504.164-1.007.31-1.511.444-4.356,1.152-8.621,1.224-12.345.616"/>
      <path class="st1" d="M224.127,51.269s-.003.006-.005.008c-4.207,8.396-5.068,11.907-11.603,18.643-1.766,1.866-3.663,3.411-5.637,4.673"/>
      <path class="st1" d="M158.657,86.511c.364-1.328,1.492-2.353,2.876-2.561.172-.028.348-.04.527-.04.969,0,1.851.397,2.488,1.035.638.637,1.037,1.521,1.037,2.491v14.699c0,1.031-.448,1.962-1.16,2.608-.625.571-1.458.918-2.365.918-.969,0-1.851-.396-2.489-1.035-.639-.64-1.037-1.52-1.037-2.491v-6.375"/>
      <path class="st1" d="M162.831,86.016c.04.017.079.036.117.055.65.327,1.099,1.001,1.099,1.776v13.875c0,.519-.202.995-.532,1.349-.363.391-.882.638-1.455.638s-1.044-.223-1.403-.584c-.361-.36-.584-.857-.584-1.403v-6.037"/>
      <path class="st1" d="M160.617,86.309c.361-.378.882-.451,1.443-.451.274,0,.533.057.771.157"/>
      <path class="st1" d="M161.526,83.912c.574-.404,1.271-.64,2.021-.64.969,0,1.851.397,2.489,1.035.24.24.446.514.61.814.272.499.427,1.071.427,1.677v14.7c0,1.436-.831,3.038-2.631,3.262"/>
      <path class="st1" d="M163.547,103.071h-.032c-1.077-.017-1.955-.905-1.955-1.987v-5.487"/>
      <path class="st1" d="M198.303,69.127c.191-1.464,1.287-2.805,2.705-3.177.255-.068.518-.104.79-.104.969,0,1.851.397,2.489,1.035.637.637,1.037,1.521,1.037,2.491v14.912c0,.888-.332,1.7-.88,2.32-.646.737-1.594,1.205-2.646,1.205-.969,0-1.85-.395-2.488-1.035-.64-.64-1.037-1.52-1.037-2.491v-5.999"/>
      <path class="st1" d="M201.798,67.37c1.093,0,1.987.895,1.987,1.989v14.512c0,.444-.146.854-.395,1.186-.363.487-.943.801-1.592.801-.546,0-1.043-.223-1.402-.584-.361-.359-.584-.856-.584-1.403v-5.889"/>
      <path class="st1" d="M200.891,66.059c.038-.038.077-.076.117-.108.725-.652,1.566-.742,2.278-.742.969,0,1.851.397,2.489,1.035.637.638,1.037,1.522,1.037,2.491v14.699c0,1.428-.589,2.935-2.368,3.171-.008.002-.019.002-.027.004"/>
      <path class="st1" d="M203.286,85.008c-1.092,0-1.987-.895-1.987-1.987v-5.487"/>
      <path class="st1" d="M101.797,165.442l.183-2.892"/>
      <path class="st1" d="M104.655,163.021l-.123,1.962-.096,1.492-.002.04"/>
      <path class="st1" d="M106,163.404l26.245-52.582,1.947-3.9s.032-.083.059-.212c.075-.36.098-1.074-.786-1.35-1.201-.376-2,.75-2,.75"/>
      <path class="st1" d="M103.495,162.378l26.451-52.995.053-.107"/>
      <path class="st1" d="M102.507,173.443c-1.301,0-2.497-.446-3.441-1.199-1.284-1.013-2.108-2.586-2.108-4.352,0-2.881,2.197-5.251,5.009-5.523.179-.017.357-.025.54-.025.333,0,.661.03.977.087.413.072.808.191,1.184.348.448.192.869.438,1.247.736.253.193.487.412.702.648.771.848,1.283,1.936,1.411,3.141.019.193.029.389.029.588,0,1.79-.529,3.154-1.842,4.17"/>
      <path class="st1" d="M104.205,166.248c.027.029.055.059.08.089"/>
      <path class="st1" d="M100.8,169.524c-.405-.423-.654-.999-.654-1.632,0-1.06.697-1.957,1.657-2.254.224-.071.459-.107.704-.107.633,0,1.209.247,1.632.655"/>
      <path class="st1" d="M106.102,180.115c-.019-.01-.036-.023-.055-.034-.973-.614-2.754-2.044-3.183-4.52-.143-.824-.211-1.521-.266-2.127-.159-1.693-.229-2.692-1.608-3.797"/>
      <path class="st1" d="M99.013,172.312s-1.4,6.025,2.276,7.825h4.724"/>
      <path class="st1" d="M96.958,167.892s-1.73,3.9-1.294,8.12c.699,6.8,6.601,13.201,17.7,15.9,12.047,2.93,17.2-.3,19.901,7.701"/>
      <path class="st1" d="M104.515,164.987l.017-.004,2.006-.597"/>
      <path class="st1" d="M105.614,167.811c.225-.074,2.35-.499,2.35-.499"/>
      <path class="st1" d="M164.752,165.442l-.183-2.892"/>
      <path class="st1" d="M161.894,163.021l.123,1.962.094,1.494.002.038"/>
      <path class="st1" d="M134.311,110.836l26.238,52.568"/>
      <path class="st1" d="M163.052,162.378l-26.187-52.468"/>
      <path class="st1" d="M164.04,173.443c1.301,0,2.497-.446,3.443-1.196,1.283-1.016,2.108-2.589,2.108-4.355,0-2.881-2.197-5.249-5.009-5.523-.178-.017-.359-.025-.542-.025-.333,0-.661.03-.977.087-.906.159-1.734.54-2.429,1.082-.323.25-.616.535-.876.85-.673.816-1.12,1.829-1.237,2.941-.021.193-.031.389-.031.588,0,1.79.529,3.154,1.844,4.17"/>
      <path class="st1" d="M162.344,166.248c-.027.029-.055.059-.08.089"/>
      <path class="st1" d="M165.749,169.524c.406-.423.654-.999.654-1.632,0-1.305-1.058-2.361-2.363-2.361-.663,0-1.264.272-1.693.714"/>
      <path class="st1" d="M160.447,180.115c.017-.01.036-.021.053-.034.971-.612,2.754-2.044,3.185-4.52.145-.824.213-1.521.268-2.127.157-1.693.228-2.692,1.607-3.797"/>
      <path class="st1" d="M162.41,166.186c-.021.019-.042.038-.063.059,0,0-.002,0-.002.002-.079.075-.158.151-.234.23-.381.397-.716.86-.982,1.423-.38.804-.618,1.809-.644,3.112-.008.361-.032.716-.07,1.06-.559,4.949-4.284,8.139-9.331,8.139h-35.621c-5.047,0-8.772-3.19-9.329-8.139-.038-.344-.061-.699-.07-1.06-.027-1.303-.265-2.308-.644-3.112-.267-.565-.603-1.028-.984-1.425-.076-.079-.153-.156-.231-.228-.021-.021-.045-.042-.066-.061"/>
      <path class="st1" d="M167.534,172.312s1.4,6.025-2.274,7.825h-4.726"/>
      <path class="st1" d="M169.591,167.892s1.728,3.9,1.294,8.12c-.701,6.8-6.6,13.201-17.702,15.9-12.045,2.93-17.2-.3-19.899,7.701"/>
      <path class="st1" d="M162.034,164.987l-.017-.004-2.008-.597"/>
      <path class="st1" d="M160.933,167.811c-.223-.074-2.348-.499-2.348-.499"/>
      <path class="st1" d="M273.332,111.759l-.18-2.89"/>
      <path class="st1" d="M270.476,109.34l.124,1.96.093,1.491.002.041"/>
      <path class="st1" d="M269.129,109.723l-26.302-52.697-1.889-3.785s-.006-.045-.006-.117c.004-.227.089-.746.737-1.116,1.156-.661,1.798.278,1.985.627.04.072.059.119.059.119l1.683,3.372,26.239,52.567"/>
      <path class="st1" d="M272.623,119.762c1.3,0,2.497-.447,3.442-1.199,1.284-1.016,2.108-2.588,2.108-4.352,0-2.884-2.199-5.251-5.008-5.525-.179-.017-.36-.026-.542-.026-.334,0-.661.03-.978.087-.905.16-1.736.54-2.431,1.084-.323.249-.616.533-.875.85-.674.816-1.118,1.828-1.237,2.939-.019.193-.03.391-.03.591,0,1.789.529,3.153,1.845,4.169"/>
      <path class="st1" d="M270.925,112.566c-.028.03-.056.059-.081.089"/>
      <path class="st1" d="M274.331,115.843c.404-.425.655-.999.655-1.632,0-1.305-1.059-2.363-2.363-2.363-.634,0-1.21.248-1.632.656"/>
      <path class="st1" d="M269.027,126.434c.019-.01.036-.023.055-.034.974-.614,2.754-2.046,3.184-4.52.142-.822.21-1.521.265-2.127.16-1.696.23-2.694,1.611-3.799"/>
      <path class="st1" d="M276.116,118.629s1.401,6.027-2.276,7.827h-4.724"/>
      <path class="st1" d="M278.173,114.211s1.728,3.897,1.292,8.118c-.699,6.8-6.598,13.201-17.699,15.902-12.045,2.93-17.201-.3-19.901,7.699"/>
      <path class="st1" d="M270.617,111.304l-.017-.004-2.009-.595"/>
      <path class="st1" d="M269.516,114.13c-.225-.077-2.35-.502-2.35-.502"/>
      <path class="st1" d="M210.38,111.759l.18-2.89"/>
      <path class="st1" d="M213.236,109.34l-.124,1.96-.093,1.491-.002.041"/>
      <path class="st1" d="M240.819,57.155l-26.238,52.568"/>
      <path class="st1" d="M212.077,108.694l26.171-52.436.017-.032"/>
      <path class="st1" d="M211.089,119.762c-1.3,0-2.497-.447-3.442-1.199-1.284-1.016-2.108-2.588-2.108-4.352,0-2.884,2.199-5.251,5.008-5.525.179-.017.359-.026.542-.026.334,0,.661.03.978.087.412.073.807.192,1.183.349.449.189.867.438,1.246.735.253.193.486.412.701.648.771.848,1.284,1.936,1.411,3.141.021.193.032.391.032.591,0,1.789-.529,3.153-1.845,4.169"/>
      <path class="st1" d="M212.787,112.566c.028.03.055.059.081.089"/>
      <path class="st1" d="M209.381,115.843c-.406-.425-.655-.999-.655-1.632,0-1.061.699-1.957,1.66-2.257.223-.07.459-.106.703-.106.634,0,1.209.248,1.632.656"/>
      <path class="st1" d="M214.685,126.434c-.019-.01-.036-.023-.055-.034-.974-.614-2.754-2.046-3.184-4.52-.144-.822-.21-1.521-.268-2.127-.157-1.696-.227-2.694-1.608-3.799"/>
      <path class="st1" d="M212.721,112.504c.022.02.045.041.066.062.079.072.155.149.232.225.38.398.716.863.984,1.428.378.804.616,1.809.644,3.109.008.362.032.716.07,1.061.557,4.951,4.282,8.141,9.329,8.141h35.62c5.047,0,8.772-3.19,9.329-8.141.038-.345.062-.699.07-1.061.028-1.3.266-2.305.644-3.109.268-.565.604-1.03.984-1.428.077-.076.153-.153.232-.225.021-.021.044-.042.066-.062"/>
      <path class="st1" d="M207.596,118.629s-1.401,6.027,2.276,7.827h4.724"/>
      <path class="st1" d="M205.539,114.211s-1.728,3.897-1.295,8.118c.702,6.8,6.601,13.201,17.702,15.902,12.045,2.93,17.201-.3,19.902,7.699"/>
      <path class="st1" d="M213.095,111.304l.017-.004,2.009-.595"/>
      <path class="st1" d="M214.196,114.13c.225-.077,2.35-.502,2.35-.502"/>
      <path class="st17" d="M186.247,83.064c-.527,1.796,3.271-.689,5.077-.2,1.039.281,2.076.491,3.122.642v-18.796c-1.039.07-2.079-1.602-3.12-1.594-1.156.008-2.325,1.343-3.481,1.22v11.248c0,2.185-1.727,3.753-1.727,3.753-.015-.208,1.202.079.131,3.729l-.002-.002Z"/>
      <path class="st1" d="M194.446,63.809v20.507"/>
      <path class="st1" d="M187.845,63.358v12.223c0,1.303-.637,2.465-1.615,3.192"/>
      <path class="st5" d="M252.374,121.182l-5.154-5.153c-.512-.513-.512-1.344,0-1.857l5.154-5.153c.513-.513.513-1.344,0-1.857l-2.516-2.516c-.513-.512-1.344-.512-1.857,0l-5.153,5.154c-.513.512-1.344.512-1.857,0l-5.153-5.154c-.513-.512-1.344-.512-1.857,0l-2.516,2.516c-.513.513-.513,1.344,0,1.857l5.154,5.153c.512.513.512,1.344,0,1.857l-5.154,5.153c-.513.513-.513,1.344,0,1.857l2.516,2.516c.513.513,1.344.513,1.857,0l5.153-5.153c.513-.513,1.344-.513,1.857,0l5.153,5.153c.513.513,1.344.513,1.857,0l2.516-2.516c.513-.513.513-1.344,0-1.857Z"/>
      <path class="st11" d="M133.7,180.321c8.078,0,14.627-6.548,14.627-14.627s-6.549-14.627-14.627-14.627-14.627,6.549-14.627,14.627,6.549,14.627,14.627,14.627Z"/>
      <path class="st8" d="M133.652,176.432c6.038,0,10.933-4.895,10.933-10.933s-4.895-10.934-10.933-10.934-10.934,4.895-10.934,10.934,4.895,10.933,10.934,10.933Z"/>
      <path class="st10" d="M126.165,152.805l-2.715-2.569s-3.739,1.027-3.887,3.963l2.129,2.274s2.861-3.303,4.476-3.668h-.003Z"/>
      <path class="st10" d="M141.354,153.023s3.815,3.302,4.181,3.889l2.274-2.494s-.074-1.834-1.248-2.716c-1.173-.882-2.86-1.174-2.86-1.174l-2.347,2.495h0Z"/>
      <path class="st4" d="M131.228,150.897s3.376-.366,4.624.074v-1.321l-.366-1.063s-.947-.258-2.055-.258c-2.129,0-2.177.796-2.203.881-.025.085,0,1.687,0,1.687Z"/>
      <path class="st2" d="M133.578,180.137c8.125,0,14.712-6.587,14.712-14.712s-6.587-14.713-14.712-14.713-14.712,6.587-14.712,14.713,6.587,14.712,14.712,14.712Z"/>
      <path class="st2" d="M133.578,176.512c6.123,0,11.086-4.964,11.086-11.087s-4.963-11.087-11.086-11.087-11.087,4.964-11.087,11.087,4.964,11.087,11.087,11.087Z"/>
      <path class="st4" d="M133.578,167.455c1.121,0,2.03-.909,2.03-2.03s-.909-2.029-2.03-2.029-2.03.908-2.03,2.029.909,2.03,2.03,2.03Z"/>
      <path class="st2" d="M137.433,169.155l2.441,2.441"/>
      <path class="st2" d="M121.763,156.325l-2.004-1.885c-.309-.292-.386-.757-.179-1.128.451-.814,1.443-2.174,3.308-2.945.332-.139.717-.057.981.19l2.075,1.953"/>
      <path class="st2" d="M121.213,151.668l2.653,2.48"/>
      <path class="st2" d="M122.29,150.86l2.653,2.483"/>
      <path class="st2" d="M120.088,152.742l2.656,2.483"/>
      <path class="st2" d="M145.611,156.521l2.005-1.885c.309-.292.385-.757.178-1.128-.451-.814-1.443-2.175-3.308-2.946-.332-.138-.717-.056-.981.19l-2.075,1.954"/>
      <path class="st2" d="M146.161,151.863l-2.653,2.481"/>
      <path class="st2" d="M145.087,151.056l-2.656,2.483"/>
      <path class="st2" d="M147.287,152.938l-2.653,2.483"/>
      <path class="st2" d="M131.205,150.798v-1.506c0-.572.465-1.037,1.038-1.037h2.619c.573,0,1.038.465,1.038,1.037v1.443"/>
      <path class="st4" d="M134.482,158.675h-1.859v6.554h1.859v-6.554Z"/>
      <path class="st4" d="M134.468,164.575l-1.314,1.315,6.624,6.624,1.315-1.315-6.625-6.624Z"/>
    </g>
  </g>
</svg>