<?xml version="1.0" encoding="utf-8"?>
<!-- Generator: Adobe Illustrator 24.3.0, SVG Export Plug-In . SVG Version: 6.00 Build 0)  -->
<svg version="1.1" id="Layer_1" xmlns="http://www.w3.org/2000/svg" xmlns:xlink="http://www.w3.org/1999/xlink" x="0px" y="0px"
	 viewBox="0 0 80 80" style="enable-background:new 0 0 80 80;" xml:space="preserve">
<style type="text/css">
	.st0{fill:none;stroke:#0B1B34;stroke-width:2;stroke-miterlimit:10;}
	.st1{fill:#0185FF;stroke:#FFFFFF;stroke-width:2;stroke-miterlimit:10;}
	.st2{fill:#0B1B34;}
	.st3{fill:none;stroke:#FFFFFF;stroke-width:2;stroke-linecap:round;stroke-linejoin:round;stroke-miterlimit:10;}
</style>
<path class="st0" d="M40,33.2v6.3"/>
<path class="st1" d="M59.4,53.4c0.1-8.9-8.6-16.2-19.4-16.2s-19.4,7.2-19.4,16.2H59.4z"/>
<path class="st2" d="M54.1,48.7c-1.3-2.7-3.8-5-6.8-6.4L54.1,48.7z"/>
<path class="st3" d="M54.1,48.7c-1.3-2.7-3.8-5-6.8-6.4"/>
<path class="st2" d="M43.4,34c0-1.6-1.6-2.9-3.5-2.9c-1.9,0-3.5,1.3-3.5,2.9H43.4z"/>
<path class="st1" d="M62.3,59H17.6l3-5.5h38.8L62.3,59z"/>
<path class="st0" d="M39.7,20.8v5.7"/>
<path class="st0" d="M30.8,23.2l3.2,4.1"/>
<path class="st0" d="M48.6,23.2l-3.2,4.1"/>
</svg>
