<svg xmlns="http://www.w3.org/2000/svg" xmlns:xlink="http://www.w3.org/1999/xlink" id="Layer_1" x="0" y="0" version="1.1" viewBox="0 0 80 80" style="enable-background:new 0 0 80 80" xml:space="preserve"><style type="text/css">.st0,.st1{fill:none;stroke:#0b1b34;stroke-width:2;stroke-miterlimit:10}.st1{fill:#0185ff;stroke:#fff}.st2{fill:#0b1b34}.st3{fill:none;stroke:#fff;stroke-width:2;stroke-linecap:round;stroke-linejoin:round;stroke-miterlimit:10}</style><path d="M40,33.2v6.3" class="st0"/><path d="M59.4,53.4c0.1-8.9-8.6-16.2-19.4-16.2s-19.4,7.2-19.4,16.2H59.4z" class="st1"/><path d="M54.1,48.7c-1.3-2.7-3.8-5-6.8-6.4L54.1,48.7z" class="st2"/><path d="M54.1,48.7c-1.3-2.7-3.8-5-6.8-6.4" class="st3"/><path d="M43.4,34c0-1.6-1.6-2.9-3.5-2.9c-1.9,0-3.5,1.3-3.5,2.9H43.4z" class="st2"/><path d="M62.3,59H17.6l3-5.5h38.8L62.3,59z" class="st1"/><path d="M39.7,20.8v5.7" class="st0"/><path d="M30.8,23.2l3.2,4.1" class="st0"/><path d="M48.6,23.2l-3.2,4.1" class="st0"/></svg>