<?xml version="1.0" encoding="utf-8"?>
<!-- Generator: Adobe Illustrator 24.3.0, SVG Export Plug-In . SVG Version: 6.00 Build 0)  -->
<svg version="1.1" id="Layer_1" xmlns="http://www.w3.org/2000/svg" xmlns:xlink="http://www.w3.org/1999/xlink" x="0px" y="0px"
	 viewBox="0 0 160 100" style="enable-background:new 0 0 160 100;" xml:space="preserve">
<style type="text/css">
	.st0{fill:none;stroke:#0B1B34;stroke-width:2;stroke-miterlimit:10;}
	.st1{fill:#0185FF;stroke:#FFFFFF;stroke-width:2;stroke-miterlimit:10;}
	.st2{fill:#0B1B34;}
	.st3{fill:none;stroke:#FFFFFF;stroke-width:2;stroke-linecap:round;stroke-linejoin:round;stroke-miterlimit:10;}
	.st4{fill:#0185FF;stroke:#FFFFFF;stroke-width:2;stroke-linejoin:round;stroke-miterlimit:10;}
	.st5{fill:#FFFFFF;}
</style>
<path class="st0" d="M113,46.7v7.9"/>
<path class="st1" d="M137.2,72c0.1-11.1-10.8-20.2-24.2-20.2s-24.3,9-24.2,20.2H137.2L137.2,72z"/>
<path class="st2" d="M130.6,66.1c-1.6-3.4-4.7-6.2-8.5-8L130.6,66.1z"/>
<path class="st3" d="M130.6,66.1c-1.6-3.4-4.7-6.2-8.5-8"/>
<path class="st2" d="M117.3,47.7c0-2-2-3.6-4.4-3.6s-4.4,1.6-4.4,3.6H117.3z"/>
<path class="st1" d="M140.9,79H85l3.7-6.9h48.5L140.9,79z"/>
<path class="st0" d="M112.6,31.2v7.1"/>
<path class="st0" d="M101.5,34.2l4,5.1"/>
<path class="st0" d="M123.7,34.2l-4,5.1"/>
<path class="st4" d="M20,44.6c0,12.5,10.1,22.6,22.6,22.6c5.4,0,10.3-1.9,14.2-5h18.4L64,51.8c0.8-2.3,1.2-4.7,1.2-7.2
	C65.2,32.1,55.1,22,42.6,22S20,32.1,20,44.6z"/>
<path class="st5" d="M40.4,32.6H45v5.7l-1.2,10.4h-2.2l-1.2-10.4V32.6L40.4,32.6z"/>
<path class="st5" d="M42.7,55.5c1.3,0,2.3-1,2.3-2.3c0-1.3-1-2.3-2.3-2.3c-1.3,0-2.3,1-2.3,2.3C40.4,54.5,41.4,55.5,42.7,55.5z"/>
</svg>
