<svg xmlns="http://www.w3.org/2000/svg" xml:space="preserve" id="Layer_1" x="0" y="0" viewBox="0 0 160 100"><style>.st0,.st1{fill:none;stroke:#0b1b34;stroke-width:2;stroke-miterlimit:10}.st1{fill:#0185ff;stroke:#fff}.st2{fill:#0b1b34}.st3,.st4{stroke:#fff;stroke-width:2;stroke-linejoin:round;stroke-miterlimit:10}.st3{fill:none;stroke-linecap:round}.st4{fill:#0185ff}.st5{fill:#fff}</style><path d="M113 46.7v7.9" class="st0"/><path d="M137.2 72c.1-11.1-10.8-20.2-24.2-20.2s-24.3 9-24.2 20.2z" class="st1"/><path d="M130.6 66.1c-1.6-3.4-4.7-6.2-8.5-8z" class="st2"/><path d="M130.6 66.1c-1.6-3.4-4.7-6.2-8.5-8" class="st3"/><path d="M117.3 47.7c0-2-2-3.6-4.4-3.6s-4.4 1.6-4.4 3.6z" class="st2"/><path d="M140.9 79H85l3.7-6.9h48.5z" class="st1"/><path d="M112.6 31.2v7.1m-11.1-4.1 4 5.1m18.2-5.1-4 5.1" class="st0"/><path d="M20 44.6c0 12.5 10.1 22.6 22.6 22.6 5.4 0 10.3-1.9 14.2-5h18.4L64 51.8q1.2-3.45 1.2-7.2C65.2 32.1 55.1 22 42.6 22S20 32.1 20 44.6z" class="st4"/><path d="M40.4 32.6H45v5.7l-1.2 10.4h-2.2l-1.2-10.4zm2.3 22.9c1.3 0 2.3-1 2.3-2.3s-1-2.3-2.3-2.3-2.3 1-2.3 2.3 1 2.3 2.3 2.3" class="st5"/></svg>