<svg xmlns="http://www.w3.org/2000/svg" xmlns:xlink="http://www.w3.org/1999/xlink" id="Layer_1" x="0" y="0" version="1.1" viewBox="0 0 80 80" style="enable-background:new 0 0 80 80" xml:space="preserve"><style type="text/css">.st0{fill:#0185ff}.st1{fill-rule:evenodd;clip-rule:evenodd;fill:#fff}.st2{fill:#0b1b34}.st3{fill:#fff}</style><path d="M14.2,26.1v16.7c0,1.4,1,2.4,2.4,2.4h32.8c1.4,0,2.4-1,2.4-2.4V26.1H14.2z" class="st0"/><path d="M13.4,25.3h39.2v17.5c0,1.8-1.4,3.2-3.2,3.2H16.6c-1.8,0-3.2-1.4-3.2-3.2V25.3z M15,26.9v15.9	c0,0.9,0.7,1.6,1.6,1.6h32.8c0.9,0,1.6-0.7,1.6-1.6V26.9H15z" class="st1"/><path d="M51.8,22c0-1.4-1-2.4-2.4-2.4H16.6c-1.4,0-2.4,1-2.4,2.4v4.1h37.6V22z" class="st0"/><path d="M13.4,22c0-1.8,1.4-3.2,3.2-3.2h32.8c1.8,0,3.2,1.4,3.2,3.2v4.1c0,0.4-0.4,0.8-0.8,0.8H14.2	c-0.4,0-0.8-0.4-0.8-0.8V22z M16.6,20.4c-0.9,0-1.6,0.7-1.6,1.6v3.3h36V22c0-0.9-0.7-1.6-1.6-1.6H16.6z" class="st1"/><path d="M63.4,60.4H30.6c-1.4,0-2.4-1-2.4-2.4V37.2c0-1.4,1-2.4,2.4-2.4h32.8c1.4,0,2.4,1,2.4,2.4V58	C65.8,59.3,64.6,60.4,63.4,60.4z" class="st0"/><path d="M30.6,35.6c-0.9,0-1.6,0.7-1.6,1.6V58c0,0.9,0.7,1.6,1.6,1.6h32.8c0.8,0,1.6-0.8,1.6-1.6V37.2	c0-0.9-0.7-1.6-1.6-1.6H30.6z M27.4,37.2c0-1.8,1.4-3.2,3.2-3.2h32.8c1.8,0,3.2,1.4,3.2,3.2V58c0,1.7-1.5,3.2-3.2,3.2H30.6	c-1.8,0-3.2-1.4-3.2-3.2V37.2z" class="st1"/><path d="M59.9,44.4h-26v-1.6h26V44.4z" class="st1"/><path d="M54.6,55.9c-1,0-1.7-0.8-1.7-1.7v-2.6c0-1,0.8-1.7,1.7-1.7H59c1,0,1.7,0.8,1.7,1.7v2.6c0,1-0.8,1.7-1.7,1.7	H54.6z" class="st2"/><path d="M59,50.7c0.5,0,0.9,0.4,0.9,0.9v2.6c0,0.5-0.4,0.9-0.9,0.9h-4.5c-0.5,0-0.9-0.4-0.9-0.9v-2.6	c0-0.5,0.4-0.9,0.9-0.9H59z M59,49.1h-4.5c-1.4,0-2.5,1.1-2.5,2.5v2.6c0,1.4,1.1,2.5,2.5,2.5H59c1.4,0,2.5-1.1,2.5-2.5v-2.6	C61.5,50.2,60.4,49.1,59,49.1z" class="st3"/><path d="M39.8,52.7h-5.8v-1.6h5.8V52.7z" class="st1"/><path d="M51.8,25.5H14.2v4.2h37.6V25.5z" class="st3"/><path d="M47,52.7h-5.8v-1.6H47V52.7z" class="st1"/></svg>