<svg viewBox="0 0 253 164" fill="none" xmlns="http://www.w3.org/2000/svg">
<path d="M67.5041 27.0789L63.7867 26.9672L59.815 24.5285L50.9274 30.5974L41.4675 25.5726L35.7412 34.4819L25.136 33.4515C25.136 33.4515 23.7771 37.3185 22.4913 38.0322C21.2055 38.746 19.2017 40.2061 19.2017 40.2061C19.2017 40.2061 27.6274 91.6146 56.102 83.6156C84.5719 75.6178 70.6846 33.4171 67.5089 27.0776L67.5041 27.0789Z" fill="#E4BC07"/>
<path d="M24.3905 35.4925C24.3905 35.4925 33.2262 82.919 54.6091 77.3741C71.5179 73.028 65.9195 43.1767 65.325 38.91C64.7353 34.6419 62.0516 26.6936 62.0516 26.6936L59.8102 24.5299L50.9226 30.5988L41.4627 25.5739L35.7364 34.4833L25.1312 33.4528L24.387 35.4985L24.3905 35.4925Z" fill="#FED607"/>
<path d="M52.7924 67.8395C60.0784 65.8872 64.1273 57.3719 61.8358 48.82C59.5444 40.2681 51.7803 34.9181 44.4943 36.8704C37.2082 38.8226 33.1594 47.3379 35.4508 55.8898C37.7423 64.4417 45.5064 69.7917 52.7924 67.8395Z" fill="#FFED8F"/>
<path d="M50.1353 46.9188L46.5296 43.0896L45.304 44.0283L43.7822 49.3545L38.7196 51.5726L39.3494 53.004L43.3057 55.3852L44.6358 60.8088L45.8623 61.711L50.2726 58.4368L55.0093 59.137L56.2821 57.9344L54.4618 52.519L56.7472 47.7268L55.9494 46.5866L50.1353 46.9188Z" fill="#FED607"/>
<path d="M54.3704 27.998C54.4377 29.5698 55.6305 30.9016 57.0154 31.6486C58.4002 32.3956 59.9709 32.6876 61.4872 33.1019C63.0034 33.5162 64.5502 34.1018 65.5973 35.2727C66.7755 36.5879 67.144 38.4227 67.9813 39.9779C68.8186 41.5332 70.6251 42.916 72.2476 42.2146L67.5035 27.0741C67.5035 27.0741 63.6599 27.1808 62.5791 26.3626C61.4982 25.5445 59.8096 24.525 59.8096 24.525L54.3643 27.9945L54.3704 27.998Z" fill="#FFED8F"/>
<path d="M26.1989 62.6618C25.4172 60.1274 31.464 61.6972 33.464 63.4384C35.464 65.1797 36.6221 67.6644 38.0334 69.907C40.0706 73.1461 42.9203 76.1059 46.6028 77.1399C48.4778 77.6683 50.607 77.7287 52.0646 79.0152C53.5699 80.3453 53.8629 82.549 54.0612 84.5525C54.0612 84.5525 33.5374 86.3746 26.2036 62.6605L26.1989 62.6618Z" fill="#FFED8F"/>
<path d="M34.4062 49.3488C34.08 51.7492 38.9843 47.9067 40.4528 45.9797C41.2722 44.9037 41.9773 43.7454 42.5528 42.5244C43.466 40.5924 44.0842 38.4779 45.4419 36.8268C45.4419 36.8268 36.009 37.5491 34.4062 49.3488V49.3488Z" fill="#FFF2B2"/>
<path d="M19.1351 39.9778C19.1351 39.9778 27.2583 91.4058 57.0837 83.4141" stroke="#002140" stroke-linecap="round" stroke-linejoin="round"/>
<path d="M67.8766 26.9176C67.8766 26.9176 86.5557 75.5172 56.7303 83.5089" stroke="#002140" stroke-linecap="round" stroke-linejoin="round"/>
<path d="M19.1353 39.9778C22.5327 39.0675 23.9457 36.1297 24.4818 34.4936C24.6919 33.8424 25.3545 33.4443 26.0315 33.5399L34.8923 34.7403C35.456 34.8149 36.0102 34.5484 36.3061 34.064L41.3826 25.6006" stroke="#002140" stroke-linecap="round" stroke-linejoin="round"/>
<path d="M68.0052 26.8831C64.6077 27.7934 61.9151 25.9557 60.6329 24.8069C60.1252 24.3479 59.3524 24.3345 58.8139 24.7557L51.7404 30.2257C51.2896 30.5722 50.6763 30.6186 50.1778 30.347L41.5498 25.5557" stroke="#002140" stroke-linecap="round" stroke-linejoin="round"/>
<path d="M24.3098 35.8834C24.3098 35.8834 33.3959 83.4018 54.9719 77.6205C76.5478 71.8393 62.1296 26.2984 62.1296 26.2984" stroke="#002140" stroke-linecap="round" stroke-linejoin="round"/>
<path d="M52.3219 67.8424C59.8563 65.8236 64.1014 57.235 61.8036 48.6594C59.5058 40.0837 51.5351 34.7683 44.0007 36.7872C36.4663 38.806 32.2212 47.3946 34.519 55.9702C36.8169 64.5459 44.7875 69.8613 52.3219 67.8424Z" stroke="#002140" stroke-linecap="round" stroke-linejoin="round"/>
<path d="M47.1266 43.3811L50.116 46.7856C50.3671 47.0721 50.7445 47.2172 51.1223 47.1724L55.6207 46.6389C56.5706 46.528 57.2403 47.5537 56.7483 48.3779L54.4321 52.2706C54.2381 52.5996 54.2172 53.0001 54.3756 53.3423L56.2725 57.4549C56.6753 58.3266 55.9042 59.2768 54.9706 59.0654L50.5545 58.069C50.183 57.9839 49.7954 58.0878 49.5162 58.3473L46.1899 61.4182C45.4871 62.0681 44.3441 61.6307 44.2572 60.6744L43.8436 56.1643C43.8084 55.784 43.59 55.4476 43.2589 55.2645L39.3066 53.0514C38.4732 52.5824 38.5356 51.3604 39.4136 50.9816L43.5762 49.1944C43.9257 49.0443 44.18 48.73 44.2542 48.3562L45.1408 43.9132C45.3305 42.9751 46.5124 42.6584 47.141 43.3772L47.1266 43.3811Z" stroke="#002140" stroke-linecap="round" stroke-linejoin="round"/>
<g clip-path="url(#clip0_1223_15347)">
<mask id="mask0_1223_15347" style="mask-type:luminance" maskUnits="userSpaceOnUse" x="54" y="5" width="157" height="157">
<path d="M210.268 91.1947C210.299 90.8523 210.329 90.5062 210.359 90.1562C210.527 87.9575 210.61 85.7246 210.61 83.4574C210.61 77.5917 210.047 71.9618 208.921 66.5677C206.86 56.7382 202.923 47.6847 197.11 39.4073C194.417 35.5652 191.317 31.8906 187.809 28.3833C185.268 25.8422 182.636 23.5104 179.912 21.3878C166.37 10.8431 150.644 5.5708 132.735 5.5708C114.134 5.5708 97.8907 11.2578 84.0062 22.6317C81.8303 24.4119 79.7153 26.3291 77.6611 28.3833C73.7963 32.2481 70.426 36.3146 67.5501 40.5827C61.9583 48.8678 58.2114 57.9136 56.3094 67.7203C55.3355 72.7644 54.8486 78.0101 54.8486 83.4574C54.8486 85.1768 54.8981 86.8772 54.997 88.5585C55.5676 98.4337 57.8233 107.617 61.7643 116.107C65.5226 124.217 70.8216 131.692 77.6611 138.531C78.4219 139.292 79.1941 140.038 79.9778 140.768C88.1868 148.399 97.2783 153.907 107.252 157.293C115.187 159.986 123.682 161.333 132.735 161.333C140.024 161.333 146.947 160.461 153.505 158.719C166.317 155.311 177.752 148.582 187.809 138.531C188.152 138.189 188.49 137.847 188.825 137.504C196.722 129.349 202.474 120.299 206.08 110.355C206.202 110.021 206.32 109.682 206.434 109.34C208.419 103.588 209.697 97.5398 210.268 91.1947Z" fill="white"/>
</mask>
<g mask="url(#mask0_1223_15347)">
<path d="M338.698 152.317C330.063 147.045 321.538 147.045 313.124 152.317C308.141 155.353 303.192 156.638 298.277 156.174C297.06 156.06 295.842 155.836 294.625 155.501C293.864 155.296 293.104 155.045 292.343 154.748C290.737 154.124 289.14 153.314 287.55 152.317C278.915 147.045 270.39 147.045 261.975 152.317V152.408C256.992 155.452 252.043 156.737 247.129 156.266C245.911 156.152 244.694 155.927 243.477 155.592C242.716 155.387 241.955 155.136 241.194 154.839C239.589 154.215 237.991 153.405 236.401 152.408C227.78 147.144 219.266 147.137 210.861 152.386L210.827 152.317C205.844 155.353 200.895 156.638 195.98 156.174C194.763 156.06 193.546 155.836 192.328 155.501C191.568 155.296 190.807 155.045 190.046 154.748C188.441 154.124 186.843 153.314 185.253 152.317C176.618 147.045 168.093 147.045 159.679 152.317V152.408C154.695 155.452 149.747 156.737 144.832 156.266C143.614 156.152 142.397 155.927 141.18 155.592C140.419 155.387 139.658 155.136 138.898 154.839C137.292 154.215 135.695 153.405 134.105 152.408C125.469 147.136 116.945 147.136 108.53 152.408C103.547 155.452 98.5981 156.737 93.6834 156.266C92.4661 156.152 91.2488 155.927 90.0315 155.592C89.2707 155.387 88.5099 155.136 87.7491 154.839C86.1439 154.215 84.5462 153.405 82.9561 152.408C74.3211 147.136 65.7963 147.136 57.3819 152.408V152.5C52.3987 155.543 47.4497 156.829 42.535 156.357C41.3177 156.243 40.1004 156.018 38.8831 155.684C38.1223 155.478 37.3615 155.227 36.6007 154.93C34.9955 154.314 33.3978 153.504 31.8077 152.5C23.4848 147.425 15.2644 147.243 7.14648 151.952V180.767H412.591L412.602 153.755C408.57 155.684 404.561 156.46 400.574 156.083C399.356 155.961 398.139 155.737 396.922 155.41C396.161 155.197 395.4 154.942 394.639 154.645C393.034 154.029 391.437 153.222 389.846 152.226C381.211 146.953 372.687 146.953 364.272 152.226V152.317C359.289 155.353 354.34 156.638 349.425 156.174C348.208 156.06 346.991 155.836 345.774 155.501C345.013 155.296 344.252 155.045 343.491 154.748C341.886 154.124 340.288 153.314 338.698 152.317ZM345.774 112.33C345.013 112.124 344.252 111.873 343.491 111.576C341.886 110.953 340.288 110.142 338.698 109.146C330.063 103.873 321.538 103.873 313.124 109.146C308.141 112.181 303.192 113.467 298.277 113.003C297.06 112.881 295.842 112.657 294.625 112.33C293.864 112.124 293.104 111.873 292.343 111.576C290.737 110.953 289.14 110.142 287.55 109.146C278.915 103.873 270.39 103.873 261.975 109.146V109.237C256.992 112.28 252.043 113.566 247.129 113.094C245.911 112.98 244.694 112.756 243.477 112.421C242.716 112.215 241.955 111.964 241.194 111.668C239.589 111.044 237.991 110.234 236.401 109.237C227.78 103.973 219.266 103.965 210.861 109.214L210.827 109.146C205.844 112.181 200.895 113.467 195.98 113.003C194.763 112.881 193.546 112.657 192.328 112.33C191.568 112.124 190.807 111.873 190.046 111.576C188.441 110.953 186.843 110.142 185.253 109.146C176.618 103.873 168.093 103.873 159.679 109.146V109.237C154.695 112.28 149.747 113.566 144.832 113.094C143.614 112.98 142.397 112.756 141.18 112.421C140.419 112.215 139.658 111.964 138.898 111.668C137.292 111.044 135.695 110.234 134.105 109.237C125.469 103.965 116.945 103.965 108.53 109.237C103.547 112.28 98.5981 113.566 93.6834 113.094C92.4661 112.98 91.2488 112.756 90.0315 112.421C89.2707 112.215 88.5099 111.964 87.7491 111.668C86.1439 111.044 84.5462 110.234 82.9561 109.237C74.3211 103.965 65.7963 103.965 57.3819 109.237V109.328C52.3987 112.371 47.4497 113.657 42.535 113.186C41.3177 113.071 40.1004 112.847 38.8831 112.512C38.1223 112.307 37.3615 112.056 36.6007 111.759C34.9955 111.135 33.3978 110.325 31.8077 109.328C23.4848 104.247 15.2644 104.06 7.14648 108.769V130.36C15.2644 125.652 23.4848 125.838 31.8077 130.92C33.3978 131.916 34.9955 132.727 36.6007 133.35C37.3615 133.647 38.1223 133.898 38.8831 134.104C40.1004 134.438 41.3177 134.663 42.535 134.777C47.4497 135.249 52.3987 133.963 57.3819 130.92V130.828C65.7963 125.556 74.3211 125.556 82.9561 130.828C84.5462 131.825 86.1439 132.635 87.7491 133.259C88.5099 133.556 89.2707 133.807 90.0315 134.012C91.2488 134.339 92.4661 134.564 93.6834 134.686C98.5981 135.15 103.547 133.864 108.53 130.828C116.945 125.556 125.469 125.556 134.105 130.828C135.695 131.825 137.292 132.635 138.898 133.259C139.658 133.556 140.419 133.807 141.18 134.012C142.397 134.339 143.614 134.564 144.832 134.686C149.747 135.15 154.695 133.864 159.679 130.828V130.726C168.093 125.461 176.618 125.461 185.253 130.726C186.843 131.73 188.441 132.54 190.046 133.156C190.807 133.453 191.568 133.704 192.328 133.91C193.546 134.244 194.763 134.473 195.98 134.594C200.88 135.057 205.814 133.775 210.781 130.748L210.827 130.828C219.242 125.556 227.766 125.556 236.401 130.828C237.991 131.825 239.589 132.635 241.194 133.259C241.955 133.556 242.716 133.807 243.477 134.012C244.694 134.339 245.911 134.564 247.129 134.686C252.043 135.15 256.992 133.864 261.975 130.828V130.726C270.39 125.461 278.915 125.461 287.55 130.726C289.14 131.73 290.737 132.54 292.343 133.156C293.104 133.453 293.864 133.704 294.625 133.91C295.842 134.244 297.06 134.473 298.277 134.594C303.192 135.058 308.141 133.769 313.124 130.726C321.538 125.461 330.063 125.461 338.698 130.726C340.288 131.73 341.886 132.54 343.491 133.156C344.252 133.453 345.013 133.704 345.774 133.91C346.991 134.244 348.208 134.473 349.425 134.594C354.34 135.058 359.289 133.769 364.272 130.726V130.634C372.687 125.362 381.211 125.362 389.846 130.634C391.437 131.631 393.034 132.441 394.639 133.065C395.4 133.362 396.161 133.613 396.922 133.818C398.139 134.153 399.356 134.378 400.574 134.492C404.561 134.874 408.57 134.098 412.602 132.164V110.572C408.57 112.508 404.561 113.288 400.574 112.912C399.356 112.79 398.139 112.562 396.922 112.227C396.161 112.021 395.4 111.77 394.639 111.474C393.034 110.857 391.437 110.047 389.846 109.043C381.211 103.778 372.687 103.778 364.272 109.043V109.146C359.289 112.181 354.34 113.467 349.425 113.003C348.208 112.881 346.991 112.657 345.774 112.33ZM400.574 69.7288C399.356 69.6146 398.139 69.3902 396.922 69.0555C396.161 68.85 395.4 68.599 394.639 68.3023C393.034 67.6784 391.437 66.8682 389.846 65.8715C381.211 60.5992 372.687 60.5992 364.272 65.8715V65.9628C359.289 69.006 354.34 70.2918 349.425 69.8201C348.208 69.7059 346.991 69.4815 345.774 69.1468C345.013 68.9413 344.252 68.6903 343.491 68.3936C341.886 67.7697 340.288 66.9595 338.698 65.9628C330.063 60.6905 321.538 60.6905 313.124 65.9628C308.141 69.006 303.192 70.2918 298.277 69.8201C297.06 69.7059 295.842 69.4815 294.625 69.1468C293.864 68.9413 293.104 68.6903 292.343 68.3936C290.737 67.7697 289.14 66.9595 287.55 65.9628C278.915 60.6905 270.39 60.7247 261.975 66.0655C256.992 69.1011 252.043 70.3869 247.129 69.9228C245.911 69.801 244.694 69.5766 243.477 69.2495C242.716 69.0364 241.955 68.7816 241.194 68.4849C239.589 67.8686 237.991 67.0622 236.401 66.0655C227.782 60.8029 219.273 60.7914 210.873 66.0313C210.858 66.0445 210.843 66.0559 210.827 66.0655C205.829 69.0388 200.88 70.2903 195.98 69.8201C194.763 69.7059 193.546 69.4815 192.328 69.1468C191.568 68.9413 190.807 68.6903 190.046 68.3936C188.441 67.7697 186.843 66.9595 185.253 65.9628C176.618 60.6905 168.093 60.7247 159.679 66.0655C154.695 69.1011 149.747 70.3869 144.832 69.9228C143.614 69.801 142.397 69.5766 141.18 69.2495C140.419 69.0364 139.658 68.7816 138.898 68.4849C137.292 67.8686 135.695 67.0622 134.105 66.0655C125.469 60.7932 116.945 60.7932 108.53 66.0655C103.547 69.1011 98.5981 70.3869 93.6834 69.9228C92.4661 69.801 91.2488 69.5766 90.0315 69.2495C89.2707 69.0364 88.5099 68.7816 87.7491 68.4849C86.1439 67.8686 84.5462 67.0622 82.9561 66.0655C74.3211 60.7932 65.7963 60.8236 57.3819 66.1568C52.3987 69.1924 47.4497 70.4782 42.535 70.0141C41.3177 69.8999 40.1004 69.6755 38.8831 69.3408C38.1223 69.1353 37.3615 68.8843 36.6007 68.5876C34.9955 67.9637 33.3978 67.1535 31.8077 66.1568C23.4848 61.0751 15.2644 60.8887 7.14648 65.5976V87.1891C15.2644 82.4801 23.4848 82.6665 31.8077 87.7482C33.3978 88.7449 34.9955 89.5513 36.6007 90.1676C37.3615 90.4643 38.1223 90.7192 38.8831 90.9322C40.1004 91.2593 41.3177 91.4838 42.535 91.6055C47.4497 92.0696 52.3987 90.7838 57.3819 87.7482C65.7963 82.4075 74.3211 82.3732 82.9561 87.6455C84.5462 88.6422 86.1439 89.4524 87.7491 90.0763C88.5099 90.373 89.2707 90.6241 90.0315 90.8295C91.2488 91.1642 92.4661 91.3887 93.6834 91.5028C98.5981 91.9745 103.547 90.6887 108.53 87.6455C116.945 82.3732 125.469 82.3732 134.105 87.6455C135.695 88.6422 137.292 89.4524 138.898 90.0763C139.658 90.373 140.419 90.6241 141.18 90.8295C142.397 91.1642 143.614 91.3887 144.832 91.5028C149.747 91.9745 154.695 90.6583 159.679 87.5542C168.093 82.2819 176.618 82.2819 185.253 87.5542C186.843 88.5509 188.441 89.3611 190.046 89.985C190.807 90.2817 191.568 90.5328 192.328 90.7382C193.546 91.0729 194.763 91.2974 195.98 91.4115C200.882 91.8819 205.831 90.6266 210.827 87.6455C210.841 87.637 210.852 87.6294 210.861 87.6227C219.267 82.3741 227.78 82.3817 236.401 87.6455C237.991 88.6422 239.589 89.4524 241.194 90.0763C241.955 90.373 242.716 90.6241 243.477 90.8295C244.694 91.1642 245.911 91.3887 247.129 91.5028C252.043 91.9745 256.992 90.6887 261.975 87.6455C270.39 82.3124 278.915 82.2819 287.55 87.5542C289.14 88.5509 290.737 89.3611 292.343 89.985C293.104 90.2817 293.864 90.5328 294.625 90.7382C295.842 91.0729 297.06 91.2974 298.277 91.4115C303.192 91.8832 308.141 90.5974 313.124 87.5542C321.538 82.2819 330.063 82.2819 338.698 87.5542C340.288 88.5509 341.886 89.3611 343.491 89.985C344.252 90.2817 345.013 90.5328 345.774 90.7382C346.991 91.0729 348.208 91.2974 349.425 91.4115C354.34 91.8832 359.289 90.5974 364.272 87.5542V87.4629C372.687 82.1906 381.211 82.1906 389.846 87.4629C391.437 88.4596 393.034 89.2698 394.639 89.8937C395.4 90.1904 396.161 90.4415 396.922 90.6469C398.139 90.974 399.356 91.1985 400.574 91.3202C404.561 91.6967 408.57 90.9206 412.602 88.9921V67.4007C408.57 69.3354 404.561 70.1114 400.574 69.7288ZM400.574 26.5573C399.356 26.4356 398.139 26.2112 396.922 25.884C396.161 25.671 395.4 25.4161 394.639 25.1194C393.034 24.5032 391.437 23.6967 389.846 22.7001C381.211 17.4278 372.687 17.4278 364.272 22.7001V22.7914C359.289 25.827 354.34 27.1127 349.425 26.6486C348.208 26.5345 346.991 26.3101 345.774 25.9753C345.013 25.7699 344.252 25.5188 343.491 25.2221C341.886 24.5983 340.288 23.788 338.698 22.7914C330.063 17.5191 321.538 17.5191 313.124 22.7914C308.141 25.827 303.192 27.1127 298.277 26.6486C297.06 26.5345 295.842 26.3101 294.625 25.9753C293.864 25.7699 293.104 25.5188 292.343 25.2221C290.737 24.5983 289.14 23.788 287.55 22.7914C278.915 17.5191 270.39 17.5495 261.975 22.8827C256.992 25.9259 252.043 27.2116 247.129 26.7399C245.911 26.6258 244.694 26.4014 243.477 26.0666C242.716 25.8612 241.955 25.6101 241.194 25.3134C239.589 24.6896 237.991 23.8793 236.401 22.8827C227.78 17.6185 219.255 17.588 210.827 22.7914C210.813 22.7986 210.798 22.8062 210.781 22.8142C205.815 25.8333 200.882 27.1115 195.98 26.6486C194.763 26.5345 193.546 26.3101 192.328 25.9753C191.568 25.7699 190.807 25.5188 190.046 25.2221C188.441 24.5983 186.843 23.788 185.253 22.7914C176.618 17.5191 168.093 17.5191 159.679 22.7914C154.695 25.8954 149.747 27.2116 144.832 26.7399C143.614 26.6258 142.397 26.4014 141.18 26.0666C140.419 25.8612 139.658 25.6101 138.898 25.3134C137.292 24.6896 135.695 23.8793 134.105 22.8827C125.469 17.6104 116.945 17.6104 108.53 22.8827C103.547 25.9259 98.5981 27.2116 93.6834 26.7399C92.4661 26.6258 91.2488 26.4014 90.0315 26.0666C89.2707 25.8612 88.5099 25.6101 87.7491 25.3134C86.1439 24.6896 84.5462 23.8793 82.9561 22.8827C74.3211 17.6104 65.7963 17.6408 57.3819 22.974C52.3987 26.0172 47.4497 27.3029 42.535 26.8312C41.3177 26.7171 40.1004 26.4927 38.8831 26.1579C38.1223 25.9525 37.3615 25.7014 36.6007 25.4047C34.9955 24.7885 33.3978 23.9782 31.8077 22.974C23.4848 17.8996 15.2644 17.717 7.14648 22.4262V44.0062C15.2644 39.2973 23.4848 39.4837 31.8077 44.5654C33.3978 45.562 34.9955 46.3723 36.6007 46.9961C37.3615 47.2929 38.1223 47.5439 38.8831 47.7493C40.1004 48.0841 41.3177 48.3085 42.535 48.4226C47.4497 48.8943 52.3987 47.6086 57.3819 44.5654C65.7963 39.2322 74.3211 39.2018 82.9561 44.4741C84.5462 45.4708 86.1439 46.281 87.7491 46.9049C88.5099 47.2016 89.2707 47.4526 90.0315 47.658C91.2488 47.9928 92.4661 48.2172 93.6834 48.3313C98.5981 48.7954 103.547 47.5097 108.53 44.4741C116.945 39.2018 125.469 39.2018 134.105 44.4741C135.695 45.4708 137.292 46.281 138.898 46.9049C139.658 47.2016 140.419 47.4526 141.18 47.658C142.397 47.9928 143.614 48.2172 144.832 48.3313C149.747 48.7954 154.695 47.4793 159.679 44.3828C168.093 39.1105 176.618 39.1105 185.253 44.3828C186.843 45.3795 188.441 46.1859 190.046 46.8021C190.807 47.0989 191.568 47.3537 192.328 47.5667C193.546 47.8939 194.763 48.1183 195.98 48.2401C200.882 48.7029 205.815 47.4248 210.781 44.4056C210.798 44.3976 210.813 44.39 210.827 44.3828C219.255 39.1795 227.78 39.2099 236.401 44.4741C237.991 45.4708 239.589 46.281 241.194 46.9049C241.955 47.2016 242.716 47.4526 243.477 47.658C244.694 47.9928 245.911 48.2172 247.129 48.3313C252.043 48.7954 256.992 47.5097 261.975 44.4741C270.39 39.1409 278.915 39.1105 287.55 44.3828C289.14 45.3795 290.737 46.1859 292.343 46.8021C293.104 47.0989 293.864 47.3537 294.625 47.5667C295.842 47.8939 297.06 48.1183 298.277 48.2401C303.192 48.7041 308.141 47.4184 313.124 44.3828C321.538 39.1105 330.063 39.1105 338.698 44.3828C340.288 45.3795 341.886 46.1859 343.491 46.8021C344.252 47.0989 345.013 47.3537 345.774 47.5667C346.991 47.8939 348.208 48.1183 349.425 48.2401C354.34 48.7041 359.289 47.4184 364.272 44.3828V44.2801C372.687 39.0078 381.211 39.0078 389.846 44.2801C391.437 45.2767 393.034 46.087 394.639 46.7108C395.4 47.0076 396.161 47.2586 396.922 47.464C398.139 47.7988 399.356 48.0232 400.574 48.1373C404.561 48.52 408.57 47.744 412.602 45.8093V24.2293C408.57 26.1578 404.561 26.9338 400.574 26.5573Z" fill="#0185FF"/>
<path d="M313.124 152.317C321.538 147.045 330.063 147.045 338.698 152.317C340.288 153.314 341.886 154.124 343.491 154.748C344.252 155.045 345.013 155.296 345.774 155.501C346.991 155.836 348.208 156.06 349.425 156.174C354.34 156.639 359.289 155.353 364.272 152.317V152.226C372.687 146.954 381.211 146.954 389.846 152.226C391.437 153.223 393.034 154.029 394.639 154.645C395.4 154.942 396.161 155.197 396.922 155.41C398.139 155.737 399.356 155.961 400.574 156.083C404.561 156.46 408.57 155.684 412.602 153.755V132.164C408.57 134.098 404.561 134.874 400.574 134.492C399.356 134.378 398.139 134.153 396.922 133.818C396.161 133.613 395.4 133.362 394.639 133.065C393.034 132.441 391.437 131.631 389.846 130.634C381.211 125.362 372.687 125.362 364.272 130.634V130.726C359.289 133.769 354.34 135.058 349.425 134.594C348.208 134.473 346.991 134.244 345.774 133.91C345.013 133.704 344.252 133.453 343.491 133.157C341.886 132.54 340.288 131.73 338.698 130.726C330.063 125.461 321.538 125.461 313.124 130.726C308.141 133.769 303.192 135.058 298.277 134.594C297.06 134.473 295.842 134.244 294.625 133.91C293.864 133.704 293.104 133.453 292.343 133.157C290.737 132.54 289.14 131.73 287.55 130.726C278.915 125.461 270.39 125.461 261.975 130.726V130.828C256.992 133.864 252.043 135.15 247.129 134.686C245.911 134.564 244.694 134.34 243.477 134.012C242.716 133.807 241.955 133.556 241.194 133.259C239.589 132.635 237.991 131.825 236.401 130.828C227.766 125.556 219.242 125.556 210.827 130.828L210.781 130.749C205.814 133.775 200.88 135.057 195.98 134.594C194.763 134.473 193.546 134.244 192.328 133.91C191.568 133.704 190.807 133.453 190.046 133.157C188.441 132.54 186.843 131.73 185.253 130.726C176.618 125.461 168.093 125.461 159.679 130.726V130.828C154.695 133.864 149.747 135.15 144.832 134.686C143.614 134.564 142.397 134.34 141.18 134.012C140.419 133.807 139.658 133.556 138.898 133.259C137.292 132.635 135.695 131.825 134.105 130.828C125.469 125.556 116.945 125.556 108.53 130.828C103.547 133.864 98.5981 135.15 93.6834 134.686C92.4661 134.564 91.2488 134.34 90.0315 134.012C89.2707 133.807 88.5099 133.556 87.7491 133.259C86.1439 132.635 84.5462 131.825 82.9561 130.828C74.3211 125.556 65.7963 125.556 57.3819 130.828V130.92C52.3987 133.963 47.4497 135.249 42.535 134.777C41.3177 134.663 40.1004 134.438 38.8831 134.104C38.1223 133.898 37.3615 133.647 36.6007 133.35C34.9955 132.727 33.3978 131.916 31.8077 130.92C23.4848 125.838 15.2644 125.652 7.14648 130.361V151.952C15.2644 147.243 23.4848 147.425 31.8077 152.5C33.3978 153.504 34.9955 154.314 36.6007 154.931C37.3615 155.227 38.1223 155.478 38.8831 155.684C40.1004 156.018 41.3177 156.243 42.535 156.357C47.4497 156.829 52.3987 155.543 57.3819 152.5V152.408C65.7963 147.136 74.3211 147.136 82.9561 152.408C84.5462 153.405 86.1439 154.215 87.7491 154.839C88.5099 155.136 89.2707 155.387 90.0315 155.592C91.2488 155.927 92.4661 156.152 93.6834 156.266C98.5981 156.737 103.547 155.452 108.53 152.408C116.945 147.136 125.469 147.136 134.105 152.408C135.695 153.405 137.292 154.215 138.898 154.839C139.658 155.136 140.419 155.387 141.18 155.592C142.397 155.927 143.614 156.152 144.832 156.266C149.747 156.737 154.695 155.452 159.679 152.408V152.317C168.093 147.045 176.618 147.045 185.253 152.317C186.843 153.314 188.441 154.124 190.046 154.748C190.807 155.045 191.568 155.296 192.328 155.501C193.546 155.836 194.763 156.06 195.98 156.174C200.895 156.639 205.844 155.353 210.827 152.317L210.861 152.386C219.266 147.137 227.78 147.144 236.401 152.408C237.991 153.405 239.589 154.215 241.194 154.839C241.955 155.136 242.716 155.387 243.477 155.592C244.694 155.927 245.911 156.152 247.129 156.266C252.043 156.737 256.992 155.452 261.975 152.408V152.317C270.39 147.045 278.915 147.045 287.55 152.317C289.14 153.314 290.737 154.124 292.343 154.748C293.104 155.045 293.864 155.296 294.625 155.501C295.842 155.836 297.06 156.06 298.277 156.174C303.192 156.639 308.141 155.353 313.124 152.317ZM364.272 87.463V87.5543C359.289 90.5975 354.34 91.8832 349.425 91.4116C348.208 91.2974 346.991 91.073 345.774 90.7382C345.013 90.5328 344.252 90.2818 343.491 89.9851C341.886 89.3612 340.288 88.551 338.698 87.5543C330.063 82.282 321.538 82.282 313.124 87.5543C308.141 90.5975 303.192 91.8832 298.277 91.4116C297.06 91.2974 295.842 91.073 294.625 90.7382C293.864 90.5328 293.104 90.2818 292.343 89.9851C290.737 89.3612 289.14 88.551 287.55 87.5543C278.915 82.282 270.39 82.3124 261.975 87.6456C256.992 90.6888 252.043 91.9745 247.129 91.5028C245.911 91.3887 244.694 91.1643 243.477 90.8295C242.716 90.6241 241.955 90.3731 241.194 90.0764C239.589 89.4525 237.991 88.6423 236.401 87.6456C227.78 82.3818 219.267 82.3742 210.861 87.6228C210.852 87.6295 210.841 87.6371 210.827 87.6456C205.831 90.6267 200.882 91.882 195.98 91.4116C194.763 91.2974 193.546 91.073 192.328 90.7382C191.568 90.5328 190.807 90.2818 190.046 89.9851C188.441 89.3612 186.843 88.551 185.253 87.5543C176.618 82.282 168.093 82.282 159.679 87.5543C154.695 90.6584 149.747 91.9745 144.832 91.5028C143.614 91.3887 142.397 91.1643 141.18 90.8295C140.419 90.6241 139.658 90.3731 138.898 90.0764C137.292 89.4525 135.695 88.6423 134.105 87.6456C125.469 82.3733 116.945 82.3733 108.53 87.6456C103.547 90.6888 98.5981 91.9745 93.6834 91.5028C92.4661 91.3887 91.2488 91.1643 90.0315 90.8295C89.2707 90.6241 88.5099 90.3731 87.7491 90.0764C86.1439 89.4525 84.5462 88.6423 82.9561 87.6456C74.3211 82.3733 65.7963 82.4075 57.3819 87.7483C52.3987 90.7839 47.4497 92.0696 42.535 91.6056C41.3177 91.4838 40.1004 91.2594 38.8831 90.9323C38.1223 90.7192 37.3615 90.4644 36.6007 90.1676C34.9955 89.5514 33.3978 88.745 31.8077 87.7483C23.4848 82.6666 15.2644 82.4802 7.14648 87.1891V108.769C15.2644 104.06 23.4848 104.247 31.8077 109.328C33.3978 110.325 34.9955 111.135 36.6007 111.759C37.3615 112.056 38.1223 112.307 38.8831 112.512C40.1004 112.847 41.3177 113.071 42.535 113.186C47.4497 113.657 52.3987 112.372 57.3819 109.328V109.237C65.7963 103.965 74.3211 103.965 82.9561 109.237C84.5462 110.234 86.1439 111.044 87.7491 111.668C88.5099 111.964 89.2707 112.216 90.0315 112.421C91.2488 112.756 92.4661 112.98 93.6834 113.094C98.5981 113.566 103.547 112.28 108.53 109.237C116.945 103.965 125.469 103.965 134.105 109.237C135.695 110.234 137.292 111.044 138.898 111.668C139.658 111.964 140.419 112.216 141.18 112.421C142.397 112.756 143.614 112.98 144.832 113.094C149.747 113.566 154.695 112.28 159.679 109.237V109.146C168.093 103.873 176.618 103.873 185.253 109.146C186.843 110.142 188.441 110.953 190.046 111.576C190.807 111.873 191.568 112.124 192.328 112.33C193.546 112.657 194.763 112.881 195.98 113.003C200.895 113.467 205.844 112.181 210.827 109.146L210.861 109.214C219.266 103.965 227.78 103.973 236.401 109.237C237.991 110.234 239.589 111.044 241.194 111.668C241.955 111.964 242.716 112.216 243.477 112.421C244.694 112.756 245.911 112.98 247.129 113.094C252.043 113.566 256.992 112.28 261.975 109.237V109.146C270.39 103.873 278.915 103.873 287.55 109.146C289.14 110.142 290.737 110.953 292.343 111.576C293.104 111.873 293.864 112.124 294.625 112.33C295.842 112.657 297.06 112.881 298.277 113.003C303.192 113.467 308.141 112.181 313.124 109.146C321.538 103.873 330.063 103.873 338.698 109.146C340.288 110.142 341.886 110.953 343.491 111.576C344.252 111.873 345.013 112.124 345.774 112.33C346.991 112.657 348.208 112.881 349.425 113.003C354.34 113.467 359.289 112.181 364.272 109.146V109.043C372.687 103.778 381.211 103.778 389.846 109.043C391.437 110.047 393.034 110.858 394.639 111.474C395.4 111.77 396.161 112.022 396.922 112.227C398.139 112.562 399.356 112.79 400.574 112.912C404.561 113.288 408.57 112.508 412.602 110.572V88.9922C408.57 90.9207 404.561 91.6967 400.574 91.3203C399.356 91.1985 398.139 90.9741 396.922 90.647C396.161 90.4415 395.4 90.1905 394.639 89.8938C393.034 89.2699 391.437 88.4597 389.846 87.463C381.211 82.1907 372.687 82.1907 364.272 87.463ZM400.574 48.1374C399.356 48.0233 398.139 47.7989 396.922 47.4641C396.161 47.2587 395.4 47.0076 394.639 46.7109C393.034 46.0871 391.437 45.2768 389.846 44.2802C381.211 39.0078 372.687 39.0078 364.272 44.2802V44.3829C359.289 47.4185 354.34 48.7042 349.425 48.2401C348.208 48.1184 346.991 47.894 345.774 47.5668C345.013 47.3538 344.252 47.0989 343.491 46.8022C341.886 46.186 340.288 45.3795 338.698 44.3829C330.063 39.1106 321.538 39.1106 313.124 44.3829C308.141 47.4185 303.192 48.7042 298.277 48.2401C297.06 48.1184 295.842 47.894 294.625 47.5668C293.864 47.3538 293.104 47.0989 292.343 46.8022C290.737 46.186 289.14 45.3795 287.55 44.3829C278.915 39.1106 270.39 39.141 261.975 44.4742C256.992 47.5098 252.043 48.7955 247.129 48.3314C245.911 48.2173 244.694 47.9929 243.477 47.6581C242.716 47.4527 241.955 47.2016 241.194 46.9049C239.589 46.2811 237.991 45.4708 236.401 44.4742C227.78 39.21 219.255 39.1795 210.827 44.3829C210.813 44.39 210.798 44.3976 210.781 44.4057C205.815 47.4248 200.882 48.703 195.98 48.2401C194.763 48.1184 193.546 47.894 192.328 47.5668C191.568 47.3538 190.807 47.0989 190.046 46.8022C188.441 46.186 186.843 45.3795 185.253 44.3829C176.618 39.1106 168.093 39.1106 159.679 44.3829C154.695 47.4793 149.747 48.7955 144.832 48.3314C143.614 48.2173 142.397 47.9929 141.18 47.6581C140.419 47.4527 139.658 47.2016 138.898 46.9049C137.292 46.2811 135.695 45.4708 134.105 44.4742C125.469 39.2018 116.945 39.2018 108.53 44.4742C103.547 47.5098 98.5981 48.7955 93.6834 48.3314C92.4661 48.2173 91.2488 47.9929 90.0315 47.6581C89.2707 47.4527 88.5099 47.2016 87.7491 46.9049C86.1439 46.2811 84.5462 45.4708 82.9561 44.4742C74.3211 39.2018 65.7963 39.2323 57.3819 44.5655C52.3987 47.6087 47.4497 48.8944 42.535 48.4227C41.3177 48.3086 40.1004 48.0842 38.8831 47.7494C38.1223 47.544 37.3615 47.2929 36.6007 46.9962C34.9955 46.3724 33.3978 45.5621 31.8077 44.5655C23.4848 39.4837 15.2644 39.2973 7.14648 44.0063V65.5977C15.2644 60.8888 23.4848 61.0752 31.8077 66.1569C33.3978 67.1535 34.9955 67.9638 36.6007 68.5876C37.3615 68.8844 38.1223 69.1354 38.8831 69.3408C40.1004 69.6756 41.3177 69.9 42.535 70.0141C47.4497 70.4782 52.3987 69.1925 57.3819 66.1569C65.7963 60.8237 74.3211 60.7933 82.9561 66.0656C84.5462 67.0622 86.1439 67.8687 87.7491 68.4849C88.5099 68.7816 89.2707 69.0365 90.0315 69.2495C91.2488 69.5767 92.4661 69.8011 93.6834 69.9228C98.5981 70.3869 103.547 69.1012 108.53 66.0656C116.945 60.7933 125.469 60.7933 134.105 66.0656C135.695 67.0622 137.292 67.8687 138.898 68.4849C139.658 68.7816 140.419 69.0365 141.18 69.2495C142.397 69.5767 143.614 69.8011 144.832 69.9228C149.747 70.3869 154.695 69.1012 159.679 66.0656C168.093 60.7248 176.618 60.6906 185.253 65.9629C186.843 66.9595 188.441 67.7698 190.046 68.3936C190.807 68.6903 191.568 68.9414 192.328 69.1468C193.546 69.4816 194.763 69.706 195.98 69.8201C200.88 70.2904 205.829 69.0389 210.827 66.0656C210.843 66.0559 210.858 66.0445 210.873 66.0314C219.273 60.7915 227.782 60.8029 236.401 66.0656C237.991 67.0622 239.589 67.8687 241.194 68.4849C241.955 68.7816 242.716 69.0365 243.477 69.2495C244.694 69.5767 245.911 69.8011 247.129 69.9228C252.043 70.3869 256.992 69.1012 261.975 66.0656C270.39 60.7248 278.915 60.6906 287.55 65.9629C289.14 66.9595 290.737 67.7698 292.343 68.3936C293.104 68.6903 293.864 68.9414 294.625 69.1468C295.842 69.4816 297.06 69.706 298.277 69.8201C303.192 70.2918 308.141 69.0061 313.124 65.9629C321.538 60.6906 330.063 60.6906 338.698 65.9629C340.288 66.9595 341.886 67.7698 343.491 68.3936C344.252 68.6903 345.013 68.9414 345.774 69.1468C346.991 69.4816 348.208 69.706 349.425 69.8201C354.34 70.2918 359.289 69.0061 364.272 65.9629V65.8716C372.687 60.5993 381.211 60.5993 389.846 65.8716C391.437 66.8682 393.034 67.6785 394.639 68.3023C395.4 68.5991 396.161 68.8501 396.922 69.0555C398.139 69.3903 399.356 69.6147 400.574 69.7288C404.561 70.1115 408.57 69.3354 412.602 67.4008V45.8094C408.57 47.744 404.561 48.52 400.574 48.1374ZM412.602 -6.43457H7.14648V22.4263C15.2644 17.7171 23.4848 17.8996 31.8077 22.974C33.3978 23.9783 34.9955 24.7885 36.6007 25.4048C37.3615 25.7015 38.1223 25.9526 38.8831 26.158C40.1004 26.4927 41.3177 26.7172 42.535 26.8313C47.4497 27.303 52.3987 26.0172 57.3819 22.974C65.7963 17.6409 74.3211 17.6104 82.9561 22.8827C84.5462 23.8794 86.1439 24.6896 87.7491 25.3135C88.5099 25.6102 89.2707 25.8613 90.0315 26.0667C91.2488 26.4014 92.4661 26.6259 93.6834 26.74C98.5981 27.2117 103.547 25.9259 108.53 22.8827C116.945 17.6104 125.469 17.6104 134.105 22.8827C135.695 23.8794 137.292 24.6896 138.898 25.3135C139.658 25.6102 140.419 25.8613 141.18 26.0667C142.397 26.4014 143.614 26.6259 144.832 26.74C149.747 27.2117 154.695 25.8955 159.679 22.7915C168.093 17.5191 176.618 17.5191 185.253 22.7915C186.843 23.7881 188.441 24.5983 190.046 25.2222C190.807 25.5189 191.568 25.77 192.328 25.9754C193.546 26.3101 194.763 26.5346 195.98 26.6487C200.882 27.1115 205.815 25.8334 210.781 22.8143C210.798 22.8062 210.813 22.7986 210.827 22.7915C219.255 17.5881 227.78 17.6185 236.401 22.8827C237.991 23.8794 239.589 24.6896 241.194 25.3135C241.955 25.6102 242.716 25.8613 243.477 26.0667C244.694 26.4014 245.911 26.6259 247.129 26.74C252.043 27.2117 256.992 25.9259 261.975 22.8827C270.39 17.5496 278.915 17.5191 287.55 22.7915C289.14 23.7881 290.737 24.5983 292.343 25.2222C293.104 25.5189 293.864 25.77 294.625 25.9754C295.842 26.3101 297.06 26.5346 298.277 26.6487C303.192 27.1128 308.141 25.827 313.124 22.7915C321.538 17.5191 330.063 17.5191 338.698 22.7915C340.288 23.7881 341.886 24.5983 343.491 25.2222C344.252 25.5189 345.013 25.77 345.774 25.9754C346.991 26.3101 348.208 26.5346 349.425 26.6487C354.34 27.1128 359.289 25.827 364.272 22.7915V22.7002C372.687 17.4278 381.211 17.4278 389.846 22.7002C391.437 23.6968 393.034 24.5032 394.639 25.1195C395.4 25.4162 396.161 25.6711 396.922 25.8841C398.139 26.2112 399.356 26.4357 400.574 26.5574C404.561 26.9339 408.57 26.1579 412.602 24.2294V-6.43457Z" fill="#0164BF"/>
</g>
<path d="M210.61 83.4574C210.61 85.7246 210.527 87.9575 210.359 90.1562C210.329 90.5062 210.299 90.8523 210.268 91.1947C209.697 97.5398 208.419 103.588 206.434 109.34C206.32 109.682 206.202 110.021 206.08 110.355C202.474 120.299 196.722 129.349 188.825 137.504C188.49 137.847 188.152 138.189 187.809 138.531C177.752 148.582 166.317 155.311 153.505 158.719C146.947 160.461 140.024 161.333 132.735 161.333C123.682 161.333 115.187 159.986 107.252 157.293C97.2783 153.907 88.1868 148.399 79.9778 140.768C79.1941 140.038 78.4219 139.292 77.6611 138.531C70.8216 131.692 65.5226 124.217 61.7643 116.107C57.8233 107.617 55.5676 98.4337 54.997 88.5585C54.8981 86.8772 54.8486 85.1768 54.8486 83.4574C54.8486 78.0101 55.3355 72.7644 56.3094 67.7203C58.2114 57.9136 61.9583 48.8678 67.5501 40.5827C70.426 36.3146 73.7963 32.2481 77.6611 28.3833C79.7153 26.3291 81.8303 24.4119 84.0062 22.6317C97.8907 11.2578 114.134 5.5708 132.735 5.5708C150.644 5.5708 166.37 10.8431 179.912 21.3878C182.636 23.5104 185.268 25.8422 187.809 28.3833C191.317 31.8906 194.417 35.5652 197.11 39.4073C202.923 47.6847 206.86 56.7382 208.921 66.5677C210.047 71.9618 210.61 77.5917 210.61 83.4574Z" stroke="#002140" stroke-width="0.999" stroke-linecap="round" stroke-linejoin="round"/>
<path d="M62.8483 118.355C61.7984 118.548 61.4979 119.115 61.9468 120.056C61.9607 120.082 61.9759 120.108 61.9924 120.135H61.981C65.6651 127.129 70.519 133.638 76.5427 139.661C77.3187 140.437 78.1061 141.198 78.9049 141.944C83.9723 146.657 89.3702 150.575 95.0985 153.698C95.9686 154.001 96.3871 153.624 96.3538 152.568V142.845C96.0609 139.133 94.3872 136.926 91.3326 136.226H87.4525C84.9938 136.069 83.8488 134.89 84.0175 132.689V126.64C83.7951 122.601 81.9692 120.433 78.5398 120.135H63.7841C63.466 119.548 63.1541 118.955 62.8483 118.355ZM196.334 44.4513C194.75 44.5598 193.913 45.4157 193.823 47.019V48.1602C193.894 49.7359 193.228 50.6488 191.826 50.8991H188.631C186.924 50.9233 186.087 51.8172 186.12 53.5809V60.6106C186.152 62.3465 187.122 63.2024 189.03 63.1783H196.391C197.993 63.183 198.735 62.3271 198.616 60.6106C198.589 59.2294 199.217 58.5028 200.499 58.431H206.73C207.384 58.3638 207.769 58.109 207.883 57.6664C207.91 57.5841 207.925 57.4928 207.929 57.3925V57.3697C207.929 57.3617 207.929 57.3541 207.929 57.3468C207.93 57.1239 207.88 56.8653 207.78 56.5708C206.53 53.0272 205.008 49.5922 203.215 46.2658C202.558 45.0852 201.611 44.4804 200.374 44.4513H196.334ZM187.695 26.0438C186.794 25.3871 186.326 25.6724 186.291 26.8997V27.8469C186.208 28.8007 185.657 29.2192 184.637 29.1022H181.955C180.908 29.2835 180.337 29.8732 180.243 30.8711V33.5529C180.34 34.8421 180.949 35.4735 182.069 35.4473H184.694C185.999 35.4589 186.589 36.2577 186.463 37.8438C186.339 39.6208 186.852 40.4767 188.003 40.4115H191.199C192.709 40.3722 193.489 39.6 193.538 38.0949V33.4616C193.505 32.678 193.182 31.8944 192.568 31.1107C191.41 29.8081 190.2 28.5262 188.939 27.2649C188.529 26.8535 188.114 26.4465 187.695 26.0438ZM140.142 4.28123C139.335 4.23356 138.646 3.93305 138.076 3.37969C136.754 1.9572 135.734 1.26868 135.018 1.31412C134.291 1.36036 133.344 2.03367 132.176 3.33404C131.4 4.03516 130.624 4.03516 129.848 3.33404C128.605 2.24556 127.733 1.713 127.235 1.73636C126.671 1.75812 125.758 2.41621 124.496 3.71063C124.028 4.17213 123.412 4.45363 122.647 4.55512C117.045 5.20961 111.674 6.41928 106.533 8.18412C105.843 8.39886 105.151 8.3418 104.456 8.01294C102.965 7.37972 101.919 7.20474 101.318 7.48799C100.726 7.77258 100.217 8.43066 99.7888 9.46226C99.3601 10.4923 98.8922 11.1808 98.3852 11.5278C97.002 12.2006 95.6364 12.9158 94.2883 13.6733C93.507 14.1635 92.7957 14.3042 92.1542 14.0955L92.1428 14.0841C90.7859 13.6367 89.8158 13.5606 89.2328 13.8559C88.7403 14.0834 88.3637 14.8746 88.103 16.2295C87.9362 17.1 87.5634 17.8037 86.9846 18.3408V18.3522C85.6429 19.3195 84.323 20.3351 83.0247 21.3992C82.1131 22.1453 81.2116 22.9137 80.32 23.7044C79.8434 24.1589 79.1282 24.3377 78.1746 24.2407C77.2195 24.1511 76.5462 24.2767 76.1547 24.6173C75.7716 24.9663 75.5661 25.6738 75.5384 26.74C75.5109 27.8119 75.3131 28.5841 74.945 29.0566C74.5755 29.5375 73.9592 29.762 73.0963 29.7299C72.2339 29.6971 71.5949 29.8607 71.1791 30.2206C70.7632 30.5883 70.573 31.2578 70.6085 32.2291C70.6521 33.2075 70.4125 34.033 69.8895 34.7055C69.0098 35.8202 68.1615 36.9462 67.3446 38.0834C66.7062 38.9837 66.3677 39.9576 66.329 41.0049V49.7122C66.3292 49.7361 66.3292 49.7589 66.329 49.7807C66.3829 51.7346 67.4099 52.853 69.4102 53.1358H73.5185C74.9893 53.4997 75.712 54.6029 75.6868 56.4453V58.488V63.6348C75.8135 65.6763 76.9547 66.7034 79.1104 66.716H87.5552C89.0677 66.8411 89.8285 67.8682 89.8376 69.7973V71.9313V77.6715C89.8378 77.7193 89.8378 77.7649 89.8376 77.8085C89.8983 79.8103 90.815 81.0961 92.5879 81.6657H97.0385C97.1455 83.8117 98.4008 84.9529 100.804 85.0893H110.619C113.383 84.8093 114.828 86.1407 114.955 89.0835V91.3659V96.5127C115.319 99.8386 117.259 101.588 120.775 101.762C119.409 101.892 118.466 102.444 117.945 103.417C117.646 103.979 117.486 104.679 117.466 105.517V123.308C117.464 123.422 117.464 123.532 117.466 123.639C117.53 126.65 119.287 128.449 122.738 129.037H130.019C131.785 129.424 132.774 130.718 132.986 132.917V135.199V141.818C133.01 144.268 132.173 145.485 130.476 145.47C128.529 145.627 127.426 146.768 127.166 148.894V161.96C127.291 162.641 127.79 162.934 128.661 162.839C130.01 162.9 131.372 162.93 132.747 162.93C133.673 162.93 134.593 162.915 135.508 162.885C136.681 162.915 137.248 162.626 137.209 162.017V157.795V155.512C137.288 152.79 138.619 151.459 141.203 151.518H155.696C159.017 151.117 160.733 149.101 160.843 145.47V132.86V131.776C160.604 129.059 161.86 127.538 164.609 127.211H169.174C171.341 127.122 172.486 126.022 172.609 123.913V108.495C172.379 105.327 170.93 103.768 168.261 103.816H163.924C161.242 103.683 159.873 102.238 159.816 99.4798C159.765 95.5258 157.63 93.5059 153.414 93.42H127.737C123.261 93.6788 121.093 92.2713 121.232 89.1976V83.834C121.248 80.851 119.954 79.1772 117.352 78.8127H111.189C108.723 78.8831 107.468 77.8941 107.423 75.8456V72.5361V70.2537C107.536 68.7013 108.22 67.8644 109.478 67.7431H122.487C124.235 67.8903 125.11 68.7652 125.112 70.3679V72.5019V75.5717C125.143 77.0085 125.904 77.8606 127.394 78.128H130.59C132.06 78.0587 132.859 77.1838 132.986 75.5032V54.5737V52.9076C132.913 50.3621 133.749 49.0307 135.497 48.9134H145.653C147.311 48.7613 148.186 47.6961 148.278 45.718V34.637C148.039 32.2955 146.974 31.1923 145.083 31.3276H136.296C134.955 31.6612 134.347 32.7263 134.47 34.5229C134.453 35.9547 133.692 36.7915 132.187 37.0335H125.454C123.846 36.8331 123.047 35.9582 123.058 34.4088V22.9968V20.7144C123.119 19.215 123.766 18.3743 124.998 18.1924H129.905C131.099 18.3171 131.784 19.097 131.959 20.5319V22.2779C131.986 24.0749 132.595 24.9993 133.785 25.051H138.35C139.715 24.9532 140.438 24.2114 140.518 22.8257C140.528 22.6551 140.528 22.4725 140.518 22.2779V16.7659C140.326 15.2443 139.527 14.4645 138.122 14.4265H135.154C133.869 14.5212 133.154 14.0419 133.009 12.9886C133.008 12.9631 133.005 12.9327 132.998 12.8973C132.991 12.8087 132.987 12.7136 132.986 12.612V10.7176C133.136 9.66963 133.783 9.11806 134.926 9.06284H144.512C146.016 9.25063 146.739 10.1484 146.681 11.7561V13.6733V18.2609C146.665 18.4749 146.665 18.6766 146.681 18.8657C146.78 20.0469 147.502 20.7012 148.849 20.8286H153.756C155.094 20.7402 155.703 19.9224 155.582 18.375V17.2909C155.592 15.9713 156.125 15.2486 157.18 15.1226H161.242C162.602 15.1531 163.306 14.4531 163.353 13.0228C163.353 13.001 163.353 12.9782 163.353 12.9543V11.5735C163.481 10.6839 163.078 9.9459 162.144 9.35955C155.24 6.62826 147.906 4.93549 140.142 4.28123ZM90.0773 34.0779C91.0909 34.174 91.5626 34.6267 91.4923 35.4359C91.4972 35.6225 91.4667 35.786 91.401 35.9266C91.1951 36.3625 90.6511 36.5832 89.7691 36.5885H84.2458C83.4446 36.5828 82.9463 36.3698 82.7508 35.9494C82.684 35.8037 82.6536 35.6325 82.6595 35.4359C82.591 34.6294 83.1008 34.1768 84.1887 34.0779H90.0773ZM89.3126 41.838C89.19 41.5848 89.1367 41.2805 89.1529 40.925C89.092 39.7077 89.8186 39.0611 91.3326 38.985H102.06C103.559 39.064 104.278 39.7106 104.217 40.925C104.233 41.2704 104.18 41.5671 104.057 41.8152C103.778 42.4066 103.112 42.7185 102.06 42.7509H91.3097C90.271 42.7191 89.6053 42.4148 89.3126 41.838ZM210.12 74.2479C210.186 74.8274 210.243 75.4094 210.291 75.994C210.34 76.8462 209.72 77.2533 208.431 77.215C207.518 77.215 206.985 76.8346 206.833 76.0738V74.3621C206.68 73.0951 206.09 72.4103 205.064 72.3079C204.053 72.2005 203.353 72.4667 202.964 73.1067H195.318C192.749 73.3613 191.418 74.5786 191.324 76.7586V82.4645C191.271 84.0504 190.373 84.7922 188.631 84.6899C186.645 84.7583 185.603 85.8082 185.504 87.8396V112.375C185.757 115.021 187.012 116.573 189.27 117.031H203.272C204.269 117.026 205.06 116.597 205.646 115.742V115.73C206.348 114.15 206.995 112.545 207.586 110.915C207.708 110.572 207.83 110.226 207.951 109.876C209.975 104.01 211.28 97.8402 211.866 91.3659C211.896 91.0159 211.927 90.6621 211.957 90.3046C212.124 88.0602 212.208 85.7816 212.208 83.4688C212.208 81.2062 212.124 78.9771 211.957 76.7814L211.946 76.6216C211.794 74.9871 211.185 74.1959 210.12 74.2479Z" fill="#00B268"/>
<path d="M205.213 60.7133C206.391 60.7512 207.117 60.4697 207.392 59.8688C207.675 59.2688 207.839 58.5347 207.883 57.6663C207.769 58.1089 207.385 58.3637 206.73 58.4309H200.499C199.217 58.5027 198.589 59.2293 198.616 60.6106C198.735 62.327 197.994 63.1829 196.391 63.1782H189.03C187.122 63.2023 186.152 62.3464 186.12 60.6106V62.8929C186.151 64.6276 187.121 65.4835 189.03 65.4606H196.391C197.996 65.4682 198.738 64.6123 198.616 62.8929C198.586 61.5083 199.214 60.7817 200.499 60.7133H205.213ZM184.694 35.4472H182.069C180.949 35.4734 180.34 34.842 180.243 33.5528V35.8352C180.342 37.1209 180.951 37.7524 182.069 37.7296H184.694C186.002 37.7448 186.592 38.5436 186.463 40.1261C186.341 41.9064 186.855 42.7623 188.003 42.6938H191.199C192.758 42.6557 193.538 41.8379 193.538 40.2402V38.0948C193.489 39.5999 192.709 40.3721 191.199 40.4114H188.003C186.852 40.4766 186.339 39.6207 186.463 37.8437C186.589 36.2576 185.999 35.4588 184.694 35.4472ZM160.843 145.47C160.733 149.101 159.017 151.117 155.696 151.518H141.203C138.62 151.458 137.288 152.79 137.209 155.512V157.795C137.285 155.071 138.616 153.74 141.203 153.801H155.696C159.021 153.397 160.736 151.381 160.843 147.752V145.47ZM169.174 127.211H164.609C161.86 127.537 160.605 129.059 160.843 131.776V132.86C161.041 130.891 162.297 129.769 164.609 129.493H169.174C171.342 129.402 172.487 128.302 172.609 126.195V123.913C172.486 126.022 171.341 127.121 169.174 127.211ZM117.466 123.639V125.59C117.398 128.801 119.155 130.71 122.738 131.319H130.019C131.784 131.707 132.773 133 132.986 135.199V132.917C132.774 130.718 131.785 129.424 130.019 129.037H122.738C119.287 128.449 117.53 126.649 117.466 123.639ZM117.945 103.417C118.466 102.444 119.409 101.892 120.776 101.762C117.259 101.588 115.319 99.8385 114.955 96.5126V98.795C115.207 101.082 116.203 102.623 117.945 103.417ZM75.6869 58.4879V56.4452C75.7121 54.6028 74.9894 53.4996 73.5186 53.1357H69.4103C67.4101 52.8529 66.383 51.7345 66.3291 49.7806V51.9945C66.3595 53.9878 67.3866 55.129 69.4103 55.4181H73.5186C74.9242 55.7677 75.647 56.791 75.6869 58.4879ZM89.8377 71.9312V69.7972C89.8286 67.8681 89.0678 66.841 87.5553 66.716H79.1105C76.9549 66.7033 75.8137 65.6762 75.6869 63.6347V65.9171C75.8162 67.9561 76.9574 68.9831 79.1105 68.9983H87.5553C89.0316 69.117 89.7924 70.0947 89.8377 71.9312ZM130.59 78.1279H127.394C125.904 77.8605 125.144 77.0084 125.112 75.5716V77.7855C125.12 79.2615 125.88 80.1364 127.394 80.4103H130.59C132.058 80.3418 132.857 79.4669 132.986 77.7855V75.5032C132.859 77.1837 132.06 78.0586 130.59 78.1279ZM114.955 89.0834C114.828 86.1406 113.383 84.8092 110.619 85.0892H100.805C98.4009 84.9528 97.1456 83.8116 97.0387 81.6656H92.588C90.8151 81.096 89.8984 79.8103 89.8377 77.8084V79.9538C89.8529 82.0308 90.7697 83.3622 92.588 83.948H97.0387C97.1452 86.0934 98.4005 87.2346 100.805 87.3716H110.619C113.381 87.0901 114.826 88.4215 114.955 91.3658V89.0834ZM125.112 70.3678C125.11 68.7651 124.236 67.8902 122.487 67.743H109.478C108.22 67.8643 107.536 68.7012 107.424 70.2537V72.536C107.538 70.984 108.222 70.1471 109.478 70.0254H122.487C124.185 70.1656 125.06 70.9911 125.112 72.5018V70.3678ZM148.278 45.718C148.186 47.6961 147.311 48.7612 145.654 48.9133H135.497C133.75 49.0306 132.913 50.362 132.986 52.9075V54.5736C133.056 52.4263 133.893 51.3003 135.497 51.1957H145.654C147.312 51.0435 148.187 49.9784 148.278 48.0003V45.718ZM140.518 22.8256C140.438 24.2113 139.715 24.9531 138.35 25.0509H133.785C132.595 24.9992 131.986 24.0748 131.959 22.2778V20.5318C131.784 19.0969 131.099 18.317 129.905 18.1923H124.998C123.766 18.3742 123.119 19.2149 123.058 20.7143V22.9967C123.119 21.498 123.765 20.6573 124.998 20.4747H129.905C131.1 20.5964 131.784 21.3762 131.959 22.8142V24.5602C131.99 26.3557 132.598 27.28 133.785 27.3333H138.35C139.887 27.2268 140.61 26.3024 140.518 24.5602V22.8256ZM146.681 13.6732V11.756C146.739 10.1483 146.016 9.25054 144.512 9.06274H134.926C133.783 9.11796 133.137 9.66954 132.986 10.7175V12.6119C132.987 12.7135 132.991 12.8086 132.998 12.8972C133.178 11.9141 133.82 11.3968 134.926 11.3451H144.512C145.902 11.5206 146.625 12.2966 146.681 13.6732ZM163.354 15.2366V13.0227C163.306 14.4531 162.602 15.153 161.242 15.1225H157.18C156.125 15.2485 155.592 15.9712 155.582 17.2908V18.3749C155.703 19.9223 155.094 20.7401 153.756 20.8285H148.849C147.503 20.7011 146.78 20.0468 146.681 18.8656V20.5432C146.567 22.1104 147.289 22.9663 148.849 23.1109H153.756C155.095 23.0196 155.704 22.2017 155.582 20.6573V19.5732C155.59 18.257 156.122 17.5342 157.18 17.4049H161.242C162.627 17.4353 163.331 16.7126 163.354 15.2366ZM89.153 40.9249C89.1368 41.2804 89.1901 41.5847 89.3128 41.8379C89.6285 41.2072 90.3779 40.8648 91.5609 40.8108H102.06C103.112 40.8642 103.778 41.199 104.057 41.8151C104.18 41.567 104.233 41.2703 104.217 40.9249C104.278 39.7105 103.56 39.0639 102.06 38.9849H91.3327C89.8187 39.061 89.0921 39.7077 89.153 40.9249ZM91.4925 35.4358C91.5627 34.6266 91.091 34.1739 90.0774 34.0778H84.1888C83.1009 34.1767 82.5911 34.6293 82.6596 35.4358C82.6537 35.6324 82.6841 35.8036 82.7509 35.9493C82.9458 35.5318 83.4251 35.2884 84.1888 35.219H90.0774C90.7747 35.2871 91.216 35.523 91.4012 35.9265C91.4668 35.786 91.4973 35.6224 91.4925 35.4358ZM205.646 115.742C205.06 116.596 204.269 117.026 203.273 117.031H189.27C187.012 116.573 185.757 115.021 185.504 112.375V114.658C185.755 117.305 187.011 118.857 189.27 119.314H201.675C203.411 119.241 204.734 118.051 205.646 115.742Z" fill="#002140"/>
<path d="M185.505 112.375V87.8396C185.603 85.8082 186.646 84.7583 188.631 84.6899C190.373 84.7922 191.271 84.0504 191.325 82.4645V76.7586C191.418 74.5786 192.75 73.3613 195.319 73.1067H202.965C203.353 72.4667 204.053 72.2005 205.065 72.3079C206.091 72.4103 206.681 73.0951 206.833 74.3621V76.0738C206.986 76.8346 207.518 77.215 208.431 77.215C209.721 77.2533 210.343 76.8462 210.297 75.994C210.245 75.4094 210.188 74.8274 210.126 74.2479C211.188 74.1959 211.796 74.9871 211.952 76.6216L211.963 76.7814C212.127 78.9771 212.208 81.2062 212.208 83.4688C212.208 85.7816 212.125 88.0602 211.957 90.3046C211.927 90.6621 211.897 91.0159 211.866 91.3659C211.28 97.8402 209.976 104.01 207.952 109.876C207.83 110.226 207.708 110.572 207.587 110.915C206.995 112.545 206.348 114.152 205.647 115.736V115.742C204.735 118.051 203.411 119.241 201.675 119.314H189.27C187.011 118.857 185.756 117.305 185.505 114.658V112.375ZM185.505 112.375C185.757 115.021 187.012 116.573 189.27 117.031H203.273C204.269 117.026 205.06 116.597 205.647 115.742M66.3294 49.7864C66.3296 49.7608 66.3296 49.7361 66.3294 49.7122V41.0049C66.3681 39.9576 66.7086 38.9856 67.3508 38.0891C68.1639 36.9481 69.0121 35.8221 69.8957 34.7112C70.4148 34.0349 70.6545 33.2094 70.6146 32.2348C70.5753 31.2597 70.7636 30.5902 71.1795 30.2263C71.5954 29.8626 72.2344 29.6971 73.0967 29.7299C73.9597 29.762 74.5759 29.5394 74.9455 29.0623C75.3136 28.586 75.5114 27.8138 75.5389 26.7457C75.5666 25.6757 75.7739 24.9682 76.1608 24.623C76.5486 24.2786 77.22 24.153 78.1751 24.2464C79.1287 24.3396 79.8438 24.1608 80.3205 23.7101C81.212 22.9156 82.1136 22.1453 83.0251 21.3992C84.3234 20.3351 85.6434 19.3195 86.9851 18.3522L86.9908 18.3465C87.5658 17.8056 87.9366 17.1 88.1035 16.2295C88.3641 14.8746 88.7407 14.0834 89.2332 13.8559C89.8163 13.5606 90.7863 13.6386 92.1433 14.0898L92.1547 14.0955C92.7961 14.3042 93.5075 14.1635 94.2887 13.6733C95.6369 12.9158 97.0044 12.2025 98.3913 11.5335C98.8946 11.1827 99.3606 10.4923 99.7893 9.46226C100.217 8.43066 100.729 7.77258 101.324 7.48799C101.921 7.20474 102.967 7.37972 104.462 8.01294C105.153 8.3418 105.843 8.39886 106.534 8.18412C111.674 6.41928 117.046 5.21151 122.647 4.56082C123.412 4.45553 124.028 4.17213 124.496 3.71063C125.758 2.41621 126.671 1.75812 127.235 1.73636C127.734 1.713 128.605 2.24556 129.848 3.33404C130.624 4.03516 131.4 4.03516 132.176 3.33404C133.344 2.03367 134.291 1.36036 135.018 1.31412C135.735 1.26868 136.754 1.9572 138.076 3.37969C138.647 3.93305 139.335 4.23546 140.142 4.28693C147.907 4.93739 155.241 6.62826 162.144 9.35955C163.078 9.9459 163.481 10.6839 163.354 11.5735V12.9543C163.354 12.9782 163.354 13.0029 163.354 13.0285V15.2367C163.331 16.7127 162.627 17.4354 161.243 17.405H157.18C156.123 17.5343 155.59 18.2571 155.582 19.5732V20.6574C155.704 22.2018 155.095 23.0197 153.756 23.111H148.849C147.29 22.9664 146.567 22.1105 146.681 20.5433V18.8657C146.665 18.6766 146.665 18.4749 146.681 18.2609V13.679C146.625 12.2986 145.903 11.5207 144.513 11.3452H134.927C133.821 11.3969 133.18 11.9161 133.004 12.903C133.007 12.9346 133.011 12.965 133.015 12.9943C133.157 14.0438 133.87 14.5212 135.155 14.4265H138.122C139.528 14.4645 140.327 15.2443 140.519 16.7659V22.2779C140.529 22.4725 140.529 22.657 140.519 22.8314V24.5603C140.61 26.3025 139.887 27.2269 138.35 27.3334H133.786C132.599 27.2801 131.99 26.3558 131.96 24.5603V22.8142C131.785 21.3763 131.1 20.5965 129.905 20.4748H124.998C123.766 20.6574 123.119 21.4981 123.058 22.9968V34.4088C123.048 35.9582 123.847 36.8331 125.455 37.0335H132.188C133.692 36.7915 134.453 35.9547 134.47 34.5229C134.347 32.7263 134.956 31.6612 136.296 31.3276H145.083C146.974 31.1923 148.039 32.2955 148.279 34.637V45.718V48.0004C148.187 49.9785 147.312 51.0436 145.654 51.1958H135.497C133.893 51.3004 133.056 52.4283 132.987 54.5794V75.5032V77.7856C132.857 79.467 132.059 80.3419 130.59 80.4104H127.395C125.881 80.1365 125.12 79.2616 125.112 77.7856V75.5774V72.5076C125.06 70.9931 124.185 70.1657 122.488 70.0255H109.478C108.223 70.1472 107.538 70.9841 107.424 72.5361V75.8456C107.469 77.8941 108.724 78.8831 111.19 78.8127H117.352C119.955 79.1772 121.248 80.851 121.232 83.834V89.1976C121.094 92.2713 123.262 93.6788 127.737 93.42H153.414C157.631 93.5059 159.765 95.5258 159.816 99.4798C159.873 102.238 161.243 103.683 163.924 103.816H168.261C170.93 103.768 172.379 105.327 172.609 108.495V123.913V126.195C172.487 128.303 171.342 129.402 169.174 129.493H164.609C162.297 129.769 161.042 130.891 160.843 132.86V145.47V147.752C160.737 151.381 159.021 153.397 155.696 153.801H141.203C138.617 153.74 137.285 155.071 137.209 157.795V162.017C137.248 162.626 136.681 162.917 135.509 162.89C134.594 162.917 133.673 162.93 132.747 162.93C131.373 162.93 130.011 162.9 128.662 162.839C127.79 162.934 127.292 162.641 127.167 161.96V148.894C127.426 146.768 128.529 145.627 130.476 145.47C132.174 145.485 133.011 144.268 132.987 141.818V135.199C132.774 133 131.785 131.707 130.02 131.319H122.739C119.155 130.71 117.398 128.801 117.466 125.59V123.645C117.464 123.534 117.464 123.422 117.466 123.308V105.517C117.487 104.679 117.647 103.981 117.946 103.423C116.204 102.625 115.207 101.082 114.956 98.7951V96.5127V91.3659C114.826 88.4216 113.381 87.0902 110.619 87.3717H100.805C98.4008 87.2347 97.1455 86.0935 97.039 83.9481H92.5884C90.7701 83.3623 89.8533 82.0309 89.8381 79.9539V77.8142C89.8383 77.7668 89.8383 77.7193 89.8381 77.6715V71.937C89.7928 70.0967 89.032 69.1171 87.5557 68.9984H79.1108C76.9578 68.9832 75.8166 67.9561 75.6873 65.9172V63.6348V58.4937C75.6473 56.793 74.9246 55.7678 73.519 55.4182H69.4107C67.387 55.1291 66.3599 53.9879 66.3294 51.9946V49.7864ZM66.3294 49.7864C66.3833 51.7365 67.4104 52.853 69.4107 53.1358H73.519C74.9897 53.4997 75.7125 54.6029 75.6873 56.4453V58.4937M146.681 18.8657C146.78 20.0469 147.503 20.7012 148.849 20.8286H153.756C155.095 20.7402 155.703 19.9224 155.582 18.375V17.2909C155.593 15.9713 156.125 15.2486 157.18 15.1226H161.243C162.602 15.1531 163.306 14.455 163.354 13.0285M146.681 13.679V11.7561C146.739 10.1484 146.016 9.25063 144.513 9.06284H134.927C133.784 9.11806 133.137 9.66963 132.987 10.7176V12.612C132.988 12.7136 132.993 12.8106 133.004 12.903M123.058 22.9968V20.7144C123.119 19.215 123.766 18.3743 124.998 18.1924H129.905C131.1 18.3171 131.784 19.097 131.96 20.5319V22.2779C131.986 24.0749 132.595 24.9993 133.786 25.051H138.35C139.715 24.9532 140.438 24.2133 140.519 22.8314M132.987 54.5794V52.9076C132.913 50.3621 133.75 49.0307 135.497 48.9134H145.654C147.311 48.7613 148.186 47.6961 148.279 45.718M180.244 33.5529V30.8711C180.338 29.8732 180.909 29.2835 181.955 29.1022H184.637C185.657 29.2192 186.209 28.8007 186.292 27.8469V26.8997C186.326 25.6724 186.796 25.389 187.701 26.0495C188.117 26.4484 188.529 26.8535 188.939 27.2649C190.201 28.5262 191.41 29.8081 192.569 31.1107C193.182 31.8944 193.506 32.678 193.539 33.4616V38.1006V40.2403C193.539 41.838 192.759 42.6558 191.199 42.6939H188.004C186.855 42.7623 186.341 41.9065 186.463 40.1262C186.592 38.5437 186.003 37.7449 184.694 37.7297H182.07C180.951 37.7525 180.342 37.121 180.244 35.8353V33.5529ZM180.244 33.5529C180.341 34.8421 180.949 35.4735 182.07 35.4473H184.694C186 35.4589 186.589 36.2577 186.463 37.8438C186.339 39.6208 186.853 40.4767 188.004 40.4115H191.199C192.709 40.3722 193.489 39.6019 193.539 38.1006M207.889 57.6664C207.912 57.5841 207.926 57.4947 207.929 57.3982V57.3697C207.929 57.3617 207.929 57.3541 207.929 57.3468C207.93 57.1239 207.883 56.8672 207.786 56.5765C206.532 53.0291 205.01 49.5922 203.222 46.2658C202.56 45.0852 201.611 44.4804 200.374 44.4513H196.334C194.75 44.5598 193.913 45.4157 193.824 47.019V48.1602C193.894 49.7359 193.229 50.6488 191.827 50.8991H188.631C186.925 50.9233 186.088 51.8172 186.121 53.5809V60.6106C186.152 62.3465 187.122 63.2024 189.031 63.1783H196.392C197.994 63.183 198.736 62.3271 198.617 60.6106C198.59 59.2294 199.217 58.5028 200.5 58.431H206.731C207.385 58.3638 207.771 58.109 207.889 57.6664ZM207.889 57.6664C207.841 58.5348 207.678 59.2689 207.398 59.8689C207.119 60.4698 206.391 60.7513 205.213 60.7133H200.5C199.214 60.7818 198.586 61.5084 198.617 62.893C198.739 64.6124 197.997 65.4683 196.392 65.4607H189.031C187.121 65.4836 186.151 64.6277 186.121 62.893V60.6106M82.7512 35.9494C82.6845 35.8037 82.6541 35.6325 82.66 35.4359C82.5915 34.6294 83.1012 34.1768 84.1892 34.0779H90.0777C91.0913 34.174 91.563 34.6267 91.4928 35.4359C91.4976 35.6225 91.4672 35.786 91.4015 35.9266C91.1956 36.3625 90.6516 36.5832 89.7696 36.5885H84.2462C83.4451 36.5828 82.9468 36.3698 82.7512 35.9494ZM82.7512 35.9494C82.9461 35.5319 83.4255 35.2885 84.1892 35.219H90.0777C90.7751 35.2872 91.2163 35.5231 91.4015 35.9266M89.3188 41.838C89.1923 41.5848 89.1372 41.2805 89.1534 40.925C89.0925 39.7077 89.8191 39.0611 91.333 38.985H102.06C103.56 39.064 104.279 39.7106 104.217 40.925C104.233 41.2704 104.182 41.5671 104.063 41.8152C103.78 42.4066 103.113 42.7185 102.06 42.7509H91.3102C90.2715 42.7191 89.6077 42.4148 89.3188 41.838ZM89.3188 41.838C89.6308 41.2073 90.3782 40.8649 91.5613 40.8109H102.06C103.112 40.8643 103.78 41.1991 104.063 41.8152M107.424 72.5361V70.2537C107.536 68.7013 108.221 67.8644 109.478 67.7431H122.488C124.236 67.8903 125.111 68.7652 125.112 70.3679V72.5076M89.8381 77.8142C89.8987 79.8122 90.8155 81.0961 92.5884 81.6657H97.039C97.1459 83.8117 98.4013 84.9529 100.805 85.0893H110.619C113.383 84.8093 114.829 86.1407 114.956 89.0835V91.3659M125.112 75.5774C125.144 77.0104 125.905 77.8606 127.395 78.128H130.59C132.06 78.0587 132.859 77.1838 132.987 75.5032M89.8381 71.937V69.7973C89.829 67.8682 89.0682 66.8411 87.5557 66.716H79.1108C76.9552 66.7034 75.814 65.6763 75.6873 63.6348M61.9473 120.056C61.4984 119.115 61.8008 118.55 62.8545 118.361C63.1565 118.957 63.4665 119.548 63.7846 120.135H78.5402C81.9696 120.433 83.7955 122.601 84.018 126.64V132.689C83.8492 134.89 84.9942 136.069 87.453 136.226H91.333C94.3876 136.926 96.0614 139.133 96.3543 142.845V152.568C96.3875 153.624 95.9691 154.003 95.099 153.704C89.3707 150.577 83.9728 146.657 78.9054 141.944C78.1066 141.198 77.3192 140.437 76.5431 139.661C70.5195 133.638 65.6675 127.129 61.9872 120.135C61.973 120.108 61.9596 120.082 61.9473 120.056ZM61.9473 120.056C61.9612 120.082 61.9764 120.108 61.9929 120.135H61.9872M117.946 103.423C118.466 102.446 119.409 101.892 120.776 101.762C117.26 101.588 115.32 99.8386 114.956 96.5127M132.987 135.199V132.917C132.774 130.718 131.785 129.424 130.02 129.037H122.739C119.288 128.449 117.53 126.651 117.466 123.645M172.609 123.913C172.486 126.022 171.341 127.122 169.174 127.211H164.609C161.86 127.538 160.605 129.059 160.843 131.776V132.86M160.843 145.47C160.733 149.101 159.018 151.117 155.696 151.518H141.203C138.62 151.459 137.288 152.79 137.209 155.512V157.795" stroke="#002140" stroke-width="0.999" stroke-linecap="round" stroke-linejoin="round"/>
<path d="M189.476 138.634C189.43 137.554 188.821 136.995 187.65 136.957H183.838C182.659 136.995 182.05 137.554 182.012 138.634C181.959 139.715 182.606 140.259 183.952 140.266H187.524C188.871 140.259 189.521 139.715 189.476 138.634ZM165.978 138.452L159.519 138.429C157.29 138.513 156.134 139.509 156.05 141.419C155.966 143.328 157.218 144.279 159.804 144.272L163.411 144.215C165.046 144.306 166.199 145.185 166.868 146.851C167.538 148.509 168.691 149.4 170.326 149.521L177.847 149.567C180.768 149.62 182.164 147.684 182.035 143.758H172.894C171.258 143.636 170.106 142.746 169.436 141.088C168.767 139.422 167.614 138.543 165.978 138.452ZM151.839 86.9153C151.793 85.7132 151.116 85.0894 149.808 85.0437H145.562C144.254 85.0894 143.577 85.7132 143.531 86.9153C143.478 88.1173 144.201 88.7222 145.699 88.7298H149.671C151.169 88.7222 151.892 88.1173 151.839 86.9153ZM177.333 76.7016C179.92 76.7092 181.171 75.7582 181.088 73.8486C181.004 71.939 179.848 70.9423 177.619 70.8586L163.171 70.8815C161.535 70.9728 160.383 71.8515 159.713 73.5176C159.044 75.1762 157.891 76.0663 156.255 76.188L151.2 76.1652C148.971 76.2489 147.814 77.2455 147.731 79.1551C147.647 81.0647 148.898 82.0157 151.485 82.0081L158.823 81.9511C160.459 81.8293 161.611 80.9392 162.281 79.2807C162.95 77.6145 164.103 76.7358 165.739 76.6445L177.333 76.7016ZM104.605 117.693H99.789C98.4804 117.739 97.8033 118.363 97.7576 119.565C97.7044 120.767 98.4271 121.372 99.9259 121.379H104.468C105.967 121.372 106.689 120.767 106.636 119.565C106.591 118.363 105.913 117.739 104.605 117.693ZM83.3558 105.494L81.5413 102.721C80.4583 100.952 78.9633 100.138 77.0564 100.279H58.9114C57.326 100.179 56.3864 99.4296 56.0926 98.0305C55.6309 95.4067 55.2962 92.7249 55.0884 89.9851C51.5154 90.8792 49.7047 93.5915 49.6562 98.1218C49.7171 103.704 52.5396 106.515 58.1239 106.555H74.3746C76.1012 106.74 77.4555 107.516 78.4372 108.883L80.5142 112.056C81.6532 113.753 83.152 114.582 85.0105 114.544H100.793C103.339 114.54 104.571 113.513 104.491 111.462C104.41 109.412 103.253 108.347 101.021 108.267H88.1488C86.2583 108.294 84.6606 107.37 83.3558 105.494Z" fill="#FFFAF0"/>
<path d="M101.021 108.267C103.253 108.347 104.41 109.412 104.491 111.462C104.571 113.513 103.339 114.54 100.793 114.544H85.0105C83.152 114.582 81.6551 113.753 80.5199 112.056L78.4429 108.889C77.4574 107.518 76.1012 106.74 74.3746 106.555H58.1296C52.5415 106.515 49.7171 103.704 49.6562 98.1218C49.7047 93.5915 51.5173 90.8811 55.0941 89.9908C55.2981 92.7268 55.6329 95.4086 56.0983 98.0362C56.3883 99.4315 57.326 100.179 58.9114 100.279H77.0564C78.9633 100.138 80.4602 100.954 81.547 102.727L83.3558 105.494C84.6606 107.37 86.2583 108.294 88.1488 108.267H101.021ZM104.605 117.693C105.913 117.739 106.591 118.363 106.636 119.565C106.689 120.767 105.967 121.372 104.468 121.379H99.9259C98.4271 121.372 97.7044 120.767 97.7576 119.565C97.8033 118.363 98.4804 117.739 99.789 117.693H104.605ZM165.739 76.6445L177.333 76.7016C179.92 76.7092 181.171 75.7582 181.088 73.8486C181.004 71.939 179.848 70.9423 177.619 70.8586L163.171 70.8815C161.535 70.9728 160.383 71.8515 159.713 73.5176C159.044 75.1762 157.891 76.0663 156.255 76.188L151.2 76.1652C148.971 76.2489 147.814 77.2455 147.731 79.1551C147.647 81.0647 148.898 82.0157 151.485 82.0081L158.823 81.9511C160.459 81.8293 161.611 80.9392 162.281 79.2807C162.95 77.6145 164.103 76.7358 165.739 76.6445ZM149.808 85.0437C151.116 85.0894 151.793 85.7132 151.839 86.9153C151.892 88.1173 151.169 88.7222 149.671 88.7298H145.699C144.201 88.7222 143.478 88.1173 143.531 86.9153C143.577 85.7132 144.254 85.0894 145.562 85.0437H149.808ZM170.326 149.521C168.691 149.4 167.538 148.509 166.868 146.851C166.199 145.185 165.046 144.306 163.411 144.215L159.804 144.272C157.218 144.279 155.966 143.328 156.05 141.419C156.134 139.509 157.29 138.513 159.519 138.429L165.978 138.452C167.614 138.543 168.767 139.422 169.436 141.088C170.106 142.746 171.258 143.636 172.894 143.758H182.035C182.164 147.684 180.768 149.62 177.847 149.567L170.326 149.521ZM187.65 136.957C188.821 136.995 189.43 137.554 189.476 138.634C189.521 139.715 188.871 140.259 187.524 140.266H183.952C182.606 140.259 181.959 139.715 182.012 138.634C182.05 137.554 182.659 136.995 183.838 136.957H187.65Z" stroke="#002140" stroke-width="0.999" stroke-linecap="round" stroke-linejoin="round"/>
</g>
<path d="M227.389 118.138L182.042 105.988L177.875 121.538C177.875 121.538 173.251 140.549 196.979 146.752C212.53 150.918 222.23 138.564 223.932 132.79C225.634 127.016 227.389 118.138 227.389 118.138V118.138Z" fill="#4ED7DE"/>
<path d="M186.588 107.051L182.08 105.843L177.757 121.976C177.757 121.976 174.788 140.031 193.276 145.45C193.276 145.45 179.172 137.619 182.633 120.635C184.542 111.179 186.583 107.05 186.583 107.05L186.588 107.051Z" fill="#4BA6A6"/>
<path d="M205.05 116.05C205.05 116.05 208.313 119.572 207.612 122.187C206.912 124.802 204.311 127.533 203.216 127.554L201.814 141.512L205.313 141.825L206.937 127.616C206.937 127.616 211.047 126.225 211.208 123.31C211.369 120.395 210.268 116.358 205.053 116.055L205.05 116.05Z" fill="#D18000"/>
<path d="M203.212 127.553C203.212 127.553 206.76 125.752 207.514 122.94C208.267 120.128 206.257 116.786 204.123 116.214C201.99 115.643 199.639 118.863 199.469 119.639C199.293 120.418 199.509 124.532 200.77 126.011L194.443 139.166C194.443 139.166 200.11 142.037 201.812 141.502L203.214 127.544L203.212 127.553Z" fill="#002140"/>
<path d="M194.91 109.126L195.325 106.279C195.325 106.279 196.006 105.682 193.742 105.076C191.477 104.469 187.557 103.573 187.557 103.573C187.557 103.573 186.226 103.372 185.954 104.388L185.369 106.569L194.91 109.126Z" fill="#D18000"/>
<path d="M225.044 117.2L225.459 114.353C225.459 114.353 226.14 113.757 223.876 113.15C221.611 112.543 217.691 111.648 217.691 111.648C217.691 111.648 216.36 111.446 216.088 112.462L215.503 114.644L225.048 117.201L225.044 117.2Z" fill="#D18000"/>
<path d="M225.153 112.919L226.991 104.623C226.991 104.623 227.785 87.9756 212.49 84.3939C197.199 80.8178 189.931 94.4529 189.931 94.4529L186.732 102.835L194.979 104.839L196.914 97.7748C196.914 97.7748 201.727 89.942 210.467 92.1714C219.208 94.4008 218.593 103.687 218.593 103.687L217.588 111.31L225.152 112.923L225.153 112.919Z" fill="#E4BC07"/>
<path d="M227.777 118.125L224.147 131.674C221.065 143.177 209.24 150.004 197.737 146.922C186.234 143.84 179.406 132.015 182.489 120.511L186.119 106.963L227.777 118.125V118.125Z" stroke="#002140" stroke-linecap="round" stroke-linejoin="round"/>
<path d="M198.756 147.195C180.139 142.207 175.398 130.941 178.481 119.433L182.111 105.884L187.39 107.299" stroke="#002140" stroke-linecap="round" stroke-linejoin="round"/>
<path d="M211.05 123.568C211.92 120.322 209.992 116.984 206.747 116.114C203.501 115.245 200.163 117.172 199.293 120.418C198.719 122.56 199.366 124.734 200.799 126.221L194.274 138.867C194.274 138.867 198.472 143.142 205.265 141.812L206.374 127.949C208.564 127.503 210.428 125.871 211.047 123.563L211.05 123.568Z" stroke="#002140" stroke-linecap="round" stroke-linejoin="round"/>
<path d="M201.681 141.401L202.79 127.538C204.98 127.092 206.844 125.46 207.463 123.152C208.225 120.309 206.845 117.399 204.311 116.133" stroke="#002140" stroke-linecap="round" stroke-linejoin="round"/>
<path d="M185.205 106.413L185.781 104.262C185.974 103.543 186.799 103.145 187.627 103.367L194.364 105.172C195.192 105.394 195.706 106.156 195.515 106.87L194.939 109.021" stroke="#002140" stroke-linecap="round" stroke-linejoin="round"/>
<path d="M215.338 114.487L215.914 112.336C216.107 111.618 216.932 111.219 217.76 111.441L224.497 113.246C225.325 113.468 225.839 114.23 225.648 114.944L225.071 117.095" stroke="#002140" stroke-linecap="round" stroke-linejoin="round"/>
<path d="M194.851 105.302L196.277 99.9799C197.939 93.7771 204.314 90.1001 210.512 91.761C216.715 93.423 220.392 99.7981 218.731 105.996L217.318 111.271" stroke="#002140" stroke-linecap="round" stroke-linejoin="round"/>
<path d="M225.041 113.335L226.359 108.416C229.163 97.9511 222.955 87.1982 212.49 84.3941C202.029 81.5912 191.276 87.7995 188.472 98.2644L187.14 103.236" stroke="#002140" stroke-linecap="round" stroke-linejoin="round"/>
<defs>
<clipPath id="clip0_1223_15347">
<rect width="164" height="164" fill="white" transform="translate(49)"/>
</clipPath>
</defs>
</svg>
