<?xml version="1.0" encoding="utf-8"?>
<!-- Generator: Adobe Illustrator 28.3.0, SVG Export Plug-In . SVG Version: 6.00 Build 0)  -->
<svg version="1.1" id="Layer_1" xmlns="http://www.w3.org/2000/svg" xmlns:xlink="http://www.w3.org/1999/xlink" x="0px" y="0px"
	 viewBox="0 0 180 112" style="enable-background:new 0 0 180 112;" xml:space="preserve">
<style type="text/css">
	.st0{fill:#FFD7B0;}
	.st1{fill:#FFC68C;}
	.st2{fill:#FFA75A;}
	.st3{fill:#FFED8F;}
	.st4{fill:#FFFAF0;}
	.st5{fill:#FFF2B2;}
	.st6{fill:#002140;}
	.st7{fill:none;stroke:#002140;stroke-linecap:round;stroke-linejoin:round;}
</style>
<path class="st0" d="M50.8,17.1c0,0-6,0.3-8.1,4.3C40.6,25.4,20.4,81,20.4,81l-7.8,21.2c0,0-3.2,6.2-5,6.9h127.6l13.9-4.9l4.7-12.7
	l16.2-46.7c0,0,1.4-1.7,0.4-2.9c-1-1.2-7.2-14.2-7.2-14.2l-28.6-0.3l2.1-5.8c0,0,0.1-4.6-4.7-4.9C126.9,16.7,50.8,17.1,50.8,17.1
	L50.8,17.1z"/>
<path class="st1" d="M14.1,99.1l-2.1,5.3l-4.1,4.9l131.8,0.3c0,0,10.6-2.2,10.8-10L14.1,99.1z"/>
<path class="st2" d="M72.7,13.7l-47.3-0.2c0,0-4.8-0.1-4.6,5l0.2,5.1l20.8-0.7c0,0,4.6-4.9,5.5-5.2c0.9-0.3,25.4-0.7,25.4-0.7
	L72.7,13.7L72.7,13.7z"/>
<path class="st3" d="M18.1,38.1c0,0-1.5-5.5-5.1-11.1c0,0,3.3-3.6,13.3-4.3c10-0.7,16,0.3,16,0.3l-7.5,19.8L24.7,69l-3.6-23.6
	L18.1,38.1L18.1,38.1z"/>
<path class="st4" d="M136.9,20.2l-0.6,2.7l-14.3,45.8l4.6-2.9l2,5.1l4.1-3.6l1.8,4.9l3.7-3.5c0,0,1.7,4.7,1.5,4.8
	c-0.2,0.1,4.7-3.7,4.7-3.7l1.5,5.9l4.5-4.5l1.6,6c0,0,4.5-4.3,4.3-4.2c-0.2,0.1,1.4,6,1.4,6l17.6-50.7c0,0,3.3-7.6-5.5-7.7
	C161.2,20.4,136.9,20.2,136.9,20.2L136.9,20.2z"/>
<path class="st5" d="M72.7,17h43.9c0,0,1.3-9.4,3.3-13.8c0,0-5.2,1-8.4,3.5l-3.2-4.5l-6.4,5l-5.4-4.4l-5.4,4l-4.4-3.9l-5.2,4.4
	l-4.9-4C76.6,3.3,73.7,6.4,72.7,17L72.7,17z"/>
<path class="st6" d="M12.4,102.9c0,0-5.6,0.7-5.7-6.5c0,0-5.3,6.9-2.7,11.8C8,112,12.4,105,12.4,102.9L12.4,102.9z"/>
<path class="st2" d="M8.8,91.8c0,0-3.5,6.4-0.9,9c2.7,2.5,4.5,2.1,4.5,2.1L24.7,70c0,0-1.9-15.3-2.5-16.7
	C22.1,53.3,18.7,77.7,8.8,91.8L8.8,91.8z"/>
<path class="st7" d="M12.5,102.6c0,0-2,6.6-5.6,6.6c-3.9-0.1-4.6-3.9-3-7.8C6.1,94.7,21,73.7,22.2,52.1"/>
<path class="st7" d="M8,93.1c0,0-4.6,9.2,4.5,9.5c0,0,26.2-70.7,29.2-79c2.4-6.9,9-6.6,9-6.6h81c6.3,0,5,5,5,5l-2,5.6"/>
<path class="st7" d="M6.9,109.3h132c0,0,8.3-0.3,11.3-8c3-7.6,23.4-67.6,25.1-72s1.1-9-6-9c-6.2-0.2-32.5,0-32.5,0"/>
<path class="st7" d="M20.9,23.6c-0.1-0.7-0.1-1.3-0.2-1.9c0,0-1.5-8.2,4.9-8.2c5.8,0,24.3,0.2,24.3,0.2h22.8"/>
<path class="st7" d="M13.8,99.3h136.9"/>
<path class="st7" d="M41.7,22.9c0,0-17.1-3-29,4.1c0,0,9.8,14,12,42.7"/>
<path class="st7" d="M23.9,28.5c0,0,8.8-2.7,16.1-1"/>
<path class="st7" d="M24.7,33.3c0,0,7.2-2.2,13.9-1.4"/>
<path class="st7" d="M25.9,38c0,0,5.2-1.6,10.9-1.5"/>
<path class="st7" d="M26.9,42.7c0,0,3.6-1.1,8.1-1.4"/>
<path class="st7" d="M28.1,47.4c0,0,2.1-0.6,5.1-1.1"/>
<path class="st7" d="M29.1,51.8c0,0,0.9-0.3,2.4-0.6"/>
<path class="st7" d="M134.6,27.7L122,68.4"/>
<path class="st7" d="M158,79.2l-1.7-6.2l-4.1,4.5l-1.6-6.1l-4.8,4.4l-1.3-6.1l-4.9,4.1l-1-5.4l-4,3.7l-1.8-5.1l-4.3,4.2l-1.8-5.6
	l-4.8,3"/>
<path class="st7" d="M72.7,17c0,0,0.3-8.6,3.8-14l5,4.3l5.1-4.7L91.1,7l5.3-4.6l5.1,4.8c0,0,6.5-5.5,6.8-5.2c0.2,0.3,3,4.6,3,4.6
	s4.6-3.5,9-3.5"/>
<path class="st7" d="M116.5,17c0,0,0.3-8.6,3.8-14"/>
<path class="st7" d="M79.8,10.4h21.5"/>
<path class="st7" d="M79.1,14.1H109"/>
<path class="st7" d="M131.3,59.1l25,6"/>
<path class="st7" d="M134.4,49.3l25,6"/>
<path class="st7" d="M137.3,42.3l23.4,5.5"/>
<path class="st7" d="M138.8,36.7l23.4,5.5"/>
<path class="st7" d="M140.5,31.2l23.4,5.5"/>
</svg>
