<svg xmlns="http://www.w3.org/2000/svg" xml:space="preserve" id="Layer_1" x="0" y="0" viewBox="0 0 191 172"><style>.st0{fill:#0164bf}.st1{fill:#4ed7de}.st2{fill:#b0d9ff}.st3{fill:#fff2b2}.st4{fill:#fee45e}.st5{fill:#ff7101}.st6{fill:#f25730}.st7{fill:#ffc68c}.st8{fill:#ffa75a}.st9{fill:#03d47c}.st10{fill:#002140}.st11{fill:#008c59}.st12,.st13{fill:none;stroke:#002140;stroke-linecap:round;stroke-linejoin:round}.st13{stroke:#fff2b2}.st14{fill:#99f6ff}.st15{fill:#4ba6a6}.st16{fill:#0185ff}.st17{fill:#0676de}.st18{fill:#5ab0ff}.st19{fill:#fed607}.st20{fill:#5be3aa}.st21{fill:#e3a171}.st22{fill:#fffaf0}.st23{fill:#e4bc07}</style><path d="M39.5 9.5h-1.3c-12.4 0-22.5 10.2-22.5 22.7v66c0 12.5 10.1 22.7 22.5 22.7h26.3c12.4 0 22.4-10.2 22.4-22.7V30.8C86.2 18.9 76.4 9.5 64.5 9.5zm57.1 22.3v66.9c0 17.1-13.7 30.9-30.6 30.9H36.6C19.7 129.6 6 115.7 6 98.7V31.8C6 14.7 19.7.8 36.6.8h29.5c16.9 0 30.5 13.9 30.5 31" class="st0"/><path d="M43.6 94.1h.4c1.2 0 1.4.8 3.1.8 1.6 0 1.4-.9 3.3-.9.8 0 1.3.2 1.8.4l.8-.1 1.3-2.1h-2v-2.4l-1.8-2.4h-2.7v1.8h-2.4v1.1h-4.2s2.2 3.4 2.4 3.6zm22.7-19.3h-1.9v-.3c0-.9-.3-1.6-.7-2h23.2v25.7c0 12.5-10 22.7-22.4 22.7H41.3v-.1c-12.4 0-22.5-10.2-22.5-22.7v-9.5h18.8c3 0 2.4-3.6.1-3.6H61c3 0 2.7-3.4.3-3.4h8.4c2.7 0 2.9-3.4-.1-3.4h-1.1V78c.1.1.5-3.2-2.2-3.2" class="st1"/><path d="M86.9 33.9v38.6H63.7c-.5-.5-1.2-.8-2-.8h-.1v-3.9c1 0 1.7-.3 1.7-2v-2.7c0-1.1-.7-1.5-1.8-1.5h-1v-.2s-.1-.8-.1-1.6c0-1.5-1-2-2.2-2h-.3v-5.2L56 49.4l.2-.1c1.6 0 1.5-1.9.3-1.9s-1.4-.1-3.3 0c-1.4.1-1.4 1.9.1 1.9l.2.2-2.1 3.2V56h-1.9v-6c0-.7-.4-1.3-1-1.6h.1v-4.6c0-.9-.4-1.5-.9-1.8v-2.7c0-1.3-2.9-1.1-2.9 0v2.5l.1.1c-.6.3-1 .9-1 1.6V48l.1.3c-.6.3-1 .8-1 1.5v2.7c0-1.2-.7-1.9-1.7-1.8s-1.6.9-1.6 2v3H38v-4.2h-.1l1.3-2.8h-1.6v-.1l-2-3.8h-1.8s-2 3.4-2.2 3.6v.3h-1.9l1.3 2.8v7h-3.7s-3-8.7-3.5-9.8-1.1-1.3-2-1.4h-3V32.1c0-1 .1-2 .2-3h3.8c2.2 0 2.2 2.5 4.2 2.5h9.3c2.5 0 2.1-2.8.3-2.8h-8.5c-1.3 0-1.9-2.5-3.7-2.5h-4.8C22 17.1 29.9 10.2 39.5 9.5h25c11.9 0 21.7 9.4 22.4 21.3h-7.1c-2.2 0-2.4 3.1.1 3.1zm-7.7-7.5c2.5 0 2.1-3 .3-3h-4.6c-1.3 0-1.8-2.7-4.3-2.7-.8 0-5.1-.1-6.9-.1-2.2 0-2.9 3.4-4.5 3.4-2.5 0-5-.1-5-.1-2 0-2.2 3 .1 3h5.5c2.6 0 2.5-3.4 5.1-3.4h4.7c2.2 0 2.3 2.6 4.2 2.6h5.4zm-6 19.1c1.6 0 1.7-2.2-.1-2.2H68c-1.3 0-1.9 2.2 0 2.2zm-10.6-7.9c2.1 0 2.3-3.1-.1-3.1h-6.9c-2.2 0-2.4 3.1.1 3.1zm-4.1-21.2c2 0 2-3.1-.1-3.1h-8c-2.2 0-3.9 3-5.4 3h-8.9c-2.2 0-2.4 3.1.1 3.1H46c2.4 0 2.9-3 5.5-3zm-2.1 30.8v-1.5h-3.1v1.5zm-.7-1.6v-1.4H54v1.4zm-20-4.3 1.5-2.2h-4.7s1.2 1.9 1.3 2.2v.1c-.1.1-.2.1-.3.2-.7.7-.7 1.8 0 2.5s1.8.7 2.5 0 .7-1.8 0-2.5q-.15 0-.3-.3m-7.2 1.9c1.6 0 1.7-1.9-.1-1.9h-5c-1.3 0-1.8 1.9 0 1.9z" class="st2"/><path d="M86.9 32.2v1.7h-7c-2.5 0-2.3-3.1-.1-3.1h7.1zm-7.3-8.8c1.8 0 2.2 3-.3 3h-5.4c-2 0-2-2.6-4.2-2.6H65c-2.6 0-2.6 3.4-5.1 3.4h-5.5c-2.3 0-2.2-3-.1-3 0 0 2.5.1 5 .1 1.6 0 2.4-3.4 4.5-3.4 1.8 0 6.1.1 6.9.1 2.5 0 3 2.7 4.3 2.7 1.3-.2 4.6-.3 4.6-.3m-6.5 19.9c1.8 0 1.7 2.2.1 2.2H68c-1.9 0-1.3-2.2 0-2.2z" class="st3"/><path d="M48.8 78.3h20.9c3 0 2.9 3.4.1 3.4h-8.4c2.4 0 2.7 3.4-.3 3.4H37.8c2.2 0 2.9 3.6-.1 3.6H18.8v-7.2h18.5s.4-.8 0-1.7c-.5-.9-1.6-.5-1.7-.5 0 0 .1-.6 0-1.1h13.2z" class="st4"/><path d="M66.3 74.8c2.7 0 2.3 3.2 2.3 3.2v.2h-4.3V78s-.1-.6 0-1.2c.1-.8.6-1.9 2-2" class="st5"/><path d="M64.4 74.8h1.9c-1.4.1-1.9 1.2-2 2.1h-3.6c0-.2-.2-.5-.4-.7-.6-.7-1-.2-1.1-.1 0-.1.6-1.3-.5-2.1-.3-.2-.5-.2-.8-.2v-4h2.2v5.1h4.3z" class="st6"/><path d="M63.7 72.5c.4.5.7 1.1.7 2v.3h-2.8v-3.1h.1c.8 0 1.5.3 2 .8" class="st7"/><path d="M64.2 76.9h.1c-.1.7 0 1.2 0 1.2v.2h-4.1v-.2s.6-.5.5-1.2z" class="st5"/><path d="M63.3 63.2v2.7c0 1.6-.7 2-1.7 2h-1.7v-3.2c0-.5-.6-.5-1.8-.5h-.2v-2.4h3.6c1.1-.1 1.8.4 1.8 1.4" class="st8"/><path d="M62.5 34.5c2.4 0 2.2 3.1.1 3.1h-6.8c-2.5 0-2.3-3.1-.1-3.1z" class="st3"/><path d="M61.6 71.7v3.1h-1.5v-5.1h-2.2v-1.9h3.7z" class="st5"/><path d="M30.9 71.3v.2zm11.7-1.9v.3c-.1 0 0-.1 0-.3m0 0c.1-.6.5-1.8 1.8-1.8.7 0 1.1.2 1.3.5.3.4.3 1 .3 1s.5-1.2 1.8-1.2h.3c1.5.1.7 1.8.7 1.8s.5-.6 1.2-.8c.3-.1.6 0 1 .2.4.3.6.7.7 1.1.1.6 0 1.2 0 1.2s.7-.5 1.5-.5c.2 0 .5.1.7.2 1.1.6.5 2 .5 2s.7-.8 1.5-.8c.2 0 .5.1.7.2 1.1.6.3 2.1.1 2.3.1-.2.7-.9 1.4-1 .2 0 .5 0 .8.2 1.1.8.5 2 .5 2.1 0-.1.5-.6 1.1.1.2.3.3.5.4.7.1.7-.5 1.2-.5 1.2v.2H35.6c-.1-.3-.3-.7-.7-.9-1-.5-2 .4-2 .4s.6-1.7-.5-2.3c-1-.6-1.9.4-1.9.4s.2-1.6-1.2-1.9c-1.3-.3-1.7.7-1.7.8 0-.1 0-1.5-1.3-1.6h-.4V73s-.3-1.1.7-1.5 1.8.9 1.8.9-.4-1.8.9-2.1c1.1-.2 1.5.5 1.6.9-.1-.4-.2-1.6 1-2 .1 0 .2-.1.4-.1 1.1-.2 1.6.6 1.7.8-.1-.3-.6-1.7.9-2.1s1.8.8 1.9 1c0-.3-.2-1.6 1.2-1.6 1.5 0 1.7 1.6 1.7 1.6s.4-1.8 1.9-1.4c1 .3 1 1.4 1 2" class="st9"/><path d="M60.5 61.5v.2h-2.6v-3.8h.3c1.2 0 2.2.5 2.2 2 .1.8.1 1.6.1 1.6" class="st7"/><path d="M59.9 67.7v.2h-2v-3.7h.2c1.2 0 1.8 0 1.8.5z" class="st5"/><path d="M58.4 13.3c2.2 0 2.1 3.1.1 3.1h-6.9c-2.6 0-3.1 3-5.5 3h-9.8c-2.5 0-2.3-3.1-.1-3.1h8.9c1.6 0 3.2-3 5.4-3z" class="st3"/><path d="M57.9 73.4v.3c-.7.1-1.2.8-1.4 1 .2-.3.9-1.7-.1-2.3-.2-.1-.5-.2-.7-.2l.3-.6V49.4v.1l1.9 3.4z" class="st5"/><path d="M56.6 47.4c1.1 0 1.3 1.9-.3 1.9l-.3.1v-.1h-2.3l-.1.1-.2-.2c-1.5 0-1.5-1.9-.1-1.9 1.8.1 2.1.1 3.3.1m-.2-1.7h-3.1v1.5h3.1z" class="st7"/><path d="M56 49.4v22.3l-.3.6c-.9 0-1.5.8-1.5.8s.6-1.4-.5-2c-.2-.1-.5-.2-.7-.2h.7V49.4z" class="st6"/><path d="M55.7 44.2H54v1.4h1.7z" class="st7"/><path d="M54.3 92.1 53 94.2l-.8.1c-.5-.2-1-.4-1.8-.4-1.8 0-1.7.9-3.3.9-1.7 0-1.9-.8-3.1-.8h-.4v-.1c-.1-.2-2.4-3.6-2.4-3.6h4.5l1.2 1.8z" class="st8"/><path d="M53.7 49.4v21.4H53c-.8 0-1.5.5-1.5.5s.2-.6 0-1.2h.1V52.7l2.1-3.2zM52.3 92v.1h-1.8v-4.7l1.8 2.4z" class="st5"/><path d="M51.6 56v14.1h-.1c-.1-.4-.3-.8-.7-1.1-.3-.2-.7-.2-1-.2l-.1-.4V56z" class="st8"/><path d="m50.5 92-2.7.1v-4.7h2.7z" class="st6"/><path d="m49.7 68.5.1.4c-.7.2-1.2.8-1.2.8s.8-1.7-.7-1.8h-.3v-9.6c0-2-2.4-1.9-2.4 0v6.9l-.7.1c-1-.1-1.4.7-1.4.7s.2-1-.2-1.6h.2V55h.3c1.1-1.3 5.2-1.3 6.1-.2h.1v13.7z" class="st5"/><path d="M49.7 51.6v3.2h-.1c-1-1.1-5-1.1-6.1.2h-.3v-3.4h.1c1.6-1.3 5.2-1.2 6.4 0" class="st5"/><path d="M49.7 49.9v1.7h-.1c-1.1-1.2-4.7-1.3-6.3 0h-.1v-1.8c0-.6.4-1.1 1-1.5 1.2-.7 3.3-.7 4.5 0 .6.4 1 .9 1 1.6" class="st5"/><path d="M48.8 43.7v4.6h-.1c-1.2-.7-3.3-.7-4.5 0l-.1-.3v-4.5c0-.7.4-1.3 1-1.6.8-.4 1.9-.5 2.7 0 .6.4 1 1 1 1.8" class="st8"/><path d="M47.9 39.3V42c-.8-.5-1.9-.4-2.7 0l-.2-.2v-2.5c0-1.1 2.9-1.3 2.9 0" class="st7"/><path d="M47.8 92v.2H47l-1.2-1.8h-.3v-1.1h2.4V92z" class="st5"/><path d="M47.6 58.3v9.6c-1.3.1-1.8 1.2-1.8 1.2s0-.6-.3-1c.1-.3.6-2.3-.6-2.7-.2-.1-.3-.1-.4-.1l.7-.1v-6.9c.1-1.9 2.4-2 2.4 0" class="st6"/><path d="M31.6 67.5c0-.1-.5-1.2.6-1.9 1.2-.7 2 .6 2 .6 0-.2-.2-1.8 1-2.1 1.2-.4 1.9 1.1 1.9 1.1s-.2-1.6 1.5-1.8c1.7-.1 1.9 1.8 1.9 1.8s.2-.8.7-1.2c.2-.1.3-.2.5-.3h.5c.4.1.6.3.7.6.4.7.2 1.6.2 1.6s.4-.8 1.4-.7c.1 0 .3 0 .4.1 1.2.4.7 2.4.6 2.7-.2-.3-.6-.5-1.3-.5-1.2.1-1.7 1.2-1.8 1.8.1-.6 0-1.7-1.2-2-1.6-.4-1.9 1.4-1.9 1.4s-.2-1.6-1.7-1.6c-1.3 0-1.2 1.3-1.2 1.6-.1-.3-.4-1.5-1.9-1s-1 1.9-.9 2.1c-.1-.2-.6-1-1.7-.8v-.2c.1-.2-.1-.7-.3-1.3" class="st9"/><path d="M43.2 55v9.3H43c-.1-.3-.4-.5-.7-.6h-.5l-.2-.1V52.9h1.6z" class="st8"/><path d="M43.1 52.4v.5h-3.4v-.3c0-1.1.6-2 1.6-2 1.1-.1 1.8.6 1.8 1.8" class="st7"/><path d="m41.6 63.7.2.1c-.2 0-.4.1-.5.3l-.2-.1c-.3-.7-.8-1.6-2.4-1.6H38v-6.6h1.8V53h1.8z" class="st8"/><path d="m41.3 120.9-3.1.1c-12.4 0-22.5-10.2-22.5-22.7v-66c0-12.5 10.1-22.7 22.5-22.7h1.3c-9.6.8-17.6 7.7-19.9 16.8-.2.9-.4 1.8-.5 2.8s-.2 2-.2 3v66c-.1 12.5 10 22.7 22.4 22.7" class="st10"/><path d="M33.7 60.6c.4.8.9 1.7.9 1.7h4.1c1.6 0 2.1.9 2.4 1.6l.1.1c-.5.4-.7 1.2-.7 1.2s-.1-1.9-1.9-1.8c-1.7.1-1.5 1.8-1.5 1.8s-.6-1.5-1.9-1.1c-1.2.4-1.1 2-1 2.1 0 0-.8-1.3-2-.6-1.1.7-.7 1.8-.6 1.9-.7-1.6-1.6-3.4-1.9-4.1-.6-1.2-1.1-1.2-2.2-1.2s-4-.1-5.5-.1c-1.6 0-1.7.5-2.2 1.5s-.8 1.8-.8 1.8h-.1V47.2h3c.9.1 1.5.3 2 1.4s3.5 9.8 3.5 9.8h3.7c1.1 0 1.8.2 2.3 1.3 0 .2.1.6.3.9" class="st11"/><path d="m39.2 48.7-1.3 2.8h-3.4v-.3s-.1-2.5 1.6-2.5z" class="st8"/><path d="M38 62.1v.2h-2.4V51.5H38zm-.4-13.5v.1h-1.5c-1.6 0-1.6 2.5-1.6 2.5h-.2s.1-2.5-1.6-2.5h-1.2v-.3c.2-.2 2.2-3.6 2.2-3.6h1.8z" class="st5"/><path d="M27.7 74.8c0-.1.4-1.1 1.7-.8 1.4.3 1.2 1.9 1.2 1.9s.9-1 1.9-.4c1.1.6.5 2.3.5 2.3s1-.9 2-.4c.4.2.6.5.7.9.1.5 0 1 0 1.1.1 0 1.2-.4 1.7.5s0 1.7 0 1.7H18.8V73h.4c1.6-.3 2.1 1.4 2.1 1.4S21.9 73 23 73c1.2 0 1.5 1.4 1.5 1.4s.3-1.1 1.4-1.2h.4c1.3.1 1.4 1.5 1.4 1.6" class="st9"/><path d="m37.2 39.2-1.5 2.2-.1.1c-.6-.3-1.3-.3-1.8.1v-.1c-.1-.3-1.3-2.2-1.3-2.2h4.7z" class="st5"/><path d="M36.6 28.8c1.8 0 2.2 2.8-.3 2.8H27c-1.9 0-2-2.5-4.2-2.5H19c.1-1 .3-1.9.5-2.8h4.8c1.8 0 2.4 2.5 3.7 2.5z" class="st3"/><path d="M36 41.7c.7.7.7 1.8 0 2.5s-1.8.7-2.5 0-.7-1.8 0-2.5c.1-.1.2-.2.3-.2.5-.4 1.2-.4 1.8-.1.2.1.3.2.4.3" class="st7"/><path d="M35.6 62.3h-1s-.5-.9-.8-1.7v-9.2h1.9v10.9z" class="st6"/><path d="M34.6 51.2v.3H31l-1.3-2.8h3.1c1.6 0 1.6 2.5 1.6 2.5z" class="st8"/><path d="M33.7 51.5v9.1c-.2-.4-.3-.7-.4-.9-.5-1.1-1.1-1.3-2.3-1.3v-7z" class="st5"/><path d="M32.2 69v.2c-.1 0-.2 0-.4.1-1.2.4-1.1 1.5-1 2-.1-.4-.5-1.1-1.6-.9-1.4.3-.9 2.1-.9 2.1s-.8-1.3-1.8-.9-.7 1.5-.7 1.5v.2c-1.1.1-1.4 1.2-1.4 1.2S24.2 73 23 73s-1.7 1.4-1.7 1.4-.5-1.7-2.1-1.4h-.4v-7.5h.1s.3-.8.8-1.8.6-1.5 2.2-1.5 4.4.1 5.5.1 1.6 0 2.2 1.2c.4.7 1.2 2.5 1.9 4.1.3.5.5 1 .7 1.4" class="st11"/><path d="M28.4 41.2c1.8 0 1.6 1.9.1 1.9h-5.1c-1.8 0-1.3-1.9 0-1.9z" class="st3"/><path d="M66.1 129.6H36.6C19.7 129.6 6 115.7 6 98.7V31.8C6 14.7 19.7.8 36.6.8h29.5C83 .8 96.7 14.6 96.7 31.7v66.9c-.1 17.1-13.7 31-30.6 31" class="st12"/><path d="M19.1 88.7h18.6c3 0 2.4-3.6.1-3.6h23.3c3 0 2.7-3.4.3-3.4h8.4c2.7 0 2.9-3.4-.1-3.4H36.1" class="st12"/><path d="M35.6 79.4c.1 0 1.2-.4 1.7.5s0 1.7 0 1.7H19.2" class="st12"/><path d="M27.7 74.8c0-.1.4-1.1 1.7-.8 1.4.3 1.2 1.9 1.2 1.9s.9-1 1.9-.4c1.1.6.5 2.3.5 2.3s1-.9 2-.4c.4.2.6.5.7.9.1.5 0 1 0 1.1M19.3 73c1.6-.3 2.1 1.4 2.1 1.4S21.9 73 23 73c1.2 0 1.5 1.4 1.5 1.4s.3-1.1 1.4-1.2h.4c1.3.1 1.3 1.5 1.3 1.6m-6.7 4.4v2.1m2-3v3.2m5.5-2.9V81M25 79.2v2.1m5.4-1.9v1.8m28.8-5.1c0-.1.5-.6 1.1.1.2.3.3.5.4.7.1.7-.5 1.2-.5 1.2" class="st12"/><path d="M56.5 74.8q0 0 0 0c.2-.2.7-1 1.4-1 .2 0 .5 0 .8.2 1.1.8.5 2 .5 2.1" class="st12"/><path d="M45.6 68.1c.3.4.3 1 .3 1s.5-1.2 1.8-1.2h.3c1.5.1.7 1.8.7 1.8s.5-.6 1.2-.8c.3-.1.6 0 1 .2.4.3.6.7.7 1.1.1.6 0 1.2 0 1.2s.7-.5 1.5-.5c.2 0 .5.1.7.2 1.1.6.5 2 .5 2s.7-.8 1.5-.8c.2 0 .5.1.7.2 1.1.6.3 2.1.1 2.3" class="st12"/><path d="M42.6 69.4c.1-.6.5-1.8 1.8-1.8.7 0 1.1.2 1.3.5m-3.2 1.6v-.3m.1 0v.3q0 0 0 0m0-.3" class="st12"/><path d="M36.6 68.9q0 0 0 0t0 0c0-.3-.2-1.7 1.2-1.7 1.5 0 1.7 1.6 1.7 1.6s.4-1.8 1.9-1.4c1.2.3 1.2 1.4 1.2 2" class="st12"/><path d="M33.9 70c-.1-.3-.6-1.7.9-2.1s1.8.8 1.9 1M33.9 70q0 0 0 0m0 0q0 0 0 0t0 0m0 0q0 0 0 0" class="st12"/><path d="M30.9 71.2c-.1-.4-.2-1.6 1-2 .1 0 .2-.1.4-.1 1.1-.2 1.6.6 1.7.8m-3.1 1.4v.2zm0 0s0-.1 0 0m-5 1.7s-.3-1.1.7-1.5 1.8.9 1.8.9-.4-1.8.9-2.1c1.1-.2 1.5.5 1.6.9m-12-5.7s.3-.8.8-1.8.6-1.5 2.2-1.5 4.4.1 5.5.1 1.6 0 2.2 1.2c.4.7 1.2 2.5 1.9 4.1.2.5.5 1 .7 1.5m2.7 5.8v2.3m2.7-1.4v2.3m3.1-3.1v3.3m2.2-2.5v2.3m5.9-3.1v3.3m2.2-2.5v2.3m3.7-1.8v1.9m-9.1-10.1c.1-.3.6-2.3-.6-2.7-.2-.1-.3-.1-.4-.1-1-.1-1.4.7-1.4.7s.2-1-.2-1.6c-.1-.3-.4-.5-.7-.6h-.5c-.2 0-.4.1-.5.3-.5.4-.7 1.2-.7 1.2s-.1-1.9-1.9-1.8c-1.7.1-1.5 1.8-1.5 1.8s-.6-1.5-1.9-1.1c-1.2.4-1.1 2-1 2.1 0 0-.8-1.3-2-.6-1.1.7-.7 1.8-.6 1.9" class="st12"/><path d="M41.1 64c-.3-.7-.8-1.6-2.4-1.6h-4.1s-.5-.9-.8-1.7c-.2-.4-.3-.7-.4-.9-.5-1.1-1.1-1.3-2.3-1.3h-3.7s-3-8.7-3.5-9.8-1.1-1.3-2-1.4h-3m11.6 23L28 64.7m-5.9-14.9 4.4 12.4m.8 4.9 1.4 3m-6.4-13.5 2 5.5" class="st12"/><path d="M31 58.4v-7h7V62m-4.3-10.5v9.1m1.9-9.1v10.8m7.6 2.1V49.8c0-.6.4-1.1 1-1.5 1.2-.7 3.3-.7 4.5 0 .6.4 1 .9 1 1.6v18.5" class="st12"/><path d="M44.1 48v-4.5c0-.7.4-1.3 1-1.6.8-.4 1.9-.5 2.7 0q.9.45.9 1.8v4.6" class="st12"/><path d="M45 41.8v-2.5c0-1.1 2.9-1.3 2.9 0v2.6m-1.4-3.8v-4m-1.2 31.1v-6.9c0-1.9 2.4-2 2.4 0v9.6M43.5 55c1.1-1.3 5.2-1.3 6.1-.2m-6.3-3.2c1.6-1.3 5.2-1.2 6.3 0m2 18.5V52.8l2.1-3.2.1-.1H56v.1l1.9 3.4v20.7m-4.2-24.3v21.4M56 49.4v22.3m-2.6-22.4c-1.5 0-1.5-1.9-.1-1.9 1.8-.1 2.1 0 3.3 0 1.1 0 1.3 1.9-.3 1.9m-21.9 1.9s.1-2.5-1.6-2.5h-3.1l1.3 2.8m3.6-.3s-.1-2.5 1.6-2.5h3.1L38 51.5m-6.4-3.1c.2-.2 2.2-3.6 2.2-3.6h1.8l2 3.8" class="st12"/><path d="M35.6 41.4c.1.1.3.2.4.3.7.7.7 1.8 0 2.5s-1.8.7-2.5 0-.7-1.8 0-2.5c.1-.1.2-.2.3-.2.5-.4 1.2-.4 1.8-.1" class="st12"/><path d="M33.8 41.4c-.1-.3-1.3-2.2-1.3-2.2h4.7l-1.5 2.2m20.7 4.3h-3.1v1.5h3.1zm-.7-1.5H54v1.4h1.7zm-.9-3.2v3M38.3 55.7h1.5v-3c0-1.1.6-2 1.6-2 1-.1 1.7.6 1.7 1.8v.2m-1.5.6v10.4M40 52.9h3m6.8 3.1h1.6m14.9 18.8c2.7 0 2.3 3.2 2.3 3.2M58 67.9h3.6v6.9h4.7" class="st12"/><path d="M58.2 69.7h1.9v5.1h1.5m4.8 0h-.1 0c-1.4.1-1.9 1.2-2 2.1-.1.7 0 1.2 0 1.2m-6.2-13.9c1.2 0 1.8 0 1.8.5v3" class="st12"/><path d="M61.6 67.9c1 0 1.7-.3 1.7-2v-2.7c0-1.1-.7-1.5-1.8-1.5H58m.2-3.8c1.2 0 2.2.5 2.2 2 0 .7.1 1.6.1 1.6m1.2 10.2c.8 0 1.5.2 2 .8.4.5.7 1.1.7 2m-3.5 2.4h3.3m-.5-4.4h23.1m-34 27.1c1.8.1 2.4-1.5 4-1.5 1.6-.1 1.9 1.3 3.9 1.3s1.8-1.4 3.6-1.5c1.9-.1 2.1 1.3 3.5 1.3 1.3-.1 1.8-1.3 3.5-1.4s2 1.2 3.3 1.2m-9.8-4.7c1.3.1 1.8-1.3 2.9-1.3 1.2-.1 1.4 1.1 2.9 1.1s1.4-1.2 2.7-1.3c1.4-.1 1.6 1.2 2.5 1.1 1-.1 1.3-1.2 2.6-1.2 1.3-.1 1.5 1.1 2.4 1.1m.7 14.2c-1.6-.1-2.2 1.3-3.6 1.3-1.4.1-1.8-1.1-3.5-1.1-1.8 0-1.7 1.2-3.3 1.3-1.7.1-1.9-1.2-3.1-1.1s-1.6 1.2-3.1 1.2c-1.5.1-1.8-1.1-2.9-1.1m-4.5-14.7c-1.8-.3-2.2.9-3.6.9-.8 0-1.2-.2-1.8-.4-.5-.2-1-.4-1.8-.4-1.8 0-1.7.9-3.3.9-1.7 0-1.9-.8-3.1-.8h-.4c-.9.2-1.4.8-2.8.8-1.5 0-1.8-.7-2.9-.7" class="st12"/><path d="M43.6 94c-.1-.2-2.4-3.6-2.4-3.6h4.5l1.2 1.8h7.4L53 94.3" class="st12"/><path d="M45.4 90.1v-.9h2.4V92m0-2.8v-1.8h2.7V92m0-4.6 1.8 2.4V92" class="st12"/><path d="M23.4 41.2c-1.3 0-1.8 1.9 0 1.9h5.1c1.6 0 1.7-1.9-.1-1.9zM68 43.3c-1.3 0-1.9 2.2 0 2.2h5.2c1.6 0 1.7-2.2-.1-2.2zm-12.4-8.8c-2.2 0-2.4 3.1.1 3.1h6.8c2.1 0 2.3-3.1-.1-3.1zm14.1-10.8c2.2 0 2.3 2.6 4.2 2.6h5.4c2.6 0 2.1-3 .3-3H75c-1.3 0-1.8-2.7-4.3-2.7-.8 0-5.1-.1-6.9-.1-2.2 0-2.9 3.4-4.5 3.4-2.5 0-5-.1-5-.1-2 0-2.2 3 .1 3h5.5c2.6 0 2.5-3.4 5.1-3.4 1.6.3 3.3.3 4.7.3m17 7.1h-6.9c-2.2 0-2.4 3.1.1 3.1h6.8M36.1 16.3c-2.2 0-2.4 3.1.1 3.1H46c2.4 0 2.9-3 5.5-3h6.9c2 0 2-3.1-.1-3.1h-8c-2.2 0-3.9 3-5.4 3-1.5.1-8.8 0-8.8 0m-16.4 10h4.7c1.8 0 2.4 2.5 3.7 2.5h8.5c1.8 0 2.2 2.8-.3 2.8H27c-1.9 0-2-2.5-4.2-2.5h-3.7" class="st13"/><path d="M86.9 72.5v25.7c0 12.5-10 22.7-22.4 22.7H38.2c-12.4 0-22.5-10.2-22.5-22.7v-66c0-12.5 10.1-22.7 22.5-22.7h26.3c11.9 0 21.7 9.4 22.4 21.3z" class="st12"/><path d="M41.3 120.9c-12.4 0-22.5-10.2-22.5-22.7v-66c0-1 .1-2 .2-3s.3-1.9.5-2.8c2.5-9.3 10.4-16.2 20-16.9.6 0 1.2-.1 1.8-.1" class="st12"/><path d="M57.1 148.7h-3.8v-1.8h.5z" class="st14"/><path d="m69.3 151.3-.1.2h-7l-5.2-2.8-3.4-1.8h-.5v-2.2h.1c0 2.5 4 2.2 3.6-.1.4 0 6.8 3.5 12.5 6.7" class="st14"/><path d="M62.2 151.5H55l-1.7-.9h-.1v-1.9h.1l3.7.1z" class="st14"/><path d="m55 151.5 5.8 3.3H54l-.7-.4v-3.8h.1zm13.2 3.3h-7.4l-5.8-3.3h7.2zm7.2-.1-7.2.1-6-3.3h7l.1-.2c2.3 1.3 4.5 2.5 6.1 3.4" class="st14"/><path d="M77.6 156c1.3.8 1.6 2-.9 2h-2.8v-.1l-5.7-3.1h7.1v-.1c1.3.6 2.1 1.1 2.3 1.3" class="st14"/><path d="M74 157.9c-1.4.1-3.5.1-7.5.1v-.1l-5.6-3.2h7.4z" class="st14"/><path d="M66.5 157.9c-2 .1-4.4.1-7.3.1v-.1l-5.2-3.1h6.9z" class="st14"/><path d="m54 154.8 5.2 3.1v.1h-5.9v-3.7z" class="st14"/><path d="M53.3 161.8c.3.3.6.6.8 1 .3.6.5 1.3.5 2 0 .8-.2 1.6-.7 2.3-.7 1.1-2 1.9-3.5 1.9-.7 0-1.4-.2-2-.5-1.3-.7-2.2-2.1-2.2-3.7 0-1.3.6-2.5 1.5-3.2.7-.6 1.6-.9 2.6-.9 1.2-.1 2.2.4 3 1.1" class="st15"/><path d="m24.4 115.5 7.5 19.4-16.9-7.8z" class="st1"/><path d="M187.4 55c2.1 2.4 2.2 5.3.4 11.6-.7 2.4-5 15.5-10 30.8-.9-3.4-7.6-5.2-10.2-2.9h-.1c2.3-6.7 4.2-12.3 5.2-15 1.2-.8 2.1-1.9 2.7-3.4l7.9-22.4c.2-.5.3-.9.3-1.4.5.4 2.4 1.1 3.8 2.7" class="st16"/><path d="M179.3 45.4c2.9 1.1 4.7 4 4.3 7.1-.1 0-.2-.1-.2-.1h-.1v-.6c0-2.2-1.4-4.3-3.6-5.1-2.8-1-5.9.5-6.9 3.3l-7.6 21.4q-.3.9-.3 1.8c0 2.2 1.4 4.3 3.6 5.1 1.6.6 3.3.4 4.6-.5v.1s-.2.6-.6 1.7c-1.6 1-3.7 1.3-5.7.6l-.6-.2c-.9-.3-1.7-.9-2.4-1.5-1.8-1.8-2.5-4.4-1.6-6.9l7.9-22.4c.6-1.6 1.7-2.9 3.2-3.6 1.5-.8 3.4-1 5.2-.3z" class="st17"/><path d="M183.3 51.8v.6c0 .4-.1.9-.3 1.3l-1.6 4.5V58c0-1.2-.7-2.3-1.9-2.7-1.5-.5-3.1.2-3.6 1.7l-4.7 13.1c-.1.3-.2.7-.2 1 0 1.2.7 2.3 1.9 2.7 1.3.5 2.7-.1 3.4-1.2l-.9 2.5c-.4 1.2-1.3 2.2-2.3 2.8-1.3.8-3 1-4.6.5-2.2-.8-3.6-2.9-3.6-5.1q0-.9.3-1.8l7.6-21.4c1-2.8 4.1-4.3 6.9-3.3 2.3.7 3.6 2.8 3.6 5" class="st16"/><path d="M181.4 58v.2l-5.1 14.4c-.7 1.2-2.1 1.7-3.4 1.2-1.1-.4-1.9-1.5-1.9-2.7 0-.3.1-.7.2-1l4.7-13.1c.5-1.5 2.2-2.2 3.6-1.7 1.2.4 1.9 1.5 1.9 2.7" class="st16"/><path d="M177.7 97.5c-.4 1.4-.9 2.7-1.3 4.1h-.1c-.9-3.4-7.6-5.2-10.2-2.9h-.1c.5-1.4 1-2.8 1.4-4.1h.1c2.7-2.3 9.3-.5 10.2 2.9" class="st17"/><path d="M176.3 101.6h.1c-.4 1.4-.9 2.7-1.3 4.1h-.1c-.9-3.4-7.6-5.2-10.2-2.9l-.2-.1c.5-1.4.9-2.7 1.4-4.1h.1c2.6-2.2 9.3-.4 10.2 3" class="st17"/><path d="M175 105.7c-2.6 8.2-5.4 16.5-7.9 23.9l-.3-.1c-.9-3.4-7.6-5.2-10.2-2.9l-.3-.1c2.3-6.7 5.3-15.5 8.2-23.8l.2.1c2.7-2.3 9.4-.5 10.3 2.9" class="st16"/><path d="m173.4 45.4.1.1c-1.4.7-2.6 2-3.2 3.6l-7.9 22.4c-.9 2.5-.2 5.2 1.6 6.9l-.1.1-4.4-.8c.4-1.6.5-3.4.5-5.2-.1-6.4-2-10-4.4-12.8l.1-.1s3.9-13.8 6.9-15v-.2z" class="st18"/><path d="M170.7 164.3c.1.5.1 1 .1 1.5 0 3-3 2.9-5.9 2.9s-46.7.3-46.7.3c-.9 0-1.8-.1-2.4-.6-.7-.5-1-1.4-1-2.9 0-2.9 1.3-5.8 6.8-5.8h43.5c3.4 0 5.1 2.1 5.6 4.6" class="st16"/><path d="M170.7 164.3c-.5-2.5-2.1-4.6-5.5-4.6h-43.5c-5.5 0-6.8 2.9-6.8 5.8 0 1.5.4 2.4 1 2.9l-11.4-5.3h-.1c.8-2.3 1.4-4.5 1.6-5.4h.2s1 3.4 3.2 3.4c.3 0 .6-.1.9-.4l11.5-5.6s17.1-.2 22.1-.3c3.6 0 6.5-1.5 8.3-4 0 0 3.3 1.3 6.8 2.9 3.6 1.6 7.6 3.5 8.7 4.5 2.3 2.1 2.8 4 3 6.1m-3.8-84.1c2 .7 4.1.4 5.7-.6-.9 2.7-2.9 8.3-5.2 15-.5 1.3-.9 2.7-1.4 4.1-.5 1.3-.9 2.7-1.4 4.1-2.9 8.3-5.9 17.1-8.2 23.8-.5 1.5-1 2.9-1.4 4.1-.5 1.6-1 3-1.4 4.1-.5 1.6-.9 2.6-.9 2.6-1.4-3.7-3.7-9.4-6-15 4.6-12.8 9.6-26.5 10.2-28.7 1.6-5.3-1.4-7.4-1.4-7.4 2-2.5 3.3-5.3 4-8.4l4.4.8.1-.1q1.05 1.05 2.4 1.5z" class="st18"/><path d="m166.9 129.5.3.1c-.5 1.4-.9 2.8-1.4 4.1l-.3-.1c-.9-3.4-7.6-5.2-10.2-2.9l-.2-.1c.4-1.2.9-2.6 1.4-4.1l.3.1c2.5-2.3 9.2-.5 10.1 2.9" class="st17"/><path d="m165.4 133.6.3.1c-.5 1.4-.9 2.8-1.4 4.1l-.3-.1c-.9-3.4-7.6-5.2-10.2-2.9l-.3-.1c.4-1.1.8-2.5 1.4-4.1l.2.1c2.8-2.3 9.4-.5 10.3 2.9" class="st17"/><path d="m164.1 137.7.3.1c-3.1 9.4-5.2 15.8-5.2 15.8l-.1.3c-3.6-1.6-6.8-2.9-6.8-2.9 2.2-3 2.7-7.3 1.1-11.9-.2-.5-.4-1.1-.6-1.7 0 0 .3-1 .9-2.6l.3.1c2.6-2.4 9.2-.6 10.1 2.8" class="st16"/><path d="M162.5 44.4v.2c-3 1.3-6.9 15-6.9 15l-.1.1c-.7-.8-1.5-1.6-2.2-2.4l.1-.1s3.4-12 6-13.1V44z" class="st18"/><path d="M159.5 77.8c-.7 3.1-2 5.9-4 8.4-3.9 5-10.4 8.8-19 10.7l-5.7-11.6-.1-.1c2.3-2.1 3.9-4.8 4.1-8.1.5-8.2.5-13.6.5-14 2.6.9 6.2-.9 6.1-5-.1-3.4-3-5.2-5.7-4.5v-.1c-3.6-1.1-4.6-5.4-4.1-9.9v-.1h14.2v.1c-.1 3.6 1 6.9 5.2 11.4.7.8 1.5 1.5 2.3 2.3s1.5 1.5 2.2 2.4c2.4 2.8 4.4 6.4 4.4 12.8.1 1.9-.1 3.6-.4 5.3" class="st17"/><path d="M159.4 44.1c-2.6 1.1-6 13.2-6 13.2l-.1.1-2.3-2.3c-4.3-4.4-5.4-7.8-5.2-11.4v-.1h.3q1.2 0 1.8-.6l.3.1zm-3.9 42.2s3 2.1 1.4 7.4c-.7 2.2-5.6 15.9-10.2 28.7-3.8-9-7.6-17.8-7.6-17.8l1.1.1-3.7-7.6c8.6-2.1 15.1-5.8 19-10.8" class="st18"/><path d="m136.1 121.1-5.9 24.7c3.1-.1 6.2-.2 8.3-.3h.4c5.2-.3 5.5-3.9 4.3-7.2-.2-.6-.6-1.7-1.2-3.1-1.5-3.8-4.1-10-5.9-14.1m-32.4 2.6h-.2c-1.8 7-6.5 12.6-12.9 16.7-3.7 2.3-7.9 4.2-12.5 5.6-.1 0-.2.1-.3.1l-.1-.2s.9-1.8 0-5.5c-.7-3.1-2.9-4.2-2.9-4.2v-.2c14-2.2 24.5-10.6 27.6-27.2.5.6 1.3 1 2.2 1 .3 0 .6-.1.9-.1v.1c-1.1.4-1.8 1.4-1.8 2.6 0 1.6 1.2 2.8 2.8 2.8.5 0 1-.1 1.4-.4l.2.1c-.8.5-1.3 1.4-1.3 2.4 0 1.3.9 2.4 2 2.7v.2l7.4 16.8 9.5-18.7v-.1c1.2-.3 2.1-1.4 2.1-2.7 0-.8-.3-1.5-.8-2 .4.3.9.4 1.5.4 1.5 0 2.8-1.3 2.8-2.8 0-1-.6-2-1.4-2.5l.1-.1c.4.3.9.4 1.4.4 1.5 0 2.8-1.3 2.8-2.8 0-.6-.2-1.2-.5-1.7l5.3.3s3.8 8.8 7.6 17.8c2.3 5.6 4.6 11.2 6 15 .2.6.4 1.2.6 1.7 1.6 4.7 1.1 9-1.1 11.9-1.8 2.4-4.7 3.9-8.3 4-5 0-22.1.3-22.1.3.9-1.7 1-6.4-2.9-9v-.1c-2 0-9.8.2-11.5.2v-.5l-1-5.7z" class="st19"/><path d="M145.9 38.6c2.3 0 3.2 2 2.7 3.4H89.7c-.3-1 .3-2.3 1.2-2.8.8-.4 3.9-2 7.6-3.9 4.4-2.3 9.7-5 12.5-6.3 5.2-2.4 8.8-2.3 11-.3 1.7 1.6 8.6 8.6 8.6 8.6s.8 1.2 2.1 1.2h13.2zm2.6 3.5h.1c-.1.4-.4.7-.7 1q-.6.6-1.8.6H92.5c-1.6 0-2.4-.7-2.7-1.6z" class="st20"/><path d="M135 16.1c12.6 1.1 10.9 22.3 10.9 22.3v.2h-13.1c-1.3 0-2.1-1.2-2.1-1.2s-6.9-7-8.6-8.6c-2.2-2-5.8-2.1-11 .3-2.9 1.3-8.1 4-12.5 6.3l-.2-.4c0-2-.4-12.3 9.4-15.7 7.8-2.7 12.5 2 12.5 2.9 0 0 3.4-7.1 14.7-6.1" class="st17"/><path d="M143.2 138.3c1.2 3.4.9 7-4.3 7.2h-.4v-.2s1.3-4 3.6-10.1c.5 1.4.9 2.5 1.1 3.1" class="st18"/><path d="M124 77.5V77c0-1.1-.2-2.2-.5-3.1-.6-1.6-1.8-2.8-3.6-2.8-2.8 0-3.9 2.6-3.9 2.6s-1.2-2.7-4-2.4c-1.1.1-1.9.9-2.5 2.1-.4.9-.6 1.9-.6 3.1 0 1.3.4 2.6 1.1 3.7 1.6 2.6 4.6 3.8 7.6 3.4 4.3-.5 6.2-3.2 6.4-6.1m11.7-23.7c2.7-.7 5.7 1.1 5.7 4.5.1 4-3.6 5.9-6.1 5 0 .4 0 5.7-.5 14-.2 3.3-1.8 6-4.1 8.1-2.2 1.9-5.1 3.3-8.2 3.8-2.5.5-5.2.4-7.7-.2-1.6-.4-3.1-1-4.5-1.9-4.1-2.6-7.1-7.3-7.1-14.8 0-3 .1-11.8.2-18.9.6.2 1.2.2 1.9.2v.2c0 1.5.6 2.8 1.5 3.8 1 1 2.4 1.7 3.9 1.7 2.6 0 4.7-1.8 5.3-4.3.3 1.3 1 2.3 1.9 3.1.9.7 2.1 1.2 3.3 1.2 3 0 5.4-2.5 5.4-5.5 0-.3 0-.7-.1-1-.5-2.6-2.7-4.5-5.3-4.5-2.7 0-4.7 1.8-5.3 4.1h.1c-.6-2.4-2.7-4.1-5.3-4.1-2.2 0-4.1 1.3-4.9 3.2l-.2-.1c-.9 0-1.6-.3-2.1-.7.1-4 .1-6.9.1-6.9v-.1h27.9v.1c-.5 4.5.5 8.8 4.1 9.9z" class="st21"/><path d="m136.5 97 3.7 7.6-1.1-.1-5.3-.3-4.2-.2-5.4-.3-1.6-14.6c3.1-.6 6-1.9 8.2-3.8l.1.1z" class="st19"/><path d="M142 135.2c-2.3 6.2-3.6 10.1-3.6 10.1v.2c-2.1.1-5.2.2-8.3.3l5.9-24.7c1.9 4.1 4.5 10.3 6 14.1" class="st18"/><path d="M130.1 108.4c-.5-.1-.9-.3-1.4-.3-1.5 0-2.8 1.3-2.8 2.8 0 .8.3 1.5.8 2-.4-.3-.9-.4-1.5-.4-1.5 0-2.8 1.3-2.8 2.8 0 .6.2 1.1.5 1.6h-.1c-.5-.7-1.3-1.2-2.3-1.2-1.5 0-2.8 1.3-2.8 2.8v.3h-.1c-.2-1.4-1.3-2.5-2.8-2.5-1.2 0-2.2.8-2.6 1.8.1-.3.2-.6.2-1 0-1.6-1.2-2.8-2.8-2.8-.5 0-1 .1-1.4.4l-.2-.1c.8-.5 1.3-1.4 1.3-2.4 0-1.6-1.2-2.8-2.8-2.8-.3 0-.7.1-1 .2v-.1c1.1-.4 1.9-1.4 1.9-2.7 0-1.6-1.2-2.8-2.8-2.8v-.4l6.6-.1 5.3 7.4 7.6-7.3 5.4.3v.1c-.5.5-.8 1.1-.8 1.8.1 1.2.6 2.1 1.4 2.6" class="st19"/><path d="M126.7 52.8c.1.3.1.7.1 1 0 3-2.4 5.5-5.4 5.5q-1.95 0-3.3-1.2c2 .1 3.4-.6 4.2-1.7l-2.9-2.7 4-.3c0-.9-.2-1.7-.7-2.4 1.8.3 3.3 1 4 1.8" class="st22"/><path d="M126.7 52.8c-.7-.8-2.2-1.5-4-1.8-2-.3-4.4 0-6.5 1.5h-.1c.6-2.4 2.7-4.1 5.3-4.1 2.6-.1 4.9 1.8 5.3 4.4m-.8 65.2-9.5 18.8L109 120v-.2c.2.1.5.1.7.1 1.2 0 2.2-.8 2.6-1.8-.1.3-.2.7-.2 1 0 1.6 1.2 2.8 2.8 2.8s2.8-1.3 2.8-2.8v-.3h.1c.1 1.4 1.3 2.5 2.8 2.5s2.8-1.3 2.8-2.8c0-.6-.2-1.2-.5-1.6h.1c.5.8 1.3 1.2 2.3 1.2.1 0 .3 0 .6-.1" class="st19"/><path d="m122.5 89.1 1.6 14.6-7.6 7.3-5.3-7.4.1-.4 3.5-14.1.1-.2c2.4.6 5.1.7 7.6.2" class="st21"/><path d="M124 77v.5c-.7.9-2 1.7-3.7 2.3l-.1-4.2v-.1c1.3-.4 2.5-.9 3.3-1.7.3 1 .5 2.1.5 3.2" class="st22"/><path d="M123.5 73.9c-.9.8-2 1.3-3.3 1.7s-2.8.5-4.3.5c-1.6-.1-3.2-.4-4.4-1-.8-.4-1.5-.9-2-1.6h-.1c.5-1.1 1.4-2 2.5-2.1 2.8-.3 4 2.4 4 2.4s1.1-2.6 3.9-2.6c1.8-.1 3 1 3.7 2.7" class="st6"/><path d="m123.4 53.4-4 .3 2.9 2.7c-.8 1-2.3 1.7-4.2 1.7-1-.8-1.7-1.8-1.9-3.1-.1-.4-.1-.8-.1-1.2 0-.5.1-.9.2-1.4h.1c2.1-1.5 4.5-1.8 6.5-1.5.2.8.5 1.6.5 2.5" class="st10"/><path d="M111.3 79c1.4.9 2.9 1.3 4.5 1.4 1.5.1 3.1-.2 4.4-.6 1.7-.5 3.1-1.4 3.7-2.3-.2 2.9-2.1 5.6-6.5 6.2-3 .4-5.9-.8-7.6-3.4-.7-1.2-1.1-2.5-1.1-3.7.8 1 1.7 1.8 2.6 2.4" class="st6"/><path d="M118.9 146.2c3.9 2.6 3.8 7.2 2.9 9l-11.5 5.6c.9-.8 1.4-2.7 1.5-4.8v-2.1c-.2-2.1-1-4.4-2.1-5.9-.7-1-1.6-1.7-2.4-1.7h.2c1.7 0 9.4-.2 11.5-.2z" class="st19"/><path d="M120.2 79.8c-1.3.4-2.8.7-4.4.6v-4.3c1.5.1 2.9-.1 4.3-.5v.1zm-4.1-27.4c-.1.5-.2.9-.2 1.4 0 .4 0 .8.1 1.2-.6 2.4-2.7 4.3-5.3 4.3-1.5 0-2.9-.6-3.9-1.7.4.1.8.2 1.2.2 1.4 0 2.7-.6 3.5-1.7l-2.9-2.7 4-.3c0-.9-.2-1.7-.7-2.4 1.7.3 3.2 1 3.9 1.8z" class="st22"/><path d="M116 52.4h-.1c-.7-.8-2.1-1.5-3.9-1.8-2-.3-4.3 0-6.4 1.5.1-.2.1-.4.2-.6.9-1.9 2.7-3.2 4.9-3.2 2.6 0 4.7 1.7 5.3 4.1" class="st19"/><path d="M115.8 76v4.4c-1.6-.1-3.1-.5-4.5-1.4l.1-3.9.1-.1c1.2.7 2.7 1 4.3 1" class="st22"/><path d="m114.8 88.9-.1.2-3.5 14.1-.1.4-6.6.1-9.1.1 7.1-8 7.6-8.6.1-.1c1.5.8 3.1 1.4 4.6 1.8" class="st19"/><path d="m112.7 53.1-4 .3 2.9 2.7c-.8 1-2.1 1.7-3.5 1.7-.4 0-.8-.1-1.2-.2-.9-1-1.5-2.3-1.5-3.8v-.2c0-.5.1-1 .2-1.4 2.1-1.5 4.5-1.8 6.4-1.5.5.7.7 1.5.7 2.4" class="st10"/><path d="M87.9 168.8c-1.3.7-2.5.9-3.5.8-2.8-.4-2.5-2.3-2.5-2.3s.2 0 .5-.1c1.1-.4 4.2-1.6 6.2-4.5.6-.9 1.2-2.2 1.7-3.4.9-2.1 1.4-4.2 1.4-4.2s-1 1.9-3.4 3c-1 .5-2.4.8-4 .7-3.4-.1-3.2-3-1.8-3.5.2-.1.4-.1.6-.1 2.2.2 3.9-.6 5.2-1.7.3-.2.5-.5.8-.7 1.5-1.5 3.7-4.9 7.6-4.9h13.2c1.1 1.5 1.9 3.7 2.1 5.9q.15 1.05 0 2.1h-.1s-2.2.1-3.9.1c-1 0-1.7.6-1.7 1.3 0 0 0 .1-.1.4-.2.9-.7 3.1-1.6 5.4-.7 1.9-1.6 4-2.7 5.4-2 2.6-4 3.5-5.5 1.9l-.1-.2c-1.4.9-2.7.7-3.8-.4-1.9 1-3.6.7-4.6-1" class="st21"/><path d="M111.7 155.9h.1c-.1 2.1-.7 4-1.5 4.8-.3.2-.6.4-.9.4-2.1 0-3.2-3.4-3.2-3.4h-.2c.1-.3.1-.4.1-.4 0-.7.7-1.3 1.7-1.3 1.7 0 3.9-.1 3.9-.1" class="st23"/><path d="m111.5 75-.1.1-.1 3.9c-.9-.6-1.8-1.4-2.5-2.5 0-1.1.2-2.2.6-3.1h.1c.5.7 1.1 1.3 2 1.6" class="st22"/><path d="M87.2 86.8c-2-2.9-3.4-6.6-3.1-11.1.5-7.8 6.7-11.5 11-16.8 4-4.9 3.6-10.3 3.6-15.3h4.9v.1s0 2.9-.1 6.9v2.6c-.1 7.1-.2 16-.2 18.9 0 7.5 3 12.2 7.1 14.8l-.1.1-7.6 8.6-.1-.1s-2.3-.3-7.8-2.6c-2.6-1-5.4-3.1-7.6-6.1" class="st17"/><path d="M107.3 146.3c.8 0 1.7.7 2.4 1.7h-4.4s.2-.6.7-1.1c.3-.3.6-.5 1.1-.5z" class="st23"/><path d="M107.4 146v.3h-.3c-.4 0-.8.2-1.1.5 0 0-11.3-.1-17.7-.1-5.3 0-6.1 4.6-4.8 6.2l-.1.1-10.4-5.2v-.1c1.5-.5 2.9-1 4.9-1.6.1 0 .2-.1.3-.1 4.6-1.4 8.8-3.3 12.5-5.6h15.9z" class="st18"/><path d="M106 146.8c-.4.5-.6 1.1-.6 1.1v.1h-8.8c-3.9 0-6.1 3.4-7.6 4.9-.2.2-.5.5-.8.7l-.1-.2h-3.5c-.4 0-.8-.2-1-.5-1.3-1.6-.5-6.2 4.8-6.2 6.3 0 17.6.1 17.6.1" class="st16"/><path d="m105.6 51.4.2.1c-.1.2-.2.4-.2.6-.1.5-.2.9-.2 1.4-.6 0-1.3 0-1.8-.2v-2.6c.5.5 1.2.7 2 .7" class="st21"/><path d="m88.2 158.1 2 1.2c-.5 1.2-1.1 2.4-1.7 3.4H54.2l-.2.1c-.2-.4-.5-.7-.8-1V158h23.5c2.4 0 2.1-1.2.9-2-.2-.1-1-.6-2.2-1.3-1.6-.9-3.8-2.1-6.1-3.4-5.7-3.1-12.1-6.7-12.3-6.7-.2-1.5-.1-2.5 0-3.2h.1l13.2 7.2 12 6.6v.1c-1.4.5-1.6 3.4 1.8 3.5 1.8.1 3.1-.2 4.1-.7" class="st1"/><path d="M54.2 162.7h34.3c-2 2.9-5 4.1-6.2 4.5v-.1H53.9l-.1-.1c.4-.7.7-1.4.7-2.3 0-.7-.2-1.4-.5-2z" class="st15"/><path d="M77.8 140.3c.9 3.7 0 5.5 0 5.5l.1.2c-2 .6-3.4 1.1-4.9 1.6-.8.3-1.6.5-2.5.9l-.1.1-2.2-1.2s.4-3-.7-6.2c-.4-1-.8-1.8-1.3-2.4-1.5-1.8-3.2-2.3-3.2-2.3 4.2.3 8.2.1 12-.5v.2c-.1 0 2.1 1 2.8 4.1" class="st19"/><path d="M57 141.4c-.2.7-.3 1.7 0 3.2.4 2.3-3.6 2.6-3.6.1h-.1v-5.3h.1c.6-2.2 1.9-2.8 3.5-2.8 2.2.1 2.8 1 3.5 1.7.4.4.8.8 1.7.9 2.1.3 3.9-.3 3.9-.3l.1-.1c.5.6 1 1.4 1.3 2.4 1.1 3.2.7 6.2.7 6.2l2.2 1.2h.1l-13.2-7.2z" class="st21"/><path d="m66.1 138.8-.1.1s-1.8.6-3.9.3c-.8-.1-1.2-.5-1.7-.9 0-.2.4-1.8 2.5-1.8 0 0 1.7.4 3.2 2.3" class="st23"/><path d="M53.3 158v3.8c-.7-.7-1.8-1.2-2.9-1.2-1 0-1.9.4-2.6.9l-.1-.1v-.1c0-2.6.1-40.8.1-43.4 0-2.7.7-8-4.7-10 0 0-31.7-13.3-33.6-13.8-1.6-.4-4.8-1.6-6 2.1.4-3.5 2.1-4 3.5-4.2 1.5-.2 4.8-.4 6.6 0 2.2.5 34.3 13.8 34.3 13.8 4.8 2.2 5.4 5.1 5.4 9.1z" class="st15"/><path d="M48.4 168.4 3.5 144.8s-3-3.2 0-6.4l44.1 22.9h.1v.1l.1.1c-.9.8-1.5 1.9-1.5 3.2 0 1.7.9 3 2.1 3.7" class="st15"/><path d="M43 107.8c5.5 2 4.7 7.2 4.7 10s-.1 40.8-.1 43.4h-.1l-44-22.8S2.8 106.1 3 99c0-1.2.2-2.1.4-2.9 1.1-3.7 4.3-2.5 6-2.1 2 .6 33.6 13.8 33.6 13.8m-11.2 27-7.5-19.4-9.3 11.7z" class="st15"/><path d="M145.8 43.7h.3q1.2 0 1.8-.6c.3-.3.6-.6.7-1 .5-1.5-.5-3.4-2.7-3.4h-13.1c-1.3 0-2.1-1.2-2.1-1.2s-6.9-7-8.6-8.6c-2.2-2-5.8-2.1-11 .3-2.9 1.3-8.1 4-12.5 6.3-3.7 1.9-6.8 3.5-7.6 3.9-.9.4-1.5 1.7-1.2 2.8.2.9 1 1.6 2.7 1.6h39.1c7.1-.1 12.8-.1 14.2-.1" class="st12"/><path d="M98.4 35c0-2-.4-12.3 9.4-15.7 7.8-2.7 12.5 2 12.5 2.9 0 0 3.4-7.1 14.7-6.1 12.6 1.1 10.9 22.3 10.9 22.3m-47.2 5.2c0 5 .4 10.3-3.6 15.3-4.3 5.3-10.5 9.1-11 16.8-.3 4.4 1.1 8.2 3.1 11.1 2.1 3 5 5.2 7.6 6.3 5.5 2.3 7.8 2.6 7.8 2.6m1-51.9s0 2.9-.1 6.9v2.6c-.1 7.1-.2 16-.2 18.9 0 7.5 3 12.2 7.1 14.8 1.4.9 2.9 1.5 4.5 1.9 2.5.6 5.1.6 7.7.2 3.1-.6 6-1.9 8.2-3.8 2.3-2.1 3.9-4.8 4.1-8.1.5-8.2.5-13.6.5-14v0" class="st12"/><path d="M132.6 56.2c.8-1.3 1.9-2.1 3.1-2.4 2.7-.7 5.7 1.1 5.7 4.5.1 4-3.6 5.9-6.1 5-.5-.2-1-.5-1.4-1" class="st12"/><path d="M136.7 56.7c-.6 1.7-2 2.2-2.9 2.4" class="st12"/><path d="M136.8 60.7c-.5-1.4-1.9-1.8-3-1.7m-2.2-15.2c-.5 4.5.5 8.8 4.1 9.9m.8 43.3c8.6-2 15.1-5.7 19-10.7 2-2.5 3.3-5.3 4-8.4.4-1.6.5-3.4.5-5.2-.1-6.4-2-10-4.4-12.8-.7-.8-1.5-1.6-2.2-2.4l-2.3-2.3c-4.3-4.4-5.4-7.8-5.2-11.4m-35.6 43.4-7.6 8.6-7.1 8 9.1-.1 6.6-.1 5.3 7.4 7.6-7.3" class="st12"/><path d="m122.5 89.1 1.6 14.6 5.4.3 4.2.2 5.3.3 1.1.1-3.7-7.6-5.7-11.6m-15.9 3.7-3.5 14.1M147 67.7c1.7 7.9 8.1 11.1 12 11.6m-16.2-2.7c1.3 6.5 7.5 9.9 11.9 10.3m-15.9-1.2c.9 5.2 5.7 7.1 8.7 7m-63-13.1c4.1.3 10.2-3.8 11.1-8.7m-8.5 15.9q.15 0 0 0c4.1.1 10.5-4.7 11.1-9.1m2.5 7.2c-.5 3.3-4.3 6.5-7.7 6.7m33.7-38.8c.1.3.1.7.1 1 0 3-2.4 5.5-5.4 5.5q-1.95 0-3.3-1.2c-1-.8-1.7-1.8-1.9-3.1h0c-.1-.4-.1-.8-.1-1.2 0-.5.1-.9.2-1.4q0 0 0 0c.6-2.4 2.7-4.1 5.3-4.1 2.4 0 4.7 1.9 5.1 4.5M116.1 55c-.6 2.4-2.7 4.3-5.3 4.3-1.5 0-2.9-.6-3.9-1.7-.9-1-1.5-2.3-1.5-3.8v-.2c0-.5.1-1 .2-1.4.1-.2.1-.4.2-.6.9-1.9 2.7-3.2 4.9-3.2 2.5 0 4.7 1.8 5.3 4.1" class="st12"/><path d="M105.6 52.1c2.1-1.5 4.5-1.8 6.4-1.5 1.7.3 3.2 1 3.9 1.8m.3.1c2.1-1.5 4.5-1.8 6.5-1.5 1.8.3 3.3 1 4 1.8m2.6-4c-.5 1.5-2.2 2.2-3.1 2.2m4 .3c-.7 1-1.6 1.6-3.3 1.7m-24.4-4.4c.1 1 .5 1.6 1 2.1s1.3.7 2.1.7m-3.8-.2c.1 1.2.8 1.9 1.7 2.2.6.2 1.2.2 1.8.2m9.9 3.4c.1 2.8.3 4.7-.9 6.3-1.2 1.7-2.3 2.2-2.2 3.8.1 1.9 1.8 2.6 3.6 2.6 2.6-.1 3.3-1.9 3.3-1.9m4.5 6.1c-.6-1.6-1.8-2.8-3.6-2.8-2.8 0-3.9 2.6-3.9 2.6s-1.2-2.7-4-2.4c-1.1.1-1.9.9-2.5 2.1-.4.9-.6 1.9-.6 3.1 0 1.3.4 2.6 1.1 3.7 1.6 2.6 4.6 3.8 7.6 3.4 4.4-.6 6.3-3.2 6.5-6.2v-.5c-.1-1-.3-2.1-.6-3" class="st12"/><path d="M109.5 73.5c.5.6 1.1 1.2 2 1.6 1.2.6 2.8.9 4.4 1 1.4.1 2.9-.1 4.3-.5 1.3-.4 2.5-.9 3.3-1.7m-14.7 2.6c.7 1.1 1.6 1.9 2.5 2.5 1.4.9 2.9 1.3 4.5 1.4 1.5.1 3.1-.2 4.4-.6 1.7-.5 3.1-1.4 3.7-2.3v-.1m-8.1-1.3v4.2m-4.4-5.1-.1 3.9v0m8.8-3.5.1 4.2m-13.3-22.2c.4.1.8.2 1.2.2 1.4 0 2.7-.6 3.5-1.7l-2.9-2.7 4-.3c0-.9-.2-1.7-.7-2.4m6.1 7.4c2 .1 3.4-.6 4.2-1.7l-2.9-2.7 4-.3c0-.9-.2-1.7-.7-2.4m-33-8.9h58.8m-43.8 62c1.5 0 2.8 1.3 2.8 2.8 0 1.2-.8 2.3-1.9 2.7-.3.1-.6.1-.9.1-.9 0-1.6-.4-2.2-1q-.6-.75-.6-1.8c0-1.6 1.3-2.8 2.8-2.8m.9 5.5c.3-.1.6-.2 1-.2 1.5 0 2.8 1.3 2.8 2.8 0 1-.5 1.9-1.3 2.4-.4.3-.9.4-1.4.4-1.5 0-2.8-1.3-2.8-2.8-.1-1.1.7-2.2 1.7-2.6m2.7 5.2c.4-.3.9-.4 1.4-.4 1.5 0 2.8 1.3 2.8 2.8 0 .3-.1.7-.2 1-.4 1.1-1.4 1.8-2.6 1.8-.3 0-.5 0-.7-.1-1.2-.3-2-1.4-2-2.7-.1-1 .4-1.9 1.3-2.4" class="st12"/><path d="M117.7 118.8v.3c0 1.6-1.2 2.8-2.8 2.8s-2.8-1.3-2.8-2.8c0-.4.1-.7.2-1h0c.4-1.1 1.4-1.8 2.6-1.8 1.5 0 2.7 1.1 2.8 2.5m5.1-1.9c.3.5.5 1 .5 1.6 0 1.6-1.2 2.8-2.8 2.8-1.4 0-2.6-1.1-2.8-2.5v-.3c0-1.6 1.2-2.8 2.8-2.8 1 0 1.8.5 2.3 1.2m4.4-3.6c.5.5.8 1.2.8 2 0 1.3-.9 2.4-2.1 2.7-.2.1-.4.1-.6.1-1 0-1.8-.5-2.3-1.2-.3-.4-.5-1-.5-1.6 0-1.6 1.2-2.8 2.8-2.8.5 0 1.1.2 1.5.4.1.1.2.3.4.4" class="st12"/><path d="M130.1 108.5c.8.5 1.4 1.4 1.4 2.5 0 1.6-1.2 2.8-2.8 2.8-.5 0-1.1-.2-1.5-.4-.2-.1-.4-.3-.5-.4-.5-.5-.8-1.2-.8-2 0-1.6 1.2-2.8 2.8-2.8.5-.1.9 0 1.4.3m3.7-4.2c.3.5.5 1 .5 1.7 0 1.6-1.2 2.8-2.8 2.8-.5 0-1-.1-1.4-.4-.8-.5-1.3-1.4-1.3-2.4 0-.8.3-1.3.8-1.8M108.9 120l7.4 16.8 9.5-18.7m-23.1-.1 1 5.7 2.8 16.7 1 5.7" class="st12"/><path d="M134.3 116.8s.8 1.8 1.8 4.3c1.7 4.1 4.3 10.3 5.9 14.1.6 1.4 1 2.5 1.2 3.1 1.2 3.4.9 7-4.3 7.2h-.4c-2.1.1-5.2.2-8.3.3-5.4.2-10.8.3-10.8.3h-.5c-2 0-9.8.2-11.5.2h-.3c-.4 0-.8.2-1.1.5-.4.5-.7 1.1-.7 1.1" class="st12"/><path d="M106.5 146.5c.2-.1.5-.2.7-.2.9 0 1.7.7 2.4 1.7 1.1 1.5 1.9 3.7 2.1 5.9q.15 1.05 0 2.1c-.1 2.1-.7 4-1.5 4.8-.3.2-.6.4-.9.4-2.1 0-3.2-3.4-3.2-3.4" class="st12"/><path d="m110.3 160.8 11.5-5.6s17.1-.2 22.1-.3c3.6 0 6.5-1.5 8.3-4 2.2-3 2.7-7.3 1.1-11.9-.2-.5-.4-1.1-.6-1.7-1.4-3.7-3.7-9.4-6-15-3.8-9-7.6-17.8-7.6-17.8" class="st12"/><path d="M118.9 146.2c3.9 2.6 3.8 7.2 2.9 9m14.4-34.2v.1l-5.9 24.7m-27.8-37.1c-3.2 16.7-13.7 25-27.6 27.2-3.8.6-7.8.8-12 .5 0 0 1.8.5 3.2 2.3.5.6 1 1.4 1.3 2.4 1.1 3.2.7 6.2.7 6.2l2.2 1.2h.1m0 0c.9-.3 1.7-.6 2.5-.9 1.5-.5 2.9-1 4.9-1.6.1 0 .2-.1.3-.1 4.6-1.4 8.8-3.3 12.5-5.6 6.4-4.1 11.2-9.6 12.9-16.7m6.1 24.5H96.5c-3.9 0-6.1 3.4-7.6 4.9-.2.2-.5.5-.8.7-1.3 1.1-3 1.9-5.2 1.7-.2 0-.4 0-.6.1-1.4.5-1.6 3.4 1.8 3.5 1.6.1 2.9-.3 4-.7 2.4-1.1 3.4-3 3.4-3s-.5 2-1.4 4.2c-.5 1.2-1.1 2.4-1.7 3.4-2 2.9-5 4.1-6.2 4.5-.3.1-.5.1-.5.1s-.3 1.9 2.5 2.3c1 .1 2.2 0 3.5-.8 1.1-.6 2.2-1.6 3.4-3.1 2.9-3.7 3.3-6.2 3.3-6.2" class="st12"/><path d="M87.9 168.9c1 1.6 2.7 1.9 4.4.8.5-.3 1.1-.8 1.6-1.4 2.9-3.4 4.5-8.3 4.5-8.3" class="st12"/><path d="M92.3 169.7c1.1 1.2 2.4 1.3 3.8.4.6-.4 1.2-1 1.8-1.7 2.7-3.6 3.9-8.3 3.9-8.3" class="st12"/><path d="M96.2 170.3c1.6 1.6 3.5.8 5.5-1.9 1.1-1.4 2-3.4 2.7-5.4.8-2.3 1.4-4.5 1.6-5.4.1-.3.1-.4.1-.4 0-.7.7-1.3 1.7-1.3 1.7 0 3.9-.1 3.9-.1m-36.8-19.6s2.2 1.1 2.9 4.2c.9 3.7 0 5.5 0 5.5m92.9 18.4c.1.5.1 1 .1 1.5 0 3-3 2.9-5.9 2.9s-46.7.3-46.7.3c-.9 0-1.8-.1-2.4-.6-.7-.5-1-1.4-1-2.9 0-2.9 1.3-5.8 6.8-5.8h43.5c3.4 0 5.1 2.1 5.6 4.6m-66.2-1.2 11.4 5.3" class="st12"/><path d="M152.2 150.9s3.3 1.3 6.8 2.9c3.6 1.6 7.6 3.5 8.7 4.5 2.2 2 2.7 3.8 2.9 5.9m-23.9-41.9c4.6-12.8 9.6-26.5 10.2-28.7 1.6-5.3-1.4-7.4-1.4-7.4m-17 59.2s1.3-4 3.6-10.1q0 0 0 0m10.7 2s.3-1 .9-2.6c.4-1.1.8-2.5 1.4-4.1.4-1.2.9-2.6 1.4-4.1 2.3-6.7 5.3-15.5 8.2-23.8.5-1.4.9-2.7 1.4-4.1s1-2.8 1.4-4.1c2.3-6.7 4.2-12.3 5.2-15 .4-1.1.6-1.7.6-1.7m-14.1 75.8s2.1-6.4 5.2-15.8c.4-1.3.9-2.7 1.4-4.1.4-1.3.9-2.7 1.4-4.1 2.4-7.4 5.2-15.7 7.9-23.9.5-1.4.9-2.7 1.3-4.1.5-1.4.9-2.8 1.4-4.1 5.1-15.3 9.3-28.4 10-30.8 1.8-6.3 1.7-9.3-.4-11.6-1.4-1.6-3.3-2.4-3.9-2.6-.1 0-.2-.1-.2-.1" class="st12"/><path d="M183.3 52.4c0 .4-.1.9-.3 1.3l-1.6 4.5-5.1 14.4-.9 2.5c-.4 1.2-1.3 2.2-2.3 2.8-1.3.8-3 1-4.6.5-2.2-.8-3.6-2.9-3.6-5.1q0-.9.3-1.8l7.6-21.4c1-2.8 4.1-4.3 6.9-3.3 2.2.8 3.6 2.9 3.6 5.1z" class="st12"/><path d="M181.4 58.2c0 .3-.1.5-.2.8l-4.7 13.1c-.1.2-.1.3-.2.5-.7 1.2-2.1 1.7-3.4 1.2-1.1-.4-1.9-1.5-1.9-2.7 0-.3.1-.7.2-1l4.7-13.1c.5-1.5 2.2-2.2 3.6-1.7 1.1.4 1.9 1.5 1.9 2.7z" class="st12"/><path d="M183.5 52.5c-.1.5-.2.9-.3 1.4l-7.9 22.4c-.5 1.4-1.5 2.6-2.7 3.4-1.6 1-3.7 1.3-5.7.6l-.6-.2c-.9-.3-1.7-.9-2.4-1.5-1.8-1.8-2.5-4.4-1.6-6.9l7.9-22.4c.6-1.6 1.7-2.9 3.2-3.6 1.5-.8 3.4-1 5.2-.3l.6.2c3 .9 4.7 3.8 4.3 6.9m-24.1 25.3 4.4.8m-15.6-35.5 11.2 1 3.1.3 10.9 1m-14-1.2c-2.6 1.1-6 13.1-6 13.1m9.1-12.6c-3 1.3-6.9 15-6.9 15m11.9 34.9c2.6-2.3 9.3-.5 10.2 2.9m-11.6 1.2c2.6-2.3 9.3-.5 10.2 2.9m-11.5 1.2c2.6-2.3 9.3-.5 10.2 2.9m-18.3 20.9c2.6-2.3 9.3-.5 10.2 2.9m-11.6 1.2c2.6-2.3 9.3-.5 10.2 2.9m-11.5 1.2c2.6-2.3 9.3-.5 10.2 2.9M66 138.9s-1.8.6-3.9.3c-.8-.1-1.2-.5-1.7-.9-.7-.7-1.3-1.5-3.5-1.7-1.6 0-2.9.6-3.5 2.8" class="st12"/><path d="M62.9 136.5c-2 0-2.4 1.6-2.5 1.8q0 0 0 0m-3.2 3.2 13.2 7.2 12 6.6m5.8 2.8 2 1.2h0m-1.7 3.4H54.2m-.3 4.4h28.4M54 162.8c.3.6.5 1.3.5 2 0 .8-.2 1.6-.7 2.3-.7 1.1-2 1.9-3.5 1.9-.7 0-1.4-.2-2-.5-1.3-.7-2.2-2.1-2.2-3.7 0-1.3.6-2.5 1.5-3.2.7-.6 1.6-.9 2.6-.9 1.1 0 2.1.4 2.9 1.2.5.2.7.5.9.9m-6.3-1.3v-.1c0-2.6.1-40.8.1-43.4 0-2.7.7-8-4.7-10 0 0-31.7-13.3-33.6-13.8-1.6-.4-4.8-1.6-6 2.1-.3.6-.4 1.5-.5 2.7-.2 7 .5 39.4.5 39.4l44.1 22.9" class="st12"/><path d="M53.3 161.8v-47.1c0-4.1-.6-6.9-5.4-9.1 0 0-32.1-13.3-34.3-13.8-1.9-.4-5.2-.2-6.6 0-1.5.2-3.1.8-3.5 4.2m44.9 72.5L3.5 144.8s-3-3.2 0-6.4m49.9 6.3c0 2.5 4 2.2 3.6-.1-.2-1.5-.1-2.5.1-3.2.2-.8.5-1.1.5-1.1" class="st12"/><path d="M57 144.6c.2 0 6.7 3.5 12.3 6.7 2.3 1.3 4.5 2.5 6.1 3.4 1.2.7 2 1.1 2.2 1.3 1.3.8 1.6 2-.9 2H53.4" class="st12"/><path d="m53.7 146.8 3.4 1.8 5.2 2.8 6 3.3 5.7 3.1m-20.7-7.3 1.7.9 5.8 3.3 5.6 3.2m-12.9-3.1h21.9m-21.7-3.3h15.5m-15.8-2.8 3.7.1m-3.8 5.6.7.4 5.2 3.1M15 127.1l9.4-11.7 7.5 19.4zm75.6 13.2h15.9m-18.4 13.1h-3.5c-.4 0-.8-.2-1-.5-1.3-1.6-.5-6.2 4.8-6.2 6.4 0 17.7.1 17.7.1m-33.2 1 10.4 5.2" class="st12"/><path d="M106.4 33.2c2.1-1.1 5.2-2.6 6.3-3.2 2.2-1.2 4 1 1.2 2.5-1.7.9-2.8 1.3-6.5 3.3-1.7.9-3.2-1.4-1-2.6m-6.9 3.5c2.1-1.1.7-.3 1.8-.9 2.2-1.2 4 1.1 1.2 2.5-1.7.9 1.7-.9-2 1-1.8.9-3.2-1.4-1-2.6" class="st3"/></svg>