<svg width="375" height="220" viewBox="0 0 375 220" fill="none" xmlns="http://www.w3.org/2000/svg">
<rect width="375" height="220" fill="#003C73"/>
<path d="M152.833 78.0929C152.833 78.0929 148.635 77.9801 147.615 81.7237C146.594 85.4673 148.523 87.7365 150.451 88.757C150.451 88.757 151.061 89.2519 152.379 89.0981C153.697 88.9442 154.761 88.4186 154.761 88.4186C154.761 88.4186 161.228 101.011 176.653 100.896C192.079 100.78 197.866 93.5211 198.887 86.4904C199.907 79.457 198.32 73.4442 194.802 67.8878C191.287 62.3288 190.038 60.4006 190.038 60.4006L163.494 60.7417C163.494 60.7417 152.717 69.1365 152.83 78.0981L152.833 78.0929Z" fill="#F2C8AA"/>
<path d="M178.584 144.678C178.584 144.678 179.571 145.822 180.059 146.947C180.546 148.073 181.533 149.104 182.328 149.558C183.123 150.011 185.051 150.691 185.051 150.691C185.051 150.691 186.412 150.578 186.638 148.988C186.638 148.988 188.679 148.081 188.566 146.832L189.474 144.791C189.474 144.791 190.836 143.77 190.269 142.635C189.702 141.499 189.02 140.819 189.02 140.819L185.164 139.686L182.782 139.46C182.782 139.46 179.151 141.501 178.584 144.678Z" fill="#F2C8AA"/>
<path d="M225.546 107.474C225.546 107.474 228.381 110.31 228.381 113.487C228.381 113.487 229.969 113.146 230.538 113.146H241.54L241.766 112.125L241.653 111.331L241.766 108.495V107.133C241.766 107.133 241.671 105.156 239.838 105.092C238.005 105.028 231.897 105.092 231.897 105.092L232.379 104.015C232.379 104.015 233.392 102.502 232.72 102.059C232.048 101.615 230.933 101.974 230.507 102.484C230.081 102.995 228.381 104.782 228.125 104.951C227.869 105.12 225.546 107.474 225.546 107.474Z" fill="#F2C8AA"/>
<path d="M163.384 60.368C163.384 60.368 163.659 61.5578 163.894 61.5603C164.13 61.5629 172.912 63.1757 179.548 63.0911C186.184 63.0065 190.438 61.0501 190.438 61.0501C190.438 61.0501 186.441 42.9296 180.653 35.2731C175.038 26.7655 168.912 22.9372 165.169 21.8321C161.425 20.727 164.318 25.5757 164.402 26.1706C164.487 26.7655 166.869 39.1013 165.679 47.5244C164.487 55.9475 163.382 60.3706 163.382 60.3706L163.384 60.368Z" fill="#0185FF"/>
<path d="M151.358 101.802C151.358 101.802 144.212 106.225 143.53 112.238C142.848 118.251 147.615 122.674 152.492 124.261C157.369 125.849 160.546 126.531 160.546 126.531C160.546 126.531 164.856 138.554 174.384 142.979L176.994 144.113L179.943 137.646C179.943 137.646 173.023 133.561 170.641 127.664C170.641 127.664 184.14 127.89 187.882 127.323C191.623 126.756 201.948 124.713 203.989 123.692C206.03 122.672 206.712 122.897 207.846 123.013C208.979 123.125 220.323 122.218 226.11 115.638L222.82 109.966C222.82 109.966 215.561 115.41 211.023 115.525C211.023 115.525 213.179 109.059 205.125 104.523C197.071 99.9844 194.235 97.2639 194.235 97.2639C194.235 97.2639 184.366 103.615 177.674 103.39C170.982 103.164 154.987 100.895 154.987 100.895L151.356 101.802H151.358Z" fill="#0185FF"/>
<path d="M158.448 93.2941C158.448 93.2941 157.512 97.1223 154.62 99.1633C151.728 101.204 150.11 103.674 149.941 104.438C149.771 105.202 149.6 107.671 153.002 107.756C156.405 107.84 160.915 104.438 160.915 104.438C160.915 104.438 160.489 107.84 165.253 108.181C170.017 108.522 171.379 105.374 171.379 105.374C171.379 105.374 173.846 108.435 177.42 108.181C180.994 107.925 181.843 105.543 181.843 105.543C181.843 105.543 185.417 108.435 188.648 108.094C191.879 107.753 192.476 104.692 192.476 104.692C192.476 104.692 197.835 109.202 202.089 107.925C204.982 107.245 203.876 104.181 203.194 103.502C202.515 102.822 198.515 100.609 198.515 100.609C198.515 100.609 195.028 98.312 194.941 94.653C194.941 94.653 191.366 100.522 178.776 100.694C166.184 100.863 159.548 95.5889 158.443 93.2915L158.448 93.2941Z" fill="#CCF6FF"/>
<path d="M147.305 83.4252C147.305 83.4252 147.815 80.4482 148.92 79.5124C150.025 78.5765 152.833 78.0944 152.833 78.0944C152.833 78.0944 154.194 71.3457 156.32 68.7072L163.125 60.9662L162.446 59.52C162.446 59.52 160.405 54.7559 150.535 54.1611C140.666 53.5662 136.838 65.1354 136.753 66.6662C136.669 68.197 136.923 75.8534 140.497 79.5124C144.071 83.1713 147.302 83.4252 147.302 83.4252H147.305Z" fill="#E96DF2"/>
<path d="M152.833 78.0944C152.833 78.0944 154.169 77.997 154.958 78.8329C155.748 79.6687 158.107 83.2559 159.892 83.4277C159.892 83.4277 159.125 77.8123 159.807 75.1764C160.489 72.5405 162.615 69.8175 163.381 68.8816C164.148 67.9457 167.635 64.1175 167.551 62.2457L164.317 61.479L163.125 60.9688C163.125 60.9688 154.753 66.7662 152.83 78.097L152.833 78.0944Z" fill="#E96DF2"/>
<path d="M156.322 68.7055C156.322 68.7055 161.738 61.985 163.128 60.9644L163.497 59.7157C163.497 59.7157 158.222 59.0644 156.804 61.7568C155.386 64.4516 155.386 66.2362 156.322 68.7055Z" fill="#FED607"/>
<path d="M174.33 76.3909C176.868 76.3909 178.925 73.9273 178.925 70.8883C178.925 67.8493 176.868 65.3857 174.33 65.3857C171.793 65.3857 169.735 67.8493 169.735 70.8883C169.735 73.9273 171.793 76.3909 174.33 76.3909Z" fill="#FFFAF0"/>
<path d="M186.199 75.453C187.422 74.4633 188.225 72.7889 188.225 70.8915C188.225 67.853 186.169 65.3889 183.63 65.3889C181.092 65.3889 179.035 67.853 179.035 70.8915C179.035 71.4761 179.112 72.0402 179.253 72.5684C179.253 72.5684 181.053 74.7428 181.758 74.9171C182.463 75.0915 184.594 75.2581 184.594 75.2581" fill="#FFFAF0"/>
<path d="M173.507 84.361L172.828 85.8072C172.828 85.8072 175.294 91.1661 182.015 90.4867C188.735 89.8072 189.843 84.8713 189.843 84.8713L188.907 83.679C188.907 83.679 184.938 86.1456 181.166 85.8918C177.394 85.6354 173.51 84.361 173.51 84.361H173.507Z" fill="#FFFAF0"/>
<path d="M173.507 84.3598C173.507 84.3598 179.974 85.8905 182.015 85.8905C184.056 85.8905 188.907 83.6777 188.907 83.6777C188.907 83.6777 186.44 80.9546 184.397 81.2957C182.356 81.6367 181.248 83.4213 181.248 83.4213C181.248 83.4213 179.207 81.4649 177.674 81.4649C176.14 81.4649 173.676 83.8469 173.505 84.3572L173.507 84.3598Z" fill="#0185FF"/>
<path d="M172.997 87.337C172.997 87.337 174.074 93.9165 181.761 94.1422C189.446 94.3678 189.589 85.8037 189.589 85.8037C189.589 85.8037 186.781 90.6524 181.592 90.4832C176.402 90.314 172.999 87.3345 172.999 87.3345L172.997 87.337Z" fill="#0185FF"/>
<path d="M201.838 124.829C201.838 124.829 181.987 129.48 170.643 127.665C170.643 127.665 175.182 135.493 181.759 138.554L184.708 139.575L189.018 140.824C189.018 140.824 190.833 142.752 190.151 143.772C189.472 144.793 189.472 145.247 189.472 145.247L187.885 148.082L186.636 148.99C186.636 148.99 187.09 150.011 186.069 150.352C185.049 150.693 184.028 150.465 184.028 150.465L180.397 147.97L178.582 144.68C178.582 144.68 164.856 140.141 160.546 126.531L152.492 124.262C152.492 124.262 135.818 129.593 134.91 153.3L139.22 162.603C139.22 162.603 173.251 170.657 184.141 169.408C195.031 168.159 216.81 160.447 216.81 160.447C216.81 160.447 214.541 146.721 210.913 141.39C207.285 136.059 201.951 130.726 201.838 124.829Z" fill="#CCF6FF"/>
<path d="M152.494 124.26C152.494 124.26 143.192 121.311 143.307 113.145C143.42 106.906 149.205 103.275 149.205 103.275C149.205 103.275 158.62 97.6037 158.451 93.2934C158.451 93.2934 156.046 90.3447 154.764 88.4165C154.764 88.4165 154.31 89.437 152.382 89.096C150.453 88.755 149.887 88.3011 149.205 87.6216C148.525 86.9422 147.502 84.2191 147.502 84.2191C147.502 84.2191 144.1 82.2909 140.243 82.4037C136.387 82.5165 125.043 87.055 124.248 95.6755C124.248 95.6755 115.061 101.914 115.287 111.783C115.512 121.652 122.207 129.14 129.466 130.273C135.138 131.293 139.223 128.799 140.015 128.686C140.807 128.573 146.028 126.983 147.502 127.099L152.494 124.263V124.26Z" fill="#FFF2B2"/>
<path d="M150.197 95.5925C150.197 95.5925 150.763 95.5669 150.876 94.9976L150.989 94.4258L151.812 94.6566L152.663 94.1464L153.515 95.3387L154.11 95.4233L154.366 93.7207L154.622 92.1899C154.622 92.1899 154.792 91.0848 154.197 90.8284C153.602 90.572 152.156 90.7438 152.156 90.7438L150.199 90.6592C150.199 90.6592 149.289 91.0694 149.263 91.3387C149.238 91.6079 149.433 93.5515 149.433 93.5515L150.199 95.5925H150.197Z" fill="#FFFAF0"/>
<path d="M152.246 90.5369C152.833 90.5369 153.31 90.0605 153.31 89.4728C153.31 88.8851 152.833 88.4087 152.246 88.4087C151.658 88.4087 151.181 88.8851 151.181 89.4728C151.181 90.0605 151.658 90.5369 152.246 90.5369Z" fill="#FED607"/>
<path d="M135.222 151.657C135.222 151.657 134.117 161.442 134.881 166.206C134.881 166.206 144.41 172.585 175.717 173.352C207.025 174.119 217.489 166.29 217.489 166.29C217.489 166.29 216.043 154.039 215.107 151.742C215.107 151.742 209.917 151.231 208.812 159.57C208.812 159.57 205.325 152.167 199.879 152.765C194.435 153.36 192.138 161.188 192.138 161.188C192.138 161.188 189.587 153.785 184.397 153.701C179.207 153.616 175.21 162.124 175.21 162.124C175.21 162.124 171.976 154.211 166.022 154.042C160.066 153.872 157.684 161.613 157.684 161.613C157.684 161.613 156.917 153.275 150.879 153.106C144.84 152.937 143.051 159.572 143.051 159.572C143.051 159.572 140.584 151.406 135.222 151.66V151.657Z" fill="#0185FF"/>
<path d="M184.823 140.255C184.823 140.255 186.92 142.296 188.397 142.296L191.12 137.248C191.12 137.248 193.671 136.453 193.333 133.05C193.333 133.05 194.751 134.355 195.602 134.127C196.453 133.901 197.02 132.54 197.076 131.971C197.133 131.401 197.361 129.532 197.984 129.135C198.607 128.737 201.953 128.227 202.012 127.263C202.071 126.299 201.987 125.486 201.446 125.165C200.905 124.845 198.553 123.181 198.553 123.181C198.553 123.181 198.328 122.104 198.269 121.707C198.21 121.309 198.156 118.586 197.248 118.304C196.34 118.022 195.661 118.473 195.433 118.645C195.205 118.817 193.448 120.742 192.881 120.686C192.315 120.63 189.081 119.835 189.081 119.835C189.081 119.835 187.664 120.004 187.438 120.686C187.212 121.368 187.722 122.501 187.722 122.501C187.722 122.501 188.687 125.053 188.402 125.791C188.117 126.53 186.417 128.912 186.417 128.912C186.417 128.912 186.133 130.104 187.325 130.442L188.517 130.783L188.292 131.407C188.292 131.407 186.135 132.712 187.328 135.435L184.833 140.255H184.823Z" fill="#FED607"/>
<path d="M183.689 150.239L180.4 147.97L173.933 160.277C173.933 160.277 171.21 160.165 170.928 161.129C170.643 162.093 172.743 164.077 172.743 164.077C172.743 164.077 170.305 164.985 169.851 166.459C169.397 167.934 170.248 169.521 171.269 169.918C172.289 170.316 174.502 170.316 175.069 169.295C175.635 168.275 175.692 167.254 175.635 166.913C175.579 166.572 175.012 164.872 175.012 164.872C175.012 164.872 178.018 165.78 178.471 164.703C178.925 163.626 177.394 162.152 177.394 162.152L183.689 150.242V150.239Z" fill="#FED607"/>
<path d="M190.153 137.024C191.751 137.024 193.046 135.729 193.046 134.131C193.046 132.534 191.751 131.239 190.153 131.239C188.556 131.239 187.261 132.534 187.261 134.131C187.261 135.729 188.556 137.024 190.153 137.024Z" fill="#FEE45E"/>
<path d="M172.799 170.088C174.272 170.088 175.466 168.894 175.466 167.421C175.466 165.949 174.272 164.755 172.799 164.755C171.327 164.755 170.133 165.949 170.133 167.421C170.133 168.894 171.327 170.088 172.799 170.088Z" fill="#FEE45E"/>
<path d="M178.632 164.329C178.989 163.358 177.562 161.94 175.445 161.161C173.328 160.383 171.322 160.538 170.965 161.508C170.608 162.478 172.035 163.896 174.152 164.675C176.269 165.454 178.275 165.299 178.632 164.329Z" fill="#FEE45E"/>
<path d="M163.384 60.3689C163.384 60.3689 163.894 61.3048 164.32 61.4741C164.745 61.6433 168.943 62.2125 168.943 62.2125L169.453 61.3613L170.984 59.3202L170.871 58.9792L167.525 58.6946L165.766 55.6895L165.369 56.1997L164.235 58.81L163.894 59.0946L163.384 60.3715V60.3689Z" fill="#FED607"/>
<path d="M173.592 54.7802L175.805 56.9366V60.3956L178.925 58.8648L182.156 59.9982L181.702 56.4828L183.746 53.9315L180.4 53.3059L178.412 50.47L178.074 50.8674L176.882 53.5341L174.158 54.1572L173.592 54.7802Z" fill="#FED607"/>
<path d="M189.474 56.1426L188.225 55.6323L187.658 59.1503L184.766 60.5682L185.107 61.1349L186.979 62.0426L190.438 61.0503L189.474 56.1426Z" fill="#FED607"/>
<path d="M181.135 49.2826L183.971 46.9005L186.297 47.1826L183.915 41.057L181.079 38.7903L180.794 39.4134L180.284 42.3621L177.279 44.0646L180.512 46.1057L181.135 49.2826Z" fill="#FED607"/>
<path d="M165.084 51.0404L167.353 50.1891L170.53 51.607L170.246 47.807L172.571 45.5378L169.338 44.6865L167.694 41.7378L167.297 42.0198L165.879 44.5173L165.084 51.0404Z" fill="#FED607"/>
<path d="M167.353 35.2704L170.133 36.973L170.871 40.1499L173.31 38.1063L176.769 38.5038L176.656 37.2551L175.692 35.1012L176.994 32.0371L176.484 31.8115L173.366 32.0961L171.21 30.0525L170.699 30.1653L170.189 33.173L167.353 34.7602V35.2704Z" fill="#FED607"/>
<path d="M164.517 27.3896L168.204 28.069L168.486 27.5024L167.069 24.3819L167.522 22.7383L164.517 21.7742L163.44 22.1716V23.3613L164.517 27.3896Z" fill="#FED607"/>
<path d="M174.528 143.316L178.866 145.019C178.866 145.019 180.312 140.709 182.779 139.46L182.522 138.893L178.353 136.852C178.353 136.852 176.822 137.363 177.587 139.66C177.587 139.66 174.184 141.106 174.525 143.319L174.528 143.316Z" fill="#E96DF2"/>
<path d="M221.746 110.82C221.746 110.82 222.597 112.607 224.297 112.607C224.297 112.607 224.212 115.841 225.317 116.095L228.379 113.484C228.379 113.484 227.812 108.125 225.543 107.471L221.743 110.818L221.746 110.82Z" fill="#E96DF2"/>
<path d="M166.604 83.8588C168.155 83.8588 169.412 82.6017 169.412 81.0511C169.412 79.5005 168.155 78.2434 166.604 78.2434C165.054 78.2434 163.797 79.5005 163.797 81.0511C163.797 82.6017 165.054 83.8588 166.604 83.8588Z" fill="#E96DF2"/>
<path d="M194.679 83.8588C196.23 83.8588 197.487 82.6017 197.487 81.0511C197.487 79.5005 196.23 78.2434 194.679 78.2434C193.129 78.2434 191.872 79.5005 191.872 81.0511C191.872 82.6017 193.129 83.8588 194.679 83.8588Z" fill="#E96DF2"/>
<path d="M155.092 88.5699C158.338 95.1879 165.32 100.78 177.507 100.78C195.543 100.78 199.461 89.7392 199.461 81.5622C199.461 72.0238 191.63 63.6879 190.61 61.134" stroke="#002140" stroke-linecap="round" stroke-linejoin="round"/>
<path d="M163.33 60.6982C163.33 60.6982 153.564 68.5444 152.871 77.8059" stroke="#002140" stroke-linecap="round" stroke-linejoin="round"/>
<path d="M174.274 76.5916C176.843 76.5916 178.925 74.0454 178.925 70.9045C178.925 67.7635 176.843 65.2173 174.274 65.2173C171.705 65.2173 169.623 67.7635 169.623 70.9045C169.623 74.0454 171.705 76.5916 174.274 76.5916Z" stroke="#002140" stroke-linecap="round" stroke-linejoin="round"/>
<path d="M174.274 67.4292C172.843 67.4292 171.631 68.3446 171.177 69.6189L174.274 70.7189L171.39 72.301C171.949 73.3189 173.031 74.0087 174.274 74.0087C176.092 74.0087 177.564 72.5369 177.564 70.7189C177.564 68.901 176.092 67.4292 174.274 67.4292Z" fill="#002140"/>
<path d="M167.553 65.6445C167.553 65.6445 168.007 67.5727 170.502 67.1189" stroke="#002140" stroke-linecap="round" stroke-linejoin="round"/>
<path d="M166.617 68.4775C166.617 68.4775 168.32 70.2929 169.679 69.2724" stroke="#002140" stroke-linecap="round" stroke-linejoin="round"/>
<path d="M179.058 71.6025C179.035 71.3743 179.025 71.141 179.025 70.9076C179.025 67.7666 181.107 65.2205 183.676 65.2205C186.246 65.2205 188.328 67.7666 188.328 70.9076C188.328 72.7897 187.582 74.4564 186.43 75.4923" stroke="#002140" stroke-linecap="round" stroke-linejoin="round"/>
<path d="M183.546 67.4292C182.115 67.4292 180.902 68.3446 180.448 69.6189L183.546 70.7189L180.661 72.301C181.22 73.3189 182.302 74.0087 183.546 74.0087C185.364 74.0087 186.835 72.5369 186.835 70.7189C186.835 68.901 185.364 67.4292 183.546 67.4292Z" fill="#002140"/>
<path d="M187.12 67.0061C187.12 67.0061 189.418 67.1753 189.671 65.6445" stroke="#002140" stroke-linecap="round" stroke-linejoin="round"/>
<path d="M188.141 69.0488C188.141 69.0488 190.438 69.218 190.692 67.6873" stroke="#002140" stroke-linecap="round" stroke-linejoin="round"/>
<path d="M178.92 71.594C179.781 73.0684 180.81 74.6735 182.463 75.094C183.294 75.3042 184.171 75.1786 185.027 75.2555C185.881 75.3325 186.815 75.7094 187.117 76.5119C187.404 77.2709 186.994 78.1581 186.343 78.6427C185.692 79.1273 184.858 79.2863 184.051 79.3607C183.12 79.4453 182.179 79.435 181.251 79.3325C180.807 79.2812 180.343 79.2017 179.992 78.9273C179.638 78.653 179.443 78.1273 179.671 77.7453C179.974 77.2376 180.756 77.3094 181.256 77.6273" stroke="#002140" stroke-linecap="round" stroke-linejoin="round"/>
<path d="M172.94 95.0496C172.94 95.0496 182.469 100.155 189.446 94.3701" stroke="#002140" stroke-linecap="round" stroke-linejoin="round"/>
<path d="M181.674 90.4019C188.225 90.4019 189.925 84.8993 189.925 84.8993C189.925 84.8993 187.543 81.2122 184.877 81.2122C182.21 81.2122 181.246 83.5942 181.246 83.5942C181.246 83.5942 179.884 81.3814 177.248 81.4686C174.61 81.5532 172.484 85.8916 172.484 85.8916C172.484 85.8916 175.123 90.4019 181.672 90.4019H181.674Z" stroke="#002140" stroke-linecap="round" stroke-linejoin="round"/>
<path d="M173.866 84.2387C173.866 84.2387 181.874 88.4131 188.566 83.8772" stroke="#002140" stroke-linecap="round" stroke-linejoin="round"/>
<path d="M172.487 85.8915C172.487 85.8915 173.764 94.0863 181.533 94.0863C189.302 94.0863 189.928 84.8992 189.928 84.8992" stroke="#002140" stroke-linecap="round" stroke-linejoin="round"/>
<path d="M181.476 86.1489V90.0053" stroke="#002140" stroke-linecap="round" stroke-linejoin="round"/>
<path d="M177.392 85.6384C177.392 85.6384 176.882 87.4538 177.051 89.1538" stroke="#002140" stroke-linecap="round" stroke-linejoin="round"/>
<path d="M185.333 85.5242C185.333 85.5242 186.241 87.3396 186.184 89.0396" stroke="#002140" stroke-linecap="round" stroke-linejoin="round"/>
<path d="M153.697 88.942C153.794 88.9138 153.889 88.8805 153.982 88.842C155.369 88.2805 155.905 87.1241 157.597 87.7343" stroke="#002140" stroke-linecap="round" stroke-linejoin="round"/>
<path d="M167.679 62.3811C166.933 68.0683 156.833 70.2375 160.151 83.3401C158.308 83.3401 156.826 80.8734 155.751 79.6657C152.726 76.2657 148.502 78.399 147.559 82.2914C147.074 84.2939 147.605 86.4298 149.208 87.7965C149.659 88.1837 150.228 88.5144 150.846 88.7452" stroke="#002140" stroke-linecap="round" stroke-linejoin="round"/>
<path d="M190.607 61.1355C190.607 61.1355 183.543 26.6688 164.63 21.5765C163.866 21.3714 163.164 22.0586 163.358 22.8252C168.074 41.4355 164.502 56.3278 163.361 60.2765C163.197 60.8457 163.548 61.4329 164.128 61.5611C167.887 62.3945 180.658 64.7688 190.607 61.1355Z" stroke="#002140" stroke-linecap="round" stroke-linejoin="round"/>
<path d="M200.9 124.847C207.315 122.608 211.305 118.975 211.305 113.485C211.305 102.765 194.918 103.331 194.918 94.8237" stroke="#002140" stroke-linecap="round" stroke-linejoin="round"/>
<path d="M170.625 127.669C172.797 127.787 175.041 127.843 177.341 127.843C180.771 127.843 184.082 127.723 187.202 127.456" stroke="#002140" stroke-linecap="round" stroke-linejoin="round"/>
<path d="M158.279 93.4629C158.279 100.268 143.374 102.878 143.374 113.483C143.374 120.624 150.266 124.658 160.494 126.532" stroke="#002140" stroke-linecap="round" stroke-linejoin="round"/>
<path d="M150.82 80.8215C151.874 82.5113 153.743 83.6677 155.725 83.8574" stroke="#002140" stroke-linecap="round" stroke-linejoin="round"/>
<path d="M153.361 83.2766C152.625 83.8407 152.215 84.8023 152.315 85.7228" stroke="#002140" stroke-linecap="round" stroke-linejoin="round"/>
<path d="M152.236 90.7453C152.966 90.7453 153.559 90.1529 153.559 89.4222C153.559 88.6915 152.966 88.0991 152.236 88.0991C151.505 88.0991 150.913 88.6915 150.913 89.4222C150.913 90.1529 151.505 90.7453 152.236 90.7453Z" stroke="#002140" stroke-linecap="round" stroke-linejoin="round"/>
<path d="M151.492 90.5612C151.043 90.4176 150.541 90.3945 150.102 90.5714C149.664 90.7458 149.302 91.1406 149.233 91.6073C149.146 92.2048 149.523 92.7637 149.656 93.3535C149.769 93.856 149.7 94.3817 149.782 94.8894C149.836 95.2278 150.051 95.6253 150.395 95.5945C150.631 95.574 150.797 95.3483 150.864 95.1201C150.931 94.8919 150.925 94.6509 150.99 94.4227C151.041 94.2432 151.213 94.0432 151.379 94.1253C151.536 94.1996 151.513 94.4278 151.597 94.5791C151.697 94.756 151.974 94.7919 152.115 94.6458C152.231 94.5278 152.246 94.333 152.372 94.2278C152.564 94.0663 152.872 94.2253 152.992 94.4432C153.113 94.6612 153.125 94.9278 153.231 95.1535C153.377 95.474 153.787 95.7022 154.09 95.5227C154.461 95.3047 154.364 94.7535 154.3 94.3253C154.208 93.7073 154.3 93.0612 154.556 92.4919C154.631 92.3278 154.718 92.1714 154.761 91.9971C154.867 91.5663 154.664 91.0945 154.313 90.8253C153.961 90.556 153.487 90.4791 153.051 90.556" stroke="#002140" stroke-linecap="round" stroke-linejoin="round"/>
<path d="M147.34 83.6379C141.187 81.861 136.669 76.002 136.669 69.0481C136.669 60.684 143.202 53.9045 151.258 53.9045C155.589 53.9045 159.669 55.6994 162.61 59.4174" stroke="#002140" stroke-linecap="round" stroke-linejoin="round"/>
<path d="M156.338 68.6397C155.102 66.8013 155.089 64.1936 156.492 62.0782C158.079 59.6884 160.951 58.7218 163.315 59.6269" stroke="#002140" stroke-linecap="round" stroke-linejoin="round"/>
<path d="M156.748 61.1349C156.748 61.1349 154.535 59.0093 150.707 58.9221" stroke="#002140" stroke-linecap="round" stroke-linejoin="round"/>
<path d="M155.387 64.4533C155.387 64.4533 152.494 64.9636 149.559 63.7302" stroke="#002140" stroke-linecap="round" stroke-linejoin="round"/>
<path d="M155.472 66.792C155.472 66.792 149.772 67.8125 149.772 72.2792" stroke="#002140" stroke-linecap="round" stroke-linejoin="round"/>
<path d="M161.115 104.127C161.115 104.127 160.32 108.183 165.341 108.183C170.361 108.183 171.325 105.15 171.325 105.15C171.325 105.15 172.951 108.183 176.887 108.183C180.823 108.183 181.846 105.206 181.846 105.206C181.846 105.206 184.138 108.183 188.054 108.183C191.969 108.183 192.536 104.552 192.536 104.552" stroke="#002140" stroke-linecap="round" stroke-linejoin="round"/>
<path d="M151.44 101.588C148.92 104.695 149.092 107.757 152.92 107.757C156.748 107.757 161.115 104.126 161.115 104.126" stroke="#002140" stroke-linecap="round" stroke-linejoin="round"/>
<path d="M203.243 103.55C204.571 106.055 203.923 108.181 200.733 108.181C196.905 108.181 192.538 104.55 192.538 104.55" stroke="#002140" stroke-linecap="round" stroke-linejoin="round"/>
<path d="M202.092 125.919C202.005 125.455 201.933 124.973 201.879 124.473" stroke="#002140" stroke-linecap="round" stroke-linejoin="round"/>
<path d="M152.825 124.455C142.284 128.006 133.097 139.406 134.81 166.319C143.818 172.075 194.182 178.711 217.664 166.29C215.469 139.478 205.038 137.229 202.348 127.188" stroke="#002140" stroke-linecap="round" stroke-linejoin="round"/>
<path d="M181.869 154.198C182.577 153.936 183.333 153.785 184.143 153.785C190.269 153.785 191.971 161.952 191.971 161.952C191.971 161.952 193.451 153.88 199.602 152.895C205.754 151.911 208.818 159.908 208.818 159.908C208.818 159.908 209.243 151.57 215.112 151.57" stroke="#002140" stroke-linecap="round" stroke-linejoin="round"/>
<path d="M135.069 151.477C141.095 151.477 142.967 159.823 142.967 159.823C142.967 159.823 143.902 153.187 150.113 153.187C156.323 153.187 157.6 161.951 157.6 161.951C157.6 161.951 159.795 153.93 166.056 153.93C170.3 153.93 172.8 157.848 173.972 160.374" stroke="#002140" stroke-linecap="round" stroke-linejoin="round"/>
<path d="M147.341 127.163C140.072 127.163 139.379 130.555 132.282 130.555C123.695 130.555 115.338 122.253 115.338 112.009C115.338 101.765 123.123 93.4629 132.282 93.4629C141.441 93.4629 145.828 102.289 148.813 103.127" stroke="#002140" stroke-linecap="round" stroke-linejoin="round"/>
<path d="M122.038 115.924C121.631 114.637 121.405 113.265 121.405 111.842C121.405 104.48 127 98.511 133.585 98.511" stroke="#002140" stroke-linecap="round" stroke-linejoin="round"/>
<path d="M124.295 95.7005C124.295 89.2082 133.071 82.5312 140.361 82.5312C143.118 82.5312 145.441 83.3312 147.425 84.4697" stroke="#002140" stroke-linecap="round" stroke-linejoin="round"/>
<path d="M134.969 105.716C134.969 105.716 140.669 109.545 143.987 109.714" stroke="#002140" stroke-linecap="round" stroke-linejoin="round"/>
<path d="M143.815 117.372C143.815 117.372 139.305 117.541 134.882 119.413" stroke="#002140" stroke-linecap="round" stroke-linejoin="round"/>
<path d="M143.374 113.488C143.374 113.488 138.456 114.139 134.118 112.778" stroke="#002140" stroke-linecap="round" stroke-linejoin="round"/>
<path d="M159.641 113.88C159.641 113.88 155.897 136.17 178.697 145.019" stroke="#002140" stroke-linecap="round" stroke-linejoin="round"/>
<path d="M167.892 112.69C167.892 112.69 164.659 130.552 183.29 139.401" stroke="#002140" stroke-linecap="round" stroke-linejoin="round"/>
<path d="M178.697 145.021C178.697 145.021 179.545 140.336 183.289 139.403" stroke="#002140" stroke-linecap="round" stroke-linejoin="round"/>
<path d="M178.697 145.019C179.974 145.955 179.604 148.309 184.14 150.237" stroke="#002140" stroke-linecap="round" stroke-linejoin="round"/>
<path d="M180.548 148.075L173.838 160.629" stroke="#002140" stroke-linecap="round" stroke-linejoin="round"/>
<path d="M187.187 135.65L184.792 140.13" stroke="#002140" stroke-linecap="round" stroke-linejoin="round"/>
<path d="M183.789 150.395L177.389 162.369" stroke="#002140" stroke-linecap="round" stroke-linejoin="round"/>
<path d="M190.746 137.375L188.097 142.331" stroke="#002140" stroke-linecap="round" stroke-linejoin="round"/>
<path d="M198.13 119.458L198.259 122.494C198.279 122.982 198.538 123.425 198.951 123.684L201.525 125.299C202.564 125.951 202.405 127.51 201.256 127.938L198.407 128.999C197.951 129.169 197.607 129.553 197.489 130.025L196.748 132.974C196.451 134.164 194.918 134.494 194.156 133.533L192.266 131.151C191.964 130.769 191.492 130.561 191.007 130.594L187.974 130.802C186.751 130.887 185.964 129.53 186.641 128.51L188.32 125.976C188.59 125.571 188.641 125.058 188.461 124.607L187.328 121.787C186.872 120.648 187.915 119.482 189.097 119.81L192.025 120.625C192.495 120.756 192.997 120.648 193.372 120.335L195.702 118.387C196.643 117.599 198.077 118.233 198.128 119.458H198.13Z" stroke="#002140" stroke-linecap="round" stroke-linejoin="round"/>
<path d="M165.82 44.474L167.21 41.9202C167.371 41.6253 167.802 41.6407 167.938 41.9484L169.12 44.6048C169.174 44.7279 169.287 44.815 169.418 44.8381L172.277 45.3689C172.607 45.4304 172.725 45.8458 172.474 46.0714L170.312 48.0176C170.212 48.1073 170.164 48.2407 170.182 48.3714L170.559 51.2535C170.602 51.5868 170.243 51.8279 169.954 51.6586L167.436 50.2048C167.32 50.1381 167.179 50.133 167.059 50.1894L165.33 51.0125" stroke="#002140" stroke-linecap="round" stroke-linejoin="round"/>
<path d="M178.83 50.6492L180.261 53.18C180.328 53.2954 180.446 53.3723 180.579 53.3851L183.474 53.6415C183.81 53.6723 183.966 54.0723 183.738 54.321L181.774 56.4646C181.684 56.562 181.648 56.7005 181.677 56.8313L182.328 59.6646C182.402 59.9928 182.069 60.2646 181.764 60.1261L179.12 58.9184C179 58.862 178.856 58.8697 178.743 58.9389L176.251 60.4338C175.961 60.6082 175.6 60.3748 175.638 60.0389L175.969 57.1518C175.984 57.0184 175.933 56.8877 175.833 56.7979L173.641 54.8877C173.387 54.6672 173.497 54.2492 173.828 54.1825L176.677 53.603C176.807 53.5774 176.918 53.4877 176.969 53.3646L178.107 50.6902C178.238 50.38 178.669 50.3569 178.835 50.6492H178.83Z" stroke="#002140" stroke-linecap="round" stroke-linejoin="round"/>
<path d="M171.312 30.0081L173.32 32.1107C173.412 32.2081 173.546 32.2517 173.679 32.2312L176.548 31.7697C176.882 31.7158 177.13 32.0671 176.971 32.3646L175.592 34.9235C175.528 35.0415 175.528 35.1825 175.589 35.303L176.915 37.8902C177.069 38.1902 176.812 38.5364 176.482 38.4748L173.623 37.9543C173.492 37.9312 173.356 37.9723 173.261 38.0671L171.21 40.1287C170.971 40.3671 170.564 40.2312 170.52 39.8953L170.13 37.0133C170.112 36.8799 170.03 36.7646 169.912 36.7056L167.318 35.3928C167.018 35.2415 167.02 34.8107 167.325 34.6646L169.946 33.4056C170.066 33.3466 170.151 33.2338 170.171 33.103L170.618 30.2312C170.669 29.8979 171.079 29.7697 171.312 30.0133V30.0081Z" stroke="#002140" stroke-linecap="round" stroke-linejoin="round"/>
<path d="M167.751 22.7598L166.984 24.1803C166.918 24.3059 166.915 24.4546 166.979 24.5828L168.389 27.3316C168.553 27.6495 168.279 28.0187 167.928 27.9546L164.887 27.4008C164.746 27.3752 164.602 27.4213 164.502 27.5213" stroke="#002140" stroke-linecap="round" stroke-linejoin="round"/>
<path d="M186.297 47.1819L183.915 46.8408C183.781 46.8203 183.648 46.8665 183.556 46.9639L181.556 49.0742C181.325 49.3178 180.912 49.1921 180.858 48.8588L180.399 45.987C180.379 45.8537 180.294 45.7408 180.174 45.6844L177.548 44.4357C177.243 44.2921 177.238 43.8614 177.538 43.7075L180.125 42.3844C180.243 42.3229 180.325 42.2075 180.343 42.0742L180.72 39.1921C180.764 38.8588 181.171 38.7203 181.41 38.9562L183.807 41.3203" stroke="#002140" stroke-linecap="round" stroke-linejoin="round"/>
<path d="M187.046 62.066L185.036 61.1095C184.73 60.966 184.725 60.5352 185.025 60.3813L187.612 59.0583C187.73 58.9967 187.812 58.8813 187.83 58.748L188.207 55.866C188.251 55.5326 188.659 55.3942 188.897 55.6301L189.405 56.3711" stroke="#002140" stroke-linecap="round" stroke-linejoin="round"/>
<path d="M163.966 58.9905C164.097 58.9649 164.207 58.8751 164.258 58.752L165.397 56.0777C165.528 55.7674 165.959 55.7443 166.125 56.0367L167.556 58.5674C167.623 58.6828 167.741 58.7597 167.874 58.7726L170.769 59.029C171.105 59.0597 171.261 59.4597 171.033 59.7084L169.069 61.852C168.979 61.9495 168.943 62.0879 168.971 62.2187" stroke="#002140" stroke-linecap="round" stroke-linejoin="round"/>
<path d="M190.202 137.283C191.972 137.283 193.407 135.848 193.407 134.078C193.407 132.308 191.972 130.873 190.202 130.873C188.432 130.873 186.997 132.308 186.997 134.078C186.997 135.848 188.432 137.283 190.202 137.283Z" stroke="#002140" stroke-linecap="round" stroke-linejoin="round"/>
<path d="M172.654 170.409C174.282 170.409 175.603 169.089 175.603 167.46C175.603 165.832 174.282 164.511 172.654 164.511C171.025 164.511 169.705 165.832 169.705 167.46C169.705 169.089 171.025 170.409 172.654 170.409Z" stroke="#002140" stroke-linecap="round" stroke-linejoin="round"/>
<path d="M178.457 164.56C178.873 163.635 177.542 162.136 175.484 161.211C173.427 160.286 171.422 160.286 171.006 161.211C170.59 162.136 171.921 163.635 173.979 164.56C176.037 165.485 178.042 165.485 178.457 164.56Z" stroke="#002140" stroke-linecap="round" stroke-linejoin="round"/>
<path d="M177.846 198.618C202.748 198.618 222.935 195.571 222.935 191.812C222.935 188.054 202.748 185.007 177.846 185.007C152.943 185.007 132.756 188.054 132.756 191.812C132.756 195.571 152.943 198.618 177.846 198.618Z" fill="#002140"/>
<path d="M211.276 115.732C215.487 114.801 220.223 112.317 225.405 107.414" stroke="#002140" stroke-linecap="round" stroke-linejoin="round"/>
<path d="M205.248 122.854C211.605 123.764 219.605 122.008 228.553 113.544" stroke="#002140" stroke-linecap="round" stroke-linejoin="round"/>
<path d="M225.405 107.417C225.405 107.417 228.466 109.12 228.553 113.543" stroke="#002140" stroke-linecap="round" stroke-linejoin="round"/>
<path d="M221.828 110.65C222.046 111.768 223.179 112.627 224.315 112.537C224.079 113.953 224.128 115.412 225.32 116.178" stroke="#002140" stroke-linecap="round" stroke-linejoin="round"/>
<path d="M178.384 136.726C177.4 137.477 177.089 138.934 177.705 139.918C176.22 140.406 174.825 141.172 174.635 142.634" stroke="#002140" stroke-linecap="round" stroke-linejoin="round"/>
<path d="M202.305 127.024L202.22 126.642" stroke="#002140" stroke-linecap="round" stroke-linejoin="round"/>
<path d="M231.81 105.099C232.623 105.035 233.517 105.004 234.507 105.004" stroke="#002140" stroke-linecap="round" stroke-linejoin="round"/>
<path d="M228.11 114.034C229.148 113.241 230.561 113.205 231.869 113.205C234.612 113.205 240.099 113.205 240.099 113.205C240.099 113.205 241.333 113.259 241.725 112.859C242.12 112.457 241.989 111.9 241.63 111.513C241.312 111.175 240.864 110.988 240.415 110.872C239.63 110.675 238.812 110.667 238.005 110.662C236.838 110.654 235.671 110.646 234.505 110.641" stroke="#002140" stroke-linecap="round" stroke-linejoin="round"/>
<path d="M241.307 111.234C241.479 111.183 241.631 111.111 241.728 111.011C242.123 110.609 241.992 110.052 241.633 109.665C241.315 109.327 240.866 109.139 240.418 109.024C239.633 108.827 238.815 108.819 238.007 108.814C236.841 108.806 235.674 108.798 234.507 108.793" stroke="#002140" stroke-linecap="round" stroke-linejoin="round"/>
<path d="M241.307 109.362C241.479 109.311 241.631 109.239 241.728 109.139C242.123 108.737 241.992 108.18 241.633 107.793C241.315 107.454 240.866 107.267 240.418 107.152C239.633 106.954 238.815 106.947 238.007 106.942C236.841 106.934 235.674 106.926 234.507 106.921" stroke="#002140" stroke-linecap="round" stroke-linejoin="round"/>
<path d="M241.307 107.445C241.479 107.394 241.631 107.322 241.728 107.222C242.123 106.819 241.992 106.263 241.633 105.876C241.315 105.537 240.866 105.35 240.418 105.235C239.633 105.037 238.815 105.03 238.007 105.024C236.841 105.017 235.674 105.009 234.507 105.004" stroke="#002140" stroke-linecap="round" stroke-linejoin="round"/>
<path d="M231.246 107.528C231.41 107.384 231.492 107.171 231.551 106.964C231.728 106.338 231.756 105.669 231.631 105.03C231.948 104.543 232.436 104.056 232.772 103.582C233.107 103.107 233.266 102.412 232.895 101.966C232.692 101.725 232.366 101.607 232.054 101.615C231.741 101.623 231.436 101.74 231.169 101.907C230.372 102.405 229.905 103.276 229.351 104.038C228.697 104.938 226.997 105.687 225.41 107.417" stroke="#002140" stroke-linecap="round" stroke-linejoin="round"/>
<path d="M184.143 150.239C184.143 150.239 186.356 151.316 186.866 148.877" stroke="#002140" stroke-linecap="round" stroke-linejoin="round"/>
<path d="M183.379 147.252C183.971 147.677 184.692 148.093 185.574 148.467" stroke="#002140" stroke-linecap="round" stroke-linejoin="round"/>
<path d="M185.574 148.466C185.574 148.466 187.787 149.543 188.297 147.104" stroke="#002140" stroke-linecap="round" stroke-linejoin="round"/>
<path d="M184.394 145.347C184.997 145.791 185.738 146.221 186.653 146.608" stroke="#002140" stroke-linecap="round" stroke-linejoin="round"/>
<path d="M186.651 146.606C186.651 146.606 188.864 147.683 189.374 145.244" stroke="#002140" stroke-linecap="round" stroke-linejoin="round"/>
<path d="M185.243 143.238C185.913 143.791 186.779 144.338 187.912 144.82" stroke="#002140" stroke-linecap="round" stroke-linejoin="round"/>
<path d="M187.915 144.822C187.915 144.822 189.8 145.743 190.353 143.617C190.779 142.299 188.941 140.758 188.941 140.758" stroke="#002140" stroke-linecap="round" stroke-linejoin="round"/>
<path d="M183.292 139.403C183.974 139.703 184.433 139.59 185.125 139.467" stroke="#002140" stroke-linecap="round" stroke-linejoin="round"/>
<path d="M184.792 140.13C185.546 141.489 188.259 142.592 188.866 142.538" stroke="#002140" stroke-linecap="round" stroke-linejoin="round"/>
<path d="M161.115 104.128C161.115 104.128 163.554 101.377 163.725 97.7178" stroke="#002140" stroke-linecap="round" stroke-linejoin="round"/>
<path d="M171.323 105.148C171.323 105.148 172.359 102.889 172.166 100.389" stroke="#002140" stroke-linecap="round" stroke-linejoin="round"/>
<path d="M181.948 105.405C181.948 105.405 181.166 103.333 181.079 100.951" stroke="#002140" stroke-linecap="round" stroke-linejoin="round"/>
<path d="M192.779 104.711C192.779 104.711 189.418 101.716 189.246 98.6521" stroke="#002140" stroke-linecap="round" stroke-linejoin="round"/>
<path d="M142.966 159.821V169.011" stroke="#002140" stroke-linecap="round" stroke-linejoin="round"/>
<path d="M157.597 161.525V171.648" stroke="#002140" stroke-linecap="round" stroke-linejoin="round"/>
<path d="M191.969 161.525V172.722" stroke="#002140" stroke-linecap="round" stroke-linejoin="round"/>
<path d="M208.815 159.313C208.815 159.313 209.633 164.759 209.692 169.523" stroke="#002140" stroke-linecap="round" stroke-linejoin="round"/>
<path d="M173.933 170.287V173.01" stroke="#002140" stroke-linecap="round" stroke-linejoin="round"/>
<path d="M251.359 90.0822L251.304 87.6011C251.304 87.6011 250.379 85.514 249.925 85.4492C249.471 85.3843 235.143 80.3748 235.143 80.3748C235.143 80.3748 233.819 80.7064 233.323 80.8161C232.827 80.9258 220.139 85.2846 220.139 85.2846C220.139 85.2846 218.925 85.8357 218.596 87.2146C218.267 88.5936 218.155 90.4139 218.155 90.4139C218.155 90.4139 217.823 90.7455 217.768 91.516C217.713 92.289 217.823 107.841 217.823 107.841C217.823 107.841 217.713 108.779 218.87 108.834C220.03 108.889 251.633 108.834 251.633 108.834C251.633 108.834 252.239 108.338 252.239 107.732C252.239 107.126 252.459 90.7979 252.459 90.7979C252.459 90.7979 251.962 89.97 251.356 90.0797L251.359 90.0822Z" fill="#FFFAF0"/>
<path d="M225.678 97.2763C225.678 97.2763 227.471 90.207 226.521 90.2219C225.571 90.2369 218.374 90.3591 218.374 90.3591C218.374 90.3591 217.768 90.5237 217.768 91.0199V91.5161L225.68 97.2738L225.678 97.2763Z" fill="#FFD7B0"/>
<path d="M241.994 98.2887C242.298 98.9445 252.462 90.8005 252.462 90.8005C252.462 90.8005 252.185 89.9178 251.359 90.0823C250.534 90.2469 246.135 89.7382 244.851 90.2469C243.567 90.7556 241.689 97.6279 241.994 98.2862V98.2887Z" fill="#FFD7B0"/>
<path d="M222.297 92.5882L222.638 94.9994L227.364 98.4655L242.37 98.3034C242.37 98.3034 246.429 94.9172 246.818 94.8598C247.18 87.6908 250.938 80.6739 250.938 80.6739L250.414 80.2575L247.759 80.7038L246.222 79.2501L243.799 80.8659L241.535 79.088L238.704 80.7038L237.006 78.8436L234.176 80.5417L233.044 78.3599L230.296 80.3797L227.952 78.4397C227.952 78.4397 222.294 81.0255 222.294 92.5857L222.297 92.5882Z" fill="#FBCCFF"/>
<path d="M222.152 90.6015C222.364 90.6015 222.537 90.4293 222.537 90.2168C222.537 90.0044 222.364 89.8322 222.152 89.8322V90.6015ZM218.506 90.2168L218.504 90.6015H218.506V90.2168ZM222.152 89.8322H218.506V90.6015H222.152V89.8322ZM218.508 89.8322C217.818 89.8286 217.259 90.3888 217.259 91.0771H218.028C218.028 90.8129 218.242 90.6001 218.504 90.6015L218.508 89.8322ZM217.259 91.0771V108.043H218.028V91.0771H217.259ZM217.259 108.043C217.259 108.732 217.818 109.291 218.506 109.291V108.522C218.242 108.522 218.028 108.307 218.028 108.043H217.259ZM218.506 109.291H251.501V108.522H218.506V109.291ZM251.501 109.291C252.19 109.291 252.749 108.732 252.749 108.043H251.979C251.979 108.307 251.765 108.522 251.501 108.522V109.291ZM252.749 108.043V91.0771H251.979V108.043H252.749ZM252.749 91.0771C252.749 90.3884 252.19 89.8297 251.501 89.8297V90.599C251.765 90.599 251.979 90.8133 251.979 91.0771H252.749ZM251.501 89.8297H247.636V90.599H251.501V89.8297Z" fill="#002140"/>
<path d="M221.782 108.69C221.686 108.879 221.761 109.111 221.951 109.207C222.14 109.303 222.372 109.227 222.468 109.038L221.782 108.69ZM222.468 109.038L227.652 98.8064L226.966 98.4587L221.782 108.69L222.468 109.038Z" fill="#002140"/>
<path d="M242.438 98.3457C242.347 98.1538 242.118 98.072 241.926 98.163C241.734 98.2539 241.652 98.4833 241.743 98.6753L242.438 98.3457ZM241.743 98.6753L246.64 109.006L247.335 108.677L242.438 98.3457L241.743 98.6753Z" fill="#002140"/>
<path d="M249.297 84.919C249.096 84.8488 248.877 84.9544 248.807 85.1549C248.736 85.3554 248.842 85.5748 249.043 85.645L249.297 84.919ZM249.469 85.3867L249.597 85.0241L249.596 85.0237L249.469 85.3867ZM251.304 87.9202L250.92 87.9236L250.92 87.9238L251.304 87.9202ZM249.043 85.645L249.342 85.7497L249.596 85.0237L249.297 84.919L249.043 85.645ZM249.341 85.7493C250.285 86.0834 250.911 86.9529 250.92 87.9236L251.689 87.9168C251.677 86.6134 250.837 85.463 249.597 85.0241L249.341 85.7493ZM250.92 87.9238L250.94 90.0309L251.709 90.0236L251.689 87.9165L250.92 87.9238Z" fill="#002140"/>
<path d="M217.99 89.9723C217.99 90.1847 218.162 90.3569 218.374 90.3569C218.587 90.3569 218.759 90.1847 218.759 89.9723H217.99ZM220.224 85.2196L220.35 85.583L220.351 85.5829L220.224 85.2196ZM218.759 89.9723V87.783H217.99V89.9723H218.759ZM218.759 87.783C218.759 86.7988 219.392 85.9147 220.35 85.583L220.099 84.8561C218.838 85.2925 217.99 86.4631 217.99 87.783H218.759ZM220.351 85.5829L223.824 84.376L223.572 83.6494L220.098 84.8563L220.351 85.5829Z" fill="#002140"/>
<path d="M217.99 91.3691C217.817 91.2464 217.577 91.2876 217.454 91.461C217.332 91.6345 217.373 91.8745 217.546 91.9971L217.99 91.3691ZM227.364 98.4681L227.142 98.7821C227.206 98.828 227.284 98.8527 227.364 98.8527V98.4681ZM242.148 98.4681V98.8527C242.229 98.8527 242.308 98.8272 242.373 98.7797L242.148 98.4681ZM217.546 91.9971L227.142 98.7821L227.586 98.154L217.99 91.3691L217.546 91.9971ZM227.364 98.8527H242.148V98.0835H227.364V98.8527ZM242.373 98.7797L252.59 91.3888L252.139 90.7655L241.922 98.1565L242.373 98.7797Z" fill="#002140"/>
<path d="M222.045 95.0629C222.097 95.269 222.306 95.3943 222.512 95.3428C222.718 95.2913 222.843 95.0824 222.792 94.8764L222.045 95.0629ZM227.997 78.1206L228.301 77.8849C228.232 77.7964 228.128 77.7423 228.016 77.7365C227.905 77.7307 227.796 77.774 227.719 77.8549L227.997 78.1206ZM229.877 80.5444L229.573 80.7801C229.635 80.8607 229.727 80.9132 229.829 80.9259C229.93 80.9387 230.032 80.9108 230.113 80.8482L229.877 80.5444ZM232.847 78.2403L233.179 78.0476C233.124 77.9515 233.029 77.8841 232.92 77.8628C232.811 77.8415 232.699 77.8684 232.611 77.9364L232.847 78.2403ZM234.181 80.5444L233.848 80.7371C233.902 80.8302 233.992 80.8964 234.097 80.9198C234.202 80.9431 234.312 80.9215 234.4 80.8601L234.181 80.5444ZM236.968 78.6044L237.25 78.3426C237.12 78.2022 236.906 78.1792 236.749 78.2887L236.968 78.6044ZM238.891 80.674L238.609 80.9358C238.741 81.0774 238.957 81.0994 239.114 80.9872L238.891 80.674ZM241.577 78.759L241.851 78.4889C241.718 78.3544 241.507 78.3361 241.353 78.4458L241.577 78.759ZM243.651 80.8635L243.377 81.1335C243.504 81.2619 243.703 81.2852 243.855 81.1895L243.651 80.8635ZM246.489 79.0856L246.765 78.8183C246.639 78.6877 246.439 78.6632 246.285 78.7597L246.489 79.0856ZM248.307 80.9658L248.03 81.2331C248.138 81.3443 248.301 81.3803 248.446 81.3244L248.307 80.9658ZM251.277 80.0556L251.612 80.244C251.684 80.115 251.676 79.9557 251.591 79.8346C251.506 79.7134 251.359 79.6519 251.213 79.6763L251.277 80.0556ZM222.419 94.9696C222.792 94.8764 222.792 94.8765 222.792 94.8766C222.792 94.8766 222.792 94.8767 222.792 94.8767C222.792 94.8767 222.792 94.8766 222.792 94.8763C222.792 94.8758 222.791 94.8747 222.791 94.8731C222.79 94.8699 222.789 94.8647 222.787 94.8574C222.784 94.8428 222.779 94.82 222.772 94.7893C222.759 94.7278 222.74 94.6348 222.719 94.5125C222.676 94.2678 222.623 93.9061 222.582 93.4453C222.501 92.5235 222.471 91.2075 222.679 89.6413C223.094 86.5126 224.459 82.3797 228.275 78.3863L227.719 77.8549C223.774 81.9831 222.35 86.2747 221.916 89.5401C221.7 91.171 221.73 92.5444 221.816 93.5128C221.858 93.9972 221.915 94.3807 221.961 94.645C221.984 94.7772 222.005 94.8796 222.02 94.95C222.027 94.9852 222.033 95.0124 222.038 95.0313C222.04 95.0408 222.042 95.0482 222.043 95.0535C222.044 95.0561 222.044 95.0582 222.045 95.0598C222.045 95.0606 222.045 95.0612 222.045 95.0618C222.045 95.062 222.045 95.0623 222.045 95.0624C222.045 95.0627 222.045 95.0629 222.419 94.9696ZM227.693 78.3563L229.573 80.7801L230.181 80.3086L228.301 77.8849L227.693 78.3563ZM230.113 80.8482L233.082 78.5442L232.611 77.9364L229.641 80.2405L230.113 80.8482ZM232.514 78.433L233.848 80.7371L234.514 80.3516L233.179 78.0476L232.514 78.433ZM234.4 80.8601L237.188 78.9201L236.749 78.2887L233.961 80.2287L234.4 80.8601ZM236.687 78.8661L238.609 80.9358L239.173 80.4123L237.25 78.3426L236.687 78.8661ZM239.114 80.9872L241.8 79.0721L241.353 78.4458L238.668 80.3609L239.114 80.9872ZM241.303 79.029L243.377 81.1335L243.925 80.5935L241.851 78.4889L241.303 79.029ZM243.855 81.1895L246.693 79.4115L246.285 78.7597L243.447 80.5376L243.855 81.1895ZM246.212 79.353L248.03 81.2331L248.583 80.6984L246.765 78.8183L246.212 79.353ZM248.307 80.9658C248.446 81.3244 248.446 81.3244 248.446 81.3244C248.446 81.3244 248.446 81.3244 248.446 81.3244C248.446 81.3244 248.446 81.3244 248.446 81.3244C248.446 81.3243 248.446 81.3242 248.447 81.324C248.447 81.3237 248.449 81.3232 248.45 81.3226C248.454 81.3213 248.459 81.3193 248.466 81.3167C248.479 81.3115 248.5 81.3038 248.526 81.2938C248.578 81.2739 248.655 81.2452 248.75 81.2101C248.941 81.1399 249.207 81.0444 249.506 80.9433C250.112 80.7388 250.828 80.5204 251.34 80.435L251.213 79.6763C250.635 79.7728 249.867 80.0095 249.26 80.2146C248.953 80.3183 248.68 80.4162 248.485 80.4882C248.387 80.5242 248.308 80.5538 248.254 80.5744C248.226 80.5847 248.205 80.5928 248.191 80.5984C248.183 80.6012 248.178 80.6033 248.174 80.6048C248.172 80.6055 248.171 80.6061 248.17 80.6065C248.169 80.6067 248.169 80.6068 248.168 80.6069C248.168 80.607 248.168 80.607 248.168 80.607C248.168 80.6071 248.168 80.6071 248.168 80.6071C248.168 80.6071 248.168 80.6071 248.307 80.9658ZM250.941 79.8672C248.856 83.5784 247.731 87.3186 247.127 90.1279C246.825 91.5335 246.652 92.7084 246.555 93.5335C246.507 93.9461 246.477 94.2714 246.46 94.4945C246.451 94.6061 246.445 94.6921 246.441 94.7508C246.44 94.7801 246.438 94.8026 246.438 94.818C246.437 94.8257 246.437 94.8316 246.437 94.8358C246.437 94.8378 246.437 94.8394 246.436 94.8406C246.436 94.8412 246.436 94.8417 246.436 94.842C246.436 94.8422 246.436 94.8424 246.436 94.8425C246.436 94.8426 246.436 94.8427 246.821 94.8599C247.205 94.8771 247.205 94.8772 247.205 94.8772C247.205 94.8772 247.205 94.8772 247.205 94.8772C247.205 94.8771 247.205 94.8768 247.205 94.8765C247.205 94.8759 247.205 94.8748 247.205 94.8732C247.205 94.8701 247.205 94.8652 247.206 94.8586C247.206 94.8453 247.208 94.8249 247.209 94.7977C247.213 94.7434 247.218 94.6618 247.226 94.5549C247.243 94.3409 247.272 94.0254 247.319 93.6233C247.414 92.8188 247.582 91.6682 247.879 90.2897C248.472 87.5309 249.575 83.869 251.612 80.244L250.941 79.8672Z" fill="#002140"/>
<path d="M228.361 85.4541H242.303" stroke="#002140" stroke-width="0.769231" stroke-linecap="round" stroke-linejoin="round"/>
<path d="M227.633 91.7288H241.577" stroke="#002140" stroke-width="0.769231" stroke-linecap="round" stroke-linejoin="round"/>
<path d="M227.633 94.8059H241.577" stroke="#002140" stroke-width="0.769231" stroke-linecap="round" stroke-linejoin="round"/>
<path d="M227.693 88.6519H241.637" stroke="#002140" stroke-width="0.769231" stroke-linecap="round" stroke-linejoin="round"/>
<path d="M214.429 71.9095L212.755 68.7644L212.012 69.0326L210.615 71.999L206.428 72.8089L206.801 73.6162L209.126 76.0435L208.475 79.7304L209.311 79.9092L212.662 78.6495L216.011 79.9986L216.476 79.5489L216.198 75.7753L218.616 73.0771L218.246 72.6274L214.429 71.9095Z" fill="#5BE3AA"/>
<path d="M212.99 68.784L214.42 71.5851C214.507 71.7558 214.678 71.875 214.875 71.902L218.074 72.3517C218.568 72.4222 218.764 73.0073 218.408 73.3432L216.092 75.524C215.949 75.6567 215.884 75.849 215.918 76.0387L216.465 79.1161C216.549 79.5902 216.033 79.9532 215.593 79.7283L212.729 78.2736C212.555 78.1842 212.345 78.1842 212.168 78.2736L209.305 79.7283C208.865 79.9532 208.349 79.5902 208.433 79.1161L208.98 76.0387C209.014 75.849 208.949 75.6567 208.806 75.524L206.49 73.3432C206.133 73.0073 206.33 72.4222 206.823 72.3517L210.023 71.902C210.219 71.875 210.388 71.7558 210.477 71.5851L211.908 68.784C212.129 68.3533 212.766 68.3533 212.987 68.784H212.99Z" stroke="#002140" stroke-linecap="round" stroke-linejoin="round"/>
<path d="M243.82 60.5899L241.933 56.9617L241.092 57.2711L239.52 60.6931L234.8 61.6275L235.218 62.5587L237.842 65.3589L237.105 69.6121L238.05 69.8184L241.828 68.3652L245.603 69.9215L246.128 69.4028L245.812 65.0495L248.54 61.9369L248.12 61.4181L243.82 60.5899Z" fill="#FED607"/>
<path d="M242.303 57.2953L243.915 60.5266C244.013 60.7235 244.206 60.861 244.427 60.8923L248.034 61.4111C248.591 61.4923 248.812 62.1673 248.411 62.5549L245.799 65.0706C245.638 65.2237 245.565 65.4456 245.603 65.6643L246.22 69.2145C246.315 69.7614 245.733 70.1801 245.236 69.9207L242.009 68.2426C241.813 68.1394 241.576 68.1394 241.376 68.2426L238.149 69.9207C237.652 70.1801 237.07 69.7614 237.165 69.2145L237.782 65.6643C237.82 65.4456 237.747 65.2237 237.586 65.0706L234.974 62.5549C234.573 62.1673 234.794 61.4923 235.351 61.4111L238.958 60.8923C239.179 60.861 239.369 60.7235 239.47 60.5266L241.082 57.2953C241.332 56.7984 242.05 56.7984 242.299 57.2953H242.303Z" stroke="#002140" stroke-linecap="round" stroke-linejoin="round"/>
<path d="M249.98 117.719L248.729 115.383L248.173 115.582L247.129 117.785L244 118.387L244.279 118.988L246.017 120.789L245.53 123.527L246.155 123.66L248.66 122.727L251.162 123.726L251.51 123.393L251.303 120.59L253.109 118.586L252.833 118.254L249.98 117.719Z" fill="#FBCCFF"/>
<path d="M249.046 115.665L250.115 117.745C250.18 117.872 250.308 117.961 250.454 117.981L252.846 118.315C253.215 118.367 253.362 118.802 253.095 119.051L251.364 120.671C251.257 120.769 251.209 120.912 251.234 121.053L251.643 123.339C251.706 123.691 251.32 123.96 250.991 123.793L248.851 122.713C248.721 122.647 248.564 122.647 248.432 122.713L246.292 123.793C245.963 123.96 245.577 123.691 245.64 123.339L246.048 121.053C246.074 120.912 246.025 120.769 245.919 120.671L244.187 119.051C243.921 118.802 244.068 118.367 244.437 118.315L246.828 117.981C246.975 117.961 247.101 117.872 247.168 117.745L248.237 115.665C248.402 115.345 248.878 115.345 249.044 115.665H249.046Z" stroke="#002140" stroke-linecap="round" stroke-linejoin="round"/>
</svg>
