<svg xmlns="http://www.w3.org/2000/svg" width="184" height="116" fill="none" viewBox="0 0 184 116"><path fill="#fffaf0" d="M55.595 19.113s-6.046.293-8.109 4.276c-2.063 3.98-22.264 59.57-22.264 59.57l-7.816 21.232s-3.243 6.193-5.013 6.929h127.544l13.858-4.879 4.68-12.676L174.647 46.9s1.416-1.69.383-2.87-7.226-14.155-7.226-14.155l-28.604-.293 2.063-5.75s.147-4.57-4.719-4.866c-4.866-.293-80.952.147-80.952.147z"/><path fill="#fee45e" d="m18.952 101.096-2.064 5.309-4.14 4.9 131.834.26s10.616-2.213 10.763-10.026zm58.537-85.369-47.332-.19s-4.826-.1-4.646 4.976l.18 5.077 20.831-.654s4.646-4.866 5.53-5.196c.883-.333 25.434-.7 25.434-.7v-3.313z"/><path fill="#fee45e" d="m20.868 95.272-5.64-2.1s-.996-3.316-3.096 1.107.334 8.845.334 8.845l4.756 1.88 3.65-9.732z"/><path fill="#fff2b2" d="M39.56 44.845s-13.049-4.647-23.998 2.433C4.613 54.353.74 67.626 4.28 77.798c3.54 10.176 11.392 17.251 16.588 17.471l18.688-50.428z"/><path fill="#e4bc06" d="m37.127 51.37 1.88-6.637s-13.493-4.756-23.998 2.654C4.503 54.796 1.074 66.737 4.613 78.903c3.54 12.166 15.705 16.145 16.255 16.369l1.88-5.75S8.593 85.652 9.366 68.178c0-8.626 10.176-15.815 11.942-16.479 1.77-.663 8.073-1.66 8.073-1.66s6.856-.22 7.742 1.327z"/><path fill="#e4bc06" d="m32.924 62.87-5.31 14.598s-4.092-3.43-3.759-6.746 2.876-5.64 3.316-6.083 4.533-1.88 5.75-1.77z"/><path fill="#fbccff" d="M3.25 52.953s-.147.883.293 1.326 3.316 2.064 3.316 2.064 4.57-6.12 6.12-7.076l-3.76-2.064s-.96-.516-1.77.074-3.466 3.613-4.203 5.676z"/><path fill="#fcd407" d="m20.648 44.698 9.216-1.623-1.77-4.57s-5.086-.883-8.772 1.917z"/><path fill="#fbccff" d="m10.4 88.934-.884 3.316-1.77 1.253-.883 2.063.22 1.697-.293 1.55 1.18 2.949.81.294s-1.254 2.433.516 3.316l2.95 1.473s.736 2.287 1.916 2.433c1.18.147 2.434-1.916 2.434-1.916l.37-2.95-2.214-1.107-1.696-3.243-.443-3.316.736-2.58 1.473-1.253zm14.561-51.055s-2.1-6.413-7.19-8.846c0 0 3.317-3.65 13.273-4.313 9.952-.663 16.035.333 16.035.333l-7.52 19.795s-6.229-2.1-9.695-1.77l-1.77-4.57-3.133-.626z"/><path fill="#fee45e" d="m141.743 22.246-.553 2.653-14.266 45.782 4.647-2.876 2.099 4.646 3.98-3.206 1.88 3.98 3.649-2.544 1.364 4.856 4.829-3.75 1.263 5.54 4.71-4.213 1.683 5.866 4.15-4.146 1.556 5.746 17.602-50.371s3.316-7.63-5.53-7.743c-8.846-.11-33.066-.22-33.066-.22z"/><path fill="#fff2b2" d="M77.489 19.04h43.902s1.327-9.4 3.317-13.822c0 0-5.197.996-8.406 3.54l-3.207-4.533-6.412 4.976-5.42-4.423-5.42 3.98-4.422-3.87-5.196 4.423-4.866-3.98s-2.877 3.097-3.87 13.712z"/><path fill="#e4bc06" d="M8.263 104.734s-1.83 4.71 1.327 5.64 3.98.443 3.98.443l.59-1.54-2.69-2.11z"/><path stroke="#002140" stroke-linecap="round" stroke-linejoin="round" d="M17.265 104.638s-2.027 6.636-5.63 6.636c-1.103 0-1.93-.373-2.526-1.056 0 0-1.866-1.257-.523-6.753m130.807-73.803 1.99-5.64s1.326-4.975-4.976-4.975H55.455s-6.526-.294-8.96 6.636c-2.986 8.292-29.193 78.958-29.193 78.958"/><path stroke="#002140" stroke-linecap="round" stroke-linejoin="round" d="M11.672 111.273h132.034s8.292-.333 11.278-7.962c2.987-7.63 23.375-67.563 25.138-71.993s1.1-8.962-5.979-8.962c-6.193-.22-32.514 0-32.514 0M25.694 25.59c-.06-.666-.13-1.303-.21-1.9 0 0-1.55-8.182 4.866-8.182 5.75 0 24.331.22 24.331.22H77.49M20.585 95.465C10.315 91.645 3 81.753 3 70.151c0-14.912 12.089-27 27-27 3.217 0 6.303.563 9.163 1.593"/><path stroke="#002140" stroke-linecap="round" stroke-linejoin="round" d="M22.807 89.836C14.962 86.913 9.372 79.35 9.372 70.484c0-11.402 9.243-20.644 20.645-20.644 2.413 0 4.73.413 6.882 1.176M15.098 92.685c-.98 1.503-2.806 2.087-4.173 1.3-1.42-.82-1.803-2.813-.86-4.45q.16-.28.36-.52"/><path stroke="#002140" stroke-linecap="round" stroke-linejoin="round" d="M13.105 94.23c.157.806.017 1.712-.456 2.532-.947 1.64-2.863 2.303-4.283 1.484-1.42-.82-1.803-2.813-.86-4.45.473-.82 1.19-1.393 1.963-1.663"/><path stroke="#002140" stroke-linecap="round" stroke-linejoin="round" d="M12.489 97.453c.14.29.25.603.316.937.377 1.853-.62 3.623-2.226 3.949-1.607.327-3.217-.91-3.593-2.766a3.74 3.74 0 0 1 .26-2.337"/><path stroke="#002140" stroke-linecap="round" stroke-linejoin="round" d="M12.995 100.352c.714.493 1.267 1.306 1.467 2.296.377 1.853-.62 3.623-2.227 3.95s-3.216-.91-3.593-2.767a3.8 3.8 0 0 1 .01-1.6m5.973 7.29a3.8 3.8 0 0 1-1.623-.826 3.75 3.75 0 0 1-1.197-1.867m2.961-3.547c.726.064 1.47.364 2.096.903q.195.165.36.35m10.145-27.253a7.742 7.742 0 0 1 5.2-14.112m-2.364-9.546v5.676M12.585 71.096h6.413m-.37-12.166 3.983 4.203m-.371 15.262-4.569 3.76"/><path fill="#002140" d="m25.19 66.598-10.542-4.35-1.033 2.873 10.176 4.13"/><path stroke="#002140" stroke-linecap="round" stroke-linejoin="round" d="m12.435 48.977-3.2-2.05a1.14 1.14 0 0 0-1.096-.077c-1.077.51-3.353 2.033-4.913 6.193a1.14 1.14 0 0 0 .46 1.36l2.923 1.87M4.033 51.78l3.833 2.356m-2.36-4.276 3.833 2.36m-2.283-3.98 3.833 2.36m18.761-7.731-1.022-3.66a1.14 1.14 0 0 0-.767-.787c-1.143-.336-3.853-.716-7.79 1.35-.476.25-.706.803-.562 1.32l.933 3.343m1.076-5.074 1.287 4.313m1.089-4.762 1.287 4.313m.947-4.491 1.29 4.313m-8.79 58.275h136.91"/><path stroke="#002140" stroke-linecap="round" stroke-linejoin="round" d="M46.499 24.907S29.357 21.92 17.525 29c0 0 6.526 2.653 7.19 9.069"/><path stroke="#002140" stroke-linecap="round" stroke-linejoin="round" d="M28.747 30.488s8.846-2.653 16.145-.997m-15.368 5.423s7.18-2.153 13.938-1.37M30.684 39.39s5.39-1.616 11.225-1.536m97.484-8.192-12.609 40.76M77.489 19.04s.293-8.552 3.833-14.008l5.013 4.276 5.086-4.72 4.496 4.423 5.31-4.57 5.096 4.76s6.522-5.486 6.749-5.19c.227.297 3.046 4.563 3.046 4.563s4.57-3.54 8.996-3.54"/><path stroke="#002140" stroke-linecap="round" stroke-linejoin="round" d="M121.281 19.04s.294-8.553 3.833-14.009m-40.473 7.336h21.455m-22.191 3.69h29.857m22.342 45.006 24.994 5.972M138.76 53.398l24.991 5.97m-22.448-13.682 23.924 5.639m-21.824-11.946 23.924 5.64m-22.264-11.39 23.924 5.64m-6.13 41.765-1.679-6.2-4.053 4.514-1.613-6.1-4.813 4.396-1.254-6.082-4.889 4.133-1.01-5.426-3.98 3.686-1.843-5.086-4.279 4.196-1.84-5.596-4.793 2.953"/></svg>