<svg xmlns="http://www.w3.org/2000/svg" xmlns:xlink="http://www.w3.org/1999/xlink" id="Layer_1" x="0" y="0" version="1.1" viewBox="0 0 191 172" style="enable-background:new 0 0 191 172" xml:space="preserve"><style type="text/css">.st0{fill:#0164bf}.st1{fill:#4ed7de}.st2{fill:#b0d9ff}.st3{fill:#fff2b2}.st4{fill:#fee45e}.st5{fill:#ff7101}.st6{fill:#f25730}.st7{fill:#ffc68c}.st8{fill:#ffa75a}.st9{fill:#03d47c}.st10{fill:#002140}.st11{fill:#008c59}.st12,.st13{fill:none;stroke:#002140;stroke-linecap:round;stroke-linejoin:round}.st13{stroke:#fff2b2}.st14{fill:#99f6ff}.st15{fill:#4ba6a6}.st16{fill:#0185ff}.st17{fill:#0676de}.st18{fill:#5ab0ff}.st19{fill:#fed607}.st20{fill:#5be3aa}.st21{fill:#e3a171}.st22{fill:#fffaf0}.st23{fill:#e4bc07}</style><path d="M39.5,9.5h-1.3c-12.4,0-22.5,10.2-22.5,22.7v66c0,12.5,10.1,22.7,22.5,22.7h26.3c12.4,0,22.4-10.2,22.4-22.7	v-66c0-0.5,0-0.9,0-1.4C86.2,18.9,76.4,9.5,64.5,9.5H39.5z M96.6,31.8v66.9c0,17.1-13.7,30.9-30.6,30.9H36.6	C19.7,129.6,6,115.7,6,98.7V31.8C6,14.7,19.7,0.8,36.6,0.8h29.5C83,0.8,96.6,14.7,96.6,31.8z" class="st0"/><path d="M43.6,94.1c0.1,0,0.2,0,0.4,0c1.2,0,1.4,0.8,3.1,0.8c1.6,0,1.4-0.9,3.3-0.9c0.8,0,1.3,0.2,1.8,0.4l0.8-0.1	l1.3-2.1h-2v-2.4l-1.8-2.4h-2.7v1.8h-2.4c0,0,0,0.7,0,0.9v0.2h-4.2c0,0,2.2,3.4,2.4,3.6L43.6,94.1z M66.3,74.8h-1.9v-0.3	c0-0.9-0.3-1.6-0.7-2h23.2v25.7c0,12.5-10,22.7-22.4,22.7H41.3v-0.1c-12.4,0-22.5-10.2-22.5-22.7v-9.5h18.8c3,0,2.4-3.6,0.1-3.6	h23.3c3,0,2.7-3.4,0.3-3.4h8.4c2.7,0,2.9-3.4-0.1-3.4h-1.1v-0.2C68.6,78.1,69,74.8,66.3,74.8z" class="st1"/><path d="M86.9,33.9v38.6H63.7c-0.5-0.5-1.2-0.8-2-0.8h-0.1v-3.9c1,0,1.7-0.3,1.7-2v-2.7c0-1.1-0.7-1.5-1.8-1.5h-1v-0.2	c0,0-0.1-0.8-0.1-1.6c0-1.5-1-2-2.2-2h-0.3v-5.2L56,49.4l0.2-0.1c1.6,0,1.5-1.9,0.3-1.9s-1.4-0.1-3.3,0c-1.4,0.1-1.4,1.9,0.1,1.9	l0.2,0.2l-2.1,3.2V56h-1.9v-6c0-0.7-0.4-1.3-1-1.6l0.1,0v-4.6c0-0.9-0.4-1.5-0.9-1.8l0-0.1v-2.6c0-1.3-2.9-1.1-2.9,0v2.5l0.1,0.1	c-0.6,0.3-1,0.9-1,1.6V48l0.1,0.3c-0.6,0.3-1,0.8-1,1.5v2.7h0c0-1.2-0.7-1.9-1.7-1.8c-1,0.1-1.6,0.9-1.6,2v3H38v-4.2h-0.1l1.3-2.8	h-1.6v-0.1l-2-3.8h-1.8c0,0-2,3.4-2.2,3.6v0.3h-1.9l1.3,2.8v7c-0.9,0-3.7,0-3.7,0s-3-8.7-3.5-9.8c-0.5-1.1-1.1-1.3-2-1.4	c-0.9,0-3,0-3,0h0V32.1c0-1,0.1-2,0.2-3l0.1,0h3.7c2.2,0,2.2,2.5,4.2,2.5h9.3c2.5,0,2.1-2.8,0.3-2.8c0,0-7.2,0-8.5,0	c-1.3,0-1.9-2.5-3.7-2.5h-4.7l-0.1,0C22,17.1,29.9,10.2,39.5,9.5h25c11.9,0,21.7,9.4,22.4,21.3l-0.2,0c-2.7,0-6.9,0-6.9,0	c-2.2,0-2.4,3.1,0.1,3.1H86.9z M79.2,26.4c2.5,0,2.1-3,0.3-3c0,0-3.3,0-4.6,0c-1.3,0-1.8-2.7-4.3-2.7c-0.8,0-5.1-0.1-6.9-0.1	c-2.2,0-2.9,3.4-4.5,3.4c-2.5,0-5-0.1-5-0.1c-2,0-2.2,3,0.1,3c1.8,0,4.3,0,5.5,0c2.6,0,2.5-3.4,5.1-3.4c1.6,0,3.4,0,4.7,0	c2.2,0,2.3,2.6,4.2,2.6H79.2z M73.2,45.5c1.6,0,1.7-2.2-0.1-2.2c-2,0-5.1,0-5.1,0c-1.3,0-1.9,2.2,0,2.2H73.2z M62.6,37.6	c2.1,0,2.3-3.1-0.1-3.1c-2.7,0-6.9,0-6.9,0c-2.2,0-2.4,3.1,0.1,3.1H62.6z M58.5,16.4c2,0,2-3.1-0.1-3.1h-8c-2.2,0-3.9,3-5.4,3	c-1.6,0-8.9,0-8.9,0c-2.2,0-2.4,3.1,0.1,3.1h9.8c2.4,0,2.9-3,5.5-3H58.5z M56.4,47.2v-1.5h-3.1v1.5H56.4z M55.7,45.6v-1.4H54v1.4	H55.7z M35.7,41.3l1.5-2.2h-4.7c0,0,1.2,1.9,1.3,2.2l0,0.1c-0.1,0.1-0.2,0.1-0.3,0.2c-0.7,0.7-0.7,1.8,0,2.5c0.7,0.7,1.8,0.7,2.5,0	c0.7-0.7,0.7-1.8,0-2.5C35.9,41.6,35.8,41.5,35.7,41.3L35.7,41.3z M28.5,43.2c1.6,0,1.7-1.9-0.1-1.9c-2,0-5,0-5,0	c-1.3,0-1.8,1.9,0,1.9H28.5z" class="st2"/><path d="M86.9,32.2v1.7h-7c-2.5,0-2.3-3.1-0.1-3.1c0,0,4.2,0,6.9,0l0.2,0C86.9,31.3,86.9,31.7,86.9,32.2z" class="st3"/><path d="M79.6,23.4c1.8,0,2.2,3-0.3,3h-5.4c-2,0-2-2.6-4.2-2.6c-1.3,0-3.1,0-4.7,0c-2.6,0-2.6,3.4-5.1,3.4	c-1.2,0-3.7,0-5.5,0c-2.3,0-2.2-3-0.1-3c0,0,2.5,0.1,5,0.1c1.6,0,2.4-3.4,4.5-3.4c1.8,0,6.1,0.1,6.9,0.1c2.5,0,3,2.7,4.3,2.7	C76.3,23.5,79.6,23.4,79.6,23.4z" class="st3"/><path d="M73.1,43.3c1.8,0,1.7,2.2,0.1,2.2H68c-1.9,0-1.3-2.2,0-2.2C68,43.3,71.1,43.3,73.1,43.3z" class="st3"/><path d="M48.8,78.3h20.9c3,0,2.9,3.4,0.1,3.4h-8.4c2.4,0,2.7,3.4-0.3,3.4H37.8c2.2,0,2.9,3.6-0.1,3.6H18.8v-7.2h18.5	c0,0,0.4-0.8,0-1.7c-0.5-0.9-1.6-0.5-1.7-0.5c0,0,0.1-0.6,0-1.1l0.5,0H48.8z" class="st4"/><path d="M66.3,74.8c2.7,0,2.3,3.2,2.3,3.2v0.2h-4.3v-0.2c0,0-0.1-0.6,0-1.2C64.4,76,64.9,74.9,66.3,74.8L66.3,74.8z" class="st5"/><path d="M64.4,74.8h1.9c-1.4,0.1-1.9,1.2-2,2.1l-0.1,0h-3.3l-0.2,0c0-0.2-0.2-0.5-0.4-0.7c-0.6-0.7-1-0.2-1.1-0.1	c0-0.1,0.6-1.3-0.5-2.1c-0.3-0.2-0.5-0.2-0.8-0.2l0-0.3v-3.7h2.2v5.1H64.4z" class="st6"/><path d="M63.7,72.5c0.4,0.5,0.7,1.1,0.7,2v0.3h-2.8v-3.1h0.1C62.5,71.7,63.2,72,63.7,72.5z" class="st7"/><path d="M64.2,76.9l0.1,0c-0.1,0.7,0,1.2,0,1.2v0.2h-4.1v-0.2c0,0,0.6-0.5,0.5-1.2l0.2,0H64.2z" class="st5"/><path d="M63.3,63.2v2.7c0,1.6-0.7,2-1.7,2h-1.7v-3.2c0-0.5-0.6-0.5-1.8-0.5h-0.2v-2.4h3.6	C62.6,61.7,63.3,62.2,63.3,63.2z" class="st8"/><path d="M62.5,34.5c2.4,0,2.2,3.1,0.1,3.1h-6.8c-2.5,0-2.3-3.1-0.1-3.1C55.6,34.5,59.8,34.5,62.5,34.5z" class="st3"/><path d="M61.6,71.7v3.1h-1.5v-5.1h-2.2v-1.9h3.7V71.7z" class="st5"/><path d="M30.9,71.3c0,0.1,0,0.2,0,0.2S30.9,71.3,30.9,71.3z M33.9,70C33.9,70,33.9,70,33.9,70C33.9,70,33.9,70,33.9,70z M42.6,69.4c0,0.2,0,0.3,0,0.3C42.5,69.7,42.6,69.6,42.6,69.4z M42.6,69.4c0.1-0.6,0.5-1.8,1.8-1.8c0.7,0,1.1,0.2,1.3,0.5	c0.3,0.4,0.3,1,0.3,1s0.5-1.2,1.8-1.2c0.1,0,0.2,0,0.3,0c1.5,0.1,0.7,1.8,0.7,1.8s0.5-0.6,1.2-0.8c0.3-0.1,0.6,0,1,0.2	c0.4,0.3,0.6,0.7,0.7,1.1c0.1,0.6,0,1.2,0,1.2s0.7-0.5,1.5-0.5c0.2,0,0.5,0.1,0.7,0.2c1.1,0.6,0.5,2,0.5,2s0.7-0.8,1.5-0.8	c0.2,0,0.5,0.1,0.7,0.2c1.1,0.6,0.3,2.1,0.1,2.3c0.1-0.2,0.7-0.9,1.4-1c0.2,0,0.5,0,0.8,0.2c1.1,0.8,0.5,2,0.5,2.1	c0-0.1,0.5-0.6,1.1,0.1c0.2,0.3,0.3,0.5,0.4,0.7c0.1,0.7-0.5,1.2-0.5,1.2v0.2H36.1l-0.5,0c-0.1-0.3-0.3-0.7-0.7-0.9	c-1-0.5-2,0.4-2,0.4s0.6-1.7-0.5-2.3c-1-0.6-1.9,0.4-1.9,0.4s0.2-1.6-1.2-1.9c-1.3-0.3-1.7,0.7-1.7,0.8c0-0.1,0-1.5-1.3-1.6	c-0.1,0-0.3,0-0.4,0l0-0.2c0,0-0.3-1.1,0.7-1.5c1-0.4,1.8,0.9,1.8,0.9s-0.4-1.8,0.9-2.1c1.1-0.2,1.5,0.5,1.6,0.9	c-0.1-0.4-0.2-1.6,1-2c0.1,0,0.2-0.1,0.4-0.1c1.1-0.2,1.6,0.6,1.7,0.8c-0.1-0.3-0.6-1.7,0.9-2.1c1.5-0.4,1.8,0.8,1.9,1	c0-0.3-0.2-1.6,1.2-1.6c1.5,0,1.7,1.6,1.7,1.6s0.4-1.8,1.9-1.4C42.6,67.7,42.6,68.8,42.6,69.4z" class="st9"/><path d="M60.5,61.5v0.2h-2.6v-3.8h0.3c1.2,0,2.2,0.5,2.2,2C60.5,60.7,60.5,61.5,60.5,61.5z" class="st7"/><path d="M59.9,67.7v0.2h-2v-3.7h0.2c1.2,0,1.8,0,1.8,0.5V67.7z" class="st5"/><path d="M58.4,13.3c2.2,0,2.1,3.1,0.1,3.1h-6.9c-2.6,0-3.1,3-5.5,3h-9.8c-2.5,0-2.3-3.1-0.1-3.1c0,0,7.3,0,8.9,0	c1.6,0,3.2-3,5.4-3H58.4z" class="st3"/><path d="M57.9,73.4l0,0.3c-0.7,0.1-1.2,0.8-1.4,1c0.2-0.3,0.9-1.7-0.1-2.3c-0.2-0.1-0.5-0.2-0.7-0.2l0.3-0.6V49.4l0,0.1	l1.9,3.4V73.4z" class="st5"/><path d="M56.6,47.4c1.1,0,1.3,1.9-0.3,1.9L56,49.4l0-0.1h-2.3l-0.1,0.1l-0.2-0.2c-1.5,0-1.5-1.9-0.1-1.9	C55.1,47.4,55.4,47.4,56.6,47.4z" class="st7"/><path d="M56.4,45.7h-3.1v1.5h3.1V45.7z" class="st7"/><path d="M56,49.4v22.3l-0.3,0.6c-0.9,0-1.5,0.8-1.5,0.8s0.6-1.4-0.5-2c-0.2-0.1-0.5-0.2-0.7-0.2l0.7,0V49.4H56z" class="st6"/><path d="M55.7,44.2H54v1.4h1.7V44.2z" class="st7"/><path d="M54.3,92.1l-1.3,2.1l-0.8,0.1c-0.5-0.2-1-0.4-1.8-0.4c-1.8,0-1.7,0.9-3.3,0.9c-1.7,0-1.9-0.8-3.1-0.8	c-0.1,0-0.3,0-0.4,0l0-0.1c-0.1-0.2-2.4-3.6-2.4-3.6h4.5l1.2,1.8h0.9l2.7,0h1.8L54.3,92.1z" class="st8"/><path d="M53.7,49.4v21.4l-0.7,0c-0.8,0-1.5,0.5-1.5,0.5s0.2-0.6,0-1.2l0.1,0V52.7l2.1-3.2L53.7,49.4z" class="st5"/><path d="M52.3,92v0.1l-1.8,0V92v-4.6l1.8,2.4V92z" class="st5"/><path d="M51.6,56v14.1l-0.1,0c-0.1-0.4-0.3-0.8-0.7-1.1c-0.3-0.2-0.7-0.2-1-0.2l-0.1-0.4V56H51.6z" class="st8"/><path d="M50.5,92L50.5,92l-2.7,0.1V92v-2.8v-1.8h2.7V92z" class="st6"/><path d="M49.7,68.5l0.1,0.4c-0.7,0.2-1.2,0.8-1.2,0.8s0.8-1.7-0.7-1.8c-0.1,0-0.2,0-0.3,0v-9.6c0-2-2.4-1.9-2.4,0v6.9	l-0.7,0.1c-1-0.1-1.4,0.7-1.4,0.7s0.2-1-0.2-1.6l0.2,0V55h0.3c1.1-1.3,5.2-1.3,6.1-0.2h0.1V68.5z" class="st5"/><path d="M49.7,51.6v3.2h-0.1c-1-1.1-5-1.1-6.1,0.2h-0.3v-3.4h0.1C44.9,50.3,48.5,50.4,49.7,51.6L49.7,51.6z" class="st5"/><path d="M49.7,49.9v1.7h-0.1c-1.1-1.2-4.7-1.3-6.3,0h-0.1v-1.8c0-0.6,0.4-1.1,1-1.5c1.2-0.7,3.3-0.7,4.5,0	C49.3,48.7,49.7,49.2,49.7,49.9z" class="st5"/><path d="M48.8,43.7v4.6l-0.1,0c-1.2-0.7-3.3-0.7-4.5,0L44.1,48v-4.5c0-0.7,0.4-1.3,1-1.6c0.8-0.4,1.9-0.5,2.7,0	C48.4,42.3,48.8,42.9,48.8,43.7z" class="st8"/><path d="M47.9,39.3v2.6l0,0.1c-0.8-0.5-1.9-0.4-2.7,0L45,41.8v-2.5C45,38.2,47.9,38,47.9,39.3z" class="st7"/><path d="M47.8,92v0.2h-0.8l-1.2-1.8h-0.3v-0.2c0-0.2,0-0.9,0-0.9h2.4V92z" class="st5"/><path d="M47.6,58.3v9.6c-1.3,0.1-1.8,1.2-1.8,1.2s0-0.6-0.3-1c0.1-0.3,0.6-2.3-0.6-2.7c-0.2-0.1-0.3-0.1-0.4-0.1	l0.7-0.1v-6.9C45.3,56.4,47.6,56.3,47.6,58.3z" class="st6"/><path d="M31.6,67.5c0-0.1-0.5-1.2,0.6-1.9c1.2-0.7,2,0.6,2,0.6c0-0.2-0.2-1.8,1-2.1c1.2-0.4,1.9,1.1,1.9,1.1	s-0.2-1.6,1.5-1.8c1.7-0.1,1.9,1.8,1.9,1.8s0.2-0.8,0.7-1.2c0.2-0.1,0.3-0.2,0.5-0.3c0.1,0,0.3,0,0.5,0c0.4,0.1,0.6,0.3,0.7,0.6	c0.4,0.7,0.2,1.6,0.2,1.6s0.4-0.8,1.4-0.7c0.1,0,0.3,0,0.4,0.1c1.2,0.4,0.7,2.4,0.6,2.7c-0.2-0.3-0.6-0.5-1.3-0.5	c-1.2,0.1-1.7,1.2-1.8,1.8c0.1-0.6,0-1.7-1.2-2c-1.6-0.4-1.9,1.4-1.9,1.4s-0.2-1.6-1.7-1.6c-1.3,0-1.2,1.3-1.2,1.6	c-0.1-0.3-0.4-1.5-1.9-1c-1.5,0.5-1,1.9-0.9,2.1c-0.1-0.2-0.6-1-1.7-0.8l0-0.2C32,68.6,31.8,68.1,31.6,67.5L31.6,67.5z" class="st9"/><path d="M43.2,55v9.3l-0.2,0c-0.1-0.3-0.4-0.5-0.7-0.6c-0.2,0-0.3,0-0.5,0l-0.2-0.1V52.9h1.6V55z" class="st8"/><path d="M43.1,52.4L43.1,52.4l0,0.5h-3.4v-0.3c0-1.1,0.6-2,1.6-2C42.4,50.5,43.1,51.2,43.1,52.4z" class="st7"/><path d="M41.6,63.7l0.2,0.1c-0.2,0-0.4,0.1-0.5,0.3L41.1,64c-0.3-0.7-0.8-1.6-2.4-1.6H38v-6.6h1.8v-2.8h1.8V63.7z" class="st8"/><path d="M41.3,120.9L41.3,120.9l-3.1,0.1c-12.4,0-22.5-10.2-22.5-22.7v-66c0-12.5,10.1-22.7,22.5-22.7h1.3	c-9.6,0.8-17.6,7.7-19.9,16.8c-0.2,0.9-0.4,1.8-0.5,2.8c-0.1,1-0.2,2-0.2,3v66C18.8,110.7,28.9,120.9,41.3,120.9z" class="st10"/><path d="M33.7,60.6c0.4,0.8,0.9,1.7,0.9,1.7h4.1c1.6,0,2.1,0.9,2.4,1.6l0.1,0.1c-0.5,0.4-0.7,1.2-0.7,1.2	s-0.1-1.9-1.9-1.8c-1.7,0.1-1.5,1.8-1.5,1.8s-0.6-1.5-1.9-1.1c-1.2,0.4-1.1,2-1,2.1c0,0-0.8-1.3-2-0.6c-1.1,0.7-0.7,1.8-0.6,1.9l0,0	c-0.7-1.6-1.6-3.4-1.9-4.1c-0.6-1.2-1.1-1.2-2.2-1.2s-4-0.1-5.5-0.1c-1.6,0-1.7,0.5-2.2,1.5c-0.5,1-0.8,1.8-0.8,1.8h-0.1V47.2h0	c0,0,2.1,0,3,0c0.9,0.1,1.5,0.3,2,1.4c0.5,1.1,3.5,9.8,3.5,9.8s2.8,0,3.7,0c1.1,0,1.8,0.2,2.3,1.3C33.4,59.9,33.5,60.3,33.7,60.6z" class="st11"/><path d="M39.2,48.7l-1.3,2.8h-3.4v-0.3c0,0-0.1-2.5,1.6-2.5H39.2z" class="st8"/><path d="M38,62.1v0.2h-2.4V51.5H38V62.1z" class="st5"/><path d="M37.6,48.6v0.1h-1.5c-1.6,0-1.6,2.5-1.6,2.5h-0.2c0,0,0.1-2.5-1.6-2.5h-1.2v-0.3c0.2-0.2,2.2-3.6,2.2-3.6h1.8	L37.6,48.6z" class="st5"/><path d="M27.7,74.8c0-0.1,0.4-1.1,1.7-0.8c1.4,0.3,1.2,1.9,1.2,1.9s0.9-1,1.9-0.4c1.1,0.6,0.5,2.3,0.5,2.3s1-0.9,2-0.4	c0.4,0.2,0.6,0.5,0.7,0.9c0.1,0.5,0,1,0,1.1c0.1,0,1.2-0.4,1.7,0.5c0.5,0.9,0,1.7,0,1.7H18.8V73h0.4c1.6-0.3,2.1,1.4,2.1,1.4	S21.9,73,23,73c1.2,0,1.5,1.4,1.5,1.4s0.3-1.1,1.4-1.2c0.1,0,0.2,0,0.4,0C27.6,73.3,27.7,74.7,27.7,74.8z" class="st9"/><path d="M37.2,39.2l-1.5,2.2l-0.1,0.1c-0.6-0.3-1.3-0.3-1.8,0.1l0-0.1c-0.1-0.3-1.3-2.2-1.3-2.2H37.2z" class="st5"/><path d="M36.6,28.8c1.8,0,2.2,2.8-0.3,2.8H27c-1.9,0-2-2.5-4.2-2.5h-3.7l-0.1,0c0.1-1,0.3-1.9,0.5-2.8l0.1,0h4.7	c1.8,0,2.4,2.5,3.7,2.5S36.6,28.8,36.6,28.8z" class="st3"/><path d="M36,41.7c0.7,0.7,0.7,1.8,0,2.5c-0.7,0.7-1.8,0.7-2.5,0c-0.7-0.7-0.7-1.8,0-2.5c0.1-0.1,0.2-0.2,0.3-0.2	c0.5-0.4,1.2-0.4,1.8-0.1C35.8,41.5,35.9,41.6,36,41.7z" class="st7"/><path d="M35.6,62.3L35.6,62.3l-1,0c0,0-0.5-0.9-0.8-1.7v-9.2h1.9V62.3z" class="st6"/><path d="M34.6,51.2v0.3H31l-1.3-2.8h3.1c1.6,0,1.6,2.5,1.6,2.5H34.6z" class="st8"/><path d="M33.7,51.5v9.1c-0.2-0.4-0.3-0.7-0.4-0.9c-0.5-1.1-1.1-1.3-2.3-1.3v-7L33.7,51.5L33.7,51.5z" class="st5"/><path d="M32.2,69l0,0.2c-0.1,0-0.2,0-0.4,0.1c-1.2,0.4-1.1,1.5-1,2c-0.1-0.4-0.5-1.1-1.6-0.9c-1.4,0.3-0.9,2.1-0.9,2.1	s-0.8-1.3-1.8-0.9c-1,0.4-0.7,1.5-0.7,1.5l0,0.2c-1.1,0.1-1.4,1.2-1.4,1.2S24.2,73,23,73c-1.2,0-1.7,1.4-1.7,1.4s-0.5-1.7-2.1-1.4	h-0.4v-7.5h0.1c0,0,0.3-0.8,0.8-1.8c0.5-1,0.6-1.5,2.2-1.5c1.6,0,4.4,0.1,5.5,0.1s1.6,0,2.2,1.2c0.4,0.7,1.2,2.5,1.9,4.1	C31.8,68.1,32,68.6,32.2,69z" class="st11"/><path d="M28.4,41.2c1.8,0,1.6,1.9,0.1,1.9h-5.1c-1.8,0-1.3-1.9,0-1.9C23.4,41.2,26.5,41.2,28.4,41.2z" class="st3"/><path d="M66.1,129.6H36.6C19.7,129.6,6,115.7,6,98.7V31.8C6,14.7,19.7,0.8,36.6,0.8h29.5c16.9,0,30.6,13.8,30.6,30.9	v66.9C96.6,115.7,83,129.6,66.1,129.6z" class="st12"/><path d="M19.1,88.7h18.6c3,0,2.4-3.6,0.1-3.6h23.3c3,0,2.7-3.4,0.3-3.4h8.4c2.7,0,2.9-3.4-0.1-3.4H36.1" class="st12"/><path d="M35.6,79.4L35.6,79.4c0.1,0,1.2-0.4,1.7,0.5c0.5,0.9,0,1.7,0,1.7H19.2" class="st12"/><path d="M27.7,74.8L27.7,74.8c0-0.1,0.4-1.1,1.7-0.8c1.4,0.3,1.2,1.9,1.2,1.9s0.9-1,1.9-0.4c1.1,0.6,0.5,2.3,0.5,2.3	s1-0.9,2-0.4c0.4,0.2,0.6,0.5,0.7,0.9c0.1,0.5,0,1,0,1.1" class="st12"/><path d="M19.3,73c1.6-0.3,2.1,1.4,2.1,1.4S21.9,73,23,73c1.2,0,1.5,1.4,1.5,1.4s0.3-1.1,1.4-1.2c0.1,0,0.2,0,0.4,0	c1.3,0.1,1.3,1.5,1.3,1.6" class="st12"/><path d="M20.9,79.2v2.1" class="st12"/><path d="M22.9,78.3v3.2" class="st12"/><path d="M28.4,78.6V81" class="st12"/><path d="M25,79.2v2.1" class="st12"/><path d="M30.4,79.4v1.8" class="st12"/><path d="M59.2,76.1L59.2,76.1L59.2,76.1c0-0.1,0.5-0.6,1.1,0.1c0.2,0.3,0.3,0.5,0.4,0.7c0.1,0.7-0.5,1.2-0.5,1.2" class="st12"/><path d="M56.5,74.8C56.5,74.8,56.5,74.8,56.5,74.8c0.2-0.2,0.7-1,1.4-1c0.2,0,0.5,0,0.8,0.2c1.1,0.8,0.5,2,0.5,2.1" class="st12"/><path d="M45.6,68.1c0.3,0.4,0.3,1,0.3,1s0.5-1.2,1.8-1.2c0.1,0,0.2,0,0.3,0c1.5,0.1,0.7,1.8,0.7,1.8s0.5-0.6,1.2-0.8	c0.3-0.1,0.6,0,1,0.2c0.4,0.3,0.6,0.7,0.7,1.1c0.1,0.6,0,1.2,0,1.2s0.7-0.5,1.5-0.5c0.2,0,0.5,0.1,0.7,0.2c1.1,0.6,0.5,2,0.5,2	s0.7-0.8,1.5-0.8c0.2,0,0.5,0.1,0.7,0.2c1.1,0.6,0.3,2.1,0.1,2.3" class="st12"/><path d="M42.6,69.4c0.1-0.6,0.5-1.8,1.8-1.8c0.7,0,1.1,0.2,1.3,0.5" class="st12"/><path d="M42.5,69.7c0,0,0-0.1,0-0.3" class="st12"/><path d="M42.6,69.4c0,0.2,0,0.3,0,0.3c0,0,0,0,0,0" class="st12"/><path d="M42.6,69.4L42.6,69.4" class="st12"/><path d="M36.6,68.9C36.6,68.9,36.6,68.9,36.6,68.9C36.6,68.9,36.6,68.9,36.6,68.9c0-0.3-0.2-1.7,1.2-1.7	c1.5,0,1.7,1.6,1.7,1.6s0.4-1.8,1.9-1.4c1.2,0.3,1.2,1.4,1.2,2" class="st12"/><path d="M33.9,70c-0.1-0.3-0.6-1.7,0.9-2.1c1.5-0.4,1.8,0.8,1.9,1" class="st12"/><path d="M33.9,70C33.9,70,33.9,70,33.9,70" class="st12"/><path d="M33.9,70C33.9,70,33.9,70,33.9,70C33.9,70,33.9,70,33.9,70" class="st12"/><path d="M33.9,70C33.9,70,33.9,70,33.9,70" class="st12"/><path d="M30.9,71.2c-0.1-0.4-0.2-1.6,1-2c0.1,0,0.2-0.1,0.4-0.1c1.1-0.2,1.6,0.6,1.7,0.8" class="st12"/><path d="M30.9,71.3c0,0.1,0,0.2,0,0.2S30.9,71.3,30.9,71.3z" class="st12"/><path d="M30.9,71.3C30.9,71.3,30.9,71.2,30.9,71.3" class="st12"/><path d="M25.9,73c0,0-0.3-1.1,0.7-1.5c1-0.4,1.8,0.9,1.8,0.9s-0.4-1.8,0.9-2.1c1.1-0.2,1.5,0.5,1.6,0.9" class="st12"/><path d="M18.9,65.5c0,0,0.3-0.8,0.8-1.8c0.5-1,0.6-1.5,2.2-1.5c1.6,0,4.4,0.1,5.5,0.1c1.1,0,1.6,0,2.2,1.2	c0.4,0.7,1.2,2.5,1.9,4.1c0.2,0.5,0.5,1,0.7,1.5" class="st12"/><path d="M34.9,74.9v2.3" class="st12"/><path d="M37.6,75.8v2.3" class="st12"/><path d="M40.7,75v3.3v0" class="st12"/><path d="M42.9,75.8v2.3" class="st12"/><path d="M48.8,75v3.3v0" class="st12"/><path d="M51,75.8v2.3" class="st12"/><path d="M54.7,76.3v1.9" class="st12"/><path d="M45.6,68.1L45.6,68.1c0.1-0.3,0.6-2.3-0.6-2.7c-0.2-0.1-0.3-0.1-0.4-0.1c-1-0.1-1.4,0.7-1.4,0.7s0.2-1-0.2-1.6	c-0.1-0.3-0.4-0.5-0.7-0.6c-0.2,0-0.3,0-0.5,0c-0.2,0-0.4,0.1-0.5,0.3c-0.5,0.4-0.7,1.2-0.7,1.2s-0.1-1.9-1.9-1.8	c-1.7,0.1-1.5,1.8-1.5,1.8s-0.6-1.5-1.9-1.1c-1.2,0.4-1.1,2-1,2.1c0,0-0.8-1.3-2-0.6c-1.1,0.7-0.7,1.8-0.6,1.9" class="st12"/><path d="M41.1,64c-0.3-0.7-0.8-1.6-2.4-1.6h-4.1c0,0-0.5-0.9-0.8-1.7c-0.2-0.4-0.3-0.7-0.4-0.9	c-0.5-1.1-1.1-1.3-2.3-1.3c-0.9,0-3.7,0-3.7,0s-3-8.7-3.5-9.8c-0.5-1.1-1.1-1.3-2-1.4c-0.9,0-3,0-3,0" class="st12"/><path d="M30.5,70.3l-2.5-5.6" class="st12"/><path d="M22.1,49.8l4.4,12.4" class="st12"/><path d="M27.3,67.1l1.4,3" class="st12"/><path d="M22.3,56.6l2,5.5" class="st12"/><path d="M31,58.4v-7h7v10.6" class="st12"/><path d="M33.7,51.5v9.1v0" class="st12"/><path d="M35.6,51.5v10.8" class="st12"/><path d="M43.2,64.4V49.8c0-0.6,0.4-1.1,1-1.5c1.2-0.7,3.3-0.7,4.5,0c0.6,0.4,1,0.9,1,1.6v18.5" class="st12"/><path d="M44.1,48v-4.5c0-0.7,0.4-1.3,1-1.6c0.8-0.4,1.9-0.5,2.7,0c0.6,0.3,0.9,0.9,0.9,1.8v4.6" class="st12"/><path d="M45,41.8v-2.5c0-1.1,2.9-1.3,2.9,0v2.6" class="st12"/><path d="M46.5,38.1v-4" class="st12"/><path d="M45.3,65.2v-6.9c0-1.9,2.4-2,2.4,0v9.6" class="st12"/><path d="M43.5,55c1.1-1.3,5.2-1.3,6.1-0.2" class="st12"/><path d="M43.3,51.6c1.6-1.3,5.2-1.2,6.3,0" class="st12"/><path d="M51.6,70.1V56v-3.2l2.1-3.2l0.1-0.1H56l0,0.1l1.9,3.4v5.2v3.8v2.4v3.7v1.9v3.7" class="st12"/><path d="M53.7,49.4v21.4" class="st12"/><path d="M56,49.4v22.3" class="st12"/><path d="M53.4,49.3c-1.5,0-1.5-1.9-0.1-1.9c1.8-0.1,2.1,0,3.3,0c1.1,0,1.3,1.9-0.3,1.9" class="st12"/><path d="M34.4,51.2c0,0,0.1-2.5-1.6-2.5h-3.1l1.3,2.8" class="st12"/><path d="M34.6,51.2c0,0-0.1-2.5,1.6-2.5h3.1l-1.3,2.8" class="st12"/><path d="M31.6,48.4c0.2-0.2,2.2-3.6,2.2-3.6h1.8l2,3.8" class="st12"/><path d="M35.6,41.4c0.1,0.1,0.3,0.2,0.4,0.3c0.7,0.7,0.7,1.8,0,2.5c-0.7,0.7-1.8,0.7-2.5,0c-0.7-0.7-0.7-1.8,0-2.5	c0.1-0.1,0.2-0.2,0.3-0.2C34.3,41.1,35,41.1,35.6,41.4z" class="st12"/><path d="M33.8,41.4c-0.1-0.3-1.3-2.2-1.3-2.2h4.7l-1.5,2.2" class="st12"/><path d="M56.4,45.7h-3.1v1.5h3.1V45.7z" class="st12"/><path d="M55.7,44.2H54v1.4h1.7V44.2z" class="st12"/><path d="M54.8,41v3" class="st12"/><path d="M38.3,55.7h1.5v-3c0-1.1,0.6-2,1.6-2c1-0.1,1.7,0.6,1.7,1.8c0,0.1,0,0.1,0,0.2" class="st12"/><path d="M41.6,53.3v10.4" class="st12"/><path d="M40,52.9h1.6h1.4" class="st12"/><path d="M49.8,56h1.6" class="st12"/><path d="M66.3,74.8c2.7,0,2.3,3.2,2.3,3.2" class="st12"/><path d="M58,67.9h3.6v6.9h4.7" class="st12"/><path d="M58.2,69.7h1.9v5.1h1.5" class="st12"/><path d="M66.4,74.8c0,0-0.1,0-0.1,0h0c-1.4,0.1-1.9,1.2-2,2.1c-0.1,0.7,0,1.2,0,1.2" class="st12"/><path d="M58.1,64.2c1.2,0,1.8,0,1.8,0.5v3" class="st12"/><path d="M61.6,67.9c1,0,1.7-0.3,1.7-2v-2.7c0-1.1-0.7-1.5-1.8-1.5H58" class="st12"/><path d="M58.2,57.9c1.2,0,2.2,0.5,2.2,2c0,0.7,0.1,1.6,0.1,1.6" class="st12"/><path d="M61.7,71.7c0.8,0,1.5,0.2,2,0.8c0.4,0.5,0.7,1.1,0.7,2" class="st12"/><path d="M60.9,76.9h3.3" class="st12"/><path d="M63.7,72.5L63.7,72.5h23.1" class="st12"/><path d="M52.8,99.6c1.8,0.1,2.4-1.5,4-1.5c1.6-0.1,1.9,1.3,3.9,1.3c2,0,1.8-1.4,3.6-1.5c1.9-0.1,2.1,1.3,3.5,1.3	c1.3-0.1,1.8-1.3,3.5-1.4c1.7-0.1,2,1.2,3.3,1.2" class="st12"/><path d="M64.8,94.3c1.3,0.1,1.8-1.3,2.9-1.3c1.2-0.1,1.4,1.1,2.9,1.1c1.5,0,1.4-1.2,2.7-1.3c1.4-0.1,1.6,1.2,2.5,1.1	c1-0.1,1.3-1.2,2.6-1.2c1.3-0.1,1.5,1.1,2.4,1.1" class="st12"/><path d="M81.5,108c-1.6-0.1-2.2,1.3-3.6,1.3c-1.4,0.1-1.8-1.1-3.5-1.1c-1.8,0-1.7,1.2-3.3,1.3	c-1.7,0.1-1.9-1.2-3.1-1.1c-1.2,0.1-1.6,1.2-3.1,1.2c-1.5,0.1-1.8-1.1-2.9-1.1" class="st12"/><path d="M57.5,93.8c-1.8-0.3-2.2,0.9-3.6,0.9c-0.8,0-1.2-0.2-1.8-0.4c-0.5-0.2-1-0.4-1.8-0.4c-1.8,0-1.7,0.9-3.3,0.9	c-1.7,0-1.9-0.8-3.1-0.8c-0.1,0-0.3,0-0.4,0c-0.9,0.2-1.4,0.8-2.8,0.8c-1.5,0-1.8-0.7-2.9-0.7" class="st12"/><path d="M43.6,94c-0.1-0.2-2.4-3.6-2.4-3.6h4.5l1.2,1.8h0.9l2.7,0h1.8l2,0l-1.3,2.1" class="st12"/><path d="M45.4,90.1c0-0.2,0-0.9,0-0.9h2.4V92" class="st12"/><path d="M47.8,89.2v-1.8h2.7V92" class="st12"/><path d="M50.5,87.4l1.8,2.4V92" class="st12"/><path d="M23.4,41.2c-1.3,0-1.8,1.9,0,1.9h5.1c1.6,0,1.7-1.9-0.1-1.9C26.5,41.2,23.4,41.2,23.4,41.2z" class="st13"/><path d="M68,43.3c-1.3,0-1.9,2.2,0,2.2h5.2c1.6,0,1.7-2.2-0.1-2.2C71.1,43.3,68,43.3,68,43.3z" class="st13"/><path d="M55.6,34.5c-2.2,0-2.4,3.1,0.1,3.1h6.8c2.1,0,2.3-3.1-0.1-3.1C59.8,34.5,55.6,34.5,55.6,34.5z" class="st13"/><path d="M69.7,23.7c2.2,0,2.3,2.6,4.2,2.6h5.4c2.6,0,2.1-3,0.3-3c0,0-3.3,0-4.6,0c-1.3,0-1.8-2.7-4.3-2.7	c-0.8,0-5.1-0.1-6.9-0.1c-2.2,0-2.9,3.4-4.5,3.4c-2.5,0-5-0.1-5-0.1c-2,0-2.2,3,0.1,3c1.8,0,4.3,0,5.5,0c2.6,0,2.5-3.4,5.1-3.4	C66.6,23.7,68.3,23.7,69.7,23.7z" class="st13"/><path d="M86.7,30.8c-2.7,0-6.9,0-6.9,0c-2.2,0-2.4,3.1,0.1,3.1h6.8" class="st13"/><path d="M36.1,16.3c-2.2,0-2.4,3.1,0.1,3.1h9.8c2.4,0,2.9-3,5.5-3h6.9c2,0,2-3.1-0.1-3.1h-8c-2.2,0-3.9,3-5.4,3	C43.4,16.4,36.1,16.3,36.1,16.3z" class="st13"/><path d="M19.7,26.3h4.7c1.8,0,2.4,2.5,3.7,2.5c1.3,0,8.5,0,8.5,0c1.8,0,2.2,2.8-0.3,2.8H27c-1.9,0-2-2.5-4.2-2.5h-3.7" class="st13"/><path d="M86.9,72.5v25.7c0,12.5-10,22.7-22.4,22.7H38.2c-12.4,0-22.5-10.2-22.5-22.7v-66c0-12.5,10.1-22.7,22.5-22.7	h26.3c11.9,0,21.7,9.4,22.4,21.3c0,0.5,0,0.9,0,1.4V72.5z" class="st12"/><path d="M41.3,120.9c-12.4,0-22.5-10.2-22.5-22.7v-66c0-1,0.1-2,0.2-3c0.1-1,0.3-1.9,0.5-2.8	C22,17.1,29.9,10.2,39.5,9.5c0.6,0,1.2-0.1,1.8-0.1" class="st12"/><path d="M57.1,148.7L57.1,148.7l-3.7,0h-0.1v-1.8h0.5L57.1,148.7z" class="st14"/><path d="M69.3,151.3l-0.1,0.2h-7l-5.2-2.8l-3.4-1.8h-0.5v-2.2h0.1c0,2.5,4,2.2,3.6-0.1	C57.2,144.6,63.6,148.1,69.3,151.3z" class="st14"/><path d="M62.2,151.5H55l-1.7-0.9h-0.1v-1.9h0.1l3.7,0.1l0,0L62.2,151.5z" class="st14"/><path d="M55,151.5l5.8,3.3H54l-0.7-0.4h0v-3.8h0.1L55,151.5z" class="st14"/><path d="M68.2,154.8h-7.4l-5.8-3.3h7.2L68.2,154.8z" class="st14"/><path d="M75.4,154.7L75.4,154.7l-7.2,0.1l-6-3.3h7l0.1-0.2C71.6,152.6,73.8,153.8,75.4,154.7z" class="st14"/><path d="M77.6,156c1.3,0.8,1.6,2-0.9,2c-0.9,0-1.4,0-2.8,0v-0.1l-5.7-3.1h7.1l0-0.1C76.6,155.3,77.4,155.8,77.6,156z" class="st14"/><path d="M74,157.9L74,157.9c-1.4,0.1-3.5,0.1-7.5,0.1v-0.1l-5.6-3.2h7.4L74,157.9z" class="st14"/><path d="M66.5,157.9L66.5,157.9c-2,0.1-4.4,0.1-7.3,0.1v-0.1l-5.2-3.1h6.9L66.5,157.9z" class="st14"/><path d="M54,154.8l5.2,3.1v0.1c-1.7,0-3.6,0-5.7,0h-0.2v-3.7h0L54,154.8z" class="st14"/><path d="M53.3,161.8c0.3,0.3,0.6,0.6,0.8,1c0.3,0.6,0.5,1.3,0.5,2c0,0.8-0.2,1.6-0.7,2.3c-0.7,1.1-2,1.9-3.5,1.9	c-0.7,0-1.4-0.2-2-0.5c-1.3-0.7-2.2-2.1-2.2-3.7c0-1.3,0.6-2.5,1.5-3.2c0.7-0.6,1.6-0.9,2.6-0.9C51.5,160.6,52.5,161.1,53.3,161.8z" class="st15"/><path d="M24.4,115.5l7.5,19.4L15,127.1L24.4,115.5z" class="st1"/><path d="M187.4,55c2.1,2.4,2.2,5.3,0.4,11.6c-0.7,2.4-5,15.5-10,30.8l0,0c-0.9-3.4-7.6-5.2-10.2-2.9l-0.1,0	c2.3-6.7,4.2-12.3,5.2-15c1.2-0.8,2.1-1.9,2.7-3.4l7.9-22.4c0.2-0.5,0.3-0.9,0.3-1.4C184.1,52.7,186,53.4,187.4,55z" class="st16"/><path d="M179.3,45.4c2.9,1.1,4.7,4,4.3,7.1c-0.1,0-0.2-0.1-0.2-0.1l-0.1,0c0-0.2,0-0.4,0-0.6c0-2.2-1.4-4.3-3.6-5.1	c-2.8-1-5.9,0.5-6.9,3.3l-7.6,21.4c-0.2,0.6-0.3,1.2-0.3,1.8c0,2.2,1.4,4.3,3.6,5.1c1.6,0.6,3.3,0.4,4.6-0.5l0,0.1	c0,0-0.2,0.6-0.6,1.7c-1.6,1-3.7,1.3-5.7,0.6l-0.6-0.2c-0.9-0.3-1.7-0.9-2.4-1.5c-1.8-1.8-2.5-4.4-1.6-6.9l7.9-22.4	c0.6-1.6,1.7-2.9,3.2-3.6c1.5-0.8,3.4-1,5.2-0.3L179.3,45.4z" class="st17"/><path d="M183.3,51.8c0,0.2,0,0.4,0,0.6c0,0.4-0.1,0.9-0.3,1.3l-1.6,4.5c0-0.1,0-0.1,0-0.2c0-1.2-0.7-2.3-1.9-2.7	c-1.5-0.5-3.1,0.2-3.6,1.7l-4.7,13.1c-0.1,0.3-0.2,0.7-0.2,1c0,1.2,0.7,2.3,1.9,2.7c1.3,0.5,2.7-0.1,3.4-1.2l-0.9,2.5	c-0.4,1.2-1.3,2.2-2.3,2.8c-1.3,0.8-3,1-4.6,0.5c-2.2-0.8-3.6-2.9-3.6-5.1c0-0.6,0.1-1.2,0.3-1.8l7.6-21.4c1-2.8,4.1-4.3,6.9-3.3	C182,47.5,183.3,49.6,183.3,51.8z" class="st16"/><path d="M181.4,58c0,0.1,0,0.1,0,0.2l-5.1,14.4c-0.7,1.2-2.1,1.7-3.4,1.2c-1.1-0.4-1.9-1.5-1.9-2.7	c0-0.3,0.1-0.7,0.2-1l4.7-13.1c0.5-1.5,2.2-2.2,3.6-1.7C180.7,55.7,181.4,56.8,181.4,58z" class="st16"/><path d="M177.7,97.5L177.7,97.5c-0.4,1.4-0.9,2.7-1.3,4.1l-0.1,0c-0.9-3.4-7.6-5.2-10.2-2.9l-0.1,0	c0.5-1.4,1-2.8,1.4-4.1l0.1,0C170.2,92.3,176.8,94.1,177.7,97.5z" class="st17"/><path d="M176.3,101.6l0.1,0c-0.4,1.4-0.9,2.7-1.3,4.1l-0.1,0c-0.9-3.4-7.6-5.2-10.2-2.9l-0.2-0.1	c0.5-1.4,0.9-2.7,1.4-4.1l0.1,0C168.7,96.4,175.4,98.2,176.3,101.6z" class="st17"/><path d="M175,105.7L175,105.7c-2.6,8.2-5.4,16.5-7.9,23.9l-0.3-0.1c-0.9-3.4-7.6-5.2-10.2-2.9l-0.3-0.1	c2.3-6.7,5.3-15.5,8.2-23.8l0.2,0.1C167.4,100.5,174.1,102.3,175,105.7z" class="st16"/><path d="M173.4,45.4l0.1,0.1c-1.4,0.7-2.6,2-3.2,3.6l-7.9,22.4c-0.9,2.5-0.2,5.2,1.6,6.9l-0.1,0.1l-4.4-0.8	c0.4-1.6,0.5-3.4,0.5-5.2c-0.1-6.4-2-10-4.4-12.8l0.1-0.1c0,0,3.9-13.8,6.9-15l0-0.2L173.4,45.4z" class="st18"/><path d="M170.7,164.3c0.1,0.5,0.1,1,0.1,1.5c0,3-3,2.9-5.9,2.9s-46.7,0.3-46.7,0.3c-0.9,0-1.8-0.1-2.4-0.6	c-0.7-0.5-1-1.4-1-2.9c0-2.9,1.3-5.8,6.8-5.8h43.5C168.5,159.7,170.2,161.8,170.7,164.3z" class="st16"/><path d="M170.7,164.3L170.7,164.3c-0.5-2.5-2.1-4.6-5.5-4.6h-43.5c-5.5,0-6.8,2.9-6.8,5.8c0,1.5,0.4,2.4,1,2.9	l-11.4-5.3l-0.1,0c0.8-2.3,1.4-4.5,1.6-5.4l0.2,0c0,0,1,3.4,3.2,3.4c0.3,0,0.6-0.1,0.9-0.4l0,0l11.5-5.6c0,0,17.1-0.2,22.1-0.3	c3.6,0,6.5-1.5,8.3-4l0,0c0,0,3.3,1.3,6.8,2.9c3.6,1.6,7.6,3.5,8.7,4.5C170,160.3,170.5,162.2,170.7,164.3z" class="st18"/><path d="M166.9,80.2c2,0.7,4.1,0.4,5.7-0.6c-0.9,2.7-2.9,8.3-5.2,15c-0.5,1.3-0.9,2.7-1.4,4.1	c-0.5,1.3-0.9,2.7-1.4,4.1c-2.9,8.3-5.9,17.1-8.2,23.8c-0.5,1.5-1,2.9-1.4,4.1c-0.5,1.6-1,3-1.4,4.1c-0.5,1.6-0.9,2.6-0.9,2.6l0,0	c-1.4-3.7-3.7-9.4-6-15l0,0c4.6-12.8,9.6-26.5,10.2-28.7c1.6-5.3-1.4-7.4-1.4-7.4l0,0c2-2.5,3.3-5.3,4-8.4l4.4,0.8l0.1-0.1	c0.7,0.7,1.5,1.2,2.4,1.5L166.9,80.2z" class="st18"/><path d="M166.9,129.5l0.3,0.1c-0.5,1.4-0.9,2.8-1.4,4.1l-0.3-0.1c-0.9-3.4-7.6-5.2-10.2-2.9l-0.2-0.1	c0.4-1.2,0.9-2.6,1.4-4.1l0.3,0.1C159.3,124.3,166,126.1,166.9,129.5z" class="st17"/><path d="M165.4,133.6l0.3,0.1c-0.5,1.4-0.9,2.8-1.4,4.1l-0.3-0.1c-0.9-3.4-7.6-5.2-10.2-2.9l-0.3-0.1	c0.4-1.1,0.8-2.5,1.4-4.1l0.2,0.1C157.9,128.4,164.5,130.2,165.4,133.6z" class="st17"/><path d="M164.1,137.7l0.3,0.1c-3.1,9.4-5.2,15.8-5.2,15.8l-0.1,0.3c-3.6-1.6-6.8-2.9-6.8-2.9l0,0	c2.2-3,2.7-7.3,1.1-11.9c-0.2-0.5-0.4-1.1-0.6-1.7l0,0c0,0,0.3-1,0.9-2.6l0.3,0.1C156.6,132.5,163.2,134.3,164.1,137.7z" class="st16"/><path d="M162.5,44.4l0,0.2c-3,1.3-6.9,15-6.9,15l-0.1,0.1c-0.7-0.8-1.5-1.6-2.2-2.4l0.1-0.1c0,0,3.4-12,6-13.1l0-0.1	L162.5,44.4z" class="st18"/><path d="M159.5,77.8c-0.7,3.1-2,5.9-4,8.4c-3.9,5-10.4,8.8-19,10.7l0,0l-5.7-11.6l-0.1-0.1c2.3-2.1,3.9-4.8,4.1-8.1	c0.5-8.2,0.5-13.6,0.5-14c2.6,0.9,6.2-0.9,6.1-5c-0.1-3.4-3-5.2-5.7-4.5l0-0.1c-3.6-1.1-4.6-5.4-4.1-9.9v-0.1c7.2,0,12.9,0,14.2,0	v0.1c-0.1,3.6,1,6.9,5.2,11.4c0.7,0.8,1.5,1.5,2.3,2.3c0.8,0.8,1.5,1.5,2.2,2.4c2.4,2.8,4.4,6.4,4.4,12.8	C160,74.4,159.8,76.1,159.5,77.8z" class="st17"/><path d="M159.4,44.1L159.4,44.1c-2.6,1.1-6,13.2-6,13.2l-0.1,0.1c-0.8-0.8-1.5-1.5-2.3-2.3c-4.3-4.4-5.4-7.8-5.2-11.4	v-0.1h0.3c0.8,0,1.4-0.2,1.8-0.6l0.3,0.1L159.4,44.1z" class="st18"/><path d="M155.5,86.3c0,0,3,2.1,1.4,7.4c-0.7,2.2-5.6,15.9-10.2,28.7l0,0c-3.8-9-7.6-17.8-7.6-17.8v0l1.1,0.1l-3.7-7.6	l0,0C145.1,95,151.6,91.3,155.5,86.3L155.5,86.3z" class="st18"/><path d="M136.1,121.1l-5.9,24.7v0c3.1-0.1,6.2-0.2,8.3-0.3c0.2,0,0.3,0,0.4,0c5.2-0.3,5.5-3.9,4.3-7.2	c-0.2-0.6-0.6-1.7-1.2-3.1C140.5,131.4,137.9,125.2,136.1,121.1z M103.7,123.7l-0.2,0c-1.8,7-6.5,12.6-12.9,16.7	c-3.7,2.3-7.9,4.2-12.5,5.6c-0.1,0-0.2,0.1-0.3,0.1l-0.1-0.2c0,0,0.9-1.8,0-5.5c-0.7-3.1-2.9-4.2-2.9-4.2l0-0.2	c14-2.2,24.5-10.6,27.6-27.2l0,0c0.5,0.6,1.3,1,2.2,1c0.3,0,0.6-0.1,0.9-0.1l0,0.1c-1.1,0.4-1.8,1.4-1.8,2.6c0,1.6,1.2,2.8,2.8,2.8	c0.5,0,1-0.1,1.4-0.4l0.2,0.1c-0.8,0.5-1.3,1.4-1.3,2.4c0,1.3,0.9,2.4,2,2.7l0,0.2l7.4,16.8l9.5-18.7l0-0.1c1.2-0.3,2.1-1.4,2.1-2.7	c0-0.8-0.3-1.5-0.8-2c0.4,0.3,0.9,0.4,1.5,0.4c1.5,0,2.8-1.3,2.8-2.8c0-1-0.6-2-1.4-2.5l0.1-0.1c0.4,0.3,0.9,0.4,1.4,0.4	c1.5,0,2.8-1.3,2.8-2.8c0-0.6-0.2-1.2-0.5-1.7v0l5.3,0.3v0c0,0,3.8,8.8,7.6,17.8c2.3,5.6,4.6,11.2,6,15c0.2,0.6,0.4,1.2,0.6,1.7	c1.6,4.7,1.1,9-1.1,11.9c-1.8,2.4-4.7,3.9-8.3,4c-5,0-22.1,0.3-22.1,0.3c0.9-1.7,1-6.4-2.9-9v-0.1c-2,0-9.8,0.2-11.5,0.2V146l-1-5.7	L103.7,123.7z" class="st19"/><path d="M145.9,38.6c2.3,0,3.2,2,2.7,3.4l-0.1,0H89.7l0,0c-0.3-1,0.3-2.3,1.2-2.8c0.8-0.4,3.9-2,7.6-3.9	c4.4-2.3,9.7-5,12.5-6.3c5.2-2.4,8.8-2.3,11-0.3c1.7,1.6,8.6,8.6,8.6,8.6s0.8,1.2,2.1,1.2H145.9z" class="st20"/><path d="M148.5,42.1l0.1,0c-0.1,0.4-0.4,0.7-0.7,1c-0.4,0.4-1,0.6-1.8,0.6h-0.3c-1.4,0-7,0-14.2,0	c-8.8,0-19.8,0-27.9,0c-1.8,0-3.4,0-4.9,0c-3.3,0-5.7,0-6.3,0c-1.6,0-2.4-0.7-2.7-1.6l0,0H148.5z" class="st20"/><path d="M135,16.1c12.6,1.1,10.9,22.3,10.9,22.3v0.2h-13.1c-1.3,0-2.1-1.2-2.1-1.2s-6.9-7-8.6-8.6	c-2.2-2-5.8-2.1-11,0.3c-2.9,1.3-8.1,4-12.5,6.3L98.4,35c0-2-0.4-12.3,9.4-15.7c7.8-2.7,12.5,2,12.5,2.9	C120.3,22.2,123.7,15.1,135,16.1z" class="st17"/><path d="M143.2,138.3c1.2,3.4,0.9,7-4.3,7.2c-0.1,0-0.3,0-0.4,0l0-0.2c0,0,1.3-4,3.6-10.1	C142.6,136.6,143,137.7,143.2,138.3z" class="st18"/><path d="M124,77.5c0-0.2,0-0.4,0-0.5c0-1.1-0.2-2.2-0.5-3.1c-0.6-1.6-1.8-2.8-3.6-2.8c-2.8,0-3.9,2.6-3.9,2.6	s-1.2-2.7-4-2.4c-1.1,0.1-1.9,0.9-2.5,2.1c-0.4,0.9-0.6,1.9-0.6,3.1c0,1.3,0.4,2.6,1.1,3.7c1.6,2.6,4.6,3.8,7.6,3.4	C121.9,83.1,123.8,80.4,124,77.5z M135.7,53.8c2.7-0.7,5.7,1.1,5.7,4.5c0.1,4-3.6,5.9-6.1,5c0,0.4,0,5.7-0.5,14	c-0.2,3.3-1.8,6-4.1,8.1c-2.2,1.9-5.1,3.3-8.2,3.8c-2.5,0.5-5.2,0.4-7.7-0.2c-1.6-0.4-3.1-1-4.5-1.9c-4.1-2.6-7.1-7.3-7.1-14.8	c0-3,0.1-11.8,0.2-18.9c0.6,0.2,1.2,0.2,1.9,0.2h0c0,0.1,0,0.2,0,0.2c0,1.5,0.6,2.8,1.5,3.8c1,1,2.4,1.7,3.9,1.7	c2.6,0,4.7-1.8,5.3-4.3h0l0,0c0.3,1.3,1,2.3,1.9,3.1c0.9,0.7,2.1,1.2,3.3,1.2c3,0,5.4-2.5,5.4-5.5c0-0.3,0-0.7-0.1-1	c-0.5-2.6-2.7-4.5-5.3-4.5c-2.7,0-4.7,1.8-5.3,4.1H116c-0.6-2.4-2.7-4.1-5.3-4.1c-2.2,0-4.1,1.3-4.9,3.2l-0.2-0.1	c-0.9,0-1.6-0.3-2.1-0.7c0.1-4,0.1-6.9,0.1-6.9v-0.1c8.2,0,19.2,0,27.9,0v0.1c-0.5,4.5,0.5,8.8,4.1,9.9L135.7,53.8z" class="st21"/><path d="M136.5,97l3.7,7.6l-1.1-0.1l-5.3-0.3l-4.2-0.2l-5.4-0.3l-1.6-14.6v0c3.1-0.6,6-1.9,8.2-3.8l0.1,0.1L136.5,97z" class="st19"/><path d="M142,135.2c-2.3,6.2-3.6,10.1-3.6,10.1l0,0.2c-2.1,0.1-5.2,0.2-8.3,0.3v0l5.9-24.7	C137.9,125.2,140.5,131.4,142,135.2z" class="st18"/><path d="M130.1,108.4L130.1,108.4c-0.5-0.1-0.9-0.3-1.4-0.3c-1.5,0-2.8,1.3-2.8,2.8c0,0.8,0.3,1.5,0.8,2	c-0.4-0.3-0.9-0.4-1.5-0.4c-1.5,0-2.8,1.3-2.8,2.8c0,0.6,0.2,1.1,0.5,1.6l-0.1,0c-0.5-0.7-1.3-1.2-2.3-1.2c-1.5,0-2.8,1.3-2.8,2.8	c0,0.1,0,0.2,0,0.3l-0.1,0c-0.2-1.4-1.3-2.5-2.8-2.5c-1.2,0-2.2,0.8-2.6,1.8h0l0,0c0.1-0.3,0.2-0.6,0.2-1c0-1.6-1.2-2.8-2.8-2.8	c-0.5,0-1,0.1-1.4,0.4l-0.2-0.1c0.8-0.5,1.3-1.4,1.3-2.4c0-1.6-1.2-2.8-2.8-2.8c-0.3,0-0.7,0.1-1,0.2l0-0.1c1.1-0.4,1.9-1.4,1.9-2.7	c0-1.6-1.2-2.8-2.8-2.8v-0.4l6.6-0.1l5.3,7.4l7.6-7.3l5.4,0.3l0,0.1c-0.5,0.5-0.8,1.1-0.8,1.8C128.8,107,129.3,107.9,130.1,108.4z" class="st19"/><path d="M126.7,52.8c0.1,0.3,0.1,0.7,0.1,1c0,3-2.4,5.5-5.4,5.5c-1.3,0-2.4-0.4-3.3-1.2l0,0c2,0.1,3.4-0.6,4.2-1.7	l-2.9-2.7l4-0.3c0-0.9-0.2-1.7-0.7-2.4v0C124.5,51.3,126,52,126.7,52.8L126.7,52.8z" class="st22"/><path d="M126.7,52.8L126.7,52.8c-0.7-0.8-2.2-1.5-4-1.8c-2-0.3-4.4,0-6.5,1.5l-0.1,0c0,0,0,0,0,0	c0.6-2.4,2.7-4.1,5.3-4.1C124,48.3,126.3,50.2,126.7,52.8z" class="st19"/><path d="M125.9,118L125.9,118l-9.5,18.8l-7.4-16.8l0-0.2c0.2,0.1,0.5,0.1,0.7,0.1c1.2,0,2.2-0.8,2.6-1.8l0,0	c-0.1,0.3-0.2,0.7-0.2,1c0,1.6,1.2,2.8,2.8,2.8s2.8-1.3,2.8-2.8c0-0.1,0-0.2,0-0.3l0.1,0c0.1,1.4,1.3,2.5,2.8,2.5	c1.5,0,2.8-1.3,2.8-2.8c0-0.6-0.2-1.2-0.5-1.6l0.1,0c0.5,0.8,1.3,1.2,2.3,1.2C125.4,118.1,125.6,118.1,125.9,118z" class="st19"/><path d="M122.5,89.1l1.6,14.6l-7.6,7.3l-5.3-7.4l0.1-0.4l3.5-14.1l0.1-0.2C117.3,89.5,120,89.6,122.5,89.1L122.5,89.1	L122.5,89.1z" class="st21"/><path d="M124,77c0,0.2,0,0.4,0,0.5c-0.7,0.9-2,1.7-3.7,2.3l0,0l-0.1-4.2l0-0.1c1.3-0.4,2.5-0.9,3.3-1.7l0,0	C123.8,74.8,124,75.9,124,77z" class="st22"/><path d="M123.5,73.9L123.5,73.9c-0.9,0.8-2,1.3-3.3,1.7c-1.3,0.4-2.8,0.5-4.3,0.5c-1.6-0.1-3.2-0.4-4.4-1	c-0.8-0.4-1.5-0.9-2-1.6l-0.1,0c0.5-1.1,1.4-2,2.5-2.1c2.8-0.3,4,2.4,4,2.4s1.1-2.6,3.9-2.6C121.6,71.1,122.8,72.2,123.5,73.9z" class="st6"/><path d="M123.4,53.4l-4,0.3l2.9,2.7c-0.8,1-2.3,1.7-4.2,1.7l0,0c-1-0.8-1.7-1.8-1.9-3.1h0c-0.1-0.4-0.1-0.8-0.1-1.2	c0-0.5,0.1-0.9,0.2-1.4l0.1,0c2.1-1.5,4.5-1.8,6.5-1.5v0C123.1,51.7,123.4,52.5,123.4,53.4z" class="st10"/><path d="M111.3,79c1.4,0.9,2.9,1.3,4.5,1.4c1.5,0.1,3.1-0.2,4.4-0.6c1.7-0.5,3.1-1.4,3.7-2.3c-0.2,2.9-2.1,5.6-6.5,6.2	c-3,0.4-5.9-0.8-7.6-3.4c-0.7-1.2-1.1-2.5-1.1-3.7h0C109.5,77.6,110.4,78.4,111.3,79z" class="st6"/><path d="M118.9,146.2c3.9,2.6,3.8,7.2,2.9,9l-11.5,5.6l0,0c0.9-0.8,1.4-2.7,1.5-4.8c0-0.7,0-1.4,0-2.1	c-0.2-2.1-1-4.4-2.1-5.9c-0.7-1-1.6-1.7-2.4-1.7v0h0.2c1.7,0,9.4-0.2,11.5-0.2L118.9,146.2L118.9,146.2z" class="st19"/><path d="M120.2,79.8L120.2,79.8c-1.3,0.4-2.8,0.7-4.4,0.6v-0.1l0-4.2v0c1.5,0.1,2.9-0.1,4.3-0.5l0,0.1L120.2,79.8z" class="st22"/><path d="M116.1,52.4C116.1,52.4,116.1,52.4,116.1,52.4c-0.1,0.5-0.2,0.9-0.2,1.4c0,0.4,0,0.8,0.1,1.2h0	c-0.6,2.4-2.7,4.3-5.3,4.3c-1.5,0-2.9-0.6-3.9-1.7l0,0c0.4,0.1,0.8,0.2,1.2,0.2c1.4,0,2.7-0.6,3.5-1.7l-2.9-2.7l4-0.3	c0-0.9-0.2-1.7-0.7-2.4v0c1.7,0.3,3.2,1,3.9,1.8L116.1,52.4L116.1,52.4z" class="st22"/><path d="M116,52.4l-0.1,0c-0.7-0.8-2.1-1.5-3.9-1.8c-2-0.3-4.3,0-6.4,1.5l0,0c0.1-0.2,0.1-0.4,0.2-0.6	c0.9-1.9,2.7-3.2,4.9-3.2C113.3,48.3,115.4,50,116,52.4z" class="st19"/><path d="M115.8,76L115.8,76l0,4.3v0.1c-1.6-0.1-3.1-0.5-4.5-1.4l0.1-3.9l0.1-0.1C112.7,75.7,114.2,76,115.8,76z" class="st22"/><path d="M114.8,88.9l-0.1,0.2l-3.5,14.1l-0.1,0.4l-6.6,0.1l-9.1,0.1l7.1-8l7.6-8.6l0.1-0.1	C111.7,87.9,113.3,88.5,114.8,88.9z" class="st19"/><path d="M112.7,53.1l-4,0.3l2.9,2.7c-0.8,1-2.1,1.7-3.5,1.7c-0.4,0-0.8-0.1-1.2-0.2l0,0c-0.9-1-1.5-2.3-1.5-3.8	c0-0.1,0-0.2,0-0.2c0-0.5,0.1-1,0.2-1.4l0,0c2.1-1.5,4.5-1.8,6.4-1.5v0C112.5,51.4,112.7,52.2,112.7,53.1z" class="st10"/><path d="M87.9,168.8c-1.3,0.7-2.5,0.9-3.5,0.8c-2.8-0.4-2.5-2.3-2.5-2.3s0.2,0,0.5-0.1c1.1-0.4,4.2-1.6,6.2-4.5	c0.6-0.9,1.2-2.2,1.7-3.4c0.9-2.1,1.4-4.2,1.4-4.2s-1,1.9-3.4,3c-1,0.5-2.4,0.8-4,0.7c-3.4-0.1-3.2-3-1.8-3.5	c0.2-0.1,0.4-0.1,0.6-0.1c2.2,0.2,3.9-0.6,5.2-1.7c0.3-0.2,0.5-0.5,0.8-0.7c1.5-1.5,3.7-4.9,7.6-4.9c2.2,0,5.9,0,8.8,0	c2.4,0,4.3,0,4.3,0l0.1,0c1.1,1.5,1.9,3.7,2.1,5.9c0.1,0.7,0.1,1.4,0,2.1l-0.1,0c0,0-2.2,0.1-3.9,0.1c-1,0-1.7,0.6-1.7,1.3	c0,0,0,0.1-0.1,0.4c-0.2,0.9-0.7,3.1-1.6,5.4c-0.7,1.9-1.6,4-2.7,5.4c-2,2.6-4,3.5-5.5,1.9l-0.1-0.2c-1.4,0.9-2.7,0.7-3.8-0.4l0,0	C90.6,170.8,88.9,170.5,87.9,168.8L87.9,168.8z" class="st21"/><path d="M111.7,155.9l0.1,0c-0.1,2.1-0.7,4-1.5,4.8c-0.3,0.2-0.6,0.4-0.9,0.4c-2.1,0-3.2-3.4-3.2-3.4l-0.2,0	c0.1-0.3,0.1-0.4,0.1-0.4c0-0.7,0.7-1.3,1.7-1.3C109.5,156,111.7,155.9,111.7,155.9z" class="st23"/><path d="M111.5,75l-0.1,0.1l-0.1,3.9c-0.9-0.6-1.8-1.4-2.5-2.5h0c0-1.1,0.2-2.2,0.6-3.1l0.1,0	C110,74.1,110.6,74.7,111.5,75z" class="st22"/><path d="M87.2,86.8c-2-2.9-3.4-6.6-3.1-11.1c0.5-7.8,6.7-11.5,11-16.8c4-4.9,3.6-10.3,3.6-15.3v0c1.5,0,3.1,0,4.9,0	v0.1c0,0,0,2.9-0.1,6.9c0,0.8,0,1.7,0,2.6c-0.1,7.1-0.2,16-0.2,18.9c0,7.5,3,12.2,7.1,14.8l-0.1,0.1l-7.6,8.6l-0.1-0.1	c0,0-2.3-0.3-7.8-2.6C92.2,91.9,89.4,89.8,87.2,86.8z" class="st17"/><path d="M107.3,146.3c0.8,0,1.7,0.7,2.4,1.7l-0.1,0c0,0-1.9,0-4.3,0V148c0,0,0.2-0.6,0.7-1.1c0.3-0.3,0.6-0.5,1.1-0.5	L107.3,146.3L107.3,146.3z" class="st23"/><path d="M107.4,146v0.3h-0.3c-0.4,0-0.8,0.2-1.1,0.5l0,0c0,0-11.3-0.1-17.7-0.1c-5.3,0-6.1,4.6-4.8,6.2l-0.1,0.1	l-10.4-5.2l0-0.1c1.5-0.5,2.9-1,4.9-1.6c0.1,0,0.2-0.1,0.3-0.1c4.6-1.4,8.8-3.3,12.5-5.6l0,0h15.9L107.4,146z" class="st18"/><path d="M106,146.8L106,146.8c-0.4,0.5-0.6,1.1-0.6,1.1v0.1c-2.9,0-6.6,0-8.8,0c-3.9,0-6.1,3.4-7.6,4.9	c-0.2,0.2-0.5,0.5-0.8,0.7l-0.1-0.2h-3.5c-0.4,0-0.8-0.2-1-0.5c-1.3-1.6-0.5-6.2,4.8-6.2C94.7,146.7,106,146.8,106,146.8z" class="st16"/><path d="M105.6,51.4l0.2,0.1c-0.1,0.2-0.2,0.4-0.2,0.6c-0.1,0.5-0.2,0.9-0.2,1.4h0c-0.6,0-1.3,0-1.8-0.2	c0-0.9,0-1.8,0-2.6C104.1,51.2,104.8,51.4,105.6,51.4z" class="st21"/><path d="M88.2,158.1l2,1.2c-0.5,1.2-1.1,2.4-1.7,3.4H54.2l-0.2,0.1c-0.2-0.4-0.5-0.7-0.8-1V158h0.2c2.1,0,4,0,5.7,0	c3,0,5.4,0,7.3,0c4,0,6.2,0,7.5,0c1.4,0,1.9,0,2.8,0c2.4,0,2.1-1.2,0.9-2c-0.2-0.1-1-0.6-2.2-1.3c-1.6-0.9-3.8-2.1-6.1-3.4	c-5.7-3.1-12.1-6.7-12.3-6.7c-0.2-1.5-0.1-2.5,0-3.2l0.1,0l13.2,7.2l12,6.6l0,0.1c-1.4,0.5-1.6,3.4,1.8,3.5	C85.9,158.9,87.2,158.6,88.2,158.1L88.2,158.1L88.2,158.1z" class="st1"/><path d="M54.2,162.7h34.3c-2,2.9-5,4.1-6.2,4.5v-0.1H53.9l-0.1-0.1c0.4-0.7,0.7-1.4,0.7-2.3c0-0.7-0.2-1.4-0.5-2	L54.2,162.7z" class="st15"/><path d="M77.8,140.3c0.9,3.7,0,5.5,0,5.5l0.1,0.2c-2,0.6-3.4,1.1-4.9,1.6c-0.8,0.3-1.6,0.5-2.5,0.9l-0.1,0.1l-2.2-1.2	c0,0,0.4-3-0.7-6.2c-0.4-1-0.8-1.8-1.3-2.4c-1.5-1.8-3.2-2.3-3.2-2.3c4.2,0.3,8.2,0.1,12-0.5l0,0.2	C74.9,136.2,77.1,137.2,77.8,140.3z" class="st19"/><path d="M57,141.4c-0.2,0.7-0.3,1.7,0,3.2c0.4,2.3-3.6,2.6-3.6,0.1h-0.1v-5.3h0.1c0.6-2.2,1.9-2.8,3.5-2.8	c2.2,0.1,2.8,1,3.5,1.7c0.4,0.4,0.8,0.8,1.7,0.9c2.1,0.3,3.9-0.3,3.9-0.3l0.1-0.1c0.5,0.6,1,1.4,1.3,2.4c1.1,3.2,0.7,6.2,0.7,6.2	l2.2,1.2l0.1,0l0,0l-13.2-7.2L57,141.4z" class="st21"/><path d="M66.1,138.8l-0.1,0.1c0,0-1.8,0.6-3.9,0.3c-0.8-0.1-1.2-0.5-1.7-0.9c0-0.2,0.4-1.8,2.5-1.8	C62.9,136.5,64.6,136.9,66.1,138.8z" class="st23"/><path d="M53.3,158v3.8c-0.7-0.7-1.8-1.2-2.9-1.2c-1,0-1.9,0.4-2.6,0.9l-0.1-0.1v-0.1c0-2.6,0.1-40.8,0.1-43.4	c0-2.7,0.7-8-4.7-10c0,0-31.7-13.3-33.6-13.8c-1.6-0.4-4.8-1.6-6,2.1l0,0c0.4-3.5,2.1-4,3.5-4.2c1.5-0.2,4.8-0.4,6.6,0	c2.2,0.5,34.3,13.8,34.3,13.8c4.8,2.2,5.4,5.1,5.4,9.1V158z" class="st15"/><path d="M48.4,168.4L48.4,168.4L3.5,144.8c0,0-3-3.2,0-6.4l44.1,22.9h0.1v0.1l0.1,0.1c-0.9,0.8-1.5,1.9-1.5,3.2	C46.3,166.4,47.2,167.7,48.4,168.4z" class="st15"/><path d="M43,107.8c5.5,2,4.7,7.2,4.7,10s-0.1,40.8-0.1,43.4h-0.1L3.5,138.4c0,0-0.7-32.3-0.5-39.4	c0-1.2,0.2-2.1,0.4-2.9c1.1-3.7,4.3-2.5,6-2.1C11.4,94.6,43,107.8,43,107.8z M31.8,134.8l-7.5-19.4L15,127.1L31.8,134.8z" class="st15"/><path d="M145.8,43.7h0.3c0.8,0,1.4-0.2,1.8-0.6c0.3-0.3,0.6-0.6,0.7-1c0.5-1.5-0.5-3.4-2.7-3.4h-13.1	c-1.3,0-2.1-1.2-2.1-1.2s-6.9-7-8.6-8.6c-2.2-2-5.8-2.1-11,0.3c-2.9,1.3-8.1,4-12.5,6.3c-3.7,1.9-6.8,3.5-7.6,3.9	c-0.9,0.4-1.5,1.7-1.2,2.8c0.2,0.9,1,1.6,2.7,1.6c0.7,0,3,0,6.3,0c1.5,0,3.1,0,4.9,0c8.2,0,19.2,0,27.9,0	C138.7,43.7,144.4,43.7,145.8,43.7z" class="st12"/><path d="M98.4,35c0-2-0.4-12.3,9.4-15.7c7.8-2.7,12.5,2,12.5,2.9c0,0,3.4-7.1,14.7-6.1c12.6,1.1,10.9,22.3,10.9,22.3" class="st12"/><path d="M98.7,43.6c0,5,0.4,10.3-3.6,15.3c-4.3,5.3-10.5,9.1-11,16.8c-0.3,4.4,1.1,8.2,3.1,11.1c2.1,3,5,5.2,7.6,6.3	c5.5,2.3,7.8,2.6,7.8,2.6" class="st12"/><path d="M103.6,43.8c0,0,0,2.9-0.1,6.9c0,0.8,0,1.7,0,2.6c-0.1,7.1-0.2,16-0.2,18.9c0,7.5,3,12.2,7.1,14.8	c1.4,0.9,2.9,1.5,4.5,1.9c2.5,0.6,5.1,0.6,7.7,0.2c3.1-0.6,6-1.9,8.2-3.8c2.3-2.1,3.9-4.8,4.1-8.1c0.5-8.2,0.5-13.6,0.5-14v0" class="st12"/><path d="M132.6,56.2c0.8-1.3,1.9-2.1,3.1-2.4c2.7-0.7,5.7,1.1,5.7,4.5c0.1,4-3.6,5.9-6.1,5c-0.5-0.2-1-0.5-1.4-1" class="st12"/><path d="M136.7,56.7c-0.6,1.7-2,2.2-2.9,2.4" class="st12"/><path d="M136.8,60.7c-0.5-1.4-1.9-1.8-3-1.7" class="st12"/><path d="M131.6,43.8c-0.5,4.5,0.5,8.8,4.1,9.9" class="st12"/><path d="M136.5,97c8.6-2,15.1-5.7,19-10.7c2-2.5,3.3-5.3,4-8.4c0.4-1.6,0.5-3.4,0.5-5.2c-0.1-6.4-2-10-4.4-12.8	c-0.7-0.8-1.5-1.6-2.2-2.4c-0.8-0.8-1.5-1.5-2.3-2.3c-4.3-4.4-5.4-7.8-5.2-11.4" class="st12"/><path d="M110.3,87.2l-7.6,8.6l-7.1,8l9.1-0.1l6.6-0.1l5.3,7.4l7.6-7.3" class="st12"/><path d="M122.5,89.1l1.6,14.6l5.4,0.3l4.2,0.2l5.3,0.3l1.1,0.1l-3.7-7.6l-5.7-11.6" class="st12"/><path d="M114.8,89.1l-3.5,14.1" class="st12"/><path d="M147,67.7c1.7,7.9,8.1,11.1,12,11.6" class="st12"/><path d="M142.8,76.6c1.3,6.5,7.5,9.9,11.9,10.3" class="st12"/><path d="M138.8,85.7c0.9,5.2,5.7,7.1,8.7,7" class="st12"/><path d="M84.5,79.6c4.1,0.3,10.2-3.8,11.1-8.7" class="st12"/><path d="M87.1,86.8C87.2,86.8,87.2,86.8,87.1,86.8c4.1,0.1,10.5-4.7,11.1-9.1" class="st12"/><path d="M100.7,84.9c-0.5,3.3-4.3,6.5-7.7,6.7" class="st12"/><path d="M126.7,52.8c0.1,0.3,0.1,0.7,0.1,1c0,3-2.4,5.5-5.4,5.5c-1.3,0-2.4-0.4-3.3-1.2c-1-0.8-1.7-1.8-1.9-3.1h0	c-0.1-0.4-0.1-0.8-0.1-1.2c0-0.5,0.1-0.9,0.2-1.4c0,0,0,0,0,0c0.6-2.4,2.7-4.1,5.3-4.1C124,48.3,126.3,50.2,126.7,52.8z" class="st12"/><path d="M116.1,55c-0.6,2.4-2.7,4.3-5.3,4.3c-1.5,0-2.9-0.6-3.9-1.7c-0.9-1-1.5-2.3-1.5-3.8c0-0.1,0-0.2,0-0.2	c0-0.5,0.1-1,0.2-1.4c0.1-0.2,0.1-0.4,0.2-0.6c0.9-1.9,2.7-3.2,4.9-3.2c2.5,0,4.7,1.8,5.3,4.1" class="st12"/><path d="M105.6,52.1c2.1-1.5,4.5-1.8,6.4-1.5c1.7,0.3,3.2,1,3.9,1.8" class="st12"/><path d="M116.2,52.5c2.1-1.5,4.5-1.8,6.5-1.5c1.8,0.3,3.3,1,4,1.8" class="st12"/><path d="M129.3,48.8c-0.5,1.5-2.2,2.2-3.1,2.2" class="st12"/><path d="M130.2,51.3c-0.7,1-1.6,1.6-3.3,1.7" class="st12"/><path d="M102.5,48.6c0.1,1,0.5,1.6,1,2.1c0.5,0.5,1.3,0.7,2.1,0.7" class="st12"/><path d="M101.8,51.2c0.1,1.2,0.8,1.9,1.7,2.2c0.6,0.2,1.2,0.2,1.8,0.2" class="st12"/><path d="M115.2,57c0.1,2.8,0.3,4.7-0.9,6.3c-1.2,1.7-2.3,2.2-2.2,3.8c0.1,1.9,1.8,2.6,3.6,2.6c2.6-0.1,3.3-1.9,3.3-1.9" class="st12"/><path d="M123.5,73.9c-0.6-1.6-1.8-2.8-3.6-2.8c-2.8,0-3.9,2.6-3.9,2.6s-1.2-2.7-4-2.4c-1.1,0.1-1.9,0.9-2.5,2.1	c-0.4,0.9-0.6,1.9-0.6,3.1c0,1.3,0.4,2.6,1.1,3.7c1.6,2.6,4.6,3.8,7.6,3.4c4.4-0.6,6.3-3.2,6.5-6.2c0-0.2,0-0.4,0-0.5	C124,75.9,123.8,74.8,123.5,73.9z" class="st12"/><path d="M109.5,73.5c0.5,0.6,1.1,1.2,2,1.6c1.2,0.6,2.8,0.9,4.4,1c1.4,0.1,2.9-0.1,4.3-0.5c1.3-0.4,2.5-0.9,3.3-1.7" class="st12"/><path d="M108.8,76.5c0.7,1.1,1.6,1.9,2.5,2.5c1.4,0.9,2.9,1.3,4.5,1.4c1.5,0.1,3.1-0.2,4.4-0.6	c1.7-0.5,3.1-1.4,3.7-2.3c0,0,0,0,0-0.1" class="st12"/><path d="M115.8,76.1v4.2" class="st12"/><path d="M111.4,75.2l-0.1,3.9v0" class="st12"/><path d="M120.1,75.6l0.1,4.2" class="st12"/><path d="M106.9,57.6c0.4,0.1,0.8,0.2,1.2,0.2c1.4,0,2.7-0.6,3.5-1.7l-2.9-2.7l4-0.3c0-0.9-0.2-1.7-0.7-2.4" class="st12"/><path d="M118.1,58.1c2,0.1,3.4-0.6,4.2-1.7l-2.9-2.7l4-0.3c0-0.9-0.2-1.7-0.7-2.4" class="st12"/><path d="M89.7,42.1h58.8" class="st12"/><path d="M104.7,104.1c1.5,0,2.8,1.3,2.8,2.8c0,1.2-0.8,2.3-1.9,2.7c-0.3,0.1-0.6,0.1-0.9,0.1c-0.9,0-1.6-0.4-2.2-1	c-0.4-0.5-0.6-1.1-0.6-1.8C101.9,105.3,103.2,104.1,104.7,104.1z" class="st12"/><path d="M105.6,109.6c0.3-0.1,0.6-0.2,1-0.2c1.5,0,2.8,1.3,2.8,2.8c0,1-0.5,1.9-1.3,2.4c-0.4,0.3-0.9,0.4-1.4,0.4	c-1.5,0-2.8-1.3-2.8-2.8C103.8,111.1,104.6,110,105.6,109.6z" class="st12"/><path d="M108.3,114.8c0.4-0.3,0.9-0.4,1.4-0.4c1.5,0,2.8,1.3,2.8,2.8c0,0.3-0.1,0.7-0.2,1c-0.4,1.1-1.4,1.8-2.6,1.8	c-0.3,0-0.5,0-0.7-0.1c-1.2-0.3-2-1.4-2-2.7C106.9,116.2,107.4,115.3,108.3,114.8z" class="st12"/><path d="M117.7,118.8c0,0.1,0,0.2,0,0.3c0,1.6-1.2,2.8-2.8,2.8s-2.8-1.3-2.8-2.8c0-0.4,0.1-0.7,0.2-1h0	c0.4-1.1,1.4-1.8,2.6-1.8C116.4,116.3,117.6,117.4,117.7,118.8z" class="st12"/><path d="M122.8,116.9c0.3,0.5,0.5,1,0.5,1.6c0,1.6-1.2,2.8-2.8,2.8c-1.4,0-2.6-1.1-2.8-2.5c0-0.1,0-0.2,0-0.3	c0-1.6,1.2-2.8,2.8-2.8C121.5,115.7,122.3,116.2,122.8,116.9z" class="st12"/><path d="M127.2,113.3c0.5,0.5,0.8,1.2,0.8,2c0,1.3-0.9,2.4-2.1,2.7c-0.2,0.1-0.4,0.1-0.6,0.1c-1,0-1.8-0.5-2.3-1.2	c-0.3-0.4-0.5-1-0.5-1.6c0-1.6,1.2-2.8,2.8-2.8c0.5,0,1.1,0.2,1.5,0.4C126.9,113,127,113.2,127.2,113.3z" class="st12"/><path d="M130.1,108.5c0.8,0.5,1.4,1.4,1.4,2.5c0,1.6-1.2,2.8-2.8,2.8c-0.5,0-1.1-0.2-1.5-0.4c-0.2-0.1-0.4-0.3-0.5-0.4	c-0.5-0.5-0.8-1.2-0.8-2c0-1.6,1.2-2.8,2.8-2.8C129.2,108.1,129.6,108.2,130.1,108.5z" class="st12"/><path d="M133.8,104.3c0.3,0.5,0.5,1,0.5,1.7c0,1.6-1.2,2.8-2.8,2.8c-0.5,0-1-0.1-1.4-0.4c-0.8-0.5-1.3-1.4-1.3-2.4	c0-0.8,0.3-1.3,0.8-1.8" class="st12"/><path d="M108.9,120l7.4,16.8l9.5-18.7" class="st12"/><path d="M102.7,118l1,5.7l2.8,16.7l1,5.7" class="st12"/><path d="M134.3,116.8c0,0,0.8,1.8,1.8,4.3c1.7,4.1,4.3,10.3,5.9,14.1c0.6,1.4,1,2.5,1.2,3.1c1.2,3.4,0.9,7-4.3,7.2	c-0.1,0-0.3,0-0.4,0c-2.1,0.1-5.2,0.2-8.3,0.3c-5.4,0.2-10.8,0.3-10.8,0.3s-0.2,0-0.5,0c-2,0-9.8,0.2-11.5,0.2h-0.3	c-0.4,0-0.8,0.2-1.1,0.5c-0.4,0.5-0.7,1.1-0.7,1.1" class="st12"/><path d="M106.5,146.5c0.2-0.1,0.5-0.2,0.7-0.2c0.9,0,1.7,0.7,2.4,1.7c1.1,1.5,1.9,3.7,2.1,5.9c0.1,0.7,0.1,1.4,0,2.1	c-0.1,2.1-0.7,4-1.5,4.8c-0.3,0.2-0.6,0.4-0.9,0.4c-2.1,0-3.2-3.4-3.2-3.4" class="st12"/><path d="M110.3,160.8l11.5-5.6c0,0,17.1-0.2,22.1-0.3c3.6,0,6.5-1.5,8.3-4c2.2-3,2.7-7.3,1.1-11.9	c-0.2-0.5-0.4-1.1-0.6-1.7c-1.4-3.7-3.7-9.4-6-15c-3.8-9-7.6-17.8-7.6-17.8" class="st12"/><path d="M118.9,146.2c3.9,2.6,3.8,7.2,2.9,9" class="st12"/><path d="M136.2,121l0,0.1l-5.9,24.7" class="st12"/><path d="M102.5,108.7c-3.2,16.7-13.7,25-27.6,27.2c-3.8,0.6-7.8,0.8-12,0.5c0,0,1.8,0.5,3.2,2.3c0.5,0.6,1,1.4,1.3,2.4	c1.1,3.2,0.7,6.2,0.7,6.2l2.2,1.2l0.1,0" class="st12"/><path d="M70.4,148.5c0.9-0.3,1.7-0.6,2.5-0.9c1.5-0.5,2.9-1,4.9-1.6c0.1,0,0.2-0.1,0.3-0.1c4.6-1.4,8.8-3.3,12.5-5.6	c6.4-4.1,11.2-9.6,12.9-16.7" class="st12"/><path d="M109.6,148.1c0,0-1.9,0-4.3,0c-2.9,0-6.6,0-8.8,0c-3.9,0-6.1,3.4-7.6,4.9c-0.2,0.2-0.5,0.5-0.8,0.7	c-1.3,1.1-3,1.9-5.2,1.7c-0.2,0-0.4,0-0.6,0.1c-1.4,0.5-1.6,3.4,1.8,3.5c1.6,0.1,2.9-0.3,4-0.7c2.4-1.1,3.4-3,3.4-3s-0.5,2-1.4,4.2	c-0.5,1.2-1.1,2.4-1.7,3.4c-2,2.9-5,4.1-6.2,4.5c-0.3,0.1-0.5,0.1-0.5,0.1s-0.3,1.9,2.5,2.3c1,0.1,2.2,0,3.5-0.8	c1.1-0.6,2.2-1.6,3.4-3.1c2.9-3.7,3.3-6.2,3.3-6.2" class="st12"/><path d="M87.9,168.9c1,1.6,2.7,1.9,4.4,0.8c0.5-0.3,1.1-0.8,1.6-1.4c2.9-3.4,4.5-8.3,4.5-8.3" class="st12"/><path d="M92.3,169.7c1.1,1.2,2.4,1.3,3.8,0.4c0.6-0.4,1.2-1,1.8-1.7c2.7-3.6,3.9-8.3,3.9-8.3" class="st12"/><path d="M96.2,170.3c1.6,1.6,3.5,0.8,5.5-1.9c1.1-1.4,2-3.4,2.7-5.4c0.8-2.3,1.4-4.5,1.6-5.4c0.1-0.3,0.1-0.4,0.1-0.4	c0-0.7,0.7-1.3,1.7-1.3c1.7,0,3.9-0.1,3.9-0.1" class="st12"/><path d="M74.9,136.2c0,0,2.2,1.1,2.9,4.2c0.9,3.7,0,5.5,0,5.5" class="st12"/><path d="M170.7,164.3c0.1,0.5,0.1,1,0.1,1.5c0,3-3,2.9-5.9,2.9s-46.7,0.3-46.7,0.3c-0.9,0-1.8-0.1-2.4-0.6	c-0.7-0.5-1-1.4-1-2.9c0-2.9,1.3-5.8,6.8-5.8h43.5C168.5,159.7,170.2,161.8,170.7,164.3z" class="st12"/><path d="M104.5,163.1l11.4,5.3" class="st12"/><path d="M152.2,150.9c0,0,3.3,1.3,6.8,2.9c3.6,1.6,7.6,3.5,8.7,4.5c2.2,2,2.7,3.8,2.9,5.9" class="st12"/><path d="M146.7,122.3c4.6-12.8,9.6-26.5,10.2-28.7c1.6-5.3-1.4-7.4-1.4-7.4" class="st12"/><path d="M138.5,145.4c0,0,1.3-4,3.6-10.1c0,0,0,0,0,0" class="st12"/><path d="M152.8,137.3c0,0,0.3-1,0.9-2.6c0.4-1.1,0.8-2.5,1.4-4.1c0.4-1.2,0.9-2.6,1.4-4.1c2.3-6.7,5.3-15.5,8.2-23.8	c0.5-1.4,0.9-2.7,1.4-4.1c0.5-1.4,1-2.8,1.4-4.1c2.3-6.7,4.2-12.3,5.2-15c0.4-1.1,0.6-1.7,0.6-1.7" class="st12"/><path d="M159.2,153.6c0,0,2.1-6.4,5.2-15.8c0.4-1.3,0.9-2.7,1.4-4.1c0.4-1.3,0.9-2.7,1.4-4.1	c2.4-7.4,5.2-15.7,7.9-23.9c0.5-1.4,0.9-2.7,1.3-4.1c0.5-1.4,0.9-2.8,1.4-4.1c5.1-15.3,9.3-28.4,10-30.8c1.8-6.3,1.7-9.3-0.4-11.6	c-1.4-1.6-3.3-2.4-3.9-2.6c-0.1,0-0.2-0.1-0.2-0.1" class="st12"/><path d="M183.3,52.4c0,0.4-0.1,0.9-0.3,1.3l-1.6,4.5l-5.1,14.4l-0.9,2.5c-0.4,1.2-1.3,2.2-2.3,2.8	c-1.3,0.8-3,1-4.6,0.5c-2.2-0.8-3.6-2.9-3.6-5.1c0-0.6,0.1-1.2,0.3-1.8l7.6-21.4c1-2.8,4.1-4.3,6.9-3.3c2.2,0.8,3.6,2.9,3.6,5.1	C183.3,52,183.3,52.2,183.3,52.4z" class="st12"/><path d="M181.4,58.2c0,0.3-0.1,0.5-0.2,0.8l-4.7,13.1c-0.1,0.2-0.1,0.3-0.2,0.5c-0.7,1.2-2.1,1.7-3.4,1.2	c-1.1-0.4-1.9-1.5-1.9-2.7c0-0.3,0.1-0.7,0.2-1l4.7-13.1c0.5-1.5,2.2-2.2,3.6-1.7c1.1,0.4,1.9,1.5,1.9,2.7	C181.4,58.1,181.4,58.1,181.4,58.2z" class="st12"/><path d="M183.5,52.5c-0.1,0.5-0.2,0.9-0.3,1.4l-7.9,22.4c-0.5,1.4-1.5,2.6-2.7,3.4c-1.6,1-3.7,1.3-5.7,0.6l-0.6-0.2	c-0.9-0.3-1.7-0.9-2.4-1.5c-1.8-1.8-2.5-4.4-1.6-6.9l7.9-22.4c0.6-1.6,1.7-2.9,3.2-3.6c1.5-0.8,3.4-1,5.2-0.3l0.6,0.2	C182.2,46.5,183.9,49.4,183.5,52.5z" class="st12"/><path d="M159.4,77.8L159.4,77.8l4.4,0.8" class="st12"/><path d="M148.2,43.1l11.2,1l3.1,0.3l10.9,1" class="st12"/><path d="M159.4,44.2c-2.6,1.1-6,13.1-6,13.1" class="st12"/><path d="M162.5,44.7c-3,1.3-6.9,15-6.9,15" class="st12"/><path d="M167.5,94.6c2.6-2.3,9.3-0.5,10.2,2.9" class="st12"/><path d="M166.1,98.7c2.6-2.3,9.3-0.5,10.2,2.9" class="st12"/><path d="M164.8,102.8c2.6-2.3,9.3-0.5,10.2,2.9" class="st12"/><path d="M156.7,126.6c2.6-2.3,9.3-0.5,10.2,2.9" class="st12"/><path d="M155.3,130.7c2.6-2.3,9.3-0.5,10.2,2.9" class="st12"/><path d="M154,134.8c2.6-2.3,9.3-0.5,10.2,2.9" class="st12"/><path d="M66,138.9c0,0-1.8,0.6-3.9,0.3c-0.8-0.1-1.2-0.5-1.7-0.9c-0.7-0.7-1.3-1.5-3.5-1.7c-1.6,0-2.9,0.6-3.5,2.8" class="st12"/><path d="M62.9,136.5c-2,0-2.4,1.6-2.5,1.8c0,0,0,0,0,0" class="st12"/><path d="M57.2,141.5l13.2,7.2l12,6.6" class="st12"/><path d="M88.2,158.1l2,1.2l0,0" class="st12"/><path d="M88.5,162.7H54.2" class="st12"/><path d="M53.9,167.1h28.4" class="st12"/><path d="M54,162.8c0.3,0.6,0.5,1.3,0.5,2c0,0.8-0.2,1.6-0.7,2.3c-0.7,1.1-2,1.9-3.5,1.9c-0.7,0-1.4-0.2-2-0.5	c-1.3-0.7-2.2-2.1-2.2-3.7c0-1.3,0.6-2.5,1.5-3.2c0.7-0.6,1.6-0.9,2.6-0.9c1.1,0,2.1,0.4,2.9,1.2C53.6,162.1,53.8,162.4,54,162.8z" class="st12"/><path d="M47.7,161.5v-0.1c0-2.6,0.1-40.8,0.1-43.4c0-2.7,0.7-8-4.7-10c0,0-31.7-13.3-33.6-13.8c-1.6-0.4-4.8-1.6-6,2.1	C3.2,96.9,3.1,97.8,3,99c-0.2,7,0.5,39.4,0.5,39.4l44.1,22.9" class="st12"/><path d="M53.3,161.8v-47.1c0-4.1-0.6-6.9-5.4-9.1c0,0-32.1-13.3-34.3-13.8c-1.9-0.4-5.2-0.2-6.6,0	c-1.5,0.2-3.1,0.8-3.5,4.2" class="st12"/><path d="M48.4,168.5L48.4,168.5L3.5,144.8c0,0-3-3.2,0-6.4" class="st12"/><path d="M53.4,144.7c0,2.5,4,2.2,3.6-0.1c-0.2-1.5-0.1-2.5,0.1-3.2c0.2-0.8,0.5-1.1,0.5-1.1" class="st12"/><path d="M57,144.6c0.2,0,6.7,3.5,12.3,6.7c2.3,1.3,4.5,2.5,6.1,3.4c1.2,0.7,2,1.1,2.2,1.3c1.3,0.8,1.6,2-0.9,2	c-0.9,0-1.4,0-2.8,0c-1.4,0-3.5,0-7.5,0c-2,0-4.4,0-7.3,0c-1.7,0-3.6,0-5.7,0" class="st12"/><path d="M53.7,146.8l3.4,1.8l5.2,2.8l6,3.3l5.7,3.1" class="st12"/><path d="M53.3,150.5l1.7,0.9l5.8,3.3l5.6,3.2" class="st12"/><path d="M53.5,154.8H54h6.9h7.4h7.1" class="st12"/><path d="M53.7,151.5H55h7.2h7" class="st12"/><path d="M53.4,148.7l3.7,0.1" class="st12"/><path d="M53.3,154.4l0.7,0.4l5.2,3.1" class="st12"/><path d="M15,127.1l9.4-11.7l7.5,19.4L15,127.1z" class="st12"/><path d="M90.6,140.3h15.9h0" class="st12"/><path d="M88.1,153.4h-3.5c-0.4,0-0.8-0.2-1-0.5c-1.3-1.6-0.5-6.2,4.8-6.2c6.4,0,17.7,0.1,17.7,0.1" class="st12"/><path d="M72.9,147.8l10.4,5.2" class="st12"/><path d="M106.4,33.2c2.1-1.1,5.2-2.6,6.3-3.2c2.2-1.2,4,1,1.2,2.5c-1.7,0.9-2.8,1.3-6.5,3.3	C105.7,36.7,104.2,34.4,106.4,33.2L106.4,33.2z" class="st3"/><path d="M99.5,36.7c2.1-1.1,0.7-0.3,1.8-0.9c2.2-1.2,4,1.1,1.2,2.5c-1.7,0.9,1.7-0.9-2,1C98.7,40.2,97.3,37.9,99.5,36.7	z" class="st3"/></svg>