<svg width="201" height="164" viewBox="0 0 201 164" fill="none" xmlns="http://www.w3.org/2000/svg">
<path d="M95.312 16.9055L91.66 16.3633L84.887 18.1838L75.0996 21.5886C75.0996 21.5886 67.4418 25.207 67.4418 33.289C67.4418 41.3709 68.3134 77.7627 68.3134 77.7627C68.3134 77.7627 68.7201 86.4787 75.5267 89.0323C82.3363 91.5859 112.391 102.723 116.131 104.013C119.871 105.3 123.823 103.503 127.228 102.438C130.632 101.373 145.1 95.6284 145.1 95.6284C145.1 95.6284 150.207 88.8188 149.994 84.9898C149.78 81.1609 149.994 40.5227 149.994 40.5227C149.994 40.5227 146.861 31.2967 141.726 29.711C135.557 28.6462 95.3149 16.9085 95.3149 16.9085L95.312 16.9055Z" fill="#28736D"/>
<path d="M98.0548 21.1614C98.0548 21.1614 88.2675 20.9478 87.2027 25.628C86.138 30.3081 96.9901 35.6288 112.733 34.7776C128.476 33.9264 129.095 28.6887 128.476 27.3304C127.856 25.972 124.009 23.2879 124.009 23.2879L98.0518 21.1614H98.0548Z" fill="#FBD307"/>
<path d="M92.9508 24.1394C92.9508 24.1394 96.3556 29.8842 109.334 29.6707C122.313 29.4572 124.694 25.3109 124.439 25.2041C124.184 25.0944 122.099 9.46134 109.972 9.2478C97.8445 9.03425 92.9508 19.6728 92.9508 24.1423V24.1394Z" fill="#F38AFB"/>
<path d="M76.7804 74.1378C76.7804 74.1378 76.3563 77.1156 80.8229 79.0315C85.2895 80.9474 114.796 92.0004 114.796 92.0004C114.796 92.0004 120.183 90.9453 120.183 86.6893V49.6695C120.183 49.6695 119.118 47.1159 116.14 45.8406C113.163 44.5652 81.0364 36.0532 81.0364 36.0532C81.0364 36.0532 76.3563 36.8299 76.3563 41.371C76.3563 44.9864 76.7804 74.1349 76.7804 74.1349V74.1378Z" fill="#F38AFB"/>
<path d="M108.693 63.7127C108.693 63.7127 108.693 66.6905 111.033 66.6905C113.373 66.6905 114.812 64.4038 114.652 62.8615C114.492 61.3163 114.438 55.6278 114.438 55.6278C114.438 55.6278 114.014 50.7341 109.545 49.8829C105.078 49.0317 103.586 49.0317 103.376 50.307C103.162 51.5823 104.227 53.4983 105.292 54.136C106.356 54.7736 109.334 58.392 108.696 63.7098L108.693 63.7127Z" fill="#F9D9FF"/>
<path d="M94.6499 75.4132C94.6499 75.4132 93.8521 72.8774 92.0963 72.4355C90.3435 71.9935 87.2026 70.0954 87.2026 70.0954L86.3208 64.8601C86.3208 64.8601 83.7978 62.224 82.0954 63.2887C80.393 64.3535 80.1794 67.1177 80.1794 67.1177C80.1794 67.1177 80.8112 74.209 83.7978 75.6267C86.7815 77.0444 89.3291 77.5427 89.3291 77.5427C89.3291 77.5427 93.9053 78.9609 94.3294 75.9832L94.6499 75.4132Z" fill="#F9D9FF"/>
<path d="M133.372 51.3719C134.547 51.3719 135.499 50.372 135.499 49.1386C135.499 47.9052 134.547 46.9053 133.372 46.9053C132.198 46.9053 131.246 47.9052 131.246 49.1386C131.246 50.372 132.198 51.3719 133.372 51.3719Z" fill="#75F1F6"/>
<path d="M142.457 49.1417C143.631 49.1417 144.583 48.1418 144.583 46.9083C144.583 45.6749 143.631 44.675 142.457 44.675C141.282 44.675 140.33 45.6749 140.33 46.9083C140.33 48.1418 141.282 49.1417 142.457 49.1417Z" fill="#75F1F6"/>
<path d="M133.372 91.8381C134.547 91.8381 135.499 90.8383 135.499 89.6048C135.499 88.3714 134.547 87.3716 133.372 87.3716C132.198 87.3716 131.246 88.3714 131.246 89.6048C131.246 90.8383 132.198 91.8381 133.372 91.8381Z" fill="#75F1F6"/>
<path d="M142.457 89.6077C143.631 89.6077 144.583 88.6078 144.583 87.3744C144.583 86.141 143.631 85.1411 142.457 85.1411C141.282 85.1411 140.33 86.141 140.33 87.3744C140.33 88.6078 141.282 89.6077 142.457 89.6077Z" fill="#75F1F6"/>
<path d="M84.2252 92.4342V112.219L93.1614 120.091C93.1614 120.091 110.82 126.473 116.779 125.409C122.737 124.344 124.863 121.153 124.863 121.153V103.067C124.863 103.067 121.886 104.769 118.267 104.342C114.649 103.918 84.2252 92.4282 84.2252 92.4282V92.4342Z" fill="#03D17C"/>
<path d="M139.117 98.1789C139.117 98.1789 143.271 108.462 136.152 112.912C130.407 115.038 125.077 113.711 125.077 113.711V121.81C125.077 121.81 137.912 123.127 142.381 117.806C148.165 112.912 148.61 104.013 145.496 95.1147C145.496 95.1147 140.823 98.1789 139.12 98.1789H139.117Z" fill="#FBD307"/>
<path d="M103.747 115.093C103.747 115.093 98.4821 117.647 94.3329 117.009C90.1837 116.372 84.2282 112.223 84.2282 112.223C84.2282 112.223 79.0142 113.02 76.6208 112.383C74.2273 111.745 62.0109 109.209 58.271 113.341C54.531 117.472 52.6863 121.479 52.366 125.308C52.366 125.308 61.1419 134.722 71.5136 134.404L72.7889 133.927C72.7889 133.927 79.6489 142.065 96.406 142.225C113.16 142.385 124.97 130.098 126.566 127.864L125.077 121.162C125.077 121.162 118.448 124.991 115.236 124.513C112.024 124.033 106.781 121.642 106.781 121.642L104.547 118.928L103.75 115.099L103.747 115.093Z" fill="#FBD307"/>
<path d="M71.5136 134.401C71.5136 134.401 58.1642 133.283 52.366 125.305L52.5261 132.859C52.5261 132.859 63.8023 140.944 72.1008 141.368L75.5056 142.433C75.5056 142.433 85.9306 148.815 95.2909 148.815C104.651 148.815 123.375 142.646 127.417 134.348L126.566 127.858C126.566 127.858 114.652 140.517 102.949 141.581C91.2484 142.646 78.3766 140.73 72.7889 133.923L71.5136 134.401V134.401Z" fill="#FFF7ED"/>
<path d="M52.5258 132.859C52.5258 132.859 52.686 143.815 56.8352 144.135C60.9844 144.455 63.0576 142.062 63.0576 142.062C63.0576 142.062 65.7713 146.529 68.4821 146.849C71.1959 147.169 72.7915 147.009 72.7915 147.009C72.7915 147.009 73.9096 151.318 76.6204 151.476C79.3342 151.636 82.2052 149.402 82.2052 149.402C82.2052 149.402 85.5566 154.51 88.908 154.667C92.2594 154.827 96.726 151.636 96.726 151.636C96.726 151.636 101.279 155.052 103.673 154.735C106.066 154.417 108.213 150.04 108.213 150.04C108.213 150.04 111.573 153.009 115.233 152.434C118.893 151.858 120.18 145.574 120.18 145.574C120.18 145.574 122.573 147.647 124.489 147.329C126.405 147.009 128.144 143.612 127.254 133.823C127.254 133.823 115.598 148.059 99.5821 148.581C83.5665 149.103 73.8859 142.249 72.0352 140.46C71.3649 142.51 56.0344 137.542 52.5228 132.862L52.5258 132.859Z" fill="#F38AFB"/>
<path d="M99.2798 120.678C99.2798 120.678 100.555 125.625 103.589 126.263C106.62 126.901 110.93 126.583 111.888 124.507C111.888 124.507 105.983 120.678 104.547 118.922L99.2828 120.678H99.2798Z" fill="#F38AFB"/>
<path d="M79.8123 112.7C79.8123 112.7 79.9339 116.487 81.6748 117.967C81.924 118.178 81.8735 117.899 82.5231 118.442C84.8987 118.308 91.7795 118.282 91.7795 118.282C91.7795 118.282 93.7755 117.122 91.7795 116.526C88.5882 116.229 84.1217 111.419 84.1217 111.419C84.1217 111.419 81.7282 113.014 79.8123 112.694V112.7Z" fill="#F38AFB"/>
<path d="M127.859 25.9722L139.488 29.1931C145.533 30.8659 149.714 36.3676 149.714 42.6374V84.634C149.714 90.6131 145.906 95.925 140.244 97.8469L123.149 103.645C120.085 104.683 116.758 104.627 113.733 103.482L76.858 89.5306C71.5373 87.5168 67.9723 82.4748 67.8477 76.7863L66.9194 34.3271C66.783 28.1255 70.7572 22.5823 76.6741 20.7167L87.7961 17.2111C90.0413 16.5022 92.4228 16.3777 94.7184 16.8344" stroke="#0B1B34" stroke-width="0.9999" stroke-linecap="round" stroke-linejoin="round"/>
<path d="M93.2977 20.9482C89.4836 22.1494 87.0694 23.9586 86.9537 26.094C86.7253 30.3649 95.789 34.3213 107.199 34.9293C118.608 35.5373 128.043 32.5685 128.271 28.2977C128.366 26.5122 126.839 24.7831 124.196 23.3298" stroke="#0B1B34" stroke-width="0.9999" stroke-linecap="round" stroke-linejoin="round"/>
<path d="M92.835 23.825C92.6838 26.6722 99.4429 29.3504 107.931 29.8041C116.42 30.2579 123.781 28.8699 124.181 25.0943" stroke="#0B1B34" stroke-width="0.9999" stroke-linecap="round" stroke-linejoin="round"/>
<path d="M124.184 25.0943C124.184 16.4251 117.155 9.396 108.486 9.396C100.244 9.396 93.4843 15.7489 92.8378 23.8249" stroke="#0B1B34" stroke-width="0.9999" stroke-linecap="round" stroke-linejoin="round"/>
<path d="M82.7276 36.246L116.473 45.9325C118.668 46.5642 120.18 48.5722 120.18 50.8559V86.6894C120.18 90.2692 116.604 92.7427 113.255 91.4822L80.0257 78.9841C78.0564 78.2426 76.7395 76.3741 76.7069 74.2713L76.1879 41.2494C76.1345 37.812 79.4177 35.297 82.7217 36.246H82.7276Z" stroke="#0B1B34" stroke-width="0.9999" stroke-linecap="round" stroke-linejoin="round"/>
<path d="M124.81 103.209V121.31C124.81 121.31 113.24 129.748 103.85 118.451V99.9407" stroke="#0B1B34" stroke-width="0.9999" stroke-linecap="round" stroke-linejoin="round"/>
<path d="M124.81 121.31C124.81 121.31 127.761 125.613 127.117 132.817C127.049 133.583 126.741 134.306 126.248 134.896C123.546 138.123 113.549 148.634 97.9956 148.634C83.6171 148.634 75.8258 143.236 73.115 140.887C72.3824 140.253 71.9168 139.366 71.8189 138.402C71.4037 134.282 71.0863 122.401 80.7135 119.269C92.4198 115.458 99.7692 122.671 103.85 118.454" stroke="#0B1B34" stroke-width="0.9999" stroke-linecap="round" stroke-linejoin="round"/>
<path d="M126.987 127.686C126.987 127.686 113.649 142.812 96.5009 142.406C79.3523 141.997 72.1393 133.286 72.1393 133.286" stroke="#0B1B34" stroke-width="0.9999" stroke-linecap="round" stroke-linejoin="round"/>
<path d="M98.1347 142.269C98.1347 142.269 99.2706 126.349 91.0136 122.265C82.7567 118.181 76.1221 121.93 74.132 124.545" stroke="#0B1B34" stroke-width="0.9999" stroke-linecap="round" stroke-linejoin="round"/>
<path d="M117.03 124.273C115.26 126.103 114.085 128.452 113.412 130.908C112.739 133.363 112.549 135.926 112.564 138.473" stroke="#0B1B34" stroke-width="0.9999" stroke-linecap="round" stroke-linejoin="round"/>
<path d="M112.024 124.029C111.811 125.678 110.058 126.693 108.418 126.975C106.253 127.345 103.933 126.862 102.16 125.563C100.386 124.267 99.2117 122.152 99.1494 119.954" stroke="#0B1B34" stroke-width="0.9999" stroke-linecap="round" stroke-linejoin="round"/>
<path d="M84.2518 111.374V92.8645" stroke="#0B1B34" stroke-width="0.9999" stroke-linecap="round" stroke-linejoin="round"/>
<path d="M103.601 115.197C100.101 117.036 91.5241 120.121 84.2518 111.374" stroke="#0B1B34" stroke-width="0.9999" stroke-linecap="round" stroke-linejoin="round"/>
<path d="M71.8011 141.154C61.5807 139.858 55.7766 135.771 53.5166 133.811C52.784 133.176 52.3184 132.29 52.2205 131.326C51.8053 127.206 51.4879 115.325 61.1151 112.193C72.8214 108.382 80.1708 115.595 84.2518 111.377" stroke="#0B1B34" stroke-width="0.9999" stroke-linecap="round" stroke-linejoin="round"/>
<path d="M71.4157 134.89C58.1998 133.046 52.538 126.209 52.538 126.209" stroke="#0B1B34" stroke-width="0.9999" stroke-linecap="round" stroke-linejoin="round"/>
<path d="M76.7242 121.636C75.6565 118.896 73.9926 116.464 71.4123 115.185C63.1554 111.101 56.5207 114.85 54.5306 117.466" stroke="#0B1B34" stroke-width="0.9999" stroke-linecap="round" stroke-linejoin="round"/>
<path d="M97.4322 117.196C96.8539 117.795 96.3378 118.447 95.884 119.144" stroke="#0B1B34" stroke-width="0.9999" stroke-linecap="round" stroke-linejoin="round"/>
<path d="M82.5586 118.486C80.785 117.19 79.6105 115.076 79.5482 112.878" stroke="#0B1B34" stroke-width="0.9999" stroke-linecap="round" stroke-linejoin="round"/>
<path d="M92.4261 116.95C92.3727 117.362 92.2214 117.736 92.002 118.065" stroke="#0B1B34" stroke-width="0.9999" stroke-linecap="round" stroke-linejoin="round"/>
<path d="M127.2 131.379C127.2 131.379 128.618 145.262 125.489 147.033C122.36 148.803 120.044 145.129 120.044 145.129C120.044 145.129 119.519 151.14 115.69 152.342C111.858 153.543 108.34 149.892 108.34 149.892C108.34 149.892 106.576 154.578 103.171 154.578C99.766 154.578 96.634 150.844 96.634 150.844C96.634 150.844 93.8016 154.812 88.7537 154.462C83.7058 154.112 82.4869 148.694 82.4809 148.667C82.6025 149.201 81.437 150.254 81.1077 150.512C79.7642 151.582 77.4953 151.989 75.9116 151.253C75.1523 150.9 74.5651 150.251 74.1409 149.53C72.4029 146.579 72.0678 142.634 72.0026 139.274" stroke="#0B1B34" stroke-width="0.9999" stroke-linecap="round" stroke-linejoin="round"/>
<path d="M72.7589 146.701C71.7298 147.074 70.5227 147.297 69.1554 147.202C65.9285 146.976 63.6804 144.387 62.8767 141.404C62.2627 143.147 60.3735 144.186 58.5287 144.328C57.7843 144.387 57.0132 144.322 56.3369 144.008C52.686 142.308 52.4695 135.436 52.4012 132.014" stroke="#0B1B34" stroke-width="0.9999" stroke-linecap="round" stroke-linejoin="round"/>
<path d="M145.497 94.7686C145.497 94.7686 150.669 108.788 143.726 116.68C136.783 124.572 124.807 121.307 124.807 121.307" stroke="#0B1B34" stroke-width="0.9999" stroke-linecap="round" stroke-linejoin="round"/>
<path d="M138.874 98.3093C138.874 98.3093 142.777 107.563 137.741 111.644C132.705 115.728 125.083 113.821 125.083 113.821" stroke="#0B1B34" stroke-width="0.9999" stroke-linecap="round" stroke-linejoin="round"/>
<path d="M136.742 112.507C136.742 112.507 141.641 113.596 142.095 117.588" stroke="#0B1B34" stroke-width="0.9999" stroke-linecap="round" stroke-linejoin="round"/>
<path d="M140.099 108.515C140.099 108.515 144.091 107.335 146.541 109.784" stroke="#0B1B34" stroke-width="0.9999" stroke-linecap="round" stroke-linejoin="round"/>
<path d="M140.28 102.527C140.28 102.527 143.729 99.8963 146.814 101.258" stroke="#0B1B34" stroke-width="0.9999" stroke-linecap="round" stroke-linejoin="round"/>
<path d="M132.569 114.503C132.569 114.503 133.838 118.314 133.476 121.672" stroke="#0B1B34" stroke-width="0.9999" stroke-linecap="round" stroke-linejoin="round"/>
<path d="M111.149 50.5743C112.603 51.4789 113.807 52.8521 114.305 54.4922C114.688 55.7497 114.643 57.0933 114.596 58.4071C114.56 59.377 114.524 60.3498 114.489 61.3196C114.438 62.678 114.373 64.0986 113.694 65.279C113.015 66.4595 111.514 67.284 110.268 66.7442C109.109 66.2429 108.652 64.843 108.53 63.5855C108.281 60.9993 108.827 58.1046 107.27 56.0255C106.514 55.0171 105.372 54.3825 104.467 53.5075C103.563 52.6326 102.883 51.2713 103.414 50.1294C104.663 47.4542 109.456 49.5184 111.152 50.5743H111.149Z" stroke="#0B1B34" stroke-width="0.9999" stroke-linecap="round" stroke-linejoin="round"/>
<path d="M83.5044 63.2889C84.6077 63.3512 85.6577 64.0363 86.1559 65.0269C86.8796 66.4654 86.4407 68.2864 87.1999 69.7071C87.8257 70.8726 89.1129 71.5014 90.3437 71.9967C91.5716 72.489 92.8884 72.9666 93.7248 73.9898C94.5641 75.016 94.6353 76.7955 93.5083 77.4865C93.1257 77.7208 92.669 77.7979 92.2211 77.8365C90.3852 77.9996 88.5345 77.6289 86.7847 77.0446C85.9157 76.7539 85.0556 76.4069 84.2963 75.8909C82.671 74.7846 81.63 72.9725 81.108 71.0773C80.4259 68.6067 79.2959 63.0546 83.5044 63.2889V63.2889Z" stroke="#0B1B34" stroke-width="0.9999" stroke-linecap="round" stroke-linejoin="round"/>
<path d="M142.457 89.7321C143.559 89.7321 144.453 88.6764 144.453 87.3742C144.453 86.072 143.559 85.0164 142.457 85.0164C141.354 85.0164 140.461 86.072 140.461 87.3742C140.461 88.6764 141.354 89.7321 142.457 89.7321Z" stroke="#0B1B34" stroke-width="0.9999" stroke-linecap="round" stroke-linejoin="round"/>
<path d="M133.565 92.09C134.668 92.09 135.562 91.0343 135.562 89.7321C135.562 88.4299 134.668 87.3743 133.565 87.3743C132.463 87.3743 131.569 88.4299 131.569 89.7321C131.569 91.0343 132.463 92.09 133.565 92.09Z" stroke="#0B1B34" stroke-width="0.9999" stroke-linecap="round" stroke-linejoin="round"/>
<path d="M142.457 49.2663C143.559 49.2663 144.453 48.2106 144.453 46.9084C144.453 45.6062 143.559 44.5505 142.457 44.5505C141.354 44.5505 140.461 45.6062 140.461 46.9084C140.461 48.2106 141.354 49.2663 142.457 49.2663Z" stroke="#0B1B34" stroke-width="0.9999" stroke-linecap="round" stroke-linejoin="round"/>
<path d="M133.565 51.6239C134.668 51.6239 135.562 50.5683 135.562 49.2661C135.562 47.9639 134.668 46.9082 133.565 46.9082C132.463 46.9082 131.569 47.9639 131.569 49.2661C131.569 50.5683 132.463 51.6239 133.565 51.6239Z" stroke="#0B1B34" stroke-width="0.9999" stroke-linecap="round" stroke-linejoin="round"/>
</svg>
