<?xml version="1.0" encoding="UTF-8"?>
<svg id="Layer_1" xmlns="http://www.w3.org/2000/svg" version="1.1" viewBox="0 0 164 148">
  <!-- Generator: Adobe Illustrator 30.0.0, SVG Export Plug-In . SVG Version: 2.1.1 Build 123)  -->
  <path d="M77.37,52.18s-.55-.66-.84-1.59c-.29-.93-.61-3.5-.61-3.5,0,0-.49-1.06-1.58-1.35-1.09-.29-1.82.44-2.12.67-.3.23-2.76,3.06-2.76,3.06,0,0-1.1.33-1.93.26-.84-.07-3.32-.35-3.32-.35,0,0-1.41.32-1.72.93-.32.61-.72,1.51-.17,2.36.55.85,2.02,3.18,2.02,3.18,0,0,.51.99-.14,1.98-.65.99-1.31,3.14-1.31,3.14,0,0-.61,1.7.18,2.22.79.52,2.02.85,2.72.57.7-.28,3.32-.82,3.32-.82,0,0,1.43.46,1.64.83.21.37,2.63,2.34,2.63,2.34,0,0,1.79.56,2.27.22.48-.34.99-.82,1.16-1.71.16-.89.39-3.78.39-3.78,0,0,.2-1.03.93-1.46.73-.42,3.82-2.08,3.82-2.08,0,0,.76-1.11.38-1.99-.38-.88-.91-1.25-1.45-1.55-.54-.3-3.51-1.59-3.51-1.59h0Z" fill="#f9b5fe"/>
  <path d="M75.87,47.35l.7,3.52c.14.69.6,1.26,1.25,1.54l3.3,1.42c1.62.7,1.74,2.95.2,3.81l-3.13,1.76c-.61.34-1.01.96-1.08,1.66l-.33,3.58c-.16,1.75-2.26,2.56-3.56,1.37l-2.64-2.44c-.51-.48-1.23-.67-1.91-.51l-3.51.79c-1.72.39-3.14-1.36-2.4-2.96l1.5-3.26c.29-.64.25-1.37-.1-1.98l-1.84-3.09c-.9-1.52.33-3.41,2.08-3.2l3.57.42c.7.08,1.39-.18,1.85-.71l2.37-2.7c1.16-1.32,3.34-.74,3.68.99h0Z" fill="none" stroke="#002140" stroke-linecap="round" stroke-linejoin="round"/>
  <path d="M68,83.69s-.55-.21-1.05-.66c-.5-.46-1.57-1.88-1.57-1.88,0,0-.66-.46-1.41-.26-.75.2-.94.89-1.03,1.13s-.59,2.78-.59,2.78c0,0-.54.57-1.06.82-.52.25-2.1.94-2.1.94,0,0-.73.68-.71,1.15.02.47.09,1.15.71,1.47.62.32,2.3,1.2,2.3,1.2,0,0,.65.42.6,1.23-.05.81.3,2.32.3,2.32,0,0,.22,1.22.87,1.26.65.04,1.5-.19,1.82-.59.32-.41,1.7-1.63,1.7-1.63,0,0,1.01-.22,1.26-.07.25.15,2.38.49,2.38.49,0,0,1.26-.28,1.43-.65.17-.37.31-.83.1-1.42-.21-.58-1.07-2.39-1.07-2.39,0,0-.24-.68.06-1.19.29-.51,1.56-2.56,1.56-2.56,0,0,.07-.93-.46-1.32-.53-.39-.97-.43-1.4-.43-.43,0-2.64.26-2.64.26h0Z" fill="#50eef6"/>
  <path d="M65.45,81.32l1.63,1.86c.32.36.79.55,1.27.49l2.46-.29c1.21-.14,2.05,1.16,1.43,2.2l-1.26,2.13c-.25.41-.27.92-.07,1.36l1.04,2.25c.51,1.1-.47,2.31-1.65,2.04l-2.41-.54c-.47-.11-.96.03-1.32.35l-1.82,1.68c-.89.82-2.34.27-2.45-.94l-.23-2.46c-.04-.48-.32-.91-.74-1.14l-2.16-1.21c-1.06-.59-.98-2.14.14-2.62l2.27-.98c.44-.19.76-.59.86-1.06l.48-2.43c.24-1.19,1.74-1.59,2.54-.68h0Z" fill="none" stroke="#002140" stroke-linecap="round" stroke-linejoin="round"/>
  <path d="M52.12,8.2s-.79-.56-1.39-1.5-1.7-3.66-1.7-3.66c0,0-.85-1.02-2.13-1.02s-1.87,1.02-2.13,1.36c-.26.34-2.13,4.17-2.13,4.17,0,0-1.11.68-2.04.85-.94.17-3.74.6-3.74.6,0,0-1.45.77-1.62,1.53-.17.76-.34,1.87.51,2.64.85.77,3.15,2.89,3.15,2.89,0,0,.85.94.43,2.21-.43,1.28-.51,3.83-.51,3.83,0,0-.17,2.04.85,2.38,1.02.34,2.47.34,3.15-.17s3.4-1.87,3.4-1.87c0,0,1.7.09,2.04.43s3.57,1.79,3.57,1.79c0,0,2.13.09,2.55-.43.43-.51.85-1.19.77-2.21-.08-1.02-.68-4.25-.68-4.25,0,0-.09-1.19.6-1.87.68-.68,3.57-3.4,3.57-3.4,0,0,.51-1.45-.17-2.3-.68-.85-1.36-1.11-2.04-1.28s-4.31-.71-4.31-.71h0Z" fill="#fed607"/>
  <path d="M49.06,3.35l1.8,3.66c.35.71,1.03,1.21,1.82,1.32l4.03.59c1.98.29,2.77,2.72,1.34,4.12l-2.92,2.85c-.57.55-.83,1.35-.69,2.14l.69,4.02c.34,1.97-1.73,3.47-3.5,2.54l-3.61-1.9c-.7-.37-1.54-.37-2.25,0l-3.61,1.9c-1.77.93-3.84-.57-3.5-2.54l.69-4.02c.13-.78-.13-1.58-.69-2.14l-2.92-2.85c-1.43-1.4-.64-3.83,1.34-4.12l4.03-.59c.79-.11,1.47-.61,1.82-1.32l1.8-3.66c.89-1.79,3.44-1.79,4.33,0h0Z" fill="none" stroke="#002140" stroke-linecap="round" stroke-linejoin="round"/>
  <path d="M65.17,140.49s-4.57-32.59-37.01-71.37l-4.57-.59v3.98s16.37,15.78,26.4,35.1c10.03,19.32,15.19,32.88,15.19,32.88h0Z" fill="#fed607"/>
  <path d="M2.39,67.79l10.29-.44-1.66,9.73,6.75-6.97,6.08,8.3-.26-9.88,9.22,1.25-6.63-6.64,8.74-5.97-10.73.44,1.55-9.95-6.3,7.41-6.42-8.63.55,10.06-9.84-1.44,7.19,6.86-8.52,5.86Z" fill="#ffed8f"/>
  <path d="M23.55,71.89c8.94,9.99,28.67,30.61,42.21,72.44-4.35-31.09-25.74-62.74-37.94-75.16" fill="none" stroke="#002140" stroke-linecap="round" stroke-linejoin="round"/>
  <path d="M35.04,57.1l-9.15,5.98,8.15,7.29-10.7-2.24.61,10.91-5.98-9.15-7.29,8.15,2.24-10.7-10.91.61,9.15-5.98-8.15-7.29,10.7,2.24-.61-10.91,5.98,9.15,7.29-8.14-2.24,10.7,10.91-.61Z" fill="none" stroke="#002140" stroke-linecap="round" stroke-linejoin="round"/>
  <path d="M78.95,143.02s1.62-21.53,17.99-47.19c16.37-25.66,24.92-31.41,27.58-30.82,2.65.59-1.77,5.31-1.77,5.31,0,0-30.67,30.67-43.8,72.7Z" fill="#50eef6"/>
  <path d="M127.62,58.81s3.91-3.77,7.23-3.69c3.31.08,5.01,1.33,5.01,1.33,0,0-6.49-3.69-1.62-12.53,0,0-3.69,6.34-11.65,2.95,0,0,5.31,5.31,1.03,11.94h0Z" fill="#f25730"/>
  <path d="M97.34,47.91s2.63-3.24,5.16-3.49c2.53-.25,3.94.54,3.94.54,0,0-5.29-2.2-2.41-9.4,0,0-2.22,5.18-8.6,3.34,0,0,4.54,3.55,1.91,9h0Z" fill="#f25730"/>
  <path d="M152.08,82.08s2.63-3.24,5.16-3.49,3.94.54,3.94.54c0,0-5.29-2.2-2.41-9.4,0,0-2.22,5.18-8.6,3.34,0,0,4.54,3.55,1.91,9h0Z" fill="#f25730"/>
  <path d="M147.82,51.72s2.63-3.24,5.16-3.49,3.94.54,3.94.54c0,0-5.29-2.2-2.41-9.4,0,0-2.22,5.18-8.6,3.34,0,0,4.54,3.55,1.91,9h0Z" fill="#f25730"/>
  <path d="M126.87,37.29s2.63-3.24,5.16-3.49,3.94.54,3.94.54c0,0-5.29-2.2-2.41-9.4,0,0-2.22,5.18-8.6,3.34,0,0,4.54,3.55,1.91,9h0Z" fill="#f25730"/>
  <path d="M131.6,71.5l4.28.74,1.92,3.69,2.36-3.83,3.39-.74-2.36-3.39.44-3.69-3.84,1.48-3.69-1.33.3,4.28-2.8,2.8Z" fill="#50eef6"/>
  <path d="M109.48,56.75l4.28.74,1.92,3.69,2.36-3.83,3.39-.74-2.36-3.39.44-3.69-3.83,1.48-3.69-1.33.29,4.28-2.8,2.8Z" fill="#50eef6"/>
  <path d="M140.59,32.71l4.28.74,1.92,3.69,2.36-3.83,3.39-.74-2.36-3.39.44-3.69-3.83,1.48-3.69-1.33.3,4.28-2.8,2.8Z" fill="#50eef6"/>
  <path d="M116.38,41.09c1.59,0,2.88-1.29,2.88-2.88s-1.29-2.88-2.88-2.88-2.88,1.29-2.88,2.88,1.29,2.88,2.88,2.88Z" fill="#fed607"/>
  <path d="M150.74,63.5c1.59,0,2.88-1.29,2.88-2.88s-1.29-2.88-2.88-2.88-2.88,1.29-2.88,2.88,1.29,2.88,2.88,2.88Z" fill="#fed607"/>
  <path d="M107.06,67.67c1.59,0,2.88-1.29,2.88-2.88s-1.29-2.88-2.88-2.88-2.88,1.29-2.88,2.88,1.29,2.88,2.88,2.88Z" fill="#fed607"/>
  <path d="M130.56,83.06c1.59,0,2.88-1.29,2.88-2.88s-1.29-2.88-2.88-2.88-2.88,1.29-2.88,2.88,1.29,2.88,2.88,2.88Z" fill="#fed607"/>
  <path d="M78.33,145.23c5.75-41.14,41.36-83.28,46.01-80.52,6.84,3.53-26.21,19.35-46.01,80.52h0Z" fill="none" stroke="#002140" stroke-linecap="round" stroke-linejoin="round"/>
  <path d="M141.94,57.85c-8.14-4.48-9.26-4.28-15.36,2.73,4.48-8.14,4.28-9.26-2.73-15.36,8.14,4.48,9.26,4.28,15.36-2.73-4.48,8.14-4.28,9.26,2.73,15.36h0Z" fill="none" stroke="#002140" stroke-linecap="round" stroke-linejoin="round"/>
  <path d="M158.6,49.8c-6.41-2.84-7.24-2.62-11.38,3.05,2.84-6.41,2.62-7.24-3.05-11.38,6.41,2.84,7.24,2.62,11.38-3.05-2.84,6.41-2.62,7.24,3.05,11.38Z" fill="none" stroke="#002140" stroke-linecap="round" stroke-linejoin="round"/>
  <path d="M137.65,35.38c-6.41-2.84-7.24-2.62-11.38,3.05,2.84-6.41,2.62-7.24-3.05-11.38,6.41,2.84,7.24,2.62,11.38-3.05-2.84,6.41-2.62,7.24,3.05,11.38Z" fill="none" stroke="#002140" stroke-linecap="round" stroke-linejoin="round"/>
  <path d="M108.12,45.99c-6.41-2.84-7.24-2.62-11.38,3.05,2.84-6.41,2.62-7.24-3.05-11.38,6.41,2.84,7.24,2.62,11.38-3.05-2.84,6.41-2.62,7.24,3.05,11.38Z" fill="none" stroke="#002140" stroke-linecap="round" stroke-linejoin="round"/>
  <path d="M162.87,80.17c-6.41-2.84-7.24-2.62-11.38,3.05,2.84-6.41,2.62-7.24-3.05-11.38,6.41,2.84,7.24,2.62,11.38-3.05-2.84,6.41-2.62,7.24,3.05,11.38Z" fill="none" stroke="#002140" stroke-linecap="round" stroke-linejoin="round"/>
  <path d="M119.35,50.04l-.56,3.3c-.03.16.03.33.15.44l2.4,2.33c.3.29.14.8-.28.86l-3.31.49c-.16.02-.3.13-.38.28l-1.47,3c-.18.37-.72.38-.9,0l-1.49-3c-.07-.15-.22-.25-.38-.27l-3.31-.47c-.41-.06-.58-.57-.28-.86l2.39-2.34c.12-.12.17-.28.14-.45l-.57-3.29c-.07-.41.36-.72.73-.53l2.96,1.55c.15.08.32.08.47,0l2.96-1.56c.37-.19.8.12.73.53h0Z" fill="none" stroke="#002140" stroke-linecap="round" stroke-linejoin="round"/>
  <path d="M141.72,64.84l-.57,3.3c-.03.16.03.33.14.45l2.39,2.34c.3.29.13.8-.28.86l-3.31.47c-.16.02-.31.13-.38.27l-1.49,3c-.19.37-.72.37-.9,0l-1.47-3c-.07-.15-.21-.25-.38-.28l-3.31-.49c-.41-.06-.58-.57-.28-.86l2.4-2.33c.12-.12.17-.28.15-.44l-.56-3.3c-.07-.41.36-.72.73-.53l2.96,1.56c.15.08.32.08.47,0l2.96-1.55c.37-.19.8.12.73.53h0Z" fill="none" stroke="#002140" stroke-linecap="round" stroke-linejoin="round"/>
  <path d="M150.67,25.66l-.46,3.31c-.02.16.04.33.16.44l2.47,2.26c.31.28.16.79-.25.87l-3.29.59c-.16.03-.3.14-.37.29l-1.38,3.05c-.17.38-.7.4-.9.03l-1.58-2.95c-.08-.15-.22-.24-.39-.26l-3.32-.37c-.41-.05-.59-.55-.31-.85l2.32-2.41c.11-.12.16-.29.13-.45l-.67-3.28c-.08-.41.34-.74.71-.55l3.01,1.46c.15.07.32.07.47-.02l2.91-1.65c.36-.21.8.09.75.51h0Z" fill="none" stroke="#002140" stroke-linecap="round" stroke-linejoin="round"/>
  <path d="M150.69,63.83c1.71,0,3.1-1.39,3.1-3.1s-1.39-3.1-3.1-3.1-3.1,1.39-3.1,3.1,1.39,3.1,3.1,3.1Z" fill="none" stroke="#002140" stroke-linecap="round" stroke-linejoin="round"/>
  <path d="M130.49,83.37c1.71,0,3.1-1.39,3.1-3.1s-1.39-3.1-3.1-3.1-3.1,1.39-3.1,3.1,1.39,3.1,3.1,3.1Z" fill="none" stroke="#002140" stroke-linecap="round" stroke-linejoin="round"/>
  <path d="M116.41,41.38c1.71,0,3.1-1.39,3.1-3.1s-1.39-3.1-3.1-3.1-3.1,1.39-3.1,3.1,1.39,3.1,3.1,3.1Z" fill="none" stroke="#002140" stroke-linecap="round" stroke-linejoin="round"/>
  <path d="M107.11,68.02c1.71,0,3.1-1.39,3.1-3.1s-1.39-3.1-3.1-3.1-3.1,1.39-3.1,3.1,1.39,3.1,3.1,3.1Z" fill="none" stroke="#002140" stroke-linecap="round" stroke-linejoin="round"/>
</svg>