<?xml version="1.0" encoding="UTF-8"?>
<svg id="Layer_1" xmlns="http://www.w3.org/2000/svg" version="1.1" viewBox="0 0 184 112">
  <!-- Generator: Adobe Illustrator 30.0.0, SVG Export Plug-In . SVG Version: 2.1.1 Build 123)  -->
  <path d="M55.6,17.12s-6.05.29-8.11,4.28c-2.06,3.98-22.27,59.58-22.27,59.58l-7.82,21.23s-3.24,6.19-5.01,6.93h127.56l13.86-4.88,4.68-12.68,16.17-46.67s1.42-1.69.38-2.87c-1.03-1.18-7.23-14.16-7.23-14.16l-28.61-.29,2.06-5.75s.15-4.57-4.72-4.87c-4.87-.29-80.96.15-80.96.15h0Z" fill="#fffaf0"/>
  <path d="M18.95,99.11l-2.06,5.31-4.14,4.9,131.85.26s10.62-2.21,10.76-10.03l-136.41-.44h0Z" fill="#fee45e"/>
  <path d="M77.5,13.73l-47.34-.19s-4.83-.1-4.65,4.98l.18,5.08,20.83-.65s4.65-4.87,5.53-5.2c.88-.33,25.44-.7,25.44-.7v-3.31h0Z" fill="#fee45e"/>
  <path d="M20.87,93.28l-5.64-2.1s-1-3.32-3.1,1.11c-2.1,4.42.33,8.85.33,8.85l4.76,1.88,3.65-9.73h0Z" fill="#fee45e"/>
  <path d="M39.56,42.85s-13.05-4.65-24,2.43c-10.95,7.08-14.82,20.35-11.28,30.52,3.54,10.18,11.39,17.25,16.59,17.47l18.69-50.43h0Z" fill="#fff2b2"/>
  <path d="M37.13,49.37l1.88-6.64s-13.49-4.76-24,2.65c-10.51,7.41-13.94,19.35-10.4,31.52,3.54,12.17,15.71,16.15,16.26,16.37l1.88-5.75s-14.16-3.87-13.38-21.35c0-8.63,10.18-15.82,11.94-16.48,1.77-.66,8.07-1.66,8.07-1.66,0,0,6.86-.22,7.74,1.33h0Z" fill="#e4bc07"/>
  <path d="M32.93,60.87l-5.31,14.6s-4.09-3.43-3.76-6.75c.33-3.32,2.88-5.64,3.32-6.08.44-.44,4.53-1.88,5.75-1.77h0Z" fill="#e4bc07"/>
  <path d="M3.25,50.96s-.15.88.29,1.33c.44.44,3.32,2.06,3.32,2.06,0,0,4.57-6.12,6.12-7.08l-3.76-2.06s-.96-.52-1.77.07-3.47,3.61-4.2,5.68h0Z" fill="#ccf6ff"/>
  <path d="M20.65,42.7l9.22-1.62-1.77-4.57s-5.09-.88-8.77,1.92l1.33,4.28h0Z" fill="#fed607"/>
  <path d="M10.4,86.94l-.88,3.32-1.77,1.25-.88,2.06.22,1.7-.29,1.55,1.18,2.95.81.29s-1.25,2.43.52,3.32c1.77.88,2.95,1.47,2.95,1.47,0,0,.74,2.29,1.92,2.43,1.18.15,2.43-1.92,2.43-1.92l.37-2.95-2.21-1.11-1.7-3.24-.44-3.32.74-2.58,1.47-1.25-4.42-3.98h0Z" fill="#ccf6ff"/>
  <path d="M24.96,35.88s-2.1-6.41-7.19-8.85c0,0,3.32-3.65,13.27-4.31,9.95-.66,16.04.33,16.04.33l-7.52,19.8s-6.23-2.1-9.7-1.77l-1.77-4.57-3.13-.63h0Z" fill="#ccf6ff"/>
  <path d="M141.76,20.25l-.55,2.65-14.27,45.79,4.65-2.88,2.1,4.65,3.98-3.21,1.88,3.98,3.65-2.54,1.36,4.86,4.83-3.75,1.26,5.54,4.71-4.21,1.68,5.87,4.15-4.15,1.56,5.75,17.6-50.38s3.32-7.63-5.53-7.74c-8.85-.11-33.07-.22-33.07-.22h0Z" fill="#fee45e"/>
  <path d="M77.5,17.04h43.91s1.33-9.4,3.32-13.82c0,0-5.2,1-8.41,3.54l-3.21-4.53-6.41,4.98-5.42-4.42-5.42,3.98-4.42-3.87-5.2,4.42-4.87-3.98s-2.88,3.1-3.87,13.71h0Z" fill="#fff2b2"/>
  <path d="M8.26,102.75s-1.83,4.71,1.33,5.64c3.16.93,3.98.44,3.98.44l.59-1.54-2.69-2.11-3.21-2.43h0Z" fill="#e4bc07"/>
  <path d="M17.27,102.65s-2.03,6.64-5.63,6.64c-1.1,0-1.93-.37-2.53-1.06,0,0-1.87-1.26-.52-6.75" fill="none" stroke="#002140" stroke-linecap="round" stroke-linejoin="round"/>
  <path d="M139.41,27.67l1.99-5.64s1.33-4.98-4.98-4.98H55.46s-6.53-.29-8.96,6.64c-2.99,8.29-29.2,78.97-29.2,78.97" fill="none" stroke="#002140" stroke-linecap="round" stroke-linejoin="round"/>
  <path d="M11.67,109.29h132.05s8.29-.33,11.28-7.96c2.99-7.63,23.38-67.57,25.14-72,1.76-4.43,1.1-8.96-5.98-8.96-6.19-.22-32.52,0-32.52,0" fill="none" stroke="#002140" stroke-linecap="round" stroke-linejoin="round"/>
  <path d="M25.7,23.59c-.06-.67-.13-1.3-.21-1.9,0,0-1.55-8.18,4.87-8.18,5.75,0,24.33.22,24.33.22h22.81" fill="none" stroke="#002140" stroke-linecap="round" stroke-linejoin="round"/>
  <path d="M20.59,93.47c-10.27-3.82-17.59-13.71-17.59-25.32,0-14.91,12.09-27,27-27,3.22,0,6.3.56,9.16,1.59" fill="none" stroke="#002140" stroke-linecap="round" stroke-linejoin="round"/>
  <path d="M22.81,87.85c-7.85-2.92-13.44-10.49-13.44-19.35,0-11.4,9.24-20.65,20.65-20.65,2.41,0,4.73.41,6.88,1.18" fill="none" stroke="#002140" stroke-linecap="round" stroke-linejoin="round"/>
  <path d="M15.1,90.7c-.98,1.5-2.81,2.09-4.17,1.3-1.42-.82-1.8-2.81-.86-4.45.11-.19.23-.36.36-.52" fill="none" stroke="#002140" stroke-linecap="round" stroke-linejoin="round"/>
  <path d="M13.11,92.24c.16.81.02,1.71-.46,2.53-.95,1.64-2.86,2.3-4.28,1.48s-1.8-2.81-.86-4.45c.47-.82,1.19-1.39,1.96-1.66" fill="none" stroke="#002140" stroke-linecap="round" stroke-linejoin="round"/>
  <path d="M12.49,95.46c.14.29.25.6.32.94.38,1.85-.62,3.62-2.23,3.95-1.61.33-3.22-.91-3.59-2.77-.17-.84-.06-1.66.26-2.34" fill="none" stroke="#002140" stroke-linecap="round" stroke-linejoin="round"/>
  <path d="M13,98.36c.71.49,1.27,1.31,1.47,2.3.38,1.85-.62,3.62-2.23,3.95-1.61.33-3.22-.91-3.59-2.77-.11-.55-.1-1.1.01-1.6" fill="none" stroke="#002140" stroke-linecap="round" stroke-linejoin="round"/>
  <path d="M14.63,107.53c-.57-.13-1.13-.41-1.62-.83-.61-.52-1.01-1.18-1.2-1.87" fill="none" stroke="#002140" stroke-linecap="round" stroke-linejoin="round"/>
  <path d="M14.77,101.29c.73.06,1.47.36,2.1.9.13.11.25.23.36.35" fill="none" stroke="#002140" stroke-linecap="round" stroke-linejoin="round"/>
  <path d="M27.37,75.29c-2.06-1.39-3.41-3.75-3.41-6.42,0-4.28,3.47-7.74,7.74-7.74.29,0,.59.02.87.05" fill="none" stroke="#002140" stroke-linecap="round" stroke-linejoin="round"/>
  <path d="M30.21,51.63v5.68" fill="none" stroke="#002140" stroke-linecap="round" stroke-linejoin="round"/>
  <path d="M12.59,69.1h6.41" fill="none" stroke="#002140" stroke-linecap="round" stroke-linejoin="round"/>
  <path d="M18.63,56.94l3.98,4.2" fill="none" stroke="#002140" stroke-linecap="round" stroke-linejoin="round"/>
  <path d="M22.24,76.4l-4.57,3.76" fill="none" stroke="#002140" stroke-linecap="round" stroke-linejoin="round"/>
  <path d="M25.19,64.6l-10.54-4.35-1.03,2.87,10.18,4.13" fill="#002140"/>
  <path d="M12.44,46.98l-3.2-2.05c-.33-.21-.74-.24-1.1-.08-1.08.51-3.35,2.03-4.91,6.19-.19.5,0,1.07.46,1.36l2.92,1.87" fill="none" stroke="#002140" stroke-linecap="round" stroke-linejoin="round"/>
  <path d="M4.03,49.78l3.83,2.36" fill="none" stroke="#002140" stroke-linecap="round" stroke-linejoin="round"/>
  <path d="M5.51,47.87l3.83,2.36" fill="none" stroke="#002140" stroke-linecap="round" stroke-linejoin="round"/>
  <path d="M7.06,46.24l3.83,2.36" fill="none" stroke="#002140" stroke-linecap="round" stroke-linejoin="round"/>
  <path d="M29.65,40.87l-1.02-3.66c-.11-.38-.39-.68-.77-.79-1.14-.34-3.85-.72-7.79,1.35-.48.25-.71.8-.56,1.32l.93,3.34" fill="none" stroke="#002140" stroke-linecap="round" stroke-linejoin="round"/>
  <path d="M21.52,37.37l1.29,4.31" fill="none" stroke="#002140" stroke-linecap="round" stroke-linejoin="round"/>
  <path d="M23.9,36.92l1.29,4.31" fill="none" stroke="#002140" stroke-linecap="round" stroke-linejoin="round"/>
  <path d="M26.13,36.74l1.29,4.31" fill="none" stroke="#002140" stroke-linecap="round" stroke-linejoin="round"/>
  <path d="M18.63,99.33h136.92" fill="none" stroke="#002140" stroke-linecap="round" stroke-linejoin="round"/>
  <path d="M46.5,22.91s-17.14-2.99-28.98,4.09c0,0,6.53,2.65,7.19,9.07" fill="none" stroke="#002140" stroke-linecap="round" stroke-linejoin="round"/>
  <path d="M28.75,28.49s8.85-2.65,16.15-1" fill="none" stroke="#002140" stroke-linecap="round" stroke-linejoin="round"/>
  <path d="M29.53,32.92s7.18-2.15,13.94-1.37" fill="none" stroke="#002140" stroke-linecap="round" stroke-linejoin="round"/>
  <path d="M30.69,37.4s5.39-1.62,11.23-1.54" fill="none" stroke="#002140" stroke-linecap="round" stroke-linejoin="round"/>
  <path d="M139.41,27.67l-12.61,40.76" fill="none" stroke="#002140" stroke-linecap="round" stroke-linejoin="round"/>
  <path d="M77.5,17.04s.29-8.55,3.83-14.01l5.01,4.28,5.09-4.72,4.5,4.42,5.31-4.57,5.1,4.76s6.52-5.49,6.75-5.19c.23.3,3.05,4.56,3.05,4.56,0,0,4.57-3.54,9-3.54" fill="none" stroke="#002140" stroke-linecap="round" stroke-linejoin="round"/>
  <path d="M121.29,17.04s.29-8.55,3.83-14.01" fill="none" stroke="#002140" stroke-linecap="round" stroke-linejoin="round"/>
  <path d="M84.65,10.37h21.46" fill="none" stroke="#002140" stroke-linecap="round" stroke-linejoin="round"/>
  <path d="M83.91,14.06h29.86" fill="none" stroke="#002140" stroke-linecap="round" stroke-linejoin="round"/>
  <path d="M136.11,59.07l25,5.97" fill="none" stroke="#002140" stroke-linecap="round" stroke-linejoin="round"/>
  <path d="M138.77,51.4l24.99,5.97" fill="none" stroke="#002140" stroke-linecap="round" stroke-linejoin="round"/>
  <path d="M141.31,43.69l23.93,5.64" fill="none" stroke="#002140" stroke-linecap="round" stroke-linejoin="round"/>
  <path d="M143.41,37.38l23.93,5.64" fill="none" stroke="#002140" stroke-linecap="round" stroke-linejoin="round"/>
  <path d="M145.07,31.63l23.93,5.64" fill="none" stroke="#002140" stroke-linecap="round" stroke-linejoin="round"/>
  <path d="M162.87,79.04l-1.68-6.2-4.05,4.51-1.61-6.1-4.81,4.4-1.25-6.08-4.89,4.13-1.01-5.43-3.98,3.69-1.84-5.09-4.28,4.2-1.84-5.6-4.79,2.95" fill="none" stroke="#002140" stroke-linecap="round" stroke-linejoin="round"/>
</svg>