<svg xmlns="http://www.w3.org/2000/svg" width="161" height="101" fill="none" viewBox="0 0 161 101"><path fill="#ffd7b0" d="M45.645 15.781s-5.375.262-7.21 3.819c-1.833 3.553-19.792 53.193-19.792 53.193l-6.948 18.958s-2.883 5.53-4.456 6.188h113.383l12.32-4.357 4.16-11.319 14.377-41.67s1.259-1.508.341-2.562c-.919-1.053-6.424-12.64-6.424-12.64l-25.428-.261 1.834-5.134s.13-4.08-4.196-4.346c-4.326-.262-71.964.131-71.964.131z"/><path fill="#ffc68c" d="m13.07 88.986-1.834 4.741-3.68 4.375 117.197.233s9.437-1.977 9.568-8.953z"/><path fill="#ffa75a" d="m65.109 12.757-42.077-.17s-4.29-.089-4.13 4.444l.16 4.533 18.518-.584s4.13-4.345 4.915-4.64c.786-.297 22.61-.624 22.61-.624v-2.959z"/><path fill="#ffed8f" d="M16.593 34.525s-1.357-4.916-4.57-9.89c0 0 2.95-3.259 11.8-3.85 8.847-.593 14.254.297 14.254.297l-6.684 17.675-8.966 23.384-3.191-21.077-2.64-6.536z"/><path fill="#fffaf0" d="m122.229 18.579-.492 2.369-12.682 40.88 4.131-2.568 1.736 4.51 3.671-3.227 1.638 4.41 3.278-3.127s1.493 4.163 1.294 4.265c-.198.1 4.211-3.277 4.211-3.277l1.315 5.247 3.991-4.063 1.411 5.366s4.015-3.85 3.863-3.738 1.257 5.316 1.257 5.316l15.686-45.256s2.948-6.813-4.916-6.914c-7.864-.098-29.395-.196-29.395-.196z"/><path fill="#fff2b2" d="M65.108 15.716h39.029s1.179-8.393 2.948-12.343c0 0-4.62.89-7.473 3.161l-2.85-4.047L91.06 6.93l-4.818-3.95-4.818 3.554-3.931-3.455-4.62 3.95-4.326-3.554s-2.557 2.765-3.44 12.244z"/><path fill="#002140" d="M11.53 92.344s-5.014.592-5.112-5.828c0 0-4.72 6.122-2.359 10.566 3.538 3.455 7.473-2.863 7.473-4.741z"/><path fill="#ffa75a" d="M8.287 82.469s-3.146 5.726-.785 8c2.359 2.27 4.03 1.875 4.03 1.875l10.912-29.328s-1.67-13.627-2.26-14.91c0 0-3.05 21.726-11.897 34.366z"/><path stroke="#002140" stroke-linecap="round" stroke-linejoin="round" d="M11.57 92.15s-1.801 5.926-5.004 5.926c-3.49-.104-4.095-3.474-2.711-6.974 2.07-6.065 15.324-24.803 16.367-44.071"/><path stroke="#002140" stroke-linecap="round" stroke-linejoin="round" d="M7.597 83.656s-4.08 8.205 4.006 8.497c0 0 23.3-63.101 25.953-70.506 2.163-6.187 7.964-5.925 7.964-5.925h71.965c5.603 0 4.423 4.443 4.423 4.443l-1.769 5.036"/><path stroke="#002140" stroke-linecap="round" stroke-linejoin="round" d="M6.599 98.076h117.374s7.372-.298 10.027-7.11 20.779-60.33 22.347-64.286c1.567-3.956.978-8.003-5.316-8.003-5.505-.197-28.903 0-28.903 0M19.064 21.564a40 40 0 0 0-.186-1.697s-1.378-7.306 4.326-7.306c5.11 0 21.63.196 21.63.196h20.275M12.785 89.189h121.707"/><path stroke="#002140" stroke-linecap="round" stroke-linejoin="round" d="M37.559 20.954s-15.239-2.667-25.757 3.654c0 0 8.723 12.488 10.666 38.105"/><path stroke="#002140" stroke-linecap="round" stroke-linejoin="round" d="M21.781 25.939s7.864-2.37 14.353-.89m-13.665 5.149s6.382-1.923 12.39-1.223m-11.36 5.479s4.596-1.384 9.66-1.375m-8.74 5.589s3.182-.958 7.167-1.277m-6.119 5.39s1.852-.56 4.5-.964m-3.582 4.976s.797-.241 2.092-.52M120.139 25.2 108.93 61.598m32.007 9.657-1.497-5.512-3.603 4.032-1.434-5.449-4.278 3.926-1.114-5.432-4.347 3.69-.895-4.842-3.541 3.292-1.638-4.545-3.805 3.75-1.635-5-4.261 2.637M65.108 15.716s.261-7.637 3.408-12.51l4.456 3.82 4.522-4.215 3.997 3.95 4.72-4.081 4.53 4.25s5.799-4.899 6-4.634 2.708 4.074 2.708 4.074 4.062-3.16 7.997-3.16m-3.404 12.506s.26-7.637 3.407-12.51M71.467 9.757h19.072m-19.726 3.295h26.542m19.86 40.188 22.217 5.333M119.967 44.55l22.217 5.332M122.522 38.23l20.841 4.938M123.9 33.293l20.841 4.938m-19.366-9.875 20.841 4.937"/></svg>