<?xml version="1.0" encoding="utf-8"?>
<!-- Generator: Adobe Illustrator 25.4.1, SVG Export Plug-In . SVG Version: 6.00 Build 0)  -->
<svg version="1.1" id="Layer_1" xmlns="http://www.w3.org/2000/svg" xmlns:xlink="http://www.w3.org/1999/xlink" x="0px" y="0px"
	 viewBox="0 0 80 80" style="enable-background:new 0 0 80 80;" xml:space="preserve">
<style type="text/css">
	.st0{fill:#FF7101;}
	.st1{fill-rule:evenodd;clip-rule:evenodd;fill:#FF7101;}
	.st2{fill:#0B1B34;}
</style>
<path class="st0" d="M53.4,45H26.6c-0.5,0-0.8-0.5-0.6-0.9l2.8-6.6c0.5-1.2,1.7-2,2.9-2h16.6c1.3,0,2.4,0.8,2.9,2l2.8,6.6
	C54.2,44.5,53.9,45,53.4,45z"/>
<path class="st0" d="M24.8,54.4c0-1.3,1.1-2.4,2.4-2.4s2.4,1.1,2.4,2.4c0,1.3-1.1,2.4-2.4,2.4S24.8,55.7,24.8,54.4z"/>
<path class="st0" d="M50.4,54.4c0-1.3,1.1-2.4,2.4-2.4s2.4,1.1,2.4,2.4c0,1.3-1.1,2.4-2.4,2.4S50.4,55.7,50.4,54.4z"/>
<path class="st1" d="M39.4,32.4c-0.5-0.3-1.2-0.9-2.1-1.6H30c-3,0-5.6,1.9-6.4,4.7l-4.4,12.2v20.8c0,0.9,0.8,1.7,1.7,1.7h4.7
	c0.9,0,1.7-0.8,1.7-1.7v-4.8c0-0.3,0.3-0.6,0.6-0.6h24.2c0.3,0,0.6,0.3,0.6,0.6v4.8c0,0.9,0.8,1.7,1.7,1.7h4.7
	c0.9,0,1.7-0.8,1.7-1.7V47.6l-4.4-12.2c-0.9-2.8-3.5-4.7-6.4-4.7h-7.1c-0.9,0.7-1.6,1.3-2.1,1.6C40.1,32.5,39.8,32.5,39.4,32.4z
	 M54.7,46.4H25.3c-0.9,0-1.5-0.9-1.2-1.7L27,37c0.7-1.9,2.6-3.2,4.6-3.2h16.8c2,0,3.9,1.3,4.6,3.2l2.9,7.7
	C56.3,45.5,55.6,46.4,54.7,46.4z M56.8,54.4c0,2.2-1.8,4-4,4s-4-1.8-4-4c0-2.2,1.8-4,4-4S56.8,52.2,56.8,54.4z M27.2,58.4
	c2.2,0,4-1.8,4-4c0-2.2-1.8-4-4-4s-4,1.8-4,4C23.2,56.6,25,58.4,27.2,58.4z"/>
<path class="st0" d="M57.6,44.8H64c0.7,0,1.3,0.6,1.3,1.3v0.6c0,1.8-1.4,3.2-3.2,3.2h-4.5V44.8z"/>
<path class="st0" d="M22.1,44.8h-6.4c-0.7,0-1.3,0.6-1.3,1.3v0.6c0,1.8,1.4,3.2,3.2,3.2h4.5V44.8z"/>
<path class="st2" d="M40,10.1c-4.8,0-8.8,4-8.8,9c0,5.2,6.6,10.3,8.4,11.7c0.3,0.2,0.6,0.2,0.9,0c1.8-1.3,8.4-6.4,8.4-11.7
	C48.8,14.1,44.8,10.1,40,10.1z M40,19.1c-1.6,0-2.9-1.3-2.9-3s1.3-3,2.9-3c1.6,0,2.9,1.3,2.9,3S41.6,19.1,40,19.1z"/>
</svg>
