<?xml version="1.0" encoding="utf-8"?>
<!-- Generator: Adobe Illustrator 27.2.0, SVG Export Plug-In . SVG Version: 6.00 Build 0)  -->
<svg version="1.1" id="Layer_1" xmlns="http://www.w3.org/2000/svg" xmlns:xlink="http://www.w3.org/1999/xlink" x="0px" y="0px"
	 viewBox="0 0 390 314" style="enable-background:new 0 0 390 314;" xml:space="preserve">
<style type="text/css">
	.st0{fill:#E96DF2;stroke:#002140;stroke-miterlimit:10;}
	.st1{fill:#FED607;stroke:#002140;stroke-miterlimit:10;}
	.st2{fill:#F6D54E;stroke:#002140;stroke-miterlimit:10;}
	.st3{fill:#FFFAF0;stroke:#002140;stroke-miterlimit:10;}
	.st4{fill:#D18000;stroke:#002140;stroke-miterlimit:10;}
	.st5{fill:#E4BC07;stroke:#002140;stroke-miterlimit:10;}
	.st6{fill:none;stroke:#002140;stroke-miterlimit:10;}
	.st7{fill:#00B268;}
	.st8{fill:#5BE3AA;stroke:#002140;stroke-miterlimit:10;}
	.st9{fill:#00B268;stroke:#002140;stroke-miterlimit:10;}
	.st10{fill:#E96DF2;}
	.st11{fill:none;stroke:#002140;stroke-linecap:round;stroke-miterlimit:10;}
	.st12{fill:#003C73;}
	.st13{fill:#0185FF;}
	.st14{fill:#FED607;}
	.st15{fill:#FFA75A;}
	.st16{fill:#002140;}
	.st17{fill:none;stroke:#002140;stroke-linecap:round;stroke-linejoin:round;}
	.st18{fill:#5AB0FF;stroke:#002140;stroke-linecap:round;stroke-miterlimit:10;}
	.st19{fill:#FED607;stroke:#002140;stroke-linecap:round;stroke-miterlimit:10;}
	.st20{fill:#4BA6A6;stroke:#002140;stroke-linecap:round;stroke-miterlimit:10;}
	.st21{fill:#50EEF6;}
	.st22{fill:#FF7101;}
	.st23{fill:#DFFDFE;}
	.st24{fill:#4BA6A6;}
	.st25{fill:#FEE45E;}
	.st26{fill:#085239;}
	.st27{fill:#FFFAF0;}
	.st28{fill:#03D47C;}
	.st29{fill:#804633;stroke:#002140;stroke-linecap:round;stroke-miterlimit:10;}
	.st30{fill:#804633;}
	.st31{fill:#B0D9FF;stroke:#002140;stroke-linecap:round;stroke-miterlimit:10;}
	.st32{fill:#B0D9FF;}
	.st33{fill:#FFFAF0;stroke:#002140;stroke-linecap:round;stroke-miterlimit:10;}
	.st34{fill:#780505;}
	.st35{fill:#DCBB43;}
	.st36{fill:#E4BC07;}
	.st37{fill:#F25730;}
	.st38{fill:#8F3013;}
</style>
<g>
	<path class="st0" d="M158.7,67.4c0,0-2.4,6.7-2.6,10.6c-0.2,3.9-1,11.2,1.8,13.7c2.8,2.6,6.7,2.2,8.6-0.8c2-2.9-0.4-10.2,2.2-18.8
		C170.7,65.4,158.7,67.4,158.7,67.4z"/>
	<path class="st1" d="M79.9,53.8c0,0,0.2,1.1,0.1,2.7h-0.1l-9.8,0c0-1.4,0-2.6,0-3.5c-0.1-2.8-0.1-3.4-0.1-3.4h9.8L79.9,53.8z"/>
	<path class="st1" d="M79.9,56.6L79.9,56.6c0,2-0.5,4.6-2.1,6.8l-0.1-0.1h-6.6c-0.5-0.8-0.9-1.9-1-3.1c0-0.3-0.1-0.6-0.1-1
		c0-1,0-1.8,0-2.6H79.9z"/>
	<path class="st1" d="M77.8,63.3L77.8,63.3c-0.8,1.3-2.1,2.3-3.8,2.9l-0.1-0.4c-1-0.6-2-1.4-2.7-2.5H77.8z"/>
	<path class="st1" d="M71.1,63.3c0.7,1.2,1.7,2,2.7,2.5l0.1,0.4c-1.2,0.4-2.6,0.7-4.2,0.6c-6.4-0.1-9-3.4-10.1-6.7h10.5
		C70.3,61.4,70.6,62.4,71.1,63.3L71.1,63.3z"/>
	<path class="st2" d="M69.9,46.1v3.3H59.1l0-3.3h10.7H69.9z"/>
	<path class="st1" d="M70.1,59.1c0,0.3,0,0.7,0.1,1h-0.1l-10.5,0c-1.1-3.3-0.5-6.5-0.5-6.5v-0.5h10.9c0,0.9,0,2,0,3.5
		C70.1,57.3,70.1,58.2,70.1,59.1z"/>
	<path class="st1" d="M69.7,53l-10.9-0.1v-2.6l0-3.8h10.8v0.4C69.6,46.9,69.7,50.2,69.7,53L69.7,53z"/>
	<path class="st1" d="M69.9,39v7h-0.2H59.1L59,39H69.9z"/>
	<path class="st1" d="M69.9,32v7H59l0-7h0.1h10.6H69.9z"/>
	<path class="st1" d="M69.9,25v7h-0.2H59.1H59l0-7H69.9z"/>
	<path class="st1" d="M69.9,19.3V25h-11l0-1.4l-0.2-4.3H69.9z"/>
	<path class="st1" d="M39,24.5c1.2,0,2.3,1,2.3,2.3c0,1.3-1,2.3-2.3,2.3c-1.2,0-2.3-1-2.3-2.3C36.7,25.5,37.7,24.5,39,24.5z"/>
	<path class="st3" d="M48.1,19.2v14.2h-0.2l-12.3,0.2h-0.2c-0.6,0-1.2,0-1.7,0.1c-1.9-0.2-4.5-1.3-4.6-6.5c0-0.2,0-0.3,0-0.5
		c0-4.6-0.2-7-0.2-7.5H48.1L48.1,19.2z M41.2,26.8c0-1.3-1-2.3-2.3-2.3s-2.3,1-2.3,2.3c0,1.3,1,2.3,2.3,2.3S41.2,28,41.2,26.8z"/>
	<path class="st3" d="M29.1,39.3v-0.8c0,0-0.2-4,4.6-4.8c1.1,0.1,1.9-0.1,1.9-0.1h0.1c6.4,0,12.3-0.2,12.3-0.2h0.2v15.9H29.1V39.3z"
		/>
	<path class="st4" d="M29.1,39.3h-3.7v10h3.7V39.3z"/>
	<path class="st1" d="M25.3,39.3H12v10h13.4V39.3z"/>
	<path class="st4" d="M12,39.3H7.7v10H12V39.3z"/>
	<path class="st1" d="M7.7,39.3H0.5v10h7.2V39.3z"/>
	<path class="st1" d="M7.7,19.2v8H0.5v-8H7.7z"/>
	<path class="st4" d="M12,19.2v8H7.7v-8H12z"/>
	<path class="st1" d="M25.3,19.2v8H12v-8H25.3z"/>
	<path class="st4" d="M29.1,26.8c0,0.2,0,0.3,0,0.5h-3.7v-8h3.5C28.9,19.8,29.1,22.2,29.1,26.8L29.1,26.8z"/>
	<path class="st5" d="M7.7,27.2H0.5v12.1h7.2V27.2z"/>
	<path class="st4" d="M12,27.2H7.7v12.1H12V27.2z"/>
	<path class="st5" d="M25.3,27.2H12v12.1h13.4V27.2z"/>
	<path class="st4" d="M29.1,38.5v0.8h-3.7V27.2h3.7c0.1,5.2,2.7,6.4,4.6,6.5C28.9,34.5,29.1,38.5,29.1,38.5L29.1,38.5z"/>
	<path class="st0" d="M59.1,46.1l0,3.3h-11V19.2h21.8v0.1H58.7l0.2,4.3l0,1.4l0,7l0,7L59.1,46.1L59.1,46.1z"/>
	<path class="st0" d="M148.9,30.7c0,0,4.5,34-12.6,44.2c-17,10.2-22.3-25.6-22.3-25.6H69.9V19.2h22.7c8.1,0,14.9-2.4,21.7-2.4
		s11.5,3.1,11.5,3.1s4.6-2.3,9-2.3c6.3,0,7.5,4.7,7.5,4.7L148.9,30.7L148.9,30.7z"/>
	<path class="st6" d="M69.9,49.3h44.2c0,0,5.2,35.9,22.3,25.6c17-10.2,12.6-44.2,12.6-44.2l-6.6-8.3c0,0-1.2-4.7-7.5-4.7
		c-4.5,0-9,2.3-9,2.3s-4.7-3.1-11.5-3.1c-6.8,0-13.6,2.4-21.7,2.4H0.5v30.1h28.6"/>
	<path class="st6" d="M48.1,49.3h11H59"/>
	<path class="st6" d="M59.1,49.3l0,3.8v0.5c0,0-0.5,3.2,0.5,6.5c1.1,3.3,3.7,6.6,10.1,6.7c1.7,0,3.1-0.2,4.2-0.6
		c1.7-0.6,3-1.7,3.9-2.9c1.6-2.1,2-4.8,2.1-6.8c0.1-1.6-0.1-2.7-0.1-2.7l-0.2-4.1h-9.8V19.3H58.7l0.2,4.3l0,1.4l0,7l0,7l0.1,7
		L59.1,49.3"/>
	<path class="st6" d="M73.9,65.8c-1-0.6-2-1.4-2.7-2.5c-0.5-0.8-0.9-1.9-1-3.1c0-0.3-0.1-0.6-0.1-1c0-1,0-1.8,0-2.6
		c0-1.4,0-2.6,0-3.5c-0.1-2.8-0.1-3.4-0.1-3.4"/>
	<path class="st6" d="M58.5,25h0.4h11"/>
	<path class="st6" d="M59.1,32h10.6"/>
	<path class="st6" d="M58.9,39H59h10.9"/>
	<path class="st6" d="M58.7,46.1h0.3h10.7"/>
	<path class="st6" d="M59.1,53.1h10.9h0.1"/>
	<path class="st6" d="M59.5,60.1h0.1h10.5"/>
	<path class="st6" d="M69.9,56.6h0.2h9.8"/>
	<path class="st6" d="M77.8,63.3h-6.6h0"/>
	<path class="st6" d="M35.5,33.6c0,0-0.8,0.2-1.9,0.1c-1.9-0.2-4.5-1.3-4.6-6.5c0-0.2,0-0.3,0-0.5c0-4.6-0.2-7-0.2-7.5
		c0-0.1,0-0.1,0-0.1h19.2v30.2H29.1V38.5c0,0-0.2-4,4.6-4.8c0.5-0.1,1.1-0.1,1.7-0.1H35.5"/>
	<path class="st6" d="M35.6,33.6c6.4,0,12.3-0.2,12.3-0.2L35.6,33.6z"/>
	<path class="st6" d="M35.6,33.6L35.6,33.6"/>
	<path class="st6" d="M41.2,26.8c0,1.2-1,2.3-2.3,2.3c-1.2,0-2.3-1-2.3-2.3c0-1.2,1-2.3,2.3-2.3C40.2,24.5,41.2,25.5,41.2,26.8
		L41.2,26.8z"/>
	<path class="st6" d="M25.3,18.9v0.3v8v12.1v10"/>
	<path class="st6" d="M12,18.7v0.5v8v12.1v10"/>
	<path class="st6" d="M7.7,18.9v0.3v8v12.1v10v0.4"/>
	<path class="st6" d="M0.2,39.3h0.3h7.2H12h13.4h3.7h0.2"/>
	<path class="st6" d="M0.4,27.2L0.4,27.2h7.3H12h13.4h3.7"/>
	<path class="st7" d="M139.1,18.5c2-1.1,5.3-2.7,7.6-3.4c17.9-5.4,34.6,0.2,49.5-3.6C211,7.7,218,2,218,2s5.6,16.1,6.3,27
		c1.2,18.6-4.2,32.8-4.2,32.8s-7.1,2.9-14.4,3.1c-7.3,0.1-22.3-4.2-32.8-0.9c-7.2,2.2-13.4,7.5-19.4,11.7"/>
	<path class="st6" d="M139.1,18.5c2-1.1,5.3-2.7,7.6-3.4c17.9-5.4,34.6,0.2,49.5-3.6C211,7.7,218,2,218,2s5.6,16.1,6.3,27
		c1.2,18.6-4.2,32.8-4.2,32.8s-7.1,2.9-14.4,3.1c-7.3,0.1-22.3-4.2-32.8-0.9c-7.2,2.2-13.4,7.5-19.4,11.7"/>
	<path class="st6" d="M141.4,24.3c3.2-1.7,7-3.1,11.4-3.8c15.3-2.3,21.1,1.4,33.1-0.2c12-1.6,16.8-4.1,16.8-4.1s0.2,6.9,4.7,9.3
		c4,2.2,9.1,0,9.1,0s0.5,4.1,0.2,9.1c-0.3,5-1,10-1,10s-6.2-1-10.2,3.6c-4.2,4.7-2,10.5-2,10.5s-3.8,0.7-10.6-1
		c-7.2-1.7-15.4-2.8-23.5,0.2c-5.8,2.1-12.1,7.2-18,11.1"/>
	<path class="st8" d="M214.6,20.2c2.7-0.7,4.4-3.4,3.7-5.9c-0.7-2.5-3.4-4-6.2-3.2c-2.7,0.7-4.4,3.4-3.7,5.9
		C209.1,19.5,211.8,20.9,214.6,20.2z"/>
	<path class="st8" d="M214.4,59.8c2.7-0.7,4.4-3.4,3.7-5.9c-0.7-2.5-3.4-4-6.2-3.2c-2.7,0.7-4.4,3.4-3.7,5.9
		C209,59.1,211.7,60.5,214.4,59.8z"/>
	<path class="st8" d="M175.1,51.5c10.8-1.8,18.6-8.8,17.5-15.6c-1.1-6.9-10.8-11-21.6-9.2c-10.8,1.8-18.6,8.8-17.5,15.6
		S164.3,53.3,175.1,51.5z"/>
	<path class="st9" d="M131.4,40.9c0,0-5.1,13.7-8.8,17.9c-3.6,4.2-7.8,7.2-7.8,7.2s7.1,11.6,18,10.8C143.6,76,131.4,40.9,131.4,40.9
		L131.4,40.9z"/>
	<path class="st7" d="M141.6,22.7c4.5-2.9,9.8-4.5,13.9-5.1c18.5-2.6,34.3,4.7,49.5,2.9c15.2-1.8,22.9-6.6,22.9-6.6
		s3.4,16.7,2.7,27.6c-1.3,18.6-8.4,32-8.4,32s-7.5,2-14.7,1.2c-7.2-0.8-21.5-7-32.4-5.2c-7.5,1.3-14.3,5.7-20.7,9"/>
	<path class="st6" d="M141.6,22.7c4.5-2.9,9.8-4.5,13.9-5.1c18.5-2.6,34.3,4.7,49.5,2.9c15.2-1.8,22.9-6.6,22.9-6.6
		s3.4,16.7,2.7,27.6c-1.3,18.6-8.4,32-8.4,32s-7.5,2-14.7,1.2c-7.2-0.8-21.5-7-32.4-5.2c-7.5,1.3-14.3,5.7-20.7,9"/>
	<path class="st6" d="M143.6,28.9c8.1-4.2,12.9-5,17.4-5.1c15.4-0.3,20.8,4.2,32.9,4.1c12.1,0,17.2-1.9,17.2-1.9s-0.7,6.8,3.5,9.8
		c3.7,2.7,9.1,1.2,9.1,1.2s0,4.2-1,9c-0.9,4.9-2.3,9.8-2.3,9.8s-6-1.8-10.6,2.2c-4.8,4.1-3.4,10.2-3.4,10.2s-3.8,0.2-10.4-2.4
		c-6.9-2.6-14.9-4.7-23.4-2.8c-6,1.4-12.9,5.6-19.3,8.6"/>
	<path class="st8" d="M222.2,31.5c2.8-0.4,4.8-2.8,4.4-5.3c-0.3-2.6-2.9-4.4-5.7-4c-2.8,0.4-4.8,2.8-4.4,5.3
		C216.9,30.1,219.4,31.9,222.2,31.5z"/>
	<path class="st8" d="M216.9,70.7c2.8-0.4,4.8-2.8,4.4-5.3c-0.3-2.6-2.9-4.4-5.7-4c-2.8,0.4-4.8,2.8-4.4,5.3S214.1,71.1,216.9,70.7z
		"/>
	<path class="st8" d="M179,57.4c10.9-0.3,19.6-6.3,19.4-13.2c-0.2-6.9-9.3-12.3-20.2-12c-10.9,0.3-19.6,6.3-19.4,13.2
		C159,52.4,168.1,57.8,179,57.4z"/>
	<path class="st9" d="M127.3,45.2c0,0-1.8,14.5-4.3,19.4c-2.6,4.9-5.9,8.8-5.9,8.8s9.6,9.6,20,6.3C147.5,76.4,127.3,45.2,127.3,45.2
		z"/>
	<path class="st9" d="M234.7,27c0,0,1.2,17-1,27.7c-3.7,18.3-12.6,30.6-12.6,30.6s-7.7,1-14.7-0.8c-7.1-1.8-20.4-9.8-31.4-9.4
		c-11,0.4-21.5,7.5-30.6,8.6c-6.3,0.8-15.7,1-23.2-3.3c0,0,5.7-6.7,5.5-19.8c-0.2-13.2-3.3-28.1-3.3-28.1s9-2.4,15.6-4.5
		c6.7-2.2,14.5-6.6,23.4-6.9c18.7-0.6,33.4,9.2,48.7,9.4C226.5,30.7,234.7,27,234.7,27z"/>
	<path class="st6" d="M227.3,49.3c0,0-0.6,4.1-2.2,8.8c-1.6,4.7-3.5,9.4-3.5,9.4s-5.7-2.6-10.8,0.8c-5.3,3.5-4.7,9.6-4.7,9.6
		s-3.8-0.3-10-3.7c-6.5-3.5-14.1-6.7-22.8-5.9c-8.6,0.8-19.6,6.9-27.9,7.9c-8.2,1-13.6,0.4-13.6,0.4s1.8-10.8,1.4-17.5
		c-0.4-6.7-1-12-1-12s4.7,0.6,7.3-4.1c2.6-4.7,1.4-8,1.4-8s10.8-8.8,26.1-7.1c15.3,1.8,20,6.9,32,8.4c12,1.6,17.3,0.4,17.3,0.4
		s-1.6,6.7,2.2,10.2C221.8,50.1,227.3,49.3,227.3,49.3L227.3,49.3z"/>
	<path class="st8" d="M226.7,43.6c2.8,0,5.1-2.1,5.1-4.7s-2.3-4.7-5.1-4.7c-2.8,0-5.1,2.1-5.1,4.7S223.8,43.6,226.7,43.6z"/>
	<path class="st8" d="M216.3,81.8c2.8,0,5.1-2.1,5.1-4.7s-2.3-4.7-5.1-4.7c-2.8,0-5.1,2.1-5.1,4.7S213.4,81.8,216.3,81.8z"/>
	<path class="st8" d="M201.4,53.1c0.7-6.9-7.6-13.4-18.4-14.5c-10.9-1.1-20.3,3.6-21,10.5s7.6,13.4,18.4,14.5
		C191.3,64.7,200.7,60,201.4,53.1z"/>
	<path class="st10" d="M120.2,39.1c0,0,4.1,2.2,7.9,2c7.3-0.4,8.2-5.7,12-1.2c3.2,3.9,8.1,12.5,16.1,8.4c7.3-3.7,4.5-10.8,1-11.6
		c-1.6-0.4-9.4-3.9-10.6-10.2c-1.2-6.5-4.7-8-8.6-8.8c-3.9-0.8-11.9,2.2-11.9,2.2"/>
	<path class="st11" d="M120.2,39.1c0,0,4.1,2.2,7.9,2c7.3-0.4,8.2-5.7,12-1.2c3.2,3.9,8.1,12.5,16.1,8.4c7.3-3.7,4.5-10.8,1-11.6
		c-1.6-0.4-9.4-3.9-10.6-10.2c-1.2-6.5-4.7-8-8.6-8.8c-3.9-0.8-11.9,2.2-11.9,2.2"/>
	<path class="st0" d="M140.3,84.3c0,0-2.6,0.9-5.4,0.7c-3.4-0.3-8.2-3.7-7.1-11.1c1.2-7.5,4-11,7.7-9.8c4.3,1.3,1.6,7,1,11.3
		C135.9,80.9,140.3,84.3,140.3,84.3L140.3,84.3z"/>
	<path class="st0" d="M148.9,84.3c0,0-2.6,0.9-5.4,0.7c-3.4-0.3-8.2-3.7-7.1-11.1s4-11,7.7-9.8c4.3,1.3,1.6,7,1,11.3
		C144.4,80.9,148.9,84.3,148.9,84.3L148.9,84.3z"/>
	<path class="st0" d="M157.2,81c0,0-0.9,4.3-5.5,4c-3.4-0.2-8.2-3.7-7.1-11.1s4-11,7.7-9.8c4.3,1.3,1.6,7,1,11.3
		C152.6,80.9,157.2,81,157.2,81z"/>
	<path class="st12" d="M359.2,126.4v0.8H354v-1V99.7v-0.6h5.1v0.2V126.4z"/>
	<path class="st12" d="M373.9,127c4.8-1.8,8.4-2,8.4-4.7c0-3.5-16.1-3.9-16.1-3.9s15.9-0.4,15.9-4.3s-16.1-4.7-16.1-4.7
		s15.7-0.4,15.7-5.5c0-1.9-3.3-3.2-7.1-4.5v-0.2H390v28.1h-16.1V127L373.9,127z"/>
	<path class="st13" d="M382.3,122.3c0,2.7-3.6,2.9-8.4,4.7v0.2h-14.7V99.1h15.5v0.2c3.8,1.3,7.1,2.6,7.1,4.5
		c0,5.1-15.7,5.5-15.7,5.5s16.1,0.8,16.1,4.7c0,3.9-15.9,4.3-15.9,4.3S382.3,118.8,382.3,122.3L382.3,122.3z"/>
	<path class="st14" d="M325,127v0.2h-10.2v-10h0.2C315.6,117.2,325,127,325,127z"/>
	<path class="st14" d="M335.6,126.6v0.6H325V127l10.6-9.4V126.6z"/>
	<path class="st14" d="M335.6,105.2v12.4L325,127c0,0-9.4-9.8-10-9.8h-0.2v-11.8h0.2l9.8,10.2h0.2l10.4-10.4L335.6,105.2
		L335.6,105.2z M326.1,120.3c0-0.6-0.5-1.1-1.1-1.1c-0.6,0-1.1,0.5-1.1,1.1c0,0.6,0.5,1.1,1.1,1.1S326.1,120.9,326.1,120.3z"/>
	<path class="st14" d="M335.6,99.5v5.7h-0.2L325,115.6h-0.2l-9.8-10.2h-0.2v-6.3h5.5v0.2l4.5,3.7l0.4,0.2l4.7-4.1h5.7L335.6,99.5
		L335.6,99.5z M326.1,108.1c0-0.6-0.5-1.1-1.1-1.1c-0.6,0-1.1,0.5-1.1,1.1c0,0.6,0.5,1.1,1.1,1.1S326.1,108.7,326.1,108.1z"/>
	<path class="st14" d="M329.9,99.1l-4.7,4.1l-0.4-0.2l-4.5-3.7v-0.2H329.9z"/>
	<path class="st15" d="M354,126.2v1h-18.5v-0.6v-9v-12.4v-5.7v-0.4H354v0.6V126.2z"/>
	<path class="st15" d="M314.8,126.8v0.4h-6.4c0,0-13.3,12.8-32.2,11.3c-18.1-1.4-20.2-4.4-20.2-4.4s0.9-32,2.9-35.7
		c1.8-3.1,3.5-7.7,9-10.4c5.2-2.6,8.4-2.6,8.4-2.6s-1.4-0.8-1.8-2.7c-0.4-2-1.2-3.9-1-7.7c0.2-3.7,1.3-8.2,5.7-12.4
		c6.7-6.3,12.2-3.5,13.6-1.8c1.3,1.7,2.6,4.2-1.2,8.4c-4.9,5.5-3.9,10.5-3.5,12.2c0.8,3.1,7.7,2.5,14.1,7.7c4.9,3.9,6.5,10,6.5,10
		h5.9L314.8,126.8L314.8,126.8z"/>
	<path class="st16" d="M325,107c0.6,0,1.1,0.5,1.1,1.1c0,0.6-0.5,1.1-1.1,1.1c-0.6,0-1.1-0.5-1.1-1.1C324,107.5,324.4,107,325,107z"
		/>
	<path class="st16" d="M325,121.4c-0.6,0-1.1-0.5-1.1-1.1c0-0.6,0.5-1.1,1.1-1.1s1.1,0.5,1.1,1.1C326.1,120.9,325.6,121.4,325,121.4
		z"/>
	<path class="st11" d="M373.9,127.2H390V99.1h-81.1c0,0-1.6-6.1-6.5-10c-6.4-5.1-13.4-4.5-14.1-7.7c-0.4-1.6-1.4-6.7,3.5-12.2
		c3.8-4.3,2.5-6.7,1.2-8.4c-1.4-1.8-6.9-4.5-13.6,1.8c-4.4,4.1-5.5,8.6-5.7,12.4c-0.2,3.7,0.6,5.7,1,7.7c0.4,2,1.8,2.7,1.8,2.7
		s-3.3,0-8.4,2.6c-5.5,2.7-7.3,7.3-9,10.4c-2.1,3.7-2.7,37-2.7,37s3.4,2.9,21.5,2.9c24.1,0,30.4-11.1,30.4-11.1L373.9,127.2
		L373.9,127.2z"/>
	<path class="st11" d="M314.8,99.7v5.7v11.8v9.6"/>
	<path class="st11" d="M335.6,99.5v5.7v12.4v9"/>
	<path class="st11" d="M354,99.7v26.5"/>
	<path class="st11" d="M359.2,99.3v27.1"/>
	<path class="st11" d="M324.8,115.6l-9.8-10.2"/>
	<path class="st11" d="M325,115.6l10.4-10.4"/>
	<path class="st11" d="M315,117.2c0.6,0,10,9.8,10,9.8"/>
	<path class="st11" d="M335.6,117.6L325,127"/>
	<path class="st11" d="M320.3,99.3l4.5,3.7"/>
	<path class="st11" d="M325.2,103.3l4.7-4.1"/>
	<path class="st11" d="M326.1,108.1c0,0.6-0.5,1.1-1.1,1.1c-0.6,0-1.1-0.5-1.1-1.1c0-0.6,0.5-1.1,1.1-1.1S326.1,107.5,326.1,108.1z"
		/>
	<path class="st11" d="M326.1,120.3c0,0.6-0.5,1.1-1.1,1.1c-0.6,0-1.1-0.5-1.1-1.1c0-0.6,0.5-1.1,1.1-1.1S326.1,119.7,326.1,120.3z"
		/>
	<path class="st17" d="M374.7,99.3c3.8,1.3,7.1,2.6,7.1,4.5c0,5.1-15.7,5.5-15.7,5.5s16.1,0.8,16.1,4.7c0,3.9-15.9,4.3-15.9,4.3
		s16.1,0.4,16.1,3.9c0,2.7-3.6,2.9-8.4,4.7"/>
	<path class="st18" d="M288.4,60.1c0,0-3.3,2.4-2.9,4.9c0.4,2.6,2.2,4.5,4.9,4.1c2.8-0.4,4.1-2.2,5.7-3.5s2.2-2.9,2-4.9
		c-0.2-2-2.4-3.9-4.3-3.9S288.4,60.1,288.4,60.1L288.4,60.1z"/>
	<path class="st15" d="M257.9,122.6c-4.3,2-8.9,4.2-15.7,4.3c-13.6,0.2-20.4-7.1-24.4-2.4c-5.6,6.7,4.9,14.5,19.2,14.9
		c14.3,0.4,22.5-2.6,22.5-2.6"/>
	<path class="st11" d="M257.9,122.6c-4.3,2-8.9,4.2-15.7,4.3c-13.6,0.2-20.4-7.1-24.4-2.4c-5.6,6.7,4.9,14.5,19.2,14.9
		c14.3,0.4,22.5-2.6,22.5-2.6"/>
	<path class="st18" d="M216,125.6c0,0,6.7,2.4,6.7,4.9c0,2.6-1,5.3-3.3,4.1c-2.4-1.2-6.9-3.9-6.1-6.9
		C214.1,124.8,216,125.6,216,125.6z"/>
	<path class="st15" d="M259.4,112.5c-4.2,1.8-11.2,4.2-17.2,4.2c-13.6,0.2-20.4-7.1-24.4-2.4c-5.6,6.7,4.9,14.5,19.2,14.9
		c14.3,0.4,23.6-3.1,23.6-3.1"/>
	<path class="st11" d="M259.4,112.5c-4.2,1.8-11.2,4.2-17.2,4.2c-13.6,0.2-20.4-7.1-24.4-2.4c-5.6,6.7,4.9,14.5,19.2,14.9
		c14.3,0.4,23.6-3.1,23.6-3.1"/>
	<path class="st18" d="M216,115.4c0,0,6.7,2.4,6.7,4.9s-1,5.3-3.3,4.1c-2.4-1.2-6.9-3.9-6.1-6.9C214.1,114.6,216,115.4,216,115.4z"
		/>
	<path class="st19" d="M254.7,114.5c0,0,1.8,1.8,2.6,6.5c0.7,4.3-0.4,6.5-0.4,6.5s-3.7,1-7.1,1.4c-0.2,0,0.6-2-0.2-7.1
		c-0.7-4.5-2.2-5.7-2.2-5.7L254.7,114.5L254.7,114.5z"/>
	<path class="st15" d="M260.2,101.3c0,0-5,5.1-18,5.3c-13.6,0.2-20.4-7.1-24.4-2.4c-5.6,6.7,4.9,14.5,19.2,14.9s23.6-3.1,23.6-3.1"
		/>
	<path class="st11" d="M260.2,101.3c0,0-5,5.1-18,5.3c-13.6,0.2-20.4-7.1-24.4-2.4c-5.6,6.7,4.9,14.5,19.2,14.9s23.6-3.1,23.6-3.1"
		/>
	<path class="st18" d="M216,105.3c0,0,6.7,2.4,6.7,4.9c0,2.6-1,5.3-3.3,4.1c-2.4-1.2-6.9-3.9-6.1-6.9
		C214.1,104.5,216,105.3,216,105.3z"/>
	<path class="st15" d="M266,89.1c0,0-10.9,7.1-23.9,7.3c-13.6,0.2-20.4-7.1-24.4-2.4c-5.6,6.7,4.9,14.5,19.2,14.9
		c14.3,0.4,23.6-3.1,23.6-3.1"/>
	<path class="st11" d="M266,89.1c0,0-10.9,7.1-23.9,7.3c-13.6,0.2-20.4-7.1-24.4-2.4c-5.6,6.7,4.9,14.5,19.2,14.9
		c14.3,0.4,23.6-3.1,23.6-3.1"/>
	<path class="st18" d="M216,95.1c0,0,6.7,2.4,6.7,4.9c0,2.6-1,5.3-3.3,4.1c-2.4-1.2-6.9-3.9-6.1-6.9C214.1,94.3,216,95.1,216,95.1z"
		/>
	<path class="st20" d="M202.9,204.4c0,0,2.4,6.7,2.6,10.6c0.2,3.9,1,11.2-1.8,13.7c-2.8,2.6-6.7,2.2-8.6-0.8
		c-2-2.9,0.4-10.2-2.2-18.8C190.9,202.4,202.9,204.4,202.9,204.4z"/>
	<path class="st21" d="M389,181.5v4.8h-35h-4.3h-13.4h-12.1v-0.1v-4.7h0.6h11.5h13.4h4.3H389z"/>
	<path class="st22" d="M389,176.6v5h-35h-4.3h-13.4h-11.5h-0.6v-5h0.6h7.7h3.7h13.4h4.3H389z"/>
	<path class="st21" d="M389,176.3v0.3h-35h-4.3h-13.4h-3.7h-7.7h-0.6v-5.2h0.6h11.5h13.4h4.3h35V176.3z"/>
	<path class="st22" d="M389,166.4v5h-35h-4.3h-13.4h-11.5h-0.6v-5h0.6h7.7h3.7h13.4h4.3H389z"/>
	<path class="st21" d="M389,164.2v2.2h-35h-4.3h-13.4h-3.7h-7.7h-0.6v-5.2h0.6h11.5h13.4h4.3h35V164.2z"/>
	<path class="st22" d="M389,156.2v4.9h-64.8v-4.9H389z"/>
	<path class="st23" d="M324.2,186.2L324.2,186.2l-20.2,0.1v-30.1h20.2V186.2L324.2,186.2z M315.9,163.7c0-1.3-1-2.3-2.3-2.3
		s-2.3,1-2.3,2.3c0,1.3,1,2.3,2.3,2.3S315.9,165,315.9,163.7z"/>
	<path class="st14" d="M313.7,161.5c1.2,0,2.3,1,2.3,2.3c0,1.3-1,2.3-2.3,2.3c-1.2,0-2.3-1-2.3-2.3
		C311.4,162.5,312.4,161.5,313.7,161.5z"/>
	<path class="st24" d="M289.4,158.1c0,0-7.7-3.9-15.5,0v-1.9h30.1v30.1h-14.5V158.1L289.4,158.1z"/>
	<path class="st25" d="M293.1,151.3c5.3,0,4.3,4.7,4.3,4.7v0.2h-28.5c-1.4,0-2.8-0.1-4.1-0.2l0-0.2c0,0-0.6-4.5,3.9-4.5H293.1z"/>
	<path class="st14" d="M289.4,185.9v0.5h-15.5v-1c7.9-3.9,15.5,0,15.5,0V185.9L289.4,185.9z"/>
	<path class="st14" d="M289.4,181.4v3.9c0,0-7.7-3.9-15.5,0v-3.9C281.8,177.5,289.4,181.4,289.4,181.4z"/>
	<path class="st14" d="M289.4,177.5v3.9c0,0-7.7-3.9-15.5,0v-3.9C281.8,173.6,289.4,177.5,289.4,177.5z"/>
	<path class="st14" d="M289.4,173.7v3.9c0,0-7.7-3.9-15.5,0v-3.9C281.8,169.7,289.4,173.7,289.4,173.7z"/>
	<path class="st14" d="M289.4,169.8v3.9c0,0-7.7-3.9-15.5,0v-3.9C281.8,165.8,289.4,169.8,289.4,169.8z"/>
	<path class="st14" d="M289.4,165.9v3.9c0,0-7.7-3.9-15.5,0v-3.9C281.8,161.9,289.4,165.9,289.4,165.9z"/>
	<path class="st14" d="M289.4,162v3.9c0,0-7.7-3.9-15.5,0V162C281.8,158,289.4,162,289.4,162z"/>
	<path class="st14" d="M289.4,158.1v3.9c0,0-7.7-3.9-15.5,0v-3.9C281.8,154.2,289.4,158.1,289.4,158.1z"/>
	<path class="st24" d="M273.9,185.3v1h-26.4c0,0-5.2,35.9-22.3,25.6c-17-10.2-12.6-44.2-12.6-44.2l6.5-8.3c0,0,1.2-4.7,7.5-4.7
		c4.5,0,9,2.3,9,2.3s4.7-3.1,11.5-3.1c5.6,0,11.3,1.6,17.6,2.2c1.3,0.1,2.7,0.2,4.1,0.2h5L273.9,185.3L273.9,185.3z"/>
	<path class="st6" d="M291.7,186.3h-44.2c0,0-5.2,35.9-22.3,25.6c-17-10.2-12.6-44.2-12.6-44.2l6.6-8.3c0,0,1.2-4.7,7.5-4.7
		c4.5,0,9,2.3,9,2.3s4.7-3.1,11.5-3.1c5.6,0,11.3,1.6,17.6,2.2c1.3,0.1,2.7,0.2,4.1,0.2h120v30.1L291.7,186.3"/>
	<path class="st6" d="M311.4,163.7c0,1.2,1,2.3,2.3,2.3c1.2,0,2.3-1,2.3-2.3s-1-2.3-2.3-2.3C312.4,161.5,311.4,162.5,311.4,163.7z"
		/>
	<path class="st6" d="M389.2,166.4h-0.3h-35h-4.3h-13.4h-3.7h-7.7"/>
	<path class="st6" d="M389,161.1L389,161.1h-35.1h-4.3h-13.4h-11.5"/>
	<path class="st6" d="M303.9,156.2V186"/>
	<path class="st6" d="M324.2,156v0.2v4.9v5.2v5v5.2v5v4.7"/>
	<path class="st6" d="M289.4,156.6v1.5v3.9v3.9v3.9v3.9v3.9v3.9v3.9v0.5"/>
	<path class="st6" d="M273.9,156.2v1.9v3.9v3.9v3.9v3.9v3.9v3.9v3.9v1v0.1"/>
	<path class="st6" d="M389.2,176.6h-0.3h-35h-4.3h-13.4h-3.7h-7.7"/>
	<path class="st6" d="M389,171.3L389,171.3h-35.1h-4.3h-13.4h-11.5"/>
	<path class="st6" d="M389,181.5L389,181.5h-35.1h-4.3h-13.4h-11.5"/>
	<path class="st6" d="M273.9,165.9c7.9-3.9,15.5,0,15.5,0"/>
	<path class="st6" d="M273.9,162c7.9-3.9,15.5,0,15.5,0"/>
	<path class="st6" d="M273.9,158.1c7.9-3.9,15.5,0,15.5,0"/>
	<path class="st6" d="M273.9,173.7c7.9-3.9,15.5,0,15.5,0"/>
	<path class="st6" d="M273.9,169.8c7.9-3.9,15.5,0,15.5,0"/>
	<path class="st6" d="M273.9,181.4c7.9-3.9,15.5,0,15.5,0"/>
	<path class="st6" d="M273.9,177.5c7.9-3.9,15.5,0,15.5,0"/>
	<path class="st6" d="M273.9,185.3c7.9-3.9,15.5,0,15.5,0"/>
	<path class="st6" d="M264.9,155.8c0,0-0.6-4.5,3.9-4.5h24.4c5.3,0,4.3,4.7,4.3,4.7"/>
	<path class="st26" d="M233.4,169.3l-83.3-19.8c-1.7-0.4-3.4,0.7-3.8,2.4l-11,46.5c-0.4,1.7,0.7,3.4,2.4,3.8l83.3,19.8
		c1.7,0.4,3.4-0.6,3.8-2.4l11-46.5C236.2,171.5,235.1,169.8,233.4,169.3z"/>
	<path class="st17" d="M233,169l-82.6-19.6c-2-0.5-4.1,0.8-4.6,2.8l-10.8,45.3c-0.5,2,0.8,4.1,2.8,4.6l82.6,19.6
		c2,0.5,4.1-0.8,4.6-2.8l10.8-45.3C236.3,171.5,235,169.5,233,169z"/>
	<path class="st27" d="M160.4,175.4l-1.4-0.3c-0.4-0.1-0.8,0.2-0.9,0.5l-0.6,2.6c-0.1,0.4,0.2,0.8,0.5,0.9l1.4,0.3
		c0.4,0.1,0.8-0.2,0.9-0.5l0.6-2.6C161,175.9,160.8,175.5,160.4,175.4z"/>
	<path class="st27" d="M161.4,171.4l-1.4-0.3c-0.4-0.1-0.8,0.2-0.9,0.5l-0.4,1.9c-0.1,0.4,0.2,0.8,0.5,0.9l1.4,0.3
		c0.4,0.1,0.8-0.2,0.9-0.5l0.4-1.9C162,171.9,161.8,171.5,161.4,171.4z"/>
	<path class="st27" d="M163.8,176.9l-1.4-0.3c-0.4-0.1-0.8,0.2-0.9,0.5l-0.4,1.9c-0.1,0.4,0.2,0.8,0.5,0.9l1.4,0.3
		c0.4,0.1,0.8-0.1,0.9-0.5l0.4-1.9C164.5,177.4,164.2,177,163.8,176.9z"/>
	<path class="st27" d="M164.8,172.2l-1.4-0.3c-0.4-0.1-0.8,0.1-0.9,0.5l-0.6,2.7c-0.1,0.4,0.2,0.8,0.5,0.9l1.4,0.3
		c0.4,0.1,0.8-0.2,0.9-0.5l0.6-2.7C165.5,172.7,165.2,172.3,164.8,172.2z"/>
	<path class="st27" d="M156.8,178.1l1.6-6.8c0.1-0.4-0.1-0.7-0.5-0.8l-2.3-0.5c-0.2,0-0.4,0-0.6,0.1l-1,0.8
		c-0.1,0.1-0.2,0.2-0.2,0.4l-1.2,4.9c0,0.1,0,0.3,0,0.4l0.4,1c0.1,0.2,0.2,0.4,0.5,0.4l2.5,0.6C156.4,178.6,156.7,178.4,156.8,178.1
		L156.8,178.1z"/>
	<path class="st28" d="M225.9,173.2l-32.3-7.7c-1.7-0.4-3.4,0.6-3.8,2.3l-1.4,5.9c-0.4,1.7,0.6,3.4,2.3,3.7l32.3,7.7
		c1.7,0.4,3.4-0.6,3.8-2.3l1.4-5.9C228.6,175.3,227.6,173.6,225.9,173.2z"/>
	<path class="st24" d="M241.4,176.1c0,0-4.1,2.2-7.9,2c-7.3-0.4-8.2-5.7-12-1.2c-3.2,3.9-8.1,12.5-16.1,8.4
		c-7.3-3.7-4.5-10.8-1-11.6c1.6-0.4,9.4-3.9,10.6-10.2s4.7-8.1,8.6-8.8c3.9-0.8,11.9,2.2,11.9,2.2"/>
	<path class="st11" d="M241.4,176.1c0,0-4.1,2.2-7.9,2c-7.3-0.4-8.2-5.7-12-1.2c-3.2,3.9-8.1,12.5-16.1,8.4
		c-7.3-3.7-4.5-10.8-1-11.6c1.6-0.4,9.4-3.9,10.6-10.2s4.7-8.1,8.6-8.8c3.9-0.8,11.9,2.2,11.9,2.2"/>
	<path class="st20" d="M221.3,221.2c0,0,2.6,0.9,5.4,0.7c3.4-0.3,8.2-3.7,7.1-11.1c-1.2-7.5-4-11-7.7-9.8c-4.3,1.3-1.6,7-1,11.3
		C225.7,217.8,221.3,221.2,221.3,221.2L221.3,221.2z"/>
	<path class="st20" d="M212.7,221.3c0,0,2.6,0.9,5.4,0.7c3.4-0.3,8.2-3.7,7.1-11.1c-1.2-7.5-4-11-7.7-9.8c-4.3,1.3-1.6,7-1,11.3
		C217.2,217.9,212.7,221.3,212.7,221.3L212.7,221.3z"/>
	<path class="st20" d="M204.4,218c0,0,0.9,4.3,5.5,4c3.4-0.2,8.2-3.7,7.1-11.1c-1.2-7.5-4-11-7.7-9.8c-4.3,1.3-1.6,7-1,11.3
		C208.9,217.9,204.4,218,204.4,218z"/>
	<path class="st29" d="M142.9,277.9h-3.5h-17.3h-18H72.9h-8.6H39.3H0v-28.1h38h26.3h8.6h31.2h9.6h16.3h9.3c0,0,6.9,0.1,15.3-3.1
		c8-3,17-4.4,28.7-1.7c0.7,0.2,3.7-1.8,4.4-1.8c17.5,0.5,13.8-1.5,21.4-3.6c7.6-2.1,19.9,7.6,16.8,11.8c-3.1,4.2-20.4,17.3-22,19.9
		c-1.6,2.6-20.4,6.8-28.5,6.3C167.3,277.1,142.9,277.9,142.9,277.9L142.9,277.9z"/>
	<path class="st30" d="M207.5,248.6c2.4-0.6,5-1.1,7.6-1.4c15.2-2.2,33.2,1.7,34.1-2.9c1-4.5-3.6-9.5-11.7-9.8
		c-8.1-0.2-28.4-2.1-46.3,6.4l-7,4.1"/>
	<path class="st11" d="M207.5,248.6c2.4-0.6,5-1.1,7.6-1.4c15.2-2.2,33.2,1.7,34.1-2.9c1-4.5-3.6-9.5-11.7-9.8
		c-8.1-0.2-28.4-2.1-46.3,6.4l-7,4.1"/>
	<path class="st30" d="M188.7,264.8c0,0,15-8.8,34.6-11.7c15.2-2.2,33.2,1.7,34.1-2.9c1-4.5-3.6-9.5-11.7-9.8
		c-8.1-0.2-28.4-2.1-46.3,6.4"/>
	<path class="st11" d="M188.7,264.8c0,0,15-8.8,34.6-11.7c15.2-2.2,33.2,1.7,34.1-2.9c1-4.5-3.6-9.5-11.7-9.8
		c-8.1-0.2-28.4-2.1-46.3,6.4"/>
	<path class="st30" d="M195.5,270.8c0,0,15-8.8,34.6-11.7c15.2-2.2,33.2,1.7,34.1-2.9c1-4.5-3.6-9.5-11.7-9.8
		c-8.1-0.2-28.4-2.1-46.3,6.4"/>
	<path class="st11" d="M195.5,270.8c0,0,15-8.8,34.6-11.7c15.2-2.2,33.2,1.7,34.1-2.9c1-4.5-3.6-9.5-11.7-9.8
		c-8.1-0.2-28.4-2.1-46.3,6.4"/>
	<path class="st31" d="M214.2,267.2l-2.5,12.2l3.8,3.4l9.7-3.1l1.1-5l-9.9-8.3L214.2,267.2z"/>
	<path class="st11" d="M216.2,277.2l-1.9-10"/>
	<path class="st32" d="M220.6,281.2l0.9-5.1l-5.1-9.7"/>
	<path class="st11" d="M220.6,281.2l0.9-5.1l-5.1-9.7"/>
	<path class="st11" d="M219.8,281.6l-3.1-3.5"/>
	<path class="st11" d="M226.3,274.7l-14.6,4.6"/>
	<path class="st30" d="M198.9,276.9c0,0,15-8.8,34.6-11.7c15.2-2.2,33.2,1.7,34.1-2.9c1-4.5-3.6-9.5-11.7-9.8
		c-8.1-0.2-28.4-2.1-46.3,6.4"/>
	<path class="st11" d="M198.9,276.9c0,0,15-8.8,34.6-11.7c15.2-2.2,33.2,1.7,34.1-2.9c1-4.5-3.6-9.5-11.7-9.8
		c-8.1-0.2-28.4-2.1-46.3,6.4"/>
	<path class="st19" d="M218.2,255.6c-2.5,5.9,2.7,12.2,2.7,12.2l-8.6,3c0,0-5-4.6-3-12C209.6,258.3,218.2,255.6,218.2,255.6z"/>
	<path class="st30" d="M176,263.7c0,0,8.8,1.9,13.1,1c4.3-1,11.1-9.5,17.4-12.9c7.2-3.8,12.4-2.4,16.5-0.5c4.1,1.9,5.5,6,4.1,7.6
		c-2.2,2.6-8.2,2.7-11.5,4.8c-7.9,5-10.5,14.3-15.5,16.2c-5,1.9-17.4-2.4-24.8-2.4"/>
	<path class="st11" d="M176,263.7c0,0,8.8,1.9,13.1,1c4.3-1,11.1-9.5,17.4-12.9c7.2-3.8,12.4-2.4,16.5-0.5c4.1,1.9,5.5,6,4.1,7.6
		c-2.2,2.6-8.2,2.7-11.5,4.8c-7.9,5-10.5,14.3-15.5,16.2c-5,1.9-17.4-2.4-24.8-2.4"/>
	<path class="st33" d="M69.3,143.5c3.7,0,6.8-3,6.8-6.8s-3-6.8-6.8-6.8c-3.7,0-6.8,3-6.8,6.8S65.6,143.5,69.3,143.5z"/>
	<path class="st27" d="M71.2,135.2c0.4-0.5,1.2-0.7,1.8-0.5c0.7,0.2,1.1,0.7,1.5,1.2c0.5,0.7,0.4,1.8-0.1,2.5
		c-0.2,0.3-0.3,0.5-0.6,0.6c-0.4,0.2-1.2,0.4-1.7,0.3c-0.6-0.1-1.2-0.6-1.4-1.2"/>
	<path class="st11" d="M71.2,135.2c0.4-0.5,1.2-0.7,1.8-0.5c0.7,0.2,1.1,0.7,1.5,1.2c0.5,0.7,0.4,1.8-0.1,2.5
		c-0.2,0.3-0.3,0.5-0.6,0.6c-0.4,0.2-1.2,0.4-1.7,0.3c-0.6-0.1-1.2-0.6-1.4-1.2"/>
	<path class="st33" d="M63.1,136.5c3.7,0,6.8-3,6.8-6.8s-3-6.8-6.8-6.8c-3.7,0-6.8,3-6.8,6.8S59.3,136.5,63.1,136.5z"/>
	<path class="st27" d="M64.9,128.2c0.4-0.5,1.2-0.7,1.8-0.5c0.7,0.2,1.1,0.7,1.5,1.2c0.5,0.7,0.4,1.8-0.1,2.5
		c-0.2,0.3-0.3,0.5-0.6,0.6c-0.4,0.2-1.2,0.4-1.7,0.3c-0.6-0.1-1.2-0.6-1.4-1.2"/>
	<path class="st11" d="M64.9,128.2c0.4-0.5,1.2-0.7,1.8-0.5c0.7,0.2,1.1,0.7,1.5,1.2c0.5,0.7,0.4,1.8-0.1,2.5
		c-0.2,0.3-0.3,0.5-0.6,0.6c-0.4,0.2-1.2,0.4-1.7,0.3c-0.6-0.1-1.2-0.6-1.4-1.2"/>
	<path class="st34" d="M28.1,172.9c0-1.8,1.2-3.2,2.8-3.6c0.2,0.7,0.5,1.5,0.9,2.3c0,0,0,0,0,0.1c0.4,1,0.9,2,1.4,3l0,0.1
		c0.2,0.4,0.4,0.9,0.7,1.3c-0.6,0.4-1.3,0.6-2.1,0.6C29.8,176.6,28.1,175,28.1,172.9z"/>
	<path class="st35" d="M31.8,171.6c0.4,0.9,0.9,2,1.4,3C32.7,173.7,32.2,172.7,31.8,171.6z"/>
	<path class="st36" d="M36.3,179.6c-1.1-1.5-2.1-3.1-3.1-4.9l0-0.1c-0.5-1-1-2-1.4-3c0,0,0-0.1,0-0.1c-0.7-1.6-1.2-3.3-1.6-5.2h0.1
		c3,0.5,6.2,0.5,9.2,0.1l0.4,2.7c-1.7,0.3-3,1.9-3,3.7c0,2.1,1.7,3.7,3.7,3.7c0.1,0,0.3,0,0.4,0l0.4,2.6c-1.5,0.3-3.1,0.4-4.8,0.3
		L36.3,179.6L36.3,179.6z"/>
	<path class="st34" d="M44.1,171.6c0.1,0.4,0.2,0.7,0.2,1.1c0,1.9-1.5,3.5-3.4,3.7c-0.1,0-0.3,0-0.4,0c-2.1,0-3.7-1.7-3.7-3.7
		c0-1.8,1.3-3.3,3-3.7c0.2-0.1,0.5-0.1,0.8-0.1C42.2,169,43.7,170.1,44.1,171.6L44.1,171.6z"/>
	<path class="st37" d="M52.8,183.9c0.4-0.4,0.8-0.8,1.2-1.2l0.5-0.1c1,1.5,2.1,3,3.1,4.6l-0.2,0.1c-1.6,1.3-3,2.2-4.9,3l-0.3,0.2
		c-0.8-1.6-1.8-3.1-2.8-4.5C50.7,185.4,51.8,184.7,52.8,183.9L52.8,183.9z"/>
	<path class="st14" d="M42.8,183.6l5.7,2.2l0.2,0.5c-1.9,0.7-3.9,1.2-6.1,1.2c-2-2.5-4.3-5.1-6.3-7.9l0.2-0.2c1.7,0,3.3-0.1,4.8-0.3
		c0.6-0.1,1.3-0.2,1.9-0.4l0.2,0.7L42.8,183.6L42.8,183.6z"/>
	<path class="st38" d="M47.6,272.3c3.7,2.7,8.3,4.1,12.4,4.7c-2.5,0.2-5.1,0.1-7.5-0.5c-2.4-0.5-4.7-1.5-6.8-2.7l0,0
		C46.4,273.3,47,272.8,47.6,272.3L47.6,272.3z"/>
	<path class="st14" d="M49.8,175.7c1.4,2.3,3.1,4.5,4.7,6.9l-0.5,0.1c-0.4,0.4-0.8,0.8-1.2,1.2l-0.4-0.4l-5.3-2.2l1-4.5l-0.1-0.2
		c0.4-0.2,0.8-0.5,1.1-0.8L49.8,175.7L49.8,175.7z"/>
	<path class="st22" d="M45.5,164.7c-1.9,0.9-4,1.4-6.1,1.8c-3,0.4-6.2,0.4-9.2-0.1h-0.1c-1-4.3-1.2-9.4-0.3-15.7
		c1.4-9.8,11.6-20.2,22.6-20.2c11,0,15.5,11.4,20.2,12.8c4.2,1.2,6.8-1.3,7.4-1.9c0,0.3,0.4,7-4.8,10.8c-1.1,0.8-2.3,1.4-3.9,1.9
		c-5.9,3.3-25.5-3.9-25.5,9c0,0.5,0,1.1,0.1,1.6L45.5,164.7L45.5,164.7z"/>
	<path class="st37" d="M55.5,212c2.3,0.5,4.2,0.7,6.5,0.5l0.2,0.1c-1,3-2.6,5.9-4.6,8.8l-0.2-0.2c-2.1-0.4-4.1-1-6-2
		c1.6-2.4,2.9-4.9,3.9-7.4L55.5,212L55.5,212z"/>
	<path class="st36" d="M39.4,166.4c2.2-0.3,4.3-0.9,6.1-1.8l0.3,0c0.2,2.3,0.7,4.3,1.5,6.3l-3.3,0.7c-0.5-1.5-1.9-2.6-3.6-2.6
		c-0.3,0-0.5,0-0.8,0.1L39.4,166.4L39.4,166.4z"/>
	<path class="st37" d="M42,264.9c1.2,3.2,3.2,5.6,5.6,7.4c-0.6,0.5-1.2,1-1.8,1.5l0,0c-3-1.8-5.7-4.3-7.5-7.3l0,0
		c1.3-0.3,2.5-0.8,3.6-1.5L42,264.9z"/>
	<path class="st22" d="M39.9,236.3c-1.7,2.9-3,6-3.9,9.3c-0.7,2.5-1,5-1,7.7c0,1,0,2.1,0.1,3.2c0.2,2,0.5,4.1,1.2,6
		c0.5,1.4,1.2,2.8,2,4c1.9,3,4.5,5.5,7.5,7.3c2.1,1.3,4.4,2.2,6.8,2.7c2.5,0.6,5,0.7,7.5,0.5c3.5,0.6,6.8,0.7,8.9,0.7
		c-0.2,2-5.7,8.6-16.1,8.6c-16.9,0-27.1-11.6-26.7-34.5c0.3-20.2,23.4-34.7,23.4-48.1c0-6.8-3.1-11.5-6.9-16.2
		c2.1-0.1,4.2-0.5,6.1-1.2c0.3-0.1,0.5-0.2,0.7-0.3c1,1.4,1.9,2.9,2.8,4.5c1.1,2,2,4.1,2.7,6.1c0.4,1.1,0.8,2.2,1.1,3.2
		c0.4,1.5,0.7,3,0.7,4.4c0.1,2.6-0.5,5.2-1.5,7.7c-1,2.5-2.3,4.9-3.9,7.4c-1.8,2.9-4,5.8-6,8.7C43.4,230.7,41.5,233.4,39.9,236.3
		L39.9,236.3z"/>
	<path class="st36" d="M49.1,175.8c-0.4,0.3-0.7,0.5-1.1,0.8c-1.4,0.9-3,1.6-4.8,2.1c-0.6,0.2-1.2,0.3-1.9,0.4l-0.4-2.6
		c1.9-0.2,3.4-1.8,3.4-3.7c0-0.4-0.1-0.8-0.2-1.1l3.3-0.7c0.7,1.6,1.5,3.2,2.4,4.7L49.1,175.8z"/>
	<path class="st38" d="M63.1,202.7c0.1,1.2,0.2,2.4,0.2,3.8c0,2.1-0.4,4.2-1.1,6.2l-0.2-0.1c-2.4,0.2-4.2,0-6.5-0.5l-0.3-0.1
		c1-2.5,1.5-5.1,1.5-7.7h0.2c2.1-0.2,3.9-0.6,5.9-1.5L63.1,202.7L63.1,202.7z"/>
	<path class="st37" d="M63.1,202.7l-0.3,0c-2,0.8-3.8,1.2-5.9,1.5h-0.2c0-1.4-0.3-2.9-0.7-4.4c-0.3-1-0.7-2.1-1.1-3.2l0.4-0.2
		c2.1-0.7,3.7-1.4,5.5-2.7l0,0C61.9,196.3,62.7,199.3,63.1,202.7L63.1,202.7z"/>
	<path class="st38" d="M60.9,193.7L60.9,193.7c-1.9,1.3-3.4,2-5.5,2.7l-0.4,0.2c-0.7-2-1.7-4.1-2.7-6.1l0.3-0.2
		c1.9-0.9,3.3-1.7,4.9-3l0.2-0.1C58.8,189.2,60,191.3,60.9,193.7L60.9,193.7z"/>
	<path class="st38" d="M57.4,221.2l0.2,0.2c-2.1,3.1-4.4,6.2-6.7,9.6c-2.1-0.7-3.9-1.6-5.6-2.9c2.1-3,4.2-5.9,6-8.7
		C53.2,220.2,55.3,220.8,57.4,221.2L57.4,221.2z"/>
	<path class="st14" d="M49.4,186c-0.2,0.1-0.5,0.2-0.7,0.3l-0.2-0.5l-5.7-2.2l0.6-4.3l-0.2-0.7c1.7-0.5,3.3-1.2,4.8-2.1l0.1,0.2
		l-1,4.5l5.3,2.2l0.4,0.4C51.8,184.7,50.7,185.4,49.4,186L49.4,186z"/>
	<path class="st34" d="M50.9,170.4c0,1.4-0.8,2.6-1.9,3.2c-0.6,0.3-2.3-4.9-2.8-6.6c-0.1-0.5,0.4-0.4,0.9-0.4
		C49.2,166.6,50.9,168.3,50.9,170.4z"/>
	<path class="st37" d="M45.3,228c1.7,1.4,3.5,2.2,5.6,2.9c-1.9,2.7-3.7,5.5-5.3,8.5l-0.8-0.3c-2.1-0.7-3.3-1.5-5-2.9
		C41.5,233.4,43.4,230.7,45.3,228z"/>
	<path class="st38" d="M44.9,239.2l0.8,0.3c-1.2,2.4-2.3,5-3.1,7.7l-0.2-0.1c-2.2-0.1-4.3-0.6-6.3-1.5c0.9-3.3,2.3-6.3,3.9-9.3
		C41.6,237.7,42.8,238.5,44.9,239.2L44.9,239.2z"/>
	<path class="st37" d="M42.2,247.1l0.2,0.1c-0.8,2.7-1.4,5.7-1.5,8.8l-0.3,0c-1.9,0.6-3.4,0.6-5.4,0.5l-0.2,0
		c-0.1-1.1-0.1-2.1-0.1-3.2c0-2.7,0.3-5.2,1-7.7C37.9,246.5,40.1,247,42.2,247.1L42.2,247.1z"/>
	<path class="st38" d="M42,264.9l-0.2,0.1c-1.1,0.7-2.3,1.1-3.6,1.5l0,0c-0.8-1.3-1.5-2.6-2-4c-0.7-1.9-1-3.9-1.2-6l0.2,0
		c2,0.1,3.4,0,5.4-0.5l0.3,0c0,0.7-0.1,1.4-0.1,2.1C40.9,260.7,41.3,263,42,264.9L42,264.9z"/>
	<path class="st11" d="M50.9,170.4c0,1.4-0.8,2.6-1.9,3.2c-0.6,0.3-2.3-4.9-2.8-6.6c-0.1-0.5,0.4-0.4,0.9-0.4
		C49.2,166.6,50.9,168.3,50.9,170.4z"/>
	<path class="st11" d="M33.2,174.7c0.2,0.4,0.4,0.9,0.7,1.3c-0.6,0.4-1.3,0.6-2.1,0.6c-2.1,0-3.7-1.7-3.7-3.7c0-1.8,1.2-3.2,2.8-3.6
		c0.2,0.7,0.5,1.5,0.9,2.3"/>
	<path class="st11" d="M80.1,141.2c0,0,0,0-0.1,0.1c-0.5,0.6-3.2,3.1-7.4,1.9c-4.7-1.4-9.2-12.8-20.2-12.8s-21.2,10.4-22.6,20.2
		c-0.9,6.3-0.6,11.4,0.3,15.7c0.4,1.9,1,3.6,1.6,5.2c0,0,0,0,0,0.1c0.4,1,0.9,2,1.4,3l0,0.1c0.9,1.8,2,3.4,3.1,4.9
		c2,2.8,4.3,5.4,6.3,7.9c3.8,4.7,6.9,9.4,6.9,16.2c0,13.4-21.6,27.9-23.4,48.1c-1.6,18.3,9.8,34.5,26.7,34.5
		c9.8,0,15.9-6.5,16.1-8.4c-2.1,0-5.3-0.3-8.9-0.8c-4.2-0.7-8.8-2-12.4-4.7c-2.4-1.8-4.4-4.2-5.6-7.4c-0.7-2-1.1-4.3-1.1-6.9
		c0-0.7,0-1.4,0.1-2.1c0.2-3.1,0.7-6.1,1.5-8.8c0.8-2.7,1.9-5.3,3.1-7.7c1.6-3,3.4-5.9,5.3-8.5c2.3-3.3,4.7-6.5,6.7-9.6
		c1.9-2.9,3.6-5.8,4.6-8.8c0.7-2,1.1-4,1.1-6.2c0-1.3-0.1-2.6-0.2-3.8c-0.3-3.3-1.1-6.3-2.2-9c-0.9-2.4-2.1-4.5-3.3-6.5
		c-1-1.6-2-3.1-3.1-4.6c-1.6-2.3-3.3-4.6-4.7-6.9c-0.9-1.5-1.8-3.1-2.4-4.7c-0.8-2-1.4-4-1.5-6.3c0-0.5-0.1-1.1-0.1-1.6
		c0-13,19.6-5.7,25.5-9c1.6-0.5,2.9-1.1,3.9-1.9c5.2-3.8,4.8-10.4,4.8-10.8v0"/>
	<path class="st11" d="M30.2,166.4c3,0.5,6.2,0.5,9.2,0.1c2.2-0.3,4.3-0.9,6.1-1.8"/>
	<path class="st11" d="M36.5,179.4c1.7,0,3.3-0.1,4.8-0.3c0.6-0.1,1.3-0.2,1.9-0.4c1.7-0.5,3.3-1.2,4.8-2.1c0.4-0.2,0.8-0.5,1.1-0.8
		"/>
	<path class="st11" d="M42.6,187.5L42.6,187.5c2.2-0.1,4.2-0.5,6.1-1.2c0.3-0.1,0.5-0.2,0.7-0.3c1.2-0.6,2.4-1.3,3.4-2.1
		c0.4-0.4,0.8-0.8,1.2-1.2"/>
	<path class="st11" d="M64.8,149.3c1.6,2.7,7.7,4.3,10.3,2.7c0,0,0.1,0,0.1,0.1c2.2,1.2,2.6,4.4,2.8,6.4c0.4,3.7-3.2,7.1-5.1,10.2
		c-1.5,2.5-2.3,5.7-1.1,8.3c1.3,2.6,4.5,2.7,6.7,4.1c1.4,0.9,2.6,2.5,2.7,4.1c0.1,1.5-0.5,2.6-1.4,3.2c-0.9,0.6-2.1,0.7-3.1,0.3
		c-0.3-0.1-0.7-0.5-0.9-0.7c-0.4-0.5-0.4-1.4-0.1-1.9c0.4-0.5,1.1-0.8,1.7-0.6"/>
	<path class="st11" d="M74.7,179.4c4.4,1.4,6.1-1.9,6.3-3.2c0.2-1.2-0.6-2.6-1.8-2.9c-1.2-0.3-2.6,0.6-2.7,1.8"/>
	<path class="st11" d="M44.1,171.6c0.1,0.4,0.2,0.7,0.2,1.1c0,1.9-1.5,3.5-3.4,3.7c-0.1,0-0.3,0-0.4,0c-2.1,0-3.7-1.7-3.7-3.7
		c0-1.8,1.3-3.3,3-3.7c0.2-0.1,0.5-0.1,0.8-0.1C42.2,169,43.6,170.1,44.1,171.6L44.1,171.6z"/>
	<path class="st11" d="M49.4,186C49.4,186,49.4,186,49.4,186c1,1.4,1.9,2.9,2.8,4.5c1.1,2,2,4.1,2.7,6.1c0.4,1.1,0.8,2.2,1.1,3.2
		c0.4,1.5,0.7,3,0.7,4.4c0.1,2.6-0.5,5.2-1.5,7.7c-1,2.5-2.3,4.9-3.9,7.4c-1.8,2.9-4,5.8-6,8.7c-1.9,2.7-3.8,5.5-5.4,8.4
		c-1.7,2.9-3,6-3.9,9.3c-0.7,2.5-1,5-1,7.7c0,1,0,2.1,0.1,3.2c0.2,2,0.5,4.1,1.2,6c0.5,1.4,1.2,2.8,2,4c1.9,3,4.5,5.5,7.5,7.3
		c2.1,1.3,4.4,2.2,6.8,2.7c2.5,0.6,5,0.7,7.5,0.5c0.1,0,0.1,0,0.2,0"/>
	<path class="st11" d="M52.5,190.3c1.9-0.9,3.3-1.7,4.9-3"/>
	<path class="st11" d="M55.3,196.4c2.1-0.7,3.7-1.4,5.5-2.7"/>
	<path class="st11" d="M56.9,204.1c2.1-0.2,3.9-0.6,5.9-1.5"/>
	<path class="st11" d="M55.5,212c2.3,0.5,4.2,0.7,6.5,0.5"/>
	<path class="st11" d="M51.3,219.2C51.3,219.2,51.3,219.2,51.3,219.2c1.9,0.9,4,1.6,6.1,2"/>
	<path class="st11" d="M45.2,227.9C45.2,227.9,45.3,228,45.2,227.9c1.7,1.4,3.5,2.3,5.6,3c0,0,0,0,0,0"/>
	<path class="st11" d="M39.8,236.3C39.8,236.3,39.9,236.3,39.8,236.3c1.7,1.4,2.9,2.2,5,2.9"/>
	<path class="st11" d="M35.9,245.6C35.9,245.6,36,245.6,35.9,245.6c2,0.9,4.1,1.4,6.3,1.5"/>
	<path class="st11" d="M35.3,256.5c2,0.1,3.4,0,5.4-0.5"/>
	<path class="st11" d="M38.2,266.5c1.3-0.3,2.5-0.8,3.6-1.5"/>
	<path class="st11" d="M47.6,272.3c-0.6,0.5-1.2,1-1.8,1.5"/>
	<path class="st11" d="M48.1,176.8l-1,4.5l5.3,2.2"/>
	<path class="st11" d="M43.4,179.3l-0.6,4.3l5.7,2.2"/>
	<path class="st33" d="M58.8,146c3.7,0,6.8-3,6.8-6.8s-3-6.8-6.8-6.8c-3.7,0-6.8,3-6.8,6.8S55.1,146,58.8,146z"/>
	<path class="st27" d="M60.7,137.6c0.4-0.5,1.2-0.7,1.8-0.5c0.7,0.2,1.1,0.7,1.5,1.2c0.5,0.7,0.4,1.8-0.1,2.5
		c-0.2,0.3-0.3,0.5-0.6,0.6c-0.4,0.2-1.2,0.4-1.7,0.3c-0.6-0.1-1.2-0.6-1.4-1.2"/>
	<path class="st11" d="M60.7,137.6c0.4-0.5,1.2-0.7,1.8-0.5c0.7,0.2,1.1,0.7,1.5,1.2c0.5,0.7,0.4,1.8-0.1,2.5
		c-0.2,0.3-0.3,0.5-0.6,0.6c-0.4,0.2-1.2,0.4-1.7,0.3c-0.6-0.1-1.2-0.6-1.4-1.2"/>
	<path class="st22" d="M122.5,246.5c-0.1,0.1-0.2,0.1-0.3,0.2c-0.4,0.2-0.8,0.5-1.1,0.8c-3.5,2.6-6.3,4.6-9.1,6.8
		c-1.5,1.2-3,2.3-4.6,3.6c-1.3,1.1-2.7,1.9-4.2,2.6c-3.5,1.5-7.2,1.8-10.7,1c-0.9-0.2-1.8-0.5-2.6-0.8c-2.6-1-4.6-2.9-6.6-4.9
		c-1-1.1-2.1-2.2-3.1-3.2c-1.9-1.9-4-3.6-6.2-5.2c-0.2-0.2-0.5-0.3-0.7-0.5c-2-1.2-4.2-2.1-6.5-2.2c-1.6-0.1-3,0.2-4.4,0.8
		c-0.6,0.3-1.2,0.6-1.8,1c-1.6,1-2,1.6-3.3,3v0.4c-4.9,0-6.5,0-6.5,0s4.3-11.6,18.5-11.2c14.1,0.4,15.7,16.3,27.5,16.1
		c11.8-0.2,16.1-15.8,33.6-16.3c14.9-0.4,21.4,9,21.4,9s-5.1,2.3-7.5,2.2v-0.2c-0.9-1.6-3.2-3.4-4.8-4.3c-1.1-0.6-2.8-1.1-4.5-1.4
		c-1.2-0.2-2.3-0.3-3.2-0.2C128.7,243.6,125.3,244.8,122.5,246.5L122.5,246.5z"/>
	<path class="st38" d="M73.3,246.8L73.3,246.8c-1.1,1.8-1.8,3.8-2,5.8l-0.1,0.2c-2.2-1.7-4.4-2.9-7-2.9h-1.2v-0.2
		c0-0.9-0.4-0.6-0.5-2.3c0-0.6-0.1-1.2,0-1.7l-0.1-0.2c1.4-0.6,2.9-0.9,4.4-0.8C69.2,244.6,71.4,245.5,73.3,246.8L73.3,246.8z"/>
	<path class="st38" d="M92.6,261.3l-0.1,0.3c-0.4,1-0.5,1.6-0.6,2.7c-0.1,1.3-0.1,2.7,0.3,4l0,0c-5-1.1-8.9-3.9-12.2-7l0.1-0.1
		c0.5-2,1.6-3.9,3.1-5.4l0.2-0.2c1.9,2,4,3.8,6.6,4.9C90.8,260.8,91.7,261.1,92.6,261.3L92.6,261.3z"/>
	<path class="st38" d="M116.1,259.4l0.2,0.5c-2.9,2.7-6.1,5.3-10,7l0-0.1c-1.6-1.7-2.7-3.9-3-6.3l-0.1-0.2c1.5-0.6,2.9-1.5,4.2-2.6
		c1.6-1.3,3.1-2.5,4.6-3.6l0.1,0.2c0.4,1.1,1,2.1,1.8,3C114.6,258.1,115.3,258.7,116.1,259.4z"/>
	<path class="st38" d="M135,243.7l-0.1,0.4c-0.8,2.1-0.9,3.1-0.5,5.4v0.4c-1,0-2.2,0-3.6,0c-2.1,0-4,0.9-6,2.2l-0.1-0.2
		c-1.4-1.9-2-3.3-2.2-5.5c2.8-1.7,6.2-2.8,9.3-3C132.7,243.5,133.9,243.6,135,243.7L135,243.7z"/>
	<path class="st37" d="M144.3,249.4v0.2c-0.1,0-0.1,0-0.1,0c-2-0.2-3.2,0.2-9.8,0.4v-0.4c-0.4-2.3-0.3-3.2,0.5-5.4l0.1-0.4
		c1.7,0.3,3.4,0.7,4.5,1.4C141.1,246,143.4,247.8,144.3,249.4z"/>
	<path class="st37" d="M124.7,252l0.1,0.2c-2.7,1.9-5.4,4.8-8.5,7.7l-0.2-0.5c-0.8-0.6-1.6-1.2-2.2-2c-0.8-0.9-1.3-1.9-1.8-3
		l-0.1-0.2c2.8-2.1,5.6-4.2,9.1-6.8c0.4-0.3,0.7-0.5,1.1-0.8c0.1-0.1,0.2-0.1,0.3-0.2C122.7,248.8,123.4,250.2,124.7,252L124.7,252z
		"/>
	<path class="st37" d="M106.3,266.8L106.3,266.8c-2.7,1.3-5.8,2.1-9.3,2.1c-1.7,0-3.3-0.2-4.8-0.5l0,0c-0.3-1.3-0.4-2.6-0.3-4
		c0.1-1.1,0.2-1.7,0.6-2.7l0.1-0.3c3.4,0.8,7.2,0.5,10.7-1l0.1,0.2C103.6,262.8,104.7,265.1,106.3,266.8L106.3,266.8z"/>
	<path class="st37" d="M83.4,255.6l-0.2,0.2c-1.5,1.5-2.6,3.4-3.1,5.4l-0.1,0.1c-3.2-3-5.9-6.3-8.8-8.5l0.1-0.2c0.2-2,0.9-4,2-5.8
		l0,0c0.2,0.2,0.5,0.3,0.7,0.5c2.2,1.5,4.3,3.3,6.2,5.2C81.3,253.4,82.3,254.5,83.4,255.6L83.4,255.6z"/>
	<path class="st37" d="M63.1,249.7v0.2c-2.3,0-4.1,0-5.7,0v-0.4c1.2-1.5,1.6-2,3.3-3c0.6-0.4,1.2-0.7,1.8-1l0.1,0.2
		c0,0.6,0,1.2,0,1.7C62.7,249.1,63.1,248.7,63.1,249.7L63.1,249.7z"/>
	<path class="st11" d="M57.4,249.8c-4.9,0-6.5,0-6.5,0s4.3-11.6,18.5-11.2c14.1,0.4,15.7,16.3,27.5,16.1
		c11.8-0.2,16.1-15.8,33.6-16.3c14.9-0.4,21.4,9,21.4,9s-5.1,2.3-7.5,2.2c-0.1,0-0.1,0-0.1,0c-2-0.2-3.2,0.2-9.8,0.4
		c-1.1,0-2.2,0-3.6,0c-2.1,0-4,0.9-6,2.2c-2.7,1.9-5.4,4.8-8.5,7.7c-2.9,2.7-6.1,5.3-10,7c-2.7,1.2-5.8,2-9.3,2
		c-1.7,0-3.3-0.2-4.8-0.5c-5-1.1-8.9-3.9-12.2-7c-3.2-3-5.9-6.3-8.8-8.5c-2.2-1.7-4.4-2.9-7-2.9h-1.2
		C60.8,249.9,58.9,249.9,57.4,249.8L57.4,249.8z"/>
	<path class="st11" d="M57.4,249.4c1.2-1.5,1.6-2,3.3-3c0.6-0.4,1.2-0.7,1.8-1c1.4-0.6,2.9-0.9,4.4-0.8c2.3,0.1,4.5,0.9,6.5,2.2
		c0.2,0.2,0.5,0.3,0.7,0.5c2.2,1.5,4.3,3.3,6.2,5.2c1,1,2.1,2.1,3.1,3.2c1.9,2,4,3.8,6.6,4.9c0.8,0.3,1.7,0.6,2.6,0.8
		c3.4,0.8,7.2,0.5,10.7-1c1.5-0.6,2.9-1.5,4.2-2.6c1.6-1.3,3.1-2.5,4.6-3.6c2.8-2.1,5.6-4.2,9.1-6.8c0.4-0.3,0.7-0.5,1.1-0.8
		c0.1-0.1,0.2-0.1,0.3-0.2c2.8-1.7,6.2-2.8,9.3-3c0.9,0,2.1,0,3.2,0.2c1.7,0.3,3.4,0.7,4.5,1.4c1.6,0.9,3.9,2.7,4.8,4.3"/>
	<path class="st11" d="M62.5,245.6c0,0.6,0,1.2,0,1.7c0.1,1.7,0.5,1.4,0.5,2.3"/>
	<path class="st11" d="M73.3,246.8c-1.1,1.7-1.8,3.7-2,5.8"/>
	<path class="st11" d="M83.2,255.8c-1.5,1.5-2.6,3.4-3.1,5.4"/>
	<path class="st11" d="M92.5,261.6c-0.4,1-0.5,1.6-0.6,2.7c-0.1,1.3-0.1,2.7,0.3,4"/>
	<path class="st11" d="M103.3,260.5c0.3,2.3,1.4,4.5,3,6.3"/>
	<path class="st11" d="M112.2,254.3c0.4,1.1,1,2.1,1.8,3.1c0.6,0.8,1.4,1.4,2.2,2"/>
	<path class="st11" d="M122.5,246.5c0.3,2.3,0.9,3.7,2.2,5.6"/>
	<path class="st11" d="M134.9,244.2c-0.8,2.1-0.9,3.1-0.5,5.4"/>
	<path class="st22" d="M159.4,290.5L159.4,290.5c0,0.8,0,1.7,0,2.6c0,2.4-0.4,5-1.1,7.4c-0.9,2.8-2.3,5.4-4.4,7.1
		c-3.1,2.6-7.1,3.5-11.1,3.4c3.4-0.2,6.6-2.6,8.3-5.6c0.2-0.4,0.4-0.7,0.6-1.1c1.6-3.1,2.3-6.6,2.4-10c0-0.2,0-0.4,0-0.5
		c0-5.4,0.1-6.7,0.1-9c0-1.5,0-3.3-0.1-6.9v-0.2c2.6-0.1,5.1-0.1,5.1-0.1C159.3,284.1,159.4,285.2,159.4,290.5L159.4,290.5z"/>
	<path class="st38" d="M187.4,295.9c0.1,2.8-1.3,5.5-3.3,7.4c-1.1,1.1-2.3,2-3.6,2.7l-0.1-0.2c0.1-0.4-0.1-1.4-0.8-2l-0.1-0.2
		c1-0.4,1.9-0.9,2.8-1.5C184.7,300.3,186.3,298.7,187.4,295.9L187.4,295.9L187.4,295.9z"/>
	<path class="st37" d="M180.4,305.8l0.1,0.2c-1,0.5-2.1,1-3.2,1.3c-1,0.2-2.1,0.4-3.3,0.5v-0.1c0.4-0.7,0.7-1.7,0.3-3l0-0.2
		c1.8,0.2,3.6-0.1,5.3-0.8l0.1,0.2C180.3,304.4,180.5,305.4,180.4,305.8L180.4,305.8z"/>
	<path class="st38" d="M174.2,304.6c0.4,1.3,0.1,2.4-0.3,3v0.1c-0.8,0-1.6,0-2.4,0c-2-0.1-3.9-0.7-5.7-1.5l0.1-0.1
		c1.4-0.5,2.3-2.6,2.4-4.1c1.4,1.1,3.1,1.9,4.9,2.3c0.3,0.1,0.7,0.1,1,0.2L174.2,304.6L174.2,304.6z"/>
	<path class="st37" d="M168.3,301.9c0,1.6-0.9,3.6-2.4,4.1l-0.1,0.1c-2.2-1-4.2-2.5-6-4.1l0.2-0.2c1.6-0.6,3.3-1.8,4.1-4.1l0.2-0.1
		C165.5,299.3,166.8,300.8,168.3,301.9L168.3,301.9z"/>
	<path class="st38" d="M164.3,297.7l-0.2,0.1c-0.8,2.2-2.5,3.5-4.1,4.1l-0.2,0.2c-0.1-0.1-0.3-0.2-0.4-0.4c-0.4-0.4-0.8-0.7-1.2-1.1
		l-0.1,0c0.8-2.4,1.1-5.1,1.1-7.4c0-1,0-1.8,0-2.6h0.3c0.8,1.3,1.6,2.7,2.4,4C162.8,295.6,163.5,296.7,164.3,297.7L164.3,297.7z"/>
	<path class="st37" d="M154.2,277.8c0.1,3.6,0.1,5.5,0.1,6.9h-0.1c-1.8,0.7-3.8,0.4-5.1-0.6h-0.2c0-0.9,0-1.7-0.1-2.5
		c0-1.2-0.1-2.4-0.1-3.8c0,0,2.7-0.1,5.4-0.2L154.2,277.8L154.2,277.8z"/>
	<path class="st38" d="M154.2,284.7L154.2,284.7c0,2.3,0,3.6-0.1,9c0,0.2,0,0.3,0,0.5h-0.1c-2.2,0.4-3.7,0.3-5-1.2
		c0-0.9-0.1-1.7-0.1-2.6v-0.4c0-2.5,0-4.4,0-6h0.2C150.4,285.1,152.4,285.4,154.2,284.7L154.2,284.7z"/>
	<path class="st37" d="M154.1,294.3L154.1,294.3c0,3.5-0.7,7-2.3,10l-0.2-0.1c-2-0.5-3.9-3-4.2-4.9l0,0c0.8-0.9,1.4-2.2,1.6-3.7
		c0.1-0.8,0.1-1.7,0.1-2.5C150.3,294.6,151.9,294.7,154.1,294.3L154.1,294.3z"/>
	<path class="st38" d="M151.6,304.2l0.2,0.1c-0.2,0.4-0.4,0.8-0.6,1.1c-1.8,3-4.9,5.4-8.3,5.6c-0.1,0-0.2,0-0.3,0v-0.1
		c-1.7-2.6-2.2-6.5,0.3-9.7V301c1.9,0.1,3.5-0.5,4.6-1.7l0,0C147.6,301.2,149.6,303.7,151.6,304.2L151.6,304.2z"/>
	<path class="st37" d="M148.9,284.1c0,1.7,0.1,3.5,0,6v0.3h0c-1.1-0.9-1.8-1.2-3.1-1.6c-0.3-0.1-0.7-0.2-1.1-0.2l0-0.2
		c1.6-2.2,1.3-5.5-0.5-7.6c0.7,0,1.3,0.1,2,0.2c1,0.1,1.6,0.4,2.6,0.6h0.1C148.9,282.4,148.9,283.2,148.9,284.1L148.9,284.1z"/>
	<path class="st38" d="M144.2,280.8c1.8,2.1,2.1,5.4,0.5,7.6l0,0.2c-1.2-0.1-2.6,0-3.7,0.3c-0.7,0.2-1.4,0.5-1.9,0.9
		c0.7-3.5-2.7-5.9-5.3-6.3l-0.2-0.3C136.9,281.4,140.6,280.7,144.2,280.8L144.2,280.8z"/>
	<path class="st37" d="M142.8,301v0.2c-2.5,3.1-2,7.1-0.3,9.7v0.1c-0.4,0-0.9,0-1.3-0.1c-3.7-0.3-7.3-1.8-10-4.4
		c-0.2-0.2-0.5-0.5-0.7-0.7l0.6-0.2c0.1-3.1,2.2-5.9,6.2-6.9l0.3-0.3c0.7,1.1,1.7,1.9,3.1,2.3C141.4,300.9,142.2,301,142.8,301
		L142.8,301z"/>
	<path class="st37" d="M133.9,283.6c2.6,0.4,6,2.8,5.3,6.3c-1.2,0.8-2,2-2.4,3.5l-0.5-0.1c-0.9-0.5-2-1.2-3.4-1.2
		c-3.1,0-4.6,1-6,3.8c0-0.4,0-0.8,0-1.2c0.1-4.4,2.8-8.8,6.5-11.2c0.1-0.1,0.2-0.1,0.3-0.2L133.9,283.6z"/>
	<path class="st38" d="M137.6,298.4l-0.3,0.3c-3.9,1-6,3.8-6.2,6.9l-0.6,0.2c-1.5-1.7-2.6-3.7-3.2-5.8c-0.4-1.4-0.5-2.8-0.5-4.2
		c1.4-2.7,2.9-3.7,6-3.8c1.5,0,2.5,0.7,3.4,1.2l0.5,0.1c-0.1,0.2-0.1,0.4-0.1,0.7C136.4,295.5,136.8,297.1,137.6,298.4L137.6,298.4z
		"/>
	<path class="st11" d="M158.4,300.6c0.4,0.4,0.8,0.8,1.2,1.1c0.1,0.1,0.3,0.2,0.4,0.4c1.8,1.6,3.8,3.1,6,4.1
		c1.8,0.8,3.7,1.4,5.7,1.5c0.7,0,1.6,0,2.4,0c1.1-0.1,2.3-0.2,3.3-0.5c1.2-0.3,2.2-0.7,3.2-1.3c1.3-0.7,2.5-1.6,3.6-2.7
		c2-1.9,3.4-4.6,3.3-7.4"/>
	<path class="st11" d="M149,290.5c0,0.9,0.1,1.7,0.1,2.6c0,0.8,0,1.7-0.1,2.5c-0.2,1.6-0.7,2.8-1.6,3.7c-1.1,1.2-2.7,1.8-4.6,1.7
		c-0.7,0-1.4-0.1-2.1-0.3c-1.4-0.4-2.4-1.2-3.1-2.3c-0.9-1.3-1.2-3-1-4.4c0-0.2,0.1-0.4,0.1-0.7c0.4-1.5,1.2-2.7,2.4-3.5
		c0.6-0.4,1.2-0.7,1.9-0.9c1.1-0.3,2.4-0.5,3.7-0.3c0.4,0,0.7,0.1,1.1,0.2c1.3,0.4,2.1,0.6,3.1,1.6"/>
	<path class="st11" d="M159.7,290.5c0.8,1.3,1.6,2.7,2.4,4c0.7,1.1,1.4,2.2,2.2,3.2c1.2,1.6,2.5,3.1,4,4.2c1.4,1.1,3.1,1.9,4.9,2.3
		c0.3,0.1,0.7,0.1,1,0.2c1.8,0.2,3.6-0.1,5.3-0.8c1-0.4,1.9-0.9,2.8-1.5c2.5-1.8,4.1-3.4,5.1-6.3c0-0.1,0.1-0.2,0.1-0.4"/>
	<path class="st11" d="M159.4,290.5L159.4,290.5c0,0.8,0,1.7,0,2.6c0,2.4-0.4,5-1.1,7.4c-0.9,2.8-2.3,5.4-4.4,7.1
		c-3.1,2.6-7.1,3.5-11.1,3.4c-0.1,0-0.2,0-0.3,0c-0.4,0-0.9,0-1.3-0.1c-3.7-0.3-7.3-1.8-10-4.4c-0.2-0.2-0.5-0.5-0.7-0.7
		c-1.5-1.7-2.6-3.7-3.2-5.8c-0.4-1.4-0.5-2.8-0.5-4.2c0-0.4,0-0.8,0-1.2c0.1-4.4,2.8-8.8,6.5-11.2c0.1-0.1,0.2-0.1,0.3-0.2
		c3.1-1.9,6.9-2.6,10.5-2.4c0.7,0,1.3,0.1,2,0.2c1,0.1,1.6,0.4,2.6,0.6"/>
	<path class="st11" d="M159.4,290.5c0-5.3-0.2-6.4-0.1-13c0,0-2.5,0-5.1,0.1c-2.7,0.1-5.4,0.1-5.4,0.2c0,1.4,0,2.6,0.1,3.8
		c0,0.8,0,1.6,0.1,2.5c0,1.7,0.1,3.5,0,6v0.4"/>
	<path class="st11" d="M154.2,277.8c0.1,3.6,0.1,5.5,0.1,6.9c0,2.3-0.1,3.6-0.1,9c0,0.2,0,0.3,0,0.5c-0.1,3.5-0.8,7-2.4,10
		c-0.2,0.4-0.4,0.8-0.6,1.1c-1.8,3-4.9,5.4-8.3,5.6c-0.6,0-1.1,0-1.7-0.1"/>
	<path class="st11" d="M142.8,301.2c-2.5,3.1-2,7.1-0.3,9.7"/>
	<path class="st11" d="M137.3,298.7c-3.9,1-6,3.8-6.2,6.9"/>
	<path class="st11" d="M126.8,295.9c1.4-2.7,2.9-3.7,6-3.8c1.5,0,2.5,0.7,3.4,1.2"/>
	<path class="st11" d="M133.9,283.6c2.6,0.4,6,2.8,5.3,6.3c0,0,0,0.1,0,0.1"/>
	<path class="st11" d="M144.2,280.8c1.8,2.1,2.1,5.4,0.5,7.6"/>
	<path class="st11" d="M147.4,299.3c0.2,1.9,2.2,4.4,4.2,4.9"/>
	<path class="st11" d="M149,293c0,0,0.1,0.1,0.1,0.1c1.3,1.5,2.8,1.6,5,1.2"/>
	<path class="st11" d="M149.1,284.1c1.3,1,3.3,1.3,5.1,0.6"/>
	<path class="st11" d="M164.1,297.8c-0.8,2.2-2.5,3.5-4.1,4.1"/>
	<path class="st11" d="M168.3,301.9L168.3,301.9c0,1.6-0.9,3.7-2.4,4.2"/>
	<path class="st11" d="M174.2,304.6c0.4,1.3,0.1,2.4-0.3,3"/>
	<path class="st11" d="M179.6,303.8c0.6,0.5,0.9,1.6,0.8,2"/>
</g>
</svg>
