<svg xmlns="http://www.w3.org/2000/svg" xml:space="preserve" id="Layer_1" x="0" y="0" viewBox="0 0 390 314"><style>.st0{fill:#e96df2}.st0,.st1,.st2,.st3,.st4,.st5,.st6{stroke:#002140;stroke-miterlimit:10}.st1{fill:#fed607}.st2{fill:#f6d54e}.st3{fill:#fffaf0}.st4{fill:#d18000}.st5{fill:#e4bc07}.st6{fill:none}.st7{fill:#00b268}.st8,.st9{fill:#5be3aa;stroke:#002140;stroke-miterlimit:10}.st9{fill:#00b268}.st10{fill:#e96df2}.st11{fill:none;stroke:#002140;stroke-linecap:round;stroke-miterlimit:10}.st12{fill:#003c73}.st13{fill:#0185ff}.st14{fill:#fed607}.st15{fill:#ffa75a}.st16{fill:#002140}.st17,.st18,.st19,.st20{stroke:#002140;stroke-linecap:round}.st17{fill:none;stroke-linejoin:round}.st18{fill:#5ab0ff}.st18,.st19,.st20{stroke-miterlimit:10}.st19{fill:#fed607}.st20{fill:#4ba6a6}.st21{fill:#50eef6}.st22{fill:#ff7101}.st23{fill:#dffdfe}.st24{fill:#4ba6a6}.st25{fill:#fee45e}.st26{fill:#085239}.st27{fill:#fffaf0}.st28{fill:#03d47c}.st29{stroke:#002140;stroke-linecap:round;stroke-miterlimit:10}.st29,.st30{fill:#804633}.st31{stroke:#002140;stroke-linecap:round;stroke-miterlimit:10}.st31,.st32{fill:#b0d9ff}.st33{fill:#fffaf0;stroke:#002140;stroke-linecap:round;stroke-miterlimit:10}.st34{fill:#780505}.st35{fill:#dcbb43}.st36{fill:#e4bc07}.st37{fill:#f25730}.st38{fill:#8f3013}</style><path d="M158.7 67.4s-2.4 6.7-2.6 10.6-1 11.2 1.8 13.7c2.8 2.6 6.7 2.2 8.6-.8 2-2.9-.4-10.2 2.2-18.8 2-6.7-10-4.7-10-4.7z" class="st0"/><path d="M79.9 53.8s.2 1.1.1 2.7h-9.9V53c-.1-2.8-.1-3.4-.1-3.4h9.8zm0 2.8c0 2-.5 4.6-2.1 6.8l-.1-.1h-6.6c-.5-.8-.9-1.9-1-3.1 0-.3-.1-.6-.1-1v-2.6z" class="st1"/><path d="M77.8 63.3c-.8 1.3-2.1 2.3-3.8 2.9l-.1-.4c-1-.6-2-1.4-2.7-2.5z" class="st1"/><path d="M71.1 63.3c.7 1.2 1.7 2 2.7 2.5l.1.4c-1.2.4-2.6.7-4.2.6-6.4-.1-9-3.4-10.1-6.7h10.5c.2 1.3.5 2.3 1 3.2z" class="st1"/><path d="M69.9 46.1v3.3H59.1v-3.3z" class="st2"/><path d="M70.1 59.1c0 .3 0 .7.1 1H59.6c-1.1-3.3-.5-6.5-.5-6.5v-.5H70v3.5c.1.7.1 1.6.1 2.5zm-.4-6.1-10.9-.1v-6.4h10.8v.4s.1 3.3.1 6.1zm.2-14v7H59.1l-.1-7zm0-7v7H59v-7zm0-7v7H59v-7zm0-5.7V25h-11v-1.4l-.2-4.3zM39 24.5c1.2 0 2.3 1 2.3 2.3s-1 2.3-2.3 2.3c-1.2 0-2.3-1-2.3-2.3s1-2.3 2.3-2.3z" class="st1"/><path d="M48.1 19.2v14.2h-.2l-12.3.2h-.2c-.6 0-1.2 0-1.7.1-1.9-.2-4.5-1.3-4.6-6.5v-.5c0-4.6-.2-7-.2-7.5zm-6.9 7.6c0-1.3-1-2.3-2.3-2.3s-2.3 1-2.3 2.3 1 2.3 2.3 2.3 2.3-1.1 2.3-2.3z" class="st3"/><path d="M29.1 39.3v-.8s-.2-4 4.6-4.8c1.1.1 1.9-.1 1.9-.1h.1c6.4 0 12.3-.2 12.3-.2h.2v15.9H29.1z" class="st3"/><path d="M29.1 39.3h-3.7v10h3.7z" class="st4"/><path d="M25.3 39.3H12v10h13.4v-10z" class="st1"/><path d="M12 39.3H7.7v10H12z" class="st4"/><path d="M7.7 39.3H.5v10h7.2zm0-20.1v8H.5v-8z" class="st1"/><path d="M12 19.2v8H7.7v-8z" class="st4"/><path d="M25.3 19.2v8H12v-8z" class="st1"/><path d="M29.1 26.8v.5h-3.7v-8h3.5c0 .5.2 2.9.2 7.5z" class="st4"/><path d="M7.7 27.2H.5v12.1h7.2z" class="st5"/><path d="M12 27.2H7.7v12.1H12z" class="st4"/><path d="M25.3 27.2H12v12.1h13.4V27.2z" class="st5"/><path d="M29.1 38.5v.8h-3.7V27.2h3.7c.1 5.2 2.7 6.4 4.6 6.5-4.8.8-4.6 4.8-4.6 4.8z" class="st4"/><path d="M59.1 46.1v3.3h-11V19.2h21.8v.1H58.7l.2 4.3V39zm89.8-15.4s4.5 34-12.6 44.2c-17 10.2-22.3-25.6-22.3-25.6H69.9V19.2h22.7c8.1 0 14.9-2.4 21.7-2.4s11.5 3.1 11.5 3.1 4.6-2.3 9-2.3c6.3 0 7.5 4.7 7.5 4.7z" class="st0"/><path d="M69.9 49.3h44.2s5.2 35.9 22.3 25.6c17-10.2 12.6-44.2 12.6-44.2l-6.6-8.3s-1.2-4.7-7.5-4.7c-4.5 0-9 2.3-9 2.3s-4.7-3.1-11.5-3.1-13.6 2.4-21.7 2.4H.5v30.1h28.6m19-.1h11-.1" class="st6"/><path d="M59.1 49.3v4.3s-.5 3.2.5 6.5c1.1 3.3 3.7 6.6 10.1 6.7q2.55 0 4.2-.6c1.7-.6 3-1.7 3.9-2.9 1.6-2.1 2-4.8 2.1-6.8.1-1.6-.1-2.7-.1-2.7l-.2-4.1h-9.8V19.3H58.7l.2 4.3V39l.1 7 .1 3.3" class="st6"/><path d="M73.9 65.8c-1-.6-2-1.4-2.7-2.5-.5-.8-.9-1.9-1-3.1 0-.3-.1-.6-.1-1v-6.1c-.1-2.8-.1-3.4-.1-3.4M58.5 25h11.4m-10.8 7h10.6m-10.8 7h11m-11.2 7.1h11m-10.6 7h11m-10.6 7h10.6m-.2-3.5h10m-2.1 6.7h-6.6M35.5 33.6s-.8.2-1.9.1c-1.9-.2-4.5-1.3-4.6-6.5v-.5c0-4.6-.2-7-.2-7.5v-.1H48v30.2H29.1V38.5s-.2-4 4.6-4.8c.5-.1 1.1-.1 1.7-.1h.1" class="st6"/><path d="M35.6 33.6c6.4 0 12.3-.2 12.3-.2zm5.6-6.8c0 1.2-1 2.3-2.3 2.3-1.2 0-2.3-1-2.3-2.3 0-1.2 1-2.3 2.3-2.3s2.3 1 2.3 2.3zm-15.9-7.9v30.4M12 18.7v30.6M7.7 18.9v30.8M.2 39.3h29.1M.4 27.2h28.7" class="st6"/><path d="M139.1 18.5c2-1.1 5.3-2.7 7.6-3.4 17.9-5.4 34.6.2 49.5-3.6C211 7.7 218 2 218 2s5.6 16.1 6.3 27c1.2 18.6-4.2 32.8-4.2 32.8s-7.1 2.9-14.4 3.1c-7.3.1-22.3-4.2-32.8-.9-7.2 2.2-13.4 7.5-19.4 11.7" class="st7"/><path d="M139.1 18.5c2-1.1 5.3-2.7 7.6-3.4 17.9-5.4 34.6.2 49.5-3.6C211 7.7 218 2 218 2s5.6 16.1 6.3 27c1.2 18.6-4.2 32.8-4.2 32.8s-7.1 2.9-14.4 3.1c-7.3.1-22.3-4.2-32.8-.9-7.2 2.2-13.4 7.5-19.4 11.7" class="st6"/><path d="M141.4 24.3c3.2-1.7 7-3.1 11.4-3.8 15.3-2.3 21.1 1.4 33.1-.2s16.8-4.1 16.8-4.1.2 6.9 4.7 9.3c4 2.2 9.1 0 9.1 0s.5 4.1.2 9.1-1 10-1 10-6.2-1-10.2 3.6c-4.2 4.7-2 10.5-2 10.5s-3.8.7-10.6-1c-7.2-1.7-15.4-2.8-23.5.2-5.8 2.1-12.1 7.2-18 11.1" class="st6"/><path d="M214.6 20.2c2.7-.7 4.4-3.4 3.7-5.9s-3.4-4-6.2-3.2c-2.7.7-4.4 3.4-3.7 5.9s3.4 3.9 6.2 3.2zm-.2 39.6c2.7-.7 4.4-3.4 3.7-5.9s-3.4-4-6.2-3.2c-2.7.7-4.4 3.4-3.7 5.9.8 2.5 3.5 3.9 6.2 3.2zm-39.3-8.3c10.8-1.8 18.6-8.8 17.5-15.6-1.1-6.9-10.8-11-21.6-9.2s-18.6 8.8-17.5 15.6 10.8 11 21.6 9.2z" class="st8"/><path d="M131.4 40.9s-5.1 13.7-8.8 17.9c-3.6 4.2-7.8 7.2-7.8 7.2s7.1 11.6 18 10.8c10.8-.8-1.4-35.9-1.4-35.9z" class="st9"/><path d="M141.6 22.7c4.5-2.9 9.8-4.5 13.9-5.1 18.5-2.6 34.3 4.7 49.5 2.9s22.9-6.6 22.9-6.6 3.4 16.7 2.7 27.6c-1.3 18.6-8.4 32-8.4 32s-7.5 2-14.7 1.2-21.5-7-32.4-5.2c-7.5 1.3-14.3 5.7-20.7 9" class="st7"/><path d="M141.6 22.7c4.5-2.9 9.8-4.5 13.9-5.1 18.5-2.6 34.3 4.7 49.5 2.9s22.9-6.6 22.9-6.6 3.4 16.7 2.7 27.6c-1.3 18.6-8.4 32-8.4 32s-7.5 2-14.7 1.2-21.5-7-32.4-5.2c-7.5 1.3-14.3 5.7-20.7 9" class="st6"/><path d="M143.6 28.9c8.1-4.2 12.9-5 17.4-5.1 15.4-.3 20.8 4.2 32.9 4.1 12.1 0 17.2-1.9 17.2-1.9s-.7 6.8 3.5 9.8c3.7 2.7 9.1 1.2 9.1 1.2s0 4.2-1 9c-.9 4.9-2.3 9.8-2.3 9.8s-6-1.8-10.6 2.2c-4.8 4.1-3.4 10.2-3.4 10.2s-3.8.2-10.4-2.4c-6.9-2.6-14.9-4.7-23.4-2.8-6 1.4-12.9 5.6-19.3 8.6" class="st6"/><path d="M222.2 31.5c2.8-.4 4.8-2.8 4.4-5.3-.3-2.6-2.9-4.4-5.7-4s-4.8 2.8-4.4 5.3c.4 2.6 2.9 4.4 5.7 4zm-5.3 39.2c2.8-.4 4.8-2.8 4.4-5.3-.3-2.6-2.9-4.4-5.7-4s-4.8 2.8-4.4 5.3 2.9 4.4 5.7 4zM179 57.4c10.9-.3 19.6-6.3 19.4-13.2s-9.3-12.3-20.2-12-19.6 6.3-19.4 13.2c.2 7 9.3 12.4 20.2 12z" class="st8"/><path d="M127.3 45.2s-1.8 14.5-4.3 19.4c-2.6 4.9-5.9 8.8-5.9 8.8s9.6 9.6 20 6.3-9.8-34.5-9.8-34.5z" class="st9"/><path d="M234.7 27s1.2 17-1 27.7C230 73 221.1 85.3 221.1 85.3s-7.7 1-14.7-.8c-7.1-1.8-20.4-9.8-31.4-9.4s-21.5 7.5-30.6 8.6c-6.3.8-15.7 1-23.2-3.3 0 0 5.7-6.7 5.5-19.8-.2-13.2-3.3-28.1-3.3-28.1s9-2.4 15.6-4.5c6.7-2.2 14.5-6.6 23.4-6.9 18.7-.6 33.4 9.2 48.7 9.4 15.4.2 23.6-3.5 23.6-3.5z" class="st9"/><path d="M227.3 49.3s-.6 4.1-2.2 8.8-3.5 9.4-3.5 9.4-5.7-2.6-10.8.8c-5.3 3.5-4.7 9.6-4.7 9.6s-3.8-.3-10-3.7c-6.5-3.5-14.1-6.7-22.8-5.9-8.6.8-19.6 6.9-27.9 7.9-8.2 1-13.6.4-13.6.4s1.8-10.8 1.4-17.5-1-12-1-12 4.7.6 7.3-4.1 1.4-8 1.4-8 10.8-8.8 26.1-7.1c15.3 1.8 20 6.9 32 8.4 12 1.6 17.3.4 17.3.4s-1.6 6.7 2.2 10.2c3.3 3.2 8.8 2.4 8.8 2.4z" class="st6"/><path d="M226.7 43.6c2.8 0 5.1-2.1 5.1-4.7s-2.3-4.7-5.1-4.7-5.1 2.1-5.1 4.7 2.2 4.7 5.1 4.7zm-10.4 38.2c2.8 0 5.1-2.1 5.1-4.7s-2.3-4.7-5.1-4.7-5.1 2.1-5.1 4.7 2.2 4.7 5.1 4.7zm-14.9-28.7c.7-6.9-7.6-13.4-18.4-14.5-10.9-1.1-20.3 3.6-21 10.5s7.6 13.4 18.4 14.5c10.9 1.1 20.3-3.6 21-10.5z" class="st8"/><path d="M120.2 39.1s4.1 2.2 7.9 2c7.3-.4 8.2-5.7 12-1.2 3.2 3.9 8.1 12.5 16.1 8.4 7.3-3.7 4.5-10.8 1-11.6-1.6-.4-9.4-3.9-10.6-10.2-1.2-6.5-4.7-8-8.6-8.8s-11.9 2.2-11.9 2.2" class="st10"/><path d="M120.2 39.1s4.1 2.2 7.9 2c7.3-.4 8.2-5.7 12-1.2 3.2 3.9 8.1 12.5 16.1 8.4 7.3-3.7 4.5-10.8 1-11.6-1.6-.4-9.4-3.9-10.6-10.2-1.2-6.5-4.7-8-8.6-8.8s-11.9 2.2-11.9 2.2" class="st11"/><path d="M140.3 84.3s-2.6.9-5.4.7c-3.4-.3-8.2-3.7-7.1-11.1 1.2-7.5 4-11 7.7-9.8 4.3 1.3 1.6 7 1 11.3-.6 5.5 3.8 8.9 3.8 8.9z" class="st0"/><path d="M148.9 84.3s-2.6.9-5.4.7c-3.4-.3-8.2-3.7-7.1-11.1s4-11 7.7-9.8c4.3 1.3 1.6 7 1 11.3-.7 5.5 3.8 8.9 3.8 8.9z" class="st0"/><path d="M157.2 81s-.9 4.3-5.5 4c-3.4-.2-8.2-3.7-7.1-11.1s4-11 7.7-9.8c4.3 1.3 1.6 7 1 11.3-.7 5.5 3.9 5.6 3.9 5.6z" class="st0"/><path d="M359.2 126.4v.8H354V99.1h5.1v27.3zm14.7.6c4.8-1.8 8.4-2 8.4-4.7 0-3.5-16.1-3.9-16.1-3.9s15.9-.4 15.9-4.3-16.1-4.7-16.1-4.7 15.7-.4 15.7-5.5c0-1.9-3.3-3.2-7.1-4.5v-.2H390v28.1h-16.1z" class="st12"/><path d="M382.3 122.3c0 2.7-3.6 2.9-8.4 4.7v.2h-14.7V99.1h15.5v.2c3.8 1.3 7.1 2.6 7.1 4.5 0 5.1-15.7 5.5-15.7 5.5s16.1.8 16.1 4.7-15.9 4.3-15.9 4.3 16 .5 16 4" class="st13"/><path d="M325 127v.2h-10.2v-10h.2c.6 0 10 9.8 10 9.8m10.6-.4v.6H325v-.2l10.6-9.4z" class="st14"/><path d="M335.6 105.2v12.4L325 127s-9.4-9.8-10-9.8h-.2v-11.8h.2l9.8 10.2h.2l10.4-10.4zm-9.5 15.1c0-.6-.5-1.1-1.1-1.1s-1.1.5-1.1 1.1.5 1.1 1.1 1.1 1.1-.5 1.1-1.1" class="st14"/><path d="M335.6 99.5v5.7h-.2L325 115.6h-.2l-9.8-10.2h-.2v-6.3h5.5v.2l4.5 3.7.4.2 4.7-4.1h5.7zm-9.5 8.6c0-.6-.5-1.1-1.1-1.1s-1.1.5-1.1 1.1.5 1.1 1.1 1.1 1.1-.5 1.1-1.1" class="st14"/><path d="m329.9 99.1-4.7 4.1-.4-.2-4.5-3.7v-.2z" class="st14"/><path d="M354 126.2v1h-18.5V99.1H354zm-39.2.6v.4h-6.4s-13.3 12.8-32.2 11.3c-18.1-1.4-20.2-4.4-20.2-4.4s.9-32 2.9-35.7c1.8-3.1 3.5-7.7 9-10.4 5.2-2.6 8.4-2.6 8.4-2.6s-1.4-.8-1.8-2.7c-.4-2-1.2-3.9-1-7.7.2-3.7 1.3-8.2 5.7-12.4 6.7-6.3 12.2-3.5 13.6-1.8 1.3 1.7 2.6 4.2-1.2 8.4-4.9 5.5-3.9 10.5-3.5 12.2.8 3.1 7.7 2.5 14.1 7.7 4.9 3.9 6.5 10 6.5 10h5.9z" class="st15"/><path d="M325 107c.6 0 1.1.5 1.1 1.1s-.5 1.1-1.1 1.1-1.1-.5-1.1-1.1c.1-.6.5-1.1 1.1-1.1m0 14.4c-.6 0-1.1-.5-1.1-1.1s.5-1.1 1.1-1.1 1.1.5 1.1 1.1-.5 1.1-1.1 1.1" class="st16"/><path d="M373.9 127.2H390V99.1h-81.1s-1.6-6.1-6.5-10c-6.4-5.1-13.4-4.5-14.1-7.7-.4-1.6-1.4-6.7 3.5-12.2 3.8-4.3 2.5-6.7 1.2-8.4-1.4-1.8-6.9-4.5-13.6 1.8-4.4 4.1-5.5 8.6-5.7 12.4-.2 3.7.6 5.7 1 7.7s1.8 2.7 1.8 2.7-3.3 0-8.4 2.6c-5.5 2.7-7.3 7.3-9 10.4-2.1 3.7-2.7 37-2.7 37s3.4 2.9 21.5 2.9c24.1 0 30.4-11.1 30.4-11.1zm-59.1-27.5v27.1m20.8-27.3v27.1M354 99.7v26.5m5.2-26.9v27.1m-34.4-10.8-9.8-10.2m10 10.2 10.4-10.4" class="st11"/><path d="M315 117.2c.6 0 10 9.8 10 9.8m10.6-9.4L325 127m-4.7-27.7 4.5 3.7m.4.3 4.7-4.1m-3.8 8.9c0 .6-.5 1.1-1.1 1.1s-1.1-.5-1.1-1.1.5-1.1 1.1-1.1 1.1.5 1.1 1.1zm0 12.2c0 .6-.5 1.1-1.1 1.1s-1.1-.5-1.1-1.1.5-1.1 1.1-1.1 1.1.5 1.1 1.1z" class="st11"/><path d="M374.7 99.3c3.8 1.3 7.1 2.6 7.1 4.5 0 5.1-15.7 5.5-15.7 5.5s16.1.8 16.1 4.7-15.9 4.3-15.9 4.3 16.1.4 16.1 3.9c0 2.7-3.6 2.9-8.4 4.7" class="st17"/><path d="M288.4 60.1s-3.3 2.4-2.9 4.9c.4 2.6 2.2 4.5 4.9 4.1 2.8-.4 4.1-2.2 5.7-3.5s2.2-2.9 2-4.9-2.4-3.9-4.3-3.9-5.4 3.3-5.4 3.3z" class="st18"/><path d="M257.9 122.6c-4.3 2-8.9 4.2-15.7 4.3-13.6.2-20.4-7.1-24.4-2.4-5.6 6.7 4.9 14.5 19.2 14.9s22.5-2.6 22.5-2.6" class="st15"/><path d="M257.9 122.6c-4.3 2-8.9 4.2-15.7 4.3-13.6.2-20.4-7.1-24.4-2.4-5.6 6.7 4.9 14.5 19.2 14.9s22.5-2.6 22.5-2.6" class="st11"/><path d="M216 125.6s6.7 2.4 6.7 4.9c0 2.6-1 5.3-3.3 4.1-2.4-1.2-6.9-3.9-6.1-6.9.8-2.9 2.7-2.1 2.7-2.1z" class="st18"/><path d="M259.4 112.5c-4.2 1.8-11.2 4.2-17.2 4.2-13.6.2-20.4-7.1-24.4-2.4-5.6 6.7 4.9 14.5 19.2 14.9s23.6-3.1 23.6-3.1" class="st15"/><path d="M259.4 112.5c-4.2 1.8-11.2 4.2-17.2 4.2-13.6.2-20.4-7.1-24.4-2.4-5.6 6.7 4.9 14.5 19.2 14.9s23.6-3.1 23.6-3.1" class="st11"/><path d="M216 115.4s6.7 2.4 6.7 4.9-1 5.3-3.3 4.1c-2.4-1.2-6.9-3.9-6.1-6.9.8-2.9 2.7-2.1 2.7-2.1z" class="st18"/><path d="M254.7 114.5s1.8 1.8 2.6 6.5c.7 4.3-.4 6.5-.4 6.5s-3.7 1-7.1 1.4c-.2 0 .6-2-.2-7.1-.7-4.5-2.2-5.7-2.2-5.7z" class="st19"/><path d="M260.2 101.3s-5 5.1-18 5.3c-13.6.2-20.4-7.1-24.4-2.4-5.6 6.7 4.9 14.5 19.2 14.9s23.6-3.1 23.6-3.1" class="st15"/><path d="M260.2 101.3s-5 5.1-18 5.3c-13.6.2-20.4-7.1-24.4-2.4-5.6 6.7 4.9 14.5 19.2 14.9s23.6-3.1 23.6-3.1" class="st11"/><path d="M216 105.3s6.7 2.4 6.7 4.9c0 2.6-1 5.3-3.3 4.1-2.4-1.2-6.9-3.9-6.1-6.9.8-2.9 2.7-2.1 2.7-2.1z" class="st18"/><path d="M266 89.1s-10.9 7.1-23.9 7.3c-13.6.2-20.4-7.1-24.4-2.4-5.6 6.7 4.9 14.5 19.2 14.9s23.6-3.1 23.6-3.1" class="st15"/><path d="M266 89.1s-10.9 7.1-23.9 7.3c-13.6.2-20.4-7.1-24.4-2.4-5.6 6.7 4.9 14.5 19.2 14.9s23.6-3.1 23.6-3.1" class="st11"/><path d="M216 95.1s6.7 2.4 6.7 4.9c0 2.6-1 5.3-3.3 4.1-2.4-1.2-6.9-3.9-6.1-6.9.8-2.9 2.7-2.1 2.7-2.1z" class="st18"/><path d="M202.9 204.4s2.4 6.7 2.6 10.6 1 11.2-1.8 13.7c-2.8 2.6-6.7 2.2-8.6-.8-2-2.9.4-10.2-2.2-18.8-2-6.7 10-4.7 10-4.7z" class="st20"/><path d="M389 181.5v4.8h-64.8v-4.8z" class="st21"/><path d="M389 176.6v5h-64.8v-5z" class="st22"/><path d="M389 176.3v.3h-64.7v-5.2h64.8v4.9z" class="st21"/><path d="M389 166.4v5h-64.8v-5z" class="st22"/><path d="M389 164.2v2.2h-64.7v-5.2h64.8v3z" class="st21"/><path d="M389 156.2v4.9h-64.8v-4.9z" class="st22"/><path d="m324.2 186.2-20.2.1v-30.1h20.2zm-8.3-22.5c0-1.3-1-2.3-2.3-2.3s-2.3 1-2.3 2.3 1 2.3 2.3 2.3 2.3-1 2.3-2.3" class="st23"/><path d="M313.7 161.5c1.2 0 2.3 1 2.3 2.3s-1 2.3-2.3 2.3c-1.2 0-2.3-1-2.3-2.3s1-2.3 2.3-2.3" class="st14"/><path d="M289.4 158.1s-7.7-3.9-15.5 0v-1.9H304v30.1h-14.5v-28.2z" class="st24"/><path d="M293.1 151.3c5.3 0 4.3 4.7 4.3 4.7v.2h-28.5c-1.4 0-2.8-.1-4.1-.2v-.2s-.6-4.5 3.9-4.5z" class="st25"/><path d="M289.4 185.9v.5h-15.5v-1c7.9-3.9 15.5 0 15.5 0z" class="st14"/><path d="M289.4 181.4v3.9s-7.7-3.9-15.5 0v-3.9c7.9-3.9 15.5 0 15.5 0" class="st14"/><path d="M289.4 177.5v3.9s-7.7-3.9-15.5 0v-3.9c7.9-3.9 15.5 0 15.5 0" class="st14"/><path d="M289.4 173.7v3.9s-7.7-3.9-15.5 0v-3.9c7.9-4 15.5 0 15.5 0" class="st14"/><path d="M289.4 169.8v3.9s-7.7-3.9-15.5 0v-3.9c7.9-4 15.5 0 15.5 0" class="st14"/><path d="M289.4 165.9v3.9s-7.7-3.9-15.5 0v-3.9c7.9-4 15.5 0 15.5 0" class="st14"/><path d="M289.4 162v3.9s-7.7-3.9-15.5 0V162c7.9-4 15.5 0 15.5 0" class="st14"/><path d="M289.4 158.1v3.9s-7.7-3.9-15.5 0v-3.9c7.9-3.9 15.5 0 15.5 0" class="st14"/><path d="M273.9 185.3v1h-26.4s-5.2 35.9-22.3 25.6c-17-10.2-12.6-44.2-12.6-44.2l6.5-8.3s1.2-4.7 7.5-4.7c4.5 0 9 2.3 9 2.3s4.7-3.1 11.5-3.1c5.6 0 11.3 1.6 17.6 2.2 1.3.1 2.7.2 4.1.2h5z" class="st24"/><path d="M291.7 186.3h-44.2s-5.2 35.9-22.3 25.6c-17-10.2-12.6-44.2-12.6-44.2l6.6-8.3s1.2-4.7 7.5-4.7c4.5 0 9 2.3 9 2.3s4.7-3.1 11.5-3.1c5.6 0 11.3 1.6 17.6 2.2 1.3.1 2.7.2 4.1.2h120v30.1l-97.2-.1" class="st6"/><path d="M311.4 163.7c0 1.2 1 2.3 2.3 2.3 1.2 0 2.3-1 2.3-2.3s-1-2.3-2.3-2.3c-1.3.1-2.3 1.1-2.3 2.3zm77.8 2.7h-64.4m64.2-5.3h-64.3m-20.8-4.9V186m20.3-30v30.2m-34.8-29.6v29.3m-15.5-29.7v30.3m115.3-9.9h-64.4m64.2-5.3h-64.3m64.3 10.2h-64.3m-50.8-15.6c7.9-3.9 15.5 0 15.5 0m-15.5-3.9c7.9-3.9 15.5 0 15.5 0m-15.5-3.9c7.9-3.9 15.5 0 15.5 0m-15.5 15.6c7.9-3.9 15.5 0 15.5 0m-15.5-3.9c7.9-3.9 15.5 0 15.5 0m-15.5 11.6c7.9-3.9 15.5 0 15.5 0m-15.5-3.9c7.9-3.9 15.5 0 15.5 0m-15.5 7.8c7.9-3.9 15.5 0 15.5 0m-24.5-29.5s-.6-4.5 3.9-4.5h24.4c5.3 0 4.3 4.7 4.3 4.7" class="st6"/><path d="m233.4 169.3-83.3-19.8c-1.7-.4-3.4.7-3.8 2.4l-11 46.5c-.4 1.7.7 3.4 2.4 3.8L221 222c1.7.4 3.4-.6 3.8-2.4l11-46.5c.4-1.6-.7-3.3-2.4-3.8" class="st26"/><path d="m233 169-82.6-19.6c-2-.5-4.1.8-4.6 2.8L135 197.5c-.5 2 .8 4.1 2.8 4.6l82.6 19.6c2 .5 4.1-.8 4.6-2.8l10.8-45.3c.5-2.1-.8-4.1-2.8-4.6" class="st17"/><path d="m160.4 175.4-1.4-.3c-.4-.1-.8.2-.9.5l-.6 2.6c-.1.4.2.8.5.9l1.4.3c.4.1.8-.2.9-.5l.6-2.6c.1-.4-.1-.8-.5-.9m1-4-1.4-.3c-.4-.1-.8.2-.9.5l-.4 1.9c-.1.4.2.8.5.9l1.4.3c.4.1.8-.2.9-.5l.4-1.9c.1-.4-.1-.8-.5-.9m2.4 5.5-1.4-.3c-.4-.1-.8.2-.9.5l-.4 1.9c-.1.4.2.8.5.9l1.4.3c.4.1.8-.1.9-.5l.4-1.9c.2-.4-.1-.8-.5-.9m1-4.7-1.4-.3c-.4-.1-.8.1-.9.5l-.6 2.7c-.1.4.2.8.5.9l1.4.3c.4.1.8-.2.9-.5l.6-2.7c.2-.4-.1-.8-.5-.9m-8 5.9 1.6-6.8c.1-.4-.1-.7-.5-.8l-2.3-.5c-.2 0-.4 0-.6.1l-1 .8c-.1.1-.2.2-.2.4l-1.2 4.9v.4l.4 1c.1.2.2.4.5.4l2.5.6c.4 0 .7-.2.8-.5" class="st27"/><path d="m225.9 173.2-32.3-7.7c-1.7-.4-3.4.6-3.8 2.3l-1.4 5.9c-.4 1.7.6 3.4 2.3 3.7l32.3 7.7c1.7.4 3.4-.6 3.8-2.3l1.4-5.9c.4-1.6-.6-3.3-2.3-3.7" class="st28"/><path d="M241.4 176.1s-4.1 2.2-7.9 2c-7.3-.4-8.2-5.7-12-1.2-3.2 3.9-8.1 12.5-16.1 8.4-7.3-3.7-4.5-10.8-1-11.6 1.6-.4 9.4-3.9 10.6-10.2s4.7-8.1 8.6-8.8c3.9-.8 11.9 2.2 11.9 2.2" class="st24"/><path d="M241.4 176.1s-4.1 2.2-7.9 2c-7.3-.4-8.2-5.7-12-1.2-3.2 3.9-8.1 12.5-16.1 8.4-7.3-3.7-4.5-10.8-1-11.6 1.6-.4 9.4-3.9 10.6-10.2s4.7-8.1 8.6-8.8c3.9-.8 11.9 2.2 11.9 2.2" class="st11"/><path d="M221.3 221.2s2.6.9 5.4.7c3.4-.3 8.2-3.7 7.1-11.1-1.2-7.5-4-11-7.7-9.8-4.3 1.3-1.6 7-1 11.3.6 5.5-3.8 8.9-3.8 8.9z" class="st20"/><path d="M212.7 221.3s2.6.9 5.4.7c3.4-.3 8.2-3.7 7.1-11.1-1.2-7.5-4-11-7.7-9.8-4.3 1.3-1.6 7-1 11.3.7 5.5-3.8 8.9-3.8 8.9z" class="st20"/><path d="M204.4 218s.9 4.3 5.5 4c3.4-.2 8.2-3.7 7.1-11.1-1.2-7.5-4-11-7.7-9.8-4.3 1.3-1.6 7-1 11.3.6 5.5-3.9 5.6-3.9 5.6z" class="st20"/><path d="M142.9 277.9H0v-28.1h139.3s6.9.1 15.3-3.1c8-3 17-4.4 28.7-1.7.7.2 3.7-1.8 4.4-1.8 17.5.5 13.8-1.5 21.4-3.6s19.9 7.6 16.8 11.8-20.4 17.3-22 19.9-20.4 6.8-28.5 6.3-32.5.3-32.5.3z" class="st29"/><path d="M207.5 248.6c2.4-.6 5-1.1 7.6-1.4 15.2-2.2 33.2 1.7 34.1-2.9 1-4.5-3.6-9.5-11.7-9.8-8.1-.2-28.4-2.1-46.3 6.4l-7 4.1" class="st30"/><path d="M207.5 248.6c2.4-.6 5-1.1 7.6-1.4 15.2-2.2 33.2 1.7 34.1-2.9 1-4.5-3.6-9.5-11.7-9.8-8.1-.2-28.4-2.1-46.3 6.4l-7 4.1" class="st11"/><path d="M188.7 264.8s15-8.8 34.6-11.7c15.2-2.2 33.2 1.7 34.1-2.9 1-4.5-3.6-9.5-11.7-9.8-8.1-.2-28.4-2.1-46.3 6.4" class="st30"/><path d="M188.7 264.8s15-8.8 34.6-11.7c15.2-2.2 33.2 1.7 34.1-2.9 1-4.5-3.6-9.5-11.7-9.8-8.1-.2-28.4-2.1-46.3 6.4" class="st11"/><path d="M195.5 270.8s15-8.8 34.6-11.7c15.2-2.2 33.2 1.7 34.1-2.9 1-4.5-3.6-9.5-11.7-9.8-8.1-.2-28.4-2.1-46.3 6.4" class="st30"/><path d="M195.5 270.8s15-8.8 34.6-11.7c15.2-2.2 33.2 1.7 34.1-2.9 1-4.5-3.6-9.5-11.7-9.8-8.1-.2-28.4-2.1-46.3 6.4" class="st11"/><path d="m214.2 267.2-2.5 12.2 3.8 3.4 9.7-3.1 1.1-5-9.9-8.3z" class="st31"/><path d="m216.2 277.2-1.9-10" class="st11"/><path d="m220.6 281.2.9-5.1-5.1-9.7" class="st32"/><path d="m220.6 281.2.9-5.1-5.1-9.7m3.4 15.2-3.1-3.5m9.6-3.4-14.6 4.6" class="st11"/><path d="M198.9 276.9s15-8.8 34.6-11.7c15.2-2.2 33.2 1.7 34.1-2.9 1-4.5-3.6-9.5-11.7-9.8-8.1-.2-28.4-2.1-46.3 6.4" class="st30"/><path d="M198.9 276.9s15-8.8 34.6-11.7c15.2-2.2 33.2 1.7 34.1-2.9 1-4.5-3.6-9.5-11.7-9.8-8.1-.2-28.4-2.1-46.3 6.4" class="st11"/><path d="M218.2 255.6c-2.5 5.9 2.7 12.2 2.7 12.2l-8.6 3s-5-4.6-3-12c.3-.5 8.9-3.2 8.9-3.2z" class="st19"/><path d="M176 263.7s8.8 1.9 13.1 1c4.3-1 11.1-9.5 17.4-12.9 7.2-3.8 12.4-2.4 16.5-.5s5.5 6 4.1 7.6c-2.2 2.6-8.2 2.7-11.5 4.8-7.9 5-10.5 14.3-15.5 16.2s-17.4-2.4-24.8-2.4" class="st30"/><path d="M176 263.7s8.8 1.9 13.1 1c4.3-1 11.1-9.5 17.4-12.9 7.2-3.8 12.4-2.4 16.5-.5s5.5 6 4.1 7.6c-2.2 2.6-8.2 2.7-11.5 4.8-7.9 5-10.5 14.3-15.5 16.2s-17.4-2.4-24.8-2.4" class="st11"/><path d="M69.3 143.5c3.7 0 6.8-3 6.8-6.8s-3-6.8-6.8-6.8c-3.7 0-6.8 3-6.8 6.8s3.1 6.8 6.8 6.8z" class="st33"/><path d="M71.2 135.2c.4-.5 1.2-.7 1.8-.5.7.2 1.1.7 1.5 1.2.5.7.4 1.8-.1 2.5-.2.3-.3.5-.6.6-.4.2-1.2.4-1.7.3-.6-.1-1.2-.6-1.4-1.2" class="st27"/><path d="M71.2 135.2c.4-.5 1.2-.7 1.8-.5.7.2 1.1.7 1.5 1.2.5.7.4 1.8-.1 2.5-.2.3-.3.5-.6.6-.4.2-1.2.4-1.7.3-.6-.1-1.2-.6-1.4-1.2" class="st11"/><path d="M63.1 136.5c3.7 0 6.8-3 6.8-6.8s-3-6.8-6.8-6.8c-3.7 0-6.8 3-6.8 6.8s3 6.8 6.8 6.8z" class="st33"/><path d="M64.9 128.2c.4-.5 1.2-.7 1.8-.5.7.2 1.1.7 1.5 1.2.5.7.4 1.8-.1 2.5-.2.3-.3.5-.6.6-.4.2-1.2.4-1.7.3-.6-.1-1.2-.6-1.4-1.2" class="st27"/><path d="M64.9 128.2c.4-.5 1.2-.7 1.8-.5.7.2 1.1.7 1.5 1.2.5.7.4 1.8-.1 2.5-.2.3-.3.5-.6.6-.4.2-1.2.4-1.7.3-.6-.1-1.2-.6-1.4-1.2" class="st11"/><path d="M28.1 172.9c0-1.8 1.2-3.2 2.8-3.6.2.7.5 1.5.9 2.3v.1c.4 1 .9 2 1.4 3v.1c.2.4.4.9.7 1.3q-.9.6-2.1.6c-2-.1-3.7-1.7-3.7-3.8" class="st34"/><path d="M31.8 171.6c.4.9.9 2 1.4 3-.5-.9-1-1.9-1.4-3" class="st35"/><path d="M36.3 179.6c-1.1-1.5-2.1-3.1-3.1-4.9v-.1c-.5-1-1-2-1.4-3v-.1c-.7-1.6-1.2-3.3-1.6-5.2h.1c3 .5 6.2.5 9.2.1l.4 2.7c-1.7.3-3 1.9-3 3.7 0 2.1 1.7 3.7 3.7 3.7h.4l.4 2.6q-2.25.45-4.8.3z" class="st36"/><path d="M44.1 171.6c.1.4.2.7.2 1.1 0 1.9-1.5 3.5-3.4 3.7h-.4c-2.1 0-3.7-1.7-3.7-3.7 0-1.8 1.3-3.3 3-3.7.2-.1.5-.1.8-.1 1.6.1 3.1 1.2 3.5 2.7" class="st34"/><path d="m52.8 183.9 1.2-1.2.5-.1c1 1.5 2.1 3 3.1 4.6l-.2.1c-1.6 1.3-3 2.2-4.9 3l-.3.2c-.8-1.6-1.8-3.1-2.8-4.5 1.3-.6 2.4-1.3 3.4-2.1" class="st37"/><path d="m42.8 183.6 5.7 2.2.2.5c-1.9.7-3.9 1.2-6.1 1.2-2-2.5-4.3-5.1-6.3-7.9l.2-.2q2.55 0 4.8-.3c.6-.1 1.3-.2 1.9-.4l.2.7z" class="st14"/><path d="M47.6 272.3c3.7 2.7 8.3 4.1 12.4 4.7-2.5.2-5.1.1-7.5-.5-2.4-.5-4.7-1.5-6.8-2.7.7-.5 1.3-1 1.9-1.5" class="st38"/><path d="M49.8 175.7c1.4 2.3 3.1 4.5 4.7 6.9l-.5.1-1.2 1.2-.4-.4-5.3-2.2 1-4.5-.1-.2c.4-.2.8-.5 1.1-.8z" class="st14"/><path d="M45.5 164.7c-1.9.9-4 1.4-6.1 1.8-3 .4-6.2.4-9.2-.1h-.1c-1-4.3-1.2-9.4-.3-15.7 1.4-9.8 11.6-20.2 22.6-20.2s15.5 11.4 20.2 12.8c4.2 1.2 6.8-1.3 7.4-1.9 0 .3.4 7-4.8 10.8-1.1.8-2.3 1.4-3.9 1.9-5.9 3.3-25.5-3.9-25.5 9 0 .5 0 1.1.1 1.6z" class="st22"/><path d="M55.5 212c2.3.5 4.2.7 6.5.5l.2.1c-1 3-2.6 5.9-4.6 8.8l-.2-.2c-2.1-.4-4.1-1-6-2 1.6-2.4 2.9-4.9 3.9-7.4z" class="st37"/><path d="M39.4 166.4c2.2-.3 4.3-.9 6.1-1.8h.3c.2 2.3.7 4.3 1.5 6.3l-3.3.7c-.5-1.5-1.9-2.6-3.6-2.6-.3 0-.5 0-.8.1z" class="st36"/><path d="M42 264.9c1.2 3.2 3.2 5.6 5.6 7.4l-1.8 1.5c-3-1.8-5.7-4.3-7.5-7.3q1.95-.45 3.6-1.5z" class="st37"/><path d="M39.9 236.3q-2.55 4.35-3.9 9.3c-.7 2.5-1 5-1 7.7 0 1 0 2.1.1 3.2.2 2 .5 4.1 1.2 6 .5 1.4 1.2 2.8 2 4 1.9 3 4.5 5.5 7.5 7.3 2.1 1.3 4.4 2.2 6.8 2.7 2.5.6 5 .7 7.5.5 3.5.6 6.8.7 8.9.7-.2 2-5.7 8.6-16.1 8.6-16.9 0-27.1-11.6-26.7-34.5.3-20.2 23.4-34.7 23.4-48.1 0-6.8-3.1-11.5-6.9-16.2 2.1-.1 4.2-.5 6.1-1.2.3-.1.5-.2.7-.3 1 1.4 1.9 2.9 2.8 4.5 1.1 2 2 4.1 2.7 6.1.4 1.1.8 2.2 1.1 3.2.4 1.5.7 3 .7 4.4.1 2.6-.5 5.2-1.5 7.7s-2.3 4.9-3.9 7.4c-1.8 2.9-4 5.8-6 8.7-2 2.7-3.9 5.4-5.5 8.3" class="st22"/><path d="M49.1 175.8c-.4.3-.7.5-1.1.8q-2.1 1.35-4.8 2.1c-.6.2-1.2.3-1.9.4l-.4-2.6c1.9-.2 3.4-1.8 3.4-3.7 0-.4-.1-.8-.2-1.1l3.3-.7c.7 1.6 1.5 3.2 2.4 4.7z" class="st36"/><path d="M63.1 202.7c.1 1.2.2 2.4.2 3.8 0 2.1-.4 4.2-1.1 6.2l-.2-.1c-2.4.2-4.2 0-6.5-.5l-.3-.1c1-2.5 1.5-5.1 1.5-7.7h.2c2.1-.2 3.9-.6 5.9-1.5z" class="st38"/><path d="M63.1 202.7h-.3c-2 .8-3.8 1.2-5.9 1.5h-.2c0-1.4-.3-2.9-.7-4.4-.3-1-.7-2.1-1.1-3.2l.4-.2c2.1-.7 3.7-1.4 5.5-2.7 1.1 2.6 1.9 5.6 2.3 9" class="st37"/><path d="M60.9 193.7c-1.9 1.3-3.4 2-5.5 2.7l-.4.2c-.7-2-1.7-4.1-2.7-6.1l.3-.2c1.9-.9 3.3-1.7 4.9-3l.2-.1c1.1 2 2.3 4.1 3.2 6.5m-3.5 27.5.2.2c-2.1 3.1-4.4 6.2-6.7 9.6-2.1-.7-3.9-1.6-5.6-2.9 2.1-3 4.2-5.9 6-8.7 1.9.8 4 1.4 6.1 1.8" class="st38"/><path d="M49.4 186c-.2.1-.5.2-.7.3l-.2-.5-5.7-2.2.6-4.3-.2-.7q2.55-.75 4.8-2.1l.1.2-1 4.5 5.3 2.2.4.4c-1 .9-2.1 1.6-3.4 2.2" class="st14"/><path d="M50.9 170.4c0 1.4-.8 2.6-1.9 3.2-.6.3-2.3-4.9-2.8-6.6-.1-.5.4-.4.9-.4 2.1 0 3.8 1.7 3.8 3.8" class="st34"/><path d="M45.3 228c1.7 1.4 3.5 2.2 5.6 2.9-1.9 2.7-3.7 5.5-5.3 8.5l-.8-.3c-2.1-.7-3.3-1.5-5-2.9 1.7-2.8 3.6-5.5 5.5-8.2" class="st37"/><path d="m44.9 239.2.8.3c-1.2 2.4-2.3 5-3.1 7.7l-.2-.1q-3.3-.15-6.3-1.5c.9-3.3 2.3-6.3 3.9-9.3 1.6 1.4 2.8 2.2 4.9 2.9" class="st38"/><path d="m42.2 247.1.2.1c-.8 2.7-1.4 5.7-1.5 8.8h-.3c-1.9.6-3.4.6-5.4.5H35c-.1-1.1-.1-2.1-.1-3.2 0-2.7.3-5.2 1-7.7 2 .9 4.2 1.4 6.3 1.5" class="st37"/><path d="m42 264.9-.2.1c-1.1.7-2.3 1.1-3.6 1.5-.8-1.3-1.5-2.6-2-4-.7-1.9-1-3.9-1.2-6h.2c2 .1 3.4 0 5.4-.5h.3c0 .7-.1 1.4-.1 2.1.1 2.6.5 4.9 1.2 6.8" class="st38"/><path d="M50.9 170.4c0 1.4-.8 2.6-1.9 3.2-.6.3-2.3-4.9-2.8-6.6-.1-.5.4-.4.9-.4 2.1 0 3.8 1.7 3.8 3.8zm-17.7 4.3c.2.4.4.9.7 1.3q-.9.6-2.1.6c-2.1 0-3.7-1.7-3.7-3.7 0-1.8 1.2-3.2 2.8-3.6.2.7.5 1.5.9 2.3" class="st11"/><path d="m80.1 141.2-.1.1c-.5.6-3.2 3.1-7.4 1.9-4.7-1.4-9.2-12.8-20.2-12.8s-21.2 10.4-22.6 20.2c-.9 6.3-.6 11.4.3 15.7.4 1.9 1 3.6 1.6 5.2v.1c.4 1 .9 2 1.4 3v.1c.9 1.8 2 3.4 3.1 4.9 2 2.8 4.3 5.4 6.3 7.9 3.8 4.7 6.9 9.4 6.9 16.2 0 13.4-21.6 27.9-23.4 48.1-1.6 18.3 9.8 34.5 26.7 34.5 9.8 0 15.9-6.5 16.1-8.4-2.1 0-5.3-.3-8.9-.8-4.2-.7-8.8-2-12.4-4.7-2.4-1.8-4.4-4.2-5.6-7.4-.7-2-1.1-4.3-1.1-6.9 0-.7 0-1.4.1-2.1.2-3.1.7-6.1 1.5-8.8s1.9-5.3 3.1-7.7c1.6-3 3.4-5.9 5.3-8.5 2.3-3.3 4.7-6.5 6.7-9.6 1.9-2.9 3.6-5.8 4.6-8.8.7-2 1.1-4 1.1-6.2 0-1.3-.1-2.6-.2-3.8-.3-3.3-1.1-6.3-2.2-9-.9-2.4-2.1-4.5-3.3-6.5-1-1.6-2-3.1-3.1-4.6-1.6-2.3-3.3-4.6-4.7-6.9-.9-1.5-1.8-3.1-2.4-4.7-.8-2-1.4-4-1.5-6.3 0-.5-.1-1.1-.1-1.6 0-13 19.6-5.7 25.5-9 1.6-.5 2.9-1.1 3.9-1.9 5.2-3.8 4.8-10.4 4.8-10.8v0" class="st11"/><path d="M30.2 166.4c3 .5 6.2.5 9.2.1 2.2-.3 4.3-.9 6.1-1.8m-9 14.7q2.55 0 4.8-.3c.6-.1 1.3-.2 1.9-.4q2.55-.75 4.8-2.1c.4-.2.8-.5 1.1-.8m-6.5 11.7h0c2.2-.1 4.2-.5 6.1-1.2.3-.1.5-.2.7-.3 1.2-.6 2.4-1.3 3.4-2.1l1.2-1.2m10.8-33.4c1.6 2.7 7.7 4.3 10.3 2.7 0 0 .1 0 .1.1 2.2 1.2 2.6 4.4 2.8 6.4.4 3.7-3.2 7.1-5.1 10.2-1.5 2.5-2.3 5.7-1.1 8.3 1.3 2.6 4.5 2.7 6.7 4.1 1.4.9 2.6 2.5 2.7 4.1.1 1.5-.5 2.6-1.4 3.2s-2.1.7-3.1.3c-.3-.1-.7-.5-.9-.7-.4-.5-.4-1.4-.1-1.9.4-.5 1.1-.8 1.7-.6" class="st11"/><path d="M74.7 179.4c4.4 1.4 6.1-1.9 6.3-3.2.2-1.2-.6-2.6-1.8-2.9s-2.6.6-2.7 1.8m-32.4-3.5c.1.4.2.7.2 1.1 0 1.9-1.5 3.5-3.4 3.7h-.4c-2.1 0-3.7-1.7-3.7-3.7 0-1.8 1.3-3.3 3-3.7.2-.1.5-.1.8-.1 1.6.1 3 1.2 3.5 2.7zm5.3 14.4q0 0 0 0c1 1.4 1.9 2.9 2.8 4.5 1.1 2 2 4.1 2.7 6.1.4 1.1.8 2.2 1.1 3.2.4 1.5.7 3 .7 4.4.1 2.6-.5 5.2-1.5 7.7s-2.3 4.9-3.9 7.4c-1.8 2.9-4 5.8-6 8.7-1.9 2.7-3.8 5.5-5.4 8.4q-2.55 4.35-3.9 9.3c-.7 2.5-1 5-1 7.7 0 1 0 2.1.1 3.2.2 2 .5 4.1 1.2 6 .5 1.4 1.2 2.8 2 4 1.9 3 4.5 5.5 7.5 7.3 2.1 1.3 4.4 2.2 6.8 2.7 2.5.6 5 .7 7.5.5h.2m-7.8-86.8c1.9-.9 3.3-1.7 4.9-3m-2.1 9.1c2.1-.7 3.7-1.4 5.5-2.7m-3.9 10.4c2.1-.2 3.9-.6 5.9-1.5" class="st11"/><path d="M55.5 212c2.3.5 4.2.7 6.5.5m-10.7 6.7q0 0 0 0c1.9.9 4 1.6 6.1 2m-12.2 6.7s.1.1 0 0c1.7 1.4 3.5 2.3 5.6 3q0 0 0 0m-11 5.4s.1 0 0 0c1.7 1.4 2.9 2.2 5 2.9m-8.9 6.4s.1 0 0 0q3 1.35 6.3 1.5m-6.9 9.4c2 .1 3.4 0 5.4-.5m-2.5 10.5q1.95-.45 3.6-1.5m5.8 7.3-1.8 1.5m2.3-97-1 4.5 5.3 2.2m-9-4.2-.6 4.3 5.7 2.2" class="st11"/><path d="M58.8 146c3.7 0 6.8-3 6.8-6.8s-3-6.8-6.8-6.8c-3.7 0-6.8 3-6.8 6.8s3.1 6.8 6.8 6.8z" class="st33"/><path d="M60.7 137.6c.4-.5 1.2-.7 1.8-.5.7.2 1.1.7 1.5 1.2.5.7.4 1.8-.1 2.5-.2.3-.3.5-.6.6-.4.2-1.2.4-1.7.3-.6-.1-1.2-.6-1.4-1.2" class="st27"/><path d="M60.7 137.6c.4-.5 1.2-.7 1.8-.5.7.2 1.1.7 1.5 1.2.5.7.4 1.8-.1 2.5-.2.3-.3.5-.6.6-.4.2-1.2.4-1.7.3-.6-.1-1.2-.6-1.4-1.2" class="st11"/><path d="M122.5 246.5c-.1.1-.2.1-.3.2-.4.2-.8.5-1.1.8-3.5 2.6-6.3 4.6-9.1 6.8-1.5 1.2-3 2.3-4.6 3.6-1.3 1.1-2.7 1.9-4.2 2.6-3.5 1.5-7.2 1.8-10.7 1-.9-.2-1.8-.5-2.6-.8-2.6-1-4.6-2.9-6.6-4.9-1-1.1-2.1-2.2-3.1-3.2-1.9-1.9-4-3.6-6.2-5.2-.2-.2-.5-.3-.7-.5-2-1.2-4.2-2.1-6.5-2.2-1.6-.1-3 .2-4.4.8-.6.3-1.2.6-1.8 1-1.6 1-2 1.6-3.3 3v.4h-6.5s4.3-11.6 18.5-11.2c14.1.4 15.7 16.3 27.5 16.1s16.1-15.8 33.6-16.3c14.9-.4 21.4 9 21.4 9s-5.1 2.3-7.5 2.2v-.2c-.9-1.6-3.2-3.4-4.8-4.3-1.1-.6-2.8-1.1-4.5-1.4-1.2-.2-2.3-.3-3.2-.2-3.1 0-6.5 1.2-9.3 2.9" class="st22"/><path d="M73.3 246.8c-1.1 1.8-1.8 3.8-2 5.8l-.1.2c-2.2-1.7-4.4-2.9-7-2.9H63v-.2c0-.9-.4-.6-.5-2.3 0-.6-.1-1.2 0-1.7l-.1-.2c1.4-.6 2.9-.9 4.4-.8 2.4-.1 4.6.8 6.5 2.1m19.3 14.5-.1.3c-.4 1-.5 1.6-.6 2.7-.1 1.3-.1 2.7.3 4-5-1.1-8.9-3.9-12.2-7l.1-.1c.5-2 1.6-3.9 3.1-5.4l.2-.2c1.9 2 4 3.8 6.6 4.9.8.3 1.7.6 2.6.8m23.5-1.9.2.5c-2.9 2.7-6.1 5.3-10 7v-.1c-1.6-1.7-2.7-3.9-3-6.3l-.1-.2c1.5-.6 2.9-1.5 4.2-2.6 1.6-1.3 3.1-2.5 4.6-3.6l.1.2q.6 1.65 1.8 3c.7.8 1.4 1.4 2.2 2.1m18.9-15.7-.1.4c-.8 2.1-.9 3.1-.5 5.4v.4h-3.6c-2.1 0-4 .9-6 2.2l-.1-.2c-1.4-1.9-2-3.3-2.2-5.5 2.8-1.7 6.2-2.8 9.3-3 .9.1 2.1.2 3.2.3" class="st38"/><path d="M144.3 249.4v.2h-.1c-2-.2-3.2.2-9.8.4v-.4c-.4-2.3-.3-3.2.5-5.4l.1-.4c1.7.3 3.4.7 4.5 1.4 1.6.8 3.9 2.6 4.8 4.2m-19.6 2.6.1.2c-2.7 1.9-5.4 4.8-8.5 7.7l-.2-.5c-.8-.6-1.6-1.2-2.2-2-.8-.9-1.3-1.9-1.8-3l-.1-.2c2.8-2.1 5.6-4.2 9.1-6.8.4-.3.7-.5 1.1-.8.1-.1.2-.1.3-.2.2 2.4.9 3.8 2.2 5.6m-18.4 14.8c-2.7 1.3-5.8 2.1-9.3 2.1-1.7 0-3.3-.2-4.8-.5-.3-1.3-.4-2.6-.3-4 .1-1.1.2-1.7.6-2.7l.1-.3c3.4.8 7.2.5 10.7-1l.1.2c.2 2.2 1.3 4.5 2.9 6.2m-22.9-11.2-.2.2c-1.5 1.5-2.6 3.4-3.1 5.4l-.1.1c-3.2-3-5.9-6.3-8.8-8.5l.1-.2c.2-2 .9-4 2-5.8.2.2.5.3.7.5 2.2 1.5 4.3 3.3 6.2 5.2 1.1.9 2.1 2 3.2 3.1m-20.3-5.9v.2h-5.7v-.4c1.2-1.5 1.6-2 3.3-3 .6-.4 1.2-.7 1.8-1l.1.2v1.7c.1 1.7.5 1.3.5 2.3" class="st37"/><path d="M57.4 249.8h-6.5s4.3-11.6 18.5-11.2c14.1.4 15.7 16.3 27.5 16.1s16.1-15.8 33.6-16.3c14.9-.4 21.4 9 21.4 9s-5.1 2.3-7.5 2.2h-.1c-2-.2-3.2.2-9.8.4h-3.6c-2.1 0-4 .9-6 2.2-2.7 1.9-5.4 4.8-8.5 7.7-2.9 2.7-6.1 5.3-10 7-2.7 1.2-5.8 2-9.3 2-1.7 0-3.3-.2-4.8-.5-5-1.1-8.9-3.9-12.2-7-3.2-3-5.9-6.3-8.8-8.5-2.2-1.7-4.4-2.9-7-2.9h-1.2c-2.3-.1-4.2-.1-5.7-.2z" class="st11"/><path d="M57.4 249.4c1.2-1.5 1.6-2 3.3-3 .6-.4 1.2-.7 1.8-1 1.4-.6 2.9-.9 4.4-.8 2.3.1 4.5.9 6.5 2.2.2.2.5.3.7.5 2.2 1.5 4.3 3.3 6.2 5.2 1 1 2.1 2.1 3.1 3.2 1.9 2 4 3.8 6.6 4.9.8.3 1.7.6 2.6.8 3.4.8 7.2.5 10.7-1 1.5-.6 2.9-1.5 4.2-2.6 1.6-1.3 3.1-2.5 4.6-3.6 2.8-2.1 5.6-4.2 9.1-6.8.4-.3.7-.5 1.1-.8.1-.1.2-.1.3-.2 2.8-1.7 6.2-2.8 9.3-3 .9 0 2.1 0 3.2.2 1.7.3 3.4.7 4.5 1.4 1.6.9 3.9 2.7 4.8 4.3" class="st11"/><path d="M62.5 245.6v1.7c.1 1.7.5 1.4.5 2.3m10.3-2.8c-1.1 1.7-1.8 3.7-2 5.8m11.9 3.2c-1.5 1.5-2.6 3.4-3.1 5.4m12.4.4c-.4 1-.5 1.6-.6 2.7-.1 1.3-.1 2.7.3 4m11.1-7.8c.3 2.3 1.4 4.5 3 6.3m5.9-12.5c.4 1.1 1 2.1 1.8 3.1.6.8 1.4 1.4 2.2 2m6.3-12.9c.3 2.3.9 3.7 2.2 5.6m10.2-7.9c-.8 2.1-.9 3.1-.5 5.4" class="st11"/><path d="M159.4 290.5v2.6c0 2.4-.4 5-1.1 7.4-.9 2.8-2.3 5.4-4.4 7.1-3.1 2.6-7.1 3.5-11.1 3.4 3.4-.2 6.6-2.6 8.3-5.6.2-.4.4-.7.6-1.1 1.6-3.1 2.3-6.6 2.4-10v-.5c0-5.4.1-6.7.1-9 0-1.5 0-3.3-.1-6.9v-.2c2.6-.1 5.1-.1 5.1-.1.1 6.5.2 7.6.2 12.9" class="st22"/><path d="M187.4 295.9c.1 2.8-1.3 5.5-3.3 7.4q-1.65 1.65-3.6 2.7l-.1-.2c.1-.4-.1-1.4-.8-2l-.1-.2c1-.4 1.9-.9 2.8-1.5 2.4-1.8 4-3.4 5.1-6.2" class="st38"/><path d="m180.4 305.8.1.2c-1 .5-2.1 1-3.2 1.3-1 .2-2.1.4-3.3.5v-.1c.4-.7.7-1.7.3-3v-.2c1.8.2 3.6-.1 5.3-.8l.1.2c.6.5.8 1.5.7 1.9" class="st37"/><path d="M174.2 304.6c.4 1.3.1 2.4-.3 3v.1h-2.4c-2-.1-3.9-.7-5.7-1.5l.1-.1c1.4-.5 2.3-2.6 2.4-4.1 1.4 1.1 3.1 1.9 4.9 2.3.3.1.7.1 1 .2z" class="st38"/><path d="M168.3 301.9c0 1.6-.9 3.6-2.4 4.1l-.1.1c-2.2-1-4.2-2.5-6-4.1l.2-.2c1.6-.6 3.3-1.8 4.1-4.1l.2-.1c1.2 1.7 2.5 3.2 4 4.3" class="st37"/><path d="m164.3 297.7-.2.1c-.8 2.2-2.5 3.5-4.1 4.1l-.2.2c-.1-.1-.3-.2-.4-.4-.4-.4-.8-.7-1.2-1.1h-.1c.8-2.4 1.1-5.1 1.1-7.4v-2.6h.3c.8 1.3 1.6 2.7 2.4 4 .9 1 1.6 2.1 2.4 3.1" class="st38"/><path d="M154.2 277.8c.1 3.6.1 5.5.1 6.9h-.1c-1.8.7-3.8.4-5.1-.6h-.2c0-.9 0-1.7-.1-2.5 0-1.2-.1-2.4-.1-3.8l5.4-.2z" class="st37"/><path d="M154.2 284.7c0 2.3 0 3.6-.1 9v.5h-.1c-2.2.4-3.7.3-5-1.2 0-.9-.1-1.7-.1-2.6V284h.2c1.3 1.1 3.3 1.4 5.1.7" class="st38"/><path d="M154.1 294.3c0 3.5-.7 7-2.3 10l-.2-.1c-2-.5-3.9-3-4.2-4.9.8-.9 1.4-2.2 1.6-3.7.1-.8.1-1.7.1-2.5 1.2 1.5 2.8 1.6 5 1.2" class="st37"/><path d="m151.6 304.2.2.1c-.2.4-.4.8-.6 1.1-1.8 3-4.9 5.4-8.3 5.6h-.3v-.1c-1.7-2.6-2.2-6.5.3-9.7v-.2c1.9.1 3.5-.5 4.6-1.7.1 1.9 2.1 4.4 4.1 4.9" class="st38"/><path d="M148.9 284.1c0 1.7.1 3.5 0 6v.3c-1.1-.9-1.8-1.2-3.1-1.6-.3-.1-.7-.2-1.1-.2v-.2c1.6-2.2 1.3-5.5-.5-7.6.7 0 1.3.1 2 .2 1 .1 1.6.4 2.6.6h.1z" class="st37"/><path d="M144.2 280.8c1.8 2.1 2.1 5.4.5 7.6v.2c-1.2-.1-2.6 0-3.7.3-.7.2-1.4.5-1.9.9.7-3.5-2.7-5.9-5.3-6.3l-.2-.3c3.3-1.8 7-2.5 10.6-2.4" class="st38"/><path d="M142.8 301v.2c-2.5 3.1-2 7.1-.3 9.7v.1c-.4 0-.9 0-1.3-.1-3.7-.3-7.3-1.8-10-4.4l-.7-.7.6-.2c.1-3.1 2.2-5.9 6.2-6.9l.3-.3c.7 1.1 1.7 1.9 3.1 2.3.7.2 1.5.3 2.1.3m-8.9-17.4c2.6.4 6 2.8 5.3 6.3-1.2.8-2 2-2.4 3.5l-.5-.1c-.9-.5-2-1.2-3.4-1.2-3.1 0-4.6 1-6 3.8v-1.2c.1-4.4 2.8-8.8 6.5-11.2.1-.1.2-.1.3-.2z" class="st37"/><path d="m137.6 298.4-.3.3c-3.9 1-6 3.8-6.2 6.9l-.6.2c-1.5-1.7-2.6-3.7-3.2-5.8-.4-1.4-.5-2.8-.5-4.2 1.4-2.7 2.9-3.7 6-3.8 1.5 0 2.5.7 3.4 1.2l.5.1c-.1.2-.1.4-.1.7-.2 1.5.2 3.1 1 4.4" class="st38"/><path d="M158.4 300.6c.4.4.8.8 1.2 1.1.1.1.3.2.4.4 1.8 1.6 3.8 3.1 6 4.1 1.8.8 3.7 1.4 5.7 1.5h2.4c1.1-.1 2.3-.2 3.3-.5 1.2-.3 2.2-.7 3.2-1.3q1.95-1.05 3.6-2.7c2-1.9 3.4-4.6 3.3-7.4m-38.5-5.3c0 .9.1 1.7.1 2.6 0 .8 0 1.7-.1 2.5-.2 1.6-.7 2.8-1.6 3.7-1.1 1.2-2.7 1.8-4.6 1.7q-1.05 0-2.1-.3c-1.4-.4-2.4-1.2-3.1-2.3-.9-1.3-1.2-3-1-4.4 0-.2.1-.4.1-.7.4-1.5 1.2-2.7 2.4-3.5.6-.4 1.2-.7 1.9-.9 1.1-.3 2.4-.5 3.7-.3.4 0 .7.1 1.1.2 1.3.4 2.1.6 3.1 1.6" class="st11"/><path d="M159.7 290.5c.8 1.3 1.6 2.7 2.4 4 .7 1.1 1.4 2.2 2.2 3.2 1.2 1.6 2.5 3.1 4 4.2 1.4 1.1 3.1 1.9 4.9 2.3.3.1.7.1 1 .2 1.8.2 3.6-.1 5.3-.8 1-.4 1.9-.9 2.8-1.5 2.5-1.8 4.1-3.4 5.1-6.3 0-.1.1-.2.1-.4m-28.1-4.9h0v2.6c0 2.4-.4 5-1.1 7.4-.9 2.8-2.3 5.4-4.4 7.1-3.1 2.6-7.1 3.5-11.1 3.4h-.3c-.4 0-.9 0-1.3-.1-3.7-.3-7.3-1.8-10-4.4l-.7-.7c-1.5-1.7-2.6-3.7-3.2-5.8-.4-1.4-.5-2.8-.5-4.2v-1.2c.1-4.4 2.8-8.8 6.5-11.2.1-.1.2-.1.3-.2 3.1-1.9 6.9-2.6 10.5-2.4.7 0 1.3.1 2 .2 1 .1 1.6.4 2.6.6" class="st11"/><path d="M159.4 290.5c0-5.3-.2-6.4-.1-13 0 0-2.5 0-5.1.1-2.7.1-5.4.1-5.4.2 0 1.4 0 2.6.1 3.8 0 .8 0 1.6.1 2.5 0 1.7.1 3.5 0 6v.4" class="st11"/><path d="M154.2 277.8c.1 3.6.1 5.5.1 6.9 0 2.3-.1 3.6-.1 9v.5c-.1 3.5-.8 7-2.4 10-.2.4-.4.8-.6 1.1-1.8 3-4.9 5.4-8.3 5.6-.6 0-1.1 0-1.7-.1" class="st11"/><path d="M142.8 301.2c-2.5 3.1-2 7.1-.3 9.7m-5.2-12.2c-3.9 1-6 3.8-6.2 6.9m-4.3-9.7c1.4-2.7 2.9-3.7 6-3.8 1.5 0 2.5.7 3.4 1.2m-2.3-9.7c2.6.4 6 2.8 5.3 6.3v.1m5-9.2c1.8 2.1 2.1 5.4.5 7.6m2.7 10.9c.2 1.9 2.2 4.4 4.2 4.9M149 293l.1.1c1.3 1.5 2.8 1.6 5 1.2m-5-10.2c1.3 1 3.3 1.3 5.1.6m9.9 13.1c-.8 2.2-2.5 3.5-4.1 4.1m8.3 0h0c0 1.6-.9 3.7-2.4 4.2m8.3-1.5c.4 1.3.1 2.4-.3 3m5.7-3.8c.6.5.9 1.6.8 2" class="st11"/></svg>