<?xml version="1.0" encoding="UTF-8"?>
<svg id="Layer_1" xmlns="http://www.w3.org/2000/svg" xmlns:xlink="http://www.w3.org/1999/xlink" version="1.1" viewBox="0 0 230 240">
  <!-- Generator: Adobe Illustrator 30.5.1, SVG Export Plug-In . SVG Version: 2.1.4 Build 3)  -->
  <defs>
    <style>
      .st0, .st1, .st2, .st3 {
        fill: none;
      }

      .st4 {
        fill: #0676de;
      }

      .st5 {
        fill: #5ab0ff;
      }

      .st6 {
        fill: #fffaf0;
      }

      .st7 {
        fill: #0164bf;
      }

      .st1 {
        stroke: #5ab0ff;
      }

      .st1, .st2, .st3 {
        stroke-linecap: round;
        stroke-linejoin: round;
      }

      .st8 {
        fill: #8dc8ff;
      }

      .st9 {
        fill: #002140;
      }

      .st10 {
        fill: #003c73;
      }

      .st2 {
        stroke: #002140;
      }

      .st11 {
        fill: #e5fafe;
      }

      .st12 {
        fill: #fed607;
      }

      .st3 {
        stroke: #fcdcff;
      }

      .st13 {
        fill: #e4bc07;
      }

      .st14 {
        fill: #f68dfe;
      }

      .st15 {
        fill: #e96df2;
      }

      .st16 {
        clip-path: url(#clippath);
      }

      .st17 {
        fill: #722b03;
      }
    </style>
    <clipPath id="clippath">
      <rect class="st0" width="229.63" height="240"/>
    </clipPath>
  </defs>
  <g class="st16">
    <g>
      <path class="st7" d="M162.569,193.92c1.549,1.537,1.505,2.43,0,3.863l-3.734,3.673-.094-.096-21.455-20.521c-1.228-1.045-2.482-1.225-3.863,0l-11.645,11.199-.049.052-3.705-3.537c-1.211-1.246-.898-2.899,0-3.861l15.399-14.953c1.381-1.225,2.635-1.045,3.863,0l25.283,24.181Z"/>
      <path class="st7" d="M188.289,168.76c1.549,1.537,1.505,2.432,0,3.863l-3.732,3.67-.094-.093-21.455-20.521c-1.231-1.046-2.484-1.226-3.863,0l-11.647,11.199-.05.052-3.705-3.535c-1.211-1.243-.897-2.901,0-3.863l15.402-14.953c1.379-1.226,2.632-1.046,3.863,0l25.281,24.181Z"/>
      <path class="st7" d="M214.031,143.607c1.549,1.537,1.505,2.433,0,3.863l-3.734,3.673-.094-.096-21.455-20.52c-1.229-1.046-2.482-1.224-3.863,0l-11.645,11.198-.049.052-3.705-3.535c-1.212-1.243-.898-2.898,0-3.862l15.399-14.953c1.381-1.224,2.634-1.046,3.863,0l25.283,24.18Z"/>
      <path class="st5" d="M210.203,151.047l.093.096-11.536,11.349c-1.441,1.271-2.694,1.315-3.863,0l-21.707-20.715.05-.051,11.645-11.199c1.381-1.224,2.634-1.046,3.863,0l21.455,20.52Z"/>
      <path class="st5" d="M184.557,176.293l-11.539,11.352c-1.441,1.27-2.694,1.315-3.863,0l-21.707-20.715.05-.052,11.647-11.199c1.379-1.226,2.632-1.045,3.863,0l21.455,20.521.094.093Z"/>
      <path class="st5" d="M158.741,201.36l.094.096-11.537,11.349c-1.441,1.268-2.694,1.312-3.863,0l-21.706-20.715.049-.052,11.645-11.199c1.381-1.226,2.634-1.046,3.863,0l21.455,20.521Z"/>
      <path class="st7" d="M193.333,79.398l-.094,40.29-.103.111-3.76-3.515-.01.013c-.148-.131-.291-.252-.434-.363l.015-.017.094-34.733h-.047c0-3.51-1.337-6.401-3.725-8.712L121.341,11.491c-2.575-2.432-4.416-1.337-4.416,2.925h.003l-.131,43.995-4.317-4.119.025-.025.17-41.748h-.002c-.037-7.716,6.948-8.579,10.831-4.887l66.057,63.053c2.388,2.311,3.725,5.202,3.725,8.712h.047Z"/>
      <path class="st7" d="M125.808,37.699v.007l-.13,29.154-.013.012-1.218-1.164-3.098-2.955.037-.04.167-26.904c0-.047,0-.094.003-.141.047-7.585,7.027-8.416,10.885-4.746l48.167,45.979c2.388,2.311,3.724,5.202,3.724,8.712h.047l-.093,30.019.024.059c-.266.175-.54.38-.828.615l-2.985,2.886-.16-.168-.373-.355.03-.03.047-32.469c0-3.434-.906-4.694-2.304-6.098l-47.459-45.293c-2.575-2.43-4.47-1.339-4.47,2.918Z"/>
      <path class="st7" d="M174.759,91.289l-.093,22.313-.005.007-4.371-4.168.084-.089.093-17.494c0-3.436-.981-4.768-2.38-6.172l-28.939-27.607c-2.575-2.432-4.524-1.547-4.524,2.713l-.066,14.536-.013.012-4.279-4.082.076-12.476c-.039-7.716,7.087-8.253,10.969-4.561l29.724,28.354c2.387,2.311,3.724,5.202,3.724,8.712Z"/>
      <path class="st7" d="M173.035,207.408l16.196-15.833,9.716-9.5,14.351-14.03c2.99-2.94,5.168-5.984,5.168-10.227h.015v4.467h-.003c0,4.176,0,6.596-2.688,9.24l-66.632,65.37c-2.445,2.641-5.102,2.331-7.583-.25L30.915,131.358c-1.556-1.522-2.925-2.41-2.898-6.472-.062-3.264.71-4.615,2.689-6.53-1.732,1.725-2.531,4.159.21,6.86l16.532,15.73,19.502,18.554,18.996,18.074,19.344,18.404,8.653,8.233,27.634,26.292c1.236,1.286,2.516,2.008,3.791,2.082,1.285.074,2.566-.508,3.792-1.832l15.685-15.336,8.192-8.009Z"/>
      <path class="st5" d="M189.367,116.297l.01-.013,3.759,3.515,22.409,20.945c2.627,2.531,2.936,3.342,2.936,7.575v9.499h-.015c0,4.243-2.178,7.287-5.168,10.227l-14.351,14.03-.017-.017c-.686.636-1.391.947-2.102.957-.939.02-1.884-.481-2.794-1.428l.009-.01-1.102-1.1h-.202v-7.005c0-4.233-.309-5.047-2.936-7.576l-24.516-22.915.116-.126v-4.612c0-.363.005-.701.017-1.017.114-3.061.787-4.126,2.415-5.794l12.662-12.239,2.984-2.886c.289-.235.563-.44.829-.615,1.705-1.124,2.997-1.046,4.623.242.143.111.286.232.434.363ZM214.031,147.47c1.505-1.43,1.549-2.326,0-3.862l-25.283-24.181c-1.229-1.046-2.482-1.224-3.863,0l-15.4,14.953c-.898.964-1.211,2.619,0,3.863l3.705,3.534,21.707,20.715c1.169,1.315,2.422,1.271,3.863,0l11.536-11.349,3.735-3.673Z"/>
      <path class="st5" d="M163.624,141.449l.01-.012,1.653,1.544,24.516,22.915c2.627,2.529,2.935,3.343,2.935,7.576v9.546c0,4.627,0,5.128-3.517,8.547l.01.009-16.196,15.834c-1.532,1.278-3.163.945-4.694-.649l.009-.007-1.102-1.103h-.23v-7.017c0-4.233-.308-5.047-2.935-7.576l-24.514-22.915.092-.096v-4.65c0-.325.005-.631.014-.92.102-3.135.772-4.206,2.42-5.893l.395-.382,15.251-14.741c1.737-1.408,3.007-1.756,4.428-1.041.464.232.94.575,1.455,1.031ZM188.288,172.623c1.505-1.431,1.55-2.326,0-3.863l-25.28-24.181c-1.231-1.045-2.484-1.225-3.863,0l-15.402,14.953c-.898.962-1.211,2.62,0,3.863l3.705,3.535,21.707,20.715c1.169,1.315,2.422,1.27,3.862,0l11.539-11.352,3.732-3.67Z"/>
      <path class="st5" d="M118.024,188.553l3.705,3.537,21.706,20.715c1.17,1.312,2.423,1.268,3.863,0l11.537-11.349,3.734-3.673c1.505-1.433,1.549-2.326,0-3.863l-25.283-24.181c-1.228-1.045-2.482-1.225-3.863,0l-15.399,14.953c-.898.962-1.211,2.615,0,3.861ZM145.367,232.585c-1.276-.074-2.556-.797-3.792-2.082l-27.634-26.292v-15.656c0-.377.005-.727.02-1.056.116-3.031.792-4.094,2.413-5.757l6.845-6.615,8.801-8.51c1.734-1.406,3.004-1.754,4.422-1.046.464.232.945.577,1.463,1.036l.01-.013,1.655,1.547,24.514,22.915c2.627,2.529,2.935,3.343,2.935,7.576v9.607h-.02c0,3.932,0,4.884-2.155,7.178l-15.686,15.335c-1.226,1.325-2.506,1.907-3.791,1.833Z"/>
      <path class="st7" d="M165.403,141.262v1.593l-.116.126-1.653-1.544-.01.012c-.515-.456-.991-.799-1.455-1.031l.015-.029,1.137-1.113,2.082,1.986Z"/>
      <path class="st10" d="M139.579,162.473h.096c-.01.291-.015.597-.015.922v4.65l-.091.096-1.655-1.547-.01.013c-.518-.459-.999-.804-1.463-1.036l.037-.069,3.101-3.029Z"/>
      <path class="st10" d="M163.321,139.276l2.099-2.05c-.012.316-.017.654-.017,1.017v3.019l-2.082-1.986Z"/>
      <path class="st10" d="M163.321,139.276l-1.137,1.113-.015.029c-1.421-.715-2.691-.367-4.428,1.041l-15.251,14.741-.395-.41-17.128-16.339,19.04-18.601,19.314,18.426Z"/>
      <path class="st10" d="M143.92,84.287l18.972,18.098-.235.246-18.65,18.219-18.974-18.1,18.754-18.323.133-.141Z"/>
      <path class="st7" d="M196.828,183.015c.71-.01,1.416-.321,2.101-.957l.018.017-9.716,9.499-.01-.01c3.517-3.418,3.517-3.919,3.517-8.547v-2.54h.202l1.103,1.1-.01.01c.91.947,1.855,1.448,2.795,1.428Z"/>
      <path class="st7" d="M180.336,119.025l.16.168-12.661,12.239c-1.628,1.668-2.302,2.733-2.415,5.794l-2.099,2.05-19.314-18.426,18.65-18.219.235-.246,7.397,7.057,4.371,4.169,5.303,5.059.373.355Z"/>
      <path class="st7" d="M173.035,207.408l-8.192,8.009c2.156-2.294,2.156-3.246,2.156-7.178h.019v-2.59h.23l1.102,1.103-.009.007c1.531,1.594,3.162,1.927,4.694.649Z"/>
      <path class="st7" d="M144.007,120.85l-19.04,18.601-18.974-18.1,19.04-18.601,18.974,18.1Z"/>
      <path class="st7" d="M130.265,71.26l4.28,4.082,9.376,8.944-.134.141-18.754,18.323-19.471-18.577,18.635-18.206.249-.259,1.219,1.164,4.6,4.388Z"/>
      <path class="st7" d="M142.095,155.79l.395.41-.395.382c-1.648,1.687-2.319,2.758-2.42,5.893h-.096l-3.1,3.027-.037.069c-1.419-.708-2.689-.36-4.423,1.046l-8.801,8.51-17.59-16.781,19.339-18.895,17.128,16.339Z"/>
      <path class="st10" d="M105.562,84.173l19.472,18.577-19.041,18.601-19.471-18.577,19.04-18.601Z"/>
      <path class="st10" d="M105.993,121.351l18.974,18.1-19.339,18.895-18.976-18.103,19.341-18.892Z"/>
      <path class="st10" d="M116.798,58.411l4.551,4.341,3.098,2.955-.249.259-18.636,18.206-19.849-18.937-.308-.316,16.199-15.824c1.332-1.352,4.048-1.431,5.432,0l5.446,5.195,4.317,4.119Z"/>
      <path class="st10" d="M123.218,175.127l-6.845,6.615c-1.62,1.663-2.296,2.726-2.412,5.757l-8.592,8.395-.081.083-19.344-18.403,19.684-19.228,17.59,16.781Z"/>
      <path class="st7" d="M105.369,195.894l8.592-8.394c-.015.328-.02.678-.02,1.055v15.656l-8.653-8.234.081-.083Z"/>
      <path class="st7" d="M86.522,102.774l19.472,18.577-19.342,18.892-19.472-18.576,19.341-18.893Z"/>
      <path class="st7" d="M105.628,158.346l-19.684,19.228-18.996-18.074.089-.093,19.615-19.164,18.976,18.103Z"/>
      <path class="st7" d="M85.713,65.237l19.849,18.937-19.04,18.601-20.089-19.163-.079-.079,19.05-18.611.308.316Z"/>
      <path class="st10" d="M86.652,140.243l-19.615,19.164-.089.093-19.501-18.554,19.733-19.279,19.472,18.576Z"/>
      <path class="st10" d="M86.521,102.774l-19.341,18.893-20.135-19.208-.032-.032,19.341-18.895.079.079,20.089,19.163Z"/>
      <path class="st7" d="M67.18,121.667l-19.733,19.279-16.532-15.73c-2.74-2.701-1.941-5.136-.21-6.86l16.307-15.929.032.032,20.135,19.208Z"/>
      <path class="st2" d="M149.157,236.895l66.632-65.37"/>
      <path class="st2" d="M30.915,131.358l110.66,105.287"/>
      <path class="st2" d="M141.575,236.645c2.482,2.58,5.138,2.891,7.583.249"/>
      <path class="st2" d="M149.157,230.753l15.686-15.336,8.192-8.009,16.196-15.834,9.716-9.499,14.351-14.03"/>
      <path class="st2" d="M116.373,181.742l6.845-6.615,8.801-8.51"/>
      <path class="st2" d="M118.023,184.692l15.4-14.952"/>
      <path class="st2" d="M147.298,212.805l11.536-11.349,3.735-3.673"/>
      <path class="st2" d="M30.706,118.356l16.307-15.929,19.341-18.895,19.05-18.611,16.199-15.824"/>
      <path class="st2" d="M30.915,125.216l16.532,15.73,19.501,18.554,18.996,18.074,19.344,18.403,8.653,8.234,27.634,26.292"/>
      <path class="st2" d="M167.248,205.649l1.103,1.103.037.037"/>
      <path class="st2" d="M137.914,166.594l1.655,1.547,24.514,22.915"/>
      <path class="st2" d="M137.285,169.74l25.283,24.18"/>
      <path class="st2" d="M118.023,188.553l3.705,3.537,21.707,20.715"/>
      <path class="st2" d="M107.034,49.097l5.447,5.195,4.316,4.119,4.551,4.341,3.098,2.955,1.219,1.164,4.6,4.388,4.28,4.082,9.376,8.944,18.971,18.098,7.397,7.057,4.371,4.168,5.304,5.06.372.355"/>
      <path class="st2" d="M139.147,58.081l28.939,27.607"/>
      <path class="st2" d="M141.312,54.223l29.723,28.354"/>
      <path class="st2" d="M130.277,34.781l47.459,45.293"/>
      <path class="st2" d="M132.441,30.923l48.167,45.979"/>
      <path class="st2" d="M121.341,11.491l63.928,60.981"/>
      <path class="st2" d="M123.504,7.633l66.057,63.053"/>
      <path class="st2" d="M141.575,230.503c1.236,1.286,2.516,2.008,3.791,2.082,1.286.074,2.566-.508,3.792-1.832"/>
      <path class="st2" d="M168.341,206.759c1.532,1.594,3.162,1.927,4.694.649.168-.138.335-.296.501-.476"/>
      <path class="st2" d="M30.915,131.358c-1.556-1.522-2.925-2.41-2.898-6.473"/>
      <path class="st2" d="M30.706,118.356c-1.978,1.915-2.75,3.266-2.689,6.53"/>
      <path class="st2" d="M215.79,171.525c2.689-2.644,2.689-5.064,2.689-9.24"/>
      <path class="st2" d="M107.034,49.097c-1.384-1.431-4.099-1.352-5.431,0"/>
      <path class="st2" d="M213.298,168.045c2.989-2.94,5.168-5.984,5.168-10.227"/>
      <path class="st2" d="M189.221,191.565c3.517-3.419,3.517-3.92,3.517-8.547"/>
      <path class="st2" d="M163.481,216.786c.531-.515.98-.962,1.362-1.369,2.156-2.294,2.156-3.246,2.156-7.178"/>
      <path class="st2" d="M30.915,125.216c-2.74-2.701-1.941-5.135-.21-6.86"/>
      <path class="st2" d="M145.366,232.585v-13.833"/>
      <path class="st2" d="M113.941,204.211v-15.656"/>
      <path class="st2" d="M167.019,208.239v-9.607"/>
      <path class="st2" d="M118.024,184.692c-.898.962-1.211,2.615,0,3.861"/>
      <path class="st2" d="M162.568,193.92c1.549,1.537,1.505,2.43,0,3.863"/>
      <path class="st2" d="M147.297,212.805c-1.44,1.268-2.693,1.312-3.862,0"/>
      <path class="st2" d="M137.286,169.739c-1.229-1.045-2.482-1.225-3.863,0"/>
      <path class="st2" d="M121.777,192.038l11.645-11.199"/>
      <path class="st2" d="M137.285,180.839l21.455,20.521"/>
      <path class="st2" d="M137.286,180.839c-1.229-1.046-2.482-1.226-3.863,0"/>
      <path class="st2" d="M132.02,166.617c1.734-1.406,3.004-1.754,4.422-1.046.464.232.945.577,1.463,1.036.002.005.007.007.01.01"/>
      <path class="st2" d="M113.941,188.555c0-.377.005-.728.02-1.056.116-3.031.792-4.094,2.413-5.757"/>
      <path class="st2" d="M164.083,191.056c2.627,2.529,2.935,3.343,2.935,7.576"/>
      <path class="st2" d="M142.096,156.582l.394-.382,15.252-14.741"/>
      <path class="st2" d="M143.743,159.532l15.402-14.953"/>
      <path class="st2" d="M173.018,187.645l11.539-11.352,3.732-3.67"/>
      <path class="st2" d="M163.635,141.437l1.652,1.544,24.517,22.915"/>
      <path class="st2" d="M163.008,144.579l25.281,24.181"/>
      <path class="st2" d="M143.743,163.395l3.705,3.535,21.707,20.715"/>
      <path class="st2" d="M171.086,208.19v-14.598"/>
      <path class="st2" d="M192.738,183.017v-9.546"/>
      <path class="st2" d="M143.743,159.532c-.897.962-1.211,2.62,0,3.863"/>
      <path class="st2" d="M188.289,168.76c1.549,1.537,1.505,2.432,0,3.863"/>
      <path class="st2" d="M173.018,187.645c-1.44,1.27-2.694,1.315-3.863,0"/>
      <path class="st2" d="M163.008,144.579c-1.231-1.046-2.484-1.226-3.862,0"/>
      <path class="st2" d="M147.497,166.878l11.648-11.199"/>
      <path class="st2" d="M163.008,155.679l21.455,20.521"/>
      <path class="st2" d="M163.008,155.679c-1.231-1.045-2.484-1.226-3.862,0"/>
      <path class="st2" d="M157.741,141.459c1.737-1.408,3.007-1.756,4.428-1.041.464.232.94.575,1.455,1.031.003.005.008.008.01.01"/>
      <path class="st2" d="M139.661,163.395c0-.325.005-.631.015-.92.101-3.135.772-4.206,2.42-5.893"/>
      <path class="st2" d="M189.804,165.896c2.627,2.529,2.935,3.343,2.935,7.576"/>
      <path class="st2" d="M167.835,131.432l12.661-12.239,2.985-2.886"/>
      <path class="st2" d="M169.485,134.38l15.4-14.953"/>
      <path class="st2" d="M198.76,162.492l11.536-11.349,3.735-3.673"/>
      <path class="st2" d="M189.377,116.284l3.759,3.515,22.41,20.945"/>
      <path class="st2" d="M188.747,119.427l25.283,24.18"/>
      <path class="st2" d="M169.485,138.243l3.705,3.534,21.707,20.715"/>
      <path class="st2" d="M196.828,183.017v-14.578"/>
      <path class="st2" d="M165.403,142.855v-4.612"/>
      <path class="st2" d="M218.48,162.978v-14.659"/>
      <path class="st2" d="M169.486,134.38c-.898.964-1.212,2.619,0,3.863"/>
      <path class="st2" d="M214.031,143.608c1.549,1.536,1.505,2.432,0,3.862"/>
      <path class="st2" d="M198.759,162.492c-1.44,1.271-2.693,1.315-3.863,0"/>
      <path class="st2" d="M188.748,119.427c-1.229-1.046-2.482-1.224-3.863,0"/>
      <path class="st2" d="M173.239,141.726l11.645-11.199"/>
      <path class="st2" d="M188.747,130.527l21.455,20.52"/>
      <path class="st2" d="M188.748,130.527c-1.229-1.046-2.482-1.224-3.863,0"/>
      <path class="st2" d="M183.481,116.307c.289-.235.563-.44.829-.615,1.705-1.124,2.997-1.046,4.623.242.143.111.286.232.434.363.002.005.007.007.01.01"/>
      <path class="st2" d="M165.403,138.243c0-.363.005-.701.018-1.017.113-3.061.786-4.126,2.414-5.794"/>
      <path class="st2" d="M215.545,140.744c2.627,2.531,2.935,3.342,2.935,7.575"/>
      <path class="st2" d="M139.661,163.543v4.502"/>
      <path class="st2" d="M192.94,180.477l1.103,1.1.037.037"/>
      <path class="st2" d="M194.033,181.587c.91.947,1.855,1.448,2.795,1.428.71-.01,1.416-.321,2.102-.957.101-.094.199-.195.298-.301"/>
      <path class="st2" d="M170.373,109.353l.094-17.494"/>
      <path class="st2" d="M174.665,113.603l.094-22.313"/>
      <path class="st2" d="M179.993,118.64l.047-32.469"/>
      <path class="st2" d="M184.285,115.633l.094-30.019"/>
      <path class="st2" d="M188.947,115.917l.094-34.733"/>
      <path class="st2" d="M193.239,119.688l.094-40.29"/>
      <path class="st2" d="M130.266,71.285v-.025l.076-12.476"/>
      <path class="st2" d="M134.558,75.33l.066-14.536"/>
      <path class="st2" d="M121.556,35.669v-.185"/>
      <path class="st2" d="M121.386,62.713l.167-26.904"/>
      <path class="st2" d="M125.808,37.699v-.202"/>
      <path class="st2" d="M125.678,66.86l.13-29.154"/>
      <path class="st2" d="M112.505,54.267l.17-41.748"/>
      <path class="st2" d="M116.797,58.466v-.054l.131-43.995"/>
      <path class="st2" d="M170.467,91.859c0-3.436-.981-4.768-2.38-6.172"/>
      <path class="st2" d="M180.04,86.171c0-3.434-.905-4.694-2.304-6.098"/>
      <path class="st2" d="M171.034,82.577c2.388,2.311,3.725,5.202,3.725,8.712"/>
      <path class="st2" d="M189.562,70.686c2.387,2.311,3.724,5.202,3.724,8.712"/>
      <path class="st2" d="M185.27,72.471c2.387,2.311,3.724,5.202,3.724,8.712"/>
      <path class="st2" d="M180.607,76.902c2.388,2.311,3.725,5.202,3.725,8.712"/>
      <path class="st2" d="M130.342,58.784c-.04-7.716,7.087-8.253,10.969-4.561"/>
      <path class="st2" d="M134.624,60.794c0-4.26,1.949-5.146,4.524-2.713"/>
      <path class="st2" d="M121.553,35.809c0-.047,0-.094.002-.141.047-7.585,7.028-8.416,10.886-4.746"/>
      <path class="st2" d="M125.808,37.706v-.007c0-4.257,1.894-5.348,4.469-2.918"/>
      <path class="st2" d="M112.673,12.519c-.037-7.716,6.949-8.579,10.831-4.887"/>
      <path class="st2" d="M116.926,14.416c0-4.262,1.84-5.358,4.415-2.925"/>
      <path class="st8" d="M173.691,77.829c-.03-.898.155-1.922.545-2.889.574-1.423,1.541-2.59,2.558-3.051.449-.205.907-.271,1.346-.16,1.429.365,2.285,1.788,1.473,4.203l-.017.015c-1.211-1.164-3.313,2.834-1.821,4.151-.836.486-2.037.789-3.152,0-.592-.414-.898-1.263-.932-2.269Z"/>
      <path class="st8" d="M176.66,57.037c.449-.205.908-.269,1.347-.158,1.428.365,2.284,1.788,1.47,4.201l-.015.015c-1.214-1.162-3.313,2.834-1.82,4.154-.839.483-2.04.789-3.155,0-.59-.417-.896-1.261-.93-2.269-.03-.895.153-1.922.542-2.888.575-1.423,1.545-2.592,2.561-3.054Z"/>
      <path class="st8" d="M175.022,69.065c1.13.289,1.902,1.241,1.771,2.824-1.016.461-1.983,1.628-2.558,3.051-.389.967-.574,1.991-.545,2.888-.68.17-1.453.126-2.188-.395-1.115-.789-1.213-3.105-.387-5.158.829-2.052,2.479-3.577,3.907-3.212Z"/>
      <path class="st8" d="M170.437,60.227c-.018-.876.167-1.867.545-2.802.579-1.438,1.564-2.617,2.592-3.069.439-.192.886-.252,1.313-.143,1.132.289,1.904,1.243,1.773,2.824-1.016.461-1.986,1.63-2.56,3.054-.39.967-.573,1.993-.543,2.889-.683.168-1.453.123-2.188-.397-.609-.427-.915-1.312-.932-2.356Z"/>
      <path class="st8" d="M170.425,51.618c.449-.205.907-.269,1.344-.158,1.13.289,1.902,1.243,1.771,2.824l.035.071c-1.029.451-2.013,1.631-2.593,3.069-.377.935-.562,1.926-.545,2.802-.681.168-1.453.123-2.188-.397-.577-.41-.883-1.231-.927-2.215-.04-.908.143-1.956.54-2.943.575-1.426,1.544-2.595,2.563-3.054Z"/>
      <path class="st8" d="M168.648,48.848c1.118.286,1.885,1.221,1.776,2.77-1.018.459-1.988,1.628-2.563,3.054-.397.987-.579,2.035-.54,2.943h-.002c-.681.168-1.453.123-2.191-.397-1.115-.787-1.213-3.105-.387-5.158.829-2.052,2.479-3.574,3.907-3.212Z"/>
      <path class="st8" d="M163.932,74.45c.449-.205.908-.269,1.347-.158,1.428.365,2.284,1.788,1.473,4.201l-.018.015c-1.211-1.164-3.312,2.834-1.82,4.154-.836.483-2.037.787-3.152,0-.59-.417-.896-1.263-.933-2.269-.029-.895.156-1.922.545-2.888.573-1.423,1.542-2.593,2.558-3.054Z"/>
      <path class="st8" d="M162.161,71.625c1.13.289,1.904,1.243,1.771,2.824-1.016.461-1.986,1.631-2.558,3.054-.39.967-.575,1.993-.545,2.888-.681.168-1.453.123-2.188-.397-.607-.429-.913-1.312-.93-2.358-.017-.873.165-1.865.543-2.8.579-1.438,1.564-2.615,2.592-3.068.439-.192.888-.252,1.315-.143Z"/>
      <path class="st8" d="M160.812,71.697l.034.072c-1.028.454-2.012,1.63-2.592,3.068-.377.935-.56,1.926-.543,2.8-.68.17-1.453.126-2.19-.395-1.115-.789-1.214-3.105-.387-5.158.828-2.052,2.479-3.577,3.907-3.212,1.132.289,1.904,1.241,1.771,2.824Z"/>
      <path class="st8" d="M143.686,49.146c-.03-.895.155-1.922.545-2.888.572-1.423,1.541-2.59,2.558-3.051.451-.207.91-.271,1.349-.16,1.428.365,2.284,1.788,1.47,4.201l-.017.015c-1.211-1.162-3.313,2.834-1.821,4.154-.836.483-2.037.789-3.152,0-.589-.417-.895-1.263-.932-2.269Z"/>
      <path class="st8" d="M146.478,56.396c1.428.363,2.284,1.788,1.472,4.201l-.017.015c-1.211-1.164-3.313,2.834-1.82,4.154-.836.483-2.038.787-3.153,0-1.115-.789-1.216-3.106-.387-5.158.826-2.052,2.477-3.577,3.905-3.212Z"/>
      <path class="st8" d="M140.568,46.394c-.02-.876.165-1.867.543-2.802.579-1.438,1.563-2.615,2.592-3.069.439-.192.888-.252,1.315-.143,1.132.289,1.904,1.243,1.771,2.827-1.016.461-1.986,1.628-2.558,3.051-.39.967-.575,1.993-.545,2.889-.681.168-1.453.123-2.188-.397-.605-.429-.913-1.31-.93-2.356Z"/>
      <path class="st8" d="M140.553,37.785c.449-.205.907-.269,1.344-.158,1.132.289,1.904,1.241,1.771,2.824l.035.071c-1.029.454-2.013,1.631-2.593,3.069-.377.935-.562,1.926-.543,2.802-.683.168-1.452.123-2.19-.397-.58-.41-.883-1.233-.927-2.215-.04-.908.143-1.956.542-2.943.573-1.426,1.542-2.595,2.561-3.054Z"/>
      <path class="st8" d="M138.779,35.015c1.118.286,1.882,1.221,1.774,2.77-1.019.459-1.988,1.628-2.561,3.054-.399.987-.582,2.035-.542,2.943-.681.168-1.456.123-2.191-.397-1.115-.787-1.216-3.106-.387-5.158.826-2.052,2.479-3.574,3.907-3.212Z"/>
      <path class="st8" d="M137.159,17.97c1.428.365,2.284,1.788,1.47,4.201l-.015.015c-1.213-1.162-3.315,2.834-1.82,4.154-.839.483-2.04.789-3.155,0-1.115-.789-1.214-3.105-.387-5.158.829-2.052,2.479-3.577,3.907-3.212Z"/>
      <path class="st2" d="M164.914,82.661c-1.492-1.32.609-5.318,1.82-4.154"/>
      <path class="st2" d="M164.914,82.661c-.836.483-2.037.787-3.152,0-.59-.417-.896-1.263-.933-2.269-.029-.895.156-1.922.545-2.888.573-1.423,1.542-2.593,2.558-3.054.449-.205.908-.269,1.347-.158,1.428.365,2.284,1.788,1.473,4.201"/>
      <path class="st2" d="M146.113,64.765c-1.492-1.32.61-5.318,1.821-4.154"/>
      <path class="st2" d="M146.113,64.765c-.836.483-2.038.787-3.153,0-1.115-.789-1.216-3.106-.387-5.158.826-2.052,2.477-3.577,3.905-3.212,1.428.363,2.284,1.788,1.472,4.201"/>
      <path class="st2" d="M136.794,26.34c-1.494-1.32.607-5.316,1.821-4.154"/>
      <path class="st2" d="M136.794,26.34c-.839.483-2.04.789-3.155,0-1.115-.789-1.214-3.105-.387-5.158.829-2.052,2.479-3.577,3.907-3.212,1.428.365,2.284,1.788,1.47,4.201"/>
      <path class="st2" d="M160.831,80.392h-.002c-.681.168-1.453.123-2.188-.397-.607-.429-.913-1.312-.93-2.358-.017-.873.165-1.865.543-2.8.579-1.438,1.564-2.615,2.592-3.068.439-.192.888-.252,1.315-.143,1.13.289,1.904,1.243,1.771,2.824"/>
      <path class="st2" d="M157.711,77.636c-.68.17-1.453.126-2.19-.395-1.115-.789-1.214-3.105-.387-5.158.828-2.052,2.479-3.577,3.907-3.212,1.132.289,1.904,1.241,1.771,2.824"/>
      <path class="st2" d="M177.775,80.098c-1.492-1.317.61-5.316,1.821-4.151"/>
      <path class="st2" d="M177.775,80.098c-.836.486-2.037.789-3.152,0-.592-.414-.898-1.263-.932-2.269-.03-.898.155-1.922.545-2.889.574-1.423,1.541-2.59,2.558-3.051.449-.205.907-.271,1.346-.16,1.429.365,2.285,1.788,1.473,4.203"/>
      <path class="st2" d="M173.693,77.829c-.681.17-1.453.126-2.188-.395-1.115-.789-1.213-3.105-.387-5.158.829-2.052,2.479-3.577,3.907-3.212,1.13.289,1.902,1.241,1.771,2.824"/>
      <path class="st2" d="M147.771,51.416c-1.493-1.32.609-5.316,1.82-4.154"/>
      <path class="st2" d="M147.77,51.416c-.836.483-2.037.789-3.152,0-.589-.417-.895-1.263-.932-2.269-.03-.895.155-1.922.545-2.888.572-1.423,1.541-2.59,2.558-3.051.451-.207.91-.271,1.349-.16,1.428.365,2.284,1.788,1.47,4.201"/>
      <path class="st2" d="M143.688,49.146h-.002c-.681.168-1.453.123-2.188-.397-.605-.429-.913-1.31-.93-2.356-.02-.876.165-1.867.543-2.802.579-1.438,1.563-2.615,2.592-3.069.439-.192.888-.252,1.315-.143,1.132.289,1.904,1.243,1.771,2.827"/>
      <path class="st2" d="M140.57,46.394h-.003c-.683.168-1.452.123-2.19-.397-.58-.41-.883-1.233-.927-2.215-.04-.908.143-1.956.542-2.943.573-1.426,1.542-2.595,2.561-3.054.449-.205.907-.269,1.344-.158,1.132.289,1.904,1.241,1.771,2.824"/>
      <path class="st2" d="M137.45,43.781c-.681.168-1.456.123-2.191-.397-1.115-.787-1.216-3.106-.387-5.158.826-2.052,2.479-3.574,3.907-3.212,1.118.286,1.882,1.221,1.774,2.77,0,.02,0,.037-.003.057"/>
      <path class="st2" d="M177.642,65.249c-1.492-1.32.607-5.316,1.82-4.154"/>
      <path class="st2" d="M177.642,65.249c-.839.483-2.04.789-3.155,0-.59-.417-.896-1.261-.93-2.269-.03-.895.153-1.922.542-2.888.575-1.423,1.545-2.592,2.561-3.054.449-.205.908-.269,1.347-.158,1.428.365,2.284,1.788,1.47,4.201"/>
      <path class="st2" d="M173.559,62.979h-.002c-.683.168-1.453.123-2.188-.397-.609-.427-.915-1.312-.932-2.356-.018-.876.167-1.867.545-2.802.579-1.438,1.564-2.617,2.592-3.069.439-.192.886-.252,1.313-.143,1.132.289,1.904,1.243,1.773,2.824"/>
      <path class="st2" d="M170.44,60.227h-.003c-.681.168-1.453.123-2.188-.397-.577-.41-.883-1.231-.927-2.215-.04-.908.143-1.956.54-2.943.575-1.426,1.544-2.595,2.563-3.054.449-.205.907-.269,1.344-.158,1.13.289,1.902,1.243,1.771,2.824"/>
      <path class="st2" d="M167.319,57.615c-.681.168-1.453.123-2.191-.397-1.115-.787-1.213-3.105-.387-5.158.829-2.052,2.479-3.574,3.907-3.212,1.118.286,1.885,1.221,1.776,2.77,0,.017,0,.037-.005.057"/>
      <path class="st8" d="M100.179,108.312v11.1h-8.904c-12.104,0-17.38,3.199-15.91,10.029,1.088,3.148,3.251,6.404,7.351,10.356l.045.056c-.718.538-1.216,1.347-1.349,2.275-.592-.474-1.339-.755-2.153-.755-1.912,0-3.458,1.549-3.458,3.458s1.547,3.458,3.458,3.458c1.734,0,3.172-1.277,3.421-2.945l.035.005c.587.456,1.322.728,2.124.728,1.194,0,2.245-.605,2.866-1.525h.146c4.896,5.94-2.98,14.068-9.285,8.407-6.756-5.676-13.014-13.434-14.872-19.628-4.842-16.339,10.464-25.019,27.235-25.019h9.252Z"/>
      <path class="st6" d="M88.295,142.618c0,.716-.217,1.382-.592,1.934-.622.92-1.672,1.525-2.866,1.525-.802,0-1.537-.272-2.124-.728l-.035-.005c.025-.168.037-.338.037-.513,0-1.095-.511-2.072-1.305-2.703.133-.928.631-1.737,1.349-2.275.577-.434,1.298-.693,2.077-.693,1.909,0,3.458,1.547,3.458,3.458ZM87.747,141.95c.188-1.046-.516-2.057-1.561-2.245-1.043-.187-2.057.518-2.242,1.562-.037.204-.042.414-.012.619l1.914-.279-.34,1.904c1.043.188,2.057-.518,2.242-1.561Z"/>
      <path class="st9" d="M86.186,139.705c1.046.188,1.749,1.199,1.561,2.245-.185,1.043-1.199,1.749-2.242,1.561l.34-1.904-1.914.279c-.03-.205-.025-.415.012-.619.185-1.044,1.199-1.749,2.242-1.562Z"/>
      <path class="st6" d="M82.715,144.831c0,.175-.012.345-.037.513-.249,1.668-1.687,2.945-3.421,2.945-1.912,0-3.458-1.549-3.458-3.458s1.547-3.458,3.458-3.458c.814,0,1.561.281,2.153.755.794.631,1.305,1.608,1.305,2.703ZM82.168,144.163c.187-1.044-.518-2.058-1.561-2.245-1.043-.188-2.057.518-2.242,1.561-.037.205-.042.415-.012.619l1.914-.276-.34,1.902c1.043.187,2.057-.518,2.242-1.561Z"/>
      <path class="st9" d="M80.607,141.918c1.043.187,1.749,1.201,1.561,2.245-.185,1.043-1.199,1.748-2.242,1.561l.34-1.902-1.914.276c-.03-.204-.025-.414.012-.619.185-1.043,1.199-1.749,2.242-1.561Z"/>
      <path class="st2" d="M100.18,108.258v11.24"/>
      <path class="st2" d="M100.179,119.412h-8.905"/>
      <path class="st2" d="M100.179,108.312h-9.252"/>
      <path class="st2" d="M78.564,152.959c-6.756-5.676-13.014-13.434-14.872-19.627"/>
      <path class="st2" d="M75.364,129.442c1.088,3.147,3.251,6.403,7.351,10.355"/>
      <path class="st2" d="M91.274,119.412c-12.104,0-17.38,3.199-15.91,10.03"/>
      <path class="st2" d="M63.692,133.331c-4.842-16.339,10.464-25.019,27.235-25.019"/>
      <path class="st2" d="M78.563,152.959c6.305,5.661,14.181-2.467,9.285-8.407"/>
      <path class="st2" d="M81.41,142.128c.794.631,1.305,1.608,1.305,2.703,0,.175-.012.345-.037.513-.249,1.668-1.687,2.945-3.421,2.945-1.912,0-3.458-1.549-3.458-3.458s1.547-3.458,3.458-3.458c.814,0,1.561.281,2.153.755Z"/>
      <path class="st2" d="M80.266,143.822l-1.914.276c-.03-.204-.025-.414.012-.619.185-1.043,1.199-1.749,2.242-1.561,1.043.187,1.749,1.201,1.561,2.245-.185,1.043-1.199,1.748-2.242,1.561l.34-1.902Z"/>
      <path class="st2" d="M81.41,142.128c.133-.928.631-1.737,1.349-2.275.577-.434,1.298-.693,2.077-.693,1.909,0,3.458,1.547,3.458,3.458,0,.716-.217,1.382-.592,1.934-.622.92-1.672,1.525-2.866,1.525-.802,0-1.537-.272-2.124-.728"/>
      <path class="st2" d="M85.845,141.607l-1.914.279c-.03-.205-.025-.415.012-.619.185-1.044,1.199-1.749,2.242-1.562,1.046.188,1.749,1.199,1.561,2.245-.185,1.043-1.199,1.749-2.242,1.561l.34-1.904Z"/>
      <path class="st7" d="M176.688,116.035v6.665l-13.436-12.782c-5.434-5.17-16.071-4.381-23.814,2.74-11.114,10.471-28.573,6.71-28.573-7.876v-10.125c0-7.262-7.509-16.882-21.438-18.761v-19.085c2.829.126,5.222,2.198,5.222,6.13v2.242c-.121,1.65,1.014,2.829,3.404,3.535,9.257,4.013,15.254,12.496,15.254,21.818,0,10.236,1.697,15.523,6.418,17.429,6.334,2.427,12.042-.274,17.607-4.109,9.006-7.681,20.372-8.856,27.617-1.961l9.99,9.447c1.186,1.063,1.749,2.783,1.749,4.694Z"/>
      <path class="st5" d="M176.687,122.7l-13.159,12.763v-6.589c0-1.241-.365-2.358-1.135-3.046l-5.809-5.525c-4.107-3.91-12.21-1.416-12.21,3.527v5.51c0,2.613.4,3.878,2.134,5.528l9.065,8.626-14.203,13.582v-6.589c0-1.241-.365-2.358-1.135-3.046l-5.807-5.526c-4.109-3.909-12.21-1.415-12.21,3.528v5.51c0,2.613.4,3.878,2.134,5.528l9.065,8.624-15.246,14.805v-6.663c0-1.912-.563-3.633-1.749-4.694l-9.112-8.69c-3.545-3.335-6.882-12.866-3.054-19.62l3.508-6.529c1.902-3.537.318-7.556-2.832-10.585-3.791-3.761-7.425-6.216-7.425-11.788v-10.57c0-12.205-9.452-20.473-17.175-20.473v-11.581c0-8.214,5.002-12.094,9.095-11.909v19.087c13.929,1.88,21.437,11.5,21.437,18.761v10.125c0,14.586,17.459,18.347,28.574,7.876,7.743-7.121,18.379-7.91,23.813-2.74l13.436,12.782Z"/>
      <path class="st7" d="M149.104,128.78l5.335,5.077c.77.688,1.135,1.805,1.135,3.046v6.591l-9.065-8.626c-1.734-1.65-2.134-2.915-2.134-5.528v-5.51c0-4.943,8.103-7.437,12.21-3.528l5.809,5.526c.77.688,1.135,1.805,1.135,3.046v6.589l-7.124-6.776c-2.341-2.354-5.925-1.858-7.301.093Z"/>
      <path class="st7" d="M126.947,150.391l5.336,5.079c.769.688,1.134,1.805,1.134,3.046v6.589l-9.065-8.624c-1.734-1.65-2.133-2.915-2.133-5.528v-5.51c0-4.943,8.1-7.437,12.21-3.528l5.806,5.526c.77.688,1.135,1.805,1.135,3.046v6.589l-7.121-6.776c-2.341-2.354-5.925-1.858-7.302.091Z"/>
      <path class="st7" d="M95.066,104.782c0-3.821-2.509-8.67-6.556-12.222-.765-.673-1.584-1.3-2.452-1.862-1.48-.962-3.098-1.744-4.827-2.267-1.549-.469-3.187-.733-4.886-.733H21.118v-.035c-2.706,0-3.53-1.127-3.53-3.527v-3.838h62.745c7.723,0,17.175,8.268,17.175,20.473v10.57c0,5.572,3.633,8.027,7.425,11.788,3.149,3.029,4.733,7.048,2.831,10.585l-3.507,6.529c-3.829,6.754-.491,16.285,3.053,19.62l9.112,8.69c1.187,1.061,1.749,2.782,1.749,4.694v6.662l-9.349-8.907-1.709-1.628-2.967-2.826-.841-.802c-.58-.609-1.16-1.263-1.695-1.998-1.347-1.857-2.398-4.233-2.398-7.711v-8.283c0-3.263,1.044-5.303,2.048-7.094l2.363-4.396v-.005c.528-2.595-1.303-4.158-3.893-6.919-3.313-3.29-4.664-6.211-4.664-10.959v-13.599Z"/>
      <path class="st9" d="M111.371,179.35v.17c0,4.41-12.391,4.41-12.391,0v-.17c0-1.303,1.083-2.22,2.607-2.756v.619c0,.163.017.316.054.462.651,2.743,7.124,2.587,7.124-.462v-.616c1.524.533,2.605,1.45,2.605,2.753Z"/>
      <path class="st9" d="M108.823,171.002l-.057.059v1.115c-1.288,2.751-4.818,5.252-7.035,5.476l-.089.023c-.037-.146-.054-.299-.054-.462v-4.676h.118c1.567-.158,3.784-1.451,5.407-3.163l1.71,1.628Z"/>
      <path class="st10" d="M108.765,176.597v.616c0,3.049-6.472,3.205-7.123.462l.088-.022c2.218-.225,5.748-2.726,7.035-5.476v4.42Z"/>
      <path class="st10" d="M104.146,166.548l2.967,2.826c-1.623,1.712-3.84,3.005-5.407,3.163h-.118v-5.116h.096c.723-.072,1.584-.387,2.462-.873Z"/>
      <path class="st9" d="M103.305,165.746l.841.801c-.878.486-1.739.802-2.462.874h-.096v-3.658l.022-.015c.535.735,1.115,1.389,1.695,1.998Z"/>
      <path class="st4" d="M71.726,54.445h.005c.059,2.8,3.518,2.775,3.518-.074v-6.021l-.387-.271c1.182-.284,2.198-.792,3.046-1.527l7.235-6.036c1.892-1.749,2.079-2.871,2.684-4.83l6.823-24.605v51.859c0-3.932-2.393-6.004-5.222-6.132-4.092-.185-9.095,3.695-9.095,11.909v11.581H17.588v-31.033c0-1.66.429-2.649,1.255-3.416-.9,1.071-.432,2.516,2.274,2.501h3.959v10.56c0,3.619,4.435,3.619,4.435,0v-2.96c0-4.701,5.76-4.701,5.76,0v16.44c0,3.944,4.835,3.944,4.835,0v-8.256c0-3.347,4.105-3.347,4.105,0s4.105,3.35,4.105,0v-15.784h9.403c-.067,2.348.969,3.574,3.111,3.673,1.986,0,3.273.861,3.273,2.913v12.526c0,3.347,4.105,3.347,4.105,0v-12.883c0-2.829,3.414-2.874,3.52-.133Z"/>
      <path class="st10" d="M94.649,11.081l-6.823,24.605c-.604,1.959-.792,3.081-2.684,4.83l-7.235,6.036c-.849.735-1.865,1.243-3.046,1.527-.71.173-1.478.261-2.309.271H21.117c-2.706.015-3.175-1.431-2.274-2.501l.005-.005c.53-.491,1.223-.888,2.072-1.315L91.624,9.12c1.512-.757,3.024.148,3.024,1.961Z"/>
      <path class="st9" d="M91.014,130.823v.17c0,4.408-12.393,4.408-12.393,0v-.17c0-1.305,1.083-2.223,2.607-2.755v.619c0,.163.017.315.054.461.651,2.743,7.124,2.588,7.124-.461v-.619c1.524.532,2.607,1.45,2.607,2.755Z"/>
      <path class="st9" d="M88.509,92.56l-.104.118v.422c-1.394,2.654-5.025,5.113-7.173,5.33h-.005v-5.18h.079c1.265-.128,3.29-1.32,4.751-2.553.868.562,1.687,1.189,2.452,1.862Z"/>
      <path class="st10" d="M88.406,128.067v.62c0,3.048-6.473,3.204-7.124.461l.089-.022c2.218-.225,5.75-2.726,7.035-5.476v4.417Z"/>
      <path class="st9" d="M88.406,118.509v5.141c-1.285,2.75-4.817,5.251-7.035,5.476l-.089.022c-.037-.146-.054-.298-.054-.461v-4.677h.118c2.227-.225,5.772-2.741,7.05-5.501h.01Z"/>
      <path class="st10" d="M88.406,113.393v5.116h-.01c-1.278,2.76-4.822,5.276-7.05,5.501h-.118v-5.116h.096c2.225-.224,5.772-2.74,7.047-5.501h.035Z"/>
      <path class="st9" d="M88.406,108.278v5.115h-.035c-1.275,2.761-4.822,5.277-7.047,5.501h-.096v-5.116h.074c2.225-.224,5.772-2.74,7.047-5.5h.057Z"/>
      <path class="st10" d="M88.406,103.162v5.115h-.057c-1.275,2.761-4.822,5.277-7.047,5.501h-.074v-5.116h.049c2.227-.224,5.772-2.74,7.05-5.5h.079Z"/>
      <path class="st9" d="M88.406,98.046v5.116h-.079c-1.278,2.76-4.822,5.276-7.05,5.5h-.049v-5.116h.027c2.225-.224,5.772-2.74,7.047-5.5h.104Z"/>
      <path class="st10" d="M88.406,93.1v4.946h-.104c-1.275,2.76-4.822,5.276-7.047,5.5h-.027v-5.115h.005c2.148-.217,5.779-2.676,7.173-5.331Z"/>
      <path class="st10" d="M86.057,90.698c-1.46,1.233-3.485,2.425-4.751,2.553h-.079v-4.82c1.732.523,3.35,1.305,4.83,2.267Z"/>
      <path class="st7" d="M71.731,54.445h-.005c-.106-2.74-3.52-2.696-3.52.133v12.883c0,3.347-4.104,3.347-4.104,0v-12.526c0-2.052-1.288-2.913-3.273-2.913-2.141-.099-3.177-1.325-3.11-3.673h14.834c.831-.01,1.598-.099,2.309-.271l.387.271v6.021c0,2.849-3.458,2.874-3.517.074Z"/>
      <path class="st9" d="M60.562,124.945v.17c0,4.408-12.39,4.408-12.39,0v-.17c0-1.305,1.08-2.223,2.605-2.756v.62c0,.162.017.315.054.461.651,2.743,7.124,2.587,7.124-.461v-.62c1.527.533,2.607,1.451,2.607,2.756Z"/>
      <path class="st10" d="M57.955,122.189v.62c0,3.048-6.472,3.204-7.124.461l.089-.022c2.22-.225,5.747-2.724,7.035-5.471v4.412Z"/>
      <path class="st9" d="M57.955,112.631v5.146c-1.288,2.747-4.815,5.246-7.035,5.471l-.089.022c-.037-.146-.054-.299-.054-.461v-4.677h.121c2.225-.225,5.772-2.741,7.047-5.501h.01Z"/>
      <path class="st10" d="M57.955,107.515v5.116h-.01c-1.275,2.76-4.822,5.276-7.047,5.501h-.121v-5.116h.099c2.225-.224,5.77-2.74,7.047-5.501h.032Z"/>
      <path class="st9" d="M57.955,102.399v5.116h-.032c-1.278,2.76-4.822,5.276-7.047,5.501h-.099v-5.116h.074c2.227-.224,5.772-2.74,7.05-5.501h.054Z"/>
      <path class="st10" d="M57.955,97.283v5.116h-.054c-1.278,2.761-4.822,5.277-7.05,5.501h-.074v-5.116h.052c2.225-.224,5.772-2.74,7.047-5.501h.079Z"/>
      <path class="st9" d="M57.955,92.168v5.116h-.079c-1.275,2.76-4.822,5.276-7.047,5.5h-.052v-5.116h.03c2.225-.225,5.77-2.741,7.047-5.501h.101Z"/>
      <path class="st10" d="M57.955,87.698v4.47h-.101c-1.278,2.76-4.822,5.276-7.047,5.501h-.03v-5.116h.005c2.227-.224,5.303-2.094,6.579-4.854h.594Z"/>
      <path class="st9" d="M50.777,87.698h6.584c-1.275,2.76-4.351,4.63-6.579,4.854h-.005v-4.854Z"/>
      <path class="st7" d="M48.316,48.35v15.784c0,3.35-4.104,3.35-4.104,0s-4.105-3.347-4.105,0v8.256c0,3.944-4.835,3.944-4.835,0v-16.44c0-4.701-5.76-4.701-5.76,0v2.96c0,3.619-4.435,3.619-4.435,0v-10.56h23.239Z"/>
      <path class="st2" d="M17.588,49.265v34.871"/>
      <path class="st2" d="M17.588,84.136c0,2.4.824,3.527,3.53,3.527"/>
      <path class="st2" d="M118.171,179.909l15.246-14.805"/>
      <path class="st2" d="M118.171,179.909l-9.348-8.907-1.71-1.628-2.967-2.826-.841-.802"/>
      <path class="st2" d="M116.422,168.553l-9.111-8.69"/>
      <path class="st2" d="M76.344,87.698H21.118"/>
      <path class="st2" d="M80.332,80.298H17.64"/>
      <path class="st2" d="M72.553,48.35H21.118"/>
      <path class="st2" d="M95.065,100.771v17.61"/>
      <path class="st2" d="M97.508,100.771v10.57"/>
      <path class="st2" d="M103.623,136.264l-2.363,4.396"/>
      <path class="st2" d="M105.064,133.581l-1.441,2.678"/>
      <path class="st2" d="M107.764,133.714l-3.507,6.529"/>
      <path class="st2" d="M110.865,94.657v10.125"/>
      <path class="st2" d="M113.307,90.535c0,10.236,1.697,15.522,6.418,17.429"/>
      <path class="st2" d="M118.171,179.91v-6.663"/>
      <path class="st2" d="M116.422,168.553c1.186,1.061,1.749,2.782,1.749,4.694"/>
      <path class="st2" d="M176.688,122.7l-13.436-12.782"/>
      <path class="st2" d="M174.939,111.341l-9.99-9.447"/>
      <path class="st2" d="M176.688,122.7v-6.665"/>
      <path class="st2" d="M174.939,111.341c1.187,1.063,1.749,2.782,1.749,4.694"/>
      <path class="st2" d="M133.418,165.105l-9.065-8.624"/>
      <path class="st2" d="M132.283,155.47l-5.336-5.079"/>
      <path class="st2" d="M133.418,165.105v-6.589"/>
      <path class="st2" d="M132.283,155.47c.77.688,1.135,1.805,1.135,3.046"/>
      <path class="st2" d="M141.37,157.075l-7.121-6.775"/>
      <path class="st2" d="M140.235,147.441l-5.806-5.525"/>
      <path class="st2" d="M141.37,157.076v-6.589"/>
      <path class="st2" d="M140.235,147.441c.77.688,1.135,1.805,1.135,3.046"/>
      <path class="st2" d="M122.219,150.953v-5.51"/>
      <path class="st2" d="M122.219,150.953c0,2.613.399,3.878,2.133,5.528"/>
      <path class="st2" d="M134.429,141.915c-4.11-3.909-12.21-1.415-12.21,3.528"/>
      <path class="st2" d="M124.7,144.935c-.306,1.985-.111,3.236,2.247,5.456"/>
      <path class="st2" d="M126.947,150.391c1.377-1.949,4.961-2.445,7.302-.091"/>
      <path class="st2" d="M155.573,143.494l-9.065-8.626"/>
      <path class="st2" d="M154.439,133.857l-5.335-5.076"/>
      <path class="st2" d="M155.573,143.494v-6.591"/>
      <path class="st2" d="M154.438,133.857c.77.688,1.135,1.805,1.135,3.046"/>
      <path class="st2" d="M163.528,135.463l-7.124-6.776"/>
      <path class="st2" d="M162.394,125.828l-5.809-5.526"/>
      <path class="st2" d="M163.528,135.463v-6.589"/>
      <path class="st2" d="M162.394,125.828c.769.688,1.134,1.805,1.134,3.046"/>
      <path class="st2" d="M144.375,129.34v-5.51"/>
      <path class="st2" d="M144.375,129.34c0,2.613.4,3.878,2.134,5.528"/>
      <path class="st2" d="M156.585,120.302c-4.107-3.909-12.21-1.415-12.21,3.528"/>
      <path class="st2" d="M146.859,123.322c-.308,1.985-.114,3.236,2.245,5.459"/>
      <path class="st2" d="M149.104,128.78c1.376-1.951,4.96-2.447,7.301-.093"/>
      <path class="st2" d="M107.311,159.863c-3.545-3.335-6.882-12.866-3.054-19.62"/>
      <path class="st2" d="M99.212,156.037v-8.283"/>
      <path class="st2" d="M103.304,165.746c-.58-.609-1.159-1.263-1.694-1.998-1.347-1.857-2.398-4.233-2.398-7.711"/>
      <path class="st2" d="M101.259,140.66c-1.004,1.791-2.047,3.831-2.047,7.094"/>
      <path class="st2" d="M104.933,123.129c3.15,3.029,4.733,7.048,2.831,10.585"/>
      <path class="st2" d="M105.064,133.581c1.06-1.885,1.697-4.746-.587-6.675"/>
      <path class="st2" d="M95.065,118.381c0,4.748,1.352,7.669,4.664,10.959"/>
      <path class="st2" d="M99.73,129.34c2.59,2.761,4.421,4.324,3.893,6.919v.005"/>
      <path class="st2" d="M104.932,123.129c-3.791-3.761-7.424-6.216-7.424-11.788"/>
      <path class="st2" d="M20.92,44.529L91.624,9.12"/>
      <path class="st2" d="M77.908,46.552l7.235-6.036"/>
      <path class="st2" d="M94.649,65.183V11.081"/>
      <path class="st2" d="M87.826,35.686l6.823-24.605"/>
      <path class="st2" d="M80.332,80.298v-11.581"/>
      <path class="st2" d="M97.507,100.771c0-12.205-9.452-20.473-17.175-20.473"/>
      <path class="st2" d="M95.065,100.771c0-4.378-1.236-7.984-3.251-10.974"/>
      <path class="st2" d="M76.344,87.698c1.699,0,3.337.264,4.886.733,1.729.523,3.347,1.305,4.827,2.267.868.562,1.687,1.189,2.452,1.862,4.048,3.552,6.556,8.401,6.556,12.222"/>
      <path class="st2" d="M80.332,68.717c0-8.214,5.002-12.094,9.095-11.909,2.829.128,5.222,2.2,5.222,6.132"/>
      <path class="st2" d="M18.849,45.844c.53-.491,1.223-.888,2.072-1.315"/>
      <path class="st2" d="M17.588,49.265c0-1.66.429-2.649,1.255-3.416"/>
      <path class="st2" d="M94.649,11.081c0-1.813-1.512-2.718-3.024-1.961"/>
      <path class="st2" d="M89.427,56.811v19.085"/>
      <path class="st2" d="M110.865,94.657c0-7.262-7.509-16.882-21.438-18.762"/>
      <path class="st2" d="M72.553,48.35c.831-.01,1.598-.099,2.309-.271,1.182-.284,2.198-.792,3.046-1.527"/>
      <path class="st2" d="M85.143,40.516c1.892-1.749,2.079-2.871,2.684-4.83"/>
      <path class="st2" d="M98.053,68.717c9.257,4.013,15.254,12.496,15.254,21.818"/>
      <path class="st2" d="M94.649,65.182c-.121,1.65,1.014,2.829,3.404,3.535"/>
      <path class="st2" d="M21.117,48.35c-2.706.015-3.175-1.431-2.274-2.501l.005-.005"/>
      <path class="st2" d="M139.438,112.658c7.743-7.121,18.38-7.91,23.814-2.74"/>
      <path class="st2" d="M137.333,103.855c-5.565,3.835-11.273,6.536-17.607,4.109"/>
      <path class="st2" d="M164.949,101.894c-7.245-6.895-18.611-5.72-27.617,1.961"/>
      <path class="st2" d="M110.865,104.782c0,14.586,17.459,18.347,28.574,7.876"/>
      <path class="st2" d="M141.37,157.076l14.203-13.582"/>
      <path class="st2" d="M163.528,135.463l13.16-12.763"/>
      <path class="st2" d="M25.077,58.91c0,3.619,4.435,3.619,4.435,0"/>
      <path class="st2" d="M35.271,55.95c0-4.701-5.76-4.701-5.76,0"/>
      <path class="st2" d="M35.271,72.39c0,3.944,4.835,3.944,4.835,0"/>
      <path class="st2" d="M44.211,64.134c0-3.347-4.105-3.347-4.105,0"/>
      <path class="st2" d="M44.211,64.134c0,3.35,4.105,3.35,4.105,0"/>
      <path class="st2" d="M64.102,67.461c0,3.347,4.104,3.347,4.104,0"/>
      <path class="st2" d="M71.729,54.578c0-.044,0-.089-.003-.133-.106-2.74-3.52-2.696-3.52.133"/>
      <path class="st2" d="M71.729,54.371c0,.025,0,.049.003.074.059,2.8,3.517,2.775,3.517-.074"/>
      <path class="st2" d="M75.249,54.371v-6.021"/>
      <path class="st2" d="M68.206,54.578v12.883"/>
      <path class="st2" d="M64.102,67.462v-12.526"/>
      <path class="st2" d="M60.828,52.023c1.986,0,3.273.861,3.273,2.913"/>
      <path class="st2" d="M57.718,48.35c-.067,2.348.969,3.574,3.11,3.673"/>
      <path class="st2" d="M25.077,58.91v-10.56"/>
      <path class="st2" d="M29.512,58.91v-2.96"/>
      <path class="st2" d="M35.271,55.95v16.44"/>
      <path class="st2" d="M40.106,72.39v-8.256"/>
      <path class="st2" d="M48.315,64.134v-15.784"/>
      <path class="st2" d="M50.777,122.809v-35.111"/>
      <path class="st2" d="M57.955,122.809v-35.111"/>
      <path class="st2" d="M50.777,122.809c0,.162.017.315.054.461.651,2.743,7.124,2.587,7.124-.461"/>
      <path class="st2" d="M48.172,125.115c0,4.408,12.39,4.408,12.39,0"/>
      <path class="st2" d="M57.955,122.189c1.527.533,2.607,1.451,2.607,2.756"/>
      <path class="st2" d="M48.172,124.945c0-1.305,1.08-2.223,2.605-2.756"/>
      <path class="st2" d="M50.897,118.132c2.225-.225,5.772-2.741,7.047-5.501"/>
      <path class="st2" d="M50.92,123.248c2.22-.225,5.747-2.723,7.035-5.471l.015-.03"/>
      <path class="st2" d="M50.876,113.016c2.225-.224,5.77-2.74,7.047-5.501"/>
      <path class="st2" d="M50.851,107.9c2.227-.224,5.772-2.74,7.05-5.501"/>
      <path class="st2" d="M50.829,102.784c2.225-.224,5.772-2.74,7.047-5.501"/>
      <path class="st2" d="M50.807,97.668c2.225-.225,5.77-2.741,7.047-5.501"/>
      <path class="st2" d="M50.782,92.552c2.227-.224,5.303-2.094,6.579-4.854"/>
      <path class="st2" d="M81.228,128.687v-40.244"/>
      <path class="st2" d="M88.406,128.687v-36.009"/>
      <path class="st2" d="M81.228,128.687c0,.163.017.315.054.461.651,2.743,7.124,2.588,7.124-.461"/>
      <path class="st2" d="M78.621,130.993c0,4.408,12.393,4.408,12.393,0"/>
      <path class="st2" d="M88.406,128.068c1.524.532,2.607,1.45,2.607,2.755"/>
      <path class="st2" d="M78.621,130.823c0-1.305,1.083-2.223,2.607-2.755"/>
      <path class="st2" d="M81.347,124.01c2.227-.225,5.772-2.741,7.05-5.501"/>
      <path class="st2" d="M81.371,129.126c2.217-.225,5.75-2.726,7.035-5.476.005-.008.007-.018.012-.025"/>
      <path class="st2" d="M81.324,118.894c2.225-.224,5.772-2.74,7.047-5.501"/>
      <path class="st2" d="M81.302,113.778c2.225-.224,5.772-2.74,7.047-5.5"/>
      <path class="st2" d="M81.277,108.662c2.227-.224,5.772-2.74,7.05-5.5"/>
      <path class="st2" d="M81.255,103.546c2.225-.224,5.772-2.74,7.047-5.5"/>
      <path class="st2" d="M81.232,98.43c2.148-.217,5.779-2.676,7.173-5.33.049-.094.094-.187.138-.281"/>
      <path class="st2" d="M81.307,93.251c1.265-.128,3.291-1.32,4.751-2.553"/>
      <path class="st2" d="M101.588,177.213v-13.45"/>
      <path class="st2" d="M108.766,177.213v-6.151"/>
      <path class="st2" d="M101.588,177.213c0,.163.017.316.054.462.651,2.743,7.124,2.587,7.124-.462"/>
      <path class="st2" d="M98.98,179.52c0,4.41,12.391,4.41,12.391,0"/>
      <path class="st2" d="M108.766,176.597c1.524.532,2.604,1.45,2.604,2.752"/>
      <path class="st2" d="M98.98,179.35c0-1.303,1.083-2.22,2.607-2.756"/>
      <path class="st2" d="M101.706,172.537c1.566-.158,3.784-1.451,5.407-3.163"/>
      <path class="st2" d="M101.73,177.653c2.218-.225,5.748-2.726,7.035-5.476.005-.008.008-.018.013-.025"/>
      <path class="st2" d="M101.684,167.421c.722-.072,1.583-.387,2.461-.873"/>
      <path class="st3" d="M112.476,144.757v-9.124"/>
      <path class="st3" d="M134.602,137.221v-17.945"/>
      <path class="st3" d="M138.79,127.103v-8.582"/>
      <path class="st8" d="M83.852,109.738c1.433.392,1.275,2.563-.471,2.563h-1.026c-2.274,0-3.564-.999-3.564-2.353-.015-.583.104-1.059.405-1.406l.012-.01c.548.7,1.628,1.147,3.147,1.147h1.026c.163,0,.311-.02.444-.055l.027.114Z"/>
      <path class="st8" d="M83.852,124.538c1.433.392,1.275,2.563-.471,2.563h-1.026c-2.274,0-3.564-.999-3.564-2.354-.015-.582.104-1.058.405-1.406l.012-.009c.548.7,1.628,1.147,3.147,1.147h1.026c.163,0,.311-.02.444-.055l.027.114Z"/>
      <path class="st8" d="M79.19,105.927c-.264-.343-.4-.743-.4-1.182-.03-1.3.587-2.074,2.464-2.047,0,1.024,0,1.778,1.1,1.778h1.026c1.798,0,1.912,2.304.338,2.593-.106.02-.217.029-.338.029h-1.026c-1.537,0-2.625-.456-3.165-1.171Z"/>
      <path class="st8" d="M83.719,107.086c1.433.262,1.468,2.195.106,2.538-.133.035-.281.055-.444.055h-1.026c-1.519,0-2.6-.447-3.147-1.147-.274-.348-.417-.758-.417-1.207-.015-.577.101-1.05.4-1.398.54.715,1.628,1.171,3.165,1.171h1.026c.121,0,.232-.009.338-.029v.017Z"/>
      <path class="st8" d="M79.19,120.727c-.264-.343-.4-.743-.4-1.182-.03-1.3.587-2.074,2.464-2.047,0,1.024,0,1.778,1.1,1.778h1.026c1.798,0,1.912,2.304.338,2.593-.106.02-.217.03-.338.03h-1.026c-1.537,0-2.625-.457-3.165-1.172Z"/>
      <path class="st8" d="M83.719,121.886c1.433.262,1.468,2.195.106,2.538-.133.035-.281.055-.444.055h-1.026c-1.519,0-2.6-.447-3.147-1.147-.274-.348-.417-.758-.417-1.207-.015-.577.101-1.05.4-1.398.54.715,1.628,1.171,3.165,1.171h1.026c.121,0,.232-.009.338-.029v.017Z"/>
      <path class="st2" d="M83.381,104.476h-1.026"/>
      <path class="st2" d="M83.381,107.098h-1.026"/>
      <path class="st2" d="M83.381,104.476c1.798,0,1.912,2.304.338,2.593-.106.02-.217.029-.338.029"/>
      <path class="st2" d="M82.355,104.476c-1.1,0-1.1-.754-1.1-1.778"/>
      <path class="st2" d="M82.354,107.099c-1.537,0-2.625-.457-3.165-1.172-.264-.343-.4-.743-.4-1.182"/>
      <path class="st2" d="M78.79,104.745c-.03-1.3.587-2.074,2.464-2.047"/>
      <path class="st2" d="M83.381,109.679h-1.026"/>
      <path class="st2" d="M83.719,107.086c1.433.262,1.468,2.196.106,2.538-.133.035-.281.055-.444.055"/>
      <path class="st2" d="M82.354,109.679c-1.52,0-2.6-.447-3.147-1.147-.274-.348-.417-.758-.417-1.207"/>
      <path class="st2" d="M78.79,107.325c-.015-.577.101-1.05.4-1.398,0,0,.002-.005.005-.008"/>
      <path class="st2" d="M83.381,112.301h-1.026"/>
      <path class="st2" d="M83.719,109.708c.047.008.091.02.133.03,1.433.392,1.275,2.563-.471,2.563"/>
      <path class="st2" d="M82.354,112.301c-2.274,0-3.564-.999-3.564-2.353"/>
      <path class="st2" d="M78.79,109.948c-.015-.583.104-1.059.405-1.406"/>
      <path class="st2" d="M83.381,119.276h-1.026"/>
      <path class="st2" d="M83.381,121.898h-1.026"/>
      <path class="st2" d="M83.381,119.276c1.798,0,1.912,2.304.338,2.593-.106.02-.217.029-.338.029"/>
      <path class="st2" d="M82.355,119.277c-1.1,0-1.1-.755-1.1-1.779"/>
      <path class="st2" d="M82.354,121.899c-1.537,0-2.625-.457-3.165-1.172-.264-.343-.4-.743-.4-1.182"/>
      <path class="st2" d="M78.79,119.545c-.03-1.3.587-2.074,2.464-2.047"/>
      <path class="st2" d="M83.381,124.479h-1.026"/>
      <path class="st2" d="M83.719,121.886c1.433.262,1.468,2.196.106,2.538-.133.035-.281.055-.444.055"/>
      <path class="st2" d="M82.354,124.479c-1.52,0-2.6-.447-3.147-1.147-.274-.348-.417-.758-.417-1.207"/>
      <path class="st2" d="M78.79,122.125c-.015-.577.101-1.05.4-1.398,0,0,.002-.005.005-.008"/>
      <path class="st2" d="M83.381,127.101h-1.026"/>
      <path class="st2" d="M83.719,124.508c.047.008.091.02.133.03,1.433.392,1.275,2.563-.471,2.563"/>
      <path class="st2" d="M82.354,127.101c-2.274,0-3.564-.999-3.564-2.353"/>
      <path class="st2" d="M78.79,124.748c-.015-.583.104-1.059.405-1.406"/>
      <path class="st17" d="M178.866,159.34c-2.423,2.95-7.063,4.943-12.388,4.943s-9.965-1.993-12.39-4.943c.843-4.134,6.07-7.314,12.39-7.314s11.544,3.18,12.388,7.314Z"/>
      <path class="st17" d="M105.246,96.827c.059,1.029-1.024,1.137-2.03.54,0,0-2.403-1.307-2.432-2.874-.028-1.566,1.66-1.406,2.548-.701.885.705,1.855,2.005,1.914,3.034Z"/>
      <path class="st17" d="M120.161,108.339c2.287,1.078,3.372,3.002,3.372,3.002-1.346,3.688-5.066,7.217-10.128,9.117-3.569,1.339-7.165,1.63-10.187,1.021h-.003c-1.672-1.584-3.199-3.032-4.252-4.771l.296-.177s1.961-1.525,1.073-2.795c-.891-1.27-1.073-2.721.126-3.429,1.198-.707,1.956.708,3.113,1.034.508.148,1.524.173,1.016-1.416-.476-1.487-2.795-4.035-3.868-5.291-.071-.084-.138-.163-.197-.234-.952-1.142-1.263-2.578,0-3.303,1.211-.691,2.444.044,3.734,1.416.726.772,1.468,1.744,2.235,2.777,1.293,1.697,2.094,2.509,3.313,2.985,1.218.476,1.958-.636.994-1.714-.967-1.081-.903-2.181.367-2.817,1.271-.634,2.758.148,3.839,1.418,2.111,2.25,2.871,2.097,5.157,3.177Z"/>
      <path class="st17" d="M75.613,23.071l.037.074c-2.888,1.426-7.923,1.413-13.192-.299-5.21-1.69-9.257-4.593-10.797-7.41,2.886-1.431,7.93-1.421,13.204.293,5.338,1.734,9.294,4.457,10.747,7.341Z"/>
      <path class="st12" d="M60.888,37.898c-.681,1.056-1.238,2.139-1.672,3.219v.163h-8.547c-.052-.678-.121-1.337-.205-1.978.498-1.786,1.596-3.246,3.29-4.386,1.043.733,2.432,1.485,4.253,2.237,1.006.345,1.966.592,2.881.745Z"/>
      <path class="st6" d="M19.058,42.898c.219.713.523,1.431.908,2.141-.429.252-.802.511-1.117.804-.002,0-.005.002-.007.007-.824.765-1.253,1.756-1.253,3.414v3.752l-8.175,3.915c1.902-1.216,2.481-4.716-.123-9.479-.261-.439-.471-.871-.631-1.298-.469-1.233-.533-2.398-.303-3.429,0-.005.002-.01.005-.015.017-.079.037-.158.057-.234.002-.002.002-.005.002-.007,1.152-4.179,7.205-5.964,10.358-.693.069.37.163.747.281,1.122Z"/>
      <path class="st6" d="M22.321,32.645l.005.005c-.232.256-.441.533-.629.831l-2.121,3.387c-.891,1.423-1.127,3.125-.799,4.909-3.152-5.271-9.206-3.485-10.358.693.71-2.632,2.703-4.507,5.084-5.602l8.818-4.223Z"/>
      <path class="st6" d="M7.933,50.375l.696-4.208.03-.012c.16.427.37.858.631,1.298,2.605,4.763,2.025,8.263.123,9.479l-.641.308c-2.057.693-5.133-.784-7.617-5.318l3.601.888.313-3.993.032-.025,2.832,1.584Z"/>
      <path class="st6" d="M42.59,37.385c-.728-.918-1.594-1.803-2.585-2.629-.715-.599-1.5-1.167-2.341-1.695-.281-.175-.562-.343-.846-.503h-.002c-1.28-.718-2.588-1.265-3.875-1.648-.935-.276-1.86-.466-2.755-.565l.037-.338-1.643-3.271,3.283-1.105-1.149-3.135,3.848-.56-.824-3.202c3.377,1.164,6.433,2.736,8.996,4.926,4.001,3.424,6.796,8.362,7.731,15.641.084.641.153,1.3.205,1.978-1.739,0-3.685.57-5.513,1.742l-.032-.047c-.237-1.875-1.12-3.796-2.533-5.59Z"/>
      <path class="st14" d="M84.948,4.882c.022.513.025,1.019.002,1.519l-.012.052c-3.806-.878-8.826,1.492-12.395,6.122h-.003c-1.685-1.046-3.673-1.976-5.871-2.689-1.344-.437-2.674-.762-3.954-.982l.047-.264c-.158-.451-.306-.93-.446-1.433l-.04-.146c-.298-1.238.04-2.176,1.056-2.79l.113-.074c5.779-3.663,14.314-3.73,19.4-1.959,1.339.414,2.092,1.186,2.089,2.41l.012.232Z"/>
      <path class="st15" d="M51.423,11.394c1.394-2.472,5.932-3.409,11.292-2.489,1.28.22,2.61.545,3.954.982,2.198.713,4.186,1.643,5.871,2.689h.003c.994.622,1.882,1.28,2.639,1.964.461.412.873.834,1.233,1.258,1.436,1.682,2.052,3.416,1.561,4.926-.335,1.034-1.154,1.848-2.326,2.422l-.037-.074c-1.453-2.884-5.409-5.607-10.747-7.341-5.274-1.714-10.318-1.724-13.204-.293-.649-1.189-.854-2.363-.508-3.426.069-.215.16-.419.271-.617h-.003Z"/>
      <path class="st14" d="M51.423,11.394c-.111.197-.202.402-.271.617-.264.814-.496,1.631-.683,2.449l-.027-.005c-4.092-1.502-5.382,3.976-.73,5.091h.165c.022,1.315.2,2.602.567,3.838-2.181-.523-3.816-1.49-4.951-2.662-4.363-4.494-1.428-12.032,5.93-9.329Z"/>
      <path class="st14" d="M53.754,34.916c-1.695,1.14-2.792,2.6-3.291,4.386-.935-7.279-3.73-12.217-7.731-15.641.762-1.206,1.65-2.232,2.76-2.938,1.135,1.172,2.77,2.139,4.951,2.662.523,1.759,1.431,3.411,2.824,4.891-1.734.296-4.349,3.244.486,6.64Z"/>
      <path class="st14" d="M53.268,28.276c-1.394-1.48-2.301-3.133-2.824-4.891-.368-1.236-.545-2.523-.567-3.841-.03-1.663.192-3.372.592-5.084.187-.819.419-1.635.683-2.449-.345,1.063-.141,2.237.508,3.426,1.539,2.817,5.587,5.72,10.797,7.41,5.269,1.712,10.303,1.724,13.192.299,1.172-.575,1.991-1.389,2.326-2.422-.644,1.978-1.478,3.929-2.536,5.681-.74,1.223-1.589,2.348-2.56,3.318-.133.136-.269.266-.407.395v.076c-2.366.044-5.007,1.122-7.407,3.039-1.707.064-3.589-.222-5.673-.937-2.654-1.098-4.657-2.464-6.122-4.018Z"/>
      <path class="st14" d="M53.754,34.916c-4.835-3.397-2.22-6.344-.486-6.64,1.465,1.554,3.468,2.921,6.122,4.018,2.084.715,3.966,1.001,5.673.937-1.265,1.011-2.464,2.257-3.522,3.71-.229.316-.449.636-.654.957-.915-.153-1.875-.4-2.881-.745-1.82-.752-3.209-1.505-4.253-2.237Z"/>
      <path class="st6" d="M93.173,15.97c2.728.474,6.559,2.79,8.611,9.504-.925-1.288-1.852-2.262-2.777-2.916.427,1.613.668,3.108.654,4.442l-.022.015c-.723-1.218-1.667-2.156-2.76-2.903.535,1.443.705,2.92.646,4.423l-.02.015c-.915-1.354-1.845-2.294-2.782-2.918.481,1.445.688,2.93.656,4.445l-.022.015c-.728-1.179-1.598-2.21-2.782-2.918l-.005.005c.669,1.69.71,3.101.656,4.445-.871-1.751-1.899-3.199-2.992-4.327-3.954-4.08-8.732-3.949-9.741,1.204.192-1.618.59-3.083,1.292-4.571.005-.012.012-.027.02-.039.53-1.117,1.571-2.417,2.842-3.648,1.502-1.458,3.327-2.817,5.029-3.666.525-.264,1.036-.476,1.524-.629.528-.101,1.206-.114,1.973.022Z"/>
      <path class="st6" d="M90.233,27.297l-.111.104-2.296,8.286c-.604,1.958-.792,3.081-2.684,4.83l-2.975,2.482c.042-.183.079-.363.111-.545.212-1.149.279-2.262.192-3.303-.16-1.993-.871-3.722-2.141-4.921v-2.605c-.005-1.12.039-2.146.158-3.118-.002-.003,0-.003,0-.005,1.009-5.153,5.787-5.284,9.741-1.204h.005Z"/>
      <path class="st6" d="M56.694,54.743l-2.62,3.165h-.054l-2.607-3.15-2.607,3.15h-.054l-2.622-3.167-2.622,3.167h-.054l-2.622-3.167h-.015l-2.622,3.167c0-3.878.839-7.047,2.153-9.539,1.268-2.403,2.977-4.176,4.808-5.348,1.828-1.172,3.774-1.742,5.513-1.742h8.648c1.066,0,2.264-.03,3.436.094.587.062,1.167.163,1.719.323,2.282.659,4.114,2.348,4.114,6.653h-7.77c-.454.942-1.108,1.833-1.5,9.558l-2.622-3.165Z"/>
      <path class="st9" d="M185.535,144.757v1.512h-.197c-1.514-.629-3.357-.999-5.345-.999-1.071,0-1.858.074-2.815.269l-.022.022-1.369-1.307c1.266-.437,2.721-.686,4.27-.686,2.069,0,3.971.444,5.478,1.189Z"/>
      <path class="st12" d="M185.536,148.755v4.685l-.06.061-8.32-7.94.022-.022c.958-.195,1.744-.269,2.815-.269,1.988,0,3.831.37,5.345.999h.198v2.486Z"/>
      <path class="st12" d="M186.335,141.346l.04.022c-.543.964-.839,2.008-.839,3.095v.294c-1.507-.745-3.409-1.189-5.479-1.189-1.549,0-3.004.249-4.269.686l-2.724-2.598.074-.076c2.063-.871,4.228-1.3,6.855-1.3,2.297,0,4.458.387,6.342,1.066Z"/>
      <path class="st6" d="M139.364,171.609c2.807,3.273,5.299,4.287,5.299,4.287-1.204.567-2.181.683-3.486.683l.634,1.991s0,.002.003.005l.195.617v.019c-1.387.064-2.77.087-4.157.064l-.022,2.672h-.017c-1.105-.111-2.257-.247-3.567-.469l.232,2.857-3.365-.592v2.992s-2.336-.948-5.029-3.977c-.089-.101-.18-.202-.269-.308-2.805-3.273-4.867-7.595-7.671-10.634l-.084.015c-.217-1.329-.753-2.489-1.638-3.278l-9.112-8.69c-.947-.893-1.884-2.23-2.671-3.841h.002l2.669.755.358-3.685,2.565,1.549.908-4.06,2.669,1.388.695-3.524,2.457,1.176c.6-1.665,1.09-2.622,1.52-3.16.313,1.998,1.793,5.124,4.832,7.849,3.039,2.728,5.454,3.508,8.258,6.547,2.807,3.039,4.988,7.481,7.792,10.752Z"/>
      <path class="st6" d="M137.831,181.947l.022-2.672c1.386.023,2.77,0,4.156-.064v-.019l-.195-.617c.055.089.945,1.549,2.472,2.903,1.579,1.401,3.596,1.428,6.603,4.196,3.005,2.768,2.543,3.784,4.877,5.866,2.333,2.082,3.268,2.133,4.805,3.458,1.534,1.325,1.714,3.061,1.714,3.061h.003l-12.23,12.03s-.525-1.857-2.062-3.182c-1.534-1.325-5.35-2.753-7.684-4.835-2.333-2.081-2.543-4.232-5.55-7-3.007-2.768-5.915-3.268-7.494-4.667-.283-.252-.555-.506-.814-.765h-.002c-1.184-1.181-2.119-2.491-2.79-4.403l2.869.363-.447-2.842c2.694,3.029,5.03,3.977,5.03,3.977v-2.992l3.364.592-.231-2.857c1.309.222,2.461.358,3.566.469h.018Z"/>
      <path class="st6" d="M125.095,192.324c-1.226-1.467-2.018-2.987-2.018-2.987l3.375.304h.002c.259.259.53.513.814.764,1.579,1.399,4.487,1.9,7.494,4.667,3.007,2.768,3.216,4.919,5.55,7.001,2.333,2.081,6.149,3.51,7.683,4.834,1.537,1.325,2.063,3.182,2.063,3.182l-2.761,2.716s.249-1.658-1.931-3.811c-2.183-2.153-4.956-1.756-7.553-4.021-2.6-2.267-3.083-5.069-5.417-7.336-2.333-2.264-3.599-2.069-5.695-3.717-.587-.461-1.13-1.023-1.606-1.596Z"/>
      <path class="st6" d="M145.366,208.994c2.18,2.153,1.931,3.811,1.931,3.811-1.44,1.268-2.693,1.312-3.862,0l-21.497-20.515,3.157.034c.476.572,1.019,1.135,1.606,1.596,2.096,1.648,3.362,1.453,5.695,3.717,2.334,2.267,2.817,5.069,5.417,7.336,2.597,2.265,5.37,1.867,7.553,4.021Z"/>
      <path class="st14" d="M180.654,165.684v5.18c0,5.316-6.347,9.625-14.176,9.625-1.959,0-3.824-.271-5.518-.757l-.04.042-8.618-8.239v-5.851c0,5.316,6.346,9.625,14.176,9.625s14.176-4.309,14.176-9.625Z"/>
      <path class="st14" d="M180.654,154.658v5.772c0,5.316-6.347,9.625-14.176,9.625s-14.176-4.309-14.176-9.625v-5.772c0,1.7.648,3.296,1.786,4.682,2.424,2.95,7.064,4.943,12.39,4.943s9.965-1.993,12.387-4.943c1.14-1.386,1.789-2.982,1.789-4.682Z"/>
      <path class="st14" d="M180.654,176.044c.015,2.035-.291,4.277-.979,5.052l-6.658,6.549c-1.44,1.27-2.693,1.315-3.862,0l-8.234-7.871.039-.042c1.695.486,3.56.757,5.518.757,7.829,0,14.176-4.309,14.176-9.625v5.18Z"/>
      <path class="st14" d="M152.302,163.289v-2.859c0,5.316,6.346,9.625,14.176,9.625s14.176-4.309,14.176-9.625v5.254c0,5.316-6.347,9.625-14.176,9.625s-14.176-4.309-14.176-9.625v-2.395Z"/>
      <path class="st15" d="M180.654,154.658c0,1.7-.649,3.296-1.789,4.682-.843-4.134-6.068-7.314-12.387-7.314s-11.547,3.18-12.39,7.314c-1.138-1.386-1.786-2.982-1.786-4.682,0-.441.044-.878.128-1.305.197-.984.614-1.921,1.216-2.787,2.264-3.271,7.158-5.533,12.832-5.533,7.829,0,14.176,4.309,14.176,9.625Z"/>
      <path class="st14" d="M152.302,168.094v3.441l-4.265-4.077c-1.638-2.659-1.228-6.932,2.168-7.585.691.656,1.443,1.31,2.097,1.837v1.579c-2.533-.977-2.398,2.647-1.414,3.56.375.434.844.858,1.323,1.245h.091Z"/>
      <path class="st14" d="M153.644,150.564h.003c-.602.868-1.019,1.805-1.216,2.789-2.667-1.154-2.543,2.581-1.542,3.508.375.432.844.856,1.322,1.243h.091v3.606c-.653-.527-1.406-1.181-2.096-1.837-.528-.501-1.021-1.004-1.414-1.456-2.678-2.599-2.375-8.946,2.583-8.732,1.014.139,1.771.43,2.269.879Z"/>
      <path class="st14" d="M123.227,121.763c2.218,1.615,1.354,6.721-5.5,9.292-2.975,1.117-6.865,1.729-9.199.577l-.042-.008c.188-1.077.104-2.173-.202-3.248h.01c2.536.464,5.227.269,7.817-.703,2.977-1.118,5.436-3.217,7.067-5.94l.049.03Z"/>
      <path class="st14" d="M124.959,109.903c.296,1.381.422,2.738.397,4.048-.052,2.883-.836,5.545-2.178,7.782-1.63,2.723-4.09,4.822-7.067,5.94-2.59.972-5.281,1.166-7.817.7h-.01c-.53-1.874-1.734-3.69-3.352-5.244-.58-.575-1.154-1.12-1.714-1.65,3.021.609,6.618.318,10.187-1.021,5.062-1.9,8.781-5.429,10.128-9.117.681-1.855.758-3.749.101-5.496.607,1.367,1.044,2.726,1.325,4.058Z"/>
      <path class="st14" d="M120.599,102.168c7.715-5.676,11.62,4.972,4.763,11.783h-.005c.025-1.31-.101-2.667-.397-4.048h.002c2.203-2.832.886-6.561-1.909-5.254-.602-.984-1.438-1.815-2.454-2.481Z"/>
      <path class="st15" d="M123.635,105.845c.656,1.747.58,3.641-.101,5.496,0,0-1.085-1.924-3.372-3.002-2.287-1.08-3.046-.927-5.158-3.177-1.08-1.27-2.568-2.052-3.838-1.418-1.27.636-1.335,1.736-.368,2.817.965,1.078.225,2.19-.994,1.714-1.218-.476-2.02-1.288-3.312-2.985-.767-1.033-1.51-2.005-2.235-2.777l.091-.086c.629-.314,1.288-.597,1.969-.854,5.394-2.025,10.858-1.653,14.282.595,1.016.666,1.852,1.497,2.454,2.481.229.377.424.777.582,1.196Z"/>
      <path class="st15" d="M104.587,109.925c.508,1.589-.508,1.564-1.016,1.416-1.157-.325-1.914-1.741-3.113-1.033-1.199.708-1.016,2.158-.126,3.428.888,1.271-1.073,2.795-1.073,2.795l-.296.178c-.9-1.49-1.455-3.19-1.455-5.368v-3.189c.794-1.172,1.823-2.287,3.049-3.293l.162-.225c1.073,1.256,3.392,3.804,3.868,5.291Z"/>
      <path class="st6" d="M98.894,75.816c2.521,2.676,6.352,2.886,6.352,2.886-1.103,1.428-2.59,2.129-4.462,2.099.202,1.034.745,2.065,1.63,3.098-1.51.237-3.5.222-4.906-.106.284,1.051.868,2.099,1.751,3.15-1.396.261-3.212.21-4.61-.158l1.201,3.202-1.32-.37c-3.406-5.814-9.169-9.319-14.196-9.319v-11.581c0-.974.069-1.889.202-2.74,1.532,1.448,2.721,2.607,7.916,2.491,5.249.249,7.925,4.669,10.444,7.348h-.002Z"/>
      <path class="st9" d="M35.917,35.849c4.368,2.738,6.593,7.06,4.968,9.655-.153.242-.333.461-.54.656.819-2.62-1.379-6.391-5.333-8.87-3.956-2.479-8.315-2.81-10.311-.923.086-.274.205-.533.358-.779,1.626-2.595,6.487-2.479,10.858.261Z"/>
      <path class="st9" d="M28.813,48.35h-3.878v-.096l1.142-1.823c.678.567,1.413,1.105,2.203,1.598.178.111.353.217.53.321h.002Z"/>
      <path class="st9" d="M22.592,42.511l-2.116,3.382-.005.005c-.183-.284-.35-.57-.506-.858-.385-.71-.688-1.428-.908-2.141l.266-.081,1.929-3.073c.308.925.757,1.855,1.339,2.768Z"/>
      <path class="st9" d="M84.844,10.674c.232.17.439.368.619.587-2.555-1.002-6.263.73-9.008,4.502l-.039.035c-.36-.424-.772-.846-1.233-1.258,3.024-3.878,7.272-5.607,9.662-3.865Z"/>
      <path class="st9" d="M93.139,15.222c.02.244.032.493.035.747-.767-.136-1.445-.123-1.973-.022-.488.153-.999.365-1.524.629l-.03-.057c.249-1.182.343-2.331.279-3.407l2.933,2.136.281-.027Z"/>
      <path class="st9" d="M80.332,32.361v1.867c-.182-.178-.38-.34-.587-.491l-1.633-1.189.027-.04c.696.044,1.421-.007,2.161-.148h.032Z"/>
      <path class="st9" d="M78.494,45.925l.067.081-.654.545c-.725.626-1.571,1.088-2.538,1.386.155-.195.303-.392.451-.597.548-.752,1.031-1.524,1.45-2.306l1.224.89Z"/>
      <path class="st9" d="M82.474,39.149c.086,1.041.02,2.153-.192,3.303h-.01l-3.222-2.348c.197-1.061.269-2.094.212-3.069l2.933,2.134.279-.02Z"/>
      <path class="st9" d="M74.178,34.593c.232.17.439.368.619.587-2.553-1.004-6.475.927-9.22,4.699-.469.644-.747,1.112-1.093,1.776l-.012.042c-.552-.16-1.132-.261-1.719-.323l.01-.094c.387-.809.866-1.618,1.438-2.403,3.036-4.169,7.504-6.088,9.978-4.285Z"/>
      <path class="st9" d="M150.479,98.46c.289,0,.575.037.851.111-2.656.688-4.691,4.559-4.691,9.228s2.032,8.537,4.689,9.23c-.277.072-.56.109-.849.109-3.061,0-5.542-4.181-5.542-9.339s2.481-9.339,5.542-9.339Z"/>
      <path class="st9" d="M161.654,100.046h-3.994c-.461-.977-1.014-1.852-1.633-2.607h3.629l.276-.109c.656.777,1.238,1.69,1.724,2.714l-.002.002Z"/>
      <path class="st9" d="M163.309,107.799c0,.935-.064,1.845-.185,2.723l-.035-.005h-3.961c.121-.876.185-1.786.185-2.718s-.064-1.84-.185-2.716h3.961l.035-.005c.121.878.185,1.788.185,2.721Z"/>
      <path class="st9" d="M161.651,115.554c-.496,1.046-1.09,1.976-1.764,2.763l-.234-.158h-3.629c.617-.755,1.17-1.63,1.633-2.607h3.994v.002Z"/>
      <path class="st9" d="M209.297,152.125l-2.654,2.612-.049-.049v-3.044c.977-.464,1.852-1.016,2.607-1.635v2.017l.096.099Z"/>
      <path class="st9" d="M201.559,159.431l.153.156-1.904,1.874-.042-.044c-.449.449-.457.609-.923,1.075-.72.486-1.84,1.091-2.718.97v-6.058c.876.12,1.786.185,2.718.185s1.838-.062,2.716-.185v2.027Z"/>
      <path class="st9" d="M201.559,153.112v4.292c-.878.123-1.786.185-2.716.185s-1.842-.065-2.718-.185v-4.292c.876.12,1.786.185,2.718.185s1.84-.065,2.716-.185Z"/>
      <path class="st9" d="M191.091,151.641v4.292c-.977-.463-1.853-1.013-2.608-1.635v-4.289c.755.619,1.631,1.169,2.608,1.632Z"/>
      <path class="st9" d="M191.091,155.933v2.667l-.131.136-2.57-2.452.093-.099v-1.887c.755.622,1.631,1.172,2.608,1.635Z"/>
      <path class="st9" d="M208.18,144.463c0,.289-.037.573-.109.849-.693-2.657-4.56-4.689-9.227-4.689s-8.537,2.032-9.231,4.689c-.071-.276-.108-.56-.108-.849,0-3.061,4.181-5.542,9.339-5.542s9.336,2.481,9.336,5.542Z"/>
      <path class="st12" d="M151.328,117.029c2.659-.688,4.697-4.558,4.697-9.23s-2.038-8.54-4.694-9.228c-.277-.074-.563-.111-.851-.111-3.062,0-5.543,4.181-5.543,9.339s2.481,9.339,5.543,9.339c.288,0,.572-.037.848-.109ZM159.313,107.799c0,.932-.064,1.842-.185,2.718-.254,1.848-.763,3.555-1.468,5.035-.464.976-1.016,1.852-1.633,2.607-.316.382-.646.73-.991,1.046-2.664-1.367-6.11-.947-8.353.609-2.977-2.139-5.032-6.714-5.032-12.015,0-7.348,3.954-13.305,8.831-13.305,2.099,0,4.028,1.105,5.545,2.948.619.755,1.172,1.631,1.633,2.608.705,1.48,1.214,3.187,1.468,5.034.121.876.185,1.786.185,2.716Z"/>
      <path class="st12" d="M151.33,98.571c2.657.688,4.694,4.558,4.694,9.228s-2.037,8.542-4.696,9.23c-2.657-.693-4.689-4.563-4.689-9.23s2.035-8.54,4.691-9.228Z"/>
      <path class="st12" d="M81.805,23.89c-.007.012-.015.027-.02.039-.703,1.487-1.1,2.953-1.293,4.571,0,0-.005,0,0,.005-.022.116-.042.237-.062.358l-.096-.012c-2.612,1.347-5.289,1.709-7.449.873h-.003c.972-.972,1.82-2.097,2.56-3.32,1.853.266,4.186-.691,6.268-2.56l.096.047h-.002Z"/>
      <path class="st12" d="M85.463,11.261c-.18-.219-.387-.417-.619-.587-2.39-1.741-6.638-.012-9.662,3.865-.757-.683-1.645-1.342-2.639-1.963,3.569-4.63,8.589-7,12.395-6.122.811.185,1.566.52,2.242,1.011,1.697,1.236,2.607,3.266,2.745,5.649.064,1.076-.03,2.225-.279,3.407l.03.057c-1.702.848-3.527,2.208-5.03,3.666,2.04-3.444,2.375-7.092.817-8.981Z"/>
      <path class="st12" d="M85.463,11.261c1.559,1.89,1.223,5.538-.816,8.981-1.27,1.231-2.311,2.531-2.842,3.648l-.096-.047c-2.082,1.87-4.415,2.827-6.268,2.56,1.058-1.751,1.892-3.702,2.536-5.681.491-1.51-.126-3.244-1.561-4.926l.039-.035c2.745-3.772,6.453-5.503,9.008-4.502Z"/>
      <path class="st12" d="M79.261,37.035c.057.974-.015,2.008-.212,3.069-.303,1.611-.895,3.288-1.779,4.931-.419.782-.903,1.554-1.45,2.306-.148.205-.296.402-.451.597-.846.264-1.783.4-2.817.412h-2.205c.999-.784,1.964-1.776,2.817-2.945,2.748-3.777,3.382-8.106,1.633-10.224-.18-.22-.387-.417-.619-.587-2.474-1.803-6.941.116-9.978,4.285-.572.784-1.051,1.594-1.438,2.403l-.01.094c-1.172-.123-2.37-.094-3.436-.094h-.101v-.163c.434-1.08.992-2.163,1.672-3.219.205-.321.424-.641.654-.957,1.058-1.453,2.257-2.699,3.522-3.71,2.4-1.917,5.042-2.995,7.41-3.039,1.497-.03,2.886.353,4.038,1.191,1.7,1.238,2.61,3.266,2.748,5.651h.002Z"/>
      <path class="st12" d="M74.797,35.18c1.749,2.119,1.115,6.448-1.633,10.224-.854,1.169-1.818,2.161-2.817,2.945h-1.761c0-4.304-1.833-5.994-4.114-6.653l.012-.042c.345-.664.624-1.132,1.093-1.776,2.745-3.772,6.668-5.703,9.221-4.699Z"/>
      <path class="st12" d="M40.345,46.159c.207-.195.387-.414.54-.656,1.625-2.595-.599-6.917-4.968-9.655-4.371-2.74-9.233-2.856-10.858-.261-.153.247-.271.506-.358.779-.829,2.617,1.369,6.396,5.328,8.875,3.961,2.484,8.325,2.812,10.316.918ZM42.59,37.385c1.413,1.793,2.297,3.715,2.533,5.589l.032.047c-1.83,1.172-3.54,2.945-4.808,5.348l-.039-.02h-11.495c-.178-.104-.353-.21-.53-.321-.789-.493-1.524-1.031-2.203-1.601-1.431-1.194-2.61-2.533-3.488-3.917-.582-.913-1.031-1.843-1.339-2.768-.76-2.262-.671-4.482.444-6.263.187-.298.397-.575.629-.831,1.714-1.899,4.61-2.676,7.859-2.306.895.101,1.82.291,2.755.567,1.288.382,2.595.93,3.875,1.648h.002c.284.16.565.328.846.503.841.528,1.625,1.095,2.341,1.695.992.826,1.857,1.712,2.585,2.629Z"/>
      <path class="st12" d="M35.013,37.289c3.954,2.479,6.152,6.25,5.333,8.87-1.991,1.894-6.354,1.566-10.316-.918-3.959-2.479-6.157-6.258-5.328-8.875,1.996-1.887,6.354-1.556,10.311.923Z"/>
      <path class="st13" d="M80.332,28.851l.096.012c-.123.807-.16,1.724-.096,2.76v.738h-.032c-.74.141-1.465.192-2.161.148l-.027.04-1.598-1.164c-1.152-.839-2.541-1.221-4.038-1.191v-.076c.136-.128.271-.259.404-.395h.003c2.161.839,4.837.476,7.449-.871Z"/>
      <path class="st13" d="M93.139,15.222l-.281.027-2.933-2.136c-.138-2.383-1.048-4.413-2.745-5.649l3.229,2.353c1.64,1.194,2.546,3.128,2.731,5.404Z"/>
      <path class="st13" d="M82.271,42.45h.007c-.032.185-.069.365-.111.548l-3.606,3.009-.067-.081-1.223-.89c.883-1.643,1.475-3.32,1.778-4.931l3.222,2.346Z"/>
      <path class="st13" d="M82.473,39.149l-.279.02-2.933-2.134c-.138-2.385-1.048-4.413-2.748-5.651l1.598,1.164,1.633,1.189c.207.15.404.313.587.491,1.27,1.199,1.981,2.928,2.141,4.921Z"/>
      <path class="st13" d="M26.08,46.428l-1.142,1.825v.096h-2.541c-.745-.787-1.389-1.611-1.924-2.452l.005-.005,2.116-3.382c.878,1.384,2.057,2.723,3.488,3.917h-.002Z"/>
      <path class="st13" d="M18.777,41.776c-.328-1.783-.091-3.485.799-4.909l2.121-3.387c-1.115,1.781-1.204,4.001-.444,6.263l-1.929,3.073-.266.081c-.118-.375-.212-.752-.281-1.122Z"/>
      <path class="st13" d="M196.125,161.254c.878.121,1.785.183,2.718.183.308,0,.617-.008.922-.02l.042.044-3.682-.111c0,2.114-.06,2.457-1.229,1.142l-2.02-1.926.047-.049c1.001.33,2.074.579,3.202.737Z"/>
      <path class="st13" d="M159.653,118.159l.235.158c-.881,1.028-1.892,1.81-2.99,2.281l-.313-.296c-.471-.448-.994-.811-1.552-1.095.346-.318.676-.666.992-1.048h3.628Z"/>
      <path class="st13" d="M163.089,110.517l.034.005c-.256,1.848-.764,3.554-1.472,5.032l-3.989-.002c.706-1.48,1.214-3.187,1.468-5.035h3.961-.002Z"/>
      <path class="st13" d="M159.929,97.333l-.276.108h-3.628c-1.517-1.843-3.446-2.948-5.546-2.948h3.996c2.058,0,3.952,1.061,5.454,2.839Z"/>
      <path class="st13" d="M163.124,105.078l-.035.005h-3.961c-.254-1.847-.762-3.554-1.468-5.034h3.994c.705,1.477,1.216,3.182,1.47,5.029Z"/>
      <path class="st13" d="M212.149,149.113l.103.106-2.955,2.906-.096-.099v-2.018c1.843-1.517,2.948-3.445,2.948-5.545v4.65Z"/>
      <path class="st13" d="M188.483,154.298v1.887l-.093.099-2.913-2.783.059-.061v-4.685c0,2.1,1.105,4.028,2.947,5.543Z"/>
      <path class="st13" d="M188.483,150.008v4.29c-1.843-1.515-2.948-3.443-2.948-5.543v-4.292c0,2.1,1.105,4.028,2.948,5.545Z"/>
      <path class="st13" d="M206.642,154.737l-2.155,2.122-.077-.077c-.9.276-1.857.486-2.851.622v-4.292c1.847-.254,3.554-.762,5.034-1.468v3.044l.049.049Z"/>
      <path class="st13" d="M204.487,156.858l-2.775,2.729-.153-.156v-2.027c.994-.136,1.951-.346,2.851-.622l.077.076Z"/>
      <path class="st12" d="M208.071,145.312c.071-.276.108-.56.108-.849,0-3.061-4.178-5.542-9.336-5.542s-9.339,2.481-9.339,5.542c0,.289.037.573.109.849.688,2.662,4.558,4.697,9.23,4.697s8.539-2.035,9.228-4.697ZM212.148,144.463c0,2.1-1.105,4.029-2.948,5.546-.754.619-1.63,1.171-2.607,1.632-1.48.708-3.187,1.217-5.034,1.471-.876.12-1.786.185-2.716.185s-1.843-.065-2.718-.185c-1.848-.254-3.555-.763-5.035-1.471-.977-.463-1.852-1.013-2.607-1.632-1.843-1.517-2.948-3.446-2.948-5.546,0-1.087.296-2.131.839-3.095,1.892-3.35,6.761-5.735,12.469-5.735,7.348,0,13.305,3.954,13.305,8.83Z"/>
      <path class="st12" d="M208.071,145.312c-.688,2.661-4.556,4.696-9.227,4.696s-8.543-2.035-9.231-4.696c.693-2.657,4.564-4.689,9.231-4.689s8.534,2.032,9.227,4.689Z"/>
      <path class="st13" d="M196.125,157.403v3.851c-1.127-.158-2.2-.407-3.202-.738l-.046.05-1.917-1.831.131-.135v-2.667c1.48.708,3.187,1.216,5.034,1.47Z"/>
      <path class="st13" d="M196.125,153.111v4.292c-1.847-.254-3.554-.762-5.034-1.47v-4.292c1.48.708,3.187,1.216,5.034,1.47Z"/>
      <path class="st2" d="M116.422,168.553l-9.111-8.69"/>
      <path class="st2" d="M40.308,48.35h-19.191"/>
      <path class="st2" d="M72.553,48.35h-11.736"/>
      <path class="st2" d="M97.508,100.771v10.57"/>
      <path class="st2" d="M116.422,168.553c.885.789,1.421,1.949,1.638,3.278.074.454.111.93.111,1.416"/>
      <path class="st2" d="M156.897,120.598l-.313-.296"/>
      <path class="st2" d="M156.584,120.303c-.471-.449-.994-.812-1.551-1.096-2.664-1.369-6.11-.949-8.353.607-.123.084-.244.173-.36.267"/>
      <path class="st2" d="M107.311,159.863c-.948-.893-1.885-2.23-2.672-3.841-.064-.133-.128-.266-.19-.402"/>
      <path class="st2" d="M104.933,123.129c1.618,1.554,2.821,3.37,3.352,5.247.306,1.075.39,2.17.202,3.248-.118.708-.355,1.406-.723,2.09"/>
      <path class="st2" d="M103.216,121.479c-1.673-1.584-3.2-3.031-4.253-4.77-.9-1.49-1.455-3.19-1.455-5.368"/>
      <path class="st2" d="M104.932,123.129c-.58-.575-1.154-1.12-1.714-1.65"/>
      <path class="st2" d="M82.168,42.997l2.975-2.482"/>
      <path class="st2" d="M77.907,46.551l.654-.545,3.606-3.007"/>
      <path class="st2" d="M87.826,35.686l2.296-8.286"/>
      <path class="st2" d="M80.332,80.298v-11.581"/>
      <path class="st2" d="M94.528,89.617c-3.407-5.814-9.169-9.319-14.196-9.319"/>
      <path class="st2" d="M97.507,100.771c0-4.26-1.152-8.038-2.977-11.154"/>
      <path class="st2" d="M80.332,68.717c0-.974.069-1.889.202-2.74.012-.084.025-.168.039-.249"/>
      <path class="st2" d="M72.553,48.35c1.034-.012,1.971-.148,2.817-.412.967-.299,1.813-.76,2.538-1.386"/>
      <path class="st2" d="M85.143,40.515c1.892-1.749,2.079-2.871,2.684-4.83"/>
      <path class="st2" d="M206.593,151.644c-1.48.705-3.187,1.214-5.034,1.468-.876.12-1.786.185-2.716.185s-1.843-.065-2.718-.185c-1.848-.254-3.555-.763-5.035-1.471-.977-.463-1.852-1.013-2.607-1.632-1.843-1.517-2.948-3.446-2.948-5.546,0-1.087.296-2.131.839-3.095,1.892-3.35,6.761-5.735,12.469-5.735,7.348,0,13.305,3.954,13.305,8.83,0,2.1-1.105,4.029-2.948,5.546-.754.619-1.63,1.171-2.607,1.632"/>
      <path class="st2" d="M180.654,154.658c0,1.7-.649,3.296-1.789,4.682-2.422,2.95-7.062,4.943-12.387,4.943s-9.966-1.993-12.39-4.943c-1.138-1.386-1.786-2.982-1.786-4.682,0-.441.044-.878.128-1.305.197-.984.614-1.921,1.216-2.787,2.264-3.271,7.158-5.533,12.832-5.533,7.829,0,14.176,4.309,14.176,9.625Z"/>
      <path class="st2" d="M154.088,159.34c.843-4.134,6.07-7.314,12.39-7.314s11.544,3.18,12.388,7.314"/>
      <path class="st2" d="M180.654,160.43c0,5.316-6.347,9.625-14.176,9.625s-14.176-4.309-14.176-9.625"/>
      <path class="st2" d="M180.654,165.684c0,5.316-6.347,9.625-14.176,9.625s-14.176-4.309-14.176-9.625"/>
      <path class="st2" d="M180.654,170.864c0,5.316-6.347,9.625-14.176,9.625-1.959,0-3.823-.271-5.518-.757"/>
      <path class="st2" d="M180.654,176.044c.015,2.035-.291,4.277-.979,5.052"/>
      <path class="st2" d="M204.41,156.782c-.9.276-1.857.486-2.851.622-.879.123-1.786.185-2.716.185s-1.843-.065-2.718-.185c-1.848-.255-3.555-.763-5.035-1.471-.977-.463-1.852-1.013-2.607-1.635-1.843-1.515-2.948-3.443-2.948-5.543"/>
      <path class="st2" d="M199.765,161.417c-.305.012-.614.02-.922.02-.933,0-1.84-.062-2.718-.183-1.128-.158-2.201-.407-3.202-.737"/>
      <path class="st2" d="M189.613,145.312c-.071-.276-.108-.56-.108-.849,0-3.061,4.181-5.542,9.339-5.542s9.336,2.481,9.336,5.542c0,.289-.037.573-.109.849-.688,2.662-4.555,4.697-9.227,4.697s-8.542-2.035-9.231-4.697Z"/>
      <path class="st2" d="M189.613,145.314c.693-2.659,4.564-4.691,9.231-4.691s8.534,2.032,9.227,4.689"/>
      <path class="st2" d="M173.138,141.58c2.062-.871,4.228-1.3,6.855-1.3,2.296,0,4.457.387,6.341,1.066"/>
      <path class="st2" d="M175.775,144.259s.008-.003.013-.005c1.265-.437,2.72-.686,4.27-.686,2.069,0,3.971.444,5.478,1.189"/>
      <path class="st2" d="M177.179,145.539c.957-.195,1.744-.269,2.814-.269,1.988,0,3.831.37,5.345.999"/>
      <path class="st2" d="M157.658,115.552c-.464.977-1.017,1.852-1.633,2.607-.316.382-.646.73-.992,1.046"/>
      <path class="st2" d="M157.66,100.049c.706,1.48,1.214,3.187,1.468,5.034.121.876.185,1.786.185,2.716s-.064,1.842-.185,2.718c-.254,1.848-.762,3.555-1.468,5.035"/>
      <path class="st2" d="M146.68,119.814c-2.977-2.139-5.032-6.714-5.032-12.015,0-7.348,3.955-13.305,8.831-13.305,2.099,0,4.028,1.105,5.545,2.948.619.755,1.172,1.631,1.633,2.608"/>
      <path class="st2" d="M154.476,94.494c2.057,0,3.951,1.061,5.453,2.839.657.777,1.239,1.69,1.725,2.713.705,1.48,1.216,3.185,1.47,5.032.121.878.185,1.788.185,2.721s-.064,1.845-.185,2.723c-.257,1.848-.765,3.555-1.473,5.032-.496,1.046-1.09,1.976-1.764,2.763-.88,1.028-1.891,1.81-2.989,2.281"/>
      <path class="st2" d="M151.328,117.029c-.277.072-.56.109-.849.109-3.061,0-5.542-4.181-5.542-9.339s2.481-9.339,5.542-9.339c.289,0,.575.037.851.111,2.657.688,4.694,4.559,4.694,9.228s-2.037,8.542-4.696,9.23Z"/>
      <path class="st2" d="M151.331,117.029c-2.657-.693-4.689-4.563-4.689-9.23s2.035-8.54,4.691-9.228"/>
      <path class="st2" d="M154.475,94.494h-3.996"/>
      <path class="st2" d="M159.128,105.083h3.961"/>
      <path class="st2" d="M157.657,100.049h3.991"/>
      <path class="st2" d="M156.024,97.441h3.629"/>
      <path class="st2" d="M159.128,110.517h3.961"/>
      <path class="st2" d="M157.657,115.552h3.991"/>
      <path class="st2" d="M156.024,118.159h3.629"/>
      <path class="st2" d="M212.148,149.113v-4.65"/>
      <path class="st2" d="M185.535,153.44v-8.977"/>
      <path class="st2" d="M201.559,153.112v6.319"/>
      <path class="st2" d="M206.594,151.641v3.047"/>
      <path class="st2" d="M209.201,150.009v2.017"/>
      <path class="st2" d="M196.125,153.112v9.866"/>
      <path class="st2" d="M191.091,151.641v6.959"/>
      <path class="st2" d="M188.483,150.009v6.176"/>
      <path class="st2" d="M65.066,33.232c2.4-1.917,5.042-2.995,7.41-3.039,1.497-.03,2.886.353,4.038,1.191,1.7,1.238,2.61,3.266,2.748,5.651.057.974-.015,2.008-.212,3.069-.303,1.611-.895,3.288-1.778,4.931-.419.782-.903,1.554-1.45,2.306-.148.205-.296.402-.451.597-.007.01-.017.022-.025.032"/>
      <path class="st2" d="M59.215,41.118c.434-1.08.992-2.163,1.672-3.219.205-.321.424-.641.654-.957,1.058-1.453,2.257-2.699,3.522-3.71"/>
      <path class="st2" d="M79.745,33.737c.207.15.405.313.587.491,1.27,1.199,1.981,2.928,2.141,4.921.086,1.041.02,2.153-.192,3.303-.032.183-.069.363-.111.545"/>
      <path class="st2" d="M62.763,41.28c.387-.809.866-1.618,1.438-2.403,3.036-4.169,7.504-6.088,9.978-4.285.232.17.439.368.619.587,1.749,2.119,1.115,6.448-1.633,10.224-.853,1.169-1.818,2.161-2.817,2.945"/>
      <path class="st2" d="M64.484,41.655c.345-.664.624-1.132,1.093-1.776,2.745-3.772,6.667-5.703,9.22-4.699.003,0,.003.002.005.002"/>
      <path class="st2" d="M79.745,33.737l-1.633-1.189-1.598-1.164"/>
      <path class="st2" d="M77.271,45.035l1.223.89"/>
      <path class="st2" d="M79.047,40.101l.002.003,3.221,2.346"/>
      <path class="st2" d="M79.26,37.033l.002.002,2.933,2.134"/>
      <path class="st2" d="M36.817,32.558c.284.16.565.328.846.503.841.528,1.625,1.095,2.341,1.695.992.826,1.857,1.712,2.585,2.629,1.413,1.793,2.296,3.715,2.533,5.589"/>
      <path class="st2" d="M28.813,48.35c-.178-.104-.353-.21-.53-.321-.789-.493-1.524-1.031-2.203-1.601-1.431-1.194-2.61-2.533-3.488-3.917-.582-.913-1.031-1.843-1.339-2.768-.76-2.262-.671-4.482.444-6.263.187-.298.397-.575.629-.831,1.714-1.899,4.61-2.676,7.859-2.306.895.101,1.82.291,2.755.567,1.288.382,2.595.93,3.875,1.648"/>
      <path class="st2" d="M22.395,48.35c-.745-.787-1.389-1.611-1.924-2.452-.182-.284-.35-.57-.506-.858-.385-.71-.688-1.428-.908-2.141-.118-.375-.212-.752-.281-1.122-.328-1.783-.091-3.485.799-4.909"/>
      <path class="st2" d="M24.702,36.367c.086-.274.205-.533.358-.779,1.625-2.595,6.487-2.479,10.858.261,4.368,2.738,6.593,7.06,4.968,9.655-.153.242-.333.461-.54.656-1.991,1.894-6.354,1.566-10.316-.918-3.959-2.479-6.157-6.258-5.328-8.875Z"/>
      <path class="st2" d="M24.701,36.367c1.995-1.887,6.354-1.556,10.311.923,3.954,2.479,6.152,6.25,5.333,8.87,0,0-.002.005-.002.007"/>
      <path class="st2" d="M19.576,36.867l2.121-3.387"/>
      <path class="st2" d="M26.078,46.431l-1.142,1.823"/>
      <path class="st2" d="M22.593,42.511l-2.116,3.382"/>
      <path class="st2" d="M21.253,39.744l-1.929,3.073"/>
      <path class="st2" d="M59.316,57.908c0-17.247,9.27-16.995,9.27-9.558"/>
      <path class="st2" d="M59.316,41.28c1.066,0,2.264-.03,3.436.094.587.062,1.167.163,1.719.323,2.282.659,4.114,2.348,4.114,6.653"/>
      <path class="st2" d="M59.316,41.28h-8.648"/>
      <path class="st2" d="M50.668,41.28c-1.739,0-3.685.57-5.513,1.741-1.83,1.172-3.54,2.945-4.808,5.348-1.315,2.491-2.153,5.661-2.153,9.539"/>
      <path class="st2" d="M54.074,57.908l2.62-3.165.002-.002"/>
      <path class="st2" d="M54.021,57.908l-2.607-3.15-.015-.017"/>
      <path class="st2" d="M59.316,57.908l-2.622-3.165-.003-.002"/>
      <path class="st2" d="M43.508,57.908l2.622-3.167"/>
      <path class="st2" d="M38.194,57.908l2.622-3.167"/>
      <path class="st2" d="M43.453,57.908l-2.622-3.167"/>
      <path class="st2" d="M48.806,57.908l2.607-3.15.015-.017"/>
      <path class="st2" d="M48.752,57.908l-2.622-3.167"/>
      <path class="st2" d="M99.661,27.001c.015-1.334-.227-2.829-.654-4.443,0,0,0-.002-.003-.005"/>
      <path class="st2" d="M99.639,27.015c-.723-1.219-1.667-2.156-2.76-2.903l-.022-.015"/>
      <path class="st2" d="M101.785,25.474c-.925-1.288-1.852-2.262-2.777-2.916-.002,0-.002-.002-.005-.002"/>
      <path class="st2" d="M95.379,30.077c.032-1.515-.175-3-.656-4.445"/>
      <path class="st2" d="M93.226,31.623c.054-1.344.012-2.755-.656-4.445"/>
      <path class="st2" d="M95.357,30.091c-.728-1.179-1.598-2.21-2.782-2.918"/>
      <path class="st2" d="M97.525,28.535c.059-1.502-.111-2.98-.646-4.423-.005-.007-.007-.017-.01-.025"/>
      <path class="st2" d="M97.505,28.55c-.915-1.354-1.845-2.294-2.782-2.918"/>
      <path class="st2" d="M5.069,48.816l-.313,3.994"/>
      <path class="st2" d="M5.102,48.791l2.832,1.584.017.01"/>
      <path class="st2" d="M1.11,51.912l.044.01,3.601.888"/>
      <path class="st2" d="M8.629,46.167l-.696,4.208-.002.022"/>
      <path class="st2" d="M42.144,51.149h15.306"/>
      <path class="st2" d="M43.359,48.116h14.904"/>
      <path class="st2" d="M45.673,45.304h13.954"/>
      <path class="st2" d="M1.145,51.904s.007.012.01.017c2.484,4.534,5.56,6.011,7.617,5.318.227-.076.442-.178.641-.308,1.902-1.216,2.482-4.716-.123-9.479"/>
      <path class="st2" d="M8.419,42.469c1.152-4.179,7.205-5.964,10.358-.693.002.002.002.005.005.007"/>
      <path class="st2" d="M8.36,42.711c.017-.079.035-.158.057-.234"/>
      <path class="st2" d="M9.29,47.452c-.261-.439-.471-.871-.631-1.298-.469-1.233-.533-2.398-.303-3.429"/>
      <path class="st2" d="M17.588,49.265v3.752"/>
      <path class="st2" d="M17.588,49.265c0-1.658.429-2.649,1.253-3.414.002-.005.005-.007.007-.007.316-.293.688-.553,1.117-.804"/>
      <path class="st2" d="M8.771,57.239l.641-.308,8.175-3.915"/>
      <path class="st2" d="M13.503,36.868l8.818-4.223"/>
      <path class="st2" d="M8.354,42.726s.002-.01.005-.015c.017-.079.037-.158.057-.234.002-.002.002-.005.002-.007.71-2.632,2.703-4.507,5.084-5.602"/>
      <path class="st2" d="M72.542,12.576c.994.622,1.882,1.28,2.639,1.964.461.412.873.834,1.233,1.258,1.436,1.682,2.052,3.416,1.561,4.926-.336,1.033-1.154,1.847-2.326,2.422-2.888,1.426-7.923,1.413-13.192-.298-5.21-1.69-9.257-4.593-10.797-7.41"/>
      <path class="st2" d="M51.66,15.437c-.649-1.189-.853-2.363-.508-3.426.069-.215.16-.419.271-.617,1.394-2.472,5.932-3.409,11.292-2.489,1.28.22,2.61.545,3.954.982,2.198.713,4.186,1.643,5.871,2.689"/>
      <path class="st2" d="M51.66,15.437c2.886-1.431,7.93-1.421,13.204.293,5.338,1.734,9.294,4.457,10.747,7.341"/>
      <path class="st2" d="M65.066,33.231c-1.707.064-3.589-.222-5.673-.937-2.654-1.098-4.657-2.464-6.122-4.018-1.394-1.48-2.301-3.133-2.824-4.891-.368-1.236-.545-2.523-.567-3.841-.03-1.663.192-3.372.592-5.084.188-.819.419-1.635.683-2.449"/>
      <path class="st2" d="M77.977,20.723c-.644,1.978-1.478,3.929-2.536,5.681-.74,1.223-1.589,2.348-2.56,3.318-.133.136-.269.266-.407.395"/>
      <path class="st2" d="M60.888,37.899c-.915-.153-1.875-.4-2.881-.745-1.82-.752-3.209-1.505-4.253-2.237-4.835-3.397-2.22-6.344-.486-6.64h.003"/>
      <path class="st2" d="M50.444,23.385c-2.181-.523-3.816-1.49-4.951-2.662-4.363-4.494-1.428-12.032,5.93-9.329"/>
      <path class="st2" d="M49.711,19.547c-4.652-1.115-3.362-6.593.73-5.091"/>
      <path class="st2" d="M80.491,28.505c-.022.116-.042.237-.062.358-.123.807-.16,1.724-.096,2.76"/>
      <path class="st2" d="M93.225,31.623c-.871-1.751-1.899-3.199-2.992-4.327-3.954-4.08-8.732-3.949-9.741,1.204"/>
      <path class="st2" d="M101.785,25.474c-2.053-6.714-5.883-9.031-8.612-9.504-.767-.136-1.445-.123-1.973-.022"/>
      <path class="st2" d="M80.332,31.623v2.605"/>
      <path class="st2" d="M81.785,23.93s.012-.027.02-.039c.53-1.117,1.571-2.417,2.842-3.648,1.502-1.458,3.327-2.817,5.03-3.665.525-.264,1.036-.476,1.524-.629"/>
      <path class="st2" d="M80.332,31.623c-.005-1.12.04-2.146.158-3.118-.003-.003,0-.003,0-.005.192-1.618.59-3.083,1.292-4.571"/>
      <path class="st2" d="M85.44,23.071l6.524-5.587"/>
      <path class="st2" d="M88.4,23.811l6.524-5.587"/>
      <path class="st2" d="M90.621,25.291l6.524-5.587"/>
      <path class="st2" d="M80.332,28.851c-2.612,1.347-5.288,1.709-7.449.873"/>
      <path class="st2" d="M72.54,12.578l.003-.002c3.569-4.63,8.589-7,12.395-6.122.812.185,1.566.52,2.242,1.011,1.697,1.236,2.607,3.266,2.745,5.649.064,1.076-.03,2.225-.279,3.407"/>
      <path class="st2" d="M80.3,32.361c-.74.141-1.465.192-2.161.148"/>
      <path class="st2" d="M90.408,9.818c1.64,1.194,2.546,3.128,2.731,5.404.02.244.032.493.035.747v.035"/>
      <path class="st2" d="M81.709,23.844c-2.082,1.87-4.415,2.827-6.268,2.56-.005,0-.007-.003-.012-.003"/>
      <path class="st2" d="M75.182,14.539c3.024-3.878,7.272-5.607,9.662-3.865.232.17.439.368.619.587,1.559,1.889,1.224,5.538-.816,8.981-.007.015-.017.027-.025.042"/>
      <path class="st2" d="M76.455,15.763c2.745-3.772,6.453-5.503,9.008-4.502,0,0,0,.003.005.003"/>
      <path class="st2" d="M90.409,9.818l-3.229-2.353"/>
      <path class="st2" d="M89.925,13.113l2.933,2.136"/>
      <path class="st2" d="M33.737,18.735c3.377,1.164,6.433,2.736,8.996,4.926,4.001,3.424,6.796,8.362,7.731,15.641.084.641.153,1.3.205,1.978"/>
      <path class="st2" d="M34.561,21.937l-.824-3.202"/>
      <path class="st2" d="M30.713,22.497l3.848-.56"/>
      <path class="st2" d="M31.862,25.632l-1.149-3.135"/>
      <path class="st2" d="M28.579,26.737l3.283-1.105"/>
      <path class="st2" d="M30.222,30.008l-1.643-3.271"/>
      <path class="st2" d="M38.194,23.385l-5.254,7.526"/>
      <path class="st2" d="M41.613,26.184l-4.795,6.374h-.003v.002"/>
      <path class="st2" d="M44.43,29.401l-4.425,5.355"/>
      <path class="st2" d="M46.606,33.093l-4.016,4.292-.02.02"/>
      <path class="st2" d="M44.596,40.688l3.397-3.234"/>
      <path class="st2" d="M63.445,4.199c5.779-3.663,14.314-3.73,19.4-1.959"/>
      <path class="st2" d="M62.762,8.641c-.158-.451-.306-.93-.447-1.433"/>
      <path class="st2" d="M84.95,6.402c.022-.501.02-1.006-.002-1.519"/>
      <path class="st2" d="M62.276,7.063c-.298-1.238.04-2.176,1.056-2.79"/>
      <path class="st2" d="M84.935,4.65c.002-1.223-.75-1.996-2.089-2.41"/>
      <path class="st2" d="M50.464,39.302c.498-1.786,1.596-3.246,3.29-4.386h.003"/>
      <path class="st2" d="M42.73,23.663h.002c.762-1.206,1.65-2.232,2.76-2.938"/>
      <path class="st2" d="M105.245,78.702s-3.83-.21-6.351-2.886c-2.519-2.679-5.195-7.099-10.444-7.348-5.195.116-6.384-1.043-7.915-2.491"/>
      <path class="st2" d="M100.783,80.801c1.872.03,3.36-.671,4.462-2.099"/>
      <path class="st2" d="M97.508,83.793c1.406.328,3.396.343,4.906.106"/>
      <path class="st2" d="M94.648,86.785c1.399.368,3.214.419,4.61.158"/>
      <path class="st2" d="M94.648,86.785l1.201,3.202"/>
      <path class="st2" d="M94.528,89.617h.003l1.32.37"/>
      <path class="st2" d="M100.783,80.801c.202,1.034.745,2.065,1.631,3.098"/>
      <path class="st2" d="M97.508,83.793c.284,1.051.868,2.099,1.751,3.15"/>
      <path class="st2" d="M91.79,83.793l6.26-5.821"/>
      <path class="st2" d="M89.252,81.08l6.26-5.821"/>
      <path class="st2" d="M86.921,78.557l6.26-5.821"/>
      <path class="st2" d="M80.534,76.697l6.26-5.821"/>
      <path class="st2" d="M80.374,72.871l2.943-2.735"/>
      <path class="st2" d="M118.481,146.461c.314,1.998,1.794,5.124,4.833,7.849,3.039,2.728,5.453,3.508,8.258,6.547,2.807,3.039,4.988,7.481,7.792,10.752,2.807,3.273,5.299,4.287,5.299,4.287"/>
      <path class="st2" d="M118.144,171.816c2.804,3.039,4.866,7.361,7.671,10.634.089.106.18.207.269.309,2.693,3.029,5.029,3.976,5.029,3.976"/>
      <path class="st2" d="M131.113,183.743v2.992"/>
      <path class="st2" d="M134.478,184.335l-3.365-.592"/>
      <path class="st2" d="M134.246,181.478l.232,2.857"/>
      <path class="st2" d="M137.813,181.947c-1.105-.111-2.257-.247-3.567-.469"/>
      <path class="st2" d="M137.852,179.275l-.022,2.672v.017"/>
      <path class="st2" d="M142.009,179.211c-1.386.065-2.77.087-4.156.065"/>
      <path class="st2" d="M141.814,178.575l.195.617"/>
      <path class="st2" d="M141.178,176.579l.634,1.991"/>
      <path class="st2" d="M144.663,175.896c-1.204.568-2.18.683-3.485.683"/>
      <path class="st2" d="M104.642,156.02l2.669.757"/>
      <path class="st2" d="M107.668,153.092l-.357,3.685"/>
      <path class="st2" d="M110.233,154.641l-2.565-1.549"/>
      <path class="st2" d="M111.141,150.581l-.908,4.06"/>
      <path class="st2" d="M113.81,151.97l-2.669-1.389"/>
      <path class="st2" d="M114.505,148.445l-.695,3.524"/>
      <path class="st2" d="M116.963,149.621l-2.457-1.176"/>
      <path class="st2" d="M118.481,146.461c-.429.538-.92,1.495-1.519,3.16"/>
      <path class="st2" d="M109.881,159.375l7.841-6.078"/>
      <path class="st2" d="M111.879,161.816l7.841-6.077"/>
      <path class="st2" d="M114.173,164.11l7.841-6.078"/>
      <path class="st2" d="M119.501,167.737l7.842-6.078"/>
      <path class="st2" d="M121.795,169.883l7.841-6.078"/>
      <path class="st2" d="M123.349,172.769l7.841-6.078"/>
      <path class="st2" d="M126.309,177.208l7.841-6.077"/>
      <path class="st2" d="M128.528,180.168l7.842-6.077"/>
      <path class="st2" d="M104.348,102.427c.629-.314,1.288-.597,1.968-.854,5.395-2.025,10.859-1.653,14.282.595,1.017.666,1.853,1.497,2.455,2.481.229.377.424.777.582,1.196.656,1.747.58,3.641-.101,5.496-1.347,3.688-5.067,7.218-10.128,9.117-3.57,1.339-7.166,1.63-10.188,1.021h-.002"/>
      <path class="st2" d="M97.508,108.152c.794-1.172,1.823-2.287,3.049-3.293"/>
      <path class="st2" d="M123.635,105.845c.607,1.367,1.044,2.726,1.325,4.058.296,1.381.422,2.738.397,4.048-.052,2.883-.836,5.545-2.178,7.782-1.631,2.723-4.09,4.822-7.067,5.94-2.59.972-5.281,1.166-7.817.7"/>
      <path class="st2" d="M123.227,121.763c2.218,1.615,1.354,6.721-5.5,9.292-2.975,1.117-6.865,1.729-9.199.577"/>
      <path class="st2" d="M123.533,111.341s-1.085-1.924-3.372-3.002c-2.286-1.08-3.046-.927-5.157-3.177-1.081-1.27-2.568-2.052-3.839-1.418-1.27.636-1.334,1.736-.367,2.817.964,1.078.224,2.19-.994,1.714-1.219-.476-2.02-1.288-3.313-2.985-.767-1.033-1.51-2.005-2.235-2.777-1.29-1.372-2.523-2.107-3.734-1.416-1.263.725-.952,2.161,0,3.303.059.071.126.15.197.234,1.073,1.256,3.392,3.804,3.868,5.291.508,1.589-.508,1.564-1.016,1.416-1.157-.326-1.915-1.741-3.113-1.034-1.199.708-1.017,2.159-.126,3.429.888,1.27-1.073,2.795-1.073,2.795"/>
      <path class="st2" d="M103.216,97.368s-2.403-1.307-2.432-2.874c-.028-1.566,1.66-1.406,2.548-.701.885.705,1.855,2.005,1.914,3.034.059,1.029-1.024,1.137-2.03.54Z"/>
      <path class="st2" d="M120.599,102.168c7.715-5.676,11.62,4.972,4.763,11.783"/>
      <path class="st2" d="M123.053,104.649c2.794-1.307,4.112,2.422,1.909,5.254"/>
      <path class="st2" d="M147.297,212.805l2.76-2.716,12.23-12.027.281-.279"/>
      <path class="st2" d="M150.8,205.812l7.634-7.511"/>
      <path class="st2" d="M147.914,203.592l7.634-7.511"/>
      <path class="st2" d="M145.028,201.372l7.635-7.511"/>
      <path class="st2" d="M142.068,196.932l7.635-7.511"/>
      <path class="st2" d="M139.626,194.342l7.634-7.511"/>
      <path class="st2" d="M135.778,192.122l7.635-7.511"/>
      <path class="st2" d="M132.966,189.902l7.634-7.511"/>
      <path class="st2" d="M121.938,192.29l21.497,20.515"/>
      <path class="st2" d="M173.018,187.645l6.657-6.549"/>
      <path class="st2" d="M148.037,167.458l4.265,4.077,8.619,8.239,8.233,7.871"/>
      <path class="st2" d="M173.017,187.645c-1.44,1.27-2.694,1.315-3.863,0"/>
      <path class="st2" d="M198.76,162.492l1.048-1.031,1.904-1.874,2.775-2.729,2.156-2.121,2.654-2.612,2.955-2.906.595-.584"/>
      <path class="st2" d="M172.756,141.363l.308.293,2.723,2.598,1.369,1.307,8.32,7.94,2.914,2.783,2.57,2.452,1.916,1.83,2.021,1.926"/>
      <path class="st2" d="M198.759,162.492c-1.44,1.271-2.693,1.315-3.863,0"/>
      <path class="st2" d="M180.654,176.044v-21.386"/>
      <path class="st2" d="M152.302,171.562v-16.904"/>
      <path class="st2" d="M148.792,158.417c.392.452.886.955,1.413,1.456.691.656,1.443,1.31,2.097,1.837"/>
      <path class="st2" d="M148.792,158.417c-2.678-2.599-2.375-8.946,2.583-8.732"/>
      <path class="st2" d="M151.375,149.685c1.014.138,1.771.43,2.269.878"/>
      <path class="st2" d="M150.889,156.861c.375.432.843.856,1.322,1.243"/>
      <path class="st2" d="M150.888,156.861c-1.001-.928-1.124-4.662,1.542-3.508"/>
      <path class="st2" d="M148.037,167.458c-1.638-2.659-1.228-6.932,2.168-7.585"/>
      <path class="st2" d="M150.889,166.848c.375.435.843.859,1.322,1.246"/>
      <path class="st2" d="M150.889,166.849c-.984-.913-1.12-4.537,1.413-3.56.042.017.084.035.128.054"/>
      <path class="st2" d="M162.285,198.059s-.18-1.736-1.714-3.061c-1.537-1.325-2.472-1.376-4.806-3.458-2.333-2.082-1.872-3.098-4.876-5.866-3.007-2.768-5.025-2.795-6.603-4.196-1.527-1.354-2.418-2.814-2.472-2.903-.002-.002-.002-.005-.002-.005"/>
      <path class="st2" d="M126.452,189.641c-1.184-1.182-2.119-2.492-2.79-4.403"/>
      <path class="st2" d="M150.058,210.089s-.526-1.857-2.063-3.182c-1.534-1.325-5.35-2.753-7.683-4.835-2.334-2.081-2.543-4.232-5.55-7-3.007-2.768-5.915-3.268-7.494-4.667-.284-.252-.555-.506-.814-.765"/>
      <path class="st2" d="M123.077,189.337s.792,1.52,2.018,2.987c.476.573,1.019,1.135,1.606,1.596,2.096,1.648,3.362,1.453,5.695,3.717,2.334,2.267,2.817,5.069,5.417,7.336,2.597,2.265,5.37,1.868,7.553,4.021,2.18,2.153,1.931,3.811,1.931,3.811-1.44,1.268-2.693,1.312-3.862,0"/>
      <path class="st2" d="M123.662,185.238l2.869.362"/>
      <path class="st2" d="M123.077,189.337l3.375.304h.002"/>
      <path class="st2" d="M121.938,192.29l3.157.034h.002"/>
      <path class="st2" d="M126.53,185.6l-.446-2.841"/>
      <path class="st11" d="M228.929,155.613v.126c-4.733,1.053-6.948,5.323-7.706,11.45-.754-6.127-2.969-10.397-7.705-11.45v-.126c4.736-1.053,6.951-5.323,7.705-11.45.758,6.127,2.973,10.397,7.706,11.45Z"/>
      <path class="st11" d="M202.175,125.401v.091c-4.151.785-6.092,3.954-6.753,8.508-.664-4.554-2.605-7.723-6.754-8.508v-.091c4.149-.784,6.09-3.954,6.754-8.507.661,4.553,2.602,7.723,6.753,8.507Z"/>
      <path class="st11" d="M188.863,177.073v.084c-4.151.725-6.093,3.655-6.754,7.861-.663-4.206-2.605-7.136-6.754-7.861v-.084c4.149-.725,6.091-3.653,6.754-7.859.661,4.206,2.603,7.134,6.754,7.859Z"/>
      <path class="st11" d="M166.249,178.846v.067c-3.222.562-4.729,2.839-5.245,6.105-.515-3.266-2.022-5.543-5.246-6.105v-.067c3.224-.562,4.731-2.836,5.246-6.102.516,3.266,2.023,5.54,5.245,6.102Z"/>
      <path class="st11" d="M146.814,212.842v.123c-4.756,1.054-6.978,5.311-7.738,11.424-.76-6.113-2.985-10.37-7.738-11.424v-.123c4.753-1.051,6.978-5.308,7.738-11.421.76,6.113,2.982,10.37,7.738,11.421Z"/>
      <path class="st1" d="M221.224,144.163c.757,6.127,2.972,10.397,7.706,11.45"/>
      <path class="st1" d="M221.223,144.163c-.754,6.127-2.969,10.397-7.705,11.45"/>
      <path class="st1" d="M221.224,167.189c.757-6.127,2.972-10.397,7.706-11.45"/>
      <path class="st1" d="M221.223,167.189c-.754-6.127-2.969-10.397-7.705-11.45"/>
      <path class="st1" d="M195.422,116.894c.661,4.553,2.602,7.723,6.754,8.507"/>
      <path class="st1" d="M195.422,116.894c-.664,4.553-2.605,7.723-6.754,8.507"/>
      <path class="st1" d="M195.422,134c.661-4.554,2.602-7.723,6.754-8.508"/>
      <path class="st1" d="M195.422,134c-.664-4.554-2.605-7.723-6.754-8.508"/>
      <path class="st1" d="M182.109,169.214c.661,4.206,2.603,7.134,6.754,7.859"/>
      <path class="st1" d="M182.109,169.214c-.663,4.206-2.605,7.134-6.754,7.859"/>
      <path class="st1" d="M182.109,185.018c.661-4.206,2.603-7.136,6.754-7.861"/>
      <path class="st1" d="M182.109,185.018c-.663-4.206-2.605-7.136-6.754-7.861"/>
      <path class="st1" d="M161.005,172.744c.515,3.266,2.023,5.54,5.244,6.102"/>
      <path class="st1" d="M161.004,172.744c-.515,3.266-2.022,5.54-5.246,6.102"/>
      <path class="st1" d="M161.005,185.018c.515-3.266,2.023-5.543,5.244-6.105"/>
      <path class="st1" d="M161.004,185.018c-.515-3.266-2.022-5.543-5.246-6.105"/>
      <path class="st1" d="M139.076,201.421c.76,6.113,2.982,10.37,7.738,11.421"/>
      <path class="st1" d="M139.076,201.421c-.76,6.113-2.985,10.37-7.738,11.421"/>
      <path class="st1" d="M139.076,224.388c.76-6.112,2.982-10.369,7.738-11.423"/>
      <path class="st1" d="M139.076,224.388c-.76-6.112-2.985-10.369-7.738-11.423"/>
    </g>
  </g>
</svg>