<svg xmlns="http://www.w3.org/2000/svg" id="Layer_1" viewBox="0 0 230 240"><defs><clipPath id="clippath"><path d="M0 0h229.63v240H0z" class="st0"/></clipPath><style>.st0,.st1,.st2,.st3{fill:none}.st4{fill:#0676de}.st5{fill:#5ab0ff}.st6{fill:#fffaf0}.st7{fill:#0164bf}.st1{stroke:#5ab0ff}.st1,.st2,.st3{stroke-linecap:round;stroke-linejoin:round}.st8{fill:#8dc8ff}.st9{fill:#002140}.st10{fill:#003c73}.st2{stroke:#002140}.st11{fill:#e5fafe}.st12{fill:#fed607}.st3{stroke:#fcdcff}.st13{fill:#e4bc07}.st14{fill:#f68dfe}.st15{fill:#e96df2}.st16{clip-path:url(#clippath)}.st17{fill:#722b03}</style></defs><g class="st16"><path d="M162.569 193.92c1.549 1.537 1.505 2.43 0 3.863l-3.734 3.673-.094-.096-21.455-20.521c-1.228-1.045-2.482-1.225-3.863 0l-11.645 11.199-.049.052-3.705-3.537c-1.211-1.246-.898-2.899 0-3.861l15.399-14.953c1.381-1.225 2.635-1.045 3.863 0zm25.72-25.16c1.549 1.537 1.505 2.432 0 3.863l-3.732 3.67-.094-.093-21.455-20.521c-1.231-1.046-2.484-1.226-3.863 0l-11.647 11.199-.05.052-3.705-3.535c-1.211-1.243-.897-2.901 0-3.863l15.402-14.953c1.379-1.226 2.632-1.046 3.863 0zm25.742-25.153c1.549 1.537 1.505 2.433 0 3.863l-3.734 3.673-.094-.096-21.455-20.52c-1.229-1.046-2.482-1.224-3.863 0l-11.645 11.198-.049.052-3.705-3.535c-1.212-1.243-.898-2.898 0-3.862l15.399-14.953c1.381-1.224 2.634-1.046 3.863 0z" class="st7"/><path d="m210.203 151.047.093.096-11.536 11.349c-1.441 1.271-2.694 1.315-3.863 0l-21.707-20.715.05-.051 11.645-11.199c1.381-1.224 2.634-1.046 3.863 0zm-25.646 25.246-11.539 11.352c-1.441 1.27-2.694 1.315-3.863 0l-21.707-20.715.05-.052 11.647-11.199c1.379-1.226 2.632-1.045 3.863 0l21.455 20.521zm-25.816 25.067.094.096-11.537 11.349c-1.441 1.268-2.694 1.312-3.863 0l-21.706-20.715.049-.052 11.645-11.199c1.381-1.226 2.634-1.046 3.863 0z" class="st5"/><path d="m193.333 79.398-.094 40.29-.103.111-3.76-3.515-.01.013a9 9 0 0 0-.434-.363l.015-.017.094-34.733h-.047c0-3.51-1.337-6.401-3.725-8.712l-63.928-60.981c-2.575-2.432-4.416-1.337-4.416 2.925h.003l-.131 43.995-4.317-4.119.025-.025.17-41.748h-.002c-.037-7.716 6.948-8.579 10.831-4.887l66.057 63.053c2.388 2.311 3.725 5.202 3.725 8.712z" class="st7"/><path d="M125.808 37.699v.007l-.13 29.154-.013.012-1.218-1.164-3.098-2.955.037-.04.167-26.904q0-.07.003-.141c.047-7.585 7.027-8.416 10.885-4.746l48.167 45.979c2.388 2.311 3.724 5.202 3.724 8.712h.047l-.093 30.019.024.059q-.397.262-.828.615l-2.985 2.886-.16-.168-.373-.355.03-.03.047-32.469c0-3.434-.906-4.694-2.304-6.098l-47.459-45.293c-2.575-2.43-4.47-1.339-4.47 2.918Z" class="st7"/><path d="m174.759 91.289-.093 22.313-.005.007-4.371-4.168.084-.089.093-17.494c0-3.436-.981-4.768-2.38-6.172l-28.939-27.607c-2.575-2.432-4.524-1.547-4.524 2.713l-.066 14.536-.013.012-4.279-4.082.076-12.476c-.039-7.716 7.087-8.253 10.969-4.561l29.724 28.354c2.387 2.311 3.724 5.202 3.724 8.712Zm-1.724 116.119 16.196-15.833 9.716-9.5 14.351-14.03c2.99-2.94 5.168-5.984 5.168-10.227h.015v4.467h-.003c0 4.176 0 6.596-2.688 9.24l-66.632 65.37c-2.445 2.641-5.102 2.331-7.583-.25L30.915 131.358c-1.556-1.522-2.925-2.41-2.898-6.472-.062-3.264.71-4.615 2.689-6.53-1.732 1.725-2.531 4.159.21 6.86l16.532 15.73L66.95 159.5l18.996 18.074 19.344 18.404 8.653 8.233 27.634 26.292c1.236 1.286 2.516 2.008 3.791 2.082 1.285.074 2.566-.508 3.792-1.832l15.685-15.336 8.192-8.009Z" class="st7"/><path d="m189.367 116.297.01-.013 3.759 3.515 22.409 20.945c2.627 2.531 2.936 3.342 2.936 7.575v9.499h-.015c0 4.243-2.178 7.287-5.168 10.227l-14.351 14.03-.017-.017c-.686.636-1.391.947-2.102.957-.939.02-1.884-.481-2.794-1.428l.009-.01-1.102-1.1h-.202v-7.005c0-4.233-.309-5.047-2.936-7.576l-24.516-22.915.116-.126v-4.612q0-.544.017-1.017c.114-3.061.787-4.126 2.415-5.794l12.662-12.239 2.984-2.886q.432-.352.829-.615c1.705-1.124 2.997-1.046 4.623.242q.213.166.434.363m24.664 31.173c1.505-1.43 1.549-2.326 0-3.862l-25.283-24.181c-1.229-1.046-2.482-1.224-3.863 0l-15.4 14.953c-.898.964-1.211 2.619 0 3.863l3.705 3.534 21.707 20.715c1.169 1.315 2.422 1.271 3.863 0l11.536-11.349z" class="st5"/><path d="m163.624 141.449.01-.012 1.653 1.544 24.516 22.915c2.627 2.529 2.935 3.343 2.935 7.576v9.546c0 4.627 0 5.128-3.517 8.547l.01.009-16.196 15.834c-1.532 1.278-3.163.945-4.694-.649l.009-.007-1.102-1.103h-.23v-7.017c0-4.233-.308-5.047-2.935-7.576l-24.514-22.915.092-.096v-4.65q0-.487.014-.92c.102-3.135.772-4.206 2.42-5.893l.395-.382 15.251-14.741c1.737-1.408 3.007-1.756 4.428-1.041.464.232.94.575 1.455 1.031m24.664 31.174c1.505-1.431 1.55-2.326 0-3.863l-25.28-24.181c-1.231-1.045-2.484-1.225-3.863 0l-15.402 14.953c-.898.962-1.211 2.62 0 3.863l3.705 3.535 21.707 20.715c1.169 1.315 2.422 1.27 3.862 0l11.539-11.352z" class="st5"/><path d="m118.024 188.553 3.705 3.537 21.706 20.715c1.17 1.312 2.423 1.268 3.863 0l11.537-11.349 3.734-3.673c1.505-1.433 1.549-2.326 0-3.863l-25.283-24.181c-1.228-1.045-2.482-1.225-3.863 0l-15.399 14.953c-.898.962-1.211 2.615 0 3.861m27.343 44.032c-1.276-.074-2.556-.797-3.792-2.082l-27.634-26.292v-15.656q-.001-.564.02-1.056c.116-3.031.792-4.094 2.413-5.757l6.845-6.615 8.801-8.51c1.734-1.406 3.004-1.754 4.422-1.046.464.232.945.577 1.463 1.036l.01-.013 1.655 1.547 24.514 22.915c2.627 2.529 2.935 3.343 2.935 7.576v9.607h-.02c0 3.932 0 4.884-2.155 7.178l-15.686 15.335c-1.226 1.325-2.506 1.907-3.791 1.833" class="st5"/><path d="M165.403 141.262v1.593l-.116.126-1.653-1.544-.01.012c-.515-.456-.991-.799-1.455-1.031l.015-.029 1.137-1.113z" class="st7"/><path d="M139.579 162.473h.096q-.015.435-.015.922v4.65l-.091.096-1.655-1.547-.01.013c-.518-.459-.999-.804-1.463-1.036l.037-.069zm23.742-23.197 2.099-2.05q-.018.473-.017 1.017v3.019zm0 0-1.137 1.113-.015.029c-1.421-.715-2.691-.367-4.428 1.041L142.49 156.2l-.395-.41-17.128-16.339 19.04-18.601zM143.92 84.287l18.972 18.098-.235.246-18.65 18.219-18.974-18.1 18.754-18.323.133-.141Z" class="st10"/><path d="M196.828 183.015c.71-.01 1.416-.321 2.101-.957l.018.017-9.716 9.499-.01-.01c3.517-3.418 3.517-3.919 3.517-8.547v-2.54h.202l1.103 1.1-.01.01c.91.947 1.855 1.448 2.795 1.428m-16.492-63.99.16.168-12.661 12.239c-1.628 1.668-2.302 2.733-2.415 5.794l-2.099 2.05-19.314-18.426 18.65-18.219.235-.246 7.397 7.057 4.371 4.169 5.303 5.059zm-7.301 88.383-8.192 8.009c2.156-2.294 2.156-3.246 2.156-7.178h.019v-2.59h.23l1.102 1.103-.009.007c1.531 1.594 3.162 1.927 4.694.649m-29.028-86.558-19.04 18.601-18.974-18.1 19.04-18.601zm-13.742-49.59 4.28 4.082 9.376 8.944-.134.141-18.754 18.323-19.471-18.577 18.635-18.206.249-.259 1.219 1.164zm11.83 84.53.395.41-.395.382c-1.648 1.687-2.319 2.758-2.42 5.893h-.096l-3.1 3.027-.037.069c-1.419-.708-2.689-.36-4.423 1.046l-8.801 8.51-17.59-16.781 19.339-18.895z" class="st7"/><path d="m105.562 84.173 19.472 18.577-19.041 18.601-19.471-18.577zm.431 37.178 18.974 18.1-19.339 18.895-18.976-18.103zm10.805-62.94 4.551 4.341 3.098 2.955-.249.259-18.636 18.206-19.849-18.937-.308-.316 16.199-15.824c1.332-1.352 4.048-1.431 5.432 0l5.446 5.195 4.317 4.119Zm6.42 116.716-6.845 6.615c-1.62 1.663-2.296 2.726-2.412 5.757l-8.592 8.395-.081.083-19.344-18.403 19.684-19.228z" class="st10"/><path d="m105.369 195.894 8.592-8.394q-.021.49-.02 1.055v15.656l-8.653-8.234zm-18.847-93.12 19.472 18.577-19.342 18.892-19.472-18.576zm19.106 55.572-19.684 19.228L66.948 159.5l.089-.093 19.615-19.164z" class="st7"/><path d="m85.713 65.237 19.849 18.937-19.04 18.601-20.089-19.163-.079-.079 19.05-18.611.308.316Z" class="st7"/><path d="m86.652 140.243-19.615 19.164-.089.093-19.501-18.554 19.733-19.279z" class="st10"/><path d="M86.521 102.774 67.18 121.667l-20.135-19.208-.032-.032 19.341-18.895.079.079 20.089 19.163Z" class="st10"/><path d="m67.18 121.667-19.733 19.279-16.532-15.73c-2.74-2.701-1.941-5.136-.21-6.86l16.307-15.929.032.032 20.135 19.208Z" class="st7"/><path d="m149.157 236.895 66.632-65.37M30.915 131.358l110.66 105.287m0 0c2.482 2.58 5.138 2.891 7.583.249m-.001-6.141 15.686-15.336 8.192-8.009 16.196-15.834 9.716-9.499 14.351-14.03m-96.925 13.697 6.845-6.615 8.801-8.51m-13.996 18.075 15.4-14.952m13.875 43.065 11.536-11.349 3.735-3.673M30.706 118.356l16.307-15.929 19.341-18.895 19.05-18.611 16.199-15.824m-70.688 76.119 16.532 15.73L66.948 159.5l18.996 18.074 19.344 18.403 8.653 8.234 27.634 26.292m25.673-24.854 1.103 1.103.037.037m-30.474-40.195 1.655 1.547 24.514 22.915m-26.798-21.316 25.283 24.18m-44.545-5.367 3.705 3.537 21.707 20.715M107.034 49.097l5.447 5.195 4.316 4.119 4.551 4.341 3.098 2.955 1.219 1.164 4.6 4.388 4.28 4.082 9.376 8.944 18.971 18.098 7.397 7.057 4.371 4.168 5.304 5.06.372.355m-41.189-60.942 28.939 27.607m-26.774-31.465 29.723 28.354m-40.758-47.796 47.459 45.293m-45.295-49.151 48.167 45.979m-59.267-65.411 63.928 60.981M123.504 7.633l66.057 63.053" class="st2"/><path d="M141.575 230.503c1.236 1.286 2.516 2.008 3.791 2.082 1.286.074 2.566-.508 3.792-1.832m19.183-23.994c1.532 1.594 3.162 1.927 4.694.649q.252-.207.501-.476M30.915 131.358c-1.556-1.522-2.925-2.41-2.898-6.473" class="st2"/><path d="M30.706 118.356c-1.978 1.915-2.75 3.266-2.689 6.53m187.773 46.639c2.689-2.644 2.689-5.064 2.689-9.24M107.034 49.097c-1.384-1.431-4.099-1.352-5.431 0m111.695 118.948c2.989-2.94 5.168-5.984 5.168-10.227m-29.245 33.747c3.517-3.419 3.517-3.92 3.517-8.547m-29.257 33.768c.531-.515.98-.962 1.362-1.369 2.156-2.294 2.156-3.246 2.156-7.178" class="st2"/><path d="M30.915 125.216c-2.74-2.701-1.941-5.135-.21-6.86m114.661 114.229v-13.833m-31.425-14.541v-15.656m53.078 19.684v-9.607m-48.995-13.94c-.898.962-1.211 2.615 0 3.861m44.544 5.367c1.549 1.537 1.505 2.43 0 3.863m-15.271 15.022c-1.44 1.268-2.693 1.312-3.862 0m-6.149-43.066c-1.229-1.045-2.482-1.225-3.863 0m-11.646 22.299 11.645-11.199m3.863 0 21.455 20.521m-21.454-20.521c-1.229-1.046-2.482-1.226-3.863 0m-1.403-14.222c1.734-1.406 3.004-1.754 4.422-1.046.464.232.945.577 1.463 1.036q.004.007.01.01m-23.974 21.938q-.001-.565.02-1.056c.116-3.031.792-4.094 2.413-5.757m47.709 9.314c2.627 2.529 2.935 3.343 2.935 7.576m-24.922-42.05.394-.382 15.252-14.741m-13.999 18.073 15.402-14.953m13.873 43.066 11.539-11.352 3.732-3.67m-24.654-31.186 1.652 1.544 24.517 22.915m-26.796-21.317 25.281 24.181m-44.546-5.365 3.705 3.535 21.707 20.715m1.931 20.545v-14.598m21.652-10.575v-9.546m-48.995-13.939c-.897.962-1.211 2.62 0 3.863m44.546 5.365c1.549 1.537 1.505 2.432 0 3.863m-15.271 15.022c-1.44 1.27-2.694 1.315-3.863 0m-6.147-43.066c-1.231-1.046-2.484-1.226-3.862 0m-11.649 22.299 11.648-11.199m3.863 0 21.455 20.521m-21.455-20.521c-1.231-1.045-2.484-1.226-3.862 0m-1.405-14.22c1.737-1.408 3.007-1.756 4.428-1.041.464.232.94.575 1.455 1.031l.01.01m-23.973 21.936q0-.487.015-.92c.101-3.135.772-4.206 2.42-5.893m47.708 9.314c2.627 2.529 2.935 3.343 2.935 7.576m-24.904-42.04 12.661-12.239 2.985-2.886m-13.996 18.073 15.4-14.953m13.875 43.065 11.536-11.349 3.735-3.673m-24.654-31.186 3.759 3.515 22.41 20.945m-26.799-21.317 25.283 24.18m-44.545-5.364 3.705 3.534 21.707 20.715m1.931 20.525v-14.578m-31.425-25.584v-4.612m53.077 24.735v-14.659m-48.994-13.939c-.898.964-1.212 2.619 0 3.863m44.545 5.365c1.549 1.536 1.505 2.432 0 3.862m-15.272 15.022c-1.44 1.271-2.693 1.315-3.863 0m-6.148-43.065c-1.229-1.046-2.482-1.224-3.863 0m-11.646 22.299 11.645-11.199m3.863 0 21.455 20.52m-21.454-20.52c-1.229-1.046-2.482-1.224-3.863 0m-1.404-14.22q.432-.353.829-.615c1.705-1.124 2.997-1.046 4.623.242q.213.166.434.363.004.006.01.01m-23.974 21.936q0-.544.018-1.017c.113-3.061.786-4.126 2.414-5.794m47.71 9.312c2.627 2.531 2.935 3.342 2.935 7.575m-78.819 15.224v4.502m53.279 12.432 1.103 1.1.037.037" class="st2"/><path d="M194.033 181.587c.91.947 1.855 1.448 2.795 1.428.71-.01 1.416-.321 2.102-.957q.15-.142.298-.301m-28.855-72.404.094-17.494m4.198 21.744.094-22.313m5.234 27.35.047-32.469m4.245 29.462.094-30.019m4.568 30.303.094-34.733m4.198 38.504.094-40.29m-63.067-8.113v-.025l.076-12.476m4.216 16.546.066-14.536m-13.068-25.125v-.185m-.17 27.229.167-26.904m4.255 1.89v-.202m-.13 29.363.13-29.154m-13.303 16.561.17-41.748m4.122 45.947v-.054l.131-43.995m53.539 77.442c0-3.436-.981-4.768-2.38-6.172m11.953.484c0-3.434-.905-4.694-2.304-6.098m-6.702 2.504c2.388 2.311 3.725 5.202 3.725 8.712m14.803-20.603c2.387 2.311 3.724 5.202 3.724 8.712m-8.016-6.927c2.387 2.311 3.724 5.202 3.724 8.712m-8.387-4.281c2.388 2.311 3.725 5.202 3.725 8.712m-53.99-26.83c-.04-7.716 7.087-8.253 10.969-4.561" class="st2"/><path d="M134.624 60.794c0-4.26 1.949-5.146 4.524-2.713m-17.595-22.272.002-.141c.047-7.585 7.028-8.416 10.886-4.746" class="st2"/><path d="M125.808 37.706v-.007c0-4.257 1.894-5.348 4.469-2.918m-17.604-22.262c-.037-7.716 6.949-8.579 10.831-4.887" class="st2"/><path d="M116.926 14.416c0-4.262 1.84-5.358 4.415-2.925" class="st2"/><path d="M173.691 77.829c-.03-.898.155-1.922.545-2.889.574-1.423 1.541-2.59 2.558-3.051.449-.205.907-.271 1.346-.16 1.429.365 2.285 1.788 1.473 4.203l-.017.015c-1.211-1.164-3.313 2.834-1.821 4.151-.836.486-2.037.789-3.152 0-.592-.414-.898-1.263-.932-2.269m2.969-20.792c.449-.205.908-.269 1.347-.158 1.428.365 2.284 1.788 1.47 4.201l-.015.015c-1.214-1.162-3.313 2.834-1.82 4.154-.839.483-2.04.789-3.155 0-.59-.417-.896-1.261-.93-2.269-.03-.895.153-1.922.542-2.888.575-1.423 1.545-2.592 2.561-3.054Z" class="st8"/><path d="M175.022 69.065c1.13.289 1.902 1.241 1.771 2.824-1.016.461-1.983 1.628-2.558 3.051-.389.967-.574 1.991-.545 2.888-.68.17-1.453.126-2.188-.395-1.115-.789-1.213-3.105-.387-5.158.829-2.052 2.479-3.577 3.907-3.212Zm-4.585-8.838c-.018-.876.167-1.867.545-2.802.579-1.438 1.564-2.617 2.592-3.069.439-.192.886-.252 1.313-.143 1.132.289 1.904 1.243 1.773 2.824-1.016.461-1.986 1.63-2.56 3.054-.39.967-.573 1.993-.543 2.889-.683.168-1.453.123-2.188-.397-.609-.427-.915-1.312-.932-2.356" class="st8"/><path d="M170.425 51.618c.449-.205.907-.269 1.344-.158 1.13.289 1.902 1.243 1.771 2.824l.035.071c-1.029.451-2.013 1.631-2.593 3.069-.377.935-.562 1.926-.545 2.802-.681.168-1.453.123-2.188-.397-.577-.41-.883-1.231-.927-2.215-.04-.908.143-1.956.54-2.943.575-1.426 1.544-2.595 2.563-3.054Z" class="st8"/><path d="M168.648 48.848c1.118.286 1.885 1.221 1.776 2.77-1.018.459-1.988 1.628-2.563 3.054-.397.987-.579 2.035-.54 2.943h-.002c-.681.168-1.453.123-2.191-.397-1.115-.787-1.213-3.105-.387-5.158.829-2.052 2.479-3.574 3.907-3.212m-4.716 25.602c.449-.205.908-.269 1.347-.158 1.428.365 2.284 1.788 1.473 4.201l-.018.015c-1.211-1.164-3.312 2.834-1.82 4.154-.836.483-2.037.787-3.152 0-.59-.417-.896-1.263-.933-2.269-.029-.895.156-1.922.545-2.888.573-1.423 1.542-2.593 2.558-3.054Z" class="st8"/><path d="M162.161 71.625c1.13.289 1.904 1.243 1.771 2.824-1.016.461-1.986 1.631-2.558 3.054-.39.967-.575 1.993-.545 2.888-.681.168-1.453.123-2.188-.397-.607-.429-.913-1.312-.93-2.358-.017-.873.165-1.865.543-2.8.579-1.438 1.564-2.615 2.592-3.068.439-.192.888-.252 1.315-.143" class="st8"/><path d="m160.812 71.697.034.072c-1.028.454-2.012 1.63-2.592 3.068-.377.935-.56 1.926-.543 2.8-.68.17-1.453.126-2.19-.395-1.115-.789-1.214-3.105-.387-5.158.828-2.052 2.479-3.577 3.907-3.212 1.132.289 1.904 1.241 1.771 2.824Zm-17.126-22.551c-.03-.895.155-1.922.545-2.888.572-1.423 1.541-2.59 2.558-3.051.451-.207.91-.271 1.349-.16 1.428.365 2.284 1.788 1.47 4.201l-.017.015c-1.211-1.162-3.313 2.834-1.821 4.154-.836.483-2.037.789-3.152 0-.589-.417-.895-1.263-.932-2.269Zm2.792 7.25c1.428.363 2.284 1.788 1.472 4.201l-.017.015c-1.211-1.164-3.313 2.834-1.82 4.154-.836.483-2.038.787-3.153 0-1.115-.789-1.216-3.106-.387-5.158.826-2.052 2.477-3.577 3.905-3.212" class="st8"/><path d="M140.568 46.394c-.02-.876.165-1.867.543-2.802.579-1.438 1.563-2.615 2.592-3.069.439-.192.888-.252 1.315-.143 1.132.289 1.904 1.243 1.771 2.827-1.016.461-1.986 1.628-2.558 3.051-.39.967-.575 1.993-.545 2.889-.681.168-1.453.123-2.188-.397-.605-.429-.913-1.31-.93-2.356" class="st8"/><path d="M140.553 37.785c.449-.205.907-.269 1.344-.158 1.132.289 1.904 1.241 1.771 2.824l.035.071c-1.029.454-2.013 1.631-2.593 3.069-.377.935-.562 1.926-.543 2.802-.683.168-1.452.123-2.19-.397-.58-.41-.883-1.233-.927-2.215-.04-.908.143-1.956.542-2.943.573-1.426 1.542-2.595 2.561-3.054Z" class="st8"/><path d="M138.779 35.015c1.118.286 1.882 1.221 1.774 2.77-1.019.459-1.988 1.628-2.561 3.054-.399.987-.582 2.035-.542 2.943-.681.168-1.456.123-2.191-.397-1.115-.787-1.216-3.106-.387-5.158.826-2.052 2.479-3.574 3.907-3.212m-1.62-17.045c1.428.365 2.284 1.788 1.47 4.201l-.015.015c-1.213-1.162-3.315 2.834-1.82 4.154-.839.483-2.04.789-3.155 0s-1.214-3.105-.387-5.158c.829-2.052 2.479-3.577 3.907-3.212" class="st8"/><path d="M164.914 82.661c-1.492-1.32.609-5.318 1.82-4.154" class="st2"/><path d="M164.914 82.661c-.836.483-2.037.787-3.152 0-.59-.417-.896-1.263-.933-2.269-.029-.895.156-1.922.545-2.888.573-1.423 1.542-2.593 2.558-3.054.449-.205.908-.269 1.347-.158 1.428.365 2.284 1.788 1.473 4.201m-20.639-13.728c-1.492-1.32.61-5.318 1.821-4.154" class="st2"/><path d="M146.113 64.765c-.836.483-2.038.787-3.153 0-1.115-.789-1.216-3.106-.387-5.158.826-2.052 2.477-3.577 3.905-3.212 1.428.363 2.284 1.788 1.472 4.201M136.794 26.34c-1.494-1.32.607-5.316 1.821-4.154" class="st2"/><path d="M136.794 26.34c-.839.483-2.04.789-3.155 0s-1.214-3.105-.387-5.158c.829-2.052 2.479-3.577 3.907-3.212s2.284 1.788 1.47 4.201m22.202 58.221h-.002c-.681.168-1.453.123-2.188-.397-.607-.429-.913-1.312-.93-2.358-.017-.873.165-1.865.543-2.8.579-1.438 1.564-2.615 2.592-3.068.439-.192.888-.252 1.315-.143 1.13.289 1.904 1.243 1.771 2.824" class="st2"/><path d="M157.711 77.636c-.68.17-1.453.126-2.19-.395-1.115-.789-1.214-3.105-.387-5.158.828-2.052 2.479-3.577 3.907-3.212 1.132.289 1.904 1.241 1.771 2.824m16.963 8.403c-1.492-1.317.61-5.316 1.821-4.151" class="st2"/><path d="M177.775 80.098c-.836.486-2.037.789-3.152 0-.592-.414-.898-1.263-.932-2.269-.03-.898.155-1.922.545-2.889.574-1.423 1.541-2.59 2.558-3.051.449-.205.907-.271 1.346-.16 1.429.365 2.285 1.788 1.473 4.203" class="st2"/><path d="M173.693 77.829c-.681.17-1.453.126-2.188-.395-1.115-.789-1.213-3.105-.387-5.158.829-2.052 2.479-3.577 3.907-3.212 1.13.289 1.902 1.241 1.771 2.824m-29.025-20.472c-1.493-1.32.609-5.316 1.82-4.154" class="st2"/><path d="M147.77 51.416c-.836.483-2.037.789-3.152 0-.589-.417-.895-1.263-.932-2.269-.03-.895.155-1.922.545-2.888.572-1.423 1.541-2.59 2.558-3.051.451-.207.91-.271 1.349-.16 1.428.365 2.284 1.788 1.47 4.201" class="st2"/><path d="M143.688 49.146h-.002c-.681.168-1.453.123-2.188-.397-.605-.429-.913-1.31-.93-2.356-.02-.876.165-1.867.543-2.802.579-1.438 1.563-2.615 2.592-3.069.439-.192.888-.252 1.315-.143 1.132.289 1.904 1.243 1.771 2.827" class="st2"/><path d="M140.57 46.394h-.003c-.683.168-1.452.123-2.19-.397-.58-.41-.883-1.233-.927-2.215-.04-.908.143-1.956.542-2.943.573-1.426 1.542-2.595 2.561-3.054.449-.205.907-.269 1.344-.158 1.132.289 1.904 1.241 1.771 2.824" class="st2"/><path d="M137.45 43.781c-.681.168-1.456.123-2.191-.397-1.115-.787-1.216-3.106-.387-5.158.826-2.052 2.479-3.574 3.907-3.212 1.118.286 1.882 1.221 1.774 2.77q0 .029-.003.057m37.092 27.408c-1.492-1.32.607-5.316 1.82-4.154" class="st2"/><path d="M177.642 65.249c-.839.483-2.04.789-3.155 0-.59-.417-.896-1.261-.93-2.269-.03-.895.153-1.922.542-2.888.575-1.423 1.545-2.592 2.561-3.054.449-.205.908-.269 1.347-.158 1.428.365 2.284 1.788 1.47 4.201" class="st2"/><path d="M173.559 62.979h-.002c-.683.168-1.453.123-2.188-.397-.609-.427-.915-1.312-.932-2.356-.018-.876.167-1.867.545-2.802.579-1.438 1.564-2.617 2.592-3.069.439-.192.886-.252 1.313-.143 1.132.289 1.904 1.243 1.773 2.824" class="st2"/><path d="M170.44 60.227h-.003c-.681.168-1.453.123-2.188-.397-.577-.41-.883-1.231-.927-2.215-.04-.908.143-1.956.54-2.943.575-1.426 1.544-2.595 2.563-3.054.449-.205.907-.269 1.344-.158 1.13.289 1.902 1.243 1.771 2.824" class="st2"/><path d="M167.319 57.615c-.681.168-1.453.123-2.191-.397-1.115-.787-1.213-3.105-.387-5.158.829-2.052 2.479-3.574 3.907-3.212 1.118.286 1.885 1.221 1.776 2.77q.001.026-.005.057" class="st2"/><path d="M100.179 108.312v11.1h-8.904c-12.104 0-17.38 3.199-15.91 10.029 1.088 3.148 3.251 6.404 7.351 10.356l.045.056a3.45 3.45 0 0 0-1.349 2.275 3.457 3.457 0 1 0-2.153 6.161 3.46 3.46 0 0 0 3.421-2.945l.035.005a3.45 3.45 0 0 0 2.124.728 3.45 3.45 0 0 0 2.866-1.525h.146c4.896 5.94-2.98 14.068-9.285 8.407-6.756-5.676-13.014-13.434-14.872-19.628-4.842-16.339 10.464-25.019 27.235-25.019h9.252Z" class="st8"/><path d="M88.295 142.618a3.43 3.43 0 0 1-.592 1.934 3.45 3.45 0 0 1-2.866 1.525 3.45 3.45 0 0 1-2.124-.728l-.035-.005a3.47 3.47 0 0 0-1.268-3.216 3.45 3.45 0 0 1 1.349-2.275 3.458 3.458 0 0 1 5.535 2.765Zm-.548-.668a1.94 1.94 0 0 0-1.561-2.245 1.94 1.94 0 0 0-2.254 2.181l1.914-.279-.34 1.904a1.94 1.94 0 0 0 2.242-1.561Z" class="st6"/><path d="M86.186 139.705a1.94 1.94 0 0 1 1.561 2.245 1.94 1.94 0 0 1-2.242 1.561l.34-1.904-1.914.279a1.94 1.94 0 0 1 2.254-2.181Z" class="st9"/><path d="M82.715 144.831q0 .262-.037.513a3.46 3.46 0 0 1-3.421 2.945 3.457 3.457 0 1 1 0-6.916c.814 0 1.561.281 2.153.755a3.45 3.45 0 0 1 1.305 2.703m-.547-.668a1.944 1.944 0 0 0-1.561-2.245 1.94 1.94 0 0 0-2.254 2.18l1.914-.276-.34 1.902a1.94 1.94 0 0 0 2.242-1.561Z" class="st6"/><path d="M80.607 141.918a1.943 1.943 0 0 1 1.561 2.245 1.94 1.94 0 0 1-2.242 1.561l.34-1.902-1.914.276a1.94 1.94 0 0 1 2.254-2.18Z" class="st9"/><path d="M100.18 108.258v11.24m-.001-.086h-8.905m8.905-11.1h-9.252m-12.363 44.647c-6.756-5.676-13.014-13.434-14.872-19.627m11.672-3.89c1.088 3.147 3.251 6.403 7.351 10.355m8.559-20.385c-12.104 0-17.38 3.199-15.91 10.03" class="st2"/><path d="M63.692 133.331c-4.842-16.339 10.464-25.019 27.235-25.019m-12.364 44.647c6.305 5.661 14.181-2.467 9.285-8.407m-6.438-2.424a3.45 3.45 0 0 1 1.268 3.216 3.46 3.46 0 0 1-3.421 2.945 3.457 3.457 0 1 1 0-6.916c.814 0 1.561.281 2.153.755" class="st2"/><path d="m80.266 143.822-1.914.276a1.94 1.94 0 0 1 2.254-2.18 1.943 1.943 0 0 1 1.561 2.245 1.94 1.94 0 0 1-2.242 1.561l.34-1.902Z" class="st2"/><path d="M81.41 142.128a3.45 3.45 0 0 1 1.349-2.275 3.458 3.458 0 1 1 2.077 6.224 3.45 3.45 0 0 1-2.124-.728" class="st2"/><path d="m85.845 141.607-1.914.279a1.94 1.94 0 0 1 2.254-2.181 1.94 1.94 0 0 1 1.561 2.245 1.94 1.94 0 0 1-2.242 1.561z" class="st2"/><path d="M176.688 116.035v6.665l-13.436-12.782c-5.434-5.17-16.071-4.381-23.814 2.74-11.114 10.471-28.573 6.71-28.573-7.876V94.657c0-7.262-7.509-16.882-21.438-18.761V56.811c2.829.126 5.222 2.198 5.222 6.13v2.242q-.181 2.475 3.404 3.535c9.257 4.013 15.254 12.496 15.254 21.818 0 10.236 1.697 15.523 6.418 17.429 6.334 2.427 12.042-.274 17.607-4.109 9.006-7.681 20.372-8.856 27.617-1.961l9.99 9.447c1.186 1.063 1.749 2.783 1.749 4.694Z" class="st7"/><path d="m176.687 122.7-13.159 12.763v-6.589c0-1.241-.365-2.358-1.135-3.046l-5.809-5.525c-4.107-3.91-12.21-1.416-12.21 3.527v5.51c0 2.613.4 3.878 2.134 5.528l9.065 8.626-14.203 13.582v-6.589c0-1.241-.365-2.358-1.135-3.046l-5.807-5.526c-4.109-3.909-12.21-1.415-12.21 3.528v5.51c0 2.613.4 3.878 2.134 5.528l9.065 8.624-15.246 14.805v-6.663c0-1.912-.563-3.633-1.749-4.694l-9.112-8.69c-3.545-3.335-6.882-12.866-3.054-19.62l3.508-6.529c1.902-3.537.318-7.556-2.832-10.585-3.791-3.761-7.425-6.216-7.425-11.788v-10.57c0-12.205-9.452-20.473-17.175-20.473V68.717c0-8.214 5.002-12.094 9.095-11.909v19.087c13.929 1.88 21.437 11.5 21.437 18.761v10.125c0 14.586 17.459 18.347 28.574 7.876 7.743-7.121 18.379-7.91 23.813-2.74l13.436 12.782Z" class="st5"/><path d="m149.104 128.78 5.335 5.077c.77.688 1.135 1.805 1.135 3.046v6.591l-9.065-8.626c-1.734-1.65-2.134-2.915-2.134-5.528v-5.51c0-4.943 8.103-7.437 12.21-3.528l5.809 5.526c.77.688 1.135 1.805 1.135 3.046v6.589l-7.124-6.776c-2.341-2.354-5.925-1.858-7.301.093m-22.157 21.611 5.336 5.079c.769.688 1.134 1.805 1.134 3.046v6.589l-9.065-8.624c-1.734-1.65-2.133-2.915-2.133-5.528v-5.51c0-4.943 8.1-7.437 12.21-3.528l5.806 5.526c.77.688 1.135 1.805 1.135 3.046v6.589l-7.121-6.776c-2.341-2.354-5.925-1.858-7.302.091m-31.881-45.609c0-3.821-2.509-8.67-6.556-12.222a21 21 0 0 0-2.452-1.862 19 19 0 0 0-4.827-2.267 16.8 16.8 0 0 0-4.886-.733H21.118v-.035c-2.706 0-3.53-1.127-3.53-3.527v-3.838h62.745c7.723 0 17.175 8.268 17.175 20.473v10.57c0 5.572 3.633 8.027 7.425 11.788 3.149 3.029 4.733 7.048 2.831 10.585l-3.507 6.529c-3.829 6.754-.491 16.285 3.053 19.62l9.112 8.69c1.187 1.061 1.749 2.782 1.749 4.694v6.662l-9.349-8.907-1.709-1.628-2.967-2.826-.841-.802a20 20 0 0 1-1.695-1.998c-1.347-1.857-2.398-4.233-2.398-7.711v-8.283c0-3.263 1.044-5.303 2.048-7.094l2.363-4.396v-.005c.528-2.595-1.303-4.158-3.893-6.919-3.313-3.29-4.664-6.211-4.664-10.959z" class="st7"/><path d="M111.371 179.35v.17c0 4.41-12.391 4.41-12.391 0v-.17c0-1.303 1.083-2.22 2.607-2.756v.619q0 .244.054.462c.651 2.743 7.124 2.587 7.124-.462v-.616c1.524.533 2.605 1.45 2.605 2.753Z" class="st9"/><path d="m108.823 171.002-.057.059v1.115c-1.288 2.751-4.818 5.252-7.035 5.476l-.089.023a2 2 0 0 1-.054-.462v-4.676h.118c1.567-.158 3.784-1.451 5.407-3.163z" class="st9"/><path d="M108.765 176.597v.616c0 3.049-6.472 3.205-7.123.462l.088-.022c2.218-.225 5.748-2.726 7.035-5.476zm-4.619-10.049 2.967 2.826c-1.623 1.712-3.84 3.005-5.407 3.163h-.118v-5.116h.096c.723-.072 1.584-.387 2.462-.873" class="st10"/><path d="m103.305 165.746.841.801c-.878.486-1.739.802-2.462.874h-.096v-3.658l.022-.015a20 20 0 0 0 1.695 1.998" class="st9"/><path d="M71.726 54.445h.005c.059 2.8 3.518 2.775 3.518-.074V48.35l-.387-.271q1.773-.425 3.046-1.527l7.235-6.036c1.892-1.749 2.079-2.871 2.684-4.83l6.823-24.605V62.94c0-3.932-2.393-6.004-5.222-6.132-4.092-.185-9.095 3.695-9.095 11.909v11.581H17.588V49.265c0-1.66.429-2.649 1.255-3.416-.9 1.071-.432 2.516 2.274 2.501h3.959v10.56c0 3.619 4.435 3.619 4.435 0v-2.96c0-4.701 5.76-4.701 5.76 0v16.44c0 3.944 4.835 3.944 4.835 0v-8.256c0-3.347 4.105-3.347 4.105 0s4.105 3.35 4.105 0V48.35h9.403q-.101 3.523 3.111 3.673c1.986 0 3.273.861 3.273 2.913v12.526c0 3.347 4.105 3.347 4.105 0V54.579c0-2.829 3.414-2.874 3.52-.133Z" class="st4"/><path d="m94.649 11.081-6.823 24.605c-.604 1.959-.792 3.081-2.684 4.83l-7.235 6.036q-1.274 1.102-3.046 1.527a10.3 10.3 0 0 1-2.309.271H21.117c-2.706.015-3.175-1.431-2.274-2.501l.005-.005c.53-.491 1.223-.888 2.072-1.315L91.624 9.12c1.512-.757 3.024.148 3.024 1.961Z" class="st10"/><path d="M91.014 130.823v.17c0 4.408-12.393 4.408-12.393 0v-.17c0-1.305 1.083-2.223 2.607-2.755v.619q0 .243.054.461c.651 2.743 7.124 2.588 7.124-.461v-.619c1.524.532 2.607 1.45 2.607 2.755ZM88.509 92.56l-.104.118v.422c-1.394 2.654-5.025 5.113-7.173 5.33h-.005v-5.18h.079c1.265-.128 3.29-1.32 4.751-2.553a21 21 0 0 1 2.452 1.862Z" class="st9"/><path d="M88.406 128.067v.62c0 3.048-6.473 3.204-7.124.461l.089-.022c2.218-.225 5.75-2.726 7.035-5.476z" class="st10"/><path d="M88.406 118.509v5.141c-1.285 2.75-4.817 5.251-7.035 5.476l-.089.022a2 2 0 0 1-.054-.461v-4.677h.118c2.227-.225 5.772-2.741 7.05-5.501z" class="st9"/><path d="M88.406 113.393v5.116h-.01c-1.278 2.76-4.822 5.276-7.05 5.501h-.118v-5.116h.096c2.225-.224 5.772-2.74 7.047-5.501z" class="st10"/><path d="M88.406 108.278v5.115h-.035c-1.275 2.761-4.822 5.277-7.047 5.501h-.096v-5.116h.074c2.225-.224 5.772-2.74 7.047-5.5z" class="st9"/><path d="M88.406 103.162v5.115h-.057c-1.275 2.761-4.822 5.277-7.047 5.501h-.074v-5.116h.049c2.227-.224 5.772-2.74 7.05-5.5z" class="st10"/><path d="M88.406 98.046v5.116h-.079c-1.278 2.76-4.822 5.276-7.05 5.5h-.049v-5.116h.027c2.225-.224 5.772-2.74 7.047-5.5z" class="st9"/><path d="M88.406 93.1v4.946h-.104c-1.275 2.76-4.822 5.276-7.047 5.5h-.027v-5.115h.005c2.148-.217 5.779-2.676 7.173-5.331m-2.349-2.402c-1.46 1.233-3.485 2.425-4.751 2.553h-.079v-4.82a19 19 0 0 1 4.83 2.267" class="st10"/><path d="M71.731 54.445h-.005c-.106-2.74-3.52-2.696-3.52.133v12.883c0 3.347-4.104 3.347-4.104 0V54.935c0-2.052-1.288-2.913-3.273-2.913q-3.211-.15-3.11-3.673h14.834c.831-.01 1.598-.099 2.309-.271l.387.271v6.021c0 2.849-3.458 2.874-3.517.074Z" class="st7"/><path d="M60.562 124.945v.17c0 4.408-12.39 4.408-12.39 0v-.17c0-1.305 1.08-2.223 2.605-2.756v.62q0 .243.054.461c.651 2.743 7.124 2.587 7.124-.461v-.62c1.527.533 2.607 1.451 2.607 2.756" class="st9"/><path d="M57.955 122.189v.62c0 3.048-6.472 3.204-7.124.461l.089-.022c2.22-.225 5.747-2.724 7.035-5.471z" class="st10"/><path d="M57.955 112.631v5.146c-1.288 2.747-4.815 5.246-7.035 5.471l-.089.022a2 2 0 0 1-.054-.461v-4.677h.121c2.225-.225 5.772-2.741 7.047-5.501z" class="st9"/><path d="M57.955 107.515v5.116h-.01c-1.275 2.76-4.822 5.276-7.047 5.501h-.121v-5.116h.099c2.225-.224 5.77-2.74 7.047-5.501z" class="st10"/><path d="M57.955 102.399v5.116h-.032c-1.278 2.76-4.822 5.276-7.047 5.501h-.099V107.9h.074c2.227-.224 5.772-2.74 7.05-5.501z" class="st9"/><path d="M57.955 97.283v5.116h-.054c-1.278 2.761-4.822 5.277-7.05 5.501h-.074v-5.116h.052c2.225-.224 5.772-2.74 7.047-5.501z" class="st10"/><path d="M57.955 92.168v5.116h-.079c-1.275 2.76-4.822 5.276-7.047 5.5h-.052v-5.116h.03c2.225-.225 5.77-2.741 7.047-5.501h.101Z" class="st9"/><path d="M57.955 87.698v4.47h-.101c-1.278 2.76-4.822 5.276-7.047 5.501h-.03v-5.116h.005c2.227-.224 5.303-2.094 6.579-4.854h.594Z" class="st10"/><path d="M50.777 87.698h6.584c-1.275 2.76-4.351 4.63-6.579 4.854h-.005z" class="st9"/><path d="M48.316 48.35v15.784c0 3.35-4.104 3.35-4.104 0s-4.105-3.347-4.105 0v8.256c0 3.944-4.835 3.944-4.835 0V55.95c0-4.701-5.76-4.701-5.76 0v2.96c0 3.619-4.435 3.619-4.435 0V48.35z" class="st7"/><path d="M17.588 49.265v34.871m0 0c0 2.4.824 3.527 3.53 3.527m97.053 92.246 15.246-14.805m-15.246 14.805-9.348-8.907-1.71-1.628-2.967-2.826-.841-.802m13.117 2.807-9.111-8.69M76.344 87.698H21.118m59.214-7.4H17.64M72.553 48.35H21.118m73.947 52.421v17.61m2.443-17.61v10.57m6.115 24.923-2.363 4.396m3.804-7.079-1.441 2.678m4.141-2.545-3.507 6.529m6.608-45.586v10.125m2.442-14.247c0 10.236 1.697 15.522 6.418 17.429m-1.554 71.946v-6.663m-1.749-4.694c1.186 1.061 1.749 2.782 1.749 4.694m58.517-50.547-13.436-12.782m11.687 1.423-9.99-9.447m11.739 20.806v-6.665m-1.749-4.694c1.187 1.063 1.749 2.782 1.749 4.694m-43.27 49.07-9.065-8.624m7.93-1.011-5.336-5.079m6.471 14.714v-6.589m-1.135-3.046c.77.688 1.135 1.805 1.135 3.046m7.952-1.441-7.121-6.775m5.986-2.859-5.806-5.525m6.941 15.16v-6.589m-1.135-3.046c.77.688 1.135 1.805 1.135 3.046m-19.151.466v-5.51m0 5.51c0 2.613.399 3.878 2.133 5.528m10.077-14.566c-4.11-3.909-12.21-1.415-12.21 3.528m2.481-.508c-.306 1.985-.111 3.236 2.247 5.456m0 0c1.377-1.949 4.961-2.445 7.302-.091m21.324-6.806-9.065-8.626m7.931-1.011-5.335-5.076m6.469 14.713v-6.591m-1.135-3.046c.77.688 1.135 1.805 1.135 3.046m7.955-1.44-7.124-6.776m5.99-2.859-5.809-5.526m6.943 15.161v-6.589m-1.134-3.046c.769.688 1.134 1.805 1.134 3.046m-19.153.466v-5.51m0 5.51c0 2.613.4 3.878 2.134 5.528m10.076-14.566c-4.107-3.909-12.21-1.415-12.21 3.528m2.484-.508c-.308 1.985-.114 3.236 2.245 5.459m0-.001c1.376-1.951 4.96-2.447 7.301-.093m-49.094 31.176c-3.545-3.335-6.882-12.866-3.054-19.62m-5.045 15.794v-8.283m4.092 17.992a20 20 0 0 1-1.694-1.998c-1.347-1.857-2.398-4.233-2.398-7.711m2.047-15.377c-1.004 1.791-2.047 3.831-2.047 7.094m5.721-24.625c3.15 3.029 4.733 7.048 2.831 10.585m-2.7-.133c1.06-1.885 1.697-4.746-.587-6.675m-9.412-8.525c0 4.748 1.352 7.669 4.664 10.959m.001 0c2.59 2.761 4.421 4.324 3.893 6.919v.005m1.309-13.135c-3.791-3.761-7.424-6.216-7.424-11.788M20.92 44.529 91.624 9.12M77.908 46.552l7.235-6.036m9.506 24.667V11.081m-6.823 24.605 6.823-24.605M80.332 80.298V68.717m17.175 32.054c0-12.205-9.452-20.473-17.175-20.473" class="st2"/><path d="M95.065 100.771c0-4.378-1.236-7.984-3.251-10.974m-15.47-2.099c1.699 0 3.337.264 4.886.733a19 19 0 0 1 4.827 2.267 21 21 0 0 1 2.452 1.862c4.048 3.552 6.556 8.401 6.556 12.222M80.332 68.717c0-8.214 5.002-12.094 9.095-11.909 2.829.128 5.222 2.2 5.222 6.132m-75.8-17.096c.53-.491 1.223-.888 2.072-1.315m-3.333 4.736c0-1.66.429-2.649 1.255-3.416m75.806-34.768c0-1.813-1.512-2.718-3.024-1.961m-2.198 47.691v19.085m21.438 18.761c0-7.262-7.509-16.882-21.438-18.762M72.553 48.35c.831-.01 1.598-.099 2.309-.271q1.773-.425 3.046-1.527m7.235-6.036c1.892-1.749 2.079-2.871 2.684-4.83m10.226 33.031c9.257 4.013 15.254 12.496 15.254 21.818M94.649 65.182q-.181 2.475 3.404 3.535" class="st2"/><path d="M21.117 48.35c-2.706.015-3.175-1.431-2.274-2.501l.005-.005m120.59 66.814c7.743-7.121 18.38-7.91 23.814-2.74m-25.919-6.063c-5.565 3.835-11.273 6.536-17.607 4.109m45.223-6.07c-7.245-6.895-18.611-5.72-27.617 1.961" class="st2"/><path d="M110.865 104.782c0 14.586 17.459 18.347 28.574 7.876m1.931 44.418 14.203-13.582m7.955-8.031 13.16-12.763M25.077 58.91c0 3.619 4.435 3.619 4.435 0m5.759-2.96c0-4.701-5.76-4.701-5.76 0m5.76 16.44c0 3.944 4.835 3.944 4.835 0m4.105-8.256c0-3.347-4.105-3.347-4.105 0m4.105 0c0 3.35 4.105 3.35 4.105 0m15.786 3.327c0 3.347 4.104 3.347 4.104 0m3.523-12.883q0-.066-.003-.133c-.106-2.74-3.52-2.696-3.52.133m3.523-.207q0 .037.003.074c.059 2.8 3.517 2.775 3.517-.074m0 0V48.35m-7.043 6.228v12.883m-4.104.001V54.936m-3.274-2.913c1.986 0 3.273.861 3.273 2.913m-6.383-6.586q-.101 3.523 3.11 3.673M25.077 58.91V48.35m4.435 10.56v-2.96m5.759 0v16.44m4.835 0v-8.256m8.209 0V48.35m2.462 74.459V87.698m7.178 35.111V87.698m-7.178 35.111q0 .243.054.461c.651 2.743 7.124 2.587 7.124-.461" class="st2"/><path d="M48.172 125.115c0 4.408 12.39 4.408 12.39 0m-2.607-2.926c1.527.533 2.607 1.451 2.607 2.756m-12.39 0c0-1.305 1.08-2.223 2.605-2.756m.12-4.057c2.225-.225 5.772-2.741 7.047-5.501m-7.024 10.617c2.22-.225 5.747-2.723 7.035-5.471l.015-.03m-7.094-4.731c2.225-.224 5.77-2.74 7.047-5.501m-7.072.385c2.227-.224 5.772-2.74 7.05-5.501m-7.072.385c2.225-.224 5.772-2.74 7.047-5.501m-7.069.385c2.225-.225 5.77-2.741 7.047-5.501m-7.072.385c2.227-.224 5.303-2.094 6.579-4.854m23.867 40.989V88.443m7.178 40.244V92.678m-7.178 36.009q0 .243.054.461c.651 2.743 7.124 2.588 7.124-.461" class="st2"/><path d="M78.621 130.993c0 4.408 12.393 4.408 12.393 0m-2.608-2.925c1.524.532 2.607 1.45 2.607 2.755m-12.392 0c0-1.305 1.083-2.223 2.607-2.755m.119-4.058c2.227-.225 5.772-2.741 7.05-5.501m-7.026 10.617c2.217-.225 5.75-2.726 7.035-5.476l.012-.025m-7.094-4.731c2.225-.224 5.772-2.74 7.047-5.501m-7.069.385c2.225-.224 5.772-2.74 7.047-5.5m-7.072.384c2.227-.224 5.772-2.74 7.05-5.5m-7.072.384c2.225-.224 5.772-2.74 7.047-5.5m-7.07.384c2.148-.217 5.779-2.676 7.173-5.33a7 7 0 0 0 .138-.281m-7.236.432c1.265-.128 3.291-1.32 4.751-2.553m15.53 86.515v-13.45m7.178 13.45v-6.151m-7.178 6.151q0 .244.054.462c.651 2.743 7.124 2.587 7.124-.462" class="st2"/><path d="M98.98 179.52c0 4.41 12.391 4.41 12.391 0m-2.605-2.923c1.524.532 2.604 1.45 2.604 2.752m-12.39.001c0-1.303 1.083-2.22 2.607-2.756m.119-4.057c1.566-.158 3.784-1.451 5.407-3.163m-5.383 8.279c2.218-.225 5.748-2.726 7.035-5.476l.013-.025m-7.094-4.731c.722-.072 1.583-.387 2.461-.873" class="st2"/><path d="M112.476 144.757v-9.124m22.126 1.588v-17.945m4.188 7.827v-8.582" class="st3"/><path d="M83.852 109.738c1.433.392 1.275 2.563-.471 2.563h-1.026c-2.274 0-3.564-.999-3.564-2.353-.015-.583.104-1.059.405-1.406l.012-.01c.548.7 1.628 1.147 3.147 1.147h1.026q.245-.001.444-.055zm0 14.8c1.433.392 1.275 2.563-.471 2.563h-1.026c-2.274 0-3.564-.999-3.564-2.354-.015-.582.104-1.058.405-1.406l.012-.009c.548.7 1.628 1.147 3.147 1.147h1.026q.245-.001.444-.055zm-4.662-18.611a1.9 1.9 0 0 1-.4-1.182c-.03-1.3.587-2.074 2.464-2.047 0 1.024 0 1.778 1.1 1.778h1.026c1.798 0 1.912 2.304.338 2.593q-.158.03-.338.029h-1.026c-1.537 0-2.625-.456-3.165-1.171Z" class="st8"/><path d="M83.719 107.086c1.433.262 1.468 2.195.106 2.538a1.7 1.7 0 0 1-.444.055h-1.026c-1.519 0-2.6-.447-3.147-1.147a1.92 1.92 0 0 1-.417-1.207c-.015-.577.101-1.05.4-1.398.54.715 1.628 1.171 3.165 1.171h1.026q.18 0 .338-.029zm-4.529 13.641a1.9 1.9 0 0 1-.4-1.182c-.03-1.3.587-2.074 2.464-2.047 0 1.024 0 1.778 1.1 1.778h1.026c1.798 0 1.912 2.304.338 2.593q-.158.03-.338.03h-1.026c-1.537 0-2.625-.457-3.165-1.172Z" class="st8"/><path d="M83.719 121.886c1.433.262 1.468 2.195.106 2.538a1.7 1.7 0 0 1-.444.055h-1.026c-1.519 0-2.6-.447-3.147-1.147a1.92 1.92 0 0 1-.417-1.207c-.015-.577.101-1.05.4-1.398.54.715 1.628 1.171 3.165 1.171h1.026q.18 0 .338-.029z" class="st8"/><path d="M83.381 104.476h-1.026m1.026 2.622h-1.026m1.026-2.622c1.798 0 1.912 2.304.338 2.593q-.158.03-.338.029m-1.026-2.622c-1.1 0-1.1-.754-1.1-1.778m1.099 4.401c-1.537 0-2.625-.457-3.165-1.172a1.9 1.9 0 0 1-.4-1.182m.001 0c-.03-1.3.587-2.074 2.464-2.047m2.127 6.981h-1.026m1.364-2.593c1.433.262 1.468 2.196.106 2.538a1.7 1.7 0 0 1-.444.055m-1.027 0c-1.52 0-2.6-.447-3.147-1.147a1.92 1.92 0 0 1-.417-1.207" class="st2"/><path d="M78.79 107.325c-.015-.577.101-1.05.4-1.398l.005-.008m4.186 6.382h-1.026m1.364-2.593q.07.013.133.03c1.433.392 1.275 2.563-.471 2.563m-1.027 0c-2.274 0-3.564-.999-3.564-2.353m0 0c-.015-.583.104-1.059.405-1.406m4.186 10.734h-1.026m1.026 2.622h-1.026m1.026-2.622c1.798 0 1.912 2.304.338 2.593q-.158.03-.338.029m-1.026-2.621c-1.1 0-1.1-.755-1.1-1.779m1.099 4.401c-1.537 0-2.625-.457-3.165-1.172a1.9 1.9 0 0 1-.4-1.182m.001 0c-.03-1.3.587-2.074 2.464-2.047m2.127 6.981h-1.026m1.364-2.593c1.433.262 1.468 2.196.106 2.538a1.7 1.7 0 0 1-.444.055m-1.027 0c-1.52 0-2.6-.447-3.147-1.147a1.92 1.92 0 0 1-.417-1.207" class="st2"/><path d="M78.79 122.125c-.015-.577.101-1.05.4-1.398l.005-.008m4.186 6.382h-1.026m1.364-2.593q.07.013.133.03c1.433.392 1.275 2.563-.471 2.563m-1.027 0c-2.274 0-3.564-.999-3.564-2.353m0 0c-.015-.583.104-1.059.405-1.406" class="st2"/><path d="M178.866 159.34c-2.423 2.95-7.063 4.943-12.388 4.943s-9.965-1.993-12.39-4.943c.843-4.134 6.07-7.314 12.39-7.314s11.544 3.18 12.388 7.314m-73.62-62.513c.059 1.029-1.024 1.137-2.03.54 0 0-2.403-1.307-2.432-2.874-.028-1.566 1.66-1.406 2.548-.701.885.705 1.855 2.005 1.914 3.034Zm14.915 11.512c2.287 1.078 3.372 3.002 3.372 3.002-1.346 3.688-5.066 7.217-10.128 9.117-3.569 1.339-7.165 1.63-10.187 1.021h-.003c-1.672-1.584-3.199-3.032-4.252-4.771l.296-.177s1.961-1.525 1.073-2.795c-.891-1.27-1.073-2.721.126-3.429s1.956.708 3.113 1.034c.508.148 1.524.173 1.016-1.416-.476-1.487-2.795-4.035-3.868-5.291l-.197-.234c-.952-1.142-1.263-2.578 0-3.303 1.211-.691 2.444.044 3.734 1.416.726.772 1.468 1.744 2.235 2.777 1.293 1.697 2.094 2.509 3.313 2.985 1.218.476 1.958-.636.994-1.714-.967-1.081-.903-2.181.367-2.817 1.271-.634 2.758.148 3.839 1.418 2.111 2.25 2.871 2.097 5.157 3.177M75.613 23.071l.037.074c-2.888 1.426-7.923 1.413-13.192-.299-5.21-1.69-9.257-4.593-10.797-7.41 2.886-1.431 7.93-1.421 13.204.293 5.338 1.734 9.294 4.457 10.747 7.341Z" class="st17"/><path d="M60.888 37.898a19 19 0 0 0-1.672 3.219v.163h-8.547a37 37 0 0 0-.205-1.978q.748-2.678 3.29-4.386c1.043.733 2.432 1.485 4.253 2.237q1.509.517 2.881.745" class="st12"/><path d="M19.058 42.898c.219.713.523 1.431.908 2.141a6.3 6.3 0 0 0-1.124.811c-.824.765-1.253 1.756-1.253 3.414v3.752l-8.175 3.915c1.902-1.216 2.481-4.716-.123-9.479a8 8 0 0 1-.631-1.298c-.469-1.233-.533-2.398-.303-3.429a5 5 0 0 1 .062-.249q.003-.004.002-.007c1.152-4.179 7.205-5.964 10.358-.693.069.37.163.747.281 1.122Z" class="st6"/><path d="m22.321 32.645.005.005a6 6 0 0 0-.629.831l-2.121 3.387c-.891 1.423-1.127 3.125-.799 4.909-3.152-5.271-9.206-3.485-10.358.693.71-2.632 2.703-4.507 5.084-5.602zM7.933 50.375l.696-4.208.03-.012q.24.64.631 1.298c2.605 4.763 2.025 8.263.123 9.479l-.641.308c-2.057.693-5.133-.784-7.617-5.318l3.601.888.313-3.993.032-.025 2.832 1.584Zm34.657-12.99a18 18 0 0 0-2.585-2.629 21 21 0 0 0-3.187-2.198h-.002a19 19 0 0 0-3.875-1.648 16 16 0 0 0-2.755-.565l.037-.338-1.643-3.271 3.283-1.105-1.149-3.135 3.848-.56-.824-3.202c3.377 1.164 6.433 2.736 8.996 4.926 4.001 3.424 6.796 8.362 7.731 15.641q.127.961.205 1.978c-1.739 0-3.685.57-5.513 1.742l-.032-.047c-.237-1.875-1.12-3.796-2.533-5.59Z" class="st6"/><path d="M84.948 4.882q.035.77.002 1.519l-.012.052c-3.806-.878-8.826 1.492-12.395 6.122h-.003c-1.685-1.046-3.673-1.976-5.871-2.689a28 28 0 0 0-3.954-.982l.047-.264q-.236-.678-.446-1.433l-.04-.146c-.298-1.238.04-2.176 1.056-2.79l.113-.074c5.779-3.663 14.314-3.73 19.4-1.959 1.339.414 2.092 1.186 2.089 2.41l.012.232Z" class="st14"/><path d="M51.423 11.394c1.394-2.472 5.932-3.409 11.292-2.489 1.28.22 2.61.545 3.954.982 2.198.713 4.186 1.643 5.871 2.689h.003c.994.622 1.882 1.28 2.639 1.964q.692.62 1.233 1.258c1.436 1.682 2.052 3.416 1.561 4.926-.335 1.034-1.154 1.848-2.326 2.422l-.037-.074c-1.453-2.884-5.409-5.607-10.747-7.341-5.274-1.714-10.318-1.724-13.204-.293-.649-1.189-.854-2.363-.508-3.426a3.4 3.4 0 0 1 .271-.617h-.003Z" class="st15"/><path d="M51.423 11.394a3.3 3.3 0 0 0-.271.617 29 29 0 0 0-.683 2.449l-.027-.005c-4.092-1.502-5.382 3.976-.73 5.091h.165c.022 1.315.2 2.602.567 3.838-2.181-.523-3.816-1.49-4.951-2.662-4.363-4.494-1.428-12.032 5.93-9.329Z" class="st14"/><path d="M53.754 34.916q-2.542 1.709-3.291 4.386c-.935-7.279-3.73-12.217-7.731-15.641.762-1.206 1.65-2.232 2.76-2.938 1.135 1.172 2.77 2.139 4.951 2.662a12.1 12.1 0 0 0 2.824 4.891c-1.734.296-4.349 3.244.486 6.64Z" class="st14"/><path d="M53.268 28.276a12.06 12.06 0 0 1-2.824-4.891 14.3 14.3 0 0 1-.567-3.841c-.03-1.663.192-3.372.592-5.084.187-.819.419-1.635.683-2.449-.345 1.063-.141 2.237.508 3.426 1.539 2.817 5.587 5.72 10.797 7.41 5.269 1.712 10.303 1.724 13.192.299 1.172-.575 1.991-1.389 2.326-2.422-.644 1.978-1.478 3.929-2.536 5.681-.74 1.223-1.589 2.348-2.56 3.318q-.2.203-.407.395v.076c-2.366.044-5.007 1.122-7.407 3.039-1.707.064-3.589-.222-5.673-.937-2.654-1.098-4.657-2.464-6.122-4.018Z" class="st14"/><path d="M53.754 34.916c-4.835-3.397-2.22-6.344-.486-6.64 1.465 1.554 3.468 2.921 6.122 4.018 2.084.715 3.966 1.001 5.673.937a19.3 19.3 0 0 0-3.522 3.71q-.345.475-.654.957-1.372-.228-2.881-.745c-1.82-.752-3.209-1.505-4.253-2.237Z" class="st14"/><path d="M93.173 15.97c2.728.474 6.559 2.79 8.611 9.504q-1.389-1.934-2.777-2.916c.427 1.613.668 3.108.654 4.442l-.022.015c-.723-1.218-1.667-2.156-2.76-2.903.535 1.443.705 2.92.646 4.423l-.02.015c-.915-1.354-1.845-2.294-2.782-2.918.481 1.445.688 2.93.656 4.445l-.022.015c-.728-1.179-1.598-2.21-2.782-2.918l-.005.005c.669 1.69.71 3.101.656 4.445-.871-1.751-1.899-3.199-2.992-4.327-3.954-4.08-8.732-3.949-9.741 1.204.192-1.618.59-3.083 1.292-4.571a.2.2 0 0 1 .02-.039c.53-1.117 1.571-2.417 2.842-3.648 1.502-1.458 3.327-2.817 5.029-3.666a10 10 0 0 1 1.524-.629c.528-.101 1.206-.114 1.973.022" class="st6"/><path d="m90.233 27.297-.111.104-2.296 8.286c-.604 1.958-.792 3.081-2.684 4.83l-2.975 2.482q.063-.273.111-.545c.212-1.149.279-2.262.192-3.303-.16-1.993-.871-3.722-2.141-4.921v-2.605c-.005-1.12.039-2.146.158-3.118v-.005c1.009-5.153 5.787-5.284 9.741-1.204zM56.694 54.743l-2.62 3.165h-.054l-2.607-3.15-2.607 3.15h-.054l-2.622-3.167-2.622 3.167h-.054l-2.622-3.167h-.015l-2.622 3.167c0-3.878.839-7.047 2.153-9.539 1.268-2.403 2.977-4.176 4.808-5.348 1.828-1.172 3.774-1.742 5.513-1.742h8.648c1.066 0 2.264-.03 3.436.094a10 10 0 0 1 1.719.323c2.282.659 4.114 2.348 4.114 6.653h-7.77c-.454.942-1.108 1.833-1.5 9.558z" class="st6"/><path d="M185.535 144.757v1.512h-.197c-1.514-.629-3.357-.999-5.345-.999-1.071 0-1.858.074-2.815.269l-.022.022-1.369-1.307c1.266-.437 2.721-.686 4.27-.686 2.069 0 3.971.444 5.478 1.189" class="st9"/><path d="M185.536 148.755v4.685l-.06.061-8.32-7.94.022-.022c.958-.195 1.744-.269 2.815-.269 1.988 0 3.831.37 5.345.999h.198zm.799-7.409.04.022c-.543.964-.839 2.008-.839 3.095v.294c-1.507-.745-3.409-1.189-5.479-1.189-1.549 0-3.004.249-4.269.686l-2.724-2.598.074-.076c2.063-.871 4.228-1.3 6.855-1.3 2.297 0 4.458.387 6.342 1.066" class="st12"/><path d="M139.364 171.609c2.807 3.273 5.299 4.287 5.299 4.287-1.204.567-2.181.683-3.486.683l.634 1.991s0 .002.003.005l.195.617v.019a66 66 0 0 1-4.157.064l-.022 2.672h-.017a52 52 0 0 1-3.567-.469l.232 2.857-3.365-.592v2.992s-2.336-.948-5.029-3.977q-.135-.15-.269-.308c-2.805-3.273-4.867-7.595-7.671-10.634l-.084.015c-.217-1.329-.753-2.489-1.638-3.278l-9.112-8.69c-.947-.893-1.884-2.23-2.671-3.841h.002l2.669.755.358-3.685 2.565 1.549.908-4.06 2.669 1.388.695-3.524 2.457 1.176c.6-1.665 1.09-2.622 1.52-3.16.313 1.998 1.793 5.124 4.832 7.849 3.039 2.728 5.454 3.508 8.258 6.547 2.807 3.039 4.988 7.481 7.792 10.752" class="st6"/><path d="m137.831 181.947.022-2.672q2.078.033 4.156-.064v-.019l-.195-.617c.055.089.945 1.549 2.472 2.903 1.579 1.401 3.596 1.428 6.603 4.196 3.005 2.768 2.543 3.784 4.877 5.866s3.268 2.133 4.805 3.458c1.534 1.325 1.714 3.061 1.714 3.061h.003l-12.23 12.03s-.525-1.857-2.062-3.182c-1.534-1.325-5.35-2.753-7.684-4.835-2.333-2.081-2.543-4.232-5.55-7s-5.915-3.268-7.494-4.667a19 19 0 0 1-.814-.765h-.002c-1.184-1.181-2.119-2.491-2.79-4.403l2.869.363-.447-2.842c2.694 3.029 5.03 3.977 5.03 3.977v-2.992l3.364.592-.231-2.857c1.309.222 2.461.358 3.566.469z" class="st6"/><path d="M125.095 192.324c-1.226-1.467-2.018-2.987-2.018-2.987l3.375.304h.002q.388.388.814.764c1.579 1.399 4.487 1.9 7.494 4.667s3.216 4.919 5.55 7.001c2.333 2.081 6.149 3.51 7.683 4.834 1.537 1.325 2.063 3.182 2.063 3.182l-2.761 2.716s.249-1.658-1.931-3.811c-2.183-2.153-4.956-1.756-7.553-4.021-2.6-2.267-3.083-5.069-5.417-7.336-2.333-2.264-3.599-2.069-5.695-3.717a11 11 0 0 1-1.606-1.596" class="st6"/><path d="M145.366 208.994c2.18 2.153 1.931 3.811 1.931 3.811-1.44 1.268-2.693 1.312-3.862 0l-21.497-20.515 3.157.034a11 11 0 0 0 1.606 1.596c2.096 1.648 3.362 1.453 5.695 3.717 2.334 2.267 2.817 5.069 5.417 7.336 2.597 2.265 5.37 1.867 7.553 4.021" class="st6"/><path d="M180.654 165.684v5.18c0 5.316-6.347 9.625-14.176 9.625-1.959 0-3.824-.271-5.518-.757l-.04.042-8.618-8.239v-5.851c0 5.316 6.346 9.625 14.176 9.625s14.176-4.309 14.176-9.625" class="st14"/><path d="M180.654 154.658v5.772c0 5.316-6.347 9.625-14.176 9.625s-14.176-4.309-14.176-9.625v-5.772c0 1.7.648 3.296 1.786 4.682 2.424 2.95 7.064 4.943 12.39 4.943s9.965-1.993 12.387-4.943c1.14-1.386 1.789-2.982 1.789-4.682m0 21.386c.015 2.035-.291 4.277-.979 5.052l-6.658 6.549c-1.44 1.27-2.693 1.315-3.862 0l-8.234-7.871.039-.042c1.695.486 3.56.757 5.518.757 7.829 0 14.176-4.309 14.176-9.625z" class="st14"/><path d="M152.302 163.289v-2.859c0 5.316 6.346 9.625 14.176 9.625s14.176-4.309 14.176-9.625v5.254c0 5.316-6.347 9.625-14.176 9.625s-14.176-4.309-14.176-9.625z" class="st14"/><path d="M180.654 154.658c0 1.7-.649 3.296-1.789 4.682-.843-4.134-6.068-7.314-12.387-7.314s-11.547 3.18-12.39 7.314c-1.138-1.386-1.786-2.982-1.786-4.682q.001-.663.128-1.305c.197-.984.614-1.921 1.216-2.787 2.264-3.271 7.158-5.533 12.832-5.533 7.829 0 14.176 4.309 14.176 9.625" class="st15"/><path d="M152.302 168.094v3.441l-4.265-4.077c-1.638-2.659-1.228-6.932 2.168-7.585.691.656 1.443 1.31 2.097 1.837v1.579c-2.533-.977-2.398 2.647-1.414 3.56.375.434.844.858 1.323 1.245z" class="st14"/><path d="M153.644 150.564h.003c-.602.868-1.019 1.805-1.216 2.789-2.667-1.154-2.543 2.581-1.542 3.508.375.432.844.856 1.322 1.243h.091v3.606a36 36 0 0 1-2.096-1.837 22 22 0 0 1-1.414-1.456c-2.678-2.599-2.375-8.946 2.583-8.732q1.522.207 2.269.879m-30.417-28.801c2.218 1.615 1.354 6.721-5.5 9.292-2.975 1.117-6.865 1.729-9.199.577l-.042-.008c.188-1.077.104-2.173-.202-3.248h.01c2.536.464 5.227.269 7.817-.703 2.977-1.118 5.436-3.217 7.067-5.94z" class="st14"/><path d="M124.959 109.903c.296 1.381.422 2.738.397 4.048-.052 2.883-.836 5.545-2.178 7.782-1.63 2.723-4.09 4.822-7.067 5.94a14.65 14.65 0 0 1-7.817.7h-.01c-.53-1.874-1.734-3.69-3.352-5.244-.58-.575-1.154-1.12-1.714-1.65 3.021.609 6.618.318 10.187-1.021 5.062-1.9 8.781-5.429 10.128-9.117.681-1.855.758-3.749.101-5.496a20.4 20.4 0 0 1 1.325 4.058" class="st14"/><path d="M120.599 102.168c7.715-5.676 11.62 4.972 4.763 11.783h-.005a17.7 17.7 0 0 0-.397-4.048h.002c2.203-2.832.886-6.561-1.909-5.254-.602-.984-1.438-1.815-2.454-2.481" class="st14"/><path d="M123.635 105.845c.656 1.747.58 3.641-.101 5.496 0 0-1.085-1.924-3.372-3.002-2.287-1.08-3.046-.927-5.158-3.177-1.08-1.27-2.568-2.052-3.838-1.418-1.27.636-1.335 1.736-.368 2.817.965 1.078.225 2.19-.994 1.714-1.218-.476-2.02-1.288-3.312-2.985-.767-1.033-1.51-2.005-2.235-2.777l.091-.086a21 21 0 0 1 1.969-.854c5.394-2.025 10.858-1.653 14.282.595 1.016.666 1.852 1.497 2.454 2.481q.344.566.582 1.196m-19.048 4.08c.508 1.589-.508 1.564-1.016 1.416-1.157-.325-1.914-1.741-3.113-1.033s-1.016 2.158-.126 3.428c.888 1.271-1.073 2.795-1.073 2.795l-.296.178c-.9-1.49-1.455-3.19-1.455-5.368v-3.189c.794-1.172 1.823-2.287 3.049-3.293l.162-.225c1.073 1.256 3.392 3.804 3.868 5.291" class="st15"/><path d="M98.894 75.816c2.521 2.676 6.352 2.886 6.352 2.886q-1.654 2.143-4.462 2.099.303 1.55 1.63 3.098c-1.51.237-3.5.222-4.906-.106q.426 1.575 1.751 3.15c-1.396.261-3.212.21-4.61-.158l1.201 3.202-1.32-.37c-3.406-5.814-9.169-9.319-14.196-9.319V68.717q.001-1.462.202-2.74c1.532 1.448 2.721 2.607 7.916 2.491 5.249.249 7.925 4.669 10.444 7.348z" class="st6"/><path d="M35.917 35.849c4.368 2.738 6.593 7.06 4.968 9.655a3.4 3.4 0 0 1-.54.656c.819-2.62-1.379-6.391-5.333-8.87-3.956-2.479-8.315-2.81-10.311-.923a3.4 3.4 0 0 1 .358-.779c1.626-2.595 6.487-2.479 10.858.261M28.813 48.35h-3.878v-.096l1.142-1.823a19.7 19.7 0 0 0 2.733 1.919h.002Zm-6.221-5.839-2.116 3.382-.005.005q-.273-.426-.506-.858a12 12 0 0 1-.908-2.141l.266-.081 1.929-3.073a12.6 12.6 0 0 0 1.339 2.768Zm62.252-31.837q.349.257.619.587c-2.555-1.002-6.263.73-9.008 4.502l-.039.035a13 13 0 0 0-1.233-1.258c3.024-3.878 7.272-5.607 9.662-3.865Zm8.295 4.548q.03.366.035.747c-.767-.136-1.445-.123-1.973-.022-.488.153-.999.365-1.524.629l-.03-.057c.249-1.182.343-2.331.279-3.407l2.933 2.136zM80.332 32.361v1.867a5 5 0 0 0-.587-.491l-1.633-1.189.027-.04a8.7 8.7 0 0 0 2.161-.148h.032Zm-1.838 13.564.067.081-.654.545a7 7 0 0 1-2.538 1.386q.23-.291.451-.597a20 20 0 0 0 1.45-2.306zm3.98-6.776c.086 1.041.02 2.153-.192 3.303h-.01l-3.222-2.348c.197-1.061.269-2.094.212-3.069l2.933 2.134zm-8.296-4.556q.349.257.619.587c-2.553-1.004-6.475.927-9.22 4.699a12.6 12.6 0 0 0-1.093 1.776l-.012.042a10 10 0 0 0-1.719-.323l.01-.094c.387-.809.866-1.618 1.438-2.403 3.036-4.169 7.504-6.088 9.978-4.285Zm76.301 63.867q.435 0 .851.111c-2.656.688-4.691 4.559-4.691 9.228s2.032 8.537 4.689 9.23q-.416.109-.849.109c-3.061 0-5.542-4.181-5.542-9.339s2.481-9.339 5.542-9.339m11.175 1.586h-3.994a12.6 12.6 0 0 0-1.633-2.607h3.629l.276-.109a12.5 12.5 0 0 1 1.724 2.714zm1.655 7.753q-.002 1.404-.185 2.723l-.035-.005h-3.961c.121-.876.185-1.786.185-2.718s-.064-1.84-.185-2.716h3.961l.035-.005c.121.878.185 1.788.185 2.721m-1.658 7.755a12.4 12.4 0 0 1-1.764 2.763l-.234-.158h-3.629c.617-.755 1.17-1.63 1.633-2.607h3.994zm47.646 36.571-2.654 2.612-.049-.049v-3.044a12.7 12.7 0 0 0 2.607-1.635v2.017zm-7.738 7.306.153.156-1.904 1.874-.042-.044c-.449.449-.457.609-.923 1.075-.72.486-1.84 1.091-2.718.97v-6.058a20 20 0 0 0 5.434 0z" class="st9"/><path d="M201.559 153.112v4.292a20 20 0 0 1-5.434 0v-4.292a20 20 0 0 0 5.434 0m-10.468-1.471v4.292a12.5 12.5 0 0 1-2.608-1.635v-4.289a12.7 12.7 0 0 0 2.608 1.632" class="st9"/><path d="M191.091 155.933v2.667l-.131.136-2.57-2.452.093-.099v-1.887a12.5 12.5 0 0 0 2.608 1.635m17.089-11.47q0 .434-.109.849c-.693-2.657-4.56-4.689-9.227-4.689s-8.537 2.032-9.231 4.689a3.4 3.4 0 0 1-.108-.849c0-3.061 4.181-5.542 9.339-5.542s9.336 2.481 9.336 5.542" class="st9"/><path d="M151.328 117.029c2.659-.688 4.697-4.558 4.697-9.23s-2.038-8.54-4.694-9.228a3.3 3.3 0 0 0-.851-.111c-3.062 0-5.543 4.181-5.543 9.339s2.481 9.339 5.543 9.339q.433 0 .848-.109m7.985-9.23c0 .932-.064 1.842-.185 2.718-.254 1.848-.763 3.555-1.468 5.035a12.8 12.8 0 0 1-1.633 2.607q-.474.573-.991 1.046c-2.664-1.367-6.11-.947-8.353.609-2.977-2.139-5.032-6.714-5.032-12.015 0-7.348 3.954-13.305 8.831-13.305 2.099 0 4.028 1.105 5.545 2.948a12.6 12.6 0 0 1 1.633 2.608c.705 1.48 1.214 3.187 1.468 5.034.121.876.185 1.786.185 2.716Z" class="st12"/><path d="M151.33 98.571c2.657.688 4.694 4.558 4.694 9.228s-2.037 8.542-4.696 9.23c-2.657-.693-4.689-4.563-4.689-9.23s2.035-8.54 4.691-9.228M81.805 23.89l-.02.039c-.703 1.487-1.1 2.953-1.293 4.571 0 0-.005 0 0 .005q-.032.175-.062.358l-.096-.012c-2.612 1.347-5.289 1.709-7.449.873h-.003c.972-.972 1.82-2.097 2.56-3.32 1.853.266 4.186-.691 6.268-2.56l.096.047h-.002Zm3.658-12.629a3.4 3.4 0 0 0-.619-.587c-2.39-1.741-6.638-.012-9.662 3.865a19 19 0 0 0-2.639-1.963c3.569-4.63 8.589-7 12.395-6.122.811.185 1.566.52 2.242 1.011 1.697 1.236 2.607 3.266 2.745 5.649a13 13 0 0 1-.279 3.407l.03.057c-1.702.848-3.527 2.208-5.03 3.666 2.04-3.444 2.375-7.092.817-8.981Z" class="st12"/><path d="M85.463 11.261c1.559 1.89 1.223 5.538-.816 8.981-1.27 1.231-2.311 2.531-2.842 3.648l-.096-.047c-2.082 1.87-4.415 2.827-6.268 2.56 1.058-1.751 1.892-3.702 2.536-5.681.491-1.51-.126-3.244-1.561-4.926l.039-.035c2.745-3.772 6.453-5.503 9.008-4.502Zm-6.202 25.774a12.8 12.8 0 0 1-.212 3.069c-.303 1.611-.895 3.288-1.779 4.931a20 20 0 0 1-1.901 2.903q-1.268.395-2.817.412h-2.205a15 15 0 0 0 2.817-2.945c2.748-3.777 3.382-8.106 1.633-10.224a3.4 3.4 0 0 0-.619-.587c-2.474-1.803-6.941.116-9.978 4.285a15.3 15.3 0 0 0-1.438 2.403l-.01.094c-1.172-.123-2.37-.094-3.436-.094h-.101v-.163c.434-1.08.992-2.163 1.672-3.219q.308-.482.654-.957a19.3 19.3 0 0 1 3.522-3.71c2.4-1.917 5.042-2.995 7.41-3.039 1.497-.03 2.886.353 4.038 1.191 1.7 1.238 2.61 3.266 2.748 5.651z" class="st12"/><path d="M74.797 35.18c1.749 2.119 1.115 6.448-1.633 10.224a15 15 0 0 1-2.817 2.945h-1.761c0-4.304-1.833-5.994-4.114-6.653l.012-.042c.345-.664.624-1.132 1.093-1.776 2.745-3.772 6.668-5.703 9.221-4.699ZM40.345 46.159q.31-.293.54-.656c1.625-2.595-.599-6.917-4.968-9.655-4.371-2.74-9.233-2.856-10.858-.261a3.5 3.5 0 0 0-.358.779c-.829 2.617 1.369 6.396 5.328 8.875 3.961 2.484 8.325 2.812 10.316.918m2.245-8.774c1.413 1.793 2.297 3.715 2.533 5.589l.032.047c-1.83 1.172-3.54 2.945-4.808 5.348l-.039-.02H28.813q-.266-.155-.53-.321a19.5 19.5 0 0 1-2.203-1.601c-1.431-1.194-2.61-2.533-3.488-3.917a12.6 12.6 0 0 1-1.339-2.768c-.76-2.262-.671-4.482.444-6.263q.28-.447.629-.831c1.714-1.899 4.61-2.676 7.859-2.306.895.101 1.82.291 2.755.567 1.288.382 2.595.93 3.875 1.648h.002q.425.24.846.503a21 21 0 0 1 2.341 1.695 18 18 0 0 1 2.585 2.629Z" class="st12"/><path d="M35.013 37.289c3.954 2.479 6.152 6.25 5.333 8.87-1.991 1.894-6.354 1.566-10.316-.918-3.959-2.479-6.157-6.258-5.328-8.875 1.996-1.887 6.354-1.556 10.311.923" class="st12"/><path d="m80.332 28.851.096.012c-.123.807-.16 1.724-.096 2.76v.738H80.3a8.7 8.7 0 0 1-2.161.148l-.027.04-1.598-1.164c-1.152-.839-2.541-1.221-4.038-1.191v-.076q.204-.191.404-.395h.003c2.161.839 4.837.476 7.449-.871Zm12.807-13.629-.281.027-2.933-2.136c-.138-2.383-1.048-4.413-2.745-5.649l3.229 2.353c1.64 1.194 2.546 3.128 2.731 5.404ZM82.271 42.45h.007a10 10 0 0 1-.111.548l-3.606 3.009-.067-.081-1.223-.89c.883-1.643 1.475-3.32 1.778-4.931l3.222 2.346Z" class="st13"/><path d="m82.473 39.149-.279.02-2.933-2.134c-.138-2.385-1.048-4.413-2.748-5.651l1.598 1.164 1.633 1.189a5 5 0 0 1 .587.491c1.27 1.199 1.981 2.928 2.141 4.921ZM26.08 46.428l-1.142 1.825v.096h-2.541a16.3 16.3 0 0 1-1.924-2.452l.005-.005 2.116-3.382c.878 1.384 2.057 2.723 3.488 3.917zm-7.303-4.652c-.328-1.783-.091-3.485.799-4.909l2.121-3.387c-1.115 1.781-1.204 4.001-.444 6.263l-1.929 3.073-.266.081a10 10 0 0 1-.281-1.122Zm177.348 119.478q1.318.182 2.718.183.463-.001.922-.02l.042.044-3.682-.111c0 2.114-.06 2.457-1.229 1.142l-2.02-1.926.047-.049a18.4 18.4 0 0 0 3.202.737m-36.472-43.095.235.158c-.881 1.028-1.892 1.81-2.99 2.281l-.313-.296a6.6 6.6 0 0 0-1.552-1.095q.518-.476.992-1.048zm3.436-7.642.034.005c-.256 1.848-.764 3.554-1.472 5.032l-3.989-.002c.706-1.48 1.214-3.187 1.468-5.035h3.961zm-3.16-13.184-.276.108h-3.628c-1.517-1.843-3.446-2.948-5.546-2.948h3.996c2.058 0 3.952 1.061 5.454 2.839Zm3.195 7.745-.035.005h-3.961c-.254-1.847-.762-3.554-1.468-5.034h3.994c.705 1.477 1.216 3.182 1.47 5.029m49.025 44.035.103.106-2.955 2.906-.096-.099v-2.018c1.843-1.517 2.948-3.445 2.948-5.545zm-23.666 5.185v1.887l-.093.099-2.913-2.783.059-.061v-4.685c0 2.1 1.105 4.028 2.947 5.543" class="st13"/><path d="M188.483 150.008v4.29c-1.843-1.515-2.948-3.443-2.948-5.543v-4.292c0 2.1 1.105 4.028 2.948 5.545m18.159 4.729-2.155 2.122-.077-.077c-.9.276-1.857.486-2.851.622v-4.292c1.847-.254 3.554-.762 5.034-1.468v3.044z" class="st13"/><path d="m204.487 156.858-2.775 2.729-.153-.156v-2.027a18 18 0 0 0 2.851-.622z" class="st13"/><path d="M208.071 145.312q.107-.415.108-.849c0-3.061-4.178-5.542-9.336-5.542s-9.339 2.481-9.339 5.542q0 .434.109.849c.688 2.662 4.558 4.697 9.23 4.697s8.539-2.035 9.228-4.697m4.077-.849c0 2.1-1.105 4.029-2.948 5.546a12.5 12.5 0 0 1-2.607 1.632c-1.48.708-3.187 1.217-5.034 1.471a20 20 0 0 1-5.434 0c-1.848-.254-3.555-.763-5.035-1.471a12.7 12.7 0 0 1-2.607-1.632c-1.843-1.517-2.948-3.446-2.948-5.546 0-1.087.296-2.131.839-3.095 1.892-3.35 6.761-5.735 12.469-5.735 7.348 0 13.305 3.954 13.305 8.83" class="st12"/><path d="M208.071 145.312c-.688 2.661-4.556 4.696-9.227 4.696s-8.543-2.035-9.231-4.696c.693-2.657 4.564-4.689 9.231-4.689s8.534 2.032 9.227 4.689" class="st12"/><path d="M196.125 157.403v3.851a18.3 18.3 0 0 1-3.202-.738l-.046.05-1.917-1.831.131-.135v-2.667c1.48.708 3.187 1.216 5.034 1.47" class="st13"/><path d="M196.125 153.111v4.292c-1.847-.254-3.554-.762-5.034-1.47v-4.292c1.48.708 3.187 1.216 5.034 1.47" class="st13"/><path d="m116.422 168.553-9.111-8.69M40.308 48.35H21.117m51.436 0H60.817m36.691 52.421v10.57m18.914 57.212c.885.789 1.421 1.949 1.638 3.278.074.454.111.93.111 1.416m38.726-52.649-.313-.296m0 .001a6.6 6.6 0 0 0-1.551-1.096c-2.664-1.369-6.11-.949-8.353.607a6 6 0 0 0-.36.267m-39.009 39.782c-.948-.893-1.885-2.23-2.672-3.841q-.097-.199-.19-.402m.484-32.491c1.618 1.554 2.821 3.37 3.352 5.247.306 1.075.39 2.17.202 3.248a6.7 6.7 0 0 1-.723 2.09m-4.548-12.235c-1.673-1.584-3.2-3.031-4.253-4.77-.9-1.49-1.455-3.19-1.455-5.368m7.424 11.788c-.58-.575-1.154-1.12-1.714-1.65m-21.05-78.482 2.975-2.482m-7.236 6.036.654-.545 3.606-3.007m5.659-7.313 2.296-8.286m-9.79 52.898V68.717m14.196 20.9c-3.407-5.814-9.169-9.319-14.196-9.319m17.175 20.473c0-4.26-1.152-8.038-2.977-11.154m-14.198-20.9a18 18 0 0 1 .241-2.989m-8.02-17.378q1.55-.017 2.817-.412a7 7 0 0 0 2.538-1.386m7.235-6.037c1.892-1.749 2.079-2.871 2.684-4.83m118.766 115.959c-1.48.705-3.187 1.214-5.034 1.468a20 20 0 0 1-5.434 0c-1.848-.254-3.555-.763-5.035-1.471a12.7 12.7 0 0 1-2.607-1.632c-1.843-1.517-2.948-3.446-2.948-5.546 0-1.087.296-2.131.839-3.095 1.892-3.35 6.761-5.735 12.469-5.735 7.348 0 13.305 3.954 13.305 8.83 0 2.1-1.105 4.029-2.948 5.546a12.5 12.5 0 0 1-2.607 1.632m-25.939 3.017c0 1.7-.649 3.296-1.789 4.682-2.422 2.95-7.062 4.943-12.387 4.943s-9.966-1.993-12.39-4.943c-1.138-1.386-1.786-2.982-1.786-4.682q.001-.663.128-1.305c.197-.984.614-1.921 1.216-2.787 2.264-3.271 7.158-5.533 12.832-5.533 7.829 0 14.176 4.309 14.176 9.625" class="st2"/><path d="M154.088 159.34c.843-4.134 6.07-7.314 12.39-7.314s11.544 3.18 12.388 7.314m1.788 1.09c0 5.316-6.347 9.625-14.176 9.625s-14.176-4.309-14.176-9.625" class="st2"/><path d="M180.654 165.684c0 5.316-6.347 9.625-14.176 9.625s-14.176-4.309-14.176-9.625" class="st2"/><path d="M180.654 170.864c0 5.316-6.347 9.625-14.176 9.625a20 20 0 0 1-5.518-.757m19.694-3.688c.015 2.035-.291 4.277-.979 5.052m24.735-24.314c-.9.276-1.857.486-2.851.622q-1.32.185-2.716.185c-1.396 0-1.843-.065-2.718-.185-1.848-.255-3.555-.763-5.035-1.471a12.5 12.5 0 0 1-2.607-1.635c-1.843-1.515-2.948-3.443-2.948-5.543m14.23 12.662q-.459.019-.922.02-1.4 0-2.718-.183a18.4 18.4 0 0 1-3.202-.737m-3.31-15.205a3.4 3.4 0 0 1-.108-.849c0-3.061 4.181-5.542 9.339-5.542s9.336 2.481 9.336 5.542q0 .434-.109.849c-.688 2.662-4.555 4.697-9.227 4.697s-8.542-2.035-9.231-4.697" class="st2"/><path d="M189.613 145.314c.693-2.659 4.564-4.691 9.231-4.691s8.534 2.032 9.227 4.689m-34.933-3.732c2.062-.871 4.228-1.3 6.855-1.3 2.296 0 4.457.387 6.341 1.066m-10.559 2.913.013-.005c1.265-.437 2.72-.686 4.27-.686 2.069 0 3.971.444 5.478 1.189m-8.357.782c.957-.195 1.744-.269 2.814-.269 1.988 0 3.831.37 5.345.999m-27.68-30.717a12.8 12.8 0 0 1-1.633 2.607q-.474.573-.992 1.046m2.627-19.156c.706 1.48 1.214 3.187 1.468 5.034.121.876.185 1.786.185 2.716s-.064 1.842-.185 2.718c-.254 1.848-.762 3.555-1.468 5.035m-10.98 4.262c-2.977-2.139-5.032-6.714-5.032-12.015 0-7.348 3.955-13.305 8.831-13.305 2.099 0 4.028 1.105 5.545 2.948a12.6 12.6 0 0 1 1.633 2.608" class="st2"/><path d="M154.476 94.494c2.057 0 3.951 1.061 5.453 2.839.657.777 1.239 1.69 1.725 2.713.705 1.48 1.216 3.185 1.47 5.032.121.878.185 1.788.185 2.721s-.064 1.845-.185 2.723c-.257 1.848-.765 3.555-1.473 5.032a12.4 12.4 0 0 1-1.764 2.763c-.88 1.028-1.891 1.81-2.989 2.281" class="st2"/><path d="M151.328 117.029q-.416.109-.849.109c-3.061 0-5.542-4.181-5.542-9.339s2.481-9.339 5.542-9.339q.435 0 .851.111c2.657.688 4.694 4.559 4.694 9.228s-2.037 8.542-4.696 9.23" class="st2"/><path d="M151.331 117.029c-2.657-.693-4.689-4.563-4.689-9.23s2.035-8.54 4.691-9.228m3.142-4.077h-3.996m8.649 10.589h3.961m-5.432-5.034h3.991m-5.624-2.608h3.629m-.525 13.076h3.961m-5.432 5.035h3.991m-5.624 2.607h3.629m52.495 30.954v-4.65m-26.613 8.977v-8.977m16.024 8.649v6.319m5.035-7.79v3.047m2.607-4.679v2.017m-13.076 1.086v9.866m-5.034-11.337v6.959m-2.608-8.591v6.176M65.066 33.232c2.4-1.917 5.042-2.995 7.41-3.039 1.497-.03 2.886.353 4.038 1.191 1.7 1.238 2.61 3.266 2.748 5.651a12.8 12.8 0 0 1-.212 3.069c-.303 1.611-.895 3.288-1.778 4.931a20 20 0 0 1-1.901 2.903l-.025.032m-16.131-6.852c.434-1.08.992-2.163 1.672-3.219q.308-.482.654-.957a19.3 19.3 0 0 1 3.522-3.71m14.682.505q.312.224.587.491c1.27 1.199 1.981 2.928 2.141 4.921.086 1.041.02 2.153-.192 3.303q-.048.273-.111.545" class="st2"/><path d="M62.763 41.28c.387-.809.866-1.618 1.438-2.403 3.036-4.169 7.504-6.088 9.978-4.285q.348.257.619.587c1.749 2.119 1.115 6.448-1.633 10.224a15 15 0 0 1-2.817 2.945" class="st2"/><path d="M64.484 41.655c.345-.664.624-1.132 1.093-1.776 2.745-3.772 6.667-5.703 9.22-4.699l.005.002m4.943-1.445-1.633-1.189-1.598-1.164m.757 13.651 1.223.89m.553-5.824.002.003 3.221 2.346m-3.01-5.417.002.002 2.933 2.134m-45.378-6.611q.425.24.846.503a21 21 0 0 1 2.341 1.695 18 18 0 0 1 2.585 2.629c1.413 1.793 2.296 3.715 2.533 5.589M28.813 48.35q-.266-.155-.53-.321a19.5 19.5 0 0 1-2.203-1.601c-1.431-1.194-2.61-2.533-3.488-3.917a12.6 12.6 0 0 1-1.339-2.768c-.76-2.262-.671-4.482.444-6.263q.28-.447.629-.831c1.714-1.899 4.61-2.676 7.859-2.306.895.101 1.82.291 2.755.567 1.288.382 2.595.93 3.875 1.648M22.395 48.35a16.3 16.3 0 0 1-1.924-2.452q-.273-.426-.506-.858a12 12 0 0 1-.908-2.141 10 10 0 0 1-.281-1.122c-.328-1.783-.091-3.485.799-4.909" class="st2"/><path d="M24.702 36.367a3.4 3.4 0 0 1 .358-.779c1.625-2.595 6.487-2.479 10.858.261 4.368 2.738 6.593 7.06 4.968 9.655a3.4 3.4 0 0 1-.54.656c-1.991 1.894-6.354 1.566-10.316-.918-3.959-2.479-6.157-6.258-5.328-8.875" class="st2"/><path d="M24.701 36.367c1.995-1.887 6.354-1.556 10.311.923 3.954 2.479 6.152 6.25 5.333 8.87l-.002.007m-20.767-9.3 2.121-3.387m4.381 12.951-1.142 1.823m-2.343-5.743-2.116 3.382m.776-6.149-1.929 3.073m39.992 15.091c0-17.247 9.27-16.995 9.27-9.558" class="st2"/><path d="M59.316 41.28c1.066 0 2.264-.03 3.436.094a10 10 0 0 1 1.719.323c2.282.659 4.114 2.348 4.114 6.653m-9.269-7.07h-8.648m0 0c-1.739 0-3.685.57-5.513 1.741-1.83 1.172-3.54 2.945-4.808 5.348-1.315 2.491-2.153 5.661-2.153 9.539m15.88 0 2.62-3.165.002-.002m-2.675 3.167-2.607-3.15-.015-.017" class="st2"/><path d="m59.316 57.908-2.622-3.165-.003-.002m-13.183 3.167 2.622-3.167m-7.936 3.167 2.622-3.167m2.637 3.167-2.622-3.167m7.975 3.167 2.607-3.15.015-.017m-2.676 3.167-2.622-3.167m53.531-27.74c.015-1.334-.227-2.829-.654-4.443l-.003-.005m.635 4.462c-.723-1.219-1.667-2.156-2.76-2.903l-.022-.015" class="st2"/><path d="M101.785 25.474q-1.388-1.934-2.777-2.916l-.005-.002m-3.624 7.521c.032-1.515-.175-3-.656-4.445m-1.497 5.991c.054-1.344.012-2.755-.656-4.445m2.787 2.913c-.728-1.179-1.598-2.21-2.782-2.918m4.95 1.362c.059-1.502-.111-2.98-.646-4.423q-.007-.012-.01-.025m.636 4.463c-.915-1.354-1.845-2.294-2.782-2.918M5.069 48.816l-.313 3.994m.346-4.019 2.832 1.584.017.01M1.11 51.912l.044.01 3.601.888" class="st2"/><path d="m8.629 46.167-.696 4.208-.002.022m34.213.752H57.45m-14.091-3.033h14.904m-12.59-2.812h13.954" class="st2"/><path d="m1.145 51.904.01.017c2.484 4.534 5.56 6.011 7.617 5.318q.342-.114.641-.308c1.902-1.216 2.482-4.716-.123-9.479m-.871-4.983c1.152-4.179 7.205-5.964 10.358-.693l.005.007m-10.422.928q.025-.12.057-.234m.873 4.975a8 8 0 0 1-.631-1.298c-.469-1.233-.533-2.398-.303-3.429m9.232 6.54v3.752m0-3.752c0-1.658.429-2.649 1.253-3.414q.003-.007.007-.007a6.3 6.3 0 0 1 1.117-.804" class="st2"/><path d="m8.771 57.239.641-.308 8.175-3.915m-4.084-16.148 8.818-4.223M8.354 42.726s.002-.01.005-.015q.026-.12.057-.234.003-.004.002-.007c.71-2.632 2.703-4.507 5.084-5.602m59.04-24.292c.994.622 1.882 1.28 2.639 1.964q.692.62 1.233 1.258c1.436 1.682 2.052 3.416 1.561 4.926-.336 1.033-1.154 1.847-2.326 2.422-2.888 1.426-7.923 1.413-13.192-.298-5.21-1.69-9.257-4.593-10.797-7.41m0-.001c-.649-1.189-.853-2.363-.508-3.426a3.4 3.4 0 0 1 .271-.617c1.394-2.472 5.932-3.409 11.292-2.489 1.28.22 2.61.545 3.954.982 2.198.713 4.186 1.643 5.871 2.689" class="st2"/><path d="M51.66 15.437c2.886-1.431 7.93-1.421 13.204.293 5.338 1.734 9.294 4.457 10.747 7.341" class="st2"/><path d="M65.066 33.231c-1.707.064-3.589-.222-5.673-.937-2.654-1.098-4.657-2.464-6.122-4.018a12.06 12.06 0 0 1-2.824-4.891 14.3 14.3 0 0 1-.567-3.841c-.03-1.663.192-3.372.592-5.084.188-.819.419-1.635.683-2.449m26.822 8.712c-.644 1.978-1.478 3.929-2.536 5.681-.74 1.223-1.589 2.348-2.56 3.318q-.2.203-.407.395" class="st2"/><path d="M60.888 37.899q-1.372-.228-2.881-.745c-1.82-.752-3.209-1.505-4.253-2.237-4.835-3.397-2.22-6.344-.486-6.64h.003m-2.827-4.892c-2.181-.523-3.816-1.49-4.951-2.662-4.363-4.494-1.428-12.032 5.93-9.329" class="st2"/><path d="M49.711 19.547c-4.652-1.115-3.362-6.593.73-5.091m30.05 14.049q-.033.175-.062.358c-.123.807-.16 1.724-.096 2.76m12.892 0c-.871-1.751-1.899-3.199-2.992-4.327-3.954-4.08-8.732-3.949-9.741 1.204m21.293-3.026c-2.053-6.714-5.883-9.031-8.612-9.504-.767-.136-1.445-.123-1.973-.022M80.332 31.623v2.605m1.453-10.298s.012-.027.02-.039c.53-1.117 1.571-2.417 2.842-3.648 1.502-1.458 3.327-2.817 5.03-3.665a10 10 0 0 1 1.524-.629" class="st2"/><path d="M80.332 31.623c-.005-1.12.04-2.146.158-3.118-.003-.003 0-.003 0-.005.192-1.618.59-3.083 1.292-4.571m3.658-.858 6.524-5.587M88.4 23.811l6.524-5.587m-4.303 7.067 6.524-5.587m-16.813 9.147c-2.612 1.347-5.288 1.709-7.449.873m-.343-17.146.003-.002c3.569-4.63 8.589-7 12.395-6.122.812.185 1.566.52 2.242 1.011 1.697 1.236 2.607 3.266 2.745 5.649a13 13 0 0 1-.279 3.407M80.3 32.361a8.7 8.7 0 0 1-2.161.148M90.408 9.818c1.64 1.194 2.546 3.128 2.731 5.404q.03.366.035.747v.035m-11.465 7.84c-2.082 1.87-4.415 2.827-6.268 2.56l-.012-.003" class="st2"/><path d="M75.182 14.539c3.024-3.878 7.272-5.607 9.662-3.865q.348.257.619.587c1.559 1.889 1.224 5.538-.816 8.981l-.025.042" class="st2"/><path d="M76.455 15.763c2.745-3.772 6.453-5.503 9.008-4.502q-.001.002.005.003m4.941-1.446L87.18 7.465m2.745 5.648 2.933 2.136m-59.121 3.486c3.377 1.164 6.433 2.736 8.996 4.926 4.001 3.424 6.796 8.362 7.731 15.641q.127.961.205 1.978M34.561 21.937l-.824-3.202m-3.024 3.762 3.848-.56m-2.699 3.695-1.149-3.135m-2.134 4.24 3.283-1.105m-1.64 4.376-1.643-3.271m9.615-3.352-5.254 7.526" class="st2"/><path d="m41.613 26.184-4.795 6.374h-.003v.002m7.615-3.159-4.425 5.355m6.601-1.663-4.016 4.292-.02.02m2.026 3.283 3.397-3.234M63.445 4.199C69.224.536 77.759.469 82.845 2.24M62.762 8.641q-.236-.677-.447-1.433m22.635-.806q.032-.75-.002-1.519m-22.672 2.18c-.298-1.238.04-2.176 1.056-2.79m21.603.377c.002-1.223-.75-1.996-2.089-2.41M50.464 39.302q.748-2.678 3.29-4.386h.003M42.73 23.663h.002c.762-1.206 1.65-2.232 2.76-2.938m59.753 57.977s-3.83-.21-6.351-2.886c-2.519-2.679-5.195-7.099-10.444-7.348-5.195.116-6.384-1.043-7.915-2.491m20.248 14.824q2.808.044 4.462-2.099m-7.737 5.091c1.406.328 3.396.343 4.906.106m-7.766 2.886c1.399.368 3.214.419 4.61.158m-4.61-.158 1.201 3.202m-1.321-.37h.003l1.32.37m4.932-9.186q.302 1.55 1.631 3.098m-4.906-.106q.426 1.575 1.751 3.15m-7.469-3.15 6.26-5.821m-8.798 3.108 6.26-5.821m-8.591 3.298 6.26-5.821m-12.647 3.961 6.26-5.821m-6.42 1.995 2.943-2.735m35.164 76.325c.314 1.998 1.794 5.124 4.833 7.849 3.039 2.728 5.453 3.508 8.258 6.547 2.807 3.039 4.988 7.481 7.792 10.752 2.807 3.273 5.299 4.287 5.299 4.287m-26.519-4.08c2.804 3.039 4.866 7.361 7.671 10.634q.135.157.269.309c2.693 3.029 5.029 3.976 5.029 3.976m0-2.992v2.992m3.365-2.4-3.365-.592m3.133-2.265.232 2.857m3.335-2.388a52 52 0 0 1-3.567-.469m3.606-2.203-.022 2.672v.017m4.179-2.753q-2.078.098-4.156.065m3.961-.701.195.617m-.831-2.613.634 1.991" class="st2"/><path d="M144.663 175.896c-1.204.568-2.18.683-3.485.683m-36.536-20.559 2.669.757m.357-3.685-.357 3.685m2.922-2.136-2.565-1.549m3.473-2.511-.908 4.06m3.577-2.671-2.669-1.389m3.364-2.136-.695 3.524m3.153-2.348-2.457-1.176m3.975-1.984c-.429.538-.92 1.495-1.519 3.16m-7.081 9.754 7.841-6.078m-5.843 8.519 7.841-6.077m-5.547 8.371 7.841-6.078m-2.513 9.705 7.842-6.078m-5.548 8.224 7.841-6.078m-6.287 8.964 7.841-6.078m-4.881 10.517 7.841-6.077m-5.622 9.037 7.842-6.077m-32.022-71.664a21 21 0 0 1 1.968-.854c5.395-2.025 10.859-1.653 14.282.595 1.017.666 1.853 1.497 2.455 2.481q.344.566.582 1.196c.656 1.747.58 3.641-.101 5.496-1.347 3.688-5.067 7.218-10.128 9.117-3.57 1.339-7.166 1.63-10.188 1.021h-.002m-5.708-13.327c.794-1.172 1.823-2.287 3.049-3.293" class="st2"/><path d="M123.635 105.845a20.4 20.4 0 0 1 1.325 4.058c.296 1.381.422 2.738.397 4.048-.052 2.883-.836 5.545-2.178 7.782-1.631 2.723-4.09 4.822-7.067 5.94a14.65 14.65 0 0 1-7.817.7" class="st2"/><path d="M123.227 121.763c2.218 1.615 1.354 6.721-5.5 9.292-2.975 1.117-6.865 1.729-9.199.577m15.005-20.291s-1.085-1.924-3.372-3.002c-2.286-1.08-3.046-.927-5.157-3.177-1.081-1.27-2.568-2.052-3.839-1.418-1.27.636-1.334 1.736-.367 2.817.964 1.078.224 2.19-.994 1.714-1.219-.476-2.02-1.288-3.313-2.985-.767-1.033-1.51-2.005-2.235-2.777-1.29-1.372-2.523-2.107-3.734-1.416-1.263.725-.952 2.161 0 3.303l.197.234c1.073 1.256 3.392 3.804 3.868 5.291.508 1.589-.508 1.564-1.016 1.416-1.157-.326-1.915-1.741-3.113-1.034-1.199.708-1.017 2.159-.126 3.429.888 1.27-1.073 2.795-1.073 2.795m3.957-19.163s-2.403-1.307-2.432-2.874c-.028-1.566 1.66-1.406 2.548-.701.885.705 1.855 2.005 1.914 3.034s-1.024 1.137-2.03.54Zm17.383 4.8c7.715-5.676 11.62 4.972 4.763 11.783" class="st2"/><path d="M123.053 104.649c2.794-1.307 4.112 2.422 1.909 5.254m22.335 102.902 2.76-2.716 12.23-12.027.281-.279m-11.768 8.029 7.634-7.511m-10.52 5.291 7.634-7.511m-10.52 5.291 7.635-7.511m-10.595 3.071 7.635-7.511m-10.077 4.921 7.634-7.511m-11.482 5.291 7.635-7.511m-10.447 5.291 7.634-7.511m-18.662 9.899 21.497 20.515m29.583-25.16 6.657-6.549m-31.638-13.638 4.265 4.077 8.619 8.239 8.233 7.871m3.863 0c-1.44 1.27-2.694 1.315-3.863 0m29.606-25.153 1.048-1.031 1.904-1.874 2.775-2.729 2.156-2.121 2.654-2.612 2.955-2.906.595-.584m-40.091-7.272.308.293 2.723 2.598 1.369 1.307 8.32 7.94 2.914 2.783 2.57 2.452 1.916 1.83 2.021 1.926m3.862 0c-1.44 1.271-2.693 1.315-3.863 0m-14.242 13.552v-21.386m-28.352 16.904v-16.904m-3.51 3.759c.392.452.886.955 1.413 1.456.691.656 1.443 1.31 2.097 1.837m-3.51-3.293c-2.678-2.599-2.375-8.946 2.583-8.732m0 0q1.522.207 2.269.878m-2.755 6.298c.375.432.843.856 1.322 1.243" class="st2"/><path d="M150.888 156.861c-1.001-.928-1.124-4.662 1.542-3.508m-4.393 14.105c-1.638-2.659-1.228-6.932 2.168-7.585m.684 6.975c.375.435.843.859 1.322 1.246" class="st2"/><path d="M150.889 166.849c-.984-.913-1.12-4.537 1.413-3.56l.128.054m9.855 34.716s-.18-1.736-1.714-3.061c-1.537-1.325-2.472-1.376-4.806-3.458s-1.872-3.098-4.876-5.866c-3.007-2.768-5.025-2.795-6.603-4.196a14 14 0 0 1-2.472-2.903l-.002-.005m-15.36 11.071c-1.184-1.182-2.119-2.492-2.79-4.403m26.396 24.851s-.526-1.857-2.063-3.182c-1.534-1.325-5.35-2.753-7.683-4.835s-2.543-4.232-5.55-7-5.915-3.268-7.494-4.667a19 19 0 0 1-.814-.765m-3.377-.303s.792 1.52 2.018 2.987a11 11 0 0 0 1.606 1.596c2.096 1.648 3.362 1.453 5.695 3.717 2.334 2.267 2.817 5.069 5.417 7.336 2.597 2.265 5.37 1.868 7.553 4.021 2.18 2.153 1.931 3.811 1.931 3.811-1.44 1.268-2.693 1.312-3.862 0m-19.773-27.567 2.869.362" class="st2"/><path d="m123.077 189.337 3.375.304h.002m-4.516 2.649 3.157.034h.002m1.433-6.724-.446-2.841" class="st2"/><path d="M228.929 155.613v.126c-4.733 1.053-6.948 5.323-7.706 11.45-.754-6.127-2.969-10.397-7.705-11.45v-.126c4.736-1.053 6.951-5.323 7.705-11.45.758 6.127 2.973 10.397 7.706 11.45m-26.754-30.212v.091c-4.151.785-6.092 3.954-6.753 8.508-.664-4.554-2.605-7.723-6.754-8.508v-.091c4.149-.784 6.09-3.954 6.754-8.507.661 4.553 2.602 7.723 6.753 8.507m-13.312 51.672v.084c-4.151.725-6.093 3.655-6.754 7.861-.663-4.206-2.605-7.136-6.754-7.861v-.084c4.149-.725 6.091-3.653 6.754-7.859.661 4.206 2.603 7.134 6.754 7.859m-22.614 1.773v.067c-3.222.562-4.729 2.839-5.245 6.105-.515-3.266-2.022-5.543-5.246-6.105v-.067c3.224-.562 4.731-2.836 5.246-6.102.516 3.266 2.023 5.54 5.245 6.102m-19.435 33.996v.123c-4.756 1.054-6.978 5.311-7.738 11.424-.76-6.113-2.985-10.37-7.738-11.424v-.123c4.753-1.051 6.978-5.308 7.738-11.421.76 6.113 2.982 10.37 7.738 11.421" class="st11"/><path d="M221.224 144.163c.757 6.127 2.972 10.397 7.706 11.45m-7.707-11.45c-.754 6.127-2.969 10.397-7.705 11.45m7.706 11.576c.757-6.127 2.972-10.397 7.706-11.45m-7.707 11.45c-.754-6.127-2.969-10.397-7.705-11.45m-18.096-38.845c.661 4.553 2.602 7.723 6.754 8.507m-6.754-8.507c-.664 4.553-2.605 7.723-6.754 8.507m6.754 8.599c.661-4.554 2.602-7.723 6.754-8.508M195.422 134c-.664-4.554-2.605-7.723-6.754-8.508m-6.559 43.722c.661 4.206 2.603 7.134 6.754 7.859m-6.754-7.859c-.663 4.206-2.605 7.134-6.754 7.859m6.754 7.945c.661-4.206 2.603-7.136 6.754-7.861m-6.754 7.861c-.663-4.206-2.605-7.136-6.754-7.861m-14.35-4.413c.515 3.266 2.023 5.54 5.244 6.102m-5.245-6.102c-.515 3.266-2.022 5.54-5.246 6.102m5.247 6.172c.515-3.266 2.023-5.543 5.244-6.105m-5.245 6.105c-.515-3.266-2.022-5.543-5.246-6.105m-16.682 22.508c.76 6.113 2.982 10.37 7.738 11.421m-7.738-11.421c-.76 6.113-2.985 10.37-7.738 11.421m7.738 11.546c.76-6.112 2.982-10.369 7.738-11.423m-7.738 11.423c-.76-6.112-2.985-10.369-7.738-11.423" class="st1"/></g></svg>