<?xml version="1.0" encoding="utf-8"?>
<!-- Generator: Adobe Illustrator 26.5.0, SVG Export Plug-In . SVG Version: 6.00 Build 0)  -->
<svg version="1.1" id="Layer_1" xmlns="http://www.w3.org/2000/svg" xmlns:xlink="http://www.w3.org/1999/xlink" x="0px" y="0px"
	 viewBox="0 0 201 164" style="enable-background:new 0 0 201 164;" xml:space="preserve">
<style type="text/css">
	.st0{fill:#FFFAF0;}
	.st1{fill:#0C1B33;}
	.st2{fill:#FFF2B2;}
	.st3{fill:#FF7101;}
	.st4{fill:#FED607;}
	.st5{fill:#E4BC07;}
	.st6{fill:#49225B;}
	.st7{fill:#712A76;}
	.st8{fill:#E96DF2;}
	.st9{fill:#0185FF;}
	.st10{fill:#EB7832;}
	.st11{fill:#8DC8FF;}
	.st12{fill:#B0D9FF;}
	.st13{fill:#FFFFFF;filter:url(#Adobe_OpacityMaskFilter);}
	.st14{mask:url(#mask0_333_795_00000138562821643058766540000000523873884838525612_);}
	.st15{fill:#F68DFE;}
</style>
<g>
	<path class="st0" d="M173.1,54.2h-16.4c-1.5,0-2.8,1.2-2.8,2.8v48.5c0,1.5,1.2,2.8,2.8,2.8h16.4c1.5,0,2.8-1.2,2.8-2.8V56.9
		C175.9,55.4,174.7,54.2,173.1,54.2z"/>
	<path class="st1" d="M173.1,108.7h-16.5c-1.8,0-3.3-1.5-3.3-3.3V56.9c0-1.8,1.5-3.3,3.3-3.3h16.5c1.8,0,3.3,1.5,3.3,3.3v48.5
		C176.4,107.2,174.9,108.7,173.1,108.7z M156.7,54.7c-1.3,0-2.3,1-2.3,2.3v48.5c0,1.3,1,2.3,2.3,2.3h16.5c1.3,0,2.3-1,2.3-2.3V56.9
		c0-1.3-1-2.3-2.3-2.3H156.7z"/>
</g>
<g>
	<path class="st2" d="M153.4,55.8c-0.6,1.5,0,3.5,1.6,4.2c1.4,0.6,3.2-0.1,4.4,1c1.6,1.4,0.1,4.7,1.8,5.9c1.1,0.8,2.7,0.1,4.1,0.5
		c1.6,0.6,2.1,2.5,2,4.2c-0.1,1.7-0.1,3.5,0.8,5c0.2,0.3,0.7,0.7,1.3,0.8c1.3,0.2,2.1-1.1,2.2-2.4c0.1-1.3-0.4-2.8,0.3-4
		c0.1-0.2,0.4-0.3,0.5-0.3c0.6-0.2,0.9,0.6,0.9,1.2c0.1,2.9,0.1,5.9,0.2,8.8c0,1,0.1,2.2,0.6,3c0.6,0.9,1.9,1.3,2.7,0.6
		c0.5-0.5,0.6-1.3,0.5-2.1c-0.1-7.7-0.3-13.1-0.4-20.8c0-4.8,2.5-7.7-1.8-9.7c-3.5-1.7-7,1.5-14.3,1.7
		C157.9,53.2,154.6,52.6,153.4,55.8L153.4,55.8z"/>
	<path class="st1" d="M175.7,85c-0.1,0-0.2,0-0.2,0c-0.7-0.1-1.5-0.5-1.9-1.1c-0.7-1-0.7-2.3-0.7-3.3l-0.2-8.8
		c0-0.4-0.2-0.7-0.3-0.7c-0.2,0.1-0.2,0.1-0.3,0.1c-0.4,0.7-0.4,1.5-0.3,2.4c0,0.4,0.1,0.9,0,1.3c-0.1,1-0.4,1.9-1.1,2.4
		c-0.5,0.4-1,0.5-1.7,0.5c-0.7-0.1-1.4-0.6-1.6-1c-1-1.6-0.9-3.6-0.8-5.2c0-0.7,0-3.1-1.7-3.7c-0.5-0.2-1-0.1-1.6-0.1
		c-0.9,0-1.8,0.1-2.5-0.5c-1.1-0.8-1.1-2.1-1.2-3.4c0-1-0.1-2-0.7-2.6c-0.5-0.5-1.3-0.5-2.1-0.5c-0.7,0-1.4-0.1-2.1-0.3
		c-1.7-0.7-2.6-2.9-1.9-4.7c0,0,0,0,0-0.1c1.2-3,4-3,6.5-3c0.4,0,0.8,0,1.2,0c3.2-0.1,5.6-0.8,7.8-1.4c2.6-0.7,4.7-1.3,6.8-0.3
		c3.4,1.6,3,3.8,2.5,6.4c-0.2,1.1-0.4,2.3-0.4,3.7c0.1,3.8,0.1,7,0.2,10.2c0.1,3.3,0.1,6.7,0.2,10.6c0,0.8,0,1.8-0.7,2.4
		C176.7,84.8,176.2,85,175.7,85z M172.4,70c0.2,0,0.4,0.1,0.6,0.2c0.5,0.3,0.6,1,0.6,1.5l0.2,8.8c0,1.1,0.1,2,0.6,2.7
		c0.3,0.4,0.7,0.7,1.2,0.7c0.2,0,0.5,0,0.7-0.2c0.4-0.4,0.4-1,0.4-1.7c-0.1-3.9-0.1-7.3-0.2-10.6c-0.1-3.2-0.1-6.4-0.2-10.2
		c0-1.5,0.2-2.8,0.4-3.9c0.5-2.6,0.7-4.1-1.9-5.3c-1.8-0.9-3.6-0.4-6.1,0.3c-2.1,0.6-4.7,1.3-8,1.4c-0.4,0-0.9,0-1.3,0
		c-2.4,0-4.6-0.1-5.5,2.3c0,0,0,0,0,0.1c-0.5,1.2,0,3,1.3,3.5c0.5,0.2,1.1,0.2,1.7,0.3c1,0,2,0.1,2.8,0.8c0.9,0.8,1,2.1,1,3.3
		c0,1.1,0.1,2.1,0.8,2.6c0.5,0.4,1.2,0.3,1.9,0.3c0.7,0,1.4-0.1,2,0.2c1.5,0.5,2.4,2.3,2.3,4.6c-0.1,1.5-0.1,3.3,0.7,4.7
		c0.1,0.2,0.5,0.5,0.9,0.5c0.3,0,0.6,0,0.9-0.2c0.4-0.3,0.7-1,0.7-1.7c0-0.4,0-0.8,0-1.2c-0.1-1-0.1-2.1,0.5-3
		c0.2-0.3,0.6-0.5,0.8-0.5C172.2,70,172.3,70,172.4,70z"/>
</g>
<g>
	<path class="st0" d="M160.5,72.7h-12.1c-1.5,0-2.8,1.2-2.8,2.8v30.8c0,1.5,1.2,2.8,2.8,2.8h12.1c1.5,0,2.8-1.2,2.8-2.8V75.4
		C163.3,73.9,162,72.7,160.5,72.7z"/>
	<path class="st1" d="M160.5,109.5h-12.1c-1.8,0-3.3-1.5-3.3-3.3V75.4c0-1.8,1.5-3.3,3.3-3.3h12.1c1.8,0,3.3,1.5,3.3,3.3v30.8
		C163.8,108.1,162.3,109.5,160.5,109.5z M148.4,73.2c-1.3,0-2.3,1-2.3,2.3v30.8c0,1.3,1,2.3,2.3,2.3h12.1c1.3,0,2.3-1,2.3-2.3V75.4
		c0-1.3-1-2.3-2.3-2.3H148.4z"/>
</g>
<g>
	<path class="st2" d="M147.7,70.4c-1.4,0.4-2.6,2.1-3.2,3.7c-0.3,0.8-0.4,2.2-0.4,3c0,2.8-0.2,5.6,0,8.4c0.1,1.2,0.6,2.6,1.6,3.1
		c1.4,0.6,3,0.2,3-2.5c0-1.8,0.4-3,1.5-3c1.2,0,1,0.6,1.7,1.7c1.2,1.8,3.8,0.9,3.9-1.1c0.1-1.6-0.1-3.1,0.8-4.3c0.8-1,2.3-1,3.6-0.9
		c2.2,0.1,3.6-0.2,3.8-1.5c0.1-0.7,0-0.8,0-1.3c0-1.3,0-1.8-0.9-2.7c-0.9-1-3.4-0.8-4.7-0.9C154.9,72,151.1,69.4,147.7,70.4
		L147.7,70.4z"/>
	<path class="st1" d="M146.8,89.4c-0.4,0-0.8-0.1-1.3-0.3c-1.3-0.6-1.8-2.2-1.9-3.5c-0.1-2.1-0.1-4.2-0.1-6.2c0-0.7,0-1.5,0-2.2
		c0-0.9,0.1-2.4,0.4-3.2c0.5-1.5,1.8-3.5,3.5-4c0,0,0,0,0,0c2.2-0.6,4.4,0.1,6.6,0.8c1.4,0.4,2.9,0.9,4.3,1c0.2,0,0.4,0,0.7,0
		c1.5,0,3.4,0,4.4,1c0.9,1,1,1.7,1,2.8l0,0.5c0,0.3,0,0.5,0,1.1c-0.2,2.2-3.1,2-4.3,2c-1.4-0.1-2.6-0.1-3.2,0.8
		c-0.6,0.8-0.6,1.8-0.6,2.9c0,0.3,0,0.7,0,1.1c-0.1,1.2-0.9,2.2-2,2.5c-1.1,0.3-2.2-0.1-2.8-1.1c-0.2-0.3-0.3-0.6-0.5-0.8
		c-0.3-0.6-0.3-0.6-0.9-0.6c-0.3,0-1,0-1,2.5c0,1.7-0.6,2.5-1.2,2.9C147.7,89.3,147.2,89.4,146.8,89.4z M147.8,70.9
		C147.8,70.9,147.8,70.9,147.8,70.9c-1.3,0.4-2.4,2-2.9,3.4c-0.2,0.7-0.4,2-0.4,2.9c0,0.7,0,1.5,0,2.2c0,2.1-0.1,4.1,0.1,6.1
		c0.1,1.1,0.5,2.3,1.3,2.7c0.6,0.3,1.2,0.3,1.5,0c0.5-0.3,0.7-1,0.7-2c0-0.9,0-3.5,2-3.5c1.2,0,1.4,0.5,1.8,1.2
		c0.1,0.2,0.2,0.4,0.4,0.7c0.4,0.6,1,0.9,1.7,0.7c0.5-0.1,1.2-0.6,1.2-1.5c0-0.3,0-0.7,0-1c0-1.3,0-2.5,0.9-3.6c1-1.3,2.8-1.2,4-1.1
		c2.8,0.1,3.2-0.5,3.2-1.1c0.1-0.5,0-0.7,0-1l0-0.5c0-1.1,0-1.4-0.7-2.2c-0.6-0.7-2.4-0.7-3.6-0.7c-0.3,0-0.5,0-0.7,0
		c-1.5-0.1-3.1-0.5-4.5-1C151.7,71,149.7,70.4,147.8,70.9z"/>
</g>
<g>
	<path class="st3" d="M163.4,36c0,0-0.1,1.2-1.3,2.5c-1.2,1.4-4.4,6.2-4.5,9.3c-0.1,3.1,1.6,6.8,6.4,6.8c4.8,0,5.9-4.4,5.9-7.8
		C170,43.4,163.8,36.3,163.4,36z"/>
</g>
<g>
	<path class="st4" d="M168.9,52.2c0,0-1.4-6.3-4.8-8.3c0,0-4.8,4.6-4.8,8.5c0,0,0.3,2.1,4.7,2.1C168.4,54.6,168.9,52.2,168.9,52.2
		L168.9,52.2z"/>
</g>
<g>
	<path class="st0" d="M166.2,54.2c0,0,0.2-3.6-2.3-4.7c0,0-2.3,1.2-2.3,4.4C161.7,53.9,163.4,55.6,166.2,54.2z"/>
</g>
<g>
	<path class="st1" d="M164.1,55.1c-4.4,0-7.1-2.7-7.1-7.2c0-2.8,1.2-4.6,2.7-6.7c1.1-1.5,2.3-3.3,3.2-5.8c0.1-0.1,0.2-0.2,0.3-0.3
		c0.1,0,0.3,0,0.4,0.1c1.9,1.2,6.9,8.5,6.9,13C170.6,52.5,168.2,55.1,164.1,55.1z M163.6,36.4c-1,2.3-2.1,3.9-3.1,5.4
		c-1.4,2-2.5,3.6-2.5,6.1c0,3.9,2.2,6.2,6.1,6.2c3.5,0,5.5-2.1,5.5-5.9C169.6,44.4,165.7,38.2,163.6,36.4z"/>
</g>
<g>
	<path class="st3" d="M154.9,59.1c0,0,0.1,0.9,1,1.9c0.9,1,3.3,4.6,3.3,6.9c0.1,2.3-1.2,5-4.8,5s-4.4-3.3-4.4-5.8
		C150.1,64.7,154.6,59.4,154.9,59.1L154.9,59.1z"/>
</g>
<g>
	<path class="st4" d="M150.8,71.2c0,0,1.1-4.7,3.5-6.2c0,0,3.6,3.4,3.6,6.3c0,0-0.2,1.6-3.5,1.6C151.2,72.9,150.8,71.2,150.8,71.2z"
		/>
</g>
<g>
	<path class="st0" d="M152.8,72.6c0,0-0.2-2.7,1.7-3.5c0,0,1.7,0.9,1.7,3.2C156.2,72.4,154.9,73.7,152.8,72.6L152.8,72.6z"/>
</g>
<g>
	<path class="st1" d="M154.4,73.4c-3.1,0-5-2-5-5.3c0-3.3,3.6-8.7,5.2-9.8c0.1-0.1,0.3-0.1,0.4-0.1c0.1,0,0.3,0.2,0.3,0.3
		c0.7,1.9,1.6,3.2,2.4,4.3c1.1,1.6,2,2.9,2,5C159.8,71.4,157.8,73.4,154.4,73.4z M154.7,59.7c-1.5,1.5-4.3,5.9-4.3,8.5
		c0,2.8,1.4,4.3,4,4.3c2.8,0,4.4-1.6,4.4-4.5c0-1.8-0.8-3-1.8-4.5C156.2,62.5,155.4,61.3,154.7,59.7z"/>
</g>
<g>
	<path class="st5" d="M34.7,126.3v1.7c0,1.5,2.4,2.7,5.3,2.7c2.9,0,5.3-1.2,5.3-2.7v-1.7"/>
</g>
<g>
	<path class="st1" d="M40,131.2c-3.2,0-5.8-1.4-5.8-3.2v-1.7c0-0.3,0.2-0.5,0.5-0.5s0.5,0.2,0.5,0.5v1.7c0,1,2,2.2,4.8,2.2
		s4.8-1.1,4.8-2.2v-1.7c0-0.3,0.2-0.5,0.5-0.5s0.5,0.2,0.5,0.5v1.7C45.8,129.8,43.2,131.2,40,131.2z"/>
</g>
<g>
	<path class="st4" d="M40,129c2.9,0,5.3-1.2,5.3-2.7c0-1.5-2.4-2.7-5.3-2.7c-2.9,0-5.3,1.2-5.3,2.7C34.7,127.8,37.1,129,40,129z"/>
	<path class="st1" d="M40,129.5c-3.2,0-5.8-1.4-5.8-3.2s2.5-3.2,5.8-3.2s5.8,1.4,5.8,3.2S43.2,129.5,40,129.5z M40,124.2
		c-2.8,0-4.8,1.1-4.8,2.2s2,2.2,4.8,2.2s4.8-1.1,4.8-2.2S42.8,124.2,40,124.2z"/>
</g>
<g>
	<path class="st5" d="M39.1,122v1.7c0,1.5,2.4,2.7,5.3,2.7c2.9,0,5.3-1.2,5.3-2.7V122"/>
</g>
<g>
	<path class="st1" d="M44.4,126.9c-3.2,0-5.8-1.4-5.8-3.2V122c0-0.3,0.2-0.5,0.5-0.5s0.5,0.2,0.5,0.5v1.7c0,1,2,2.2,4.8,2.2
		s4.8-1.1,4.8-2.2V122c0-0.3,0.2-0.5,0.5-0.5s0.5,0.2,0.5,0.5v1.7C50.2,125.5,47.6,126.9,44.4,126.9z"/>
</g>
<g>
	<path class="st4" d="M44.4,124.7c2.9,0,5.3-1.2,5.3-2.7s-2.4-2.7-5.3-2.7c-2.9,0-5.3,1.2-5.3,2.7S41.5,124.7,44.4,124.7z"/>
	<path class="st1" d="M44.4,125.2c-3.2,0-5.8-1.4-5.8-3.2s2.5-3.2,5.8-3.2s5.8,1.4,5.8,3.2S47.6,125.2,44.4,125.2z M44.4,119.8
		c-2.8,0-4.8,1.1-4.8,2.2s2,2.2,4.8,2.2s4.8-1.1,4.8-2.2S47.2,119.8,44.4,119.8z"/>
</g>
<g>
	<path class="st5" d="M23.7,134.8v1.7c0,1.5,2.4,2.7,5.3,2.7s5.3-1.2,5.3-2.7v-1.7"/>
</g>
<g>
	<path class="st1" d="M28.9,139.7c-3.2,0-5.8-1.4-5.8-3.2v-1.7c0-0.3,0.2-0.5,0.5-0.5s0.5,0.2,0.5,0.5v1.7c0,1,2,2.2,4.8,2.2
		s4.8-1.1,4.8-2.2v-1.7c0-0.3,0.2-0.5,0.5-0.5s0.5,0.2,0.5,0.5v1.7C34.7,138.3,32.2,139.7,28.9,139.7z"/>
</g>
<g>
	<path class="st4" d="M28.9,137.5c2.9,0,5.3-1.2,5.3-2.7c0-1.5-2.4-2.7-5.3-2.7s-5.3,1.2-5.3,2.7C23.7,136.3,26,137.5,28.9,137.5z"
		/>
	<path class="st1" d="M28.9,138c-3.2,0-5.8-1.4-5.8-3.2c0-1.8,2.5-3.2,5.8-3.2s5.8,1.4,5.8,3.2C34.7,136.6,32.2,138,28.9,138z
		 M28.9,132.7c-2.8,0-4.8,1.1-4.8,2.2s2,2.2,4.8,2.2s4.8-1.1,4.8-2.2S31.8,132.7,28.9,132.7z"/>
</g>
<g>
	<path class="st4" d="M60.2,105.3c-0.7-4.7-4.1-4.9-6.1-3.9c-2,1.1-1.6,2.7-3.5,4c-1.9,1.3-5.1,1.3-5.1,1.3s1.8,3.2,7.7,3.8
		C56,110.6,60.8,109.3,60.2,105.3z"/>
	<path class="st1" d="M53.8,111c-0.2,0-0.3,0-0.5,0c-6.1-0.6-8-3.9-8.1-4c-0.1-0.2-0.1-0.3,0-0.5c0.1-0.2,0.3-0.2,0.4-0.2
		c0,0,0,0,0,0c0.1,0,3,0,4.8-1.2c0.8-0.6,1.2-1.2,1.5-1.8c0.4-0.8,0.9-1.6,2-2.2c1-0.6,2.7-0.9,4.2-0.2c1,0.5,2.3,1.7,2.6,4.4
		c0,0,0,0,0,0c0.2,1.4-0.2,2.6-1.1,3.6C58.3,110.3,55.7,111,53.8,111z M46.6,107.1c0.9,0.9,2.9,2.4,6.8,2.8c1.8,0.1,4.3-0.5,5.6-1.8
		c0.7-0.7,1-1.7,0.8-2.8c-0.3-1.8-1-3.1-2.1-3.6c-1.1-0.6-2.4-0.3-3.2,0.1c-0.9,0.5-1.2,1.1-1.6,1.8c-0.4,0.7-0.8,1.5-1.8,2.2
		C49.6,106.7,47.7,107,46.6,107.1z"/>
</g>
<g>
	<path class="st1" d="M49.1,107.6c-1.9,0-3.6-0.4-3.7-0.5c-0.3-0.1-0.4-0.3-0.4-0.6s0.3-0.4,0.6-0.4c0,0,3.9,1,6,0
		c0.9-0.4,1.5-1.2,2.2-2c1-1.2,2.2-2.6,4.3-3.1c0.3-0.1,0.5,0.1,0.6,0.4c0.1,0.3-0.1,0.5-0.4,0.6c-1.8,0.4-2.8,1.6-3.8,2.8
		c-0.7,0.9-1.5,1.8-2.5,2.3C51.3,107.5,50.2,107.6,49.1,107.6z"/>
</g>
<g>
	<path class="st1" d="M51.4,109.4c-2,0-4.1-0.8-5.6-2.2c-0.2-0.2-0.2-0.5,0-0.7c0.2-0.2,0.5-0.2,0.7,0c2.3,2.1,5.6,2.6,7.9,1.2
		c0.5-0.3,0.9-0.7,1.4-1c0.4-0.3,0.7-0.6,1.1-0.9c0.8-0.6,2.1-1.2,3.4-0.8c0.3,0.1,0.4,0.3,0.4,0.6c-0.1,0.3-0.3,0.4-0.6,0.4
		c-0.9-0.3-1.9,0.2-2.6,0.7c-0.4,0.3-0.7,0.5-1.1,0.8c-0.5,0.4-1,0.8-1.5,1.1C53.8,109.1,52.6,109.4,51.4,109.4z"/>
</g>
<g>
	<path class="st5" d="M56.3,104.7c1.1-2.1,3.4-2.3,4.7-0.8c1.6,1.7,3.8,2.8,2.7,4.9c-1.1,2.1-3,0.8-5.4,0.6
		C56,109.1,55.2,106.7,56.3,104.7L56.3,104.7z"/>
	<path class="st1" d="M61.9,110.4c-0.6,0-1.2-0.1-1.8-0.3c-0.6-0.1-1.2-0.3-1.8-0.3c-1.2-0.1-2.1-0.7-2.6-1.6
		c-0.6-1.1-0.6-2.5,0.1-3.8c0,0,0,0,0,0c0.6-1.1,1.6-1.8,2.7-2c1-0.1,2,0.3,2.8,1.1c0.4,0.4,0.8,0.8,1.2,1.1
		c1.3,1.2,2.7,2.4,1.6,4.3C63.5,110,62.7,110.4,61.9,110.4z M56.7,104.9c-0.5,0.9-0.5,2-0.1,2.8c0.4,0.6,1,1,1.8,1.1
		c0.7,0.1,1.3,0.2,1.9,0.3c1.6,0.3,2.4,0.5,3-0.6c0.6-1.2,0-1.9-1.4-3.1c-0.4-0.4-0.8-0.8-1.2-1.2c-0.5-0.6-1.2-0.9-1.9-0.8
		C57.9,103.5,57.2,104,56.7,104.9C56.7,104.9,56.7,104.9,56.7,104.9z M56.3,104.7L56.3,104.7L56.3,104.7z"/>
</g>
<g>
	<path class="st4" d="M152.9,105c0.7-4.7,4.1-4.9,6.1-3.9c2,1.1,1.6,2.7,3.5,4c1.9,1.3,5.1,1.3,5.1,1.3s-1.8,3.2-7.7,3.8
		C157.1,110.4,152.3,109.1,152.9,105z"/>
	<path class="st1" d="M159.3,110.7c-2,0-4.5-0.6-5.9-2.2c-0.9-1-1.3-2.2-1.1-3.6c0,0,0,0,0,0c0.4-2.7,1.7-3.9,2.6-4.4
		c1.5-0.7,3.1-0.4,4.2,0.1c1.2,0.6,1.6,1.4,2,2.2c0.4,0.7,0.7,1.3,1.5,1.8c1.8,1.2,4.7,1.2,4.8,1.2c0,0,0,0,0,0
		c0.2,0,0.3,0.1,0.4,0.2c0.1,0.2,0.1,0.3,0,0.5c-0.1,0.1-2,3.4-8.1,4C159.7,110.7,159.5,110.7,159.3,110.7z M153.4,105.1
		c-0.2,1.1,0.1,2,0.8,2.8c1.3,1.4,3.8,1.9,5.6,1.8c3.9-0.4,5.9-1.9,6.7-2.8c-1.1-0.1-3-0.4-4.3-1.3c-1-0.7-1.5-1.5-1.8-2.2
		c-0.4-0.7-0.7-1.3-1.6-1.8c-0.8-0.4-2.1-0.7-3.2-0.1C154.4,102,153.6,103.3,153.4,105.1z"/>
</g>
<g>
	<path class="st1" d="M164,107.4c-1,0-2.1-0.1-3-0.6c-1-0.5-1.8-1.4-2.5-2.3c-1-1.2-2-2.4-3.8-2.8c-0.3-0.1-0.4-0.3-0.4-0.6
		c0.1-0.3,0.3-0.4,0.6-0.4c2.1,0.5,3.3,1.9,4.3,3.1c0.7,0.8,1.3,1.6,2.2,2c2.1,1,5.9,0,6,0c0.3-0.1,0.5,0.1,0.6,0.4
		c0.1,0.3-0.1,0.5-0.4,0.6C167.5,107,165.8,107.4,164,107.4z"/>
</g>
<g>
	<path class="st1" d="M161.7,109.1c-1.2,0-2.4-0.3-3.5-0.9c-0.6-0.3-1-0.7-1.5-1.1c-0.3-0.3-0.7-0.6-1-0.8c-0.7-0.5-1.6-0.9-2.6-0.7
		c-0.3,0.1-0.5-0.1-0.6-0.4c-0.1-0.3,0.1-0.5,0.4-0.6c1.3-0.3,2.6,0.3,3.4,0.8c0.4,0.3,0.8,0.6,1.1,0.9c0.5,0.4,0.9,0.8,1.4,1
		c2.3,1.4,5.6,0.9,7.9-1.2c0.2-0.2,0.5-0.2,0.7,0c0.2,0.2,0.2,0.5,0,0.7C165.8,108.3,163.7,109.1,161.7,109.1z"/>
</g>
<g>
	<path class="st5" d="M156.8,104.4c-1.1-2.1-3.4-2.3-4.7-0.8c-1.6,1.7-3.8,2.8-2.7,4.9c1.1,2.1,3,0.8,5.4,0.6
		C157.1,108.9,158,106.5,156.8,104.4L156.8,104.4z"/>
	<path class="st1" d="M151.3,110.1c-0.9,0-1.7-0.3-2.3-1.4c-1-1.9,0.3-3.1,1.6-4.3c0.4-0.4,0.8-0.7,1.2-1.1c0.7-0.8,1.8-1.2,2.8-1.1
		c1.1,0.1,2.1,0.9,2.7,2c0.7,1.2,0.7,2.7,0.1,3.8c-0.5,1-1.4,1.5-2.6,1.6c-0.6,0-1.2,0.2-1.8,0.3C152.4,110,151.8,110.1,151.3,110.1
		z M154.2,103.1c-0.6,0-1.2,0.3-1.7,0.8c-0.4,0.4-0.8,0.8-1.2,1.2c-1.4,1.2-2,1.9-1.4,3.1c0.6,1.1,1.4,1,3,0.6
		c0.6-0.1,1.2-0.3,1.9-0.3c0.8-0.1,1.4-0.4,1.8-1.1c0.4-0.8,0.4-1.9-0.1-2.8l0.4-0.2l-0.4,0.2c-0.5-0.9-1.2-1.4-2-1.5
		C154.3,103.1,154.2,103.1,154.2,103.1z"/>
</g>
<g>
	<path class="st6" d="M108.9,103.6c0,0,30.1-0.1,39.6-0.1c9.5,0,15.5,11.5,15.5,11.5s7,11.1,3.8,17.7c-3.3,6.5-1.4,7.1-10,10.3
		c-10.6,3.9-38.8,6.4-51,6.4c-0.3,0-1.3,0-1.3,0c-16.9,0-40.9-2-49.7-6.5c-9.1-0.7-8.1-3.6-11.4-10.2c-3.3-6.5,3.8-17.7,3.8-17.7
		s6.7-11.5,16.1-11.5s39,0.1,39,0.1H108.9z"/>
	<path class="st1" d="M106.7,149.8h-1.3c-18.3,0-41.3-2.2-49.9-6.5c-7.5-0.6-8.4-2.8-10.1-6.9c-0.4-1-0.9-2.2-1.6-3.5
		c-3.4-6.7,3.5-17.7,3.8-18.2c0.3-0.5,6.9-11.7,16.6-11.7c9.4,0,38.7,0.1,39,0.1h5.6c0.3,0,30.2-0.1,39.6-0.1
		c9.7,0,15.7,11.3,16,11.8c0.3,0.4,7.1,11.4,3.8,18.1c-0.7,1.4-1.2,2.6-1.6,3.5c-1.5,3.6-2.1,4.6-8.7,7
		C147.2,147.4,118.7,149.8,106.7,149.8z M64.3,103.9c-9.1,0-15.7,11.1-15.7,11.3c-0.1,0.1-6.9,11-3.8,17.2c0.7,1.3,1.2,2.5,1.6,3.6
		c1.6,4,2.4,5.8,9.3,6.3c0.1,0,0.1,0,0.2,0.1c8.4,4.3,31.2,6.5,49.5,6.5h1.3c11.9,0,40.2-2.4,50.9-6.4c6.5-2.4,6.8-3.2,8.2-6.5
		c0.4-0.9,0.9-2.1,1.6-3.6c3.1-6.2-3.7-17.1-3.7-17.2c-0.1-0.1-6.1-11.3-15.1-11.3c-9.4,0-39.3,0.1-39.6,0.1c0,0,0,0,0,0h-5.6
		C103,104.1,73.6,103.9,64.3,103.9z"/>
</g>
<g>
	<path class="st5" d="M59.1,138.3c0,3.5-2.8,5.5-5.7,4.5c-3.3-1.2-7.1-1-7.1-4.5s3.5-3.2,6.7-4.6C56.2,132.2,59.1,134.7,59.1,138.3z
		"/>
	<path class="st1" d="M55,143.5c-0.6,0-1.1-0.1-1.7-0.3c-0.8-0.3-1.6-0.5-2.4-0.7c-2.5-0.6-5.1-1.2-5.1-4.3c0-2.9,2.1-3.5,4.4-4.2
		c0.9-0.2,1.7-0.5,2.6-0.9c1.5-0.7,3.1-0.6,4.4,0.2c1.5,1,2.4,2.8,2.4,4.9c0,1.9-0.8,3.5-2.1,4.5C56.8,143.3,55.9,143.5,55,143.5z
		 M54.8,133.7c-0.5,0-1.1,0.1-1.6,0.4c-0.9,0.4-1.9,0.7-2.7,0.9c-2.4,0.7-3.7,1.2-3.7,3.2c0,2.2,1.6,2.7,4.3,3.3
		c0.8,0.2,1.6,0.4,2.5,0.7c1.2,0.4,2.4,0.3,3.3-0.4c1.1-0.7,1.7-2.1,1.7-3.6c0-1.7-0.8-3.2-2-4C56.1,133.9,55.5,133.7,54.8,133.7z"
		/>
</g>
<g>
	<path class="st4" d="M56.3,137.3c-1.9-6.4-6.8-6.1-9.4-4.2c-2.6,1.9-1.7,4.1-4.2,6.2c-2.5,2.2-7,2.8-7,2.8s3.2,4.1,11.8,3.8
		C51.4,145.5,57.9,142.8,56.3,137.3L56.3,137.3z"/>
	<path class="st1" d="M46.6,146.3c-8.1,0-11.2-3.8-11.3-4c-0.1-0.1-0.1-0.3-0.1-0.5c0.1-0.2,0.2-0.3,0.4-0.3c0,0,4.4-0.6,6.7-2.6
		c1.1-1,1.5-1.9,1.9-2.9c0.4-1.1,0.9-2.3,2.4-3.4c1.3-1,3.5-1.7,5.8-1c1.4,0.5,3.4,1.8,4.4,5.4c0,0,0,0,0,0c0.5,1.8,0.3,3.5-0.8,5
		c-1.8,2.6-5.7,4-8.5,4.2C47.2,146.3,46.9,146.3,46.6,146.3z M36.7,142.4c1.3,1.1,4.6,3.2,10.7,2.9c2.7-0.2,6.2-1.6,7.8-3.8
		c0.8-1.2,1.1-2.6,0.6-4.1c0,0,0,0,0,0c-0.7-2.5-2.1-4.2-3.8-4.8c-1.8-0.6-3.7,0-4.8,0.8c-1.2,0.9-1.6,1.8-2,2.9
		c-0.4,1-0.9,2.2-2.1,3.3C41.1,141.3,38.2,142.1,36.7,142.4z"/>
</g>
<g>
	<path class="st1" d="M38.1,142.7c-1.4,0-2.4-0.1-2.5-0.1c-0.3,0-0.5-0.3-0.4-0.6c0-0.3,0.3-0.5,0.6-0.4c0.1,0,5.8,0.7,8.7-1.2
		c1.2-0.8,2-2,2.8-3.3c1.2-1.9,2.6-4.1,5.5-5.1c0.3-0.1,0.5,0,0.6,0.3c0.1,0.3,0,0.5-0.3,0.6c-2.6,1-3.8,2.9-5,4.7
		c-0.9,1.4-1.7,2.7-3.1,3.6C43.1,142.4,40.2,142.7,38.1,142.7z"/>
</g>
<g>
	<path class="st1" d="M42.9,144.6c-2.3,0-4.7-0.7-6.8-2.1c-0.2-0.2-0.3-0.5-0.1-0.7c0.2-0.2,0.5-0.3,0.7-0.1
		c3.7,2.5,8.7,2.6,11.8,0.1c0.6-0.5,1.2-1.1,1.8-1.7c0.4-0.5,0.9-1,1.4-1.4c1-0.9,2.7-2,4.5-1.8c0.3,0,0.5,0.3,0.4,0.6
		c0,0.3-0.3,0.5-0.6,0.4c-1.5-0.2-2.8,0.7-3.7,1.5c-0.5,0.4-0.9,0.9-1.4,1.4c-0.6,0.6-1.2,1.3-1.9,1.8
		C47.4,143.9,45.2,144.6,42.9,144.6z"/>
</g>
<g>
	<path class="st5" d="M153.2,138.3c0,3.5,2.8,5.5,5.7,4.5c3.3-1.2,7.1-1,7.1-4.5s-3.5-3.2-6.7-4.6
		C156.1,132.2,153.2,134.7,153.2,138.3z"/>
	<path class="st1" d="M157.4,143.5c-0.9,0-1.8-0.3-2.6-0.8c-1.3-0.9-2.1-2.6-2.1-4.5c0-2.1,0.9-3.9,2.4-4.9c1.3-0.8,2.9-0.9,4.4-0.2
		c0.9,0.4,1.7,0.6,2.6,0.9c2.3,0.7,4.4,1.3,4.4,4.2c0,3.1-2.6,3.7-5.1,4.3c-0.8,0.2-1.6,0.4-2.4,0.7
		C158.5,143.4,157.9,143.5,157.4,143.5z M157.5,133.7c-0.6,0-1.3,0.2-1.8,0.5c-1.2,0.8-2,2.3-2,4c0,1.6,0.6,2.9,1.7,3.6
		c0.9,0.7,2.1,0.8,3.3,0.4c0.8-0.3,1.7-0.5,2.5-0.7c2.8-0.7,4.3-1.2,4.3-3.3c0-2.1-1.3-2.5-3.7-3.2c-0.8-0.2-1.8-0.5-2.7-0.9
		C158.6,133.8,158,133.7,157.5,133.7z"/>
</g>
<g>
	<path class="st4" d="M156,137.3c1.9-6.4,6.8-6.1,9.4-4.2c2.6,1.9,1.7,4.1,4.2,6.2c2.5,2.2,7,2.8,7,2.8s-3.2,4.1-11.8,3.8
		C161,145.5,154.4,142.8,156,137.3L156,137.3z"/>
	<path class="st1" d="M165.8,146.3c-0.3,0-0.6,0-0.9,0c-2.9-0.2-6.8-1.6-8.6-4.2c-1-1.5-1.3-3.2-0.8-5c0,0,0,0,0,0
		c1.1-3.6,3-4.9,4.4-5.4c2.2-0.8,4.4,0,5.8,1c1.5,1.1,1.9,2.2,2.4,3.4c0.4,1,0.8,2,1.9,2.9c2.3,2,6.7,2.6,6.7,2.6
		c0.2,0,0.3,0.1,0.4,0.3c0.1,0.2,0,0.4-0.1,0.5C176.9,142.5,173.8,146.3,165.8,146.3z M156.5,137.4c-0.4,1.5-0.2,2.9,0.6,4.1
		c1.5,2.2,5.1,3.6,7.8,3.8c6.1,0.2,9.4-1.9,10.7-3c-1.5-0.3-4.4-1.1-6.2-2.7c-1.3-1.1-1.7-2.3-2.1-3.3c-0.4-1.1-0.8-2-2-2.9
		c-1.1-0.8-3-1.5-4.8-0.8C158.6,133.2,157.3,134.9,156.5,137.4C156.5,137.4,156.5,137.4,156.5,137.4z"/>
</g>
<g>
	<path class="st1" d="M174.2,142.7c-2.1,0-4.9-0.3-6.8-1.5c-1.3-0.9-2.2-2.2-3.1-3.6c-1.2-1.9-2.4-3.8-5-4.7
		c-0.3-0.1-0.4-0.4-0.3-0.6c0.1-0.3,0.4-0.4,0.6-0.3c2.9,1.1,4.2,3.2,5.5,5.1c0.8,1.3,1.6,2.5,2.8,3.3c2.9,1.9,8.6,1.2,8.7,1.2
		c0.3,0,0.5,0.2,0.6,0.4c0,0.3-0.2,0.5-0.4,0.6C176.6,142.6,175.6,142.7,174.2,142.7z"/>
</g>
<g>
	<path class="st1" d="M169.4,144.6c-2.3,0-4.5-0.7-6.2-2c-0.7-0.6-1.3-1.2-1.9-1.8c-0.4-0.5-0.9-0.9-1.4-1.4
		c-0.9-0.8-2.2-1.7-3.7-1.5c-0.3,0-0.5-0.2-0.6-0.4c0-0.3,0.2-0.5,0.4-0.6c1.8-0.2,3.5,0.8,4.5,1.8c0.5,0.5,1,0.9,1.4,1.4
		c0.6,0.6,1.2,1.2,1.8,1.7c3.1,2.4,8.1,2.4,11.8-0.1c0.2-0.2,0.5-0.1,0.7,0.1c0.2,0.2,0.1,0.5-0.1,0.7
		C174.2,143.9,171.7,144.6,169.4,144.6z"/>
</g>
<g>
	<path class="st7" d="M58.9,118.3c-0.9,1.7-1.4,2.7-1.4,2.7c0,0,15,13.5,49.6,13.5c34.6,0,45.9-13.5,45.9-13.5s-0.4-0.9-1.2-2.4
		c-4,3.3-18.1,12.9-45.4,12.9C79.1,131.5,62.7,121.3,58.9,118.3z"/>
	<path class="st1" d="M107.1,135c-34.4,0-49.8-13.5-50-13.6c-0.3-0.2-0.3-0.2,1.3-3.3l0.3-0.5l0.5,0.4c1.8,1.3,18.1,13.1,47.3,13.1
		c27.4,0,41.5-9.8,45.1-12.8l0.5-0.4l1.6,3.3l-0.2,0.2C153,121.9,141.6,135,107.1,135z M58.1,120.9c1.1,0.9,4.8,3.7,11.5,6.4
		c7.3,3.1,19.8,6.7,37.6,6.7c31.4,0,43.6-11.3,45.3-13.1l-0.7-1.5c-4.4,3.4-18.7,12.6-45.3,12.6c-27.8,0-44.1-10.6-47.4-13
		C58.5,120.1,58.2,120.6,58.1,120.9z"/>
</g>
<g>
	<path class="st1" d="M106.4,113.5c-19.1,0-32.4-4.8-40.2-8.8l-0.5-0.2L66,104c2.9-5.3,5.2-9.5,7-12.8l0.9-1.6
		c2.8-5,4.1-7.4,8.3-7.1c4.7,0.2,12.6,0.1,19,0.1c2.8,0,5.3-0.1,7.3-0.1c1.7,0,3.9,0,6.3-0.1c10.5-0.1,18-0.2,19.1,0.6
		c3.1,2.2,4.5,5.5,5.6,8.1l0,0.1c1.1,2.5,3.2,6.8,6,12.9l0.2,0.4l-0.4,0.2C138.1,108.7,125.4,113.5,106.4,113.5z M67.1,104
		c7.7,3.9,20.7,8.5,39.3,8.5c18.4,0,30.8-4.5,38.1-8.4c-2.8-5.9-4.7-10.1-5.8-12.5l0.4-0.3l-0.5,0.2c-1.1-2.7-2.4-5.7-5.3-7.7
		c-1-0.7-12-0.5-18.6-0.4c-2.4,0-4.6,0.1-6.3,0.1c-1.9,0-4.5,0-7.2,0.1c-6.4,0.1-14.3,0.2-19-0.1c-3.5-0.2-4.6,1.7-7.3,6.6l-0.9,1.6
		C72.1,94.8,69.9,99,67.1,104z"/>
</g>
<g>
	<path class="st8" d="M139,91.3c-3.4-7.4-5.4-8.3-7.5-8.3c-2.2,0-49.4,0.1-51.3,0.1s-3.2,2-6.6,8.2c0,0.1-13.5,24.8-13.5,24.8
		c7.9,3,31.8,5.9,45.9,5.9c11.3,0,45.7-3.2,44.4-6.4C149.1,112.3,141.9,97.8,139,91.3L139,91.3z"/>
	<path class="st1" d="M106,122.5c-13.5,0-37.9-2.8-46.1-5.9l-0.5-0.2l0.3-0.5c0.1-0.1,3.8-7,7.3-13.5c4.7-8.6,6.2-11.3,6.2-11.4
		c3.5-6.2,4.9-8.4,7.1-8.4c0.9,0,12.2,0,24.1-0.1c12.8,0,26.1-0.1,27.2-0.1c2.6,0,4.7,1.4,8,8.6l0,0c1.3,3,3.6,7.6,5.7,12.1
		c2.6,5.3,5,10.4,5.7,12.1c0.1,0.3,0.1,0.7-0.1,1C148.4,119.9,115.5,122.5,106,122.5z M60.8,115.8c8,2.8,30.8,5.7,45.2,5.7
		c13.1,0,43.4-3.3,44-5.8c-0.7-1.7-3.1-6.8-5.7-12.1c-2.2-4.5-4.4-9.2-5.7-12.1l0,0c-3.4-7.4-5.2-8-7.1-8c-1.1,0-14.4,0-27.2,0.1
		c-11.8,0-23.2,0.1-24.1,0.1c-1.5,0-2.8,1.8-6.2,7.9c-0.1,0.1-3,5.6-6.2,11.3C63.3,111.2,61.4,114.7,60.8,115.8z"/>
</g>
<g>
	<path class="st3" d="M73.5,91.5l2,16.3l12.8-12.5l6.5,16.7l11.6-14.9l11,15.4l7-17l13.2,12.2l1.5-16.4l7.3,15.5l-40.1,17.9
		l-41.2-17.9L73.5,91.5z"/>
	<path class="st1" d="M106.2,125.3l-0.2-0.1L64.4,107l9.4-17.1l2.1,16.9l12.6-12.3l6.5,16.6l11.5-14.7l10.8,15.2l6.9-16.8l13,12
		l1.6-17.2l8.3,17.7L106.2,125.3z M65.8,106.5l40.5,17.6l39.4-17.6l-6.3-13.4l-1.5,15.6l-13.4-12.4l-7,17.2l-11.1-15.6L94.6,113
		L88,96.2l-13,12.7l-1.9-15.8L65.8,106.5z"/>
</g>
<g>
	<path class="st8" d="M65.1,106.6c-1.2,2.3-5.4,10.2-6.2,11.7c3.9,3,19.4,13.2,47.6,13.2c28.2,0,41.4-9.6,45.4-12.9
		c-0.7-1.5-4.5-9.4-5.6-11.8c-6.5,3.2-16.6,6.5-39.4,6.5C84,113.4,72.5,109.5,65.1,106.6z"/>
	<path class="st1" d="M106.4,132c-28.2,0-43.8-10.2-47.9-13.3l-0.3-0.3l1.6-2.9c1.6-3,4-7.4,4.8-9.1l0.2-0.4l0.4,0.2
		c9.1,3.5,20.5,6.7,41.6,6.7c22.7,0,32.6-3.3,39.2-6.5l0.5-0.2l0.2,0.5c1.1,2.4,4.9,10.3,5.6,11.7l0.2,0.4l-0.3,0.2
		C146.3,123.9,132.4,132,106.4,132z M59.5,118.2c4.5,3.3,19.8,12.9,46.9,12.9c25.2,0,38.8-7.8,44.8-12.6c-0.9-2-4-8.3-5.2-10.9
		c-6.7,3.2-16.8,6.4-39.2,6.4c-21,0-32.4-3.2-41.6-6.6c-1,1.9-3.2,5.9-4.6,8.7L59.5,118.2z"/>
</g>
<g>
	<path class="st7" d="M106.4,113c-19,0-32.2-4.7-39.9-8.8c-0.5,0.8-0.9,1.7-1.4,2.5c7.5,4,21.1,9.1,41.2,9.1c20.1,0,32.9-5.1,40.1-9
		c-0.4-0.8-0.8-1.7-1.2-2.5C137.8,108.3,125.2,113,106.4,113z"/>
	<path class="st1" d="M106.2,116.4c-19.9,0-33.5-5-41.4-9.2l-0.4-0.2l1.8-3.4l0.4,0.2c7.7,4,20.8,8.7,39.7,8.7
		c18.8,0,31.3-4.7,38.5-8.6l0.5-0.3l1.6,3.4l-0.4,0.2C139.1,111.4,126.1,116.4,106.2,116.4z M65.7,106.6c7.8,4.1,21.1,8.8,40.5,8.8
		c19.3,0,32-4.7,39.4-8.8l-0.8-1.6c-7.4,3.9-19.9,8.5-38.5,8.5c-18.7,0-31.9-4.6-39.7-8.6L65.7,106.6z"/>
</g>
<g>
	<path class="st0" d="M99.3,106.9c0,0,3-3.4,7.1-3.4c4.1,0,6.6,3.4,6.6,3.4s-1.9,3.6-6.6,3.6S99.3,106.9,99.3,106.9z"/>
	<path class="st1" d="M106.5,111c-4.9,0-7.5-3.7-7.6-3.8l-0.2-0.3l0.3-0.3c0.1-0.1,3.2-3.5,7.5-3.5c4.3,0,6.9,3.4,7,3.6l0.2,0.3
		l-0.1,0.3C113.4,107.3,111.4,111,106.5,111z M100,106.9c0.7,0.8,2.9,3.1,6.5,3.1c3.6,0,5.4-2.3,6-3.1c-0.6-0.7-2.8-2.9-6-2.9
		C103.3,104,100.8,106.1,100,106.9z"/>
</g>
<g>
	<path class="st9" d="M106.7,110c1.9,0,3.4-1.5,3.4-3.4s-1.5-3.4-3.4-3.4s-3.4,1.5-3.4,3.4S104.8,110,106.7,110z"/>
	<path class="st1" d="M106.7,110.5c-2.2,0-3.9-1.8-3.9-3.9c0-2.2,1.8-3.9,3.9-3.9c2.2,0,3.9,1.8,3.9,3.9
		C110.6,108.8,108.9,110.5,106.7,110.5z M106.7,103.7c-1.6,0-2.9,1.3-2.9,2.9s1.3,2.9,2.9,2.9s2.9-1.3,2.9-2.9
		S108.3,103.7,106.7,103.7z"/>
</g>
<g>
	<path class="st0" d="M119.9,107c0,0,2.1-3.9,6-4.9c4-1,7.1,1.5,7.1,1.5s-0.9,3.8-5.4,4.9C123.1,109.7,119.9,107,119.9,107
		L119.9,107z"/>
	<path class="st1" d="M125.3,109.3c-2.9,0-5-1.4-5.6-1.8H119l0.4-0.7c0.1-0.2,2.2-4.1,6.3-5.1c4.2-1.1,7.4,1.4,7.5,1.5l0.3,0.2
		l-0.1,0.3c0,0.2-1.1,4.1-5.8,5.3C126.8,109.2,126,109.3,125.3,109.3z M120.5,106.9c0.9,0.6,3.6,2,6.9,1.2c3.4-0.9,4.6-3.4,5-4.3
		c-0.8-0.5-3.4-2-6.4-1.2C123,103.4,121.1,105.9,120.5,106.9z"/>
</g>
<g>
	<path class="st9" d="M127.8,108.1c1.8-0.5,2.9-2.3,2.4-4s-2.3-2.8-4.1-2.3s-2.9,2.3-2.4,4C124.1,107.6,126,108.6,127.8,108.1z"/>
	<path class="st1" d="M126.9,108.7c-0.7,0-1.3-0.2-1.9-0.5c-0.9-0.5-1.5-1.3-1.8-2.3c-0.3-1-0.1-2,0.4-2.9c0.5-0.9,1.4-1.5,2.4-1.7
		c1-0.3,2-0.1,2.9,0.4c0.9,0.5,1.5,1.3,1.8,2.3c0.3,1,0.1,2-0.4,2.9c-0.5,0.9-1.4,1.5-2.4,1.7l0,0
		C127.6,108.7,127.2,108.7,126.9,108.7z M127,102.2c-0.3,0-0.5,0-0.8,0.1c-0.7,0.2-1.4,0.7-1.8,1.3c-0.4,0.6-0.5,1.4-0.3,2.1
		c0.2,0.7,0.6,1.3,1.3,1.7c0.7,0.4,1.4,0.5,2.2,0.3l0,0c0.7-0.2,1.4-0.7,1.8-1.3c0.4-0.6,0.5-1.4,0.3-2.1c-0.2-0.7-0.6-1.3-1.3-1.7
		C128,102.3,127.5,102.2,127,102.2z"/>
</g>
<g>
	<path class="st0" d="M92.8,107c0,0-2-3.8-5.9-4.8s-6.9,1.4-6.9,1.4s0.9,3.7,5.3,4.8C89.5,109.6,92.8,107,92.8,107L92.8,107z"/>
	<path class="st1" d="M87.4,109.2c-0.7,0-1.5-0.1-2.3-0.3c-4.6-1.2-5.6-5-5.7-5.2l-0.1-0.3l0.3-0.2c0.1-0.1,3.3-2.6,7.4-1.5
		c4,1.1,6.1,4.9,6.2,5l0.2,0.3l-0.2,0.3C93.1,107.3,90.8,109.2,87.4,109.2z M80.5,103.8c0.3,0.9,1.5,3.3,4.8,4.2
		c3.2,0.8,5.8-0.5,6.7-1.1c-0.6-0.9-2.4-3.4-5.4-4.2C83.8,101.9,81.3,103.3,80.5,103.8z"/>
</g>
<g>
	<path class="st9" d="M89.4,106.2c0.4-1.7-0.6-3.4-2.4-3.9c-1.8-0.5-3.6,0.5-4,2.2c-0.4,1.7,0.6,3.5,2.4,3.9
		C87.1,108.9,88.9,107.9,89.4,106.2z"/>
	<path class="st1" d="M86.2,109c-0.3,0-0.7,0-1-0.1c-1-0.3-1.8-0.9-2.3-1.7c-0.5-0.9-0.7-1.9-0.4-2.8c0.5-2,2.6-3.1,4.6-2.6
		c2,0.5,3.3,2.6,2.8,4.5c-0.2,1-0.9,1.7-1.7,2.2C87.5,108.9,86.9,109,86.2,109z M86.1,102.7c-1.2,0-2.3,0.8-2.7,2
		c-0.2,0.7-0.1,1.4,0.3,2c0.4,0.6,1,1.1,1.7,1.3s1.5,0.1,2.1-0.3c0.6-0.4,1.1-0.9,1.3-1.6c0.4-1.4-0.5-2.9-2-3.3
		C86.6,102.7,86.3,102.7,86.1,102.7z"/>
</g>
<g>
	<path class="st0" d="M143.9,102.7c-3.2,0.9-5.9-0.3-5.9-0.3s0.8-3.2,3.3-5.3"/>
</g>
<g>
	<path class="st1" d="M141.5,103.5c-2.1,0-3.6-0.7-3.7-0.7l-0.4-0.2l0.1-0.4c0-0.1,0.8-3.3,3.4-5.6l0.7,0.8c-1.8,1.6-2.7,3.7-3,4.6
		c0.8,0.3,2.9,0.8,5.2,0.2l0.3,1C143.1,103.4,142.3,103.5,141.5,103.5z"/>
</g>
<g>
	<path class="st9" d="M144.3,102.2c-1.1-0.1-2.1-0.6-2.6-1.6c-0.6-1.1-0.5-2.5,0.3-3.5"/>
</g>
<g>
	<path class="st1" d="M144.3,102.7c-1.3-0.1-2.4-0.8-3-1.9c-0.7-1.3-0.6-2.9,0.3-4.1l0.8,0.6c-0.7,0.9-0.8,2.1-0.2,3
		c0.4,0.8,1.3,1.3,2.2,1.4L144.3,102.7z"/>
</g>
<g>
	<path class="st0" d="M67.7,102.4c3.2,0.9,6.3-0.3,6.3-0.3s-0.8-3.2-3.3-5.3"/>
</g>
<g>
	<path class="st1" d="M70.3,103.2c-0.9,0-1.8-0.1-2.7-0.4l0.3-1c2.3,0.7,4.6,0.2,5.6-0.1c-0.3-0.9-1.2-3.1-3-4.6l0.6-0.8
		c2.6,2.2,3.4,5.4,3.4,5.6l0.1,0.4l-0.4,0.2C74.1,102.6,72.4,103.2,70.3,103.2z"/>
</g>
<g>
	<path class="st9" d="M67.8,102.1c1.1-0.1,2.5-0.7,3.1-1.7c0.6-1.1,0.5-2.5-0.3-3.5"/>
</g>
<g>
	<path class="st1" d="M67.8,102.6l-0.1-1c1-0.1,2.3-0.6,2.7-1.4c0.5-0.9,0.4-2.1-0.2-3l0.8-0.6c0.9,1.2,1,2.8,0.3,4.1
		C70.7,101.9,69,102.5,67.8,102.6z"/>
</g>
<g>
	<path class="st10" d="M105.7,126.7c1.6,0,2.9-1.3,2.9-2.9c0-1.6-1.3-2.9-2.9-2.9c-1.6,0-2.9,1.3-2.9,2.9
		C102.8,125.4,104.1,126.7,105.7,126.7z"/>
	<path class="st1" d="M105.7,127.2c-1.9,0-3.4-1.5-3.4-3.4c0-1.9,1.5-3.4,3.4-3.4c1.9,0,3.4,1.5,3.4,3.4
		C109.1,125.6,107.6,127.2,105.7,127.2z M105.7,121.4c-1.3,0-2.4,1.1-2.4,2.4c0,1.3,1.1,2.4,2.4,2.4c1.3,0,2.4-1.1,2.4-2.4
		C108.1,122.4,107,121.4,105.7,121.4z"/>
</g>
<g>
	<path class="st10" d="M118.3,126c1.6,0,2.9-1.3,2.9-2.9c0-1.6-1.3-2.9-2.9-2.9c-1.6,0-2.9,1.3-2.9,2.9
		C115.4,124.7,116.7,126,118.3,126z"/>
	<path class="st1" d="M118.3,126.5c-1.9,0-3.4-1.5-3.4-3.4s1.5-3.4,3.4-3.4c1.9,0,3.4,1.5,3.4,3.4S120.2,126.5,118.3,126.5z
		 M118.3,120.7c-1.3,0-2.4,1.1-2.4,2.4s1.1,2.4,2.4,2.4c1.3,0,2.4-1.1,2.4-2.4S119.6,120.7,118.3,120.7z"/>
</g>
<g>
	<path class="st10" d="M129.2,124c1.6,0,2.9-1.3,2.9-2.9c0-1.6-1.3-2.9-2.9-2.9c-1.6,0-2.9,1.3-2.9,2.9
		C126.3,122.7,127.6,124,129.2,124z"/>
	<path class="st1" d="M129.2,124.5c-1.9,0-3.4-1.5-3.4-3.4c0-1.9,1.5-3.4,3.4-3.4c1.9,0,3.4,1.5,3.4,3.4
		C132.6,123,131.1,124.5,129.2,124.5z M129.2,118.7c-1.3,0-2.4,1.1-2.4,2.4c0,1.3,1.1,2.4,2.4,2.4c1.3,0,2.4-1.1,2.4-2.4
		C131.6,119.8,130.5,118.7,129.2,118.7z"/>
</g>
<g>
	<path class="st10" d="M139.7,120.7c1.6,0,2.9-1.3,2.9-2.9c0-1.6-1.3-2.9-2.9-2.9c-1.6,0-2.9,1.3-2.9,2.9
		C136.8,119.4,138.1,120.7,139.7,120.7z"/>
	<path class="st1" d="M139.7,121.2c-1.9,0-3.4-1.5-3.4-3.4c0-1.9,1.5-3.4,3.4-3.4s3.4,1.5,3.4,3.4
		C143.1,119.7,141.5,121.2,139.7,121.2z M139.7,115.4c-1.3,0-2.4,1.1-2.4,2.4c0,1.3,1.1,2.4,2.4,2.4s2.4-1.1,2.4-2.4
		C142.1,116.5,141,115.4,139.7,115.4z"/>
</g>
<g>
	<path class="st10" d="M149.1,115.8c1.6,0,2.9-1.3,2.9-2.9c0-1.6-1.3-2.9-2.9-2.9c-1.6,0-2.9,1.3-2.9,2.9
		C146.1,114.5,147.4,115.8,149.1,115.8z"/>
	<path class="st1" d="M149.1,116.3c-1.9,0-3.4-1.5-3.4-3.4s1.5-3.4,3.4-3.4c1.9,0,3.4,1.5,3.4,3.4S150.9,116.3,149.1,116.3z
		 M149.1,110.5c-1.3,0-2.4,1.1-2.4,2.4s1.1,2.4,2.4,2.4c1.3,0,2.4-1.1,2.4-2.4S150.4,110.5,149.1,110.5z"/>
</g>
<g>
	<path class="st10" d="M92.9,126c1.6,0,2.9-1.3,2.9-2.9c0-1.6-1.3-2.9-2.9-2.9c-1.6,0-2.9,1.3-2.9,2.9C90,124.7,91.3,126,92.9,126z"
		/>
	<path class="st1" d="M92.9,126.5c-1.9,0-3.4-1.5-3.4-3.4s1.5-3.4,3.4-3.4s3.4,1.5,3.4,3.4S94.8,126.5,92.9,126.5z M92.9,120.7
		c-1.3,0-2.4,1.1-2.4,2.4s1.1,2.4,2.4,2.4c1.3,0,2.4-1.1,2.4-2.4S94.2,120.7,92.9,120.7z"/>
</g>
<g>
	<path class="st10" d="M82,124c1.6,0,2.9-1.3,2.9-2.9c0-1.6-1.3-2.9-2.9-2.9c-1.6,0-2.9,1.3-2.9,2.9C79.1,122.7,80.4,124,82,124z"/>
	<path class="st1" d="M82,124.5c-1.9,0-3.4-1.5-3.4-3.4c0-1.9,1.5-3.4,3.4-3.4s3.4,1.5,3.4,3.4C85.4,123,83.9,124.5,82,124.5z
		 M82,118.7c-1.3,0-2.4,1.1-2.4,2.4c0,1.3,1.1,2.4,2.4,2.4s2.4-1.1,2.4-2.4C84.4,119.8,83.3,118.7,82,118.7z"/>
</g>
<g>
	<path class="st10" d="M71.5,120.7c1.6,0,2.9-1.3,2.9-2.9c0-1.6-1.3-2.9-2.9-2.9c-1.6,0-2.9,1.3-2.9,2.9
		C68.6,119.4,69.9,120.7,71.5,120.7z"/>
	<path class="st1" d="M71.5,121.2c-1.9,0-3.4-1.5-3.4-3.4c0-1.9,1.5-3.4,3.4-3.4s3.4,1.5,3.4,3.4C75,119.7,73.4,121.2,71.5,121.2z
		 M71.5,115.4c-1.3,0-2.4,1.1-2.4,2.4c0,1.3,1.1,2.4,2.4,2.4c1.3,0,2.4-1.1,2.4-2.4C74,116.5,72.9,115.4,71.5,115.4z"/>
</g>
<g>
	<path class="st10" d="M62.2,115.8c1.6,0,2.9-1.3,2.9-2.9c0-1.6-1.3-2.9-2.9-2.9s-2.9,1.3-2.9,2.9C59.3,114.5,60.6,115.8,62.2,115.8
		z"/>
	<path class="st1" d="M62.2,116.3c-1.9,0-3.4-1.5-3.4-3.4s1.5-3.4,3.4-3.4s3.4,1.5,3.4,3.4S64,116.3,62.2,116.3z M62.2,110.5
		c-1.3,0-2.4,1.1-2.4,2.4s1.1,2.4,2.4,2.4s2.4-1.1,2.4-2.4S63.5,110.5,62.2,110.5z"/>
</g>
<g>
	<path class="st1" d="M77.5,85.1c0,0,11,9.4,28.6,9.4c17.6,0,28.7-9.8,28.7-9.8s-0.1-0.2-1.5-1.1c-1.9-1.1-51.4-0.4-51.4-0.4
		s-2.5-0.1-3.3,0.5C77.9,84.4,77.5,85.1,77.5,85.1L77.5,85.1z"/>
	<path class="st1" d="M106.1,95c-17.6,0-28.8-9.4-29-9.5l-1-0.9h1.1c0.2-0.3,0.6-0.8,1.1-1.3c0.9-0.7,3.2-0.7,3.6-0.7
		c8.3-0.1,49.7-0.7,51.6,0.5c1.6,1,1.7,1.2,1.7,1.4l0.1,0.3l-0.2,0.2C135,85.2,123.7,95,106.1,95z M78.2,85c2,1.5,12.4,9,28,9
		c15.3,0,25.7-7.6,27.9-9.3c-0.2-0.1-0.5-0.4-1-0.6c-1.7-0.8-31.5-0.6-51.1-0.4c-1,0-2.5,0.1-2.9,0.4C78.6,84.4,78.3,84.8,78.2,85z"
		/>
</g>
<g>
	<path class="st6" d="M65.7,136c0,0,11.2-7.6,39.9-7.6c28.7,0,39.3,8.3,39.3,8.3"/>
</g>
<g>
	<path class="st1" d="M145,137.2c-0.1,0-0.2,0-0.3-0.1c-0.1-0.1-10.8-8.2-39-8.2c-28.2,0-39.5,7.5-39.6,7.5
		c-0.2,0.2-0.5,0.1-0.7-0.1c-0.2-0.2-0.1-0.5,0.1-0.7c0.5-0.3,11.6-7.7,40.2-7.7c28.6,0,39.2,8,39.6,8.4c0.2,0.2,0.3,0.5,0.1,0.7
		C145.3,137.1,145.1,137.2,145,137.2z"/>
</g>
<g>
	<path class="st5" d="M80.4,151.1v2c0,1.7,2.8,3.1,6.2,3.1s6.2-1.4,6.2-3.1v-1.8"/>
</g>
<g>
	<path class="st1" d="M86.6,156.7c-3.8,0-6.7-1.6-6.7-3.6v-2c0-0.3,0.2-0.5,0.5-0.5s0.5,0.2,0.5,0.5v2c0,1.3,2.3,2.6,5.7,2.6
		c3.4,0,5.7-1.4,5.7-2.6v-1.8c0-0.3,0.2-0.5,0.5-0.5s0.5,0.2,0.5,0.5v1.8C93.3,155.1,90.4,156.7,86.6,156.7z"/>
</g>
<g>
	<path class="st4" d="M92.8,151.1c0,1.7-2.8,3.1-6.2,3.1c-3.4,0-6.2-1.4-6.2-3.1c0-1.5,2.1-2.8,5-3.1"/>
</g>
<g>
	<path class="st1" d="M86.6,154.7c-3.8,0-6.7-1.6-6.7-3.6c0-1.8,2.2-3.2,5.4-3.6c0.3,0,0.5,0.2,0.5,0.4c0,0.3-0.2,0.5-0.4,0.5
		c-2.6,0.3-4.5,1.4-4.5,2.6c0,1.2,2.3,2.6,5.7,2.6s5.7-1.4,5.7-2.6c0-0.3,0.2-0.5,0.5-0.5s0.5,0.2,0.5,0.5
		C93.3,153.1,90.4,154.7,86.6,154.7z"/>
</g>
<g>
	<path class="st5" d="M103.5,148.1v2c0,1.7-2.8,3.1-6.2,3.1c-1.7,0-3.3-0.4-4.4-0.9l0-2.9"/>
</g>
<g>
	<path class="st1" d="M97.3,153.7c-1.7,0-3.4-0.3-4.6-1c-0.2-0.1-0.3-0.3-0.3-0.4l0-2.9c0-0.3,0.3-0.5,0.5-0.5
		c0.3,0,0.5,0.2,0.5,0.5l0,2.5c1.1,0.5,2.4,0.7,3.9,0.7c3.4,0,5.7-1.4,5.7-2.6v-2c0-0.3,0.2-0.5,0.5-0.5s0.5,0.2,0.5,0.5v2
		C104,152.1,101,153.7,97.3,153.7z"/>
</g>
<g>
	<path class="st4" d="M97.9,145c3.1,0.2,5.5,1.5,5.5,3.1c0,1.7-2.8,3.1-6.2,3.1c-1.2,0-2.4-0.2-3.3-0.5"/>
</g>
<g>
	<path class="st1" d="M97.3,151.7c-1.2,0-2.5-0.2-3.5-0.5c-0.3-0.1-0.4-0.4-0.3-0.6c0.1-0.3,0.4-0.4,0.6-0.3c0.9,0.3,2,0.5,3.2,0.5
		c3.4,0,5.7-1.4,5.7-2.6c0-1.3-2.3-2.5-5.1-2.6c-0.3,0-0.5-0.2-0.5-0.5c0-0.3,0.3-0.5,0.5-0.5c3.5,0.2,6,1.7,6,3.6
		C104,150.1,101,151.7,97.3,151.7z"/>
</g>
<g>
	<path class="st5" d="M65.5,147.2v2c0,1.7,2.8,3.1,6.2,3.1s6.2-1.4,6.2-3.1v-2"/>
</g>
<g>
	<path class="st1" d="M71.7,152.8c-3.8,0-6.7-1.6-6.7-3.6v-2c0-0.3,0.2-0.5,0.5-0.5s0.5,0.2,0.5,0.5v2c0,1.2,2.3,2.6,5.7,2.6
		s5.7-1.4,5.7-2.6v-2c0-0.3,0.2-0.5,0.5-0.5s0.5,0.2,0.5,0.5v2C78.4,151.2,75.4,152.8,71.7,152.8z"/>
</g>
<g>
	<path class="st4" d="M71.7,150.3c3.4,0,6.2-1.4,6.2-3.1c0-1.7-2.8-3.1-6.2-3.1c-3.4,0-6.2,1.4-6.2,3.1
		C65.5,148.9,68.2,150.3,71.7,150.3z"/>
	<path class="st1" d="M71.7,150.8c-3.8,0-6.7-1.6-6.7-3.6s2.9-3.6,6.7-3.6s6.7,1.6,6.7,3.6S75.4,150.8,71.7,150.8z M71.7,144.5
		c-3.4,0-5.7,1.4-5.7,2.6c0,1.3,2.3,2.6,5.7,2.6c3.4,0,5.7-1.4,5.7-2.6C77.4,145.9,75,144.5,71.7,144.5z"/>
</g>
<g>
	<path class="st5" d="M85.6,145.7v2c0,1.7,2.8,3.1,6.2,3.1c3.4,0,6.2-1.4,6.2-3.1v-2"/>
</g>
<g>
	<path class="st1" d="M91.8,151.4c-3.8,0-6.7-1.6-6.7-3.6v-2c0-0.3,0.2-0.5,0.5-0.5s0.5,0.2,0.5,0.5v2c0,1.2,2.3,2.6,5.7,2.6
		s5.7-1.4,5.7-2.6v-2c0-0.3,0.2-0.5,0.5-0.5s0.5,0.2,0.5,0.5v2C98.5,149.8,95.6,151.4,91.8,151.4z"/>
</g>
<g>
	<path class="st4" d="M91.8,148.9c3.4,0,6.2-1.4,6.2-3.1c0-1.7-2.8-3.1-6.2-3.1c-3.4,0-6.2,1.4-6.2,3.1
		C85.6,147.5,88.4,148.9,91.8,148.9z"/>
	<path class="st1" d="M91.8,149.4c-3.8,0-6.7-1.6-6.7-3.6s2.9-3.6,6.7-3.6s6.7,1.6,6.7,3.6S95.6,149.4,91.8,149.4z M91.8,143.1
		c-3.4,0-5.7,1.4-5.7,2.6s2.3,2.6,5.7,2.6s5.7-1.4,5.7-2.6S95.2,143.1,91.8,143.1z"/>
</g>
<g>
	<path class="st4" d="M143.7,146c1.3,0.6,2.5,1.9,3.2,3.1c0.7,1.2,1.2,2.6,0.6,3.9c-0.6,1.2-1.6,2.1-2.9,2.5c-1.3,0.4-2.7,0.4-4,0.5
		c-6.4,0.2-12.7,0.4-19.1,0.5c-5.7,0.2-11.9,0.2-16.3-3.4c-3.9-3.1-5.5-8.1-7.2-12.8c-1.8-4.6-4.3-9.5-8.9-11.3
		c1.5-1.6,5.2-2.2,6.8-0.6c1.2,1.2,2,2,3.4,4.5c1.8,3.3,3.1,6.8,4.5,10.3c1.3,3.5,2.6,6.2,6,8c3.4,1.8,8.5,1.6,12.3,1.6
		c6,0,10.1-0.3,15.6-0.7c0.9-0.1,2.4,0,3.3-0.3c0.8-0.3,1.3-0.7,1.4-1.5c0.2-1.4-1.7-3-2.9-3.7C141.1,146.4,142.3,146.3,143.7,146
		L143.7,146z"/>
	<path class="st1" d="M118.5,157.2c-5.1,0-9.9-0.6-13.7-3.5c-3.6-2.9-5.3-7.3-6.9-11.7l-0.5-1.3c-1.6-4.2-4-9.3-8.6-11
		c-0.2-0.1-0.3-0.2-0.3-0.4c0-0.2,0-0.3,0.1-0.5c1-1,2.7-1.7,4.3-1.7c1.3-0.1,2.4,0.4,3.2,1.1c1.2,1.2,2.1,2.1,3.5,4.6
		c1.8,3.3,3.2,6.8,4.5,10.3c1.2,3.2,2.4,6,5.7,7.7c2.9,1.6,7.3,1.5,10.8,1.5l1.3,0c5,0,8.7-0.2,12.9-0.5l2.6-0.2c0.2,0,0.4,0,0.7,0
		c0.8,0,1.9-0.1,2.5-0.3c0.7-0.2,1-0.5,1.1-1.1c0.1-1-1.2-2.3-2.7-3.2c-0.2-0.1-0.3-0.3-0.2-0.5c0-0.2,0.2-0.4,0.4-0.4
		c1.2-0.2,2.1-0.3,2.9-0.4c0.5-0.1,1-0.1,1.5-0.2c0.1,0,0.2,0,0.3,0c1.5,0.7,2.7,2.2,3.4,3.3c1,1.6,1.2,3.1,0.6,4.4
		c-0.6,1.3-1.8,2.3-3.2,2.8c-1.4,0.4-2.8,0.5-4.1,0.5l-19.1,0.5C120.5,157.1,119.5,157.2,118.5,157.2z M90,129
		c4.5,2.1,6.9,7.1,8.4,11.3l0.5,1.3c1.6,4.2,3.2,8.5,6.6,11.2c4.2,3.3,9.9,3.4,16,3.3l19.1-0.5c1.3,0,2.6-0.1,3.9-0.5
		c1.2-0.4,2.1-1.2,2.6-2.2c0.5-1.2,0-2.5-0.6-3.5c-0.7-1.2-1.8-2.3-2.8-2.9c-0.5,0.1-0.9,0.1-1.4,0.2c-0.5,0.1-1.1,0.1-1.7,0.2
		c1,0.8,2.3,2.1,2.1,3.5c-0.2,1.2-1,1.7-1.7,1.9c-0.7,0.2-1.9,0.3-2.8,0.3c-0.2,0-0.4,0-0.6,0l-2.6,0.2c-4.3,0.3-8,0.5-13,0.5
		l-1.3,0c-3.6,0-8.1,0.1-11.3-1.6c-3.6-1.9-4.9-4.9-6.2-8.3c-1.3-3.5-2.6-6.9-4.4-10.2c-1.3-2.4-2.2-3.3-3.3-4.4
		c-0.5-0.5-1.4-0.8-2.4-0.8C91.9,128.1,90.8,128.5,90,129z"/>
</g>
<g>
	<path class="st1" d="M95.7,132.6c-0.1,0-0.1,0-0.2,0c-0.5-0.2-0.8-0.4-1.2-0.5c-0.9-0.4-1.5-0.6-2.8-1c-0.3-0.1-0.4-0.3-0.4-0.6
		c0.1-0.3,0.3-0.4,0.6-0.4c1.4,0.3,2,0.6,2.9,1c0.2,0.1,0.3,0.1,0.5,0.2c0-0.3,0-0.4,0-0.6c0-0.5,0-0.5,0-1.7l0-0.4
		c0-0.3,0.2-0.5,0.5-0.5c0.3,0,0.5,0.2,0.5,0.5l0,0.4c0,1.2,0,1.2,0,1.8c0,0.3-0.1,0.6-0.1,1.3c0,0.2-0.1,0.3-0.2,0.4
		C95.8,132.5,95.7,132.6,95.7,132.6z"/>
</g>
<g>
	<path class="st1" d="M99,137.7c-0.1,0-0.1,0-0.2,0c-0.8-0.4-1.2-0.6-1.6-0.9c-0.5-0.3-0.9-0.5-1.8-0.9c-0.2-0.1-0.4-0.4-0.2-0.7
		s0.4-0.4,0.7-0.2c1,0.4,1.4,0.7,1.9,1c0.3,0.2,0.5,0.3,0.9,0.5c0.1-1,0.1-1.2,0.1-1.9c0-0.3,0-0.7,0-1.2c0-0.3,0.2-0.5,0.5-0.5
		c0.3,0,0.5,0.2,0.5,0.5c0,0.5,0,0.9,0,1.2c0,0.9,0,0.9-0.2,2.6c0,0.2-0.1,0.3-0.3,0.4C99.2,137.7,99.1,137.7,99,137.7z"/>
</g>
<g>
	<path class="st1" d="M101.3,143.3c-0.1,0-0.2,0-0.3-0.1c-0.8-0.5-1.2-0.8-1.6-1c-0.4-0.3-0.8-0.5-1.6-1c-0.2-0.1-0.3-0.5-0.2-0.7
		c0.1-0.2,0.5-0.3,0.7-0.2c0.8,0.5,1.2,0.8,1.6,1c0.3,0.2,0.6,0.4,1,0.7c0.2-0.7,0.2-1.3,0.3-2c0-0.3,0.1-0.6,0.1-1
		c0-0.3,0.3-0.5,0.6-0.4c0.3,0,0.5,0.3,0.4,0.6c-0.1,0.4-0.1,0.7-0.1,1c-0.1,0.9-0.2,1.7-0.5,2.8c0,0.2-0.2,0.3-0.3,0.3
		C101.4,143.3,101.4,143.3,101.3,143.3z"/>
</g>
<g>
	<path class="st1" d="M103.7,149.1c-0.1,0-0.2,0-0.3-0.1c-1-0.7-1.5-1-2.2-1.5l-1.2-0.8c-0.2-0.2-0.3-0.5-0.1-0.7
		c0.2-0.2,0.5-0.3,0.7-0.1l1.2,0.8c0.6,0.4,1,0.6,1.6,1l0.1-0.4c0.1-0.8,0.1-1,0.3-2.6c0-0.3,0.3-0.5,0.5-0.4c0.3,0,0.5,0.3,0.4,0.5
		c-0.2,1.6-0.2,1.8-0.3,2.6l-0.2,1.3c0,0.2-0.1,0.3-0.3,0.4C103.8,149.1,103.8,149.1,103.7,149.1z"/>
</g>
<g>
	<path class="st1" d="M108.4,153.5C108.3,153.5,108.3,153.5,108.4,153.5c-1.8-0.3-3.8-0.6-4-0.6c-0.3,0-0.5-0.2-0.5-0.5
		c0-0.3,0.2-0.5,0.5-0.5c0.3,0,2.2,0.3,3.4,0.5l-0.5-2.1c-0.1-0.3,0.1-0.5,0.4-0.6c0.3-0.1,0.5,0.1,0.6,0.4l0.7,2.9
		c0,0.2,0,0.3-0.1,0.5C108.6,153.4,108.5,153.5,108.4,153.5z"/>
</g>
<g>
	<path class="st1" d="M110.8,156.3c-0.2,0-0.4-0.1-0.5-0.4c-0.1-0.3,0.1-0.5,0.3-0.6l3.2-0.9l-2-1.6c-0.2-0.2-0.3-0.5-0.1-0.7
		c0.2-0.2,0.5-0.3,0.7-0.1l2.7,2.2c0.1,0.1,0.2,0.3,0.2,0.5s-0.2,0.3-0.4,0.4l-4.1,1.2C110.9,156.3,110.8,156.3,110.8,156.3z"/>
</g>
<g>
	<path class="st1" d="M117.9,157c-0.2,0-0.4-0.1-0.5-0.3c-0.1-0.2,0-0.5,0.2-0.7l3-1.4l-2.5-1.2c-0.2-0.1-0.4-0.4-0.2-0.7
		s0.4-0.4,0.7-0.2l3.4,1.6c0.2,0.1,0.3,0.3,0.3,0.5c0,0.2-0.1,0.4-0.3,0.5l-3.9,1.9C118,157,117.9,157,117.9,157z"/>
</g>
<g>
	<path class="st1" d="M123.8,156.9c-0.2,0-0.4-0.1-0.5-0.3c-0.1-0.3,0-0.5,0.3-0.7l3.1-1.3l-3-1.3c-0.3-0.1-0.4-0.4-0.3-0.7
		c0.1-0.3,0.4-0.4,0.7-0.3l4.1,1.8c0.2,0.1,0.3,0.3,0.3,0.5c0,0.2-0.1,0.4-0.3,0.5l-4.1,1.7C124,156.8,123.9,156.9,123.8,156.9z"/>
</g>
<g>
	<path class="st1" d="M130.9,156.7c-0.2,0-0.4-0.1-0.5-0.3c-0.1-0.3,0-0.5,0.3-0.7l3.2-1.4l-3.4-1.3c-0.3-0.1-0.4-0.4-0.3-0.6
		c0.1-0.3,0.4-0.4,0.6-0.3l4.6,1.8c0.2,0.1,0.3,0.3,0.3,0.5s-0.1,0.4-0.3,0.5l-4.3,1.9C131,156.7,131,156.7,130.9,156.7z"/>
</g>
<g>
	<path class="st1" d="M137.8,156.5c-0.2,0-0.3-0.1-0.4-0.2c-0.1-0.2-0.1-0.5,0.2-0.7l2.5-1.5l-2.9-1.2c-0.3-0.1-0.4-0.4-0.3-0.7
		c0.1-0.3,0.4-0.4,0.7-0.3l3.8,1.6c0.2,0.1,0.3,0.2,0.3,0.4c0,0.2-0.1,0.4-0.2,0.5l-3.3,2C138,156.5,137.9,156.5,137.8,156.5z"/>
</g>
<g>
	<path class="st1" d="M144.2,156.1C144.1,156.1,144.1,156.1,144.2,156.1c-0.4-0.1-0.5-0.3-0.5-0.6l0.6-3.1l-2.5-0.7
		c-0.3-0.1-0.4-0.3-0.4-0.6c0.1-0.3,0.3-0.4,0.6-0.4l3,0.8c0.3,0.1,0.4,0.3,0.4,0.6l-0.7,3.5C144.6,156,144.4,156.1,144.2,156.1z"/>
</g>
<g>
	<path class="st1" d="M147.6,152c-0.1,0-0.2,0-0.3-0.1l-2.9-2.5l-1.8,1.5c-0.2,0.2-0.5,0.2-0.7-0.1c-0.2-0.2-0.2-0.5,0.1-0.7
		l2.1-1.8c0.2-0.2,0.5-0.2,0.6,0l3.3,2.8c0.2,0.2,0.2,0.5,0.1,0.7C147.9,151.9,147.7,152,147.6,152z"/>
</g>
<g>
	<path class="st11" d="M132.1,138.6l2.1,15.7l2.5-10.9L132.1,138.6z"/>
	<path class="st1" d="M134.2,154.8C134.2,154.8,134.2,154.8,134.2,154.8c-0.3,0-0.5-0.2-0.5-0.4l-2.1-15.7c0-0.2,0.1-0.4,0.3-0.5
		c0.2-0.1,0.4-0.1,0.6,0.1l4.6,4.8c0.1,0.1,0.2,0.3,0.1,0.5l-2.5,10.9C134.7,154.7,134.5,154.8,134.2,154.8z M132.8,140l1.5,11.5
		l1.8-7.9L132.8,140z"/>
</g>
<g>
	<path class="st9" d="M136.7,143.4l-2.5,10.9l8.7-7.3L136.7,143.4z"/>
	<path class="st1" d="M134.2,154.8c-0.1,0-0.2,0-0.3-0.1c-0.2-0.1-0.3-0.3-0.2-0.5l2.5-10.9c0-0.2,0.1-0.3,0.3-0.3s0.3-0.1,0.5,0
		l6.2,3.6c0.1,0.1,0.2,0.2,0.2,0.4c0,0.2-0.1,0.3-0.2,0.4l-8.7,7.3C134.5,154.8,134.3,154.8,134.2,154.8z M137,144.2l-2,8.8l7-5.9
		L137,144.2z"/>
</g>
<g>
	<path class="st11" d="M134.2,154.3l14.8-5.7l-6.2-1.6L134.2,154.3z"/>
	<path class="st1" d="M134.2,154.8c-0.2,0-0.3-0.1-0.4-0.2c-0.1-0.2-0.1-0.5,0.1-0.6l8.7-7.3c0.1-0.1,0.3-0.1,0.4-0.1l6.2,1.6
		c0.2,0.1,0.4,0.2,0.4,0.5c0,0.2-0.1,0.4-0.3,0.5l-14.8,5.7C134.3,154.8,134.3,154.8,134.2,154.8z M143,147.6l-6.2,5.2l10.6-4.1
		L143,147.6z"/>
</g>
<g>
	<path class="st1" d="M149.5,144.8C149.5,144.8,149.4,144.8,149.5,144.8l-0.2,0c-0.1,0-0.2-0.1-0.3-0.2l-2.2-2.9
		c-0.2-0.2-0.1-0.5,0.1-0.7c0.2-0.2,0.5-0.1,0.7,0.1l2.3,2.9c0.1,0.2,0.1,0.4,0,0.6C149.8,144.7,149.7,144.8,149.5,144.8z"/>
</g>
<g>
	<path class="st1" d="M139.7,145.4c-0.1,0-0.2,0-0.3-0.1c-0.1-0.1-0.2-0.2-0.2-0.3l-0.8-4.8c0-0.2,0-0.4,0.2-0.5
		c0.2-0.1,0.4-0.1,0.5,0l5.4,3.3l0.2,0c0.1,0,0.1,0,0.2,0.1c0.2,0.1,0.3,0.3,0.3,0.5s-0.1,0.4-0.3,0.4l-5,1.4
		C139.8,145.4,139.7,145.4,139.7,145.4z M139.6,141.1l0.5,3.2l3.2-0.9L139.6,141.1z"/>
</g>
<g>
	<path class="st1" d="M147.2,141.9c-0.1,0-0.3-0.1-0.4-0.2l-0.1-0.2l-7.6-4.5l-3.6,0.1c-0.1,0-0.1,0-0.2,0l-0.2-0.1
		c-0.2-0.1-0.3-0.3-0.3-0.6s0.2-0.4,0.5-0.4l3.9-0.1c0.1,0,0.2,0,0.3,0.1l7.8,4.6c0.1,0,0.1,0.1,0.1,0.1l0.2,0.3
		c0.2,0.2,0.1,0.5-0.1,0.7C147.5,141.9,147.4,141.9,147.2,141.9z"/>
</g>
<g>
	<path class="st11" d="M149.1,148.6l0.4-4.3l-14.1-7.7l-3.1,2l7.7,6.6L149.1,148.6z"/>
	<path class="st1" d="M149.1,149.1c-0.1,0-0.1,0-0.2,0l-9.2-3.4c-0.1,0-0.1-0.1-0.2-0.1l-7.7-6.6c-0.1-0.1-0.2-0.3-0.2-0.4
		c0-0.2,0.1-0.3,0.2-0.4l3.1-2c0.2-0.1,0.3-0.1,0.5,0l14.1,7.7c0.2,0.1,0.3,0.3,0.3,0.5l-0.4,4.3c0,0.2-0.1,0.3-0.2,0.4
		C149.2,149.1,149.2,149.1,149.1,149.1z M140.1,144.7l8.5,3.2l0.3-3.3l-13.6-7.4l-2.3,1.4L140.1,144.7z"/>
</g>
<g>
	<path class="st9" d="M139.7,144.9l-0.8-4.8l0,0l0,0l-6.2-1.3l6.2,1.3l-6.7-1.5l4.6,4.8l6.2,3.6l6.2,1.6l-4.4-5.1L139.7,144.9z"/>
	<path class="st1" d="M149.1,149.1c0,0-0.1,0-0.1,0l-6.2-1.6c0,0-0.1,0-0.1-0.1l-6.2-3.6c0,0-0.1-0.1-0.1-0.1l-4.6-4.8
		c-0.2-0.2-0.2-0.4-0.1-0.6s0.3-0.3,0.5-0.2l6.7,1.5c0.1,0,0.2,0.1,0.3,0.1c0.1,0.1,0.2,0.2,0.2,0.3l0.7,4.2l4.5-1.2
		c0.2,0,0.4,0,0.5,0.2l4.4,5.1c0.1,0.2,0.2,0.4,0,0.6C149.4,149,149.2,149.1,149.1,149.1z M143.1,146.6l4.6,1.2l-3.1-3.7l-3.9,1.1
		L143.1,146.6z M137,143l2,1.2l-0.6-3.7l-4.8-1L137,143z"/>
</g>
<g>
	<path class="st1" d="M149.4,144.8C149.4,144.8,149.4,144.8,149.4,144.8l-4.8-0.8c-0.1,0-0.1,0-0.2-0.1c-0.2-0.1-0.3-0.4-0.2-0.6
		c0.1-0.2,0.3-0.4,0.5-0.3l4.8,0.8c0.1,0,0.2,0.1,0.3,0.2c0.1,0.2,0.1,0.4,0,0.6C149.8,144.7,149.6,144.8,149.4,144.8z"/>
</g>
<g>
	<path class="st1" d="M138.8,140.6c-0.1,0-0.1,0-0.2-0.1c0,0-0.1-0.1-0.2-0.1c-0.1-0.2-0.2-0.4-0.1-0.6c0.1-0.2,0.3-0.3,0.5-0.3
		l0.1,0c0.2,0,0.3,0.2,0.4,0.4c0,0.2,0,0.4-0.2,0.5C139.1,140.6,139,140.6,138.8,140.6z"/>
</g>
<g>
	<path class="st1" d="M138.9,140.6c0,0-0.1,0-0.1,0c-0.1,0-0.3-0.1-0.3-0.2l-1.1-1.1c-0.2-0.2-0.2-0.5,0-0.7c0.2-0.2,0.5-0.2,0.7,0
		l1.2,1.1c0.2,0.2,0.2,0.4,0.1,0.6C139.2,140.5,139,140.6,138.9,140.6z"/>
</g>
<g>
	<path class="st12" d="M139.2,136.6l-3.7,0.1l2.2,2.2l1.2,1.1l5.8,3.4l4.8,0.8l-2.2-2.9l-0.2-0.2L139.2,136.6z"/>
	<path class="st1" d="M149.4,144.8C149.4,144.8,149.4,144.8,149.4,144.8l-4.9-0.9c-0.1,0-0.1,0-0.2-0.1l-5.8-3.4c0,0-0.1,0-0.1-0.1
		l-1.2-1.1l-2.2-2.3c-0.1-0.1-0.2-0.4-0.1-0.5c0.1-0.2,0.2-0.3,0.4-0.3l3.7-0.1c0.1,0,0.2,0,0.3,0.1l7.8,4.6c0.1,0,0.1,0.1,0.1,0.1
		l0.2,0.2l2.2,2.9c0.1,0.2,0.1,0.4,0,0.6C149.8,144.7,149.6,144.8,149.4,144.8z M144.8,143l3.4,0.6l-1.5-2l-7.6-4.5l-2.5,0.1
		l2.5,2.5L144.8,143z"/>
</g>
<g>
	<path class="st4" d="M143,155.9c-0.8,0.1-1.6,0.1-2.5,0.2c-6.4,0.2-12.7,0.4-19.1,0.5c-5.7,0.2-11.9,0.2-16.3-3.4
		c-3.9-3.1-5.5-8.1-7.2-12.8c-1.8-4.6-4.3-9.5-8.9-11.3c1.5-1.6,5.2-2.2,6.8-0.6c1.2,1.2,2,2,3.4,4.5c1.8,3.3,3.1,6.8,4.5,10.3
		c1.3,3.5,2.6,6.2,6,8c3.4,1.8,8.5,1.6,12.3,1.6c6,0,10.1-0.3,15.6-0.7c0.9-0.1,2.4-0.2,3.3-0.3c0.5-0.1,1.2-0.2,1.6-0.5"/>
</g>
<g>
	<path class="st1" d="M118.5,157.2c-5.1,0-9.9-0.6-13.7-3.5c-3.6-2.9-5.3-7.3-6.9-11.7l-0.5-1.3c-1.6-4.2-4-9.3-8.6-11
		c-0.2-0.1-0.3-0.2-0.3-0.4c0-0.2,0-0.3,0.1-0.5c1-1,2.7-1.7,4.3-1.7c1.3-0.1,2.4,0.4,3.2,1.1c1.2,1.2,2.1,2.1,3.5,4.6
		c1.8,3.3,3.2,6.8,4.5,10.3c1.2,3.2,2.4,6,5.7,7.7c2.9,1.6,7.3,1.5,10.8,1.5l1.3,0c5,0,8.7-0.2,12.9-0.5l2.6-0.2
		c0.6,0,1.5-0.1,2.3-0.2c0.4,0,0.7-0.1,1-0.1c0.4,0,1-0.1,1.3-0.4c0.2-0.2,0.5-0.2,0.7,0c0.2,0.2,0.2,0.5,0,0.7
		c-0.5,0.5-1.2,0.6-1.8,0.6c-0.3,0-0.6,0.1-1,0.1c-0.8,0.1-1.7,0.2-2.3,0.2l-2.6,0.2c-4.3,0.3-8,0.5-13,0.5l-1.3,0
		c-3.6,0-8.1,0.1-11.3-1.6c-3.6-1.9-4.9-4.9-6.2-8.3c-1.3-3.5-2.6-6.9-4.4-10.2c-1.3-2.4-2.2-3.3-3.3-4.4c-0.5-0.5-1.4-0.8-2.4-0.8
		c-1.1,0-2.2,0.4-3,0.9c4.5,2.1,6.9,7.1,8.4,11.3l0.5,1.3c1.6,4.2,3.2,8.5,6.6,11.2c4.2,3.3,9.9,3.4,16,3.3l19.1-0.5
		c0.8,0,1.6,0,2.4-0.2c0.3,0,0.5,0.2,0.6,0.4c0,0.3-0.2,0.5-0.4,0.6c-0.8,0.1-1.7,0.1-2.5,0.2l-19.1,0.5
		C120.5,157.1,119.5,157.2,118.5,157.2z"/>
</g>
<g>
	<path class="st4" d="M91.6,130.6c1.8,0.4,2.3,0.8,4,1.5c0.2-2.2,0.2-1.2,0.1-3.4"/>
</g>
<g>
	<path class="st1" d="M95.7,132.6c-0.1,0-0.1,0-0.2,0c-0.5-0.2-0.8-0.4-1.2-0.5c-0.9-0.4-1.5-0.6-2.8-1c-0.3-0.1-0.4-0.3-0.4-0.6
		c0.1-0.3,0.3-0.4,0.6-0.4c1.4,0.3,2,0.6,2.9,1c0.2,0.1,0.3,0.1,0.5,0.2c0-0.3,0-0.4,0-0.6c0-0.5,0-0.5,0-1.7l0-0.4
		c0-0.3,0.2-0.5,0.5-0.5c0.3,0,0.5,0.2,0.5,0.5l0,0.4c0,1.2,0,1.2,0,1.8c0,0.3-0.1,0.6-0.1,1.3c0,0.2-0.1,0.3-0.2,0.4
		C95.8,132.5,95.7,132.6,95.7,132.6z"/>
</g>
<g>
	<path class="st4" d="M95.7,135.4c1.8,0.8,1.8,1,3.4,1.8c0.3-2.3,0.2-1.6,0.3-3.8"/>
</g>
<g>
	<path class="st1" d="M99,137.7c-0.1,0-0.1,0-0.2,0c-0.8-0.4-1.2-0.6-1.6-0.9c-0.5-0.3-0.9-0.5-1.8-0.9c-0.2-0.1-0.4-0.4-0.2-0.7
		s0.4-0.4,0.7-0.2c1,0.4,1.4,0.7,1.9,1c0.3,0.2,0.5,0.3,0.9,0.5c0.1-1,0.1-1.2,0.1-1.9c0-0.3,0-0.7,0-1.2c0-0.3,0.2-0.5,0.5-0.5
		c0.3,0,0.5,0.2,0.5,0.5c0,0.5,0,0.9,0,1.2c0,0.9,0,0.9-0.2,2.6c0,0.2-0.1,0.3-0.3,0.4C99.2,137.7,99.1,137.7,99,137.7z"/>
</g>
<g>
	<path class="st4" d="M98.1,140.7c1.6,1,1.6,1,3.2,2.1c0.4-1.4,0.4-2.3,0.7-3.7"/>
</g>
<g>
	<path class="st1" d="M101.3,143.3c-0.1,0-0.2,0-0.3-0.1c-0.8-0.5-1.2-0.8-1.6-1c-0.4-0.3-0.8-0.5-1.6-1c-0.2-0.1-0.3-0.5-0.2-0.7
		c0.1-0.2,0.5-0.3,0.7-0.2c0.8,0.5,1.2,0.8,1.6,1c0.3,0.2,0.6,0.4,1,0.7c0.2-0.7,0.2-1.3,0.3-2c0-0.3,0.1-0.6,0.1-1
		c0-0.3,0.3-0.5,0.6-0.4c0.3,0,0.5,0.3,0.4,0.6c-0.1,0.4-0.1,0.7-0.1,1c-0.1,0.9-0.2,1.7-0.5,2.8c0,0.2-0.2,0.3-0.3,0.3
		C101.4,143.3,101.4,143.3,101.3,143.3z"/>
</g>
<g>
	<path class="st4" d="M100.3,146.4c1.7,1.1,2,1.3,3.4,2.2c0.3-2.1,0.2-1.6,0.4-3.8"/>
</g>
<g>
	<path class="st1" d="M103.7,149.1c-0.1,0-0.2,0-0.3-0.1c-1-0.7-1.5-1-2.2-1.5l-1.2-0.8c-0.2-0.2-0.3-0.5-0.1-0.7
		c0.2-0.2,0.5-0.3,0.7-0.1l1.2,0.8c0.6,0.4,1,0.6,1.6,1l0.1-0.4c0.1-0.8,0.1-1,0.3-2.6c0-0.3,0.3-0.5,0.5-0.4c0.3,0,0.5,0.3,0.4,0.5
		c-0.2,1.6-0.2,1.8-0.3,2.6l-0.2,1.3c0,0.2-0.1,0.3-0.3,0.4C103.8,149.1,103.8,149.1,103.7,149.1z"/>
</g>
<g>
	<path class="st4" d="M104.3,152.4c0.3,0,4,0.6,4,0.6l-0.7-2.9"/>
</g>
<g>
	<path class="st1" d="M108.4,153.5C108.3,153.5,108.3,153.5,108.4,153.5c-1.8-0.3-3.8-0.6-4-0.6c-0.3,0-0.5-0.2-0.5-0.5
		c0-0.3,0.2-0.5,0.5-0.5c0.3,0,2.2,0.3,3.4,0.5l-0.5-2.1c-0.1-0.3,0.1-0.5,0.4-0.6c0.3-0.1,0.5,0.1,0.6,0.4l0.7,2.9
		c0,0.2,0,0.3-0.1,0.5C108.6,153.4,108.5,153.5,108.4,153.5z"/>
</g>
<g>
	<path class="st4" d="M110.8,155.8l4.1-1.2l-2.7-2.2"/>
</g>
<g>
	<path class="st1" d="M110.8,156.3c-0.2,0-0.4-0.1-0.5-0.4c-0.1-0.3,0.1-0.5,0.3-0.6l3.2-0.9l-2-1.6c-0.2-0.2-0.3-0.5-0.1-0.7
		c0.2-0.2,0.5-0.3,0.7-0.1l2.7,2.2c0.1,0.1,0.2,0.3,0.2,0.5s-0.2,0.3-0.4,0.4l-4.1,1.2C110.9,156.3,110.8,156.3,110.8,156.3z"/>
</g>
<g>
	<path class="st4" d="M117.9,156.5l3.9-1.9l-3.4-1.6"/>
</g>
<g>
	<path class="st1" d="M117.9,157c-0.2,0-0.4-0.1-0.5-0.3c-0.1-0.2,0-0.5,0.2-0.7l3-1.4l-2.5-1.2c-0.2-0.1-0.4-0.4-0.2-0.7
		s0.4-0.4,0.7-0.2l3.4,1.6c0.2,0.1,0.3,0.3,0.3,0.5c0,0.2-0.1,0.4-0.3,0.5l-3.9,1.9C118,157,117.9,157,117.9,157z"/>
</g>
<g>
	<path class="st4" d="M123.8,156.4l4.1-1.7l-4.1-1.8"/>
</g>
<g>
	<path class="st1" d="M123.8,156.9c-0.2,0-0.4-0.1-0.5-0.3c-0.1-0.3,0-0.5,0.3-0.7l3.1-1.3l-3-1.3c-0.3-0.1-0.4-0.4-0.3-0.7
		c0.1-0.3,0.4-0.4,0.7-0.3l4.1,1.8c0.2,0.1,0.3,0.3,0.3,0.5c0,0.2-0.1,0.4-0.3,0.5l-4.1,1.7C124,156.8,123.9,156.9,123.8,156.9z"/>
</g>
<g>
	<path class="st4" d="M130.9,156.2l4.3-1.9l-4.6-1.8"/>
</g>
<g>
	<path class="st1" d="M130.9,156.7c-0.2,0-0.4-0.1-0.5-0.3c-0.1-0.3,0-0.5,0.3-0.7l3.2-1.4l-3.4-1.3c-0.3-0.1-0.4-0.4-0.3-0.6
		c0.1-0.3,0.4-0.4,0.6-0.3l4.6,1.8c0.2,0.1,0.3,0.3,0.3,0.5s-0.1,0.4-0.3,0.5l-4.3,1.9C131,156.7,131,156.7,130.9,156.7z"/>
</g>
<g>
	<path class="st4" d="M137.8,156l3.3-2l-3.8-1.6"/>
</g>
<g>
	<path class="st1" d="M137.8,156.5c-0.2,0-0.3-0.1-0.4-0.2c-0.1-0.2-0.1-0.5,0.2-0.7l2.5-1.5l-2.9-1.2c-0.3-0.1-0.4-0.4-0.3-0.7
		c0.1-0.3,0.4-0.4,0.7-0.3l3.8,1.6c0.2,0.1,0.3,0.2,0.3,0.4c0,0.2-0.1,0.4-0.2,0.5l-3.3,2C138,156.5,137.9,156.5,137.8,156.5z"/>
</g>
<g>
	<path class="st11" d="M120.6,157.9l11.1,0l-7.3-2.7L120.6,157.9z"/>
	<path class="st1" d="M120.6,158.4c-0.2,0-0.4-0.1-0.5-0.3s0-0.4,0.2-0.6l3.8-2.7c0.1-0.1,0.3-0.1,0.5-0.1l7.3,2.7
		c0.2,0.1,0.4,0.3,0.3,0.6c0,0.2-0.2,0.4-0.5,0.4L120.6,158.4L120.6,158.4z M124.4,155.8l-2.3,1.7l6.7,0L124.4,155.8z"/>
</g>
<g>
	<path class="st9" d="M124.3,155.2l7.3,2.7l-4.2-6.7L124.3,155.2z"/>
	<path class="st1" d="M131.6,158.4c-0.1,0-0.1,0-0.2,0l-7.3-2.7c-0.1-0.1-0.3-0.2-0.3-0.3c0-0.2,0-0.3,0.1-0.4l3.1-3.9
		c0.1-0.1,0.2-0.2,0.4-0.2c0.2,0,0.3,0.1,0.4,0.2l4.2,6.7c0.1,0.2,0.1,0.4,0,0.6C131.9,158.4,131.8,158.4,131.6,158.4z M125.2,155
		l5.3,2l-3.1-4.8L125.2,155z"/>
</g>
<g>
	<path class="st11" d="M131.6,157.9l-2.6-10.8l-1.6,4.1L131.6,157.9z"/>
	<path class="st1" d="M131.6,158.4c-0.2,0-0.3-0.1-0.4-0.2l-4.2-6.7c-0.1-0.1-0.1-0.3,0-0.5l1.6-4.1c0.1-0.2,0.3-0.3,0.5-0.3
		c0.2,0,0.4,0.2,0.5,0.4l2.6,10.8c0.1,0.2-0.1,0.5-0.3,0.6C131.8,158.4,131.7,158.4,131.6,158.4z M128,151.2l2.5,3.9l-1.5-6.3
		L128,151.2z"/>
</g>
<g>
	<path class="st1" d="M123.9,148.2c-0.2,0-0.3-0.1-0.4-0.3c-0.1-0.2-0.1-0.5,0.2-0.7l2.2-1.3c0.2-0.1,0.4-0.1,0.6,0
		c0.2,0.1,0.2,0.3,0.2,0.5l0,0.1c0,0.1-0.1,0.2-0.2,0.3l-2.2,1.2C124.1,148.2,124,148.2,123.9,148.2z"/>
</g>
<g>
	<path class="st1" d="M122.3,153.9c-0.2,0-0.4-0.1-0.4-0.3c-0.1-0.2-0.1-0.4,0.1-0.5l2.8-3.5c0-0.1,0-0.1,0.1-0.2
		c0.1-0.2,0.4-0.3,0.5-0.2c0.2,0.1,0.4,0.2,0.4,0.4l0.5,3.6c0,0.1,0,0.3-0.1,0.4c-0.1,0.1-0.2,0.2-0.4,0.2L122.3,153.9
		C122.3,153.9,122.3,153.9,122.3,153.9z M124.8,151l-1.5,1.9l1.7-0.1L124.8,151z"/>
</g>
<g>
	<path class="st1" d="M119.5,156.1c-0.1,0-0.1,0-0.2,0c-0.2-0.1-0.4-0.3-0.3-0.5l0.3-2.7c0-0.1,0-0.2,0.1-0.3l3.9-5
		c0-0.1,0.1-0.1,0.1-0.1l0.2-0.1c0.2-0.1,0.5-0.1,0.7,0.2c0.1,0.2,0.1,0.5-0.2,0.7l-0.1,0.1l-3.8,4.8l-0.2,2.4c0,0.1,0,0.1-0.1,0.2
		l-0.1,0.1C119.8,156,119.7,156.1,119.5,156.1z"/>
</g>
<g>
	<path class="st11" d="M129.1,147.1l-2.9-0.7l-6.6,9.1l1.1,2.3l5.3-4.7L129.1,147.1z"/>
	<path class="st1" d="M120.6,158.4c0,0-0.1,0-0.1,0c-0.2,0-0.3-0.1-0.4-0.3l-1.1-2.3c-0.1-0.2-0.1-0.4,0-0.5l6.6-9
		c0.1-0.2,0.3-0.2,0.5-0.2l2.9,0.7c0.2,0,0.3,0.1,0.3,0.3c0.1,0.1,0.1,0.3,0,0.4l-3.2,6c0,0.1-0.1,0.1-0.1,0.1l-5.3,4.7
		C120.8,158.3,120.7,158.4,120.6,158.4z M120.1,155.6l0.7,1.4l4.7-4.2l2.9-5.4l-2-0.4L120.1,155.6z"/>
</g>
<g>
	<path class="st9" d="M125.6,153.3l-3.4,0.1l0,0l0,0l-1.5,4.2l1.5-4.2l-1.6,4.5l3.8-2.7l3.1-3.9l1.6-4.1l-3.9,2.5L125.6,153.3z"/>
	<path class="st1" d="M120.6,158.4c-0.1,0-0.2,0-0.3-0.1c-0.2-0.1-0.2-0.4-0.2-0.6l1.6-4.5v0l0,0c0-0.1,0.1-0.2,0.2-0.2
		c0.1-0.1,0.2-0.2,0.3-0.2l2.8-0.1l-0.4-3c0-0.2,0.1-0.4,0.2-0.5l3.9-2.5c0.2-0.1,0.4-0.1,0.6,0c0.2,0.1,0.2,0.4,0.1,0.6l-1.6,4.1
		c0,0,0,0.1-0.1,0.1l-3.1,3.9c0,0-0.1,0.1-0.1,0.1l-3.8,2.7C120.8,158.4,120.7,158.4,120.6,158.4z M122.6,153.9l-1,2.7l2.4-1.7
		l0.8-1L122.6,153.9z M125.7,149.9l0.3,2.3l1-1.3l1-2.6L125.7,149.9z"/>
</g>
<g>
	<path class="st1" d="M125.1,150.2c-0.1,0-0.1,0-0.2-0.1c-0.2-0.1-0.3-0.3-0.3-0.6l1-3.2c0-0.1,0.1-0.2,0.2-0.3
		c0.2-0.1,0.4-0.1,0.6,0c0.2,0.1,0.2,0.3,0.2,0.5l-1,3.2c0,0.1,0,0.1-0.1,0.2C125.4,150.1,125.3,150.2,125.1,150.2z"/>
</g>
<g>
	<path class="st1" d="M122.2,153.9c-0.1,0-0.2,0-0.3-0.1c-0.2-0.1-0.3-0.4-0.2-0.6l0-0.1c0.1-0.4,0.8-0.4,0.9-0.1
		c0.1,0.2,0.1,0.4,0,0.5c0,0-0.1,0.1-0.1,0.1C122.4,153.9,122.3,153.9,122.2,153.9z M122.7,153.6L122.7,153.6L122.7,153.6z"/>
</g>
<g>
	<path class="st1" d="M121.3,154.6c-0.1,0-0.3-0.1-0.4-0.2c-0.2-0.2-0.1-0.5,0.1-0.7l0.9-0.7c0.2-0.1,0.4-0.1,0.6,0
		c0.2,0.1,0.3,0.4,0.2,0.6c0,0.1-0.1,0.2-0.2,0.3l-0.9,0.6C121.5,154.6,121.4,154.6,121.3,154.6z"/>
</g>
<g>
	<path class="st12" d="M119.8,152.8l-0.3,2.6l1.8-1.3l0.9-0.7l2.9-3.7l1-3.2l-2.2,1.2l-0.2,0.1L119.8,152.8z"/>
	<path class="st1" d="M119.6,155.9c-0.1,0-0.2,0-0.2-0.1c-0.2-0.1-0.3-0.3-0.3-0.5l0.3-2.6c0-0.1,0-0.2,0.1-0.3l3.9-5
		c0,0,0.1-0.1,0.1-0.1l0.2-0.1l2.2-1.2c0.2-0.1,0.4-0.1,0.6,0c0.2,0.1,0.2,0.3,0.2,0.5l-1,3.2c0,0.1,0,0.1-0.1,0.2l-2.9,3.7
		c0,0-0.1,0.1-0.1,0.1l-0.9,0.7l-1.8,1.3C119.8,155.9,119.7,155.9,119.6,155.9z M120.3,153l-0.1,1.3l1.7-1.3l2.8-3.6l0.6-1.9
		l-1.2,0.7L120.3,153z"/>
</g>
<g>
	<path class="st12" d="M106.5,91.9c22.9,0,41.5-18.6,41.5-41.5S129.4,9,106.5,9C83.6,9,65,27.5,65,50.5S83.6,91.9,106.5,91.9z"/>
	<path class="st1" d="M106.5,92.4c-23.1,0-42-18.8-42-42c0-23.1,18.8-42,42-42c23.1,0,42,18.8,42,42
		C148.5,73.6,129.7,92.4,106.5,92.4z M106.5,9.5c-22.6,0-41,18.4-41,41c0,22.6,18.4,41,41,41c22.6,0,41-18.4,41-41
		C147.5,27.9,129.1,9.5,106.5,9.5z"/>
</g>
<defs>
	<filter id="Adobe_OpacityMaskFilter" filterUnits="userSpaceOnUse" x="49.8" y="4" width="109.8" height="90.5">
		<feColorMatrix  type="matrix" values="1 0 0 0 0  0 1 0 0 0  0 0 1 0 0  0 0 0 1 0"/>
	</filter>
</defs>
<mask maskUnits="userSpaceOnUse" x="49.8" y="4" width="109.8" height="90.5" id="mask0_333_795_00000138562821643058766540000000523873884838525612_">
	<path class="st13" d="M106.5,91.9c22.9,0,41.5-18.6,41.5-41.5S129.4,9,106.5,9C83.6,9,65,27.5,65,50.5S83.6,91.9,106.5,91.9z"/>
</mask>
<g class="st14">
	<g>
		<path class="st15" d="M86.3,34.8c4.3-1.3,6.2-2.3,5.8-3.5c-0.2-0.8-1.1-1-3-0.5c-0.9,0.2-1.4-1.1-1.9-2.7l-3.9-12.9
			c-0.6-2-0.7-2.6-0.3-3c0.4-0.5,0.6-0.9,0.5-1.4c-0.2-0.7-1.1-1-2.2-0.6c-1.3,0.4-3.2,1.4-4.8,2.5c-2.2,1.5-3.8,3.2-3.5,4.3
			c0.2,0.6,0.7,0.8,1.4,0.6c0.7-0.2,1.8-1.1,2.6-1.4c0.6-0.2,1,0.3,1.4,1.8l3.5,11.6c0.5,1.6,0.8,3-0.1,3.3
			c-1.9,0.7-2.5,1.3-2.3,2.1C79.8,36.3,82,36.1,86.3,34.8z"/>
	</g>
	<g>
		<path class="st15" d="M129.4,74.5l7.9-4c1.1-0.6,1.3,0,2.4-0.6c1.7-0.8,1.1-4.7,0.2-6.6c-0.6-1.2-1.5-1.9-2.3-1.5
			c-0.6,0.3-0.6,1-0.6,1.8c0,0.9,0,1.5-0.1,1.9c-0.2,0.7-1.8,1.7-3.9,2.8l-3.7,1.9c0.8-1.8,2-4.4,3.2-8c1-3,1.6-6.4,0-9.4
			c-1.8-3.6-5.9-5.2-10.1-3c-2.9,1.5-4.6,4-5,6.7c-0.3,1.4-0.2,2.6,0.3,3.5c0.3,0.6,1.1,0.9,1.7,0.6c0.6-0.3,0.8-0.8,0.9-1.9
			c0.3-2,1-3.8,2.7-4.6c2-1,3.9-0.3,5,1.8c1,1.9,0.7,4.3,0,7.2c-0.6,2.5-1.6,5.5-3.3,10.3c-0.3,0.8-0.3,1.3,0,2
			c0.4,0.7,1.2,1,2.2,0.5C127.8,75.4,128.6,74.9,129.4,74.5z"/>
	</g>
	<g>
		<path class="st15" d="M126.3,38.8c5.7,0,9.7-3.8,9.7-8.2c0-3.4-2.1-6.1-5.7-6.8c2.6-1.5,3.9-3.2,3.9-5.4c0-3.2-2.9-5.4-7.1-5.4
			c-3,0-5.4,1.3-6.9,2.9c-0.6,0.7-1.1,1.4-1.1,2.1s0.6,1.2,1.2,1.2c0.4,0,0.9-0.3,1.5-0.7c0.9-0.8,2.1-2.1,3.9-2.1
			c1.7,0,2.9,1.3,2.9,3c0,1.9-1.6,3.3-4.4,4.5c-0.8,0.3-1.4,0.5-1.4,1.4s0.6,1.9,1.3,1.9c0.7,0,1.2-0.4,2.3-0.4c2,0,3.9,1.5,3.9,4
			c0,2.5-1.9,4.4-5,4.4c-1.7,0-2.9-0.6-3.9-1.1c-0.8-0.4-1.4-0.8-2.1-0.8c-0.7,0-1.2,0.6-1.2,1.4c0,0.7,0.7,1.5,1.8,2.2
			C121.4,38,123.7,38.8,126.3,38.8z"/>
	</g>
	<g>
		<path class="st15" d="M77.4,64c2.2,0.9,2.6,0.7,3-0.2l1.4-3.6l1.7,0.7c1.2,0.5,1.8,0.3,2.3-1.2c0.6-1.5,0.3-2-0.9-2.5l-1.7-0.7
			l5-12.7c0.5-1.3-0.1-2.2-1.6-2.8c-1.9-0.8-3-0.2-4.7,0.9c-3.9,2.4-7.8,5.2-11.5,8.2c-0.9,0.8-2,1.5-2.4,2.6
			c-0.5,1.2,0,2.2,1.3,2.7l7.5,2.9l-1.4,3.6C75.1,62.8,75.3,63.2,77.4,64z M71.9,52.1c3.4-2.8,7-5.4,10.7-7.8l-4.1,10.4L71.9,52.1z"
			/>
	</g>
	<g>
		<path class="st15" d="M142.8,58c5,1.9,10.3,0.3,12-4.4c1.6-4.2-0.5-8.5-6.8-10.8c-0.7-0.3-1.6-0.5-2.7-0.8c0.7-1.3,1.7-3,2.5-4.5
			l7.6,2.8c2,0.7,3.2-0.2,3.8-1.9c0.4-1.2,0.1-1.7-0.5-1.9c-0.4-0.2-0.9-0.1-1.4,0l-8.7-3.2c-1.1-0.4-1.7-0.3-2.2,0.6
			c-1.9,3.3-4.8,8.4-5.2,9.5c-0.3,0.9,0.2,1.4,0.9,1.7c0.7,0.3,1.5,0.4,2.6,0.8c4,1.5,5.4,3.9,4.5,6.4c-0.9,2.3-3.3,3.2-6.2,2.2
			c-2.7-1-3.5-2.8-4.8-3.3c-0.8-0.3-1.4,0.1-1.7,0.8C136.1,53.8,139.5,56.8,142.8,58z"/>
	</g>
	<g>
		<path class="st15" d="M120.4,92.2c3.8-3.4,4.5-9.1,1-13c-3-3.4-7.5-3.6-10.9-0.6c-1.8,1.6-2.8,3.6-2.9,5.7
			c-3.6-4.6-3.5-7.4-1.5-9.2c1.5-1.3,3-1.3,4.7-1c1.1,0.2,1.6,0.2,2.1-0.3c0.5-0.5,0.6-1.2,0-1.9c-0.6-0.6-1.7-1.2-3.1-1.3
			c-2.3-0.3-4.5,0.6-6.2,2.1c-4.5,4-3.8,10.7,1.4,16.6C110.4,95.4,116.4,95.7,120.4,92.2z M109.5,86.5c-0.1-0.9,0.6-2.6,1.8-3.7
			c2.2-1.9,5.4-1.3,7.4,0.9c1.7,1.9,1.8,4.2,0,5.8C116.9,91.1,113.6,90.7,109.5,86.5z"/>
	</g>
	<g>
		<path class="st15" d="M92.6,67.1l-9.8,2.7c-1.3,0.4-1.4-0.2-2.5,0.1c-1.6,0.5-1.7,3.9-1.1,6.2c0.4,1.6,1.1,2.8,2.2,2.5
			c0.6-0.2,0.9-1,1-1.9c0.1-1,0.3-1.6,0.5-1.9c0.3-0.5,1.6-0.9,3.4-1.5l5.4-1.5c0,0.6,0,1.3-0.2,2.3c-0.6,4.4-1.5,9.1-2.6,13.8
			c-0.7,2.5-1.2,3.6-1.1,4.4c0.3,1,1.8,1.5,3.5,1c1.5-0.4,1.7-1.5,2.2-5c0.8-5.5,1.2-9.6,1.6-14c0.2-3.3,0.3-5.3,0-6.2
			C94.9,67.1,94.1,66.7,92.6,67.1z"/>
	</g>
	<g>
		<path class="st15" d="M102.6,63.3c5.6,0.9,9.8-1.7,10.5-6.2c0.4-2.9-0.8-5.1-3.7-7.3c2.9-0.8,4.4-2.5,4.7-4.6
			c0.5-3.6-2.1-6.6-7.4-7.4c-5.5-0.8-9.1,1.8-9.7,5.6c-0.4,2.4,0.7,4.6,2.6,6.3c-3,1-4.8,2.8-5.1,5.3C93.9,59,97.4,62.5,102.6,63.3z
			 M98.8,55.1c0.3-1.6,1.4-3,3.5-3.6c3.9,2.1,6.2,3.4,5.8,6c-0.4,2.4-2.8,3.2-5,2.8C100.2,60,98.4,57.7,98.8,55.1z M102.1,43.1
			c0.3-1.8,2.2-2.7,4.1-2.3c3,0.5,4.1,2.2,3.8,4.2c-0.2,1.4-1.3,2.7-3.4,3.3C103.9,46.7,101.7,45.3,102.1,43.1z"/>
	</g>
	<g>
		<path class="st15" d="M110.2,4.7c-4.6-1.9-9.9,0-11.9,4.8c-1.7,4.2,0.1,8.4,4.3,10.1c2.1,0.9,4.1,1,5.8,0.4
			c-2.5,4.9-5,5.9-7.5,4.8c-1.8-0.7-2.7-2.2-3.2-3.9c-0.4-1.2-0.6-1.6-1.1-1.8c-0.7-0.3-1.4,0-1.7,0.8c-0.3,0.7-0.3,2,0.1,3.3
			c0.7,2,2.5,3.8,4.9,4.9c5.6,2.3,11.3-1,14.4-8.3C117.4,12.4,115.1,6.7,110.2,4.7z M103.5,10.1c1-2.3,2.9-3.6,5-2.7
			c2.3,1,3.3,4.1,1.2,9.8c-0.6,0.3-2.2,0.5-3.8-0.1C103,15.8,102.4,12.8,103.5,10.1z"/>
	</g>
	<g>
		<path class="st15" d="M66.7,43.6c4.6-2.8,6.6-8,4-12.1c-2.4-3.8-7.1-4.8-12.7-1.4c-0.6,0.4-1.4,0.9-2.3,1.6
			c-0.6-1.3-1.4-3.2-2-4.7l6.9-4.3c1.8-1.1,1.8-2.6,0.9-4.2c-0.7-1.1-1.3-1.1-1.8-0.8c-0.4,0.2-0.6,0.6-0.9,1.1l-7.9,4.9
			c-1,0.6-1.3,1.1-0.9,2.1c1.4,3.6,3.7,9,4.3,10c0.5,0.8,1.2,0.7,1.9,0.3c0.6-0.4,1.3-0.9,2.3-1.6c3.6-2.2,6.4-1.8,7.8,0.4
			c1.3,2.1,0.5,4.6-2.1,6.2c-2.5,1.5-4.3,1-5.6,1.8c-0.7,0.5-0.8,1.2-0.4,1.8C59.1,46.3,63.6,45.5,66.7,43.6z"/>
	</g>
</g>
<g>
	<path class="st1" d="M106.5,92.4c-23.1,0-42-18.8-42-42c0-23.1,18.8-42,42-42c23.1,0,42,18.8,42,42
		C148.5,73.6,129.7,92.4,106.5,92.4z M106.5,9.5c-22.6,0-41,18.4-41,41c0,22.6,18.4,41,41,41c22.6,0,41-18.4,41-41
		C147.5,27.9,129.1,9.5,106.5,9.5z"/>
</g>
<g>
	<path class="st4" d="M71.8,55.2c0,12.2-6.2,14.8-6.2,14.8s6.2,1.8,6.2,13.7C71.8,72,78,70,78,70S71.8,67.3,71.8,55.2z"/>
	<path class="st1" d="M71.8,84.3c-0.3,0-0.5-0.2-0.5-0.5c0-11.3-5.8-13.2-5.9-13.3c-0.2-0.1-0.3-0.2-0.4-0.5s0.1-0.4,0.3-0.5
		c0.1,0,5.9-2.7,5.9-14.3c0-0.3,0.2-0.5,0.5-0.5s0.5,0.2,0.5,0.5c0,11.6,5.9,14.3,5.9,14.3c0.2,0.1,0.3,0.3,0.3,0.5
		c0,0.2-0.1,0.4-0.3,0.4c-0.1,0-5.9,2.1-5.9,13.3C72.3,84.1,72.1,84.3,71.8,84.3z M66.7,70c1.4,0.8,4.1,3,5.1,8.4
		c1.1-5.4,3.8-7.6,5.2-8.4c-1.4-1-4-3.5-5.2-9.2C70.7,66.5,68.1,69,66.7,70z"/>
</g>
<g>
	<path class="st4" d="M63.1,75.7c0,6.9-3.5,8.4-3.5,8.4s3.5,1.1,3.5,7.8c0-6.7,3.5-7.8,3.5-7.8S63.1,82.6,63.1,75.7z"/>
	<path class="st1" d="M63.1,92.5c-0.3,0-0.5-0.2-0.5-0.5c0-6.3-3.1-7.3-3.2-7.4c-0.2-0.1-0.3-0.2-0.4-0.5c0-0.2,0.1-0.4,0.3-0.5
		c0.1-0.1,3.2-1.5,3.2-8c0-0.3,0.2-0.5,0.5-0.5s0.5,0.2,0.5,0.5c0,6.4,3.1,7.9,3.2,8c0.2,0.1,0.3,0.3,0.3,0.5c0,0.2-0.1,0.4-0.3,0.4
		c-0.1,0-3.2,1.2-3.2,7.4C63.6,92.3,63.3,92.5,63.1,92.5z M60.5,84.1c0.8,0.5,1.9,1.7,2.6,3.9c0.6-2.2,1.8-3.4,2.6-3.9
		c-0.8-0.6-1.9-1.9-2.6-4.3C62.4,82.2,61.3,83.5,60.5,84.1z"/>
</g>
<g>
	<path class="st4" d="M58.8,58.3c0,5.5-2.8,6.7-2.8,6.7s2.8,0.8,2.8,6.2c0-5.3,2.8-6.2,2.8-6.2S58.8,63.7,58.8,58.3z"/>
	<path class="st1" d="M58.8,71.7c-0.3,0-0.5-0.2-0.5-0.5c0-4.9-2.3-5.7-2.4-5.7c-0.2-0.1-0.3-0.2-0.3-0.5c0-0.2,0.1-0.4,0.3-0.5
		c0.1,0,2.5-1.2,2.5-6.2c0-0.3,0.2-0.5,0.5-0.5s0.5,0.2,0.5,0.5c0,5,2.4,6.2,2.5,6.2c0.2,0.1,0.3,0.3,0.3,0.5c0,0.2-0.1,0.4-0.3,0.4
		c-0.1,0-2.4,0.9-2.4,5.7C59.3,71.4,59.1,71.7,58.8,71.7z M57,64.9c0.6,0.4,1.4,1.2,1.9,2.7c0.5-1.5,1.3-2.3,1.9-2.7
		c-0.6-0.5-1.4-1.4-1.9-3C58.3,63.5,57.6,64.4,57,64.9z"/>
</g>
<g>
	<path class="st4" d="M142.2,11.5c0,12.2-6.2,14.8-6.2,14.8s6.2,1.8,6.2,13.7c0-11.8,6.2-13.7,6.2-13.7S142.2,23.5,142.2,11.5z"/>
	<path class="st1" d="M142.2,40.5c-0.3,0-0.5-0.2-0.5-0.5c0-11.3-5.8-13.2-5.9-13.3c-0.2-0.1-0.3-0.2-0.4-0.5s0.1-0.4,0.3-0.5
		c0.1,0,5.9-2.7,5.9-14.3c0-0.3,0.2-0.5,0.5-0.5s0.5,0.2,0.5,0.5c0,11.5,5.9,14.3,5.9,14.3c0.2,0.1,0.3,0.3,0.3,0.5
		c0,0.2-0.1,0.4-0.3,0.4c-0.1,0-5.9,2.1-5.9,13.3C142.7,40.3,142.4,40.5,142.2,40.5z M137,26.3c1.4,0.8,4,3,5.1,8.4
		c1.1-5.4,3.8-7.6,5.2-8.4c-1.4-1-4-3.5-5.2-9.2C141.1,22.7,138.4,25.3,137,26.3z"/>
</g>
<g>
	<path class="st4" d="M152.1,24.4c0,6.9-3.5,8.4-3.5,8.4s3.5,1.1,3.5,7.8c0-6.7,3.5-7.8,3.5-7.8S152.1,31.2,152.1,24.4z"/>
	<path class="st1" d="M152.1,41.1c-0.3,0-0.5-0.2-0.5-0.5c0-6.3-3.1-7.3-3.2-7.4c-0.2-0.1-0.3-0.2-0.3-0.5c0-0.2,0.1-0.4,0.3-0.5
		c0.1-0.1,3.2-1.5,3.2-8c0-0.3,0.2-0.5,0.5-0.5s0.5,0.2,0.5,0.5c0,6.4,3.1,7.9,3.2,8c0.2,0.1,0.3,0.3,0.3,0.5c0,0.2-0.1,0.4-0.3,0.4
		c-0.1,0-3.2,1.2-3.2,7.4C152.6,40.9,152.4,41.1,152.1,41.1z M149.6,32.7c0.8,0.5,1.9,1.7,2.6,3.9c0.7-2.2,1.8-3.4,2.6-3.9
		c-0.8-0.6-1.9-1.9-2.6-4.3C151.5,30.9,150.3,32.1,149.6,32.7z"/>
</g>
<g>
	<path class="st4" d="M135.3,4.1c0,5.5-2.8,6.7-2.8,6.7s2.8,0.8,2.8,6.2c0-5.3,2.8-6.2,2.8-6.2S135.3,9.5,135.3,4.1z"/>
	<path class="st1" d="M135.3,17.5c-0.3,0-0.5-0.2-0.5-0.5c0-4.9-2.3-5.7-2.4-5.7c-0.2-0.1-0.3-0.2-0.3-0.5c0-0.2,0.1-0.4,0.3-0.5
		c0.1,0,2.5-1.2,2.5-6.2c0-0.3,0.2-0.5,0.5-0.5s0.5,0.2,0.5,0.5c0,5,2.4,6.2,2.5,6.2c0.2,0.1,0.3,0.3,0.3,0.5c0,0.2-0.1,0.4-0.3,0.4
		c-0.1,0-2.4,0.9-2.4,5.7C135.8,17.2,135.5,17.5,135.3,17.5z M133.4,10.7c0.6,0.4,1.4,1.2,1.8,2.7c0.5-1.5,1.3-2.3,1.9-2.7
		c-0.6-0.5-1.4-1.4-1.9-3C134.8,9.3,134,10.2,133.4,10.7z"/>
</g>
</svg>
