<svg xmlns="http://www.w3.org/2000/svg" id="Layer_1" viewBox="0 0 390 220"><defs><clipPath id="clippath"><path d="M0 0h390v220H0z" class="st0"/></clipPath><style>.st0,.st1,.st2{fill:none}.st3{fill:#bf3013}.st4{fill:#f25730}.st5{fill:#fff2b2}.st6{fill:#fee45e}.st7{fill:#fffaf0}.st8{fill:#f9b5fe}.st9{fill:#003c73}.st10{fill:#ffed8f}.st11{fill:#d18000}.st12{opacity:.3}.st13{fill:#fed607}.st14{fill:#780505}.st15{fill:#e4bc07}.st16{fill:#f68dfe}.st1,.st2{stroke:#002140;stroke-linecap:round;stroke-linejoin:round;stroke-width:1px}.st17{fill:#e96df2}.st18{clip-path:url(#clippath)}</style></defs><g class="st18"><path d="M0 0h390v220H0z" class="st14"/><g class="st12"><path d="M195.128-98C310.07-98 403.256-4.821 403.256 110.128S310.07 318.256 195.128 318.256-13 225.07-13 110.128 80.179-98 195.128-98m166.739 208.128c0-92.085-74.654-166.74-166.739-166.74s-166.74 74.655-166.74 166.74 74.655 166.739 166.74 166.739 166.739-74.654 166.739-166.739" class="st3"/><path d="M195.128-13.95c68.523 0 124.078 55.549 124.078 124.078s-55.555 124.078-124.078 124.078S71.05 178.651 71.05 110.128 126.599-13.95 195.128-13.95m80.254 124.078c0-44.325-35.93-80.255-80.254-80.255s-80.255 35.93-80.255 80.255 35.93 80.254 80.255 80.254 80.254-35.93 80.254-80.254" class="st3"/><path d="M195.127-56.611c92.086 0 166.74 74.655 166.74 166.739s-74.654 166.74-166.74 166.74-166.739-74.655-166.739-166.74S103.042-56.611 195.127-56.611m124.079 166.739c0-68.529-55.556-124.078-124.079-124.078S71.049 41.599 71.049 110.128s55.549 124.078 124.078 124.078 124.079-55.555 124.079-124.078" class="st14"/><path d="M195.128 190.382c44.323 0 80.254-35.931 80.254-80.254s-35.931-80.255-80.254-80.255-80.255 35.931-80.255 80.255 35.931 80.254 80.255 80.254" class="st14"/></g><path d="M217.909 194.024a2.46 2.46 0 0 1 2.45 2.45c0 .674-.276 1.286-.721 1.73-.41.41-.96.676-1.572.714a2 2 0 0 0-.157-.006h-9.153a2.46 2.46 0 0 0 2.202-2.438c0-.673-.277-1.285-.721-1.729s-1.056-.721-1.73-.721z" class="st13"/><path d="M218.066 198.918a2.457 2.457 0 0 1 2.293 2.444c0 .674-.276 1.286-.721 1.73a2.44 2.44 0 0 1-1.729.72h-54.602a2.46 2.46 0 0 1-2.45-2.45c0-.673.276-1.285.72-1.73.41-.41.963-.675 1.575-.714q.076.007.155.007h54.602q.08 0 .157-.007" class="st16"/><path d="M208.507 194.024c.674 0 1.286.277 1.73.721s.72 1.056.72 1.73a2.46 2.46 0 0 1-2.201 2.437h-11.399a2.46 2.46 0 0 0 2.202-2.437c-.062-.931-.351-1.318-.844-1.652-.491-.335-1.186-.616-2.057-1.336 0 0-4.35-3.075-4.35-9.875v-4.076c0-.111.004-.332.034-.591.078-.663.323-1.583 1.092-1.583 1.275 0 1.175 1.651 1.175 1.651l.09.015c-.181 1.101-.292 2.401-.292 3.984 0 10.3 15.001 11 15.001 11v.012z" class="st6"/><path d="m201.662 21.356.043.076s-3.377 5.812-3.451 5.925h-.002c-.527-.455-1.409-.376-2.059-.051q-.305.16-.587.372c.463-.397.852-.795.735-1.422-.231-1.254-1.574-1.275-2.475-.825q-.07.038-.141.079l-.008-.178 1.375-3.976zm-2.658-4.762 2.659 4.762h-6.571l.032-.094 3.88-4.669Z" class="st7"/><path d="M201.446 49.377v34.938c0 3.139-1.707 5.899-4.236 7.397l-.07-.006c.034-.406.034-.833.034-1.296v-3.4s.075-2.102-1.899-2.102-2 2.15-2 2.15v2.95s0 2.701-2.701 2.701-2.901-3.101-2.901-3.101v-3.7h-3.574v4.601s-.1.499-.041 1.203h-.053c-2.531-1.498-4.235-4.259-4.235-7.397V49.377c0-4.458 3.438-8.15 7.793-8.556q.395-.038.801-.038h4.488q.651 0 1.277.096c4.127.621 7.317 4.203 7.317 8.498m-6.601 23.867V52.692a3.987 3.987 0 0 0-3.974-3.974h-.529a3.986 3.986 0 0 0-3.972 3.974v20.552a3.986 3.986 0 0 0 3.972 3.974h.529a3.987 3.987 0 0 0 3.974-3.974m3.079-43.895.056-.03c.722-.361 1.802-.344 1.989.663.151.814-.755 1.056-1.267 1.69 0 0-.797.608-1.069 1.949h-.004a1.3 1.3 0 0 0-.548-.102c-.374 0-.718.134-.986.355h-.228c-.002-.278-.01-.703-.029-1.328-.03-1.039.886-2.535 2.086-3.196Z" class="st16"/><path d="m199.004 16.594-3.88 4.669-4.463-4.463.206-.206z" class="st5"/><path d="M192.308 179.536v4.076c0 6.8 4.35 9.875 4.35 9.875.871.72 1.566 1.001 2.057 1.336.493.334.782.721.844 1.652a2.46 2.46 0 0 1-2.202 2.437h-13.048a2.46 2.46 0 0 1-2.201-2.437c.061-.931.35-1.318.841-1.652.491-.335 1.184-.616 2.057-1.336 0 0 4.35-3.075 4.35-9.875v-4.081c0-.112-.004-.333-.036-.593h.036s.039-1.612 1.501-1.612 1.425 1.61 1.425 1.61l.06.009c-.03.259-.034.48-.034.591" class="st13"/><path d="M195.867 33.875h.228c-.345.28-.563.712-.563 1.192h-.003a1.55 1.55 0 0 0-1.929-1.5l-.034-.134s.017-.264-.036-2.112c-.026-.856.467-1.964 1.237-2.852q.11-.136.238-.259c.189-.185.395-.353.59-.521a.02.02 0 0 0 .011-.011q.283-.212.586-.372c.651-.325 1.533-.404 2.06.053.202.174.35.427.414.774.113.608-.274.905-.742 1.215-1.2.661-2.116 2.157-2.086 3.196.019.625.027 1.05.029 1.33Z" class="st17"/><path d="M190.839 33.52q.02-.003.039-.002h.015c.822 0 1.496.642 1.545 1.451a1.54 1.54 0 0 1 1.162-1.403q.183-.048.38-.049c.855 0 1.55.695 1.55 1.549h.002a1.547 1.547 0 0 1 1.549-1.549c.212 0 .363.023.548.102h.004a4.6 4.6 0 0 0-.091.924c0 4.067-1.734 5.627-3.392 6.188l-.021.147a8.4 8.4 0 0 0-1.277-.096h-4.488q-.406 0-.801.038l-.007-.081c-1.668-.552-3.419-2.108-3.419-6.197 0-.34-.034-.648-.091-.924h.004c.185-.079.336-.102.548-.102a1.55 1.55 0 0 1 1.549 1.549 1.55 1.55 0 0 1 1.93-1.5 1.54 1.54 0 0 1 1.164 1.403 1.544 1.544 0 0 1 1.596-1.449h.002Z" class="st10"/><path d="M190.888 164.239c-.99.011-2.951.417-2.656 3.299.525 2.624 1.951 4.498-.225 5.85-3.149 1.124-3.751-3.3-3.751-3.3l-.051.004a11 11 0 0 1-.049-1.08c0-4.6 4.301-7.401 4.301-9.8l.009-.187h4.28l.463.187c0 2.399 4.299 5.2 4.299 9.8 0 .661-.051 1.246-.138 1.777-.323 1.198-1.256 3.436-3.6 2.599-2.176-1.352-.75-3.226-.225-5.85.295-2.882-1.666-3.288-2.657-3.299" class="st6"/><path d="M197.174 87.01v3.4c0 .463 0 .89-.034 1.296-.099 1.341-.533 2.446-2.365 3.904-1.7 1.124-2.201 1.649-2.201 3.075v3.099h-4.104l-.034.002-.013-.289v-2.888c0-1.6-1.024-2.2-2.924-3.9-1.05-.939-1.368-2.125-1.441-2.996a4.7 4.7 0 0 1 .041-1.203v-4.601h3.574v3.7s.202 3.101 2.901 3.101 2.701-2.701 2.701-2.701v-2.95s.025-2.15 2-2.15 1.899 2.102 1.899 2.102Z" class="st10"/><path d="M196.341 26.257c.117.627-.272 1.024-.735 1.422l-.01.011a5 5 0 0 0-.591.521 3 3 0 0 0-.238.259c-.77.888-1.263 1.996-1.237 2.852.053 1.849.036 2.112.036 2.112l.034.134a1.54 1.54 0 0 0-1.162 1.403 1.547 1.547 0 0 0-1.545-1.451h-.015l-.011-.21s.013-1.481-.027-3.158c0-.147.006-.293.01-.442a2 2 0 0 0-.01-.236c.125-1.279 1.496-3.158 2.885-3.961q.07-.041.141-.079c.901-.451 2.244-.429 2.475.824Z" class="st16"/><path d="M197.37 170.789c-.47 2.864-2.023 4.244-2.671 8.239l-.09-.015s.1-1.651-1.175-1.651c-.769 0-1.013.92-1.092 1.583l-.06-.009s.039-1.61-1.425-1.61-1.501 1.61-1.501 1.61h-.036c-.076-.661-.323-1.574-1.088-1.574-1.275 0-1.175 1.651-1.175 1.651l-.089.015c-.699-4.306-2.451-5.572-2.763-8.936l.051-.004s.601 4.424 3.751 3.3c2.176-1.352.75-3.226.225-5.851-.295-2.881 1.666-3.287 2.656-3.298.991.011 2.952.417 2.657 3.298-.525 2.625-1.951 4.499.225 5.851 2.344.837 3.277-1.401 3.6-2.599" class="st8"/><path d="m195.124 21.263-.032.094h-8.862l-.032-.094 4.463-4.463z" class="st7"/><path d="m195.092 21.356-1.375 3.976.008.178c-1.389.803-2.76 2.682-2.886 3.961-.133-1.324-1.589-3.285-3.028-4.04a3 3 0 0 0-.21-.094v-.006l-1.371-3.976h8.862Z" class="st5"/><path d="M194.703 113.236c.195 1.296.314 2.781.278 4.424h-.019l-4.312-4.225-4.124 4.125-.296.004a26 26 0 0 1 .27-4.258l.026.004 4.124-4.125 4.051 4.051z" class="st6"/><path d="M194.762 139.166c.164 1.213.255 2.58.217 4.076l-.229-.007-4.125 4.127-4.312-4.227h-.081a26 26 0 0 1 .2-3.833l.368.047 3.825 3.763 3.899-3.914zm.2-21.506h.019a27 27 0 0 1-.359 3.81l-.147-.023-3.825-3.761-3.899 3.912-.134.021a27 27 0 0 1-.387-4.055l.296-.004 4.124-4.125z" class="st16"/><path d="m194.75 143.235.229.007a27.5 27.5 0 0 1-.448 4.26l-3.915 4.11-3.859-4.05-.059.01a27 27 0 0 1-.466-4.435h.081l4.312 4.225zm.012-4.069-.238.032-3.899 3.914-3.825-3.764-.368-.046a23.6 23.6 0 0 1 .759-3.653l.433.136 3.001 3.077 3.075-3.113.323-.098c.283.954.557 2.138.739 3.515" class="st6"/><path d="M194.703 113.236h-.002l-4.05-4.051-4.125 4.125-.026-.004c.553-3.723 1.749-5.921 1.749-5.921l.038-.227q.09.016.183.015h4.276q.092 0 .183-.015l.036.227s1.181 2.17 1.738 5.851" class="st16"/><path d="m194.475 121.447.147.023a29 29 0 0 1-.829 3.583l-.142-.042-3.001-3.075-3.075 3.113-.144.042a29 29 0 0 1-.814-3.472l.134-.021 3.899-3.912z" class="st6"/><path d="m190.616 151.612 3.915-4.11a30.6 30.6 0 0 1-1.717 5.859l-.013.277q-.027-.004-.055-.003h-4.276q-.029 0-.057.003l-.013-.277a30.4 30.4 0 0 1-1.702-5.788l.059-.011zm3.407-15.961-.323.098-3.075 3.113-3.001-3.077-.433-.136c.52-1.775 1.058-2.763 1.058-2.763l.036-.081c.319.147.674.23 1.048.23h2.55c.372 0 .724-.081 1.043-.23l.038.081s.538.99 1.059 2.765m-.372-10.64.142.042c-.27.912-.593 1.849-.979 2.807l-.931.151h-2.55a2.5 2.5 0 0 0-.863.153l-.07-.304a32 32 0 0 1-.969-2.769l.144-.042 3.075-3.113z" class="st16"/><path d="M192.746 101.784c.72 0 1.311.59 1.311 1.313a1.316 1.316 0 0 1-1.311 1.313v.136c.72 0 1.311.591 1.311 1.314a1.314 1.314 0 0 1-1.129 1.298 1 1 0 0 1-.182.015h-4.276q-.093 0-.183-.015a1.313 1.313 0 0 1 .183-2.612v-.136c-.722 0-1.313-.59-1.313-1.313 0-.361.146-.689.384-.927s.547-.378.895-.384l.034-.002zm.055 51.854a1.314 1.314 0 0 1 1.256 1.311 1.314 1.314 0 0 1-1.311 1.313v.136c.72 0 1.311.591 1.311 1.313a1.314 1.314 0 0 1-1.311 1.314h-4.28a1.316 1.316 0 0 1-1.309-1.314 1.314 1.314 0 0 1 1.313-1.313v-.136a1.317 1.317 0 0 1-1.313-1.313 1.315 1.315 0 0 1 1.256-1.311q.029-.004.057-.003h4.276q.027 0 .055.003m-.918-25.627a2.52 2.52 0 0 1 2.512 2.512 2.51 2.51 0 0 1-1.469 2.282c-.318.149-.671.23-1.043.23h-2.55a2.52 2.52 0 0 1-2.514-2.512c0-.691.282-1.317.737-1.774a2.6 2.6 0 0 1 .914-.585c.27-.1.561-.153.863-.153z" class="st13"/><path d="M190.84 30.15c.04 1.677.027 3.158.027 3.158l.011.21q-.02 0-.038.002-.027-.003-.054-.002c-.822 0-1.496.642-1.542 1.451a1.55 1.55 0 0 0-1.165-1.403l.034-.134s-.017-.264.036-2.112c.026-.856-.467-1.964-1.237-2.852a3 3 0 0 0-.238-.259 5 5 0 0 0-.601-.532c-.465-.395-.852-.793-.735-1.422.214-1.16 1.379-1.264 2.263-.918a2 2 0 0 1 .21.094c1.439.754 2.895 2.716 3.029 4.04q-.015.121-.011.236z" class="st17"/><path d="m190.661 16.8-4.463 4.463-3.882-4.669h8.139z" class="st5"/><path d="M172.458 194.037v-.038c1.77-.128 14.799-1.388 14.799-10.987 0-1.583-.111-2.883-.289-3.984l.089-.015s-.1-1.651 1.175-1.651c.765 0 1.012.913 1.088 1.576.032.26.036.481.036.593v4.081c0 6.8-4.35 9.875-4.35 9.875-.873.72-1.566 1.001-2.057 1.336-.491.334-.78.721-.841 1.652 0 1.262.969 2.312 2.201 2.437h-11.851a2.46 2.46 0 0 1-2.202-2.437c0-.674.276-1.286.721-1.73a2.44 2.44 0 0 1 1.481-.708" class="st6"/><path d="M186.912 28.469c.77.888 1.263 1.995 1.237 2.852-.053 1.849-.036 2.112-.036 2.112l-.034.134a1.55 1.55 0 0 0-1.929 1.5 1.55 1.55 0 0 0-.453-1.094l.117-.053c.002-.281.01-.716.03-1.375.029-1.039-.889-2.535-2.087-3.196-.468-.31-.855-.608-.742-1.216.047-.249.136-.446.255-.604.491-.64 1.498-.582 2.219-.223a4.4 4.4 0 0 1 .597.383c.195.168.401.336.591.521q.127.123.238.259z" class="st16"/><path d="m186.23 21.356 1.373 3.976v.006c-.886-.346-2.051-.242-2.265.918-.117.629.27 1.026.735 1.422a4.4 4.4 0 0 0-.587-.372c-.72-.359-1.727-.417-2.218.223l-.202-.172c-.074-.113-3.449-5.925-3.449-5.925l.042-.076z" class="st7"/><path d="m186.198 21.263.032.094h-6.571l2.657-4.762 3.882 4.669Z" class="st7"/><path d="M183.755 29.349c1.198.661 2.116 2.157 2.086 3.196a67 67 0 0 0-.029 1.375l-.117.053a1.55 1.55 0 0 0-1.097-.455c-.212 0-.363.023-.548.102h-.004c-.272-1.341-1.069-1.949-1.069-1.949-.512-.633-1.418-.876-1.267-1.69.187-1.007 1.267-1.024 1.989-.663l.056.03Z" class="st17"/><path d="M172.458 198.912h-9.151a2 2 0 0 0-.155.006 2.456 2.456 0 0 1-2.295-2.444c0-.673.276-1.285.72-1.729s1.056-.721 1.73-.721h8.849l.015.062a2.44 2.44 0 0 0-1.194.659 2.44 2.44 0 0 0-.721 1.729c0 1.263.969 2.313 2.202 2.438" class="st13"/><path d="M172.706 198.925q-.128 0-.248-.013a2.46 2.46 0 0 1-2.202-2.438c0-.673.276-1.285.721-1.729a2.44 2.44 0 0 1 1.481-.708q.12-.013.248-.013m35.801 4.901q.128 0 .249-.013a2.46 2.46 0 0 0 2.202-2.438c0-.673-.277-1.285-.721-1.729s-1.056-.721-1.73-.721" class="st1"/><path d="M218.066 198.918a2.457 2.457 0 0 1 2.293 2.444c0 .674-.276 1.286-.721 1.73a2.44 2.44 0 0 1-1.729.72h-54.602a2.46 2.46 0 0 1-2.45-2.45c0-.673.276-1.285.72-1.73a2.44 2.44 0 0 1 1.73-.72h54.602q.08 0 .157.006" class="st1"/><path d="M208.259 194.024h9.65a2.46 2.46 0 0 1 2.45 2.45c0 .674-.276 1.286-.721 1.73a2.43 2.43 0 0 1-1.729.721h-54.602q-.079 0-.155-.007a2.456 2.456 0 0 1-2.295-2.444c0-.673.276-1.285.72-1.729s1.056-.721 1.73-.721h8.849m.1-.012.2-.013c1.772-.128 14.801-1.388 14.801-10.987 0-1.583-.111-2.884-.289-3.984-.699-4.306-2.45-5.572-2.763-8.936a11 11 0 0 1-.049-1.08c0-4.601 4.301-7.401 4.301-9.801" class="st1"/><path d="M189.356 179.531c0-.112-.004-.333-.036-.593-.076-.663-.323-1.576-1.088-1.576-1.275 0-1.175 1.651-1.175 1.651" class="st1"/><path d="M184.558 198.925q-.127 0-.249-.013a2.46 2.46 0 0 1-2.201-2.437c.061-.931.35-1.318.841-1.652.491-.335 1.184-.616 2.057-1.336 0 0 4.35-3.075 4.35-9.875v-4.263m20.052 14.663s-15-.7-15-11c0-1.583.11-2.884.291-3.984.648-3.995 2.201-5.375 2.671-8.239.087-.531.138-1.116.138-1.777 0-4.601-4.299-7.401-4.299-9.801" class="st1"/><path d="M192.308 179.536c0-.111.004-.332.034-.591.078-.663.323-1.583 1.092-1.583 1.275 0 1.175 1.651 1.175 1.651" class="st1"/><path d="M197.108 198.925q.127 0 .249-.013a2.46 2.46 0 0 0 2.202-2.437c-.062-.931-.351-1.318-.844-1.652-.491-.335-1.186-.616-2.057-1.336 0 0-4.35-3.075-4.35-9.875v-4.263m-2.952-.413s.038-1.61 1.5-1.61 1.426 1.61 1.426 1.61m-8.026-8.848s.601 4.424 3.751 3.3c2.176-1.352.75-3.226.225-5.85-.295-2.882 1.666-3.288 2.656-3.299q.022-.002.045-.002" class="st1"/><path d="M197.521 170.088s-.041.289-.151.701c-.323 1.198-1.256 3.436-3.6 2.599-2.176-1.352-.75-3.226-.225-5.85.295-2.882-1.666-3.288-2.657-3.299l-.044-.002m1.957-10.599a1.314 1.314 0 0 1 1.256 1.311 1.314 1.314 0 0 1-1.311 1.313v.136c.72 0 1.311.591 1.311 1.313a1.314 1.314 0 0 1-1.311 1.314h-4.28a1.316 1.316 0 0 1-1.309-1.314 1.314 1.314 0 0 1 1.313-1.313v-.136a1.317 1.317 0 0 1-1.313-1.313 1.315 1.315 0 0 1 1.256-1.311q.029-.004.057-.003h4.276q.027 0 .055.003m.125-20.833c-.318.149-.671.23-1.043.23h-2.55a2.52 2.52 0 0 1-2.514-2.512c0-.691.282-1.317.737-1.774a2.6 2.6 0 0 1 .914-.585c.27-.1.561-.153.863-.153h2.55a2.52 2.52 0 0 1 2.512 2.512 2.51 2.51 0 0 1-1.469 2.282m-.352-31.021h.172c.72 0 1.311.59 1.311 1.313a1.316 1.316 0 0 1-1.311 1.313v.136c.72 0 1.311.591 1.311 1.314a1.314 1.314 0 0 1-1.129 1.298 1 1 0 0 1-.182.015h-4.276q-.093 0-.183-.015a1.313 1.313 0 0 1 .183-2.612v-.136c-.722 0-1.313-.59-1.313-1.313 0-.361.146-.689.384-.927s.547-.378.895-.384l.034-.002zm-4.325 5.601s-1.196 2.198-1.749 5.921a26 26 0 0 0-.27 4.258c.026 1.263.141 2.619.387 4.055.189 1.111.455 2.27.814 3.472q.4 1.352.969 2.769m4.565-20.475s1.181 2.17 1.738 5.851c.195 1.296.314 2.781.278 4.424a27 27 0 0 1-.359 3.81 29 29 0 0 1-.829 3.583c-.27.912-.593 1.849-.979 2.807" class="st1"/><path d="m186.526 113.31 4.124-4.125 4.051 4.051m-8.175 4.324 4.124-4.125 4.312 4.225m-8.211 3.938 3.899-3.912 3.826 3.761m-6.901 3.602 3.075-3.113 3.001 3.075m-5.402 7.875s-.538.988-1.058 2.763a23.6 23.6 0 0 0-.759 3.653 26 26 0 0 0-.2 3.835c.03 1.373.17 2.859.466 4.435a30.4 30.4 0 0 0 1.702 5.789m4.565-20.475s.537.99 1.058 2.765c.283.954.557 2.138.739 3.515.164 1.213.255 2.58.217 4.076a27.5 27.5 0 0 1-.448 4.26 30.6 30.6 0 0 1-1.717 5.859" class="st1"/><path d="m194.546 147.485-.015.017-3.915 4.11-3.859-4.05m7.993-4.327-4.125 4.127-4.312-4.227m8.211-3.937-3.899 3.914-3.825-3.763m6.9-3.6-3.075 3.113-3.001-3.077m4.95-34.001v-3.099c0-1.426.501-1.951 2.201-3.075 1.832-1.458 2.266-2.563 2.365-3.904.034-.406.034-.833.034-1.296v-3.4s.075-2.102-1.899-2.102-2 2.15-2 2.15v2.95s0 2.701-2.701 2.701-2.901-3.101-2.901-3.101v-3.7h-3.574v4.601s-.1.499-.041 1.203c.073.871.391 2.057 1.441 2.996 1.9 1.7 2.924 2.299 2.924 3.9v2.888" class="st1"/><path d="M184.005 91.713c-2.531-1.498-4.235-4.259-4.235-7.397V49.378c0-4.458 3.438-8.15 7.793-8.556q.395-.038.801-.038h4.488q.651 0 1.277.096c4.127.621 7.317 4.203 7.317 8.498v34.938c0 3.139-1.707 5.899-4.236 7.397" class="st1"/><path d="M190.871 48.719h-.527a3.974 3.974 0 0 0-3.973 3.974v20.552a3.974 3.974 0 0 0 3.973 3.974h.527a3.974 3.974 0 0 0 3.974-3.974V52.693a3.974 3.974 0 0 0-3.974-3.974m4.735-21.041q.282-.212.586-.372c.651-.325 1.533-.404 2.06.053.202.174.35.427.414.774.113.608-.274.905-.742 1.215-.308.208-.652.421-.907.733m-2.012-1.871q.278-.285.59-.521m-2.029 5.744s.017-.264-.036-2.112c-.026-.856.467-1.963 1.237-2.852" class="st1"/><path d="M190.867 33.308s.013-1.481-.028-3.158l-.01-.442a2 2 0 0 1 .01-.236c.126-1.279 1.497-3.158 2.886-3.961q.07-.041.141-.079c.901-.451 2.244-.429 2.475.824.117.627-.272 1.024-.735 1.422a.03.03 0 0 1-.011.011c-.195.168-.401.336-.59.521a3 3 0 0 0-.238.259m1.1 5.451v-.045c-.002-.28-.01-.706-.029-1.33-.03-1.039.886-2.535 2.087-3.196l.055-.03c.722-.361 1.802-.344 1.989.663.151.814-.755 1.056-1.267 1.69 0 0-.797.608-1.069 1.949a4.6 4.6 0 0 0-.091.924c0 4.067-1.734 5.627-3.392 6.188m-4.806-5.666c0-.837.663-1.519 1.496-1.547q.018-.003.038-.002h.015a1.55 1.55 0 0 1 1.549 1.549" class="st1"/><path d="M192.431 35.067q-.002-.05.007-.098a1.54 1.54 0 0 1 1.162-1.403q.183-.048.38-.049a1.55 1.55 0 0 1 1.549 1.549m.003.001a1.547 1.547 0 0 1 1.549-1.549c.212 0 .363.023.548.102m-11.556-5.942a4.4 4.4 0 0 0-.587-.372c-.72-.359-1.727-.417-2.218.223a1.4 1.4 0 0 0-.255.604c-.113.608.274.905.742 1.216.308.208.652.421.907.733m2.012-1.872a5 5 0 0 0-.591-.521m2.03 5.744s-.017-.264.036-2.112c.026-.856-.467-1.963-1.237-2.852" class="st1"/><path d="M190.812 33.308s-.013-1.481.028-3.158c0-.147.006-.293.01-.442a2 2 0 0 0-.01-.236c-.134-1.324-1.59-3.285-3.029-4.04a3 3 0 0 0-.21-.094c-.884-.346-2.049-.242-2.263.918-.117.629.27 1.026.735 1.422a.03.03 0 0 0 .011.011c.195.168.401.336.59.521q.127.123.238.259m-1.1 5.451c.002-.281.01-.716.029-1.375.03-1.039-.888-2.535-2.086-3.196l-.056-.03c-.722-.361-1.802-.344-1.989.663-.151.814.755 1.056 1.267 1.69 0 0 .797.608 1.069 1.949.057.276.091.584.091.924 0 4.089 1.751 5.644 3.419 6.197m4.78-5.675c0-.837-.665-1.519-1.496-1.547q-.027-.003-.054-.002c-.822 0-1.496.642-1.542 1.451q-.009.047-.007.098" class="st1"/><path d="M189.248 35.067q.001-.05-.004-.098a1.546 1.546 0 0 0-1.545-1.452 1.55 1.55 0 0 0-1.55 1.549m-.002.001a1.55 1.55 0 0 0-1.549-1.549c-.212 0-.363.023-.548.102m6.405-17.026.206.206 4.463 4.463 3.88-4.669" class="st1"/><path d="M198.254 27.358c.074-.113 3.451-5.925 3.451-5.925l-.042-.076-2.659-4.762h-8.137m-.189 4.761h11.027" class="st1"/><path d="m195.124 21.263-.032.094-1.375 3.976m-10.651 2.025c-.074-.113-3.449-5.925-3.449-5.925l.042-.076 2.657-4.762m0-.001h8.551l-.206.206-4.463 4.463zm8.326 4.762h-11.025m6.581-.093.032.094 1.373 3.976m42.155 101.512 2.306 3.143.078.108" class="st1"/><path d="M221.63 126.4c-.974-.614-2.755-2.046-3.184-4.52-.144-.822-.21-1.521-.268-2.127-.157-1.696-.227-2.694-1.608-3.799l-.189-.111a2.35 2.35 0 0 1-.655-1.632 2.366 2.366 0 0 1 2.363-2.363c.633 0 1.209.249 1.632.657q.033.029.066.061.118.11.232.226c.38.397.716.862.984 1.428.378.803.616 1.808.644 3.109q.012.543.07 1.06c.556 4.951 4.282 8.141 9.329 8.141h35.62c5.047 0 8.772-3.19 9.329-8.141q.058-.517.07-1.06c.028-1.301.266-2.306.644-3.109a5.4 5.4 0 0 1 .984-1.428q.115-.116.232-.226.032-.032.066-.061a2.34 2.34 0 0 1 1.632-.657 2.364 2.364 0 0 1 1.708 3.995l-.189.111c-1.381 1.105-1.451 2.103-1.611 3.799a26 26 0 0 1-.265 2.127c-.43 2.474-2.21 3.906-3.184 4.52l.034.056h4.724c3.677-1.8 2.276-7.827 2.276-7.827l-.051-.066a5.54 5.54 0 0 0 2.108-4.352s1.728 3.897 1.292 8.118c-.699 6.8-6.598 13.201-17.699 15.902-12.045 2.93-17.201-.3-19.902 7.699h-.017c-2.701-7.999-7.856-4.769-19.901-7.699-11.101-2.701-17-9.102-17.702-15.902-.433-4.221 1.295-8.118 1.295-8.118 0 1.764.824 3.336 2.108 4.352l-.051.066s-1.401 6.027 2.276 7.827h4.724z" class="st15"/><path d="M280.165 108.686a5.553 5.553 0 0 1 5.008 5.525 5.54 5.54 0 0 1-2.108 4.352 5.5 5.5 0 0 1-3.442 1.199l-.092-.009c.16-1.696.23-2.694 1.611-3.799l.189-.111a2.363 2.363 0 0 0-1.708-3.995l.709-.089-.18-2.89z" class="st11"/><path d="m277.6 111.3-2.008-.595-.253-.024q.39-.475.875-.85a5.5 5.5 0 0 1 2.431-1.083 5.4 5.4 0 0 1 1.52-.062l-.013.183.181 2.89-.71.089c-.634 0-1.209.249-1.632.657q-.034.029-.066.061-.117.11-.232.226z" class="st10"/><path d="m249.827 57.026-1.889-3.785s-.006-.045-.006-.117c.004-.227.089-.746.737-1.116 1.156-.661 1.798.278 1.985.627.04.072.059.119.059.119l1.683 3.372 26.239 52.567.01.053c-.905.16-1.736.54-2.431 1.084l-.085-.108zM277.6 111.3l.093 1.492c-.38.397-.716.862-.984 1.428l-.193-.09c-.225-.076-2.35-.501-2.35-.501l-.064-.009a5.53 5.53 0 0 1 1.237-2.939l.252.024z" class="st10"/><path d="M276.709 114.22c-.378.803-.616 1.808-.644 3.109q-.012.543-.07 1.06l-.078-.008c-1.316-1.016-1.845-2.381-1.845-4.17q0-.3.03-.591l.064.009s2.125.425 2.35.501z" class="st11"/><path d="M260.722 41.627c-.86-.013-1.77-.06-2.767-.136l-.252.006c-.113-3.105-1.72-5.043-3.63-6.252l.019-.03s4.123.623 9.034-.31c1.657-.317 3.406-.81 5.115-1.564 6.77-2.988 7.006 4.233 2.116 6.282-3.742 1.568-6.3 2.055-9.635 2.004" class="st13"/><path d="M248.588 50.225q-.014.053-.032.106c-.291.882-.948 1.677-1.732 2.333a9.6 9.6 0 0 1-2.074 1.313q-.888.314-1.696.521c-3.383.873-5.622.465-5.622.465-3.163-.499-5.111-2.029-6.31-3.687-4.207 8.396-5.068 11.907-11.603 18.643a30 30 0 0 1-5.637 4.673h-.071v-5.859c0-.969-.397-1.851-1.037-2.491a3.5 3.5 0 0 0-2.488-1.035l1.243-.168c7.079-6.343 9.197-14.805 10.351-17.759 1.097-2.812 2.988-16.11 13.567-19.138 10.483-3.003 16.637 2.274 22.103.767 7.556-2.085 7.669-5.385 9.832-5.684 2.164-.298 5.725 3.409 2.257 7.07-3.466 3.662-6.528 4.522-6.528 4.522l.015.087c-4.911.933-9.034.31-9.034.31l-.019.03c1.91 1.209 3.517 3.147 3.63 6.252q.026.628-.037 1.322c-.123 1.832-.505 3.222-1.028 4.286a7 7 0 0 1-.525.91l-.091.021a7.45 7.45 0 0 0-2.895-4.446 7.4 7.4 0 0 0-2.021-1.048q-.014-.148-.038-.308c-.393-2.556-2.724-4.127-6.77-3.079-3.248.841-5.447 2.206-4.79 5.121.361 1.058.784 1.575 2.609 2.038q.25.066.534.127c1.717.378 3.077-.463 4.32.081.408.176.801.504 1.192 1.067.589.92.667 1.815.425 2.635Z" class="st13"/><path d="M264.705 42.343c7.282.627 3.908 6.885-1.297 6.339-2.796-.293-4.828-.767-6.77-1.577.523-1.065.905-2.455 1.028-4.286q.063-.694.037-1.322l.252-.006c.997.076 1.907.123 2.767.136a22.7 22.7 0 0 0 3.983.716" class="st13"/><path d="M251.106 42.543a7.4 7.4 0 0 1 2.021 1.048 7.45 7.45 0 0 1 2.895 4.446 7.46 7.46 0 0 1-1.271 6.007 7.4 7.4 0 0 1-2.195 2.004l-.16.079-1.683-3.372s-.019-.047-.059-.119l.055-.017c.34-.227.648-.518.903-.867a3.59 3.59 0 0 0-.778-5.024c-1.202-.878-2.637-.978-3.84-.259l-.023.055c-1.243-.544-2.603.298-4.32-.081q-.284-.062-.534-.128l.107-.408q.201-.355.45-.695a7.48 7.48 0 0 1 8.432-2.669" class="st11"/><path d="M250.834 46.728a3.595 3.595 0 0 1 1.288 4.038l-.068-.023c-1.411.363-2.643.181-3.466-.516.242-.82.164-1.715-.425-2.635-.391-.563-.784-.89-1.192-1.067l.023-.055c1.203-.718 2.638-.618 3.84.259Z" class="st13"/><path d="M245.248 56.258a7.4 7.4 0 0 1-2.185-1.724l-.009-.036q.808-.206 1.696-.521a9.6 9.6 0 0 0 2.074-1.313l.043.049c.316.189.654.325.999.408h.065c0 .074.007.119.007.119l1.889 3.785c-.657.1-1.328.111-1.995.034a7.4 7.4 0 0 1-2.584-.801" class="st11"/><path d="m247.832 57.06-.013.096-26.238 52.568-.085.108a5.44 5.44 0 0 0-2.429-1.083l.011-.054 26.17-52.436a7.4 7.4 0 0 0 2.584.801" class="st10"/><path d="M223.608 113.62q.032.291.032.591c0 1.789-.529 3.154-1.845 4.17l-.078.008a12 12 0 0 1-.07-1.06c-.028-1.301-.266-2.306-.644-3.109l.193-.09c.225-.076 2.35-.501 2.35-.501z" class="st11"/><path d="m223.608 113.62-.062.009s-2.125.425-2.35.501l-.193.09a5.4 5.4 0 0 0-.984-1.428l.093-1.492 2.008-.595.077-.226a5.52 5.52 0 0 1 1.411 3.141" class="st10"/><path d="M221.496 109.831c.253.194.486.413.701.648l-.077.226-2.008.595.124-1.96.014-.244c.449.189.867.438 1.246.735" class="st5"/><path d="m220.112 111.3-.093 1.492q-.114-.116-.232-.226-.033-.032-.066-.061a2.34 2.34 0 0 0-1.632-.657q-.367 0-.703.106l-.007-.195.181-2.89-.013-.183q.268-.026.542-.026.502 0 .978.088c.412.072.807.191 1.183.348l-.015.244z" class="st10"/><path d="m218.178 119.753-.089.009c-1.3 0-2.497-.446-3.442-1.199a5.54 5.54 0 0 1-2.108-4.352 5.553 5.553 0 0 1 5.008-5.525l.013.183-.181 2.89.007.195a2.37 2.37 0 0 0-1.66 2.257c0 .633.249 1.207.655 1.632l.189.111c1.381 1.105 1.451 2.103 1.608 3.799" class="st11"/><path d="M213.811 74.593v8.84c0 1.428-.588 2.935-2.367 3.171.548-.62.88-1.432.88-2.321V69.371c0-.969-.398-1.851-1.037-2.491a3.5 3.5 0 0 0-2.489-1.035q-.408.001-.79.104c.724-.652 1.566-.742 2.278-.742.969 0 1.851.397 2.488 1.035a3.52 3.52 0 0 1 1.037 2.491v5.859Z" class="st5"/><path d="M208.008 65.951q.382-.103.79-.104c.969 0 1.851.397 2.489 1.035a3.52 3.52 0 0 1 1.037 2.491v14.912c0 .888-.332 1.7-.88 2.321a3.505 3.505 0 0 1-5.134.17 3.5 3.5 0 0 1-1.037-2.491v-5.946a30 30 0 0 0 1.511-.444l.028.089v5.889c0 .546.223 1.043.584 1.403.359.361.856.584 1.402.584.649 0 1.229-.314 1.592-.801.249-.331.395-.742.395-1.186V69.361a1.994 1.994 0 0 0-1.987-1.989h-.257q-.474.322-.975.627c-.759.465-1.507.854-2.244 1.175l-.019-.045c.191-1.464 1.287-2.805 2.705-3.177Z" class="st5"/><path d="M205.273 78.338a29.8 29.8 0 0 1-12.345.616l-.14.206c-3.126 6.159-9.435 12.659-18.575 15.237h-.14v-7.599c0-.606-.155-1.177-.427-1.677l.201-.066q.726-.25 1.456-.548c14.629-5.988 8.254-23.784 8.254-23.784l.006-.004c.882 1.243 9.99 13.571 21.759 8.454.737-.321 1.485-.71 2.244-1.175q.5-.305.975-.627h.257c1.093 0 1.987.895 1.987 1.989v6.975h-.119a30 30 0 0 1-5.393 2.004Z" class="st13"/><path d="m210.286 85.008.104.049a1.98 1.98 0 0 1-1.592.801 1.97 1.97 0 0 1-1.402-.584 1.97 1.97 0 0 1-.584-1.403v-5.888l-.028-.089q.727-.235 1.456-.512l.059.153v5.487c0 1.092.895 1.987 1.987 1.987Z" class="st5"/><path d="m167.5 180.082.034.055h4.726c3.674-1.8 2.274-7.824 2.274-7.824l-.051-.066a5.54 5.54 0 0 0 2.108-4.355s1.728 3.9 1.294 8.12c-.701 6.801-6.6 13.201-17.702 15.9-12.045 2.931-17.2-.3-19.899 7.701h-.019c-2.701-8.001-7.854-4.77-19.901-7.701-11.099-2.699-17.001-9.099-17.7-15.9-.436-4.22 1.294-8.12 1.294-8.12 0 1.766.825 3.339 2.108 4.353l-.053.068s-1.4 6.024 2.276 7.824h4.724l.034-.055c-.973-.614-2.754-2.044-3.183-4.52a25 25 0 0 1-.266-2.127c-.159-1.694-.229-2.693-1.608-3.798l-.19-.112a2.35 2.35 0 0 1-.654-1.633 2.36 2.36 0 0 1 2.361-2.361c.633 0 1.209.247 1.632.655q.033.029.066.062a5.5 5.5 0 0 1 1.215 1.653c.379.803.617 1.808.644 3.111q.013.543.07 1.06c.557 4.95 4.282 8.139 9.329 8.139h35.621c5.047 0 8.772-3.189 9.331-8.139q.058-.517.07-1.06c.026-1.303.264-2.308.644-3.111a5.3 5.3 0 0 1 1.215-1.653q.001-.002.003-.002a2.362 2.362 0 0 1 3.402 3.279l-.189.112c-1.379 1.105-1.45 2.104-1.607 3.798a25 25 0 0 1-.268 2.127c-.431 2.476-2.214 3.908-3.185 4.52" class="st15"/><path d="M171.582 162.369a5.553 5.553 0 0 1 2.901 9.878 5.52 5.52 0 0 1-3.443 1.196l-.087-.008c.157-1.694.228-2.693 1.607-3.798l.189-.113a2.362 2.362 0 0 0-1.709-3.993l.712-.089-.183-2.892z" class="st11"/><path d="M174.073 94.397v7.1c0 1.436-.831 3.039-2.631 3.262l-.017-.017a3.52 3.52 0 0 0 1.16-2.608V87.435c0-.969-.397-1.851-1.037-2.491a3.5 3.5 0 0 0-3.015-.995l-.007-.038a3.515 3.515 0 0 1 4.51.395 3.5 3.5 0 0 1 1.037 2.491z" class="st5"/><path d="m169.948 86.071-.006.013a28 28 0 0 1-4.282.512v-.085a3.54 3.54 0 0 1 3.4-2.601c.969 0 1.851.397 2.488 1.035a3.52 3.52 0 0 1 1.037 2.491v14.699a3.52 3.52 0 0 1-1.16 2.608 3.507 3.507 0 0 1-4.854-.117 3.52 3.52 0 0 1-1.037-2.491v-6.403q.341-.02.697-.047h.842v6.037c0 .546.223 1.044.584 1.403a1.976 1.976 0 0 0 2.858-.053 1.98 1.98 0 0 0 .532-1.35V87.848c0-.776-.449-1.449-1.099-1.777" class="st5"/><path d="m169.017 164.983-2.008-.597-.251-.023q.39-.474.876-.85a5.5 5.5 0 0 1 2.429-1.082 5.5 5.5 0 0 1 1.519-.062l-.013.181.183 2.892-.712.089c-.663 0-1.264.272-1.693.714l-.002.003a7 7 0 0 0-.234.229z" class="st10"/><path d="M147.903 93.651c.629 1.949.711 4.422-.751 7.268l-.031.01a7.48 7.48 0 0 0-7.066-5.025c-.969 0-1.894.185-2.744.519l-.01-.136c-1.448-1.908-4.365-1.282-6.962.841-3.234 2.648-3.343 5.457-1.511 7.282 1.332 1.328 2.688 1.214 3.976.784.952-.316 1.868-.803 2.714-1.003.788-.187 1.515-.125 2.152.555.406.431.64.899.723 1.377.195 1.099-.385 2.265-1.447 3.26q-.394.37-.869.701c-1.008.701-3.464 1.989-6.582 1.552-1.273-.177-2.652-.642-4.091-1.552a11 11 0 0 1-1.085-.746c-2.44-1.925-3.058-4.369-2.908-6.628h-.034s-1.931 3.694-5.582 7.106l-.062-.063s-2.503 1.965-7.505 2.601c-5.003.637-5.893-4.425-4.374-5.995s4.25.289 10.392-4.582c4.445-3.521 3.818-11.605 12.429-18.294 8.69-6.749 20.539-.425 23.457.349 2.539.674 8.326 3.079 15.528 2.765a28.4 28.4 0 0 0 4.282-.512l.006-.013a1.99 1.99 0 0 1 1.099 1.777v7.268h-.051a31 31 0 0 1-1.197.176 55 55 0 0 1-1.256.161q-1.22.149-2.312.232-.356.026-.699.047c-6.328.385-9.939-.786-17.629-2.08Z" class="st13"/><path d="M170.515 103.071c-.363.392-.882.638-1.455.638s-1.044-.223-1.403-.584a1.98 1.98 0 0 1-.584-1.403v-6.037h-.842a50 50 0 0 0 2.312-.232l.017.145v5.487c0 1.081.878 1.969 1.955 1.986" class="st5"/><path d="m170.052 162.378.011.053a5.5 5.5 0 0 0-2.429 1.082l-.085-.109-26.238-52.568-.013-.074a7.4 7.4 0 0 0 2.529-.916l.038.064zm-1.035 2.605.094 1.494a5.3 5.3 0 0 0-.982 1.424l-.196-.089c-.223-.075-2.348-.5-2.348-.5l-.064-.008a5.53 5.53 0 0 1 1.237-2.941l.251.023z" class="st10"/><path d="M168.129 167.901c-.381.803-.619 1.808-.644 3.111a13 13 0 0 1-.07 1.06l-.081-.01c-1.315-1.016-1.844-2.38-1.844-4.17q0-.299.031-.588l.064.008s2.125.425 2.348.5zm-21.008-66.972a7.475 7.475 0 0 1-7.876 9.893l1.947-3.9s.031-.083.059-.212l.121.019a3.595 3.595 0 1 0-3.328-6.325c-.954.646-2.968 1.284-2.577 3.309l.051.478c-.846.2-1.762.687-2.714 1.003l-.034-.104a7.49 7.49 0 0 1 4.541-8.668 7.5 7.5 0 0 1 2.744-.518 7.48 7.48 0 0 1 7.066 5.025" class="st11"/><path d="M143.648 103.386a3.59 3.59 0 0 1-2.276 3.343l-.121-.019c.075-.36.098-1.074-.786-1.35-1.201-.376-2 .75-2 .75l-.072.013c-.083-.478-.317-.946-.723-1.377-.637-.68-1.364-.742-2.152-.555l-.051-.478c-.391-2.025 1.623-2.662 2.577-3.308a3.595 3.595 0 0 1 5.604 2.981" class="st13"/><path d="M139.245 110.822 113 163.404l-.085.111a5.5 5.5 0 0 0-2.431-1.084l.011-.053 26.451-52.995c1.062-.995 1.642-2.161 1.447-3.26l.072-.013s.799-1.126 2-.75c.884.276.86.99.786 1.35-.028.129-.059.212-.059.212z" class="st10"/><path d="m129.495 111.635-.019.13c-.493 2.053-1.311 3.976-2.728 6.414-2.633 4.522-9.676 3.551-5.883-2.695a22.7 22.7 0 0 0 1.773-3.64c.499-.702.996-1.464 1.523-2.312l.158-.194q.49.387 1.086.746c1.438.91 2.817 1.375 4.09 1.551" class="st13"/><path d="M122.638 111.844c-1.926 2.724-3.83 4.501-7.306 6.594-4.54 2.737-10.228-1.715-3.819-5.415 1.617-.935 3.047-2.055 4.282-3.207 3.651-3.412 5.582-7.108 5.582-7.108h.034c-.151 2.261.468 4.705 2.907 6.63l-.157.194a44 44 0 0 1-1.523 2.312" class="st13"/><path d="M115.028 167.304q.03.29.03.588c0 1.79-.53 3.154-1.843 4.17l-.081.01a13 13 0 0 1-.07-1.06c-.027-1.303-.265-2.308-.644-3.111l.194-.089c.225-.075 2.35-.5 2.35-.5z" class="st11"/><path d="m115.028 167.304-.064.008s-2.125.425-2.35.5l-.194.089a5.3 5.3 0 0 0-.984-1.426l.096-1.492 2.006-.597.079-.223a5.53 5.53 0 0 1 1.411 3.141" class="st10"/><path d="M112.915 163.515c.253.193.487.412.702.648l-.079.223-2.006.597.123-1.961.013-.242c.448.191.869.437 1.247.735" class="st5"/><path d="m111.532 164.983-.096 1.492a6 6 0 0 0-.231-.227q-.033-.033-.066-.062a2.34 2.34 0 0 0-1.632-.655q-.367.001-.704.107l-.006-.196.183-2.892-.013-.181a5.7 5.7 0 0 1 1.517.062q.62.11 1.184.349l-.013.242z" class="st10"/><path d="m109.598 173.435-.091.008a5.5 5.5 0 0 1-3.441-1.198 5.551 5.551 0 0 1 2.901-9.876l.013.181-.183 2.892.006.196a2.36 2.36 0 0 0-1.657 2.254c0 .634.248 1.21.654 1.632l.19.113c1.379 1.105 1.449 2.104 1.608 3.798" class="st11"/><path d="M169.942 86.084a28 28 0 0 1-4.282.512c-7.202.315-12.989-2.091-15.528-2.765-2.918-.773-14.767-7.098-23.457-.349-8.611 6.69-7.984 14.774-12.429 18.294-6.142 4.871-8.872 3.012-10.392 4.582s-.629 6.632 4.374 5.995c5.002-.636 7.505-2.601 7.505-2.601m67.824-49.029s6.375 17.795-8.254 23.784q-.73.3-1.456.548" class="st1"/><path d="M121.377 102.708s-1.931 3.696-5.582 7.108c-1.235 1.152-2.665 2.272-4.282 3.207-6.409 3.7-.721 8.152 3.819 5.415 3.476-2.093 5.38-3.87 7.306-6.594.499-.701.996-1.464 1.523-2.312" class="st1"/><path d="M122.67 111.765q-.015.04-.032.079a22.7 22.7 0 0 1-1.773 3.64c-3.793 6.246 3.25 7.217 5.883 2.695 1.417-2.438 2.235-4.361 2.728-6.414m-5.759-15.604s-2.074 3.052-2.306 6.549c-.15 2.259.468 4.703 2.908 6.628q.49.387 1.085.746c1.439.91 2.818 1.375 4.091 1.551 3.118.438 5.574-.85 6.582-1.551q.475-.332.869-.701c1.062-.995 1.642-2.161 1.447-3.26-.083-.478-.317-.946-.723-1.377-.637-.68-1.364-.742-2.152-.555-.846.2-1.762.687-2.714 1.003-1.288.43-2.644.544-3.976-.784-1.832-1.825-1.724-4.635 1.511-7.282 2.597-2.123 5.514-2.75 6.962-.841" class="st1"/><path d="M132.77 105.09a7.49 7.49 0 0 1 4.541-8.668 7.5 7.5 0 0 1 2.744-.518 7.48 7.48 0 0 1 7.48 7.482 7.475 7.475 0 0 1-8.29 7.436l-.068-.007" class="st1"/><path d="M135.467 103.713c-.391-2.025 1.623-2.662 2.577-3.308m0 0a3.595 3.595 0 1 1 3.328 6.324m3.383-17.764s2.198 1.743 3.148 4.686c.629 1.949.711 4.422-.751 7.268m27.061-6.522c9.14-2.578 15.449-9.078 18.575-15.237" class="st1"/><path d="m147.892 93.649.01.002c7.691 1.294 11.302 2.465 17.63 2.08q.344-.02.699-.047a50 50 0 0 0 2.312-.232q.61-.072 1.256-.161.605-.078 1.197-.176m40.533-30.074c7.079-6.343 9.198-14.805 10.352-17.759 1.096-2.812 2.987-16.11 13.566-19.138 10.483-3.003 16.637 2.274 22.103.767 7.556-2.085 7.669-5.385 9.832-5.684 2.164-.298 5.725 3.409 2.257 7.07-3.466 3.662-6.528 4.522-6.528 4.522m-79.616 25.8.068.1c.882 1.243 9.99 13.571 21.759 8.454.737-.321 1.485-.71 2.244-1.175q.501-.305.975-.627" class="st1"/><path d="M254.092 35.216s4.123.623 9.034-.31c1.657-.317 3.406-.81 5.115-1.564 6.77-2.988 7.006 4.233 2.116 6.282-3.742 1.568-6.301 2.055-9.635 2.004-.86-.013-1.77-.06-2.767-.136" class="st1"/><path d="M260.64 41.606q.041.013.082.021a22.7 22.7 0 0 0 3.983.716c7.282.627 3.908 6.885-1.296 6.339-2.797-.293-4.829-.767-6.771-1.577l-.017-.006m-4.065 8.949a7.4 7.4 0 0 0 2.195-2.004 7.47 7.47 0 0 0 1.271-6.007 7.45 7.45 0 0 0-2.895-4.446 7.476 7.476 0 0 0-11.035 2.554m.971 8.39a7.5 7.5 0 0 0 2.185 1.724 7.4 7.4 0 0 0 2.584.801 7.6 7.6 0 0 0 1.995-.034q.016.001.032-.004" class="st1"/><path d="M250.709 52.618c.34-.227.648-.518.903-.867a3.59 3.59 0 0 0-.778-5.024c-1.202-.878-2.637-.978-3.84-.259m-.127 6.246c.317.189.654.325.999.408m8.247-5.107q.281-.407.525-.91c.523-1.065.905-2.455 1.028-4.286q.063-.694.037-1.322c-.113-3.105-1.72-5.043-3.63-6.252-2.958-1.879-6.647-2.006-6.647-2.006" class="st1"/><path d="M248.586 50.223h.002c.823.699 2.055.882 3.466.519m-3.795-4.622c-.268.185-.487.41-.61.729" class="st1"/><path d="M248.556 50.332q.018-.053.032-.106c.242-.82.164-1.715-.425-2.635-.391-.563-.784-.89-1.192-1.067-1.243-.544-2.603.298-4.32-.081a14 14 0 0 1-.534-.127c-1.825-.463-2.248-.98-2.609-2.038-.657-2.916 1.543-4.28 4.79-5.121 4.046-1.048 6.377.523 6.77 3.079q.024.16.038.308.004.016.005.032m-21.912 3.397s.109 2.801 1.923 5.304c1.199 1.658 3.148 3.188 6.31 3.687 0 0 2.24.408 5.623-.465.537-.138 1.105-.31 1.695-.521a9.6 9.6 0 0 0 2.075-1.313c.784-.657 1.44-1.451 1.731-2.333m-37.89 26.002a30 30 0 0 1-3.882 1.56q-.755.245-1.511.444a29.8 29.8 0 0 1-12.345.616" class="st1"/><path d="m231.127 51.269-.005.008c-4.207 8.396-5.068 11.907-11.603 18.643a30 30 0 0 1-5.637 4.673m-48.225 11.918a3.55 3.55 0 0 1 3.403-2.601c.969 0 1.851.397 2.488 1.035a3.52 3.52 0 0 1 1.037 2.491v14.699a3.52 3.52 0 0 1-1.16 2.608 3.507 3.507 0 0 1-4.854-.117 3.52 3.52 0 0 1-1.037-2.491V95.76" class="st1"/><path d="M169.831 86.016q.06.026.117.055a1.99 1.99 0 0 1 1.099 1.776v13.875c0 .519-.202.995-.532 1.349-.363.391-.882.638-1.455.638s-1.044-.223-1.403-.584a1.98 1.98 0 0 1-.584-1.403v-6.037m.544-9.376c.361-.378.882-.451 1.443-.451.274 0 .533.057.771.157" class="st1"/><path d="M168.526 83.912a3.515 3.515 0 0 1 4.51.395 3.5 3.5 0 0 1 1.037 2.491v14.699c0 1.436-.831 3.039-2.631 3.262m-.895-1.687h-.032a1.995 1.995 0 0 1-1.955-1.987v-5.487m36.743-26.47c.191-1.464 1.287-2.805 2.705-3.177q.382-.103.79-.104c.969 0 1.851.397 2.489 1.035a3.52 3.52 0 0 1 1.037 2.491v14.912c0 .888-.332 1.7-.88 2.321a3.505 3.505 0 0 1-5.134.17 3.5 3.5 0 0 1-1.037-2.491v-5.999" class="st1"/><path d="M208.798 67.37c1.093 0 1.987.895 1.987 1.989v14.512c0 .444-.146.854-.395 1.186a1.98 1.98 0 0 1-1.592.801 1.97 1.97 0 0 1-1.402-.584 1.97 1.97 0 0 1-.584-1.403v-5.889" class="st1"/><path d="M207.891 66.059q.057-.058.117-.108c.725-.652 1.566-.742 2.278-.742.969 0 1.851.397 2.489 1.035a3.52 3.52 0 0 1 1.037 2.491v14.699c0 1.428-.589 2.935-2.368 3.171l-.027.004m-1.131-1.601a1.994 1.994 0 0 1-1.987-1.987v-5.487m-99.502 87.908.183-2.892m2.675.472-.123 1.961-.096 1.492-.002.04m1.566-3.111 26.245-52.582 1.947-3.9s.032-.083.059-.212c.075-.36.098-1.074-.786-1.35-1.201-.376-2 .75-2 .75m-27.97 56.268 26.451-52.995.053-.106" class="st1"/><path d="M109.507 173.443a5.5 5.5 0 0 1-3.441-1.198 5.551 5.551 0 0 1 5.602-9.465c.448.191.869.437 1.247.735a5.53 5.53 0 0 1 2.142 4.377c0 1.79-.529 3.154-1.842 4.17m-2.01-5.814.081.089" class="st1"/><path d="M107.8 169.525a2.35 2.35 0 0 1-.654-1.633 2.36 2.36 0 0 1 2.361-2.361c.633 0 1.209.247 1.632.655m1.963 13.93-.055-.034c-.973-.614-2.754-2.045-3.183-4.52a25 25 0 0 1-.266-2.127c-.159-1.694-.229-2.693-1.608-3.798" class="st1"/><path d="M106.013 172.312s-1.4 6.025 2.276 7.825h4.724" class="st1"/><path d="M103.958 167.892s-1.73 3.9-1.294 8.12c.699 6.8 6.601 13.201 17.7 15.9 12.047 2.93 17.2-.3 19.901 7.701m-28.75-34.626.017-.004 2.006-.597m-.924 3.426c.225-.075 2.35-.5 2.35-.5m56.788-1.87-.183-2.892m-2.675.472.123 1.961.094 1.494.002.038m-27.802-55.679 26.238 52.568m2.503-1.026-26.187-52.468" class="st1"/><path d="M171.04 173.443a5.52 5.52 0 0 0 3.443-1.196 5.553 5.553 0 0 0-4.42-9.816 5.5 5.5 0 0 0-2.429 1.082q-.486.376-.876.85a5.53 5.53 0 0 0-1.268 3.529c0 1.79.529 3.154 1.844 4.17" class="st1"/><path d="M169.344 166.248q-.041.044-.08.089m3.485 3.188a2.362 2.362 0 0 0-3.402-3.279m-1.9 13.87q.026-.015.053-.034c.971-.612 2.754-2.045 3.185-4.52.145-.825.213-1.522.268-2.127.157-1.694.228-2.693 1.607-3.798" class="st1"/><path d="m169.41 166.186-.063.059-.002.003q-.12.11-.234.229a5.3 5.3 0 0 0-.982 1.424c-.38.803-.618 1.808-.644 3.111q-.013.543-.07 1.06c-.559 4.95-4.284 8.139-9.331 8.139h-35.621c-5.047 0-8.772-3.189-9.329-8.139a13 13 0 0 1-.07-1.06c-.027-1.303-.265-2.308-.644-3.111a5.3 5.3 0 0 0-1.215-1.653q-.033-.033-.066-.062m63.395 6.126s1.4 6.025-2.274 7.825h-4.726" class="st1"/><path d="M176.591 167.892s1.728 3.9 1.294 8.12c-.701 6.8-6.6 13.201-17.702 15.9-12.045 2.93-17.2-.3-19.899 7.701m28.75-34.626-.017-.004-2.008-.597m.924 3.426c-.223-.075-2.348-.5-2.348-.5m114.747-55.553-.18-2.89m-2.676.471.124 1.96.093 1.492.002.04m-1.566-3.109-26.302-52.697-1.889-3.785s-.006-.045-.006-.117c.004-.227.089-.746.737-1.116 1.156-.661 1.798.278 1.985.627.04.072.059.119.059.119l1.683 3.372 26.239 52.567" class="st1"/><path d="M279.623 119.762c1.3 0 2.497-.447 3.442-1.199a5.54 5.54 0 0 0 2.108-4.352 5.553 5.553 0 0 0-5.55-5.551q-.502 0-.978.088a5.5 5.5 0 0 0-2.431 1.083 5.53 5.53 0 0 0-2.142 4.38c0 1.789.529 3.154 1.845 4.169" class="st1"/><path d="M277.925 112.566q-.043.045-.081.09m3.487 3.187a2.363 2.363 0 0 0-3.34-3.338m-1.964 13.929.055-.034c.974-.614 2.754-2.046 3.184-4.52.142-.822.21-1.521.265-2.127.16-1.696.23-2.694 1.611-3.799" class="st1"/><path d="M283.116 118.629s1.401 6.027-2.276 7.827h-4.724" class="st1"/><path d="M285.173 114.211s1.728 3.897 1.292 8.118c-.699 6.8-6.598 13.201-17.699 15.902-12.045 2.93-17.201-.3-19.901 7.699m28.752-34.626-.017-.004-2.008-.595m.924 3.425c-.225-.076-2.35-.501-2.35-.501m-56.787-1.87.181-2.89m2.675.471-.123 1.96-.093 1.492-.002.04m27.802-55.677-26.238 52.568m-2.504-1.029 26.171-52.436.017-.032" class="st1"/><path d="M218.089 119.762c-1.3 0-2.497-.447-3.442-1.199a5.54 5.54 0 0 1-2.108-4.352 5.553 5.553 0 0 1 5.55-5.551q.502 0 .978.088a5.45 5.45 0 0 1 2.429 1.083 5.52 5.52 0 0 1 2.144 4.38c0 1.789-.529 3.154-1.845 4.169m-2.008-5.814.081.09" class="st1"/><path d="M216.381 115.843a2.35 2.35 0 0 1-.655-1.632 2.366 2.366 0 0 1 2.363-2.363c.633 0 1.209.249 1.632.657m1.964 13.929-.055-.034c-.974-.614-2.754-2.046-3.184-4.52-.144-.822-.21-1.521-.268-2.127-.157-1.696-.227-2.694-1.608-3.799m3.151-3.449q.033.029.066.061.118.11.232.226c.38.397.716.862.984 1.428.378.803.616 1.808.644 3.109q.012.543.07 1.06c.556 4.951 4.282 8.141 9.329 8.141h35.62c5.047 0 8.772-3.19 9.329-8.141q.058-.517.07-1.06c.028-1.301.266-2.306.644-3.109a5.4 5.4 0 0 1 .984-1.428q.115-.116.232-.226.032-.032.066-.061" class="st1"/><path d="M214.596 118.629s-1.401 6.027 2.276 7.827h4.724" class="st1"/><path d="M212.539 114.211s-1.728 3.897-1.295 8.118c.702 6.8 6.601 13.201 17.702 15.902 12.045 2.93 17.2-.3 19.901 7.699m-28.752-34.626.017-.004 2.008-.595m-.924 3.425c.225-.076 2.35-.501 2.35-.501" class="st1"/><path d="M193.247 83.064c-.527 1.796 3.271-.688 5.077-.2 1.039.281 2.076.491 3.122.642V64.71c-1.039.07-2.079-1.602-3.12-1.594-1.156.008-2.325 1.343-3.481 1.22v11.248c0 2.185-1.727 3.753-1.727 3.753-.015-.208 1.202.079.131 3.729z" class="st16"/><path d="M201.446 63.809v20.507m-6.601-20.958v12.223a3.98 3.98 0 0 1-1.615 3.192" class="st1"/><path d="M251.888 116.001s1.789 4.834 1.522 6.267-.089 3.223-2.688 3.223-3.761-1.972-3.851-2.688-1.255-6-2.955-6.717-4.656-2.955-4.656-2.955-.895.449-2.239-.089c-1.344-.539-3.044-2.061-3.044-4.3s.449-6.539 1.522-7.166 3.672-.45 3.672-.45 4.389-6.267 11.733-5.732 9.85 3.672 9.761 4.121-1.522 3.223-1.522 3.223 2.777 2.15 2.506 3.583-2.239 3.223-2.239 3.223 2.061.627 1.701 2.238c-.357 1.612-1.256 4.567-4.567 4.389s-4.656-.178-4.656-.178z" class="st7"/><path d="M239.147 101.531c-.482-.425-1.029-.664-1.608-.664-1.967 0-3.558 2.766-3.558 6.179s1.595 6.178 3.558 6.178c.596 0 1.154-.251 1.648-.701" class="st2"/><path d="M238.904 109.151s-.267 3.223 1.433 4.567 5.017 1.971 5.733 5.822c.717 3.85 1.79 6.089 3.94 6.267s3.494-1.073 3.494-4.3-2.239-5.911-2.239-5.911m-12.45-10.385s-1.883-9.133 12.538-9.672c9.134-.089 10.927 4.3 7.523 7.166" class="st2"/><path d="M253.682 102.701s7.7-1.166 7.7 3.583-7.882 3.134-7.882 3.134" class="st2"/><path d="M257.871 109.58s3.462-.518 3.417 2.348c0 1.523-1.7 5.911-10.028 3.672" class="st2"/><path d="M140.7 180.322c8.078 0 14.627-6.549 14.627-14.628s-6.549-14.627-14.627-14.627-14.627 6.549-14.627 14.627 6.549 14.628 14.627 14.628" class="st10"/><path d="M140.652 176.432c6.038 0 10.933-4.895 10.933-10.933s-4.895-10.934-10.933-10.934-10.934 4.895-10.934 10.934 4.895 10.933 10.934 10.933" class="st7"/><path d="m133.165 152.805-2.715-2.568s-3.739 1.026-3.887 3.963l2.129 2.273s2.86-3.302 4.476-3.668zm15.189.218s3.815 3.303 4.181 3.889l2.273-2.494s-.073-1.834-1.247-2.716c-1.173-.882-2.86-1.174-2.86-1.174z" class="st9"/><path d="M138.228 150.897s3.376-.366 4.624.074v-1.321l-.366-1.063s-.947-.258-2.055-.258c-2.129 0-2.177.796-2.203.881s0 1.687 0 1.687" class="st4"/><path d="M140.578 180.137c8.125 0 14.712-6.587 14.712-14.712s-6.587-14.712-14.712-14.712-14.712 6.587-14.712 14.712 6.587 14.712 14.712 14.712" class="st2"/><path d="M140.578 176.512c6.123 0 11.087-4.964 11.087-11.087s-4.964-11.087-11.087-11.087-11.087 4.964-11.087 11.087 4.964 11.087 11.087 11.087" class="st2"/><path d="M140.578 167.455a2.03 2.03 0 1 0 0-4.06 2.03 2.03 0 0 0 0 4.06" class="st4"/><path d="m144.433 169.156 2.441 2.44m-18.111-15.27-2.004-1.885a.93.93 0 0 1-.179-1.129 6.72 6.72 0 0 1 3.308-2.945.92.92 0 0 1 .981.19l2.075 1.953m-4.731-.842 2.653 2.48m-1.576-3.288 2.653 2.483m-4.855-.601 2.656 2.484m22.867 1.295 2.005-1.885a.93.93 0 0 0 .178-1.128 6.7 6.7 0 0 0-3.308-2.946.93.93 0 0 0-.981.19l-2.075 1.954m4.731-.843-2.653 2.481m1.579-3.288-2.656 2.483m4.856-.601-2.653 2.483m-13.429-4.623v-1.505c0-.573.465-1.038 1.038-1.038h2.619c.573 0 1.037.465 1.037 1.038v1.442" class="st2"/><path d="M141.482 158.676h-1.859v6.553h1.859z" class="st4"/><path d="m141.468 164.575-1.314 1.315 6.624 6.625 1.315-1.315z" class="st4"/></g></svg>