<?xml version="1.0" encoding="UTF-8"?>
<svg id="Layer_1" xmlns="http://www.w3.org/2000/svg" xmlns:xlink="http://www.w3.org/1999/xlink" version="1.1" viewBox="0 0 390 220">
  <!-- Generator: Adobe Illustrator 29.5.1, SVG Export Plug-In . SVG Version: 2.1.0 Build 141)  -->
  <defs>
    <style>
      .st0, .st1, .st2 {
        fill: none;
      }

      .st3 {
        fill: #bf3013;
      }

      .st4 {
        fill: #f25730;
      }

      .st5 {
        fill: #fff2b2;
      }

      .st6 {
        fill: #fee45e;
      }

      .st7 {
        fill: #fffaf0;
      }

      .st8 {
        fill: #f9b5fe;
      }

      .st9 {
        fill: #003c73;
      }

      .st10 {
        fill: #ffed8f;
      }

      .st11 {
        fill: #d18000;
      }

      .st12 {
        opacity: .3;
      }

      .st13 {
        fill: #fed607;
      }

      .st14 {
        fill: #780505;
      }

      .st15 {
        fill: #e4bc07;
      }

      .st16 {
        fill: #f68dfe;
      }

      .st1 {
        stroke-width: 1px;
      }

      .st1, .st2 {
        stroke: #002140;
        stroke-linecap: round;
        stroke-linejoin: round;
      }

      .st2 {
        stroke-width: 1px;
      }

      .st17 {
        fill: #e96df2;
      }

      .st18 {
        clip-path: url(#clippath);
      }
    </style>
    <clipPath id="clippath">
      <rect class="st0" width="390" height="220"/>
    </clipPath>
  </defs>
  <g class="st18">
    <g>
      <rect class="st14" width="390" height="220"/>
      <g class="st12">
        <path class="st3" d="M195.128-98c114.942,0,208.128,93.179,208.128,208.128s-93.186,208.128-208.128,208.128S-13,225.07-13,110.128,80.179-98,195.128-98ZM361.867,110.128c0-92.085-74.654-166.74-166.739-166.74S28.388,18.043,28.388,110.128s74.655,166.739,166.74,166.739,166.739-74.654,166.739-166.739Z"/>
        <path class="st3" d="M195.128-13.95c68.523,0,124.078,55.549,124.078,124.078s-55.555,124.078-124.078,124.078-124.078-55.555-124.078-124.078S126.599-13.95,195.128-13.95ZM275.382,110.128c0-44.325-35.93-80.255-80.254-80.255s-80.255,35.93-80.255,80.255,35.93,80.254,80.255,80.254,80.254-35.93,80.254-80.254Z"/>
        <path class="st14" d="M195.127-56.611c92.086,0,166.74,74.655,166.74,166.739s-74.654,166.74-166.74,166.74S28.388,202.213,28.388,110.128,103.042-56.611,195.127-56.611ZM319.206,110.128c0-68.529-55.556-124.078-124.079-124.078s-124.078,55.549-124.078,124.078,55.549,124.078,124.078,124.078,124.079-55.555,124.079-124.078Z"/>
        <path class="st14" d="M195.128,190.382c44.323,0,80.254-35.931,80.254-80.254S239.451,29.873,195.128,29.873s-80.255,35.931-80.255,80.255,35.931,80.254,80.255,80.254Z"/>
      </g>
      <path class="st13" d="M217.909,194.024c1.347,0,2.45,1.103,2.45,2.45,0,.674-.276,1.286-.721,1.73-.41.41-.96.676-1.572.714-.051-.004-.104-.006-.157-.006h-9.153c1.232-.125,2.202-1.175,2.202-2.438,0-.673-.277-1.285-.721-1.729s-1.056-.721-1.73-.721h9.402Z"/>
      <path class="st16" d="M218.066,198.918c1.275.081,2.293,1.15,2.293,2.444,0,.674-.276,1.286-.721,1.73-.444.444-1.056.72-1.729.72h-54.602c-1.347,0-2.45-1.103-2.45-2.45,0-.673.276-1.285.72-1.73.41-.41.963-.675,1.575-.714.051.005.102.007.155.007h54.602c.053,0,.106-.002.157-.007Z"/>
      <path class="st6" d="M208.507,194.024c.674,0,1.286.277,1.73.721s.72,1.056.72,1.73c0,1.262-.969,2.312-2.201,2.437h-11.399c1.233-.125,2.202-1.175,2.202-2.437-.062-.931-.351-1.318-.844-1.652-.491-.335-1.186-.616-2.057-1.336,0,0-4.35-3.075-4.35-9.875v-4.076c0-.111.004-.332.034-.591.078-.663.323-1.583,1.092-1.583,1.275,0,1.175,1.651,1.175,1.651l.09.015c-.181,1.101-.292,2.401-.292,3.984,0,10.3,15.001,11,15.001,11v.012h-.901Z"/>
      <path class="st7" d="M201.662,21.356l.043.076s-3.377,5.812-3.451,5.925h-.002c-.527-.455-1.409-.376-2.059-.051-.202.106-.4.232-.587.372.463-.397.852-.795.735-1.422-.231-1.254-1.574-1.275-2.475-.825-.047.026-.094.051-.141.079l-.008-.178,1.375-3.976h6.57Z"/>
      <path class="st7" d="M199.004,16.594l2.659,4.762h-6.571l.032-.094,3.88-4.669Z"/>
      <path class="st16" d="M201.446,49.377v34.938c0,3.139-1.707,5.899-4.236,7.397l-.07-.006c.034-.406.034-.833.034-1.296v-3.4s.075-2.102-1.899-2.102-2,2.15-2,2.15v2.95s0,2.701-2.701,2.701-2.901-3.101-2.901-3.101v-3.7h-3.574v4.601s-.1.499-.041,1.203h-.053c-2.531-1.498-4.235-4.259-4.235-7.397v-34.938c0-4.458,3.438-8.15,7.793-8.556.263-.026.531-.038.801-.038h4.488c.433,0,.861.032,1.277.096,4.127.621,7.317,4.203,7.317,8.498ZM194.845,73.244v-20.552c0-2.185-1.789-3.974-3.974-3.974h-.529c-2.184,0-3.972,1.789-3.972,3.974v20.552c0,2.185,1.788,3.974,3.972,3.974h.529c2.185,0,3.974-1.789,3.974-3.974Z"/>
      <path class="st16" d="M197.924,29.349c.02-.011.037-.019.056-.03.722-.361,1.802-.344,1.989.663.151.814-.755,1.056-1.267,1.69,0,0-.797.608-1.069,1.949h-.004c-.185-.079-.336-.102-.548-.102-.374,0-.718.134-.986.355h-.228c-.002-.278-.01-.703-.029-1.328-.03-1.039.886-2.535,2.086-3.196Z"/>
      <path class="st5" d="M199.004,16.594l-3.88,4.669-4.463-4.463.206-.206h8.137Z"/>
      <path class="st13" d="M192.308,179.536v4.076c0,6.8,4.35,9.875,4.35,9.875.871.72,1.566,1.001,2.057,1.336.493.334.782.721.844,1.652,0,1.262-.969,2.312-2.202,2.437h-13.048c-1.232-.125-2.201-1.175-2.201-2.437.061-.931.35-1.318.841-1.652.491-.335,1.184-.616,2.057-1.336,0,0,4.35-3.075,4.35-9.875v-4.081c0-.112-.004-.333-.036-.593h.036s.039-1.612,1.501-1.612,1.425,1.61,1.425,1.61l.06.009c-.03.259-.034.48-.034.591Z"/>
      <path class="st17" d="M195.867,33.875h.228c-.345.28-.563.712-.563,1.192h-.003c0-.854-.694-1.549-1.549-1.549-.131,0-.259.017-.38.049l-.034-.134s.017-.264-.036-2.112c-.026-.856.467-1.964,1.237-2.852.074-.091.153-.176.238-.259.189-.185.395-.353.59-.521.005-.002.009-.006.011-.011.187-.14.385-.266.586-.372.651-.325,1.533-.404,2.06.053.202.174.35.427.414.774.113.608-.274.905-.742,1.215-1.2.661-2.116,2.157-2.086,3.196.019.625.027,1.05.029,1.33Z"/>
      <path class="st10" d="M190.839,33.52c.013-.002.026-.002.039-.002h.015c.822,0,1.496.642,1.545,1.451.04-.68.52-1.243,1.162-1.403.121-.032.249-.049.38-.049.855,0,1.55.695,1.55,1.549h.002c0-.48.219-.912.563-1.194.268-.221.612-.355.986-.355.212,0,.363.023.548.102h.004c-.057.276-.091.584-.091.924,0,4.067-1.734,5.627-3.392,6.188l-.021.147c-.416-.064-.844-.096-1.277-.096h-4.488c-.27,0-.538.013-.801.038l-.007-.081c-1.668-.552-3.419-2.108-3.419-6.197,0-.34-.034-.648-.091-.924h.004c.185-.079.336-.102.548-.102.427,0,.816.174,1.097.455.278.28.452.667.452,1.094,0-.854.693-1.549,1.55-1.549.131,0,.259.017.38.049.642.159,1.122.723,1.164,1.403.047-.81.721-1.451,1.543-1.451.017,0,.036,0,.053.002h.002Z"/>
      <path class="st6" d="M190.888,164.239c-.99.011-2.951.417-2.656,3.299.525,2.624,1.951,4.498-.225,5.85-3.149,1.124-3.751-3.3-3.751-3.3l-.051.004c-.032-.336-.049-.695-.049-1.08,0-4.6,4.301-7.401,4.301-9.8l.009-.187h4.28l.463.187c0,2.399,4.299,5.2,4.299,9.8,0,.661-.051,1.246-.138,1.777-.323,1.198-1.256,3.436-3.6,2.599-2.176-1.352-.75-3.226-.225-5.85.295-2.882-1.666-3.288-2.657-3.299Z"/>
      <path class="st10" d="M197.174,87.01v3.4c0,.463,0,.89-.034,1.296-.099,1.341-.533,2.446-2.365,3.904-1.7,1.124-2.201,1.649-2.201,3.075v3.099h-4.104c-.011,0-.023,0-.034.002l-.013-.289v-2.888c0-1.6-1.024-2.2-2.924-3.9-1.05-.939-1.368-2.125-1.441-2.996-.059-.703.041-1.203.041-1.203v-4.601h3.574v3.7s.202,3.101,2.901,3.101,2.701-2.701,2.701-2.701v-2.95s.025-2.15,2-2.15,1.899,2.102,1.899,2.102Z"/>
      <path class="st16" d="M196.341,26.257c.117.627-.272,1.024-.735,1.422-.002.004-.006.008-.01.011-.209.155-.406.331-.591.521-.085.083-.164.168-.238.259-.77.888-1.263,1.996-1.237,2.852.053,1.849.036,2.112.036,2.112l.034.134c-.642.159-1.122.722-1.162,1.403-.049-.81-.723-1.451-1.545-1.451h-.015l-.011-.21s.013-1.481-.027-3.158c0-.147.006-.293.01-.442.002-.076-.002-.155-.01-.236.125-1.279,1.496-3.158,2.885-3.961.047-.028.094-.053.141-.079.901-.451,2.244-.429,2.475.824Z"/>
      <path class="st8" d="M197.37,170.789c-.47,2.864-2.023,4.244-2.671,8.239l-.09-.015s.1-1.651-1.175-1.651c-.769,0-1.013.92-1.092,1.583l-.06-.009s.039-1.61-1.425-1.61-1.501,1.61-1.501,1.61h-.036c-.076-.661-.323-1.574-1.088-1.574-1.275,0-1.175,1.651-1.175,1.651l-.089.015c-.699-4.306-2.451-5.572-2.763-8.936l.051-.004s.601,4.424,3.751,3.3c2.176-1.352.75-3.226.225-5.851-.295-2.881,1.666-3.287,2.656-3.298.991.011,2.952.417,2.657,3.298-.525,2.625-1.951,4.499.225,5.851,2.344.837,3.277-1.401,3.6-2.599Z"/>
      <path class="st7" d="M195.124,21.263l-.032.094h-8.862l-.032-.094,4.463-4.463,4.463,4.463Z"/>
      <path class="st5" d="M195.092,21.356l-1.375,3.976.008.178c-1.389.803-2.76,2.682-2.886,3.961-.133-1.324-1.589-3.285-3.028-4.04-.068-.034-.138-.066-.21-.094v-.006l-1.371-3.976h8.862Z"/>
      <path class="st6" d="M194.703,113.236c.195,1.296.314,2.781.278,4.424h-.019l-4.312-4.225-4.124,4.125-.296.004c-.029-1.576.085-3.004.27-4.258l.026.004,4.124-4.125,4.051,4.051h.002Z"/>
      <path class="st16" d="M194.762,139.166c.164,1.213.255,2.58.217,4.076l-.229-.007-4.125,4.127-4.312-4.227h-.081c-.029-1.398.053-2.684.2-3.833l.368.047,3.825,3.763,3.899-3.914.238-.032Z"/>
      <path class="st16" d="M194.962,117.66h.019c-.027,1.19-.138,2.465-.359,3.81l-.147-.023-3.825-3.761-3.899,3.912-.134.021c-.247-1.436-.361-2.792-.387-4.055l.296-.004,4.124-4.125,4.312,4.225Z"/>
      <path class="st6" d="M194.75,143.235l.229.007c-.034,1.323-.17,2.747-.448,4.26l-3.915,4.11-3.859-4.05-.059.01c-.296-1.576-.436-3.062-.466-4.435h.081l4.312,4.225,4.125-4.127Z"/>
      <path class="st6" d="M194.762,139.166l-.238.032-3.899,3.914-3.825-3.764-.368-.046c.185-1.437.468-2.667.759-3.653l.433.136,3.001,3.077,3.075-3.113.323-.098c.283.954.557,2.138.739,3.515Z"/>
      <path class="st16" d="M194.703,113.236h-.002l-4.05-4.051-4.125,4.125-.026-.004c.553-3.723,1.749-5.921,1.749-5.921l.038-.227c.06.011.122.015.183.015h4.276c.061,0,.123-.004.183-.015l.036.227s1.181,2.17,1.738,5.851Z"/>
      <path class="st6" d="M194.475,121.447l.147.023c-.187,1.144-.457,2.34-.829,3.583l-.142-.042-3.001-3.075-3.075,3.113-.144.042c-.359-1.202-.625-2.361-.814-3.472l.134-.021,3.899-3.912,3.825,3.761Z"/>
      <path class="st16" d="M190.616,151.612l3.915-4.11c-.34,1.834-.886,3.796-1.717,5.859l-.013.277c-.019-.003-.036-.003-.055-.003h-4.276c-.019,0-.038,0-.057.003l-.013-.277c-.82-2.038-1.364-3.974-1.702-5.788l.059-.011,3.859,4.05Z"/>
      <path class="st16" d="M194.023,135.651l-.323.098-3.075,3.113-3.001-3.077-.433-.136c.52-1.775,1.058-2.763,1.058-2.763l.036-.081c.319.147.674.23,1.048.23h2.55c.372,0,.724-.081,1.043-.23l.038.081s.538.99,1.059,2.765Z"/>
      <path class="st16" d="M193.651,125.011l.142.042c-.27.912-.593,1.849-.979,2.807l-.931.151h-2.55c-.302,0-.593.053-.863.153l-.07-.304c-.38-.945-.701-1.868-.969-2.769l.144-.042,3.075-3.113,3.001,3.075Z"/>
      <path class="st13" d="M192.746,101.784c.72,0,1.311.59,1.311,1.313,0,.361-.149.689-.385.927-.238.238-.567.386-.926.386v.136c.72,0,1.311.591,1.311,1.314,0,.361-.149.688-.385.926-.197.198-.457.334-.744.372-.059.011-.121.015-.182.015h-4.276c-.062,0-.123-.004-.183-.015-.637-.087-1.13-.638-1.13-1.298,0-.362.146-.689.384-.927s.568-.387.929-.387v-.136c-.722,0-1.313-.59-1.313-1.313,0-.361.146-.689.384-.927s.547-.378.895-.384c.011-.002.023-.002.034-.002h4.276Z"/>
      <path class="st13" d="M192.801,153.638c.695.027,1.256.607,1.256,1.311,0,.361-.149.688-.385.926-.238.238-.567.387-.926.387v.136c.72,0,1.311.591,1.311,1.313,0,.362-.149.689-.385.927-.238.238-.567.387-.926.387h-4.28c-.721,0-1.309-.593-1.309-1.314,0-.361.146-.688.384-.926.238-.238.568-.387.929-.387v-.136c-.722,0-1.313-.591-1.313-1.313,0-.362.146-.689.384-.927.226-.225.534-.37.872-.384.019-.003.038-.003.057-.003h4.276c.019,0,.036,0,.055.003Z"/>
      <path class="st13" d="M191.883,128.011c1.381,0,2.512,1.131,2.512,2.512,0,.691-.283,1.318-.738,1.774-.21.211-.457.383-.731.508-.318.149-.671.23-1.043.23h-2.55c-.374,0-.729-.083-1.048-.23-.865-.399-1.466-1.275-1.466-2.282,0-.691.282-1.317.737-1.774.257-.255.57-.457.914-.585.27-.1.561-.153.863-.153h2.55Z"/>
      <path class="st17" d="M190.84,30.15c.04,1.677.027,3.158.027,3.158l.011.21c-.013,0-.026,0-.038.002-.017-.002-.037-.002-.054-.002-.822,0-1.496.642-1.542,1.451-.043-.68-.523-1.243-1.165-1.403l.034-.134s-.017-.264.036-2.112c.026-.856-.467-1.964-1.237-2.852-.074-.091-.153-.176-.238-.259-.185-.189-.382-.365-.59-.521-.005-.002-.009-.006-.011-.011-.465-.395-.852-.793-.735-1.422.214-1.16,1.379-1.264,2.263-.918.072.028.142.059.21.094,1.439.754,2.895,2.716,3.029,4.04-.011.081-.013.159-.011.236.004.149.008.295.011.442Z"/>
      <path class="st5" d="M190.661,16.8l-4.463,4.463-3.882-4.669h8.139l.206.206Z"/>
      <path class="st6" d="M172.458,194.037v-.038c1.77-.128,14.799-1.388,14.799-10.987,0-1.583-.111-2.883-.289-3.984l.089-.015s-.1-1.651,1.175-1.651c.765,0,1.012.913,1.088,1.576.032.26.036.481.036.593v4.081c0,6.8-4.35,9.875-4.35,9.875-.873.72-1.566,1.001-2.057,1.336-.491.334-.78.721-.841,1.652,0,1.262.969,2.312,2.201,2.437h-11.851c-1.233-.125-2.202-1.175-2.202-2.437,0-.674.276-1.286.721-1.73.323-.323.735-.557,1.194-.659.093-.023.189-.038.287-.049Z"/>
      <path class="st16" d="M186.912,28.469c.77.888,1.263,1.995,1.237,2.852-.053,1.849-.036,2.112-.036,2.112l-.034.134c-.121-.032-.249-.049-.38-.049-.857,0-1.549.695-1.549,1.549,0-.427-.175-.814-.453-1.094l.117-.053c.002-.281.01-.716.03-1.375.029-1.039-.889-2.535-2.087-3.196-.468-.31-.855-.608-.742-1.216.047-.249.136-.446.255-.604.491-.64,1.498-.582,2.219-.223.202.106.399.232.586.372.002.004.007.008.011.011.195.168.401.336.591.521.085.083.163.168.238.259h-.003Z"/>
      <path class="st7" d="M186.23,21.356l1.373,3.976v.006c-.886-.346-2.051-.242-2.265.918-.117.629.27,1.026.735,1.422-.187-.14-.385-.266-.587-.372-.72-.359-1.727-.417-2.218.223l-.202-.172c-.074-.113-3.449-5.925-3.449-5.925l.042-.076h6.571Z"/>
      <path class="st7" d="M186.198,21.263l.032.094h-6.571l2.657-4.762,3.882,4.669Z"/>
      <path class="st17" d="M183.755,29.349c1.198.661,2.116,2.157,2.086,3.196-.019.659-.027,1.094-.029,1.375l-.117.053c-.281-.281-.67-.455-1.097-.455-.212,0-.363.023-.548.102h-.004c-.272-1.341-1.069-1.949-1.069-1.949-.512-.633-1.418-.876-1.267-1.69.187-1.007,1.267-1.024,1.989-.663.02.011.037.019.056.03Z"/>
      <path class="st13" d="M172.458,198.912h-9.151c-.053,0-.104.002-.155.006-1.275-.078-2.295-1.149-2.295-2.444,0-.673.276-1.285.72-1.729s1.056-.721,1.73-.721h8.849l.015.062c-.459.102-.871.336-1.194.659-.445.444-.721,1.056-.721,1.729,0,1.263.969,2.313,2.202,2.438Z"/>
      <path class="st1" d="M172.706,198.925c-.085,0-.168-.005-.248-.013-1.233-.125-2.202-1.175-2.202-2.438,0-.673.276-1.285.721-1.729.323-.323.735-.557,1.194-.659.093-.023.189-.038.287-.049.08-.008.163-.013.248-.013"/>
      <path class="st1" d="M208.507,198.925c.085,0,.168-.005.249-.013,1.232-.125,2.202-1.175,2.202-2.438,0-.673-.277-1.285-.721-1.729s-1.056-.721-1.73-.721"/>
      <path class="st1" d="M218.066,198.918c1.275.081,2.293,1.15,2.293,2.444,0,.674-.276,1.286-.721,1.73-.444.444-1.056.72-1.729.72h-54.602c-1.347,0-2.45-1.103-2.45-2.45,0-.673.276-1.285.72-1.73.41-.41.963-.675,1.575-.714.051-.004.102-.006.155-.006h54.602c.053,0,.106.002.157.006Z"/>
      <path class="st1" d="M208.259,194.024h9.65c1.347,0,2.45,1.103,2.45,2.45,0,.674-.276,1.286-.721,1.73-.41.41-.96.676-1.572.714-.051.005-.104.007-.157.007h-54.602c-.053,0-.104-.002-.155-.007-1.275-.078-2.295-1.149-2.295-2.444,0-.673.276-1.285.72-1.729s1.056-.721,1.73-.721h8.849"/>
      <path class="st1" d="M172.256,194.012s.07-.005.2-.013c1.772-.128,14.801-1.388,14.801-10.987,0-1.583-.111-2.884-.289-3.984-.699-4.306-2.45-5.572-2.763-8.936-.032-.336-.049-.695-.049-1.08,0-4.601,4.301-7.401,4.301-9.801"/>
      <path class="st1" d="M189.356,179.531c0-.112-.004-.333-.036-.593-.076-.663-.323-1.576-1.088-1.576-1.275,0-1.175,1.651-1.175,1.651"/>
      <path class="st1" d="M184.558,198.925c-.085,0-.168-.004-.249-.013-1.232-.125-2.201-1.175-2.201-2.437.061-.931.35-1.318.841-1.652.491-.335,1.184-.616,2.057-1.336,0,0,4.35-3.075,4.35-9.875v-4.263"/>
      <path class="st1" d="M209.408,194.012s-15-.7-15-11c0-1.583.11-2.884.291-3.984.648-3.995,2.201-5.375,2.671-8.239.087-.531.138-1.116.138-1.777,0-4.601-4.299-7.401-4.299-9.801"/>
      <path class="st1" d="M192.308,179.536c0-.111.004-.332.034-.591.078-.663.323-1.583,1.092-1.583,1.275,0,1.175,1.651,1.175,1.651"/>
      <path class="st1" d="M197.108,198.925c.085,0,.168-.004.249-.013,1.233-.125,2.202-1.175,2.202-2.437-.062-.931-.351-1.318-.844-1.652-.491-.335-1.186-.616-2.057-1.336,0,0-4.35-3.075-4.35-9.875v-4.263"/>
      <path class="st1" d="M189.356,178.936s.038-1.61,1.5-1.61,1.426,1.61,1.426,1.61"/>
      <path class="st1" d="M184.256,170.088s.601,4.424,3.751,3.3c2.176-1.352.75-3.226.225-5.85-.295-2.882,1.666-3.288,2.656-3.299.015-.002.03-.002.045-.002"/>
      <path class="st1" d="M197.521,170.088s-.041.289-.151.701c-.323,1.198-1.256,3.436-3.6,2.599-2.176-1.352-.75-3.226-.225-5.85.295-2.882-1.666-3.288-2.657-3.299-.015-.002-.029-.002-.044-.002"/>
      <path class="st1" d="M192.801,153.638c.695.027,1.256.607,1.256,1.311,0,.361-.149.688-.385.926-.238.238-.567.387-.926.387v.136c.72,0,1.311.591,1.311,1.313,0,.362-.149.689-.385.927-.238.238-.567.387-.926.387h-4.28c-.721,0-1.309-.593-1.309-1.314,0-.361.146-.688.384-.926.238-.238.568-.387.929-.387v-.136c-.722,0-1.313-.591-1.313-1.313,0-.362.146-.689.384-.927.226-.225.534-.37.872-.384.019-.003.038-.003.057-.003h4.276c.019,0,.036,0,.055.003Z"/>
      <path class="st1" d="M192.926,132.805c-.318.149-.671.23-1.043.23h-2.55c-.374,0-.729-.083-1.048-.23-.865-.399-1.466-1.275-1.466-2.282,0-.691.282-1.317.737-1.774.257-.255.57-.457.914-.585.27-.1.561-.153.863-.153h2.55c1.381,0,2.512,1.131,2.512,2.512,0,.691-.283,1.318-.738,1.774-.21.211-.457.383-.731.508Z"/>
      <path class="st1" d="M192.574,101.784h.172c.72,0,1.311.59,1.311,1.313,0,.361-.149.689-.385.927-.238.238-.567.386-.926.386v.136c.72,0,1.311.591,1.311,1.314,0,.361-.149.688-.385.926-.197.198-.457.334-.744.372-.059.011-.121.015-.182.015h-4.276c-.062,0-.123-.004-.183-.015-.637-.087-1.13-.638-1.13-1.298,0-.362.146-.689.384-.927s.568-.387.929-.387v-.136c-.722,0-1.313-.59-1.313-1.313,0-.361.146-.689.384-.927s.547-.378.895-.384c.011-.002.023-.002.034-.002h4.104Z"/>
      <path class="st1" d="M188.249,107.385s-1.196,2.198-1.749,5.921c-.185,1.254-.299,2.682-.27,4.258.026,1.263.141,2.619.387,4.055.189,1.111.455,2.27.814,3.472.268.901.589,1.824.969,2.769"/>
      <path class="st1" d="M192.965,107.385s1.181,2.17,1.738,5.851c.195,1.296.314,2.781.278,4.424-.027,1.19-.138,2.465-.359,3.81-.187,1.144-.457,2.34-.829,3.583-.27.912-.593,1.849-.979,2.807"/>
      <path class="st1" d="M186.526,113.31l4.124-4.125,4.051,4.051"/>
      <path class="st1" d="M186.526,117.56l4.124-4.125,4.312,4.225"/>
      <path class="st1" d="M186.751,121.598l3.899-3.912,3.826,3.761"/>
      <path class="st1" d="M187.575,125.049l3.075-3.113,3.001,3.075"/>
      <path class="st1" d="M188.249,132.886s-.538.988-1.058,2.763c-.291.986-.574,2.216-.759,3.653-.147,1.149-.229,2.435-.2,3.835.03,1.373.17,2.859.466,4.435.338,1.815.882,3.751,1.702,5.789"/>
      <path class="st1" d="M192.965,132.886s.537.99,1.058,2.765c.283.954.557,2.138.739,3.515.164,1.213.255,2.58.217,4.076-.034,1.323-.17,2.747-.448,4.26-.34,1.834-.886,3.796-1.717,5.859"/>
      <path class="st1" d="M194.546,147.485l-.015.017-3.915,4.11-3.859-4.05"/>
      <path class="st1" d="M194.75,143.235l-4.125,4.127-4.312-4.227"/>
      <path class="st1" d="M194.524,139.198l-3.899,3.914-3.825-3.763"/>
      <path class="st1" d="M193.7,135.749l-3.075,3.113-3.001-3.077"/>
      <path class="st1" d="M192.574,101.784v-3.099c0-1.426.501-1.951,2.201-3.075,1.832-1.458,2.266-2.563,2.365-3.904.034-.406.034-.833.034-1.296v-3.4s.075-2.102-1.899-2.102-2,2.15-2,2.15v2.95s0,2.701-2.701,2.701-2.901-3.101-2.901-3.101v-3.7h-3.574v4.601s-.1.499-.041,1.203c.073.871.391,2.057,1.441,2.996,1.9,1.7,2.924,2.299,2.924,3.9v2.888"/>
      <path class="st1" d="M184.005,91.713c-2.531-1.498-4.235-4.259-4.235-7.397v-34.938c0-4.458,3.438-8.15,7.793-8.556.263-.026.531-.038.801-.038h4.488c.433,0,.861.032,1.277.096,4.127.621,7.317,4.203,7.317,8.498v34.938c0,3.139-1.707,5.899-4.236,7.397"/>
      <path class="st1" d="M190.871,48.719h-.527c-2.194,0-3.973,1.779-3.973,3.974v20.552c0,2.195,1.779,3.974,3.973,3.974h.527c2.195,0,3.974-1.779,3.974-3.974v-20.552c0-2.195-1.779-3.974-3.974-3.974Z"/>
      <path class="st1" d="M195.606,27.678c.187-.14.385-.266.586-.372.651-.325,1.533-.404,2.06.053.202.174.35.427.414.774.113.608-.274.905-.742,1.215-.308.208-.652.421-.907.733"/>
      <path class="st1" d="M195.005,28.21c.185-.189.382-.365.59-.521"/>
      <path class="st1" d="M193.566,33.433s.017-.264-.036-2.112c-.026-.856.467-1.963,1.237-2.852"/>
      <path class="st1" d="M190.867,33.308s.013-1.481-.028-3.158c-.002-.147-.006-.293-.01-.442-.002-.076,0-.155.01-.236.126-1.279,1.497-3.158,2.886-3.961.047-.028.094-.053.141-.079.901-.451,2.244-.429,2.475.824.117.627-.272,1.024-.735,1.422-.002.004-.006.008-.011.011-.195.168-.401.336-.59.521-.085.083-.164.168-.238.259"/>
      <path class="st1" d="M195.867,33.92v-.045c-.002-.28-.01-.706-.029-1.33-.03-1.039.886-2.535,2.087-3.196.019-.011.036-.019.055-.03.722-.361,1.802-.344,1.989.663.151.814-.755,1.056-1.267,1.69,0,0-.797.608-1.069,1.949-.057.276-.091.584-.091.924,0,4.067-1.734,5.627-3.392,6.188"/>
      <path class="st1" d="M189.344,35.067c0-.837.663-1.519,1.496-1.547.012-.002.025-.002.038-.002h.015c.822,0,1.496.642,1.545,1.451.004.032.004.064.004.098"/>
      <path class="st1" d="M192.431,35.067c0-.034,0-.066.007-.098.04-.68.52-1.243,1.162-1.403.121-.032.249-.049.38-.049.855,0,1.549.695,1.549,1.549"/>
      <path class="st1" d="M195.532,35.067c0-.48.219-.912.563-1.194.268-.221.612-.355.986-.355.212,0,.363.023.548.102"/>
      <path class="st1" d="M186.073,27.678c-.187-.14-.385-.266-.587-.372-.72-.359-1.727-.417-2.218.223-.119.157-.208.355-.255.604-.113.608.274.905.742,1.216.308.208.652.421.907.733"/>
      <path class="st1" d="M186.674,28.21c-.185-.189-.382-.365-.591-.521"/>
      <path class="st1" d="M188.113,33.433s-.017-.264.036-2.112c.026-.856-.467-1.963-1.237-2.852"/>
      <path class="st1" d="M190.812,33.308s-.013-1.481.028-3.158c0-.147.006-.293.01-.442.002-.076-.002-.155-.01-.236-.134-1.324-1.59-3.285-3.029-4.04-.068-.034-.138-.066-.21-.094-.884-.346-2.049-.242-2.263.918-.117.629.27,1.026.735,1.422.002.004.006.008.011.011.195.168.401.336.59.521.085.083.164.168.238.259"/>
      <path class="st1" d="M185.812,33.92c.002-.281.01-.716.029-1.375.03-1.039-.888-2.535-2.086-3.196-.019-.011-.036-.019-.056-.03-.722-.361-1.802-.344-1.989.663-.151.814.755,1.056,1.267,1.69,0,0,.797.608,1.069,1.949.057.276.091.584.091.924,0,4.089,1.751,5.644,3.419,6.197"/>
      <path class="st1" d="M192.336,35.067c0-.837-.665-1.519-1.496-1.547-.017-.002-.037-.002-.054-.002-.822,0-1.496.642-1.542,1.451-.007.032-.007.064-.007.098"/>
      <path class="st1" d="M189.248,35.067c0-.034,0-.066-.004-.098-.043-.68-.523-1.243-1.165-1.403-.121-.032-.249-.049-.38-.049-.857,0-1.55.695-1.55,1.549"/>
      <path class="st1" d="M186.147,35.067c0-.427-.174-.814-.452-1.094-.281-.281-.67-.455-1.097-.455-.212,0-.363.023-.548.102"/>
      <path class="st1" d="M190.455,16.594l.206.206,4.463,4.463,3.88-4.669"/>
      <path class="st1" d="M198.254,27.358c.074-.113,3.451-5.925,3.451-5.925l-.042-.076-2.659-4.762h-8.137"/>
      <path class="st1" d="M190.678,21.356h11.027"/>
      <path class="st1" d="M195.124,21.263l-.032.094-1.375,3.976"/>
      <path class="st1" d="M183.066,27.358c-.074-.113-3.449-5.925-3.449-5.925l.042-.076,2.657-4.762M182.316,16.594h8.551l-.206.206-4.463,4.463-3.882-4.669Z"/>
      <path class="st1" d="M190.642,21.356h-11.025"/>
      <path class="st1" d="M186.198,21.263l.032.094,1.373,3.976"/>
      <path class="st1" d="M229.758,126.845l2.306,3.143.078.108"/>
      <path class="st15" d="M221.63,126.4c-.974-.614-2.755-2.046-3.184-4.52-.144-.822-.21-1.521-.268-2.127-.157-1.696-.227-2.694-1.608-3.799l-.189-.111c-.406-.425-.655-.999-.655-1.632,0-1.06.699-1.957,1.66-2.257.223-.07.459-.106.703-.106.633,0,1.209.249,1.632.657.021.019.045.04.066.061.079.073.155.149.232.226.38.397.716.862.984,1.428.378.803.616,1.808.644,3.109.008.361.031.716.07,1.06.556,4.951,4.282,8.141,9.329,8.141h35.62c5.047,0,8.772-3.19,9.329-8.141.038-.344.062-.699.07-1.06.028-1.301.266-2.306.644-3.109.268-.566.604-1.031.984-1.428.077-.077.153-.153.232-.226.021-.021.044-.042.066-.061.422-.408.998-.657,1.632-.657,1.304,0,2.363,1.058,2.363,2.363,0,.633-.251,1.207-.655,1.632l-.189.111c-1.381,1.105-1.451,2.103-1.611,3.799-.055.606-.123,1.305-.265,2.127-.43,2.474-2.21,3.906-3.184,4.52l.034.056h4.724c3.677-1.8,2.276-7.827,2.276-7.827l-.051-.066c1.284-1.016,2.108-2.588,2.108-4.352,0,0,1.728,3.897,1.292,8.118-.699,6.8-6.598,13.201-17.699,15.902-12.045,2.93-17.201-.3-19.902,7.699h-.017c-2.701-7.999-7.856-4.769-19.901-7.699-11.101-2.701-17-9.102-17.702-15.902-.433-4.221,1.295-8.118,1.295-8.118,0,1.764.824,3.336,2.108,4.352l-.051.066s-1.401,6.027,2.276,7.827h4.724l.034-.056Z"/>
      <path class="st11" d="M280.165,108.686c2.809.274,5.008,2.641,5.008,5.525,0,1.764-.824,3.336-2.108,4.352-.945.753-2.142,1.199-3.442,1.199l-.092-.009c.16-1.696.23-2.694,1.611-3.799l.189-.111c.404-.425.655-.999.655-1.632,0-1.305-1.059-2.363-2.363-2.363l.709-.089-.18-2.89.013-.183Z"/>
      <path class="st10" d="M277.6,111.3l-2.008-.595-.253-.024c.259-.316.552-.601.875-.85.695-.544,1.526-.924,2.431-1.083.317-.058.644-.088.978-.088.183,0,.363.009.542.026l-.013.183.181,2.89-.71.089c-.634,0-1.209.249-1.632.657-.022.019-.045.04-.066.061-.079.073-.155.149-.232.226l-.093-1.492Z"/>
      <path class="st10" d="M249.827,57.026l-1.889-3.785s-.006-.045-.006-.117c.004-.227.089-.746.737-1.116,1.156-.661,1.798.278,1.985.627.04.072.059.119.059.119l1.683,3.372,26.239,52.567.01.053c-.905.16-1.736.54-2.431,1.084l-.085-.108-26.302-52.697Z"/>
      <path class="st10" d="M277.6,111.3l.093,1.492c-.38.397-.716.862-.984,1.428l-.193-.09c-.225-.076-2.35-.501-2.35-.501l-.064-.009c.119-1.111.563-2.123,1.237-2.939l.252.024,2.009.595Z"/>
      <path class="st11" d="M276.709,114.22c-.378.803-.616,1.808-.644,3.109-.008.361-.032.716-.07,1.06l-.078-.008c-1.316-1.016-1.845-2.381-1.845-4.17,0-.2.011-.397.03-.591l.064.009s2.125.425,2.35.501l.193.09Z"/>
      <path class="st13" d="M260.722,41.627c-.86-.013-1.77-.06-2.767-.136l-.252.006c-.113-3.105-1.72-5.043-3.63-6.252l.019-.03s4.123.623,9.034-.31c1.657-.317,3.406-.81,5.115-1.564,6.77-2.988,7.006,4.233,2.116,6.282-3.742,1.568-6.3,2.055-9.635,2.004Z"/>
      <path class="st13" d="M248.588,50.225c-.008.036-.021.07-.032.106-.291.882-.948,1.677-1.732,2.333-.648.544-1.385.992-2.074,1.313-.591.21-1.158.382-1.696.521-3.383.873-5.622.465-5.622.465-3.163-.499-5.111-2.029-6.31-3.687-4.207,8.396-5.068,11.907-11.603,18.643-1.766,1.866-3.663,3.411-5.637,4.673h-.071v-5.859c0-.969-.397-1.851-1.037-2.491-.639-.64-1.519-1.035-2.488-1.035l1.243-.168c7.079-6.343,9.197-14.805,10.351-17.759,1.097-2.812,2.988-16.11,13.567-19.138,10.483-3.003,16.637,2.274,22.103.767,7.556-2.085,7.669-5.385,9.832-5.684,2.164-.298,5.725,3.409,2.257,7.07-3.466,3.662-6.528,4.522-6.528,4.522l.015.087c-4.911.933-9.034.31-9.034.31l-.019.03c1.91,1.209,3.517,3.147,3.63,6.252.017.419.006.859-.037,1.322-.123,1.832-.505,3.222-1.028,4.286-.162.336-.338.638-.525.91l-.091.021c-.374-1.723-1.358-3.321-2.895-4.446-.633-.463-1.315-.812-2.021-1.048-.008-.098-.023-.202-.038-.308-.393-2.556-2.724-4.127-6.77-3.079-3.248.841-5.447,2.206-4.79,5.121.361,1.058.784,1.575,2.609,2.038.166.045.345.085.534.127,1.717.378,3.077-.463,4.32.081.408.176.801.504,1.192,1.067.589.92.667,1.815.425,2.635Z"/>
      <path class="st13" d="M264.705,42.343c7.282.627,3.908,6.885-1.297,6.339-2.796-.293-4.828-.767-6.77-1.577.523-1.065.905-2.455,1.028-4.286.043-.463.054-.903.037-1.322l.252-.006c.997.076,1.907.123,2.767.136,1.252.338,2.589.597,3.983.716Z"/>
      <path class="st11" d="M251.106,42.543c.706.236,1.388.584,2.021,1.048,1.537,1.124,2.521,2.722,2.895,4.446.438,2.019.044,4.21-1.271,6.007-.61.835-1.36,1.505-2.195,2.004l-.16.079-1.683-3.372s-.019-.047-.059-.119l.055-.017c.34-.227.648-.518.903-.867.228-.308.395-.642.51-.986.483-1.443.007-3.09-1.288-4.038-1.202-.878-2.637-.978-3.84-.259l-.023.055c-1.243-.544-2.603.298-4.32-.081-.189-.043-.368-.083-.534-.128l.107-.408c.134-.238.284-.467.45-.695,1.977-2.701,5.423-3.691,8.432-2.669Z"/>
      <path class="st13" d="M250.834,46.728c1.294.948,1.77,2.595,1.288,4.038l-.068-.023c-1.411.363-2.643.181-3.466-.516.242-.82.164-1.715-.425-2.635-.391-.563-.784-.89-1.192-1.067l.023-.055c1.203-.718,2.638-.618,3.84.259Z"/>
      <path class="st11" d="M245.248,56.258c-.328-.17-.647-.368-.953-.591-.461-.338-.873-.718-1.232-1.133l-.009-.036c.538-.138,1.105-.31,1.696-.521.689-.321,1.426-.769,2.074-1.313l.043.049c.316.189.654.325.999.408h.065c0,.074.007.119.007.119l1.889,3.785c-.657.1-1.328.111-1.995.034-.887-.104-1.762-.368-2.584-.801Z"/>
      <path class="st10" d="M247.832,57.06l-.013.096-26.238,52.568-.085.108c-.378-.297-.797-.546-1.245-.735-.377-.157-.772-.276-1.184-.348l.011-.054,26.17-52.436c.822.433,1.698.697,2.584.801Z"/>
      <path class="st11" d="M223.608,113.62c.021.194.032.391.032.591,0,1.789-.529,3.154-1.845,4.17l-.078.008c-.039-.344-.062-.699-.07-1.06-.028-1.301-.266-2.306-.644-3.109l.193-.09c.225-.076,2.35-.501,2.35-.501l.062-.009Z"/>
      <path class="st10" d="M223.608,113.62l-.062.009s-2.125.425-2.35.501l-.193.09c-.268-.566-.604-1.031-.984-1.428l.093-1.492,2.008-.595.077-.226c.771.848,1.284,1.936,1.411,3.141Z"/>
      <path class="st5" d="M221.496,109.831c.253.194.486.413.701.648l-.077.226-2.008.595.124-1.96.014-.244c.449.189.867.438,1.246.735Z"/>
      <path class="st10" d="M220.112,111.3l-.093,1.492c-.077-.077-.153-.153-.232-.226-.021-.021-.045-.042-.066-.061-.423-.408-.999-.657-1.632-.657-.244,0-.48.036-.703.106l-.007-.195.181-2.89-.013-.183c.179-.017.359-.026.542-.026.334,0,.661.03.978.088.412.072.807.191,1.183.348l-.015.244-.123,1.96Z"/>
      <path class="st11" d="M218.178,119.753l-.089.009c-1.3,0-2.497-.446-3.442-1.199-1.284-1.016-2.108-2.588-2.108-4.352,0-2.884,2.199-5.251,5.008-5.525l.013.183-.181,2.89.007.195c-.961.3-1.66,1.197-1.66,2.257,0,.633.249,1.207.655,1.632l.189.111c1.381,1.105,1.451,2.103,1.608,3.799Z"/>
      <path class="st5" d="M213.811,74.593v8.84c0,1.428-.588,2.935-2.367,3.171.548-.62.88-1.432.88-2.321v-14.912c0-.969-.398-1.851-1.037-2.491-.64-.64-1.52-1.035-2.489-1.035-.272,0-.535.036-.79.104.724-.652,1.566-.742,2.278-.742.969,0,1.851.397,2.488,1.035.638.637,1.037,1.522,1.037,2.491v5.859Z"/>
      <path class="st5" d="M208.008,65.951c.255-.068.518-.104.79-.104.969,0,1.851.397,2.489,1.035.637.637,1.037,1.521,1.037,2.491v14.912c0,.888-.332,1.7-.88,2.321-.646.737-1.594,1.205-2.646,1.205-.969,0-1.85-.395-2.488-1.035-.64-.64-1.037-1.519-1.037-2.491v-5.946c.504-.134,1.007-.281,1.511-.444l.028.089v5.889c0,.546.223,1.043.584,1.403.359.361.856.584,1.402.584.649,0,1.229-.314,1.592-.801.249-.331.395-.742.395-1.186v-14.512c0-1.094-.894-1.989-1.987-1.989h-.257c-.316.215-.641.423-.975.627-.759.465-1.507.854-2.244,1.175l-.019-.045c.191-1.464,1.287-2.805,2.705-3.177Z"/>
      <path class="st13" d="M205.273,78.338c-4.357,1.152-8.622,1.224-12.345.616l-.14.206c-3.126,6.159-9.435,12.659-18.575,15.237h-.14v-7.599c0-.606-.155-1.177-.427-1.677l.201-.066c.485-.166.969-.349,1.456-.548,14.629-5.988,8.254-23.784,8.254-23.784l.006-.004c.882,1.243,9.99,13.571,21.759,8.454.737-.321,1.485-.71,2.244-1.175.333-.204.659-.412.975-.627h.257c1.093,0,1.987.895,1.987,1.989v6.975h-.119c-.807.391-1.617.74-2.427,1.048-.484.185-.971.355-1.455.512-.504.164-1.007.31-1.511.444Z"/>
      <path class="st5" d="M210.286,85.008l.104.049c-.363.487-.943.801-1.592.801-.546,0-1.043-.223-1.402-.584-.361-.359-.584-.856-.584-1.403v-5.888l-.028-.089c.484-.157.971-.327,1.456-.512l.059.153v5.487c0,1.092.895,1.987,1.987,1.987Z"/>
      <path class="st15" d="M167.5,180.082l.034.055h4.726c3.674-1.8,2.274-7.824,2.274-7.824l-.051-.066c1.283-1.016,2.108-2.589,2.108-4.355,0,0,1.728,3.9,1.294,8.12-.701,6.801-6.6,13.201-17.702,15.9-12.045,2.931-17.2-.3-19.899,7.701h-.019c-2.701-8.001-7.854-4.77-19.901-7.701-11.099-2.699-17.001-9.099-17.7-15.9-.436-4.22,1.294-8.12,1.294-8.12,0,1.766.825,3.339,2.108,4.353l-.053.068s-1.4,6.024,2.276,7.824h4.724l.034-.055c-.973-.614-2.754-2.044-3.183-4.52-.143-.825-.211-1.522-.266-2.127-.159-1.694-.229-2.693-1.608-3.798l-.19-.112c-.405-.423-.654-.999-.654-1.633,0-1.06.697-1.957,1.657-2.254.224-.07.459-.107.704-.107.633,0,1.209.247,1.632.655.021.019.045.04.066.062.078.072.155.148.231.227.381.397.717.861.984,1.426.379.803.617,1.808.644,3.111.009.361.032.716.07,1.06.557,4.95,4.282,8.139,9.329,8.139h35.621c5.047,0,8.772-3.189,9.331-8.139.038-.344.062-.699.07-1.06.026-1.303.264-2.308.644-3.111.266-.563.601-1.026.982-1.424.076-.078.155-.155.233-.229,0-.002.003-.002.003-.002.429-.443,1.03-.715,1.693-.715,1.305,0,2.363,1.057,2.363,2.361,0,.634-.248,1.21-.654,1.633l-.189.112c-1.379,1.105-1.45,2.104-1.607,3.798-.055.605-.123,1.302-.268,2.127-.431,2.476-2.214,3.908-3.185,4.52Z"/>
      <path class="st11" d="M171.582,162.369c2.812.275,5.009,2.642,5.009,5.523,0,1.766-.825,3.339-2.108,4.355-.946.75-2.142,1.196-3.443,1.196l-.087-.008c.157-1.694.228-2.693,1.607-3.798l.189-.113c.406-.422.654-.998.654-1.632,0-1.304-1.058-2.361-2.363-2.361l.712-.089-.183-2.892.013-.181Z"/>
      <path class="st5" d="M174.073,94.397v7.1c0,1.436-.831,3.039-2.631,3.262l-.017-.017c.712-.646,1.16-1.577,1.16-2.608v-14.699c0-.969-.397-1.851-1.037-2.491-.639-.64-1.519-1.035-2.488-1.035-.179,0-.355.013-.527.04l-.007-.038c.574-.404,1.271-.64,2.021-.64.969,0,1.851.397,2.489,1.035.24.24.446.514.61.814.272.499.427,1.071.427,1.677v7.599Z"/>
      <path class="st5" d="M169.948,86.071l-.006.013c-1.471.291-2.903.453-4.282.512v-.085c.361-1.328,1.489-2.353,2.873-2.561.172-.028.348-.04.527-.04.969,0,1.851.397,2.488,1.035.638.637,1.037,1.521,1.037,2.491v14.699c0,1.031-.448,1.962-1.16,2.608-.625.571-1.458.918-2.365.918-.969,0-1.851-.395-2.489-1.035-.639-.64-1.037-1.519-1.037-2.491v-6.403c.228-.013.459-.03.697-.047h.842v6.037c0,.546.223,1.044.584,1.403.359.361.857.584,1.403.584.573,0,1.092-.246,1.455-.637.33-.355.532-.831.532-1.35v-13.874c0-.776-.449-1.449-1.099-1.777Z"/>
      <path class="st10" d="M169.017,164.983l-2.008-.597-.251-.023c.26-.315.553-.6.876-.85.695-.542,1.523-.923,2.429-1.082.316-.057.644-.087.977-.087.183,0,.364.008.542.025l-.013.181.183,2.892-.712.089c-.663,0-1.264.272-1.693.714,0,0-.002,0-.002.003-.079.074-.158.151-.234.229l-.094-1.494Z"/>
      <path class="st13" d="M147.903,93.651c.629,1.949.711,4.422-.751,7.268l-.031.01c-1.014-2.926-3.796-5.025-7.066-5.025-.969,0-1.894.185-2.744.519l-.01-.136c-1.448-1.908-4.365-1.282-6.962.841-3.234,2.648-3.343,5.457-1.511,7.282,1.332,1.328,2.688,1.214,3.976.784.952-.316,1.868-.803,2.714-1.003.788-.187,1.515-.125,2.152.555.406.431.64.899.723,1.377.195,1.099-.385,2.265-1.447,3.26-.262.246-.553.48-.869.701-1.008.701-3.464,1.989-6.582,1.552-1.273-.177-2.652-.642-4.091-1.552-.397-.238-.758-.489-1.085-.746-2.44-1.925-3.058-4.369-2.908-6.628h-.034s-1.931,3.694-5.582,7.106l-.062-.063s-2.503,1.965-7.505,2.601c-5.003.637-5.893-4.425-4.374-5.995,1.52-1.57,4.25.289,10.392-4.582,4.445-3.521,3.818-11.605,12.429-18.294,8.69-6.749,20.539-.425,23.457.349,2.539.674,8.326,3.079,15.528,2.765,1.379-.06,2.811-.221,4.282-.512l.006-.013c.65.327,1.099,1.001,1.099,1.777v7.268h-.051c-.396.066-.793.125-1.197.176-.431.059-.85.115-1.256.161-.814.1-1.583.176-2.312.232-.238.017-.469.034-.699.047-6.328.385-9.939-.786-17.629-2.08Z"/>
      <path class="st5" d="M170.515,103.071c-.363.392-.882.638-1.455.638s-1.044-.223-1.403-.584c-.361-.36-.584-.857-.584-1.403v-6.037h-.842c.729-.055,1.498-.132,2.312-.232l.017.145v5.487c0,1.081.878,1.969,1.955,1.986Z"/>
      <path class="st10" d="M170.052,162.378l.011.053c-.906.159-1.734.54-2.429,1.082l-.085-.109-26.238-52.568-.013-.074c.909-.151,1.764-.467,2.529-.916l.038.064,26.187,52.468Z"/>
      <path class="st10" d="M169.017,164.983l.094,1.494c-.381.398-.716.861-.982,1.424l-.196-.089c-.223-.075-2.348-.5-2.348-.5l-.064-.008c.117-1.112.564-2.125,1.237-2.941l.251.023,2.008.597Z"/>
      <path class="st11" d="M168.129,167.901c-.381.803-.619,1.808-.644,3.111-.009.361-.032.716-.07,1.06l-.081-.01c-1.315-1.016-1.844-2.38-1.844-4.17,0-.199.01-.395.031-.588l.064.008s2.125.425,2.348.5l.196.089Z"/>
      <path class="st11" d="M147.121,100.929c.269.77.414,1.596.414,2.457,0,2.756-1.49,5.162-3.708,6.46-.765.449-1.62.765-2.529.916-.404.068-.82.104-1.243.104-.274,0-.544-.015-.81-.044l1.947-3.9s.031-.083.059-.212l.121.019c1.333-.525,2.276-1.824,2.276-3.343,0-1.985-1.608-3.596-3.593-3.596-.744,0-1.437.228-2.011.614-.954.646-2.968,1.284-2.577,3.309l.051.478c-.846.2-1.762.687-2.714,1.003l-.034-.104c-.128-.548-.196-1.12-.196-1.704,0-3.164,1.964-5.869,4.737-6.964.85-.334,1.775-.518,2.744-.518,3.27,0,6.052,2.099,7.066,5.025Z"/>
      <path class="st13" d="M143.648,103.386c0,1.519-.943,2.818-2.276,3.343l-.121-.019c.075-.36.098-1.074-.786-1.35-1.201-.376-2,.75-2,.75l-.072.013c-.083-.478-.317-.946-.723-1.377-.637-.68-1.364-.742-2.152-.555l-.051-.478c-.391-2.025,1.623-2.662,2.577-3.308.574-.387,1.267-.615,2.011-.615,1.985,0,3.593,1.611,3.593,3.596Z"/>
      <path class="st10" d="M139.245,110.822l-26.245,52.582-.085.111c-.378-.298-.799-.544-1.247-.735-.376-.158-.771-.277-1.184-.349l.011-.053,26.451-52.995c1.062-.995,1.642-2.161,1.447-3.26l.072-.013s.799-1.126,2-.75c.884.276.86.99.786,1.35-.028.129-.059.212-.059.212l-1.947,3.9Z"/>
      <path class="st13" d="M129.495,111.635l-.019.13c-.493,2.053-1.311,3.976-2.728,6.414-2.633,4.522-9.676,3.551-5.883-2.695.727-1.196,1.307-2.429,1.773-3.64.499-.702.996-1.464,1.523-2.312l.158-.194c.327.257.688.508,1.086.746,1.438.91,2.817,1.375,4.09,1.551Z"/>
      <path class="st13" d="M122.638,111.844c-1.926,2.724-3.83,4.501-7.306,6.594-4.54,2.737-10.228-1.715-3.819-5.415,1.617-.935,3.047-2.055,4.282-3.207,3.651-3.412,5.582-7.108,5.582-7.108h.034c-.151,2.261.468,4.705,2.907,6.63l-.157.194c-.527.848-1.024,1.611-1.523,2.312Z"/>
      <path class="st11" d="M115.028,167.304c.019.193.03.389.03.588,0,1.79-.53,3.154-1.843,4.17l-.081.01c-.038-.344-.061-.699-.07-1.06-.027-1.303-.265-2.308-.644-3.111l.194-.089c.225-.075,2.35-.5,2.35-.5l.064-.008Z"/>
      <path class="st10" d="M115.028,167.304l-.064.008s-2.125.425-2.35.5l-.194.089c-.268-.565-.603-1.029-.984-1.426l.096-1.492,2.006-.597.079-.223c.771.848,1.283,1.936,1.411,3.141Z"/>
      <path class="st5" d="M112.915,163.515c.253.193.487.412.702.648l-.079.223-2.006.597.123-1.961.013-.242c.448.191.869.437,1.247.735Z"/>
      <path class="st10" d="M111.532,164.983l-.096,1.492c-.076-.079-.153-.155-.231-.227-.021-.022-.045-.043-.066-.062-.423-.408-.999-.655-1.632-.655-.244,0-.48.037-.704.107l-.006-.196.183-2.892-.013-.181c.179-.017.357-.025.54-.025.334,0,.661.03.977.087.413.072.808.191,1.184.349l-.013.242-.123,1.961Z"/>
      <path class="st11" d="M109.598,173.435l-.091.008c-1.301,0-2.497-.446-3.441-1.198-1.283-1.014-2.108-2.587-2.108-4.353,0-2.881,2.198-5.251,5.009-5.523l.013.181-.183,2.892.006.196c-.96.297-1.657,1.194-1.657,2.254,0,.634.248,1.21.654,1.632l.19.113c1.379,1.105,1.449,2.104,1.608,3.798Z"/>
      <path class="st1" d="M169.942,86.084c-1.471.291-2.903.453-4.282.512-7.202.315-12.989-2.091-15.528-2.765-2.918-.773-14.767-7.098-23.457-.349-8.611,6.69-7.984,14.774-12.429,18.294-6.142,4.871-8.872,3.012-10.392,4.582-1.519,1.57-.629,6.632,4.374,5.995,5.002-.636,7.505-2.601,7.505-2.601"/>
      <path class="st1" d="M183.557,60.723s6.375,17.795-8.254,23.784c-.487.2-.971.382-1.456.548"/>
      <path class="st1" d="M121.377,102.708s-1.931,3.696-5.582,7.108c-1.235,1.152-2.665,2.272-4.282,3.207-6.409,3.7-.721,8.152,3.819,5.415,3.476-2.093,5.38-3.87,7.306-6.594.499-.701.996-1.464,1.523-2.312"/>
      <path class="st1" d="M122.67,111.765c-.011.026-.02.053-.032.079-.466,1.211-1.046,2.444-1.773,3.64-3.793,6.246,3.25,7.217,5.883,2.695,1.417-2.438,2.235-4.361,2.728-6.414"/>
      <path class="st1" d="M123.717,96.161s-2.074,3.052-2.306,6.549c-.15,2.259.468,4.703,2.908,6.628.327.257.688.508,1.085.746,1.439.91,2.818,1.375,4.091,1.551,3.118.438,5.574-.85,6.582-1.551.316-.221.607-.455.869-.701,1.062-.995,1.642-2.161,1.447-3.26-.083-.478-.317-.946-.723-1.377-.637-.68-1.364-.742-2.152-.555-.846.2-1.762.687-2.714,1.003-1.288.43-2.644.544-3.976-.784-1.832-1.825-1.724-4.635,1.511-7.282,2.597-2.123,5.514-2.75,6.962-.841"/>
      <path class="st1" d="M132.77,105.09c-.128-.548-.196-1.12-.196-1.704,0-3.164,1.964-5.869,4.737-6.964.85-.334,1.775-.518,2.744-.518,3.27,0,6.052,2.099,7.066,5.025.269.77.414,1.596.414,2.457,0,2.756-1.49,5.162-3.708,6.46-.765.449-1.62.765-2.529.916-.404.068-.82.104-1.243.104-.274,0-.544-.015-.81-.044-.023-.003-.045-.005-.068-.007"/>
      <path class="st1" d="M135.467,103.713c-.391-2.025,1.623-2.662,2.577-3.308"/>
      <path class="st1" d="M138.044,100.405c.574-.387,1.267-.615,2.011-.615,1.985,0,3.593,1.611,3.593,3.596,0,1.519-.943,2.818-2.276,3.343"/>
      <path class="st1" d="M144.755,88.965s2.198,1.743,3.148,4.686c.629,1.949.711,4.422-.751,7.268"/>
      <path class="st1" d="M174.213,94.397c9.14-2.578,15.449-9.078,18.575-15.237"/>
      <path class="st1" d="M147.892,93.649s.006.002.01.002c7.691,1.294,11.302,2.465,17.63,2.08.23-.013.461-.03.699-.047.729-.055,1.498-.132,2.312-.232.406-.047.825-.102,1.256-.161.404-.051.801-.111,1.197-.176"/>
      <path class="st1" d="M211.529,65.041c7.079-6.343,9.198-14.805,10.352-17.759,1.096-2.812,2.987-16.11,13.566-19.138,10.483-3.003,16.637,2.274,22.103.767,7.556-2.085,7.669-5.385,9.832-5.684,2.164-.298,5.725,3.409,2.257,7.07-3.466,3.662-6.528,4.522-6.528,4.522"/>
      <path class="st1" d="M183.495,60.619s.024.034.068.1c.882,1.243,9.99,13.571,21.759,8.454.737-.321,1.485-.71,2.244-1.175.334-.204.659-.412.975-.627"/>
      <path class="st1" d="M254.092,35.216s4.123.623,9.034-.31c1.657-.317,3.406-.81,5.115-1.564,6.77-2.988,7.006,4.233,2.116,6.282-3.742,1.568-6.301,2.055-9.635,2.004-.86-.013-1.77-.06-2.767-.136"/>
      <path class="st1" d="M260.64,41.606c.027.009.055.015.082.021,1.252.338,2.589.597,3.983.716,7.282.627,3.908,6.885-1.296,6.339-2.797-.293-4.829-.767-6.771-1.577-.006,0-.011-.004-.017-.006"/>
      <path class="st1" d="M252.556,56.048c.835-.499,1.585-1.169,2.195-2.004,1.315-1.798,1.708-3.989,1.271-6.007-.374-1.723-1.358-3.321-2.895-4.446-.633-.463-1.315-.812-2.021-1.048-3.009-1.022-6.456-.032-8.432,2.669-.166.227-.317.457-.45.695-.047.079-.09.157-.132.238"/>
      <path class="st1" d="M243.063,54.535c.359.414.771.795,1.233,1.133.306.223.624.421.952.591.822.434,1.697.697,2.584.801.667.076,1.338.066,1.995-.034.011,0,.021,0,.032-.004"/>
      <path class="st1" d="M250.709,52.618c.34-.227.648-.518.903-.867.228-.308.395-.642.51-.986.483-1.443.007-3.09-1.288-4.038-1.202-.878-2.637-.978-3.84-.259"/>
      <path class="st1" d="M246.867,52.714c.317.189.654.325.999.408"/>
      <path class="st1" d="M256.113,48.015c.187-.272.363-.574.525-.91.523-1.065.905-2.455,1.028-4.286.043-.463.054-.903.037-1.322-.113-3.105-1.72-5.043-3.63-6.252-2.958-1.879-6.647-2.006-6.647-2.006"/>
      <path class="st1" d="M248.586,50.223h.002c.823.699,2.055.882,3.466.519"/>
      <path class="st1" d="M248.259,46.12c-.268.185-.487.41-.61.729"/>
      <path class="st1" d="M248.556,50.332c.011-.036.024-.07.032-.106.242-.82.164-1.715-.425-2.635-.391-.563-.784-.89-1.192-1.067-1.243-.544-2.603.298-4.32-.081-.189-.042-.368-.083-.534-.127-1.825-.463-2.248-.98-2.609-2.038-.657-2.916,1.543-4.28,4.79-5.121,4.046-1.048,6.377.523,6.77,3.079.015.106.03.21.038.308.002.011.005.021.005.032"/>
      <path class="st1" d="M229.199,45.973s.109,2.801,1.923,5.304c1.199,1.658,3.148,3.188,6.31,3.687,0,0,2.24.408,5.623-.465.537-.138,1.105-.31,1.695-.521.689-.321,1.426-.769,2.075-1.313.784-.657,1.44-1.451,1.731-2.333"/>
      <path class="st1" d="M210.666,76.334c-.807.391-1.617.74-2.426,1.048-.485.185-.972.355-1.456.512-.504.164-1.007.31-1.511.444-4.356,1.152-8.621,1.224-12.345.616"/>
      <path class="st1" d="M231.127,51.269s-.003.006-.005.008c-4.207,8.396-5.068,11.907-11.603,18.643-1.766,1.866-3.663,3.411-5.637,4.673"/>
      <path class="st1" d="M165.657,86.511c.364-1.328,1.492-2.353,2.876-2.561.172-.028.348-.04.527-.04.969,0,1.851.397,2.488,1.035.638.637,1.037,1.521,1.037,2.491v14.699c0,1.031-.448,1.962-1.16,2.608-.625.571-1.458.918-2.365.918-.969,0-1.851-.395-2.489-1.035-.639-.64-1.037-1.519-1.037-2.491v-6.375"/>
      <path class="st1" d="M169.831,86.016c.04.017.079.036.117.055.65.327,1.099,1.001,1.099,1.776v13.875c0,.519-.202.995-.532,1.349-.363.391-.882.638-1.455.638s-1.044-.223-1.403-.584c-.361-.36-.584-.857-.584-1.403v-6.037"/>
      <path class="st1" d="M167.617,86.309c.361-.378.882-.451,1.443-.451.274,0,.533.057.771.157"/>
      <path class="st1" d="M168.526,83.912c.574-.404,1.271-.64,2.021-.64.969,0,1.851.397,2.489,1.035.24.24.446.514.61.814.272.499.427,1.071.427,1.677v14.699c0,1.436-.831,3.039-2.631,3.262"/>
      <path class="st1" d="M170.547,103.072h-.032c-1.077-.017-1.955-.906-1.955-1.987v-5.487"/>
      <path class="st1" d="M205.303,69.128c.191-1.464,1.287-2.805,2.705-3.177.255-.068.518-.104.79-.104.969,0,1.851.397,2.489,1.035.637.637,1.037,1.521,1.037,2.491v14.912c0,.888-.332,1.7-.88,2.321-.646.737-1.594,1.205-2.646,1.205-.969,0-1.85-.395-2.488-1.035-.64-.64-1.037-1.519-1.037-2.491v-5.999"/>
      <path class="st1" d="M208.798,67.37c1.093,0,1.987.895,1.987,1.989v14.512c0,.444-.146.854-.395,1.186-.363.487-.943.801-1.592.801-.546,0-1.043-.223-1.402-.584-.361-.359-.584-.856-.584-1.403v-5.889"/>
      <path class="st1" d="M207.891,66.059c.038-.038.077-.076.117-.108.725-.652,1.566-.742,2.278-.742.969,0,1.851.397,2.489,1.035.637.637,1.037,1.522,1.037,2.491v14.699c0,1.428-.589,2.935-2.368,3.171-.008.002-.019.002-.027.004"/>
      <path class="st1" d="M210.286,85.008c-1.092,0-1.987-.895-1.987-1.987v-5.487"/>
      <path class="st1" d="M108.797,165.442l.183-2.892"/>
      <path class="st1" d="M111.655,163.022l-.123,1.961-.096,1.492-.002.04"/>
      <path class="st1" d="M113,163.404l26.245-52.582,1.947-3.9s.032-.083.059-.212c.075-.36.098-1.074-.786-1.35-1.201-.376-2,.75-2,.75"/>
      <path class="st1" d="M110.495,162.378l26.451-52.995.053-.106"/>
      <path class="st1" d="M109.507,173.443c-1.301,0-2.497-.446-3.441-1.198-1.283-1.014-2.108-2.587-2.108-4.353,0-2.881,2.198-5.251,5.009-5.523.179-.017.357-.025.54-.025.333,0,.661.03.977.087.413.072.808.191,1.184.349.448.191.869.437,1.247.735.253.193.487.412.702.648.771.848,1.283,1.936,1.411,3.141.019.193.029.389.029.588,0,1.79-.529,3.154-1.842,4.17"/>
      <path class="st1" d="M111.205,166.248c.027.029.055.059.081.089"/>
      <path class="st1" d="M107.8,169.525c-.406-.423-.654-.999-.654-1.633,0-1.06.697-1.957,1.657-2.254.223-.07.459-.107.704-.107.633,0,1.209.247,1.632.655"/>
      <path class="st1" d="M113.102,180.116c-.019-.011-.036-.024-.055-.034-.973-.614-2.754-2.045-3.183-4.52-.143-.825-.211-1.522-.266-2.127-.159-1.694-.229-2.693-1.608-3.798"/>
      <path class="st1" d="M106.013,172.312s-1.4,6.025,2.276,7.825h4.724"/>
      <path class="st1" d="M103.958,167.892s-1.73,3.9-1.294,8.12c.699,6.8,6.601,13.201,17.7,15.9,12.047,2.93,17.2-.3,19.901,7.701"/>
      <path class="st1" d="M111.515,164.987l.017-.004,2.006-.597"/>
      <path class="st1" d="M112.614,167.812c.225-.075,2.35-.5,2.35-.5"/>
      <path class="st1" d="M171.752,165.442l-.183-2.892"/>
      <path class="st1" d="M168.894,163.022l.123,1.961.094,1.494.002.038"/>
      <path class="st1" d="M141.311,110.836l26.238,52.568"/>
      <path class="st1" d="M170.052,162.378l-26.187-52.468"/>
      <path class="st1" d="M171.04,173.443c1.301,0,2.497-.446,3.443-1.196,1.283-1.016,2.108-2.589,2.108-4.355,0-2.881-2.197-5.248-5.009-5.523-.178-.017-.359-.025-.542-.025-.333,0-.661.03-.977.087-.906.159-1.734.54-2.429,1.082-.323.25-.617.535-.876.85-.673.816-1.12,1.829-1.237,2.941-.021.193-.031.389-.031.588,0,1.79.529,3.154,1.844,4.17"/>
      <path class="st1" d="M169.344,166.248c-.027.029-.055.059-.08.089"/>
      <path class="st1" d="M172.749,169.525c.406-.423.654-.999.654-1.633,0-1.304-1.058-2.361-2.363-2.361-.663,0-1.264.272-1.693.715"/>
      <path class="st1" d="M167.447,180.116c.017-.011.036-.021.053-.034.971-.612,2.754-2.045,3.185-4.52.145-.825.213-1.522.268-2.127.157-1.694.228-2.693,1.607-3.798"/>
      <path class="st1" d="M169.41,166.186c-.021.019-.042.038-.063.059,0,0-.002,0-.002.003-.079.074-.158.15-.234.229-.381.397-.716.861-.982,1.424-.38.803-.618,1.808-.644,3.111-.008.361-.032.716-.07,1.06-.559,4.95-4.284,8.139-9.331,8.139h-35.621c-5.047,0-8.772-3.189-9.329-8.139-.038-.344-.061-.699-.07-1.06-.027-1.303-.265-2.308-.644-3.111-.267-.565-.603-1.029-.984-1.426-.076-.079-.153-.155-.231-.227-.021-.022-.045-.043-.066-.062"/>
      <path class="st1" d="M174.534,172.312s1.4,6.025-2.274,7.825h-4.726"/>
      <path class="st1" d="M176.591,167.892s1.728,3.9,1.294,8.12c-.701,6.8-6.6,13.201-17.702,15.9-12.045,2.93-17.2-.3-19.899,7.701"/>
      <path class="st1" d="M169.034,164.987l-.017-.004-2.008-.597"/>
      <path class="st1" d="M167.933,167.812c-.223-.075-2.348-.5-2.348-.5"/>
      <path class="st1" d="M280.332,111.759l-.18-2.89"/>
      <path class="st1" d="M277.476,109.34l.124,1.96.093,1.492.002.04"/>
      <path class="st1" d="M276.129,109.723l-26.302-52.697-1.889-3.785s-.006-.045-.006-.117c.004-.227.089-.746.737-1.116,1.156-.661,1.798.278,1.985.627.04.072.059.119.059.119l1.683,3.372,26.239,52.567"/>
      <path class="st1" d="M279.623,119.762c1.3,0,2.497-.447,3.442-1.199,1.284-1.016,2.108-2.588,2.108-4.352,0-2.884-2.199-5.251-5.008-5.525-.179-.017-.36-.026-.542-.026-.334,0-.661.03-.978.088-.905.159-1.736.539-2.431,1.083-.323.249-.616.534-.875.85-.674.816-1.118,1.828-1.237,2.939-.019.194-.03.391-.03.591,0,1.789.529,3.154,1.845,4.169"/>
      <path class="st1" d="M277.925,112.566c-.028.03-.056.06-.081.09"/>
      <path class="st1" d="M281.331,115.843c.404-.425.655-.999.655-1.632,0-1.305-1.058-2.363-2.363-2.363-.633,0-1.209.249-1.632.657"/>
      <path class="st1" d="M276.027,126.434c.019-.01.036-.023.055-.034.974-.614,2.754-2.046,3.184-4.52.142-.822.21-1.521.265-2.127.16-1.696.23-2.694,1.611-3.799"/>
      <path class="st1" d="M283.116,118.629s1.401,6.027-2.276,7.827h-4.724"/>
      <path class="st1" d="M285.173,114.211s1.728,3.897,1.292,8.118c-.699,6.8-6.598,13.201-17.699,15.902-12.045,2.93-17.201-.3-19.901,7.699"/>
      <path class="st1" d="M277.617,111.304l-.017-.004-2.008-.595"/>
      <path class="st1" d="M276.516,114.13c-.225-.076-2.35-.501-2.35-.501"/>
      <path class="st1" d="M217.379,111.759l.181-2.89"/>
      <path class="st1" d="M220.235,109.34l-.123,1.96-.093,1.492-.002.04"/>
      <path class="st1" d="M247.819,57.155l-26.238,52.568"/>
      <path class="st1" d="M219.077,108.694l26.171-52.436.017-.032"/>
      <path class="st1" d="M218.089,119.762c-1.3,0-2.497-.447-3.442-1.199-1.284-1.016-2.108-2.588-2.108-4.352,0-2.884,2.199-5.251,5.008-5.525.179-.017.359-.026.542-.026.334,0,.661.03.978.088.412.072.807.191,1.183.348.449.189.867.438,1.246.735.253.194.486.413.701.648.771.848,1.284,1.936,1.411,3.141.021.194.032.391.032.591,0,1.789-.529,3.154-1.845,4.169"/>
      <path class="st1" d="M219.787,112.566c.028.03.055.06.081.09"/>
      <path class="st1" d="M216.381,115.843c-.406-.425-.655-.999-.655-1.632,0-1.06.699-1.957,1.66-2.257.223-.07.459-.106.703-.106.633,0,1.209.249,1.632.657"/>
      <path class="st1" d="M221.685,126.434c-.019-.01-.036-.023-.055-.034-.974-.614-2.754-2.046-3.184-4.52-.144-.822-.21-1.521-.268-2.127-.157-1.696-.227-2.694-1.608-3.799"/>
      <path class="st1" d="M219.721,112.505c.021.019.045.04.066.061.079.073.155.149.232.226.38.397.716.862.984,1.428.378.803.616,1.808.644,3.109.008.361.031.716.07,1.06.556,4.951,4.282,8.141,9.329,8.141h35.62c5.047,0,8.772-3.19,9.329-8.141.038-.344.062-.699.07-1.06.028-1.301.266-2.306.644-3.109.268-.566.604-1.031.984-1.428.077-.077.153-.153.232-.226.021-.021.044-.042.066-.061"/>
      <path class="st1" d="M214.596,118.629s-1.401,6.027,2.276,7.827h4.724"/>
      <path class="st1" d="M212.539,114.211s-1.728,3.897-1.295,8.118c.702,6.8,6.601,13.201,17.702,15.902,12.045,2.93,17.2-.3,19.901,7.699"/>
      <path class="st1" d="M220.095,111.304l.017-.004,2.008-.595"/>
      <path class="st1" d="M221.196,114.13c.225-.076,2.35-.501,2.35-.501"/>
      <path class="st16" d="M193.247,83.064c-.527,1.796,3.271-.688,5.077-.2,1.039.281,2.076.491,3.122.642v-18.796c-1.039.07-2.079-1.602-3.12-1.594-1.156.008-2.325,1.343-3.481,1.22v11.248c0,2.185-1.727,3.753-1.727,3.753-.015-.208,1.202.079.131,3.729l-.002-.002Z"/>
      <path class="st1" d="M201.446,63.809v20.507"/>
      <path class="st1" d="M194.845,63.358v12.223c0,1.303-.637,2.465-1.615,3.192"/>
      <path class="st7" d="M251.888,116.001s1.789,4.834,1.522,6.267c-.267,1.434-.089,3.223-2.688,3.223s-3.761-1.972-3.851-2.688c-.089-.717-1.255-6-2.955-6.717-1.7-.717-4.656-2.955-4.656-2.955,0,0-.895.449-2.239-.089-1.344-.539-3.044-2.061-3.044-4.3s.449-6.539,1.522-7.166c1.073-.628,3.672-.45,3.672-.45,0,0,4.389-6.267,11.733-5.732,7.344.535,9.85,3.672,9.761,4.121-.089.449-1.522,3.223-1.522,3.223,0,0,2.777,2.15,2.506,3.583-.271,1.433-2.239,3.223-2.239,3.223,0,0,2.061.627,1.701,2.238-.357,1.612-1.256,4.567-4.567,4.389-3.312-.178-4.656-.178-4.656-.178v.008Z"/>
      <path class="st2" d="M239.147,101.531c-.482-.425-1.029-.664-1.608-.664-1.967,0-3.558,2.766-3.558,6.179s1.595,6.178,3.558,6.178c.596,0,1.154-.251,1.648-.701"/>
      <path class="st2" d="M238.904,109.151s-.267,3.223,1.433,4.567c1.701,1.344,5.017,1.971,5.733,5.822.717,3.85,1.79,6.089,3.94,6.267,2.149.178,3.494-1.073,3.494-4.3s-2.239-5.911-2.239-5.911"/>
      <path class="st2" d="M238.815,105.211s-1.883-9.133,12.538-9.672c9.134-.089,10.927,4.3,7.523,7.166"/>
      <path class="st2" d="M253.682,102.701s7.7-1.166,7.7,3.583-7.882,3.134-7.882,3.134"/>
      <path class="st2" d="M257.871,109.58s3.462-.518,3.417,2.348c0,1.523-1.7,5.911-10.028,3.672"/>
      <path class="st10" d="M140.7,180.322c8.078,0,14.627-6.549,14.627-14.628s-6.549-14.627-14.627-14.627-14.627,6.549-14.627,14.627,6.549,14.628,14.627,14.628Z"/>
      <path class="st7" d="M140.652,176.432c6.038,0,10.933-4.895,10.933-10.933s-4.895-10.934-10.933-10.934-10.934,4.895-10.934,10.934,4.895,10.933,10.934,10.933Z"/>
      <path class="st9" d="M133.165,152.805l-2.715-2.568s-3.739,1.026-3.887,3.963l2.129,2.273s2.86-3.302,4.476-3.668h-.003Z"/>
      <path class="st9" d="M148.354,153.023s3.815,3.303,4.181,3.889l2.273-2.494s-.073-1.834-1.247-2.716c-1.173-.882-2.86-1.174-2.86-1.174l-2.347,2.495h0Z"/>
      <path class="st4" d="M138.228,150.897s3.376-.366,4.624.074v-1.321l-.366-1.063s-.947-.258-2.055-.258c-2.129,0-2.177.796-2.203.881-.025.085,0,1.687,0,1.687Z"/>
      <path class="st2" d="M140.578,180.137c8.125,0,14.712-6.587,14.712-14.712s-6.587-14.712-14.712-14.712-14.712,6.587-14.712,14.712,6.587,14.712,14.712,14.712Z"/>
      <path class="st2" d="M140.578,176.512c6.123,0,11.087-4.964,11.087-11.087s-4.964-11.087-11.087-11.087-11.087,4.964-11.087,11.087,4.964,11.087,11.087,11.087Z"/>
      <path class="st4" d="M140.578,167.455c1.121,0,2.03-.909,2.03-2.03s-.909-2.029-2.03-2.029-2.03.908-2.03,2.029.909,2.03,2.03,2.03Z"/>
      <path class="st2" d="M144.433,169.156l2.441,2.44"/>
      <path class="st2" d="M128.763,156.326l-2.004-1.885c-.309-.292-.386-.757-.179-1.129.451-.813,1.443-2.174,3.308-2.945.332-.139.717-.057.981.19l2.075,1.953"/>
      <path class="st2" d="M128.213,151.668l2.653,2.48"/>
      <path class="st2" d="M129.29,150.86l2.653,2.483"/>
      <path class="st2" d="M127.088,152.742l2.656,2.484"/>
      <path class="st2" d="M152.611,156.521l2.005-1.885c.309-.292.385-.757.178-1.128-.451-.814-1.443-2.175-3.308-2.946-.332-.138-.717-.056-.981.19l-2.075,1.954"/>
      <path class="st2" d="M153.161,151.863l-2.653,2.481"/>
      <path class="st2" d="M152.087,151.056l-2.656,2.483"/>
      <path class="st2" d="M154.287,152.938l-2.653,2.483"/>
      <path class="st2" d="M138.205,150.798v-1.505c0-.573.465-1.038,1.038-1.038h2.619c.573,0,1.037.465,1.037,1.038v1.442"/>
      <path class="st4" d="M141.482,158.676h-1.859v6.553h1.859v-6.553Z"/>
      <path class="st4" d="M141.468,164.575l-1.314,1.315,6.624,6.625,1.315-1.315-6.625-6.625Z"/>
    </g>
  </g>
</svg>