<svg xmlns="http://www.w3.org/2000/svg" xmlns:xlink="http://www.w3.org/1999/xlink" id="Layer_1" x="0" y="0" version="1.1" viewBox="0 0 80 80" style="enable-background:new 0 0 80 80" xml:space="preserve"><style type="text/css">.st0{fill:#0b1b34}.st1{fill:#fff}.st2{fill:#0185ff}</style><path d="M27.4,56c-7.4,0-13.4-6-13.4-13.4V38c0-7.4,6-13.4,13.4-13.4V56z" class="st0"/><path d="M28.2,56.8h-0.8c-7.8,0-14.2-6.3-14.2-14.2V38c0-7.8,6.3-14.2,14.2-14.2h0.8V56.8z M26.6,25.5	c-6.6,0.4-11.8,5.8-11.8,12.5v4.6c0,6.6,5.2,12.1,11.8,12.5V25.5z" class="st1"/><path d="M7.6,52.4H54v-24H7.6V52.4z" class="st2"/><path d="M54.1,53.1H7.7c-0.5,0-0.8-0.3-0.8-0.8v-24c0-0.5,0.3-0.8,0.8-0.8h46.4c0.5,0,0.8,0.3,0.8,0.8v24	C54.9,52.8,54.5,53.1,54.1,53.1z M8.5,51.5h44.8V29.1H8.5V51.5z" class="st1"/><path d="M47.4,49.1c0-1.8,1.4-3.2,3.2-3.2V34.7c-1.8,0-3.2-1.4-3.2-3.2H14.9c0,1.8-1.4,3.2-3.2,3.2v11.2	c1.8,0,3.2,1.4,3.2,3.2H47.4z" class="st2"/><path d="M47.4,49.9H14.1v-0.8c0-1.4-1-2.4-2.4-2.4h-0.8v-0.8v-12h0.8c1.4,0,2.4-1,2.4-2.4v-0.8h34.2v0.8	c0,1.3,1,2.4,2.4,2.4h0.8v0.8v12h-0.8c-1.4,0-2.4,1-2.4,2.4v0.8H47.4z M15.6,48.3h31.1c0.3-1.6,1.5-2.8,3.1-3.1v-9.8	c-1.6-0.3-2.8-1.5-3.1-3.1H15.6c-0.3,1.5-1.5,2.8-3.1,3.1v9.8C14,45.5,15.3,46.8,15.6,48.3z" class="st1"/><path d="M30.9,45.5c2.7,0,4.8-2.1,4.8-4.8c0-2.7-2.1-4.8-4.8-4.8c-2.7,0-4.8,2.1-4.8,4.8C26.1,43.4,28.2,45.5,30.9,45.5	z" class="st2"/><path d="M30.9,46.3c-3.1,0-5.6-2.6-5.6-5.6c0-3.1,2.6-5.6,5.6-5.6s5.6,2.6,5.6,5.6C36.6,43.8,34,46.3,30.9,46.3z M30.9,36.6c-2.2,0-4,1.8-4,4s1.8,4,4,4s4-1.8,4-4S33.1,36.6,30.9,36.6z" class="st1"/><path d="M27.4,24.7L33,40.3L27.4,56H72V24.7H27.4z" class="st0"/><path d="M72.8,56.8H26.3l5.8-16.5l-5.8-16.4h46.5V56.8z M28.6,55.2h42.6V25.5H28.6l5.3,14.8L28.6,55.2z" class="st1"/><path d="M71.8,56.2l-6.5-6.5c-0.2-0.2-0.2-0.3-0.2-0.6V30.8c0-0.2,0.1-0.4,0.2-0.6l6.1-6.1l1.1,1.1l-5.8,5.8v17.7	l6.2,6.2L71.8,56.2z" class="st1"/><path d="M65.9,39.5H33v1.6h32.9V39.5z" class="st1"/></svg>