<svg xmlns="http://www.w3.org/2000/svg" xmlns:xlink="http://www.w3.org/1999/xlink" id="Layer_1" x="0" y="0" version="1.1" viewBox="0 0 80 80" style="enable-background:new 0 0 80 80" xml:space="preserve"><style type="text/css">.st0{fill:#f68dfe}.st1{fill:#fff}.st2{fill:#0b1b34}</style><path d="M16.8,52h46.4V28H16.8V52z" class="st0"/><path d="M63.2,52.8H16.8c-0.5,0-0.8-0.3-0.8-0.8V28c0-0.5,0.3-0.8,0.8-0.8h46.4c0.5,0,0.8,0.3,0.8,0.8v24	C64,52.5,63.7,52.8,63.2,52.8z M17.6,51.2h44.8V28.8H17.6V51.2z" class="st1"/><path d="M56.2,48.8c0-1.8,1.4-3.2,3.2-3.2V34.4c-1.8,0-3.2-1.4-3.2-3.2H23.8c0,1.8-1.4,3.2-3.2,3.2v11.2	c1.8,0,3.2,1.4,3.2,3.2H56.2z" class="st0"/><path d="M56.2,49.6H23v-0.8c0-1.4-1-2.4-2.4-2.4h-0.8v-0.8v-12h0.8c1.4,0,2.4-1,2.4-2.4v-0.8h34.2v0.8	c0,1.3,1,2.4,2.4,2.4h0.8v0.8v12h-0.8c-1.4,0-2.4,1-2.4,2.4v0.8H56.2z M24.5,48h31.1c0.3-1.6,1.5-2.8,3.1-3.1v-9.8	c-1.6-0.3-2.8-1.5-3.1-3.1H24.5c-0.3,1.5-1.5,2.8-3.1,3.1v9.8C22.9,45.2,24.2,46.4,24.5,48z" class="st1"/><path d="M40,45.2c2.7,0,4.8-2.1,4.8-4.8c0-2.7-2.1-4.8-4.8-4.8c-2.7,0-4.8,2.1-4.8,4.8C35.2,43.1,37.3,45.2,40,45.2z" class="st0"/><path d="M40,46c-3.1,0-5.6-2.6-5.6-5.6c0-3,2.6-5.6,5.6-5.6s5.6,2.6,5.6,5.6C45.6,43.4,43.1,46,40,46z M40,36.3	c-2.2,0-4,1.8-4,4s1.8,4,4,4s4-1.8,4-4S42.2,36.3,40,36.3z" class="st1"/><path d="M60.7,48.3l-1.1,1.1l8.2,8.2l1.1-1.1L60.7,48.3z" class="st1"/><path d="M61.5,47.4l-2.8,2.8l8.2,8.2l2.8-2.8L61.5,47.4z" class="st2"/><path d="M66.9,59.2c-0.2,0-0.4-0.1-0.6-0.2l-8.2-8.2c-0.3-0.3-0.3-0.8,0-1.1l2.8-2.8c0.2-0.2,0.3-0.2,0.6-0.2	c0.2,0,0.4,0.1,0.6,0.2l8.2,8.2c0.3,0.3,0.3,0.8,0,1.1L67.4,59C67.3,59.1,67,59.2,66.9,59.2z M59.8,50.2l7,7l1.7-1.7l-7-7L59.8,50.2	z" class="st1"/><path d="M70.3,48.7l-8,2.3L60,59l-7.1-17.4L70.3,48.7z" class="st2"/><path d="M60,59.8c-0.3,0-0.6-0.2-0.7-0.5l-7.1-17.4c-0.2-0.3-0.1-0.6,0.2-0.9c0.2-0.2,0.6-0.3,0.9-0.2L70.6,48	c0.3,0.2,0.5,0.5,0.5,0.8s-0.2,0.6-0.6,0.7L63,51.7l-2.2,7.5C60.7,59.5,60.4,59.8,60,59.8C60,59.8,60.1,59.8,60,59.8z M54.3,43	l5.5,13.5l1.7-5.8c0.1-0.2,0.3-0.5,0.6-0.6l5.8-1.7L54.3,43z" class="st1"/></svg>