<svg width="136" height="128" viewBox="0 0 136 128" fill="none" xmlns="http://www.w3.org/2000/svg">
<g id="Illustration">
<path id="Vector" d="M20.9596 119.21C20.9596 119.21 21.6229 120.98 23.2829 120.98C24.9429 120.98 27.3762 121.09 27.3762 121.09L28.9262 122.416C28.9262 122.416 30.1429 126.62 33.4595 126.176C36.7761 125.733 36.5561 123.19 36.5561 123.19C36.5561 123.19 39.4328 122.526 39.8728 120.203C39.8728 120.203 42.5261 119.76 42.7494 117.66C42.7494 117.66 47.2894 119.186 53.2026 116.266C59.1159 113.346 58.0126 107.043 58.0126 107.043C58.0126 107.043 55.5793 100.74 54.8059 100.187C54.0326 99.6332 51.8193 97.7533 51.8193 97.7533L21.9563 89.0167L31.1362 109.92C31.1362 109.92 17.753 110.803 20.9596 119.21Z" fill="#FFFAF0"/>
<path id="Vector_2" d="M4.70031 76.5168C4.70031 76.5168 4.36697 83.3734 15.7602 87.0234C27.1534 90.6733 49.9365 97.1999 49.9365 97.1999C49.9365 97.1999 66.6364 100.85 69.0697 92.0033C71.503 83.1567 67.1297 80.8901 63.873 78.8434C63.873 78.8434 49.1632 70.7702 33.9 67.2303C18.6368 63.6903 10.7836 63.2503 6.58362 70.1069C5.70029 72.5402 4.59364 75.5267 4.70364 76.5201L4.70031 76.5168Z" fill="#03D47C"/>
<path id="Vector_3" d="M27.2634 85.3667C30.868 85.3667 33.79 82.4448 33.79 78.8402C33.79 75.2357 30.868 72.3136 27.2634 72.3136C23.6589 72.3136 20.7368 75.2357 20.7368 78.8402C20.7368 82.4448 23.6589 85.3667 27.2634 85.3667Z" fill="#FFFAF0"/>
<path id="Vector_4" d="M40.5361 89.7899C44.1407 89.7899 47.0627 86.8678 47.0627 83.2633C47.0627 79.6587 44.1407 76.7368 40.5361 76.7368C36.9316 76.7368 34.0095 79.6587 34.0095 83.2633C34.0095 86.8678 36.9316 89.7899 40.5361 89.7899Z" fill="#FFFAF0"/>
<path id="Vector_5" d="M35.3361 52.187C35.3361 52.187 29.5129 46.5837 24.9396 53.2203C20.3696 59.8569 28.0362 65.3136 28.0362 65.3136L39.6861 69.0003L47.5027 68.4103C47.5027 68.4103 43.0794 65.3136 46.176 62.3636C49.2727 59.4137 51.336 65.167 55.1726 63.397C59.0059 61.627 58.5659 54.4004 54.2893 51.6004L52.666 52.7804L51.7826 7.36076C51.7826 7.36076 50.3093 0.577492 42.9361 1.02082C35.5628 1.46415 35.1195 5.44418 34.6795 9.42747C34.2362 13.4074 35.3428 52.1904 35.3428 52.1904L35.3361 52.187Z" fill="#F68DFE"/>
<path id="Vector_6" d="M35.3363 52.1869C35.3363 52.1869 35.363 52.207 35.4097 52.247C36.0463 52.7703 40.6796 56.477 44.0729 56.167C47.7229 55.8337 52.1462 52.737 52.1462 52.737L52.3662 47.7604C52.3662 47.7604 44.5129 45.217 35.333 47.6503V52.1837L35.3363 52.1869Z" fill="#E4BC07"/>
<path id="Vector_7" d="M79.5758 112.793L75.9259 123.19C75.9259 123.19 75.5925 125.07 78.8025 125.07H97.6057C97.6057 125.07 100.369 123.853 100.482 122.083C100.592 120.313 99.819 119.206 99.819 119.206L87.4324 113.233L79.5792 112.79L79.5758 112.793Z" fill="#FED607"/>
<path id="Vector_8" d="M121.492 111.356V119.1H132.662C132.662 119.1 134.762 117.883 134.762 115.12V98.64C134.762 98.64 133.879 95.3233 131.666 95.1C129.452 94.8766 128.236 96.87 128.236 96.87L121.489 111.36L121.492 111.356Z" fill="#FED607"/>
<path id="Vector_9" d="M23.54 94.5834L21.0334 89.1267L1.42023 111.1C1.42023 111.1 0.903572 114.86 1.64023 116.41C2.37689 117.96 5.77018 119.36 5.77018 119.36L20.5167 119.213C20.5167 119.213 19.1167 114.566 21.6234 112.873L8.86682 112.726L8.05683 112.283L23.54 94.5866V94.5834Z" fill="#002140"/>
<path id="Vector_10" d="M46.103 118.62H77.5127L79.4294 112.13L57.3096 112.276C57.3096 112.276 51.263 117.436 49.3463 117.66C47.4297 117.883 46.103 118.62 46.103 118.62Z" fill="#002140"/>
<path id="Vector_11" d="M87.4287 113.016L99.7053 119.543H120.938C120.938 119.543 121.712 113.35 120.828 111.8H87.5387L87.4287 113.016Z" fill="#002140"/>
<path id="Vector_12" d="M79.4293 112.13C79.4293 112.13 84.8859 114.01 87.4292 113.013L98.1558 84.3667C98.1558 84.3667 99.8157 78.1734 94.5058 76.8468C89.1958 75.5201 83.0026 83.0401 83.0026 83.0401L58.0061 109.473L57.3062 112.276L67.2961 112.24L85.8759 90.8933C85.8759 90.8933 87.0925 90.34 86.7592 92.11C86.4259 93.8799 79.4226 112.13 79.4226 112.13H79.4293Z" fill="#002140"/>
<path id="Vector_13" d="M76.3691 88.6834L75.7057 91.3367L80.7924 86.9134L82.3423 82.8201C82.3423 82.8201 80.4624 67.7802 62.5459 65.5669C62.5459 65.5669 60.7759 66.4503 61.2192 69.1069C61.2192 69.1069 76.5157 71.8302 76.3724 88.6834H76.3691Z" fill="#002140"/>
<path id="Vector_14" d="M51.4826 63.1369C51.4826 63.1369 50.4859 61.4769 48.276 61.5869C46.0626 61.6969 45.2893 63.1368 45.2893 64.0201C45.2893 64.9035 46.616 68.3335 51.3726 69.3302C56.1292 70.3268 60.8825 69.5502 60.8825 69.5502C60.8825 69.5502 60.3292 66.0102 64.4225 64.6835C68.5157 63.3569 73.3057 61.3303 73.3824 60.037C73.4557 58.747 72.499 57.1603 71.3924 57.3837C71.3924 57.3837 72.609 54.8403 70.7291 54.067C68.8491 53.2936 64.9791 54.5104 62.8758 57.827C62.8758 57.827 62.1025 50.417 57.6792 48.867C54.9159 47.6503 54.3625 51.4104 54.3625 51.4104C54.3625 51.4104 61.1092 57.9369 56.4625 62.5802C53.7259 64.6269 51.4859 63.1336 51.4859 63.1336L51.4826 63.1369Z" fill="#FFFAF0"/>
<path id="Vector_15" d="M41.3093 105.383C41.3093 105.383 40.976 106.71 39.4294 106.046C37.8794 105.383 37.9927 103.503 37.9927 103.503C37.9927 103.503 35.1894 105.053 34.8961 103.283C34.6027 101.513 34.0127 101.733 35.2294 100.52C36.446 99.3064 37.8827 96.9799 37.8827 96.9799C37.8827 96.9799 35.1194 94.9432 33.6794 95.3199C32.2394 95.6966 30.1394 97.6432 30.1394 98.3065C30.1394 98.9699 29.9195 105.606 38.4327 108.04C46.9493 110.473 48.0559 107.706 48.6093 106.38C49.1626 105.053 50.2692 103.726 48.1659 102.73C46.0659 101.733 44.296 101.18 44.296 101.18L41.3093 105.383Z" fill="#002140"/>
<path id="Vector_16" d="M36.4893 53.0404L38.2592 54.5871L45.2625 46.9939L41.4292 47.5839L36.4893 53.0404Z" fill="#002140"/>
<path id="Vector_17" d="M41.1362 55.8405L44.5995 55.9904L52.2695 48.0271L49.0995 47.6571L41.1362 55.8405Z" fill="#002140"/>
<path id="Vector_18" d="M18.5 64.5402C18.5 64.5402 12.3801 65.2769 10.2434 66.6035C10.2434 66.6035 10.3901 74.1236 16.4367 72.2802C22.4833 70.4369 19.3866 64.6137 18.5 64.537V64.5402Z" fill="#002140"/>
<path id="Vector_19" d="M12.0835 75.3801C12.0835 75.3801 7.14358 75.3802 6.18359 80.1001C6.18359 80.1001 9.06022 84.0801 11.1235 84.8934C11.1235 84.8934 15.1802 84.8201 15.6935 81.2801C16.2102 77.7402 13.7035 75.4568 12.0802 75.3801H12.0835Z" fill="#002140"/>
<path id="Vector_20" d="M41.5028 69.7037C41.5028 69.7037 33.8362 66.9003 32.5062 66.977C31.1796 67.0503 31.3996 72.6536 35.7495 73.6869C40.0995 74.7202 41.4995 69.707 41.4995 69.707L41.5028 69.7037Z" fill="#002140"/>
<path id="Vector_21" d="M60.8225 77.6669L53.8925 74.3502C53.8925 74.3502 51.6792 76.3035 51.4592 77.5201C51.2392 78.7368 51.8292 83.0501 55.0725 83.4201C58.3158 83.7901 60.9725 81.0601 60.8225 77.6702V77.6669Z" fill="#002140"/>
<path id="Vector_22" d="M67.529 82.4601C67.529 82.4601 64.8024 83.1967 64.9491 86.3666C65.0957 89.5366 69.4457 90.1999 69.4457 90.1999C69.4457 90.1999 71.659 84.2266 67.529 82.4567V82.4601Z" fill="#002140"/>
<path id="Vector_23" d="M54.5525 97.9432L59.4924 98.3865C59.4924 98.3865 62.6624 95.8798 61.9991 93.5199C61.3358 91.1599 59.4191 89.2433 56.3958 89.4633C53.3725 89.6833 52.7592 92.6899 52.6358 93.4432C52.0458 95.4332 54.0358 97.7932 54.5525 97.9399V97.9432Z" fill="#002140"/>
<path id="Vector_24" d="M34.646 101.703L38.1126 97.1333C38.1126 97.1333 33.7627 93.6667 31.1094 96.9867C28.4561 100.303 32.806 104.95 32.806 104.95C32.806 104.95 38.706 109.3 43.1293 109.447C47.5526 109.593 48.9525 106.13 48.9525 106.13L48.7325 103.55L44.4559 101.043L40.476 106.28C40.476 106.28 39.3693 106.207 38.706 105.987C38.0426 105.767 38.2626 103.333 38.2626 103.333C38.2626 103.333 35.7193 104.253 35.2227 103.757C34.726 103.26 34.6527 101.71 34.6527 101.71L34.646 101.703Z" fill="#002140"/>
<path id="Vector_25" d="M57.946 98.6066C57.946 98.6066 60.4527 104.063 62.886 104.356L66.7926 100.743L63.476 97.2032L57.946 98.6031V98.6066Z" fill="#002140"/>
<path id="Vector_26" d="M30.2966 56.5803C30.2966 56.5803 42.6832 66.9769 53.8531 57.7969" stroke="#002140" stroke-width="0.99999" stroke-linecap="round" stroke-linejoin="round"/>
<path id="Vector_27" d="M42.9031 70.0703C32.9332 67.1137 11.3667 58.217 5.58345 72.2202C1.86348 81.2234 11.0534 85.6201 18.1367 87.8301C27.7799 90.84 37.4198 93.88 47.1497 96.6C54.6496 98.6933 64.3429 100.733 68.7628 92.3933C69.5195 90.9634 70.0328 89.38 70.0428 87.7633C70.0728 82.0801 63.4162 78.9168 59.1296 76.7202C53.9563 74.0702 48.483 71.7236 42.9031 70.0703Z" stroke="#002140" stroke-width="0.99999" stroke-linecap="round" stroke-linejoin="round"/>
<path id="Vector_28" d="M26.9794 85.7766C30.7662 85.7766 33.836 82.7562 33.836 79.0301C33.836 75.3041 30.7662 72.2834 26.9794 72.2834C23.1926 72.2834 20.1228 75.3041 20.1228 79.0301C20.1228 82.7562 23.1926 85.7766 26.9794 85.7766Z" stroke="#002140" stroke-width="0.99999" stroke-linecap="round" stroke-linejoin="round"/>
<path id="Vector_29" d="M24.2501 78.1835L28.3867 78.4434C28.51 76.0001 27.0634 73.8634 24.9501 73.5268C22.6568 73.1635 20.4535 75.0535 20.0235 77.7468C19.5935 80.4401 21.1068 82.92 23.4001 83.2834C24.7367 83.4967 26.0401 82.9402 26.9801 81.9102L24.2468 78.1835H24.2501Z" fill="#002140"/>
<path id="Vector_30" d="M40.3959 90.0533C44.1827 90.0533 47.2525 87.0328 47.2525 83.3067C47.2525 79.5807 44.1827 76.5601 40.3959 76.5601C36.6091 76.5601 33.5393 79.5807 33.5393 83.3067C33.5393 87.0328 36.6091 90.0533 40.3959 90.0533Z" stroke="#002140" stroke-width="0.99999" stroke-linecap="round" stroke-linejoin="round"/>
<path id="Vector_31" d="M37.6696 82.4601L41.8062 82.72C41.9296 80.2767 40.4829 78.1401 38.3696 77.8034C36.0763 77.4401 33.873 79.3301 33.443 82.0234C33.0163 84.7167 34.5263 87.1966 36.8196 87.56C38.1563 87.7733 39.4596 87.2166 40.3996 86.1866L37.6663 82.4601H37.6696Z" fill="#002140"/>
<path id="Vector_32" d="M47.733 68.3403C47.733 68.3403 41.9631 68.9135 39.5198 69.0135" stroke="#002140" stroke-width="0.99999" stroke-linecap="round" stroke-linejoin="round"/>
<path id="Vector_33" d="M35.383 52.3771C35.383 52.3771 34.533 11.3774 34.533 10.0274C34.533 8.67739 33.9464 1.39422 42.9063 1.28088C50.4262 1.28088 51.8662 5.37422 51.8662 8.91085C51.7562 10.3475 52.4128 52.817 52.4128 52.817" stroke="#002140" stroke-width="0.99999" stroke-linecap="round" stroke-linejoin="round"/>
<path id="Vector_34" d="M35.4932 47.5104C35.4932 47.5104 46.2197 46.2938 51.973 47.6204" stroke="#002140" stroke-width="0.99999" stroke-linecap="round" stroke-linejoin="round"/>
<path id="Vector_35" d="M36.3428 53.187L41.946 47.0671" stroke="#002140" stroke-width="0.99999" stroke-linecap="round" stroke-linejoin="round"/>
<path id="Vector_36" d="M38.4795 54.5136L45.4894 47.0038" stroke="#002140" stroke-width="0.99999" stroke-linecap="round" stroke-linejoin="round"/>
<path id="Vector_37" d="M41.5029 55.547L49.2462 47.2039" stroke="#002140" stroke-width="0.99999" stroke-linecap="round" stroke-linejoin="round"/>
<path id="Vector_38" d="M44.4526 56.0638L52.1959 47.7205" stroke="#002140" stroke-width="0.99999" stroke-linecap="round" stroke-linejoin="round"/>
<path id="Vector_39" d="M63.9929 60.7804C67.9729 58.5671 72.6928 56.4303 73.5028 58.937C74.3128 61.4436 68.3429 63.7304 64.1396 65.057C59.9363 66.3837 61.3363 69.4803 61.3363 69.4803C61.3363 69.4803 57.3563 70.5136 53.6897 70.0803C51.043 69.7703 47.5697 68.7136 45.8464 66.5237C44.0064 64.1837 46.6764 60.4804 49.4764 61.6671C50.143 61.9504 50.6664 62.4837 51.2564 62.9037C52.7797 63.9837 55.2263 64.3937 56.623 62.9037C59.3463 60.0038 57.7963 53.3837 54.4097 51.597" stroke="#002140" stroke-width="0.99999" stroke-linecap="round" stroke-linejoin="round"/>
<path id="Vector_40" d="M71.1423 57.7571C71.1423 57.7571 72.6923 55.6204 71.069 54.2904C69.4457 52.9637 64.6557 54.1437 62.5891 58.7137C63.0524 57.6903 62.3958 55.3437 62.1624 54.3371C61.5224 51.5638 59.6658 48.6171 56.4558 48.7071C54.8192 48.7504 54.1825 50.1305 54.4058 51.6005C52.7459 52.1538 51.4192 55.1404 44.6726 56.0237C37.926 56.9071 35.936 51.7105 31.7327 50.4939C27.5295 49.2772 24.6561 52.4838 23.8628 54.9038C22.8695 57.3104 22.8962 62.4737 28.8961 65.9136" stroke="#002140" stroke-width="0.99999" stroke-linecap="round" stroke-linejoin="round"/>
<path id="Vector_41" d="M30.6297 109.776L21.1165 88.7633" stroke="#002140" stroke-width="0.99999" stroke-linecap="round" stroke-linejoin="round"/>
<path id="Vector_42" d="M42.6826 117.85C42.6826 117.85 43.8993 118.403 46.5526 118.293C49.2059 118.183 58.0558 116.193 58.0558 108.783C58.0558 101.373 51.5292 97.7233 51.5292 97.7233" stroke="#002140" stroke-width="0.99999" stroke-linecap="round" stroke-linejoin="round"/>
<path id="Vector_43" d="M30.2962 100.596C30.2962 100.596 30.7395 104.577 36.7094 107.453C39.5161 108.803 44.686 110.643 47.4793 108.263C48.9693 106.993 49.876 104.123 47.9927 102.81C46.3893 101.693 44.5094 101.066 42.7461 100.24C41.3661 99.5932 40.0261 98.8232 38.9261 97.7532C37.2528 96.1232 34.6095 94.7233 32.2862 95.8899C30.5562 96.7599 30.1028 98.8232 30.2995 100.6L30.2962 100.596Z" stroke="#002140" stroke-width="0.99999" stroke-linecap="round" stroke-linejoin="round"/>
<path id="Vector_44" d="M37.8728 97.2233C37.8728 97.2233 36.4895 99.2698 35.1628 100.93C33.8362 102.59 34.7762 103.42 35.2195 103.75C35.6628 104.083 36.9161 104.45 38.2595 102.55C39.6061 100.65 40.5828 99.2698 40.5828 99.2698" stroke="#002140" stroke-width="0.99999" stroke-linecap="round" stroke-linejoin="round"/>
<path id="Vector_45" d="M41.3393 99.7399C40.9226 100.347 39.8493 101.883 38.8093 103.18C37.4827 104.84 38.4226 105.67 38.866 106C39.3093 106.333 40.5626 106.7 41.9059 104.8C43.2526 102.9 44.2293 101.52 44.2293 101.52" stroke="#002140" stroke-width="0.99999" stroke-linecap="round" stroke-linejoin="round"/>
<path id="Vector_46" d="M36.4897 123.38C36.4897 123.38 38.3697 123.546 39.3664 122.22C40.363 120.893 39.8097 117.353 35.1631 115.03" stroke="#002140" stroke-width="0.99999" stroke-linecap="round" stroke-linejoin="round"/>
<path id="Vector_47" d="M40.016 120.486C40.656 120.416 41.6193 120.17 42.2426 119.343C43.2393 118.016 42.6859 114.476 38.0393 112.153C38.0393 112.153 33.8927 110.163 31.1261 110.163C24.3795 110.163 19.9562 113.04 20.0095 116.8C20.0095 116.8 20.1762 121.28 23.6595 121.17C27.1428 121.06 28.0828 120.95 28.9128 122.22C29.7428 123.493 30.9027 126.533 33.1694 126.533C35.436 126.533 36.266 125.373 36.266 123.656C36.266 121.94 33.4461 118.9 30.9027 117.573" stroke="#002140" stroke-width="0.99999" stroke-linecap="round" stroke-linejoin="round"/>
<path id="Vector_48" d="M21.4496 113.04H9.143C8.63634 113.04 8.36301 112.443 8.69634 112.06L23.5529 94.8999" stroke="#002140" stroke-width="0.99999" stroke-linecap="round" stroke-linejoin="round"/>
<path id="Vector_49" d="M21.3363 89.15L2.41652 110.343C-0.766781 113.91 1.7632 119.563 6.54648 119.563H20.5063" stroke="#002140" stroke-width="0.99999" stroke-linecap="round" stroke-linejoin="round"/>
<path id="Vector_50" d="M79.3291 112.35L57.5027 112.32" stroke="#002140" stroke-width="0.99999" stroke-linecap="round" stroke-linejoin="round"/>
<path id="Vector_51" d="M47.3191 118.226L77.6321 118.413" stroke="#002140" stroke-width="0.99999" stroke-linecap="round" stroke-linejoin="round"/>
<path id="Vector_52" d="M58.0195 110.257L84.5459 81.8135C84.5459 81.8135 84.5659 81.79 84.5759 81.7767C84.8259 81.4634 88.5592 76.8534 93.1892 76.8534C97.8191 76.8534 99.4891 81.4968 97.9825 85.3335L87.1392 112.913C87.0492 113.14 86.8392 113.296 86.5992 113.316C85.3326 113.42 81.3826 113.65 79.916 112.663C79.6793 112.506 79.596 112.2 79.6893 111.933L86.8826 91.8067C87.1159 91.15 86.2792 90.65 85.8126 91.1633L66.7961 112.103" stroke="#002140" stroke-width="0.99999" stroke-linecap="round" stroke-linejoin="round"/>
<path id="Vector_53" d="M79.6888 111.93L76.3055 122.57C76.3055 122.57 75.2722 125.223 78.6655 125.223H96.802C96.802 125.223 100.709 124.853 100.709 121.83C100.709 121.83 100.929 120.356 99.4553 119.323C97.982 118.29 87.1387 112.91 87.1387 112.91" stroke="#002140" stroke-width="0.99999" stroke-linecap="round" stroke-linejoin="round"/>
<path id="Vector_54" d="M86.7759 117.406C86.7759 117.406 87.7359 114.68 89.3558 114.236" stroke="#002140" stroke-width="0.99999" stroke-linecap="round" stroke-linejoin="round"/>
<path id="Vector_55" d="M91.1255 119.546C91.1255 119.546 92.0855 116.82 93.7055 116.376" stroke="#002140" stroke-width="0.99999" stroke-linecap="round" stroke-linejoin="round"/>
<path id="Vector_56" d="M99.9724 119.473C99.9724 119.473 129.465 119.503 132.025 119.503C134.585 119.503 134.679 115.563 134.679 115.563V99.0066C134.679 99.0066 134.309 95.0999 131.285 95.0999C131.285 95.0999 129.812 94.8798 128.779 96.3531C127.745 97.8265 121.206 111.953 121.206 111.953C121.206 111.953 121.942 117.703 121.132 119.4" stroke="#002140" stroke-width="0.99999" stroke-linecap="round" stroke-linejoin="round"/>
<path id="Vector_57" d="M126.865 109.033C126.865 109.033 124.139 108.073 123.695 106.453" stroke="#002140" stroke-width="0.99999" stroke-linecap="round" stroke-linejoin="round"/>
<path id="Vector_58" d="M129.002 104.683C129.002 104.683 126.275 103.723 125.832 102.103" stroke="#002140" stroke-width="0.99999" stroke-linecap="round" stroke-linejoin="round"/>
<path id="Vector_59" d="M87.6592 112.026H121.209" stroke="#002140" stroke-width="0.99999" stroke-linecap="round" stroke-linejoin="round"/>
<path id="Vector_60" d="M57.946 98.6798C57.946 98.6798 59.496 103.25 63.3293 104.283" stroke="#002140" stroke-width="0.99999" stroke-linecap="round" stroke-linejoin="round"/>
<path id="Vector_61" d="M63.6223 97.5C63.6223 97.5 64.729 99.8598 66.8656 100.596" stroke="#002140" stroke-width="0.99999" stroke-linecap="round" stroke-linejoin="round"/>
<path id="Vector_62" d="M61.3359 69.4835C61.3359 69.4835 76.6291 70.8602 76.6291 90.3" stroke="#002140" stroke-width="0.99999" stroke-linecap="round" stroke-linejoin="round"/>
<path id="Vector_63" d="M63.4023 65.5004C63.4023 65.5004 82.2921 70.2236 82.2921 84.2302" stroke="#002140" stroke-width="0.99999" stroke-linecap="round" stroke-linejoin="round"/>
<path id="Vector_64" d="M54.3392 97.91C53.2292 97.0534 52.5159 95.7099 52.5159 94.1999C52.5159 91.6133 54.6125 89.5167 57.1992 89.5167C59.7858 89.5167 61.8824 91.6133 61.8824 94.1999C61.8824 95.8966 60.9824 97.38 59.6325 98.2033" stroke="#002140" stroke-width="0.99999" stroke-linecap="round" stroke-linejoin="round"/>
<path id="Vector_65" d="M69.5392 90.2333C69.3525 90.2599 69.1625 90.2733 68.9692 90.2733C66.7492 90.2733 64.9492 88.4733 64.9492 86.2533C64.9492 84.4567 66.1292 82.9334 67.7592 82.42" stroke="#002140" stroke-width="0.99999" stroke-linecap="round" stroke-linejoin="round"/>
<path id="Vector_66" d="M60.6391 77.7201C60.7091 78.0468 60.7491 78.3869 60.7491 78.7369C60.7491 81.3635 58.6191 83.4935 55.9925 83.4935C53.3658 83.4935 51.2358 81.3635 51.2358 78.7369C51.2358 76.8469 52.3392 75.2136 53.9358 74.4469" stroke="#002140" stroke-width="0.99999" stroke-linecap="round" stroke-linejoin="round"/>
<path id="Vector_67" d="M6.34354 80.8467C6.31354 80.6267 6.29688 80.4001 6.29688 80.1701C6.29688 77.5434 8.42685 75.4135 11.0535 75.4135C13.6801 75.4135 15.8101 77.5434 15.8101 80.1701C15.8101 82.6534 13.9101 84.69 11.4835 84.9067" stroke="#002140" stroke-width="0.99999" stroke-linecap="round" stroke-linejoin="round"/>
<path id="Vector_68" d="M18.9128 64.6603C19.5162 65.4703 19.8762 66.4769 19.8762 67.5636C19.8762 70.2469 17.6995 72.4235 15.0162 72.4235C12.3329 72.4235 10.1562 70.2469 10.1562 67.5636C10.1562 67.2769 10.1829 66.9935 10.2296 66.7202" stroke="#002140" stroke-width="0.99999" stroke-linecap="round" stroke-linejoin="round"/>
<path id="Vector_69" d="M41.6829 69.8403C41.2429 72.0703 39.2729 73.7535 36.9129 73.7535C34.2296 73.7535 32.053 71.5768 32.053 68.8935C32.053 68.2402 32.183 67.617 32.4163 67.0503" stroke="#002140" stroke-width="0.99999" stroke-linecap="round" stroke-linejoin="round"/>
</g>
</svg>
