<svg xmlns="http://www.w3.org/2000/svg" xml:space="preserve" id="Layer_1" x="0" y="0" viewBox="0 0 139 128"><style>.st0{fill:#fffaf0}.st1{fill:#03d47c}.st2{fill:#f68dfe}.st3{fill:#e4bc07}.st4{fill:#fed607}.st5{fill:#003c73}.st6{fill:#002140}.st7{fill:none;stroke:#002140;stroke-width:1;stroke-linecap:round;stroke-linejoin:round}</style><path d="M22.46 119.21s.663 1.77 2.323 1.77 4.093.11 4.093.11l1.55 1.326s1.217 4.204 4.533 3.76 3.097-2.986 3.097-2.986 2.877-.664 3.317-2.987c0 0 2.653-.443 2.877-2.543 0 0 4.54 1.526 10.453-1.394s4.81-9.223 4.81-9.223-2.433-6.303-3.207-6.857c-.773-.553-2.987-2.433-2.987-2.433l-29.863-8.737 9.18 20.903c0 .001-13.383.884-10.176 9.291" class="st0"/><path d="M6.2 76.517s-.333 6.857 11.06 10.507S51.436 97.2 51.436 97.2s16.7 3.65 19.133-5.197-1.94-11.113-5.197-13.16c0 0-14.71-8.073-29.973-11.613s-23.116-3.98-27.316 2.877c-.883 2.433-1.99 5.42-1.88 6.413z" class="st1"/><path d="M28.763 85.367a6.526 6.526 0 1 0-6.527-6.526 6.526 6.526 0 0 0 6.527 6.526" class="st0"/><path d="M42.036 89.79a6.527 6.527 0 1 0 0-13.055 6.527 6.527 0 0 0 0 13.055" class="st0"/><path d="M36.836 52.187s-5.823-5.603-10.397 1.033c-4.57 6.637 3.097 12.093 3.097 12.093L41.186 69l7.817-.59s-4.423-3.097-1.327-6.047 5.16 2.803 8.997 1.033c3.833-1.77 3.393-8.997-.883-11.797l-1.623 1.18-.883-45.42s-1.473-6.783-8.847-6.34-7.817 4.423-8.257 8.407c-.443 3.98.663 42.763.663 42.763z" class="st2"/><path d="M36.836 52.187s.027.02.073.06c.637.523 5.27 4.23 8.663 3.92 3.65-.333 8.073-3.43 8.073-3.43l.22-4.977s-7.853-2.543-17.033-.11v4.533z" class="st3"/><path d="m81.076 112.793-3.65 10.397s-.333 1.88 2.877 1.88h18.803s2.764-1.217 2.877-2.987c.11-1.77-.663-2.877-.663-2.877l-12.387-5.973-7.853-.443zm41.916-1.437v7.744h11.17s2.1-1.217 2.1-3.98V98.64s-.883-3.317-3.096-3.54-3.43 1.77-3.43 1.77l-6.747 14.49z" class="st4"/><path d="m25.04 94.583-2.507-5.457L2.92 111.1s-.517 3.76.22 5.31 4.13 2.95 4.13 2.95l14.747-.147s-1.4-4.647 1.107-6.34l-12.757-.147-.81-.443L25.04 94.587zm22.563 24.037h31.41l1.917-6.49-22.12.146s-6.047 5.16-7.963 5.384c-1.917.223-3.244.96-3.244.96m41.326-5.604 12.276 6.527h21.234s.773-6.193-.111-7.743H89.039z" class="st5"/><path d="M80.929 112.13s5.457 1.88 8 .883l10.727-28.646s1.66-6.193-3.65-7.52-11.503 6.193-11.503 6.193l-24.996 26.433-.7 2.804 9.99-.037 18.58-21.346s1.217-.553.883 1.217c-.333 1.77-7.337 20.02-7.337 20.02z" class="st5"/><path d="m77.869 88.683-.663 2.653 5.087-4.423 1.55-4.093s-1.88-15.04-19.796-17.253c0 0-1.77.883-1.327 3.54 0 0 15.297 2.723 15.153 19.576z" class="st5"/><path d="M52.983 63.137s-.997-1.66-3.207-1.55c-2.213.11-2.987 1.55-2.987 2.433s1.327 4.313 6.083 5.31 9.51.22 9.51.22-.553-3.54 3.54-4.867 8.883-3.353 8.96-4.647c.073-1.29-.883-2.877-1.99-2.653 0 0 1.217-2.543-.663-3.317-1.88-.773-5.75.443-7.853 3.76 0 0-.773-7.41-5.197-8.96-2.763-1.217-3.317 2.543-3.317 2.543s6.747 6.527 2.1 11.17c-2.737 2.047-4.977.553-4.977.553z" class="st0"/><path d="M42.81 105.383s-.333 1.327-1.88.663c-1.55-.663-1.437-2.543-1.437-2.543s-2.803 1.55-3.097-.22c-.293-1.77-.883-1.55.333-2.763 1.217-1.214 2.653-3.54 2.653-3.54s-2.763-2.037-4.203-1.66-3.54 2.323-3.54 2.987c0 .663-.22 7.299 8.293 9.733 8.517 2.433 9.623-.334 10.177-1.66.553-1.327 1.66-2.654-.443-3.65-2.1-.997-3.87-1.55-3.87-1.55zM37.989 53.04l1.77 1.547 7.003-7.593-3.833.59zm4.647 2.8 3.463.15 7.67-7.963-3.17-.37zM20 64.54s-6.12.737-8.257 2.063c0 0 .147 7.52 6.193 5.677s2.95-7.667 2.063-7.743v.003zm-6.417 10.84s-4.94 0-5.9 4.72c0 0 2.877 3.98 4.94 4.793 0 0 4.057-.073 4.57-3.613.517-3.54-1.99-5.823-3.613-5.9zm29.42-5.676s-7.667-2.803-8.997-2.727c-1.327.073-1.107 5.677 3.243 6.71s5.75-3.98 5.75-3.98zm19.319 7.963-6.93-3.317s-2.213 1.953-2.433 3.17.37 5.53 3.613 5.9 5.9-2.36 5.75-5.75zm6.707 4.793s-2.727.737-2.58 3.907 4.497 3.833 4.497 3.833 2.213-5.973-1.917-7.743zM56.052 97.943l4.94.443s3.17-2.507 2.507-4.867-2.58-4.277-5.603-4.057-3.637 3.227-3.76 3.98c-.59 1.99 1.4 4.35 1.917 4.497z" class="st6"/><path d="m36.146 101.703 3.467-4.57s-4.35-3.467-7.003-.147c-2.653 3.316 1.697 7.963 1.697 7.963s5.9 4.35 10.323 4.496 5.823-3.316 5.823-3.316l-.22-2.58-4.277-2.507-3.98 5.237s-1.107-.074-1.77-.294-.443-2.653-.443-2.653-2.543.92-3.04.424-.57-2.047-.57-2.047z" class="st6"/><path d="M59.446 98.607s2.507 5.456 4.94 5.75l3.907-3.614-3.317-3.54-5.53 1.4z" class="st5"/><path d="M31.797 56.58s12.387 10.397 23.556 1.217M44.403 70.07c-9.97-2.957-31.536-11.853-37.32 2.15-3.72 9.003 5.47 13.4 12.553 15.61 9.643 3.01 19.283 6.05 29.013 8.77 7.5 2.093 17.193 4.133 21.613-4.207.757-1.43 1.27-3.013 1.28-4.63.03-5.683-6.627-8.846-10.913-11.043-5.173-2.65-10.646-4.996-16.226-6.65" class="st7"/><path d="M28.479 85.777c3.787 0 6.857-3.02 6.857-6.747s-3.07-6.747-6.857-6.747-6.857 3.021-6.857 6.747c.001 3.726 3.071 6.747 6.857 6.747" class="st7"/><path d="m25.75 78.183 4.137.26c.123-2.443-1.323-4.58-3.437-4.917-2.293-.363-4.497 1.527-4.927 4.22s1.083 5.173 3.377 5.537c1.337.213 2.64-.343 3.58-1.373l-2.733-3.727z" class="st6"/><path d="M41.896 90.053c3.787 0 6.857-3.021 6.857-6.747s-3.07-6.747-6.857-6.747-6.857 3.021-6.857 6.747 3.07 6.747 6.857 6.747" class="st7"/><path d="m39.169 82.46 4.137.26c.123-2.443-1.323-4.58-3.437-4.917-2.293-.363-4.497 1.527-4.927 4.22-.427 2.693 1.083 5.173 3.377 5.537 1.337.213 2.64-.343 3.58-1.373l-2.733-3.727z" class="st6"/><path d="M49.233 68.34s-5.77.573-8.213.673m-4.137-16.636s-.85-41-.85-42.35-.587-8.633 8.373-8.746c7.52 0 8.96 4.093 8.96 7.63-.11 1.437.547 43.906.547 43.906" class="st7"/><path d="M36.993 47.51s10.727-1.217 16.48.11m-15.63 5.567 5.603-6.12m-3.467 7.447 7.01-7.51m-3.986 8.543 7.743-8.343m-4.793 8.86 7.743-8.343M65.493 60.78c3.98-2.213 8.7-4.35 9.51-1.843s-5.16 4.793-9.363 6.12-2.803 4.423-2.803 4.423-3.98 1.033-7.647.6c-2.647-.31-6.12-1.367-7.843-3.557-1.84-2.34.83-6.043 3.63-4.857.667.283 1.19.817 1.78 1.237 1.523 1.08 3.97 1.49 5.367 0 2.723-2.9 1.173-9.52-2.213-11.307" class="st7"/><path d="M72.642 57.757s1.55-2.137-.073-3.467c-1.623-1.327-6.413-.147-8.48 4.423.463-1.023-.193-3.37-.427-4.377-.64-2.773-2.497-5.72-5.707-5.63-1.637.043-2.273 1.423-2.05 2.893-1.66.553-2.987 3.54-9.733 4.423s-8.737-4.313-12.94-5.53-7.077 1.99-7.87 4.41c-.993 2.407-.967 7.57 5.033 11.01m1.735 43.864-9.513-21.013m21.565 29.087s1.217.553 3.87.443 11.503-2.1 11.503-9.51-6.527-11.06-6.527-11.06" class="st7"/><path d="M31.796 100.596s.443 3.98 6.413 6.857c2.807 1.35 7.977 3.19 10.77.81 1.49-1.27 2.397-4.14.513-5.453-1.603-1.117-3.483-1.744-5.247-2.57-1.38-.647-2.72-1.417-3.82-2.487-1.673-1.63-4.317-3.03-6.64-1.863-1.73.87-2.183 2.933-1.987 4.71z" class="st7"/><path d="M39.373 97.223s-1.383 2.047-2.71 3.707-.387 2.49.057 2.82c.443.333 1.697.7 3.04-1.2 1.347-1.9 2.323-3.28 2.323-3.28m.756.47c-.417.607-1.49 2.143-2.53 3.44-1.327 1.66-.387 2.49.057 2.82.443.333 1.697.7 3.04-1.2 1.347-1.9 2.323-3.28 2.323-3.28m-7.739 21.86s1.88.166 2.877-1.16c.997-1.327.443-4.867-4.203-7.19" class="st7"/><path d="M41.516 120.486c.64-.07 1.603-.316 2.227-1.143.997-1.327.443-4.867-4.203-7.19 0 0-4.147-1.99-6.913-1.99-6.747 0-11.17 2.877-11.117 6.637 0 0 .167 4.48 3.65 4.37s4.423-.22 5.253 1.05c.83 1.273 1.99 4.313 4.257 4.313s3.097-1.16 3.097-2.877-2.82-4.756-5.363-6.083" class="st7"/><path d="M22.95 113.04H10.643a.592.592 0 0 1-.447-.98L25.053 94.9" class="st7"/><path d="m22.836 89.15-18.92 21.193c-3.183 3.567-.653 9.22 4.13 9.22h13.96m58.823-7.213-21.826-.03m-10.184 5.906 30.313.187m-19.612-8.156 26.526-28.443s.02-.023.03-.037c.25-.313 3.983-4.923 8.613-4.923s6.3 4.643 4.793 8.48l-10.843 27.579a.64.64 0 0 1-.54.404c-1.267.103-5.217.333-6.683-.654-.237-.156-.32-.463-.227-.73l7.193-20.126c.233-.657-.603-1.157-1.07-.643l-19.016 20.94" class="st7"/><path d="m81.189 111.93-3.383 10.64s-1.033 2.653 2.36 2.653h18.137s3.907-.37 3.907-3.393c0 0 .22-1.474-1.254-2.507S88.64 112.91 88.64 112.91" class="st7"/><path d="M88.276 117.406s.96-2.726 2.58-3.169m1.769 5.309s.96-2.726 2.58-3.17m6.267 3.097s29.493.03 32.053.03 2.654-3.94 2.654-3.94V99.007s-.37-3.907-3.394-3.907c0 0-1.473-.22-2.506 1.253-1.034 1.473-7.574 15.6-7.574 15.6s.737 5.75-.073 7.447" class="st7"/><path d="M128.365 109.033s-2.726-.96-3.17-2.58m5.307-1.77s-2.727-.96-3.17-2.58m-38.173 9.923h33.55M59.446 98.68s1.55 4.57 5.383 5.603m.293-6.783s1.107 2.36 3.243 3.096m-5.529-31.112s15.293 1.377 15.293 20.817" class="st7"/><path d="M64.902 65.5s18.89 4.723 18.89 18.73M55.839 97.91a4.683 4.683 0 1 1 5.293.293m9.907-7.97q-.28.04-.57.04a4.02 4.02 0 0 1-1.21-7.853m-7.12-4.7a4.757 4.757 0 1 1-6.704-3.273m-47.591 6.4a4.757 4.757 0 1 1 5.14 4.06m7.429-20.247a4.861 4.861 0 0 1-3.897 7.763 4.86 4.86 0 0 1-4.787-5.703m31.454 3.12a4.861 4.861 0 1 1-9.267-2.79" class="st7"/></svg>