<svg xmlns="http://www.w3.org/2000/svg" xmlns:xlink="http://www.w3.org/1999/xlink" id="Layer_1" x="0" y="0" version="1.1" viewBox="0 0 178 232" style="enable-background:new 0 0 178 232" xml:space="preserve"><style type="text/css">.st2{fill:#e4bc07}.st3{fill:#fffaf0}.st4{fill:#fed607}.st5{fill:#75f4f9}.st6{fill:none}.st6,.st7{stroke:#0c1b33;stroke-width:.9999;stroke-linecap:round;stroke-miterlimit:10}.st7,.st8{fill:#d1fdff}.st10,.st9{stroke:#0c1b33;stroke-width:.9999;stroke-linecap:round;stroke-miterlimit:10}.st9{fill:#75f4f9}.st10{fill:#fed607}.st11{fill:#e96df2}.st12{fill:#d18000}.st13{fill:#0c1b33}.st14{fill:none;stroke:#0c1b33;stroke-width:.9999;stroke-linecap:round;stroke-linejoin:round}</style><g><defs><rect id="SVGID_1_" width="178" height="232"/></defs><clipPath id="SVGID_00000124123589115998631850000002615763851119182757_"><use xlink:href="#SVGID_1_" style="overflow:visible"/></clipPath><g style="clip-path:url(#SVGID_00000124123589115998631850000002615763851119182757_)"><g><defs><rect id="SVGID_00000017494026720686681800000016822352786986069139_" width="178" height="232"/></defs><clipPath id="SVGID_00000044178834379425348630000011036444907850975417_"><use xlink:href="#SVGID_00000017494026720686681800000016822352786986069139_" style="overflow:visible"/></clipPath><g style="clip-path:url(#SVGID_00000044178834379425348630000011036444907850975417_)"><path d="M176.796,1.19c0.023,1.913,0.21,17.805,0.203,35.047c-0.013,19.788-3.02,29.747-8.949,37.389l-0.067-0.05 c1.147-1.72,2.097-5.666-0.703-11.792c-0.5-1.093-1.11-2.186-2.06-2.933c-1.37-1.083-3.273-1.287-4.986-0.947 c-1.51,0.3-2.67,2.28-3.45,3.666l-0.023-0.017c0.283-0.493,0.56-1.007,0.83-1.547c1.437-2.876,1.563-6.593-0.407-9.136 c-1.103-1.42-4.329-4.103-8.732-3.91l-0.143-0.033c0.969-4.113,0.716-7.436,0.716-7.436V1.19H176.796z" class="st2"/><path d="M156.788,61.567c0.78-1.387,1.94-3.366,3.449-3.666c1.714-0.337,3.613-0.133,4.987,0.947 c0.946,0.75,1.559,1.84,2.059,2.933c2.8,6.129,1.854,10.072,0.704,11.792l0.066,0.05c-1.126,1.453-2.363,2.823-3.703,4.163 c-6.136,6.589-14.622,8.879-20.628,9.646l-0.053-0.453c1.693-2.31,2.38-4.573,2.866-7.419c0.534-3.116,0.44-6.393-0.43-9.416 l0.054-0.017c1.533-0.766,2.743-1.14,5.746-3.256c2.136-1.507,3.613-3.2,4.863-5.323l0.023,0.017L156.788,61.567z" class="st3"/><path d="M157.188,50.869c1.97,2.543,1.843,6.259,0.406,9.136c-0.27,0.54-0.546,1.053-0.83,1.547 c-1.249,2.123-2.726,3.816-4.862,5.323c-3.003,2.117-4.213,2.49-5.747,3.256l-0.053,0.017c-0.48-1.676-1.2-3.273-2.186-4.719 c-1.58-2.326-3.77-3.853-6.376-4.87l-0.077-0.27c1.37-0.393,2.563-0.953,3.523-1.646c4.383-3.173,6.406-7.803,7.326-11.712 l0.143,0.033c4.403-0.19,7.629,2.49,8.733,3.91V50.869z M153.241,58.255c0-1.48-1.196-2.676-2.676-2.676 s-2.683,1.197-2.683,2.676c0,1.48,1.2,2.683,2.683,2.683S153.241,59.738,153.241,58.255z" class="st3"/><path d="M150.562,55.578c1.48,0,2.676,1.196,2.676,2.676c0,1.48-1.196,2.683-2.676,2.683 c-1.48,0-2.683-1.2-2.683-2.683S149.079,55.578,150.562,55.578z" class="st4"/><path d="M146.102,70.146c0.87,3.023,0.963,6.299,0.43,9.416c-0.483,2.843-1.173,5.106-2.866,7.419l0.053,0.453 c-4.303,0.547-7.333,0.313-7.333,0.313l-16.658-2.087l-9.959-1.36c0.767-6.509-1.913-10.915-7.659-13.789 c-5.993-2.996-19.532-1.34-19.532-1.34s-7.472-0.383-6.893-8.809c0.573-8.429,27.574-10.916,38.489-4.593 c8.793,5.09,17.605,6.169,23.288,4.516l0.077,0.27c2.609,1.017,4.796,2.543,6.376,4.87 C144.899,66.877,145.622,68.47,146.102,70.146z" class="st5"/><path d="M176.796,1v0.19c0.023,1.913,0.21,17.805,0.203,35.047c-0.013,19.788-3.02,29.747-8.949,37.39 c-1.127,1.453-2.363,2.823-3.703,4.163c-6.136,6.589-14.622,8.879-20.628,9.646c-4.303,0.547-7.333,0.313-7.333,0.313 l-16.658-2.087l-9.959-1.36c0.767-6.509-1.913-10.916-7.659-13.789c-5.993-2.996-19.532-1.34-19.532-1.34 s-7.472-0.383-6.893-8.809c0.573-8.429,27.574-10.916,38.489-4.593c8.793,5.09,17.605,6.169,23.288,4.516 c1.37-0.393,2.563-0.953,3.523-1.646c4.383-3.173,6.406-7.803,7.326-11.712c0.97-4.113,0.717-7.436,0.717-7.436V1.19h27.77" class="st6"/><path d="M137.54,60.554c2.609,1.016,4.796,2.543,6.376,4.869c0.983,1.45,1.706,3.043,2.186,4.719 c0.87,3.023,0.963,6.299,0.43,9.416c-0.483,2.843-1.173,5.106-2.866,7.419" class="st6"/><path d="M148.452,46.959c4.403-0.19,7.629,2.49,8.732,3.91c1.97,2.543,1.844,6.259,0.407,9.136 c-0.27,0.54-0.547,1.053-0.83,1.546c-1.25,2.123-2.726,3.816-4.863,5.323c-3.003,2.117-4.213,2.49-5.746,3.256" class="st6"/><path d="M156.495,62.09c0.089-0.16,0.186-0.333,0.293-0.52c0.78-1.387,1.94-3.366,3.449-3.666 c1.714-0.337,3.613-0.133,4.987,0.947c0.946,0.75,1.559,1.84,2.059,2.933c2.8,6.129,1.854,10.072,0.704,11.792" class="st6"/><path d="M153.238,58.254c0,1.48-1.196,2.683-2.676,2.683c-1.48,0-2.683-1.2-2.683-2.683s1.2-2.676,2.683-2.676 S153.238,56.774,153.238,58.254z" class="st6"/><path d="M134.09,87.461c-7.852-0.957-17.371,0.75-23.921,5.923c-2.373,1.873-4.713,4.456-7.729,4.27 c-3.62-0.227-5.726-4.773-4.62-8.226c1.107-3.453,4.34-5.783,7.63-7.306c3.219-1.49,7.196-3.053,7.802-6.546" class="st5"/><path d="M134.09,87.461c-7.852-0.957-17.371,0.75-23.921,5.923c-2.373,1.873-4.713,4.456-7.729,4.27 c-3.62-0.227-5.726-4.773-4.62-8.226c1.107-3.453,4.34-5.783,7.63-7.306c3.219-1.49,7.196-3.053,7.802-6.546" class="st6"/><path d="M108.943,56.218l9.592-7.253l-0.553-4.903l-8.999-3.9l-4,2.94l1.857,12.329L108.943,56.218z" class="st7"/><path d="M113.892,47.749l-4.949,8.469" class="st6"/><path d="M113.266,42.053l-3.917,3.15l-2.51,10.229" class="st8"/><path d="M113.266,42.053l-3.917,3.15l-2.51,10.229" class="st6"/><path d="M114.095,42.239l0.04,4.533" class="st6"/><path d="M104.983,43.103l13.509,5.963" class="st6"/><path d="M65.344,57.301c0,0-2.106,2.873-5.746,3.64c-6.286,1.323-13.979-0.573-13.212,4.979 c0.603,4.38,5.106,5.746,9.766,5.746c5.553,0,13.789-1.916,17.235-6.893c3.446-4.979-8.043-7.469-8.043-7.469V57.301z" class="st9"/><path d="M99.75,57.621c-4.779-3.226-9.752-6.533-15.435-7.513c-5.32-0.917-10.989,0.377-15.379,3.516 c-4.393,3.14-7.453,8.083-8.309,13.412c-0.313,1.96-0.327,4.046,0.503,5.849c0.827,1.806,2.65,3.256,4.636,3.173 c3.113-0.13,4.856-3.496,6.383-6.213c2.383-4.236,6.379-8.216,11.239-8.132c2.663,0.047,5.206,1.356,7.099,3.23" class="st5"/><path d="M99.75,57.621c-4.779-3.226-9.752-6.533-15.435-7.513c-5.32-0.917-10.989,0.377-15.379,3.516 c-4.393,3.14-7.453,8.083-8.309,13.412c-0.313,1.96-0.327,4.046,0.503,5.849c0.827,1.806,2.65,3.256,4.636,3.173 c3.113-0.13,4.856-3.496,6.383-6.213c2.383-4.236,6.379-8.216,11.239-8.132c2.663,0.047,5.206,1.356,7.099,3.23" class="st6"/><path d="M108.543,57.621c-4.78-3.226-9.753-6.533-15.436-7.513c-5.319-0.917-10.989,0.377-15.378,3.516 c-4.393,3.14-7.453,8.083-8.309,13.412c-0.313,1.96-0.327,4.046,0.503,5.849c0.827,1.806,2.65,3.256,4.636,3.173 c3.113-0.13,4.856-3.496,6.383-6.213c2.383-4.236,6.379-8.216,11.239-8.132c2.663,0.047,5.206,1.356,7.099,3.23" class="st5"/><path d="M108.543,57.621c-4.78-3.226-9.753-6.533-15.436-7.513c-5.319-0.917-10.989,0.377-15.378,3.516 c-4.393,3.14-7.453,8.083-8.309,13.412c-0.313,1.96-0.327,4.046,0.503,5.849c0.827,1.806,2.65,3.256,4.636,3.173 c3.113-0.13,4.856-3.496,6.383-6.213c2.383-4.236,6.379-8.216,11.239-8.132c2.663,0.047,5.206,1.356,7.099,3.23" class="st6"/><path d="M108.076,64.947c-1.893-1.876-4.436-3.186-7.099-3.23c-4.86-0.083-8.856,3.896-11.239,8.133 c-1.526,2.713-3.27,6.079-6.383,6.213c-1.983,0.083-3.806-1.367-4.636-3.173c-0.827-1.807-0.817-3.89-0.503-5.85 c0.853-5.329,3.916-10.272,8.309-13.412c4.393-3.14,10.059-4.436,15.378-3.516c5.683,0.98,11.579,5.156,15.599,7.453" class="st5"/><path d="M108.076,64.947c-1.893-1.876-4.436-3.186-7.099-3.23c-4.86-0.083-8.856,3.896-11.239,8.133 c-1.526,2.713-3.27,6.079-6.383,6.213c-1.983,0.083-3.806-1.367-4.636-3.173c-0.827-1.807-0.817-3.89-0.503-5.85 c0.853-5.329,3.916-10.272,8.309-13.412c4.393-3.14,10.059-4.436,15.378-3.516c5.683,0.98,11.579,5.156,15.599,7.453" class="st6"/><path d="M105.006,50.955c0.144,5.243-4.032,10.762-4.032,10.762s3.169-0.203,6.546,2.523 c1.723-1.94,4.166-6.246,4.812-9.622C110.249,53.181,108.886,52.321,105.006,50.955z" class="st10"/><path d="M99.763,177.129l-16.228,3.879c0,0-14.659-6.702-24.898-6.702c-4.05,0-9.352,0.686-14.645,2.526 l-0.097-0.276c0.143-7.466-1.293-14.219-10.339-18.385l-0.043-0.127c8.926-3.093,15.749-2.89,15.749-2.89 s3.683-10.199,14.935-10.915c8.236-0.523,9.576,1.29,12.256-1.533c1.49-1.57,3.446-5.55,7.086-5.17 c3.64,0.383,4.57,3.173,3.063,6.51c-1.77,3.922-6.319,6.319-8.236,6.509c18.528,4.163,21.401,26.567,21.401,26.567 L99.763,177.129z" class="st11"/><path d="M43.896,176.556l0.097,0.276c-2.98,1.03-5.953,2.427-8.699,4.27l-0.16-0.237 c-0.143-10.056-3.016-15.368-12.066-17.811l-0.04-0.067c3.623-2.213,7.196-3.806,10.482-4.943l0.043,0.127 c9.046,4.166,10.482,10.919,10.339,18.385H43.896z" class="st4"/><path d="M35.133,180.865l0.16,0.237c-2.763,1.846-5.293,4.143-7.366,6.969l-0.26-0.457 c0.86-14.221-9.049-18.241-13.359-17.811l-0.087-0.09c2.88-2.72,5.859-4.933,8.806-6.726l0.04,0.067 C32.117,165.497,34.99,170.809,35.133,180.865z" class="st4"/><path d="M27.667,187.618l0.26,0.456c-3.293,4.493-5.423,10.329-5.483,17.832c-0.19,25.274-0.19,25.661-0.19,25.661 L1,231.18v-23.554c0-6.32-0.153-25.178,13.022-37.723c0.067-0.067,0.133-0.127,0.2-0.187l0.087,0.09 C18.618,169.376,28.527,173.396,27.667,187.618z" class="st11"/><path d="M27.927,188.071c-3.293,4.493-5.423,10.329-5.483,17.832c-0.19,25.274-0.19,25.66-0.19,25.66L1,231.177 v-23.555c0-6.319-0.153-25.177,13.022-37.722c0.067-0.067,0.133-0.127,0.2-0.187c2.88-2.72,5.859-4.933,8.806-6.726 c3.623-2.213,7.196-3.806,10.482-4.943c8.926-3.093,15.748-2.89,15.748-2.89s3.683-10.199,14.935-10.915 c8.236-0.523,9.576,1.29,12.255-1.533c1.49-1.57,3.446-5.55,7.086-5.17c3.64,0.383,4.569,3.173,3.063,6.51 c-1.77,3.922-6.319,6.319-8.236,6.509c18.528,4.163,21.401,26.567,21.401,26.567l-16.228,3.88c0,0-14.659-6.703-24.898-6.703 c-4.049,0-9.352,0.687-14.645,2.527c-2.98,1.029-5.953,2.426-8.699,4.269c-2.763,1.847-5.293,4.143-7.366,6.969V188.071z" class="st6"/><path d="M14.305,169.806c4.31-0.43,14.219,3.59,13.359,17.812" class="st6"/><path d="M23.068,163.054c9.049,2.443,11.922,7.756,12.065,17.811" class="st6"/><path d="M33.554,158.171c9.046,4.166,10.482,10.919,10.339,18.385" class="st6"/><path d="M78.652,150.415c14.075,4.166,19.531,2.873,23.411,0.43c2.637-1.66,4.92-5.023,7.926-4.223 c1.92,0.513,3.227,2.44,3.477,4.41s-0.237,4.036-1.267,5.733c-1.81,2.983-5.829,5.279-10.569,6.286 c-3.783,0.803-0.053,0.353-5.313-0.864c-3.733-0.863,0,1.007-5.456-1.58" class="st11"/><path d="M78.652,150.415c14.075,4.166,19.531,2.873,23.411,0.43c2.637-1.66,4.92-5.023,7.926-4.223 c1.92,0.513,3.227,2.44,3.477,4.41s-0.237,4.036-1.267,5.733c-1.81,2.983-5.829,5.279-10.569,6.286 c-3.783,0.803-0.053,0.353-5.313-0.864c-3.733-0.863,0,1.007-5.456-1.58" class="st6"/><path d="M87.701,157.741c7.469,3.016,15.809,0.063,19.685-2.376c2.637-1.66,4.92-5.023,7.926-4.223 c1.92,0.513,3.226,2.439,3.476,4.409s-0.236,4.036-1.266,5.733c-1.81,2.983-5.83,5.279-10.569,6.286 c-3.783,0.803-6.096,2.3-11.356,1.083c-3.733-0.863,3.733,0.717-1.723-1.866" class="st11"/><path d="M87.701,157.741c7.469,3.016,15.809,0.063,19.685-2.376c2.637-1.66,4.92-5.023,7.926-4.223 c1.92,0.513,3.226,2.439,3.476,4.409s-0.236,4.036-1.266,5.733c-1.81,2.983-5.83,5.279-10.569,6.286 c-3.783,0.803-6.096,2.3-11.356,1.083c-3.733-0.863,3.733,0.717-1.723-1.866" class="st6"/><path d="M90.571,165.067c10.199,3.59,18.825-0.653,22.701-3.096c2.637-1.66,4.92-5.023,7.926-4.223 c1.92,0.513,3.226,2.439,3.476,4.409s-0.236,4.037-1.266,5.733c-1.81,2.983-5.83,5.279-10.569,6.286 c-3.783,0.803-11.542,0.783-16.805-0.43c-3.733-0.863,3.293,2.233-2.163-0.353" class="st11"/><path d="M90.571,165.067c10.199,3.59,18.825-0.653,22.701-3.096c2.637-1.66,4.92-5.023,7.926-4.223 c1.92,0.513,3.226,2.439,3.476,4.409s-0.236,4.037-1.266,5.733c-1.81,2.983-5.83,5.279-10.569,6.286 c-3.783,0.803-11.542,0.783-16.805-0.43c-3.733-0.863,3.293,2.233-2.163-0.353" class="st6"/><path d="M92.584,172.68c2.153,1.436,9.909,1.866,11.346,1.723c4.836-0.484,8.956-2.127,12.495-5.456 c2.267-2.137,4.746-5.787,7.756-4.983c1.92,0.513,3.226,2.439,3.476,4.409s-0.38,3.957-1.266,5.733 c-2.407,4.833-6.803,8.639-11.929,10.326c-5.129,1.686-11.082,1.4-16.422,0.6c-6.006-0.897-11.632-2.587-17.092-5.17" class="st11"/><path d="M92.584,172.68c2.153,1.436,9.909,1.866,11.346,1.723c4.836-0.484,8.956-2.127,12.495-5.456 c2.267-2.137,4.746-5.787,7.756-4.983c1.92,0.513,3.226,2.439,3.476,4.409s-0.38,3.957-1.266,5.733 c-2.407,4.833-6.803,8.639-11.929,10.326c-5.129,1.686-11.082,1.4-16.422,0.6c-6.006-0.897-11.632-2.587-17.092-5.17" class="st6"/><path d="M64.68,96.374c0,0,0.673,3.306,5.119,4.113c4.446,0.806,10.509-0.95,14.562-4.47 c4.053-3.52,7.616-8.296,5.229-13.012c-2.386-4.716-12.435-2.816-14.472-1.23C73.259,82.705,63.137,87.905,64.68,96.374z" class="st2"/><path d="M66.653,99.357l2.76,3.059c0,0,4.609,2.204,12.122-1.269c7.513-3.477,9.896-9.236,10.206-12.196 l-1.44-3.233c0,0,0.077,4.326-4.4,8.976c-0.587,0.473-3.5,2.92-6.093,4.09c-4.573,2.124-8.103,2.127-10.682,1.57 C68.577,100.123,67.603,99.71,66.653,99.357z" class="st12"/><path d="M83.029,91.388c0,0,1.01-0.603,1.236-0.837l-0.977-2.286l-1.58,0.363l1.323,2.76H83.029z" class="st2"/><path d="M91.324,90.921l-1.393-2.793l-1.106,2.646l1.58,2.48L91.324,90.921z" class="st2"/><path d="M89.281,94.841l-1.573-2.306l-1.697,1.983l1.716,2.15L89.281,94.841z" class="st2"/><path d="M67.12,96.184c0,0-0.203-2.85,3.073-6.263c3.276-3.413,8.352-6.163,12.482-6.279 c0,0,3.786-0.59,5.193,1.877c0,0,0.243-3.506-5.093-3.726c-5.336-0.223-11.802,4.103-14.655,7.999 c-2.856,3.896-0.997,6.396-0.997,6.396L67.12,96.184z" class="st13"/><path d="M71.63,103.063l-1.977-2.536c0,0,1.99,0.476,3.056,0.166c0.197,0.254,1.913,2.46,1.913,2.46" class="st2"/><path d="M79.049,102.197l-1.83-2.35l-2.373,0.573l1.783,2.43" class="st2"/><path d="M82.955,100.407l-1.816-2.337l-1.966,1.143l1.696,2.27L82.955,100.407z" class="st2"/><path d="M86.505,97.984l-1.837-2.263l-1.706,1.393l1.77,2.27L86.505,97.984z" class="st2"/><path d="M81.802,97.742c6.711-4.035,10.151-10.633,7.683-14.736c-2.467-4.103-9.908-4.158-16.618-0.123 c-6.711,4.035-10.151,10.633-7.683,14.736C67.651,101.723,75.091,101.778,81.802,97.742z" class="st14"/><path d="M80.347,95.279c5.633-3.387,8.757-8.533,6.978-11.492c-1.78-2.96-7.789-2.612-13.422,0.775 c-5.633,3.387-8.757,8.533-6.978,11.492C68.705,99.014,74.714,98.667,80.347,95.279z" class="st14"/><path d="M67.063,96.294c-0.227-2.99,2.733-7.073,7.466-9.919c5.463-3.283,11.279-3.71,13.249-1.033" class="st14"/><path d="M66.16,98.803c0,0,3.09,3.627,3.356,3.697c2.916,1.34,8.789,0.69,13.729-2.28 c4.989-3,8.169-7.416,8.459-11.172" class="st14"/><path d="M90.248,85.332c0,0,1.476,3.403,1.456,3.69" class="st14"/><path d="M57.834,103.886c-0.683,2.494,3.236,6.433,9.026,8.983c5.06,2.226,9.942,2.676,12.009,1.293 c0.39-0.257,0.68-0.587,0.853-0.976c1.087-2.474-2.91-6.626-8.926-9.27c-6.019-2.649-11.776-2.793-12.862-0.316 c-0.04,0.093-0.077,0.19-0.103,0.29L57.834,103.886z M81.442,114.802c-0.513,0.843-1.4,1.46-2.563,1.853 c-0.007,0-0.017,0.003-0.03,0.007c-0.24,0.056-0.51,0.11-0.807,0.166l0.443-0.829l-2.8,0.626l-0.203,0.497 c-0.077,0.006-0.153,0.013-0.237,0.013c-0.56-0.003-1.146-0.04-1.753-0.11l0.11-0.3l-2.596-0.24l-0.033,0.107 c-0.57-0.127-1.146-0.28-1.736-0.46l0.013-0.05l-1.08-0.3c-0.737-0.253-1.48-0.54-2.23-0.87c-0.223-0.097-0.443-0.2-0.663-0.3 l0.017-0.053l-1.36-0.624c-0.85-0.453-1.646-0.933-2.393-1.433l0.037-0.123l-1.837-1.607l-0.103,0.307 c-0.55-0.457-1.05-0.92-1.507-1.393c0.077-0.247,0.13-0.43,0.15-0.5c-0.866-0.693-1.623-2.593-1.623-2.593l-0.263,0.87 c-0.363-0.597-0.63-1.19-0.797-1.763c-0.003-0.014-0.003-0.024-0.007-0.037c-0.037-0.15-0.073-0.31-0.11-0.477 c-0.147-0.786-0.087-1.526,0.207-2.193c1.51-3.426,8.756-3.916,15.928-0.76c7.166,3.153,11.535,8.753,10.032,12.179 C81.589,114.545,81.522,114.675,81.442,114.802z" class="st2"/><path d="M80.305,116.232l-1.293,2.59c-0.683,0.386-1.676,0.73-2.896,0.946c-1.773,0.15-3.816-0.033-5.906-0.483 l0.033-0.16l2.39,0.217l0.813-2.19c0.643,0.016,1.247,0.007,1.803-0.02c0.077,0,0.15,0.003,0.227,0.003l-0.903,2.207 l2.437-0.594l1-1.863c0.293-0.06,0.573-0.14,0.84-0.223c0.013-0.003,0.02-0.007,0.03-0.007c0.933-0.216,1.43-0.42,1.43-0.42 L80.305,116.232z" class="st12"/><path d="M70.796,103.913c6.016,2.646,10.009,6.796,8.926,9.269c-0.177,0.39-0.463,0.72-0.853,0.977l-0.013-0.02 c0.633-2.213-3.396-5.973-9.229-8.543c-5.03-2.21-9.802-2.836-11.792-1.713c0.023-0.097,0.06-0.197,0.103-0.29 c1.087-2.473,6.846-2.333,12.862,0.317L70.796,103.913z" class="st13"/><path d="M69.627,105.6c5.833,2.566,9.866,6.329,9.229,8.542l0.013,0.02c-2.067,1.383-6.949,0.933-12.009-1.293 c-5.789-2.546-9.709-6.486-9.026-8.983C59.824,102.763,64.597,103.39,69.627,105.6z" class="st2"/><path d="M78.486,115.995l-0.443,0.83h-0.003c-0.703,0.127-1.56,0.24-2.556,0.294l0.203-0.497L78.486,115.995z" class="st2"/><path d="M78.042,116.825c0.297-0.057,0.567-0.11,0.807-0.167c-0.263,0.087-0.547,0.164-0.84,0.224l0.03-0.057 H78.042z" class="st12"/><path d="M78.036,116.825l-0.03,0.057c-0.767,0.166-1.617,0.253-2.536,0.253l0.007-0.017 c0.997-0.053,1.853-0.166,2.556-0.293H78.036z" class="st2"/><path d="M78.009,116.882l-1,1.863l-2.436,0.593l0.903-2.206c0.92,0,1.77-0.087,2.536-0.254L78.009,116.882z" class="st2"/><path d="M75.483,117.119l-0.007,0.016c-0.077,0-0.15-0.003-0.227-0.003c0.08,0,0.16-0.003,0.237-0.013H75.483z" class="st12"/><path d="M70.206,119.285c2.087,0.453,4.13,0.633,5.906,0.483c-3.396,0.61-8.569,0.274-13.845-2.77 c-5.279-3.039-7.139-6.569-7.752-8.219c0.85,2.107,3.2,4.52,6.166,6.5c0.537,0.356,1.093,0.7,1.67,1.026 c0.573,0.327,1.16,0.63,1.756,0.91l0.327,0.17v-0.017c0.11,0.05,0.21,0.097,0.317,0.144c0.513,0.226,1.037,0.44,1.57,0.63 l-0.033,0.103l2.17,0.643l0.013-0.036c0.577,0.163,1.16,0.31,1.736,0.436V119.285z" class="st12"/><path d="M73.603,116.722l-0.11,0.3c-0.807-0.09-1.653-0.234-2.52-0.437l0.033-0.107l2.596,0.24V116.722z" class="st2"/><path d="M73.493,117.022l-0.05,0.13c-0.797-0.024-1.657-0.087-2.576-0.2l0.107-0.367 C71.84,116.789,72.686,116.932,73.493,117.022z" class="st2"/><path d="M73.443,117.152l-0.813,2.19l-2.39-0.217l0.627-2.173C71.786,117.065,72.646,117.125,73.443,117.152z" class="st2"/><path d="M70.866,116.952l-0.627,2.173l-0.033,0.16c-0.577-0.127-1.16-0.274-1.736-0.437l0.64-2.273 c0.443,0.13,0.777,0.22,0.947,0.27c0.277,0.04,0.547,0.077,0.81,0.11V116.952z" class="st12"/><path d="M69.246,116.079l-0.013,0.05c-0.35-0.107-0.707-0.22-1.067-0.35L69.246,116.079z" class="st2"/><path d="M69.237,116.125l-0.127,0.447c-0.567-0.164-1.307-0.39-2.113-0.67l0.127-0.417l1.047,0.29 C68.527,115.905,68.887,116.019,69.237,116.125z" class="st2"/><path d="M69.11,116.575l-0.64,2.273c-0.72-0.206-1.44-0.44-2.15-0.706l0.677-2.24c0.807,0.28,1.546,0.51,2.113,0.67 V116.575z" class="st2"/><path d="M68.47,118.848l-0.013,0.037l-2.17-0.643l0.033-0.104c0.707,0.27,1.43,0.5,2.15,0.707V118.848z" class="st2"/><path d="M66.997,115.902l-0.677,2.24c-0.533-0.19-1.057-0.404-1.57-0.63c-0.107-0.043-0.207-0.093-0.313-0.143 l0.667-2.194c0.633,0.274,1.283,0.517,1.893,0.73V115.902z" class="st12"/><path d="M65.294,114.552l-0.017,0.053c-0.46-0.216-0.907-0.44-1.343-0.676L65.294,114.552z" class="st2"/><path d="M65.277,114.605l-0.17,0.57c-0.667-0.283-1.32-0.603-1.903-0.946l-0.147-0.087l0.17-0.533l0.707,0.32 C64.37,114.165,64.817,114.389,65.277,114.605z" class="st2"/><path d="M65.104,115.175l-0.667,2.193c-0.11-0.05-0.22-0.096-0.33-0.153l-1.757-0.91l0.703-2.16l0.147,0.087 c0.587,0.347,1.236,0.663,1.903,0.946V115.175z" class="st2"/><path d="M64.437,117.369v0.016l-0.33-0.17C64.217,117.272,64.327,117.322,64.437,117.369z" class="st2"/><path d="M62.351,116.302l1.757,0.91C63.511,116.932,62.924,116.625,62.351,116.302z" class="st12"/><path d="M63.054,114.142l-0.703,2.16c-0.573-0.327-1.13-0.667-1.67-1.027l0.033-0.05l0.657-2.166 c0.517,0.366,1.08,0.723,1.683,1.08V114.142z" class="st12"/><path d="M61.577,112.375l-0.037,0.124c-0.683-0.46-1.32-0.937-1.9-1.423l0.103-0.307l1.836,1.606H61.577z" class="st2"/><path d="M61.541,112.496l-0.17,0.566c-0.703-0.496-1.33-1-1.89-1.51l0.16-0.48 C60.224,111.562,60.857,112.036,61.541,112.496z" class="st2"/><path d="M61.371,113.062l-0.657,2.167l-1.926-1.604l0.693-2.069c0.557,0.51,1.183,1.013,1.89,1.51V113.062z" class="st2"/><path d="M60.714,115.229l-0.033,0.049c-2.966-1.976-5.316-4.389-6.166-6.499c-0.06-0.15-0.113-0.3-0.153-0.453 c-0.05-0.16-0.077-0.28-0.097-0.367c-0.013-0.04-0.02-0.086-0.03-0.126l0.237-1.044c0.24-0.83,0.61-1.946,0.793-2.493 c0.077,0.307,0.15,0.607,0.217,0.887c0.023,0.153,0.067,0.316,0.11,0.476c0.003,0.014,0.003,0.024,0.007,0.037 c0.06,0.273,0.113,0.517,0.16,0.707c0.167,0.393,0.363,0.803,0.59,1.216l-0.62,2.043l1.653,2.5c0,0,0.373-1.23,0.643-2.113 c0.427,0.5,0.907,1,1.457,1.503l-0.693,2.07l1.926,1.603V115.229z" class="st12"/><path d="M58.284,109.179c-0.02,0.07-0.073,0.254-0.15,0.5c-0.707-0.736-1.293-1.486-1.736-2.223l0.263-0.87 C56.661,106.586,57.418,108.486,58.284,109.179z" class="st2"/><path d="M58.134,109.679c-0.033,0.113-0.07,0.237-0.11,0.37c-0.7-0.823-1.246-1.64-1.676-2.43l0.05-0.163 C56.841,108.193,57.428,108.943,58.134,109.679z" class="st2"/><path d="M58.024,110.049c-0.27,0.884-0.643,2.113-0.643,2.113l-1.653-2.499l0.62-2.043 C56.778,108.409,57.324,109.226,58.024,110.049z" class="st2"/><path d="M55.481,105.183c0.037,0.167,0.073,0.327,0.11,0.477C55.548,105.5,55.505,105.34,55.481,105.183z" class="st12"/><path d="M55.145,103.813c0.043,0.163,0.087,0.327,0.123,0.483c-0.183,0.55-0.553,1.663-0.793,2.493l0.67-2.979 V103.813z" class="st12"/><path d="M68.17,115.775c-0.737-0.253-1.48-0.54-2.23-0.87c-0.223-0.096-0.443-0.2-0.663-0.3 c-0.46-0.216-0.907-0.44-1.343-0.676c-0.85-0.454-1.646-0.934-2.393-1.434c-0.683-0.46-1.32-0.936-1.9-1.423 c-0.55-0.456-1.05-0.92-1.507-1.393c-0.707-0.737-1.293-1.486-1.736-2.223c-0.363-0.597-0.63-1.19-0.797-1.763 c-0.003-0.014-0.003-0.024-0.007-0.037c-0.043-0.16-0.087-0.32-0.11-0.477c-0.147-0.786-0.087-1.526,0.207-2.193 c1.51-3.426,8.756-3.916,15.928-0.76c7.166,3.153,11.535,8.753,10.032,12.179c-0.06,0.134-0.127,0.264-0.207,0.39 c-0.513,0.843-1.4,1.46-2.563,1.853c-0.007,0-0.017,0.004-0.03,0.007c-0.263,0.087-0.547,0.163-0.84,0.223 c-0.767,0.167-1.617,0.254-2.536,0.254c-0.077,0-0.15-0.004-0.227-0.004c-0.56-0.003-1.146-0.04-1.753-0.11 c-0.807-0.09-1.653-0.233-2.52-0.436c-0.57-0.127-1.146-0.28-1.737-0.46c-0.35-0.107-0.707-0.22-1.067-0.35L68.17,115.775z" class="st14"/><path d="M78.869,114.162c-2.066,1.383-6.949,0.933-12.009-1.293c-5.79-2.547-9.709-6.486-9.026-8.983 c0.023-0.096,0.06-0.196,0.103-0.29c1.087-2.473,6.846-2.333,12.862,0.317c6.016,2.646,10.009,6.796,8.926,9.269 c-0.177,0.39-0.463,0.72-0.853,0.977L78.869,114.162z" class="st14"/><path d="M57.801,103.903c0,0,0.02-0.013,0.033-0.017c1.99-1.123,6.763-0.496,11.792,1.714 c5.833,2.566,9.866,6.329,9.229,8.542" class="st14"/><path d="M55.385,103.956c0,0-0.043,0.13-0.117,0.343c-0.183,0.55-0.553,1.664-0.793,2.494 c-0.163,0.536-0.263,0.959-0.237,1.043c0.007,0.04,0.017,0.086,0.03,0.126c0.023,0.124,0.057,0.244,0.097,0.367 c0.04,0.15,0.093,0.3,0.153,0.453c0.85,2.107,3.2,4.52,6.166,6.5c0.537,0.356,1.093,0.7,1.67,1.026 c0.573,0.327,1.16,0.63,1.756,0.91c0.11,0.057,0.22,0.107,0.33,0.154c0.107,0.049,0.207,0.096,0.313,0.143 c0.513,0.226,1.036,0.44,1.57,0.63c0.707,0.27,1.43,0.5,2.15,0.706c0.577,0.164,1.16,0.31,1.737,0.437 c2.086,0.453,4.13,0.633,5.906,0.483c1.413-0.116,2.656-0.446,3.616-1.02" class="st14"/><path d="M81.525,114.585c0,0-0.033,0.077-0.087,0.217c-0.327,0.827-1.49,3.746-1.71,3.873" class="st14"/><path d="M72.656,130.861c0,0,2.5,2.263,6.559,0.286c4.06-1.976,7.909-6.986,9.092-12.222 c1.183-5.236,1.23-11.195-3.486-13.582c-4.716-2.386-11.692,5.09-12.395,7.576c-0.95,1.85-6.033,12.032,0.227,17.945 L72.656,130.861z" class="st2"/><path d="M76.013,132.097l4.036,0.833c0,0,5.02-0.95,9.019-8.195c4-7.246,2.513-13.302,1.01-15.872l-3.073-1.757 c0,0,2.623,3.44,1.763,9.839c-0.193,0.73-1.093,4.427-2.49,6.903c-2.43,4.42-5.273,6.509-7.679,7.589 c-0.577,0.14-1.61,0.387-2.583,0.66H76.013z" class="st12"/><path d="M84.495,115.982c0,0,0.457-1.083,0.5-1.403l-2.14-1.263l-1.06,1.226l2.696,1.44H84.495z" class="st2"/><path d="M90.908,110.696l-2.776-1.426l0.673,2.786l2.74,1.066L90.908,110.696z" class="st2"/><path d="M91.578,115.065l-2.633-0.926l-0.193,2.6l2.656,0.716L91.578,115.065z" class="st2"/><path d="M74.509,129.261c0,0-1.85-2.177-1.23-6.866c0.62-4.69,3.083-9.909,6.346-12.449 c0,0,2.703-2.716,5.296-1.56c0,0-1.88-2.97-6.313,0.01c-4.433,2.98-7.086,10.289-7.079,15.122 c0.003,4.829,2.98,5.746,2.98,5.746V129.261z" class="st13"/><path d="M82.215,132.14l-3.093-0.876c0,0,1.886-0.793,2.563-1.673c0.31,0.086,3,0.85,3,0.85" class="st2"/><path d="M87.685,127.051l-2.866-0.81l-1.573,1.867l2.873,0.899" class="st2"/><path d="M89.775,123.295l-2.85-0.807l-0.907,2.083l2.71,0.827L89.775,123.295z" class="st2"/><path d="M91.201,119.242l-2.82-0.737l-0.55,2.133l2.766,0.784L91.201,119.242z" class="st2"/><path d="M87.268,121.84c3.022-7.224,1.891-14.578-2.526-16.426c-4.417-1.848-10.447,2.511-13.469,9.735 c-3.022,7.224-1.891,14.578,2.526,16.426C78.215,133.422,84.246,129.064,87.268,121.84z" class="st14"/><path d="M84.636,120.719c2.537-6.064,2.01-12.06-1.175-13.393c-3.186-1.333-7.825,2.503-10.361,8.567 c-2.537,6.065-2.011,12.061,1.175,13.393C77.461,130.619,82.1,126.783,84.636,120.719z" class="st14"/><path d="M74.529,129.384c-1.953-2.277-1.983-7.319,0.147-12.412c2.46-5.88,6.896-9.666,10.069-8.676" class="st14"/><path d="M75.286,131.944c0,0,4.636,1.093,4.893,0.993c3.143-0.646,7.493-4.646,9.716-9.962 c2.246-5.37,2.197-10.812,0.21-14.012" class="st14"/><path d="M86.728,106.826c0,0,3.206,1.87,3.356,2.114" class="st14"/><path d="M65.347,149.768c0,0-2.503,2.264-0.933,6.5c1.567,4.236,6.166,8.562,11.259,10.259 c5.093,1.696,11.019,2.333,13.862-2.12c2.843-4.456-3.906-12.139-6.309-13.085c-1.746-1.127-11.375-7.196-17.878-1.557V149.768z" class="st2"/><path d="M63.784,152.985l-1.226,3.933c0,0,0.447,5.089,7.263,9.785c6.816,4.7,12.989,3.82,15.695,2.58l2.053-2.883 c0,0-3.683,2.27-9.966,0.78c-0.707-0.263-4.296-1.526-6.623-3.163c-4.156-2.856-5.953-5.893-6.789-8.396 c-0.083-0.59-0.223-1.64-0.403-2.636H63.784z" class="st12"/><path d="M78.976,163.024c0,0,1.033,0.56,1.347,0.637l1.47-2.004l-1.117-1.176l-1.703,2.543H78.976z" class="st2"/><path d="M83.602,169.93l1.697-2.623l-2.843,0.396l-1.33,2.62L83.602,169.93z" class="st2"/><path d="M79.189,170.163l1.183-2.53l-2.57-0.45l-0.977,2.573L79.189,170.163z" class="st2"/><path d="M66.753,151.772c0,0,2.35-1.627,6.956-0.544c4.603,1.084,9.556,4.053,11.759,7.55 c0,0,2.436,2.959,1.027,5.426c0,0,3.14-1.577,0.617-6.283c-2.523-4.706-9.536-8.069-14.345-8.546 C67.96,148.902,66.753,151.772,66.753,151.772z" class="st13"/><path d="M63.127,159.154l1.177-2.993c0,0,0.603,1.957,1.413,2.717l-1.143,2.899" class="st2"/><path d="M67.647,165.1l1.09-2.773l-1.7-1.749l-1.183,2.769" class="st2"/><path d="M71.18,167.55l1.083-2.753l-1.983-1.11l-1.09,2.617L71.18,167.55z" class="st2"/><path d="M75.069,169.373l1.013-2.733l-2.066-0.76l-1.056,2.68L75.069,169.373z" class="st2"/><path d="M89.472,164.324c2.277-4.212-1.463-10.645-8.351-14.368c-6.889-3.723-14.319-3.327-16.595,0.885 c-2.276,4.212,1.463,10.645,8.351,14.368C79.766,168.932,87.196,168.536,89.472,164.324z" class="st14"/><path d="M87.703,162.854c1.642-3.038-1.715-8.034-7.498-11.16c-5.783-3.125-11.802-3.196-13.444-0.158 c-1.642,3.038,1.715,8.034,7.498,11.16C80.043,165.821,86.062,165.892,87.703,162.854z" class="st14"/><path d="M66.63,151.778c2.456-1.716,7.479-1.246,12.336,1.38c5.606,3.03,8.932,7.82,7.632,10.879" class="st14"/><path d="M64.007,152.278c0,0-1.547,4.507-1.473,4.77c0.33,3.19,3.88,7.916,8.949,10.655 c5.123,2.767,10.542,3.26,13.922,1.597" class="st14"/><path d="M87.865,166.153c0,0-2.18,3.003-2.433,3.13" class="st14"/></g></g></g></g></svg>