<svg xmlns="http://www.w3.org/2000/svg" width="589" height="232" fill="none" viewBox="0 0 589 232"><g clip-path="url(#clip0_421_19337)"><path fill="#E4BC07" stroke="#0C1B33" stroke-linecap="round" stroke-miterlimit="10" stroke-width="1" d="M605 37.5L611 24.5C611 24.5 528 -8.00005 458 9.99995C388 28 360.818 54.1025 360.818 54.1025L377 73.9999C377 73.9999 405.613 48.0292 458 35C510.387 21.9707 597.5 54.1025 597.5 54.1025L605 37.5Z"/><g clip-path="url(#clip1_421_19337)"><path fill="#E96DF2" stroke="#0C1B33" stroke-linecap="round" stroke-miterlimit="10" stroke-width="1" d="M105 262L80 239.5C80 239.5 134 241 175.5 212.5C217 184 228 170 228 170H245V184C245 184 243.5 188 201 220C158.5 252 105 262 105 262Z"/></g><path fill="#FFFAF0" d="M370.788 61.5672C371.568 60.1807 372.727 58.2009 374.237 57.9009C375.95 57.5643 377.85 57.7676 379.223 58.8475C380.17 59.5974 380.783 60.6873 381.283 61.7805C384.083 67.9099 383.136 71.8528 381.987 73.5727L382.053 73.6227C380.927 75.0758 379.69 76.4457 378.35 77.7856C372.214 84.3749 363.728 86.6647 357.722 87.4313L357.669 86.978C359.362 84.6682 360.049 82.4051 360.535 79.5587C361.069 76.4424 360.975 73.166 360.105 70.143L360.159 70.1263C361.692 69.3598 362.902 68.9865 365.905 66.87C368.041 65.3635 369.518 63.6703 370.768 61.5472L370.791 61.5639L370.788 61.5672Z"/><path fill="#FFFAF0" d="M371.188 50.8686C373.157 53.4116 373.031 57.1279 371.594 60.0043C371.324 60.5443 371.048 61.0575 370.764 61.5508C369.514 63.6739 368.038 65.3671 365.901 66.8736C362.898 68.9901 361.689 69.3634 360.155 70.13L360.102 70.1466C359.622 68.4701 358.902 66.8736 357.916 65.4271C356.336 63.1007 354.146 61.5742 351.54 60.5576L351.463 60.2876C352.833 59.8943 354.026 59.3344 354.986 58.6411C359.369 55.4681 361.392 50.8386 362.312 46.929L362.455 46.9623C366.858 46.7723 370.084 49.452 371.188 50.8719V50.8686ZM367.241 58.2545C367.241 56.7746 366.045 55.5781 364.565 55.5781C363.085 55.5781 361.882 56.7746 361.882 58.2545C361.882 59.7343 363.082 60.9376 364.565 60.9376C366.048 60.9376 367.241 59.7377 367.241 58.2545Z"/><path fill="#FED607" d="M364.562 55.5779C366.042 55.5779 367.238 56.7744 367.238 58.2543C367.238 59.7341 366.042 60.9373 364.562 60.9373C363.082 60.9373 361.879 59.7375 361.879 58.2543C361.879 56.7711 363.079 55.5779 364.562 55.5779Z"/><path fill="#75F4F9" d="M360.102 70.1465C360.972 73.1695 361.065 76.4459 360.532 79.5622C360.049 82.4053 359.359 84.6684 357.666 86.9815L357.719 87.4348C353.416 87.9814 350.386 87.7481 350.386 87.7481L333.728 85.6616L323.769 84.3017C324.536 77.7924 321.856 73.3862 316.11 70.5131C310.117 67.5168 296.579 69.1733 296.579 69.1733C296.579 69.1733 289.106 68.79 289.686 60.3641C290.259 51.935 317.26 49.4486 328.175 55.7713C336.968 60.8608 345.78 61.9407 351.463 60.2875L351.54 60.5575C354.149 61.574 356.336 63.1005 357.916 65.427C358.899 66.8768 359.622 68.47 360.102 70.1465Z"/><path stroke="#0C1B33" stroke-linecap="round" stroke-miterlimit="10" stroke-width="1" d="M382.05 73.626C380.923 75.0792 379.687 76.4491 378.347 77.789C372.211 84.3783 363.725 86.6681 357.719 87.4347C353.416 87.9813 350.387 87.748 350.387 87.748L333.728 85.6615L323.769 84.3016C324.536 77.7923 321.856 73.3861 316.11 70.513C310.117 67.5166 296.579 69.1731 296.579 69.1731C296.579 69.1731 289.106 68.7899 289.686 60.364C290.259 51.9349 317.26 49.4485 328.175 55.7712C336.968 60.8606 345.78 61.9405 351.463 60.2874C352.833 59.8941 354.026 59.3341 354.986 58.6409C359.369 55.4679 361.392 50.8383 362.312 46.9287"/><path stroke="#0C1B33" stroke-linecap="round" stroke-miterlimit="10" stroke-width="1" d="M351.54 60.554C354.149 61.5705 356.336 63.097 357.916 65.4235C358.899 66.8733 359.622 68.4665 360.102 70.143C360.972 73.166 361.065 76.4424 360.532 79.5587C360.049 82.4018 359.359 84.6649 357.666 86.978"/><path stroke="#0C1B33" stroke-linecap="round" stroke-miterlimit="10" stroke-width="1" d="M362.452 46.9587C366.855 46.7687 370.081 49.4484 371.185 50.8683C373.154 53.4114 373.028 57.1277 371.591 60.004C371.321 60.544 371.045 61.0573 370.761 61.5506C369.511 63.6737 368.035 65.3668 365.898 66.8734C362.895 68.9898 361.686 69.3631 360.152 70.1297"/><path stroke="#0C1B33" stroke-linecap="round" stroke-miterlimit="10" stroke-width="1" d="M370.495 62.0904C370.585 61.9305 370.681 61.7571 370.788 61.5705C371.568 60.184 372.728 58.2042 374.238 57.9042C375.951 57.5676 377.851 57.7709 379.224 58.8508C380.17 59.6007 380.784 60.6906 381.284 61.7838C384.083 67.9132 383.137 71.8561 381.987 73.576"/><path stroke="#0C1B33" stroke-linecap="round" stroke-miterlimit="10" stroke-width="1" d="M367.238 58.2543C367.238 59.7341 366.042 60.9373 364.562 60.9373C363.082 60.9373 361.879 59.7375 361.879 58.2543C361.879 56.7711 363.079 55.5779 364.562 55.5779C366.045 55.5779 367.238 56.7744 367.238 58.2543Z"/><path fill="#75F4F9" d="M348.09 87.4613C340.237 86.5047 330.718 88.2112 324.169 93.384C321.796 95.2572 319.456 97.8402 316.44 97.6536C312.82 97.4269 310.714 92.8807 311.82 89.4278C312.927 85.9748 316.16 83.645 319.449 82.1218C322.669 80.632 326.645 79.0688 327.252 75.5758"/><path stroke="#0C1B33" stroke-linecap="round" stroke-miterlimit="10" stroke-width="1" d="M348.09 87.4613C340.237 86.5047 330.718 88.2112 324.169 93.384C321.796 95.2572 319.456 97.8402 316.44 97.6536C312.82 97.4269 310.714 92.8807 311.82 89.4278C312.927 85.9748 316.16 83.645 319.449 82.1218C322.669 80.632 326.645 79.0688 327.252 75.5758"/><path fill="#D1FDFF" stroke="#0C1B33" stroke-linecap="round" stroke-miterlimit="10" stroke-width="1" d="M322.943 56.2178L332.535 48.9652L331.982 44.0623L322.983 40.1627L318.983 43.1024L320.839 55.4312L322.943 56.2178Z"/><path stroke="#0C1B33" stroke-linecap="round" stroke-miterlimit="10" stroke-width="1" d="M327.892 47.7487L322.942 56.2178"/><path fill="#D1FDFF" d="M327.265 42.0525L323.349 45.2022L320.839 55.4312"/><path stroke="#0C1B33" stroke-linecap="round" stroke-miterlimit="10" stroke-width="1" d="M327.265 42.0525L323.349 45.2022L320.839 55.4312"/><path stroke="#0C1B33" stroke-linecap="round" stroke-miterlimit="10" stroke-width="1" d="M328.095 42.2394L328.135 46.7723"/><path stroke="#0C1B33" stroke-linecap="round" stroke-miterlimit="10" stroke-width="1" d="M318.983 43.1025L332.492 49.0653"/><path fill="#75F4F9" stroke="#0C1B33" stroke-linecap="round" stroke-miterlimit="10" stroke-width="1" d="M279.344 57.301C279.344 57.301 277.237 60.1741 273.598 60.9407C267.312 62.2639 259.619 60.3674 260.386 65.9202C260.989 70.2997 265.492 71.6663 270.151 71.6663C275.704 71.6663 283.94 69.7498 287.386 64.7736C290.833 59.7941 279.344 57.3044 279.344 57.3044V57.301Z"/><path fill="#75F4F9" d="M313.75 57.621C308.971 54.3946 303.998 51.0883 298.315 50.1084C292.996 49.1918 287.326 50.485 282.937 53.6247C278.544 56.7644 275.484 61.7072 274.628 67.0367C274.314 68.9965 274.301 71.083 275.131 72.8861C275.958 74.6926 277.781 76.1425 279.767 76.0591C282.88 75.9292 284.623 72.5628 286.15 69.8464C288.533 65.6102 292.529 61.6306 297.389 61.7139C300.052 61.7606 302.595 63.0704 304.488 64.9436"/><path stroke="#0C1B33" stroke-linecap="round" stroke-miterlimit="10" stroke-width="1" d="M313.75 57.621C308.971 54.3946 303.998 51.0883 298.315 50.1084C292.996 49.1918 287.326 50.485 282.937 53.6247C278.544 56.7644 275.484 61.7072 274.628 67.0367C274.314 68.9965 274.301 71.083 275.131 72.8861C275.958 74.6926 277.781 76.1425 279.767 76.0591C282.88 75.9292 284.623 72.5628 286.15 69.8464C288.533 65.6102 292.529 61.6306 297.389 61.7139C300.052 61.7606 302.595 63.0704 304.488 64.9436"/><path fill="#75F4F9" d="M322.543 57.621C317.763 54.3946 312.791 51.0883 307.108 50.1084C301.788 49.1918 296.119 50.485 291.729 53.6247C287.336 56.7644 284.277 61.7072 283.42 67.0367C283.107 68.9965 283.093 71.083 283.923 72.8861C284.75 74.6926 286.573 76.1425 288.56 76.0591C291.673 75.9292 293.416 72.5628 294.942 69.8464C297.325 65.6102 301.322 61.6306 306.181 61.7139C308.844 61.7606 311.387 63.0704 313.28 64.9436"/><path stroke="#0C1B33" stroke-linecap="round" stroke-miterlimit="10" stroke-width="1" d="M322.543 57.621C317.763 54.3946 312.791 51.0883 307.108 50.1084C301.788 49.1918 296.119 50.485 291.729 53.6247C287.336 56.7644 284.277 61.7072 283.42 67.0367C283.107 68.9965 283.093 71.083 283.923 72.8861C284.75 74.6926 286.573 76.1425 288.56 76.0591C291.673 75.9292 293.416 72.5628 294.942 69.8464C297.325 65.6102 301.322 61.6306 306.181 61.7139C308.844 61.7606 311.387 63.0704 313.28 64.9436"/><path fill="#75F4F9" d="M322.076 64.9469C320.183 63.0704 317.64 61.7605 314.977 61.7172C310.117 61.6339 306.121 65.6135 303.738 69.8497C302.211 72.5628 300.468 75.9291 297.355 76.0624C295.372 76.1457 293.549 74.6959 292.719 72.8894C291.892 71.0829 291.902 68.9998 292.216 67.04C293.069 61.7105 296.132 56.7677 300.525 53.628C304.918 50.4883 310.584 49.1918 315.903 50.1117C321.586 51.0916 327.482 55.2678 331.502 57.5643"/><path stroke="#0C1B33" stroke-linecap="round" stroke-miterlimit="10" stroke-width="1" d="M322.076 64.9469C320.183 63.0704 317.64 61.7605 314.977 61.7172C310.117 61.6339 306.121 65.6135 303.738 69.8497C302.211 72.5628 300.468 75.9291 297.355 76.0624C295.372 76.1457 293.549 74.6959 292.719 72.8894C291.892 71.0829 291.902 68.9998 292.216 67.04C293.069 61.7105 296.132 56.7677 300.525 53.628C304.918 50.4883 310.584 49.1918 315.903 50.1117C321.586 51.0916 327.482 55.2678 331.502 57.5643"/><path fill="#FED607" stroke="#0C1B33" stroke-linecap="round" stroke-miterlimit="10" stroke-width="1" d="M319.007 50.955C319.15 56.1978 314.974 61.7172 314.974 61.7172C314.974 61.7172 318.143 61.5139 321.52 64.2403C323.243 62.3005 325.686 57.9942 326.332 54.6179C324.249 53.1814 322.886 52.3215 319.007 50.955Z"/><path fill="#E96DF2" d="M313.764 177.129L297.535 181.008C297.535 181.008 282.877 174.306 272.638 174.306C268.588 174.306 263.285 174.992 257.993 176.832L257.896 176.556C258.039 169.09 256.603 162.337 247.557 158.171L247.514 158.044C256.439 154.951 263.262 155.154 263.262 155.154C263.262 155.154 266.945 144.955 278.197 144.239C286.433 143.716 287.773 145.529 290.453 142.706C291.943 141.136 293.899 137.156 297.539 137.536C301.178 137.919 302.108 140.709 300.602 144.046C298.832 147.968 294.282 150.365 292.366 150.555C310.894 154.718 313.767 177.122 313.767 177.122L313.764 177.129Z"/><path fill="#FED607" d="M257.896 176.556L257.992 176.832C255.013 177.862 252.04 179.259 249.293 181.102L249.133 180.865C248.99 170.81 246.117 165.497 237.068 163.054L237.028 162.987C240.651 160.774 244.224 159.181 247.51 158.044L247.553 158.171C256.599 162.337 258.036 169.09 257.892 176.556H257.896Z"/><path fill="#FED607" d="M249.133 180.865L249.293 181.102C246.53 182.948 244.001 185.245 241.927 188.071L241.667 187.615C242.527 173.393 232.618 169.373 228.309 169.803L228.222 169.713C231.102 166.993 234.082 164.78 237.028 162.987L237.068 163.054C246.117 165.497 248.99 170.81 249.133 180.865Z"/><path stroke="#0C1B33" stroke-linecap="round" stroke-miterlimit="10" stroke-width="1" d="M241.5 188L242 187.5C244.5 185.5 246.53 182.942 249.293 181.095C252.04 179.252 255.013 177.855 257.992 176.826C263.285 174.986 268.588 174.299 272.638 174.299C282.876 174.299 297.535 181.002 297.535 181.002L313.763 177.122C313.763 177.122 310.89 154.718 292.362 150.555C294.279 150.365 298.828 147.968 300.598 144.046C302.105 140.709 301.175 137.919 297.535 137.536C293.895 137.156 291.939 141.136 290.449 142.706C287.769 145.529 286.429 143.716 278.194 144.239C266.941 144.955 263.258 155.154 263.258 155.154C263.258 155.154 256.436 154.951 247.51 158.044C244.224 159.181 240.651 160.774 237.028 162.987C234.081 164.78 231.102 166.993 228.222 169.713C228.155 169.773 228.089 169.833 228.022 169.9"/><path stroke="#0C1B33" stroke-linecap="round" stroke-miterlimit="10" stroke-width="1" d="M228.305 169.806C232.615 169.376 242.524 173.396 241.664 187.618"/><path stroke="#0C1B33" stroke-linecap="round" stroke-miterlimit="10" stroke-width="1" d="M237.068 163.054C246.117 165.497 248.99 170.81 249.133 180.865"/><path stroke="#0C1B33" stroke-linecap="round" stroke-miterlimit="10" stroke-width="1" d="M247.553 158.171C256.599 162.337 258.036 169.09 257.892 176.555"/><path fill="#E96DF2" d="M292.652 150.415C306.728 154.581 312.184 153.288 316.063 150.845C318.7 149.185 320.983 145.822 323.989 146.622C325.909 147.135 327.216 149.062 327.466 151.032C327.716 153.001 327.229 155.068 326.199 156.764C324.389 159.747 320.37 162.044 315.63 163.05C311.847 163.854 315.577 163.404 310.317 162.187C306.584 161.324 310.317 163.194 304.861 160.607"/><path stroke="#0C1B33" stroke-linecap="round" stroke-miterlimit="10" stroke-width="1" d="M292.652 150.415C306.728 154.581 312.184 153.288 316.063 150.845C318.7 149.185 320.983 145.822 323.989 146.622C325.909 147.135 327.216 149.062 327.466 151.032C327.716 153.001 327.229 155.068 326.199 156.764C324.389 159.747 320.37 162.044 315.63 163.05C311.847 163.854 315.577 163.404 310.317 162.187C306.584 161.324 310.317 163.194 304.861 160.607"/><path fill="#E96DF2" d="M301.702 157.741C309.171 160.757 317.51 157.804 321.386 155.364C324.023 153.704 326.306 150.341 329.312 151.141C331.232 151.655 332.539 153.581 332.789 155.551C333.039 157.521 332.552 159.587 331.522 161.284C329.712 164.267 325.693 166.563 320.953 167.57C317.17 168.373 314.857 169.869 309.598 168.653C305.865 167.79 313.33 169.37 307.874 166.786"/><path stroke="#0C1B33" stroke-linecap="round" stroke-miterlimit="10" stroke-width="1" d="M301.702 157.741C309.171 160.757 317.51 157.804 321.386 155.364C324.023 153.704 326.306 150.341 329.312 151.141C331.232 151.655 332.539 153.581 332.789 155.551C333.039 157.521 332.552 159.587 331.522 161.284C329.712 164.267 325.693 166.563 320.953 167.57C317.17 168.373 314.857 169.869 309.598 168.653C305.865 167.79 313.33 169.37 307.874 166.786"/><path fill="#E96DF2" d="M304.571 165.067C314.77 168.656 323.396 164.414 327.272 161.97C329.909 160.311 332.192 156.948 335.198 157.748C337.118 158.261 338.425 160.187 338.675 162.157C338.925 164.127 338.438 166.193 337.408 167.89C335.598 170.873 331.579 173.169 326.839 174.176C323.056 174.979 315.297 174.959 310.034 173.746C306.301 172.883 313.327 175.979 307.871 173.393"/><path stroke="#0C1B33" stroke-linecap="round" stroke-miterlimit="10" stroke-width="1" d="M304.571 165.067C314.77 168.656 323.396 164.414 327.272 161.97C329.909 160.311 332.192 156.948 335.198 157.748C337.118 158.261 338.425 160.187 338.675 162.157C338.925 164.127 338.438 166.193 337.408 167.89C335.598 170.873 331.579 173.169 326.839 174.176C323.056 174.979 315.297 174.959 310.034 173.746C306.301 172.883 313.327 175.979 307.871 173.393"/><path fill="#E96DF2" d="M306.584 172.679C308.737 174.116 316.493 174.546 317.93 174.403C322.766 173.919 326.886 172.276 330.425 168.946C332.692 166.81 335.171 163.16 338.181 163.964C340.101 164.477 341.407 166.403 341.657 168.373C341.907 170.343 341.277 172.329 340.391 174.106C337.984 178.939 333.588 182.745 328.462 184.432C323.333 186.118 317.38 185.831 312.04 185.031C306.034 184.135 300.408 182.445 294.949 179.862"/><path stroke="#0C1B33" stroke-linecap="round" stroke-miterlimit="10" stroke-width="1" d="M306.584 172.679C308.737 174.116 316.493 174.546 317.93 174.403C322.766 173.919 326.886 172.276 330.425 168.946C332.692 166.81 335.171 163.16 338.181 163.964C340.101 164.477 341.407 166.403 341.657 168.373C341.907 170.343 341.277 172.329 340.391 174.106C337.984 178.939 333.588 182.745 328.462 184.432C323.333 186.118 317.38 185.831 312.04 185.031C306.034 184.135 300.408 182.445 294.949 179.862"/><path fill="#E4BC07" d="M278.681 96.3737C278.681 96.3737 279.354 99.68 283.8 100.487C288.247 101.293 294.309 99.5367 298.362 96.017C302.415 92.4974 305.978 87.7212 303.592 83.005C301.205 78.2888 291.156 80.1886 289.12 81.7751C287.26 82.7051 277.138 87.9045 278.681 96.3737Z"/><path fill="#D18000" d="M280.654 99.3567L283.414 102.416C283.414 102.416 288.023 104.619 295.536 101.146C303.048 97.6702 305.431 91.9107 305.741 88.951L304.301 85.718C304.301 85.718 304.378 90.0442 299.902 94.6938C299.315 95.1671 296.402 97.6135 293.809 98.7834C289.236 100.907 285.707 100.91 283.127 100.353C282.577 100.123 281.604 99.71 280.654 99.3567Z"/><path fill="#E4BC07" d="M297.029 91.3877C297.029 91.3877 298.039 90.7844 298.265 90.5511L297.289 88.2646L295.709 88.6279L297.032 91.3877H297.029Z"/><path fill="#E4BC07" d="M305.324 90.921L303.931 88.1279L302.825 90.7743L304.405 93.2541L305.324 90.921Z"/><path fill="#E4BC07" d="M303.281 94.8405L301.708 92.5341L300.012 94.5172L301.728 96.667L303.281 94.8405Z"/><path fill="#0C1B33" d="M281.121 96.1838C281.121 96.1838 280.917 93.334 284.194 89.9211C287.47 86.5081 292.546 83.7583 296.676 83.6417C296.676 83.6417 300.462 83.0517 301.868 85.5182C301.868 85.5182 302.112 82.0118 296.776 81.7919C291.439 81.5686 284.973 85.8948 282.12 89.7911C279.264 93.6873 281.124 96.1871 281.124 96.1871L281.121 96.1838Z"/><path fill="#E4BC07" d="M285.63 103.063L283.653 100.527C283.653 100.527 285.643 101.003 286.71 100.693C286.906 100.947 288.623 103.153 288.623 103.153"/><path fill="#E4BC07" d="M293.049 102.197L291.219 99.8468L288.846 100.42L290.629 102.85"/><path fill="#E4BC07" d="M296.955 100.407L295.139 98.0703L293.172 99.2135L294.869 101.483L296.955 100.407Z"/><path fill="#E4BC07" d="M300.505 97.9837L298.669 95.7206L296.962 97.1138L298.732 99.3835L300.505 97.9837Z"/><path stroke="#0C1B33" stroke-linecap="round" stroke-linejoin="round" stroke-width="1" d="M295.802 97.7422C302.513 93.7068 305.953 87.1093 303.486 83.0061C301.018 78.903 293.578 78.8481 286.867 82.8836C280.156 86.919 276.716 93.5165 279.184 97.6196C281.651 101.723 289.091 101.778 295.802 97.7422Z"/><path stroke="#0C1B33" stroke-linecap="round" stroke-linejoin="round" stroke-width="1" d="M294.348 95.279C299.981 91.8915 303.105 86.7463 301.325 83.7869C299.546 80.8275 293.536 81.1746 287.903 84.5621C282.27 87.9496 279.146 93.0948 280.925 96.0542C282.705 99.0136 288.714 98.6665 294.348 95.279Z"/><path stroke="#0C1B33" stroke-linecap="round" stroke-linejoin="round" stroke-width="1" d="M281.064 96.2938C280.837 93.3041 283.797 89.2212 288.53 86.3748C293.993 83.0918 299.809 82.6652 301.779 85.3416"/><path stroke="#0C1B33" stroke-linecap="round" stroke-linejoin="round" stroke-width="1" d="M280.161 98.8034C280.161 98.8034 283.25 102.43 283.517 102.5C286.433 103.84 292.306 103.19 297.246 100.22C302.235 97.2202 305.415 92.804 305.705 89.0477"/><path stroke="#0C1B33" stroke-linecap="round" stroke-linejoin="round" stroke-width="1" d="M304.248 85.3317C304.248 85.3317 305.725 88.7347 305.705 89.0213"/><path fill="#E4BC07" d="M271.834 103.886C271.151 106.38 275.071 110.319 280.86 112.869C285.92 115.095 290.802 115.545 292.869 114.162C293.259 113.905 293.549 113.575 293.722 113.186C294.809 110.712 290.812 106.56 284.796 103.916C278.777 101.267 273.021 101.123 271.934 103.6C271.894 103.693 271.858 103.79 271.831 103.89L271.834 103.886ZM295.442 114.802C294.929 115.645 294.042 116.262 292.879 116.655C292.872 116.655 292.862 116.658 292.849 116.662C292.609 116.718 292.339 116.772 292.042 116.828L292.486 115.999L289.686 116.625L289.483 117.122C289.406 117.128 289.329 117.135 289.246 117.135C288.686 117.132 288.099 117.095 287.493 117.025L287.603 116.725L285.006 116.485L284.973 116.592C284.403 116.465 283.826 116.312 283.236 116.132L283.25 116.082L282.17 115.782C281.433 115.529 280.69 115.242 279.94 114.912C279.717 114.815 279.497 114.712 279.277 114.612L279.294 114.559L277.934 113.935C277.084 113.482 276.287 113.002 275.541 112.502L275.577 112.379L273.741 110.772L273.637 111.079C273.088 110.622 272.588 110.159 272.131 109.686C272.208 109.439 272.261 109.256 272.281 109.186C271.414 108.493 270.658 106.593 270.658 106.593L270.394 107.463C270.031 106.866 269.765 106.273 269.598 105.7C269.595 105.686 269.595 105.676 269.591 105.663C269.555 105.513 269.518 105.353 269.481 105.186C269.335 104.4 269.395 103.66 269.688 102.993C271.198 99.5669 278.444 99.0769 285.616 102.233C292.782 105.386 297.152 110.986 295.649 114.412C295.589 114.545 295.522 114.675 295.442 114.802Z"/><path fill="#D18000" d="M294.306 116.232L293.012 118.822C292.329 119.208 291.336 119.552 290.116 119.768C288.343 119.918 286.3 119.735 284.21 119.285L284.243 119.125L286.633 119.342L287.446 117.152C288.09 117.168 288.693 117.159 289.249 117.132C289.326 117.132 289.399 117.135 289.476 117.135L288.573 119.342L291.009 118.748L292.009 116.885C292.302 116.825 292.582 116.745 292.849 116.662C292.862 116.659 292.869 116.655 292.879 116.655C293.812 116.439 294.309 116.235 294.309 116.235L294.306 116.232Z"/><path fill="#0C1B33" d="M284.797 103.913C290.813 106.559 294.806 110.709 293.722 113.182C293.546 113.572 293.259 113.902 292.869 114.159L292.856 114.139C293.489 111.926 289.459 108.166 283.627 105.596C278.597 103.386 273.824 102.76 271.834 103.883C271.858 103.786 271.894 103.686 271.938 103.593C273.024 101.12 278.784 101.26 284.8 103.91L284.797 103.913Z"/><path fill="#E4BC07" d="M283.627 105.6C289.459 108.166 293.492 111.929 292.856 114.142L292.869 114.162C290.803 115.545 285.92 115.095 280.86 112.869C275.071 110.323 271.151 106.383 271.835 103.886C273.824 102.763 278.597 103.39 283.627 105.6Z"/><path fill="#E4BC07" d="M292.486 115.995L292.043 116.825H292.039C291.336 116.952 290.479 117.065 289.483 117.119L289.686 116.622L292.486 115.995Z"/><path fill="#D18000" d="M292.043 116.825C292.339 116.768 292.609 116.715 292.849 116.658C292.586 116.745 292.303 116.822 292.009 116.882L292.039 116.825H292.043Z"/><path fill="#E4BC07" d="M292.036 116.825L292.006 116.882C291.239 117.048 290.389 117.135 289.469 117.135L289.476 117.118C290.472 117.065 291.329 116.952 292.032 116.825H292.036Z"/><path fill="#E4BC07" d="M292.009 116.882L291.009 118.745L288.573 119.338L289.476 117.132C290.396 117.132 291.246 117.045 292.012 116.878L292.009 116.882Z"/><path fill="#D18000" d="M289.483 117.119L289.476 117.135C289.399 117.135 289.326 117.132 289.25 117.132C289.33 117.132 289.409 117.129 289.486 117.119H289.483Z"/><path fill="#D18000" d="M284.206 119.285C286.293 119.738 288.336 119.918 290.112 119.768C286.716 120.378 281.543 120.042 276.267 116.998C270.988 113.959 269.128 110.429 268.515 108.779C269.365 110.886 271.714 113.299 274.681 115.279C275.217 115.635 275.774 115.979 276.351 116.305C276.924 116.632 277.51 116.935 278.107 117.215L278.434 117.385V117.368C278.544 117.418 278.644 117.465 278.75 117.512C279.264 117.738 279.787 117.952 280.32 118.142L280.287 118.245L282.457 118.888L282.47 118.852C283.047 119.015 283.63 119.162 284.206 119.288V119.285Z"/><path fill="#E4BC07" d="M287.603 116.722L287.493 117.022C286.686 116.932 285.84 116.788 284.973 116.585L285.006 116.478L287.603 116.718V116.722Z"/><path fill="#E4BC07" d="M287.493 117.022L287.443 117.152C286.647 117.128 285.787 117.065 284.867 116.952L284.973 116.585C285.84 116.789 286.687 116.932 287.493 117.022Z"/><path fill="#E4BC07" d="M287.443 117.152L286.63 119.342L284.24 119.125L284.866 116.952C285.786 117.065 286.646 117.125 287.443 117.152Z"/><path fill="#D18000" d="M284.867 116.952L284.24 119.125L284.207 119.285C283.63 119.158 283.047 119.011 282.47 118.848L283.11 116.575C283.553 116.705 283.887 116.795 284.057 116.845C284.333 116.885 284.603 116.922 284.867 116.955V116.952Z"/><path fill="#E4BC07" d="M283.247 116.079L283.234 116.129C282.884 116.022 282.527 115.909 282.167 115.779L283.247 116.079Z"/><path fill="#E4BC07" d="M283.237 116.125L283.11 116.572C282.544 116.409 281.804 116.182 280.997 115.902L281.124 115.485L282.17 115.775C282.527 115.905 282.887 116.019 283.237 116.125Z"/><path fill="#E4BC07" d="M283.11 116.575L282.47 118.848C281.75 118.642 281.03 118.408 280.32 118.142L280.997 115.902C281.803 116.182 282.543 116.412 283.11 116.572V116.575Z"/><path fill="#E4BC07" d="M282.47 118.848L282.457 118.885L280.287 118.242L280.32 118.138C281.027 118.408 281.75 118.638 282.47 118.845V118.848Z"/><path fill="#D18000" d="M280.997 115.902L280.32 118.142C279.787 117.952 279.264 117.738 278.75 117.512C278.644 117.468 278.544 117.418 278.437 117.368L279.104 115.175C279.737 115.449 280.387 115.692 280.997 115.905V115.902Z"/><path fill="#E4BC07" d="M279.294 114.552L279.277 114.605C278.817 114.389 278.371 114.165 277.934 113.929L279.294 114.552Z"/><path fill="#E4BC07" d="M279.277 114.605L279.107 115.175C278.44 114.892 277.787 114.572 277.204 114.229L277.057 114.142L277.227 113.609L277.934 113.929C278.37 114.166 278.817 114.389 279.277 114.605Z"/><path fill="#E4BC07" d="M279.104 115.175L278.437 117.368C278.327 117.318 278.217 117.272 278.107 117.215L276.351 116.305L277.054 114.145L277.2 114.232C277.787 114.579 278.437 114.895 279.104 115.178V115.175Z"/><path fill="#E4BC07" d="M278.437 117.369V117.385L278.107 117.215C278.217 117.272 278.327 117.322 278.437 117.369Z"/><path fill="#D18000" d="M276.351 116.302L278.107 117.212C277.51 116.932 276.924 116.625 276.351 116.302Z"/><path fill="#D18000" d="M277.054 114.142L276.351 116.302C275.777 115.975 275.221 115.635 274.681 115.275L274.714 115.225L275.371 113.059C275.887 113.425 276.45 113.782 277.054 114.139V114.142Z"/><path fill="#E4BC07" d="M275.578 112.375L275.541 112.499C274.858 112.039 274.221 111.562 273.641 111.076L273.744 110.769L275.581 112.375H275.578Z"/><path fill="#E4BC07" d="M275.541 112.495L275.371 113.062C274.668 112.565 274.041 112.062 273.481 111.552L273.641 111.072C274.224 111.562 274.857 112.035 275.541 112.495Z"/><path fill="#E4BC07" d="M275.371 113.062L274.714 115.229L272.788 113.625L273.481 111.556C274.037 112.066 274.664 112.569 275.371 113.066V113.062Z"/><path fill="#D18000" d="M274.714 115.229L274.681 115.278C271.715 113.302 269.365 110.889 268.515 108.779C268.455 108.629 268.402 108.479 268.362 108.326C268.312 108.166 268.285 108.046 268.265 107.959C268.252 107.919 268.245 107.873 268.235 107.833L268.472 106.789C268.711 105.959 269.081 104.843 269.265 104.296C269.341 104.603 269.415 104.903 269.481 105.183C269.505 105.336 269.548 105.499 269.591 105.659C269.595 105.673 269.595 105.683 269.598 105.696C269.658 105.969 269.711 106.213 269.758 106.403C269.925 106.796 270.121 107.206 270.348 107.619L269.728 109.662L271.381 112.162C271.381 112.162 271.755 110.932 272.024 110.049C272.451 110.549 272.931 111.049 273.481 111.552L272.788 113.622L274.714 115.225V115.229Z"/><path fill="#E4BC07" d="M272.284 109.179C272.264 109.249 272.211 109.433 272.134 109.679C271.428 108.943 270.841 108.193 270.398 107.456L270.661 106.586C270.661 106.586 271.418 108.486 272.284 109.179Z"/><path fill="#E4BC07" d="M272.135 109.679C272.101 109.792 272.065 109.916 272.025 110.049C271.325 109.226 270.778 108.409 270.348 107.619L270.398 107.456C270.841 108.193 271.428 108.943 272.135 109.679Z"/><path fill="#E4BC07" d="M272.024 110.049C271.754 110.933 271.381 112.162 271.381 112.162L269.728 109.663L270.348 107.62C270.778 108.409 271.325 109.226 272.024 110.049Z"/><path fill="#D18000" d="M269.481 105.183C269.518 105.35 269.555 105.51 269.591 105.66C269.548 105.5 269.505 105.34 269.481 105.183Z"/><path fill="#D18000" d="M269.145 103.813C269.188 103.976 269.231 104.14 269.268 104.296C269.085 104.846 268.715 105.959 268.475 106.789L269.145 103.81V103.813Z"/><path stroke="#0C1B33" stroke-linecap="round" stroke-linejoin="round" stroke-width="1" d="M282.17 115.775C281.433 115.522 280.69 115.235 279.94 114.905C279.717 114.809 279.497 114.705 279.277 114.605C278.817 114.389 278.37 114.165 277.934 113.929C277.084 113.475 276.287 112.995 275.541 112.495C274.857 112.035 274.221 111.559 273.641 111.072C273.091 110.616 272.591 110.152 272.134 109.679C271.428 108.942 270.841 108.193 270.398 107.456C270.035 106.859 269.768 106.266 269.601 105.693C269.598 105.679 269.598 105.669 269.595 105.656C269.551 105.496 269.508 105.336 269.485 105.179C269.338 104.393 269.398 103.653 269.691 102.986C271.201 99.56 278.447 99.0701 285.62 102.226C292.786 105.379 297.155 110.979 295.652 114.405C295.592 114.539 295.525 114.669 295.445 114.795C294.932 115.638 294.045 116.255 292.882 116.648C292.876 116.648 292.866 116.652 292.852 116.655C292.589 116.742 292.306 116.818 292.012 116.878C291.246 117.045 290.396 117.132 289.476 117.132C289.399 117.132 289.326 117.128 289.249 117.128C288.689 117.125 288.103 117.088 287.496 117.018C286.69 116.928 285.843 116.785 284.976 116.582C284.406 116.455 283.83 116.302 283.24 116.122C282.89 116.015 282.533 115.902 282.173 115.772L282.17 115.775Z"/><path stroke="#0C1B33" stroke-linecap="round" stroke-linejoin="round" stroke-width="1" d="M292.869 114.162C290.803 115.545 285.92 115.095 280.86 112.869C275.071 110.322 271.151 106.383 271.835 103.886C271.858 103.79 271.895 103.69 271.938 103.596C273.024 101.123 278.784 101.263 284.8 103.913C290.816 106.559 294.809 110.709 293.726 113.182C293.549 113.572 293.262 113.902 292.872 114.159L292.869 114.162Z"/><path stroke="#0C1B33" stroke-linecap="round" stroke-linejoin="round" stroke-width="1" d="M271.801 103.903C271.801 103.903 271.821 103.89 271.835 103.886C273.824 102.763 278.597 103.39 283.627 105.6C289.46 108.166 293.492 111.929 292.856 114.142"/><path stroke="#0C1B33" stroke-linecap="round" stroke-linejoin="round" stroke-width="1" d="M269.385 103.956C269.385 103.956 269.341 104.086 269.268 104.299C269.085 104.849 268.715 105.963 268.475 106.793C268.312 107.329 268.212 107.752 268.238 107.836C268.245 107.876 268.255 107.922 268.268 107.962C268.292 108.086 268.325 108.206 268.365 108.329C268.405 108.479 268.458 108.629 268.518 108.782C269.368 110.889 271.718 113.302 274.684 115.282C275.221 115.638 275.777 115.982 276.354 116.308C276.927 116.635 277.514 116.938 278.111 117.218C278.221 117.275 278.33 117.325 278.44 117.372C278.547 117.421 278.647 117.468 278.754 117.515C279.267 117.741 279.79 117.955 280.324 118.145C281.03 118.415 281.753 118.645 282.473 118.851C283.05 119.015 283.633 119.161 284.21 119.288C286.296 119.741 288.339 119.921 290.116 119.771C291.529 119.655 292.772 119.325 293.732 118.751"/><path stroke="#0C1B33" stroke-linecap="round" stroke-linejoin="round" stroke-width="1" d="M295.525 114.585C295.525 114.585 295.492 114.662 295.439 114.802C295.112 115.628 293.949 118.548 293.729 118.675"/><path fill="#E4BC07" d="M286.656 130.86C286.656 130.86 289.156 133.124 293.215 131.147C297.275 129.171 301.125 124.161 302.308 118.925C303.491 113.689 303.538 107.729 298.821 105.343C294.105 102.957 287.129 110.432 286.426 112.919C285.476 114.769 280.393 124.951 286.653 130.864L286.656 130.86Z"/><path fill="#D18000" d="M290.013 132.097L294.049 132.93C294.049 132.93 299.068 131.98 303.068 124.734C307.068 117.488 305.581 111.432 304.078 108.863L301.005 107.106C301.005 107.106 303.628 110.546 302.768 116.945C302.575 117.675 301.675 121.371 300.278 123.848C297.849 128.267 295.006 130.357 292.599 131.437C292.022 131.577 290.989 131.824 290.016 132.097H290.013Z"/><path fill="#E4BC07" d="M298.495 115.982C298.495 115.982 298.952 114.899 298.995 114.579L296.855 113.315L295.795 114.542L298.492 115.982H298.495Z"/><path fill="#E4BC07" d="M304.908 110.696L302.131 109.269L302.805 112.056L305.544 113.122L304.908 110.696Z"/><path fill="#E4BC07" d="M305.577 115.065L302.944 114.139L302.751 116.738L305.407 117.455L305.577 115.065Z"/><path fill="#0C1B33" d="M288.51 129.261C288.51 129.261 286.66 127.084 287.28 122.395C287.9 117.705 290.363 112.486 293.626 109.946C293.626 109.946 296.329 107.229 298.922 108.386C298.922 108.386 297.042 105.416 292.609 108.396C288.176 111.376 285.523 118.685 285.53 123.518C285.533 128.347 288.51 129.264 288.51 129.264V129.261Z"/><path fill="#E4BC07" d="M296.215 132.14L293.122 131.264C293.122 131.264 295.009 130.47 295.685 129.591C295.995 129.677 298.685 130.44 298.685 130.44"/><path fill="#E4BC07" d="M301.685 127.051L298.818 126.241L297.245 128.107L300.118 129.007"/><path fill="#E4BC07" d="M303.774 123.294L300.925 122.488L300.018 124.571L302.728 125.398L303.774 123.294Z"/><path fill="#E4BC07" d="M305.201 119.242L302.381 118.505L301.831 120.638L304.597 121.422L305.201 119.242Z"/><path stroke="#0C1B33" stroke-linecap="round" stroke-linejoin="round" stroke-width="1" d="M301.268 121.84C304.289 114.616 303.159 107.262 298.742 105.414C294.325 103.566 288.294 107.925 285.272 115.149C282.25 122.373 283.381 129.727 287.798 131.574C292.215 133.422 298.246 129.064 301.268 121.84Z"/><path stroke="#0C1B33" stroke-linecap="round" stroke-linejoin="round" stroke-width="1" d="M298.636 120.719C301.173 114.655 300.647 108.659 297.461 107.326C294.275 105.993 289.636 109.829 287.099 115.893C284.563 121.957 285.089 127.954 288.275 129.286C291.46 130.619 296.099 126.783 298.636 120.719Z"/><path stroke="#0C1B33" stroke-linecap="round" stroke-linejoin="round" stroke-width="1" d="M288.529 129.384C286.576 127.107 286.546 122.065 288.676 116.972C291.136 111.092 295.572 107.306 298.745 108.296"/><path stroke="#0C1B33" stroke-linecap="round" stroke-linejoin="round" stroke-width="1" d="M289.286 131.944C289.286 131.944 293.922 133.037 294.178 132.937C297.322 132.29 301.671 128.291 303.894 122.975C306.141 117.605 306.091 112.162 304.104 108.963"/><path stroke="#0C1B33" stroke-linecap="round" stroke-linejoin="round" stroke-width="1" d="M300.728 106.826C300.728 106.826 303.934 108.696 304.084 108.939"/><path fill="#E4BC07" d="M279.347 149.769C279.347 149.769 276.844 152.032 278.414 156.268C279.98 160.504 284.58 164.83 289.673 166.527C294.766 168.223 300.692 168.86 303.535 164.407C306.378 159.951 299.628 152.268 297.225 151.322C295.479 150.195 285.85 144.126 279.347 149.765V149.769Z"/><path fill="#D18000" d="M277.784 152.985L276.557 156.918C276.557 156.918 277.004 162.007 283.82 166.703C290.636 171.403 296.808 170.523 299.515 169.283L301.568 166.4C301.568 166.4 297.885 168.67 291.602 167.18C290.896 166.917 287.306 165.654 284.98 164.017C280.823 161.161 279.027 158.124 278.19 155.621C278.107 155.031 277.967 153.981 277.787 152.985H277.784Z"/><path fill="#E4BC07" d="M292.975 163.024C292.975 163.024 294.009 163.584 294.322 163.66L295.792 161.657L294.675 160.481L292.972 163.024H292.975Z"/><path fill="#E4BC07" d="M297.602 169.93L299.298 167.307L296.455 167.703L295.125 170.323L297.602 169.93Z"/><path fill="#E4BC07" d="M293.189 170.163L294.372 167.633L291.802 167.183L290.826 169.756L293.189 170.163Z"/><path fill="#0C1B33" d="M280.753 151.772C280.753 151.772 283.103 150.145 287.709 151.228C292.312 152.312 297.265 155.281 299.468 158.778C299.468 158.778 301.905 161.737 300.495 164.204C300.495 164.204 303.634 162.627 301.111 157.921C298.588 153.215 291.576 149.852 286.766 149.375C281.96 148.902 280.753 151.772 280.753 151.772Z"/><path fill="#E4BC07" d="M277.127 159.154L278.304 156.161C278.304 156.161 278.907 158.118 279.717 158.878L278.573 161.777"/><path fill="#E4BC07" d="M281.647 165.1L282.737 162.327L281.037 160.577L279.854 163.347"/><path fill="#E4BC07" d="M285.18 167.55L286.263 164.797L284.28 163.687L283.19 166.304L285.18 167.55Z"/><path fill="#E4BC07" d="M289.069 169.373L290.082 166.64L288.016 165.88L286.959 168.56L289.069 169.373Z"/><path stroke="#0C1B33" stroke-linecap="round" stroke-linejoin="round" stroke-width="1" d="M303.472 164.324C305.749 160.112 302.01 153.679 295.121 149.956C288.232 146.233 280.802 146.629 278.526 150.841C276.249 155.053 279.988 161.486 286.877 165.209C293.766 168.932 301.196 168.536 303.472 164.324Z"/><path stroke="#0C1B33" stroke-linecap="round" stroke-linejoin="round" stroke-width="1" d="M301.703 162.854C303.345 159.816 299.989 154.82 294.206 151.694C288.423 148.569 282.404 148.498 280.762 151.536C279.12 154.574 282.477 159.57 288.26 162.696C294.043 165.821 300.061 165.892 301.703 162.854Z"/><path stroke="#0C1B33" stroke-linecap="round" stroke-linejoin="round" stroke-width="1" d="M280.63 151.779C283.087 150.062 288.11 150.532 292.966 153.158C298.572 156.188 301.898 160.978 300.598 164.037"/><path stroke="#0C1B33" stroke-linecap="round" stroke-linejoin="round" stroke-width="1" d="M278.007 152.278C278.007 152.278 276.46 156.785 276.534 157.048C276.864 160.238 280.413 164.964 285.483 167.703C290.606 170.47 296.025 170.963 299.405 169.3"/><path stroke="#0C1B33" stroke-linecap="round" stroke-linejoin="round" stroke-width="1" d="M301.865 166.154C301.865 166.154 299.685 169.157 299.432 169.283"/></g><defs><clipPath id="clip0_421_19337"><rect width="589" height="232" fill="#fff"/></clipPath><clipPath id="clip1_421_19337"><rect width="134" height="68" fill="#fff" transform="translate(111 164)"/></clipPath></defs></svg>