<svg xmlns="http://www.w3.org/2000/svg" width="589" height="232" fill="none" viewBox="0 0 589 232"><g clip-path="url(#a)"><path fill="#e4bc07" stroke="#0c1b33" stroke-linecap="round" stroke-miterlimit="10" d="m605 37.5 6-13S528-8 458 10s-97.182 44.103-97.182 44.103L377 74s28.613-25.97 81-39 139.5 19.103 139.5 19.103z"/><g clip-path="url(#b)"><path fill="#e96df2" stroke="#0c1b33" stroke-linecap="round" stroke-miterlimit="10" d="m105 262-25-22.5s54 1.5 95.5-27S228 170 228 170h17v14s-1.5 4-44 36-96 42-96 42Z"/></g><path fill="#fffaf0" d="M370.788 61.567c.78-1.386 1.939-3.366 3.449-3.666 1.713-.337 3.613-.133 4.986.946.947.75 1.56 1.84 2.06 2.934 2.8 6.129 1.853 10.072.704 11.792l.066.05c-1.126 1.453-2.363 2.823-3.703 4.163-6.136 6.589-14.622 8.879-20.628 9.645l-.053-.453c1.693-2.31 2.38-4.573 2.866-7.42.534-3.116.44-6.392-.43-9.415l.054-.017c1.533-.766 2.743-1.14 5.746-3.256 2.136-1.507 3.613-3.2 4.863-5.323l.023.017z"/><path fill="#fffaf0" d="M371.188 50.869c1.969 2.543 1.843 6.259.406 9.135-.27.54-.546 1.053-.83 1.547-1.25 2.123-2.726 3.816-4.863 5.323-3.003 2.116-4.212 2.49-5.746 3.256l-.053.017a16.3 16.3 0 0 0-2.186-4.72c-1.58-2.326-3.77-3.853-6.376-4.87l-.077-.27c1.37-.393 2.563-.953 3.523-1.646 4.383-3.173 6.406-7.802 7.326-11.712l.143.033c4.403-.19 7.629 2.49 8.733 3.91zm-3.947 7.386a2.68 2.68 0 1 0-5.359.007 2.68 2.68 0 0 0 5.359-.008"/><path fill="#fed607" d="M364.562 55.578a2.674 2.674 0 0 1 2.676 2.676 2.68 2.68 0 1 1-2.676-2.676"/><path fill="#75f4f9" d="M360.102 70.147c.87 3.022.963 6.299.43 9.415-.483 2.843-1.173 5.106-2.866 7.42l.053.453c-4.303.546-7.333.313-7.333.313l-16.658-2.086-9.959-1.36c.767-6.51-1.913-10.916-7.659-13.789-5.993-2.996-19.531-1.34-19.531-1.34s-7.473-.383-6.893-8.809c.573-8.429 27.574-10.915 38.489-4.593 8.793 5.09 17.605 6.17 23.288 4.517l.077.27c2.609 1.016 4.796 2.542 6.376 4.869a16.5 16.5 0 0 1 2.186 4.72"/><path stroke="#0c1b33" stroke-linecap="round" stroke-miterlimit="10" d="M382.05 73.626a44 44 0 0 1-3.703 4.163c-6.136 6.59-14.622 8.88-20.628 9.646-4.303.546-7.332.313-7.332.313l-16.659-2.087-9.959-1.36c.767-6.509-1.913-10.915-7.659-13.788-5.993-2.996-19.531-1.34-19.531-1.34s-7.473-.383-6.893-8.809c.573-8.43 27.574-10.915 38.489-4.593 8.793 5.09 17.605 6.17 23.288 4.516 1.37-.393 2.563-.953 3.523-1.646 4.383-3.173 6.406-7.803 7.326-11.712"/><path stroke="#0c1b33" stroke-linecap="round" stroke-miterlimit="10" d="M351.54 60.554c2.609 1.017 4.796 2.543 6.376 4.87a16.5 16.5 0 0 1 2.186 4.719c.87 3.023.963 6.3.43 9.416-.483 2.843-1.173 5.106-2.866 7.419m4.786-40.019c4.403-.19 7.629 2.49 8.733 3.91 1.969 2.542 1.843 6.259.406 9.135-.27.54-.546 1.053-.83 1.547-1.25 2.123-2.726 3.816-4.863 5.322-3.003 2.117-4.212 2.49-5.746 3.257m10.343-8.04q.134-.24.293-.52c.78-1.386 1.94-3.366 3.45-3.666 1.713-.336 3.613-.133 4.986.947.946.75 1.56 1.84 2.06 2.933 2.799 6.13 1.853 10.072.703 11.792"/><path stroke="#0c1b33" stroke-linecap="round" stroke-miterlimit="10" d="M367.238 58.254a2.68 2.68 0 1 1-2.676-2.676 2.67 2.67 0 0 1 2.676 2.676Z"/><path fill="#75f4f9" d="M348.09 87.461c-7.853-.956-17.372.75-23.921 5.923-2.373 1.873-4.713 4.456-7.729 4.27-3.62-.227-5.726-4.773-4.62-8.226 1.107-3.453 4.34-5.783 7.629-7.306 3.22-1.49 7.196-3.053 7.803-6.546"/><path stroke="#0c1b33" stroke-linecap="round" stroke-miterlimit="10" d="M348.09 87.461c-7.853-.956-17.372.75-23.921 5.923-2.373 1.873-4.713 4.456-7.729 4.27-3.62-.227-5.726-4.773-4.62-8.226 1.107-3.453 4.34-5.783 7.629-7.306 3.22-1.49 7.196-3.053 7.803-6.546"/><path fill="#d1fdff" stroke="#0c1b33" stroke-linecap="round" stroke-miterlimit="10" d="m322.943 56.218 9.592-7.253-.553-4.903-8.999-3.9-4 2.94 1.856 12.33z"/><path stroke="#0c1b33" stroke-linecap="round" stroke-miterlimit="10" d="m327.892 47.749-4.95 8.469"/><path fill="#d1fdff" d="m327.265 42.053-3.916 3.15-2.51 10.228"/><path stroke="#0c1b33" stroke-linecap="round" stroke-miterlimit="10" d="m327.265 42.053-3.916 3.15-2.51 10.228m7.256-13.191.04 4.532m-9.152-3.669 13.509 5.962"/><path fill="#75f4f9" stroke="#0c1b33" stroke-linecap="round" stroke-miterlimit="10" d="M279.344 57.301s-2.107 2.873-5.746 3.64c-6.286 1.323-13.979-.574-13.212 4.98.603 4.379 5.106 5.745 9.765 5.745 5.553 0 13.789-1.916 17.235-6.892 3.447-4.98-8.042-7.47-8.042-7.47z"/><path fill="#75f4f9" d="M313.75 57.621c-4.779-3.226-9.752-6.533-15.435-7.513-5.319-.916-10.989.377-15.378 3.517-4.393 3.14-7.453 8.082-8.309 13.412-.314 1.96-.327 4.046.503 5.85.827 1.806 2.65 3.255 4.636 3.172 3.113-.13 4.856-3.496 6.383-6.213 2.383-4.236 6.379-8.215 11.239-8.132 2.663.047 5.206 1.356 7.099 3.23"/><path stroke="#0c1b33" stroke-linecap="round" stroke-miterlimit="10" d="M313.75 57.621c-4.779-3.226-9.752-6.533-15.435-7.513-5.319-.916-10.989.377-15.378 3.517-4.393 3.14-7.453 8.082-8.309 13.412-.314 1.96-.327 4.046.503 5.85.827 1.806 2.65 3.255 4.636 3.172 3.113-.13 4.856-3.496 6.383-6.213 2.383-4.236 6.379-8.215 11.239-8.132 2.663.047 5.206 1.356 7.099 3.23"/><path fill="#75f4f9" d="M322.543 57.621c-4.78-3.226-9.752-6.533-15.435-7.513-5.32-.916-10.989.377-15.379 3.517-4.393 3.14-7.452 8.082-8.309 13.412-.313 1.96-.327 4.046.503 5.85.827 1.806 2.65 3.255 4.637 3.172 3.113-.13 4.856-3.496 6.382-6.213 2.383-4.236 6.38-8.215 11.239-8.132 2.663.047 5.206 1.356 7.099 3.23"/><path stroke="#0c1b33" stroke-linecap="round" stroke-miterlimit="10" d="M322.543 57.621c-4.78-3.226-9.752-6.533-15.435-7.513-5.32-.916-10.989.377-15.379 3.517-4.393 3.14-7.452 8.082-8.309 13.412-.313 1.96-.327 4.046.503 5.85.827 1.806 2.65 3.255 4.637 3.172 3.113-.13 4.856-3.496 6.382-6.213 2.383-4.236 6.38-8.215 11.239-8.132 2.663.047 5.206 1.356 7.099 3.23"/><path fill="#75f4f9" d="M322.076 64.947c-1.893-1.877-4.436-3.187-7.099-3.23-4.86-.083-8.856 3.897-11.239 8.133-1.527 2.713-3.27 6.08-6.383 6.212-1.983.084-3.806-1.366-4.636-3.173-.827-1.806-.817-3.89-.503-5.849.853-5.33 3.916-10.272 8.309-13.412s10.059-4.436 15.378-3.516c5.683.98 11.579 5.156 15.599 7.452"/><path stroke="#0c1b33" stroke-linecap="round" stroke-miterlimit="10" d="M322.076 64.947c-1.893-1.877-4.436-3.187-7.099-3.23-4.86-.083-8.856 3.897-11.239 8.133-1.527 2.713-3.27 6.08-6.383 6.212-1.983.084-3.806-1.366-4.636-3.173-.827-1.806-.817-3.89-.503-5.849.853-5.33 3.916-10.272 8.309-13.412s10.059-4.436 15.378-3.516c5.683.98 11.579 5.156 15.599 7.452"/><path fill="#fed607" stroke="#0c1b33" stroke-linecap="round" stroke-miterlimit="10" d="M319.007 50.955c.143 5.243-4.033 10.762-4.033 10.762s3.169-.203 6.546 2.523c1.723-1.94 4.166-6.246 4.812-9.622-2.083-1.437-3.446-2.297-7.325-3.663Z"/><path fill="#e96df2" d="m313.764 177.129-16.229 3.879s-14.658-6.702-24.897-6.702c-4.05 0-9.353.686-14.645 2.526l-.097-.276c.143-7.466-1.293-14.219-10.339-18.385l-.043-.127c8.925-3.093 15.748-2.89 15.748-2.89s3.683-10.199 14.935-10.915c8.236-.523 9.576 1.29 12.256-1.533 1.49-1.57 3.446-5.55 7.086-5.17 3.639.383 4.569 3.173 3.063 6.51-1.77 3.922-6.32 6.319-8.236 6.509 18.528 4.163 21.401 26.567 21.401 26.567z"/><path fill="#fed607" d="m257.896 176.556.096.276c-2.979 1.03-5.952 2.427-8.699 4.27l-.16-.237c-.143-10.055-3.016-15.368-12.065-17.811l-.04-.067a54 54 0 0 1 10.482-4.943l.043.127c9.046 4.166 10.483 10.919 10.339 18.385z"/><path fill="#fed607" d="m249.133 180.865.16.237c-2.763 1.846-5.292 4.143-7.366 6.969l-.26-.456c.86-14.222-9.049-18.242-13.358-17.812l-.087-.09a52.8 52.8 0 0 1 8.806-6.726l.04.067c9.049 2.443 11.922 7.756 12.065 17.811"/><path stroke="#0c1b33" stroke-linecap="round" stroke-miterlimit="10" d="m241.5 188 .5-.5c2.5-2 4.53-4.558 7.293-6.405 2.747-1.843 5.72-3.24 8.699-4.269 5.293-1.84 10.596-2.527 14.646-2.527 10.238 0 24.897 6.703 24.897 6.703l16.228-3.88s-2.873-22.404-21.401-26.567c1.917-.19 6.466-2.587 8.236-6.509 1.507-3.337.577-6.127-3.063-6.51-3.64-.38-5.596 3.6-7.086 5.17-2.68 2.823-4.02 1.01-12.255 1.533-11.253.716-14.936 10.915-14.936 10.915s-6.822-.203-15.748 2.89a54 54 0 0 0-10.482 4.943 52.7 52.7 0 0 0-8.806 6.726q-.1.088-.2.187"/><path stroke="#0c1b33" stroke-linecap="round" stroke-miterlimit="10" d="M228.305 169.806c4.31-.43 14.219 3.59 13.359 17.812m-4.596-24.564c9.049 2.443 11.922 7.756 12.065 17.811m-1.58-22.694c9.046 4.166 10.483 10.919 10.339 18.384"/><path fill="#e96df2" d="M292.652 150.415c14.076 4.166 19.532 2.873 23.411.43 2.637-1.66 4.92-5.023 7.926-4.223 1.92.513 3.227 2.44 3.477 4.41.25 1.969-.237 4.036-1.267 5.732-1.81 2.983-5.829 5.28-10.569 6.286-3.783.804-.053.354-5.313-.863-3.733-.863 0 1.007-5.456-1.58"/><path stroke="#0c1b33" stroke-linecap="round" stroke-miterlimit="10" d="M292.652 150.415c14.076 4.166 19.532 2.873 23.411.43 2.637-1.66 4.92-5.023 7.926-4.223 1.92.513 3.227 2.44 3.477 4.41.25 1.969-.237 4.036-1.267 5.732-1.81 2.983-5.829 5.28-10.569 6.286-3.783.804-.053.354-5.313-.863-3.733-.863 0 1.007-5.456-1.58"/><path fill="#e96df2" d="M301.702 157.741c7.469 3.016 15.808.063 19.684-2.377 2.637-1.66 4.92-5.023 7.926-4.223 1.92.514 3.227 2.44 3.477 4.41s-.237 4.036-1.267 5.733c-1.81 2.983-5.829 5.279-10.569 6.286-3.783.803-6.096 2.299-11.355 1.083-3.733-.863 3.732.717-1.724-1.867"/><path stroke="#0c1b33" stroke-linecap="round" stroke-miterlimit="10" d="M301.702 157.741c7.469 3.016 15.808.063 19.684-2.377 2.637-1.66 4.92-5.023 7.926-4.223 1.92.514 3.227 2.44 3.477 4.41s-.237 4.036-1.267 5.733c-1.81 2.983-5.829 5.279-10.569 6.286-3.783.803-6.096 2.299-11.355 1.083-3.733-.863 3.732.717-1.724-1.867"/><path fill="#e96df2" d="M304.571 165.067c10.199 3.589 18.825-.653 22.701-3.097 2.637-1.659 4.92-5.022 7.926-4.222 1.92.513 3.227 2.439 3.477 4.409s-.237 4.036-1.267 5.733c-1.81 2.983-5.829 5.279-10.569 6.286-3.783.803-11.542.783-16.805-.43-3.733-.863 3.293 2.233-2.163-.353"/><path stroke="#0c1b33" stroke-linecap="round" stroke-miterlimit="10" d="M304.571 165.067c10.199 3.589 18.825-.653 22.701-3.097 2.637-1.659 4.92-5.022 7.926-4.222 1.92.513 3.227 2.439 3.477 4.409s-.237 4.036-1.267 5.733c-1.81 2.983-5.829 5.279-10.569 6.286-3.783.803-11.542.783-16.805-.43-3.733-.863 3.293 2.233-2.163-.353"/><path fill="#e96df2" d="M306.584 172.679c2.153 1.437 9.909 1.867 11.346 1.724 4.836-.484 8.956-2.127 12.495-5.457 2.267-2.136 4.746-5.786 7.756-4.982 1.92.513 3.226 2.439 3.476 4.409s-.38 3.956-1.266 5.733c-2.407 4.833-6.803 8.639-11.929 10.326-5.129 1.686-11.082 1.399-16.422.599-6.006-.896-11.632-2.586-17.091-5.169"/><path stroke="#0c1b33" stroke-linecap="round" stroke-miterlimit="10" d="M306.584 172.679c2.153 1.437 9.909 1.867 11.346 1.724 4.836-.484 8.956-2.127 12.495-5.457 2.267-2.136 4.746-5.786 7.756-4.982 1.92.513 3.226 2.439 3.476 4.409s-.38 3.956-1.266 5.733c-2.407 4.833-6.803 8.639-11.929 10.326-5.129 1.686-11.082 1.399-16.422.599-6.006-.896-11.632-2.586-17.091-5.169"/><path fill="#e4bc07" d="M278.681 96.374s.673 3.306 5.119 4.113c4.447.806 10.509-.95 14.562-4.47s7.616-8.296 5.23-13.012c-2.387-4.716-12.436-2.816-14.472-1.23-1.86.93-11.982 6.13-10.439 14.599"/><path fill="#d18000" d="m280.654 99.357 2.76 3.059s4.609 2.203 12.122-1.27c7.512-3.476 9.895-9.235 10.205-12.195l-1.44-3.233s.077 4.326-4.399 8.976c-.587.473-3.5 2.92-6.093 4.09-4.573 2.123-8.102 2.126-10.682 1.569-.55-.23-1.523-.643-2.473-.996"/><path fill="#e4bc07" d="M297.029 91.388s1.01-.604 1.236-.837l-.976-2.286-1.58.363 1.323 2.76zm8.295-.467-1.393-2.793-1.106 2.646 1.58 2.48zm-2.043 3.919-1.573-2.306-1.696 1.983 1.716 2.15z"/><path fill="#0c1b33" d="M281.121 96.184s-.204-2.85 3.073-6.263c3.276-3.413 8.352-6.163 12.482-6.28 0 0 3.786-.59 5.192 1.877 0 0 .244-3.506-5.092-3.726-5.337-.223-11.803 4.103-14.656 8-2.856 3.895-.996 6.395-.996 6.395z"/><path fill="#e4bc07" d="m285.63 103.063-1.977-2.536s1.99.476 3.057.166c.196.254 1.913 2.46 1.913 2.46m4.426-.956-1.83-2.35-2.373.573 1.783 2.43m6.326-2.443-1.816-2.337-1.967 1.144 1.697 2.269zm3.55-2.423-1.836-2.263-1.707 1.393 1.77 2.27z"/><path stroke="#0c1b33" stroke-linecap="round" stroke-linejoin="round" d="M295.802 97.742c6.711-4.035 10.151-10.633 7.684-14.736-2.468-4.103-9.908-4.158-16.619-.122-6.711 4.035-10.151 10.632-7.683 14.736 2.467 4.103 9.907 4.158 16.618.122"/><path stroke="#0c1b33" stroke-linecap="round" stroke-linejoin="round" d="M294.348 95.279c5.633-3.388 8.757-8.533 6.977-11.492s-7.789-2.612-13.422.775-8.757 8.533-6.978 11.492c1.78 2.96 7.789 2.612 13.423-.775"/><path stroke="#0c1b33" stroke-linecap="round" stroke-linejoin="round" d="M281.064 96.294c-.227-2.99 2.733-7.073 7.466-9.92 5.463-3.282 11.279-3.709 13.249-1.032m-21.618 13.461s3.089 3.627 3.356 3.697c2.916 1.34 8.789.69 13.729-2.28 4.989-3 8.169-7.416 8.459-11.172m-1.457-3.716s1.477 3.403 1.457 3.69"/><path fill="#e4bc07" d="M271.834 103.886c-.683 2.494 3.237 6.433 9.026 8.983 5.06 2.226 9.942 2.676 12.009 1.293.39-.257.68-.587.853-.976 1.087-2.474-2.91-6.626-8.926-9.27-6.019-2.649-11.775-2.793-12.862-.316q-.061.14-.103.29zm23.608 10.916c-.513.843-1.4 1.46-2.563 1.853l-.03.007q-.36.083-.807.166l.444-.829-2.8.626-.203.497c-.077.006-.154.013-.237.013q-.842-.005-1.753-.11l.11-.3-2.597-.24-.033.107q-.853-.19-1.737-.46l.014-.05-1.08-.3a29 29 0 0 1-2.23-.87c-.223-.097-.443-.2-.663-.3l.017-.053-1.36-.624a28 28 0 0 1-2.393-1.433l.036-.123-1.836-1.607-.104.307a19 19 0 0 1-1.506-1.393c.077-.247.13-.43.15-.5-.867-.693-1.623-2.593-1.623-2.593l-.264.87a7.4 7.4 0 0 1-.796-1.763l-.007-.037q-.054-.226-.11-.477c-.146-.786-.086-1.526.207-2.193 1.51-3.426 8.756-3.916 15.928-.76 7.166 3.153 11.536 8.753 10.033 12.179q-.088.2-.207.39"/><path fill="#d18000" d="m294.306 116.232-1.294 2.59c-.683.386-1.676.73-2.896.946-1.773.15-3.816-.033-5.906-.483l.033-.16 2.39.217.813-2.19a25 25 0 0 0 1.803-.02l.227.003-.903 2.207 2.436-.594 1-1.863c.293-.06.573-.14.84-.223.013-.003.02-.007.03-.007.933-.216 1.43-.42 1.43-.42z"/><path fill="#0c1b33" d="M284.797 103.913c6.016 2.646 10.009 6.796 8.925 9.269a2.3 2.3 0 0 1-.853.977l-.013-.02c.633-2.213-3.397-5.973-9.229-8.543-5.03-2.21-9.803-2.836-11.793-1.713.024-.097.06-.197.104-.29 1.086-2.473 6.846-2.333 12.862.317z"/><path fill="#e4bc07" d="M283.627 105.6c5.832 2.566 9.865 6.329 9.229 8.542l.013.02c-2.066 1.383-6.949.933-12.009-1.293-5.789-2.546-9.709-6.486-9.025-8.983 1.989-1.123 6.762-.496 11.792 1.714m8.859 10.395-.443.83h-.004c-.703.127-1.56.24-2.556.294l.203-.497z"/><path fill="#d18000" d="M292.043 116.825q.445-.084.806-.167a7 7 0 0 1-.84.224l.03-.057z"/><path fill="#e4bc07" d="m292.036 116.825-.03.057c-.767.166-1.617.253-2.537.253l.007-.017a21 21 0 0 0 2.556-.293z"/><path fill="#e4bc07" d="m292.009 116.882-1 1.863-2.436.593.903-2.206c.92 0 1.77-.087 2.536-.254z"/><path fill="#d18000" d="m289.483 117.119-.007.016-.226-.003q.12.001.236-.013zm-5.277 2.166c2.087.453 4.13.633 5.906.483-3.396.61-8.569.274-13.845-2.77-5.279-3.039-7.139-6.569-7.752-8.219.85 2.107 3.199 4.52 6.166 6.5a27 27 0 0 0 3.426 1.936l.327.17v-.017c.11.05.21.097.316.144.514.226 1.037.44 1.57.63l-.033.103 2.17.643.013-.036c.577.163 1.16.31 1.736.436z"/><path fill="#e4bc07" d="m287.603 116.722-.11.3a22 22 0 0 1-2.52-.437l.033-.107 2.597.24z"/><path fill="#e4bc07" d="m287.493 117.022-.05.13a28 28 0 0 1-2.576-.2l.106-.367c.867.204 1.714.347 2.52.437"/><path fill="#e4bc07" d="m287.443 117.152-.813 2.19-2.39-.217.626-2.173c.92.113 1.78.173 2.577.2"/><path fill="#d18000" d="m284.867 116.952-.627 2.173-.033.16a31 31 0 0 1-1.737-.437l.64-2.273c.443.13.777.22.947.27q.414.06.81.11z"/><path fill="#e4bc07" d="m283.247 116.079-.013.05c-.35-.107-.707-.22-1.067-.35z"/><path fill="#e4bc07" d="m283.237 116.125-.127.447a42 42 0 0 1-2.113-.67l.127-.417 1.046.29c.357.13.717.244 1.067.35"/><path fill="#e4bc07" d="m283.11 116.575-.64 2.273c-.72-.206-1.44-.44-2.15-.706l.677-2.24c.806.28 1.546.51 2.113.67z"/><path fill="#e4bc07" d="m282.47 118.848-.013.037-2.17-.643.033-.104c.707.27 1.43.5 2.15.707z"/><path fill="#d18000" d="m280.997 115.902-.677 2.24a24 24 0 0 1-1.57-.63c-.106-.044-.206-.094-.313-.144l.667-2.193c.633.274 1.283.517 1.893.73z"/><path fill="#e4bc07" d="m279.294 114.552-.017.053a27 27 0 0 1-1.343-.676z"/><path fill="#e4bc07" d="m279.277 114.605-.17.57a17 17 0 0 1-1.903-.946l-.147-.087.17-.533.707.32q.653.354 1.343.676"/><path fill="#e4bc07" d="m279.104 115.175-.667 2.193c-.11-.05-.22-.096-.33-.153l-1.756-.91.703-2.16.146.087a16 16 0 0 0 1.904.946z"/><path fill="#e4bc07" d="M278.437 117.369v.016l-.33-.17q.165.085.33.154"/><path fill="#d18000" d="m276.351 116.302 1.756.91a27 27 0 0 1-1.756-.91m.703-2.16-.703 2.16a28 28 0 0 1-1.67-1.027l.033-.05.657-2.166c.516.366 1.079.723 1.683 1.08z"/><path fill="#e4bc07" d="m275.578 112.375-.037.124c-.683-.46-1.32-.937-1.9-1.423l.103-.307 1.837 1.606z"/><path fill="#e4bc07" d="m275.541 112.495-.17.567c-.703-.497-1.33-1-1.89-1.51l.16-.48q.874.734 1.9 1.423"/><path fill="#e4bc07" d="m275.371 113.062-.657 2.167-1.926-1.604.693-2.069c.556.51 1.183 1.013 1.89 1.51z"/><path fill="#d18000" d="m274.714 115.229-.033.049c-2.966-1.976-5.316-4.389-6.166-6.499q-.091-.224-.153-.453c-.05-.16-.077-.28-.097-.367-.013-.04-.02-.086-.03-.126l.237-1.044c.239-.83.609-1.946.793-2.493.076.307.15.607.216.887a5 5 0 0 0 .11.476l.007.037c.06.273.113.517.16.707.167.393.363.803.59 1.216l-.62 2.043 1.653 2.5.643-2.113c.427.5.907 1 1.457 1.503l-.693 2.07 1.926 1.603z"/><path fill="#e4bc07" d="M272.284 109.179c-.02.07-.073.254-.15.5-.706-.736-1.293-1.486-1.736-2.223l.263-.87s.757 1.9 1.623 2.593"/><path fill="#e4bc07" d="m272.135 109.679-.11.37c-.7-.823-1.247-1.64-1.677-2.43l.05-.163c.443.737 1.03 1.487 1.737 2.223"/><path fill="#e4bc07" d="m272.024 110.049-.643 2.113-1.653-2.499.62-2.043c.43.789.977 1.606 1.676 2.429"/><path fill="#d18000" d="M269.481 105.183q.056.251.11.477c-.043-.16-.086-.32-.11-.477m-.336-1.37c.043.163.086.327.123.483-.183.55-.553 1.663-.793 2.493l.67-2.979z"/><path stroke="#0c1b33" stroke-linecap="round" stroke-linejoin="round" d="M282.17 115.775a29 29 0 0 1-2.23-.87c-.223-.096-.443-.2-.663-.3q-.69-.323-1.343-.676a28 28 0 0 1-2.393-1.434c-.684-.46-1.32-.936-1.9-1.423q-.823-.684-1.507-1.393c-.706-.737-1.293-1.486-1.736-2.223a7.4 7.4 0 0 1-.797-1.763l-.006-.037a4 4 0 0 1-.11-.477c-.147-.786-.087-1.526.206-2.193 1.51-3.426 8.756-3.916 15.929-.76 7.166 3.153 11.535 8.753 10.032 12.179q-.089.201-.207.39c-.513.843-1.4 1.46-2.563 1.853q-.009.001-.03.007a7 7 0 0 1-.84.223c-.766.167-1.616.254-2.536.254-.077 0-.15-.004-.227-.004q-.841-.005-1.753-.11a22 22 0 0 1-2.52-.436 23 23 0 0 1-1.736-.46c-.35-.107-.707-.22-1.067-.35z"/><path stroke="#0c1b33" stroke-linecap="round" stroke-linejoin="round" d="M292.869 114.162c-2.066 1.383-6.949.933-12.009-1.293-5.789-2.547-9.709-6.486-9.025-8.983.023-.096.06-.196.103-.29 1.086-2.473 6.846-2.333 12.862.317 6.016 2.646 10.009 6.796 8.926 9.269a2.3 2.3 0 0 1-.854.977z"/><path stroke="#0c1b33" stroke-linecap="round" stroke-linejoin="round" d="M271.801 103.903s.02-.013.034-.017c1.989-1.123 6.762-.496 11.792 1.714 5.833 2.566 9.865 6.329 9.229 8.542m-23.471-10.186-.117.343c-.183.55-.553 1.664-.793 2.494-.163.536-.263.959-.237 1.043a1 1 0 0 0 .03.126q.036.184.097.367.062.224.153.453c.85 2.107 3.2 4.52 6.166 6.5q.805.536 1.67 1.026.86.49 1.757.91.164.085.329.154c.107.049.207.096.314.143.513.226 1.036.44 1.57.63.706.27 1.429.5 2.149.706.577.164 1.16.31 1.737.437 2.086.453 4.129.633 5.906.483 1.413-.116 2.656-.446 3.616-1.02m1.793-4.166s-.033.077-.086.217c-.327.826-1.49 3.746-1.71 3.873"/><path fill="#e4bc07" d="M286.656 130.86s2.5 2.264 6.559.287 7.91-6.986 9.093-12.222 1.23-11.196-3.487-13.582c-4.716-2.386-11.692 5.089-12.395 7.576-.95 1.85-6.033 12.032.227 17.945z"/><path fill="#d18000" d="m290.013 132.097 4.036.833s5.019-.95 9.019-8.196 2.513-13.302 1.01-15.871l-3.073-1.757s2.623 3.44 1.763 9.839c-.193.73-1.093 4.426-2.49 6.903-2.429 4.419-5.272 6.509-7.679 7.589-.577.14-1.61.387-2.583.66z"/><path fill="#e4bc07" d="M298.495 115.982s.457-1.083.5-1.403l-2.14-1.264-1.06 1.227 2.697 1.44zm6.413-5.286-2.777-1.427.674 2.787 2.739 1.066zm.669 4.369-2.633-.926-.193 2.599 2.656.717z"/><path fill="#0c1b33" d="M288.51 129.261s-1.85-2.177-1.23-6.866c.62-4.69 3.083-9.909 6.346-12.449 0 0 2.703-2.717 5.296-1.56 0 0-1.88-2.97-6.313.01s-7.086 10.289-7.079 15.122c.003 4.829 2.98 5.746 2.98 5.746z"/><path fill="#e4bc07" d="m296.215 132.14-3.093-.876s1.887-.794 2.563-1.673c.31.086 3 .849 3 .849m3-3.389-2.867-.81-1.573 1.866 2.873.9m3.656-5.713-2.849-.806-.907 2.083 2.71.827zm1.427-4.052-2.82-.737-.55 2.133 2.766.784z"/><path stroke="#0c1b33" stroke-linecap="round" stroke-linejoin="round" d="M301.268 121.84c3.021-7.224 1.891-14.578-2.526-16.426s-10.448 2.511-13.47 9.735-1.891 14.578 2.526 16.425 10.448-2.51 13.47-9.734"/><path stroke="#0c1b33" stroke-linecap="round" stroke-linejoin="round" d="M298.636 120.719c2.537-6.064 2.011-12.06-1.175-13.393s-7.825 2.503-10.362 8.567-2.01 12.061 1.176 13.393 7.824-2.503 10.361-8.567"/><path stroke="#0c1b33" stroke-linecap="round" stroke-linejoin="round" d="M288.529 129.384c-1.953-2.277-1.983-7.319.147-12.412 2.46-5.88 6.896-9.666 10.069-8.676m-9.459 23.648s4.636 1.093 4.892.993c3.144-.647 7.493-4.646 9.716-9.962 2.247-5.37 2.197-10.813.21-14.012m-3.376-2.137s3.206 1.87 3.356 2.113"/><path fill="#e4bc07" d="M279.347 149.769s-2.503 2.263-.933 6.499c1.566 4.236 6.166 8.562 11.259 10.259 5.093 1.696 11.019 2.333 13.862-2.12 2.843-4.456-3.907-12.139-6.31-13.085-1.746-1.127-11.375-7.196-17.878-1.557z"/><path fill="#d18000" d="m277.784 152.985-1.227 3.933s.447 5.089 7.263 9.785c6.816 4.7 12.988 3.82 15.695 2.58l2.053-2.883s-3.683 2.27-9.966.78c-.706-.263-4.296-1.526-6.622-3.163-4.157-2.856-5.953-5.893-6.79-8.396-.083-.59-.223-1.64-.403-2.636z"/><path fill="#e4bc07" d="M292.975 163.024s1.034.56 1.347.636l1.47-2.003-1.117-1.176-1.703 2.543zm4.627 6.906 1.696-2.623-2.843.396-1.33 2.62zm-4.413.233 1.183-2.53-2.57-.45-.976 2.573z"/><path fill="#0c1b33" d="M280.753 151.772s2.35-1.627 6.956-.544c4.603 1.084 9.556 4.053 11.759 7.55 0 0 2.437 2.959 1.027 5.426 0 0 3.139-1.577.616-6.283s-9.535-8.069-14.345-8.546c-4.806-.473-6.013 2.397-6.013 2.397"/><path fill="#e4bc07" d="m277.127 159.154 1.177-2.993s.603 1.957 1.413 2.717l-1.144 2.899m3.074 3.323 1.09-2.773-1.7-1.75-1.183 2.77m5.326 4.203 1.083-2.753-1.983-1.11-1.09 2.617zm3.889 1.823 1.013-2.733-2.066-.76-1.057 2.68z"/><path stroke="#0c1b33" stroke-linecap="round" stroke-linejoin="round" d="M303.472 164.324c2.277-4.212-1.462-10.645-8.351-14.368s-14.319-3.327-16.595.885c-2.277 4.212 1.462 10.645 8.351 14.368s14.319 3.327 16.595-.885"/><path stroke="#0c1b33" stroke-linecap="round" stroke-linejoin="round" d="M301.703 162.854c1.642-3.038-1.714-8.034-7.497-11.16s-11.802-3.196-13.444-.158 1.715 8.034 7.498 11.16 11.801 3.196 13.443.158"/><path stroke="#0c1b33" stroke-linecap="round" stroke-linejoin="round" d="M280.63 151.779c2.457-1.717 7.48-1.247 12.336 1.379 5.606 3.03 8.932 7.82 7.632 10.879m-22.591-11.759s-1.547 4.507-1.473 4.77c.33 3.19 3.879 7.916 8.949 10.655 5.123 2.767 10.542 3.26 13.922 1.597m2.46-3.146s-2.18 3.003-2.433 3.129"/></g><defs><clipPath id="a"><path fill="#fff" d="M0 0h589v232H0z"/></clipPath><clipPath id="b"><path fill="#fff" d="M111 164h134v68H111z"/></clipPath></defs></svg>