<svg xmlns="http://www.w3.org/2000/svg" viewBox="0 0 203 166"><defs><clipPath id="a"><path fill="none" d="M0 0h203v166H0z"/></clipPath></defs><g clip-path="url(#a)"><path fill="#0185ff" d="m129.61 49.93-6.18-1.13c.06-2.8-1.4-5.32-4.12-5.68h-.01c.47-2.8 1.75-6.49 4.93-10.22 2.58-3.02 3.98-5.95 4.72-8.39 3.53-.67 5.93-2.49 7.04-5.62 1.65.28 3.4.68 4.98 1.23-.67 3.9.23 6.79 2.7 8.65-.79 2.17-2.15 4.75-4.45 7.59-3.17 3.8-4.37 7.87-4.82 10.71-2.43-.42-4.02.53-4.78 2.85Zm-1.77-8.42c.58.26 1.27.12 1.81-.21s.96-.82 1.36-1.31c.68-.83 1.34-1.68 1.97-2.56.83-1.15 1.63-2.36 2.07-3.71.26-.79.37-1.74-.14-2.4-.43-.57-1.22-.77-1.93-.68-3.64.43-5.94 4.76-6.25 8.04-.1 1.08.11 2.4 1.11 2.84Z"/><path fill="#8dc8ff" d="m134.15 50.77-4.54-.83c.76-2.32 2.35-3.27 4.78-2.85-.35 2.22-.24 3.68-.24 3.68m-10.72-1.97-4.23-.78s-.4-1.96.1-4.9h.01c2.72.36 4.18 2.88 4.12 5.68m6.22-7.5c-.54.33-1.24.46-1.81.21-1-.44-1.21-1.75-1.11-2.84.31-3.27 2.6-7.6 6.25-8.04.71-.09 1.5.12 1.93.68.51.66.4 1.61.14 2.4-.44 1.35-1.24 2.56-2.07 3.71-.63.87-1.29 1.72-1.97 2.56-.4.49-.82.98-1.36 1.31Zm14.98-19.21s.53 2.6-.96 6.69c-2.47-1.86-3.37-4.74-2.7-8.65 1.46.51 2.76 1.15 3.66 1.96m-8.64-3.19c-1.11 3.13-3.51 4.95-7.04 5.62 1.14-3.74.76-6.33.76-6.33s2.92.12 6.28.71"/><path fill="none" stroke="#002140" stroke-linecap="round" stroke-linejoin="round" d="M140.97 20.13c1.46.51 2.76 1.15 3.66 1.96 0 0 .53 2.6-.96 6.69-.79 2.17-2.15 4.75-4.45 7.59-3.17 3.8-4.37 7.87-4.82 10.71-.35 2.22-.24 3.68-.24 3.68l-4.54-.83-6.18-1.13-4.23-.78s-.4-1.96.1-4.9c.47-2.8 1.75-6.49 4.93-10.22 2.58-3.02 3.98-5.95 4.72-8.39 1.15-3.74.76-6.33.76-6.33s2.92.12 6.28.71c1.65.29 3.4.69 4.98 1.24h0Z"/><path fill="none" stroke="#002140" stroke-linecap="round" stroke-linejoin="round" d="M140.97 20.13c-.67 3.9.23 6.79 2.7 8.65m-7.68-9.88c-1.11 3.13-3.51 4.95-7.04 5.62-.02 0-.05 0-.07.01m5.51 22.55c-2.43-.42-4.02.53-4.78 2.85m-10.29-6.81c2.72.36 4.18 2.88 4.12 5.68m3.29-10.13c-.1 1.08.11 2.4 1.11 2.84.58.26 1.27.12 1.81-.21s.96-.82 1.36-1.31c.68-.83 1.34-1.68 1.97-2.56.83-1.15 1.63-2.36 2.07-3.71.26-.79.37-1.74-.14-2.4-.43-.57-1.22-.77-1.93-.68-3.64.43-5.94 4.76-6.25 8.04h0Z"/><path fill="#ccf6ff" stroke="#002140" stroke-linecap="round" stroke-linejoin="round" d="M90.38 165.51c1.68 0 3.04-1.36 3.04-3.03s-1.36-3.03-3.04-3.03-3.04 1.36-3.04 3.03 1.36 3.03 3.04 3.03m-9.03-7.97a1.43 1.43 0 1 0 0-2.86 1.43 1.43 0 0 0 0 2.86m18.01 1.06a1.43 1.43 0 1 0 0-2.86 1.43 1.43 0 0 0 0 2.86m71.67-36.99a1.43 1.43 0 1 0 0-2.86 1.43 1.43 0 0 0 0 2.86M32.93 28.25c1.36 0 2.47-1.1 2.47-2.46s-1.1-2.46-2.47-2.46a2.46 2.46 0 1 0 0 4.92m-3.71 24.33c.87 0 1.57-.7 1.57-1.57s-.7-1.57-1.57-1.57-1.57.7-1.57 1.57.7 1.57 1.57 1.57m97.53-39.4c1.47 0 2.66-1.19 2.66-2.66s-1.19-2.66-2.66-2.66-2.66 1.19-2.66 2.66 1.19 2.66 2.66 2.66m-10.81-8.17c.82 0 1.49-.66 1.49-1.48s-.67-1.48-1.49-1.48-1.49.66-1.49 1.48.67 1.48 1.49 1.48"/><path fill="#ccf6ff" d="M165.8 131.8c-.14.01-.27.02-.4.02.13-.01.26-.02.4-.02m-4.69-9.4c-.03 6.34 1.35 9.42 4.29 9.42-3.22.24-4.31 3.46-4.3 9.4h-.11c0-5.78-1.25-9.19-4.5-9.19v-.23c3.68.01 4.46-3.04 4.51-9.4h.12Zm-5.09 17.25c-.14.01-.27.02-.4.02.13-.01.26-.02.4-.02m-4.7-9.41c-.03 6.34 1.35 9.42 4.29 9.43-3.22.24-4.31 3.46-4.3 9.4h-.11c0-5.77-1.25-9.18-4.5-9.18v-.23c3.68.01 4.46-3.04 4.5-9.41h.12ZM85.69 9.42c-.14.01-.27.01-.4.01.13-.01.26-.01.4-.01m-4.7-8.05c-.03 5.43 1.35 8.06 4.28 8.07-3.21.21-4.3 2.97-4.3 8.05h-.11c0-4.94-1.25-7.86-4.5-7.86v-.2c3.68.01 4.46-2.6 4.5-8.05h.12Z"/><path fill="none" stroke="#002140" stroke-linecap="round" stroke-linejoin="round" d="M76.37 9.42c3.68.01 4.46-2.6 4.5-8.05V.83m4.41 8.6c-2.93 0-4.31-2.64-4.28-8.07V.82m4.69 8.6c-.14.01-.27.01-.4.01m-8.92.19c3.25 0 4.5 2.92 4.5 7.86v.73"/><path fill="none" stroke="#002140" stroke-linecap="round" stroke-linejoin="round" d="M85.69 9.42c-.14 0-.27 0-.4.01h-.01c-3.21.21-4.3 2.97-4.3 8.05v.73m65.72 121.44c3.68.01 4.46-3.04 4.5-9.41v-.62m4.42 10.05c-2.94 0-4.32-3.08-4.29-9.43v-.62m4.69 10.03c-.14.01-.27.02-.4.02m-8.92.21c3.25 0 4.5 3.41 4.5 9.18v.85"/><path fill="none" stroke="#002140" stroke-linecap="round" stroke-linejoin="round" d="M156.02 139.65c-.14 0-.27 0-.4.02q0 0 0 0c-3.22.24-4.31 3.46-4.3 9.4v.85m5.17-18.12c3.68.01 4.46-3.04 4.51-9.4v-.62m4.4 10.04c-2.94 0-4.32-3.08-4.29-9.42v-.62m4.69 10.02c-.14.01-.27.02-.4.02m-8.91.21c3.25 0 4.5 3.41 4.5 9.19v.85"/><path fill="none" stroke="#002140" stroke-linecap="round" stroke-linejoin="round" d="M165.8 131.8c-.14 0-.27 0-.4.02h0c-3.22.24-4.31 3.46-4.3 9.4v.85"/><path fill="#e4bc07" d="M185.57 80.01c.21.53-.15 1.23-.93 2l-.09-.09-.73-1.94c.75-.75 1.09-1.44.9-1.96z"/><path fill="#fee45e" d="M177.46 83.73s-.05.02-.08.03c-.94.37-1.86.68-2.74.92-.85.24-1.66.41-2.39.52-.75.12-1.43.17-2.02.15-1.14-.03-1.91-.31-2.12-.85-.54-1.38 2.75-3.95 7.33-5.75 4.58-1.79 8.74-2.13 9.27-.75.2.53-.14 1.22-.89 1.97-.41.41-.94.85-1.57 1.28-.62.43-1.35.86-2.14 1.27-.81.42-1.7.83-2.64 1.2Zm-.58-1.04c3.84-1.5 6.69-3.4 6.37-4.24s-3.7-.3-7.55 1.2c-3.84 1.5-6.69 3.4-6.37 4.24s3.7.3 7.55-1.2"/><path fill="#e4bc07" d="m184.56 81.92.09.09c-.42.42-.97.86-1.62 1.3l-.02-.03-.76-2.03c.63-.43 1.17-.87 1.57-1.28l.73 1.94Z"/><path fill="#fee45e" d="M183.25 78.45c.32.84-2.53 2.74-6.37 4.24s-7.22 2.04-7.54 1.2 2.53-2.74 6.37-4.24 7.22-2.04 7.54-1.2"/><path fill="#e4bc07" d="m183.01 83.28.02.03c-.63.43-1.35.85-2.15 1.26s-.76-2.05-.76-2.05c.8-.42 1.52-.85 2.14-1.27l.76 2.03Z"/><path fill="#e4bc07" d="M180.88 84.56c-.81.43-1.71.84-2.65 1.21l-.77-2.04c.95-.37 1.84-.78 2.65-1.2l.76 2.04Z"/><path fill="#e4bc07" d="m177.46 83.73.77 2.04c-.97.38-1.92.69-2.82.94l-.76-2.03c.88-.24 1.8-.55 2.74-.92.02-.01.05-.02.08-.03Z"/><path fill="#e4bc07" d="m174.65 84.67.76 2.03c-.87.24-1.69.41-2.44.52v-.08l-.7-1.82-.02-.12c.74-.11 1.55-.29 2.39-.52Z"/><path fill="#e4bc07" d="m172.25 85.2.02.12.68 1.82v.08c-.97.14-1.83.18-2.5.09l.45-.19-.65-1.73v-.05q.87.015 2.01-.15Z"/><path fill="#e4bc07" d="M170.24 85.35v.05l.66 1.73-.45.19c-.8-.1-1.34-.37-1.5-.8l-.83-2.01c.21.54.98.82 2.12.85Z"/><path fill="none" stroke="#002140" stroke-linecap="round" stroke-linejoin="round" d="M184.72 78.02c.19.52-.15 1.21-.9 1.96-.41.41-.94.85-1.57 1.28-.62.43-1.35.86-2.14 1.27-.81.42-1.7.83-2.64 1.2-.02.01-.05.02-.08.03-.94.37-1.86.68-2.74.92-.85.24-1.66.41-2.39.52-.75.12-1.43.17-2.02.15-1.14-.03-1.91-.31-2.12-.85-.54-1.38 2.75-3.95 7.33-5.75 4.58-1.79 8.74-2.13 9.27-.75"/><path fill="none" stroke="#e4bc07" stroke-miterlimit="10" d="M176.8 82.5c-3.35 1.31-6.3 1.79-6.59 1.05-.28-.73 2.21-2.39 5.56-3.7s6.3-1.79 6.59-1.05c.28.73-2.21 2.39-5.56 3.7Z"/><path fill="none" stroke="#002140" stroke-linecap="round" stroke-linejoin="round" d="m184.72 78.01.85 2c.21.53-.15 1.23-.93 2-.42.42-.97.86-1.62 1.3-.63.43-1.35.85-2.15 1.26-.81.42-1.71.82-2.65 1.19-.97.38-1.92.69-2.82.94-.87.24-1.69.41-2.44.52-.99.14-1.84.18-2.52.09-.8-.1-1.34-.37-1.5-.8l-.83-2.01m10.12 1.27-.77-2.04h0m2.65-1.21.77 2.04m1.37-3.31.76 2.03m.82-3.31.73 1.95m-9.92 2.75.76 2.04m-3.13-1.39.68 1.82m-2.7-1.74.65 1.73"/><path fill="#e4bc07" d="M51.52 79.07c.02.48-.45.95-1.28 1.37l-.05-.1-.07-1.76c.81-.41 1.26-.87 1.25-1.35l.16 1.84Z"/><path fill="#fee45e" d="M43.99 79.92h-.07c-.86.05-1.68.05-2.46.01-.75-.04-1.45-.11-2.07-.21-.64-.11-1.2-.24-1.67-.41-.91-.32-1.46-.75-1.48-1.25-.06-1.25 3.27-2.46 7.45-2.69s7.62.6 7.68 1.86c.02.48-.44.94-1.25 1.35-.44.22-.99.43-1.61.61s-1.31.33-2.07.46c-.77.12-1.59.21-2.45.27m-.2-1c3.5-.19 6.31-.97 6.27-1.73s-2.91-1.22-6.41-1.03-6.31.97-6.27 1.73 2.91 1.22 6.41 1.03"/><path fill="#e4bc07" d="m50.19 80.34.05.1c-.45.23-1.01.44-1.65.62v-.03l-.08-1.84a10 10 0 0 0 1.61-.61z"/><path fill="#fee45e" d="M50.06 77.2c.04.76-2.77 1.54-6.27 1.73s-6.37-.27-6.41-1.03 2.77-1.54 6.27-1.73 6.37.27 6.41 1.03"/><path fill="#e4bc07" d="M48.58 81.03v.03c-.61.18-1.31.33-2.07.45s-.08-1.86-.08-1.86c.75-.12 1.45-.28 2.07-.46l.07 1.84Z"/><path fill="#e4bc07" d="M46.52 81.5c-.77.14-1.59.23-2.45.27L44 79.92c.87-.05 1.69-.14 2.45-.27zm-2.54-1.58.07 1.85c-.88.05-1.73.05-2.53.01l-.07-1.84c.77.04 1.6.04 2.46-.01h.07Z"/><path fill="#e4bc07" d="m41.46 79.94.07 1.84c-.77-.04-1.48-.12-2.11-.23v-.07l-.05-1.65.02-.11c.62.11 1.32.18 2.07.21Z"/><path fill="#e4bc07" d="m39.39 79.72-.02.11.07 1.65v.07c-.85-.14-1.55-.35-2.07-.59l.41-.04-.06-1.57v-.05c.47.17 1.03.31 1.67.41Z"/><path fill="#e4bc07" d="M37.72 79.31v.05l.06 1.57-.41.04c-.62-.29-.98-.65-1-1.05l-.13-1.85c.02.49.58.92 1.48 1.25Z"/><path fill="none" stroke="#002140" stroke-linecap="round" stroke-linejoin="round" d="M51.36 77.24c.02.47-.44.93-1.25 1.35-.44.22-.99.43-1.61.61s-1.31.33-2.07.46c-.77.12-1.59.21-2.45.27h-.07c-.86.05-1.68.05-2.46.01-.75-.04-1.45-.11-2.07-.21-.64-.11-1.2-.24-1.67-.41-.91-.32-1.46-.75-1.48-1.25-.06-1.25 3.27-2.46 7.45-2.69s7.62.6 7.68 1.86"/><path fill="none" stroke="#e4bc07" stroke-miterlimit="10" d="M43.78 78.77c-3.11.17-5.65-.24-5.68-.91s2.46-1.36 5.56-1.54c3.11-.17 5.65.24 5.68.91s-2.46 1.36-5.56 1.54Z"/><path fill="none" stroke="#002140" stroke-linecap="round" stroke-linejoin="round" d="m51.36 77.23.16 1.84c.02.48-.45.95-1.28 1.37-.45.23-1.01.44-1.65.62-.62.18-1.32.33-2.07.45-.77.12-1.6.21-2.46.26-.88.05-1.73.05-2.53.01-.77-.04-1.48-.12-2.11-.23-.83-.14-1.54-.35-2.06-.59-.62-.29-.98-.65-1-1.05l-.13-1.85m7.83 3.71-.07-1.75m2.46-.24.07 1.72m1.99-2.18.07 1.72m1.55-2.34.07 1.64m-8.74-.3.07 1.74m-2.16-1.82.06 1.52m-1.71-1.98.06 1.43"/><path fill="#e4bc07" d="M32.02 84.84c-.32.58-1.21.79-2.48.67v-.15l1.21-2.1c1.23.11 2.1-.1 2.42-.66z"/><path fill="#e4bc07" d="M29.55 85.35v.15c-.7-.06-1.5-.22-2.38-.47v-.04l1.25-2.18c.86.24 1.64.39 2.31.45l-1.19 2.1Z"/><path fill="#e4bc07" d="M27.19 84.99v.04c-.86-.24-1.78-.57-2.74-.97v-.02l1.26-2.19c.96.4 1.88.72 2.73.96l-1.24 2.18Z"/><path fill="#e4bc07" d="M24.46 84.04v.02c-.99-.41-2.01-.9-3.04-1.47l1.25-2.2a35 35 0 0 0 3.04 1.46z"/><path fill="#fee45e" d="M22.66 80.39s-.06-.03-.08-.05c-1.03-.56-1.99-1.16-2.86-1.75-.84-.58-1.6-1.17-2.25-1.74-1.95-1.72-2.95-3.3-2.46-4.2.83-1.5 5.58-.5 10.59 2.24s8.4 6.18 7.57 7.69c-.32.57-1.19.78-2.42.67-.67-.06-1.45-.21-2.31-.45-.85-.24-1.77-.56-2.73-.96-.98-.41-2-.89-3.04-1.46Zm.49-1.29c4.21 2.3 8.02 3.42 8.53 2.51s-2.49-3.51-6.69-5.81c-4.21-2.3-8.03-3.42-8.53-2.51-.51.91 2.49 3.52 6.69 5.81"/><path fill="#fee45e" d="M31.68 81.61c-.51.91-4.33-.21-8.53-2.51s-7.2-4.9-6.69-5.81 4.33.21 8.53 2.51 7.2 4.9 6.69 5.81"/><path fill="#e4bc07" d="M15.01 72.65c-.5.89.51 2.48 2.46 4.2l-.1.11-1.12 1.97-.07.07c-1.89-1.68-2.85-3.23-2.36-4.11z"/><path fill="#e4bc07" d="m19.71 78.59-1.25 2.19c-.86-.6-1.63-1.2-2.28-1.78l.07-.07 1.12-1.97.1-.11c.65.57 1.41 1.16 2.25 1.74Z"/><path fill="#e4bc07" d="m22.66 80.39-1.25 2.2c-1.06-.58-2.05-1.19-2.94-1.81l1.25-2.19c.87.6 1.83 1.19 2.86 1.75.03.01.06.03.08.05"/><path fill="none" stroke="#002140" stroke-linecap="round" stroke-linejoin="round" d="M33.16 82.6c-.32.56-1.19.77-2.42.66-.67-.06-1.45-.21-2.31-.45-.85-.24-1.77-.56-2.73-.96-.98-.41-2-.89-3.04-1.46a.2.2 0 0 1-.08-.05c-1.03-.56-1.99-1.16-2.86-1.75-.84-.58-1.6-1.17-2.25-1.74-1.95-1.72-2.95-3.3-2.46-4.2.83-1.5 5.58-.5 10.59 2.24s8.4 6.18 7.57 7.69"/><path fill="none" stroke="#e4bc07" stroke-miterlimit="10" d="M23.15 79.1c-4.21-2.3-7.2-4.9-6.69-5.81s4.33.21 8.53 2.51 7.2 4.9 6.69 5.81-4.33-.21-8.53-2.51Z"/><path fill="none" stroke="#002140" stroke-linecap="round" stroke-linejoin="round" d="m33.17 82.58-1.15 2.25c-.32.58-1.21.79-2.48.67-.69-.06-1.49-.22-2.36-.47-.85-.24-1.77-.57-2.73-.97-.98-.41-2-.9-3.04-1.47-1.06-.58-2.05-1.19-2.94-1.81-.86-.6-1.63-1.2-2.28-1.78-1.89-1.68-2.85-3.23-2.36-4.11l1.19-2.24m6.39 9.94 1.25-2.2h0m3.04 1.46-1.25 2.19m3.98-1.23-1.24 2.18m3.55-1.73-1.19 2.1m-9.83-6.78-1.25 2.2m-1.1-3.82-1.12 1.97m-.46-3.71-1.06 1.86"/><path fill="#e4bc07" d="M20.95 91.33c.39.29.46.95.25 1.86l-.11-.02-1.42-1.06c.19-.88.12-1.53-.25-1.81l1.52 1.04Z"/><path fill="#fee45e" d="M16.84 97.69s-.03.04-.04.06c-.5.69-1.03 1.33-1.54 1.91-.5.56-1 1.05-1.48 1.46-.49.43-.95.77-1.37 1.03-.83.5-1.51.65-1.91.36-1.02-.74.16-4.08 2.62-7.46 2.46-3.37 5.29-5.51 6.3-4.76.38.29.45.94.25 1.82-.11.48-.29 1.04-.54 1.63s-.57 1.23-.95 1.89c-.39.67-.84 1.37-1.35 2.06Zm-.9-.48c2.07-2.83 3.24-5.49 2.62-5.94s-2.79 1.47-4.85 4.3-3.24 5.49-2.62 5.94c.61.45 2.79-1.47 4.85-4.3"/><path fill="#e4bc07" d="m21.1 93.17.11.02c-.11.49-.3 1.06-.57 1.67h-.03l-1.47-1.12c.25-.6.44-1.15.54-1.63z"/><path fill="#fee45e" d="M18.57 91.27c.61.45-.56 3.11-2.62 5.94-2.07 2.83-4.24 4.75-4.86 4.3-.61-.45.56-3.11 2.62-5.94 2.07-2.83 4.24-4.76 4.86-4.3"/><path fill="#e4bc07" d="M20.61 94.84h.03c-.25.6-.58 1.24-.96 1.9h-.01l-1.48-1.12c.38-.66.7-1.3.95-1.89z"/><path fill="#e4bc07" d="M19.67 96.73h.01q-.585 1.02-1.35 2.07l-1.48-1.11c.51-.7.96-1.39 1.35-2.06l1.48 1.11Zm-2.83.96 1.48 1.11c-.52.72-1.06 1.37-1.59 1.96l-1.48-1.11c.52-.57 1.04-1.22 1.54-1.91.01-.02.03-.04.04-.06Zm-1.59 1.96 1.48 1.11c-.52.57-1.02 1.07-1.51 1.49l-.05-.06-1.32-.99-.07-.08c.48-.42.97-.91 1.48-1.46Z"/><path fill="#e4bc07" d="m13.78 101.12.07.08 1.32.99.05.06c-.64.55-1.24.97-1.76 1.22l.23-.34-1.26-.94-.03-.03c.43-.26.89-.6 1.37-1.03Z"/><path fill="#e4bc07" d="m12.4 102.15.03.03 1.26.94-.23.34c-.62.29-1.12.35-1.45.11l-1.52-1.07c.4.29 1.08.14 1.91-.36Z"/><path fill="none" stroke="#002140" stroke-linecap="round" stroke-linejoin="round" d="M19.43 90.29c.38.28.45.93.25 1.81-.11.48-.29 1.04-.54 1.63s-.57 1.23-.95 1.89c-.39.67-.84 1.37-1.35 2.06-.01.02-.03.04-.04.06-.5.69-1.03 1.34-1.54 1.91-.5.56-1 1.05-1.48 1.47-.49.43-.95.77-1.37 1.03-.83.5-1.51.65-1.91.36-1.02-.74.16-4.08 2.62-7.46 2.46-3.37 5.29-5.51 6.3-4.76"/><path fill="none" stroke="#e4bc07" stroke-miterlimit="10" d="M15.82 97.12c-1.83 2.51-3.76 4.22-4.3 3.81-.54-.4.5-2.76 2.33-5.27s3.76-4.22 4.3-3.81c.54.4-.5 2.76-2.33 5.27Z"/><path fill="none" stroke="#002140" stroke-linecap="round" stroke-linejoin="round" d="m19.42 90.29 1.52 1.05c.39.29.46.95.25 1.86-.11.49-.3 1.06-.57 1.67-.25.59-.58 1.23-.96 1.88-.39.67-.84 1.37-1.35 2.06-.52.71-1.06 1.37-1.59 1.96-.52.57-1.02 1.07-1.51 1.49-.64.55-1.24.96-1.76 1.21-.62.29-1.12.35-1.45.11l-1.52-1.07m7.85-3.71-1.41-1.05m1.37-2.05 1.38 1.04m-.43-2.93 1.38 1.03m-.84-2.66 1.32.99m-5.76 6.55 1.39 1.04m-2.78.52 1.22.92m-2.62.06 1.15.86"/><path fill="#712a76" d="M201.55 29.04c7.43 13.38-31.28 48.94-86.45 79.44C59.92 138.97 9.17 152.85 1.75 139.47c-5.2-9.37 12.25-29.64 42.13-51.43 12.65-9.18 28.04-19.01 44.32-28.01 21.18-11.71 42.49-21.24 60.17-27.45 27.97-9.73 48.65-11.71 53.18-3.55Zm-92.19 70.18c51.07-28.23 87.99-59.16 82.47-69.1-3.09-5.56-18.79-3.37-40.95 4.57-17.29 6.27-39.43 16.34-61.5 28.54-16.55 9.14-32.11 18.93-44.72 27.84-26.02 18.43-41.45 34.58-37.75 41.25 5.52 9.94 51.39-4.88 102.45-33.1"/><path fill="#cf4cd9" d="M191.83 30.12c5.52 9.94-31.4 40.88-82.47 69.1-51.06 28.22-96.93 43.04-102.45 33.1-3.7-6.67 11.73-22.82 37.75-41.26 12.61-8.91 28.17-18.69 44.72-27.84 22.07-12.2 44.21-22.27 61.5-28.54 22.16-7.94 37.87-10.12 40.95-4.57Zm-84.21 64.89c46.5-25.7 80.41-53.36 75.72-61.79-2.35-4.23-13.99-2.8-30.88 2.92-16.59 5.73-39.17 15.85-61.78 28.36-16.75 9.26-35.7 21.65-45.63 28.63-20.87 15.12-33.02 27.9-30.09 33.16 4.68 8.43 46.17-5.58 92.67-31.28Z"/><path fill="none" stroke="#002140" stroke-linecap="round" stroke-linejoin="round" d="M148.37 32.59c-17.68 6.21-38.99 15.74-60.17 27.45-16.28 9-31.67 18.83-44.32 28.01m1.16 5.08c9.93-6.99 28.88-19.37 45.63-28.63 22.62-12.5 45.2-22.63 61.78-28.36"/><path fill="none" stroke="#002140" stroke-linecap="round" stroke-linejoin="round" d="M44.66 91.06c12.61-8.91 28.17-18.69 44.72-27.84 22.07-12.2 44.21-22.27 61.5-28.54m1.58 1.46c16.89-5.73 28.53-7.15 30.88-2.92 4.68 8.43-29.22 36.09-75.72 61.79s-87.99 39.71-92.67 31.28c-2.92-5.26 9.22-18.04 30.09-33.16"/><path fill="none" stroke="#002140" stroke-linecap="round" stroke-linejoin="round" d="M43.88 88.04C13.99 109.83-3.46 130.1 1.75 139.47c7.43 13.38 58.18-.5 113.35-31 55.17-30.49 93.88-66.06 86.45-79.44-4.53-8.16-25.21-6.18-53.18 3.55"/><path fill="none" stroke="#002140" stroke-linecap="round" stroke-linejoin="round" d="M150.88 34.68c22.16-7.94 37.87-10.12 40.95-4.57 5.52 9.94-31.4 40.88-82.47 69.1-51.06 28.23-96.93 43.05-102.45 33.11-3.7-6.67 11.73-22.82 37.75-41.26"/><path fill="#e96df2" d="m108.9 140.11.05.3a57.9 57.9 0 0 1-18.62.13l.05-.29 22.96-12.69c2.13-1.18 4.84-.4 6.02 1.72a4.426 4.426 0 0 1-1.73 6.01l-8.73 4.83Zm22.25-26.25-34.37 19c-2.13 1.18-4.84.4-6.02-1.72a4.4 4.4 0 0 1-.38-3.36 4.4 4.4 0 0 1 2.1-2.65l36.13-19.97c2.13-1.18 4.84-.4 6.02 1.72.29.52.46 1.08.53 1.64.04.35.04.7-.01 1.05l.26.37 6.27-3.47c1.2-.67 2.73-.23 3.39.97.33.6.39 1.28.21 1.89s-.59 1.16-1.19 1.49l-9.16 5.06a2.494 2.494 0 0 1-3.68-1.82l-.12-.21Zm20.84-22.3.49.89c.53.95.18 2.16-.77 2.69l-10.05 5.55c-.96.53-2.17.18-2.7-.77l-.49-.89c-.53-.95-.18-2.16.77-2.69l10.05-5.56c.95-.53 2.17-.18 2.7.77Zm-95.22 31.26-.04.04a57 57 0 0 1-5.59-6.98l.35-.24L86.84 96.1c2.13-1.18 4.84-.4 6.02 1.72.59 1.06.69 2.27.38 3.36a4.4 4.4 0 0 1-2.1 2.65l-34.37 19Zm77.01-62.95-28.99 16.02c-1.7.94-2.32 3.08-1.37 4.77l.88 1.58c.94 1.7 3.08 2.31 4.79 1.37l28.99-16.02c1.7-.94 2.32-3.08 1.37-4.77l-.88-1.58a3.527 3.527 0 0 0-4.79-1.37m-69.16 42.27-16.06 8.88-.3.16a58 58 0 0 1-3.7-8.11l.27-.1 15.5-8.56c2.13-1.18 4.84-.4 6.02 1.72.59 1.06.69 2.27.38 3.36a4.4 4.4 0 0 1-2.1 2.65Z"/><path fill="#f25730" d="m141.68 106.47-6.27 3.47-.26-.37a4.33 4.33 0 0 0-.52-2.69c-1.18-2.13-3.89-2.9-6.02-1.72l-36.13 19.97a4.38 4.38 0 0 0-2.1 2.64c-.31 1.09-.21 2.3.38 3.36 1.18 2.12 3.89 2.9 6.02 1.72l34.37-19 .12.21a2.505 2.505 0 0 0 3.68 1.82l9.16-5.06c.6-.33 1.01-.88 1.19-1.49s.12-1.29-.21-1.89a2.505 2.505 0 0 0-3.39-.97Zm-2.24-43.64-.88-1.59c-.94-1.69-3.09-2.31-4.78-1.37l-28.99 16.02c-1.69.94-2.31 3.08-1.37 4.77l.88 1.59c.94 1.69 3.09 2.31 4.78 1.37l28.99-16.02c1.7-.94 2.31-3.09 1.37-4.77m-68.1 20.75-.49-.89c-.53-.95-1.74-1.3-2.7-.77L58.1 87.48c-.95.53-1.3 1.74-.77 2.69l.49.89c.53.95 1.74 1.3 2.7.77l10.05-5.56c.95-.53 1.3-1.74.77-2.69m8.23-14.13 10.05-5.56c.95-.53 1.3-1.74.77-2.69l-.49-.89c-.53-.95-1.74-1.3-2.7-.77L77.15 65.1c-.95.53-1.3 1.74-.77 2.69l.49.89c.53.95 1.74 1.3 2.7.77m72.92 23-.49-.89c-.53-.95-1.74-1.3-2.7-.77l-10.05 5.56c-.96.53-1.3 1.74-.77 2.69l.49.89c.53.96 1.74 1.3 2.7.77l10.05-5.55c.95-.53 1.3-1.74.77-2.69ZM96.18 80.56l51.93-28.7c.68 1.05 1.33 2.13 1.94 3.24 15.56 28.02 5.41 63.32-22.68 78.84a58.2 58.2 0 0 1-18.41 6.46l-.05-.3 8.73-4.83a4.37 4.37 0 0 0 2.1-2.65c.31-1.09.21-2.3-.38-3.36-1.18-2.12-3.89-2.9-6.02-1.72l-22.96 12.69-.05.29c-12.66-1.96-24.59-8.06-33.6-17.68l.04-.04 34.37-19a4.38 4.38 0 0 0 2.1-2.64c.31-1.09.21-2.3-.38-3.36-1.18-2.13-3.89-2.9-6.02-1.72l-35.35 19.54-.35.24c-1-1.46-1.93-2.98-2.81-4.56l-.08-.14.3-.16 16.06-8.88a4.37 4.37 0 0 0 2.1-2.65c.31-1.09.21-2.3-.38-3.36-1.18-2.12-3.89-2.9-6.02-1.72l-15.5 8.56-.27.1a57.6 57.6 0 0 1-3.15-26.3l.29.02 20.99-11.6a4.37 4.37 0 0 0 2.1-2.65c.31-1.09.21-2.3-.38-3.36-1.18-2.13-3.89-2.9-6.02-1.73l-.08-.14 15.63-8.64a4.37 4.37 0 0 0 2.1-2.65c.31-1.09.21-2.3-.38-3.36-1.18-2.13-3.89-2.9-6.02-1.72l-18.45 10.2-.26-.32c4.97-7.39 11.73-13.74 20.07-18.35 10.12-5.59 21.19-7.86 31.93-7.15l-.02.25c-.6.33-1.01.88-1.19 1.49-.18.62-.12 1.29.21 1.89.67 1.2 2.19 1.63 3.39.97l6.17-3.41c2.4.52 4.77 1.19 7.09 2.01l-.02.05-38.88 21.49a4.37 4.37 0 0 0-2.1 2.65c-.31 1.09-.21 2.3.38 3.36 1.18 2.12 3.89 2.9 6.02 1.72l44.51-24.6.04-.06a57.8 57.8 0 0 1 14.14 11.57l-.1.08-50.71 28.03a4.426 4.426 0 0 0-1.73 6.01c1.18 2.13 3.89 2.9 6.02 1.72Z"/><path fill="#e96df2" d="m148.1 51.86-51.93 28.7c-2.13 1.18-4.84.41-6.02-1.72a4.4 4.4 0 0 1-.38-3.36 4.4 4.4 0 0 1 2.11-2.65l50.71-28.03.1-.08c1.96 2.21 3.77 4.59 5.41 7.14M68.15 81.91 58.1 87.47c-.96.53-1.31 1.73-.77 2.69l.5.89c.53.96 1.74 1.3 2.7.77l10.05-5.56c.96-.53 1.31-1.73.77-2.69l-.5-.89c-.53-.96-1.74-1.3-2.7-.77m19.06-22.38-10.05 5.56c-.96.53-1.31 1.73-.77 2.69l.5.89c.53.96 1.74 1.3 2.7.77l10.05-5.56c.96-.53 1.31-1.73.77-2.69l-.5-.89c-.53-.96-1.74-1.3-2.7-.77m41.31-26.32-44.51 24.6c-2.13 1.18-4.84.4-6.02-1.72a4.4 4.4 0 0 1-.38-3.36 4.4 4.4 0 0 1 2.1-2.65l38.88-21.49.02-.05c3.44 1.22 6.78 2.75 9.95 4.6l-.04.06ZM44.09 65.18l14.23-7.86.08.14c2.13-1.18 4.84-.4 6.02 1.73.59 1.06.69 2.27.38 3.36a4.4 4.4 0 0 1-2.1 2.65L41.71 76.8l-.29-.02c.45-3.96 1.3-7.86 2.54-11.64l.14.05Z"/><path fill="#e96df2" d="m58.32 57.32-14.23 7.86-.14-.05c1.66-5.04 4-9.86 6.99-14.31l.26.32 18.45-10.2c2.13-1.18 4.84-.4 6.02 1.72.59 1.06.69 2.27.38 3.36a4.4 4.4 0 0 1-2.1 2.65l-15.63 8.64Zm53.2-30.78-6.17 3.41c-1.2.67-2.72.23-3.39-.97-.33-.6-.39-1.28-.21-1.89s.59-1.16 1.19-1.49l.02-.25c2.89.19 5.75.59 8.57 1.2Z"/><g fill="none" stroke-linecap="round" stroke-linejoin="round"><path stroke="#e96df2" d="m148.16 51.84-.06.03-51.93 28.7c-2.13 1.18-4.84.41-6.02-1.72a4.4 4.4 0 0 1-.38-3.36 4.4 4.4 0 0 1 2.11-2.65l50.71-28.03m-8.81 15.06-28.99 16.02c-1.7.94-2.32 3.08-1.37 4.77l.88 1.58c.94 1.7 3.08 2.31 4.79 1.37l28.99-16.02c1.7-.94 2.32-3.08 1.37-4.77l-.88-1.58a3.527 3.527 0 0 0-4.79-1.37M51.5 115.64 86.85 96.1c2.13-1.18 4.84-.4 6.02 1.72.59 1.06.69 2.27.38 3.36a4.4 4.4 0 0 1-2.1 2.65l-34.37 19m-11.95-19.85 15.5-8.56c2.13-1.18 4.84-.4 6.02 1.72.59 1.06.69 2.27.38 3.36a4.4 4.4 0 0 1-2.1 2.65l-16.06 8.88m82.72 2.75-.14.08-34.37 19c-2.13 1.18-4.84.4-6.02-1.72a4.4 4.4 0 0 1-.38-3.36 4.4 4.4 0 0 1 2.1-2.65l36.13-19.97c2.13-1.18 4.84-.4 6.02 1.72.29.52.46 1.08.53 1.64.04.35.04.7-.01 1.05-.02.21-.07.41-.12.61m-44.65 30.07 22.96-12.69c2.13-1.18 4.84-.4 6.02 1.72.59 1.06.69 2.27.38 3.36a4.4 4.4 0 0 1-2.11 2.65l-8.73 4.83m19.62-106.91-44.51 24.6c-2.13 1.18-4.84.4-6.02-1.72a4.4 4.4 0 0 1-.38-3.36 4.4 4.4 0 0 1 2.1-2.65l38.88-21.49M51.21 51.15l18.45-10.2c2.13-1.18 4.84-.4 6.02 1.72.59 1.06.69 2.27.38 3.36a4.4 4.4 0 0 1-2.1 2.65l-15.63 8.64-14.23 7.86m.21.06 14.09-7.78c2.13-1.18 4.84-.4 6.02 1.73.59 1.06.69 2.27.38 3.36a4.4 4.4 0 0 1-2.1 2.65L41.71 76.8m93.7 33.14 6.27-3.47a2.494 2.494 0 0 1 3.61 2.86c-.18.61-.59 1.16-1.19 1.49l-9.15 5.06c-1.2.67-2.73.22-3.39-.97-.15-.27-.24-.56-.29-.85M68.15 81.91 58.1 87.47c-.96.53-1.31 1.73-.77 2.69l.5.89c.53.96 1.74 1.3 2.7.77l10.05-5.56c.96-.53 1.31-1.73.77-2.69l-.5-.89c-.53-.96-1.74-1.3-2.7-.77m19.06-22.38-10.05 5.56c-.96.53-1.31 1.73-.77 2.69l.5.89c.53.96 1.74 1.3 2.7.77l10.05-5.56c.96-.53 1.31-1.73.77-2.69l-.5-.89c-.53-.96-1.74-1.3-2.7-.77m51.76 40.4-.49-.89c-.53-.95-.18-2.16.77-2.69l10.05-5.56c.95-.53 2.17-.18 2.7.77l.49.89c.53.95.18 2.16-.77 2.69l-10.05 5.56c-.96.53-2.17.18-2.7-.77m-27.42-73.41-.03.02-6.17 3.41c-1.2.67-2.72.23-3.39-.97-.33-.6-.39-1.28-.21-1.89s.59-1.16 1.19-1.49"/><path stroke="#002140" d="M102.95 25.34c-10.74-.71-21.81 1.55-31.93 7.15-8.34 4.61-15.1 10.96-20.07 18.35a58 58 0 0 0-6.99 14.3c-1.24 3.78-2.1 7.68-2.54 11.64a57.6 57.6 0 0 0 3.15 26.3c1.01 2.75 2.24 5.46 3.7 8.11l.08.14c.88 1.58 1.81 3.1 2.81 4.56 1.7 2.5 3.57 4.83 5.59 6.98 9.01 9.63 20.94 15.73 33.6 17.68 6.12.94 12.4.93 18.62-.13 6.29-1.07 12.51-3.2 18.41-6.46 28.08-15.52 38.24-50.82 22.68-78.84-.62-1.11-1.26-2.19-1.94-3.24a57.4 57.4 0 0 0-5.41-7.14 57.6 57.6 0 0 0-14.14-11.57 57.5 57.5 0 0 0-9.95-4.6 58.4 58.4 0 0 0-15.66-3.21h0Z"/><path stroke="#002140" d="M99.19 141.21c32.11 0 58.14-25.97 58.14-58s-26.03-58-58.14-58-58.14 25.97-58.14 58 26.03 58 58.14 58"/></g><path fill="#f25730" d="m154.94 98.44.32.09c-3.99 14.55-13.63 27.54-27.9 35.42q-3.195 1.77-6.51 3.09l-.08-.21c-.85-3.34.29-7.1 2.85-9.4 1.45-1.31 3.3-2.18 4.53-3.7 1.51-1.87 1.87-4.47 3.41-6.3 2.24-2.65 6.35-3 8.76-5.5 2.18-2.25 2.48-5.71 4.02-8.44 2.04-3.63 6.49-5.75 10.6-5.06Zm-30.06 7.35c2.56 1.55 3.96 5.09 2.51 7.7-2.07 3.74-7.83 3.35-10.91 6.33-1.89 1.83-2.61 4.82-4.93 6.07-1.6.86-3.53.65-5.32.89-2.18.29-4.26 1.3-5.85 2.82-1.85 1.78-2.97 4.16-4.41 6.27-1.45 2.11-3.47 4.11-6.03 4.38l-.04.22a58.5 58.5 0 0 1-25.65-10.88l.28-.37c1.47-3.21 4.87-6.02 8.33-6.76s7.29.31 10.59-.96c2.93-1.14 4.87-3.97 7.82-5.05 2.99-1.09 6.86-.34 9.85-1.42 2.81-1.01 5.22-2.88 7.57-4.72 2.35-1.85 4.74-3.73 7.52-4.81 2.79-1.08 6.1-1.24 8.66.3ZM149.42 54l-.3.18c-4.49-.49-9.11-.52-13.45.74s-8.39 3.94-10.6 7.88c-1.29 2.29-1.95 4.98-3.76 6.89-3.26 3.43-9.34 3.36-11.98 7.3-1.06 1.57-1.36 3.53-2.28 5.17-1.92 3.42-6.14 4.89-8.56 7.97-3.42 4.37-2.86 11.43-7.4 14.62-1.92 1.35-5.14 1.33-7.26 2.37-2.72 1.33-4.59 3.11-7.31 3.78-2.72.68-5.64-.71-8.94.27-1.8.53-4.27 1.49-6.11 1.87-2.09.43-4.15-.7-6.19-1.32s-3.8-.09-5.67 1.48l-.13.08c-.4-.64-.77-1.29-1.14-1.96-.02-.05-.05-.09-.08-.14-.87-1.57-1.65-3.16-2.35-4.77l.13-.06a8.8 8.8 0 0 1 3.99-4.24c1.65-.85 3.53-1.16 5.13-2.07 4.27-2.44 5.29-8.22 8.88-11.58 3.62-3.39 9.18-3.73 13.32-6.46 2.22-1.46 3.98-3.6 4.98-6.06.75-1.83 1.08-3.84 2.14-5.51 2.35-3.72 7.53-4.75 10.18-8.27.37-.5.69-1.05.81-1.66.35-1.93-1.62-3.67-3.59-3.79s-3.81.92-5.43 2.03c-1.63 1.11-3.24 2.36-5.16 2.8-3.24.73-6.55-1.03-9.87-.88-1.7.08-3.37.67-4.74 1.69-1.76 1.31-2.96 3.24-4.64 4.65-2.18 1.84-5.14 2.7-7.97 2.32-2.02-.27-3.92-1.13-5.94-1.38s-4.38.31-5.33 2.11l-.21-.05c.38-1.64.84-3.27 1.37-4.86 1.66-5.04 4-9.86 6.99-14.31 4.97-7.39 11.73-13.74 20.07-18.35 5.25-2.9 10.76-4.91 16.34-6.07-2.29.7-4.81 1.55-6.01 3.61-1.22 2.1-.7 4.79-1.53 7.07-.83 2.24-2.87 3.8-5 4.89-2.12 1.09-4.43 1.83-6.45 3.1-1.06.67-2.05 1.51-2.61 2.63s-.6 2.55.14 3.56c1.08 1.46 3.31 1.47 5.01.82s3.19-1.8 4.95-2.27c4.42-1.17 9.14 2.23 13.51.93 2.72-.81 4.67-3.28 7.37-4.16 5-1.62 10.67 2.7 15.49.62 2.71-1.17 4.33-4.08 7-5.31 2.68-1.25 5.81-.56 8.76-.37s6.46-.49 7.71-3.17l.15-.18c2.43 1.97 4.72 4.15 6.84 6.53a58 58 0 0 1 6.72 9.28Z"/><path fill="#e96df2" d="M150.05 55.11c7.65 13.78 9.09 29.33 5.22 43.42l-.32-.09c-4.11-.69-8.56 1.43-10.6 5.05-1.54 2.73-1.84 6.19-4.02 8.44-2.41 2.5-6.52 2.85-8.76 5.5-1.55 1.83-1.91 4.43-3.41 6.3-1.23 1.52-3.08 2.39-4.53 3.7-2.55 2.31-3.69 6.06-2.85 9.4l.08.21a57.5 57.5 0 0 1-11.9 3.36 57.9 57.9 0 0 1-18.62.13c-.14-.02-.29-.05-.44-.07l.04-.22c2.55-.27 4.58-2.26 6.03-4.38s2.57-4.49 4.41-6.27a10.53 10.53 0 0 1 5.85-2.82c1.8-.24 3.73-.03 5.32-.89 2.32-1.25 3.04-4.24 4.93-6.07 3.08-2.98 8.83-2.59 10.91-6.33 1.45-2.61.05-6.16-2.51-7.7s-5.87-1.38-8.66-.3-5.17 2.97-7.52 4.81-4.76 3.71-7.57 4.72c-2.99 1.08-6.86.33-9.85 1.42-2.96 1.07-4.89 3.91-7.82 5.05-3.3 1.28-7.13.22-10.59.96s-6.86 3.55-8.33 6.76l-.28.37c-2.67-2-5.19-4.25-7.51-6.73a57 57 0 0 1-5.59-6.98c-.58-.85-1.14-1.72-1.67-2.6l.13-.08c1.87-1.57 3.62-2.11 5.67-1.48s4.1 1.75 6.19 1.32c1.84-.38 4.31-1.34 6.11-1.87 3.29-.98 6.21.41 8.94-.27 2.72-.68 4.6-2.45 7.31-3.78 2.11-1.04 5.34-1.01 7.26-2.37 4.54-3.19 3.98-10.25 7.4-14.62 2.42-3.09 6.64-4.56 8.56-7.98.93-1.64 1.23-3.6 2.28-5.17 2.64-3.93 8.72-3.86 11.98-7.3 1.82-1.91 2.48-4.6 3.76-6.89 2.2-3.93 6.26-6.61 10.6-7.88 4.34-1.26 8.95-1.24 13.45-.74l.3-.18c.21.37.42.73.63 1.11Zm-14.19-16.92-.15.18c-1.24 2.68-4.76 3.36-7.71 3.17-2.96-.2-6.08-.88-8.76.37-2.67 1.24-4.29 4.15-7 5.31-4.82 2.08-10.5-2.24-15.49-.62-2.7.88-4.65 3.35-7.37 4.16-4.37 1.3-9.1-2.1-13.51-.93-1.75.47-3.25 1.62-4.95 2.27s-3.92.64-5.01-.82c-.75-1-.7-2.44-.14-3.56s1.56-1.96 2.61-2.63c2.02-1.28 4.33-2.01 6.45-3.1 2.13-1.09 4.17-2.65 5-4.89.84-2.28.31-4.97 1.53-7.07 1.2-2.07 3.72-2.91 6.01-3.6a57.3 57.3 0 0 1 15.58-1.1 58.4 58.4 0 0 1 15.66 3.21c3.44 1.22 6.78 2.75 9.95 4.6 2.54 1.48 4.99 3.17 7.3 5.04ZM91.87 56.71c1.97.11 3.94 1.85 3.59 3.79-.11.61-.43 1.17-.81 1.66-2.65 3.52-7.82 4.55-10.18 8.27-1.06 1.67-1.39 3.68-2.14 5.51-1 2.46-2.76 4.6-4.98 6.06-4.15 2.73-9.7 3.07-13.32 6.46-3.59 3.36-4.61 9.14-8.88 11.58-1.6.92-3.49 1.23-5.13 2.07-1.76.91-3.2 2.43-3.99 4.24l-.13.06c-.49-1.11-.94-2.22-1.35-3.34A57.6 57.6 0 0 1 42.58 70l.21.05c.95-1.8 3.31-2.36 5.33-2.11s3.92 1.11 5.94 1.38c2.82.37 5.79-.49 7.97-2.32 1.68-1.41 2.88-3.35 4.64-4.65a8.74 8.74 0 0 1 4.74-1.69c3.32-.15 6.63 1.61 9.87.88 1.92-.43 3.53-1.69 5.16-2.8 1.62-1.11 3.46-2.14 5.43-2.03"/><path fill="none" stroke="#e96df2" stroke-linecap="round" stroke-linejoin="round" d="M135.71 38.37c-1.24 2.68-4.76 3.36-7.71 3.17-2.96-.2-6.08-.88-8.76.37-2.67 1.24-4.29 4.15-7 5.31-4.82 2.08-10.5-2.24-15.49-.62-2.7.88-4.65 3.35-7.37 4.16-4.37 1.3-9.1-2.1-13.51-.93-1.75.47-3.25 1.62-4.95 2.27s-3.92.64-5.01-.82c-.75-1-.7-2.44-.14-3.56s1.56-1.96 2.61-2.63c2.02-1.28 4.33-2.01 6.45-3.1 2.13-1.09 4.17-2.65 5-4.89.84-2.28.31-4.97 1.53-7.07 1.2-2.07 3.72-2.91 6.01-3.6M42.8 70.05c.95-1.8 3.31-2.36 5.33-2.11s3.92 1.11 5.94 1.38c2.82.37 5.79-.49 7.97-2.32 1.68-1.41 2.88-3.35 4.64-4.65a8.74 8.74 0 0 1 4.74-1.69c3.32-.15 6.63 1.61 9.87.88 1.92-.43 3.53-1.69 5.16-2.8 1.62-1.11 3.46-2.14 5.43-2.03s3.94 1.85 3.59 3.79c-.11.61-.43 1.17-.81 1.66-2.65 3.52-7.82 4.55-10.18 8.27-1.06 1.67-1.39 3.68-2.14 5.51-1 2.46-2.76 4.6-4.98 6.06-4.15 2.73-9.7 3.07-13.32 6.46-3.59 3.36-4.61 9.14-8.88 11.58-1.6.92-3.49 1.23-5.13 2.07-1.76.91-3.2 2.43-3.99 4.24m43.9 33.9c2.55-.27 4.58-2.26 6.03-4.38s2.57-4.49 4.41-6.27a10.53 10.53 0 0 1 5.85-2.82c1.8-.24 3.73-.03 5.32-.89 2.32-1.25 3.04-4.24 4.93-6.07 3.08-2.98 8.83-2.58 10.91-6.33 1.45-2.61.05-6.16-2.51-7.7s-5.87-1.38-8.66-.3-5.17 2.97-7.52 4.81-4.76 3.71-7.57 4.72c-2.99 1.08-6.86.33-9.85 1.42-2.96 1.07-4.89 3.91-7.82 5.05-3.3 1.28-7.13.22-10.59.96s-6.86 3.55-8.33 6.76m90.4-30.77c-4.11-.69-8.55 1.43-10.6 5.06-1.54 2.73-1.84 6.18-4.02 8.44-2.41 2.5-6.52 2.85-8.76 5.5-1.55 1.83-1.91 4.43-3.41 6.3-1.22 1.52-3.08 2.39-4.53 3.7-2.55 2.31-3.69 6.07-2.85 9.4m28.35-82.66c-4.49-.49-9.11-.52-13.44.74-4.34 1.26-8.39 3.94-10.6 7.88-1.29 2.29-1.95 4.98-3.76 6.89-3.26 3.43-9.34 3.36-11.98 7.3-1.06 1.57-1.36 3.53-2.28 5.17-1.93 3.42-6.14 4.89-8.56 7.98-3.42 4.37-2.86 11.43-7.4 14.62-1.92 1.35-5.14 1.33-7.26 2.37-2.72 1.33-4.59 3.11-7.31 3.78-2.72.68-5.64-.71-8.94.27-1.8.53-4.27 1.49-6.11 1.87-2.09.43-4.15-.7-6.19-1.32s-3.8-.09-5.67 1.48"/><path fill="none" stroke="#002140" stroke-linecap="round" stroke-linejoin="round" d="M135.86 38.19a58 58 0 0 0-7.3-5.04 57.5 57.5 0 0 0-9.95-4.6 58.4 58.4 0 0 0-15.66-3.21 57.9 57.9 0 0 0-31.93 7.15c-8.34 4.61-15.1 10.96-20.07 18.35a58 58 0 0 0-6.99 14.31c-.53 1.6-.99 3.22-1.37 4.86-.52 2.23-.92 4.49-1.18 6.77a57.6 57.6 0 0 0 3.15 26.3c.41 1.12.86 2.24 1.35 3.34.7 1.61 1.49 3.2 2.35 4.77.03.05.05.1.08.14.37.66.75 1.31 1.14 1.96.53.89 1.09 1.75 1.67 2.6 1.7 2.5 3.57 4.83 5.59 6.98 2.32 2.48 4.84 4.73 7.51 6.73a58.5 58.5 0 0 0 25.65 10.88c.14.02.29.05.44.07 6.12.94 12.4.92 18.62-.13 4.02-.68 8.01-1.8 11.9-3.36 2.2-.89 4.38-1.92 6.51-3.09 14.27-7.89 23.91-20.87 27.9-35.42 3.87-14.09 2.43-29.64-5.22-43.42l-.63-1.11a58 58 0 0 0-6.72-9.28c-2.12-2.38-4.4-4.57-6.84-6.53h0Z"/><path fill="#722b03" d="M155.13 46.24c1.41.17 1.92 5.95.57 6.47-.2.05-.4.09-.6.13-7.33 1.63-15.1 2.32-20.74 1.86l-.67-.06c-1.42-.28-1.93-6.05-.57-6.47 5.65-1.6 14.02-2.34 22.01-1.93"/><path fill="#d18000" d="M155.1 52.84 154 76.02c-.85 2.6-13.32 3.88-14.59 1.29l-.91-4.07c4.14-.37 6.19-3.89 5.55-8.15-.67-4.08-4.61-6.36-8.57-5.33l-1.13-5.05c5.64.46 13.41-.24 20.74-1.86Z"/><path fill="#50eef6" d="M144.05 65.08c.64 4.26-1.41 7.79-5.55 8.15l-3.01-13.48c3.96-1.04 7.89 1.24 8.57 5.33Z"/><path fill="none" stroke="#002140" stroke-linecap="round" stroke-linejoin="round" d="m133.68 54.65.67.06c5.64.46 13.41-.24 20.74-1.86.2-.04.4-.09.6-.13m-16.28 24.59c1.27 2.59 13.74 1.32 14.59-1.29m-19.55-26.38c5.21.65 12.67-.01 19.61-1.73m-20.95.27c5.65-1.6 14.02-2.34 22.01-1.93m-22.01 1.93c-1.36.42-.85 6.19.57 6.47m21.45-8.41c1.41.17 1.92 5.95.57 6.47m-.6.14L154 76.02m-19.65-21.31 1.13 5.05 3.02 13.48.91 4.07"/><path fill="none" stroke="#002140" stroke-linecap="round" stroke-linejoin="round" d="M135.48 59.76c3.96-1.04 7.89 1.24 8.57 5.33m-5.55 8.15c4.14-.37 6.19-3.89 5.55-8.15"/><path fill="#ffc68c" d="m34.1 134.75 1.78-3.46c1.69 1.18 2.08 2.7 1.14 4.55-1.71-.82-2.92-1.09-2.92-1.09m4.2-8.16 1.66-3.22s1.68.15 3.94 1.27c-.96 2.11-3.35 2.67-5.6 1.95m4.83 5.32c.6-.7 1.72-.55 2.57-.2 2.58 1.05 5.53 3.95 4.99 6.99-.1.6-.46 1.18-1.02 1.39-.66.25-1.4-.07-1.98-.47-.99-.68-1.77-1.62-2.5-2.57-.55-.72-1.08-1.46-1.59-2.21-.3-.44-.59-.9-.73-1.42-.13-.51-.07-1.11.27-1.51Z"/><path fill="#ff7101" d="M43.9 124.64c2.15 1.06 4.83 2.98 7.08 6.46 1.82 2.82 3.85 4.65 5.65 5.84-.31 3.01.57 5.39 2.84 7.04-.63 1.26-1.38 2.58-2.21 3.71-3-1.49-5.55-1.46-7.66.07-1.56-1.17-3.33-2.89-5.06-5.43-2.31-3.48-5.31-5.44-7.5-6.5.93-1.85.55-3.37-1.14-4.55l2.42-4.71c2.25.73 4.65.17 5.6-1.94Zm1.8 7.06c-.85-.35-1.97-.49-2.57.2-.35.4-.41 1-.27 1.51.13.52.43.98.73 1.42.51.75 1.04 1.49 1.59 2.21.73.95 1.52 1.89 2.5 2.57.58.4 1.32.72 1.98.47.56-.21.92-.8 1.02-1.39.54-3.04-2.41-5.95-4.99-6.99Z"/><path fill="#ffc68c" d="M54.78 150.18s-2.24-.21-5.19-2.4c2.11-1.54 4.66-1.56 7.66-.07-.77 1.05-1.6 1.94-2.48 2.48Zm4.68-6.19c-2.27-1.65-3.15-4.03-2.84-7.04 2.75 1.83 4.94 2.15 4.94 2.15s-.81 2.32-2.1 4.89"/><path fill="none" stroke="#002140" stroke-linecap="round" stroke-linejoin="round" d="M57.25 147.7c-.77 1.05-1.6 1.94-2.48 2.48 0 0-2.24-.21-5.19-2.4-1.56-1.17-3.33-2.89-5.06-5.43-2.31-3.48-5.31-5.44-7.5-6.49-1.71-.82-2.92-1.09-2.92-1.09l1.78-3.46 2.42-4.71 1.66-3.22s1.68.15 3.94 1.27c2.15 1.06 4.83 2.98 7.08 6.46 1.82 2.82 3.85 4.65 5.65 5.84 2.75 1.83 4.94 2.15 4.94 2.15s-.81 2.32-2.1 4.89c-.63 1.26-1.38 2.58-2.21 3.71h0Z"/><path fill="none" stroke="#002140" stroke-linecap="round" stroke-linejoin="round" d="M57.25 147.7c-3-1.49-5.55-1.46-7.66.07m9.87-3.78c-2.27-1.66-3.15-4.03-2.84-7.04v-.06m-19.6-1.05c.93-1.85.55-3.37-1.14-4.55m8.02-6.64c-.95 2.11-3.35 2.67-5.6 1.94m7.4 5.12c-.85-.35-1.97-.49-2.57.2-.35.4-.41 1-.27 1.51.13.52.43.98.73 1.42.51.75 1.04 1.49 1.59 2.21.73.95 1.52 1.89 2.5 2.57.58.4 1.32.72 1.98.47.56-.21.92-.8 1.02-1.39.54-3.04-2.41-5.95-4.99-6.99h0Z"/><path fill="#00b268" d="m59.22 120.52-1.01 6.19c-2.8 0-5.3 1.5-5.6 4.23-2.81-.4-6.54-1.6-10.34-4.7-3.08-2.51-6.04-3.84-8.5-4.53-.74-3.5-2.62-5.86-5.78-6.9.25-1.65.62-3.41 1.14-4.99 3.93.58 6.8-.37 8.61-2.88 2.19.74 4.81 2.04 7.69 4.28 3.87 3.08 7.98 4.2 10.84 4.59-.37 2.43.61 4 2.96 4.71Zm-8.4 1.94c.24-.58.09-1.27-.25-1.8-.34-.54-.84-.94-1.34-1.33-.85-.66-1.72-1.3-2.6-1.91-1.17-.81-2.4-1.57-3.76-1.99-.8-.24-1.75-.33-2.4.19-.56.44-.75 1.23-.65 1.94.51 3.62 4.89 5.83 8.18 6.07 1.09.08 2.4-.16 2.82-1.17"/><path fill="#5be3aa" d="m59.96 115.97-.74 4.54c-2.34-.71-3.33-2.28-2.96-4.71 2.23.3 3.7.17 3.7.17m-1.75 10.74-.69 4.23s-1.95.44-4.91 0c.3-2.73 2.8-4.24 5.6-4.24Zm-7.64-6.05c.34.53.49 1.22.25 1.8-.42 1-1.73 1.24-2.82 1.17-3.29-.24-7.67-2.44-8.18-6.07-.1-.71.08-1.5.65-1.94.65-.52 1.6-.43 2.4-.19 1.36.41 2.59 1.18 3.76 1.99.89.61 1.75 1.25 2.6 1.91.5.39 1 .8 1.34 1.33m-19.56-14.54s2.6-.58 6.73.82c-1.81 2.5-4.69 3.46-8.61 2.88.48-1.46 1.1-2.77 1.89-3.69Zm-3.02 8.68c3.16 1.04 5.03 3.4 5.78 6.9-3.77-1.06-6.36-.62-6.36-.62s.06-2.91.58-6.28"/><path fill="none" stroke="#002140" stroke-linecap="round" stroke-linejoin="round" d="M29.12 109.81c.48-1.46 1.1-2.77 1.89-3.69 0 0 2.6-.58 6.73.82 2.19.74 4.81 2.04 7.69 4.28 3.87 3.08 7.98 4.2 10.84 4.59 2.23.3 3.7.17 3.7.17l-.74 4.54-1.01 6.19-.69 4.23s-1.95.44-4.91 0c-2.81-.41-6.54-1.61-10.34-4.71-3.08-2.51-6.04-3.84-8.5-4.53-3.77-1.06-6.36-.62-6.36-.62s.06-2.91.58-6.28c.25-1.65.62-3.41 1.14-4.99Z"/><path fill="none" stroke="#002140" stroke-linecap="round" stroke-linejoin="round" d="M29.12 109.81c3.93.58 6.8-.37 8.61-2.88m-9.74 7.87c3.16 1.04 5.03 3.4 5.78 6.9 0 .02.01.05.01.07m22.49-5.96c-.37 2.43.61 4 2.96 4.71m-6.62 10.41c.3-2.72 2.8-4.23 5.6-4.23M48 123.63c1.09.08 2.4-.16 2.82-1.17.24-.58.09-1.27-.25-1.8-.34-.54-.84-.94-1.34-1.33-.85-.66-1.72-1.3-2.6-1.91-1.17-.81-2.4-1.57-3.76-1.99-.8-.24-1.75-.33-2.4.19-.56.44-.75 1.23-.65 1.94.51 3.62 4.89 5.83 8.18 6.07"/><path fill="#712a76" d="M201.55 29.04c-2.57-4.64-10.36-6-21.74-4.52-.39.94-.78 1.88-1.17 2.81 7.01-.82 11.66.03 13.19 2.79 5.52 9.94-31.4 40.88-82.47 69.1-51.06 28.22-96.93 43.04-102.45 33.1-1.06-1.9-.55-4.57 1.3-7.84-1.09.1-2.18.19-3.26.29-3.91 6.11-5.16 11.18-3.2 14.7 7.43 13.38 58.18-.5 113.35-31 55.17-30.49 93.88-66.06 86.45-79.44Z"/><path fill="#cf4cd9" d="M191.83 30.12c-1.53-2.76-6.18-3.61-13.19-2.79-.48 1.15-.95 2.3-1.41 3.46 3.15.1 5.25.89 6.11 2.43 4.68 8.43-29.22 36.09-75.72 61.79s-87.99 39.71-92.67 31.28c-.37-.66-.5-1.45-.4-2.34-.69.05-1.37.1-2.06.16-1.43.12-2.85.24-4.28.37-1.85 3.27-2.36 5.95-1.3 7.84 5.52 9.94 51.39-4.88 102.45-33.1 51.07-28.23 87.99-59.16 82.47-69.1"/><path fill="none" stroke="#002140" stroke-linecap="round" stroke-linejoin="round" d="M176.7 30.77c3.45.02 5.74.81 6.65 2.45 4.68 8.43-29.22 36.09-75.72 61.79s-87.99 39.71-92.67 31.28c-.55-.99-.56-2.24-.1-3.72"/><path fill="none" stroke="#002140" stroke-linecap="round" stroke-linejoin="round" d="M5.93 123.28c-4.68 6.77-6.3 12.38-4.19 16.19 7.43 13.38 58.18-.5 113.35-31 55.17-30.49 93.88-66.06 86.45-79.44-2.63-4.73-10.68-6.05-22.43-4.43"/><path fill="none" stroke="#002140" stroke-linecap="round" stroke-linejoin="round" d="M177.84 27.43c7.46-.98 12.4-.17 13.99 2.69 5.52 9.94-31.4 40.88-82.47 69.1-51.06 28.22-96.93 43.04-102.45 33.1-1.16-2.09-.44-5.1 1.87-8.81"/><path fill="#e4bc07" d="M199.14 76.24c-.48.8-1.76 1.05-3.54.82l.02-.21 1.8-2.91c1.74.21 2.98-.04 3.46-.81l-1.74 3.12Z"/><path fill="#fee45e" d="M186.12 69.46s-.08-.05-.12-.07a47 47 0 0 1-3.96-2.63c-1.17-.87-2.21-1.74-3.1-2.58-.91-.86-1.66-1.69-2.23-2.46-1.11-1.5-1.52-2.78-1.03-3.61 1.26-2.09 7.93-.42 14.89 3.72s11.59 9.19 10.32 11.28c-.48.79-1.72 1.04-3.46.83-.95-.12-2.05-.37-3.26-.76a34 34 0 0 1-3.82-1.5c-1.37-.63-2.79-1.37-4.23-2.22m.76-1.8c5.84 3.47 11.19 5.26 11.96 3.99.77-1.26-3.34-5.1-9.18-8.58-5.84-3.47-11.19-5.26-11.96-3.99-.77 1.26 3.34 5.11 9.18 8.58"/><path fill="#e4bc07" d="m195.63 76.85-.02.21c-.97-.12-2.09-.39-3.32-.79l.02-.05 1.88-3.03c1.2.38 2.3.64 3.26.76l-1.8 2.91Z"/><path fill="#fee45e" d="M198.84 71.65c-.77 1.26-6.12-.52-11.96-3.99s-9.95-7.31-9.18-8.58c.77-1.26 6.12.52 11.96 3.99s9.95 7.31 9.18 8.58"/><path fill="#e4bc07" d="m192.3 76.22-.02.05c-1.19-.39-2.48-.9-3.82-1.52v-.02l1.89-3.04c1.35.62 2.63 1.12 3.82 1.5l-1.88 3.03Z"/><path fill="#e4bc07" d="M188.47 74.73v.02c-1.38-.63-2.8-1.38-4.24-2.24l1.89-3.05c1.44.85 2.87 1.6 4.23 2.22l-1.88 3.04Z"/><path fill="#e4bc07" d="m186.12 69.46-1.89 3.05c-1.47-.87-2.84-1.79-4.07-2.71l1.88-3.04c1.2.89 2.54 1.78 3.96 2.63.04.02.08.05.12.07m-4.08-2.7-1.88 3.04a36 36 0 0 1-3.15-2.64l.1-.1 1.68-2.73.14-.15c.89.85 1.93 1.72 3.1 2.58Z"/><path fill="#e4bc07" d="m178.95 64.18-.14.15-1.68 2.73-.1.1c-1.18-1.13-2.09-2.22-2.66-3.17l.7.38 1.6-2.59.06-.07c.57.78 1.32 1.6 2.23 2.46Z"/><path fill="#e4bc07" d="m176.71 61.72-.06.07-1.6 2.59-.7-.38c-.67-1.14-.87-2.1-.47-2.77l1.79-3.11c-.49.82-.08 2.1 1.03 3.61Z"/><path fill="none" stroke="#002140" stroke-linecap="round" stroke-linejoin="round" d="M200.89 73.13c-.48.77-1.72 1.03-3.46.81-.95-.12-2.05-.37-3.26-.76a34 34 0 0 1-3.82-1.5c-1.37-.63-2.79-1.37-4.23-2.22-.04-.02-.08-.05-.12-.07a47 47 0 0 1-3.96-2.63c-1.17-.87-2.21-1.74-3.1-2.58-.91-.86-1.66-1.69-2.23-2.46-1.11-1.5-1.52-2.78-1.03-3.61 1.26-2.09 7.93-.42 14.89 3.72s11.59 9.19 10.32 11.28"/><path fill="none" stroke="#e4bc07" stroke-miterlimit="10" d="M186.88 67.66c-5.84-3.47-9.95-7.31-9.18-8.58.77-1.26 6.12.52 11.96 3.99s9.95 7.31 9.18 8.58c-.77 1.26-6.12-.52-11.96-3.99Z"/><path fill="none" stroke="#002140" stroke-linecap="round" stroke-linejoin="round" d="m200.9 73.11-1.74 3.13c-.48.8-1.76 1.05-3.54.82-.97-.12-2.09-.39-3.32-.79-1.19-.39-2.48-.9-3.82-1.52-1.37-.63-2.79-1.38-4.23-2.24-1.47-.87-2.84-1.79-4.07-2.71-1.19-.89-2.25-1.78-3.15-2.64-1.18-1.13-2.09-2.22-2.66-3.17-.67-1.14-.87-2.1-.47-2.77l1.79-3.11m8.55 14.41 1.89-3.05h0m4.22 2.22-1.88 3.04m5.7-1.55-1.88 3.03m5.14-2.27-1.8 2.91m-13.58-10.09-1.88 3.04m-1.37-5.47-1.68 2.72m-.47-5.26-1.6 2.59"/><path fill="#03d47c" d="m158.03 12.33-9.09 24.34c-.51 1.37.19 2.9 1.56 3.41l12.33 4.58c1.37.51 2.9-.19 3.42-1.56l9.09-24.34c.51-1.37-.19-2.9-1.56-3.41l-12.33-4.58c-1.38-.51-2.9.19-3.42 1.56"/><path fill="none" stroke="#002140" stroke-linecap="round" stroke-linejoin="round" d="m157.78 12.74-8.79 23.53c-.61 1.64.22 3.46 1.87 4.07l11.35 4.22c1.64.61 3.47-.22 4.08-1.86l8.79-23.53c.61-1.64-.22-3.46-1.87-4.07l-11.35-4.22c-1.64-.61-3.47.22-4.08 1.86m5.63 29.1 1.49-3.98m.68-1.83 1.49-3.98"/><path fill="#008c59" d="m158.5 35.13-.07.19c-.12.32.04.67.36.79l.77.29c.32.12.67-.04.79-.36l.07-.19a.61.61 0 0 0-.36-.79l-.77-.29a.61.61 0 0 0-.79.36m-1.92-.73-.07.19c-.12.32.04.67.36.79l.44.16c.32.12.67-.04.79-.36l.07-.19a.61.61 0 0 0-.36-.79l-.44-.16a.61.61 0 0 0-.79.36m2.87-.88-.07.19c-.12.32.04.67.36.79l.44.16c.32.12.67-.04.79-.36l.07-.19a.61.61 0 0 0-.36-.79l-.44-.16a.61.61 0 0 0-.79.36m-2.24-.78-.07.19c-.12.32.04.67.36.79l.85.32c.32.12.67-.04.79-.36l.07-.19a.61.61 0 0 0-.36-.79l-.85-.32a.61.61 0 0 0-.79.36m2.48 4.08-3.26-1.21a.326.326 0 0 0-.42.19l-.42 1.11c-.04.1-.02.2.03.29l.35.56c.04.06.1.11.16.13l2.37.88c.06.02.13.03.19.01l.51-.13c.11-.03.19-.1.23-.2l.45-1.21a.326.326 0 0 0-.19-.42m3.13-20.05-3.25 8.71a2.07 2.07 0 0 0 1.22 2.66l.05.02c1.07.4 2.26-.15 2.66-1.21l3.25-8.71a2.07 2.07 0 0 0-1.22-2.66l-.05-.02c-1.07-.4-2.26.15-2.66 1.21"/><path fill="#28736d" d="m112.14 66.44-27.99 5.8-4.27 6 9.5 46.24s1.84 5 6.38 5.07c4.55.07 24.34-4.39 27.7-5.08s4.64-6.51 4.64-6.51-9.03-42.48-9.56-46.21-6.39-5.3-6.39-5.3Z"/><path fill="#134038" d="M89.35 124.98c.67 3.67 5.58 4.67 5.58 4.67l3.92-.49-4.14-2.35-1.48-2.83-4.68-22.61-4.19-20.45-.5-5 2.56-4.11-3.2 1.04-2.15 1.74-1.22 2.69s8.83 44.03 9.5 47.7"/><path fill="#03d47c" d="M115.08 72.3a1.61 1.61 0 0 0-1.89-1.24l-24.7 5.07c-.65.13-1.07.77-.93 1.42l9.5 46.07c.18.87 1.02 1.42 1.89 1.25l24.97-5.12c.65-.13 1.07-.77.93-1.42l-9.78-46.02Z"/><path fill="#5be3aa" d="M100.01 73.93c-.08 1.19.83 2.28 1.94 2.72 1.11.45 2.35.37 3.53.16s2.34-.54 3.53-.59c.32-.01.66 0 .95.14.3.14.53.4.71.67 1.23 1.77 1.15 4.1 1.88 6.13.19.53.45 1.06.85 1.46 1.1 1.1 2.99.98 4.33.19l-2.58-12.5a1.604 1.604 0 0 0-1.91-1.24L100 73.93Z"/><path fill="none" stroke="#002140" stroke-linecap="round" stroke-linejoin="round" d="m110.87 66.7-25.69 5.27c-3.51.72-5.77 4.15-5.05 7.65l9.25 44.86c.72 3.5 4.15 5.76 7.67 5.04l25.69-5.27a6.477 6.477 0 0 0 5.05-7.65l-9.25-44.86c-.72-3.5-4.15-5.76-7.67-5.04"/><path fill="none" stroke="#002140" stroke-linecap="round" stroke-linejoin="round" d="M100.83 128.74a6.504 6.504 0 0 1-7.67-5.04l-9.25-44.86c-.72-3.5 1.54-6.93 5.05-7.65"/><path fill="none" stroke="#002140" stroke-linecap="round" stroke-linejoin="round" d="m113.61 70.86-24.95 5.12c-.72.15-1.19.85-1.04 1.57l9.55 46.33c.15.72.86 1.19 1.58 1.04l24.95-5.12c.72-.15 1.19-.85 1.04-1.57l-9.55-46.33c-.15-.72-.86-1.19-1.58-1.04"/><path fill="#002e22" d="m109.21 94.64-.38-1.83-6.22 1.28 1.82 8.84 6.22-1.28-.38-1.83-3.93.81-.35-1.7 3.16-.65-.39-1.87-3.16.65-.33-1.61 3.93-.81Z"/><path fill="#002e22" d="M105.12 90.52c1.57-.32 3.12-.13 4.49.45.35.15.76.05.97-.27.23-.35.12-.84-.27-1.01a9 9 0 0 0-5.48-.6c-4.85 1-7.99 5.74-6.99 10.59a8.8 8.8 0 0 0 2.72 4.78c.31.29.8.2 1.04-.15.21-.32.14-.73-.14-.99a7.56 7.56 0 0 1-2.19-3.93c-.84-4.06 1.78-8.03 5.85-8.86Zm7.75.9c-.31-.3-.82-.22-1.05.14-.21.31-.14.73.12.99 1.01 1 1.75 2.31 2.06 3.81s.14 3.04-.42 4.39c-.14.35-.04.76.27.96.36.24.85.12 1.02-.28.71-1.63.95-3.5.56-5.37s-1.3-3.44-2.56-4.64m-4.72 13.8c-1.5.31-3 .14-4.32-.39a.796.796 0 0 0-.96.28c-.24.36-.11.85.29 1.02 1.61.68 3.44.9 5.29.52a9 9 0 0 0 4.72-2.63c.29-.31.21-.81-.14-1.04-.32-.21-.73-.14-.99.13a7.56 7.56 0 0 1-3.88 2.12Z"/><path fill="none" stroke="#002e22" stroke-width=".6" d="M105.12 90.52c-4.07.84-6.69 4.8-5.85 8.86a7.4 7.4 0 0 0 2.19 3.93c.27.26.34.68.14.99-.24.36-.72.44-1.04.15a8.96 8.96 0 0 1-2.72-4.78c-1-4.84 2.14-9.59 6.99-10.59a9 9 0 0 1 5.48.6c.39.17.5.66.27 1.01-.21.32-.62.42-.97.27a7.6 7.6 0 0 0-4.49-.45Zm0 0Zm4.09 4.12-.38-1.83-6.22 1.28 1.82 8.84 6.22-1.28-.38-1.83-3.93.81-.35-1.7 3.16-.65-.39-1.87-3.16.65-.33-1.61 3.93-.81Zm4.8 1.72c-.31-1.5-1.05-2.8-2.06-3.81-.26-.26-.33-.68-.12-.99.24-.36.74-.44 1.05-.14a8.83 8.83 0 0 1 2.56 4.64c.39 1.87.15 3.74-.56 5.37-.17.39-.66.51-1.02.28a.78.78 0 0 1-.27-.96c.56-1.35.73-2.89.42-4.39Zm-5.86 8.86c-1.5.31-3 .14-4.32-.39a.796.796 0 0 0-.96.28c-.24.36-.11.85.29 1.02 1.61.68 3.44.9 5.29.52a9 9 0 0 0 4.72-2.63c.29-.31.21-.81-.14-1.04-.32-.21-.73-.14-.99.13a7.56 7.56 0 0 1-3.88 2.12Z"/></g></svg>