<?xml version="1.0" encoding="utf-8"?>
<!-- Generator: Adobe Illustrator 26.5.0, SVG Export Plug-In . SVG Version: 6.00 Build 0)  -->
<svg version="1.1" id="Layer_1" xmlns="http://www.w3.org/2000/svg" xmlns:xlink="http://www.w3.org/1999/xlink" x="0px" y="0px"
	 viewBox="0 0 101 100" style="enable-background:new 0 0 101 100;" xml:space="preserve">
<style type="text/css">
	.st0{fill:#FED607;}
	.st1{fill:#FFFFFF;}
	.st2{fill:#0B1B34;}
</style>
<path class="st0" d="M19.3,15.1l2.1,2l2.1-2l2.1,2l2.1-2l2.1,2l2.1-2l2.1,2l2.1-2v26.6l-2.1,4l-2.1,2l-2.1-2l-2.1,2l-2.1-2l-2.1,2
	l-2.1-2l-2.1,2l-2.1-2l-2.1,2V15.1l2.1,2L19.3,15.1z"/>
<path class="st0" d="M46.3,45.8l-2.1,2l-2.1-2l-2.1,2V15.1l2.1,2l2.1-2l2.1,2l2.1-2l2.1,2l2.1-2l2.1,2l2.1-2l2.1,2l2.1-2v32.6
	l-2.1-2l-2.1,2l-2.1-2l-2.1,2l-2.1-2l-2.1,2L46.3,45.8z M45.5,25.7h10H45.5z M45.5,31.7h10H45.5z M55.5,37.7h-10H55.5z"/>
<path class="st0" d="M31.7,52.3l2.1,2l2.1-2l2.1,2l2.1-2l2.1,2l2.1-2l2.1,2l2.1-2v32.6l-2.1-2l-2.1,2l-2.1-2l-2.1,2l-2.1-2l-2.1,2
	l-2.1-2l-2.1,2l-2.1-2l-2.1,2V53.3l2.1,1L31.7,52.3z"/>
<path class="st0" d="M56.7,52.3l2.1,2l2.1-2l2.1,2l2.1-2l2.1,2l2.1-2l2.1,2l2.1-2v32.6l-2.1-2l-2.1,2l-2.1-2l-2.1,2l-2.1-2l-2.1,2
	l-2.1-2l-2.1,2l-2.1-2l-2.1,2V52.3l2.1,2L56.7,52.3z M68,74.9H58H68z M68,68.9H58H68z M68,62.9H58H68z"/>
<path class="st0" d="M71.2,45.8l-2.1,2l-2.1-2l-2.1,2V15.1l2.1,2l2.1-2l2.1,2l2.1-2l2.1,2l2.1-2l2.1,2l2.1-2l2.1,2l2.1-2v32.6
	l-2.1-2l-2.1,2l-2.1-2l-2.1,2l-2.1-2l-2.1,2L71.2,45.8z M70.4,25.7h10H70.4z M70.4,31.7h10H70.4z M80.4,37.7h-10H80.4z"/>
<path class="st0" d="M50.2,49.7l-2.1-2l-2.1,2l-2.1-2l-2.1,2l-2.1-2l-2.1,2V35.3c1.5-0.8,3.2-1.2,5-1.2c6.1,0,11,4.9,11,11
	c0,0.6-0.1,1.2-0.1,1.7l-1.2,0.9L50.2,49.7z"/>
<path class="st1" d="M36.6,52l3.1-2.9l2.1,2l2.1-2l2.1,2l2.1-2l2.1,2l2.7-2.6l1.5-1.1l0.1-0.4c0.1-0.7,0.2-1.3,0.2-1.9
	c0-6.6-5.4-12-12-12c-1.9,0-3.7,0.4-5.5,1.3l-0.5,0.3L36.6,52L36.6,52z M43.9,46.3l-2.1,2l-2.1-2l-1.1,1V35.9c1.3-0.6,2.6-0.8,4-0.8
	c5.5,0,10,4.5,10,10c0,0.4,0,0.8-0.1,1.2L51.6,47l-1.4,1.3l-2.1-2l-2.1,2L43.9,46.3z"/>
<path class="st1" d="M43.8,37.6h8.7v4h-8.7V37.6z"/>
<path class="st2" d="M17.4,66c0.9,1.1,2.6,1.3,3.7,0.4L38.6,52l-3.4-4.1L17.8,62.2C16.6,63.2,16.5,64.8,17.4,66z"/>
<path class="st1" d="M19.5,67.9c0.8,0,1.7-0.3,2.3-0.8l17.4-14.3c0.2-0.2,0.3-0.4,0.4-0.7c0-0.3-0.1-0.5-0.2-0.7L36,47.3
	c-0.4-0.4-1-0.5-1.4-0.1L17.2,61.5C16.4,62.1,16,63,15.9,64s0.2,1.9,0.8,2.7c0.6,0.8,1.5,1.2,2.5,1.3C19.2,67.9,19.3,67.9,19.5,67.9
	z M37.2,51.9L20.5,65.6c-0.3,0.3-0.8,0.4-1.2,0.4c-0.4,0-0.8-0.3-1.1-0.6c-0.3-0.3-0.4-0.8-0.4-1.2c0-0.4,0.3-0.8,0.6-1.1l16.7-13.8
	L37.2,51.9z"/>
<path class="st2" d="M32.8,53.3c4.4,5.4,12.5,6.2,17.9,1.7s6.2-12.5,1.7-17.9S39.9,31,34.5,35.4S28.3,47.9,32.8,53.3z M48.9,40.1
	c2.8,3.5,2.3,8.6-1.1,11.4c-3.4,2.8-8.6,2.3-11.4-1.1c-2.8-3.5-2.3-8.6,1.1-11.4C40.9,36.1,46,36.6,48.9,40.1z"/>
<path class="st1" d="M42.6,58.9c3.1,0,6.1-1,8.7-3.1c5.8-4.8,6.7-13.5,1.9-19.3s-13.5-6.7-19.3-1.9S27.2,48.1,32,53.9
	C34.7,57.2,38.6,58.9,42.6,58.9z M42.6,33.5c0.4,0,0.8,0,1.2,0.1c3.1,0.3,5.9,1.8,7.9,4.2c2,2.4,2.9,5.5,2.6,8.6s-1.8,5.9-4.2,7.9
	s-5.5,2.9-8.6,2.6c-3.1-0.3-5.9-1.8-7.9-4.2c-2-2.4-2.9-5.5-2.6-8.6c0.3-3.1,1.8-5.9,4.2-7.9C37.3,34.4,39.9,33.5,42.6,33.5z
	 M42.6,54.3c2.1,0,4.1-0.7,5.8-2.1c1.9-1.5,3-3.7,3.3-6.1c0.2-2.4-0.5-4.8-2-6.7s-3.7-3-6.1-3.3c-2.4-0.2-4.8,0.5-6.7,2
	c-1.9,1.5-3,3.7-3.3,6.1c-0.2,2.4,0.5,4.8,2,6.7s3.7,3,6.1,3.3C42,54.3,42.3,54.3,42.6,54.3z M42.6,38.1c2.1,0,4.1,0.9,5.5,2.6
	c2.5,3,2,7.5-1,10c-1.5,1.2-3.3,1.8-5.2,1.6c-1.9-0.2-3.6-1.1-4.8-2.6s-1.8-3.3-1.6-5.2c0.2-1.9,1.1-3.6,2.6-4.8
	C39.4,38.6,41,38.1,42.6,38.1z"/>
<path class="st1" d="M68,62H58v2h10V62z"/>
<path class="st1" d="M68,68H58v2h10V68z"/>
<path class="st1" d="M68,74H58v2h10V74z"/>
<path class="st1" d="M80.5,24h-10v2h10V24z"/>
<path class="st1" d="M80.5,30h-10v2h10V30z"/>
<path class="st1" d="M80.5,36h-10v2h10V36z"/>
<path class="st1" d="M30.5,24h-10v2h10V24z"/>
<path class="st1" d="M30.5,30h-10v2h10V30z"/>
<path class="st1" d="M30.5,36h-10v2h10V36z"/>
<path class="st1" d="M55,24H45v2h10V24z"/>
<path class="st1" d="M55,30H45v2h10V30z"/>
<path class="st1" d="M55,36h-3v2h3V36z"/>
<path class="st1" d="M43,62H33v2h10V62z"/>
<path class="st1" d="M43,68H33v2h10V68z"/>
<path class="st1" d="M43,74H33v2h10V74z"/>
</svg>
