<svg xmlns="http://www.w3.org/2000/svg" xml:space="preserve" id="Layer_1" x="0" y="0" viewBox="0 0 80 80"><style>.st0{fill:#fed607}.st1{fill-rule:evenodd;clip-rule:evenodd;fill:#fff}.st2{fill:#0b1b34}</style><path d="M56.1 65.4 53.6 63l-3.1 2.9q-.3.3-.6 0L46.8 63l-3.1 2.9q-.3.3-.6 0L40 63l-3.1 2.9q-.3.3-.6 0L33.2 63l-3.1 2.9q-.3.3-.6 0L26.4 63l-2.6 2.5c-.3.3-.7.1-.7-.3v-50c0-.4.5-.6.7-.3l2.6 2.5 3.1-2.9q.3-.3.6 0l3.1 2.9 3.1-2.9q.3-.3.6 0l3.1 2.9 3.1-2.9q.3-.3.6 0l3.1 2.9 3.1-2.9q.3-.3.6 0l3.1 2.9 2.6-2.5c.3-.3.7-.1.7.3v50c0 .3-.6.5-.8.2" class="st0"/><path d="M49.6 44H31.2v-1.6h18.4zm0 8H31.2v-1.6h18.4z" class="st1"/><path d="M48.8 28.8H32V36h16.8z" class="st2"/><path d="M31.2 28.8c0-.4.4-.8.8-.8h16.8c.4 0 .8.4.8.8V36c0 .4-.4.8-.8.8H32c-.4 0-.8-.4-.8-.8zm1.6.8v5.6H48v-5.6z" class="st1"/></svg>