<?xml version="1.0" encoding="UTF-8"?>
<svg id="Layer_1" xmlns="http://www.w3.org/2000/svg" version="1.1" viewBox="0 0 128 152">
  <!-- Generator: Adobe Illustrator 29.5.1, SVG Export Plug-In . SVG Version: 2.1.0 Build 141)  -->
  <defs>
    <style>
      .st0 {
        fill: #fee45e;
      }

      .st1 {
        fill: #fffaf0;
      }

      .st2 {
        fill: #f9b5fe;
      }

      .st3, .st4 {
        fill: #002140;
      }

      .st4, .st5, .st6 {
        stroke: #002140;
      }

      .st4, .st6 {
        stroke-miterlimit: 10;
        stroke-width: .33px;
      }

      .st5 {
        stroke-linecap: round;
        stroke-linejoin: round;
      }

      .st5, .st6 {
        fill: none;
      }

      .st7 {
        fill: #fed607;
      }
    </style>
  </defs>
  <path class="st7" d="M59.14,129.96l-10.32,9.59s-1.92,1.62-1.77,3.83c.15,2.21,1.33,7.23,19.61,7.23s20.79-3.98,20.35-6.93c-.44-2.95-5.16-6.93-5.16-6.93l-7.23-6.64v-5.6s8.85-4.42,3.54-13.27l-24.77-1.03s-4.13,10.76,5.75,14.6v5.16Z"/>
  <path class="st1" d="M114.88,51.07s-35.83-5.01-43.35-8.11l-6.78-.88s-16.37-6.78-21.68-11.5l-.15,6.34-6.78-1.33,1.18,5.46-8.7.44,1.33,5.9-8.7,1.33,3.24,6.49-7.37-.74.59,6.93-5.75,2.95,11.35,1.03-4.42,11.94s17.84,13.12,51.02,16.07c18.73,1.33,29.94-.74,29.94-.74l-3.54-6.78,6.78-1.77-2.8-6.78h7.82l-3.98-6.64,9.88-.44-5.75-6.34,8.41-1.33-6.49-6.49,4.72-5.01h0Z"/>
  <path class="st7" d="M65.37,53.32l2.43-2.21,3.65,4.86-.66-47-2.99-6.97-2.54,7.19.11,44.13Z"/>
  <path class="st0" d="M12.06,65.04l5.75,11.61,1.07.66,3.91-11.61-10.73-.66Z"/>
  <path class="st1" d="M15.34,72.3l-12.39,15.78,9.59,1.62-4.13,1.77,4.28,4.57-9.14,4.42,12.68.59-3.1,8.7,10.76-1.92,77.71,4.57-.74-4.72,5.31,1.03-2.65-5.46,6.93-2.95,5.16.88.44-8.41,3.39,2.36,6.93-18.88s-1.92-11.06-11.21-11.94l-3.69,2.21,2.51,3.69-4.28.74-2.21,3.69.59,2.65-2.8.44-3.1,3.69.74,1.92-2.51,1.77.44,2.21-1.33,2.21,1.03,2.95s-9.29,2.06-25.66,1.33c-16.37-.74-28.02-3.98-28.02-3.98,0,0-19.91-5.9-28.02-12.53l-3.54-5.01h0Z"/>
  <path class="st7" d="M43.07,92.8s18.14,6.78,34.8,6.78,32.15-1.03,37.75,1.62l.44-8.41s-8.7-4.42-17.25-3.39l1.77,3.1s-12.09,1.33-17.4,1.18c-5.31-.15-40.11-.88-40.11-.88h0Z"/>
  <path class="st7" d="M2.96,88.08l27.13,3.1.88-6.78-11.5-6.49-3.69-5.01s-11.5,13.57-12.83,15.19h0Z"/>
  <path class="st0" d="M30.98,84.4s-1.92,11.06-.88,15.48c0,0,10.47-8.55,19.02-9.29l-18.14-6.19h0Z"/>
  <path class="st2" d="M21.98,108.28l79.63,4.13-1.48-5.31-45.42-4.13-32.74,5.31Z"/>
  <path class="st4" d="M16.23,101.06l-3.1,8.7,41.58-6.78-38.49-1.92Z"/>
  <path class="st4" d="M98.44,89.26l4.54-.99-2.54-3.76-3.76,1.66,1.77,3.1Z"/>
  <path class="st3" d="M100.43,77.54l1.55,4.31,3.76-1.22-.77-3.1-5.09.22"/>
  <path class="st6" d="M100.43,77.54l1.55,4.31,3.76-1.22-.77-3.1-5.09.22"/>
  <path class="st4" d="M103.86,70.57l2.88,4.09,4.64-1-.77-3.32-6.75.22Z"/>
  <path class="st4" d="M108.4,64.05l1.77,2.32,6.41-.33v-1.88l-1.55-1.44-6.63,1.33Z"/>
  <path class="st4" d="M23.57,80.63l-2.32,4.31,8.52,2.99,1.44-3.87-7.63-3.43Z"/>
  <path class="st4" d="M43.36,92.36l21.35,1-15.82-2.99s-4.87.11-5.53,1.99Z"/>
  <path class="st3" d="M70.57,104.41v3.54l5.2.44.55-3.87-5.75-.11Z"/>
  <path class="st4" d="M90.15,105.85l.33,3.43,5.64.22-.33-2.65-5.64-1Z"/>
  <path class="st3" d="M58.4,110.28s-3.43,10.73,8.52,10.95c11.95.22,7.52-10.18,7.52-10.18h-4.09s0,5.09-3.87,4.42c-3.87-.66-4.98-3.1-3.54-4.87"/>
  <path class="st6" d="M58.4,110.28s-3.43,10.73,8.52,10.95c11.95.22,7.52-10.18,7.52-10.18h-4.09s0,5.09-3.87,4.42c-3.87-.66-4.98-3.1-3.54-4.87"/>
  <path class="st4" d="M59.51,133.72c-.06-1.01-.22-3.54-.22-3.54l-7.96,6.64s-2.1,6.64,3.1,7.3c5.2.66,5.2-3.43,5.2-3.43,0,0,1.55-4.65,6.41-4.65s7.41,8.52,11.06,8.41c3.65-.11,4.87-6.19,4.65-7.41-.22-1.22-7.3-6.75-7.3-6.75l-.11,3.76s-7.41,3.32-14.82-.33h0Z"/>
  <path class="st3" d="M32.77,63.56c.05-.07.09-.15.12-.24.18-.59-.25-1.02-.72-1.28-.28-.15-.62-.33-1.02-.54-.36-.19-.78-.32-1.13-.05-.23.18-.37.53-.34.82,0,.03.09.41.16.38,0,0-1,.4-1.33,1.03l-.97-.52s-.76-.4-1.21.44c-.45.85.4,1.3.4,1.3l.97.52s-1.14,2.98,1.66,4.46c3.73,1.97,5.13-4.88,7.42-3.67.32.17,1.22.97.12,3.05-1.33,2.52-2.82.25-3.66,1.84-.46.87.09,1.43.59,1.7l1.91,1.01s.74.34,1.17-.47c.43-.81.16-1.22.16-1.22,0,0,.91-.28,1.31-1.04.37.19.73.39,1.1.58.68.36,1.64,1.01,2.15.05.42-.8-.2-1.24-.84-1.58-.51-.27-1.02-.54-1.53-.81.05.02.3-1.35.31-1.43.06-1.03-.27-2.04-1-2.78-.84-.85-2.12-1.45-3.31-1.08-.85.26-1.52.91-2.09,1.55-.55.63-1.02,1.33-1.61,1.93-.36.37-.89.8-1.43.52-1.14-.61-.63-1.96-.22-2.75.4-.76.92-1.19,1.78-1.21.4-.01.85-.16,1.09-.49h0Z"/>
  <path class="st5" d="M65.04,53.81V9.48s0-.09.02-.14l2.35-7.05c.13-.38.65-.4.81-.03l2.77,6.62c.02.05.03.11.03.17v46.14"/>
  <path class="st5" d="M59.66,58.36c1.13-2.52,1.19-5.5.18-8.07,1.96.8,3.6,1.97,5.04,3.52,1-1.06,1.82-1.97,2.82-3.03,1.25,1.77,2.44,3.57,3.69,5.34,1.17-1.92,3.03-3.27,5.16-3.99-.38,1.29-.79,2.54-.76,3.88.02,1.34.51,2.75,1.58,3.56"/>
  <path class="st5" d="M60.41,54.12c-1.56.8-3.48.87-5.1.19"/>
  <path class="st5" d="M11.62,64.71l6.3,11.94s28.09,22.49,82.65,16c-1.49-2.44-4.13-6.78-4.13-6.78l6.78-1.62-3.1-6.78,8.41-.15-4.57-6.78,9.88-.44-5.75-6.19,9.29-1.47-7.23-6.19,5.31-5.12s-22.89-2.48-44.05-8.25"/>
  <path class="st5" d="M65.04,42.22c-6.64-1.62-17.58-7.67-22.89-12.02l.92,6.71-7.52-1.33,1.92,5.6h-9l1.47,6.34-8.56,1.19,3.25,6.63-7.37-.88.74,7.23-6.04,2.94c3.64.39,7.29.66,10.95.82-1.54,3.82-2.81,7.75-3.79,11.75"/>
  <path class="st5" d="M42.71,92.28c16.15,1.29,33.22,2.22,43.23,1.47"/>
  <path class="st5" d="M15.6,72.34s-8.63,12.61-13.6,15.93c0,0,12.29,1.46,27.92,2.91"/>
  <path class="st5" d="M115.03,62.83s10.95,5.64,11.28,13.27l-6.97,18.91s-9.82-6.97-20.49-6.05"/>
  <path class="st5" d="M14.28,89.59l-6.19,1.99,5.09,4.87-9.84,3.76s88.26,3.32,103.19,8.63l-3.21-5.86,6.96-2.55"/>
  <path class="st5" d="M41.91,92.59c33.44,12.77,56.71,3.19,73.89,8.61v-7.96"/>
  <path class="st5" d="M16.6,100.87l-3.65,8.63s39.66-5.6,44.32-6.47"/>
  <path class="st5" d="M20.99,108.15l80.55,4.56-.98-5.3"/>
  <path class="st5" d="M53.43,110.16s-6.97,15.59,12.94,15.59,11.94-13.94,11.94-13.94"/>
  <path class="st5" d="M59.4,125.1v8.63s7.96,3.65,14.93,0v-8.63"/>
  <path class="st4" d="M66.81,146.33c1.87,0,3.39-1.49,3.39-3.32s-1.52-3.32-3.39-3.32-3.39,1.49-3.39,3.32,1.52,3.32,3.39,3.32Z"/>
  <path class="st5" d="M51.39,137.15c-1.09,2.04-.7,4.85,1.08,6.32,1.78,1.48,4.82,1.22,6.14-.67.62-.89.84-1.98,1.3-2.96.89-1.89,2.72-3.3,4.77-3.66,2.05-.37,4.26.32,5.75,1.78,1.7,1.67,2.42,4.2,4.29,5.69.66.52,1.46.9,2.3.87.77-.03,1.5-.4,2.12-.86,1.94-1.46,2.99-4.11,2.34-6.44l-6.81-6.8,11,10.02c2.31,2.11,1.65,5.89-1.23,7.11-3.4,1.44-8.86,2.77-17.4,2.77-9.03,0-14.61-1.65-17.96-3.34-2.67-1.35-3.14-4.96-.93-6.97l11.26-10.26"/>
  <path class="st5" d="M58.4,110.5s-3.76,10.62,8.18,10.62,7.96-9.73,7.96-9.73"/>
  <path class="st5" d="M62.92,110.78c-.59.82-.52,2,.02,2.85.54.85,1.48,1.4,2.45,1.66,1.24.33,2.64.23,3.69-.51,1.05-.74,1.64-2.17,1.19-3.37"/>
  <path class="st5" d="M82.06,85.26c.66-1.07,1.8-.37,2.46-1.44.66-1.07-.47-1.77.19-2.85.66-1.07,1.8-.37,2.46-1.44.66-1.07-.47-1.77.19-2.84.66-1.07,1.8-.37,2.46-1.44.66-1.07-.47-1.77.19-2.85.66-1.07,1.8-.37,2.46-1.44.66-1.07-.47-1.77.19-2.85.66-1.07,1.8-.37,2.46-1.44.66-1.07-.47-1.77.19-2.84.66-1.07,1.8-.37,2.46-1.44.66-1.07-.47-1.78.2-2.85.66-1.07,1.8-.37,2.46-1.44"/>
  <path class="st5" d="M75.42,83.27c.66-1.07,1.8-.37,2.46-1.44.66-1.07-.47-1.77.19-2.85.66-1.07,1.8-.37,2.46-1.44.66-1.07-.47-1.77.19-2.84.66-1.07,1.8-.37,2.46-1.44.66-1.07-.47-1.77.19-2.85.66-1.07,1.8-.37,2.46-1.44.66-1.07-.47-1.77.19-2.85.66-1.07,1.8-.37,2.46-1.44.66-1.07-.47-1.77.19-2.84.66-1.07,1.8-.37,2.46-1.44.66-1.07-.47-1.78.2-2.85.66-1.07,1.8-.37,2.46-1.44"/>
  <path class="st5" d="M69.45,80.62c.66-1.07,1.8-.37,2.46-1.44.66-1.07-.47-1.77.19-2.85.66-1.07,1.8-.37,2.46-1.44.66-1.07-.47-1.77.19-2.84s1.8-.37,2.46-1.44c.66-1.07-.47-1.77.19-2.85.66-1.07,1.8-.37,2.46-1.44.66-1.07-.47-1.77.19-2.85.66-1.07,1.8-.37,2.46-1.44.66-1.07-.47-1.77.19-2.84.66-1.07,1.8-.37,2.46-1.44.66-1.07-.47-1.78.2-2.85.66-1.07,1.8-.37,2.46-1.44"/>
  <path class="st5" d="M41.72,58.8c.43-.69,1.56,0,1.99-.68.43-.69-.71-1.39-.28-2.08.43-.69,1.56.01,1.99-.68.43-.69-.71-1.39-.28-2.09.43-.69,1.56.01,1.99-.68.43-.69-.71-1.39-.28-2.09.43-.69,1.56.01,1.99-.68.43-.69-.71-1.39-.28-2.09.43-.69,1.56,0,1.99-.68.43-.69-.71-1.39-.28-2.09.43-.69,1.56,0,1.99-.68.43-.69-.7-1.4-.28-2.09.43-.69,1.56,0,1.99-.68"/>
  <path class="st3" d="M47.93,75.25l10.91,3.39,7.96-12.98-10.17-3.39-8.7,12.98Z"/>
  <path class="st5" d="M15.34,84.4c.15-.44,4.57-6.05,4.57-6.05"/>
  <path class="st5" d="M23.9,80.56l-2.51,4.42,8.7,2.65.88-3.24s-2.1,10.84-.77,16.48c0,0,10.95-10.62,19.24-10.29"/>
  <path class="st3" d="M116.36,70.98s4.28,1.18,6.49,2.95l-5.9,15.48c-2.21-1.77-6.49-2.95-6.49-2.95l5.9-15.48Z"/>
  <path class="st5" d="M101.24,88.82l1.84-.74-2.29-3.17"/>
  <path class="st5" d="M102.42,81.81l3.47-.96-.74-3.47"/>
  <path class="st5" d="M106.99,74.66l4.79-1.11-1.2-3.14"/>
  <path class="st5" d="M110.73,66.47l6.14-.14-.59-2.95"/>
  <path class="st5" d="M19.03,96.19l2.36-5.6"/>
  <path class="st5" d="M21.98,96.63l2.36-5.6"/>
  <path class="st5" d="M24.34,105.19l1.64-3.89"/>
  <path class="st5" d="M60.17,107.99l.3-4.13"/>
  <path class="st5" d="M64.01,108.14l.29-4.13"/>
  <path class="st5" d="M76.25,104.75l-.29,3.69-5.46-.44.15-3.83"/>
  <path class="st5" d="M95.86,106.96l.3,2.8-5.6-.44-.44-3.1"/>
  <path class="st5" d="M81.85,108.28v-2.8"/>
  <path class="st5" d="M85.69,108.73v-2.8"/>
  <path class="st5" d="M72.12,96.34v-2.51"/>
  <path class="st5" d="M76.4,96.78v-2.51"/>
</svg>