<svg xmlns="http://www.w3.org/2000/svg" xmlns:xlink="http://www.w3.org/1999/xlink" id="Layer_1" x="0" y="0" version="1.1" viewBox="0 0 80 80" style="enable-background:new 0 0 80 80" xml:space="preserve"><style type="text/css">.st0{fill:#fed607}.st1{fill-rule:evenodd;clip-rule:evenodd;fill:#fff}.st2{fill:#0b1b34}</style><path d="M56.1,65.4L53.6,63l-3.1,2.9c-0.2,0.2-0.4,0.2-0.6,0L46.8,63l-3.1,2.9c-0.2,0.2-0.4,0.2-0.6,0L40,63l-3.1,2.9	c-0.2,0.2-0.4,0.2-0.6,0L33.2,63l-3.1,2.9c-0.2,0.2-0.4,0.2-0.6,0L26.4,63l-2.6,2.5c-0.3,0.3-0.7,0.1-0.7-0.3v-50	c0-0.4,0.5-0.6,0.7-0.3l2.6,2.5l3.1-2.9c0.2-0.2,0.4-0.2,0.6,0l3.1,2.9l3.1-2.9c0.2-0.2,0.4-0.2,0.6,0l3.1,2.9l3.1-2.9	c0.2-0.2,0.4-0.2,0.6,0l3.1,2.9l3.1-2.9c0.2-0.2,0.4-0.2,0.6,0l3.1,2.9l2.6-2.5c0.3-0.3,0.7-0.1,0.7,0.3v50	C56.9,65.5,56.3,65.7,56.1,65.4z" class="st0"/><path d="M49.6,44H31.2v-1.6h18.4V44z" class="st1"/><path d="M49.6,52H31.2v-1.6h18.4V52z" class="st1"/><path d="M48.8,28.8H32V36h16.8V28.8z" class="st2"/><path d="M31.2,28.8c0-0.4,0.4-0.8,0.8-0.8h16.8c0.4,0,0.8,0.4,0.8,0.8V36c0,0.4-0.4,0.8-0.8,0.8H32	c-0.4,0-0.8-0.4-0.8-0.8V28.8z M32.8,29.6v5.6H48v-5.6H32.8z" class="st1"/></svg>