<svg width="400" height="242" viewBox="0 0 400 242" fill="none" xmlns="http://www.w3.org/2000/svg">
<path d="M42.9168 119.545C66.0465 119.545 84.7968 100.794 84.7968 77.6647C84.7968 54.535 66.0465 35.7847 42.9168 35.7847C19.7871 35.7847 1.0368 54.535 1.0368 77.6647C1.0368 100.794 19.7871 119.545 42.9168 119.545Z" fill="#FFF2B2"/>
<path d="M218.217 125.848L219.323 130.382C219.323 130.382 224.633 130.715 226.843 131.378C229.057 132.042 257.59 138.678 268.317 138.568C279.043 138.458 293.313 135.362 294.417 132.595C295.523 129.832 295.967 127.618 293.753 126.845C291.54 126.072 287.007 125.295 287.007 125.295L286.343 128.281C286.343 128.281 290.99 128.945 290.103 130.161C289.217 131.378 282.03 133.478 277.717 133.592C273.403 133.702 257.147 133.592 251.947 132.265C246.75 130.938 228.83 127.508 228.83 127.508L229.493 122.531C229.493 122.531 222.637 126.625 218.213 125.848H218.217Z" fill="#D18000"/>
<path d="M247.967 43.8948L228.833 127.508C228.833 127.508 247.523 130.715 249.737 131.488C251.95 132.261 273.627 136.355 285.35 131.932L314.107 6.29148C314.107 6.29148 315.213 1.42484 311.673 0.981502C308.133 0.538169 296.633 0.0981598 284.687 50.9715C284.687 50.9715 281.073 50.9715 275.323 36.8148L265.887 50.3815L259.84 36.5182L250.993 50.6748L247.97 43.8915L247.967 43.8948Z" fill="#FFFAF0"/>
<path d="M215.157 46.8448C215.157 46.8448 227.69 38.2915 229.313 35.9315L234.327 49.6449L245.24 36.5215L250.99 50.6782L259.837 36.5215L265.883 50.3848L275.32 36.8182C275.32 36.8182 280.63 50.3849 284.683 50.9749C284.683 50.9749 290.803 23.5448 296.407 14.8448C302.01 6.14485 303.633 1.86819 309.237 0.688192L241.697 0.541504C241.697 0.541504 232.7 1.72153 223.56 21.7749C214.713 42.8615 215.153 46.8448 215.153 46.8448H215.157Z" fill="#FFF2B2"/>
<path d="M265.69 220.798C265.69 220.798 266.916 229.848 272.67 230.438C278.42 231.028 281.96 229.258 285.056 219.231C288.153 209.205 291.986 184.428 293.166 181.331C294.346 178.235 296.706 169.978 303.343 168.058L277.093 167.765C277.093 167.765 266.77 209.791 266.33 213.478C265.89 217.165 265.693 220.798 265.693 220.798H265.69Z" fill="#FFF2B2"/>
<path d="M316.907 182.955C316.907 182.955 318.97 192.541 319.12 194.161C319.27 195.781 323.543 223.508 329.59 227.931C335.637 232.355 339.617 231.765 343.303 226.898C346.99 222.031 359.82 193.275 360.703 191.948C361.587 190.621 365.57 184.575 369.847 182.951H316.907V182.955Z" fill="#FFF2B2"/>
<path d="M377.367 207.435C377.367 207.435 372.797 225.132 377.957 228.818C383.117 232.505 389.46 221.888 390.05 220.708C390.64 219.528 399.193 201.392 399.193 201.392C399.193 201.392 389.167 206.112 386.66 210.092L384.597 200.065L377.37 207.438L377.367 207.435Z" fill="#FFF2B2"/>
<path d="M284.023 137.092C284.023 137.092 273.997 138.861 263.083 137.828C252.17 136.795 227.84 131.781 227.84 131.781L208.523 216.132C208.523 216.132 206.31 231.172 218.403 231.172H271.637C271.637 231.172 263.97 227.191 266.033 214.361C268.097 201.531 284.023 137.088 284.023 137.088V137.092Z" fill="#FFFAF0"/>
<path d="M277.386 230.881H332.243C332.243 230.881 326.933 226.015 325.016 219.968C321.773 212.005 316.906 179.415 313.663 173.958C310.42 168.501 308.65 167.618 304.963 167.911C301.276 168.205 294.786 173.071 291.69 185.901C288.593 198.731 287.856 222.768 277.386 230.878V230.881Z" fill="#FFFAF0"/>
<path d="M340.943 229.701H378.547C378.547 229.701 374.417 227.931 375.45 219.821C376.483 211.711 379.727 197.555 379.283 191.065C378.84 184.575 375.45 182.955 372.647 182.955C369.843 182.955 363.357 185.608 357.753 197.111C352.15 208.615 346.99 224.981 340.943 229.701Z" fill="#FFFAF0"/>
<path d="M27.4432 91.5981L26.5198 90.7615L24.8532 98.0881C24.8532 98.0881 20.6965 102.108 23.3498 101.995C26.0032 101.885 28.7932 98.8181 29.2132 100.778C29.7665 113.098 41.4098 117.435 48.7865 117.698C56.1632 117.961 59.1132 114.118 60.7365 111.175C62.3598 108.231 62.7265 97.5715 61.2898 92.4848C59.8532 87.3982 56.9765 76.7781 56.9765 76.7781C56.9765 76.7781 39.5032 72.7981 34.0832 77.1114C28.6632 81.4248 27.4465 91.6015 27.4465 91.6015L27.4432 91.5981Z" fill="#FFED8F"/>
<path d="M39.8298 144.245L43.3698 143.472C43.3698 143.472 45.5832 151.102 48.2365 151.215C49.7865 151.435 50.1165 150.218 50.1165 150.218C50.1165 150.218 52.5498 150.662 53.3232 149.112C53.3232 149.112 56.7532 149.445 56.1998 147.122C56.1998 147.122 60.0698 149.112 61.0665 146.568C62.0632 144.025 61.1765 136.062 61.1765 136.062C61.1765 136.062 59.0765 131.528 54.5398 131.968C50.0032 132.408 39.1665 135.508 39.1665 135.508C39.1665 135.508 37.9898 144.648 39.8298 144.245Z" fill="#F2C8AA"/>
<path d="M119.24 124.225C119.24 124.225 121.12 128.205 121.23 130.638L124.437 130.858C124.437 130.858 124.217 133.621 124.657 135.725C125.097 137.828 127.533 140.481 130.52 139.041C130.52 139.041 134.28 139.151 135.053 138.598C135.053 138.598 137.487 139.371 138.923 138.155C138.923 138.155 146 139.815 145.117 132.181C145.117 132.181 144.12 125.435 142.13 124.218C142.13 124.218 140.47 120.015 136.157 120.125C131.843 120.235 120.673 124.328 119.237 124.218L119.24 124.225Z" fill="#FFFAF0"/>
<path d="M27.013 90.6815L29.8664 83.3781C29.8664 83.3781 34.8897 77.1482 37.5464 76.5482C37.5464 76.5482 31.553 70.6415 22.9897 70.5548C14.4264 70.4682 12.4564 79.3748 12.543 81.0882C12.6297 82.8015 14.403 87.7615 18.643 88.7448C22.883 89.7281 27.013 90.6848 27.013 90.6848V90.6815Z" fill="#0185FF"/>
<path d="M56.4665 76.2914C56.4665 76.2914 60.1498 83.5681 63.9165 85.3681C63.9165 85.3681 70.6798 83.3981 71.3665 76.1214C72.0498 68.8447 66.2298 69.0147 66.2298 69.0147C66.2298 69.0147 62.5465 69.2714 61.2632 71.6681C59.9798 74.0647 57.4965 76.2914 56.4698 76.2914H56.4665Z" fill="#0185FF"/>
<path d="M39.43 51.2879C39.43 51.2879 35.15 46.9213 31.1233 47.0913C27.1 47.2613 25.13 51.0313 24.8733 55.1413C24.6166 59.2513 27.27 69.3546 26.7566 70.7246C26.7566 70.7246 33.0066 73.1213 33.7766 73.808C34.5466 74.4913 41.6533 79.2013 48.3333 78.4313C55.0133 77.6613 58.78 74.6646 58.78 74.6646C58.78 74.6646 57.3233 72.2679 57.0666 66.4446C56.81 60.6213 54.5833 47.2646 48.6766 46.0646C42.77 44.8646 41.3133 49.318 41.3133 49.318L39.43 51.2879Z" fill="#FED607"/>
<path d="M121.93 131.158C121.93 131.158 121.413 124.965 119.24 124.228C119.24 124.228 108.953 125.998 100.697 125.555C92.4398 125.111 78.2832 123.785 74.2998 122.161C70.3198 120.538 66.1898 119.211 66.1898 119.211C66.1898 119.211 36.4032 117.588 29.0298 119.211C21.6565 120.835 0.716517 125.995 2.92985 140.445C4.10985 148.701 20.0365 149.441 24.4598 147.965C28.8832 146.491 43.3732 143.468 43.3732 143.468L42.5998 151.801L43.9265 156.078C43.9265 156.078 67.0798 161.828 73.7132 152.685C73.7132 152.685 70.7632 140.445 70.7632 136.021L121.933 131.155L121.93 131.158ZM27.6998 138.678C22.0965 139.711 15.3132 139.858 14.8698 137.205C14.4265 134.551 17.8198 131.455 25.6332 130.125C33.4498 128.798 37.8732 130.125 37.8732 130.125L39.1632 135.508C39.1632 135.508 33.2998 137.645 27.6965 138.678H27.6998Z" fill="#0185FF"/>
<path d="M73.7098 152.688C73.7098 152.688 70.4665 155.638 66.3365 156.521C62.2065 157.405 50.5565 158.438 43.9232 156.078C43.9232 156.078 47.7565 170.235 50.2632 176.281C52.7698 182.328 69.1398 223.911 103.056 229.515L117.656 218.161C117.656 218.161 125.473 220.815 127.98 220.078C130.486 219.341 131.96 209.901 131.373 207.691C130.783 205.478 128.13 199.285 121.493 198.105C114.856 196.925 98.9298 194.711 84.1832 175.838C77.8432 166.251 73.7132 154.455 73.7132 152.685L73.7098 152.688Z" fill="#0185FF"/>
<path d="M128.42 209.828C128.42 209.828 125.877 204.741 122.89 204.741C119.903 204.741 119.793 208.171 119.903 208.835C120.013 209.498 120.237 216.798 119.793 218.125C119.793 218.125 117.913 218.235 116.587 217.128C115.26 216.021 109.84 210.491 104.42 213.478C99 216.465 99.7733 222.438 99.8867 223.655C100 224.871 101.213 228.965 104.973 230.401C108.733 231.838 113.157 232.725 114.263 233.718C115.37 234.711 117.803 237.035 117.803 237.035C117.803 237.035 121.563 239.985 123.667 240.351C123.667 240.351 121.123 237.035 121.567 232.058L128.423 209.828H128.42Z" fill="#FFF2B2"/>
<path d="M126.207 240.688C126.207 240.688 129.193 239.361 129.193 236.265C129.193 233.168 128.973 230.735 128.973 230.735L126.76 229.185C126.76 229.185 125.433 227.968 126.65 226.971L129.857 226.088C129.857 226.088 131.073 209.498 127.093 209.718C123.113 209.938 124.33 216.245 124.33 216.245C124.33 216.245 123.447 228.188 120.46 227.858C120.46 227.858 118.36 228.301 118.58 229.958C118.8 231.615 121.567 232.058 121.567 232.058C121.567 232.058 120.35 240.795 126.213 240.685L126.207 240.688Z" fill="#FFFAF0"/>
<path d="M128.973 230.731C128.973 230.731 125.25 229.515 126.65 226.971L121.12 227.818C121.12 227.818 118.686 228.851 118.576 229.955C118.466 231.058 121.563 232.055 121.563 232.055L128.973 230.728V230.731Z" fill="#FED607"/>
<path d="M129.967 226.495L133.58 230.625C133.58 230.625 136.973 233.648 139.183 233.868C139.183 233.868 136.97 232.172 137.413 229.075C137.857 225.978 141.763 215.508 141.763 215.508L144.05 202.975C144.05 202.975 142.427 198.698 139.627 198.478C136.823 198.258 136.233 198.625 136.087 199.361C135.94 200.098 135.717 211.675 135.717 211.675C135.717 211.675 134.757 212.191 133.503 211.455C132.25 210.718 129.963 207.178 127.013 206.958C127.013 206.958 130.407 212.488 130.183 219.491L129.963 226.495H129.967Z" fill="#FFF2B2"/>
<path d="M141.93 234.068C141.93 234.068 144.917 232.741 144.917 229.645C144.917 226.548 144.697 224.115 144.697 224.115L142.483 222.565C142.483 222.565 141.157 221.348 142.373 220.351L145.58 219.468C145.58 219.468 146.797 202.878 142.817 203.098C138.837 203.318 140.053 209.625 140.053 209.625C140.053 209.625 139.17 221.568 136.183 221.238C136.183 221.238 134.083 221.681 134.303 223.338C134.523 224.995 137.29 225.438 137.29 225.438C137.29 225.438 136.073 234.175 141.937 234.065L141.93 234.068Z" fill="#FFFAF0"/>
<path d="M144.696 224.115C144.696 224.115 140.973 222.898 142.373 220.355L136.843 221.202C136.843 221.202 134.41 222.235 134.3 223.338C134.19 224.442 137.286 225.438 137.286 225.438L144.696 224.112V224.115Z" fill="#FED607"/>
<path d="M118.687 218.125C118.687 218.125 117.36 218.345 116.143 216.908C114.927 215.471 108.18 209.718 102.54 214.585C96.8999 219.451 99.9966 228.188 104.31 230.068C108.623 231.948 109.84 231.728 109.84 231.728C109.84 231.728 108.403 230.291 109.62 228.851C110.837 227.411 112.273 224.871 112.273 224.871L112.053 223.321C112.053 223.321 114.597 222.548 114.93 221.885C115.263 221.221 117.583 218.125 118.69 218.125H118.687Z" fill="#FFF2B2"/>
<path d="M61.4698 197.958C61.4698 197.958 73.4132 214.328 78.4298 217.865C83.4432 221.405 95.3898 229.958 103.056 229.515C103.056 229.515 96.2732 223.468 101.73 216.242C107.186 209.015 114.336 214.915 116.143 216.905C116.143 216.905 118.393 218.968 119.793 218.122C119.793 218.122 119.94 211.448 119.903 208.832C119.866 206.215 121.783 204.738 122.89 204.738C123.996 204.738 127.24 207.392 127.24 207.392L131.663 209.898C131.663 209.898 132.4 201.198 121.486 198.102C112.63 195.668 107.773 194.562 105.706 193.532C105.706 193.532 106.296 195.595 102.756 195.595C99.2165 195.595 94.4998 193.235 93.6132 192.942C92.7298 192.648 84.9132 188.962 83.1432 189.108C83.1432 189.108 89.6332 196.925 93.3198 198.252C93.3198 198.252 92.7298 200.022 90.9598 200.315C89.1898 200.608 79.8998 197.218 78.2765 196.628C76.6532 196.038 71.6398 193.385 67.2165 193.678C62.7932 193.972 61.4665 197.955 61.4665 197.955L61.4698 197.958Z" fill="#0185FF"/>
<path d="M40.2364 144.282L43.3697 143.472C43.3697 143.472 45.6197 151.215 48.2364 151.215C49.363 151.128 50.1164 150.218 50.1164 150.218C50.1164 150.218 52.1064 151.582 53.323 149.112C53.323 149.112 54.833 149.002 55.423 148.705C56.013 148.412 56.1964 147.118 56.1964 147.118C56.1964 147.118 58.373 148.115 59.6997 147.818C61.0264 147.525 61.913 143.248 61.763 142.068L58.6664 142.658C58.6664 142.658 57.193 140.595 57.4864 138.235L61.173 137.202C61.173 137.202 61.173 130.565 52.473 131.892C43.773 133.218 40.233 135.872 40.233 135.872C40.233 135.872 38.0197 139.705 40.233 144.278L40.2364 144.282Z" fill="#FFFAF0"/>
<path d="M46.0231 86.8447C46.0231 86.8447 46.7965 87.9514 47.6831 89.498C48.5698 91.0447 50.8898 93.1481 50.8898 93.1481C50.8898 93.1481 55.3131 92.3747 55.5365 87.8381C55.7598 83.3014 50.5598 83.1914 50.5598 83.1914C50.5598 83.1914 46.6898 83.3014 46.0265 86.8414L46.0231 86.8447Z" fill="#FFF2B2"/>
<path d="M45.9132 149.885C45.9132 149.885 43.3699 145.462 43.3699 144.465C43.3699 144.465 38.1732 147.118 36.2932 153.201C34.4132 159.285 34.3032 172.115 31.3165 175.875C28.3299 179.635 23.9065 182.178 23.9065 182.178C23.9065 182.178 22.5799 186.712 27.0032 186.382C31.4265 186.048 37.2899 179.635 38.3965 173.442C39.5032 167.248 38.5065 154.088 45.9165 149.885H45.9132Z" fill="#D18000"/>
<path d="M58.6699 142.658C58.6699 142.658 64.4933 141.848 64.8266 141.811C65.1599 141.775 124.66 135.728 124.66 135.728L124.44 130.861L60.2933 137.608L57.4899 138.235C57.4899 138.235 57.9866 140.631 58.6699 142.658Z" fill="#D18000"/>
<path d="M141.25 127.988C141.25 127.988 142.8 130.532 142.686 131.858H200.75C200.75 131.858 201.633 134.402 203.293 134.512C204.953 134.622 205.946 133.628 205.946 133.628C205.946 133.628 206.72 134.182 207.716 134.182C208.713 134.182 209.706 133.408 209.706 133.408C209.706 133.408 210.59 134.292 212.03 134.182C213.466 134.072 214.13 133.298 214.13 133.298C214.13 133.298 215.89 134.588 217.55 134.145C219.21 133.702 219.106 130.642 219.106 130.642C219.106 130.642 219.326 126.882 218.333 125.775C217.336 124.668 216.563 124.558 215.79 123.895C215.016 123.232 212.933 124.128 212.933 124.128C212.933 124.128 211.92 122.128 209.266 124.118C209.266 124.118 205.836 123.012 204.51 124.452C204.51 124.452 202.003 122.952 200.97 124.785L199.936 126.618L141.8 126.998L141.246 127.995L141.25 127.988Z" fill="#D18000"/>
<path d="M41.1564 93.7415C43.6601 93.7415 45.6897 91.7118 45.6897 89.2081C45.6897 86.7044 43.6601 84.6748 41.1564 84.6748C38.6527 84.6748 36.623 86.7044 36.623 89.2081C36.623 91.7118 38.6527 93.7415 41.1564 93.7415Z" fill="#FFF2B2"/>
<path d="M74.0799 148.195L71.4999 147.678C71.4999 147.678 70.0999 148.858 69.0665 148.858C68.0332 148.858 66.6332 148.415 65.3799 148.858C64.1265 149.302 61.3232 150.848 61.3232 150.848L58.2999 151.438L56.9732 153.575C56.9732 153.575 57.0465 155.272 56.8999 156.525C56.7532 157.778 56.4565 158.738 56.8999 160.212C57.3432 161.685 59.9232 163.678 59.9232 163.678L62.3565 165.375C62.3565 165.375 64.4199 164.122 65.5265 164.122C66.6332 164.122 69.5832 164.565 70.8365 163.532C72.0898 162.498 75.8499 161.172 75.8499 161.172L77.0299 158.665C77.0299 158.665 77.8399 153.945 77.6199 153.208C77.3999 152.472 75.0398 149.892 74.8932 149.668C74.7465 149.445 74.0832 148.195 74.0832 148.195H74.0799Z" fill="#FED607"/>
<path d="M37.8031 67.1614C37.8031 67.1614 42.2565 67.248 43.4531 68.5314C44.6531 69.8147 46.2798 73.5847 46.2798 73.5847C46.2798 73.5847 46.3665 68.7047 48.0765 67.5914C49.7898 66.4781 52.6998 64.9381 52.6998 64.9381C52.6998 64.9381 48.0765 64.8514 47.2198 63.6547C46.3631 62.458 44.9931 59.5447 44.5665 58.3447C44.5665 58.3447 44.0531 62.798 43.1098 63.738C42.1665 64.6814 38.6565 67.248 37.7998 67.1614H37.8031Z" fill="#FFF2B2"/>
<path d="M44.2533 102.591C44.2533 102.591 51.6633 102.591 54.3167 101.595C54.3167 101.595 54.2067 99.4947 52.3267 99.3814C50.4467 99.2714 49.45 101.261 49.45 101.261C49.45 101.261 48.2333 99.8247 46.4633 99.9347C44.6933 100.045 44.25 102.365 44.25 102.588L44.2533 102.591Z" fill="#0185FF"/>
<path d="M44.1432 105.135C44.1432 105.135 45.0266 111.218 49.7833 110.885C54.5399 110.551 54.7599 105.798 54.7599 105.798L54.3166 102.481C54.3166 102.481 52.3266 106.905 49.7833 107.015C47.2399 107.125 44.9166 105.465 44.5866 104.028L44.1432 105.135Z" fill="#0185FF"/>
<path d="M44.2532 102.591C44.2532 102.591 51.9966 102.811 54.3166 101.595C54.3166 101.595 53.5432 107.015 49.7832 107.015C46.0232 107.015 44.6966 106.018 44.2532 102.591Z" fill="#FFF2B2"/>
<path d="M41.5632 116.491L51.8865 132.121H56.4565L57.9299 114.721C57.9299 114.721 54.9832 117.935 51.8832 117.818C48.7832 117.701 42.4465 116.935 41.5599 116.491H41.5632Z" fill="#FFED8F"/>
<path d="M57.0466 125.632C57.0466 125.632 59.8499 124.895 61.6166 124.895C63.3833 124.895 66.6299 125.485 66.6299 125.485L61.2833 107.968C61.2833 107.968 59.6966 113.392 57.1899 115.162L57.0433 125.632H57.0466Z" fill="#E4BC07"/>
<path d="M37.1399 127.108L47.9033 126.075L41.5633 116.488C41.5633 116.488 36.6966 114.572 35.5166 113.392L37.1399 127.105V127.108Z" fill="#E4BC07"/>
<path d="M121.563 130.941C121.563 130.941 121.046 127.918 120.603 127.035C120.16 126.151 118.906 123.865 118.906 123.865L115.22 121.948C115.22 121.948 110.926 120.675 110.573 120.841C110.22 121.008 112.636 124.078 112.636 124.528C112.636 124.978 114.036 131.681 114.036 131.681L121.556 130.945L121.563 130.941Z" fill="#FFFAF0"/>
<path d="M40.31 135.292L34.6333 133.965C34.6333 133.965 32.3467 135.662 32.1267 139.568C31.9067 143.475 34.4133 149.005 34.4133 149.005L40.0167 145.245C40.0167 145.245 38.0267 138.018 40.31 135.292Z" fill="#FFFAF0"/>
<path d="M112.64 124.528C112.64 124.528 110.833 120.178 109.063 120.842C107.293 121.505 107.847 125.265 107.847 125.265C107.847 125.265 110.797 125.448 112.64 124.528Z" fill="#002140"/>
<path d="M34.8433 77.7382C34.8433 77.7382 31.0833 81.3882 29.2033 84.1515C27.3233 86.9149 26.3267 91.5615 26.3267 91.5615L18.4733 104.722C18.4733 104.722 21.79 107.928 22.6767 108.815C23.56 109.698 28.2067 112.575 30.3067 112.795C32.4067 113.015 34.9533 113.128 34.9533 113.128C34.9533 113.128 30.75 108.262 30.42 105.718C30.09 103.175 29.8667 102.178 29.8667 102.178C29.8667 102.178 31.0833 103.175 32.63 103.062C34.18 102.952 36.1567 102.502 36.39 100.848C36.6233 99.1949 36.5 98.1948 36.5 98.1948C36.5 98.1948 35.55 96.6082 34.95 96.0948C34.35 95.5815 34.6167 98.3082 34.6167 98.3082C34.6167 98.3082 34.1733 99.3048 32.8467 99.0815C31.52 98.8582 30.5233 98.1982 30.8567 96.5382C31.19 94.8782 33.7333 88.5748 33.7333 88.5748C33.7333 88.5748 35.3933 80.1682 34.84 77.7349L34.8433 77.7382Z" fill="#E4BC07"/>
<path d="M57.7366 77.4048C57.7366 77.4048 62.27 93.8848 62.27 97.8648C62.27 101.845 61.7166 108.705 61.7166 108.705C61.7166 108.705 68.6833 105.941 71.45 100.851C74.2133 95.7648 74.1033 93.6615 74.1033 93.6615C74.1033 93.6615 66.03 88.2415 63.3766 84.8148C60.7233 81.3882 57.7366 77.4048 57.7366 77.4048Z" fill="#E4BC07"/>
<path d="M57.183 120.871L45.793 123.085L51.8863 132.121H56.4563L57.183 120.871Z" fill="#F2C8AA"/>
<path d="M45.7933 123.085L36.8333 122.642L37.14 127.108L48.4466 126.622L45.7933 123.085Z" fill="#0185FF"/>
<path d="M57.1832 120.871L57.0466 125.631C57.0466 125.631 63.9132 124.568 66.6332 125.485L63.9332 117.001L57.1866 120.871H57.1832Z" fill="#0185FF"/>
<path d="M31.6365 117.995C31.6365 117.995 31.3031 125.295 50.8798 122.198C67.2098 119.548 65.9198 112.355 65.9198 112.355C65.9198 112.355 55.4131 118.438 51.0998 118.658C46.7865 118.878 36.3898 120.208 31.6331 117.995H31.6365Z" fill="#FFFAF0"/>
<path d="M202.487 126.845L148.207 127.041H141.803" stroke="#002140" stroke-linecap="round" stroke-linejoin="round"/>
<path d="M203.097 131.715L148.207 131.915H142.687" stroke="#002140" stroke-linecap="round" stroke-linejoin="round"/>
<path d="M218.71 125.701C218.71 125.701 223.94 126.551 230.093 122.018" stroke="#002140" stroke-linecap="round" stroke-linejoin="round"/>
<path d="M224.757 126.955C232.277 127.102 249.383 133.738 269.143 133.738C288.903 133.738 290.82 129.168 290.82 129.168" stroke="#002140" stroke-linecap="round" stroke-linejoin="round"/>
<path d="M219.467 130.645C235.193 131.448 251.667 137.938 266.173 138.161C275.167 138.298 284.043 138.611 292.18 134.115C294.187 133.005 296.62 130.795 294.787 128.445C293.463 126.748 290.783 125.245 286.85 125.308" stroke="#002140" stroke-linecap="round" stroke-linejoin="round"/>
<path d="M202.487 126.845C203.15 126.881 204.623 128.658 203.093 131.715" stroke="#002140" stroke-linecap="round" stroke-linejoin="round"/>
<path d="M200.127 126.721C200.477 125.205 201.337 124.091 202.503 123.881C204.367 123.545 206.31 125.638 206.84 128.561C207.37 131.485 206.29 134.128 204.423 134.465C203.037 134.715 201.61 133.621 200.75 131.845" stroke="#002140" stroke-linecap="round" stroke-linejoin="round"/>
<path d="M204.993 124.592C205.397 124.098 205.903 123.768 206.487 123.662C208.35 123.325 210.293 125.418 210.823 128.342C211.353 131.265 210.273 133.908 208.407 134.245C207.713 134.372 207.01 134.162 206.373 133.695" stroke="#002140" stroke-linecap="round" stroke-linejoin="round"/>
<path d="M209.14 124.425C209.543 123.931 210.05 123.601 210.633 123.495C212.497 123.158 214.44 125.251 214.97 128.175C215.5 131.098 214.42 133.741 212.553 134.078C211.86 134.205 211.157 133.995 210.52 133.528" stroke="#002140" stroke-linecap="round" stroke-linejoin="round"/>
<path d="M213.287 124.482C213.69 123.988 214.197 123.658 214.78 123.552C216.643 123.215 218.587 125.308 219.117 128.232C219.647 131.155 218.567 133.798 216.7 134.135C216.007 134.262 215.303 134.052 214.667 133.585" stroke="#002140" stroke-linecap="round" stroke-linejoin="round"/>
<path d="M153.987 127.065C153.987 127.065 151.804 128.472 152.387 131.712" stroke="#002140" stroke-linecap="round" stroke-linejoin="round"/>
<path d="M166.703 127.065C166.703 127.065 164.52 128.472 165.103 131.712" stroke="#002140" stroke-linecap="round" stroke-linejoin="round"/>
<path d="M179.423 127.065C179.423 127.065 177.24 128.472 177.823 131.712" stroke="#002140" stroke-linecap="round" stroke-linejoin="round"/>
<path d="M192.143 127.065C192.143 127.065 189.96 128.472 190.543 131.712" stroke="#002140" stroke-linecap="round" stroke-linejoin="round"/>
<path d="M224.497 130.971C224.053 128.538 221.953 127.875 220.737 125.885" stroke="#002140" stroke-linecap="round" stroke-linejoin="round"/>
<path d="M235.883 132.811C235.453 130.611 233.417 130.011 232.24 128.208" stroke="#002140" stroke-linecap="round" stroke-linejoin="round"/>
<path d="M247.497 135.465C247.067 133.265 245.03 132.665 243.853 130.861" stroke="#002140" stroke-linecap="round" stroke-linejoin="round"/>
<path d="M260.327 137.565C259.897 135.365 257.86 134.765 256.683 132.961" stroke="#002140" stroke-linecap="round" stroke-linejoin="round"/>
<path d="M273.71 137.915C273.12 136.052 271.273 135.415 270.173 133.735" stroke="#002140" stroke-linecap="round" stroke-linejoin="round"/>
<path d="M285.343 136.642C284.61 135.148 283.003 134.485 282.006 132.965" stroke="#002140" stroke-linecap="round" stroke-linejoin="round"/>
<path d="M294.063 132.852C294.063 132.852 292.073 130.638 289.197 130.752" stroke="#002140" stroke-linecap="round" stroke-linejoin="round"/>
<path d="M203.083 131.798C202.99 132.098 202.87 132.388 202.72 132.665" stroke="#002140" stroke-linecap="round" stroke-linejoin="round"/>
<path d="M228.88 127.238C237.69 89.3049 246.47 51.6183 248.077 44.7216L248.247 44.0649" stroke="#002140" stroke-linecap="round" stroke-linejoin="round"/>
<path d="M335.893 230.955H218.033C205.203 230.955 208.77 215.508 209.193 212.648C209.397 211.272 218.487 172.002 227.853 131.662" stroke="#002140" stroke-linecap="round" stroke-linejoin="round"/>
<path d="M284.03 137.388C278.214 162.078 267.747 205.748 266.684 211.358C263.564 226.162 269.867 230.955 274.624 230.955C293.204 230.955 284.467 167.765 306.144 167.765C323.397 167.765 316.024 231.028 336.227 231.028C350.827 231.028 355.694 183.028 372.284 183.028C391.527 183.028 364.69 229.702 380.617 229.702C386.074 229.555 391.824 218.052 399.344 201.388C399.344 201.388 392.56 203.378 386.44 210.088C386.17 209.122 384.67 199.838 384.67 199.838L377.354 208.065" stroke="#002140" stroke-linecap="round" stroke-linejoin="round"/>
<path d="M309.903 0.538141H241.773C241.773 0.538141 226.953 0.318136 215.01 46.9881C215.01 46.9881 225.037 41.0882 229.313 35.6348C230 37.5715 234.327 49.7915 234.327 49.7915L245.387 36.3715L250.843 50.7481L259.987 36.2215L265.887 50.5248L275.397 36.5882C275.397 36.5882 280.707 50.5248 284.467 51.1882C293.977 10.9315 303.71 1.19814 309.903 0.534805C312.93 0.211471 315.15 2.08482 313.83 7.84149C312.51 13.5982 291.33 105.905 286.483 126.888C286.133 128.408 285.723 130.165 285.267 132.111" stroke="#002140" stroke-linecap="round" stroke-linejoin="round"/>
<path d="M372.28 183.028H317.203" stroke="#002140" stroke-linecap="round" stroke-linejoin="round"/>
<path d="M306.143 167.765H276.833" stroke="#002140" stroke-linecap="round" stroke-linejoin="round"/>
<path d="M380.133 229.701H340.54" stroke="#002140" stroke-linecap="round" stroke-linejoin="round"/>
<path d="M286.243 128.602C285.907 130.072 285.72 131.785 285.72 131.785C285.72 131.785 289.113 130.822 289.777 130.122C290.44 129.422 288.463 128.132 286.243 128.602V128.602Z" stroke="#002140" stroke-linecap="round" stroke-linejoin="round"/>
<path d="M252.723 61.3683L251.95 65.3516H287.563L288.113 61.2583L252.723 61.3683Z" fill="#002140"/>
<path d="M250.843 69.4416L250.07 73.4249H285.68L286.233 69.3315L250.843 69.4416Z" fill="#002140"/>
<path d="M248.854 78.6215L248.077 82.6048H283.69L284.244 78.5115L248.854 78.6215Z" fill="#002140"/>
<path d="M244.427 101.075L243.653 105.055H279.267L279.82 100.965L244.427 101.075Z" fill="#002140"/>
<path d="M242.217 113.018L241.443 117.002H277.053L277.607 112.908L242.217 113.018Z" fill="#002140"/>
<path d="M233.37 148.631L232.593 152.615H268.207L268.76 148.521L233.37 148.631Z" fill="#002140"/>
<path d="M231.487 156.595L230.713 160.575H266.327L266.88 156.485L231.487 156.595Z" fill="#002140"/>
<path d="M229.387 165.885L228.613 169.868H264.227L264.78 165.775L229.387 165.885Z" fill="#002140"/>
<path d="M221.977 194.642L221.203 198.622H256.817L257.37 194.531L221.977 194.642Z" fill="#002140"/>
<path d="M220.097 202.605L219.323 206.585H254.937L255.487 202.495L220.097 202.605Z" fill="#002140"/>
<path d="M217.997 211.895L217.22 215.875H252.833L253.387 211.785L217.997 211.895Z" fill="#002140"/>
<path d="M291.877 186.898H307.913L308.797 190.548H291.21" fill="#002140"/>
<path d="M289.993 195.305H309.57L310.567 198.845H289.443" fill="#002140"/>
<path d="M287.564 209.571H312.227L313.11 213.555H286.897" fill="#002140"/>
<path d="M357.83 197.701H373.167L374.493 193.792H359.82" fill="#002140"/>
<path d="M356.06 201.018H358.42H373.09L371.763 204.925H356.427H354.51" fill="#002140"/>
<path d="M353.036 208.245H353.846H356.206H370.88L369.553 212.152H354.216H352.3H351.563" fill="#002140"/>
<path d="M26.7 90.2215C19.7333 90.8482 12.57 86.5382 12.57 81.0582C12.57 75.5782 17.0233 70.4415 24.2133 70.6682C33.69 71.0115 36.94 79.6549 48.7867 78.3582C63.1433 76.8315 59.0333 68.9548 66.1133 68.9548C74.29 68.9548 72.3 82.7348 64.19 85.2415" stroke="#002140" stroke-linecap="round" stroke-linejoin="round"/>
<path d="M58.7132 74.7147C57.2965 71.8814 57.0499 68.628 56.8899 65.5147C56.5699 59.2647 55.1699 45.068 46.0799 45.8314C42.2632 46.1514 41.6965 49.2814 39.2832 51.4914" stroke="#002140" stroke-linecap="round" stroke-linejoin="round"/>
<path d="M44.3101 52.7449C41.8201 53.0649 39.8834 52.2115 38.1367 50.4949C36.0501 48.4449 34.0701 46.6782 30.9501 47.0349C20.1034 48.2915 26.9534 65.8715 26.9534 70.8949" stroke="#002140" stroke-linecap="round" stroke-linejoin="round"/>
<path d="M26.6999 90.2214C27.9632 92.7681 29.0666 99.5947 29.0666 99.5947C29.4699 102.328 30.8732 103.148 32.8366 103.148C34.9299 103.148 36.6266 101.381 36.6266 99.2014C36.6266 97.5847 35.6899 96.1947 34.3532 95.5847C34.6666 96.0181 34.8532 96.5547 34.8532 97.1414C34.8532 100.011 31.1832 99.9514 31.0099 97.2981C30.8666 95.0814 31.9599 92.7047 32.6599 90.6514C34.0132 86.6914 35.7132 82.1481 34.6299 77.9214" stroke="#002140" stroke-linecap="round" stroke-linejoin="round"/>
<path d="M37.9166 76.6049C37.9166 76.6049 31.6966 76.2349 26.6999 90.2216" stroke="#002140" stroke-linecap="round" stroke-linejoin="round"/>
<path d="M29.3232 100.778C29.3232 100.778 30.5032 118.555 50.5566 117.668" stroke="#002140" stroke-linecap="round" stroke-linejoin="round"/>
<path d="M57.0733 76.0781C57.0733 76.0781 72.0866 116.125 50.5566 117.668" stroke="#002140" stroke-linecap="round" stroke-linejoin="round"/>
<path d="M45.0099 86.2449C47.5332 89.7982 52.1599 92.3749 51.7165 95.4716C51.2732 98.5682 44.5832 97.7949 44.0299 95.6916C43.6965 94.1982 45.7432 94.3082 46.4632 94.7515" stroke="#002140" stroke-linecap="round" stroke-linejoin="round"/>
<path d="M45.9968 87.0582C46.4468 84.8549 48.4001 83.1948 50.7368 83.1948C53.4101 83.1948 55.5768 85.3615 55.5768 88.0348C55.5768 90.7082 53.5634 92.7148 51.0268 92.8648" stroke="#002140" stroke-linecap="round" stroke-linejoin="round"/>
<path d="M52.0233 88.0881L53.6867 86.7714C53.19 85.7347 52.1333 85.0181 50.9067 85.0181C49.2033 85.0181 47.82 86.3981 47.82 88.1047C47.82 89.8114 49.2 91.1914 50.9067 91.1914C52.2633 91.1914 53.4133 90.3147 53.8267 89.0947L52.0233 88.0881Z" fill="#002140"/>
<path d="M42.6601 89.048L44.3234 87.7314C43.8267 86.6947 42.7701 85.978 41.5434 85.978C39.8401 85.978 38.4567 87.358 38.4567 89.0647C38.4567 90.7714 39.8367 92.1514 41.5434 92.1514C42.9001 92.1514 44.0501 91.2747 44.4634 90.0547L42.6601 89.048Z" fill="#002140"/>
<path d="M42.41 81.4616C42.41 81.4616 37.84 79.9516 36.18 84.3016" stroke="#002140" stroke-linecap="round" stroke-linejoin="round"/>
<path d="M47.1299 80.6882C47.1299 80.6882 50.8165 78.2182 53.2499 81.0215" stroke="#002140" stroke-linecap="round" stroke-linejoin="round"/>
<path d="M43.6266 144.281C27.63 154.315 41.4633 173.815 24.03 181.988" stroke="#002140" stroke-linecap="round" stroke-linejoin="round"/>
<path d="M45.77 149.895C33.4767 160.461 45.3967 178.641 27.8467 186.161" stroke="#002140" stroke-linecap="round" stroke-linejoin="round"/>
<path d="M24.0501 182.031C23.1301 182.678 23.6068 187.765 27.8468 186.161" stroke="#002140" stroke-linecap="round" stroke-linejoin="round"/>
<path d="M57.2399 138.135C57.7066 137.995 58.7966 137.621 60.4566 137.441C71.3533 136.278 113.303 131.821 124.437 130.861" stroke="#002140" stroke-linecap="round" stroke-linejoin="round"/>
<path d="M58.4866 142.891C58.91 142.361 60.8033 142.248 62.67 142.051C73.5066 140.895 111.337 136.878 124.493 135.671" stroke="#002140" stroke-linecap="round" stroke-linejoin="round"/>
<path d="M31.6633 118.835C19.76 120.508 -0.409996 128.208 3.07334 140.595C6.40667 150.985 21.9233 148.865 32.7333 146.318" stroke="#002140" stroke-linecap="round" stroke-linejoin="round"/>
<path d="M38.3932 130.088C38.3932 130.088 38.7332 132.745 38.9866 134.688" stroke="#002140" stroke-linecap="round" stroke-linejoin="round"/>
<path d="M40.6367 135.265C45.3501 133.931 50.5334 131.968 55.4234 131.968C55.4234 131.968 61.1734 131.691 61.2301 137.221" stroke="#002140" stroke-linecap="round" stroke-linejoin="round"/>
<path d="M38.4068 130.065C35.5168 128.761 29.6034 129.488 26.7234 129.951C24.2101 130.355 21.6634 130.948 19.3534 132.035C17.4434 132.935 14.2334 135.005 14.8868 137.575C15.0668 138.278 15.6501 138.828 16.3101 139.128C16.9701 139.428 17.7101 139.508 18.4368 139.545C23.0734 139.785 27.8668 138.768 32.5268 137.525" stroke="#002140" stroke-linecap="round" stroke-linejoin="round"/>
<path d="M40.4133 135.468C40.4133 135.468 37.4166 139.088 40.2999 145.595" stroke="#002140" stroke-linecap="round" stroke-linejoin="round"/>
<path d="M43.11 141.555C43.11 141.555 44.0867 149.335 47.5167 151.085C49.73 152.155 50.2634 149.888 50.2634 149.888" stroke="#002140" stroke-linecap="round" stroke-linejoin="round"/>
<path d="M47.0732 143.415C47.2932 145.628 49.1699 149.675 51.1899 150.168C53.2099 150.661 53.3766 148.725 53.3766 148.725" stroke="#002140" stroke-linecap="round" stroke-linejoin="round"/>
<path d="M50.1165 142.145C50.3365 144.358 52.2132 148.405 54.2332 148.898C56.2532 149.391 56.4198 147.455 56.4198 147.455" stroke="#002140" stroke-linecap="round" stroke-linejoin="round"/>
<path d="M53.5999 141.148C53.8199 143.362 55.6966 147.408 57.7166 147.902C59.7366 148.395 61.7532 147.442 61.5999 142.168" stroke="#002140" stroke-linecap="round" stroke-linejoin="round"/>
<path d="M56.9734 135.451C56.9734 135.451 56.6967 139.821 59.3501 144.688" stroke="#002140" stroke-linecap="round" stroke-linejoin="round"/>
<path d="M55.5732 87.2847C55.5732 87.2847 57.1766 88.1181 58.4499 86.5481" stroke="#002140" stroke-linecap="round" stroke-linejoin="round"/>
<path d="M56.8999 83.6748C56.8999 83.6748 56.0166 85.5181 54.3932 84.7815" stroke="#002140" stroke-linecap="round" stroke-linejoin="round"/>
<path d="M36.1068 88.9816C36.1068 88.9816 34.5035 89.8149 33.2302 88.2449" stroke="#002140" stroke-linecap="round" stroke-linejoin="round"/>
<path d="M34.78 85.3682C34.78 85.3682 35.6633 87.2115 37.2866 86.4749" stroke="#002140" stroke-linecap="round" stroke-linejoin="round"/>
<path d="M70.4267 136.261C70.2067 134.375 70.02 132.428 69.8734 130.421" stroke="#002140" stroke-linecap="round" stroke-linejoin="round"/>
<path d="M72.3065 147.538C72.3065 147.538 71.4898 143.611 71.1165 141.271" stroke="#002140" stroke-linecap="round" stroke-linejoin="round"/>
<path d="M131.687 210.052C131.693 203.515 126.12 198.948 119.867 197.812C114.663 196.865 88.5134 192.982 76.0667 160.315" stroke="#002140" stroke-linecap="round" stroke-linejoin="round"/>
<path d="M43.0368 152.981C43.0368 152.981 55.8668 215.948 98.7801 228.778C99.4035 228.938 101.623 229.425 103.83 229.475" stroke="#002140" stroke-linecap="round" stroke-linejoin="round"/>
<path d="M62.1768 142.102C62.1768 142.102 63.4834 145.122 64.9301 148.682" stroke="#002140" stroke-linecap="round" stroke-linejoin="round"/>
<path d="M44.0032 155.832C44.0032 155.832 49.3732 157.762 56.4566 157.795" stroke="#002140" stroke-linecap="round" stroke-linejoin="round"/>
<path d="M73.6732 175.655C89.3798 204.188 103.093 200.098 111.83 205.848C116.73 209.368 117.283 214.765 117.16 217.751" stroke="#002140" stroke-linecap="round" stroke-linejoin="round"/>
<path d="M64.8665 164.542L68.0298 173.028C68.1732 173.415 68.4432 173.745 68.7965 173.965L71.2732 175.498C71.8732 175.868 72.6298 175.868 73.2332 175.498C73.9865 175.035 75.1465 174.092 78.0565 174.018" stroke="#002140" stroke-linecap="round" stroke-linejoin="round"/>
<path d="M75.8466 174.068C74.3066 170.112 72.8366 166.491 71.6266 163.195" stroke="#002140" stroke-linecap="round" stroke-linejoin="round"/>
<path d="M93.3766 198.218C91.7632 204.888 77.9832 194.895 71.1832 193.848C64.3832 192.801 61.7732 196.858 61.7266 198.441" stroke="#002140" stroke-linecap="round" stroke-linejoin="round"/>
<path d="M105.433 193.462C103.82 200.132 90.0399 190.138 83.2399 189.092C83.2399 189.092 82.8533 188.965 82.6699 189.002" stroke="#002140" stroke-linecap="round" stroke-linejoin="round"/>
<path d="M129.747 226.125C129.747 226.125 122.483 227.755 121.49 227.895C125.987 221.702 122.273 210.438 126.947 209.608C131.62 208.778 129.75 226.125 129.75 226.125H129.747Z" stroke="#002140" stroke-linecap="round" stroke-linejoin="round"/>
<path d="M121.783 236.375V232.318L129.303 230.845V235.491C129.303 238.515 128.27 240.578 125.763 240.728C123.257 240.875 121.783 238.738 121.783 236.378V236.375Z" stroke="#002140" stroke-linecap="round" stroke-linejoin="round"/>
<path d="M121.49 227.895C121.49 227.895 118.57 227.985 118.57 229.818C118.57 231.651 120.163 231.065 121.787 232.318" stroke="#002140" stroke-linecap="round" stroke-linejoin="round"/>
<path d="M126.613 226.835C126.317 227.135 126.117 227.535 126.117 228.065C126.117 230.091 127.71 229.441 129.333 230.825" stroke="#002140" stroke-linecap="round" stroke-linejoin="round"/>
<path d="M125.767 240.725C121.237 240.651 119.85 238.798 117.61 236.501" stroke="#002140" stroke-linecap="round" stroke-linejoin="round"/>
<path d="M129.46 211.922C129.207 210.635 126.947 204.668 122.447 204.818C116.917 205.038 123.183 215.878 117.653 222.955" stroke="#002140" stroke-linecap="round" stroke-linejoin="round"/>
<path d="M109.61 212.951C116.973 214.698 115.657 218.738 119.513 218.091" stroke="#002140" stroke-linecap="round" stroke-linejoin="round"/>
<path d="M120.013 217.295C120.013 217.295 119.913 220.748 123.65 222.148" stroke="#002140" stroke-linecap="round" stroke-linejoin="round"/>
<path d="M145.453 219.488C145.453 219.488 138.19 221.118 137.197 221.258C141.693 215.065 137.98 203.801 142.653 202.971C147.327 202.141 145.457 219.488 145.457 219.488H145.453Z" stroke="#002140" stroke-linecap="round" stroke-linejoin="round"/>
<path d="M135.72 210.658C135.72 210.658 135.62 214.112 139.357 215.512" stroke="#002140" stroke-linecap="round" stroke-linejoin="round"/>
<path d="M137.413 229.738V225.681L144.933 224.208V228.855C144.933 231.878 143.9 233.941 141.393 234.091C138.887 234.238 137.413 232.101 137.413 229.741V229.738Z" stroke="#002140" stroke-linecap="round" stroke-linejoin="round"/>
<path d="M137.12 221.258C137.12 221.258 134.2 221.348 134.2 223.182C134.2 225.015 135.793 224.428 137.417 225.682" stroke="#002140" stroke-linecap="round" stroke-linejoin="round"/>
<path d="M142.247 220.198C141.95 220.498 141.75 220.898 141.75 221.428C141.75 223.455 143.343 222.805 144.967 224.188" stroke="#002140" stroke-linecap="round" stroke-linejoin="round"/>
<path d="M141.397 234.088C134.65 233.978 134.873 229.925 128.883 226.335" stroke="#002140" stroke-linecap="round" stroke-linejoin="round"/>
<path d="M145.09 205.285C144.837 203.998 142.577 198.031 138.077 198.181C132.547 198.401 138.813 209.242 133.283 216.318" stroke="#002140" stroke-linecap="round" stroke-linejoin="round"/>
<path d="M127.037 206.901C132.223 208.821 131.503 212.038 134.973 211.458" stroke="#002140" stroke-linecap="round" stroke-linejoin="round"/>
<path d="M119.43 218.578C118.097 218.392 109.85 220.112 111.11 232.705" stroke="#002140" stroke-linecap="round" stroke-linejoin="round"/>
<path d="M134.62 212.238C133.287 212.051 131.873 212.658 131.097 213.758C130.72 214.291 130.483 214.921 130.097 215.441" stroke="#002140" stroke-linecap="round" stroke-linejoin="round"/>
<path d="M115.807 234.908C116.537 235.445 117.233 236.068 117.897 236.798" stroke="#002140" stroke-linecap="round" stroke-linejoin="round"/>
<path d="M109.61 212.952C102.927 211.712 99.6634 216.981 99.6634 222.031C99.9867 231.801 113.603 232.262 115.807 234.908" stroke="#002140" stroke-linecap="round" stroke-linejoin="round"/>
<path d="M119.113 123.852C126.927 122.268 133.527 120.245 137.12 120.245C143.02 120.245 142.723 127.765 139.773 130.715C136.823 133.665 133.397 133.848 132.51 131.968C131.627 130.088 134.277 126.738 137.93 125.112" stroke="#002140" stroke-linecap="round" stroke-linejoin="round"/>
<path d="M64.3734 118.412C64.3734 118.412 79.3134 125.702 103.057 125.702C106.29 125.702 109.52 125.418 112.643 124.978" stroke="#002140" stroke-linecap="round" stroke-linejoin="round"/>
<path d="M136.437 122.898C136.437 122.898 134.613 124.611 134.943 126.825" stroke="#002140" stroke-linecap="round" stroke-linejoin="round"/>
<path d="M128.863 129.645C128.863 129.645 128.647 128.682 127.29 128.638C125.933 128.595 124.44 129.478 124.44 134.015C124.44 138.552 128.257 140.542 130.853 138.992" stroke="#002140" stroke-linecap="round" stroke-linejoin="round"/>
<path d="M132.843 129.315C132.843 129.315 132.627 128.351 131.27 128.308C129.913 128.265 128.42 129.148 128.42 133.685C128.42 138.221 132.237 140.211 134.833 138.661" stroke="#002140" stroke-linecap="round" stroke-linejoin="round"/>
<path d="M132.597 132.355C132.577 132.682 132.567 133.032 132.567 133.408C132.567 137.942 136.383 139.935 138.98 138.385" stroke="#002140" stroke-linecap="round" stroke-linejoin="round"/>
<path d="M136.88 132.855C136.88 132.928 136.88 133.001 136.88 133.075C136.88 137.608 140.697 139.601 143.293 138.051C143.293 138.051 145.893 136.668 145.34 132.135" stroke="#002140" stroke-linecap="round" stroke-linejoin="round"/>
<path d="M142.797 134.181C142.67 130.685 142.133 129.085 141.443 128.345" stroke="#002140" stroke-linecap="round" stroke-linejoin="round"/>
<path d="M141.58 123.398C141.58 123.398 143.57 125.002 144.07 126.772" stroke="#002140" stroke-linecap="round" stroke-linejoin="round"/>
<path d="M119.13 123.931C119.13 123.931 121.49 127.175 121.343 131.008" stroke="#002140" stroke-linecap="round" stroke-linejoin="round"/>
<path d="M110.227 121.005C111.553 122.112 114.373 126.992 114.08 131.708" stroke="#002140" stroke-linecap="round" stroke-linejoin="round"/>
<path d="M93.1768 134.105C93.1768 134.105 90.9634 135.578 91.5534 138.972" stroke="#002140" stroke-linecap="round" stroke-linejoin="round"/>
<path d="M80.4932 135.435C80.4932 135.435 78.2798 136.908 78.8698 140.301" stroke="#002140" stroke-linecap="round" stroke-linejoin="round"/>
<path d="M66.78 136.908C66.78 136.908 64.5666 138.382 65.1566 141.775" stroke="#002140" stroke-linecap="round" stroke-linejoin="round"/>
<path d="M105.12 132.778C105.12 132.778 102.907 134.251 103.497 137.645" stroke="#002140" stroke-linecap="round" stroke-linejoin="round"/>
<path d="M119.867 131.305C119.867 131.305 117.653 132.778 118.243 136.171" stroke="#002140" stroke-linecap="round" stroke-linejoin="round"/>
<path d="M38.5566 148.945C39.0366 151.041 42.04 152.322 42.4 153.718" stroke="#002140" stroke-linecap="round" stroke-linejoin="round"/>
<path d="M34.9802 159.201C36.1935 160.868 38.8202 161.641 39.3268 164.031" stroke="#002140" stroke-linecap="round" stroke-linejoin="round"/>
<path d="M33.5768 169.615C34.0968 172.041 37.3368 173.521 37.7235 175.141" stroke="#002140" stroke-linecap="round" stroke-linejoin="round"/>
<path d="M29.7667 178.008C29.01 180.215 31 183.072 30.5334 184.562" stroke="#002140" stroke-linecap="round" stroke-linejoin="round"/>
<path d="M83.8366 123.988L83.3499 124.048" stroke="#002140" stroke-linecap="round" stroke-linejoin="round"/>
<path d="M41.2833 94.0515C43.9305 94.0515 46.0766 91.9055 46.0766 89.2582C46.0766 86.6109 43.9305 84.4648 41.2833 84.4648C38.636 84.4648 36.4899 86.6109 36.4899 89.2582C36.4899 91.9055 38.636 94.0515 41.2833 94.0515Z" stroke="#002140" stroke-linecap="round" stroke-linejoin="round"/>
<path d="M54.6701 102.985C54.6701 102.985 54.5034 99.1216 51.6468 99.2049C49.8834 99.3716 49.2101 101.808 49.2101 101.808C49.2101 101.808 48.2868 99.7083 46.1868 99.7916C44.0868 99.8749 43.6667 103.068 43.9201 104.748C44.1734 106.428 45.0134 111.215 50.3034 110.882C55.5968 110.545 54.6701 102.985 54.6701 102.985Z" stroke="#002140" stroke-linecap="round" stroke-linejoin="round"/>
<path d="M44.2565 102.818C44.2565 102.818 51.1432 102.818 53.9999 101.475" stroke="#002140" stroke-linecap="round" stroke-linejoin="round"/>
<path d="M44.2565 102.818C44.2565 102.818 44.8432 107.775 49.6332 107.102C52.6565 106.598 53.9165 104.078 53.9999 101.475" stroke="#002140" stroke-linecap="round" stroke-linejoin="round"/>
<path d="M47.7832 102.731L48.2032 106.931" stroke="#002140" stroke-linecap="round" stroke-linejoin="round"/>
<path d="M51.2266 102.398L51.5532 106.352" stroke="#002140" stroke-linecap="round" stroke-linejoin="round"/>
<path d="M54.3101 64.8448C47.2501 66.7381 46.5568 67.6314 46.4935 74.9414C44.6001 67.8814 43.7068 67.1881 36.3968 67.1248C43.4568 65.2314 44.1501 64.3381 44.2135 57.0281C46.1068 64.0881 47.0001 64.7814 54.3101 64.8448Z" stroke="#002140" stroke-linecap="round" stroke-linejoin="round"/>
<path d="M40.6032 135.145C40.6032 135.145 36.0332 134.555 34.7799 133.892C34.7799 133.892 28.7332 140.822 34.7066 149.302C34.7066 149.302 39.2032 145.455 43.6266 144.282" stroke="#002140" stroke-linecap="round" stroke-linejoin="round"/>
<path d="M109.397 120.761C114.817 120.508 117.23 124.221 119.13 123.931" stroke="#002140" stroke-linecap="round" stroke-linejoin="round"/>
<path d="M110.227 121.005C109.23 120.342 107.15 120.768 107.86 125.505" stroke="#002140" stroke-linecap="round" stroke-linejoin="round"/>
<path d="M45.9333 123.211L51.9233 132.005" stroke="#002140" stroke-linecap="round" stroke-linejoin="round"/>
<path d="M41.3766 116.528L43.2833 119.325" stroke="#002140" stroke-linecap="round" stroke-linejoin="round"/>
<path d="M57.26 120.948L56.53 132.078" stroke="#002140" stroke-linecap="round" stroke-linejoin="round"/>
<path d="M57.3399 115.275L57.2666 116.435" stroke="#002140" stroke-linecap="round" stroke-linejoin="round"/>
<path d="M36.7233 122.788L37.2867 127.145L47.9033 126.371" stroke="#002140" stroke-linecap="round" stroke-linejoin="round"/>
<path d="M35.47 113.122L36.2167 118.898" stroke="#002140" stroke-linecap="round" stroke-linejoin="round"/>
<path d="M62.9601 113.841L61.3968 108.785" stroke="#002140" stroke-linecap="round" stroke-linejoin="round"/>
<path d="M56.9733 125.485C56.9733 125.485 62.8367 124.268 66.5967 125.595L64.0433 117.342" stroke="#002140" stroke-linecap="round" stroke-linejoin="round"/>
<path d="M42.31 119.361C65.401 119.361 84.12 100.643 84.12 77.5515C84.12 54.4604 65.401 35.7415 42.31 35.7415C19.219 35.7415 0.5 54.4604 0.5 77.5515C0.5 100.643 19.219 119.361 42.31 119.361Z" stroke="#002140" stroke-linecap="round" stroke-linejoin="round"/>
<path d="M65.7 112.505C65.8534 112.765 65.9567 113.042 66.0067 113.332C66.58 116.745 59.36 120.802 49.8834 122.392C40.4067 123.982 32.2567 122.502 31.6867 119.088C31.6467 118.842 31.6434 118.592 31.6834 118.338" stroke="#002140" stroke-linecap="round" stroke-linejoin="round"/>
<path d="M26.6999 90.2214C25.6633 94.6581 18.3633 104.835 18.3633 104.835C18.3633 104.835 24.9233 113.631 35.4699 113.121" stroke="#002140" stroke-linecap="round" stroke-linejoin="round"/>
<path d="M57.2666 76.6147C60.1799 80.7847 64.9266 89.0181 74.2166 93.6648C74.2166 93.6648 71.6899 105.658 61.3966 108.785" stroke="#002140" stroke-linecap="round" stroke-linejoin="round"/>
<path d="M72.19 98.6781C72.19 98.6781 69.24 97.2047 67.9866 96.1714" stroke="#002140" stroke-linecap="round" stroke-linejoin="round"/>
<path d="M69.5334 102.365C69.5334 102.365 66.5834 100.891 65.3301 99.8582" stroke="#002140" stroke-linecap="round" stroke-linejoin="round"/>
<path d="M21.6833 108.115C21.6833 108.115 23.97 105.535 24.41 104.355" stroke="#002140" stroke-linecap="round" stroke-linejoin="round"/>
<path d="M26.3268 110.402C26.3268 110.402 28.6135 107.822 29.0535 106.642" stroke="#002140" stroke-linecap="round" stroke-linejoin="round"/>
<path d="M73.8934 148.205C73.5168 148.285 72.7868 148.295 72.1301 147.485C72.0268 147.358 71.8401 147.335 71.7134 147.438C69.1701 149.462 67.3734 148.128 64.6134 148.932C62.5234 149.542 62.3334 151.051 58.5001 151.408C58.3501 151.421 58.2301 151.548 58.2301 151.701C58.2301 152.145 58.1068 153.018 57.1134 153.355C56.9601 153.405 56.8801 153.578 56.9334 153.728C57.7801 156.182 56.0734 157.198 56.8301 159.795C57.5901 162.398 59.5701 162.188 60.2534 164.038C60.2968 164.158 60.4168 164.232 60.5434 164.225C60.9301 164.205 61.7334 164.285 62.1601 165.195C62.2401 165.365 62.4501 165.422 62.6001 165.315C64.9234 163.638 68.0234 164.408 69.0368 164.115C71.4168 163.438 73.2934 161.332 75.6568 161.375C75.8301 161.375 75.9701 161.228 75.9534 161.055C75.9168 160.605 75.9901 159.808 76.8434 159.265C76.9468 159.202 76.9934 159.078 76.9701 158.958C76.6268 157.105 78.4401 156.418 77.6201 153.598C76.8001 150.778 75.1968 151.225 74.2368 148.402C74.1868 148.258 74.0401 148.175 73.8934 148.205V148.205Z" stroke="#002140" stroke-linecap="round" stroke-linejoin="round"/>
</svg>
