<svg xmlns="http://www.w3.org/2000/svg" width="400" height="242" fill="none" viewBox="0 0 400 242"><path fill="#fff2b2" d="M42.917 119.545c23.13 0 41.88-18.751 41.88-41.88s-18.75-41.88-41.88-41.88-41.88 18.75-41.88 41.88c0 23.129 18.75 41.88 41.88 41.88"/><path fill="#d18000" d="m218.217 125.848 1.106 4.534s5.31.333 7.52.996c2.214.664 30.747 7.3 41.474 7.19s24.996-3.206 26.1-5.973c1.106-2.763 1.55-4.977-.664-5.75s-6.746-1.55-6.746-1.55l-.664 2.986s4.647.664 3.76 1.88c-.886 1.217-8.073 3.317-12.386 3.431-4.314.11-20.57 0-25.77-1.327-5.197-1.327-23.117-4.757-23.117-4.757l.663-4.977s-6.856 4.094-11.28 3.317z"/><path fill="#fffaf0" d="m247.967 43.895-19.134 83.613s18.69 3.207 20.904 3.98 23.89 4.867 35.613.444l28.757-125.64s1.106-4.867-2.434-5.31c-3.54-.444-15.04-.884-26.986 49.99 0 0-3.614 0-9.364-14.157l-9.436 13.567-6.047-13.864-8.847 14.157-3.023-6.783z"/><path fill="#fff2b2" d="M215.157 46.845s12.533-8.553 14.156-10.913l5.014 13.713 10.913-13.123 5.75 14.156 8.847-14.156 6.046 13.863 9.437-13.567s5.31 13.567 9.363 14.157c0 0 6.12-27.43 11.724-36.13 5.603-8.7 7.226-12.977 12.83-14.157l-67.54-.146s-8.997 1.18-18.137 21.233c-8.847 21.087-8.407 25.07-8.407 25.07zm50.533 173.953s1.226 9.05 6.98 9.64c5.75.59 9.29-1.18 12.386-11.207 3.097-10.026 6.93-34.803 8.11-37.9 1.18-3.096 3.54-11.353 10.177-13.273l-26.25-.293s-10.323 42.026-10.763 45.713-.637 7.32-.637 7.32zm51.217-37.843s2.063 9.586 2.213 11.206 4.423 29.347 10.47 33.77 10.027 3.834 13.713-1.033 16.517-33.623 17.4-34.95c.884-1.327 4.867-7.373 9.144-8.997h-52.94zm60.46 24.48s-4.57 17.697.59 21.383 11.503-6.93 12.093-8.11 9.143-19.316 9.143-19.316-10.026 4.72-12.533 8.7l-2.063-10.027-7.227 7.373z"/><path fill="#fffaf0" d="M284.023 137.092s-10.026 1.769-20.94.736c-10.913-1.033-35.243-6.047-35.243-6.047l-19.317 84.351s-2.213 15.04 9.88 15.04h53.234s-7.667-3.981-5.604-16.811c2.064-12.83 17.99-77.273 17.99-77.273zm-6.637 93.789h54.857s-5.31-4.866-7.227-10.913c-3.243-7.963-8.11-40.553-11.353-46.01s-5.013-6.34-8.7-6.047-10.177 5.16-13.273 17.99-3.834 36.867-14.304 44.977zm63.557-1.18h37.604s-4.13-1.77-3.097-9.88 4.277-22.266 3.833-28.756-3.833-8.11-6.636-8.11-9.29 2.653-14.894 14.156c-5.603 11.504-10.763 27.87-16.81 32.59"/><path fill="#ffed8f" d="m27.443 91.598-.923-.837-1.667 7.327s-4.157 4.02-1.503 3.907c2.653-.11 5.443-3.177 5.863-1.217.553 12.32 12.197 16.657 19.573 16.92s10.327-3.58 11.95-6.523c1.624-2.944 1.99-13.603.554-18.69-1.437-5.087-4.313-15.707-4.313-15.707s-17.474-3.98-22.894.333c-5.42 4.314-6.636 14.49-6.636 14.49z"/><path fill="#f2c8aa" d="m39.83 144.245 3.54-.773s2.213 7.63 4.867 7.743c1.55.22 1.88-.997 1.88-.997s2.433.444 3.206-1.106c0 0 3.43.333 2.877-1.99 0 0 3.87 1.99 4.866-.554.997-2.543.11-10.506.11-10.506s-2.1-4.534-6.636-4.094c-4.537.44-15.373 3.54-15.373 3.54s-1.177 9.14.663 8.737"/><path fill="#fffaf0" d="M119.24 124.225s1.88 3.98 1.99 6.413l3.207.22s-.22 2.763.22 4.867 2.876 4.756 5.863 3.316c0 0 3.76.11 4.533-.443 0 0 2.434.773 3.87-.443 0 0 7.077 1.66 6.194-5.974 0 0-.997-6.746-2.987-7.963 0 0-1.66-4.203-5.973-4.093-4.314.11-15.484 4.203-16.92 4.093z"/><path fill="#0185ff" d="m27.013 90.682 2.853-7.304s5.024-6.23 7.68-6.83c0 0-5.993-5.907-14.556-5.993-8.564-.087-10.534 8.82-10.447 10.533.087 1.714 1.86 6.674 6.1 7.657l8.37 1.94zm29.454-14.391s3.683 7.277 7.45 9.077c0 0 6.763-1.97 7.45-9.247.683-7.276-5.137-7.106-5.137-7.106s-3.684.256-4.967 2.653-3.767 4.623-4.793 4.623z"/><path fill="#fed607" d="M39.43 51.288s-4.28-4.367-8.307-4.197c-4.023.17-5.993 3.94-6.25 8.05s2.397 14.214 1.884 15.584c0 0 6.25 2.396 7.02 3.083.77.683 7.876 5.393 14.556 4.623s10.447-3.766 10.447-3.766-1.457-2.397-1.713-8.22c-.257-5.824-2.484-19.18-8.39-20.38s-7.364 3.253-7.364 3.253z"/><path fill="#0185ff" d="M121.93 131.158s-.517-6.193-2.69-6.93c0 0-10.287 1.77-18.543 1.327-8.257-.444-22.414-1.77-26.397-3.394-3.98-1.623-8.11-2.95-8.11-2.95s-29.787-1.623-37.16 0c-7.373 1.624-28.313 6.784-26.1 21.234 1.18 8.256 17.107 8.996 21.53 7.52 4.423-1.474 18.913-4.497 18.913-4.497l-.773 8.333 1.326 4.277s23.154 5.75 29.787-3.393c0 0-2.95-12.24-2.95-16.664l51.17-4.866zm-94.23 7.52c-5.603 1.033-12.387 1.18-12.83-1.473s2.95-5.75 10.763-7.08c7.817-1.327 12.24 0 12.24 0l1.29 5.383s-5.863 2.137-11.466 3.17z"/><path fill="#0185ff" d="M73.71 152.688s-3.243 2.95-7.373 3.833c-4.13.884-15.78 1.917-22.414-.443 0 0 3.834 14.157 6.34 20.203 2.507 6.047 18.877 47.63 52.793 53.234l14.6-11.354s7.817 2.654 10.324 1.917 3.98-10.177 3.393-12.387c-.59-2.213-3.243-8.406-9.88-9.586s-22.563-3.394-37.31-22.267c-6.34-9.587-10.47-21.383-10.47-23.153z"/><path fill="#fff2b2" d="M128.42 209.828s-2.543-5.087-5.53-5.087-3.097 3.43-2.987 4.094c.11.663.334 7.963-.11 9.29 0 0-1.88.11-3.206-.997s-6.747-6.637-12.167-3.65-4.647 8.96-4.533 10.177 1.326 5.31 5.086 6.746 8.184 2.324 9.29 3.317c1.107.993 3.54 3.317 3.54 3.317s3.76 2.95 5.864 3.316c0 0-2.544-3.316-2.1-8.293l6.856-22.23z"/><path fill="#fffaf0" d="M126.207 240.688s2.986-1.327 2.986-4.423-.22-5.53-.22-5.53l-2.213-1.55s-1.327-1.217-.11-2.214l3.207-.883s1.216-16.59-2.764-16.37-2.763 6.527-2.763 6.527-.883 11.943-3.87 11.613c0 0-2.1.443-1.88 2.1s2.987 2.1 2.987 2.1-1.217 8.737 4.646 8.627z"/><path fill="#fed607" d="M128.973 230.731s-3.723-1.216-2.323-3.76l-5.53.847s-2.434 1.033-2.544 2.137c-.11 1.103 2.987 2.1 2.987 2.1l7.41-1.327z"/><path fill="#fff2b2" d="m129.967 226.495 3.613 4.13s3.393 3.023 5.603 3.243c0 0-2.213-1.696-1.77-4.793s4.35-13.567 4.35-13.567l2.287-12.533s-1.623-4.277-4.423-4.497c-2.804-.22-3.394.147-3.54.883-.147.737-.37 12.314-.37 12.314s-.96.516-2.214-.22c-1.253-.737-3.54-4.277-6.49-4.497 0 0 3.394 5.53 3.17 12.533l-.22 7.004z"/><path fill="#fffaf0" d="M141.93 234.068s2.987-1.327 2.987-4.423-.22-5.53-.22-5.53l-2.214-1.55s-1.326-1.217-.11-2.214l3.207-.883s1.217-16.59-2.763-16.37-2.764 6.527-2.764 6.527-.883 11.943-3.87 11.613c0 0-2.1.443-1.88 2.1s2.987 2.1 2.987 2.1-1.217 8.737 4.647 8.627z"/><path fill="#fed607" d="M144.696 224.115s-3.723-1.217-2.323-3.76l-5.53.847s-2.433 1.033-2.543 2.136 2.986 2.1 2.986 2.1l7.41-1.326z"/><path fill="#fff2b2" d="M118.687 218.125s-1.327.22-2.544-1.217c-1.216-1.437-7.963-7.19-13.603-2.323-5.64 4.866-2.543 13.603 1.77 15.483s5.53 1.66 5.53 1.66-1.437-1.437-.22-2.877 2.653-3.98 2.653-3.98l-.22-1.55s2.544-.773 2.877-1.436c.333-.664 2.653-3.76 3.76-3.76z"/><path fill="#0185ff" d="M61.47 197.958s11.943 16.37 16.96 19.907c5.013 3.54 16.96 12.093 24.626 11.65 0 0-6.783-6.047-1.326-13.273 5.456-7.227 12.606-1.327 14.413.663 0 0 2.25 2.063 3.65 1.217 0 0 .147-6.674.11-9.29-.037-2.617 1.88-4.094 2.987-4.094 1.106 0 4.35 2.654 4.35 2.654l4.423 2.506s.737-8.7-10.177-11.796c-8.856-2.434-13.713-3.54-15.78-4.57 0 0 .59 2.063-2.95 2.063s-8.256-2.36-9.143-2.653c-.883-.294-8.7-3.98-10.47-3.834 0 0 6.49 7.817 10.177 9.144 0 0-.59 1.77-2.36 2.063s-11.06-3.097-12.683-3.687c-1.624-.59-6.637-3.243-11.06-2.95-4.424.294-5.75 4.277-5.75 4.277z"/><path fill="#fffaf0" d="m40.236 144.282 3.134-.81s2.25 7.743 4.866 7.743c1.127-.087 1.88-.997 1.88-.997s1.99 1.364 3.207-1.106c0 0 1.51-.11 2.1-.407.59-.293.773-1.587.773-1.587s2.177.997 3.504.7c1.326-.293 2.213-4.57 2.063-5.75l-3.097.59s-1.473-2.063-1.18-4.423l3.687-1.033s0-6.637-8.7-5.31-12.24 3.98-12.24 3.98-2.213 3.833 0 8.406z"/><path fill="#fff2b2" d="M46.023 86.845s.773 1.106 1.66 2.653 3.207 3.65 3.207 3.65 4.423-.773 4.646-5.31c.224-4.537-4.976-4.647-4.976-4.647s-3.87.11-4.534 3.65z"/><path fill="#d18000" d="M45.913 149.885s-2.543-4.423-2.543-5.42c0 0-5.197 2.653-7.077 8.736s-1.99 18.914-4.976 22.674c-2.987 3.76-7.41 6.303-7.41 6.303s-1.327 4.534 3.096 4.204c4.424-.334 10.287-6.747 11.394-12.94 1.106-6.194.11-19.354 7.52-23.557zm12.757-7.227s5.823-.81 6.157-.847 59.833-6.083 59.833-6.083l-.22-4.867-64.147 6.747-2.803.627s.497 2.396 1.18 4.423m82.58-14.67s1.55 2.544 1.436 3.87h58.064s.883 2.544 2.543 2.654 2.653-.884 2.653-.884.774.554 1.77.554c.997 0 1.99-.774 1.99-.774s.884.884 2.324.774c1.436-.11 2.1-.884 2.1-.884s1.76 1.29 3.42.847 1.556-3.503 1.556-3.503.22-3.76-.773-4.867c-.997-1.107-1.77-1.217-2.543-1.88s-2.857.233-2.857.233-1.013-2-3.667-.01c0 0-3.43-1.106-4.756.334 0 0-2.507-1.5-3.54.333l-1.034 1.833-58.136.38-.554.997z"/><path fill="#fff2b2" d="M41.156 93.742a4.533 4.533 0 1 0 0-9.067 4.533 4.533 0 0 0 0 9.067"/><path fill="#fed607" d="m74.08 148.195-2.58-.517s-1.4 1.18-2.433 1.18c-1.034 0-2.434-.443-3.687 0-1.254.444-4.057 1.99-4.057 1.99l-3.023.59-1.327 2.137s.074 1.697-.073 2.95-.444 2.213 0 3.687c.443 1.473 3.023 3.466 3.023 3.466l2.433 1.697s2.064-1.253 3.17-1.253c1.107 0 4.057.443 5.31-.59 1.254-1.034 5.014-2.36 5.014-2.36l1.18-2.507s.81-4.72.59-5.457c-.22-.736-2.58-3.316-2.727-3.54-.147-.223-.81-1.473-.81-1.473z"/><path fill="#fff2b2" d="M37.803 67.161s4.454.087 5.65 1.37c1.2 1.284 2.827 5.054 2.827 5.054s.087-4.88 1.797-5.994c1.713-1.113 4.623-2.653 4.623-2.653s-4.623-.087-5.48-1.283c-.857-1.197-2.227-4.11-2.654-5.31 0 0-.513 4.453-1.456 5.393-.944.943-4.453 3.51-5.31 3.423z"/><path fill="#0185ff" d="M44.253 102.591s7.41 0 10.064-.996c0 0-.11-2.1-1.99-2.214-1.88-.11-2.877 1.88-2.877 1.88s-1.217-1.436-2.987-1.326-2.213 2.43-2.213 2.653zm-.11 2.544s.884 6.083 5.64 5.75c4.757-.334 4.977-5.087 4.977-5.087l-.443-3.317s-1.99 4.424-4.534 4.534-4.866-1.55-5.196-2.987z"/><path fill="#fff2b2" d="M44.253 102.591s7.744.22 10.064-.996c0 0-.774 5.42-4.534 5.42s-5.086-.997-5.53-4.424"/><path fill="#ffed8f" d="m41.563 116.491 10.323 15.63h4.57l1.474-17.4s-2.947 3.214-6.047 3.097-9.437-.883-10.323-1.327z"/><path fill="#e4bc07" d="M57.047 125.632s2.803-.737 4.57-.737c1.766 0 5.013.59 5.013.59l-5.347-17.517s-1.586 5.424-4.093 7.194l-.147 10.47zm-19.907 1.476 10.763-1.033-6.34-9.587s-4.866-1.916-6.046-3.096l1.623 13.713z"/><path fill="#fffaf0" d="M121.563 130.941s-.517-3.023-.96-3.906c-.443-.884-1.697-3.17-1.697-3.17l-3.686-1.917s-4.294-1.273-4.647-1.107c-.353.167 2.063 3.237 2.063 3.687s1.4 7.153 1.4 7.153l7.52-.736zm-81.253 4.351-5.677-1.327s-2.286 1.697-2.506 5.603c-.22 3.907 2.286 9.437 2.286 9.437l5.604-3.76s-1.99-7.227.293-9.953"/><path fill="#002140" d="M112.64 124.528s-1.807-4.35-3.577-3.686-1.216 4.423-1.216 4.423 2.95.183 4.793-.737"/><path fill="#e4bc07" d="M34.843 77.738s-3.76 3.65-5.64 6.413-2.876 7.41-2.876 7.41l-7.854 13.161s3.317 3.206 4.204 4.093c.883.883 5.53 3.76 7.63 3.98s4.646.333 4.646.333-4.203-4.866-4.533-7.41c-.33-2.543-.553-3.54-.553-3.54s1.216.997 2.763.884c1.55-.11 3.527-.56 3.76-2.214s.11-2.653.11-2.653-.95-1.587-1.55-2.1-.333 2.213-.333 2.213-.444.997-1.77.773-2.324-.883-1.99-2.543 2.876-7.963 2.876-7.963 1.66-8.407 1.107-10.84zm22.894-.333s4.533 16.48 4.533 20.46-.553 10.84-.553 10.84 6.966-2.764 9.733-7.854c2.763-5.086 2.653-7.19 2.653-7.19s-8.073-5.42-10.726-8.846-5.64-7.41-5.64-7.41"/><path fill="#f2c8aa" d="m57.183 120.871-11.39 2.214 6.093 9.036h4.57z"/><path fill="#0185ff" d="m45.793 123.085-8.96-.443.307 4.466 11.307-.486zm11.39-2.214-.136 4.76s6.866-1.063 9.586-.146l-2.7-8.484-6.746 3.87z"/><path fill="#fffaf0" d="M31.637 117.995s-.334 7.3 19.243 4.203c16.33-2.65 15.04-9.843 15.04-9.843s-10.507 6.083-14.82 6.303-14.71 1.55-19.467-.663z"/><path stroke="#002140" stroke-linecap="round" stroke-linejoin="round" d="m202.487 126.845-54.28.196h-6.404m61.294 4.674-54.89.2h-5.52m76.023-6.214s5.23.85 11.383-3.683m-5.336 4.937c7.52.147 24.626 6.783 44.386 6.783s21.677-4.57 21.677-4.57"/><path stroke="#002140" stroke-linecap="round" stroke-linejoin="round" d="M219.467 130.645c15.726.803 32.2 7.293 46.706 7.516 8.994.137 17.87.45 26.007-4.046 2.007-1.11 4.44-3.32 2.607-5.67-1.324-1.697-4.004-3.2-7.937-3.137m-84.363 1.537c.663.036 2.136 1.813.606 4.87"/><path stroke="#002140" stroke-linecap="round" stroke-linejoin="round" d="M200.127 126.721c.35-1.516 1.21-2.63 2.376-2.84 1.864-.336 3.807 1.757 4.337 4.68s-.55 5.567-2.417 5.904c-1.386.25-2.813-.844-3.673-2.62"/><path stroke="#002140" stroke-linecap="round" stroke-linejoin="round" d="M204.993 124.592c.404-.494.91-.824 1.494-.93 1.863-.337 3.806 1.756 4.336 4.68s-.55 5.566-2.416 5.903c-.694.127-1.397-.083-2.034-.55"/><path stroke="#002140" stroke-linecap="round" stroke-linejoin="round" d="M209.14 124.425c.403-.494.91-.824 1.493-.93 1.864-.337 3.807 1.756 4.337 4.68s-.55 5.566-2.417 5.903c-.693.127-1.396-.083-2.033-.55"/><path stroke="#002140" stroke-linecap="round" stroke-linejoin="round" d="M213.287 124.482c.403-.494.91-.824 1.493-.93 1.863-.337 3.807 1.756 4.337 4.68s-.55 5.566-2.417 5.903c-.693.127-1.397-.083-2.033-.55m-60.68-6.52s-2.183 1.407-1.6 4.647m14.316-4.647s-2.183 1.407-1.6 4.647m14.32-4.647s-2.183 1.407-1.6 4.647m14.32-4.647s-2.183 1.407-1.6 4.647m33.954-.741c-.444-2.433-2.544-3.096-3.76-5.086m15.146 6.926c-.43-2.2-2.466-2.8-3.643-4.603m15.257 7.257c-.43-2.2-2.467-2.8-3.644-4.604m16.474 6.704c-.43-2.2-2.467-2.8-3.644-4.604m17.027 4.954c-.59-1.863-2.437-2.5-3.537-4.18m15.17 2.907c-.733-1.494-2.34-2.157-3.337-3.677m12.057-.113s-1.99-2.214-4.866-2.1m-86.114 1.046q-.139.45-.363.867m26.16-5.427c8.81-37.933 17.59-75.62 19.197-82.516l.17-.657m87.646 186.89h-117.86c-12.83 0-9.263-15.447-8.84-18.307.204-1.376 9.294-40.646 18.66-80.986"/><path stroke="#002140" stroke-linecap="round" stroke-linejoin="round" d="M284.03 137.388c-5.816 24.69-16.283 68.36-17.346 73.97-3.12 14.804 3.183 19.597 7.94 19.597 18.58 0 9.843-63.19 31.52-63.19 17.253 0 9.88 63.263 30.083 63.263 14.6 0 19.467-48 36.057-48 19.243 0-7.594 46.674 8.333 46.674 5.457-.147 11.207-11.65 18.727-28.314 0 0-6.784 1.99-12.904 8.7-.27-.966-1.77-10.25-1.77-10.25l-7.316 8.227M309.903.538h-68.13s-14.82-.22-26.763 46.45c0 0 10.027-5.9 14.303-11.353l5.014 14.157 11.06-13.42 5.456 14.376 9.144-14.526 5.9 14.303 9.51-13.937s5.31 13.937 9.07 14.6c9.51-40.256 19.243-49.99 25.436-50.653 3.027-.324 5.247 1.55 3.927 7.306s-22.5 98.064-27.347 119.047c-.35 1.52-.76 3.277-1.216 5.223m87.013 50.917h-55.077m-11.06-15.263h-29.31m103.3 61.936H340.54m-54.297-101.099c-.336 1.47-.523 3.183-.523 3.183s3.393-.963 4.057-1.663c.663-.7-1.314-1.99-3.534-1.52"/><path fill="#002140" d="m252.723 61.368-.773 3.984h35.613l.55-4.094zm-1.88 8.074-.773 3.983h35.61l.553-4.093zm-1.989 9.18-.777 3.983h35.613l.554-4.094zm-4.427 22.453-.774 3.98h35.614l.553-4.09zm-2.21 11.943-.774 3.984h35.61l.554-4.094zm-8.847 35.613-.777 3.984h35.614l.553-4.094zm-1.883 7.964-.774 3.98h35.614l.553-4.09zm-2.1 9.29-.774 3.983h35.614l.553-4.093zm-7.41 28.757-.774 3.98h35.614l.553-4.091zm-1.88 7.963-.774 3.98h35.614l.55-4.09zm-2.1 9.29-.777 3.98h35.613l.554-4.09zm73.88-24.997h16.036l.884 3.65H291.21m-1.217 4.757h19.577l.997 3.54h-21.124m-1.879 10.726h24.663l.883 3.984h-26.213m70.933-15.854h15.337l1.326-3.909H359.82m-3.76 7.226h17.03l-1.327 3.907H354.51m-1.474 3.32h17.844l-1.327 3.907h-17.99"/><path stroke="#002140" stroke-linecap="round" stroke-linejoin="round" d="M26.7 90.222c-6.967.626-14.13-3.684-14.13-9.164s4.453-10.617 11.643-10.39c9.477.343 12.727 8.987 24.574 7.69 14.356-1.526 10.246-9.403 17.326-9.403 8.177 0 6.187 13.78-1.923 16.287"/><path stroke="#002140" stroke-linecap="round" stroke-linejoin="round" d="M58.713 74.715c-1.416-2.834-1.663-6.087-1.823-9.2-.32-6.25-1.72-20.447-10.81-19.684-3.817.32-4.383 3.45-6.797 5.66"/><path stroke="#002140" stroke-linecap="round" stroke-linejoin="round" d="M44.31 52.745c-2.49.32-4.427-.533-6.173-2.25-2.087-2.05-4.067-3.817-7.187-3.46-10.847 1.257-3.997 18.837-3.997 23.86M26.7 90.221c1.263 2.547 2.367 9.374 2.367 9.374.403 2.733 1.806 3.553 3.77 3.553 2.093 0 3.79-1.767 3.79-3.947 0-1.616-.937-3.006-2.274-3.616.314.433.5.97.5 1.556 0 2.87-3.67 2.81-3.843.157-.143-2.217.95-4.593 1.65-6.647 1.353-3.96 3.053-8.503 1.97-12.73"/><path stroke="#002140" stroke-linecap="round" stroke-linejoin="round" d="M37.917 76.605s-6.22-.37-11.217 13.617m2.623 10.556s1.18 17.777 21.234 16.89m6.516-41.59s15.014 40.047-6.516 41.59M45.01 86.245c2.523 3.553 7.15 6.13 6.707 9.227-.444 3.096-7.134 2.323-7.687.22-.334-1.494 1.713-1.384 2.433-.94"/><path stroke="#002140" stroke-linecap="round" stroke-linejoin="round" d="M45.997 87.058a4.84 4.84 0 0 1 9.58.977c0 2.673-2.014 4.68-4.55 4.83"/><path fill="#002140" d="m52.023 88.088 1.664-1.317a3.08 3.08 0 0 0-2.78-1.753 3.086 3.086 0 1 0 0 6.173 3.08 3.08 0 0 0 2.92-2.096zm-9.363.96 1.663-1.317a3.08 3.08 0 0 0-2.78-1.753 3.086 3.086 0 1 0 0 6.173 3.08 3.08 0 0 0 2.92-2.096z"/><path stroke="#002140" stroke-linecap="round" stroke-linejoin="round" d="M42.41 81.462s-4.57-1.51-6.23 2.84m10.95-3.614s3.686-2.47 6.12.334m-9.623 63.259c-15.997 10.034-2.164 29.534-19.597 37.707"/><path stroke="#002140" stroke-linecap="round" stroke-linejoin="round" d="M45.77 149.895c-12.293 10.566-.373 28.746-17.923 36.266m-3.797-4.13c-.92.647-.443 5.734 3.797 4.13m29.393-48.026c.467-.14 1.557-.514 3.217-.694 10.896-1.163 52.846-5.62 63.98-6.58m-65.95 12.03c.423-.53 2.316-.643 4.183-.84 10.837-1.156 48.667-5.173 61.823-6.38m-92.83-16.836c-11.903 1.673-32.073 9.373-28.59 21.76 3.334 10.39 18.85 8.27 29.66 5.723m5.66-16.23s.34 2.657.594 4.6m1.65.577c4.713-1.334 9.896-3.297 14.786-3.297 0 0 5.75-.277 5.807 5.253"/><path stroke="#002140" stroke-linecap="round" stroke-linejoin="round" d="M38.407 130.065c-2.89-1.304-8.804-.577-11.684-.114-2.513.404-5.06.997-7.37 2.084-1.91.9-5.12 2.97-4.466 5.54.18.703.763 1.253 1.423 1.553s1.4.38 2.127.417c4.636.24 9.43-.777 14.09-2.02m7.886-2.057s-2.996 3.62-.113 10.127m2.81-4.04s.977 7.78 4.407 9.53c2.213 1.07 2.746-1.197 2.746-1.197"/><path stroke="#002140" stroke-linecap="round" stroke-linejoin="round" d="M47.073 143.415c.22 2.213 2.097 6.26 4.117 6.753s2.187-1.443 2.187-1.443"/><path stroke="#002140" stroke-linecap="round" stroke-linejoin="round" d="M50.117 142.145c.22 2.213 2.096 6.26 4.116 6.753s2.187-1.443 2.187-1.443m-2.82-6.307c.22 2.214 2.097 6.26 4.117 6.754s4.036-.46 3.883-5.734"/><path stroke="#002140" stroke-linecap="round" stroke-linejoin="round" d="M56.973 135.451s-.276 4.37 2.377 9.237m-3.777-57.403s1.604.833 2.877-.737m-1.55-2.873s-.883 1.843-2.507 1.106m-18.286 4.201s-1.603.833-2.877-.737m1.55-2.877s.883 1.844 2.507 1.107m33.14 49.786q-.332-2.83-.554-5.84m2.434 17.117s-.817-3.927-1.19-6.267m60.57 68.781c.006-6.537-5.567-11.104-11.82-12.24-5.204-.947-31.354-4.83-43.8-37.497m-33.03-7.334s12.83 62.967 55.743 75.797c.623.16 2.843.647 5.05.697m-41.653-87.373s1.306 3.02 2.753 6.58"/><path stroke="#002140" stroke-linecap="round" stroke-linejoin="round" d="M44.003 155.832s5.37 1.93 12.454 1.963m17.216 17.86c15.707 28.533 29.42 24.443 38.157 30.193 4.9 3.52 5.453 8.917 5.33 11.903m-52.293-53.209 3.163 8.486c.143.387.413.717.766.937l2.477 1.533c.6.37 1.357.37 1.96 0 .754-.463 1.913-1.406 4.823-1.48"/><path stroke="#002140" stroke-linecap="round" stroke-linejoin="round" d="M75.847 174.068c-1.54-3.956-3.01-7.577-4.22-10.873m21.75 35.023c-1.614 6.67-15.394-3.323-22.194-4.37s-9.41 3.01-9.456 4.593m43.706-4.979c-1.613 6.67-15.393-3.324-22.193-4.37 0 0-.387-.127-.57-.09m47.077 37.123s-7.264 1.63-8.257 1.77c4.497-6.193.783-17.457 5.457-18.287s2.803 16.517 2.803 16.517zm-7.964 10.25v-4.057l7.52-1.473v4.646c0 3.024-1.033 5.087-3.54 5.237-2.506.147-3.98-1.99-3.98-4.35z"/><path stroke="#002140" stroke-linecap="round" stroke-linejoin="round" d="M121.49 227.895s-2.92.09-2.92 1.923 1.593 1.247 3.217 2.5m4.826-5.483c-.296.3-.496.7-.496 1.23 0 2.026 1.593 1.376 3.216 2.76m-3.566 9.9c-4.53-.074-5.917-1.927-8.157-4.224m11.85-24.579c-.253-1.287-2.513-7.254-7.013-7.104-5.53.22.736 11.06-4.794 18.137"/><path stroke="#002140" stroke-linecap="round" stroke-linejoin="round" d="M109.61 212.951c7.363 1.747 6.047 5.787 9.903 5.14m.5-.796s-.1 3.453 3.637 4.853m21.803-2.66s-7.263 1.63-8.256 1.77c4.496-6.193.783-17.457 5.456-18.287 4.674-.83 2.804 16.517 2.804 16.517z"/><path stroke="#002140" stroke-linecap="round" stroke-linejoin="round" d="M135.72 210.658s-.1 3.454 3.637 4.854m-1.944 14.226v-4.057l7.52-1.473v4.647c0 3.023-1.033 5.086-3.54 5.236-2.506.147-3.98-1.99-3.98-4.35z"/><path stroke="#002140" stroke-linecap="round" stroke-linejoin="round" d="M137.12 221.258s-2.92.09-2.92 1.924 1.593 1.246 3.217 2.5m4.83-5.484c-.297.3-.497.7-.497 1.23 0 2.027 1.593 1.377 3.217 2.76m-3.57 9.9c-6.747-.11-6.524-4.163-12.514-7.753m16.207-21.05c-.253-1.287-2.513-7.254-7.013-7.104-5.53.22.736 11.061-4.794 18.137"/><path stroke="#002140" stroke-linecap="round" stroke-linejoin="round" d="M127.037 206.901c5.186 1.92 4.466 5.137 7.936 4.557m-15.543 7.12c-1.333-.186-9.58 1.534-8.32 14.127m23.51-20.467c-1.333-.187-2.747.42-3.523 1.52-.377.533-.614 1.163-1 1.683m-14.29 19.467a14 14 0 0 1 2.09 1.89"/><path stroke="#002140" stroke-linecap="round" stroke-linejoin="round" d="M109.61 212.952c-6.683-1.24-9.947 4.029-9.947 9.079.324 9.77 13.94 10.231 16.144 12.877m3.306-111.056c7.814-1.584 14.414-3.607 18.007-3.607 5.9 0 5.603 7.52 2.653 10.47s-6.376 3.133-7.263 1.253c-.883-1.88 1.767-5.23 5.42-6.856m-73.557-6.7s14.94 7.29 38.684 7.29c3.233 0 6.463-.284 9.586-.724"/><path stroke="#002140" stroke-linecap="round" stroke-linejoin="round" d="M136.437 122.898s-1.824 1.713-1.494 3.927m-6.08 2.82s-.216-.963-1.573-1.007-2.85.84-2.85 5.377 3.817 6.527 6.413 4.977"/><path stroke="#002140" stroke-linecap="round" stroke-linejoin="round" d="M132.843 129.315s-.216-.964-1.573-1.007-2.85.84-2.85 5.377c0 4.536 3.817 6.526 6.413 4.976"/><path stroke="#002140" stroke-linecap="round" stroke-linejoin="round" d="M132.597 132.355q-.03.49-.03 1.053c0 4.534 3.816 6.527 6.413 4.977"/><path stroke="#002140" stroke-linecap="round" stroke-linejoin="round" d="M136.88 132.855v.22c0 4.533 3.817 6.526 6.413 4.976 0 0 2.6-1.383 2.047-5.916"/><path stroke="#002140" stroke-linecap="round" stroke-linejoin="round" d="M142.797 134.181c-.127-3.496-.664-5.096-1.354-5.836m.137-4.947s1.99 1.604 2.49 3.374m-24.94-2.841s2.36 3.244 2.213 7.077m-11.116-10.003c1.326 1.107 4.146 5.987 3.853 10.703m-20.903 2.397s-2.214 1.473-1.624 4.867m-11.06-3.537s-2.213 1.473-1.623 4.866m-12.09-3.393s-2.213 1.474-1.623 4.867m39.963-8.997s-2.213 1.473-1.623 4.867m16.37-6.34s-2.214 1.473-1.624 4.866m-79.686 12.774c.48 2.096 3.483 3.377 3.843 4.773m-7.42 5.483c1.214 1.667 3.84 2.44 4.347 4.83m-5.75 5.584c.52 2.426 3.76 3.906 4.147 5.526m-7.957 2.867c-.757 2.207 1.233 5.064.766 6.554m53.304-60.574-.487.06M41.283 94.052a4.793 4.793 0 1 0 0-9.587 4.793 4.793 0 0 0 0 9.587m13.387 8.933s-.167-3.863-3.023-3.78c-1.764.167-2.437 2.603-2.437 2.603s-.923-2.1-3.023-2.016c-2.1.083-2.52 3.276-2.267 4.956s1.093 6.467 6.383 6.134c5.294-.337 4.367-7.897 4.367-7.897"/><path stroke="#002140" stroke-linecap="round" stroke-linejoin="round" d="M44.257 102.818s6.886 0 9.743-1.343"/><path stroke="#002140" stroke-linecap="round" stroke-linejoin="round" d="M44.257 102.818s.586 4.957 5.376 4.284c3.023-.504 4.283-3.024 4.367-5.627m-6.217 1.256.42 4.2m3.024-4.533.326 3.954m2.757-41.507c-7.06 1.893-7.753 2.786-7.817 10.096-1.893-7.06-2.786-7.753-10.096-7.816 7.06-1.894 7.753-2.787 7.817-10.097 1.893 7.06 2.786 7.753 10.096 7.817m-13.707 70.3s-4.57-.59-5.823-1.253c0 0-6.047 6.93-.073 15.41 0 0 4.496-3.847 8.92-5.02m65.77-23.521c5.42-.253 7.833 3.46 9.733 3.17"/><path stroke="#002140" stroke-linecap="round" stroke-linejoin="round" d="M110.227 121.005c-.997-.663-3.077-.237-2.367 4.5m-61.927-2.294 5.99 8.794m-10.546-15.477 1.906 2.797m13.977 1.623-.73 11.13m.81-16.803-.073 1.16m-20.544 6.353.564 4.357 10.616-.774M35.47 113.122l.747 5.776m26.743-5.057-1.563-5.056m-4.424 16.7s5.864-1.217 9.624.11l-2.554-8.253m-21.733 2.019c23.091 0 41.81-18.718 41.81-41.81 0-23.09-18.719-41.81-41.81-41.81S.5 54.462.5 77.552c0 23.092 18.719 41.81 41.81 41.81"/><path stroke="#002140" stroke-linecap="round" stroke-linejoin="round" d="M65.7 112.505q.23.391.307.827c.573 3.413-6.647 7.47-16.124 9.06s-17.626.11-18.196-3.304a2.4 2.4 0 0 1-.004-.75M26.7 90.221c-1.037 4.437-8.337 14.614-8.337 14.614s6.56 8.796 17.107 8.286m21.797-36.506c2.913 4.17 7.66 12.403 16.95 17.05 0 0-2.527 11.993-12.82 15.12"/><path stroke="#002140" stroke-linecap="round" stroke-linejoin="round" d="M72.19 98.678s-2.95-1.473-4.203-2.507m1.546 6.194s-2.95-1.474-4.203-2.507m-43.647 8.257s2.287-2.58 2.727-3.76m1.917 6.047s2.286-2.58 2.726-3.76m44.84 41.563c-.376.08-1.106.09-1.763-.72a.297.297 0 0 0-.417-.047c-2.543 2.024-4.34.69-7.1 1.494-2.09.61-2.28 2.119-6.113 2.476a.296.296 0 0 0-.27.293c0 .444-.123 1.317-1.117 1.654a.29.29 0 0 0-.18.373c.847 2.454-.86 3.47-.103 6.067.76 2.603 2.74 2.393 3.423 4.243a.29.29 0 0 0 .29.187c.387-.02 1.19.06 1.617.97.08.17.29.227.44.12 2.323-1.677 5.423-.907 6.437-1.2 2.38-.677 4.256-2.783 6.62-2.74a.295.295 0 0 0 .296-.32c-.036-.45.037-1.247.89-1.79a.29.29 0 0 0 .127-.307c-.343-1.853 1.47-2.54.65-5.36s-2.423-2.373-3.383-5.196a.3.3 0 0 0-.344-.197"/></svg>