<svg xmlns="http://www.w3.org/2000/svg" xml:space="preserve" id="Layer_1" x="0" y="0" viewBox="0 0 200 164"><style>.st0{fill:#03d47c}.st1{fill:#002e22}.st2{fill:#4ed7de}.st3{fill:#e4bc07}.st4{fill:#ff7101}.st5{fill:#0185ff}.st6{fill:#fffaf0}.st7{fill:#002140}</style><path d="M100 0c16.6 0 30 13.4 30 30s-13.4 30-30 30-30-13.4-30-30S83.4 0 100 0" class="st0"/><path d="M108.3 23.1v-4.9H91.7v23.6h16.6v-4.9H97.8v-4.5h8.4v-5h-8.4v-4.3z" class="st1"/><path d="M100 10.4c4.2 0 8 1.3 11.2 3.5.8.6 1.9.5 2.6-.2.8-.8.7-2.1-.2-2.7-3.9-2.8-8.6-4.4-13.7-4.4-12.8 0-23.3 10.5-23.3 23.4 0 5.1 1.6 9.8 4.4 13.7.6.9 1.9.9 2.7.2.7-.7.7-1.8.2-2.6-2.2-3.2-3.5-7-3.5-11.2 0-10.9 8.8-19.7 19.6-19.7m19.3 6.4c-.6-.9-2-1-2.8-.2-.7.7-.7 1.8-.2 2.6 2 3.1 3.3 6.8 3.3 10.8s-1.3 7.9-3.4 11c-.5.8-.5 1.9.2 2.6.8.8 2.1.7 2.7-.2 2.7-3.8 4.3-8.5 4.3-13.5 0-4.9-1.5-9.4-4.1-13.1M100 49.6c-4 0-7.7-1.2-10.8-3.3-.8-.5-1.9-.5-2.6.2-.8.8-.7 2.1.2 2.8 3.8 2.6 8.3 4.1 13.2 4.1s9.6-1.6 13.5-4.3c.9-.6 1-2 .2-2.7-.7-.7-1.8-.7-2.6-.2-3.2 2.2-7 3.4-11.1 3.4" class="st1"/><path d="M177.2 46.7s1.7 6.9-7.5 21.6-19.6 30.9-39.8 41.1-36.8 10.8-36.8 10.8-12 1.2-14.6.5c0 0-7.3-4.8-6.4-9.9l1.3-3.4s8.6-21.2 26-37.1 28.2-19.9 28.2-19.9 17-6.6 26.5-7.4c9.4-1 20.9-.4 23.1 3.7" class="st2"/><path d="M152.2 43.2s-.3 9 7.1 16.2 10.3 8.6 10.3 8.6L162 79.9s-13.9-5.9-20.1-15.8c-6.2-10-6.9-14.5-7-15.4s2-1.7 2-1.7l3.2-1.3z" class="st3"/><path d="M152.4 43.1s20.5-2.6 24.5 3c2.4 3.6-5 20.1-7 21.9-3.9-1.4-19.6-16.5-17.5-24.9" class="st4"/><path d="m138.9 50.4-10.4 5v3.1L117 65.3s-2.1-1.5-2.6-3.2c-.4-1.7-.1-3.2-.1-3.2l.5-7.8s1.1-1.4 1.9-2c.8-.5 7-4.2 7-4.2l2.2 1.3 11.1-5.5 2.1 6.4z" class="st2"/><path d="M137.1 44.7c-1.2-.9-1.8-2.4-1.1-3.2.6-.9 2.2-.8 3.4.1s1.8 2.4 1.1 3.2c-.6.8-2.1.8-3.4-.1m-.7 4.4c-1.2-.9-1.8-2.4-1.1-3.2.6-.9 2.2-.8 3.4.1s1.8 2.4 1.1 3.2c-.6.8-2.1.8-3.4-.1m-7.7 6.4-.2 3.3-11.8 6.7s-3.8-4.4-2.2-6.1S123 54 123 54l.9-8.8 1.9 1.3s-1.1.5-.7 1.8 1.1 2.1 1.1 2.1l-1.7 1.3s-.9.8.3 2.3c1.3 1.2 2.9 2 3.9 1.5" class="st5"/><path d="m121.9 48.9-.2 1.9s-2-.9-1.1-1.7 1-.8 1.3-.2" class="st5"/><path d="M99.9 83.5s1 .9.1 1.9-20 19.7-21.5 21.4c0 0-3.5 3.8-5.4.2C71.2 103.3 57 75.4 57 75.4s-.9-1.6.5-2.6 3.3-.4 3.3-.4z" class="st2"/><path d="M92.3 85.6S78 99.7 75.9 102.4L62.7 77.1z" class="st3"/><path d="M97.2 72.5 90.4 80l-8.2-2 2-11.7s.6-1.4 1.6-.8c.9.5 11.4 7 11.4 7m5.1 21s.9-.1 1.4.4c.5.6-.1 1.8-.1 1.8l-9.4 34s-.3 1.1-.8 1c-.6-.1-1.3-.6-1.3-.6l-12-17.7.3-1.1c0 .1 8.3-10.6 21.9-17.8" class="st4"/><path d="m79.1 121-5.2 3.3s-3.5.9-6.8-5.2c-1.2-2.2-1.2-4.1-.7-4.7s5.3-3.5 5.3-3.5-.1 6.8 7.4 10.1" class="st3"/><path d="M66.6 114.5s-1.5 2.9 1.1 6 4 4.1 4 4.1-.3 2.9-2.3 3.8-4.6.4-4.6.4v.8s2.1 4.7-5.5 7.3c0 0-1 6.3-6.4 3.9 0 0-.4 7.7-6.6 9.1-6.1 1.4-7.8-2.5-7.8-2.5s-7 3-11.1-.5c-4.2-3.5-4.7-8.2-4.7-8.2s-5.2-.3-7.1-4-.3-8 1.7-9.7 5.3-1.9 8-1 4.2 4.4 4.2 4.4 3.5-.8 5-.5c0 0 1.6-4.5 5-5.5s6.5.1 7.8 1.3c0 0 .8-3.5 3.3-4.9s5.2-.4 6.8 0c0 0 1.1-4.2 3.9-5 2.8-.9 5.3.7 5.3.7m71.3-16.8c4.1-3 7.2-6.2 10.4-10.7.8-1.1.7-2.6-.1-3.7-1.3-1.5-3.6-1.5-4.8.1-2 2.8-5.3 6.7-9 9.2a3 3 0 0 0-.9 4l.1.1c.8 1.6 2.9 2.1 4.3 1m29.3-36.6c-1.4-.7-1.6-3-.6-5.2 1.1-2.2 3.1-3.5 4.5-2.8s1.6 3 .6 5.2c-1.1 2.3-3.1 3.5-4.5 2.8" class="st6"/><path d="m73.3 84.3 3.2 1.3 2.9-1.9-.2 3.5 2.8 2.2-3.4.9-1.2 3.3-1.9-2.9-3.5-.1 2.2-2.7z" class="st4"/><path d="M75.7 109h-.5c-1.1-.1-2.1-.8-2.5-1.7l-16-31.4c-.6-1.2-.4-2.5.4-3.5s2.1-1.4 3.3-1l17.4 4.9c3.4 1 6.9 1.9 10.3 2.9 2 .6 4 1.1 6 1.7l1.2.3c.9.2 1.8.5 2.6.8l.2.1c1.3.4 2.6 1 2.8 2.1.1.6-.1 1.1-.8 1.6l-1 1c-4.6 4.3-16.8 15.8-21.1 21.1-.5.7-1.4 1.1-2.3 1.1M59.5 72.3c-.6 0-1.2.3-1.7.8-.6.7-.7 1.6-.2 2.4l16 31.4c.3.6 1 1 1.7 1.1.8.1 1.5-.1 1.9-.7 4.3-5.4 16.6-16.9 21.2-21.2l1.1-1h.1c.2-.2.4-.4.4-.7-.1-.3-.5-.7-2.2-1.3l-.2-.1c-.8-.3-1.7-.5-2.5-.7-.4-.1-.8-.2-1.3-.3-2-.6-4-1.1-6-1.7-3.4-1-6.9-1.9-10.3-2.9l-17.4-4.9c-.2-.2-.4-.2-.6-.2" class="st7"/><path d="M75.9 102.9q-.15 0 0 0c-.2 0-.4-.1-.4-.3l-8.1-15.8-4-7.4-1.1-2.2c-.1-.2-.1-.4.1-.5.1-.2.3-.2.5-.2l1.7.5 12.3 3.3L92.6 85c.2 0 .3.2.3.4s0 .4-.1.5l-16.6 16.9c-.1 0-.2.1-.3.1M63.6 77.8l.6 1.1 4 7.4 7.8 15.2 15.5-15.8-15-4.4zm8.4 33.5h-.1c-.3-.1-.4-.4-.3-.6.2-.7.6-1.8 1.1-3.1.1-.3.4-.4.7-.3s.4.4.3.7c-.7 1.8-1 2.7-1.1 3q-.3.3-.6.3m18.1-30.6c-.1 0-.2 0-.3-.1-.2-.2-.3-.5-.1-.7 6.4-8 14.1-14.9 24.1-21.8.2-.2.5-.1.7.1s.1.5-.1.7c-10 6.9-17.6 13.7-23.9 21.6-.1.2-.3.2-.4.2m7.7 39.2c-.2 0-.5-.2-.5-.4 0-.3.1-.5.4-.6 9.1-1.5 22.6-4.8 35-11.9 21-11.1 40.9-42.5 43.8-55.3.6-2.6.5-4.4-.2-5.3-1.5-2-6.2-3.3-12.6-3.5-7.3-.2-16 1.1-24.4 3.6-.3.1-.5-.1-.6-.3-.1-.3.1-.5.3-.6 14.7-4.4 34-5.4 38.2.2.9 1.2 1 3.2.4 6.1-3.2 14.5-23.7 45.1-44.3 56-12.6 7.2-26.2 10.5-35.5 12m-14.9 1.5c-1.7 0-3.1-.1-4.2-.2-.3 0-.5-.3-.4-.6 0-.3.3-.5.6-.4 1.5.2 3.8.3 6.6.2.3 0 .5.2.5.5s-.2.5-.5.5z" class="st7"/><path d="M93.1 131.4c-.6 0-1.1-.3-1.5-.8L80 113.2c-.4-.6-.4-1.5.1-2.1 2.6-3.1 12-13.6 21.9-18 .6-.3 1.4-.2 1.9.3s.7 1.2.6 1.8l-9.6 34.9c-.2.7-.7 1.2-1.4 1.3zm-12.2-19.7q-.15 0 0 0c-.2.3-.3.7-.1.9L92.5 130c.2.3.5.4.8.3.3 0 .5-.2.6-.5l9.6-34.9c.1-.3 0-.6-.2-.8s-.5-.3-.8-.1c-9.8 4.3-19 14.6-21.6 17.7m1.4-33.2q-.15 0 0 0c-.4-.1-.5-.3-.5-.6l1.9-11.4c.1-.6.5-1.1 1-1.3.6-.3 1.3-.2 1.8.1l10.9 6.8c.2.1.3.5.2.7s-.5.3-.7.2L86 66.1c-.3-.2-.6-.2-.9-.1-.2.1-.4.3-.5.6L82.7 78c0 .3-.2.5-.4.5m87.4-10c-.1 0-.2 0-.3-.1-18.2-12.5-17.6-24.5-17.6-25 0-.3.3-.5.5-.5.3 0 .5.3.5.5 0 .1-.5 12 17.2 24.1.2.2.3.5.1.7-.1.3-.3.3-.4.3m-7.8 12.1h-.2c-18.6-8.9-24.5-21.9-26.3-28.9-.1-.3.1-.5.4-.6s.5.1.6.4c1.8 6.8 7.5 19.6 25.8 28.3.2.1.4.4.2.7-.2 0-.3.1-.5.1M73.3 125c-1.5 0-3.6-1.4-5.4-3.8-1-1.4-1.8-2.8-2.1-4.1-.3-1.4-.1-2.5.6-3.1.2-.2.5-.1.7.1s.1.5-.1.7c-.4.3-.5 1.1-.2 2 .3 1.2.9 2.5 1.9 3.8 1.9 2.6 4.3 3.9 5.1 3.3.2-.2.5-.1.7.1s.1.5-.1.7c-.3.2-.7.3-1.1.3" class="st7"/><path d="M75.9 123.3c-1.5 0-3.6-1.4-5.4-3.8-1-1.4-1.8-2.8-2.1-4.1-.3-1.4-.1-2.5.6-3.1.2-.2.5-.1.7.1s.1.5-.1.7c-.4.3-.5 1.1-.2 2 .3 1.2.9 2.5 1.9 3.8 1.9 2.6 4.3 3.9 5.1 3.3.2-.2.5-.1.7.1s.1.5-.1.7c-.3.1-.7.3-1.1.3m2.9-2c-1.6-.2-3.5-1.7-5.1-3.8-2.1-2.8-2.8-5-2.2-6.8.1-.3.4-.4.6-.3.3.1.4.4.3.6-.5 1.4.2 3.4 2.1 5.9 1.4 1.9 3.1 3.2 4.3 3.4.3 0 .5.3.4.6.1.2-.1.4-.4.4" class="st7"/><path d="M74.1 124.7c-.2 0-.3-.1-.4-.2-.1-.2-.1-.5.2-.7l5.2-3.3c.2-.1.5-.1.7.2.1.2.1.5-.2.7l-5.2 3.3zm-28.7 14.6c-.1 0-.2 0-.3-.1-.8-.7-1.3-1.8-1.3-3 0-.8.3-1.7.9-2.5-.6-.5-1.1-1.1-1.3-1.7-.4-1-.1-2.1.5-2.7.2-.2.5-.2.7 0s.2.5 0 .7c-.4.4-.5 1-.3 1.7.2.6.7 1.1 1.4 1.5.1.1.2.2.2.3s0 .3-.1.4c-.6.8-.9 1.6-1 2.4-.1.9.3 1.7.9 2.2.2.2.3.5.1.7-.1 0-.2.1-.4.1M59.5 123c-.1 0-.2 0-.3-.1-2.3-1.3-2.2-4-2.2-4.1 0-.3.2-.5.5-.5s.5.2.5.5c0 .1 0 2.2 1.7 3.2.2.1.3.4.2.7 0 .2-.2.3-.4.3m-4.3 11.1c-.4 0-.8-.1-1.1-.2s-.4-.4-.2-.7c.1-.2.4-.4.7-.2.7.3 1.6.1 2.3-.5.6-.5 1-1.3 1.3-2.4.1-.3.3-.4.6-.4.3.1.4.3.4.6-.3 1.3-.9 2.2-1.6 2.9q-1.2.9-2.4.9M139 46.2c-.8 0-1.7-.3-2.4-1-.8-.7-1.3-1.6-1.3-2.5 0-.6.1-1.2.5-1.7.9-1.1 2.8-1 4.2.2.8.7 1.3 1.6 1.3 2.5 0 .6-.1 1.2-.5 1.7s-1.1.8-1.8.8m-1.4-4.9c-.4 0-.8.1-1 .4-.3.3-.3.7-.3.9 0 .6.4 1.3 1 1.8 1 .8 2.2 1 2.8.3.3-.3.3-.7.3-.9 0-.6-.4-1.3-1-1.8-.6-.4-1.3-.7-1.8-.7" class="st7"/><path d="M138.3 50.6c-.8 0-1.7-.3-2.5-1s-1.3-1.6-1.3-2.5c0-.6.1-1.2.5-1.6.9-1.1 2.8-1 4.2.3.8.7 1.3 1.6 1.3 2.5 0 .6-.1 1.2-.5 1.6-.4.5-1 .7-1.7.7m-1.6-4.8c-.4 0-.8.1-1 .4-.3.3-.3.7-.3.9 0 .6.4 1.3 1 1.8 1 .8 2.2 1 2.8.4.3-.3.3-.7.3-.9 0-.6-.4-1.3-1-1.8-.5-.6-1.2-.8-1.8-.8m-10.2 4.9c-.1 0-.2 0-.3-.1-1.4-1.2-1.7-3.1-.8-4.1.2-.3.6-.5.9-.6q.45-.15.6.3t-.3.6c-.2.1-.4.2-.5.3-.6.7-.2 1.9.7 2.7.2.2.2.5 0 .7-.1.1-.2.2-.3.2m1.2 5.3c-.8 0-1.7-.3-2.4-1-1.4-1.2-1.7-3.1-.8-4.1l.4-.4c.2-.2.5-.1.7.1s.1.5-.1.7c-.1.1-.2.1-.2.2-.6.6-.2 1.9.7 2.7.7.6 1.6.9 2.3.7q.45-.15.6.3t-.3.6c-.3.1-.6.2-.9.2" class="st7"/><path d="M126.3 46.9c-.2 0-.4-.1-.4-.3-.1-.2 0-.5.2-.7l10.1-5.1c.2-.1.5 0 .7.2.1.2 0 .5-.2.7l-10.1 5.1c-.2 0-.3.1-.3.1m-1.1 4.5c-.2 0-.4-.1-.4-.3-.1-.2 0-.5.2-.7l10.8-5.5c.2-.1.5 0 .7.2s0 .5-.2.7l-10.8 5.5c-.1.1-.2.1-.3.1m3.2 4.5c-.2 0-.4-.1-.4-.3-.1-.2 0-.5.2-.7l10.6-5.4c.2-.1.5 0 .7.2.1.2 0 .5-.2.7l-10.6 5.4c-.1.1-.2.1-.3.1m8.5-11.1c-.8-.7-1.1-1.8-.6-2.4s1.7-.5 2.5.2 1.1 1.8.6 2.4-1.6.5-2.5-.2" class="st7"/><path d="M136.3 49.3c-.8-.7-1.1-1.8-.6-2.4s1.7-.5 2.5.2 1.1 1.8.6 2.4-1.7.5-2.5-.2m-19.4 16.5c-.1 0-.3 0-.4-.1-2.1-2-3.1-3.9-2.9-5.4.1-1 .6-1.8 1.6-2.5.5-.3 7-4.2 7.3-4.4.2-.1.5-.1.7.2.1.2.1.5-.2.7-1.9 1.1-6.9 4.1-7.3 4.3-.7.5-1.1 1-1.1 1.7-.1 1.2.7 2.6 2.4 4.3l11.3-6.5c.2-.1.5-.1.7.2.1.2.1.5-.2.7l-11.6 6.7c-.1.1-.2.1-.3.1m-2.1-13.2c-.3 0-.5-.2-.5-.5 0-.8.2-2 1.6-2.9.6-.4 4.5-2.9 7.7-4.9.2-.1.5-.1.7.2.1.2.1.5-.2.7-4.6 2.9-7.2 4.5-7.7 4.8-.8.6-1.2 1.2-1.2 2 .1.4-.1.6-.4.6" class="st7"/><path d="M128.5 59.1c-.1 0-.2 0-.3-.1l-5.4-4.6c-.1-.1-.2-.3-.2-.4l.7-9.2c0-.2.1-.4.3-.4.2-.1.4 0 .5.1l2 1.7c.2.2.2.5 0 .7s-.5.2-.7 0l-1.2-1.1-.6 7.9 4.4 3.8.1-2.2c0-.3.2-.5.5-.5s.5.2.5.5l-.1 3.2c0 .2-.1.4-.3.4 0 .2-.1.2-.2.2m-14.2 1q-.15 0 0 0c-.3 0-.5-.3-.5-.5l.5-8.1c0-.3.2-.5.5-.5s.5.3.5.5l-.5 8.1c-.1.3-.3.5-.5.5m3.3-6.1c-.1 0-.2 0-.3-.1-1.3-1.1-1.3-2.6-.9-3 .1-.1.2-.3 4.2-2.6.2-.1.5-.1.7.2.1.2.1.5-.2.7-1.6 1-3.5 2.1-3.9 2.4 0 .2 0 .8.5 1.4l3.7-2.3c.2-.1.5-.1.7.2.1.2.1.5-.2.7l-4 2.5c-.1-.1-.2-.1-.3-.1" class="st7"/><path d="M121.7 51.4h-.2c-.3-.1-.5-.3-.8-.5-.8-.7-1-1.8-.5-2.4.2-.2.5-.5 1-.5.2 0 .6 0 1 .4.2.2.2.5 0 .7s-.5.2-.7 0c-.1-.1-.2-.1-.3-.1s-.2.1-.3.2c-.2.2 0 .7.4 1 .1.1.3.2.4.3.3.1.4.4.3.6.1.2-.1.3-.3.3" class="st7"/><path d="M121.8 51.4c-.3 0-.5-.3-.5-.5l.2-2.1c0-.3.3-.5.5-.5.3 0 .5.3.5.5l-.2 2.1c0 .3-.2.5-.5.5m-77.5 99.2h-.2c-2.4-.1-4.4-1-5.9-2.6-5.3 2.7-11.9.6-14.7-4.7-.7-1.3-1.1-2.7-1.3-4.1-3 0-5.8-1.7-7.2-4.4-1-2-1.3-4.2-.6-6.3.6-2.1 2-3.8 3.9-4.8 4-2.1 8.9-.6 11.1 3.4l.3.6c1.5-.5 3-.6 4.6-.4.5-2.1 2.4-4.8 6-5.8 3.2-.9 5.6.4 6.7 1.3.3-1.3 1.2-3.5 3.9-4.9 2.8-1.4 5.1-.5 6.2.1.3-1.2 1.1-3.3 3.5-4.6 2.8-1.5 5.2-.2 6 .4l4.8-3.2c.2-.2.5-.1.7.1s.1.5-.1.7l-5.1 3.4q-.3.15-.6 0c-.1-.1-2.4-2-5.2-.5-2.8 1.6-3.1 4.5-3.1 4.6 0 .2-.1.4-.3.4s-.4 0-.5-.1-2.5-2.2-5.7-.5c-3.3 1.7-3.5 4.8-3.5 5s-.1.4-.3.5-.4 0-.5-.1-2.5-2.7-6.5-1.6c-4.6 1.3-5.3 5-5.4 5.4 0 .3-.3.5-.6.4-1.7-.3-3.4-.1-5 .5q-.45.15-.6-.3c-.1-.3-.3-.6-.4-.9-1.9-3.5-6.2-4.9-9.7-3-1.7.9-2.9 2.4-3.4 4.2-.6 1.8-.4 3.8.6 5.5 1.3 2.5 4 4 6.8 3.8.3 0 .5.2.5.5q.15 2.25 1.2 4.2c2.6 4.9 8.7 6.7 13.5 4.2l.2-.1c.2-.1.5-.1.6.1 1.4 1.7 3.2 2.5 5.4 2.6 3.2.1 5.3-1.8 6.4-3.3 1.6-2.2 2-4.8 1.8-5.4-.1-.2 0-.4.2-.6.2-.1.4-.2.6 0 0 0 1.8 1 3.4.3 1.2-.5 2-1.8 2.5-3.8 0-.2.2-.3.3-.4 0 0 3.6-1.1 4.8-3.7.6-1.1.6-2.4 0-3.8-.1-.2 0-.4.1-.5s.3-.2.5-.1c0 0 2.7.8 4.6-.4 1-.7 1.7-1.8 1.9-3.5 0-.3.3-.5.6-.4.3 0 .5.3.4.6q-.45 3-2.4 4.2c-1.6 1-3.4.9-4.5.7.3 1.3.2 2.6-.3 3.8-1.2 2.5-4.2 3.8-5.2 4.1-.6 2.2-1.6 3.6-3.1 4.2-1.3.5-2.6.3-3.4 0 0 1.4-.7 3.6-2 5.4-1.5 1.6-3.7 3.6-7.3 3.6" class="st7"/><path d="M22.6 139.3c-.2 0-.5-.2-.5-.4 0-.1-.2-1.5.7-3.8.1-.3.4-.4.6-.3.3.1.4.4.3.6-.8 2.1-.7 3.3-.7 3.4.2.2 0 .5-.4.5q.15 0 0 0" class="st7"/></svg>