<?xml version="1.0" encoding="utf-8"?>
<!-- Generator: Adobe Illustrator 26.5.0, SVG Export Plug-In . SVG Version: 6.00 Build 0)  -->
<svg version="1.1" id="Layer_1" xmlns="http://www.w3.org/2000/svg" xmlns:xlink="http://www.w3.org/1999/xlink" x="0px" y="0px"
	 viewBox="0 0 200 164" style="enable-background:new 0 0 200 164;" xml:space="preserve">
<style type="text/css">
	.st0{fill:#03D47C;}
	.st1{fill:#002E22;}
	.st2{fill:#4ED7DE;}
	.st3{fill:#E4BC07;}
	.st4{fill:#FF7101;}
	.st5{fill:#0185FF;}
	.st6{fill:#FFFAF0;}
	.st7{fill:#002140;}
</style>
<g>
	<g>
		<path class="st0" d="M100,0L100,0c16.6,0,30,13.4,30,30l0,0c0,16.6-13.4,30-30,30l0,0c-16.6,0-30-13.4-30-30l0,0
			C70,13.4,83.4,0,100,0z"/>
	</g>
	<g>
		<path class="st1" d="M108.3,23.1v-4.9H91.7v23.6h16.6v-4.9H97.8v-4.5h8.4v-5h-8.4v-4.3H108.3z"/>
	</g>
	<g>
		<path class="st1" d="M100,10.4C100,10.4,100,10.4,100,10.4c4.2,0,8,1.3,11.2,3.5c0.8,0.6,1.9,0.5,2.6-0.2l0,0
			c0.8-0.8,0.7-2.1-0.2-2.7c-3.9-2.8-8.6-4.4-13.7-4.4C87.1,6.6,76.6,17.1,76.6,30c0,5.1,1.6,9.8,4.4,13.7c0.6,0.9,1.9,0.9,2.7,0.2
			l0,0c0.7-0.7,0.7-1.8,0.2-2.6c-2.2-3.2-3.5-7-3.5-11.2C80.4,19.2,89.2,10.4,100,10.4C100,10.4,100,10.4,100,10.4L100,10.4z"/>
	</g>
	<g>
		<path class="st1" d="M119.3,16.8c-0.6-0.9-2-1-2.8-0.2l0,0c-0.7,0.7-0.7,1.8-0.2,2.6c2,3.1,3.3,6.8,3.3,10.8c0,4-1.3,7.9-3.4,11
			c-0.5,0.8-0.5,1.9,0.2,2.6l0,0c0.8,0.8,2.1,0.7,2.7-0.2c2.7-3.8,4.3-8.5,4.3-13.5C123.4,25,121.9,20.5,119.3,16.8z"/>
	</g>
	<g>
		<path class="st1" d="M100,49.6c-4,0-7.7-1.2-10.8-3.3c-0.8-0.5-1.9-0.5-2.6,0.2l0,0c-0.8,0.8-0.7,2.1,0.2,2.8
			c3.8,2.6,8.3,4.1,13.2,4.1c4.9,0,9.6-1.6,13.5-4.3c0.9-0.6,1-2,0.2-2.7l0,0c-0.7-0.7-1.8-0.7-2.6-0.2
			C107.9,48.4,104.1,49.6,100,49.6z"/>
	</g>
	<g>
		<path class="st2" d="M177.2,46.7c0,0,1.7,6.9-7.5,21.6c-9.2,14.7-19.6,30.9-39.8,41.1c-20.2,10.2-36.8,10.8-36.8,10.8
			s-12,1.2-14.6,0.5c0,0-7.3-4.8-6.4-9.9l1.3-3.4c0,0,8.6-21.2,26-37.1c17.4-15.9,28.2-19.9,28.2-19.9s17-6.6,26.5-7.4
			C163.5,42,175,42.6,177.2,46.7z"/>
	</g>
	<g>
		<path class="st3" d="M152.2,43.2c0,0-0.3,9,7.1,16.2c7.4,7.2,10.3,8.6,10.3,8.6l-7.6,11.9c0,0-13.9-5.9-20.1-15.8
			c-6.2-10-6.9-14.5-7-15.4c-0.1-0.9,2-1.7,2-1.7l3.2-1.3L152.2,43.2L152.2,43.2z"/>
	</g>
	<g>
		<path class="st4" d="M152.4,43.1c0,0,20.5-2.6,24.5,3c2.4,3.6-5,20.1-7,21.9C166,66.6,150.3,51.5,152.4,43.1z"/>
	</g>
	<g>
		<path class="st2" d="M138.9,50.4l-10.4,5l0,3.1L117,65.3c0,0-2.1-1.5-2.6-3.2c-0.4-1.7-0.1-3.2-0.1-3.2l0.5-7.8c0,0,1.1-1.4,1.9-2
			c0.8-0.5,7-4.2,7-4.2l2.2,1.3l11.1-5.5l2.1,6.4L138.9,50.4L138.9,50.4z"/>
	</g>
	<g>
		<path class="st5" d="M137.1,44.7c-1.2-0.9-1.8-2.4-1.1-3.2c0.6-0.9,2.2-0.8,3.4,0.1c1.2,0.9,1.8,2.4,1.1,3.2
			C139.9,45.6,138.4,45.6,137.1,44.7z"/>
	</g>
	<g>
		<path class="st5" d="M136.4,49.1c-1.2-0.9-1.8-2.4-1.1-3.2c0.6-0.9,2.2-0.8,3.4,0.1c1.2,0.9,1.8,2.4,1.1,3.2
			C139.2,50,137.7,50,136.4,49.1z"/>
	</g>
	<g>
		<path class="st5" d="M128.7,55.5l-0.2,3.3l-11.8,6.7c0,0-3.8-4.4-2.2-6.1c1.6-1.7,8.5-5.4,8.5-5.4l0.9-8.8l1.9,1.3
			c0,0-1.1,0.5-0.7,1.8c0.4,1.3,1.1,2.1,1.1,2.1l-1.7,1.3c0,0-0.9,0.8,0.3,2.3C126.1,55.2,127.7,56,128.7,55.5L128.7,55.5z"/>
	</g>
	<g>
		<path class="st5" d="M121.9,48.9l-0.2,1.9c0,0-2-0.9-1.1-1.7C121.5,48.3,121.6,48.3,121.9,48.9L121.9,48.9z"/>
	</g>
	<g>
		<path class="st2" d="M99.9,83.5c0,0,1,0.9,0.1,1.9c-0.9,1-20,19.7-21.5,21.4c0,0-3.5,3.8-5.4,0.2c-1.9-3.7-16.1-31.6-16.1-31.6
			s-0.9-1.6,0.5-2.6c1.4-1,3.3-0.4,3.3-0.4L99.9,83.5L99.9,83.5z"/>
	</g>
	<g>
		<path class="st3" d="M92.3,85.6c0,0-14.3,14.1-16.4,16.8L62.7,77.1L92.3,85.6z"/>
	</g>
	<g>
		<path class="st4" d="M97.2,72.5L90.4,80l-8.2-2l2-11.7c0,0,0.6-1.4,1.6-0.8C86.7,66,97.2,72.5,97.2,72.5L97.2,72.5z"/>
	</g>
	<g>
		<path class="st4" d="M102.3,93.5c0,0,0.9-0.1,1.4,0.4c0.5,0.6-0.1,1.8-0.1,1.8l-9.4,34c0,0-0.3,1.1-0.8,1
			c-0.6-0.1-1.3-0.6-1.3-0.6l-12-17.7l0.3-1.1C80.4,111.4,88.7,100.7,102.3,93.5L102.3,93.5z"/>
	</g>
	<g>
		<path class="st3" d="M79.1,121l-5.2,3.3c0,0-3.5,0.9-6.8-5.2c-1.2-2.2-1.2-4.1-0.7-4.7c0.5-0.6,5.3-3.5,5.3-3.5
			S71.6,117.7,79.1,121z"/>
	</g>
	<g>
		<path class="st6" d="M66.6,114.5c0,0-1.5,2.9,1.1,6c2.6,3.1,4,4.1,4,4.1s-0.3,2.9-2.3,3.8c-2,0.9-4.6,0.4-4.6,0.4l0,0.8
			c0,0,2.1,4.7-5.5,7.3c0,0-1,6.3-6.4,3.9c0,0-0.4,7.7-6.6,9.1c-6.1,1.4-7.8-2.5-7.8-2.5s-7,3-11.1-0.5c-4.2-3.5-4.7-8.2-4.7-8.2
			s-5.2-0.3-7.1-4c-1.9-3.7-0.3-8,1.7-9.7c2-1.7,5.3-1.9,8-1c2.7,0.9,4.2,4.4,4.2,4.4s3.5-0.8,5-0.5c0,0,1.6-4.5,5-5.5
			c3.4-1,6.5,0.1,7.8,1.3c0,0,0.8-3.5,3.3-4.9c2.5-1.4,5.2-0.4,6.8,0c0,0,1.1-4.2,3.9-5C64.1,112.9,66.6,114.5,66.6,114.5
			L66.6,114.5z"/>
	</g>
	<g>
		<path class="st6" d="M137.9,97.7c4.1-3,7.2-6.2,10.4-10.7c0.8-1.1,0.7-2.6-0.1-3.7c-1.3-1.5-3.6-1.5-4.8,0.1c-2,2.8-5.3,6.7-9,9.2
			c-1.3,0.9-1.7,2.6-0.9,4l0.1,0.1C134.4,98.3,136.5,98.8,137.9,97.7L137.9,97.7z"/>
	</g>
	<g>
		<path class="st6" d="M167.2,61.1c-1.4-0.7-1.6-3-0.6-5.2c1.1-2.2,3.1-3.5,4.5-2.8c1.4,0.7,1.6,3,0.6,5.2
			C170.6,60.6,168.6,61.8,167.2,61.1z"/>
	</g>
	<g>
		<path class="st4" d="M73.3,84.3l3.2,1.3l2.9-1.9l-0.2,3.5l2.8,2.2l-3.4,0.9l-1.2,3.3l-1.9-2.9l-3.5-0.1l2.2-2.7L73.3,84.3z"/>
	</g>
	<g>
		<path class="st7" d="M75.7,109c-0.2,0-0.3,0-0.5,0c-1.1-0.1-2.1-0.8-2.5-1.7l-16-31.4c-0.6-1.2-0.4-2.5,0.4-3.5
			c0.8-1,2.1-1.4,3.3-1l17.4,4.9c3.4,1,6.9,1.9,10.3,2.9c2,0.6,4,1.1,6,1.7c0.4,0.1,0.8,0.2,1.2,0.3c0.9,0.2,1.8,0.5,2.6,0.8
			l0.2,0.1c1.3,0.4,2.6,1,2.8,2.1c0.1,0.6-0.1,1.1-0.8,1.6c0,0,0,0,0,0l-1,1c-4.6,4.3-16.8,15.8-21.1,21.1
			C77.5,108.6,76.6,109,75.7,109z M59.5,72.3c-0.6,0-1.2,0.3-1.7,0.8c-0.6,0.7-0.7,1.6-0.2,2.4l16,31.4c0.3,0.6,1,1,1.7,1.1
			c0.8,0.1,1.5-0.1,1.9-0.7c4.3-5.4,16.6-16.9,21.2-21.2l1.1-1c0,0,0,0,0.1,0c0.2-0.2,0.4-0.4,0.4-0.7c-0.1-0.3-0.5-0.7-2.2-1.3
			L97.6,83c-0.8-0.3-1.7-0.5-2.5-0.7c-0.4-0.1-0.8-0.2-1.3-0.3c-2-0.6-4-1.1-6-1.7c-3.4-1-6.9-1.9-10.3-2.9l-17.4-4.9
			C59.9,72.3,59.7,72.3,59.5,72.3z"/>
	</g>
	<g>
		<path class="st7" d="M75.9,102.9C75.8,102.9,75.8,102.9,75.9,102.9c-0.2,0-0.4-0.1-0.4-0.3l-8.1-15.8l-4-7.4l-1.1-2.2
			c-0.1-0.2-0.1-0.4,0.1-0.5c0.1-0.2,0.3-0.2,0.5-0.2l1.7,0.5l12.3,3.3c0,0,0,0,0,0L92.6,85c0.2,0,0.3,0.2,0.3,0.4
			c0,0.2,0,0.4-0.1,0.5l-16.6,16.9C76.1,102.8,76,102.9,75.9,102.9z M63.6,77.8l0.6,1.1l4,7.4l7.8,15.2l15.5-15.8l-15-4.4L63.6,77.8
			z"/>
	</g>
	<g>
		<path class="st7" d="M72,111.3c0,0-0.1,0-0.1,0c-0.3-0.1-0.4-0.4-0.3-0.6c0.2-0.7,0.6-1.8,1.1-3.1c0.1-0.3,0.4-0.4,0.7-0.3
			c0.3,0.1,0.4,0.4,0.3,0.7c-0.7,1.8-1,2.7-1.1,3C72.4,111.2,72.2,111.3,72,111.3z"/>
	</g>
	<g>
		<path class="st7" d="M90.1,80.7c-0.1,0-0.2,0-0.3-0.1c-0.2-0.2-0.3-0.5-0.1-0.7c6.4-8,14.1-14.9,24.1-21.8
			c0.2-0.2,0.5-0.1,0.7,0.1c0.2,0.2,0.1,0.5-0.1,0.7c-10,6.9-17.6,13.7-23.9,21.6C90.4,80.7,90.2,80.7,90.1,80.7z"/>
	</g>
	<g>
		<path class="st7" d="M97.8,119.9c-0.2,0-0.5-0.2-0.5-0.4c0-0.3,0.1-0.5,0.4-0.6c9.1-1.5,22.6-4.8,35-11.9
			c21-11.1,40.9-42.5,43.8-55.3c0.6-2.6,0.5-4.4-0.2-5.3c-1.5-2-6.2-3.3-12.6-3.5c-7.3-0.2-16,1.1-24.4,3.6
			c-0.3,0.1-0.5-0.1-0.6-0.3c-0.1-0.3,0.1-0.5,0.3-0.6c14.7-4.4,34-5.4,38.2,0.2c0.9,1.2,1,3.2,0.4,6.1c-3.2,14.5-23.7,45.1-44.3,56
			C120.7,115.1,107.1,118.4,97.8,119.9C97.8,119.9,97.8,119.9,97.8,119.9z"/>
	</g>
	<g>
		<path class="st7" d="M82.9,121.4c-1.7,0-3.1-0.1-4.2-0.2c-0.3,0-0.5-0.3-0.4-0.6c0-0.3,0.3-0.5,0.6-0.4c1.5,0.2,3.8,0.3,6.6,0.2
			c0.3,0,0.5,0.2,0.5,0.5c0,0.3-0.2,0.5-0.5,0.5C84.6,121.4,83.8,121.4,82.9,121.4z"/>
	</g>
	<g>
		<path class="st7" d="M93.1,131.4c-0.6,0-1.1-0.3-1.5-0.8L80,113.2c-0.4-0.6-0.4-1.5,0.1-2.1c0,0,0,0,0,0c2.6-3.1,12-13.6,21.9-18
			c0.6-0.3,1.4-0.2,1.9,0.3c0.5,0.5,0.7,1.2,0.6,1.8l-9.6,34.9c-0.2,0.7-0.7,1.2-1.4,1.3C93.3,131.4,93.2,131.4,93.1,131.4z
			 M80.9,111.7C80.8,111.7,80.8,111.7,80.9,111.7c-0.2,0.3-0.3,0.7-0.1,0.9l11.7,17.4c0.2,0.3,0.5,0.4,0.8,0.3
			c0.3,0,0.5-0.2,0.6-0.5l9.6-34.9c0.1-0.3,0-0.6-0.2-0.8c-0.2-0.2-0.5-0.3-0.8-0.1C92.7,98.3,83.5,108.6,80.9,111.7z"/>
	</g>
	<g>
		<path class="st7" d="M82.3,78.5C82.2,78.5,82.2,78.5,82.3,78.5c-0.4-0.1-0.5-0.3-0.5-0.6l1.9-11.4c0.1-0.6,0.5-1.1,1-1.3
			c0.6-0.3,1.3-0.2,1.8,0.1l10.9,6.8c0.2,0.1,0.3,0.5,0.2,0.7s-0.5,0.3-0.7,0.2L86,66.1c-0.3-0.2-0.6-0.2-0.9-0.1
			c-0.2,0.1-0.4,0.3-0.5,0.6l-1.9,11.4C82.7,78.3,82.5,78.5,82.3,78.5z"/>
	</g>
	<g>
		<path class="st7" d="M169.7,68.5c-0.1,0-0.2,0-0.3-0.1c-18.2-12.5-17.6-24.5-17.6-25c0-0.3,0.3-0.5,0.5-0.5c0.3,0,0.5,0.3,0.5,0.5
			c0,0.1-0.5,12,17.2,24.1c0.2,0.2,0.3,0.5,0.1,0.7C170,68.5,169.8,68.5,169.7,68.5z"/>
	</g>
	<g>
		<path class="st7" d="M161.9,80.6c-0.1,0-0.1,0-0.2,0c-18.6-8.9-24.5-21.9-26.3-28.9c-0.1-0.3,0.1-0.5,0.4-0.6
			c0.3-0.1,0.5,0.1,0.6,0.4c1.8,6.8,7.5,19.6,25.8,28.3c0.2,0.1,0.4,0.4,0.2,0.7C162.2,80.5,162.1,80.6,161.9,80.6z"/>
	</g>
	<g>
		<path class="st7" d="M73.3,125c-1.5,0-3.6-1.4-5.4-3.8c-1-1.4-1.8-2.8-2.1-4.1c-0.3-1.4-0.1-2.5,0.6-3.1c0.2-0.2,0.5-0.1,0.7,0.1
			c0.2,0.2,0.1,0.5-0.1,0.7c-0.4,0.3-0.5,1.1-0.2,2c0.3,1.2,0.9,2.5,1.9,3.8c1.9,2.6,4.3,3.9,5.1,3.3c0.2-0.2,0.5-0.1,0.7,0.1
			c0.2,0.2,0.1,0.5-0.1,0.7C74.1,124.9,73.7,125,73.3,125z"/>
	</g>
	<g>
		<path class="st7" d="M75.9,123.3c-1.5,0-3.6-1.4-5.4-3.8c-1-1.4-1.8-2.8-2.1-4.1c-0.3-1.4-0.1-2.5,0.6-3.1
			c0.2-0.2,0.5-0.1,0.7,0.1c0.2,0.2,0.1,0.5-0.1,0.7c-0.4,0.3-0.5,1.1-0.2,2c0.3,1.2,0.9,2.5,1.9,3.8c1.9,2.6,4.3,3.9,5.1,3.3
			c0.2-0.2,0.5-0.1,0.7,0.1c0.2,0.2,0.1,0.5-0.1,0.7C76.7,123.1,76.3,123.3,75.9,123.3z"/>
	</g>
	<g>
		<path class="st7" d="M78.8,121.3C78.8,121.3,78.8,121.3,78.8,121.3c-1.6-0.2-3.5-1.7-5.1-3.8c-2.1-2.8-2.8-5-2.2-6.8
			c0.1-0.3,0.4-0.4,0.6-0.3c0.3,0.1,0.4,0.4,0.3,0.6c-0.5,1.4,0.2,3.4,2.1,5.9c1.4,1.9,3.1,3.2,4.3,3.4c0.3,0,0.5,0.3,0.4,0.6
			C79.3,121.1,79.1,121.3,78.8,121.3z"/>
	</g>
	<g>
		<path class="st7" d="M74.1,124.7c-0.2,0-0.3-0.1-0.4-0.2c-0.1-0.2-0.1-0.5,0.2-0.7l5.2-3.3c0.2-0.1,0.5-0.1,0.7,0.2
			c0.1,0.2,0.1,0.5-0.2,0.7l-5.2,3.3C74.3,124.7,74.2,124.7,74.1,124.7z"/>
	</g>
	<g>
		<path class="st7" d="M45.4,139.3c-0.1,0-0.2,0-0.3-0.1c-0.8-0.7-1.3-1.8-1.3-3c0-0.8,0.3-1.7,0.9-2.5c-0.6-0.5-1.1-1.1-1.3-1.7
			c-0.4-1-0.1-2.1,0.5-2.7c0.2-0.2,0.5-0.2,0.7,0c0.2,0.2,0.2,0.5,0,0.7c-0.4,0.4-0.5,1-0.3,1.7c0.2,0.6,0.7,1.1,1.4,1.5
			c0.1,0.1,0.2,0.2,0.2,0.3c0,0.1,0,0.3-0.1,0.4c-0.6,0.8-0.9,1.6-1,2.4c-0.1,0.9,0.3,1.7,0.9,2.2c0.2,0.2,0.3,0.5,0.1,0.7
			C45.7,139.2,45.6,139.3,45.4,139.3z"/>
	</g>
	<g>
		<path class="st7" d="M59.5,123c-0.1,0-0.2,0-0.3-0.1c-2.3-1.3-2.2-4-2.2-4.1c0-0.3,0.2-0.5,0.5-0.5c0.3,0,0.5,0.2,0.5,0.5
			c0,0.1,0,2.2,1.7,3.2c0.2,0.1,0.3,0.4,0.2,0.7C59.9,122.9,59.7,123,59.5,123z"/>
	</g>
	<g>
		<path class="st7" d="M55.2,134.1c-0.4,0-0.8-0.1-1.1-0.2c-0.3-0.1-0.4-0.4-0.2-0.7c0.1-0.2,0.4-0.4,0.7-0.2
			c0.7,0.3,1.6,0.1,2.3-0.5c0.6-0.5,1-1.3,1.3-2.4c0.1-0.3,0.3-0.4,0.6-0.4c0.3,0.1,0.4,0.3,0.4,0.6c-0.3,1.3-0.9,2.2-1.6,2.9
			C56.8,133.8,56,134.1,55.2,134.1z"/>
	</g>
	<g>
		<path class="st7" d="M139,46.2c-0.8,0-1.7-0.3-2.4-1c-0.8-0.7-1.3-1.6-1.3-2.5c0-0.6,0.1-1.2,0.5-1.7c0.9-1.1,2.8-1,4.2,0.2
			c0.8,0.7,1.3,1.6,1.3,2.5c0,0.6-0.1,1.2-0.5,1.7C140.4,45.9,139.7,46.2,139,46.2z M137.6,41.3c-0.4,0-0.8,0.1-1,0.4
			c-0.3,0.3-0.3,0.7-0.3,0.9c0,0.6,0.4,1.3,1,1.8c1,0.8,2.2,1,2.8,0.3c0.3-0.3,0.3-0.7,0.3-0.9c0-0.6-0.4-1.3-1-1.8
			C138.8,41.6,138.1,41.3,137.6,41.3z"/>
	</g>
	<g>
		<path class="st7" d="M138.3,50.6c-0.8,0-1.7-0.3-2.5-1c-0.8-0.7-1.3-1.6-1.3-2.5c0-0.6,0.1-1.2,0.5-1.6c0.9-1.1,2.8-1,4.2,0.3
			c0.8,0.7,1.3,1.6,1.3,2.5c0,0.6-0.1,1.2-0.5,1.6C139.6,50.4,139,50.6,138.3,50.6z M136.7,45.8c-0.4,0-0.8,0.1-1,0.4
			c-0.3,0.3-0.3,0.7-0.3,0.9c0,0.6,0.4,1.3,1,1.8l0,0c1,0.8,2.2,1,2.8,0.4c0.3-0.3,0.3-0.7,0.3-0.9c0-0.6-0.4-1.3-1-1.8
			C138,46,137.3,45.8,136.7,45.8z"/>
	</g>
	<g>
		<path class="st7" d="M126.5,50.7c-0.1,0-0.2,0-0.3-0.1c-1.4-1.2-1.7-3.1-0.8-4.1c0.2-0.3,0.6-0.5,0.9-0.6c0.3-0.1,0.5,0,0.6,0.3
			c0.1,0.3,0,0.5-0.3,0.6c-0.2,0.1-0.4,0.2-0.5,0.3c-0.6,0.7-0.2,1.9,0.7,2.7c0.2,0.2,0.2,0.5,0,0.7
			C126.7,50.6,126.6,50.7,126.5,50.7z"/>
	</g>
	<g>
		<path class="st7" d="M127.7,56c-0.8,0-1.7-0.3-2.4-1c-1.4-1.2-1.7-3.1-0.8-4.1c0.1-0.1,0.3-0.3,0.4-0.4c0.2-0.2,0.5-0.1,0.7,0.1
			c0.2,0.2,0.1,0.5-0.1,0.7c-0.1,0.1-0.2,0.1-0.2,0.2c-0.6,0.6-0.2,1.9,0.7,2.7c0.7,0.6,1.6,0.9,2.3,0.7c0.3-0.1,0.5,0,0.6,0.3
			c0.1,0.3,0,0.5-0.3,0.6C128.3,55.9,128,56,127.7,56z"/>
	</g>
	<g>
		<path class="st7" d="M126.3,46.9c-0.2,0-0.4-0.1-0.4-0.3c-0.1-0.2,0-0.5,0.2-0.7l10.1-5.1c0.2-0.1,0.5,0,0.7,0.2
			c0.1,0.2,0,0.5-0.2,0.7l-10.1,5.1C126.4,46.8,126.3,46.9,126.3,46.9z"/>
	</g>
	<g>
		<path class="st7" d="M125.2,51.4c-0.2,0-0.4-0.1-0.4-0.3c-0.1-0.2,0-0.5,0.2-0.7l10.8-5.5c0.2-0.1,0.5,0,0.7,0.2s0,0.5-0.2,0.7
			l-10.8,5.5C125.4,51.4,125.3,51.4,125.2,51.4z"/>
	</g>
	<g>
		<path class="st7" d="M128.4,55.9c-0.2,0-0.4-0.1-0.4-0.3c-0.1-0.2,0-0.5,0.2-0.7l10.6-5.4c0.2-0.1,0.5,0,0.7,0.2
			c0.1,0.2,0,0.5-0.2,0.7l-10.6,5.4C128.6,55.9,128.5,55.9,128.4,55.9z"/>
	</g>
	<g>
		<path class="st7" d="M136.9,44.8c-0.8-0.7-1.1-1.8-0.6-2.4c0.5-0.6,1.7-0.5,2.5,0.2c0.8,0.7,1.1,1.8,0.6,2.4
			S137.8,45.5,136.9,44.8z"/>
	</g>
	<g>
		<path class="st7" d="M136.3,49.3c-0.8-0.7-1.1-1.8-0.6-2.4c0.5-0.6,1.7-0.5,2.5,0.2c0.8,0.7,1.1,1.8,0.6,2.4
			C138.3,50.1,137.1,50,136.3,49.3z"/>
	</g>
	<g>
		<path class="st7" d="M116.9,65.8c-0.1,0-0.3,0-0.4-0.1c-2.1-2-3.1-3.9-2.9-5.4c0.1-1,0.6-1.8,1.6-2.5c0.5-0.3,7-4.2,7.3-4.4
			c0.2-0.1,0.5-0.1,0.7,0.2c0.1,0.2,0.1,0.5-0.2,0.7c-1.9,1.1-6.9,4.1-7.3,4.3c-0.7,0.5-1.1,1-1.1,1.7c-0.1,1.2,0.7,2.6,2.4,4.3
			l11.3-6.5c0.2-0.1,0.5-0.1,0.7,0.2c0.1,0.2,0.1,0.5-0.2,0.7l-11.6,6.7C117.1,65.8,117,65.8,116.9,65.8z"/>
	</g>
	<g>
		<path class="st7" d="M114.8,52.6c-0.3,0-0.5-0.2-0.5-0.5c0-0.8,0.2-2,1.6-2.9c0.6-0.4,4.5-2.9,7.7-4.9c0.2-0.1,0.5-0.1,0.7,0.2
			c0.1,0.2,0.1,0.5-0.2,0.7c-4.6,2.9-7.2,4.5-7.7,4.8c-0.8,0.6-1.2,1.2-1.2,2C115.3,52.4,115.1,52.6,114.8,52.6
			C114.8,52.6,114.8,52.6,114.8,52.6z"/>
	</g>
	<g>
		<path class="st7" d="M128.5,59.1c-0.1,0-0.2,0-0.3-0.1l-5.4-4.6c-0.1-0.1-0.2-0.3-0.2-0.4l0.7-9.2c0-0.2,0.1-0.4,0.3-0.4
			c0.2-0.1,0.4,0,0.5,0.1l2,1.7c0.2,0.2,0.2,0.5,0,0.7c-0.2,0.2-0.5,0.2-0.7,0l-1.2-1.1l-0.6,7.9l4.4,3.8l0.1-2.2
			c0-0.3,0.2-0.5,0.5-0.5c0.3,0,0.5,0.2,0.5,0.5l-0.1,3.2c0,0.2-0.1,0.4-0.3,0.4C128.7,59.1,128.6,59.1,128.5,59.1z"/>
	</g>
	<g>
		<path class="st7" d="M114.3,60.1C114.2,60.1,114.2,60.1,114.3,60.1c-0.3,0-0.5-0.3-0.5-0.5l0.5-8.1c0-0.3,0.2-0.5,0.5-0.5
			c0.3,0,0.5,0.3,0.5,0.5l-0.5,8.1C114.7,59.9,114.5,60.1,114.3,60.1z"/>
	</g>
	<g>
		<path class="st7" d="M117.6,54c-0.1,0-0.2,0-0.3-0.1c-1.3-1.1-1.3-2.6-0.9-3c0.1-0.1,0.2-0.3,4.2-2.6c0.2-0.1,0.5-0.1,0.7,0.2
			c0.1,0.2,0.1,0.5-0.2,0.7c-1.6,1-3.5,2.1-3.9,2.4c0,0.2,0,0.8,0.5,1.4l3.7-2.3c0.2-0.1,0.5-0.1,0.7,0.2c0.1,0.2,0.1,0.5-0.2,0.7
			l-4,2.5C117.8,54,117.7,54,117.6,54z"/>
	</g>
	<g>
		<path class="st7" d="M121.7,51.4c-0.1,0-0.1,0-0.2,0c-0.3-0.1-0.5-0.3-0.8-0.5c-0.8-0.7-1-1.8-0.5-2.4c0.2-0.2,0.5-0.5,1-0.5
			c0.2,0,0.6,0,1,0.4c0.2,0.2,0.2,0.5,0,0.7c-0.2,0.2-0.5,0.2-0.7,0c-0.1-0.1-0.2-0.1-0.3-0.1c-0.1,0-0.2,0.1-0.3,0.2
			c-0.2,0.2,0,0.7,0.4,1c0.1,0.1,0.3,0.2,0.4,0.3c0.3,0.1,0.4,0.4,0.3,0.6C122.1,51.3,121.9,51.4,121.7,51.4z"/>
	</g>
	<g>
		<path class="st7" d="M121.8,51.4C121.8,51.4,121.8,51.4,121.8,51.4c-0.3,0-0.5-0.3-0.5-0.5l0.2-2.1c0-0.3,0.3-0.5,0.5-0.5
			c0.3,0,0.5,0.3,0.5,0.5l-0.2,2.1C122.3,51.2,122.1,51.4,121.8,51.4z"/>
	</g>
	<g>
		<path class="st7" d="M44.3,150.6c-0.1,0-0.2,0-0.2,0c-2.4-0.1-4.4-1-5.9-2.6c-5.3,2.7-11.9,0.6-14.7-4.7c-0.7-1.3-1.1-2.7-1.3-4.1
			c-3,0-5.8-1.7-7.2-4.4c-1-2-1.3-4.2-0.6-6.3c0.6-2.1,2-3.8,3.9-4.8c4-2.1,8.9-0.6,11.1,3.4c0.1,0.2,0.2,0.4,0.3,0.6
			c1.5-0.5,3-0.6,4.6-0.4c0.5-2.1,2.4-4.8,6-5.8c3.2-0.9,5.6,0.4,6.7,1.3c0.3-1.3,1.2-3.5,3.9-4.9c2.8-1.4,5.1-0.5,6.2,0.1
			c0.3-1.2,1.1-3.3,3.5-4.6c2.8-1.5,5.2-0.2,6,0.4l4.8-3.2c0.2-0.2,0.5-0.1,0.7,0.1c0.2,0.2,0.1,0.5-0.1,0.7l-5.1,3.4
			c-0.2,0.1-0.4,0.1-0.6,0c-0.1-0.1-2.4-2-5.2-0.5c-2.8,1.6-3.1,4.5-3.1,4.6c0,0.2-0.1,0.4-0.3,0.4s-0.4,0-0.5-0.1
			c-0.1-0.1-2.5-2.2-5.7-0.5c-3.3,1.7-3.5,4.8-3.5,5c0,0.2-0.1,0.4-0.3,0.5c-0.2,0.1-0.4,0-0.5-0.1c-0.1-0.1-2.5-2.7-6.5-1.6
			c-4.6,1.3-5.3,5-5.4,5.4c0,0.3-0.3,0.5-0.6,0.4c-1.7-0.3-3.4-0.1-5,0.5c-0.3,0.1-0.5,0-0.6-0.3c-0.1-0.3-0.3-0.6-0.4-0.9
			c-1.9-3.5-6.2-4.9-9.7-3c-1.7,0.9-2.9,2.4-3.4,4.2c-0.6,1.8-0.4,3.8,0.6,5.5c1.3,2.5,4,4,6.8,3.8c0.3,0,0.5,0.2,0.5,0.5
			c0.1,1.5,0.5,2.9,1.2,4.2c2.6,4.9,8.7,6.7,13.5,4.2l0.2-0.1c0.2-0.1,0.5-0.1,0.6,0.1c1.4,1.7,3.2,2.5,5.4,2.6
			c3.2,0.1,5.3-1.8,6.4-3.3c1.6-2.2,2-4.8,1.8-5.4c-0.1-0.2,0-0.4,0.2-0.6c0.2-0.1,0.4-0.2,0.6,0c0,0,1.8,1,3.4,0.3
			c1.2-0.5,2-1.8,2.5-3.8c0-0.2,0.2-0.3,0.3-0.4c0,0,3.6-1.1,4.8-3.7c0.6-1.1,0.6-2.4,0-3.8c-0.1-0.2,0-0.4,0.1-0.5s0.3-0.2,0.5-0.1
			c0,0,2.7,0.8,4.6-0.4c1-0.7,1.7-1.8,1.9-3.5c0-0.3,0.3-0.5,0.6-0.4c0.3,0,0.5,0.3,0.4,0.6c-0.3,2-1.1,3.4-2.4,4.2
			c-1.6,1-3.4,0.9-4.5,0.7c0.3,1.3,0.2,2.6-0.3,3.8c-1.2,2.5-4.2,3.8-5.2,4.1c-0.6,2.2-1.6,3.6-3.1,4.2c-1.3,0.5-2.6,0.3-3.4,0
			c0,1.4-0.7,3.6-2,5.4C50.1,148.6,47.9,150.6,44.3,150.6z"/>
	</g>
	<g>
		<path class="st7" d="M22.6,139.3c-0.2,0-0.5-0.2-0.5-0.4c0-0.1-0.2-1.5,0.7-3.8c0.1-0.3,0.4-0.4,0.6-0.3c0.3,0.1,0.4,0.4,0.3,0.6
			c-0.8,2.1-0.7,3.3-0.7,3.4C23.2,139,23,139.3,22.6,139.3C22.7,139.3,22.7,139.3,22.6,139.3z"/>
	</g>
</g>
</svg>
