<svg xmlns="http://www.w3.org/2000/svg" xmlns:xlink="http://www.w3.org/1999/xlink" id="Layer_1" version="1.1" viewBox="0 0 148 181"><defs><style>.st0,.st1,.st2{fill:none}.st3{fill:#bf3013}.st4{fill:#a65e3a}.st1{stroke:#fed607;stroke-miterlimit:10}.st1,.st2{stroke-linecap:round}.st5{fill:#f25730}.st6{fill:#5ab0ff}.st7{fill:#fffaf0}.st8{fill:#134038}.st9{fill:#002140}.st2{stroke:#002140;stroke-linejoin:round}.st10{fill:#50eef6}.st11{fill:#b0d9ff}.st12{fill:#fed607}.st13{fill:#e4bc07}.st14{clip-path:url(#clippath)}.st15{fill:#4ba6a6}</style><clipPath id="clippath"><rect width="147.64" height="180" x=".18" y=".5" class="st0"/></clipPath></defs><g class="st14"><g><path d="M99.036,147.987v5.174s11.394,2.71,12.137,12.197c.743,9.487-18.327,14.292-27.989,14.292H10.613s-2.724-.617-2.724-4.313.62-17.988.62-17.988c0,0,.495-5.052,5.944-5.052s50.154-.122,50.154-.122l.123-4.805" class="st5"/><path d="M81.692,154.237c9.356,0,16.94-3.365,16.94-7.515s-7.584-7.514-16.94-7.514-16.94,3.364-16.94,7.514,7.584,7.515,16.94,7.515Z" class="st12"/><path d="M81.497,149.578c3.308,0,5.99-1.261,5.99-2.818s-2.682-2.817-5.99-2.817-5.99,1.261-5.99,2.817,2.682,2.818,5.99,2.818Z" class="st5"/><path d="M104.98,174.104s-4.272-7.392-12.631-9.794c-8.359-2.403-23.963-5.914-27.492-13.306l-.094,15.062s4.181,4.066,8.731,5.544c4.552,1.479,10.774,3.051,11.425,7.947,0,0,9.568-.555,13.003-1.942,3.438-1.387,7.059-3.511,7.059-3.511Z" class="st10"/><path d="M64.762,166.067s1.952,2.587,4.458,3.696c2.509,1.109,14.769,4.713,15.698,9.794l-23.963-.093s-6.41-1.942-10.402-2.496c-3.995-.555-10.496-2.403-11.331-5.544l22.291.184s3.252-.184,3.252-2.865v-2.681l-.002.005Z" class="st12"/><path d="M32.627,147.217v18.019s-1.952,1.387-3.995,1.387-3.158-1.848-3.158-1.848l-.094-17.556s4.181,1.018,7.245,0l.002-.002Z" class="st9"/><path d="M92.04,160.369l-1.983.122.557-1.97-.618-1.973,1.858.125,1.546-1.356.806,1.663,1.857,1.046-1.857,1.479-.371,1.663-1.795-.799Z" class="st12"/><path d="M76.858,161.151l-1.513,1.279-.741-1.91-1.681-1.212,1.561-1.008.425-2.007,1.645.852,2.118-.266-.598,2.29.704,1.555-1.92.427Z" class="st12"/><path d="M85.227,170.821l-1.906.554.109-2.044-1.042-1.788,1.841-.288,1.209-1.661,1.153,1.447,2.046.614-1.486,1.848.005,1.704-1.928-.386Z" class="st12"/><path d="M30.451,122.019s6.653-.477,9.138,7.495c.801,3.828-1.107,6.819-.883,8.931.224,2.112,1.201,5.023,1.201,6.54s-2.244,9.729-10.902,9.809c-8.658.079-10.661-8.295-10.581-9.968,0-2.472,1.522-4.944,1.283-7.416-.241-2.472-1.604-3.667-1.042-7.336.562-3.668,4.81-8.055,8.658-8.055s3.126,0,3.126,0h0Z" class="st10"/><path d="M32.614,123.214s-1.522.879-3.768.718c-2.246-.161-3.127-.638-3.127-.638,0,0-.801-4.865,3.447-4.944,4.248-.08,3.447,4.864,3.447,4.864h0Z" class="st5"/><path d="M25.961,128.957h7.213s.883.639,1.122,1.913c.241,1.277-.08,2.871-.321,3.269-.241.398-1.042,2.153-1.042,2.551s-.159,1.435-.159,1.435l-1.042.879h-4.649l-.883-.718-.241-1.754-1.684-3.111-.159-1.994.721-1.913,1.122-.559.002.002Z" class="st11"/><path d="M27.044,141.596s-.302-.778,1.083-.778h3.006s1.322.24,1.322,1.078v5.981s0,1.135-1.083,1.135h-3.486l-1.744-.06s-1.804-.898-1.744-1.795c.06-.898.301-2.093.301-2.093,0,0-.42-1.315-.241-1.855.179-.54.42-1.973,2.586-1.615v.002Z" class="st11"/><path d="M26.774,144.469c.416,0,.753-.335.753-.749s-.337-.749-.753-.749-.753.335-.753.749.337.749.753.749Z" class="st9"/><path d="M26.755,147.759c.416,0,.753-.335.753-.748s-.337-.749-.753-.749-.753.335-.753.749.337.748.753.748Z" class="st9"/><path d="M29.329,144.169h.782s.721.12.661.838c-.06.717-.601,1.017-.601,1.017l-1.023-.06-.301-.837.48-.958h.002Z" class="st6"/><path d="M27.802,135.615h3.175c.783,0,1.419-.632,1.419-1.411v-2.561c0-.779-.635-1.411-1.419-1.411h-3.175c-.784,0-1.418.632-1.418,1.411v2.561c0,.779.635,1.411,1.418,1.411Z" class="st6"/><path d="M19.595,79.77s7.078,7.034,6.497,18.422c-.581,11.388-1.935,14.707-1.935,14.707l15.305,3.888s7.022-15.177,4.53-27.859c-2.492-12.682-5.341-16.872-5.935-17.705-.593-.833-2.938.154-2.938.154l-3.621,1.32-11.901,7.073h-.002Z" class="st12"/><path d="M19.595,79.77S.758,92.984,1.757,100.501c.76,4.74,19.432,12.434,22.399,12.398,2.159-4.025,3.51-27.962-4.562-33.13Z" class="st5"/><path d="M35.811,75.392l12.294-3.72,2.391,2.46,14.573-3.082s.634-2.76-.321-4.486c-.953-1.726-2.304-2.606-2.304-2.606l-6.277-5.885s-1.954-.35-3.03-.192c-1.076.158-8.94,1.853-8.94,1.853l-.782,2.674-13.254,3.847,3.143,6.708,2.507,2.429h0Z" class="st10"/><path d="M33.077,69.422c.319-1.676-.372-3.214-1.543-3.435-1.172-.221-2.38.959-2.699,2.635-.319,1.676.372,3.214,1.543,3.435,1.172.221,2.38-.959,2.699-2.635Z" class="st15"/><path d="M36.961,72.479c.319-1.676-.372-3.214-1.543-3.435-1.172-.221-2.38.959-2.699,2.635-.319,1.676.372,3.214,1.543,3.435s2.38-.959,2.699-2.635Z" class="st15"/><path d="M47.991,71.825l2.666,2.448,14.745-3.374s-.227-6.36-2.835-6.48c-2.608-.118-11.138,1.997-11.138,1.997l-7.44-6.413-.572,2.405s1.245-.451,1.911.888c.666,1.339.659,2.482.659,2.482l2.362-.218s1.353-.046,1.474,2.052c.121,2.098-.603,3.924-1.831,4.214h0Z" class="st15"/><path d="M48.563,61.46l1.626,1.332s.989-2.234-.333-2.196c-1.322.038-1.445.163-1.291.864h-.002Z" class="st15"/><path d="M137.71,87.923l6.752-1.217s3.599-1.869,1.65-9.23c-.688-2.597-2.128-4.164-3.003-4.306-.876-.142-7.059,1.111-7.059,1.111,0,0,5.331,5.362,1.662,13.639l-.002.003Z" class="st13"/><path d="M39.461,116.785s19.792,4.425,37.882,1.56c18.091-2.866,39.543-13.539,44.664-18.156l13.447-10.193,2.721-2.866s2.627-7.538-2.128-12.847l-3.473-1.805-11.368-38.383s-.48-1.116-2.082-1.274c-1.602-.158-3.042.955-3.042.955l-15.529,25.003-35.156,12.12-14.745,3.374-2.666-2.448-8.588,2.402s5.604,10.99,4.803,22.457c-.801,11.467-4.743,20.1-4.743,20.1h.003Z" class="st10"/><path d="M107.6,69.346l18.889.85-8.325-30.048-10.14,15.502s.748,10.298-.427,13.697h.003Z" class="st12"/><path d="M130.971,83.149s.212-1.805-1.708-1.91c-1.92-.106-18.035-1.486-25.294.211l-2.347,5.839,2.135,1.91,28.389,17.307s2.347.955,2.347-1.699c-.485-4.073-3.522-21.66-3.522-21.66v.002Z" class="st5"/><path d="M59.68,56.18s.449,5.196.748,5.628c.299.432,2.137,2.614,2.137,2.614,0,0,1.807-.106,2.181,2.143.376,2.249.654,4.334.654,4.334,0,0,4.099,3.859,5.701,4.814,1.602.955,3.628,2.549,5.122,4.14,1.493,1.594,6.403,11.678,5.657,18.475,0,0,5.549,2.76,7.79.425,0,0,9.285-13.272,6.402-26.438l.748-5.203s-20.703.53-37.139-10.937v.005Z" class="st8"/><path d="M59.786,55.65s10.673,10.193,37.033,11.467c0,0,.106-8.707-1.175-11.998,0,0,8.005,1.061,11.527-3.185,0,0-4.91-13.908-12.381-18.156l-21.13.211s-9.712,2.76-16.542,11.254c0,0,1.281,2.76,3.628,3.079,0,0-1.175,5.414-.96,7.327h0Z" class="st3"/><path d="M95.646,55.117s2.774,11.362.427,17.201c0,0,1.602,9.024-.748,14.016,0,0,.854,1.594,2.989,1.91,2.135.319,5.016.211,5.016.211,0,0,.96-.425,1.601-1.274.64-.85,2.348-3.185,2.348-3.185l-.213-1.061s-.106-2.124-1.066-2.124l-1.175-2.866s5.976-13.483,2.348-26.014c0,0-4.804,4.778-11.527,3.185h0Z" class="st4"/><path d="M60.427,61.808s-1.175-9.449.321-13.483c0,0-3.307-1.274-3.628-3.079,0,0-4.909,7.433-5.336,12.953l2.774-.425s.659-.775,1.609.302c.953,1.078,4.26,3.732,4.26,3.732h0Z" class="st4"/><path d="M74.248,34.414s2.4,6.478,12.274,4.831c9.872-1.646,12.06-9.557,12.06-9.557,0,0-.159-6.37-1.708-7.75,0,0,2.347-1.485,1.708-3.132s-5.068-6.053-5.068-6.053c0,0-4.108-4.565-13.02-3.29-8.911,1.274-10.513,12.9-10.513,12.9,0,0-1.228,1.91-.801,3.398.427,1.488,1.655,3.346,3.681,2.866,0,0,.374,4.937,1.387,5.786Z" class="st4"/><path d="M130.455,106.717s-4.127,1.037-4.127,6.053c0,0,2.8,7.087,14.407,5.812,5.763-.876,4.002-4.857,4.002-4.857,0,0-2.082-1.911-4.724-1.911,0,0-.88-1.034-.96-1.353-.079-.319-1.095-2.165-3.428-1.719-2.335.444-1.754.963-1.754.963l-3.848-1.301.43-1.69" class="st7"/><path d="M75.261,20.929s.586,2.866,2.721,2.866,2.456-.425,2.456-.425l1.066-1.963s1.867,1.538,3.734.85c1.867-.691,2.827-2.443,2.615-3.715-.212-1.274-6.19-1.538-6.19-1.538l-4.055,1.91-2.347,2.018v-.002Z" class="st7"/><path d="M74.993,20.823s3.628-1.433,5.657-1.222c0,0,4.803-1.858,6.991-1.38,0,0-.586-3.451-3.469-3.185-2.881.266-3.254,2.496-3.254,2.496,0,0-1.761-1.222-3.254-.902-1.493.319-2.774,2.602-2.668,4.193h-.002Z" class="st4"/><path d="M91.058,15.992s1.122,2.282,2.029,2.549c0,0,.367-1.906,1.655-2.177s2.668.053,2.668.053l-.748-1.433s2.294-5.203-3.254-5.681c0,0,.053-4.937-4.803-4.565,0,0-.907-2.549-3.148-2.549s-3.148,1.274-3.148,1.274c0,0-2.881-2.177-4.962-1.327-2.082.85-2.241,3.61-2.241,3.61,0,0-3.148.53-4.429,2.335-1.281,1.805-.268,4.087-.268,4.087,0,0-2.188,1.38-2.509,3.026-.321,1.646,1.44,4.193,1.44,4.193l.268,3.238s1.066-.85,1.814-.85h1.334s-1.814-7.486,4.055-10.034c3.254-2.388,9.498-2.23,11.421-1.008v.744s-1.066,2.76,2.827,4.512v.002Z" class="st9"/><path d="M82.115,31.892s3.643.703,6.104-.703" class="st2"/><path d="M82.183,32.154c-.581-.048-.101-1.09,1.433-1.373,1.532-.283,3.088.797,4.603.408" class="st2"/><path d="M87.111,31.743c-.823.934-2.234,2.093-3.918,1.625-1.144-.317-1.17-1.032-1.093-1.411" class="st2"/><path d="M82.749,99.392l-.429,1.69,3.848,1.3,1.754-.962.273-1.694s-3.143.285-5.445-.331v-.002Z" class="st4"/><path d="M73.757,52.962c.87-1.665.571-3.535-.667-4.175-1.239-.641-2.949.19-3.819,1.855-.87,1.665-.572,3.535.667,4.175,1.239.641,2.949-.19,3.819-1.855Z" class="st12"/><path d="M72.39,52.246c.339-.649.223-1.378-.259-1.627-.482-.25-1.148.075-1.488.724-.339.649-.223,1.378.259,1.627.482.249,1.148-.075,1.488-.724Z" class="st12"/><path d="M91.087,135.2c-.521-2.764-2.432-4.06-4.082-3.628-1.65.432-4.082,1.987-4.082,1.987,0,0-.955-2.679-.955-4.407,0,0,5.211-.777,6.34-3.801,1.129-3.024.261-5.53-2.171-5.789-2.432-.259-5.558.173-6.774,6.653,0,0-3.126-.605-3.474-3.802-.347-3.197-.651-3.729-.651-3.729l-2.656.18s-.427,8.733,6.434,9.943c0,0,.868,5.702,1.911,7.862,0,0-.955,5.875-.174,10.282,0,0,2.866.259,2.866-.432,0,0-1.042-5.53-.347-7.69,0,0,2.519,1.296,3.995.951,1.477-.346,4.342-1.815,3.821-4.58ZM82.778,123.565c.232-.23,1.39-1.44,2.316-1.267.926.173.811,1.498.289,2.592-.521,1.094-3.3,1.325-3.3,1.325,0,0,.463-2.419.695-2.65h0ZM86.715,136.986c-1.274.403-2.374-.979-2.374-.979.753-.807,2.026-1.44,3.184-1.383,1.158.058.926.634.984.922.058.288-.521,1.037-1.795,1.44Z" class="st11"/><path d="M90.576,29.636c-1.546-1.008-4.697-2.071-4.697-2.071l-1.708-1.433-3.201.902s.268.955-.321,1.541c-.586.583-2.456,3.132-2.456,3.132,0,0-1.175,4.937,1.761,6.478,2.936,1.541,4.588,1.433,7.365.478,2.774-.955,4.697-3.185,4.75-4.512.053-1.327.053-3.504-1.493-4.512v-.002ZM86.733,36.167c-1.028.24-1.148-2.071-2.388-1.594s.08,1.872-1.081,2.282c-1.264.449-1.92-.929-2.241-3.079-.321-2.15.601-3.902,2.721-4.301s3.689-.185,4.427,2.695c.736,2.88-.41,3.756-1.438,3.994v.002Z" class="st9"/><path d="M74.441,35.437c-4.002,4.248-5.71,8.069-4.28,14.633" class="st1"/><path d="M74.453,52.225s9.978-.372,10.779-12.422" class="st1"/><path d="M72.49,113.17c-5.672.636-10.598.368-16.581-.859-1.472-.302-2.557-1.553-2.656-3.045-.142-2.175,1.817-3.9,3.966-3.49,3.754.715,9.382,1.43,14.327.622,1.72-.281,3.365.811,3.78,2.496l.043.172c.48,1.954-.873,3.881-2.883,4.107l.002-.003Z" class="st7"/><path d="M21.143,105.464c.612-1.568-.971-3.642-3.536-4.633-2.565-.99-5.14-.522-5.752,1.046-.612,1.568.971,3.642,3.536,4.633,2.565.99,5.14.522,5.752-1.046Z" class="st7"/><path d="M115.875,53.772l1.184,3.211,3.332.85-2.705,2.112.22,3.415-2.856-1.906-3.197,1.262.939-3.293-2.193-2.633,3.435-.13,1.841-2.89Z" class="st5"/><path d="M90.469,105.975s.521-2.978-1.013-3.77c-1.534-.79-2.176-1.33-2.4-1.328-.224.003-2.615,1.061-2.615,1.061l-2.721-.797s-2.4,2.336-2.88,3.876c-.48,1.539-.212,2.76-.212,2.76,0,0,3.734,4.14,7.471,4.673,3.734.531,6.084.106,6.296-1.221.212-1.328-.268-4.512-1.92-5.256l-.005.002Z" class="st7"/><path d="M36.573,152.298h28.035" class="st2"/><path d="M8.012,176.322s.495-13.923.495-18.233c0-6.161,5.821-5.791,5.821-5.791h7.891" class="st2"/><path d="M102.611,164.309c-.869,0-3.67-.105-3.67-2.14v-14.799" class="st2"/><path d="M61.141,171.517c.868,0,3.669-.139,3.669-2.817v-8.825l-.005-13.145" class="st2"/><path d="M25.537,164.742c0,1.02,1.58,1.848,3.529,1.848s3.529-.828,3.529-1.848" class="st2"/><path d="M32.595,154.499v10.243" class="st2"/><path d="M25.537,154.074v10.668" class="st2"/><path d="M38.933,140.559c.601,1.253.936,2.64.936,4.102,0,5.539-4.796,10.029-10.711,10.029s-10.711-4.49-10.711-10.029c0-1.471.34-2.871.948-4.128" class="st2"/><path d="M32.74,122.269c4.154,1.38,7.126,5.092,7.126,9.453,0,1.383-.299,2.7-.84,3.898" class="st2"/><path d="M19.37,135.801c-.593-1.246-.924-2.626-.924-4.078,0-4.344,2.95-8.042,7.078-9.437" class="st2"/><path d="M39.124,135.452s-1.344,2.856,0,5.53" class="st2"/><path d="M19.206,135.452s1.344,2.856,0,5.53" class="st2"/><path d="M26.029,128.83h6.69c.475,0,.912.269,1.124.691,1.792,3.547-.806,4.867-1.158,8.29-.067.645-.601,1.14-1.252,1.14h-3.971c-.62,0-1.151-.449-1.24-1.059-.456-3.06-3.667-4.893-1.235-8.515.232-.345.625-.549,1.04-.549l.003.002Z" class="st2"/><path d="M27.782,135.745h3.061c.81,0,1.467-.653,1.467-1.459v-2.626c0-.806-.657-1.459-1.467-1.459h-3.061c-.81,0-1.467.653-1.467,1.459v2.626c0,.806.657,1.459,1.467,1.459Z" class="st2"/><path d="M28.726,133.936c0,.389.317.705.708.705s.708-.316.708-.705v-2.004c0-.39-.317-.706-.708-.706s-.708.316-.708.706v2.004Z" class="st9"/><path d="M27.583,148.916c.152.065.319.099.495.099h3.124c.702,0,1.271-.567,1.271-1.265v-5.712c0-.699-.569-1.265-1.271-1.265h-3.124c-.439,0-.825.221-1.054.557" class="st2"/><path d="M24.354,143.811c0-1.317,1.073-2.385,2.398-2.385s2.398,1.068,2.398,2.385c0,.528-.174,1.016-.466,1.409.292.396.466.881.466,1.409,0,1.318-1.073,2.386-2.398,2.386s-2.398-1.068-2.398-2.386c0-.528.174-1.015.466-1.409-.292-.396-.466-.881-.466-1.409Z" class="st2"/><path d="M26.755,144.522c.452,0,.818-.365.818-.814s-.366-.813-.818-.813-.818.364-.818.813.366.814.818.814Z" class="st2"/><path d="M26.755,147.824c.452,0,.818-.364.818-.813s-.366-.814-.818-.814-.818.365-.818.814.366.813.818.813Z" class="st2"/><path d="M29.876,146.07c.533,0,.967-.432.967-.963s-.434-.962-.967-.962" class="st2"/><path d="M29.877,144.145h-.673" class="st2"/><path d="M29.877,146.07h-.673" class="st2"/><path d="M25.751,123.01c0,.559,1.53,1.013,3.416,1.013s3.416-.454,3.416-1.013" class="st2"/><path d="M32.506,123.219c.138-.381.212-.792.212-1.219,0-1.975-1.592-3.578-3.556-3.578s-3.556,1.603-3.556,3.578c0,.432.077.845.215,1.229" class="st2"/><path d="M83.575,146.634c-.376.36-.837.489-1.462.489-.48,0-.931-.108-1.322-.3" class="st2"/><path d="M73.966,158.163c-3.071-1.277-6.113-3.365-9.109-7.097" class="st2"/><path d="M105.195,174.13c-6.832-10.327-20.064-12.057-26.329-13.408" class="st2"/><path d="M85.056,179.608c-2.49-7.719-14.672-6.699-20.137-13.51" class="st2"/><path d="M61.021,179.495c-9.57-3.991-14.805-1.042-21.927-7.975" class="st2"/><path d="M93.027,155.312l-.951,1.171c-.077.094-.195.144-.316.137l-1.51-.115c-.306-.024-.507.312-.338.569l.827,1.262c.068.101.08.228.031.341l-.577,1.392c-.116.283.142.576.439.494l1.462-.391c.118-.031.244-.002.335.074l1.153.977c.234.197.593.043.608-.261l.077-1.505c.007-.12.072-.231.176-.295l1.291-.79c.261-.161.224-.547-.063-.658l-1.414-.537c-.113-.043-.198-.139-.227-.257l-.357-1.464c-.072-.298-.453-.382-.646-.144h-.002Z" class="st2"/><path d="M74.651,156.503l-.125,1.502c-.01.12-.08.228-.186.288l-1.315.749c-.265.151-.241.54.041.66l1.397.583c.113.048.193.147.22.264l.309,1.476c.063.298.441.396.642.166l.989-1.14c.08-.091.2-.139.321-.125l1.505.163c.304.034.516-.295.357-.557l-.784-1.288c-.063-.104-.07-.231-.022-.341l.622-1.373c.125-.278-.123-.578-.422-.509l-1.474.346c-.118.029-.244-.005-.333-.087l-1.122-1.012c-.227-.204-.591-.063-.618.242l-.002-.007Z" class="st2"/><path d="M84.924,165.774l-.671,1.351c-.053.108-.159.185-.277.201l-1.498.216c-.304.044-.424.416-.205.629l1.086,1.051c.087.084.128.207.106.327l-.256,1.485c-.051.3.265.531.536.389l1.341-.701c.109-.055.236-.055.345,0l1.341.701c.27.142.589-.086.535-.389l-.256-1.485c-.022-.12.019-.24.106-.327l1.086-1.051c.22-.213.099-.583-.205-.629l-1.498-.216c-.121-.016-.224-.093-.278-.201l-.671-1.351c-.135-.274-.528-.274-.663,0h-.005Z" class="st2"/><path d="M79.385,126.022c.227-2.145,1.057-4.351,2.823-5.705,1.776-1.363,4.379-1.449,5.891.365,1.587,1.906.84,4.543-.782,6.173-2.251,2.261-6.207,2.796-9.138,1.682-2.63-.998-4.412-3.321-5.163-5.968-.33-1.167-.473-2.376-.473-3.586" class="st2"/><path d="M82.964,133.698c1.078-1.112,2.497-1.899,4.034-2.045,2.347-.223,4.118,1.574,4.118,3.821,0,3.372-3.664,4.987-6.608,4.14-1.773-.509-2.989-2.12-3.708-3.744-.926-2.091-1.474-4.659-1.616-6.936" class="st2"/><path d="M80.762,146.792c-.557-3.038-.854-6.544.147-9.576l.222-.559" class="st2"/><path d="M82.142,126.128c.044-3.067,2.548-4.593,3.474-3.557.926,1.037-.043,3.903-5.08,3.903-4.386,0-5.102-4.937-5.163-7.69" class="st2"/><path d="M83.07,139.189c-.328,1.745-.289,4.109.461,7.286" class="st2"/><path d="M81.91,129.368c.26,4.867,2.627,7.671,4.395,7.68.919.005,2.012-.223,2.157-1.303.041-.312-.043-.648-.263-.876-.203-.211-.499-.312-.791-.334-1.134-.086-2.162.557-2.878,1.385" class="st2"/><path d="M25.288,158.211h-8.622c-1.291,0-2.338,1.042-2.338,2.326v10.982" class="st2"/><path d="M32.904,158.211h31.704" class="st2"/><path d="M99.067,153.047c7.382,2.637,12.214,7.027,12.214,11.997,0,8.067-12.725,14.604-28.421,14.604H11.178c-2.304,0-3.833-2.397-2.832-4.464,1.86-3.83,5.983-3.667,5.983-3.667h46.811" class="st2"/><path d="M88.101,139.566c6.337,1.123,10.822,3.904,10.822,7.159,0,4.248-7.638,7.689-17.061,7.689s-17.061-3.444-17.061-7.689c0-3.519,5.24-6.485,12.393-7.399,0,0,1.761-.195,2.615-.236.217-.009.434-.021.651-.028" class="st2"/><path d="M80.325,144.169c-2.844.238-4.999,1.358-4.999,2.702,0,1.52,2.745,2.748,6.13,2.748s6.13-1.231,6.13-2.748c0-1.204-1.727-2.227-4.132-2.599" class="st2"/><path d="M105.899,74.751c8.236-24.149-6.73-36.826-9.345-39.962" class="st2"/><path d="M104.717,77.893c.437-1.066.83-2.112,1.18-3.139" class="st2"/><path d="M65.327,70.753c1.865,2.244,4.159,4.212,6.834,5.762" class="st2"/><path d="M74.166,34.513c-4.892,2.323-9.597,5.964-12.226,11.39-2.545,5.251-2.82,11.035-1.213,16.334" class="st2"/><path d="M72.164,76.511c4.859,2.602,7.836,9.307,8.998,15.096.458,2.28.661,4.608.661,6.931,0,0,4.678,2.71,7.725.178" class="st2"/><path d="M95.593,71.204s4.765,10.186-5.99,27.514" class="st2"/><path d="M59.906,55.936s11.172,9.84,36.647,11.177" class="st2"/><path d="M93.135,9.459c2.656-.528,3.713,1.848,3.91,2.818.2.97-.034,1.982-.434,2.887.427.278.738,1.015.786,1.522" class="st2"/><path d="M69.817,22.633c-.584-.936-.767-2.162-.203-3.065-1.168-.854-1.826-2.352-1.66-3.787.166-1.433,1.168-2.827,2.502-3.394-.767-1.416-.639-3.262.311-4.562.951-1.298,2.753-2.138,4.34-1.848-.487-1.579.68-3.355,2.26-3.864,1.58-.509,3.527.254,4.801,1.313.849-1.03,2.299-1.529,3.609-1.243,1.308.286,2.422,1.387,2.76,2.678,1.271-.355,2.719.014,3.662.931.943.919,1.267,2.393.936,3.665" class="st2"/><path d="M89.523,9.743c-2.065,1.598-1.385,3.686-.811,4.471.574.785,1.464,1.272,2.323,1.733.304.828.893,1.663,1.57,2.227.169.142.355.266.553.372" class="st2"/><path d="M82.585,13.597c.948-.84,2.574-.758,3.435.17" class="st2"/><path d="M70.364,48.675c.28-2.177,2.231-5.054,3.845-7.205" class="st2"/><path d="M80.842,43.83c-.557.749-1.086,1.522-1.595,2.304-.837,1.286-1.443,2.767-2.429,3.953-.668.804-1.472,1.351-2.35,1.582" class="st2"/><path d="M71.51,35.924c-2.224,3.638,1.235,6.511,1.235,6.511l5.454-3.794" class="st2"/><path d="M96.025,72.491c1.489-5.746,1.749-14.568-3.795-25.334" class="st2"/><path d="M95.434,55.146s6.258,1.817,11.739-3.278" class="st2"/><path d="M77.397,44.097c.625-.529.781-1.368.349-1.874-.432-.506-1.29-.487-1.915.042-.625.529-.781,1.368-.349,1.874.433.506,1.29.487,1.915-.042Z" class="st2"/><path d="M75.389,48.329c.536-.619.56-1.472.054-1.905-.506-.433-1.35-.283-1.886.335-.536.619-.56,1.472-.054,1.905.506.433,1.35.283,1.886-.335Z" class="st2"/><path d="M66.16,60.032s-.391,4.116,1.211,7.932c1.602,3.816-.96,3.989-.96,3.989" class="st2"/><path d="M88.163,101.079c.183-.864.323-1.495.323-1.495" class="st2"/><path d="M82.776,99.409s-.446,1.252-.499,1.742c0,0,.671.473,1.766.792" class="st2"/><path d="M73.953,53.013c.95-1.817.624-3.856-.727-4.555-1.351-.699-3.216.208-4.166,2.024-.95,1.817-.624,3.857.727,4.555,1.351.699,3.216-.208,4.166-2.025Z" class="st2"/><path d="M72.55,52.262c.407-.778.267-1.653-.312-1.952-.579-.3-1.379.089-1.785.867-.407.778-.267,1.653.312,1.952.579.3,1.379-.089,1.785-.867Z" class="st2"/><path d="M80.181,39.37l1.698,8.422s16.576-3.686,14.533-14.002" class="st2"/><path d="M106.645,49.254c-.063.101-.123.197-.181.29" class="st2"/><path d="M105.916,74.581c8.188.142,18.04.444,23.085,1.147,2.147.3,3.83-2.177,3.292-3.775l-10.752-37.217c-.719-2.486-4.062-2.945-5.428-.742l-3.529,5.691s-3.993,6.434-5.937,9.569" class="st2"/><path d="M107.641,69.31l18.824.874-5.368-18.794-2.33-8.914-.741-2.592-1.003,1.642-7.559,11.873-1.418,2.321" class="st2"/><path d="M132.648,72.742c1.575.718,2.658,1.279,3.184,1.591" class="st2"/><path d="M121.744,100.479c-9.973,6.504-23.42,13.361-37.839,16.601-30.088,7.913-81.301-7.495-82.256-16.625-.598-5.721,11.336-18.689,30.725-28.068" class="st2"/><path d="M137.775,87.507c-1.035,1.27-2.856,3.048-5.327,5.119" class="st2"/><path d="M102.654,88.558l29.656,18.017c1.028.624,2.321-.238,2.13-1.421l-3.654-22.733c-.099-.619-.596-1.097-1.221-1.171-3.211-.386-13.225-1.378-22.872-.048" class="st2"/><path d="M19.865,79.916s9.862,9.221,4.383,32.969" class="st2"/><path d="M39.323,74.089c3.452,6.348,8.979,21.355.314,42.727" class="st2"/><path d="M144.235,86.761c1.636-.178,2.627-3.35,2.217-7.087-.41-3.737-2.067-6.622-3.701-6.444l-6.918,1.106c1.78.996,2.699,3.42,3.063,6.742.307,2.803-.173,5.287-1.124,6.43" class="st12"/><path d="M139.316,73.801c1.636-.178,3.29,2.707,3.701,6.444.41,3.737-.584,6.91-2.217,7.087" class="st2"/><path d="M135.698,74.257c.957.425,3.068,2.784,3.476,6.518.352,3.223-.651,5.928-1.602,6.974" class="st2"/><path d="M142.785,73.218c1.636-.178,3.291,2.707,3.701,6.444.41,3.737-.584,6.91-2.217,7.087" class="st2"/><path d="M144.235,86.761l-6.769,1.21" class="st2"/><path d="M33.372,69.405c.183-1.704-.71-3.196-1.995-3.333-1.285-.137-2.475,1.134-2.658,2.838-.183,1.704.71,3.196,1.995,3.333,1.285.137,2.475-1.134,2.658-2.838Z" class="st2"/><path d="M37.331,72.447c.185-1.719-.699-3.222-1.973-3.357-1.274-.135-2.457,1.148-2.642,2.867-.185,1.719.699,3.222,1.973,3.357,1.274.135,2.457-1.148,2.642-2.867Z" class="st2"/><path d="M42.957,62.689c.294-.127.61-.18.931-.146,1.286.137,2.179,1.63,1.995,3.334" class="st2"/><path d="M47.434,65.566c.157-.024.316-.029.475-.012,1.286.137,2.178,1.63,1.995,3.334-.138,1.279-.842,2.314-1.727,2.693" class="st2"/><path d="M31.104,66.058l12.05-3.413" class="st2"/><path d="M34.547,69.174l12.887-3.607" class="st2"/><path d="M35.591,75.169l12.636-3.578" class="st2"/><path d="M33.322,69.369c.132-1.227-.497-2.3-1.404-2.396-.907-.096-1.75.82-1.882,2.047-.132,1.227.497,2.3,1.405,2.396.907.096,1.75-.82,1.882-2.047Z" class="st9"/><path d="M37.205,72.543c.132-1.227-.497-2.3-1.404-2.396-.908-.096-1.75.82-1.882,2.047-.132,1.227.497,2.3,1.404,2.396.908.096,1.75-.82,1.882-2.047Z" class="st9"/><path d="M51.644,66.19s8.622-1.86,9.261-1.956c1.165-.175,4.564-.355,4.222,6.754l-14.59,3.252" class="st2"/><path d="M43.897,59.569c3.443-.655,9.121-1.73,9.925-1.853.649-.098,1.993-.197,2.996.965l6.19,5.765" class="st2"/><path d="M43.596,62.454l.306-2.851,7.59,6.871-.955,7.764-2.531-2.465" class="st2"/><path d="M49.311,60.457s4.924-1.044,5.216-1.013,1.218.886,1.047,2.472l-5.177,1.006" class="st2"/><path d="M50.269,62.946c.109-.218.186-.47.215-.746.097-.893-.335-1.668-.963-1.735-.391-.041-1.062.046-1.153.89" class="st2"/><path d="M48.37,61.354l1.773,1.606" class="st2"/><path d="M74.017,34.03c-5.872,1.68-19.094,7.224-22.161,23.532l-.075.394" class="st2"/><path d="M57.224,45.404c.714,1.471,2.096,2.606,3.684,3.026" class="st2"/><path d="M103.704,77.148s2.081,1.433,2.028,3.662-2.4,3.557-2.4,3.557" class="st2"/><path d="M95.326,86.632c.415.679,1.146,1.154,1.915,1.402.881.283,1.819.314,2.743.341.876.026,1.751.053,2.625.079.33.01.67.017.974-.103.355-.142.618-.437.869-.722.668-.763,1.336-1.526,2.005-2.287.434-.494.892-1.058.863-1.714-.021-.514-.383-.998-.873-1.166s-1.074-.014-1.411.377" class="st2"/><path d="M106.922,82.671c.094-.394.06-.823-.14-1.174-.2-.35-.572-.612-.977-.636" class="st2"/><path d="M100.02,88.359c-.278-.024-.557-.065-.806-.187-.249-.122-.466-.334-.531-.602-.039-.161-.022-.329-.007-.492.026-.266.053-.533.08-.799" class="st2"/><path d="M97.839,88.191c-.278-.024-.557-.065-.806-.187-.249-.122-.466-.334-.531-.602-.039-.161-.022-.329-.007-.492.027-.266.053-.533.08-.799" class="st2"/><path d="M88.522,10.765c-4.482-2.474-12.207-.358-14.885,3.986-1.809,2.933-1.445,6.833-.174,9.905,0,0-1.423,2.89-.036,7.514,1.385,4.622,5.235,9.142,13.915,6.917,8.68-2.227,11.609-7.714,11.326-12.108-.104-1.625-.782-3.286-1.59-4.733" class="st2"/><path d="M72.56,28.813c-.748.293-1.604-.086-2.195-.626-.777-.706-1.283-1.699-1.397-2.741-.111-1.02.174-2.11.897-2.839.634-.638,1.624-.941,2.482-.706" class="st2"/><path d="M95.067,22.779c.121-.293.412-.482.712-.588.299-.106.62-.146.922-.25.753-.254,1.351-.888,1.616-1.634.265-.746.21-1.586-.092-2.318-.384-.931-1.206-1.709-2.2-1.894-.994-.187-2.118.312-2.519,1.234-.179.413-.212.871-.244,1.32" class="st2"/><path d="M97.154,19.426c-.743-.24-1.638.151-1.964.859" class="st2"/><path d="M95.328,17.874c.364.374.577.89.584,1.411" class="st2"/><path d="M81.295,20.725c.019,1.046-.526,1.848-.757,2.462-.229.614-.408,1.267-.34,1.918.067.653.425,1.306,1.02,1.579.449.206.972.178,1.45.062.668-.163,1.37-.598,1.455-1.277.311.499.999.773,1.53.514.531-.257.697-1.092.239-1.462" class="st2"/><path d="M85.177,22.262c1.911-.49,3.047-2.481,2.537-4.446-.509-1.965-2.471-3.161-4.382-2.671-1.911.49-3.047,2.481-2.537,4.446.509,1.965,2.471,3.161,4.382,2.67Z" class="st2"/><path d="M80.33,23.393c-.253.142-.528.252-.823.326-1.911.49-3.872-.706-4.381-2.669-.509-1.966.627-3.955,2.538-4.445,1.127-.288,2.27.007,3.124.703" class="st2"/><path d="M75.314,20.732s2.919-1.416,5.481-1.135" class="st2"/><path d="M80.95,19.726s3.686-1.97,6.83-1.414" class="st2"/><path d="M77.039,20.149c-.183.382-.256.821-.186,1.265l1.824-.254-.996,1.632c.509.384,1.18.54,1.845.37,1.156-.298,1.85-1.469,1.554-2.618-.111-.432-.347-.797-.659-1.073" class="st9"/><path d="M82.421,19.182c-.06.262-.072.535-.027.811l1.824-.254-.996,1.632c.509.384,1.18.54,1.845.37,1.156-.298,1.85-1.469,1.554-2.618-.075-.288-.205-.547-.374-.768" class="st9"/><path d="M75.807,16.141l3.797-.974" class="st2"/><path d="M84.202,25.856c1.112,3.058,4.863.943,7.167,5.369,2.304,4.426-1.6,6.826-5.804,7.903-2.81.638-7.688,0-7.491-4.987.195-4.985,3.438-5.021,2.825-7.159" class="st2"/><path d="M71.006,26.123c.466-.59,1.269-.898,2.012-.768" class="st2"/><path d="M71.568,23.9c-.15.509-.051,1.08.256,1.512" class="st2"/><path d="M90.827,50.276c.885.334,1.872.401,2.796.192" class="st2"/><path d="M142.751,73.229l-6.918,1.106" class="st2"/><path d="M83.242,105.592c-.065-.286-.099-.581-.099-.888,0-2.112,1.65-3.821,3.686-3.821s3.686,1.711,3.686,3.821c0,.41-.063.806-.179,1.178" class="st2"/><path d="M82.17,101.036s-3.303.939-3.662,6.154c.574.895,2.145,4.207,7.387,5.273,5.242,1.065,6.149-.135,6.47-1.342.439-4.169-2.232-6.036-5.399-6.036-2.012,0-3.99.326-4.704,2.105" class="st2"/><path d="M82.263,107.19s-2.159-.034-2.478,1.598" class="st2"/><path d="M71.633,38.979c-.381.61-.712,1.229-.987,1.867" class="st1"/><path d="M80.938,49.496c1.059-.898,2.065-2.098,2.844-3.698" class="st1"/></g></g></svg>