<svg xmlns="http://www.w3.org/2000/svg" xmlns:xlink="http://www.w3.org/1999/xlink" xml:space="preserve" id="Layer_1" x="0" y="0" viewBox="0 0 80 80"><style>.st0{clip-path:url(#SVGID_2_)}.st1{fill:#0b1b34}.st2{fill-rule:evenodd;clip-rule:evenodd;fill:#fff}.st3{fill:#ff7101}.st4,.st5{fill-rule:evenodd;clip-rule:evenodd;fill:#0b1b34}.st5{fill:#ff7101}</style><defs><path id="SVGID_1_" d="M0 0h80v80H0z"/></defs><clipPath id="SVGID_2_"><use xlink:href="#SVGID_1_" style="overflow:visible"/></clipPath><g class="st0"><path d="M4 17.6v-.8c1.8 0 3.2-1.4 3.2-3.2H8c0 1.8 1.4 3.2 3.2 3.2v.8C9.4 17.6 8 19 8 20.8h-.8c0-1.7-1.4-3.2-3.2-3.2" class="st1"/><path d="M6.4 13.6c0-.4.4-.8.8-.8H8c.4 0 .8.4.8.8 0 1.3 1.1 2.4 2.4 2.4.4 0 .8.4.8.8v.8c0 .4-.4.8-.8.8-1.3 0-2.4 1.1-2.4 2.4 0 .4-.4.8-.8.8h-.8c-.4 0-.8-.4-.8-.8 0-1.3-1.1-2.4-2.4-2.4-.4 0-.8-.4-.8-.8v-.8c0-.4.4-.8.8-.8 1.3 0 2.4-1.1 2.4-2.4m1.2 1.8c-.4.8-1.1 1.5-1.9 1.9.8.4 1.5 1.1 1.9 1.9.4-.8 1.1-1.5 1.9-1.9-.8-.5-1.5-1.1-1.9-1.9" class="st2"/><path d="M15.6 41.6c1.5 0 2.8-1.3 2.8-2.8S17.1 36 15.6 36s-2.8 1.3-2.8 2.8c0 1.6 1.3 2.8 2.8 2.8" class="st3"/><path d="M15.6 36.8c-1.1 0-2 .9-2 2s.9 2 2 2 2-.9 2-2-.9-2-2-2m-3.6 2c0-2 1.6-3.6 3.6-3.6s3.6 1.6 3.6 3.6-1.6 3.6-3.6 3.6-3.6-1.6-3.6-3.6m70.2 23c-.5 0-1 .4-1 1s.4 1 1 1c.5 0 1-.4 1-1s-.4-1-1-1m-2.5.9c0-1.4 1.1-2.6 2.6-2.6 1.4 0 2.6 1.1 2.6 2.6 0 1.4-1.1 2.6-2.6 2.6s-2.6-1.2-2.6-2.6" class="st2"/><path d="M43.9 63.6h-7.6l-3.2-8.2h14.1z" class="st1"/><path d="M32.5 54.9c.1-.2.4-.3.7-.3h14.1c.3 0 .5.1.7.4.1.2.2.5.1.7l-3.3 8.2c-.1.3-.4.5-.7.5h-7.6c-.3 0-.6-.2-.7-.5l-3.2-8.2c-.3-.3-.3-.6-.1-.8m1.8 1.2 2.6 6.6h6.5l2.6-6.6z" class="st2"/><path d="m35.4 58.3-13 5.3 13-30.6z" class="st3"/><path d="M35.6 32.2c.4.1.6.4.6.8v25.4c0 .3-.2.6-.5.7l-13 5.3c-.3.1-.6.1-.9-.2-.2-.2-.3-.6-.2-.9l13-30.6c.3-.4.6-.6 1-.5M23.9 62.1l10.7-4.4V36.9z" class="st2"/><path d="m45 58.3 13 5.3-13-30.7z" class="st3"/><path d="M44.8 32.2c.4-.1.7.1.9.5l13 30.6c.1.3.1.6-.2.9-.2.2-.6.3-.9.2l-13-5.3c-.3-.1-.5-.4-.5-.7V32.9c.1-.3.3-.7.7-.7m1 4.7v20.9l10.7 4.4z" class="st2"/><path d="M46.4 58.3H33.8l-4.4-33.8c-.8-7.6 2.9-15.1 8.4-20.4 1.3-1.2 3.3-1.2 4.6 0 5.5 5.3 9.2 12.8 8.4 20.4z" class="st3"/><path d="M38.4 4.7c-5.4 5.2-8.9 12.4-8.2 19.7l4.3 33.1h11.2L50 24.4c.8-7.3-2.8-14.6-8.2-19.7-.9-.9-2.4-.9-3.4 0m-1.1-1.2C38.9 2 41.4 2 43 3.5c5.6 5.4 9.5 13.2 8.6 21.1l-4.4 33.8c-.1.4-.4.7-.8.7H33.8c-.4 0-.7-.3-.8-.7l-4.4-33.8c-.8-7.9 3-15.7 8.7-21.1" class="st2"/><path d="M40.2 25.7c2.7 0 5-2.2 5-5 0-2.7-2.2-5-5-5s-5 2.2-5 5c0 2.7 2.2 5 5 5" class="st1"/><path d="M40.2 16.5c-2.3 0-4.2 1.9-4.2 4.2s1.9 4.2 4.2 4.2 4.2-1.9 4.2-4.2-1.9-4.2-4.2-4.2m-5.8 4.2c0-3.2 2.6-5.8 5.8-5.8s5.8 2.6 5.8 5.8-2.6 5.8-5.8 5.8c-3.2-.1-5.8-2.6-5.8-5.8m5 37.6v-17H41v17z" class="st2"/><path d="M39.6 76.8V64.4h1.6v12.4z" class="st4"/><path d="M36.1 73.2v-8.8h1.6v8.8zm7 0v-8.8h1.6v8.8z" class="st5"/><path d="M66.3 14.8c-.2-2.3-1.9-4.2-4.3-4.4-1.7-.2-3.3.6-4.2 1.9-.3.5-.6 1-.7 1.5-.1.2-.2.6-.2.8-.2 2.6 1.7 4.9 4.2 5.1 2.2.2 4.3-1.2 5-3.4.1-.3.2-.6.2-1z" class="st3"/><path d="M62.1 9.6c2.8.2 4.9 2.5 5.1 5.1v.5c0 .1 0 .2-.1.4 0 .4-.1.7-.2 1-.7 2.5-3.2 4.2-5.8 3.9-3-.3-5.2-2.9-5-6 0-.4.1-.7.2-1 .2-.6.5-1.2.8-1.7 1.1-1.4 3-2.4 5-2.2m-3.7 3.2c-.3.4-.5.8-.6 1.3-.1.2-.1.4-.1.5v.1c-.2 2.2 1.4 4.1 3.5 4.3 1.8.2 3.6-1 4.1-2.8.1-.3.1-.5.1-.7 0-.1 0-.2.1-.3V15c-.1-1.9-1.6-3.5-3.6-3.6-1.4-.3-2.7.3-3.5 1.4" class="st2"/><path d="M58.9 16.5c1.1 0 2.1-.9 2.1-2.1 0-1.1-.9-2.1-2.1-2.1-1.1 0-2.1.9-2.1 2.1s.9 2.1 2.1 2.1" class="st3"/><path d="M58.9 13.1c-.7 0-1.3.6-1.3 1.3s.6 1.3 1.3 1.3 1.3-.6 1.3-1.3-.6-1.3-1.3-1.3M56 14.4c0-1.6 1.3-2.9 2.9-2.9s2.9 1.3 2.9 2.9-1.3 2.9-2.9 2.9S56 16 56 14.4" class="st2"/><path d="M54.4 36.8V36c1.8 0 3.2-1.4 3.2-3.2h.8c0 1.8 1.4 3.2 3.2 3.2v.8c-1.8 0-3.2 1.4-3.2 3.2h-.8c0-1.7-1.4-3.2-3.2-3.2" class="st1"/><path d="M56.8 32.8c0-.4.4-.8.8-.8h.8c.4 0 .8.4.8.8 0 1.3 1.1 2.4 2.4 2.4.4 0 .8.4.8.8v.8c0 .4-.4.8-.8.8-1.3 0-2.4 1.1-2.4 2.4 0 .4-.4.8-.8.8h-.8c-.4 0-.8-.4-.8-.8 0-1.3-1.1-2.4-2.4-2.4-.4 0-.8-.4-.8-.8V36c0-.4.4-.8.8-.8 1.3 0 2.4-1.1 2.4-2.4m1.2 1.7c-.4.8-1.1 1.5-1.9 1.9.8.4 1.5 1.1 1.9 1.9.4-.8 1.1-1.5 1.9-1.9-.8-.4-1.5-1.1-1.9-1.9" class="st2"/><path d="M64.8 56v-1.6c1.8 0 3.2-1.4 3.2-3.2h1.6c0 1.8 1.4 3.2 3.2 3.2V56c-1.8 0-3.2 1.4-3.2 3.2H68c0-1.8-1.4-3.2-3.2-3.2" class="st3"/><path d="M67.2 51.2c0-.4.4-.8.8-.8h1.6c.4 0 .8.4.8.8 0 1.3 1.1 2.4 2.4 2.4.4 0 .8.4.8.8V56c0 .4-.4.8-.8.8-1.3 0-2.4 1.1-2.4 2.4 0 .4-.4.8-.8.8H68c-.4 0-.8-.4-.8-.8 0-1.4-1.1-2.4-2.4-2.4-.4 0-.8-.4-.8-.8v-1.6c0-.4.4-.8.8-.8 1.3 0 2.4-1.1 2.4-2.4m1.5.8c-.3 1.6-1.6 2.8-3.1 3.1v.2c1.6.3 2.8 1.5 3.1 3.1h.2c.3-1.6 1.6-2.8 3.1-3.1v-.2c-1.6-.3-2.8-1.6-3.1-3.1z" class="st2"/><path d="M72.2 34.7c1 0 1.8-.8 1.8-1.8s-.8-1.8-1.8-1.8-1.8.8-1.8 1.8.8 1.8 1.8 1.8" class="st3"/><path d="M72.2 32c-.5 0-1 .4-1 1 0 .5.4 1 1 1s1-.4 1-1c-.1-.6-.5-1-1-1m-2.6 1c0-1.4 1.1-2.6 2.6-2.6 1.4 0 2.6 1.1 2.6 2.6 0 1.4-1.1 2.6-2.6 2.6-1.5-.1-2.6-1.2-2.6-2.6" class="st2"/><path d="M12.2 60.4c1 0 1.8-.8 1.8-1.8s-.8-1.8-1.8-1.8-1.8.8-1.8 1.8.8 1.8 1.8 1.8" class="st1"/><path d="M12.2 57.6c-.5 0-1 .4-1 1 0 .5.4 1 1 1s1-.4 1-1c-.1-.6-.5-1-1-1m-2.6 1c0-1.4 1.1-2.6 2.6-2.6 1.4 0 2.6 1.1 2.6 2.6 0 1.4-1.1 2.6-2.6 2.6-1.5-.1-2.6-1.2-2.6-2.6" class="st2"/></g></svg>