<svg xmlns="http://www.w3.org/2000/svg" xmlns:xlink="http://www.w3.org/1999/xlink" id="Layer_1" x="0" y="0" version="1.1" viewBox="0 0 80 80" style="enable-background:new 0 0 80 80" xml:space="preserve"><style type="text/css">.st0{clip-path:url(#SVGID_2_)}.st1{fill:#0b1b34}.st2{fill-rule:evenodd;clip-rule:evenodd;fill:#fff}.st3{fill:#ff7101}.st4,.st5{fill-rule:evenodd;clip-rule:evenodd;fill:#0b1b34}.st5{fill:#ff7101}</style><g><defs><rect id="SVGID_1_" width="80" height="80"/></defs><clipPath id="SVGID_2_"><use xlink:href="#SVGID_1_" style="overflow:visible"/></clipPath><g class="st0"><path d="M4,17.6v-0.8c1.8,0,3.2-1.4,3.2-3.2H8c0,1.8,1.4,3.2,3.2,3.2v0.8c-1.8,0-3.2,1.4-3.2,3.2H7.2 C7.2,19.1,5.8,17.6,4,17.6z" class="st1"/><path d="M6.4,13.6c0-0.4,0.4-0.8,0.8-0.8H8c0.4,0,0.8,0.4,0.8,0.8c0,1.3,1.1,2.4,2.4,2.4c0.4,0,0.8,0.4,0.8,0.8v0.8 c0,0.4-0.4,0.8-0.8,0.8c-1.3,0-2.4,1.1-2.4,2.4c0,0.4-0.4,0.8-0.8,0.8H7.2c-0.4,0-0.8-0.4-0.8-0.8c0-1.3-1.1-2.4-2.4-2.4 c-0.4,0-0.8-0.4-0.8-0.8v-0.8C3.2,16.4,3.6,16,4,16C5.3,16,6.4,14.9,6.4,13.6z M7.6,15.4c-0.4,0.8-1.1,1.5-1.9,1.9 c0.8,0.4,1.5,1.1,1.9,1.9c0.4-0.8,1.1-1.5,1.9-1.9C8.7,16.8,8,16.2,7.6,15.4z" class="st2"/><path d="M15.6,41.6c1.5,0,2.8-1.3,2.8-2.8c0-1.5-1.3-2.8-2.8-2.8s-2.8,1.3-2.8,2.8C12.8,40.4,14.1,41.6,15.6,41.6z" class="st3"/><path d="M15.6,36.8c-1.1,0-2,0.9-2,2c0,1.1,0.9,2,2,2s2-0.9,2-2C17.6,37.7,16.7,36.8,15.6,36.8z M12,38.8 c0-2,1.6-3.6,3.6-3.6c2,0,3.6,1.6,3.6,3.6c0,2-1.6,3.6-3.6,3.6C13.6,42.4,12,40.8,12,38.8z" class="st2"/><path d="M82.2,61.8c-0.5,0-1,0.4-1,1s0.4,1,1,1c0.5,0,1-0.4,1-1S82.8,61.8,82.2,61.8z M79.7,62.7 c0-1.4,1.1-2.6,2.6-2.6c1.4,0,2.6,1.1,2.6,2.6c0,1.4-1.1,2.6-2.6,2.6C80.8,65.3,79.7,64.1,79.7,62.7z" class="st2"/><path d="M43.9,63.6h-7.6l-3.2-8.2h14.1L43.9,63.6z" class="st1"/><path d="M32.5,54.9c0.1-0.2,0.4-0.3,0.7-0.3h14.1c0.3,0,0.5,0.1,0.7,0.4c0.1,0.2,0.2,0.5,0.1,0.7l-3.3,8.2 c-0.1,0.3-0.4,0.5-0.7,0.5h-7.6c-0.3,0-0.6-0.2-0.7-0.5l-3.2-8.2C32.3,55.4,32.3,55.1,32.5,54.9z M34.3,56.1l2.6,6.6h6.5l2.6-6.6 H34.3z" class="st2"/><path d="M35.4,58.3l-13,5.3l13-30.6V58.3z" class="st3"/><path d="M35.6,32.2c0.4,0.1,0.6,0.4,0.6,0.8v25.4c0,0.3-0.2,0.6-0.5,0.7l-13,5.3c-0.3,0.1-0.6,0.1-0.9-0.2 c-0.2-0.2-0.3-0.6-0.2-0.9l13-30.6C34.9,32.3,35.2,32.1,35.6,32.2z M23.9,62.1l10.7-4.4V36.9L23.9,62.1z" class="st2"/><path d="M45,58.3l13,5.3L45,32.9V58.3z" class="st3"/><path d="M44.8,32.2c0.4-0.1,0.7,0.1,0.9,0.5l13,30.6c0.1,0.3,0.1,0.6-0.2,0.9c-0.2,0.2-0.6,0.3-0.9,0.2l-13-5.3 c-0.3-0.1-0.5-0.4-0.5-0.7V32.9C44.2,32.6,44.4,32.2,44.8,32.2z M45.8,36.9v20.9l10.7,4.4L45.8,36.9z" class="st2"/><path d="M46.4,58.3H33.8l-4.4-33.8c-0.8-7.6,2.9-15.1,8.4-20.4c1.3-1.2,3.3-1.2,4.6,0c5.5,5.3,9.2,12.8,8.4,20.4 L46.4,58.3z" class="st3"/><path d="M38.4,4.7c-5.4,5.2-8.9,12.4-8.2,19.7l4.3,33.1h11.2L50,24.4c0.8-7.3-2.8-14.6-8.2-19.7 C40.9,3.8,39.4,3.8,38.4,4.7z M37.3,3.5C38.9,2,41.4,2,43,3.5l0,0v0c5.6,5.4,9.5,13.2,8.6,21.1c0,0,0,0,0,0l-4.4,33.8 c-0.1,0.4-0.4,0.7-0.8,0.7H33.8c-0.4,0-0.7-0.3-0.8-0.7l-4.4-33.8c0,0,0,0,0,0C27.8,16.7,31.6,8.9,37.3,3.5L37.3,3.5L37.3,3.5z" class="st2"/><path d="M40.2,25.7c2.7,0,5-2.2,5-5c0-2.7-2.2-5-5-5s-5,2.2-5,5C35.2,23.4,37.4,25.7,40.2,25.7z" class="st1"/><path d="M40.2,16.5c-2.3,0-4.2,1.9-4.2,4.2s1.9,4.2,4.2,4.2s4.2-1.9,4.2-4.2S42.5,16.5,40.2,16.5z M34.4,20.7 c0-3.2,2.6-5.8,5.8-5.8c3.2,0,5.8,2.6,5.8,5.8c0,3.2-2.6,5.8-5.8,5.8C37,26.4,34.4,23.9,34.4,20.7z" class="st2"/><path d="M39.4,58.3v-17H41v17H39.4z" class="st2"/><path d="M39.6,76.8V64.4h1.6v12.4H39.6z" class="st4"/><path d="M36.1,73.2v-8.8h1.6v8.8H36.1z" class="st5"/><path d="M43.1,73.2v-8.8h1.6v8.8H43.1z" class="st5"/><path d="M66.3,14.8c-0.2-2.3-1.9-4.2-4.3-4.4c-1.7-0.2-3.3,0.6-4.2,1.9c-0.3,0.5-0.6,1-0.7,1.5 c-0.1,0.2-0.2,0.6-0.2,0.8c-0.2,2.6,1.7,4.9,4.2,5.1c2.2,0.2,4.3-1.2,5-3.4c0.1-0.3,0.2-0.6,0.2-1C66.3,15.3,66.3,15.1,66.3,14.8z" class="st3"/><path d="M62.1,9.6c2.8,0.2,4.9,2.5,5.1,5.1c0,0,0,0,0,0.1v0c0,0.1,0,0.3,0,0.4c0,0.1,0,0.2-0.1,0.4 c0,0.4-0.1,0.7-0.2,1c0,0,0,0,0,0c0,0,0,0,0,0c-0.7,2.5-3.2,4.2-5.8,3.9c-3-0.3-5.2-2.9-5-6c0-0.4,0.1-0.7,0.2-1 c0.2-0.6,0.5-1.2,0.8-1.7c0,0,0,0,0,0C58.2,10.4,60.1,9.4,62.1,9.6z M58.4,12.8c-0.3,0.4-0.5,0.8-0.6,1.3c0,0,0,0,0,0 c-0.1,0.2-0.1,0.4-0.1,0.5c0,0,0,0,0,0.1c-0.2,2.2,1.4,4.1,3.5,4.3l0,0v0c1.8,0.2,3.6-1,4.1-2.8c0.1-0.3,0.1-0.5,0.1-0.7 c0-0.1,0-0.2,0.1-0.3c0,0,0,0,0,0c0-0.1,0-0.1,0-0.2c-0.1-1.9-1.6-3.5-3.6-3.6c0,0,0,0,0,0C60.5,11.1,59.2,11.7,58.4,12.8z" class="st2"/><path d="M58.9,16.5c1.1,0,2.1-0.9,2.1-2.1c0-1.1-0.9-2.1-2.1-2.1c-1.1,0-2.1,0.9-2.1,2.1 C56.8,15.6,57.7,16.5,58.9,16.5z" class="st3"/><path d="M58.9,13.1c-0.7,0-1.3,0.6-1.3,1.3c0,0.7,0.6,1.3,1.3,1.3c0.7,0,1.3-0.6,1.3-1.3 C60.2,13.7,59.6,13.1,58.9,13.1z M56,14.4c0-1.6,1.3-2.9,2.9-2.9c1.6,0,2.9,1.3,2.9,2.9s-1.3,2.9-2.9,2.9C57.3,17.3,56,16,56,14.4 z" class="st2"/><path d="M54.4,36.8V36c1.8,0,3.2-1.4,3.2-3.2h0.8c0,1.8,1.4,3.2,3.2,3.2v0.8c-1.8,0-3.2,1.4-3.2,3.2h-0.8 C57.6,38.3,56.2,36.8,54.4,36.8z" class="st1"/><path d="M56.8,32.8c0-0.4,0.4-0.8,0.8-0.8h0.8c0.4,0,0.8,0.4,0.8,0.8c0,1.3,1.1,2.4,2.4,2.4c0.4,0,0.8,0.4,0.8,0.8 v0.8c0,0.4-0.4,0.8-0.8,0.8c-1.3,0-2.4,1.1-2.4,2.4c0,0.4-0.4,0.8-0.8,0.8h-0.8c-0.4,0-0.8-0.4-0.8-0.8c0-1.3-1.1-2.4-2.4-2.4 c-0.4,0-0.8-0.4-0.8-0.8V36c0-0.4,0.4-0.8,0.8-0.8C55.7,35.2,56.8,34.1,56.8,32.8z M58,34.5c-0.4,0.8-1.1,1.5-1.9,1.9 c0.8,0.4,1.5,1.1,1.9,1.9c0.4-0.8,1.1-1.5,1.9-1.9C59.1,36,58.4,35.3,58,34.5z" class="st2"/><path d="M64.8,56v-1.6c1.8,0,3.2-1.4,3.2-3.2h1.6c0,1.8,1.4,3.2,3.2,3.2V56c-1.8,0-3.2,1.4-3.2,3.2H68 C68,57.4,66.6,56,64.8,56z" class="st3"/><path d="M67.2,51.2c0-0.4,0.4-0.8,0.8-0.8h1.6c0.4,0,0.8,0.4,0.8,0.8c0,1.3,1.1,2.4,2.4,2.4c0.4,0,0.8,0.4,0.8,0.8V56 c0,0.4-0.4,0.8-0.8,0.8c-1.3,0-2.4,1.1-2.4,2.4c0,0.4-0.4,0.8-0.8,0.8H68c-0.4,0-0.8-0.4-0.8-0.8c0-1.4-1.1-2.4-2.4-2.4 c-0.4,0-0.8-0.4-0.8-0.8v-1.6c0-0.4,0.4-0.8,0.8-0.8C66.1,53.6,67.2,52.5,67.2,51.2z M68.7,52c-0.3,1.6-1.6,2.8-3.1,3.1v0.2 c1.6,0.3,2.8,1.5,3.1,3.1h0.2c0.3-1.6,1.6-2.8,3.1-3.1v-0.2c-1.6-0.3-2.8-1.6-3.1-3.1H68.7z" class="st2"/><path d="M72.2,34.7c1,0,1.8-0.8,1.8-1.8c0-1-0.8-1.8-1.8-1.8c-1,0-1.8,0.8-1.8,1.8C70.4,33.9,71.2,34.7,72.2,34.7z" class="st3"/><path d="M72.2,32c-0.5,0-1,0.4-1,1c0,0.5,0.4,1,1,1s1-0.4,1-1C73.1,32.4,72.7,32,72.2,32z M69.6,33 c0-1.4,1.1-2.6,2.6-2.6c1.4,0,2.6,1.1,2.6,2.6c0,1.4-1.1,2.6-2.6,2.6C70.7,35.5,69.6,34.4,69.6,33z" class="st2"/><path d="M12.2,60.4c1,0,1.8-0.8,1.8-1.8s-0.8-1.8-1.8-1.8s-1.8,0.8-1.8,1.8S11.2,60.4,12.2,60.4z" class="st1"/><path d="M12.2,57.6c-0.5,0-1,0.4-1,1c0,0.5,0.4,1,1,1s1-0.4,1-1C13.1,58,12.7,57.6,12.2,57.6z M9.6,58.6 c0-1.4,1.1-2.6,2.6-2.6c1.4,0,2.6,1.1,2.6,2.6c0,1.4-1.1,2.6-2.6,2.6C10.7,61.1,9.6,60,9.6,58.6z" class="st2"/></g></g></svg>