<svg xmlns="http://www.w3.org/2000/svg" viewBox="0 0 112 160"><path fill="#e4bc07" d="M16.3 133.72s-9.08-2.45-9.31 3.73c.36 2.02 3.26 3.73 3.26 3.73l-.47 2.21s1.16 4.19 6.99 3.96c5.82-.23 6.87-4.77 6.17-6.64 0 0 3.84-6.63-6.64-6.99m26.09 20.09c5.07 0 9.18-2.52 9.18-5.62s-4.11-5.62-9.18-5.62-9.18 2.52-9.18 5.62 4.11 5.62 9.18 5.62"/><path fill="#e4bc07" d="M42.38 158.4c3.54 0 6.4-1.85 6.4-4.13s-2.87-4.13-6.4-4.13-6.4 1.85-6.4 4.13 2.87 4.13 6.4 4.13M92.57 136c5.07 0 9.18-2.52 9.18-5.62s-4.11-5.62-9.18-5.62-9.18 2.52-9.18 5.62S87.5 136 92.57 136"/><path fill="#e4bc07" d="M92.56 140.59c3.54 0 6.4-1.85 6.4-4.13s-2.87-4.13-6.4-4.13-6.4 1.85-6.4 4.13 2.87 4.13 6.4 4.13"/><path fill="#0185ff" d="M5.01 55.49v66.59s1.16 8.15 5.12 11.18c1.19.91 3.65 3.96 3.65 3.96l20.1 9.78s5.12 2.56 16.07-.93 50.06-18.86 50.06-18.86 7.92-4.42 7.92-16.53V47.81l-56.58-1.63-46.34 9.3Z"/><path fill="#e4bc07" d="m9.59 44.08-6.05 2.17s-2.33 1.55-2.33 3.73.62 3.26 3.8 5.51L38.3 72.02s2.79.78 6.05-.47c3.26-1.24 64.73-24.37 64.73-24.37s1.55-2.02 1.4-3.57-1.4-3.41-1.86-3.73c-.47-.31-8.07-3.41-8.07-3.41s2.02-8.38-7.3-11.95c-5.43-2.79-8.23-3.57-8.23-3.57s1.4-7.45-4.81-13.66S67.02.46 60.5 2.17s-26.85 9.62-26.85 9.62-7.89 3.06-9.47 10.71l-1.58 7.65-8.2 2.91S9.59 35.7 9.59 44.08"/><path fill="#4ed7de" d="m29.3 27.93 6.83 12.58 9.78-7.45-6.67-13.35-9.93 8.23Zm33.38-14.74-6.36 13.04 9.78 8.07 6.52-13.81z"/><path fill="#0676de" d="M49.02 75.59s-2.33.93-2.33 4.35v55.73s.31 4.81 5.74 3.41 44.08-15.99 44.08-15.99l1.86-2.64 5.12-9.47-.31-2.48V60.38l-2.33-3.26h-2.64L49 75.59Zm-13.51 3.1s.15-3.11-1.55-4.04c-1.71-.93-20.8-9.93-20.8-9.93s-2.64-.31-2.95 2.17-.15 54.8-.15 54.8l5.28 9.47 3.57 1.86 13.04 5.43 2.79.15 1.09-1.86-.31-58.06Z"/><path fill="#4ed7de" d="M61.71 104.73s-1.05-4.89-.12-7.68 1.86-10.48 1.51-12.34-1.51-5.01-5.12-4.66-5.21 2.73-5.35 4.66-.12 2.45 0 3.73 1.98 7.57 2.09 8.61c.12 1.05.35 7.8.35 7.8l3.96.7 2.68-.81Zm-9.08 4.69s-4.03 2.96-6.96 3.25-10.32 2.59-11.88 3.67-3.95 3.43-2.15 6.58 4.62 3.64 6.44 2.98 2.28-.89 3.4-1.52 6.09-4.9 7-5.44c.91-.53 6.98-3.51 6.98-3.51l-.98-3.9-1.84-2.11Zm7.08 7.35s4.26 2.62 5.63 5.23c1.38 2.6 6.28 8.59 7.87 9.62s4.66 2.37 6.91-.48c2.24-2.85 1.63-5.65.34-7.09s-1.69-1.77-2.69-2.57c-1.01-.8-6.84-3.8-7.67-4.44s-5.88-5.14-5.88-5.14l-3.24 2.38-1.26 2.5Z"/><path fill="#fffaf0" d="M58.45 116.14c3.21 0 5.82-2.71 5.82-6.05s-2.61-6.05-5.82-6.05-5.82 2.71-5.82 6.05 2.61 6.05 5.82 6.05"/><path fill="#4ed7de" d="M58.85 112.75c1.41 0 2.56-1.15 2.56-2.56s-1.15-2.56-2.56-2.56-2.56 1.15-2.56 2.56 1.15 2.56 2.56 2.56m26.84-3.83c7.33 0 13.27-8.71 13.27-19.44s-5.94-19.44-13.27-19.44-13.27 8.7-13.27 19.44 5.94 19.44 13.27 19.44"/><path fill="#fffaf0" d="M94.54 99.03c3.02 0 5.47-3.62 5.47-8.09s-2.45-8.09-5.47-8.09-5.47 3.62-5.47 8.09 2.45 8.09 5.47 8.09m-35.37 13.5c1.44 0 2.6-1.08 2.6-2.41s-1.17-2.41-2.6-2.41-2.6 1.08-2.6 2.41 1.17 2.41 2.6 2.41"/><path fill="#002140" d="M80.06 70.62s-6.36 1.24-10.09 12.42 2.33 25.61 13.35 26.08c0 0-12.38-3.47-10.79-24.72.02-.29.31-.85.31-.85s3.03-9.51 7.22-12.92Zm13.66 11.95-4.19-.62s-3.73 1.55-4.5 5.59c-.78 4.04 1.7 10.4 3.41 10.71l4.35.62s-3.73-2.48-3.11-10.4c.69-3.75 4.04-5.9 4.04-5.9"/><path fill="#002140" d="M95.2 94.06c1.24 0 2.25-1.55 2.25-3.45s-1.01-3.45-2.25-3.45-2.25 1.55-2.25 3.45 1.01 3.45 2.25 3.45"/><path fill="none" stroke="#002140" stroke-linecap="round" stroke-linejoin="round" d="M5.01 55.72v64.99c0 6.98 3.92 13.38 10.14 16.55l17.34 8.84c4.6 2.35 9.98 2.67 14.83.89l48.19-17.66a18.58 18.58 0 0 0 12.19-17.44V47.8"/><path fill="none" stroke="#002140" stroke-linecap="round" stroke-linejoin="round" d="m9.83 44-5.71 2.06c-3.86 1.39-4.15 6.73-.48 8.55l34.95 17.27c1.15.57 2.48.64 3.68.19l65.13-24.14c4.03-1.49 4.05-7.18.04-8.71l-6.8-2.59"/><path fill="none" stroke="#002140" stroke-linecap="round" stroke-linejoin="round" d="m22.6 30.15-6.31 2.28c-8.34 3.02-8.99 14.56-1.04 18.49l21.47 10.61c2.48 1.23 5.36 1.38 7.96.41l49.43-18.33c8.72-3.23 8.77-15.54.08-18.85l-9.1-3.46M66.55 1.05c-2.19-.02-4.39.35-6.48 1.11l-23.26 8.41"/><path fill="none" stroke="#002140" stroke-linecap="round" stroke-linejoin="round" d="m36.82 10.57-1.73.62c-15.4 5.57-16.6 26.89-1.92 34.14l.26.13a18.57 18.57 0 0 0 14.7.76l24.72-9.16C88.94 31.1 89.04 8.37 73 2.26c-2.08-.79-4.27-1.2-6.46-1.21M41.25 113.23V72.38m0 75.39v-23.52m9.58 21.67c.54.69.85 1.46.85 2.27 0 3.02-4.22 5.47-9.43 5.47s-9.43-2.45-9.43-5.47c0-.38.07-.75.19-1.1"/><path fill="none" stroke="#002140" stroke-linecap="round" stroke-linejoin="round" d="M48.51 152.71c.18.44.28.9.28 1.39 0 2.63-2.92 4.77-6.52 4.77s-6.52-2.14-6.52-4.77c0-.57.13-1.11.38-1.61m62.51-17.94c.18.44.28.9.28 1.39 0 2.63-2.92 4.77-6.52 4.77s-6.52-2.14-6.52-4.77c0-.57.13-1.11.38-1.61"/><path fill="none" stroke="#002140" stroke-linecap="round" stroke-linejoin="round" d="M100.3 127.1c1.14.87 1.81 1.94 1.81 3.1 0 2.93-4.27 5.3-9.55 5.3-3.07 0-5.8-.8-7.55-2.05m-62.43 7.93c.18.44.28.9.28 1.39 0 2.63-2.92 4.77-6.52 4.77s-6.52-2.14-6.52-4.77c0-.57.13-1.11.38-1.62"/><path fill="none" stroke="#002140" stroke-linecap="round" stroke-linejoin="round" d="M22.49 141.16c-1.64.73-3.72 1.17-5.99 1.17-5.27 0-9.55-2.37-9.55-5.3 0-1.46 1.07-2.79 2.8-3.75m25.93-18.42L35.5 76.8c0-.95-.56-1.82-1.45-2.24l-20.32-9.6c-1.7-.8-3.68.4-3.69 2.25l-.14 54.21c0 .46.13.91.37 1.31l4.92 7.9c.27.43.67.78 1.14.98l15.83 6.95c1.7.75 3.63-.47 3.62-2.29l-.05-10.14m45.93 2.46 13.62-4.85c.89-.32 1.64-.95 2.09-1.78l5.35-9.8c.31-.57.47-1.2.47-1.84V60.68c0-2.69-2.69-4.55-5.21-3.6L49.02 75.59c-1.5.56-2.49 2-2.49 3.6v32.73m0 8.3v15.43c0 2.66 2.63 4.52 5.14 3.62l21.06-7.5"/><path fill="none" stroke="#002140" stroke-linecap="round" stroke-linejoin="round" d="M55.26 104.54c.04-11.45-2.78-12.24-2.78-17.9s3.28-6.78 5.81-6.78 4.93 1.75 4.93 7.26-2.68 10.24-1.75 17.42m-6.65 10.76c-10.49 4.59-10.07 7.49-15.25 9.78-5.17 2.29-7.53-.26-8.55-2.57s-.39-5.22 4.65-7.45 10.45-1.69 16.64-5.44m12.2 2.38c8.03 8.16 10.6 6.74 14.58 10.75 3.98 4.02 2.44 7.13.65 8.9-1.8 1.78-4.74 2.22-8.61-1.68-3.88-3.91-5.31-9.16-11.02-13.6"/><path fill="none" stroke="#002140" stroke-linecap="round" stroke-linejoin="round" d="M58.47 116.42c3.32 0 6.01-2.8 6.01-6.26s-2.69-6.26-6.01-6.26-6.01 2.81-6.01 6.26 2.69 6.26 6.01 6.26"/><path fill="none" stroke="#002140" stroke-linecap="round" stroke-linejoin="round" d="M59.15 112.88a2.791 2.791 0 0 0 0-5.58 2.791 2.791 0 0 0 0 5.58m38.14-14.25c-2.51 6.27-7.51 10.55-13.27 10.55-8.27 0-14.98-8.81-14.98-19.68s6.71-19.68 14.98-19.68c7 0 12.89 6.32 14.53 14.85"/><path fill="none" stroke="#002140" stroke-linecap="round" stroke-linejoin="round" d="M85.81 108.96c-7.68 0-13.27-9.45-13.27-19.56 0-9.51 5.36-19.59 11.88-19.59"/><path fill="none" stroke="#002140" stroke-linecap="round" stroke-linejoin="round" d="M90.16 98.57c-3 0-5.43-3.72-5.43-8.31s2.43-8.31 5.43-8.31"/><path fill="none" stroke="#002140" stroke-linecap="round" stroke-linejoin="round" d="M94.84 99.24c3 0 5.43-3.72 5.43-8.31s-2.43-8.31-5.43-8.31-5.43 3.72-5.43 8.31 2.43 8.31 5.43 8.31"/><path fill="none" stroke="#002140" stroke-linecap="round" stroke-linejoin="round" d="M95.12 94.46c1.32 0 2.39-1.64 2.39-3.66s-1.07-3.66-2.39-3.66-2.39 1.64-2.39 3.66 1.07 3.66 2.39 3.66m-.28-11.83-4.67-.67m3.74 17.14-4.68-.67m-15.21-2.78 4.8-1.91m6.4-17.76-2.16-6.01m-1.29 37.6 1.63-4.77m-4.23-19.45-5.01-.82m7.22-3.37-4.19-3.73m.74 13.46-5.01.58m6.83 10.22-3.26 3.61m11.95-.55.54 5.32m4.15-6.81.63 2.46M89.3 77.26l1.52-4.77m2.32 7.56 3.14-1.16M62.77 12.48l-6.76 13.81 9.87 7.89 7.05-13.53-10.15-8.18Z"/><path fill="none" stroke="#002140" stroke-linecap="round" stroke-linejoin="round" d="M62.77 12.48 67 23.19l-1.13 10.99M56 26.3l16.91-5.64m-33.4-1.38 6.76 13.81-9.87 7.89-7.05-13.53 10.15-8.17Z"/><path fill="none" stroke="#002140" stroke-linecap="round" stroke-linejoin="round" d="m39.51 19.28-4.23 10.71 1.13 10.99m9.86-7.89-16.91-5.64"/><path fill="#002140" d="M17.82 47.24c1.74 0 3.14-1.49 3.14-3.32s-1.41-3.32-3.14-3.32-3.14 1.49-3.14 3.32 1.41 3.32 3.14 3.32m10.55 6.37c1.74 0 3.14-1.49 3.14-3.32s-1.41-3.32-3.14-3.32-3.14 1.49-3.14 3.32 1.41 3.32 3.14 3.32m12.88 4.65c1.74 0 3.14-1.49 3.14-3.32s-1.41-3.32-3.14-3.32-3.14 1.49-3.14 3.32 1.41 3.32 3.14 3.32m13.62-3.57c1.74 0 3.14-1.49 3.14-3.32s-1.41-3.32-3.14-3.32-3.14 1.49-3.14 3.32 1.41 3.32 3.14 3.32m12.93-4.96c1.74 0 3.14-1.49 3.14-3.32s-1.41-3.32-3.14-3.32-3.14 1.49-3.14 3.32 1.41 3.32 3.14 3.32m12.26-4.66c1.74 0 3.14-1.49 3.14-3.32s-1.41-3.32-3.14-3.32-3.14 1.49-3.14 3.32 1.41 3.32 3.14 3.32m10.67-4.46c1.74 0 3.14-1.49 3.14-3.32s-1.41-3.32-3.14-3.32-3.14 1.49-3.14 3.32 1.41 3.32 3.14 3.32"/></svg>