<?xml version="1.0" encoding="UTF-8"?>
<svg id="Layer_1" xmlns="http://www.w3.org/2000/svg" version="1.1" viewBox="0 0 112 160">
  <!-- Generator: Adobe Illustrator 30.0.0, SVG Export Plug-In . SVG Version: 2.1.1 Build 123)  -->
  <path d="M16.3,133.72s-9.08-2.45-9.31,3.73c.36,2.02,3.26,3.73,3.26,3.73l-.47,2.21s1.16,4.19,6.99,3.96c5.82-.23,6.87-4.77,6.17-6.64,0,0,3.84-6.63-6.64-6.99h0Z" fill="#e4bc07"/>
  <path d="M42.39,153.81c5.07,0,9.18-2.52,9.18-5.62s-4.11-5.62-9.18-5.62-9.18,2.52-9.18,5.62,4.11,5.62,9.18,5.62Z" fill="#e4bc07"/>
  <path d="M42.38,158.4c3.54,0,6.4-1.85,6.4-4.13s-2.87-4.13-6.4-4.13-6.4,1.85-6.4,4.13,2.87,4.13,6.4,4.13Z" fill="#e4bc07"/>
  <path d="M92.57,136c5.07,0,9.18-2.52,9.18-5.62s-4.11-5.62-9.18-5.62-9.18,2.52-9.18,5.62,4.11,5.62,9.18,5.62Z" fill="#e4bc07"/>
  <path d="M92.56,140.59c3.54,0,6.4-1.85,6.4-4.13s-2.87-4.13-6.4-4.13-6.4,1.85-6.4,4.13,2.87,4.13,6.4,4.13Z" fill="#e4bc07"/>
  <path d="M5.01,55.49v66.59s1.16,8.15,5.12,11.18c1.19.91,3.65,3.96,3.65,3.96l20.1,9.78s5.12,2.56,16.07-.93,50.06-18.86,50.06-18.86c0,0,7.92-4.42,7.92-16.53v-62.87l-56.58-1.63L5.01,55.48h0Z" fill="#0185ff"/>
  <path d="M9.59,44.08l-6.05,2.17s-2.33,1.55-2.33,3.73.62,3.26,3.8,5.51l33.29,16.53s2.79.78,6.05-.47c3.26-1.24,64.73-24.37,64.73-24.37,0,0,1.55-2.02,1.4-3.57-.15-1.55-1.4-3.41-1.86-3.73-.47-.31-8.07-3.41-8.07-3.41,0,0,2.02-8.38-7.3-11.95-5.43-2.79-8.23-3.57-8.23-3.57,0,0,1.4-7.45-4.81-13.66-6.21-6.21-13.19-6.83-19.71-5.12-6.52,1.71-26.85,9.62-26.85,9.62,0,0-7.89,3.06-9.47,10.71l-1.58,7.65-8.2,2.91s-4.81,2.64-4.81,11.02h0Z" fill="#e4bc07"/>
  <path d="M29.3,27.93l6.83,12.58,9.78-7.45-6.67-13.35-9.93,8.23Z" fill="#4ed7de"/>
  <path d="M62.68,13.19l-6.36,13.04,9.78,8.07,6.52-13.81-9.94-7.3Z" fill="#4ed7de"/>
  <path d="M49.02,75.59s-2.33.93-2.33,4.35v55.73s.31,4.81,5.74,3.41c5.43-1.4,44.08-15.99,44.08-15.99l1.86-2.64,5.12-9.47-.31-2.48v-48.12l-2.33-3.26h-2.64l-49.21,18.47Z" fill="#0676de"/>
  <path d="M35.51,78.69s.15-3.11-1.55-4.04c-1.71-.93-20.8-9.93-20.8-9.93,0,0-2.64-.31-2.95,2.17-.31,2.48-.15,54.8-.15,54.8l5.28,9.47,3.57,1.86,13.04,5.43,2.79.15,1.09-1.86-.31-58.06h0Z" fill="#0676de"/>
  <path d="M61.71,104.73s-1.05-4.89-.12-7.68c.93-2.79,1.86-10.48,1.51-12.34-.35-1.86-1.51-5.01-5.12-4.66s-5.21,2.73-5.35,4.66c-.14,1.93-.12,2.45,0,3.73.12,1.28,1.98,7.57,2.09,8.61.12,1.05.35,7.8.35,7.8l3.96.7,2.68-.81Z" fill="#4ed7de"/>
  <path d="M52.63,109.42s-4.03,2.96-6.96,3.25c-2.93.29-10.32,2.59-11.88,3.67-1.56,1.08-3.95,3.43-2.15,6.58,1.8,3.15,4.62,3.64,6.44,2.98,1.82-.66,2.28-.89,3.4-1.52,1.12-.63,6.09-4.9,7-5.44.91-.53,6.98-3.51,6.98-3.51l-.98-3.9-1.84-2.11h0Z" fill="#4ed7de"/>
  <path d="M59.71,116.77s4.26,2.62,5.63,5.23c1.38,2.6,6.28,8.59,7.87,9.62s4.66,2.37,6.91-.48c2.24-2.85,1.63-5.65.34-7.09-1.29-1.44-1.69-1.77-2.69-2.57-1.01-.8-6.84-3.8-7.67-4.44s-5.88-5.14-5.88-5.14l-3.24,2.38-1.26,2.5h0Z" fill="#4ed7de"/>
  <path d="M58.45,116.14c3.21,0,5.82-2.71,5.82-6.05s-2.61-6.05-5.82-6.05-5.82,2.71-5.82,6.05,2.61,6.05,5.82,6.05Z" fill="#fffaf0"/>
  <path d="M58.85,112.75c1.41,0,2.56-1.15,2.56-2.56s-1.15-2.56-2.56-2.56-2.56,1.15-2.56,2.56,1.15,2.56,2.56,2.56Z" fill="#4ed7de"/>
  <path d="M85.69,108.92c7.33,0,13.27-8.71,13.27-19.44s-5.94-19.44-13.27-19.44-13.27,8.7-13.27,19.44,5.94,19.44,13.27,19.44Z" fill="#4ed7de"/>
  <path d="M94.54,99.03c3.02,0,5.47-3.62,5.47-8.09s-2.45-8.09-5.47-8.09-5.47,3.62-5.47,8.09,2.45,8.09,5.47,8.09Z" fill="#fffaf0"/>
  <path d="M59.17,112.53c1.44,0,2.6-1.08,2.6-2.41s-1.17-2.41-2.6-2.41-2.6,1.08-2.6,2.41,1.17,2.41,2.6,2.41Z" fill="#fffaf0"/>
  <path d="M80.06,70.62s-6.36,1.24-10.09,12.42c-3.73,11.18,2.33,25.61,13.35,26.08,0,0-12.38-3.47-10.79-24.72.02-.29.31-.85.31-.85,0,0,3.03-9.51,7.22-12.92Z" fill="#002140"/>
  <path d="M93.72,82.57l-4.19-.62s-3.73,1.55-4.5,5.59c-.78,4.04,1.7,10.4,3.41,10.71l4.35.62s-3.73-2.48-3.11-10.4c.69-3.75,4.04-5.9,4.04-5.9h0Z" fill="#002140"/>
  <path d="M95.2,94.06c1.24,0,2.25-1.55,2.25-3.45s-1.01-3.45-2.25-3.45-2.25,1.55-2.25,3.45,1.01,3.45,2.25,3.45Z" fill="#002140"/>
  <path d="M5.01,55.72v64.99c0,6.98,3.92,13.38,10.14,16.55l17.34,8.84c4.6,2.35,9.98,2.67,14.83.89l48.19-17.66c7.32-2.68,12.19-9.65,12.19-17.44V47.8" fill="none" stroke="#002140" stroke-linecap="round" stroke-linejoin="round"/>
  <path d="M9.83,44l-5.71,2.06c-3.86,1.39-4.15,6.73-.48,8.55l34.95,17.27c1.15.57,2.48.64,3.68.19l65.13-24.14c4.03-1.49,4.05-7.18.04-8.71l-6.8-2.59" fill="none" stroke="#002140" stroke-linecap="round" stroke-linejoin="round"/>
  <path d="M22.6,30.15l-6.31,2.28c-8.34,3.02-8.99,14.56-1.04,18.49l21.47,10.61c2.48,1.23,5.36,1.38,7.96.41l49.43-18.33c8.72-3.23,8.77-15.54.08-18.85l-9.1-3.46" fill="none" stroke="#002140" stroke-linecap="round" stroke-linejoin="round"/>
  <path d="M66.55,1.05c-2.19-.02-4.39.35-6.48,1.11l-23.26,8.41" fill="none" stroke="#002140" stroke-linecap="round" stroke-linejoin="round"/>
  <path d="M36.82,10.57l-1.73.62c-15.4,5.57-16.6,26.89-1.92,34.14l.26.13c4.59,2.27,9.9,2.54,14.7.76l24.72-9.16c16.09-5.96,16.19-28.69.15-34.8-2.08-.79-4.27-1.2-6.46-1.21" fill="none" stroke="#002140" stroke-linecap="round" stroke-linejoin="round"/>
  <path d="M41.25,113.23v-40.85" fill="none" stroke="#002140" stroke-linecap="round" stroke-linejoin="round"/>
  <path d="M41.25,147.77v-23.52" fill="none" stroke="#002140" stroke-linecap="round" stroke-linejoin="round"/>
  <path d="M50.83,145.92c.54.69.85,1.46.85,2.27,0,3.02-4.22,5.47-9.43,5.47s-9.43-2.45-9.43-5.47c0-.38.07-.75.19-1.1" fill="none" stroke="#002140" stroke-linecap="round" stroke-linejoin="round"/>
  <path d="M48.51,152.71c.18.44.28.9.28,1.39,0,2.63-2.92,4.77-6.52,4.77s-6.52-2.14-6.52-4.77c0-.57.13-1.11.38-1.61" fill="none" stroke="#002140" stroke-linecap="round" stroke-linejoin="round"/>
  <path d="M98.64,134.55c.18.44.28.9.28,1.39,0,2.63-2.92,4.77-6.52,4.77s-6.52-2.14-6.52-4.77c0-.57.13-1.11.38-1.61" fill="none" stroke="#002140" stroke-linecap="round" stroke-linejoin="round"/>
  <path d="M100.3,127.1c1.14.87,1.81,1.94,1.81,3.1,0,2.93-4.27,5.3-9.55,5.3-3.07,0-5.8-.8-7.55-2.05" fill="none" stroke="#002140" stroke-linecap="round" stroke-linejoin="round"/>
  <path d="M22.58,141.38c.18.44.28.9.28,1.39,0,2.63-2.92,4.77-6.52,4.77s-6.52-2.14-6.52-4.77c0-.57.13-1.11.38-1.62" fill="none" stroke="#002140" stroke-linecap="round" stroke-linejoin="round"/>
  <path d="M22.49,141.16c-1.64.73-3.72,1.17-5.99,1.17-5.27,0-9.55-2.37-9.55-5.3,0-1.46,1.07-2.79,2.8-3.75" fill="none" stroke="#002140" stroke-linecap="round" stroke-linejoin="round"/>
  <path d="M35.68,114.86l-.18-38.06c0-.95-.56-1.82-1.45-2.24l-20.32-9.6c-1.7-.8-3.68.4-3.69,2.25l-.14,54.21c0,.46.13.91.37,1.31l4.92,7.9c.27.43.67.78,1.14.98l15.83,6.95c1.7.75,3.63-.47,3.62-2.29l-.05-10.14" fill="none" stroke="#002140" stroke-linecap="round" stroke-linejoin="round"/>
  <path d="M81.66,128.59l13.62-4.85c.89-.32,1.64-.95,2.09-1.78l5.35-9.8c.31-.57.47-1.2.47-1.84v-49.64c0-2.69-2.69-4.55-5.21-3.6l-48.96,18.51c-1.5.56-2.49,2-2.49,3.6v32.73" fill="none" stroke="#002140" stroke-linecap="round" stroke-linejoin="round"/>
  <path d="M46.53,120.22v15.43c0,2.66,2.63,4.52,5.14,3.62l21.06-7.5" fill="none" stroke="#002140" stroke-linecap="round" stroke-linejoin="round"/>
  <path d="M55.26,104.54c.04-11.45-2.78-12.24-2.78-17.9s3.28-6.78,5.81-6.78,4.93,1.75,4.93,7.26-2.68,10.24-1.75,17.42" fill="none" stroke="#002140" stroke-linecap="round" stroke-linejoin="round"/>
  <path d="M54.82,115.3c-10.49,4.59-10.07,7.49-15.25,9.78-5.17,2.29-7.53-.26-8.55-2.57-1.02-2.31-.39-5.22,4.65-7.45,5.04-2.23,10.45-1.69,16.64-5.44" fill="none" stroke="#002140" stroke-linecap="round" stroke-linejoin="round"/>
  <path d="M64.51,112c8.03,8.16,10.6,6.74,14.58,10.75,3.98,4.02,2.44,7.13.65,8.9-1.8,1.78-4.74,2.22-8.61-1.68-3.88-3.91-5.31-9.16-11.02-13.6" fill="none" stroke="#002140" stroke-linecap="round" stroke-linejoin="round"/>
  <path d="M58.47,116.42c3.32,0,6.01-2.8,6.01-6.26s-2.69-6.26-6.01-6.26-6.01,2.81-6.01,6.26,2.69,6.26,6.01,6.26Z" fill="none" stroke="#002140" stroke-linecap="round" stroke-linejoin="round"/>
  <path d="M59.15,112.88c1.54,0,2.79-1.25,2.79-2.79s-1.25-2.79-2.79-2.79-2.79,1.25-2.79,2.79,1.25,2.79,2.79,2.79Z" fill="none" stroke="#002140" stroke-linecap="round" stroke-linejoin="round"/>
  <path d="M97.29,98.63c-2.51,6.27-7.51,10.55-13.27,10.55-8.27,0-14.98-8.81-14.98-19.68s6.71-19.68,14.98-19.68c7,0,12.89,6.32,14.53,14.85" fill="none" stroke="#002140" stroke-linecap="round" stroke-linejoin="round"/>
  <path d="M85.81,108.96c-7.68,0-13.27-9.45-13.27-19.56,0-9.51,5.36-19.59,11.88-19.59" fill="none" stroke="#002140" stroke-linecap="round" stroke-linejoin="round"/>
  <path d="M90.16,98.57c-3,0-5.43-3.72-5.43-8.31s2.43-8.31,5.43-8.31" fill="none" stroke="#002140" stroke-linecap="round" stroke-linejoin="round"/>
  <path d="M94.84,99.24c3,0,5.43-3.72,5.43-8.31s-2.43-8.31-5.43-8.31-5.43,3.72-5.43,8.31,2.43,8.31,5.43,8.31Z" fill="none" stroke="#002140" stroke-linecap="round" stroke-linejoin="round"/>
  <path d="M95.12,94.46c1.32,0,2.39-1.64,2.39-3.66s-1.07-3.66-2.39-3.66-2.39,1.64-2.39,3.66,1.07,3.66,2.39,3.66Z" fill="none" stroke="#002140" stroke-linecap="round" stroke-linejoin="round"/>
  <path d="M94.84,82.63l-4.67-.67" fill="none" stroke="#002140" stroke-linecap="round" stroke-linejoin="round"/>
  <path d="M93.91,99.1l-4.68-.67" fill="none" stroke="#002140" stroke-linecap="round" stroke-linejoin="round"/>
  <path d="M74.02,95.65l4.8-1.91" fill="none" stroke="#002140" stroke-linecap="round" stroke-linejoin="round"/>
  <path d="M85.22,75.98l-2.16-6.01" fill="none" stroke="#002140" stroke-linecap="round" stroke-linejoin="round"/>
  <path d="M81.77,107.57l1.63-4.77" fill="none" stroke="#002140" stroke-linecap="round" stroke-linejoin="round"/>
  <path d="M79.17,83.35l-5.01-.82" fill="none" stroke="#002140" stroke-linecap="round" stroke-linejoin="round"/>
  <path d="M81.38,79.16l-4.19-3.73" fill="none" stroke="#002140" stroke-linecap="round" stroke-linejoin="round"/>
  <path d="M77.93,88.89l-5.01.58" fill="none" stroke="#002140" stroke-linecap="round" stroke-linejoin="round"/>
  <path d="M79.75,99.69l-3.26,3.61" fill="none" stroke="#002140" stroke-linecap="round" stroke-linejoin="round"/>
  <path d="M88.44,102.75l.54,5.32" fill="none" stroke="#002140" stroke-linecap="round" stroke-linejoin="round"/>
  <path d="M93.13,101.26l.63,2.46" fill="none" stroke="#002140" stroke-linecap="round" stroke-linejoin="round"/>
  <path d="M89.3,77.26l1.52-4.77" fill="none" stroke="#002140" stroke-linecap="round" stroke-linejoin="round"/>
  <path d="M93.14,80.05l3.14-1.16" fill="none" stroke="#002140" stroke-linecap="round" stroke-linejoin="round"/>
  <path d="M62.77,12.48l-6.76,13.81,9.87,7.89,7.05-13.53-10.15-8.18Z" fill="none" stroke="#002140" stroke-linecap="round" stroke-linejoin="round"/>
  <path d="M62.77,12.48l4.23,10.71-1.13,10.99" fill="none" stroke="#002140" stroke-linecap="round" stroke-linejoin="round"/>
  <path d="M56,26.3l16.91-5.64" fill="none" stroke="#002140" stroke-linecap="round" stroke-linejoin="round"/>
  <path d="M39.51,19.28l6.76,13.81-9.87,7.89-7.05-13.53,10.15-8.17Z" fill="none" stroke="#002140" stroke-linecap="round" stroke-linejoin="round"/>
  <path d="M39.51,19.28l-4.23,10.71,1.13,10.99" fill="none" stroke="#002140" stroke-linecap="round" stroke-linejoin="round"/>
  <path d="M46.27,33.09l-16.91-5.64" fill="none" stroke="#002140" stroke-linecap="round" stroke-linejoin="round"/>
  <path d="M17.82,47.24c1.74,0,3.14-1.49,3.14-3.32s-1.41-3.32-3.14-3.32-3.14,1.49-3.14,3.32,1.41,3.32,3.14,3.32Z" fill="#002140"/>
  <path d="M28.37,53.61c1.74,0,3.14-1.49,3.14-3.32s-1.41-3.32-3.14-3.32-3.14,1.49-3.14,3.32,1.41,3.32,3.14,3.32Z" fill="#002140"/>
  <path d="M41.25,58.26c1.74,0,3.14-1.49,3.14-3.32s-1.41-3.32-3.14-3.32-3.14,1.49-3.14,3.32,1.41,3.32,3.14,3.32Z" fill="#002140"/>
  <path d="M54.87,54.69c1.74,0,3.14-1.49,3.14-3.32s-1.41-3.32-3.14-3.32-3.14,1.49-3.14,3.32,1.41,3.32,3.14,3.32Z" fill="#002140"/>
  <path d="M67.8,49.73c1.74,0,3.14-1.49,3.14-3.32s-1.41-3.32-3.14-3.32-3.14,1.49-3.14,3.32,1.41,3.32,3.14,3.32Z" fill="#002140"/>
  <path d="M80.06,45.07c1.74,0,3.14-1.49,3.14-3.32s-1.41-3.32-3.14-3.32-3.14,1.49-3.14,3.32,1.41,3.32,3.14,3.32Z" fill="#002140"/>
  <path d="M90.73,40.61c1.74,0,3.14-1.49,3.14-3.32s-1.41-3.32-3.14-3.32-3.14,1.49-3.14,3.32,1.41,3.32,3.14,3.32Z" fill="#002140"/>
</svg>