<svg xmlns="http://www.w3.org/2000/svg" viewBox="0 0 179 180"><path fill="#f25730" d="M107.39 176.1v.15c0 .24-.03.46-.1.68l-.1-.03H73.32l-.36.08c-.07-.23-.11-.48-.11-.74v-.15c0-1.36 1.12-2.48 2.48-2.48h29.6a2.48 2.48 0 0 1 2.45 2.48Z"/><path fill="#002140" d="m107.2 176.91.1.03c-.3 1.03-1.25 1.8-2.38 1.8H75.35c-1.11 0-2.05-.74-2.37-1.74l.36-.08h33.87Z"/><path fill="#bf3013" d="M104.94 173.6v.03h-8.28v-.05c-1.12-1.35-1.74-3.06-2.04-4.79s-.29-3.5-.28-5.25v-.09h3.17v1.41c0 7.16 4.75 8.66 7.43 8.75Z"/><path fill="#ff7101" d="M102.67 154.15c.02.85-.11 1.64-.35 2.35h-.01a2.29 2.29 0 0 1-3.18-2.11c0-1.27 1.02-2.29 2.29-2.29.32 0 .62.06.89.18l.08-.02c.16.57.26 1.2.28 1.88Z"/><path fill="#002140" d="M82.8 156.98a4.52 4.52 0 0 1-3.1 1.89l-.24.12a7.5 7.5 0 0 1-1.4-2.53h.03c.3.14.64.22.99.22 1.26 0 2.29-1.02 2.29-2.29s-1.02-2.29-2.29-2.29c-.32 0-.62.07-.9.18l-.18-.05c.28-.97.73-1.77 1.26-2.41l.06.05c1.41.07 2.64.79 3.42 1.87l.14-.04c.82-1.11 2.15-1.84 3.64-1.84s2.83.73 3.66 1.86l.14-.02c.82-1.11 2.15-1.84 3.64-1.84s2.92.77 3.75 1.85l.08-.05c.83-1.09 1.94-1.7 3.42-1.7.48.62.9 1.39 1.16 2.3l-.08.02c-.27-.12-.57-.18-.89-.18-1.26 0-2.29 1.02-2.29 2.29s1.02 2.29 2.29 2.29c.32 0 .62-.06.89-.18h.01c-.3.94-.78 1.75-1.32 2.42l-.03-.02c-1.33-.13-2.5-.84-3.24-1.87l-.16.11c-.83 1.08-2.13 1.78-3.6 1.78s-2.86-.75-3.69-1.9l-.15.11c-.83 1.09-2.14 1.79-3.61 1.79s-2.85-.74-3.67-1.89l-.06-.04Zm13.46-2.59c0-1.26-1.02-2.29-2.29-2.29s-2.29 1.02-2.29 2.29 1.02 2.29 2.29 2.29 2.29-1.02 2.29-2.29m-7.44 0c0-1.26-1.02-2.29-2.29-2.29s-2.29 1.02-2.29 2.29 1.02 2.29 2.29 2.29 2.29-1.02 2.29-2.29"/><path fill="#ff7101" d="M101.55 94.67v.15c0 1.22-.89 2.24-2.06 2.44l-.02-.11c-1.3 0-2.36-1.07-2.36-2.37v-.14c0-1.31 1.06-2.37 2.36-2.37v-.04c1.18.19 2.08 1.22 2.08 2.45Z"/><path fill="#e96df2" d="M101.23 149.96c-1.48 0-2.59.62-3.42 1.71l-.08.05c-.83-1.08-2.28-1.85-3.75-1.85s-2.82.72-3.64 1.84l-.14.02c-.82-1.13-2.15-1.86-3.66-1.86s-2.82.72-3.64 1.84l-.14.04a4.54 4.54 0 0 0-3.42-1.87l-.06-.05c1.12-1.39 2.56-2.07 3.21-2.12.07.01.14.02.21.02h14.88q.135 0 .27-.03c.62 0 2.2.72 3.39 2.26Zm-.26 8.93.03.02c-1.06 1.31-2.36 2.08-3.1 2.14-.1-.03-.21-.05-.32-.05H82.7c-.1 0-.19.01-.28.04-.74-.11-1.94-.84-2.94-2.05l.24-.12c1.28-.17 2.39-.88 3.1-1.89l.06.04c.82 1.14 2.16 1.89 3.67 1.89s2.78-.7 3.61-1.79l.15-.11c.82 1.15 2.16 1.9 3.69 1.9s2.77-.7 3.6-1.78l.16-.11c.74 1.03 1.9 1.74 3.24 1.87Z"/><path fill="#ff7101" d="M98.45 137.08c1.39.76 2.22 2.38 2.13 3.95-.08 1.58-1.02 3.06-2.36 3.9-.06.04-.13.09-.12.16v.02l-.54.17H85.23v-.07c.5-.09.6-.45.66-.78.06-.34-.09-.7-.36-.9-.5-.36-1.18-.14-1.79-.18-.29-.01-.58-.09-.84-.22-.31-.15-.59-.38-.93-.41-.3-.02-.61.14-.76.39-.15.26-.15.6 0 .86l-.08.08c-.77-.83-1.26-1.91-1.32-3.03-.02-.38.01-.75.09-1.12h.07c-.09.4-.1.8.04 1.17.21.54.88.92 1.4.67.62-.31.61-1.17.9-1.8.36-.8 1.23-1.22 2.06-1.52.53-.19 1.09-.36 1.52-.72.44-.36.74-.96.56-1.49-.17-.5-.75-1.05-1.3-.66.15-.16.27-.33.36-.52l.09.04h8.95l.3-.08c.12.26.3.49.52.69.86.74 2.08.85 3.07 1.4Z"/><path fill="#e96df2" d="m99.47 97.15.02.11c-.14.02-.28.04-.42.04h-3.2c-1.36 0-2.48-1.12-2.48-2.48v-.15c0-1.36 1.12-2.48 2.48-2.48h3.2c.14 0 .27.01.41.04v.04c-1.3 0-2.36 1.07-2.36 2.37v.14c0 1.31 1.06 2.37 2.36 2.37Z"/><path fill="#002140" d="M98.75 97.3v.14c-4.31 4.23-3.79 9.85-3.79 9.85H85.3s.35-3.79-1.91-7.49c.27-.58.1-1.3-.44-1.68-.3-.21-.66-.28-.99-.23-.14-.15-.29-.31-.44-.46v-.14h17.25Z"/><path fill="#f25730" d="M82.48 147.71a1.215 1.215 0 0 1-.64-2.06c.13-.13.3-.24.48-.3.12-.04.24-.06.37-.06h14.88c.67 0 1.22.55 1.22 1.21 0 .33-.14.64-.36.86-.16.16-.36.27-.59.33q-.135.03-.27.03H82.69c-.07 0-.14 0-.21-.02Zm.4 15.73h-.19c-.67 0-1.22-.55-1.22-1.22 0-.34.14-.64.36-.86.15-.16.35-.27.57-.32.09-.02.19-.04.28-.04h14.88c.11 0 .22.01.32.05.51.14.9.61.9 1.17a1.226 1.226 0 0 1-1.22 1.22H82.87Z"/><path fill="#bf3013" d="M96.67 173.57v.05h-4.08v-.15c-1.04-3.23-1.5-6.65-1.34-10.03h3.1v.09c0 1.76-.01 3.52.28 5.25.3 1.73.92 3.44 2.04 4.79"/><path fill="#f25730" d="M94.87 88.69c.88 0 1.6.72 1.6 1.6 0 .44-.18.84-.47 1.13s-.69.47-1.13.47h-9.49a1.607 1.607 0 0 1-1.13-2.74c.29-.29.69-.47 1.13-.47h9.49Zm.09 18.6c.84.04 1.52.75 1.52 1.6 0 .44-.18.84-.47 1.13s-.69.47-1.13.47h-9.49a1.607 1.607 0 0 1-.08-3.21h9.67Zm-.09 3.31c.88 0 1.6.72 1.6 1.6 0 .44-.18.84-.47 1.13s-.69.47-1.13.47h-9.49a1.607 1.607 0 0 1-1.13-2.74c.29-.29.69-.47 1.13-.47h9.49Zm0 17.98c.88 0 1.6.72 1.6 1.6a1.6 1.6 0 0 1-.91 1.44c-.21.1-.45.16-.69.16h-9.49a1.623 1.623 0 0 1-1.6-1.61c0-.44.18-.84.47-1.13s.69-.47 1.13-.47h9.49Z"/><path fill="#ff7101" d="M91.94 92.19h3.93c-1.36 0-2.48 1.12-2.48 2.48v.15c0 1.36 1.12 2.48 2.48 2.48h-3.93c-1.36 0-2.48-1.12-2.48-2.48v-.15c0-1.36 1.12-2.48 2.48-2.48m2.03 64.49c1.26 0 2.29-1.02 2.29-2.29s-1.02-2.29-2.29-2.29-2.29 1.02-2.29 2.29 1.02 2.29 2.29 2.29"/><path fill="#002140" d="m95.57 131.63.06.07c-.94.78-1.27 2.24-.77 3.3l-.3.08h-8.95l-.09-.04c.53-1.07.19-2.57-.78-3.36v-.03c.21.09.43.14.66.14h9.49c.25 0 .48-.06.69-.16Z"/><path fill="#e96df2" d="M95.2 35.14c.14.38.14 1.03-.41 1.5-.78.67-1.09.95-1.75 1.6-.55.55-1 1.25-1.16 2.03l-.85-.13c.1-1.73.51-3.12 1.39-4.56.4-.57.87-1.04 1.46-1.11.52-.06 1.13.17 1.31.67Z"/><path fill="#bf3013" d="M94.65 117.98v10.59h-3.02v-10.71c.05-.4.12-.81.31-1.16.2-.35.54-.62.94-.71.67-.16 1.26.18 1.51.67.2.39.25.88.25 1.33Z"/><path fill="#002140" d="M94.65 113.82v4.17c0-.46-.05-.94-.25-1.33a1.33 1.33 0 0 0-1.51-.67c-.4.1-.74.36-.94.71-.19.36-.27.76-.31 1.16v-4.06h3.02Z"/><path fill="#ff7101" d="M91.29 50.35v.04h-.03c-.23-.09-.47-.14-.72-.14h-.8c-.21 0-.42.03-.61.1-.02 0-.03.01-.05.02-.01 0-.02 0-.01-.02.18-.91-.06-1.9-.64-2.63-.27-.34-.61-.62-.89-.95a4.04 4.04 0 0 1-.92-3.28c.19-1.12.88-2.14 1.85-2.73.03-.02.07-.04.1-.06.36-.21.77-.36 1.18-.39.12-.01.24-.01.35 0h.18c.54-.06 1.08.11 1.54.38 0 0 .01 0 .02.01 1.02.58 1.75 1.64 1.95 2.8s-.15 2.4-.92 3.28c-.28.33-.62.61-.89.95-.58.73-.82 1.72-.64 2.63 0 .03-.02.03-.04.02Zm.94-6.49c0-1.13-.91-2.04-2.04-2.04s-2.04.92-2.04 2.04.91 2.04 2.04 2.04 2.04-.92 2.04-2.04m1.46 44.83h-7.12s1.46-.51 1.46-3.5c0-3.65-2.26-3.21-2.26-6.28 0-2.41 1.9-3.5 3.35-3.5h2.02c1.46 0 3.35 1.1 3.35 3.5 0 3.07-2.26 2.63-2.26 6.28 0 2.99 1.46 3.5 1.46 3.5m.49-24.59c0 1.75-.54 3.65-3.99 3.65h-.12c-3.45 0-3.99-1.9-3.99-3.65 0-2.12 1.75-2.63 1.75-4.01s-1.31-1.53-1.31-3.07.61-2.69 3.61-2.77c3 .08 3.61 1.29 3.61 2.77s-1.31 1.75-1.31 3.07c0 1.38 1.75 1.9 1.75 4.01"/><path fill="#e96df2" d="M90.1 35.94c.05-1.16.25-2.36.94-3.28.27-.36.58-.65 1.02-.77.44-.11 1.01.03 1.27.4.48.69-.16 2.16-.57 2.77-.11.17-.22.34-.32.51-.88 1.44-1.3 2.83-1.39 4.56l.85.13c-.02.11-.04.22-.05.34l-.03.05c-.47-.27-1.01-.44-1.54-.38h-.18v-4.01c0-.11 0-.22.01-.33Z"/><path fill="#bf3013" d="M92.06 68.04a1.204 1.204 0 0 1 .85 2.05c-.22.22-.52.35-.85.35h-3.87c-.66 0-1.2-.54-1.2-1.2 0-.33.14-.63.35-.85s.52-.35.85-.35z"/><path fill="#e96df2" d="M92.56 70.64c.41.19.7.61.7 1.09a1.19 1.19 0 0 1-.65 1.07s-1.15-1.11-1.15-1.11l1.11-1.05Z"/><path fill="#bf3013" d="M92.06 73a1.204 1.204 0 0 1 .85 2.05c-.22.22-.52.35-.85.35h-3.87c-.66 0-1.2-.54-1.2-1.2 0-.33.14-.63.35-.85.22-.22.52-.35.85-.35z"/><path fill="#e96df2" d="M92.61 72.78c-.17.1-.35.14-.55.14h-1.68v-.22l1.07-1.02 1.15 1.1Z"/><path fill="#bf3013" d="M92.58 173.47v.15h-4.5v-.15c1.04-3.23 1.5-6.65 1.34-10.03h1.82c-.16 3.39.3 6.8 1.34 10.03"/><path fill="#e96df2" d="m92.56 70.64-1.11 1.05-1.03-.98v-.18h1.64c.18 0 .35.04.5.11m-.09-18.9c.05.16.07.33.07.51 0 .55-.23 1.05-.59 1.42s-.87.59-1.42.59h-.4v-.18z"/><path fill="#002140" d="m92.47 51.74-2.34 2.34v.18h-.4c-.21 0-.41-.03-.59-.09l.05-.16 2.9-2.9.06-.04c.15.2.26.43.33.68Z"/><path fill="#e96df2" d="m92.14 51.06-.06.04-2.9 2.9-.05.16c-.38-.12-.72-.35-.97-.66l.03-.02 3.03-3.03.03-.08h.02c.35.14.64.37.87.67Zm-4.33 41.13h4.13c-1.36 0-2.48 1.12-2.48 2.48v.15c0 1.36 1.12 2.48 2.48 2.48h-4.13c-1.36 0-2.48-1.12-2.48-2.48v-.15c0-1.36 1.12-2.48 2.48-2.48"/><path fill="#002140" d="M90.19 41.82c1.13 0 2.04.92 2.04 2.04s-.91 2.04-2.04 2.04-2.04-.92-2.04-2.04.91-2.04 2.04-2.04"/><path fill="#bf3013" d="M91.64 117.98v10.59h-3.02v-10.71h.04c.05-.4.12-.81.31-1.16s.53-.62.92-.71c.66-.16 1.24.18 1.49.67.2.39.25.87.25 1.33Z"/><path fill="#002140" d="M91.64 117.86v.12c0-.46-.05-.94-.25-1.33-.25-.49-.82-.83-1.49-.67-.39.1-.73.36-.92.71-.19.36-.26.76-.31 1.16h-.04v-4.06h3.02v4.06Z"/><path fill="#e96df2" d="m91.46 71.69-1.07 1.02v.22h-.5v-.26l-.98-.92L90 70.74v-.22h.44v.18l1.03.98Z"/><path fill="#002140" d="m91.26 50.38-.03.08-3.03 3.03-.03.02c-.17-.21-.29-.45-.37-.71l2.55-2.55h.17c.25 0 .5.05.72.14Z"/><path fill="#e96df2" d="m90.36 50.24-2.55 2.55c-.05-.17-.08-.36-.08-.55 0-.55.23-1.05.59-1.42.21-.21.47-.38.76-.48.01 0 .04 0 .05-.02.19-.06.4-.1.61-.1h.63Zm-2.58-14.66c-.1-.17-.21-.34-.32-.51-.41-.61-1.06-2.08-.57-2.77.26-.37.83-.51 1.27-.4s.75.41 1.02.77c.69.91.89 2.12.94 3.28 0 .11 0 .22-.01.33v4.01q-.18-.015-.36 0l-.57-.14c-.1-1.73-.51-3.12-1.39-4.56Zm2.21 34.94v.22l-1.09 1.01-.96-.9-.07-.29c.11-.03.22-.05.33-.05h1.79Zm-.11 2.15v.26H88.2c-.14 0-.28-.02-.41-.07l.04-.11 1.07-.99.98.92Z"/><path fill="#e96df2" d="m89.17 40.14.57.14c-.42.04-.82.19-1.18.39-.04.02-.07.04-.1.06l-.08-.13c-.08-.91-.58-1.74-1.21-2.37s-.97-.93-1.75-1.6c-.55-.48-.55-1.12-.41-1.5.18-.5.79-.73 1.31-.67.59.07 1.06.54 1.46 1.11.88 1.44 1.29 2.83 1.39 4.56Z"/><path fill="#bf3013" d="M89.42 163.44c.16 3.39-.3 6.8-1.34 10.03v.15H84v-.05c1.12-1.35 1.74-3.06 2.04-4.79s.29-3.5.28-5.25v-.09z"/><path fill="#e96df2" d="m87.93 70.86.96.9-1.07.99-.04.11c-.46-.17-.8-.61-.8-1.13 0-.33.14-.63.35-.85.14-.14.32-.25.51-.31l.07.29Z"/><path fill="#bf3013" d="M88.62 128.41v.16H85.6v-10.71h.05c.05-.4.12-.81.31-1.16s.53-.62.92-.71c.66-.16 1.24.18 1.49.67.16.32.23.69.24 1.06v10.7Z"/><path fill="#002140" d="M88.62 113.89v3.82c-.02-.37-.08-.74-.24-1.06a1.31 1.31 0 0 0-1.49-.67c-.39.1-.73.36-.92.71-.19.36-.26.76-.31 1.16h-.05v-4.06h3.02v.08Z"/><path fill="#ff7101" d="M86.53 156.68c1.26 0 2.29-1.02 2.29-2.29s-1.02-2.29-2.29-2.29-2.29 1.02-2.29 2.29 1.02 2.29 2.29 2.29m-2.86-64.49h4.13c-1.36 0-2.48 1.12-2.48 2.48v.15c0 1.36 1.12 2.48 2.48 2.48h-4.13c-1.36 0-2.48-1.12-2.48-2.48v-.15c0-1.36 1.12-2.48 2.48-2.48"/><path fill="#fffaf0" d="M79.98 139.93h-.07c.25-1.19.98-2.27 2.04-2.84.99-.54 2.22-.66 3.07-1.4.05-.04.09-.08.14-.13.55-.39 1.13.16 1.3.66.18.54-.12 1.13-.56 1.49s-.99.53-1.52.72c-.82.3-1.7.72-2.06 1.52-.29.63-.28 1.5-.9 1.8-.52.26-1.18-.13-1.4-.67-.14-.36-.13-.77-.04-1.15"/><path fill="#bf3013" d="M86.32 163.53c0 1.76.01 3.52-.28 5.25-.3 1.73-.92 3.44-2.04 4.79v.05h-8.65v-.03c2.66-.05 7.54-1.5 7.54-8.75v-1.41h3.44v.09Z"/><path fill="#fffaf0" d="M85.54 143.55c.27.2.42.56.36.9-.06.33-.16.69-.66.78v.07h-2.55c-.13 0-.26.02-.37.06l-.07-.21s.05-.02.05-.05c0-.07-.06-.12-.12-.16-.38-.24-.73-.54-1.03-.87l.08-.08a.83.83 0 0 1 0-.86c.16-.26.46-.41.76-.39.34.03.62.26.93.41.26.13.55.21.84.22.61.03 1.3-.18 1.79.18Z"/><path fill="#e96df2" d="M81.19 92.19h2.48c-1.36 0-2.48 1.12-2.48 2.48v.15c0 1.36 1.12 2.48 2.48 2.48h-2.48c-1.36 0-2.48-1.12-2.48-2.48v-.15c0-1.36 1.12-2.48 2.48-2.48"/><path fill="#fffaf0" d="M83.39 99.81c-.03.07-.07.14-.12.2-.43.61-1.27.75-1.88.33-.61-.43-.75-1.27-.33-1.88.22-.31.54-.5.89-.55.57.62 1.04 1.26 1.44 1.91Z"/><path fill="#ff7101" d="M79.09 152.1a2.29 2.29 0 0 1 2.29 2.29 2.283 2.283 0 0 1-3.28 2.06h-.03c-.23-.7-.35-1.47-.33-2.3.02-.7.12-1.33.29-1.91l.18.05c.27-.12.58-.18.9-.18Z"/><path fill="none" stroke="#002140" stroke-linecap="round" stroke-linejoin="round" stroke-width=".62" d="M90.46 54.26h-.33m0 0h-.33m.33 0c-3 .08-3.61 1.29-3.61 2.77s1.31 1.75 1.31 3.07c0 1.38-1.75 1.9-1.75 4.01 0 1.75.53 3.65 3.99 3.65h.12c3.45 0 3.99-1.9 3.99-3.65 0-2.12-1.75-2.63-1.75-4.01s1.31-1.53 1.31-3.07-.61-2.69-3.61-2.77"/><path fill="none" stroke="#002140" stroke-linecap="round" stroke-linejoin="round" stroke-width=".62" d="M92.47 51.74c.05.16.07.33.07.51 0 .55-.23 1.05-.59 1.42s-.87.59-1.42.59h-.8c-.21 0-.41-.03-.59-.09-.38-.12-.72-.35-.97-.66a2.03 2.03 0 0 1-.45-1.26c0-.55.23-1.05.59-1.42.21-.21.47-.38.76-.48.02 0 .04-.01.05-.02.19-.06.4-.1.61-.1h.8c.25 0 .5.05.72.14h.02c.35.14.64.37.87.67.15.2.26.43.33.68Zm-.41 18.71h-3.87c-.66 0-1.2-.54-1.2-1.2 0-.33.14-.63.35-.85s.52-.35.85-.35h3.87a1.204 1.204 0 0 1 .85 2.05c-.22.22-.52.35-.85.35m.55 2.35c-.17.09-.35.13-.55.13h-3.87c-.14 0-.28-.02-.41-.07-.46-.17-.8-.61-.8-1.13 0-.33.14-.63.35-.85.14-.14.32-.25.51-.31.11-.03.22-.05.33-.05h3.87a1.21 1.21 0 0 1 1.2 1.2 1.19 1.19 0 0 1-.65 1.07Zm-3.49 2.61h-.92c-.66 0-1.2-.54-1.2-1.2 0-.33.14-.63.35-.85.22-.22.52-.35.85-.35h3.87a1.204 1.204 0 0 1 .85 2.05c-.22.22-.52.35-.85.35h-2.94Zm4.57 13.28h1.18c.88 0 1.6.72 1.6 1.6 0 .44-.18.84-.47 1.13s-.69.47-1.13.47h-9.49a1.607 1.607 0 0 1-1.13-2.74c.29-.29.69-.47 1.13-.47h8.3Zm1.27 18.6c.84.04 1.52.75 1.52 1.6 0 .44-.18.84-.47 1.13s-.69.47-1.13.47h-9.49a1.607 1.607 0 0 1-.08-3.21h9.67Zm-9.35 6.52h-.22a1.607 1.607 0 0 1-1.13-2.74c.29-.29.69-.47 1.13-.47h9.49c.88 0 1.6.72 1.6 1.6 0 .44-.18.84-.47 1.13s-.69.47-1.13.47h-9.27Z"/><path fill="none" stroke="#002140" stroke-linecap="round" stroke-linejoin="round" stroke-width=".62" d="M89.12 75.41c-1.46 0-3.35 1.1-3.35 3.5 0 3.07 2.26 2.63 2.26 6.28 0 2.99-1.46 3.5-1.46 3.5m4.57-13.28c1.46 0 3.35 1.1 3.35 3.5 0 3.07-2.26 2.63-2.26 6.28 0 2.99 1.46 3.5 1.46 3.5m5.06 8.75c-4.31 4.23-3.79 9.85-3.79 9.85m-13.45-9.85c.15.15.3.3.44.46.57.62 1.04 1.26 1.44 1.91 2.26 3.7 1.91 7.48 1.91 7.48m14.19-10.03c-.14.02-.28.04-.42.04H81.2c-1.36 0-2.48-1.12-2.48-2.48v-.15c0-1.36 1.12-2.48 2.48-2.48h17.87c.14 0 .27.01.41.04 1.17.19 2.07 1.22 2.07 2.45v.15c0 1.22-.89 2.24-2.06 2.44Z"/><path fill="none" stroke="#002140" stroke-linecap="round" stroke-linejoin="round" stroke-width=".62" d="M83.67 97.3c-1.36 0-2.48-1.12-2.48-2.48v-.15c0-1.36 1.12-2.48 2.48-2.48m4.14 5.11c-1.36 0-2.48-1.12-2.48-2.48v-.15c0-1.36 1.12-2.48 2.48-2.48m4.13 5.11c-1.36 0-2.48-1.12-2.48-2.48v-.15c0-1.36 1.12-2.48 2.48-2.48m3.93 5.11c-1.36 0-2.48-1.12-2.48-2.48v-.15c0-1.36 1.12-2.48 2.48-2.48m3.6 4.96c-1.3 0-2.36-1.07-2.36-2.37v-.14c0-1.31 1.06-2.37 2.36-2.37M81.95 97.9c.34-.06.69.01.99.23.55.38.72 1.1.44 1.68-.03.07-.07.14-.12.2-.43.61-1.27.75-1.88.33-.61-.43-.75-1.27-.33-1.88.22-.31.54-.5.89-.55Zm3.66 16.1v14.3m9.04-14.48v14.67m-6.03-10.77v10.69m0-14.52v3.82m3.02-3.85v14.59m3.93 3.18c-.21.1-.45.16-.69.16h-9.49a1.623 1.623 0 0 1-1.6-1.61c0-.44.18-.84.47-1.13s.69-.47 1.13-.47h9.49c.88 0 1.6.72 1.6 1.6a1.6 1.6 0 0 1-.91 1.44Zm2.27 16.07q-.135.03-.27.03H82.69c-.07 0-.14 0-.21-.02a1.215 1.215 0 0 1-.64-2.06c.13-.13.3-.24.48-.3.12-.04.24-.06.37-.06h14.88c.67 0 1.22.55 1.22 1.21 0 .33-.14.64-.36.86-.16.16-.36.27-.59.33Zm.05 13.35c.51.14.9.61.9 1.17a1.226 1.226 0 0 1-1.22 1.22H82.69c-.67 0-1.22-.55-1.22-1.22 0-.34.14-.64.36-.86.15-.16.35-.27.57-.32.09-.02.19-.04.28-.04h14.88c.11 0 .22.01.32.05Zm9.41 15.88c-.3 1.03-1.25 1.8-2.38 1.8H75.35c-1.11 0-2.05-.74-2.37-1.74-.07-.23-.11-.48-.11-.74v-.15c0-1.36 1.12-2.48 2.48-2.48h29.6a2.48 2.48 0 0 1 2.45 2.48v.15c0 .24-.03.46-.1.68"/><path fill="none" stroke="#002140" stroke-linecap="round" stroke-linejoin="round" stroke-width=".62" d="M84.73 131.68c.97.79 1.32 2.29.78 3.36a2 2 0 0 1-.5.65c-.86.74-2.08.85-3.07 1.4-1.05.58-1.79 1.65-2.04 2.83-.08.37-.11.75-.09 1.12.06 1.13.55 2.2 1.32 3.03.3.33.65.63 1.03.87.06.04.13.09.12.16 0 .03-.02.04-.05.05-.04.01-.09 0-.08-.05m.4 2.6h-.08c-.64.05-2.08.73-3.21 2.12-.52.65-.98 1.45-1.26 2.41-.17.58-.27 1.21-.29 1.91-.02.83.11 1.61.33 2.31.31.98.82 1.84 1.4 2.53 1 1.21 2.2 1.94 2.94 2.05.07.01.13.01.19.01m.31 2.44v1.36c0 7.26-4.88 8.7-7.54 8.75h-.14m7.68-10.11v-.11m12.78-31.69s-.02.02-.03.02c-.94.78-1.27 2.24-.77 3.3.12.26.3.49.52.69.86.74 2.08.85 3.07 1.4 1.39.76 2.22 2.38 2.13 3.95-.08 1.58-1.02 3.06-2.36 3.9-.06.04-.13.09-.12.16v.02c.03.05.14.04.12-.02m-.38 2.6c.62 0 2.2.71 3.39 2.26.48.63.9 1.39 1.16 2.3.16.57.26 1.2.28 1.88.02.85-.11 1.64-.35 2.35-.3.93-.78 1.74-1.32 2.41-1.06 1.31-2.36 2.08-3.1 2.14h-.09m-.3 2.44v1.36c0 7.16 4.75 8.66 7.43 8.75h.25m-7.68-10.11v-.11m-11.9-28.29h8.95m12.64 41.83H73.33m13.2-20.23c1.26 0 2.29-1.02 2.29-2.29s-1.02-2.29-2.29-2.29-2.29 1.02-2.29 2.29 1.02 2.29 2.29 2.29m7.44 0c1.26 0 2.29-1.02 2.29-2.29s-1.02-2.29-2.29-2.29-2.29 1.02-2.29 2.29 1.02 2.29 2.29 2.29"/><path fill="none" stroke="#002140" stroke-linecap="round" stroke-linejoin="round" stroke-width=".62" d="M82.89 151.7c.82-1.11 2.15-1.84 3.64-1.84s2.83.73 3.66 1.86l.14-.02c.82-1.11 2.15-1.84 3.64-1.84s2.92.77 3.75 1.85l.08-.05c.83-1.09 1.94-1.7 3.42-1.7m-.25 8.93c-1.33-.13-2.5-.84-3.24-1.87l-.16.11c-.83 1.08-2.13 1.78-3.6 1.78s-2.86-.75-3.69-1.9l-.15.11c-.83 1.09-2.14 1.79-3.61 1.79s-2.85-.74-3.67-1.89m19.45-.52c-.27.12-.57.18-.89.18-1.26 0-2.29-1.02-2.29-2.29s1.02-2.29 2.29-2.29c.32 0 .62.06.89.18m-22.97-2.41c1.41.07 2.64.79 3.42 1.87m.09 5.18s-.03.04-.05.06a4.52 4.52 0 0 1-3.1 1.89m-1.5-6.58c.27-.12.58-.18.9-.18a2.29 2.29 0 0 1 2.29 2.29 2.283 2.283 0 0 1-3.28 2.06m8.22 7.07c0 1.76.01 3.52-.28 5.25-.3 1.73-.92 3.44-2.04 4.79m5.42-10.18v.05c.16 3.39-.3 6.8-1.34 10.03m6.26-9.94c0 1.76-.01 3.52.28 5.25.3 1.73.92 3.44 2.04 4.79m-5.42-10.18v.05c-.16 3.39.3 6.8 1.34 10.03m-6.93-55.61c.05-.4.12-.81.31-1.16s.53-.62.92-.71c.66-.16 1.24.18 1.49.67.16.32.23.69.24 1.06h0v.59m.06-.45c.05-.4.12-.81.31-1.16s.53-.62.92-.71c.66-.16 1.24.18 1.49.67.2.39.25.87.25 1.33v.32m0-.45c.05-.4.12-.81.31-1.16.2-.35.54-.62.94-.71.67-.16 1.26.18 1.51.67.2.39.25.88.25 1.33v.32m-6.72-47.45.96.9.98.92m.56-1.97 1.03.98 1.15 1.1"/><path fill="none" stroke="#002140" stroke-linecap="round" stroke-linejoin="round" stroke-width=".62" d="M92.65 70.63h-.08l-1.11 1.06-1.07 1.02m-2.56.04 1.07-.99 1.09-1.01M87.81 52.8l2.55-2.55.07-.07m-2.23 3.31 3.03-3.03M89.18 54l2.9-2.9m-1.95 2.97 2.34-2.34m-.24-7.87c0 1.13-.91 2.04-2.04 2.04s-2.04-.92-2.04-2.04.91-2.04 2.04-2.04 2.04.92 2.04 2.04"/><path fill="none" stroke="#002140" stroke-linecap="round" stroke-linejoin="round" stroke-width=".62" d="M91.26 50.3s0 .05.02.06c.02 0 .05 0 .04-.02-.18-.91.06-1.9.64-2.63.27-.34.61-.62.89-.95a4.04 4.04 0 0 0 .92-3.28c-.2-1.16-.93-2.21-1.95-2.8 0 0-.01 0-.02-.01-.47-.27-1.01-.44-1.54-.38h-.18c-.12-.01-.24-.01-.35 0-.42.04-.82.19-1.18.39-.04.02-.07.04-.1.06-.97.59-1.66 1.61-1.85 2.73-.2 1.16.15 2.4.92 3.28.29.33.62.61.89.95.58.73.82 1.72.64 2.63 0 .02 0 .02.01.02s.04 0 .05-.02c.02-.01.02-.03 0-.04m.98-10.08v-3.94c0-.11 0-.22.01-.33.05-1.16.25-2.36.94-3.28.27-.36.58-.65 1.02-.77.44-.11 1.01.03 1.27.4.48.69-.16 2.16-.57 2.77-.11.17-.22.34-.32.51-.88 1.44-1.3 2.83-1.39 4.56"/><path fill="none" stroke="#002140" stroke-linecap="round" stroke-linejoin="round" stroke-width=".62" d="M92.36 35.69s.05-.08.08-.11c.4-.57.87-1.04 1.46-1.11.53-.06 1.13.17 1.31.67.14.38.14 1.03-.41 1.5-.78.67-1.09.95-1.75 1.6-.55.55-1 1.25-1.16 2.03-.02.11-.04.22-.05.34m-1.72-.4v-3.94c0-.11 0-.22-.01-.33-.05-1.16-.25-2.36-.94-3.28-.27-.36-.58-.65-1.02-.77-.44-.11-1.01.03-1.27.4-.48.69.16 2.16.57 2.77.11.17.22.34.32.51.88 1.44 1.29 2.83 1.39 4.56"/><path fill="none" stroke="#002140" stroke-linecap="round" stroke-linejoin="round" stroke-width=".62" d="M87.85 35.69s-.05-.08-.08-.11c-.4-.57-.87-1.04-1.46-1.11-.53-.06-1.13.17-1.31.67-.14.38-.14 1.03.41 1.5.78.67 1.09.95 1.75 1.6.66.66 1.13 1.46 1.21 2.37"/><path fill="#fffaf0" stroke="#002140" stroke-linecap="round" stroke-linejoin="round" stroke-width=".62" d="M92.99 103.28c.75 0 1.35-.6 1.35-1.35s-.6-1.35-1.35-1.35-1.35.6-1.35 1.35.6 1.35 1.35 1.35m-2.08 2.17c.75 0 1.35-.6 1.35-1.35s-.6-1.35-1.35-1.35-1.35.6-1.35 1.35.6 1.35 1.35 1.35"/><path fill="#fffaf0" stroke="#002140" stroke-linecap="round" stroke-linejoin="round" stroke-width=".62" d="M94.49 101.02c.75 0 1.35-.6 1.35-1.35s-.6-1.35-1.35-1.35-1.35.6-1.35 1.35.6 1.35 1.35 1.35m1.38-2.63c.75 0 1.35-.6 1.35-1.35s-.6-1.35-1.35-1.35-1.35.6-1.35 1.35.6 1.35 1.35 1.35"/><path fill="#fffaf0" stroke="#002140" stroke-linecap="round" stroke-linejoin="round" stroke-width=".62" d="M96.52 95.76c.75 0 1.35-.6 1.35-1.35s-.6-1.35-1.35-1.35-1.35.6-1.35 1.35.6 1.35 1.35 1.35m.47-2.84c.75 0 1.35-.6 1.35-1.35s-.6-1.35-1.35-1.35-1.35.6-1.35 1.35.6 1.35 1.35 1.35m-8.48 14.01c.75 0 1.35-.6 1.35-1.35s-.6-1.35-1.35-1.35-1.35.6-1.35 1.35.6 1.35 1.35 1.35m-2.7.29c.75 0 1.35-.6 1.35-1.35s-.6-1.35-1.35-1.35-1.35.6-1.35 1.35.6 1.35 1.35 1.35"/><path fill="#fffaf0" stroke="#002140" stroke-linecap="round" stroke-linejoin="round" stroke-width=".62" d="M83.92 105.69c.75 0 1.35-.6 1.35-1.35s-.6-1.35-1.35-1.35a1.35 1.35 0 0 0 0 2.7"/><path fill="#fffaf0" stroke="#002140" stroke-linecap="round" stroke-linejoin="round" stroke-width=".62" d="M82.75 103.35c.75 0 1.35-.6 1.35-1.35s-.6-1.35-1.35-1.35-1.35.6-1.35 1.35.6 1.35 1.35 1.35"/><path fill="#ff7101" d="m27.05 39.36-2.45 5.75-.27-.11-1.52-.65-.09-.04 2.45-5.75.18.08 1.63.69z"/><path fill="#ff7101" d="m24.6 45.11-2.45 5.75-.07-.03-1.63-.69-.18-.08 2.45-5.75.09.04 1.52.65z"/><path fill="#ff7101" d="m22.15 50.86-2.45 5.75-.27-.11-1.52-.65-.09-.04 2.45-5.75.18.08 1.63.69z"/><path fill="#ff7101" d="m19.71 56.61-2.45 5.75-.07-.03-1.63-.69-.18-.08 2.45-5.75.09.04 1.52.65z"/><path fill="#ff7101" d="m17.26 62.36-2.45 5.75-.27-.11-1.52-.65-.09-.04 2.45-5.75.18.08 1.63.69z"/><path fill="#ff7101" d="m14.81 68.11-2.45 5.75-.07-.03-1.63-.69-.18-.08 2.45-5.75.09.04 1.52.65zm-2.45 5.76-2.45 5.75-.27-.11-1.52-.65-.09-.04 2.45-5.75.18.08 1.63.69z"/><path fill="#ff7101" d="m9.91 79.62-2.45 5.75-.07-.03-1.63-.69-.18-.08 2.45-5.75.09.04 1.52.65z"/><path fill="#ff7101" d="m7.46 85.37-2.45 5.75-.27-.11-1.52-.65-.09-.04 2.45-5.75.18.08 1.63.69z"/><path fill="none" stroke="#002140" stroke-linecap="round" stroke-linejoin="round" stroke-width=".62" d="m25.46 37.88-.29.68-2.45 5.75-2.45 5.75-2.45 5.75-2.45 5.75-2.45 5.75-2.45 5.75-2.45 5.75-2.45 5.75-2.45 5.75-.52 1.22M27.29 38.8l-.24.56-2.45 5.75-2.45 5.75-2.45 5.75-2.45 5.75-2.45 5.75-2.45 5.75-2.45 5.75-2.45 5.75L5 91.11l-.36.85m-1.42-1.6 1.52.65m1.02-6.37 1.63.69m.73-6.48 1.52.65m1.02-6.36 1.63.69m.73-6.48 1.52.65m1.02-6.36 1.63.69m.73-6.48 1.52.65m1.01-6.36 1.63.69m.73-6.48 1.52.65m1.02-6.36 1.63.69"/><path fill="#ff7101" d="m27.47 14.37.03 5.79h-1.85l-.19.01-.04-6.08h-.1c.61-.22 1.4-.13 1.9.27h.24Zm.4 68.3.04 6.25h-.29l-1.65.01h-.1l-.04-6.25h.19l1.77-.01z"/><path fill="#ff7101" d="m27.83 76.42.04 6.25h-1.85l-.19.01-.04-6.25h1.75zm-.29-50 .04 6.25h-1.85l-.19.01-.04-6.25h1.75z"/><path fill="#ff7101" d="m27.51 20.17.04 6.25h-.29l-1.65.01h-.1l-.04-6.25h.19l1.77-.01zm.07 12.5.04 6.25h-.29l-1.65.01h-.1l-.04-6.25h.19l1.77-.01zm.07 12.5.04 6.25h-.29l-1.65.01h-.1l-.04-6.25h.19l1.77-.01zm.07 12.5.04 6.25h-.29l-1.65.01h-.1l-.04-6.25h.19l1.77-.01z"/><path fill="#ff7101" d="m27.76 63.92.04 6.25h-1.85l-.19.01-.04-6.25h1.75zm-.15-25 .04 6.25H25.8l-.19.01-.04-6.25h1.75zm.08 12.5.04 6.25h-1.85l-.19.01-.04-6.25h1.75z"/><path fill="#ff7101" d="m27.79 70.17.04 6.25h-.29l-1.65.01h-.1l-.04-6.25h.19l1.77-.01z"/><path fill="none" stroke="#002140" stroke-linecap="round" stroke-linejoin="round" stroke-width=".62" d="m25.43 14.1.04 6.08.04 6.25.04 6.25.04 6.25.04 6.25.04 6.25.04 6.25.04 6.25.04 6.25.04 6.25.04 6.25.04 6.25.02 3.95m1.54-78.51.03 5.79.04 6.25.04 6.25.04 6.25.04 6.25.04 6.25.04 6.25.04 6.25.04 6.25.04 6.25.04 6.25.04 6.25.02 3.91m-2-3.89h1.65m-1.59-6.25h1.77m-1.91-6.25h1.65m-1.58-6.25h1.77m-1.91-6.25h1.65m-1.59-6.25h1.77m-1.9-6.25h1.65m-1.59-6.25h1.77m-1.9-6.25h1.65m-1.59-6.25h1.77m-1.9-6.25h1.65m-1.59-6.25h1.77"/><path fill="none" stroke="#002140" stroke-linecap="round" stroke-linejoin="round" stroke-width=".62" d="m25.24 14.12.09-.03c.61-.2 1.4-.12 1.9.28"/><path fill="#ff7101" d="m46.93 84.95 2.33 5.8-.27.11-1.54.62-.09.04-2.34-5.8.18-.07 1.64-.66.07-.03Z"/><path fill="#ff7101" d="m46.93 84.95-.07.03-1.64.66-.18.07-2.33-5.8.09-.04 1.53-.62.27-.11 2.34 5.8Z"/><path fill="#ff7101" d="m42.26 73.36 2.34 5.8-.27.11-1.53.62-.09.04-2.34-5.8.18-.07 1.64-.66.07-.03Zm-2.34-5.8 2.33 5.8-.07.03-1.64.66-.18.07-2.34-5.8.09-.04 1.53-.62.27-.11Z"/><path fill="#ff7101" d="m37.59 61.76 2.34 5.8-.27.11-1.53.62-.09.04-2.33-5.8.18-.07 1.64-.66.07-.03Z"/><path fill="#ff7101" d="m35.25 55.96 2.34 5.8-.07.03-1.64.66-.18.07-2.34-5.8.09-.04 1.54-.62.27-.11Z"/><path fill="#ff7101" d="m32.92 50.16 2.33 5.8-.27.11-1.54.62-.09.04-2.34-5.8.18-.07 1.64-.66.07-.03Z"/><path fill="#ff7101" d="m30.58 44.37 2.34 5.8-.07.03-1.64.66-.18.07-2.33-5.8.09-.04 1.53-.62.27-.11Z"/><path fill="#ff7101" d="m28.25 38.57 2.34 5.8-.27.11-1.53.62-.09.04-2.34-5.8.18-.07 1.64-.66.07-.03Z"/><path fill="none" stroke="#002140" stroke-linecap="round" stroke-linejoin="round" stroke-width=".62" d="m26.13 38.76.23.57 2.34 5.8 2.33 5.8 2.34 5.8 2.34 5.8 2.33 5.8 2.34 5.8 2.34 5.8 2.33 5.8 2.34 5.8.31.76M27.99 37.92l.26.65 2.34 5.8 2.34 5.8 2.33 5.8 2.34 5.8 2.34 5.8 2.33 5.8 2.34 5.8 2.34 5.8 2.33 5.8.4 1m-2.22-.29 1.54-.62m-3.79-5.22 1.64-.66m-4.06-5.1 1.53-.62m-3.78-5.21 1.64-.66m-4.06-5.11 1.53-.62m-3.77-5.21 1.64-.66m-4.07-5.1 1.54-.62m-3.79-5.22 1.64-.66m-4.06-5.1 1.53-.62m-3.77-5.21 1.64-.66"/><path fill="#bf3013" stroke="#002140" stroke-linecap="round" stroke-linejoin="round" stroke-width=".62" d="M26.66 42.75a3.54 3.54 0 1 0 0-7.08 3.54 3.54 0 0 0 0 7.08"/><path fill="#002140" stroke="#002140" stroke-linecap="round" stroke-linejoin="round" stroke-width=".62" d="M26.66 41.4a2.19 2.19 0 1 0 .001-4.379 2.19 2.19 0 0 0-.001 4.379"/><path fill="#fee45e" d="m43.59 91.31-.11.05h-10l-1.68-3.83v-.11h10.12v.11z"/><path fill="#fee45e" d="M28.09 83.4h-1.83v-.02H38.2v.11l1.69 3.83v.11h-.13v-.11h-10l-1.68-3.83v-.08Z"/><path fill="#fed607" d="M18.81 83.37h7.44v.02h-5.93v.08L22 87.3h17.76v.11H14.54v-.11l1.68-3.83.07-.11h2.52Z"/><path fill="#fee45e" d="m34.71 79.57 1.67 3.81H26.25l-1.67-3.81v-.11H34.7v.11Z"/><path fill="#fed607" d="m31.81 87.53 1.68 3.83h-7.46l1.68-3.83v-.11h4.11v.11Zm-3.72-4.05 1.68 3.83h-7.46l1.68-3.83v-.08h4.11v.08Z"/><path fill="#e4bc07" d="M27.7 87.42v.11l-1.68 3.83h-.18l-1.68-3.83v-.11z"/><path fill="#fed607" d="m24.59 79.57 1.67 3.81h-7.44l1.67-3.81.07-.11h4.04v.11Zm-.43 7.96 1.68 3.83h-7.46l1.68-3.83v-.11h4.11v.11Z"/><path fill="#e4bc07" d="M23.98 83.4v.08l-1.68 3.83H22l-1.68-3.83v-.08zm-3.93 4.02v.11l-1.68 3.83h-.3l-1.68-3.83v-.11z"/><path fill="#fed607" d="m16.39 87.53 1.68 3.83h-7.3l-.14-.06 1.65-3.77.07-.11h4.04z"/><path fill="none" stroke="#002140" stroke-linecap="round" stroke-linejoin="round" stroke-width=".62" d="M20.55 79.46H34.7M18.8 83.4v-.02l1.68-3.81m5.78 3.83v-.02l-1.68-3.81m11.81 3.83v-.02l-1.68-3.81M18.97 83.4h17.29m-9.75-.03h11.7m-15.9 3.94 1.68-3.83m5.78 3.83-1.68-3.83m11.81 3.83-1.68-3.83m-10.35 3.83h11.9m-23.48-3.94h10.22m-11.97 3.94 1.68-3.83M22 87.31l-1.68-3.83m-5.61 3.83h13.16m-1.36.11h1.26m-9.4 3.94 1.68-3.83m5.79 3.83-1.68-3.83m-11.81-.11H26.5m-15.9 3.94.03-.06 1.65-3.77m5.79 3.83-1.68-3.83m-5.62 3.83h15.42m1.58-3.94h14.15m-15.9 3.94 1.68-3.83m5.78 3.83-1.68-3.83m11.81 3.83-.02-.05-1.66-3.78m-15.74 3.83h17.29"/><path fill="#bf3013" d="M27.7 102.29c-.06 2.26 1.02 4.13 2.89 5.4-4.21 3.21-8.26 0-8.26 0 1.86-1.13 2.97-3.01 3.04-5.18"/><path fill="none" stroke="#002140" stroke-linecap="round" stroke-linejoin="round" stroke-width=".62" d="M27.7 102.29c-.06 2.26 1.02 4.13 2.89 5.4-4.21 3.21-8.26 0-8.26 0 1.86-1.13 2.97-3.01 3.04-5.18"/><path fill="#bf3013" d="M26.1 103.02c-.15 1.96-.35 4.03-1.58 5.64z"/><path fill="none" stroke="#002140" stroke-linecap="round" stroke-linejoin="round" stroke-width=".62" d="M26.1 103.02c-.15 1.96-.35 4.03-1.58 5.64"/><path fill="#bf3013" d="M26.91 103.02c.15 1.96.35 4.03 1.58 5.64z"/><path fill="none" stroke="#002140" stroke-linecap="round" stroke-linejoin="round" stroke-width=".62" d="M26.91 103.02c.15 1.96.35 4.03 1.58 5.64"/><path fill="#002140" stroke="#002140" stroke-linecap="round" stroke-linejoin="round" stroke-width=".62" d="M26.47 102.66a2.19 2.19 0 1 0 .001-4.379 2.19 2.19 0 0 0-.001 4.379"/><path fill="#f25730" d="M50.42 93.25s-6.64 7.37-23.93 7.37h-.05c-17.29 0-23.93-7.37-23.93-7.37"/><path fill="none" stroke="#002140" stroke-linecap="round" stroke-linejoin="round" stroke-width=".62" d="M50.42 93.25s-6.64 7.37-23.93 7.37h-.05c-17.29 0-23.93-7.37-23.93-7.37"/><path fill="#e96df2" stroke="#002140" stroke-linecap="round" stroke-linejoin="round" stroke-width=".62" d="M50.55 90.26H2.39c-.81 0-1.46.65-1.46 1.46s.65 1.46 1.46 1.46h48.16c.81 0 1.46-.65 1.46-1.46s-.65-1.46-1.46-1.46"/><path fill="#ff7101" d="m153.76 144.65.04 6.25h-2.04l-.04-6.25h.19l1.77-.01h.08Z"/><path fill="#ff7101" d="m153.73 138.4.04 6.25h-1.85l-.19.01-.04-6.25h1.75zm-.04-6.25.04 6.25h-2.04l-.04-6.25h.19l1.77-.01h.08Z"/><path fill="#ff7101" d="m153.66 125.9.03 6.25h-1.85l-.19.01-.04-6.25h2.04Zm-.04-6.25.04 6.25h-2.04l-.04-6.25h.19l1.77-.01h.08Z"/><path fill="#ff7101" d="m153.58 113.39.04 6.25h-1.85l-.19.01-.04-6.25h1.75z"/><path fill="#ff7101" d="m153.55 107.14.03 6.25h-.29l-1.65.01h-.1l-.04-6.25h.19l1.77-.01h.08Z"/><path fill="#ff7101" d="m153.51 100.89.04 6.25h-1.85l-.19.01-.04-6.25h1.75z"/><path fill="#ff7101" d="m153.48 94.64.04 6.25h-.29l-1.65.01h-.1l-.03-6.25h.19l1.77-.01h.08Z"/><path fill="#ff7101" d="m153.44 88.39.04 6.25h-1.85l-.19.01-.04-6.25h1.75z"/><path fill="#ff7101" d="m153.4 82.14.04 6.25h-.29l-1.65.01h-.1l-.04-6.25h.2l1.77-.01h.08Z"/><path fill="#ff7101" d="m153.37 76.35.03 5.79h-1.85l-.19.01-.04-6.08h-.1c.61-.22 1.4-.13 1.9.27h.24Z"/><path fill="none" stroke="#002140" stroke-linecap="round" stroke-linejoin="round" stroke-width=".62" d="m151.33 76.08.03 6.08.04 6.25.04 6.25.03 6.25.04 6.25.04 6.25.04 6.25.04 6.25.04 6.25.04 6.25.04 6.25.04 6.25.02 3.95m1.56-78.51.03 5.79.03 6.25.04 6.25.04 6.25.04 6.25.03 6.25.04 6.25.04 6.25.03 6.25.04 6.25.04 6.25.04 6.25.02 3.91m-1.98-3.89h1.65m-1.59-6.25h1.77m-1.9-6.25h1.65m-1.59-6.25h1.77m-1.9-6.25h1.65m-1.59-6.25h1.77m-1.9-6.25h1.65m-1.59-6.26h1.77m-1.9-6.25h1.65m-1.59-6.25h1.77m-1.91-6.25h1.65m-1.58-6.25h1.77"/><path fill="none" stroke="#002140" stroke-linecap="round" stroke-linejoin="round" stroke-width=".62" d="m151.14 76.1.09-.03c.61-.21 1.4-.12 1.9.28"/><path fill="#bf3013" d="M153.39 164.27c-.06 2.26 1.02 4.13 2.89 5.4-4.21 3.21-8.26 0-8.26 0 1.86-1.13 2.97-3.01 3.04-5.18"/><path fill="none" stroke="#002140" stroke-linecap="round" stroke-linejoin="round" stroke-width=".62" d="M153.39 164.27c-.06 2.26 1.02 4.13 2.89 5.4-4.21 3.21-8.26 0-8.26 0 1.86-1.13 2.97-3.01 3.04-5.18"/><path fill="#bf3013" d="M151.79 165c-.15 1.96-.35 4.03-1.58 5.64z"/><path fill="none" stroke="#002140" stroke-linecap="round" stroke-linejoin="round" stroke-width=".62" d="M151.79 165c-.15 1.96-.35 4.03-1.58 5.64"/><path fill="#bf3013" d="M152.6 165c.15 1.96.35 4.03 1.58 5.64z"/><path fill="none" stroke="#002140" stroke-linecap="round" stroke-linejoin="round" stroke-width=".62" d="M152.6 165c.15 1.96.35 4.03 1.58 5.64"/><path fill="#002140" stroke="#002140" stroke-linecap="round" stroke-linejoin="round" stroke-width=".62" d="M152.16 164.64a2.19 2.19 0 1 0 .001-4.379 2.19 2.19 0 0 0-.001 4.379"/><path fill="#0185ff" d="M176.56 137.49c-.01.85-.07 1.68-.16 2.5h-.14c-.97.17-1.96.22-2.95.12-4.87-.48-9.04-4.29-13.93-4.4-5.27-.12-9.91 4.06-15.18 4.02-2.56-.02-4.99-1.05-7.3-2.16-2.3-1.12-4.6-2.35-7.11-2.84-.63-.12-1.27-.19-1.92-.2l-.15-.02c.33-3.11 1.25-6.04 2.64-8.68 2.31.55 4.44 1.69 6.59 2.72 2.32 1.11 4.77 2.14 7.34 2.16 5.3.04 9.98-4.14 15.28-4.02 4.93.11 9.12 3.92 14.02 4.4q1.035.105 2.07 0l.13-.04c.53 2.05.8 4.21.77 6.43Z"/><path fill="#5ab0ff" d="M176.26 139.98h.14c-.34 2.98-1.21 5.78-2.51 8.32l-.27-.14c-4.93-.48-9.15-4.28-14.11-4.4-5.33-.13-10.04 4.06-15.37 4.01-2.59-.02-5.05-1.05-7.39-2.17-2.33-1.11-4.66-2.35-7.2-2.84a13 13 0 0 0-1.09-.16l-.29.06a24.8 24.8 0 0 1-.62-5.82c0-.79.06-1.58.14-2.35l.15.02c.65 0 1.29.07 1.92.2 2.51.49 4.8 1.73 7.11 2.84 2.3 1.11 4.74 2.14 7.3 2.16 5.27.05 9.92-4.14 15.18-4.02 4.89.11 9.06 3.92 13.93 4.4.98.1 1.98.05 2.94-.13Zm-45.9-14.16h-.02c.53-1.01 1.12-1.97 1.78-2.88.93-1.3 1.99-2.51 3.16-3.59l.03.03c.77.37 1.54.76 2.31 1.13 2.28 1.11 4.7 2.14 7.23 2.16 5.22.05 9.83-4.14 15.05-4.02 4.18.1 7.83 2.95 11.86 4.03l.04-.03c1.84 2.49 3.21 5.33 4 8.41l-.13.04q-1.035.105-2.07 0c-4.9-.48-9.1-4.28-14.02-4.4-5.3-.12-9.98 4.06-15.28 4.02-2.57-.02-5.02-1.05-7.34-2.16-2.15-1.03-4.28-2.17-6.59-2.72Z"/><path fill="#0185ff" d="m173.63 148.16.27.14a24.6 24.6 0 0 1-5.86 7.45l-.16-.19c-2.84-1.23-5.62-2.71-8.68-2.79-5.33-.13-10.04 4.06-15.37 4.01-2.59-.02-5.05-1.05-7.39-2.16-.82-.39-1.63-.79-2.45-1.18l-.13.11a24.5 24.5 0 0 1-5.67-10.89l.29-.06a13 13 0 0 1 1.09.16c2.54.49 4.86 1.73 7.2 2.84 2.33 1.11 4.8 2.14 7.38 2.17 5.34.05 10.04-4.14 15.37-4.01 4.95.12 9.17 3.92 14.11 4.4m-1.84-25.51-.04.03c-4.03-1.08-7.67-3.93-11.86-4.03-5.22-.12-9.83 4.06-15.05 4.02-2.53-.02-4.95-1.05-7.23-2.16-.77-.38-1.54-.76-2.31-1.13l-.03-.03c4.45-4.18 10.47-6.7 17.06-6.62.48 0 .96.03 1.43.06l.9.02c7.03.74 13.16 4.45 17.13 9.83Z"/><path fill="#5ab0ff" d="m167.88 155.56.16.19c-4.37 3.76-10.07 6-16.28 5.92-7.11-.09-13.48-3.21-17.89-8.1l.13-.11c.82.38 1.64.79 2.45 1.18 2.33 1.11 4.8 2.14 7.38 2.16 5.33.05 10.04-4.14 15.37-4.01 3.06.07 5.84 1.55 8.68 2.79Z"/><path fill="none" stroke="#002140" stroke-linecap="round" stroke-linejoin="round" stroke-width=".62" d="M132.12 122.94c.93-1.3 1.99-2.51 3.16-3.59 4.45-4.18 10.47-6.7 17.06-6.62.48 0 .96.03 1.43.06l.9.02c7.03.74 13.16 4.45 17.13 9.83 1.84 2.49 3.21 5.33 4 8.41.53 2.05.8 4.21.77 6.43-.01.85-.07 1.68-.16 2.5-.34 2.97-1.21 5.77-2.51 8.31a24.6 24.6 0 0 1-5.86 7.45c-4.37 3.76-10.07 6-16.28 5.92-7.11-.09-13.48-3.21-17.89-8.1a24.5 24.5 0 0 1-5.67-10.89 24.8 24.8 0 0 1-.48-8.17c.33-3.11 1.25-6.04 2.64-8.68.73-1.4 1.6-2.72 2.58-3.94"/><path fill="none" stroke="#002140" stroke-linecap="round" stroke-linejoin="round" stroke-width=".62" d="M127.66 134.63c.33-3.16 1.26-6.13 2.68-8.82.53-1 1.12-1.96 1.78-2.88"/><path fill="#03d47c" d="M171.45 133.93h.19l2.72.03c.48 0 .86.4.86.88 0 .47.39.85.86.85h.45c.04.6.05 1.2.04 1.8-.05 3.81-.96 7.4-2.55 10.59l-.06-.03-4.64-.06c-.48 0-.87-.4-.86-.88v-.08l.1-8.44c0-.42.31-.77.71-.85h.39c.48 0 .87-.38.88-.86v-.29h.01l.02-1.81c0-.48.4-.86.88-.86Zm-.18-7.48h-.01v-.26c.01-.48.4-.87.88-.86h1.19l.15-.07c.72 1.3 1.33 2.66 1.81 4.09l-.23.08-1.5-.02c-.42 0-.79.3-.86.7 0 .05-.02.1-.02.15v.29a.89.89 0 0 1-.87.71h-.1l-2.07-.02c-.48 0-.87-.4-.86-.88l.02-1.94h-.01v-.28c0-.48.41-.86.88-.86h.71v.02c.48 0 .87-.38.88-.86Zm-3.39-3.98h-.02c-.47 0-.85-.38-.86-.85v-.29a.88.88 0 0 1 .89-.86h.39c.4-.07.7-.42.71-.84v-.03l.07-.07c.74.71 1.43 1.47 2.08 2.27l-.02.02-.02 1.71c0 .48-.4.87-.88.86h-.33a.88.88 0 0 1-.86-.89v-.14c0-.48-.38-.87-.86-.88h-.28Zm-18.47-1.86h.01l-.02 1.44c0 .48.38.88.86.88h.14l.11.02 1.44.02c.48 0 .88-.38.88-.86v-.14h-.01v-.08c0-.48.4-.87.88-.86l1.27.02h1.17c.48.02.87.42.86.89v.91l-.03.18-.04 2.74c0 .48-.4.87-.88.86h-.95l-1.84-.02c-.48 0-.87.38-.88.86l-.08 6.56v.99c-.02.48-.42.87-.89.86h-.48c-.48 0-.87-.41-.86-.89v-1.71a.86.86 0 0 0-.85-.88l-1.71-.02-2.29-.02a.87.87 0 0 0-.88.86v1.26c-.01.48.37.87.85.88l1.52.02v-.02h.96c.48.02.87.41.87.9l-.04 2.74v.11c0 .48.38.87.86.88l9.81.13h.14l.29.01c.48 0 .87.4.86.88l-.02 1.65v.1c0 .48.38.87.86.88l1.8.02h.45c.48 0 .87.4.86.88l-.07 5.25v.42c-.01.48-.4.87-.89.86h-.2l-1.73-.02a.87.87 0 0 0-.88.86l-.07 5.39h-.01v.29c-.01.48-.41.87-.88.86l-5.49-.07c-.48 0-.87.38-.88.86l-.03 2.19v.22q-.735.03-1.5.03c-.54 0-1.09-.03-1.62-.07v-.08l.06-4.57c0-.48.4-.87.88-.86h.15c.48 0 .88-.38.88-.86v-.29l.04-2.81c0-.48-.38-.87-.86-.88h-.29v-.02l-2.84-.04a.87.87 0 0 1-.86-.88l.07-5.4v-.1l.01-1.39c0-.48.4-.87.88-.86v-.02h-.95c-.48-.02-.87-.41-.86-.89l.03-1.86h-.01v-1.02a.856.856 0 0 0-.85-.88l-1.54-.02h-.49l-1.54-.03c-.48 0-.87-.4-.86-.88v-.18l-.05-.04-1.34-.02c-.48 0-.87-.4-.86-.88v-1.06l.02-.7v-.95a.85.85 0 0 0-.85-.88h-.89v-.03l-1.77-.02a.87.87 0 0 1-.86-.88v-.78l.02-1.76a.87.87 0 0 0-.86-.88h-.78l-.38-.01c-.48 0-.87-.4-.86-.88l.04-3.5-.06-.04c.38-.55.77-1.09 1.18-1.61-.3-1.41.8-1.93 1.6-1.74l.03-.12c-.13-1.14.62-1.63 1.32-1.62h.55c.71-.64 1.62-1.35 2.37-1.83l.08-.13c.15-1.47 1.41-1.6 2.1-1.15v-.02c.25-1.39 1.41-1.5 2.09-1.08h.14c.45-1.42 1.7-1.3 2.29-.72l.1.08c1.14-.35 2.64-.62 3.88-.75l.14-.03c.81-1.23 1.98-.78 2.39-.05l.09-.05c.89-1.18 2.03-.65 2.39.1l.17.04c.53.06 1.05.13 1.56.22l-.16.94h-.38l-2.38-.03a.87.87 0 0 0-.88.86v.1c0 .45.34.82.77.87h.76c.48 0 .87.4.86.88l-.02 1.85v.16c0 .48-.4.87-.88.86h-.84l-.08-.01c-.48 0-.87-.4-.86-.88v-.14h.02V118a.85.85 0 0 0-.68-.86h-.51l-.65-.02a.87.87 0 0 0-.88.86l-.03 2.63Z"/><path fill="#03d47c" d="M157.86 118.14h-.21c-.48 0-.87-.4-.86-.89l.03-2.24.02-.13v-.04c0-.45-.34-.82-.77-.87l.15-.94c1.86.32 3.65.84 5.33 1.55l-.02.05v.56a.88.88 0 0 1-.89.86h-.41c-.4.07-.7.42-.71.84v.42c0 .48-.41.87-.88.86h-.79v-.03Zm-20.14 35.19h.41l1.55.02c.48 0 .87.4.86.88l-.06 4.45-.04.06a24.55 24.55 0 0 1-10.33-10.7h.24l5.69.07c.48 0 .87.4.86.88v.18l-.04 3.27c0 .48.38.87.86.88Z"/><path fill="none" stroke="#002140" stroke-linecap="round" stroke-linejoin="round" stroke-width=".62" d="M145.6 113.56c1.14-.35 2.64-.62 3.88-.75m-13.04 5.59c.71-.63 1.62-1.34 2.37-1.82m-5.14 11.34h.11c.48 0 .87.4.86.88l-.02 1.76m6.53 6.2-1.34-.02c-.48 0-.87-.4-.86-.88v-1.06m-1.71-2.54h.89c.48.02.87.42.86.89v.95l-.02.7m-5.3-6.88H133l-.38-.01c-.48 0-.87-.4-.86-.88l.04-3.5m12.53 10.46v-.78c.02-.48.41-.87.89-.86l2.29.03h.46m-13.35-1.81v.78c-.02.48.37.88.85.88l1.78.02h.08m6.28 5.63-1.54-.02c-.48 0-.87-.4-.86-.88v-.18m2.4 1.08h.49l1.54.03c.48 0 .87.4.86.88v1.02l-.02.67m2.88 2.1h-1.08l-.95-.03c-.48 0-.87-.4-.86-.88l.03-1.86m.71-4.42h-.51l-1.52-.02c-.48 0-.87-.4-.86-.88v-.48"/><path fill="none" stroke="#002140" stroke-linecap="round" stroke-linejoin="round" stroke-width=".62" d="M146.7 135.36h.96c.48.02.87.41.87.9l-.04 2.74m-.98-6.62 1.71.02c.48 0 .87.4.86.88v.72l-.02.57"/><path fill="none" stroke="#002140" stroke-linecap="round" stroke-linejoin="round" stroke-width=".62" d="M151.14 135.87h-.21c-.48 0-.87-.41-.86-.89v-.99m1.13 1.88h.21c.48 0 .88-.38.88-.86v-.82m.01.01v-.17l.09-6.56c0-.48.4-.87.88-.86l1.84.02m.04-.01h.91c.48.02.87-.37.88-.85l.04-2.74m.02-.18v-.91a.85.85 0 0 0-.85-.88h-1m-2.33.96v-.14c0-.48.4-.87.88-.86l1.27.02h.17"/><path fill="none" stroke="#002140" stroke-linecap="round" stroke-linejoin="round" stroke-width=".62" d="M152.84 121.97v.14c0 .48-.4.87-.88.86l-1.44-.02m-.12-.02h-.14c-.48 0-.87-.4-.86-.88l.02-1.44"/><path fill="none" stroke="#002140" stroke-linecap="round" stroke-linejoin="round" stroke-width=".62" d="M149.41 120.64v-.03l.04-2.63c0-.48.4-.87.88-.86h.65m.2-.01h.14c.06 0 .12 0 .17.02.39.09.69.44.68.86v.57"/><path fill="none" stroke="#002140" stroke-linecap="round" stroke-linejoin="round" stroke-width=".62" d="M152.15 118.48v.14c0 .48.38.88.86.88h.28"/><path fill="none" stroke="#002140" stroke-linecap="round" stroke-linejoin="round" stroke-width=".62" d="M154.82 118.51v.14c0 .48-.4.87-.88.86h-.84m1.71-1.01.02-1.85a.87.87 0 0 0-.86-.88h-.29m-1.24-.92v.04c0 .45.33.82.77.87h.37"/><path fill="none" stroke="#002140" stroke-linecap="round" stroke-linejoin="round" stroke-width=".62" d="M155.8 113.97h-.11l-2.39-.03a.87.87 0 0 0-.88.86v.29"/><path fill="none" stroke="#002140" stroke-linecap="round" stroke-linejoin="round" stroke-width=".62" d="M156.84 114.88v-.04c0-.45-.34-.82-.77-.87h-.38m1.13 1.04-.03 2.24c0 .48.38.88.86.88h.29"/><path fill="none" stroke="#002140" stroke-linecap="round" stroke-linejoin="round" stroke-width=".62" d="M157.86 118.16h.79c.48.02.88-.37.88-.85v-.28"/><path fill="none" stroke="#002140" stroke-linecap="round" stroke-linejoin="round" stroke-width=".62" d="M160.45 116.04h-.04c-.06 0-.12 0-.18.01-.4.08-.7.43-.71.85v.28m1.09-1.12h.04c.48 0 .88-.38.88-.86v-.56m7.5 8.82v.04c0 .48.38.88.86.88h.29m0 .01h.04c.48 0 .87-.38.88-.86l.02-1.71m-2.1 1.58v-.04a.87.87 0 0 0-.86-.88h-.28m-.88-.93v.07c0 .46.39.84.86.85h.29"/><path fill="none" stroke="#002140" stroke-linecap="round" stroke-linejoin="round" stroke-width=".62" d="M167.93 120.48h-.04a.87.87 0 0 0-.88.86v.29m1.06-1.13h.04c.06 0 .12 0 .18-.01.4-.08.7-.43.71-.84v-.03m4.33 5.72h-1.19a.85.85 0 0 0-.88.84v.29"/><path fill="none" stroke="#002140" stroke-linecap="round" stroke-linejoin="round" stroke-width=".62" d="M170.35 127.31h.04c.48 0 .88-.38.88-.86v-.28"/><path fill="none" stroke="#002140" stroke-linecap="round" stroke-linejoin="round" stroke-width=".62" d="M170.4 127.29h-.72a.86.86 0 0 0-.88.85v.28s0 0 0 0m.01 0-.02 1.94c0 .48.38.88.86.88l2.07.03m.05-.02h.04c.43 0 .79-.3.86-.7.01-.05.02-.1.02-.15v-.29"/><path fill="none" stroke="#002140" stroke-linecap="round" stroke-linejoin="round" stroke-width=".62" d="m175.06 129.43-1.5-.02c-.42 0-.79.3-.86.7-.01.05-.02.1-.02.15v.29m2.54 4.22v.07c0 .47.39.85.86.85h.29m-1.16-.81v-.04c0-.48-.38-.87-.86-.88l-2.72-.04m-.14.01h-.04a.87.87 0 0 0-.88.86l-.02 1.81v.1m-.94 1.04h.04c.48 0 .88-.38.88-.86v-.29m-1.06 1.13h-.04c-.06 0-.12 0-.18.01-.4.08-.7.43-.71.85l-.11 8.44m.03.05v.04c0 .48.38.88.86.88l4.64.06m-25.48-8.98v.04c0 .48.38.88.86.88l9.81.13m1.26 2.54.02-1.65a.87.87 0 0 0-.86-.88h-.29m1.13 2.58v.04c0 .48.38.88.86.88l1.8.02m1.25 6.14.07-5.25a.87.87 0 0 0-.86-.88h-.28m.14 7.41h.04c.48 0 .87-.38.88-.86v-.29m-1.08 1.15-1.73-.02a.87.87 0 0 0-.88.86l-.07 5.39v.03m-.93 1.1h.04c.48 0 .87-.38.88-.86v-.28m-.79 1.15h-.1l-5.49-.07c-.48 0-.87.38-.88.86l-.03 2.19m-2.13-5.33h-.04c-.48 0-.87.38-.88.86l-.06 4.57m1.06-5.43h.04c.48 0 .88-.38.88-.86v-.29"/><path fill="none" stroke="#002140" stroke-linecap="round" stroke-linejoin="round" stroke-width=".62" d="M152.12 155.13v-.18l.04-2.81c0-.48-.38-.87-.86-.88h-.29m-3.63-6.33-.07 5.4c0 .48.38.87.86.88l2.84.04h.24m-2.93-8.67h-.04a.87.87 0 0 0-.88.86l-.02 1.39m-10.48 4.2v-.04a.87.87 0 0 0-.86-.88l-5.69-.07m6.56 1.13-.04 3.27c0 .48.38.88.86.88h.29m2.46 5.36.06-4.45a.87.87 0 0 0-.86-.88l-1.55-.02m-5.18-31.43v-.02c-.29-1.4.8-1.92 1.6-1.74h.04m-.01-.02s-.01-.07-.01-.1c-.13-1.14.62-1.63 1.32-1.62.15 0 .29.03.43.07m2.57-2.02c.15-1.46 1.4-1.6 2.1-1.15m0-.02c.24-1.4 1.4-1.5 2.08-1.08l.09.06m.05-.08c.45-1.41 1.7-1.29 2.29-.7m4.12-.7c.81-1.23 1.98-.78 2.39-.05m.09-.05c.89-1.18 2.03-.65 2.39.1"/><path fill="none" stroke="#002140" stroke-linecap="round" stroke-linejoin="round" stroke-width=".62" d="M154.66 112.81c.53.06 1.05.13 1.56.22 1.86.32 3.65.84 5.33 1.55 2.81 1.18 5.35 2.87 7.5 4.95.74.71 1.43 1.47 2.08 2.27.87 1.08 1.65 2.24 2.34 3.46.72 1.3 1.33 2.67 1.81 4.09.68 2.01 1.1 4.13 1.23 6.33.04.6.05 1.2.04 1.8-.05 3.8-.96 7.4-2.56 10.59-3.85 7.73-11.66 13.13-20.75 13.56q-.75.03-1.5.03c-.54 0-1.09-.03-1.62-.07a24.5 24.5 0 0 1-9.69-2.85 24.55 24.55 0 0 1-10.33-10.7 24.4 24.4 0 0 1-2.54-11.19c.06-4.96 1.59-9.55 4.17-13.37.37-.55.77-1.09 1.18-1.61"/><path fill="#fffaf0" d="M170.53 152.83c.17.18.28.42.28.69 0 .53-.45.96-.98.96l-2.53-.03c-.27 0-.51-.12-.68-.29a.95.95 0 0 1-.27-.69c0-.53.45-.96.98-.96l2.53.03c.27 0 .51.11.68.29Zm-2.79 3.88c-.01.77-.58.86-1.28.85s-3.07-.03-3.07-.03c-.38 0-.71-.14-.93-.35-.37-.43-.5-.99-1.35-1h-.05l-3.98-.05c-.53 0-.96-.45-.96-.98 0-.27.12-.51.29-.68.18-.17.42-.28.69-.28l5.53.07c.32 0 .61.17.78.42h.03c.38.43.48.92 1.32.93l.17.02h.79c1.58.03 2.03.07 2.02 1.07Zm-7.39-24.54c.18-.22.46-.35.75-.35l5.22.07c.27 0 .51.12.68.29.17.18.28.42.27.69 0 .53-.45.97-.98.96l-3.6-.05h-.04c-.85-.01-.96.47-1.35.89h-.03c-.18.25-.47.4-.79.4l-2.53-.03c-.27 0-.51-.12-.68-.3s-.28-.42-.28-.69c0-.54.45-.96.98-.96h.98l.04.01c.83.01.98-.52 1.35-.94Zm-2.11 4.65c.17.18.28.42.28.69 0 .53-.45.96-.98.96l-2.53-.03c-.27 0-.51-.11-.68-.29a.95.95 0 0 1-.27-.69c0-.53.45-.96.98-.96l2.53.03c.26 0 .51.12.68.29Zm-15.12 10.5c.53 0 .96.45.96.98 0 .26-.12.51-.29.68-.18.17-.42.28-.69.28l-2.53-.03c-.53 0-.96-.45-.96-.98 0-.27.12-.51.29-.68.18-.17.42-.28.69-.28zm-9.34-3.11-5.35-.07c-1.58-.02-2-1.38-1.98-2.95.01-.94.37-2.09 1.03-2.16h.17c.11 1.07.24 2.12.45 3.16l7.07.09c.37 0 .71.14.93.35.37.43.5.99 1.35 1h.05l3.98.05c.53 0 .96.45.96.98 0 .26-.11.51-.29.68s-.42.28-.69.28l-5.53-.07a.97.97 0 0 1-.78-.41h-.03c-.37-.43-.48-.92-1.32-.93Z"/><path fill="none" stroke="#002140" stroke-linecap="round" stroke-linejoin="round" stroke-width=".62" d="m162.69 133.78 3.6.05c.54 0 .98-.43.98-.96 0-.27-.1-.51-.27-.69a.94.94 0 0 0-.68-.29l-5.22-.07c-.3 0-.57.13-.76.34m-1.39.95h-.98a.956.956 0 0 0-.98.95c0 .26.1.51.28.69.17.18.41.29.68.3l2.53.03c.32 0 .61-.15.79-.4m-6.26 3.76 2.53.03a.971.971 0 0 0 .02-1.94l-2.53-.03c-.54 0-.97.42-.98.96 0 .26.1.51.27.69s.42.29.68.29Z"/><path fill="none" stroke="#002140" stroke-linecap="round" stroke-linejoin="round" stroke-width=".62" d="M158.99 133.11c.83.01.98-.52 1.35-.94 0-.01.01-.02.02-.03m2.29 1.64c-.85-.01-.96.47-1.35.89m-33.21 7.53 7.07.09c.37 0 .71.14.93.35.01 0 .02.01.02.02"/><path fill="none" stroke="#002140" stroke-linecap="round" stroke-linejoin="round" stroke-width=".62" d="M133.9 144.21h-.12l-5.35-.07c-1.58-.02-2-1.38-1.98-2.95.01-.94.37-2.09 1.03-2.16h.06m9.95 4.6 3.98.05c.53 0 .96.45.96.98 0 .26-.11.51-.29.68s-.42.28-.69.28l-5.53-.07a.97.97 0 0 1-.78-.41m7.96 4.12-2.53-.03c-.53 0-.96-.45-.96-.98 0-.27.12-.51.29-.68.18-.17.42-.28.69-.28l2.53.03c.53 0 .96.45.96.98 0 .27-.12.51-.29.68-.18.17-.42.28-.69.28m-5.66-5.63c-.85-.01-.98-.57-1.35-1m-2.31 1.58c.85 0 .95.49 1.32.92m31.49 12.45h-.13l-3.08-.04c-.37 0-.71-.14-.93-.35 0 0-.02-.01-.02-.02m2.5-1.53h.79c1.58.03 2.03.07 2.02 1.07-.01.77-.58.86-1.28.85m-5.41-1.36-3.98-.05c-.53 0-.96-.45-.96-.98 0-.27.12-.51.29-.68.18-.17.42-.28.69-.28l5.53.07c.32 0 .61.17.78.42m3.89-.25 2.53.03c.54 0 .98-.42.98-.96 0-.26-.1-.51-.28-.69a.93.93 0 0 0-.68-.29l-2.53-.03c-.54 0-.98.42-.98.96 0 .27.1.51.28.69.17.18.42.29.68.29"/><path fill="none" stroke="#002140" stroke-linecap="round" stroke-linejoin="round" stroke-width=".62" d="M161.1 156.2c.85 0 .98.57 1.35 1m2.31-1.58c-.85 0-.95-.5-1.32-.93m-35.8-15.65c.11 1.06.24 2.11.45 3.15v.02"/><path fill="#ff7101" d="m152.95 101.34-2.45 5.75-.27-.11-1.52-.65-.09-.04 2.45-5.75.18.08 1.63.69z"/><path fill="#ff7101" d="m150.5 107.09-2.45 5.75-.07-.03-1.63-.69-.18-.08 2.45-5.75.09.04 1.52.65z"/><path fill="#ff7101" d="m148.05 112.84-2.45 5.75-.27-.11-1.52-.65-.09-.04 2.45-5.75.18.08 1.63.69z"/><path fill="#ff7101" d="m145.6 118.59-2.45 5.75-.07-.03-1.63-.69-.18-.08 2.45-5.75.09.04 1.52.65z"/><path fill="#ff7101" d="m143.15 124.34-2.45 5.75-.27-.11-1.52-.65-.09-.04 2.45-5.75.18.08 1.63.69z"/><path fill="#ff7101" d="m140.71 130.09-2.45 5.75-.07-.03-1.63-.7-.18-.08 2.45-5.75.09.04 1.52.65.27.11Zm-2.45 5.75-2.45 5.75-.27-.11-1.52-.65-.09-.04 2.45-5.75.18.08 1.63.7.07.03Z"/><path fill="#ff7101" d="m135.81 141.59-2.45 5.75-.07-.03-1.63-.69-.18-.08 2.45-5.75.09.04 1.52.65z"/><path fill="#ff7101" d="m133.36 147.34-2.45 5.75-.27-.11-1.52-.65-.09-.04 2.45-5.75.18.08 1.63.69z"/><path fill="none" stroke="#002140" stroke-linecap="round" stroke-linejoin="round" stroke-width=".62" d="m151.36 99.86-.29.68-2.45 5.75-2.45 5.75-2.45 5.75-2.45 5.75-2.45 5.75-2.45 5.75-2.45 5.75-2.45 5.75-2.45 5.75-.52 1.22m24.69-52.73-.24.56-2.45 5.75-2.45 5.75-2.45 5.75-2.45 5.75-2.45 5.75-2.45 5.75-2.45 5.75-2.45 5.75-2.45 5.75-.36.85m-1.42-1.61 1.52.65m1.02-6.36 1.63.69m.73-6.48 1.52.65m1.02-6.36 1.63.7m.73-6.49 1.52.65m1.02-6.36 1.63.69m.72-6.48 1.52.65m1.02-6.36 1.63.69m.73-6.48 1.52.65m1.02-6.37 1.63.69"/><path fill="#ff7101" d="m172.83 146.93 2.33 5.8-.27.11-1.54.62-.09.04-2.34-5.8.18-.07 1.64-.66.07-.03Z"/><path fill="#ff7101" d="m172.83 146.93-.07.03-1.64.66-.18.07-2.33-5.79.09-.04 1.53-.62.27-.11 2.34 5.8Zm-4.68-11.6 2.34 5.8-.27.11-1.53.62-.09.04-2.34-5.8.18-.07 1.64-.66.07-.03Z"/><path fill="#ff7101" d="m165.82 129.53 2.33 5.8-.07.03-1.64.66-.18.07-2.34-5.8.09-.04 1.53-.62.27-.11Z"/><path fill="#ff7101" d="m165.82 129.53-.27.11-1.53.62-.09.04-2.33-5.8.18-.07 1.64-.66.07-.03 2.34 5.8Zm-4.67-11.59 2.33 5.8-.07.03-1.64.66-.18.07-2.34-5.8.09-.04 1.53-.62.27-.11Z"/><path fill="#ff7101" d="m161.15 117.94-.27.11-1.53.62-.09.04-2.34-5.8.18-.07 1.64-.66.07-.03 2.33 5.8Zm-4.67-11.6 2.34 5.8-.07.03-1.64.66-.18.07-2.33-5.8.09-.04 1.53-.62.27-.11Z"/><path fill="#ff7101" d="m154.15 100.54 2.33 5.8-.27.11-1.53.62-.09.04-2.34-5.8.18-.07 1.64-.66.07-.03Z"/><path fill="none" stroke="#002140" stroke-linecap="round" stroke-linejoin="round" stroke-width=".62" d="m152.02 100.74.23.57 2.34 5.8 2.33 5.8 2.34 5.8 2.34 5.8 2.33 5.8 2.34 5.8 2.34 5.8 2.33 5.79 2.34 5.8.31.76m-19.71-54.37.26.65 2.33 5.8 2.34 5.8 2.33 5.8 2.33 5.8 2.34 5.8 2.33 5.8 2.34 5.8 2.34 5.8 2.33 5.8.4 1m-2.2-.29 1.54-.62m-3.78-5.21 1.64-.66m-4.06-5.1 1.53-.62m-3.78-5.22 1.64-.66m-4.06-5.1 1.53-.62m-3.78-5.21 1.64-.66m-4.06-5.1 1.53-.62m-3.78-5.22 1.64-.66m-4.06-5.1 1.53-.62m-3.78-5.21 1.64-.66"/><path fill="#f25730" d="M176.32 155.23s-6.64 7.37-23.93 7.37h-.05c-17.29 0-23.93-7.37-23.93-7.37"/><path fill="none" stroke="#002140" stroke-linecap="round" stroke-linejoin="round" stroke-width=".62" d="M176.32 155.23s-6.64 7.37-23.93 7.37h-.05c-17.29 0-23.93-7.37-23.93-7.37"/><path fill="#e96df2" stroke="#002140" stroke-linecap="round" stroke-linejoin="round" stroke-width=".62" d="M176.45 152.23h-48.16c-.81 0-1.46.65-1.46 1.46s.65 1.46 1.46 1.46h48.16c.81 0 1.46-.65 1.46-1.46s-.65-1.46-1.46-1.46"/><path fill="#bf3013" stroke="#002140" stroke-linecap="round" stroke-linejoin="round" stroke-width=".62" d="M152.56 104.73a3.54 3.54 0 1 0 0-7.08 3.54 3.54 0 0 0 0 7.08"/><path fill="#002140" stroke="#002140" stroke-linecap="round" stroke-linejoin="round" stroke-width=".62" d="M152.56 103.38a2.19 2.19 0 1 0 .001-4.379 2.19 2.19 0 0 0-.001 4.379"/><path fill="#f25730" d="M10.03 2.64q0 .165-.06.33c-.01.04-.03.07-.05.11L8.87 5.22q-.045.105-.12.18a.997.997 0 0 1-1.67-1.07l1.05-2.14c.24-.49.84-.69 1.34-.45.35.17.55.53.55.9Z"/><path fill="#ff7101" d="M6.96 1.67c.57.28.8.96.52 1.53s-.96.8-1.53.52-.8-.96-.52-1.53.96-.8 1.53-.52m167.23 82.47c.57.28.8.97.52 1.53-.28.57-.96.8-1.53.52s-.8-.97-.52-1.53c.28-.57.96-.8 1.53-.52"/><path fill="#f25730" d="M172.6 82.2c.49.24.7.84.45 1.34L172 85.68c-.24.49-.84.7-1.34.45-.46-.23-.66-.76-.5-1.23.01-.04.03-.07.05-.11l1.05-2.14s.04-.08.07-.12a1.01 1.01 0 0 1 1.26-.33Z"/><path fill="#bf3013" d="M170.21 84.79s-.03.07-.05.11l-.35-.18L9 5.4h-.24c.05-.06.08-.12.12-.18l1.05-2.14s.03-.07.05-.11l.21.02L171 82.31l.33.22s-.05.08-.07.12z"/><path fill="none" stroke="#002140" stroke-linecap="round" stroke-linejoin="round" stroke-width=".62" d="M10.19 2.99 171 82.31M9 5.4l160.81 79.32M8.76 5.4a.997.997 0 0 1-1.67-1.07l1.05-2.14c.24-.49.84-.69 1.34-.45a.996.996 0 0 1 .49 1.23c-.01.04-.03.07-.05.11L8.87 5.22q-.045.105-.12.18ZM7.48 3.2c-.28.57-.96.8-1.53.52s-.8-.96-.52-1.53.96-.8 1.53-.52.8.96.52 1.53m162.69 81.69c-.17.47.04 1 .5 1.23.49.24 1.09.04 1.34-.45l1.05-2.14c.24-.49.04-1.09-.45-1.34a1 1 0 0 0-1.26.33c-.03.04-.05.08-.07.12l-1.05 2.14s-.03.07-.05.11Zm2.49-.23c-.28.57-.05 1.25.52 1.53.56.28 1.25.05 1.53-.52.28-.56.05-1.25-.52-1.53s-1.25-.05-1.53.52"/><path fill="#ff7101" d="M30.42 12.7c0 .15-.03.3-.1.44l-1.05 2.14c-.24.49-.84.69-1.34.45-.49-.24-.69-.84-.45-1.34l1.05-2.14c.24-.49.84-.7 1.34-.45.35.17.56.53.56.9Zm-2.41-1.82a1.005 1.005 0 0 1 .46 1.34l-1.05 2.14c-.24.49-.84.7-1.34.45-.49-.24-.69-.84-.45-1.34l1.05-2.14c.24-.49.84-.7 1.34-.45Zm-1.85-.91a1.005 1.005 0 0 1 .46 1.34l-1.05 2.14c-.24.49-.84.7-1.34.45a.996.996 0 0 1-.45-1.34l1.05-2.14c.24-.49.84-.69 1.34-.45Zm129.76 64c.49.24.7.84.45 1.34l-1.05 2.14c-.24.49-.84.7-1.34.45-.49-.24-.69-.84-.45-1.34l1.05-2.14c.17-.35.53-.55.9-.55.15 0 .3.03.44.1m-1.85-.92c.49.24.7.84.45 1.34l-1.05 2.14c-.24.49-.84.69-1.34.45-.49-.24-.69-.84-.45-1.34l1.05-2.14a1.005 1.005 0 0 1 1.34-.46Zm-1.86-.91c.49.24.7.84.46 1.34l-1.05 2.14c-.24.49-.84.7-1.34.45a.996.996 0 0 1-.45-1.34l1.05-2.14a1.005 1.005 0 0 1 1.34-.46Zm-16.54-7.29c-.99-.34-1.82 0-1.82 0l-2.45.85s-1.94.75-3.43.02c-.71-.35-1.1-.88-1.32-1.33v-.02c.79-.08 1.41-.31 1.41-.31l3.78-1.23s.35-.19.84-.33c.58-.16 1.37-.26 2.05.07 1.66.82 1.6 2.25 1.6 2.25z"/><path fill="#ff7101" d="M131.21 60.83c.83.41 1.23.97 1.42 1.43l.05.23c-.5.14-.84.33-.84.33l-3.78 1.23s-.61.24-1.41.31c-.62.06-1.36.02-2.02-.3-.74-.37-1.14-.93-1.35-1.4v-.06c.71-.09 1.25-.3 1.25-.3l3.78-1.23s.35-.19.84-.33c.58-.16 1.37-.26 2.05.07Z"/><path fill="#ff7101" d="M127.68 59.09c.79.39 1.19.92 1.39 1.37l.08.3c-.5.14-.84.33-.84.33l-3.78 1.23s-.53.21-1.26.3c-.65.08-1.46.07-2.17-.28-1.48-.73-1.58-2.24-1.58-2.24l.19-.04c1.4.69 2.02.29 2.02.29l3.04-.99s1.63-.88 2.89-.26ZM59.23 30.21l.09.18s-1.26.85-2.74.11c-.69-.34-1.19-.97-1.53-1.53a5.7 5.7 0 0 1-.54-1.2l-1.32-3.74s-.06-.4-.26-.89l.29-.1c.48-.11 1.15-.12 1.94.27 1.26.62 1.56 2.45 1.56 2.45l1.07 3.02s.06.74 1.46 1.43Z"/><path fill="#ff7101" d="M54.98 28.99c-.5.12-1.18.15-1.93-.22-.65-.32-1.13-.89-1.46-1.42-.42-.68-.61-1.31-.61-1.31l-1.32-3.75s-.06-.4-.26-.89l.23-.08c.48-.13 1.17-.15 2 .26.67.33 1.07 1 1.29 1.56.2.49.26.89.26.89l1.32 3.74s.17.56.54 1.2h-.07Z"/><path fill="#ff7101" d="M51.58 27.35c-.49.11-1.15.12-1.86-.23-1.48-.73-2.07-2.73-2.07-2.73l-.82-2.46s-.28-1.07-1.42-1.63l-.07-.36s1.11-.92 2.76-.1c.67.33 1.07 1 1.29 1.56.2.49.26.89.26.89l1.32 3.75s.18.63.61 1.31h-.01Z"/><path fill="none" stroke="#002140" stroke-linecap="round" stroke-linejoin="round" stroke-width=".62" d="M59.32 30.39s-1.26.85-2.74.11c-.69-.34-1.19-.97-1.53-1.53a5.7 5.7 0 0 1-.54-1.2l-1.32-3.74s-.06-.4-.26-.89c-.23-.56-.62-1.23-1.29-1.56-.83-.41-1.52-.38-2-.26m5.34 7.67c-.5.12-1.18.15-1.93-.22-.65-.32-1.13-.89-1.46-1.42-.42-.68-.61-1.31-.61-1.31l-1.32-3.75s-.06-.4-.26-.89c-.23-.56-.62-1.23-1.29-1.56-1.66-.82-2.76.1-2.76.1"/><path fill="none" stroke="#002140" stroke-linecap="round" stroke-linejoin="round" stroke-width=".62" d="M59.23 30.21c-1.4-.69-1.46-1.43-1.46-1.43l-1.07-3.02s-.29-1.83-1.56-2.45c-.79-.39-1.46-.38-1.94-.27m-1.62 4.31c-.49.11-1.15.12-1.86-.23-1.48-.73-2.07-2.73-2.07-2.73l-.82-2.46s-.28-1.07-1.42-1.63m-21.19-6.4a.996.996 0 0 1-.45-1.34l1.05-2.14a1.005 1.005 0 0 1 1.8.89l-1.05 2.14c-.24.49-.84.7-1.34.45Zm1.86.91c-.49-.24-.69-.84-.45-1.34l1.05-2.14c.24-.49.84-.7 1.34-.45a1.005 1.005 0 0 1 .46 1.34l-1.05 2.14c-.24.49-.84.7-1.34.45Zm1.85.91c-.49-.24-.69-.84-.45-1.34l1.05-2.14c.24-.49.84-.7 1.34-.45a1.005 1.005 0 0 1 .46 1.34l-1.05 2.14c-.24.49-.84.69-1.34.45Zm91.6 44.37s.1 1.51 1.58 2.24c.71.35 1.51.36 2.17.28.72-.09 1.26-.3 1.26-.3l3.78-1.23s.35-.19.84-.33c.58-.16 1.37-.26 2.05.07.83.41 1.23.97 1.42 1.43m-9.34.42c.21.47.6 1.03 1.35 1.4.65.32 1.39.36 2.02.3.8-.08 1.41-.31 1.41-.31l3.78-1.23s.35-.19.84-.33c.58-.16 1.37-.26 2.05.07 1.66.82 1.6 2.25 1.6 2.25"/><path fill="none" stroke="#002140" stroke-linecap="round" stroke-linejoin="round" stroke-width=".62" d="M119.73 60.05c1.4.69 2.02.29 2.02.29l3.04-.99s1.63-.88 2.89-.26c.79.39 1.19.92 1.39 1.37m-2.42 3.92c.22.45.61.98 1.32 1.33 1.48.73 3.43-.02 3.43-.02l2.45-.85s.83-.34 1.82 0c.11.04.22.08.33.14m17.98 12.91c.49.24 1.09.04 1.34-.45l1.05-2.14c.24-.49.04-1.09-.45-1.34a1 1 0 0 0-.44-.1c-.37 0-.73.2-.9.55l-1.05 2.14c-.24.49-.04 1.09.45 1.34m-1.85-.91c.49.24 1.09.04 1.34-.45l1.05-2.14c.24-.49.04-1.09-.45-1.34a1 1 0 0 0-.44-.1c-.37 0-.72.2-.9.56l-1.05 2.14c-.24.49-.04 1.09.45 1.34Zm-1.85-.91c.49.24 1.09.04 1.34-.45l1.05-2.14c.24-.49.04-1.09-.46-1.34a1 1 0 0 0-.44-.1c-.37 0-.73.2-.9.56l-1.05 2.14c-.24.49-.04 1.09.45 1.34Z"/><path fill="#002140" stroke="#002140" stroke-linecap="round" stroke-linejoin="round" stroke-width=".1" d="M90.19 45.9c1.13 0 2.04-.91 2.04-2.04s-.91-2.04-2.04-2.04-2.04.91-2.04 2.04.91 2.04 2.04 2.04"/></svg>