<?xml version="1.0" encoding="UTF-8"?>
<svg id="Layer_1" xmlns="http://www.w3.org/2000/svg" version="1.1" viewBox="0 0 179 180">
  <!-- Generator: Adobe Illustrator 30.0.0, SVG Export Plug-In . SVG Version: 2.1.1 Build 123)  -->
  <path d="M107.39,176.1v.15c0,.24-.03.46-.1.68l-.1-.03h-33.87l-.36.08c-.07-.23-.11-.48-.11-.74v-.15c0-1.36,1.12-2.48,2.48-2.48h29.6c1.35.01,2.45,1.12,2.45,2.48Z" fill="#f25730"/>
  <path d="M107.2,176.91l.1.03c-.3,1.03-1.25,1.8-2.38,1.8h-29.57c-1.11,0-2.05-.74-2.37-1.74l.36-.08h33.87Z" fill="#002140"/>
  <path d="M104.94,173.6v.03h-8.28v-.05c-1.12-1.35-1.74-3.06-2.04-4.79-.3-1.73-.29-3.5-.28-5.25v-.09h3.17v1.41c0,7.16,4.75,8.66,7.43,8.75Z" fill="#bf3013"/>
  <path d="M102.67,154.15c.02.85-.11,1.64-.35,2.35h-.01c-.27.11-.57.18-.89.18-1.26,0-2.29-1.02-2.29-2.29s1.02-2.29,2.29-2.29c.32,0,.62.06.89.18l.08-.02c.16.57.26,1.2.28,1.88Z" fill="#ff7101"/>
  <path d="M82.8,156.98c-.71,1.01-1.82,1.72-3.1,1.89l-.24.12c-.58-.69-1.09-1.55-1.4-2.53h.03c.3.14.64.22.99.22,1.26,0,2.29-1.02,2.29-2.29s-1.02-2.29-2.29-2.29c-.32,0-.62.07-.9.18l-.18-.05c.28-.97.73-1.77,1.26-2.41l.06.05c1.41.07,2.64.79,3.42,1.87l.14-.04c.82-1.11,2.15-1.84,3.64-1.84s2.83.73,3.66,1.86l.14-.02c.82-1.11,2.15-1.84,3.64-1.84s2.92.77,3.75,1.85l.08-.05c.83-1.09,1.94-1.7,3.42-1.7h0c.48.62.9,1.39,1.16,2.3l-.08.02c-.27-.12-.57-.18-.89-.18-1.26,0-2.29,1.02-2.29,2.29s1.02,2.29,2.29,2.29c.32,0,.62-.06.89-.18h.01c-.3.94-.78,1.75-1.32,2.42l-.03-.02c-1.33-.13-2.5-.84-3.24-1.87l-.16.11c-.83,1.08-2.13,1.78-3.6,1.78s-2.86-.75-3.69-1.9l-.15.11c-.83,1.09-2.14,1.79-3.61,1.79s-2.85-.74-3.67-1.89l-.06-.04ZM96.26,154.39c0-1.26-1.02-2.29-2.29-2.29s-2.29,1.02-2.29,2.29,1.02,2.29,2.29,2.29,2.29-1.02,2.29-2.29ZM88.82,154.39c0-1.26-1.02-2.29-2.29-2.29s-2.29,1.02-2.29,2.29,1.02,2.29,2.29,2.29,2.29-1.02,2.29-2.29Z" fill="#002140"/>
  <path d="M101.55,94.67v.15c0,1.22-.89,2.24-2.06,2.44l-.02-.11c-1.3,0-2.36-1.07-2.36-2.37v-.14c0-1.31,1.06-2.37,2.36-2.37v-.04c1.18.19,2.08,1.22,2.08,2.45Z" fill="#ff7101"/>
  <path d="M101.23,149.96h0c-1.48,0-2.59.62-3.42,1.71l-.08.05c-.83-1.08-2.28-1.85-3.75-1.85s-2.82.72-3.64,1.84l-.14.02c-.82-1.13-2.15-1.86-3.66-1.86s-2.82.72-3.64,1.84l-.14.04c-.78-1.07-2.01-1.79-3.42-1.87l-.06-.05c1.12-1.39,2.56-2.07,3.21-2.12.07.01.14.02.21.02h14.88c.09,0,.18-.01.27-.03h0c.62,0,2.2.72,3.39,2.26Z" fill="#e96df2"/>
  <path d="M100.97,158.89l.03.02c-1.06,1.31-2.36,2.08-3.1,2.14-.1-.03-.21-.05-.32-.05h-14.88c-.1,0-.19.01-.28.04-.74-.11-1.94-.84-2.94-2.05l.24-.12c1.28-.17,2.39-.88,3.1-1.89l.06.04c.82,1.14,2.16,1.89,3.67,1.89s2.78-.7,3.61-1.79l.15-.11c.82,1.15,2.16,1.9,3.69,1.9s2.77-.7,3.6-1.78l.16-.11c.74,1.03,1.9,1.74,3.24,1.87Z" fill="#e96df2"/>
  <path d="M98.45,137.08c1.39.76,2.22,2.38,2.13,3.95-.08,1.58-1.02,3.06-2.36,3.9-.06.04-.13.09-.12.16,0,0,0,.02,0,.02l-.54.17h-12.33v-.07c.5-.09.6-.45.66-.78.06-.34-.09-.7-.36-.9-.5-.36-1.18-.14-1.79-.18-.29-.01-.58-.09-.84-.22-.31-.15-.59-.38-.93-.41-.3-.02-.61.14-.76.39-.15.26-.15.6,0,.86l-.08.08c-.77-.83-1.26-1.91-1.32-3.03-.02-.38.01-.75.09-1.12h.07c-.09.4-.1.8.04,1.17.21.54.88.92,1.4.67.62-.31.61-1.17.9-1.8.36-.8,1.23-1.22,2.06-1.52.53-.19,1.09-.36,1.52-.72.44-.36.74-.96.56-1.49-.17-.5-.75-1.05-1.3-.66.15-.16.27-.33.36-.52l.09.04h8.95l.3-.08c.12.26.3.49.52.69.86.74,2.08.85,3.07,1.4Z" fill="#ff7101"/>
  <path d="M99.47,97.15l.02.11c-.14.02-.28.04-.42.04h-3.2c-1.36,0-2.48-1.12-2.48-2.48v-.15c0-1.36,1.12-2.48,2.48-2.48h3.2c.14,0,.27.01.41.04v.04c-1.3,0-2.36,1.07-2.36,2.37v.14c0,1.31,1.06,2.37,2.36,2.37Z" fill="#e96df2"/>
  <path d="M98.75,97.3v.14c-4.31,4.23-3.79,9.85-3.79,9.85h-9.57s-.06,0-.09,0c0,0,.35-3.79-1.91-7.49.27-.58.1-1.3-.44-1.68-.3-.21-.66-.28-.99-.23-.14-.15-.29-.31-.44-.46v-.14h17.25Z" fill="#002140"/>
  <path d="M82.48,147.71c-.57-.1-1-.6-1-1.2,0-.34.14-.64.36-.86.13-.13.3-.24.48-.3.12-.04.24-.06.37-.06h14.88c.67,0,1.22.55,1.22,1.21,0,.33-.14.64-.36.86-.16.16-.36.27-.59.33-.09.02-.18.03-.27.03h-14.88c-.07,0-.14,0-.21-.02Z" fill="#f25730"/>
  <path d="M82.88,163.44h-.19c-.67,0-1.22-.55-1.22-1.22,0-.34.14-.64.36-.86.15-.16.35-.27.57-.32.09-.02.19-.04.28-.04h14.88c.11,0,.22.01.32.05.51.14.9.61.9,1.17,0,.33-.14.64-.36.86-.22.22-.53.36-.86.36h-14.69Z" fill="#f25730"/>
  <path d="M96.67,173.57v.05h-4.08v-.15c-1.04-3.23-1.5-6.65-1.34-10.03h3.1v.09c0,1.76-.01,3.52.28,5.25.3,1.73.92,3.44,2.04,4.79Z" fill="#bf3013"/>
  <path d="M94.87,88.69c.88,0,1.6.72,1.6,1.6,0,.44-.18.84-.47,1.13-.29.29-.69.47-1.13.47h-9.49c-.88,0-1.6-.72-1.6-1.61,0-.44.18-.84.47-1.13.29-.29.69-.47,1.13-.47h9.49Z" fill="#f25730"/>
  <path d="M94.96,107.29c.84.04,1.52.75,1.52,1.6,0,.44-.18.84-.47,1.13-.29.29-.69.47-1.13.47h-9.49c-.88,0-1.6-.72-1.6-1.61,0-.44.18-.84.47-1.13.27-.27.64-.45,1.05-.47.03,0,.06,0,.09,0h9.49s.06,0,.09,0Z" fill="#f25730"/>
  <path d="M94.87,110.6c.88,0,1.6.72,1.6,1.6,0,.44-.18.84-.47,1.13-.29.29-.69.47-1.13.47h-9.49c-.88,0-1.6-.72-1.6-1.61,0-.44.18-.84.47-1.13.29-.29.69-.47,1.13-.47h9.49Z" fill="#f25730"/>
  <path d="M94.87,128.58c.88,0,1.6.72,1.6,1.6,0,.44-.18.84-.47,1.13-.13.13-.27.23-.44.31-.21.1-.45.16-.69.16h-9.49c-.23,0-.45-.05-.64-.14-.56-.25-.96-.82-.96-1.47,0-.44.18-.84.47-1.13.29-.29.69-.47,1.13-.47h9.49Z" fill="#f25730"/>
  <path d="M91.94,92.19h3.93c-1.36,0-2.48,1.12-2.48,2.48v.15c0,1.36,1.12,2.48,2.48,2.48h-3.93c-1.36,0-2.48-1.12-2.48-2.48v-.15c0-1.36,1.12-2.48,2.48-2.48Z" fill="#ff7101"/>
  <path d="M93.97,156.68c1.26,0,2.29-1.02,2.29-2.29s-1.02-2.29-2.29-2.29-2.29,1.02-2.29,2.29,1.02,2.29,2.29,2.29Z" fill="#ff7101"/>
  <path d="M95.57,131.63l.06.07c-.94.78-1.27,2.24-.77,3.3l-.3.08h-8.95l-.09-.04c.53-1.07.19-2.57-.78-3.36v-.03c.21.09.43.14.66.14h9.49c.25,0,.48-.06.69-.16Z" fill="#002140"/>
  <path d="M95.2,35.14c.14.38.14,1.03-.41,1.5-.78.67-1.09.95-1.75,1.6-.55.55-1,1.25-1.16,2.03l-.85-.13c.1-1.73.51-3.12,1.39-4.56.4-.57.87-1.04,1.46-1.11.52-.06,1.13.17,1.31.67Z" fill="#e96df2"/>
  <path d="M94.65,117.98h0v10.59h-3.02v-10.71c.05-.4.12-.81.31-1.16.2-.35.54-.62.94-.71.67-.16,1.26.18,1.51.67.2.39.25.88.25,1.33Z" fill="#bf3013"/>
  <path d="M94.65,113.82v4.17h0c0-.46-.05-.94-.25-1.33-.25-.49-.84-.83-1.51-.67-.4.1-.74.36-.94.71-.19.36-.27.76-.31,1.16v-4.06h3.02Z" fill="#002140"/>
  <path d="M91.29,50.35v.04s-.02,0-.03,0c-.23-.09-.47-.14-.72-.14h-.8c-.21,0-.42.03-.61.1-.02,0-.03.01-.05.02-.01,0-.02,0-.01-.02.18-.91-.06-1.9-.64-2.63-.27-.34-.61-.62-.89-.95-.77-.89-1.12-2.13-.92-3.28.19-1.12.88-2.14,1.85-2.73.03-.02.07-.04.1-.06.36-.21.77-.36,1.18-.39.12-.01.24-.01.35,0,.01,0,.02,0,.03,0h.15c.54-.06,1.08.11,1.54.38,0,0,.01,0,.02.01,1.02.58,1.75,1.64,1.95,2.8.2,1.16-.15,2.4-.92,3.28-.28.33-.62.61-.89.95-.58.73-.82,1.72-.64,2.63,0,.03-.02.03-.04.02ZM92.23,43.86c0-1.13-.91-2.04-2.04-2.04s-2.04.92-2.04,2.04.91,2.04,2.04,2.04,2.04-.92,2.04-2.04Z" fill="#ff7101"/>
  <path d="M93.69,88.69h-7.12s1.46-.51,1.46-3.5c0-3.65-2.26-3.21-2.26-6.28,0-2.41,1.9-3.5,3.35-3.5h2.02c1.46,0,3.35,1.1,3.35,3.5,0,3.07-2.26,2.63-2.26,6.28,0,2.99,1.46,3.5,1.46,3.5Z" fill="#ff7101"/>
  <path d="M94.18,64.1c0,1.75-.54,3.65-3.99,3.65h-.12c-3.45,0-3.99-1.9-3.99-3.65,0-2.12,1.75-2.63,1.75-4.01s-1.31-1.53-1.31-3.07.61-2.69,3.61-2.77c3,.08,3.61,1.29,3.61,2.77s-1.31,1.75-1.31,3.07c0,1.38,1.75,1.9,1.75,4.01Z" fill="#ff7101"/>
  <path d="M90.1,35.94c.05-1.16.25-2.36.94-3.28.27-.36.58-.65,1.02-.77.44-.11,1.01.03,1.27.4.48.69-.16,2.16-.57,2.77-.11.17-.22.34-.32.51-.88,1.44-1.3,2.83-1.39,4.56l.85.13c-.02.11-.04.22-.05.34l-.03.05c-.47-.27-1.01-.44-1.54-.38h-.15s-.02,0-.03,0v-.07s0-3.94,0-3.94c0-.11,0-.22.01-.33Z" fill="#e96df2"/>
  <path d="M92.06,68.04c.66,0,1.2.54,1.2,1.2,0,.33-.13.63-.35.85-.22.22-.52.35-.85.35h-3.87c-.66,0-1.2-.54-1.2-1.2,0-.33.14-.63.35-.85s.52-.35.85-.35h3.87Z" fill="#bf3013"/>
  <path d="M92.56,70.64c.41.19.7.61.7,1.09,0,.33-.13.63-.35.85-.09.09-.19.16-.3.22h0s-1.15-1.11-1.15-1.11l1.11-1.05Z" fill="#e96df2"/>
  <path d="M92.06,73c.66,0,1.2.54,1.2,1.2,0,.33-.13.63-.35.85-.22.22-.52.35-.85.35h-3.87c-.66,0-1.2-.54-1.2-1.2,0-.33.14-.63.35-.85.22-.22.52-.35.85-.35h3.87Z" fill="#bf3013"/>
  <path d="M92.61,72.78h0c-.17.1-.35.14-.55.14h-1.68v-.22l1.07-1.02,1.15,1.1Z" fill="#e96df2"/>
  <path d="M92.58,173.47v.15h-4.5v-.15c1.04-3.23,1.5-6.65,1.34-10.03h1.82c-.16,3.39.3,6.8,1.34,10.03Z" fill="#bf3013"/>
  <path d="M92.56,70.64l-1.11,1.05-1.03-.98v-.18h1.64c.18,0,.35.04.5.11Z" fill="#e96df2"/>
  <path d="M92.47,51.74c.05.16.07.33.07.51,0,.55-.23,1.05-.59,1.42s-.87.59-1.42.59h-.4v-.18l2.34-2.34h0Z" fill="#e96df2"/>
  <path d="M92.47,51.74h0l-2.34,2.34v.18h-.4c-.21,0-.41-.03-.59-.09l.05-.16,2.9-2.9.06-.04c.15.2.26.43.33.68Z" fill="#002140"/>
  <path d="M92.14,51.06l-.06.04-2.9,2.9-.05.16c-.38-.12-.72-.35-.97-.66l.03-.02,3.03-3.03.03-.08s.01,0,.02,0c.35.14.64.37.87.67Z" fill="#e96df2"/>
  <path d="M87.81,92.19h4.13c-1.36,0-2.48,1.12-2.48,2.48v.15c0,1.36,1.12,2.48,2.48,2.48h-4.13c-1.36,0-2.48-1.12-2.48-2.48v-.15c0-1.36,1.12-2.48,2.48-2.48Z" fill="#e96df2"/>
  <path d="M90.19,41.82c1.13,0,2.04.92,2.04,2.04s-.91,2.04-2.04,2.04-2.04-.92-2.04-2.04.91-2.04,2.04-2.04Z" fill="#002140"/>
  <path d="M91.64,117.98h0v10.59h-3.02v-10.27c0-.14,0-.29,0-.44h.04c.05-.4.12-.81.31-1.16.19-.35.53-.62.92-.71.66-.16,1.24.18,1.49.67.2.39.25.87.25,1.33Z" fill="#bf3013"/>
  <path d="M91.64,117.86v.12h0c0-.46-.05-.94-.25-1.33-.25-.49-.82-.83-1.49-.67-.39.1-.73.36-.92.71-.19.36-.26.76-.31,1.16h-.04s0-.09,0-.14v-3.92h3.02v4.06Z" fill="#002140"/>
  <path d="M91.46,71.69l-1.07,1.02v.22h-.5v-.26l-.98-.92,1.09-1.01v-.22h.44v.18l1.03.98Z" fill="#e96df2"/>
  <path d="M91.26,50.38l-.03.08-3.03,3.03-.03.02c-.17-.21-.29-.45-.37-.71h0l2.55-2.55h.17c.25,0,.5.05.72.14Z" fill="#002140"/>
  <path d="M90.36,50.24l-2.55,2.55h0c-.05-.17-.08-.36-.08-.55,0-.55.23-1.05.59-1.42.21-.21.47-.38.76-.48.01,0,.04,0,.05-.02.19-.06.4-.1.61-.1h.63Z" fill="#e96df2"/>
  <path d="M87.78,35.58c-.1-.17-.21-.34-.32-.51-.41-.61-1.06-2.08-.57-2.77.26-.37.83-.51,1.27-.4.44.11.75.41,1.02.77.69.91.89,2.12.94,3.28,0,.11,0,.22-.01.33v4.01c-.12-.01-.24-.01-.36,0l-.57-.14c-.1-1.73-.51-3.12-1.39-4.56Z" fill="#e96df2"/>
  <path d="M89.99,70.52v.22l-1.09,1.01-.96-.9-.07-.29c.11-.03.22-.05.33-.05h1.79Z" fill="#e96df2"/>
  <path d="M89.88,72.67v.26h-1.68c-.14,0-.28-.02-.41-.07l.04-.11,1.07-.99.98.92Z" fill="#e96df2"/>
  <path d="M89.17,40.14l.57.14c-.42.04-.82.19-1.18.39-.04.02-.07.04-.1.06l-.08-.13c-.08-.91-.58-1.74-1.21-2.37-.63-.63-.97-.93-1.75-1.6-.55-.48-.55-1.12-.41-1.5.18-.5.79-.73,1.31-.67.59.07,1.06.54,1.46,1.11.88,1.44,1.29,2.83,1.39,4.56Z" fill="#e96df2"/>
  <path d="M89.42,163.44c.16,3.39-.3,6.8-1.34,10.03v.15h-4.08v-.05c1.12-1.35,1.74-3.06,2.04-4.79.3-1.73.29-3.5.28-5.25v-.09h3.1Z" fill="#bf3013"/>
  <path d="M87.93,70.86l.96.9-1.07.99-.04.11c-.46-.17-.8-.61-.8-1.13,0-.33.14-.63.35-.85.14-.14.32-.25.51-.31l.07.29Z" fill="#e96df2"/>
  <path d="M88.62,128.41v.16h-3.02v-10.71h.05c.05-.4.12-.81.31-1.16.19-.35.53-.62.92-.71.66-.16,1.24.18,1.49.67.16.32.23.69.24,1.06v10.7Z" fill="#bf3013"/>
  <path d="M88.62,113.89v3.82c-.02-.37-.08-.74-.24-1.06-.25-.49-.83-.83-1.49-.67-.39.1-.73.36-.92.71-.19.36-.26.76-.31,1.16h-.05v-4.06h3.02v.08Z" fill="#002140"/>
  <path d="M86.53,156.68c1.26,0,2.29-1.02,2.29-2.29s-1.02-2.29-2.29-2.29-2.29,1.02-2.29,2.29,1.02,2.29,2.29,2.29Z" fill="#ff7101"/>
  <path d="M83.67,92.19h4.13c-1.36,0-2.48,1.12-2.48,2.48v.15c0,1.36,1.12,2.48,2.48,2.48h-4.13c-1.36,0-2.48-1.12-2.48-2.48v-.15c0-1.36,1.12-2.48,2.48-2.48Z" fill="#ff7101"/>
  <path d="M79.98,139.93h-.07c.25-1.19.98-2.27,2.04-2.84.99-.54,2.22-.66,3.07-1.4.05-.04.09-.08.14-.13.55-.39,1.13.16,1.3.66.18.54-.12,1.13-.56,1.49-.44.36-.99.53-1.52.72-.82.3-1.7.72-2.06,1.52-.29.63-.28,1.5-.9,1.8-.52.26-1.18-.13-1.4-.67-.14-.36-.13-.77-.04-1.15Z" fill="#fffaf0"/>
  <path d="M86.32,163.53c0,1.76.01,3.52-.28,5.25-.3,1.73-.92,3.44-2.04,4.79v.05h-8.65v-.03c2.66-.05,7.54-1.5,7.54-8.75v-1.41h3.44v.09Z" fill="#bf3013"/>
  <path d="M85.54,143.55c.27.2.42.56.36.9-.06.33-.16.69-.66.78v.07h-2.55c-.13,0-.26.02-.37.06l-.07-.21s.05-.02.05-.05c0-.07-.06-.12-.12-.16-.38-.24-.73-.54-1.03-.87l.08-.08c-.16-.26-.16-.6,0-.86.16-.26.46-.41.76-.39.34.03.62.26.93.41.26.13.55.21.84.22.61.03,1.3-.18,1.79.18Z" fill="#fffaf0"/>
  <path d="M81.19,92.19h2.48c-1.36,0-2.48,1.12-2.48,2.48v.15c0,1.36,1.12,2.48,2.48,2.48h-2.48c-1.36,0-2.48-1.12-2.48-2.48v-.15c0-1.36,1.12-2.48,2.48-2.48Z" fill="#e96df2"/>
  <path d="M83.39,99.81c-.03.07-.07.14-.12.2-.43.61-1.27.75-1.88.33-.61-.43-.75-1.27-.33-1.88.22-.31.54-.5.89-.55.57.62,1.04,1.26,1.44,1.91Z" fill="#fffaf0"/>
  <path d="M79.09,152.1c1.26,0,2.29,1.02,2.29,2.29s-1.02,2.29-2.29,2.29c-.36,0-.69-.08-.99-.23h-.03c-.23-.7-.35-1.47-.33-2.3.02-.7.12-1.33.29-1.91l.18.05c.27-.12.58-.18.9-.18Z" fill="#ff7101"/>
  <path d="M90.46,54.26c-.11,0-.22,0-.33,0" fill="none" stroke="#002140" stroke-linecap="round" stroke-linejoin="round" stroke-width=".62"/>
  <path d="M90.13,54.26c-.11,0-.21,0-.33,0" fill="none" stroke="#002140" stroke-linecap="round" stroke-linejoin="round" stroke-width=".62"/>
  <path d="M90.13,54.26c-3,.08-3.61,1.29-3.61,2.77s1.31,1.75,1.31,3.07c0,1.38-1.75,1.9-1.75,4.01,0,1.75.53,3.65,3.99,3.65h.12c3.45,0,3.99-1.9,3.99-3.65,0-2.12-1.75-2.63-1.75-4.01s1.31-1.53,1.31-3.07-.61-2.69-3.61-2.77Z" fill="none" stroke="#002140" stroke-linecap="round" stroke-linejoin="round" stroke-width=".62"/>
  <path d="M92.47,51.74c.05.16.07.33.07.51,0,.55-.23,1.05-.59,1.42s-.87.59-1.42.59h-.8c-.21,0-.41-.03-.59-.09-.38-.12-.72-.35-.97-.66-.17-.21-.29-.45-.37-.71-.05-.18-.08-.36-.08-.55,0-.55.23-1.05.59-1.42.21-.21.47-.38.76-.48.02,0,.04-.01.05-.02.19-.06.4-.1.61-.1h.8c.25,0,.5.05.72.14,0,0,.01,0,.02,0,.35.14.64.37.87.67.15.2.26.43.33.68Z" fill="none" stroke="#002140" stroke-linecap="round" stroke-linejoin="round" stroke-width=".62"/>
  <path d="M92.06,70.45h-3.87c-.66,0-1.2-.54-1.2-1.2,0-.33.14-.63.35-.85s.52-.35.85-.35h3.87c.66,0,1.2.54,1.2,1.2,0,.33-.13.63-.35.85-.22.22-.52.35-.85.35Z" fill="none" stroke="#002140" stroke-linecap="round" stroke-linejoin="round" stroke-width=".62"/>
  <path d="M92.61,72.8c-.17.09-.35.13-.55.13h-3.87c-.14,0-.28-.02-.41-.07-.46-.17-.8-.61-.8-1.13,0-.33.14-.63.35-.85.14-.14.32-.25.51-.31.11-.03.22-.05.33-.05h3.87c.18,0,.35.04.5.11.41.19.7.61.7,1.09,0,.33-.13.63-.35.85-.09.09-.19.16-.3.22Z" fill="none" stroke="#002140" stroke-linecap="round" stroke-linejoin="round" stroke-width=".62"/>
  <path d="M89.12,75.41h-.92c-.66,0-1.2-.54-1.2-1.2,0-.33.14-.63.35-.85.22-.22.52-.35.85-.35h3.87c.66,0,1.2.54,1.2,1.2,0,.33-.13.63-.35.85-.22.22-.52.35-.85.35h-2.94Z" fill="none" stroke="#002140" stroke-linecap="round" stroke-linejoin="round" stroke-width=".62"/>
  <path d="M93.69,88.69h1.18c.88,0,1.6.72,1.6,1.6,0,.44-.18.84-.47,1.13-.29.29-.69.47-1.13.47h-9.49c-.88,0-1.6-.72-1.6-1.61,0-.44.18-.84.47-1.13.29-.29.69-.47,1.13-.47h8.3Z" fill="none" stroke="#002140" stroke-linecap="round" stroke-linejoin="round" stroke-width=".62"/>
  <path d="M94.96,107.29c.84.04,1.52.75,1.52,1.6,0,.44-.18.84-.47,1.13-.29.29-.69.47-1.13.47h-9.49c-.88,0-1.6-.72-1.6-1.61,0-.44.18-.84.47-1.13.27-.27.64-.45,1.05-.47.03,0,.06,0,.09,0h9.49s.06,0,.09,0Z" fill="none" stroke="#002140" stroke-linecap="round" stroke-linejoin="round" stroke-width=".62"/>
  <path d="M85.61,113.81h-.22c-.88,0-1.6-.72-1.6-1.61,0-.44.18-.84.47-1.13.29-.29.69-.47,1.13-.47h9.49c.88,0,1.6.72,1.6,1.6,0,.44-.18.84-.47,1.13-.29.29-.69.47-1.13.47h-9.27Z" fill="none" stroke="#002140" stroke-linecap="round" stroke-linejoin="round" stroke-width=".62"/>
  <path d="M89.12,75.41c-1.46,0-3.35,1.1-3.35,3.5,0,3.07,2.26,2.63,2.26,6.28,0,2.99-1.46,3.5-1.46,3.5" fill="none" stroke="#002140" stroke-linecap="round" stroke-linejoin="round" stroke-width=".62"/>
  <path d="M91.14,75.41c1.46,0,3.35,1.1,3.35,3.5,0,3.07-2.26,2.63-2.26,6.28,0,2.99,1.46,3.5,1.46,3.5" fill="none" stroke="#002140" stroke-linecap="round" stroke-linejoin="round" stroke-width=".62"/>
  <path d="M98.75,97.44c-4.31,4.23-3.79,9.85-3.79,9.85" fill="none" stroke="#002140" stroke-linecap="round" stroke-linejoin="round" stroke-width=".62"/>
  <path d="M81.51,97.44c.15.15.3.3.44.46.57.62,1.04,1.26,1.44,1.91,2.26,3.7,1.91,7.48,1.91,7.48" fill="none" stroke="#002140" stroke-linecap="round" stroke-linejoin="round" stroke-width=".62"/>
  <path d="M99.49,97.26c-.14.02-.28.04-.42.04h-17.87c-1.36,0-2.48-1.12-2.48-2.48v-.15c0-1.36,1.12-2.48,2.48-2.48h17.87c.14,0,.27.01.41.04,1.17.19,2.07,1.22,2.07,2.45v.15c0,1.22-.89,2.24-2.06,2.44Z" fill="none" stroke="#002140" stroke-linecap="round" stroke-linejoin="round" stroke-width=".62"/>
  <path d="M83.67,97.3c-1.36,0-2.48-1.12-2.48-2.48v-.15c0-1.36,1.12-2.48,2.48-2.48" fill="none" stroke="#002140" stroke-linecap="round" stroke-linejoin="round" stroke-width=".62"/>
  <path d="M87.81,97.3c-1.36,0-2.48-1.12-2.48-2.48v-.15c0-1.36,1.12-2.48,2.48-2.48" fill="none" stroke="#002140" stroke-linecap="round" stroke-linejoin="round" stroke-width=".62"/>
  <path d="M91.94,97.3c-1.36,0-2.48-1.12-2.48-2.48v-.15c0-1.36,1.12-2.48,2.48-2.48" fill="none" stroke="#002140" stroke-linecap="round" stroke-linejoin="round" stroke-width=".62"/>
  <path d="M95.87,97.3c-1.36,0-2.48-1.12-2.48-2.48v-.15c0-1.36,1.12-2.48,2.48-2.48" fill="none" stroke="#002140" stroke-linecap="round" stroke-linejoin="round" stroke-width=".62"/>
  <path d="M99.47,97.15c-1.3,0-2.36-1.07-2.36-2.37v-.14c0-1.31,1.06-2.37,2.36-2.37" fill="none" stroke="#002140" stroke-linecap="round" stroke-linejoin="round" stroke-width=".62"/>
  <path d="M81.95,97.9c.34-.06.69.01.99.23.55.38.72,1.1.44,1.68-.03.07-.07.14-.12.2-.43.61-1.27.75-1.88.33-.61-.43-.75-1.27-.33-1.88.22-.31.54-.5.89-.55Z" fill="none" stroke="#002140" stroke-linecap="round" stroke-linejoin="round" stroke-width=".62"/>
  <path d="M85.61,114v14.3" fill="none" stroke="#002140" stroke-linecap="round" stroke-linejoin="round" stroke-width=".62"/>
  <path d="M94.65,113.82v14.67" fill="none" stroke="#002140" stroke-linecap="round" stroke-linejoin="round" stroke-width=".62"/>
  <path d="M88.62,117.72v10.69" fill="none" stroke="#002140" stroke-linecap="round" stroke-linejoin="round" stroke-width=".62"/>
  <path d="M88.62,113.89v3.82" fill="none" stroke="#002140" stroke-linecap="round" stroke-linejoin="round" stroke-width=".62"/>
  <path d="M91.64,113.86v14.59" fill="none" stroke="#002140" stroke-linecap="round" stroke-linejoin="round" stroke-width=".62"/>
  <path d="M95.57,131.63c-.21.1-.45.16-.69.16h-9.49c-.23,0-.45-.05-.64-.14-.56-.25-.96-.82-.96-1.47,0-.44.18-.84.47-1.13.29-.29.69-.47,1.13-.47h9.49c.88,0,1.6.72,1.6,1.6,0,.44-.18.84-.47,1.13-.13.13-.27.23-.44.31Z" fill="none" stroke="#002140" stroke-linecap="round" stroke-linejoin="round" stroke-width=".62"/>
  <path d="M97.84,147.7c-.09.02-.18.03-.27.03h-14.88c-.07,0-.14,0-.21-.02-.57-.1-1-.6-1-1.2,0-.34.14-.64.36-.86.13-.13.3-.24.48-.3.12-.04.24-.06.37-.06h14.88c.67,0,1.22.55,1.22,1.21,0,.33-.14.64-.36.86-.16.16-.36.27-.59.33Z" fill="none" stroke="#002140" stroke-linecap="round" stroke-linejoin="round" stroke-width=".62"/>
  <path d="M97.89,161.05c.51.14.9.61.9,1.17,0,.33-.14.64-.36.86-.22.22-.53.36-.86.36h-14.88c-.67,0-1.22-.55-1.22-1.22,0-.34.14-.64.36-.86.15-.16.35-.27.57-.32.09-.02.19-.04.28-.04h14.88c.11,0,.22.01.32.05Z" fill="none" stroke="#002140" stroke-linecap="round" stroke-linejoin="round" stroke-width=".62"/>
  <path d="M107.3,176.93c-.3,1.03-1.25,1.8-2.38,1.8h-29.57c-1.11,0-2.05-.74-2.37-1.74-.07-.23-.11-.48-.11-.74v-.15c0-1.36,1.12-2.48,2.48-2.48h29.6c1.35.01,2.45,1.12,2.45,2.48v.15c0,.24-.03.46-.1.68Z" fill="none" stroke="#002140" stroke-linecap="round" stroke-linejoin="round" stroke-width=".62"/>
  <path d="M84.73,131.68c.97.79,1.32,2.29.78,3.36-.09.19-.21.36-.36.52-.04.04-.09.09-.14.13-.86.74-2.08.85-3.07,1.4-1.05.58-1.79,1.65-2.04,2.83-.08.37-.11.75-.09,1.12.06,1.13.55,2.2,1.32,3.03.3.33.65.63,1.03.87.06.04.13.09.12.16,0,.03-.02.04-.05.05-.04.01-.09,0-.08-.05" fill="none" stroke="#002140" stroke-linecap="round" stroke-linejoin="round" stroke-width=".62"/>
  <path d="M82.55,147.7s-.05,0-.08,0c-.64.05-2.08.73-3.21,2.12-.52.65-.98,1.45-1.26,2.41-.17.58-.27,1.21-.29,1.91-.02.83.11,1.61.33,2.31.31.98.82,1.84,1.4,2.53,1,1.21,2.2,1.94,2.94,2.05.07.01.13.01.19.01" fill="none" stroke="#002140" stroke-linecap="round" stroke-linejoin="round" stroke-width=".62"/>
  <path d="M82.88,163.48v1.36c0,7.26-4.88,8.7-7.54,8.75-.05,0-.1,0-.14,0" fill="none" stroke="#002140" stroke-linecap="round" stroke-linejoin="round" stroke-width=".62"/>
  <path d="M82.88,163.48v-.11" fill="none" stroke="#002140" stroke-linecap="round" stroke-linejoin="round" stroke-width=".62"/>
  <path d="M95.66,131.68s-.02.02-.03.02c-.94.78-1.27,2.24-.77,3.3.12.26.3.49.52.69.86.74,2.08.85,3.07,1.4,1.39.76,2.22,2.38,2.13,3.95-.08,1.58-1.02,3.06-2.36,3.9-.06.04-.13.09-.12.16,0,0,0,.02,0,.02.03.05.14.04.12-.02" fill="none" stroke="#002140" stroke-linecap="round" stroke-linejoin="round" stroke-width=".62"/>
  <path d="M97.84,147.7c.62,0,2.2.71,3.39,2.26.48.63.9,1.39,1.16,2.3.16.57.26,1.2.28,1.88.02.85-.11,1.64-.35,2.35-.3.93-.78,1.74-1.32,2.41-1.06,1.31-2.36,2.08-3.1,2.14-.03,0-.06,0-.09,0" fill="none" stroke="#002140" stroke-linecap="round" stroke-linejoin="round" stroke-width=".62"/>
  <path d="M97.51,163.48v1.36c0,7.16,4.75,8.66,7.43,8.75.08,0,.17,0,.25,0" fill="none" stroke="#002140" stroke-linecap="round" stroke-linejoin="round" stroke-width=".62"/>
  <path d="M97.51,163.48v-.11" fill="none" stroke="#002140" stroke-linecap="round" stroke-linejoin="round" stroke-width=".62"/>
  <path d="M85.61,135.08h8.95" fill="none" stroke="#002140" stroke-linecap="round" stroke-linejoin="round" stroke-width=".62"/>
  <path d="M107.2,176.91h-33.87" fill="none" stroke="#002140" stroke-linecap="round" stroke-linejoin="round" stroke-width=".62"/>
  <path d="M86.53,156.68c1.26,0,2.29-1.02,2.29-2.29s-1.02-2.29-2.29-2.29-2.29,1.02-2.29,2.29,1.02,2.29,2.29,2.29Z" fill="none" stroke="#002140" stroke-linecap="round" stroke-linejoin="round" stroke-width=".62"/>
  <path d="M93.97,156.68c1.26,0,2.29-1.02,2.29-2.29s-1.02-2.29-2.29-2.29-2.29,1.02-2.29,2.29,1.02,2.29,2.29,2.29Z" fill="none" stroke="#002140" stroke-linecap="round" stroke-linejoin="round" stroke-width=".62"/>
  <path d="M82.89,151.7c.82-1.11,2.15-1.84,3.64-1.84s2.83.73,3.66,1.86l.14-.02c.82-1.11,2.15-1.84,3.64-1.84s2.92.77,3.75,1.85l.08-.05c.83-1.09,1.94-1.7,3.42-1.7" fill="none" stroke="#002140" stroke-linecap="round" stroke-linejoin="round" stroke-width=".62"/>
  <path d="M100.97,158.89c-1.33-.13-2.5-.84-3.24-1.87l-.16.11c-.83,1.08-2.13,1.78-3.6,1.78s-2.86-.75-3.69-1.9l-.15.11c-.83,1.09-2.14,1.79-3.61,1.79s-2.85-.74-3.67-1.89" fill="none" stroke="#002140" stroke-linecap="round" stroke-linejoin="round" stroke-width=".62"/>
  <path d="M102.3,156.5c-.27.12-.57.18-.89.18-1.26,0-2.29-1.02-2.29-2.29s1.02-2.29,2.29-2.29c.32,0,.62.06.89.18" fill="none" stroke="#002140" stroke-linecap="round" stroke-linejoin="round" stroke-width=".62"/>
  <path d="M79.33,149.87c1.41.07,2.64.79,3.42,1.87" fill="none" stroke="#002140" stroke-linecap="round" stroke-linejoin="round" stroke-width=".62"/>
  <path d="M82.84,156.92s-.03.04-.05.06c-.71,1.01-1.82,1.72-3.1,1.89" fill="none" stroke="#002140" stroke-linecap="round" stroke-linejoin="round" stroke-width=".62"/>
  <path d="M78.19,152.29c.27-.12.58-.18.9-.18,1.26,0,2.29,1.02,2.29,2.29s-1.02,2.29-2.29,2.29c-.36,0-.69-.08-.99-.23" fill="none" stroke="#002140" stroke-linecap="round" stroke-linejoin="round" stroke-width=".62"/>
  <path d="M86.32,163.53c0,1.76.01,3.52-.28,5.25-.3,1.73-.92,3.44-2.04,4.79" fill="none" stroke="#002140" stroke-linecap="round" stroke-linejoin="round" stroke-width=".62"/>
  <path d="M89.42,163.39s0,.03,0,.05c.16,3.39-.3,6.8-1.34,10.03" fill="none" stroke="#002140" stroke-linecap="round" stroke-linejoin="round" stroke-width=".62"/>
  <path d="M94.34,163.53c0,1.76-.01,3.52.28,5.25.3,1.73.92,3.44,2.04,4.79" fill="none" stroke="#002140" stroke-linecap="round" stroke-linejoin="round" stroke-width=".62"/>
  <path d="M91.24,163.39s0,.03,0,.05c-.16,3.39.3,6.8,1.34,10.03" fill="none" stroke="#002140" stroke-linecap="round" stroke-linejoin="round" stroke-width=".62"/>
  <path d="M85.65,117.86c.05-.4.12-.81.31-1.16.19-.35.53-.62.92-.71.66-.16,1.24.18,1.49.67.16.32.23.69.24,1.06h0c0,.06,0,.11,0,.15,0,.15,0,.3,0,.44" fill="none" stroke="#002140" stroke-linecap="round" stroke-linejoin="round" stroke-width=".62"/>
  <path d="M88.67,117.86c.05-.4.12-.81.31-1.16.19-.35.53-.62.92-.71.66-.16,1.24.18,1.49.67.2.39.25.87.25,1.33,0,.11,0,.21,0,.32" fill="none" stroke="#002140" stroke-linecap="round" stroke-linejoin="round" stroke-width=".62"/>
  <path d="M91.64,117.86c.05-.4.12-.81.31-1.16.2-.35.54-.62.94-.71.67-.16,1.26.18,1.51.67.2.39.25.88.25,1.33,0,.11,0,.22,0,.32" fill="none" stroke="#002140" stroke-linecap="round" stroke-linejoin="round" stroke-width=".62"/>
  <path d="M87.93,70.86l.96.9.98.92" fill="none" stroke="#002140" stroke-linecap="round" stroke-linejoin="round" stroke-width=".62"/>
  <path d="M90.43,70.71l1.03.98,1.15,1.1" fill="none" stroke="#002140" stroke-linecap="round" stroke-linejoin="round" stroke-width=".62"/>
  <path d="M92.65,70.63h-.08l-1.11,1.06-1.07,1.02" fill="none" stroke="#002140" stroke-linecap="round" stroke-linejoin="round" stroke-width=".62"/>
  <path d="M87.83,72.75l1.07-.99,1.09-1.01" fill="none" stroke="#002140" stroke-linecap="round" stroke-linejoin="round" stroke-width=".62"/>
  <path d="M87.81,52.8l2.55-2.55.07-.07" fill="none" stroke="#002140" stroke-linecap="round" stroke-linejoin="round" stroke-width=".62"/>
  <path d="M88.2,53.49l3.03-3.03" fill="none" stroke="#002140" stroke-linecap="round" stroke-linejoin="round" stroke-width=".62"/>
  <path d="M89.18,54l2.9-2.9" fill="none" stroke="#002140" stroke-linecap="round" stroke-linejoin="round" stroke-width=".62"/>
  <path d="M90.13,54.07l2.34-2.34" fill="none" stroke="#002140" stroke-linecap="round" stroke-linejoin="round" stroke-width=".62"/>
  <path d="M92.23,43.86c0,1.13-.91,2.04-2.04,2.04s-2.04-.92-2.04-2.04.91-2.04,2.04-2.04,2.04.92,2.04,2.04Z" fill="none" stroke="#002140" stroke-linecap="round" stroke-linejoin="round" stroke-width=".62"/>
  <path d="M91.26,50.3s0,.05.02.06c.02,0,.05,0,.04-.02-.18-.91.06-1.9.64-2.63.27-.34.61-.62.89-.95.77-.89,1.12-2.13.92-3.28-.2-1.16-.93-2.21-1.95-2.8,0,0-.01,0-.02-.01-.47-.27-1.01-.44-1.54-.38h-.15s-.02,0-.03,0c-.12-.01-.24-.01-.35,0-.42.04-.82.19-1.18.39-.04.02-.07.04-.1.06-.97.59-1.66,1.61-1.85,2.73-.2,1.16.15,2.4.92,3.28.29.33.62.61.89.95.58.73.82,1.72.64,2.63,0,.02,0,.02.01.02.01,0,.04,0,.05-.02.02-.01.02-.03,0-.04" fill="none" stroke="#002140" stroke-linecap="round" stroke-linejoin="round" stroke-width=".62"/>
  <path d="M90.09,40.21v-3.94c0-.11,0-.22.01-.33.05-1.16.25-2.36.94-3.28.27-.36.58-.65,1.02-.77.44-.11,1.01.03,1.27.4.48.69-.16,2.16-.57,2.77-.11.17-.22.34-.32.51-.88,1.44-1.3,2.83-1.39,4.56" fill="none" stroke="#002140" stroke-linecap="round" stroke-linejoin="round" stroke-width=".62"/>
  <path d="M92.36,35.69s.05-.08.08-.11c.4-.57.87-1.04,1.46-1.11.53-.06,1.13.17,1.31.67.14.38.14,1.03-.41,1.5-.78.67-1.09.95-1.75,1.6-.55.55-1,1.25-1.16,2.03-.02.11-.04.22-.05.34" fill="none" stroke="#002140" stroke-linecap="round" stroke-linejoin="round" stroke-width=".62"/>
  <path d="M90.12,40.21v-3.94c0-.11,0-.22-.01-.33-.05-1.16-.25-2.36-.94-3.28-.27-.36-.58-.65-1.02-.77-.44-.11-1.01.03-1.27.4-.48.69.16,2.16.57,2.77.11.17.22.34.32.51.88,1.44,1.29,2.83,1.39,4.56" fill="none" stroke="#002140" stroke-linecap="round" stroke-linejoin="round" stroke-width=".62"/>
  <path d="M87.85,35.69s-.05-.08-.08-.11c-.4-.57-.87-1.04-1.46-1.11-.53-.06-1.13.17-1.31.67-.14.38-.14,1.03.41,1.5.78.67,1.09.95,1.75,1.6.66.66,1.13,1.46,1.21,2.37" fill="none" stroke="#002140" stroke-linecap="round" stroke-linejoin="round" stroke-width=".62"/>
  <path d="M92.99,103.28c.75,0,1.35-.6,1.35-1.35s-.6-1.35-1.35-1.35-1.35.6-1.35,1.35.6,1.35,1.35,1.35Z" fill="#fffaf0" stroke="#002140" stroke-linecap="round" stroke-linejoin="round" stroke-width=".62"/>
  <path d="M90.91,105.45c.75,0,1.35-.6,1.35-1.35s-.6-1.35-1.35-1.35-1.35.6-1.35,1.35.6,1.35,1.35,1.35Z" fill="#fffaf0" stroke="#002140" stroke-linecap="round" stroke-linejoin="round" stroke-width=".62"/>
  <path d="M94.49,101.02c.75,0,1.35-.6,1.35-1.35s-.6-1.35-1.35-1.35-1.35.6-1.35,1.35.6,1.35,1.35,1.35Z" fill="#fffaf0" stroke="#002140" stroke-linecap="round" stroke-linejoin="round" stroke-width=".62"/>
  <path d="M95.87,98.39c.75,0,1.35-.6,1.35-1.35s-.6-1.35-1.35-1.35-1.35.6-1.35,1.35.6,1.35,1.35,1.35Z" fill="#fffaf0" stroke="#002140" stroke-linecap="round" stroke-linejoin="round" stroke-width=".62"/>
  <path d="M96.52,95.76c.75,0,1.35-.6,1.35-1.35s-.6-1.35-1.35-1.35-1.35.6-1.35,1.35.6,1.35,1.35,1.35Z" fill="#fffaf0" stroke="#002140" stroke-linecap="round" stroke-linejoin="round" stroke-width=".62"/>
  <path d="M96.99,92.92c.75,0,1.35-.6,1.35-1.35s-.6-1.35-1.35-1.35-1.35.6-1.35,1.35.6,1.35,1.35,1.35Z" fill="#fffaf0" stroke="#002140" stroke-linecap="round" stroke-linejoin="round" stroke-width=".62"/>
  <path d="M88.51,106.93c.75,0,1.35-.6,1.35-1.35s-.6-1.35-1.35-1.35-1.35.6-1.35,1.35.6,1.35,1.35,1.35Z" fill="#fffaf0" stroke="#002140" stroke-linecap="round" stroke-linejoin="round" stroke-width=".62"/>
  <path d="M85.81,107.22c.75,0,1.35-.6,1.35-1.35s-.6-1.35-1.35-1.35-1.35.6-1.35,1.35.6,1.35,1.35,1.35Z" fill="#fffaf0" stroke="#002140" stroke-linecap="round" stroke-linejoin="round" stroke-width=".62"/>
  <path d="M83.92,105.69c.75,0,1.35-.6,1.35-1.35s-.6-1.35-1.35-1.35-1.35.61-1.35,1.35.6,1.35,1.35,1.35Z" fill="#fffaf0" stroke="#002140" stroke-linecap="round" stroke-linejoin="round" stroke-width=".62"/>
  <path d="M82.75,103.35c.75,0,1.35-.6,1.35-1.35s-.6-1.35-1.35-1.35-1.35.6-1.35,1.35.6,1.35,1.35,1.35Z" fill="#fffaf0" stroke="#002140" stroke-linecap="round" stroke-linejoin="round" stroke-width=".62"/>
  <path d="M27.05,39.36l-2.45,5.75-.27-.11-1.52-.65-.09-.04,2.45-5.75.18.08,1.63.69.07.03Z" fill="#ff7101"/>
  <path d="M24.6,45.11l-2.45,5.75-.07-.03-1.63-.69-.18-.08,2.45-5.75.09.04,1.52.65.27.11Z" fill="#ff7101"/>
  <path d="M22.15,50.86l-2.45,5.75-.27-.11-1.52-.65-.09-.04,2.45-5.75.18.08,1.63.69.07.03Z" fill="#ff7101"/>
  <path d="M19.71,56.61l-2.45,5.75-.07-.03-1.63-.69-.18-.08,2.45-5.75.09.04,1.52.65.27.11Z" fill="#ff7101"/>
  <path d="M17.26,62.36l-2.45,5.75-.27-.11-1.52-.65-.09-.04,2.45-5.75.18.08,1.63.69.07.03Z" fill="#ff7101"/>
  <path d="M14.81,68.11l-2.45,5.75-.07-.03-1.63-.69-.18-.08,2.45-5.75.09.04,1.52.65.27.11Z" fill="#ff7101"/>
  <path d="M12.36,73.87l-2.45,5.75-.27-.11-1.52-.65-.09-.04,2.45-5.75.18.08,1.63.69.07.03Z" fill="#ff7101"/>
  <path d="M9.91,79.62l-2.45,5.75-.07-.03-1.63-.69-.18-.08,2.45-5.75.09.04,1.52.65.27.11Z" fill="#ff7101"/>
  <path d="M7.46,85.37l-2.45,5.75-.27-.11-1.52-.65-.09-.04,2.45-5.75.18.08,1.63.69.07.03Z" fill="#ff7101"/>
  <path d="M25.46,37.88l-.29.68-2.45,5.75-2.45,5.75-2.45,5.75-2.45,5.75-2.45,5.75-2.45,5.75-2.45,5.75-2.45,5.75-2.45,5.75-.52,1.22" fill="none" stroke="#002140" stroke-linecap="round" stroke-linejoin="round" stroke-width=".62"/>
  <path d="M27.29,38.8l-.24.56-2.45,5.75-2.45,5.75-2.45,5.75-2.45,5.75-2.45,5.75-2.45,5.75-2.45,5.75-2.45,5.75-2.45,5.75-.36.85" fill="none" stroke="#002140" stroke-linecap="round" stroke-linejoin="round" stroke-width=".62"/>
  <path d="M3.22,90.36l1.52.65" fill="none" stroke="#002140" stroke-linecap="round" stroke-linejoin="round" stroke-width=".62"/>
  <path d="M5.76,84.64l1.63.69" fill="none" stroke="#002140" stroke-linecap="round" stroke-linejoin="round" stroke-width=".62"/>
  <path d="M8.12,78.85l1.52.65" fill="none" stroke="#002140" stroke-linecap="round" stroke-linejoin="round" stroke-width=".62"/>
  <path d="M10.66,73.14l1.63.69" fill="none" stroke="#002140" stroke-linecap="round" stroke-linejoin="round" stroke-width=".62"/>
  <path d="M13.02,67.35l1.52.65" fill="none" stroke="#002140" stroke-linecap="round" stroke-linejoin="round" stroke-width=".62"/>
  <path d="M15.56,61.64l1.63.69" fill="none" stroke="#002140" stroke-linecap="round" stroke-linejoin="round" stroke-width=".62"/>
  <path d="M17.92,55.85l1.52.65" fill="none" stroke="#002140" stroke-linecap="round" stroke-linejoin="round" stroke-width=".62"/>
  <path d="M20.45,50.14l1.63.69" fill="none" stroke="#002140" stroke-linecap="round" stroke-linejoin="round" stroke-width=".62"/>
  <path d="M22.81,44.35l1.52.65" fill="none" stroke="#002140" stroke-linecap="round" stroke-linejoin="round" stroke-width=".62"/>
  <path d="M25.35,38.64l1.63.69" fill="none" stroke="#002140" stroke-linecap="round" stroke-linejoin="round" stroke-width=".62"/>
  <path d="M27.47,14.37l.03,5.79h-1.85s-.19.01-.19.01l-.04-6.08h-.1c.61-.22,1.4-.13,1.9.27h.24Z" fill="#ff7101"/>
  <path d="M27.87,82.67l.04,6.25h-.29s-1.65.01-1.65.01h-.1l-.04-6.25h.19s1.77-.01,1.77-.01h.08Z" fill="#ff7101"/>
  <path d="M27.83,76.42l.04,6.25h-1.85s-.19.01-.19.01l-.04-6.25h1.75s.29-.01.29-.01Z" fill="#ff7101"/>
  <path d="M27.54,26.42l.04,6.25h-1.85s-.19.01-.19.01l-.04-6.25h1.75s.29-.01.29-.01Z" fill="#ff7101"/>
  <path d="M27.51,20.17l.04,6.25h-.29s-1.65.01-1.65.01h-.1l-.04-6.25h.19s1.77-.01,1.77-.01h.08Z" fill="#ff7101"/>
  <path d="M27.58,32.67l.04,6.25h-.29s-1.65.01-1.65.01h-.1l-.04-6.25h.19s1.77-.01,1.77-.01h.08Z" fill="#ff7101"/>
  <path d="M27.65,45.17l.04,6.25h-.29s-1.65.01-1.65.01h-.1l-.04-6.25h.19s1.77-.01,1.77-.01h.08Z" fill="#ff7101"/>
  <path d="M27.72,57.67l.04,6.25h-.29s-1.65.01-1.65.01h-.1l-.04-6.25h.19s1.77-.01,1.77-.01h.08Z" fill="#ff7101"/>
  <path d="M27.76,63.92l.04,6.25h-1.85s-.19.01-.19.01l-.04-6.25h1.75s.29-.01.29-.01Z" fill="#ff7101"/>
  <path d="M27.61,38.92l.04,6.25h-1.85s-.19.01-.19.01l-.04-6.25h1.75s.29-.01.29-.01Z" fill="#ff7101"/>
  <path d="M27.69,51.42l.04,6.25h-1.85s-.19.01-.19.01l-.04-6.25h1.75s.29-.01.29-.01Z" fill="#ff7101"/>
  <path d="M27.79,70.17l.04,6.25h-.29s-1.65.01-1.65.01h-.1l-.04-6.25h.19s1.77-.01,1.77-.01h.08Z" fill="#ff7101"/>
  <path d="M25.43,14.1l.04,6.08.04,6.25.04,6.25.04,6.25.04,6.25.04,6.25.04,6.25.04,6.25.04,6.25.04,6.25.04,6.25.04,6.25.02,3.95" fill="none" stroke="#002140" stroke-linecap="round" stroke-linejoin="round" stroke-width=".62"/>
  <path d="M27.47,14.37l.03,5.79.04,6.25.04,6.25.04,6.25.04,6.25.04,6.25.04,6.25.04,6.25.04,6.25.04,6.25.04,6.25.04,6.25.02,3.91" fill="none" stroke="#002140" stroke-linecap="round" stroke-linejoin="round" stroke-width=".62"/>
  <path d="M25.96,88.93h1.65" fill="none" stroke="#002140" stroke-linecap="round" stroke-linejoin="round" stroke-width=".62"/>
  <path d="M26.02,82.68h1.77" fill="none" stroke="#002140" stroke-linecap="round" stroke-linejoin="round" stroke-width=".62"/>
  <path d="M25.88,76.43h1.65" fill="none" stroke="#002140" stroke-linecap="round" stroke-linejoin="round" stroke-width=".62"/>
  <path d="M25.95,70.18h1.77" fill="none" stroke="#002140" stroke-linecap="round" stroke-linejoin="round" stroke-width=".62"/>
  <path d="M25.81,63.93h1.65" fill="none" stroke="#002140" stroke-linecap="round" stroke-linejoin="round" stroke-width=".62"/>
  <path d="M25.87,57.68h1.77" fill="none" stroke="#002140" stroke-linecap="round" stroke-linejoin="round" stroke-width=".62"/>
  <path d="M25.74,51.43h1.65" fill="none" stroke="#002140" stroke-linecap="round" stroke-linejoin="round" stroke-width=".62"/>
  <path d="M25.8,45.18h1.77" fill="none" stroke="#002140" stroke-linecap="round" stroke-linejoin="round" stroke-width=".62"/>
  <path d="M25.67,38.93h1.65" fill="none" stroke="#002140" stroke-linecap="round" stroke-linejoin="round" stroke-width=".62"/>
  <path d="M25.73,32.68h1.77" fill="none" stroke="#002140" stroke-linecap="round" stroke-linejoin="round" stroke-width=".62"/>
  <path d="M25.6,26.43h1.65" fill="none" stroke="#002140" stroke-linecap="round" stroke-linejoin="round" stroke-width=".62"/>
  <path d="M25.66,20.18h1.77" fill="none" stroke="#002140" stroke-linecap="round" stroke-linejoin="round" stroke-width=".62"/>
  <path d="M25.24,14.12s.06-.02.09-.03c.61-.2,1.4-.12,1.9.28" fill="none" stroke="#002140" stroke-linecap="round" stroke-linejoin="round" stroke-width=".62"/>
  <path d="M46.93,84.95l2.33,5.8-.27.11-1.54.62-.09.04-2.34-5.8.18-.07,1.64-.66.07-.03Z" fill="#ff7101"/>
  <path d="M46.93,84.95l-.07.03-1.64.66-.18.07-2.33-5.8.09-.04,1.53-.62.27-.11,2.34,5.8Z" fill="#ff7101"/>
  <path d="M42.26,73.36l2.34,5.8-.27.11-1.53.62-.09.04-2.34-5.8.18-.07,1.64-.66.07-.03Z" fill="#ff7101"/>
  <path d="M39.92,67.56l2.33,5.8-.07.03-1.64.66-.18.07-2.34-5.8.09-.04,1.53-.62.27-.11Z" fill="#ff7101"/>
  <path d="M37.59,61.76l2.34,5.8-.27.11-1.53.62-.09.04-2.33-5.8.18-.07,1.64-.66.07-.03Z" fill="#ff7101"/>
  <path d="M35.25,55.96l2.34,5.8-.07.03-1.64.66-.18.07-2.34-5.8.09-.04,1.54-.62.27-.11Z" fill="#ff7101"/>
  <path d="M32.92,50.16l2.33,5.8-.27.11-1.54.62-.09.04-2.34-5.8.18-.07,1.64-.66.07-.03Z" fill="#ff7101"/>
  <path d="M30.58,44.37l2.34,5.8-.07.03-1.64.66-.18.07-2.33-5.8.09-.04,1.53-.62.27-.11Z" fill="#ff7101"/>
  <path d="M28.25,38.57l2.34,5.8-.27.11-1.53.62-.09.04-2.34-5.8.18-.07,1.64-.66.07-.03Z" fill="#ff7101"/>
  <path d="M26.13,38.76l.23.57,2.34,5.8,2.33,5.8,2.34,5.8,2.34,5.8,2.33,5.8,2.34,5.8,2.34,5.8,2.33,5.8,2.34,5.8.31.76" fill="none" stroke="#002140" stroke-linecap="round" stroke-linejoin="round" stroke-width=".62"/>
  <path d="M27.99,37.92l.26.65,2.34,5.8,2.34,5.8,2.33,5.8,2.34,5.8,2.34,5.8,2.33,5.8,2.34,5.8,2.34,5.8,2.33,5.8.4,1" fill="none" stroke="#002140" stroke-linecap="round" stroke-linejoin="round" stroke-width=".62"/>
  <path d="M47.46,91.48l1.54-.62" fill="none" stroke="#002140" stroke-linecap="round" stroke-linejoin="round" stroke-width=".62"/>
  <path d="M45.21,85.64l1.64-.66" fill="none" stroke="#002140" stroke-linecap="round" stroke-linejoin="round" stroke-width=".62"/>
  <path d="M42.79,79.88l1.53-.62" fill="none" stroke="#002140" stroke-linecap="round" stroke-linejoin="round" stroke-width=".62"/>
  <path d="M40.54,74.05l1.64-.66" fill="none" stroke="#002140" stroke-linecap="round" stroke-linejoin="round" stroke-width=".62"/>
  <path d="M38.12,68.28l1.53-.62" fill="none" stroke="#002140" stroke-linecap="round" stroke-linejoin="round" stroke-width=".62"/>
  <path d="M35.88,62.45l1.64-.66" fill="none" stroke="#002140" stroke-linecap="round" stroke-linejoin="round" stroke-width=".62"/>
  <path d="M33.45,56.69l1.54-.62" fill="none" stroke="#002140" stroke-linecap="round" stroke-linejoin="round" stroke-width=".62"/>
  <path d="M31.2,50.85l1.64-.66" fill="none" stroke="#002140" stroke-linecap="round" stroke-linejoin="round" stroke-width=".62"/>
  <path d="M28.78,45.09l1.53-.62" fill="none" stroke="#002140" stroke-linecap="round" stroke-linejoin="round" stroke-width=".62"/>
  <path d="M26.54,39.26l1.64-.66" fill="none" stroke="#002140" stroke-linecap="round" stroke-linejoin="round" stroke-width=".62"/>
  <path d="M26.66,42.75c1.95,0,3.54-1.58,3.54-3.54s-1.58-3.54-3.54-3.54-3.54,1.58-3.54,3.54,1.58,3.54,3.54,3.54Z" fill="#bf3013" stroke="#002140" stroke-linecap="round" stroke-linejoin="round" stroke-width=".62"/>
  <path d="M26.66,41.4c1.21,0,2.19-.98,2.19-2.19s-.98-2.19-2.19-2.19-2.19.98-2.19,2.19.98,2.19,2.19,2.19Z" fill="#002140" stroke="#002140" stroke-linecap="round" stroke-linejoin="round" stroke-width=".62"/>
  <path d="M43.59,91.31l-.11.05h-10l-1.68-3.83v-.11h10.12v.11s1.67,3.78,1.67,3.78Z" fill="#fee45e"/>
  <path d="M28.09,83.4h-1.83v-.02s.24,0,.24,0h11.7v.11s1.69,3.83,1.69,3.83v.11h-.13v-.11h-10l-1.68-3.83v-.08Z" fill="#fee45e"/>
  <path d="M18.81,83.37h7.44v.02s-2.27,0-2.27,0h-3.66v.08l1.68,3.83h17.76v.11H14.54v-.11l1.68-3.83.07-.11h2.52Z" fill="#fed607"/>
  <path d="M34.71,79.57l1.67,3.81h-10.13l-1.67-3.81v-.11h10.12v.11Z" fill="#fee45e"/>
  <path d="M31.81,87.53l1.68,3.83h-7.46l1.68-3.83v-.11h4.11v.11Z" fill="#fed607"/>
  <path d="M28.09,83.48l1.68,3.83h-7.46l1.68-3.83v-.08h4.11v.08Z" fill="#fed607"/>
  <path d="M27.7,87.42v.11l-1.68,3.83h-.18l-1.68-3.83v-.11h3.54Z" fill="#e4bc07"/>
  <path d="M24.59,79.57l1.67,3.81h-7.44l1.67-3.81.07-.11h4.04v.11Z" fill="#fed607"/>
  <path d="M24.16,87.53l1.68,3.83h-7.46l1.68-3.83v-.11h4.11v.11Z" fill="#fed607"/>
  <path d="M23.98,83.4v.08l-1.68,3.83h-.3l-1.68-3.83v-.08h3.66Z" fill="#e4bc07"/>
  <path d="M20.05,87.42v.11l-1.68,3.83h-.3l-1.68-3.83v-.11h3.66Z" fill="#e4bc07"/>
  <path d="M16.39,87.53l1.68,3.83h-7.3l-.14-.06,1.65-3.77.07-.11h4.04v.11Z" fill="#fed607"/>
  <path d="M20.55,79.46h14.15" fill="none" stroke="#002140" stroke-linecap="round" stroke-linejoin="round" stroke-width=".62"/>
  <path d="M18.8,83.4v-.02s1.68-3.81,1.68-3.81" fill="none" stroke="#002140" stroke-linecap="round" stroke-linejoin="round" stroke-width=".62"/>
  <path d="M26.26,83.4v-.02s-1.68-3.81-1.68-3.81" fill="none" stroke="#002140" stroke-linecap="round" stroke-linejoin="round" stroke-width=".62"/>
  <path d="M36.39,83.4v-.02s-1.68-3.81-1.68-3.81" fill="none" stroke="#002140" stroke-linecap="round" stroke-linejoin="round" stroke-width=".62"/>
  <path d="M18.97,83.4h17.29" fill="none" stroke="#002140" stroke-linecap="round" stroke-linejoin="round" stroke-width=".62"/>
  <path d="M26.51,83.37h11.7" fill="none" stroke="#002140" stroke-linecap="round" stroke-linejoin="round" stroke-width=".62"/>
  <path d="M22.31,87.31l1.68-3.83" fill="none" stroke="#002140" stroke-linecap="round" stroke-linejoin="round" stroke-width=".62"/>
  <path d="M29.77,87.31l-1.68-3.83" fill="none" stroke="#002140" stroke-linecap="round" stroke-linejoin="round" stroke-width=".62"/>
  <path d="M39.9,87.31l-1.68-3.83" fill="none" stroke="#002140" stroke-linecap="round" stroke-linejoin="round" stroke-width=".62"/>
  <path d="M27.87,87.31h11.9" fill="none" stroke="#002140" stroke-linecap="round" stroke-linejoin="round" stroke-width=".62"/>
  <path d="M16.29,83.37h10.22" fill="none" stroke="#002140" stroke-linecap="round" stroke-linejoin="round" stroke-width=".62"/>
  <path d="M14.54,87.31l1.68-3.83" fill="none" stroke="#002140" stroke-linecap="round" stroke-linejoin="round" stroke-width=".62"/>
  <path d="M22,87.31l-1.68-3.83" fill="none" stroke="#002140" stroke-linecap="round" stroke-linejoin="round" stroke-width=".62"/>
  <path d="M14.71,87.31h13.16" fill="none" stroke="#002140" stroke-linecap="round" stroke-linejoin="round" stroke-width=".62"/>
  <path d="M26.51,87.42h1.26" fill="none" stroke="#002140" stroke-linecap="round" stroke-linejoin="round" stroke-width=".62"/>
  <path d="M18.37,91.36l1.68-3.83" fill="none" stroke="#002140" stroke-linecap="round" stroke-linejoin="round" stroke-width=".62"/>
  <path d="M25.84,91.36l-1.68-3.83" fill="none" stroke="#002140" stroke-linecap="round" stroke-linejoin="round" stroke-width=".62"/>
  <path d="M12.35,87.42h14.15" fill="none" stroke="#002140" stroke-linecap="round" stroke-linejoin="round" stroke-width=".62"/>
  <path d="M10.6,91.36l.03-.06,1.65-3.77" fill="none" stroke="#002140" stroke-linecap="round" stroke-linejoin="round" stroke-width=".62"/>
  <path d="M18.07,91.36l-1.68-3.83" fill="none" stroke="#002140" stroke-linecap="round" stroke-linejoin="round" stroke-width=".62"/>
  <path d="M10.77,91.36h15.42" fill="none" stroke="#002140" stroke-linecap="round" stroke-linejoin="round" stroke-width=".62"/>
  <path d="M27.77,87.42h14.15" fill="none" stroke="#002140" stroke-linecap="round" stroke-linejoin="round" stroke-width=".62"/>
  <path d="M26.02,91.36l1.68-3.83" fill="none" stroke="#002140" stroke-linecap="round" stroke-linejoin="round" stroke-width=".62"/>
  <path d="M33.48,91.36l-1.68-3.83" fill="none" stroke="#002140" stroke-linecap="round" stroke-linejoin="round" stroke-width=".62"/>
  <path d="M43.61,91.36l-.02-.05-1.66-3.78" fill="none" stroke="#002140" stroke-linecap="round" stroke-linejoin="round" stroke-width=".62"/>
  <path d="M26.19,91.36h17.29" fill="none" stroke="#002140" stroke-linecap="round" stroke-linejoin="round" stroke-width=".62"/>
  <path d="M27.7,102.29c-.06,2.26,1.02,4.13,2.89,5.4-4.21,3.21-8.26,0-8.26,0,1.86-1.13,2.97-3.01,3.04-5.18" fill="#bf3013"/>
  <path d="M27.7,102.29c-.06,2.26,1.02,4.13,2.89,5.4-4.21,3.21-8.26,0-8.26,0,1.86-1.13,2.97-3.01,3.04-5.18" fill="none" stroke="#002140" stroke-linecap="round" stroke-linejoin="round" stroke-width=".62"/>
  <path d="M26.1,103.02c-.15,1.96-.35,4.03-1.58,5.64l1.58-5.64Z" fill="#bf3013"/>
  <path d="M26.1,103.02c-.15,1.96-.35,4.03-1.58,5.64" fill="none" stroke="#002140" stroke-linecap="round" stroke-linejoin="round" stroke-width=".62"/>
  <path d="M26.91,103.02c.15,1.96.35,4.03,1.58,5.64l-1.58-5.64Z" fill="#bf3013"/>
  <path d="M26.91,103.02c.15,1.96.35,4.03,1.58,5.64" fill="none" stroke="#002140" stroke-linecap="round" stroke-linejoin="round" stroke-width=".62"/>
  <path d="M26.47,102.66c1.21,0,2.19-.98,2.19-2.19s-.98-2.19-2.19-2.19-2.19.98-2.19,2.19.98,2.19,2.19,2.19Z" fill="#002140" stroke="#002140" stroke-linecap="round" stroke-linejoin="round" stroke-width=".62"/>
  <path d="M50.42,93.25s-6.64,7.37-23.93,7.37h-.05c-17.29,0-23.93-7.37-23.93-7.37" fill="#f25730"/>
  <path d="M50.42,93.25s-6.64,7.37-23.93,7.37h-.05c-17.29,0-23.93-7.37-23.93-7.37" fill="none" stroke="#002140" stroke-linecap="round" stroke-linejoin="round" stroke-width=".62"/>
  <path d="M50.55,90.26H2.39c-.81,0-1.46.65-1.46,1.46s.65,1.46,1.46,1.46h48.16c.81,0,1.46-.65,1.46-1.46s-.65-1.46-1.46-1.46Z" fill="#e96df2" stroke="#002140" stroke-linecap="round" stroke-linejoin="round" stroke-width=".62"/>
  <path d="M153.76,144.65l.04,6.25h-.29s-1.65,0-1.65,0h-.1l-.04-6.25h.19s1.77-.01,1.77-.01h.08Z" fill="#ff7101"/>
  <path d="M153.73,138.4l.04,6.25h-1.85s-.19.01-.19.01l-.04-6.25h1.75s.29-.01.29-.01Z" fill="#ff7101"/>
  <path d="M153.69,132.15l.04,6.25h-.29s-1.65,0-1.65,0h-.1l-.04-6.25h.19s1.77-.01,1.77-.01h.08Z" fill="#ff7101"/>
  <path d="M153.66,125.9l.03,6.25h-1.85s-.19.01-.19.01l-.04-6.25h1.75s.29,0,.29,0Z" fill="#ff7101"/>
  <path d="M153.62,119.65l.04,6.25h-.29s-1.65,0-1.65,0h-.1l-.04-6.25h.19s1.77-.01,1.77-.01h.08Z" fill="#ff7101"/>
  <path d="M153.58,113.39l.04,6.25h-1.85s-.19.01-.19.01l-.04-6.25h1.75s.29-.01.29-.01Z" fill="#ff7101"/>
  <path d="M153.55,107.14l.03,6.25h-.29s-1.65.01-1.65.01h-.1l-.04-6.25h.19s1.77-.01,1.77-.01h.08Z" fill="#ff7101"/>
  <path d="M153.51,100.89l.04,6.25h-1.85s-.19.01-.19.01l-.04-6.25h1.75s.29-.01.29-.01Z" fill="#ff7101"/>
  <path d="M153.48,94.64l.04,6.25h-.29s-1.65.01-1.65.01h-.1l-.03-6.25h.19s1.77-.01,1.77-.01h.08Z" fill="#ff7101"/>
  <path d="M153.44,88.39l.04,6.25h-1.85s-.19.01-.19.01l-.04-6.25h1.75s.29-.01.29-.01Z" fill="#ff7101"/>
  <path d="M153.4,82.14l.04,6.25h-.29s-1.65.01-1.65.01h-.1l-.04-6.25h.2s1.77-.01,1.77-.01h.08Z" fill="#ff7101"/>
  <path d="M153.37,76.35l.03,5.79h-1.85s-.19.01-.19.01l-.04-6.08h-.1c.61-.22,1.4-.13,1.9.27h.24Z" fill="#ff7101"/>
  <path d="M151.33,76.08l.03,6.08.04,6.25.04,6.25.03,6.25.04,6.25.04,6.25.04,6.25.04,6.25.04,6.25.04,6.25.04,6.25.04,6.25.02,3.95" fill="none" stroke="#002140" stroke-linecap="round" stroke-linejoin="round" stroke-width=".62"/>
  <path d="M153.37,76.35l.03,5.79.03,6.25.04,6.25.04,6.25.04,6.25.03,6.25.04,6.25.04,6.25.03,6.25.04,6.25.04,6.25.04,6.25.02,3.91" fill="none" stroke="#002140" stroke-linecap="round" stroke-linejoin="round" stroke-width=".62"/>
  <path d="M151.85,150.91h1.65" fill="none" stroke="#002140" stroke-linecap="round" stroke-linejoin="round" stroke-width=".62"/>
  <path d="M151.91,144.66h1.77" fill="none" stroke="#002140" stroke-linecap="round" stroke-linejoin="round" stroke-width=".62"/>
  <path d="M151.78,138.41h1.65" fill="none" stroke="#002140" stroke-linecap="round" stroke-linejoin="round" stroke-width=".62"/>
  <path d="M151.84,132.16h1.77" fill="none" stroke="#002140" stroke-linecap="round" stroke-linejoin="round" stroke-width=".62"/>
  <path d="M151.71,125.91h1.65" fill="none" stroke="#002140" stroke-linecap="round" stroke-linejoin="round" stroke-width=".62"/>
  <path d="M151.77,119.66h1.77" fill="none" stroke="#002140" stroke-linecap="round" stroke-linejoin="round" stroke-width=".62"/>
  <path d="M151.64,113.41h1.65" fill="none" stroke="#002140" stroke-linecap="round" stroke-linejoin="round" stroke-width=".62"/>
  <path d="M151.7,107.15h1.77" fill="none" stroke="#002140" stroke-linecap="round" stroke-linejoin="round" stroke-width=".62"/>
  <path d="M151.57,100.9h1.65" fill="none" stroke="#002140" stroke-linecap="round" stroke-linejoin="round" stroke-width=".62"/>
  <path d="M151.63,94.65h1.77" fill="none" stroke="#002140" stroke-linecap="round" stroke-linejoin="round" stroke-width=".62"/>
  <path d="M151.49,88.4h1.65" fill="none" stroke="#002140" stroke-linecap="round" stroke-linejoin="round" stroke-width=".62"/>
  <path d="M151.56,82.15h1.77" fill="none" stroke="#002140" stroke-linecap="round" stroke-linejoin="round" stroke-width=".62"/>
  <path d="M151.14,76.1s.06-.02.09-.03c.61-.21,1.4-.12,1.9.28" fill="none" stroke="#002140" stroke-linecap="round" stroke-linejoin="round" stroke-width=".62"/>
  <path d="M153.39,164.27c-.06,2.26,1.02,4.13,2.89,5.4-4.21,3.21-8.26,0-8.26,0,1.86-1.13,2.97-3.01,3.04-5.18" fill="#bf3013"/>
  <path d="M153.39,164.27c-.06,2.26,1.02,4.13,2.89,5.4-4.21,3.21-8.26,0-8.26,0,1.86-1.13,2.97-3.01,3.04-5.18" fill="none" stroke="#002140" stroke-linecap="round" stroke-linejoin="round" stroke-width=".62"/>
  <path d="M151.79,165c-.15,1.96-.35,4.03-1.58,5.64l1.58-5.64Z" fill="#bf3013"/>
  <path d="M151.79,165c-.15,1.96-.35,4.03-1.58,5.64" fill="none" stroke="#002140" stroke-linecap="round" stroke-linejoin="round" stroke-width=".62"/>
  <path d="M152.6,165c.15,1.96.35,4.03,1.58,5.64l-1.58-5.64Z" fill="#bf3013"/>
  <path d="M152.6,165c.15,1.96.35,4.03,1.58,5.64" fill="none" stroke="#002140" stroke-linecap="round" stroke-linejoin="round" stroke-width=".62"/>
  <path d="M152.16,164.64c1.21,0,2.19-.98,2.19-2.19s-.98-2.19-2.19-2.19-2.19.98-2.19,2.19.98,2.19,2.19,2.19Z" fill="#002140" stroke="#002140" stroke-linecap="round" stroke-linejoin="round" stroke-width=".62"/>
  <path d="M176.56,137.49c-.01.85-.07,1.68-.16,2.5h-.14c-.97.17-1.96.22-2.95.12-4.87-.48-9.04-4.29-13.93-4.4-5.27-.12-9.91,4.06-15.18,4.02-2.56-.02-4.99-1.05-7.3-2.16-2.3-1.12-4.6-2.35-7.11-2.84-.63-.12-1.27-.19-1.92-.2l-.15-.02c.33-3.11,1.25-6.04,2.64-8.68,2.31.55,4.44,1.69,6.59,2.72,2.32,1.11,4.77,2.14,7.34,2.16,5.3.04,9.98-4.14,15.28-4.02,4.93.11,9.12,3.92,14.02,4.4.69.07,1.38.07,2.07,0l.13-.04c.53,2.05.8,4.21.77,6.43h0Z" fill="#0185ff"/>
  <path d="M176.26,139.98h.14c-.34,2.98-1.21,5.78-2.51,8.32l-.27-.14c-4.93-.48-9.15-4.28-14.11-4.4-5.33-.13-10.04,4.06-15.37,4.01-2.59-.02-5.05-1.05-7.39-2.17-2.33-1.11-4.66-2.35-7.2-2.84-.36-.07-.72-.12-1.09-.16l-.29.06c-.43-1.87-.64-3.82-.62-5.82,0-.79.06-1.58.14-2.35l.15.02c.65,0,1.29.07,1.92.2,2.51.49,4.8,1.73,7.11,2.84,2.3,1.11,4.74,2.14,7.3,2.16,5.27.05,9.92-4.14,15.18-4.02,4.89.11,9.06,3.92,13.93,4.4.98.1,1.98.05,2.94-.13h0Z" fill="#5ab0ff"/>
  <path d="M130.36,125.82h-.02c.53-1.01,1.12-1.97,1.78-2.88.93-1.3,1.99-2.51,3.16-3.59l.03.03c.77.37,1.54.76,2.31,1.13,2.28,1.11,4.7,2.14,7.23,2.16,5.22.05,9.83-4.14,15.05-4.02,4.18.1,7.83,2.95,11.86,4.03l.04-.03c1.84,2.49,3.21,5.33,4,8.41l-.13.04c-.69.07-1.38.07-2.07,0-4.9-.48-9.1-4.28-14.02-4.4-5.3-.12-9.98,4.06-15.28,4.02-2.57-.02-5.02-1.05-7.34-2.16-2.15-1.03-4.28-2.17-6.59-2.72h0Z" fill="#5ab0ff"/>
  <path d="M173.63,148.16l.27.14c-1.46,2.85-3.45,5.38-5.86,7.45l-.16-.19c-2.84-1.23-5.62-2.71-8.68-2.79-5.33-.13-10.04,4.06-15.37,4.01-2.59-.02-5.05-1.05-7.39-2.16-.82-.39-1.63-.79-2.45-1.18l-.13.11c-2.74-3.04-4.72-6.77-5.67-10.89l.29-.06c.37.04.73.09,1.09.16,2.54.49,4.86,1.73,7.2,2.84,2.33,1.11,4.8,2.14,7.38,2.17,5.34.05,10.04-4.14,15.37-4.01,4.95.12,9.17,3.92,14.11,4.4h0Z" fill="#0185ff"/>
  <path d="M171.79,122.65l-.04.03c-4.03-1.08-7.67-3.93-11.86-4.03-5.22-.12-9.83,4.06-15.05,4.02-2.53-.02-4.95-1.05-7.23-2.16-.77-.38-1.54-.76-2.31-1.13l-.03-.03c4.45-4.18,10.47-6.7,17.06-6.62.48,0,.96.03,1.43.06l.9.02c7.03.74,13.16,4.45,17.13,9.83h0Z" fill="#0185ff"/>
  <path d="M167.88,155.56l.16.19c-4.37,3.76-10.07,6-16.28,5.92-7.11-.09-13.48-3.21-17.89-8.1l.13-.11c.82.38,1.64.79,2.45,1.18,2.33,1.11,4.8,2.14,7.38,2.16,5.33.05,10.04-4.14,15.37-4.01,3.06.07,5.84,1.55,8.68,2.79Z" fill="#5ab0ff"/>
  <path d="M132.12,122.94c.93-1.3,1.99-2.51,3.16-3.59,4.45-4.18,10.47-6.7,17.06-6.62.48,0,.96.03,1.43.06l.9.02c7.03.74,13.16,4.45,17.13,9.83,1.84,2.49,3.21,5.33,4,8.41.53,2.05.8,4.21.77,6.43-.01.85-.07,1.68-.16,2.5-.34,2.97-1.21,5.77-2.51,8.31-1.46,2.85-3.45,5.38-5.86,7.45-4.37,3.76-10.07,6-16.28,5.92-7.11-.09-13.48-3.21-17.89-8.1-2.74-3.04-4.72-6.77-5.67-10.89-.43-1.87-.64-3.82-.62-5.82.01-.79.06-1.58.14-2.35.33-3.11,1.25-6.04,2.64-8.68.73-1.4,1.6-2.72,2.58-3.94" fill="none" stroke="#002140" stroke-linecap="round" stroke-linejoin="round" stroke-width=".62"/>
  <path d="M127.66,134.63c.33-3.16,1.26-6.13,2.68-8.82.53-1,1.12-1.96,1.78-2.88" fill="none" stroke="#002140" stroke-linecap="round" stroke-linejoin="round" stroke-width=".62"/>
  <path d="M171.45,133.93h.19s2.72.03,2.72.03c.48,0,.86.4.86.88h0c0,.47.39.85.86.85h.29s.16,0,.16,0c.04.6.05,1.2.04,1.8-.05,3.81-.96,7.4-2.55,10.59l-.06-.03-4.64-.06c-.48,0-.87-.4-.86-.88v-.08s.1-8.44.1-8.44c0-.42.31-.77.71-.85h.35s.04,0,.04,0c.48,0,.87-.38.88-.86v-.29h.01l.02-1.81c0-.48.4-.86.88-.86h0Z" fill="#03d47c"/>
  <path d="M171.27,126.45h-.01v-.26c.01-.48.4-.87.88-.86h1.19s.15-.07.15-.07c.72,1.3,1.33,2.66,1.81,4.09l-.23.08-1.5-.02c-.42,0-.79.3-.86.7,0,.05-.02.1-.02.15v.29c-.08.4-.44.71-.87.71h-.1s-2.07-.02-2.07-.02c-.48,0-.87-.4-.86-.88l.02-1.94h-.01v-.28c0-.48.41-.86.88-.86h.71v.02c.48,0,.87-.38.88-.86h0Z" fill="#03d47c"/>
  <path d="M167.88,122.47h-.02c-.47,0-.85-.38-.86-.85h0v-.29c.01-.48.41-.87.89-.86h.39c.4-.07.7-.42.71-.84v-.03l.07-.07c.74.71,1.43,1.47,2.08,2.27l-.02.02-.02,1.71c0,.48-.4.87-.88.86h-.33c-.48-.01-.87-.41-.86-.89v-.1s0-.04,0-.04c0-.48-.38-.87-.86-.88h-.28Z" fill="#03d47c"/>
  <path d="M149.41,120.61h.01l-.02,1.44c0,.48.38.88.86.88h.14l.11.02,1.44.02c.48,0,.88-.38.88-.86v-.14h-.01v-.08c0-.48.4-.87.88-.86l1.27.02h1.17c.48.02.87.42.86.89v.91s-.03.18-.03.18l-.04,2.74c0,.48-.4.87-.88.86h-.91s-.04,0-.04,0l-1.84-.02c-.48,0-.87.38-.88.86l-.08,6.56v.99c-.02.48-.42.87-.89.86h-.27s-.21,0-.21,0c-.48,0-.87-.41-.86-.89v-.99s0,0,0,0v-.72c.01-.48-.37-.87-.85-.88l-1.71-.02h0s-2.29-.02-2.29-.02c-.48,0-.88.38-.88.86v.78s0,.13,0,.13v.35c-.01.48.37.87.85.88l1.52.02v-.02h.96c.48.02.87.41.87.9l-.04,2.74v.07s0,.04,0,.04c0,.48.38.87.86.88l9.81.13h.14s.29.01.29.01c.48,0,.87.4.86.88l-.02,1.65v.1c0,.48.38.87.86.88l1.8.02h.45c.48,0,.87.4.86.88l-.07,5.25v.42c-.01.48-.4.87-.89.86h-.2s-1.73-.02-1.73-.02c-.48,0-.88.38-.88.86l-.07,5.39h-.01v.29c-.01.48-.41.87-.88.86l-5.49-.07c-.48,0-.87.38-.88.86l-.03,2.19v.22c-.49.02-.99.03-1.5.03-.54,0-1.09-.03-1.62-.07v-.08s.06-4.57.06-4.57c0-.48.4-.87.88-.86h.15c.48,0,.88-.38.88-.86v-.29h0l.04-2.81c0-.48-.38-.87-.86-.88h-.29v-.02l-2.84-.04c-.48,0-.86-.4-.86-.88l.07-5.4v-.1s.01-1.39.01-1.39c0-.48.4-.87.88-.86v-.02h-.95c-.48-.02-.87-.41-.86-.89l.03-1.86h-.01v-1.02c.02-.48-.37-.87-.85-.88l-1.54-.02h-.49s-1.54-.03-1.54-.03c-.48,0-.87-.4-.86-.88v-.18l-.05-.04-1.34-.02c-.48,0-.87-.4-.86-.88v-1.06s.02-.7.02-.7v-.95c.02-.48-.37-.88-.85-.88h-.89v-.03l-1.77-.02c-.48,0-.86-.4-.86-.88v-.69s0-.09,0-.09l.02-1.76c0-.48-.38-.88-.86-.88h-.78s-.38-.01-.38-.01c-.48,0-.87-.4-.86-.88l.04-3.5-.06-.04c.38-.55.77-1.09,1.18-1.61h0c-.3-1.41.8-1.93,1.6-1.74l.03-.12c-.13-1.14.62-1.63,1.32-1.62h.55c.71-.64,1.62-1.35,2.37-1.83l.08-.13c.15-1.47,1.41-1.6,2.1-1.15v-.02c.25-1.39,1.41-1.5,2.09-1.08h.14c.45-1.42,1.7-1.3,2.29-.72l.1.08c1.14-.35,2.64-.62,3.88-.75l.14-.03c.81-1.23,1.98-.78,2.39-.05l.09-.05c.89-1.18,2.03-.65,2.39.1l.17.04c.53.06,1.05.13,1.56.22l-.16.94s-.06,0-.09,0h-.29s0,0,0,0l-2.38-.03c-.48,0-.88.38-.88.86v.1h0c0,.45.34.82.77.87h.76c.48,0,.87.4.86.88l-.02,1.85v.02s0,.14,0,.14c0,.48-.4.87-.88.86h-.84s-.08-.01-.08-.01c-.48,0-.87-.4-.86-.88v-.14h.02v-.48c.01-.42-.28-.78-.68-.86h-.51s-.65-.02-.65-.02c-.48,0-.88.38-.88.86l-.03,2.63h0Z" fill="#03d47c"/>
  <path d="M157.86,118.14h-.21c-.48,0-.87-.4-.86-.89l.03-2.24.02-.13v-.04c0-.45-.34-.82-.77-.87l.15-.94c1.86.32,3.65.84,5.33,1.55l-.02.05v.56c-.01.48-.41.87-.89.86h-.41c-.4.07-.7.42-.71.84v.13h0v.29c0,.48-.41.87-.88.86h-.79v-.03h0Z" fill="#03d47c"/>
  <path d="M137.72,153.33h.41l1.55.02c.48,0,.87.4.86.88l-.06,4.45-.04.06c-4.46-2.41-8.08-6.15-10.33-10.7h.24l5.69.07c.48,0,.87.4.86.88v.18s-.04,3.27-.04,3.27c0,.48.38.87.86.88h0Z" fill="#03d47c"/>
  <path d="M145.6,113.56c1.14-.35,2.64-.62,3.88-.75" fill="none" stroke="#002140" stroke-linecap="round" stroke-linejoin="round" stroke-width=".62"/>
  <path d="M136.44,118.4c.71-.63,1.62-1.34,2.37-1.82" fill="none" stroke="#002140" stroke-linecap="round" stroke-linejoin="round" stroke-width=".62"/>
  <path d="M133.67,127.92h.11c.48,0,.87.4.86.88l-.02,1.76" fill="none" stroke="#002140" stroke-linecap="round" stroke-linejoin="round" stroke-width=".62"/>
  <path d="M141.15,136.76l-1.34-.02c-.48,0-.87-.4-.86-.88v-1.06" fill="none" stroke="#002140" stroke-linecap="round" stroke-linejoin="round" stroke-width=".62"/>
  <path d="M137.24,132.26h.89c.48.02.87.42.86.89v.95s-.02.7-.02.7" fill="none" stroke="#002140" stroke-linecap="round" stroke-linejoin="round" stroke-width=".62"/>
  <path d="M133.67,127.92h-.67s-.38-.01-.38-.01c-.48,0-.87-.4-.86-.88l.04-3.5" fill="none" stroke="#002140" stroke-linecap="round" stroke-linejoin="round" stroke-width=".62"/>
  <path d="M144.33,133.99v-.78c.02-.48.41-.87.89-.86l2.29.03h.46" fill="none" stroke="#002140" stroke-linecap="round" stroke-linejoin="round" stroke-width=".62"/>
  <path d="M134.62,130.57v.78c-.02.48.37.88.85.88l1.78.02h.08" fill="none" stroke="#002140" stroke-linecap="round" stroke-linejoin="round" stroke-width=".62"/>
  <path d="M143.61,137.88l-1.54-.02c-.48,0-.87-.4-.86-.88v-.18" fill="none" stroke="#002140" stroke-linecap="round" stroke-linejoin="round" stroke-width=".62"/>
  <path d="M143.61,137.88h.49s1.54.03,1.54.03c.48,0,.87.4.86.88v1.02s-.02.67-.02.67" fill="none" stroke="#002140" stroke-linecap="round" stroke-linejoin="round" stroke-width=".62"/>
  <path d="M149.36,142.58h-1.08s-.95-.03-.95-.03c-.48,0-.87-.4-.86-.88l.03-1.86" fill="none" stroke="#002140" stroke-linecap="round" stroke-linejoin="round" stroke-width=".62"/>
  <path d="M147.21,135.39h-.51s-1.52-.02-1.52-.02c-.48,0-.87-.4-.86-.88v-.35s0-.13,0-.13" fill="none" stroke="#002140" stroke-linecap="round" stroke-linejoin="round" stroke-width=".62"/>
  <path d="M146.7,135.36h.96c.48.02.87.41.87.9l-.04,2.74" fill="none" stroke="#002140" stroke-linecap="round" stroke-linejoin="round" stroke-width=".62"/>
  <path d="M147.51,132.38l1.71.02c.48,0,.87.4.86.88v.72s-.02.57-.02.57" fill="none" stroke="#002140" stroke-linecap="round" stroke-linejoin="round" stroke-width=".62"/>
  <path d="M151.14,135.87h-.21c-.48,0-.87-.41-.86-.89v-.99" fill="none" stroke="#002140" stroke-linecap="round" stroke-linejoin="round" stroke-width=".62"/>
  <path d="M151.2,135.87h.21c.48,0,.88-.38.88-.86v-.82" fill="none" stroke="#002140" stroke-linecap="round" stroke-linejoin="round" stroke-width=".62"/>
  <path d="M152.3,134.2v-.17l.09-6.56c0-.48.4-.87.88-.86l1.84.02" fill="none" stroke="#002140" stroke-linecap="round" stroke-linejoin="round" stroke-width=".62"/>
  <path d="M155.15,126.62h.91c.48.02.87-.37.88-.85l.04-2.74" fill="none" stroke="#002140" stroke-linecap="round" stroke-linejoin="round" stroke-width=".62"/>
  <path d="M157,122.85v-.91c.02-.48-.37-.88-.85-.88h-1" fill="none" stroke="#002140" stroke-linecap="round" stroke-linejoin="round" stroke-width=".62"/>
  <path d="M152.82,122.02v-.14c0-.48.4-.87.88-.86l1.27.02h.17" fill="none" stroke="#002140" stroke-linecap="round" stroke-linejoin="round" stroke-width=".62"/>
  <path d="M152.84,121.97v.14c0,.48-.4.87-.88.86l-1.44-.02" fill="none" stroke="#002140" stroke-linecap="round" stroke-linejoin="round" stroke-width=".62"/>
  <path d="M150.4,122.93h-.14c-.48,0-.87-.4-.86-.88l.02-1.44" fill="none" stroke="#002140" stroke-linecap="round" stroke-linejoin="round" stroke-width=".62"/>
  <path d="M149.41,120.64v-.03l.04-2.63c0-.48.4-.87.88-.86h.65" fill="none" stroke="#002140" stroke-linecap="round" stroke-linejoin="round" stroke-width=".62"/>
  <path d="M151.18,117.11h.14c.06,0,.12,0,.17.02.39.09.69.44.68.86v.48s0,.09,0,.09" fill="none" stroke="#002140" stroke-linecap="round" stroke-linejoin="round" stroke-width=".62"/>
  <path d="M152.15,118.48v.14c0,.48.38.88.86.88h.28" fill="none" stroke="#002140" stroke-linecap="round" stroke-linejoin="round" stroke-width=".62"/>
  <path d="M154.82,118.51v.14c0,.48-.4.87-.88.86h-.84" fill="none" stroke="#002140" stroke-linecap="round" stroke-linejoin="round" stroke-width=".62"/>
  <path d="M154.81,118.5l.02-1.85c0-.48-.38-.88-.86-.88h-.29" fill="none" stroke="#002140" stroke-linecap="round" stroke-linejoin="round" stroke-width=".62"/>
  <path d="M152.44,114.85v.04c0,.45.33.82.77.87.03,0,.06,0,.09,0h.28" fill="none" stroke="#002140" stroke-linecap="round" stroke-linejoin="round" stroke-width=".62"/>
  <path d="M155.8,113.97h-.11l-2.39-.03c-.48,0-.88.38-.88.86v.29" fill="none" stroke="#002140" stroke-linecap="round" stroke-linejoin="round" stroke-width=".62"/>
  <path d="M156.84,114.88v-.04c0-.45-.34-.82-.77-.87-.03,0-.06,0-.09,0h-.29" fill="none" stroke="#002140" stroke-linecap="round" stroke-linejoin="round" stroke-width=".62"/>
  <path d="M156.82,115.01l-.03,2.24c0,.48.38.88.86.88h.29" fill="none" stroke="#002140" stroke-linecap="round" stroke-linejoin="round" stroke-width=".62"/>
  <path d="M157.86,118.16h.79c.48.02.88-.37.88-.85v-.28" fill="none" stroke="#002140" stroke-linecap="round" stroke-linejoin="round" stroke-width=".62"/>
  <path d="M160.45,116.04h-.04c-.06,0-.12,0-.18.01-.4.08-.7.43-.71.85v.28" fill="none" stroke="#002140" stroke-linecap="round" stroke-linejoin="round" stroke-width=".62"/>
  <path d="M160.61,116.06h.04c.48,0,.88-.38.88-.86v-.56" fill="none" stroke="#002140" stroke-linecap="round" stroke-linejoin="round" stroke-width=".62"/>
  <path d="M169.03,123.46v.04c0,.48.38.88.86.88h.29" fill="none" stroke="#002140" stroke-linecap="round" stroke-linejoin="round" stroke-width=".62"/>
  <path d="M170.18,124.39h.04c.48,0,.87-.38.88-.86l.02-1.71" fill="none" stroke="#002140" stroke-linecap="round" stroke-linejoin="round" stroke-width=".62"/>
  <path d="M169.02,123.4v-.04c0-.48-.38-.88-.86-.88h-.28" fill="none" stroke="#002140" stroke-linecap="round" stroke-linejoin="round" stroke-width=".62"/>
  <path d="M167,121.55v.07c0,.46.39.84.86.85h.29" fill="none" stroke="#002140" stroke-linecap="round" stroke-linejoin="round" stroke-width=".62"/>
  <path d="M167.93,120.48h-.04c-.48,0-.88.38-.88.86v.29" fill="none" stroke="#002140" stroke-linecap="round" stroke-linejoin="round" stroke-width=".62"/>
  <path d="M168.07,120.5h.04c.06,0,.12,0,.18-.01.4-.08.7-.43.71-.84v-.03" fill="none" stroke="#002140" stroke-linecap="round" stroke-linejoin="round" stroke-width=".62"/>
  <path d="M173.33,125.34h-1.19c-.48-.02-.88.37-.88.84v.27s0,.02,0,.02" fill="none" stroke="#002140" stroke-linecap="round" stroke-linejoin="round" stroke-width=".62"/>
  <path d="M170.35,127.31h.04c.48,0,.88-.38.88-.86v-.28" fill="none" stroke="#002140" stroke-linecap="round" stroke-linejoin="round" stroke-width=".62"/>
  <path d="M170.4,127.29h-.72c-.48-.01-.87.37-.88.85v.28s0,0,0,0" fill="none" stroke="#002140" stroke-linecap="round" stroke-linejoin="round" stroke-width=".62"/>
  <path d="M168.81,128.42l-.02,1.94c0,.48.38.88.86.88l2.07.03" fill="none" stroke="#002140" stroke-linecap="round" stroke-linejoin="round" stroke-width=".62"/>
  <path d="M171.77,131.25h.04c.43,0,.79-.3.86-.7.01-.05.02-.1.02-.15v-.29" fill="none" stroke="#002140" stroke-linecap="round" stroke-linejoin="round" stroke-width=".62"/>
  <path d="M175.06,129.43l-1.5-.02c-.42,0-.79.3-.86.7-.01.05-.02.1-.02.15v.29" fill="none" stroke="#002140" stroke-linecap="round" stroke-linejoin="round" stroke-width=".62"/>
  <path d="M175.22,134.77v.07c0,.47.39.85.86.85h.29" fill="none" stroke="#002140" stroke-linecap="round" stroke-linejoin="round" stroke-width=".62"/>
  <path d="M175.21,134.88v-.04c0-.48-.38-.87-.86-.88l-2.72-.04" fill="none" stroke="#002140" stroke-linecap="round" stroke-linejoin="round" stroke-width=".62"/>
  <path d="M171.49,133.93h-.04c-.48,0-.88.38-.88.86l-.02,1.81v.1" fill="none" stroke="#002140" stroke-linecap="round" stroke-linejoin="round" stroke-width=".62"/>
  <path d="M169.61,137.74h.04c.48,0,.88-.38.88-.86v-.29" fill="none" stroke="#002140" stroke-linecap="round" stroke-linejoin="round" stroke-width=".62"/>
  <path d="M169.47,137.72h-.04c-.06,0-.12,0-.18.01-.4.08-.7.43-.71.85l-.11,8.44" fill="none" stroke="#002140" stroke-linecap="round" stroke-linejoin="round" stroke-width=".62"/>
  <path d="M168.46,147.07v.04c0,.48.38.88.86.88l4.64.06" fill="none" stroke="#002140" stroke-linecap="round" stroke-linejoin="round" stroke-width=".62"/>
  <path d="M148.48,139.07v.04c0,.48.38.88.86.88l9.81.13" fill="none" stroke="#002140" stroke-linecap="round" stroke-linejoin="round" stroke-width=".62"/>
  <path d="M160.41,142.66l.02-1.65c0-.48-.38-.88-.86-.88h-.29" fill="none" stroke="#002140" stroke-linecap="round" stroke-linejoin="round" stroke-width=".62"/>
  <path d="M160.41,142.71v.04c0,.48.38.88.86.88l1.8.02" fill="none" stroke="#002140" stroke-linecap="round" stroke-linejoin="round" stroke-width=".62"/>
  <path d="M164.32,149.79l.07-5.25c0-.48-.38-.88-.86-.88h-.28" fill="none" stroke="#002140" stroke-linecap="round" stroke-linejoin="round" stroke-width=".62"/>
  <path d="M163.39,151.07h.04c.48,0,.87-.38.88-.86v-.29" fill="none" stroke="#002140" stroke-linecap="round" stroke-linejoin="round" stroke-width=".62"/>
  <path d="M163.23,151.07l-1.73-.02c-.48,0-.88.38-.88.86l-.07,5.39v.03" fill="none" stroke="#002140" stroke-linecap="round" stroke-linejoin="round" stroke-width=".62"/>
  <path d="M159.62,158.43h.04c.48,0,.87-.38.88-.86v-.28" fill="none" stroke="#002140" stroke-linecap="round" stroke-linejoin="round" stroke-width=".62"/>
  <path d="M159.75,158.44h-.1l-5.49-.07c-.48,0-.87.38-.88.86l-.03,2.19" fill="none" stroke="#002140" stroke-linecap="round" stroke-linejoin="round" stroke-width=".62"/>
  <path d="M151.12,156.09h-.04c-.48,0-.87.38-.88.86l-.06,4.57" fill="none" stroke="#002140" stroke-linecap="round" stroke-linejoin="round" stroke-width=".62"/>
  <path d="M151.2,156.09h.04c.48,0,.88-.38.88-.86v-.29" fill="none" stroke="#002140" stroke-linecap="round" stroke-linejoin="round" stroke-width=".62"/>
  <path d="M152.12,155.13v-.18l.04-2.81c0-.48-.38-.87-.86-.88h-.29" fill="none" stroke="#002140" stroke-linecap="round" stroke-linejoin="round" stroke-width=".62"/>
  <path d="M147.38,144.93l-.07,5.4c0,.48.38.87.86.88l2.84.04h.24" fill="none" stroke="#002140" stroke-linecap="round" stroke-linejoin="round" stroke-width=".62"/>
  <path d="M148.32,142.58h-.04c-.48,0-.88.38-.88.86l-.02,1.39" fill="none" stroke="#002140" stroke-linecap="round" stroke-linejoin="round" stroke-width=".62"/>
  <path d="M136.9,149.03v-.04c0-.48-.38-.88-.86-.88l-5.69-.07" fill="none" stroke="#002140" stroke-linecap="round" stroke-linejoin="round" stroke-width=".62"/>
  <path d="M136.91,149.17l-.04,3.27c0,.48.38.88.86.88h.29" fill="none" stroke="#002140" stroke-linecap="round" stroke-linejoin="round" stroke-width=".62"/>
  <path d="M140.48,158.68l.06-4.45c0-.48-.38-.88-.86-.88l-1.55-.02" fill="none" stroke="#002140" stroke-linecap="round" stroke-linejoin="round" stroke-width=".62"/>
  <path d="M132.95,121.9s0-.01,0-.02c-.29-1.4.8-1.92,1.6-1.74.01,0,.02,0,.04,0" fill="none" stroke="#002140" stroke-linecap="round" stroke-linejoin="round" stroke-width=".62"/>
  <path d="M134.58,120.12s-.01-.07-.01-.1c-.13-1.14.62-1.63,1.32-1.62.15,0,.29.03.43.07" fill="none" stroke="#002140" stroke-linecap="round" stroke-linejoin="round" stroke-width=".62"/>
  <path d="M138.89,116.45c.15-1.46,1.4-1.6,2.1-1.15" fill="none" stroke="#002140" stroke-linecap="round" stroke-linejoin="round" stroke-width=".62"/>
  <path d="M140.99,115.28c.24-1.4,1.4-1.5,2.08-1.08.03.02.06.04.09.06" fill="none" stroke="#002140" stroke-linecap="round" stroke-linejoin="round" stroke-width=".62"/>
  <path d="M143.21,114.18c.45-1.41,1.7-1.29,2.29-.7" fill="none" stroke="#002140" stroke-linecap="round" stroke-linejoin="round" stroke-width=".62"/>
  <path d="M149.62,112.78c.81-1.23,1.98-.78,2.39-.05" fill="none" stroke="#002140" stroke-linecap="round" stroke-linejoin="round" stroke-width=".62"/>
  <path d="M152.1,112.68c.89-1.18,2.03-.65,2.39.1" fill="none" stroke="#002140" stroke-linecap="round" stroke-linejoin="round" stroke-width=".62"/>
  <path d="M154.66,112.81c.53.06,1.05.13,1.56.22,1.86.32,3.65.84,5.33,1.55,2.81,1.18,5.35,2.87,7.5,4.95.74.71,1.43,1.47,2.08,2.27.87,1.08,1.65,2.24,2.34,3.46.72,1.3,1.33,2.67,1.81,4.09.68,2.01,1.1,4.13,1.23,6.33.04.6.05,1.2.04,1.8-.05,3.8-.96,7.4-2.56,10.59-3.85,7.73-11.66,13.13-20.75,13.56-.5.02-1,.03-1.5.03-.54,0-1.09-.03-1.62-.07-3.49-.27-6.76-1.28-9.69-2.85-4.46-2.41-8.08-6.15-10.33-10.7-1.67-3.37-2.59-7.17-2.54-11.19.06-4.96,1.59-9.55,4.17-13.37.37-.55.77-1.09,1.18-1.61" fill="none" stroke="#002140" stroke-linecap="round" stroke-linejoin="round" stroke-width=".62"/>
  <path d="M170.53,152.83c.17.18.28.42.28.69,0,.53-.45.96-.98.96l-2.53-.03c-.27,0-.51-.12-.68-.29-.17-.18-.28-.42-.27-.69,0-.53.45-.96.98-.96l2.53.03c.27,0,.51.11.68.29Z" fill="#fffaf0"/>
  <path d="M167.74,156.71c-.01.77-.58.86-1.28.85h0s-3.07-.03-3.07-.03c-.38,0-.71-.14-.93-.35-.37-.43-.5-.99-1.35-1h-.05l-3.98-.05c-.53,0-.96-.45-.96-.98,0-.27.12-.51.29-.68.18-.17.42-.28.69-.28l5.53.07c.32,0,.61.17.78.42h.03c.38.43.48.92,1.32.93l.17.02h.79c1.58.03,2.03.07,2.02,1.07Z" fill="#fffaf0"/>
  <path d="M160.35,132.17h0c.18-.22.46-.35.75-.35l5.22.07c.27,0,.51.12.68.29.17.18.28.42.27.69,0,.53-.45.97-.98.96l-3.6-.05h-.04c-.85-.01-.96.47-1.35.89h-.03c-.18.25-.47.4-.79.4l-2.53-.03c-.27,0-.51-.12-.68-.3-.17-.18-.28-.42-.28-.69,0-.54.45-.96.98-.96h.98s.04.01.04.01c.83.01.98-.52,1.35-.94h0Z" fill="#fffaf0"/>
  <path d="M158.24,136.82c.17.18.28.42.28.69,0,.53-.45.96-.98.96l-2.53-.03c-.27,0-.51-.11-.68-.29-.17-.18-.28-.42-.27-.69,0-.53.45-.96.98-.96l2.53.03c.26,0,.51.12.68.29Z" fill="#fffaf0"/>
  <path d="M143.12,147.32c.53,0,.96.45.96.98,0,.26-.12.51-.29.68-.18.17-.42.28-.69.28l-2.53-.03c-.53,0-.96-.45-.96-.98,0-.27.12-.51.29-.68.18-.17.42-.28.69-.28l2.53.03Z" fill="#fffaf0"/>
  <path d="M133.78,144.21l-5.35-.07c-1.58-.02-2-1.38-1.98-2.95.01-.94.37-2.09,1.03-2.16h.17c.11,1.07.24,2.12.45,3.16h0l7.07.09c.37,0,.71.14.93.35.37.43.5.99,1.35,1h.05l3.98.05c.53,0,.96.45.96.98,0,.26-.11.51-.29.68-.18.17-.42.28-.69.28l-5.53-.07c-.32,0-.61-.17-.78-.41h-.03c-.37-.43-.48-.92-1.32-.93h0Z" fill="#fffaf0"/>
  <path d="M162.69,133.78l3.6.05c.54,0,.98-.43.98-.96,0-.27-.1-.51-.27-.69-.17-.18-.42-.29-.68-.29l-5.22-.07c-.3,0-.57.13-.76.34" fill="none" stroke="#002140" stroke-linecap="round" stroke-linejoin="round" stroke-width=".62"/>
  <path d="M158.95,133.11h-.98c-.53-.02-.97.41-.98.95,0,.26.1.51.28.69.17.18.41.29.68.3l2.53.03c.32,0,.61-.15.79-.4" fill="none" stroke="#002140" stroke-linecap="round" stroke-linejoin="round" stroke-width=".62"/>
  <path d="M155.01,138.44l2.53.03c.53,0,.98-.42.98-.96,0-.27-.1-.51-.28-.69-.17-.18-.42-.29-.68-.29l-2.53-.03c-.54,0-.97.42-.98.96,0,.26.1.51.27.69.17.18.42.29.68.29Z" fill="none" stroke="#002140" stroke-linecap="round" stroke-linejoin="round" stroke-width=".62"/>
  <path d="M158.99,133.11c.83.01.98-.52,1.35-.94,0-.01.01-.02.02-.03" fill="none" stroke="#002140" stroke-linecap="round" stroke-linejoin="round" stroke-width=".62"/>
  <path d="M162.65,133.78c-.85-.01-.96.47-1.35.89" fill="none" stroke="#002140" stroke-linecap="round" stroke-linejoin="round" stroke-width=".62"/>
  <path d="M128.09,142.2l7.07.09c.37,0,.71.14.93.35.01,0,.02.01.02.02" fill="none" stroke="#002140" stroke-linecap="round" stroke-linejoin="round" stroke-width=".62"/>
  <path d="M133.9,144.21h-.12l-5.35-.07c-1.58-.02-2-1.38-1.98-2.95.01-.94.37-2.09,1.03-2.16.02,0,.04,0,.06,0" fill="none" stroke="#002140" stroke-linecap="round" stroke-linejoin="round" stroke-width=".62"/>
  <path d="M137.49,143.63l3.98.05c.53,0,.96.45.96.98,0,.26-.11.51-.29.68-.18.17-.42.28-.69.28l-5.53-.07c-.32,0-.61-.17-.78-.41" fill="none" stroke="#002140" stroke-linecap="round" stroke-linejoin="round" stroke-width=".62"/>
  <path d="M143.1,149.26l-2.53-.03c-.53,0-.96-.45-.96-.98,0-.27.12-.51.29-.68.18-.17.42-.28.69-.28l2.53.03c.53,0,.96.45.96.98,0,.27-.12.51-.29.68-.18.17-.42.28-.69.28Z" fill="none" stroke="#002140" stroke-linecap="round" stroke-linejoin="round" stroke-width=".62"/>
  <path d="M137.44,143.63c-.85-.01-.98-.57-1.35-1" fill="none" stroke="#002140" stroke-linecap="round" stroke-linejoin="round" stroke-width=".62"/>
  <path d="M133.78,144.21c.85,0,.95.49,1.32.92" fill="none" stroke="#002140" stroke-linecap="round" stroke-linejoin="round" stroke-width=".62"/>
  <path d="M166.59,157.58h-.13l-3.08-.04c-.37,0-.71-.14-.93-.35,0,0-.02-.01-.02-.02" fill="none" stroke="#002140" stroke-linecap="round" stroke-linejoin="round" stroke-width=".62"/>
  <path d="M164.93,155.64h.79c1.58.03,2.03.07,2.02,1.07-.01.77-.58.86-1.28.85" fill="none" stroke="#002140" stroke-linecap="round" stroke-linejoin="round" stroke-width=".62"/>
  <path d="M161.05,156.2l-3.98-.05c-.53,0-.96-.45-.96-.98,0-.27.12-.51.29-.68.18-.17.42-.28.69-.28l5.53.07c.32,0,.61.17.78.42" fill="none" stroke="#002140" stroke-linecap="round" stroke-linejoin="round" stroke-width=".62"/>
  <path d="M167.29,154.45l2.53.03c.54,0,.98-.42.98-.96,0-.26-.1-.51-.28-.69-.17-.18-.41-.29-.68-.29l-2.53-.03c-.54,0-.98.42-.98.96,0,.27.1.51.28.69.17.18.42.29.68.29Z" fill="none" stroke="#002140" stroke-linecap="round" stroke-linejoin="round" stroke-width=".62"/>
  <path d="M161.1,156.2c.85,0,.98.57,1.35,1" fill="none" stroke="#002140" stroke-linecap="round" stroke-linejoin="round" stroke-width=".62"/>
  <path d="M164.76,155.62c-.85,0-.95-.5-1.32-.93" fill="none" stroke="#002140" stroke-linecap="round" stroke-linejoin="round" stroke-width=".62"/>
  <path d="M127.64,139.04c.11,1.06.24,2.11.45,3.15,0,0,0,.01,0,.02" fill="none" stroke="#002140" stroke-linecap="round" stroke-linejoin="round" stroke-width=".62"/>
  <path d="M152.95,101.34l-2.45,5.75-.27-.11-1.52-.65-.09-.04,2.45-5.75.18.08,1.63.69.07.03Z" fill="#ff7101"/>
  <path d="M150.5,107.09l-2.45,5.75-.07-.03-1.63-.69-.18-.08,2.45-5.75.09.04,1.52.65.27.11Z" fill="#ff7101"/>
  <path d="M148.05,112.84l-2.45,5.75-.27-.11-1.52-.65-.09-.04,2.45-5.75.18.08,1.63.69.07.03Z" fill="#ff7101"/>
  <path d="M145.6,118.59l-2.45,5.75-.07-.03-1.63-.69-.18-.08,2.45-5.75.09.04,1.52.65.27.11Z" fill="#ff7101"/>
  <path d="M143.15,124.34l-2.45,5.75-.27-.11-1.52-.65-.09-.04,2.45-5.75.18.08,1.63.69.07.03Z" fill="#ff7101"/>
  <path d="M140.71,130.09l-2.45,5.75-.07-.03-1.63-.7-.18-.08,2.45-5.75.09.04,1.52.65.27.11Z" fill="#ff7101"/>
  <path d="M138.26,135.84l-2.45,5.75-.27-.11-1.52-.65-.09-.04,2.45-5.75.18.08,1.63.7.07.03Z" fill="#ff7101"/>
  <path d="M135.81,141.59l-2.45,5.75-.07-.03-1.63-.69-.18-.08,2.45-5.75.09.04,1.52.65.27.11Z" fill="#ff7101"/>
  <path d="M133.36,147.34l-2.45,5.75-.27-.11-1.52-.65-.09-.04,2.45-5.75.18.08,1.63.69.07.03Z" fill="#ff7101"/>
  <path d="M151.36,99.86l-.29.68-2.45,5.75-2.45,5.75-2.45,5.75-2.45,5.75-2.45,5.75-2.45,5.75-2.45,5.75-2.45,5.75-2.45,5.75-.52,1.22" fill="none" stroke="#002140" stroke-linecap="round" stroke-linejoin="round" stroke-width=".62"/>
  <path d="M153.19,100.78l-.24.56-2.45,5.75-2.45,5.75-2.45,5.75-2.45,5.75-2.45,5.75-2.45,5.75-2.45,5.75-2.45,5.75-2.45,5.75-.36.85" fill="none" stroke="#002140" stroke-linecap="round" stroke-linejoin="round" stroke-width=".62"/>
  <path d="M129.12,152.33l1.52.65" fill="none" stroke="#002140" stroke-linecap="round" stroke-linejoin="round" stroke-width=".62"/>
  <path d="M131.66,146.62l1.63.69" fill="none" stroke="#002140" stroke-linecap="round" stroke-linejoin="round" stroke-width=".62"/>
  <path d="M134.02,140.83l1.52.65" fill="none" stroke="#002140" stroke-linecap="round" stroke-linejoin="round" stroke-width=".62"/>
  <path d="M136.56,135.12l1.63.7" fill="none" stroke="#002140" stroke-linecap="round" stroke-linejoin="round" stroke-width=".62"/>
  <path d="M138.92,129.33l1.52.65" fill="none" stroke="#002140" stroke-linecap="round" stroke-linejoin="round" stroke-width=".62"/>
  <path d="M141.46,123.62l1.63.69" fill="none" stroke="#002140" stroke-linecap="round" stroke-linejoin="round" stroke-width=".62"/>
  <path d="M143.81,117.83l1.52.65" fill="none" stroke="#002140" stroke-linecap="round" stroke-linejoin="round" stroke-width=".62"/>
  <path d="M146.35,112.12l1.63.69" fill="none" stroke="#002140" stroke-linecap="round" stroke-linejoin="round" stroke-width=".62"/>
  <path d="M148.71,106.33l1.52.65" fill="none" stroke="#002140" stroke-linecap="round" stroke-linejoin="round" stroke-width=".62"/>
  <path d="M151.25,100.61l1.63.69" fill="none" stroke="#002140" stroke-linecap="round" stroke-linejoin="round" stroke-width=".62"/>
  <path d="M172.83,146.93l2.33,5.8-.27.11-1.54.62-.09.04-2.34-5.8.18-.07,1.64-.66.07-.03Z" fill="#ff7101"/>
  <path d="M172.83,146.93l-.07.03-1.64.66-.18.07-2.33-5.79.09-.04,1.53-.62.27-.11,2.34,5.8Z" fill="#ff7101"/>
  <path d="M168.15,135.33l2.34,5.8-.27.11-1.53.62-.09.04-2.34-5.8.18-.07,1.64-.66.07-.03Z" fill="#ff7101"/>
  <path d="M165.82,129.53l2.33,5.8-.07.03-1.64.66-.18.07-2.34-5.8.09-.04,1.53-.62.27-.11Z" fill="#ff7101"/>
  <path d="M165.82,129.53l-.27.11-1.53.62-.09.04-2.33-5.8.18-.07,1.64-.66.07-.03,2.34,5.8Z" fill="#ff7101"/>
  <path d="M161.15,117.94l2.33,5.8-.07.03-1.64.66-.18.07-2.34-5.8.09-.04,1.53-.62.27-.11Z" fill="#ff7101"/>
  <path d="M161.15,117.94l-.27.11-1.53.62-.09.04-2.34-5.8.18-.07,1.64-.66.07-.03,2.33,5.8Z" fill="#ff7101"/>
  <path d="M156.48,106.34l2.34,5.8-.07.03-1.64.66-.18.07-2.33-5.8.09-.04,1.53-.62.27-.11Z" fill="#ff7101"/>
  <path d="M154.15,100.54l2.33,5.8-.27.11-1.53.62-.09.04-2.34-5.8.18-.07,1.64-.66.07-.03Z" fill="#ff7101"/>
  <path d="M152.02,100.74l.23.57,2.34,5.8,2.33,5.8,2.34,5.8,2.34,5.8,2.33,5.8,2.34,5.8,2.34,5.8,2.33,5.79,2.34,5.8.31.76" fill="none" stroke="#002140" stroke-linecap="round" stroke-linejoin="round" stroke-width=".62"/>
  <path d="M153.88,99.89l.26.65,2.33,5.8,2.34,5.8,2.33,5.8,2.33,5.8,2.34,5.8,2.33,5.8,2.34,5.8,2.34,5.8,2.33,5.8.4,1" fill="none" stroke="#002140" stroke-linecap="round" stroke-linejoin="round" stroke-width=".62"/>
  <path d="M173.35,153.45l1.54-.62" fill="none" stroke="#002140" stroke-linecap="round" stroke-linejoin="round" stroke-width=".62"/>
  <path d="M171.11,147.62l1.64-.66" fill="none" stroke="#002140" stroke-linecap="round" stroke-linejoin="round" stroke-width=".62"/>
  <path d="M168.69,141.86l1.53-.62" fill="none" stroke="#002140" stroke-linecap="round" stroke-linejoin="round" stroke-width=".62"/>
  <path d="M166.44,136.02l1.64-.66" fill="none" stroke="#002140" stroke-linecap="round" stroke-linejoin="round" stroke-width=".62"/>
  <path d="M164.02,130.26l1.53-.62" fill="none" stroke="#002140" stroke-linecap="round" stroke-linejoin="round" stroke-width=".62"/>
  <path d="M161.77,124.43l1.64-.66" fill="none" stroke="#002140" stroke-linecap="round" stroke-linejoin="round" stroke-width=".62"/>
  <path d="M159.35,118.67l1.53-.62" fill="none" stroke="#002140" stroke-linecap="round" stroke-linejoin="round" stroke-width=".62"/>
  <path d="M157.1,112.83l1.64-.66" fill="none" stroke="#002140" stroke-linecap="round" stroke-linejoin="round" stroke-width=".62"/>
  <path d="M154.68,107.07l1.53-.62" fill="none" stroke="#002140" stroke-linecap="round" stroke-linejoin="round" stroke-width=".62"/>
  <path d="M152.43,101.24l1.64-.66" fill="none" stroke="#002140" stroke-linecap="round" stroke-linejoin="round" stroke-width=".62"/>
  <path d="M176.32,155.23s-6.64,7.37-23.93,7.37h-.05c-17.29,0-23.93-7.37-23.93-7.37" fill="#f25730"/>
  <path d="M176.32,155.23s-6.64,7.37-23.93,7.37h-.05c-17.29,0-23.93-7.37-23.93-7.37" fill="none" stroke="#002140" stroke-linecap="round" stroke-linejoin="round" stroke-width=".62"/>
  <path d="M176.45,152.23h-48.16c-.81,0-1.46.65-1.46,1.46s.65,1.46,1.46,1.46h48.16c.81,0,1.46-.65,1.46-1.46s-.65-1.46-1.46-1.46Z" fill="#e96df2" stroke="#002140" stroke-linecap="round" stroke-linejoin="round" stroke-width=".62"/>
  <path d="M152.56,104.73c1.95,0,3.54-1.58,3.54-3.54s-1.59-3.54-3.54-3.54-3.54,1.58-3.54,3.54,1.58,3.54,3.54,3.54Z" fill="#bf3013" stroke="#002140" stroke-linecap="round" stroke-linejoin="round" stroke-width=".62"/>
  <path d="M152.56,103.38c1.21,0,2.19-.98,2.19-2.19s-.98-2.19-2.19-2.19-2.19.98-2.19,2.19.98,2.19,2.19,2.19Z" fill="#002140" stroke="#002140" stroke-linecap="round" stroke-linejoin="round" stroke-width=".62"/>
  <path d="M10.03,2.64c0,.11-.02.22-.06.33-.01.04-.03.07-.05.11l-1.05,2.14c-.03.07-.07.13-.12.18-.29.36-.79.48-1.22.27-.49-.24-.7-.84-.45-1.34l1.05-2.14c.24-.49.84-.69,1.34-.45.35.17.55.53.55.9Z" fill="#f25730"/>
  <path d="M6.96,1.67c.57.28.8.96.52,1.53-.28.57-.96.8-1.53.52-.57-.28-.8-.96-.52-1.53.28-.57.96-.8,1.53-.52Z" fill="#ff7101"/>
  <path d="M174.19,84.14c.57.28.8.97.52,1.53-.28.57-.96.8-1.53.52-.57-.28-.8-.97-.52-1.53.28-.57.96-.8,1.53-.52Z" fill="#ff7101"/>
  <path d="M172.6,82.2c.49.24.7.84.45,1.34l-1.05,2.14c-.24.49-.84.7-1.34.45-.46-.23-.66-.76-.5-1.23.01-.04.03-.07.05-.11l1.05-2.14s.04-.08.07-.12c.19-.27.5-.43.82-.43.15,0,.3.03.44.1Z" fill="#f25730"/>
  <path d="M170.21,84.79s-.03.07-.05.11l-.35-.18L9,5.4h-.24c.05-.06.08-.12.12-.18l1.05-2.14s.03-.07.05-.11l.21.02,160.81,79.32.33.22s-.05.08-.07.12l-1.05,2.14Z" fill="#bf3013"/>
  <path d="M10.19,2.99l160.81,79.32" fill="none" stroke="#002140" stroke-linecap="round" stroke-linejoin="round" stroke-width=".62"/>
  <path d="M9,5.4l160.81,79.32" fill="none" stroke="#002140" stroke-linecap="round" stroke-linejoin="round" stroke-width=".62"/>
  <path d="M8.76,5.4c-.29.36-.79.48-1.22.27-.49-.24-.7-.84-.45-1.34l1.05-2.14c.24-.49.84-.69,1.34-.45.35.17.55.53.55.9,0,.11-.02.22-.06.33-.01.04-.03.07-.05.11l-1.05,2.14c-.03.07-.07.13-.12.18Z" fill="none" stroke="#002140" stroke-linecap="round" stroke-linejoin="round" stroke-width=".62"/>
  <path d="M7.48,3.2c-.28.57-.96.8-1.53.52-.57-.28-.8-.96-.52-1.53.28-.57.96-.8,1.53-.52.57.28.8.96.52,1.53Z" fill="none" stroke="#002140" stroke-linecap="round" stroke-linejoin="round" stroke-width=".62"/>
  <path d="M170.17,84.89c-.17.47.04,1,.5,1.23.49.24,1.09.04,1.34-.45l1.05-2.14c.24-.49.04-1.09-.45-1.34-.14-.07-.29-.1-.44-.1-.32,0-.64.16-.82.43-.03.04-.05.08-.07.12l-1.05,2.14s-.03.07-.05.11Z" fill="none" stroke="#002140" stroke-linecap="round" stroke-linejoin="round" stroke-width=".62"/>
  <path d="M172.66,84.66c-.28.57-.05,1.25.52,1.53.56.28,1.25.05,1.53-.52.28-.56.05-1.25-.52-1.53-.57-.28-1.25-.05-1.53.52Z" fill="none" stroke="#002140" stroke-linecap="round" stroke-linejoin="round" stroke-width=".62"/>
  <path d="M30.42,12.7c0,.15-.03.3-.1.44l-1.05,2.14c-.24.49-.84.69-1.34.45-.49-.24-.69-.84-.45-1.34l1.05-2.14c.24-.49.84-.7,1.34-.45.35.17.56.53.56.9Z" fill="#ff7101"/>
  <path d="M28.01,10.88c.35.17.56.53.56.9,0,.15-.03.3-.1.44l-1.05,2.14c-.24.49-.84.7-1.34.45-.49-.24-.69-.84-.45-1.34l1.05-2.14c.24-.49.84-.7,1.34-.45Z" fill="#ff7101"/>
  <path d="M26.16,9.97c.35.17.56.53.56.9,0,.15-.03.3-.1.44l-1.05,2.14c-.24.49-.84.7-1.34.45-.49-.24-.7-.84-.45-1.34l1.05-2.14c.24-.49.84-.69,1.34-.45Z" fill="#ff7101"/>
  <path d="M155.92,73.97c.49.24.7.84.45,1.34l-1.05,2.14c-.24.49-.84.7-1.34.45-.49-.24-.69-.84-.45-1.34l1.05-2.14c.17-.35.53-.55.9-.55.15,0,.3.03.44.1Z" fill="#ff7101"/>
  <path d="M154.07,73.05c.49.24.7.84.45,1.34l-1.05,2.14c-.24.49-.84.69-1.34.45-.49-.24-.69-.84-.45-1.34l1.05-2.14c.17-.35.53-.56.9-.56.15,0,.3.03.44.1Z" fill="#ff7101"/>
  <path d="M152.21,72.14c.49.24.7.84.46,1.34l-1.05,2.14c-.24.49-.84.7-1.34.45-.49-.24-.7-.84-.45-1.34l1.05-2.14c.17-.35.53-.56.9-.56.15,0,.3.03.44.1Z" fill="#ff7101"/>
  <path d="M135.67,64.85c-.99-.34-1.82,0-1.82,0l-2.45.85s-1.94.75-3.43.02c-.71-.35-1.1-.88-1.32-1.33v-.02c.79-.08,1.41-.31,1.41-.31l3.78-1.23s.35-.19.84-.33c.58-.16,1.37-.26,2.05.07,1.66.82,1.6,2.25,1.6,2.25l-.66.03Z" fill="#ff7101"/>
  <path d="M131.21,60.83c.83.41,1.23.97,1.42,1.43l.05.23c-.5.14-.84.33-.84.33l-3.78,1.23s-.61.24-1.41.31c-.62.06-1.36.02-2.02-.3-.74-.37-1.14-.93-1.35-1.4v-.06c.71-.09,1.25-.3,1.25-.3l3.78-1.23s.35-.19.84-.33c.58-.16,1.37-.26,2.05.07Z" fill="#ff7101"/>
  <path d="M127.68,59.09c.79.39,1.19.92,1.39,1.37l.08.3c-.5.14-.84.33-.84.33l-3.78,1.23s-.53.21-1.26.3c-.65.08-1.46.07-2.17-.28-1.48-.73-1.58-2.24-1.58-2.24l.19-.04c1.4.69,2.02.29,2.02.29l3.04-.99s1.63-.88,2.89-.26Z" fill="#ff7101"/>
  <path d="M59.23,30.21l.09.18s-1.26.85-2.74.11c-.69-.34-1.19-.97-1.53-1.53-.38-.64-.54-1.2-.54-1.2l-1.32-3.74s-.06-.4-.26-.89l.29-.1c.48-.11,1.15-.12,1.94.27,1.26.62,1.56,2.45,1.56,2.45l1.07,3.02s.06.74,1.46,1.43Z" fill="#ff7101"/>
  <path d="M54.98,28.99c-.5.12-1.18.15-1.93-.22-.65-.32-1.13-.89-1.46-1.42-.42-.68-.61-1.31-.61-1.31l-1.32-3.75s-.06-.4-.26-.89l.23-.08c.48-.13,1.17-.15,2,.26.67.33,1.07,1,1.29,1.56.2.49.26.89.26.89l1.32,3.74s.17.56.54,1.2h-.07Z" fill="#ff7101"/>
  <path d="M51.58,27.35c-.49.11-1.15.12-1.86-.23-1.48-.73-2.07-2.73-2.07-2.73l-.82-2.46s-.28-1.07-1.42-1.63l-.07-.36s1.11-.92,2.76-.1c.67.33,1.07,1,1.29,1.56.2.49.26.89.26.89l1.32,3.75s.18.63.61,1.31h-.01Z" fill="#ff7101"/>
  <path d="M59.32,30.39s-1.26.85-2.74.11c-.69-.34-1.19-.97-1.53-1.53-.38-.64-.54-1.2-.54-1.2l-1.32-3.74s-.06-.4-.26-.89c-.23-.56-.62-1.23-1.29-1.56-.83-.41-1.52-.38-2-.26" fill="none" stroke="#002140" stroke-linecap="round" stroke-linejoin="round" stroke-width=".62"/>
  <path d="M54.98,28.99c-.5.12-1.18.15-1.93-.22-.65-.32-1.13-.89-1.46-1.42-.42-.68-.61-1.31-.61-1.31l-1.32-3.75s-.06-.4-.26-.89c-.23-.56-.62-1.23-1.29-1.56-1.66-.82-2.76.1-2.76.1" fill="none" stroke="#002140" stroke-linecap="round" stroke-linejoin="round" stroke-width=".62"/>
  <path d="M59.23,30.21c-1.4-.69-1.46-1.43-1.46-1.43l-1.07-3.02s-.29-1.83-1.56-2.45c-.79-.39-1.46-.38-1.94-.27" fill="none" stroke="#002140" stroke-linecap="round" stroke-linejoin="round" stroke-width=".62"/>
  <path d="M51.58,27.35c-.49.11-1.15.12-1.86-.23-1.48-.73-2.07-2.73-2.07-2.73l-.82-2.46s-.28-1.07-1.42-1.63" fill="none" stroke="#002140" stroke-linecap="round" stroke-linejoin="round" stroke-width=".62"/>
  <path d="M24.22,13.9c-.49-.24-.7-.84-.45-1.34l1.05-2.14c.24-.49.84-.69,1.34-.45.35.17.56.53.56.9,0,.15-.03.3-.1.44l-1.05,2.14c-.24.49-.84.7-1.34.45Z" fill="none" stroke="#002140" stroke-linecap="round" stroke-linejoin="round" stroke-width=".62"/>
  <path d="M26.08,14.81c-.49-.24-.69-.84-.45-1.34l1.05-2.14c.24-.49.84-.7,1.34-.45.35.17.56.53.56.9,0,.15-.03.3-.1.44l-1.05,2.14c-.24.49-.84.7-1.34.45Z" fill="none" stroke="#002140" stroke-linecap="round" stroke-linejoin="round" stroke-width=".62"/>
  <path d="M27.93,15.72c-.49-.24-.69-.84-.45-1.34l1.05-2.14c.24-.49.84-.7,1.34-.45.35.17.56.53.56.9,0,.15-.03.3-.1.44l-1.05,2.14c-.24.49-.84.69-1.34.45Z" fill="none" stroke="#002140" stroke-linecap="round" stroke-linejoin="round" stroke-width=".62"/>
  <path d="M119.53,60.09s.1,1.51,1.58,2.24c.71.35,1.51.36,2.17.28.72-.09,1.26-.3,1.26-.3l3.78-1.23s.35-.19.84-.33c.58-.16,1.37-.26,2.05.07.83.41,1.23.97,1.42,1.43" fill="none" stroke="#002140" stroke-linecap="round" stroke-linejoin="round" stroke-width=".62"/>
  <path d="M123.29,62.67c.21.47.6,1.03,1.35,1.4.65.32,1.39.36,2.02.3.8-.08,1.41-.31,1.41-.31l3.78-1.23s.35-.19.84-.33c.58-.16,1.37-.26,2.05.07,1.66.82,1.6,2.25,1.6,2.25" fill="none" stroke="#002140" stroke-linecap="round" stroke-linejoin="round" stroke-width=".62"/>
  <path d="M119.73,60.05c1.4.69,2.02.29,2.02.29l3.04-.99s1.63-.88,2.89-.26c.79.39,1.19.92,1.39,1.37" fill="none" stroke="#002140" stroke-linecap="round" stroke-linejoin="round" stroke-width=".62"/>
  <path d="M126.65,64.38c.22.45.61.98,1.32,1.33,1.48.73,3.43-.02,3.43-.02l2.45-.85s.83-.34,1.82,0c.11.04.22.08.33.14" fill="none" stroke="#002140" stroke-linecap="round" stroke-linejoin="round" stroke-width=".62"/>
  <path d="M153.98,77.89c.49.24,1.09.04,1.34-.45l1.05-2.14c.24-.49.04-1.09-.45-1.34-.14-.07-.29-.1-.44-.1-.37,0-.73.2-.9.55l-1.05,2.14c-.24.49-.04,1.09.45,1.34Z" fill="none" stroke="#002140" stroke-linecap="round" stroke-linejoin="round" stroke-width=".62"/>
  <path d="M152.13,76.98c.49.24,1.09.04,1.34-.45l1.05-2.14c.24-.49.04-1.09-.45-1.34-.14-.07-.29-.1-.44-.1-.37,0-.72.2-.9.56l-1.05,2.14c-.24.49-.04,1.09.45,1.34Z" fill="none" stroke="#002140" stroke-linecap="round" stroke-linejoin="round" stroke-width=".62"/>
  <path d="M150.28,76.07c.49.24,1.09.04,1.34-.45l1.05-2.14c.24-.49.04-1.09-.46-1.34-.14-.07-.29-.1-.44-.1-.37,0-.73.2-.9.56l-1.05,2.14c-.24.49-.04,1.09.45,1.34Z" fill="none" stroke="#002140" stroke-linecap="round" stroke-linejoin="round" stroke-width=".62"/>
  <path d="M90.19,45.9c1.13,0,2.04-.91,2.04-2.04s-.91-2.04-2.04-2.04-2.04.91-2.04,2.04.91,2.04,2.04,2.04Z" fill="#002140" stroke="#002140" stroke-linecap="round" stroke-linejoin="round" stroke-width=".1"/>
</svg>