<svg xmlns="http://www.w3.org/2000/svg" id="Layer_1" viewBox="0 0 191 137"><defs><clipPath id="clippath"><path d="M.5.5h190v136H.5z" class="st0"/></clipPath><style>.st0,.st1,.st2,.st3{fill:none}.st1{stroke-width:2px}.st1,.st2{stroke-linecap:round;stroke-linejoin:round}.st1,.st2,.st3{stroke:#002140}.st4{fill:#fffaf0}.st5{fill:#0164bf}.st6{fill:#002140}.st7{fill:#003c73}.st8{fill:#d18000}.st9{fill:#fed607}.st2,.st3{stroke-width:1px}.st3{stroke-miterlimit:10}.st10{clip-path:url(#clippath)}</style></defs><g class="st10"><path d="M129.322 123.205s2.818-21.983-5.256-45.144c-1.922-5.57-5.646-16.034-7.968-20.98-5.518-9.076-16.371-33.653-13.288-39.818 4.343-8.687 8.001-10.285 11.656-11.201 3.654-.916 7.312-1.371 8.687-.685 1.371.685 5.029 2.514 5.487 5.487l5.487 19.43s4.344-7.313 10.058-6.627 9.827 5.714 8.456 14.629c0 0 5.256 2.287 5.029 5.029s-2.07 5.601-4.113 6.173l2.973 9.372s3.427 2.287 3.2 5.715-1.602 6.173-5.942 7.543c-4.343 1.371-11.201 2.514-10.743 8.914.32 4.495 4.781 35.509 4.181 41.182" class="st9"/><path d="M58.999 135.467c-31.847 0-57.664-7.292-57.664-16.286s25.817-16.285 57.664-16.285 57.664 7.291 57.664 16.285-25.817 16.286-57.664 16.286" class="st6"/><path d="m129.322 123.205-14.284-.458 2.4-3.428v-11.887s-2.514-4.915-10.857-6.627c0 0 18.401-1.143 22.972-.799 0 0 .571 18.972-.228 23.199zm18.059-1.144s0-15.658-1.371-21.142h1.602s29.144 2.056 39.084 10.743c0 0-13.943 9.828-39.315 10.399m-16.078-76.915s1.98 9.372 3.658 9.372 2.287-5.332 2.287-7.847l1.522.686s-.458 9.827 1.981 9.982c2.439.152 3.658-6.173 3.582-8.305l1.295.61s1.678 7.847 3.428 7.543c1.753-.303 2.741-5.256 2.514-7.237h1.144l4.192 8.99s-10.134 4.343-16.837 3.582c-6.707-.761-8.914-5.79-9.448-7.771s-2.363-9.676-.837-9.827c1.526-.152 1.522.227 1.522.227l-.003-.007Z" class="st6"/><path d="M113.78 5.717s-10.63 3.658-11.201 13.372c0 0-1.258-3.999-3.2-5.029s-8.687-5.487-6.858-9.028 12.114-5.942 21.256.685zM102.237 19.66s2.288 14.171 4.23 16.23c0 0-3.771-1.143-5.37-1.143s-9.713 1.602-10.97-1.715c-1.257-3.314 2.17-10.058 12.114-13.372zm5.485 19.885 7.312 15.772s-5.029-.799-8.8 0-8.229 2.287-9.259-.799-.686-9.028 10.743-14.973zm8.914 19.543s6.514 14.515 6.858 16.113c0 0-1.715-1.257-6.858-.344s-9.827 2.515-10.63-.685c-.799-3.2.799-10.285 10.63-15.087zm8.686 21.488s3.772 14.057 3.545 16.571c0 0-2.515-.799-5.029-.799s-10.172.458-11.315-1.485c-1.144-1.943-1.371-9.827 12.799-14.284z" class="st8"/><path d="M157.04 46.885s.913 8.839-.458 8.839-4.268-5.639-4.268-5.639l4.722-3.2zm-10.819 2.893 5.332.152s.386 6.527-2.246 6.768-3.09-6.92-3.09-6.92zm-7.43-2.132 5.942 1.678s-1.068 7.468-3.582 7.771c-2.515.303-2.363-9.448-2.363-9.448zm-7.048-3.199 5.639 2.132s.31 7.444-2.129 7.605-3.507-9.741-3.507-9.741l-.003.003Zm-19.392-20.043c-1.339-5.132.622-10.087 4.378-11.067s7.888 2.386 9.227 7.518-.622 10.087-4.379 11.067-7.887-2.386-9.226-7.518" class="st4"/><path d="M123.089 21.889c-1.339-5.132.622-10.087 4.379-11.067s7.887 2.386 9.226 7.518-.622 10.087-4.379 11.067-7.887-2.386-9.226-7.518" class="st4"/><path d="M186.693 111.659s-8.115-6.744-19.657-8.002c-11.543-1.257-21.029-2.742-21.029-2.742l-1.371-10.516s23.199 1.602 39.543 8.914c10.399 6.059 2.514 12.341 2.514 12.341v.004Zm-57.14-11.656s-20.116.227-24.115.685c0 0-14.515-4.915-28-4.571 0 0 17.942-5.601 34.972-5.942 0 0-3.545 5.714 2.972 6.173 6.514.458 10.63-1.371 13.485.799zm-12.039 10.819v8.381s-5.18 12.648-53.792 12.038c-47.792-1.229-47.847-13.106-47.847-14.17s.303-6.4.303-6.4 8.99 12.038 49.373 11.122c40.379-.913 50.437-7.922 51.963-10.971" class="st7"/><path d="M66.732 122.402c-28.004 0-50.706-5.935-50.706-13.257s22.702-13.258 50.706-13.258 50.706 5.935 50.706 13.258-22.702 13.257-50.706 13.257" class="st5"/><path d="M146.131 38.77s-3.2-.761-7.161-.458c0 0-2.133-7.01 3.961-7.313 5.487.761 3.2 7.771 3.2 7.771" class="st6"/><path d="M129.005 10.711c-2.642-4.939-7.599-7.757-17.54-3.761-29.764 18.235 24.184 51.943 18.049 115.47" class="st2"/><path d="M112.374 24.37c-1.05-5.197 1.208-10.038 5.044-10.813s7.796 2.81 8.846 8.007-1.209 10.038-5.044 10.813c-3.836.775-7.796-2.81-8.846-8.007" class="st2"/><path d="m121.03 22.681-5.446-.165c-.347-3.772 1.258-7.034 3.886-7.564 2.907-.589 5.962 2.397 6.827 6.665.861 4.268-.796 8.205-3.703 8.794-1.819.368-3.696-.665-5.057-2.532l3.497-5.198z" class="st6"/><path d="M123.196 21.933c-1.05-5.197 1.209-10.038 5.044-10.813 3.836-.775 7.796 2.81 8.846 8.007s-1.209 10.038-5.044 10.813c-3.836.775-7.796-2.81-8.846-8.007" class="st2"/><path d="m131.85 20.242-5.446-.165c-.348-3.772 1.257-7.034 3.886-7.564 2.907-.589 5.962 2.397 6.827 6.665.861 4.268-.796 8.205-3.703 8.794-1.819.369-3.696-.665-5.057-2.532l3.496-5.198z" class="st6"/><path d="M131.123 34.226c3.658-2.439 4.113-9.751 11.732-10.516 7.619-.761 11.887 6.248 9.297 15.697" class="st2"/><path d="M152.61 37.885s9.362 4.223 2.776 10.34-22.892-5.463-25.937-3.179c-.913 1.219.303 19.048 13.561 17.526s14.019-3.658 14.019-3.658 5.215 4.106 1.464 9.672-14.312 3.262-15.431 10.206c-.644 3.992 5.135 30.211 4.154 43.428" class="st2"/><path d="M147.581 39.521s-6.059-2.514-10.285-.913" class="st2"/><path d="M145.893 38.897a5.7 5.7 0 0 0 .775-2.918c0-2.776-1.867-5.029-4.172-5.029s-4.171 2.253-4.171 5.029c0 .696.117 1.357.327 1.956m12.901 11.998s.031 7.075-2.484 7.189c-2.514.114-3.427-7.43-3.427-7.43m-1.261-.458s-.686 8.57-3.428 8.229c-2.742-.344-2.287-10.285-2.287-10.285m-1.484-.572s.227 8.229-2.17 8.001-3.427-9.486-3.427-9.486m25.368 1.829s1.829 8.002-.344 8.687c-2.17.686-3.886-5.942-3.886-5.942" class="st2"/><path d="M157.029 58.913s-1.198-1.702-1.781-3.744M102.461 19.98s-13.64 4.144-12.572 12.903c1.202 5.756 12.906-.386 16.73 4.326m.561 2.426s-12.789 6.3-10.316 14.77c2.122 5.487 11.229-2.156 18.345 1.481m1.226 3.406s-12.789 6.3-10.316 14.77c2.122 5.487 12.717-1.526 17.202.996m1.264 5.717s-13.64 4.144-12.572 12.903c1.202 5.756 12.796.555 16.816 3.768m-26.333-77.652c.127-6.066-12.776-8.935-9.979-14.109 4.843-7.375 19.179-2.277 21.156.462m9.222 1.946s-6.628-1.144-10.058 3.658m27.228 77.408c.482 1.092.258 2.456-.541 3.338-.803.882-2.139 1.233-3.269.858s-1.994-1.454-2.111-2.638" class="st2"/><path d="M138.808 93.275c.482 1.092.258 2.456-.541 3.338-.803.882-2.139 1.233-3.269.858s-1.994-1.454-2.111-2.639m-20.595-4.698c-14.177.854-26.543 2.966-35.323 5.869m37.338 26.833c3.916.2 7.964.307 12.1.307 34.938 0 63.259-7.482 63.259-16.713 0-7.568-19.038-13.961-45.154-16.017" class="st2"/><path d="M66.832 121.954c-28.016 0-50.727-5.839-50.727-13.041s22.711-13.041 50.727-13.041 50.727 5.839 50.727 13.041-22.711 13.041-50.727 13.041" class="st2"/><path d="M66.201 118.41c-22.646 0-41.003-4.301-41.003-9.607s18.358-9.607 41.003-9.607 41.003 4.301 41.003 9.607-18.358 9.607-41.003 9.607Z" class="st3"/><path d="M117.559 108.913v9.183c0 7.203-22.713 13.041-50.727 13.041s-50.727-5.838-50.727-13.041v-9.183m112.989-9.004q-1.338-.014-2.686-.014c-6.972 0-13.678.297-19.947.847m80.09 10.669c-6.241-5.046-21.328-9.035-40.421-10.688" class="st2"/><path d="M80.902 104.039v9.145m10.361-7.354v5.639m-51.809-5.639v5.639m31.087-7.43v9.145m-10.364-9.145v9.145m-10.362-9.145v9.145" class="st1"/></g></svg>