<svg xmlns="http://www.w3.org/2000/svg" xml:space="preserve" id="Layer_1" x="0" y="0" viewBox="0 0 80 80"><style>.st0,.st1{fill-rule:evenodd;clip-rule:evenodd;fill:#0185ff}.st1{fill:#0b1b34}.st2{fill:#fff}.st3{fill:#0185ff}.st4{fill-rule:evenodd;clip-rule:evenodd;fill:#fff}</style><path d="M25.5 40.3c-.4 0-.8.4-.8.8s.4.8.8.8.8-.4.8-.8-.3-.8-.8-.8m-2.4.8c0-1.3 1.1-2.4 2.4-2.4s2.4 1.1 2.4 2.4-1.1 2.4-2.4 2.4-2.4-1.1-2.4-2.4" class="st0"/><path d="M61.8 23c-.4 0-.8.4-.8.8s.4.8.8.8.8-.4.8-.8c0-.5-.4-.8-.8-.8m-2.4.8c0-1.3 1.1-2.4 2.4-2.4s2.4 1.1 2.4 2.4-1.1 2.4-2.4 2.4c-1.4 0-2.4-1.1-2.4-2.4" class="st1"/><path d="M52.8 62.6c.5-.7.4-1.7-.3-2.2s-1.7-.4-2.2.3-.4 1.7.3 2.2 1.7.4 2.2-.3" class="st2"/><path d="M50.9 61.1c-.3.4-.2.9.1 1.1.4.3.9.2 1.1-.1.3-.4.2-.9-.1-1.1-.3-.3-.8-.2-1.1.1m-.8 2.4c-1.1-.8-1.2-2.3-.4-3.4s2.3-1.2 3.4-.4 1.2 2.3.4 3.4c-.9 1-2.4 1.2-3.4.4" class="st0"/><path d="M21.4 32.2c.7 0 1.2-.5 1.2-1.2s-.5-1.2-1.2-1.2-1.2.5-1.2 1.2c0 .6.5 1.2 1.2 1.2m18.8 22.2c1 0 1.8-.8 1.8-1.8s-.8-1.8-1.8-1.8-1.8.8-1.8 1.8.8 1.8 1.8 1.8m10.1-30.8c1 0 1.8-.8 1.8-1.8s-.8-1.8-1.8-1.8-1.8.8-1.8 1.8.8 1.8 1.8 1.8m18.5 20.9c.5 0 .9-.4.9-.9s-.4-.9-.9-.9-.9.4-.9.9.4.9.9.9M57.3 34.2c1.1 0 2-.9 2-2s-.9-2-2-2-2 .9-2 2 .9 2 2 2" class="st3"/><path d="M57.3 31c.6 0 1.2.6 1.2 1.2s-.6 1.2-1.2 1.2-1.2-.6-1.2-1.2.5-1.2 1.2-1.2m0-1.6c-1.5 0-2.8 1.3-2.8 2.8s1.3 2.8 2.8 2.8 2.8-1.3 2.8-2.8-1.3-2.8-2.8-2.8" class="st2"/><path d="M60.6 15c1.1 0 2-.9 2-2s-.9-2-2-2-2 .9-2 2 .9 2 2 2" class="st3"/><path d="M60.6 11.8c.6 0 1.2.6 1.2 1.2s-.6 1.2-1.2 1.2-1.2-.6-1.2-1.2.5-1.2 1.2-1.2m0-1.6c-1.5 0-2.8 1.3-2.8 2.8s1.3 2.8 2.8 2.8 2.8-1.3 2.8-2.8-1.3-2.8-2.8-2.8" class="st2"/><path d="M44.9 34h-4.5v-1.6h4.5z" class="st0"/><path d="M41.8 35.4V31h1.6v4.5zm28.8-2.2v-4.4h1.6v4.4z" class="st0"/><path d="M69.3 30.2h4.4v1.6h-4.4z" class="st0"/><path d="m35.7 42.6 2.7-.2-.1-1.6-3.5.3c-.2 0-.4.1-.5.3-.3.2-.3.4-.3.6l.2 2.2-2.2-.1c-.2 0-.5.1-.6.2-.2.2-.2.4-.2.6l.2 2.2-2.2-.1c-.4 0-.8.3-.8.7l-.2 3.8 1.6.1.2-3 2.3.1c.2 0 .5-.1.6-.2.2-.2.2-.4.2-.6l-.2-2.2 2.2.1c.2 0 .5-.1.6-.2.2-.2.2-.4.2-.6zm-2.3-25.2 2-1.8-1.1-1.2-2.6 2.4c-.2.1-.2.4-.3.6 0 .2.1.4.2.6l1.6 1.6-1.8 1.3c-.2.1-.3.4-.3.6s.1.5.2.6l1.6 1.6-1.8 1.3c-.4.3-.4.8-.2 1.1l2.2 3 1.3-.9-1.7-2.4 1.9-1.4c.2-.1.3-.4.3-.6s-.1-.5-.2-.6l-1.6-1.6 1.8-1.3c.2-.1.3-.4.3-.6s-.1-.5-.2-.6zm20.5 28q.3 0 .6.3l1.3 1.7 1.5-1.6 1.2 1.1-2.2 2.3q-.3.3-.6.3c-.2 0-.5-.1-.6-.3l-1.4-1.7-1.4 1.5c-.2.2-.4.3-.6.2q-.3 0-.6-.3l-2-2.5 1.2-1 1.4 1.8 1.5-1.6c.2-.1.5-.2.7-.2" class="st1"/><path d="M44.9 12.6c-.1 0-.2 0-.3-.1-.3-.2-.5-.4-.5-.7V6.6c0-.5.3-.8.8-.8H50c.3 0 .6.2.7.5.2.3.1.6-.2.9l-5.1 5.1c-.1.2-.3.3-.5.3" class="st3"/><path d="m50 6.6-5.1 5.1V6.6zM50 5h-5.1c-.9 0-1.6.7-1.6 1.6v5.1c0 .6.4 1.2 1 1.4.2.1.4.2.6.2.4 0 .8-.2 1.1-.5l5.1-5.1q.75-.75.3-1.8c-.1-.5-.8-.9-1.4-.9" class="st2"/><path d="M63.9 59.9v-5.2h5.2zm-21.4-.5L20.4 37.3l-8.6 20.4L22 67.8z" class="st3"/><path d="m20.1 35.9 23.8 23.8-22.1 9.1-10.9-10.9zm.6 2.8-7.9 18.8 9.4 9.4 18.9-7.8z" class="st4"/><path d="M6.9 72.8c.6.6 1.5.7 2.3.4L22 67.9 11.8 57.7 6.5 70.5c-.3.8-.3 1.7.4 2.3" class="st3"/><path d="M11.7 56.9c.3-.1.5 0 .7.2l10.2 10.2c.2.2.3.5.2.7-.1.3-.2.5-.5.6L9.5 73.9c-1.1.4-2.4.2-3.2-.6-.9-.9-1-2.2-.6-3.2l5.4-12.8c.1-.2.3-.4.6-.4m.4 2.2L7.2 70.8c-.2.6-.1 1.1.2 1.5.3.3.9.4 1.5.2l11.7-4.8z" class="st4"/></svg>