<?xml version="1.0" encoding="utf-8"?>
<!-- Generator: Adobe Illustrator 26.2.1, SVG Export Plug-In . SVG Version: 6.00 Build 0)  -->
<svg version="1.1" id="Layer_1" xmlns="http://www.w3.org/2000/svg" xmlns:xlink="http://www.w3.org/1999/xlink" x="0px" y="0px"
	 viewBox="0 0 80 80" style="enable-background:new 0 0 80 80;" xml:space="preserve">
<style type="text/css">
	.st0{fill-rule:evenodd;clip-rule:evenodd;fill:#0185FF;}
	.st1{fill-rule:evenodd;clip-rule:evenodd;fill:#0B1B34;}
	.st2{fill:#FFFFFF;}
	.st3{fill:#0185FF;}
	.st4{fill-rule:evenodd;clip-rule:evenodd;fill:#FFFFFF;}
</style>
<path class="st0" d="M25.5,40.3c-0.4,0-0.8,0.4-0.8,0.8c0,0.4,0.4,0.8,0.8,0.8s0.8-0.4,0.8-0.8S26,40.3,25.5,40.3z M23.1,41.1
	c0-1.3,1.1-2.4,2.4-2.4s2.4,1.1,2.4,2.4c0,1.3-1.1,2.4-2.4,2.4S23.1,42.4,23.1,41.1z"/>
<path class="st1" d="M61.8,23c-0.4,0-0.8,0.4-0.8,0.8s0.4,0.8,0.8,0.8c0.4,0,0.8-0.4,0.8-0.8C62.6,23.3,62.2,23,61.8,23z M59.4,23.8
	c0-1.3,1.1-2.4,2.4-2.4c1.3,0,2.4,1.1,2.4,2.4s-1.1,2.4-2.4,2.4C60.4,26.2,59.4,25.1,59.4,23.8z"/>
<path class="st2" d="M52.8,62.6c0.5-0.7,0.4-1.7-0.3-2.2s-1.7-0.4-2.2,0.3s-0.4,1.7,0.3,2.2C51.3,63.4,52.3,63.3,52.8,62.6z"/>
<path class="st0" d="M50.9,61.1c-0.3,0.4-0.2,0.9,0.1,1.1c0.4,0.3,0.9,0.2,1.1-0.1c0.3-0.4,0.2-0.9-0.1-1.1
	C51.7,60.7,51.2,60.8,50.9,61.1z M50.1,63.5c-1.1-0.8-1.2-2.3-0.4-3.4c0.8-1.1,2.3-1.2,3.4-0.4c1.1,0.8,1.2,2.3,0.4,3.4
	C52.6,64.1,51.1,64.3,50.1,63.5z"/>
<path class="st3" d="M21.4,32.2c0.7,0,1.2-0.5,1.2-1.2s-0.5-1.2-1.2-1.2s-1.2,0.5-1.2,1.2C20.2,31.6,20.7,32.2,21.4,32.2z"/>
<path class="st3" d="M40.2,54.4c1,0,1.8-0.8,1.8-1.8s-0.8-1.8-1.8-1.8s-1.8,0.8-1.8,1.8S39.2,54.4,40.2,54.4z"/>
<path class="st3" d="M50.3,23.6c1,0,1.8-0.8,1.8-1.8S51.3,20,50.3,20s-1.8,0.8-1.8,1.8C48.5,22.8,49.3,23.6,50.3,23.6z"/>
<path class="st3" d="M68.8,44.5c0.5,0,0.9-0.4,0.9-0.9s-0.4-0.9-0.9-0.9s-0.9,0.4-0.9,0.9S68.3,44.5,68.8,44.5z"/>
<path class="st3" d="M57.3,34.2c1.1,0,2-0.9,2-2c0-1.1-0.9-2-2-2s-2,0.9-2,2C55.3,33.3,56.2,34.2,57.3,34.2z"/>
<path class="st2" d="M57.3,31c0.6,0,1.2,0.6,1.2,1.2s-0.6,1.2-1.2,1.2s-1.2-0.6-1.2-1.2C56.1,31.6,56.6,31,57.3,31z M57.3,29.4
	c-1.5,0-2.8,1.3-2.8,2.8s1.3,2.8,2.8,2.8s2.8-1.3,2.8-2.8C60.1,30.7,58.8,29.4,57.3,29.4z"/>
<path class="st3" d="M60.6,15c1.1,0,2-0.9,2-2s-0.9-2-2-2s-2,0.9-2,2S59.5,15,60.6,15z"/>
<path class="st2" d="M60.6,11.8c0.6,0,1.2,0.6,1.2,1.2s-0.6,1.2-1.2,1.2c-0.6,0-1.2-0.6-1.2-1.2S59.9,11.8,60.6,11.8z M60.6,10.2
	c-1.5,0-2.8,1.3-2.8,2.8s1.3,2.8,2.8,2.8s2.8-1.3,2.8-2.8S62.1,10.2,60.6,10.2z"/>
<path class="st0" d="M44.9,34h-4.5v-1.6h4.5V34z"/>
<path class="st0" d="M41.8,35.4V31h1.6v4.5L41.8,35.4L41.8,35.4z"/>
<path class="st0" d="M70.6,33.2v-4.4h1.6v4.4H70.6z"/>
<path class="st0" d="M69.3,30.2h4.4v1.6h-4.4V30.2z"/>
<path class="st1" d="M35.7,42.6l2.7-0.2l-0.1-1.6l-3.5,0.3c-0.2,0-0.4,0.1-0.5,0.3C34,41.6,34,41.8,34,42l0.2,2.2L32,44.1
	c-0.2,0-0.5,0.1-0.6,0.2c-0.2,0.2-0.2,0.4-0.2,0.6l0.2,2.2L29.2,47c-0.4,0-0.8,0.3-0.8,0.7l-0.2,3.8l1.6,0.1l0.2-3l2.3,0.1
	c0.2,0,0.5-0.1,0.6-0.2c0.2-0.2,0.2-0.4,0.2-0.6l-0.2-2.2l2.2,0.1c0.2,0,0.5-0.1,0.6-0.2c0.2-0.2,0.2-0.4,0.2-0.6L35.7,42.6z"/>
<path class="st1" d="M33.4,17.4l2-1.8l-1.1-1.2l-2.6,2.4c-0.2,0.1-0.2,0.4-0.3,0.6c0,0.2,0.1,0.4,0.2,0.6l1.6,1.6l-1.8,1.3
	c-0.2,0.1-0.3,0.4-0.3,0.6s0.1,0.5,0.2,0.6l1.6,1.6L31.1,25c-0.4,0.3-0.4,0.8-0.2,1.1l2.2,3l1.3-0.9l-1.7-2.4l1.9-1.4
	c0.2-0.1,0.3-0.4,0.3-0.6s-0.1-0.5-0.2-0.6l-1.6-1.6l1.8-1.3c0.2-0.1,0.3-0.4,0.3-0.6s-0.1-0.5-0.2-0.6L33.4,17.4z"/>
<path class="st1" d="M53.9,45.4c0.2,0,0.4,0.1,0.6,0.3l1.3,1.7l1.5-1.6l1.2,1.1l-2.2,2.3c-0.2,0.2-0.4,0.3-0.6,0.3
	c-0.2,0-0.5-0.1-0.6-0.3l-1.4-1.7L52.3,49c-0.2,0.2-0.4,0.3-0.6,0.2c-0.2,0-0.4-0.1-0.6-0.3l-2-2.5l1.2-1l1.4,1.8l1.5-1.6
	C53.4,45.5,53.7,45.4,53.9,45.4z"/>
<path class="st3" d="M44.9,12.6c-0.1,0-0.2,0-0.3-0.1c-0.3-0.2-0.5-0.4-0.5-0.7V6.6c0-0.5,0.3-0.8,0.8-0.8H50c0.3,0,0.6,0.2,0.7,0.5
	c0.2,0.3,0.1,0.6-0.2,0.9l-5.1,5.1C45.3,12.5,45.1,12.6,44.9,12.6z"/>
<path class="st2" d="M50,6.6l-5.1,5.1V6.6H50z M50,5h-5.1c-0.9,0-1.6,0.7-1.6,1.6v5.1c0,0.6,0.4,1.2,1,1.4c0.2,0.1,0.4,0.2,0.6,0.2
	c0.4,0,0.8-0.2,1.1-0.5l5.1-5.1c0.5-0.5,0.6-1.1,0.3-1.8C51.3,5.4,50.6,5,50,5z"/>
<path class="st3" d="M63.9,59.9v-5.2h5.2L63.9,59.9z"/>
<path class="st3" d="M42.5,59.4L20.4,37.3l-8.6,20.4L22,67.8L42.5,59.4z"/>
<path class="st4" d="M20.1,35.9l23.8,23.8l-22.1,9.1L10.9,57.9L20.1,35.9z M20.7,38.7l-7.9,18.8l9.4,9.4l18.9-7.8L20.7,38.7z"/>
<path class="st3" d="M6.9,72.8c0.6,0.6,1.5,0.7,2.3,0.4L22,67.9L11.8,57.7L6.5,70.5C6.2,71.3,6.2,72.2,6.9,72.8z"/>
<path class="st4" d="M11.7,56.9c0.3-0.1,0.5,0,0.7,0.2l10.2,10.2c0.2,0.2,0.3,0.5,0.2,0.7c-0.1,0.3-0.2,0.5-0.5,0.6L9.5,73.9
	c-1.1,0.4-2.4,0.2-3.2-0.6c-0.9-0.9-1-2.2-0.6-3.2l0,0l5.4-12.8C11.2,57.1,11.4,56.9,11.7,56.9z M12.1,59.1L7.2,70.8
	c-0.2,0.6-0.1,1.1,0.2,1.5c0.3,0.3,0.9,0.4,1.5,0.2l11.7-4.8L12.1,59.1z"/>
</svg>
