<?xml version="1.0" encoding="utf-8"?>
<!-- Generator: Adobe Illustrator 27.9.0, SVG Export Plug-In . SVG Version: 6.00 Build 0)  -->
<svg version="1.1" id="Layer_1" xmlns="http://www.w3.org/2000/svg" xmlns:xlink="http://www.w3.org/1999/xlink" x="0px" y="0px"
	 viewBox="0 0 137 145" style="enable-background:new 0 0 137 145;" xml:space="preserve">
<style type="text/css">
	.st0{fill:#AFF3FB;}
	.st1{fill:#FBD304;}
	.st2{fill:#FCF1B8;}
	.st3{fill:#2A65B7;}
	.st4{fill:#3C85F6;}
	.st5{fill:#002140;}
	.st6{fill:none;stroke:#002140;stroke-linecap:round;stroke-linejoin:round;}
</style>
<path class="st0" d="M29.7,47.4l-10.6,4.7c0,0-2.8,1.5-2.7,5c0.1,3.5,6.8,16.2,6.8,16.2s2.8,4.1,7.7,2.5
	c4.9-1.6,89.8-42.3,89.8-42.3s-4.4-18.3-10.2-24L29.7,47.4z"/>
<path class="st1" d="M105.1,4.3c0,0,7.2,4.4,11.1,14.4c3.9,10,5.6,18.8,4.2,21.8l0.9,0.3l7.7-3.2c0,0,2.4-9.7-3.7-21.3
	C119.3,4.7,115.3,1.1,113.3,1C111.3,0.9,105.1,4.3,105.1,4.3L105.1,4.3z"/>
<path class="st1" d="M76.1,59.2c0,0-0.1,2.8-4.2,2.8c-4.1,0-8.1-1.4-8.1-1.4l-10.1,4.3c0,0,1.8,4.9,16.1,4.9s17.8-3.9,17.8-5.3
	c0-1.4-6.6-3.4-7.1-3.6C80.2,60.5,77.1,59.2,76.1,59.2L76.1,59.2z"/>
<path class="st0" d="M53.5,65.7l-3.2,10.8c0,0,2.8,6.2,20.4,5.8c17.5-0.4,20.8-5.8,20.8-5.8l-3.2-10.9c0,0-5.5,4.1-16.8,4
	C60,69.4,56,67.7,53.5,65.7L53.5,65.7z"/>
<path class="st1" d="M22.6,72.3l-5.9-12.7c0,0-2.7,3-1.2,7.5S21.2,72.2,22.6,72.3L22.6,72.3z"/>
<path class="st1" d="M11.3,68.5c0,0-2.2-3.7-5.2-3.4l-4.6,2.5c0,0-1.9,3.5,0.6,8.3C4.6,80.6,8.3,81,8.3,81l4.1-2.5
	C12.5,78.5,15.7,75.1,11.3,68.5L11.3,68.5z"/>
<path class="st2" d="M62.6,90.2c0,0-5.9-1.6-7.8-3.7L36.5,127c0,0,1.6,4,7.5,3.7L62.6,90.2L62.6,90.2z"/>
<path class="st2" d="M66.4,90.4v44.7c0,0,4.9,3.2,9,0.1V90L66.4,90.4z"/>
<path class="st2" d="M86.6,86.8L79,90.3l18.4,41.4c0,0,6.6-0.3,7.8-3.7l-0.4-1.6L86.6,86.8L86.6,86.8z"/>
<path class="st3" d="M23.2,73.3c0,0,2.8,4.3,7.7,2.5c4.9-1.8,10-4.7,10-4.7L29.7,47.4l-10.6,4.7c0,0-3.8,3.1-2.4,7.5
	C18.2,64,23.2,73.3,23.2,73.3L23.2,73.3z"/>
<path class="st4" d="M120.4,7c0,0,9.3-3.5,14,3.7c4.7,7.2-0.1,14.4-4.9,16.1C129.6,26.7,125.4,9.5,120.4,7z"/>
<path class="st0" d="M122.2,6.4c0,1.8,1.4,3.5,3.2,3.9c0.9,0.2,1.9,0,2.8,0.1c0.9,0.1,1.8,0.5,2.5,1c0.8,0.6,1.4,1.5,2.2,2.1
	c0.8,0.6,2,0.9,2.8,0.3c0,0-2-6.6-6.7-7.2S122.2,6.4,122.2,6.4L122.2,6.4z"/>
<path class="st5" d="M101.9,13l8.4-3.7c0,0-3.9-5.3-6.7-4.6C100.8,5.3,101.9,13,101.9,13z"/>
<path class="st5" d="M120.6,34.1c-0.2,0-8,3.5-8,3.5s3,4.1,6,3.8C121.6,41,120.6,34.1,120.6,34.1z"/>
<path class="st5" d="M64.4,60.6c0,0,2.4,1.3,6,1.3c3.6,0,5.5-1.8,5.5-1.8l-0.1-5.2L64.4,60.6L64.4,60.6z"/>
<path class="st5" d="M19,71.9c0,0-4.1-4.3-4.3-7.7L10,66.5c0,0,3.4,5.4,3.4,8L19,71.9z"/>
<path class="st5" d="M57.6,80.9l-2.5,5.8l3.5,2.6l4.1,0.7l3.6-8.1L57.6,80.9z"/>
<path class="st5" d="M75.3,82l3.2,8c0,0,5-0.1,8-3.6l-2.7-5.7L75.3,82z"/>
<path class="st5" d="M66.5,90.4c0,0,4.1,2.4,8.4-0.1l0.4-8.3l-8.7,0.2L66.5,90.4L66.5,90.4z"/>
<path class="st5" d="M44,131.3c0,0-6.3-1-7.6-3.7c0,0-3.2,7.4,0.1,9.7C39.7,139.6,44,131.3,44,131.3z"/>
<path class="st5" d="M74.8,135.5c0,0-2.7,1.1-4.1,1c-1.3-0.1-4.1-0.7-4.1-0.7s0.7,8.3,3.9,8.3S75.7,137.7,74.8,135.5L74.8,135.5z"/>
<path class="st5" d="M105.2,127.5c0,0-2.3,2.4-3.8,2.7c-1.5,0.4-3.8,0.9-3.8,0.9s2.9,6.9,6.5,6.3
	C107.7,136.8,106.1,128.9,105.2,127.5L105.2,127.5z"/>
<path class="st5" d="M120.7,7.1c0,0,6.6,11.4,8.2,19.8l2.8-1.5c0,0-3.1-14.9-9.4-18.9C121.7,6.5,120.7,7.1,120.7,7.1L120.7,7.1z"/>
<path class="st6" d="M66.5,82.5v52.8"/>
<path class="st6" d="M75.1,82.2v52.8"/>
<path class="st6" d="M120.5,33.7L40.9,71.2l-11.3-24l80.2-37.7"/>
<path class="st6" d="M29.6,47.2l-9.8,4.6c-3,1.4-4.3,5-2.8,8l6.2,13.1c1.4,3,5,4.3,8,2.9l9.8-4.6"/>
<path class="st6" d="M80.2,60.5c4.5,0.9,7.5,2.4,7.5,4.1c0,2.8-7.6,5-17,5c-8.6,0-15.7-1.9-16.9-4.3"/>
<path class="st6" d="M87.7,64.6L91.1,76c0,3.3-9.1,6-20.4,6c-11.3,0-20.4-2.7-20.4-6l3.1-10.4"/>
<path class="st6" d="M76.2,59c2.9,0.7,4.9,1.9,4.9,3.3c0,2.1-4.8,3.9-10.6,3.9c-5.4,0-9.9-1.5-10.5-3.4"/>
<path class="st6" d="M75.9,59.8c0,1.2-2.7,2.2-6.1,2.2c-2.7,0-5-0.6-5.8-1.5"/>
<path class="st6" d="M75.9,59.8V55"/>
<path class="st6" d="M14.7,63.9l-4.9,2.4"/>
<path class="st6" d="M19.1,71.9l-5.5,2.8"/>
<path class="st6" d="M22.8,72.4c-2.9,0.6-6-1.5-7.3-5c-1.1-3-0.5-6.1,1.2-7.8"/>
<path class="st6" d="M5.1,65.4c0.1-0.1,0.2-0.1,0.3-0.2c2-1,5.1,1.3,6.9,5.1c1.8,3.8,1.6,7.6-0.4,8.6c-0.1,0-0.1,0-0.2,0.1"/>
<path class="st6" d="M5.6,65.2l-3.3,1.9c-2,1-2.2,4.8-0.4,8.6c1.7,3.7,4.7,6,6.8,5.2l3.4-1.9"/>
<path class="st6" d="M102,12.8c-0.6-4.4-0.2-7.5,1.5-8.2c3.1-1.3,9.1,5.9,13.4,16.1c4.3,10.2,5.3,19.5,2.2,20.8
	c-1.6,0.7-3.9-0.9-6.3-3.8"/>
<path class="st6" d="M112.5,1.2c3.1-1.3,9.1,5.9,13.4,16.1c4.3,10.2,5.3,19.5,2.2,20.8"/>
<path class="st6" d="M112.5,1.2l-9,3.4"/>
<path class="st6" d="M127.8,38.2l-9,3.4"/>
<path class="st6" d="M120.4,7.1c1.5-0.7,3.1-1.2,4.9-1.2c6,0,10.9,4.9,10.9,10.9c0,4.7-3,8.7-7.1,10.2"/>
<path class="st6" d="M38.7,65.8l80.2-38.6"/>
<path class="st6" d="M66.6,90.3c0,0,3.8,2.5,8.6,0"/>
<path class="st6" d="M66.6,135.4c0,0,3.8,2.5,8.6,0"/>
<path class="st6" d="M66.5,135.3c0,0,0.2,9,4.3,9c4.1,0,4.4-7.5,4.4-9.3"/>
<path class="st6" d="M57.4,80.6l-21.1,46.7"/>
<path class="st6" d="M66.1,82.5l-21.7,48.1"/>
<path class="st6" d="M54.9,86.4c0,0,2.5,3.9,7.8,3.5"/>
<path class="st6" d="M36.4,127.5c0,0,2.5,3.9,7.8,3.5"/>
<path class="st6" d="M36.4,127.3c0,0-3.5,8.2,0.2,9.9s7.1-5.1,7.8-6.7"/>
<path class="st6" d="M83.9,80.6l21.1,46.8"/>
<path class="st6" d="M75.3,82.5L97,130.6"/>
<path class="st6" d="M86.4,86.4c0,0-2.5,3.9-7.8,3.5"/>
<path class="st6" d="M105,127.5c0,0-2.5,3.9-7.8,3.5"/>
<path class="st6" d="M105,127.3c0,0,3.5,8.2-0.2,9.9s-7.1-5.1-7.8-6.7"/>
</svg>
