<svg xmlns="http://www.w3.org/2000/svg" xml:space="preserve" id="Layer_1" x="0" y="0" viewBox="0 0 138 184"><style>.st0{fill:#f1572f}.st1{fill:#f8b4ff}.st2{fill:#fff9ef}.st3{fill:#ff7102}.st4{fill:#ce4cd8}.st5{fill:#fdd504}.st6{fill:#002140}.st7{fill:none;stroke:#002140;stroke-width:1;stroke-linecap:round;stroke-linejoin:round}.st8{fill:#f58cfd}.st9{fill:#fff1b1}</style><path d="M52.4 39.2s-2.1-3.7-1.7-5.7c.4-2.1 2.5-10 2.5-10l1.1-.7s7 2 16.6 2.1 16.8-2.1 16.8-2.1S93.2 2.4 73.1 1.6c-17-.7-19.4 14-19.4 14l-2.2.3-1.4 2.3s-9.5 2.1-11.5 11.2 1.2 15.4 1.2 15.4 5.9-5.6 9-5.7c3-.2 3.6.2 3.6.1" class="st0"/><path d="M87.8 22.9s-8.5 2.4-15.6 2.1-17.8-2.1-17.8-2.1-.6 2.2 0 5.2 3.9 19 9.1 23l-.5 2.3s-3.1 8.6 8.3 13.2c0 0 7-3.1 8.3-6.3s.4-8.5-.3-9.5c0 0 4-4.5 4.9-7.3.8-2.8 3.9-16.1 3.6-20.6" class="st1"/><path d="M67.1 40.3c3.2 0 5.7-3 5.7-6.8s-2.6-6.8-5.7-6.8c-3.2 0-5.7 3-5.7 6.8s2.5 6.8 5.7 6.8" class="st2"/><path d="M76 40.4c3.2 0 5.7-3 5.7-6.8s-2.6-6.8-5.7-6.8c-3.2 0-5.7 3-5.7 6.8s2.6 6.8 5.7 6.8" class="st2"/><path d="M63.7 45.5s1.3 4.5 7.1 4.7 8-4.3 8-4.3l.1-1s-1.3.1-1.9.1c-.6-.1-3.9-.7-4.1-.6s-1.5.8-1.5.8-1.8-1-2.4-.9c-.7.1-3.3.7-3.3.7l-2.1-.4z" class="st0"/><path d="M39.5 73.7s1.3.2 1.8-.3 2.4-1.9 2.4-1.9l1.4 3.5s1.3.7 2 .2c.7-.4 1.3-1 1.3-1s1.2.9 2 .5 1.6-1.4 1.6-1.4 1.3.8 2.1.4 1.4-2 1.4-2l.8.3s1.3 0 1.7-.2.8-.6.7-1.6-1.8-7.6-5.8-8-7.3-.8-8.3-.7-2.5.7-2.5.7-1.5 2.9-2.4 4.9c-.7 1.9-.2 6.6-.2 6.6m60.4-11s-3.9-.7-4.6-.6-7.2.7-9.6 2.8-2.7 5.5-2.7 5.5-.1 1.5 1 1.9c1.2.4 2.1-.4 2.1-.4s.1 2.3 1.4 2.4 2.4-.7 2.4-.7.8 1.2 1.2 1.5c.4.2 2-.3 2-.3s.3 1.9 2.1 1.3l1.7-.7 1.2-2.8 4.5 1.6c.1.1.5-6.7-2.7-11.5" class="st1"/><path d="m64.1 51.4-5.2-7s-3.6-5.3-7.7-5.5-8.6 3-8.6 3l-11 14.3S18.1 75.1 16.8 83.3s-1 11.9 5.3 13.8c0 0 2.5 1.4 5.5.3s5.8-3.4 5.8-3.4l7.5-8.6 4.6-3.5s-5.5-.7-6.2-10c0 0 .2-8.4 3.5-10.2l8.5.2s4.1.3 5.1 2.2 2.1 4.6 2.1 4.6v2.8l-1.5.7-1.5-.5-.1 1 1.3 1 2.4.4 3-6.9 8.4 4.5 8.5-4.6 3.7 7.4 3.7-.7-.2-1.8s-.7 1.2-2.1.4-1.3-2.2-.8-3c.4-.8 1.2-5.3 5.6-6.2s11-.4 11-.4 3.6 4.6 2.9 8.6-1.1 7.5-2.7 8.5l-3.3 2.2 3.2 3.1 8.7 9.4s5.1 5.3 10.5 3.5 8.4-5.1 5.4-15.6-16.5-28.6-16.5-28.6S99.9 40 94 39.8c-6-.2-8.7 2.3-10.2 4.4l-4.5 6.5s1.7 4.2 1 6.9-4 8.8-9 9c0 0-7.7-2.8-8.7-7.9 0 0 0-5.6 1.5-7.3" class="st3"/><path d="M50 100.9S36.6 97.4 33.3 94l-5.8 3.4-5.5-.3-1.8-.3s-1.6 4.1-1.5 7.5c.2 3.4 4.1 23.9 4.1 25.5s.1 11.4-.1 12.2c-.3.9-2.1 6.9-2.1 6.9s5 3.4 8.4 3.7 14.7.3 15.8.4c1 .1 5.6.9 7.2 1.9s14.3 4.4 20.9 4.3 14-1.8 16.8-3.4c0 0 4.1-3.2 9.6-3.1s11.4.4 14.6-.3 9-3.5 9-3.5-4.3-9.3-2.4-20.1 6.2-28.6 2.4-32.3c0 0-2.7 2.5-6 2.1-3.4-.4-7.5-3.5-7.5-3.5s-6.2 5.2-17.8 6.2l2.2 8.7-10.3 1.2-4.1 9.3-8.6-5.3-8.7 5.2-4-9.1-10-1z" class="st4"/><path d="m59.2 74.1-3.8-1.4-1.3 1-2.1-.4-.9 1-.7.4-.6 2.3 8.5-.8zm23.6.4.4 1.4 8.6 1.1-.1-1.8-1.7-1.5-2 1.2-1.3-1zm-49.3 19s1.7 1.9 3.5 3c1.9 1.1 13 4.3 13 4.3l-1.3-2.2-6.1-4.9 7.6-7-1.8-7.3-4 2.5-6.1 5.7zm58.1 7.8s6-1.3 8.6-1.7c2.5-.4 9.3-4.5 9.3-4.5l-6.2-6.8-5.3-5.4-2.7-1.2-2.2-2.5-2.1 7.6 8 6.9-7.5 6.5zm-51.2 52.1s-1.8 5-7 5.2-8-2.5-9.4-2.5-3 .9-3.2 2.1c-.1 1.2 1.7 5.5 7.5 7.4 5.8 2 12.6 1.4 12.6 1.4s1.5-3.2 3.5-2.9 1.9 3.2 1.9 3.2 3.8 1 5.4.8c1.6-.1 2.1-.7 2.1-.7s.3-3.5-.7-5.3-2-5.5-1.8-7.4c.3-.1-5-1.9-10.9-1.3m57.9-.2s.4 4.4.1 5.1-2.3 4.9-2.1 6.9c.3 2.1 1 2.4 1 2.4s4.3.2 5.1 0 1.7-.8 1.7-.8-.1-2.9 1.9-2.9c2.1 0 3.7 3.2 3.7 3.2s7.3.4 12.6-1.8 7.2-5.8 7.1-6.9c-.1-1.2 0-2.6-1.8-2.5s-5.6 3-8.6 3.1c-2.9.1-5.7-1.6-6-2.1-.4-.5-2.8-3.4-2.8-3.4s-10.9-.3-11.9-.3M77 159.4l-5.5-.2-5.9-.4-1.2 2.6s-4.6 4.6-4.2 8.2c0 0 1.5 1.5 3.8 1.6s3.7.2 3.7.2 1-3.2 2.7-2.9c1.7.4 2.9 4 2.9 4s9.1 1.8 13.1 1.1 7.3-2.9 7.7-3.6 0-3 0-3-.1-1.7-2.2-1.5-6 2-8.2 1c-2.3-1-7.2-3.5-6.7-7.1" class="st0"/><path d="m83.2 76-3.3-9-9.3 4.8-8.4-4.5-4.4 9-9.6 1.1 2.1 9.5-7.6 7 7.6 6.3-2.2 10.1 10 1 4 9.1 8.7-5.2 8.6 5.3 4.1-9.3 10.3-1.2-2.4-9.8 7.5-6.5-8-6.9 2.4-9.6zM58 42.2S54.5 29.5 54.4 28c-.1-1.4-1.1-4.5-1.1-4.5L51.7 29l-1 4.5 1.7 5.7s3.6 1.5 4.5 2.8c.9 1.2 1.1.2 1.1.2M40.1 45s-2.8-9.1-1.9-13c0 0-5.5 4.8-10.3 4.1s-7.6-3.4-8.2-4.4c0 0-2.3 8.2 3.2 11.9 0 0-12.3 8.5-10.8 18.2 0 0 7.1-5 10.7-4.9 0 0-1.8 10.2.2 12.6.1 0 10.2-16.7 17.1-24.5m47.7-20.7s-3 18.2-3.7 19.2c0 0 3-3.8 7.5-3.8 4.5.1 8.4 3.7 8.4 3.7l10.5 13.3 8.8 13.7s.7-6 .5-7.5c-.1-1.5-.4-4.4-.4-4.4s6 2.1 8 3.2c1.9 1.2 2.8 1.8 2.8 1.8s-.1-12.4-11.4-17.9c0 0 6-6.4 3.2-12.1 0 0-3.6 5.4-9.7 3.9-7.5-2.1-19.6-13.1-24.5-13.1" class="st5"/><path d="M39.5 74s2.2 7.2 4.7 7.2 3.8-1.7 3.8-1.7v-2.1l1.7-.8.7-1.7-2-.7s-.8 1.5-1.9 1.3-2.9-3-2.8-3.8c0 .1-3.5 2.3-4.2 2.3m52.3 1.5.4 1.4 1.5.2-.4 2.1s2.2 2.9 4.3 2.7 4.4-4.6 4.4-4.6l.7-2.5s-2.4-1.1-2.8-1.4l-1.5-1.2s-1.5 4.1-2.7 3.8c-1.3-.2-1.8-1.6-1.8-1.6z" class="st6"/><path d="M53.9 22.8s19.9 4.6 34.1 0c0 0 4.6-21.2-16.6-21.2-21.3 0-17.5 21.2-17.5 21.2" class="st7"/><path d="M54.4 23c-.4.2-.9.3-1.3.3-1.9 0-3.4-1.7-3.4-3.9 0-2.1 1.5-3.9 3.4-3.9.2 0 .5 0 .7.1" class="st7"/><path d="M49.8 18.2c-2.4.6-17 5.2-9.9 26.9m14-27.9s22.9-3.8 27.5-13.3m-6.5 14.8s-8.3 3.2-21.2.5m.2 3.6s1.9 31.3 17.5 31.3S88 22.8 88 22.8" class="st7"/><path d="M67.2 39.9c3.1 0 5.6-2.9 5.6-6.5s-2.5-6.5-5.6-6.5-5.6 2.9-5.6 6.5c-.1 3.6 2.5 6.5 5.6 6.5" class="st7"/><path d="M71.7 29.1c1-1.3 2.5-2.1 4.2-2.1 3.1 0 5.6 2.9 5.6 6.5S79 40 75.9 40c-1.7 0-3.2-.9-4.3-2.2" class="st7"/><path d="M67.1 30.5c-1.9 0-3.6 1.6-4 3.7l2.9 1.9-2.5 1.3c.7 1.5 2 2.6 3.6 2.6 2.2 0 4.1-2.1 4.1-4.7 0-2.7-1.8-4.8-4.1-4.8m9.3-.2c-1.9 0-3.6 1.6-4 3.7l2.8 1.9-2.5 1.3c.7 1.5 2 2.6 3.6 2.6 2.2 0 4.1-2.1 4.1-4.7s-1.8-4.8-4-4.8" class="st6"/><path d="M61.5 32.6s-1.9 1.5-3.8-.1m4.3-2.2s-2.4 0-2.9-1.1m22.5 3.6s1.9 1.5 3.8-.1m-4.3-2.3s2.4 0 2.9-1.1M69.1 42.4s1.3-2 2.4-2 2.2 2.1 2.2 2.1m-10.6 1.7c2.1 1.4 4.6.1 5.9 0s1.8.5 2.3 1c0 0 .7-1 1.7-1 1 .1 4.1 1.5 6.2.1" class="st7"/><path d="M63.1 44.2s1.2 6.1 8 6.1 8-5.9 8-5.9" class="st7"/><path d="M63.9 45s2 2.7 7.3 2.5c5.4-.2 7.6-2.5 7.6-2.5m-18.3 4.9S58.9 39.7 51.1 39c-4.8-.5-8.4 2.6-11.1 6.2-4.8 6.3-9.8 12.6-14 19.3-3.6 5.6-16.6 26.4-5.5 32S35.6 87.7 46.6 81M53 23.3c.5 3.5-4.7 10.2-.4 15.7m-4.9-8.2s-.7 4.4 1.5 7.7m.6-17.8s-8 4.1-7.4 14.3" class="st7"/><path d="M48.2 79.5c-.9 1.2-2.1 1.9-3.3 1.9-3.1 0-5.7-4.6-5.7-10.3s2.6-10.3 5.7-10.3c.6 0 1.2.2 1.8.5m3.5 13.6c-.2.7-.3 1.3-.6 1.9" class="st7"/><path d="M43.5 61.1C34.9 63.3 29.6 76.6 24 76.5" class="st7"/><path d="M33.1 69.2c-.2.7-.1 1.5.2 2.2.4.7 1 1.2 1.7 1.4-.4 1.1-.8 2.4-.6 3.6s.9 2.4 2.1 2.7c.5.2 1 .1 1.6.1-.2.9-.4 2-.3 2.9s.4 1.9 1.2 2.5c.5.4 1.2.6 1.8.6m-.9-11.4s2-.1 3.7-2.1m-.4-1c.5.5.8 1.2 1 1.9s.4 1.4.8 2 1.2 1 1.9.9c.7-.2 1.2-.9 1.3-1.6s-.1-1.5-.3-2.1c-.3-.8-.6-1.6-1-2.3s-.9-1.5-1.6-1.9c-.8-.5-1.8-.5-2.7-.4" class="st7"/><path d="M48.3 73.4c.1.1.2.3.3.4.4.6 1.2 1 1.9.9.7-.2 1.2-.9 1.3-1.6s-.1-1.5-.3-2.1c-.3-.8-.6-1.6-1-2.3s-.9-1.5-1.6-1.9c-.8-.5-1.8-.5-2.7-.4" class="st7"/><path d="M51.9 72.5c.1.1.2.3.3.4.4.6 1.2 1 1.9.9.7-.2 1.2-.9 1.3-1.6s-.1-1.5-.3-2.1c-.3-.8-.6-1.6-1-2.3s-.9-1.5-1.6-1.9c-.8-.5-1.8-.5-2.7-.4" class="st7"/><path d="M55.4 70.8c.1.1.2.3.3.4.4.6 1.2 1 1.9.9.7-.2 1.2-.9 1.3-1.6s-.1-1.5-.3-2.1c-.3-.8-.6-1.6-1-2.3s-2.4-6.1-15-4.2m38.9-11.3s1.6-10.2 9.4-10.9c4.8-.5 8.4 2.6 11.1 6.2 4.8 6.3 9.8 12.6 14 19.3 3.6 5.6 16.6 26.4 5.5 32s-15.1-8.8-26.1-15.5" class="st7"/><path d="M93.2 79.3c1 1.7 2.4 2.7 3.9 2.7 3.1 0 5.7-4.6 5.7-10.3s-2.5-10.3-5.7-10.3c-.6 0-1.2.2-1.8.5m-3.6 13.7c.1.4.2.8.3 1.1" class="st7"/><path d="M98.4 61.8c8.6 2.2 13.9 15.5 19.5 15.4" class="st7"/><path d="M108.9 69.9c.2.7.1 1.5-.2 2.2s-1 1.2-1.7 1.4c.4 1.1.8 2.4.6 3.6s-.9 2.4-2.1 2.7c-.5.2-1 .1-1.6.1.2.9.4 2 .3 2.9s-.4 1.9-1.2 2.5c-.5.4-1.2.6-1.8.6m.9-11.4s-2-.1-3.6-2.1m.3-.9c-.5.5-.8 1.2-1 1.9s-.4 1.4-.8 2-1.2 1-1.9.9c-.7-.2-1.2-.9-1.3-1.6s.1-1.5.3-2.1c.3-.8.6-1.6 1-2.3s.9-1.5 1.6-1.9c.8-.5 1.8-.5 2.7-.4" class="st7"/><path d="M93.7 74.1c-.1.1-.2.3-.3.4-.4.6-1.2 1-1.9.9-.7-.2-1.2-.9-1.3-1.6s.1-1.5.3-2.1c.3-.8.6-1.6 1-2.3s.9-1.5 1.6-1.9c.9-.5 1.9-.5 2.8-.4" class="st7"/><path d="M90.1 73.3c-.1.1-.2.3-.3.4-.4.6-1.2 1-1.9.9-.7-.2-1.2-.9-1.3-1.6s.1-1.5.3-2.1c.3-.8.6-1.6 1-2.3s.9-1.5 1.6-1.9c.8-.5 1.8-.5 2.7-.4" class="st7"/><path d="M86.6 71.5c-.1.1-.2.3-.3.4-.4.6-1.2 1-1.9.9-.7-.2-1.2-.9-1.3-1.6s.1-1.5.3-2.1c.3-.8.6-1.6 1-2.3s2.4-6.1 15-4.2M63.8 51.3c-5.5 11 7.5 15.5 7.5 15.5s12.8-4 7.9-15.8m12.6 50.3c14.4-2 17.1-5.9 17.1-5.9m-75.8-1.6s3.8 4.2 16.8 6.7M105.6 66c4.9-2.9 7.5-5.4 7.5-5.4M83 74.6c1.2-.2 2.4-.5 3.6-.8m-31.2-.7c1.1.4 2.1.7 3.3 1M31.7 56s2.3 3.3 6.8 7.3M20.4 96.5c-6.1 7.5 8.4 36.7 0 52.6M123 96.5c6.1 7.5-8.4 36.7 0 52.6m-69.6-26.9c2 9.6-.3 33.5-.3 33.5s22.6 8 36.8 0c0 0-2.7-26.5-1.3-33.5m-68.2 26.9c12.5 8.3 25.7.3 32.7 6.6m69.7-6.6c-12.5 8.3-25.7.3-32.7 6.6M42.5 99c-7.7 4.3 1.9 19-4.4 26.2" class="st7"/><path d="M99.7 99.9c7.7 4.3-1.9 19 4.4 26.2m-31.7-9.7v6m-32 31.1s-3.1 5.4-7.8 5.4c-4.8 0-7.1-3.9-10.2-2.8s-2.9 10.8 18.6 10.8c0 0 1.1-3.1 3.3-3.1s2 3.3 2 3.3 5.7 1.9 7.5.2c2.1-4.6-2.7-6.1-2.1-12.8" class="st7"/><path d="M30.9 158.8c1.2 2.2 1.6 4.8 1.1 7.2m19.8-6.5c-2.9.1-5.7 1.8-7.3 4.2m65.5-10.4s3.1 5.4 7.8 5.4 7.1-3.9 10.2-2.8 2.9 10.8-18.6 10.8c0 0-1.1-3.1-3.3-3.1s-2 3.3-2 3.3-5.8 1.9-7.5.2c-2.1-4.6 3.4-6.9 1.5-14.2" class="st7"/><path d="M119.5 158.6c-1.2 2.2-1.6 4.8-1.1 7.2m-19.8-6.5c2.9.1 5.7 1.8 7.3 4.2m-29.3-4.2s1.8 6 6.4 7.1 7.8-2.1 10.5-.3c2.8 1.8.3 11.2-20.6 6.3 0 0-.4-3.3-2.5-3.8-2.2-.5-2.7 2.8-2.7 2.8s-6 .5-7.4-1.5c-1-5 5.1-7.1 4.9-10.5" class="st7"/><path d="M84.6 166.6c-1.7 1.8-2.7 4.3-2.7 6.8m-17.7-10.9c2.8.8 5.2 3 6.1 5.8M99 93.7l-7.7 6.7 2.3 9.9-10.2.9-4 9.4-8.7-5.3-8.7 5.3-4-9.4-10.2-.9 2.3-9.9-7.7-6.7 7.7-6.7-2.3-9.9 10.2-.9 4-9.4 8.7 5.3 8.7-5.3 4 9.4 10.2.9-2.3 9.9zM88.3 24.1c8.9 1.6 24.9 22.8 34 8.8 0 0 2.2 8.2-3.5 12.4 0 0 11.5 6 11.5 18.6 0 0-6-5.3-11.1-5.5 0 0 1.6 6.9.1 12.2M38 32c-3.8 3.7-13.6 6.5-18.4-.7 0 0-2.2 8.2 3.5 12.4 0 0-11.5 6-11.5 18.6 0 0 6-5.3 11.1-5.5 0 0-1.6 6.9-.1 12.2" class="st7"/><path d="M55.6 95.3h-2.8s-1.2.7-1 1.2S53 98 53 98l3.7 2.1H86l4.5-3.6s.4-1-.4-1.1c-.9-.1-3.5 0-3.5 0l2.5-14s-.4-2-1.8-2H54.4s-1.8.9-1.6 2.5c.2 1.8 2.8 13.4 2.8 13.4" class="st8"/><path d="M55.6 95.3h-3s-.9.3-.7 1.2c.2 1 2 2 2 2l3 1.7zm31 .3-.6 4.6 4.4-3.2s.1-1.3-.4-1.4c-.3-.1-3.4 0-3.4 0" class="st4"/><path d="M70.8 94.2c2.1 0 3.9-1.9 3.9-4.1 0-2.3-1.7-4.1-3.9-4.1-2.1 0-3.9 1.9-3.9 4.1.1 2.2 1.8 4.1 3.9 4.1" class="st9"/><path d="M56.5 100.1 53 82.2c-.3-1.5.6-2.9 1.9-2.9h32.4c1.3 0 2.2 1.4 1.9 2.9l-3.5 17.9m-29.2 0-4.5-3c-.7-.5-.4-1.6.5-1.6h3" class="st7"/><path d="m85.7 100.1 4.4-3c.7-.5.4-1.6-.5-1.6h-3.1m-1 4.6h-29m14.3-5.8c2.1 0 3.9-1.9 3.9-4.1S73 86 70.8 86c-2.1 0-3.9 1.9-3.9 4.1s1.8 4.2 3.9 4.2" class="st7"/></svg>