<svg xmlns="http://www.w3.org/2000/svg" viewBox="0 0 100 106"><path fill="#e4bc07" d="M23.68 4.33s-12.39 4.61-12.83 22.3c-.44 17.7 10.03 40.11 26.1 53.68s36.72 24.48 53.53 12.39 3.39-49.84-3.98-56.77C81.78 29.29 55.53-6.76 23.68 4.34Z"/><path fill="#d18000" d="M13.32 13.76 3.15 26.3S-2.6 45.47 15.39 72.46s41.73 32.74 53.38 32.15l11.65-7.52s-16.7 2.91-37.4-11.62C40.83 83.48 29.6 73.69 23.5 64.35 12.52 47.93 10.38 34.27 10.97 23.94c.55-2.26 1.56-6.29 2.36-10.18Z"/><path fill="#e4bc07" d="M54.06 72.35s2.95 3.54 3.98 4.28l8.26-5.16-2.36-5.9zm6.82 31.83 9.98-7.08-10.92-2.68-8.64 7.61 9.58 2.16Zm-16.4-5.54 7.97-7.49-8.7-5.37-7.28 7.95z"/><path fill="#002140" d="M25.9 13.65s10.91-2.51 26.1 8.11 28.9 28.61 31.85 44.53c0 0 4.57 14.3-4.13 21.23 0 0 13.71-1.18 11.35-21.97s-23-43.21-39.82-51.91c-16.81-8.7-25.36 0-25.36 0Z"/><path fill="#e4bc07" d="m1.98 35.26 8.63-9.18s-.64 7.99 1.2 11.93c-.86.91-8.36 8.9-8.36 8.9m6.36 16.55 7.99-8.5-3.65-8.84-8.32 8.37m13.28 23.02 7.94-8.45-5.61-6.92-7.76 7.94zm11.52 12.27 7.65-8.48-6.42-5.76-7.72 8.22z"/><path fill="none" stroke="#002140" stroke-linecap="round" stroke-linejoin="round" d="M90.38 92.29c14.4-12.03 10.12-40.87-9.55-64.41S33.54-5 19.14 7.03 9.02 47.9 28.69 71.44s47.29 32.88 61.69 20.85"/><path fill="none" stroke="#002140" stroke-linecap="round" stroke-linejoin="round" d="M86.06 84.39c10.38-8.68 5.42-31.73-11.1-51.5C58.44 13.13 36.64 4.14 26.25 12.81c-10.38 8.68-5.42 31.73 11.1 51.5 16.51 19.77 38.32 28.75 48.71 20.08"/><path fill="none" stroke="#002140" stroke-linecap="round" stroke-linejoin="round" d="M25.43 13.5c11.43-2.68 29.04 6.31 42.9 22.91C84.34 55.57 89.5 77.83 80.34 87.08M15.17 11.52S3 25.67 2.89 26.74C-.53 38.83 5.53 61.18 20.01 78.51c14.63 17.5 33.64 27.15 48.36 26.01m13.51-7.89s-12.29 7.78-13.4 7.86"/><path fill="#d18000" d="m49.06 42.4-4.65-5.35-9.27 8.07 22.48 25.81 9.27-8.07-4.65-5.35-5.86 5.11-4.31-4.95 4.72-4.11-4.77-5.47-4.72 4.11-4.09-4.69 5.86-5.11Z"/><path fill="#d18000" d="M32.31 32.53c2.34-2.04 5.74-2.49 9.63-1.63.99.22 1.57-.37 1.3-1.47-.31-1.24-1.57-2.64-2.69-2.91-4.8-1.16-9.01-.65-11.87 1.84-7.24 6.3-3.11 22.93 9.2 37.07 4.86 5.58 10.28 9.95 15.51 12.81 1.22.67 1.99.09 1.68-1.16-.27-1.1-1.31-2.34-2.39-2.95-4.28-2.41-8.67-5.99-12.66-10.56-10.33-11.86-13.78-25.75-7.7-31.04Zm16.91-2.44c-1.25-.71-2.05-.13-1.73 1.14.27 1.09 1.28 2.32 2.36 2.94 4.1 2.39 8.34 5.89 12.14 10.25 3.81 4.38 6.78 9.21 8.6 13.71.47 1.16 1.54 2.34 2.59 2.76 1.2.48 1.88-.21 1.37-1.53-2.13-5.48-5.67-11.33-10.43-16.8-4.75-5.45-9.88-9.64-14.91-12.48ZM69.7 75.47c-2.24 1.95-5.49 2.44-9.17 1.71-.97-.19-1.53.4-1.26 1.49.31 1.27 1.61 2.69 2.74 2.93 4.58.99 8.57.43 11.32-1.97 2.76-2.41 3.89-6.42 3.48-11.23-.1-1.15-1.32-2.61-2.52-3.09-1.05-.42-1.71.06-1.64 1.06.27 3.86-.66 7.09-2.95 9.08Z"/><path fill="none" stroke="#002140" d="m49.06 42.4-4.65-5.35-9.27 8.07 22.48 25.81 9.27-8.07-4.65-5.35-5.86 5.11-4.31-4.95 4.72-4.11-4.77-5.47-4.72 4.11-4.09-4.69 5.86-5.11Z"/><path fill="none" stroke="#002140" d="M32.31 32.53c2.34-2.04 5.74-2.49 9.63-1.63.99.22 1.57-.37 1.3-1.47-.31-1.24-1.57-2.64-2.69-2.91-4.8-1.16-9.01-.65-11.87 1.84-7.24 6.3-3.11 22.93 9.2 37.07 4.86 5.58 10.28 9.95 15.51 12.81 1.22.67 1.99.09 1.68-1.16-.27-1.1-1.31-2.34-2.39-2.95-4.28-2.41-8.67-5.99-12.66-10.56-10.33-11.86-13.78-25.75-7.7-31.04Zm16.91-2.44c-1.25-.71-2.05-.13-1.73 1.14.27 1.09 1.28 2.32 2.36 2.94 4.1 2.39 8.34 5.89 12.14 10.25 3.81 4.38 6.78 9.21 8.6 13.71.47 1.16 1.54 2.34 2.59 2.76 1.2.48 1.88-.21 1.37-1.53-2.13-5.48-5.67-11.33-10.43-16.8-4.75-5.45-9.88-9.64-14.91-12.48ZM69.7 75.47c-2.24 1.95-5.49 2.44-9.17 1.71-.97-.19-1.53.4-1.26 1.49.31 1.27 1.61 2.69 2.74 2.93 4.58.99 8.57.43 11.32-1.97 2.76-2.41 3.89-6.42 3.48-11.23-.1-1.15-1.32-2.61-2.52-3.09-1.05-.42-1.71.06-1.64 1.06.27 3.86-.66 7.09-2.95 9.08Z"/></svg>