<?xml version="1.0" encoding="utf-8"?>
<!-- Generator: Adobe Illustrator 26.5.2, SVG Export Plug-In . SVG Version: 6.00 Build 0)  -->
<svg version="1.1" id="Layer_1" xmlns="http://www.w3.org/2000/svg" xmlns:xlink="http://www.w3.org/1999/xlink" x="0px" y="0px"
	 viewBox="0 0 201 164" style="enable-background:new 0 0 201 164;" xml:space="preserve">
<style type="text/css">
	.st0{fill:#FFF2E8;}
	.st1{fill:#06CE7C;}
	.st2{fill:#F6CE04;}
	.st3{fill:#002140;}
	.st4{fill:#FF7102;}
	.st5{fill:none;stroke:#002140;stroke-linecap:round;stroke-linejoin:round;}
</style>
<path class="st0" d="M89.2,65.9c0,0-2.7-5.9-9.1-6.3C73.8,59.1,68.5,61,68.5,61l-8,8c0,0-6.8-3-14.1-1.1c-7.4,1.9-12.5,11-8.9,22.8
	c0,0-11.8,2.7-13.3,13.1c-1.5,10.3,9.9,16.7,12.7,17.1c0,0-7,11.4,6.1,20.5c10.1,7.8,17.7-0.4,17.7-0.4s2.5,10.8,14.4,11.8
	c11.8,1.1,13.9-6.5,13.9-6.5s3.8,8.2,12.9,8.7c9.1,0.4,12.5-8.2,12.5-8.2s4,7.4,15.4,5.7c11.4-1.7,11.4-10.8,11.4-10.8
	s8.4,5.9,17.7,0.4c9.3-5.5,7.6-16.3,6.5-20.7c0,0,12-5.3,12.5-14.2c0.4-8.9-5.5-15.2-11.6-16c0,0,4.6-13.5-5.1-20.5
	c-9.7-7-18.4-1.3-18.4-1.3s-5.1-10.1-12.7-10.8c-7.6-0.6-13.9,2.5-16.3,6.8c0,0-2.7-8-11.8-8.9C93,56.8,89.2,65.9,89.2,65.9
	L89.2,65.9z"/>
<path class="st1" d="M70.5,59.6c0,0-4-2.2-7.9-1.6c-4,0.6-7.1,3.3-7.8,5.5c-0.6,2.2-0.6,3.3-0.6,3.3s1.7,0.3,3.6,2.2
	c1.9,1.9,5.4,6.2,7.6,6.2h2.2l0.5-2.4c0,0,1.1,1.4,2.7,0.5c1.6-1,1.7-2.5,1.7-2.5s2.1,0.3,2.5-0.2c0.5-0.5,0.5-2.4,0.5-2.4
	S71,60.2,70.5,59.6L70.5,59.6z"/>
<path class="st1" d="M129.3,58.6c0,0,3.5,1.9,2.4,5.1c-1.1,3.2-1.9,7.1-0.5,7.9c1.4,0.8,3,0.5,3,0.5s2.4,2.1,3.3,2.1
	c1,0,2.4-0.2,2.4-0.2s0,1.7,2.2,1.7c2.2,0,3.3-1.6,3.8-2.9c0.5-1.3,3.3-8.4-1.3-12.8C140,55.6,133.7,55.6,129.3,58.6L129.3,58.6z"/>
<path class="st1" d="M126.9,58.8c0,0,6.7-19.2-4.6-22.5c-11.2-3.3-31.8-6.7-36-3c-4.1,3.6-11.7,17.6-11.1,21.9l0.6,4.3
	c0,0,8.4,0.8,10.3,2.8c1.9,2.1,3,3.6,3,3.6s5.3-9.5,12.9-9.3c7.6,0.2,11.8,8.9,11.8,8.9S116.6,58.8,126.9,58.8L126.9,58.8z"/>
<path class="st2" d="M95.5,58.9c0,0,6.5-4.9,13.1-0.2c3.6,4.1,5.2,6.7,5.2,6.7s2.7-4.1,4-4.7c0,0-1-13.9-14.1-14.1
	C90.6,46.4,87,55.8,86.5,57.4s-0.3,4.9-0.3,4.9l3.2,2.8L95.5,58.9L95.5,58.9z"/>
<path class="st3" d="M95.5,58.9c0,0,3.8-2.2,6-2.2c2.2,0,7.1,2.1,7.1,2.1s0.8-5.9-7.3-5.9c-5.4,0-7.1,5.9-7.1,5.9L95.5,58.9
	L95.5,58.9z"/>
<path class="st4" d="M119,40.9c0,0-0.8,5.7,0.2,8.7c1.1,3,6.4,6.9,7.7,9.2l2.4-0.2c0,0,0.5-4.6,1.5-5.6c1.1-1.1,5.3-6.5,4-9.9
	c-1.3-3.4-3.8-5.5-5.3-6.1c0,0,5.3-4.9,4-10.6c-1.3-5.7-5.3-15.2-18.2-16.3c-12.9-1.1-19.4,6.1-21.8,9.7c-2.3,3.6-4.2,6.5-7.4,6.5
	c-3.2,0-14.6,0-19,6.3c-4.4,6.3-0.8,15-0.6,16.3c0.2,1.3,3.6,7.8,2.7,9.9l1.7,1.7c0,0,5.3-1.9,7.2-1.5c0,0-1.5-2.1,0.2-4
	c1.7-1.9,6.8-9.5,7-12.2c0.2-2.7-1.1-7.8-1.1-7.8s5.3,1.1,7.2,2.1C93.4,38.2,105.4,45.8,119,40.9L119,40.9z"/>
<path class="st5" d="M63.5,66c4.9,3.7,5.4,8.6,3.3,9.3c-3.7,1.3-7.2-7.7-12.8-7.9c0-2.9,1.8-8.8,9.8-9.5c7.9-0.7,11.1,7.8,11.7,10.5
	c0.6,2.7-2.2,3.8-3.8,1.5"/>
<path class="st5" d="M68,72.8c0.9,0.7,1.9,1,2.8,0.7c2.1-0.7,1.5-5.6-3.3-9.3"/>
<path class="st5" d="M135.2,70.8c0,0-0.5,2.2,1.8,3.2c2.4,1,5.2-2.8,5.3-8.8"/>
<path class="st5" d="M140.8,71.8c0,0-1.5,3,1,3.8c2.3,0.7,4.2-3.1,4.7-4.8c1.9-5.7-0.6-11.1-6-13.5c-6.8-3-11.1,1.3-11.1,1.3
	s3.5,2,2.1,5.9c-1.3,3.9-2,6.3,0.1,7.3c2.1,1.1,4.7-0.9,5.5-8.8"/>
<path class="st5" d="M129.5,58.8c0,0-12.7-1.7-15.8,7.2c0,0-2.5-9.4-11.2-9.5c-8.7-0.1-13.4,9.1-13.4,9.1s-5.1-9-17.9-5.5"/>
<path class="st5" d="M54.1,67.4c0,0-7.9-2.1-13.6,4.6c-5.6,6.7-4.1,15.6-3.5,18.4c0,0-12.4,3.1-13,13.8c-0.5,10.7,9.5,16,12.6,16.8
	c0,0-6.4,12.2,6,20.3c12.4,8.1,17.9-0.7,17.9-0.7s0.9,10.4,13.9,11.9c13,1.5,14.6-6.8,14.6-6.8s3.2,9.5,13.4,9.1c10.2-0.4,12-9,12-9
	s2.3,8.8,14.4,6.8s12.4-11.9,12.4-11.9s8.6,9.2,21-1.9c8.1-7.1,2.7-18.2,2.7-18.2s12.6-1.6,12.8-15.4c0-6.9-4.9-13.2-11.9-14.4
	c0,0,5.6-11-3.2-19.2c-6.3-6-14.8-4-14.8-4"/>
<path class="st5" d="M86.2,61.9c0.3-8.6,7.3-15.4,16-15.4c8.6,0,15.1,6.3,15.9,14.3"/>
<path class="st5" d="M94.2,59.5c0.5-3.8,3.8-6.7,7.7-6.7c3.9,0,7.2,2.9,7.7,6.7"/>
<path class="st5" d="M119,41.6c-2.8,10,7.2,14.2,7,16.6"/>
<path class="st5" d="M91,51c0,0-2-1.6-2.4-3.2"/>
<path class="st5" d="M97.8,46.8c0,0-1.1-1.6-1.4-2.7"/>
<path class="st5" d="M108.6,47.4c0,0,1.5-1.3,1.7-2.4"/>
<path class="st5" d="M113.6,50.6c0,0,2.2-1.3,2.4-2.7"/>
<path class="st5" d="M129.6,58.2c-1-5.4,11.8-14.5,0.2-20.9"/>
<path class="st5" d="M78.2,58.9c-2.3-6.4,11.9-11.5,5.8-24.1c9.5,1.2,13.9,7.5,24.5,7.5c0,0,25.3,0,25.3-13.5S121,10.2,113.3,10.2
	C91.7,10.2,95,26.3,85,26.3c-14.3,0.4-18.4,4.6-19.9,12.9C63.6,47.6,70.1,55,70,59"/>
<path class="st5" d="M99.6,40.3c0,0,9.3-1.5,7.1-12.6"/>
<path class="st5" d="M112.4,42c0,0,9.1-6.3,4.4-17"/>
<path class="st5" d="M125.2,39.1c0,0,5.7-4.4,1.6-13.8"/>
</svg>
