<svg xmlns="http://www.w3.org/2000/svg" viewBox="0 0 262 172"><defs><clipPath id="a"><path fill="none" d="M.5 11.13h260v149.74H.5z"/></clipPath></defs><g clip-path="url(#a)"><path fill="#d18000" d="m166.1 87.98.03.03c-.12.14-.23.29-.35.46-1.8 2.65-11 16.07-11 16.07v.11c-1.7 0-3.46 0-5.23.01v-.02l12.01-19.18c2.14-.75 4.54.5 4.54 2.53Z"/><path fill="#fed607" d="m157.19 116.06.07.09c-4.51 3.6-7.94 8.9-8.94 14.87l-30.59-.06v-.18c7.15-3.31 2.88-6.62 6.09-10.89 3.2-4.27 8.71-.45 13.13-3.95 2.56-2.03 1.45-5.38 2.56-7.26 1.39-2.35 4.7-.6 6.09-3.91v-.12c1.32 0 2.64 0 3.95-.01 1.78 0 3.53 0 5.23-.01h1.96c.96 2.35.98 9.51.45 11.43m-5.04-2.89c2.29 0 1.98-2.73.32-2.73s-6.94.06-6.94.06c-2.08 0-2.08 2.67-.21 2.67zM166.13 88c2.19-2.61 4.9-.31 3.22 2.32-.33.52-.8 1.21-1.35 2.02-3 4.42-8.54 12.19-8.54 12.19v.1h-4.68v-.11s9.2-13.41 11-16.07c.11-.17.23-.32.35-.46Z"/><path fill="#fff2b2" d="M134.4 104.69c3.61 0 7.42-.02 11.21-.03v.12c-1.39 3.31-4.7 1.56-6.09 3.91-1.11 1.88 0 5.23-2.56 7.26-4.42 3.5-9.93-.32-13.13 3.95s1.07 7.58-6.09 10.89v.18l-11.42-.02v-.14c-.13-.29-.26-.59-.38-.9l.17-.07s5.44-.11 7.69-5.23c2.24-5.12.78-9.18 5.44-11.42 5.76-2.78 10.37.03 11.53-3.31.96-2.78.75-4.06 3.63-5.11v-.06Z"/><path fill="#fed607" d="M134.4 104.69v.06c-2.88 1.06-2.67 2.33-3.63 5.11-1.16 3.34-5.77.53-11.53 3.31-4.66 2.24-3.2 6.3-5.44 11.42s-7.69 5.23-7.69 5.23l-.17.07c-2.34-5.85-3.58-15.99 4.33-25.21v-.02c1.02.1 2.04.08 3.1.07h4.8c3.83-.01 9.7-.03 16.24-.04Z"/><path fill="#03d47c" d="M107.07 82.34s.63-2.96 3.57-3.38c2.45-.36 3.85.45 5.51 2.52 2.14 2.67 3.41 5.91 3.2 8.63-.18 2.31-3.36 2.72-4.98.85-.29-.34-.53-.69-.72-1.04-.92-1.68-.81-3.34-.81-3.34s-.53-1.31-2.62-.64c-1.33.43-1.66 1.39-2.03 1.87-.89 1.15-2.83 0-1.34-1.97.08-.1.2-.3.38-.53l-.02-.02c-.72.84-2.02.39-1.2-1.26.32-.64.71-1.17 1.16-1.59l-.1-.11Z"/><path fill="#fffaf0" d="M26.76 61.12c4.32 0 7.81 3.5 7.81 7.81s-3.5 7.81-7.81 7.81c-.78 0-1.54-.12-2.26-.33a8.25 8.25 0 0 0 2.92-6.31c0-.21 0-.42-.02-.62l-5.79-.1 4.4-3.91a8.34 8.34 0 0 0-3.64-3 7.8 7.8 0 0 1 4.39-1.35"/><path fill="#fed607" d="M34.57 68.93c0-4.31-3.5-7.81-7.81-7.81-1.63 0-3.14.5-4.39 1.35a7.8 7.8 0 0 0-3.43 6.46c0 3.53 2.34 6.51 5.55 7.48.71.22 1.47.33 2.26.33 4.32 0 7.81-3.5 7.81-7.81Zm-8.9-8.08c4.31 0 8 2.62 9.58 6.35.53 1.24.82 2.61.82 4.05 0 1.57-.35 3.07-.98 4.4a10.38 10.38 0 0 1-9.42 6c-3.59 0-6.75-1.82-8.62-4.59a10.36 10.36 0 0 1-1.78-5.81c0-1.37.27-2.69.75-3.89a10.4 10.4 0 0 1 9.65-6.51"/><path fill="#0164bf" d="M257.67 80.28c2.21 0 2.78 3.85-.26 3.85h-2.86c-2.48 0-2.48-3.88.27-3.88 0 0 .64.03 2.84.03Zm-10.05-.31c3 0 3.37 4.44-.66 4.44h-6.28c-3.15 0-2.2 7.43-7.91 7.43-4.4 0-5.42-.07-7.9-.07s-2.48-3.88.28-3.88c0 0 2.49.03 4.69.03 5.86 0 3.85-7.94 9.19-7.94h8.59Zm-2.83 19.41c2.21 0 2.78 3.85-.26 3.85h-2.86c-2.48 0-2.48-3.88.27-3.88 0 0 .64.03 2.85.03m-9.73.08c2.21 0 2.78 3.85-.26 3.85h-9.22c-2.48 0-2.48-3.88.28-3.88 0 0 6.99.03 9.2.03m-6.79 12.42c2.21 0 2.77 3.85-.26 3.85h-2.87c-2.48 0-2.48-3.88.28-3.88 0 0 .64.03 2.85.03"/><path fill="#99f6ff" d="M223.91 131.8c0 2.24.06 6.38.06 7.66s-1.07 2.03-2.56 2.03h-4.97v-.02s.96-.98 1.17-2.37.66-2.59-1.76-7.03q-.225-.42-.6-.96h.01c0-1.61.99-2.14 2.06-2.14h4.12c2.03 0 2.46.91 2.46 2.83Zm-6.51-33.32c3.46 0 3.17 6.23.39 6.23-1.81 0-7.27.04-10.47.04-7.26 0-5.66 9.03-12.38 9.03l-.04.08c-.17-.08-.33-.16-.49-.24a36.5 36.5 0 0 0-7.29-2.59l.02-.09c13.19 0 7.17-12.39 20.3-12.39 0 0 8.05-.06 9.97-.06Zm0 12.38c3.46 0 3.12 6.23.34 6.23-1.81 0-1.45.04-4.65.04-3.99 0-4.92 2.72-6.2 5.18a85 85 0 0 0-4.68-3.81l.02-.02c2.28-3.48 3.46-7.55 10.13-7.55 0 0 3.14-.06 5.06-.06Z"/><path fill="#99f6ff" d="M217.2 87.1c3.46 0 3.17 6.28.39 6.28-1.81 0-11.67.04-14.87.04-11.74 0-9.28 14.9-20.06 14.9-1.09-1.33-2.97-3.04-5.72-3.57v-.05c13.2 0 10.53-17.48 23.66-17.48 0 0 14.69-.11 16.61-.11Z"/><path fill="#fed607" d="M215.85 132.07c2.42 4.45 1.97 5.64 1.76 7.03s-1.17 2.37-1.17 2.37h-17.97s.96-10.89-8.57-18.11l.12-.16c1.71-.85-.87-3.1 1.5-3.84 2.03-.64 4.48 1.71 6.41.85 1.76-.78 1.81-3.31 1.81-3.31l.08-.12c.8.54 1.59 1.11 2.37 1.7 1.62 1.22 3.2 2.52 4.68 3.82 3.77 3.32 6.89 6.66 8.38 8.81q.375.525.6.96"/><path fill="#fff2b2" d="m199.82 116.79-.08.12s-.06 2.53-1.81 3.31c-1.92.85-4.38-1.49-6.41-.85-2.36.75.21 2.99-1.5 3.84l-.12.16c-.41-.31-.84-.61-1.29-.91-1.88-1.23-4.02-2.1-6.29-2.6l.02-.07c3.63-1.39 1.09-3.61 2.56-5.23 2.14-2.35 3.52 0 6.51-2.03l.07-.18c1.02.38 1.99.8 2.92 1.25.16.08.33.16.49.24 1.61.81 3.28 1.82 4.93 2.95"/><path fill="#d18000" d="M189.9 123.36c9.54 7.21 8.57 18.11 8.57 18.11l-2.15-1.73h-.12c-.32-10.14-8.64-18.26-18.86-18.26s-18.43 8.02-18.86 18.07h-.17l-1.92 1.81c0-4.59.21-10.68 5.55-15.91 5.33-5.23 13.44-7.11 20.38-5.59 2.27.5 4.41 1.37 6.29 2.6.45.3.88.6 1.29.91Z"/><path fill="#002140" d="M196.2 139.75c0 .2.01.41.01.61 0 10.43-8.45 18.87-18.87 18.87s-18.87-8.45-18.87-18.87c0-.27 0-.54.02-.81.42-10.05 8.7-18.07 18.86-18.07s18.54 8.12 18.86 18.27Zm-5.68.45c0-7.28-5.9-13.18-13.18-13.18s-13.18 5.9-13.18 13.18 5.9 13.18 13.18 13.18 13.18-5.9 13.18-13.18"/><path fill="#fed607" d="M148.33 131.02c.99-5.98 4.42-11.27 8.94-14.87 1.93-1.54 4.06-2.78 6.28-3.62 7.07-2.68 14.05-3.13 20.24-2.18 1.13.17 2.24.39 3.32.66 1.52.37 2.98.82 4.37 1.34l-.07.18c-2.99 2.03-4.38-.32-6.51 2.03-1.47 1.62 1.07 3.84-2.56 5.23l-.02.07c-6.94-1.53-15.04.36-20.38 5.59s-5.55 11.32-5.55 15.91l-7.26.02v-.02c-.57-1.72-.9-3.43-1.03-5.12-.14-1.78-.06-3.52.23-5.22"/><path fill="#002140" d="M186.98 142.39c.44-1.88 2.01-2.12 1.69-.2-.4 2.42-2.13 6.28-6.18 8.26-2.28 1.11-2.83-.43-1.18-1.17 3.27-1.48 2.36-3.34.21-2.08-1.55.91-2.65-.36-.49-1.33 1.62-.73 2.67-2.06 2.96-4 .33-2.24 1.89-1.31 1.27.27-.85 2.19.92 3.67 1.72.27Z"/><path fill="#99f6ff" d="M177.34 127.01c7.28 0 13.18 5.9 13.18 13.18s-5.9 13.18-13.18 13.18-13.18-5.9-13.18-13.18 5.9-13.18 13.18-13.18m11.33 15.18c.32-1.92-1.26-1.68-1.69.2-.79 3.4-2.57 1.91-1.72-.27.62-1.57-.94-2.5-1.27-.27-.29 1.94-1.34 3.28-2.96 4-2.16.97-1.06 2.24.49 1.33 2.15-1.26 3.06.6-.21 2.08-1.66.75-1.11 2.28 1.18 1.17 4.06-1.97 5.78-5.84 6.18-8.26Zm-6.29-1.89c0-2.79-2.26-5.05-5.05-5.05s-5.05 2.26-5.05 5.05 2.26 5.05 5.05 5.05 5.05-2.26 5.05-5.05m-8.62-5.77c2.34-1.15 1.11-2.35-.43-1.45-2.15 1.26-3.06-.6.21-2.08 1.65-.75 1.1-2.29-1.18-1.17-4.06 1.97-5.68 5.54-6.09 7.95-.32 1.92 1.17 2.07 1.71.21.8-2.78 2.46-2.03 1.6.16-.62 1.57.96 2.48 1.44.27.35-1.6 1.23-3.15 2.73-3.89Z"/><path fill="#fed607" d="m183.83 110.08-.04.28c-6.19-.95-13.18-.5-20.24 2.18-2.22.84-4.35 2.08-6.28 3.62l-.07-.09c.53-1.92.51-9.08-.45-11.43.93 0 1.84 0 2.72-.01 8.97-.03 15.67-.05 15.67-.05.63 0 1.23.06 1.8.17 2.76.54 4.63 2.24 5.72 3.58.8.97 1.18 1.75 1.18 1.75Zm-6.49 25.18c2.79 0 5.05 2.26 5.05 5.05s-2.26 5.05-5.05 5.05-5.05-2.26-5.05-5.05 2.26-5.05 5.05-5.05m2.43 4.99c0-1.35-1.09-2.44-2.44-2.44s-2.44 1.09-2.44 2.44 1.09 2.44 2.44 2.44 2.44-1.09 2.44-2.44"/><path fill="#fed607" d="M177.33 137.81c1.35 0 2.44 1.09 2.44 2.44s-1.09 2.44-2.44 2.44-2.44-1.09-2.44-2.44 1.09-2.44 2.44-2.44"/><path fill="#002140" d="M173.32 133.09c1.55-.91 2.77.29.43 1.45-1.5.74-2.38 2.29-2.73 3.89-.48 2.21-2.06 1.31-1.44-.27.85-2.19-.8-2.94-1.6-.16-.54 1.86-2.03 1.71-1.71-.21.4-2.42 2.03-5.98 6.09-7.95 2.28-1.11 2.83.43 1.18 1.17-3.27 1.48-2.36 3.34-.21 2.08Z"/><path fill="#e4bc07" d="M168.03 92.35c4.54 3.1 6.83 8.65 7.1 12.22 0 0-6.69.02-15.66.05v-.1s5.54-7.76 8.54-12.19h.02Zm-18.9 49.01v.02l-53.17.17c-.05-.09-1.33-2.15-3.6-5.27l.06-.05h55.68c.13 1.69.47 3.4 1.03 5.12Z"/><path fill="#fed607" d="m117.74 130.97 30.59.06c-.28 1.69-.37 3.44-.23 5.22H92.42l-.06.05c-1.14-1.56-2.52-3.38-4.13-5.35l.02-.02 18.07.03 11.42.02Zm.42-26.45v.22h-4.8v-.05l-1.68-5.56-1.21-4.02-2.19-7.28h-.09c.37-.49.69-1.45 2.03-1.88 2.09-.67 2.62.64 2.62.64s-.11 1.66.81 3.34 4.53 14.59 4.53 14.59Z"/><path fill="#d18000" d="m110.47 95.11 1.21 4.02h-.03s-4.38 1.67-4.54 1.67h-.22c-.41-1.28-.89-2.75-1.29-3.96l.12-.04c.16 0 4.49-1.6 4.49-1.6l.26-.08Z"/><path fill="#fed607" d="M110.26 104.67v.02c-7.9 9.22-6.67 19.36-4.33 25.21.12.32.25.62.38.9v.14l-18.07-.03-.02.02c-2.09-2.56-4.55-5.37-7.32-8.17l.07-.06 10.95-15.02c.86-1.19.8-2.73-.15-3.78 0-.08.01-.17.01-.25a3.04 3.04 0 0 0-5.5-1.79l-11.16 15.35-.08.09c-.35-.3-.71-.6-1.07-.89-.45-.38-.91-.74-1.37-1.11l.02-.02 6.81-9.35c.83-1.15.75-2.57-.11-3.62.09-.29.13-.6.13-.9 0-.94-.43-1.87-1.25-2.46a3.047 3.047 0 0 0-4.25.66l-7.98 10.98-.04.07c-.38-.22-.76-.43-1.16-.64h-.01c-.62-.33-1.26-.64-1.92-.94v-.03l3.92-5.31c.75-1.03.76-2.38.12-3.4h-.04c.11-.33.16-.66.16-.98a3.04 3.04 0 0 0-5.5-1.79l-6.55 8.98v.06c-3.07-.6-6.56-.91-10.64-.86v-.08s-.77-10.64 2.22-13.31v-.05h33.5c1 0 1.94-.01 2.89.07 1.65.14 3.37.56 5.59 1.78.82.45 1.91 1.03 3.16 1.69 1.09.57 2.29 1.2 3.54 1.85 4.12 2.14 8.71 4.5 11.03 5.77.54.3 1.07.53 1.59.7.82.28 1.61.43 2.4.5Z"/><path fill="#99f6ff" d="M96.48 95.68c-.71 1.15-1.15 1.85-1.15 1.85l-.08.16c-1.25-.65-2.46-1.28-3.54-1.85l.1-.18 12.23-19.28-9.38-.19c-3.49 0-3.27-3.82-.06-3.82h10.24c2.78 0 4.34 2.33 3.06 4.68-1.03 1.89-8.5 13.95-11.41 18.63Z"/><path fill="#e4bc07" d="m107.92 103.99-.06.17c-.52-.18-1.05-.41-1.59-.7-2.32-1.27-6.91-3.63-11.03-5.77l.08-.16s.44-.7 1.15-1.85c.62-.21 4.35-1.45 5.43-1.84 1.17-.43 2.35-.96 2.99.85.16.44.41 1.21.71 2.12.4 1.21.88 2.68 1.29 3.97.57 1.76 1.02 3.19 1.02 3.19Z"/><path fill="#e5fafe" d="M104.03 76.38 91.8 95.66l-.1.18c-1.25-.66-2.34-1.24-3.16-1.69-2.22-1.23-3.94-1.64-5.59-1.78l.47-.3 11.23-15.88z"/><path fill="#fed607" d="m95.96 141.55-40.57.21s-.42-6.28-3.41-11.83c-.51-.95-1.23-2.1-2.21-3.27l.08-.07c2.45-5.63 6.68-.73 9.88-2.54 3.19-1.8 2.99-5.21 5.15-6.45s5.97 1.74 9.03-1.12l.07-.09c.36.29.71.59 1.07.89 1.57 1.34 3.07 2.71 4.49 4.11.47.45.92.9 1.37 1.36 2.77 2.8 5.23 5.61 7.32 8.17 1.61 1.97 2.99 3.79 4.13 5.35 2.27 3.12 3.55 5.19 3.6 5.27Z"/><path fill="#002140" d="M91.78 103.89c.95 1.05 1.01 2.59.15 3.78l-10.95 15.02-.07.06c-.45-.46-.91-.91-1.37-1.36l.11-.11 11.56-15.86c.34-.47.53-1 .57-1.54Z"/><path fill="#99f6ff" d="M91.78 103.89c-.04.54-.23 1.07-.57 1.54l-11.56 15.86-.11.11a99 99 0 0 0-4.49-4.11l.08-.09 11.16-15.35a3.04 3.04 0 0 1 5.5 1.79c0 .08 0 .17-.01.25"/><path fill="#002140" d="M79.33 102.31c.86 1.05.95 2.47.11 3.62l-6.81 9.35-.02.02c-.08-.06-.16-.13-.24-.19-.46-.36-.92-.71-1.38-1.06l.03-.05 7.86-10.79c.2-.28.35-.58.45-.89Z"/><path fill="#99f6ff" d="M79.33 102.31c-.1.31-.25.61-.45.89l-7.86 10.79-.03.05c-1.59-1.2-3.24-2.34-5.04-3.38l.04-.07 7.98-10.98a3.03 3.03 0 0 1 4.25-.66 3.02 3.02 0 0 1 1.25 2.46c0 .3-.04.6-.13.9Z"/><path fill="#fff2b2" d="m73.98 116.39-.07.09c-3.06 2.87-6.87-.12-9.03 1.12s-1.96 4.65-5.15 6.45c-3.19 1.81-7.43-3.09-9.88 2.54l-.08.07c-1.7-2.06-4.17-4.23-7.63-5.63l.12-.28c.85-2.46 2.88-3.52 4.27-3.74 3.11-.48 5.34 1.07 8.01-.75 2.67-1.81 1.74-3.34 4.06-5.23 2.79-2.27 5.97-1.09 6.18-1.01h.01c.39.21.78.42 1.16.64 1.8 1.03 3.45 2.18 5.04 3.38.46.35.92.7 1.38 1.06.08.06.16.13.24.19.46.36.92.73 1.37 1.11Z"/><path fill="#002140" d="M66.9 100.34c.64 1.02.63 2.37-.12 3.4l-3.91 5.31v.03c-.57-.25-1.14-.49-1.74-.72s5.3-7.21 5.3-7.21c.19-.26.33-.53.43-.82h.04Z"/><path fill="#99f6ff" d="M67.01 99.36c0 .33-.05.65-.16.97-.1.29-.24.57-.43.82l-5.3 7.2c-1.86-.71-3.89-1.3-6.17-1.75v-.06l6.56-8.98a3.04 3.04 0 0 1 5.5 1.79Z"/><path fill="#fed607" d="M62.85 109.08c.66.3 1.3.61 1.92.94-.21-.08-3.39-1.26-6.18 1.01-2.32 1.89-1.39 3.42-4.06 5.23-2.67 1.82-4.9.27-8.01.75-1.39.21-3.42 1.28-4.27 3.74l-.12.28c-2.78-1.13-6.19-1.76-10.35-1.45-14.41 1.07-18.9 15.59-18.9 15.59-2.57-1.23-3.95-4.85-.71-11.41.12-.25.25-.51.39-.76 1.51-2.85 4.02-6.04 7.41-8.88.78-.65 1.6-1.29 2.47-1.9 4.69-3.3 10.68-5.83 17.71-6.31.26-.02.53-.03.78-.05 1.17-.07 2.29-.11 3.37-.12 4.08-.06 7.57.26 10.62.86 2.28.44 4.31 1.04 6.17 1.76.59.23 1.17.47 1.72.72Zm-9.67-45.23c4.58.47 4.63 5.91-.35 5.91h-7.34v.03c5.2 0 5.5 5.95.3 5.95H35.3l-.2-.1c.63-1.34.98-2.83.98-4.4 0-1.44-.29-2.8-.82-4.05l.29-.05c1.36-2.64 7.07-9.4 13.79-9.4h9.18c6.18 0 6.11 6.06.65 6.06-1.56 0-3.78.02-5.98.03Z"/><path fill="#d18000" d="m55.39 141.77-2.82-2.48c-.55-9.93-8.78-17.81-18.84-17.81-8.63 0-15.91 5.79-18.16 13.7l-.07-.02-2.6 2.46v-2.45s4.48-14.52 18.9-15.59c4.16-.31 7.57.33 10.35 1.45 3.45 1.4 5.93 3.57 7.63 5.63.98 1.18 1.7 2.32 2.21 3.27 2.99 5.55 3.41 11.83 3.41 11.83Z"/><path fill="#fed607" d="M48.26 81.23v.02s6.32-.81 6.25 1.36c-.06 1.78-4.46 1.62-6.96 1.4v.05s7.04 1.36 5.92 3.44c-1.35 2.5-7.48-1.63-7.63-1.73l4.53 6.37v.16H38.2v-.21c4.69-5.86 1.92-12.73-4.68-14.03.62-.72 1.15-1.53 1.56-2.41l.2.1h4.77c2.28 1.34 3.41 3.02 3.89 4.22 0 0 7.41-4.52 8.8-1.92.75 1.4-2.18 2.53-4.49 3.18Z"/><path fill="#002140" d="M52.57 139.29c.02.35.03.71.03 1.07 0 10.43-8.45 18.87-18.87 18.87s-18.88-8.45-18.88-18.87c0-1.79.25-3.53.72-5.18 2.25-7.91 9.53-13.7 18.16-13.7 10.06 0 18.29 7.88 18.84 17.81m-5.66.91c0-7.28-5.9-13.18-13.18-13.18s-13.18 5.9-13.18 13.18 5.9 13.18 13.18 13.18 13.18-5.9 13.18-13.18"/><path fill="#fff2b2" d="M46.56 92.3v.05c-2.99 2.67-2.23 13.31-2.23 13.31v.08c-1.08.01-2.2.05-3.37.12v-.21c-.99-1.72-2.55-3.88-5.98-5.47l.02-.03c0-7.15 2.94-7.85 2.94-7.85z"/><path fill="#002140" d="M43.37 142.39c.44-1.88 2.01-2.12 1.69-.2-.4 2.42-2.13 6.28-6.18 8.26-2.28 1.11-2.83-.43-1.18-1.17 3.27-1.48 2.36-3.34.22-2.08-1.55.91-2.65-.36-.49-1.33 1.62-.73 2.67-2.06 2.96-4 .33-2.24 1.89-1.31 1.27.27-.86 2.19.92 3.67 1.72.27Z"/><path fill="#99f6ff" d="M33.73 127.01c7.28 0 13.18 5.9 13.18 13.18s-5.9 13.18-13.18 13.18-13.18-5.9-13.18-13.18 5.9-13.18 13.18-13.18m11.33 15.18c.32-1.92-1.25-1.68-1.69.2-.79 3.4-2.57 1.91-1.72-.27.61-1.57-.94-2.5-1.27-.27-.29 1.94-1.34 3.28-2.96 4-2.16.97-1.06 2.24.49 1.33 2.15-1.26 3.06.6-.22 2.08-1.65.75-1.1 2.28 1.18 1.17 4.06-1.97 5.78-5.84 6.18-8.26Zm-6.28-1.89c0-2.79-2.26-5.05-5.05-5.05s-5.05 2.26-5.05 5.05 2.26 5.05 5.05 5.05 5.05-2.26 5.05-5.05m-8.63-5.77c2.34-1.15 1.11-2.35-.44-1.45-2.15 1.26-3.06-.6.22-2.08 1.65-.75 1.1-2.29-1.18-1.17-4.06 1.97-5.68 5.54-6.08 7.95-.32 1.92 1.17 2.07 1.71.21.8-2.78 2.45-2.03 1.6.16-.61 1.57.96 2.48 1.44.27.35-1.6 1.23-3.15 2.73-3.89"/><path fill="#fff2b2" d="M40.95 105.65v.21c-.25.02-.51.03-.77.05-7.03.48-13.02 3.01-17.71 6.31l-.06-.08c-1.63-3.87-1.26-10.17.84-14.08V98c5.39.08 9.11.96 11.73 2.18 3.43 1.59 5 3.75 5.97 5.47"/><path fill="#fed607" d="M33.73 135.26c2.79 0 5.05 2.26 5.05 5.05s-2.26 5.05-5.05 5.05-5.05-2.26-5.05-5.05 2.26-5.05 5.05-5.05m2.44 4.99c0-1.35-1.09-2.44-2.44-2.44s-2.44 1.09-2.44 2.44 1.09 2.44 2.44 2.44 2.44-1.09 2.44-2.44"/><path fill="#fed607" d="M33.73 137.81c1.35 0 2.44 1.09 2.44 2.44s-1.09 2.44-2.44 2.44-2.44-1.09-2.44-2.44 1.09-2.44 2.44-2.44"/><path fill="#002140" d="M29.71 133.09c1.55-.91 2.78.29.44 1.45-1.5.74-2.38 2.29-2.73 3.89-.48 2.21-2.06 1.31-1.44-.27.86-2.19-.8-2.94-1.6-.16-.54 1.86-2.03 1.71-1.71-.21.4-2.42 2.03-5.98 6.08-7.95 2.28-1.11 2.83.43 1.18 1.17-3.27 1.48-2.36 3.34-.22 2.08M27.4 69.48c.02.2.02.41.02.62 0 2.53-1.13 4.79-2.92 6.31a7.82 7.82 0 0 1-5.55-7.48c0-2.69 1.36-5.06 3.43-6.46 1.48.63 2.74 1.68 3.64 3l-4.4 3.91 5.79.1Z"/><path fill="#fff2b2" d="M23.24 98v.06c-2.1 3.91-2.47 10.22-.84 14.08l.06.08c-.87.61-1.69 1.24-2.47 1.9l-.26-.3c-2.67-3.42-2.56-11.21-.12-15.76 1.29-.06 2.5-.07 3.63-.06m-6.2-20.94-.33-.14c-5.84-.24-15.53-2.56-15.53-3.84s14.73-5.76 14.73-5.76l.1.04c-.49 1.2-.75 2.51-.75 3.89 0 2.16.66 4.16 1.78 5.81"/><path fill="#99f6ff" d="M12.9 135.17v2.45s-2.67.06-3.95.06-3.4.05-3.4-3.79.19-4.91.19-6.83c0-2.46 1.92-3.31 3.84-3.31h2.56l.04.02c-3.24 6.56-1.86 10.17.71 11.41Z"/><path fill="none" stroke="#002140" stroke-linecap="round" stroke-linejoin="round" d="m83.42 92.07 11.23-15.88 9.38.19L91.8 95.66"/><path fill="none" stroke="#002140" stroke-linecap="round" stroke-linejoin="round" d="M183.83 110.08s-.38-.78-1.18-1.75c-1.09-1.34-2.97-3.04-5.72-3.58-.56-.11-1.16-.17-1.8-.17 0 0-6.69.02-15.67.05h-4.68c-1.7 0-3.46 0-5.23.01-1.31 0-2.63 0-3.95.01-3.79 0-7.6.02-11.21.03-6.54.02-12.4.03-16.23.04h-4.8c-1.06 0-2.08.03-3.1-.07a10 10 0 0 1-3.99-1.2c-2.32-1.27-6.91-3.63-11.03-5.77-1.25-.65-2.46-1.28-3.54-1.85-1.25-.66-2.34-1.24-3.16-1.69-2.22-1.23-3.94-1.64-5.59-1.78-.96-.08-1.89-.07-2.89-.07H37.94s-2.94.69-2.94 7.85"/><path fill="none" stroke="#002140" stroke-linecap="round" stroke-linejoin="round" d="M95.33 97.54s.44-.7 1.15-1.85c2.9-4.68 10.37-16.75 11.4-18.63 1.28-2.35-.28-4.68-3.06-4.68H94.58c-3.21 0-3.43 3.82.06 3.82m60.15 28.33s9.2-13.41 11-16.07c.11-.17.23-.32.35-.46 2.19-2.61 4.9-.31 3.22 2.32-.33.52-.8 1.21-1.35 2.02-3 4.42-8.54 12.19-8.54 12.19m8.56-12.18c4.54 3.1 6.83 8.65 7.11 12.22M46.56 92.35c-2.99 2.67-2.23 13.31-2.23 13.31m20.45 4.37c.39.21.78.42 1.16.64 1.8 1.03 3.45 2.18 5.04 3.38.46.35.92.7 1.38 1.06.08.06.16.13.24.19.46.36.92.73 1.37 1.11.36.29.71.59 1.07.89 1.57 1.34 3.07 2.71 4.49 4.11.47.45.92.9 1.37 1.36 2.77 2.8 5.23 5.61 7.32 8.17 1.61 1.97 2.99 3.79 4.13 5.35 2.27 3.12 3.55 5.19 3.6 5.27l-40.57.21s-.42-6.28-3.41-11.83c-.51-.95-1.23-2.1-2.21-3.27-1.7-2.06-4.17-4.23-7.63-5.63-2.78-1.13-6.19-1.76-10.35-1.45-14.41 1.07-18.9 15.59-18.9 15.59-2.57-1.23-3.95-4.85-.71-11.41.12-.25.25-.51.39-.76 1.51-2.85 4.02-6.04 7.41-8.88.78-.65 1.6-1.29 2.47-1.9 4.69-3.3 10.68-5.83 17.71-6.31.26-.02.53-.03.79-.05 1.17-.07 2.29-.11 3.37-.12 4.08-.06 7.57.26 10.62.86 2.28.44 4.31 1.04 6.17 1.76a34 34 0 0 1 3.64 1.66m-23.79-4.38c-.98-1.72-2.54-3.88-5.97-5.47-2.63-1.22-6.35-2.1-11.73-2.18q-1.695-.03-3.63.06m-.01 0c-2.44 4.55-2.55 12.34.12 15.76"/><path fill="none" stroke="#002140" stroke-linecap="round" stroke-linejoin="round" d="M23.24 98.06c-2.1 3.91-2.47 10.22-.84 14.08m19.86 8.61c.85-2.46 2.88-3.52 4.27-3.74 3.11-.48 5.34 1.07 8.01-.75 2.67-1.81 1.74-3.34 4.06-5.23 2.79-2.27 5.97-1.09 6.18-1.01h.01M49.85 126.6c2.45-5.63 6.68-.73 9.88-2.54 3.19-1.8 2.99-5.22 5.15-6.45 2.16-1.24 5.97 1.74 9.03-1.12M12.9 135.17v2.45s-2.67.06-3.95.06-3.4.05-3.4-3.79.19-4.91.19-6.83c0-2.46 1.92-3.31 3.84-3.31h2.56m42.83-17.21 6.55-8.98a3.04 3.04 0 0 1 5.34 2.76c-.1.29-.24.57-.43.82l-5.3 7.2m5.77-8c.64 1.02.63 2.37-.12 3.4l-3.91 5.31m3.11 1.55 7.98-10.98a3.03 3.03 0 0 1 4.25-.66 3.02 3.02 0 0 1 1.25 2.46c0 .3-.04.6-.13.9-.1.31-.25.61-.45.89L71.02 114"/><path fill="none" stroke="#002140" stroke-linecap="round" stroke-linejoin="round" d="M79.31 102.29s0 .01.01.02c.86 1.05.95 2.47.11 3.62l-6.81 9.35m2.51 1.91 11.16-15.35a3.04 3.04 0 0 1 5.5 1.79c0 .08 0 .17-.01.25-.04.54-.23 1.07-.57 1.54l-11.56 15.86"/><path fill="none" stroke="#002140" stroke-linecap="round" stroke-linejoin="round" d="M91.78 103.89c.95 1.05 1.01 2.6.15 3.78l-10.95 15.02m14.55 18.87h.42l53.17-.18 7.26-.02"/><path fill="none" stroke="#002140" stroke-linecap="round" stroke-linejoin="round" d="M149.13 141.36c-.57-1.72-.9-3.43-1.03-5.12-.14-1.78-.06-3.52.23-5.22.99-5.98 4.42-11.27 8.94-14.87 1.93-1.54 4.06-2.78 6.28-3.62 7.07-2.68 14.05-3.13 20.24-2.18 1.13.17 2.24.39 3.32.66 1.52.37 2.98.82 4.37 1.34 1.02.38 1.99.8 2.92 1.25.16.08.33.16.49.24 1.61.81 3.28 1.82 4.93 2.95.8.54 1.59 1.11 2.37 1.7 1.62 1.22 3.2 2.52 4.68 3.82 3.77 3.32 6.89 6.66 8.38 8.81.24.35.45.67.6.96 2.42 4.45 1.97 5.64 1.76 7.03s-1.17 2.37-1.17 2.37h-17.97s.96-10.89-8.57-18.11c-.41-.31-.84-.61-1.29-.91-1.88-1.23-4.02-2.1-6.29-2.6-6.94-1.53-15.04.36-20.38 5.59s-5.55 11.32-5.55 15.91l1.92-1.81"/><path fill="none" stroke="#002140" stroke-linecap="round" stroke-linejoin="round" d="m88.25 130.91 18.07.03 11.42.02 30.59.06h.05m-55.96 5.21h55.54m-37.7-31.54c-7.9 9.22-6.66 19.36-4.33 25.21.12.32.25.62.38.9m50.44-26.17c.96 2.35.98 9.51.45 11.43"/><path fill="none" stroke="#002140" stroke-linecap="round" stroke-linejoin="round" d="M106.1 129.83s5.44-.11 7.69-5.23c2.24-5.12.78-9.18 5.44-11.42 5.76-2.78 10.37.03 11.53-3.31.96-2.78.75-4.06 3.63-5.11m-16.65 26.03c7.15-3.31 2.88-6.62 6.09-10.89 3.2-4.27 8.71-.45 13.13-3.95 2.56-2.03 1.45-5.38 2.56-7.26 1.39-2.35 4.7-.6 6.09-3.91m36.72 15.01c3.63-1.39 1.09-3.61 2.56-5.23 2.14-2.35 3.52 0 6.51-2.03m-1.38 10.68c1.71-.85-.87-3.1 1.49-3.84 2.03-.64 4.48 1.71 6.41.85 1.76-.78 1.82-3.31 1.82-3.31m-54.21-6.41c-2.08 0-2.08 2.67-.21 2.67h6.83c2.29 0 1.98-2.73.32-2.73s-6.94.06-6.94.06m80.33-11.07c-2.76 0-2.76 3.88-.28 3.88h9.22c3.03 0 2.46-3.85.26-3.85s-9.2-.03-9.2-.03m-.99-7.67c-2.48 0-2.48-3.88.28-3.88 0 0 2.49.03 4.69.03 5.86 0 3.85-7.94 9.19-7.94h8.59c3 0 3.37 4.44-.66 4.44h-6.28c-3.15 0-2.2 7.43-7.91 7.43-4.4 0-5.42-.07-7.9-.07Zm.56 20.1c-2.76 0-2.76 3.88-.28 3.88h2.87c3.03 0 2.46-3.85.26-3.85s-2.85-.03-2.85-.03m16.52-12.51c-2.76 0-2.76 3.88-.27 3.88h2.86c3.03 0 2.46-3.85.26-3.85s-2.85-.03-2.85-.03m12.87-19.1c-2.76 0-2.76 3.88-.27 3.88h2.86c3.03 0 2.46-3.85.26-3.85s-2.84-.03-2.84-.03ZM96.39 95.71l.09-.03c.62-.21 4.35-1.45 5.43-1.84 1.17-.43 2.35-.96 2.99.85.16.44.41 1.21.71 2.12.4 1.21.88 2.68 1.29 3.97.57 1.76 1.02 3.19 1.02 3.19m69.02.73c13.19 0 10.52-17.48 23.65-17.48 0 0 14.69-.11 16.61-.11 3.46 0 3.17 6.28.39 6.28-1.82 0-11.67.04-14.87.04-11.74 0-9.28 14.9-20.07 14.9"/><path fill="none" stroke="#002140" stroke-linecap="round" stroke-linejoin="round" d="M187.12 110.92c13.19 0 7.17-12.39 20.3-12.39 0 0 8.05-.06 9.97-.06 3.46 0 3.17 6.23.4 6.23-1.82 0-7.27.04-10.48.04-7.26 0-5.66 9.03-12.38 9.03m7.27 4.7c2.28-3.48 3.46-7.55 10.13-7.55 0 0 3.14-.06 5.06-.06 3.46 0 3.12 6.23.34 6.23-1.81 0-1.45.04-4.65.04-3.99 0-4.92 2.72-6.2 5.18m8.39 8.8c0-1.6.99-2.13 2.06-2.13h4.12c2.03 0 2.46.91 2.46 2.83 0 2.24.06 6.38.06 7.66s-1.07 2.03-2.56 2.03h-5.34M38.2 92.09c4.69-5.86 1.92-12.73-4.68-14.03h-.03"/><path fill="none" stroke="#002140" stroke-linecap="round" stroke-linejoin="round" d="M35.25 67.2c.53 1.24.82 2.61.82 4.05 0 1.57-.35 3.07-.98 4.4a10.38 10.38 0 0 1-9.42 6c-3.59 0-6.75-1.82-8.62-4.59a10.36 10.36 0 0 1-1.78-5.81c0-1.37.27-2.69.75-3.89 1.54-3.82 5.28-6.51 9.65-6.51s8 2.62 9.58 6.35"/><path fill="none" stroke="#002140" stroke-linecap="round" stroke-linejoin="round" d="M22.38 62.47a7.808 7.808 0 0 1 12.2 6.46c0 4.31-3.5 7.81-7.81 7.81-.78 0-1.54-.12-2.26-.33a7.82 7.82 0 0 1-5.55-7.48c0-2.69 1.36-5.06 3.43-6.46Z"/><path fill="none" stroke="#002140" stroke-linecap="round" stroke-linejoin="round" d="m24.47 76.44.03-.03a8.25 8.25 0 0 0 2.92-6.31c0-.21 0-.42-.02-.62l-5.79-.1 4.4-3.91a8.34 8.34 0 0 0-3.64-3q0 0 0 0m-6.46 4.85S1.18 71.8 1.18 73.08s9.69 3.6 15.53 3.84m18.82-9.76c1.36-2.64 7.07-9.4 13.79-9.4h9.18c6.18 0 6.11 6.06.65 6.06-1.56 0-3.78.02-5.98.03-4 .03-7.98.08-7.98.08"/><path fill="none" stroke="#002140" stroke-linecap="round" stroke-linejoin="round" d="M41.3 69.76h11.53c4.98 0 4.92-5.45.35-5.91-.21-.02-.42-.03-.64-.03M35.29 75.75h10.49c5.2 0 4.91-5.95-.3-5.95m-5.42 5.96c2.28 1.33 3.41 3.01 3.89 4.21 0 0 7.41-4.52 8.8-1.92.75 1.4-2.18 2.53-4.49 3.18-1.38.39-2.53.61-2.53.61m.13 1.97s.69.1 1.69.2c2.5.23 6.91.38 6.96-1.4.07-2.17-6.25-1.36-6.25-1.36m-2.42 4.52 4.53 6.37m-2.83-8.09s7.05 1.36 5.93 3.44c-1.35 2.5-7.48-1.63-7.63-1.73m-6.71-12.92h7.21m-3.04-5.99h9.53m-5.45-6.24h11.29m48.4 21.73s.63-2.96 3.57-3.38c2.45-.36 3.85.45 5.51 2.52 2.14 2.67 3.41 5.91 3.2 8.63-.18 2.31-3.36 2.72-4.98.85-.29-.34-.53-.69-.72-1.04-.92-1.68-.81-3.34-.81-3.34s-.53-1.31-2.62-.64c-1.33.43-1.66 1.39-2.03 1.87-.89 1.15-2.83 0-1.34-1.97.08-.1.2-.3.38-.53.52-.7 1.53-1.76 3.47-1.93 1.87-.16 2.77.75 2.77.75"/><path fill="none" stroke="#002140" stroke-linecap="round" stroke-linejoin="round" d="m107.28 85.2-.07.1c-.72.84-2.02.39-1.2-1.26.32-.64.71-1.17 1.16-1.59.74-.71 1.62-1.14 2.58-1.35 3.2-.69 4.37 1.06 4.37 1.06m-5.84 5.67 2.19 7.28 1.21 4.02 1.68 5.56m.27-14.76 4.53 14.58m-12.43-7.73c.16 0 4.49-1.6 4.49-1.6m-3.1 5.61c.16 0 4.54-1.66 4.54-1.66m-59.09 40.16c.02.35.03.71.03 1.07 0 10.43-8.45 18.87-18.87 18.87s-18.88-8.45-18.88-18.87c0-1.79.25-3.53.72-5.18 2.25-7.91 9.53-13.7 18.16-13.7 10.06 0 18.29 7.88 18.84 17.81"/><path fill="none" stroke="#002140" stroke-linecap="round" stroke-linejoin="round" d="M33.73 153.38c7.28 0 13.18-5.9 13.18-13.18s-5.9-13.18-13.18-13.18-13.18 5.9-13.18 13.18 5.9 13.18 13.18 13.18"/><path fill="none" stroke="#002140" stroke-linecap="round" stroke-linejoin="round" d="M38.78 140.3c0 2.79-2.26 5.05-5.05 5.05s-5.05-2.26-5.05-5.05 2.26-5.05 5.05-5.05 5.05 2.26 5.05 5.05"/><path fill="none" stroke="#002140" stroke-linecap="round" stroke-linejoin="round" d="M36.17 140.25c0 1.35-1.09 2.44-2.44 2.44s-2.44-1.09-2.44-2.44 1.09-2.44 2.44-2.44 2.44 1.09 2.44 2.44m-13.5-2.47c.4-2.42 2.03-5.98 6.08-7.95 2.28-1.11 2.83.43 1.18 1.17-3.27 1.48-2.36 3.34-.22 2.08 1.55-.91 2.78.29.44 1.45-1.5.74-2.38 2.29-2.73 3.89-.48 2.21-2.06 1.31-1.44-.27.86-2.19-.8-2.94-1.6-.16-.54 1.86-2.03 1.71-1.71-.21m22.39 4.41c-.4 2.42-2.13 6.28-6.18 8.26-2.28 1.11-2.83-.43-1.18-1.17 3.27-1.48 2.36-3.34.22-2.08-1.55.91-2.65-.36-.49-1.33 1.62-.73 2.67-2.06 2.96-4 .33-2.24 1.89-1.31 1.27.27-.86 2.19.92 3.67 1.72.27.44-1.88 2.01-2.12 1.69-.2Zm151.14-2.44c0 .2.01.41.01.61 0 10.43-8.45 18.87-18.87 18.87s-18.87-8.45-18.87-18.87c0-.27 0-.54.02-.81.42-10.05 8.7-18.07 18.86-18.07s18.54 8.12 18.86 18.27Z"/><path fill="none" stroke="#002140" stroke-linecap="round" stroke-linejoin="round" d="M177.34 153.38c7.28 0 13.18-5.9 13.18-13.18s-5.9-13.18-13.18-13.18-13.18 5.9-13.18 13.18 5.9 13.18 13.18 13.18"/><path fill="none" stroke="#002140" stroke-linecap="round" stroke-linejoin="round" d="M182.38 140.3c0 2.79-2.26 5.05-5.05 5.05s-5.05-2.26-5.05-5.05 2.26-5.05 5.05-5.05 5.05 2.26 5.05 5.05"/><path fill="none" stroke="#002140" stroke-linecap="round" stroke-linejoin="round" d="M179.77 140.25c0 1.35-1.09 2.44-2.44 2.44s-2.44-1.09-2.44-2.44 1.09-2.44 2.44-2.44 2.44 1.09 2.44 2.44m-13.5-2.47c.4-2.42 2.03-5.98 6.09-7.95 2.28-1.11 2.83.43 1.18 1.17-3.27 1.48-2.36 3.34-.21 2.08 1.55-.91 2.77.29.43 1.45-1.5.74-2.38 2.29-2.73 3.89-.48 2.21-2.06 1.31-1.44-.27.85-2.19-.8-2.94-1.6-.16-.54 1.86-2.03 1.71-1.71-.21Zm22.4 4.41c-.4 2.42-2.13 6.28-6.18 8.26-2.28 1.11-2.83-.43-1.18-1.17 3.27-1.48 2.36-3.34.21-2.08-1.55.91-2.65-.36-.49-1.33 1.62-.73 2.67-2.06 2.96-4 .33-2.24 1.89-1.31 1.27.27-.85 2.19.92 3.67 1.72.27.44-1.88 2.01-2.12 1.69-.2ZM12.9 137.62l2.6-2.46m37.01 4.07.06.05 2.82 2.48m143.08-.29-2.15-1.73M166.1 87.98c0-2.03-2.4-3.27-4.54-2.53l-12.01 19.18"/><path fill="#e96df2" d="M134.63 84.38v.16h-1.44v-.11c-.02-.51-.04-1-.05-1.49-.15-5.98.27-10.29 2.72-13.69-3.54 6.96-1.23 15.13-1.23 15.13"/><path fill="#03d47c" d="M107.04 82.32s.63-2.96 3.57-3.38c2.45-.36 3.85.45 5.51 2.52a16.3 16.3 0 0 1 2.35 3.97c.64 1.59.96 3.2.84 4.66-.05.62-.32 1.11-.71 1.45-1.07.92-3.09.77-4.27-.59-1.69-1.95-1.53-4.38-1.53-4.38s-.53-1.31-2.62-.64c-1.33.43-1.66 1.39-2.03 1.87-.89 1.15-2.83 0-1.34-1.98.09-.12.23-.35.45-.63h-.02c-.69.95-2.13.53-1.27-1.18.32-.64.71-1.17 1.16-1.59l-.1-.11Z"/><path fill="#e96df2" d="m142.78 93.23.03.44c-.32 2.77-2.35 8.54-3.95 10.68v.27h-3.02c1.81-2.69 3.92-8.4 4.24-11.16v-.16c1.02 0 1.91-.02 2.71-.07Z"/><path fill="#e96df2" d="m146.25 92.71.51.21c-.39 1.71-1.6 4.49-1.6 4.49l-.05.23-2.37-.53c-.38 1.23-.14 2.38 1.01 2.63.14.03.35.08.6.13l-2.13 4.73h-3.35v-.27c1.6-2.14 3.63-7.9 3.95-10.68l-.03-.44c1.41-.08 2.52-.24 3.47-.51Z"/><path fill="#e96df2" d="M146.81 100.43v.02l-1.91 3.96v.2h-2.69l2.13-4.73c.62.14 1.53.34 2.47.55"/><path fill="#e96df2" d="m149.28 100.98-.02.07-1.49 3.35v.21h-2.88v-.2l1.9-3.96v-.02c.86.19 1.75.39 2.48.55Zm9.06-37.59c.43.6.96 1.15 1.69 1.77-.13-.02-1.23-.1-2.23 1.5l-.07.03c.06-.25.11-.51.14-.78.1-.72.1-1.38.06-1.93-.07-.96-.27-1.62-.32-1.79.19.37.42.77.73 1.21Zm-14.25.49c-.93.92-1.74 2.07-2.44 3.43-.2.37-.38.77-.56 1.17h-.38l-1.88-1.39c.27-.27.56-.54.86-.8 1.49-.7 3.12-1.37 4.39-2.41Z"/><path fill="#fffaf0" d="M143.18 35.7c.82.06 2.24-.37 2.62-1.66l-2.4-1.12 2.74-.85c-.19-1.21-.79-2.44-2.38-2.38.5-.08 1.04-.1 1.6-.06 2.73.21 4.82 1.82 4.69 3.59s-2.45 3.05-5.18 2.84c-.6-.05-1.17-.16-1.69-.33zm6.77 14.61c-.73 2.92-1.53 5.16-3.44 5.89l-.07-.2-.11-4.35-.48-.03c1.3-.24 2.58-.64 4.1-1.3Zm-2.66-6.98c1.33.11 2.15-.48 2.78-1.14l-1.89-1.86 2.54-.93c-.12-.75-.51-1.42-1.08-1.9v-.14c1.28.03 4.1.1 4.21.12 1.54.27 2.94 1.37 2.77 3.59-.18 2.43-2.65 3.84-6.14 3.57-1.25-.1-2.37-.37-3.28-.82-.56-.27-1.04-.6-1.42-.98l.02-.03c.1.09.54.44 1.48.52Z"/><path fill="#e96df2" d="M157.94 63.97a9.2 9.2 0 0 1-.2 2.71l-7.67 3.58c.78-1.45 1.51-2.72 2.17-3.83h.01l5.45-2.45h.24Zm7.28 8.58c-.1 1.25-.43 2.81-.96 4.83-.85 3.31-5.44 16.98-11.21 27.01v.21h-2.5v-.26s.83-1.69 2.01-4.18c1.05-2.23 2.39-5.12 3.65-8 2.67-6.08 5.22-13.67 5.22-13.67l-.05-.04c.47-.54.97-1.12 1.49-1.72 1.37-1.59 2.09-3 2.35-4.19Zm-.32-2.71c-.13-.22-.28-.43-.45-.61-.57-.61-1.36-.98-2.21-1.1-1.15-.15-2.39.17-3.32 1.04-.79.74-2.03 2.04-3.47 3.59l-.22-.12s.74-1.25 1.7-2.59c.66-.92 1.43-1.89 2.14-2.53 1.1-1 2.4-1.06 2.55-1.07.32.25.66.51 1.04.79 1.13.86 1.85 1.65 2.24 2.6"/><path fill="#e96df2" d="m150.06 70.27 7.67-3.58c-.42 1.89-1.27 3.12-1.27 3.12l-5.44 3.2 2.77 1.07.24.22c-.68.75-1.39 1.53-2.09 2.3l-.14-.12-3.52-2.03h-.41c.67-1.34 1.31-2.57 1.91-3.7.09-.17.18-.33.26-.49Zm-16.87 14.16v.11h-10.24s.24.26.49.83l-.17.03h-1.29v-.11c-.03-.71-.28-1.27-.54-1.66-.26-.41-.53-.63-.53-.63l12.21-.06c.01.49.03.98.05 1.49Z"/><path fill="#03d47c" d="m149.02 30.94 1.41-1.67c-.64.24-1.37 1.59-1.41 1.67m-7.01-1.04s-.07-.9-.53-1.45zm2.55-.63.2-1.44c-.14.5-.2 1.44-.2 1.44m5.47 3.95c.14-1.78-1.96-3.38-4.69-3.59a7.7 7.7 0 0 0-1.6.05c-1.98.28-3.48 1.38-3.58 2.79-.11 1.39 1.15 2.67 3 3.26.52.17 1.09.28 1.69.33 2.73.21 5.04-1.07 5.18-2.84m3.83 4.26c-.11-.02-2.93-.09-4.21-.12-.35 0-.59-.01-.62-.02-.32-.02-.66-.03-.99-.05-3.46-.12-7.32-.36-9.15-.86l.07-.25c.82-3.29-1.73-7.08 1.29-11.99l.11-.11c3.68 3.12 6.91 2.61 10.38 2.23 4.67-.51 6.59.35 7.98 2.59 1.01 1.64 1.71 4.27.54 8.1-.69 2.27-2.68 9.06 1.27 10.62-1.11 3.75-3.45 5.46-4.63 9.09-.28.84-.49 1.78-.6 2.87-.09.79-.13 1.66-.11 2.63 0 0-5.28 2.9-7.68 3.36-.2.04-.39.06-.54.06-.47 0-.78-.17-1-.4-.37-.39-.51-.99-.8-1.36a.93.93 0 0 1-.21-.59c0-.51.36-.96.36-.96l-.03-.11c-.89.22-1.83.32-2.71.25-5.46-.42-5.02-7.31-4.96-8.14s.46-6.1.46-6.1v-.16c1.51.1 3.21.21 4.57.32 5.15.39 5.46-1.64 5.51-2.33.04-.52-.2-1.51-1.08-2l.12-.24c.91.44 2.04.72 3.28.82 3.49.26 5.96-1.15 6.14-3.57.17-2.22-1.22-3.32-2.77-3.59Zm-8.49 21.14c5.52 0 4.57-8.31 4.57-8.31s-.44-1.17-2.29-1.11c-1.84.05-2.51 1.23-2.51 1.23s-.45-.44-1.45-.44c-1.57 0-2.23.78-3.01 1.67v.23h-.11V52s-.73 6.64 4.8 6.64Z"/><path fill="#e96df2" d="m146.59 82.24.17.2c-.93 1.02-1.81 1.75-3.62 2l-.02-.12c.32-.68.63-1.34.93-1.99.24-.52.49-1.03.72-1.53l.1.05 1.71 1.39Z"/><path fill="#f9b5fe" d="M145.69 65.43c-1.08.96-1.82 1.96-2.32 2.83-.83 1.45-1 2.56-1 2.56l-.63-3.47-.08-.04c.7-1.36 1.51-2.51 2.44-3.43.22-.18.43-.37.63-.58h.24c0 .19.06.39.21.58.29.37.43.97.8 1.36l-.28.19Z"/><path fill="#e96df2" d="M138.65 93.3v.11c-.64 3.95-2.53 8.01-4.22 11.21h-1.79c.19-.31 1.18-2.01 2.42-5.18 1.39-3.52 1.71-5.98 1.71-5.98v-.16z"/><path fill="#cf4cd9" d="M147.76 65.59c.39 1.21.45 2.45.38 3.47l-1.96 2.36h-.04l-2.53-.12-.16-2.99-.07-.05c.5-.87 1.24-1.87 2.32-2.83l.28-.19c.22.24.53.4 1 .4q.24 0 .54-.06h.25Z"/><path fill="#fffaf0" d="M138.89 36.44c1.83.5 5.69.74 9.15.86-1.6-.05-2.76.6-3.24 2.73-1.23.76-3.2 1.4-5.25 2.04.75-.6.94-1.08.94-1.08l-2.4-1.17 2.62-1.18s-.26-1.64-2.01-2.21v-.04c.07.02.14.04.2.05Z"/><path fill="#e96df2" d="m135.49 80.64 3.07-.83c-.05.6-.1 1.22-.13 1.84-.02.35-.04.7-.05 1.06h-.22l-2.35.71h-.03c-.16-.66-.38-1.64-.51-2.75l.23-.03Zm16.59 7.87-4.21 9.43-.07.3-2.69-.6.05-.23s1.21-2.78 1.6-4.49l-.51-.21c1.99-.58 3.29-1.67 5.3-3.69l.52-.52Zm-15.31 4.79v.16s-.32 2.45-1.71 5.98c-1.25 3.16-2.24 4.86-2.42 5.18h-2.6v-.05s1.28-1.92 2.78-5.77c1-2.58 1.28-5.3 1.28-5.3v-.2z"/><path fill="#f9b5fe" d="M121.98 85.29v.11h-3.31l-.2.03c-.24-.58-.52-1.16-.84-1.73l.05-.03h3.71l.06-.03c.25.39.51.95.54 1.66Z"/><path fill="#fffaf0" d="m143.64 52.04.05 4.07-.04.14c-1.93-.61-2.62-2.51-3.08-4.27v-.11h.1c1.1.03 2.07.03 2.95-.01v.18Z"/><path fill="#e96df2" d="m156.47 69.81.47.24c-.96 1.35-1.7 2.59-1.7 2.59l.22.12c-.46.49-.93 1.01-1.41 1.54l-.25-.22-2.77-1.07z"/><path fill="#002140" d="M136.8 42.86s-2.33.02-2.07-3.46c.19-2.49 2.06-2.99 3.11-3.07.42-.03.71 0 .71 0 .05.02.1.03.15.05v.04c1.74.58 2 2.21 2 2.21l-2.62 1.18 2.4 1.17s-.19.48-.94 1.07c-.92.29-1.85.58-2.74.86l-.02-.05Z"/><path fill="#f68dfe" d="M144.34 99.88c-.25-.06-.45-.1-.59-.13-1.15-.25-1.39-1.4-1.01-2.63l2.37.53 2.69.6 2.35.52 2.68.6s-.08.38-.28.81c-.29.62-.83 1.35-1.76 1.14-.26-.06-.81-.18-1.51-.33-.73-.16-1.62-.36-2.48-.55l-2.47-.55Z"/><path fill="#cf4cd9" d="M146.13 71.42v.15l-2.15 10.73.07.04c-.3.65-.61 1.31-.93 1.99l.02.12c-.44.06-.94.09-1.51.09h-3.3v-.25c.01-.53.03-1.06.05-1.58.02-.36.03-.71.05-1.06h.11l5.07-10.35z"/><path fill="#f9b5fe" d="M123.45 85.37c.12.27.26.62.37 1.05.15.57.28 1.28.31 2.14v.03c.03.87-.12 1.64-.35 2.3-.08.23-.17.44-.27.64s-4.39.05-4.81.05l-.08-.05c.39-.34.66-.82.71-1.45.11-1.46-.2-3.07-.84-4.66l.2-.03h4.6l.17-.03Z"/><path fill="#e96df2" d="m148.94 79.47.32.16c-.78.88-1.5 1.7-2.13 2.41-.12.14-.24.28-.36.41l-.18-.2-1.71-1.39-.1-.05c.51-1.08 1.01-2.11 1.49-3.1l.11.05zm3.62 20.7c-1.18 2.49-2.01 4.18-2.01 4.18v.27h-2.78v-.21l1.49-3.35.02-.07c.69.15 1.25.28 1.51.33.93.21 1.47-.52 1.76-1.14Zm-14.4-17.47h.22c-.02.53-.04 1.05-.05 1.59v.25h-2.31v-.19s-.11-.34-.25-.92h.03l2.35-.73Z"/><path fill="#f9b5fe" d="M142.37 70.82s.17-1.1 1-2.56l.07.05.16 2.99-5.07 10.36h-.1c.03-.63.08-1.25.13-1.85.1-1.22.24-2.4.42-3.52.27-1.74.62-3.35 1.05-4.82.31-1.07.67-2.07 1.07-2.99.18-.41.36-.8.56-1.17l.08.04z"/><path fill="#e96df2" d="m139.98 71.46-2.68-1.92-.3-.09c.45-.73 1.07-1.57 1.84-2.36l1.88 1.38h.38c-.4.93-.76 1.93-1.07 3h-.04Z"/><path fill="#f68dfe" d="M147.66 49.2c1.84-.06 2.29 1.11 2.29 1.11-1.53.66-2.8 1.07-4.1 1.3-.71.13-1.43.21-2.21.25-.89.05-1.85.04-2.95.01v-.23c.79-.89 1.45-1.67 3.02-1.67 1.01 0 1.45.44 1.45.44s.67-1.17 2.51-1.23Z"/><path fill="#e96df2" d="m164.46 69.22-.14.1S152.26 83.2 149.8 85.44s-3.74 3.1-6.73 3.1h-18.58l-.36.02c-.03-.86-.15-1.57-.31-2.14h19.25c2.56 0 4.03-1.1 5.44-2.67 5.12-5.66 13.72-15.48 13.72-15.48l.02-.13c.85.11 1.64.49 2.21 1.1ZM139.71 93.3h.37v.16c-.32 2.76-2.43 8.46-4.24 11.16h-1.41c1.69-3.2 3.58-7.26 4.22-11.21v-.11h1.05Zm17.3-9.92.04.04s-2.24 5.13-4.38 10.14c-1.8 4.23-2.39 5.05-2.53 5.2l-2.35-.52.07-.3 4.21-9.43c1.18-1.18 2.65-2.64 4.93-5.13Z"/><path fill="#d18000" d="M161.85 56.65c.04.12 1.26 3.79 2.73 4.19.05.07-6.13 2.72-8.64-4.1h-.04c1.18-3.65 3.52-5.35 4.63-9.1-3.95-1.56-1.97-8.35-1.27-10.62 1.17-3.83.47-6.46-.54-8.1-1.39-2.24-3.31-3.1-7.98-2.59-3.47.38-6.7.89-10.38-2.23l-.11.11c-3.01 4.91-.46 8.7-1.29 11.99l-.07.25c-.07-.02-.13-.04-.19-.05-.05-.02-.1-.03-.15-.05 0 0-.29-.03-.71 0v-.06c-.37-4.17-3.51-3.78-3.51-9.05 0-3.58 4.13-5.02 4.13-5.02.22-4.68 1.31-9.71 9.37-9.71 7.36 0 8.59 6.81 13.17 8.93 4.57 2.12 9.48 2.01 10.6 5.69 1.11 3.65-.22 5.91-.89 6.81-1.5 2-2.14 3.15-2.24 5.76-.22 5.66 3.86 15.67-4.87 14.1 0 0 .02 3.76 2.29 3.93 0 0-2.36 1.02-4.03-1.05Z"/><path fill="#f9b5fe" d="m149.64 70.66.17.09c-.6 1.13-1.24 2.36-1.91 3.68q-.78 1.545-1.62 3.27c-.49.99-.98 2.02-1.49 3.1q-.36.75-.72 1.53l-.07-.04 2.15-10.73v-.15h.05l1.97-2.36c-.08 1.35-.38 2.31-.38 2.31l1.87-.7Z"/><path fill="#e96df2" d="m138.79 76.27.18.03c-.18 1.12-.31 2.29-.42 3.52l-3.07.83-.23.03c-.07-.54-.12-1.11-.14-1.69-.02-.57-.04-1.09-.04-1.54h.09z"/><path fill="#e96df2" d="m162.25 68.13-.02.13s-8.59 9.82-13.72 15.48c-1.42 1.57-2.88 2.67-5.44 2.67h-19.25c-.11-.42-.24-.76-.37-1.04-.26-.57-.49-.83-.49-.83h18.67c.57 0 1.07-.03 1.51-.09 1.82-.25 2.69-.98 3.62-2 .12-.13.24-.27.37-.41.62-.71 1.35-1.53 2.13-2.41.85-.96 1.77-1.99 2.7-3.03.7-.78 1.4-1.55 2.09-2.3.48-.53.96-1.05 1.41-1.54 1.43-1.55 2.68-2.85 3.47-3.59.93-.87 2.18-1.2 3.32-1.04"/><path fill="#e96df2" d="M136.61 68.31c.74-.84 1.87-1.45 3.09-2.03-.31.26-.6.53-.86.8-.78.8-1.39 1.64-1.84 2.36-.69 1.11-1.03 1.96-1.03 1.96l2.5 1.76-3.35 1.55s-.07.94-.04 2.72c0 .46.02.98.04 1.54.02.58.07 1.15.14 1.69.14 1.1.35 2.08.51 2.75.14.57.25.92.25.92v.19h-1.39v-.16s-2.31-8.17 1.23-15.13c.23-.32.48-.64.75-.94Z"/><path fill="#fffaf0" d="m146.43 56 .07.2c-.43.16-.91.25-1.46.25-.52 0-.98-.07-1.38-.2l.04-.14-.05-4.07v-.18a17 17 0 0 0 2.2-.25l.48.03.11 4.35Z"/><path fill="#f68dfe" d="M149.95 50.31s.95 8.31-4.57 8.31-4.8-6.64-4.8-6.64c.46 1.75 1.15 3.66 3.08 4.27.4.13.86.2 1.38.2.55 0 1.04-.09 1.46-.25 1.91-.72 2.72-2.97 3.44-5.89Z"/><path fill="#e96df2" d="M164.9 69.84c.19.46.3.96.33 1.53h-.06s-10.47 12.06-13.89 15.47c-3.42 3.42-5.34 4.16-7.79 4.16h-19.43l-.29-.11c.23-.66.39-1.43.35-2.3v-.03l.36-.02h18.58c2.99 0 4.27-.86 6.73-3.1s14.52-16.12 14.52-16.12l.14-.1c.17.18.32.39.45.61ZM134.1 93.3v.2s-.28 2.71-1.28 5.3c-1.49 3.84-2.78 5.77-2.78 5.77v.05h-1.97c1.82-2.67 3.74-7.26 4.38-11.21v-.11z"/><path fill="#e96df2" d="M151.29 86.84c3.42-3.42 13.89-15.47 13.89-15.47h.06c.03.36.02.76-.02 1.18-.26 1.19-.98 2.6-2.35 4.19-.52.6-1.02 1.18-1.49 1.72-1.74 2-3.17 3.6-4.38 4.91-2.29 2.49-3.75 3.95-4.93 5.13l-.52.52c-2.01 2.01-3.31 3.11-5.3 3.69-.95.28-2.06.43-3.47.51-.8.05-1.69.07-2.71.07h-17.79s.69-.64 1.22-1.76c.09-.2.19-.41.27-.64l.29.11h19.43c2.46 0 4.38-.75 7.79-4.16Zm7.79-19.33c-.71.65-1.48 1.62-2.14 2.53l-.47-.24s.85-1.23 1.27-3.12l.07-.03c1-1.6 2.09-1.51 2.23-1.5.45.39.98.81 1.6 1.28-.15 0-1.45.06-2.55 1.07Z"/><path fill="#e96df2" d="M156.21 92.17c-1.26 2.88-2.6 5.76-3.65 8 .2-.43.28-.81.28-.81l-2.68-.6c.14-.15.73-.96 2.53-5.2 2.14-5.02 4.38-10.14 4.38-10.14l-.04-.04c1.21-1.31 2.64-2.91 4.38-4.91l.05.04s-2.55 7.58-5.22 13.67Zm-4.39-15.69.14.12c-.93 1.03-1.85 2.07-2.7 3.03l-.32-.16-2.56-1.71-.11-.05q.84-1.725 1.62-3.27h.41zm5.34-15.05-2.1.95s.09-.1.13-.15c-.02-.97.02-1.84.11-2.63l.14.02c1.07.17 1.35.79 1.8 1.78z"/><path fill="#03d47c" d="M147.08 44.06c.89.49 1.12 1.48 1.09 2-.05.68-.36 2.72-5.51 2.33-1.37-.1-3.07-.22-4.56-.32-2-.13-3.63-.23-3.63-.23s-3.05 0-2.92-1.75c.1-1.31 2.47-2.27 5.26-3.18.89-.29 1.82-.57 2.74-.85 2.04-.63 4.01-1.28 5.25-2.04 0 0 .01 0 .02-.01-.15 1.12.22 2.08.97 2.82.38.38.86.71 1.42.98l-.12.24Z"/><path fill="#e96df2" d="M157.62 62.18c.06.18.26.84.32 1.79h-.24l-5.45 2.47h-.01c1.1-1.83 2.04-3.19 2.82-4.07l2.11-.95.08-.03c.11.24.23.5.38.79Zm-17.63 9.28h.04q-.645 2.22-1.05 4.83l-.18-.03-3.63 1.18h-.09c-.02-1.78.04-2.72.04-2.72l3.35-1.55-2.5-1.76s.33-.84 1.03-1.96l.3.09 2.68 1.92Z"/><path fill="#f9b5fe" d="M150.06 70.27c-.08.16-.17.32-.26.49l-.17-.09-1.87.7s.29-.96.38-2.31c.07-1.02 0-2.25-.38-3.47h-.25c2.4-.46 7.68-3.37 7.68-3.37-.04.05-.09.1-.13.15-.78.88-1.72 2.24-2.82 4.06-.66 1.11-1.39 2.38-2.17 3.83Z"/><path fill="#002140" d="m146.13 32.07-2.74.85 2.4 1.12c-.38 1.28-1.8 1.72-2.62 1.66v.03c-1.86-.59-3.12-1.88-3.01-3.26.11-1.42 1.6-2.51 3.58-2.79 1.59-.05 2.19 1.18 2.38 2.39Zm-.32 10.74-.02.02c-.75-.75-1.12-1.7-.97-2.82 0 0-.01 0-.02.01.48-2.13 1.65-2.78 3.24-2.72.34 0 .67.01.99.02s.27.02.62.03v.14c.56.48.96 1.15 1.08 1.9l-2.54.93 1.89 1.86c-.63.66-1.45 1.25-2.78 1.14-.93-.07-1.38-.43-1.48-.52Z"/><path fill="none" stroke="#cf4cd9" stroke-linecap="round" stroke-linejoin="round" d="M123.85 86.41h19.22c2.56 0 4.03-1.1 5.44-2.67 5.12-5.66 13.72-15.48 13.72-15.48"/><path fill="none" stroke="#cf4cd9" stroke-linecap="round" stroke-linejoin="round" d="M124.49 88.54h18.58c2.99 0 4.27-.86 6.73-3.1s14.52-16.12 14.52-16.12"/><path fill="none" stroke="#cf4cd9" stroke-linecap="round" stroke-linejoin="round" d="M124.06 91h19.43c2.46 0 4.38-.75 7.79-4.16 3.42-3.42 13.89-15.47 13.89-15.47m-3.74 7.14s-2.55 7.58-5.22 13.67c-1.26 2.88-2.6 5.76-3.65 8-1.18 2.49-2.01 4.18-2.01 4.18m6.5-20.94s-2.24 5.13-4.38 10.14c-1.8 4.23-2.39 5.05-2.53 5.2-.03.03-.04.03-.04.03"/><path fill="none" stroke="#e96df2" stroke-linecap="round" stroke-linejoin="round" d="m149.27 101.05-1.49 3.35"/><path fill="none" stroke="#cf4cd9" stroke-linecap="round" stroke-linejoin="round" d="m152.08 88.5-4.21 9.44"/><path fill="none" stroke="#e96df2" stroke-linecap="round" stroke-linejoin="round" d="m146.8 100.45-1.9 3.96m-2.72.26.02-.06 2.13-4.73v-.02"/><path fill="none" stroke="#cf4cd9" stroke-linecap="round" stroke-linejoin="round" d="M142.81 93.67c-.32 2.77-2.35 8.54-3.95 10.68m1.22-10.89c-.32 2.76-2.43 8.46-4.24 11.16-.01.02-.02.04-.04.05m10.97-11.75c-.39 1.71-1.6 4.49-1.6 4.49m-8.4-3.95s-.32 2.45-1.71 5.98c-1.25 3.16-2.24 4.86-2.42 5.18-.02.04-.03.05-.03.05m1.49-11.17s-.28 2.71-1.28 5.3c-1.49 3.84-2.78 5.76-2.78 5.76m19.75-34.17.27-.13 7.67-3.58.07-.03c1-1.6 2.09-1.51 2.23-1.5h.01m-7.79 1.3 5.45-2.46m-2.68-1.6h.03l2.11-.96m-19.86 8.11 2.68 1.92m-1.29-4.48.15.11 1.88 1.38m7.58 5.98 3.52 2.03m-5.44 1.28 2.56 1.71m-4.06 1.39 1.71 1.39m-11.43-4.81 3.63-1.18m-3.3 4.39 3.07-.83.07-.02m-2.82 3.62 2.35-.72m17.08-10.06s.74-1.25 1.7-2.59c.66-.92 1.43-1.89 2.14-2.53 1.1-1 2.4-1.06 2.55-1.07h.01m-27.01 17.93s-2.31-8.17 1.23-15.13c.07-.14.14-.27.21-.41"/><path fill="none" stroke="#002140" stroke-linecap="round" stroke-linejoin="round" d="M138.09 48.23s-.39 5.27-.46 6.1c-.06.83-.5 7.73 4.96 8.14.88.07 1.82-.03 2.71-.25 1.33-.33 2.53-.96 3.2-1.76m7.92-22.69s-.58-.35-1.65-.35c-.45 0-2.87 0-5.74-.08l-.99-.03c-3.46-.12-7.32-.36-9.15-.86-.07-.02-.13-.04-.19-.05-.05-.02-.1-.03-.15-.05 0 0-.29-.03-.71 0-1.05.08-2.92.57-3.11 3.07-.26 3.49 2.07 3.46 2.07 3.46"/><path fill="none" stroke="#002140" stroke-linecap="round" stroke-linejoin="round" d="M149.03 37.34s.26 0 .62.02c1.28.03 4.1.1 4.21.12 1.54.27 2.94 1.37 2.77 3.59-.18 2.43-2.65 3.84-6.14 3.57-1.24-.1-2.37-.37-3.28-.82-.56-.27-1.04-.6-1.42-.98-.75-.75-1.12-1.7-.97-2.82 0 0-.01 0-.02.01-1.24.76-3.2 1.4-5.25 2.04-.92.28-1.85.56-2.74.85-2.8.91-5.17 1.87-5.26 3.18-.13 1.74 2.92 1.75 2.92 1.75s1.63.1 3.63.23c1.49.1 3.19.21 4.56.32 5.15.39 5.46-1.64 5.51-2.33.04-.52-.2-1.51-1.09-2-.28-.15-.61-.26-1.03-.29-1.74-.13-2.21.98-2.21.98m-.09-15.08c-1.98.28-3.48 1.37-3.58 2.79-.11 1.39 1.15 2.67 3 3.26.52.17 1.09.28 1.69.33 2.72.21 5.04-1.07 5.18-2.84.14-1.78-1.96-3.38-4.69-3.59-.55-.04-1.09-.02-1.59.05h0Z"/><path fill="none" stroke="#002140" stroke-linecap="round" stroke-linejoin="round" d="M149.02 30.94c.04-.08.77-1.43 1.41-1.67m0 0-1.41 1.67h0m-1.84-1.25s-.1-1.25.64-1.64m-3.26 1.22s.06-.95.2-1.44c.01-.05.03-.1.04-.14m-.04.14-.2 1.44m-2.55.63s-.07-.9-.53-1.45m0-.01.53 1.45m1.74-.2c1.59-.06 2.19 1.17 2.38 2.38l-2.74.85 2.4 1.12c-.38 1.28-1.8 1.72-2.62 1.66m1.61 4.42s.01-.07.02-.1c.48-2.13 1.65-2.78 3.24-2.72.07 0 .14 0 .21.01m13.6 19.34c.04.12 1.26 3.79 2.73 4.19.05.07-6.13 2.72-8.64-4.1"/><path fill="none" stroke="#002140" stroke-linecap="round" stroke-linejoin="round" d="M137.83 36.27c-.36-4.17-3.5-3.78-3.5-9.05 0-3.58 4.13-5.02 4.13-5.02.22-4.69 1.31-9.71 9.37-9.71 7.36 0 8.59 6.81 13.17 8.93 4.57 2.12 9.48 2.01 10.6 5.69 1.11 3.65-.22 5.91-.89 6.81-1.5 2-2.14 3.15-2.24 5.76-.22 5.66 3.86 15.67-4.87 14.1 0 0 .02 3.76 2.29 3.93 0 0-2.36 1.02-4.03-1.05h0"/><path fill="none" stroke="#002140" stroke-linecap="round" stroke-linejoin="round" d="M140.24 24.21c-3.01 4.91-.46 8.7-1.29 11.99m24.5 11.69c-1.22.15-2.18.04-2.93-.26-3.95-1.56-1.97-8.35-1.27-10.62 1.17-3.83.47-6.46-.54-8.1-1.39-2.24-3.31-3.1-7.98-2.59-3.47.38-6.7.89-10.38-2.23m26.49 12.28a7.46 7.46 0 0 1-4.46-3.9"/><path fill="none" stroke="#002140" stroke-linecap="round" stroke-linejoin="round" d="M166.11 41.66c-2.19-.44-3.89-2.19-5.06-4.09m4.77 8.08c-2.18-.49-4.13-1.96-5.18-3.94m-15.32 20.62s-.37.45-.36.96c0 .19.06.4.21.59.29.37.43.97.8 1.36.22.24.53.4 1 .4q.24 0 .54-.06c2.4-.45 7.68-3.36 7.68-3.36-.02-.97.02-1.84.11-2.63.12-1.09.33-2.03.6-2.87 1.18-3.63 3.52-5.34 4.63-9.09v-.01M149.65 37.5c.57.48.96 1.15 1.08 1.9l-2.54.93 1.89 1.86c-.63.66-1.45 1.25-2.78 1.14-.93-.07-1.38-.43-1.48-.52l-.02-.02m-7.25-6.41s.09.03.13.04c1.75.58 2.01 2.21 2.01 2.21l-2.62 1.18 2.4 1.17s-.19.48-.94 1.07m3.61-20.3c3.01-3.9 8.48-4.46 8.48-4.46m-4.35 6.92c2.45-3.57 8.48-4.02 8.48-4.02m-1.12 3.79c1.23-1.34 3.46-1.34 3.46-1.34m1.9 5.03c4.24-1.79 7.81.22 9.04 1.9m-28.45 22.31h.1c1.1.03 2.07.03 2.95-.01.78-.04 1.5-.12 2.21-.25 1.31-.24 2.58-.64 4.1-1.3m.01-.01c-.73 2.92-1.53 5.16-3.44 5.89-.43.16-.91.25-1.46.25-.52 0-.98-.07-1.38-.2-1.93-.61-2.62-2.51-3.08-4.27 0 0-.73 6.64 4.8 6.64s4.57-8.31 4.57-8.31Zm0 0s-.44-1.17-2.29-1.11c-1.84.05-2.51 1.23-2.51 1.23s-.45-.44-1.45-.44c-1.57 0-2.23.78-3.01 1.67m2.95.38.05 4.07m2.63-4.46.11 4.35m11.19 6.18c.19.37.42.77.73 1.21.42.6.96 1.15 1.69 1.77.45.39.98.81 1.6 1.28.32.25.67.51 1.04.79 1.13.86 1.85 1.65 2.24 2.6.19.46.3.96.33 1.53.03.37.02.76-.02 1.19-.1 1.25-.43 2.81-.96 4.83-.85 3.31-5.45 16.98-11.21 27.01"/><path fill="none" stroke="#002140" stroke-linecap="round" stroke-linejoin="round" d="M155.44 59.61c1.07.17 1.35.79 1.8 1.78.11.24.23.5.38.79m-2.43.05s-.09.1-.13.15c-.78.88-1.72 2.24-2.82 4.06-.66 1.11-1.39 2.38-2.17 3.83-.08.16-.17.32-.26.49-.6 1.13-1.24 2.36-1.91 3.68q-.78 1.545-1.62 3.27c-.49.99-.98 2.02-1.49 3.1q-.36.75-.72 1.53c-.3.65-.62 1.31-.93 1.99m1.58-21.03c-.22.18-.43.37-.63.58-.93.92-1.74 2.07-2.44 3.43-.2.37-.38.77-.56 1.17-.4.92-.76 1.92-1.07 2.99-.43 1.47-.78 3.08-1.05 4.82-.17 1.12-.31 2.29-.42 3.52-.05.6-.1 1.22-.13 1.84-.02.35-.04.7-.05 1.06-.02.52-.04 1.05-.05 1.58m1.38-18c-1.23.58-2.35 1.18-3.09 2.03-.27.3-.52.62-.75.94-2.45 3.4-2.87 7.71-2.72 13.69.01.49.03.98.05 1.49"/><path fill="none" stroke="#002140" stroke-linecap="round" stroke-linejoin="round" d="M144.72 63.3c-.2.21-.41.4-.63.58-1.26 1.03-2.9 1.71-4.39 2.41m-16.25 19.08c-.26-.57-.49-.83-.49-.83h18.67c.57 0 1.07-.03 1.51-.09 1.82-.25 2.69-.98 3.62-2 .12-.13.24-.27.37-.41.62-.71 1.35-1.53 2.13-2.41.85-.96 1.77-1.99 2.7-3.03.7-.78 1.4-1.55 2.09-2.3.48-.53.96-1.05 1.41-1.54 1.43-1.55 2.68-2.85 3.47-3.59.93-.87 2.18-1.2 3.32-1.04.85.11 1.64.49 2.21 1.1.17.18.32.39.45.61.4.71.55 1.62.32 2.72-.26 1.19-.98 2.6-2.35 4.19-.52.6-1.02 1.18-1.49 1.72-1.74 2-3.17 3.6-4.38 4.91-2.29 2.49-3.75 3.95-4.93 5.13l-.52.52c-2.01 2.01-3.31 3.11-5.3 3.69-.95.28-2.06.43-3.47.51-.8.05-1.69.07-2.71.07h-17.79s.69-.64 1.22-1.76c.09-.2.19-.41.27-.64.23-.66.39-1.43.35-2.3v-.03c-.03-.86-.15-1.57-.31-2.14-.11-.43-.24-.77-.37-1.05h0Zm18.29-18.02.63 3.47s.17-1.1 1-2.56c.5-.87 1.24-1.87 2.32-2.83m2.07.16c.39 1.21.45 2.45.38 3.47-.08 1.35-.38 2.31-.38 2.31l1.86-.7"/><path fill="none" stroke="#002140" stroke-linecap="round" stroke-linejoin="round" d="m143.44 68.31.16 2.99 2.52.12h.04l1.97-2.36m-4.52 2.24-5.07 10.36m7.59-10.09-2.15 10.73m-11.53 11.1c-.64 3.95-2.57 8.54-4.38 11.21h24.98"/><path fill="none" stroke="#002140" stroke-linecap="round" stroke-linejoin="round" d="M138.65 93.4c-.64 3.95-2.53 8.01-4.22 11.21q0 0 0 0m23.17-42.48s0 .02.02.05c.06.18.26.84.32 1.79a9.2 9.2 0 0 1-.2 2.71c-.42 1.89-1.27 3.12-1.27 3.12l-5.44 3.2 2.77 1.07m-14.09-7.79s0 0 0 0c-.31.26-.6.53-.86.8-.78.8-1.39 1.64-1.84 2.36-.69 1.11-1.03 1.96-1.03 1.96l2.5 1.76-3.35 1.55s-.07.94-.04 2.72c0 .46.02.98.04 1.54.02.58.07 1.15.14 1.69.14 1.1.35 2.08.51 2.75.14.57.25.92.25.92m-12.75 1.07h-4.6m.01 6.19c.43 0 4.81-.06 4.81-.06m-16.46-9.21s.63-2.96 3.57-3.38c2.45-.36 3.85.45 5.51 2.52a16.3 16.3 0 0 1 2.35 3.97c.64 1.59.96 3.2.84 4.66-.05.62-.32 1.11-.71 1.45-1.07.92-3.09.77-4.27-.59-1.69-1.95-1.53-4.38-1.53-4.38s-.53-1.31-2.62-.64c-1.33.43-1.66 1.39-2.03 1.87-.89 1.15-2.83 0-1.34-1.98.09-.12.23-.35.45-.63.54-.7 1.55-1.67 3.4-1.83 1.87-.16 2.78.75 2.78.75"/><path fill="none" stroke="#002140" stroke-linecap="round" stroke-linejoin="round" d="M107.25 85.18c-.69.96-2.13.55-1.27-1.16.32-.64.71-1.17 1.16-1.59.74-.71 1.62-1.14 2.58-1.34 3.2-.69 4.37 1.05 4.37 1.05m19.05.8-12.21.06s.26.22.53.63c.25.39.51.95.54 1.66m-4.31-1.62h3.71m22.94 16.21c-.25-.06-.45-.1-.59-.13-1.15-.25-1.39-1.4-1.01-2.63l2.37.53 2.69.6 2.35.52 2.68.6s-.08.38-.28.81c-.29.62-.83 1.35-1.76 1.14-.26-.06-.81-.18-1.51-.33-.73-.16-1.62-.36-2.48-.55l-2.47-.55Z"/></g></svg>