<svg xmlns="http://www.w3.org/2000/svg" xmlns:xlink="http://www.w3.org/1999/xlink" id="Layer_1" x="0" y="0" version="1.1" viewBox="0 0 176 178" style="enable-background:new 0 0 176 178" xml:space="preserve"><style type="text/css">.st1{fill:#ff7101}.st2{fill:#003c73}.st3{fill:#002140}.st4{fill:#03d47c}.st5{fill:#0164bf}.st6{fill:#f68dfe}.st7{fill:#d18000}.st8{fill:#fffaf0}.st9{fill:#50eef6}.st10{stroke-width:.9999}.st10,.st11,.st12{fill:none;stroke:#002140;stroke-linecap:round;stroke-miterlimit:10}.st11{stroke-width:.9432}.st12{stroke-width:1.8998}.st13{fill:#fff2b2}.st14{fill:none;stroke:#002140;stroke-width:.9999;stroke-linecap:round;stroke-linejoin:round}</style><g><defs><rect id="SVGID_1_" width="176" height="178"/></defs><clipPath id="SVGID_00000018218354771073572940000008642713263941723026_"><use xlink:href="#SVGID_1_" style="overflow:visible"/></clipPath><g style="clip-path:url(#SVGID_00000018218354771073572940000008642713263941723026_)"><path d="M164.519,110.724c3.129,2.721,4.543,7.634,3.696,12.401l-0.079-0.013c0-0.494-0.471-0.882-0.957-0.999 c-0.483-0.119-0.992-0.046-1.491-0.043c-0.499,0.003-1.041-0.091-1.379-0.456c-0.46-0.502-0.422-1.39-1.016-1.732 c-0.45-0.256-1.038-0.035-1.425,0.312c-0.383,0.347-0.654,0.806-1.046,1.146c-0.391,0.34-0.995,0.54-1.43,0.258l-0.256-0.05 c0.489-2.371-0.565-4.536-2.471-5.096c-0.049-0.016-0.095-0.028-0.141-0.041l0.031-0.101c-0.97-0.687-1.241-2.173-0.573-3.152 c0.54-0.793,1.619-1.379,1.54-2.335c-0.018-0.215-0.1-0.423-0.138-0.636c-0.166-0.898,0.55-1.856,1.463-1.963l0.044-0.215 C160.848,108.389,162.882,109.299,164.519,110.724z" class="st1"/><path d="M168.136,123.112l0.08,0.013c-0.351,1.972-1.088,3.919-2.252,5.676c-2.448,3.692-6.086,6.344-10.701,7.781 l-0.076-0.238c0.271-0.327,0.25-0.804,0.138-1.212c-0.115-0.406-0.31-0.793-0.351-1.214c-0.061-0.624,0.22-1.222,0.392-1.823 c0.174-0.604,0.207-1.334-0.243-1.772c-0.348-0.34-0.88-0.404-1.29-0.665c-0.601-0.383-0.854-1.224-0.562-1.868l-0.09-0.272 c0.67-0.213,1.323-0.496,1.949-0.867c2.403-1.419,3.643-3.318,4.007-5.103l0.255,0.05c0.435,0.282,1.039,0.082,1.43-0.258 c0.392-0.34,0.663-0.799,1.047-1.146c0.386-0.348,0.974-0.568,1.425-0.312c0.593,0.342,0.555,1.23,1.015,1.732 c0.338,0.365,0.88,0.459,1.379,0.456c0.499-0.003,1.008-0.076,1.492,0.043C167.666,122.23,168.134,122.618,168.136,123.112z" class="st1"/><path d="M162.554,56.409c1.474,0,2.167,1.192,1.54,2.652l-6.541,15.276l-0.135,0.008 c-0.932-1.668-5.227-9.363-5.882-10.55c-0.734-1.336-1.722-1.823-3.228-1.009c-1.505,0.816-0.706,2.829-0.706,2.829l6.198,11.346 l-0.008,0.005l-0.874-1.468c0,0-1.446-2.363-5.055-2.363h-9.758v-0.193l5.946-13.881c0.624-1.46,2.341-2.652,3.812-2.652H162.554z M162.516,59.868c0.366-0.857-0.036-1.549-0.9-1.549c-0.865,0-1.863,0.692-2.231,1.549c-0.366,0.857,0.036,1.552,0.9,1.552 C161.15,61.419,162.148,60.724,162.516,59.868z M160.669,64.178c0.368-0.857-0.036-1.549-0.9-1.549 c-0.865,0-1.863,0.692-2.229,1.549c-0.368,0.857,0.036,1.552,0.901,1.552C159.305,65.729,160.303,65.035,160.669,64.178z M157.911,59.868c0.366-0.857-0.036-1.549-0.9-1.549c-0.865,0-1.863,0.692-2.231,1.549c-0.366,0.857,0.036,1.552,0.9,1.552 C156.545,61.419,157.543,60.724,157.911,59.868z" class="st2"/><path d="M161.615,58.318c0.865,0,1.266,0.692,0.901,1.549c-0.369,0.857-1.367,1.552-2.231,1.552 c-0.865,0-1.267-0.695-0.901-1.552C159.753,59.011,160.75,58.318,161.615,58.318z" class="st3"/><path d="M159.769,62.629c0.865,0,1.269,0.692,0.9,1.549c-0.366,0.857-1.363,1.552-2.228,1.552 c-0.865,0-1.269-0.695-0.9-1.552C157.906,63.321,158.904,62.629,159.769,62.629z" class="st3"/><path d="M158.891,108.009l-0.044,0.215c-0.913,0.107-1.629,1.065-1.463,1.963c0.039,0.213,0.12,0.421,0.138,0.636 c0.08,0.956-1,1.542-1.54,2.335c-0.667,0.979-0.396,2.465,0.573,3.152l-0.03,0.101c-3.444-1.019-5.536-1.803-4.646-5.687 C152.447,108.245,155.56,107.362,158.891,108.009z" class="st1"/><path d="M132.91,143.23c-1.034,2.536-1.937,4.756-2.663,6.546c-1.231,3.03-1.962,4.825-1.962,4.825 s-0.059,0.193-0.187,0.507c-0.555,1.359-2.402,4.982-6.316,4.982c-3.272,0-4.812-1.597-5.531-2.943l-0.016-0.01 c0.323-0.556,0.63-1.091,0.919-1.608c1.831-3.265,3.126-5.915,4.786-9.261l-0.038-0.018c0,0,0.289-0.708,0.803-1.965 c0.762-1.866,2.021-4.944,3.564-8.717c0.655-1.61,1.366-3.344,2.11-5.167c0.596-1.46,1.213-2.974,1.847-4.523 c0.417-1.024,0.844-2.066,1.272-3.116c5.032-12.317,10.56-25.868,12.594-30.891h0.002c0.318-0.791,0.553-1.369,0.683-1.699 c1.807-4.533-2.65-4.145-2.65-4.145h-8.713c0,0-0.358-0.046-0.783-0.213c-0.619-0.241-1.384-0.748-1.384-1.757 c0-1.699,0.903-2.325,2.438-2.325h1.458c-0.361-0.061-2.1-0.434-2.1-1.957c0-1.701,0.903-2.327,2.438-2.327h4.423V77.43h-2.901 c0,0-2.167-0.269-2.167-1.967c0-0.479,0.072-0.872,0.207-1.192c0.351-0.811,1.129-1.136,2.231-1.136h10.589 c3.609,0,5.055,2.363,5.055,2.363l0.875,1.468l0.007-0.005l-6.198-11.346c0,0-0.798-2.013,0.706-2.829 c1.507-0.814,2.494-0.327,3.228,1.009c0.655,1.187,4.95,8.881,5.882,10.55l0.179,0.319c0,0,1.686,3.042,0.422,6.501 c-0.709,1.94-9.959,24.76-17.954,44.455c-1.194,2.938-2.358,5.806-3.464,8.523C135.263,137.439,134.012,140.515,132.91,143.23z" class="st4"/><path d="M157.011,58.318c0.864,0,1.266,0.692,0.9,1.549c-0.368,0.857-1.366,1.552-2.231,1.552 c-0.864,0-1.266-0.695-0.9-1.552C155.148,59.011,156.146,58.318,157.011,58.318z" class="st3"/><path d="M155.123,130.323c0.45,0.438,0.417,1.168,0.243,1.772c-0.172,0.601-0.453,1.199-0.392,1.823 c0.041,0.421,0.236,0.809,0.351,1.214c0.112,0.408,0.133,0.885-0.138,1.212l0.076,0.238c-1.427,0.449-2.949,0.779-4.558,0.987 c-2.584,0.334-5.59,0.01-8.297-0.586l0.069-0.304c0.711-0.292,0.873-1.22,0.783-1.978c-0.087-0.755-0.315-1.554,0-2.249 c0.312-0.694,1.09-1.087,1.438-1.764c0.529-1.032-0.1-2.252-0.716-3.235l0.056-0.284c2.53,0.758,6.001,1.351,9.143,0.35 l0.089,0.271c-0.291,0.644-0.038,1.486,0.563,1.868C154.243,129.92,154.775,129.983,155.123,130.323z" class="st1"/><path d="M144.281,56.409h3.581c-1.471,0-3.187,1.192-3.811,2.652l-5.946,13.881v0.193h-0.831 c-1.103,0-1.88,0.325-2.231,1.136l-0.921-0.388l6.347-14.822C141.093,57.601,142.81,56.409,144.281,56.409z" class="st5"/><path d="M142.127,86.027c0,0,4.456-0.388,2.65,4.145c-0.13,0.33-0.366,0.908-0.683,1.699h-0.003l-0.066-0.028h-11.338 c-0.138,0-0.269-0.01-0.394-0.03c-1.197-0.195-1.714-1.301-1.146-2.622l1.363-3.184l0.121-0.193 c0.424,0.167,0.782,0.213,0.782,0.213H142.127z" class="st2"/><path d="M143.982,127.453c0.617,0.983,1.246,2.203,0.716,3.235c-0.348,0.677-1.125,1.07-1.437,1.764 c-0.315,0.695-0.087,1.494,0,2.249c0.089,0.758-0.072,1.686-0.783,1.978l-0.069,0.304c-1.643-0.36-3.172-0.821-4.434-1.293 l-0.074,0.043c-0.552-0.941-1.01-1.476-1.01-1.476l-0.289-0.114c1.105-2.718,2.269-5.585,3.463-8.523l0.348,0.139 c0,0,1.471,0.766,3.625,1.41L143.982,127.453z" class="st1"/><path d="M139.903,77.43v0.018h-4.423c-1.535,0-2.438,0.626-2.438,2.327c0,1.524,1.74,1.896,2.1,1.957h-1.458 c-1.535,0-2.438,0.626-2.438,2.325c0,1.009,0.765,1.516,1.384,1.757l-0.12,0.193l-1.364,3.184 c-0.567,1.321-0.051,2.426,1.147,2.622v0.03h-3.188c-1.473,0-2.167-1.194-1.54-2.652l6.557-15.308l0.921,0.388 c-0.136,0.32-0.208,0.712-0.208,1.192c0,1.699,2.167,1.967,2.167,1.967H139.903z" class="st5"/><path d="M137.9,135.733c0.96,1.63,2.208,4.483,1.868,7.9l-0.136-0.005c-0.309,0.794-1.169,1.286-2.023,1.362 c-0.857,0.073-1.707-0.206-2.479-0.581c-0.752-0.368-1.461-0.829-2.221-1.179c1.103-2.715,2.354-5.791,3.692-9.087l0.289,0.115 C136.89,134.258,137.348,134.792,137.9,135.733z" class="st1"/><path d="M139.632,143.628l0.136,0.005c-0.115,1.172-0.42,2.411-0.983,3.689c-1.629,3.692-4.387,5.646-6.677,6.676 l-0.15-0.34c0.232-1.417-0.374-2.936-1.523-3.813l-0.189-0.069c0.727-1.79,1.63-4.011,2.663-6.546 c0.76,0.35,1.469,0.811,2.221,1.179c0.772,0.375,1.622,0.654,2.479,0.581C138.463,144.914,139.323,144.422,139.632,143.628z" class="st1"/><path d="M131.958,153.658l0.151,0.34c-2.149,0.963-3.886,1.11-3.886,1.11h-0.125c0.128-0.314,0.186-0.507,0.186-0.507 s0.732-1.795,1.963-4.825l0.189,0.069C131.585,150.722,132.191,152.241,131.958,153.658z" class="st1"/><path d="M131.382,122.717l0.115,0.045c-0.427,1.05-0.854,2.092-1.271,3.116c0.043-1.491-0.652-3.035-1.653-4.15 C130.315,122.199,131.382,122.717,131.382,122.717z" class="st1"/><path d="M128.574,121.728c1,1.115,1.696,2.659,1.652,4.15c-0.634,1.549-1.251,3.063-1.847,4.523 c-0.278-0.089-2.791-0.854-5.932,0.168c-1.916,0.623-4.068,1.914-6.089,4.431l-0.112-0.086c0.013-0.783-0.801-1.965-1.525-2.279 c-0.724-0.315-1.545-0.53-2.047-1.136c-0.411-0.499-0.537-1.192-0.967-1.681c-0.66-0.748-1.803-0.791-2.803-0.745l-0.146-0.084 c1.517-2.599,3.673-4.515,5.945-5.816c2.042-1.171,4.178-1.843,6.027-2.069C123.823,120.726,126.622,121.2,128.574,121.728z" class="st1"/><path d="M128.379,130.401c-0.745,1.823-1.456,3.557-2.111,5.167l-0.14-0.056c0.301-1.447-0.197-3.034-1.277-4.056 c-0.629-0.593-1.532-1.007-2.361-0.758l-0.044-0.129C125.588,129.547,128.1,130.312,128.379,130.401z" class="st1"/><path d="M126.128,135.512l0.141,0.056c-1.543,3.773-2.801,6.851-3.564,8.717l-0.13-0.036 c0.092-0.793,0.025-1.607-0.202-2.373c-0.302-1.034-0.906-1.998-1.786-2.626c-0.88-0.629-2.049-0.89-3.088-0.581 c-0.667,0.2-1.246,0.614-1.885,0.887c-0.64,0.274-1.425,0.391-2.003,0.005l-0.118-0.065c0.43-0.756,0.855-1.489,1.277-2.196 c0.516-0.862,1.049-1.625,1.588-2.3c2.021-2.517,4.173-3.808,6.089-4.431l0.043,0.129c0.829-0.249,1.732,0.165,2.362,0.758 C125.931,132.478,126.43,134.065,126.128,135.512z" class="st1"/><path d="M122.574,144.249l0.13,0.036c-0.514,1.257-0.803,1.965-0.803,1.965l0.038,0.017 c-1.66,3.347-2.954,5.997-4.786,9.262l-0.228-0.124c-0.892-2.241-3.315-3.788-5.745-3.664c-0.653,0.033-1.303,0.175-1.957,0.14 c-0.655-0.033-1.349-0.289-1.681-0.85l-0.23-0.124c0.744-1.361,1.491-2.756,2.235-4.15c0.704-1.321,1.407-2.642,2.106-3.933 c0.619-1.138,1.233-2.254,1.839-3.328l0.118,0.065c0.578,0.386,1.363,0.269,2.003-0.005c0.64-0.273,1.218-0.687,1.885-0.887 c1.039-0.309,2.208-0.048,3.088,0.581c0.88,0.628,1.484,1.592,1.786,2.626C122.599,142.642,122.666,143.456,122.574,144.249z" class="st1"/><path d="M116.926,155.405l0.227,0.124c-0.289,0.517-0.596,1.052-0.918,1.608c-0.809,1.399-1.73,2.933-2.819,4.682 c-1.533,2.465-3.175,4.709-5.035,6.661l-0.315-0.289c-0.04-1.453-1.141-2.812-2.563-3.164c-0.734-0.186-1.617-0.17-2.087-0.759 c-0.466-0.583-0.259-1.44-0.469-2.155c-0.197-0.677-0.808-1.217-1.506-1.333l-0.133-0.107c1.606-1.949,2.773-4.094,3.891-6.011 c0.488-0.839,0.979-1.704,1.471-2.589c0.215-0.385,0.427-0.775,0.642-1.166l0.23,0.124c0.333,0.561,1.026,0.817,1.681,0.85 c0.655,0.035,1.304-0.107,1.957-0.14C113.61,151.617,116.033,153.164,116.926,155.405z" class="st1"/><path d="M116.245,134.914l0.112,0.086c-0.539,0.675-1.071,1.438-1.588,2.3c-0.422,0.707-0.847,1.44-1.277,2.196 c-0.606,1.075-1.22,2.19-1.839,3.328l-0.2-0.106c-1.312-0.467-2.788-0.474-4.108-0.02l-0.092,0.033 c-0.179-0.583-0.328-1.205-0.443-1.864c-0.33-1.876-0.376-4.046,0.013-6.43c0.338-2.073,1.021-3.884,1.934-5.448l0.146,0.084 c1-0.046,2.144,0,2.804,0.745c0.429,0.489,0.555,1.182,0.967,1.681c0.501,0.606,1.322,0.821,2.046,1.136 C115.444,132.949,116.258,134.131,116.245,134.914z" class="st1"/><path d="M95.838,55.58L95.7,55.167c2.571-0.806,4.247-2.371,4.29-5.205h0.123c0.806,0.231,1.599,0.461,2.387,0.692 c2.515,0.738,4.958,1.483,7.434,2.193c1.99,0.57,4.004,1.118,6.094,1.623c3.586,0.865,4.587,3.641-0.023,4.683 c-3.387,0.766-5.805,1.268-8.138,1.681c-2.394,0.429-4.702,0.766-7.877,1.212c-1.195,0.167-2.435,0.319-3.582-0.048 c-1.146-0.37-2.625-1.544-2.796-2.725c-0.118-0.801-0.241-2.624,1.926-3.58C95.626,55.654,95.728,55.616,95.838,55.58z" class="st4"/><path d="M114.68,122.983l0.023,0.19c-2.272,1.301-4.429,3.217-5.946,5.816c-0.913,1.564-1.596,3.375-1.934,5.449 c-0.388,2.383-0.342,4.553-0.012,6.429l-0.077,0.013l-0.241,11.097l0.177,0.096c-0.491,0.885-0.982,1.75-1.471,2.589 c-1.118,1.917-2.285,4.062-3.891,6.011c-2.17,2.637-5.142,4.916-9.885,5.789c-1.507,0.276-3.195,0.41-5.093,0.37 c-1.655-0.036-3.205-0.244-4.651-0.591c-3.779-0.913-6.859-2.804-9.345-5.2c-1.21-1.169-2.279-2.457-3.218-3.811l0.179-0.124 l1.566-10.975v-0.239h13.032c0,0,2.034-0.251,2.162-1.815l0.276,0.023h2.622c1.596,0,2.346-1.293,1.671-2.873l-12.73-29.722 l0.31-0.129c2.53-1.443,4.566-3.707,5.147-5.484c-0.542,2.239-2.256,11.275,4.334,11.186c5.51-0.074,5.656-7.094,5.557-9.391 c0.212,2.307,1.328,9.289,6.994,8.316c4.605-0.984,3.342-5.547,2.71-9.931c1.102,4.371,4.543,8.268,8.401,7.107l0.084,0.261 L114.68,122.983z" class="st4"/><path d="M93.239,107.687c0.1,2.297-0.046,9.317-5.556,9.391c-6.59,0.089-4.876-8.947-4.334-11.186 c-0.581,1.777-2.617,4.041-5.147,5.484l-0.31,0.129l-1.251-2.921c-0.678-1.579-2.538-2.872-4.131-2.872h-3.837v-0.14 c0.867-2.304,2.397-4.244,2.397-4.244c0.102-0.197-5.631,3.144-10.376,3.144c-2.118,0-4.037-0.664-5.155-2.606 c-0.159-0.304-0.289-0.594-0.397-0.865c-2.351-5.968,6.923-4.449,9.427-7.188h0.09c0.01,0.226,0.041,0.464,0.09,0.715 c0.903,4.652,6.772,3.4,6.772,3.4s5.042-0.877,8.997-4.452c-0.962,0.9-7.112,6.955-0.599,9.105c5.416,1.79,8.667-5.19,9.749-7.964 c-0.45,2.505-0.361,11.097,5.329,10.38c5.597-0.715,4.694-5.279,3.612-10.737c1.988,7.408,7.194,9.609,10.197,6.792l0.005,0.008 c1.985,4.654,9.57,7.248,4.244,11.274c-0.576,0.398-1.149,0.677-1.711,0.845c-3.858,1.161-7.299-2.736-8.402-7.107 c0.632,4.384,1.896,8.947-2.709,9.931C94.567,116.977,93.451,109.994,93.239,107.687z M93.239,107.682 c-0.021-0.449-0.049-0.715-0.049-0.715S93.198,107.236,93.239,107.682z" class="st6"/><path d="M70.758,61.206l0.345,0.061c0.755,3.228,3.791,5.365,5.549,8.184c1.435,2.3,1.924,4.911,1.913,7.538h-0.092 c-1.716,2.774-6.347,5.841-10.215,4.422c2.487-0.522,4.572-2.239,4.733-4.751c-2.297,1.967-5.551,2.411-8.332,1.207 c1.512-0.038,2.993-0.743,3.97-1.889c0.969-1.141,1.425-2.7,1.213-4.178h-0.028c-4.106,1.737-9.47-0.872-10.599-5.154 c-0.711-2.698,0.087-5.53,0.271-8.313c0.243-3.707-0.645-7.477-2.52-10.694c-1.566-2.685-3.794-4.987-5.019-7.842 c-2.141-4.987-0.586-11.288,3.64-14.733c2.638-2.15,6.004-3.156,9.189-4.381c3.185-1.227,6.439-2.862,8.227-5.748 c1.476-2.386,1.765-5.342,3.2-7.751c2.494-4.183,7.836-5.773,12.732-6.006C94.15,0.931,99.691,1.95,103.608,5.37 c3.909,3.413,5.398,10.035,2.507,14.33l0.054,0.035c3.535,0.55,6.513,3.628,6.917,7.152c0.389,3.397-1.369,6.643-3.157,9.566 c-1.786,2.926-3.645,5.727-3.916,8.144l-0.18-0.005c0.057-1.869,0.1-3.583,0.141-5.279c0.379-0.679,0.578-1.481,0.578-2.414 c0-0.865-0.176-1.658-0.511-2.368c-0.057-0.122-0.118-0.241-0.182-0.355l0.248-0.076c0.013-0.464,0.026-0.936,0.041-1.417 c0.056-1.856,0.11-3.74-0.327-5.545c-0.435-1.808-1.43-3.56-3.04-4.513l-0.025-0.056c-4.917,2.262-10.443,3.055-15.866,3.552 c-2.975,0.271-6.055,0.492-8.695,1.879c-3.149,1.653-5.347,4.967-5.625,8.486c-0.282,3.529,1.22,6.919,2.356,10.273 c1.138,3.357,1.89,7.185,0.23,10.319C74.193,58.896,72.582,60.182,70.758,61.206z" class="st7"/><path d="M111.454,142.718l0.199,0.107c-0.698,1.29-1.402,2.611-2.105,3.932l-0.287-0.15 c-0.795-0.938-1.512-2.256-2.008-3.876l0.092-0.033C108.665,142.244,110.141,142.252,111.454,142.718z" class="st1"/><path d="M110.586,48.37c0.1,0.449,0.151,0.938,0.151,1.476c0,1.181-0.279,2.147-0.782,2.931l-0.021,0.071 c-2.476-0.71-4.919-1.455-7.434-2.193l0.02-0.063h3.52l-4.303-3.162l-0.025-0.048c0.972-1.189,2.456-1.95,4.119-1.95 c1.082,0,2.087,0.322,2.924,0.872C109.535,46.818,110.169,47.53,110.586,48.37z" class="st3"/><path d="M80.576,93.423c-0.018,0.018-0.038,0.036-0.059,0.053c-3.955,3.575-8.997,4.452-8.997,4.452 s-5.868,1.253-6.772-3.4c-0.049-0.251-0.079-0.489-0.09-0.717c-0.197-3.998,5.175-4.576,8.667-5.456 c3.804-0.961,4.344-3.633,4.415-4.533h0.038c-0.02,0.677,0.077,1.344,0.417,1.919c0.514,0.88,1.517,1.344,2.476,1.706 c6.007,2.264,12.758,2.543,18.933,0.776c0.8-0.228,1.703-0.606,1.91-1.405c0.095-0.37,0.016-0.761-0.066-1.133 c-0.082-0.385-0.189-0.801-0.304-1.247l0.079-0.02c1.988,7.246,11.105,9.931,8.667,15.212c-0.312,0.565-0.68,1.042-1.087,1.422 c-3.003,2.817-8.209,0.616-10.197-6.792c1.082,5.459,1.985,10.022-3.612,10.737c-5.689,0.717-5.779-7.875-5.329-10.38 c-1.082,2.774-4.334,9.754-9.749,7.964c-6.513-2.15-0.363-8.205,0.599-9.105C80.54,93.456,80.561,93.438,80.576,93.423z" class="st6"/><path d="M99.844,48.372c-0.348-1.605-1.292-2.667-2.653-3.364c0.824,0.251,1.763,0.38,3.403,0.185 c2.361-0.279,4.021-0.431,5.362-0.231c1.087,0.162,1.959,0.558,2.824,1.306l-0.025,0.035c-0.837-0.55-1.842-0.872-2.924-0.872 c-1.663,0-3.147,0.761-4.119,1.95l0.025,0.048l4.303,3.161h-3.52l-0.02,0.063c-0.788-0.231-1.581-0.461-2.387-0.69H99.99 c0-0.041,0-0.081,0-0.119c0-0.535-0.051-1.024-0.148-1.473H99.844z" class="st8"/><path d="M95.181,44.29c-1.706-0.413-3.758-0.53-5.963-0.53c-5.951,0-10.775,0.743-10.775,6.085 c0,4.711,4.825,6.085,10.775,6.085c1.458,0,2.847-0.071,4.116-0.249c0.849-0.119,1.642-0.286,2.366-0.515l0.138,0.413 c-0.11,0.035-0.212,0.074-0.299,0.112c-2.167,0.956-2.044,2.779-1.926,3.58c0.171,1.181,1.65,2.355,2.796,2.725 c1.146,0.368,2.387,0.215,3.581,0.048c3.174-0.446,5.482-0.783,7.876-1.212l0.105,0.573c0.169,2.442,0.341,4.886,0.509,7.33 c0.233,3.354,0.318,7.142-2.031,9.571c-1.532,1.587-3.783,2.198-6.04,2.241v0.109c0.133,1.402,0.458,2.68,0.737,3.78 c0.115,0.446,0.223,0.862,0.304,1.247c0.082,0.373,0.162,0.763,0.067,1.133c-0.207,0.799-1.11,1.176-1.911,1.405 c-6.176,1.767-12.927,1.488-18.933-0.776c-0.959-0.362-1.962-0.826-2.476-1.706c-0.34-0.576-0.437-1.242-0.417-1.919 c0.015-0.434,0.077-0.867,0.161-1.283c0.353-1.785,0.617-3.671,0.624-5.55c0.01-2.627-0.478-5.238-1.913-7.538 c-1.757-2.819-4.794-4.957-5.549-8.184l-0.345-0.061c1.824-1.024,3.436-2.31,4.398-4.128c1.66-3.134,0.908-6.962-0.23-10.319 c-1.136-3.354-2.638-6.744-2.356-10.273c0.279-3.519,2.476-6.833,5.626-8.486c2.64-1.387,5.72-1.608,8.695-1.879 c5.423-0.497,10.949-1.291,15.866-3.552l0.026,0.056c1.609,0.953,2.604,2.705,3.039,4.513c0.437,1.805,0.384,3.689,0.327,5.545 c-0.015,0.482-0.028,0.953-0.041,1.417l-0.248,0.076c-1.361-2.401-4.638-3.785-9.102-3.785c-5.95,0-10.159,2.459-10.159,6.151 c0,4.095,4.208,6.019,10.159,6.019c1.497,0,2.863-0.099,4.065-0.314c2.489-0.441,4.29-1.374,5.152-2.933 c-0.041,1.696-0.084,3.41-0.14,5.279l0.179,0.005l-0.057,0.365c-1.34-0.2-3-0.048-5.362,0.231 c-1.639,0.195-2.578,0.066-3.402-0.185c-0.003,0-0.005-0.003-0.005-0.003c-0.591-0.302-1.264-0.535-2-0.712 C95.186,44.293,95.185,44.292,95.181,44.29z M105.381,71.53c0,0-4.787-6.354-7.856-6.262c-2.274,0.066-2.852,0.928-2.886,0.981 c0.018-0.114,0.509-3.004-3.344-3.577c-4.426-0.657-8.399,0.089-8.399,0.089c0.005,0.02,0.015,0.089,0.036,0.203 c0.233,1.326,1.717,8.602,8.452,10.626C98.632,75.767,105.327,71.51,105.381,71.53z" class="st4"/><path d="M108.067,168.191l0.314,0.289c-3.415,3.582-7.572,6.186-13.172,7.37l-0.015-0.251 c0.095-1.296-0.532-2.621-1.599-3.377c-0.558-0.396-1.233-0.654-1.668-1.179c-0.504-0.611-0.586-1.481-0.402-2.249 c0.087-0.37,0.23-0.73,0.269-1.11c0.038-0.378-0.046-0.799-0.34-1.045l-0.031-0.177c4.743-0.873,7.716-3.152,9.885-5.789 l0.133,0.107c0.698,0.117,1.31,0.657,1.507,1.333c0.209,0.715,0.002,1.572,0.468,2.156c0.471,0.588,1.353,0.573,2.087,0.758 C106.926,165.379,108.026,166.738,108.067,168.191z" class="st1"/><path d="M105.974,39.313c-0.862,1.559-2.663,2.492-5.152,2.933c-2.039-0.73-3.492-2.665-3.492-4.936v-0.089h5.508 l-4.306-3.162l-0.026-0.051c0.972-1.189,2.456-1.947,4.119-1.947c1.662,0,2.775,1.24,3.415,2.469 c0.335,0.71,0.511,1.503,0.511,2.368C106.552,37.833,106.353,38.634,105.974,39.313z" class="st3"/><path d="M105.859,34.177c0.063,0.114,0.125,0.233,0.181,0.355c-0.639-1.23-1.711-2.47-3.415-2.47 s-3.147,0.758-4.119,1.947l0.026,0.051l4.305,3.162h-5.508v0.089c0,2.272,1.453,4.206,3.492,4.936 c-1.202,0.215-2.568,0.314-4.065,0.314c-5.951,0-10.159-1.924-10.159-6.019c0-3.691,4.208-6.151,10.159-6.151 C101.22,30.391,104.498,31.776,105.859,34.177z" class="st8"/><path d="M99.993,49.845c0,0.038,0,0.079,0,0.117c-0.044,2.834-1.719,4.399-4.29,5.205 c-0.724,0.228-1.517,0.396-2.366,0.515l-0.005-0.046c-2.062-0.72-3.538-2.665-3.538-4.954v-0.091h5.505l-4.303-3.162l-0.025-0.048 c0.972-1.189,2.456-1.95,4.119-1.95c2.09,0,3.896,1.199,4.758,2.941c0.097,0.449,0.148,0.938,0.148,1.473H99.993z" class="st3"/><path d="M99.844,48.372c-0.862-1.742-2.668-2.941-4.758-2.941c-1.663,0-3.147,0.761-4.119,1.95l0.026,0.048 l4.303,3.162h-5.505v0.091c0,2.289,1.476,4.234,3.538,4.954l0.005,0.046c-1.269,0.177-2.658,0.248-4.116,0.248 c-5.95,0-10.775-1.374-10.775-6.085c0-5.342,4.825-6.085,10.775-6.085c2.205,0,4.257,0.117,5.963,0.53 c0,0,0.002,0.001,0.005,0.003c0.785,0.248,1.358,0.517,2.001,0.712c0,0,0,0.003,0.005,0.003 C98.553,45.705,99.497,46.767,99.844,48.372z" class="st8"/><path d="M94.639,66.249c0.033-0.053,0.611-0.915,2.886-0.981c3.07-0.091,7.857,6.262,7.857,6.262 c-14.539,0-22.303-8.59-22.303-8.59l-0.146,0.023c-0.021-0.114-0.031-0.182-0.036-0.203c0,0,3.973-0.745,8.399-0.089 C95.148,63.245,94.657,66.135,94.639,66.249z" class="st6"/><path d="M105.381,71.53c-0.054-0.02-6.749,4.237-13.996,2.059c-6.736-2.023-8.22-9.3-8.452-10.626l0.146-0.023 C83.078,62.94,90.843,71.53,105.381,71.53z" class="st6"/><path d="M95.194,175.599l0.015,0.251c-3.221,0.682-6.92,0.895-11.228,0.555c-1.97-0.154-3.799-0.459-5.498-0.882 l0.061-0.256c0.041,0,0.082-0.038,0.11-0.074c0.404-0.504,0.632-1.148,0.632-1.795c0.003-0.994-0.504-2.025-0.128-2.948 c0.376-0.916,1.461-1.321,2.07-2.102c0.445-0.571,0.611-1.346,0.435-2.049l0.015-0.058c1.445,0.347,2.996,0.555,4.651,0.591 c1.898,0.04,3.587-0.094,5.093-0.37l0.031,0.177c0.294,0.246,0.379,0.667,0.34,1.045c-0.038,0.38-0.182,0.74-0.269,1.11 c-0.184,0.768-0.102,1.638,0.402,2.249c0.435,0.525,1.11,0.783,1.668,1.179C94.662,172.977,95.288,174.303,95.194,175.599z" class="st1"/><path d="M90.622,141.227c0.675,1.58-0.074,2.873-1.671,2.873H86.33l-0.276-0.023c0-0.051,0.005-0.102,0.005-0.155 v-0.048h0.043c0.852-0.439,1.146-1.463,0.64-2.647l-13.981-32.643c-0.673-1.564-2.502-2.849-4.088-2.872h3.837 c1.594,0,3.454,1.293,4.132,2.872l1.251,2.921L90.622,141.227z" class="st5"/><path d="M86.742,141.227c0.507,1.184,0.212,2.208-0.64,2.647h-0.043c-0.018-1.663-0.918-2.277-2.438-2.277h-1.52 v-0.015c0,0,2.167-0.269,2.167-1.97s-0.903-2.325-2.438-2.325H68.721v-0.076l9.176-9.152c0,0,1.34-1.707,0.128-2.911 c-1.213-1.202-2.297-1.012-3.382,0.063c-1.085,1.075-10.284,9.898-10.86,10.451l-0.028-0.058 c-0.084-0.155-2.638-6.045-3.431-7.878c-0.317-0.94-0.993-1.648-1.896-1.719l0.008-0.164l-4.771-11.138l1.369-0.576 c0.396,0.928,1.479,1.681,2.415,1.681c0.936,0,1.374-0.753,0.975-1.681c-0.397-0.928-1.479-1.681-2.415-1.681 c-0.131,0-0.253,0.016-0.363,0.043l-0.473-1.351c0.936,0,1.371-0.753,0.975-1.681c-0.396-0.928-1.479-1.681-2.415-1.681 c-0.936,0-1.374,0.753-0.975,1.681l-1.133,0.477l-0.578-1.352c-0.678-1.579,0.072-2.872,1.668-2.872h15.958 c1.586,0.023,3.415,1.308,4.088,2.872L86.742,141.227z M59.504,120.706c0.936,0,1.374-0.753,0.977-1.681 c-0.397-0.928-1.479-1.681-2.415-1.681c-0.936,0-1.374,0.753-0.977,1.681C57.488,119.953,58.568,120.706,59.504,120.706z" class="st2"/><path d="M68.722,137.287H81.83c1.535,0,2.438,0.626,2.438,2.325s-2.167,1.97-2.167,1.97v0.015h1.52 c1.52,0,2.42,0.614,2.438,2.277v0.048c0,0.054-0.003,0.104-0.005,0.155c-0.128,1.564-2.162,1.815-2.162,1.815H45.79l-0.217-0.023 c0.105-1.049,0.189-2.122,0.258-3.209c0.015-0.264,0.033-0.53,0.049-0.796c0.125-2.092,0.473-3.667,0.885-4.835l0.018,0.005h9.66 c3.702,0,1.896-2.777,1.896-2.777s-1.264-2.682-2.075-4.383c-0.151-0.315-0.266-0.631-0.333-0.943 c-0.23-1.052,0.059-2.039,1.236-2.637c0.455-0.231,0.88-0.314,1.264-0.287c0.903,0.071,1.578,0.779,1.896,1.719 c0.793,1.833,3.346,7.723,3.431,7.875l0.028,0.061c0.576-0.553,9.806-9.406,10.86-10.451c1.054-1.044,2.169-1.265,3.382-0.063 c1.213,1.204-0.128,2.911-0.128,2.911l-9.176,9.152V137.287z" class="st4"/><path d="M78.545,175.267l-0.061,0.256c-5.27-1.313-9.291-3.783-12.405-6.567c0.895-0.243,1.658-0.938,1.967-1.807 c0.366-1.027,0.118-2.186,0.425-3.233c0.468-1.6,2.154-2.591,3.819-2.829l0.044-0.046c2.487,2.396,5.567,4.287,9.345,5.2 l-0.015,0.058c0.176,0.703,0.01,1.478-0.435,2.049c-0.609,0.781-1.693,1.186-2.07,2.102c-0.376,0.923,0.131,1.954,0.128,2.948 c0,0.647-0.228,1.291-0.632,1.795C78.627,175.229,78.586,175.267,78.545,175.267z" class="st1"/><path d="M72.334,161.041l-0.044,0.046c-1.665,0.238-3.351,1.229-3.819,2.829c-0.307,1.047-0.059,2.206-0.425,3.233 c-0.31,0.869-1.072,1.564-1.967,1.807c-3.981-3.557-6.472-7.628-8.191-10.448c-0.164-0.269-0.325-0.537-0.481-0.811l0.271-0.152 c0.228-0.36,0.563-0.654,0.954-0.829c1.026-0.459,2.21-0.084,3.313,0.144c1.103,0.231,2.466,0.206,3.09-0.725 c0.325-0.484,0.356-1.095,0.466-1.668c0.11-0.571,0.366-1.189,0.908-1.407l0.225-0.066c0.202,0.385,0.417,0.791,0.645,1.219 c0.548,1.027,1.159,2.039,1.837,3.017C70.054,158.584,71.123,159.872,72.334,161.041z" class="st1"/><path d="M60.693,104.472c4.746,0,10.478-3.341,10.376-3.144c0,0-1.53,1.94-2.397,4.244v0.14h-7.979V104.472z" class="st4"/><path d="M66.634,152.994l-0.225,0.066c-0.542,0.218-0.798,0.836-0.908,1.407c-0.11,0.573-0.141,1.184-0.466,1.668 c-0.624,0.931-1.988,0.956-3.09,0.725c-1.103-0.228-2.287-0.603-3.313-0.144c-0.391,0.175-0.727,0.469-0.954,0.829l-0.271,0.152 c-1.484-2.553-2.735-5.284-3.65-7.462l0.138-0.058c0.959,0.165,2.021,0.314,2.847-0.198c0.719-0.443,1.077-1.288,1.706-1.851 c0.443-0.398,1.003-0.641,1.499-0.973c0.496-0.33,0.732-0.555,0.801-1.144v-0.119h2.558v0.178 C63.961,147.449,64.69,149.269,66.634,152.994z" class="st1"/><path d="M60.748,145.892v0.119c-0.069,0.589-0.304,0.814-0.801,1.144c-0.496,0.332-1.056,0.575-1.499,0.973 c-0.629,0.563-0.987,1.408-1.706,1.851c-0.826,0.512-1.888,0.363-2.847,0.198l-0.138,0.058c-1.044-2.482-1.648-4.254-1.648-4.254 v-0.089H60.748z" class="st1"/><path d="M26.953,131.24c-1.896,1.286-3.482,2.368-4.551,3.109c-0.461,0.312-0.803,0.593-1.054,0.847 c-1.325,1.331-0.008,1.838,1.054,1.838h13.725l0.069,0.012c-0.061,0.371-0.115,0.753-0.159,1.149 c-0.153,1.285-0.279,2.497-0.394,3.628c-0.153,1.498-0.289,2.86-0.445,4.069H8.316c0,0-2.978-0.091-4.694-3.76 c-1.714-3.668,2.799-7.157,2.799-7.157l11.898-8.308l2.84-1.98l6.155-4.3l27.685-19.327l0.143-0.059 c0.107,0.272,0.238,0.561,0.397,0.865c1.118,1.942,3.037,2.606,5.155,2.606v1.24h-7.979c-1.596,0-2.346,1.293-1.668,2.872 l0.578,1.352l1.584,3.696l-0.108,0.046C53.1,113.678,36.27,124.922,26.953,131.24z" class="st4"/><path d="M60.481,119.025c0.397,0.928-0.041,1.681-0.977,1.681c-0.936,0-2.016-0.753-2.415-1.681 c-0.396-0.928,0.041-1.681,0.977-1.681C59.002,117.344,60.084,118.097,60.481,119.025z" class="st3"/><path d="M58.424,114.129c0.399,0.928-0.038,1.681-0.975,1.681c-0.936,0-2.018-0.753-2.415-1.681 c-0.343-0.798-0.069-1.465,0.611-1.638c0.11-0.027,0.233-0.043,0.363-0.043C56.945,112.448,58.028,113.201,58.424,114.129z" class="st3"/><path d="M58.337,134.258c0,0,1.806,2.776-1.896,2.776h-6.549v-0.165c0.678-0.071,0.993-0.842,1.346-1.42 c0.483-0.788,1.246-1.359,1.993-1.901c0.75-0.543,1.522-1.096,2.039-1.859c0.517-0.763,0.732-1.8,0.289-2.609l0.161-0.101 l0.21-0.048c0.066,0.312,0.182,0.628,0.333,0.943C57.074,131.575,58.337,134.258,58.337,134.258z" class="st1"/><path d="M56.148,109.459c0.397,0.928-0.038,1.681-0.975,1.681c-0.936,0-2.019-0.753-2.415-1.681 c-0.399-0.928,0.038-1.681,0.975-1.681C54.669,107.778,55.751,108.531,56.148,109.459z" class="st3"/><path d="M56.051,67.623c2.228,4.951,0.542,10.441-5.536,15.511c-6.081,5.071-11.438,7.277-16.736,9.008l-0.09,0.058 c-0.486,0.677-0.939,1.379-1.358,2.107l-1.427-0.479c0.706-1.285,1.282-2.551,1.673-3.537l0.041-0.327 c3.272,0.413,5.817-2.535,7.844-6.234c2.287-4.176,2.891-6.742,2.891-6.742l-0.013-0.096c2.901-0.32,5.157-2.758,5.157-5.72 c0-2.315-1.379-4.31-3.364-5.223l0.084-0.175C45.217,65.775,53.825,62.672,56.051,67.623z" class="st1"/><path d="M47.465,135.467l-0.438-0.36c0,0-0.01,0-0.015,0c-0.1-0.026-0.12-0.155-0.133-0.256 c-0.097-0.715-0.778-1.192-1.425-1.521c-0.647-0.328-1.371-0.634-1.724-1.263c-0.184-0.33-0.246-0.713-0.412-1.052 c-0.327-0.67-1.051-1.093-1.793-1.212c-0.732-0.117-1.484,0.025-2.19,0.256c3.262-3.61,7.861-3.851,9.253-3.851 c5.237,0,7.132,2.773,7.132,2.773l-0.161,0.102c0.443,0.809,0.228,1.846-0.289,2.609c-0.517,0.763-1.289,1.316-2.039,1.858 c-0.747,0.543-1.509,1.113-1.993,1.902c-0.353,0.578-0.668,1.348-1.346,1.419v0.165h-3.111l-0.018-0.005 c0.223-0.631,0.466-1.146,0.701-1.562V135.467z" class="st1"/><path d="M55.173,111.14l0.473,1.351c-0.681,0.173-0.954,0.84-0.611,1.638l-1.369,0.576l-0.458-1.073l-1.583-3.696 l1.133-0.477C53.155,110.387,54.237,111.14,55.173,111.14z" class="st2"/><path d="M45.132,65.95c1.985,0.913,3.364,2.908,3.364,5.223c0,2.961-2.256,5.4-5.157,5.72 c-0.212,0.025-0.43,0.038-0.65,0.038c-2.489,0-4.61-1.552-5.439-3.729l-0.092-0.129c1.489-1.039,2.461-2.758,2.461-4.703 c0-0.449-0.051-0.887-0.151-1.306l0.228-0.051c0.402,0.089,0.819,0.134,1.246,0.134c1.404,0,2.691-0.492,3.697-1.313l0.24,0.005 C44.963,65.874,45.05,65.909,45.132,65.95z" class="st8"/><path d="M47.028,135.107l0.438,0.36c-0.235,0.416-0.478,0.93-0.701,1.562c-0.412,1.168-0.76,2.743-0.885,4.834 c-0.015,0.267-0.033,0.533-0.049,0.797l-0.361-0.023c-0.478-0.31-1.11-0.261-1.655-0.086c-0.542,0.175-1.046,0.464-1.596,0.611 c-0.729,0.195-1.525,0.129-2.21-0.18c-0.714-0.322-1.289-0.89-1.985-1.248c-0.696-0.36-1.648-0.454-2.19,0.109l-0.189-0.02 c0.115-1.131,0.24-2.343,0.394-3.628c0.044-0.396,0.097-0.779,0.159-1.149c0.53-3.161,1.704-5.4,3.139-6.99 c0.706-0.23,1.458-0.372,2.19-0.256c0.742,0.119,1.466,0.543,1.793,1.212c0.166,0.34,0.228,0.723,0.412,1.052 c0.353,0.629,1.077,0.936,1.724,1.263c0.647,0.33,1.328,0.806,1.425,1.521c0.013,0.102,0.033,0.231,0.133,0.256 c0.005,0,0.01,0,0.015,0V135.107z" class="st1"/><path d="M44.638,150.907c0,0.051-0.325,0.205-0.264,0.114c-1.075,0.193-1.302,0.794-2.244,1.339 c-1.251,0.725-2.924,0.816-4.121,0.005c-0.616-0.418-1.067-1.029-1.614-1.529c-0.548-0.502-1.282-0.91-2.011-0.763l-0.059-0.023 c0.399-1.077,0.657-2.474,0.872-4.158c0.156-1.209,0.292-2.571,0.445-4.069l0.189,0.02c0.542-0.563,1.494-0.469,2.19-0.109 c0.696,0.358,1.271,0.926,1.985,1.248c0.686,0.309,1.481,0.375,2.21,0.18c0.55-0.147,1.054-0.436,1.596-0.611 c0.545-0.175,1.177-0.224,1.655,0.086l0.361,0.023c-0.069,1.087-0.154,2.16-0.258,3.209c-0.177,1.77-0.417,3.476-0.778,5.074 L44.638,150.907z" class="st1"/><path d="M35.236,62.449c-0.069-0.342-0.102-0.697-0.102-1.06c0-3.179,2.599-5.755,5.807-5.755s5.81,2.576,5.81,5.755 c0,1.787-0.824,3.387-2.113,4.444c-1.005,0.822-2.292,1.313-3.697,1.313c-0.427,0-0.844-0.046-1.246-0.134l-0.228,0.051 c-0.514-2.193-2.292-3.907-4.533-4.341l0.041-0.233l0.008,0.005L35.236,62.449z" class="st8"/><path d="M44.638,150.907l0.156,0.036c-1.448,6.46-4.799,11.145-13.454,11.145c-0.146,0-0.292-0.002-0.435-0.005 l0.005-0.314c0.719-1.258,0.785-2.863,0.171-4.176c-0.335-0.71-0.854-1.346-1.018-2.112c-0.246-1.133,0.458-2.393,1.558-2.794 l-0.008-0.053c1.348-0.221,2.164-1.106,2.712-2.584l0.059,0.023c0.729-0.147,1.463,0.261,2.011,0.763 c0.547,0.5,0.998,1.111,1.614,1.529c1.197,0.811,2.87,0.72,4.121-0.005c0.941-0.545,1.169-1.146,2.244-1.339 C44.313,151.113,44.638,150.958,44.638,150.907z" class="st1"/><path d="M43.338,76.892l0.013,0.096c0,0-0.604,2.566-2.891,6.742c-2.026,3.699-4.572,6.648-7.844,6.234 c-0.422-0.051-0.857-0.16-1.305-0.33c-0.512-0.195-0.939-0.439-1.292-0.72c-2.336-1.871-1.371-5.449-0.274-7.989 c1.264-2.923,2.469-6.98,2.469-6.98l0.01-0.038c0.504,0.142,1.034,0.218,1.584,0.218c1.246,0,2.402-0.39,3.349-1.055l0.092,0.129 c0.829,2.178,2.95,3.729,5.439,3.729C42.908,76.93,43.126,76.918,43.338,76.892z" class="st1"/><path d="M39.468,67.063c0.1,0.418,0.151,0.857,0.151,1.306c0,1.945-0.972,3.664-2.461,4.703 c-0.946,0.664-2.103,1.055-3.349,1.055c-0.55,0-1.08-0.076-1.583-0.218c-2.438-0.682-4.224-2.906-4.224-5.54 c0-3.179,2.599-5.755,5.807-5.755c0.384,0,0.762,0.038,1.126,0.109C37.176,63.156,38.954,64.87,39.468,67.063z" class="st8"/><path d="M23.563,92.242l-0.077-0.041c0,0-4.454-2.923-9.391-8.59c-3.794-4.356-8.051-12.803-6.122-20.027 c0.578-2.173,1.717-4.237,3.594-6.042c8.03-7.723,23.05,4.65,23.408,4.946l-0.041,0.233c-0.363-0.071-0.742-0.109-1.126-0.109 c-3.208,0-5.807,2.576-5.807,5.755c0,2.634,1.786,4.858,4.224,5.54l-0.01,0.038c0,0-1.205,4.057-2.469,6.98 c-1.098,2.54-2.062,6.118,0.274,7.989l-0.123,0.155c-1.005,2.251-2.052,4.556-3.599,6.303l-0.082-0.071 c-0.494-0.52-1.008-1.052-1.67-1.339c-0.617-0.266-1.402-0.264-1.911,0.155C22.921,93.484,23.231,92.86,23.563,92.242z" class="st1"/><path d="M10.286,110.44c0.223-0.129,0.438-0.273,0.622-0.441C10.736,110.121,10.534,110.283,10.286,110.44z M29.212,96.519c-0.246,0.337-0.499,0.662-0.76,0.963c-1.822,2.125-3.835,3.2-6.59,3.758c-0.553,0.111-1.123,0.197-1.712,0.238 c-1.33,0.101-2.747-0.013-4.249-0.507c-1.361-0.449-2.336-0.875-3.709-1.293c-1.371-0.418-2.904-0.573-4.211,0.013 c-1.1,0.495-1.919,1.458-2.512,2.5c-0.665,1.167-1.097,2.505-0.98,3.841c0.118,1.339,0.857,2.66,2.062,3.271 c1.187,0.603,1.985,0.327,2.873-0.368l-0.023-0.03c0.45-0.385,0.657-0.55,0.934-0.654c0.54-0.211,0.883,0.19,1.023,0.446 c0.064,0.119,0.151,0.299,0.028,0.626c-0.095,0.264-0.264,0.482-0.471,0.672c0.113-0.078,0.21-0.139,0.297-0.17 c0.279-0.091,0.668-0.043,0.808,0.216c0.064,0.119,0.133,0.37,0.12,0.507c-0.059,0.54-0.44,0.973-0.9,1.29 c-0.079,0.054-0.161,0.104-0.243,0.15c-1.425,0.824-3.74,1.181-5.784,0.286c-2.192-0.96-3.663-3.209-3.986-5.565 c-0.322-2.355,0.404-4.774,1.686-6.782c0.458-0.715,0.99-1.392,1.637-1.942c2.305-1.957,5.73-2.036,8.652-1.219 c2.203,0.616,4.326,1.681,6.613,1.721c0.435,0.008,0.849-0.015,1.243-0.063c1.862-0.238,3.326-1.116,4.776-2.553 c0.161-0.16,0.317-0.325,0.463-0.497c1.548-1.747,2.594-4.052,3.6-6.303l0.123-0.155c0.353,0.281,0.78,0.525,1.292,0.72 c0.448,0.17,0.883,0.279,1.305,0.33l-0.041,0.327c-0.391,0.986-0.967,2.251-1.673,3.537 C30.399,94.746,29.829,95.677,29.212,96.519z" class="st9"/><path d="M30.903,93.829l1.427,0.479c-0.471,0.821-0.9,1.676-1.294,2.573l-0.02-0.01 c-0.645,0.16-1.256,0.018-1.804-0.352C29.828,95.677,30.399,94.746,30.903,93.829z" class="st1"/><path d="M31.614,152.634l0.008,0.053c-1.1,0.401-1.804,1.661-1.558,2.794c0.164,0.766,0.683,1.402,1.018,2.112 c0.614,1.313,0.547,2.918-0.171,4.176l-0.005,0.314c-8.752-0.193-11.504-6.237-12.361-11.148l0.187-0.033 c0.34-0.654,0.655-0.616,1.392-0.707c0.737-0.092,1.491,0.127,2.126,0.509c0.535,0.325,0.998,0.766,1.563,1.035 c1.358,0.644,3.016,0.012,3.707-1.314l0.059-0.022c0.609,1.475,1.668,2.289,3.313,2.289 C31.148,152.692,31.389,152.674,31.614,152.634z" class="st1"/><path d="M31.015,96.871l0.02,0.01c-1.189,2.72-2.036,5.831-2.64,9.505l-0.212-0.035 c-1.149,0.88-2.916,0.849-4.034-0.071c-1.044-0.862-1.612-2.404-2.939-2.69c-0.468-0.099-0.975-0.01-1.379,0.248l-0.11-0.02 c0.136-0.761,0.281-1.493,0.44-2.208l-0.01-0.132c0.588-0.041,1.159-0.127,1.711-0.239c2.755-0.557,4.769-1.632,6.59-3.757 c0.261-0.302,0.514-0.626,0.76-0.963C29.759,96.889,30.371,97.031,31.015,96.871z" class="st1"/><path d="M28.184,106.351l0.212,0.035c-0.461,2.807-0.778,5.943-0.998,9.488c-0.709,0.824-1.816,1.272-2.911,1.3 c-1.167,0.033-2.315-0.37-3.303-0.984c-0.399-0.245-0.778-0.529-1.213-0.704s-0.947-0.231-1.364-0.018H18.55 c0.225-4.526,0.586-8.321,1.172-11.65l0.11,0.02c0.404-0.258,0.911-0.347,1.379-0.248c1.328,0.286,1.896,1.828,2.939,2.69 C25.268,107.2,27.035,107.23,28.184,106.351z" class="st1"/><path d="M27.577,150.403l-0.059,0.022c-0.691,1.326-2.348,1.958-3.707,1.314c-0.565-0.269-1.028-0.71-1.563-1.035 c-0.634-0.383-1.389-0.601-2.126-0.509c-0.737,0.091-1.051,0.053-1.392,0.707l-0.187,0.033c-0.34-1.945-0.384-3.712-0.384-4.865 v-0.178h8.757v0.089C26.917,147.791,27.119,149.287,27.577,150.403z" class="st1"/><path d="M27.314,120.386l-6.155,4.3l-0.138-0.192c-1.039,0.018-2.07-0.535-2.62-1.41h-0.105 c0.059-2.758,0.138-5.286,0.253-7.619h0.059c0.417-0.21,0.929-0.154,1.364,0.021s0.813,0.459,1.213,0.704 c0.988,0.614,2.136,1.017,3.303,0.984c1.095-0.028,2.203-0.476,2.911-1.3c-0.084,1.381-0.153,2.824-0.212,4.332L27.314,120.386z" class="st1"/><path d="M26.953,131.24c-0.008,1.037-0.015,2.102-0.02,3.19h-0.141c-1.517,1.128-3.615,1.443-5.4,0.809l-0.043-0.043 c0.251-0.254,0.594-0.535,1.054-0.847C23.471,133.608,25.057,132.526,26.953,131.24z" class="st1"/><path d="M26.792,134.43h0.141c-0.005,0.852-0.008,1.719-0.01,2.601c-2.392,0.003-4.065,0.003-4.52,0.003 c-1.062,0-2.379-0.507-1.054-1.838l0.043,0.043C23.177,135.872,25.275,135.558,26.792,134.43z" class="st1"/><path d="M26.217,95.302l0.082,0.071c-0.146,0.172-0.302,0.337-0.463,0.497c-1.451,1.438-2.914,2.315-4.776,2.553 l-0.015-0.147c0.455-1.453,0.98-2.827,1.591-4.158c0.509-0.418,1.294-0.421,1.911-0.155 C25.209,94.249,25.723,94.782,26.217,95.302z" class="st1"/><path d="M21.021,124.494l0.138,0.193l-2.84,1.98l-0.079-0.112c0.015-1.197,0.036-2.353,0.056-3.473h0.105 C18.951,123.959,19.982,124.512,21.021,124.494z" class="st1"/><path d="M10.908,109.999c-0.184,0.167-0.399,0.312-0.622,0.441C10.534,110.283,10.736,110.121,10.908,109.999z" class="st9"/><path d="M106.102,19.72c0,0,0.01-0.013,0.013-0.02c2.891-4.295,1.402-10.917-2.507-14.33 c-3.917-3.42-9.458-4.439-14.672-4.193C84.04,1.41,78.698,2.999,76.204,7.183c-1.435,2.409-1.724,5.365-3.2,7.751 c-1.788,2.885-5.042,4.521-8.227,5.748c-3.185,1.225-6.552,2.231-9.189,4.381c-4.226,3.446-5.782,9.746-3.64,14.733 c1.225,2.855,3.454,5.157,5.019,7.842c1.875,3.217,2.763,6.987,2.52,10.694c-0.184,2.784-0.982,5.616-0.271,8.313 c1.128,4.282,6.493,6.891,10.599,5.157" class="st10"/><path d="M106.169,19.735c3.535,0.55,6.513,3.628,6.917,7.152c0.389,3.397-1.368,6.643-3.157,9.566 c-1.785,2.926-3.645,5.727-3.916,8.144" class="st10"/><path d="M104.413,21.738c-0.545,0.299-1.097,0.576-1.658,0.832c-4.916,2.261-10.442,3.055-15.866,3.552 c-2.975,0.271-6.055,0.492-8.695,1.879c-3.149,1.653-5.347,4.967-5.626,8.486c-0.281,3.529,1.22,6.919,2.356,10.273 c1.138,3.357,1.891,7.185,0.23,10.319c-0.962,1.818-2.574,3.103-4.398,4.128c-1.246,0.702-2.594,1.28-3.899,1.823" class="st10"/><path d="M69.84,71.781c0,0,0.003,0.013,0.003,0.018c0.212,1.478-0.243,3.037-1.213,4.178 c-0.977,1.146-2.458,1.851-3.97,1.889c2.781,1.204,6.035,0.761,8.332-1.207c-0.161,2.513-2.246,4.229-4.733,4.751 c3.868,1.42,8.498-1.648,10.215-4.422" class="st10"/><path d="M71.103,61.267c0.755,3.228,3.791,5.365,5.549,8.184c1.435,2.299,1.924,4.911,1.914,7.538 c-0.008,1.879-0.271,3.765-0.624,5.55c-0.084,0.416-0.146,0.849-0.161,1.283c-0.021,0.677,0.077,1.344,0.417,1.919 c0.514,0.88,1.517,1.344,2.476,1.706c6.007,2.264,12.758,2.543,18.933,0.776c0.801-0.228,1.704-0.606,1.911-1.405 c0.095-0.37,0.016-0.761-0.066-1.133c-0.082-0.385-0.19-0.801-0.305-1.247c-0.279-1.1-0.603-2.378-0.734-3.78" class="st10"/><path d="M94.078,78.614c1.075,1.207,2.771,1.653,4.385,1.838c0.637,0.073,1.292,0.109,1.947,0.096 c2.256-0.043,4.507-0.654,6.04-2.241c2.348-2.429,2.264-6.217,2.031-9.571c-0.169-2.444-0.34-4.888-0.509-7.33" class="st10"/><path d="M62.855,57.147c3.446-0.2,7.455-1.97,9.568-4.675" class="st10"/><path d="M61.602,49.516c3.425-0.497,6.654-2.231,8.946-4.802" class="st10"/><path d="M56.892,41.471c4.861,0.066,10.115-2.601,12.643-6.539" class="st10"/><path d="M57.564,26.059c5.326-2.622,11.909-2.581,17.204,0.112" class="st10"/><path d="M77.854,14.797c5.526,0.449,8.534,5.7,9.384,7.728" class="st10"/><path d="M81.085,7.203c4.942,0.408,13.49,6.252,15.111,13.78" class="st10"/><path d="M91.238,4.594c5.797,2.114,10.177,7.624,10.896,13.704" class="st10"/><path d="M105.976,39.225c0,0.03-0.002,0.058-0.002,0.089c-0.041,1.696-0.085,3.41-0.141,5.279 c0,0.03,0,0.063,0,0.094" class="st10"/><path d="M102.781,22.626c1.609,0.953,2.605,2.705,3.039,4.513c0.438,1.805,0.384,3.689,0.328,5.545 c-0.015,0.482-0.028,0.953-0.041,1.417" class="st10"/><path d="M100.113,49.964c0.806,0.228,1.599,0.459,2.387,0.69c2.515,0.738,4.958,1.483,7.434,2.193 c1.99,0.57,4.004,1.118,6.094,1.623c3.586,0.865,4.587,3.641-0.023,4.683c-3.387,0.766-5.805,1.268-8.138,1.681 c-2.394,0.429-4.702,0.766-7.877,1.212c-1.195,0.167-2.435,0.319-3.582-0.048c-1.146-0.37-2.625-1.544-2.796-2.725 c-0.118-0.801-0.241-2.624,1.926-3.58c0.087-0.038,0.189-0.076,0.299-0.111c1.031-0.325,2.993-0.411,4.214,1.364" class="st10"/><path d="M97.192,45.008c1.361,0.697,2.305,1.76,2.653,3.364c0.097,0.449,0.148,0.938,0.148,1.473 c0,0.038,0,0.079,0,0.117c-0.044,2.835-1.719,4.399-4.29,5.205c-0.724,0.228-1.517,0.396-2.366,0.515 c-1.269,0.177-2.658,0.248-4.116,0.248c-5.95,0-10.775-1.374-10.775-6.085c0-5.342,4.825-6.085,10.775-6.085 c2.205,0,4.257,0.117,5.963,0.53" class="st10"/><path d="M95.187,44.293c0.737,0.177,1.41,0.411,2.001,0.712" class="st10"/><path d="M93.329,55.636c-2.062-0.72-3.538-2.665-3.538-4.954" class="st10"/><path d="M90.968,47.381c0.972-1.189,2.456-1.95,4.119-1.95c2.09,0,3.896,1.199,4.758,2.941 c0.026,0.051,0.051,0.104,0.074,0.155" class="st10"/><path d="M90.993,47.429l4.303,3.162h-5.505" class="st10"/><path d="M110.518,48.081c0.025,0.094,0.048,0.19,0.069,0.289c0.1,0.449,0.151,0.938,0.151,1.476 c0,1.181-0.279,2.148-0.783,2.931" class="st10"/><path d="M101.712,47.381c0.972-1.189,2.456-1.95,4.119-1.95c1.082,0,2.087,0.322,2.924,0.872 c0.78,0.515,1.414,1.227,1.831,2.066c0.029,0.053,0.054,0.104,0.077,0.157" class="st10"/><path d="M101.737,47.429l4.303,3.162h-3.52" class="st10"/><path d="M78.384,45.669c0.768-0.312,2.671-2.393,12.64-2.013c1.993,0.076,3.223,0.34,4.157,0.634 c0,0,0.002,0.001,0.005,0.003c0.785,0.248,1.358,0.517,2,0.712c0,0,0,0.003,0.005,0.003c0.824,0.251,1.763,0.38,3.402,0.185 c2.362-0.279,4.022-0.431,5.362-0.231c1.088,0.162,1.96,0.558,2.825,1.306" class="st10"/><path d="M106.04,34.532c0.335,0.71,0.512,1.503,0.512,2.368c0,0.933-0.2,1.734-0.578,2.414 c-0.862,1.559-2.663,2.492-5.153,2.933c-1.202,0.215-2.568,0.314-4.065,0.314c-5.951,0-10.159-1.924-10.159-6.019 c0-3.691,4.208-6.151,10.159-6.151c4.464,0,7.742,1.384,9.103,3.785C105.922,34.291,105.984,34.41,106.04,34.532z" class="st10"/><path d="M100.868,42.265c-0.015-0.005-0.031-0.01-0.046-0.018c-2.039-0.73-3.492-2.665-3.492-4.936" class="st10"/><path d="M98.507,34.009c0.972-1.189,2.456-1.947,4.119-1.947c1.662,0,2.775,1.24,3.415,2.469 c0.171,0.322,0.309,0.641,0.422,0.938" class="st10"/><path d="M98.532,34.06l4.306,3.162H97.33" class="st10"/><path d="M94.636,66.252h0.003c0.033-0.056,0.611-0.918,2.886-0.984c3.07-0.091,7.857,6.262,7.857,6.262 c-0.054-0.02-6.749,4.237-13.996,2.059c-6.736-2.023-8.22-9.3-8.452-10.626c-0.021-0.114-0.031-0.182-0.036-0.203 c0,0,3.973-0.745,8.399-0.089c3.853,0.573,3.362,3.463,3.344,3.577" class="st10"/><path d="M83.078,62.94c0,0,7.764,8.59,22.303,8.59" class="st10"/><path d="M80.576,93.423c-0.015,0.015-0.036,0.033-0.059,0.053c-0.962,0.9-7.112,6.955-0.599,9.105 c5.416,1.79,8.667-5.19,9.749-7.964c-0.45,2.505-0.361,11.097,5.329,10.38c5.597-0.715,4.694-5.279,3.612-10.737 c1.988,7.408,7.194,9.609,10.197,6.792c0.407-0.38,0.775-0.857,1.087-1.422c2.438-5.281-6.679-7.966-8.667-15.212" class="st10"/><path d="M77.752,83.522c0,0,0.005,0.112-0.01,0.299c-0.072,0.9-0.611,3.572-4.416,4.533 c-3.492,0.88-8.864,1.458-8.667,5.456c0.01,0.228,0.041,0.466,0.09,0.717c0.903,4.652,6.772,3.4,6.772,3.4 s5.042-0.877,8.997-4.452c0.021-0.018,0.041-0.035,0.059-0.053c0.015-0.015,0.028-0.025,0.038-0.035h0.003 c0.015-0.013,0.023-0.02,0.023-0.02" class="st10"/><path d="M93.239,107.687c0.212,2.307,1.328,9.289,6.994,8.316c4.605-0.984,3.341-5.547,2.71-9.931 c1.102,4.371,4.543,8.268,8.401,7.107c0.563-0.168,1.136-0.447,1.711-0.845c5.326-4.026-2.259-6.62-4.244-11.274" class="st10"/><path d="M93.239,107.682c-0.02-0.449-0.049-0.715-0.049-0.715S93.198,107.236,93.239,107.682z" class="st10"/><path d="M93.239,107.682v0.005" class="st10"/><path d="M78.202,111.376c2.53-1.443,4.566-3.707,5.147-5.484c-0.542,2.239-2.256,11.275,4.334,11.186 c5.51-0.074,5.656-7.094,5.557-9.391" class="st10"/><path d="M64.569,93.813c-2.504,2.738-11.778,1.219-9.427,7.188c0.108,0.271,0.238,0.56,0.397,0.865 c1.118,1.942,3.037,2.606,5.155,2.606c4.746,0,10.478-3.342,10.376-3.144c0,0-1.53,1.94-2.397,4.244" class="st10"/><path d="M45.789,145.892h38.102c0,0,2.034-0.251,2.162-1.815c0-0.051,0.005-0.102,0.005-0.155v-0.048 c-0.018-1.663-0.918-2.277-2.438-2.277H70.709" class="st10"/><path d="M54.999,101.06l-27.685,19.327l-6.155,4.3l-2.84,1.98l-11.898,8.308c0,0-4.513,3.489-2.799,7.157 c1.717,3.669,4.694,3.76,4.694,3.76h26.907" class="st10"/><path d="M71.249,141.582h10.852c0,0,2.167-0.269,2.167-1.97s-0.903-2.325-2.438-2.325H68.632" class="st10"/><path d="M68.721,137.211l9.176-9.153c0,0,1.34-1.706,0.128-2.91c-1.213-1.202-2.297-1.012-3.382,0.063 c-1.085,1.075-10.284,9.898-10.86,10.451l-0.028,0.028" class="st10"/><path d="M36.127,137.034H22.402c-1.062,0-2.379-0.507-1.054-1.838c0.251-0.254,0.594-0.535,1.054-0.847 c1.069-0.741,2.655-1.823,4.551-3.109c9.317-6.318,26.148-17.562,26.148-17.562" class="st10"/><path d="M63.756,135.601c-0.084-0.152-2.638-6.042-3.431-7.875c-0.317-0.94-0.993-1.648-1.896-1.719 c-0.384-0.027-0.808,0.056-1.264,0.287c-1.177,0.598-1.466,1.585-1.236,2.637c0.067,0.312,0.182,0.628,0.333,0.943 c0.811,1.701,2.075,4.383,2.075,4.383s1.806,2.777-1.896,2.777h-9.66" class="st10"/><path d="M63.756,135.601v0.003" class="st10"/><path d="M147.863,56.409c-1.471,0-3.188,1.192-3.812,2.652l-5.946,13.881" class="st10"/><path d="M157.553,74.337l6.541-15.276c0.627-1.46-0.067-2.652-1.54-2.652h-14.6" class="st10"/><path d="M132.51,86.007l-1.363,3.184c-0.568,1.321-0.051,2.426,1.146,2.622c0.125,0.02,0.256,0.03,0.394,0.03h11.338" class="st10"/><path d="M147.954,56.409h-3.674c-1.471,0-3.187,1.192-3.811,2.652l-6.347,14.822l-6.557,15.308 c-0.627,1.458,0.067,2.652,1.54,2.652h3.193" class="st10"/><path d="M157.911,59.868c-0.368,0.857-1.366,1.552-2.231,1.552c-0.864,0-1.266-0.695-0.9-1.552 c0.368-0.857,1.366-1.549,2.231-1.549C157.875,58.318,158.277,59.011,157.911,59.868z" class="st10"/><path d="M162.516,59.868c-0.369,0.857-1.367,1.552-2.231,1.552c-0.865,0-1.267-0.695-0.901-1.552 c0.369-0.857,1.366-1.549,2.231-1.549C162.48,58.318,162.881,59.011,162.516,59.868z" class="st10"/><path d="M160.669,64.178c-0.366,0.857-1.363,1.552-2.228,1.552c-0.865,0-1.269-0.695-0.9-1.552 c0.365-0.857,1.363-1.549,2.228-1.549C160.634,62.629,161.038,63.321,160.669,64.178z" class="st10"/><path d="M68.673,105.712c1.586,0.023,3.415,1.308,4.088,2.872l13.981,32.643c0.507,1.184,0.212,2.208-0.64,2.647" class="st10"/><path d="M58.437,125.843l-4.771-11.138l-0.458-1.073l-1.583-3.696l-0.578-1.352 c-0.678-1.579,0.072-2.872,1.668-2.872H68.53" class="st10"/><path d="M68.529,105.712h3.981c1.594,0,3.454,1.293,4.132,2.872l1.251,2.921l12.73,29.722 c0.675,1.58-0.074,2.873-1.671,2.873h-2.622" class="st10"/><path d="M57.089,119.025c0.399,0.928,1.479,1.681,2.415,1.681c0.936,0,1.374-0.753,0.977-1.681 c-0.396-0.928-1.479-1.681-2.415-1.681C57.13,117.344,56.692,118.097,57.089,119.025z" class="st10"/><path d="M52.758,109.459c0.396,0.928,1.479,1.681,2.415,1.681c0.936,0,1.371-0.753,0.975-1.681 c-0.396-0.928-1.479-1.681-2.415-1.681C52.797,107.778,52.359,108.531,52.758,109.459z" class="st10"/><path d="M55.035,114.129c0.397,0.928,1.479,1.681,2.415,1.681c0.936,0,1.374-0.753,0.975-1.681 c-0.396-0.928-1.479-1.681-2.415-1.681c-0.131,0-0.253,0.016-0.363,0.043C54.965,112.664,54.692,113.331,55.035,114.129z" class="st10"/><path d="M147.855,77.43h-10.852c0,0-2.167-0.269-2.167-1.967c0-0.479,0.072-0.872,0.207-1.192 c0.351-0.811,1.128-1.136,2.231-1.136h10.588c3.61,0,5.055,2.363,5.055,2.363l0.875,1.468l0.691,1.156" class="st10"/><path d="M153.8,76.961l-6.199-11.346c0,0-0.798-2.013,0.706-2.829c1.507-0.814,2.494-0.327,3.229,1.009 c0.654,1.187,4.95,8.881,5.881,10.55l0.179,0.319c0,0,1.686,3.042,0.422,6.501c-0.709,1.94-9.959,24.76-17.954,44.455 c-1.194,2.938-2.358,5.806-3.463,8.523c-1.338,3.296-2.589,6.372-3.692,9.087c-1.033,2.536-1.936,4.756-2.663,6.546 c-1.23,3.03-1.962,4.825-1.962,4.825s-0.059,0.193-0.187,0.507c-0.555,1.359-2.402,4.982-6.316,4.982 c-3.272,0-4.812-1.597-5.531-2.943" class="st10"/><path d="M146.059,81.743H135.21c0,0-0.023,0-0.067-0.01c-0.36-0.061-2.1-0.434-2.1-1.957 c0-1.701,0.903-2.327,2.438-2.327h10.586" class="st10"/><path d="M144.273,81.732h-10.588c-1.535,0-2.438,0.626-2.438,2.325c0,1.009,0.764,1.516,1.384,1.757 c0.424,0.167,0.782,0.213,0.782,0.213h8.714c0,0,4.456-0.388,2.65,4.145c-0.13,0.33-0.366,0.908-0.683,1.699h-0.003 c-2.033,5.022-7.562,18.574-12.594,30.891c-0.427,1.05-0.854,2.092-1.271,3.116c-0.635,1.549-1.251,3.063-1.847,4.523 c-0.745,1.823-1.456,3.557-2.111,5.167c-1.542,3.773-2.801,6.851-3.563,8.717c-0.515,1.257-0.804,1.965-0.804,1.965" class="st10"/><path d="M128.223,155.108c0,0,1.737-0.147,3.886-1.11c2.289-1.03,5.047-2.984,6.677-6.676 c0.562-1.278,0.867-2.517,0.982-3.689c0.34-3.417-0.908-6.27-1.868-7.9c-0.552-0.941-1.01-1.476-1.01-1.476" class="st10"/><path d="M140.413,125.759c0,0,1.471,0.766,3.625,1.41c2.53,0.758,6.001,1.351,9.143,0.349 c0.67-0.213,1.322-0.496,1.949-0.867c2.402-1.419,3.643-3.318,4.006-5.103c0.489-2.371-0.565-4.536-2.471-5.096 c-0.049-0.016-0.095-0.028-0.141-0.041c-3.443-1.019-5.536-1.803-4.645-5.687c0.567-2.479,3.681-3.362,7.012-2.715 c1.957,0.38,3.99,1.29,5.628,2.715c3.128,2.721,4.543,7.634,3.696,12.401c-0.35,1.972-1.087,3.919-2.251,5.676 c-2.448,3.692-6.086,6.344-10.701,7.781c-1.427,0.449-2.95,0.779-4.559,0.987c-2.583,0.334-5.589,0.01-8.296-0.586 c-1.642-0.36-3.172-0.822-4.433-1.293" class="st10"/><path d="M128.405,130.411c0,0-0.008-0.002-0.026-0.01c-0.279-0.089-2.791-0.854-5.932,0.168 c-1.916,0.623-4.068,1.914-6.089,4.431c-0.54,0.675-1.072,1.438-1.589,2.3c-0.422,0.707-0.846,1.44-1.276,2.196 c-0.606,1.075-1.22,2.19-1.839,3.328c-0.699,1.291-1.402,2.612-2.106,3.933c-0.744,1.394-1.491,2.789-2.236,4.15 c-0.215,0.391-0.427,0.781-0.642,1.166c-0.491,0.885-0.982,1.75-1.471,2.589c-1.118,1.917-2.284,4.062-3.891,6.011 c-2.169,2.637-5.142,4.916-9.885,5.789c-1.507,0.276-3.195,0.41-5.093,0.37c-1.655-0.036-3.205-0.244-4.651-0.591 c-3.779-0.913-6.859-2.804-9.345-5.2c-1.21-1.169-2.279-2.457-3.218-3.811c-0.678-0.978-1.289-1.99-1.837-3.017 c-0.228-0.428-0.443-0.834-0.645-1.219c-1.944-3.725-2.673-5.545-3.328-6.924" class="st10"/><path d="M121.994,146.161l-0.054,0.106c-1.66,3.347-2.955,5.997-4.786,9.262c-0.289,0.517-0.596,1.052-0.919,1.608 c-0.808,1.399-1.729,2.933-2.819,4.682c-1.532,2.465-3.175,4.709-5.034,6.661c-3.416,3.582-7.573,6.186-13.173,7.37 c-3.221,0.682-6.92,0.895-11.228,0.555c-1.97-0.154-3.799-0.459-5.498-0.882c-5.27-1.313-9.292-3.783-12.405-6.567 c-3.981-3.557-6.472-7.628-8.192-10.448c-0.164-0.269-0.325-0.537-0.481-0.811c-1.484-2.553-2.735-5.284-3.651-7.462 c-1.044-2.482-1.648-4.254-1.648-4.254" class="st10"/><path d="M131.382,122.717c0,0-1.067-0.518-2.809-0.989c-1.952-0.528-4.751-1.002-7.844-0.624 c-1.849,0.226-3.985,0.898-6.027,2.069c-2.271,1.301-4.428,3.217-5.945,5.816c-0.913,1.564-1.596,3.375-1.934,5.448 c-0.389,2.384-0.343,4.554-0.013,6.43c0.115,0.659,0.264,1.281,0.443,1.864c0.496,1.62,1.212,2.938,2.008,3.876" class="st10"/><path d="M55.72,128.979c0,0-1.896-2.774-7.132-2.774c-1.392,0-5.991,0.241-9.253,3.851 c-1.435,1.59-2.609,3.829-3.139,6.99c-0.061,0.371-0.115,0.753-0.159,1.149c-0.154,1.285-0.279,2.497-0.394,3.628 c-0.153,1.498-0.289,2.86-0.445,4.069c-0.215,1.684-0.473,3.081-0.872,4.158c-0.548,1.478-1.363,2.363-2.712,2.584 c-0.225,0.04-0.466,0.058-0.724,0.058c-1.645,0-2.704-0.814-3.313-2.289c-0.458-1.116-0.66-2.612-0.66-4.422" class="st10"/><path d="M48.767,133.9c0,0-0.627,0.38-1.302,1.567c-0.235,0.416-0.478,0.93-0.701,1.562 c-0.412,1.168-0.76,2.743-0.885,4.835c-0.015,0.266-0.033,0.532-0.049,0.796c-0.069,1.087-0.153,2.16-0.258,3.209 c-0.176,1.77-0.417,3.476-0.778,5.074c-1.448,6.46-4.799,11.145-13.454,11.145c-0.146,0-0.292-0.002-0.435-0.005 c-8.752-0.193-11.504-6.237-12.361-11.148c-0.34-1.945-0.384-3.712-0.384-4.865" class="st10"/><path d="M20.162,101.61c-0.159,0.715-0.305,1.447-0.44,2.208c-0.586,3.329-0.946,7.124-1.172,11.647 c-0.115,2.333-0.194,4.861-0.253,7.617c-0.021,1.12-0.041,2.276-0.056,3.473" class="st10"/><path d="M23.584,92.201c-0.008,0.013-0.015,0.028-0.02,0.041c-0.333,0.619-0.642,1.242-0.929,1.876 c-0.611,1.331-1.136,2.705-1.591,4.158" class="st10"/><path d="M26.953,131.215v0.025c-0.008,1.037-0.015,2.102-0.021,3.19c-0.005,0.852-0.008,1.719-0.01,2.601" class="st10"/><path d="M33.689,92.201c-0.486,0.677-0.939,1.379-1.358,2.107c-0.471,0.821-0.901,1.676-1.294,2.573 c-1.19,2.72-2.036,5.832-2.64,9.505c-0.46,2.807-0.778,5.943-0.998,9.488c-0.084,1.381-0.153,2.824-0.212,4.333" class="st10"/><path d="M111.428,113.44l3.251,9.543" class="st10"/><path d="M102.641,118.092l4.453,13.96" class="st10"/><path d="M70.86,146.131l-1.566,10.975" class="st10"/><path d="M106.734,140.88l-0.241,11.097" class="st10"/><path d="M9.462,108.904l-0.038,0.03c-0.888,0.695-1.686,0.971-2.873,0.368c-1.205-0.611-1.944-1.932-2.062-3.271 c-0.118-1.336,0.315-2.674,0.98-3.841c0.594-1.042,1.412-2.005,2.512-2.5c1.307-0.586,2.84-0.431,4.211-0.013 c1.374,0.418,2.349,0.844,3.71,1.293c1.502,0.494,2.919,0.608,4.249,0.507c0.588-0.041,1.159-0.127,1.711-0.238 c2.755-0.558,4.768-1.633,6.59-3.758c0.261-0.302,0.514-0.626,0.76-0.963c0.616-0.842,1.187-1.772,1.691-2.69 c0.706-1.285,1.282-2.551,1.673-3.537" class="st10"/><path d="M11.24,111.837c0.018-0.012,0.038-0.025,0.056-0.038" class="st10"/><path d="M29.898,89.07c-1.005,2.251-2.052,4.556-3.6,6.303c-0.146,0.172-0.302,0.337-0.463,0.497 c-1.451,1.438-2.914,2.315-4.776,2.553c-0.394,0.048-0.808,0.071-1.243,0.063c-2.287-0.041-4.41-1.105-6.613-1.721 c-2.921-0.816-6.347-0.738-8.652,1.219c-0.647,0.55-1.179,1.227-1.637,1.942c-1.282,2.008-2.008,4.427-1.686,6.782 c0.322,2.356,1.793,4.604,3.986,5.565c2.044,0.895,4.359,0.538,5.784-0.286" class="st10"/><path d="M10.908,109.999c-0.184,0.167-0.399,0.312-0.622,0.441c-0.125,0.076-0.253,0.145-0.379,0.211" class="st10"/><path d="M9.401,108.904c0.45-0.386,0.657-0.55,0.934-0.654c0.54-0.211,0.883,0.19,1.023,0.446 c0.064,0.119,0.151,0.299,0.028,0.626c-0.095,0.264-0.263,0.482-0.471,0.672" class="st10"/><path d="M9.943,110.636c0.123-0.061,0.238-0.127,0.343-0.196c0.248-0.157,0.45-0.319,0.622-0.441 c0.003-0.002,0.005-0.005,0.008-0.005c0.113-0.078,0.21-0.139,0.297-0.17c0.279-0.091,0.668-0.043,0.808,0.216 c0.064,0.119,0.133,0.37,0.12,0.507c-0.059,0.54-0.44,0.973-0.9,1.29c-0.079,0.054-0.161,0.104-0.243,0.15 c-0.031,0.018-0.061,0.035-0.092,0.051" class="st10"/><path d="M39.468,67.063c0.1,0.418,0.151,0.857,0.151,1.306c0,1.945-0.972,3.664-2.461,4.703 c-0.946,0.664-2.103,1.055-3.349,1.055c-0.55,0-1.08-0.076-1.583-0.218c-2.438-0.682-4.224-2.906-4.224-5.54 c0-3.179,2.599-5.755,5.807-5.755c0.384,0,0.762,0.038,1.126,0.109C37.176,63.156,38.954,64.87,39.468,67.063z" class="st11"/><path d="M35.733,69.979c0.89,0.297,1.374,1.245,1.077,2.115c-0.294,0.872-1.256,1.339-2.146,1.042 c-0.89-0.297-1.374-1.242-1.077-2.115c0.023-0.074,0.054-0.145,0.09-0.213" class="st12"/><path d="M44.879,65.838c0.084,0.035,0.171,0.071,0.253,0.111c1.985,0.913,3.364,2.908,3.364,5.223 c0,2.961-2.256,5.4-5.157,5.72c-0.212,0.025-0.43,0.038-0.65,0.038c-2.489,0-4.61-1.552-5.439-3.73" class="st11"/><path d="M44.612,72.783c0.89,0.297,1.371,1.245,1.077,2.114c-0.297,0.872-1.259,1.339-2.149,1.042 c-0.89-0.297-1.371-1.245-1.077-2.115c0.026-0.074,0.056-0.147,0.089-0.213" class="st12"/><path d="M35.268,62.616c-0.013-0.056-0.023-0.112-0.031-0.167c-0.069-0.342-0.102-0.697-0.102-1.06 c0-3.179,2.599-5.755,5.807-5.755s5.81,2.576,5.81,5.755c0,1.787-0.824,3.387-2.113,4.444c-1.005,0.822-2.292,1.313-3.697,1.313 c-0.427,0-0.844-0.046-1.246-0.134" class="st11"/><path d="M42.866,62.999c0.89,0.297,1.374,1.245,1.077,2.114c-0.294,0.872-1.256,1.339-2.146,1.042 c-0.89-0.297-1.374-1.242-1.077-2.114c0.026-0.074,0.054-0.145,0.09-0.213" class="st12"/><path d="M32.215,73.946c0,0-1.205,4.056-2.469,6.98c-1.097,2.54-2.062,6.118,0.274,7.989 c0.353,0.281,0.78,0.525,1.292,0.72c0.448,0.17,0.883,0.279,1.305,0.33c3.272,0.413,5.817-2.535,7.844-6.234 c2.287-4.176,2.891-6.742,2.891-6.742" class="st10"/><path d="M32.922,82.711c-0.527,1.019-0.747,1.64-1.238,2.398" class="st10"/><path d="M35.945,83.969c-0.361,1.014-0.609,1.613-1.082,2.447" class="st10"/><path d="M34.983,62.494c0,0-0.003-0.002-0.008-0.005c-0.358-0.297-15.377-12.669-23.408-4.946 c-1.878,1.805-3.016,3.869-3.594,6.042c-1.929,7.223,2.328,15.671,6.122,20.027c4.937,5.667,9.391,8.59,9.391,8.59" class="st10"/><path d="M45.216,65.775c0,0,8.609-3.103,10.834,1.848c2.228,4.951,0.542,10.441-5.536,15.511 c-6.081,5.071-11.438,7.277-16.736,9.008" class="st10"/><path d="M11.568,57.543l9.931,10.917" class="st10"/><path d="M7.956,63.567l0.018,0.018l10.036,10.6" class="st10"/><path d="M48.948,75.199l7.884-4.533" class="st10"/><path d="M47.805,81.94l7.403-4.176" class="st10"/><path d="M22.53,94.214c0.033-0.035,0.069-0.066,0.105-0.096c0.509-0.418,1.294-0.421,1.911-0.155 c0.663,0.286,1.177,0.819,1.67,1.339" class="st10"/><path d="M29.174,96.496c0.013,0.008,0.026,0.018,0.038,0.023c0.548,0.37,1.159,0.512,1.803,0.352" class="st10"/><path d="M19.831,103.838c0.404-0.258,0.911-0.347,1.379-0.248c1.328,0.286,1.896,1.828,2.939,2.69 c1.118,0.92,2.886,0.95,4.034,0.071" class="st10"/><path d="M18.608,115.468c0.417-0.213,0.929-0.157,1.364,0.018c0.435,0.175,0.813,0.459,1.213,0.705 c0.988,0.613,2.136,1.016,3.303,0.983c1.095-0.028,2.203-0.476,2.911-1.3c0.046-0.051,0.09-0.104,0.13-0.16" class="st10"/><path d="M18.401,123.084c0.55,0.875,1.581,1.428,2.62,1.41" class="st10"/><path d="M21.392,135.239c1.786,0.633,3.883,0.319,5.4-0.809" class="st10"/><path d="M18.73,150.902c0.34-0.654,0.655-0.616,1.392-0.707c0.737-0.092,1.491,0.127,2.126,0.509 c0.535,0.325,0.998,0.766,1.563,1.035c1.358,0.644,3.016,0.012,3.707-1.314" class="st10"/><path d="M31.622,152.687c-1.1,0.401-1.803,1.661-1.558,2.794c0.164,0.766,0.683,1.402,1.018,2.112 c0.614,1.313,0.547,2.918-0.171,4.176" class="st10"/><path d="M34.385,150.073c0.729-0.147,1.463,0.261,2.011,0.763c0.548,0.5,0.998,1.111,1.614,1.529 c1.197,0.811,2.87,0.72,4.121-0.005c0.941-0.545,1.169-1.146,2.243-1.339c-0.061,0.092,0.264-0.063,0.264-0.114 c0-0.005-0.008-0.01-0.023-0.013" class="st10"/><path d="M35.833,141.843c0.542-0.563,1.494-0.469,2.19-0.109c0.696,0.358,1.271,0.926,1.985,1.248 c0.686,0.309,1.481,0.375,2.21,0.18c0.55-0.147,1.054-0.436,1.596-0.611c0.545-0.175,1.177-0.224,1.655,0.086" class="st10"/><path d="M39.307,130.066c0,0,0.018-0.005,0.028-0.01c0.706-0.23,1.458-0.372,2.19-0.256 c0.742,0.119,1.466,0.543,1.793,1.212c0.166,0.34,0.228,0.723,0.412,1.052c0.353,0.629,1.077,0.936,1.724,1.263 c0.647,0.33,1.328,0.806,1.425,1.521c0.013,0.102,0.033,0.231,0.133,0.256c0.005,0,0.01,0,0.015,0 c0.084,0,0.084-0.198,0.008-0.139" class="st10"/><path d="M49.893,136.869c0.678-0.071,0.993-0.842,1.346-1.42c0.483-0.788,1.246-1.359,1.993-1.901 c0.75-0.543,1.522-1.096,2.039-1.859c0.517-0.763,0.732-1.8,0.289-2.609" class="st10"/><path d="M53.894,150.177c0.959,0.165,2.021,0.314,2.847-0.198c0.719-0.444,1.077-1.288,1.706-1.851 c0.443-0.398,1.003-0.641,1.499-0.973c0.496-0.33,0.732-0.555,0.801-1.144" class="st10"/><path d="M57.678,157.545c0.228-0.36,0.563-0.654,0.954-0.829c1.026-0.459,2.21-0.084,3.313,0.144 c1.103,0.231,2.466,0.206,3.09-0.725c0.325-0.484,0.356-1.095,0.466-1.668c0.11-0.571,0.366-1.189,0.908-1.407" class="st10"/><path d="M65.931,168.992c0.049-0.01,0.1-0.023,0.148-0.036c0.895-0.243,1.658-0.938,1.967-1.807 c0.366-1.027,0.118-2.186,0.425-3.233c0.468-1.6,2.154-2.591,3.819-2.829" class="st10"/><path d="M81.663,166.299c0.176,0.703,0.01,1.478-0.435,2.049c-0.609,0.781-1.693,1.186-2.07,2.102 c-0.376,0.923,0.131,1.954,0.128,2.948c0,0.647-0.228,1.291-0.632,1.795c-0.028,0.036-0.069,0.074-0.11,0.074 c-0.01,0-0.018-0.003-0.025-0.005c-0.051-0.02,0.005-0.122,0.033-0.076" class="st10"/><path d="M91.454,166.639c0.294,0.246,0.379,0.667,0.34,1.045c-0.038,0.38-0.182,0.74-0.269,1.11 c-0.184,0.768-0.102,1.638,0.402,2.249c0.435,0.525,1.11,0.783,1.668,1.179c1.067,0.755,1.694,2.081,1.599,3.377" class="st10"/><path d="M101.441,160.78c0.699,0.117,1.31,0.657,1.507,1.333c0.21,0.715,0.003,1.572,0.468,2.156 c0.471,0.588,1.354,0.573,2.088,0.758c1.422,0.352,2.522,1.711,2.563,3.164" class="st10"/><path d="M107.542,151.031c0.333,0.561,1.026,0.817,1.681,0.85c0.655,0.035,1.304-0.107,1.957-0.14 c2.43-0.124,4.853,1.423,5.746,3.664" class="st10"/><path d="M113.61,139.561c0.579,0.386,1.364,0.269,2.003-0.005c0.64-0.273,1.218-0.687,1.886-0.887 c1.038-0.309,2.208-0.048,3.088,0.581c0.88,0.628,1.483,1.592,1.785,2.626c0.228,0.766,0.294,1.58,0.202,2.373" class="st10"/><path d="M122.49,130.698c0.829-0.249,1.732,0.165,2.361,0.758c1.08,1.022,1.579,2.609,1.277,4.057" class="st10"/><path d="M132.858,143.205c0.018,0.007,0.034,0.015,0.052,0.025c0.759,0.35,1.468,0.811,2.22,1.179 c0.773,0.375,1.622,0.654,2.479,0.581c0.854-0.076,1.714-0.568,2.024-1.362" class="st10"/><path d="M130.436,149.845c1.148,0.877,1.754,2.396,1.522,3.813" class="st10"/><path d="M107.346,142.698c1.32-0.454,2.796-0.446,4.108,0.02" class="st10"/><path d="M108.903,129.073c1.001-0.046,2.144,0,2.804,0.745c0.43,0.489,0.555,1.182,0.967,1.681 c0.502,0.606,1.323,0.821,2.047,1.136c0.724,0.314,1.537,1.496,1.524,2.279" class="st10"/><path d="M128.524,121.672c0.016,0.018,0.034,0.035,0.049,0.056c1,1.115,1.696,2.659,1.653,4.15 c-0.003,0.109-0.011,0.218-0.021,0.327" class="st10"/><path d="M143.982,127.453c0.616,0.983,1.246,2.203,0.716,3.235c-0.348,0.677-1.126,1.07-1.438,1.764 c-0.314,0.695-0.087,1.494,0,2.249c0.09,0.758-0.071,1.686-0.782,1.978" class="st10"/><path d="M153.271,127.79c-0.292,0.644-0.039,1.486,0.562,1.868c0.41,0.261,0.942,0.325,1.29,0.665 c0.45,0.438,0.417,1.168,0.243,1.772c-0.172,0.601-0.453,1.199-0.392,1.823c0.041,0.421,0.236,0.809,0.351,1.214 c0.112,0.408,0.133,0.885-0.138,1.212" class="st10"/><path d="M159.393,121.598c0.434,0.282,1.038,0.082,1.43-0.258c0.391-0.34,0.662-0.799,1.046-1.146 c0.386-0.348,0.975-0.568,1.425-0.312c0.593,0.342,0.555,1.23,1.015,1.732c0.338,0.365,0.881,0.459,1.379,0.456 c0.499-0.003,1.008-0.076,1.492,0.043c0.486,0.117,0.954,0.505,0.957,0.999" class="st10"/><path d="M158.847,108.224c-0.913,0.107-1.629,1.065-1.463,1.963c0.038,0.213,0.12,0.421,0.138,0.636 c0.079,0.956-1,1.542-1.54,2.335c-0.668,0.979-0.397,2.465,0.573,3.152" class="st10"/><path d="M88.542,29.806c0.141,0.644,0.389,1.263,0.732,1.828c0.033,0.053,0.082,0.114,0.143,0.099 c0.061-0.013,0.026-0.137-0.021-0.094" class="st10"/><path d="M93.979,28.371c0.082,0.819,0.179,1.26,0.476,2.028" class="st10"/><path d="M99.267,28.249c-0.125,0.788-0.169,1.354-0.118,2.15" class="st10"/><path d="M103.49,29.326c-0.286,0.555-0.458,1.166-0.504,1.788" class="st10"/><path d="M112.988,87.533c2.159,0,3.27-0.076,4.626-1.498c1.358-1.42,1.419-4.206,1.419-9.079 c0,4.873,0.062,7.659,1.418,9.079c1.355,1.422,2.466,1.498,4.625,1.498v0.015c-2.159,0-3.27,0.076-4.625,1.496 c-1.356,1.422-1.418,4.209-1.418,9.082c0-4.873-0.061-7.659-1.419-9.082c-1.356-1.42-2.467-1.496-4.626-1.496V87.533z" class="st13"/><path d="M152.984,41.017c1.625,0,2.461-0.066,3.482-1.265c1.021-1.199,1.067-3.552,1.067-7.664 c0,4.112,0.046,6.465,1.067,7.664c1.02,1.199,1.857,1.265,3.481,1.265v0.01c-1.624,0-2.461,0.066-3.481,1.265 c-1.021,1.199-1.067,3.552-1.067,7.664c0-4.112-0.046-6.465-1.067-7.664s-1.857-1.265-3.482-1.265V41.017z" class="st13"/><path d="M165.956,54.858c-1.57-1.767-2.855-1.863-5.352-1.863v-0.018c2.497,0,3.782-0.094,5.352-1.861 c1.568-1.767,1.64-5.233,1.64-11.292c0,6.059,0.072,9.525,1.642,11.292c1.571,1.767,2.855,1.861,5.352,1.861v0.018 c-2.497,0-3.781,0.096-5.352,1.863c-1.57,1.767-1.642,5.233-1.642,11.292C167.596,60.091,167.524,56.625,165.956,54.858z" class="st13"/><path d="M167.596,39.823c0,6.059-0.072,9.525-1.64,11.292c-1.57,1.767-2.855,1.861-5.352,1.861" class="st14"/><path d="M167.597,66.15c0-6.06,0.071-9.525,1.642-11.292c1.571-1.767,2.855-1.863,5.352-1.863" class="st14"/><path d="M167.597,39.823c0,6.059,0.071,9.525,1.642,11.292c1.571,1.767,2.855,1.861,5.352,1.861" class="st14"/><path d="M167.596,66.15c0-6.06-0.072-9.525-1.64-11.292c-1.57-1.767-2.855-1.863-5.352-1.863" class="st14"/><path d="M157.533,32.088c0,4.112-0.046,6.465-1.067,7.664c-1.021,1.199-1.857,1.265-3.482,1.265" class="st14"/><path d="M157.532,49.957c0-4.112,0.046-6.465,1.067-7.664s1.857-1.265,3.482-1.265" class="st14"/><path d="M157.532,32.088c0,4.112,0.046,6.465,1.067,7.664c1.021,1.199,1.857,1.265,3.482,1.265" class="st14"/><path d="M157.533,49.957c0-4.112-0.046-6.465-1.067-7.664s-1.857-1.265-3.482-1.265" class="st14"/><path d="M119.033,76.956c0,4.873-0.061,7.659-1.419,9.079c-1.356,1.422-2.467,1.498-4.626,1.498" class="st14"/><path d="M119.034,98.126c0-4.873,0.062-7.659,1.417-9.082c1.356-1.42,2.467-1.496,4.626-1.496" class="st14"/><path d="M119.034,76.956c0,4.873,0.062,7.659,1.417,9.079c1.356,1.422,2.467,1.498,4.626,1.498" class="st14"/><path d="M119.033,98.126c0-4.873-0.061-7.659-1.419-9.082c-1.356-1.42-2.467-1.496-4.626-1.496" class="st14"/></g></g></svg>