<?xml version="1.0" encoding="utf-8"?>
<!-- Generator: Adobe Illustrator 28.1.0, SVG Export Plug-In . SVG Version: 6.00 Build 0)  -->
<svg version="1.1" id="Layer_1" xmlns="http://www.w3.org/2000/svg" xmlns:xlink="http://www.w3.org/1999/xlink" x="0px" y="0px"
	 viewBox="0 0 256 144" style="enable-background:new 0 0 256 144;" xml:space="preserve">
<style type="text/css">
	.st0{fill:#D18000;}
	.st1{fill:#FED607;}
	.st2{fill:#FFF2B2;}
	.st3{fill:#03D47C;}
	.st4{fill:#FFFAF0;}
	.st5{fill:#0164BF;}
	.st6{fill:#99F6FF;}
	.st7{fill:#002140;}
	.st8{fill:#E4BC07;}
	.st9{fill:#E5FAFE;}
	.st10{fill:none;stroke:#002140;stroke-width:1;stroke-linecap:round;stroke-linejoin:round;}
	.st11{fill:#E96DF2;}
	.st12{fill:#F9B5FE;}
	.st13{fill:#CF4CD9;}
	.st14{fill:#F68DFE;}
	.st15{fill:none;stroke:#CF4CD9;stroke-width:1;stroke-linecap:round;stroke-linejoin:round;}
	.st16{fill:none;stroke:#E96DF2;stroke-width:1;stroke-linecap:round;stroke-linejoin:round;}
</style>
<path class="st0" d="M170.221,73.922l0.025,0.023c-0.107,0.126-0.212,0.264-0.315,0.416c-1.631,2.409-9.982,14.591-9.982,14.591
	v0.099c-1.546,0.004-3.136,0.008-4.748,0.012v-0.014l10.904-17.42C168.045,70.948,170.221,72.079,170.221,73.922z"/>
<path class="st1" d="M162.133,99.43l0.064,0.08c-4.096,3.27-7.21,8.08-8.112,13.507l-27.764-0.051v-0.161
	c6.493-3.006,2.618-6.011,5.525-9.891c2.908-3.878,7.908-0.41,11.92-3.587c2.325-1.842,1.314-4.882,2.325-6.594
	c1.26-2.133,4.265-0.542,5.525-3.548v-0.111c1.2-0.004,2.399-0.006,3.585-0.01c1.613-0.004,3.202-0.008,4.749-0.012
	c0.599-0.002,1.192-0.004,1.777-0.006v0.004C162.6,91.181,162.617,97.685,162.133,99.43z M157.559,96.807
	c2.078,0,1.8-2.483,0.29-2.483c-1.509,0-6.299,0.058-6.299,0.058c-1.888,0-1.888,2.425-0.189,2.425H157.559z"/>
<path class="st1" d="M170.246,73.944c1.992-2.37,4.45-0.282,2.922,2.104c-0.3,0.47-0.722,1.103-1.221,1.836
	c-2.726,4.016-7.751,11.067-7.751,11.067v0.087c-0.803,0.002-1.629,0.004-2.469,0.006c-0.585,0-1.178,0.004-1.777,0.006v-0.099
	c0,0,8.35-12.182,9.981-14.591C170.034,74.208,170.139,74.07,170.246,73.944z"/>
<path class="st2" d="M141.441,89.1c3.276-0.008,6.738-0.019,10.175-0.027v0.111c-1.261,3.006-4.265,1.416-5.525,3.548
	c-1.012,1.712,0,4.752-2.325,6.594c-4.012,3.177-9.012-0.29-11.92,3.587c-2.907,3.88,0.968,6.885-5.525,9.891v0.161l-10.368-0.021
	v-0.128c-0.12-0.261-0.235-0.535-0.349-0.822l0.155-0.062c0,0,4.942-0.096,6.977-4.751s0.71-8.338,4.942-10.375
	c5.233-2.522,9.418,0.027,10.468-3.006c0.871-2.522,0.677-3.684,3.295-4.643V89.1z"/>
<path class="st1" d="M141.44,89.1v0.058c-2.617,0.958-2.423,2.12-3.294,4.643c-1.051,3.033-5.235,0.484-10.468,3.006
	c-4.232,2.038-2.908,5.72-4.942,10.375c-2.035,4.655-6.977,4.751-6.977,4.751l-0.155,0.062c-2.121-5.31-3.245-14.523,3.927-22.895
	v-0.019c0.927,0.091,1.852,0.072,2.815,0.064c0.192,0,0.388-0.002,0.583-0.002c0.624,0,1.942-0.002,3.775-0.004
	C130.18,89.129,135.505,89.117,141.44,89.1z"/>
<path class="st3" d="M116.632,68.803c0,0,0.577-2.685,3.244-3.072c2.224-0.324,3.494,0.406,4.998,2.287
	c1.939,2.425,3.095,5.37,2.901,7.843c-0.165,2.098-3.052,2.466-4.52,0.775c-0.266-0.305-0.48-0.624-0.653-0.942
	c-0.838-1.523-0.737-3.033-0.737-3.033s-0.482-1.187-2.375-0.581c-1.21,0.387-1.503,1.259-1.841,1.696
	c-0.809,1.041-2.568,0-1.212-1.793c0.072-0.095,0.181-0.27,0.339-0.482l-0.018-0.015c-0.651,0.76-1.835,0.356-1.088-1.142
	c0.293-0.581,0.647-1.059,1.051-1.444L116.632,68.803z"/>
<path class="st4" d="M43.741,49.53c3.917,0,7.09,3.177,7.09,7.095c0,3.917-3.173,7.095-7.09,7.095c-0.713,0-1.4-0.105-2.049-0.303
	c1.623-1.381,2.652-3.437,2.652-5.735c0-0.189-0.006-0.377-0.021-0.562l-5.255-0.093l3.993-3.548
	c-0.811-1.197-1.956-2.151-3.301-2.722C40.895,49.981,42.264,49.53,43.741,49.53z"/>
<path class="st1" d="M50.83,56.625c0-3.917-3.173-7.095-7.09-7.095c-1.477,0-2.846,0.451-3.981,1.226
	c-1.878,1.275-3.11,3.429-3.11,5.869c0,3.206,2.125,5.914,5.041,6.792c0.649,0.198,1.336,0.303,2.049,0.303
	C47.657,63.72,50.83,60.544,50.83,56.625z M42.746,49.285c3.909,0,7.263,2.378,8.696,5.768c0.478,1.129,0.741,2.372,0.741,3.676
	c0,1.428-0.317,2.784-0.885,3.998c-0.371,0.795-0.851,1.533-1.417,2.188c-1.734,1.997-4.287,3.26-7.135,3.26
	c-3.26,0-6.131-1.652-7.828-4.164c-1.017-1.506-1.612-3.324-1.612-5.281c0-1.249,0.243-2.44,0.684-3.532
	C35.386,51.731,38.779,49.285,42.746,49.285z"/>
<path class="st5" d="M253.332,66.932c2.001,0,2.52,3.497-0.233,3.497H250.5c-2.253,0-2.253-3.524,0.249-3.524
	C250.749,66.905,251.33,66.932,253.332,66.932z"/>
<path class="st5" d="M244.217,66.648c2.727,0,3.058,4.028-0.597,4.028h-5.704c-2.859,0-1.994,6.751-7.179,6.751
	c-3.991,0-4.918-0.068-7.171-0.068c-2.253,0-2.253-3.524,0.251-3.524c0,0,2.257,0.025,4.259,0.025c5.319,0,3.493-7.212,8.347-7.212
	H244.217z"/>
<path class="st5" d="M241.645,84.278c2.001,0,2.52,3.499-0.233,3.499h-2.599c-2.253,0-2.253-3.526,0.249-3.526
	C239.062,84.252,239.643,84.278,241.645,84.278z"/>
<path class="st5" d="M232.812,84.348c2.002,0,2.521,3.499-0.232,3.499h-8.367c-2.251,0-2.251-3.526,0.251-3.526
	C224.464,84.321,230.811,84.348,232.812,84.348z"/>
<path class="st5" d="M226.653,95.634c2.002,0,2.519,3.499-0.232,3.499h-2.601c-2.251,0-2.251-3.524,0.251-3.524
	C224.071,95.609,224.649,95.634,226.653,95.634z"/>
<path class="st6" d="M222.695,113.724c0,2.036,0.051,5.796,0.051,6.96c0,1.165-0.97,1.843-2.327,1.843h-4.508v-0.019
	c0,0,0.871-0.89,1.065-2.151c0.194-1.261,0.597-2.347-1.596-6.388c-0.138-0.256-0.321-0.546-0.544-0.868l0.013-0.008
	c0-1.455,0.898-1.937,1.868-1.937h3.743C222.301,111.156,222.695,111.98,222.695,113.724z"/>
<path class="st6" d="M216.779,83.458c3.14,0,2.879,5.654,0.358,5.654c-1.647,0-6.602,0.033-9.508,0.033
	c-6.59,0-5.136,8.197-11.242,8.197l-0.037,0.072c-0.15-0.076-0.298-0.148-0.447-0.22c-0.846-0.408-1.731-0.787-2.654-1.133
	c-1.258-0.474-2.584-0.886-3.966-1.22l0.018-0.078c11.971,0,6.506-11.253,18.425-11.253
	C207.726,83.509,215.034,83.458,216.779,83.458z"/>
<path class="st6" d="M216.779,94.707c3.14,0,2.827,5.654,0.307,5.654c-1.648,0-1.316,0.033-4.224,0.033
	c-3.618,0-4.463,2.471-5.626,4.7l-0.008,0.011c-1.345-1.185-2.78-2.364-4.253-3.47l0.015-0.021c2.067-3.157,3.136-6.855,9.192-6.855
	C212.182,94.758,215.034,94.707,216.779,94.707z"/>
<path class="st6" d="M216.599,73.127c3.141,0,2.879,5.708,0.359,5.708c-1.648,0-10.589,0.033-13.497,0.033
	c-10.659,0-8.425,13.53-18.213,13.53l-0.006,0.004c-0.99-1.216-2.694-2.761-5.196-3.247l0.009-0.047
	c11.97,0,9.549-15.877,21.468-15.877C201.523,73.229,214.855,73.127,216.599,73.127z"/>
<path class="st1" d="M215.38,113.969c2.194,4.041,1.79,5.127,1.596,6.388c-0.193,1.261-1.064,2.151-1.064,2.151H199.6
	c0,0,0.875-9.895-7.78-16.445l0.109-0.142c1.551-0.775-0.787-2.813,1.357-3.491c1.841-0.581,4.069,1.552,5.816,0.775
	c1.596-0.709,1.647-3.004,1.647-3.004l0.074-0.11c0.723,0.493,1.442,1.01,2.152,1.544c1.473,1.106,2.908,2.285,4.253,3.47
	c3.42,3.01,6.254,6.052,7.609,7.997C215.059,113.423,215.242,113.714,215.38,113.969z"/>
<path class="st2" d="M200.823,100.091l-0.074,0.109c0,0-0.052,2.296-1.648,3.005c-1.746,0.776-3.974-1.356-5.815-0.775
	c-2.144,0.678,0.194,2.716-1.357,3.49l-0.109,0.143c-0.373-0.281-0.764-0.557-1.174-0.827c-1.705-1.119-3.649-1.906-5.708-2.359
	l0.014-0.06c3.295-1.261,0.988-3.278,2.325-4.752c1.94-2.133,3.198,0,5.912-1.842l0.06-0.163c0.922,0.346,1.808,0.725,2.654,1.133
	c0.149,0.072,0.297,0.144,0.447,0.22C197.814,98.152,199.324,99.067,200.823,100.091z"/>
<path class="st0" d="M191.819,106.063c8.656,6.55,7.781,16.445,7.781,16.445l-1.953-1.57l-0.111,0.004
	c-0.29-9.211-7.844-16.59-17.121-16.59c-9.277,0-16.732,7.282-17.115,16.411l-0.152-0.006l-1.745,1.648
	c0-4.169,0.194-9.703,5.039-14.455c4.842-4.75,12.2-6.462,18.495-5.073c2.06,0.453,4.004,1.24,5.709,2.359
	C191.055,105.506,191.447,105.782,191.819,106.063z"/>
<path class="st7" d="M197.536,120.942c0.009,0.184,0.011,0.369,0.011,0.555c0,9.468-7.669,17.142-17.132,17.142
	c-9.462,0-17.131-7.674-17.131-17.142c0-0.246,0.006-0.491,0.016-0.734c0.383-9.128,7.898-16.41,17.115-16.41
	C189.633,104.353,197.246,111.731,197.536,120.942z M192.382,121.35c0-6.612-5.359-11.974-11.967-11.974
	c-6.608,0-11.967,5.362-11.967,11.974c0,6.613,5.359,11.974,11.967,11.974C187.023,133.324,192.382,127.965,192.382,121.35z"/>
<path class="st1" d="M154.085,113.017c0.902-5.427,4.015-10.237,8.111-13.507c1.753-1.401,3.684-2.52,5.7-3.287
	c6.415-2.436,12.754-2.842,18.374-1.978c1.029,0.157,2.034,0.356,3.012,0.595c1.382,0.334,2.708,0.746,3.967,1.22l-0.06,0.163
	c-2.714,1.842-3.972-0.291-5.912,1.842c-1.337,1.473,0.97,3.49-2.325,4.751l-0.015,0.06c-6.295-1.389-13.653,0.324-18.494,5.073
	c-4.846,4.752-5.04,10.287-5.04,14.455l-6.589,0.021v-0.021c-0.513-1.564-0.818-3.119-0.937-4.65
	C153.749,116.139,153.827,114.555,154.085,113.017z"/>
<path class="st7" d="M189.167,123.341c0.398-1.711,1.827-1.929,1.537-0.184c-0.367,2.195-1.93,5.706-5.612,7.499
	c-2.072,1.009-2.57-0.388-1.067-1.066c2.97-1.343,2.146-3.037,0.194-1.891c-1.405,0.824-2.403-0.332-0.445-1.212
	c1.468-0.661,2.422-1.875,2.683-3.637c0.301-2.032,1.712-1.187,1.154,0.243C186.836,125.08,188.449,126.429,189.167,123.341z"/>
<path class="st6" d="M180.415,109.376c6.608,0,11.967,5.362,11.967,11.974s-5.359,11.974-11.967,11.974
	c-6.608,0-11.967-5.359-11.967-11.974C168.448,114.736,173.807,109.376,180.415,109.376z M190.703,123.157
	c0.291-1.745-1.139-1.527-1.536,0.184c-0.719,3.088-2.331,1.739-1.557-0.248c0.558-1.43-0.852-2.275-1.153-0.243
	c-0.262,1.762-1.215,2.976-2.683,3.637c-1.959,0.88-0.96,2.036,0.444,1.212c1.953-1.146,2.776,0.548-0.193,1.891
	c-1.503,0.678-1.005,2.075,1.067,1.066C188.774,128.863,190.337,125.352,190.703,123.157z M184.997,121.447
	c0-2.533-2.051-4.585-4.582-4.585c-2.531,0-4.582,2.052-4.582,4.585c0,2.532,2.051,4.587,4.582,4.587
	C182.946,126.034,184.997,123.979,184.997,121.447z M177.165,116.205c2.126-1.049,1.011-2.139-0.393-1.315
	c-1.952,1.146-2.776-0.548,0.194-1.892c1.501-0.677,1.002-2.075-1.067-1.065c-3.682,1.793-5.157,5.03-5.523,7.225
	c-0.291,1.745,1.064,1.881,1.55,0.193c0.727-2.522,2.229-1.842,1.454,0.145c-0.558,1.43,0.873,2.252,1.308,0.243
	C175.003,118.284,175.802,116.879,177.165,116.205z"/>
<path class="st1" d="M186.309,93.994l-0.039,0.251c-5.62-0.863-11.958-0.457-18.373,1.978c-2.016,0.767-3.948,1.885-5.7,3.287
	l-0.064-0.08c0.484-1.745,0.467-8.249-0.406-10.381v-0.004c0.84-0.002,1.666-0.004,2.469-0.006c8.145-0.023,14.22-0.041,14.22-0.041
	c0.576,0,1.12,0.056,1.631,0.157c2.502,0.486,4.205,2.032,5.195,3.247C185.965,93.285,186.309,93.994,186.309,93.994z"/>
<path class="st1" d="M180.415,116.862c2.531,0,4.582,2.053,4.582,4.585c0,2.533-2.051,4.587-4.582,4.587
	c-2.531,0-4.582-2.054-4.582-4.587C175.833,118.915,177.884,116.862,180.415,116.862z M182.629,121.4
	c0-1.224-0.991-2.217-2.214-2.217c-1.223,0-2.214,0.993-2.214,2.217s0.991,2.215,2.214,2.215
	C181.638,123.615,182.629,122.624,182.629,121.4z"/>
<path class="st1" d="M180.415,119.183c1.223,0,2.214,0.993,2.214,2.217s-0.991,2.215-2.214,2.215c-1.223,0-2.214-0.991-2.214-2.215
	S179.192,119.183,180.415,119.183z"/>
<path class="st7" d="M176.772,114.89c1.405-0.824,2.519,0.266,0.393,1.315c-1.363,0.674-2.162,2.079-2.477,3.534
	c-0.434,2.009-1.866,1.187-1.308-0.243c0.775-1.987-0.727-2.667-1.454-0.144c-0.486,1.687-1.841,1.551-1.55-0.194
	c0.366-2.195,1.841-5.432,5.523-7.225c2.07-1.009,2.568,0.388,1.067,1.066C173.996,114.342,174.82,116.036,176.772,114.89z"/>
<path class="st8" d="M171.966,77.897c4.122,2.813,6.202,7.855,6.449,11.1c0,0-6.075,0.019-14.219,0.041v-0.087
	c0,0,5.025-7.051,7.751-11.067L171.966,77.897z"/>
<path class="st8" d="M154.814,122.405v0.021l-48.265,0.157c-0.047-0.079-1.206-1.956-3.27-4.789l0.058-0.044h50.41l0.13,0.005
	C153.996,119.286,154.301,120.841,154.814,122.405z"/>
<path class="st1" d="M126.321,112.966l27.764,0.051c-0.258,1.537-0.336,3.122-0.208,4.737l-0.13-0.004h-50.41l-0.058,0.044
	c-1.032-1.418-2.29-3.073-3.748-4.863l0.019-0.017l16.402,0.031L126.321,112.966z"/>
<path class="st1" d="M126.704,88.943v0.196c-1.833,0-3.151,0.004-3.774,0.004c-0.196,0-0.392,0.002-0.583,0.002v-0.047l-1.522-5.052
	l-1.1-3.649l-1.991-6.612l-0.085-0.008c0.338-0.437,0.631-1.308,1.841-1.696c1.893-0.606,2.375,0.581,2.375,0.581
	s-0.101,1.51,0.737,3.033l-0.008,0.004L126.704,88.943z"/>
<path class="st0" d="M119.725,80.396l1.1,3.649l-0.023,0.006c0,0-3.977,1.506-4.123,1.506l-0.202,0.008
	c-0.376-1.17-0.809-2.506-1.171-3.608l0.113-0.037c0.146,0,4.071-1.455,4.071-1.455L119.725,80.396z"/>
<path class="st1" d="M119.534,89.081V89.1c-7.175,8.372-6.051,17.585-3.93,22.895c0.114,0.287,0.229,0.561,0.348,0.822v0.128
	l-16.402-0.031l-0.019,0.017c-1.895-2.327-4.127-4.878-6.641-7.425l0.06-0.057l9.942-13.644c0.785-1.078,0.729-2.483-0.136-3.433
	c0.007-0.076,0.011-0.152,0.011-0.229c0-0.853-0.394-1.694-1.135-2.236c-1.232-0.898-2.959-0.628-3.857,0.606l-10.134,13.944
	l-0.072,0.082c-0.319-0.272-0.643-0.544-0.968-0.81c-0.41-0.34-0.826-0.676-1.246-1.006l0.014-0.019l6.184-8.488
	c0.758-1.043,0.682-2.335-0.101-3.285c0.082-0.266,0.122-0.54,0.122-0.814c0-0.853-0.393-1.696-1.135-2.236
	c-1.231-0.9-2.959-0.628-3.859,0.604l-7.241,9.975l-0.035,0.062c-0.344-0.198-0.694-0.389-1.05-0.577c0,0-0.004,0-0.01-0.004
	c-0.564-0.301-1.145-0.585-1.746-0.857l0.01-0.023l3.552-4.826c0.684-0.938,0.69-2.162,0.111-3.091l-0.037-0.012
	c0.097-0.286,0.144-0.583,0.144-0.88c0-0.853-0.393-1.694-1.135-2.236c-1.234-0.898-2.961-0.626-3.859,0.606l-5.941,8.154
	l-0.01,0.054c-2.772-0.542-5.941-0.828-9.644-0.777v-0.072c0,0-0.696-9.662,2.018-12.087v-0.047h30.406
	c0.908,0,1.759-0.01,2.628,0.064c1.499,0.128,3.058,0.507,5.076,1.62c0.745,0.412,1.736,0.94,2.868,1.535
	c0.987,0.519,2.082,1.09,3.217,1.679c3.74,1.943,7.904,4.086,10.008,5.24c0.492,0.27,0.972,0.478,1.442,0.639
	C118.094,88.879,118.815,89.013,119.534,89.081z"/>
<path class="st6" d="M107.021,80.921c-0.647,1.043-1.044,1.681-1.044,1.681l-0.074,0.144c-1.135-0.589-2.231-1.16-3.217-1.679
	l0.087-0.165l11.099-17.513l-8.515-0.171c-3.165,0-2.972-3.468-0.056-3.468h9.294c2.521,0,3.942,2.112,2.778,4.247
	C116.438,65.71,109.657,76.67,107.021,80.921z"/>
<path class="st8" d="M117.406,88.467l-0.053,0.159c-0.47-0.161-0.95-0.369-1.442-0.639c-2.105-1.154-6.268-3.297-10.008-5.24
	l0.074-0.144c0,0,0.397-0.639,1.044-1.681c0.564-0.188,3.95-1.313,4.926-1.667c1.065-0.387,2.131-0.874,2.712,0.775
	c0.142,0.398,0.375,1.098,0.647,1.929c0.362,1.102,0.795,2.438,1.171,3.608C116.992,87.167,117.406,88.467,117.406,88.467z"/>
<path class="st9" d="M113.872,63.39l-11.099,17.513l-0.087,0.165c-1.133-0.595-2.123-1.123-2.869-1.535
	c-2.018-1.113-3.577-1.492-5.076-1.62l0.424-0.27l10.192-14.424L113.872,63.39z"/>
<path class="st1" d="M106.55,122.582l-36.825,0.196c0,0-0.381-5.706-3.095-10.748c-0.465-0.863-1.12-1.904-2.006-2.973l0.072-0.06
	c2.226-5.11,6.067-0.666,8.966-2.306c2.897-1.638,2.71-4.737,4.675-5.862c1.963-1.125,5.422,1.584,8.198-1.02l0.064-0.078
	c0.325,0.266,0.649,0.537,0.968,0.81c1.421,1.214,2.782,2.465,4.077,3.73c0.422,0.41,0.836,0.822,1.244,1.236
	c2.515,2.547,4.747,5.098,6.641,7.425c1.458,1.79,2.717,3.445,3.748,4.863c2.064,2.833,3.223,4.71,3.271,4.788H106.55z"/>
<path class="st7" d="M102.756,88.373c0.865,0.95,0.921,2.355,0.136,3.433l-9.942,13.644l-0.06,0.057
	c-0.408-0.414-0.822-0.826-1.244-1.236l0.097-0.099l10.495-14.401C102.549,89.345,102.717,88.861,102.756,88.373z"/>
<path class="st6" d="M102.756,88.373c-0.039,0.488-0.208,0.973-0.519,1.397l-10.494,14.401l-0.097,0.099
	c-1.295-1.265-2.657-2.516-4.077-3.729l0.072-0.083l10.134-13.944c0.898-1.234,2.625-1.504,3.857-0.606
	c0.741,0.542,1.135,1.383,1.135,2.236C102.767,88.22,102.762,88.297,102.756,88.373z"/>
<path class="st7" d="M91.453,86.934c0.782,0.95,0.859,2.242,0.101,3.285l-6.184,8.488l-0.014,0.019
	c-0.072-0.058-0.146-0.115-0.22-0.173c-0.414-0.323-0.832-0.645-1.252-0.96l0.031-0.041l7.131-9.804
	C91.23,87.493,91.364,87.216,91.453,86.934z"/>
<path class="st6" d="M91.453,86.934c-0.089,0.282-0.222,0.558-0.408,0.812l-7.131,9.804l-0.031,0.041
	c-1.446-1.088-2.945-2.127-4.578-3.066l0.035-0.062l7.241-9.975c0.9-1.232,2.628-1.504,3.859-0.604
	c0.741,0.54,1.135,1.383,1.135,2.236C91.574,86.394,91.535,86.668,91.453,86.934z"/>
<path class="st2" d="M86.601,99.731l-0.064,0.078c-2.776,2.604-6.236-0.105-8.198,1.02c-1.965,1.125-1.777,4.224-4.675,5.862
	c-2.899,1.64-6.74-2.804-8.966,2.306l-0.072,0.06c-1.544-1.873-3.789-3.839-6.924-5.113l0.105-0.253
	c0.774-2.232,2.615-3.2,3.876-3.394c2.819-0.434,4.846,0.969,7.269-0.68c2.422-1.648,1.577-3.035,3.682-4.752
	c2.529-2.063,5.42-0.993,5.61-0.921c0.006,0.002,0.01,0.004,0.01,0.004c0.356,0.188,0.706,0.379,1.05,0.577
	c1.633,0.94,3.132,1.978,4.578,3.066c0.42,0.315,0.838,0.637,1.252,0.96c0.074,0.058,0.148,0.115,0.22,0.173
	C85.775,99.055,86.191,99.391,86.601,99.731z"/>
<path class="st7" d="M80.172,85.148c0.579,0.929,0.573,2.153-0.111,3.091l-3.552,4.826l-0.01,0.023
	c-0.507-0.229-1.028-0.447-1.565-0.655l0.004-0.012l4.811-6.538c0.171-0.233,0.299-0.486,0.387-0.746L80.172,85.148z"/>
<path class="st6" d="M80.279,84.256c0,0.297-0.047,0.593-0.144,0.88c-0.089,0.26-0.216,0.513-0.387,0.746l-4.811,6.538l-0.004,0.012
	c-1.687-0.653-3.534-1.197-5.599-1.599l0.01-0.053l5.941-8.154c0.898-1.232,2.626-1.504,3.859-0.606
	C79.885,82.562,80.279,83.403,80.279,84.256z"/>
<path class="st1" d="M76.498,93.087c0.601,0.272,1.182,0.556,1.746,0.857c-0.189-0.072-3.081-1.142-5.61,0.921
	c-2.105,1.716-1.26,3.103-3.682,4.752c-2.424,1.649-4.45,0.245-7.269,0.68c-1.26,0.194-3.101,1.163-3.876,3.394l-0.105,0.254
	c-2.521-1.025-5.618-1.602-9.393-1.321c-13.083,0.97-17.152,14.158-17.152,14.158c-2.335-1.121-3.587-4.401-0.647-10.361
	c0.113-0.226,0.231-0.459,0.356-0.694c1.372-2.588,3.653-5.481,6.726-8.065c0.706-0.593,1.454-1.17,2.243-1.723
	c4.259-2.994,9.695-5.294,16.079-5.726c0.239-0.017,0.478-0.031,0.713-0.045c1.061-0.062,2.08-0.099,3.062-0.111
	c3.703-0.051,6.872,0.235,9.644,0.777c2.065,0.402,3.913,0.946,5.599,1.599C75.471,92.64,75.992,92.859,76.498,93.087z"/>
<path class="st1" d="M67.717,52.007c4.154,0.424,4.205,5.372-0.315,5.372h-6.666v0.031c4.724,0,4.994,5.403,0.27,5.403h-9.522
	l-0.185-0.086c0.568-1.214,0.885-2.57,0.885-3.998c0-1.304-0.264-2.547-0.741-3.676l0.259-0.041
	c1.236-2.398,6.415-8.539,12.521-8.539h8.33c5.605,0,5.542,5.504,0.591,5.504C71.724,51.977,69.716,51.991,67.717,52.007z"/>
<path class="st0" d="M69.727,122.778l-2.56-2.254c-0.502-9.017-7.967-16.172-17.103-16.172c-7.832,0-14.438,5.259-16.481,12.442
	l-0.062-0.019l-2.364,2.236v-2.229c0,0,4.069-13.188,17.152-14.159c3.775-0.28,6.872,0.297,9.393,1.321
	c3.134,1.274,5.379,3.239,6.923,5.113c0.886,1.069,1.54,2.11,2.006,2.973C69.346,117.072,69.727,122.778,69.727,122.778z"/>
<path class="st1" d="M63.252,67.794l0.006,0.019c0,0,5.733-0.732,5.669,1.236c-0.051,1.614-4.051,1.475-6.32,1.267l-0.004,0.041
	c0,0,6.396,1.236,5.379,3.128c-1.221,2.269-6.789-1.478-6.923-1.568l4.11,5.786v0.146H54.126v-0.192
	c4.257-5.325,1.746-11.566-4.244-12.743c0.566-0.655,1.046-1.393,1.417-2.188l0.185,0.086h4.329v0.01
	c2.068,1.208,3.095,2.734,3.53,3.825c0,0,6.726-4.103,7.986-1.745c0.684,1.276-1.983,2.302-4.075,2.889V67.794z"/>
<path class="st7" d="M67.167,120.524c0.021,0.321,0.029,0.647,0.029,0.973c0,9.468-7.671,17.142-17.131,17.142
	s-17.134-7.674-17.134-17.142c0-1.63,0.229-3.209,0.653-4.703c2.043-7.183,8.649-12.441,16.481-12.441
	C59.2,104.353,66.665,111.507,67.167,120.524z M62.031,121.35c0-6.612-5.358-11.974-11.967-11.974
	c-6.608,0-11.967,5.362-11.967,11.974c0,6.613,5.356,11.974,11.967,11.974S62.031,127.965,62.031,121.35z"/>
<path class="st2" d="M61.708,77.849v0.047c-2.714,2.425-2.02,12.087-2.02,12.087v0.072c-0.98,0.012-2,0.049-3.06,0.111l-0.01-0.196
	c-0.886-1.56-2.306-3.524-5.42-4.966l0.014-0.031c0-6.495,2.671-7.126,2.671-7.126H61.708z"/>
<path class="st7" d="M58.817,123.341c0.397-1.711,1.824-1.929,1.534-0.184c-0.365,2.195-1.93,5.706-5.612,7.499
	c-2.07,1.009-2.568-0.388-1.067-1.066c2.97-1.343,2.146-3.037,0.196-1.891c-1.407,0.824-2.403-0.332-0.447-1.212
	c1.47-0.661,2.424-1.875,2.683-3.637c0.301-2.032,1.711-1.187,1.155,0.243C56.483,125.08,58.098,126.429,58.817,123.341z"/>
<path class="st6" d="M50.064,109.376c6.608,0,11.967,5.362,11.967,11.974s-5.358,11.974-11.967,11.974
	c-6.608,0-11.967-5.359-11.967-11.974C38.098,114.736,43.454,109.376,50.064,109.376z M60.351,123.157
	c0.29-1.745-1.137-1.527-1.534,0.184c-0.719,3.088-2.333,1.739-1.557-0.248c0.556-1.43-0.855-2.275-1.155-0.243
	c-0.26,1.762-1.213,2.976-2.683,3.637c-1.956,0.88-0.96,2.036,0.447,1.212c1.95-1.146,2.774,0.548-0.196,1.891
	c-1.501,0.678-1.003,2.075,1.067,1.066C58.421,128.863,59.986,125.352,60.351,123.157z M54.646,121.447
	c0-2.533-2.051-4.585-4.582-4.585s-4.584,2.052-4.584,4.585c0,2.532,2.053,4.587,4.584,4.587S54.646,123.979,54.646,121.447z
	 M46.815,116.205c2.125-1.049,1.011-2.139-0.395-1.315c-1.95,1.146-2.774-0.548,0.196-1.892c1.501-0.677,1.003-2.075-1.067-1.065
	c-3.682,1.793-5.159,5.03-5.523,7.225c-0.292,1.745,1.063,1.881,1.551,0.193c0.725-2.522,2.228-1.842,1.452,0.145
	c-0.556,1.43,0.875,2.252,1.31,0.243C44.653,118.284,45.449,116.879,46.815,116.205z"/>
<path class="st2" d="M56.618,89.972l0.01,0.196c-0.235,0.014-0.474,0.029-0.713,0.045c-6.384,0.433-11.82,2.732-16.079,5.726
	l-0.054-0.074c-1.481-3.511-1.143-9.24,0.764-12.79v-0.052c4.889,0.076,8.266,0.876,10.651,1.982
	C54.311,86.448,55.732,88.412,56.618,89.972z"/>
<path class="st1" d="M50.064,116.862c2.531,0,4.582,2.053,4.582,4.585c0,2.533-2.051,4.587-4.582,4.587
	c-2.531,0-4.584-2.054-4.584-4.587C45.48,118.915,47.534,116.862,50.064,116.862z M52.278,121.4c0-1.224-0.991-2.217-2.214-2.217
	c-1.223,0-2.216,0.993-2.216,2.217s0.993,2.215,2.216,2.215C51.288,123.615,52.278,122.624,52.278,121.4z"/>
<path class="st1" d="M50.064,119.183c1.223,0,2.214,0.993,2.214,2.217s-0.99,2.215-2.214,2.215c-1.223,0-2.216-0.991-2.216-2.215
	S48.841,119.183,50.064,119.183z"/>
<path class="st7" d="M46.419,114.89c1.407-0.824,2.521,0.266,0.395,1.315c-1.365,0.674-2.162,2.079-2.477,3.534
	c-0.435,2.009-1.866,1.187-1.31-0.243c0.776-1.987-0.727-2.667-1.452-0.144c-0.488,1.687-1.843,1.551-1.551-0.194
	c0.365-2.195,1.841-5.432,5.523-7.225c2.07-1.009,2.568,0.388,1.067,1.066C43.646,114.342,44.469,116.036,46.419,114.89z"/>
<path class="st7" d="M44.323,57.119c0.014,0.186,0.021,0.373,0.021,0.563c0,2.298-1.03,4.354-2.652,5.735
	c-2.916-0.878-5.041-3.585-5.041-6.792c0-2.44,1.232-4.593,3.11-5.869c1.345,0.571,2.49,1.525,3.301,2.722l-3.993,3.548
	L44.323,57.119z"/>
<path class="st2" d="M40.546,83.023v0.052c-1.907,3.55-2.245,9.279-0.764,12.79l0.054,0.074c-0.789,0.552-1.536,1.129-2.243,1.723
	l-0.235-0.274c-2.422-3.103-2.325-10.181-0.107-14.313C38.421,83.023,39.516,83.007,40.546,83.023z"/>
<path class="st2" d="M34.918,64.01l-0.297-0.126c-5.305-0.218-14.1-2.326-14.1-3.491c0-1.164,13.373-5.236,13.373-5.236l0.095,0.039
	c-0.441,1.092-0.684,2.283-0.684,3.532C33.306,60.687,33.901,62.504,34.918,64.01z"/>
<path class="st6" d="M31.158,116.782v2.229c0,0-2.424,0.052-3.585,0.052c-1.161,0-3.083,0.045-3.083-3.445
	c0-3.491,0.175-4.461,0.175-6.207c0-2.229,1.744-3.006,3.488-3.006h2.325l0.033,0.016C27.57,112.38,28.823,115.661,31.158,116.782z"
	/>
<path class="st10" d="M95.165,77.643l10.192-14.424l8.515,0.171l-11.099,17.513"/>
<path class="st10" d="M186.309,93.994c0,0-0.344-0.709-1.067-1.593c-0.99-1.216-2.694-2.761-5.196-3.247
	c-0.51-0.101-1.054-0.157-1.631-0.157c0,0-6.075,0.019-14.219,0.041c-0.803,0.002-1.629,0.004-2.469,0.006
	c-0.585,0-1.178,0.004-1.777,0.006c-1.547,0.004-3.137,0.008-4.749,0.012c-1.186,0.004-2.385,0.006-3.586,0.01
	c-3.437,0.008-6.898,0.019-10.175,0.027c-5.935,0.017-11.26,0.029-14.736,0.039c-1.833,0-3.151,0.004-3.775,0.004
	c-0.195,0-0.391,0.002-0.583,0.002c-0.963,0.008-1.888,0.027-2.813-0.064c-0.718-0.068-1.439-0.202-2.18-0.455
	c-0.47-0.161-0.95-0.369-1.442-0.639c-2.105-1.154-6.269-3.297-10.008-5.24c-1.135-0.589-2.23-1.16-3.217-1.679
	c-1.133-0.596-2.123-1.123-2.868-1.535c-2.018-1.113-3.577-1.492-5.076-1.62c-0.869-0.074-1.72-0.064-2.628-0.064H53.882
	c0,0-2.671,0.631-2.671,7.126"/>
<path class="st10" d="M105.977,82.603c0,0,0.398-0.639,1.044-1.681c2.636-4.251,9.418-15.211,10.352-16.924
	c1.164-2.135-0.257-4.247-2.778-4.247h-9.293c-2.916,0-3.11,3.468,0.055,3.468"/>
<path class="st10" d="M159.95,88.951c0,0,8.35-12.182,9.981-14.591c0.103-0.152,0.208-0.29,0.315-0.416
	c1.992-2.37,4.45-0.282,2.922,2.104c-0.3,0.47-0.722,1.103-1.221,1.836c-2.726,4.016-7.751,11.067-7.751,11.067"/>
<path class="st10" d="M171.966,77.896c4.123,2.813,6.202,7.855,6.45,11.1"/>
<path class="st10" d="M61.708,77.896c-2.714,2.425-2.02,12.087-2.02,12.087"/>
<path class="st10" d="M78.254,93.949c0.356,0.188,0.706,0.379,1.05,0.577c1.633,0.94,3.132,1.978,4.578,3.066
	c0.42,0.315,0.838,0.637,1.252,0.96c0.074,0.058,0.148,0.115,0.22,0.173c0.42,0.33,0.836,0.666,1.246,1.006
	c0.325,0.266,0.649,0.537,0.968,0.809c1.421,1.214,2.782,2.465,4.077,3.73c0.422,0.41,0.836,0.822,1.244,1.236
	c2.515,2.547,4.747,5.098,6.641,7.425c1.458,1.79,2.716,3.445,3.748,4.863c2.064,2.833,3.223,4.71,3.27,4.789l-36.824,0.195
	c0,0-0.381-5.705-3.095-10.748c-0.465-0.863-1.12-1.904-2.006-2.973c-1.545-1.873-3.789-3.839-6.924-5.112
	c-2.521-1.025-5.618-1.602-9.392-1.321c-13.083,0.97-17.152,14.158-17.152,14.158c-2.335-1.121-3.587-4.401-0.647-10.361
	c0.113-0.226,0.231-0.459,0.356-0.694c1.372-2.588,3.653-5.481,6.726-8.065c0.706-0.593,1.454-1.17,2.243-1.723
	c4.259-2.994,9.695-5.294,16.079-5.726c0.239-0.017,0.478-0.031,0.713-0.045c1.061-0.062,2.08-0.099,3.062-0.111
	c3.703-0.051,6.872,0.235,9.644,0.777c2.065,0.402,3.913,0.946,5.599,1.599c0.537,0.208,1.058,0.426,1.565,0.655
	c0.601,0.272,1.182,0.556,1.746,0.857"/>
<path class="st10" d="M56.617,89.971c-0.885-1.56-2.306-3.524-5.42-4.966c-2.385-1.106-5.762-1.906-10.651-1.982
	c-1.03-0.016-2.125,0-3.295,0.052"/>
<path class="st10" d="M37.251,83.075c-2.218,4.132-2.315,11.21,0.107,14.313"/>
<path class="st10" d="M40.547,83.075c-1.907,3.55-2.245,9.279-0.764,12.79"/>
<path class="st10" d="M57.808,103.691c0.774-2.232,2.615-3.2,3.876-3.394c2.819-0.434,4.846,0.969,7.269-0.68
	c2.422-1.648,1.577-3.035,3.682-4.752c2.529-2.063,5.42-0.993,5.61-0.921c0.006,0.002,0.01,0.004,0.01,0.004"/>
<path class="st10" d="M64.698,108.997c2.226-5.111,6.067-0.666,8.966-2.306c2.897-1.638,2.71-4.737,4.675-5.862
	c1.962-1.126,5.422,1.584,8.198-1.02"/>
<path class="st10" d="M31.158,116.782v2.229c0,0-2.424,0.052-3.585,0.052c-1.161,0-3.083,0.045-3.083-3.445
	c0-3.491,0.175-4.461,0.175-6.207c0-2.229,1.744-3.006,3.488-3.006h2.325"/>
<path class="st10" d="M69.344,90.78l5.941-8.154c0.898-1.232,2.626-1.504,3.859-0.606c0.741,0.542,1.135,1.383,1.135,2.236
	c0,0.297-0.047,0.593-0.144,0.88c-0.089,0.26-0.216,0.513-0.387,0.746l-4.811,6.538"/>
<path class="st10" d="M80.172,85.148c0.579,0.929,0.573,2.153-0.111,3.091l-3.552,4.826"/>
<path class="st10" d="M79.34,94.464l7.241-9.975c0.9-1.232,2.628-1.504,3.859-0.604c0.741,0.54,1.135,1.383,1.135,2.236
	c0,0.274-0.039,0.548-0.122,0.814c-0.089,0.282-0.222,0.558-0.408,0.812l-7.131,9.804"/>
<path class="st10" d="M91.44,86.918c0,0,0.008,0.01,0.012,0.017c0.782,0.95,0.859,2.242,0.101,3.285l-6.184,8.488"/>
<path class="st10" d="M87.641,100.458l10.134-13.944c0.898-1.234,2.626-1.504,3.857-0.606c0.741,0.542,1.135,1.383,1.135,2.236
	c0,0.076-0.004,0.153-0.011,0.229c-0.039,0.488-0.207,0.973-0.518,1.397l-10.495,14.401"/>
<path class="st10" d="M102.754,88.371h0.002c0.865,0.952,0.921,2.357,0.136,3.435l-9.942,13.643"/>
<path class="st10" d="M106.165,122.585l0.385-0.003l48.264-0.156l6.59-0.021"/>
<path class="st10" d="M154.814,122.405c-0.513-1.564-0.818-3.119-0.937-4.65c-0.128-1.616-0.05-3.2,0.208-4.738
	c0.902-5.427,4.015-10.237,8.111-13.507c1.753-1.401,3.684-2.52,5.7-3.287c6.415-2.436,12.754-2.842,18.374-1.978
	c1.029,0.157,2.034,0.356,3.012,0.595c1.382,0.334,2.708,0.746,3.967,1.22c0.922,0.346,1.808,0.725,2.654,1.133
	c0.148,0.072,0.297,0.144,0.447,0.22c1.464,0.738,2.974,1.653,4.473,2.676c0.723,0.493,1.441,1.01,2.152,1.544
	c1.472,1.106,2.908,2.285,4.252,3.47c3.421,3.01,6.254,6.052,7.609,7.997c0.223,0.321,0.406,0.612,0.544,0.867
	c2.193,4.041,1.79,5.127,1.596,6.388c-0.193,1.261-1.065,2.151-1.065,2.151H199.6c0,0,0.875-9.895-7.78-16.445
	c-0.373-0.28-0.765-0.556-1.174-0.826c-1.705-1.119-3.649-1.906-5.709-2.36c-6.295-1.389-13.653,0.324-18.494,5.073
	c-4.846,4.752-5.04,10.287-5.04,14.455l1.745-1.648"/>
<path class="st10" d="M99.55,112.914l16.402,0.031l10.369,0.021l27.764,0.051h0.049"/>
<path class="st10" d="M103.337,117.75h50.41"/>
<path class="st10" d="M119.531,89.1c-7.172,8.372-6.048,17.585-3.927,22.895c0.114,0.287,0.229,0.561,0.348,0.822"/>
<path class="st10" d="M161.727,89.048c0.873,2.133,0.89,8.636,0.406,10.381"/>
<path class="st10" d="M115.759,111.933c0,0,4.942-0.096,6.977-4.751c2.034-4.655,0.71-8.338,4.942-10.375
	c5.233-2.522,9.417,0.027,10.468-3.006c0.871-2.522,0.677-3.684,3.295-4.643"/>
<path class="st10" d="M126.321,112.805c6.493-3.006,2.618-6.011,5.525-9.891c2.908-3.878,7.908-0.41,11.92-3.587
	c2.325-1.842,1.314-4.882,2.325-6.594c1.26-2.133,4.265-0.542,5.525-3.548"/>
<path class="st10" d="M184.952,102.817c3.295-1.261,0.988-3.278,2.325-4.752c1.94-2.133,3.198,0,5.912-1.842"/>
<path class="st10" d="M191.929,105.92c1.55-0.774-0.787-2.812,1.357-3.49c1.841-0.581,4.069,1.551,5.815,0.775
	c1.596-0.709,1.648-3.005,1.648-3.005"/>
<path class="st10" d="M151.55,94.381c-1.889,0-1.889,2.425-0.19,2.425h6.199c2.078,0,1.8-2.483,0.29-2.483
	C156.34,94.324,151.55,94.381,151.55,94.381z"/>
<path class="st10" d="M224.464,84.321c-2.502,0-2.502,3.526-0.251,3.526h8.367c2.753,0,2.234-3.499,0.232-3.499
	C230.811,84.348,224.464,84.321,224.464,84.321z"/>
<path class="st10" d="M223.566,77.359c-2.253,0-2.253-3.524,0.251-3.524c0,0,2.257,0.025,4.259,0.025
	c5.319,0,3.493-7.212,8.347-7.212h7.794c2.727,0,3.058,4.028-0.597,4.028h-5.704c-2.859,0-1.994,6.751-7.179,6.751
	C226.746,77.427,225.819,77.359,223.566,77.359z"/>
<path class="st10" d="M224.071,95.609c-2.502,0-2.502,3.524-0.251,3.524h2.601c2.751,0,2.234-3.499,0.232-3.499
	C224.652,95.634,224.071,95.609,224.071,95.609z"/>
<path class="st10" d="M239.062,84.252c-2.502,0-2.502,3.526-0.249,3.526h2.599c2.753,0,2.234-3.499,0.233-3.499
	C239.643,84.278,239.062,84.252,239.062,84.252z"/>
<path class="st10" d="M250.749,66.905c-2.502,0-2.502,3.524-0.249,3.524h2.599c2.753,0,2.234-3.497,0.233-3.497
	C251.33,66.932,250.749,66.905,250.749,66.905z"/>
<path class="st10" d="M106.941,80.948c0,0,0.029-0.01,0.08-0.027c0.564-0.188,3.95-1.313,4.926-1.667
	c1.065-0.387,2.132-0.874,2.712,0.775c0.142,0.398,0.375,1.098,0.647,1.929c0.362,1.102,0.795,2.438,1.172,3.608
	c0.514,1.601,0.928,2.901,0.928,2.901"/>
<path class="st10" d="M180.055,89.106c11.97,0,9.549-15.877,21.468-15.877c0,0,13.332-0.103,15.076-0.103
	c3.141,0,2.879,5.708,0.359,5.708c-1.648,0-10.589,0.033-13.497,0.033c-10.659,0-8.425,13.53-18.213,13.53"/>
<path class="st10" d="M189.301,94.762c11.971,0,6.506-11.253,18.425-11.253c0,0,7.308-0.051,9.053-0.051
	c3.14,0,2.879,5.654,0.358,5.654c-1.647,0-6.602,0.033-9.508,0.033c-6.59,0-5.136,8.197-11.242,8.197"/>
<path class="st10" d="M202.989,101.614c2.068-3.157,3.137-6.855,9.193-6.855c0,0,2.852-0.051,4.596-0.051
	c3.141,0,2.828,5.654,0.307,5.654c-1.647,0-1.316,0.033-4.223,0.033c-3.619,0-4.463,2.471-5.626,4.7"/>
<path class="st10" d="M214.849,113.093c0-1.455,0.898-1.937,1.868-1.937h3.744c1.841,0,2.234,0.824,2.234,2.568
	c0,2.036,0.052,5.796,0.052,6.96c0,1.165-0.97,1.843-2.327,1.843h-4.844"/>
<path class="st10" d="M54.125,77.658c4.257-5.325,1.746-11.566-4.244-12.743c-0.008-0.002-0.019-0.004-0.027-0.006"/>
<path class="st10" d="M51.442,55.053c0.478,1.129,0.741,2.372,0.741,3.676c0,1.428-0.317,2.784-0.885,3.998
	c-0.371,0.795-0.851,1.533-1.417,2.188c-1.734,1.997-4.287,3.26-7.135,3.26c-3.26,0-6.131-1.652-7.828-4.164
	c-1.017-1.506-1.612-3.324-1.612-5.281c0-1.249,0.243-2.44,0.684-3.532c1.396-3.466,4.79-5.912,8.756-5.912
	C46.712,49.285,50.009,51.663,51.442,55.053z"/>
<path class="st10" d="M39.76,50.756c1.135-0.775,2.504-1.226,3.981-1.226c3.917,0,7.09,3.177,7.09,7.095
	c0,3.917-3.173,7.095-7.09,7.095c-0.713,0-1.4-0.105-2.049-0.303c-2.916-0.878-5.041-3.585-5.041-6.792
	C36.65,54.185,37.882,52.032,39.76,50.756z"/>
<path class="st10" d="M41.665,63.439c0,0,0.019-0.014,0.027-0.023c1.623-1.381,2.652-3.437,2.652-5.735
	c0-0.19-0.006-0.377-0.021-0.563l-5.255-0.093l3.993-3.548c-0.811-1.197-1.956-2.151-3.301-2.722c-0.002,0-0.002-0.002-0.004-0.002"
	/>
<path class="st10" d="M33.895,55.158c0,0-13.373,4.072-13.373,5.236c0,1.164,8.795,3.272,14.1,3.491"/>
<path class="st10" d="M51.702,55.012c1.236-2.398,6.415-8.539,12.521-8.539h8.33c5.605,0,5.542,5.504,0.591,5.504
	c-1.419,0-3.427,0.014-5.426,0.031c-3.635,0.029-7.243,0.072-7.243,0.072"/>
<path class="st10" d="M56.94,57.379h10.461c4.52,0,4.469-4.947,0.315-5.372c-0.187-0.021-0.381-0.031-0.585-0.031"/>
<path class="st10" d="M51.483,62.813h9.522c4.724,0,4.454-5.403-0.27-5.403"/>
<path class="st10" d="M55.812,62.823c2.068,1.208,3.095,2.734,3.53,3.824c0,0,6.726-4.103,7.986-1.745
	c0.684,1.276-1.983,2.302-4.075,2.889c-1.252,0.354-2.298,0.55-2.298,0.55"/>
<path class="st10" d="M61.078,70.139c0,0,0.628,0.095,1.53,0.177c2.269,0.208,6.269,0.346,6.32-1.267
	c0.064-1.968-5.669-1.236-5.669-1.236"/>
<path class="st10" d="M61.057,71.915l0.002,0.002l4.11,5.786"/>
<path class="st10" d="M62.604,70.357c0,0,6.396,1.236,5.379,3.128c-1.221,2.269-6.79-1.477-6.923-1.568"/>
<path class="st10" d="M54.972,60.175h6.542"/>
<path class="st10" d="M58.753,54.733h8.649"/>
<path class="st10" d="M62.459,49.061h10.247"/>
<path class="st10" d="M116.632,68.803c0,0,0.577-2.685,3.243-3.072c2.224-0.324,3.495,0.406,4.998,2.287
	c1.94,2.425,3.096,5.37,2.902,7.843c-0.165,2.098-3.052,2.466-4.52,0.775c-0.266-0.305-0.48-0.624-0.653-0.942
	c-0.838-1.523-0.737-3.033-0.737-3.033s-0.482-1.187-2.375-0.581c-1.211,0.387-1.503,1.259-1.841,1.696
	c-0.809,1.041-2.568,0-1.213-1.793c0.072-0.095,0.182-0.27,0.34-0.482c0.472-0.635,1.392-1.599,3.151-1.75
	c1.695-0.144,2.518,0.68,2.518,0.68"/>
<path class="st10" d="M116.826,71.4c-0.023,0.031-0.046,0.06-0.068,0.087c-0.651,0.76-1.835,0.356-1.088-1.142
	c0.293-0.581,0.647-1.059,1.051-1.444c0.669-0.645,1.474-1.034,2.341-1.222c2.908-0.631,3.964,0.958,3.964,0.958"/>
<path class="st10" d="M117.734,73.784l1.991,6.612l1.1,3.649l1.522,5.053"/>
<path class="st10" d="M122.594,75.698l4.11,13.245"/>
<path class="st10" d="M115.419,81.921c0.146,0,4.071-1.455,4.071-1.455"/>
<path class="st10" d="M116.679,85.558c0.146,0,4.123-1.506,4.123-1.506"/>
<path class="st10" d="M67.167,120.524c0.021,0.321,0.029,0.647,0.029,0.973c0,9.468-7.671,17.142-17.131,17.142
	s-17.134-7.674-17.134-17.142c0-1.63,0.229-3.209,0.653-4.703c2.043-7.183,8.649-12.441,16.481-12.441
	C59.2,104.353,66.665,111.507,67.167,120.524z"/>
<path class="st10" d="M50.064,133.324c6.609,0,11.967-5.361,11.967-11.974s-5.358-11.974-11.967-11.974
	c-6.609,0-11.967,5.361-11.967,11.974S43.455,133.324,50.064,133.324z"/>
<path class="st10" d="M54.646,121.447c0,2.533-2.051,4.587-4.582,4.587c-2.531,0-4.584-2.054-4.584-4.587
	c0-2.532,2.053-4.585,4.584-4.585C52.595,116.862,54.646,118.915,54.646,121.447z"/>
<path class="st10" d="M52.278,121.4c0,1.224-0.99,2.215-2.214,2.215c-1.223,0-2.216-0.991-2.216-2.215s0.993-2.217,2.216-2.217
	C51.288,119.183,52.278,120.176,52.278,121.4z"/>
<path class="st10" d="M40.025,119.158c0.365-2.195,1.841-5.432,5.523-7.225c2.07-1.009,2.568,0.388,1.067,1.066
	c-2.97,1.343-2.146,3.037-0.196,1.891c1.407-0.824,2.521,0.266,0.395,1.315c-1.365,0.674-2.162,2.079-2.477,3.534
	c-0.435,2.009-1.866,1.187-1.31-0.243c0.776-1.987-0.727-2.667-1.452-0.144C41.088,121.039,39.733,120.903,40.025,119.158z"/>
<path class="st10" d="M60.351,123.157c-0.365,2.195-1.93,5.706-5.612,7.499c-2.07,1.009-2.568-0.388-1.067-1.066
	c2.97-1.343,2.146-3.037,0.196-1.891c-1.407,0.824-2.403-0.332-0.447-1.212c1.47-0.661,2.424-1.875,2.683-3.637
	c0.301-2.032,1.711-1.187,1.155,0.243c-0.776,1.987,0.838,3.336,1.557,0.248C59.214,121.63,60.641,121.412,60.351,123.157z"/>
<path class="st10" d="M197.536,120.942c0.009,0.184,0.011,0.369,0.011,0.555c0,9.468-7.669,17.142-17.132,17.142
	c-9.462,0-17.131-7.674-17.131-17.142c0-0.246,0.006-0.491,0.016-0.734c0.383-9.128,7.898-16.41,17.115-16.41
	C189.633,104.353,197.246,111.731,197.536,120.942z"/>
<path class="st10" d="M180.415,133.324c6.609,0,11.967-5.361,11.967-11.974s-5.358-11.974-11.967-11.974
	c-6.609,0-11.967,5.361-11.967,11.974S173.806,133.324,180.415,133.324z"/>
<path class="st10" d="M184.997,121.447c0,2.533-2.051,4.587-4.582,4.587c-2.531,0-4.582-2.054-4.582-4.587
	c0-2.532,2.051-4.585,4.582-4.585C182.946,116.862,184.997,118.915,184.997,121.447z"/>
<path class="st10" d="M182.629,121.4c0,1.224-0.991,2.215-2.214,2.215c-1.223,0-2.214-0.991-2.214-2.215s0.991-2.217,2.214-2.217
	C181.638,119.183,182.629,120.176,182.629,121.4z"/>
<path class="st10" d="M170.376,119.158c0.366-2.195,1.841-5.432,5.523-7.225c2.07-1.009,2.568,0.388,1.067,1.066
	c-2.97,1.343-2.146,3.037-0.194,1.891c1.405-0.824,2.519,0.266,0.393,1.315c-1.363,0.674-2.162,2.079-2.477,3.534
	c-0.434,2.009-1.866,1.187-1.308-0.243c0.775-1.987-0.727-2.667-1.454-0.144C171.44,121.039,170.085,120.903,170.376,119.158z"/>
<path class="st10" d="M190.704,123.157c-0.367,2.195-1.93,5.706-5.612,7.499c-2.072,1.009-2.57-0.388-1.067-1.066
	c2.97-1.343,2.146-3.037,0.194-1.891c-1.405,0.824-2.403-0.332-0.445-1.212c1.468-0.661,2.422-1.875,2.683-3.637
	c0.301-2.032,1.712-1.187,1.154,0.243c-0.775,1.987,0.838,3.336,1.556,0.248C189.565,121.63,190.994,121.412,190.704,123.157z"/>
<path class="st10" d="M31.158,119.012l2.364-2.236"/>
<path class="st10" d="M67.112,120.475l0.056,0.049l2.56,2.254"/>
<path class="st10" d="M199.6,122.508l-1.953-1.57"/>
<path class="st10" d="M170.221,73.922c0-1.842-2.176-2.973-4.116-2.293l-10.904,17.42"/>
<path class="st11" d="M141.655,70.656V70.8h-1.306v-0.103c-0.018-0.462-0.033-0.911-0.043-1.352
	c-0.138-5.428,0.241-9.345,2.467-12.431C139.558,63.237,141.655,70.656,141.655,70.656z"/>
<path class="st3" d="M116.607,68.785c0,0,0.577-2.685,3.244-3.072c2.224-0.324,3.494,0.408,5,2.287
	c0.516,0.647,0.98,1.333,1.373,2.036c0.29,0.517,0.546,1.045,0.76,1.572c0.585,1.447,0.869,2.908,0.766,4.235
	c-0.045,0.567-0.286,1.006-0.644,1.315c-0.975,0.832-2.803,0.697-3.876-0.538c-1.536-1.768-1.39-3.977-1.39-3.977
	s-0.482-1.187-2.375-0.581c-1.21,0.387-1.503,1.261-1.841,1.698c-0.809,1.041-2.568,0-1.213-1.795
	c0.083-0.109,0.211-0.319,0.406-0.569l-0.016-0.012c-0.63,0.872-1.93,0.497-1.156-1.055c0.293-0.583,0.647-1.059,1.051-1.447
	L116.607,68.785z"/>
<path class="st11" d="M149.054,78.688l0.023,0.404c-0.291,2.52-2.132,7.756-3.586,9.697v0.241h-2.739
	c1.642-2.446,3.557-7.628,3.845-10.132V78.75C147.522,78.748,148.331,78.729,149.054,78.688z"/>
<path class="st11" d="M152.203,78.222l0.465,0.189c-0.354,1.552-1.454,4.074-1.454,4.074l-0.047,0.212l-2.152-0.478
	c-0.348,1.115-0.13,2.157,0.912,2.388c0.13,0.029,0.315,0.07,0.54,0.122l-1.936,4.3h-3.04v-0.241
	c1.454-1.941,3.295-7.177,3.585-9.697l-0.022-0.404C150.337,78.616,151.342,78.474,152.203,78.222z"/>
<path class="st11" d="M152.707,85.228l-0.004,0.023l-1.728,3.596v0.183h-2.444l1.936-4.3
	C151.033,84.855,151.852,85.039,152.707,85.228z"/>
<path class="st11" d="M154.954,85.729l-0.017,0.066l-1.351,3.046v0.19h-2.611v-0.183l1.728-3.596l0.004-0.023
	C153.483,85.401,154.289,85.58,154.954,85.729z"/>
<path class="st11" d="M163.175,51.589c0.385,0.548,0.871,1.043,1.532,1.609c-0.122-0.014-1.114-0.095-2.023,1.36l-0.059,0.027
	c0.051-0.225,0.094-0.462,0.127-0.709c0.091-0.655,0.095-1.251,0.058-1.756c-0.062-0.868-0.241-1.467-0.294-1.628
	C162.687,50.829,162.899,51.193,163.175,51.589z"/>
<path class="st11" d="M150.242,52.032c-0.84,0.837-1.577,1.881-2.214,3.118c-0.177,0.34-0.346,0.697-0.506,1.065l-0.344-0.008
	l-1.705-1.257c0.243-0.249,0.504-0.494,0.784-0.729c0,0,0.002-0.001,0.004-0.002C147.61,53.582,149.093,52.972,150.242,52.032z"/>
<path class="st4" d="M149.41,26.437c0.739,0.056,2.035-0.34,2.374-1.504l-2.18-1.018l2.487-0.775
	c-0.169-1.098-0.712-2.215-2.158-2.16v-0.01v-0.002c0.457-0.064,0.945-0.08,1.448-0.043c2.473,0.188,4.378,1.648,4.254,3.262
	c-0.121,1.611-2.226,2.767-4.699,2.58c-0.544-0.041-1.061-0.144-1.534-0.299l0.01-0.031H149.41z"/>
<path class="st4" d="M155.555,39.712c-0.661,2.65-1.392,4.69-3.126,5.347l-0.064-0.179l-0.101-3.952l-0.434-0.031
	C153.014,40.682,154.167,40.314,155.555,39.712z"/>
<path class="st4" d="M153.142,33.371c1.21,0.097,1.956-0.435,2.526-1.034l-1.713-1.686l2.309-0.849
	c-0.112-0.684-0.468-1.292-0.981-1.725v-0.13c1.164,0.029,3.724,0.089,3.824,0.107c1.403,0.243,2.667,1.243,2.513,3.258
	c-0.167,2.203-2.41,3.484-5.575,3.245c-1.13-0.087-2.15-0.34-2.98-0.744c-0.506-0.243-0.941-0.542-1.287-0.89l0.021-0.023
	C151.887,32.98,152.293,33.303,153.142,33.371z"/>
<path class="st11" d="M162.81,52.121c0.037,0.505,0.033,1.1-0.058,1.756c-0.033,0.247-0.076,0.484-0.127,0.709l-6.963,3.252
	c0.709-1.313,1.367-2.473,1.971-3.478l0.012,0.006l4.943-2.232L162.81,52.121z"/>
<path class="st11" d="M169.421,59.912c-0.089,1.14-0.396,2.549-0.872,4.391c-0.774,3.006-4.942,15.419-10.175,24.533l-0.004,0.194
	h-2.265v-0.241c0,0,0.754-1.533,1.82-3.794c0.958-2.03,2.171-4.647,3.318-7.262c2.422-5.526,4.736-12.413,4.736-12.413l-0.043-0.037
	c0.431-0.495,0.882-1.014,1.353-1.562C168.533,62.275,169.188,60.995,169.421,59.912z"/>
<path class="st11" d="M169.132,57.445c-0.115-0.204-0.251-0.389-0.408-0.556c-0.516-0.552-1.235-0.894-2.003-0.997
	c-1.04-0.14-2.171,0.155-3.017,0.946c-0.715,0.668-1.847,1.855-3.147,3.26l-0.2-0.109c0,0,0.67-1.131,1.545-2.353
	c0.601-0.834,1.297-1.712,1.944-2.302c1.003-0.911,2.179-0.964,2.315-0.968c0.29,0.225,0.603,0.464,0.941,0.721
	C168.125,55.867,168.78,56.586,169.132,57.445z"/>
<path class="st11" d="M155.662,57.837l6.963-3.252c-0.379,1.721-1.149,2.833-1.149,2.833l-4.943,2.91l2.519,0.968l0.222,0.202
	c-0.622,0.68-1.258,1.387-1.894,2.091l-0.124-0.111l-3.198-1.842l-0.369-0.012c0.608-1.203,1.189-2.32,1.736-3.346
	C155.506,58.127,155.586,57.981,155.662,57.837z"/>
<path class="st11" d="M140.349,70.697V70.8h-9.293c0,0,0.214,0.235,0.449,0.754l-0.159,0.023h-1.172V71.48
	c-0.025-0.641-0.255-1.152-0.486-1.504c-0.239-0.373-0.478-0.573-0.478-0.573l11.088-0.058h0.008
	C140.316,69.786,140.331,70.235,140.349,70.697z"/>
<path class="st3" d="M154.711,22.121l1.283-1.519C155.411,20.821,154.752,22.045,154.711,22.121z M148.352,21.169
	c0,0-0.068-0.816-0.484-1.321L148.352,21.169z M150.668,20.602l0.179-1.311C150.72,19.743,150.668,20.602,150.668,20.602z
	 M155.633,24.188c0.124-1.613-1.781-3.074-4.254-3.262c-0.503-0.037-0.991-0.021-1.448,0.043c-1.8,0.258-3.155,1.251-3.252,2.537
	c-0.096,1.259,1.042,2.423,2.721,2.963c0.473,0.155,0.99,0.258,1.534,0.299C153.407,26.955,155.512,25.799,155.633,24.188z
	 M159.107,28.055c-0.101-0.018-2.66-0.078-3.822-0.107c-0.319-0.006-0.531-0.012-0.56-0.014v-0.01
	c-0.294-0.01-0.595-0.019-0.9-0.031c-3.142-0.107-6.645-0.328-8.307-0.781l0.06-0.222c0.747-2.99-1.568-6.429,1.167-10.888
	l0.101-0.101c3.342,2.837,6.271,2.37,9.419,2.028c4.241-0.459,5.985,0.315,7.245,2.353c0.921,1.486,1.551,3.878,0.49,7.354
	c-0.63,2.065-2.43,8.23,1.158,9.646c-1.007,3.408-3.133,4.956-4.201,8.257c-0.25,0.76-0.441,1.616-0.548,2.609
	c-0.08,0.717-0.115,1.508-0.097,2.388c0,0-4.792,2.638-6.969,3.05c-0.185,0.035-0.35,0.054-0.492,0.054
	c-0.428,0-0.706-0.151-0.908-0.367c-0.336-0.359-0.461-0.903-0.727-1.238c-0.136-0.171-0.187-0.359-0.187-0.534
	c0-0.462,0.329-0.868,0.329-0.868l-0.025-0.101c-0.805,0.202-1.661,0.288-2.46,0.227c-4.953-0.377-4.554-6.639-4.498-7.396
	c0.058-0.758,0.414-5.541,0.414-5.541l0.01-0.146c1.357,0.089,2.9,0.194,4.139,0.289c4.677,0.356,4.955-1.492,5.003-2.112
	c0.037-0.472-0.178-1.368-0.985-1.817l0.109-0.218c0.83,0.404,1.85,0.657,2.98,0.744c3.165,0.239,5.408-1.043,5.575-3.245
	C161.774,29.298,160.51,28.298,159.107,28.055z M151.403,47.262c5.013,0,4.152-7.55,4.152-7.55s-0.404-1.063-2.076-1.012
	c-1.67,0.049-2.277,1.113-2.277,1.113s-0.406-0.404-1.318-0.404c-1.421,0-2.025,0.709-2.733,1.519l-0.006,0.206
	c-0.031,0-0.064-0.002-0.095-0.002v0.101C147.05,41.233,146.391,47.262,151.403,47.262z"/>
<path class="st11" d="M152.507,68.715l0.159,0.186c-0.844,0.927-1.641,1.591-3.291,1.815l-0.014-0.109
	c0.286-0.616,0.568-1.22,0.844-1.809c0.223-0.472,0.441-0.933,0.657-1.387l0.095,0.045L152.507,68.715z"/>
<path class="st12" d="M151.688,53.444c-0.981,0.874-1.65,1.778-2.103,2.572c-0.754,1.319-0.908,2.322-0.908,2.322l-0.575-3.149
	l-0.074-0.039c0.637-1.236,1.374-2.281,2.214-3.118c0.202-0.165,0.393-0.34,0.573-0.528l0.214-0.006
	c0,0.175,0.051,0.363,0.187,0.534c0.266,0.336,0.391,0.88,0.727,1.238L151.688,53.444z"/>
<path class="st11" d="M145.304,78.752v0.097c-0.581,3.585-2.297,7.272-3.833,10.181h-1.629c0.171-0.284,1.067-1.83,2.2-4.702
	c1.26-3.2,1.55-5.43,1.55-5.43v-0.146H145.304z"/>
<path class="st13" d="M153.574,53.592c0.356,1.102,0.408,2.225,0.348,3.149h-0.006l-1.784,2.145h-0.039l-2.292-0.109l-0.148-2.716
	l-0.068-0.045c0.453-0.793,1.122-1.698,2.103-2.572l0.255-0.173c0.202,0.216,0.48,0.367,0.908,0.367
	c0.142,0,0.307-0.019,0.492-0.054L153.574,53.592z"/>
<path class="st4" d="M145.518,27.111c1.662,0.453,5.165,0.674,8.307,0.781v0.01c-1.45-0.058-2.504,0.532-2.943,2.467
	c-1.12,0.686-2.907,1.273-4.763,1.848l-0.004-0.01c0.678-0.534,0.85-0.97,0.85-0.97l-2.18-1.065l2.374-1.067
	c0,0-0.239-1.486-1.827-2.009l0.011-0.033C145.398,27.079,145.456,27.095,145.518,27.111z"/>
<path class="st11" d="M142.429,67.262l2.79-0.758c-0.049,0.546-0.088,1.104-0.119,1.673c-0.019,0.317-0.035,0.639-0.049,0.962
	l-0.198-0.008l-2.134,0.651l-0.028,0.008c-0.149-0.608-0.34-1.498-0.468-2.502L142.429,67.262z"/>
<path class="st11" d="M157.489,74.404l-3.825,8.566l-0.059,0.272l-2.438-0.544l0.047-0.212c0,0,1.1-2.522,1.454-4.074l-0.466-0.189
	c1.806-0.523,2.988-1.521,4.815-3.349C157.169,74.721,157.326,74.564,157.489,74.404z"/>
<path class="st11" d="M143.593,78.752v0.146c0,0-0.291,2.229-1.551,5.43c-1.133,2.872-2.028,4.418-2.199,4.702h-2.356v-0.047
	c0,0,1.163-1.745,2.52-5.236c0.911-2.345,1.164-4.809,1.164-4.809v-0.185H143.593z"/>
<path class="st12" d="M130.174,71.48v0.097h-3.005l-0.185,0.031c-0.214-0.527-0.47-1.055-0.76-1.572l0.05-0.029h3.364l0.05-0.031
	C129.919,70.328,130.149,70.839,130.174,71.48z"/>
<path class="st4" d="M149.834,41.284l0.05,3.697l-0.039,0.126c-1.751-0.552-2.377-2.283-2.795-3.874v-0.101
	c0.031,0,0.064,0.002,0.095,0.002c1.003,0.027,1.876,0.029,2.681-0.012L149.834,41.284z"/>
<path class="st11" d="M161.476,57.418l0.426,0.216c-0.875,1.222-1.545,2.353-1.545,2.353l0.2,0.109
	c-0.414,0.447-0.844,0.917-1.283,1.401l-0.222-0.202l-2.519-0.969L161.476,57.418z"/>
<path class="st7" d="M143.619,32.945c0,0-2.119,0.021-1.878-3.147c0.171-2.262,1.868-2.712,2.822-2.784c0.381-0.029,0.642,0,0.642,0
	c0.043,0.014,0.091,0.031,0.138,0.045l-0.01,0.033c1.587,0.523,1.826,2.009,1.826,2.009l-2.374,1.067l2.181,1.065
	c0,0-0.173,0.437-0.851,0.97l0.004,0.01c-0.832,0.258-1.68,0.513-2.485,0.775l-0.015-0.047V32.945z"/>
<path class="st14" d="M150.467,84.729c-0.225-0.051-0.41-0.093-0.54-0.122c-1.042-0.231-1.26-1.273-0.912-2.388l2.152,0.478
	l2.438,0.544l2.134,0.474l2.432,0.542c0,0-0.072,0.346-0.252,0.736c-0.261,0.567-0.755,1.226-1.598,1.038
	c-0.236-0.054-0.739-0.165-1.367-0.303c-0.665-0.148-1.47-0.328-2.247-0.501C151.853,85.039,151.033,84.855,150.467,84.729z"/>
<path class="st13" d="M152.093,58.883l-0.006,0.138l-1.95,9.742l0.068,0.033c-0.276,0.589-0.558,1.193-0.844,1.809l0.014,0.109
	c-0.401,0.056-0.854,0.084-1.369,0.084h-2.999v-0.227c0.011-0.484,0.025-0.962,0.044-1.434c0.014-0.324,0.03-0.645,0.049-0.962
	l0.095,0.006l4.606-9.406L152.093,58.883z"/>
<path class="st12" d="M131.504,71.554c0.113,0.249,0.233,0.565,0.334,0.952c0.14,0.517,0.251,1.162,0.28,1.947
	c0,0.01,0,0.021,0,0.031c0.029,0.789-0.111,1.49-0.321,2.085c-0.075,0.206-0.157,0.402-0.243,0.581h-0.004
	c0,0-3.983,0.049-4.37,0.049l-0.077-0.043c0.359-0.309,0.6-0.748,0.645-1.315c0.103-1.327-0.181-2.788-0.766-4.234l0.185-0.031
	h4.177l0.158-0.023H131.504z"/>
<path class="st11" d="M154.641,66.194l0.288,0.146c-0.708,0.799-1.365,1.546-1.932,2.188c-0.113,0.128-0.222,0.251-0.331,0.371
	l-0.159-0.186l-1.55-1.259l-0.095-0.045c0.463-0.977,0.914-1.916,1.355-2.815l0.097,0.047L154.641,66.194z"/>
<path class="st11" d="M157.925,84.995c-1.066,2.26-1.82,3.794-1.82,3.794v0.241h-2.519v-0.19l1.351-3.046l0.017-0.066
	c0.628,0.138,1.13,0.249,1.367,0.303c0.842,0.188,1.337-0.472,1.598-1.038h0.006V84.995z"/>
<path class="st11" d="M144.853,69.131l0.197,0.008c-0.018,0.472-0.033,0.95-0.043,1.434V70.8h-2.092v-0.175
	c0,0-0.097-0.313-0.225-0.835l0.029-0.008L144.853,69.131z"/>
<path class="st12" d="M148.677,58.338c0,0,0.155-1.004,0.908-2.322l0.068,0.045l0.149,2.716l-4.607,9.407l-0.095-0.006
	c0.031-0.569,0.07-1.127,0.12-1.673c0.094-1.111,0.22-2.176,0.378-3.194c0.243-1.578,0.561-3.041,0.952-4.377
	c0.284-0.975,0.607-1.881,0.972-2.718c0.16-0.369,0.329-0.725,0.506-1.065l0.075,0.039L148.677,58.338z"/>
<path class="st11" d="M146.512,58.923l-2.436-1.747l-0.276-0.078c0.412-0.661,0.968-1.424,1.672-2.147l1.706,1.257l0.343,0.008
	c-0.364,0.837-0.687,1.743-0.972,2.718L146.512,58.923z"/>
<path class="st14" d="M153.479,38.7c1.673-0.052,2.076,1.012,2.076,1.012c-1.388,0.602-2.541,0.971-3.725,1.185
	c-0.645,0.118-1.299,0.188-2.004,0.225c-0.805,0.041-1.678,0.039-2.681,0.012l0.006-0.206c0.709-0.81,1.312-1.519,2.733-1.519
	c0.912,0,1.318,0.404,1.318,0.404S151.809,38.75,153.479,38.7z"/>
<path class="st11" d="M168.724,56.889l-0.129,0.093c0,0-10.95,12.607-13.18,14.643c-2.228,2.036-3.392,2.813-6.106,2.813h-16.862
	l-0.329,0.017c-0.029-0.785-0.14-1.43-0.28-1.947l0.029-0.008h17.442c2.327,0,3.657-1.004,4.942-2.425
	c4.652-5.139,12.451-14.059,12.451-14.059l0.019-0.122C167.489,55.995,168.207,56.337,168.724,56.889z"/>
<path class="st11" d="M146.262,78.752c0.113,0,0.224,0,0.335-0.002v0.148c-0.288,2.504-2.203,7.686-3.844,10.132h-1.281
	c1.536-2.91,3.251-6.596,3.832-10.181v-0.097H146.262z"/>
<path class="st11" d="M161.964,69.745l0.041,0.037c0,0-2.035,4.655-3.972,9.213c-1.636,3.845-2.169,4.585-2.295,4.721l-2.133-0.474
	l0.06-0.272l3.824-8.566C158.564,73.332,159.89,72.009,161.964,69.745z"/>
<path class="st0" d="M166.358,45.465c0.033,0.105,1.147,3.439,2.482,3.808c0.045,0.062-5.562,2.471-7.844-3.723l-0.039-0.012
	c1.069-3.301,3.194-4.848,4.201-8.257c-3.588-1.416-1.788-7.581-1.158-9.646c1.061-3.476,0.431-5.869-0.49-7.354
	c-1.26-2.038-3.004-2.813-7.244-2.353c-3.149,0.342-6.077,0.81-9.42-2.028L146.745,16c-2.734,4.459-0.42,7.898-1.167,10.888
	l-0.06,0.223c-0.062-0.017-0.119-0.033-0.175-0.049c-0.047-0.014-0.095-0.031-0.138-0.045c0,0-0.261-0.031-0.642,0l-0.005-0.054
	c-0.327-3.785-3.179-3.429-3.179-8.224c0-3.248,3.746-4.56,3.746-4.56c0.204-4.255,1.19-8.815,8.507-8.815
	c6.684,0,7.796,6.182,11.95,8.106c4.152,1.925,8.608,1.824,9.619,5.168c1.005,3.318-0.202,5.37-0.809,6.182
	c-1.363,1.818-1.944,2.864-2.037,5.228c-0.2,5.139,3.501,14.23-4.417,12.809c0,0,0.016,3.412,2.08,3.569c0,0-2.144,0.929-3.66-0.958
	V45.465z"/>
<path class="st12" d="M155.273,58.195l0.153,0.082c-0.548,1.026-1.129,2.143-1.736,3.346c-0.474,0.938-0.966,1.929-1.473,2.971
	c-0.441,0.898-0.892,1.838-1.355,2.815c-0.216,0.453-0.434,0.915-0.657,1.387l-0.068-0.033l1.95-9.742l0.007-0.138h0.039
	l1.783-2.143h0.006c-0.076,1.224-0.342,2.094-0.342,2.094L155.273,58.195z"/>
<path class="st11" d="M145.434,63.285l0.164,0.025c-0.158,1.018-0.284,2.083-0.379,3.194l-2.79,0.758l-0.206,0.027
	c-0.062-0.49-0.109-1.006-0.13-1.531c-0.02-0.517-0.033-0.987-0.039-1.403h0.085L145.434,63.285z"/>
<path class="st11" d="M166.721,55.891l-0.019,0.122c0,0-7.798,8.92-12.45,14.059c-1.285,1.422-2.616,2.425-4.943,2.425h-17.442
	l-0.029,0.008c-0.101-0.387-0.22-0.703-0.333-0.952c-0.235-0.519-0.449-0.754-0.449-0.754h16.95c0.515,0,0.968-0.029,1.369-0.084
	c1.65-0.225,2.447-0.888,3.291-1.815c0.109-0.119,0.218-0.243,0.332-0.371c0.566-0.643,1.223-1.389,1.931-2.188
	c0.775-0.874,1.609-1.811,2.451-2.751c0.636-0.705,1.273-1.412,1.894-2.091c0.439-0.484,0.87-0.954,1.283-1.401
	c1.3-1.405,2.432-2.592,3.147-3.26C164.55,56.046,165.681,55.751,166.721,55.891z"/>
<path class="st11" d="M143.45,56.06c0.674-0.766,1.695-1.313,2.807-1.84c-0.28,0.235-0.541,0.48-0.784,0.729
	c-0.705,0.723-1.261,1.486-1.673,2.147c-0.63,1.01-0.93,1.776-0.93,1.776l2.267,1.597l-3.044,1.409c0,0-0.062,0.857-0.039,2.475
	c0.006,0.416,0.019,0.886,0.039,1.403c0.021,0.525,0.068,1.041,0.13,1.531c0.128,1.004,0.319,1.894,0.467,2.502
	c0.128,0.521,0.225,0.834,0.225,0.834V70.8h-1.26v-0.144c0,0-2.097-7.418,1.118-13.742C142.981,56.621,143.207,56.336,143.45,56.06z
	"/>
<path class="st4" d="M152.365,44.88l0.064,0.179c-0.389,0.148-0.828,0.227-1.328,0.227c-0.474,0-0.89-0.064-1.256-0.179l0.039-0.126
	l-0.05-3.697l-0.008-0.163c0.704-0.037,1.359-0.107,2.004-0.225l0.434,0.031L152.365,44.88z"/>
<path class="st14" d="M155.555,39.712c0,0,0.861,7.55-4.152,7.55c-5.012,0-4.353-6.029-4.353-6.029
	c0.418,1.591,1.044,3.322,2.795,3.874c0.366,0.115,0.782,0.179,1.256,0.179c0.5,0,0.939-0.078,1.328-0.227
	C154.163,44.402,154.894,42.362,155.555,39.712z"/>
<path class="st11" d="M169.132,57.445c0.171,0.42,0.27,0.874,0.303,1.387l-0.058,0.004c0,0-9.504,10.946-12.605,14.049
	c-3.101,3.103-4.845,3.781-7.074,3.781H132.06l-0.261-0.097c0.21-0.595,0.35-1.296,0.321-2.085c0-0.01,0-0.021,0-0.031l0.33-0.017
	h16.861c2.714,0,3.878-0.777,6.106-2.813c2.23-2.036,13.18-14.643,13.18-14.643l0.129-0.093c0.157,0.167,0.293,0.352,0.408,0.556
	H169.132z"/>
<path class="st11" d="M141.171,78.752v0.185c0,0-0.253,2.465-1.164,4.809c-1.357,3.491-2.52,5.236-2.52,5.236v0.047h-1.79
	c1.648-2.423,3.396-6.594,3.977-10.181v-0.097H141.171z"/>
<path class="st11" d="M156.772,72.885c3.101-3.103,12.605-14.049,12.605-14.049l0.058-0.004c0.025,0.332,0.018,0.69-0.015,1.08
	c-0.232,1.084-0.887,2.363-2.131,3.81c-0.472,0.548-0.923,1.067-1.353,1.562c-1.579,1.815-2.879,3.268-3.972,4.461
	c-2.074,2.265-3.4,3.587-4.475,4.659c-0.163,0.161-0.319,0.317-0.472,0.47c-1.826,1.828-3.008,2.825-4.815,3.348
	c-0.86,0.251-1.865,0.394-3.148,0.466c-0.723,0.041-1.532,0.06-2.457,0.062c-0.111,0.002-0.222,0.002-0.336,0.002h-15.815
	c0,0,0.624-0.581,1.11-1.601c0.086-0.179,0.169-0.375,0.243-0.581l0.261,0.097h17.638C151.927,76.666,153.671,75.989,156.772,72.885
	z"/>
<path class="st11" d="M163.846,55.333c-0.647,0.589-1.343,1.467-1.944,2.302l-0.426-0.216c0,0,0.77-1.113,1.149-2.833l0.059-0.027
	c0.909-1.455,1.901-1.374,2.023-1.36c0.412,0.352,0.889,0.732,1.454,1.166C166.025,54.369,164.849,54.422,163.846,55.333z"/>
<path class="st11" d="M161.243,77.734c-1.147,2.615-2.36,5.232-3.318,7.261h-0.006c0.179-0.392,0.251-0.738,0.251-0.738
	l-2.432-0.542c0.126-0.136,0.659-0.876,2.294-4.721c1.938-4.558,3.973-9.213,3.973-9.213l-0.041-0.037
	c1.093-1.193,2.393-2.646,3.972-4.461l0.043,0.037C165.979,65.321,163.665,72.207,161.243,77.734z"/>
<path class="st11" d="M157.256,63.479l0.124,0.111c-0.843,0.94-1.677,1.877-2.451,2.751l-0.288-0.146l-2.327-1.552l-0.097-0.047
	c0.506-1.043,0.999-2.034,1.472-2.971l0.369,0.012L157.256,63.479z"/>
<path class="st11" d="M162.101,49.807l-1.911,0.861c0.042-0.045,0.083-0.091,0.122-0.134c-0.019-0.88,0.016-1.671,0.097-2.388
	l0.129,0.014c0.97,0.155,1.222,0.721,1.633,1.616L162.101,49.807z"/>
<path class="st3" d="M152.956,34.033c0.808,0.449,1.022,1.346,0.985,1.817c-0.048,0.62-0.326,2.469-5.002,2.112
	c-1.24-0.095-2.782-0.2-4.14-0.288c-1.812-0.118-3.294-0.208-3.294-0.208s-2.768-0.004-2.649-1.587
	c0.089-1.187,2.239-2.065,4.778-2.887c0.805-0.262,1.654-0.517,2.486-0.775c1.855-0.575,3.642-1.162,4.763-1.848
	c0.006-0.004,0.01-0.006,0.016-0.01c-0.136,1.02,0.202,1.887,0.88,2.565c0.345,0.348,0.78,0.647,1.287,0.89L152.956,34.033z"/>
<path class="st11" d="M162.515,50.493c0.054,0.161,0.233,0.76,0.295,1.628l-0.222,0.012l-4.943,2.232l-0.012-0.006
	c0.997-1.653,1.849-2.887,2.557-3.691l1.912-0.861l0.07-0.031c0.098,0.218,0.21,0.457,0.343,0.715V50.493z"/>
<path class="st11" d="M146.513,58.923l0.037,0.01c-0.391,1.335-0.709,2.798-0.952,4.377l-0.164-0.025l-3.295,1.067h-0.085
	c-0.022-1.616,0.039-2.473,0.039-2.473l3.044-1.41l-2.267-1.597c0,0,0.3-0.767,0.931-1.776l0.276,0.078L146.513,58.923z"/>
<path class="st12" d="M155.662,57.837c-0.076,0.144-0.156,0.291-0.237,0.441l-0.152-0.083l-1.693,0.639c0,0,0.266-0.87,0.342-2.094
	c0.06-0.923,0.008-2.046-0.348-3.149l-0.231-0.008c2.177-0.412,6.969-3.05,6.969-3.05c-0.039,0.043-0.08,0.089-0.122,0.134
	c-0.708,0.804-1.56,2.038-2.557,3.691C157.029,55.364,156.37,56.524,155.662,57.837z"/>
<path class="st7" d="M152.091,23.14l-2.487,0.775l2.181,1.018c-0.34,1.164-1.635,1.56-2.375,1.504l-0.01,0.031
	c-1.678-0.54-2.817-1.704-2.72-2.963c0.096-1.286,1.451-2.279,3.251-2.535v0.01C151.379,20.925,151.923,22.042,152.091,23.14z"/>
<path class="st7" d="M151.799,32.901l-0.021,0.023c-0.677-0.678-1.015-1.545-0.879-2.565c-0.006,0.004-0.01,0.006-0.017,0.01
	c0.439-1.935,1.493-2.524,2.943-2.467v-0.01c0.305,0.012,0.606,0.021,0.9,0.031v0.01c0.029,0,0.241,0.008,0.56,0.014v0.13
	c0.511,0.433,0.867,1.041,0.978,1.725l-2.308,0.849l1.713,1.686c-0.57,0.6-1.316,1.131-2.527,1.034
	C152.293,33.303,151.887,32.98,151.799,32.901z"/>
<path class="st15" d="M131.867,72.498h17.442c2.327,0,3.657-1.004,4.942-2.425c4.652-5.139,12.451-14.059,12.451-14.059"/>
<path class="st15" d="M132.448,74.437h16.861c2.715,0,3.878-0.777,6.106-2.813c2.231-2.036,13.18-14.643,13.18-14.643"/>
<path class="st15" d="M132.061,76.666h17.638c2.228,0,3.972-0.678,7.073-3.781c3.102-3.103,12.605-14.049,12.605-14.049"/>
<path class="st15" d="M165.979,65.321c0,0-2.314,6.886-4.736,12.413c-1.147,2.615-2.36,5.232-3.318,7.261
	c-1.066,2.26-1.82,3.794-1.82,3.794"/>
<path class="st15" d="M162.005,69.782c0,0-2.035,4.655-3.972,9.213c-1.636,3.845-2.169,4.585-2.294,4.721
	c-0.023,0.027-0.033,0.031-0.033,0.031"/>
<path class="st16" d="M154.937,85.795l-1.351,3.046"/>
<path class="st15" d="M157.491,74.397l-0.002,0.006l-3.824,8.566"/>
<path class="st16" d="M152.703,85.251l-1.728,3.596"/>
<path class="st16" d="M148.508,89.079l0.023-0.049l1.936-4.3l0.006-0.015"/>
<path class="st15" d="M149.076,79.092c-0.29,2.52-2.131,7.756-3.585,9.697"/>
<path class="st15" d="M146.597,78.898c-0.288,2.504-2.204,7.686-3.845,10.132c-0.01,0.016-0.022,0.033-0.033,0.049"/>
<path class="st15" d="M152.668,78.412c-0.354,1.552-1.454,4.074-1.454,4.074"/>
<path class="st15" d="M143.592,78.898c0,0-0.29,2.23-1.55,5.43c-1.133,2.872-2.029,4.418-2.2,4.702
	c-0.018,0.033-0.029,0.049-0.029,0.049"/>
<path class="st15" d="M141.171,78.937c0,0-0.253,2.465-1.164,4.809c-1.357,3.491-2.52,5.236-2.52,5.236"/>
<path class="st15" d="M155.415,57.952l0.247-0.115l6.963-3.252l0.059-0.027c0.909-1.455,1.901-1.374,2.023-1.36
	c0.008,0.002,0.012,0.002,0.012,0.002"/>
<path class="st15" d="M157.646,54.364l4.942-2.232"/>
<path class="st15" d="M160.164,50.68l0.027-0.012l1.911-0.861"/>
<path class="st15" d="M144.077,57.175l2.436,1.747"/>
<path class="st15" d="M145.337,54.849l0.136,0.101l1.705,1.257"/>
<path class="st15" d="M154.058,61.636l3.198,1.842"/>
<path class="st15" d="M152.314,64.643l2.327,1.552"/>
<path class="st15" d="M150.957,67.456l1.55,1.259"/>
<path class="st15" d="M142.139,64.353l3.295-1.067"/>
<path class="st15" d="M142.429,67.262l2.791-0.758l0.065-0.019"/>
<path class="st15" d="M142.719,69.782l2.134-0.651"/>
<path class="st15" d="M160.357,59.988c0,0,0.67-1.131,1.545-2.353c0.601-0.834,1.297-1.712,1.944-2.302
	c1.003-0.911,2.179-0.964,2.315-0.968h0.012"/>
<path class="st15" d="M141.655,70.655c0,0-2.097-7.418,1.118-13.742c0.062-0.124,0.125-0.247,0.193-0.371"/>
<path class="st10" d="M144.789,37.82c0,0-0.356,4.783-0.414,5.541c-0.056,0.756-0.455,7.018,4.498,7.396
	c0.799,0.062,1.655-0.025,2.46-0.227c1.207-0.303,2.299-0.868,2.906-1.597"/>
<path class="st10" d="M161.432,28.321c0,0-0.529-0.317-1.497-0.321c-0.409-0.002-2.601-0.004-5.21-0.076
	c-0.294-0.01-0.595-0.018-0.9-0.031c-3.142-0.107-6.645-0.328-8.307-0.781c-0.062-0.017-0.119-0.033-0.175-0.049
	c-0.047-0.014-0.095-0.031-0.138-0.045c0,0-0.261-0.031-0.642,0c-0.954,0.072-2.651,0.521-2.822,2.784
	c-0.241,3.167,1.878,3.146,1.878,3.146"/>
<path class="st10" d="M154.725,27.934c0.029,0,0.241,0.008,0.561,0.014c1.161,0.029,3.721,0.089,3.822,0.107
	c1.402,0.243,2.666,1.243,2.512,3.258c-0.167,2.203-2.409,3.484-5.575,3.245c-1.13-0.087-2.15-0.34-2.979-0.744
	c-0.507-0.243-0.942-0.542-1.287-0.89c-0.678-0.678-1.016-1.545-0.88-2.565c-0.006,0.004-0.01,0.006-0.016,0.01
	c-1.121,0.686-2.908,1.273-4.763,1.848c-0.832,0.257-1.681,0.513-2.486,0.775c-2.539,0.822-4.689,1.7-4.778,2.887
	c-0.119,1.583,2.649,1.587,2.649,1.587s1.482,0.091,3.294,0.208c1.358,0.089,2.9,0.194,4.14,0.289
	c4.676,0.356,4.954-1.492,5.002-2.112c0.037-0.472-0.177-1.368-0.985-1.817c-0.251-0.14-0.558-0.237-0.932-0.266
	c-1.582-0.122-2.004,0.886-2.004,0.886"/>
<path class="st10" d="M149.931,20.971c-1.8,0.256-3.155,1.249-3.251,2.535c-0.097,1.259,1.042,2.423,2.72,2.963
	c0.474,0.155,0.99,0.257,1.534,0.299c2.473,0.188,4.578-0.968,4.699-2.58c0.124-1.613-1.781-3.074-4.254-3.262
	c-0.503-0.037-0.991-0.021-1.448,0.043V20.971z"/>
<path class="st10" d="M154.711,22.121c0.041-0.076,0.7-1.3,1.283-1.519"/>
<path class="st10" d="M155.994,20.602l-1.283,1.519l-0.003,0.004"/>
<path class="st10" d="M153.043,20.985c0,0-0.093-1.133,0.585-1.486"/>
<path class="st10" d="M150.668,20.602c0,0,0.052-0.859,0.18-1.311c0.012-0.047,0.026-0.089,0.041-0.124"/>
<path class="st10" d="M150.848,19.292l-0.18,1.31"/>
<path class="st10" d="M148.352,21.169c0,0-0.068-0.816-0.484-1.321"/>
<path class="st10" d="M147.868,19.848l0.484,1.321"/>
<path class="st10" d="M149.933,20.981c1.446-0.056,1.99,1.061,2.158,2.159l-2.487,0.775l2.181,1.018
	c-0.34,1.164-1.636,1.56-2.375,1.504"/>
<path class="st10" d="M150.862,30.458c0.006-0.029,0.012-0.06,0.02-0.089c0.439-1.935,1.493-2.524,2.943-2.466
	c0.064,0.002,0.126,0.004,0.192,0.01"/>
<path class="st10" d="M166.358,45.465c0.033,0.105,1.147,3.439,2.482,3.808c0.045,0.062-5.563,2.471-7.844-3.723"/>
<path class="st10" d="M144.558,26.961c-0.327-3.785-3.179-3.429-3.179-8.224c0-3.248,3.746-4.56,3.746-4.56
	c0.204-4.255,1.19-8.815,8.507-8.815c6.684,0,7.796,6.182,11.95,8.106c4.152,1.925,8.608,1.824,9.619,5.168
	c1.005,3.318-0.202,5.37-0.809,6.182c-1.363,1.817-1.944,2.864-2.037,5.228c-0.2,5.139,3.501,14.23-4.417,12.809
	c0,0,0.016,3.412,2.08,3.569c0,0-2.144,0.929-3.66-0.958h-0.002"/>
<path class="st10" d="M146.745,16c-2.734,4.459-0.42,7.898-1.167,10.888"/>
<path class="st10" d="M167.816,37.515c-1.108,0.132-1.981,0.035-2.658-0.235c-3.588-1.416-1.788-7.581-1.158-9.646
	c1.061-3.476,0.431-5.868-0.49-7.354c-1.26-2.038-3.004-2.813-7.244-2.353c-3.149,0.342-6.078,0.81-9.42-2.028"/>
<path class="st10" d="M170.889,27.052c-1.761-0.55-3.266-1.867-4.045-3.54"/>
<path class="st10" d="M170.226,31.855c-1.986-0.4-3.528-1.989-4.593-3.711"/>
<path class="st10" d="M169.964,35.481c-1.983-0.441-3.746-1.782-4.699-3.577"/>
<path class="st10" d="M151.358,50.631c0,0-0.331,0.406-0.329,0.868c0,0.175,0.051,0.363,0.187,0.534
	c0.266,0.336,0.391,0.88,0.727,1.238c0.202,0.216,0.48,0.367,0.908,0.367c0.142,0,0.307-0.019,0.492-0.054
	c2.177-0.412,6.969-3.05,6.969-3.05c-0.018-0.88,0.017-1.671,0.097-2.388c0.107-0.993,0.299-1.848,0.548-2.609
	c1.069-3.301,3.194-4.849,4.201-8.257c0.002-0.004,0.002-0.008,0.004-0.012"/>
<path class="st10" d="M155.283,28.078c0.513,0.433,0.869,1.041,0.98,1.725l-2.308,0.849l1.713,1.686
	c-0.57,0.6-1.316,1.131-2.527,1.034c-0.848-0.068-1.254-0.391-1.342-0.47l-0.019-0.019"/>
<path class="st10" d="M145.213,27.058c0.041,0.012,0.08,0.025,0.119,0.037c1.588,0.523,1.827,2.009,1.827,2.009l-2.374,1.067
	l2.18,1.065c0,0-0.172,0.437-0.85,0.971"/>
<path class="st10" d="M149.379,13.771c2.733-3.546,7.696-4.053,7.696-4.053"/>
<path class="st10" d="M153.125,16.001c2.228-3.241,7.696-3.647,7.696-3.647"/>
<path class="st10" d="M159.81,15.799c1.114-1.216,3.138-1.216,3.138-1.216"/>
<path class="st10" d="M164.669,19.143c3.849-1.622,7.089,0.202,8.203,1.723"/>
<path class="st10" d="M147.05,41.132c0.031,0,0.064,0.002,0.095,0.002c1.003,0.027,1.876,0.029,2.681-0.012
	c0.704-0.037,1.359-0.107,2.004-0.225c1.184-0.214,2.337-0.583,3.725-1.185 M155.555,39.712c-0.661,2.65-1.392,4.69-3.126,5.347
	c-0.389,0.148-0.828,0.227-1.328,0.227c-0.474,0-0.89-0.064-1.256-0.179c-1.751-0.552-2.377-2.283-2.795-3.874
	c0,0-0.659,6.029,4.353,6.029C156.416,47.262,155.555,39.712,155.555,39.712z M155.555,39.712c0,0-0.404-1.063-2.076-1.012
	c-1.67,0.049-2.277,1.113-2.277,1.113s-0.406-0.404-1.318-0.404c-1.421,0-2.025,0.709-2.733,1.519"/>
<path class="st10" d="M149.834,41.284l0.05,3.697"/>
<path class="st10" d="M152.264,40.928l0.101,3.952"/>
<path class="st10" d="M162.516,50.493c0.171,0.336,0.383,0.701,0.659,1.096c0.385,0.548,0.871,1.043,1.532,1.609
	c0.412,0.352,0.89,0.731,1.454,1.166c0.29,0.225,0.603,0.464,0.941,0.721c1.023,0.781,1.678,1.5,2.03,2.359
	c0.171,0.42,0.27,0.874,0.303,1.387c0.025,0.332,0.019,0.69-0.014,1.08c-0.089,1.14-0.396,2.549-0.871,4.391
	c-0.775,3.006-4.943,15.419-10.175,24.533"/>
<path class="st10" d="M160.539,48.16c0.97,0.155,1.221,0.721,1.633,1.616c0.098,0.218,0.21,0.457,0.344,0.715"/>
<path class="st10" d="M160.312,50.534c-0.039,0.043-0.08,0.089-0.121,0.134c-0.709,0.804-1.561,2.038-2.558,3.691
	c-0.603,1.006-1.262,2.166-1.971,3.478c-0.076,0.144-0.156,0.291-0.236,0.441c-0.548,1.026-1.129,2.143-1.736,3.346
	c-0.474,0.938-0.966,1.929-1.473,2.971c-0.441,0.898-0.892,1.838-1.355,2.815c-0.216,0.453-0.434,0.915-0.657,1.387
	c-0.276,0.589-0.558,1.193-0.844,1.809"/>
<path class="st10" d="M150.815,51.504c-0.196,0.165-0.388,0.34-0.573,0.528c-0.84,0.837-1.577,1.881-2.214,3.118
	c-0.177,0.34-0.346,0.696-0.506,1.065c-0.365,0.837-0.688,1.743-0.972,2.718c-0.392,1.335-0.709,2.798-0.952,4.377
	c-0.158,1.018-0.284,2.083-0.379,3.194c-0.049,0.546-0.088,1.104-0.119,1.673c-0.019,0.317-0.035,0.639-0.049,0.962
	c-0.019,0.472-0.033,0.95-0.044,1.434"/>
<path class="st10" d="M146.257,54.22c-1.112,0.528-2.133,1.074-2.807,1.84c-0.243,0.276-0.469,0.561-0.677,0.853
	c-2.226,3.087-2.605,7.004-2.467,12.432c0.01,0.441,0.025,0.89,0.043,1.352"/>
<path class="st10" d="M150.814,51.504c-0.179,0.188-0.37,0.363-0.572,0.528c-1.149,0.94-2.632,1.55-3.981,2.186"/>
<path class="st10" d="M131.504,71.554c-0.234-0.519-0.449-0.754-0.449-0.754h16.951c0.514,0,0.967-0.029,1.369-0.084
	c1.65-0.225,2.447-0.888,3.291-1.815c0.109-0.119,0.218-0.243,0.331-0.371c0.567-0.643,1.224-1.389,1.932-2.188
	c0.774-0.874,1.608-1.811,2.451-2.751c0.636-0.705,1.272-1.412,1.894-2.091c0.439-0.484,0.869-0.954,1.283-1.401
	c1.3-1.405,2.432-2.592,3.147-3.26c0.846-0.791,1.977-1.086,3.017-0.946c0.768,0.103,1.486,0.445,2.003,0.997
	c0.157,0.167,0.293,0.352,0.408,0.556c0.363,0.645,0.503,1.473,0.288,2.466c-0.232,1.084-0.887,2.363-2.131,3.81
	c-0.472,0.548-0.923,1.067-1.353,1.562c-1.579,1.815-2.879,3.268-3.972,4.461c-2.074,2.265-3.4,3.588-4.475,4.659
	c-0.163,0.161-0.319,0.317-0.472,0.47c-1.826,1.828-3.008,2.825-4.815,3.349c-0.86,0.251-1.865,0.394-3.148,0.466
	c-0.723,0.041-1.532,0.06-2.457,0.062c-0.111,0.002-0.222,0.002-0.336,0.002h-15.815c0,0,0.624-0.581,1.11-1.601
	c0.086-0.179,0.169-0.375,0.243-0.581c0.21-0.596,0.35-1.296,0.321-2.085c0-0.01,0-0.021,0-0.031c-0.029-0.785-0.14-1.43-0.28-1.947
	c-0.101-0.387-0.22-0.703-0.334-0.952H131.504z"/>
<path class="st10" d="M148.103,55.189l0.574,3.149c0,0,0.155-1.004,0.908-2.322c0.453-0.793,1.123-1.698,2.103-2.572"/>
<path class="st10" d="M153.574,53.592c0.356,1.102,0.408,2.225,0.348,3.149c-0.076,1.224-0.342,2.094-0.342,2.094l1.693-0.639"/>
<path class="st10" d="M149.653,56.061l0.149,2.716l2.292,0.107l0.039,0.002l1.783-2.145"/>
<path class="st10" d="M149.802,58.776l-4.607,9.406"/>
<path class="st10" d="M152.087,59.021l-1.95,9.742"/>
<path class="st10" d="M139.674,78.849c-0.581,3.587-2.329,7.758-3.977,10.181h22.673"/>
<path class="st10" d="M145.304,78.849c-0.581,3.585-2.296,7.272-3.833,10.181c0,0,0,0.004-0.004,0.006"/>
<path class="st10" d="M162.501,50.45c0,0,0.004,0.014,0.015,0.041c0.053,0.163,0.232,0.762,0.294,1.63
	c0.037,0.505,0.033,1.1-0.058,1.756c-0.033,0.247-0.076,0.484-0.127,0.709c-0.379,1.721-1.149,2.833-1.149,2.833l-4.943,2.91
	l2.519,0.968"/>
<path class="st10" d="M146.262,54.218c0,0-0.003,0.002-0.005,0.002c-0.28,0.235-0.541,0.48-0.784,0.729
	c-0.705,0.723-1.261,1.486-1.672,2.147c-0.631,1.01-0.931,1.776-0.931,1.776l2.267,1.597l-3.044,1.409c0,0-0.061,0.857-0.039,2.475
	c0.006,0.416,0.019,0.886,0.039,1.403c0.021,0.525,0.068,1.041,0.13,1.531c0.128,1.004,0.319,1.894,0.468,2.502
	c0.127,0.521,0.224,0.835,0.224,0.835"/>
<path class="st10" d="M131.346,71.577h-1.172h-3.005"/>
<path class="st10" d="M127.182,77.2c0.387,0,4.37-0.052,4.37-0.052"/>
<path class="st10" d="M116.607,68.785c0,0,0.577-2.685,3.244-3.072c2.224-0.324,3.494,0.408,5,2.287
	c0.516,0.647,0.98,1.333,1.373,2.036c0.29,0.517,0.546,1.045,0.76,1.572c0.585,1.447,0.869,2.908,0.766,4.235
	c-0.045,0.567-0.286,1.006-0.644,1.315c-0.975,0.832-2.803,0.697-3.876-0.538c-1.536-1.768-1.39-3.977-1.39-3.977
	s-0.482-1.187-2.375-0.581c-1.21,0.387-1.503,1.261-1.841,1.698c-0.809,1.041-2.568,0-1.213-1.795
	c0.083-0.109,0.211-0.319,0.406-0.569c0.49-0.633,1.407-1.519,3.085-1.661c1.695-0.146,2.519,0.678,2.519,0.678"/>
<path class="st10" d="M116.801,71.383c-0.63,0.872-1.93,0.497-1.156-1.055c0.293-0.583,0.647-1.059,1.051-1.447
	c0.669-0.643,1.474-1.032,2.341-1.22c2.908-0.63,3.964,0.956,3.964,0.956"/>
<path class="st10" d="M140.298,69.345l-11.088,0.058c0,0,0.239,0.2,0.478,0.573c0.231,0.352,0.461,0.863,0.486,1.504"/>
<path class="st10" d="M126.274,70.006h3.365"/>
<path class="st10" d="M150.467,84.729c-0.225-0.051-0.41-0.093-0.54-0.122c-1.042-0.231-1.26-1.273-0.912-2.388l2.152,0.478
	l2.438,0.544l2.134,0.474l2.432,0.542c0,0-0.072,0.346-0.252,0.736c-0.261,0.567-0.755,1.226-1.598,1.038
	c-0.236-0.054-0.739-0.165-1.367-0.303c-0.665-0.148-1.47-0.328-2.247-0.501C151.853,85.039,151.033,84.855,150.467,84.729z"/>
</svg>
