<svg xmlns="http://www.w3.org/2000/svg" xmlns:xlink="http://www.w3.org/1999/xlink" xml:space="preserve" id="Layer_1" x="0" y="0" viewBox="0 0 174 156"><style>.st1{fill:#00b268}.st2{fill:#5be3aa}.st3{fill:#ff7101}.st4{fill:#e4bc07}.st5{fill:#002140}.st6{fill:#d18000}.st7{fill:#b0d9ff}.st8{fill:#5ab0ff}.st9{fill:#fffaf0}.st10{fill:none;stroke:#002140;stroke-linecap:round;stroke-linejoin:round}</style><defs><path id="SVGID_1_" d="M0 0h174v156H0z"/></defs><clipPath id="SVGID_00000011014307313179311000000007546104950574649233_"><use xlink:href="#SVGID_1_" style="overflow:visible"/></clipPath><g style="clip-path:url(#SVGID_00000011014307313179311000000007546104950574649233_)"><path d="M170.907 68.379c1.027.433 1.821 1.432 1.875 2.539.057 1.146-.778 2.312-1.914 2.515l-.063.087c.656.715 1.144 1.62 1.195 2.587.048.968-.402 1.987-1.248 2.468-.27.154-.599.251-.896.152l-.026.015c.325.602.539 1.276.53 1.963-.009.724-.283 1.458-.822 1.943s-1.352.687-2.03.42l-.035.024c.41.929.476 2.052-.026 2.936-.501.884-1.648 1.419-2.601 1.057l-.072.026c.295.877.087 1.911-.538 2.595-.685.752-1.834 1.044-2.8.715l-.059-.009a2.93 2.93 0 0 0-.697-2.37l.102-.074c1.097.208 2.3-.379 2.802-1.371.499-.983.266-2.279-.541-3.031l.028-.03c1.147-.217 2.115-1.178 2.329-2.32.211-1.133-.331-2.366-1.31-2.981l.059-.087c1.175-.087 2.097-1.267 2.064-2.439-.032-1.174-.881-2.231-1.958-2.712v-.072c.794-.505 1.394-1.322 1.579-2.238.187-.916-.059-1.922-.687-2.617-.619-.683-1.605-1.033-2.509-.847l-.016-.08c.55-.825.968-1.757 1.058-2.74.089-.986-.186-2.028-.87-2.745s-1.805-1.042-2.725-.669l-.031-.054c.443-.685.619-1.545.43-2.336-.19-.791-.761-1.495-1.522-1.796-.761-.299-1.692-.162-2.298.381l-.042-.009c.177-.893.334-1.874-.135-2.656a1.92 1.92 0 0 0-1.727-.903 1.91 1.91 0 0 0-1.558 1.023l-.033-.015c.166-.806.024-1.681-.436-2.364-.462-.68-1.254-1.148-2.082-1.161-.827-.015-1.659.451-2.026 1.187l-.03-.004c.161-.877-.201-1.822-.879-2.409-.693-.602-1.683-.832-2.588-.654-.902.18-1.711.743-2.239 1.495l.011-.017-.126-.076c-.29-1.04-1.352-1.776-2.438-1.815-1.051-.037-2.073.518-2.721 1.341a.1.1 0 0 0-.022-.037c-.543-.927-1.644-1.495-2.727-1.467-1.132.032-2.209.676-2.839 1.61l-.135.022c-.177-1.053-1.334-1.774-2.409-1.685-1.097.093-2.045.862-2.614 1.796l-.011.007c-.606-1.044-1.927-1.56-3.133-1.397-1.188.16-2.244.899-2.978 1.839a3.02 3.02 0 0 0-1.779-2.312 3.05 3.05 0 0 0-2.944.344l-.078-.043a3.25 3.25 0 0 0 .338-2.515 3.26 3.26 0 0 0-1.583-1.969l.048-.084a2.6 2.6 0 0 0 1.838-1.12 2.6 2.6 0 0 0 .336-2.117v-.007a3.94 3.94 0 0 0 3.202.295 3.9 3.9 0 0 0 1.701-1.192l.022.02a2.94 2.94 0 0 1 1.264 1.794c.157.68.055 1.415-.281 2.028l.037.02c-.048.084.087.191.159.126.053-.05.011-.141-.048-.167.933-.351 1.989-.49 2.909-.115.955.392 1.67 1.462 1.397 2.452h.052a.04.04 0 0 0 .035-.015c.654-1.014 1.753-1.761 2.959-1.889 1.182-.124 2.435.394 3.1 1.367l-.013.1.033-.074c.626-1.337 2.287-2.112 3.719-1.718.247.067.487.165.691.314.389.282.624.717.849 1.14h.152c0 .022.013.048.039.05.053.002.085-.054.107-.1.497-1.033 1.646-1.72 2.798-1.673 1.131.048 2.204.802 2.625 1.846l.043-.02c.443-1.016 1.559-1.699 2.669-1.633 1.112.063 2.139.871 2.459 1.928l.068.039-.02.033c.804-1.077 2.235-1.714 3.549-1.417 1.302.292 2.349 1.586 2.209 2.901h.011c.377-.685 1.164-1.113 1.951-1.105s1.546.438 1.997 1.079c.449.641.593 1.475.43 2.238l.139.08c.787-.698 2.078-.929 2.896-.264.427.347.665.89.719 1.436a3.3 3.3 0 0 1-.133 1.243l.039.011a3.5 3.5 0 0 1 1.67-.251c.447.043.892.178 1.261.436.612.429.955 1.172 1.018 1.915.061.722-.116 1.447-.386 2.121l.096.037a2.47 2.47 0 0 1 2.285.492c.898.782 1.09 2.119.902 3.293a6.7 6.7 0 0 1-.756 2.184l.026.089-.087.059c1.349-.041 2.592 1.066 2.843 2.383.246 1.283-.377 2.652-1.422 3.451M120.389 4.35c-.118-.94.488-1.928 1.389-2.244.927-.325 2.058.1 2.54.951l.046.017c.331-1.02 1.356-1.776 2.435-1.796 1.077-.02 2.13.7 2.499 1.707l.01.004c.406-.962 1.354-1.696 2.403-1.802 1.19-.121 2.414.576 2.926 1.646l.026-.011c.249-1.094 1.225-1.989 2.344-2.147s2.304.431 2.852 1.413l.054.041a3.15 3.15 0 0 1 1.317-1.042c.506-.212 1.09-.284 1.607-.104.752.26 1.253 1.042 1.286 1.833.028.708-.281 1.402-.761 1.928 1.156.13 1.999 1.332 1.96 2.491-.039 1.163-.798 2.21-1.759 2.875l.022.03a1.87 1.87 0 0 1 1.681 1.042 1.85 1.85 0 0 1-.269 1.95 1.5 1.5 0 0 1-.157.16l.153.043a2.26 2.26 0 0 1 1.908-.149c.597.23 1.083.726 1.297 1.326.044-.334.159-.656.327-.951.525-.921 1.594-1.51 2.658-1.464a2.99 2.99 0 0 1 2.505 1.638c.554-1.077 1.502-2.026 2.695-2.26 1.199-.234 2.603.474 2.845 1.664l.094.069c.501-.706 1.29-1.213 2.151-1.339 1.18-.171 2.436.381 3.101 1.363l.039.152c.804-.373 1.866-.208 2.466.457.726.808.641 2.201-.179 2.916a2 2 0 0 1-.355.245l.148.013c.979.557 1.576 1.714 1.463 2.829-.116 1.116-.936 2.13-2.008 2.478l.004.035c.794-.106 1.62.318 2.037.999.42.687.427 1.59.067 2.309-.338.669-.968 1.174-1.685 1.406.937.312 1.703 1.135 1.857 2.104.16.99-.381 2.073-1.303 2.474-.286.126-.613.186-.914.102l-.063.076c.9.715 1.182 2.095.63 3.1-.556 1.014-1.89 1.527-2.987 1.15l-.059.076a3.68 3.68 0 0 1-1.131 2.413 3.7 3.7 0 0 1-2.449 1.005 2 2 0 0 0 .155-.368c.325-1.033-.081-2.244-.948-2.89l.019-.026c.768.225 1.646-.158 2.078-.83.432-.669.436-1.564.1-2.286-.336-.721-.981-1.276-1.709-1.603l-.011-.048c1.136-.267 1.984-1.452 1.849-2.606-.14-1.178-1.28-2.153-2.473-2.112.543-.331 1.073-.698 1.483-1.181s.693-1.101.667-1.733c-.043-1.016-.992-1.906-2.012-1.906l-.05-.126c.737-.262 1.319-.938 1.43-1.707.12-.828-.325-1.712-1.073-2.093a2.01 2.01 0 0 0-2.163.266l-.091-.16c-.366-1.055-1.637-1.625-2.745-1.425-.828.147-1.552.646-2.102 1.291l-.074-.065a6.3 6.3 0 0 0-.724-.825c-.333-.318-.708-.607-1.144-.754-.7-.238-1.496-.085-2.126.299s-1.108.977-1.461 1.623l-.067.039c-.567-1.068-1.845-1.731-3.053-1.556-1.266.184-2.339 1.282-2.496 2.543h-.018c-.165-.721-.826-1.265-1.548-1.436-.706-.169-1.454-.028-2.125.247.39-.312.673-.754.748-1.248.141-.934-.561-1.941-1.505-2.049l-.078-.106c.9-.641 1.548-1.696 1.491-2.797-.057-1.122-.977-2.201-2.106-2.247l-.009-.058c.835-.457 1.278-1.517 1.031-2.433s-1.151-1.61-2.106-1.631c-.924-.024-1.827.576-2.182 1.426l-.151-.063c-.414-.47-.852-.96-1.441-1.185-.719-.277-1.567-.095-2.195.349-.624.44-1.055 1.107-1.334 1.815-.077-.23-.153-.461-.266-.676-.522-1.005-1.79-1.536-2.894-1.27-1.072.258-1.918 1.213-2.119 2.29h-.011c-.333-.602-.682-1.213-1.192-1.677s-1.221-.767-1.897-.626c-.933.193-1.509 1.133-1.722 2.065-.33-.507-.796-.942-1.37-1.142a2 2 0 0 0-.405-.093l.013-.091c.1-.945.691-1.824 1.528-2.281a3.04 3.04 0 0 1 2.756-.054z" class="st1"/><path d="M96.138 34.396v-.004c-.486-1.062-.423-2.379.242-3.341.667-.964 1.942-1.497 3.083-1.213l.037-.011a2.3 2.3 0 0 1 .192-1.891c.41-.7 1.175-1.163 1.982-1.278.746-.106 1.515.071 2.171.438l.022-.039a3.07 3.07 0 0 1 1.611-2.684q.276-.143.574-.225c.859-.238 1.829-.095 2.566.412h.089c-.067-.873.009-1.865.681-2.431a1 1 0 0 1 .089-.067c.329-.24.75-.34 1.164-.316.22.013.438.061.641.141.622.245 1.108.758 1.43 1.339l.112-.061a2.38 2.38 0 0 1 .56-2.301 2.41 2.41 0 0 1 2.294-.635l.028-.089a3.1 3.1 0 0 1-1.197-.661 3 3 0 0 1-.75-1.012c-.148-.327-.235-.691-.181-1.044.081-.505.449-.929.892-1.192.379-.223.806-.342 1.24-.427l-.017-.084c-1.005-.267-1.773-1.246-1.788-2.281-.015-1.01.689-1.989 1.651-2.307l-.057-.165c-1.04-.472-1.657-1.722-1.396-2.829.085-.362.258-.711.535-.962.364-.327.878-.451 1.369-.388.137.015.275.048.405.093.574.199 1.04.635 1.37 1.142.213-.932.789-1.872 1.722-2.065.676-.141 1.387.162 1.897.626s.859 1.075 1.192 1.675h.011c.201-1.075 1.047-2.03 2.119-2.288 1.104-.266 2.372.264 2.894 1.27.113.214.189.446.266.676.279-.708.71-1.376 1.334-1.815.628-.444 1.476-.626 2.195-.349.589.225 1.027.715 1.441 1.185l.151.063c.355-.849 1.258-1.449 2.182-1.426.955.022 1.858.715 2.106 1.631s-.196 1.976-1.031 2.433l.009.058c1.129.045 2.049 1.124 2.106 2.247.057 1.101-.591 2.156-1.491 2.797l.078.106c.944.108 1.646 1.116 1.505 2.049-.075.494-.358.936-.748 1.248.671-.275 1.419-.416 2.125-.247.722.171 1.383.715 1.548 1.434h.018c.157-1.259 1.23-2.357 2.496-2.541 1.208-.176 2.486.487 3.053 1.556l.067-.039c.353-.646.831-1.239 1.461-1.623s1.426-.537 2.126-.299c.436.147.811.435 1.144.754.264.253.508.531.724.825l.074.065c.55-.646 1.273-1.144 2.102-1.291 1.108-.199 2.379.371 2.745 1.425l.091.16a2 2 0 0 1 2.163-.266c.748.381 1.193 1.265 1.073 2.093-.111.769-.693 1.445-1.43 1.707l.05.126c1.02 0 1.969.89 2.012 1.906.026.633-.257 1.25-.667 1.733s-.94.849-1.483 1.181c1.193-.041 2.333.934 2.473 2.112.135 1.155-.713 2.34-1.849 2.606l.011.048c.728.327 1.373.882 1.709 1.603s.332 1.616-.1 2.286c-.432.672-1.31 1.055-2.078.83l-.019.026c.867.646 1.273 1.857.948 2.89a2 2 0 0 1-.155.368c-.486.927-1.611 1.532-2.62 1.235-.942-.275-1.555-1.192-1.854-2.121l-.104.004c.017.728-.471 1.426-1.141 1.724-.678.301-1.497.217-2.141-.152-.636-.364-1.103-.986-1.354-1.67l-.047.017a2.34 2.34 0 0 1-1.134 1.857c-.654.379-1.518.39-2.167 0-.65-.388-1.029-1.096-1.332-1.787l-.147-.035c-.276 1.176-1.419 2.099-2.638 2.119-1.231.02-2.42-.888-2.716-2.078l-.044-.009c-.264 1.153-1.415 2.047-2.607 2.01-1.217-.037-2.331-1.042-2.488-2.242l-.063-.009c-.157 1.094-1.108 2.03-2.215 2.171-1.123.143-2.3-.55-2.715-1.597-.013-.039-.037-.082-.076-.087-.024-.002-.037.024-.037.046l-.096-.004c-.044.979-.887 1.867-1.871 1.958-.998.093-2.008-.643-2.215-1.618l-.122.004c.028.576-.373 1.133-.909 1.354-.543.223-1.188.13-1.685-.18-.495-.312-.848-.819-1.04-1.369l-.133-.039a3.7 3.7 0 0 1-.615 1.035c-.447.54-1.038.96-1.701 1.192a3.93 3.93 0 0 1-3.2-.295v.007a2.6 2.6 0 0 1-.338 2.117 2.6 2.6 0 0 1-1.838 1.12l-.048.084a3.26 3.26 0 0 1 1.583 1.969 3.25 3.25 0 0 1-.338 2.515l.078.043a3.05 3.05 0 0 1 2.944-.344 3.02 3.02 0 0 1 1.779 2.312c.734-.94 1.79-1.679 2.978-1.839 1.205-.162 2.527.353 3.133 1.397l.011-.007c.569-.934 1.517-1.703 2.614-1.796 1.075-.089 2.232.633 2.409 1.685l.135-.022c.63-.934 1.707-1.577 2.839-1.61 1.083-.028 2.184.539 2.727 1.467l-.041.117q.03-.04.063-.08c.648-.823 1.67-1.378 2.721-1.341 1.086.039 2.148.776 2.438 1.815l.126.076-.011.017c.528-.752 1.337-1.315 2.239-1.495.905-.178 1.895.052 2.588.654.678.587 1.04 1.532.879 2.409l.03.004c.367-.737 1.199-1.202 2.026-1.187.828.013 1.62.481 2.082 1.161.46.682.602 1.558.436 2.364l.033.015a1.91 1.91 0 0 1 1.558-1.023 1.92 1.92 0 0 1 1.727.903c.469.782.312 1.764.135 2.656l.042.009c.606-.544 1.537-.68 2.298-.381.761.301 1.332 1.005 1.522 1.796s.013 1.651-.43 2.336l.031.054c.92-.373 2.042-.048 2.725.669s.959 1.759.87 2.745c-.09.983-.508 1.915-1.058 2.74l.016.08c.904-.186 1.89.165 2.509.847.628.695.874 1.701.687 2.617-.185.916-.785 1.733-1.576 2.238v.072c1.074.481 1.922 1.538 1.955 2.712.033 1.172-.889 2.353-2.064 2.439l-.059.087c.979.615 1.521 1.848 1.31 2.981-.214 1.142-1.182 2.104-2.329 2.32l-.028.03c.807.752 1.04 2.047.541 3.031-.502.992-1.705 1.579-2.802 1.371l-.102.074c.569.637.83 1.538.697 2.37a2.4 2.4 0 0 1-.281.836c-.56 1.003-1.901 1.536-2.971 1.101l-.072.004c.048.778-.179 1.573-.716 2.134-.702.732-1.957.932-2.779.351a3.12 3.12 0 0 1-1.448 2.628 3.16 3.16 0 0 1-3.033.128h-.041c-.024.626-.318 1.248-.829 1.625a2 2 0 0 1-.237.147c-.792.418-1.862.282-2.499-.353.242.678.013 1.484-.514 1.978-.537.505-1.335.691-2.058.546-.611-.124-1.163-.468-1.581-.927l-.015.013c.377.407.58.979.497 1.529-.116.754-.759 1.391-1.511 1.53l.011.052c1.02.112 1.862 1.102 1.803 2.123-.057.983-.946 1.845-1.936 1.9l-.024.117c.726.151 1.336.782 1.452 1.514.085.537-.092 1.096-.434 1.519a1.9 1.9 0 0 1-.645.515c-.742.362-1.699.215-2.312-.336l-.034.011c.209.661.274 1.476-.249 1.928-.329.282-.802.332-1.234.278-1.162-.145-2.206-.995-2.584-2.097l-.095.006a2.24 2.24 0 0 1-.358 1.012c-.423.65-1.162 1.107-1.945 1.118-1.149.019-2.232-.921-2.37-2.056h-.011a2.38 2.38 0 0 1-1.131 1.921 2.1 2.1 0 0 1-.539.23c-.586.158-1.24.082-1.755-.243-.671-.424-1.064-1.265-.926-2.045l-.04-.004c-.215.591-.495 1.179-.957 1.607-.462.429-1.14.672-1.742.481-.451-.14-.809-.513-.998-.944-.19-.433-.225-.919-.168-1.387l-.02-.01c-.643 1.098-1.707 2.058-2.978 2.131-.325.02-.665-.024-.944-.188-.541-.316-.743-1.031-.61-1.64s.536-1.125.976-1.567l.02-.062c-.816-.263-1.389-1.188-1.276-2.054.114-.865.798-1.582 1.627-1.881l-.044-.108c-.466-.578-.634-1.363-.503-2.091l-.109-.019c-1.221.44-2.728-.247-3.199-1.445h-.006c-.177.739-.872 1.289-1.625 1.408-.752.119-1.532-.147-2.134-.611-.604-.463-1.044-1.107-1.382-1.785l-.059.007c.048.4-.028.812-.212 1.172-.246.474-.702.857-1.231.942-.565.093-1.145-.158-1.566-.544-.408-.372-.687-.864-.926-1.363-.044.627-.5 1.201-1.095 1.428-.639.241-1.391.098-1.938-.31-.484-.357-.809-.901-.951-1.486l-.019.005c-.321.673-.971 1.13-1.625 1.492-.601.329-1.266.615-1.951.566-.685-.048-1.382-.529-1.463-1.207l-.024-.035c-.423.301-.881.587-1.395.609-.665.03-1.299-.42-1.568-1.025-.268-.604-.203-1.326.092-1.919.279-.568.748-1.027 1.28-1.373l-.033-.048a1.74 1.74 0 0 1-1.452-1.263c-.201-.778.174-1.592.672-2.223a6 6 0 0 1 1.247-1.181v-.041c-.719.048-1.432-.422-1.746-1.072-.338-.702-.255-1.558.094-2.255.277-.55.702-1.01 1.188-1.393l-.048-.058c-.667-.563-1.171-1.391-1.121-2.26.063-1.118.99-1.995 1.956-2.574l.096-.123a3 3 0 0 1-1.192-2.444c.009-.321.072-.646.238-.921.214-.349.584-.581.99-.667.201-.043.412-.052.617-.02.613.093 1.147.498 1.491 1.009h.083c.331-1.066 1.504-1.727 2.623-1.694 1.118.033 2.156.648 2.93 1.449l.124.033c.127-.513.559-.947 1.073-1.109.6-.193 1.275-.054 1.807.282.493.312.873.776 1.156 1.287l.028-.015c-.017-.035-.006-.091.011-.132.384-.921 1.42-1.525 2.414-1.412.996.113 1.866.936 2.032 1.917h.002c.353-1.007 1.417-1.724 2.492-1.673 1.044.054 2.008.832 2.289 1.831l.081-.022q.003.02.026.024c.059.009.098-.054.124-.106.434-.899 1.411-1.512 2.416-1.514 1.003-.002 1.984.607 2.422 1.504l.111.028a2.97 2.97 0 0 1 2.471-1.248c.87.026 1.713.472 2.239 1.161l.078-.061c.14-1.035 1.247-1.776 2.296-1.699s1.964.832 2.44 1.764l.15.069c.486-.839 1.378-1.523 2.329-1.382.691.1 1.227.594 1.687 1.14a2.49 2.49 0 0 1 1.334-2.041 2.52 2.52 0 0 1 2.527.171l.138-.017a2.3 2.3 0 0 1 .065-.99 2.38 2.38 0 0 1 1.493-1.545v-.117c-.442-.373-.752-.914-.804-1.493 0-.026-.004-.052-.004-.076-.029-.498.13-.997.42-1.402a2.2 2.2 0 0 1-1.927-.615 2.17 2.17 0 0 1-.538-2.013l-.02-.03a2.93 2.93 0 0 1-2.562.308 2.9 2.9 0 0 1-1.757-1.852l-.052.015c-.279.923-1.162 1.564-2.096 1.824-.634.178-1.323.206-1.942-.017-.619-.221-1.154-.717-1.33-1.348l-.042.013c-.292 1.068-1.327 1.891-2.441 1.939-1.11.046-2.209-.68-2.593-1.714l-.011.004c-.375 1.157-1.637 1.963-2.854 1.818-1.186-.141-2.202-1.168-2.335-2.346-.604.871-1.643 1.458-2.707 1.399-1.119-.063-2.183-.916-2.366-2.015l-.033.007c-.516.373-1.081.719-1.713.802-.742.095-1.511-.201-2.026-.741a2.77 2.77 0 0 1-.732-1.893c-.375.414-.835.75-1.363.929-.582.199-1.247.193-1.797-.08-.599-.299-1.02-.888-1.201-1.53a3.6 3.6 0 0 1-.098-1.306l-.054-.004c-.242.113-.5.195-.761.247-.872.171-1.84-.046-2.473-.665-.632-.62-.852-1.657-.42-2.431l-.016-.074c-1.024.178-2.136-.124-2.854-.869-.835-.869-1.029-2.314-.368-3.319v-.004a2.92 2.92 0 0 1-2.174-1.341 2.89 2.89 0 0 1-.033-2.914l.017-.063c-.951-.208-1.81-.836-2.257-1.701-.571-1.103-.434-2.53.333-3.507v-.004a2.5 2.5 0 0 1-.412-.301 3.54 3.54 0 0 1-1.175-2.344 3.53 3.53 0 0 1 .791-2.5l.024-.028c-.717-.598-1.147-1.538-1.079-2.47.085-1.194.981-2.286 2.139-2.611l.022-.02c-.562-.618-.757-1.573-.414-2.342.409-.922 1.543-1.461 2.528-1.208" class="st2"/><path d="M155.391 136.345c.93 5.577-1.954 11.697-8.623 14.017-1.771.617-3.805.966-6.107.966h-17.983c-2.302 0-4.336-.349-6.107-.966-6.669-2.32-9.553-8.44-8.622-14.017l.078.013c3.212-.312 5.143 2.912 5.917 4.498 1.801 4.196 9.62 4.439 11.645-.785 1.426-5.277 10.23-5.654 12.161 0 2.026 5.224 9.844 4.981 11.645.785.774-1.586 2.706-4.81 5.917-4.498z" class="st3"/><path d="m155.391 136.345-.079.013c-3.211-.312-5.143 2.912-5.917 4.498-1.801 4.196-9.619 4.439-11.645-.785-1.931-5.654-10.735-5.277-12.161 0-2.025 5.224-9.844 4.981-11.645.785-.774-1.586-2.705-4.81-5.917-4.498l-.078-.013c.704-4.218 3.593-8.124 8.681-9.833l.059-.009c.877 2.043 2.872 3.637 5.989 3.637h17.983c3.118 0 5.113-1.594 5.989-3.637l.059.009c5.089 1.709 7.977 5.615 8.682 9.833" class="st4"/><path d="M143.907 109.667a1.94 1.94 0 0 1-1.681 1.287l-.065-.047c.342-.423.519-.982.434-1.519-.116-.732-.726-1.363-1.452-1.514l.024-.117c.99-.055 1.879-.917 1.936-1.9.059-1.021-.783-2.011-1.803-2.123l-.011-.052c.752-.139 1.395-.776 1.511-1.53.083-.55-.12-1.122-.497-1.529l.015-.013c.418.459.97.803 1.581.927.723.145 1.521-.041 2.058-.546.527-.494.756-1.3.514-1.978.637.635 1.707.771 2.499.353l.006.009c.772.524 1.219 1.534.955 2.424-.261.89-1.301 1.516-2.187 1.222.604.292 1.049.825 1.298 1.447.248.622.192 1.376-.221 1.902-.412.529-1.19.771-1.803.496l-.017.007a2.29 2.29 0 0 1-.53 2.35 2.32 2.32 0 0 1-2.435.49z" class="st1"/><path d="M146.768 150.362c.397 1.878-1.053 4.437-5.42 4.437h-19.356c-4.367 0-5.817-2.559-5.42-4.437 1.77.617 3.804.966 6.106.966h17.983c2.302 0 4.336-.349 6.107-.966m-6.107-32.57c5.555 0 7.552 5.067 5.989 8.711-.876 2.043-2.871 3.637-5.989 3.637h-17.983c-3.117 0-5.112-1.594-5.989-3.637-1.563-3.644.434-8.711 5.989-8.711h6.011v3.94h-4.729c-2.625 0-2.625 3.38 0 3.38h15.419c2.625 0 2.625-3.38 0-3.38h-4.729v-3.94z" class="st4"/><path d="m98.369 77.968.004-.171h-.007c-.037-.011-.046-.059-.044-.095.013-.702.567-1.326 1.236-1.547.672-.223 1.424-.091 2.054.225l.068.004c.01-.862.686-1.673 1.541-1.839.798-.156 1.668.271 2.049.977a.2.2 0 0 0 .027-.037 3.06 3.06 0 0 1 2.592-1.594 3.06 3.06 0 0 1 2.658 1.484l.056.013c.157-.648.718-1.172 1.367-1.343.678-.178 1.428.009 1.989.429.519.39.878.962 1.061 1.581h.003l.074-.024c-.046-.91.769-1.737 1.681-1.824.913-.087 1.818.492 2.232 1.304.101.195.175.403.251.609l.172.045c.273-1.033 1.328-1.809 2.403-1.761 1.064.048 2.036.895 2.232 1.935l.011-.015c.524-.927 1.592-1.521 2.66-1.48a2.98 2.98 0 0 1 2.531 1.683l.083.004c.36-.927 1.319-1.594 2.32-1.607a2.58 2.58 0 0 1 2.315 1.441l.068-.033c.131-1.036 1.16-1.878 2.209-1.809.573.039 1.111.314 1.548.689.425.362.76.812 1.072 1.276l.02-.013c.196-.906 1.011-1.647 1.938-1.755h.044q0 .034.004.074c.052.578.362 1.12.807 1.493v.117a2.37 2.37 0 0 0-1.496 1.545 2.3 2.3 0 0 0-.065.99l-.137.017a2.52 2.52 0 0 0-2.527-.171 2.49 2.49 0 0 0-1.334 2.041c-.46-.546-.996-1.04-1.687-1.14-.951-.141-1.843.544-2.329 1.382l-.15-.069c-.476-.932-1.391-1.688-2.44-1.764-1.049-.078-2.156.663-2.296 1.699l-.078.061a2.98 2.98 0 0 0-2.239-1.161 2.97 2.97 0 0 0-2.471 1.248l-.111-.028c-.438-.897-1.419-1.506-2.422-1.504-1.005.002-1.982.615-2.416 1.514-.026.052-.065.115-.124.106q-.023-.004-.026-.024l-.081.022c-.281-.999-1.245-1.777-2.289-1.831-1.075-.052-2.139.665-2.492 1.673h-.002c-.166-.981-1.036-1.805-2.032-1.917-.994-.113-2.03.492-2.414 1.412-.017.041-.028.098-.011.132l-.028.015c-.283-.511-.663-.975-1.155-1.287-.532-.336-1.208-.474-1.808-.282-.514.162-.946.596-1.073 1.109l-.124-.033c-.774-.802-1.812-1.417-2.93-1.449s-2.292.628-2.623 1.692h-.083c-.344-.509-.879-.914-1.491-1.007a1.7 1.7 0 0 0-.617.02l-.009-.041c.037-.009.063-.05.078-.085.4-.808 1.296-1.345 2.203-1.321" class="st1"/><path d="M139.379 121.732c2.625 0 2.625 3.38 0 3.38h-4.729v-3.38z" class="st5"/><path d="M134.65 121.732v3.38h-5.961v-11.56l-.035-.115q.286-.078.539-.23a2.38 2.38 0 0 0 1.131-1.921h.011c.138 1.135 1.221 2.075 2.37 2.056.783-.011 1.522-.468 1.945-1.118z" class="st6"/><path d="M128.689 121.732v3.38h-4.729c-2.625 0-2.625-3.38 0-3.38z" class="st5"/><path d="m115.706 20.139-.028.089a2.41 2.41 0 0 0-2.294.635 2.38 2.38 0 0 0-.56 2.301l-.111.061c-.323-.581-.809-1.094-1.431-1.339a2.1 2.1 0 0 0-.641-.141v-.009c.349-.734.82-1.434 1.494-1.893.673-.457 1.578-.635 2.324-.305l.05-.058c.345.304.754.533 1.197.659m-6.283 1.85.054.072a1 1 0 0 0-.089.067c-.672.565-.748 1.558-.681 2.429h-.089c-.737-.505-1.707-.648-2.566-.409l-.033-.121c.377-1.405 1.975-2.363 3.404-2.038" class="st1"/><path d="m82.824 64.891 13.105-2.628c0 1.746-1.356 4.01-4.74 4.591L80.615 68.68a3.5 3.5 0 0 0-.868-.743c.807-1.361-.626-4.359-2.169-4.032.233-.617.118-1.67-.218-2.37a3.9 3.9 0 0 1 1.173-.206c1.175-.033 2.438.423 3.297 1.38.499.557.863 1.283.994 2.182m-1.234-.312a.675.675 0 0 0-.678-.674.673.673 0 1 0 0 1.348.68.68 0 0 0 .678-.674" class="st7"/><path d="m91.863 54.226-9.9 8.458-.133.026c-.859-.958-2.121-1.413-3.297-1.38v-.095l6.774-6.114c2.54-2.299 5.169-1.97 6.556-.895" class="st7"/><path d="M89.375 71.542c.996 1.543-.791 5.715-3.451 5.715-1.005-2.082 1.256-5.83 3.451-5.715m-.791-29.227c-1.67 1.153-5.438-.754-5.32-2.81 1.55-1.187 5.32.446 5.32 2.81" class="st2"/><path d="M80.912 63.905a.675.675 0 1 1 0 1.348.675.675 0 1 1 0-1.348" class="st7"/><path d="M80.615 68.68c.58.674.933 1.523.495 1.904l-3.471 3.182-1.081.99-.081.115a6.5 6.5 0 0 1-2.315-2.831l1.066-.977 3.486-3.196c.257-.225.641-.158 1.034.069.3.175.608.441.867.744" class="st8"/><path d="M76.813 47.172c.595-2.193 5.106-2.439 6.011-.953-.905 2.227-5.013 2.227-6.011.953" class="st2"/><path d="M76.006 77.53c-.109.858-.885 1.562-1.746 1.683a2 2 0 0 1-.375.02v.007a1.81 1.81 0 0 1-.979 1.434c-.726.364-1.633.188-2.322-.24-.691-.427-1.212-1.072-1.718-1.705l-.007-.009c-5.605 4.248-11.52 7.32-17.847 8.928-4.858 1.235-9.957 1.603-15.342.973.076-.225.12-.464.118-.704-.004-.929-.656-1.822-1.544-2.121l.03-.08c.776-.347 1.28-1.22 1.186-2.06 7.648 1.289 15.007.178 21.698-2.857 4.334-1.967 8.387-4.74 12.059-8.191 1.98-2.16 3.929-3.191 6.011-1.543l-1.066.977a6.5 6.5 0 0 0 2.315 2.831l.081-.115 1.081-.99.041.046c.314.381.685.856.611 1.779-.074.91-.837 1.69-1.733 1.887a2.3 2.3 0 0 1-.552.05" class="st4"/><path d="M77.578 63.905c-.103.266-.268.451-.51.492l-6.336 1.224-.074.009a3.9 3.9 0 0 0-.331-1.105c-.299-.661-.778-1.302-1.478-1.506l-.076-.054c.161-.23.277-.479.314-.75l.131.02 7.247-1.399c.366-.061.678.245.896.7.335.699.45 1.752.217 2.369" class="st8"/><path d="M70.658 65.63q.026.215.02.429c-.02.529-.224 1.066-.623 1.415-.399.351-1.005.481-1.487.256l-.07-.02a3 3 0 0 0 .085-.396 4.35 4.35 0 0 0-.896-3.304l-.037-.056.111-.069c.379-.245.754-.555 1.012-.919l.076.054c.7.204 1.18.845 1.478 1.506.159.35.283.723.331 1.104" class="st4"/><path d="M65.386 64.865v.026c.613.388 1.033 1.777.964 2.756a4 4 0 0 1-.168.973c-.109.342-.284.65-.569.867-.373.284-.881.353-1.341.264-.46-.087-.739-.221-1.121-.494-1.308 1.56-3.002 2.97-4.988 4.264a1.6 1.6 0 0 0-.857-.353v-.082c.615-.321.881-1.075.857-1.764-.022-.539-.194-1.081-.534-1.501a2 2 0 0 0-1.086-.693l.017-.074c.876-.574 2.438-1.868 2.438-1.868s.957-.732 1.286-1.285c.244-1.322.497-1.995.848-2.782.885-1.976 3.179-3.089 5.353-3.009.593.022 1.195.123 1.703.427.506.303.903.836.918 1.423q.003.131-.02.256c-.037.271-.153.52-.314.75-.257.364-.632.674-1.012.919q-.055.037-.111.067c-.44.275-.907.503-1.393.687a3.5 3.5 0 0 1-.87.226" class="st4"/><path d="M67.686 64.009a4.35 4.35 0 0 1 .896 3.304 3 3 0 0 1-.085.396 2 2 0 0 1-.103.267c-.362.739-1.389 1.066-2.115.672l-.098-.028c.1-.31.146-.65.168-.973.07-.979-.351-2.368-.961-2.756v-.026c.294-.03.589-.121.868-.228a8 8 0 0 0 1.393-.685z" class="st4"/><path d="M57.304 154.589h-.741c-.809 0-1.385-.6-1.616-1.489l-.046-.143-9.754-35.781h3.501q.272 0 .541-.056l.013.056 9.754 35.781c.262.965-.645 1.632-1.653 1.643v-.011z" class="st8"/><path d="m19.976 64.235.024.006a5.46 5.46 0 0 1 3.759 1.991 5.4 5.4 0 0 1 1.123 4.084v.056c1.201.004 2.353.672 3.059 1.638.711.971.994 2.208.92 3.403.654-1.051 2.573-1.33 3.6-.381h.007a2.1 2.1 0 0 1 .619-1.649c.519-.5 1.31-.704 2.008-.511l.098-.015q.022.14.074.273c.225.57.883.897 1.498.856.615-.043 1.175-.399 1.585-.856l.146-.074c.51.57 1.33.862 2.076.687a1.99 1.99 0 0 0 1.45-1.451l.192.046c.543.178 1.162.165 1.666-.106.501-.269.863-.817.839-1.384a2 2 0 0 0-.22-.763 5 5 0 0 0-.137-.253h.153c.613-.366 1.395-.405 2.065-.156.604.223 1.114.669 1.454 1.215l.055-.035a2.12 2.12 0 0 1 1.28-1.317 2.14 2.14 0 0 1 1.831.193l.013-.013c-.619-.57-.981-1.406-1.014-2.244-.033-.875.268-1.748.783-2.459l-.013-.009c-1.23-.334-2.126-1.504-2.322-2.756-.153-.979.081-1.985.547-2.866-3.802-7.908-10.52-11.354-16.877-11.177a16.7 16.7 0 0 0-3.866.565 16 16 0 0 0-2.012.685c-4.38 1.818-7.962 5.55-9.336 10.837.907.186 1.768.663 2.331 1.395.545.712.782 1.678.542 2.545m11.721 27.336c-.582.919-1.827 1.406-2.876 1.059a2.3 2.3 0 0 1-1.02-.693 2.6 2.6 0 0 1-.528-.927l-.273.004a3.2 3.2 0 0 1-2.444.657 3.2 3.2 0 0 1-2.141-1.348l-.085-.006a3.8 3.8 0 0 1-2.045.869 3.8 3.8 0 0 1-1.851-.238c-1.271-.511-2.211-1.755-2.35-3.111l-.063.007c-1.027.5-2.289.565-3.305.05-1.018-.518-1.722-1.653-1.602-2.782l-.015-.043c-1.735.613-3.82.08-5.043-1.287-1.225-1.367-1.513-3.486-.7-5.128l-.031-.043a4.84 4.84 0 0 1-2.854-2.84 4.8 4.8 0 0 1 .358-3.999C1.602 71.196.734 69.92.66 68.572c-.074-1.337.637-2.686 1.777-3.395l-.035-.054a3.5 3.5 0 0 1-.349-.815c-.229-.825-.113-1.755.375-2.463.451-.652 1.227-1.088 2.023-1.088l.211-.154c-.358-1.051.007-2.325.896-3.005 1.009 1.283 2.584 2.11 4.21 1.898a2.17 2.17 0 0 1-.011-1.909q.062-.127.142-.24c.456-.674 1.273-1.085 2.097-1.111v-.019a3.36 3.36 0 0 1-.41-1.597c-.004-.466.076-.942.292-1.352a2 2 0 0 1 .27-.399l-.072-.059c-.46-.637-.514-1.525-.177-2.229q.102-.215.255-.405c.597-.732 1.707-.999 2.577-.618l.015-.004a2.81 2.81 0 0 1 .719-2.836c.757-.719 1.943-.953 2.919-.576-.089-1.079.488-2.206 1.463-2.693.988-.492 2.315-.234 2.985.637l.037-.03c.447-.988 1.583-1.584 2.669-1.508 1.066.074 2.045.737 2.612 1.638.358-1.049 1.404-1.824 2.514-1.867 1.123-.043 2.235.665 2.666 1.694l.166.013.011-.011c.905-1.07 2.422-1.592 3.8-1.304 1.378.286 2.557 1.369 2.952 2.71l.024.043a5 5 0 0 1 1.031-.284c.227-.03.464-.041.737-.028.253.011.672.048.911.13a2.6 2.6 0 0 1 .914.54c.691.659 1.171 1.737 1.108 2.686a2.8 2.8 0 0 1 2.049.308c.305.175.576.407.787.687.377.494.558 1.122.536 1.74a2.64 2.64 0 0 1-.316 1.183l.061.032c1.354-.494 2.956.236 3.728 1.447.77 1.211.815 2.773.43 4.153l.055.143c1.219-.284 2.512.546 3.024 1.681.51 1.131.366 2.463-.083 3.62 1.238.045 2.313 1.14 2.464 2.366.15 1.215-.519 2.455-1.541 3.141l.052.076q.158.007.312.043c.425.097.811.353 1.086.693.34.42.512.962.534 1.501.024.689-.242 1.443-.855 1.764v.082c.312.026.608.156.855.353.222.178.403.414.514.676.253.594.177 1.298-.118 1.872-.266.52-.73.966-1.297 1.103l.017.087c.469.448.728 1.103.693 1.746a2.28 2.28 0 0 1-.874 1.664l.059.13c-6.691 3.035-14.049 4.146-21.698 2.857.094.841-.41 1.714-1.186 2.06l-.03.08c.887.299 1.539 1.191 1.544 2.121a2.2 2.2 0 0 1-.118.704c5.385.63 10.485.262 15.342-.973l.004.02c-.249.5-.453 1.174-1.592 1.66-1.138.483-1.783.334-2.346.305-.654 1.036-1.435 1.653-2.608 1.653s-1.851-.24-2.843-.964l-.085-.028c-.366 1.107-1.282 2.047-2.42 2.333a2.8 2.8 0 0 1-.866.08c-.813-.041-1.613-.412-2.115-1.04l-.05.039c-.51.719-1.363 1.209-2.248 1.211a2.4 2.4 0 0 1-1.384-.442 2.15 2.15 0 0 1-.739-.888zm16.945-15.284c.872-2.487-1.258-4.487-2.884-2.494a8 8 0 0 1-.386.399 7.44 7.44 0 0 1-3.338 1.891c-1.262.334-2.645.366-4.125.158q-.241-.036-.486-.078c-3.19-.626-3.981 2.55-1.755 4.027.434.29.985.516 1.657.633 1.158.256 2.339.325 3.486.23 1.797-.149 3.517-.704 4.947-1.594a8.8 8.8 0 0 0 2.095-1.796c.375-.462.63-.928.789-1.376" class="st3"/><path d="M56.563 154.589h-4.062c-.809 0-1.384-.6-1.615-1.489l-1.18-4.326-1.057-3.878-5.568-20.421 1.991-7.299h.076l9.754 35.781.046.143c.23.889.806 1.489 1.615 1.489" class="st7"/><path d="M51.446 110.289v4.108c0 1.43-1.06 2.476-2.257 2.723q-.269.056-.541.056h-31.8q-.103 0-.205-.008c-1.328-.104-2.592-1.209-2.592-2.771v-4.108c0 1.075 1.398 1.818 2.797 1.818h31.801c1.397 0 2.797-.743 2.797-1.818" class="st8"/><path d="M51.446 110.233v.056c0 1.075-1.4 1.818-2.797 1.818H16.848c-1.4 0-2.797-.743-2.797-1.818v-.056c0-1.075 1.398-1.818 2.797-1.818h11.993c.349.969 1.125 1.623 2.462 1.623h5.045c1.112 0 1.827-.722 2.117-1.625h10.183c1.398 0 2.797.743 2.797 1.818v.002z" class="st7"/><path d="M31.597 60.578c-.772-.301-1.72-.007-2.243.637-.536.659-.637 1.612-.336 2.405s.966 1.419 1.742 1.77l.203.011a5.7 5.7 0 0 0 .349 2.199c.763 2.091 2.558 3.425 4.284 3.336l.004.054c-.299.403-.419.912-.434 1.413-.004.152 0 .305.026.455l-.098.015a2.13 2.13 0 0 0-2.008.511 2.1 2.1 0 0 0-.619 1.649h-.007c-1.027-.949-2.946-.669-3.6.381.074-1.196-.209-2.433-.92-3.403-.706-.966-1.858-1.633-3.061-1.638v-.056a5.37 5.37 0 0 0-1.121-4.084 5.46 5.46 0 0 0-3.759-1.991l-.024-.007c.24-.867 0-1.833-.545-2.546-.562-.732-1.424-1.209-2.331-1.395 1.374-5.286 4.956-9.019 9.336-10.837q.982-.407 2.012-.685a16.6 16.6 0 0 1 3.866-.565c6.358-.178 13.075 3.269 16.877 11.177-.466.882-.7 1.887-.547 2.866.196 1.252 1.092 2.422 2.322 2.756l.013.009c-.514.711-.815 1.584-.783 2.459.033.838.395 1.675 1.014 2.244l-.013.013a2.14 2.14 0 0 0-1.831-.193 2.12 2.12 0 0 0-1.28 1.317l-.054.035c-.34-.546-.85-.992-1.454-1.215-.669-.249-1.452-.21-2.065.154h-.152a3.6 3.6 0 0 0-1.454-1.35l-.139-.043c.658-.386 1.153-1.01 1.45-1.766.419-1.07.44-2.407-.037-3.713a5.8 5.8 0 0 0-.77-1.443l.092-.067c.453-.572.7-1.302.687-2.03-.009-.366-.092-.752-.342-1.02a1.2 1.2 0 0 0-.831-.353 1.8 1.8 0 0 0-.85.199l-.031-.063a1.74 1.74 0 0 0-.314-1.673 1.75 1.75 0 0 0-1.611-.572 1.73 1.73 0 0 0-1.293 1.116l-.12.067c-.456-.882-1.559-1.38-2.527-1.135-.907.23-1.607 1.09-1.668 2.013l-.172-.009c-.432-.264-.944-.41-1.448-.351-.504.056-.988.329-1.251.761-.078.13-.137.273-.183.42a2.6 2.6 0 0 0 .068 1.716c.006.017.011.043 0 .052zm19.219-14.435c.207 1.98-.661 4.136-2.414 5.098h-.044a2.72 2.72 0 0 0-.536-1.74 2.6 2.6 0 0 0-.787-.687l.07-.119c.798-.832.981-2.182.436-3.193-.393-.723-1.158-1.265-1.986-1.291-.828-.028-1.67.516-1.892 1.309l-.059.082a2.7 2.7 0 0 0-.639-.321c-.24-.082-.659-.119-.911-.13-.272-.013-.51 0-.737.028l-.015-.115c.009-1.605 1.129-3.063 2.629-3.659 1.502-.596 3.294-.301 4.6.648 1.306.946 2.119 2.493 2.285 4.09" class="st4"/><path d="m48.648 144.896 1.057 3.878H37.499l-.497-1.824-.044-.013.56-2.054.05.013z" class="st8"/><path d="M45.757 73.793c1.626-1.993 3.757.007 2.884 2.494l-3.251-1.835-.02-.26q.198-.19.387-.399" class="st9"/><path d="m45.391 74.452 3.251 1.835a4.7 4.7 0 0 1-.789 1.376 8.8 8.8 0 0 1-2.095 1.796z" class="st9"/><path d="M47.541 45.502c.545 1.012.362 2.361-.436 3.193l-.07.119a2.8 2.8 0 0 0-2.049-.308c.063-.949-.416-2.028-1.108-2.686a2 2 0 0 0-.275-.219l.059-.082c.222-.793 1.064-1.337 1.892-1.309.829.026 1.595.568 1.987 1.292" class="st6"/><path d="M45.758 79.456c-1.43.893-3.15 1.447-4.947 1.597l1.223-4.97z" class="st9"/><path d="m45.391 74.452.366 5.005-3.724-3.373a7.44 7.44 0 0 0 3.338-1.891z" class="st9"/><path d="m45.071 117.176-1.991 7.297-5.562 20.41-.56 2.054-1.681 6.163c-.231.889-.807 1.489-1.615 1.489h-.953c-.922-.093-1.694-.732-1.448-1.632l9.754-35.781z" class="st8"/><path d="M42.021 72.292a1.98 1.98 0 0 1-1.45 1.451c-.746.175-1.565-.117-2.076-.687l-.146.074c-.41.457-.97.812-1.585.856-.615.041-1.273-.286-1.498-.856a1.3 1.3 0 0 1-.074-.273c-.026-.149-.03-.303-.026-.455.015-.5.135-1.01.434-1.413l-.004-.054q.45-.022.885-.178c.916-.329 1.592-1.064 1.958-2.004q.17-.426.249-.901c1.055.897 2.376 1.252 3.569.821q.268-.098.51-.238l.139.043a3.57 3.57 0 0 1 1.591 1.605c.118.238.207.496.22.763.024.568-.338 1.116-.839 1.384-.504.271-1.123.284-1.666.106z" class="st4"/><path d="M44.179 62.957c.478 1.306.456 2.643.037 3.713-1.147.312-2.485-.145-3.488-1.226l2.132-2.66-3.233.773c-.493-1.51-.207-3.029.658-3.932 1.158.08 2.309.778 3.124 1.889.312.424.574.908.77 1.443" class="st5"/><path d="M31.614 60.584s.006-.035 0-.052a2.6 2.6 0 0 1-.068-1.716c.046-.147.105-.29.183-.42.264-.431.748-.704 1.251-.761.504-.058 1.016.087 1.448.351l.172.009c.061-.923.761-1.783 1.668-2.013.968-.245 2.071.254 2.527 1.135l.12-.067a1.73 1.73 0 0 1 1.293-1.116 1.75 1.75 0 0 1 1.611.572c.388.451.51 1.111.314 1.673l.031.063a1.8 1.8 0 0 1 .85-.199c.31.011.619.128.831.353.251.269.334.654.342 1.02a3.2 3.2 0 0 1-.687 2.03l-.092.067c-.815-1.111-1.966-1.809-3.124-1.889a3.1 3.1 0 0 0-1.273.173c-1.19.429-1.978 1.545-2.206 2.905-.689-.585-1.491-.938-2.296-.994-.43-.03-.859.024-1.273.173-1.367.492-2.2 1.887-2.274 3.518l-.202-.009c-.776-.351-1.441-.977-1.742-1.77s-.201-1.746.336-2.405c.523-.643 1.472-.938 2.243-.637-.004.009 0 .02.009.015q.006-.002.008-.009" class="st3"/><path d="M40.728 65.444c1.003 1.081 2.342 1.538 3.488 1.226-.297.756-.792 1.38-1.45 1.766a3 3 0 0 1-.51.238c-1.193.431-2.514.076-3.569-.821a5.54 5.54 0 0 0-.283-2.812c-.351-.96-.918-1.761-1.598-2.338.229-1.361 1.016-2.476 2.206-2.905a3.1 3.1 0 0 1 1.273-.173c-.866.903-1.151 2.422-.658 3.932l3.233-.773zm1.306 10.639-1.223 4.97-2.922-4.682.02-.13c1.48.208 2.862.176 4.125-.158" class="st9"/><path d="m41.015 117.176-9.754 35.781c-.246.9.525 1.539 1.448 1.632h-3.863v.011c-1.003-.018-1.901-.683-1.64-1.643l1.714-6.284 1.378-5.055 1.005-3.691 1.603-5.871 1.378-5.055 1.005-3.694 1.672-6.131z" class="st7"/><path d="m37.889 76.371 2.922 4.682a11.7 11.7 0 0 1-3.486-.23c-.672-.117-1.223-.342-1.657-.633z" class="st9"/><path d="M38.404 65.041c.351.96.432 1.937.283 2.812a4.3 4.3 0 0 1-.249.901c-1.145.312-2.486-.145-3.486-1.226l2.132-2.66-3.236.773c-.49-1.51-.205-3.029.661-3.932.805.056 1.607.409 2.296.994.681.576 1.248 1.378 1.599 2.338" class="st5"/><path d="m37.499 148.774 1.14 4.183c.264.965-.643 1.632-1.653 1.643v-.011h-3.325c.809 0 1.385-.6 1.616-1.489l1.681-6.163.044.013z" class="st8"/><path d="M34.662 110.038h-3.36c-1.337 0-2.113-.654-2.462-1.623-.329-.91-.281-2.099.033-3.286l2.959-10.436c1.162.682 2.544.457 3.628-.42.589.864 1.411 1.15 2.165 1.15l-1.958 7.86c-.207 1.057-.207 1.367.781 1.584 1.844.162 2.481 2.09 2.017 3.546-.29.903-1.005 1.625-2.117 1.625z" class="st4"/><path d="m38.257 92.706-.007.21-.624 2.507h-.002c-.754 0-1.576-.286-2.165-1.15-1.084.877-2.466 1.103-3.628.42l.628-2.218c.401.282.892.444 1.384.442.885-.002 1.738-.492 2.248-1.211l.05-.039c.503.628 1.303.998 2.116 1.039" class="st5"/><path d="m37.909 76.241-.02.13-2.222 3.82c-2.226-1.478-1.435-4.654 1.755-4.028q.245.042.487.078m-2.957-8.713c1.001 1.081 2.342 1.538 3.486 1.226-.366.94-1.042 1.675-1.958 2.004q-.437.155-.885.178c-1.727.089-3.521-1.246-4.284-3.336a5.7 5.7 0 0 1-.349-2.199c.074-1.631.907-3.026 2.274-3.518a3.1 3.1 0 0 1 1.273-.173c-.866.903-1.151 2.422-.661 3.932l3.235-.773z" class="st9"/><path d="M26.493 123.277h8.68l.116.03-1.005 3.694-.12-.032H19.277c-1.4 0-2.797-.743-2.797-1.818v-.056c0-1.012 1.241-1.731 2.555-1.809q.121-.01.242-.009z" class="st7"/><path d="M28.88 132.038h-9.604a2.86 2.86 0 0 1-2.298-1.204 2.7 2.7 0 0 1-.499-1.575v-4.108c0 1.075 1.398 1.818 2.797 1.818h14.887l.12.032-1.378 5.055-.063-.018z" class="st8"/><path d="m32.905 132.056-1.603 5.871-.094-.026h-.746v-.061l-1.583-5.802h3.962z" class="st8"/><path d="m31.303 137.927-1.005 3.691-.1-.026H14.96c-1.4 0-2.797-.743-2.797-1.817v-.057c0-1.074 1.398-1.817 2.797-1.817h16.249z" class="st7"/><path d="M30.546 123.273v.004h-4.053l-1.663-6.101h4.055z" class="st8"/><path d="M30.463 137.84v.061h-4.09v-.189l-1.546-5.669v-.005h4.053z" class="st7"/><path d="M16.715 146.662H14.96a2.87 2.87 0 0 1-2.047-.897 2.7 2.7 0 0 1-.75-1.883v-4.107c0 1.074 1.398 1.817 2.797 1.817h15.238l.1.026-1.378 5.055-.044-.011z" class="st8"/><path d="M27.274 91.01c.109.34.29.659.528.927-.181.423-.401 1.003-.708 1.66-1.502.355-3.133.026-4.326-1.031-1.108.488-2.505.516-3.56.093a4.5 4.5 0 0 0 1.081-1.473 3.8 3.8 0 0 0 2.045-.869l.085.006a3.2 3.2 0 0 0 2.141 1.348 3.2 3.2 0 0 0 2.444-.657l.272-.004z" class="st5"/><path d="m24.83 117.176 1.663 6.101h-3.39v-.043l1.65-6.058z" class="st7"/><path d="M4.538 96.885c-.052-.888.148-1.958.787-3.161 1.21-2.279 3.835-3.33 5.034-3.536s1.764.275 2.682 1.261 1.517 2.205 3.9 2.134c.988-.028 1.731-.446 2.263-.925 1.055.422 2.453.394 3.56-.093 1.193 1.057 2.823 1.387 4.326 1.031-.89 1.898-2.523 4.437-6.092 5.654-4.805 1.636-8.876-1.41-8.876-1.41s-.565-.47-1.411.258c-.848.73-.706.674-1.975 1.341-1.271.665-2.939.351-3.6-.637-.31-.465-.554-1.117-.598-1.917" class="st4"/><path d="m24.753 117.176-1.651 6.058v.043h-3.826q-.121 0-.242.009v-.007l1.637-6.005v-.098zm-4.057 14.862v.024l-1.589 5.83v.009h-3.992v-.243l1.86-6.822h.004a2.87 2.87 0 0 0 2.298 1.202z" class="st8"/><path d="M20.672 117.176v.098l-1.637 6.005v.007c-1.315.078-2.555.797-2.555 1.809v4.164c0 .604.19 1.139.499 1.575h-.004l-1.86 6.824v.243h-.155c-1.4 0-2.797.743-2.797 1.817v4.164c0 .754.294 1.402.75 1.883l-.011.011-1.958 7.181c-.244.9.528 1.539 1.448 1.632H8.528v.011c-1.003-.018-1.899-.683-1.64-1.643l9.754-35.781v-.008q.103.008.205.008z" class="st7"/><path d="M16.715 146.662 14.96 153.1c-.231.889-.807 1.489-1.616 1.489h-.953c-.92-.093-1.692-.732-1.448-1.632l1.958-7.181.011-.011a2.87 2.87 0 0 0 2.047.897z" class="st8"/><path d="M5.558 57.597a5.5 5.5 0 0 1-.724-1.202c-.834-1.927-.285-4.37 1.352-5.694s3.805-1.412 5.533-.208l.181.087c-.338.704-.283 1.592.177 2.229l.072.059a2 2 0 0 0-.27.399l-.061-.033c-.565-.444-1.278-.719-1.997-.702-.722.017-1.443.347-1.873.923-.419.563-.53 1.326-.34 2.002.192.674.667 1.252 1.269 1.62.292.178.641.314.979.241l.044.028q-.079.114-.142.24a2.17 2.17 0 0 0 .011 1.909c-1.627.212-3.201-.616-4.211-1.898" class="st4"/><path d="M11.997 56.215v.02c-.824.026-1.642.438-2.097 1.111l-.044-.028c-.338.074-.687-.063-.979-.241-.602-.368-1.077-.947-1.269-1.62-.19-.676-.078-1.439.34-2.002.43-.576 1.151-.906 1.873-.923.72-.017 1.432.258 1.997.702l.061.033c-.216.409-.296.886-.292 1.352.008.554.137 1.112.41 1.596" class="st6"/><path d="M36.806 62.703c.68.576 1.247 1.378 1.598 2.338s.432 1.937.283 2.812a4.3 4.3 0 0 1-.249.901c-.366.94-1.042 1.675-1.958 2.004q-.437.155-.885.178c-1.727.089-3.521-1.246-4.284-3.336a5.7 5.7 0 0 1-.349-2.199c.074-1.631.907-3.026 2.274-3.518a3.1 3.1 0 0 1 1.273-.173c.805.055 1.608.408 2.297.993" class="st10"/><path d="M38.438 68.754c-1.145.312-2.486-.145-3.486-1.226l2.132-2.66-3.236.773c-.49-1.51-.205-3.029.661-3.932m2.297.994c.229-1.361 1.016-2.476 2.206-2.905a3.1 3.1 0 0 1 1.273-.173c1.158.08 2.309.778 3.124 1.889.312.425.573.908.77 1.443.478 1.306.456 2.643.037 3.713-.297.756-.792 1.38-1.45 1.766a3 3 0 0 1-.51.238c-1.193.431-2.514.076-3.569-.821" class="st10"/><path d="M44.216 66.67c-1.147.312-2.485-.145-3.488-1.226l2.132-2.66-3.233.773c-.493-1.51-.207-3.029.658-3.932m-1.953 13.226q.075.108.164.206c.51.57 1.33.862 2.076.687a1.99 1.99 0 0 0 1.45-1.451q.046-.185.046-.381m.145.425c.543.178 1.162.165 1.666-.106.501-.269.863-.817.839-1.384a2 2 0 0 0-.22-.763 3.58 3.58 0 0 0-1.591-1.605m-4.558 4.651c-.41.457-.97.812-1.585.856-.615.041-1.273-.286-1.498-.856a1.3 1.3 0 0 1-.074-.273c-.026-.149-.03-.303-.026-.455.015-.5.135-1.01.434-1.413m12.534.074q-.048-.089-.102-.173c-.34-.546-.85-.992-1.454-1.215-.669-.249-1.452-.21-2.065.154m6.904.065a2 2 0 0 1-.207-.175c-.619-.57-.981-1.406-1.014-2.244-.033-.875.268-1.748.783-2.459q.05-.069.103-.136M28.861 75.414c.074-1.196-.209-2.433-.92-3.403-.706-.966-1.858-1.633-3.061-1.638h-.009m-4.91-6.077q.01-.03.015-.061c.24-.867 0-1.833-.545-2.546-.562-.732-1.424-1.209-2.331-1.395m25.025-2.032.039-.02a1.8 1.8 0 0 1 .85-.199c.31.011.619.128.831.353.251.269.334.654.342 1.02a3.2 3.2 0 0 1-.687 2.03m-11.846-.847q-.02-.01-.039-.015l-.017-.007c-.772-.301-1.72-.007-2.243.637-.536.659-.637 1.612-.336 2.405s.966 1.419 1.742 1.77m3.834-7.207q-.002-.094.007-.186c.061-.923.761-1.783 1.668-2.013.968-.245 2.071.254 2.527 1.135m-6.278 18.248a2.1 2.1 0 0 1 .567-1.983c.519-.5 1.31-.704 2.008-.511m-10.212-2.556a5.38 5.38 0 0 0-1.123-4.084A5.46 5.46 0 0 0 20 64.241m31.197 5.49a2.14 2.14 0 0 0-1.831-.193 2.12 2.12 0 0 0-1.28 1.317.116.116 0 0 1 .022-.156m2.858-5.693c-1.23-.334-2.126-1.504-2.322-2.756-.153-.979.081-1.985.547-2.866q.196-.368.44-.704m-7.497-.5a1.74 1.74 0 0 0-.314-1.673 1.75 1.75 0 0 0-1.611-.572 1.73 1.73 0 0 0-1.293 1.116" class="st10"/><path d="M34.429 57.987c-.432-.264-.944-.41-1.448-.351-.504.056-.988.329-1.251.761-.078.13-.137.273-.183.42a2.6 2.6 0 0 0 .068 1.716c.006.017.011.043 0 .052q-.002.006-.009.009c-.011.004-.013-.007-.009-.015.002-.009.007-.015.009-.004m-2.745 14.839c.654-1.051 2.573-1.33 3.6-.381" class="st10"/><path d="M17.101 60.294c1.374-5.286 4.956-9.019 9.336-10.837q.982-.407 2.012-.685a16.6 16.6 0 0 1 3.866-.565c6.357-.178 13.075 3.269 16.877 11.177M35.67 88.62c.076-.225.12-.464.118-.704-.004-.929-.656-1.822-1.544-2.121a.3.3 0 0 0-.05-.017m.021 4.292c.68-.217 1.223-.782 1.452-1.449m-15.795-4.093c.031.728.558 1.41 1.258 1.627a1.85 1.85 0 0 0 1.969-.628m-8.525-5.65c-.48.765-.342 1.857.314 2.481.656.622 1.759.713 2.507.201m-.656-11.504c-.482.355-.798.945-.772 1.543.024.596.412 1.176.977 1.387.562.208 1.269 0 1.589-.505m-10.4.357c-.395.882-.031 2.028.8 2.528s2.019.29 2.625-.464M6.186 71.15c-.892-.143-1.642-.916-1.753-1.807s.427-1.822 1.256-2.175m4.276-3.197c-.706.325-1.097 1.185-.92 1.939.177.752.872 1.341 1.644 1.443.772.104 1.574-.26 2.047-.873m-2.409-6.325a1.8 1.8 0 0 1-.558-.661 2.17 2.17 0 0 1-.011-1.909q.062-.127.142-.24c.456-.674 1.273-1.085 2.097-1.111q.063-.005.126-.004m15.116 33.402c-.133.451-.109.932.035 1.378.109.34.29.659.528.927.27.314.621.561 1.02.693 1.049.347 2.294-.141 2.876-1.059.081-.123.148-.258.201-.396" class="st10"/><path d="M28.861 56.228c1.801-3.796 6.927-5.637 9.935-3.157M5.907 71.139c-.497.613-.521 1.558-.057 2.195s1.378.908 2.117.628m8.423-2.697a1.75 1.75 0 0 1-1.208-1.434 1.73 1.73 0 0 1 .848-1.668m-6.194-4.128a2.43 2.43 0 0 1-.999-2.045 2.43 2.43 0 0 1 1.175-1.952m1.985-3.823a3.36 3.36 0 0 1-.41-1.597c-.004-.466.076-.942.292-1.352a2 2 0 0 1 .27-.399c.329-.373.813-.618 1.308-.587m3.504 30.547a1.94 1.94 0 0 0 .774 1.833 1.96 1.96 0 0 0 1.997.141m7.361 4.894a2.06 2.06 0 0 1-1.626-.414 2.04 2.04 0 0 1-.748-1.495m9.555-2.071c.776-.347 1.28-1.22 1.186-2.06-.092-.841-.772-1.586-1.605-1.759" class="st10"/><path d="M69.217 72.606c-3.672 3.451-7.725 6.224-12.059 8.191-6.691 3.035-14.049 4.147-21.698 2.857m.207 4.966h.002c5.385.63 10.485.262 15.342-.973 6.327-1.607 12.242-4.68 17.847-8.928M14.733 49.557c-.87-.381-1.98-.115-2.577.618a2 2 0 0 0-.255.405c-.338.704-.283 1.592.177 2.229m6.315-6.59-.007-.078c-.089-1.079.488-2.205 1.463-2.693.988-.492 2.315-.234 2.985.637l.024.03m5.283.098.011-.028c.358-1.049 1.404-1.824 2.514-1.867 1.123-.043 2.235.665 2.666 1.694m6.953 1.451a5 5 0 0 1 1.031-.284c.227-.03.464-.041.737-.028.253.011.672.048.911.13a2.6 2.6 0 0 1 .914.54c.691.659 1.171 1.737 1.107 2.686m7.276 9.549c.386-1.38.34-2.942-.43-4.153-.772-1.211-2.374-1.941-3.728-1.447m8.013 16.595.063-.043c1.022-.687 1.692-1.926 1.541-3.141-.151-1.226-1.225-2.32-2.464-2.366q-.025-.003-.05-.002" class="st10"/><path d="M57.171 77.19c.03-.007.061-.011.092-.02.567-.136 1.031-.583 1.297-1.103.294-.574.371-1.278.118-1.872a1.75 1.75 0 0 0-.514-.676 1.6 1.6 0 0 0-.857-.353q-.07-.007-.142-.004m-1.913-9.649s.004-.009.004-.013c.449-1.157.593-2.489.083-3.62-.512-1.135-1.805-1.965-3.024-1.681m-4.305-5.715q.018-.03.033-.061c.198-.362.303-.771.316-1.183a2.72 2.72 0 0 0-.536-1.74 2.8 2.8 0 0 0-2.836-.995m-4.726-3.086c-.395-1.341-1.574-2.424-2.952-2.71-1.378-.288-2.895.234-3.8 1.304q-.005.007-.011.011m-5.313.212-.033-.052c-.567-.901-1.546-1.564-2.612-1.638-1.086-.076-2.222.52-2.669 1.508m-4.469 2.093s-.011-.004-.015-.007c-.977-.377-2.163-.143-2.919.576a2.81 2.81 0 0 0-.719 2.836q.007.03.017.054a.28.28 0 0 0-.026-.351" class="st10"/><path d="M48.402 51.241c1.753-.962 2.621-3.118 2.414-5.098-.166-1.597-.979-3.144-2.285-4.09-1.306-.949-3.098-1.244-4.6-.648-1.5.596-2.621 2.054-2.629 3.659M11.72 50.493c-1.729-1.205-3.896-1.116-5.533.208S4 54.468 4.835 56.395c.188.429.432.834.724 1.202 1.009 1.283 2.584 2.11 4.21 1.898m8.502-6.277q1.124.26 1.395 1.482m.339-3.525a2.83 2.83 0 0 1 1.478 1.486m1.389-3.628c.539.396.818.812 1.073 1.599m2.491-1.174c0-.763-.495-1.467-1.053-1.92m3.066 1.252v-.017a4.15 4.15 0 0 0-.667-2.175m4.532 1.609a3.54 3.54 0 0 0 0-2.073m2.486 2.097c.384-.667.458-1.341.231-2.073m5.065 3.57a2.35 2.35 0 0 0 .292-1.941m1.737 2.97a2.36 2.36 0 0 0 .36-1.787" class="st10"/><path d="M47.105 48.695c.798-.832.981-2.182.436-3.193-.393-.724-1.158-1.265-1.986-1.291-.828-.028-1.67.516-1.892 1.309M9.856 57.317c-.338.074-.687-.063-.979-.241-.602-.368-1.077-.947-1.269-1.62-.19-.676-.078-1.439.34-2.002.43-.576 1.151-.906 1.873-.923.72-.017 1.432.258 1.997.702m25.605 22.93q.245.042.486.078c1.48.208 2.863.175 4.125-.158a7.44 7.44 0 0 0 3.338-1.891q.196-.19.386-.399m-8.434 7.03c1.158.256 2.339.325 3.486.23 1.797-.149 3.517-.704 4.947-1.594a8.8 8.8 0 0 0 2.095-1.796" class="st10"/><path d="M37.423 76.163c-3.19-.626-3.981 2.55-1.755 4.027.434.29.986.516 1.657.633m8.433-7.03c1.626-1.993 3.757.007 2.884 2.494a4.7 4.7 0 0 1-.789 1.376m-12.186 2.528 2.222-3.819m2.922 4.681-2.922-4.682m4.145-.288-1.223 4.97m4.946-1.597-3.724-3.373m3.339-1.891.02.26.366 5.005m2.884-3.17-3.251-1.835m1.688 15.18c.562.028 1.208.178 2.346-.305 1.138-.485 1.343-1.159 1.592-1.66m-9.439 2.522-.035.104c-.366 1.107-1.282 2.047-2.42 2.333a2.8 2.8 0 0 1-.866.08c-.813-.041-1.613-.412-2.115-1.04a3 3 0 0 1-.179-.253m-13.632-1.096a3.8 3.8 0 0 1-2.045.869 3.8 3.8 0 0 1-1.851-.238c-1.271-.511-2.211-1.755-2.35-3.111l-.004-.035m-4.983-2.735c-1.735.613-3.82.08-5.043-1.287-1.225-1.367-1.513-3.486-.7-5.128m-2.443-6.845-.083-.037C1.602 71.194.734 69.918.66 68.57c-.074-1.337.637-2.686 1.777-3.395q.052-.037.107-.067m2.227-4.242a4 4 0 0 1-.109-.264c-.358-1.051.007-2.325.896-3.005l.013-.011m51.737 15.499c.613-.321.879-1.075.855-1.764-.022-.539-.194-1.081-.534-1.501a2 2 0 0 0-1.086-.693 1.7 1.7 0 0 0-.312-.043m.868 11.583a2.28 2.28 0 0 0 .874-1.664 2.28 2.28 0 0 0-.693-1.746M41.628 90.321c.992.724 1.672.964 2.843.964s1.954-.617 2.608-1.653m-10.986 2.073c-.51.719-1.363 1.209-2.248 1.211a2.4 2.4 0 0 1-1.384-.442 2.15 2.15 0 0 1-.739-.888m-4.721-.572a3.2 3.2 0 0 1-2.444.657 3.2 3.2 0 0 1-2.141-1.348m-6.395-2.48c-1.027.501-2.289.565-3.305.05-1.018-.518-1.722-1.653-1.602-2.782" class="st10"/><path d="M5.325 78.609a4.84 4.84 0 0 1-2.854-2.84 4.8 4.8 0 0 1 .358-3.999m-.428-6.649a3.5 3.5 0 0 1-.349-.815c-.229-.825-.113-1.755.375-2.463.451-.652 1.227-1.088 2.023-1.088a2 2 0 0 1 .194.009m24.23 44.365 2.959-10.436.628-2.218m5.166 2.948.624-2.507m-2.584 10.367 1.958-7.86m-6.322 14.615h5.045m.1-5.171c1.845.162 2.481 2.09 2.017 3.546-.29.904-1.005 1.625-2.117 1.625m-7.474-4.909c-.314 1.187-.362 2.376-.033 3.286.349.969 1.125 1.623 2.462 1.623m5.145-5.171c-.988-.217-.988-.527-.78-1.584m-8.575-9.686c.307-.656.528-1.237.709-1.66m-7.516-.751s-.329.799-1.081 1.473c-.532.479-1.275.897-2.263.925-2.383.071-2.983-1.148-3.9-2.134-.918-.986-1.483-1.467-2.682-1.261s-3.824 1.256-5.034 3.536c-.639 1.202-.839 2.273-.787 3.161.044.799.288 1.451.6 1.917.661.988 2.328 1.302 3.6.637 1.269-.667 1.127-.611 1.975-1.341.846-.728 1.411-.258 1.411-.258s4.07 3.046 8.876 1.41c3.569-1.218 5.202-3.757 6.092-5.654m6.815 14.255q1.132.743.754 2.186" class="st10"/><path d="M36.093 107.583q1.3.615.868 2.373M6.655 95.934c-.602 1.124-1.336 1.205-2.117.951h-.002m2.788.906c-.329.845-1.057 1.088-1.999 1.012m17.44-6.238c1.193 1.057 2.823 1.387 4.326 1.031m-7.886-.937c1.055.422 2.453.394 3.56-.093m12.695 1.707c.589.864 1.411 1.15 2.165 1.15h.002m-5.795-.73c1.162.682 2.544.457 3.628-.42m-18.612 22.903h31.799m-34.597-2.779v-4.164m2.798 6.943q-.103 0-.205-.008c-1.328-.104-2.592-1.209-2.592-2.771m2.797-2.29h31.801m-31.801 0c-1.4 0-2.797-.743-2.797-1.818m2.797-1.874h11.997m9.624 0h10.18m-31.801 0c-1.4 0-2.797.743-2.797 1.818m5.226 21.805h13.566m-16.364-2.779v-4.164m2.798 6.943a2.86 2.86 0 0 1-2.298-1.204 2.7 2.7 0 0 1-.499-1.575m2.797-2.29h14.887m-14.887 0c-1.4 0-2.797-.743-2.797-1.818m2.797-1.874h15.895m-15.895 0q-.121 0-.242.009c-1.315.078-2.555.797-2.555 1.809m-1.52 21.567h13.916m-16.714-2.78v-4.164m2.798 6.944a2.87 2.87 0 0 1-2.047-.897 2.7 2.7 0 0 1-.75-1.883m2.797-2.29h15.238m-15.238 0c-1.4 0-2.797-.743-2.797-1.817m2.797-1.874h16.25m-16.25 0c-1.4 0-2.797.743-2.797 1.817m39.283-25.321v-4.164m-2.797 6.943q.272 0 .541-.056c1.197-.247 2.257-1.293 2.257-2.723m-2.798-2.29c1.397 0 2.797-.743 2.797-1.818m-2.797-1.874c1.397 0 2.797.743 2.797 1.818m-14.46 44.356h-8.141m8.115-37.413-1.672 6.131-1.005 3.694-1.378 5.055-1.603 5.871-1.005 3.691-1.378 5.055-1.714 6.284m13.811-35.781-9.754 35.781m11.818-28.482-5.562 20.408-.56 2.054-1.681 6.163m9.794-35.924-1.991 7.297m-15.874 28.484c-.262.96.637 1.625 1.64 1.643h.013m2.402-1.643c-.246.9.525 1.539 1.448 1.632q.101.01.205.011m2.363-1.5c-.231.889-.807 1.489-1.616 1.489m18.84 0h4.816m-8.115-37.413 9.754 35.781m-13.809-35.781 9.754 35.781M43.08 124.473v.002l5.568 20.421 1.057 3.878 1.18 4.326m8.072-.143c.262.965-.645 1.632-1.653 1.643m-6.418-1.5c.231.889.807 1.489 1.616 1.489m2.445-1.489c.231.889.807 1.489 1.616 1.489m-43.219 0H8.528m8.115-37.413-9.754 35.781m6.012-7.181-1.958 7.181m6.031-22.121-1.86 6.822m5.558-20.384-1.637 6.005m-2.316 23.368-.004.015-1.755 6.438m5.736-21.038-1.589 5.83m5.646-20.716-1.65 6.058M6.888 152.957c-.259.96.637 1.625 1.64 1.643h.013m2.403-1.643c-.244.9.528 1.539 1.448 1.632q.101.01.205.011m2.363-1.5c-.231.889-.807 1.489-1.616 1.489m15.541-37.413 1.661 6.097m6.456 23.677.497 1.824 1.14 4.183M24.83 117.176l1.663 6.101.002.004m2.383 8.746.002.011 1.583 5.802m-5.636-5.797 1.546 5.669m12.266 15.245c.264.965-.643 1.632-1.653 1.643m12.72-5.826H37.49m11.158-3.878h-11.08m36.594-72.855a6.5 6.5 0 0 0 2.315 2.831q.163.112.336.21m1.901-7.214-3.486 3.196-1.066.977m6.948-1.456-3.471 3.182-1.081.99m4.552-4.172c.438-.381.085-1.23-.495-1.904a3.5 3.5 0 0 0-.868-.743c-.392-.228-.776-.295-1.033-.069m-2.25-7.033-7.247 1.399m7.851 2.162-6.336 1.224m6.336-1.224c.242-.041.408-.225.51-.492.233-.617.118-1.67-.218-2.37-.218-.455-.53-.76-.896-.7m-7.247 11.771c1.98-2.16 3.929-3.191 6.011-1.543" class="st10"/><path d="M74.044 76.681c.515.516 1.238.841 1.962.849.185.007.371-.013.552-.052.896-.197 1.659-.977 1.733-1.887.074-.923-.297-1.397-.611-1.779M66.559 61.763a7 7 0 0 0-1.23.368c-.44.18-.874.414-1.166.786-.294.373-.416.908-.198 1.328.194.375.624.589 1.049.626q.186.015.373-.007c.297-.03.591-.121.87-.228a8 8 0 0 0 1.393-.685l.111-.069c.379-.245.754-.555 1.012-.919a1.7 1.7 0 0 0 .334-1.006c-.015-.587-.412-1.12-.918-1.423-.508-.303-1.11-.405-1.703-.427-2.174-.08-4.467 1.033-5.352 3.009-.351.786-.604 1.46-.848 2.782-.329.552-1.286 1.285-1.286 1.285s-1.561 1.293-2.438 1.868" class="st10"/><path d="M63.152 69.257c.382.273.661.407 1.121.494.46.089.968.02 1.341-.264.286-.217.46-.524.569-.867.1-.31.146-.65.168-.973.07-.979-.351-2.368-.962-2.756m-1.978 2.596c-.092-.522-.135-1.066.004-1.577.139-.513.491-.992.992-1.172m-6.244 8.782c1.986-1.293 3.68-2.704 4.988-4.264m3.129-.608c.726.394 1.753.067 2.115-.672q.062-.13.103-.267a3 3 0 0 0 .085-.396 4.35 4.35 0 0 0-.896-3.304" class="st10"/><path d="M68.567 67.729c.482.225 1.088.095 1.487-.256.399-.349.604-.886.623-1.415q.008-.215-.02-.429a3.9 3.9 0 0 0-.331-1.105c-.299-.661-.778-1.302-1.478-1.506m3.085 15.219c.471.585 1.203.975 1.951.997q.188.007.375-.02c.861-.121 1.637-.825 1.746-1.683l.004-.024" class="st10"/><path d="M68.866 78.728c.506.633 1.027 1.278 1.718 1.705.689.429 1.596.604 2.322.24.543-.271.927-.834.979-1.434m7.705-14.66a.677.677 0 0 1-1.354 0 .676.676 0 0 1 1.354 0m1.234.312 13.105-2.628m-18.353 1.642h.002c1.544-.327 2.976 2.671 2.169 4.032m-2.387-6.402a3.9 3.9 0 0 1 1.173-.206c1.175-.033 2.438.423 3.297 1.38.499.557.863 1.282.994 2.182m-2.211 3.789h.002l10.574-1.826m4.74-4.591c0 1.746-1.356 4.01-4.74 4.591m-9.226-4.17 9.9-8.458m-13.332 7.008 6.776-6.114m6.556-.894c-1.387-1.075-4.016-1.404-6.556.895m37.371 75.019h17.983m-17.983 21.188h17.983m-17.983-33.536h5.989m-4.707 7.32h15.419m-15.419-3.38h4.707m-5.989 8.408c-3.117 0-5.112-1.594-5.989-3.637-1.563-3.644.434-8.711 5.989-8.711" class="st10"/><path d="M123.96 125.112c-2.625 0-2.625-3.38 0-3.38m-1.282 29.596c-2.302 0-4.336-.349-6.107-.966-6.669-2.32-9.553-8.44-8.622-14.017.704-4.218 3.593-8.124 8.681-9.833m24.718 28.287h-19.356" class="st10"/><path d="M125.589 140.071c-2.025 5.224-9.844 4.981-11.645.785m8.048 13.943c-4.367 0-5.817-2.559-5.42-4.437m-2.628-9.506c-.774-1.586-2.705-4.81-5.917-4.498m20.662-11.246v-11.56m11.972 4.24h-5.989m4.707 3.94h-4.707m5.989 8.408c3.118 0 5.113-1.594 5.989-3.637 1.563-3.644-.434-8.711-5.989-8.711" class="st10"/><path d="M139.379 125.112c2.625 0 2.625-3.38 0-3.38m1.282 29.596c2.302 0 4.336-.349 6.107-.966 6.669-2.32 9.553-8.44 8.623-14.017-.705-4.218-3.593-8.124-8.682-9.833" class="st10"/><path d="M137.75 140.071c2.026 5.224 9.844 4.981 11.645.785m-8.047 13.943c4.367 0 5.817-2.559 5.42-4.437m2.627-9.506c.774-1.586 2.706-4.81 5.917-4.498m-20.662-11.246v-12.949m-9.061 27.908c1.426-5.277 10.23-5.654 12.161 0m-15.682-29.169c-.057.468-.022.954.168 1.387.189.431.547.804.998.944.602.191 1.28-.052 1.742-.481.463-.428.742-1.016.957-1.607m-7.016-1.506a1.5 1.5 0 0 1-.405-.073c-.815-.263-1.389-1.188-1.276-2.054.114-.865.798-1.582 1.627-1.881q.202-.077.414-.114m10.74 1.789c.072.908 1.007 1.651 1.914 1.521.905-.13 1.592-1.107 1.404-1.998m3.574-.795c.717.206 1.493-.481 1.489-1.222-.002-.743-.648-1.386-1.38-1.531m-10.644 5.199c.543.531 1.38.745 2.115.542a2.22 2.22 0 0 0 1.524-1.551m3.39-.566c.205.57.547 1.105 1.044 1.454.499.349 1.16.492 1.736.29.501-.177.9-.615 1.029-1.126a1.63 1.63 0 0 0-.375-1.478m-6.502 5.241c.138 1.135 1.221 2.075 2.37 2.056.783-.011 1.522-.468 1.945-1.118a2.24 2.24 0 0 0 .358-1.012m4.196-.126c.613.551 1.57.698 2.312.336.25-.121.468-.301.645-.515.342-.423.519-.982.434-1.519-.116-.732-.726-1.363-1.452-1.514a1.3 1.3 0 0 0-.234-.033m.155-4.131q.115-.007.225-.028c.752-.139 1.395-.776 1.511-1.53.083-.55-.12-1.122-.497-1.529a1.8 1.8 0 0 0-.698-.471m4.844-1.161s.013.015.022.022c.637.635 1.707.771 2.499.353q.124-.064.237-.147c.511-.377.805-.999.829-1.627a2 2 0 0 0-.242-1.059m4.653-1.779q.055.046.111.084c.822.581 2.077.381 2.78-.351.536-.561.763-1.356.715-2.134a3.3 3.3 0 0 0-.164-.843m2.893-3.542c1.097.208 2.3-.379 2.802-1.371.499-.983.266-2.279-.541-3.031q-.01-.012-.022-.022m1.128-5.396c1.175-.087 2.097-1.267 2.064-2.439-.032-1.174-.881-2.231-1.958-2.712M145.92 93.54c.362 1.051 1.722 1.584 2.76 1.163 1.035-.418 1.639-1.623 1.48-2.723m3.641-2.177s.013.007.02.009c.883.405 2.03.126 2.62-.641.598-.771.567-1.956-.065-2.697m1.816-3.486c.938.03 1.862-.57 2.213-1.434.353-.864.105-1.935-.591-2.561m-24.71 32.213c.377 1.102 1.421 1.952 2.583 2.097.432.054.905.004 1.234-.278.523-.452.458-1.267.249-1.928q-.006-.025-.016-.052m-13.179.085v.019c-.138.78.255 1.621.926 2.045.515.325 1.169.401 1.756.243q.285-.078.538-.23a2.38 2.38 0 0 0 1.136-1.999m-11.839-1.58c-.44.442-.843.958-.976 1.567s.069 1.324.61 1.64c.279.164.619.208.944.188 1.271-.073 2.335-1.033 2.978-2.131l.033-.055m-3.262-5.314c-.466-.578-.634-1.363-.503-2.091a2.5 2.5 0 0 1 .54-1.178m22.208 5.505q.053 0 .103-.002c.989-.054 1.879-.917 1.936-1.9.059-1.021-.783-2.011-1.803-2.123" class="st10"/><path d="M142.1 100.343q.102.14.218.267c.418.459.97.803 1.58.927.724.145 1.522-.041 2.059-.546.527-.494.756-1.3.514-1.978a.1.1 0 0 0-.011-.035m3.617-1.384a3.16 3.16 0 0 0 3.033-.128 3.12 3.12 0 0 0 1.448-2.628v-.022m3.567-2.467c1.07.435 2.411-.097 2.971-1.101.146-.26.24-.544.281-.836a2.93 2.93 0 0 0-.697-2.37m-10.485 3.895c.532.823 1.794.986 2.614.444.816-.537 1.173-1.61 1.012-2.569l-.002-.015m2.638-3.243c.865.241 1.853-.269 2.226-1.083.373-.812.148-1.835-.473-2.481m1.624-4.084c.22.102.482.009.693-.113a2.73 2.73 0 0 0 1.337-2.175 2.73 2.73 0 0 0-1.101-2.303m2.309 9.221c1.146-.217 2.114-1.178 2.328-2.32.212-1.133-.331-2.366-1.31-2.981q-.012-.01-.022-.015m-1.446-11.078c.55-.825.968-1.757 1.058-2.74.089-.986-.186-2.028-.87-2.745s-1.805-1.042-2.725-.669m-3.465-3.803.002-.011c.177-.893.334-1.874-.135-2.656a1.92 1.92 0 0 0-1.727-.903 1.91 1.91 0 0 0-1.558 1.023q-.026.043-.044.087m-4.574-2.38q.007-.032.011-.065c.161-.877-.201-1.822-.879-2.409-.693-.602-1.683-.832-2.588-.654-.902.18-1.711.743-2.239 1.495l.011-.017c.044-.071.087-.147.131-.219m-5.37-.252a1 1 0 0 0-.046-.08.1.1 0 0 0-.022-.037c-.543-.927-1.644-1.495-2.727-1.467-1.132.032-2.209.676-2.839 1.61m-5.165.146-.004-.007c-.606-1.044-1.928-1.56-3.133-1.397-1.188.16-2.244.899-2.978 1.839l-.033.041m-4.779-2.03s.009-.015.011-.022a3.25 3.25 0 0 0 .338-2.515 3.26 3.26 0 0 0-1.583-1.969q-.017-.013-.037-.022m7.777-5.238a3.7 3.7 0 0 1-.615 1.035c-.447.54-1.038.96-1.701 1.192a3.93 3.93 0 0 1-3.209-.299m9.414-1.698c.207.975 1.217 1.711 2.215 1.618.984-.091 1.827-.979 1.871-1.958q.002-.021.002-.043m5.2-.478c.157 1.2 1.271 2.206 2.488 2.242 1.192.037 2.343-.858 2.607-2.01q.01-.036.015-.071m5.53.073c.303.691.682 1.399 1.332 1.787.649.39 1.513.379 2.167 0a2.34 2.34 0 0 0 1.134-1.857m4.787.077c.299.929.912 1.846 1.854 2.121 1.009.297 2.134-.308 2.62-1.235a2 2 0 0 0 .155-.368c.325-1.033-.081-2.244-.948-2.89a2 2 0 0 0-.12-.084m.532-4.693.065-.015c1.136-.267 1.984-1.452 1.849-2.606-.14-1.178-1.28-2.153-2.472-2.112m-.075-4.897q.083-.021.162-.05c.737-.262 1.319-.938 1.43-1.707.12-.828-.325-1.712-1.073-2.093a2.01 2.01 0 0 0-2.163.266q-.075.065-.143.141c-.029.03-.055.072-.035.106.019.035.089-.007.056-.03m-1.694 14.764c.445.039.864-.245 1.132-.6a2.27 2.27 0 0 0 .314-2.108 2.28 2.28 0 0 0-1.607-1.41m-7.243 4.894c.044 1.046 1.053 1.954 2.106 1.891.949-.054 1.766-.886 1.86-1.813a1.6 1.6 0 0 0 .007-.312m-12.452 1.257c.371.858 1.3 1.445 2.239 1.412.94-.03 1.827-.678 2.139-1.56" class="st10"/><path d="M152.218 34.004q.008.078.022.154a2.17 2.17 0 0 0 1.295 1.586 2.19 2.19 0 0 0 2.165-.338c.301-.249.534-.596.598-.981.061-.386-.068-.81-.373-1.059m-.24-4.165c.453-.117.791-.507.977-.934.484-1.129-.048-2.589-1.149-3.144m-11.248 9.787c.264.856 1.308 1.321 2.18 1.1.87-.219 1.526-.996 1.777-1.854m11.156 2.132c.768.225 1.646-.158 2.078-.83.432-.669.436-1.564.1-2.286-.336-.721-.981-1.276-1.709-1.603m-.556-9.586h.059c1.02 0 1.969.89 2.012 1.906.026.633-.257 1.25-.667 1.733s-.94.849-1.482 1.181h-.003a.25.25 0 0 1 .164-.208m-8.444 11.976s.004.015.008.022c.251.685.718 1.306 1.354 1.67.644.368 1.463.453 2.141.152.67-.299 1.158-.996 1.141-1.724v-.028m-9.452-.064-.011.045c-.276 1.176-1.419 2.099-2.638 2.119-1.231.02-2.42-.888-2.716-2.078m-5.193-.302-.009.054c-.157 1.094-1.108 2.03-2.215 2.171-1.123.143-2.3-.55-2.715-1.597-.013-.039-.037-.082-.076-.087-.024-.002-.037.024-.037.046 0 .015.009.028.026.024m-4.33.303v.013c.028.576-.373 1.133-.909 1.354-.543.223-1.188.13-1.685-.18-.495-.312-.848-.819-1.04-1.369m-7.825 5.136a2.6 2.6 0 0 0 1.838-1.12 2.6 2.6 0 0 0 .336-2.117m3.83 9.858-.006-.041a3.02 3.02 0 0 0-1.779-2.312 3.05 3.05 0 0 0-2.944.344m48.234 24.061c.791-.505 1.391-1.322 1.576-2.238.187-.916-.059-1.922-.687-2.617-.619-.683-1.605-1.033-2.509-.847q-.025.002-.048.009m-2.536-6.298c.443-.685.619-1.545.43-2.336-.19-.791-.761-1.495-1.522-1.796-.761-.299-1.692-.162-2.298.381m-3.495-2.56c.166-.806.024-1.681-.436-2.364-.462-.68-1.254-1.148-2.082-1.161-.827-.015-1.659.451-2.026 1.187m-5.851-1.665c-.29-1.04-1.352-1.776-2.438-1.815-1.051-.037-2.073.518-2.721 1.341q-.033.04-.063.08.022-.059.041-.117.05-.127.094-.256m-5.786.479-.009-.059c-.177-1.053-1.334-1.774-2.409-1.685-1.097.093-2.045.862-2.614 1.796m9.63-31.735a2.26 2.26 0 0 0 1.221-.505c.39-.312.673-.754.748-1.248.141-.934-.561-1.941-1.505-2.049m-3.462-1.742c.724-.299 1.171-1.144 1.009-1.904-.161-.762-.911-1.356-1.694-1.343m4.014 4.924.055-.041c.9-.641 1.548-1.696 1.491-2.797-.057-1.122-.977-2.201-2.106-2.247m-2.913 6.92c.55-.197 1.06-.542 1.371-1.031.312-.487.404-1.133.155-1.66-.248-.524-.863-.877-1.432-.75m2.81-3.537c.835-.457 1.278-1.517 1.031-2.433s-1.151-1.61-2.106-1.631c-.924-.024-1.827.576-2.182 1.426l-.033.076m-5.082.859-.006-.019c-.077-.23-.153-.461-.266-.676-.522-1.005-1.79-1.536-2.894-1.27-1.072.258-1.918 1.213-2.119 2.29q-.01.046-.017.095c-.007.032-.063.011-.059-.022.006-.032.041-.05.072-.061m-4.779-.192q-.018-.029-.039-.058c-.33-.507-.796-.942-1.37-1.142a2 2 0 0 0-.405-.093c-.491-.063-1.005.061-1.369.388-.277.251-.449.6-.535.962-.261 1.107.356 2.357 1.396 2.829m.427 9.227a3.1 3.1 0 0 1-1.417-.715 3 3 0 0 1-.75-1.012c-.148-.327-.235-.691-.181-1.044.081-.505.449-.929.892-1.192.379-.223.806-.342 1.24-.427l.221-.041m-3.218 7.462c-.323-.581-.809-1.094-1.431-1.339a2.1 2.1 0 0 0-.641-.141c-.414-.024-.835.076-1.164.316a1 1 0 0 0-.089.067c-.672.565-.748 1.558-.681 2.429m-4.7 2.635a3 3 0 0 0-.161-.095c-.657-.366-1.426-.544-2.172-.438-.807.115-1.572.578-1.982 1.278a2.3 2.3 0 0 0-.192 1.891 2 2 0 0 0 .203.418m-3.504 4.166q-.03-.01-.061-.015c-.985-.254-2.119.286-2.529 1.213-.342.769-.148 1.724.414 2.342q.193.215.44.366m18.361-15.154a2.38 2.38 0 0 1 .56-2.301 2.41 2.41 0 0 1 2.294-.635m-22.073 23.24a2.8 2.8 0 0 1-.663-.416c-.717-.598-1.147-1.538-1.079-2.47.085-1.194.981-2.286 2.139-2.611m4.262 7.079c-.857-.329-1.507-1.144-1.626-2.05a2.6 2.6 0 0 1 1.031-2.4m-3.037 7.836c-.318.046-.632-.048-.916-.21a2.4 2.4 0 0 1-.414-.301 3.54 3.54 0 0 1-1.175-2.344 3.53 3.53 0 0 1 .791-2.5m6.589 5.738a6 6 0 0 1-.578.007 3.3 3.3 0 0 1-.988-.186c-.497-.182-.946-.537-1.151-1.023s-.142-1.059.1-1.527c.242-.47.65-.841 1.105-1.109m-1.551 8.529a3.2 3.2 0 0 1-.807-.071c-.951-.208-1.81-.836-2.257-1.701-.571-1.103-.434-2.53.333-3.507" class="st10"/><path d="M101.251 52.926c-1.081.225-2.302-.251-2.854-1.2-.543-.932-.325-2.253.532-2.901q.026-.022.052-.041m-.732 8.982a2.92 2.92 0 0 1-2.597-1.352 2.89 2.89 0 0 1-.033-2.914" class="st10"/><path d="M103.348 57.014c-1.042.36-2.304-.078-2.897-1.003-.591-.925-.454-2.247.316-3.031m3.1-25.924a3.07 3.07 0 0 1 1.611-2.684q.276-.143.574-.225c.859-.238 1.829-.095 2.566.412m-12.477 9.833c-.488-1.062-.425-2.379.24-3.341.667-.964 1.943-1.497 3.083-1.213m43.163 46.908a2.2 2.2 0 0 1-.928-.459c-.445-.373-.755-.914-.807-1.493l-.004-.076c-.029-.498.13-.997.42-1.402.236-.331.556-.6.931-.756m-3.316-1.971a2.93 2.93 0 0 1-2.662.377 2.9 2.9 0 0 1-1.796-1.988m-5.423.623c-.292 1.068-1.327 1.891-2.441 1.939-1.11.046-2.209-.68-2.593-1.714q-.005-.007-.006-.013m-5.082-.684a3 3 0 0 1-.112.173c-.603.871-1.643 1.458-2.707 1.399-1.119-.063-2.183-.916-2.366-2.015q-.005-.016-.006-.03m-4.383-1.928a3 3 0 0 1-.115.132c-.375.414-.835.75-1.363.929-.582.199-1.247.193-1.796-.08-.6-.299-1.021-.888-1.202-1.53a3.6 3.6 0 0 1-.098-1.306q.035-.337.116-.669m-3.345-2.385a3.4 3.4 0 0 1-.495.128c-1.024.178-2.136-.124-2.854-.869-.835-.869-1.029-2.314-.368-3.319m12.035 43.221c.338.678.778 1.322 1.382 1.785.602.464 1.382.73 2.134.611.753-.119 1.448-.669 1.625-1.406m-9.131-.914q.003.069-.004.138c-.044.627-.5 1.201-1.095 1.428-.639.241-1.391.098-1.938-.31-.484-.357-.809-.901-.951-1.486a4 4 0 0 1-.045-.234m-4.91.966q-.063.047-.126.089c-.423.301-.881.587-1.395.609-.665.03-1.299-.42-1.568-1.025-.268-.604-.203-1.326.092-1.919.279-.568.748-1.027 1.28-1.373q.036-.029.072-.05m.53-4.726a1 1 0 0 1-.172.019c-.717.048-1.43-.422-1.744-1.072-.338-.702-.255-1.558.094-2.255.277-.55.702-1.01 1.188-1.393a6 6 0 0 1 .401-.295m.51-4.698-.028-.022a3 3 0 0 1-1.193-2.444c.009-.321.072-.646.238-.921.214-.349.584-.581.99-.667.201-.043.412-.052.617-.02.613.093 1.147.498 1.491 1.009m9.861.369-.065-.121c-.283-.511-.663-.975-1.156-1.287-.531-.336-1.207-.474-1.807-.282-.514.162-.946.596-1.073 1.109a1.3 1.3 0 0 0-.037.266m13.378.862q-.017-.078-.037-.152c-.281-.999-1.245-1.777-2.289-1.831-1.075-.052-2.139.665-2.492 1.673q-.014.034-.024.067m14.943.305a3 3 0 0 0-.248-.388 2.98 2.98 0 0 0-2.239-1.161 2.97 2.97 0 0 0-2.573 1.404c-.026.043-.061.093-.113.091-.051-.002-.061-.1-.011-.091m14.254.011q-.162-.213-.338-.423c-.46-.546-.996-1.04-1.687-1.14-.951-.141-1.843.544-2.329 1.382q-.043.076-.083.154a.18.18 0 0 0 .138-.219m8.433-.952a2.3 2.3 0 0 1-.473-1.111 2.3 2.3 0 0 1 .065-.99 2.38 2.38 0 0 1 1.493-1.545" class="st10"/><path d="M138.843 70.689a2.17 2.17 0 0 0 .538 2.013 2.2 2.2 0 0 0 2.006.602m-12.303-3.716c.176.631.711 1.127 1.33 1.348.619.223 1.308.195 1.942.017.934-.26 1.817-.901 2.096-1.824m-15.652.084q.002.046.008.089c.133 1.178 1.149 2.205 2.335 2.346 1.217.145 2.479-.661 2.854-1.818m-14.762-3.117q-.004.073-.004.147c0 .693.255 1.389.732 1.893.515.54 1.284.836 2.026.741.632-.082 1.197-.429 1.713-.802m-12.639-6.671c-.431.773-.211 1.811.421 2.431.633.62 1.601.836 2.473.665.261-.052.519-.134.761-.247m10.975-49.151c-1.005-.267-1.773-1.246-1.788-2.281-.015-1.01.689-1.989 1.651-2.307l.071-.024m2.126-2.959q.013-.062.029-.126c.213-.932.789-1.872 1.722-2.065.676-.141 1.387.162 1.897.626s.859 1.075 1.192 1.675m5.281-.321.008-.022c.28-.708.711-1.376 1.335-1.815.628-.444 1.476-.626 2.195-.349.589.225 1.027.715 1.441 1.185m19.213 11.78c.144-.24.307-.472.49-.687.55-.646 1.273-1.144 2.102-1.291 1.107-.199 2.379.371 2.745 1.425m-10.339.403a3 3 0 0 0-.104-.221c-.567-1.068-1.845-1.731-3.053-1.556-1.266.184-2.339 1.282-2.496 2.543l-.009.067m-5.267 61.522q0-.048.004-.095a2.49 2.49 0 0 1 1.334-2.041 2.52 2.52 0 0 1 2.527.171m-12.763 1.978c.14-1.035 1.247-1.776 2.296-1.699s1.964.832 2.44 1.764m-9.635.054c-.438-.897-1.419-1.506-2.422-1.504-1.005.002-1.982.615-2.416 1.514-.026.052-.065.115-.124.106q-.023-.004-.026-.024c-.009-.035.022-.089.046-.054m-4.91-.081c-.166-.981-1.036-1.805-2.032-1.917-.994-.113-2.03.492-2.414 1.412-.017.041-.028.098-.011.132a.07.07 0 0 0 .031.03c.057.026.052-.11.013-.065m-9.785-.199c.331-1.064 1.504-1.725 2.623-1.692 1.118.033 2.156.648 2.93 1.449m-7.875 3.41c-.966.578-1.892 1.456-1.956 2.574-.05.869.453 1.696 1.121 2.26a.19.19 0 0 0 .044-.219m.469 5.039c-.471.332-.892.73-1.247 1.181-.497.631-.872 1.445-.672 2.223a1.74 1.74 0 0 0 1.452 1.263m6.687 2.94c-.321.673-.971 1.13-1.625 1.492-.601.329-1.266.615-1.951.566-.685-.048-1.382-.529-1.463-1.207m9.02-.531.022.043c.239.499.518.991.926 1.363.421.386 1.001.637 1.566.544.529-.085.985-.468 1.231-.942.184-.36.26-.772.212-1.172q-.002-.04-.009-.081m5.196 1.014.019.048c.471 1.198 1.978 1.885 3.199 1.445m28.82-85.107c.353-.646.831-1.239 1.461-1.623s1.426-.537 2.126-.299c.436.147.811.435 1.144.754.264.253.508.531.724.825m-11.089 1.368c-.165-.719-.826-1.263-1.548-1.434-.706-.169-1.454-.028-2.125.247l-.053.022M76.813 47.172c.595-2.193 5.106-2.439 6.011-.953m.44-6.714c1.55-1.187 5.32.446 5.32 2.81m-2.66 34.942c-1.005-2.082 1.256-5.83 3.451-5.715m-12.562-24.37c.999 1.274 5.106 1.274 6.011-.953m.44-6.714c-.118 2.056 3.65 3.963 5.32 2.81m-2.66 34.942c2.66 0 4.448-4.173 3.451-5.715m31.869-49.048c-2.156-.721-3.423-3.778-2.856-4.786m4.186 4.032c-.532-2.782-2.401-4.736-4.186-4.032m-9.092 13.703c-2.115-1.218-5.684-.581-5.948 1.109m6 .42c-1.539 1.451-5.481.864-6-.42m39.245 25.224c.959-2.401 3.665-3.122 5.363-1.848m-4.517 3.22c2.819.264 5.136-1.595 4.517-3.219m-42.377 37.29c-2.224 1.2-3.029 3.659-2.071 4.881m3.54-4.389c.26 2.706-1.469 4.961-3.54 4.389m40.528 11.645a2.32 2.32 0 0 0 2.435-.49 2.29 2.29 0 0 0 .506-2.417m.041.06c.613.275 1.391.033 1.803-.496.413-.526.469-1.28.221-1.902-.249-.622-.694-1.155-1.298-1.447.886.294 1.926-.332 2.187-1.222.264-.89-.183-1.9-.955-2.424m-6.75 11.579a1.94 1.94 0 0 0 1.692-1.315m-5.012-33.164c.196-.906 1.011-1.647 1.938-1.755m-6.807 1.747a2.58 2.58 0 0 0-2.363-1.543c-1.001.013-1.96.68-2.32 1.607m-5.274-.129-.011-.063c-.196-1.04-1.168-1.887-2.232-1.935-1.075-.048-2.13.728-2.403 1.761l-.009.03m-4.362.012-.039-.152h-.003c-.183-.62-.542-1.191-1.061-1.581-.561-.42-1.311-.607-1.989-.429-.649.171-1.21.695-1.367 1.343q-.01.041-.017.082m-5.235.217a2 2 0 0 0-.081-.165c-.381-.706-1.251-1.133-2.049-.977-.855.167-1.531.977-1.541 1.839v.015m-3.271 1.569q-.02-.002-.041 0c-.907-.024-1.803.513-2.202 1.321-.015.035-.041.076-.078.085q-.01.004-.024.002c-.046-.009-.013-.106.017-.067m42.83-2.782-.026-.039c-.312-.464-.647-.914-1.072-1.276-.437-.375-.975-.65-1.548-.689-1.049-.069-2.078.773-2.209 1.809" class="st10"/><path d="M129.271 76.527a2.98 2.98 0 0 0-2.531-1.683c-1.068-.041-2.137.552-2.66 1.48l-.011.015c-.019.035-.052.067-.089.054-.044-.015.026-.089.028-.043m-4.746-.23c-.076-.206-.151-.414-.251-.609-.414-.812-1.319-1.391-2.232-1.304-.912.087-1.727.914-1.681 1.824l-.013-.208m-4.537-.448a3.06 3.06 0 0 0-2.658-1.484c-1.066.022-2.098.656-2.592 1.594a.2.2 0 0 1-.027.037.04.04 0 0 1-.037.015c-.028-.004-.013-.063.009-.043m-3.63.886c-.63-.316-1.382-.448-2.054-.225-.669.221-1.223.845-1.236 1.547-.002.037.007.085.044.095h.007c.031 0 .044-.067.009-.056m66.295 9.127q.055.12.096.243c.295.877.087 1.911-.538 2.595-.685.752-1.834 1.044-2.8.715m6.072-7.353c.678.266 1.492.065 2.03-.42.539-.485.813-1.22.822-1.943.009-.687-.205-1.361-.53-1.963l-.056-.1m1.094-5.208c1.136-.204 1.971-1.369 1.914-2.515-.054-1.107-.848-2.106-1.875-2.539-.037-.02-.074-.033-.111-.048m-1.249-5.941a6.7 6.7 0 0 0 .756-2.184c.188-1.174-.004-2.511-.902-3.293a2.47 2.47 0 0 0-2.285-.492m-3.818-3.897q.068-.182.12-.37a3.3 3.3 0 0 0 .133-1.243c-.054-.546-.292-1.09-.719-1.436-.818-.665-2.109-.433-2.896.264m-4.532-2.25.004-.043c.14-1.315-.907-2.608-2.209-2.901-1.314-.297-2.744.34-3.549 1.417l.02-.033.1-.169m-5.318-.093-.021-.052c-.421-1.044-1.494-1.798-2.626-1.846-1.151-.048-2.3.639-2.797 1.673-.022.045-.054.102-.107.1-.026-.002-.039-.028-.039-.052s.013-.045.037-.033m-5.424.334-.024-.035a.1.1 0 0 0-.02-.026c-.665-.973-1.918-1.491-3.1-1.367-1.206.128-2.305.875-2.959 1.889a.04.04 0 0 1-.035.017m-4.582-2.183q.04-.066.076-.134a2.9 2.9 0 0 0 .281-2.028 2.94 2.94 0 0 0-1.264-1.794m42.998 46.953c.953.362 2.1-.173 2.601-1.057.502-.884.436-2.006.026-2.936m2.383-4.365c.297.1.626.002.896-.152.846-.481 1.296-1.499 1.248-2.468-.051-.966-.539-1.872-1.195-2.587" class="st10"/><path d="M170.835 68.436a1 1 0 0 0 .072-.056c1.045-.799 1.668-2.169 1.422-3.458-.251-1.317-1.494-2.424-2.843-2.383l.087-.059m-2.575-6.036.022-.059c.27-.674.447-1.399.386-2.121-.063-.743-.406-1.486-1.018-1.915-.369-.258-.814-.392-1.261-.436a3.5 3.5 0 0 0-1.67.251m-3.66-2.505c.163-.763.019-1.597-.43-2.238-.451-.641-1.21-1.07-1.997-1.079s-1.574.42-1.951 1.105q.029-.123.061-.247m-5.878-1.309c-.32-1.057-1.347-1.865-2.459-1.928-1.11-.065-2.226.617-2.669 1.633v-.195m-5.764.092c-.225-.423-.46-.858-.849-1.14a2.1 2.1 0 0 0-.691-.314c-1.432-.394-3.093.381-3.719 1.718l-.033.074.013-.1.026-.184m-6.172.722c.273-.99-.442-2.06-1.397-2.452-.92-.375-1.976-.236-2.909.115m0-.001q-.055.019-.111.041c-.048.084.087.191.159.126.053-.05.011-.141-.048-.167m0 0q-.032-.017-.065-.002m-12.273-22.193c.349-.734.82-1.434 1.494-1.893.673-.457 1.578-.635 2.324-.305m-8.44 4.487c.377-1.404 1.975-2.361 3.404-2.036m54.368 14.088c1.097.377 2.431-.136 2.987-1.15.552-1.005.27-2.385-.63-3.1l-.02-.017m.281-4.691q.081-.022.162-.048c.717-.232 1.347-.737 1.685-1.406.36-.719.353-1.623-.068-2.309-.416-.68-1.242-1.105-2.036-.999l-.024.002m-.268-5.147c.24-.02.473-.095.685-.21q.19-.1.355-.245c.82-.715.905-2.108.179-2.916-.6-.665-1.662-.83-2.466-.457-.17.08-.329.182-.469.31" class="st10"/><path d="M166.211 31.751c.301.084.628.024.914-.102.922-.401 1.463-1.484 1.303-2.474-.154-.968-.92-1.792-1.857-2.104l-.059-.02m-2.78 9.102a3.68 3.68 0 0 1-1.131 2.413 3.7 3.7 0 0 1-2.449 1.005q-.017.002-.035.002m6.031-17.25c1.073-.349 1.892-1.363 2.008-2.478.113-1.116-.484-2.273-1.463-2.829m-7.797-2.958c.096-.303.24-.591.426-.849.501-.706 1.29-1.213 2.151-1.339 1.18-.171 2.436.381 3.101 1.363m-16.4 1.633a2.6 2.6 0 0 1 .351-1.304c.525-.921 1.594-1.51 2.658-1.464a2.99 2.99 0 0 1 2.505 1.638q.01.023.022.045m-10.267.251c.495-.186 1.012-.386 1.397-.739q.085-.075.157-.16a1.85 1.85 0 0 0 .269-1.95 1.87 1.87 0 0 0-1.681-1.042m-.399-5.219q.091-.085.176-.178c.48-.526.789-1.22.761-1.928-.033-.791-.534-1.573-1.286-1.833-.517-.18-1.101-.108-1.607.104a3.15 3.15 0 0 0-1.461 1.256m-5.067.631a2 2 0 0 0-.065-.141c-.512-1.07-1.736-1.768-2.926-1.646-1.049.106-1.997.841-2.403 1.802q-.112.262-.165.546m-8.743.895q-.007-.038-.011-.08c-.118-.94.488-1.928 1.389-2.244.927-.325 2.058.1 2.54.951" class="st10"/><path d="m148.218 14.569-.02-.056c-.214-.6-.7-1.096-1.297-1.326a2.26 2.26 0 0 0-1.908.149m14.235-.197c-.242-1.189-1.646-1.898-2.845-1.664-1.193.234-2.141 1.183-2.695 2.26l-.007.011m-10.133-3.625s.01-.006.015-.011c.961-.665 1.72-1.711 1.759-2.875.039-1.159-.804-2.361-1.96-2.491l-.032-.004m-8.667-1.918c.249-1.094 1.225-1.989 2.344-2.147s2.304.431 2.852 1.413m-15.495.986c.331-1.02 1.356-1.776 2.435-1.796 1.077-.02 2.13.7 2.499 1.707M116.02 6.696c.1-.945.691-1.824 1.528-2.281a3.04 3.04 0 0 1 2.756-.054" class="st10"/></g></svg>