<svg xmlns="http://www.w3.org/2000/svg" width="169" height="152" fill="none" viewBox="0 0 169 152"><g clip-path="url(#a)"><path fill="#00b268" d="M165.472 66.626c.994.422 1.763 1.395 1.816 2.474.055 1.117-.754 2.252-1.854 2.45l-.061.085c.635.697 1.108 1.58 1.157 2.52.046.944-.389 1.936-1.208 2.405-.261.15-.58.245-.867.148l-.026.014c.315.587.522 1.244.513 1.913-.008.705-.274 1.42-.795 1.893-.522.473-1.309.67-1.966.41l-.033.023c.396.906.46 2-.026 2.86-.485.862-1.596 1.383-2.518 1.03l-.07.026c.285.855.085 1.862-.521 2.529-.663.732-1.775 1.017-2.71.696l-.057-.008a2.87 2.87 0 0 0-.676-2.31l.099-.071c1.062.202 2.227-.37 2.713-1.337.483-.958.257-2.22-.524-2.953l.028-.03c1.11-.21 2.047-1.147 2.254-2.26.205-1.104-.321-2.305-1.269-2.905l.057-.084c1.138-.084 2.031-1.235 1.999-2.377-.031-1.144-.852-2.174-1.895-2.643v-.07c.768-.491 1.349-1.287 1.528-2.18.182-.893-.057-1.872-.665-2.55-.599-.665-1.553-1.007-2.429-.825l-.015-.078c.532-.805.937-1.712 1.024-2.67.086-.961-.18-1.976-.843-2.675-.66-.699-1.747-1.016-2.638-.652l-.03-.053c.429-.667.6-1.505.416-2.276s-.737-1.456-1.473-1.75c-.737-.291-1.638-.158-2.225.372l-.04-.009c.171-.87.323-1.826-.131-2.588a1.86 1.86 0 0 0-1.672-.88 1.85 1.85 0 0 0-1.509.996l-.032-.014c.16-.785.023-1.638-.422-2.303-.448-.663-1.214-1.119-2.016-1.132-.8-.014-1.606.44-1.961 1.157l-.03-.004c.157-.855-.194-1.775-.85-2.347-.672-.587-1.63-.811-2.506-.638-.874.175-1.657.724-2.168 1.457l.011-.017-.123-.074c-.281-1.014-1.309-1.731-2.36-1.77-1.017-.035-2.007.505-2.634 1.307a.1.1 0 0 0-.021-.035c-.526-.904-1.592-1.457-2.641-1.43-1.096.032-2.138.66-2.748 1.569l-.131.021c-.171-1.026-1.292-1.729-2.333-1.642-1.062.09-1.98.84-2.531 1.75l-.01.006c-.587-1.017-1.866-1.52-3.034-1.361-1.15.156-2.172.876-2.883 1.792a2.93 2.93 0 0 0-1.723-2.253 2.93 2.93 0 0 0-2.849.336l-.076-.042a3.2 3.2 0 0 0 .327-2.451 3.17 3.17 0 0 0-1.533-1.919l.047-.082a2.53 2.53 0 0 0 1.779-1.091 2.53 2.53 0 0 0 .325-2.063v-.006a3.8 3.8 0 0 0 3.101.287 3.77 3.77 0 0 0 1.647-1.161l.021.019a2.86 2.86 0 0 1 1.224 1.748 2.84 2.84 0 0 1-.272 1.975l.036.02c-.047.082.084.185.154.122.05-.049.01-.137-.047-.163.904-.342 1.926-.477 2.816-.111.925.382 1.617 1.424 1.353 2.39h.051q.02.001.034-.016c.633-.988 1.697-1.716 2.864-1.84 1.144-.12 2.358.384 3.002 1.332l-.013.097.032-.072c.606-1.303 2.214-2.058 3.601-1.674.239.065.471.16.669.306.376.274.604.699.822 1.11h.147c0 .021.013.047.038.049.051.002.083-.053.104-.097.481-1.007 1.593-1.676 2.708-1.63 1.096.047 2.134.781 2.542 1.799l.042-.02c.428-.99 1.509-1.654 2.583-1.59 1.077.06 2.071.848 2.382 1.878l.065.038-.019.032c.779-1.05 2.164-1.67 3.437-1.381 1.26.285 2.273 1.545 2.138 2.826h.01c.366-.667 1.128-1.085 1.89-1.076s1.496.426 1.933 1.051c.435.625.574 1.438.416 2.18l.135.079c.762-.68 2.012-.906 2.803-.258.414.338.644.868.697 1.4.04.407-.017.815-.129 1.211l.038.011a3.4 3.4 0 0 1 1.617-.245c.433.042.864.173 1.22.424.594.418.925 1.142.986 1.866.059.703-.112 1.41-.373 2.067l.092.036a2.38 2.38 0 0 1 2.213.48c.869.761 1.055 2.063.874 3.208a6.6 6.6 0 0 1-.733 2.127l.025.087-.084.057c1.307-.04 2.51 1.038 2.753 2.322.238 1.256-.366 2.59-1.377 3.369M116.561 4.238c-.114-.916.472-1.878 1.344-2.187.897-.316 1.993.098 2.459.927l.045.017c.321-.994 1.313-1.731 2.358-1.75 1.042-.019 2.062.682 2.419 1.663l.01.005c.393-.938 1.311-1.653 2.327-1.757 1.152-.118 2.336.562 2.832 1.605l.026-.01c.24-1.067 1.186-1.939 2.269-2.093s2.231.42 2.761 1.377l.053.04a3.05 3.05 0 0 1 1.275-1.016c.489-.207 1.055-.276 1.555-.101.729.253 1.214 1.015 1.246 1.786.027.69-.272 1.366-.737 1.878 1.119.127 1.936 1.299 1.898 2.428-.038 1.134-.773 2.153-1.704 2.801l.022.03a1.8 1.8 0 0 1 1.627 1.015c.287.61.182 1.387-.26 1.9a2 2 0 0 1-.152.156l.148.042a2.17 2.17 0 0 1 1.847-.145 2.2 2.2 0 0 1 1.256 1.291c.042-.325.154-.64.317-.926a2.88 2.88 0 0 1 2.573-1.427 2.9 2.9 0 0 1 2.425 1.596c.537-1.05 1.455-1.974 2.609-2.202 1.161-.228 2.521.462 2.755 1.621l.091.068c.485-.688 1.25-1.182 2.083-1.305 1.142-.166 2.358.372 3.002 1.328l.038.148c.779-.363 1.807-.203 2.388.445.703.787.62 2.145-.174 2.841a1.8 1.8 0 0 1-.344.239l.144.013c.948.542 1.526 1.67 1.416 2.756-.112 1.088-.905 2.075-1.944 2.415l.004.034c.769-.103 1.569.31 1.972.973.407.67.414 1.55.065 2.25-.327.653-.937 1.144-1.631 1.37.907.304 1.648 1.107 1.798 2.05.154.965-.369 2.02-1.262 2.41-.277.123-.593.182-.885.1l-.061.074c.872.696 1.144 2.041.61 3.02-.538.988-1.83 1.489-2.892 1.121l-.057.074a3.6 3.6 0 0 1-1.095 2.352 3.6 3.6 0 0 1-2.371.98q.092-.174.15-.36c.315-1.006-.078-2.186-.918-2.815l.019-.026c.743.22 1.594-.154 2.012-.808.418-.653.422-1.524.097-2.227s-.95-1.244-1.655-1.562l-.011-.047c1.1-.26 1.921-1.414 1.79-2.54-.135-1.147-1.239-2.097-2.394-2.057.526-.323 1.039-.68 1.436-1.15.397-.472.671-1.073.646-1.69-.042-.99-.961-1.857-1.949-1.857l-.048-.122c.713-.256 1.277-.915 1.385-1.664.116-.806-.315-1.668-1.039-2.039a1.93 1.93 0 0 0-2.094.26l-.089-.157c-.354-1.028-1.585-1.583-2.657-1.389-.802.144-1.503.63-2.035 1.259l-.072-.064a6 6 0 0 0-.701-.804c-.323-.31-.686-.591-1.108-.735-.678-.232-1.448-.082-2.058.292-.61.373-1.072.952-1.414 1.58l-.066.039c-.549-1.041-1.786-1.687-2.955-1.516-1.227.18-2.265 1.25-2.417 2.478h-.017c-.16-.703-.8-1.232-1.499-1.4-.684-.164-1.408-.027-2.058.241.378-.304.652-.734.724-1.216.137-.91-.542-1.89-1.456-1.996l-.076-.104c.872-.625 1.498-1.653 1.444-2.725-.055-1.093-.946-2.145-2.04-2.189l-.008-.057c.808-.445 1.237-1.478.998-2.37s-1.114-1.569-2.039-1.59c-.895-.023-1.769.561-2.113 1.389l-.145-.061c-.401-.458-.826-.935-1.396-1.155-.696-.27-1.517-.093-2.125.34-.604.428-1.022 1.079-1.292 1.769-.074-.224-.148-.45-.258-.659-.504-.98-1.733-1.496-2.801-1.237-1.038.251-1.857 1.182-2.052 2.231h-.01c-.323-.586-.661-1.182-1.155-1.633s-1.182-.748-1.836-.61c-.904.187-1.461 1.104-1.668 2.011-.319-.494-.77-.918-1.326-1.112a1.8 1.8 0 0 0-.392-.09l.012-.09c.098-.92.67-1.777 1.48-2.222a2.93 2.93 0 0 1 2.668-.053z"/><path fill="#5be3aa" d="M93.081 33.514v-.004c-.47-1.034-.41-2.318.234-3.255.646-.94 1.881-1.458 2.985-1.182l.036-.01a2.25 2.25 0 0 1 .186-1.843c.397-.682 1.138-1.134 1.919-1.246.722-.103 1.467.07 2.102.427l.021-.038a3 3 0 0 1 1.56-2.616q.266-.14.555-.22c.832-.232 1.771-.092 2.485.402h.086c-.065-.85.009-1.818.659-2.369a1 1 0 0 1 .087-.065c.318-.234.726-.332 1.127-.308.213.012.424.059.62.137.602.238 1.073.739 1.385 1.304l.108-.059a2.32 2.32 0 0 1 .542-2.241 2.32 2.32 0 0 1 2.221-.619l.027-.087a3 3 0 0 1-1.158-.643 2.9 2.9 0 0 1-.727-.986c-.143-.319-.228-.673-.175-1.017.078-.492.435-.906.864-1.161.367-.218.781-.334 1.201-.416l-.017-.083c-.973-.26-1.716-1.214-1.731-2.222-.015-.984.667-1.938 1.598-2.249l-.055-.16c-1.007-.46-1.604-1.678-1.351-2.757.082-.352.249-.692.517-.937.353-.319.851-.44 1.326-.378q.201.023.392.09c.556.195 1.007.62 1.326 1.113.207-.907.764-1.824 1.668-2.011.654-.138 1.342.158 1.836.61s.832 1.047 1.155 1.631h.01c.195-1.047 1.014-1.978 2.052-2.229 1.068-.26 2.297.258 2.801 1.237.11.21.184.435.258.659.27-.69.688-1.34 1.292-1.77.608-.432 1.429-.61 2.125-.339.57.22.995.697 1.396 1.155l.145.06c.344-.827 1.218-1.411 2.113-1.388.925.021 1.799.697 2.039 1.59.239.892-.19 1.925-.998 2.37l.008.057c1.094.044 1.985 1.096 2.04 2.189.054 1.072-.573 2.1-1.444 2.725l.076.104c.914.105 1.593 1.087 1.456 1.996a1.95 1.95 0 0 1-.724 1.216c.65-.268 1.374-.405 2.058-.24.699.167 1.339.696 1.499 1.397h.017c.152-1.226 1.19-2.297 2.417-2.476 1.169-.17 2.406.475 2.955 1.516l.066-.038c.342-.63.804-1.208 1.414-1.581.61-.374 1.38-.524 2.058-.292.422.144.785.425 1.108.735q.386.372.701.804l.072.064c.532-.63 1.233-1.115 2.035-1.259 1.072-.194 2.303.361 2.657 1.39l.089.156a1.93 1.93 0 0 1 2.094-.26c.724.371 1.155 1.233 1.039 2.04-.108.749-.672 1.407-1.385 1.663l.048.122c.988 0 1.907.867 1.949 1.857.025.617-.249 1.218-.646 1.69-.397.47-.91.827-1.436 1.15 1.155-.04 2.259.91 2.394 2.058.131 1.125-.69 2.28-1.79 2.54l.011.046c.705.318 1.33.859 1.655 1.562s.32 1.574-.097 2.227c-.418.654-1.269 1.028-2.012.808l-.019.026c.84.629 1.233 1.809.918 2.816a2 2 0 0 1-.15.358c-.471.904-1.56 1.493-2.537 1.203-.912-.268-1.505-1.16-1.794-2.066l-.102.004c.017.71-.456 1.39-1.104 1.68-.656.294-1.45.212-2.073-.147-.616-.355-1.068-.96-1.31-1.628l-.047.017c-.044.733-.462 1.44-1.098 1.81-.633.368-1.469.38-2.098 0-.629-.379-.996-1.069-1.29-1.742l-.141-.034c-.268 1.146-1.374 2.045-2.554 2.064-1.193.02-2.343-.865-2.63-2.024l-.043-.009c-.255 1.124-1.37 1.995-2.524 1.96-1.178-.037-2.257-1.016-2.409-2.185l-.061-.009c-.152 1.066-1.072 1.978-2.145 2.115-1.087.14-2.227-.536-2.628-1.555-.012-.038-.036-.08-.074-.085-.023-.002-.035.023-.035.044l-.093-.004c-.043.954-.859 1.82-1.811 1.908-.967.091-1.945-.626-2.145-1.576l-.118.004c.027.561-.361 1.104-.881 1.32-.525.217-1.15.126-1.631-.176-.48-.304-.821-.798-1.007-1.334l-.129-.038a3.6 3.6 0 0 1-.595 1.009 3.77 3.77 0 0 1-1.647 1.16 3.78 3.78 0 0 1-3.099-.286v.006c.192.69.072 1.465-.327 2.063a2.53 2.53 0 0 1-1.779 1.09l-.047.083a3.17 3.17 0 0 1 1.533 1.919 3.2 3.2 0 0 1-.327 2.45l.076.043a2.93 2.93 0 0 1 2.849-.336 2.93 2.93 0 0 1 1.723 2.253c.711-.916 1.733-1.636 2.883-1.792 1.168-.159 2.447.344 3.034 1.361l.01-.006c.551-.91 1.469-1.66 2.531-1.75 1.041-.087 2.162.616 2.333 1.642l.131-.021c.61-.91 1.652-1.537 2.748-1.569 1.049-.027 2.115.526 2.641 1.43l-.04.114q.029-.04.061-.078c.627-.803 1.617-1.343 2.634-1.307 1.051.038 2.079.756 2.36 1.769l.123.074-.011.017c.511-.733 1.294-1.282 2.168-1.457.876-.173 1.834.05 2.506.638.656.572 1.007 1.492.85 2.347l.03.004c.355-.718 1.161-1.172 1.961-1.157.802.013 1.568.469 2.016 1.132.445.665.582 1.518.422 2.303l.032.014a1.85 1.85 0 0 1 1.509-.996 1.86 1.86 0 0 1 1.672.88c.454.762.302 1.719.131 2.588l.04.009c.587-.53 1.488-.663 2.225-.372.736.294 1.289.98 1.473 1.75s.013 1.609-.416 2.276l.03.053c.891-.364 1.978-.047 2.638.652.663.699.929 1.714.843 2.674-.087.959-.492 1.866-1.024 2.67l.015.079c.876-.182 1.83.16 2.429.825.608.678.847 1.657.665 2.55-.179.893-.76 1.689-1.526 2.18v.07c1.041.469 1.862 1.499 1.894 2.643.031 1.142-.862 2.293-2 2.377l-.057.084c.948.6 1.474 1.801 1.269 2.905-.207 1.113-1.144 2.05-2.254 2.26l-.028.03c.781.733 1.007 1.995.524 2.953-.486.967-1.651 1.54-2.713 1.337l-.099.072a2.87 2.87 0 0 1 .676 2.309 2.4 2.4 0 0 1-.273.815c-.542.977-1.84 1.496-2.877 1.072l-.07.004c.047.758-.173 1.533-.692 2.08-.68.713-1.896.907-2.691.341a3.04 3.04 0 0 1-1.402 2.56 3.04 3.04 0 0 1-2.936.125h-.04c-.024.61-.309 1.216-.803 1.584a2 2 0 0 1-.23.143c-.766.408-1.802.275-2.419-.344.235.66.013 1.446-.498 1.927-.519.492-1.292.674-1.993.532-.591-.12-1.125-.456-1.53-.903l-.015.013c.365.396.562.954.482 1.49-.112.734-.735 1.355-1.463 1.49l.01.051c.988.109 1.803 1.074 1.746 2.068-.055.959-.916 1.799-1.875 1.852l-.023.114a1.85 1.85 0 0 1 1.406 1.475c.082.524-.089 1.068-.42 1.48a1.9 1.9 0 0 1-.625.502c-.717.353-1.644.209-2.237-.327l-.034.011c.203.644.266 1.437-.241 1.878-.318.275-.777.323-1.194.271-1.126-.142-2.137-.969-2.502-2.044l-.093.007c-.031.354-.156.69-.346.985-.409.634-1.125 1.079-1.883 1.09-1.112.019-2.161-.898-2.294-2.004h-.011c-.032.754-.448 1.484-1.096 1.873a2 2 0 0 1-.521.223c-.568.155-1.201.081-1.699-.236-.65-.414-1.03-1.233-.897-1.993l-.038-.004c-.209.576-.48 1.148-.927 1.566s-1.104.655-1.687.469c-.437-.137-.783-.5-.966-.92-.184-.423-.218-.895-.163-1.351l-.019-.011c-.623 1.07-1.653 2.005-2.883 2.077-.315.019-.644-.023-.914-.183-.524-.309-.72-1.005-.592-1.598.129-.593.52-1.096.946-1.527l.019-.061c-.789-.255-1.345-1.157-1.235-2.001.11-.842.773-1.541 1.575-1.832l-.042-.106c-.452-.563-.615-1.327-.488-2.037l-.105-.019c-1.182.429-2.641-.24-3.097-1.408h-.006c-.171.72-.845 1.256-1.573 1.372s-1.484-.143-2.067-.595-1.011-1.078-1.338-1.74l-.057.007c.047.39-.027.792-.205 1.142-.238.462-.679.836-1.192.918-.547.091-1.109-.154-1.516-.53-.395-.363-.665-.842-.897-1.327-.042.61-.483 1.17-1.06 1.39-.618.235-1.347.096-1.876-.301-.469-.348-.783-.878-.92-1.448l-.02.004c-.31.657-.939 1.102-1.572 1.454-.583.321-1.227.6-1.89.551-.662-.046-1.338-.515-1.416-1.175l-.023-.034c-.41.293-.853.572-1.351.593-.644.03-1.258-.41-1.518-.998-.26-.59-.196-1.292.089-1.87.27-.554.724-1.001 1.239-1.339l-.032-.046a1.69 1.69 0 0 1-1.406-1.231c-.194-.758.17-1.552.65-2.166a5.8 5.8 0 0 1 1.208-1.15v-.04c-.697.046-1.387-.412-1.69-1.045-.328-.684-.248-1.518.09-2.198.268-.536.68-.983 1.15-1.357l-.046-.057c-.646-.549-1.134-1.355-1.085-2.202.061-1.089.958-1.944 1.893-2.507l.093-.12a2.93 2.93 0 0 1-1.154-2.382c.008-.312.07-.629.23-.897.207-.34.565-.566.958-.65.194-.042.399-.05.597-.02.593.092 1.11.486 1.444.985h.08c.321-1.039 1.457-1.683 2.54-1.651s2.088.631 2.837 1.412l.12.032c.123-.5.541-.923 1.039-1.081.58-.188 1.235-.053 1.75.274.477.304.844.756 1.118 1.254l.028-.015c-.017-.033-.006-.088.01-.128.372-.898 1.375-1.486 2.337-1.377.965.11 1.807.912 1.968 1.869h.002c.342-.982 1.372-1.68 2.412-1.63 1.012.053 1.945.81 2.217 1.784l.078-.022q.003.02.025.024c.057.008.095-.053.121-.104a2.66 2.66 0 0 1 2.339-1.475 2.66 2.66 0 0 1 2.345 1.465l.107.027a2.87 2.87 0 0 1 2.392-1.216 2.88 2.88 0 0 1 2.168 1.132l.076-.06c.135-1.008 1.207-1.73 2.223-1.654 1.015.074 1.902.81 2.362 1.718l.145.068c.471-.817 1.335-1.484 2.255-1.347.669.097 1.188.578 1.634 1.11a2.42 2.42 0 0 1 1.292-1.988 2.43 2.43 0 0 1 2.446.166l.133-.016a2.25 2.25 0 0 1 .063-.965 2.3 2.3 0 0 1 1.446-1.505v-.114c-.428-.363-.728-.891-.778-1.455 0-.025-.005-.05-.005-.074a2.17 2.17 0 0 1 .408-1.365 2.12 2.12 0 0 1-1.866-.6 2.13 2.13 0 0 1-.522-1.96l-.019-.03a2.82 2.82 0 0 1-2.48.3 2.82 2.82 0 0 1-1.701-1.806l-.051.015c-.27.9-1.125 1.524-2.029 1.778-.614.173-1.281.2-1.88-.017-.6-.216-1.117-.699-1.288-1.313l-.04.013c-.283 1.04-1.286 1.842-2.364 1.889-1.075.044-2.139-.663-2.51-1.67l-.011.004c-.363 1.127-1.585 1.913-2.763 1.771-1.148-.137-2.132-1.138-2.261-2.286-.585.849-1.591 1.42-2.622 1.364-1.082-.061-2.113-.893-2.29-1.963l-.032.006c-.5.363-1.047.7-1.659.781-.717.093-1.463-.196-1.961-.722a2.7 2.7 0 0 1-.709-1.845c-.363.403-.808.73-1.319.906-.564.194-1.208.188-1.74-.078-.58-.292-.988-.866-1.163-1.49a3.5 3.5 0 0 1-.095-1.273l-.053-.005c-.234.11-.483.19-.736.24-.845.168-1.782-.043-2.394-.647s-.825-1.615-.407-2.368l-.015-.072c-.992.173-2.069-.12-2.763-.847-.809-.846-.997-2.254-.357-3.234v-.004a2.82 2.82 0 0 1-2.105-1.307 2.83 2.83 0 0 1-.031-2.839l.017-.06c-.92-.204-1.752-.816-2.185-1.658-.553-1.074-.42-2.465.323-3.417v-.005a2.5 2.5 0 0 1-.4-.293 3.46 3.46 0 0 1-1.137-2.284 3.45 3.45 0 0 1 .766-2.436l.024-.028c-.695-.582-1.11-1.498-1.045-2.406.082-1.163.95-2.227 2.07-2.544l.022-.019c-.545-.601-.733-1.532-.402-2.282.397-.903 1.495-1.429 2.45-1.182"/><path fill="#ff7101" d="M150.449 132.849c.901 5.434-1.891 11.397-8.349 13.658-1.714.601-3.683.941-5.912.941h-17.411c-2.229 0-4.199-.34-5.913-.941-6.457-2.261-9.25-8.224-8.348-13.658l.076.013c3.109-.304 4.979 2.837 5.729 4.382 1.743 4.089 9.313 4.325 11.274-.764 1.381-5.142 9.904-5.51 11.775 0 1.961 5.089 9.53 4.853 11.274.764.749-1.545 2.62-4.686 5.729-4.382z"/><path fill="#e4bc07" d="m150.449 132.849-.076.013c-3.109-.304-4.98 2.837-5.729 4.382-1.744 4.089-9.313 4.325-11.274-.764-1.871-5.51-10.394-5.142-11.775 0-1.961 5.089-9.531 4.853-11.274.764-.75-1.545-2.62-4.686-5.729-4.382l-.076-.013c.682-4.11 3.479-7.916 8.405-9.581l.057-.009c.849 1.991 2.78 3.544 5.799 3.544h17.411c3.018 0 4.95-1.553 5.798-3.544l.057.009c4.927 1.665 7.724 5.471 8.406 9.581"/><path fill="#00b268" d="M139.331 106.855a1.88 1.88 0 0 1-1.628 1.254l-.063-.046c.331-.412.502-.956.42-1.48a1.85 1.85 0 0 0-1.406-1.475l.024-.114c.958-.053 1.819-.893 1.874-1.852.057-.994-.758-1.959-1.746-2.068l-.01-.051c.728-.135 1.351-.756 1.463-1.49.08-.536-.117-1.094-.482-1.49l.015-.013c.405.447.939.783 1.53.903.701.142 1.474-.04 1.993-.532.511-.481.733-1.266.498-1.927.617.619 1.653.751 2.419.344l.007.009c.747.51 1.18 1.494.924 2.362-.253.867-1.26 1.477-2.117 1.19.585.285 1.015.804 1.256 1.41s.186 1.341-.213 1.854c-.399.515-1.153.751-1.746.483l-.017.006a2.24 2.24 0 0 1-.513 2.291 2.24 2.24 0 0 1-2.358.477z"/><path fill="#e4bc07" d="M142.1 146.507c.385 1.83-1.019 4.323-5.247 4.323h-18.741c-4.228 0-5.632-2.493-5.248-4.323 1.715.601 3.684.941 5.913.941h17.411c2.229 0 4.198-.34 5.912-.941m-5.912-31.736c5.378 0 7.312 4.938 5.798 8.488-.848 1.991-2.78 3.544-5.798 3.544h-17.411c-3.018 0-4.95-1.553-5.799-3.544-1.513-3.55.421-8.488 5.799-8.488h5.82v3.84h-4.579c-2.541 0-2.541 3.293 0 3.293h14.929c2.541 0 2.541-3.293 0-3.293h-4.579v-3.84z"/><path fill="#00b268" d="m95.24 75.969.005-.167h-.007c-.035-.01-.044-.057-.042-.093.013-.684.549-1.292 1.197-1.507.65-.218 1.379-.089 1.989.22l.065.004c.01-.84.665-1.63 1.492-1.792.773-.152 1.615.263 1.985.952a.1.1 0 0 0 .025-.036 2.96 2.96 0 0 1 2.51-1.554 2.96 2.96 0 0 1 2.573 1.446l.055.013c.152-.632.694-1.142 1.323-1.31.657-.172 1.383.01 1.926.419.502.38.85.937 1.028 1.54h.002l.071-.022c-.044-.887.746-1.693 1.628-1.778.884-.084 1.76.48 2.162 1.271.097.19.168.393.242.593l.167.044c.264-1.006 1.286-1.762 2.326-1.716 1.03.047 1.972.872 2.162 1.885l.01-.014a2.89 2.89 0 0 1 2.576-1.442c1.032.04 2.018.7 2.45 1.64l.081.004c.348-.903 1.277-1.553 2.246-1.566.933-.015 1.845.561 2.241 1.404l.066-.032c.126-1.009 1.123-1.83 2.138-1.763.555.038 1.077.306 1.499.672.412.352.737.791 1.038 1.243l.019-.013c.19-.882.98-1.604 1.877-1.71h.042q0 .034.005.072c.05.564.35 1.092.781 1.455v.114a2.3 2.3 0 0 0-1.449 1.505 2.25 2.25 0 0 0-.063.965l-.133.016a2.43 2.43 0 0 0-2.446-.166 2.42 2.42 0 0 0-1.292 1.988c-.446-.532-.965-1.013-1.634-1.11-.92-.138-1.784.53-2.255 1.347l-.145-.068c-.46-.908-1.347-1.644-2.362-1.718-1.016-.076-2.088.646-2.223 1.655l-.076.059a2.88 2.88 0 0 0-2.168-1.132 2.87 2.87 0 0 0-2.392 1.216l-.107-.027a2.66 2.66 0 0 0-2.345-1.465c-.974.002-1.919.6-2.339 1.475-.026.05-.064.112-.121.104q-.022-.003-.025-.023l-.078.02c-.272-.972-1.205-1.73-2.217-1.783-1.04-.05-2.07.648-2.412 1.63h-.002c-.161-.957-1.003-1.759-1.968-1.869-.962-.11-1.965.48-2.337 1.377-.016.04-.027.095-.01.128l-.028.015c-.274-.498-.641-.95-1.118-1.254-.515-.327-1.17-.462-1.75-.274-.498.158-.916.58-1.039 1.08l-.12-.031c-.75-.781-1.754-1.38-2.837-1.412s-2.219.612-2.54 1.648h-.08c-.333-.496-.85-.89-1.444-.981a1.6 1.6 0 0 0-.597.019l-.008-.04c.035-.009.06-.049.076-.083a2.36 2.36 0 0 1 2.132-1.287"/><path fill="#002140" d="M134.947 118.611c2.541 0 2.541 3.293 0 3.293h-4.579v-3.293z"/><path fill="#d18000" d="M130.368 118.611v3.293h-5.771V110.64l-.034-.112q.277-.075.521-.223c.648-.389 1.064-1.119 1.096-1.873h.011c.133 1.106 1.182 2.023 2.294 2.004.758-.011 1.474-.456 1.883-1.09z"/><path fill="#002140" d="M124.597 118.611v3.293h-4.579c-2.541 0-2.541-3.293 0-3.293z"/><path fill="#00b268" d="m112.026 19.623-.027.086a2.32 2.32 0 0 0-2.221.619 2.32 2.32 0 0 0-.542 2.241l-.108.06c-.312-.566-.783-1.067-1.385-1.305a2 2 0 0 0-.62-.137v-.009c.338-.715.794-1.397 1.446-1.845.652-.445 1.528-.618 2.25-.297l.049-.057c.333.297.73.521 1.158.643m-6.083 1.803.053.07a1 1 0 0 0-.087.065c-.65.551-.724 1.518-.659 2.367h-.086c-.714-.492-1.653-.631-2.485-.4l-.031-.117c.365-1.368 1.912-2.301 3.295-1.985"/><path fill="#b0d9ff" d="m80.19 63.227 12.688-2.56c0 1.701-1.312 3.907-4.589 4.473l-10.237 1.78a3.4 3.4 0 0 0-.84-.725c.78-1.325-.606-4.247-2.101-3.928.226-.602.114-1.628-.211-2.31a3.7 3.7 0 0 1 1.136-.2c1.137-.032 2.36.412 3.191 1.345.484.542.836 1.25.963 2.125m-1.195-.304a.656.656 0 1 0-1.312 0 .656.656 0 0 0 1.312 0"/><path fill="#b0d9ff" d="m88.942 52.835-9.586 8.241-.129.026c-.831-.933-2.054-1.377-3.191-1.345v-.093l6.558-5.957c2.46-2.24 5.005-1.919 6.348-.872"/><path fill="#5be3aa" d="M86.533 69.708c.965 1.503-.766 5.568-3.341 5.568-.974-2.028 1.215-5.68 3.341-5.568m-.766-28.478c-1.617 1.123-5.265-.735-5.15-2.738 1.5-1.157 5.15.435 5.15 2.738"/><path fill="#b0d9ff" d="M78.339 62.267a.656.656 0 1 1 0 1.312.656.656 0 0 1 0-1.312"/><path fill="#5ab0ff" d="M78.052 66.92c.561.656.903 1.483.479 1.855l-3.36 3.1-1.048.965-.078.112a6.35 6.35 0 0 1-2.242-2.759l1.032-.952 3.376-3.113c.249-.22.62-.154 1 .067.292.17.59.429.84.724"/><path fill="#5be3aa" d="M74.37 45.962c.576-2.136 4.944-2.376 5.82-.928-.876 2.17-4.853 2.17-5.82.928"/><path fill="#e4bc07" d="M73.59 75.542c-.106.836-.858 1.522-1.692 1.64q-.18.026-.363.02v.006a1.77 1.77 0 0 1-.948 1.397c-.703.355-1.58.184-2.248-.234-.669-.416-1.173-1.045-1.663-1.661l-.007-.009c-5.427 4.14-11.153 7.133-17.28 8.7-4.702 1.203-9.64 1.561-14.854.947a2.1 2.1 0 0 0 .114-.686c-.004-.906-.635-1.775-1.494-2.067l.03-.078c.75-.337 1.238-1.188 1.148-2.007 7.405 1.256 14.529.173 21.007-2.784 4.197-1.917 8.121-4.619 11.676-7.982 1.916-2.104 3.804-3.109 5.82-1.503l-1.033.952a6.35 6.35 0 0 0 2.242 2.76l.078-.113 1.047-.964.04.044c.304.372.663.834.591 1.733-.072.887-.81 1.647-1.678 1.839a2.2 2.2 0 0 1-.534.05"/><path fill="#5ab0ff" d="M75.111 62.267c-.1.26-.26.439-.494.48l-6.134 1.192-.072.008a3.8 3.8 0 0 0-.32-1.076c-.29-.644-.754-1.269-1.432-1.467l-.074-.053a1.7 1.7 0 0 0 .304-.73l.127.018 7.016-1.363c.355-.06.657.238.868.682.325.681.437 1.707.211 2.309"/><path fill="#e4bc07" d="M68.411 63.947q.025.21.019.418c-.019.515-.217 1.039-.604 1.379-.386.342-.973.468-1.44.249l-.067-.02q.055-.19.082-.386a4.25 4.25 0 0 0-.867-3.219l-.036-.055.108-.067c.367-.239.73-.54.98-.895l.073.053c.678.198 1.142.823 1.431 1.467.154.342.275.705.321 1.076"/><path fill="#e4bc07" d="M63.307 63.202v.025c.593.378 1 1.731.933 2.685a4 4 0 0 1-.163.948c-.105.334-.274.633-.55.845-.362.276-.853.344-1.299.257-.445-.084-.715-.215-1.085-.481-1.266 1.52-2.907 2.894-4.83 4.154a1.54 1.54 0 0 0-.83-.344v-.08c.596-.313.854-1.047.83-1.718-.02-.526-.187-1.054-.517-1.463a1.93 1.93 0 0 0-1.05-.676l.016-.072c.849-.559 2.36-1.82 2.36-1.82s.927-.713 1.245-1.25c.237-1.289.482-1.945.822-2.711.856-1.925 3.077-3.01 5.182-2.932.574.02 1.157.12 1.648.415.49.296.874.815.89 1.387a1.67 1.67 0 0 1-.323.98c-.25.354-.613.656-.98.895a1 1 0 0 1-.108.065q-.64.401-1.349.67c-.27.103-.555.191-.842.221"/><path fill="#e4bc07" d="M65.534 62.368a4.25 4.25 0 0 1 .867 3.22q-.027.195-.082.386-.038.132-.1.26c-.35.72-1.344 1.038-2.047.654l-.095-.028c.097-.302.142-.633.163-.948.067-.954-.34-2.307-.931-2.685v-.025c.285-.03.57-.118.84-.222.47-.179.923-.4 1.349-.667z"/><path fill="#5ab0ff" d="M55.482 150.625h-.718c-.783 0-1.34-.585-1.564-1.45l-.044-.14-9.445-34.863h3.39q.264 0 .524-.055l.013.055 9.444 34.863c.253.94-.625 1.59-1.6 1.601z"/><path fill="#ff7101" d="m19.341 62.588.023.006a5.28 5.28 0 0 1 3.64 1.94 5.27 5.27 0 0 1 1.087 3.98v.054c1.163.004 2.277.654 2.961 1.596.688.945.963 2.15.891 3.316.633-1.024 2.49-1.296 3.485-.371h.006a2.06 2.06 0 0 1 .6-1.607 2.06 2.06 0 0 1 1.944-.498l.095-.015q.022.136.072.266c.217.555.855.874 1.45.834.595-.042 1.138-.388 1.535-.834l.141-.072c.494.555 1.288.84 2.01.67a1.93 1.93 0 0 0 1.403-1.415l.186.045c.526.173 1.125.16 1.613-.104.485-.262.836-.796.813-1.349-.013-.26-.1-.51-.214-.743a5 5 0 0 0-.133-.247h.148c.593-.357 1.351-.395 2-.152.584.218 1.078.652 1.407 1.185l.053-.034a2.06 2.06 0 0 1 1.239-1.284 2.06 2.06 0 0 1 1.773.188l.013-.013c-.6-.555-.95-1.37-.982-2.186-.031-.853.26-1.704.758-2.396l-.013-.009c-1.19-.325-2.058-1.465-2.248-2.685-.148-.954.078-1.933.53-2.793-3.681-7.704-10.185-11.063-16.34-10.89a16 16 0 0 0-5.691 1.218c-4.241 1.771-7.71 5.408-9.04 10.56.879.18 1.713.645 2.257 1.358.53.695.76 1.636.528 2.48M30.69 89.223c-.563.895-1.769 1.37-2.784 1.032a2.25 2.25 0 0 1-.988-.675 2.5 2.5 0 0 1-.51-.904l-.265.005a3.1 3.1 0 0 1-2.366.64 3.1 3.1 0 0 1-2.073-1.314l-.082-.006a3.7 3.7 0 0 1-1.98.846 3.7 3.7 0 0 1-1.792-.232c-1.231-.498-2.14-1.71-2.276-3.031l-.061.006c-.994.488-2.217.551-3.2.049-.986-.505-1.668-1.61-1.552-2.71l-.014-.043c-1.68.598-3.699.078-4.883-1.254-1.186-1.332-1.465-3.396-.678-4.996l-.03-.042a4.7 4.7 0 0 1-2.762-2.768 4.7 4.7 0 0 1 .346-3.896C1.55 69.368.71 68.125.639 66.812c-.072-1.303.616-2.618 1.72-3.308l-.034-.053a3.4 3.4 0 0 1-.338-.794c-.221-.804-.11-1.71.363-2.4.437-.635 1.189-1.06 1.96-1.06l.204-.15c-.346-1.023.006-2.264.868-2.927.977 1.25 2.501 2.056 4.076 1.85a2.12 2.12 0 0 1-.01-1.86q.06-.124.136-.235c.442-.656 1.233-1.057 2.031-1.083v-.019a3.3 3.3 0 0 1-.397-1.556c-.004-.453.074-.918.283-1.317a2 2 0 0 1 .262-.388l-.07-.057c-.445-.62-.498-1.486-.17-2.172q.097-.211.246-.395c.579-.713 1.653-.973 2.495-.602l.015-.004a2.75 2.75 0 0 1 .697-2.763c.732-.7 1.88-.929 2.826-.561-.086-1.052.473-2.15 1.417-2.624.956-.48 2.241-.228 2.89.62l.035-.03c.433-.962 1.533-1.542 2.584-1.468 1.032.071 1.98.717 2.529 1.595.346-1.021 1.36-1.777 2.434-1.82 1.087-.041 2.164.649 2.581 1.651l.16.013.011-.01c.876-1.043 2.346-1.552 3.68-1.271 1.334.279 2.476 1.334 2.858 2.64l.023.043c.367-.137.674-.23.999-.277.22-.03.45-.04.713-.027.245.01.65.046.882.127.207.07.425.179.619.312q.146.098.266.213c.669.642 1.133 1.693 1.072 2.618a2.7 2.7 0 0 1 1.984.3c.296.17.558.396.762.669.366.48.54 1.093.52 1.695-.013.4-.114.8-.306 1.152l.059.032c1.31-.481 2.862.23 3.61 1.41.745 1.18.789 2.702.415 4.047l.053.139c1.18-.277 2.432.532 2.928 1.638.494 1.102.355 2.4-.08 3.527 1.199.044 2.24 1.11 2.385 2.305.146 1.185-.502 2.392-1.492 3.061l.05.074q.153.007.302.042c.412.095.785.344 1.051.676.33.41.496.937.517 1.463.024.67-.234 1.405-.827 1.718v.08c.302.025.589.152.828.344.215.173.39.403.498.659.245.578.17 1.264-.114 1.824-.258.506-.708.941-1.256 1.074l.017.084c.453.437.705 1.075.67 1.702a2.23 2.23 0 0 1-.846 1.621l.057.127c-6.478 2.957-13.602 4.04-21.007 2.784.09.819-.397 1.67-1.149 2.007l-.03.079c.86.29 1.491 1.16 1.495 2.066a2.1 2.1 0 0 1-.114.686c5.214.614 10.152.255 14.855-.948l.004.02c-.24.487-.44 1.143-1.541 1.616-1.102.471-1.727.325-2.271.298-.634 1.009-1.39 1.61-2.525 1.61s-1.792-.234-2.753-.939l-.082-.027c-.355 1.078-1.241 1.995-2.343 2.273a2.7 2.7 0 0 1-.838.078c-.787-.04-1.562-.4-2.048-1.013l-.048.038c-.494.7-1.32 1.178-2.176 1.18a2.33 2.33 0 0 1-1.34-.43 2.1 2.1 0 0 1-.716-.866zm16.406-14.892c.845-2.424-1.218-4.372-2.793-2.43a8 8 0 0 1-.373.389 7.2 7.2 0 0 1-3.232 1.842c-1.222.325-2.56.357-3.994.154a20 20 0 0 1-.47-.076c-3.089-.61-3.855 2.485-1.7 3.925.42.282.954.502 1.605.616a11.3 11.3 0 0 0 3.375.224c1.74-.146 3.405-.686 4.79-1.554a8.5 8.5 0 0 0 2.028-1.75c.363-.45.61-.903.764-1.34"/><path fill="#b0d9ff" d="M54.764 150.625h-3.933c-.783 0-1.34-.585-1.564-1.45l-1.142-4.216-1.023-3.778-5.392-19.898 1.928-7.111h.073l9.445 34.863.044.14c.224.865.78 1.45 1.564 1.45"/><path fill="#5ab0ff" d="M49.81 107.461v4.003c0 1.393-1.026 2.412-2.185 2.653a2.6 2.6 0 0 1-.523.055h-30.79q-.1 0-.199-.009c-1.285-.101-2.51-1.177-2.51-2.699v-4.003c0 1.047 1.354 1.771 2.709 1.771h30.79c1.353 0 2.708-.724 2.708-1.771"/><path fill="#b0d9ff" d="M49.81 107.406v.055c0 1.047-1.355 1.771-2.709 1.771h-30.79c-1.354 0-2.707-.724-2.707-1.771v-.055c0-1.047 1.353-1.771 2.708-1.771h11.612c.338.944 1.09 1.581 2.383 1.581h4.885c1.076 0 1.769-.702 2.05-1.583h9.86c1.353 0 2.708.724 2.708 1.771z"/><path fill="#e4bc07" d="M30.592 59.025c-.747-.294-1.665-.007-2.172.62-.52.642-.616 1.57-.325 2.343s.935 1.383 1.687 1.725l.196.01a5.6 5.6 0 0 0 .338 2.143c.738 2.037 2.476 3.337 4.148 3.25l.004.054c-.29.392-.406.888-.42 1.376-.005.148 0 .297.025.443l-.095.015a2.06 2.06 0 0 0-1.944.498 2.06 2.06 0 0 0-.6 1.607h-.006c-.994-.925-2.852-.653-3.485.371.072-1.165-.203-2.37-.89-3.316-.685-.942-1.8-1.592-2.965-1.596v-.055a5.26 5.26 0 0 0-1.085-3.979 5.28 5.28 0 0 0-3.639-1.94l-.023-.006c.232-.845 0-1.786-.528-2.48-.544-.714-1.378-1.178-2.256-1.36 1.33-5.15 4.798-8.788 9.039-10.559a16 16 0 0 1 5.691-1.218c6.155-.173 12.659 3.186 16.34 10.89-.452.86-.678 1.84-.53 2.793.19 1.22 1.058 2.36 2.248 2.685l.013.009c-.498.692-.79 1.543-.758 2.396.032.817.382 1.631.982 2.186l-.013.013a2.06 2.06 0 0 0-1.773-.188 2.06 2.06 0 0 0-1.24 1.284l-.052.034c-.33-.532-.823-.967-1.408-1.185-.648-.243-1.406-.205-1.999.15h-.148a3.5 3.5 0 0 0-1.408-1.315l-.135-.042c.638-.376 1.117-.984 1.404-1.72.405-1.043.426-2.346-.036-3.619a5.7 5.7 0 0 0-.745-1.405l.089-.066a3.14 3.14 0 0 0 .665-1.978c-.009-.357-.09-.732-.332-.994a1.16 1.16 0 0 0-.804-.344 1.74 1.74 0 0 0-.823.194l-.03-.061c.19-.547.072-1.19-.304-1.63a1.69 1.69 0 0 0-1.56-.557 1.68 1.68 0 0 0-1.252 1.087l-.116.066c-.44-.86-1.509-1.345-2.446-1.107-.878.224-1.556 1.062-1.615 1.961l-.167-.008c-.418-.258-.914-.399-1.401-.342-.488.055-.957.32-1.212.74a2 2 0 0 0-.177.41 2.55 2.55 0 0 0 .065 1.672c.006.017.01.043 0 .05zM49.2 44.96c.2 1.929-.64 4.03-2.337 4.967h-.042a2.67 2.67 0 0 0-.52-1.695 2.6 2.6 0 0 0-.762-.67l.068-.116c.773-.81.95-2.125.422-3.111-.38-.705-1.12-1.233-1.923-1.258-.802-.028-1.617.502-1.832 1.275l-.057.08a2.6 2.6 0 0 0-.619-.312c-.232-.08-.637-.117-.882-.127-.264-.013-.494 0-.714.027l-.014-.112c.008-1.564 1.093-2.984 2.545-3.565 1.455-.58 3.19-.293 4.454.631 1.265.923 2.052 2.43 2.213 3.986"/><path fill="#5ab0ff" d="m47.102 141.181 1.023 3.778H36.306l-.48-1.777-.043-.013.542-2.001.049.013z"/><path fill="#fffaf0" d="M44.303 71.901c1.574-1.942 3.637.006 2.792 2.43l-3.147-1.788-.02-.254q.191-.184.375-.388"/><path fill="#fffaf0" d="m43.948 72.543 3.147 1.788c-.154.437-.4.89-.764 1.34a8.5 8.5 0 0 1-2.029 1.75z"/><path fill="#d18000" d="M46.03 44.335c.527.986.35 2.3-.423 3.111l-.068.116a2.7 2.7 0 0 0-1.984-.3c.061-.924-.403-1.975-1.072-2.617a2 2 0 0 0-.266-.213l.057-.08c.215-.773 1.03-1.303 1.832-1.275.802.025 1.543.553 1.923 1.258"/><path fill="#fffaf0" d="M44.302 77.419c-1.384.87-3.05 1.41-4.79 1.556l1.185-4.843z"/><path fill="#fffaf0" d="m43.948 72.543.354 4.876-3.605-3.287a7.2 7.2 0 0 0 3.232-1.843z"/><path fill="#5ab0ff" d="m43.638 114.172-1.928 7.109-5.385 19.887-.542 2.001-1.628 6.006c-.223.865-.78 1.45-1.564 1.45h-.922c-.893-.091-1.64-.714-1.402-1.59l9.444-34.863z"/><path fill="#e4bc07" d="M40.684 70.438a1.93 1.93 0 0 1-1.403 1.415c-.722.17-1.516-.114-2.01-.67l-.141.072c-.397.446-.94.792-1.535.834-.595.04-1.233-.279-1.45-.834a1.3 1.3 0 0 1-.072-.266c-.025-.145-.03-.295-.025-.443.014-.488.13-.984.42-1.376l-.005-.053q.436-.022.858-.173c.886-.321 1.54-1.037 1.895-1.953q.165-.415.24-.878c1.022.874 2.302 1.22 3.456.8q.26-.095.494-.232l.135.042a3.47 3.47 0 0 1 1.541 1.564c.114.232.2.484.213.743.024.553-.327 1.087-.812 1.35-.488.263-1.087.276-1.613.103z"/><path fill="#002140" d="M42.774 61.342c.462 1.273.441 2.576.036 3.618-1.11.304-2.406-.141-3.377-1.194l2.064-2.593-3.13.754c-.477-1.471-.2-2.951.637-3.831 1.121.078 2.236.758 3.025 1.84.302.414.555.885.745 1.406"/><path fill="#ff7101" d="M30.61 59.03s.005-.033 0-.05a2.55 2.55 0 0 1-.066-1.672c.044-.143.1-.282.177-.41.255-.42.724-.685 1.212-.74.487-.057.983.084 1.401.342l.167.008c.06-.899.737-1.737 1.615-1.96.937-.24 2.005.246 2.446 1.105l.117-.065c.185-.549.681-.98 1.251-1.087a1.69 1.69 0 0 1 1.56.557c.376.44.494 1.083.304 1.63l.03.061c.257-.127.54-.205.823-.194.3.01.6.124.804.344.243.262.323.637.332.994a3.14 3.14 0 0 1-.665 1.978l-.089.066c-.79-1.083-1.904-1.763-3.025-1.841a3 3 0 0 0-1.233.169c-1.152.418-1.914 1.505-2.136 2.83-.667-.57-1.444-.914-2.223-.968a3 3 0 0 0-1.232.168c-1.324.48-2.13 1.839-2.202 3.428l-.196-.01c-.752-.342-1.396-.952-1.687-1.725-.291-.772-.194-1.701.325-2.343.507-.627 1.425-.914 2.172-.62-.004.008 0 .019.009.014z"/><path fill="#fffaf0" d="M39.433 63.766c.97 1.053 2.267 1.498 3.377 1.194-.287.737-.766 1.345-1.404 1.72q-.233.138-.494.233c-1.154.42-2.434.074-3.455-.8a5.43 5.43 0 0 0-.275-2.74c-.34-.935-.888-1.716-1.547-2.278.222-1.325.984-2.412 2.136-2.83a3 3 0 0 1 1.233-.17c-.838.881-1.114 2.36-.637 3.832l3.13-.754zm1.264 10.366-1.184 4.843-2.829-4.562.02-.127c1.432.203 2.77.171 3.993-.154"/><path fill="#b0d9ff" d="m39.711 114.172-9.444 34.863c-.238.876.509 1.499 1.402 1.59h-3.74v.011c-.972-.017-1.841-.665-1.588-1.601L28 142.912l1.334-4.925.973-3.597 1.552-5.72 1.334-4.925.973-3.599 1.619-5.974z"/><path fill="#fffaf0" d="m36.684 74.413 2.829 4.562a11.3 11.3 0 0 1-3.375-.224c-.65-.114-1.185-.334-1.605-.616z"/><path fill="#002140" d="M37.182 63.373a5.43 5.43 0 0 1 .275 2.74q-.076.463-.24.878c-1.11.304-2.407-.141-3.376-1.195l2.064-2.592-3.132.754c-.475-1.471-.199-2.951.64-3.831.778.054 1.555.398 2.222.968.659.562 1.208 1.343 1.547 2.278"/><path fill="#5ab0ff" d="m36.306 144.959 1.104 4.076c.256.94-.622 1.59-1.6 1.601v-.011h-3.219c.783 0 1.34-.585 1.564-1.45l1.628-6.006.042.013z"/><path fill="#e4bc07" d="M33.56 107.216h-3.253c-1.294 0-2.045-.637-2.383-1.581-.319-.886-.272-2.045.032-3.202l2.864-10.168c1.125.665 2.464.445 3.513-.41.57.843 1.365 1.121 2.096 1.121l-1.896 7.659c-.2 1.03-.2 1.332.756 1.543 1.786.158 2.402 2.037 1.953 3.455-.281.881-.974 1.583-2.05 1.583z"/><path fill="#002140" d="m37.041 90.33-.006.204-.604 2.442h-.002c-.73 0-1.526-.278-2.096-1.12-1.05.854-2.388 1.074-3.513.409l.608-2.162a2.33 2.33 0 0 0 1.34.431c.858-.002 1.683-.48 2.177-1.18l.048-.038c.486.612 1.26.973 2.048 1.013"/><path fill="#fffaf0" d="m36.703 74.286-.019.127-2.15 3.722c-2.156-1.44-1.39-4.535 1.698-3.925q.238.042.471.076m-2.863-8.49c.97 1.054 2.268 1.5 3.376 1.195-.355.916-1.009 1.632-1.895 1.953q-.422.151-.857.173c-1.672.086-3.41-1.214-4.148-3.251a5.6 5.6 0 0 1-.338-2.142c.072-1.59.878-2.95 2.201-3.429a3 3 0 0 1 1.233-.169c-.838.88-1.114 2.36-.64 3.832l3.133-.754z"/><path fill="#b0d9ff" d="M25.65 120.116h8.404l.112.03-.973 3.599-.116-.032H18.664c-1.356 0-2.709-.724-2.709-1.771v-.055c0-.986 1.201-1.686 2.474-1.762q.117-.01.235-.009z"/><path fill="#5ab0ff" d="M27.962 128.653h-9.298a2.77 2.77 0 0 1-2.225-1.174 2.63 2.63 0 0 1-.484-1.535v-4.002c0 1.047 1.353 1.771 2.708 1.771h14.414l.116.032-1.334 4.925-.062-.017z"/><path fill="#5ab0ff" d="m31.859 128.67-1.552 5.72-.09-.025h-.723v-.059l-1.532-5.653h3.835z"/><path fill="#b0d9ff" d="m30.307 134.39-.973 3.597-.097-.025H14.484c-1.355 0-2.708-.724-2.708-1.771v-.055c0-1.047 1.353-1.771 2.708-1.771h15.732z"/><path fill="#5ab0ff" d="M29.575 120.112v.004H25.65l-1.611-5.944h3.926z"/><path fill="#b0d9ff" d="M29.495 134.306v.059h-3.96v-.184l-1.497-5.524v-.004h3.924z"/><path fill="#5ab0ff" d="M16.183 142.901h-1.7a2.77 2.77 0 0 1-1.981-.874 2.64 2.64 0 0 1-.726-1.834v-4.002c0 1.047 1.353 1.771 2.708 1.771h14.753l.097.025L28 142.912l-.042-.011z"/><path fill="#002140" d="M26.406 88.676c.106.332.281.642.511.904-.175.412-.388.977-.686 1.617-1.454.346-3.033.025-4.188-1.005-1.072.475-2.425.502-3.447.09a4.4 4.4 0 0 0 1.047-1.435 3.7 3.7 0 0 0 1.98-.846l.082.006a3.1 3.1 0 0 0 2.073 1.313 3.1 3.1 0 0 0 2.367-.64l.263-.004z"/><path fill="#b0d9ff" d="m24.04 114.172 1.61 5.944h-3.282v-.042l1.598-5.902z"/><path fill="#e4bc07" d="M4.394 94.401c-.05-.865.143-1.908.762-3.08 1.171-2.22 3.713-3.244 4.874-3.445s1.708.268 2.596 1.229c.889.96 1.47 2.149 3.777 2.08.956-.028 1.676-.436 2.19-.902 1.023.411 2.376.384 3.448-.091 1.155 1.03 2.733 1.351 4.188 1.005-.861 1.849-2.442 4.323-5.898 5.51-4.652 1.593-8.593-1.375-8.593-1.375s-.547-.458-1.366.251c-.821.712-.684.657-1.913 1.307-1.23.648-2.845.342-3.485-.62-.302-.454-.538-1.09-.58-1.869"/><path fill="#5ab0ff" d="m23.966 114.172-1.598 5.902v.042h-3.705q-.117 0-.234.009v-.007l1.585-5.851v-.095zm-3.928 14.481v.023l-1.54 5.68v.009h-3.864v-.237l1.8-6.647h.005a2.77 2.77 0 0 0 2.224 1.172z"/><path fill="#b0d9ff" d="M20.015 114.172v.095l-1.586 5.851v.007c-1.273.076-2.474.776-2.474 1.762v4.057c0 .589.184 1.111.484 1.535h-.005l-1.8 6.649v.237h-.15c-1.355 0-2.708.724-2.708 1.771v4.057c0 .735.285 1.366.726 1.834l-.01.011-1.896 6.997c-.237.877.51 1.499 1.401 1.59h-3.74v.011c-.971-.017-1.839-.665-1.588-1.601l9.444-34.863v-.009q.1.01.199.009z"/><path fill="#5ab0ff" d="m16.183 142.901-1.7 6.274c-.223.865-.78 1.45-1.563 1.45h-.923c-.89-.091-1.638-.714-1.401-1.59l1.895-6.997.01-.011c.518.549 1.25.874 1.983.874z"/><path fill="#e4bc07" d="M5.382 56.12a5.3 5.3 0 0 1-.701-1.172c-.809-1.876-.277-4.257 1.309-5.547s3.683-1.376 5.357-.203l.175.085c-.327.686-.274 1.551.171 2.172l.07.057q-.063.075-.12.154-.08.111-.142.234l-.059-.031c-.547-.433-1.237-.701-1.934-.684-.698.017-1.397.337-1.813.899-.405.549-.513 1.292-.33 1.95.187.657.647 1.22 1.23 1.58.282.172.62.306.947.234l.042.027q-.076.111-.137.234a2.12 2.12 0 0 0 .01 1.86c-1.574.207-3.098-.6-4.075-1.849"/><path fill="#d18000" d="M11.615 54.773v.02c-.798.025-1.59.426-2.03 1.082l-.043-.027c-.327.072-.665-.062-.948-.235-.582-.358-1.042-.922-1.228-1.579-.184-.658-.076-1.401.33-1.95.415-.562 1.114-.882 1.813-.9.696-.016 1.386.252 1.933.685l.06.031c-.21.4-.288.864-.284 1.318a3.3 3.3 0 0 0 .397 1.555"/><path stroke="#002140" stroke-linecap="round" stroke-linejoin="round" d="M35.635 61.095c.659.562 1.208 1.343 1.547 2.278.34.935.418 1.887.275 2.74q-.076.463-.24.878c-.355.916-1.01 1.632-1.896 1.953q-.422.151-.857.173c-1.672.086-3.41-1.214-4.148-3.251a5.6 5.6 0 0 1-.338-2.142c.072-1.59.878-2.95 2.201-3.429a3 3 0 0 1 1.233-.169c.78.055 1.556.4 2.223.97"/><path stroke="#002140" stroke-linecap="round" stroke-linejoin="round" d="M37.216 66.991c-1.108.304-2.406-.141-3.375-1.195l2.064-2.592-3.132.754c-.475-1.471-.199-2.951.64-3.831m2.222.968c.222-1.325.984-2.412 2.136-2.83a3 3 0 0 1 1.233-.17c1.121.079 2.236.759 3.025 1.842.302.413.555.884.745 1.405.462 1.273.441 2.576.036 3.618-.287.737-.766 1.345-1.404 1.72q-.233.138-.494.233c-1.154.42-2.434.074-3.455-.8"/><path stroke="#002140" stroke-linecap="round" stroke-linejoin="round" d="M42.81 64.96c-1.11.304-2.406-.141-3.377-1.194l2.064-2.593-3.13.754c-.477-1.471-.2-2.951.637-3.831m-1.891 12.887q.072.105.158.2c.494.555 1.288.84 2.01.67a1.93 1.93 0 0 0 1.403-1.415q.045-.181.045-.371m.141.416c.526.173 1.125.16 1.613-.104.485-.262.836-.796.813-1.349-.013-.26-.1-.51-.214-.743a3.47 3.47 0 0 0-1.54-1.564m-4.412 4.532c-.397.446-.94.792-1.535.834-.595.04-1.233-.279-1.45-.834a1.3 1.3 0 0 1-.072-.266c-.025-.145-.03-.295-.025-.443.014-.488.13-.984.42-1.376m12.135.071q-.046-.086-.099-.168c-.33-.532-.823-.967-1.408-1.185-.648-.243-1.406-.205-1.999.15m6.685.064a2 2 0 0 1-.2-.172c-.6-.555-.95-1.37-.982-2.186-.031-.853.26-1.704.758-2.396q.048-.067.1-.133M27.943 73.48c.072-1.165-.203-2.37-.89-3.316-.685-.942-1.8-1.592-2.965-1.596h-.008m-4.754-5.921q.009-.03.015-.06c.232-.844 0-1.785-.528-2.48-.544-.713-1.378-1.177-2.256-1.359m24.229-1.98.038-.019c.257-.127.54-.205.823-.194.3.01.6.124.804.344.243.262.323.637.332.994a3.14 3.14 0 0 1-.665 1.978m-11.471-.825-.038-.015-.017-.006c-.747-.294-1.665-.007-2.172.62-.52.642-.616 1.57-.325 2.343s.935 1.383 1.687 1.725m3.713-7.023q-.001-.09.006-.182c.06-.899.737-1.737 1.615-1.96.937-.24 2.005.246 2.446 1.105m-6.077 17.781a2.06 2.06 0 0 1 .549-1.931 2.06 2.06 0 0 1 1.944-.499m-9.888-2.491a5.27 5.27 0 0 0-1.087-3.979 5.28 5.28 0 0 0-3.639-1.94m30.206 5.349a2.06 2.06 0 0 0-1.774-.188 2.06 2.06 0 0 0-1.24 1.284.114.114 0 0 1 .022-.152m2.767-5.547c-1.19-.326-2.058-1.466-2.248-2.686-.148-.954.078-1.933.53-2.793q.19-.358.426-.686m-7.259-.487c.19-.547.072-1.19-.304-1.63a1.69 1.69 0 0 0-1.56-.557 1.68 1.68 0 0 0-1.252 1.087"/><path stroke="#002140" stroke-linecap="round" stroke-linejoin="round" d="M33.334 56.5c-.418-.258-.914-.399-1.401-.342-.488.055-.957.32-1.212.74a2 2 0 0 0-.177.41 2.55 2.55 0 0 0 .065 1.672c.006.017.01.043 0 .05a.02.02 0 0 1-.008.01c-.01.004-.013-.007-.009-.015.002-.009.007-.015.009-.005m-2.658 14.46c.633-1.024 2.49-1.296 3.485-.371"/><path stroke="#002140" stroke-linecap="round" stroke-linejoin="round" d="M16.557 58.748c1.33-5.15 4.798-8.788 9.039-10.559a16 16 0 0 1 5.691-1.218c6.155-.173 12.659 3.186 16.34 10.89M34.535 86.348a2.1 2.1 0 0 0 .114-.686c-.004-.906-.635-1.775-1.494-2.067a.3.3 0 0 0-.049-.016m.021 4.181c.659-.21 1.185-.762 1.406-1.412M19.24 82.36c.03.71.54 1.375 1.218 1.586a1.79 1.79 0 0 0 1.906-.612m-8.254-5.505c-.464.745-.331 1.809.304 2.417.636.605 1.704.694 2.428.196m-.636-11.209c-.466.346-.772.92-.747 1.503.023.58.4 1.146.946 1.35.544.204 1.228 0 1.539-.491m-10.069.348c-.382.86-.03 1.976.774 2.464.805.487 1.955.283 2.542-.452M5.99 69.326c-.864-.14-1.59-.893-1.698-1.76-.107-.868.414-1.776 1.216-2.12m4.14-3.116c-.684.317-1.062 1.155-.891 1.89.171.732.844 1.306 1.592 1.405.747.102 1.524-.253 1.982-.85m-2.333-6.162a1.75 1.75 0 0 1-.54-.644 2.12 2.12 0 0 1-.01-1.86q.06-.123.136-.234c.442-.656 1.233-1.057 2.031-1.083q.06-.005.123-.004m14.634 32.546a2.3 2.3 0 0 0 .034 1.342c.106.332.281.642.511.904.262.306.602.547.988.675 1.015.338 2.22-.137 2.784-1.032q.118-.182.194-.386"/><path stroke="#002140" stroke-linecap="round" stroke-linejoin="round" d="M27.943 54.786c1.744-3.698 6.706-5.493 9.62-3.076M5.72 69.315c-.482.598-.505 1.518-.055 2.139s1.334.884 2.05.612m8.154-2.628a1.7 1.7 0 0 1-1.17-1.398 1.69 1.69 0 0 1 .821-1.625m-5.997-4.021a2.37 2.37 0 0 1-.967-1.993 2.37 2.37 0 0 1 1.138-1.902m1.921-3.726a3.3 3.3 0 0 1-.397-1.556c-.004-.453.074-.918.283-1.317a2 2 0 0 1 .262-.388c.319-.363.787-.602 1.267-.572m3.392 29.764a1.89 1.89 0 0 0 .75 1.785 1.89 1.89 0 0 0 1.933.138m7.126 4.768c-.55.1-1.14-.053-1.575-.403a2 2 0 0 1-.724-1.457m9.252-2.018c.752-.337 1.24-1.188 1.149-2.007-.089-.82-.748-1.545-1.554-1.714"/><path stroke="#002140" stroke-linecap="round" stroke-linejoin="round" d="M67.016 70.744c-3.555 3.363-7.48 6.065-11.676 7.982-6.478 2.957-13.602 4.04-21.007 2.784m.2 4.838h.002c5.214.614 10.152.255 14.855-.948 6.126-1.566 11.852-4.56 17.28-8.699M14.264 48.287c-.842-.372-1.916-.112-2.495.601q-.148.185-.247.395c-.327.686-.274 1.551.171 2.172m6.116-6.421-.007-.076c-.086-1.052.473-2.15 1.417-2.624.956-.48 2.241-.228 2.89.62l.023.03m5.114.095.011-.028c.346-1.021 1.36-1.777 2.434-1.82 1.087-.041 2.164.649 2.582 1.651m6.731 1.415c.367-.137.674-.23.999-.277.22-.03.45-.04.713-.027.245.01.65.046.882.127.207.07.425.179.619.312q.146.098.266.213c.669.642 1.133 1.693 1.072 2.618m7.045 9.305c.373-1.345.329-2.867-.417-4.047-.747-1.18-2.298-1.892-3.61-1.41m7.758 16.169.061-.042c.99-.67 1.639-1.876 1.493-3.06-.146-1.195-1.186-2.261-2.385-2.306q-.025-.003-.049-.002"/><path stroke="#002140" stroke-linecap="round" stroke-linejoin="round" d="M55.353 75.211q.045-.007.089-.019c.548-.133.998-.568 1.256-1.074.285-.56.358-1.246.114-1.824a1.7 1.7 0 0 0-.498-.659 1.54 1.54 0 0 0-.83-.344 1 1 0 0 0-.137-.004m-1.852-9.402s.005-.009.005-.013c.434-1.127.574-2.425.08-3.527-.496-1.106-1.748-1.915-2.928-1.638m-4.169-5.569.032-.059c.192-.352.293-.751.306-1.152a2.67 2.67 0 0 0-.52-1.695 2.6 2.6 0 0 0-.762-.67 2.7 2.7 0 0 0-1.984-.3m-4.575-3.007c-.381-1.307-1.523-2.363-2.857-2.641-1.334-.28-2.804.228-3.68 1.27q-.005.008-.01.011m-5.144.207-.032-.05c-.549-.879-1.497-1.525-2.529-1.596-1.051-.074-2.15.506-2.584 1.469m-4.327 2.039-.015-.006a2.75 2.75 0 0 0-2.826.561 2.75 2.75 0 0 0-.697 2.763q.006.029.017.053a.27.27 0 0 0-.025-.342"/><path stroke="#002140" stroke-linecap="round" stroke-linejoin="round" d="M46.863 49.927c1.697-.938 2.537-3.038 2.337-4.967-.16-1.556-.948-3.063-2.213-3.986-1.264-.924-3-1.211-4.454-.63-1.452.58-2.537 2-2.545 3.564m-28.641 5.29c-1.674-1.173-3.772-1.087-5.357.203s-2.118 3.67-1.31 5.547c.182.418.419.813.702 1.172.977 1.25 2.501 2.056 4.076 1.85m8.232-6.116q1.089.253 1.351 1.444m.328-3.435a2.75 2.75 0 0 1 1.43 1.448m1.345-3.535c.522.386.792.791 1.039 1.557m2.413-1.143c0-.744-.48-1.43-1.02-1.87m2.968 1.22v-.018a4.07 4.07 0 0 0-.646-2.119m4.389 1.568c.2-.652.2-1.367 0-2.02m2.406 2.044c.372-.65.443-1.307.224-2.02m4.903 3.478c.364-.55.47-1.26.283-1.891m1.683 2.894c.342-.503.47-1.146.348-1.742"/><path stroke="#002140" stroke-linecap="round" stroke-linejoin="round" d="M45.607 47.446c.773-.81.95-2.125.422-3.111-.38-.705-1.12-1.233-1.923-1.258-.802-.028-1.617.502-1.832 1.275M9.542 55.848c-.327.072-.665-.062-.948-.235-.582-.358-1.042-.922-1.228-1.579-.184-.658-.076-1.401.33-1.95.415-.562 1.114-.882 1.813-.9.696-.016 1.386.252 1.933.685M36.233 74.21q.236.042.47.076c1.433.203 2.772.171 3.994-.154a7.2 7.2 0 0 0 3.232-1.843q.19-.184.373-.388m-8.164 6.849c1.12.25 2.265.318 3.375.225 1.74-.146 3.405-.686 4.79-1.554a8.5 8.5 0 0 0 2.028-1.75"/><path stroke="#002140" stroke-linecap="round" stroke-linejoin="round" d="M36.232 74.21c-3.088-.61-3.854 2.485-1.699 3.925.42.282.954.502 1.605.616m8.164-6.85c1.575-1.942 3.638.006 2.793 2.43-.154.437-.4.89-.764 1.34m-11.798 2.464 2.151-3.722m2.829 4.562-2.829-4.562m4.013-.281-1.184 4.843m4.789-1.556-3.605-3.287m3.232-1.842.019.253.355 4.876m2.792-3.089-3.147-1.787m1.634 14.791c.544.027 1.17.173 2.271-.298 1.102-.473 1.3-1.13 1.541-1.617m-9.138 2.457-.034.102c-.355 1.078-1.241 1.995-2.343 2.273a2.7 2.7 0 0 1-.838.078c-.787-.04-1.562-.4-2.048-1.013a2 2 0 0 1-.173-.247M21.62 88a3.7 3.7 0 0 1-1.98.847 3.7 3.7 0 0 1-1.791-.232c-1.231-.498-2.14-1.71-2.276-3.031l-.004-.034m-4.824-2.664c-1.68.598-3.698.078-4.882-1.254-1.186-1.332-1.465-3.396-.678-4.996m-2.366-6.671-.08-.035C1.55 69.368.71 68.125.639 66.812c-.072-1.303.616-2.618 1.72-3.308.034-.025.067-.044.103-.066m2.158-4.133a3 3 0 0 1-.106-.257c-.346-1.024.006-2.265.868-2.928l.012-.01m50.092 15.1c.593-.312.85-1.046.827-1.717-.02-.526-.187-1.054-.517-1.463a1.93 1.93 0 0 0-1.051-.676q-.15-.035-.302-.042m.84 11.287a2.23 2.23 0 0 0 .847-1.621 2.23 2.23 0 0 0-.672-1.702M40.304 88.005c.96.705 1.62.94 2.753.94s1.891-.602 2.525-1.611m-10.637 2.02c-.494.7-1.32 1.178-2.176 1.18a2.33 2.33 0 0 1-1.34-.43 2.1 2.1 0 0 1-.716-.866m-4.571-.558a3.1 3.1 0 0 1-2.366.64 3.1 3.1 0 0 1-2.073-1.313m-6.191-2.417c-.994.488-2.217.551-3.2.049-.986-.505-1.668-1.61-1.552-2.71"/><path stroke="#002140" stroke-linecap="round" stroke-linejoin="round" d="M5.156 76.594a4.7 4.7 0 0 1-2.763-2.768 4.7 4.7 0 0 1 .346-3.896m-.414-6.479a3.4 3.4 0 0 1-.338-.794c-.221-.804-.11-1.71.363-2.4.437-.635 1.189-1.06 1.96-1.06q.093 0 .187.01m23.459 43.226 2.864-10.168.608-2.162m5.002 2.873.605-2.442m-2.502 10.101 1.896-7.659m-6.122 14.24h4.885m.097-5.038c1.786.158 2.402 2.037 1.953 3.455-.281.88-.974 1.583-2.05 1.583m-7.236-4.783c-.304 1.157-.35 2.316-.032 3.202.338.944 1.09 1.581 2.383 1.581m4.982-5.038c-.956-.211-.956-.513-.756-1.543m-8.302-9.438c.298-.64.51-1.206.686-1.617m-7.277-.733s-.318.78-1.046 1.436c-.515.466-1.235.874-2.191.901-2.307.07-2.888-1.119-3.777-2.08-.888-.96-1.435-1.428-2.596-1.228s-3.703 1.225-4.874 3.445c-.619 1.172-.813 2.215-.762 3.08.042.78.278 1.415.58 1.868.64.963 2.255 1.269 3.485.62 1.229-.65 1.092-.594 1.913-1.306.819-.709 1.366-.25 1.366-.25s3.94 2.967 8.593 1.373c3.456-1.186 5.037-3.66 5.898-5.51m6.601 13.891q1.096.724.73 2.129"/><path stroke="#002140" stroke-linecap="round" stroke-linejoin="round" d="M34.945 104.825q1.26.598.84 2.311M6.443 93.475c-.582 1.095-1.294 1.173-2.05.926h-.001m2.7.883c-.32.823-1.024 1.06-1.936.985m16.884-6.077c1.156 1.03 2.735 1.351 4.189 1.005"/><path stroke="#002140" stroke-linecap="round" stroke-linejoin="round" d="M18.594 90.283c1.021.411 2.375.384 3.447-.091m12.292 1.663c.57.843 1.365 1.121 2.096 1.121h.002m-5.611-.711c1.125.665 2.463.445 3.513-.41m-18.021 22.317H47.1m-33.496-2.708v-4.058m2.708 6.766q-.1 0-.199-.009c-1.285-.101-2.51-1.177-2.51-2.699m2.709-2.232h30.79m-30.79 0c-1.355 0-2.708-.724-2.708-1.771m2.708-1.826h11.616m9.318 0h9.856m-30.79 0c-1.355 0-2.708.724-2.708 1.771m5.06 21.247h13.133m-15.842-2.709v-4.057m2.709 6.766a2.77 2.77 0 0 1-2.225-1.174 2.63 2.63 0 0 1-.484-1.535m2.709-2.231h14.413m-14.413 0c-1.356 0-2.709-.724-2.709-1.771m2.709-1.826h15.39m-15.39 0q-.118 0-.235.009c-1.273.076-2.474.776-2.474 1.762m-1.471 21.014h13.474m-16.182-2.708v-4.057m2.708 6.765a2.77 2.77 0 0 1-1.982-.874 2.64 2.64 0 0 1-.726-1.834m2.708-2.231h14.753m-14.753 0c-1.355 0-2.708-.724-2.708-1.771m2.708-1.826h15.732m-15.732 0c-1.355 0-2.708.724-2.708 1.771m38.034-24.672v-4.058m-2.708 6.766q.263 0 .523-.055c1.159-.241 2.185-1.26 2.185-2.653m-2.708-2.232c1.353 0 2.708-.724 2.708-1.771m-2.708-1.826c1.353 0 2.708.724 2.708 1.771m-14 43.219h-7.88m7.855-36.453-1.62 5.974-.972 3.599-1.334 4.925-1.552 5.72-.973 3.597L28 142.912l-1.66 6.123m13.371-34.863-9.444 34.863m11.443-27.752-5.385 19.885-.542 2.001-1.628 6.006m9.483-35.003-1.928 7.109m-15.37 27.754c-.253.936.617 1.584 1.588 1.601h.013m2.326-1.601c-.238.876.509 1.499 1.402 1.59q.097.01.198.011m2.288-1.461c-.223.865-.78 1.45-1.564 1.45m18.241 0h4.663m-7.857-36.453 9.444 34.863m-13.371-34.863 9.445 34.863M41.71 121.281v.002l5.392 19.898 1.023 3.778 1.142 4.216m7.815-.14c.253.94-.625 1.59-1.6 1.601m-6.215-1.461c.224.865.781 1.45 1.564 1.45m2.369-1.45c.224.865.78 1.45 1.564 1.45m-41.844 0H8.257m7.856-36.453L6.67 149.035m5.821-6.997-1.895 6.997m5.838-21.554-1.8 6.647m5.38-19.861-1.585 5.851m-2.242 22.768-.004.015-1.7 6.274m5.555-20.499-1.54 5.68m5.468-20.184-1.598 5.902M6.67 149.035c-.252.936.616 1.584 1.587 1.601h.012m2.327-1.601c-.237.876.51 1.499 1.401 1.59q.098.01.199.011m2.288-1.461c-.224.865-.781 1.45-1.564 1.45m15.046-36.453 1.609 5.94m6.25 23.07.481 1.777 1.104 4.076m-13.37-34.863 1.61 5.944.003.004m2.307 8.522.002.011 1.532 5.653m-5.456-5.649 1.496 5.524m11.876 14.854c.256.94-.622 1.59-1.6 1.601m12.315-5.677H36.298m10.804-3.778H36.374m35.429-70.988a6.35 6.35 0 0 0 2.242 2.76q.157.107.325.204m1.84-7.029-3.374 3.113-1.033.952m6.727-1.418-3.36 3.1-1.047.965m4.407-4.065c.425-.372.083-1.2-.478-1.856a3.4 3.4 0 0 0-.84-.724c-.38-.221-.752-.287-1.001-.067m-2.179-6.852-7.016 1.363m7.601 2.107-6.134 1.193m6.134-1.193c.234-.04.395-.22.494-.48.226-.6.114-1.627-.211-2.308-.211-.444-.513-.741-.868-.682"/><path stroke="#002140" stroke-linecap="round" stroke-linejoin="round" d="M67.016 70.744c1.916-2.104 3.803-3.109 5.82-1.503m-1.146 5.474c.497.502 1.198.819 1.9.827q.269.009.533-.05c.868-.192 1.606-.952 1.678-1.839.072-.9-.287-1.361-.59-1.733M64.442 60.18a6.7 6.7 0 0 0-1.19.358c-.426.175-.846.403-1.13.766s-.403.885-.191 1.294c.187.366.603.575 1.015.61q.18.015.36-.006a3.4 3.4 0 0 0 .843-.222 7.8 7.8 0 0 0 1.457-.734c.367-.239.73-.54.98-.895a1.67 1.67 0 0 0 .322-.98c-.015-.572-.399-1.091-.889-1.387-.492-.295-1.074-.394-1.648-.415-2.105-.079-4.325 1.006-5.182 2.932-.34.766-.585 1.422-.822 2.71-.318.538-1.245 1.252-1.245 1.252s-1.511 1.26-2.36 1.82"/><path stroke="#002140" stroke-linecap="round" stroke-linejoin="round" d="M61.143 67.48c.37.267.64.398 1.085.482.446.087.937.02 1.298-.257.277-.212.446-.511.551-.845.097-.302.142-.633.163-.948.067-.954-.34-2.307-.931-2.685m-1.915 2.529c-.088-.508-.13-1.038.005-1.537.135-.5.475-.966.96-1.141m-6.045 8.557c1.922-1.26 3.563-2.634 4.83-4.154m3.028-.593c.703.384 1.698.065 2.048-.655q.06-.126.1-.26a3 3 0 0 0 .082-.386 4.25 4.25 0 0 0-.868-3.219"/><path stroke="#002140" stroke-linecap="round" stroke-linejoin="round" d="M66.387 65.993c.466.22 1.053.093 1.44-.25.386-.34.584-.863.603-1.378q.008-.209-.019-.418a3.8 3.8 0 0 0-.32-1.076c-.29-.644-.754-1.269-1.432-1.467m2.987 14.826c.456.57 1.165.95 1.89.972q.181.006.362-.02c.834-.118 1.586-.804 1.691-1.64q.003-.01.004-.023"/><path stroke="#002140" stroke-linecap="round" stroke-linejoin="round" d="M66.676 76.71c.49.616.994 1.245 1.663 1.661.667.418 1.545.589 2.248.234.526-.264.897-.812.948-1.397m7.46-14.285a.655.655 0 1 1-1.311.002.655.655 0 0 1 1.311-.002m1.195.304 12.688-2.56m-17.769 1.6h.002c1.495-.319 2.881 2.603 2.1 3.928M74.9 59.958a3.7 3.7 0 0 1 1.136-.2c1.137-.033 2.36.41 3.191 1.344.484.542.836 1.25.963 2.125m-2.14 3.693h.002l10.237-1.78m4.59-4.473c0 1.701-1.314 3.907-4.59 4.473m-8.933-4.064 9.586-8.24m-12.908 6.828 6.56-5.957m6.348-.872c-1.343-1.047-3.889-1.367-6.348.872m36.183 73.096h17.411m-17.411 20.645h17.411m-17.411-32.677h5.799m-4.558 7.133h14.929m-14.929-3.293h4.558m-5.799 8.192c-3.018 0-4.95-1.553-5.799-3.544-1.513-3.55.421-8.488 5.799-8.488"/><path stroke="#002140" stroke-linecap="round" stroke-linejoin="round" d="M120.018 121.904c-2.541 0-2.541-3.293 0-3.293m-1.241 28.837c-2.229 0-4.199-.34-5.913-.941-6.457-2.261-9.25-8.224-8.348-13.658.682-4.11 3.479-7.916 8.405-9.581m23.932 27.562h-18.741"/><path stroke="#002140" stroke-linecap="round" stroke-linejoin="round" d="M121.595 136.48c-1.961 5.089-9.531 4.853-11.274.764m7.791 13.586c-4.228 0-5.632-2.493-5.248-4.323m-2.543-9.263c-.75-1.545-2.62-4.686-5.729-4.382m20.005-10.958V110.64m11.591 4.131h-5.799m4.558 3.84h-4.558m5.799 8.192c3.018 0 4.95-1.553 5.798-3.544 1.514-3.55-.42-8.488-5.798-8.488"/><path stroke="#002140" stroke-linecap="round" stroke-linejoin="round" d="M134.947 121.904c2.541 0 2.541-3.293 0-3.293m1.241 28.837c2.229 0 4.198-.34 5.912-.941 6.458-2.261 9.25-8.224 8.349-13.658-.682-4.11-3.479-7.916-8.406-9.581"/><path stroke="#002140" stroke-linecap="round" stroke-linejoin="round" d="M133.37 136.48c1.961 5.089 9.53 4.853 11.274.764m-7.791 13.586c4.228 0 5.632-2.493 5.247-4.323m2.544-9.263c.749-1.545 2.62-4.686 5.729-4.382m-20.005-10.958v-12.617m-8.773 27.193c1.381-5.142 9.904-5.51 11.775 0m-15.184-28.421c-.055.456-.021.928.163 1.351.183.42.529.783.966.92.583.186 1.239-.051 1.687-.469s.718-.99.927-1.566m-6.793-1.467a1.4 1.4 0 0 1-.393-.072c-.789-.255-1.344-1.157-1.235-2.001.11-.842.773-1.541 1.575-1.832q.196-.076.401-.112m10.398 1.744c.07.884.976 1.608 1.854 1.481.876-.126 1.541-1.078 1.359-1.946m3.46-.775c.694.201 1.446-.468 1.442-1.19-.002-.724-.627-1.351-1.337-1.492m-10.305 5.066a2.15 2.15 0 0 0 2.048.527 2.15 2.15 0 0 0 1.475-1.511m3.283-.551c.198.555.529 1.077 1.011 1.416.483.34 1.123.48 1.68.283.485-.173.872-.599.996-1.097a1.59 1.59 0 0 0-.363-1.44m-6.294 5.106c.133 1.106 1.182 2.023 2.294 2.004.758-.011 1.474-.456 1.883-1.09.19-.295.315-.631.346-.985m4.064-.123c.593.536 1.52.68 2.237.327.243-.118.454-.293.625-.502.332-.412.502-.956.42-1.48a1.85 1.85 0 0 0-1.406-1.475 1.3 1.3 0 0 0-.226-.032m.15-4.025q.11-.007.218-.028c.728-.135 1.351-.756 1.463-1.49.08-.536-.117-1.094-.482-1.49a1.7 1.7 0 0 0-.675-.459m4.69-1.131s.013.015.021.021c.617.619 1.653.751 2.419.344q.12-.062.231-.143c.493-.368.778-.974.802-1.586a1.95 1.95 0 0 0-.235-1.032m4.505-1.733q.054.045.108.082c.795.566 2.011.372 2.691-.342.519-.546.739-1.321.692-2.079a3 3 0 0 0-.158-.821m2.801-3.451c1.062.202 2.227-.37 2.713-1.337.483-.958.257-2.22-.524-2.953q-.01-.011-.021-.02m1.092-5.259c1.137-.084 2.03-1.235 1.999-2.377-.032-1.144-.853-2.174-1.896-2.643m-17.753 20.018c.351 1.024 1.668 1.543 2.673 1.133 1.002-.407 1.587-1.58 1.433-2.653m3.525-2.122.019.01c.855.394 1.965.121 2.537-.626.579-.751.549-1.906-.063-2.628m1.758-3.396c.908.03 1.803-.555 2.143-1.398.342-.842.101-1.885-.572-2.495m-23.925 31.387c.365 1.075 1.376 1.902 2.501 2.044.418.052.877.004 1.195-.271.507-.441.444-1.235.241-1.878l-.015-.051m-12.76.082v.019c-.133.76.247 1.579.897 1.993.498.317 1.131.391 1.699.236q.277-.075.522-.223c.648-.389 1.063-1.119 1.095-1.873q.005-.037.004-.076m-11.462-1.539c-.426.431-.817.933-.946 1.527-.128.593.068 1.289.592 1.598.27.16.599.202.914.183 1.23-.072 2.26-1.007 2.883-2.077l.032-.053m-3.158-5.178c-.452-.563-.615-1.327-.488-2.037.074-.42.249-.819.524-1.148m21.501 5.364q.052 0 .099-.002c.959-.053 1.82-.893 1.875-1.852.057-.994-.758-1.959-1.746-2.068"/><path stroke="#002140" stroke-linecap="round" stroke-linejoin="round" d="M137.581 97.77q.099.136.211.26c.405.447.939.783 1.53.903.701.142 1.474-.04 1.993-.532.511-.481.733-1.266.498-1.927l-.01-.034m3.502-1.349a3.04 3.04 0 0 0 2.936-.124 3.04 3.04 0 0 0 1.402-2.56v-.022m3.453-2.405c1.036.425 2.335-.094 2.877-1.071.142-.254.232-.53.272-.815a2.87 2.87 0 0 0-.675-2.31m-10.151 3.796c.515.802 1.737.96 2.531.433.789-.524 1.135-1.569.979-2.504l-.002-.015m2.554-3.16c.838.235 1.795-.261 2.155-1.055.361-.792.144-1.788-.458-2.417m1.573-3.979c.213.099.467.008.671-.11a2.66 2.66 0 0 0 1.294-2.12 2.66 2.66 0 0 0-1.066-2.243m2.236 8.984c1.11-.211 2.047-1.148 2.254-2.261.205-1.104-.321-2.305-1.269-2.905q-.01-.008-.021-.014m-1.399-10.794c.532-.804.937-1.711 1.024-2.67.086-.96-.18-1.975-.843-2.674-.66-.699-1.747-1.016-2.638-.652m-3.354-3.705.002-.01c.171-.87.323-1.827-.131-2.589a1.86 1.86 0 0 0-1.672-.88 1.85 1.85 0 0 0-1.509.996q-.024.043-.043.085m-4.428-2.318.01-.063c.157-.855-.194-1.775-.85-2.347-.672-.587-1.63-.811-2.506-.638-.874.175-1.657.724-2.168 1.457l.011-.017.126-.214m-5.199-.244a1 1 0 0 0-.044-.078.1.1 0 0 0-.021-.036c-.526-.904-1.592-1.457-2.641-1.43-1.096.032-2.138.66-2.748 1.569m-5.001.141-.004-.006c-.587-1.017-1.866-1.52-3.034-1.361-1.15.156-2.172.876-2.883 1.792l-.032.04m-4.627-1.978.011-.021a3.2 3.2 0 0 0 .327-2.451 3.17 3.17 0 0 0-1.569-1.94m7.53-5.104a3.6 3.6 0 0 1-.595 1.009 3.77 3.77 0 0 1-1.647 1.16 3.78 3.78 0 0 1-3.107-.29m9.115-1.655c.2.95 1.178 1.667 2.144 1.576.953-.088 1.769-.954 1.812-1.908l.002-.042m5.034-.464c.152 1.17 1.231 2.148 2.409 2.184 1.154.036 2.269-.835 2.524-1.959q.01-.034.015-.07m5.353.073c.294.673.661 1.363 1.29 1.741.629.38 1.465.37 2.098 0a2.28 2.28 0 0 0 1.098-1.809m4.636.074c.289.905.882 1.798 1.794 2.066.977.29 2.066-.3 2.537-1.203q.092-.173.15-.358c.315-1.007-.078-2.187-.918-2.816a2 2 0 0 0-.116-.083m.515-4.572.063-.015c1.1-.26 1.921-1.414 1.79-2.54-.135-1.147-1.239-2.097-2.394-2.057m-.071-4.771q.079-.022.156-.048c.713-.256 1.277-.915 1.385-1.664.116-.806-.315-1.668-1.039-2.039a1.93 1.93 0 0 0-2.094.26 2 2 0 0 0-.139.137c-.028.03-.053.07-.034.103.019.034.086-.006.055-.03m-1.64 14.386c.43.038.836-.238 1.095-.584a2.22 2.22 0 0 0 .304-2.054 2.22 2.22 0 0 0-1.556-1.374m-7.012 4.768c.042 1.02 1.02 1.904 2.039 1.843.918-.053 1.71-.863 1.801-1.767q.019-.151.006-.304m-12.055 1.225a2.33 2.33 0 0 0 2.168 1.376 2.33 2.33 0 0 0 2.07-1.52"/><path stroke="#002140" stroke-linecap="round" stroke-linejoin="round" d="M147.378 33.132q.007.077.021.15a2.11 2.11 0 0 0 1.254 1.545 2.1 2.1 0 0 0 2.096-.329c.291-.243.517-.58.578-.956.059-.376-.065-.79-.361-1.032m-.232-4.058c.439-.114.766-.494.946-.91.468-1.1-.047-2.522-1.113-3.062m-10.89 9.535c.255.834 1.267 1.287 2.111 1.072.842-.213 1.478-.971 1.72-1.807m10.802 2.077c.743.22 1.594-.154 2.011-.808.418-.653.423-1.524.098-2.227s-.95-1.244-1.655-1.562m-.539-9.341h.057c.988 0 1.907.867 1.949 1.857.025.617-.249 1.218-.646 1.69-.397.47-.91.827-1.436 1.15h-.002a.24.24 0 0 1 .159-.203m-8.176 11.669s.004.015.009.021c.242.667.694 1.273 1.31 1.628.623.358 1.417.44 2.073.148.648-.292 1.121-.972 1.104-1.68v-.028m-9.15-.061-.011.044c-.268 1.146-1.374 2.045-2.554 2.064-1.193.02-2.343-.865-2.63-2.024m-5.029-.296q-.002.026-.008.053c-.152 1.066-1.072 1.978-2.145 2.115-1.087.14-2.227-.536-2.628-1.555-.012-.038-.036-.08-.074-.085-.023-.002-.035.023-.035.044 0 .015.008.028.025.024m-4.192.296v.012c.027.561-.361 1.104-.881 1.32-.525.217-1.15.126-1.631-.176-.48-.304-.822-.798-1.007-1.334m-7.576 5.005a2.53 2.53 0 0 0 1.779-1.091 2.53 2.53 0 0 0 .325-2.063m3.709 9.605-.006-.04a2.93 2.93 0 0 0-1.723-2.253 2.93 2.93 0 0 0-2.849.336m46.699 23.444c.766-.492 1.347-1.288 1.526-2.18.182-.894-.057-1.873-.665-2.55-.599-.666-1.553-1.008-2.429-.826l-.047.008m-2.455-6.137c.429-.666.6-1.504.416-2.275s-.737-1.456-1.473-1.75c-.737-.291-1.638-.158-2.225.372m-3.384-2.495c.16-.785.023-1.638-.422-2.303-.448-.663-1.214-1.119-2.016-1.132-.8-.014-1.607.44-1.961 1.157m-5.666-1.624c-.281-1.012-1.309-1.73-2.36-1.768-1.017-.036-2.007.504-2.634 1.306l-.061.079.04-.114q.047-.125.09-.25m-5.602.467q-.003-.029-.008-.057c-.171-1.026-1.292-1.729-2.333-1.642-1.062.09-1.98.84-2.531 1.75m9.324-30.921a2.17 2.17 0 0 0 1.182-.492c.378-.304.652-.734.724-1.216.137-.91-.542-1.89-1.456-1.996m-3.352-1.698c.7-.29 1.133-1.114.977-1.855-.156-.743-.882-1.321-1.64-1.309m3.886 4.798.053-.04c.872-.625 1.498-1.653 1.444-2.725-.055-1.093-.946-2.145-2.04-2.189m-2.82 6.742c.532-.192 1.026-.528 1.328-1.005.302-.475.391-1.104.15-1.617-.241-.51-.836-.854-1.387-.73m2.721-3.447c.808-.445 1.237-1.478.998-2.37s-1.114-1.569-2.039-1.59c-.895-.023-1.769.561-2.113 1.389l-.031.074m-4.921.838-.006-.02c-.074-.223-.148-.449-.258-.658-.504-.98-1.733-1.496-2.801-1.237-1.038.251-1.858 1.182-2.052 2.231l-.017.093c-.006.032-.061.01-.057-.02.007-.032.041-.05.07-.06m-4.627-.188c-.013-.019-.023-.038-.038-.057-.319-.494-.77-.918-1.326-1.112a1.8 1.8 0 0 0-.392-.09c-.475-.062-.973.058-1.326.377-.268.245-.435.585-.517.937-.253 1.079.344 2.297 1.351 2.757m.414 8.99a3 3 0 0 1-1.372-.697 2.9 2.9 0 0 1-.727-.985c-.143-.319-.228-.673-.175-1.017.078-.492.435-.906.864-1.161.367-.218.781-.334 1.201-.416q.104-.022.213-.04m-3.116 7.27c-.312-.566-.783-1.067-1.385-1.305a2 2 0 0 0-.62-.137c-.401-.024-.809.074-1.127.308a1 1 0 0 0-.087.065c-.65.551-.724 1.518-.659 2.367m-4.551 2.567a3 3 0 0 0-.156-.093c-.635-.357-1.38-.53-2.102-.427-.781.112-1.522.564-1.92 1.246a2.25 2.25 0 0 0-.185 1.843q.073.214.196.407m-3.392 4.06q-.03-.01-.059-.016c-.954-.247-2.052.279-2.449 1.182-.331.75-.143 1.68.401 2.282q.186.21.427.357m17.776-14.765a2.32 2.32 0 0 1 .542-2.242 2.32 2.32 0 0 1 2.221-.619M90.628 42.353a2.7 2.7 0 0 1-.641-.406c-.695-.582-1.11-1.498-1.045-2.406.082-1.163.95-2.227 2.07-2.544m4.128 6.897a2.55 2.55 0 0 1-1.576-1.997 2.54 2.54 0 0 1 .999-2.34m-2.94 7.636c-.309.044-.613-.046-.887-.205a2.4 2.4 0 0 1-.401-.293 3.46 3.46 0 0 1-1.138-2.284 3.45 3.45 0 0 1 .766-2.436m6.38 5.592q-.28.017-.56.006a3.2 3.2 0 0 1-.956-.182c-.481-.177-.916-.523-1.115-.996s-.137-1.032.097-1.488c.235-.458.63-.82 1.07-1.08m-1.502 8.31a3 3 0 0 1-.781-.07c-.92-.203-1.752-.815-2.185-1.657-.553-1.074-.42-2.465.323-3.417"/><path stroke="#002140" stroke-linecap="round" stroke-linejoin="round" d="M98.031 51.569c-1.047.22-2.229-.245-2.763-1.17-.526-.907-.314-2.195.515-2.826l.05-.04m-.708 8.752a2.82 2.82 0 0 1-2.514-1.317 2.83 2.83 0 0 1-.032-2.84"/><path stroke="#002140" stroke-linecap="round" stroke-linejoin="round" d="M100.062 55.552c-1.01.35-2.231-.076-2.805-.977-.573-.902-.44-2.19.306-2.953m3.001-25.259a3 3 0 0 1 1.56-2.616q.267-.14.555-.22c.832-.232 1.771-.092 2.485.402M93.083 33.51c-.473-1.034-.411-2.318.232-3.255.646-.94 1.881-1.458 2.985-1.182m41.792 45.705a2.1 2.1 0 0 1-.899-.447c-.431-.363-.731-.891-.781-1.455 0-.025-.005-.05-.005-.074a2.17 2.17 0 0 1 .408-1.365c.228-.323.538-.585.901-.737m-3.211-1.92a2.82 2.82 0 0 1-2.577.367 2.82 2.82 0 0 1-1.739-1.938m-5.25.608c-.283 1.04-1.286 1.842-2.364 1.889-1.075.044-2.139-.663-2.51-1.67l-.007-.013m-4.92-.667q-.051.086-.108.17c-.585.848-1.591 1.42-2.622 1.363-1.082-.061-2.113-.893-2.29-1.963q-.005-.015-.006-.03m-4.243-1.879q-.054.067-.112.13c-.363.402-.808.73-1.319.905-.564.194-1.208.188-1.74-.078-.58-.292-.988-.866-1.163-1.49a3.5 3.5 0 0 1-.095-1.273c.021-.22.062-.437.112-.653m-3.238-2.324a3 3 0 0 1-.48.125c-.991.173-2.068-.12-2.762-.847-.809-.846-.997-2.254-.357-3.234m11.652 42.112c.327.662.754 1.288 1.338 1.74.583.452 1.339.712 2.067.595s1.402-.652 1.573-1.37m-8.841-.89q.002.067-.004.135c-.042.61-.483 1.17-1.06 1.39-.618.235-1.346.096-1.876-.301-.469-.348-.783-.878-.92-1.448a4 4 0 0 1-.045-.228m-4.754.941q-.061.046-.122.087c-.41.293-.853.572-1.351.593-.644.03-1.258-.41-1.518-.998-.26-.59-.196-1.292.089-1.87.27-.554.724-1.001 1.239-1.339l.07-.049m.515-4.603q-.084.015-.167.019c-.695.046-1.385-.412-1.689-1.045-.327-.684-.247-1.518.09-2.198.269-.536.68-.983 1.151-1.357q.19-.153.389-.287m.494-4.579-.028-.02a2.93 2.93 0 0 1-1.154-2.382c.008-.312.07-.629.23-.897.207-.34.565-.566.958-.65.194-.042.399-.05.597-.02.593.092 1.11.486 1.444.985m9.548.358-.063-.118c-.275-.498-.642-.95-1.119-1.254-.515-.327-1.17-.462-1.75-.274-.498.158-.916.58-1.039 1.08a1.2 1.2 0 0 0-.036.26m12.953.838q-.016-.075-.036-.147c-.272-.974-1.205-1.731-2.217-1.784-1.04-.05-2.07.648-2.412 1.63l-.023.065m14.468.298q-.105-.2-.241-.378a2.88 2.88 0 0 0-2.168-1.132 2.87 2.87 0 0 0-2.491 1.368c-.025.042-.059.09-.11.089-.048-.002-.059-.097-.01-.089m13.801.011q-.157-.208-.327-.412c-.446-.532-.965-1.013-1.634-1.11-.92-.138-1.784.53-2.255 1.347l-.08.15a.177.177 0 0 0 .133-.214m8.165-.929a2.25 2.25 0 0 1-.458-1.082 2.25 2.25 0 0 1 .063-.965 2.3 2.3 0 0 1 1.446-1.505"/><path stroke="#002140" stroke-linecap="round" stroke-linejoin="round" d="M134.427 68.876a2.13 2.13 0 0 0 .522 1.961 2.12 2.12 0 0 0 1.942.587m-11.912-3.62c.171.614.688 1.097 1.288 1.313.599.217 1.266.19 1.88.017.904-.254 1.759-.878 2.029-1.778m-15.154.083q.003.045.008.086c.129 1.148 1.113 2.15 2.261 2.286 1.178.142 2.4-.644 2.763-1.77m-14.293-3.038q-.004.072-.004.143c0 .676.247 1.353.709 1.845.498.526 1.244.815 1.961.722.612-.08 1.159-.418 1.659-.781M97.85 60.43c-.418.754-.205 1.765.407 2.369s1.55.815 2.394.648c.253-.05.502-.131.737-.24m10.626-47.891c-.973-.26-1.716-1.214-1.731-2.222-.015-.984.667-1.938 1.598-2.249q.035-.013.069-.023m2.059-2.883q.011-.061.027-.123c.207-.907.764-1.824 1.668-2.011.654-.138 1.342.158 1.836.61s.832 1.047 1.155 1.631m5.112-.312.009-.021c.27-.69.688-1.34 1.292-1.77.608-.432 1.429-.61 2.125-.339.57.22.995.697 1.396 1.155m18.601 11.477q.208-.354.475-.67c.532-.628 1.233-1.114 2.035-1.258 1.072-.194 2.303.361 2.657 1.39m-10.01.392a3 3 0 0 0-.101-.215c-.549-1.041-1.786-1.687-2.955-1.516-1.227.18-2.265 1.25-2.417 2.478l-.009.066m-5.099 59.943q0-.047.004-.093a2.42 2.42 0 0 1 1.292-1.988 2.43 2.43 0 0 1 2.446.166m-12.357 1.928c.135-1.01 1.207-1.731 2.223-1.655 1.015.074 1.902.81 2.362 1.718m-9.328.053a2.66 2.66 0 0 0-2.345-1.465c-.974.002-1.919.6-2.339 1.475-.026.05-.064.112-.121.104q-.022-.003-.025-.023c-.008-.034.021-.087.044-.053m-4.753-.08c-.161-.957-1.003-1.759-1.968-1.869-.962-.11-1.965.48-2.337 1.377-.016.04-.027.095-.01.128a.1.1 0 0 0 .029.03c.055.025.051-.108.013-.063m-9.474-.195c.321-1.036 1.457-1.68 2.54-1.648s2.088.631 2.837 1.412m-7.625 3.323c-.935.563-1.832 1.418-1.893 2.507-.049.847.439 1.653 1.085 2.202a.18.18 0 0 0 .042-.213m.454 4.91a5.8 5.8 0 0 0-1.208 1.15c-.48.615-.844 1.408-.65 2.166a1.69 1.69 0 0 0 1.406 1.23m6.474 2.865c-.31.657-.939 1.102-1.572 1.454-.583.321-1.227.6-1.89.551-.662-.046-1.338-.515-1.416-1.175m8.733-.517.021.042c.232.485.502.964.897 1.328.407.375.969.62 1.516.529.513-.082.954-.456 1.192-.918.178-.35.252-.751.205-1.142q-.002-.039-.008-.078m5.03.988.019.046c.456 1.168 1.914 1.837 3.097 1.408m27.904-82.924c.342-.63.804-1.208 1.414-1.581.61-.374 1.38-.524 2.058-.292.422.144.785.425 1.108.735q.386.372.701.804m-10.736 1.332c-.16-.7-.8-1.23-1.499-1.397-.684-.165-1.408-.028-2.058.24l-.051.021M74.37 45.962c.576-2.136 4.944-2.376 5.82-.928m.426-6.542c1.501-1.157 5.15.435 5.15 2.738m-2.574 34.046c-.974-2.028 1.215-5.68 3.341-5.568"/><path stroke="#002140" stroke-linecap="round" stroke-linejoin="round" d="M74.37 45.962c.967 1.241 4.944 1.241 5.82-.929m.426-6.541c-.114 2.003 3.534 3.86 5.15 2.738m-2.574 34.046c2.575 0 4.306-4.065 3.341-5.568m30.855-47.791c-2.088-.703-3.314-3.681-2.765-4.663m4.053 3.929c-.515-2.71-2.324-4.615-4.053-3.929m-8.803 13.352c-2.047-1.187-5.503-.566-5.758 1.08"/><path stroke="#002140" stroke-linecap="round" stroke-linejoin="round" d="M105.871 32.096c-1.49 1.414-5.307.842-5.809-.41m37.996 24.578c.929-2.34 3.548-3.042 5.193-1.801m-4.374 3.137c2.729.257 4.973-1.554 4.374-3.137m-41.03 36.335c-2.153 1.17-2.932 3.565-2.005 4.756m3.428-4.277c.251 2.637-1.423 4.834-3.428 4.277m39.239 11.346a2.24 2.24 0 0 0 2.358-.477 2.24 2.24 0 0 0 .513-2.291q-.01-.034-.023-.065m.04.059c.593.268 1.347.032 1.746-.483.399-.513.454-1.248.213-1.854s-.671-1.125-1.256-1.41c.857.287 1.864-.323 2.117-1.19.256-.868-.177-1.852-.924-2.362m-6.536 11.282a1.88 1.88 0 0 0 1.638-1.281m-4.853-32.314c.19-.882.98-1.604 1.877-1.71m-6.59 1.702-.047-.1c-.396-.842-1.308-1.418-2.241-1.403-.969.013-1.898.663-2.246 1.566m-5.107-.126q-.003-.031-.01-.062c-.19-1.013-1.132-1.838-2.162-1.885-1.04-.046-2.062.71-2.326 1.717l-.008.03m-4.224.01-.038-.148h-.002c-.178-.604-.526-1.161-1.028-1.541-.543-.41-1.269-.591-1.926-.418-.629.167-1.171.678-1.323 1.309q-.01.04-.017.08m-5.068.211a2 2 0 0 0-.078-.16c-.37-.689-1.212-1.104-1.985-.952-.827.162-1.481.952-1.492 1.792v.014m-3.167 1.529h-.04a2.36 2.36 0 0 0-2.131 1.287c-.015.034-.04.074-.076.083q-.01.004-.024.002c-.044-.009-.012-.104.017-.066m41.469-2.71-.025-.038c-.302-.452-.627-.89-1.039-1.243-.422-.366-.944-.634-1.499-.672-1.015-.067-2.011.754-2.138 1.763"/><path stroke="#002140" stroke-linecap="round" stroke-linejoin="round" d="M125.16 74.565a2.88 2.88 0 0 0-2.45-1.64 2.89 2.89 0 0 0-2.586 1.456c-.019.034-.051.066-.087.053-.042-.015.026-.086.028-.042m-4.596-.224c-.074-.2-.145-.403-.242-.593-.402-.792-1.278-1.355-2.162-1.27-.882.084-1.672.89-1.628 1.777l-.012-.203m-4.393-.437a2.96 2.96 0 0 0-2.573-1.446 2.96 2.96 0 0 0-2.51 1.554.1.1 0 0 1-.025.036.04.04 0 0 1-.036.014c-.028-.004-.013-.06.008-.042m-3.514.864c-.61-.309-1.339-.437-1.989-.22-.648.215-1.184.823-1.197 1.507-.002.036.007.082.042.093h.007c.03 0 .042-.065.008-.055m64.188 8.893q.053.118.093.237c.285.855.085 1.862-.521 2.529-.663.732-1.775 1.017-2.71.696m5.878-7.164c.657.26 1.444.063 1.966-.41.521-.473.787-1.188.795-1.893.009-.67-.198-1.326-.513-1.913l-.054-.097m1.059-5.075c1.1-.198 1.909-1.333 1.854-2.45-.053-1.079-.821-2.052-1.816-2.474-.036-.02-.071-.032-.107-.047m-1.21-5.788c.365-.66.612-1.384.733-2.127.181-1.145-.005-2.447-.874-3.209a2.38 2.38 0 0 0-2.213-.48m-3.696-3.797q.067-.177.116-.36c.112-.397.169-.805.129-1.212-.053-.532-.283-1.062-.697-1.4-.791-.648-2.041-.422-2.803.258m-4.388-2.191.004-.043c.135-1.28-.878-2.541-2.138-2.826-1.273-.29-2.658.331-3.437 1.38l.019-.031.097-.165m-5.148-.091-.021-.05c-.408-1.018-1.446-1.752-2.542-1.799-1.115-.046-2.227.623-2.708 1.63-.021.044-.053.1-.104.097-.025-.002-.038-.028-.038-.05 0-.024.013-.045.036-.032m-5.252.325c-.008-.01-.015-.024-.023-.034a.1.1 0 0 0-.019-.025c-.644-.948-1.858-1.453-3.002-1.332-1.167.124-2.231.852-2.864 1.84a.05.05 0 0 1-.034.017m-4.437-2.128q.039-.064.074-.13a2.84 2.84 0 0 0 .272-1.976 2.86 2.86 0 0 0-1.224-1.748m41.631 45.75c.922.352 2.033-.17 2.518-1.03.486-.862.422-1.955.026-2.86m2.307-4.254c.287.097.606.002.867-.148.819-.469 1.254-1.46 1.208-2.404-.049-.942-.522-1.824-1.157-2.52"/><path stroke="#002140" stroke-linecap="round" stroke-linejoin="round" d="M165.403 66.68q.035-.023.069-.054c1.011-.779 1.615-2.113 1.377-3.37-.243-1.282-1.446-2.361-2.753-2.321l.084-.057m-2.493-5.881a.4.4 0 0 0 .021-.057c.262-.657.433-1.364.374-2.067-.061-.724-.393-1.448-.986-1.866-.356-.25-.787-.382-1.22-.424a3.4 3.4 0 0 0-1.617.245m-3.544-2.442c.158-.743.019-1.556-.416-2.18-.437-.626-1.171-1.044-1.933-1.052s-1.524.41-1.89 1.076q.028-.12.06-.24m-5.691-1.275c-.311-1.03-1.305-1.818-2.382-1.879-1.074-.063-2.155.602-2.583 1.592v-.19m-5.581.088c-.218-.411-.446-.836-.822-1.11a2 2 0 0 0-.669-.306c-1.387-.384-2.995.372-3.601 1.674l-.032.072.013-.097.025-.18m-5.976.703c.264-.965-.428-2.007-1.353-2.39-.89-.365-1.912-.23-2.816.112m0 0-.107.04c-.047.083.084.186.154.123.05-.049.01-.137-.047-.163m0 0a.07.07 0 0 0-.063-.002m-11.882-21.624c.338-.715.794-1.397 1.446-1.845.652-.445 1.528-.618 2.25-.297m-8.171 4.374c.365-1.368 1.912-2.301 3.295-1.985m52.639 13.727c1.062.368 2.354-.133 2.892-1.12.534-.98.262-2.325-.61-3.021q-.009-.01-.019-.017m.272-4.57q.079-.022.157-.047c.694-.226 1.304-.717 1.631-1.37.349-.7.342-1.58-.065-2.25-.403-.663-1.203-1.076-1.972-.973l-.023.002m-.259-5.016a1.7 1.7 0 0 0 .662-.204q.185-.1.344-.239c.794-.696.876-2.054.174-2.84-.581-.649-1.609-.81-2.388-.446a1.8 1.8 0 0 0-.454.302"/><path stroke="#002140" stroke-linecap="round" stroke-linejoin="round" d="M160.925 30.937c.292.082.608.023.885-.1.893-.39 1.416-1.445 1.262-2.41-.15-.944-.891-1.746-1.798-2.05l-.057-.019m-2.692 8.868a3.6 3.6 0 0 1-1.095 2.352 3.6 3.6 0 0 1-2.371.98l-.034.001m5.839-16.809c1.039-.34 1.832-1.327 1.944-2.415.11-1.087-.468-2.214-1.416-2.756m-7.549-2.882c.093-.295.233-.576.412-.827.485-.688 1.25-1.182 2.083-1.305 1.142-.166 2.358.372 3.002 1.328m-15.878 1.592a2.55 2.55 0 0 1 .34-1.27 2.88 2.88 0 0 1 2.573-1.428 2.9 2.9 0 0 1 2.425 1.596l.022.044m-9.941.245c.479-.182.98-.376 1.353-.72q.083-.074.152-.156c.442-.513.547-1.29.26-1.9a1.8 1.8 0 0 0-1.627-1.015m-.387-5.085q.089-.083.171-.174c.465-.512.764-1.188.737-1.878-.032-.77-.517-1.533-1.246-1.786-.5-.175-1.066-.106-1.555.101a3.05 3.05 0 0 0-1.415 1.225m-4.905.614a1 1 0 0 0-.064-.137c-.496-1.043-1.68-1.723-2.832-1.605-1.016.104-1.934.82-2.327 1.757a2.6 2.6 0 0 0-.16.532m-8.465.871-.01-.078c-.114-.916.472-1.878 1.344-2.187.897-.316 1.993.098 2.459.927"/><path stroke="#002140" stroke-linecap="round" stroke-linejoin="round" d="m143.504 14.195-.019-.055a2.2 2.2 0 0 0-1.256-1.291 2.17 2.17 0 0 0-1.847.145m13.782-.192c-.234-1.159-1.594-1.849-2.755-1.621-1.154.228-2.072 1.153-2.609 2.202l-.006.01m-9.811-3.531.014-.01c.931-.649 1.666-1.668 1.704-2.802.038-1.13-.779-2.3-1.898-2.428l-.031-.004m-8.391-1.868c.24-1.066 1.186-1.938 2.269-2.092s2.231.42 2.761 1.377m-15.002.96c.321-.994 1.313-1.731 2.358-1.75 1.042-.019 2.062.682 2.419 1.663M112.33 6.524c.097-.92.67-1.777 1.48-2.222a2.93 2.93 0 0 1 2.668-.053"/></g><defs><clipPath id="a"><path fill="#fff" d="M0 0h168.467v152H0z"/></clipPath></defs></svg>