<svg xmlns="http://www.w3.org/2000/svg" xmlns:xlink="http://www.w3.org/1999/xlink" xml:space="preserve" id="Layer_1" x="0" y="0" viewBox="0 0 390 240"><style>.st1{fill:#03d47c}.st2{fill:#002140}.st3{fill:#780505}.st4{fill:none;stroke:#002140;stroke-width:.999;stroke-linecap:round;stroke-linejoin:round}.st5{fill:#f25730}.st6{fill:#fffaf0}.st7{fill:#008c59}.st8{fill:#0185ff}.st9{fill:#a5fbff}.st10{fill:#8f3013}.st11{fill:#712a76}.st12{fill:#e96df2}.st13{fill:#ff7101}.st14{fill:#f68dfe}.st15{fill:#00b268}.st16{fill:#5be3aa}.st17{fill:#b1f2d6}.st18{fill:none}.st18,.st19,.st20,.st21,.st22{stroke:#002140;stroke-width:.999;stroke-miterlimit:10}.st19{fill:#b1f2d6}.st20{fill:#5be3aa}.st21{fill:#28736d}.st22{fill:#002140}</style><defs><path id="SVGID_1_" d="M0 0h390v240H0z"/></defs><clipPath id="SVGID_00000009561221550539451110000014878987199175797666_"><use xlink:href="#SVGID_1_" style="overflow:visible"/></clipPath><g style="clip-path:url(#SVGID_00000009561221550539451110000014878987199175797666_)"><path d="M206.497 66.04v.503h-22.494v-25.64c0-2.996 1.188-5.732 3.114-7.751a11.22 11.22 0 0 1 8.133-3.496c3.193 0 5.904 1.263 7.944 3.303a11.2 11.2 0 0 1 3.303 7.944z" class="st1"/><path d="m203.237 32.916-.043.043a11.2 11.2 0 0 0-7.944-3.303c-3.092 0-6.082 1.345-8.133 3.496l-.021-.021c6.663-7.013 7.958-16.009 8.211-19.476 0 3.409.767 12.156 7.93 19.261" class="st2"/><path d="M195.25 8a2.099 2.099 0 1 1-.001 4.197A2.099 2.099 0 0 1 195.25 8" class="st3"/><path d="M197.348 10.097a2.1 2.1 0 0 1-2.098 2.101 2.105 2.105 0 0 1-2.101-2.101 2.1 2.1 0 0 1 4.199 0m-2.041 3.557c0 3.41.767 12.157 7.93 19.262l.271.264m-8.201-19.555c.065-.906.058-1.427.058-1.427s-.058.521-.058 1.427m0 0v.028m-8.418 19.695q.106-.108.207-.218c6.663-7.013 7.958-16.009 8.211-19.476m7.887 19.305a11.22 11.22 0 0 1 3.303 7.944v25.64h-22.494v-25.64c0-2.996 1.188-5.732 3.114-7.751a11.22 11.22 0 0 1 8.133-3.496c3.193 0 5.904 1.263 7.944 3.303" class="st4"/><path d="M195.25 33.18a7.302 7.302 0 1 1 0 14.605 7.302 7.302 0 0 1 0-14.605m4.449 7.302a4.45 4.45 0 0 0-1.62-3.431 4.5 4.5 0 0 0-1.719-.877 4.447 4.447 0 0 0-5.39 5.515 4.4 4.4 0 0 0 2.162 2.704 4.4 4.4 0 0 0 2.118.539 4.45 4.45 0 0 0 4.449-4.45" class="st5"/><path d="M199.499 39.159a4.449 4.449 0 0 1-6.367 5.232l.806-.05 5.122-4.951z" class="st2"/><path d="m199.499 39.159-.439.232-5.122 4.951-.806.05a4.4 4.4 0 0 1-1.317-1.081l.278-.143 5.54-5.458.446-.66a4.45 4.45 0 0 1 1.42 2.109" class="st6"/><path d="m198.079 37.05-.446.66-5.54 5.458-.278.143a4.4 4.4 0 0 1-.845-1.623l.114-.032 5.037-5.033.239-.45a4.5 4.5 0 0 1 1.719.877" class="st2"/><path d="m196.36 36.173-.239.45-5.037 5.033-.114.032a4.447 4.447 0 0 1 5.39-5.515" class="st6"/><path d="M195.25 47.784a7.302 7.302 0 1 0 0-14.603 7.302 7.302 0 0 0 0 14.603" class="st4"/><path d="M199.499 39.159a4.449 4.449 0 1 1-8.498 2.644 4.449 4.449 0 0 1 8.498-2.644m-8.415 2.497 5.037-5.033m-4.028 6.545 5.54-5.458m-3.695 6.632 5.122-4.951" class="st4"/><path d="M216.425 188.371v6.842h31.055v-6.842z" class="st7"/><path d="M216.425 181.95v6.421h.51v-.107l2.953-2.95-2.796-2.793v-.571z" class="st8"/><path d="M216.425 175.74v6.21h31.055v-6.21z" class="st7"/><path d="M216.935 188.264v.107h3.792v-.107l2.95-2.95-2.793-2.793v-.571h-3.792v.571l2.796 2.793z" class="st9"/><path d="M220.727 188.264v.107h3.567v-.107l2.95-2.95-2.793-2.793v-.571h-3.567v.571l2.793 2.793z" class="st8"/><path d="M224.294 188.264v.107h3.342v-.107l2.954-2.95-2.797-2.793v-.571h-3.342v.571l2.793 2.793z" class="st9"/><path d="M227.636 188.264v.107h3.792v-.107l2.95-2.95-2.793-2.793v-.571h-3.792v.571l2.797 2.793z" class="st8"/><path d="M231.428 188.264v.107h3.567v-.107l2.95-2.95-2.793-2.793v-.571h-3.567v.571l2.793 2.793z" class="st3"/><path d="M234.995 188.264v.107h3.342v-.107l2.954-2.95-2.797-2.793v-.571h-3.342v.571l2.793 2.793z" class="st10"/><path d="M238.337 188.264v.107h3.792v-.107l2.95-2.95-2.793-2.793v-.571h-3.792v.571l2.797 2.793z" class="st3"/><path d="M242.129 188.264v.107h5.351v-6.421h-5.194v.571l2.793 2.793z" class="st10"/><path d="M216.425 188.371v6.842h31.055V175.74h-31.055zm30.72-6.421h-30.467m30.467 6.421h-30.467" class="st4"/><path d="m234.995 188.264 2.95-2.95-2.793-2.793m3.185 5.743 2.954-2.95-2.797-2.793m3.635 5.743 2.95-2.95-2.793-2.793m-17.992 5.743 2.95-2.95-2.793-2.793m3.185 5.743 2.954-2.95-2.797-2.793m3.635 5.743 2.95-2.95-2.793-2.793m-14.65 5.743 2.953-2.95-2.796-2.793m3.635 5.743 2.95-2.95-2.793-2.793" class="st4"/><path d="M245.383 213.298v6.966c0 4.363 3.567 7.934 7.929 7.934a7.9 7.9 0 0 0 5.155-1.916 7.95 7.95 0 0 0 2.671-4.733l-.021-.275h-7.805c-2.14 0-2.768-1.01-2.768-3.15v-4.826z" class="st1"/><path d="M245.383 172.276v41.022h5.161v-41.022z" class="st2"/><path d="M245.383 164.871v7.405h5.161v-4.783c0-2.141.628-3.147 2.768-3.147h7.805l.061-.492c-.5-3.884-3.846-6.917-7.866-6.917a7.9 7.9 0 0 0-5.6 2.33 7.9 7.9 0 0 0-2.329 5.604" class="st1"/><path d="M250.544 213.298v4.826c0 2.14.628 3.15 2.768 3.15h7.805s2.772-.129 2.772-2.14c0-1.071-.746-1.573-1.445-1.805-.617-.211-1.199-.211-1.199-.211h-6.549v-48.616h6.549s.582 0 1.199-.21c.699-.232 1.445-.735 1.445-1.805 0-2.016-2.772-2.141-2.772-2.141h-7.805c-2.14 0-2.768 1.006-2.768 3.147z" class="st5"/><path d="M254.696 211.621v5.497h4.199v-.381c-.268-1.827.756-3.771 2.411-4.584.446-.221.953-.382 1.266-.767.275-.335.354-.781.493-1.192.221-.674.638-1.305 1.255-1.655.617-.349 1.449-.356 1.998.086l.225.078c.363-1.07.717-2.236 1.031-3.492l-.154-.035c-.874.267-1.848.321-2.686-.04-.838-.36-1.505-1.198-1.491-2.111.014-.981.742-1.777 1.249-2.619.506-.838.738-2.083-.043-2.679-.582-.442-1.402-.274-2.123-.41-1.362-.26-2.293-1.869-1.833-3.182.535-1.541 2.465-2.226 3.078-3.738.393-.97.161-2.058.047-3.096-.111-1.038-.036-2.233.763-2.907 1.102-.931 3.446.388 3.913 1.755h.014c-.574-3.617-1.573-7.488-3.146-11.59 0 .528-.61 1.395-1.013 1.648-.435.275-.942.446-1.305.81-.807.809-.564 2.136-.475 3.274.075.971-.064 2.069-.82 2.679-1.01.814-2.661.25-3.3-.877-.638-1.124-.464-2.551.032-3.746.271-.653.632-1.273.796-1.962.16-.685.082-1.487-.425-1.979-.521-.507-1.316-.55-2.022-.721-.692-.164-1.805-.881-1.805-1.591h-.129v11.882h.132a4.1 4.1 0 0 1 2.915 1.798c.645.988.827 2.262.485 3.392-.246.806-.749 1.556-.76 2.397-.007.642.271 1.242.457 1.855.328 1.092.349 2.315-.143 3.343-.496 1.027-1.57 1.808-2.708 1.769h-.378v5.119h.378c.675-.114.81-.642 1.035-1.284.275-.792.335-1.709.856-2.369.403-.514.753-.881 1.937-.877.77 0 1.445.57 1.762 1.273a3.29 3.29 0 0 1-.396 3.317c-.46.585-1.148 1.067-1.27 1.802-.103.631.253 1.234.464 1.84.428 1.22.232 2.679-.635 3.639-.867.959-2.411 1.288-3.524.631z" class="st11"/><path d="M254.696 203.649v7.972h.607c1.113.657 2.657.328 3.524-.631s1.063-2.419.635-3.639c-.211-.606-.567-1.209-.464-1.84.122-.735.81-1.217 1.27-1.802a3.29 3.29 0 0 0 .396-3.317c-.317-.703-.992-1.273-1.762-1.273-1.184-.004-1.534.363-1.937.877-.521.66-.581 1.577-.856 2.369-.225.642-.36 1.17-1.035 1.284zm0-13.976v8.857h.378c1.138.039 2.212-.742 2.708-1.769.492-1.028.471-2.251.143-3.343-.186-.613-.464-1.213-.457-1.855.011-.841.514-1.591.76-2.397a4.11 4.11 0 0 0-.485-3.392 4.1 4.1 0 0 0-2.915-1.798h-.132zm.129-17.579c0 .71 1.113 1.427 1.805 1.591.706.171 1.501.214 2.022.721.507.492.585 1.294.425 1.979-.164.689-.525 1.309-.796 1.962-.496 1.195-.67 2.622-.032 3.746.639 1.127 2.29 1.691 3.3.877.756-.61.895-1.708.82-2.679-.089-1.138-.332-2.465.475-3.274.363-.364.87-.535 1.305-.81.403-.253 1.013-1.12 1.013-1.648a68 68 0 0 0-2.657-6.036l-.061-.231c-.617.21-1.199.21-1.199.21h-6.549v3.592zm6.481 40.059c-1.655.813-2.679 2.757-2.411 4.584v.381h2.351s.581 0 1.198.211l.061-.336s2.208-2.957 4.038-8.29l-.225-.078c-.549-.442-1.381-.435-1.998-.086-.617.35-1.034.981-1.255 1.655-.139.411-.218.857-.493 1.192-.313.385-.82.546-1.266.767m-.813-18.018c-.46 1.313.471 2.922 1.833 3.182.721.136 1.541-.032 2.123.41.781.596.549 1.841.043 2.679-.507.842-1.235 1.638-1.249 2.619-.014.913.653 1.751 1.491 2.111s1.812.307 2.686.04l.154.035c1.259-5.008 1.94-11.461.734-19.066h-.014c-.467-1.363-2.811-2.682-3.913-1.751-.799.674-.874 1.869-.763 2.907.114 1.038.346 2.126-.047 3.096-.613 1.512-2.543 2.197-3.078 3.738" class="st12"/><path d="M261.178 163.854c-.5-3.884-3.846-6.917-7.866-6.917a7.9 7.9 0 0 0-5.6 2.33 7.9 7.9 0 0 0-2.329 5.604v55.393c0 4.363 3.567 7.934 7.929 7.934a7.9 7.9 0 0 0 5.155-1.916 7.95 7.95 0 0 0 2.671-4.733" class="st4"/><path d="M254.696 198.53v-30.028h6.549s.582 0 1.199-.21c.699-.232 1.445-.735 1.445-1.805 0-2.016-2.772-2.141-2.772-2.141h-7.805c-2.14 0-2.768 1.006-2.768 3.147v50.631c0 2.14.628 3.15 2.768 3.15h7.805s2.772-.129 2.772-2.14c0-1.071-.746-1.573-1.445-1.805-.617-.211-1.199-.211-1.199-.211h-6.549z" class="st4"/><path d="M262.505 168.523a68 68 0 0 1 2.657 6.036c1.573 4.102 2.572 7.973 3.146 11.586 1.206 7.605.525 14.058-.734 19.066a44 44 0 0 1-1.031 3.492c-1.83 5.333-4.038 8.29-4.038 8.29m-12.339-44.717h-4.156m4.156 41.022h-4.156" class="st4"/><path d="M265.148 174.438q.012.058.014.121c0 .528-.61 1.395-1.013 1.648-.435.275-.942.446-1.305.81-.807.809-.564 2.136-.475 3.274.075.971-.064 2.069-.82 2.679-1.01.814-2.661.25-3.3-.877-.638-1.124-.464-2.551.032-3.746.271-.653.632-1.273.796-1.962.16-.685.082-1.487-.425-1.979-.521-.507-1.316-.55-2.022-.721-.692-.164-1.805-.881-1.805-1.591v-.046m.003 11.928a4.1 4.1 0 0 1 2.915 1.798c.645.988.827 2.262.485 3.392-.246.806-.749 1.556-.76 2.397-.007.642.271 1.242.457 1.855.328 1.092.349 2.315-.143 3.343-.496 1.027-1.57 1.808-2.708 1.769m12.346 6.646c-.874.267-1.848.321-2.686-.04-.838-.36-1.505-1.198-1.491-2.111.014-.981.742-1.777 1.249-2.619.506-.838.738-2.083-.043-2.679-.582-.442-1.402-.274-2.123-.41-1.362-.26-2.293-1.869-1.833-3.182.535-1.541 2.465-2.226 3.078-3.738.393-.97.161-2.058.047-3.096-.111-1.038-.036-2.233.763-2.907 1.102-.931 3.446.388 3.913 1.755m-13.22 17.5c.675-.114.81-.642 1.035-1.284.275-.792.335-1.709.856-2.369.403-.514.753-.881 1.937-.877.77 0 1.445.57 1.762 1.273a3.29 3.29 0 0 1-.396 3.317c-.46.585-1.148 1.067-1.27 1.802-.103.631.253 1.234.464 1.84.428 1.22.232 2.679-.635 3.639-.867.959-2.411 1.288-3.524.631m3.592 5.116c-.268-1.827.756-3.771 2.411-4.584.446-.221.953-.382 1.266-.767.275-.335.354-.781.493-1.192.221-.674.638-1.305 1.255-1.655.617-.349 1.449-.356 1.998.086" class="st4"/><path d="M256.43 154.672c1.074 0 1.951.878 1.951 1.952 0 .535-.221 1.023-.574 1.376a1.93 1.93 0 0 1-1.377.575h-7.241a1.957 1.957 0 0 1-1.952-1.951c0-.535.222-1.024.575-1.377a1.93 1.93 0 0 1 1.377-.575z" class="st10"/><path d="M256.43 158.575h-7.241a1.957 1.957 0 0 1-1.952-1.951c0-.535.222-1.024.575-1.377a1.93 1.93 0 0 1 1.377-.575h7.241c1.074 0 1.951.878 1.951 1.952 0 .535-.221 1.023-.574 1.376a1.93 1.93 0 0 1-1.377.575" class="st4"/><path d="M173.634 188.371v6.842h-31.056v-6.842z" class="st7"/><path d="M173.634 181.95v6.421h-.51v-.107l-2.954-2.95 2.797-2.793v-.571z" class="st8"/><path d="M173.634 175.74v6.21h-31.056v-6.21z" class="st7"/><path d="M173.124 188.264v.107h-3.792v-.107l-2.95-2.95 2.793-2.793v-.571h3.792v.571l-2.797 2.793z" class="st9"/><path d="M169.332 188.264v.107h-3.567v-.107l-2.95-2.95 2.793-2.793v-.571h3.567v.571l-2.793 2.793z" class="st8"/><path d="M165.765 188.264v.107h-3.343v-.107l-2.953-2.95 2.796-2.793v-.571h3.343v.571l-2.793 2.793z" class="st9"/><path d="M162.422 188.264v.107h-3.792v-.107l-2.95-2.95 2.793-2.793v-.571h3.792v.571l-2.796 2.793z" class="st8"/><path d="M158.63 188.264v.107h-3.567v-.107l-2.95-2.95 2.793-2.793v-.571h3.567v.571l-2.793 2.793z" class="st3"/><path d="M155.063 188.264v.107h-3.342v-.107l-2.954-2.95 2.797-2.793v-.571h3.342v.571l-2.793 2.793z" class="st10"/><path d="M151.721 188.264v.107h-3.792v-.107l-2.95-2.95 2.793-2.793v-.571h3.792v.571l-2.797 2.793z" class="st3"/><path d="M147.929 188.264v.107h-5.351v-6.421h5.194v.571l-2.793 2.793z" class="st10"/><path d="M173.634 188.371v6.842h-31.056V175.74h31.056zm-30.72-6.421h30.466m-30.466 6.421h30.466" class="st4"/><path d="m155.063 188.264-2.95-2.95 2.793-2.793m-3.185 5.743-2.954-2.95 2.797-2.793m-3.635 5.743-2.95-2.95 2.793-2.793m17.993 5.743-2.95-2.95 2.793-2.793m-3.186 5.743-2.953-2.95 2.796-2.793m-3.635 5.743-2.95-2.95 2.793-2.793m14.651 5.743-2.954-2.95 2.797-2.793m-3.635 5.743-2.95-2.95 2.793-2.793" class="st4"/><path d="M144.676 213.298v6.966c0 4.363-3.567 7.934-7.93 7.934a7.9 7.9 0 0 1-5.154-1.916 7.95 7.95 0 0 1-2.672-4.733l.021-.275h7.805c2.14 0 2.768-1.01 2.768-3.15v-4.826z" class="st1"/><path d="M144.676 172.276v41.022h-5.162v-41.022z" class="st2"/><path d="M144.676 164.871v7.405h-5.162v-4.783c0-2.141-.628-3.147-2.768-3.147h-7.805l-.06-.492c.499-3.884 3.845-6.916 7.865-6.916 2.18 0 4.163.891 5.601 2.329a7.9 7.9 0 0 1 2.329 5.604" class="st1"/><path d="M139.514 213.298v4.826c0 2.14-.628 3.15-2.768 3.15h-7.805s-2.771-.129-2.771-2.14c0-1.071.745-1.573 1.444-1.805.618-.211 1.199-.211 1.199-.211h6.549v-48.616h-6.549s-.581 0-1.199-.21c-.699-.232-1.444-.735-1.444-1.805 0-2.016 2.771-2.141 2.771-2.141h7.805c2.14 0 2.768 1.006 2.768 3.147z" class="st5"/><path d="M135.362 211.621v5.497h-4.198v-.381c.267-1.827-.757-3.771-2.412-4.584-.446-.221-.952-.382-1.266-.767-.275-.335-.353-.781-.492-1.192-.221-.674-.639-1.305-1.256-1.655-.617-.349-1.448-.356-1.997.086l-.225.078a44 44 0 0 1-1.031-3.492l.153-.035c.874.267 1.848.321 2.686-.04.839-.36 1.506-1.198 1.491-2.111-.014-.981-.742-1.777-1.248-2.619-.507-.838-.738-2.083.043-2.679.581-.442 1.402-.274 2.122-.41 1.363-.26 2.294-1.869 1.834-3.182-.535-1.541-2.465-2.226-3.079-3.738-.392-.97-.16-2.058-.046-3.096.11-1.038.036-2.233-.764-2.907-1.102-.931-3.445.388-3.913 1.755h-.014c.574-3.617 1.573-7.488 3.146-11.59 0 .528.61 1.395 1.013 1.648.436.275.942.446 1.306.81.806.809.564 2.136.474 3.274-.075.971.065 2.069.821 2.679 1.009.814 2.661.25 3.299-.877.639-1.124.464-2.551-.032-3.746-.271-.653-.631-1.273-.795-1.962-.161-.685-.082-1.487.424-1.979.521-.507 1.317-.55 2.023-.721.692-.164 1.805-.881 1.805-1.591h.128v11.882h-.132a4.1 4.1 0 0 0-2.914 1.798 4.1 4.1 0 0 0-.485 3.392c.246.806.749 1.556.76 2.397.007.642-.272 1.242-.457 1.855-.328 1.092-.35 2.315.143 3.343.495 1.027 1.569 1.808 2.707 1.769h.378v5.119h-.378c-.674-.114-.81-.642-1.034-1.284-.275-.792-.336-1.709-.856-2.369-.404-.514-.753-.881-1.937-.877-.771 0-1.445.57-1.763 1.273-.485 1.067-.324 2.394.396 3.317.461.585 1.149 1.067 1.27 1.802.104.631-.253 1.234-.463 1.84-.429 1.22-.232 2.679.634 3.639.867.959 2.412 1.288 3.525.631z" class="st11"/><path d="M135.362 203.649v7.972h-.606c-1.113.657-2.658.328-3.525-.631-.866-.96-1.063-2.419-.634-3.639.21-.606.567-1.209.463-1.84-.121-.735-.809-1.217-1.27-1.802-.72-.923-.881-2.25-.396-3.317.318-.703.992-1.273 1.763-1.273 1.184-.004 1.533.363 1.936.877.521.66.582 1.577.857 2.369.224.642.36 1.17 1.034 1.284zm0-13.976v8.857h-.378c-1.138.039-2.212-.742-2.707-1.769-.493-1.028-.471-2.251-.143-3.343.185-.613.464-1.213.457-1.855-.011-.841-.514-1.591-.76-2.397a4.1 4.1 0 0 1 .485-3.392 4.1 4.1 0 0 1 2.914-1.798h.132zm-.128-17.579c0 .71-1.113 1.427-1.805 1.591-.706.171-1.502.214-2.023.721-.506.492-.585 1.294-.424 1.979.164.689.524 1.31.795 1.962.496 1.195.671 2.622.032 3.746-.638 1.127-2.29 1.691-3.299.877-.756-.61-.896-1.708-.821-2.679.09-1.138.332-2.465-.474-3.274-.364-.364-.87-.535-1.306-.81-.403-.253-1.013-1.12-1.013-1.648a67 67 0 0 1 2.658-6.036l.06-.231c.618.21 1.199.21 1.199.21h6.549v3.592zm-6.482 40.059c1.655.813 2.679 2.757 2.412 4.584v.381h-2.351s-.581 0-1.199.211l-.06-.336s-2.208-2.957-4.038-8.29l.225-.078c.549-.442 1.38-.435 1.997-.086.617.35 1.035.981 1.256 1.655.139.411.217.857.492 1.192.314.385.82.546 1.266.767m.814-18.018c.46 1.313-.471 2.922-1.834 3.182-.72.136-1.541-.032-2.122.41-.781.596-.55 1.841-.043 2.679.506.842 1.234 1.638 1.248 2.619.015.913-.652 1.751-1.491 2.111-.838.361-1.812.307-2.686.04l-.153.035c-1.259-5.008-1.941-11.461-.735-19.066h.014c.468-1.363 2.811-2.682 3.913-1.751.8.674.874 1.869.764 2.907-.114 1.038-.346 2.126.046 3.096.614 1.512 2.544 2.197 3.079 3.738" class="st12"/><path d="M128.881 163.854c.499-3.884 3.845-6.916 7.865-6.916 2.18 0 4.163.891 5.601 2.329a7.9 7.9 0 0 1 2.329 5.604v55.393c0 4.363-3.567 7.934-7.93 7.934a7.9 7.9 0 0 1-5.154-1.916 7.95 7.95 0 0 1-2.672-4.733" class="st4"/><path d="M135.362 198.53v-30.028h-6.549s-.581 0-1.199-.21c-.699-.232-1.444-.735-1.444-1.805 0-2.016 2.771-2.141 2.771-2.141h7.805c2.14 0 2.768 1.006 2.768 3.147v50.631c0 2.14-.628 3.15-2.768 3.15h-7.805s-2.771-.129-2.771-2.14c0-1.071.745-1.573 1.444-1.805.618-.211 1.199-.211 1.199-.211h6.549z" class="st4"/><path d="M127.554 168.523a67 67 0 0 0-2.658 6.036c-1.573 4.102-2.572 7.973-3.146 11.586-1.206 7.605-.524 14.058.735 19.066a44 44 0 0 0 1.031 3.492c1.83 5.333 4.038 8.29 4.038 8.29m12.338-44.717h4.156m-4.156 41.022h4.156" class="st4"/><path d="M124.911 174.438a.6.6 0 0 0-.015.121c0 .528.61 1.395 1.013 1.648.436.275.942.446 1.306.81.806.809.564 2.136.474 3.274-.075.971.065 2.069.821 2.679 1.009.814 2.661.25 3.299-.877.639-1.124.464-2.551-.032-3.746-.271-.652-.631-1.273-.795-1.962-.161-.685-.082-1.487.424-1.979.521-.507 1.317-.55 2.023-.721.692-.164 1.805-.881 1.805-1.591v-.046m-.004 11.928a4.1 4.1 0 0 0-2.914 1.798 4.1 4.1 0 0 0-.485 3.392c.246.806.749 1.556.76 2.397.007.642-.272 1.242-.457 1.855-.328 1.092-.35 2.315.143 3.343.495 1.027 1.569 1.808 2.707 1.769m-12.346 6.646c.874.267 1.848.321 2.686-.04.839-.36 1.506-1.198 1.491-2.111-.014-.981-.742-1.777-1.248-2.619-.507-.838-.738-2.083.043-2.679.581-.442 1.402-.274 2.122-.41 1.363-.26 2.294-1.869 1.834-3.182-.535-1.541-2.465-2.226-3.079-3.738-.392-.97-.16-2.058-.046-3.096.11-1.038.036-2.233-.764-2.907-1.102-.931-3.445.388-3.913 1.755m13.22 17.5c-.674-.114-.81-.642-1.034-1.284-.275-.792-.336-1.709-.857-2.369-.403-.514-.752-.881-1.936-.877-.771 0-1.445.57-1.763 1.273-.485 1.067-.324 2.394.396 3.317.461.585 1.149 1.067 1.27 1.802.104.631-.253 1.234-.463 1.84-.429 1.22-.232 2.679.634 3.639.867.959 2.412 1.288 3.525.631m-3.592 5.116c.267-1.827-.757-3.771-2.412-4.584-.446-.221-.952-.382-1.266-.767-.275-.335-.353-.781-.492-1.192-.221-.674-.639-1.305-1.256-1.655-.617-.349-1.448-.356-1.997.086" class="st4"/><path d="M142.247 155.247c.353.353.574.842.574 1.377a1.956 1.956 0 0 1-1.951 1.951h-7.241a1.93 1.93 0 0 1-1.377-.575 1.95 1.95 0 0 1-.575-1.376c0-1.074.878-1.952 1.952-1.952h7.241c.538 0 1.024.218 1.377.575" class="st10"/><path d="M133.629 158.575h7.241a1.956 1.956 0 0 0 1.951-1.951c0-.535-.221-1.024-.574-1.377a1.93 1.93 0 0 0-1.377-.575h-7.241a1.957 1.957 0 0 0-1.952 1.952c0 .535.222 1.023.575 1.376.353.357.838.575 1.377.575" class="st4"/><path d="m235.466 136.594 5.5 8.761h-5.621v-8.686z" class="st5"/><path d="m229.612 127.266 5.854 9.328-.121.075v8.686h-5.08l-1.074-1.709.286-.178v-16.116z" class="st13"/><path d="M234.178 191.603v6.966h-78.394v-6.966z" class="st1"/><path d="M234.178 185.225v6.378h-7.291v-.082l6.296-6.296zm0-6.464v6.464h-.995l-5.957-5.961v-.503z" class="st5"/><path d="M234.178 172.048v6.713h-78.394v-6.713z" class="st1"/><path d="m211.766 148.883 22.412 23.165h-9.934z" class="st7"/><path d="m227.226 179.264 5.957 5.961-6.296 6.296v.082h-7.134v-.082l6.296-6.296-5.957-5.961v-.503h7.134zm2.515 5.875a.583.583 0 0 0-.585-.585.586.586 0 1 0 0 1.174.587.587 0 0 0 .585-.589" class="st10"/><path d="M231.064 198.569v.182c-6.838 10.273-20.432 17.276-36.085 17.276-15.652 0-29.3-7.031-36.127-17.34v-.118z" class="st2"/><path d="m229.191 143.646 1.074 1.709h-6.656V134.75z" class="st13"/><path d="m223.816 118.031 5.796 9.235-.135.086v16.116l-.286.178-5.582-8.896v-16.587z" class="st5"/><path d="M229.156 184.554a.587.587 0 1 1-.003 1.175.587.587 0 0 1 .003-1.175" class="st2"/><path d="m220.092 179.264 5.957 5.961-6.296 6.296v.082h-7.134v-.082l6.296-6.296-5.957-5.961v-.503h7.134zm2.515 5.875a.583.583 0 0 0-.585-.585.586.586 0 1 0 0 1.174.587.587 0 0 0 .585-.589" class="st5"/><path d="m211.766 148.883 12.478 23.165h-7.637v-.336l-10.577-22.661v-.168z" class="st2"/><path d="m217.791 108.432 6.025 9.599-.207.132v16.587l-5.872-9.353v-16.929z" class="st13"/><path d="M223.609 144.852v.503h-5.872v-19.958l5.872 9.353z" class="st5"/><path d="M222.022 184.554a.587.587 0 1 1-.003 1.175.587.587 0 0 1 .003-1.175" class="st2"/><path d="M220.844 71.038c0 .474-.082.927-.235 1.359l-.503-.157c-.589-1.744-2.889-2.793-4.559-1.891-.617.332-1.241 1.263-1.833 1.634s-1.374.314-1.987-.025c-.471-.26-.831-.867-1.192-1.259-1.013-1.113-3.042-.899-4.03.232-1.224 1.402-2.248 1.427-3.421 1.284-.971-.114-1.463-1.067-2.173-1.712-.706-.642-2.033-.603-2.732.05l-.667.945c-.421.631-1.17 1.052-1.948 1.095-.781.043-1.576-.293-2.069-.87l-.913-1.17c-.699-.653-2.022-.692-2.732-.05-.71.646-1.199 1.598-2.169 1.712-1.177.143-2.201.118-3.421-1.284-.988-1.131-3.021-1.345-4.034-.232-.357.392-.721.999-1.192 1.259-.613.339-1.394.396-1.983.025-.592-.371-1.216-1.302-1.834-1.634-1.662-.899-3.955.139-4.551 1.869a4 4 0 0 1-.179-1.181c0-1.256.585-2.401 1.538-3.225.949-.831 2.258-1.345 3.699-1.345h39.88c.614 0 1.21.093 1.759.268 2.022.632 3.481 2.323 3.481 4.303" class="st5"/><path d="m220.106 72.24.503.157a4.5 4.5 0 0 1-1.306 1.869 5.35 5.35 0 0 1-1.99 1.088 5.7 5.7 0 0 1-1.709.253h-3.838v-.082h-33.574v.082h-2.468c-2.415 0-4.459-1.445-5.058-3.389.596-1.73 2.889-2.768 4.551-1.869.618.332 1.242 1.263 1.834 1.634.589.371 1.37.314 1.983-.025.471-.26.835-.867 1.192-1.259 1.013-1.113 3.046-.899 4.034.232 1.22 1.402 2.244 1.427 3.421 1.284.97-.114 1.459-1.067 2.169-1.712.71-.642 2.033-.603 2.732.05l.913 1.17c.493.578 1.288.913 2.069.87.778-.043 1.527-.464 1.948-1.095l.667-.945c.699-.653 2.026-.692 2.732-.05.71.646 1.202 1.598 2.173 1.712 1.173.143 2.197.118 3.421-1.284.988-1.131 3.017-1.345 4.03-.232.361.392.721.999 1.192 1.259.613.339 1.395.396 1.987.025s1.216-1.302 1.833-1.634c1.67-.902 3.97.147 4.559 1.891" class="st14"/><path d="m212.958 179.264 5.957 5.961-6.296 6.296v.082h-7.135v-.082l6.296-6.296-5.957-5.961v-.503h7.135zm2.514 5.875a.586.586 0 1 0-.585.589.586.586 0 0 0 .585-.589" class="st10"/><path d="m211.887 99.025 5.904 9.407-.054.036v16.929l-5.971-9.513v-8.019l.103-8.84z" class="st5"/><path d="M217.737 144.852v.503h-5.971v-29.471l5.971 9.513z" class="st13"/><path d="M216.607 171.712v.336h-41.8v-.336l9.068-22.829h22.155v.168z" class="st7"/><path d="M214.887 184.554c.325 0 .585.26.585.585a.586.586 0 1 1-.585-.585" class="st2"/><path d="m205.823 179.264 5.957 5.961-6.296 6.296v.082h-7.134v-.082l6.296-6.296-5.957-5.961v-.503h7.134zm2.515 5.875a.583.583 0 0 0-.585-.585.586.586 0 1 0 0 1.174.586.586 0 0 0 .585-.589" class="st5"/><path d="M211.766 145.355v3.528h-33.574v-3.528h11.051l-.503-46.329-4.437 7.071-6.05 9.638-.061-5.126V75.607h33.574v32.258l-.093 7.869-6.049-9.638-4.438-7.071-.507 46.329z" class="st15"/><path d="m211.673 115.734-.346 29.621h-5.871v-39.152l.168-.108z" class="st5"/><path d="M207.753 184.554c.325 0 .585.26.585.585a.586.586 0 1 1-1.173 0c0-.325.263-.585.588-.585" class="st2"/><path d="m201.186 99.025 4.438 7.071-.168.107v39.152h-4.776z" class="st13"/><path d="m198.689 179.264 5.957 5.961-6.296 6.296v.082h-3.735v-12.842h4.074zm2.515 5.875a.583.583 0 0 0-.585-.585.586.586 0 1 0 0 1.174.587.587 0 0 0 .585-.589" class="st9"/><path d="M200.619 184.554a.587.587 0 1 1-.003 1.175.587.587 0 0 1 .003-1.175" class="st2"/><path d="M194.615 191.353v.25h-3.524v-.082l-6.296-6.296 5.961-5.961v-.503h3.859zm-5.2-6.214a.586.586 0 0 0-.589-.585.586.586 0 1 0 0 1.174.59.59 0 0 0 .589-.589" class="st8"/><path d="M191.091 191.521v.082h-7.134v-.082l-6.296-6.296 5.961-5.961v-.503h7.134v.503l-5.961 5.961zm-8.811-6.382a.586.586 0 0 0-.588-.585.586.586 0 1 0 0 1.174.59.59 0 0 0 .588-.589" class="st10"/><path d="m188.74 99.025.503 46.329h-4.772v-39.152l-.168-.107z" class="st13"/><path d="M188.826 184.554a.586.586 0 1 1 0 1.174.586.586 0 1 1 0-1.174" class="st2"/><path d="M184.471 144.852v.503h-5.872l-.346-29.621 6.05-9.639.168.108zm-.514 46.669v.082h-7.134v-.082l-6.296-6.296 5.96-5.961v-.503h7.135v.503l-5.961 5.961zm-8.811-6.382a.586.586 0 0 0-.588-.585.586.586 0 1 0 0 1.174.59.59 0 0 0 .588-.589" class="st5"/><path d="m183.875 148.883-9.068 22.829v.336h-8.728l12.113-23.165zm-2.183 35.671a.586.586 0 1 1 0 1.174.586.586 0 1 1 0-1.174" class="st2"/><path d="M178.192 115.83v29.525h-5.985l-.011-19.976z" class="st13"/><path d="M178.192 110.608v5.222l-5.996 9.549-.007-17.033 5.85-9.321h.018z" class="st5"/><path d="m178.192 148.883-12.113 23.165h-10.295z" class="st7"/><path d="M176.823 191.521v.082h-7.135v-.082l-6.295-6.296 5.96-5.961v-.503h7.134v.503l-5.96 5.961zm-8.811-6.382a.586.586 0 0 0-.589-.585.586.586 0 1 0 0 1.174.59.59 0 0 0 .589-.589" class="st10"/><path d="M174.558 184.554a.586.586 0 1 1 0 1.174.586.586 0 1 1 0-1.174" class="st2"/><path d="m172.196 125.379.011 19.976h-5.889v-10.608z" class="st5"/><path d="m172.189 108.346.007 17.033-5.878 9.368v-17.048z" class="st13"/><path d="M169.688 191.521v.082h-7.134v-.082l-6.296-6.296 5.961-5.961v-.503h7.134v.503l-5.96 5.961zm-8.81-6.382a.586.586 0 0 0-.589-.585.586.586 0 1 0 0 1.174.59.59 0 0 0 .589-.589" class="st5"/><path d="M167.423 184.554a.586.586 0 1 1 0 1.174.586.586 0 1 1 0-1.174" class="st2"/><path d="m160.45 144.092 5.868-9.345v10.608h-6.66z" class="st13"/><path d="M166.318 117.699v17.048l-5.868 9.345v-16.74l-.139-.086z" class="st5"/><path d="M162.554 191.521v.082h-6.77v-6.378h.474z" class="st10"/><path d="M162.219 178.761v.503l-5.961 5.961h-.474v-6.464z" class="st10"/><path d="M160.45 127.352v16.74l-.792 1.263h-5.076v-8.686l-.125-.078 5.854-9.325z" class="st13"/><path d="M160.289 184.554a.586.586 0 1 1 0 1.174.586.586 0 1 1 0-1.174" class="st2"/><path d="M154.582 144.602v.753h-5.626l5.501-8.764.125.078z" class="st5"/><path d="m189.243 145.355-.503-46.329m-10.198 46.329h10.701m-.503-46.33-4.437 7.071-6.05 9.638-.061.096-5.996 9.549-5.878 9.368-5.868 9.345-.792 1.263" class="st4"/><path d="m178.599 145.355-.346-29.621-.061-5.126-.135-11.583m-.018 0-5.85 9.321-5.871 9.353-6.007 9.567-5.854 9.325-5.501 8.764h29.586m5.929-39.152v38.649" class="st4"/><path d="M172.189 108.257v.089l.007 17.033.011 19.976v.086m-5.889-27.781v27.781m-5.868-18.089v16.997m-5.868-7.68v7.933m57.184 4.281h-33.574V75.525h33.574zm19.298 49.868c-6.838 10.273-20.432 17.276-36.085 17.276-15.652 0-29.3-7.031-36.127-17.34m-3.068-26.639 22.408-23.165-12.113 23.165m68.099 0-22.412-23.165 12.478 23.165m-40.369-23.165-9.068 22.829m31.223-22.661 10.577 22.661m-60.263 7.049h77.385m-77.385 12.842h77.385m-56.906-.082-6.296-6.296 5.96-5.961m-6.799 12.257-6.295-6.296 5.96-5.961m-6.799 12.257-6.296-6.296 5.961-5.961" class="st4"/><path d="M175.146 185.139a.59.59 0 0 1-1.177 0c0-.325.264-.585.589-.585s.588.26.588.585m-7.134 0a.59.59 0 0 1-1.177 0c0-.325.264-.585.588-.585.325 0 .589.26.589.585m-7.134 0a.59.59 0 0 1-1.177 0c0-.325.264-.585.588-.585.325 0 .589.26.589.585m23.079 6.382-6.296-6.296 5.961-5.961" class="st4"/><path d="M182.28 185.139a.59.59 0 0 1-1.177 0c0-.325.264-.585.589-.585s.588.26.588.585m8.811 6.382-6.296-6.296 5.961-5.961" class="st4"/><path d="M189.415 185.139a.59.59 0 0 1-1.178 0c0-.325.264-.585.589-.585s.589.26.589.585m23.204 6.382 6.296-6.296-5.957-5.961m6.795 12.257 6.296-6.296-5.957-5.961m6.795 12.257 6.296-6.296-5.957-5.961" class="st4"/><path d="M214.299 185.139a.586.586 0 1 0 1.173 0 .586.586 0 0 0-1.173 0m7.134 0a.587.587 0 1 0 1.175.005.587.587 0 0 0-1.175-.005m7.134 0a.587.587 0 1 0 1.175.005.587.587 0 0 0-1.175-.005m-23.083 6.382 6.296-6.296-5.957-5.961" class="st4"/><path d="M207.165 185.139a.586.586 0 1 0 1.173 0 .583.583 0 0 0-.585-.585.585.585 0 0 0-.588.585m-8.815 6.382 6.296-6.296-5.957-5.961" class="st4"/><path d="M200.03 185.139a.587.587 0 1 0 1.175.005.587.587 0 0 0-1.175-.005m-5.415-5.875v12.089m25.994-118.956a4.5 4.5 0 0 1-1.306 1.869 5.35 5.35 0 0 1-1.99 1.088 5.7 5.7 0 0 1-1.709.253h-39.88c-2.415 0-4.459-1.445-5.058-3.389a4 4 0 0 1-.179-1.181c0-1.256.585-2.401 1.538-3.225.949-.831 2.258-1.345 3.699-1.345h39.88c.614 0 1.21.093 1.759.268 2.022.631 3.481 2.322 3.481 4.302 0 .475-.082.928-.235 1.36" class="st4"/><path d="M170.655 72.24s0-.014.011-.021c.596-1.73 2.889-2.768 4.551-1.869.618.332 1.242 1.263 1.834 1.634.589.371 1.37.314 1.983-.025.471-.26.835-.867 1.192-1.259 1.013-1.113 3.046-.899 4.034.232 1.22 1.402 2.244 1.427 3.421 1.284.97-.114 1.459-1.067 2.169-1.712.71-.642 2.033-.603 2.732.05l.913 1.17c.493.578 1.288.913 2.069.87.778-.043 1.527-.464 1.948-1.095l.667-.945c.699-.653 2.026-.692 2.732-.05.71.646 1.202 1.598 2.173 1.712 1.173.143 2.197.118 3.421-1.284.988-1.131 3.017-1.345 4.03-.232.361.392.721.999 1.192 1.259.613.339 1.395.396 1.987.025s1.216-1.302 1.833-1.634c1.67-.903 3.97.146 4.559 1.891m-19.426 73.114.506-46.329m10.195 46.329H200.68m.506-46.33 4.438 7.071 6.049 9.638.093.15 5.971 9.513 5.872 9.353 5.582 8.896 1.074 1.709" class="st4"/><path d="m211.327 145.355.346-29.621.093-7.869.104-8.84m.017 0 5.904 9.407 6.025 9.599 5.796 9.235 5.854 9.328 5.5 8.761h-29.585m-5.925-39.152v38.649m12.281-36.384v36.384m5.872-26.689v26.689m5.868-17.5v16.116m5.868-6.799v7.933m-1.167 47.001v6.966h-78.394v-26.521h78.394z" class="st4"/><path d="m257.282 40.86 2.408 4.056h-6.899v-.068z" class="st6"/><path d="m259.69 44.916-6.981 9.078-.203-.268.457-.353-.172-8.458zm-2.408-4.056-4.491 3.988-4.487-3.988z" class="st6"/><path d="m252.791 44.916.172 8.458-.457.353-6.774-8.811zm0-.068v.068h-7.059l2.572-4.056z" class="st6"/><path d="m245.732 44.916 6.774 8.811.203.268 6.981-9.078h-13.958zm0 0 2.572-4.056h8.978l2.408 4.056" class="st4"/><path d="m257.282 40.86-4.491 3.988-4.487-3.988m4.487 3.988v.068l.172 8.458" class="st4"/><path d="M254.95 55.592v99.08s-4.363.125-4.363 0c0-19.89-5.961-58.543-39.071-58.543h-15.488V75.483l19.894-.125s-3.778 1.259-3.778 5.415-1.509 11.204 7.68 11.204h22.031c8.311 0 8.732-6.043 8.732-10.074V55.592z" class="st16"/><path d="M254.95 55.592v99.08s-4.363.125-4.363 0c0-19.89-5.961-58.543-39.071-58.543h-15.488V75.483l19.894-.125s-3.778 1.259-3.778 5.415-1.509 11.204 7.68 11.204h22.031c8.311 0 8.732-6.043 8.732-10.074V55.592z" class="st4"/><path d="M258.224 99.657v27.695c0 4.409-3.274 3.653-3.399 3.399-.757-4.908-3.903-22.661-20.9-34.622h20.771s3.528-.503 3.528 3.528" class="st5"/><path d="M233.925 96.129c16.997 11.961 20.143 29.714 20.9 34.622.125.254 3.399 1.01 3.399-3.399V99.657c0-4.031-3.528-3.528-3.528-3.528z" class="st4"/><path d="m258.349 104.501 5.215 7.833-.046.068-.386-.257h-4.908v-7.562z" class="st6"/><path d="m263.518 112.402-5.294 7.955v-8.212h4.908zm-5.169-7.901-.125.082v7.562h-5.219l5.219-7.829zm-.125 7.644v8.212l-5.343-8.023.124-.189z" class="st6"/><path d="m253.005 112.145-.124.189 5.343 8.023 5.294-7.955.046-.068-5.215-7.833-.125-.185zm5.219-7.562v15.774m4.908-8.212h-10.251" class="st4"/><path d="M256.43 51.94c1.074 0 1.951.878 1.951 1.951 0 .535-.221 1.024-.574 1.377a1.92 1.92 0 0 1-1.377.574h-7.241a1.956 1.956 0 0 1-1.952-1.951c0-.535.222-1.024.575-1.377a1.92 1.92 0 0 1 1.377-.574z" class="st10"/><path d="M256.43 55.842h-7.241a1.956 1.956 0 0 1-1.952-1.951c0-.535.222-1.024.575-1.377a1.92 1.92 0 0 1 1.377-.574h7.241c1.074 0 1.951.878 1.951 1.951 0 .535-.221 1.024-.574 1.377a1.92 1.92 0 0 1-1.377.574" class="st4"/><path d="M247.523 73.91v3.777a2.84 2.84 0 0 0 2.832 2.832h4.908a2.84 2.84 0 0 0 2.804-2.443l-.093-.011h-2.104c-3.585 0-2.344-4.156-5.929-4.156h-2.418z" class="st14"/><path d="M247.523 67.845v6.064h2.418c3.585 0 2.344 4.156 5.929 4.156h2.104l.093.011q.028-.191.029-.389v-5.686h-2.226c-3.585 0-2.344-4.156-5.929-4.156z" class="st5"/><path d="M247.523 62.202v5.643h2.418c3.585 0 2.344 4.156 5.929 4.156h2.226v-6.064h-2.226c-3.585 0-2.344-4.156-5.929-4.156h-2.293l-.111.132a3 3 0 0 0-.014.289" class="st14"/><path d="m247.537 61.913.11-.132h2.294c3.585 0 2.344 4.156 5.929 4.156h2.225v-3.735a2.84 2.84 0 0 0-2.832-2.832h-4.908a2.84 2.84 0 0 0-2.818 2.543" class="st5"/><path d="M247.523 73.91v3.778a2.84 2.84 0 0 0 2.832 2.832h4.908a2.84 2.84 0 0 0 2.833-2.832V62.202a2.84 2.84 0 0 0-2.833-2.832h-4.908a2.84 2.84 0 0 0-2.832 2.832z" class="st4"/><path d="M257.974 65.937h-2.104c-3.585 0-2.344-4.156-5.929-4.156h-2.293m10.326 10.22h-2.104c-3.585 0-2.344-4.156-5.929-4.156h-2.293m10.326 10.22h-2.104c-3.585 0-2.344-4.156-5.929-4.156h-2.293" class="st4"/><path d="M252.709 36.184c1.156 0 2.098.938 2.098 2.097a2.099 2.099 0 0 1-4.199 0 2.1 2.1 0 0 1 2.101-2.097" class="st3"/><path d="M250.608 38.281a2.1 2.1 0 0 0 4.199 0 2.099 2.099 0 0 0-4.199 0" class="st4"/><path d="m132.78 40.86-2.408 4.056h6.899v-.068z" class="st6"/><path d="m130.372 44.916 6.981 9.078.203-.268-.457-.353.172-8.458zm2.408-4.056 4.491 3.988 4.487-3.988z" class="st6"/><path d="m137.271 44.916-.172 8.458.457.353 6.774-8.811zm0-.068v.068h7.059l-2.572-4.056z" class="st6"/><path d="m144.33 44.916-6.774 8.811-.203.268-6.981-9.078h13.958zm0 0-2.572-4.056h-8.978l-2.408 4.056" class="st4"/><path d="m132.78 40.86 4.491 3.988 4.487-3.988m-4.487 3.988v.068l-.172 8.458" class="st4"/><path d="M194.03 75.483v20.646h-15.488c-33.11 0-39.067 38.653-39.067 58.543 0 .125-4.366 0-4.366 0v-99.08h4.366v26.311c0 4.031.417 10.074 8.729 10.074h22.03c9.193 0 7.68-7.052 7.68-11.204s-3.777-5.415-3.777-5.415z" class="st16"/><path d="M135.109 55.592v99.08s4.366.125 4.366 0c0-19.89 5.957-58.543 39.067-58.543h15.488V75.483l-19.893-.125s3.777 1.259 3.777 5.415 1.513 11.204-7.68 11.204h-22.03c-8.312 0-8.729-6.043-8.729-10.074V55.592z" class="st4"/><path d="M135.362 96.129h20.771c-16.997 11.961-20.143 29.714-20.899 34.622-.125.254-3.4 1.01-3.4-3.399V99.657c0-4.031 3.528-3.528 3.528-3.528" class="st5"/><path d="M156.133 96.129c-16.997 11.961-20.143 29.714-20.899 34.622-.125.254-3.4 1.01-3.4-3.399V99.657c0-4.031 3.528-3.528 3.528-3.528z" class="st4"/><path d="m137.053 112.145.125.189-5.344 8.023v-8.212z" class="st6"/><path d="M137.053 112.145h-5.219v-7.562l.125-.082z" class="st6"/><path d="m131.959 104.501-.125.082v7.562h-4.908l-.385.257-.047-.068 5.34-8.018z" class="st6"/><path d="M131.834 112.145v8.212l-5.293-7.955.385-.257z" class="st6"/><path d="m137.053 112.145.125.189-5.344 8.023-5.293-7.955-.047-.068 5.34-8.018.125.185zm-5.219-7.562v15.774m-4.908-8.212h10.252" class="st4"/><path d="M142.247 52.514c.353.353.574.842.574 1.377a1.956 1.956 0 0 1-1.951 1.951h-7.241a1.93 1.93 0 0 1-1.377-.574 1.95 1.95 0 0 1-.575-1.377c0-1.074.878-1.951 1.952-1.951h7.241c.538 0 1.024.217 1.377.574" class="st10"/><path d="M133.629 55.842h7.241a1.956 1.956 0 0 0 1.951-1.951c0-.535-.221-1.024-.574-1.377a1.93 1.93 0 0 0-1.377-.574h-7.241a1.957 1.957 0 0 0-1.952 1.951c0 .535.221 1.024.575 1.377.353.357.838.574 1.377.574" class="st4"/><path d="M142.536 73.91v3.778a2.84 2.84 0 0 1-2.833 2.832h-4.908a2.84 2.84 0 0 1-2.804-2.443l.093-.011h2.105c3.585 0 2.343-4.156 5.928-4.156z" class="st14"/><path d="M142.536 67.845v6.064h-2.419c-3.585 0-2.343 4.156-5.928 4.156h-2.105l-.093.011a3 3 0 0 1-.028-.389v-5.686h2.226c3.585 0 2.343-4.156 5.928-4.156z" class="st5"/><path d="M142.536 62.202v5.643h-2.419c-3.585 0-2.343 4.156-5.928 4.156h-2.226v-6.064h2.226c3.585 0 2.343-4.156 5.928-4.156h2.294l.11.132q.016.145.015.289" class="st14"/><path d="m142.521 61.913-.11-.132h-2.294c-3.585 0-2.343 4.156-5.928 4.156h-2.226v-3.735a2.84 2.84 0 0 1 2.832-2.832h4.908a2.84 2.84 0 0 1 2.818 2.543" class="st5"/><path d="M142.536 73.91v3.778a2.84 2.84 0 0 1-2.833 2.832h-4.908a2.84 2.84 0 0 1-2.832-2.832V62.202a2.84 2.84 0 0 1 2.832-2.832h4.908a2.84 2.84 0 0 1 2.833 2.832z" class="st4"/><path d="M132.084 65.937h2.105c3.585 0 2.343-4.156 5.928-4.156h2.294m-10.327 10.22h2.105c3.585 0 2.343-4.156 5.928-4.156h2.294m-10.327 10.22h2.105c3.585 0 2.343-4.156 5.928-4.156h2.294" class="st4"/><path d="M137.349 36.184a2.1 2.1 0 0 1 2.101 2.097 2.1 2.1 0 0 1-4.198 0c0-1.159.941-2.097 2.097-2.097" class="st3"/><path d="M139.45 38.281a2.1 2.1 0 0 1-4.198 0 2.098 2.098 0 0 1 4.198 0" class="st4"/><path d="M197.262 171.713v.167c0 .125-4.366 0-4.366 0V69.147h4.366z" class="st16"/><path d="M197.262 171.713V69.147h-4.366V171.88s4.366.125 4.366 0" class="st4"/><path d="M210.942 193.878a46.6 46.6 0 0 1-.77 8.615l-.368-.064c-.474-.664-1.566-.321-2.108.289s-.892 1.434-1.612 1.815c-1.195.635-2.697-.285-3.999.09-1.698.485-2.304 2.903-4.027 3.278-1.135.246-2.369-.724-2.397-1.884-.029-1.323 1.198-2.297 1.708-3.517.278-.67.339-1.409.582-2.094.613-1.733 2.418-2.896 4.252-2.993.973-.049 2.151.079 2.718-.713.503-.699.182-1.68.41-2.508.293-1.048 1.466-1.669 2.55-1.619 1.088.05 2.08.628 2.933 1.305z" class="st12"/><path d="M210.942 193.879h-.128c-.853-.678-1.845-1.256-2.933-1.306-1.084-.05-2.258.571-2.55 1.619-.228.828.093 1.809-.41 2.508-.567.792-1.745.664-2.718.713-1.834.097-3.639 1.26-4.252 2.993-.243.685-.304 1.424-.582 2.094-.51 1.22-1.737 2.194-1.708 3.517.028 1.16 1.262 2.13 2.397 1.884 1.723-.375 2.329-2.793 4.027-3.278 1.302-.375 2.804.545 3.999-.09.72-.381 1.07-1.205 1.612-1.815s1.634-.953 2.108-.289l.368.064a44 44 0 0 1-1.549 5.979l-.117-.04c-.089 0-.553.304-.503.378.05.072-.129.065-.2.122-.71.542-1.737.257-2.54-.136-.802-.392-1.655-.892-2.532-.71-.789.164-1.388.888-1.545 1.68s.068 1.623.471 2.323c.267.463.621 1.023.346 1.483-.321.532-1.109.361-1.73.404-1.263.089-2.198 1.594-1.72 2.768v.374h-2.636v-.378c-.642-1.034-1.13-2.582-.909-3.777.153-.835.524-1.656.403-2.494-.2-1.377-1.784-2.265-3.15-1.997-.724.142-1.416.574-1.741 1.234-.299.603-.274 1.312-.481 1.951-.207.642-.856 1.259-1.484 1.017-.728-.275-.678-1.31-1.035-2.002-.378-.727-1.287-1.073-2.097-.938-.806.136-1.502.674-1.994 1.327l-.446.182a41 41 0 0 1-1.352-3.727l.31-.093c2.405.103 4.306-1.873 4.406-4.274.028-.681-.107-1.384-.496-1.944-.778-1.12-2.408-1.451-3.071-2.643-.724-1.298.05-2.886.735-4.206.684-1.319 1.248-3.071.246-4.173-.892-.977-2.586-.753-3.585.118l-.41-.032a50 50 0 0 1 .463-3.999l.207.032c1.163.25 2.201-.885 2.518-2.033.314-1.145.193-2.38.528-3.525.311-1.055.989-1.965 1.698-2.81.71-.842 1.47-1.663 1.987-2.64.129-.243.243-.5.332-.764l2.051.375c-.399 1.209-.535 2.483.061 3.567.485.878 1.733 1.231 2.661 1.612 1.487.614 1.741 2.551 2.418 4.006.357.767 1.081 1.538 1.905 1.363.599-.128.995-.717 1.152-1.306.157-.592.143-1.216.275-1.812.25-1.166 1.027-2.14 1.823-3.032.792-.888 1.644-1.769 2.108-2.868s.442-2.5-.392-3.349c-.486-.5-1.174-.742-1.731-1.16-1.07-.806-1.548-2.154-1.969-3.424h5.387l1.259.021a68 68 0 0 1 3.143 7.342l-.047.017c-1.662-.46-3.588.725-3.924 2.419-.174.885.033 1.826-.246 2.686-.353 1.088-1.387 1.776-2.172 2.608-1.623 1.715-2.247 4.319-1.577 6.584.336 1.135 1.356 2.344 2.483 1.987 1.448-.46 1.231-2.803 2.486-3.656.585-.4 1.356-.371 2.055-.25.695.122 1.398.325 2.101.225.699-.103 1.409-.628 1.423-1.334l.225-.032c.332 2.372.478 4.63.485 6.76m-13.327 1.576c.246-1.758-1.319-3.296-2.982-3.927-.82-.314-1.758-.535-2.272-1.245-.806-1.11-.121-2.636-.136-4.002-.032-3.293-5.25-5.604-6.649-1.891-.421 1.124-.089 2.486.803 3.285.838.76 2.24 1.313 2.122 2.437-.042.403-.292.745-.549 1.059-.638.785-1.366 1.52-1.816 2.429-.449.906-.567 2.066.015 2.893.602.863 1.783 1.149 2.447 1.962.642.788.674 1.901.563 2.911-.107 1.009-.328 2.04-.085 3.025.246.984 1.145 1.908 2.147 1.748.977-.157 1.537-1.224 1.677-2.205.142-.977.025-2.005.367-2.936.828-2.247 4.017-3.171 4.348-5.543" class="st11"/><path d="m210.457 187.119-.225.032c-.014.706-.724 1.231-1.423 1.334-.703.1-1.406-.103-2.101-.225-.699-.121-1.47-.15-2.055.25-1.255.853-1.038 3.196-2.486 3.656-1.127.357-2.147-.852-2.483-1.987-.67-2.265-.046-4.869 1.577-6.584.785-.832 1.819-1.52 2.172-2.608.279-.86.072-1.801.246-2.686.336-1.694 2.262-2.879 3.924-2.419l.047-.017c1.426 3.984 2.318 7.747 2.807 11.254m-1.951 21.313.117.04c-1.844 5.479-4.116 8.521-4.116 8.521l-1.259.125h-4.694v-.374c-.478-1.174.456-2.679 1.719-2.768.621-.043 1.409.128 1.73-.403.275-.461-.079-1.021-.346-1.484-.403-.7-.628-1.531-.471-2.323.157-.791.756-1.516 1.545-1.68.877-.182 1.73.318 2.532.71.803.393 1.83.678 2.54.136.071-.057.25-.05.2-.122-.05-.074.414-.378.503-.378" class="st12"/><path d="M197.861 168.502h-10.547s-.582 0-1.199-.21c-.699-.232-1.445-.735-1.445-1.805 0-2.016 2.772-2.141 2.772-2.141h15.681l.036.004c.324.021 2.732.257 2.732 2.137 0 2.015-2.643 2.015-2.643 2.015zm5.387 48.616s2.643 0 2.643 2.016-2.768 2.14-2.768 2.14h-15.681s-2.772-.129-2.772-2.14c0-1.071.746-1.573 1.445-1.805.617-.211 1.199-.211 1.199-.211z" class="st5"/><path d="m203.159 164.35-.036-.004h-15.681l-.061-.492c.5-3.884 3.846-6.916 7.866-6.916 2.115 0 4.048.841 5.475 2.204a7.9 7.9 0 0 1 2.437 5.208m-7.844 56.924h7.797c-.499 3.892-3.845 6.924-7.865 6.924a7.9 7.9 0 0 1-5.155-1.916 7.95 7.95 0 0 1-2.671-4.733l.021-.275z" class="st1"/><path d="M201.561 173.086c.834.849.856 2.251.392 3.349s-1.316 1.98-2.108 2.868c-.796.892-1.573 1.866-1.823 3.032-.132.596-.118 1.22-.275 1.812-.157.589-.553 1.178-1.152 1.306-.824.175-1.548-.596-1.905-1.363-.677-1.455-.931-3.392-2.418-4.006-.928-.381-2.176-.734-2.661-1.612-.596-1.084-.46-2.358-.061-3.567.164-.489.368-.97.582-1.42.749-1.569 1.648-3.239 1.323-4.947v-.036h6.406c.421 1.27.899 2.618 1.97 3.424.556.418 1.244.66 1.73 1.16m-6.928 18.442c1.663.631 3.228 2.169 2.982 3.927-.331 2.372-3.52 3.296-4.348 5.543-.342.931-.225 1.959-.367 2.936-.139.981-.7 2.048-1.677 2.205-1.002.16-1.901-.764-2.147-1.748-.243-.985-.022-2.016.085-3.025.111-1.01.079-2.123-.563-2.911-.664-.813-1.845-1.099-2.447-1.962-.582-.827-.464-1.987-.015-2.893.45-.909 1.178-1.644 1.816-2.429.257-.314.507-.656.549-1.059.118-1.124-1.284-1.677-2.122-2.437-.892-.799-1.224-2.161-.803-3.285 1.399-3.713 6.617-1.402 6.649 1.891.015 1.366-.67 2.892.136 4.002.514.71 1.452.931 2.272 1.245m1.284 25.212v.378h-8.603s-.582 0-1.199.211l-.061-.336s-1.512-2.026-3.071-5.75l.446-.182c.492-.653 1.188-1.191 1.994-1.327.81-.135 1.719.211 2.097.938.357.692.307 1.727 1.035 2.002.628.242 1.277-.375 1.484-1.017.207-.639.182-1.348.481-1.951.325-.66 1.017-1.092 1.741-1.234 1.366-.268 2.95.62 3.15 1.997.121.838-.25 1.659-.403 2.494-.221 1.195.267 2.743.909 3.777" class="st12"/><path d="M191.455 168.538c.325 1.708-.574 3.378-1.323 4.947-.214.45-.418.931-.582 1.42l-2.051-.375c.271-.791.339-1.648.057-2.425-.378-1.035-1.395-1.58-2.465-1.316l-.093-.043c.332-.735.685-1.473 1.056-2.223l.061-.231c.617.21 1.199.21 1.199.21h4.141z" class="st11"/><path d="M187.556 172.105c.282.777.214 1.634-.057 2.425a5 5 0 0 1-.332.764c-.517.977-1.277 1.798-1.987 2.64-.709.845-1.387 1.755-1.698 2.81-.335 1.145-.214 2.38-.527 3.525-.318 1.148-1.356 2.283-2.519 2.033l-.207-.032c.742-4.748 2.223-9.945 4.769-15.524l.093.043c1.07-.264 2.087.281 2.465 1.316m-1.705 29.1c.389.56.524 1.263.496 1.944-.1 2.401-2.001 4.377-4.406 4.274l-.31.093c-1.373-4.42-2.401-10.259-1.865-17.247l.41.032c.999-.871 2.693-1.095 3.585-.118 1.002 1.102.438 2.854-.246 4.173-.685 1.32-1.459 2.908-.735 4.206.663 1.192 2.293 1.523 3.071 2.643" class="st12"/><path d="M203.112 221.274c-.499 3.892-3.845 6.924-7.865 6.924a7.9 7.9 0 0 1-5.155-1.916 7.95 7.95 0 0 1-2.671-4.733m-.04-57.695c.5-3.884 3.846-6.916 7.866-6.916 2.115 0 4.048.841 5.475 2.204a7.9 7.9 0 0 1 2.437 5.208c.007.046.007.093.01.139m-17.115 4.034c-.371.75-.724 1.488-1.056 2.223-2.546 5.579-4.027 10.776-4.769 15.524a50 50 0 0 0-.463 3.999c-.536 6.988.492 12.827 1.865 17.247a41 41 0 0 0 1.352 3.727c1.559 3.724 3.071 5.75 3.071 5.75" class="st4"/><path d="M195.315 221.274h7.808s2.768-.129 2.768-2.14-2.643-2.016-2.643-2.016h-15.934s-.582 0-1.199.211c-.699.232-1.445.734-1.445 1.805 0 2.011 2.772 2.14 2.772 2.14h7.805m.068-56.928h7.808l.036.004c.324.021 2.732.257 2.732 2.137 0 2.015-2.643 2.015-2.643 2.015h-15.934s-.582 0-1.199-.21c-.699-.232-1.445-.735-1.445-1.805 0-2.016 2.772-2.141 2.772-2.141h7.805m9.26 4.177a68 68 0 0 1 3.143 7.342c1.426 3.984 2.318 7.747 2.807 11.254a50 50 0 0 1 .485 6.759 46.6 46.6 0 0 1-.77 8.615 44 44 0 0 1-1.549 5.979c-1.844 5.479-4.116 8.521-4.116 8.521" class="st4"/><path d="M198.554 216.744c-.478-1.174.456-2.679 1.719-2.768.621-.043 1.409.128 1.73-.403.275-.461-.079-1.021-.346-1.484-.403-.7-.628-1.531-.471-2.323.157-.791.756-1.516 1.545-1.68.877-.182 1.73.318 2.532.71.803.393 1.83.678 2.54.136.071-.057.25-.05.2-.122-.05-.074.414-.378.503-.378m2.308-14.554c-.853-.677-1.845-1.255-2.933-1.305-1.084-.05-2.257.571-2.55 1.619-.228.828.093 1.809-.41 2.508-.567.792-1.745.664-2.718.713-1.834.097-3.639 1.26-4.252 2.993-.243.685-.304 1.424-.582 2.094-.51 1.22-1.737 2.194-1.708 3.517.028 1.16 1.262 2.13 2.397 1.884 1.723-.375 2.329-2.793 4.027-3.278 1.302-.375 2.804.545 3.999-.09.72-.381 1.07-1.205 1.612-1.815s1.634-.953 2.108-.289m-24.228-18.039c-.421 1.124-.089 2.486.803 3.285.838.76 2.24 1.313 2.122 2.437-.042.403-.292.745-.549 1.059-.638.785-1.366 1.52-1.816 2.429-.449.906-.567 2.066.015 2.893.602.863 1.783 1.149 2.447 1.962.642.788.674 1.901.563 2.911-.107 1.009-.328 2.04-.085 3.025.246.984 1.145 1.908 2.147 1.748.977-.157 1.538-1.224 1.677-2.205.142-.977.025-2.005.367-2.936.828-2.247 4.017-3.171 4.348-5.543.246-1.758-1.319-3.296-2.982-3.927-.82-.314-1.758-.535-2.272-1.245-.806-1.11-.121-2.636-.136-4.002-.032-3.293-5.25-5.604-6.649-1.891m22.027-8.508c-1.662-.46-3.588.725-3.924 2.419-.174.885.033 1.826-.246 2.686-.353 1.088-1.387 1.776-2.172 2.608-1.623 1.715-2.247 4.319-1.577 6.584.336 1.135 1.356 2.344 2.483 1.987 1.448-.46 1.231-2.803 2.486-3.656.585-.4 1.356-.371 2.055-.25.695.122 1.398.325 2.101.225.699-.103 1.409-.628 1.423-1.334m-18.777-18.613c.325 1.708-.574 3.378-1.323 4.947-.214.45-.418.931-.582 1.42-.399 1.209-.535 2.483.061 3.567.485.878 1.733 1.231 2.661 1.612 1.487.614 1.741 2.551 2.418 4.006.357.767 1.081 1.538 1.905 1.363.599-.128.995-.717 1.152-1.306.157-.592.143-1.216.275-1.812.25-1.166 1.027-2.14 1.823-3.032.792-.888 1.644-1.769 2.108-2.868s.442-2.5-.392-3.349c-.486-.5-1.174-.742-1.73-1.16-1.071-.806-1.549-2.154-1.97-3.424l-.007-.021m-12.763 2.308c1.07-.264 2.087.281 2.465 1.316.282.777.214 1.634-.057 2.425a5 5 0 0 1-.332.764c-.517.977-1.277 1.798-1.987 2.64-.709.845-1.387 1.755-1.698 2.81-.335 1.145-.214 2.38-.527 3.525-.318 1.148-1.356 2.283-2.519 2.033m-.26 3.999c.999-.871 2.693-1.095 3.585-.118 1.002 1.102.438 2.854-.246 4.173-.685 1.32-1.459 2.908-.735 4.206.663 1.192 2.293 1.523 3.071 2.643.389.56.524 1.263.496 1.944-.1 2.401-2.001 4.377-4.406 4.274m1.488 3.638c.492-.653 1.188-1.191 1.994-1.327.81-.135 1.719.211 2.097.938.357.692.307 1.727 1.035 2.002.628.242 1.277-.375 1.484-1.017.207-.639.182-1.348.481-1.951.325-.66 1.017-1.092 1.741-1.234 1.366-.268 2.95.62 3.15 1.997.121.838-.25 1.659-.403 2.494-.221 1.195.267 2.743.909 3.777" class="st4"/><path d="m190.567 57.626-2.408 4.056h6.899v-.068z" class="st6"/><path d="m188.159 61.681 6.981 9.078.203-.267-.457-.353.172-8.458zm2.408-4.055 4.491 3.988 4.487-3.988z" class="st6"/><path d="m195.058 61.681-.171 8.458.456.353 6.774-8.811z" class="st6"/><path d="M195.058 61.614v.068h7.059l-2.572-4.056z" class="st6"/><path d="m202.117 61.681-6.774 8.811-.203.267-6.981-9.078z" class="st4"/><path d="m202.117 61.681-2.572-4.056h-8.978l-2.408 4.056" class="st4"/><path d="m190.567 57.626 4.491 3.988 4.487-3.988m-4.487 3.988v.068l-.171 8.458" class="st4"/><path d="M200.034 69.636c.353.353.574.842.574 1.377a1.956 1.956 0 0 1-1.951 1.951h-7.241a1.93 1.93 0 0 1-1.377-.574 1.95 1.95 0 0 1-.575-1.377c0-1.074.878-1.951 1.952-1.951h7.241c.539 0 1.024.217 1.377.574" class="st10"/><path d="M191.416 72.964h7.241a1.956 1.956 0 0 0 1.951-1.951c0-.535-.221-1.024-.574-1.377a1.92 1.92 0 0 0-1.377-.574h-7.241a1.957 1.957 0 0 0-1.952 1.951c0 .535.222 1.024.575 1.377.353.357.838.574 1.377.574" class="st4"/><path d="M200.323 91.57v3.278a2.84 2.84 0 0 1-2.833 2.832h-4.908a2.84 2.84 0 0 1-2.775-2.265h2.165c3.585 0 2.344-3.842 5.929-3.842h2.418z" class="st14"/><path d="M200.323 85.963v5.607h-2.419c-3.585 0-2.343 3.842-5.928 3.842h-2.169a3 3 0 0 1-.057-.564v-5.044h2.226c3.585 0 2.343-3.842 5.928-3.842z" class="st5"/><path d="M200.323 80.958v5.005h-2.419c-3.585 0-2.343 3.842-5.928 3.842h-2.226v-5.607h2.226c3.585 0 2.343-3.838 5.928-3.838h2.294l.057-.014c.043.195.068.402.068.612" class="st14"/><path d="m200.255 80.344-.057.014h-2.294c-3.585 0-2.343 3.838-5.928 3.838h-2.226v-3.239a2.84 2.84 0 0 1 2.832-2.829h4.908a2.844 2.844 0 0 1 2.765 2.216" class="st5"/><path d="M200.323 91.57v3.278a2.84 2.84 0 0 1-2.833 2.832h-4.908a2.84 2.84 0 0 1-2.832-2.832v-13.89a2.84 2.84 0 0 1 2.832-2.829h4.908a2.84 2.84 0 0 1 2.833 2.829z" class="st4"/><path d="M189.871 84.197h2.105c3.585 0 2.343-3.838 5.928-3.838h2.294m-10.327 9.445h2.105c3.585 0 2.343-3.842 5.928-3.842h2.294m-10.327 9.454h2.105c3.585 0 2.343-3.842 5.928-3.842h2.294" class="st4"/><path d="M195.136 52.949a2.1 2.1 0 0 1 2.101 2.097 2.1 2.1 0 0 1-4.198 0c0-1.159.941-2.097 2.097-2.097" class="st3"/><path d="M197.237 55.047a2.1 2.1 0 0 1-4.198 0 2.098 2.098 0 0 1 4.198 0" class="st4"/><path d="M200.034 155.247c.353.353.574.842.574 1.377a1.956 1.956 0 0 1-1.951 1.951h-7.241a1.93 1.93 0 0 1-1.377-.574 1.95 1.95 0 0 1-.575-1.377c0-1.074.878-1.952 1.952-1.952h7.241c.539 0 1.024.218 1.377.575" class="st10"/><path d="M191.416 158.575h7.241a1.956 1.956 0 0 0 1.951-1.951c0-.535-.221-1.024-.574-1.377a1.93 1.93 0 0 0-1.377-.575h-7.241a1.957 1.957 0 0 0-1.952 1.952c0 .535.222 1.023.575 1.377.353.356.838.574 1.377.574" class="st4"/><path d="M295.515 206.713c-.147 3.503 2.104 4.505 2.104 4.505s-2.251 1.852-1.748 4.202c.539 2.512 3.475 3.204 3.475 3.204s-.453 2.504 1.876 4.505c1.291 1.109 4.505.977 4.505.977s1.299 2.907 3.403 3.567c2.686.839 5.679-1.241 5.679-1.241s2.511 1.998 4.356 2.329c3.602.225 5.329-2.254 5.329-2.254s2.611 1.794 5.286.831c2.472-.892 3.724-4.059 3.724-4.059s3.157.702 4.67-1.145c1.73-2.116 1.484-4.634 1.484-4.634s2.579-.671 2.928-3.756c.286-2.522-2.026-4.053-2.026-4.053s1.809-1.826 1.306-4.512-3.182-3.146-3.182-3.146.132-3.032-1.52-4.405c-2.012-1.681-4.712-.999-4.712-.999s-.845-2.615-3.849-3.368c-3.003-.749-5.836.889-5.836.889s-1.052-1.652-4.505-1.727-5.104 2.255-5.104 2.255-2.986-1.484-5.369-.578c-2.736 1.041-3.638 3.656-3.638 3.656s-2.255-.828-4.431.599-1.102 4.855-1.102 4.855c-.799.2-3.018 1.495-3.103 3.503" class="st14"/><path d="M297.619 211.218s-2.251-1.002-2.104-4.505c.085-2.008 2.304-3.303 3.103-3.503 0 0-1.074-3.428 1.102-4.855s4.431-.599 4.431-.599.902-2.615 3.638-3.656c2.383-.906 5.369.578 5.369.578s1.651-2.33 5.104-2.255 4.505 1.727 4.505 1.727 2.833-1.638 5.836-.889c3.004.753 3.849 3.368 3.849 3.368s2.7-.682 4.712.999c1.652 1.373 1.52 4.405 1.52 4.405s2.679.46 3.182 3.146-1.306 4.512-1.306 4.512 2.312 1.531 2.026 4.053c-.349 3.085-2.928 3.756-2.928 3.756s.246 2.518-1.484 4.634c-1.513 1.847-4.67 1.145-4.67 1.145s-1.252 3.167-3.724 4.059c-2.675.963-5.286-.831-5.286-.831s-1.727 2.479-5.329 2.254c-1.845-.331-4.356-2.329-4.356-2.329s-2.993 2.08-5.679 1.241c-2.104-.66-3.403-3.567-3.403-3.567s-3.214.132-4.505-.977c-2.329-2.001-1.876-4.505-1.876-4.505s-2.936-.692-3.475-3.204c-.503-2.35 1.748-4.202 1.748-4.202" class="st4"/><path d="M282.916 181.087c-.082 1.955 1.17 2.511 1.17 2.511s-1.252 1.031-.974 2.344c.3 1.402 1.937 1.787 1.937 1.787s-.253 1.395 1.045 2.511c.717.617 2.511.542 2.511.542s.728 1.623 1.901 1.991c1.499.467 3.168-.692 3.168-.692s1.398 1.113 2.429 1.298c2.009.125 2.972-1.256 2.972-1.256s1.455 1.003 2.95.461c1.377-.496 2.076-2.262 2.076-2.262s1.762.389 2.604-.638c.963-1.181.827-2.587.827-2.587s1.438-.374 1.634-2.093c.161-1.406-1.131-2.262-1.131-2.262s1.01-1.017.728-2.515-1.773-1.755-1.773-1.755.075-1.691-.849-2.458c-1.123-.938-2.629-.556-2.629-.556s-.471-1.459-2.147-1.876c-1.677-.418-3.253.495-3.253.495s-.589-.92-2.512-.963c-1.926-.042-2.846 1.256-2.846 1.256s-1.666-.824-2.993-.321c-1.527.581-2.03 2.037-2.03 2.037s-1.255-.46-2.468.335c-1.217.796-.614 2.707-.614 2.707-.446.111-1.683.835-1.73 1.955z" class="st14"/><path d="M284.089 183.601s-1.252-.56-1.17-2.511c.047-1.12 1.284-1.84 1.73-1.955 0 0-.599-1.912.614-2.707s2.468-.335 2.468-.335.507-1.456 2.03-2.037c1.33-.507 2.993.321 2.993.321s.92-1.299 2.846-1.256 2.511.963 2.511.963 1.581-.916 3.254-.495c1.676.42 2.147 1.876 2.147 1.876s1.505-.382 2.629.556c.92.767.849 2.458.849 2.458s1.495.257 1.773 1.755-.728 2.515-.728 2.515 1.288.856 1.131 2.261c-.196 1.72-1.634 2.094-1.634 2.094s.136 1.406-.827 2.587c-.842 1.027-2.604.638-2.604.638s-.7 1.766-2.076 2.262c-1.491.538-2.95-.461-2.95-.461s-.964 1.381-2.972 1.256c-1.031-.185-2.429-1.298-2.429-1.298s-1.669 1.159-3.168.692c-1.173-.368-1.901-1.991-1.901-1.991s-1.794.075-2.511-.542c-1.299-1.117-1.045-2.511-1.045-2.511s-1.638-.389-1.937-1.787c-.282-1.313.974-2.344.974-2.344z" class="st4"/><path d="M272.992 166.251c-.036.888.535 1.145.535 1.145s-.571.471-.442 1.067c.135.638.881.813.881.813s-.114.635.478 1.145c.328.282 1.145.25 1.145.25s.328.738.863.906c.681.214 1.441-.314 1.441-.314s.639.506 1.106.592c.913.057 1.352-.571 1.352-.571s.663.457 1.341.211c.628-.225.945-1.031.945-1.031s.803.178 1.185-.293c.438-.538.378-1.177.378-1.177s.653-.171.742-.952c.071-.642-.514-1.028-.514-1.028s.46-.463.332-1.145c-.129-.681-.806-.799-.806-.799s.032-.77-.386-1.12c-.51-.428-1.195-.253-1.195-.253s-.214-.664-.977-.856c-.763-.193-1.48.225-1.48.225s-.268-.421-1.145-.439c-.878-.018-1.295.571-1.295.571s-.76-.379-1.363-.147c-.695.264-.924.928-.924.928s-.57-.211-1.123.153-.279 1.234-.279 1.234c-.203.05-.766.378-.788.889z" class="st14"/><path d="M273.527 167.393s-.571-.254-.535-1.145c.021-.51.585-.839.788-.889 0 0-.271-.87.279-1.234.549-.364 1.123-.153 1.123-.153s.228-.664.924-.928c.606-.228 1.363.147 1.363.147s.421-.592 1.295-.571 1.145.439 1.145.439.72-.418 1.48-.225.977.856.977.856.685-.171 1.195.253c.421.35.386 1.12.386 1.12s.681.118.806.799c.125.682-.332 1.145-.332 1.145s.589.389.514 1.028c-.09.785-.742.952-.742.952s.06.639-.378 1.177c-.386.471-1.185.293-1.185.293s-.317.802-.945 1.031c-.678.246-1.341-.211-1.341-.211s-.439.628-1.352.571c-.467-.086-1.106-.592-1.106-.592s-.76.528-1.441.314c-.535-.168-.863-.906-.863-.906s-.817.032-1.145-.25c-.592-.506-.478-1.145-.478-1.145s-.746-.175-.881-.813c-.129-.596.442-1.067.442-1.067z" class="st4"/><path d="M99.143 116.033c-4.623 4.623-4.623 12.114 0 16.737s12.114 4.623 16.737 0l-3.203-3.203a7.305 7.305 0 0 1-10.327 0 7.305 7.305 0 0 1 0-10.327l-3.289-3.428" class="st17"/><path d="M99.143 116.033c-4.623 4.623-4.623 12.114 0 16.737s12.114 4.623 16.737 0l-3.203-3.203a7.305 7.305 0 0 1-10.327 0 7.305 7.305 0 0 1 0-10.327l-3.289-3.428" class="st18"/><path d="M99.061 115.812c-4.623-4.623-4.623-12.114 0-16.737s12.114-4.623 16.737 0l-3.203 3.204a7.305 7.305 0 0 0-10.327 0 7.304 7.304 0 0 0 0 10.326l-3.203 3.204z" class="st19"/><path d="M67.489 115.859v-2.554h19.095v1.266c0 1.509.717 1.676 2.147 1.676h6.289v2.765H76.763v-1.473c0-1.513-.717-1.68-2.147-1.68zm13.765-.093c0 .232.189.417.421.417s.417-.185.417-.417a.419.419 0 1 0-.838 0" class="st7"/><path d="M67.489 119.012v-3.153h7.127c1.43 0 2.147.167 2.147 1.68v1.473zm19.094-5.65v-.057h8.436v2.942H88.73c-1.43 0-2.147-.167-2.147-1.676z" class="st15"/><path d="M95.019 116.247v-2.942h-27.53v5.707H95.02z" class="st18"/><path d="M67.321 115.859h7.295c1.43 0 2.147.167 2.147 1.68v1.205m9.82-5.382v.032m9.442 2.853H88.73c-1.43 0-2.147-.167-2.147-1.676v-1.177m-5.329 2.372a.418.418 0 1 1 .838 0 .415.415 0 0 1-.417.417.42.42 0 0 1-.421-.417z" class="st18"/><path d="M-1 116.183v-2.879h18.635v1.203c0 1.508-1.01 1.676-3.021 1.676z" class="st15"/><path d="M-1 119.012v-2.829h15.613c2.012 0 3.021-.168 3.021-1.676v-1.203H53.02v2.701H33.216c-2.611 0-3.917.167-3.917 1.68v1.327zm20.9-3.246c0 .232.189.417.421.417s.417-.185.417-.417a.419.419 0 1 0-.838 0" class="st7"/><path d="M29.299 118.859v-1.174c0-1.512 1.306-1.68 3.917-1.68H53.02v3.007H29.299zm23.721-5.537v-.017h7.719v5.707H53.02zm2.551 2.444c0 .232.189.417.421.417s.417-.185.417-.417a.418.418 0 1 0-.838 0" class="st15"/><path d="M53.02 119.012h7.719v-5.708H-1v5.708zm-35.385-5.714v.006m0 .001v.024" class="st18"/><path d="M-.665 116.183h15.278c2.012 0 3.021-.167 3.021-1.676v-1.177m2.266 2.436a.418.418 0 1 1 .838 0 .415.415 0 0 1-.417.417.42.42 0 0 1-.421-.417zm35.671 0a.418.418 0 1 1 .838 0 .415.415 0 0 1-.417.417.42.42 0 0 1-.421-.417zm-2.551.239H33.216c-2.611 0-3.917.168-3.917 1.68v1.206m23.721.139v-5.708" class="st18"/><path d="M58.467 118.844a1.762 1.762 0 1 0 3.524 0v-5.372a1.762 1.762 0 0 0-3.524 0zm3.567 0a1.762 1.762 0 1 0 3.524 0v-5.372a1.762 1.762 0 0 0-3.524 0zm3.568 0a1.762 1.762 0 1 0 3.524 0v-5.372a1.762 1.762 0 0 0-3.524 0z" class="st20"/><path d="M95.448 121.42a5.624 5.624 0 1 1 0-11.247 5.62 5.62 0 0 1 5.621 5.625 5.62 5.62 0 0 1-5.621 5.622m-1.848-5.622c0 1.02.828 1.844 1.848 1.844s1.844-.824 1.844-1.844a1.845 1.845 0 1 0-3.692 0" class="st16"/><path d="M95.448 117.642a1.845 1.845 0 1 1 1.844-1.844c0 1.02-.824 1.844-1.844 1.844" class="st2"/><path d="M93.6 115.798a1.845 1.845 0 1 1 3.692 0c0 1.02-.824 1.844-1.844 1.844a1.845 1.845 0 0 1-1.848-1.844z" class="st18"/><path d="M89.822 115.798a5.624 5.624 0 0 1 5.625-5.625 5.62 5.62 0 0 1 5.621 5.625c0 3.107-2.518 5.622-5.621 5.622s-5.625-2.519-5.625-5.622z" class="st18"/><path d="M95.143 175.783c-4.623 4.623-4.623 12.113 0 16.736s12.114 4.623 16.737 0l-3.203-3.203a7.305 7.305 0 0 1-10.327 0 7.305 7.305 0 0 1 0-10.327l-3.289-3.428" class="st17"/><path d="M95.143 175.783c-4.623 4.623-4.623 12.113 0 16.736s12.114 4.623 16.737 0l-3.203-3.203a7.305 7.305 0 0 1-10.327 0 7.305 7.305 0 0 1 0-10.327l-3.289-3.428" class="st18"/><path d="M95.057 175.561c-4.623-4.623-4.623-12.114 0-16.736 4.623-4.623 12.114-4.623 16.737 0l-3.203 3.203a7.305 7.305 0 0 0-10.327 0 7.305 7.305 0 0 0 0 10.327l-3.203 3.203z" class="st19"/><path d="m21.571 175.295 22.266 13.93 1.283-2.05-22.266-13.93z" class="st21"/><path d="m42.798 164.655.415 23.097 2.397-.043-.415-23.097z" class="st21"/><path d="m41.799 165.039 22.266 13.93 1.283-2.051-22.266-13.93z" class="st21"/><path d="M-5 175.932v-2.879h18.631v1.203c0 1.508-1.006 1.676-3.021 1.676z" class="st15"/><path d="M-5 178.761v-2.829h15.61c2.015 0 3.021-.168 3.021-1.676v-1.203h8.896v5.708zm20.9-3.246c0 .232.185.417.417.417a.418.418 0 1 0 0-.838.42.42 0 0 0-.417.421" class="st7"/><path d="M-5 175.932v2.829h27.527v-5.708H-5zm18.631-2.885v.006m0 .001v.024" class="st18"/><path d="M-4.665 175.932H10.61c2.015 0 3.021-.167 3.021-1.676v-1.177m2.269 2.436a.418.418 0 1 1 .838 0 .42.42 0 0 1-.421.417.415.415 0 0 1-.417-.417z" class="st18"/><path d="M63.488 175.608v-2.554h15.528v1.266c0 1.509.713 1.677 2.147 1.677h9.852v2.764H76.33v-1.473c0-1.513-.717-1.68-2.151-1.68z" class="st7"/><path d="M63.488 178.761v-3.153h10.691c1.434 0 2.151.167 2.151 1.68v1.473zm15.528-5.65v-.057h12v2.943h-9.852c-1.434 0-2.147-.168-2.147-1.677z" class="st15"/><path d="M91.016 175.997v-2.943H63.488v5.707h27.528z" class="st18"/><path d="M63.321 175.608h10.858c1.434 0 2.151.167 2.151 1.68v1.206m2.686-5.383v.032m13.009 2.854H81.163c-1.434 0-2.147-.168-2.147-1.677v-1.177" class="st18"/><path d="M25.256 181.85a5.624 5.624 0 1 1 .005-11.245 5.624 5.624 0 0 1-.005 11.245m-1.847-5.622c0 1.021.827 1.845 1.848 1.845a1.846 1.846 0 1 0 0-3.692 1.847 1.847 0 0 0-1.848 1.847" class="st16"/><path d="M25.256 178.073a1.846 1.846 0 1 1 0-3.692 1.846 1.846 0 1 1 0 3.692" class="st2"/><path d="M23.408 176.228a1.848 1.848 0 0 1 3.696 0 1.846 1.846 0 0 1-1.848 1.845 1.846 1.846 0 0 1-1.848-1.845z" class="st18"/><path d="M19.635 176.228a5.624 5.624 0 1 1 11.245-.001 5.624 5.624 0 0 1-11.245.001z" class="st18"/><path d="M62.354 181.85a5.624 5.624 0 1 1 .005-11.245 5.624 5.624 0 0 1-.005 11.245m-1.848-5.622c0 1.021.827 1.845 1.848 1.845a1.845 1.845 0 1 0 0-3.692c-1.02 0-1.848.827-1.848 1.847" class="st16"/><path d="M62.354 178.073a1.846 1.846 0 1 1 0-3.692 1.846 1.846 0 1 1 0 3.692" class="st2"/><path d="M60.506 176.228a1.848 1.848 0 0 1 3.696 0 1.846 1.846 0 0 1-1.848 1.845 1.846 1.846 0 0 1-1.848-1.845z" class="st18"/><path d="M56.732 176.228a5.624 5.624 0 1 1 11.245-.001 5.624 5.624 0 0 1-11.245.001z" class="st18"/><path d="M44.162 168.295a3.481 3.481 0 1 0 0-6.962 3.481 3.481 0 0 0 0 6.962zm0 22.83a3.481 3.481 0 1 0 0-6.962 3.481 3.481 0 0 0 0 6.962z" class="st22"/><path d="M87.998 178.593a1.762 1.762 0 1 0 3.524 0v-5.372a1.762 1.762 0 0 0-3.524 0zm3.567 0a1.762 1.762 0 1 0 3.524 0v-5.372a1.762 1.762 0 0 0-3.524 0z" class="st20"/><path d="M290.737 129.103c4.623-4.623 4.623-12.114 0-16.737s-12.114-4.622-16.737 0l3.203 3.204c2.85-2.85 7.477-2.85 10.327 0s2.85 7.476 0 10.327l3.289 3.428" class="st17"/><path d="M290.737 129.103c4.623-4.623 4.623-12.114 0-16.737s-12.114-4.622-16.737 0l3.203 3.204c2.85-2.85 7.477-2.85 10.327 0s2.85 7.476 0 10.327l3.289 3.428" class="st18"/><path d="M290.822 129.325c4.623 4.622 4.623 12.113 0 16.736-4.622 4.623-12.113 4.623-16.736 0l3.203-3.203a7.305 7.305 0 0 0 10.327 0 7.305 7.305 0 0 0 0-10.327l3.203-3.203z" class="st19"/><path d="M322.391 129.278v2.554h-19.094v-1.266c0-1.509-.717-1.677-2.148-1.677h-6.289v-2.764h18.257v1.473c0 1.512.717 1.68 2.147 1.68zm-13.765.093a.42.42 0 0 0-.421-.417.415.415 0 0 0-.417.417.418.418 0 1 0 .838 0" class="st7"/><path d="M322.391 126.125v3.153h-7.127c-1.43 0-2.147-.168-2.147-1.68v-1.473zm-19.094 5.65v.057h-8.437v-2.943h6.289c1.431 0 2.148.168 2.148 1.677z" class="st15"/><path d="M294.86 128.889v2.943h27.531v-5.707H294.86z" class="st18"/><path d="M322.559 129.278h-7.295c-1.43 0-2.147-.168-2.147-1.68v-1.206m-9.82 5.383v-.032m-9.442-2.854h7.294c1.431 0 2.148.168 2.148 1.677v1.177m5.329-2.372a.418.418 0 1 1-.838 0c0-.232.185-.417.417-.417s.421.185.421.417z" class="st18"/><path d="M390.88 128.954v2.878h-18.635v-1.202c0-1.509 1.01-1.676 3.022-1.676z" class="st15"/><path d="M390.88 126.125v2.829h-15.613c-2.012 0-3.022.167-3.022 1.676v1.202H336.86v-2.7h19.804c2.611 0 3.917-.168 3.917-1.68v-1.327zm-20.9 3.246c0-.232-.189-.417-.421-.417s-.417.185-.417.417a.418.418 0 1 0 .838 0" class="st7"/><path d="M360.581 126.278v1.174c0 1.512-1.306 1.68-3.917 1.68H336.86v-3.007h23.721zm-23.721 5.536v.018h-7.72v-5.707h7.72zm-2.551-2.443a.42.42 0 1 0-.838.002.42.42 0 0 0 .838-.002" class="st15"/><path d="M336.86 126.125h-7.72v5.707h61.74v-5.707zm35.385 5.714v-.007m0 0v-.025" class="st18"/><path d="M390.545 128.954h-15.278c-2.012 0-3.022.167-3.022 1.676v1.177m-2.265-2.436a.418.418 0 1 1-.838 0c0-.232.185-.417.417-.417s.421.185.421.417zm-35.671 0a.418.418 0 1 1-.838 0c0-.232.185-.417.417-.417s.421.185.421.417zm2.551-.239h19.804c2.611 0 3.917-.168 3.917-1.68v-1.206m-23.721-.139v5.707" class="st18"/><path d="M331.413 126.292a1.762 1.762 0 0 0-3.525 0v5.373a1.762 1.762 0 0 0 3.525 0zm-3.567 0a1.762 1.762 0 0 0-3.525 0v5.373a1.762 1.762 0 0 0 3.525 0zm-3.568 0a1.762 1.762 0 0 0-3.524 0v5.373a1.762 1.762 0 0 0 3.524 0z" class="st20"/><path d="M294.432 123.717a5.625 5.625 0 0 1 5.626 5.622c0 3.103-2.519 5.625-5.626 5.625s-5.621-2.518-5.621-5.625a5.62 5.62 0 0 1 5.621-5.622m1.848 5.622c0-1.02-.827-1.844-1.848-1.844-1.02 0-1.844.824-1.844 1.844a1.845 1.845 0 1 0 3.692 0" class="st16"/><path d="M294.432 127.495c1.021 0 1.848.824 1.848 1.844s-.827 1.848-1.848 1.848a1.845 1.845 0 0 1-1.844-1.848c0-1.02.824-1.844 1.844-1.844" class="st2"/><path d="M296.28 129.339a1.845 1.845 0 1 1-3.692 0c0-1.02.824-1.844 1.844-1.844s1.848.824 1.848 1.844z" class="st18"/><path d="M300.058 129.339c0 3.107-2.519 5.625-5.626 5.625s-5.621-2.518-5.621-5.625a5.62 5.62 0 0 1 5.621-5.622 5.627 5.627 0 0 1 5.626 5.622z" class="st18"/><path d="M292.062 69.354c4.623-4.623 4.623-12.114 0-16.737s-12.114-4.623-16.737 0l3.203 3.203a7.305 7.305 0 0 1 10.327 0 7.305 7.305 0 0 1 0 10.327l3.289 3.428" class="st17"/><path d="M292.062 69.354c4.623-4.623 4.623-12.114 0-16.737s-12.114-4.623-16.737 0l3.203 3.203a7.305 7.305 0 0 1 10.327 0 7.305 7.305 0 0 1 0 10.327l3.289 3.428" class="st18"/><path d="M292.144 69.575c4.623 4.623 4.623 12.114 0 16.737s-12.114 4.623-16.737 0l3.203-3.203a7.305 7.305 0 0 0 10.327 0 7.305 7.305 0 0 0 0-10.327l3.203-3.203z" class="st19"/><path d="m365.637 69.819-22.266-13.93-1.283 2.05 22.267 13.93z" class="st21"/><path d="m344.382 80.486-.416-23.097-2.396.043.415 23.097z" class="st21"/><path d="m345.408 80.076-22.266-13.93-1.283 2.05 22.266 13.93z" class="st21"/><path d="M392.201 69.204v2.879H373.57v-1.202c0-1.509 1.006-1.676 3.022-1.676h15.609z" class="st15"/><path d="M392.201 66.376v2.829h-15.61c-2.015 0-3.021.168-3.021 1.676v1.202h-8.896v-5.707zm-20.9 3.246a.419.419 0 1 0-.838.004.419.419 0 0 0 .838-.004" class="st7"/><path d="M392.201 69.204v-2.829h-27.527v5.707h27.527zM373.57 72.09v-.007m0-.001v-.024" class="st18"/><path d="M391.866 69.204h-15.274c-2.016 0-3.022.168-3.022 1.676v1.177m-2.268-2.435a.42.42 0 1 1-.838.004.42.42 0 0 1 .838-.004z" class="st18"/><path d="M323.713 69.529v2.554h-15.528v-1.266c0-1.509-.713-1.677-2.147-1.677h-9.853v-2.764h14.686v1.473c0 1.512.717 1.68 2.151 1.68z" class="st7"/><path d="M323.713 66.376v3.153h-10.691c-1.434 0-2.151-.168-2.151-1.68v-1.473zm-15.528 5.65v.057h-12V69.14h9.853c1.434 0 2.147.168 2.147 1.677z" class="st15"/><path d="M296.185 69.14v2.943h27.528v-5.707h-27.528z" class="st18"/><path d="M323.88 69.529h-10.858c-1.434 0-2.151-.168-2.151-1.68v-1.206m-2.686 5.383v-.032m-13.009-2.854h10.862c1.434 0 2.147.168 2.147 1.677v1.177" class="st18"/><path d="M361.945 63.287a5.624 5.624 0 1 1-.004 11.246 5.624 5.624 0 0 1 .004-11.246m1.848 5.621c0-1.02-.828-1.844-1.848-1.844a1.845 1.845 0 1 0 0 3.692c1.02 0 1.848-.827 1.848-1.848" class="st16"/><path d="M361.945 67.064a1.845 1.845 0 1 1 0 3.692 1.845 1.845 0 1 1 0-3.692" class="st2"/><path d="M363.793 68.908a1.849 1.849 0 0 1-3.696 0c0-1.02.828-1.844 1.848-1.844s1.848.824 1.848 1.844z" class="st18"/><path d="M367.567 68.908a5.624 5.624 0 1 1-11.245.001 5.624 5.624 0 0 1 11.245-.001z" class="st18"/><path d="M324.847 63.287a5.624 5.624 0 1 1-.004 11.246 5.624 5.624 0 0 1 .004-11.246m1.848 5.621c0-1.02-.828-1.844-1.848-1.844a1.845 1.845 0 1 0 0 3.692c1.02 0 1.848-.827 1.848-1.848" class="st16"/><path d="M324.847 67.064a1.845 1.845 0 1 1 0 3.692 1.845 1.845 0 1 1 0-3.692" class="st2"/><path d="M326.695 68.908a1.849 1.849 0 0 1-3.696 0c0-1.02.828-1.844 1.848-1.844s1.848.824 1.848 1.844z" class="st18"/><path d="M330.469 68.908a5.624 5.624 0 1 1-11.245.001 5.624 5.624 0 0 1 11.245-.001z" class="st18"/><path d="M343.039 83.805a3.482 3.482 0 1 0 0-6.964 3.482 3.482 0 0 0 0 6.964zm0-22.83a3.482 3.482 0 1 0 0-6.964 3.482 3.482 0 0 0 0 6.964z" class="st22"/><path d="M299.207 66.543a1.762 1.762 0 0 0-3.525 0v5.372a1.762 1.762 0 0 0 3.525 0zm-3.567 0a1.762 1.762 0 0 0-3.525 0v5.372a1.762 1.762 0 0 0 3.525 0z" class="st20"/></g></svg>