<svg xmlns="http://www.w3.org/2000/svg" viewBox="0 0 170 160"><defs><clipPath id="a"><path fill="none" d="M0 0h169.9v160H0z"/></clipPath></defs><g clip-path="url(#a)"><path fill="#712a76" d="M108.54 44.72c1.06 1.51-1.93 5.42-6.66 8.73s-9.42 4.77-10.48 3.27c-1.06-1.51 1.92-5.42 6.66-8.73s9.43-4.77 10.49-3.26Zm33.03-3.45c.71 1.47 1.43 3.06 2.19 4.77-1.48 1.11-3.5 2.24-5.8 3.19-5.34 2.2-10.24 2.6-10.95.89-.7-1.71 3.06-4.87 8.41-7.07 2.22-.91 4.35-1.51 6.15-1.78"/><path fill="#cf4cd9" d="M127.02 50.12c.7 1.7 5.6 1.31 10.95-.89 2.3-.95 4.32-2.08 5.8-3.19 1 2.27 2.06 4.74 3.22 7.39 7.37 16.88 3.69 45.99 3.69 45.99s-95.79 6.21-96.82-.13c-1.04-6.34 1.94-16.43 1.94-16.43.59-2.22 2.72-2.07 2.72-2.07s1.16-3.11 2.13-5.04c.97-1.94 2.72-4.27 2.72-4.27s-1.87-1.55-.58-3.49c2.97-5.04 7.37-10.22 13.07-14.62 1.62-1.25 3.04.45 3.04.45s5.5-4.98 14.16-10.09c8.67-5.11 15.65-7.7 15.91-7.76-.52-2.91 5.17-4.46 16.3-6.6 3.21-.62 5.77-.28 7.95.92 1.75 1.56 3.42 3.21 5 4.93 1.15 1.69 2.24 3.72 3.37 6.04-1.8.27-3.93.87-6.15 1.78-5.34 2.2-9.11 5.36-8.41 7.07Zm-35.63 6.6c1.06 1.5 5.75.04 10.48-3.27 4.74-3.31 7.72-7.22 6.66-8.73s-5.75-.05-10.49 3.26-7.72 7.22-6.66 8.73Z"/><path fill="#49225b" d="M150.67 99.42s3.69-29.1-3.69-45.99c-1.16-2.66-2.22-5.13-3.22-7.39.65-.49 1.21-.98 1.64-1.45 6.78 10.6 10.7 23.18 10.7 36.68 0 37.78-30.75 68.4-68.69 68.4s-68.69-30.62-68.69-68.39 30.76-68.4 68.69-68.4c17.59 0 33.64 6.58 45.79 17.41-2.18-1.2-4.74-1.54-7.95-.92-11.12 2.13-16.82 3.69-16.3 6.6-.26.07-7.25 2.65-15.91 7.76S78.88 53.82 78.88 53.82s-1.42-1.7-3.04-.45c-5.69 4.4-10.09 9.57-13.07 14.62-1.29 1.94.58 3.49.58 3.49s-1.75 2.33-2.72 4.27-2.13 5.04-2.13 5.04-2.12-.15-2.72 2.07c0 0-2.98 10.09-1.94 16.43 1.03 6.34 96.82.13 96.82.13Z"/><path fill="none" stroke="#002140" stroke-linecap="round" stroke-miterlimit="10" stroke-width=".82" d="M145.4 44.6c6.78 10.6 10.7 23.18 10.7 36.68 0 37.78-30.75 68.4-68.69 68.4s-68.69-30.63-68.69-68.4 30.76-68.4 68.69-68.4c17.59 0 33.64 6.58 45.79 17.41 1.75 1.56 3.42 3.21 5 4.93a68 68 0 0 1 4.82 5.89c.83 1.13 1.62 2.29 2.38 3.47Z"/><path fill="none" stroke="#002140" stroke-linecap="round" stroke-miterlimit="10" stroke-width=".82" d="M133.2 30.29c-2.18-1.2-4.74-1.54-7.95-.92-11.12 2.13-16.82 3.69-16.3 6.6-.26.07-7.25 2.65-15.91 7.76S78.88 53.82 78.88 53.82s-1.42-1.7-3.04-.45c-5.69 4.4-10.09 9.57-13.07 14.62-1.29 1.94.58 3.49.58 3.49s-1.75 2.33-2.72 4.27-2.13 5.04-2.13 5.04-2.12-.15-2.72 2.07c0 0-2.98 10.09-1.94 16.43 1.03 6.34 96.82.13 96.82.13s3.69-29.11-3.69-45.99c-1.16-2.66-2.22-5.13-3.22-7.39-.76-1.71-1.48-3.3-2.19-4.77-1.13-2.33-2.22-4.35-3.37-6.04-1.52-2.24-3.12-3.9-5-4.93Z"/><path fill="none" stroke="#002140" stroke-linecap="round" stroke-miterlimit="10" stroke-width=".82" d="M91.39 56.72c1.06 1.5 5.75.04 10.48-3.27 4.74-3.31 7.72-7.22 6.66-8.73s-5.75-.05-10.49 3.26-7.72 7.22-6.66 8.73"/><path fill="none" stroke="#002140" stroke-linecap="round" stroke-miterlimit="10" stroke-width=".82" d="M91.36 61.39c1.26-1.39.08-4.54.03-4.67q0 0 0 0M112.7 44.7c-2.2.91-4.66-.39-4.66-.39m-11.9 14.36s.26.9.13 2.07m1.82-2.58.26 1.16m-16.44 0s-3.1 2.2-5.43 5.69m3.62-1.55s-1.94 1.94-3.62 4.53M122.37 34s-3.8.03-7.71 1.57m3.86.79s-2.7.49-5.56 1.65m28.61 3.26c-1.8.27-3.93.87-6.15 1.78-5.34 2.2-9.11 5.36-8.41 7.07.7 1.7 5.6 1.31 10.95-.89 2.3-.95 4.32-2.08 5.8-3.19.65-.49 1.21-.98 1.64-1.45.86-.93 1.24-1.79.97-2.43-.33-.8-1.57-1.14-3.35-1.04-.45.02-.94.07-1.45.15Z"/><path fill="none" stroke="#002140" stroke-linecap="round" stroke-miterlimit="10" stroke-width=".82" d="M125.97 54.68c1.57-1.1 1.05-4.56 1.05-4.56m2.64 3.09s-.09.94-.63 1.98m2.63-1.76-.18 1.18"/><path fill="#712a76" d="M40.65 87.39c.75 0 1.36-.61 1.36-1.36s-.61-1.36-1.36-1.36-1.36.61-1.36 1.36.61 1.36 1.36 1.36"/><path fill="#ffed8f" d="M94.88 25.59a.58.58 0 1 0 0-1.16.58.58 0 0 0 0 1.16M43.8 61.97c.46 0 .82-.37.82-.82s-.37-.82-.82-.82-.82.37-.82.82.37.82.82.82"/><path fill="#fff2b2" d="M48.42 70.9c1.91 0 1.95-3.69 1.95-3.69h.07s.02 3.68 1.93 3.69c-1.91 0-1.95 3.82-1.95 3.82h-.05s-.04-3.83-1.95-3.83Zm28.22-40.56c2.62 0 2.67-5.04 2.67-5.04h.1c0 .15.07 5.03 2.64 5.05-2.61 0-2.68 5.23-2.68 5.23h-.07c0-.15-.09-5.23-2.67-5.23Z"/><path fill="#fbccff" d="M94.46 32.35a3.039 3.039 0 0 1-4.98 2.34c.76-.28 1.59-.64 2.43-1.08.95-.49 1.81-1.02 2.53-1.54 0 .09.01.19.01.28Z"/><path fill="#fbccff" d="M94.45 32.07c-.72.51-1.58 1.04-2.53 1.54-.85.44-1.67.81-2.43 1.08-.67-.56-1.1-1.4-1.1-2.34v-.11a3.037 3.037 0 0 1 3.04-2.93c.53 0 1.02.13 1.45.37.87.47 1.48 1.36 1.58 2.39Z"/><path fill="none" stroke="#002140" stroke-linecap="round" stroke-miterlimit="10" stroke-width=".82" d="M94.45 32.07c0 .09.01.19.01.28a3.039 3.039 0 0 1-4.98 2.34c-.67-.56-1.1-1.4-1.1-2.34v-.11a3.037 3.037 0 0 1 3.04-2.93c.53 0 1.02.13 1.45.37.87.47 1.48 1.36 1.58 2.39Z"/><path fill="none" stroke="#002140" stroke-linecap="round" stroke-miterlimit="10" stroke-width=".82" d="M93.17 29.64c1.78-.62 3.15-.75 3.42-.23s-.61 1.56-2.14 2.66c-.72.51-1.58 1.04-2.53 1.54-.85.44-1.67.81-2.43 1.08-1.92.71-3.4.88-3.69.33-.28-.54.68-1.64 2.32-2.78"/><path fill="none" stroke="#fff2b2" stroke-linecap="round" stroke-linejoin="round" stroke-width=".27" d="M79.31 25.3s-.05 5.04-2.67 5.04c2.58 0 2.66 5.09 2.67 5.24m2.75-5.24c-2.61 0-2.68 5.23-2.68 5.23m.03-10.28c0 .16.07 5.04 2.64 5.05M50.37 67.21s-.04 3.69-1.95 3.69c1.91 0 1.95 3.83 1.95 3.83m2.01-3.83c-1.91 0-1.95 3.82-1.95 3.82m.01-7.51s.02 3.68 1.93 3.69"/><path fill="#fed607" stroke="#fed607" stroke-linecap="round" stroke-miterlimit="10" stroke-width=".82" d="M43.8 61.97c.46 0 .82-.37.82-.82s-.37-.82-.82-.82-.82.37-.82.82.37.82.82.82Zm16.45-26.48a.29.29 0 1 1-.58 0 .29.29 0 0 1 .58 0Zm34.63-9.9a.58.58 0 1 0 0-1.16.58.58 0 0 0 0 1.16ZM45.45 78.08c.24 0 .44-.2.44-.44s-.2-.44-.44-.44-.44.2-.44.44.2.44.44.44Zm-8.1 5.38c0 .13-.11.24-.24.24s-.24-.11-.24-.24.11-.24.24-.24.24.11.24.24Z"/><path fill="#0185ff" d="M10.29 119.44v-17.11h148.73v34.25c0 .88-.07 1.82-.24 2.77-.66 3.82-2.8 7.92-7.73 9.93-1.95.8-4.33 1.27-7.24 1.27H25.5c-4.21 0-7.33-.99-9.62-2.53-3.45-2.32-4.97-5.89-5.43-9.17-.11-.78-.16-1.54-.16-2.27z"/><path fill="#003c73" d="M84.64 9.71h.04c1.06.02 2.1.06 3.13.11 2 .09 3.94.23 5.84.41 6.18.58 11.78 1.6 16.85 2.97 5.66 1.53 10.67 3.5 15.08 5.79 7.76 4.02 13.71 9.01 18.29 14.32 2.72 3.16 4.95 6.42 6.78 9.66 3.72 6.57 5.79 13.02 6.93 18.19 1.33 5.99 1.43 10.26 1.43 10.98v30.19H10.29V72.25s-.06-10.32 5.09-22.58c1.92-4.58 4.57-9.42 8.22-14.1 4.31-5.53 10.02-10.83 17.59-15.18 4.63-2.67 9.97-4.97 16.1-6.75 6.47-1.88 13.84-3.18 22.22-3.7 1.67-.11 3.38-.18 5.14-.22Zm0 3.94c0 4.01-2.53 4.24-3.36 4.2v.05C51.56 19.65 28 44.3 28 74.46c0 7.85 1.6 15.32 4.48 22.12l.04.37h104.13l.22-.44c2.87-6.78 4.45-14.23 4.45-22.05 0-30.12-23.5-54.75-53.17-56.55l-.06-.09s-3.44.1-3.44-4.17Zm3.59-1.32c0-.29-.23-.52-.52-.52s-.52.23-.52.52.23.52.52.52.52-.23.52-.52m0 2.75c0-.29-.23-.52-.52-.52s-.52.23-.52.52.23.52.52.52.52-.23.52-.52m-6.05-2.75c0-.29-.23-.52-.52-.52s-.52.23-.52.52.23.52.52.52.52-.23.52-.52m0 2.75c0-.29-.23-.52-.52-.52s-.52.23-.52.52.23.52.52.52.52-.23.52-.52"/><path fill="#002140" d="M33.93 94.37h101.61c-.32.81-.65 1.6-1.01 2.38v.2H34.89v-.1c-.37-.81-.71-1.63-1.04-2.46l.08-.03Z"/><path fill="none" stroke="#002140" stroke-linecap="round" stroke-miterlimit="10" stroke-width=".82" d="M81.02 17.83s.1.02.26.02c.83.03 3.36-.2 3.36-4.2V9.7m3.44 8.12s-3.44.1-3.44-4.17"/><path fill="none" stroke="#002140" stroke-linecap="round" stroke-miterlimit="10" stroke-width=".82" d="M82.18 15.08c0 .29-.23.52-.52.52s-.52-.23-.52-.52.23-.52.52-.52.52.23.52.52Zm0-2.75c0 .29-.23.52-.52.52s-.52-.23-.52-.52.23-.52.52-.52.52.23.52.52Zm6.05 2.75c0 .29-.23.52-.52.52s-.52-.23-.52-.52.23-.52.52-.52.52.23.52.52Zm0-2.75c0 .29-.23.52-.52.52s-.52-.23-.52-.52.23-.52.52-.52.52.23.52.52ZM32.48 96.59A56.6 56.6 0 0 1 28 74.47c0-30.16 23.56-54.81 53.28-56.56m6.86.01c29.67 1.8 53.17 26.43 53.17 56.55 0 7.82-1.59 15.28-4.45 22.05m-104.35.44h104.13"/><path fill="none" stroke="#002140" stroke-linecap="round" stroke-miterlimit="10" stroke-width=".82" d="M34.89 96.86c-.37-.81-.71-1.63-1.04-2.46a54.4 54.4 0 0 1-3.81-20.07c0-30.15 24.47-54.6 54.65-54.6s54.66 24.44 54.66 54.6c0 7.08-1.35 13.84-3.8 20.04-.32.81-.65 1.6-1.01 2.38M33.93 94.37h101.81m-125.36 7.96h148.44"/><path fill="#002140" d="M135.54 94.37a54.4 54.4 0 0 0 3.8-20.04c0-30.15-24.47-54.6-54.66-54.6s-54.65 24.44-54.65 54.6a54.5 54.5 0 0 0 4.85 22.54v.1H32.5l-.04-.37a56.6 56.6 0 0 1-4.48-22.12c0-30.16 23.56-54.81 53.28-56.56v-.05c.83.03 3.36-.2 3.36-4.2 0 4.27 3.44 4.17 3.44 4.17l.06.09c29.67 1.8 53.17 26.43 53.17 56.55 0 7.82-1.59 15.28-4.45 22.05l-.22.44h-2.11v-.2c.35-.78.69-1.58 1.01-2.38ZM87.71 11.81c.29 0 .52.23.52.52s-.23.52-.52.52-.52-.23-.52-.52.23-.52.52-.52"/><path fill="#002140" d="M87.71 14.56c.29 0 .52.23.52.52s-.23.52-.52.52-.52-.23-.52-.52.23-.52.52-.52m-6.05-2.75c.29 0 .52.23.52.52s-.23.52-.52.52-.52-.23-.52-.52.23-.52.52-.52m0 2.75c.29 0 .52.23.52.52s-.23.52-.52.52-.52-.23-.52-.52.23-.52.52-.52"/><path fill="#4ed7de" d="M24.24 39.43c3.85.69 4.41 5.26 4.34 6.76-.1 2.08-.59 4.13-1.46 6.04-1.55 3.41-4.27 6.4-4.94 10.06-.27 1.49-.18 3.01-.28 4.52-.16 2.39-.81 4.74-1.91 6.9-1 1.95-2.34 3.74-3.35 5.69-1.59 3.11-1.79 6.63-1.92 10.08-.1 2.67 0 3.21-.92 3.15-.98-.06-2.01-.03-3.03 0v-.2c.02-3.25.05-2.78.13-6.03.04-1.89.1-3.8.65-5.62 1.37-4.46 5.61-7.85 6.6-12.4.71-3.26-.34-6.78.81-9.93.84-2.28 2.75-4.08 3.84-6.28.93-1.87 1.31-3.96 1.42-6.03.14-2.74-.12-4.1 0-6.72Z"/><path fill="#4ba6a6" d="M24.24 39.43c-.13 2.62.13 3.99-.01 6.72-.11 2.07-.48 4.16-1.42 6.03-1.09 2.19-3 3.99-3.84 6.28-1.16 3.15-.1 6.66-.81 9.93-.99 4.55-5.23 7.94-6.6 12.4-.56 1.82-.61 3.73-.65 5.62-.07 3.25-.1 2.78-.13 6.03v.2c-1.06.03-2.11.06-3.13-.03-.16-.01-.33-.04-.46-.13-.18-.14-.21-.38-.23-.6-.39-5.58-.71-11.5 2.05-16.45 1.34-2.41 3.38-4.52 4.03-7.17.7-2.83-.31-5.86.49-8.66.67-2.36 2.54-4.27 3.31-6.59.8-2.41.92-5.87.95-7.52.04-1.65.75-6.16 5.4-6.16.37 0 .71.03 1.03.09Z"/><path fill="none" stroke="#002140" stroke-linecap="round" stroke-miterlimit="10" stroke-width=".82" d="M10.78 92.65c1.02-.03 2.05-.07 3.03 0 .92.06.82-.48.92-3.15.13-3.45.32-6.97 1.92-10.08 1-1.95 2.35-3.73 3.35-5.69 1.1-2.16 1.75-4.52 1.91-6.9.1-1.51.01-3.03.28-4.52.66-3.66 3.39-6.65 4.94-10.06.87-1.91 1.36-3.96 1.46-6.04.07-1.51-.48-6.07-4.34-6.76-.32-.06-.66-.09-1.03-.09-4.65 0-5.36 4.51-5.4 6.16s-.15 5.1-.95 7.52c-.78 2.33-2.64 4.24-3.31 6.59-.8 2.8.2 5.83-.49 8.66-.65 2.64-2.69 4.76-4.03 7.17-2.76 4.95-2.44 10.87-2.05 16.45.01.22.04.46.23.6.13.09.29.11.46.13 1.01.09 2.07.06 3.13.03h0Z"/><path fill="none" stroke="#002140" stroke-linecap="round" stroke-miterlimit="10" stroke-width=".82" d="M24.24 39.44c-.13 2.61.13 3.98 0 6.72-.11 2.07-.48 4.16-1.42 6.03-1.09 2.19-3 3.99-3.84 6.28-1.16 3.15-.1 6.66-.81 9.93-.99 4.55-5.23 7.94-6.6 12.4-.56 1.82-.61 3.73-.65 5.62-.07 3.25-.1 2.78-.13 6.03"/><path fill="#4ed7de" d="M38.02 34.22c4.02.76 4.6 5.81 4.52 7.47-.1 2.29-.62 4.57-1.52 6.67-1.61 3.77-4.45 7.08-5.14 11.12-.28 1.65-.18 3.33-.29 4.99-.17 2.64-.85 5.24-1.99 7.63-1.03 2.16-2.44 4.13-3.48 6.28-1.67 3.44-1.87 7.33-2 11.15-.1 2.95 0 3.54-.96 3.48-1.02-.07-2.09-.03-3.16 0v-.22c.03-3.6.05-3.07.13-6.67.04-2.09.1-4.21.68-6.22 1.43-4.94 5.84-8.67 6.88-13.71.74-3.61-.36-7.49.85-10.97.88-2.53 2.86-4.51 4-6.94.97-2.07 1.36-4.38 1.48-6.67.15-3.02-.13-4.54 0-7.42Z"/><path fill="#4ba6a6" d="M38.02 34.23c-.14 2.89.14 4.4 0 7.42-.11 2.28-.51 4.59-1.48 6.67-1.14 2.42-3.12 4.41-4 6.94-1.21 3.48-.1 7.36-.85 10.97-1.03 5.04-5.45 8.77-6.88 13.71-.58 2.01-.64 4.13-.68 6.22-.08 3.6-.1 3.07-.14 6.67v.22c-1.1.04-2.2.07-3.25-.03-.17-.01-.34-.04-.48-.14-.19-.15-.22-.42-.23-.66-.41-6.17-.74-12.71 2.14-18.18 1.4-2.66 3.52-4.99 4.2-7.92.73-3.12-.32-6.47.51-9.57.7-2.6 2.64-4.72 3.45-7.29.84-2.67.95-6.48.99-8.31.04-1.82.79-6.81 5.63-6.81.38 0 .74.03 1.07.1Z"/><path fill="none" stroke="#002140" stroke-linecap="round" stroke-miterlimit="10" stroke-width=".82" d="M24 93.03c1.07-.04 2.13-.08 3.16 0 .96.06.85-.53.96-3.48.13-3.82.34-7.71 2-11.15 1.04-2.16 2.45-4.12 3.48-6.28a20.5 20.5 0 0 0 1.99-7.63c.1-1.67 0-3.35.29-4.99.69-4.04 3.53-7.35 5.14-11.12.9-2.11 1.42-4.38 1.52-6.67.07-1.67-.51-6.72-4.52-7.47-.33-.06-.69-.1-1.07-.1-4.85 0-5.59 4.99-5.63 6.81s-.16 5.64-.99 8.31c-.81 2.57-2.75 4.69-3.45 7.29-.83 3.1.22 6.45-.51 9.57-.68 2.92-2.81 5.26-4.2 7.92-2.88 5.47-2.55 12-2.14 18.18.01.24.05.51.23.66.13.1.31.13.48.14 1.05.1 2.16.07 3.26.03h0Z"/><path fill="none" stroke="#002140" stroke-linecap="round" stroke-miterlimit="10" stroke-width=".82" d="M38.02 34.23c-.14 2.89.14 4.4 0 7.42-.11 2.28-.51 4.59-1.48 6.67-1.14 2.42-3.12 4.41-4 6.94-1.21 3.48-.1 7.36-.85 10.97-1.03 5.04-5.45 8.77-6.88 13.71-.58 2.01-.64 4.13-.68 6.22-.08 3.6-.1 3.07-.14 6.67"/><path fill="#4ed7de" d="M29.54 55.43c.23 4.53.21 9.48-2.19 13.04-1.75 2.59-4.55 4.09-5.98 6.93-1.06 2.12-1.2 4.68-1.31 7.13-.12 2.53-.2 7.71-.32 10.24l-3.36-.1v-.09c.06-3.43-.05-6.38 0-9.8.05-3.01.43-6.97 1.68-9.6 1.23-2.59 3.13-4.39 4.68-6.74 2.89-4.39 3-12.63 2.87-18.16l.05-.15c1.29.4 2.46 1.36 3.08 2.76.62 1.38.72 2.99.8 4.55Z"/><path fill="#4ba6a6" d="m25.66 48.13-.05.15c.12 5.53.01 13.77-2.87 18.16-1.54 2.35-3.45 4.15-4.68 6.74-1.25 2.64-1.63 6.59-1.68 9.6-.05 3.42.06 6.38 0 9.8v.09l-3.02-.09c-.34-14.51-.6-16.82 1.5-21.85.98-2.34 2.42-4.43 3.11-6.91.71-2.55.58-5.31.81-7.98s.98-5.53 2.88-7.04c1.16-.92 2.64-1.1 3.99-.68Z"/><path fill="none" stroke="#002140" stroke-linecap="round" stroke-miterlimit="10" stroke-width=".82" d="m16.38 92.68 3.36.1c.12-2.53.2-7.71.32-10.24.11-2.45.25-5.01 1.31-7.13 1.43-2.84 4.24-4.34 5.98-6.93 2.4-3.56 2.42-8.52 2.19-13.04-.08-1.56-.18-3.16-.8-4.55a5 5 0 0 0-3.08-2.76c-1.35-.42-2.83-.24-3.99.68-1.9 1.51-2.65 4.37-2.88 7.04s-.1 5.43-.81 7.98c-.69 2.48-2.13 4.57-3.11 6.91-2.1 5.02-1.84 7.34-1.5 21.85l3.02.09h0Z"/><path fill="none" stroke="#002140" stroke-linecap="round" stroke-miterlimit="10" stroke-width=".82" d="M25.61 48.28c.12 5.53.01 13.77-2.87 18.16-1.54 2.35-3.45 4.15-4.68 6.74-1.25 2.64-1.63 6.59-1.68 9.6-.05 3.42.05 6.38 0 9.8"/><path fill="#4ed7de" d="M36.29 67.02c.18 3.18.17 6.65-1.8 9.15-1.43 1.82-3.73 2.87-4.9 4.87-.87 1.48-.98 3.28-1.08 5-.09 1.78-.16 5.41-.26 7.18l-2.75-.07v-.06c.05-2.4-.04-4.48 0-6.88.04-2.11.35-4.89 1.38-6.74 1.01-1.81 2.56-3.08 3.83-4.73 2.36-3.07 2.45-8.86 2.35-12.74v-.12c1.08.28 2.05.96 2.57 1.95.51.97.59 2.1.65 3.19Z"/><path fill="#4ba6a6" d="M33.07 62.01c.1 3.88.01 9.66-2.35 12.74-1.27 1.65-2.83 2.91-3.83 4.73-1.03 1.85-1.34 4.63-1.38 6.74-.04 2.4.04 4.48 0 6.88v.06l-2.47-.06c-.27-10.18-.49-11.8 1.23-15.32.8-1.64 1.98-3.11 2.55-4.85.59-1.79.48-3.72.67-5.6s.8-3.88 2.36-4.94c.94-.64 2.14-.77 3.23-.49v.12Z"/><path fill="none" stroke="#002140" stroke-linecap="round" stroke-miterlimit="10" stroke-width=".82" d="m25.5 93.15 2.75.07c.1-1.78.17-5.41.26-7.18.09-1.72.21-3.52 1.08-5 1.17-2 3.47-3.05 4.9-4.87 1.97-2.5 1.98-5.97 1.8-9.15-.06-1.09-.15-2.22-.65-3.19-.52-.99-1.49-1.67-2.56-1.95-1.09-.28-2.3-.15-3.23.49-1.56 1.06-2.17 3.06-2.36 4.94s-.08 3.81-.67 5.6c-.57 1.74-1.75 3.2-2.55 4.85-1.72 3.52-1.51 5.15-1.23 15.32l2.47.06h0Z"/><path fill="none" stroke="#002140" stroke-linecap="round" stroke-miterlimit="10" stroke-width=".82" d="M33.07 62.01c.1 3.88.01 9.66-2.35 12.74-1.27 1.65-2.83 2.91-3.83 4.73-1.03 1.85-1.34 4.63-1.38 6.74-.04 2.4.04 4.48 0 6.88"/><path fill="#4ed7de" d="M20.59 51.61c.26 5.34.24 11.17-2.49 15.37-1.99 3.05-5.18 4.82-6.8 8.16-1.21 2.5-1.37 5.51-1.5 8.4-.13 2.99-.23 9.08-.36 12.06l-3.82-.12v-.11c.07-4.03-.06-7.51 0-11.55.05-3.55.49-8.21 1.91-11.31 1.4-3.05 3.56-5.18 5.32-7.94 3.28-5.16 3.41-14.87 3.27-21.38l.06-.18c1.47.48 2.8 1.6 3.51 3.25.7 1.63.82 3.52.91 5.35Z"/><path fill="#4ba6a6" d="m16.17 43.01-.06.18c.14 6.51.01 16.22-3.27 21.38-1.76 2.76-3.92 4.89-5.32 7.94-1.43 3.1-1.86 7.76-1.91 11.31-.06 4.03.06 7.51 0 11.55v.11l-3.43-.11c-.38-17.08-.68-19.81 1.7-25.72 1.12-2.76 2.76-5.22 3.54-8.14.81-3.01.66-6.25.92-9.4.27-3.15 1.11-6.51 3.28-8.3 1.32-1.08 3.01-1.3 4.54-.8Z"/><path fill="none" stroke="#002140" stroke-linecap="round" stroke-miterlimit="10" stroke-width=".82" d="m5.61 95.48 3.82.12c.13-2.98.23-9.08.36-12.06.13-2.89.29-5.9 1.5-8.4 1.62-3.35 4.82-5.12 6.8-8.16 2.73-4.19 2.75-10.03 2.49-15.37-.09-1.83-.21-3.72-.91-5.35-.71-1.64-2.03-2.77-3.51-3.25-1.53-.5-3.22-.29-4.54.8-2.16 1.78-3.01 5.14-3.28 8.3-.27 3.15-.11 6.39-.92 9.4-.79 2.92-2.43 5.38-3.54 8.14-2.39 5.92-2.09 8.64-1.7 25.72z"/><path fill="none" stroke="#002140" stroke-linecap="round" stroke-miterlimit="10" stroke-width=".82" d="M16.12 43.19c.14 6.51.01 16.22-3.27 21.38-1.76 2.76-3.92 4.89-5.32 7.94-1.43 3.1-1.86 7.76-1.91 11.31-.06 4.03.06 7.51 0 11.55"/><path fill="#e4bc07" d="M26.5 89.79c4.13 0 3.1 4.74 3.1 4.74l-2.89 17.33s-.62 2.89-4.54 2.89h-9.51c-3.92 0-4.54-2.89-4.54-2.89L5.23 94.53s-1.03-4.74 3.1-4.74h18.18Z"/><path fill="none" stroke="#002140" stroke-linecap="round" stroke-miterlimit="10" stroke-width=".82" d="M17.84 114.75h4.33c3.92 0 4.54-2.89 4.54-2.89l2.89-17.33s1.03-4.74-3.1-4.74h-8.48m-1.03 24.96h-4.33c-3.92 0-4.54-2.89-4.54-2.89L5.23 94.53s-1.03-4.74 3.1-4.74h9.69"/><path fill="#085239" d="m61.36 140.56-1.76-3.08-.21-.37c-.73-1.28-2.6-2.33-4.18-2.33h-4.85c-1.57 0-2.25 1.04-1.52 2.33l.34.6 1.59 2.8.33.57c.73 1.28 2.6 2.33 4.17 2.33h4.86c1.57 0 2.25-1.04 1.52-2.33l-.3-.52Zm-3.14-14.65 9.12 19.56H49.01l-9.12-19.56h5.98c-.16.76-.65 1.45-1.31 1.84l10.97-.06c.43-.48.66-1.13.67-1.79h2.01Zm-.51 6.56-.93-1.99-.35-.74H45.62l1.11 2.37.17.37h10.8Z"/><path fill="#008c59" d="M61.66 141.09c.73 1.28.05 2.33-1.52 2.33h-.77v-.22l-1.45-2.71 3.44.08.3.53Zm-.3-.53-3.44-.08-1.58-2.95h3.17l.09-.05z"/><path fill="#008c59" d="m59.39 137.12.21.37-.09.05h-3.18l-1.41-2.63v-.11h.29c1.57 0 3.44 1.04 4.18 2.33Zm-.02 6.08v.22h-3.42v-.22l-1.59-2.79 3.56.08z"/><path fill="#008c59" d="m57.92 140.48-3.56-.08-1.64-2.87h3.62z"/><path fill="#8eecc4" d="m56.78 130.48.93 1.99h-2.36l1.33-1.95.1-.05Z"/><path fill="#8eecc4" d="m56.78 130.48-.1.05-1.33 1.95h-4.82v-.2l2.16-2.36v-.17h3.75l.34.74Z"/><path fill="#008c59" d="M56.34 137.54h-3.62l-1.44-2.52v-.22h3.65v.11z"/><path fill="#fffaf0" d="m45.68 123.17 8.35-.03c.93.2 1.74.93 2.04 1.84.1.3.14.61.13.92 0 .66-.24 1.31-.67 1.79l-10.97.06a2.88 2.88 0 0 0 1.31-1.83c.08-.37.08-.77-.01-1.14-.19-.71-.75-1.31-1.42-1.58v-.02h1.25Z"/><path fill="#008c59" d="M55.95 143.2v.22h-.67c-1.57 0-3.44-1.04-4.17-2.33l-.33-.57.31-.18 3.26.07 1.59 2.79Z"/><path fill="#008c59" d="m52.72 137.54 1.64 2.87-3.27-.07-.31.18-1.59-2.8.31-.18z"/><path fill="#008c59" d="M52.72 137.54H49.5l-.31.18-.34-.6c-.73-1.28-.05-2.33 1.52-2.33h.92v.22l1.44 2.52Z"/><path fill="#8eecc4" d="M52.69 129.74v.17l-2.16 2.36v.2h-3.62l-.17-.37.31-.14 2.05-2.15v-.07z"/><path fill="#8eecc4" d="M49.1 129.74v.07l-2.05 2.15-.31.14-1.11-2.36h3.46Z"/><path fill="#002e22" d="M49.01 145.46v.41h-.46l-9.16-15.18v-2.78l.01-2h.49l9.12 19.56Z"/><path fill="#fffaf0" d="M45.85 124.78c.1.37.1.77.01 1.14h-.05l-4.06-.01v-.16c-.46-1.06.32-2.43 1.45-2.68.41-.09.84-.03 1.22.12.67.28 1.23.87 1.42 1.58Z"/><path fill="#fffaf0" d="M45.68 123.17h-1.24v.03c-.39-.16-.81-.21-1.22-.12-1.13.24-1.91 1.61-1.45 2.68v.16h-2.35v2h-.05c-.54-.05-1.12.03-1.65-.1-.56-.14-1.11-.32-1.57-.65-.69-.49-1.14-1.25-1.46-2.03-.65-1.57-.89-3.46-.71-5.14.44.49.88 1.1 1.32 1.59.43-.54.74-.9 1.19-1.59.32.63.78 1.15 1.18 1.72.48-.54.82-1.07 1.18-1.72.37.56.87 1.1 1.28 1.72.51-.67.77-1.03 1.2-1.72.31.5.62 1.09.93 1.59.41-.58.64-.84 1.05-1.42.31.72.53.93.89 1.54.34.58.85 1.28 1.49 1.46Z"/><path fill="none" stroke="#002140" stroke-linecap="round" stroke-miterlimit="10" stroke-width=".82" d="M56.38 125.91h1.84l9.12 19.56H49.01l-9.12-19.56h5.92"/><path fill="none" stroke="#002140" stroke-linecap="round" stroke-miterlimit="10" stroke-width=".82" d="M39.4 125.91v2l-.01 2.78 9.16 15.18h19.01"/><path fill="none" stroke="#002140" stroke-linecap="round" stroke-miterlimit="10" stroke-width=".82" d="m61.36 140.56.3.52c.73 1.28.05 2.33-1.52 2.33h-4.86c-1.57 0-3.44-1.04-4.17-2.33l-.33-.57-1.59-2.8-.34-.6c-.73-1.28-.05-2.33 1.52-2.33h4.85c1.57 0 3.44 1.04 4.18 2.33l.21.37 1.76 3.08h0Z"/><path fill="none" stroke="#002140" stroke-linecap="round" stroke-miterlimit="10" stroke-width=".82" d="m51.28 135.02 1.44 2.52 1.64 2.87 1.59 2.79m-1.02-8.29 1.41 2.63 1.58 2.95 1.45 2.71m.14-5.66H49.5"/><path fill="none" stroke="#002140" stroke-linecap="round" stroke-miterlimit="10" stroke-width=".82" d="M61.37 140.56h-.01l-3.44-.08-3.56-.08-3.27-.07m5.69-9.85.93 1.99h-10.8l-.17-.37-1.11-2.36h10.81zm-15.02-4.73c-.46-1.06.32-2.43 1.45-2.68.41-.09.84-.03 1.22.12.67.28 1.23.87 1.42 1.58.1.37.1.77.01 1.14a2.88 2.88 0 0 1-1.31 1.83l10.97-.06c.43-.48.66-1.13.67-1.79 0-.31-.04-.62-.13-.92-.3-.91-1.11-1.64-2.04-1.84l-8.35.03h-1.24"/><path fill="none" stroke="#002140" stroke-linecap="round" stroke-miterlimit="10" stroke-width=".82" d="M39.35 127.91c-.54-.05-1.12.03-1.65-.1-.56-.13-1.11-.32-1.57-.65-.69-.49-1.14-1.25-1.46-2.03-.65-1.57-.89-3.46-.71-5.14.44.49.88 1.11 1.32 1.59.43-.54.74-.9 1.19-1.59.32.63.78 1.15 1.18 1.72.48-.54.82-1.07 1.18-1.72.37.56.87 1.1 1.28 1.72.51-.67.77-1.03 1.2-1.72.31.5.62 1.09.93 1.59.41-.58.64-.84 1.05-1.42.31.72.53.93.89 1.54.34.58.85 1.28 1.49 1.46.03.01.06.02.08.02m3.35 6.62-2.05 2.15m5.64-2.04-2.16 2.36m2.98-2.26-1.84 2.15m5.01-1.64-1.33 1.95"/><path fill="#28736d" d="M148.27 133.26v7.26h-4.95v-7.04l-9.47-22.9h4.95z"/><path fill="#134038" d="M143.32 133.48v7.04h-.51l-1.59-2.64v-5.51l-7.82-18.28h-.08l.03-3.52h.51l9.47 22.9Z"/><path fill="#4ba6a6" d="M141.21 137.88v.22H79.33v-4.85l-.32-.75.32-.13h61.88z"/><path fill="#4ba6a6" d="M133.31 114.1h.09l7.82 18.28H79.34l-.32.13-7.7-18.44.19-.08 14.15.03c-.02.35.02.6.02.6s-.18 1.8-.07 1.69h41.84v-1.98s.02-.1.03-.26l.41.03zv.01Zm-10.78 16.16h12.68l-3.03-6.5H106.4l3.03 6.5zm10.53-10.74v-.07c0-.7-1.5-1.27-3.36-1.27s-3.36.57-3.36 1.27v.07h-.03l.07 1.39c.27.6 1.65 1.05 3.31 1.05s3.06-.46 3.32-1.06l.04-1.39Zm-12.48 0v-.07c0-.7-1.5-1.27-3.36-1.27s-3.36.57-3.36 1.27v.07h-.03l.07 1.39c.27.6 1.65 1.05 3.31 1.05s3.06-.46 3.32-1.06l.04-1.39Zm-12.47 0v-.07c0-.7-1.5-1.27-3.36-1.27s-3.36.57-3.36 1.27v.07h-.03l.08 1.39c.27.6 1.65 1.05 3.31 1.05s3.06-.46 3.32-1.06l.04-1.39Zm-5.33 10.1-1.7-3.65-1.79-3.83-1.75-3.74H75.67l1.5 3.23.24.51 1.81 3.89 1.67 3.6h21.88Z"/><path fill="#f68dfe" d="m132.18 123.76 3.03 6.5h-6.32v-.09l-2.88-6.18v-.23h6.18Z"/><path fill="#fbccff" d="M133.06 119.46v.07c-.09.67-1.56 1.2-3.36 1.2s-3.25-.53-3.35-1.19v-.08c0-.7 1.5-1.27 3.36-1.27s3.36.57 3.36 1.27Z"/><path fill="#f68dfe" d="m133.06 119.52-.04 1.39c-.26.6-1.64 1.06-3.32 1.06s-3.04-.46-3.31-1.05l-.07-1.38h.03c.1.66 1.56 1.18 3.35 1.18s3.27-.53 3.36-1.2m-4.18 10.65v.09h-6.35l-2.97-6.38v-.12H126v.23z"/><path fill="#fbccff" d="M124.07 111.02c3.35 0 3.46 2.27 3.41 3.05-.01.16-.03.26-.03.26v1.98h-3.74v-1.98s.66-3.3-3.38-3.3h3.74Z"/><path fill="#f68dfe" d="M120.33 111.02c4.03 0 3.38 3.3 3.38 3.3v1.98h-3.74v-1.98s.66-3.3-3.38-3.3zm-.77 12.87 2.97 6.38h-6.41v-.04l-2.93-6.28v-.18h6.37z"/><path fill="#fbccff" d="M120.59 119.46v.07c-.09.67-1.56 1.2-3.36 1.2s-3.25-.53-3.35-1.19v-.08c0-.7 1.5-1.27 3.36-1.27s3.36.57 3.36 1.27Z"/><path fill="#f68dfe" d="m120.58 119.52-.04 1.39c-.26.6-1.64 1.06-3.32 1.06s-3.04-.46-3.31-1.05l-.07-1.38h.03c.1.66 1.56 1.18 3.35 1.18s3.27-.53 3.36-1.2"/><path fill="#fbccff" d="M116.59 111.02c4.04 0 3.38 3.3 3.38 3.3v1.98h-3.74v-1.98s.66-3.3-3.38-3.3z"/><path fill="#f68dfe" d="M112.84 111.02c4.03 0 3.38 3.3 3.38 3.3v1.98h-3.74v-1.98s.66-3.3-3.38-3.3zm3.28 19.21v.04h-6.69l-3.03-6.5h6.79v.18z"/><path fill="#fbccff" d="M109.1 111.02c4.04 0 3.38 3.3 3.38 3.3v1.98h-3.74v-1.98s.66-3.3-3.38-3.3z"/><path fill="#f68dfe" d="M105.36 111.02c4.03 0 3.38 3.3 3.38 3.3v1.98H105v-1.98s.66-3.3-3.38-3.3z"/><path fill="#fbccff" d="M108.11 119.46v.07c-.09.67-1.57 1.2-3.36 1.2s-3.25-.53-3.35-1.19v-.08c0-.7 1.5-1.27 3.36-1.27s3.36.57 3.36 1.27Z"/><path fill="#f68dfe" d="m108.11 119.52-.04 1.39c-.26.6-1.64 1.06-3.32 1.06s-3.04-.46-3.31-1.05l-.07-1.38h.03c.1.66 1.56 1.18 3.35 1.18s3.27-.53 3.36-1.2"/><path fill="#fbccff" d="M101.61 111.02c4.04 0 3.38 3.3 3.38 3.3v1.98h-3.74v-1.98s.66-3.3-3.38-3.3z"/><path fill="#f9b5fe" d="m101.08 125.97 1.7 3.65h-3.94v-.51l-1.44-3.08h3.56z"/><path fill="#f68dfe" d="M97.87 111.02c4.04 0 3.38 3.3 3.38 3.3v1.98h-3.74v-1.98s.66-3.3-3.38-3.3z"/><path fill="#f9b5fe" d="m99.29 122.14 1.79 3.83-.12.06H97.4l-1.81-3.89h3.71Zm0 0h-3.71L94 118.76v-.37h3.54l1.75 3.74Z"/><path fill="#f9b5fe" d="M98.84 129.11v.51h-3.57v-.22l-1.58-3.38h3.71l1.44 3.08Z"/><path fill="#fbccff" d="M94.13 111.02c4.04 0 3.38 3.3 3.38 3.3v1.98h-4.05v-1.98s.66-3.3-3.38-3.3z"/><path fill="#f9b5fe" d="m95.58 122.14 1.81 3.89h-3.71l-1.81-3.89z"/><path fill="#f9b5fe" d="M95.58 122.14h-3.71l-1.61-3.45v-.29H94v.37l1.58 3.38Zm-.32 7.26v.22h-3.71v-.22l-1.58-3.38h3.71z"/><path fill="#f9b5fe" d="m91.88 122.14 1.81 3.89h-3.71l-1.81-3.89z"/><path fill="#f68dfe" d="M85.67 114.01c.05-1.02.59-3 3.91-3h.49c4.04 0 3.38 3.3 3.38 3.3v1.98h-7.84c-.11.11.07-1.69.07-1.69s-.04-.24-.02-.6Z"/><path fill="#f9b5fe" d="m90.27 118.69 1.61 3.45h-3.71l-1.71-3.67v-.07h3.81zm1.29 10.71v.22h-3.67v-.15l-1.61-3.45h3.71l1.58 3.38Z"/><path fill="#f9b5fe" d="m88.17 122.14 1.81 3.89h-3.71l-1.81-3.89zm-1.71-3.68 1.71 3.67h-3.71l-1.64-3.52v-.22h3.64zm1.43 11.02v.15h-3.74v-.22l-1.58-3.38h3.71z"/><path fill="#f9b5fe" d="m84.46 122.14 1.81 3.89h-3.71l-1.81-3.89zm0 0h-3.71l-1.61-3.45v-.29h3.67v.22l1.64 3.52Z"/><path fill="#f9b5fe" d="M84.15 129.4v.22h-3.24l-1.67-3.6h3.34l1.58 3.38Z"/><path fill="#f9b5fe" d="m80.76 122.14 1.81 3.89h-3.34l-1.82-3.89h3.34Zm-1.61-3.45 1.61 3.45h-3.34l-.24-.52-1.5-3.23h3.47v.29Z"/><path fill="#28736d" d="M79.34 138.1v2.42h-4.95v-7.04l-9.47-22.9h4.95l1.46 3.49 7.69 18.44.32.75v4.85Z"/><path fill="#28736d" d="M74.38 133.48v7.04h-.51l-9.58-15.85.11-14.09h.51z"/><path fill="none" stroke="#002140" stroke-linecap="round" stroke-miterlimit="10" stroke-width=".82" d="M64.91 110.58h4.95l1.46 3.49 7.69 18.44.32.75v7.26h-4.95v-7.04zm-.51 0-.11 14.09 9.58 15.85m59.98-29.94h4.95l9.47 22.68v7.26h-4.95v-7.04zm7.21 27.05.15.25 1.59 2.64m-9.46-29.94-.03 3.52v.08"/><path fill="none" stroke="#002140" stroke-linecap="round" stroke-miterlimit="10" stroke-width=".82" d="M79.66 138.1h61.55v-5.73H79.33m48.56-18.28h5.5l7.82 18.28m-69.69-18.38 14.15.03h.09m40.24 9.74h6.18l3.03 6.5h-25.77l-3.03-6.5h19.6Zm-9.88 6.47-2.93-6.28"/><path fill="none" stroke="#002140" stroke-linecap="round" stroke-miterlimit="10" stroke-width=".82" d="m119.56 123.89 2.97 6.38v.02m3.47-6.3 2.88 6.18m-20.77-10.65c-.09.67-1.56 1.2-3.36 1.2s-3.25-.53-3.35-1.19v-.08c0-.7 1.5-1.27 3.36-1.27s3.36.57 3.36 1.27"/><path fill="none" stroke="#002140" stroke-linecap="round" stroke-miterlimit="10" stroke-width=".82" d="m101.36 119.54.07 1.38c.27.6 1.65 1.05 3.31 1.05s3.06-.46 3.32-1.06l.04-1.39v-.07m12.48.07c-.09.67-1.56 1.2-3.36 1.2s-3.25-.53-3.35-1.19v-.08c0-.7 1.5-1.27 3.36-1.27s3.36.57 3.36 1.27"/><path fill="none" stroke="#002140" stroke-linecap="round" stroke-miterlimit="10" stroke-width=".82" d="m113.84 119.54.07 1.38c.27.6 1.65 1.05 3.31 1.05s3.06-.46 3.32-1.06l.04-1.39v-.07m12.48.07c-.09.67-1.56 1.2-3.36 1.2s-3.25-.53-3.35-1.19v-.08c0-.7 1.5-1.27 3.36-1.27s3.36.57 3.36 1.27"/><path fill="none" stroke="#002140" stroke-linecap="round" stroke-miterlimit="10" stroke-width=".82" d="m126.32 119.54.07 1.38c.27.6 1.65 1.05 3.31 1.05s3.06-.46 3.32-1.06l.04-1.39v-.07m-33.77 2.69-1.75-3.74H75.67l1.5 3.23.24.52 1.82 3.89 1.67 3.6h21.87l-1.7-3.65-1.79-3.83Zm0 0H77.42m1.81 3.89h21.72"/><path fill="none" stroke="#002140" stroke-linecap="round" stroke-miterlimit="10" stroke-width=".82" d="m79.15 118.69 1.61 3.45 1.81 3.89 1.58 3.38m-1.33-10.79 1.64 3.52 1.81 3.89 1.61 3.45m-1.42-11.02 1.71 3.67 1.81 3.89 1.58 3.38m-1.29-10.71 1.61 3.45 1.81 3.89 1.58 3.38m-1.26-10.65 1.58 3.38 1.81 3.89 1.44 3.08m-13.17-15.1c-.02.35.02.6.02.6s-.18 1.8-.07 1.69h41.84v-1.98s.02-.1.03-.26c.06-.78-.06-3.05-3.41-3.05h-34.5c-3.32 0-3.86 1.97-3.91 3Z"/><path fill="none" stroke="#002140" stroke-linecap="round" stroke-miterlimit="10" stroke-width=".82" d="M123.7 116.3v-1.98s.66-3.3-3.38-3.3m-.36 5.28v-1.98s.66-3.3-3.38-3.3m-.36 5.28v-1.98s.66-3.3-3.38-3.3m-.37 5.28v-1.98s.66-3.3-3.38-3.3m-.36 5.28v-1.98s.66-3.3-3.38-3.3m-.36 5.28v-1.98s.66-3.3-3.38-3.3m-.36 5.28v-1.98s.66-3.3-3.38-3.3m-.37 5.28v-1.98s.66-3.3-3.38-3.3m-.67 5.28v-1.98s.66-3.3-3.38-3.3"/><path fill="#fee45e" d="M141.12 94.5h.46c0 1.86-.76 3.53-1.97 4.74l-1.5-1.5c.83-.83 1.35-1.98 1.35-3.24z"/><path fill="#fee45e" d="M139.63 89.74a6.73 6.73 0 0 1 1.94 4.74v.04h-.46l-1.66-.01v-.02c0-1.26-.51-2.41-1.32-3.24l1.38-1.38.12-.11Z"/><path fill="#00b268" d="M139.61 99.24a6.72 6.72 0 0 0 1.97-4.73v-.04c0-1.84-.74-3.52-1.94-4.74a6.72 6.72 0 0 0-4.76-2.01h-.03a6.745 6.745 0 0 0-6.74 6.74v.03c0 1.86.77 3.55 2 4.77a6.7 6.7 0 0 0 4.74 1.95h.04c1.85 0 3.52-.76 4.73-1.98Zm-17.26 0a6.72 6.72 0 0 0 1.97-4.73v-.04c0-1.84-.74-3.52-1.94-4.74a6.72 6.72 0 0 0-4.76-2.01h-.03a6.745 6.745 0 0 0-6.74 6.74v.03c0 1.86.77 3.55 2 4.77a6.7 6.7 0 0 0 4.74 1.95h.04c1.85 0 3.52-.76 4.73-1.98ZM91.89 77.1H77.9a3.31 3.31 0 0 0-3.3 3.3v17.15c.02 1.79 1.5 3.25 3.3 3.25h26.14c1.81 0 3.3-1.48 3.3-3.3V80.39c0-1.81-1.49-3.3-3.3-3.3H91.9Zm19.65 4.47c0 1.79 1.46 3.25 3.25 3.25h22.54c1.79 0 3.25-1.46 3.25-3.25v-1.22c0-.28-.04-.55-.1-.81a3.26 3.26 0 0 0-3.15-2.44h-22.54a3.27 3.27 0 0 0-3.19 2.63q-.06.3-.06.63v1.22Zm27.67 24.35H74.26c-3.52 0-6.4-2.88-6.4-6.4V78.29c0-3.52 2.88-6.4 6.4-6.4h65.18c3.41.12 6.17 2.95 6.17 6.4v21.23c0 3.52-2.88 6.4-6.4 6.4"/><path fill="#fee45e" d="M139.61 99.24a6.68 6.68 0 0 1-4.73 1.98v-2.13c1.27 0 2.41-.53 3.24-1.36l1.5 1.5Zm-4.74-11.51c1.86 0 3.55.77 4.76 2.01l-.12.11-1.38 1.38a4.64 4.64 0 0 0-3.26-1.38zm4.59 6.75v.02h-2.28v-.02c0-.63-.25-1.2-.66-1.63l1.61-1.61c.82.84 1.32 1.98 1.32 3.24Z"/><path fill="#fee45e" d="M137.18 94.5h2.28c0 1.27-.52 2.41-1.35 3.24l-1.61-1.61c.42-.42.68-1 .68-1.63m.95-3.26-1.61 1.61c-.42-.43-1-.7-1.65-.71v-2.29c1.28 0 2.43.54 3.26 1.38Zm-.02 6.5c-.83.83-1.98 1.35-3.24 1.36v-2.28c.64 0 1.21-.26 1.63-.68l1.61 1.61Zm-.93-3.24h-2.31l1.65-1.65c.41.42.66 1 .66 1.63z"/><path fill="#fee45e" d="M134.87 94.5h2.31c0 .63-.26 1.21-.68 1.63zm0-2.36c.65 0 1.23.28 1.65.71l-1.65 1.65zm1.62 3.99c-.42.42-.99.68-1.63.69v-2.31l1.63 1.63Zm-1.65 5.09c-1.85 0-3.52-.74-4.74-1.95h.01l1.49-1.5c.83.82 1.98 1.33 3.24 1.33h.03v2.12z"/><path fill="#fee45e" d="M134.87 96.82v2.28h-.03c-1.26 0-2.41-.51-3.24-1.33l1.61-1.61c.42.41.99.66 1.63.66z"/><path fill="#fee45e" d="M134.87 94.5v2.31h-.03c-.63 0-1.21-.25-1.63-.66l1.66-1.66Z"/><path fill="#fee45e" d="M134.87 92.14v2.36l-1.68-1.68c.42-.42 1-.68 1.65-.68z"/><path fill="#fee45e" d="M134.87 89.85v2.29h-.03c-.65 0-1.23.26-1.65.68l-1.61-1.61c.84-.84 1.99-1.35 3.26-1.35h.03Z"/><path fill="#fee45e" d="M130.07 89.71a6.7 6.7 0 0 1 4.76-1.97h.03v2.12h-.03c-1.28 0-2.43.52-3.26 1.35l-1.46-1.46zm4.8 4.79-1.66 1.66c-.43-.42-.71-1.01-.72-1.66h2.37Z"/><path fill="#002e22" d="M133.18 63.07c1.08 0 1.96-.88 1.96-1.96s-.88-1.96-1.96-1.96-1.96.88-1.96 1.96.88 1.96 1.96 1.96"/><path fill="#fee45e" d="M132.49 94.5c0 .65.28 1.24.72 1.66l-1.61 1.61a4.56 4.56 0 0 1-1.38-3.27h2.28Zm.69-1.68c-.43.43-.69 1.01-.69 1.66v.02h-2.28v-.02c0-1.28.52-2.43 1.36-3.27z"/><path fill="#fee45e" d="m133.18 92.82 1.68 1.68h-2.37v-.02c0-.65.26-1.23.69-1.66m-3.07 6.44h-.01c-1.23-1.2-2-2.89-2-4.76h2.12c0 1.28.53 2.44 1.38 3.27zm-2.02-4.78c0-1.86.76-3.55 1.98-4.77l.03.04 1.46 1.46c-.84.84-1.35 1.99-1.35 3.27v.02h-2.12z"/><path fill="#002e22" d="M127.02 63.07c1.08 0 1.96-.88 1.96-1.96s-.88-1.96-1.96-1.96-1.96.88-1.96 1.96.88 1.96 1.96 1.96"/><path fill="#fee45e" d="M123.86 94.5h.46c0 1.86-.76 3.53-1.97 4.74l-1.5-1.5c.83-.83 1.34-1.98 1.35-3.24z"/><path fill="#fee45e" d="M122.38 89.74a6.73 6.73 0 0 1 1.94 4.74v.04h-.46l-1.66-.01v-.02c0-1.26-.51-2.41-1.33-3.24l1.38-1.38.12-.11Zm-.03 9.5a6.68 6.68 0 0 1-4.73 1.98v-2.13c1.27 0 2.41-.53 3.24-1.36l1.5 1.5Z"/><path fill="#fee45e" d="M117.62 87.73c1.86 0 3.55.77 4.76 2.01l-.12.11-1.38 1.38a4.64 4.64 0 0 0-3.27-1.38v-2.12Zm4.58 6.77h-2.28v-.02c0-.63-.25-1.2-.66-1.63l1.61-1.61c.82.84 1.33 1.98 1.33 3.24zm-2.27 0h2.28c0 1.27-.52 2.41-1.35 3.24l-1.61-1.61c.42-.42.68-1 .69-1.63Z"/><path fill="#fee45e" d="m120.88 91.24-1.61 1.61c-.42-.43-1-.7-1.65-.71v-2.29c1.28 0 2.44.54 3.27 1.38Zm-.03 6.5c-.83.83-1.98 1.35-3.24 1.36v-2.28c.64 0 1.21-.26 1.63-.68l1.61 1.61Zm-3.24-3.24 1.65-1.65c.41.42.66 1 .66 1.63v.02zm0 0h2.31c0 .63-.26 1.21-.69 1.63l-1.63-1.63Z"/><path fill="#fee45e" d="M117.61 92.14c.65 0 1.23.28 1.65.71l-1.65 1.65zm1.63 3.99c-.42.42-.99.68-1.63.69v-2.31l1.63 1.63Zm-1.63 4.9v.2h-.03c-1.85 0-3.52-.74-4.74-1.95h.01l1.49-1.5c.83.82 1.98 1.33 3.24 1.33h.03v1.93Z"/><path fill="#fee45e" d="M117.61 96.82v2.28h-.03c-1.26 0-2.4-.51-3.24-1.33l1.61-1.61c.42.41.99.66 1.63.66z"/><path fill="#fee45e" d="M117.61 94.5v2.31h-.03c-.64 0-1.21-.25-1.63-.66l1.66-1.66Z"/><path fill="#fee45e" d="M117.61 92.14v2.36l-1.68-1.68c.42-.42 1-.68 1.65-.68z"/><path fill="#fee45e" d="M117.61 89.85v2.29h-.03c-.65 0-1.23.26-1.65.68l-1.61-1.61a4.57 4.57 0 0 1 3.26-1.35h.03Z"/><path fill="#fee45e" d="M117.61 87.86v1.99h-.03c-1.28 0-2.43.52-3.26 1.35l-1.46-1.46-.04-.04a6.7 6.7 0 0 1 4.76-1.97h.03zm0 6.64-1.66 1.66c-.43-.42-.71-1.01-.71-1.66z"/><path fill="#fee45e" d="M115.24 94.5c0 .65.28 1.24.71 1.66l-1.61 1.61a4.56 4.56 0 0 1-1.38-3.27zm.69-1.68c-.43.43-.69 1.01-.69 1.66v.02h-2.28v-.02c0-1.28.52-2.43 1.36-3.27z"/><path fill="#fee45e" d="M115.24 94.48c0-.65.26-1.23.69-1.66l1.68 1.68h-2.37zm-2.4 4.79c-1.23-1.21-2-2.9-2-4.77h2.12c0 1.28.53 2.44 1.38 3.27l-1.49 1.49h-.01Zm.02-9.53 1.46 1.46c-.84.84-1.36 1.99-1.36 3.27v.02h-2.12v-.02c0-1.86.76-3.55 1.98-4.77z"/><path fill="#085239" d="M140.07 79.71c-1.34 0-1.02 2.5-2.05 2.5h-.42c-1.74 0-.76-2.5-2.61-2.5s-1.42 2.5-2.83 2.5h-.42c-1.74 0-.76-2.5-2.61-2.5s-1.42 2.5-2.83 2.5h-.42c-1.74 0-.76-2.5-2.61-2.5s-1.42 2.5-2.83 2.5h-.42c-1.74 0-.76-2.5-2.61-2.5s-1.42 2.5-2.83 2.5h-.42c-1.73 0-1-2.09-2.39-2.45l-.19-.04a3.26 3.26 0 0 1 3.19-2.63h22.54c1.51 0 2.78 1.04 3.15 2.44l-.41.17Z"/><path fill="#085239" d="M111.54 81.57v-1.22q0-.315.06-.63l.19.04c1.4.36.66 2.45 2.39 2.45h.42c1.41 0 .98-2.5 2.83-2.5s.87 2.5 2.61 2.5h.42c1.41 0 .98-2.5 2.83-2.5s.87 2.5 2.61 2.5h.42c1.41 0 .98-2.5 2.83-2.5s.87 2.5 2.61 2.5h.42c1.41 0 .98-2.5 2.83-2.5s.87 2.5 2.61 2.5h.42c1.02 0 .71-2.5 2.04-2.5l.41-.17c.07.26.1.53.1.81v1.22c0 1.79-1.46 3.25-3.25 3.25H114.8c-1.79 0-3.25-1.46-3.25-3.25h.01Z"/><path fill="#002e22" d="M107.34 88.08v9.43c0 1.81-1.49 3.3-3.3 3.3h-7.58l10.77-12.72h.11Z"/><path fill="#b1f2d6" d="M91.67 100.81 107.22 82h.11v6.09h-.11l-10.76 12.72z"/><path fill="#085239" d="M139.45 71.89H91.68v-.22s-.21-4.02 4.46-4.02H135c4.67 0 4.46 4.02 4.46 4.02v.23Z"/><path fill="#002e22" d="M74.6 92.11V80.4c0-1.81 1.48-3.3 3.3-3.3H87v.22L74.71 92.11zm32.62-10.12L91.67 100.8H77.9c-1.8 0-3.28-1.46-3.3-3.25h.43l16.86-20.23v-.22h12.14c1.81 0 3.3 1.48 3.3 3.3v1.59z"/><path fill="#b1f2d6" d="M75.04 97.54h-.43V92.1h.11l12.29-14.79v-.22h4.89v.22z"/><path fill="none" stroke="#002140" stroke-linecap="round" stroke-miterlimit="10" stroke-width=".82" d="M139.45 71.89c3.41.12 6.17 2.95 6.17 6.4v21.23c0 3.52-2.88 6.4-6.4 6.4H74.27c-3.52 0-6.4-2.88-6.4-6.4V78.29c0-3.52 2.88-6.4 6.4-6.4z"/><path fill="none" stroke="#002140" stroke-linecap="round" stroke-miterlimit="10" stroke-width=".82" d="M107.34 88.08v9.43c0 1.81-1.49 3.3-3.3 3.3H77.9c-1.8 0-3.28-1.46-3.3-3.25V80.41c0-1.81 1.48-3.3 3.3-3.3h26.14c1.81 0 3.3 1.48 3.3 3.3v7.69Zm15.04 1.66a6.73 6.73 0 0 1 1.94 4.74v.04c0 1.84-.76 3.52-1.97 4.73a6.68 6.68 0 0 1-4.73 1.98h-.04c-1.85 0-3.52-.74-4.74-1.95-1.23-1.21-2-2.9-2-4.77v-.03c0-1.86.76-3.55 1.98-4.77a6.7 6.7 0 0 1 4.76-1.97h.03c1.86 0 3.55.77 4.76 2.01h0Z"/><path fill="none" stroke="#002140" stroke-linecap="round" stroke-miterlimit="10" stroke-width=".55" d="M114.32 91.21c.84-.84 1.99-1.35 3.26-1.35h.03c1.28 0 2.43.54 3.27 1.38.82.84 1.33 1.98 1.33 3.24v.02c0 1.27-.52 2.41-1.35 3.24s-1.98 1.35-3.24 1.36h-.03c-1.26 0-2.41-.51-3.24-1.33a4.56 4.56 0 0 1-1.38-3.27v-.02c0-1.28.52-2.43 1.36-3.27"/><path fill="none" stroke="#002140" stroke-linecap="round" stroke-miterlimit="10" stroke-width=".55" d="M119.24 96.13c-.42.42-.99.68-1.63.68h-.03c-.64 0-1.21-.25-1.63-.66-.43-.42-.71-1.01-.71-1.66v-.02c0-.65.26-1.23.69-1.66.42-.42 1-.68 1.65-.68h.03c.65 0 1.23.28 1.65.71.41.42.66.99.66 1.63v.02c0 .63-.26 1.21-.69 1.63m-8.31-1.62h12.94m-6.25 6.53V87.87"/><path fill="none" stroke="#002140" stroke-linecap="round" stroke-miterlimit="10" stroke-width=".55" d="m112.86 99.26 1.49-1.49 1.61-1.61 1.66-1.66 1.65-1.65 1.61-1.61 1.38-1.39"/><path fill="none" stroke="#002140" stroke-linecap="round" stroke-miterlimit="10" stroke-width=".55" d="m122.37 99.26-.02-.02-1.5-1.5-1.61-1.61h0l-1.63-1.63-1.68-1.68-1.61-1.61h0l-1.46-1.47"/><path fill="none" stroke="#002140" stroke-linecap="round" stroke-miterlimit="10" stroke-width=".82" d="M139.63 89.74a6.73 6.73 0 0 1 1.94 4.74v.04c0 1.84-.76 3.52-1.97 4.73a6.68 6.68 0 0 1-4.73 1.98h-.04c-1.85 0-3.52-.74-4.74-1.95-1.23-1.21-2-2.9-2-4.77v-.03c0-1.86.76-3.55 1.98-4.77a6.7 6.7 0 0 1 4.76-1.97h.03c1.86 0 3.55.77 4.76 2.01h0Z"/><path fill="none" stroke="#002140" stroke-linecap="round" stroke-miterlimit="10" stroke-width=".55" d="M131.57 91.21c.84-.84 1.99-1.35 3.26-1.35h.03c1.28 0 2.43.54 3.26 1.38.82.84 1.32 1.98 1.32 3.24v.02c0 1.27-.52 2.41-1.35 3.24s-1.98 1.35-3.24 1.36h-.03c-1.26 0-2.4-.51-3.24-1.33a4.56 4.56 0 0 1-1.38-3.27v-.02c0-1.28.52-2.43 1.36-3.27"/><path fill="none" stroke="#002140" stroke-linecap="round" stroke-miterlimit="10" stroke-width=".55" d="M136.49 96.13c-.42.42-.99.68-1.63.68h-.03c-.64 0-1.21-.25-1.63-.66-.43-.42-.71-1.01-.72-1.66v-.02c0-.65.26-1.23.69-1.66.42-.42 1-.68 1.65-.68h.03c.65 0 1.23.28 1.65.71.41.42.66.99.66 1.63v.02c0 .63-.26 1.21-.68 1.63m-8.3-1.62h12.94m-6.25 6.53V87.87"/><path fill="none" stroke="#002140" stroke-linecap="round" stroke-miterlimit="10" stroke-width=".55" d="m130.11 99.26 1.49-1.49 1.61-1.61 1.66-1.66 1.65-1.65 1.61-1.61 1.39-1.39"/><path fill="none" stroke="#002140" stroke-linecap="round" stroke-miterlimit="10" stroke-width=".55" d="m139.63 99.26-.02-.02-1.5-1.5-1.61-1.61h0l-1.63-1.63-1.68-1.68-1.61-1.61h0l-1.46-1.47"/><path fill="none" stroke="#03d47c" stroke-linecap="round" stroke-miterlimit="10" stroke-width=".82" d="M111.8 79.76c1.4.36.66 2.45 2.39 2.45m.42 0c1.41 0 .98-2.5 2.83-2.5s.87 2.5 2.61 2.5m.41 0c1.41 0 .98-2.5 2.83-2.5s.87 2.5 2.61 2.5m.42 0c1.41 0 .98-2.5 2.83-2.5s.87 2.5 2.61 2.5m.41 0c1.41 0 .98-2.5 2.83-2.5s.87 2.5 2.61 2.5m.41 0c1.02 0 .71-2.5 2.05-2.5"/><path fill="none" stroke="#002140" stroke-linecap="round" stroke-miterlimit="10" stroke-width=".82" d="M74.71 92.11 87 77.32m4.89 0L75.03 97.54m21.43 3.27 10.76-12.72m0-6.1L91.67 100.8m0-29.14s-.21-4.02 4.46-4.02h17.11"/><path fill="none" stroke="#002140" stroke-linecap="round" stroke-miterlimit="10" stroke-width=".82" d="M139.45 71.66s.21-4.02-4.46-4.02h-21.75m13.78-4.57c1.08 0 1.96-.88 1.96-1.96s-.88-1.96-1.96-1.96-1.96.88-1.96 1.96.88 1.96 1.96 1.96Zm0 0v4.46m6.16-4.46c1.08 0 1.96-.88 1.96-1.96s-.88-1.96-1.96-1.96-1.96.88-1.96 1.96.88 1.96 1.96 1.96Zm0 0v4.46m7.3 12.01c.07.26.1.53.1.81v1.22c0 1.79-1.46 3.25-3.25 3.25H114.8c-1.79 0-3.25-1.46-3.25-3.25v-1.22q0-.315.06-.63a3.26 3.26 0 0 1 3.19-2.63h22.54c1.51 0 2.78 1.04 3.15 2.44h0Z"/><path fill="#50eef6" d="M162.51 68.37c.44 4.06.23 8.59-.9 12.68l-.06-.02c-.27-.06-.53-.16-.76-.29-.94-.56-1.49-1.62-1.64-2.7-.14-1.08.08-2.18.4-3.22.26-.87.59-1.84.17-2.64-.36-.67-1.26-1-1.97-.72-.75.3-1.15 1.1-1.57 1.79-.43.69-1.1 1.39-1.9 1.26-.6-.09-.95-.57-1.26-1.13l-.1-.02c1.37-7.77-.46-13.6-4.5-20.06l.26-.16c1.32-.62 2.74.51 3.76 1.82 1.01 1.31 1.91 2.91 3.23 3.55 1.11.54 2.43.26 3.36-.71l.08-.05c1.92 3.24 2.95 6.39 3.41 10.63Z"/><path fill="#f9b5fe" d="m161.54 81.04.06.02c-.42 1.54-.98 3.02-1.68 4.39-2.39 4.66-3.95 8.29-6.38 12.93-1.65-3.69-3.16-7.57-3.21-11.62-.04-4.01 1.36-7.87 2.24-11.78.12-.55.23-1.09.32-1.61l.1.02c.31.56.66 1.04 1.26 1.13.8.13 1.48-.57 1.9-1.26.43-.69.82-1.49 1.57-1.79.71-.28 1.61.05 1.97.72.43.8.1 1.77-.17 2.64-.32 1.04-.54 2.14-.4 3.22.15 1.08.7 2.15 1.64 2.7.23.14.49.24.76.29Zm-2.44-23.29-.08.05c-.93.97-2.25 1.25-3.36.71-1.32-.64-2.22-2.24-3.23-3.55s-2.43-2.44-3.76-1.82l-.26.16c-.67-1.08-1.41-2.17-2.2-3.3-2.97-4.22-5.05-10.35-4.92-13.75 4.14 9.23 11.35 12.45 15.65 18.28.82 1.11 1.53 2.17 2.15 3.21Z"/><path fill="none" stroke="#002140" stroke-linecap="round" stroke-miterlimit="10" stroke-width=".82" d="M159.1 57.75c-.62-1.05-1.33-2.11-2.15-3.21-4.3-5.83-11.51-9.05-15.65-18.28-.13 3.4 1.95 9.53 4.92 13.75a76 76 0 0 1 2.2 3.3c4.03 6.46 5.87 12.29 4.5 20.06-.09.53-.2 1.07-.32 1.61-.88 3.91-2.29 7.77-2.24 11.78.04 4.05 1.56 7.92 3.21 11.62 2.43-4.63 3.99-8.27 6.38-12.93.7-1.37 1.26-2.85 1.68-4.39 1.13-4.09 1.35-8.62.9-12.68-.46-4.24-1.49-7.38-3.41-10.63Z"/><path fill="none" stroke="#002140" stroke-linecap="round" stroke-miterlimit="10" stroke-width=".82" d="M148.66 53.14c1.32-.62 2.74.51 3.76 1.82 1.01 1.31 1.91 2.91 3.23 3.55 1.11.54 2.42.26 3.36-.71M153 73.38c.31.56.66 1.04 1.26 1.13.8.13 1.48-.57 1.9-1.26.43-.69.82-1.49 1.57-1.79.71-.28 1.61.05 1.97.72.43.8.1 1.77-.17 2.64-.32 1.04-.54 2.14-.4 3.22.15 1.08.7 2.15 1.64 2.7.23.14.49.24.76.29"/><path fill="#50eef6" d="M148 70.33c.83 2.5.9 5.31.78 7.98h-.24c-.46.15-.88.51-1.15.95-.55.9-.67 2.03-.86 3.1-.1.56-.34 1.22-.84 1.26-.36.02-.66-.3-.84-.65-.18-.34-.3-.74-.55-1.02-.24-.27-.58-.4-.92-.4l-.14.02c-.18-.94-.34-1.89-.47-2.84.66 0 1.34.05 1.71-.47.28-.4.24-.95.18-1.45-.1-.87-.2-1.74-.31-2.61-.05-.47-.11-.96.07-1.39s.67-.74 1.06-.53c.55.3.62 1.42 1.23 1.33.37-.05.51-.55.56-.95.11-.78.28-1.63.63-2.31l.11-.04Z"/><path fill="#f9b5fe" d="M148.77 87.12c.19 1.3 1.28 2.83-.48 2.72-1.18-.08-2.38-1.14-3.03-2.04-.98-1.36-1.4-3.04-1.74-4.69-.1-.51-.21-1.02-.3-1.53l.14-.02c.34 0 .69.13.92.4.25.28.37.68.55 1.02.18.35.48.67.84.65.5-.04.74-.7.84-1.26.19-1.07.31-2.2.86-3.1.27-.44.7-.8 1.15-.96h.24v.14c-.14 2.88-.43 5.8 0 8.68ZM148 70.33l-.11.04c-.35.68-.52 1.53-.63 2.31-.06.4-.19.9-.56.95-.61.09-.68-1.03-1.23-1.33-.39-.21-.89.1-1.06.53-.18.43-.13.92-.07 1.39.11.87.21 1.74.31 2.61.06.5.11 1.05-.18 1.45-.37.52-1.05.48-1.71.47a76 76 0 0 1-.45-3.69c-.22-2.27-.35-4.6-1.19-6.72-.29-.71-.67-1.41-1.15-2.03l.02-.02c.46.52 1.05.96 1.73 1.11.68.16 1.45 0 1.93-.51.48-.5.58-1.36.14-1.9l.02-.04c1.02.61 1.92 1.4 2.64 2.35.7.93 1.2 1.95 1.56 3.04Z"/><path fill="#50eef6" d="M143.78 64.98c.44.54.34 1.4-.14 1.9-.48.51-1.25.67-1.93.51-.68-.15-1.27-.59-1.73-1.11l-.02.02c-.92-1.22-2.19-2.16-3.68-2.41 2.5-.72 5.28-.28 7.52 1.05z"/><path fill="none" stroke="#002140" stroke-linecap="round" stroke-miterlimit="10" stroke-width=".82" d="M148.78 78.31v.13c-.14 2.88-.43 5.8 0 8.68.19 1.3 1.28 2.83-.48 2.72-1.18-.08-2.38-1.14-3.03-2.04-.98-1.36-1.4-3.04-1.74-4.69-.1-.51-.21-1.02-.3-1.53-.18-.94-.34-1.89-.47-2.84a76 76 0 0 1-.45-3.69c-.22-2.27-.35-4.6-1.19-6.72-.29-.71-.67-1.41-1.15-2.03-.92-1.22-2.19-2.16-3.68-2.41 2.5-.72 5.28-.28 7.52 1.05 1.02.61 1.92 1.4 2.64 2.35.7.93 1.2 1.95 1.56 3.04.83 2.5.9 5.31.78 7.98Z"/><path fill="none" stroke="#002140" stroke-linecap="round" stroke-miterlimit="10" stroke-width=".82" d="M142.71 78.73h.04c.66 0 1.34.05 1.71-.47.28-.4.24-.95.18-1.45-.1-.87-.2-1.74-.31-2.61-.05-.47-.11-.96.07-1.39s.67-.74 1.06-.53c.55.3.62 1.42 1.23 1.33.37-.05.51-.55.56-.95.11-.78.28-1.63.63-2.31m-4.52 11.2c.34 0 .69.13.92.4.25.28.37.68.55 1.02.18.35.48.67.84.65.5-.04.74-.7.84-1.26.19-1.07.31-2.2.86-3.1.27-.44.7-.8 1.15-.96m-8.54-12.02c.46.52 1.05.96 1.73 1.11.68.16 1.45 0 1.93-.51.48-.5.58-1.36.14-1.9"/><path fill="#50eef6" d="M154.35 63.59c.54 2.53.74 5.01.7 7.49h-.18c-1.31.14-2.34-1.26-2.58-2.63s.02-2.78-.16-4.16c-.05-.36-.13-.73-.35-1.01s-.6-.44-.92-.29c-.26.13-.44.44-.72.48-.27.04-.5-.19-.65-.43-.38-.61-.46-1.37-.53-2.11-.07-.73-.13-1.49-.49-2.12-.26-.48-.74-.85-1.24-.92h-.02c-.96-3.47-3.31-6.71-6.7-7.91 5.03.04 9.24 3.41 11.5 7.54.96 1.75 1.92 4.13 2.33 6.08Z"/><path fill="#f9b5fe" d="M154.87 71.07h.18c-.04 2.47-.3 4.94-.72 7.46-.39.05-1.41 2.26-3.41 1.52-.63-.23-.92-.97-1.05-1.65-.21-1.06.73-5.37-1.01-7.3-.44-.49-1.09-.76-1.74-.75.06-.4.13-.79.19-1.19.56-3.65.9-7.42-.01-11-.03-.09-.05-.18-.07-.28h.02c.5.06.98.44 1.24.91.35.63.42 1.39.49 2.12s.15 1.5.53 2.11c.15.24.38.46.65.43.29-.04.46-.35.72-.48.31-.15.7.01.92.29s.3.65.35 1.01c.18 1.38-.08 2.8.16 4.16.24 1.37 1.27 2.77 2.58 2.63Z"/><path fill="#50eef6" d="M154.34 78.53c-.08.49-.16.98-.25 1.47-.36 1.96-.85 3.9-1.32 5.83-.44 1.83-.58 4.11-1.32 5.8-.59-.35-1.13-.84-1.62-1.34-2.59-2.63-3.65-6.45-3.74-10.14-.08-3.29.51-6.55 1.04-9.8.65 0 1.29.26 1.74.75 1.74 1.93.8 6.24 1.01 7.3.14.68.42 1.42 1.05 1.65 2 .74 3.02-1.47 3.41-1.52"/><path fill="none" stroke="#002140" stroke-linecap="round" stroke-miterlimit="10" stroke-width=".82" d="M154.34 78.53c-.08.49-.16.98-.25 1.47-.36 1.96-.85 3.9-1.32 5.83-.44 1.83-.58 4.11-1.32 5.8-.59-.35-1.13-.84-1.62-1.34-2.59-2.63-3.65-6.45-3.74-10.14-.08-3.29.51-6.55 1.04-9.8.06-.4.13-.79.19-1.19.56-3.65.9-7.42-.01-11-.03-.09-.05-.18-.07-.28-.96-3.47-3.31-6.72-6.7-7.92 5.03.04 9.24 3.41 11.5 7.54.96 1.75 1.92 4.13 2.33 6.08.54 2.53.74 5.01.7 7.49-.04 2.47-.3 4.94-.72 7.46Z"/><path fill="none" stroke="#002140" stroke-linecap="round" stroke-miterlimit="10" stroke-width=".82" d="M147.24 57.88c.5.06.98.44 1.24.92.35.63.42 1.39.49 2.12s.15 1.5.53 2.11c.15.24.38.46.65.43.29-.04.46-.35.72-.48.31-.15.7.01.92.29s.3.65.35 1.01c.18 1.38-.08 2.8.16 4.16.24 1.37 1.27 2.77 2.58 2.63m-7.77-.72h.01c.65 0 1.29.26 1.74.75 1.74 1.93.8 6.24 1.01 7.3.14.68.42 1.42 1.05 1.65 2 .74 3.02-1.47 3.41-1.52h0"/><path fill="#e4bc07" d="M146.61 86.48c-3.88.04-2.87 4.22-2.87 4.22l2.87 15.31s.61 2.55 4.3 2.51c3.69-.03 4.08-.04 4.08-.04h.8s.39-.01 4.08-.04 4.25-2.59 4.25-2.59l2.56-15.35s.93-4.2-2.96-4.17c-2.77.02-6.23.06-7.98.07h-1.14c-1.76.03-5.22.06-7.98.08Z"/><path fill="none" stroke="#002140" stroke-linecap="round" stroke-miterlimit="10" stroke-width=".82" d="M154.99 108.48s-.39 0-4.08.04c-3.69.03-4.3-2.51-4.3-2.51l-2.87-15.31s-1.01-4.19 2.87-4.22c2.76-.02 6.22-.05 7.98-.07m1.2 22.07s.39 0 4.08-.04c3.69-.03 4.25-2.59 4.25-2.59l2.56-15.35s.93-4.2-2.96-4.17c-2.77.02-6.23.06-7.98.07h-1.14"/><path fill="#002140" d="M168.04 139.39v.68c0 8.14-5.88 15.24-14.86 17.99l-.08-.24c-.1-1.55 1.48-2.64 2.9-3.27s3.08-1.36 3.46-2.87c.46-1.82-1.23-3.97-.1-5.47 1.1-1.47 3.94-.75 4.8-2.38.25-.48.24-1.05.35-1.58.32-1.57 1.82-2.82 3.43-2.85h.1Z"/><path fill="#0676de" d="M84.68 9.71h-.04c-1.76.04-3.47.11-5.14.22l-.02-.36c.06-.79-.75-1.41-1.54-1.54s-1.59.05-2.39 0c-2.22-.14-4.19-2.05-6.38-1.67-1.64.29-2.85 1.79-4.48 2.12-2.13.43-4.3-1.26-6.41-.73-1.15.29-2.1 1.29-2.33 2.46-.22 1.17.28 2.45 1.25 3.15l.08.27c-6.13 1.78-11.46 4.09-16.1 6.75l-.04-.71c.31-1.07-.8-2.13-1.91-2.17s-2.12.62-2.96 1.35-1.62 1.57-2.64 2.02c-1.71.75-3.77.25-5.47 1.03a3.95 3.95 0 0 0-2.13 2.57c-.33 1.31.02 2.78-.57 4-.35.72-1 1.25-1.48 1.89-1.1 1.47-1.25 3.58-.4 5.2-3.65 4.68-6.3 9.53-8.22 14.1l-.48-.2s-.03.04-.05.05c-.18.09-.38-.05-.54-.16-.87-.62-2.12-.66-3.03-.1s-1.43 1.7-1.26 2.76c.14.86.68 1.69.47 2.53-.32 1.3-2.03 1.53-3.16 2.25-1.31.83-1.91 2.63-1.36 4.08.5 1.31 1.75 2.2 2.38 3.46.81 1.61.47 3.52.33 5.31s.07 3.87 1.53 4.92h.08v4.98h-.52c-.15.18-.41.19-.63.22-1.41.21-2.24 1.75-2.42 3.17s.05 2.88-.32 4.26c-.65 2.44-3.08 4.52-2.5 6.97.51 2.11 3.07 3.18 3.73 5.26.36 1.13.09 2.36.22 3.54s.96 2.49 2.14 2.38h.29v14.1c-1.81.55-3.17 2.36-3.19 4.25-.01.97.29 1.93.17 2.89-.18 1.43-1.23 2.56-1.98 3.8-1.14 1.9-1.56 4.37-.57 6.35s3.62 3.15 5.59 2.13l.14-.02c.46 3.28 1.98 6.85 5.43 9.17-.65.19-1.17.77-1.29 1.43-.13.71.2 1.49.8 1.88.59.39 1.34.41 1.97.72 1.06.52 1.57 1.72 2.34 2.62 1.53 1.78 4.33 2.31 6.4 1.2 1.12-.6 2.03-1.6 3.26-1.94.9-.25 1.86-.1 2.8-.05s1.96-.02 2.67-.63.87-1.91.09-2.43v-.27H51.3v.29c-.2 2.33 1.77 2.72 2.55 2.87.79.14 1.6.05 2.39.15 2.59.35 4.68 2.82 7.3 2.65 1.89-.12 3.39-1.59 5.18-2.18 1.54-.51 3.23-.35 4.82-.66.41-.08.85-.21 1.09-.55.28-.41.17-1-.14-1.38-.32-.39-.79-.6-1.26-.76-.69-.23-1.41-.35-2.14-.37v-.07h13.78v.07c-.7.26-.82 1.31-.35 1.89.46.59 1.28.78 2.02.79 1.57.02 3.08-.58 4.63-.79 1.71-.23 3.52.04 4.96.97 1.2.78 2.1 1.97 3.32 2.73 1.22.75 3.07.89 3.89-.28.3-.42.42-.95.72-1.37.48-.66 1.31-.95 2.11-1.12s1.64-.29 2.31-.75 1.09-1.42.66-2.12v-.02h25.38v.1c-.8.2-1.56.68-1.93 1.41s-.26 1.74.38 2.25c.9.73 2.23.24 3.37.38 1.83.23 3.15 2.08 4.98 2.3 1.31.16 2.57-.56 3.61-1.38s2.01-1.78 3.25-2.25c1.3-.49 2.75-.38 4.13-.57 1.38-.2 2.88-.87 3.29-2.2.13-.41.12-.9-.18-1.21-.33-.33-.86-.33-1.32-.29-1.02.07-2.04.15-3.06.22v-.02c4.93-2.01 7.07-6.11 7.72-9.93l.32.05c.31 1.1.85 2.4 1.98 2.51 1.26.12 2.06-1.43 1.93-2.69s-.79-2.43-.86-3.69c-.15-2.79 2.6-5.31 1.89-8.01-.31-1.18-1.23-2.1-1.77-3.2-.76-1.55-.73-3.35-.91-5.07s-.71-3.58-2.17-4.51H159v-9.78h.14c1.73-.28 2.57-2.33 2.6-4.08.03-1.76-.4-3.57.15-5.23.87-2.64 4.08-4.47 3.77-7.23-.26-2.34-3-3.79-3.3-6.12-.28-2.19 1.68-4.58.49-6.44-.53-.84-1.54-1.21-2.38-1.73-.72-.44-1.41-1.19-1.41-1.99h-.07c0-.72-.1-4.99-1.43-10.98l.11-.02c.05.1.19.09.3.07 1.49-.38 2.55-1.86 2.71-3.39s-.45-3.07-1.39-4.29c-.96-1.26-2.31-2.32-2.71-3.86-.44-1.71.43-3.57-.05-5.27a3.48 3.48 0 0 0-2.38-2.37 3.47 3.47 0 0 0-3.26.8l-.27.16c-1.83-3.24-4.06-6.5-6.78-9.66l.16-.14c.47-.32.55-1 .39-1.55-.17-.54-.51-1.02-.72-1.55-.51-1.28-.23-2.78-.79-4.04-.76-1.69-2.76-2.39-4.57-2.82-1.8-.43-3.81-.9-4.86-2.43-.6-.87-.81-2-1.55-2.77-.81-.83-2.11-1.03-3.24-.77-1.13.27-2.12.93-3.05 1.63l-.06.11c-4.42-2.29-9.42-4.26-15.08-5.79l.04-.13c.71-1.08 1.11-2.41.84-3.67s-1.34-2.39-2.62-2.48c-1.14-.09-2.18.59-3.2 1.11-1.02.51-2.32.86-3.25.2-.72-.52-.96-1.48-1.57-2.12-1-1.07-2.77-1.02-4.09-.37-1.62.8-2.85 2.44-2.97 4.25l-.02.26a130 130 0 0 0-8.97-.52Zm83.36 116.09v13.58h-.1c-1.61.03-3.11 1.28-3.43 2.85-.11.53-.1 1.1-.35 1.58-.85 1.63-3.69.91-4.8 2.38-1.13 1.5.56 3.65.1 5.47-.38 1.51-2.04 2.24-3.46 2.87s-3 1.72-2.9 3.27l.08.24c-2.57.79-5.4 1.22-8.42 1.22h-13.8v-.58c.41-.48.07-1.23-.39-1.67s-1.04-.8-1.22-1.4c-.09-.3-.06-.62-.13-.93-.15-.72-.81-1.26-1.52-1.46-.72-.19-1.48-.09-2.19.1-2.62.69-4.92 2.46-7.61 2.76-1.31.14-2.69-.06-3.89.48-1.07.48-1.81 1.48-2.46 2.45v.25H96.66v-.76c-.79-1.54-2.41-2.54-4.1-2.91-1.69-.36-3.46-.16-5.15.23-1.43.33-2.92.79-4.33.4-1.51-.41-2.76-1.75-4.32-1.71-1.04.03-1.98.69-2.56 1.55s-.85 1.89-1.02 2.91v.29H53.45v-.49c.16-1.49-1.55-2.53-3.05-2.62-.41-.02-.84-.01-1.22-.19-.42-.19-.7-.58-1-.92-1.54-1.7-4.22-2.25-6.31-1.3-2.11.97-3.58 3.26-5.87 3.62-.9.14-1.83-.05-2.74.09-.9.14-1.86.79-1.83 1.71v.11h-6.88c-3.35 0-6.47-.53-9.27-1.53l.11-.33c.24-1.03-.17-2.18-1.01-2.82-.65-.51-1.54-.72-2.07-1.35-.85-1.01-.47-2.52-.63-3.83-.19-1.5-1.24-2.86-2.64-3.42-1.25-.5-2.81-.46-3.71-1.46-.71-.8-.73-1.99-1.11-2.99-.38-1.01-1.62-1.91-2.46-1.24l-.37.03c-.07-.75-.11-1.52-.11-2.3v-11.17c1.21-.26 1.91-1.56 2.18-2.78.27-1.23.28-2.54.89-3.64.57-1.04 1.6-1.74 2.29-2.7 1.07-1.5 1.16-3.63.23-5.22-.74-1.26-2.04-2.18-2.56-3.54-.47-1.23-.23-2.59.03-3.88s.55-2.63.16-3.89c-.38-1.25-1.71-2.32-2.96-1.94h-.26V83.72h.15c1.67-.43 2.56-2.28 2.76-3.99.19-1.71-.09-3.47.29-5.15.31-1.39 1.05-2.65 1.45-4.01.48-1.61.46-3.39-.18-4.94-.64-1.54-1.93-2.83-3.52-3.34.85-4.82 2.45-11.12 5.47-17.84l.15.07c.48.93 1.58 1.5 2.61 1.37 1.04-.13 1.95-.97 2.18-1.99.16-.7.02-1.45.16-2.15.26-1.3 1.43-2.22 2.63-2.8 1.2-.57 2.52-.92 3.6-1.69s1.9-2.15 1.48-3.41c-.15-.44-.43-.83-.54-1.29-.21-.87.27-1.74.68-2.53.41-.78.79-1.6.84-2.47.06-.87-.26-1.81-.99-2.29 4.32-4.52 9.6-8.77 16.07-12.41-.13.9.78 1.66 1.67 1.72s1.73-.37 2.52-.79c.79-.41 1.63-.84 2.52-.78.81.06 1.52.5 2.27.82 2.14.9 4.86.59 6.44-1.11s1.52-4.8-.37-6.14l-.06-.18c6.41-2.05 13.63-3.58 21.77-4.43.21 1.53 1.36 3.07 2.89 3.05 1.29-.02 2.35-1.1 3.64-1.24 1.15-.12 2.24.53 3.12 1.28s1.67 1.64 2.71 2.14c1.94.94 4.41.26 5.92-1.28.51-.52.94-1.13 1.56-1.5.64-.38 1.4-.46 2.11-.71.7-.24 1.41-.76 1.48-1.5l.02-.15c5.96.65 11.42 1.68 16.43 3.02l-.06.24c.26 1.22.65 2.62 1.8 3.1.79.33 1.7.1 2.52.35 1.74.53 2.14 2.75 3.19 4.23.98 1.38 2.72 2.17 4.41 2.01 1.28-.12 2.5-.76 3.79-.76.87 0 1.71.29 2.58.34s1.85-.22 2.25-.99l.08-.14c4.79 2.79 8.91 5.92 12.45 9.25-.35 1.14-.64 2.43.02 3.41.51.75 1.46 1.08 2.1 1.73 1.65 1.68.61 4.48.95 6.8.35 2.38 2.41 4.4 4.79 4.69 1.04.13 2.2 0 3.02.64.6.47.85 1.24 1.21 1.91a6.1 6.1 0 0 0 3.07 2.77l.28-.13c.61 1.36 1.16 2.71 1.66 4.03l-.05.02c-1.18.72-1.83 2.22-1.54 3.58.3 1.38 1.44 2.45 1.84 3.8.76 2.51-1.13 5.01-1.5 7.6-.48 3.37 2.08 6.88 5.43 7.46h.52v30.64h-.64c-.88.59-1.55 1.51-1.82 2.54-.21.78-.21 1.61-.48 2.36-.58 1.57-2.29 2.62-2.51 4.28-.27 2 1.75 3.62 1.96 5.62.21 1.98-1.36 4.12-.32 5.82.88 1.44 3.32 1.81 3.44 3.49h.38Z"/><path fill="#002140" d="M168.04 101.68v24.12h-.38c-.12-1.68-2.56-2.06-3.44-3.49-1.04-1.7.53-3.85.32-5.82-.21-2-2.23-3.62-1.96-5.62.22-1.66 1.93-2.71 2.51-4.28.27-.76.27-1.59.48-2.36.28-1.03.94-1.95 1.82-2.54h.64Zm0-30.64h-.52c-3.35-.57-5.91-4.08-5.43-7.45.37-2.6 2.25-5.09 1.5-7.6-.41-1.36-1.54-2.42-1.84-3.8-.29-1.36.36-2.86 1.54-3.58l.05-.02c4.22 11.17 4.66 20.45 4.71 22.46Zm-2.36 17.39c.31 2.76-2.9 4.59-3.77 7.23-.55 1.67-.12 3.48-.15 5.23s-.87 3.8-2.6 4.08h-.14V72.14h.07c0 .8.69 1.55 1.41 1.99.84.52 1.85.9 2.38 1.73 1.19 1.86-.77 4.24-.49 6.44.3 2.33 3.04 3.79 3.3 6.12Zm-1.64 39.1c.7 2.7-2.04 5.22-1.89 8.01.07 1.26.73 2.43.86 3.69s-.67 2.81-1.93 2.69c-1.13-.11-1.67-1.42-1.98-2.51l-.32-.05c.16-.95.24-1.89.24-2.77v-21.82h.17c1.46.93 1.99 2.79 2.17 4.51s.14 3.52.91 5.07c.54 1.1 1.46 2.01 1.77 3.2Zm-2.38-82.99-.28.13a6.14 6.14 0 0 1-3.07-2.77c-.36-.67-.61-1.44-1.21-1.91-.82-.65-1.98-.51-3.02-.64-2.38-.29-4.45-2.31-4.79-4.69-.34-2.33.69-5.12-.95-6.8-.64-.65-1.58-.98-2.1-1.73-.66-.97-.37-2.27-.02-3.41 7.33 6.88 12.2 14.59 15.43 21.82Zm-3.96 16.6-.11.02c-1.15-5.17-3.21-11.62-6.93-18.19l.27-.16c.86-.8 2.14-1.11 3.26-.8 1.13.31 2.06 1.25 2.38 2.37.48 1.7-.39 3.56.05 5.27.4 1.53 1.74 2.6 2.71 3.86.94 1.22 1.55 2.76 1.39 4.29s-1.21 3.01-2.71 3.39c-.11.03-.25.04-.3-.07Zm-2.25 88.24c.3.31.31.8.18 1.21-.42 1.33-1.91 2-3.29 2.2-1.38.19-2.82.08-4.13.57-1.24.47-2.21 1.43-3.25 2.25s-2.3 1.54-3.61 1.38c-1.83-.22-3.15-2.07-4.98-2.3-1.15-.14-2.47.34-3.37-.38-.64-.52-.75-1.52-.38-2.25s1.14-1.21 1.93-1.41v-.1h9.26c2.9 0 5.29-.47 7.24-1.27v.02c1.03-.07 2.05-.14 3.07-.22.46-.03 1-.04 1.32.29ZM144.41 31.62c.16.55.08 1.23-.39 1.55l-.16.14c-4.58-5.31-10.53-10.3-18.29-14.32l.06-.11c.93-.7 1.92-1.36 3.05-1.63 1.13-.26 2.43-.07 3.24.77.74.76.94 1.89 1.55 2.77 1.05 1.53 3.06 2 4.86 2.43 1.81.43 3.81 1.13 4.57 2.82.56 1.26.28 2.76.79 4.04.21.53.55 1 .72 1.55Zm-10.63-18.15-.08.14c-.4.77-1.39 1.04-2.25.99-.87-.05-1.71-.34-2.58-.34-1.29 0-2.5.64-3.79.76-1.68.16-3.43-.64-4.41-2.01-1.05-1.48-1.46-3.7-3.19-4.23-.82-.25-1.73-.02-2.52-.35-1.15-.48-1.55-1.87-1.8-3.1l.06-.24c7.95 2.11 14.75 5 20.56 8.39Zm-3.2 143.57c.45.43.79 1.18.39 1.67v.58h-19.4v-.25c.65-.97 1.39-1.97 2.46-2.45 1.2-.54 2.58-.33 3.89-.48 2.69-.3 4.99-2.07 7.61-2.76.72-.19 1.48-.29 2.19-.1s1.37.73 1.52 1.46c.06.31.04.63.13.93.18.6.77.97 1.22 1.4ZM111.37 9.4c.27 1.26-.13 2.59-.84 3.67l-.04.13c-5.07-1.37-10.67-2.39-16.85-2.97l.02-.26c.13-1.8 1.35-3.45 2.97-4.25 1.32-.65 3.09-.7 4.09.37.61.65.85 1.61 1.57 2.12.93.67 2.23.32 3.25-.2 1.02-.51 2.06-1.19 3.2-1.11 1.29.09 2.35 1.22 2.62 2.48Zm-2.2 141.17c.43.69.01 1.65-.66 2.12-.67.46-1.51.58-2.31.75s-1.64.45-2.11 1.12c-.3.42-.42.95-.72 1.37-.83 1.17-2.67 1.04-3.89.28-1.22-.75-2.12-1.95-3.32-2.73-1.45-.93-3.26-1.2-4.96-.97-1.56.21-3.06.81-4.63.79-.75 0-1.56-.2-2.02-.79s-.35-1.64.35-1.89v-.07h24.28v.02ZM96.79 2.07l-.02.15c-.06.74-.78 1.26-1.48 1.5s-1.47.32-2.11.71c-.62.37-1.05.98-1.56 1.5-1.51 1.54-3.98 2.21-5.92 1.28-1.04-.5-1.83-1.39-2.71-2.14s-1.97-1.4-3.12-1.28c-1.28.14-2.34 1.22-3.64 1.24-1.53.02-2.69-1.51-2.89-3.05 3.59-.37 7.35-.61 11.31-.7 4.26.1 8.3.37 12.14.79m-.12 156.45v.76H75.18v-.29c.17-1.02.44-2.06 1.02-2.91.58-.86 1.53-1.52 2.56-1.55 1.56-.04 2.81 1.3 4.32 1.71 1.41.39 2.9-.07 4.33-.4 1.69-.38 3.46-.59 5.15-.23 1.69.37 3.31 1.37 4.1 2.91ZM79.48 9.57l.02.36c-8.38.52-15.74 1.82-22.22 3.7l-.08-.27c-.96-.7-1.47-1.98-1.25-3.15.23-1.17 1.17-2.17 2.33-2.46 2.11-.53 4.28 1.17 6.41.73 1.63-.33 2.84-1.84 4.48-2.12 2.19-.38 4.16 1.53 6.38 1.67.79.05 1.6-.13 2.39 0 .78.13 1.59.74 1.54 1.54m-4.96 142.17c.31.38.42.97.14 1.38-.24.34-.68.48-1.09.55-1.6.31-3.28.15-4.82.66-1.79.6-3.3 2.07-5.18 2.18-2.61.16-4.7-2.3-7.3-2.65-.79-.11-1.61-.01-2.39-.15-.79-.14-2.75-.54-2.55-2.87v-.29h19.79v.07c.73.02 1.45.14 2.14.37.47.15.95.37 1.26.76Zm-24.11 4.43c1.5.09 3.21 1.13 3.05 2.62v.49H31.44v-.11c-.02-.91.93-1.57 1.83-1.71s1.83.05 2.74-.09c2.3-.35 3.76-2.65 5.87-3.62 2.09-.96 4.77-.41 6.31 1.3.31.34.59.73 1 .92.38.18.81.17 1.22.19ZM51.63 6.59c1.89 1.34 1.95 4.44.37 6.14s-4.3 2.01-6.44 1.11c-.74-.31-1.46-.76-2.27-.82-.89-.06-1.73.36-2.52.78s-1.63.85-2.52.79-1.8-.82-1.67-1.7c4.42-2.5 9.4-4.69 15-6.48l.06.18ZM41.15 19.67l.04.71c-7.56 4.35-13.28 9.65-17.59 15.18-.85-1.62-.7-3.73.4-5.2.48-.64 1.12-1.17 1.48-1.89.6-1.22.24-2.69.57-4a3.97 3.97 0 0 1 2.13-2.57c1.69-.78 3.76-.28 5.47-1.03 1.02-.45 1.8-1.29 2.64-2.02s1.85-1.39 2.96-1.35 2.22 1.11 1.91 2.17Zm-6.24 131.15c.78.52.62 1.82-.09 2.43s-1.73.69-2.67.63c-.94-.05-1.9-.2-2.8.05-1.23.34-2.14 1.35-3.26 1.94-2.07 1.1-4.87.57-6.4-1.2-.77-.9-1.28-2.1-2.34-2.62-.63-.31-1.38-.33-1.97-.72-.6-.39-.93-1.17-.8-1.88.12-.66.65-1.24 1.29-1.43 2.28 1.54 5.4 2.53 9.62 2.53h9.42zM20.5 25.28c.73.48 1.04 1.42.99 2.29-.05.88-.43 1.7-.84 2.47-.42.79-.89 1.66-.68 2.53.11.45.39.84.54 1.29.42 1.26-.4 2.64-1.48 3.41s-2.4 1.12-3.6 1.69-2.37 1.49-2.63 2.8c-.14.71 0 1.45-.16 2.15-.23 1.02-1.14 1.85-2.18 1.99-1.04.13-2.13-.44-2.61-1.37l-.15-.07c2.83-6.31 6.92-13 12.82-19.17ZM14.38 154.6c.84.64 1.25 1.79 1.01 2.82l-.11.33c-7.8-2.77-13.08-9.12-13.9-17.42l.37-.03c.84-.67 2.08.24 2.46 1.24.38 1.01.4 2.19 1.11 2.99.9 1.01 2.46.96 3.71 1.46 1.4.56 2.45 1.92 2.64 3.42.16 1.31-.22 2.82.63 3.83.54.63 1.42.84 2.07 1.35Zm.51-105.13.48.2c-5.15 12.26-5.09 22.58-5.09 22.58v2.32h-.08c-1.46-1.05-1.67-3.13-1.53-4.92s.47-3.7-.33-5.31c-.63-1.26-1.88-2.14-2.38-3.46-.55-1.45.05-3.25 1.36-4.08 1.13-.72 2.83-.95 3.16-2.25.21-.84-.34-1.68-.47-2.53-.17-1.06.35-2.2 1.26-2.76s2.16-.53 3.03.1c.16.12.37.26.54.17a.12.12 0 0 0 .05-.05Zm-4.44 89.38-.14.02c-1.97 1.03-4.59-.14-5.59-2.13-.99-1.99-.58-4.45.57-6.35.74-1.24 1.8-2.37 1.98-3.8.12-.96-.18-1.92-.17-2.89.02-1.9 1.38-3.71 3.19-4.25v17.14c0 .73.05 1.49.16 2.27Zm-.16-36.52v3.01H10c-1.18.11-2.02-1.2-2.14-2.38-.13-1.18.14-2.41-.22-3.54-.67-2.07-3.22-3.14-3.73-5.26-.59-2.45 1.85-4.53 2.5-6.97.37-1.38.14-2.85.32-4.26.18-1.42 1.01-2.96 2.42-3.17.22-.03.48-.04.63-.22h.52v22.78Zm-3.43 10.19c.93 1.59.83 3.72-.23 5.22-.68.96-1.71 1.67-2.29 2.7-.61 1.1-.62 2.41-.89 3.64-.27 1.22-.97 2.51-2.18 2.78V99.28h.26c1.25-.38 2.57.68 2.96 1.94.38 1.25.1 2.6-.16 3.89-.26 1.28-.5 2.65-.03 3.88.52 1.36 1.82 2.28 2.56 3.54ZM5.74 65.63c.64 1.55.66 3.33.18 4.94-.4 1.37-1.14 2.62-1.45 4.01-.37 1.68-.1 3.44-.29 5.15s-1.09 3.57-2.76 3.99h-.15V71.43s-.02-3.59.95-9.15c1.59.51 2.88 1.8 3.52 3.34Z"/><path fill="none" stroke="#002140" stroke-linecap="round" stroke-miterlimit="10" stroke-width=".82" d="M15.88 148.02c2.28 1.54 5.4 2.53 9.62 2.53h54.76M84.64 9.71c-1.76.04-3.47.11-5.14.22-8.38.52-15.74 1.82-22.22 3.7-6.13 1.78-11.46 4.09-16.1 6.75-7.56 4.35-13.28 9.65-17.59 15.18-3.65 4.68-6.3 9.53-8.22 14.1-5.15 12.26-5.09 22.58-5.09 22.58v64.32c0 .73.05 1.49.16 2.27.46 3.28 1.98 6.85 5.43 9.17M87.88 9.68c-1.08 0-2.15.01-3.21.04m3.13.1c2 .09 3.94.23 5.84.41 6.19.58 11.78 1.6 16.85 2.97 5.66 1.53 10.67 3.5 15.08 5.79 7.76 4.02 13.71 9.01 18.29 14.32 2.72 3.16 4.95 6.42 6.78 9.66 3.72 6.57 5.79 13.02 6.93 18.19 1.33 5.99 1.43 10.26 1.43 10.98v64.43c0 .88-.07 1.82-.24 2.77-.66 3.82-2.8 7.92-7.73 9.93-1.95.8-4.33 1.27-7.24 1.27H80.23"/><path fill="none" stroke="#002140" stroke-linecap="round" stroke-miterlimit="10" stroke-width=".82" d="M81.43 9.68c1.09 0 2.16.01 3.21.04h.04c1.06.02 2.1.06 3.13.11"/><path fill="none" stroke="#002140" stroke-linecap="round" stroke-miterlimit="10" stroke-width=".82" d="M88.27 1.24c-1.22 0-2.43.01-3.62.04-3.95.09-7.72.33-11.31.7-8.14.84-15.36 2.37-21.77 4.43-5.6 1.8-10.58 3.99-15 6.47-6.47 3.63-11.76 7.88-16.07 12.41-5.89 6.17-9.98 12.86-12.82 19.17-3.02 6.72-4.62 13.02-5.47 17.84-.98 5.56-.95 9.15-.95 9.15v66.59c0 .78.04 1.55.11 2.3.82 8.3 6.11 14.65 13.9 17.42 2.8.99 5.92 1.53 9.27 1.53h55.17"/><path fill="none" stroke="#002140" stroke-linecap="round" stroke-miterlimit="10" stroke-width=".82" d="M81.03 1.24c1.22 0 2.43.01 3.62.04 4.26.1 8.3.37 12.14.79 5.96.65 11.42 1.68 16.43 3.02 7.95 2.11 14.75 5 20.56 8.39 4.79 2.79 8.91 5.92 12.45 9.25 7.33 6.88 12.2 14.59 15.43 21.82.61 1.36 1.16 2.71 1.66 4.03 4.22 11.17 4.66 20.45 4.71 22.46v69.03c0 8.14-5.88 15.24-14.86 17.99-2.57.79-5.4 1.22-8.42 1.22H79.71m-78.18-60c1.25-.38 2.57.68 2.96 1.94.38 1.25.1 2.6-.16 3.89-.26 1.28-.5 2.65-.03 3.88.52 1.36 1.82 2.28 2.56 3.54.93 1.59.83 3.72-.23 5.22-.68.96-1.71 1.67-2.29 2.7-.61 1.1-.62 2.41-.89 3.64-.27 1.22-.97 2.51-2.18 2.78h-.03m9.15-7.46s-.06.02-.1.03c-1.81.55-3.17 2.36-3.19 4.25-.01.97.29 1.93.17 2.89-.18 1.43-1.23 2.56-1.98 3.8-1.14 1.9-1.56 4.37-.57 6.35s3.62 3.15 5.59 2.13m-8.56 1.44c.84-.67 2.08.24 2.46 1.24.38 1.01.4 2.19 1.11 2.99.9 1.01 2.46.96 3.71 1.46 1.4.56 2.45 1.92 2.64 3.42.16 1.31-.22 2.82.63 3.83.54.63 1.42.84 2.07 1.35.84.64 1.25 1.79 1.01 2.82m.63-9.42-.13.03h0c-.65.2-1.17.77-1.29 1.43-.13.71.2 1.49.8 1.88.59.39 1.34.41 1.97.72 1.06.52 1.57 1.72 2.34 2.62 1.53 1.78 4.33 2.31 6.4 1.2 1.12-.6 2.03-1.6 3.26-1.94.9-.25 1.86-.1 2.8-.05s1.96-.02 2.67-.63.87-1.91.09-2.43m-3.49 8.35c-.02-.91.93-1.57 1.83-1.71s1.83.05 2.74-.09c2.3-.35 3.76-2.65 5.87-3.62 2.09-.96 4.77-.41 6.31 1.3.31.34.59.73 1 .92.38.18.81.17 1.22.19 1.5.09 3.21 1.13 3.05 2.62m-2.13-7.94c-.2 2.33 1.77 2.72 2.55 2.87.79.14 1.6.05 2.39.15 2.59.35 4.68 2.82 7.3 2.65 1.89-.12 3.39-1.59 5.18-2.18 1.54-.51 3.23-.35 4.82-.66.41-.08.85-.21 1.09-.55.28-.41.17-1-.14-1.38-.32-.39-.79-.6-1.26-.76-.69-.23-1.41-.35-2.14-.37"/><path fill="none" stroke="#002140" stroke-linecap="round" stroke-miterlimit="10" stroke-width=".82" d="M75.18 158.99c.17-1.02.44-2.06 1.02-2.91.58-.86 1.53-1.52 2.56-1.55 1.56-.04 2.81 1.3 4.32 1.71 1.41.39 2.9-.07 4.33-.4 1.69-.38 3.46-.59 5.15-.23 1.69.37 3.31 1.37 4.1 2.91m-11.77-7.91c-.7.26-.82 1.31-.35 1.89.46.59 1.28.78 2.02.79 1.57.02 3.08-.58 4.63-.79 1.71-.23 3.52.04 4.96.97 1.2.78 2.1 1.97 3.32 2.73 1.22.75 3.07.89 3.89-.28.3-.42.42-.95.72-1.37.48-.66 1.31-.95 2.11-1.12s1.64-.29 2.31-.75 1.09-1.42.66-2.12m2.4 8.47c.65-.97 1.39-1.97 2.46-2.45 1.2-.54 2.58-.33 3.89-.48 2.69-.3 4.99-2.07 7.61-2.76.72-.19 1.48-.29 2.19-.1s1.37.73 1.52 1.46c.06.31.04.63.13.93.18.6.77.97 1.22 1.4s.79 1.18.39 1.67m3.58-8.05c-.8.2-1.56.68-1.93 1.41s-.26 1.74.38 2.25c.9.73 2.23.24 3.37.38 1.83.23 3.15 2.08 4.98 2.3 1.31.16 2.57-.56 3.61-1.38s2.01-1.78 3.25-2.25c1.3-.49 2.75-.38 4.13-.57 1.38-.2 2.88-.87 3.29-2.2.13-.41.12-.9-.18-1.21-.33-.33-.86-.33-1.32-.29-1.02.07-2.04.15-3.06.22m2.03 8.51c-.1-1.55 1.48-2.64 2.9-3.27s3.08-1.36 3.46-2.87c.46-1.82-1.23-3.97-.1-5.47 1.1-1.47 3.94-.75 4.8-2.38.25-.48.24-1.05.35-1.58.32-1.57 1.82-2.82 3.43-2.85M10 105.34c-1.18.11-2.02-1.2-2.14-2.38-.13-1.18.14-2.41-.22-3.54-.67-2.07-3.22-3.14-3.73-5.26-.59-2.45 1.85-4.53 2.5-6.97.37-1.38.14-2.85.32-4.26.18-1.42 1.01-2.96 2.42-3.17.22-.03.48-.04.63-.22m-8.36 4.19c1.67-.43 2.56-2.28 2.76-3.99.19-1.71-.09-3.47.29-5.15.31-1.39 1.05-2.65 1.45-4.01.48-1.61.46-3.39-.18-4.94-.64-1.54-1.93-2.83-3.52-3.34-.01 0-.02 0-.03-.01m8.02 12.28c-1.46-1.05-1.67-3.13-1.53-4.92s.47-3.7-.33-5.31c-.63-1.26-1.88-2.14-2.38-3.46-.55-1.45.05-3.25 1.36-4.08 1.13-.72 2.83-.95 3.16-2.25.21-.84-.34-1.68-.47-2.53-.17-1.06.35-2.2 1.26-2.76s2.16-.53 3.03.1c.16.12.37.26.54.17a.12.12 0 0 0 .05-.05c.07-.13-.11-.37-.19-.22m-6.87-4.74c.48.93 1.58 1.5 2.61 1.37 1.04-.13 1.95-.97 2.18-1.99.16-.7.02-1.45.16-2.15.26-1.3 1.43-2.22 2.63-2.8 1.2-.57 2.52-.92 3.6-1.69s1.9-2.15 1.48-3.41c-.15-.44-.43-.83-.54-1.29-.21-.87.27-1.74.68-2.53.41-.78.79-1.6.84-2.47s-.26-1.81-.99-2.29c0 0-.01 0-.02-.01m3.16 10.37s-.02-.04-.04-.07c-.85-1.62-.7-3.73.4-5.2.48-.64 1.12-1.17 1.48-1.89.6-1.22.24-2.69.57-4a3.97 3.97 0 0 1 2.13-2.57c1.69-.78 3.76-.28 5.47-1.03 1.02-.45 1.8-1.29 2.64-2.02s1.85-1.39 2.96-1.35 2.22 1.11 1.91 2.17m-4.57-6.78c-.13.88.78 1.64 1.67 1.7s1.73-.37 2.52-.79c.79-.41 1.63-.84 2.52-.78.81.06 1.52.5 2.27.82 2.14.9 4.86.59 6.44-1.11s1.52-4.8-.37-6.14m5.57 6.78c-.96-.7-1.47-1.98-1.25-3.15.23-1.17 1.17-2.17 2.33-2.46 2.11-.53 4.28 1.17 6.41.73 1.63-.33 2.84-1.84 4.48-2.12 2.19-.38 4.16 1.53 6.38 1.67.79.05 1.6-.13 2.39 0 .78.13 1.59.74 1.54 1.54m-6.15-7.77c0 .05.01.11.02.16.21 1.53 1.36 3.07 2.89 3.05 1.29-.02 2.35-1.1 3.64-1.24 1.15-.12 2.24.53 3.12 1.28s1.67 1.64 2.71 2.14c1.94.94 4.41.26 5.92-1.28.51-.52.94-1.13 1.56-1.5.64-.38 1.4-.46 2.11-.71.7-.24 1.41-.76 1.48-1.5m-3.12 7.76c.13-1.8 1.35-3.45 2.97-4.25 1.32-.65 3.09-.7 4.09.37.6.65.85 1.61 1.57 2.12.93.67 2.23.32 3.25-.2 1.02-.51 2.06-1.19 3.2-1.11 1.29.09 2.35 1.22 2.62 2.48s-.13 2.59-.84 3.67m2.64-7.72c.26 1.22.65 2.62 1.8 3.1.79.33 1.7.1 2.52.35 1.74.53 2.14 2.75 3.19 4.23.98 1.38 2.72 2.17 4.41 2.01 1.28-.12 2.5-.76 3.79-.76.87 0 1.71.29 2.58.34s1.85-.22 2.25-.99m-8.07 5.27c.93-.7 1.92-1.36 3.05-1.63 1.13-.26 2.43-.07 3.24.77.74.76.95 1.89 1.55 2.77 1.05 1.53 3.06 2 4.86 2.43 1.81.43 3.81 1.13 4.57 2.82.56 1.26.28 2.76.79 4.04.21.53.55 1 .72 1.55.16.55.08 1.23-.39 1.55m2.24-10.58s-.02.08-.04.12c-.35 1.14-.64 2.43.02 3.41.51.75 1.46 1.08 2.1 1.73 1.65 1.68.61 4.48.95 6.8.35 2.38 2.41 4.4 4.79 4.69 1.04.13 2.2 0 3.02.64.6.47.85 1.24 1.21 1.91a6.1 6.1 0 0 0 3.07 2.77m-10.46-1.86c.86-.8 2.14-1.11 3.26-.8 1.13.31 2.06 1.25 2.38 2.37.48 1.7-.4 3.56.05 5.27.4 1.53 1.74 2.6 2.71 3.86.94 1.22 1.55 2.76 1.39 4.29s-1.21 3.01-2.71 3.39c-.11.03-.25.04-.3-.07-.05-.1.18-.16.15-.06m5.42-12.47c-1.18.72-1.83 2.22-1.54 3.58.3 1.38 1.44 2.45 1.84 3.8.76 2.51-1.13 5.01-1.5 7.6-.48 3.37 2.08 6.88 5.43 7.46m-8.4 68.37c.31 1.1.85 2.4 1.98 2.51 1.26.12 2.06-1.43 1.93-2.69s-.79-2.43-.86-3.69c-.15-2.79 2.6-5.31 1.89-8.01-.31-1.18-1.23-2.1-1.77-3.2-.76-1.55-.73-3.35-.91-5.07s-.71-3.58-2.17-4.51m8.47 11.06c-.12-1.68-2.56-2.06-3.44-3.49-1.04-1.7.53-3.85.32-5.82-.21-2-2.23-3.62-1.96-5.62.22-1.66 1.93-2.71 2.51-4.28.27-.76.27-1.59.48-2.36.28-1.03.94-1.95 1.82-2.54m-8.24-29.96c-.04.14-.06.27-.06.41 0 .8.69 1.55 1.41 1.99.84.52 1.85.9 2.38 1.73 1.19 1.86-.77 4.24-.49 6.44.3 2.33 3.04 3.79 3.3 6.12.31 2.76-2.9 4.59-3.77 7.23-.55 1.67-.12 3.48-.15 5.23s-.87 3.8-2.6 4.08"/><path fill="#ffed8f" d="M32.82 101.34s1.41-.12 1.41-.67-.61-1.23-2.39-1.65c-1.78-.43-4.17-.61-6.01-.55s-7.6.49-8.03 1.66 1.72 1.47 1.72 1.47 1.96-1.53 6.68-1.47 6.62 1.23 6.62 1.23Z"/><path fill="#fffaf0" d="M34.23 100.67s-1.78 1.72-5.27 1.65c-3.49-.06-6.5-.12-7.11-.24s-4.23-1.04-4.23-1.04l.06 15.08s2.64 1.35 7.42 1.35 8.77-.61 9.19-1.72z"/><path fill="#722b03" d="M32.82 101.34s-1.96-1.19-7.19-1.14c-5.23.04-6.13 1.14-6.13 1.14s1.47.94 6.87.98 6.46-.98 6.46-.98Z"/><path fill="#fffaf0" d="M34.4 110.91v3.5s6.56-.32 6.56-5.98-5.05-7.27-6.53-7.11v3.44s2.86 1.09 2.86 3.31-2.89 2.83-2.89 2.83Z"/><path fill="none" stroke="#002140" stroke-linecap="round" stroke-linejoin="round" stroke-width=".82" d="M25.97 102.28c4.59 0 8.32-.84 8.32-1.88s-3.72-1.88-8.32-1.88-8.32.84-8.32 1.88 3.72 1.88 8.32 1.88m8.32 13.41c0 1.04-3.72 1.88-8.32 1.88s-8.32-.84-8.32-1.88m0 0v-15.28m16.64 15.28v-15.28"/><path fill="#ff7101" d="M28.34 107.93s.4-.54.72-.83 1.19-.98 1.27-1.3c.07-.33.47-2.14-.25-2.32s-1.16-.22-1.16-.22l-.87.58s-.29-.54-1.16-.51c-.87.04-1.09.87-1.09.87l-.04 1.12.25.76 1.52 1.23.8.62Z"/><path fill="none" stroke="#002140" stroke-linecap="round" stroke-linejoin="round" stroke-width=".82" d="M28.09 104.03s-.12-.64-1.22-.64-1.28.92-1.2 1.89c.09.97 1.41 1.34 2.56 2.69.6-1.12 2.21-1.42 2.31-2.83.1-1.4-.45-1.82-1.18-1.85-.74-.03-1.09.39-1.26.74h0Zm-6.4-.22c.74-.06 1.49.01 2.19.21m-2.06 3.19c.62-.02 1.23-.02 1.85 0m-3.3 4.81.06-2.56c0-.07.02-.17.09-.18.08-.02.14.08.16.16.22.65.44 1.31.66 1.97.2-.08.24-.32.27-.53.07-.44.2-.87.39-1.27.05-.11.12-.22.24-.25.12-.02.24.06.29.17s.05.24.05.36v2.12m1.17-.06c.12.12.29.18.45.22.24.05.52.04.67-.15.11-.13.12-.31.13-.48.01-.21.02-.42-.03-.63s-.15-.4-.32-.52a.64.64 0 0 0-.57-.07c-.26.1-.59.35-.61.64-.03.3.07.76.29.99h0Zm2.25-1.64v1.87m.01-1.13c.03-.24.18-.47.39-.57.22-.1.5-.07.68.09.22.2.24.53.25.83l.03.91m1.18-2.89c-.02.94 0 1.89.04 2.83"/><path fill="none" stroke="#002140" stroke-linecap="round" stroke-linejoin="round" stroke-width=".82" d="M27.91 110.66c.38 0 .77-.07 1.12-.23m.66-1.57.05 3.38m.04-1.43c.03-.15.08-.29.16-.42.03-.04.06-.09.1-.12a.36.36 0 0 1 .18-.07c.26-.03.51.14.65.36.13.23.17.5.17.76s-.02.53.01.78m-7.01 1.35c-.44.05-.88.04-1.31-.04l-.03 2.5c0 .05 0 .11.03.15.04.05.11.05.17.05h.93"/><path fill="none" stroke="#002140" stroke-linecap="round" stroke-linejoin="round" stroke-width=".82" d="M22.75 114.79q.555.015 1.11 0m.92-.53v1.97m.01-1.18c0-.21.1-.42.27-.54.18-.11.42-.12.59 0 .19.13.27.37.31.61.07.36.07.72.08 1.09m2.25-3.14.06 3.05m-.19-1.39c0-.12-.09-.23-.2-.29a.7.7 0 0 0-.35-.08c-.09 0-.18 0-.27.02-.17.05-.31.19-.38.35s-.09.35-.09.53.02.35.1.51.22.29.39.32c.09.02.19 0 .28-.02.23-.06.45-.18.62-.35m-5.48-11.88-.03 3.31m-3.5-5.69c.88-.73 3.63-1.27 6.88-1.27 2.97 0 5.52.45 6.61 1.09m1.7.02c3.61 0 6.53 2.92 6.53 6.53s-2.92 6.53-6.53 6.53"/><path fill="none" stroke="#002140" stroke-linecap="round" stroke-linejoin="round" stroke-width=".82" d="M34.28 104.83c1.64 0 2.96 1.32 2.96 2.96s-1.32 2.96-2.96 2.96"/><path fill="#712a76" d="M40.65 87.39c.75 0 1.36-.61 1.36-1.36s-.61-1.36-1.36-1.36-1.36.61-1.36 1.36.61 1.36 1.36 1.36m14.75-52.3c.75 0 1.36-.61 1.36-1.36s-.61-1.36-1.36-1.36-1.36.61-1.36 1.36.61 1.36 1.36 1.36m48.7-5.04c.75 0 1.36-.61 1.36-1.36s-.61-1.36-1.36-1.36-1.36.61-1.36 1.36.61 1.36 1.36 1.36M77.91 47.9c.75 0 1.36-.61 1.36-1.36s-.61-1.36-1.36-1.36-1.36.61-1.36 1.36.61 1.36 1.36 1.36"/><path fill="#fed607" stroke="#fed607" stroke-linecap="round" stroke-miterlimit="10" stroke-width=".82" d="M73.09 45.77c.13 0 .24-.11.24-.24s-.11-.24-.24-.24-.24.11-.24.24.11.24.24.24Z"/><path fill="#002e22" stroke="#002140" stroke-linecap="round" stroke-miterlimit="10" stroke-width=".82" d="M104.04 77.1H77.9c-1.82 0-3.3 1.48-3.3 3.3v17.11c0 1.82 1.48 3.3 3.3 3.3h26.14c1.82 0 3.3-1.48 3.3-3.3V80.4c0-1.82-1.48-3.3-3.3-3.3Z"/><path fill="none" stroke="#f25730" stroke-linecap="round" stroke-miterlimit="10" stroke-width=".82" d="m74.8 87.38 2.2 2.58 2.59-5.7 2.72 9.8 2.2-4.63 1.81 3.12 4.4-11.52 1.68 7 1.81-3.88 4.14 12.38 2.72-8.18 1.68 3.55 2.97-6.57 1.55 3.34"/><path fill="none" stroke="#03d47c" stroke-linecap="round" stroke-miterlimit="10" stroke-width=".82" d="m74.6 96.02 1.75-3.36 2.59 4.3 6.21-14.64 3.49 9.04 1.42-3.02 4.14 8.5 4.01-10.34 1.03 2.69 2.85-7.64 1.55 3.34 2.59-6.31"/><path fill="none" stroke="#002140" stroke-linecap="round" stroke-miterlimit="10" stroke-width=".82" d="M104.04 77.1H77.9c-1.82 0-3.3 1.48-3.3 3.3v17.11c0 1.82 1.48 3.3 3.3 3.3h26.14c1.82 0 3.3-1.48 3.3-3.3V80.4c0-1.82-1.48-3.3-3.3-3.3Z"/></g></svg>