<svg xmlns="http://www.w3.org/2000/svg" xml:space="preserve" id="Layer_1" x="0" y="0" viewBox="0 0 48 48"><style>.st0{fill:#d18000}.st1{fill:#e4bc07}.st2{fill:#fed607}.st3{fill:#002140}.st4{fill:#fffaf0}</style><path d="M0 0h48v48H0z" class="st0"/><path d="M8 16.426v19.448c0 .942.771 1.713 1.713 1.713h4.283a1.72 1.72 0 0 1-1.713-1.713V16.426c0-.942.771-1.713 1.713-1.713H9.713c-.942 0-1.713.77-1.713 1.713" class="st1"/><path d="M24.778 7.419A2.342 2.342 0 0 0 23.694 3a2.342 2.342 0 0 0-1.058 4.433 2.33 2.33 0 0 0 2.142-.014" class="st2"/><path d="M22.636 12.245v.101h2.141V7.42c-.324.17-.692.266-1.083.266s-.741-.091-1.058-.253z" class="st0"/><path d="M29.741 12h-12v4h12z" class="st0"/><path d="M17.741 12v4h12v-4zm11 3h-10v-2h10z" class="st3"/><path d="M29.741 12h-10v4h10z" class="st1"/><path d="M19.741 12v4h10v-4zm9 3h-8v-2h8z" class="st3"/><path d="M13.996 14.713c-.942 0-1.713.771-1.713 1.713v19.448c0 .942.771 1.713 1.713 1.713h24.031a1.72 1.72 0 0 0 1.714-1.713V16.426a1.72 1.72 0 0 0-1.714-1.713z" class="st2"/><path d="M8.5 16.426c0-.666.547-1.213 1.213-1.213h28.314c.666 0 1.213.547 1.213 1.213v19.448c0 .666-.547 1.213-1.213 1.213H9.713A1.22 1.22 0 0 1 8.5 35.874zm-1 19.448c0 1.218.995 2.213 2.213 2.213h28.314a2.22 2.22 0 0 0 2.213-2.213V16.426a2.22 2.22 0 0 0-2.213-2.213H9.713A2.22 2.22 0 0 0 7.5 16.426z" class="st3"/><path d="M12.783 35.874V16.426c0-.666.547-1.213 1.213-1.213v-1a2.22 2.22 0 0 0-2.213 2.213v19.448c0 1.218.995 2.213 2.213 2.213v-1a1.22 1.22 0 0 1-1.213-1.213m9.069-30.531a1.842 1.842 0 1 1 2.803 1.572l-.108.061-.001.001a1.85 1.85 0 0 1-1.682.01l-.11-.061a1.84 1.84 0 0 1-.902-1.583m-1 0a2.84 2.84 0 0 0 1.389 2.442l.169.093a2.85 2.85 0 0 0 2.598-.015v.001A2.842 2.842 0 0 0 23.693 2.5a2.84 2.84 0 0 0-2.841 2.843" class="st3"/><path d="M25.278 7.408h-1v4.836h1zm-2.142-.026h-1v4.862h1zm-4.952 21.122a.5.5 0 0 0-.433.56c.246 1.915 1.347 2.903 2.384 3.391a5.2 5.2 0 0 0 1.926.475l.038.001h8.091a.5.5 0 0 0 0-1h-8.096l-.091-.005a4.2 4.2 0 0 1-1.445-.376c-.788-.37-1.622-1.097-1.816-2.612a.5.5 0 0 0-.558-.434" class="st3"/><path d="M30.364 27.087a4.377 4.377 0 1 1 0-8.755 4.377 4.377 0 0 1 0 8.755" class="st4"/><path d="M25.917 22.47s3.31-1.233 4.713-1.517c1.403-.28 3.593-.337 3.593-.337s-.324-.223-.173-.62c0 0-1.517-2.077-4.49-1.517s-3.717 3.743-3.647 3.983z" class="st0"/><path d="M26.321 22.563a3.927 3.927 0 1 1 7.854 0 3.927 3.927 0 0 1-7.854 0m-1 0a4.927 4.927 0 1 0 9.854 0 4.927 4.927 0 0 0-9.854 0" class="st3"/><path d="M31.428 20.803c-1.15 0-2.13.71-2.533 1.713l2.18 1.18-2.187.84a2.735 2.735 0 0 0 2.54 1.733 2.732 2.732 0 1 0 0-5.466" class="st3"/><path d="M33.922 19.909c-2.283-.327-4.386.243-5.9.881-.76.32-1.379.66-1.811.921a11 11 0 0 0-.501.321q-.088.06-.135.094l-.036.026-.011.008-.003.002-.002.002a.499.499 0 0 0 .513.851l.087-.052.001-.001.006-.004.027-.02.115-.08c.103-.07.256-.172.455-.292.398-.241.975-.557 1.682-.854 1.419-.597 3.33-1.106 5.369-.813a.5.5 0 0 0 .144-.99" class="st3"/><path d="M22.421 27.087a4.377 4.377 0 1 1 0-8.755 4.377 4.377 0 0 1 0 8.755" class="st4"/><path d="M17.974 22.47s3.31-1.233 4.713-1.517c1.403-.28 3.593-.337 3.593-.337s-.324-.223-.173-.62c0 0-1.517-2.077-4.49-1.517s-3.717 3.743-3.647 3.983z" class="st0"/><path d="M18.377 22.563a3.927 3.927 0 1 1 7.854 0 3.927 3.927 0 0 1-7.854 0m-1 0a4.927 4.927 0 1 0 9.854 0 4.927 4.927 0 0 0-9.854 0" class="st3"/><path d="M23.484 20.803c-1.15 0-2.13.71-2.533 1.713l2.18 1.18-2.187.84a2.735 2.735 0 0 0 2.54 1.733 2.732 2.732 0 1 0 0-5.466" class="st3"/><path d="M25.979 19.909c-2.283-.327-4.386.243-5.9.881-.76.32-1.38.66-1.811.921a11 11 0 0 0-.501.321q-.088.06-.135.094l-.036.026-.011.008-.003.002-.002.002a.5.5 0 0 0 .513.851l.087-.052.001-.001.006-.004.027-.02.115-.08c.103-.07.256-.172.455-.292.398-.241.975-.557 1.682-.854 1.419-.597 3.33-1.106 5.369-.813a.5.5 0 0 0 .144-.99" class="st3"/></svg>