<svg xmlns="http://www.w3.org/2000/svg" xml:space="preserve" id="Layer_1" x="0" y="0" viewBox="0 0 48 48"><style>.st0{fill:#4ba6a6}.st1{fill:#4ed7de}.st2{fill:#99f6ff}.st3{fill:#002140}.st4{fill:none;stroke:#002140;stroke-miterlimit:10}.st5{fill:#fffaf0}</style><path d="M0 0h48v48H0z" class="st0"/><path d="M8 16.426v19.448c0 .942.771 1.713 1.713 1.713h4.282a1.72 1.72 0 0 1-1.713-1.713V16.426c0-.942.771-1.713 1.713-1.713H9.713c-.942 0-1.713.77-1.713 1.713" class="st1"/><path d="M24.778 7.419A2.342 2.342 0 0 0 23.694 3a2.342 2.342 0 0 0-1.058 4.433 2.33 2.33 0 0 0 2.142-.014" class="st2"/><path d="M22.636 12.245v.101h2.141V7.42c-.324.17-.692.266-1.083.266s-.741-.091-1.058-.253z" class="st0"/><path d="M29.741 12h-12v4h12z" class="st0"/><path d="M17.741 12v4h12v-4zm11 3h-10v-2h10z" class="st3"/><path d="M29.741 12h-10v4h10z" class="st1"/><path d="M19.741 12v4h10v-4zm9 3h-8v-2h8z" class="st3"/><path d="M13.996 14.713c-.942 0-1.713.771-1.713 1.713v19.448c0 .942.771 1.713 1.713 1.713h24.031a1.72 1.72 0 0 0 1.714-1.713V16.426a1.72 1.72 0 0 0-1.714-1.713z" class="st2"/><path d="M8.5 16.426c0-.666.547-1.213 1.213-1.213h28.314c.666 0 1.213.547 1.213 1.213v19.448c0 .666-.547 1.213-1.213 1.213H9.713A1.22 1.22 0 0 1 8.5 35.874zm-1 19.448c0 1.218.995 2.213 2.213 2.213h28.314a2.22 2.22 0 0 0 2.213-2.213V16.426a2.22 2.22 0 0 0-2.213-2.213H9.713A2.22 2.22 0 0 0 7.5 16.426z" class="st3"/><path d="M12.783 35.874V16.426c0-.666.547-1.213 1.213-1.213v-1a2.22 2.22 0 0 0-2.213 2.213v19.448c0 1.218.995 2.213 2.213 2.213v-1a1.22 1.22 0 0 1-1.213-1.213" class="st3"/><path d="M24.778 7.419A2.342 2.342 0 0 0 23.694 3a2.342 2.342 0 0 0-1.058 4.433 2.33 2.33 0 0 0 2.142-.014zm0-.011v4.837" class="st4"/><path d="M23.136 7.382h-1v4.862h1z" class="st3"/><path d="M30.575 25.693a3.77 3.77 0 1 1 0-7.538 3.77 3.77 0 0 1 0 7.538" class="st5"/><path d="M27.241 22a3.5 3.5 0 1 1 7 0 3.5 3.5 0 0 1-7 0m-1 0a4.5 4.5 0 1 0 9 0 4.5 4.5 0 0 0-9 0" class="st3"/><path d="M32.055 25.855c-.793-.318-1.436-1.119-1.758-2.16l2.242-1.367-2.353-1.218c.334-1.582 1.386-2.738 2.631-2.738 0 0 2.023 1.558 1.884 3.897s-2.648 3.583-2.648 3.583z" class="st3"/><path d="M20.575 25.693a3.77 3.77 0 1 1 0-7.538 3.77 3.77 0 0 1 0 7.538" class="st5"/><path d="M17.241 22a3.5 3.5 0 1 1 7 0 3.5 3.5 0 0 1-7 0m-1 0a4.5 4.5 0 1 0 9 0 4.5 4.5 0 0 0-9 0" class="st3"/><path d="M22.055 25.855c-.793-.318-1.436-1.119-1.758-2.16l2.242-1.367-2.353-1.218c.334-1.582 1.386-2.738 2.631-2.738 0 0 2.023 1.558 1.884 3.897s-2.648 3.583-2.648 3.583zm8.694 7.279s-1.615 1.825-4.179 1.894-3.548-1.902-3.548-1.902z" class="st3"/><path d="m32.564 29.04-1.23 3.553-9.366.251-.731-3.914s3.138 1.427 5.244 1.296 6.083-1.186 6.083-1.186" class="st5"/><path d="M21.53 28.161a.501.501 0 0 0-.807.352l.498.042-.498-.041-.001.002v.006l-.001.017-.004.062-.007.224c-.004.189-.002.457.019.777a8.6 8.6 0 0 0 .481 2.366c.319.868.844 1.762 1.707 2.435.869.677 2.044 1.1 3.6 1.081 1.548-.019 2.743-.432 3.657-1.065.91-.631 1.512-1.46 1.911-2.27.398-.809.598-1.61.699-2.205a8 8 0 0 0 .105-.992v-.025a.5.5 0 0 0-.696-.465c-3.366 1.432-6.049 1.334-7.875.897a9 9 0 0 1-2.097-.774 6 6 0 0 1-.531-.311l-.129-.087-.028-.021q0-.005-.003-.005m.228 1.309c.536.281 1.32.62 2.328.861 1.875.449 4.505.554 7.725-.643l-.013.087a7.1 7.1 0 0 1-.61 1.931c-.342.696-.845 1.377-1.583 1.889-.735.509-1.732.871-3.099.887-1.359.016-2.304-.348-2.973-.869-.675-.526-1.108-1.244-1.383-1.992a7.6 7.6 0 0 1-.422-2.087l-.003-.084z" class="st3"/><path d="M22.796 32.647a.5.5 0 1 0 .013 1l7.817-.098a.5.5 0 1 0-.012-.999z" class="st3"/><path d="M28.651 29.6a.5.5 0 0 0-.559.432l-.32 2.473a.5.5 0 0 0 .991.129l.32-2.474a.5.5 0 0 0-.432-.56m-4.002-.079a.5.5 0 0 0-.56.432l-.32 2.473a.5.5 0 0 0 .991.129l.32-2.474a.5.5 0 0 0-.431-.56" class="st3"/></svg>