<svg xmlns="http://www.w3.org/2000/svg" xml:space="preserve" id="Layer_1" x="0" y="0" viewBox="0 0 48 48"><style>.st0{fill:#0164bf}.st1{fill:#0676de}.st2{fill:#5ab0ff}.st3{fill:#002140}.st4{fill:#fffaf0}</style><path d="M0 0h48v48H0z" class="st0"/><path d="M8 16.426v19.448c0 .942.771 1.713 1.713 1.713h4.282a1.72 1.72 0 0 1-1.713-1.713V16.426c0-.942.771-1.713 1.713-1.713H9.713c-.942 0-1.713.77-1.713 1.713" class="st1"/><path d="M24.778 7.419A2.342 2.342 0 0 0 23.694 3a2.342 2.342 0 0 0-1.058 4.433 2.33 2.33 0 0 0 2.142-.014" class="st2"/><path d="M22.636 12.245v.101h2.141V7.42c-.324.17-.692.266-1.083.266s-.741-.091-1.058-.253z" class="st0"/><path d="M29.741 12h-12v4h12z" class="st0"/><path d="M17.741 12v4h12v-4zm11 3h-10v-2h10z" class="st3"/><path d="M29.741 12h-10v4h10z" class="st1"/><path d="M19.741 12v4h10v-4zm9 3h-8v-2h8z" class="st3"/><path d="M13.996 14.713c-.942 0-1.713.771-1.713 1.713v19.448c0 .942.771 1.713 1.713 1.713h24.031a1.72 1.72 0 0 0 1.714-1.713V16.426a1.72 1.72 0 0 0-1.714-1.713z" class="st2"/><path d="M8.5 16.426c0-.666.547-1.213 1.213-1.213h28.314c.666 0 1.213.547 1.213 1.213v19.448c0 .666-.547 1.213-1.213 1.213H9.713A1.22 1.22 0 0 1 8.5 35.874zm-1 19.448c0 1.218.995 2.213 2.213 2.213h28.314a2.22 2.22 0 0 0 2.213-2.213V16.426a2.22 2.22 0 0 0-2.213-2.213H9.713A2.22 2.22 0 0 0 7.5 16.426z" class="st3"/><path d="M12.783 35.874V16.426c0-.666.547-1.213 1.213-1.213v-1a2.22 2.22 0 0 0-2.213 2.213v19.448c0 1.218.995 2.213 2.213 2.213v-1a1.22 1.22 0 0 1-1.213-1.213m9.069-30.531a1.842 1.842 0 1 1 2.803 1.572l-.108.061-.001.001a1.85 1.85 0 0 1-1.683.01l-.11-.061a1.84 1.84 0 0 1-.901-1.583m-1 0a2.84 2.84 0 0 0 1.389 2.442l.169.093c.385.196.823.307 1.284.307s.92-.115 1.315-.322v.001A2.842 2.842 0 0 0 23.694 2.5a2.84 2.84 0 0 0-2.842 2.843" class="st3"/><path d="M25.278 7.408h-1v4.836h1zm-2.142-.026h-1v4.862h1z" class="st3"/><path d="M25.754 25.149a3.978 3.978 0 1 0-2.456-7.568 3.978 3.978 0 0 0 2.456 7.568" class="st4"/><path d="M33.919 25.646a3.978 3.978 0 1 0-2.456-7.568 3.978 3.978 0 0 0 2.456 7.568" class="st4"/><path d="M27.871 20.41a3.534 3.534 0 1 0-6.723 2.183 3.534 3.534 0 0 0 6.723-2.183m.951-.309a4.534 4.534 0 1 1-8.626 2.799 4.535 4.535 0 1 1 8.626-2.799" class="st3"/><path d="M35.955 20.895a3.534 3.534 0 1 0-6.723 2.183 3.534 3.534 0 0 0 6.723-2.183m.952-.308a4.535 4.535 0 1 1-8.627 2.8 4.535 4.535 0 0 1 8.627-2.8" class="st3"/><path d="M24.605 18.075a2.9 2.9 0 0 0-2.151 3.06l1.859.062-.491 2.156a2.9 2.9 0 0 0 4.33-3.206 2.903 2.903 0 0 0-3.545-2.069zm7.698.231a2.9 2.9 0 0 0-2.151 3.06l1.859.062-.491 2.156a2.9 2.9 0 0 0 4.33-3.206 2.9 2.9 0 0 0-3.545-2.069z" class="st3"/><path d="m30.005 29.514.126 2.313s-.385 1.028-1.026 1.127c-.642.099-1.909.398-3.183.029l-1.274-.37s-2.218-.227-2.774-.635c-.555-.407-1.398-.968-1.398-.968s-.184-.449-.021-1.098.606-1.719.606-1.719l4.452 1.386s3.576.403 4.492-.066z" class="st4"/><path d="m30.006 29.621.126 2.313s-.563 1.154-1.026 1.127-2.491.252-2.491.252l-1.966-.592s-1.897-.277-2.335-.456-1.745-.767-1.745-.767-.328-.525-.112-1.478c.215-.953.606-1.719.606-1.719s-2.848-1.632-3.831-.447c-.984 1.187-.898 4.953 7.37 6.261s9.441-2.503 9.342-3.145-.358-1.26-1.26-1.466-2.677.116-2.677.116z" class="st3"/><path d="M17.475 27.047a2.16 2.16 0 0 1 1.038-.208c.696.018 1.485.285 2.271.605.4.163.816.347 1.235.532.421.186.846.375 1.275.551.862.354 1.713.649 2.521.776l.008.002c.797.123 1.672.076 2.567-.028.448-.052.891-.118 1.331-.181.436-.062.868-.122 1.278-.162.798-.076 1.608-.087 2.248.197.335.148.625.377.838.708.209.326.326.722.363 1.182l.001.018c.037.818-.337 1.513-.943 2.055-.597.534-1.433.939-2.399 1.22-1.935.563-4.518.671-7.145.221-2.633-.45-4.778-1.421-6.117-2.605-1.326-1.173-1.979-2.697-1.173-4.103q.305-.531.803-.78m1.012.791a1.2 1.2 0 0 0-.565.103.9.9 0 0 0-.382.381c-.457.796-.208 1.817.968 2.857 1.162 1.028 3.119 1.94 5.624 2.368 2.51.429 4.936.316 6.697-.196.882-.257 1.565-.604 2.011-1.003.435-.39.629-.81.611-1.258-.028-.336-.108-.559-.206-.711a.9.9 0 0 0-.401-.335c-.382-.169-.958-.192-1.748-.117-.384.037-.795.094-1.232.157-.434.062-.893.13-1.357.184-.926.108-1.91.168-2.845.022l-.03-.007c-.916-.147-1.843-.474-2.718-.833-.444-.182-.882-.376-1.301-.561a45 45 0 0 0-1.207-.521c-.78-.317-1.42-.517-1.919-.53" class="st3"/><path d="M30.075 29.336a.5.5 0 0 1 .524.474v.016l.002.041.006.152c.005.129.011.309.016.515.008.408.011.931-.016 1.354a1.766 1.766 0 0 1-1.463 1.627c-1.536.266-2.972.17-4.234-.099a.5.5 0 1 1 .209-.977c1.158.247 2.465.332 3.855.091l.127-.033a.77.77 0 0 0 .509-.673c.024-.38.022-.868.014-1.27-.004-.199-.01-.374-.014-.498l-.006-.146-.001-.039-.001-.009v-.003a.496.496 0 0 1 .473-.523" class="st3"/><path d="M20.642 28.055a.501.501 0 0 1 .925.379c-.221.538-.564 1.407-.703 1.895a.77.77 0 0 0 .364.877 10.1 10.1 0 0 0 3.667 1.193.5.5 0 1 1-.128.991 11.1 11.1 0 0 1-4.027-1.313 1.77 1.77 0 0 1-.837-2.022c.155-.549.523-1.472.739-2" class="st3"/><path d="M24.934 29.885a.5.5 0 0 1 .987.16l-.463 2.842a.5.5 0 0 1-.988-.16z" class="st3"/></svg>