<svg xmlns="http://www.w3.org/2000/svg" xml:space="preserve" id="Layer_1" x="0" y="0" viewBox="0 0 48 48"><style>.st0{fill:#cf4cd9}.st1{fill:#f9b5fe}.st2{fill:#002140}.st3{fill:#e96df2}.st4{fill:#fffaf0}.st5,.st6{fill:none;stroke:#002140;stroke-miterlimit:10}.st6{stroke-linecap:round}</style><path d="M0 0h48v48H0z" class="st0"/><path d="M24.778 7.919a2.342 2.342 0 0 0-1.083-4.42 2.342 2.342 0 0 0-1.058 4.433 2.33 2.33 0 0 0 2.141-.013" class="st1"/><path d="M22.636 12.745v.101h2.141V7.92c-.324.17-.692.266-1.083.266s-.741-.091-1.058-.253z" class="st0"/><path d="M21.852 5.843a1.841 1.841 0 1 1 3.685 0 1.84 1.84 0 0 1-.882 1.572l-.108.061-.001.001a1.85 1.85 0 0 1-1.682.01l-.11-.061a1.84 1.84 0 0 1-.902-1.583m-1 0a2.84 2.84 0 0 0 1.389 2.442l.169.093a2.85 2.85 0 0 0 2.598-.015v.001a2.84 2.84 0 0 0 1.528-2.521A2.84 2.84 0 0 0 23.694 3a2.84 2.84 0 0 0-2.842 2.843" class="st2"/><path d="M25.278 7.908h-1v4.836h1zm-2.142-.026h-1v4.862h1z" class="st2"/><path d="M8 16.426v19.448c0 .942.771 1.713 1.713 1.713h4.282a1.72 1.72 0 0 1-1.713-1.713V16.426c0-.942.771-1.713 1.713-1.713H9.713c-.942 0-1.713.77-1.713 1.713" class="st3"/><path d="M29.741 12h-12v4h12z" class="st0"/><path d="M17.741 12v4h12v-4zm11 3h-10v-2h10z" class="st2"/><path d="M29.741 12h-10v4h10z" class="st3"/><path d="M19.741 12v4h10v-4zm9 3h-8v-2h8z" class="st2"/><path d="M13.996 14.713c-.942 0-1.713.771-1.713 1.713v19.448c0 .942.771 1.713 1.713 1.713h24.031a1.72 1.72 0 0 0 1.714-1.713V16.426a1.72 1.72 0 0 0-1.714-1.713z" class="st1"/><path d="M16.627 27.985v4.143a1.17 1.17 0 0 0 1.17 1.171h2.32v-6.484h-2.32a1.17 1.17 0 0 0-1.17 1.17m3.49 5.134v.18h3.828v-6.485h-3.828z" class="st4"/><path d="M23.944 33.119v.18h3.573v-6.485h-3.573zm3.573 0v.18h3.7v-6.485h-3.7zm3.7 0v.18h2.523a1.17 1.17 0 0 0 1.17-1.171v-4.143a1.17 1.17 0 0 0-1.17-1.17h-2.523z" class="st4"/><path d="M20.117 26.815h-2.32a1.17 1.17 0 0 0-1.17 1.17v4.143a1.17 1.17 0 0 0 1.17 1.171H33.74a1.17 1.17 0 0 0 1.17-1.171v-4.143a1.17 1.17 0 0 0-1.17-1.17zm11.1-.091v6.396m-3.7-6.396v6.396m-3.573-6.396v6.396m-3.827-6.396v6.396" class="st5"/><path d="m31.226 20.024.015-.038c.093-.322.234-.624.411-.9h-2.755a.495.495 0 0 0-.495.495v2.658c0 .273.222.495.495.495h2.678v-.056a3.4 3.4 0 0 1-.403-1.059l1.914-.833v-.022z" class="st4"/><path d="m33.087 20.786-1.914.833c.075.379.213.736.403 1.059v.056h2.636a.495.495 0 0 0 .495-.495v-2.658a.495.495 0 0 0-.495-.495h-2.56a3.4 3.4 0 0 0-.411.9l-.015.038 1.86.74z" class="st2"/><path d="M31.653 19.087h-2.755a.495.495 0 0 0-.495.495v2.658c0 .273.222.495.495.495h5.314a.495.495 0 0 0 .495-.495v-2.658a.495.495 0 0 0-.495-.495z" class="st5"/><path d="m31.71 19-.057.087a3.4 3.4 0 0 0-.411.899m-.079 1.586.01.047c.075.379.213.736.403 1.059" class="st5"/><path d="m33.087 20.765-1.86-.74-.009-.004m-.045 1.598 1.914-.833" class="st6"/><path d="m19.743 20.024.015-.038c.093-.322.234-.624.411-.9h-2.755a.495.495 0 0 0-.495.495v2.658c0 .273.222.495.495.495h2.678v-.056a3.4 3.4 0 0 1-.403-1.059l1.914-.833v-.022z" class="st4"/><path d="m21.603 20.786-1.914.833c.075.379.213.736.403 1.059v.056h2.636a.495.495 0 0 0 .495-.495v-2.658a.495.495 0 0 0-.495-.495h-2.56a3.4 3.4 0 0 0-.411.9l-.015.038 1.86.74v.022z" class="st2"/><path d="M20.169 19.087h-2.755a.495.495 0 0 0-.495.495v2.658c0 .273.222.495.495.495h5.314a.495.495 0 0 0 .495-.495v-2.658a.495.495 0 0 0-.495-.495z" class="st5"/><path d="m20.226 19-.057.087a3.4 3.4 0 0 0-.411.899m-.079 1.586.01.047c.075.379.213.736.403 1.059" class="st5"/><path d="m21.603 20.765-1.86-.74-.009-.004m-.045 1.598 1.914-.833" class="st6"/><path d="M8.5 16.426c0-.666.547-1.213 1.213-1.213h28.314c.666 0 1.213.547 1.213 1.213v19.448c0 .666-.547 1.213-1.213 1.213H9.713A1.22 1.22 0 0 1 8.5 35.874zm-1 19.448c0 1.218.995 2.213 2.213 2.213h28.314a2.22 2.22 0 0 0 2.213-2.213V16.426a2.22 2.22 0 0 0-2.213-2.213H9.713A2.22 2.22 0 0 0 7.5 16.426z" class="st2"/><path d="M12.783 35.874V16.426c0-.666.547-1.213 1.213-1.213v-1a2.22 2.22 0 0 0-2.213 2.213v19.448c0 1.218.995 2.213 2.213 2.213v-1a1.22 1.22 0 0 1-1.213-1.213" class="st2"/></svg>