<svg xmlns="http://www.w3.org/2000/svg" xml:space="preserve" id="Layer_1" x="0" y="0" viewBox="0 0 48 48"><style>.st0{fill:#f25730}.st1{fill:#ffa75a}.st2{fill:#bf3013}.st3{fill:#002140}.st4{fill:#fffaf0}.st5{fill:none;stroke:#002140;stroke-width:1;stroke-linecap:round;stroke-linejoin:round}</style><path d="M0 0h48v48H0z" class="st0"/><path d="M24.778 7.919a2.342 2.342 0 0 0-1.083-4.42 2.342 2.342 0 0 0-1.058 4.433 2.33 2.33 0 0 0 2.141-.013" class="st1"/><path d="M22.636 12.745v.101h2.141V7.92c-.324.17-.692.266-1.083.266s-.741-.091-1.058-.253z" class="st2"/><path d="M21.852 5.843a1.841 1.841 0 1 1 3.685 0 1.84 1.84 0 0 1-.882 1.572l-.108.061-.001.001a1.85 1.85 0 0 1-1.682.01l-.11-.061a1.84 1.84 0 0 1-.902-1.583m-1 0a2.84 2.84 0 0 0 1.389 2.442l.169.093a2.85 2.85 0 0 0 2.598-.015v.001a2.84 2.84 0 0 0 1.528-2.521A2.84 2.84 0 0 0 23.694 3a2.84 2.84 0 0 0-2.842 2.843" class="st3"/><path d="M25.278 7.908h-1v4.836h1zm-2.142-.026h-1v4.862h1z" class="st3"/><path d="M8 16.426v19.448c0 .942.771 1.713 1.713 1.713h4.282a1.72 1.72 0 0 1-1.713-1.713V16.426c0-.942.771-1.713 1.713-1.713H9.713c-.942 0-1.713.77-1.713 1.713" class="st0"/><path d="M29.741 12h-12v4h12z" class="st2"/><path d="M17.741 12v4h12v-4zm11 3h-10v-2h10z" class="st3"/><path d="M29.741 12h-10v4h10z" class="st0"/><path d="M19.741 12v4h10v-4zm9 3h-8v-2h8z" class="st3"/><path d="M13.996 14.713c-.942 0-1.713.771-1.713 1.713v19.448c0 .942.771 1.713 1.713 1.713h24.031a1.72 1.72 0 0 0 1.714-1.713V16.426a1.72 1.72 0 0 0-1.714-1.713z" class="st1"/><path d="M8.5 16.426c0-.666.547-1.213 1.213-1.213h28.314c.666 0 1.213.547 1.213 1.213v19.448c0 .666-.547 1.213-1.213 1.213H9.713A1.22 1.22 0 0 1 8.5 35.874zm-1 19.448c0 1.218.995 2.213 2.213 2.213h28.314a2.22 2.22 0 0 0 2.213-2.213V16.426a2.22 2.22 0 0 0-2.213-2.213H9.713A2.22 2.22 0 0 0 7.5 16.426z" class="st3"/><path d="M12.783 35.874V16.426c0-.666.547-1.213 1.213-1.213v-1a2.22 2.22 0 0 0-2.213 2.213v19.448c0 1.218.995 2.213 2.213 2.213v-1a1.22 1.22 0 0 1-1.213-1.213" class="st3"/><path d="M27.463 20.031s5.329-1.192 7.649-.188c0 0 1.317 2.759-.564 4.827 0 0-3.073-1.505-6.96-.564 0 0-1.317-1.881-.125-4.076z" class="st4"/><path d="M31.304 26.15a4.25 4.25 0 1 1 0-8.5 4.25 4.25 0 0 1 0 8.5" class="st5"/><path d="M34.993 19.956c-.687-.234-3.982-1.206-7.535.225m.238 3.862c.59-.101 3.999-.612 6.742.583" class="st5"/><path d="M32.363 19.412a2.76 2.76 0 0 0-1.814 1.746l1.413.843-1.352 1.093c.126.303.305.58.524.816 0 0 2.836.601 2.961.629s.539.067.615-.055 1.42-1.79.794-3.557c-.505-1.337-1.029-1.074-1.029-1.074z" class="st3"/><path d="M17.119 20.031s5.329-1.192 7.649-.188c0 0 1.317 2.759-.564 4.827 0 0-3.073-1.505-6.96-.564 0 0-1.317-1.881-.125-4.076z" class="st4"/><path d="M20.96 26.15a4.25 4.25 0 1 1 0-8.5 4.25 4.25 0 0 1 0 8.5" class="st5"/><path d="M24.649 19.956c-.687-.234-3.983-1.206-7.535.225m.237 3.862c.59-.101 4-.612 6.742.583" class="st5"/><path d="M22.019 19.412a2.76 2.76 0 0 0-1.814 1.746l1.413.843-1.352 1.093c.126.303.305.58.524.816 0 0 2.836.601 2.961.629s.538.067.615-.055 1.42-1.79.794-3.557c-.505-1.337-1.029-1.074-1.029-1.074z" class="st3"/><path d="M32.857 29.51s-.936-1.692-1.897-1.053c-.96.639-3.267 1.582-4.217 1.37-.948-.21-3.374-1.16-4.005-.844-.631.317-1.792.632-1.687 2.004s.632 2.845 5.693 3.162c5.058.317 6.218-3.161 6.113-4.639" class="st4"/><path d="M33.007 30.073c-.791-3.16-4.253-.21-6.019-.188-1.468-.038-2.354-1.156-3.874-1.053s-2.326.972-2.145 2.483 1.806 2.897 6.057 2.897 6.226-2.776 5.981-4.136z" class="st5"/><path d="M23.374 28.943s-.079 3.901-.072 4.477m3.574-3.348-.038 3.874m3.16-4.85v4.401" class="st5"/></svg>