<svg xmlns="http://www.w3.org/2000/svg" xmlns:xlink="http://www.w3.org/1999/xlink" id="Layer_1" x="0" y="0" version="1.1" viewBox="0 0 20 20" style="enable-background:new 0 0 20 20" xml:space="preserve"><style type="text/css">.st0{fill-rule:evenodd;clip-rule:evenodd}</style><path d="M13,3c0.6,0,1,0.4,1,1s0.4,1,1,1h2.9C18.5,5,19,5.5,19,6.1v9.7c0,0.6-0.5,1.1-1.1,1.1H2.1C1.5,17,1,16.5,1,15.9	V6.1C1,5.5,1.5,5,2.1,5H5c0.6,0,1-0.4,1-1s0.4-1,1-1H13z M10,15c2.2,0,4-1.8,4-4c0-2.2-1.8-4-4-4c-2.2,0-4,1.8-4,4	C6,13.2,7.8,15,10,15z" class="st0"/></svg>