<?xml version="1.0" encoding="utf-8"?>
<!-- Generator: Adobe Illustrator 25.2.1, SVG Export Plug-In . SVG Version: 6.00 Build 0)  -->
<svg version="1.1" id="Layer_1" xmlns="http://www.w3.org/2000/svg" xmlns:xlink="http://www.w3.org/1999/xlink" x="0px" y="0px"
	 viewBox="0 0 40 40" style="enable-background:new 0 0 40 40;" xml:space="preserve">
<style type="text/css">
	.st0{fill:#0B1B34;}
	.st1{fill:#FFFFFF;}
</style>
<path class="st0" d="M20,0L20,0c11,0,20,9,20,20l0,0c0,11-9,20-20,20l0,0C9,40,0,31,0,20l0,0C0,9,9,0,20,0z"/>
<path class="st1" d="M23.4,15.8l-3-1c-0.1-0.1-0.2-0.1-0.4-0.1s-0.2,0-0.4,0.1l-3,1c-0.5,0.1-0.9,0.7-0.9,1.2c0.1,2.9,1.1,6.2,4.2,8
	c3.1-1.6,4-5.1,4.2-8C24.2,16.4,23.9,15.9,23.4,15.8z"/>
<path class="st1" d="M26.6,13.5l-6.2-2.1c-0.2-0.1-0.5-0.1-0.8,0l-6.2,2.1c-0.5,0.1-0.9,0.6-0.9,1.1c0.1,5,1.8,10.5,7.1,13.9
	c0.2,0.1,0.5,0.1,0.6,0c5.5-3.1,7-8.8,7.1-13.9C27.5,14.1,27.1,13.6,26.6,13.5z M20.6,26.1L20,26.4L19.4,26c-2.9-1.6-4.6-4.8-4.9-9
	c0-1.1,0.6-2.1,1.8-2.5l3-1c0.2,0,0.5-0.1,0.8-0.1s0.5,0,0.8,0.1l3,1c1.1,0.4,1.8,1.4,1.8,2.5C25.2,21.4,23.5,24.5,20.6,26.1z"/>
</svg>
