<svg xmlns="http://www.w3.org/2000/svg" xmlns:xlink="http://www.w3.org/1999/xlink" id="Layer_1" x="0" y="0" version="1.1" viewBox="0 0 40 40" style="enable-background:new 0 0 40 40" xml:space="preserve"><style type="text/css">.st0{fill:#8b9c8f}.st1,.st2{fill:#fff}.st2{fill-rule:evenodd;clip-rule:evenodd}</style><path d="M20,0L20,0c11,0,20,9,20,20l0,0c0,11-9,20-20,20l0,0C9,40,0,31,0,20l0,0C0,9,9,0,20,0z" class="st0"/><path d="M20.6,24.2c-0.4,0.3-0.9,0.3-1.3,0c-2.3-2.1-3.9-4.5-4.3-7.7c-0.1-0.5,0.3-0.9,0.7-1l3.9-1.1c0.2,0,0.4,0,0.5,0	l3.9,1.1c0.5,0.1,0.8,0.6,0.7,1C24.5,19.7,22.9,22.1,20.6,24.2z" class="st1"/><path d="M19.7,10.1c0.2,0,0.4,0,0.5,0l8,2.2c0.4,0.1,0.7,0.5,0.7,1v0.1c0,4-0.8,7.3-2.3,10c-1.5,2.7-3.6,4.7-6.2,6.5	c-0.3,0.2-0.7,0.2-1,0c-2.6-1.7-4.7-3.8-6.2-6.5c-1.5-2.7-2.3-5.9-2.3-10v-0.1c0-0.4,0.3-0.8,0.7-1L19.7,10.1z M20.3,12.4	c-0.2,0-0.4,0-0.5,0l-6,1.7c-0.4,0.1-0.7,0.5-0.7,1c0,5.4,2.7,9,6.4,11.8c0.4,0.3,0.9,0.3,1.2,0C24.3,24,27,20.4,27,15	c0-0.4-0.3-0.8-0.7-1L20.3,12.4z" class="st2"/></svg>