<?xml version="1.0" encoding="utf-8"?>
<!-- Generator: Adobe Illustrator 26.5.0, SVG Export Plug-In . SVG Version: 6.00 Build 0)  -->
<svg version="1.1" id="Layer_1" xmlns="http://www.w3.org/2000/svg" xmlns:xlink="http://www.w3.org/1999/xlink" x="0px" y="0px"
	 viewBox="0 0 40 40" style="enable-background:new 0 0 40 40;" xml:space="preserve">
<style type="text/css">
	.st0{fill:#8B9C8F;}
	.st1{fill:#FFFFFF;}
</style>
<path class="st0" d="M20,0L20,0c11,0,20,9,20,20l0,0c0,11-9,20-20,20l0,0C9,40,0,31,0,20l0,0C0,9,9,0,20,0z"/>
<path class="st1" d="M20.4,13.1L15,17h-4c-0.6,0-1,0.4-1,1v4c0,0.6,0.4,1,1,1l1.8,5.3c0.1,0.4,0.5,0.7,0.9,0.7h0.1
	c0.6,0,1.1-0.6,1-1.2L14,23h1l5.4,3.9c0.7,0.5,1.6,0,1.6-0.8V22c1.1,0,2-0.9,2-2s-0.9-2-2-2v-4.1C22,13.1,21.1,12.7,20.4,13.1z"/>
<path class="st1" d="M26,19c-0.6,0-1,0.4-1,1s0.4,1,1,1h3c0.6,0,1-0.4,1-1s-0.4-1-1-1H26z"/>
<path class="st1" d="M28.2,13.8c0.4,0.4,0.4,1,0,1.4l-2,2c-0.4,0.4-1,0.4-1.4,0c-0.4-0.4-0.4-1,0-1.4l2-2
	C27.2,13.4,27.8,13.4,28.2,13.8z"/>
<path class="st1" d="M28.2,24.8c0.4,0.4,0.4,1,0,1.4c-0.4,0.4-1,0.4-1.4,0l-2-2c-0.4-0.4-0.4-1,0-1.4c0.4-0.4,1-0.4,1.4,0L28.2,24.8
	z"/>
</svg>
