<?xml version="1.0" encoding="utf-8"?>
<!-- Generator: Adobe Illustrator 25.2.1, SVG Export Plug-In . SVG Version: 6.00 Build 0)  -->
<svg version="1.1" id="Layer_1" xmlns="http://www.w3.org/2000/svg" xmlns:xlink="http://www.w3.org/1999/xlink" x="0px" y="0px"
	 viewBox="0 0 40 40" style="enable-background:new 0 0 40 40;" xml:space="preserve">
<style type="text/css">
	.st0{fill:#0B1B34;}
	.st1{fill:#FFFFFF;}
</style>
<path class="st0" d="M20,0L20,0c11,0,20,9,20,20l0,0c0,11-9,20-20,20l0,0C9,40,0,31,0,20l0,0C0,9,9,0,20,0z"/>
<path class="st1" d="M26,18.6c0-0.9-0.5-1.8-1.2-2.1v-3.1c0-1-1-1.5-1.9-1.1l-6.9,4v5l6.9,3.9c0.9,0.5,1.9-0.1,1.9-1.1v-3.2
	C25.5,20.4,26,19.6,26,18.6z"/>
<path class="st1" d="M16.9,26.6l-2.1-5.5v-4.9h-2.5c-0.8,0-1.2,0.5-1.2,1.2V20c0,0.8,0.5,1.2,1.2,1.2l2.2,5.9
	c0.2,0.2,0.4,0.4,0.6,0.4h1.1C16.8,27.5,17.1,27,16.9,26.6z"/>
<path class="st1" d="M29.1,19.4h-1.2c-0.4,0-0.6-0.2-0.6-0.6s0.2-0.6,0.6-0.6h1.2c0.4,0,0.6,0.2,0.6,0.6S29.5,19.4,29.1,19.4z"/>
<path class="st1" d="M27.9,24.4c-0.1,0-0.4,0-0.5-0.1l-0.9-0.9c-0.2-0.2-0.2-0.6,0-0.9s0.6-0.2,0.9,0l0.9,0.9c0.2,0.2,0.2,0.6,0,0.9
	C28.1,24.4,28,24.4,27.9,24.4z"/>
<path class="st1" d="M26.9,15.3c-0.1,0-0.4,0-0.5-0.1c-0.2-0.2-0.2-0.6,0-0.9l0.9-0.9c0.2-0.2,0.6-0.2,0.9,0s0.2,0.6,0,0.9l-0.9,0.9
	C27.2,15.3,27.1,15.3,26.9,15.3z"/>
</svg>
