<?xml version="1.0" encoding="utf-8"?>
<!-- Generator: Adobe Illustrator 26.5.0, SVG Export Plug-In . SVG Version: 6.00 Build 0)  -->
<svg version="1.1" id="Layer_1" xmlns="http://www.w3.org/2000/svg" xmlns:xlink="http://www.w3.org/1999/xlink" x="0px" y="0px"
	 viewBox="0 0 80 80" style="enable-background:new 0 0 80 80;" xml:space="preserve">
<style type="text/css">
	.st0{fill:#085239;}
	.st1{fill:#03D47C;}
	.st2{fill:#002140;}
	.st3{fill:#FFFAF0;}
	.st4{fill:none;stroke:#002140;stroke-linecap:round;stroke-linejoin:round;}
	.st5{fill:#FED607;}
</style>
<path class="st0" d="M40,0L40,0c22.1,0,40,17.9,40,40l0,0c0,22.1-17.9,40-40,40l0,0C17.9,80,0,62.1,0,40l0,0C0,17.9,17.9,0,40,0z"/>
<path class="st1" d="M11.9,59.5h56.5L40,9.8L11.9,59.5z"/>
<path class="st2" d="M33.3,53.8c0,0,2.3,3.1,7.1,3c4.8-0.1,6.8-3.2,6.8-3.2L33.3,53.8L33.3,53.8z"/>
<path class="st3" d="M28.5,29.4c0,0,0.3,8.7,11.5,8.7c11.2,0,10-9.3,10-9.3s-4.5-4-10.6-4.2C33.4,24.5,28.5,29.4,28.5,29.4
	L28.5,29.4z"/>
<path class="st3" d="M49.5,49.2H31.6l1.3,4h15.4L49.5,49.2z"/>
<path class="st4" d="M40,9.6L12,59.4h56.6L40,9.6z"/>
<path class="st4" d="M50.5,29c0,0-11.2-9.8-21.5,0.1"/>
<path class="st4" d="M28.7,29.8c0,0,0,8,11.2,8s10.2-9.4,10.2-9.4"/>
<path class="st2" d="M41,31.6l3-2.6c-0.8-1.5-2.3-2.5-4.1-2.5c-2.5,0-4.6,2.1-4.6,4.6c0,2.5,2.1,4.6,4.6,4.6c2.2,0,4-1.5,4.4-3.5
	L41,31.6L41,31.6z"/>
<path class="st4" d="M20.2,45.3h40"/>
<path class="st4" d="M33.5,21.7h13.4"/>
<path class="st4" d="M32.4,45.2l2.6-7.5"/>
<path class="st4" d="M48.2,45.2L45,37"/>
<path class="st4" d="M49.4,49.2H31.3c0,0,0.4,7.4,9,7.4C48.8,56.7,49.4,49.2,49.4,49.2z"/>
<path class="st4" d="M40.3,59.2V57"/>
<path class="st4" d="M40.3,49.2v-3.5"/>
<path class="st4" d="M33.3,53.7h13.9"/>
<path class="st4" d="M37.1,53.5v-4"/>
<path class="st4" d="M44.2,53.5v-4"/>
<path class="st5" d="M66.1,28c0,0-1.3,5.5-5.6,5.5c0,0,5,1.4,5.4,5.4c0,0,1.5-4.8,5.8-5.2C71.6,33.7,66.4,32.5,66.1,28L66.1,28z"/>
<path class="st4" d="M71.9,33.6c-4.1,1.1-4.9,1.9-6,6c-1.1-4.1-1.9-4.9-6-6c4.1-1.1,4.9-1.9,6-6C67,31.7,67.9,32.5,71.9,33.6z"/>
<path class="st5" d="M15.1,28.2c0,0-2.2,5.2-5.6,5.5c0,0,4.9,2.2,5.4,5.4c0,0,2-5,5.8-5.5C20.6,33.5,15.4,32.7,15.1,28.2L15.1,28.2z
	"/>
<path class="st4" d="M21,33.6c-4.1,1.1-4.9,1.9-6,6c-1.1-4.1-1.9-4.9-6-6c4.1-1.1,4.9-1.9,6-6C16.1,31.7,16.9,32.5,21,33.6z"/>
</svg>
