<?xml version="1.0" encoding="utf-8"?>
<!-- Generator: Adobe Illustrator 26.5.0, SVG Export Plug-In . SVG Version: 6.00 Build 0)  -->
<svg version="1.1" id="Layer_1" xmlns="http://www.w3.org/2000/svg" xmlns:xlink="http://www.w3.org/1999/xlink" x="0px" y="0px"
	 viewBox="0 0 40 40" style="enable-background:new 0 0 40 40;" xml:space="preserve">
<style type="text/css">
	.st0{fill:#8B9C8F;}
	.st1{fill-rule:evenodd;clip-rule:evenodd;fill:#FFFFFF;}
	.st2{fill:#FFFFFF;}
</style>
<path class="st0" d="M20,0L20,0c11,0,20,9,20,20l0,0c0,11-9,20-20,20l0,0C9,40,0,31,0,20l0,0C0,9,9,0,20,0z"/>
<path class="st1" d="M15.9,13c0-1.7,1.3-3,3-3h2c1.7,0,3,1.3,3,3H27c0.2,0,0.5,0.2,0.5,0.4l0.3,2c0.1,0.3-0.2,0.6-0.5,0.6H12.5
	c-0.3,0-0.5-0.3-0.5-0.6l0.3-2c0-0.2,0.2-0.4,0.5-0.4H15.9z M17.9,13c0-0.6,0.4-1,1-1h2c0.6,0,1,0.4,1,1H17.9z"/>
<path class="st2" d="M13,18.5l0.9,10c0,0.3,0.2,0.5,0.5,0.5h11.1c0.3,0,0.5-0.2,0.5-0.5l0.9-10c0-0.3-0.2-0.5-0.5-0.5H13.5
	C13.2,18,12.9,18.3,13,18.5z"/>
</svg>
