<?xml version="1.0" encoding="utf-8"?>
<!-- Generator: Adobe Illustrator 26.1.0, SVG Export Plug-In . SVG Version: 6.00 Build 0)  -->
<svg version="1.1" id="Layer_1" xmlns="http://www.w3.org/2000/svg" xmlns:xlink="http://www.w3.org/1999/xlink" x="0px" y="0px"
	 viewBox="0 0 40 40" style="enable-background:new 0 0 40 40;" xml:space="preserve">
<style type="text/css">
	.st0{fill:#0B1B34;}
	.st1{fill:#FFFFFF;}
</style>
<path class="st0" d="M20,0L20,0c11,0,20,9,20,20l0,0c0,11-9,20-20,20l0,0C9,40,0,31,0,20l0,0C0,9,9,0,20,0z"/>
<path class="st1" d="M20,11.3c-4.9,0-8.8,3.9-8.8,8.7s3.9,8.8,8.8,8.8s8.8-3.9,8.8-8.8S24.9,11.3,20,11.3z M20.2,13.4
	c-1,0.1-1.4,2.6-2.8,2.5c-2.9-0.4-3.6,3.1-3.6,3.7c0,0.4,0.1,1,1.4,0.8c0.8-0.2,1.9,0.4,2.2,0.9c0.4,0.6,0.2,1,1.2,1.2
	S20,22.3,20,24c0,0.9-1.9,2.6-2.4,3.1c-0.6-0.2-1.1-0.5-1.8-0.9c0-0.6-0.2-1.8-1-2.2c-1-0.8-1.1-1.6-1.2-1.9
	c-0.4-1.8-0.4-1.8-1.1-2.5c0.2-4,3.5-7.1,7.5-7.1c0.2,0,0.5,0,0.9,0C20.9,12.9,20.9,13.4,20.2,13.4z M25.9,25
	c-0.1-0.1-0.1-0.2-0.1-0.4c0.1-0.6,0.6-1.1,0.6-1.8s-0.8-1.8-1.4-1.4c0,0-0.6,0.2-1.2,0.1s-1.1-1-1.2-1.4c-0.4-1.1,1-1.5,1-3.8
	c0-1,1.8-0.5,2.9-0.1c0.8,1.1,1.1,2.5,1.1,3.9C27.5,22.1,26.9,23.8,25.9,25z"/>
</svg>
