<?xml version="1.0" encoding="utf-8"?>
<!-- Generator: Adobe Illustrator 26.5.0, SVG Export Plug-In . SVG Version: 6.00 Build 0)  -->
<svg version="1.1" id="Layer_1" xmlns="http://www.w3.org/2000/svg" xmlns:xlink="http://www.w3.org/1999/xlink" x="0px" y="0px"
	 viewBox="0 0 40 40" style="enable-background:new 0 0 40 40;" xml:space="preserve">
<style type="text/css">
	.st0{fill:#8B9C8F;}
	.st1{fill-rule:evenodd;clip-rule:evenodd;fill:#FFFFFF;}
</style>
<path class="st0" d="M20,0L20,0c11,0,20,9,20,20l0,0c0,11-9,20-20,20l0,0C9,40,0,31,0,20l0,0C0,9,9,0,20,0z"/>
<path class="st1" d="M17.3,11.4c0.8-0.3,1.7-0.4,2.7-0.4c3.5,0,6.6,2,8.1,5c0.6,1.2,0.9,2.6,0.9,4c0,2.7-1.2,5.1-3,6.7
	c-0.1,0.1-0.2,0.2-0.3,0.2C24.2,28.2,22.2,29,20,29c-3.4,0-6.4-1.9-7.9-4.7C11.4,23,11,21.5,11,20C11,16,13.7,12.5,17.3,11.4z
	 M19.9,27c1-1.5,0.6-4-0.9-4c-2,0-2-1-2-2c0-0.8-2-1-3-1c-0.2-1,0-3,2-3c1.5,0,2-0.5,2-1.5s0.5-1.5,1.5-1.5c0.9,0,1.6-0.3,2-0.8
	C21,13.1,20.5,13,20,13c-3.9,0-7,3.1-7,7C13,23.8,16.1,26.9,19.9,27z M24.9,24.9C24.5,24.5,24,24,24,23c0-0.5-0.5-1-1-1
	c-1.5,0-2-0.5-2-2c0-1.2,1.3-1.8,2-2c0-0.7,0.4-2,2-2h0.7c0.8,1.1,1.3,2.5,1.3,4C27,21.9,26.2,23.7,24.9,24.9z"/>
</svg>
