<?xml version="1.0" encoding="utf-8"?>
<!-- Generator: Adobe Illustrator 26.1.0, SVG Export Plug-In . SVG Version: 6.00 Build 0)  -->
<svg version="1.1" id="Layer_1" xmlns="http://www.w3.org/2000/svg" xmlns:xlink="http://www.w3.org/1999/xlink" x="0px" y="0px"
	 viewBox="0 0 40 40" style="enable-background:new 0 0 40 40;" xml:space="preserve">
<style type="text/css">
	.st0{fill:#C6C9CA;}
	.st1{fill:#FFFFFF;}
</style>
<path class="st0" d="M20,0L20,0c11,0,20,9,20,20l0,0c0,11-9,20-20,20l0,0C9,40,0,31,0,20l0,0C0,9,9,0,20,0z"/>
<path class="st1" d="M25.6,11.3H14.4c-0.4,0-0.6,0.2-0.6,0.6v17.5c0,0.4,0.2,0.6,0.6,0.6h4v-4.4c0-0.4,0.2-0.6,0.6-0.6h2.1
	c0.4,0,0.6,0.2,0.6,0.6V30h4c0.4,0,0.6-0.2,0.6-0.6V11.9C26.2,11.5,26,11.3,25.6,11.3z M23.1,22.5h-6.2c-0.4,0-0.6-0.2-0.6-0.6
	s0.2-0.6,0.6-0.6h6.2c0.4,0,0.6,0.2,0.6,0.6S23.5,22.5,23.1,22.5z M23.1,18.8h-6.2c-0.4,0-0.6-0.2-0.6-0.6s0.2-0.6,0.6-0.6h6.2
	c0.4,0,0.6,0.2,0.6,0.6S23.5,18.8,23.1,18.8z M23.1,15h-6.2c-0.4,0-0.6-0.2-0.6-0.6s0.2-0.6,0.6-0.6h6.2c0.4,0,0.6,0.2,0.6,0.6
	S23.5,15,23.1,15z"/>
</svg>
