<?xml version="1.0" encoding="utf-8"?>
<!-- Generator: Adobe Illustrator 26.5.0, SVG Export Plug-In . SVG Version: 6.00 Build 0)  -->
<svg version="1.1" id="Layer_1" xmlns="http://www.w3.org/2000/svg" xmlns:xlink="http://www.w3.org/1999/xlink" x="0px" y="0px"
	 viewBox="0 0 40 40" style="enable-background:new 0 0 40 40;" xml:space="preserve">
<style type="text/css">
	.st0{fill:#1B5744;}
	.st1{fill:#8B9C8F;}
</style>
<path class="st0" d="M20,0L20,0c11,0,20,9,20,20l0,0c0,11-9,20-20,20l0,0C9,40,0,31,0,20l0,0C0,9,9,0,20,0z"/>
<path class="st1" d="M29,27c0,1.5-1,2-2.5,2s-4.2,0-6.5,0s-4.9,0-6.5,0S11,28.5,11,27c0-4,4.5-7,9-7C24.5,20,29,23,29,27z"/>
<path class="st1" d="M24,15c0,2.2-1.8,4-4,4s-4-1.8-4-4s1.8-4,4-4S24,12.8,24,15z"/>
</svg>
