<?xml version="1.0" encoding="UTF-8"?>
<svg id="uuid-9b9cf8e9-a203-4026-817e-281e9af3f8be" data-name="Layer 1" xmlns="http://www.w3.org/2000/svg"
	viewBox="0 0 40 40">
	<path
		d="M20,0C8.95,0,0,8.95,0,20s8.95,20,20,20,20-8.95,20-20S31.05,0,20,0Zm.2,5.9c4.6,0,8.4,3.8,8.4,8.4s-3.7,8.4-8.4,8.4-8.4-3.8-8.4-8.4,3.8-8.4,8.4-8.4Zm-.2,31.1c-5,0-9.5-2.2-12.6-5.6,3.1-3.6,7.7-5.9,12.8-5.9s9.5,2.2,12.6,5.7c-3.1,3.5-7.7,5.8-12.8,5.8Z"
		style="fill: #c6c9ca; fill-opacity:0.69;" />
	<path d="M32.8,31.2c-3.1,3.5-7.7,5.8-12.8,5.8s-9.5-2.2-12.6-5.6c3.1-3.6,7.7-5.9,12.8-5.9s9.5,2.2,12.6,5.7Z"
		style="fill: #fff;fill-opacity:0.69;" />
	<circle cx="20.2" cy="14.3" r="8.4" transform="translate(-4.2 18.47) rotate(-45)"
		style="fill: #fff;fill-opacity:0.69;" />
</svg>