<svg xmlns="http://www.w3.org/2000/svg" xml:space="preserve" id="Layer_1" x="0" y="0" viewBox="0 0 40 40"><style>.st0{fill:#8b9c8f}.st1{fill:#fff}</style><path d="M20 0c11 0 20 9 20 20s-9 20-20 20S0 31 0 20 9 0 20 0" class="st0"/><path d="M11 23v-2c0-1.1.9-2 2-2s2 .9 2 2c0 .6.4 1 1 1h8c.6 0 1-.4 1-1 0-1.1.9-2 2-2s2 .9 2 2v2c0 .4-.1.8-.3 1.1-.6.9-1.7 1.8-1.7 2.9h-2v-2H15v2h-2c0-1.1-1.1-2-1.7-2.9-.2-.3-.3-.7-.3-1.1" class="st1"/><path d="M14 17h.6c1.3 0 2.4 1.1 2.4 2.4 0 .3.3.6.6.6h4.8c.3 0 .6-.3.6-.6 0-1.3 1.1-2.4 2.4-2.4h.6v-3c0-1.1-.9-2-2-2h-8c-1.1 0-2 .9-2 2z" class="st1"/></svg>