<?xml version="1.0" encoding="utf-8"?>
<!-- Generator: Adobe Illustrator 24.3.0, SVG Export Plug-In . SVG Version: 6.00 Build 0)  -->
<svg version="1.1" id="Layer_1" xmlns="http://www.w3.org/2000/svg" xmlns:xlink="http://www.w3.org/1999/xlink" x="0px" y="0px"
	 viewBox="0 0 40 40" style="enable-background:new 0 0 40 40;" xml:space="preserve">
<style type="text/css">
	.st0{fill:#C6C9CA;}
	.st1{fill:#FFFFFF;}
</style>
<rect class="st0" width="40" height="40"/>
<g>
	<path class="st1" d="M16.2,20.6v0.6h7.5v-0.6c0-1.5,1.1-2.8,2.5-3.1v-1.3c0-2.8-2.2-5-5-5h-2.5c-2.8,0-5,2.2-5,5v1.3
		C15.2,17.9,16.2,19.1,16.2,20.6z"/>
	<path class="st1" d="M26.9,18.8c-1,0-1.9,0.8-1.9,1.9v1.9H15v-1.9c0-1-0.8-1.9-1.9-1.9s-1.9,0.8-1.9,1.9c0,0.8,0.5,1.5,1.2,1.8v6.4
		H15v-2.5h10v2.5h2.5v-6.4c0.7-0.3,1.2-0.9,1.2-1.8C28.8,19.6,27.9,18.8,26.9,18.8z"/>
</g>
</svg>
