<?xml version="1.0" encoding="utf-8"?>
<!-- Generator: Adobe Illustrator 26.5.0, SVG Export Plug-In . SVG Version: 6.00 Build 0)  -->
<svg version="1.1" id="Layer_1" xmlns="http://www.w3.org/2000/svg" xmlns:xlink="http://www.w3.org/1999/xlink" x="0px" y="0px"
	 viewBox="0 0 40 40" style="enable-background:new 0 0 40 40;" xml:space="preserve">
<style type="text/css">
	.st0{fill:#8B9C8F;}
	.st1{fill:#FFFFFF;}
</style>
<path class="st0" d="M20,0L20,0c11,0,20,9,20,20l0,0c0,11-9,20-20,20l0,0C9,40,0,31,0,20l0,0C0,9,9,0,20,0z"/>
<path class="st1" d="M11,23v-2c0-1.1,0.9-2,2-2s2,0.9,2,2c0,0.6,0.4,1,1,1h8c0.6,0,1-0.4,1-1c0-1.1,0.9-2,2-2s2,0.9,2,2v2
	c0,0.4-0.1,0.8-0.3,1.1C28.1,25,27,25.9,27,27h-2v-2H15v2h-2c0-1.1-1.1-2-1.7-2.9C11.1,23.8,11,23.4,11,23z"/>
<path class="st1" d="M14,17h0.6c1.3,0,2.4,1.1,2.4,2.4c0,0.3,0.3,0.6,0.6,0.6h4.8c0.3,0,0.6-0.3,0.6-0.6c0-1.3,1.1-2.4,2.4-2.4H26
	v-3c0-1.1-0.9-2-2-2h-8c-1.1,0-2,0.9-2,2V17z"/>
</svg>
