<?xml version="1.0" encoding="utf-8"?>
<!-- Generator: Adobe Illustrator 25.2.1, SVG Export Plug-In . SVG Version: 6.00 Build 0)  -->
<svg version="1.1" id="Layer_1" xmlns="http://www.w3.org/2000/svg" xmlns:xlink="http://www.w3.org/1999/xlink" x="0px" y="0px"
	 viewBox="0 0 40 40" style="enable-background:new 0 0 40 40;" xml:space="preserve">
<style type="text/css">
	.st0{fill:#0B1B34;}
	.st1{fill:#FFFFFF;}
</style>
<path class="st0" d="M20,0L20,0c11,0,20,9,20,20l0,0c0,11-9,20-20,20l0,0C9,40,0,31,0,20l0,0C0,9,9,0,20,0z"/>
<path class="st1" d="M16.2,20.6v0.6h7.5v-0.6c0-1.5,1.1-2.8,2.5-3.1v-1.3c0-2.8-2.2-5-5-5h-2.5c-2.8,0-5,2.2-5,5v1.3
	C15.2,17.9,16.2,19.1,16.2,20.6z"/>
<path class="st1" d="M26.9,18.8c-1,0-1.9,0.8-1.9,1.9v1.9H15v-1.9c0-1-0.8-1.9-1.9-1.9s-1.9,0.8-1.9,1.9c0,0.8,0.5,1.5,1.2,1.8v0.1
	v6.2H15v-2.5h10v2.5h2.5v-6.2v-0.1c0.7-0.3,1.2-0.9,1.2-1.8C28.8,19.6,27.9,18.8,26.9,18.8z"/>
</svg>
