<svg xmlns="http://www.w3.org/2000/svg" xmlns:xlink="http://www.w3.org/1999/xlink" id="Layer_1" x="0" y="0" version="1.1" viewBox="0 0 375 325" xml:space="preserve" style="enable-background:new 0 0 375 325"><style type="text/css">.st2{fill:#03d47c}.st3{fill:#722b03}.st4{fill:none;stroke:#002140;stroke-width:.999;stroke-linecap:round;stroke-miterlimit:10}.st5{fill:#fed607}.st6{fill:#e4bc07}.st7{fill:#002e22}.st8{fill:#008c59}.st9{fill:#fff;filter:url(#Adobe_OpacityMaskFilter)}.st10{mask:url(#mask0_4164_707_00000047038662134534516940000015966784428477716376_)}.st11{fill:#d18000}.st13{mask:url(#mask1_4164_707_00000044142283723923833000000012561657973121629096_)}.st15{mask:url(#mask2_4164_707_00000039815677223169929360000015788554321937775006_)}.st16{fill:#99f6ff;stroke:#002140;stroke-width:1;stroke-linecap:round;stroke-miterlimit:10}.st17{fill:#fffaf0}</style><g><defs><rect id="SVGID_1_" width="375" height="325"/></defs><clipPath id="SVGID_00000136404751772924418670000002126415666049685668_"><use xlink:href="#SVGID_1_" style="overflow:visible"/></clipPath><g style="clip-path:url(#SVGID_00000136404751772924418670000002126415666049685668_)"><g><defs><rect id="SVGID_00000150814043562413128940000003135986000713966208_" width="277.459" height="420.31" x="87.969" y="-21.457" transform="matrix(0.7071 -0.7071 0.7071 0.7071 -67.0315 215.5686)"/></defs><clipPath id="SVGID_00000027572992977126448900000015083662095165185956_"><use xlink:href="#SVGID_00000150814043562413128940000003135986000713966208_" style="overflow:visible"/></clipPath><g style="clip-path:url(#SVGID_00000027572992977126448900000015083662095165185956_)"><g><path d="M111.58,78.089c4.046,0.32,8.885,1.439,14.703,3.312c3.144,1.009,6.647,2.183,10.285,3.428 c7.821,2.678,16.259,5.708,23.142,8.238c10.078,3.713,14.586,9.813,9.816,20.424c-4.774,10.609-31.832-1.591-37.398-2.92 c-5.573-1.33-11.139-3.183-15.386,1.064c-4.246,4.246-4.45,8.998-1.323,23.607c3.526,16.501,7.724,22.265,13.17,23.073 c4.8,0.718,10.428-1.934,19.455-10.961c9.547-9.547,10.078-12.911,21.75-24.584c6.899-6.898,18.966-15.11,27.055-4.77 c9.547,12.2-11.404,27.847-22.808,39.788c-13.484,14.105-7.96,23.342-23.08,37.932c-6.821,7.28-14.503,8.428-20.357,7.419 l-0.068,0.624c1.844,2.833,7.95,13.151,17.307,24.254l-29.775,29.775l-0.197,0.184c-11.986-12.814-21.786-26.482-29.067-38.29 c-12.685-20.577-20.386-52.787-18.587-78.901c0.055-0.824,0.12-1.639,0.201-2.445c1.562-16.782,10.689-36.731,17.174-49.115 c3.768-7.19,6.643-11.831,6.643-11.831s15.259-29.412,24.807-57.35c2.83-8.49,2.713-15.45,6.575-18.167 c3.865-2.714,12.019,0.466,14.997,4.984c2.979,4.512,2.785,12.035-2.276,24.011c-5.069,11.977-12.579,32.314-12.579,32.314 l0.178,0.178l-14.321,14.321l-0.029,0.404H111.58z" class="st2"/></g><g><path d="M280.849,238.749c0.35-0.453,0.699-0.919,1.045-1.381c5.13-7.252,12.384-20.16,7.429-32.54 c-10.789-21.754-36.072-12.378-37.844,3.89c-1.413,11.317,4.599,27.945,28.827,29.533L280.849,238.749z M326.501,242.316 c-1.775,3.664-3.949,7.384-6.588,11.142c-7.811,11.136-16.071,20.024-24.438,27.162 c-18.445,15.721-37.431,22.934-53.366,26.948c-28.859,7.267-64.187-4.418-91.601-21.929 c-12.158-7.765-23.096-17.442-32.644-27.669l0.198-0.184l29.771-29.772c3.891,4.615,8.341,9.363,13.29,13.768 c25.991,23.164,47.557,26.948,67.9,25.816c3.416-0.194,6.812-0.621,10.179-1.322l-0.026-0.123 c-25.114-13.697-50.225-61.416-13.241-98.4c21.229-21.23,57.874-29.794,87.668,0c10.544,10.544,29.581,40.118,12.901,74.56 L326.501,242.316z" class="st3"/></g><g><path d="M412.223,298.017v0.355l-30.768,30.768c-27.941-27.941-47.567-48.627-85.767-48.275l-0.21-0.249 c8.37-7.135,16.628-16.026,24.438-27.161c2.64-3.758,4.813-7.478,6.589-11.142 C353.013,241.989,379.353,265.147,412.223,298.017z" class="st3"/></g><g><path d="M76.501,55.759c4.528,2.38,7.859,8.752,9.266,21.136c0.311,2.71,1.122,7.546,1.439,12.112l0.375,0.22 c-6.485,12.384-15.612,32.333-17.174,49.116c-0.078,0.808-0.142,1.623-0.201,2.445l-0.382-0.026 c1.113-19.425-4.188-55.09-4.958-60.232c-1.708-11.475-4.851-17.821-2.953-21.899c1.905-4.078,10.052-5.24,14.583-2.869 L76.501,55.759z" class="st2"/></g><g><path d="M123.101,200.228c1.682,1.184,4.321,2.368,7.497,2.911c5.854,1.009,13.535-0.145,20.356-7.419 c15.121-14.59,9.6-23.824,23.08-37.932c11.408-11.938,32.359-27.585,22.808-39.788c-8.092-10.337-20.156-2.128-27.054,4.77 c-11.673,11.673-12.2,15.033-21.751,24.584c-9.027,9.027-14.654,11.679-19.454,10.961c-5.45-0.812-9.645-6.572-13.17-23.073 c-3.128-14.609-2.921-19.364,1.323-23.607c4.243-4.244,9.816-2.39,15.385-1.064c5.57,1.332,32.624,13.529,37.398,2.92 c4.771-10.611,0.265-16.714-9.816-20.424c-6.882-2.529-15.321-5.56-23.141-8.238c-3.635-1.248-7.141-2.419-10.285-3.428 c-5.819-1.873-10.657-2.992-14.703-3.312c-10.473-0.815-15.625,3.755-18.539,14.625c-3.891,14.5-3.71,25.289-3.71,25.289" class="st4"/></g><g><path d="M111.609,77.685l48.453-48.453c5.301-5.301,4.421-8.665,9.021-9.726 c4.599-1.061,10.964,4.955,12.025,10.259c1.06,5.304-1.947,12.2-11.143,21.395L136.72,84.405" class="st4"/></g><g><path d="M125.753,63.185c0,0,7.51-20.337,12.578-32.314c5.061-11.977,5.256-19.5,2.277-24.011 c-2.982-4.522-11.136-7.701-14.998-4.984c-3.865,2.714-3.745,9.677-6.575,18.167c-9.547,27.938-24.807,57.35-24.807,57.35 s-2.875,4.641-6.643,11.831c-6.485,12.384-15.612,32.333-17.174,49.115c-0.078,0.809-0.142,1.624-0.201,2.446 c-1.795,26.116,5.903,58.323,18.587,78.9c7.284,11.805,17.08,25.476,29.066,38.29c9.548,10.227,20.489,19.901,32.644,27.67 c27.41,17.507,62.742,29.196,91.601,21.928c15.939-4.017,34.924-11.229,53.366-26.948c8.37-7.135,16.627-16.026,24.438-27.161 c2.639-3.759,4.813-7.478,6.588-11.142c16.676-34.446-2.358-64.017-12.901-74.56c-29.795-29.794-66.436-21.233-87.669,0 c-36.984,36.984-11.87,84.699,13.241,98.399" class="st4"/></g><g><path d="M69.7,142.584c0.049-0.592,0.091-1.203,0.126-1.828c1.113-19.425-4.188-55.089-4.958-60.231 c-1.708-11.475-4.851-17.821-2.953-21.899c1.905-4.078,10.052-5.239,14.583-2.869c4.528,2.38,7.859,8.752,9.266,21.136 c0.311,2.71,1.122,7.546,1.439,12.112" class="st4"/></g><g><path d="M130.53,203.764c1.843,2.833,7.95,13.15,17.306,24.253c3.891,4.616,8.342,9.364,13.29,13.769 c25.991,23.164,47.557,26.948,67.901,25.816c3.415-0.194,6.811-0.621,10.178-1.323c15.023-3.128,29.39-11.576,41.651-27.53 c0.349-0.453,0.698-0.919,1.045-1.381c5.129-7.252,12.384-20.16,7.429-32.54c-10.79-21.754-36.072-12.378-37.845,3.89 c-1.413,11.317,4.6,27.945,28.828,29.533" class="st4"/></g><g><path d="M295.685,280.862c38.2-0.352,57.826,20.334,85.767,48.275l30.767-30.768" class="st4"/></g><g><path d="M412.223,298.017c-32.874-32.873-59.214-56.024-85.718-55.704h-0.046" class="st4"/></g><g><path d="M147.904,227.949l-0.068,0.068l-29.771,29.772" class="st4"/></g><g><path d="M169.079,19.51c4.599-1.061,10.964,4.955,12.025,10.259c1.061,5.304-1.947,12.2-11.142,21.395 l-33.245,33.245l-0.149,0.427c-3.635-1.248-7.141-2.419-10.285-3.428c-5.818-1.873-10.657-2.992-14.703-3.312l0.029-0.404 l48.453-48.453c5.301-5.301,4.421-8.665,9.02-9.725L169.079,19.51z" class="st2"/></g><g><path d="M123.101,200.228c4.773,3.364,17.329,6.721,27.853-4.508c15.121-14.59,9.6-23.824,23.08-37.932 c11.407-11.938,32.359-27.585,22.808-39.788c-8.092-10.337-20.156-2.128-27.055,4.771 c-11.672,11.672-12.199,15.033-21.75,24.583c-9.027,9.027-14.655,11.679-19.454,10.961c-5.45-0.811-9.645-6.572-13.17-23.073 c-3.128-14.609-2.921-19.364,1.323-23.607c4.243-4.243,9.816-2.39,15.385-1.064c5.569,1.332,32.624,13.529,37.398,2.921 c4.771-10.612,0.265-16.715-9.816-20.425c-6.883-2.529-15.321-5.56-23.141-8.238c-3.636-1.248-7.142-2.419-10.285-3.428 c-5.819-1.873-10.657-2.992-14.703-3.312c-10.473-0.815-15.625,3.755-18.539,14.625c-3.891,14.499-3.71,25.288-3.71,25.288" class="st4"/></g><g><path d="M111.609,77.685l48.453-48.453c5.301-5.301,4.421-8.665,9.02-9.726c4.6-1.061,10.965,4.955,12.025,10.259 c1.061,5.304-1.947,12.2-11.142,21.395L136.72,84.406" class="st4"/></g><g><path d="M69.7,142.584c1.591-18.921-4.04-56.752-4.829-62.056c-1.708-11.475-4.851-17.821-2.953-21.899 c1.905-4.078,10.052-5.239,14.583-2.869c4.528,2.38,7.859,8.752,9.266,21.136c0.311,2.71,1.122,7.546,1.439,12.112" class="st4"/></g><g><path d="M130.53,203.763c1.843,2.834,7.95,13.151,17.306,24.254c3.891,4.616,8.342,9.364,13.29,13.769" class="st4"/></g><g><path d="M147.904,227.949l-0.068,0.068l-29.771,29.772" class="st4"/></g><g><path d="M146.763,210.973l8.309,8.308c1.316,1.317,1.316,3.464,0,4.781l-10.431,10.43 c-1.31,1.31-3.461,1.313-4.777-0.003l-2.432-2.432l3.739-3.739c0.019-0.019,0.038-0.039,0.051-0.058l0.366,0.365 c0.656,0.657,1.73,0.657,2.387,0l5.226-5.226c0.657-0.657,0.657-1.731,0-2.387l-4.162-4.163 c-0.657-0.656-1.737-0.663-2.394-0.006l-5.226,5.226c-0.657,0.657-0.653,1.734,0.006,2.394l0.353,0.352l0.129,0.143 c0,0-0.035,0.029-0.052,0.045l-3.738,3.739l-2.559-2.559c-1.316-1.316-1.316-3.464-0.003-4.777l10.431-10.43 c1.316-1.317,3.464-1.317,4.78,0L146.763,210.973z" class="st5"/></g><g><path d="M141.151,225l0.02,0.019c0.886,0.886,0.908,2.332,0.051,3.241c-0.016,0.022-0.035,0.042-0.051,0.058 l-7.643,7.643c-0.026,0.026-0.055,0.055-0.087,0.08c-0.909,0.825-2.332,0.799-3.212-0.08l-0.019-0.02 c-0.877-0.876-0.903-2.299-0.084-3.208c0.025-0.033,0.051-0.058,0.084-0.091l7.642-7.642c0,0,0.033-0.033,0.052-0.046 C138.813,224.091,140.262,224.11,141.151,225z" class="st6"/></g><g><path d="M139.663,234.69c1.317,1.316,1.317,3.463,0,4.78l-10.43,10.43c-1.31,1.31-3.461,1.313-4.777-0.003 l-2.432-2.432l3.738-3.739c0.02-0.019,0.039-0.039,0.052-0.058l0.366,0.365c0.656,0.657,1.73,0.657,2.387,0l5.226-5.226 c0.657-0.657,0.657-1.731,0-2.387l-0.229-0.23l-0.13-0.142c0.029-0.023,0.058-0.052,0.087-0.081l3.904-3.904l2.432,2.433 l-0.2,0.2L139.663,234.69z" class="st5"/></g><g><path d="M133.78,228.806l0.133,0.133l-3.707,3.706c-0.029,0.03-0.055,0.055-0.084,0.091l-0.068-0.068l-0.423-0.417 c-0.657-0.657-1.737-0.663-2.394-0.007l-5.226,5.227c-0.657,0.657-0.654,1.734,0.006,2.393l0.353,0.353l0.129,0.142 c0,0-0.035,0.029-0.052,0.046l-3.738,3.738l-2.559-2.558c-1.316-1.316-1.316-3.464-0.003-4.777l10.431-10.431 c1.316-1.316,3.463-1.316,4.78,0l2.429,2.429H133.78z" class="st5"/></g><g><path d="M125.746,240.405l0.02,0.019c0.886,0.886,0.909,2.332,0.051,3.241c-0.016,0.022-0.035,0.042-0.051,0.058 l-7.643,7.643c-0.026,0.025-0.048,0.048-0.077,0.071c-0.913,0.834-2.342,0.808-3.222-0.071l-0.019-0.02 c-0.877-0.876-0.903-2.299-0.084-3.208c0.026-0.033,0.051-0.059,0.084-0.091l7.642-7.642c0,0,0.033-0.033,0.052-0.046 C123.408,239.496,124.857,239.515,125.746,240.405z" class="st6"/></g><g><path d="M121.956,247.792l2.299,2.299c1.317,1.317,1.317,3.464,0,4.78l-10.43,10.431 c-1.31,1.31-3.461,1.313-4.777-0.003l-8.309-8.309c-1.316-1.316-1.316-3.464-0.003-4.777l10.43-10.431 c1.317-1.316,3.464-1.316,4.78,0l2.559,2.559l-3.707,3.706c-0.029,0.029-0.055,0.055-0.084,0.091l-0.068-0.068l-0.423-0.417 c-0.657-0.657-1.737-0.663-2.394-0.007l-5.226,5.227c-0.657,0.656-0.654,1.733,0.006,2.393l4.163,4.163 c0.656,0.656,1.73,0.656,2.387,0l5.226-5.227c0.657-0.657,0.657-1.73,0-2.387l-0.349-0.382 c0.029-0.022,0.052-0.045,0.077-0.071l3.707-3.706l0.133,0.132L121.956,247.792z" class="st5"/></g><g><path d="M121.956,247.792l2.299,2.299c1.317,1.317,1.317,3.464,0,4.78l-10.43,10.431 c-1.31,1.31-3.461,1.313-4.777-0.003l-8.309-8.309c-1.316-1.316-1.316-3.464-0.003-4.777l10.43-10.431 c1.317-1.316,3.464-1.316,4.78,0l2.429,2.429" class="st4"/></g><g><path d="M118.388,251.818c0.657,0.657,0.657,1.731,0,2.387l-5.226,5.227c-0.657,0.656-1.731,0.656-2.387,0 l-4.163-4.163c-0.656-0.656-0.663-1.737-0.006-2.393l5.227-5.227c0.656-0.656,1.733-0.653,2.393,0.007l0.42,0.42" class="st4"/></g><g><path d="M118.641,244.082l-2.494-2.494c-1.316-1.316-1.316-3.464-0.003-4.777l10.43-10.43 c1.317-1.317,3.464-1.317,4.781,0l2.428,2.429" class="st4"/></g><g><path d="M137.891,232.917l1.769,1.769c1.316,1.317,1.316,3.464,0,4.781l-10.43,10.43 c-1.31,1.31-3.461,1.313-4.777-0.003l-2.368-2.368" class="st4"/></g><g><path d="M122.37,240.217l-0.353-0.353c-0.656-0.656-0.663-1.736-0.006-2.393l5.226-5.227 c0.657-0.656,1.734-0.653,2.394,0.007l0.42,0.42" class="st4"/></g><g><path d="M133.567,236.181l0.229,0.229c0.657,0.657,0.657,1.731,0,2.387l-5.226,5.227 c-0.657,0.656-1.731,0.656-2.387,0l-0.362-0.363" class="st4"/></g><g><path d="M134.049,228.674l-2.494-2.494c-1.316-1.316-1.316-3.464-0.003-4.777l10.43-10.43 c1.317-1.317,3.464-1.317,4.781,0l8.308,8.308c1.317,1.317,1.317,3.464,0,4.781l-10.43,10.43 c-1.31,1.31-3.461,1.313-4.777-0.003l-2.368-2.367" class="st4"/></g><g><path d="M137.775,224.812l-0.353-0.352c-0.656-0.657-0.663-1.737-0.006-2.394l5.226-5.226 c0.657-0.657,1.734-0.654,2.394,0.006l4.162,4.163c0.657,0.656,0.657,1.73,0,2.386l-5.227,5.227 c-0.656,0.657-1.73,0.657-2.386,0l-0.363-0.362" class="st4"/></g><g><path d="M125.817,243.665c-0.016,0.022-0.035,0.042-0.051,0.058l-7.643,7.643 c-0.026,0.025-0.048,0.048-0.077,0.071c-0.913,0.834-2.342,0.808-3.222-0.071l-0.019-0.02 c-0.877-0.876-0.903-2.299-0.084-3.208c0.026-0.033,0.051-0.059,0.084-0.091l7.642-7.642c0,0,0.033-0.033,0.052-0.046 c0.909-0.863,2.358-0.844,3.247,0.046l0.02,0.019C126.652,241.31,126.675,242.756,125.817,243.665z" class="st4"/></g><g><path d="M141.222,228.26c-0.016,0.022-0.035,0.042-0.051,0.058l-7.643,7.643c-0.026,0.026-0.055,0.055-0.087,0.08 c-0.909,0.825-2.332,0.799-3.212-0.08l-0.019-0.02c-0.877-0.876-0.903-2.299-0.084-3.208c0.025-0.033,0.051-0.058,0.084-0.091 l7.642-7.642c0,0,0.033-0.033,0.052-0.046c0.909-0.863,2.358-0.844,3.247,0.046l0.02,0.019 C142.057,225.905,142.079,227.351,141.222,228.26z" class="st4"/></g><g><path d="M243.83,13.203l50.746,50.617c2.548,2.549,2.558,6.718,0.013,9.269l-88.141,88.367 c-2.549,2.548-6.718,2.558-9.269,0.013l-50.746-50.617c-2.555-2.548-2.559-6.717-0.013-9.269l88.14-88.367 C237.109,10.667,241.275,10.654,243.83,13.203z M190.131,112.382l-5.718-5.705c-0.983-0.983-2.591-0.98-3.574,0.003 l-8.771,8.791c-0.984,0.983-0.98,2.591,0.003,3.574l5.718,5.705c0.983,0.983,2.591,0.98,3.574-0.003l8.771-8.791 C191.118,114.973,191.114,113.365,190.131,112.382z" class="st7"/></g><g><path d="M180.839,106.695l-8.767,8.788c-0.987,0.989-0.985,2.591,0.004,3.577l5.716,5.702 c0.989,0.986,2.59,0.985,3.577-0.004l8.767-8.789c0.987-0.989,0.985-2.591-0.004-3.577l-5.716-5.702 C183.427,105.704,181.826,105.706,180.839,106.695z" class="st8"/></g><g><path d="M294.589,73.089l-88.141,88.367c-2.549,2.548-6.718,2.558-9.269,0.013l-50.746-50.617 c-2.555-2.548-2.559-6.717-0.013-9.269l88.14-88.367c2.549-2.549,6.715-2.562,9.27-0.013l50.746,50.617 C297.124,66.368,297.134,70.537,294.589,73.089z" class="st4"/></g><g><path d="M180.839,106.695l-8.767,8.788c-0.987,0.989-0.985,2.591,0.004,3.577l5.716,5.702 c0.989,0.986,2.59,0.985,3.577-0.004l8.767-8.789c0.987-0.989,0.985-2.591-0.004-3.577l-5.716-5.702 C183.427,105.704,181.826,105.706,180.839,106.695z" class="st4"/></g><g><path d="M205.174,72.132l4.608-4.622l-1.39-1.384l-2.914,2.921l-1.297-1.29l2.351-2.351l-1.43-1.423l-2.344,2.351 l-1.223-1.216l2.917-2.924l-1.394-1.388l-4.608,4.622L205.174,72.132z" class="st2"/></g><g><path d="M210.29,56.523l-2.034,2.041l0.589,1.934l-1.973-0.55l-2.09,2.096l4.237,0.821l0.893,4.515l2.031-2.038 l-0.602-2.212l2.209,0.598l2.087-2.093l-4.519-0.876L210.29,56.523z" class="st2"/></g><g><path d="M213.353,53.195c-0.559,0.559-0.815,1.281-0.731,2.096l-0.553-0.553l-1.559,1.559l7.468,7.448l1.666-1.666 l-2.62-2.613c0.621,0.013,1.278-0.243,1.811-0.783c1.359-1.358,1.229-3.376-0.443-5.049 C216.72,51.963,214.754,51.788,213.353,53.195z M217.092,57.652c-0.621,0.621-1.494,0.498-2.351-0.359 c-0.857-0.857-0.984-1.727-0.366-2.351c0.621-0.621,1.485-0.508,2.352,0.359C217.603,56.164,217.716,57.021,217.092,57.652z" class="st2"/></g><g><path d="M222.739,52.121c-0.508,0.508-1.19,0.595-2.047-0.074l3.541-3.542l-0.226-0.226 c-1.633-1.633-3.778-1.986-5.511-0.252c-1.226,1.226-1.957,3.322,0.11,5.382c1.672,1.672,3.803,1.682,5.443,0.036 c0.977-0.977,1.827-2.552,0.663-4.486l-1.685,1.685c0.223,0.372,0.301,0.883-0.291,1.475L222.739,52.121z M219.751,49.281 c0.478-0.479,1.073-0.524,1.733,0.026l-1.733,1.733C219.207,50.258,219.356,49.682,219.751,49.281z" class="st2"/></g><g><path d="M224.359,42.163c-0.572,0.572-0.824,1.336-0.666,2.154l-0.618-0.618l-1.559,1.559l5.243,5.23l1.666-1.666 l-2.921-2.914c-0.698-0.699-0.666-1.365-0.207-1.824c0.489-0.488,0.99-0.563,1.786,0.226l2.923,2.924l1.666-1.666l-3.05-3.05 c-1.662-1.65-2.972-1.653-4.256-0.362L224.359,42.163z" class="st2"/></g><g><path d="M230.097,31.897c-0.508,0.508-0.488,1.252-0.003,1.737c0.485,0.485,1.245,0.514,1.753,0.007 c0.508-0.508,0.488-1.271,0-1.759c-0.485-0.485-1.229-0.505-1.743,0.016L230.097,31.897z" class="st2"/></g><g><path d="M233.339,33.452l-1.654,1.658l5.23,5.217l1.654-1.658L233.339,33.452z" class="st2"/></g><g><path d="M231.462,39.245l-0.508,0.32c-0.53,0.343-0.88,0.304-1.087,0.097c-0.291-0.291-0.236-0.715,0.146-1.097 c0.488-0.488,0.909-0.585,1.391-0.104l1.429-1.43c-1.135-1.071-2.413-1.087-4.004,0.505c-1.371,1.371-1.665,2.714-0.498,3.875 c0.922,0.922,1.947,0.725,3.658-0.346l0.508-0.32c0.53-0.343,0.896-0.288,1.099-0.084c0.292,0.291,0.169,0.666-0.265,1.1 c-0.572,0.573-1.044,0.618-1.594,0.21l-1.617,1.617c1.355,1.167,2.849,0.935,4.353-0.576c1.507-1.507,1.821-2.959,0.653-4.121 c-0.931-0.918-1.947-0.724-3.661,0.349L231.462,39.245z" class="st2"/></g><g><path d="M239.81,26.945l2.27,4.127l-4.111-2.28l-2.151,2.151l-0.161-0.162c-0.427-0.427-0.547-1.168-0.062-1.653 l0.236-0.236l-1.384-1.384l-0.343,0.343c-1.387,1.459-1.3,3.409-0.013,4.69l0.068,0.068l-0.621,0.621l1.543,1.543l0.624-0.624 l3.681,3.681l1.662-1.662l-3.68-3.681l0.928-0.928l4.793,2.296l0.343,0.757c0.249,0.56,0.184,0.851-0.159,1.194 c-0.177,0.178-0.352,0.353-0.669,0.527l1.287,1.488c0.32-0.178,0.663-0.456,1.058-0.851c0.996-0.996,1.077-1.95,0.233-3.791 l-3.671-7.921l-1.689,1.688L239.81,26.945z" class="st2"/></g><g><path d="M169.784,122.774c6.899-6.899,18.966-15.111,27.055-4.771c9.548,12.2-11.404,27.847-22.808,39.788 c-2.096,2.193-3.732,4.263-5.058,6.262l-19.878-17.75c8.545-8.758,9.46-12.293,20.689-23.523V122.774z" class="st2"/></g><g><path d="M168.316,165.078c0.21-0.339,0.433-0.679,0.657-1.025c1.329-1.996,2.959-4.066,5.058-6.262 c11.407-11.937,32.359-27.585,22.808-39.788c-8.092-10.337-20.156-2.128-27.055,4.771 c-11.229,11.229-12.144,14.764-20.692,23.519c-0.343,0.343-0.693,0.699-1.058,1.065" class="st4"/></g><defs><filter id="Adobe_OpacityMaskFilter" width="211.488" height="170.389" x="117.781" y="145.345" filterUnits="userSpaceOnUse"><feColorMatrix type="matrix" values="1 0 0 0 0 0 1 0 0 0 0 0 1 0 0 0 0 0 1 0"/></filter></defs><mask id="mask0_4164_707_00000047038662134534516940000015966784428477716376_" width="211.488" height="170.389" x="117.781" y="145.345" maskUnits="userSpaceOnUse"><path d="M118.172,260.218c0.682-1.142,30.823-30.364,30.823-30.364C177.5,264,233,287.5,274.559,245.835 c40.142-40.244-3.196-66.665-19.179-46.574c-21.689,20.777-56.914-19.603-18.038-39.041 c39.267-19.635,67.804-8.448,85.385,24.199c34.93,64.155-46.344,118.947-83.787,123.97 C182.327,322.542,118.172,260.218,118.172,260.218z" class="st9"/></mask><g class="st10"><g><path d="M264.597,250.913c1.061,0.42,2.015,1.154,2.724,2.167c0.708,1.012,0.963,2.05,1.054,3.098 c0,0,0.019,0.705-0.582,0.666c-0.278,0-0.495-0.184-0.556-0.672c-0.062-0.489-0.35-1.669-0.867-2.413 c-0.54-0.773-1.255-1.346-2.051-1.688c0,0-0.611-0.256-0.404-0.793c0.204-0.534,0.686-0.362,0.686-0.362L264.597,250.913z" class="st11"/></g><g><path d="M256.809,256.372c0.081,1.129,0.385,2.267,1.087,3.273c1.869,2.685,5.495,3.393,8.095,1.582 c1.035-0.718,1.847-1.854,2.122-2.853c0.042-0.23,0.087-0.631-0.349-0.828c-0.359-0.12-0.608,0.142-0.802,0.608 c-0.317,0.822-0.848,1.559-1.611,2.09c-2.057,1.429-4.936,0.847-6.433-1.297c-0.56-0.806-0.851-1.718-0.876-2.617 c-0.033-0.543-0.408-0.744-0.621-0.744c-0.304-0.006-0.644,0.275-0.609,0.789L256.809,256.372z" class="st11"/></g><g><path d="M262.56,250.499c-1.019,0.009-2.322,0.297-3.338,1.002c-0.899,0.628-1.607,1.459-1.963,2.429 c-0.159,0.43-0.029,0.89,0.401,1.022c0.43,0.133,0.614-0.271,0.614-0.271c0.295-0.877,0.851-1.66,1.656-2.219 c0.77-0.537,1.656-0.789,2.542-0.783c0,0,0.744,0.084,0.731-0.517c-0.029-0.502-0.349-0.654-0.65-0.657L262.56,250.499z" class="st11"/></g><g><path d="M261.457,259.817l-2.452-3.519l1.184-0.822l1.456,2.096l0.62-0.433l-1.167-1.672l1.164-0.816 l1.168,1.679l0.676-0.475l-1.459-2.093l1.226-0.851l2.452,3.519L261.457,259.817z" class="st11"/></g><g><path d="M281.82,276.227c1.061,0.421,2.015,1.155,2.723,2.167c0.705,1.009,0.964,2.051,1.055,3.099 c0,0,0.019,0.705-0.583,0.666c-0.278,0-0.495-0.184-0.556-0.673c-0.061-0.488-0.349-1.669-0.867-2.413 c-0.54-0.772-1.255-1.345-2.05-1.688c0,0-0.612-0.255-0.405-0.792c0.207-0.537,0.686-0.362,0.686-0.362L281.82,276.227z" class="st11"/></g><g><path d="M274.035,281.684c0.081,1.128,0.385,2.267,1.087,3.273c1.869,2.684,5.495,3.392,8.095,1.581 c1.035-0.718,1.847-1.853,2.122-2.852c0.042-0.23,0.087-0.631-0.35-0.828c-0.359-0.12-0.608,0.142-0.802,0.608 c-0.317,0.821-0.847,1.559-1.61,2.089c-2.057,1.43-4.936,0.847-6.433-1.297c-0.56-0.805-0.851-1.717-0.877-2.616 c-0.032-0.544-0.407-0.744-0.621-0.744c-0.304-0.007-0.643,0.275-0.608,0.789L274.035,281.684z" class="st11"/></g><g><path d="M279.782,275.813c-1.018,0.01-2.322,0.298-3.337,1.003c-0.9,0.627-1.608,1.459-1.964,2.429 c-0.158,0.43-0.029,0.889,0.401,1.022c0.431,0.133,0.615-0.272,0.615-0.272c0.294-0.876,0.851-1.659,1.656-2.218 c0.805-0.56,1.656-0.79,2.542-0.783c0,0,0.744,0.084,0.731-0.518c-0.029-0.501-0.349-0.653-0.65-0.656L279.782,275.813z" class="st11"/></g><g><path d="M278.683,285.128l-2.452-3.519l1.184-0.821l1.455,2.095l0.621-0.433l-1.167-1.672l1.164-0.815 l1.168,1.679l0.679-0.473l-1.462-2.095l1.226-0.851l2.448,3.522L278.683,285.128z" class="st11"/></g><g><path d="M273.298,271.185c0.677-0.677,0.677-1.775,0-2.452c-0.677-0.676-1.775-0.676-2.452,0 c-0.677,0.677-0.677,1.775,0,2.452S272.621,271.862,273.298,271.185z" class="st11"/></g><g><path d="M291.513,297.357c0.677-0.677,0.677-1.775,0-2.452s-1.775-0.677-2.452,0 c-0.676,0.677-0.676,1.775,0,2.452C289.738,298.034,290.836,298.034,291.513,297.357z" class="st11"/></g><g><path d="M265.684,306.646c0.715-0.301,2.261,0.145,2.911,0.09s0.644-0.281,0.854,0.214 c0.207,0.498,0.006,0.368-0.466,0.711c-0.472,0.343-1.226,1.879-1.953,2.187c-0.883,0.372-1.902-0.046-2.271-0.932 c-0.372-0.883,0.045-1.902,0.932-2.27H265.684z" class="st11"/></g><g><path d="M272.926,307.373c-0.715,0.301-2.261-0.145-2.911-0.09c-0.65,0.055-0.644,0.281-0.854-0.214 c-0.21-0.494-0.007-0.368,0.466-0.711c0.472-0.343,1.225-1.879,1.953-2.187c0.883-0.371,1.902,0.046,2.271,0.932 c0.372,0.883-0.046,1.902-0.932,2.27H272.926z" class="st11"/></g><g><path d="M268.938,310.63c-0.301-0.714,0.145-2.26,0.09-2.91c-0.055-0.651-0.281-0.644,0.214-0.854 c0.495-0.211,0.368-0.007,0.711,0.465c0.343,0.473,1.879,1.226,2.187,1.954c0.372,0.883-0.046,1.902-0.932,2.27 c-0.883,0.372-1.902-0.045-2.27-0.931V310.63z" class="st11"/></g><g><path d="M269.666,303.389c0.3,0.715-0.146,2.261-0.091,2.911c0.055,0.65,0.281,0.643-0.214,0.854 c-0.494,0.21-0.368,0.006-0.711-0.466c-0.343-0.472-1.879-1.226-2.186-1.954c-0.372-0.883,0.045-1.901,0.931-2.27 c0.883-0.372,1.902,0.045,2.271,0.931V303.389z" class="st11"/></g><g><path d="M252.078,264.487c0.676-0.677,0.677-1.775,0-2.452s-1.775-0.677-2.452,0 c-0.677,0.677-0.677,1.775,0,2.452C250.303,265.164,251.401,265.164,252.078,264.487z" class="st11"/></g><g><path d="M263.947,293.13c0.677-0.677,0.677-1.775,0-2.452s-1.774-0.677-2.451,0s-0.677,1.775,0,2.452 S263.27,293.807,263.947,293.13z" class="st11"/></g><g><path d="M253.151,276.751c0.715-0.3,2.261,0.146,2.911,0.091c0.65-0.055,0.644-0.282,0.854,0.213 c0.21,0.495,0.006,0.369-0.466,0.712c-0.472,0.343-1.226,1.879-1.953,2.186c-0.883,0.372-1.902-0.045-2.271-0.931 c-0.372-0.883,0.046-1.902,0.932-2.271H253.151z" class="st11"/></g><g><path d="M260.396,277.476c-0.715,0.301-2.261-0.146-2.911-0.091c-0.65,0.055-0.643,0.282-0.854-0.213 c-0.207-0.498-0.006-0.369,0.466-0.712c0.472-0.343,1.226-1.879,1.954-2.186c0.883-0.372,1.901,0.045,2.27,0.931 c0.369,0.887-0.045,1.902-0.931,2.271H260.396z" class="st11"/></g><g><path d="M256.411,280.736c-0.3-0.715,0.146-2.261,0.091-2.911c-0.055-0.65-0.281-0.644,0.213-0.854 c0.498-0.207,0.369-0.006,0.712,0.466c0.343,0.472,1.879,1.226,2.186,1.953c0.372,0.883-0.045,1.902-0.931,2.271 c-0.883,0.372-1.902-0.045-2.271-0.932V280.736z" class="st11"/></g><g><path d="M257.136,273.491c0.301,0.715-0.146,2.261-0.091,2.911c0.055,0.65,0.282,0.644-0.213,0.854 c-0.495,0.21-0.369,0.006-0.712-0.466c-0.342-0.472-1.879-1.226-2.186-1.953c-0.372-0.883,0.045-1.902,0.932-2.271 c0.886-0.369,1.901,0.045,2.27,0.932V273.491z" class="st11"/></g><g><path d="M240.059,262.656c0.799,0.812,1.381,1.866,1.624,3.079c0.239,1.21,0.058,2.264-0.282,3.264 c0,0-0.265,0.653-0.802,0.375c-0.255-0.113-0.382-0.369-0.239-0.841c0.142-0.472,0.349-1.669,0.178-2.558 c-0.172-0.89-0.608-1.734-1.2-2.371c0,0-0.453-0.479-0.052-0.886c0.404-0.405,0.776-0.058,0.776-0.058L240.059,262.656z" class="st11"/></g><g><path d="M230.735,264.522c-0.379,1.065-0.557,2.232-0.321,3.432c0.634,3.208,3.665,5.314,6.776,4.699 c1.236-0.245,2.436-0.954,3.089-1.756c0.132-0.191,0.333-0.54,0.013-0.899c-0.282-0.255-0.615-0.116-0.98,0.236 c-0.624,0.624-1.401,1.084-2.313,1.265c-2.458,0.485-4.861-1.207-5.365-3.775c-0.188-0.963-0.088-1.911,0.245-2.749 c0.188-0.511-0.074-0.844-0.271-0.931c-0.275-0.126-0.699-0.007-0.877,0.475L230.735,264.522z" class="st11"/></g><g><path d="M238.358,261.46c-0.938-0.401-2.248-0.663-3.458-0.424c-1.08,0.213-2.057,0.686-2.772,1.433 c-0.317,0.33-0.384,0.799-0.042,1.096c0.343,0.298,0.673,0,0.673,0c0.621-0.686,1.449-1.177,2.406-1.365 c0.919-0.181,1.837-0.058,2.646,0.304c0,0,0.647,0.375,0.88-0.181C238.865,261.851,238.633,261.586,238.358,261.46z" class="st11"/></g><g><path d="M233.607,269.549l-0.832-4.208l1.414-0.282l0.495,2.507l0.74-0.146l-0.398-2.002l1.394-0.275 l0.398,2.002l0.806-0.158l-0.492-2.503l1.462-0.291l0.828,4.211L233.607,269.549z" class="st11"/></g><g><path d="M246.327,293.168c0.799,0.812,1.381,1.867,1.624,3.08c0.239,1.209,0.058,2.264-0.282,3.263 c0,0-0.265,0.653-0.802,0.375c-0.255-0.113-0.382-0.369-0.239-0.841c0.142-0.472,0.349-1.669,0.178-2.558 c-0.181-0.925-0.608-1.734-1.2-2.371c0,0-0.453-0.479-0.052-0.886c0.404-0.404,0.776-0.058,0.776-0.058L246.327,293.168z" class="st11"/></g><g><path d="M237.002,295.035c-0.378,1.064-0.556,2.231-0.32,3.431c0.634,3.209,3.665,5.314,6.776,4.7 c1.236-0.246,2.435-0.954,3.089-1.757c0.132-0.19,0.333-0.54,0.013-0.899c-0.282-0.255-0.615-0.116-0.98,0.236 c-0.624,0.625-1.401,1.084-2.313,1.265c-2.458,0.485-4.861-1.206-5.365-3.774c-0.188-0.964-0.088-1.912,0.245-2.75 c0.188-0.511-0.074-0.844-0.271-0.931c-0.275-0.126-0.699-0.006-0.877,0.475L237.002,295.035z" class="st11"/></g><g><path d="M244.626,291.972c-0.938-0.401-2.248-0.663-3.458-0.424c-1.08,0.214-2.057,0.686-2.772,1.433 c-0.316,0.33-0.384,0.799-0.042,1.096c0.343,0.298,0.673,0,0.673,0c0.621-0.685,1.449-1.177,2.406-1.365 c0.919-0.181,1.838-0.058,2.646,0.304c0,0,0.647,0.376,0.88-0.181C245.133,292.363,244.901,292.098,244.626,291.972z" class="st11"/></g><g><path d="M239.875,300.061l-0.832-4.208l1.414-0.281l0.491,2.503l0.741-0.146l-0.395-1.998l1.394-0.275 l0.395,1.998l0.809-0.155l-0.495-2.506l1.465-0.288l0.828,4.211L239.875,300.061z" class="st11"/></g><g><path d="M240.476,284.329c0.677-0.677,0.677-1.774,0-2.451s-1.775-0.677-2.452,0 c-0.676,0.677-0.676,1.774,0,2.451C238.701,285.006,239.799,285.006,240.476,284.329z" class="st11"/></g><g><path d="M225.23,312.332c0.022,0.773-0.945,2.057-1.126,2.684c-0.181,0.627,0.033,0.705-0.504,0.718 c-0.537,0.013-0.346-0.126-0.495-0.689c-0.152-0.566-1.316-1.814-1.342-2.61c-0.029-0.961,0.724-1.759,1.681-1.785 C224.405,310.621,225.204,311.374,225.23,312.332z" class="st11"/></g><g><path d="M223.58,269.283c0.677-0.677,0.677-1.774,0-2.451s-1.774-0.677-2.451,0s-0.677,1.774,0,2.451 S222.903,269.96,223.58,269.283z" class="st11"/></g><g><path d="M224.085,300.352c0.677-0.677,0.677-1.775,0-2.452c-0.677-0.677-1.775-0.677-2.452,0 s-0.677,1.775,0,2.452S223.408,301.029,224.085,300.352z" class="st11"/></g><g><path d="M219.353,281.544c0.773-0.022,2.057,0.945,2.684,1.126c0.628,0.181,0.706-0.032,0.718,0.505 c0.013,0.536-0.126,0.346-0.688,0.494c-0.566,0.152-1.815,1.317-2.61,1.343c-0.961,0.029-1.76-0.725-1.786-1.682 C217.645,282.372,218.396,281.57,219.353,281.544z" class="st11"/></g><g><path d="M225.857,284.821c-0.773,0.022-2.057-0.945-2.684-1.126c-0.628-0.181-0.705,0.033-0.718-0.504 c-0.013-0.537,0.126-0.346,0.689-0.495c0.562-0.149,1.814-1.316,2.61-1.342c0.96-0.029,1.759,0.724,1.785,1.682 C227.568,283.996,226.815,284.795,225.857,284.821z" class="st11"/></g><g><path d="M220.97,286.435c-0.022-0.773,0.945-2.057,1.126-2.685c0.181-0.627-0.033-0.705,0.504-0.718 c0.54-0.016,0.346,0.126,0.495,0.689c0.149,0.563,1.316,1.815,1.342,2.61c0.029,0.961-0.724,1.76-1.682,1.786 C221.795,288.146,220.996,287.392,220.97,286.435z" class="st11"/></g><g><path d="M224.24,279.931c0.023,0.773-0.944,2.057-1.126,2.684c-0.181,0.627,0.033,0.705-0.504,0.718 c-0.54,0.016-0.346-0.126-0.495-0.689c-0.149-0.563-1.316-1.814-1.342-2.61c-0.029-0.961,0.724-1.759,1.682-1.785 C223.415,278.22,224.214,278.973,224.24,279.931z" class="st11"/></g><g><path d="M215.498,264.823c0.414,1.061,0.527,2.261,0.265,3.467c-0.259,1.204-0.844,2.099-1.552,2.885 c0,0-0.502,0.495-0.887,0.026c-0.187-0.207-0.203-0.488,0.117-0.867c0.317-0.375,0.986-1.393,1.18-2.28 c0.194-0.886,0.126-1.834-0.158-2.649c0,0-0.227-0.621,0.304-0.834c0.53-0.213,0.734,0.256,0.734,0.256L215.498,264.823z" class="st11"/></g><g><path d="M206.199,262.834c-0.77,0.828-1.394,1.828-1.659,3.024c-0.692,3.196,1.255,6.333,4.353,7.006 c1.229,0.265,2.614,0.09,3.532-0.388c0.201-0.123,0.521-0.366,0.366-0.819c-0.159-0.346-0.518-0.349-0.993-0.171 c-0.822,0.33-1.714,0.44-2.623,0.242c-2.449-0.533-3.985-3.033-3.429-5.595c0.207-0.957,0.68-1.792,1.32-2.426 c0.375-0.394,0.268-0.805,0.123-0.963c-0.201-0.227-0.64-0.285-0.996,0.09H206.199z" class="st11"/></g><g><path d="M214.414,263.048c-0.701-0.741-1.801-1.498-3.008-1.76c-1.073-0.233-2.16-0.187-3.114,0.217 c-0.424,0.178-0.673,0.582-0.472,0.99c0.2,0.407,0.614,0.265,0.614,0.265c0.841-0.382,1.795-0.508,2.749-0.298 s1.705,0.676,2.306,1.33c0,0,0.447,0.601,0.88,0.181c0.349-0.363,0.239-0.699,0.039-0.925H214.414z" class="st11"/></g><g><path d="M206.84,268.585l0.908-4.189l1.407,0.301l-0.543,2.497l0.741,0.158l0.43-1.995l1.387,0.301l-0.43,1.995 l0.805,0.178l0.541-2.493l1.458,0.313l-0.912,4.192L206.84,268.585z" class="st11"/></g><g><path d="M208.625,295.856c0.414,1.061,0.527,2.261,0.265,3.467c-0.259,1.203-0.844,2.099-1.552,2.885 c0,0-0.502,0.495-0.887,0.026c-0.187-0.207-0.203-0.488,0.117-0.867c0.32-0.378,0.986-1.394,1.18-2.28 c0.201-0.918,0.127-1.834-0.158-2.649c0,0-0.226-0.621,0.304-0.834c0.53-0.214,0.734,0.255,0.734,0.255L208.625,295.856z" class="st11"/></g><g><path d="M199.326,293.867c-0.769,0.828-1.394,1.827-1.659,3.024c-0.692,3.196,1.255,6.333,4.354,7.006 c1.229,0.265,2.613,0.09,3.531-0.389c0.201-0.122,0.521-0.365,0.366-0.818c-0.159-0.346-0.518-0.349-0.993-0.171 c-0.822,0.33-1.714,0.44-2.623,0.242c-2.448-0.533-3.985-3.033-3.428-5.595c0.207-0.957,0.679-1.792,1.319-2.426 c0.375-0.394,0.269-0.805,0.123-0.963c-0.2-0.227-0.64-0.285-0.996,0.09H199.326z" class="st11"/></g><g><path d="M207.542,294.081c-0.702-0.741-1.802-1.498-3.008-1.76c-1.074-0.233-2.161-0.187-3.115,0.217 c-0.424,0.178-0.673,0.582-0.472,0.989c0.197,0.411,0.614,0.266,0.614,0.266c0.841-0.382,1.795-0.508,2.749-0.298 c0.919,0.201,1.705,0.676,2.307,1.329c0,0,0.446,0.602,0.879,0.182c0.35-0.363,0.24-0.699,0.039-0.925H207.542z" class="st11"/></g><g><path d="M199.967,299.618l0.912-4.192l1.404,0.304l-0.544,2.497l0.741,0.158l0.43-1.995l1.388,0.301 l-0.431,1.995l0.806,0.178l0.543-2.497l1.455,0.317l-0.912,4.192L199.967,299.618z" class="st11"/></g><g><path d="M207.868,283.844c0.677-0.677,0.677-1.775,0-2.451c-0.677-0.677-1.774-0.677-2.451-0.001 c-0.677,0.677-0.677,1.775,0,2.452C206.094,284.521,207.191,284.521,207.868,283.844z" class="st11"/></g><g><path d="M180.283,307.438c0.731,0.252,1.585,1.617,2.106,2.009c0.52,0.391,0.666,0.22,0.491,0.731 c-0.178,0.507-0.239,0.278-0.818,0.216c-0.582-0.058-2.167,0.582-2.914,0.32c-0.906-0.316-1.381-1.303-1.071-2.209 c0.311-0.905,1.304-1.381,2.209-1.07L180.283,307.438z" class="st11"/></g><g><path d="M185.189,312.817c-0.731-0.253-1.584-1.617-2.105-2.009c-0.521-0.391-0.666-0.22-0.492-0.731 c0.178-0.507,0.24-0.278,0.818-0.216c0.579,0.061,2.167-0.583,2.915-0.321c0.905,0.317,1.381,1.304,1.07,2.209 c-0.31,0.906-1.303,1.381-2.209,1.071L185.189,312.817z" class="st11"/></g><g><path d="M180.047,312.584c0.252-0.731,1.617-1.585,2.008-2.106c0.392-0.52,0.22-0.666,0.731-0.491 c0.511,0.174,0.278,0.239,0.217,0.818c-0.062,0.579,0.582,2.167,0.32,2.914c-0.317,0.906-1.303,1.381-2.209,1.071 c-0.905-0.317-1.381-1.304-1.07-2.209L180.047,312.584z" class="st11"/></g><g><path d="M185.425,307.677c-0.252,0.731-1.617,1.585-2.008,2.106c-0.391,0.521-0.22,0.666-0.731,0.492 c-0.511-0.175-0.278-0.24-0.217-0.819c0.062-0.579-0.582-2.167-0.32-2.914c0.317-0.905,1.304-1.381,2.209-1.07 c0.906,0.31,1.381,1.303,1.071,2.209L185.425,307.677z" class="st11"/></g><g><path d="M199.782,266.062c0.677-0.677,0.677-1.775,0-2.452c-0.676-0.677-1.774-0.677-2.451,0 c-0.677,0.677-0.677,1.775,0,2.452C198.008,266.739,199.105,266.739,199.782,266.062z" class="st11"/></g><g><path d="M189.155,295.72c0.677-0.677,0.677-1.774,0-2.451s-1.775-0.677-2.452,0s-0.677,1.774,0,2.451 S188.478,296.397,189.155,295.72z" class="st11"/></g><g><path d="M190.93,276.822c0.731,0.253,1.585,1.618,2.106,2.009c0.52,0.391,0.666,0.22,0.491,0.731 c-0.177,0.508-0.239,0.278-0.818,0.217c-0.579-0.062-2.167,0.582-2.914,0.32c-0.906-0.317-1.381-1.304-1.071-2.209 c0.317-0.906,1.304-1.381,2.21-1.071L190.93,276.822z" class="st11"/></g><g><path d="M195.837,282.201c-0.731-0.252-1.585-1.617-2.106-2.008c-0.521-0.392-0.666-0.22-0.492-0.731 c0.175-0.511,0.24-0.279,0.819-0.217c0.579,0.061,2.167-0.582,2.914-0.32c0.905,0.317,1.381,1.303,1.07,2.209 c-0.317,0.905-1.303,1.381-2.209,1.07L195.837,282.201z" class="st11"/></g><g><path d="M190.697,281.965c0.253-0.731,1.618-1.585,2.009-2.106c0.391-0.52,0.22-0.666,0.731-0.491 c0.508,0.178,0.278,0.239,0.217,0.818c-0.062,0.579,0.582,2.167,0.32,2.914c-0.317,0.906-1.304,1.381-2.209,1.071 c-0.906-0.311-1.381-1.304-1.071-2.209L190.697,281.965z" class="st11"/></g><g><path d="M196.076,277.059c-0.252,0.73-1.617,1.584-2.008,2.105c-0.392,0.521-0.22,0.666-0.731,0.492 c-0.511-0.175-0.279-0.24-0.217-0.819c0.058-0.582-0.582-2.167-0.32-2.914c0.317-0.905,1.303-1.381,2.209-1.07 c0.905,0.31,1.381,1.303,1.07,2.209L196.076,277.059z" class="st11"/></g><g><path d="M192.741,259.396c0.104,1.132-0.119,2.319-0.705,3.409c-0.585,1.084-1.394,1.782-2.29,2.342 c0,0-0.621,0.336-0.86-0.22c-0.126-0.249-0.061-0.527,0.349-0.802c0.411-0.275,1.336-1.064,1.766-1.863 c0.43-0.799,0.634-1.727,0.586-2.591c0,0-0.046-0.66,0.524-0.718c0.569-0.058,0.634,0.446,0.634,0.446L192.741,259.396z" class="st11"/></g><g><path d="M184.358,254.907c-0.967,0.579-1.847,1.368-2.429,2.448c-1.552,2.879-0.546,6.433,2.245,7.937 c1.109,0.599,2.487,0.812,3.499,0.608c0.227-0.064,0.602-0.207,0.582-0.685c-0.058-0.376-0.401-0.479-0.905-0.44 c-0.88,0.09-1.772-0.052-2.591-0.495c-2.206-1.19-2.985-4.02-1.746-6.326c0.465-0.867,1.151-1.533,1.94-1.967 c0.469-0.275,0.479-0.698,0.385-0.889C185.206,254.823,184.805,254.648,184.358,254.907z" class="st11"/></g><g><path d="M192.192,257.391c-0.469-0.909-1.317-1.937-2.4-2.523c-0.967-0.521-2.025-0.776-3.05-0.656 c-0.456,0.055-0.805,0.372-0.731,0.821c0.078,0.446,0.521,0.424,0.521,0.424c0.915-0.133,1.866,0.01,2.726,0.475 c0.828,0.447,1.452,1.123,1.85,1.915c0,0,0.262,0.702,0.793,0.417c0.436-0.255,0.423-0.605,0.294-0.876L192.192,257.391z" class="st11"/></g><g><path d="M183.381,260.612l2.035-3.774l1.264,0.682l-1.209,2.245l0.663,0.359l0.97-1.798l1.252,0.676 l-0.971,1.798l0.728,0.391l1.21-2.251l1.313,0.712l-2.034,3.774L183.381,260.612z" class="st11"/></g><g><path d="M178.009,286.639c0.104,1.131-0.119,2.318-0.705,3.408c-0.585,1.084-1.394,1.783-2.29,2.342 c0,0-0.621,0.336-0.86-0.22c-0.126-0.249-0.061-0.527,0.349-0.802c0.411-0.275,1.336-1.064,1.766-1.863 c0.447-0.828,0.634-1.727,0.586-2.591c0,0-0.046-0.659,0.524-0.718c0.569-0.058,0.634,0.447,0.634,0.447L178.009,286.639z" class="st11"/></g><g><path d="M169.626,282.149c-0.967,0.579-1.847,1.368-2.429,2.449c-1.552,2.878-0.547,6.433,2.245,7.937 c1.109,0.598,2.487,0.811,3.499,0.608c0.227-0.065,0.602-0.207,0.582-0.686c-0.058-0.375-0.401-0.479-0.905-0.44 c-0.88,0.091-1.773-0.052-2.591-0.495c-2.206-1.19-2.985-4.02-1.746-6.326c0.465-0.867,1.151-1.533,1.94-1.966 c0.469-0.275,0.479-0.699,0.385-0.89C170.473,282.065,170.072,281.891,169.626,282.149z" class="st11"/></g><g><path d="M177.459,284.633c-0.469-0.909-1.316-1.937-2.399-2.522c-0.967-0.521-2.025-0.777-3.05-0.657 c-0.456,0.055-0.806,0.372-0.731,0.821c0.077,0.447,0.52,0.424,0.52,0.424c0.916-0.132,1.867,0.01,2.727,0.476 c0.828,0.446,1.452,1.122,1.85,1.914c0,0,0.262,0.702,0.792,0.417c0.437-0.255,0.424-0.604,0.295-0.876L177.459,284.633z" class="st11"/></g><g><path d="M168.649,287.855l2.035-3.775l1.264,0.683l-1.209,2.244l0.663,0.359l0.97-1.798l1.252,0.676 l-0.971,1.798l0.725,0.388l1.213-2.248l1.31,0.709l-2.032,3.777L168.649,287.855z" class="st11"/></g><g><path d="M180.351,275.241c0.677-0.677,0.677-1.775,0-2.452s-1.775-0.677-2.452,0s-0.677,1.775,0,2.452 S179.674,275.918,180.351,275.241z" class="st11"/></g><g><path d="M165.221,303.308c0.677-0.677,0.677-1.775,0-2.452c-0.677-0.677-1.775-0.677-2.452,0 s-0.677,1.775,0,2.452C163.446,303.985,164.544,303.985,165.221,303.308z" class="st11"/></g><g><path d="M146.219,290.542c0.634,0.447,1.084,1.989,1.479,2.507c0.394,0.517,0.582,0.394,0.274,0.838 c-0.307,0.443-0.304,0.2-0.847-0.013c-0.543-0.214-2.245-0.033-2.891-0.486c-0.783-0.549-0.977-1.63-0.431-2.416 C144.35,290.186,145.434,289.996,146.219,290.542z" class="st11"/></g><g><path d="M149.476,297.053c-0.633-0.446-1.083-1.989-1.478-2.507c-0.394-0.517-0.582-0.394-0.274-0.837 c0.307-0.443,0.304-0.201,0.847,0.013c0.543,0.213,2.244,0.032,2.891,0.485c0.783,0.55,0.977,1.63,0.43,2.416 C151.346,297.409,150.262,297.599,149.476,297.053z" class="st11"/></g><g><path d="M144.59,295.426c0.446-0.634,1.989-1.083,2.506-1.478c0.518-0.395,0.395-0.582,0.838-0.275 c0.443,0.307,0.2,0.304-0.013,0.847c-0.214,0.544-0.033,2.245-0.485,2.892c-0.55,0.783-1.63,0.977-2.416,0.43 C144.234,297.295,144.043,296.212,144.59,295.426z" class="st11"/></g><g><path d="M151.1,292.169c-0.446,0.634-1.989,1.084-2.506,1.478c-0.518,0.395-0.395,0.582-0.838,0.275 c-0.443-0.307-0.201-0.304,0.013-0.847c0.213-0.544,0.032-2.245,0.485-2.892c0.55-0.782,1.63-0.976,2.416-0.43 C151.456,290.3,151.647,291.383,151.1,292.169z" class="st11"/></g><g><path d="M176.593,255.26c0.677-0.677,0.677-1.775,0-2.452s-1.775-0.677-2.452,0 c-0.677,0.677-0.677,1.775,0,2.452C174.818,255.937,175.916,255.937,176.593,255.26z" class="st11"/></g><g><path d="M158.322,281.389c0.677-0.677,0.677-1.774,0-2.451c-0.677-0.677-1.774-0.677-2.451,0 s-0.677,1.774,0,2.451S157.645,282.066,158.322,281.389z" class="st11"/></g><g><path d="M164.797,263.976c0.634,0.446,1.084,1.989,1.478,2.506c0.395,0.518,0.582,0.395,0.275,0.838 c-0.307,0.443-0.304,0.201-0.847-0.013c-0.544-0.213-2.245-0.032-2.892-0.485c-0.782-0.55-0.976-1.63-0.43-2.416 C162.928,263.62,164.011,263.429,164.797,263.976z" class="st11"/></g><g><path d="M168.051,270.49c-0.634-0.447-1.084-1.989-1.478-2.507c-0.395-0.517-0.582-0.394-0.275-0.838 c0.307-0.443,0.304-0.2,0.847,0.013c0.544,0.214,2.245,0.033,2.892,0.486c0.783,0.549,0.977,1.63,0.43,2.416 C169.92,270.845,168.837,271.036,168.051,270.49z" class="st11"/></g><g><path d="M163.167,268.86c0.447-0.634,1.989-1.084,2.507-1.478c0.517-0.395,0.394-0.583,0.837-0.275 c0.444,0.307,0.201,0.304-0.013,0.847c-0.213,0.543-0.032,2.245-0.485,2.891c-0.549,0.783-1.63,0.977-2.416,0.431 C162.811,270.729,162.621,269.646,163.167,268.86z" class="st11"/></g><g><path d="M169.678,265.603c-0.447,0.634-1.989,1.083-2.507,1.478c-0.517,0.394-0.394,0.582-0.837,0.275 c-0.444-0.308-0.201-0.304,0.012-0.848c0.214-0.543,0.033-2.244,0.486-2.891c0.549-0.783,1.63-0.977,2.416-0.43 C170.034,263.733,170.224,264.817,169.678,265.603z" class="st11"/></g><g><path d="M171.162,246.42c-0.152,1.129-0.63,2.235-1.445,3.167c-0.815,0.931-1.757,1.432-2.753,1.775 c0,0-0.679,0.194-0.789-0.401c-0.065-0.272,0.061-0.527,0.517-0.705c0.457-0.178,1.537-0.741,2.132-1.426 c0.618-0.709,0.999-1.543,1.142-2.397c0,0,0.103-0.653,0.669-0.585c0.566,0.068,0.518,0.575,0.518,0.575L171.162,246.42z" class="st11"/></g><g><path d="M163.986,240.188c-1.071,0.352-2.109,0.925-2.915,1.847c-2.15,2.461-1.96,6.151,0.427,8.234 c0.951,0.828,2.242,1.342,3.277,1.368c0.233-0.013,0.63-0.068,0.714-0.54c0.03-0.378-0.284-0.556-0.785-0.631 c-0.877-0.106-1.715-0.446-2.416-1.057c-1.889-1.65-2.022-4.583-0.298-6.553c0.647-0.737,1.459-1.239,2.329-1.488 c0.52-0.165,0.621-0.575,0.572-0.786c-0.068-0.294-0.42-0.556-0.912-0.401L163.986,240.188z" class="st11"/></g><g><path d="M171.072,244.344c-0.256-0.987-0.851-2.183-1.782-2.992c-0.828-0.724-1.802-1.206-2.83-1.316 c-0.456-0.049-0.87,0.184-0.893,0.64c-0.023,0.456,0.414,0.531,0.414,0.531c0.922,0.074,1.818,0.426,2.552,1.07 c0.708,0.618,1.171,1.417,1.378,2.277c0,0,0.1,0.741,0.679,0.582c0.482-0.152,0.546-0.495,0.479-0.789L171.072,244.344z" class="st11"/></g><g><path d="M161.767,245.531l2.823-3.231l1.084,0.947l-1.682,1.922l0.569,0.498l1.342-1.537l1.068,0.932 l-1.339,1.539l0.617,0.54l1.682-1.921l1.123,0.98l-2.824,3.231L161.767,245.531z" class="st11"/></g><g><path d="M150.159,270.509c-0.152,1.129-0.631,2.235-1.446,3.167c-0.812,0.928-1.756,1.432-2.752,1.775 c0,0-0.679,0.194-0.789-0.401c-0.065-0.272,0.061-0.527,0.517-0.705c0.459-0.175,1.536-0.741,2.131-1.426 c0.596-0.686,1-1.543,1.142-2.397c0,0,0.104-0.653,0.67-0.585c0.566,0.068,0.517,0.575,0.517,0.575L150.159,270.509z" class="st11"/></g><g><path d="M142.979,264.273c-1.071,0.353-2.109,0.925-2.914,1.847c-2.151,2.462-1.96,6.152,0.427,8.235 c0.951,0.828,2.241,1.342,3.276,1.368c0.233-0.013,0.631-0.068,0.715-0.54c0.029-0.379-0.285-0.557-0.786-0.631 c-0.877-0.107-1.714-0.446-2.416-1.058c-1.889-1.649-2.022-4.583-0.298-6.552c0.647-0.738,1.459-1.239,2.329-1.488 c0.521-0.165,0.621-0.576,0.572-0.786c-0.068-0.294-0.42-0.556-0.912-0.401L142.979,264.273z" class="st11"/></g><g><path d="M150.068,268.433c-0.255-0.987-0.85-2.183-1.782-2.992c-0.828-0.724-1.801-1.206-2.83-1.316 c-0.456-0.049-0.87,0.184-0.892,0.64c-0.026,0.453,0.414,0.53,0.414,0.53c0.921,0.075,1.817,0.427,2.551,1.071 c0.709,0.618,1.171,1.417,1.378,2.277c0,0,0.101,0.741,0.679,0.582c0.482-0.152,0.547-0.495,0.479-0.789L150.068,268.433z" class="st11"/></g><g><path d="M140.763,269.62l2.821-3.228l1.083,0.941l-1.678,1.924l0.566,0.495l1.342-1.536l1.07,0.935l-1.342,1.536 l0.621,0.543l1.679-1.924l1.125,0.983l-2.823,3.231L140.763,269.62z" class="st11"/></g><g><path d="M156.045,259.189c0.677-0.677,0.677-1.774,0-2.451s-1.774-0.677-2.451,0 c-0.677,0.677-0.677,1.774,0,2.451C154.271,259.866,155.368,259.866,156.045,259.189z" class="st11"/></g><g><path d="M135.068,283.2c0.677-0.677,0.677-1.774,0-2.451c-0.677-0.677-1.775-0.677-2.452,0s-0.677,1.774,0,2.451 S134.391,283.877,135.068,283.2z" class="st11"/></g><g><path d="M120.743,266.547c0.547,0.547,0.721,2.144,1.019,2.727c0.297,0.582,0.508,0.488,0.126,0.87 c-0.382,0.381-0.336,0.142-0.834-0.162c-0.495-0.307-2.206-0.42-2.766-0.98c-0.676-0.676-0.676-1.776,0-2.452 c0.676-0.676,1.776-0.676,2.452,0L120.743,266.547z" class="st11"/></g><g><path d="M122.816,273.523c-0.546-0.546-0.721-2.144-1.019-2.726c-0.297-0.582-0.507-0.488-0.126-0.87 c0.382-0.382,0.337-0.142,0.835,0.162c0.498,0.304,2.206,0.42,2.765,0.98c0.676,0.676,0.676,1.775,0,2.451 c-0.676,0.676-1.776,0.676-2.451,0L122.816,273.523z" class="st11"/></g><g><path d="M118.288,271.072c0.547-0.547,2.145-0.721,2.727-1.019c0.582-0.297,0.488-0.508,0.87-0.126 c0.381,0.382,0.142,0.336-0.162,0.834c-0.307,0.495-0.42,2.206-0.98,2.766c-0.676,0.676-1.776,0.676-2.451,0 c-0.676-0.676-0.676-1.776,0-2.452L118.288,271.072z" class="st11"/></g><g><path d="M125.271,268.999c-0.546,0.546-2.144,0.721-2.726,1.019c-0.583,0.297-0.489,0.507-0.87,0.126 c-0.382-0.382-0.143-0.337,0.161-0.835c0.304-0.498,0.421-2.206,0.98-2.765c0.676-0.676,1.776-0.676,2.452,0 c0.676,0.676,0.676,1.776,0,2.451L125.271,268.999z" class="st11"/></g><g><path d="M155.854,237.471c0.677-0.677,0.677-1.775,0.001-2.452c-0.677-0.677-1.775-0.677-2.452,0 s-0.677,1.775,0,2.452C154.08,238.148,155.178,238.148,155.854,237.471z" class="st11"/></g><g><path d="M134.492,259.448c0.677-0.677,0.677-1.775,0-2.452s-1.775-0.677-2.452,0 c-0.676,0.677-0.677,1.775,0,2.452C132.717,260.125,133.815,260.125,134.492,259.448z" class="st11"/></g><g><path d="M143.664,243.626c0.547,0.546,0.722,2.144,1.019,2.726c0.298,0.582,0.508,0.489,0.126,0.87 c-0.381,0.382-0.336,0.143-0.834-0.161s-2.206-0.421-2.765-0.98c-0.676-0.676-0.676-1.776,0-2.452 c0.676-0.676,1.775-0.676,2.451,0L143.664,243.626z" class="st11"/></g><g><path d="M145.738,250.602c-0.547-0.546-0.722-2.144-1.019-2.726c-0.298-0.583-0.508-0.489-0.126-0.87 c0.381-0.382,0.336-0.143,0.834,0.161c0.498,0.304,2.206,0.421,2.765,0.98c0.676,0.676,0.676,1.776,0,2.452 c-0.675,0.676-1.775,0.676-2.451,0L145.738,250.602z" class="st11"/></g><g><path d="M141.21,248.151c0.546-0.547,2.144-0.722,2.726-1.019c0.582-0.298,0.489-0.508,0.87-0.126 c0.382,0.381,0.142,0.336-0.162,0.834c-0.307,0.495-0.42,2.206-0.98,2.765c-0.675,0.676-1.775,0.676-2.451,0 c-0.676-0.676-0.676-1.775,0-2.451L141.21,248.151z" class="st11"/></g><g><path d="M148.192,246.077c-0.546,0.547-2.144,0.722-2.726,1.019c-0.582,0.298-0.488,0.508-0.87,0.126 c-0.382-0.381-0.142-0.336,0.162-0.834c0.307-0.495,0.42-2.206,0.98-2.765c0.676-0.676,1.775-0.676,2.451,0 c0.676,0.676,0.676,1.775,0,2.451L148.192,246.077z" class="st11"/></g><g><path d="M257.948,200.684c-1.051-0.443-1.989-1.193-2.675-2.222c-0.682-1.025-0.919-2.07-0.986-3.121 c0,0-0.007-0.705,0.595-0.653c0.278,0.006,0.491,0.194,0.543,0.686c0.052,0.491,0.314,1.678,0.815,2.432 c0.501,0.753,1.226,1.368,2.015,1.73c0,0,0.605,0.269,0.388,0.802c-0.217,0.534-0.692,0.35-0.692,0.35L257.948,200.684z" class="st11"/></g><g><path d="M265.849,195.39c-0.058-1.126-0.339-2.274-1.019-3.296c-1.811-2.723-5.42-3.506-8.06-1.746 c-1.047,0.698-1.882,1.811-2.179,2.807c-0.049,0.23-0.097,0.627,0.333,0.831c0.359,0.126,0.611-0.126,0.812-0.592 c0.333-0.818,0.879-1.539,1.652-2.054c2.086-1.387,4.952-0.747,6.404,1.43c0.543,0.815,0.812,1.737,0.825,2.636 c0.022,0.547,0.391,0.754,0.608,0.757c0.304,0.013,0.647-0.259,0.627-0.776L265.849,195.39z" class="st11"/></g><g><path d="M259.976,201.14c1.022,0.013,2.328-0.252,3.354-0.934c0.915-0.612,1.636-1.423,2.011-2.387 c0.168-0.427,0.049-0.89-0.381-1.029c-0.431-0.139-0.621,0.259-0.621,0.259c-0.314,0.87-0.887,1.643-1.705,2.183 c-0.818,0.54-1.672,0.754-2.558,0.734c0,0-0.744-0.097-0.744,0.505c0.019,0.504,0.336,0.66,0.634,0.673L259.976,201.14z" class="st11"/></g><g><path d="M261.273,191.848l2.374,3.571l-1.197,0.796l-1.414-2.125l-0.627,0.42l1.129,1.698l-1.181,0.786 l-1.128-1.698l-0.689,0.456l1.413,2.125l-1.239,0.825l-2.377-3.568L261.273,191.848z" class="st11"/></g><g><path d="M239.984,173.697c-1.051-0.443-1.989-1.193-2.674-2.221c-0.683-1.026-0.919-2.07-0.987-3.122 c0,0-0.006-0.705,0.595-0.653c0.279,0.007,0.492,0.194,0.544,0.686c0.051,0.491,0.313,1.678,0.815,2.432 c0.52,0.786,1.226,1.368,2.015,1.73c0,0,0.605,0.269,0.388,0.802c-0.214,0.531-0.692,0.35-0.692,0.35L239.984,173.697z" class="st11"/></g><g><path d="M247.883,168.406c-0.059-1.125-0.34-2.274-1.019-3.296c-1.811-2.723-5.421-3.506-8.06-1.746 c-1.048,0.699-1.882,1.811-2.18,2.807c-0.048,0.23-0.097,0.628,0.333,0.831c0.359,0.127,0.612-0.126,0.812-0.591 c0.333-0.819,0.88-1.54,1.653-2.054c2.086-1.388,4.951-0.747,6.404,1.429c0.543,0.815,0.811,1.737,0.824,2.636 c0.023,0.547,0.392,0.754,0.608,0.757c0.304,0.013,0.647-0.259,0.628-0.776L247.883,168.406z" class="st11"/></g><g><path d="M242.016,174.157c1.022,0.013,2.328-0.253,3.354-0.935c0.915-0.611,1.636-1.423,2.011-2.387 c0.168-0.427,0.049-0.889-0.381-1.028c-0.431-0.139-0.621,0.258-0.621,0.258c-0.314,0.87-0.887,1.643-1.705,2.184 c-0.818,0.54-1.672,0.753-2.558,0.734c0,0-0.744-0.097-0.744,0.504c0.019,0.505,0.336,0.66,0.634,0.673L242.016,174.157z" class="st11"/></g><g><path d="M243.309,164.861l2.378,3.574l-1.197,0.796l-1.414-2.125l-0.63,0.417l1.132,1.701l-1.184,0.79 l-1.132-1.702l-0.682,0.456l1.413,2.125l-1.242,0.828l-2.377-3.574L243.309,164.861z" class="st11"/></g><g><path d="M252.097,182.711c0.677-0.677,0.677-1.774,0-2.451s-1.775-0.677-2.452,0s-0.677,1.774,0,2.451 S251.42,183.388,252.097,182.711z" class="st11"/></g><g><path d="M234.425,156.171c0.677-0.677,0.677-1.775,0-2.452c-0.677-0.677-1.775-0.677-2.452,0 c-0.677,0.677-0.677,1.775,0,2.452C232.65,156.848,233.748,156.848,234.425,156.171z" class="st11"/></g><g><path d="M264.536,148.726c-0.01-0.773,0.977-2.044,1.168-2.669c0.19-0.624-0.023-0.702,0.517-0.711 c0.54-0.01,0.343,0.129,0.485,0.698c0.146,0.566,1.287,1.837,1.3,2.633c0.013,0.957-0.75,1.747-1.707,1.76 c-0.958,0.012-1.747-0.751-1.76-1.708L264.536,148.726z" class="st11"/></g><g><path d="M269.779,193.019c0.677-0.677,0.677-1.775,0-2.452s-1.775-0.677-2.452,0s-0.677,1.775,0,2.452 S269.102,193.696,269.779,193.019z" class="st11"/></g><g><path d="M267.929,163.193c0.677-0.677,0.677-1.775,0-2.452c-0.677-0.677-1.775-0.677-2.452,0 s-0.677,1.775,0,2.452C266.154,163.87,267.252,163.87,267.929,163.193z" class="st11"/></g><g><path d="M269.934,179.597c-0.773,0.01-2.044-0.977-2.668-1.168c-0.625-0.191-0.702,0.023-0.712-0.517 c-0.01-0.54,0.129-0.343,0.699-0.485c0.566-0.146,1.837-1.288,2.632-1.301c0.958-0.013,1.747,0.751,1.76,1.708 s-0.751,1.747-1.708,1.76L269.934,179.597z" class="st11"/></g><g><path d="M263.482,176.223c0.773-0.009,2.044,0.977,2.668,1.168c0.624,0.191,0.702-0.023,0.711,0.517 c0.01,0.541-0.129,0.343-0.698,0.486c-0.569,0.142-1.837,1.287-2.633,1.3c-0.957,0.013-1.746-0.751-1.759-1.708 c-0.013-0.957,0.75-1.746,1.707-1.759L263.482,176.223z" class="st11"/></g><g><path d="M268.394,174.687c0.01,0.773-0.976,2.044-1.167,2.668c-0.191,0.625,0.022,0.702-0.518,0.712 c-0.54,0.01-0.342-0.129-0.485-0.699c-0.145-0.566-1.287-1.837-1.3-2.632c-0.013-0.958,0.75-1.747,1.708-1.76 c0.957-0.013,1.746,0.751,1.759,1.708L268.394,174.687z" class="st11"/></g><g><path d="M265.024,181.136c-0.009-0.773,0.977-2.044,1.168-2.668c0.191-0.624-0.023-0.702,0.517-0.712 c0.54-0.009,0.343,0.13,0.485,0.699c0.146,0.566,1.288,1.837,1.301,2.633c0.013,0.957-0.751,1.746-1.708,1.759 s-1.747-0.75-1.76-1.707L265.024,181.136z" class="st11"/></g><g><path d="M273.411,194.601c-0.123-1.132,0.081-2.319,0.65-3.419c0.569-1.1,1.365-1.805,2.254-2.377 c0,0,0.615-0.35,0.864,0.204c0.126,0.249,0.068,0.527-0.337,0.808c-0.404,0.282-1.316,1.084-1.736,1.892 c-0.434,0.835-0.605,1.737-0.544,2.601c0,0,0.058,0.659-0.514,0.727c-0.566,0.068-0.644-0.436-0.644-0.436H273.411z" class="st11"/></g><g><path d="M281.865,198.954c0.958-0.595,1.824-1.397,2.39-2.487c1.508-2.905,0.443-6.44-2.37-7.902 c-1.116-0.578-2.497-0.769-3.51-0.553c-0.223,0.068-0.598,0.217-0.566,0.696c0.065,0.375,0.408,0.472,0.913,0.427 c0.879-0.104,1.772,0.026,2.6,0.452c2.225,1.152,3.05,3.975,1.847,6.298c-0.453,0.873-1.126,1.552-1.909,1.998 c-0.465,0.285-0.465,0.705-0.368,0.9c0.136,0.271,0.54,0.443,0.983,0.174L281.865,198.954z" class="st11"/></g><g><path d="M273.993,196.599c0.485,0.9,1.345,1.915,2.439,2.484c0.976,0.505,2.037,0.744,3.063,0.605 c0.456-0.061,0.798-0.385,0.718-0.834c-0.085-0.447-0.528-0.418-0.528-0.418c-0.912,0.149-1.866,0.017-2.736-0.433 c-0.834-0.433-1.471-1.096-1.879-1.885c0,0-0.275-0.696-0.799-0.405c-0.43,0.262-0.417,0.612-0.281,0.883L273.993,196.599z" class="st11"/></g><g><path d="M282.751,193.236l-1.976,3.806l-1.277-0.663l1.177-2.264l-0.67-0.346l-0.938,1.812l-1.264-0.657 l0.941-1.808l-0.731-0.382l-1.177,2.264l-1.323-0.682l1.973-3.81L282.751,193.236z" class="st11"/></g><g><path d="M288.334,165.822c-0.123-1.132,0.081-2.319,0.65-3.419c0.569-1.093,1.365-1.804,2.254-2.377 c0,0,0.615-0.349,0.864,0.204c0.126,0.249,0.068,0.527-0.337,0.809c-0.404,0.281-1.316,1.083-1.736,1.892 c-0.421,0.808-0.605,1.736-0.544,2.6c0,0,0.058,0.66-0.514,0.728c-0.566,0.068-0.644-0.437-0.644-0.437H288.334z" class="st11"/></g><g><path d="M296.788,170.175c0.958-0.595,1.824-1.397,2.39-2.487c1.508-2.904,0.443-6.439-2.37-7.901 c-1.116-0.579-2.497-0.77-3.51-0.553c-0.223,0.068-0.598,0.216-0.566,0.695c0.065,0.375,0.408,0.472,0.912,0.427 c0.88-0.103,1.773,0.026,2.601,0.453c2.225,1.151,3.05,3.975,1.847,6.297c-0.453,0.873-1.126,1.552-1.909,1.999 c-0.465,0.284-0.465,0.705-0.368,0.899c0.136,0.272,0.54,0.443,0.983,0.175L296.788,170.175z" class="st11"/></g><g><path d="M288.916,167.821c0.485,0.899,1.345,1.914,2.439,2.484c0.976,0.504,2.037,0.744,3.062,0.605 c0.456-0.062,0.799-0.385,0.718-0.835c-0.08-0.449-0.527-0.417-0.527-0.417c-0.912,0.149-1.866,0.016-2.736-0.434 c-0.87-0.449-1.472-1.096-1.879-1.885c0,0-0.275-0.695-0.799-0.404c-0.43,0.262-0.417,0.611-0.281,0.883L288.916,167.821z" class="st11"/></g><g><path d="M297.674,164.457l-1.976,3.807l-1.274-0.66l1.174-2.267l-0.67-0.346l-0.941,1.814l-1.261-0.653 l0.941-1.815l-0.731-0.381l-1.174,2.267l-1.326-0.686l1.976-3.806L297.674,164.457z" class="st11"/></g><g><path d="M288.01,180.344c0.677-0.677,0.677-1.775,0-2.452s-1.774-0.677-2.451,0s-0.677,1.775,0,2.452 C286.236,181.021,287.333,181.021,288.01,180.344z" class="st11"/></g><g><path d="M302.691,152.041c0.677-0.677,0.677-1.775,0-2.452s-1.775-0.677-2.452,0 c-0.677,0.677-0.677,1.775,0,2.452C300.916,152.718,302.014,152.718,302.691,152.041z" class="st11"/></g><g><path d="M325.441,173.691c-0.456-0.624-0.388-2.232-0.592-2.849c-0.207-0.621-0.424-0.56,0.009-0.877 c0.437-0.32,0.356-0.09,0.799,0.288c0.443,0.378,2.116,0.75,2.581,1.391c0.566,0.773,0.398,1.859-0.375,2.425 c-0.773,0.566-1.86,0.398-2.426-0.375L325.441,173.691z" class="st11"/></g><g><path d="M324.457,166.479c0.456,0.624,0.388,2.231,0.592,2.849c0.207,0.621,0.424,0.559-0.009,0.876 c-0.437,0.321-0.356,0.091-0.799-0.287c-0.443-0.379-2.116-0.751-2.581-1.391c-0.566-0.773-0.398-1.86,0.375-2.426 c0.773-0.566,1.86-0.398,2.426,0.375L324.457,166.479z" class="st11"/></g><g><path d="M328.555,169.593c-0.624,0.456-2.231,0.388-2.849,0.592c-0.618,0.204-0.56,0.424-0.877-0.01 c-0.32-0.436-0.09-0.355,0.288-0.799c0.379-0.443,0.751-2.115,1.391-2.58c0.773-0.566,1.86-0.398,2.426,0.375 c0.566,0.773,0.397,1.859-0.376,2.425L328.555,169.593z" class="st11"/></g><g><path d="M321.343,170.576c0.624-0.456,2.231-0.388,2.849-0.591c0.618-0.204,0.56-0.424,0.877,0.009 c0.32,0.437,0.09,0.356-0.288,0.799c-0.379,0.443-0.75,2.115-1.391,2.581c-0.773,0.566-1.86,0.398-2.426-0.375 c-0.566-0.773-0.397-1.86,0.376-2.426L321.343,170.576z" class="st11"/></g><g><path d="M287.781,201.053c0.677-0.677,0.677-1.775,0-2.452s-1.775-0.677-2.452,0s-0.677,1.775,0,2.452 C286.006,201.73,287.104,201.73,287.781,201.053z" class="st11"/></g><g><path d="M313.027,181.24c0.677-0.677,0.677-1.775,0-2.452s-1.774-0.677-2.451,0s-0.677,1.775,0,2.452 S312.35,181.917,313.027,181.24z" class="st11"/></g><g><path d="M299.304,192.861c-0.456-0.625-0.388-2.232-0.591-2.85c-0.207-0.621-0.424-0.559,0.009-0.876 c0.434-0.317,0.356-0.091,0.799,0.288c0.443,0.378,2.115,0.75,2.581,1.39c0.566,0.773,0.398,1.86-0.375,2.426 c-0.773,0.566-1.86,0.398-2.426-0.375L299.304,192.861z" class="st11"/></g><g><path d="M298.315,185.648c0.456,0.624,0.388,2.232,0.592,2.85c0.207,0.621,0.423,0.559-0.01,0.876 c-0.437,0.32-0.356,0.091-0.799-0.288c-0.443-0.378-2.115-0.75-2.581-1.391c-0.566-0.773-0.398-1.859,0.375-2.425 c0.773-0.566,1.86-0.398,2.426,0.375L298.315,185.648z" class="st11"/></g><g><path d="M302.416,188.76c-0.624,0.456-2.232,0.388-2.85,0.591c-0.621,0.207-0.559,0.424-0.876-0.009 c-0.32-0.437-0.091-0.356,0.288-0.799c0.378-0.443,0.75-2.115,1.39-2.581c0.773-0.566,1.86-0.398,2.426,0.375 c0.566,0.773,0.398,1.86-0.375,2.426L302.416,188.76z" class="st11"/></g><g><path d="M295.203,189.749c0.625-0.456,2.232-0.388,2.85-0.592c0.621-0.207,0.559-0.423,0.876,0.01 c0.32,0.437,0.091,0.356-0.288,0.799c-0.378,0.443-0.75,2.115-1.39,2.581c-0.773,0.566-1.86,0.398-2.426-0.375 c-0.566-0.773-0.398-1.86,0.375-2.426L295.203,189.749z" class="st11"/></g><g><path d="M286.998,206.189c0.851-0.754,1.937-1.278,3.16-1.452c1.219-0.172,2.264,0.065,3.244,0.456 c0,0,0.64,0.297,0.333,0.818c-0.126,0.249-0.388,0.362-0.854,0.194c-0.462-0.165-1.646-0.443-2.545-0.314 c-0.935,0.133-1.766,0.518-2.432,1.068c0,0-0.505,0.427-0.89,0.003C286.629,206.538,286.998,206.189,286.998,206.189z" class="st11"/></g><g><path d="M288.36,215.598c1.041,0.433,2.196,0.676,3.409,0.504c3.24-0.459,5.504-3.376,5.058-6.514 c-0.178-1.245-0.822-2.484-1.588-3.179c-0.184-0.146-0.524-0.362-0.896-0.061c-0.268,0.268-0.149,0.608,0.181,0.989 c0.595,0.654,1.009,1.456,1.139,2.381c0.352,2.48-1.466,4.79-4.056,5.155c-0.974,0.139-1.918-0.016-2.733-0.398 c-0.501-0.216-0.844,0.029-0.945,0.22C287.784,214.964,287.884,215.394,288.36,215.598z" class="st11"/></g><g><path d="M285.711,207.819c-0.45,0.915-0.78,2.209-0.608,3.428c0.155,1.087,0.575,2.09,1.28,2.847 c0.314,0.333,0.78,0.43,1.097,0.1c0.317-0.33,0.035-0.67,0.035-0.67c-0.65-0.656-1.096-1.51-1.235-2.477 c-0.133-0.928,0.042-1.834,0.443-2.623c0,0,0.408-0.628-0.136-0.886c-0.462-0.198-0.74,0.016-0.88,0.284L285.711,207.819z" class="st11"/></g><g><path d="M293.531,213l-4.246,0.605l-0.201-1.423l2.526-0.359l-0.107-0.747l-2.018,0.285l-0.2-1.404l2.021-0.288 l-0.116-0.815l-2.53,0.356l-0.207-1.475l4.247-0.605L293.531,213z" class="st11"/></g><g><path d="M317.164,201.47c0.851-0.753,1.937-1.277,3.16-1.452c1.223-0.175,2.264,0.065,3.244,0.456 c0,0,0.64,0.298,0.333,0.818c-0.126,0.249-0.388,0.363-0.854,0.194c-0.466-0.168-1.646-0.443-2.545-0.313 c-0.899,0.129-1.766,0.517-2.432,1.067c0,0-0.505,0.427-0.89,0.003C316.795,201.82,317.164,201.47,317.164,201.47z" class="st11"/></g><g><path d="M318.526,210.879c1.041,0.433,2.196,0.676,3.409,0.504c3.24-0.459,5.504-3.376,5.058-6.514 c-0.178-1.245-0.821-2.483-1.588-3.179c-0.184-0.145-0.524-0.362-0.896-0.061c-0.268,0.268-0.149,0.608,0.181,0.989 c0.595,0.654,1.009,1.456,1.139,2.381c0.352,2.481-1.465,4.79-4.056,5.155c-0.974,0.139-1.918-0.016-2.733-0.398 c-0.501-0.216-0.844,0.03-0.944,0.22C317.95,210.245,318.05,210.675,318.526,210.879z" class="st11"/></g><g><path d="M315.874,203.104c-0.45,0.915-0.78,2.209-0.608,3.428c0.155,1.087,0.575,2.089,1.28,2.846 c0.314,0.333,0.78,0.43,1.097,0.1c0.314-0.326,0.035-0.669,0.035-0.669c-0.65-0.657-1.096-1.511-1.235-2.478 c-0.133-0.928,0.042-1.834,0.443-2.623c0,0,0.408-0.627-0.136-0.886c-0.462-0.197-0.74,0.016-0.88,0.285L315.874,203.104z" class="st11"/></g><g><path d="M323.697,208.282l-4.246,0.604l-0.204-1.426l2.529-0.356l-0.106-0.747l-2.019,0.285l-0.203-1.407 l2.024-0.285l-0.119-0.818l-2.526,0.359l-0.207-1.475l4.246-0.605L323.697,208.282z" class="st11"/></g><g><path d="M308.596,209.32c0.677-0.677,0.677-1.775,0-2.452s-1.774-0.677-2.451,0s-0.677,1.775,0,2.452 C306.822,209.997,307.919,209.997,308.596,209.32z" class="st11"/></g><g><path d="M291.733,223.201c0.677-0.677,0.677-1.774,0-2.451s-1.775-0.677-2.452,0s-0.677,1.774,0,2.451 S291.056,223.878,291.733,223.201z" class="st11"/></g><g><path d="M322.763,229.01c0.677-0.677,0.677-1.774,0-2.451c-0.677-0.677-1.775-0.677-2.452,0 c-0.677,0.677-0.677,1.774,0,2.451S322.086,229.687,322.763,229.01z" class="st11"/></g><g><path d="M303.651,226.607c0.178-0.754,1.446-1.743,1.782-2.3c0.337-0.556,0.149-0.685,0.673-0.562 c0.524,0.123,0.301,0.21,0.301,0.792s0.802,2.096,0.618,2.869c-0.22,0.931-1.436,1.792-2.368,1.572 C303.726,228.758,303.428,227.542,303.651,226.607z" class="st11"/></g><g><path d="M308.5,221.177c-0.178,0.753-1.446,1.743-1.783,2.299c-0.336,0.557-0.148,0.686-0.672,0.563 c-0.524-0.123-0.301-0.21-0.301-0.792c0-0.583-0.802-2.096-0.618-2.869c0.22-0.932,1.155-1.511,2.086-1.291 c0.932,0.22,1.511,1.155,1.291,2.086L308.5,221.177z" class="st11"/></g><g><path d="M308.787,226.316c-0.753-0.178-1.743-1.446-2.299-1.782s-0.686-0.149-0.563-0.673 c0.123-0.524,0.21-0.301,0.792-0.301c0.583,0,2.096-0.802,2.869-0.617c0.932,0.22,1.511,1.154,1.291,2.086 c-0.22,0.931-1.155,1.51-2.086,1.29L308.787,226.316z" class="st11"/></g><g><path d="M303.357,221.468c0.754,0.178,1.743,1.445,2.3,1.782c0.556,0.336,0.685,0.149,0.562,0.673 c-0.123,0.524-0.21,0.3-0.792,0.3s-2.096,0.802-2.869,0.618c-0.931-0.22-1.51-1.155-1.29-2.086s1.154-1.51,2.086-1.29 L303.357,221.468z" class="st11"/></g><g><path d="M284.401,228.03c1.138-0.026,2.306,0.282,3.347,0.941c1.042,0.66,1.682,1.514,2.177,2.449 c0,0,0.294,0.643-0.278,0.841c-0.256,0.106-0.527,0.022-0.773-0.405s-0.97-1.403-1.737-1.892 c-0.766-0.488-1.679-0.753-2.545-0.76c0,0-0.66,0-0.683-0.572C283.893,228.059,284.401,228.03,284.401,228.03z" class="st11"/></g><g><path d="M279.339,236.08c0.514,1.006,1.236,1.941,2.271,2.594c2.765,1.75,6.378,0.996,8.076-1.685 c0.676-1.064,0.98-2.422,0.85-3.451c-0.048-0.23-0.165-0.611-0.643-0.624c-0.379,0.029-0.508,0.365-0.502,0.87 c0.029,0.883-0.178,1.763-0.672,2.549c-1.339,2.115-4.221,2.7-6.43,1.3c-0.828-0.524-1.449-1.255-1.824-2.07 c-0.243-0.489-0.663-0.527-0.864-0.443c-0.281,0.113-0.488,0.501-0.255,0.967L279.339,236.08z" class="st11"/></g><g><path d="M282.363,228.438c-0.934,0.404-2.024,1.177-2.684,2.218c-0.586,0.929-0.919,1.967-0.867,3.002 c0.023,0.456,0.314,0.831,0.77,0.782c0.453-0.045,0.462-0.488,0.462-0.488c-0.068-0.922,0.139-1.86,0.663-2.688 c0.502-0.792,1.223-1.371,2.041-1.711c0,0,0.718-0.213,0.472-0.763c-0.223-0.449-0.575-0.466-0.853-0.356L282.363,228.438z" class="st11"/></g><g><path d="M284.964,237.455l-3.623-2.297l0.767-1.212l2.157,1.361l0.404-0.637l-1.727-1.093l0.76-1.2l1.727,1.093 l0.44-0.698l-2.157-1.362l0.796-1.261l3.625,2.293L284.964,237.455z" class="st11"/></g><g><path d="M310.725,244.444c1.138-0.026,2.306,0.281,3.347,0.941c1.042,0.66,1.682,1.514,2.177,2.449 c0,0,0.294,0.643-0.278,0.841c-0.256,0.106-0.528,0.022-0.773-0.405c-0.246-0.427-0.971-1.403-1.737-1.892 c-0.767-0.488-1.679-0.753-2.545-0.76c0,0-0.66,0-0.683-0.572C310.217,244.473,310.725,244.444,310.725,244.444z" class="st11"/></g><g><path d="M305.666,252.497c0.514,1.006,1.236,1.941,2.271,2.594c2.765,1.75,6.378,0.996,8.076-1.685 c0.676-1.064,0.98-2.422,0.85-3.451c-0.048-0.229-0.165-0.611-0.643-0.624c-0.379,0.029-0.508,0.366-0.502,0.87 c0.029,0.883-0.178,1.763-0.672,2.549c-1.339,2.115-4.221,2.7-6.43,1.3c-0.828-0.524-1.449-1.255-1.824-2.07 c-0.243-0.488-0.663-0.527-0.864-0.443c-0.281,0.113-0.488,0.501-0.255,0.967L305.666,252.497z" class="st11"/></g><g><path d="M308.687,244.852c-0.935,0.404-2.025,1.177-2.684,2.218c-0.586,0.929-0.919,1.967-0.867,3.002 c0.022,0.456,0.314,0.831,0.77,0.782c0.456-0.048,0.462-0.488,0.462-0.488c-0.068-0.922,0.139-1.86,0.663-2.688 c0.501-0.792,1.223-1.371,2.041-1.711c0,0,0.718-0.213,0.472-0.763c-0.223-0.449-0.576-0.466-0.854-0.356L308.687,244.852z" class="st11"/></g><g><path d="M311.287,253.869l-3.622-2.297l0.767-1.212l2.157,1.361l0.404-0.637l-1.724-1.09l0.76-1.2l1.724,1.09 l0.443-0.695l-2.16-1.365l0.799-1.258l3.625,2.293L311.287,253.869z" class="st11"/></g><g><path d="M299.909,243.907c0.677-0.677,0.677-1.774,0-2.451c-0.677-0.677-1.774-0.677-2.451,0 c-0.677,0.677-0.677,1.774,0,2.451S299.232,244.584,299.909,243.907z" class="st11"/></g><g><path d="M326.854,260.955c0.677-0.677,0.677-1.775,0-2.451c-0.677-0.677-1.775-0.677-2.452-0.001 c-0.677,0.677-0.677,1.775,0,2.452C325.079,261.632,326.177,261.632,326.854,260.955z" class="st11"/></g><g><path d="M308.15,279.413c0.501-0.592,2.077-0.899,2.63-1.245s0.446-0.543,0.857-0.197 c0.41,0.346,0.174,0.323-0.094,0.844c-0.269,0.521-0.233,2.231-0.747,2.836c-0.618,0.734-1.711,0.825-2.445,0.207 c-0.734-0.618-0.825-1.711-0.207-2.445H308.15z" class="st11"/></g><g><path d="M314.932,276.764c-0.501,0.592-2.076,0.899-2.629,1.245c-0.553,0.347-0.446,0.544-0.857,0.198 c-0.411-0.346-0.175-0.324,0.094-0.844c0.268-0.521,0.233-2.232,0.747-2.837c0.618-0.734,1.711-0.825,2.445-0.207 s0.825,1.711,0.207,2.445H314.932z" class="st11"/></g><g><path d="M312.869,281.48c-0.592-0.502-0.899-2.077-1.245-2.63c-0.346-0.553-0.544-0.446-0.197-0.857 c0.346-0.41,0.323-0.174,0.844,0.094c0.52,0.268,2.231,0.233,2.836,0.747c0.734,0.618,0.825,1.711,0.207,2.445 c-0.618,0.734-1.711,0.825-2.445,0.207V281.48z" class="st11"/></g><g><path d="M310.217,274.701c0.592,0.501,0.899,2.076,1.245,2.629c0.346,0.553,0.543,0.447,0.197,0.857 c-0.346,0.411-0.323,0.175-0.844-0.093c-0.52-0.262-2.231-0.233-2.836-0.748c-0.734-0.617-0.825-1.711-0.207-2.445 s1.711-0.824,2.445-0.207V274.701z" class="st11"/></g><g><path d="M275.672,248.293c0.676-0.677,0.677-1.775,0-2.452s-1.775-0.677-2.452,0s-0.677,1.775,0,2.452 S274.995,248.97,275.672,248.293z" class="st11"/></g><g><path d="M300.032,268.863c0.677-0.677,0.677-1.775,0-2.452s-1.774-0.677-2.451,0s-0.677,1.775,0,2.452 S299.355,269.54,300.032,268.863z" class="st11"/></g><g><path d="M283.385,258.497c0.502-0.592,2.077-0.899,2.63-1.245c0.553-0.346,0.446-0.544,0.857-0.197 c0.411,0.346,0.175,0.323-0.094,0.844c-0.268,0.52-0.233,2.231-0.747,2.836c-0.618,0.734-1.711,0.825-2.445,0.207 c-0.734-0.618-0.825-1.711-0.207-2.445H283.385z" class="st11"/></g><g><path d="M290.168,255.848c-0.502,0.592-2.077,0.899-2.63,1.245c-0.553,0.346-0.446,0.544-0.857,0.198 c-0.411-0.346-0.175-0.324,0.094-0.844c0.268-0.521,0.233-2.232,0.747-2.837c0.618-0.734,1.711-0.825,2.445-0.207 c0.734,0.618,0.825,1.711,0.207,2.445H290.168z" class="st11"/></g><g><path d="M288.104,260.564c-0.592-0.502-0.899-2.077-1.245-2.63c-0.346-0.553-0.543-0.446-0.197-0.857 c0.346-0.411,0.323-0.174,0.844,0.094c0.521,0.262,2.231,0.233,2.836,0.747c0.734,0.618,0.825,1.711,0.207,2.445 c-0.617,0.734-1.711,0.825-2.445,0.207V260.564z" class="st11"/></g><g><path d="M285.449,253.781c0.592,0.502,0.899,2.077,1.245,2.63c0.346,0.553,0.543,0.446,0.197,0.857 c-0.346,0.411-0.323,0.175-0.844-0.094c-0.521-0.262-2.232-0.233-2.836-0.747c-0.735-0.618-0.825-1.711-0.207-2.445 c0.617-0.734,1.711-0.825,2.445-0.207V253.781z" class="st11"/></g></g><defs><filter id="Adobe_OpacityMaskFilter_00000115490460383587562260000008649532545603444653_" width="63.665" height="76.456" x="212.863" y="188.484" filterUnits="userSpaceOnUse"><feColorMatrix type="matrix" values="1 0 0 0 0 0 1 0 0 0 0 0 1 0 0 0 0 0 1 0"/></filter></defs><mask id="mask1_4164_707_00000044142283723923833000000012561657973121629096_" width="63.665" height="76.456" x="212.863" y="188.484" maskUnits="userSpaceOnUse"><path style="fill:#fff;filter:url(#Adobe_OpacityMaskFilter_00000115490460383587562260000008649532545603444653_)" d="M237.882,266.534c28.158-7.154,38.048-21.307,42.466-28.461c-11.718,1.064-41.706-13.089-23.743-40.788 c17.96-27.701-9.887-21.226-18.723-36.68c-23.135,14.609-29.374,39.116-29.374,39.116s-14.609,43.226,29.377,66.817 L237.882,266.534z"/></mask><g class="st13"><g><path d="M268.592,233.412c-0.072,1.138-0.469,2.274-1.217,3.26c-0.743,0.983-1.649,1.553-2.619,1.967 c0,0-0.667,0.239-0.815-0.35c-0.084-0.265,0.019-0.53,0.469-0.74c0.446-0.207,1.478-0.851,2.027-1.575 c0.55-0.725,0.887-1.611,0.971-2.471c0,0,0.055-0.657,0.627-0.628c0.573,0.029,0.56,0.54,0.56,0.54L268.592,233.412z" class="st11"/></g><g><path d="M260.988,227.704c-1.048,0.427-2.035,1.07-2.772,2.047c-1.97,2.61-1.52,6.274,1.012,8.186 c1.006,0.76,2.332,1.18,3.37,1.132c0.23-0.029,0.625-0.113,0.676-0.592c0-0.382-0.32-0.534-0.824-0.572 c-0.88-0.046-1.744-0.321-2.484-0.88c-2.002-1.511-2.339-4.428-0.764-6.514c0.592-0.786,1.372-1.339,2.216-1.646 c0.504-0.201,0.579-0.618,0.514-0.825c-0.09-0.291-0.459-0.524-0.941-0.333L260.988,227.704z" class="st11"/></g><g><path d="M268.355,231.345c-0.326-0.967-1.002-2.115-1.986-2.859c-0.876-0.663-1.885-1.077-2.917-1.112 c-0.456-0.016-0.854,0.246-0.844,0.702c0.01,0.456,0.45,0.501,0.45,0.501c0.925,0.006,1.84,0.294,2.623,0.883 c0.747,0.566,1.264,1.329,1.533,2.173c0,0,0.152,0.734,0.721,0.534c0.469-0.184,0.514-0.534,0.424-0.825L268.355,231.345z" class="st11"/></g><g><path d="M259.154,233.192l2.587-3.422l1.145,0.867l-1.539,2.038l0.605,0.456l1.229-1.63l1.135,0.857 l-1.232,1.626l0.659,0.499l1.54-2.038l1.19,0.899l-2.587,3.422L259.154,233.192z" class="st11"/></g><g><path d="M249.057,259.28c-0.072,1.138-0.469,2.273-1.217,3.26c-0.743,0.983-1.649,1.552-2.619,1.966 c0,0-0.667,0.24-0.815-0.349c-0.084-0.265,0.019-0.53,0.469-0.741c0.446-0.207,1.478-0.85,2.027-1.575 c0.57-0.75,0.887-1.61,0.971-2.471c0,0,0.055-0.656,0.627-0.627c0.573,0.029,0.56,0.54,0.56,0.54L249.057,259.28z" class="st11"/></g><g><path d="M241.453,253.571c-1.048,0.427-2.035,1.071-2.772,2.048c-1.97,2.61-1.52,6.274,1.012,8.186 c1.006,0.76,2.332,1.18,3.37,1.132c0.23-0.03,0.625-0.114,0.676-0.592c0-0.382-0.32-0.534-0.824-0.573 c-0.88-0.045-1.744-0.32-2.484-0.88c-2.002-1.51-2.339-4.427-0.764-6.513c0.592-0.786,1.372-1.339,2.216-1.647 c0.504-0.2,0.579-0.617,0.514-0.824c-0.09-0.291-0.459-0.524-0.941-0.334L241.453,253.571z" class="st11"/></g><g><path d="M248.817,257.216c-0.327-0.967-1.003-2.115-1.986-2.859c-0.876-0.663-1.885-1.077-2.917-1.112 c-0.456-0.016-0.854,0.245-0.844,0.702c0.01,0.456,0.449,0.501,0.449,0.501c0.925,0.006,1.841,0.294,2.623,0.883 c0.783,0.588,1.265,1.329,1.533,2.173c0,0,0.152,0.734,0.722,0.534c0.469-0.184,0.514-0.534,0.423-0.825L248.817,257.216z" class="st11"/></g><g><path d="M239.619,259.06l2.581-3.422l1.151,0.867l-1.539,2.037l0.601,0.453l1.232-1.627l1.132,0.854l-1.229,1.63 l0.657,0.495l1.536-2.034l1.191,0.899l-2.581,3.422L239.619,259.06z" class="st11"/></g><g><path d="M254.034,247.659c0.677-0.677,0.677-1.775,0-2.452s-1.775-0.677-2.452,0s-0.677,1.775,0,2.452 S253.357,248.336,254.034,247.659z" class="st11"/></g><g><path d="M266.169,251.113c0.682,0.366,1.316,1.841,1.772,2.31c0.456,0.469,0.625,0.32,0.376,0.795 c-0.256,0.476-0.282,0.236-0.845,0.088c-0.562-0.149-2.231,0.239-2.933-0.133c-0.844-0.45-1.164-1.501-0.718-2.348 c0.449-0.844,1.501-1.164,2.348-0.718V251.113z" class="st11"/></g><g><path d="M270.189,257.184c-0.682-0.366-1.316-1.84-1.772-2.309s-0.624-0.321-0.375-0.796 c0.249-0.475,0.281-0.236,0.844-0.087c0.563,0.148,2.231-0.24,2.933,0.132c0.844,0.45,1.165,1.501,0.718,2.348 c-0.449,0.845-1.5,1.165-2.348,0.718V257.184z" class="st11"/></g><g><path d="M265.141,256.159c0.365-0.683,1.84-1.317,2.309-1.773c0.469-0.456,0.32-0.624,0.795-0.375 c0.476,0.249,0.237,0.282,0.088,0.844c-0.149,0.563,0.239,2.232-0.133,2.934c-0.449,0.844-1.5,1.164-2.348,0.718 c-0.847-0.447-1.164-1.501-0.718-2.348H265.141z" class="st11"/></g><g><path d="M271.211,252.138c-0.365,0.683-1.84,1.317-2.309,1.773c-0.469,0.456-0.32,0.624-0.796,0.375 c-0.475-0.249-0.236-0.281-0.087-0.844c0.149-0.563,0.576-1.54,0.948-2.241c0.449-0.845,1.665-1.362,2.51-0.913 c0.844,0.45,0.184,1.006-0.266,1.857V252.138z" class="st11"/></g><g><path d="M254.561,225.074c0.677-0.677,0.677-1.775,0-2.452c-0.677-0.677-1.774-0.677-2.451,0 c-0.677,0.677-0.677,1.775,0,2.452S253.884,225.751,254.561,225.074z" class="st11"/></g><g><path d="M227.739,240.886c0.677-0.677,0.677-1.774,0-2.451s-1.774-0.677-2.451,0s-0.677,1.774,0,2.451 S227.062,241.563,227.739,240.886z" class="st11"/></g><g><path d="M239.994,227.843c0.408,0.659,0.21,2.254,0.365,2.888c0.156,0.634,0.379,0.592-0.08,0.876 c-0.46,0.285-0.359,0.062-0.777-0.349c-0.41-0.411-2.047-0.915-2.464-1.591c-0.505-0.815-0.252-1.883,0.563-2.387 c0.815-0.505,1.882-0.252,2.387,0.563H239.994z" class="st11"/></g><g><path d="M240.408,235.113c-0.407-0.66-0.21-2.254-0.365-2.888c-0.156-0.634-0.379-0.592,0.08-0.876 c0.46-0.285,0.359-0.062,0.777,0.349c0.41,0.411,2.047,0.915,2.464,1.591c0.505,0.815,0.252,1.882-0.563,2.387 c-0.815,0.505-1.882,0.252-2.387-0.563H240.408z" class="st11"/></g><g><path d="M236.566,231.685c0.659-0.408,2.254-0.21,2.888-0.365c0.634-0.156,0.592-0.379,0.876,0.08 c0.285,0.46,0.062,0.359-0.349,0.777c-0.411,0.41-0.915,2.047-1.591,2.464c-0.815,0.505-1.883,0.252-2.387-0.563 c-0.505-0.815-0.252-1.882,0.563-2.387V231.685z" class="st11"/></g><g><path d="M243.836,231.271c-0.659,0.408-2.254,0.21-2.888,0.365c-0.634,0.156-0.592,0.379-0.876-0.08 c-0.285-0.46-0.062-0.359,0.349-0.777c0.411-0.41,0.915-2.047,1.591-2.464c0.815-0.505,1.883-0.252,2.387,0.563 c0.505,0.815,0.252,1.882-0.563,2.387V231.271z" class="st11"/></g><g><path d="M254.801,217.758c-0.896,0.702-2.012,1.158-3.244,1.258c-1.229,0.097-2.258-0.2-3.209-0.653 c0,0-0.621-0.336-0.284-0.841c0.142-0.239,0.407-0.336,0.863-0.139c0.453,0.194,1.62,0.54,2.523,0.466 c0.902-0.075,1.792-0.408,2.49-0.919c0,0,0.527-0.398,0.89,0.049c0.362,0.446-0.033,0.776-0.033,0.776L254.801,217.758z" class="st11"/></g><g><path d="M254.011,208.282c-1.015-0.498-2.154-0.809-3.373-0.709c-3.26,0.259-5.696,3.037-5.447,6.197 c0.104,1.255,0.67,2.526,1.394,3.27c0.175,0.155,0.502,0.392,0.89,0.113c0.284-0.252,0.187-0.595-0.123-0.996 c-0.553-0.689-0.919-1.513-0.993-2.442c-0.201-2.496,1.753-4.689,4.363-4.9c0.977-0.077,1.911,0.133,2.704,0.563 c0.485,0.246,0.844,0.023,0.957-0.162c0.162-0.258,0.088-0.695-0.375-0.925L254.011,208.282z" class="st11"/></g><g><path d="M256.188,216.209c0.505-0.886,0.915-2.157,0.812-3.386c-0.087-1.097-0.45-2.125-1.109-2.921 c-0.295-0.352-0.754-0.475-1.087-0.168c-0.333,0.307-0.075,0.669-0.075,0.669c0.608,0.693,1.003,1.572,1.081,2.549 c0.077,0.977-0.152,1.827-0.605,2.591c0,0-0.446,0.601,0.078,0.892c0.449,0.23,0.74,0.029,0.895-0.229L256.188,216.209z" class="st11"/></g><g><path d="M248.691,210.562l4.279-0.346l0.116,1.436l-2.545,0.204l0.058,0.75l2.038-0.162l0.113,1.414 l-2.034,0.165l0.064,0.821l2.546-0.204l0.116,1.488l-4.276,0.343L248.691,210.562z" class="st11"/></g><g><path d="M222.49,220.352c-0.896,0.702-2.012,1.158-3.244,1.258c-1.229,0.097-2.257-0.2-3.208-0.653 c0,0-0.621-0.337-0.285-0.841c0.142-0.239,0.408-0.336,0.864-0.139c0.456,0.197,1.62,0.54,2.522,0.466 c0.942-0.075,1.792-0.408,2.491-0.919c0,0,0.527-0.398,0.889,0.049c0.362,0.446-0.032,0.776-0.032,0.776L222.49,220.352z" class="st11"/></g><g><path d="M221.701,210.876c-1.016-0.498-2.154-0.809-3.373-0.709c-3.261,0.259-5.696,3.037-5.447,6.197 c0.104,1.255,0.67,2.526,1.394,3.27c0.175,0.155,0.501,0.391,0.89,0.113c0.284-0.252,0.187-0.595-0.123-0.996 c-0.553-0.689-0.919-1.514-0.993-2.442c-0.201-2.497,1.753-4.69,4.363-4.9c0.976-0.077,1.911,0.133,2.704,0.563 c0.485,0.246,0.844,0.023,0.957-0.162c0.162-0.258,0.087-0.695-0.375-0.925L221.701,210.876z" class="st11"/></g><g><path d="M223.874,218.8c0.505-0.887,0.916-2.158,0.812-3.387c-0.087-1.096-0.449-2.125-1.109-2.92 c-0.294-0.353-0.754-0.476-1.087-0.168c-0.333,0.307-0.074,0.669-0.074,0.669c0.608,0.692,1.002,1.572,1.08,2.549 c0.078,0.976-0.152,1.827-0.605,2.59c0,0-0.446,0.602,0.078,0.893c0.449,0.23,0.74,0.029,0.896-0.23L223.874,218.8z" class="st11"/></g><g><path d="M216.381,213.156l4.275-0.343l0.114,1.433l-2.539,0.203l0.058,0.751l2.037-0.162l0.11,1.417 l-2.034,0.165l0.065,0.821l2.545-0.204l0.12,1.485l-4.276,0.343L216.381,213.156z" class="st11"/></g><g><path d="M235.812,215.847c0.677-0.677,0.677-1.775,0-2.452s-1.774-0.677-2.451,0 c-0.677,0.677-0.677,1.775,0,2.452C234.038,216.524,235.135,216.524,235.812,215.847z" class="st11"/></g><g><path d="M276.021,239.554c0.677-0.677,0.677-1.775,0-2.452s-1.775-0.677-2.452,0s-0.677,1.775,0,2.452 S275.344,240.231,276.021,239.554z" class="st11"/></g><g><path d="M253.74,204.058c0.677-0.677,0.677-1.775,0-2.452s-1.775-0.677-2.452,0s-0.677,1.775,0,2.452 S253.063,204.735,253.74,204.058z" class="st11"/></g><g><path d="M227.749,191.444c0.677-0.677,0.677-1.775,0-2.452c-0.677-0.677-1.775-0.677-2.452,0 s-0.677,1.775,0,2.452S227.072,192.121,227.749,191.444z" class="st11"/></g><g><path d="M243.739,195.215c-0.336,0.699-1.785,1.391-2.238,1.863c-0.449,0.476-0.294,0.637-0.779,0.404 c-0.485-0.232-0.246-0.271-0.123-0.84c0.123-0.57-0.33-2.219,0.016-2.934c0.417-0.864,1.452-1.226,2.316-0.809 C243.794,193.317,244.157,194.352,243.739,195.215z" class="st11"/></g><g><path d="M237.837,199.475c0.336-0.699,1.785-1.391,2.238-1.863c0.449-0.476,0.294-0.637,0.779-0.404 c0.485,0.232,0.246,0.271,0.123,0.84c-0.123,0.57,0.33,2.219-0.016,2.934c-0.417,0.863-1.452,1.226-2.316,0.808 C237.782,201.373,237.42,200.338,237.837,199.475z" class="st11"/></g><g><path d="M238.658,194.39c0.699,0.337,1.391,1.786,1.863,2.239c0.476,0.449,0.637,0.294,0.404,0.779 c-0.232,0.485-0.271,0.246-0.84,0.123c-0.57-0.123-2.219,0.33-2.934-0.016c-0.863-0.417-1.226-1.452-0.808-2.316 C236.76,194.335,237.795,193.973,238.658,194.39z" class="st11"/></g><g><path d="M242.921,200.296c-0.699-0.336-1.391-1.785-1.863-2.238s-0.637-0.294-0.404-0.779 c0.233-0.485,0.272-0.246,0.841-0.123s2.218-0.33,2.933,0.016c0.864,0.417,1.226,1.452,0.809,2.316 C244.82,200.351,243.785,200.713,242.921,200.296z" class="st11"/></g></g><defs><filter id="Adobe_OpacityMaskFilter_00000093172813506754673790000017562711717436351894_" width="80.54" height="84.515" x="296.163" y="236.468" filterUnits="userSpaceOnUse"><feColorMatrix type="matrix" values="1 0 0 0 0 0 1 0 0 0 0 0 1 0 0 0 0 0 1 0"/></filter></defs><mask id="mask2_4164_707_00000039815677223169929360000015788554321937775006_" width="80.54" height="84.515" x="296.163" y="236.468" maskUnits="userSpaceOnUse"><path style="fill:#fff;filter:url(#Adobe_OpacityMaskFilter_00000093172813506754673790000017562711717436351894_)" d="M295.41,280.535c42.007-1.52,69.405,33.181,85.689,48.249c8.522-8.522,31.049-30.745,31.049-30.745 s-50.684-57.075-85.385-56.16c-5.404,10.12-17.504,27.699-31.356,38.66L295.41,280.535z"/></mask><g class="st15"><g><path d="M360.943,313.493c0.547,0.546,0.721,2.144,1.019,2.726c0.297,0.582,0.508,0.489,0.126,0.87 c-0.382,0.382-0.336,0.143-0.834-0.161c-0.499-0.304-2.206-0.421-2.766-0.98c-0.676-0.676-0.676-1.776,0-2.452 s1.776-0.676,2.452,0L360.943,313.493z" class="st11"/></g><g><path d="M363.016,320.476c-0.546-0.547-0.721-2.145-1.019-2.727c-0.297-0.582-0.507-0.488-0.126-0.87 c0.382-0.382,0.337-0.142,0.835,0.162c0.498,0.304,2.206,0.42,2.765,0.98c0.676,0.676,0.676,1.775,0,2.451 c-0.676,0.676-1.776,0.676-2.452,0L363.016,320.476z" class="st11"/></g><g><path d="M358.492,318.021c0.546-0.547,2.144-0.721,2.726-1.019c0.582-0.298,0.488-0.508,0.87-0.126 c0.382,0.381,0.142,0.336-0.162,0.834c-0.307,0.495-0.42,2.206-0.98,2.766c-0.676,0.676-1.775,0.676-2.451,0 c-0.676-0.676-0.676-1.776,0-2.452L358.492,318.021z" class="st11"/></g><g><path d="M365.468,315.948c-0.547,0.546-2.145,0.721-2.727,1.018c-0.582,0.298-0.488,0.508-0.87,0.126 c-0.381-0.381-0.142-0.336,0.162-0.834c0.307-0.495,0.42-2.206,0.98-2.765c0.676-0.676,1.776-0.676,2.452,0 c0.675,0.676,0.675,1.775,0,2.451L365.468,315.948z" class="st11"/></g><g><path d="M374.689,306.397c0.677-0.677,0.677-1.775,0-2.452s-1.775-0.677-2.452,0s-0.677,1.775,0,2.452 S374.012,307.074,374.689,306.397z" class="st11"/></g><g><path d="M369.472,297.085c-0.23,1.116-0.78,2.19-1.653,3.063c-0.873,0.873-1.847,1.31-2.865,1.585 c0,0-0.689,0.145-0.76-0.456c-0.049-0.275,0.093-0.521,0.566-0.67c0.469-0.145,1.581-0.637,2.225-1.28 c0.643-0.644,1.103-1.472,1.3-2.316c0,0,0.145-0.644,0.708-0.54c0.563,0.103,0.479,0.608,0.479,0.608V297.085z" class="st11"/></g><g><path d="M362.728,290.381c-1.093,0.278-2.163,0.779-3.03,1.646c-2.313,2.312-2.371,6.006-0.129,8.247 c0.889,0.89,2.147,1.488,3.179,1.588c0.236,0.004,0.634-0.026,0.75-0.491c0.055-0.379-0.246-0.576-0.74-0.683 c-0.867-0.168-1.682-0.556-2.342-1.216c-1.772-1.772-1.708-4.709,0.142-6.559c0.696-0.695,1.54-1.138,2.419-1.326 c0.531-0.129,0.66-0.53,0.625-0.747c-0.049-0.301-0.385-0.586-0.883-0.463L362.728,290.381z" class="st11"/></g><g><path d="M369.524,295.002c-0.188-1.002-0.702-2.234-1.575-3.108c-0.777-0.776-1.718-1.329-2.737-1.507 c-0.452-0.078-0.879,0.123-0.934,0.579c-0.055,0.45,0.375,0.556,0.375,0.556c0.912,0.136,1.782,0.547,2.474,1.239 c0.692,0.692,1.071,1.491,1.219,2.364c0,0,0.049,0.747,0.641,0.628c0.491-0.117,0.582-0.459,0.533-0.754L369.524,295.002z" class="st11"/></g><g><path d="M360.157,295.565l3.034-3.034l1.015,1.016l-1.804,1.805l0.533,0.533l1.443-1.442l1.006,1.006 l-1.443,1.442l0.582,0.582l1.805-1.804l1.055,1.054l-3.034,3.034L360.157,295.565z" class="st11"/></g><g><path d="M376.196,286.105c0.677-0.677,0.677-1.775,0-2.452c-0.677-0.677-1.775-0.677-2.452,0 c-0.677,0.677-0.677,1.775,0,2.452S375.519,286.782,376.196,286.105z" class="st11"/></g><g><path d="M353.65,308.651c0.677-0.677,0.677-1.775,0-2.452s-1.775-0.677-2.452,0s-0.677,1.775,0,2.452 S352.973,309.328,353.65,308.651z" class="st11"/></g><g><path d="M342.909,298.208c0.637,0.436,1.099,1.979,1.5,2.496c0.398,0.515,0.586,0.392,0.282,0.832 c-0.304,0.439-0.304,0.2-0.848-0.007c-0.546-0.21-2.244-0.013-2.894-0.462c-0.789-0.544-0.99-1.624-0.447-2.413 c0.544-0.789,1.624-0.99,2.413-0.446H342.909z" class="st11"/></g><g><path d="M346.217,304.692c-0.637-0.436-1.099-1.979-1.5-2.497c-0.398-0.514-0.586-0.391-0.282-0.831 c0.304-0.44,0.304-0.2,0.848,0.007c0.546,0.21,2.244,0.013,2.894,0.462c0.789,0.544,0.99,1.624,0.447,2.413 c-0.544,0.789-1.624,0.99-2.413,0.446H346.217z" class="st11"/></g><g><path d="M341.318,303.104c0.436-0.637,1.979-1.099,2.496-1.5c0.515-0.398,0.392-0.586,0.832-0.282 c0.443,0.307,0.2,0.304-0.007,0.848c-0.207,0.543-0.013,2.244-0.462,2.894c-0.544,0.789-1.624,0.99-2.413,0.447 c-0.789-0.544-0.99-1.624-0.446-2.413V303.104z" class="st11"/></g><g><path d="M347.802,299.796c-0.436,0.637-1.979,1.099-2.497,1.5c-0.514,0.398-0.391,0.586-0.831,0.282 c-0.44-0.304-0.2-0.304,0.007-0.848c0.207-0.543,0.013-2.244,0.462-2.894c0.543-0.79,1.624-0.99,2.413-0.447 c0.789,0.544,0.99,1.624,0.446,2.413V299.796z" class="st11"/></g><g><path d="M372.674,263.022c0.677-0.677,0.677-1.775,0-2.452s-1.775-0.677-2.452,0 c-0.677,0.677-0.677,1.775,0,2.452C370.899,263.699,371.997,263.699,372.674,263.022z" class="st11"/></g><g><path d="M354.607,289.291c0.677-0.677,0.677-1.775,0-2.452s-1.775-0.677-2.452,0s-0.677,1.775,0,2.452 C352.832,289.968,353.93,289.968,354.607,289.291z" class="st11"/></g><g><path d="M360.953,271.819c0.637,0.437,1.099,1.979,1.501,2.497c0.397,0.514,0.585,0.391,0.281,0.831 c-0.307,0.443-0.304,0.201-0.847-0.006c-0.547-0.211-2.245-0.013-2.895-0.463c-0.789-0.543-0.99-1.623-0.446-2.413 c0.543-0.789,1.623-0.989,2.412-0.446H360.953z" class="st11"/></g><g><path d="M364.261,278.304c-0.637-0.437-1.099-1.98-1.5-2.497c-0.401-0.518-0.586-0.391-0.282-0.831 c0.304-0.44,0.304-0.201,0.848,0.006c0.546,0.21,2.244,0.013,2.894,0.463c0.79,0.543,0.99,1.623,0.447,2.412 c-0.544,0.79-1.624,0.99-2.413,0.447H364.261z" class="st11"/></g><g><path d="M359.365,276.719c0.436-0.637,1.979-1.1,2.497-1.501c0.514-0.398,0.391-0.585,0.831-0.281 c0.44,0.304,0.2,0.304-0.007,0.847c-0.21,0.547-0.013,2.245-0.462,2.895c-0.544,0.789-1.624,0.99-2.413,0.446 c-0.789-0.543-0.99-1.623-0.446-2.412V276.719z" class="st11"/></g><g><path d="M365.849,273.41c-0.436,0.638-1.979,1.1-2.496,1.501c-0.515,0.398-0.392,0.585-0.832,0.281 c-0.443-0.307-0.2-0.304,0.007-0.847c0.21-0.547,0.013-2.245,0.462-2.895c0.544-0.789,1.624-0.989,2.413-0.446 c0.789,0.543,0.99,1.624,0.446,2.413V273.41z" class="st11"/></g><g><path d="M367.23,254.732c-0.019,1.139-0.368,2.29-1.067,3.312c-0.698,1.022-1.578,1.624-2.529,2.077 c0,0-0.65,0.268-0.828-0.311c-0.094-0.262,0-0.53,0.433-0.757c0.437-0.229,1.44-0.915,1.954-1.662 c0.537-0.776,0.815-1.649,0.857-2.513c0,0,0.026-0.66,0.598-0.657C367.221,254.225,367.23,254.732,367.23,254.732z" class="st11"/></g><g><path d="M359.378,249.37c-1.026,0.475-1.983,1.161-2.681,2.17c-1.854,2.694-1.239,6.336,1.374,8.134 c1.038,0.715,2.38,1.074,3.415,0.984c0.233-0.039,0.621-0.143,0.651-0.618c-0.017-0.379-0.347-0.521-0.851-0.534 c-0.883-0.003-1.756-0.242-2.523-0.77c-2.066-1.419-2.535-4.321-1.051-6.478c0.556-0.808,1.31-1.4,2.141-1.746 c0.495-0.224,0.553-0.644,0.479-0.848C360.232,249.376,359.85,249.156,359.378,249.37z" class="st11"/></g><g><path d="M366.901,252.682c-0.369-0.951-1.1-2.07-2.116-2.769c-0.905-0.621-1.931-0.993-2.962-0.983 c-0.46,0.007-0.841,0.285-0.815,0.738c0.026,0.452,0.472,0.478,0.472,0.478c0.922-0.035,1.853,0.21,2.658,0.77 c0.773,0.534,1.323,1.271,1.631,2.102c0,0,0.184,0.728,0.743,0.498c0.46-0.207,0.489-0.553,0.389-0.841V252.682z" class="st11"/></g><g><path d="M357.793,254.933l2.432-3.532l1.184,0.815l-1.449,2.102l0.621,0.427l1.158-1.682l1.174,0.806 l-1.158,1.682l0.679,0.465l1.446-2.099l1.226,0.844l-2.429,3.536L357.793,254.933z" class="st11"/></g><g><path d="M348.863,281.444c-0.019,1.139-0.369,2.29-1.067,3.312c-0.699,1.016-1.579,1.624-2.529,2.077 c0,0-0.651,0.268-0.828-0.311c-0.094-0.262,0-0.53,0.433-0.757c0.433-0.226,1.439-0.915,1.953-1.662 c0.537-0.776,0.815-1.65,0.858-2.513c0,0,0.025-0.66,0.598-0.657C348.853,280.937,348.863,281.444,348.863,281.444z" class="st11"/></g><g><path d="M341.013,276.079c-1.025,0.475-1.982,1.161-2.681,2.17c-1.853,2.694-1.238,6.336,1.375,8.134 c1.038,0.715,2.38,1.074,3.415,0.983c0.233-0.039,0.621-0.142,0.65-0.617c-0.016-0.379-0.346-0.521-0.85-0.534 c-0.883-0.003-1.757-0.243-2.523-0.77c-2.067-1.42-2.536-4.321-1.051-6.478c0.556-0.809,1.31-1.401,2.141-1.747 c0.495-0.223,0.553-0.643,0.479-0.847C341.867,276.085,341.486,275.865,341.013,276.079z" class="st11"/></g><g><path d="M348.53,279.391c-0.369-0.951-1.1-2.07-2.115-2.769c-0.906-0.621-1.931-0.993-2.963-0.983 c-0.459,0.006-0.841,0.284-0.815,0.737c0.029,0.456,0.472,0.479,0.472,0.479c0.922-0.036,1.853,0.21,2.659,0.77 c0.805,0.559,1.323,1.271,1.63,2.102c0,0,0.184,0.728,0.744,0.498c0.459-0.207,0.488-0.553,0.388-0.841V279.391z" class="st11"/></g><g><path d="M339.425,281.645l2.429-3.535l1.184,0.815l-1.446,2.105l0.621,0.427l1.158-1.682l1.171,0.803 l-1.158,1.681l0.683,0.469l1.442-2.102l1.229,0.841l-2.432,3.538L339.425,281.645z" class="st11"/></g><g><path d="M353.271,269.668c0.677-0.677,0.677-1.774,0-2.451s-1.774-0.677-2.451,0s-0.677,1.774,0,2.451 S352.594,270.345,353.271,269.668z" class="st11"/></g><g><path d="M335.201,295.94c0.677-0.677,0.677-1.774,0-2.451c-0.677-0.677-1.774-0.677-2.451,0 c-0.677,0.677-0.677,1.774,0,2.451S334.524,296.617,335.201,295.94z" class="st11"/></g><g><path d="M325.201,288.592c0.728,0.262,1.569,1.633,2.086,2.028c0.518,0.395,0.666,0.226,0.482,0.734 c-0.184,0.508-0.243,0.275-0.825,0.21c-0.582-0.064-2.17,0.56-2.92,0.295c-0.899-0.324-1.368-1.317-1.048-2.219 c0.323-0.899,1.316-1.368,2.219-1.048H325.201z" class="st11"/></g><g><path d="M330.059,294.019c-0.728-0.262-1.569-1.633-2.086-2.028c-0.518-0.394-0.666-0.226-0.482-0.734 c0.184-0.508,0.242-0.275,0.825-0.21c0.582,0.065,2.17-0.56,2.92-0.294c0.899,0.323,1.368,1.316,1.048,2.218 c-0.323,0.899-1.316,1.368-2.219,1.048H330.059z" class="st11"/></g><g><path d="M324.916,293.735c0.262-0.728,1.634-1.569,2.028-2.087c0.395-0.517,0.227-0.666,0.735-0.481 c0.507,0.184,0.274,0.242,0.21,0.824c-0.065,0.582,0.559,2.17,0.294,2.921c-0.323,0.899-1.316,1.368-2.219,1.048 c-0.899-0.324-1.368-1.317-1.048-2.219V293.735z" class="st11"/></g><g><path d="M330.344,288.877c-0.262,0.727-1.634,1.568-2.028,2.086c-0.395,0.517-0.227,0.666-0.735,0.482 c-0.507-0.185-0.274-0.243-0.21-0.825c0.065-0.582-0.559-2.17-0.294-2.921c0.323-0.899,1.316-1.368,2.219-1.048 c0.899,0.324,1.368,1.317,1.048,2.219V288.877z" class="st11"/></g><g><path d="M344.95,247.575c0.677-0.677,0.677-1.775,0-2.452s-1.775-0.677-2.452,0 c-0.677,0.677-0.677,1.775,0,2.452C343.175,248.252,344.273,248.252,344.95,247.575z" class="st11"/></g><g><path d="M334.192,277.589c0.677-0.677,0.677-1.775,0-2.452c-0.677-0.677-1.774-0.677-2.451,0 s-0.677,1.775,0,2.452S333.515,278.266,334.192,277.589z" class="st11"/></g><g><path d="M336.136,258.723c0.728,0.262,1.569,1.634,2.086,2.028c0.518,0.395,0.667,0.227,0.482,0.735 c-0.184,0.507-0.242,0.274-0.825,0.21c-0.582-0.065-2.17,0.559-2.92,0.294c-0.899-0.323-1.368-1.316-1.048-2.219 c0.32-0.902,1.316-1.368,2.219-1.048H336.136z" class="st11"/></g><g><path d="M340.991,264.147c-0.728-0.262-1.569-1.633-2.086-2.028c-0.518-0.394-0.667-0.226-0.482-0.734 c0.184-0.507,0.242-0.275,0.825-0.21c0.582,0.065,2.17-0.559,2.92-0.294c0.899,0.323,1.368,1.316,1.048,2.218 c-0.32,0.903-1.316,1.369-2.219,1.048H340.991z" class="st11"/></g><g><path d="M335.852,263.866c0.262-0.728,1.633-1.569,2.027-2.086c0.395-0.518,0.227-0.666,0.735-0.482 c0.507,0.184,0.275,0.243,0.21,0.825s0.559,2.17,0.294,2.92c-0.323,0.899-1.316,1.368-2.219,1.048 c-0.902-0.32-1.368-1.316-1.047-2.219V263.866z" class="st11"/></g><g><path d="M341.279,259.008c-0.262,0.728-1.634,1.569-2.028,2.086c-0.395,0.518-0.227,0.666-0.734,0.482 c-0.508-0.184-0.275-0.242-0.211-0.825c0.065-0.582-0.559-2.17-0.294-2.92c0.323-0.899,1.316-1.368,2.219-1.048 c0.899,0.323,1.368,1.316,1.048,2.219V259.008z" class="st11"/></g><g><path d="M333.206,240.314c0.378,1.077,0.453,2.277,0.155,3.474c-0.301,1.193-0.909,2.073-1.643,2.833 c0,0-0.517,0.478-0.886,0c-0.181-0.214-0.188-0.498,0.142-0.861c0.33-0.368,1.029-1.358,1.252-2.241 c0.229-0.915,0.187-1.83-0.075-2.655c0,0-0.207-0.628,0.334-0.825c0.54-0.197,0.724,0.278,0.724,0.278L333.206,240.314z" class="st11"/></g><g><path d="M323.975,238.031c-0.799,0.798-1.452,1.782-1.753,2.969c-0.795,3.169,1.051,6.368,4.127,7.141 c1.22,0.307,2.607,0.175,3.542-0.275c0.2-0.116,0.53-0.349,0.394-0.809c-0.148-0.349-0.504-0.368-0.986-0.203 c-0.828,0.304-1.73,0.385-2.63,0.158c-2.432-0.608-3.884-3.16-3.247-5.699c0.239-0.951,0.738-1.766,1.397-2.38 c0.385-0.385,0.291-0.796,0.152-0.961C324.777,237.739,324.344,237.668,323.975,238.031z" class="st11"/></g><g><path d="M332.181,238.506c-0.68-0.763-1.75-1.556-2.947-1.853c-1.064-0.269-2.157-0.256-3.121,0.113 c-0.43,0.165-0.689,0.559-0.504,0.977c0.184,0.417,0.608,0.284,0.608,0.284c0.853-0.355,1.811-0.446,2.758-0.21 c0.909,0.23,1.685,0.728,2.261,1.401c0,0,0.427,0.614,0.87,0.21c0.359-0.353,0.265-0.692,0.068-0.922H332.181z" class="st11"/></g><g><path d="M324.435,243.801l1.041-4.16l1.394,0.346l-0.621,2.478l0.734,0.184l0.495-1.983l1.378,0.35l-0.498,1.979 l0.802,0.201l0.621-2.478l1.442,0.362l-1.041,4.16L324.435,243.801z" class="st11"/></g><g><path d="M325.321,271.758c0.378,1.077,0.452,2.277,0.155,3.473c-0.301,1.194-0.909,2.073-1.643,2.833 c0,0-0.518,0.479-0.886,0c-0.181-0.213-0.188-0.498,0.142-0.86c0.33-0.369,1.029-1.358,1.252-2.241 c0.229-0.916,0.187-1.831-0.075-2.656c0,0-0.207-0.627,0.333-0.824c0.541-0.198,0.725,0.278,0.725,0.278L325.321,271.758z" class="st11"/></g><g><path d="M316.09,269.474c-0.799,0.799-1.452,1.782-1.753,2.969c-0.796,3.17,1.051,6.369,4.127,7.142 c1.219,0.307,2.607,0.174,3.542-0.275c0.2-0.117,0.53-0.35,0.394-0.809c-0.149-0.349-0.504-0.369-0.986-0.204 c-0.828,0.304-1.731,0.385-2.63,0.159c-2.432-0.608-3.884-3.16-3.247-5.699c0.239-0.951,0.737-1.766,1.397-2.38 c0.385-0.385,0.291-0.796,0.152-0.961C316.892,269.183,316.459,269.112,316.09,269.474z" class="st11"/></g><g><path d="M324.295,269.95c-0.679-0.764-1.749-1.556-2.946-1.854c-1.064-0.268-2.157-0.255-3.121,0.114 c-0.43,0.165-0.689,0.559-0.505,0.976c0.185,0.418,0.608,0.285,0.608,0.285c0.854-0.356,1.812-0.446,2.759-0.21 c0.948,0.236,1.685,0.727,2.261,1.4c0,0,0.427,0.615,0.87,0.21c0.359-0.352,0.265-0.692,0.068-0.921H324.295z" class="st11"/></g><g><path d="M316.549,275.244l1.042-4.159l1.394,0.346l-0.621,2.477l0.734,0.185l0.495-1.983l1.381,0.346 l-0.498,1.98l0.799,0.203l0.621-2.477l1.445,0.365l-1.044,4.156L316.549,275.244z" class="st11"/></g><g><path d="M324.988,259.691c0.677-0.677,0.677-1.775,0-2.452c-0.677-0.677-1.775-0.677-2.452,0 c-0.677,0.677-0.677,1.775,0,2.452S324.311,260.368,324.988,259.691z" class="st11"/></g><g><path d="M305.514,275.548c0.677-0.677,0.677-1.774,0-2.451c-0.677-0.677-1.775-0.677-2.452,0 c-0.677,0.677-0.677,1.774,0,2.451S304.837,276.225,305.514,275.548z" class="st11"/></g><g><path d="M297.93,286.063c0.773,0.016,2.005,1.054,2.623,1.264c0.614,0.214,0.701,0.004,0.692,0.544 c-0.013,0.537-0.143,0.336-0.712,0.459c-0.569,0.123-1.885,1.219-2.675,1.2c-0.957-0.019-1.717-0.818-1.694-1.772 c0.022-0.955,0.818-1.718,1.772-1.695H297.93z" class="st11"/></g><g><path d="M304.253,289.676c-0.773-0.017-2.006-1.055-2.623-1.265c-0.615-0.214-0.702-0.003-0.692-0.543 c0.012-0.537,0.142-0.337,0.711-0.46c0.569-0.123,1.886-1.219,2.675-1.2c0.957,0.02,1.717,0.819,1.695,1.773 c-0.02,0.957-0.819,1.717-1.773,1.695H304.253z" class="st11"/></g><g><path d="M299.281,291.031c0.017-0.773,1.055-2.006,1.265-2.623c0.21-0.618,0.003-0.702,0.543-0.692 c0.541,0.009,0.337,0.142,0.46,0.711c0.123,0.569,1.219,1.886,1.2,2.675c-0.02,0.957-0.819,1.717-1.773,1.695 c-0.957-0.02-1.717-0.819-1.695-1.773V291.031z" class="st11"/></g><g><path d="M302.897,284.711c-0.016,0.773-1.054,2.005-1.264,2.623c-0.21,0.618-0.003,0.702-0.544,0.692 c-0.536-0.013-0.336-0.142-0.459-0.711c-0.123-0.57-1.219-1.886-1.2-2.675c0.02-0.958,0.819-1.718,1.773-1.695 c0.957,0.019,1.717,0.818,1.694,1.772V284.711z" class="st11"/></g></g><g><path d="M122.25,262.53c8.471,8.522,17.928,16.505,28.258,23.109c27.411,17.507,62.742,29.196,91.601,21.928 c15.939-4.016,34.924-11.229,53.366-26.948c8.37-7.134,16.627-16.025,24.438-27.161c2.639-3.758,4.813-7.478,6.588-11.142 c16.676-34.445-2.357-64.016-12.901-74.56c-29.794-29.794-66.435-21.233-87.668,0c-36.984,36.984-11.87,84.699,13.241,98.4" class="st4"/></g><g><path d="M152.655,233.47c2.63,2.824,5.391,5.714,8.465,8.316C185,262,207.5,268.799,229.02,267.602 c18.659-1.038,36.819-9.334,51.826-28.85c0.349-0.453,0.699-0.919,1.045-1.381c5.129-7.251,12.384-20.159,7.429-32.54 c-10.79-21.754-36.072-12.378-37.844,3.891c-1.414,11.316,4.599,27.944,28.827,29.532" class="st4"/></g><g><path d="M295.685,280.862c38.2-0.352,57.826,20.334,85.767,48.275l30.767-30.768" class="st4"/></g><g><path d="M412.223,298.017c-32.874-32.873-59.214-56.024-85.718-55.704h-0.046" class="st4"/></g></g></g><g><path d="M301.58,28.201c-9.388-3.517-9.633-14.251-9.563-16.689c0.009-0.33-0.093-0.653-0.291-0.919l-0.062-0.083 c-0.51-0.683-1.525-0.704-2.063-0.043c-0.277,0.342-0.426,0.768-0.417,1.208c0.051,2.706-0.373,12.962-9.408,16.464 c-0.363,0.14-0.691,0.362-0.959,0.645l-0.045,0.049c-0.551,0.581-0.523,1.5,0.064,2.044c0.243,0.226,0.511,0.425,0.804,0.579 c9.169,4.825,9.597,19.289,9.546,23.095c-0.009,0.615,0.138,1.213,0.417,1.689c0.536,0.925,1.553,0.898,2.063-0.057l0.06-0.113 c0.2-0.374,0.304-0.827,0.293-1.293c-0.068-3.414,0.181-18.385,9.535-23.316c0.264-0.14,0.528-0.283,0.779-0.442 c0.879-0.559,0.891-1.836,0.025-2.415l-0.076-0.051c-0.217-0.145-0.455-0.26-0.7-0.353L301.58,28.201z" class="st16"/></g><g><path d="M290.122,14.978c-0.168,1.94-0.577,4.982-2.332,8.22c-1.697,3.134-4.352,4.185-4.016,5.82 c0.236,1.151,1.791,0.979,3.18-0.33c3.147-2.959,4.608-10.628,4.206-13.547l-0.043-0.162 C290.986,14.474,290.254,14.472,290.122,14.978z" class="st17"/></g><g><path d="M279.968,12.639c-3.836-1.436-3.936-5.823-3.906-6.818c0.004-0.134-0.038-0.268-0.119-0.374l-0.026-0.034 c-0.208-0.279-0.623-0.287-0.842-0.017c-0.113,0.14-0.174,0.315-0.17,0.494c0.021,1.106-0.153,5.295-3.842,6.725 c-0.149,0.057-0.283,0.149-0.392,0.264l-0.019,0.019c-0.225,0.236-0.215,0.613,0.026,0.834c0.1,0.092,0.208,0.175,0.327,0.236 c3.747,1.97,3.921,7.88,3.9,9.435c-0.004,0.251,0.057,0.496,0.17,0.691c0.219,0.379,0.634,0.366,0.842-0.023l0.024-0.047 c0.081-0.153,0.123-0.338,0.119-0.528c-0.028-1.396,0.074-7.512,3.895-9.524c0.109-0.057,0.215-0.115,0.319-0.181 c0.36-0.228,0.364-0.751,0.011-0.985l-0.032-0.021C280.164,12.724,280.068,12.677,279.968,12.639z" class="st16"/></g><g><path d="M275.288,7.237c-0.068,0.794-0.236,2.036-0.953,3.359c-0.694,1.281-1.779,1.71-1.64,2.378 c0.095,0.47,0.731,0.4,1.299-0.134c1.285-1.208,1.883-4.342,1.719-5.535l-0.017-0.066c-0.053-0.206-0.353-0.208-0.406,0 L275.288,7.237z" class="st17"/></g><g><path d="M276.979,35.391c-5.725-2.144-5.874-8.69-5.831-10.177c0.006-0.202-0.058-0.398-0.179-0.56l-0.038-0.051 c-0.311-0.417-0.932-0.43-1.257-0.026c-0.169,0.208-0.26,0.468-0.254,0.736c0.03,1.651-0.227,7.903-5.735,10.039 c-0.221,0.085-0.421,0.221-0.585,0.394l-0.028,0.03c-0.336,0.353-0.319,0.915,0.039,1.247c0.148,0.138,0.31,0.259,0.489,0.353 c5.591,2.942,5.852,11.762,5.82,14.083c-0.004,0.375,0.085,0.738,0.254,1.03c0.327,0.564,0.946,0.547,1.257-0.036l0.036-0.068 c0.121-0.228,0.185-0.504,0.179-0.789c-0.043-2.083,0.11-11.211,5.814-14.217c0.161-0.085,0.321-0.172,0.474-0.27 c0.536-0.34,0.545-1.119,0.015-1.472l-0.047-0.032c-0.132-0.089-0.276-0.16-0.427-0.215L276.979,35.391z" class="st16"/></g><g><path d="M269.993,27.329c-0.103,1.183-0.351,3.038-1.424,5.012c-1.036,1.91-2.652,2.551-2.448,3.548 c0.144,0.702,1.091,0.596,1.94-0.2c1.919-1.804,2.81-6.48,2.563-8.261l-0.025-0.1C270.518,27.02,270.073,27.018,269.993,27.329z" class="st17"/></g></g></g></svg>