<svg xmlns="http://www.w3.org/2000/svg" xmlns:xlink="http://www.w3.org/1999/xlink" id="Layer_1" x="0" y="0" version="1.1" viewBox="0 0 80 80" style="enable-background:new 0 0 80 80" xml:space="preserve"><style type="text/css">.st0{fill:#ff7101}.st1{fill-rule:evenodd;clip-rule:evenodd;fill:#fff}.st2{fill:#0b1b34}</style><path d="M52.4,57.7l-2-1.9L48,58c-0.2,0.2-0.3,0.2-0.5,0l-2.4-2.2L42.7,58c-0.2,0.2-0.3,0.2-0.5,0l-2.4-2.2L37.4,58	c-0.2,0.2-0.3,0.2-0.5,0l-2.4-2.2L32.2,58c-0.2,0.2-0.3,0.2-0.5,0l-2.4-2.2l-2,1.9c-0.2,0.2-0.6,0.1-0.6-0.2V18.6	c0-0.3,0.4-0.5,0.6-0.2l2,1.9l2.4-2.2c0.2-0.2,0.3-0.2,0.5,0l2.4,2.2L37,18c0.2-0.2,0.3-0.2,0.5,0l2.4,2.2l2.4-2.2	c0.2-0.2,0.3-0.2,0.5,0l2.4,2.2l2.4-2.2c0.2-0.2,0.3-0.2,0.5,0l2.4,2.2l2-1.9c0.2-0.2,0.6-0.1,0.6,0.2v38.9	C53,57.8,52.6,57.9,52.4,57.7z" class="st0"/><path d="M45.4,41.4H34.6v-1.6h10.9V41.4z" class="st1"/><path d="M45.4,47.4H34.6v-1.6h10.9V47.4z" class="st1"/><path d="M45.4,29.4h-11V35h11V29.4z" class="st2"/><path d="M33.6,29.4c0-0.4,0.4-0.8,0.8-0.8h11c0.4,0,0.8,0.4,0.8,0.8V35c0,0.4-0.4,0.8-0.8,0.8h-11	c-0.4,0-0.8-0.4-0.8-0.8V29.4z M35.2,30.2v3.9h9.4v-3.9H35.2z" class="st1"/><path d="M55.8,30.2L40,35l-15.8-4.8v31.5h31.5V30.2z" class="st0"/><path d="M23.4,29.2l16.6,5l16.6-5v33.4H23.4V29.2z M25,31.3V61H55V31.3l-15,4.6L25,31.3z" class="st1"/><path d="M30.6,56c0.1-0.1,0.3-0.2,0.5-0.2h18.5c0.2,0,0.4,0.1,0.5,0.2l6.2,5.2l-1,1.2l-5.9-5H31.4l-6.3,5.3l-1-1.2	L30.6,56z" class="st1"/><path d="M39.2,56.6V35h1.6v21.5H39.2z" class="st1"/></svg>