<svg xmlns="http://www.w3.org/2000/svg" xmlns:xlink="http://www.w3.org/1999/xlink" id="Layer_1" x="0" y="0" version="1.1" viewBox="0 0 680 220" style="enable-background:new 0 0 680 220" xml:space="preserve"><style type="text/css">.st0{fill:#085239}.st3{fill:#002e22}.st5{fill:#fff}.st6{fill:none;stroke:#002140}.st7{fill:#e4bc07}.st8{fill:#d18000}.st9{fill:#002140}.st10{fill:none;stroke:#002140;stroke-linecap:round;stroke-linejoin:round}.st12{fill:#03d47c}.st13{fill-rule:evenodd;clip-rule:evenodd;fill:#085239}.st14{fill:#e4bc07;stroke:#002140}.st15{fill:#d18000}.st15,.st16{stroke:#002140}.st16,.st17{fill:#0b1b34}</style><rect width="680" height="220" class="st0"/><g><defs><rect id="SVGID_1_" width="680" height="220"/></defs><clipPath id="SVGID_00000069391172932470780140000006074874021756211103_"><use xlink:href="#SVGID_1_" style="overflow:visible"/></clipPath><g style="clip-path:url(#SVGID_00000069391172932470780140000006074874021756211103_)"><g><g><g><defs><path id="SVGID_00000147221856199844963740000000177576277472780707_" d="M90.507-114.162l159.135,73.034 c5.859,2.689,8.429,9.619,5.74,15.478L212.63,67.503c-2.689,5.859-9.619,8.429-15.478,5.74L38.018,0.208 c-5.859-2.689-8.429-9.619-5.74-15.478l42.752-93.152C77.719-114.281,84.648-116.851,90.507-114.162z"/></defs><clipPath id="SVGID_00000037655424286805565230000016215313491467240350_"><use xlink:href="#SVGID_00000147221856199844963740000000177576277472780707_" style="overflow:visible"/></clipPath><g style="clip-path:url(#SVGID_00000037655424286805565230000016215313491467240350_)"><path d="M90.507-114.162l159.135,73.034c5.859,2.689,8.429,9.619,5.74,15.478L212.63,67.503 c-2.689,5.859-9.619,8.429-15.478,5.74L38.018,0.208c-5.859-2.689-8.429-9.619-5.74-15.478l42.752-93.152 C77.719-114.281,84.648-116.851,90.507-114.162z" class="st3"/><g><g><defs><rect id="SVGID_00000081614314595513863490000007015153513627328699_" width="21.158" height="40.856" x="177.953" y="28.555" transform="matrix(0.4171 -0.9089 0.9089 0.4171 65.3791 199.9032)"/></defs><clipPath id="SVGID_00000121996237950152184740000009290762487159958439_"><use xlink:href="#SVGID_00000081614314595513863490000007015153513627328699_" style="overflow:visible"/></clipPath><g style="clip-path:url(#SVGID_00000121996237950152184740000009290762487159958439_)"><path d="M192.614,39.634l-7.761,10.402l-2.984-1.369l7.762-10.402L192.614,39.634z M201.752,52.844 l3.559-3.611l-1.085,4.747L201.752,52.844z M203.205,58.458l2.76,1.267l2.886-12.64l-2.549-1.17 c-0.571-0.262-1.208-0.152-1.658,0.263l-9.382,8.634l3.132,1.438l1.413-1.436l3.828,1.757L203.205,58.458z M197.145,51.118 c1.41-3.039-2.736-5.145-2.082-6.491c0.198-0.411,0.795-0.669,1.708-0.386c0.455,0.141,1.651,0.638,2.706,1.867 l1.646-2.206c-0.597-0.591-1.407-1.265-2.556-1.793c-2.949-1.353-5.745-0.738-6.793,1.499 c-0.781,1.651,0.295,3.266,1.172,4.338c0.903,1.098,1.127,1.64,0.89,2.144c-0.363,0.77-1.439,0.689-2.303,0.309 c-1.512-0.664-2.186-1.493-2.732-2.135l-1.7,2.279c0.55,0.64,1.708,1.509,3.038,2.136 C193.273,54.119,196.034,53.511,197.145,51.118z M188.351,37.677l-10.129,9.316l-3.155-1.448l1.847-10.297 c0.115-0.633,0.085-0.899-0.245-1.339c-0.538-0.719-1.555-1.627-2.493-2.332l0.224-0.303l5.078,2.33 c0.647,0.297,1.032,0.994,0.836,1.807l-1.807,7.252l6.709-6.426L188.351,37.677L188.351,37.677z" class="st5"/><path d="M175.759,53.999c-0.225,0.01-0.649-0.07-1.13-0.291c-1.115-0.512-1.625-1.598-1.027-2.901 c0.57-1.244,1.792-1.692,3.018-1.129c0.487,0.223,0.755,0.475,0.858,0.607l-0.32,0.357 c-0.145-0.18-0.388-0.377-0.717-0.527c-0.927-0.425-1.815-0.116-2.292,0.923c-0.447,0.974-0.172,1.846,0.784,2.285 c0.317,0.145,0.664,0.226,0.915,0.221L175.759,53.999z" class="st5"/><path d="M177.384,53.183c-0.285,0.622-0.149,1.252,0.356,1.484c0.493,0.226,1.075-0.067,1.369-0.707 c0.221-0.481,0.257-1.196-0.353-1.476C178.152,52.206,177.629,52.649,177.384,53.183z M179.645,54.184 c-0.482,1.05-1.426,1.172-2.106,0.859c-0.763-0.35-1.103-1.188-0.691-2.086c0.434-0.945,1.317-1.214,2.097-0.856 C179.761,52.476,180.041,53.322,179.645,54.184z" class="st5"/><path d="M180.731,53.923c0.138-0.299,0.233-0.539,0.329-0.779l0.452,0.207l-0.189,0.474l0.018,0.008 c0.282-0.197,0.662-0.328,1.137-0.11c0.381,0.175,0.567,0.544,0.537,0.935l0.011,0.005 c0.164-0.124,0.335-0.187,0.493-0.221c0.229-0.052,0.443-0.038,0.713,0.086c0.382,0.175,0.826,0.677,0.374,1.662 l-0.765,1.667l-0.505-0.232l0.736-1.602c0.253-0.551,0.196-0.968-0.215-1.157c-0.3-0.137-0.622-0.023-0.829,0.181 c-0.059,0.065-0.117,0.146-0.16,0.239l-0.805,1.754l-0.504-0.232l0.781-1.701c0.207-0.452,0.156-0.866-0.237-1.047 c-0.317-0.145-0.676,0.002-0.877,0.223c-0.062,0.057-0.116,0.146-0.157,0.234l-0.783,1.708l-0.505-0.232L180.731,53.923 L180.731,53.923z" class="st5"/><path d="M185.772,56.236c0.137-0.299,0.233-0.539,0.329-0.779l0.452,0.207l-0.189,0.474l0.017,0.008 c0.283-0.197,0.662-0.328,1.137-0.11c0.382,0.175,0.568,0.544,0.537,0.935l0.012,0.005 c0.163-0.124,0.335-0.188,0.492-0.221c0.23-0.052,0.444-0.038,0.714,0.086c0.381,0.175,0.826,0.677,0.373,1.662 l-0.764,1.666l-0.505-0.231l0.735-1.602c0.254-0.551,0.196-0.969-0.214-1.157c-0.3-0.137-0.623-0.023-0.83,0.181 c-0.058,0.065-0.116,0.146-0.159,0.239l-0.805,1.754l-0.505-0.232l0.781-1.701c0.207-0.452,0.156-0.866-0.237-1.046 c-0.317-0.145-0.676,0.002-0.877,0.223c-0.062,0.057-0.116,0.146-0.156,0.233l-0.784,1.708l-0.505-0.232L185.772,56.236z" class="st5"/><path d="M192.441,59.752c0.154-0.32,0.248-0.895-0.333-1.162c-0.529-0.243-0.969,0.131-1.175,0.47 L192.441,59.752z M190.758,59.426c-0.309,0.704-0.001,1.193,0.521,1.433c0.37,0.17,0.628,0.21,0.853,0.215l-0.075,0.412 c-0.22-0.001-0.583-0.047-1.034-0.254c-0.874-0.401-1.13-1.222-0.737-2.079c0.393-0.856,1.205-1.293,2.032-0.913 c0.933,0.428,0.803,1.348,0.563,1.87c-0.048,0.106-0.089,0.179-0.128,0.233L190.758,59.426z" class="st5"/><path d="M193.845,60.083c0.153-0.334,0.28-0.625,0.383-0.896l0.452,0.207l-0.236,0.573l0.018,0.008 c0.305-0.322,0.731-0.417,1.078-0.258c0.053,0.024,0.091,0.048,0.135,0.076l-0.223,0.487c-0.048-0.036-0.1-0.06-0.17-0.092 c-0.364-0.167-0.746-0.016-0.995,0.339c-0.044,0.065-0.09,0.15-0.128,0.233l-0.695,1.513l-0.516-0.237L193.845,60.083z" class="st5"/><path d="M197.025,63.788c-0.165,0.002-0.509-0.035-0.891-0.21c-0.857-0.393-1.148-1.23-0.749-2.099 c0.401-0.874,1.293-1.239,2.22-0.813c0.306,0.14,0.54,0.34,0.646,0.481l-0.297,0.339c-0.094-0.121-0.255-0.28-0.537-0.41 c-0.652-0.299-1.227,0.026-1.496,0.614c-0.302,0.657-0.065,1.256,0.498,1.514c0.293,0.135,0.52,0.153,0.696,0.156 L197.025,63.788z" class="st5"/><path d="M197.73,64.232l1.304-2.839l0.516,0.237l-1.303,2.84L197.73,64.232L197.73,64.232z M199.974,60.858 c-0.08,0.176-0.268,0.261-0.473,0.167c-0.188-0.086-0.246-0.284-0.166-0.46c0.081-0.176,0.278-0.264,0.471-0.175 C199.995,60.476,200.058,60.676,199.974,60.858z" class="st5"/><path d="M201.412,64.167c-0.558-0.27-1.243-0.464-1.497,0.088c-0.156,0.34-0.003,0.595,0.255,0.713 c0.376,0.172,0.724,0.048,0.917-0.155c0.044-0.051,0.077-0.106,0.099-0.154L201.412,64.167z M201.558,65.164 c-0.113,0.247-0.212,0.493-0.272,0.699l-0.463-0.213l0.123-0.377l-0.018-0.008c-0.261,0.151-0.658,0.21-1.062,0.024 c-0.575-0.264-0.682-0.804-0.494-1.214c0.315-0.686,1.097-0.782,2.192-0.273l0.027-0.059 c0.105-0.229,0.236-0.686-0.346-0.947c-0.271-0.124-0.581-0.173-0.843-0.13l0.042-0.4c0.302-0.039,0.693,0.02,1.051,0.185 c0.869,0.399,0.809,1.088,0.55,1.651L201.558,65.164L201.558,65.164z" class="st5"/><path d="M204.138,62.13l0.515,0.237l-1.911,4.165l-0.516-0.237L204.138,62.13z" class="st5"/></g></g></g></g></g></g><path d="M90.716-114.617l159.135,73.034c6.11,2.804,8.79,10.031,5.986,16.141L213.085,67.71 c-2.804,6.11-10.031,8.79-16.141,5.986L37.809,0.662c-6.11-2.804-8.79-10.031-5.986-16.141l42.752-93.152 C77.379-114.741,84.606-117.421,90.716-114.617z" class="st6"/><path d="M178.835,14.614c0,0-9.718,3.614-10.066,17.499c-0.348,13.885,7.867,31.47,20.478,42.114 s28.81,19.207,41.999,9.718s2.663-39.107-3.122-44.544C224.42,34.195,203.827,5.907,178.835,14.614L178.835,14.614z" class="st7"/><path d="M170.705,22.017l-7.984,9.833c0,0-4.512,15.041,9.603,36.214c14.115,21.173,32.744,25.685,41.885,25.222 l9.14-5.9c0,0-13.103,2.286-29.346-9.114c-1.721-1.559-10.53-9.242-15.313-16.57c-8.617-12.88-10.296-23.603-9.834-31.703 c0.435-1.773,1.227-4.935,1.852-7.985L170.705,22.017z" class="st8"/><path d="M192.139,60.807l-3.355-0.463l3.361,4.19C192.145,64.534,191.329,63.467,192.139,60.807z" class="st8"/><path d="M216.814,46.661c0,0-2.892,0.23-3.933-1.274c0,0,0.811,3.586,0,4.744c0,0,3.123,0,4.281,1.389 C217.162,51.521,216.006,47.935,216.814,46.661L216.814,46.661z" class="st8"/><path d="M190.057,51.09c0,0,4.396,6.711,9.718,4.049c5.323-2.662-0.81-11.222-0.81-11.222 S188.668,38.016,190.057,51.09z" class="st7"/><path d="M202.669,67.98c0,0,2.314,2.777,3.122,3.355l6.479-4.049l-1.852-4.629l-7.752,5.322L202.669,67.98 L202.669,67.98z" class="st7"/><path d="M186.821,28.236c0,0-2.692-0.173-3.123,2.778c-0.434,2.95,1.302,7.896,0.954,9.371 c-0.347,1.475-1.647,4.252-1.216,5.466c0.432,1.214,2.344,5.207,4.86,6.941c2.515,1.737,4.945,4.687,5.552,5.641 c0.607,0.955,5.38,7.55,5.641,7.984c0,0,3.646,4.6,5.728,2.602l1.475,3.818l1.216-1.041l1.647,2.602c0,0,0.435-1.648,0.435-2.516 c0,0,2.515,2.95,3.645,2.864c1.128-0.086,4.86-1.909,4.86-3.036c0-1.127-0.607-2.602-0.607-2.602s1.216-2.082-1.216-5.641 c-2.43-3.557-4.078-5.641-4.078-5.641s2.864-1.561,1.041-3.384c-1.823-1.823-4.252-1.475-4.252-1.475l-4.339-5.38 c0,0-3.036-11.369-7.985-12.234C197.059,35.353,192.893,28.236,186.821,28.236L186.821,28.236z" class="st8"/><path d="M200.722,50.23c1.429-0.619,2-2.476,1.276-4.147s-2.47-2.524-3.898-1.905c-1.429,0.619-2,2.476-1.276,4.147 S199.294,50.849,200.722,50.23z" class="st7"/><path d="M205.388,48.021c0,0-3.818,3.732-5.986,4.511c0,0-0.348,2.864,1.302,4.339 c1.648,1.475,2.89,2.184,4.253,0.693s0.173-4.511,0.173-4.511l3.732,0.086c0,0,0.086-2.343-0.693-3.212 c-0.782-0.868-2.778-1.909-2.778-1.909L205.388,48.021z" class="st7"/><path d="M208.018,92.96l7.831-5.558l-8.568-2.105l-6.782,5.968L208.018,92.96z" class="st7"/><path d="M195.153,88.608l6.256-5.877l-6.829-4.211l-5.714,6.235L195.153,88.608z" class="st7"/><path d="M180.573,21.93c0,0,8.563-1.967,20.478,6.363s22.677,22.444,24.992,34.94c0,0,3.586,11.222-3.24,16.66 c0,0,10.759-0.926,8.907-17.24c-1.851-16.314-18.048-33.899-31.24-40.725c-13.191-6.826-19.9,0-19.9,0L180.573,21.93z" class="st9"/><path d="M161.807,38.886l6.769-7.203c0,0-0.503,6.272,0.941,9.36c-0.675,0.717-6.559,6.98-6.559,6.98" class="st7"/><path d="M167.954,61.008l6.269-6.672l-2.862-6.936l-6.53,6.57" class="st7"/><path d="M175.248,72.032l6.227-6.63l-4.401-5.427l-6.089,6.227L175.248,72.032z" class="st7"/><path d="M184.285,81.659l6.005-6.651l-5.04-4.519l-6.06,6.447L184.285,81.659z" class="st7"/><path d="M201.322,62.439c2.213,2.411,6.128,4.697,7.904,8.225s-0.003,3.912-0.003,3.912 c0.392-0.69-1.661-3.617-1.661-3.617c0.529,2.137-1.098,1.818-1.098,1.818c0.873-0.667-1.37-3.839-1.37-3.839 c-2.807,3.319-8.545-6.954-11.73-11.361c-3.186-4.407-5.649-3.892-8.578-8.685c-2.932-4.796-0.38-6.162,0.036-8.628 c0.416-2.466-3.855-10.343,0.963-11.879c6.263-2.053,11.151,7.111,11.151,7.111s1.447-0.521,4.219,3.225 c2.772,3.745,2.393,6.381,4.001,9.449c-1.103-0.719-5.691-9.428-8.926-10.767c0.432,4.36-7.106,1.914-5.17,8.06 c1.26,4.901,5.963,8.34,8.51,11.672s1.216,6.107,1.216,6.107" class="st10"/><path d="M212.431,58.048c0,0,3.206,4.195,3.727,4.872c0.52,0.677,3.538,4.626,1.443,6.227 c-0.842,0.646-2.027,0.965-3.29-0.024" class="st10"/><path d="M209.602,71.159c0,0,0.785,0.965,1.397,1.765c0.612,0.803,2.037,3.329,5.73,0.505 c2.181-1.668,2.098-2.681,0.871-4.284" class="st10"/><path d="M214.101,60.29c-0.52,0.105-1.535-0.683-1.971-0.348c-0.437,0.335-0.296,1.3,0.007,2.241 c0,0-1.498-1.297-2.419-0.693c-0.92,0.604-0.468,2.704-0.528,3.044c0,0,3.251,2.987,5.615,1.376 c1.221-0.934,0.434-3.167,0.115-4.488" class="st10"/><path d="M209.457,64.523c0,0,4.289-0.055,5.009-3.635" class="st10"/><path d="M198.341,53.479c0,0,0.045-0.424,0.497-0.675c0.455-0.248,5.615-3.023,6.316-4.634 c0,0,1.271-1.169,3.442,1.668c2.171,2.838,1.138,3.235,1.138,3.235" class="st10"/><path d="M199.229,52.896c0,0-0.546,1.394,0.963,3.368c1.509,1.975,3.4,2.579,4.739,1.556 c1.336-1.023,1.412-3.034-0.298-5.15c2.788,0.994,7.621-0.16,9.271,2.001c1.085,1.417-0.22,2.124-0.22,2.124 s-1.966,1.407-3.188,2.341c-1.977,1.512-3.308-0.11-3.732-0.664c-0.424-0.555-1.117-1.883-0.447-2.393 c0.669-0.51,1.522,0.303,1.522,0.303" class="st10"/><path d="M204.635,52.671c0,0-1.368-1.789-2.134-1.886" class="st10"/><path d="M201.213,49.716c1.113-0.851,1.097-2.742-0.036-4.223c-1.132-1.481-2.953-1.992-4.066-1.141 c-1.113,0.851-1.097,2.742,0.036,4.223S200.101,50.567,201.213,49.716z" class="st10"/><path d="M196.236,46.389c0,0-1.206-1.033-1.656-1.08" class="st10"/><path d="M196.313,44.864c0,0-0.878-1.088-1.451-1.234" class="st10"/><path d="M197.248,43.857c0,0-0.819-1.132-1.161-1.457" class="st10"/><path d="M198.786,43.756c0,0-0.508-0.785-0.636-1.373" class="st10"/><path d="M205.591,48.251c-0.547,0.418-0.39,1.567,0.311,2.738l1.582,0.186l0.28,1.776 c0.633,0.387,1.227,0.492,1.588,0.217c0.641-0.489,0.316-1.988-0.722-3.345C207.592,48.466,206.232,47.762,205.591,48.251 L205.591,48.251z" class="st9"/><path d="M198.552,44.056c-0.453,0.345-0.322,1.297,0.256,2.265l1.308,0.154l0.233,1.47 c0.523,0.322,1.014,0.408,1.312,0.178c0.531-0.405,0.262-1.645-0.596-2.767C200.205,44.231,199.08,43.651,198.552,44.056 L198.552,44.056z" class="st9"/><path d="M201.577,51.226c-0.568,0.434-0.406,1.627,0.321,2.843l1.643,0.194l0.29,1.844 c0.657,0.403,1.271,0.513,1.648,0.225c0.664-0.507,0.329-2.063-0.748-3.471c-1.078-1.41-2.49-2.139-3.154-1.632L201.577,51.226 L201.577,51.226z" class="st9"/><path d="M194.175,36.042c0,0-4.773-4.854-8.283-2.757" class="st10"/><path d="M192.77,37.701c0,0-4.305-3.159-7.114-1.109" class="st10"/><path d="M189.529,39.79c0,0-2.56-1.658-3.399,0.254" class="st10"/><path d="M188.916,44.168c0,0-4.018-0.251-3.625,3.455" class="st10"/><path d="M191.158,48.609c1.444,1.828,0.526,5.267,0.871,6.078" class="st10"/><path d="M194.311,52.849c0,0,1.172,1.352,0.659,5.262" class="st10"/><path d="M197.761,56.756c0,0,1.344,3.565-0.16,4.912" class="st10"/><path d="M231.166,83.631c11.296-9.438,7.941-32.064-7.494-50.537c-15.434-18.473-37.104-25.797-48.4-16.359 c-11.296,9.438-7.94,32.064,7.494,50.537C198.201,85.745,219.871,93.069,231.166,83.631z" class="st10"/><path d="M227.772,77.431c8.148-6.808,4.25-24.898-8.708-40.406c-12.957-15.508-30.066-22.56-38.214-15.753 c-8.148,6.808-4.249,24.898,8.708,40.406S219.624,84.239,227.772,77.431z" class="st10"/><path d="M180.203,21.814c8.971-2.105,22.782,4.953,33.662,17.975c12.564,15.035,16.612,32.498,9.42,39.752" class="st10"/><path d="M172.154,20.255c0,0-9.546,11.107-9.635,11.944c-2.686,9.488,2.069,27.024,13.43,40.618 c11.476,13.733,26.396,21.304,37.94,20.405" class="st10"/><path d="M224.493,87.033c0,0-9.64,6.101-10.513,6.167" class="st10"/><path d="M211.921,44.417c0,0,2.254,2.801,0.865,5.887c0,0,2.809-1.125,4.988,2.273c0,0-2.456-4.127-0.688-6.156 C217.086,46.42,214.664,48.01,211.921,44.417L211.921,44.417z" class="st10"/><path d="M192.147,64.534c-0.393-1.287-0.565-2.824,0.319-3.839c0,0-2.422,1.59-5.166-2.003" class="st10"/><g><g><defs><path id="SVGID_00000083793439122012909460000000706218237968540560_" d="M458.948,133.174l163.024,63.883 c6.002,2.352,8.962,9.125,6.609,15.127l-37.395,95.429c-2.352,6.002-9.125,8.961-15.127,6.609l-163.024-63.883 c-6.002-2.352-8.961-9.125-6.609-15.127l37.395-95.429C446.173,133.781,452.946,130.822,458.948,133.174z"/></defs><clipPath id="SVGID_00000147219757778071369470000001397367311429700488_"><use xlink:href="#SVGID_00000083793439122012909460000000706218237968540560_" style="overflow:visible"/></clipPath><g style="clip-path:url(#SVGID_00000147219757778071369470000001397367311429700488_)"><path d="M458.948,133.174l163.024,63.883c6.002,2.352,8.962,9.125,6.609,15.127l-37.395,95.429 c-2.352,6.002-9.125,8.961-15.127,6.609l-163.024-63.883c-6.002-2.352-8.961-9.125-6.609-15.127l37.395-95.429 C446.173,133.781,452.946,130.822,458.948,133.174z" class="st3"/><path d="M535.149,193.46l8.742,3.426l1.011-2.58l-5.528-2.166l0.937-2.392l4.449,1.744l1.035-2.641l-4.449-1.744 l0.888-2.266l5.528,2.167l1.011-2.58l-8.742-3.425L535.149,193.46z" class="st12"/><path d="M558.586,191.442l-3.848-1.508l-2.2,1.837l-0.43-2.867l-3.955-1.55l1.387,5.962l-5.405,3.665 l3.848,1.508l2.563-2.012l0.494,3.21l3.955,1.55l-1.478-6.363L558.586,191.442z" class="st12"/><path d="M564.741,193.581c-1.062-0.416-2.155-0.345-3.166,0.211l0.4-1.022l-2.949-1.156l-5.423,13.838 l3.146,1.233l1.902-4.855c0.34,0.813,1.059,1.525,2.081,1.926c2.575,1.009,5.143-0.274,6.36-3.381 c1.218-3.106,0.304-5.753-2.35-6.793L564.741,193.581z M561.072,200.919c-1.18-0.462-1.525-1.663-0.901-3.256 c0.624-1.592,1.693-2.239,2.873-1.777c1.18,0.463,1.533,1.644,0.901,3.256C563.314,200.754,562.252,201.381,561.072,200.919z" class="st12"/><path d="M571.605,205.182c-0.963-0.377-1.475-1.213-1.097-2.697l6.704,2.627l0.162-0.413 c1.186-3.027,0.404-6.009-2.88-7.296c-2.319-0.909-5.487-0.699-6.989,3.134c-1.217,3.106,0.011,5.877,3.117,7.094 c1.848,0.724,4.411,0.957,6.262-1.628l-3.186-1.248c-0.346,0.476-0.975,0.865-2.095,0.426L571.605,205.182z M573.586,199.722 c0.904,0.355,1.313,1.105,0.973,2.263l-3.284-1.287C571.997,199.552,572.838,199.429,573.586,199.722z" class="st12"/><path d="M585.602,201.756c-1.081-0.424-2.229-0.329-3.212,0.328l0.447-1.141l-2.95-1.155l-3.805,9.712 l3.145,1.232l2.119-5.406c0.508-1.296,1.408-1.624,2.272-1.285c0.925,0.362,1.32,0.971,0.743,2.445l-2.126,5.425l3.146,1.233 l2.218-5.662C588.801,204.416,588.039,202.711,585.602,201.756z" class="st12"/><path d="M602.397,203.518c-0.961-0.377-1.925,0.06-2.278,0.962c-0.354,0.902,0.048,1.898,1.01,2.275 c0.962,0.377,1.952-0.072,2.306-0.975C603.789,204.876,603.379,203.902,602.397,203.518z" class="st12"/><path d="M602.259,208.577l-3.14-1.23l-3.797,9.69l3.139,1.231L602.259,208.577z" class="st12"/><path d="M593.559,209.368l-0.716-0.486c-0.756-0.502-0.91-0.976-0.763-1.352c0.21-0.536,0.797-0.704,1.525-0.418 c0.924,0.362,1.298,0.855,0.949,1.746l2.71,1.062c0.736-2.065,0.017-3.737-2.992-4.916c-2.596-1.017-4.527-0.662-5.374,1.5 c-0.668,1.705,0.177,2.928,2.578,4.557l0.717,0.486c0.756,0.501,0.9,1.001,0.752,1.377c-0.209,0.535-0.775,0.589-1.6,0.266 c-1.082-0.424-1.418-1.014-1.205-1.96l-3.067-1.202c-0.74,2.41,0.433,4.219,3.284,5.337c2.852,1.117,4.934,0.72,5.781-1.441 C596.806,212.217,595.961,210.995,593.559,209.368L593.559,209.368z" class="st12"/><path d="M614.544,213.392l-4.087,5.232l0.594-6.601l-4.072-1.596l0.119-0.305 c0.311-0.793,1.212-1.356,2.131-0.996l0.449,0.176l1.005-2.565l-0.645-0.253c-2.712-0.993-5.226,0.205-6.16,2.587 l-0.048,0.123l-1.177-0.462l-1.121,2.861l1.178,0.461l-2.677,6.83l3.14,1.23l2.676-6.83l1.769,0.693l-0.225,7.498 l-0.792,0.866c-0.586,0.629-1.004,0.715-1.652,0.461c-0.333-0.13-0.667-0.261-1.085-0.584l-1.203,2.493 c0.418,0.321,0.983,0.611,1.728,0.903c1.884,0.738,3.18,0.319,5.099-1.804l8.255-9.166l-3.199-1.254L614.544,213.392 L614.544,213.392z" class="st12"/><path d="M454.994,187.258c0.294-0.751,1.14-1.121,1.89-0.827l2.718,1.065c0.75,0.294,1.12,1.141,0.826,1.891 l-1.864,4.755c-0.294,0.75-1.14,1.12-1.89,0.826l-2.718-1.065c-0.75-0.294-1.12-1.14-0.826-1.89L454.994,187.258z M441.821,184.881c0.096-0.247,0.258-0.462,0.467-0.623l2.395-1.847c0.406-0.313,0.946-0.39,1.423-0.203l6.703,2.627 c0.75,0.294,1.12,1.14,0.826,1.89l-5.324,13.586c-0.294,0.75-1.14,1.12-1.89,0.826l-6.703-2.627 c-0.477-0.187-0.822-0.61-0.907-1.116l-0.502-2.981c-0.044-0.261-0.016-0.529,0.08-0.775L441.821,184.881z M463.677,189.093 c-0.75-0.294-1.597,0.076-1.891,0.827l-2.662,6.792c-0.294,0.751,0.076,1.597,0.827,1.891l2.717,1.065 c0.75,0.294,1.597-0.076,1.891-0.826l2.661-6.793c0.294-0.75-0.076-1.597-0.826-1.891L463.677,189.093z M451.533,196.088 c0.294-0.75,1.141-1.12,1.891-0.826l2.717,1.065c0.75,0.294,1.12,1.14,0.826,1.891l-1.863,4.755 c-0.294,0.75-1.14,1.12-1.891,0.826l-2.717-1.065c-0.75-0.294-1.12-1.141-0.826-1.891L451.533,196.088z M459.418,199.962 c-0.75-0.294-1.597,0.075-1.891,0.826l-1.064,2.717c-0.294,0.75,0.076,1.597,0.826,1.891l2.717,1.064 c0.75,0.294,1.597-0.075,1.891-0.826l1.065-2.717c0.294-0.75-0.076-1.597-0.827-1.891L459.418,199.962z" class="st13"/></g></g></g><path d="M459.131,132.708l163.024,63.883c6.259,2.453,9.345,9.516,6.893,15.775l-37.395,95.429 c-2.453,6.259-9.516,9.345-15.775,6.893l-163.024-63.883c-6.259-2.453-9.345-9.516-6.893-15.775l37.395-95.429 C445.809,133.341,452.871,130.255,459.131,132.708z" class="st6"/><path d="M492.46,69.911l-0.002-0.001c-17.886-6.228-34.229,0.762-46.833,10.335 c-12.602,9.572-21.373,21.661-24.051,25.425l-0.029,0.04l-0.036,0.034c-2.019,1.898-4.513,5.981-6.819,11.317 c-2.298,5.317-4.383,11.818-5.612,18.499c-1.23,6.685-1.6,13.523-0.487,19.527c1.111,6,3.694,11.13,8.34,14.471 c9.4,6.763,19.879,7.11,30.319,3.83c10.457-3.284,20.841-10.199,29.961-17.897c18.183-15.347,30.013-40.705,29.513-60.666 c-0.249-9.938-3.846-16.165-7.351-19.906c-1.757-1.875-3.497-3.131-4.794-3.918c-0.648-0.393-1.185-0.668-1.557-0.844 c-0.186-0.088-0.331-0.151-0.428-0.192c-0.048-0.02-0.085-0.035-0.108-0.044L492.46,69.911z" class="st14"/><path d="M431.538,176.093c-0.486-0.012-0.924-0.032-1.311-0.055l11.398,7.357 c13.132,0.612,39.858-5.91,60.153-36.354c10.186-15.28,13.64-28.329,14.555-37.538c0.457-4.606,0.28-8.255-0.009-10.746 c-0.145-1.246-0.318-2.202-0.454-2.844c-0.068-0.321-0.127-0.563-0.168-0.724c-0.015-0.058-0.027-0.105-0.037-0.142 L505.461,82.48c0.709,3.259,1.488,6.427,2.03,8.63c0.079,0.321,0.153,0.621,0.221,0.899l0.01,0.044l0.003,0.046 c0.677,11.85-1.786,27.504-14.343,46.271c-6.515,9.979-18.127,20.391-21.657,23.557c-0.252,0.225-0.462,0.414-0.627,0.563 l-0.023,0.021l-0.025,0.018c-11.843,8.311-22.553,11.641-30.314,12.89C436.856,176.042,433.714,176.146,431.538,176.093z" class="st15"/><path d="M468.5,145.748c0.011-0.011,0.022-0.022,0.031-0.032l16.217-52.705l-58.233,51.564l23.546,15.427 c4.306-2.005,8.892-5.537,12.442-8.616c1.805-1.565,3.334-3.005,4.411-4.054c0.539-0.524,0.964-0.95,1.254-1.245 C468.314,145.94,468.425,145.826,468.5,145.748z" class="st15"/><path d="M482.952,128.634c0.073-0.101,0.141-0.197,0.207-0.288l-3.163,0.436c0.285,1.453,0.05,3.064-0.322,4.463 c0.413-0.587,0.848-1.2,1.273-1.798C481.694,130.394,482.417,129.383,482.952,128.634z" class="st15"/><path d="M445.904,114.298c-0.813,0.497-1.769,0.743-2.582,0.868c-0.613,0.093-1.18,0.123-1.607,0.128 c0.113,0.426,0.157,0.894,0.162,1.358c0.008,0.79-0.097,1.647-0.236,2.428c-0.091,0.508-0.197,0.99-0.298,1.409 c0.87-0.481,1.886-0.757,2.755-0.92c0.695-0.13,1.334-0.195,1.798-0.227c0,0,0,0,0.001,0c-0.126-0.398-0.194-0.839-0.227-1.279 c-0.058-0.763-0.019-1.602,0.056-2.372C445.775,115.191,445.839,114.714,445.904,114.298z" class="st15"/><path d="M463.844,112.27c-0.022,0.012-0.042,0.023-0.059,0.032c-0.009,0.013-0.019,0.027-0.03,0.042 c-0.061,0.089-0.151,0.222-0.263,0.392c-0.224,0.34-0.536,0.833-0.887,1.436c-0.704,1.208-1.558,2.85-2.173,4.602 c-0.618,1.76-0.977,3.584-0.743,5.174c0.23,1.557,1.029,2.91,2.801,3.796c3.61,1.806,6.922,0.461,9.412-1.437 c1.241-0.947,2.253-2.014,2.956-2.848c0.351-0.416,0.623-0.772,0.807-1.022c0.091-0.126,0.161-0.224,0.207-0.291l0.001-0.001 c0.475-4.622-0.088-7.476-1.114-9.189c-1.014-1.693-2.523-2.337-4.138-2.445c-1.638-0.108-3.364,0.342-4.705,0.838 c-0.665,0.246-1.225,0.499-1.618,0.69C464.102,112.135,463.948,112.215,463.844,112.27z" class="st14"/><path d="M457.151,147.133c0.068-0.079,0.13-0.153,0.187-0.22l-10.267-7.049l-2.298,5.744l8.738,5.46 c0.236-0.204,0.537-0.497,0.878-0.849c0.472-0.488,0.996-1.064,1.487-1.617C456.366,148.049,456.819,147.522,457.151,147.133z" class="st14"/><path d="M426.652,163.04c0.176,0.061,0.345,0.116,0.505,0.165c-3.936-4.033-4.892-9.546-4.835-14.153 c0.032-2.566,0.378-4.879,0.715-6.549c0.168-0.835,0.335-1.512,0.46-1.981c0.063-0.234,0.115-0.417,0.152-0.542 c0.018-0.062,0.033-0.11,0.043-0.143l0.006-0.021c3.399-18.277,19.094-38.829,36.436-50.949 c8.702-6.083,16.197-8.418,21.535-9.226c2.668-0.404,4.794-0.426,6.26-0.346c0.163,0.009,0.318,0.019,0.465,0.03 c-0.116-0.079-0.24-0.161-0.371-0.244c-1.173-0.749-2.939-1.653-5.291-2.257c-4.694-1.204-11.782-1.226-21.244,3.671 c-9.49,4.912-20.09,13.711-28.651,24.234c-8.565,10.528-15.045,22.726-16.373,34.422c-1.329,11.709,1.873,17.786,5.294,20.945 C423.479,161.686,425.281,162.562,426.652,163.04z" class="st16"/><path d="M444.531,146.745c-0.004,0.021-0.007,0.044-0.011,0.066c-0.075,0.469-0.142,1.111-0.112,1.807 c0.06,1.395,0.497,2.907,1.901,3.79c2.111,0.868,3.751,0.595,4.859,0.126c0.548-0.232,0.973-0.515,1.263-0.743L444.531,146.745z" class="st16"/><path d="M517.318,104.634l-9.814-10.443c0,0,0.728,9.093-1.365,13.571c0.979,1.039,9.51,10.121,9.51,10.121" class="st17"/><path d="M507.504,94.191l-0.996,0.08l-0.228-2.843l1.953,2.078L507.504,94.191z M506.139,107.762l-0.728,0.686 l-0.465-0.494l0.287-0.615L506.139,107.762z M516.589,105.319l-9.813-10.443l1.457-1.37l9.814,10.443L516.589,105.319z M507.504,94.191c0.997-0.08,0.997-0.08,0.997-0.079c0,0,0,0,0,0.001c0,0,0,0.001,0,0.002s0.001,0.003,0.001,0.006 c0,0.005,0.001,0.012,0.002,0.022c0.001,0.019,0.003,0.046,0.005,0.081c0.006,0.071,0.013,0.174,0.021,0.306 c0.016,0.264,0.037,0.645,0.055,1.114c0.036,0.938,0.062,2.238,0.021,3.682c-0.079,2.837-0.419,6.416-1.561,8.86l-1.812-0.847 c0.951-2.035,1.295-5.241,1.374-8.07c0.039-1.389,0.014-2.643-0.021-3.549c-0.017-0.453-0.037-0.818-0.053-1.068 c-0.007-0.125-0.014-0.222-0.018-0.287c-0.003-0.032-0.005-0.057-0.006-0.073c0-0.008-0.001-0.014-0.001-0.017 c0-0.002,0-0.003,0-0.004V94.27l0,0C506.508,94.271,506.508,94.271,507.504,94.191z M506.867,107.077 c0.49,0.52,2.868,3.051,5.123,5.451c1.128,1.2,2.225,2.368,3.04,3.235c0.407,0.434,0.745,0.793,0.98,1.043 c0.117,0.125,0.209,0.223,0.272,0.29c0.032,0.034,0.056,0.059,0.072,0.076c0.008,0.009,0.014,0.016,0.018,0.02 c0.002,0.002,0.004,0.004,0.005,0.005l0.001,0.001l0,0c0,0,0,0-0.729,0.685c-0.728,0.685-0.728,0.685-0.729,0.685 c0,0,0,0,0-0.001c0,0,0,0-0.001-0.001s-0.003-0.003-0.005-0.005c-0.004-0.004-0.01-0.011-0.018-0.019 c-0.016-0.017-0.04-0.043-0.071-0.076c-0.063-0.067-0.155-0.165-0.273-0.29c-0.235-0.251-0.572-0.61-0.98-1.043 c-0.815-0.868-1.912-2.036-3.04-3.236c-2.255-2.4-4.632-4.93-5.121-5.449L506.867,107.077z" class="st9"/><path d="M508.406,136.709l-9.089-9.673l4.149-10.057l9.468,9.526" class="st17"/><path d="M499.317,127.036l-0.729,0.684l-0.441-0.47l0.246-0.596L499.317,127.036z M503.466,116.979l-0.925-0.381 l0.574-1.39l1.06,1.067L503.466,116.979z M507.678,137.394l-9.09-9.674l1.458-1.369l9.089,9.673L507.678,137.394z M498.393,126.654l4.148-10.056l1.849,0.763l-4.148,10.056L498.393,126.654z M504.175,116.275l9.468,9.525l-1.418,1.41 l-9.469-9.526L504.175,116.275z" class="st9"/><path d="M495.216,135.959l-5.754,7.097l8.317,8.855l5.576-7.624L495.216,135.959z" class="st16"/><path d="M491.403,159.777l-8.106-8.624l-6.57,5.891l8.03,8.895L491.403,159.777z" class="st16"/><path d="M468.727,163.63l-8.996,5.542l8.319,7.815l8.27-5.072L468.727,163.63z" class="st16"/><path d="M459.48,181.019l-8.9-7.833l-11.108,2.729l10.28,7.297L459.48,181.019z" class="st16"/><path d="M449.553,160.015l-23.977-15.35l60.364-53.538l-17.189,55.445" class="st10"/><path d="M462.855,112.221c0,0,15.441-8.191,13.772,8.949" class="st10"/><path d="M476.198,122.296c0,0-6.757,10.556-14.004,5.915c-7.246-4.637,1.324-16.62,1.324-16.62" class="st10"/><path d="M467.229,119.629l-0.029,0.585l-0.573-0.121l-2.288-0.483c-0.554,1.245-0.84,2.425-0.858,3.386 c-0.02,1.069,0.287,1.746,0.765,2.052c0.568,0.362,1.508,0.284,2.695-0.438c1.156-0.702,2.401-1.94,3.437-3.558v-0.001 c1.035-1.616,1.637-3.266,1.791-4.61c0.158-1.381-0.165-2.266-0.729-2.628h-0.001c-0.396-0.254-0.97-0.295-1.714-0.033 c-0.696,0.246-1.483,0.742-2.271,1.46L467.229,119.629z" class="st16"/><path d="M468.673,146.105l-25.778-16.502" class="st10"/><path d="M479.983,109.654l-8.657-5.54" class="st10"/><path d="M460.909,140.927l4.611-10.864" class="st10"/><path d="M450.656,134.487l8.99-9.464" class="st10"/><path d="M446.547,139.265l11.694,7.486c0,0-6.492,9.62-12.043,6.067 C440.647,149.265,446.547,139.265,446.547,139.265z" class="st10"/><path d="M444.058,156.1l1.858-2.904" class="st10"/><path d="M452.423,143.03l2.962-4.626" class="st10"/><path d="M453.228,151.733l-8.979-5.748" class="st10"/><path d="M450.941,149.898l3.383-5.283" class="st10"/><path d="M446.357,146.963l3.379-5.283" class="st10"/><path d="M416.747,169.875c-16.378-13.684-11.513-46.49,10.866-73.273c22.378-26.784,53.797-37.403,70.175-23.719 c16.378,13.684,11.513,46.49-10.866,73.274C464.543,172.94,433.125,183.559,416.747,169.875z" class="st10"/><path d="M421.665,160.889c-11.814-9.87-6.161-36.1,12.626-58.584c18.787-22.485,43.593-32.711,55.407-22.84 s6.161,36.1-12.626,58.585C458.285,160.535,433.478,170.76,421.665,160.889z" class="st10"/><path d="M490.647,80.259c-13.006-3.052-33.031,7.182-48.806,26.062c-18.216,21.8-24.086,47.119-13.658,57.638" class="st10"/><path d="M502.318,77.995c0,0,13.841,16.104,13.969,17.321c3.895,13.758-2.999,39.182-19.471,58.893 c-16.639,19.911-38.272,30.889-55.01,29.585" class="st10"/><path d="M426.429,174.822c0,0,13.977,8.846,15.243,8.941" class="st10"/><path d="M448.03,111.451c0,0-3.269,4.061-1.255,8.536c0,0-4.073-1.631-7.232,3.295c0,0,3.561-5.984,0.998-8.926 C440.541,114.356,444.052,116.661,448.03,111.451z" class="st10"/><path d="M477.649,137.349c0,0,3.621-6.419,1.058-9.362c0,0,3.511,2.306,7.489-2.904" class="st10"/><g><g><defs><path id="SVGID_00000085943627110377297630000009045071352476883647_" d="M221.651,66.983L389.094,15.79 c6.165-1.885,12.691,1.585,14.576,7.75l29.966,98.016c1.885,6.165-1.585,12.691-7.75,14.576l-167.443,51.193 c-6.165,1.885-12.691-1.585-14.576-7.75l-29.966-98.016C212.016,75.394,215.486,68.868,221.651,66.983z"/></defs><clipPath id="SVGID_00000054236472349859972180000005606467681029437853_"><use xlink:href="#SVGID_00000085943627110377297630000009045071352476883647_" style="overflow:visible"/></clipPath><g style="clip-path:url(#SVGID_00000054236472349859972180000005606467681029437853_)"><path d="M221.651,66.983L389.094,15.79c6.165-1.885,12.691,1.585,14.576,7.75l29.966,98.016 c1.885,6.165-1.585,12.691-7.75,14.576l-167.443,51.193c-6.165,1.885-12.691-1.585-14.576-7.75l-29.966-98.016 C212.016,75.394,215.486,68.868,221.651,66.983z" class="st3"/><g><g><defs><rect id="SVGID_00000016056923431648427470000015862036179942411675_" width="40.855" height="21.157" x="382.902" y="113.151" transform="matrix(0.9563 -0.2924 0.2924 0.9563 -18.5515 123.3407)"/></defs><clipPath id="SVGID_00000168816627058435337200000010598786624046150027_"><use xlink:href="#SVGID_00000016056923431648427470000015862036179942411675_" style="overflow:visible"/></clipPath><g style="clip-path:url(#SVGID_00000168816627058435337200000010598786624046150027_)"><path d="M400.159,114.036l1.115,12.931l-3.14,0.96l-1.114-12.931L400.159,114.036z M415.766,117.834 l0.259-5.063l2.344,4.267L415.766,117.834z M420.584,121.063l2.904-0.887l-6.245-11.363l-2.681,0.82 c-0.602,0.184-1.004,0.69-1.064,1.299l-1.272,12.687l3.296-1.008l0.101-2.012l4.028-1.231L420.584,121.063z M411.178,119.606c-0.967-3.207-5.464-2.025-5.871-3.465c-0.124-0.439,0.15-1.029,1.02-1.425 c0.433-0.196,1.658-0.62,3.263-0.403l-0.236-2.742c-0.839-0.044-1.893-0.01-3.101,0.36 c-3.103,0.948-4.783,3.266-4.079,5.635c0.514,1.752,2.391,2.244,3.759,2.462c1.404,0.22,1.931,0.477,2.089,1.01 c0.241,0.817-0.617,1.472-1.515,1.762c-1.571,0.508-2.626,0.337-3.46,0.22l0.244,2.833c0.836,0.113,2.279-0.008,3.69-0.423 C410.278,124.422,411.937,122.132,411.178,119.606z M395.673,115.408l-1.377,13.692l-3.319,1.015l-5.464-8.921 c-0.335-0.55-0.534-0.728-1.073-0.838c-0.88-0.179-2.243-0.182-3.413-0.085l-0.033-0.375l5.343-1.634 c0.681-0.208,1.431,0.057,1.826,0.795l3.469,6.619l0.742-9.26L395.673,115.408L395.673,115.408z" class="st5"/><path d="M397.113,135.972c-0.162,0.157-0.533,0.379-1.039,0.534c-1.173,0.359-2.276-0.115-2.695-1.485 c-0.4-1.309,0.215-2.456,1.505-2.85c0.512-0.157,0.879-0.147,1.044-0.117l-0.002,0.48c-0.227-0.038-0.54-0.024-0.886,0.082 c-0.975,0.298-1.433,1.12-1.099,2.213c0.314,1.025,1.098,1.494,2.104,1.186c0.334-0.102,0.646-0.272,0.83-0.443 L397.113,135.972z" class="st5"/><path d="M397.784,134.282c0.2,0.654,0.721,1.035,1.252,0.872c0.519-0.158,0.759-0.764,0.553-1.438 c-0.155-0.506-0.602-1.064-1.244-0.868C397.709,133.043,397.612,133.72,397.784,134.282z M400.139,133.528 c0.338,1.105-0.286,1.823-1.003,2.042c-0.802,0.245-1.613-0.155-1.902-1.099c-0.304-0.995,0.178-1.783,0.999-2.034 C399.091,132.175,399.862,132.621,400.139,133.528z" class="st5"/><path d="M400.777,132.611c-0.096-0.315-0.184-0.558-0.272-0.801l0.475-0.145l0.174,0.479l0.019-0.005 c0.08-0.335,0.276-0.685,0.777-0.838c0.401-0.123,0.785,0.03,1.023,0.342l0.012-0.004c0.039-0.201,0.125-0.362,0.22-0.492 c0.138-0.191,0.307-0.324,0.591-0.41c0.401-0.123,1.067-0.044,1.384,0.993l0.536,1.754l-0.531,0.162l-0.516-1.685 c-0.177-0.58-0.497-0.854-0.929-0.722c-0.315,0.096-0.48,0.396-0.499,0.686c0,0.088,0.01,0.186,0.04,0.285l0.564,1.846 l-0.531,0.162l-0.547-1.79c-0.145-0.476-0.459-0.751-0.873-0.625c-0.333,0.102-0.503,0.451-0.507,0.75 c-0.008,0.084,0.01,0.186,0.038,0.278l0.55,1.797l-0.531,0.162L400.777,132.611L400.777,132.611z" class="st5"/><path d="M406.081,130.989c-0.096-0.314-0.184-0.558-0.272-0.801l0.475-0.145l0.174,0.48l0.019-0.006 c0.08-0.334,0.276-0.685,0.776-0.838c0.402-0.122,0.786,0.03,1.023,0.342l0.012-0.003c0.039-0.202,0.126-0.363,0.221-0.493 c0.137-0.191,0.306-0.323,0.591-0.41c0.4-0.123,1.066-0.043,1.383,0.994l0.536,1.753l-0.53,0.163l-0.516-1.686 c-0.177-0.58-0.497-0.854-0.929-0.722c-0.315,0.097-0.48,0.397-0.499,0.687c-0.001,0.087,0.009,0.186,0.039,0.285 l0.565,1.845l-0.531,0.163l-0.548-1.791c-0.145-0.475-0.459-0.75-0.872-0.624c-0.334,0.102-0.504,0.451-0.507,0.749 c-0.008,0.084,0.01,0.186,0.038,0.279l0.549,1.796l-0.531,0.163L406.081,130.989z" class="st5"/><path d="M413.401,129.184c-0.099-0.342-0.41-0.834-1.022-0.647c-0.556,0.17-0.637,0.742-0.565,1.132 L413.401,129.184z M411.926,130.059c0.238,0.731,0.793,0.892,1.342,0.724c0.39-0.119,0.609-0.26,0.78-0.407l0.218,0.359 c-0.165,0.145-0.466,0.352-0.942,0.497c-0.919,0.281-1.656-0.162-1.931-1.064c-0.276-0.901,0.04-1.767,0.911-2.033 c0.981-0.3,1.495,0.475,1.663,1.024c0.034,0.111,0.052,0.193,0.059,0.258L411.926,130.059z" class="st5"/><path d="M414.67,128.499c-0.108-0.352-0.206-0.653-0.309-0.925l0.475-0.145l0.205,0.585l0.018-0.006 c0.014-0.443,0.27-0.798,0.635-0.909c0.055-0.017,0.1-0.025,0.151-0.033l0.156,0.512c-0.059,0.005-0.114,0.022-0.188,0.044 c-0.383,0.117-0.568,0.484-0.517,0.915c0.01,0.077,0.032,0.172,0.058,0.259l0.487,1.592l-0.543,0.166L414.67,128.499z" class="st5"/><path d="M419.508,129.152c-0.122,0.112-0.404,0.313-0.805,0.436c-0.902,0.276-1.676-0.157-1.955-1.07 c-0.281-0.92,0.143-1.785,1.118-2.084c0.322-0.098,0.63-0.104,0.803-0.07l0.003,0.452c-0.151-0.029-0.377-0.04-0.674,0.05 c-0.685,0.21-0.898,0.835-0.709,1.453c0.211,0.691,0.786,0.981,1.378,0.8c0.309-0.094,0.49-0.231,0.624-0.346 L419.508,129.152z" class="st5"/><path d="M420.33,129.016l-0.913-2.988l0.543-0.166l0.914,2.988L420.33,129.016L420.33,129.016z M419.764,125.003c0.057,0.185-0.027,0.373-0.242,0.439c-0.198,0.061-0.373-0.048-0.43-0.233 c-0.057-0.185,0.032-0.382,0.236-0.444C419.526,124.705,419.706,124.812,419.764,125.003z" class="st5"/><path d="M423.038,126.52c-0.597,0.17-1.237,0.48-1.06,1.06c0.109,0.359,0.393,0.447,0.664,0.364 c0.395-0.12,0.573-0.445,0.582-0.724c0-0.068-0.013-0.131-0.028-0.181L423.038,126.52z M423.81,127.169 c0.079,0.259,0.169,0.509,0.261,0.703l-0.487,0.149l-0.159-0.363l-0.018,0.005c-0.095,0.286-0.352,0.594-0.778,0.724 c-0.605,0.185-1.044-0.147-1.176-0.579c-0.22-0.722,0.3-1.313,1.457-1.66l-0.019-0.062c-0.074-0.241-0.28-0.67-0.889-0.478 c-0.284,0.087-0.549,0.256-0.715,0.463l-0.235-0.327c0.199-0.23,0.531-0.446,0.908-0.561 c0.914-0.279,1.327,0.276,1.508,0.868L423.81,127.169L423.81,127.169z" class="st5"/><path d="M423.72,123.187l0.543-0.166l1.34,4.383l-0.543,0.166L423.72,123.187z" class="st5"/></g></g></g><path d="M318.816,66.9l8.979-2.745l-0.81-2.649l-5.678,1.736l-0.751-2.457l4.569-1.397l-0.829-2.713l-4.57,1.397 l-0.711-2.327l5.678-1.736l-0.81-2.649l-8.979,2.745L318.816,66.9z" class="st12"/><path d="M335.93,50.762l-3.952,1.208l-0.583,2.806l-2.118-1.98l-4.062,1.242l4.79,3.811l-1.96,6.23l3.953-1.208 l0.759-3.168l2.381,2.208l4.062-1.242l-5.11-4.068L335.93,50.762z" class="st12"/><path d="M342.083,48.615c-1.091,0.334-1.903,1.068-2.351,2.132l-0.321-1.05l-3.029,0.926l4.345,14.213 l3.231-0.988l-1.524-4.986c0.771,0.427,1.776,0.538,2.826,0.217c2.645-0.809,3.861-3.409,2.886-6.6 c-0.976-3.19-3.336-4.698-6.062-3.865L342.083,48.615z M343.765,56.645c-1.212,0.371-2.228-0.356-2.728-1.992 s-0.064-2.807,1.148-3.177c1.212-0.371,2.222,0.336,2.728,1.992C345.419,55.123,344.977,56.274,343.765,56.645z" class="st12"/><path d="M354.668,53.443c-0.989,0.302-1.91-0.035-2.536-1.432l6.887-2.105l-0.13-0.424 c-0.951-3.11-3.416-4.96-6.788-3.929c-2.383,0.728-4.735,2.861-3.531,6.797c0.975,3.19,3.659,4.599,6.849,3.624 c1.898-0.58,4.051-1.989,3.896-5.165l-3.272,1c0.025,0.588-0.227,1.284-1.377,1.636L354.668,53.443z M352.829,47.934 c0.929-0.284,1.715,0.049,2.168,1.169l-3.373,1.031C351.478,48.788,352.061,48.169,352.829,47.934z" class="st12"/><path d="M363.51,42.064c-1.111,0.34-1.952,1.127-2.314,2.252l-0.358-1.172l-3.03,0.926l3.05,9.975l3.231-0.988 l-1.698-5.552c-0.407-1.332,0.095-2.148,0.983-2.419c0.949-0.29,1.638-0.059,2.1,1.455l1.704,5.572l3.231-0.988l-1.778-5.815 C367.668,42.163,366.013,41.299,363.51,42.064z" class="st12"/><path d="M377.766,33.013c-0.987,0.302-1.471,1.243-1.188,2.169c0.283,0.927,1.217,1.457,2.205,1.155 c0.988-0.302,1.485-1.269,1.202-2.197C379.701,33.213,378.774,32.705,377.766,33.013z" class="st12"/><path d="M380.8,37.065l-3.224,0.986l3.042,9.953l3.225-0.986L380.8,37.065z" class="st12"/><path d="M374.474,43.088l-0.864,0.064c-0.904,0.077-1.319-0.199-1.437-0.586 c-0.168-0.55,0.187-1.046,0.935-1.275c0.949-0.29,1.549-0.136,1.829,0.779l2.783-0.851c-0.706-2.076-2.308-2.939-5.399-1.994 c-2.666,0.815-3.958,2.293-3.279,4.513c0.535,1.751,1.957,2.185,4.85,1.97l0.864-0.064c0.904-0.077,1.327,0.225,1.445,0.612 c0.168,0.55-0.242,0.943-1.089,1.202c-1.111,0.34-1.741,0.086-2.162-0.787l-3.15,0.963c0.917,2.349,2.96,3.038,5.889,2.142 c2.928-0.895,4.314-2.5,3.635-4.72c-0.536-1.753-1.958-2.185-4.851-1.97L374.474,43.088z" class="st12"/><path d="M393.419,33.207l0.046,6.639l-3.634-5.542l-4.183,1.279l-0.095-0.313 c-0.25-0.815,0.107-1.816,1.051-2.104l0.46-0.141l-0.805-2.634l-0.662,0.202c-2.743,0.907-3.969,3.407-3.221,5.854 l0.039,0.126l-1.209,0.37l0.898,2.938l1.209-0.37l2.145,7.015l3.225-0.986l-2.145-7.015l1.816-0.555l4.481,6.015l-0.083,1.171 c-0.068,0.857-0.342,1.185-1.008,1.388c-0.342,0.105-0.685,0.21-1.213,0.216l0.606,2.701c0.527-0.007,1.15-0.131,1.915-0.365 c1.935-0.591,2.69-1.725,2.875-4.581l0.776-12.31l-3.285,1.004L393.419,33.207z" class="st12"/><path d="M240.344,118.145c-0.077-0.253-0.084-0.522-0.02-0.779l0.729-2.934c0.124-0.498,0.5-0.894,0.99-1.043 l6.884-2.105c0.771-0.236,1.587,0.198,1.822,0.969l4.266,13.953c0.236,0.771-0.198,1.587-0.968,1.822l-6.885,2.105 c-0.49,0.15-1.023,0.031-1.404-0.312l-2.245-2.024c-0.197-0.178-0.341-0.405-0.419-0.658L240.344,118.145z M252.145,111.826 c-0.236-0.771,0.198-1.586,0.968-1.822l2.791-0.853c0.771-0.236,1.586,0.198,1.822,0.969l1.493,4.883 c0.236,0.771-0.198,1.587-0.969,1.822l-2.79,0.853c-0.771,0.236-1.587-0.198-1.822-0.968L252.145,111.826z M260.09,107.871 c-0.77,0.236-1.204,1.051-0.969,1.822l2.133,6.977c0.236,0.77,1.052,1.204,1.822,0.969l2.791-0.854 c0.771-0.235,1.205-1.051,0.969-1.822l-2.133-6.976c-0.236-0.771-1.051-1.205-1.822-0.969L260.09,107.871z M254.918,120.896 c-0.236-0.771,0.198-1.587,0.968-1.822l2.791-0.853c0.771-0.236,1.586,0.198,1.822,0.968l1.493,4.884 c0.236,0.771-0.198,1.586-0.969,1.822l-2.79,0.853c-0.771,0.236-1.587-0.198-1.822-0.969L254.918,120.896z M263.503,119.034 c-0.771,0.235-1.204,1.051-0.969,1.822l0.854,2.791c0.235,0.77,1.051,1.204,1.821,0.968l2.791-0.853 c0.771-0.236,1.205-1.051,0.969-1.822l-0.853-2.791c-0.236-0.77-1.052-1.204-1.822-0.968L263.503,119.034z" class="st13"/></g></g></g><path d="M221.505,66.505l167.443-51.193c6.429-1.966,13.234,1.653,15.2,8.082l29.966,98.016 c1.966,6.429-1.653,13.234-8.082,15.2l-167.443,51.193c-6.429,1.966-13.234-1.653-15.2-8.082l-29.966-98.016 C211.457,75.276,215.076,68.471,221.505,66.505z" class="st6"/></g></g></g></svg>