<svg width="680" height="220" viewBox="0 0 680 220" fill="none" xmlns="http://www.w3.org/2000/svg">
<g clip-path="url(#clip0_4278_11918)">
<rect width="680" height="220" fill="#085239"/>
<g clip-path="url(#clip1_4278_11918)">
<rect x="79.8984" y="-119.031" width="198.44" height="125.84" rx="11.6729" transform="rotate(24.6526 79.8984 -119.031)" fill="#002E22"/>
<g clip-path="url(#clip2_4278_11918)">
<path d="M192.614 39.6336L184.853 50.036L181.869 48.6666L189.631 38.2642L192.614 39.6336ZM201.751 52.844L205.31 49.2329L204.226 53.9795L201.751 52.844ZM203.205 58.4585L205.965 59.7252L208.851 47.0852L206.302 45.9157C205.731 45.6533 205.094 45.7642 204.644 46.1788L195.262 54.8132L198.394 56.2507L199.807 54.8147L203.635 56.5715L203.205 58.4585ZM197.145 51.1185C198.555 48.0795 194.409 45.9736 195.063 44.6275C195.261 44.2165 195.858 43.9583 196.771 44.2412C197.225 44.3819 198.422 44.8791 199.477 46.1085L201.123 43.9027C200.526 43.3119 199.716 42.6373 198.567 42.1101C195.618 40.7568 192.822 41.3719 191.774 43.6094C190.993 45.2605 192.069 46.8756 192.946 47.9475C193.849 49.0457 194.072 49.5874 193.836 50.0912C193.473 50.8614 192.397 50.7804 191.533 50.4004C190.021 49.7359 189.347 48.9074 188.801 48.2651L187.101 50.5444C187.651 51.1845 188.809 52.0534 190.139 52.6808C193.272 54.1189 196.034 53.5108 197.145 51.1185ZM188.351 37.6769L178.222 46.9927L175.067 45.5447L176.913 35.2475C177.029 34.6141 176.999 34.3489 176.669 33.9085C176.131 33.1899 175.114 32.2815 174.175 31.5767L174.4 31.2741L179.478 33.6045C180.125 33.9016 180.509 34.5987 180.314 35.4118L178.507 42.6639L185.215 36.2378L188.351 37.6768L188.351 37.6769Z" fill="white"/>
<path d="M175.759 53.999C175.534 54.0092 175.109 53.9285 174.628 53.7078C173.513 53.1961 173.004 52.1094 173.602 50.8069C174.172 49.5632 175.394 49.1148 176.62 49.6776C177.107 49.901 177.375 50.1523 177.478 50.2844L177.158 50.6417C177.013 50.4618 176.77 50.2651 176.441 50.1143C175.514 49.6888 174.626 49.9986 174.149 51.0368C173.702 52.011 173.977 52.883 174.933 53.3219C175.25 53.4673 175.597 53.5481 175.848 53.5426L175.759 53.999Z" fill="white"/>
<path d="M177.384 53.1826C177.099 53.8041 177.235 54.4348 177.74 54.6664C178.233 54.8926 178.815 54.5991 179.109 53.9593C179.329 53.4779 179.366 52.7634 178.756 52.4834C178.151 52.2061 177.629 52.6486 177.384 53.1826ZM179.645 54.1843C179.163 55.2346 178.219 55.3558 177.539 55.0434C176.776 54.6934 176.436 53.8549 176.848 52.9577C177.281 52.0127 178.165 51.744 178.945 52.1021C179.761 52.4762 180.041 53.322 179.645 54.1843Z" fill="white"/>
<path d="M180.731 53.9229C180.869 53.6236 180.964 53.3836 181.06 53.1436L181.512 53.3509L181.323 53.8249L181.341 53.833C181.623 53.6361 182.002 53.505 182.478 53.7232C182.859 53.8983 183.045 54.2675 183.015 54.6586L183.026 54.6638C183.19 54.5397 183.361 54.4764 183.519 54.4426C183.748 54.391 183.962 54.4045 184.232 54.5284C184.614 54.7034 185.058 55.2053 184.606 56.1909L183.841 57.8574L183.336 57.6258L184.072 56.024C184.325 55.4725 184.268 55.0555 183.857 54.8669C183.557 54.7295 183.235 54.8443 183.028 55.048C182.969 55.1133 182.911 55.1936 182.868 55.2874L182.063 57.0415L181.559 56.8099L182.34 55.1084C182.547 54.6567 182.496 54.2422 182.103 54.0618C181.786 53.9164 181.427 54.0642 181.226 54.2846C181.164 54.342 181.109 54.4304 181.069 54.5181L180.286 56.2257L179.781 55.9941L180.731 53.923L180.731 53.9229Z" fill="white"/>
<path d="M185.772 56.2364C185.909 55.9371 186.005 55.6971 186.101 55.4571L186.553 55.6644L186.364 56.1384L186.381 56.1465C186.663 55.9495 187.043 55.8185 187.518 56.0366C187.9 56.2117 188.085 56.5809 188.055 56.972L188.067 56.9772C188.23 56.8529 188.402 56.7897 188.559 56.7559C188.788 56.7044 189.003 56.7179 189.273 56.842C189.654 57.0168 190.098 57.5186 189.646 58.5043L188.881 60.1707L188.377 59.9393L189.112 58.3375C189.365 57.7861 189.308 57.3688 188.897 57.1804C188.598 57.043 188.275 57.1576 188.068 57.3614C188.01 57.4266 187.952 57.5069 187.909 57.6007L187.104 59.3548L186.599 59.1231L187.38 57.4216C187.587 56.9699 187.536 56.5554 187.143 56.3752C186.826 56.2298 186.467 56.3775 186.266 56.598C186.204 56.6553 186.15 56.7438 186.11 56.8314L185.326 58.5391L184.821 58.3075L185.772 56.2364Z" fill="white"/>
<path d="M192.441 59.7519C192.595 59.4315 192.689 58.8569 192.107 58.5901C191.579 58.3476 191.138 58.7207 190.933 59.0598L192.441 59.7519ZM190.757 59.4265C190.449 60.1304 190.757 60.6194 191.279 60.8591C191.649 61.029 191.907 61.0689 192.132 61.0736L192.056 61.4861C191.837 61.4848 191.474 61.4391 191.022 61.2318C190.149 60.8309 189.893 60.01 190.286 59.1531C190.679 58.2969 191.491 57.8599 192.318 58.2396C193.251 58.6675 193.12 59.5879 192.881 60.1097C192.832 60.2156 192.791 60.289 192.753 60.3423L190.757 59.4265Z" fill="white"/>
<path d="M193.844 60.0834C193.998 59.7489 194.124 59.4587 194.228 59.1871L194.68 59.3943L194.444 59.9677L194.462 59.9758C194.766 59.6536 195.193 59.559 195.54 59.7181C195.592 59.7423 195.631 59.7665 195.675 59.7939L195.451 60.2806C195.404 60.245 195.352 60.2209 195.281 60.1887C194.917 60.0216 194.535 60.1729 194.287 60.528C194.243 60.5928 194.196 60.6783 194.159 60.7605L193.464 62.274L192.948 62.037L193.844 60.0834Z" fill="white"/>
<path d="M197.025 63.7876C196.86 63.7901 196.515 63.7527 196.134 63.5776C195.277 63.1843 194.986 62.3474 195.385 61.479C195.786 60.6047 196.678 60.2403 197.605 60.6658C197.91 60.806 198.145 61.0058 198.251 61.1467L197.953 61.4858C197.86 61.3644 197.698 61.2055 197.417 61.0762C196.765 60.7773 196.19 61.1026 195.921 61.6898C195.619 62.3464 195.856 62.9456 196.419 63.204C196.712 63.3386 196.939 63.3569 197.115 63.3599L197.025 63.7876Z" fill="white"/>
<path d="M197.73 64.232L199.034 61.3925L199.55 61.6295L198.247 64.4691L197.73 64.2321L197.73 64.232ZM199.974 60.8579C199.894 61.0339 199.706 61.1185 199.501 61.0244C199.313 60.9381 199.254 60.7405 199.335 60.5646C199.416 60.3887 199.613 60.3011 199.806 60.3899C199.994 60.4762 200.058 60.6759 199.974 60.8579Z" fill="white"/>
<path d="M201.412 64.1668C200.853 63.8968 200.168 63.7031 199.915 64.2546C199.759 64.5951 199.912 64.8495 200.17 64.968C200.545 65.1404 200.894 65.0162 201.086 64.8132C201.131 64.7626 201.164 64.7067 201.185 64.6596L201.412 64.1668ZM201.558 65.1642C201.445 65.4109 201.345 65.6569 201.286 65.8636L200.823 65.6511L200.946 65.2742L200.928 65.2661C200.667 65.4166 200.27 65.476 199.866 65.2904C199.291 65.0264 199.183 64.4867 199.372 64.0761C199.687 63.3899 200.469 63.294 201.564 63.8031L201.591 63.7444C201.695 63.5159 201.827 63.0581 201.244 62.797C200.974 62.673 200.664 62.6236 200.402 62.6669L200.444 62.2666C200.746 62.2279 201.137 62.2869 201.495 62.4512C202.363 62.8497 202.303 63.5394 202.045 64.1025L201.558 65.1642L201.558 65.1642Z" fill="white"/>
<path d="M204.137 62.1296L204.653 62.3664L202.741 66.5319L202.226 66.2952L204.137 62.1296Z" fill="white"/>
</g>
</g>
<rect x="79.6526" y="-119.694" width="199.44" height="126.84" rx="12.1729" transform="rotate(24.6526 79.6526 -119.694)" stroke="#002140"/>
<path d="M178.835 14.6138C178.835 14.6138 169.117 18.2282 168.769 32.1128C168.421 45.9974 176.636 63.5826 189.247 74.2269C201.858 84.8712 218.057 93.4337 231.246 83.9454C244.435 74.4571 233.909 44.8388 228.123 39.4016C224.42 34.1946 203.827 5.9075 178.835 14.6138Z" fill="#E4BC07"/>
<path d="M170.706 22.0173L162.721 31.8508C162.721 31.8508 158.21 46.8914 172.324 68.0648C186.439 89.2382 205.068 93.7496 214.209 93.2867L223.349 87.3866C223.349 87.3866 210.246 89.6724 194.003 78.2723C192.282 76.7136 183.473 69.0299 178.69 61.7018C170.073 48.8215 168.394 38.0987 168.856 29.9992C169.291 28.226 170.083 25.0641 170.708 22.0146L170.706 22.0173Z" fill="#D18000"/>
<path d="M192.139 60.8069L188.784 60.344L192.145 64.5337C192.145 64.5337 191.329 63.4666 192.139 60.8069Z" fill="#D18000"/>
<path d="M216.814 46.6613C216.814 46.6613 213.922 46.8915 212.881 45.3877C212.881 45.3877 213.692 48.9733 212.881 50.1318C212.881 50.1318 216.004 50.1318 217.162 51.5206C217.162 51.5206 216.006 47.935 216.814 46.6613Z" fill="#D18000"/>
<path d="M190.057 51.0895C190.057 51.0895 194.453 57.8003 199.775 55.138C205.097 52.4756 198.965 43.9157 198.965 43.9157C198.965 43.9157 188.668 38.0156 190.057 51.0895Z" fill="#E4BC07"/>
<path d="M202.669 67.9803C202.669 67.9803 204.983 70.7578 205.791 71.3358L212.269 67.2873L210.418 62.6582L202.666 67.9803H202.669Z" fill="#E4BC07"/>
<path d="M186.821 28.2365C186.821 28.2365 184.129 28.0639 183.698 31.014C183.264 33.964 185 38.9095 184.653 40.3846C184.305 41.8596 183.005 44.637 183.436 45.8505C183.868 47.064 185.78 51.0576 188.296 52.7915C190.812 54.5281 193.241 57.4782 193.848 58.4327C194.455 59.3873 199.228 65.9831 199.489 66.4172C199.489 66.4172 203.135 71.0176 205.217 69.0195L206.692 72.8378L207.908 71.7969L209.556 74.3991C209.556 74.3991 209.99 72.7515 209.99 71.8832C209.99 71.8832 212.506 74.8333 213.635 74.747C214.763 74.6607 218.495 72.8378 218.495 71.7106C218.495 70.5834 217.888 69.1084 217.888 69.1084C217.888 69.1084 219.104 67.0266 216.672 63.4672C214.242 59.9104 212.595 57.826 212.595 57.826C212.595 57.826 215.458 56.2647 213.635 54.4418C211.813 52.6189 209.383 52.9668 209.383 52.9668L205.044 47.5871C205.044 47.5871 202.008 36.2184 197.06 35.3527C197.06 35.3527 192.893 28.2365 186.821 28.2365Z" fill="#D18000"/>
<path d="M200.722 50.2302C202.151 49.6111 202.722 47.7544 201.998 46.0832C201.274 44.412 199.528 43.5592 198.1 44.1783C196.671 44.7974 196.1 46.6541 196.824 48.3253C197.549 49.9965 199.294 50.8493 200.722 50.2302Z" fill="#E4BC07"/>
<path d="M205.389 48.0212C205.389 48.0212 201.57 51.7532 199.402 52.5326C199.402 52.5326 199.054 55.3963 200.705 56.8713C202.352 58.3464 203.595 59.0551 204.957 57.5644C206.32 56.0737 205.13 53.053 205.13 53.053L208.862 53.1393C208.862 53.1393 208.948 50.796 208.169 49.9277C207.387 49.0594 205.391 48.0186 205.391 48.0186L205.389 48.0212Z" fill="#E4BC07"/>
<path d="M208.019 92.9597L215.849 87.4022L207.281 85.2969L200.5 91.265L208.019 92.9597Z" fill="#E4BC07"/>
<path d="M195.153 88.608L201.409 82.7314L194.58 78.5208L188.866 84.7556L195.153 88.608Z" fill="#E4BC07"/>
<path d="M180.573 21.9299C180.573 21.9299 189.136 19.9632 201.051 28.2929C212.966 36.6227 223.728 50.7374 226.043 63.2333C226.043 63.2333 229.629 74.4556 222.803 79.8928C222.803 79.8928 233.562 78.9669 231.71 62.6527C229.859 46.3385 213.662 28.7532 200.47 21.9273C187.279 15.1014 180.571 21.9273 180.571 21.9273L180.573 21.9299Z" fill="#002140"/>
<path d="M161.807 38.8861L168.576 31.6836C168.576 31.6836 168.073 37.9551 169.517 41.0437C168.842 41.7603 162.958 48.024 162.958 48.024" fill="#E4BC07"/>
<path d="M167.954 61.0083L174.223 54.3366L171.361 47.4009L164.831 53.9705" fill="#E4BC07"/>
<path d="M175.248 72.0316L181.475 65.4018L177.074 59.9751L170.985 66.2021L175.248 72.0316Z" fill="#E4BC07"/>
<path d="M184.285 81.6585L190.29 75.0078L185.25 70.4885L179.19 76.9352L184.285 81.6585Z" fill="#E4BC07"/>
<path d="M201.322 62.4388C203.535 64.8501 207.45 67.1358 209.226 70.6639C211.001 74.1919 209.223 74.5764 209.223 74.5764C209.615 73.8859 207.562 70.9594 207.562 70.9594C208.091 73.0961 206.464 72.777 206.464 72.777C207.337 72.1101 205.093 68.9378 205.093 68.9378C202.287 72.2566 196.549 61.9837 193.364 57.5769C190.178 53.1702 187.715 53.6854 184.786 48.8915C181.854 44.0951 184.406 42.7299 184.822 40.2637C185.238 37.7974 180.967 29.9202 185.785 28.385C192.048 26.332 196.936 35.496 196.936 35.496C196.936 35.496 198.383 34.9755 201.155 38.7207C203.927 42.4658 203.548 45.102 205.156 48.1697C204.053 47.4505 199.465 38.7416 196.23 37.4025C196.662 41.7622 189.124 39.3169 191.06 45.4629C192.32 50.3639 197.023 53.8031 199.57 57.135C202.117 60.4668 200.786 63.2417 200.786 63.2417" stroke="#002140" stroke-linecap="round" stroke-linejoin="round"/>
<path d="M212.431 58.0483C212.431 58.0483 215.637 62.2433 216.157 62.9206C216.678 63.598 219.696 67.5471 217.601 69.1477C216.759 69.7936 215.574 70.1127 214.311 69.1241" stroke="#002140" stroke-linecap="round" stroke-linejoin="round"/>
<path d="M209.602 71.1586C209.602 71.1586 210.387 72.1236 210.999 72.9239C211.611 73.7268 213.036 76.2532 216.729 73.4286C218.91 71.7601 218.827 70.748 217.6 69.1448" stroke="#002140" stroke-linecap="round" stroke-linejoin="round"/>
<path d="M214.102 60.29C213.581 60.3946 212.566 59.6074 212.13 59.9421C211.693 60.2769 211.834 61.2419 212.137 62.1834C212.137 62.1834 210.639 60.8862 209.718 61.4904C208.798 62.0945 209.25 64.1946 209.19 64.5346C209.19 64.5346 212.441 67.5212 214.805 65.9102C216.026 64.9766 215.239 62.7431 214.92 61.4224" stroke="#002140" stroke-linecap="round" stroke-linejoin="round"/>
<path d="M209.457 64.5227C209.457 64.5227 213.746 64.4678 214.466 60.8875" stroke="#002140" stroke-linecap="round" stroke-linejoin="round"/>
<path d="M198.341 53.4795C198.341 53.4795 198.386 53.0558 198.838 52.8048C199.293 52.5563 204.453 49.7815 205.154 48.1705C205.154 48.1705 206.425 47.0014 208.596 49.839C210.767 52.6766 209.734 53.0741 209.734 53.0741" stroke="#002140" stroke-linecap="round" stroke-linejoin="round"/>
<path d="M199.23 52.8961C199.23 52.8961 198.683 54.29 200.192 56.2646C201.701 58.2391 203.592 58.8432 204.931 57.8207C206.267 56.7981 206.343 54.7869 204.633 52.6711C207.421 53.665 212.254 52.5116 213.904 54.6719C214.989 56.0893 213.684 56.7955 213.684 56.7955C213.684 56.7955 211.718 58.2025 210.496 59.1362C208.519 60.6478 207.188 59.0263 206.764 58.4719C206.341 57.9174 205.647 56.5889 206.317 56.0789C206.987 55.5689 207.839 56.3822 207.839 56.3822" stroke="#002140" stroke-linecap="round" stroke-linejoin="round"/>
<path d="M204.635 52.6708C204.635 52.6708 203.267 50.8819 202.501 50.7852" stroke="#002140" stroke-linecap="round" stroke-linejoin="round"/>
<path d="M201.214 49.7159C202.326 48.8647 202.31 46.974 201.177 45.4928C200.045 44.0117 198.224 43.501 197.111 44.3521C195.998 45.2033 196.015 47.094 197.147 48.5752C198.28 50.0563 200.101 50.567 201.214 49.7159Z" stroke="#002140" stroke-linecap="round" stroke-linejoin="round"/>
<path d="M196.236 46.3889C196.236 46.3889 195.03 45.3559 194.581 45.3088" stroke="#002140" stroke-linecap="round" stroke-linejoin="round"/>
<path d="M196.313 44.8636C196.313 44.8636 195.435 43.7756 194.862 43.6292" stroke="#002140" stroke-linecap="round" stroke-linejoin="round"/>
<path d="M197.248 43.8571C197.248 43.8571 196.429 42.7247 196.087 42.4004" stroke="#002140" stroke-linecap="round" stroke-linejoin="round"/>
<path d="M198.786 43.7561C198.786 43.7561 198.278 42.9715 198.15 42.3831" stroke="#002140" stroke-linecap="round" stroke-linejoin="round"/>
<path d="M205.591 48.2514C205.044 48.6698 205.201 49.8179 205.902 50.9896L207.484 51.1753L207.764 52.951C208.397 53.3381 208.991 53.4427 209.352 53.1681C209.993 52.6791 209.668 51.1805 208.63 49.8231C207.592 48.4658 206.232 47.7623 205.591 48.2514Z" fill="#002140"/>
<path d="M198.552 44.0561C198.099 44.4014 198.23 45.3533 198.808 46.321L200.116 46.4753L200.349 47.9451C200.872 48.2668 201.363 48.3531 201.661 48.1229C202.192 47.7175 201.923 46.4779 201.065 45.3559C200.205 44.2314 199.08 43.6508 198.552 44.0561Z" fill="#002140"/>
<path d="M201.577 51.2258C201.009 51.6599 201.171 52.8525 201.898 54.0686L203.541 54.2621L203.831 56.1059C204.488 56.5087 205.102 56.6185 205.479 56.3308C206.143 55.8235 205.808 54.2674 204.731 52.8603C203.653 51.4507 202.241 50.721 201.577 51.2284V51.2258Z" fill="#002140"/>
<path d="M194.175 36.0422C194.175 36.0422 189.402 31.1882 185.892 33.2856" stroke="#002140" stroke-linecap="round" stroke-linejoin="round"/>
<path d="M192.769 37.7008C192.769 37.7008 188.465 34.5415 185.656 36.5919" stroke="#002140" stroke-linecap="round" stroke-linejoin="round"/>
<path d="M189.53 39.7904C189.53 39.7904 186.969 38.1323 186.13 40.0441" stroke="#002140" stroke-linecap="round" stroke-linejoin="round"/>
<path d="M188.915 44.1684C188.915 44.1684 184.898 43.9173 185.291 47.6232" stroke="#002140" stroke-linecap="round" stroke-linejoin="round"/>
<path d="M191.158 48.6094C192.602 50.4375 191.684 53.8766 192.029 54.6873" stroke="#002140" stroke-linecap="round" stroke-linejoin="round"/>
<path d="M194.311 52.8491C194.311 52.8491 195.483 54.2012 194.97 58.1111" stroke="#002140" stroke-linecap="round" stroke-linejoin="round"/>
<path d="M197.761 56.7563C197.761 56.7563 199.105 60.321 197.601 61.6679" stroke="#002140" stroke-linecap="round" stroke-linejoin="round"/>
<path d="M231.166 83.6313C242.462 74.1932 239.107 51.5671 223.672 33.0944C208.238 14.6216 186.568 7.29756 175.272 16.7356C163.976 26.1737 167.332 48.7998 182.766 67.2725C198.201 85.7453 219.871 93.0693 231.166 83.6313Z" stroke="#002140" stroke-linecap="round" stroke-linejoin="round"/>
<path d="M227.772 77.4311C235.92 70.6232 232.022 52.5328 219.064 37.0251C206.107 21.5174 188.998 14.4647 180.85 21.2726C172.702 28.0805 176.6 46.1709 189.558 61.6786C202.515 77.1863 219.624 84.239 227.772 77.4311Z" stroke="#002140" stroke-linecap="round" stroke-linejoin="round"/>
<path d="M180.203 21.8136C189.174 19.7082 202.985 26.7669 213.865 39.7885C226.429 54.8238 230.477 72.2862 223.285 79.541" stroke="#002140" stroke-linecap="round" stroke-linejoin="round"/>
<path d="M172.154 20.2549C172.154 20.2549 162.608 31.362 162.519 32.1989C159.833 41.6872 164.587 59.2228 175.948 72.8171C187.424 86.5501 202.345 94.1213 213.889 93.2217" stroke="#002140" stroke-linecap="round" stroke-linejoin="round"/>
<path d="M224.493 87.0332C224.493 87.0332 214.853 93.1347 213.98 93.2001" stroke="#002140" stroke-linecap="round" stroke-linejoin="round"/>
<path d="M211.921 44.417C211.921 44.417 214.175 47.218 212.786 50.304C212.786 50.304 215.595 49.1795 217.774 52.5767C217.774 52.5767 215.318 48.4498 217.086 46.4203C217.086 46.4203 214.664 48.0104 211.921 44.417V44.417Z" stroke="#002140" stroke-linecap="round" stroke-linejoin="round"/>
<path d="M192.147 64.5337C191.754 63.247 191.582 61.7092 192.466 60.6945C192.466 60.6945 190.044 62.2846 187.301 58.6912" stroke="#002140" stroke-linecap="round" stroke-linejoin="round"/>
<g clip-path="url(#clip3_4278_11918)">
<rect x="448.08" y="128.915" width="198.44" height="125.84" rx="11.6729" transform="rotate(21.3983 448.08 128.915)" fill="#002E22"/>
<path d="M535.149 193.46L543.891 196.886L544.902 194.306L539.373 192.14L540.311 189.748L544.76 191.492L545.795 188.851L541.346 187.107L542.234 184.841L547.762 187.008L548.773 184.428L540.031 181.003L535.149 193.46Z" fill="#03D47C"/>
<path d="M558.586 191.442L554.738 189.934L552.538 191.771L552.108 188.904L548.153 187.354L549.54 193.316L544.135 196.981L547.983 198.489L550.546 196.477L551.04 199.687L554.995 201.237L553.517 194.874L558.586 191.442Z" fill="#03D47C"/>
<path d="M564.741 193.581C563.679 193.165 562.586 193.236 561.575 193.792L561.975 192.77L559.026 191.614L553.603 205.452L556.749 206.685L558.651 201.83C558.991 202.643 559.71 203.355 560.732 203.756C563.307 204.765 565.875 203.482 567.092 200.375C568.309 197.269 567.396 194.622 564.742 193.582L564.741 193.581ZM561.072 200.919C559.892 200.457 559.547 199.256 560.171 197.663C560.795 196.071 561.864 195.424 563.044 195.886C564.224 196.349 564.577 197.53 563.945 199.142C563.314 200.754 562.252 201.381 561.072 200.919Z" fill="#03D47C"/>
<path d="M571.605 205.182C570.642 204.805 570.13 203.969 570.508 202.485L577.212 205.112L577.374 204.699C578.56 201.672 577.778 198.69 574.494 197.403C572.175 196.494 569.007 196.704 567.505 200.537C566.288 203.643 567.516 206.414 570.622 207.631C572.47 208.355 575.033 208.588 576.884 206.003L573.698 204.755C573.352 205.231 572.723 205.62 571.603 205.181L571.605 205.182ZM573.586 199.722C574.49 200.077 574.899 200.827 574.559 201.985L571.275 200.698C571.996 199.552 572.838 199.429 573.586 199.722Z" fill="#03D47C"/>
<path d="M585.602 201.756C584.521 201.332 583.372 201.427 582.39 202.084L582.837 200.943L579.887 199.788L576.082 209.5L579.227 210.732L581.346 205.326C581.854 204.03 582.754 203.702 583.618 204.041C584.543 204.403 584.938 205.012 584.361 206.486L582.235 211.911L585.381 213.144L587.599 207.482C588.801 204.416 588.039 202.711 585.602 201.756Z" fill="#03D47C"/>
<path d="M602.397 203.518C601.436 203.141 600.472 203.578 600.119 204.48C599.765 205.382 600.167 206.378 601.129 206.755C602.091 207.132 603.081 206.683 603.435 205.78C603.789 204.876 603.379 203.902 602.397 203.518Z" fill="#03D47C"/>
<path d="M602.259 208.577L599.119 207.347L595.322 217.037L598.461 218.268L602.259 208.577Z" fill="#03D47C"/>
<path d="M593.559 209.368L592.843 208.882C592.087 208.38 591.933 207.906 592.08 207.53C592.29 206.994 592.877 206.826 593.605 207.112C594.529 207.474 594.903 207.967 594.554 208.858L597.264 209.92C598 207.855 597.281 206.183 594.272 205.004C591.676 203.987 589.745 204.342 588.898 206.504C588.23 208.209 589.075 209.432 591.476 211.061L592.193 211.547C592.949 212.048 593.093 212.548 592.945 212.924C592.736 213.459 592.17 213.513 591.345 213.19C590.263 212.766 589.927 212.176 590.14 211.23L587.073 210.028C586.333 212.438 587.506 214.247 590.357 215.365C593.208 216.482 595.291 216.085 596.138 213.924C596.806 212.217 595.961 210.995 593.56 209.367L593.559 209.368Z" fill="#03D47C"/>
<path d="M614.544 213.392L610.457 218.624L611.051 212.023L606.978 210.427L607.098 210.122C607.409 209.329 608.31 208.766 609.229 209.126L609.678 209.302L610.683 206.737L610.038 206.484C607.325 205.491 604.812 206.689 603.878 209.071L603.83 209.194L602.653 208.732L601.532 211.593L602.709 212.054L600.033 218.884L603.173 220.114L605.849 213.284L607.618 213.977L607.393 221.475L606.601 222.341C606.015 222.97 605.597 223.056 604.949 222.802C604.616 222.672 604.282 222.541 603.864 222.218L602.661 224.711C603.079 225.032 603.644 225.322 604.389 225.614C606.273 226.352 607.569 225.933 609.488 223.81L617.743 214.644L614.543 213.39L614.544 213.392Z" fill="#03D47C"/>
<path fill-rule="evenodd" clip-rule="evenodd" d="M454.993 187.258C455.288 186.507 456.134 186.137 456.884 186.431L459.601 187.496C460.352 187.79 460.722 188.637 460.428 189.387L458.564 194.142C458.27 194.892 457.424 195.262 456.673 194.968L453.956 193.903C453.206 193.609 452.836 192.763 453.13 192.013L454.993 187.258ZM441.821 184.881C441.917 184.634 442.079 184.419 442.288 184.258L444.683 182.411C445.089 182.098 445.629 182.021 446.106 182.208L452.809 184.835C453.559 185.129 453.929 185.975 453.635 186.725L448.311 200.311C448.017 201.061 447.171 201.431 446.42 201.137L439.718 198.51C439.241 198.323 438.896 197.9 438.811 197.394L438.309 194.413C438.265 194.152 438.293 193.884 438.389 193.638L441.821 184.881ZM463.677 189.093C462.927 188.799 462.08 189.169 461.786 189.92L459.124 196.712C458.83 197.463 459.2 198.309 459.951 198.603L462.668 199.668C463.418 199.962 464.265 199.592 464.559 198.842L467.22 192.049C467.514 191.299 467.144 190.452 466.394 190.158L463.677 189.093ZM451.533 196.088C451.827 195.338 452.674 194.968 453.424 195.262L456.141 196.327C456.891 196.621 457.261 197.467 456.967 198.218L455.104 202.973C454.81 203.723 453.963 204.093 453.213 203.799L450.496 202.734C449.746 202.44 449.376 201.593 449.67 200.843L451.533 196.088ZM459.418 199.962C458.668 199.668 457.821 200.037 457.527 200.788L456.463 203.505C456.169 204.255 456.538 205.102 457.289 205.396L460.006 206.46C460.756 206.754 461.603 206.385 461.897 205.634L462.961 202.917C463.255 202.167 462.886 201.32 462.135 201.026L459.418 199.962Z" fill="#085239"/>
</g>
<rect x="447.797" y="128.267" width="199.44" height="126.84" rx="12.1729" transform="rotate(21.3983 447.797 128.267)" stroke="#002140"/>
<path d="M492.46 69.911L492.458 69.9102C474.572 63.6821 458.229 70.672 445.625 80.2449C433.023 89.8166 424.252 101.906 421.574 105.67L421.545 105.71L421.509 105.745C419.49 107.642 416.996 111.725 414.69 117.061C412.392 122.378 410.307 128.879 409.078 135.56C407.847 142.245 407.478 149.083 408.591 155.087C409.702 161.087 412.285 166.217 416.931 169.558C426.331 176.321 436.809 176.668 447.25 173.388C457.707 170.104 468.091 163.189 477.211 155.491C495.394 140.144 507.224 114.786 506.724 94.8246C506.475 84.887 502.878 78.6599 499.373 74.9188C497.616 73.0442 495.876 71.7876 494.579 71.0011C493.931 70.608 493.394 70.3327 493.022 70.1568C492.836 70.0688 492.691 70.0057 492.594 69.9651C492.546 69.9449 492.509 69.9302 492.486 69.921L492.46 69.911Z" fill="#E4BC07" stroke="#002140"/>
<path d="M431.538 176.093C431.052 176.081 430.614 176.061 430.227 176.038L441.625 183.395C454.757 184.007 481.483 177.485 501.778 147.041C511.964 131.761 515.418 118.712 516.333 109.503C516.79 104.897 516.613 101.248 516.324 98.7566C516.179 97.5107 516.006 96.5542 515.87 95.9123C515.802 95.5913 515.743 95.349 515.702 95.1884C515.687 95.1305 515.675 95.0833 515.665 95.0468L505.461 82.4796C506.17 85.7389 506.949 88.9067 507.491 91.1096C507.57 91.4305 507.644 91.7309 507.712 92.0082L507.722 92.0527L507.725 92.0985C508.402 103.949 505.939 119.603 493.382 138.368C486.867 148.348 475.255 158.76 471.725 161.926C471.473 162.151 471.263 162.34 471.098 162.489L471.075 162.51L471.05 162.528C459.207 170.839 448.497 174.169 440.736 175.418C436.856 176.042 433.714 176.146 431.538 176.093Z" fill="#D18000" stroke="#002140"/>
<path d="M468.5 145.748C468.511 145.737 468.522 145.726 468.531 145.716L484.748 93.0107L426.515 144.575L450.061 160.002C454.367 157.997 458.953 154.465 462.503 151.386C464.308 149.821 465.837 148.381 466.914 147.332C467.453 146.808 467.878 146.382 468.168 146.087C468.314 145.94 468.425 145.826 468.5 145.748Z" fill="#D18000" stroke="#002140"/>
<path d="M482.952 128.634C483.025 128.533 483.094 128.437 483.159 128.346L479.996 128.782C480.281 130.235 480.046 131.846 479.674 133.245C480.088 132.658 480.522 132.045 480.947 131.447C481.694 130.394 482.417 129.383 482.952 128.634Z" fill="#D18000" stroke="#002140"/>
<path d="M445.904 114.298C445.091 114.795 444.135 115.041 443.322 115.166C442.709 115.259 442.141 115.289 441.715 115.294C441.828 115.72 441.872 116.188 441.877 116.652C441.885 117.442 441.78 118.299 441.641 119.08C441.55 119.588 441.444 120.07 441.342 120.489C442.213 120.008 443.229 119.732 444.098 119.569C444.793 119.439 445.432 119.374 445.896 119.342C445.896 119.342 445.896 119.342 445.896 119.342C445.771 118.944 445.703 118.503 445.67 118.063C445.612 117.3 445.651 116.461 445.726 115.691C445.775 115.191 445.839 114.714 445.904 114.298Z" fill="#D18000" stroke="#002140"/>
<path d="M463.844 112.27C463.822 112.282 463.802 112.293 463.785 112.302C463.776 112.315 463.766 112.329 463.755 112.344C463.694 112.433 463.604 112.566 463.492 112.736C463.268 113.076 462.956 113.569 462.605 114.172C461.901 115.38 461.047 117.022 460.432 118.774C459.814 120.534 459.455 122.358 459.689 123.948C459.919 125.505 460.718 126.858 462.49 127.744C466.1 129.55 469.412 128.205 471.902 126.307C473.143 125.36 474.155 124.293 474.858 123.459C475.209 123.043 475.481 122.687 475.665 122.437C475.756 122.311 475.826 122.213 475.872 122.146C475.872 122.146 475.872 122.145 475.873 122.145C476.348 117.523 475.785 114.669 474.759 112.956C473.745 111.263 472.236 110.619 470.621 110.511C468.983 110.403 467.257 110.853 465.916 111.349C465.251 111.595 464.691 111.848 464.298 112.039C464.102 112.135 463.948 112.215 463.844 112.27Z" fill="#E4BC07" stroke="#002140"/>
<path d="M457.151 147.133C457.218 147.054 457.281 146.98 457.338 146.913L447.071 139.864L444.773 145.608L453.511 151.068C453.747 150.864 454.048 150.571 454.389 150.219C454.861 149.731 455.385 149.155 455.876 148.602C456.365 148.049 456.819 147.522 457.151 147.133Z" fill="#E4BC07" stroke="#002140"/>
<path d="M488.394 79.3249C488.278 79.2458 488.154 79.1641 488.023 79.0804C486.85 78.3314 485.084 77.4273 482.731 76.8237C478.038 75.6197 470.95 75.5978 461.488 80.4948C451.997 85.4067 441.397 94.2062 432.836 104.729C424.272 115.257 417.792 127.455 416.464 139.151C415.135 150.86 418.337 156.937 421.758 160.096C423.479 161.686 425.281 162.562 426.652 163.04C426.828 163.101 426.997 163.156 427.157 163.205C423.221 159.172 422.265 153.659 422.322 149.052C422.354 146.486 422.7 144.173 423.037 142.503C423.205 141.668 423.372 140.991 423.497 140.522C423.56 140.288 423.612 140.105 423.649 139.98C423.667 139.918 423.682 139.87 423.692 139.837L423.698 139.816C427.097 121.539 442.792 100.987 460.134 88.8667C468.836 82.7835 476.331 80.4485 481.669 79.6403C484.337 79.2364 486.463 79.2143 487.929 79.2946C488.092 79.3036 488.247 79.3138 488.394 79.3249Z" fill="#0B1B34" stroke="#002140"/>
<path d="M444.531 146.745C444.527 146.766 444.524 146.789 444.52 146.811C444.445 147.28 444.378 147.922 444.408 148.618C444.468 150.013 444.905 151.525 446.309 152.408C448.42 153.276 450.06 153.003 451.168 152.534C451.716 152.302 452.141 152.019 452.431 151.791L444.531 146.745Z" fill="#0B1B34" stroke="#002140"/>
<mask id="path-73-inside-1_4278_11918" fill="white">
<path d="M517.318 104.634L507.504 94.1912C507.504 94.1912 508.232 103.284 506.139 107.762C507.118 108.801 515.649 117.883 515.649 117.883"/>
</mask>
<path d="M517.318 104.634L507.504 94.1912C507.504 94.1912 508.232 103.284 506.139 107.762C507.118 108.801 515.649 117.883 515.649 117.883" fill="#0B1B34"/>
<path d="M507.504 94.1912L506.508 94.271L506.28 91.4279L508.233 93.5064L507.504 94.1912ZM506.139 107.762L505.411 108.448L504.946 107.954L505.233 107.339L506.139 107.762ZM516.589 105.319L506.776 94.876L508.233 93.5064L518.047 103.949L516.589 105.319ZM507.504 94.1912C508.501 94.1114 508.501 94.1115 508.501 94.1117C508.501 94.1118 508.501 94.1121 508.501 94.1123C508.501 94.1127 508.501 94.1133 508.501 94.1141C508.501 94.1155 508.502 94.1175 508.502 94.1201C508.502 94.1252 508.503 94.1324 508.504 94.1418C508.505 94.1606 508.507 94.1879 508.509 94.2233C508.515 94.2941 508.522 94.3972 508.53 94.5293C508.546 94.7934 508.567 95.1738 508.585 95.6434C508.621 96.5818 508.647 97.8814 508.606 99.3256C508.527 102.163 508.187 105.742 507.045 108.186L505.233 107.339C506.184 105.304 506.528 102.098 506.607 99.2694C506.646 97.8805 506.621 96.6269 506.586 95.7204C506.569 95.2676 506.549 94.9026 506.533 94.652C506.526 94.5267 506.519 94.43 506.515 94.3654C506.512 94.3331 506.51 94.3088 506.509 94.2929C506.509 94.285 506.508 94.2791 506.508 94.2755C506.508 94.2736 506.508 94.2723 506.508 94.2716C506.508 94.2712 506.508 94.271 506.508 94.2709C506.508 94.2708 506.508 94.2708 506.508 94.2708C506.508 94.2709 506.508 94.271 507.504 94.1912ZM506.867 107.077C507.357 107.597 509.735 110.128 511.99 112.528C513.118 113.728 514.215 114.896 515.03 115.763C515.437 116.197 515.775 116.556 516.01 116.806C516.127 116.931 516.219 117.029 516.282 117.096C516.314 117.13 516.338 117.155 516.354 117.172C516.362 117.181 516.368 117.188 516.372 117.192C516.374 117.194 516.376 117.196 516.377 117.197C516.377 117.197 516.378 117.198 516.378 117.198C516.378 117.198 516.378 117.198 516.378 117.198C516.378 117.198 516.378 117.198 515.649 117.883C514.921 118.568 514.921 118.568 514.92 118.568C514.92 118.568 514.92 118.568 514.92 118.567C514.92 118.567 514.92 118.567 514.919 118.566C514.918 118.565 514.916 118.563 514.914 118.561C514.91 118.557 514.904 118.55 514.896 118.542C514.88 118.525 514.856 118.499 514.825 118.466C514.762 118.399 514.67 118.301 514.552 118.176C514.317 117.925 513.98 117.566 513.572 117.133C512.757 116.265 511.66 115.097 510.532 113.897C508.277 111.497 505.9 108.967 505.411 108.448L506.867 107.077Z" fill="#002140" mask="url(#path-73-inside-1_4278_11918)"/>
<mask id="path-75-inside-2_4278_11918" fill="white">
<path d="M508.406 136.709L499.317 127.036L503.466 116.979L512.934 126.505"/>
</mask>
<path d="M508.406 136.709L499.317 127.036L503.466 116.979L512.934 126.505" fill="#0B1B34"/>
<path d="M499.317 127.036L498.588 127.72L498.147 127.25L498.393 126.654L499.317 127.036ZM503.466 116.979L502.541 116.598L503.115 115.208L504.175 116.275L503.466 116.979ZM507.678 137.394L498.588 127.72L500.046 126.351L509.135 136.024L507.678 137.394ZM498.393 126.654L502.541 116.598L504.39 117.361L500.242 127.417L498.393 126.654ZM504.175 116.275L513.643 125.8L512.225 127.21L502.756 117.684L504.175 116.275Z" fill="#002140" mask="url(#path-75-inside-2_4278_11918)"/>
<path d="M495.216 135.959L489.462 143.056L497.779 151.911L503.355 144.287L495.216 135.959Z" fill="#0B1B34" stroke="#002140"/>
<path d="M491.403 159.777L483.297 151.153L476.727 157.044L484.757 165.939L491.403 159.777Z" fill="#0B1B34" stroke="#002140"/>
<path d="M468.727 163.63L459.731 169.172L468.05 176.987L476.32 171.915L468.727 163.63Z" fill="#0B1B34" stroke="#002140"/>
<path d="M459.48 181.019L450.58 173.186L439.472 175.915L449.752 183.212L459.48 181.019Z" fill="#0B1B34" stroke="#002140"/>
<path d="M449.553 160.015L425.576 144.665L485.94 91.1267L468.751 146.572" stroke="#002140" stroke-linecap="round" stroke-linejoin="round"/>
<path d="M462.855 112.221C462.855 112.221 478.296 104.03 476.627 121.17" stroke="#002140" stroke-linecap="round" stroke-linejoin="round"/>
<path d="M476.198 122.296C476.198 122.296 469.441 132.852 462.194 128.211C454.948 123.574 463.518 111.591 463.518 111.591" stroke="#002140" stroke-linecap="round" stroke-linejoin="round"/>
<path d="M467.229 119.629L467.199 120.214L466.627 120.093L464.339 119.61C463.785 120.855 463.499 122.035 463.481 122.996C463.461 124.064 463.767 124.742 464.246 125.048C464.813 125.41 465.753 125.332 466.941 124.61C468.097 123.908 469.342 122.67 470.378 121.052L470.378 121.051C471.413 119.435 472.015 117.785 472.169 116.441C472.327 115.06 472.004 114.175 471.439 113.813L471.439 113.813C471.043 113.559 470.468 113.518 469.725 113.78C469.028 114.026 468.242 114.522 467.454 115.24L467.229 119.629Z" fill="#0B1B34" stroke="#002140"/>
<path d="M468.673 146.105L442.895 129.603" stroke="#002140" stroke-linecap="round" stroke-linejoin="round"/>
<path d="M479.983 109.654L471.326 104.114" stroke="#002140" stroke-linecap="round" stroke-linejoin="round"/>
<path d="M460.909 140.927L465.52 130.063" stroke="#002140" stroke-linecap="round" stroke-linejoin="round"/>
<path d="M450.656 134.487L459.646 125.023" stroke="#002140" stroke-linecap="round" stroke-linejoin="round"/>
<path d="M446.547 139.265L458.241 146.751C458.241 146.751 451.749 156.371 446.198 152.818C440.647 149.265 446.547 139.265 446.547 139.265Z" stroke="#002140" stroke-linecap="round" stroke-linejoin="round"/>
<path d="M444.058 156.1L445.916 153.196" stroke="#002140" stroke-linecap="round" stroke-linejoin="round"/>
<path d="M452.423 143.03L455.385 138.404" stroke="#002140" stroke-linecap="round" stroke-linejoin="round"/>
<path d="M453.228 151.733L444.249 145.985" stroke="#002140" stroke-linecap="round" stroke-linejoin="round"/>
<path d="M450.941 149.898L454.323 144.615" stroke="#002140" stroke-linecap="round" stroke-linejoin="round"/>
<path d="M446.357 146.963L449.736 141.68" stroke="#002140" stroke-linecap="round" stroke-linejoin="round"/>
<path d="M416.747 169.875C400.369 156.191 405.234 123.385 427.613 96.6015C449.991 69.8178 481.41 59.1986 497.788 72.8828C514.166 86.5671 509.301 119.373 486.922 146.157C464.543 172.94 433.125 183.559 416.747 169.875Z" stroke="#002140" stroke-linecap="round" stroke-linejoin="round"/>
<path d="M421.665 160.889C409.851 151.019 415.504 124.789 434.291 102.305C453.078 79.8199 477.884 69.5942 489.698 79.465C501.512 89.3358 495.859 115.565 477.072 138.05C458.285 160.535 433.478 170.76 421.665 160.889Z" stroke="#002140" stroke-linecap="round" stroke-linejoin="round"/>
<path d="M490.647 80.2595C477.641 77.207 457.616 87.4415 441.841 106.321C423.625 128.121 417.755 153.44 428.183 163.959" stroke="#002140" stroke-linecap="round" stroke-linejoin="round"/>
<path d="M502.318 77.9949C502.318 77.9949 516.159 94.0992 516.287 95.3164C520.182 109.074 513.288 134.498 496.816 154.209C480.177 174.12 458.544 185.098 441.806 183.794" stroke="#002140" stroke-linecap="round" stroke-linejoin="round"/>
<path d="M426.429 174.822C426.429 174.822 440.406 183.668 441.672 183.763" stroke="#002140" stroke-linecap="round" stroke-linejoin="round"/>
<path d="M448.03 111.451C448.03 111.451 444.761 115.512 446.775 119.987C446.775 119.987 442.702 118.356 439.543 123.282C439.543 123.282 443.104 117.298 440.541 114.356C440.541 114.356 444.052 116.661 448.03 111.451Z" stroke="#002140" stroke-linecap="round" stroke-linejoin="round"/>
<path d="M477.649 137.349C477.649 137.349 481.27 130.93 478.706 127.987C478.706 127.987 482.218 130.293 486.196 125.083" stroke="#002140" stroke-linecap="round" stroke-linejoin="round"/>
<g clip-path="url(#clip4_4278_11918)">
<rect x="210.488" y="70.3962" width="198.44" height="125.84" rx="11.6729" transform="rotate(-17 210.488 70.3962)" fill="#002E22"/>
<g clip-path="url(#clip5_4278_11918)">
<path d="M400.159 114.036L401.274 126.967L398.134 127.927L397.02 114.996L400.159 114.036ZM415.766 117.834L416.025 112.771L418.369 117.038L415.766 117.834ZM420.584 121.063L423.488 120.176L417.243 108.813L414.562 109.633C413.96 109.817 413.558 110.323 413.498 110.932L412.226 123.619L415.522 122.611L415.623 120.599L419.651 119.368L420.584 121.063ZM411.178 119.606C410.211 116.399 405.714 117.581 405.307 116.141C405.183 115.702 405.457 115.112 406.327 114.716C406.76 114.52 407.985 114.096 409.59 114.313L409.354 111.571C408.515 111.527 407.461 111.561 406.253 111.931C403.15 112.879 401.47 115.197 402.174 117.566C402.688 119.318 404.565 119.81 405.933 120.028C407.337 120.248 407.864 120.505 408.022 121.038C408.263 121.855 407.405 122.51 406.507 122.8C404.936 123.308 403.881 123.137 403.047 123.02L403.291 125.853C404.127 125.966 405.57 125.845 406.981 125.43C410.278 124.422 411.938 122.132 411.178 119.606ZM395.673 115.408L394.296 129.1L390.977 130.115L385.513 121.194C385.178 120.644 384.979 120.466 384.44 120.356C383.56 120.177 382.197 120.174 381.027 120.271L380.994 119.896L386.337 118.262C387.018 118.054 387.768 118.319 388.163 119.057L391.632 125.676L392.374 116.416L395.673 115.408L395.673 115.408Z" fill="white"/>
<path d="M397.113 135.972C396.951 136.129 396.58 136.351 396.074 136.506C394.901 136.865 393.798 136.391 393.379 135.021C392.979 133.712 393.594 132.565 394.884 132.171C395.396 132.014 395.763 132.024 395.928 132.054L395.926 132.534C395.699 132.496 395.386 132.51 395.04 132.616C394.065 132.914 393.607 133.736 393.941 134.829C394.255 135.854 395.039 136.323 396.046 136.015C396.379 135.913 396.692 135.743 396.876 135.572L397.113 135.972Z" fill="white"/>
<path d="M397.784 134.282C397.984 134.936 398.505 135.317 399.036 135.154C399.555 134.996 399.795 134.39 399.589 133.716C399.434 133.21 398.987 132.652 398.345 132.848C397.709 133.043 397.613 133.72 397.784 134.282ZM400.139 133.528C400.477 134.633 399.853 135.351 399.137 135.57C398.334 135.815 397.523 135.415 397.234 134.471C396.93 133.476 397.412 132.688 398.233 132.437C399.091 132.175 399.862 132.621 400.139 133.528Z" fill="white"/>
<path d="M400.777 132.611C400.681 132.296 400.593 132.053 400.505 131.81L400.981 131.665L401.154 132.144L401.173 132.139C401.253 131.804 401.449 131.454 401.95 131.301C402.351 131.178 402.735 131.331 402.973 131.643L402.985 131.639C403.024 131.438 403.11 131.277 403.205 131.147C403.343 130.956 403.512 130.823 403.796 130.737C404.197 130.614 404.863 130.693 405.18 131.73L405.716 133.484L405.185 133.646L404.67 131.961C404.492 131.381 404.172 131.107 403.74 131.239C403.425 131.335 403.26 131.635 403.241 131.925C403.241 132.013 403.251 132.111 403.281 132.21L403.845 134.056L403.314 134.218L402.767 132.428C402.622 131.952 402.308 131.677 401.894 131.803C401.561 131.905 401.391 132.254 401.387 132.553C401.379 132.637 401.397 132.739 401.425 132.831L401.975 134.628L401.444 134.79L400.778 132.611L400.777 132.611Z" fill="white"/>
<path d="M406.081 130.989C405.985 130.675 405.897 130.431 405.809 130.188L406.284 130.043L406.458 130.523L406.477 130.517C406.557 130.183 406.753 129.832 407.253 129.679C407.655 129.557 408.039 129.709 408.276 130.021L408.288 130.018C408.327 129.816 408.414 129.655 408.509 129.525C408.646 129.334 408.815 129.202 409.1 129.115C409.5 128.992 410.166 129.072 410.483 130.109L411.019 131.862L410.489 132.025L409.974 130.339C409.796 129.759 409.476 129.485 409.044 129.617C408.729 129.714 408.564 130.014 408.545 130.304C408.544 130.391 408.554 130.49 408.585 130.589L409.149 132.434L408.618 132.597L408.07 130.806C407.925 130.331 407.611 130.056 407.198 130.182C406.864 130.284 406.694 130.633 406.691 130.931C406.683 131.015 406.701 131.117 406.729 131.21L407.278 133.006L406.747 133.169L406.081 130.989Z" fill="white"/>
<path d="M413.401 129.184C413.302 128.842 412.991 128.35 412.379 128.537C411.823 128.707 411.742 129.279 411.814 129.669L413.401 129.184ZM411.926 130.059C412.164 130.79 412.719 130.951 413.268 130.783C413.658 130.664 413.877 130.523 414.048 130.376L414.266 130.735C414.101 130.88 413.8 131.087 413.324 131.232C412.405 131.513 411.668 131.07 411.393 130.168C411.117 129.267 411.433 128.401 412.304 128.135C413.285 127.835 413.799 128.61 413.967 129.159C414.001 129.27 414.019 129.352 414.026 129.417L411.926 130.059Z" fill="white"/>
<path d="M414.67 128.499C414.562 128.147 414.464 127.846 414.361 127.574L414.836 127.429L415.041 128.014L415.059 128.008C415.073 127.565 415.329 127.21 415.694 127.099C415.749 127.082 415.794 127.074 415.845 127.066L416.001 127.578C415.942 127.583 415.887 127.6 415.813 127.622C415.43 127.739 415.245 128.106 415.296 128.537C415.306 128.614 415.328 128.709 415.355 128.796L415.841 130.388L415.298 130.554L414.67 128.499Z" fill="white"/>
<path d="M419.508 129.152C419.386 129.264 419.104 129.465 418.703 129.588C417.801 129.864 417.027 129.431 416.748 128.518C416.467 127.598 416.891 126.733 417.866 126.434C418.188 126.336 418.496 126.33 418.669 126.364L418.672 126.816C418.521 126.787 418.295 126.776 417.998 126.866C417.313 127.076 417.1 127.701 417.288 128.319C417.5 129.01 418.075 129.3 418.667 129.119C418.976 129.025 419.157 128.888 419.291 128.773L419.508 129.152Z" fill="white"/>
<path d="M420.33 129.016L419.417 126.028L419.96 125.862L420.874 128.85L420.33 129.016L420.33 129.016ZM419.765 125.003C419.821 125.188 419.737 125.376 419.522 125.442C419.324 125.503 419.149 125.394 419.092 125.209C419.035 125.024 419.124 124.827 419.328 124.765C419.526 124.705 419.706 124.812 419.765 125.003Z" fill="white"/>
<path d="M423.038 126.52C422.441 126.69 421.801 127 421.978 127.58C422.088 127.939 422.371 128.027 422.642 127.944C423.037 127.824 423.215 127.499 423.224 127.22C423.224 127.152 423.211 127.089 423.196 127.039L423.038 126.52ZM423.81 127.169C423.889 127.428 423.979 127.678 424.071 127.872L423.584 128.021L423.426 127.658L423.407 127.663C423.312 127.949 423.055 128.257 422.629 128.387C422.024 128.572 421.585 128.24 421.453 127.808C421.233 127.086 421.753 126.495 422.91 126.148L422.891 126.086C422.817 125.845 422.611 125.416 422.002 125.608C421.718 125.695 421.453 125.864 421.287 126.071L421.052 125.744C421.251 125.514 421.583 125.298 421.96 125.183C422.874 124.904 423.287 125.459 423.468 126.051L423.81 127.169L423.81 127.169Z" fill="white"/>
<path d="M423.72 123.187L424.263 123.021L425.603 127.404L425.06 127.57L423.72 123.187Z" fill="white"/>
</g>
<path d="M318.816 66.9005L327.795 64.1554L326.985 61.5061L321.307 63.2421L320.556 60.7856L325.125 59.3885L324.296 56.6757L319.726 58.0728L319.015 55.7457L324.693 54.0097L323.883 51.3604L314.904 54.1055L318.816 66.9005Z" fill="#03D47C"/>
<path d="M335.93 50.7618L331.978 51.9702L331.395 54.7761L329.277 52.796L325.215 54.0379L330.005 57.8489L328.045 64.0789L331.998 62.8705L332.757 59.702L335.138 61.9104L339.2 60.6685L334.09 56.6002L335.93 50.7618Z" fill="#03D47C"/>
<path d="M342.083 48.6152C340.992 48.9488 340.18 49.6827 339.732 50.747L339.411 49.6972L336.382 50.6234L340.727 64.8364L343.958 63.8485L342.434 58.8621C343.205 59.2887 344.21 59.4002 345.26 59.0792C347.905 58.2705 349.121 55.6698 348.146 52.4794C347.17 49.2891 344.81 47.7815 342.084 48.6149L342.083 48.6152ZM343.765 56.6448C342.553 57.0153 341.537 56.2884 341.037 54.6528C340.537 53.0172 340.973 51.8461 342.185 51.4756C343.397 51.1051 344.407 51.8121 344.913 53.4676C345.419 55.1231 344.977 56.2744 343.765 56.6448Z" fill="#03D47C"/>
<path d="M354.668 53.4434C353.679 53.7458 352.758 53.4085 352.132 52.0112L359.019 49.9059L358.889 49.4818C357.938 46.3723 355.473 44.5214 352.101 45.5525C349.718 46.281 347.366 48.4131 348.57 52.3497C349.545 55.5401 352.229 56.9488 355.419 55.9735C357.317 55.3931 359.47 53.9842 359.315 50.8082L356.043 51.8085C356.068 52.3967 355.816 53.0923 354.666 53.4442L354.668 53.4434ZM352.829 47.9344C353.758 47.6503 354.544 47.9839 354.997 49.1036L351.624 50.1347C351.478 48.7882 352.061 48.1691 352.829 47.9344Z" fill="#03D47C"/>
<path d="M363.51 42.0645C362.399 42.4041 361.558 43.1916 361.196 44.3169L360.838 43.1452L357.808 44.0714L360.858 54.0467L364.089 53.0589L362.391 47.5066C361.984 46.1745 362.486 45.3588 363.374 45.0872C364.323 44.797 365.012 45.0285 365.474 46.5422L367.178 52.1144L370.409 51.1266L368.631 45.3119C367.668 42.1626 366.013 41.2992 363.51 42.0645Z" fill="#03D47C"/>
<path d="M377.766 33.0133C376.779 33.3153 376.295 34.2561 376.578 35.1828C376.861 36.1094 377.795 36.64 378.783 36.338C379.771 36.036 380.268 35.0692 379.985 34.1413C379.701 33.2135 378.774 32.7052 377.766 33.0133Z" fill="#03D47C"/>
<path d="M380.8 37.0648L377.576 38.0507L380.618 48.0036L383.843 47.0177L380.8 37.0648Z" fill="#03D47C"/>
<path d="M374.474 43.0877L373.61 43.1517C372.706 43.2283 372.291 42.9525 372.173 42.5657C372.005 42.016 372.36 41.5196 373.108 41.291C374.057 41.0008 374.657 41.1548 374.937 42.0702L377.72 41.2194C377.014 39.1433 375.412 38.28 372.321 39.2249C369.655 40.04 368.363 41.5177 369.042 43.7379C369.577 45.4891 370.999 45.9233 373.892 45.708L374.756 45.644C375.66 45.5674 376.083 45.8693 376.201 46.2561C376.369 46.8058 375.959 47.1992 375.112 47.4582C374.001 47.7979 373.371 47.5444 372.95 46.6707L369.8 47.6338C370.717 49.9825 372.76 50.6717 375.689 49.7763C378.617 48.8809 380.003 47.2767 379.324 45.0566C378.788 43.304 377.366 42.8711 374.473 43.0864L374.474 43.0877Z" fill="#03D47C"/>
<path d="M393.419 33.2072L393.465 39.8465L389.831 34.3042L385.648 35.583L385.553 35.2695C385.303 34.4549 385.66 33.4537 386.604 33.165L387.064 33.0242L386.259 30.3899L385.597 30.5922C382.854 31.4988 381.628 33.9994 382.376 36.4459L382.415 36.5716L381.206 36.9413L382.104 39.8791L383.313 39.5094L385.458 46.5244L388.683 45.5385L386.538 38.5235L388.354 37.9682L392.835 43.9833L392.752 45.1538C392.684 46.0112 392.41 46.3385 391.744 46.5419C391.402 46.6466 391.059 46.7515 390.531 46.7577L391.137 49.4587C391.664 49.4513 392.287 49.3273 393.052 49.0934C394.987 48.5019 395.742 47.368 395.927 44.5123L396.703 32.2018L393.418 33.2063L393.419 33.2072Z" fill="#03D47C"/>
<path fill-rule="evenodd" clip-rule="evenodd" d="M252.145 111.826C251.909 111.055 252.343 110.24 253.113 110.004L255.904 109.151C256.675 108.915 257.49 109.349 257.726 110.12L259.219 115.003C259.455 115.774 259.021 116.59 258.25 116.825L255.46 117.678C254.689 117.914 253.873 117.48 253.638 116.71L252.145 111.826ZM240.344 118.145C240.267 117.892 240.26 117.623 240.324 117.366L241.053 114.432C241.177 113.934 241.553 113.538 242.043 113.389L248.927 111.284C249.698 111.048 250.514 111.482 250.749 112.253L255.015 126.206C255.251 126.977 254.817 127.793 254.047 128.028L247.162 130.133C246.672 130.283 246.139 130.164 245.758 129.821L243.513 127.797C243.316 127.619 243.172 127.392 243.094 127.139L240.344 118.145ZM260.09 107.871C259.32 108.107 258.886 108.922 259.121 109.693L261.254 116.67C261.49 117.44 262.306 117.874 263.076 117.639L265.867 116.785C266.638 116.55 267.072 115.734 266.836 114.963L264.703 107.987C264.467 107.216 263.652 106.782 262.881 107.018L260.09 107.871ZM254.918 120.896C254.682 120.125 255.116 119.309 255.886 119.074L258.677 118.221C259.448 117.985 260.263 118.419 260.499 119.189L261.992 124.073C262.228 124.844 261.794 125.659 261.023 125.895L258.233 126.748C257.462 126.984 256.646 126.55 256.411 125.779L254.918 120.896ZM263.503 119.034C262.732 119.269 262.299 120.085 262.534 120.856L263.387 123.647C263.623 124.417 264.439 124.851 265.209 124.615L268 123.762C268.771 123.526 269.205 122.711 268.969 121.94L268.116 119.149C267.88 118.379 267.064 117.945 266.294 118.181L263.503 119.034Z" fill="#085239"/>
</g>
<rect x="209.864" y="70.0643" width="199.44" height="126.84" rx="12.1729" transform="rotate(-17 209.864 70.0643)" stroke="#002140"/>
</g>
<defs>
<clipPath id="clip0_4278_11918">
<rect width="680" height="220" fill="white"/>
</clipPath>
<clipPath id="clip1_4278_11918">
<rect x="79.8984" y="-119.031" width="198.44" height="125.84" rx="11.6729" transform="rotate(24.6526 79.8984 -119.031)" fill="white"/>
</clipPath>
<clipPath id="clip2_4278_11918">
<rect width="40.8553" height="21.1572" fill="white" transform="translate(174.379 30.8574) rotate(24.6526)"/>
</clipPath>
<clipPath id="clip3_4278_11918">
<rect x="448.08" y="128.915" width="198.44" height="125.84" rx="11.6729" transform="rotate(21.3983 448.08 128.915)" fill="white"/>
</clipPath>
<clipPath id="clip4_4278_11918">
<rect x="210.488" y="70.3962" width="198.44" height="125.84" rx="11.6729" transform="rotate(-17 210.488 70.3962)" fill="white"/>
</clipPath>
<clipPath id="clip5_4278_11918">
<rect width="40.8553" height="21.1572" fill="white" transform="translate(380.701 119.598) rotate(-17)"/>
</clipPath>
</defs>
</svg>
