<svg xmlns="http://www.w3.org/2000/svg" xmlns:xlink="http://www.w3.org/1999/xlink" xml:space="preserve" id="Layer_1" x="0" y="0" viewBox="0 0 680 220"><style>.st0{fill:#085239}.st3{fill:#002e22}.st5{fill:#fff}.st6{fill:none;stroke:#002140}.st7{fill:#e4bc07}.st8{fill:#d18000}.st9{fill:#002140}.st10{fill:none;stroke:#002140;stroke-linecap:round;stroke-linejoin:round}.st12{fill:#03d47c}.st13{fill-rule:evenodd;clip-rule:evenodd;fill:#085239}.st14{fill:#e4bc07;stroke:#002140}.st15{fill:#d18000}.st15,.st16{stroke:#002140}.st16,.st17{fill:#0b1b34}</style><path d="M0 0h680v220H0z" class="st0"/><defs><path id="SVGID_1_" d="M0 0h680v220H0z"/></defs><clipPath id="SVGID_00000069391172932470780140000006074874021756211103_"><use xlink:href="#SVGID_1_" style="overflow:visible"/></clipPath><g style="clip-path:url(#SVGID_00000069391172932470780140000006074874021756211103_)"><defs><path id="SVGID_00000147221856199844963740000000177576277472780707_" d="m90.507-114.162 159.135 73.034c5.859 2.689 8.429 9.619 5.74 15.478L212.63 67.503c-2.689 5.859-9.619 8.429-15.478 5.74L38.018.208c-5.859-2.689-8.429-9.619-5.74-15.478l42.752-93.152c2.689-5.859 9.618-8.429 15.477-5.74"/></defs><clipPath id="SVGID_00000037655424286805565230000016215313491467240350_"><use xlink:href="#SVGID_00000147221856199844963740000000177576277472780707_" style="overflow:visible"/></clipPath><g style="clip-path:url(#SVGID_00000037655424286805565230000016215313491467240350_)"><path d="m90.507-114.162 159.135 73.034c5.859 2.689 8.429 9.619 5.74 15.478L212.63 67.503c-2.689 5.859-9.619 8.429-15.478 5.74L38.018.208c-5.859-2.689-8.429-9.619-5.74-15.478l42.752-93.152c2.689-5.859 9.618-8.429 15.477-5.74" class="st3"/><defs><path id="SVGID_00000081614314595513863490000007015153513627328699_" d="M177.953 28.555h21.158v40.856h-21.158z" transform="rotate(-65.35 188.532 48.983)"/></defs><clipPath id="SVGID_00000121996237950152184740000009290762487159958439_"><use xlink:href="#SVGID_00000081614314595513863490000007015153513627328699_" style="overflow:visible"/></clipPath><path d="m192.614 39.634-7.761 10.402-2.984-1.369 7.762-10.402zm9.138 13.21 3.559-3.611-1.085 4.747zm1.453 5.614 2.76 1.267 2.886-12.64-2.549-1.17a1.495 1.495 0 0 0-1.658.263l-9.382 8.634 3.132 1.438 1.413-1.436 3.828 1.757zm-6.06-7.34c1.41-3.039-2.736-5.145-2.082-6.491.198-.411.795-.669 1.708-.386.455.141 1.651.638 2.706 1.867l1.646-2.206a8.8 8.8 0 0 0-2.556-1.793c-2.949-1.353-5.745-.738-6.793 1.499-.781 1.651.295 3.266 1.172 4.338.903 1.098 1.127 1.64.89 2.144-.363.77-1.439.689-2.303.309-1.512-.664-2.186-1.493-2.732-2.135l-1.7 2.279c.55.64 1.708 1.509 3.038 2.136 3.134 1.44 5.895.832 7.006-1.561m-8.794-13.441-10.129 9.316-3.155-1.448 1.847-10.297c.115-.633.085-.899-.245-1.339-.538-.719-1.555-1.627-2.493-2.332l.224-.303 5.078 2.33c.647.297 1.032.994.836 1.807l-1.807 7.252 6.709-6.426zm-12.592 16.322c-.225.01-.649-.07-1.13-.291-1.115-.512-1.625-1.598-1.027-2.901.57-1.244 1.792-1.692 3.018-1.129.487.223.755.475.858.607l-.32.357a2 2 0 0 0-.717-.527c-.927-.425-1.815-.116-2.292.923-.447.974-.172 1.846.784 2.285.317.145.664.226.915.221zm1.625-.816c-.285.622-.149 1.252.356 1.484.493.226 1.075-.067 1.369-.707.221-.481.257-1.196-.353-1.476-.604-.278-1.127.165-1.372.699m2.261 1.001c-.482 1.05-1.426 1.172-2.106.859-.763-.35-1.103-1.188-.691-2.086.434-.945 1.317-1.214 2.097-.856.816.375 1.096 1.221.7 2.083m1.086-.261c.138-.299.233-.539.329-.779l.452.207-.189.474.018.008c.282-.197.662-.328 1.137-.11a.92.92 0 0 1 .537.935l.011.005c.164-.124.335-.187.493-.221a1.04 1.04 0 0 1 .713.086c.382.175.826.677.374 1.662l-.765 1.667-.505-.232.736-1.602c.253-.551.196-.968-.215-1.157-.3-.137-.622-.023-.829.181a1 1 0 0 0-.16.239l-.805 1.754-.504-.232.781-1.701c.207-.452.156-.866-.237-1.047-.317-.145-.676.002-.877.223a.8.8 0 0 0-.157.234l-.783 1.708-.505-.232zm5.041 2.313c.137-.299.233-.539.329-.779l.452.207-.189.474.017.008c.283-.197.662-.328 1.137-.11a.92.92 0 0 1 .537.935l.012.005c.163-.124.335-.188.492-.221.23-.052.444-.038.714.086.381.175.826.677.373 1.662l-.764 1.666-.505-.231.735-1.602c.254-.551.196-.969-.214-1.157-.3-.137-.623-.023-.83.181a1 1 0 0 0-.159.239l-.805 1.754-.505-.232.781-1.701c.207-.452.156-.866-.237-1.046-.317-.145-.676.002-.877.223a.8.8 0 0 0-.156.233l-.784 1.708-.505-.232zm6.669 3.516c.154-.32.248-.895-.333-1.162-.529-.243-.969.131-1.175.47zm-1.683-.326c-.309.704-.001 1.193.521 1.433.37.17.628.21.853.215l-.075.412c-.22-.001-.583-.047-1.034-.254-.874-.401-1.13-1.222-.737-2.079.393-.856 1.205-1.293 2.032-.913.933.428.803 1.348.563 1.87a1.4 1.4 0 0 1-.128.233zm3.087.657c.153-.334.28-.625.383-.896l.452.207-.236.573.018.008c.305-.322.731-.417 1.078-.258.053.024.091.048.135.076l-.223.487a1 1 0 0 0-.17-.092c-.364-.167-.746-.016-.995.339-.044.065-.09.15-.128.233l-.695 1.513-.516-.237zm3.18 3.705a2.2 2.2 0 0 1-.891-.21c-.857-.393-1.148-1.23-.749-2.099.401-.874 1.293-1.239 2.22-.813.306.14.54.34.646.481l-.297.339a1.4 1.4 0 0 0-.537-.41c-.652-.299-1.227.026-1.496.614-.302.657-.065 1.256.498 1.514.293.135.52.153.696.156zm.705.444 1.304-2.839.516.237-1.303 2.84zm2.244-3.374c-.08.176-.268.261-.473.167-.188-.086-.246-.284-.166-.46a.347.347 0 0 1 .471-.175c.189.086.252.286.168.468m1.438 3.309c-.558-.27-1.243-.464-1.497.088-.156.34-.003.595.255.713a.79.79 0 0 0 .917-.155.7.7 0 0 0 .099-.154zm.146.997a5.4 5.4 0 0 0-.272.699l-.463-.213.123-.377-.018-.008a1.16 1.16 0 0 1-1.062.024c-.575-.264-.682-.804-.494-1.214.315-.686 1.097-.782 2.192-.273l.027-.059c.105-.229.236-.686-.346-.947a1.5 1.5 0 0 0-.843-.13l.042-.4c.302-.039.693.02 1.051.185.869.399.809 1.088.55 1.651zm2.58-3.034.515.237-1.911 4.165-.516-.237z" class="st5" style="clip-path:url(#SVGID_00000121996237950152184740000009290762487159958439_)"/></g><path d="m90.716-114.617 159.135 73.034c6.11 2.804 8.79 10.031 5.986 16.141L213.085 67.71c-2.804 6.11-10.031 8.79-16.141 5.986L37.809.662c-6.11-2.804-8.79-10.031-5.986-16.141l42.752-93.152c2.804-6.11 10.031-8.79 16.141-5.986z" class="st6"/><path d="M178.835 14.614s-9.718 3.614-10.066 17.499 7.867 31.47 20.478 42.114 28.81 19.207 41.999 9.718 2.663-39.107-3.122-44.544c-3.704-5.206-24.297-33.494-49.289-24.787" class="st7"/><path d="m170.705 22.017-7.984 9.833s-4.512 15.041 9.603 36.214 32.744 25.685 41.885 25.222l9.14-5.9s-13.103 2.286-29.346-9.114c-1.721-1.559-10.53-9.242-15.313-16.57-8.617-12.88-10.296-23.603-9.834-31.703.435-1.773 1.227-4.935 1.852-7.985z" class="st8"/><path d="m192.139 60.807-3.355-.463 3.361 4.19s-.816-1.067-.006-3.727m24.675-14.146s-2.892.23-3.933-1.274c0 0 .811 3.586 0 4.744 0 0 3.123 0 4.281 1.389 0 .001-1.156-3.585-.348-4.859" class="st8"/><path d="M190.057 51.09s4.396 6.711 9.718 4.049c5.323-2.662-.81-11.222-.81-11.222s-10.297-5.901-8.908 7.173m12.612 16.89s2.314 2.777 3.122 3.355l6.479-4.049-1.852-4.629-7.752 5.322z" class="st7"/><path d="M186.821 28.236s-2.692-.173-3.123 2.778c-.434 2.95 1.302 7.896.954 9.371-.347 1.475-1.647 4.252-1.216 5.466s2.344 5.207 4.86 6.941c2.515 1.737 4.945 4.687 5.552 5.641.607.955 5.38 7.55 5.641 7.984 0 0 3.646 4.6 5.728 2.602l1.475 3.818 1.216-1.041 1.647 2.602s.435-1.648.435-2.516c0 0 2.515 2.95 3.645 2.864 1.128-.086 4.86-1.909 4.86-3.036s-.607-2.602-.607-2.602 1.216-2.082-1.216-5.641c-2.43-3.557-4.078-5.641-4.078-5.641s2.864-1.561 1.041-3.384-4.252-1.475-4.252-1.475l-4.339-5.38s-3.036-11.369-7.985-12.234c0 0-4.166-7.117-10.238-7.117" class="st8"/><path d="M200.722 50.23c1.429-.619 2-2.476 1.276-4.147s-2.47-2.524-3.898-1.905c-1.429.619-2 2.476-1.276 4.147s2.47 2.524 3.898 1.905m4.666-2.209s-3.818 3.732-5.986 4.511c0 0-.348 2.864 1.302 4.339 1.648 1.475 2.89 2.184 4.253.693s.173-4.511.173-4.511l3.732.086s.086-2.343-.693-3.212c-.782-.868-2.778-1.909-2.778-1.909zm2.63 44.939 7.831-5.558-8.568-2.105-6.782 5.968zm-12.865-4.352 6.256-5.877-6.829-4.211-5.714 6.235z" class="st7"/><path d="M180.573 21.93s8.563-1.967 20.478 6.363 22.677 22.444 24.992 34.94c0 0 3.586 11.222-3.24 16.66 0 0 10.759-.926 8.907-17.24-1.851-16.314-18.048-33.899-31.24-40.725s-19.9 0-19.9 0z" class="st9"/><path d="m161.807 38.886 6.769-7.203s-.503 6.272.941 9.36l-6.559 6.98m4.996 12.985 6.269-6.672-2.862-6.936-6.53 6.57m10.417 18.062 6.227-6.63-4.401-5.427-6.089 6.227zm9.037 9.627 6.005-6.651-5.04-4.519-6.06 6.447z" class="st7"/><path d="M201.322 62.439c2.213 2.411 6.128 4.697 7.904 8.225s-.003 3.912-.003 3.912c.392-.69-1.661-3.617-1.661-3.617.529 2.137-1.098 1.818-1.098 1.818.873-.667-1.37-3.839-1.37-3.839-2.807 3.319-8.545-6.954-11.73-11.361s-5.649-3.892-8.578-8.685c-2.932-4.796-.38-6.162.036-8.628s-3.855-10.343.963-11.879c6.263-2.053 11.151 7.111 11.151 7.111s1.447-.521 4.219 3.225 2.393 6.381 4.001 9.449c-1.103-.719-5.691-9.428-8.926-10.767.432 4.36-7.106 1.914-5.17 8.06 1.26 4.901 5.963 8.34 8.51 11.672s1.216 6.107 1.216 6.107m11.645-5.194s3.206 4.195 3.727 4.872 3.538 4.626 1.443 6.227c-.842.646-2.027.965-3.29-.024" class="st10"/><path d="M209.602 71.159s.785.965 1.397 1.765c.612.803 2.037 3.329 5.73.505 2.181-1.668 2.098-2.681.871-4.284m-3.499-8.855c-.52.105-1.535-.683-1.971-.348s-.296 1.3.007 2.241c0 0-1.498-1.297-2.419-.693-.92.604-.468 2.704-.528 3.044 0 0 3.251 2.987 5.615 1.376 1.221-.934.434-3.167.115-4.488" class="st10"/><path d="M209.457 64.523s4.289-.055 5.009-3.635m-16.125-7.409s.045-.424.497-.675c.455-.248 5.615-3.023 6.316-4.634 0 0 1.271-1.169 3.442 1.668 2.171 2.838 1.138 3.235 1.138 3.235" class="st10"/><path d="M199.229 52.896s-.546 1.394.963 3.368c1.509 1.975 3.4 2.579 4.739 1.556 1.336-1.023 1.412-3.034-.298-5.15 2.788.994 7.621-.16 9.271 2.001 1.085 1.417-.22 2.124-.22 2.124s-1.966 1.407-3.188 2.341c-1.977 1.512-3.308-.11-3.732-.664-.424-.555-1.117-1.883-.447-2.393s1.522.303 1.522.303" class="st10"/><path d="M204.635 52.671s-1.368-1.789-2.134-1.886m-1.288-1.069c1.113-.851 1.097-2.742-.036-4.223-1.132-1.481-2.953-1.992-4.066-1.141s-1.097 2.742.036 4.223 2.954 1.992 4.066 1.141" class="st10"/><path d="M196.236 46.389s-1.206-1.033-1.656-1.08m1.733-.445s-.878-1.088-1.451-1.234m2.386.227s-.819-1.132-1.161-1.457m2.699 1.356s-.508-.785-.636-1.373" class="st10"/><path d="M205.591 48.251c-.547.418-.39 1.567.311 2.738l1.582.186.28 1.776c.633.387 1.227.492 1.588.217.641-.489.316-1.988-.722-3.345s-2.398-2.061-3.039-1.572m-7.039-4.195c-.453.345-.322 1.297.256 2.265l1.308.154.233 1.47c.523.322 1.014.408 1.312.178.531-.405.262-1.645-.596-2.767-.86-1.125-1.985-1.705-2.513-1.3m3.025 7.17c-.568.434-.406 1.627.321 2.843l1.643.194.29 1.844c.657.403 1.271.513 1.648.225.664-.507.329-2.063-.748-3.471-1.078-1.41-2.49-2.139-3.154-1.632z" class="st9"/><path d="M194.175 36.042s-4.773-4.854-8.283-2.757m6.878 4.416s-4.305-3.159-7.114-1.109m3.873 3.198s-2.56-1.658-3.399.254m2.786 4.124s-4.018-.251-3.625 3.455m5.867.986c1.444 1.828.526 5.267.871 6.078m2.282-1.838s1.172 1.352.659 5.262m2.791-1.355s1.344 3.565-.16 4.912" class="st10"/><path d="M231.166 83.631c11.296-9.438 7.941-32.064-7.494-50.537s-37.104-25.797-48.4-16.359-7.94 32.064 7.494 50.537 37.105 25.797 48.4 16.359" class="st10"/><path d="M227.772 77.431c8.148-6.808 4.25-24.898-8.708-40.406s-30.066-22.56-38.214-15.753c-8.148 6.808-4.249 24.898 8.708 40.406s30.066 22.561 38.214 15.753" class="st10"/><path d="M180.203 21.814c8.971-2.105 22.782 4.953 33.662 17.975 12.564 15.035 16.612 32.498 9.42 39.752m-51.131-59.286s-9.546 11.107-9.635 11.944c-2.686 9.488 2.069 27.024 13.43 40.618 11.476 13.733 26.396 21.304 37.94 20.405m10.604-6.189s-9.64 6.101-10.513 6.167" class="st10"/><path d="M211.921 44.417s2.254 2.801.865 5.887c0 0 2.809-1.125 4.988 2.273 0 0-2.456-4.127-.688-6.156 0-.001-2.422 1.589-5.165-2.004m-19.774 20.117c-.393-1.287-.565-2.824.319-3.839 0 0-2.422 1.59-5.166-2.003" class="st10"/><defs><path id="SVGID_00000083793439122012909460000000706218237968540560_" d="m458.948 133.174 163.024 63.883c6.002 2.352 8.962 9.125 6.609 15.127l-37.395 95.429c-2.352 6.002-9.125 8.961-15.127 6.609l-163.024-63.883c-6.002-2.352-8.961-9.125-6.609-15.127l37.395-95.429c2.352-6.002 9.125-8.961 15.127-6.609"/></defs><clipPath id="SVGID_00000147219757778071369470000001397367311429700488_"><use xlink:href="#SVGID_00000083793439122012909460000000706218237968540560_" style="overflow:visible"/></clipPath><g style="clip-path:url(#SVGID_00000147219757778071369470000001397367311429700488_)"><path d="m458.948 133.174 163.024 63.883c6.002 2.352 8.962 9.125 6.609 15.127l-37.395 95.429c-2.352 6.002-9.125 8.961-15.127 6.609l-163.024-63.883c-6.002-2.352-8.961-9.125-6.609-15.127l37.395-95.429c2.352-6.002 9.125-8.961 15.127-6.609" class="st3"/><path d="m535.149 193.46 8.742 3.426 1.011-2.58-5.528-2.166.937-2.392 4.449 1.744 1.035-2.641-4.449-1.744.888-2.266 5.528 2.167 1.011-2.58-8.742-3.425zm23.437-2.018-3.848-1.508-2.2 1.837-.43-2.867-3.955-1.55 1.387 5.962-5.405 3.665 3.848 1.508 2.563-2.012.494 3.21 3.955 1.55-1.478-6.363zm6.155 2.139c-1.062-.416-2.155-.345-3.166.211l.4-1.022-2.949-1.156-5.423 13.838 3.146 1.233 1.902-4.855c.34.813 1.059 1.525 2.081 1.926 2.575 1.009 5.143-.274 6.36-3.381s.304-5.753-2.35-6.793zm-3.669 7.338c-1.18-.462-1.525-1.663-.901-3.256s1.693-2.239 2.873-1.777c1.18.463 1.533 1.644.901 3.256s-1.693 2.239-2.873 1.777m10.533 4.263c-.963-.377-1.475-1.213-1.097-2.697l6.704 2.627.162-.413c1.186-3.027.404-6.009-2.88-7.296-2.319-.909-5.487-.699-6.989 3.134-1.217 3.106.011 5.877 3.117 7.094 1.848.724 4.411.957 6.262-1.628l-3.186-1.248c-.346.476-.975.865-2.095.426zm1.981-5.46c.904.355 1.313 1.105.973 2.263l-3.284-1.287c.722-1.146 1.563-1.269 2.311-.976m12.016 2.034c-1.081-.424-2.229-.329-3.212.328l.447-1.141-2.95-1.155-3.805 9.712 3.145 1.232 2.119-5.406c.508-1.296 1.408-1.624 2.272-1.285.925.362 1.32.971.743 2.445l-2.126 5.425 3.146 1.233 2.218-5.662c1.202-3.066.44-4.771-1.997-5.726m16.795 1.762c-.961-.377-1.925.06-2.278.962-.354.902.048 1.898 1.01 2.275s1.952-.072 2.306-.975c.354-.904-.056-1.878-1.038-2.262m-.138 5.059-3.14-1.23-3.797 9.69 3.139 1.231zm-8.7.791-.716-.486c-.756-.502-.91-.976-.763-1.352.21-.536.797-.704 1.525-.418.924.362 1.298.855.949 1.746l2.71 1.062c.736-2.065.017-3.737-2.992-4.916-2.596-1.017-4.527-.662-5.374 1.5-.668 1.705.177 2.928 2.578 4.557l.717.486c.756.501.9 1.001.752 1.377-.209.535-.775.589-1.6.266-1.082-.424-1.418-1.014-1.205-1.96l-3.067-1.202c-.74 2.41.433 4.219 3.284 5.337s4.934.72 5.781-1.441c.668-1.707-.177-2.929-2.579-4.556m20.985 4.024-4.087 5.232.594-6.601-4.072-1.596.119-.305c.311-.793 1.212-1.356 2.131-.996l.449.176 1.005-2.565-.645-.253c-2.712-.993-5.226.205-6.16 2.587l-.048.123-1.177-.462-1.121 2.861 1.178.461-2.677 6.83 3.14 1.23 2.676-6.83 1.769.693-.225 7.498-.792.866c-.586.629-1.004.715-1.652.461-.333-.13-.667-.261-1.085-.584l-1.203 2.493c.418.321.983.611 1.728.903 1.884.738 3.18.319 5.099-1.804l8.255-9.166-3.199-1.254z" class="st12"/><path d="M454.994 187.258a1.46 1.46 0 0 1 1.89-.827l2.718 1.065a1.46 1.46 0 0 1 .826 1.891l-1.864 4.755a1.46 1.46 0 0 1-1.89.826l-2.718-1.065a1.46 1.46 0 0 1-.826-1.89zm-13.173-2.377a1.45 1.45 0 0 1 .467-.623l2.395-1.847c.406-.313.946-.39 1.423-.203l6.703 2.627c.75.294 1.12 1.14.826 1.89l-5.324 13.586a1.46 1.46 0 0 1-1.89.826l-6.703-2.627a1.46 1.46 0 0 1-.907-1.116l-.502-2.981a1.46 1.46 0 0 1 .08-.775zm21.856 4.212a1.46 1.46 0 0 0-1.891.827l-2.662 6.792a1.46 1.46 0 0 0 .827 1.891l2.717 1.065a1.46 1.46 0 0 0 1.891-.826l2.661-6.793a1.46 1.46 0 0 0-.826-1.891zm-12.144 6.995a1.46 1.46 0 0 1 1.891-.826l2.717 1.065a1.46 1.46 0 0 1 .826 1.891l-1.863 4.755a1.46 1.46 0 0 1-1.891.826l-2.717-1.065a1.46 1.46 0 0 1-.826-1.891zm7.885 3.874a1.46 1.46 0 0 0-1.891.826l-1.064 2.717a1.46 1.46 0 0 0 .826 1.891l2.717 1.064a1.46 1.46 0 0 0 1.891-.826l1.065-2.717a1.46 1.46 0 0 0-.827-1.891z" class="st13"/></g><path d="m459.131 132.708 163.024 63.883c6.259 2.453 9.345 9.516 6.893 15.775l-37.395 95.429c-2.453 6.259-9.516 9.345-15.775 6.893l-163.024-63.883c-6.259-2.453-9.345-9.516-6.893-15.775l37.395-95.429c2.453-6.26 9.515-9.346 15.775-6.893z" class="st6"/><path d="m492.46 69.911-.002-.001c-17.886-6.228-34.229.762-46.833 10.335-12.602 9.572-21.373 21.661-24.051 25.425l-.029.04-.036.034c-2.019 1.898-4.513 5.981-6.819 11.317-2.298 5.317-4.383 11.818-5.612 18.499-1.23 6.685-1.6 13.523-.487 19.527 1.111 6 3.694 11.13 8.34 14.471 9.4 6.763 19.879 7.11 30.319 3.83 10.457-3.284 20.841-10.199 29.961-17.897 18.183-15.347 30.013-40.705 29.513-60.666-.249-9.938-3.846-16.165-7.351-19.906a23 23 0 0 0-4.794-3.918 17 17 0 0 0-1.557-.844 11 11 0 0 0-.536-.236z" class="st14"/><path d="M431.538 176.093a38 38 0 0 1-1.311-.055l11.398 7.357c13.132.612 39.858-5.91 60.153-36.354 10.186-15.28 13.64-28.329 14.555-37.538.457-4.606.28-8.255-.009-10.746a31 31 0 0 0-.454-2.844 18 18 0 0 0-.168-.724l-.037-.142-10.204-12.567c.709 3.259 1.488 6.427 2.03 8.63l.221.899.01.044.003.046c.677 11.85-1.786 27.504-14.343 46.271-6.515 9.979-18.127 20.391-21.657 23.557l-.627.563-.023.021-.025.018c-11.843 8.311-22.553 11.641-30.314 12.89-3.88.623-7.022.727-9.198.674z" class="st15"/><path d="m468.5 145.748.031-.032 16.217-52.705-58.233 51.564 23.546 15.427c4.306-2.005 8.892-5.537 12.442-8.616a105 105 0 0 0 4.411-4.054 79 79 0 0 0 1.586-1.584zm14.452-17.114.207-.288-3.163.436c.285 1.453.05 3.064-.322 4.463.413-.587.848-1.2 1.273-1.798.747-1.053 1.47-2.064 2.005-2.813zm-37.048-14.336c-.813.497-1.769.743-2.582.868-.613.093-1.18.123-1.607.128a5.6 5.6 0 0 1 .162 1.358c.008.79-.097 1.647-.236 2.428-.091.508-.197.99-.298 1.409.87-.481 1.886-.757 2.755-.92.695-.13 1.334-.195 1.798-.227h.001a5.7 5.7 0 0 1-.227-1.279c-.058-.763-.019-1.602.056-2.372.049-.5.113-.977.178-1.393z" class="st15"/><path d="m463.844 112.27-.059.032-.03.042q-.093.135-.263.392c-.224.34-.536.833-.887 1.436-.704 1.208-1.558 2.85-2.173 4.602-.618 1.76-.977 3.584-.743 5.174.23 1.557 1.029 2.91 2.801 3.796 3.61 1.806 6.922.461 9.412-1.437 1.241-.947 2.253-2.014 2.956-2.848a17 17 0 0 0 1.014-1.313l.001-.001c.475-4.622-.088-7.476-1.114-9.189-1.014-1.693-2.523-2.337-4.138-2.445-1.638-.108-3.364.342-4.705.838-.665.246-1.225.499-1.618.69-.196.096-.35.176-.454.231zm-6.693 34.863.187-.22-10.267-7.049-2.298 5.744 8.738 5.46c.236-.204.537-.497.878-.849a54 54 0 0 0 1.487-1.617c.49-.553.943-1.08 1.275-1.469z" class="st14"/><path d="M426.652 163.04q.264.092.505.165c-3.936-4.033-4.892-9.546-4.835-14.153a36 36 0 0 1 .715-6.549c.168-.835.335-1.512.46-1.981q.096-.353.152-.542l.043-.143.006-.021c3.399-18.277 19.094-38.829 36.436-50.949 8.702-6.083 16.197-8.418 21.535-9.226 2.668-.404 4.794-.426 6.26-.346q.245.014.465.03-.174-.119-.371-.244c-1.173-.749-2.939-1.653-5.291-2.257-4.694-1.204-11.782-1.226-21.244 3.671-9.49 4.912-20.09 13.711-28.651 24.234-8.565 10.528-15.045 22.726-16.373 34.422-1.329 11.709 1.873 17.786 5.294 20.945a14 14 0 0 0 4.894 2.944zm17.879-16.295-.011.066a9 9 0 0 0-.112 1.807c.06 1.395.497 2.907 1.901 3.79 2.111.868 3.751.595 4.859.126a5.6 5.6 0 0 0 1.263-.743z" class="st16"/><path d="m517.318 104.634-9.814-10.443s.728 9.093-1.365 13.571c.979 1.039 9.51 10.121 9.51 10.121" class="st17"/><path d="m507.504 94.191-.996.08-.228-2.843 1.953 2.078zm-1.365 13.571-.728.686-.465-.494.287-.615zm10.45-2.443-9.813-10.443 1.457-1.37 9.814 10.443zm-9.085-11.128.997-.079v.003l.001.006.002.022.005.081q.009.107.021.306a56 56 0 0 1 .076 4.796c-.079 2.837-.419 6.416-1.561 8.86l-1.812-.847c.951-2.035 1.295-5.241 1.374-8.07a54 54 0 0 0-.074-4.617l-.018-.287-.006-.073-.001-.017v-.005zm-.637 12.886 5.123 5.451 3.04 3.235.98 1.043.272.29.072.076.018.02.005.005.001.001-.729.685-.729.685v-.001l-.001-.001-.005-.005-.018-.019-.071-.076-.273-.29-.98-1.043-3.04-3.236-5.121-5.449z" class="st9"/><path d="m508.406 136.709-9.089-9.673 4.149-10.057 9.468 9.526" class="st17"/><path d="m499.317 127.036-.729.684-.441-.47.246-.596zm4.149-10.057-.925-.381.574-1.39 1.06 1.067zm4.212 20.415-9.09-9.674 1.458-1.369 9.089 9.673zm-9.285-10.74 4.148-10.056 1.849.763-4.148 10.056zm5.782-10.379 9.468 9.525-1.418 1.41-9.469-9.526z" class="st9"/><path d="m495.216 135.959-5.754 7.097 8.317 8.855 5.576-7.624zm-3.813 23.818-8.106-8.624-6.57 5.891 8.03 8.895zm-22.676 3.853-8.996 5.542 8.319 7.815 8.27-5.072zm-9.247 17.389-8.9-7.833-11.108 2.729 10.28 7.297z" class="st16"/><path d="m449.553 160.015-23.977-15.35 60.364-53.538-17.189 55.445" class="st10"/><path d="M462.855 112.221s15.441-8.191 13.772 8.949" class="st10"/><path d="M476.198 122.296s-6.757 10.556-14.004 5.915c-7.246-4.637 1.324-16.62 1.324-16.62" class="st10"/><path d="m467.229 119.629-.029.585-.573-.121-2.288-.483c-.554 1.245-.84 2.425-.858 3.386-.02 1.069.287 1.746.765 2.052.568.362 1.508.284 2.695-.438 1.156-.702 2.401-1.94 3.437-3.558v-.001c1.035-1.616 1.637-3.266 1.791-4.61.158-1.381-.165-2.266-.729-2.628h-.001c-.396-.254-.97-.295-1.714-.033-.696.246-1.483.742-2.271 1.46z" class="st16"/><path d="m468.673 146.105-25.778-16.502m37.088-19.949-8.657-5.54m-10.417 36.813 4.611-10.864m-14.864 4.424 8.99-9.464m-13.099 14.242 11.694 7.486s-6.492 9.62-12.043 6.067.349-13.553.349-13.553m-2.489 16.835 1.858-2.904m6.507-10.166 2.962-4.626m-2.157 13.329-8.979-5.748m6.692 3.913 3.383-5.283m-7.967 2.348 3.379-5.283" class="st10"/><path d="M416.747 169.875c-16.378-13.684-11.513-46.49 10.866-73.273 22.378-26.784 53.797-37.403 70.175-23.719s11.513 46.49-10.866 73.274-53.797 37.402-70.175 23.718" class="st10"/><path d="M421.665 160.889c-11.814-9.87-6.161-36.1 12.626-58.584s43.593-32.711 55.407-22.84 6.161 36.1-12.626 58.585-43.594 32.71-55.407 22.839" class="st10"/><path d="M490.647 80.259c-13.006-3.052-33.031 7.182-48.806 26.062-18.216 21.8-24.086 47.119-13.658 57.638m74.135-85.964s13.841 16.104 13.969 17.321c3.895 13.758-2.999 39.182-19.471 58.893-16.639 19.911-38.272 30.889-55.01 29.585m-15.377-8.972s13.977 8.846 15.243 8.941" class="st10"/><path d="M448.03 111.451s-3.269 4.061-1.255 8.536c0 0-4.073-1.631-7.232 3.295 0 0 3.561-5.984.998-8.926 0 0 3.511 2.305 7.489-2.905m29.619 25.898s3.621-6.419 1.058-9.362c0 0 3.511 2.306 7.489-2.904" class="st10"/><defs><path id="SVGID_00000085943627110377297630000009045071352476883647_" d="M221.651 66.983 389.094 15.79c6.165-1.885 12.691 1.585 14.576 7.75l29.966 98.016c1.885 6.165-1.585 12.691-7.75 14.576l-167.443 51.193c-6.165 1.885-12.691-1.585-14.576-7.75l-29.966-98.016c-1.885-6.165 1.585-12.691 7.75-14.576"/></defs><clipPath id="SVGID_00000054236472349859972180000005606467681029437853_"><use xlink:href="#SVGID_00000085943627110377297630000009045071352476883647_" style="overflow:visible"/></clipPath><g style="clip-path:url(#SVGID_00000054236472349859972180000005606467681029437853_)"><path d="M221.651 66.983 389.094 15.79c6.165-1.885 12.691 1.585 14.576 7.75l29.966 98.016c1.885 6.165-1.585 12.691-7.75 14.576l-167.443 51.193c-6.165 1.885-12.691-1.585-14.576-7.75l-29.966-98.016c-1.885-6.165 1.585-12.691 7.75-14.576" class="st3"/><defs><path id="SVGID_00000016056923431648427470000015862036179942411675_" d="M382.902 113.151h40.855v21.157h-40.855z" transform="rotate(-17.002 403.33 123.73)"/></defs><clipPath id="SVGID_00000168816627058435337200000010598786624046150027_"><use xlink:href="#SVGID_00000016056923431648427470000015862036179942411675_" style="overflow:visible"/></clipPath><path d="m400.159 114.036 1.115 12.931-3.14.96-1.114-12.931zm15.607 3.798.259-5.063 2.344 4.267zm4.818 3.229 2.904-.887-6.245-11.363-2.681.82a1.49 1.49 0 0 0-1.064 1.299l-1.272 12.687 3.296-1.008.101-2.012 4.028-1.231zm-9.406-1.457c-.967-3.207-5.464-2.025-5.871-3.465-.124-.439.15-1.029 1.02-1.425.433-.196 1.658-.62 3.263-.403l-.236-2.742a8.8 8.8 0 0 0-3.101.36c-3.103.948-4.783 3.266-4.079 5.635.514 1.752 2.391 2.244 3.759 2.462 1.404.22 1.931.477 2.089 1.01.241.817-.617 1.472-1.515 1.762-1.571.508-2.626.337-3.46.22l.244 2.833c.836.113 2.279-.008 3.69-.423 3.297-1.008 4.956-3.298 4.197-5.824m-15.505-4.198-1.377 13.692-3.319 1.015-5.464-8.921c-.335-.55-.534-.728-1.073-.838-.88-.179-2.243-.182-3.413-.085l-.033-.375 5.343-1.634c.681-.208 1.431.057 1.826.795l3.469 6.619.742-9.26zm1.44 20.564c-.162.157-.533.379-1.039.534-1.173.359-2.276-.115-2.695-1.485-.4-1.309.215-2.456 1.505-2.85.512-.157.879-.147 1.044-.117l-.002.48a2 2 0 0 0-.886.082c-.975.298-1.433 1.12-1.099 2.213.314 1.025 1.098 1.494 2.104 1.186.334-.102.646-.272.83-.443zm.671-1.69c.2.654.721 1.035 1.252.872.519-.158.759-.764.553-1.438-.155-.506-.602-1.064-1.244-.868-.636.195-.733.872-.561 1.434m2.355-.754c.338 1.105-.286 1.823-1.003 2.042-.802.245-1.613-.155-1.902-1.099-.304-.995.178-1.783.999-2.034.858-.262 1.629.184 1.906 1.091m.638-.917a15 15 0 0 0-.272-.801l.475-.145.174.479.019-.005c.08-.335.276-.685.777-.838.401-.123.785.03 1.023.342l.012-.004a1.2 1.2 0 0 1 .22-.492c.138-.191.307-.324.591-.41.401-.123 1.067-.044 1.384.993l.536 1.754-.531.162-.516-1.685c-.177-.58-.497-.854-.929-.722-.315.096-.48.396-.499.686 0 .088.01.186.04.285l.564 1.846-.531.162-.547-1.79c-.145-.476-.459-.751-.873-.625-.333.102-.503.451-.507.75a.8.8 0 0 0 .038.278l.55 1.797-.531.162zm5.304-1.622a16 16 0 0 0-.272-.801l.475-.145.174.48.019-.006c.08-.334.276-.685.776-.838a.92.92 0 0 1 1.023.342l.012-.003c.039-.202.126-.363.221-.493.137-.191.306-.323.591-.41.4-.123 1.066-.043 1.383.994l.536 1.753-.53.163-.516-1.686c-.177-.58-.497-.854-.929-.722-.315.097-.48.397-.499.687a1 1 0 0 0 .039.285l.565 1.845-.531.163-.548-1.791c-.145-.475-.459-.75-.872-.624-.334.102-.504.451-.507.749a.8.8 0 0 0 .038.279l.549 1.796-.531.163zm7.32-1.805c-.099-.342-.41-.834-1.022-.647-.556.17-.637.742-.565 1.132zm-1.475.875c.238.731.793.892 1.342.724.39-.119.609-.26.78-.407l.218.359c-.165.145-.466.352-.942.497-.919.281-1.656-.162-1.931-1.064-.276-.901.04-1.767.911-2.033.981-.3 1.495.475 1.663 1.024.034.111.052.193.059.258zm2.744-1.56a15 15 0 0 0-.309-.925l.475-.145.205.585.018-.006c.014-.443.27-.798.635-.909.055-.017.1-.025.151-.033l.156.512c-.059.005-.114.022-.188.044-.383.117-.568.484-.517.915.01.077.032.172.058.259l.487 1.592-.543.166zm4.838.653a2.2 2.2 0 0 1-.805.436c-.902.276-1.676-.157-1.955-1.07-.281-.92.143-1.785 1.118-2.084.322-.098.63-.104.803-.07l.003.452a1.4 1.4 0 0 0-.674.05c-.685.21-.898.835-.709 1.453.211.691.786.981 1.378.8.309-.094.49-.231.624-.346zm.822-.136-.913-2.988.543-.166.914 2.988zm-.566-4.013c.057.185-.027.373-.242.439-.198.061-.373-.048-.43-.233a.346.346 0 0 1 .236-.444.34.34 0 0 1 .436.238m3.274 1.517c-.597.17-1.237.48-1.06 1.06.109.359.393.447.664.364a.79.79 0 0 0 .582-.724.6.6 0 0 0-.028-.181zm.772.649c.079.259.169.509.261.703l-.487.149-.159-.363-.018.005a1.16 1.16 0 0 1-.778.724c-.605.185-1.044-.147-1.176-.579-.22-.722.3-1.313 1.457-1.66l-.019-.062c-.074-.241-.28-.67-.889-.478a1.5 1.5 0 0 0-.715.463l-.235-.327c.199-.23.531-.446.908-.561.914-.279 1.327.276 1.508.868zm-.09-3.982.543-.166 1.34 4.383-.543.166z" class="st5" style="clip-path:url(#SVGID_00000168816627058435337200000010598786624046150027_)"/><path d="m318.816 66.9 8.979-2.745-.81-2.649-5.678 1.736-.751-2.457 4.569-1.397-.829-2.713-4.57 1.397-.711-2.327 5.678-1.736-.81-2.649-8.979 2.745zm17.114-16.138-3.952 1.208-.583 2.806-2.118-1.98-4.062 1.242 4.79 3.811-1.96 6.23 3.953-1.208.759-3.168 2.381 2.208 4.062-1.242-5.11-4.068zm6.153-2.147c-1.091.334-1.903 1.068-2.351 2.132l-.321-1.05-3.029.926 4.345 14.213 3.231-.988-1.524-4.986c.771.427 1.776.538 2.826.217 2.645-.809 3.861-3.409 2.886-6.6s-3.336-4.698-6.062-3.865zm1.682 8.03c-1.212.371-2.228-.356-2.728-1.992s-.064-2.807 1.148-3.177 2.222.336 2.728 1.992.064 2.806-1.148 3.177m10.903-3.202c-.989.302-1.91-.035-2.536-1.432l6.887-2.105-.13-.424c-.951-3.11-3.416-4.96-6.788-3.929-2.383.728-4.735 2.861-3.531 6.797.975 3.19 3.659 4.599 6.849 3.624 1.898-.58 4.051-1.989 3.896-5.165l-3.272 1c.025.588-.227 1.284-1.377 1.636zm-1.839-5.509c.929-.284 1.715.049 2.168 1.169l-3.373 1.031c-.146-1.346.437-1.965 1.205-2.2m10.681-5.87c-1.111.34-1.952 1.127-2.314 2.252l-.358-1.172-3.03.926 3.05 9.975 3.231-.988-1.698-5.552c-.407-1.332.095-2.148.983-2.419.949-.29 1.638-.059 2.1 1.455l1.704 5.572 3.231-.988-1.778-5.815c-.963-3.147-2.618-4.011-5.121-3.246m14.256-9.051c-.987.302-1.471 1.243-1.188 2.169.283.927 1.217 1.457 2.205 1.155s1.485-1.269 1.202-2.197c-.284-.927-1.211-1.435-2.219-1.127m3.034 4.052-3.224.986 3.042 9.953 3.225-.986zm-6.326 6.023-.864.064c-.904.077-1.319-.199-1.437-.586-.168-.55.187-1.046.935-1.275.949-.29 1.549-.136 1.829.779l2.783-.851c-.706-2.076-2.308-2.939-5.399-1.994-2.666.815-3.958 2.293-3.279 4.513.535 1.751 1.957 2.185 4.85 1.97l.864-.064c.904-.077 1.327.225 1.445.612.168.55-.242.943-1.089 1.202-1.111.34-1.741.086-2.162-.787l-3.15.963c.917 2.349 2.96 3.038 5.889 2.142 2.928-.895 4.314-2.5 3.635-4.72-.536-1.753-1.958-2.185-4.851-1.97zm18.945-9.881.046 6.639-3.634-5.542-4.183 1.279-.095-.313c-.25-.815.107-1.816 1.051-2.104l.46-.141-.805-2.634-.662.202c-2.743.907-3.969 3.407-3.221 5.854l.039.126-1.209.37.898 2.938 1.209-.37 2.145 7.015 3.225-.986-2.145-7.015 1.816-.555 4.481 6.015-.083 1.171c-.068.857-.342 1.185-1.008 1.388-.342.105-.685.21-1.213.216l.606 2.701c.527-.007 1.15-.131 1.915-.365 1.935-.591 2.69-1.725 2.875-4.581l.776-12.31-3.285 1.004z" class="st12"/><path d="M240.344 118.145a1.46 1.46 0 0 1-.02-.779l.729-2.934c.124-.498.5-.894.99-1.043l6.884-2.105a1.46 1.46 0 0 1 1.822.969l4.266 13.953a1.46 1.46 0 0 1-.968 1.822l-6.885 2.105a1.46 1.46 0 0 1-1.404-.312l-2.245-2.024a1.47 1.47 0 0 1-.419-.658zm11.801-6.319a1.46 1.46 0 0 1 .968-1.822l2.791-.853a1.46 1.46 0 0 1 1.822.969l1.493 4.883a1.46 1.46 0 0 1-.969 1.822l-2.79.853a1.46 1.46 0 0 1-1.822-.968zm7.945-3.955a1.46 1.46 0 0 0-.969 1.822l2.133 6.977a1.46 1.46 0 0 0 1.822.969l2.791-.854a1.46 1.46 0 0 0 .969-1.822l-2.133-6.976a1.46 1.46 0 0 0-1.822-.969zm-5.172 13.025a1.46 1.46 0 0 1 .968-1.822l2.791-.853a1.46 1.46 0 0 1 1.822.968l1.493 4.884a1.46 1.46 0 0 1-.969 1.822l-2.79.853a1.46 1.46 0 0 1-1.822-.969zm8.585-1.862a1.46 1.46 0 0 0-.969 1.822l.854 2.791a1.46 1.46 0 0 0 1.821.968l2.791-.853a1.46 1.46 0 0 0 .969-1.822l-.853-2.791a1.46 1.46 0 0 0-1.822-.968z" class="st13"/></g><path d="m221.505 66.505 167.443-51.193c6.429-1.966 13.234 1.653 15.2 8.082l29.966 98.016c1.966 6.429-1.653 13.234-8.082 15.2l-167.443 51.193c-6.429 1.966-13.234-1.653-15.2-8.082l-29.966-98.016c-1.966-6.429 1.653-13.234 8.082-15.2z" class="st6"/></g></svg>