<?xml version="1.0" encoding="UTF-8"?>
<svg id="Layer_1" xmlns="http://www.w3.org/2000/svg" xmlns:xlink="http://www.w3.org/1999/xlink" version="1.1" viewBox="0 0 400 220">
  <!-- Generator: Adobe Illustrator 30.2.1, SVG Export Plug-In . SVG Version: 2.1.1 Build 1)  -->
  <defs>
    <style>
      .st0, .st1, .st2, .st3 {
        fill: none;
      }

      .st4 {
        fill: #fff2b2;
      }

      .st5 {
        fill: #002e22;
      }

      .st6 {
        clip-path: url(#clippath-1);
      }

      .st7 {
        clip-path: url(#clippath-2);
      }

      .st8 {
        fill: #fff;
      }

      .st9 {
        fill: #ffed8f;
      }

      .st1, .st2 {
        stroke-linecap: round;
        stroke-linejoin: round;
      }

      .st1, .st3 {
        stroke: #002140;
      }

      .st10 {
        fill: #085239;
      }

      .st11 {
        opacity: .12;
      }

      .st12 {
        fill: #03d47c;
      }

      .st13 {
        fill: #fed607;
      }

      .st2 {
        stroke: #008c59;
        stroke-width: 3px;
      }

      .st14 {
        fill: #e4bc07;
      }

      .st15 {
        fill: #008c59;
      }

      .st16 {
        clip-path: url(#clippath);
      }
    </style>
    <clipPath id="clippath">
      <rect class="st0" width="400" height="220"/>
    </clipPath>
    <clipPath id="clippath-1">
      <rect class="st0" x="-98" y="-92" width="596" height="464"/>
    </clipPath>
    <clipPath id="clippath-2">
      <rect class="st0" x="249.39" y="143.818" width="40.855" height="21.157"/>
    </clipPath>
  </defs>
  <g class="st16">
    <g>
      <rect class="st10" width="400" height="220"/>
      <g class="st6">
        <g class="st11">
          <rect class="st15" x="-98" y="-92" width="596" height="464"/>
          <path class="st10" d="M401.6,620.676l-19.687,36.53c-24.174-14.249-52.027,27.519-76.851,12.893-24.39-14.375-3.039-60.442-27.865-74.53-22.765-13.166-47.687,28.952-75.329,12.696-25.908-15.252-3.7-58.131-29.391-73.259-26.776-15.754-50.398,27.653-75.765,12.983-24.39-14.375-2.608-59.654-28.082-74.655-24.607-14.501-51.376,27.894-75.116,13.896-29.594-17.385-2.391-59.529-30.251-75.91-23.74-13.998-46.493,29.373-74.136,13.117-27.642-16.255-3.483-58.006-29.174-73.133-27.209-16.005-49.528,27.617-74.786,12.741-29.16-17.133-3.589-58.875-29.93-74.378-26.125-15.378-51.699,26.901-75.114,13.359-24.608-14.501-12.171-58.724-23.229-65.119l19.687-36.531c11.057,6.395-1.379,50.619,23.228,65.119,23.306,13.748,48.989-28.737,75.114-13.359,26.342,15.504.77,57.245,29.931,74.378,25.257,14.877,47.577-28.746,74.786-12.741,25.691,15.127,1.531,56.878,29.174,73.134,27.642,16.255,50.179-27.241,74.135-13.117,27.859,16.381.44,58.399,30.251,75.909,23.74,13.998,50.509-28.396,75.116-13.896,25.691,15.127,3.692,60.28,28.083,74.655,25.474,15.002,49.206-28.611,75.764-12.982,25.691,15.127,3.483,58.006,29.391,73.258,27.643,16.256,52.781-25.736,75.329-12.696,24.934,14.42,3.583,60.487,27.866,74.53,24.824,14.626,52.677-27.142,76.851-12.892Z"/>
          <path class="st15" d="M423.91,582.493l-19.686,36.531c-24.174-14.249-52.027,27.519-76.851,12.893-24.39-14.375-3.04-60.442-27.866-74.53-22.765-13.166-47.686,28.952-75.329,12.696-25.908-15.252-3.7-58.131-29.391-73.259-26.775-15.754-50.397,27.653-75.764,12.983-24.391-14.375-2.608-59.654-28.083-74.655-24.607-14.501-51.376,27.894-75.116,13.895-29.594-17.384-2.391-59.528-30.251-75.909-23.74-13.998-46.493,29.373-74.136,13.117-27.643-16.255-3.483-58.006-29.174-73.133-27.209-16.005-49.529,27.617-74.786,12.741-29.161-17.134-3.589-58.875-29.931-74.378-26.125-15.378-51.698,26.901-75.114,13.359-24.607-14.501-12.171-58.724-23.228-65.119l19.686-36.531c11.058,6.395-1.378,50.619,23.229,65.119,23.306,13.748,48.989-28.737,75.114-13.359,26.342,15.503.879,57.039,30.039,74.172,25.258,14.877,47.578-28.746,74.786-12.741,25.691,15.128,1.532,56.878,29.174,73.134,27.426,16.13,50.179-27.241,74.136-13.117,27.859,16.381.44,58.399,30.251,75.909,23.74,13.998,50.509-28.396,75.116-13.896,25.691,15.127,3.692,60.28,28.083,74.655,25.474,15.002,49.206-28.611,75.764-12.982,25.691,15.127,3.483,58.006,29.391,73.258,27.643,16.256,52.781-25.736,75.329-12.696,24.934,14.42,3.583,60.487,27.866,74.53,24.931,14.957,52.567-26.936,76.741-12.687Z"/>
          <path class="st10" d="M446.545,544.22l-19.687,36.531c-24.173-14.25-52.025,27.518-76.849,12.892-24.389-14.374-3.039-60.44-27.865-74.528-22.765-13.166-47.685,28.951-75.327,12.696-25.908-15.253-3.7-58.131-29.391-73.258-26.775-15.754-50.396,27.653-75.763,12.983-24.39-14.375-2.608-59.653-28.082-74.655-24.607-14.499-51.375,27.895-75.115,13.896-29.593-17.383-2.391-59.527-30.25-75.908-23.739-13.998-46.492,29.373-74.134,13.117-27.425-16.13-3.483-58.005-29.174-73.132-27.209-16.004-49.528,27.617-74.785,12.741-29.16-17.133-3.589-58.874-30.039-74.171-26.124-15.377-51.697,26.901-75.113,13.359-24.606-14.5-12.171-58.723-23.228-65.117l19.686-36.531c11.057,6.395-1.378,50.618,23.228,65.118,23.306,13.747,48.989-28.737,75.113-13.359,26.341,15.503.879,57.038,30.039,74.171,25.257,14.876,47.576-28.745,74.785-12.741,25.691,15.127,1.532,56.877,29.174,73.132,27.425,16.13,50.178-27.241,74.134-13.117,27.859,16.381.44,58.399,30.25,75.908,23.739,13.999,50.507-28.396,75.114-13.896,25.691,15.127,3.692,60.28,28.082,74.654,25.474,15.002,49.205-28.61,75.763-12.982,25.691,15.127,3.483,58.005,29.391,73.257,27.642,16.256,52.779-25.736,75.327-12.696,24.933,14.42,3.583,60.486,27.866,74.529,24.714,14.831,52.566-26.936,76.849-12.893Z"/>
          <path class="st15" d="M468.855,506.037l-19.686,36.531c-24.173-14.25-52.025,27.518-76.849,12.892-24.39-14.374-3.04-60.44-27.865-74.528-22.765-13.166-47.686,28.951-75.328,12.696-25.907-15.253-3.699-58.131-29.39-73.258-26.775-15.754-50.397,27.653-75.763,12.983-24.39-14.375-2.608-59.653-28.082-74.654-24.607-14.5-51.375,27.894-75.115,13.895-29.593-17.383-2.391-59.527-30.25-75.908-23.739-13.998-46.492,29.373-74.134,13.117-27.425-16.13-3.483-58.005-29.174-73.132-27.208-16.004-49.527,27.617-74.784,12.741-29.16-17.133-3.589-58.874-30.039-74.171-26.125-15.377-51.698,26.901-75.113,13.359-24.607-14.5-12.171-58.723-23.228-65.117l19.686-36.531c11.057,6.395-1.379,50.618,23.228,65.118,23.306,13.747,48.988-28.737,75.113-13.359,26.341,15.503.879,57.038,30.039,74.171,25.257,14.876,47.576-28.745,74.784-12.741,25.691,15.127,1.532,56.877,29.174,73.132,27.425,16.13,50.178-27.241,74.134-13.117,27.859,16.381.44,58.399,30.25,75.908,23.74,13.999,50.508-28.396,75.115-13.896,25.69,15.127,3.692,60.28,28.082,74.655,25.474,15.001,49.205-28.611,75.763-12.983,25.691,15.127,3.483,58.005,29.39,73.257,27.642,16.256,52.78-25.736,75.328-12.695,24.933,14.419,3.583,60.485,27.865,74.528,24.824,14.625,52.676-27.142,76.849-12.893Z"/>
          <path class="st10" d="M491.165,467.855l-19.686,36.53c-24.173-14.249-52.026,27.518-76.849,12.893-24.39-14.375-3.04-60.441-27.865-74.529-22.765-13.166-47.686,28.951-75.328,12.696-25.907-15.252-3.7-58.131-29.39-73.257-26.775-15.754-50.397,27.652-75.763,12.982-24.39-14.375-2.609-59.653-28.082-74.654-24.607-14.5-51.375,27.894-75.115,13.896-29.593-17.384-2.391-59.528-30.25-75.908-23.739-13.999-46.492,29.372-74.134,13.117-27.425-16.13-3.483-58.006-29.174-73.132-27.208-16.005-49.527,27.616-74.784,12.74-29.16-17.133-3.589-58.873-30.04-74.17-26.124-15.378-51.697,26.9-75.112,13.358-24.607-14.5-12.171-58.723-23.228-65.117l19.686-36.53c11.057,6.395-1.379,50.617,23.228,65.117,23.306,13.748,48.879-28.53,75.113-13.359,26.341,15.503.879,57.038,30.039,74.171,25.257,14.876,47.576-28.745,74.784-12.741,25.691,15.127,1.532,56.877,29.174,73.133,27.425,16.129,50.178-27.241,74.134-13.117,27.859,16.38.44,58.398,30.25,75.908,23.74,13.998,50.508-28.396,75.115-13.896,25.69,15.127,3.692,60.279,28.082,74.654,25.474,15.001,49.095-28.405,75.763-12.983,25.69,15.127,3.483,58.006,29.39,73.258,27.642,16.255,52.78-25.736,75.328-12.696,24.933,14.419,3.583,60.485,27.865,74.529,24.824,14.625,52.676-27.142,76.849-12.893Z"/>
          <path class="st15" d="M513.476,429.672l-19.686,36.53c-24.173-14.249-52.025,27.518-76.849,12.893-24.39-14.375-3.04-60.441-27.865-74.529-22.765-13.166-47.686,28.951-75.328,12.696-25.907-15.252-3.7-58.131-29.39-73.258-26.775-15.753-50.397,27.653-75.763,12.983-24.39-14.375-2.608-59.653-28.082-74.654-24.607-14.5-51.375,27.894-75.115,13.896-29.593-17.384-2.391-59.528-30.25-75.908-23.74-13.999-46.492,29.372-74.134,13.117-27.425-16.13-3.483-58.006-29.174-73.132-27.208-16.005-49.527,27.616-74.784,12.74-29.16-17.133-3.589-58.873-30.039-74.171-26.125-15.378-51.698,26.9-75.113,13.358-24.607-14.5-12.171-58.722-23.228-65.117l19.686-36.53c11.057,6.395-1.379,50.617,23.228,65.117,23.306,13.748,48.988-28.736,75.113-13.359,26.341,15.503.77,57.244,29.929,74.377,25.257,14.876,47.576-28.745,74.785-12.741,25.691,15.127,1.532,56.877,29.174,73.132,27.425,16.13,50.178-27.24,74.134-13.117,27.859,16.381.44,58.399,30.25,75.908,23.739,13.999,50.508-28.395,75.114-13.895,25.691,15.126,3.693,60.279,28.083,74.654,25.473,15.001,49.205-28.611,75.763-12.983,25.69,15.127,3.483,58.005,29.39,73.258,27.642,16.255,52.78-25.736,75.328-12.696,24.932,14.419,3.582,60.485,27.865,74.528,25.149,14.545,53.002-27.222,76.958-13.098Z"/>
          <path class="st10" d="M536.017,391.611l-19.687,36.531c-24.173-14.249-52.026,27.519-76.85,12.893-24.39-14.375-3.04-60.442-27.866-74.53-22.765-13.166-47.686,28.952-75.329,12.696-25.908-15.252-3.7-58.131-29.391-73.259-26.775-15.754-50.397,27.653-75.764,12.983-24.391-14.375-2.609-59.654-28.083-74.656-24.607-14.5-51.376,27.895-75.116,13.897-29.594-17.385-2.391-59.529-30.251-75.91-23.74-13.998-46.493,29.373-74.135,13.117-27.426-16.13-3.483-58.006-29.174-73.133-27.209-16.005-49.528,27.617-74.786,12.741-29.16-17.133-3.589-58.875-29.931-74.378-26.125-15.378-51.698,26.901-75.114,13.359-24.607-14.5-12.171-58.724-23.228-65.118l19.686-36.531c11.057,6.395-1.378,50.618,23.229,65.119,23.306,13.748,48.989-28.737,75.114-13.359,26.342,15.503.77,57.245,29.93,74.378,25.258,14.877,47.577-28.746,74.786-12.741,25.691,15.127,1.532,56.878,29.174,73.134,27.426,16.13,50.179-27.242,74.136-13.117,27.859,16.381.44,58.399,30.25,75.909,23.74,13.998,50.509-28.396,75.117-13.896,25.691,15.127,3.692,60.28,28.082,74.655,25.474,15.002,49.206-28.611,75.765-12.982,25.691,15.127,3.483,58.006,29.391,73.258,27.642,16.256,52.78-25.736,75.329-12.696,24.933,14.42,3.583,60.487,27.865,74.53,24.824,14.626,52.677-27.142,76.851-12.893Z"/>
          <path class="st15" d="M558.451,353.212l-19.686,36.531c-24.174-14.249-52.027,27.519-76.851,12.893-24.39-14.375-3.04-60.442-27.866-74.53-22.765-13.166-47.686,28.952-75.329,12.696-25.908-15.252-3.7-58.131-29.391-73.259-26.775-15.754-50.397,27.653-75.764,12.983-24.391-14.375-2.608-59.654-28.083-74.655-24.607-14.501-51.376,27.894-75.116,13.895-29.594-17.384-2.391-59.528-30.251-75.909-23.74-13.998-46.493,29.373-74.135,13.117-27.426-16.13-3.483-58.006-29.174-73.133-27.209-16.005-49.528,27.617-74.786,12.741-29.16-17.133-3.589-58.875-29.93-74.378-26.124-15.378-51.698,26.901-75.114,13.359-24.607-14.5-12.171-58.724-23.228-65.118l19.686-36.531c11.058,6.395-1.378,50.618,23.229,65.118,23.306,13.748,48.989-28.737,75.114-13.359,26.342,15.503.77,57.245,29.93,74.378,25.258,14.876,47.577-28.746,74.786-12.741,25.691,15.127,1.532,56.878,29.174,73.134,27.426,16.13,50.179-27.242,74.136-13.118,27.859,16.382.44,58.4,30.251,75.91,23.74,13.998,50.508-28.396,75.116-13.896,25.691,15.127,3.692,60.28,28.082,74.655,25.475,15.002,49.206-28.611,75.765-12.982,25.691,15.127,3.483,58.006,29.391,73.258,27.642,16.256,52.78-25.736,75.329-12.696,24.933,14.42,3.583,60.487,27.866,74.53,24.714,14.832,52.567-26.936,76.85-12.893Z"/>
          <path class="st10" d="M580.762,315.03l-19.687,36.53c-24.173-14.249-52.026,27.519-76.85,12.893-24.391-14.375-3.04-60.442-27.866-74.53-22.765-13.166-47.687,28.952-75.329,12.696-25.908-15.252-3.7-58.131-29.391-73.259-26.776-15.754-50.398,27.653-75.765,12.983-24.39-14.375-2.608-59.654-28.082-74.655-24.608-14.501-51.376,27.894-75.116,13.896-29.594-17.385-2.392-59.529-30.251-75.91-23.74-13.998-46.493,29.373-74.136,13.117-27.426-16.13-3.483-58.006-29.174-73.133-27.209-16.005-49.528,27.617-74.786,12.741C-64.831,41.266-39.259-.476-65.601-15.979c-26.125-15.378-51.699,26.901-75.114,13.359-24.607-14.5-12.171-58.724-23.229-65.118l19.687-36.531c11.057,6.395-1.379,50.619,23.228,65.119,23.307,13.748,48.99-28.737,75.114-13.359,26.342,15.503.879,57.039,30.04,74.172C9.383,36.539,31.702-7.083,58.911,8.921c25.691,15.127,1.532,56.878,29.174,73.133,27.426,16.13,50.179-27.241,74.136-13.117,27.859,16.381.44,58.399,30.251,75.909,23.739,13.999,50.508-28.396,75.116-13.896,25.691,15.127,3.692,60.28,28.082,74.655,25.475,15.002,49.206-28.611,75.765-12.982,25.691,15.127,3.483,58.006,29.391,73.258,27.533,16.462,52.454-25.655,75.219-12.49,24.934,14.42,3.583,60.487,27.866,74.53,24.824,14.626,52.568-26.936,76.851-12.892Z"/>
          <path class="st15" d="M603.058,276.848l-19.686,36.53c-24.173-14.249-52.026,27.518-76.849,12.893-24.39-14.375-3.04-60.441-27.865-74.529-22.765-13.165-47.686,28.951-75.328,12.696-25.908-15.252-3.7-58.131-29.391-73.257-26.774-15.754-50.396,27.652-75.763,12.982-24.39-14.374-2.608-59.653-28.082-74.654-24.606-14.5-51.375,27.894-75.114,13.896-29.594-17.384-2.392-59.527-30.25-75.908-23.74-13.998-46.492,29.372-74.134,13.117-27.425-16.13-3.483-58.005-29.174-73.132C34.213-8.523,11.894,35.099-13.363,20.223c-29.16-17.133-3.589-58.874-30.039-74.171-26.124-15.378-51.697,26.9-75.113,13.359-24.606-14.5-12.17-58.723-23.228-65.117l19.686-36.53c11.058,6.395-1.378,50.617,23.229,65.117,23.306,13.748,48.988-28.736,75.113-13.359,26.341,15.503.879,57.038,30.039,74.171C31.58-1.432,53.899-45.053,81.108-29.048c25.691,15.127,1.532,56.877,29.174,73.132,27.642,16.255,50.177-27.241,74.134-13.117,27.859,16.381.44,58.399,30.25,75.908,23.739,13.998,50.508-28.396,75.114-13.896,25.691,15.127,3.693,60.279,28.082,74.654,25.474,15.001,49.205-28.611,75.763-12.982,25.691,15.126,3.484,58.005,29.391,73.257,27.642,16.255,52.78-25.736,75.328-12.696,24.932,14.419,3.582,60.485,27.865,74.529,25.04,14.75,52.893-27.017,76.849-12.893Z"/>
          <path class="st10" d="M625.583,238.789l-19.686,36.53c-24.173-14.249-52.025,27.518-76.849,12.893-24.39-14.375-3.04-60.441-27.865-74.529-22.765-13.165-47.686,28.951-75.328,12.696-25.907-15.252-3.7-58.131-29.39-73.257-26.775-15.754-50.397,27.652-75.763,12.982-24.39-14.375-2.608-59.653-28.082-74.654-24.607-14.5-51.375,27.894-75.115,13.896-29.593-17.384-2.391-59.528-30.25-75.908-23.74-13.998-46.492,29.372-74.134,13.117-27.642-16.255-3.483-58.005-29.174-73.132C56.739-46.582,34.42-2.96,9.163-17.837c-29.16-17.133-3.589-58.874-30.039-74.171-26.124-15.378-51.697,26.9-75.113,13.359-24.607-14.5-12.171-58.722-23.228-65.117l19.686-36.53c11.057,6.394-1.379,50.617,23.228,65.117,23.306,13.748,48.988-28.736,75.113-13.358,26.341,15.503.879,57.037,30.039,74.17,25.257,14.876,47.576-28.745,74.784-12.741,25.691,15.127,1.532,56.877,29.174,73.132,27.425,16.13,50.178-27.241,74.134-13.117,27.859,16.381.44,58.399,30.25,75.908,23.74,13.998,50.508-28.396,75.115-13.896,25.691,15.127,3.692,60.279,28.082,74.654,25.474,15.001,49.205-28.611,75.763-12.983,25.691,15.127,3.483,58.006,29.39,73.258,27.642,16.255,52.78-25.736,75.328-12.696,24.933,14.419,3.583,60.485,27.865,74.529,24.824,14.625,52.676-27.142,76.849-12.893Z"/>
          <path class="st15" d="M647.894,200.606l-19.686,36.53c-24.173-14.249-52.026,27.518-76.849,12.893-24.39-14.375-3.04-60.441-27.865-74.529-22.765-13.165-47.686,28.952-75.328,12.696-25.907-15.252-3.7-58.13-29.39-73.257-26.775-15.754-50.397,27.652-75.763,12.982-24.39-14.374-2.608-59.652-28.082-74.654-24.607-14.5-51.375,27.894-75.115,13.896-29.593-17.384-2.391-59.527-30.25-75.908-23.74-13.998-46.492,29.372-74.134,13.117-27.425-16.13-3.483-58.005-29.174-73.132-27.208-16.005-49.527,27.617-74.784,12.741-29.16-17.133-3.589-58.874-30.039-74.171-26.124-15.378-51.697,26.9-75.113,13.359-24.607-14.5-12.171-58.723-23.228-65.118l19.686-36.53c11.057,6.395-1.379,50.617,23.228,65.117,23.306,13.748,48.879-28.53,75.113-13.358,26.341,15.503.879,57.037,30.039,74.171,25.257,14.876,47.576-28.745,74.784-12.741,25.691,15.127,1.532,56.876,29.174,73.132,27.642,16.255,50.178-27.241,74.134-13.117,27.859,16.381.44,58.399,30.25,75.908,23.74,13.998,50.508-28.396,75.115-13.896,25.69,15.127,3.692,60.28,28.082,74.654,25.474,15.002,49.095-28.405,75.763-12.982,25.69,15.127,3.483,58.005,29.39,73.257,27.642,16.255,52.78-25.736,75.328-12.696,24.933,14.419,3.583,60.486,27.865,74.529,24.824,14.625,52.676-27.142,76.849-12.893Z"/>
          <path class="st10" d="M670.329,162.208l-19.686,36.53c-24.173-14.249-52.026,27.518-76.849,12.893-24.39-14.375-3.04-60.441-27.866-74.529-22.764-13.166-47.685,28.951-75.327,12.696-25.908-15.252-3.7-58.131-29.391-73.258-26.774-15.754-50.396,27.653-75.763,12.983-24.39-14.375-2.608-59.653-28.082-74.654-24.606-14.5-51.375,27.894-75.114,13.896-29.594-17.384-2.392-59.527-30.25-75.908-23.74-13.998-46.492,29.372-74.134,13.117-27.642-16.255-3.484-58.005-29.174-73.132-27.209-16.005-49.528,27.617-74.785,12.74-29.16-17.133-3.589-58.873-30.039-74.17-26.124-15.378-51.697,26.9-75.113,13.358-24.607-14.5-12.171-58.722-23.228-65.117l19.686-36.53c11.057,6.394-1.379,50.617,23.228,65.117,23.306,13.748,48.988-28.736,75.113-13.359,26.341,15.503.77,57.244,29.93,74.377,25.257,14.876,47.576-28.745,74.784-12.741,25.691,15.127,1.532,56.877,29.174,73.132,27.425,16.13,50.178-27.241,74.134-13.117,27.859,16.381.44,58.399,30.25,75.908,23.74,13.998,50.508-28.396,75.115-13.896,25.691,15.127,3.692,60.28,28.082,74.654,25.474,15.002,49.205-28.611,75.763-12.982,25.691,15.127,3.483,58.005,29.391,73.258,27.642,16.255,52.779-25.736,75.327-12.696,24.933,14.419,3.583,60.485,27.865,74.528,24.824,14.626,52.676-27.141,76.959-13.098Z"/>
          <path class="st15" d="M692.655,124.023l-19.687,36.531c-24.173-14.25-52.026,27.518-76.85,12.892-24.391-14.374-3.04-60.441-27.866-74.53-22.765-13.166-47.686,28.951-75.329,12.697-25.908-15.253-3.7-58.132-29.391-73.259-26.776-15.754-50.398,27.653-75.765,12.982-24.39-14.375-2.608-59.653-28.082-74.655-24.607-14.5-51.376,27.895-75.116,13.896-29.594-17.384-2.392-59.528-30.251-75.909-23.74-13.999-46.493,29.373-74.135,13.117-27.426-16.13-3.484-58.006-29.175-73.134-27.209-16.004-49.528,27.618-74.786,12.741-29.16-17.133-3.589-58.874-29.93-74.378-26.125-15.378-51.698,26.901-75.114,13.359-24.607-14.5-12.171-58.724-23.229-65.118l19.687-36.531c11.057,6.395-1.379,50.618,23.229,65.118,23.306,13.748,48.989-28.736,75.114-13.358,26.342,15.503.77,57.244,29.93,74.378,25.257,14.876,47.577-28.746,74.786-12.741,25.691,15.127,1.532,56.877,29.174,73.133,27.426,16.13,50.179-27.241,74.136-13.117,27.859,16.381.44,58.4,30.25,75.909,23.74,13.999,50.509-28.396,75.116-13.896,25.691,15.127,3.692,60.281,28.083,74.655,25.474,15.002,49.206-28.611,75.764-12.983,25.692,15.127,3.483,58.006,29.391,73.259,27.643,16.256,52.781-25.737,75.329-12.696,24.934,14.42,3.583,60.486,27.866,74.53,25.041,14.751,52.785-26.811,76.851-12.893Z"/>
          <path class="st10" d="M715.179,85.965l-19.686,36.53c-24.174-14.249-52.027,27.519-76.851,12.893-24.39-14.375-3.04-60.441-27.866-74.53-22.765-13.166-47.686,28.952-75.329,12.696-25.908-15.252-3.7-58.131-29.391-73.259-26.775-15.754-50.397,27.653-75.764,12.983-24.391-14.375-2.608-59.654-28.083-74.655-24.607-14.5-51.376,27.895-75.116,13.896-29.594-17.384-2.391-59.529-30.251-75.91-23.739-13.998-46.492,29.373-74.135,13.117-27.426-16.13-3.483-58.006-29.174-73.133-27.209-16.005-49.529,27.617-74.786,12.741-29.16-17.133-3.589-58.875-29.93-74.378-26.125-15.378-51.698,26.901-75.114,13.359-24.607-14.501-12.171-58.724-23.229-65.119l19.686-36.531c11.057,6.395-1.379,50.619,23.229,65.119,23.306,13.748,48.989-28.737,75.114-13.359,26.342,15.504.77,57.245,29.93,74.378,25.258,14.877,47.577-28.745,74.786-12.741,25.691,15.128,1.532,56.878,29.174,73.134,27.643,16.255,50.179-27.241,74.136-13.117,27.859,16.381.44,58.399,30.251,75.909,23.74,13.999,50.509-28.396,75.116-13.896,25.691,15.127,3.692,60.28,28.082,74.655,25.475,15.002,49.206-28.611,75.765-12.982,25.691,15.127,3.483,58.006,29.391,73.259,27.642,16.256,52.78-25.736,75.329-12.696,24.933,14.42,3.583,60.486,27.866,74.53,24.824,14.626,52.677-27.142,76.85-12.893Z"/>
          <path class="st15" d="M737.49,47.782l-19.687,36.531c-24.173-14.249-52.026,27.518-76.85,12.893-24.391-14.375-3.04-60.442-27.866-74.53-22.765-13.166-47.686,28.952-75.329,12.696-25.908-15.252-3.7-58.131-29.391-73.259-26.775-15.754-50.398,27.653-75.765,12.982-24.39-14.375-2.608-59.653-28.082-74.655-24.607-14.5-51.376,27.895-75.116,13.896-29.594-17.384-2.392-59.528-30.251-75.909-23.74-13.999-46.493,29.372-74.135,13.117-27.643-16.256-3.484-58.006-29.175-73.134-27.209-16.005-49.528,27.618-74.786,12.741-29.16-17.133-3.588-58.874-29.93-74.378-26.125-15.378-51.698,26.901-75.114,13.359-24.607-14.5-12.171-58.724-23.229-65.119l19.686-36.53c11.057,6.394-1.378,50.618,23.229,65.118,23.306,13.748,48.989-28.736,75.114-13.359,26.342,15.504.88,57.039,30.04,74.173,25.258,14.876,47.577-28.746,74.786-12.741,25.691,15.127,1.532,56.877,29.174,73.133,27.426,16.13,50.179-27.241,74.136-13.117,27.859,16.381.44,58.4,30.251,75.909,23.74,13.999,50.508-28.396,75.116-13.896,25.691,15.127,3.692,60.281,28.082,74.656,25.475,15.002,49.206-28.611,75.765-12.983,25.691,15.127,3.483,58.006,29.391,73.259,27.642,16.256,52.78-25.736,75.329-12.696,24.933,14.42,3.583,60.487,27.865,74.53,24.715,14.832,52.568-26.936,76.742-12.687Z"/>
          <path class="st10" d="M759.786,9.599l-19.686,36.53c-24.173-14.249-52.026,27.518-76.849,12.893-24.39-14.375-3.04-60.441-27.866-74.529-22.764-13.165-47.685,28.951-75.327,12.696-25.908-15.252-3.7-58.131-29.391-73.257-26.774-15.754-50.396,27.653-75.763,12.982-24.39-14.375-2.608-59.652-28.082-74.654-24.606-14.5-51.375,27.895-75.114,13.896-29.594-17.384-2.392-59.527-30.25-75.908-23.74-13.998-46.492,29.372-74.134,13.117-27.426-16.13-3.484-58.005-29.174-73.132-27.209-16.005-49.528,27.617-74.785,12.741-29.159-17.133-3.588-58.874-30.039-74.171-26.124-15.378-51.697,26.9-75.112,13.359-24.607-14.5-12.171-58.723-23.228-65.118l19.686-36.53c11.057,6.395-1.379,50.618,23.228,65.117,23.306,13.748,48.988-28.736,75.112-13.358,26.341,15.503.88,57.038,30.039,74.171,25.258,14.876,47.576-28.746,74.785-12.741,25.691,15.127,1.532,56.877,29.174,73.132,27.425,16.13,50.177-27.241,74.134-13.117,27.859,16.381.44,58.399,30.25,75.908,23.739,13.998,50.508-28.396,75.114-13.896,25.691,15.127,3.692,60.28,28.082,74.654,25.474,15.001,49.205-28.611,75.763-12.982,25.691,15.127,3.484,58.005,29.391,73.257,27.642,16.255,52.78-25.736,75.328-12.696,24.933,14.419,3.582,60.485,27.865,74.529,25.04,14.751,52.676-27.142,76.849-12.893Z"/>
          <path class="st15" d="M786.297-35.101l-23.092,42.935c-24.188-14.258-52.059,27.529-76.897,12.895-24.405-14.383-3.041-60.472-27.881-74.568-22.779-13.174-47.716,28.964-75.375,12.698-25.923-15.261-3.7-58.16-29.407-73.296-26.791-15.763-50.428,27.664-75.81,12.985-24.405-14.383-2.608-59.683-28.098-74.694-24.621-14.509-51.407,27.906-75.161,13.899-29.611-17.394-2.391-59.558-30.267-75.948-23.754-14.007-46.522,29.385-74.181,13.119-27.441-16.139-3.483-58.035-29.19-73.171-27.225-16.014-49.558,27.629-74.831,12.744-29.177-17.144-3.589-58.904-30.056-74.211-26.14-15.386-51.73,26.912-75.159,13.362-24.622-14.509-12.177-58.753-23.241-65.152l23.202-43.141c11.064,6.399-1.381,50.643,23.241,65.152,23.32,13.756,49.02-28.748,75.16-13.361,26.357,15.512.878,57.067,30.056,74.21,25.272,14.885,47.606-28.757,74.831-12.743,25.706,15.136,1.531,56.906,29.19,73.171,27.442,16.139,50.21-27.252,74.181-13.12,27.875,16.391.438,58.429,30.267,75.948,23.753,14.007,50.539-28.407,75.161-13.899,25.706,15.136,3.693,60.311,28.098,74.694,25.489,15.011,49.236-28.623,75.81-12.985,25.706,15.136,3.484,58.035,29.407,73.297,27.659,16.265,52.813-25.747,75.375-12.698,24.948,14.428,3.583,60.517,27.88,74.568,24.729,14.84,52.6-26.947,76.788-12.689Z"/>
          <path class="st2" d="M37.206-409.497c11.019,6.372-1.365,50.465,23.156,64.913,23.225,13.698,48.808-28.666,74.842-13.344,26.249,15.447.885,56.865,29.943,73.936,25.169,14.823,47.401-28.675,74.515-12.728,25.601,15.073,1.536,56.704,29.081,72.901,27.33,16.072,49.994-27.175,73.867-13.102,27.762,16.321.448,58.222,30.154,75.668,23.657,13.948,50.323-28.327,74.844-13.88,25.601,15.073,3.688,60.096,27.993,74.419,25.386,14.947,49.025-28.541,75.49-12.969,25.601,15.072,3.48,57.829,29.298,73.026,27.545,16.197,52.586-25.676,75.055-12.683,24.846,14.367,3.58,60.301,27.778,74.294,24.737,14.573,52.483-27.078,76.572-12.88"/>
          <path class="st2" d="M63.704-454.443c11.019,6.371-1.365,50.465,23.156,64.912,23.225,13.698,48.808-28.666,74.842-13.344,26.249,15.448.885,56.865,29.943,73.937,25.169,14.822,47.402-28.675,74.515-12.728,25.601,15.072,1.536,56.704,29.081,72.901,27.33,16.072,49.994-27.176,73.867-13.103,27.762,16.322.448,58.222,30.154,75.668,23.657,13.948,50.323-28.327,74.844-13.879,25.601,15.072,3.688,60.096,27.993,74.419,25.386,14.947,49.025-28.541,75.49-12.969,25.601,15.072,3.48,57.828,29.298,73.025,27.545,16.197,52.586-25.676,75.055-12.683,24.846,14.367,3.58,60.301,27.778,74.294,24.737,14.573,52.483-27.078,76.572-12.88"/>
          <path class="st2" d="M14.896-371.314c11.019,6.372-1.365,50.465,23.156,64.913,23.225,13.698,48.808-28.666,74.842-13.344,26.249,15.447.886,56.865,29.944,73.936,25.169,14.822,47.401-28.675,74.515-12.728,25.601,15.073,1.535,56.704,29.081,72.901,27.329,16.072,49.994-27.175,73.866-13.102,27.762,16.321.448,58.222,30.155,75.668,23.656,13.948,50.322-28.327,74.843-13.88,25.601,15.073,3.689,60.096,27.994,74.419,25.385,14.948,49.024-28.541,75.49-12.969,25.601,15.072,3.48,57.828,29.297,73.026,27.546,16.197,52.586-25.676,75.056-12.683,24.846,14.367,3.579,60.301,27.777,74.294,24.737,14.573,52.483-27.078,76.572-12.88"/>
          <path class="st2" d="M-7.429-333.13c11.019,6.372-1.365,50.465,23.156,64.914,23.225,13.698,48.809-28.667,74.843-13.344,26.25,15.447.776,57.071,29.835,74.143,25.17,14.822,47.402-28.675,74.517-12.728,25.601,15.073,1.535,56.705,29.081,72.902,27.547,16.197,49.995-27.176,73.869-13.103,27.762,16.322.447,58.223,30.154,75.67,23.657,13.948,50.324-28.328,74.845-13.879,25.602,15.073,3.689,60.097,27.994,74.42,25.386,14.948,49.026-28.541,75.492-12.969,25.602,15.073,3.48,57.83,29.298,73.027,27.546,16.197,52.587-25.677,75.057-12.683,24.847,14.368,3.58,60.302,27.778,74.295,24.738,14.572,52.484-27.078,76.574-12.88"/>
          <path class="st2" d="M-29.74-294.948c11.019,6.372-1.365,50.466,23.156,64.914,23.225,13.698,48.809-28.667,74.843-13.344,26.25,15.447.776,57.071,29.835,74.143,25.17,14.822,47.402-28.675,74.516-12.728,25.602,15.073,1.535,56.705,29.082,72.902,27.33,16.072,49.995-27.176,73.868-13.103,27.762,16.322.448,58.224,30.155,75.67,23.657,13.948,50.323-28.328,74.845-13.88,25.601,15.073,3.688,60.097,27.994,74.42,25.385,14.948,49.025-28.542,75.491-12.969,25.602,15.073,3.48,57.83,29.298,73.027,27.546,16.197,52.588-25.677,75.057-12.683,24.847,14.368,3.58,60.303,27.779,74.296,24.737,14.573,52.484-27.079,76.573-12.88"/>
          <path class="st2" d="M-52.265-256.889c11.019,6.372-1.365,50.466,23.156,64.914,23.225,13.698,48.809-28.667,74.843-13.344,26.25,15.447.777,57.071,29.835,74.143,25.17,14.823,47.402-28.675,74.517-12.728,25.601,15.073,1.535,56.705,29.081,72.902,27.331,16.072,49.995-27.176,73.869-13.103,27.762,16.322.447,58.223,30.154,75.669,23.658,13.948,50.324-28.327,74.845-13.879,25.602,15.073,3.689,60.097,27.994,74.42,25.386,14.948,49.026-28.541,75.492-12.969,25.602,15.073,3.48,57.83,29.298,73.027,27.546,16.197,52.587-25.677,75.057-12.683,24.847,14.367,3.58,60.302,27.778,74.295,24.738,14.573,52.485-27.078,76.574-12.88"/>
          <path class="st2" d="M-74.685-218.491c11.019,6.372-1.365,50.465,23.156,64.912,23.225,13.699,48.699-28.46,74.842-13.343,26.249,15.447.886,56.865,29.944,73.936,25.169,14.822,47.401-28.675,74.514-12.728,25.602,15.073,1.536,56.704,29.082,72.901,27.545,16.197,49.993-27.175,73.866-13.103,27.762,16.322.448,58.222,30.154,75.668,23.657,13.948,50.323-28.327,74.844-13.879,25.601,15.072,3.689,60.096,27.994,74.419,25.385,14.947,48.915-28.336,75.489-12.969,25.602,15.072,3.48,57.828,29.298,73.026,27.545,16.196,52.586-25.676,75.056-12.683,24.846,14.367,3.579,60.301,27.777,74.293,24.737,14.573,52.483-27.077,76.572-12.88"/>
          <path class="st2" d="M-96.996-180.308c11.019,6.371-1.365,50.465,23.156,64.912,23.225,13.698,48.808-28.666,74.842-13.343,26.249,15.447.886,56.865,29.944,73.936,25.169,14.822,47.401-28.675,74.515-12.728,25.601,15.072,1.536,56.704,29.081,72.901,27.33,16.072,49.994-27.176,73.867-13.103,27.762,16.322.448,58.222,30.154,75.668,23.657,13.948,50.323-28.327,74.844-13.879,25.601,15.072,3.688,60.096,27.993,74.419,25.385,14.947,49.025-28.541,75.49-12.969,25.601,15.072,3.48,57.828,29.297,73.026,27.546,16.196,52.587-25.677,75.056-12.684,24.846,14.368,3.58,60.302,27.778,74.294,24.737,14.573,52.483-27.078,76.572-12.88"/>
          <path class="st2" d="M-119.522-142.249c11.018,6.372-1.366,50.465,23.155,64.912,23.225,13.698,48.808-28.666,74.842-13.344,26.249,15.447.885,56.865,29.944,73.936,25.169,14.822,47.401-28.675,74.515-12.728,25.602,15.072,1.536,56.704,29.081,72.901,27.546,16.197,49.994-27.175,73.866-13.103,27.762,16.322.448,58.222,30.155,75.668,23.656,13.948,50.322-28.327,74.843-13.879,25.601,15.072,3.689,60.096,27.994,74.419,25.385,14.947,49.024-28.541,75.49-12.969,25.601,15.072,3.48,57.828,29.297,73.026,27.546,16.196,52.586-25.677,75.056-12.684,24.846,14.368,3.579,60.302,27.777,74.294,24.737,14.573,52.483-27.078,76.572-12.88"/>
          <path class="st2" d="M-141.833-104.066c11.019,6.371-1.365,50.465,23.156,64.912,23.225,13.698,48.808-28.666,74.842-13.344,26.249,15.447.885,56.865,29.944,73.936C11.277,36.261,33.509-7.236,60.623,8.711c25.601,15.072,1.535,56.704,29.081,72.901,27.33,16.072,49.994-27.175,73.867-13.103,27.762,16.322.448,58.222,30.154,75.668,23.657,13.948,50.323-28.327,74.844-13.879,25.601,15.072,3.688,60.096,27.993,74.419,25.385,14.947,49.025-28.541,75.49-12.969,25.601,15.072,3.48,57.828,29.297,73.026,27.546,16.196,52.371-25.802,75.056-12.684,24.846,14.368,3.58,60.302,27.778,74.294,24.737,14.573,52.483-27.078,76.572-12.88"/>
          <path class="st2" d="M-164.157-65.882c11.018,6.372-1.366,50.466,23.156,64.914,23.225,13.698,48.809-28.666,74.843-13.344,26.25,15.448.777,57.071,29.835,74.143,25.17,14.823,47.402-28.675,74.516-12.728,25.602,15.073,1.535,56.705,29.082,72.902,27.33,16.072,49.995-27.176,73.868-13.103,27.763,16.322.448,58.223,30.155,75.67,23.657,13.948,50.324-28.328,74.845-13.88,25.602,15.073,3.689,60.097,27.994,74.42,25.386,14.948,49.026-28.541,75.492-12.969,25.602,15.073,3.48,57.83,29.298,73.027,27.546,16.197,52.587-25.676,75.057-12.683,24.847,14.368,3.58,60.302,27.778,74.295,24.738,14.573,52.484-27.078,76.574-12.88"/>
          <path class="st2" d="M-186.468-27.7c11.019,6.372-1.365,50.466,23.156,64.914,23.225,13.698,48.809-28.666,74.843-13.344,26.25,15.448.777,57.071,29.835,74.143,25.17,14.823,47.402-28.675,74.516-12.728,25.602,15.073,1.536,56.706,29.082,72.903,27.33,16.072,49.995-27.176,73.868-13.103,27.762,16.322.448,58.223,30.155,75.669,23.657,13.949,50.323-28.327,74.845-13.879,25.602,15.073,3.688,60.097,27.994,74.42,25.386,14.948,49.025-28.541,75.491-12.969,25.602,15.073,3.48,57.83,29.298,73.027,27.546,16.197,52.588-25.676,75.058-12.683,24.846,14.368,3.579,60.302,27.778,74.295,24.737,14.573,52.484-27.078,76.573-12.88"/>
          <path class="st2" d="M-209.117,10.574c11.018,6.372-1.366,50.466,23.156,64.914,23.225,13.698,48.809-28.667,74.843-13.344,26.25,15.448.776,57.071,29.835,74.143,25.17,14.823,47.402-28.675,74.516-12.728,25.602,15.073,1.536,56.705,29.082,72.902,27.33,16.072,49.995-27.176,73.868-13.102,27.762,16.322.448,58.223,30.154,75.669,23.657,13.948,50.324-28.327,74.845-13.879,25.602,15.072,3.689,60.097,27.994,74.42,25.386,14.947,49.026-28.542,75.492-12.969,25.602,15.072,3.48,57.829,29.298,73.027,27.546,16.197,52.587-25.677,75.057-12.683,24.847,14.367,3.58,60.302,27.778,74.295,24.738,14.573,52.484-27.078,76.574-12.88"/>
          <path class="st2" d="M-231.413,48.758c11.018,6.372-1.366,50.465,23.155,64.912,23.225,13.698,48.7-28.461,74.842-13.344,26.249,15.447.885,56.865,29.943,73.937,25.17,14.822,47.402-28.675,74.515-12.728,25.601,15.072,1.536,56.704,29.081,72.901,27.33,16.071,49.994-27.176,73.867-13.103,27.762,16.322.448,58.222,30.154,75.668,23.657,13.948,50.323-28.327,74.844-13.879,25.601,15.072,3.688,60.096,27.993,74.418,25.386,14.948,48.916-28.335,75.49-12.969,25.601,15.073,3.48,57.829,29.298,73.026,27.545,16.197,52.586-25.676,75.056-12.683,24.845,14.367,3.579,60.301,27.777,74.294,24.737,14.572,52.483-27.078,76.572-12.88"/>
          <path class="st2" d="M-253.725,86.94c11.019,6.372-1.365,50.465,23.156,64.912,23.224,13.698,48.808-28.666,74.841-13.344,26.25,15.447.886,56.865,29.944,73.936,25.169,14.823,47.401-28.674,74.515-12.727,25.601,15.072,1.536,56.704,29.081,72.901,27.33,16.071,49.994-27.176,73.867-13.103,27.762,16.322.448,58.222,30.154,75.668,23.657,13.948,50.323-28.327,74.844-13.879,25.601,15.072,3.688,60.096,27.993,74.418,25.385,14.948,49.024-28.541,75.49-12.969,25.601,15.073,3.48,57.829,29.297,73.026,27.546,16.197,52.587-25.676,75.056-12.683,24.846,14.367,3.58,60.301,27.778,74.294,24.737,14.572,52.483-27.078,76.572-12.88"/>
          <path class="st2" d="M-276.035,125.123c11.019,6.372-1.365,50.465,23.156,64.913,23.224,13.698,48.808-28.666,74.841-13.344,26.25,15.447.886,56.865,29.944,73.936,25.169,14.823,47.401-28.674,74.515-12.728,25.601,15.073,1.535,56.705,29.081,72.901,27.33,16.072,49.994-27.175,73.867-13.102,27.762,16.321.448,58.222,30.154,75.668,23.657,13.948,50.323-28.327,74.844-13.88,25.601,15.073,3.688,60.096,27.993,74.419,25.385,14.948,49.025-28.541,75.49-12.969,25.601,15.073,3.48,57.829,29.297,73.026,27.546,16.197,52.587-25.676,75.056-12.683,24.846,14.367,3.58,60.301,27.778,74.294,24.737,14.572,52.483-27.078,76.572-12.88"/>
          <path class="st2" d="M-298.561,163.182c11.019,6.372-1.365,50.465,23.156,64.913,23.225,13.698,48.808-28.666,74.842-13.344,26.249,15.447.885,56.865,29.943,73.936,25.169,14.823,47.401-28.674,74.515-12.727,25.601,15.072,1.535,56.704,29.081,72.9,27.33,16.072,49.994-27.175,73.867-13.102,27.762,16.322.448,58.222,30.154,75.668,23.657,13.948,50.323-28.327,74.844-13.879,25.601,15.072,3.688,60.096,27.993,74.418,25.385,14.948,49.025-28.541,75.49-12.969,25.601,15.073,3.48,57.829,29.297,73.026,27.546,16.197,52.587-25.676,75.056-12.683,24.846,14.367,3.58,60.301,27.778,74.294,24.737,14.572,52.483-27.078,76.572-12.88"/>
          <path class="st2" d="M-321.01,201.582c11.019,6.371-1.365,50.465,23.157,64.913,23.225,13.699,48.809-28.666,74.843-13.344,26.25,15.448.776,57.072,29.835,74.143,25.17,14.823,47.402-28.675,74.516-12.727,25.602,15.072,1.536,56.705,29.082,72.902,27.546,16.197,49.995-27.176,73.868-13.103,27.762,16.322.448,58.223,30.155,75.67,23.657,13.948,50.324-28.328,74.845-13.88,25.602,15.073,3.689,60.097,27.994,74.42,25.386,14.948,49.026-28.541,75.492-12.969,25.601,15.073,3.48,57.83,29.298,73.027,27.546,16.198,52.587-25.676,75.057-12.683,24.847,14.368,3.58,60.302,27.778,74.295,24.738,14.573,52.484-27.078,76.574-12.88"/>
          <path class="st2" d="M66.922-454.123l-26.515,44.926-22.303,38.171-22.303,38.171-22.303,38.171-22.549,38.041-22.426,38.386-22.303,38.17-22.549,38.041-22.303,38.171-22.302,38.171-22.303,38.171-22.673,38.256-22.303,38.171-22.303,38.171-22.302,38.171-22.55,38.041-22.426,38.386-22.303,38.171-22.302,38.171"/>
          <path class="st2" d="M786.019-38.837l-26.513,44.926-22.301,38.17-22.301,38.17-22.548,38.041-22.3,38.171-22.425,38.385-22.301,38.171-22.548,38.041-22.301,38.17-22.301,38.171-22.425,38.385-22.548,38.041-22.301,38.171-22.301,38.17-22.3,38.171-22.672,38.255-22.301,38.171-22.301,38.17-22.548,38.041"/>
        </g>
      </g>
      <rect class="st5" x="100.5" y="46.5" width="199.44" height="126.84" rx="12.173" ry="12.173"/>
      <rect class="st3" x="100.5" y="46.5" width="199.44" height="126.84" rx="12.173" ry="12.173"/>
      <g class="st7">
        <g>
          <path class="st8" d="M269.624,144.188l-2.715,12.691h-3.283l2.715-12.691h3.283ZM283.439,152.383l1.728-4.767.994,4.767h-2.722ZM287.102,156.879h3.036l-2.649-12.691h-2.804c-.629,0-1.162.366-1.398.931l-4.925,11.76h3.446l.686-1.894h4.212l.396,1.894ZM278.533,152.736c.013-3.35-4.633-3.535-4.601-5.031.009-.456.444-.94,1.392-1.064.472-.061,1.767-.109,3.238.569l.576-2.691c-.789-.288-1.807-.563-3.071-.563-3.244,0-5.529,1.725-5.548,4.196-.021,1.826,1.63,2.845,2.875,3.453,1.279.622,1.707,1.021,1.703,1.577-.009.852-1.021,1.227-1.964,1.242-1.652.027-2.61-.445-3.374-.801l-.595,2.781c.767.352,2.182.659,3.653.674,3.447,0,5.704-1.705,5.716-4.342ZM264.933,144.188l-5.32,12.691h-3.471l-2.617-10.129c-.16-.623-.297-.852-.781-1.115-.789-.428-2.092-.83-3.239-1.079l.078-.368h5.587c.712,0,1.353.473,1.514,1.293l1.383,7.345,3.416-8.638h3.45Z"/>
          <path class="st8" d="M260.297,164.274c-.2.103-.62.207-1.149.207-1.227,0-2.143-.775-2.143-2.208,0-1.368.923-2.285,2.272-2.285.536,0,.884.116,1.033.193l-.142.459c-.207-.104-.51-.181-.871-.181-1.02,0-1.698.652-1.698,1.795,0,1.071.613,1.749,1.665,1.749.349,0,.697-.071.923-.181l.11.452Z"/>
          <path class="st8" d="M261.434,162.855c0,.683.387,1.2.942,1.2.542,0,.949-.51.949-1.214,0-.529-.265-1.194-.936-1.194-.665,0-.955.62-.955,1.208ZM263.906,162.822c0,1.156-.807,1.659-1.556,1.659-.839,0-1.497-.62-1.497-1.607,0-1.04.69-1.653,1.549-1.653.897,0,1.504.652,1.504,1.601Z"/>
          <path class="st8" d="M264.784,162.131c0-.329-.013-.587-.026-.845h.497l.026.509h.02c.174-.296.464-.574.987-.574.42,0,.743.258.879.626h.012c.097-.181.227-.31.356-.406.187-.143.387-.22.684-.22.419,0,1.033.271,1.033,1.355v1.834h-.555v-1.762c0-.607-.226-.962-.678-.962-.33,0-.575.238-.678.51-.026.084-.045.181-.045.284v1.93h-.555v-1.872c0-.497-.22-.852-.652-.852-.349,0-.614.284-.704.568-.033.078-.045.181-.045.277v1.879h-.555v-2.279h-.001Z"/>
          <path class="st8" d="M270.331,162.131c0-.329-.013-.587-.026-.845h.497l.026.509h.019c.174-.296.465-.574.988-.574.419,0,.742.258.878.626h.012c.097-.181.227-.31.356-.406.187-.143.387-.22.684-.22.419,0,1.033.271,1.033,1.355v1.834h-.555v-1.762c0-.607-.226-.962-.678-.962-.329,0-.575.238-.678.51-.026.084-.045.181-.045.284v1.93h-.556v-1.872c0-.497-.219-.852-.651-.852-.349,0-.614.284-.704.568-.033.078-.045.181-.045.277v1.879h-.555v-2.279Z"/>
          <path class="st8" d="M277.859,162.545c.006-.356-.149-.917-.788-.917-.582,0-.827.523-.872.917h1.66ZM276.193,162.951c.013.769.497,1.085,1.071,1.085.408,0,.658-.072.865-.161l.103.406c-.2.091-.549.2-1.045.2-.962,0-1.537-.639-1.537-1.582s.556-1.678,1.466-1.678c1.026,0,1.292.891,1.292,1.465,0,.117-.007.201-.02.265h-2.195Z"/>
          <path class="st8" d="M279.272,162.26c0-.368-.006-.684-.025-.974h.497l.025.619h.019c.143-.42.491-.684.873-.684.058,0,.103.006.154.013v.535c-.058-.012-.115-.012-.193-.012-.4,0-.684.297-.762.723-.013.077-.02.174-.02.265v1.665h-.568v-2.15Z"/>
          <path class="st8" d="M283.708,164.3c-.149.071-.478.181-.897.181-.943,0-1.557-.639-1.557-1.595,0-.962.659-1.665,1.679-1.665.336,0,.633.084.788.168l-.129.432c-.136-.071-.349-.148-.659-.148-.717,0-1.104.535-1.104,1.181,0,.723.466,1.169,1.085,1.169.323,0,.536-.078.697-.149l.097.426Z"/>
          <path class="st8" d="M284.535,164.41v-3.124h.568v3.124h-.568ZM285.167,160.407c0,.194-.135.349-.361.349-.207,0-.343-.155-.343-.349,0-.193.143-.355.356-.355.207,0,.348.155.348.355Z"/>
          <path class="st8" d="M287.853,162.815c-.62-.012-1.323.098-1.323.704,0,.375.245.543.529.543.413,0,.678-.259.768-.524.02-.064.026-.129.026-.18v-.543ZM288.402,163.661c0,.271.013.536.045.749h-.51l-.045-.394h-.02c-.174.246-.51.465-.955.465-.633,0-.956-.445-.956-.897,0-.755.671-1.169,1.879-1.163v-.064c0-.252-.072-.723-.71-.717-.298,0-.6.085-.82.233l-.129-.381c.258-.161.639-.271,1.033-.271.955,0,1.188.652,1.188,1.272v1.168h0Z"/>
          <path class="st8" d="M289.48,159.827h.568v4.583h-.568v-4.583Z"/>
        </g>
      </g>
      <path class="st12" d="M205.617,75.329h9.389v-2.77h-5.938v-2.569h4.779v-2.837h-4.779v-2.434h5.938v-2.77h-9.389v13.38Z"/>
      <path class="st12" d="M226.702,64.899h-4.134l-1.377,2.513-1.447-2.513h-4.248l3.467,5.045-3.696,5.385h4.133l1.653-2.808,1.631,2.808h4.248l-3.698-5.385,3.468-5.045Z"/>
      <path class="st12" d="M233.213,64.645c-1.141,0-2.132.464-2.871,1.351v-1.098h-3.168v14.862h3.379v-5.214c.612.633,1.541,1.034,2.639,1.034,2.766,0,4.689-2.132,4.689-5.468s-1.816-5.468-4.667-5.468h-.001ZM232.474,72.816c-1.267,0-2.027-.992-2.027-2.703s.76-2.703,2.027-2.703,2.027.972,2.027,2.703-.76,2.703-2.027,2.703Z"/>
      <path class="st12" d="M243.837,72.942c-1.035,0-1.817-.592-2.006-2.111h7.2v-.444c0-3.252-1.816-5.742-5.343-5.742-2.491,0-5.364,1.351-5.364,5.468,0,3.336,2.155,5.468,5.491,5.468,1.985,0,4.455-.718,5.236-3.8h-3.422c-.148.57-.592,1.161-1.795,1.161h.003ZM243.688,67.136c.972,0,1.627.549,1.732,1.752h-3.527c.254-1.331.993-1.752,1.795-1.752Z"/>
      <path class="st12" d="M255.619,64.645c-1.162,0-2.196.507-2.872,1.478v-1.225h-3.167v10.431h3.378v-5.806c0-1.393.718-2.026,1.647-2.026.993,0,1.583.423,1.583,2.006v5.827h3.379v-6.08c0-3.293-1.331-4.603-3.948-4.603Z"/>
      <path class="st12" d="M271.899,60.158c-1.033,0-1.771.758-1.771,1.727s.738,1.749,1.771,1.749,1.791-.779,1.791-1.749-.737-1.727-1.791-1.727Z"/>
      <path class="st12" d="M273.616,64.919h-3.372v10.408h3.372v-10.408Z"/>
      <path class="st12" d="M265.804,68.829l-.844-.191c-.887-.191-1.203-.576-1.203-.981,0-.575.485-.946,1.267-.946.992,0,1.521.323,1.521,1.28h2.91c-.068-2.192-1.348-3.486-4.58-3.486-2.787,0-4.455,1.035-4.455,3.357,0,1.831,1.233,2.662,4.063,3.302l.844.191c.887.191,1.203.604,1.203,1.008,0,.575-.507.831-1.393.831-1.162,0-1.69-.427-1.837-1.385h-3.294c.19,2.514,1.942,3.771,5.005,3.771s4.856-1.129,4.856-3.451c0-1.833-1.233-2.662-4.063-3.302h0Z"/>
      <path class="st12" d="M286.811,64.92l-1.897,6.363-1.855-6.363h-4.374v-.328c0-.852.634-1.705,1.621-1.705h.481v-2.755h-.692c-2.888.065-4.791,2.098-4.791,4.656v.131h-1.265v3.072h1.265v7.336h3.372v-7.336h1.899l2.527,7.062-.422,1.095c-.316.8-.674,1.033-1.37,1.033-.357,0-.716,0-1.222-.148l-.211,2.76c.506.147,1.138.211,1.938.211,2.023,0,3.077-.864,4.089-3.54l4.342-11.546h-3.436.001Z"/>
      <path class="st10" d="M125.805,97.34c.806,0,1.459.653,1.459,1.459v14.59c0,.806-.653,1.46-1.459,1.46h-7.199c-.513,0-.987-.269-1.251-.709l-1.556-2.592c-.136-.227-.208-.487-.208-.751v-9.406c0-.264.072-.524.208-.751l1.556-2.592c.264-.439.739-.708,1.251-.708h7.199ZM133.101,106.824c.806,0,1.459.653,1.459,1.459v5.106c0,.806-.653,1.46-1.459,1.46h-2.919c-.806,0-1.459-.654-1.459-1.46v-5.106c0-.806.653-1.459,1.459-1.459h2.919ZM140.396,109.013c.806,0,1.459.653,1.459,1.459v2.917c0,.806-.653,1.46-1.459,1.46h-2.918c-.806,0-1.459-.654-1.459-1.46v-2.917c0-.806.653-1.459,1.459-1.459h2.918ZM140.396,97.34c.806,0,1.459.653,1.459,1.459v7.296c0,.805-.653,1.459-1.459,1.459h-2.918c-.806,0-1.459-.654-1.459-1.459v-7.296c0-.806.653-1.459,1.459-1.459h2.918ZM133.101,97.34c.806,0,1.459.653,1.459,1.459v5.106c0,.806-.653,1.46-1.459,1.46h-2.919c-.806,0-1.459-.654-1.459-1.46v-5.106c0-.806.653-1.459,1.459-1.459h2.919Z"/>
      <path class="st14" d="M122.341,133.157l-3.028-.909-2.724-2.876-8.632,3.027-6.662-6.206-6.661,6.055-8.48-3.179s-1.966,2.875-3.179,3.179c-1.213.303-3.179,1.061-3.179,1.061,0,0-4.392,44.062,20.747,43.759,25.134-.304,23.016-38.007,21.803-43.911h-.004Z"/>
      <path class="st13" d="M85.093,130.58s-3.179,40.883,15.596,41.035c14.839.151,16.81-25.59,17.261-29.223.454-3.634,0-10.751,0-10.751l-1.365-2.269-8.632,3.027-6.661-6.206-6.662,6.055-8.481-3.179-1.061,1.515.004-.004Z"/>
      <path class="st9" d="M101.296,163.387c6.411,0,11.609-6.101,11.609-13.627s-5.198-13.626-11.609-13.626-11.609,6.101-11.609,13.626,5.198,13.627,11.609,13.627Z"/>
      <path class="st13" d="M103.716,145.625l-2.118-3.937-1.212.501-2.422,4.039-4.645.707.202,1.314,2.724,2.825-.101,4.746.808,1.01,4.341-1.718,3.735,1.617,1.31-.707-.304-4.847,2.931-3.432-.404-1.111-4.847-1.007Z"/>
      <path class="st9" d="M111.355,131.022c-.29,1.306.396,2.662,1.369,3.58.973.917,2.198,1.503,3.352,2.177,1.153.673,2.295,1.494,2.897,2.686.678,1.339.577,2.927.922,4.388.345,1.461,1.524,2.994,3.011,2.775l-.565-13.475s-3.179-.758-3.886-1.667c-.708-.91-1.87-2.118-1.87-2.118l-5.234,1.65.004.004Z"/>
      <path class="st9" d="M80.6,153.285c-.084-2.253,4.535.366,5.794,2.236,1.259,1.869,1.663,4.164,2.329,6.316.96,3.108,2.649,6.165,5.445,7.824,1.423.846,3.158,1.364,4.072,2.741.943,1.423.699,3.297.421,4.986,0,0-17.252-3.02-18.056-24.103h-.004Z"/>
      <path class="st4" d="M90.267,144.16c-.796,1.899,4.076-.177,5.706-1.436.91-.703,1.743-1.499,2.484-2.375,1.175-1.385,2.148-2.985,3.626-4.042,0,0-7.904-1.482-11.816,7.853h0Z"/>
      <path class="st1" d="M79.791,133.107s-4.645,44.011,21.601,44.011"/>
      <path class="st1" d="M122.683,133.107s4.644,44.011-21.602,44.011"/>
      <path class="st1" d="M79.791,133.107c2.99,0,4.796-2.102,5.596-3.327.316-.488.947-.669,1.482-.442l7.011,2.935c.446.185.96.088,1.31-.244l6.03-5.832"/>
      <path class="st1" d="M122.796,133.107c-2.99,0-4.796-2.102-5.596-3.327-.316-.488-.948-.669-1.482-.442l-7.011,2.935c-.447.185-.96.088-1.31-.244l-6.03-5.832"/>
      <path class="st1" d="M84.941,130.883s-2.994,41.014,15.992,41.014,17.168-40.563,17.168-40.563"/>
      <path class="st1" d="M100.908,163.286c6.631,0,12.005-6.118,12.005-13.665s-5.374-13.664-12.005-13.664-12.005,6.118-12.005,13.664,5.375,13.665,12.005,13.665Z"/>
      <path class="st1" d="M102.024,142.059l1.705,3.453c.144.29.421.492.741.539l3.811.551c.805.118,1.129,1.108.543,1.676l-2.758,2.687c-.231.227-.336.551-.282.867l.653,3.794c.139.804-.703,1.415-1.423,1.036l-3.407-1.79c-.286-.151-.627-.151-.914,0l-3.406,1.79c-.72.379-1.562-.232-1.423-1.036l.653-3.794c.055-.32-.051-.644-.282-.867l-2.758-2.687c-.581-.568-.261-1.558.543-1.676l3.811-.551c.32-.047.598-.249.741-.539l1.706-3.453c.362-.729,1.402-.729,1.76,0h-.013Z"/>
    </g>
  </g>
</svg>