<?xml version="1.0" encoding="UTF-8"?>
<svg id="Layer_1" xmlns="http://www.w3.org/2000/svg" version="1.1" viewBox="0 0 235 153">
  <!-- Generator: Adobe Illustrator 29.0.1, SVG Export Plug-In . SVG Version: 2.1.0 Build 192)  -->
  <defs>
    <style>
      .st0 {
        fill: #fff;
      }

      .st1 {
        fill: #0f5ba7;
      }

      .st2 {
        fill: #0676de;
        fill-rule: evenodd;
      }
    </style>
  </defs>
  <rect class="st1" x="0" width="235" height="153" rx="16" ry="16"/>
  <path class="st2" d="M17.28,62.521c0-.313.085-.62.246-.889l2.706-4.51c.312-.521.875-.839,1.482-.839h12.269c.954,0,1.728.774,1.728,1.728v24.191c0,.954-.774,1.728-1.728,1.728h-12.269c-.607,0-1.169-.318-1.482-.839l-2.706-4.51c-.161-.269-.246-.576-.246-.889v-15.17ZM38.015,58.011c0-.954.774-1.728,1.728-1.728h5.76c.954,0,1.728.774,1.728,1.728v9.216c0,.954-.774,1.728-1.728,1.728h-5.76c-.954,0-1.728-.774-1.728-1.728v-9.216ZM51.263,56.283c-.954,0-1.728.774-1.728,1.728v12.671c0,.954.774,1.728,1.728,1.728h5.76c.954,0,1.728-.774,1.728-1.728v-12.671c0-.954-.774-1.728-1.728-1.728h-5.76ZM38.015,72.987c0-.954.774-1.728,1.728-1.728h5.76c.954,0,1.728.774,1.728,1.728v9.216c0,.954-.774,1.728-1.728,1.728h-5.76c-.954,0-1.728-.774-1.728-1.728v-9.216ZM51.263,74.715c-.954,0-1.728.774-1.728,1.728v5.76c0,.954.774,1.728,1.728,1.728h5.76c.954,0,1.728-.774,1.728-1.728v-5.76c0-.954-.774-1.728-1.728-1.728h-5.76Z"/>
  <path class="st0" d="M187.187,17.752c-.915,0-1.654.739-1.654,1.653v11.637h30.727l-14.004-13.29h-15.069Z"/>
  <path class="st0" d="M217.376,34.562c0-.914-.739-1.653-1.653-1.653h-11.624v30.727l13.277-14.004v-15.069Z"/>
  <path class="st0" d="M200.562,64.749c.914,0,1.653-.739,1.653-1.666v-11.624h-30.727l13.992,13.29h15.082Z"/>
  <path class="st0" d="M170.375,47.941c0,.914.739,1.666,1.666,1.666h11.624v-30.739l-13.29,14.004v15.069Z"/>
</svg>