<?xml version="1.0" encoding="UTF-8"?>
<svg id="Layer_1" xmlns="http://www.w3.org/2000/svg" version="1.1" viewBox="0 0 235 153">
  <!-- Generator: Adobe Illustrator 29.0.1, SVG Export Plug-In . SVG Version: 2.1.0 Build 192)  -->
  <defs>
    <style>
      .st0 {
        fill: #0281c4;
      }

      .st1 {
        fill: #ee1c25;
      }

      .st2 {
        fill: #4da7d5;
        fill-rule: evenodd;
      }

      .st3 {
        fill: #fff;
      }
    </style>
  </defs>
  <rect class="st0" x="0" width="235" height="153" rx="16" ry="16"/>
  <path class="st2" d="M17.28,62.522c0-.313.085-.62.246-.889l2.706-4.51c.312-.521.875-.839,1.482-.839h12.269c.954,0,1.728.774,1.728,1.728v24.191c0,.954-.774,1.728-1.728,1.728h-12.269c-.607,0-1.169-.318-1.482-.839l-2.706-4.51c-.161-.269-.246-.576-.246-.889v-15.17ZM38.015,58.011c0-.954.774-1.728,1.728-1.728h5.76c.954,0,1.728.774,1.728,1.728v9.216c0,.954-.774,1.728-1.728,1.728h-5.76c-.954,0-1.728-.774-1.728-1.728v-9.216ZM51.263,56.283c-.954,0-1.728.774-1.728,1.728v12.672c0,.954.774,1.728,1.728,1.728h5.76c.954,0,1.728-.774,1.728-1.728v-12.672c0-.954-.774-1.728-1.728-1.728h-5.76ZM38.015,72.987c0-.954.774-1.728,1.728-1.728h5.76c.954,0,1.728.774,1.728,1.728v9.216c0,.954-.774,1.728-1.728,1.728h-5.76c-.954,0-1.728-.774-1.728-1.728v-9.216ZM51.263,74.716c-.954,0-1.728.774-1.728,1.728v5.76c0,.954.774,1.728,1.728,1.728h5.76c.954,0,1.728-.774,1.728-1.728v-5.76c0-.954-.774-1.728-1.728-1.728h-5.76Z"/>
  <path class="st3" d="M174.708,51.209l-.113.109c-1.772,1.806-3.823,2.76-5.936,2.76-4.412,0-7.613-3.31-7.613-7.876s3.201-7.874,7.613-7.874c2.113,0,4.164.959,5.936,2.772l.113.108,2.837-3.432-.075-.092c-2.36-2.788-5.192-4.144-8.673-4.144s-6.686,1.176-8.985,3.294c-2.504,2.296-3.822,5.534-3.822,9.368s1.318,7.079,3.822,9.375c2.299,2.13,5.495,3.298,8.985,3.298s6.313-1.358,8.673-4.148l.075-.085-2.837-3.434Z"/>
  <path class="st3" d="M180.405,58.407h5.012v-24.47h-5.012v24.47Z"/>
  <path class="st3" d="M205.062,53.087c-1.338.815-2.582,1.226-3.7,1.226-1.62,0-2.354-.857-2.354-2.762v-12.985h5.109v-4.606h-5.109v-7.615l-4.911,2.631v4.984h-4.24v4.606h4.24v13.812c0,3.762,2.229,6.336,5.558,6.403,2.259.044,3.621-.63,4.446-1.123l.053-.034,1.204-4.719-.296.182Z"/>
  <path class="st3" d="M209.207,58.408h5.019v-24.47h-5.019v24.47Z"/>
  <path class="st1" d="M217.155,29.648c-4.58-6.486-12.184-10.355-19.92-10.355s-15.341,3.869-19.912,10.355l-.236.333h5.767l.063-.069c3.924-4.052,9.048-6.193,14.318-6.193s10.39,2.141,14.323,6.193l.063.069h5.763l-.229-.333Z"/>
</svg>