<svg xmlns="http://www.w3.org/2000/svg" xmlns:xlink="http://www.w3.org/1999/xlink" fill="none" viewBox="0 0 235 153"><rect width="234" height="146" x=".5" y=".5" fill="#fff" rx="15.5"/><rect width="234" height="146" x=".5" y=".5" stroke="#e6e1da" rx="15.5"/><path fill="url(#a)" d="M106 24h105v105H106z"/><path fill="#e7ece9" d="M46.099 77.731c.954 0 1.727.774 1.727 1.728v7.314c0 .955-.773 1.729-1.727 1.729h-5.683a1.73 1.73 0 0 1-1.728-1.729V79.46c0-.954.774-1.728 1.728-1.728zm11.424 2.938c.954 0 1.727.773 1.727 1.728v4.376c0 .955-.773 1.729-1.727 1.729h-5.684a1.73 1.73 0 0 1-1.727-1.729v-4.376c0-.955.773-1.728 1.727-1.728zM34.675 65c.954 0 1.728.773 1.728 1.728v20.044c0 .954-.774 1.727-1.728 1.727H22.452a1.73 1.73 0 0 1-1.416-.736l-2.598-3.713a1.73 1.73 0 0 1-.313-.991V70.44c0-.354.11-.7.313-.99l2.598-3.713A1.73 1.73 0 0 1 22.452 65zm22.848 0c.953 0 1.727.774 1.727 1.728V76.98c0 .953-.773 1.727-1.727 1.727h-5.684a1.73 1.73 0 0 1-1.727-1.727V66.728c0-.955.773-1.728 1.727-1.728zm-11.424 0c.954 0 1.727.773 1.727 1.728v7.315c0 .954-.773 1.727-1.727 1.727h-5.683a1.73 1.73 0 0 1-1.728-1.727v-7.315c0-.955.774-1.728 1.728-1.728z"/><defs><pattern id="a" width="1" height="1" patternContentUnits="objectBoundingBox"><use xlink:href="#image0_296_9955" transform="scale(.00658)"/></pattern></defs></svg>