<svg xmlns="http://www.w3.org/2000/svg" xmlns:xlink="http://www.w3.org/1999/xlink" id="Layer_1" version="1.1" viewBox="0 0 235 153"><defs><style>.st0{fill:none}.st1{fill:#002e22}.st2{fill:#fff}.st3{fill:#03d47c}.st4{fill:#085239;fill-rule:evenodd}.st5{clip-path:url(#clippath)}</style><clipPath id="clippath"><rect width="48.382" height="25.055" x="176.25" y="118.316" class="st0"/></clipPath></defs><rect width="235" height="153" x="0" class="st1" rx="16" ry="16"/><g class="st5"><g><path d="M200.211,118.754l-3.215,15.03h-3.888l3.215-15.03h3.888ZM216.571,128.459l2.047-5.644,1.177,5.644h-3.224ZM220.909,133.784h3.596l-3.138-15.03h-3.32c-.745,0-1.376.434-1.655,1.103l-5.833,13.927h4.081l.812-2.243h4.988l.469,2.243ZM210.761,128.877c.016-3.967-5.487-4.185-5.448-5.957.011-.54.525-1.113,1.648-1.26.559-.073,2.092-.129,3.835.673l.682-3.187c-.935-.341-2.14-.667-3.637-.667-3.842,0-6.548,2.044-6.57,4.97-.025,2.162,1.93,3.369,3.404,4.09,1.515.736,2.022,1.208,2.017,1.867-.011,1.009-1.209,1.453-2.326,1.471-1.955.031-3.09-.527-3.995-.949l-.705,3.293c.909.417,2.585.78,4.326.799,4.083,0,6.755-2.019,6.769-5.143ZM194.656,118.754l-6.3,15.03h-4.111l-3.099-11.995c-.189-.738-.352-1.009-.925-1.32-.934-.508-2.477-.983-3.835-1.278l.092-.437h6.616c.844,0,1.602.561,1.793,1.532l1.637,8.698,4.046-10.23h4.086Z" class="st2"/><path d="M189.166,142.542c-.237.122-.734.245-1.36.245-1.453,0-2.538-.918-2.538-2.615,0-1.621,1.093-2.707,2.691-2.707.634,0,1.047.138,1.223.229l-.168.543c-.245-.122-.604-.213-1.033-.213-1.207,0-2.01.772-2.01,2.125,0,1.269.726,2.072,1.972,2.072.413,0,.826-.084,1.093-.214l.13.535Z" class="st2"/><path d="M190.512,140.86c0,.81.458,1.422,1.116,1.422.642,0,1.123-.604,1.123-1.437,0-.628-.313-1.415-1.108-1.415-.788,0-1.131.735-1.131,1.43ZM193.44,140.822c0,1.368-.956,1.965-1.843,1.965-.994,0-1.774-.735-1.774-1.904,0-1.231.818-1.957,1.835-1.957,1.063,0,1.782.772,1.782,1.896Z" class="st2"/><path d="M194.48,140.004c0-.39-.015-.696-.031-1.001h.589l.031.603h.023c.206-.351.55-.68,1.169-.68.497,0,.88.306,1.04.742h.015c.115-.215.268-.368.421-.482.221-.169.459-.26.81-.26.497,0,1.224.321,1.224,1.605v2.171h-.658v-2.087c0-.718-.267-1.139-.803-1.139-.39,0-.68.283-.802.604-.031.099-.054.215-.054.337v2.285h-.657v-2.217c0-.588-.26-1.009-.772-1.009-.413,0-.727.336-.834.673-.038.092-.053.214-.053.328v2.226h-.658v-2.699h0Z" class="st2"/><path d="M201.048,140.004c0-.39-.015-.696-.03-1.001h.588l.031.603h.023c.206-.351.55-.68,1.169-.68.498,0,.88.306,1.04.742h.015c.114-.215.268-.368.421-.482.221-.169.459-.26.811-.26.496,0,1.223.321,1.223,1.605v2.171h-.657v-2.087c0-.718-.268-1.139-.803-1.139-.39,0-.681.283-.803.604-.031.099-.054.215-.054.337v2.285h-.658v-2.217c0-.588-.26-1.009-.771-1.009-.413,0-.727.336-.834.673-.038.092-.053.214-.053.328v2.226h-.658v-2.699Z" class="st2"/><path d="M209.963,140.493c.007-.421-.176-1.085-.933-1.085-.689,0-.979.619-1.032,1.085h1.965ZM207.99,140.975c.016.91.588,1.284,1.269,1.284.482,0,.779-.084,1.024-.191l.122.482c-.237.107-.65.237-1.238.237-1.139,0-1.819-.757-1.819-1.874s.658-1.987,1.735-1.987c1.215,0,1.53,1.055,1.53,1.735,0,.138-.008.237-.023.314h-2.6Z" class="st2"/><path d="M211.636,140.157c0-.436-.007-.811-.03-1.154h.589l.03.733h.023c.168-.497.581-.81,1.033-.81.068,0,.122.007.182.015v.634c-.068-.015-.137-.015-.228-.015-.474,0-.811.352-.903.857-.015.091-.023.206-.023.313v1.972h-.673v-2.545Z" class="st2"/><path d="M216.89,142.572c-.176.085-.565.215-1.063.215-1.116,0-1.843-.757-1.843-1.889,0-1.139.78-1.972,1.988-1.972.398,0,.75.099.933.199l-.153.512c-.16-.085-.412-.176-.78-.176-.848,0-1.307.634-1.307,1.399,0,.856.551,1.384,1.285,1.384.382,0,.635-.092.825-.176l.115.504Z" class="st2"/><path d="M217.868,142.702v-3.699h.673v3.7h-.673ZM218.617,137.962c0,.23-.16.413-.427.413-.245,0-.406-.183-.406-.413s.169-.42.421-.42c.245,0,.412.183.412.42Z" class="st2"/><path d="M221.799,140.814c-.734-.015-1.567.115-1.567.834,0,.443.29.642.626.642.489,0,.803-.306.91-.62.023-.076.031-.153.031-.214v-.642ZM222.449,141.815c0,.322.015.635.053.887h-.604l-.054-.466h-.023c-.206.291-.604.551-1.131.551-.749,0-1.131-.528-1.131-1.063,0-.894.794-1.384,2.224-1.377v-.076c0-.298-.084-.856-.841-.849-.352,0-.71.1-.971.276l-.152-.451c.305-.191.756-.321,1.222-.321,1.132,0,1.408.772,1.408,1.506v1.383h0Z" class="st2"/><path d="M223.726,137.275h.672v5.427h-.672v-5.427Z" class="st2"/></g></g><path d="M111.625,46.664h11.886v-3.507h-7.517v-3.252h6.05v-3.591h-6.05v-3.081h7.517v-3.507h-11.886v16.938Z" class="st3"/><path d="M138.317,33.461h-5.232l-1.745,3.181-1.831-3.181h-5.377l4.389,6.387-4.679,6.816h5.232l2.092-3.555,2.065,3.555h5.377l-4.68-6.816,4.389-6.387Z" class="st3"/><path d="M146.56,33.14c-1.444,0-2.699.588-3.635,1.711v-1.39h-4.01v18.815h4.277v-6.601c.776.802,1.952,1.309,3.342,1.309,3.501,0,5.935-2.699,5.935-6.922s-2.299-6.922-5.907-6.922h-.002ZM145.625,43.483c-1.605,0-2.566-1.256-2.566-3.421s.961-3.422,2.566-3.422,2.565,1.23,2.565,3.422-.961,3.421-2.565,3.421Z" class="st3"/><path d="M160.009,43.643c-1.31,0-2.299-.749-2.54-2.672h9.116v-.561c0-4.116-2.299-7.269-6.764-7.269-3.154,0-6.79,1.711-6.79,6.922,0,4.223,2.727,6.922,6.95,6.922,2.513,0,5.64-.909,6.629-4.811h-4.332c-.188.721-.749,1.47-2.273,1.47h.004ZM159.821,36.293c1.23,0,2.059.695,2.192,2.218h-4.465c.321-1.684,1.257-2.218,2.273-2.218Z" class="st3"/><path d="M174.924,33.14c-1.471,0-2.78.642-3.635,1.87v-1.551h-4.01v13.205h4.277v-7.35c0-1.764.909-2.565,2.085-2.565,1.257,0,2.004.535,2.004,2.539v7.376h4.277v-7.698c0-4.169-1.684-5.827-4.998-5.827Z" class="st3"/><path d="M195.534,27.459c-1.308,0-2.242.96-2.242,2.187s.934,2.215,2.242,2.215,2.267-.986,2.267-2.215-.933-2.187-2.267-2.187Z" class="st3"/><path d="M197.707,33.487h-4.269v13.175h4.269v-13.175Z" class="st3"/><path d="M187.818,38.436l-1.069-.242c-1.123-.242-1.523-.729-1.523-1.241,0-.728.614-1.197,1.604-1.197,1.257,0,1.925.408,1.925,1.62h3.685c-.086-2.774-1.707-4.413-5.798-4.413-3.529,0-5.64,1.311-5.64,4.25,0,2.318,1.561,3.37,5.143,4.181l1.069.242c1.123.242,1.523.764,1.523,1.276,0,.728-.642,1.052-1.764,1.052-1.47,0-2.139-.54-2.325-1.753h-4.17c.24,3.183,2.459,4.773,6.336,4.773s6.148-1.429,6.148-4.368c0-2.32-1.562-3.37-5.144-4.181v.002Z" class="st3"/><path d="M214.411,33.487l-2.401,8.055-2.349-8.055h-5.537v-.415c0-1.079.802-2.159,2.052-2.159h.61v-3.487h-.876c-3.657.082-6.066,2.656-6.066,5.895v.166h-1.601v3.889h1.601v9.286h4.269v-9.286h2.404l3.199,8.94-.534,1.386c-.4,1.013-.853,1.307-1.734,1.307-.453,0-.908,0-1.548-.188l-.267,3.494c.641.186,1.441.267,2.454.267,2.561,0,3.895-1.093,5.176-4.482l5.496-14.616h-4.35l.002.002Z" class="st3"/><path d="M17.28,62.521c0-.313.085-.621.246-.889l2.706-4.51c.312-.521.875-.839,1.482-.839h12.269c.954,0,1.728.774,1.728,1.728v24.191c0,.954-.774,1.728-1.728,1.728h-12.269c-.607,0-1.169-.318-1.482-.839l-2.706-4.51c-.161-.269-.246-.576-.246-.889v-15.17ZM38.015,58.01c0-.954.774-1.728,1.728-1.728h5.76c.954,0,1.728.774,1.728,1.728v9.216c0,.954-.774,1.728-1.728,1.728h-5.76c-.954,0-1.728-.774-1.728-1.728v-9.216ZM51.263,56.282c-.954,0-1.728.774-1.728,1.728v12.672c0,.954.774,1.728,1.728,1.728h5.76c.954,0,1.728-.774,1.728-1.728v-12.672c0-.954-.774-1.728-1.728-1.728h-5.76ZM38.015,72.987c0-.954.774-1.728,1.728-1.728h5.76c.954,0,1.728.774,1.728,1.728v9.216c0,.954-.774,1.728-1.728,1.728h-5.76c-.954,0-1.728-.774-1.728-1.728v-9.216ZM51.263,74.715c-.954,0-1.728.774-1.728,1.728v5.76c0,.954.774,1.728,1.728,1.728h5.76c.954,0,1.728-.774,1.728-1.728v-5.76c0-.954-.774-1.728-1.728-1.728h-5.76Z" class="st4"/></svg>