<svg xmlns="http://www.w3.org/2000/svg" id="Layer_1" version="1.1" viewBox="0 0 235 153"><defs><style>.st0{fill:#fff}.st0,.st1,.st2{fill-rule:evenodd}.st1,.st3{fill:#016fd0}.st2{fill:#0185ff}</style></defs><rect width="235" height="153" x="0" class="st3" rx="16" ry="16"/><path d="M38.015,58.011c0-.954.774-1.728,1.728-1.728h5.76c.954,0,1.728.774,1.728,1.728v9.216c0,.954-.774,1.728-1.728,1.728h-5.76c-.954,0-1.728-.774-1.728-1.728v-9.216ZM17.28,62.521c0-.313.085-.62.246-.889l2.706-4.51c.312-.52.875-.839,1.482-.839h12.269c.954,0,1.728.774,1.728,1.728v24.191c0,.954-.774,1.728-1.728,1.728h-12.269c-.607,0-1.169-.319-1.482-.839l-2.706-4.51c-.161-.269-.246-.576-.246-.889v-15.17ZM51.263,56.283c-.954,0-1.728.774-1.728,1.728v12.672c0,.954.774,1.728,1.728,1.728h5.76c.954,0,1.728-.774,1.728-1.728v-12.672c0-.954-.774-1.728-1.728-1.728h-5.76ZM38.015,72.987c0-.954.774-1.728,1.728-1.728h5.76c.954,0,1.728.774,1.728,1.728v9.216c0,.954-.774,1.728-1.728,1.728h-5.76c-.954,0-1.728-.774-1.728-1.728v-9.216ZM51.263,74.715c-.954,0-1.728.774-1.728,1.728v5.76c0,.954.774,1.728,1.728,1.728h5.76c.954,0,1.728-.774,1.728-1.728v-5.76c0-.954-.774-1.728-1.728-1.728h-5.76Z" class="st2"/><path d="M164.5,11.875h58.749v58.75h-58.749V11.875Z" class="st1"/><path d="M185.785,61.33v-21.052l37.468.035v5.815l-4.331,4.627,4.331,4.672v5.938h-6.914l-3.674-4.054-3.649,4.071-23.231-.05Z" class="st0"/><path d="M188.287,59.02v-16.426h13.929v3.784h-9.418v2.569h9.193v3.722h-9.193v2.523h9.418v3.829h-13.929Z" class="st1"/><path d="M202.148,59.021l7.706-8.222-7.706-8.203h5.965l4.709,5.206,4.723-5.206h5.709v.129l-7.543,8.074,7.543,7.99v.232h-5.767l-4.792-5.258-4.744,5.258h-5.803Z" class="st1"/><path d="M187.533,21.593h9.032l3.172,7.204v-7.204h11.15l1.923,5.397,1.929-5.397h8.514v21.051h-44.995l9.275-21.051Z" class="st0"/><path d="M189.242,23.88l-7.289,16.413h4.999l1.375-3.287h7.45l1.375,3.287h5.122l-7.258-16.413h-5.774ZM189.868,33.323l2.185-5.225,2.184,5.225h-4.369Z" class="st1"/><path d="M202.205,40.29v-16.413l7.026.024,3.616,10.09,3.64-10.114h6.762v16.413l-4.351.038v-11.274l-4.108,11.236h-3.973l-4.193-11.275v11.275h-4.419Z" class="st1"/></svg>