<svg xmlns="http://www.w3.org/2000/svg" id="Layer_1" version="1.1" viewBox="0 0 235 153"><defs><style>.st0{fill:#f79e1b}.st1{fill:#400000;fill-rule:evenodd}.st2{fill:#eb001b}.st3{fill:#ff5f00}.st4{fill:#780505}</style></defs><rect width="235" height="153" x="0" class="st4" rx="16" ry="16"/><path d="M179.262,21.633h17.479v28.549h-17.479v-28.549Z" class="st3"/><path d="M181.065,35.91c-.004-5.57,2.553-10.833,6.934-14.272-7.883-6.195-19.297-4.827-25.493,3.057-6.195,7.883-4.827,19.297,3.056,25.493,6.585,5.175,15.853,5.175,22.437,0-4.383-3.44-6.94-8.705-6.934-14.277h0Z" class="st2"/><path d="M217.376,35.91c0,10.027-8.128,18.155-18.155,18.155-4.07,0-8.021-1.367-11.221-3.883,7.883-6.196,9.252-17.61,3.056-25.493-.893-1.137-1.919-2.163-3.056-3.056,7.883-6.197,19.296-4.831,25.494,3.051,2.515,3.199,3.882,7.151,3.882,11.221v.005Z" class="st0"/><path d="M17.28,62.521c0-.313.085-.621.246-.889l2.706-4.51c.312-.521.875-.839,1.482-.839h12.269c.954,0,1.728.774,1.728,1.728v24.191c0,.954-.774,1.728-1.728,1.728h-12.269c-.607,0-1.169-.318-1.482-.839l-2.706-4.51c-.161-.269-.246-.576-.246-.889v-15.17ZM38.015,58.01c0-.954.774-1.728,1.728-1.728h5.76c.954,0,1.728.774,1.728,1.728v9.216c0,.954-.774,1.728-1.728,1.728h-5.76c-.954,0-1.728-.774-1.728-1.728v-9.216ZM51.263,56.283c-.954,0-1.728.774-1.728,1.728v12.672c0,.954.774,1.728,1.728,1.728h5.76c.954,0,1.728-.774,1.728-1.728v-12.672c0-.954-.774-1.728-1.728-1.728h-5.76ZM38.015,72.987c0-.954.774-1.728,1.728-1.728h5.76c.954,0,1.728.774,1.728,1.728v9.216c0,.954-.774,1.728-1.728,1.728h-5.76c-.954,0-1.728-.774-1.728-1.728v-9.216ZM51.263,74.715c-.954,0-1.728.774-1.728,1.728v5.76c0,.954.774,1.728,1.728,1.728h5.76c.954,0,1.728-.774,1.728-1.728v-5.76c0-.954-.774-1.728-1.728-1.728h-5.76Z" class="st1"/></svg>