<?xml version="1.0" encoding="UTF-8"?>
<svg id="Layer_1" xmlns="http://www.w3.org/2000/svg" version="1.1" viewBox="0 0 235 153">
  <!-- Generator: Adobe Illustrator 29.0.1, SVG Export Plug-In . SVG Version: 2.1.0 Build 192)  -->
  <defs>
    <style>
      .st0 {
        fill: #fff;
      }

      .st1 {
        fill: #15181d;
      }

      .st2 {
        fill: #34383f;
        fill-rule: evenodd;
      }
    </style>
  </defs>
  <rect class="st1" x="0" width="235" height="153" rx="16" ry="16"/>
  <path class="st2" d="M17.28,62.521c0-.313.085-.62.246-.889l2.706-4.51c.312-.521.875-.839,1.482-.839h12.269c.954,0,1.728.774,1.728,1.728v24.191c0,.954-.774,1.728-1.728,1.728h-12.269c-.607,0-1.169-.318-1.482-.839l-2.706-4.51c-.161-.269-.246-.576-.246-.889v-15.17ZM38.015,58.011c0-.954.774-1.728,1.728-1.728h5.76c.954,0,1.728.774,1.728,1.728v9.216c0,.954-.774,1.728-1.728,1.728h-5.76c-.954,0-1.728-.774-1.728-1.728v-9.216ZM51.263,56.283c-.954,0-1.728.774-1.728,1.728v12.671c0,.954.774,1.728,1.728,1.728h5.76c.954,0,1.728-.774,1.728-1.728v-12.671c0-.954-.774-1.728-1.728-1.728h-5.76ZM38.015,72.987c0-.954.774-1.728,1.728-1.728h5.76c.954,0,1.728.774,1.728,1.728v9.216c0,.954-.774,1.728-1.728,1.728h-5.76c-.954,0-1.728-.774-1.728-1.728v-9.216ZM51.263,74.715c-.954,0-1.728.774-1.728,1.728v5.76c0,.954.774,1.728,1.728,1.728h5.76c.954,0,1.728-.774,1.728-1.728v-5.76c0-.954-.774-1.728-1.728-1.728h-5.76Z"/>
  <path class="st0" d="M203.928,21.847c-1.082-.004-2.15.245-3.119.727-.969.482-1.812,1.184-2.461,2.05l-1.362,1.808c-.277.364-.633.66-1.042.864-.408.204-.859.312-1.316.314h-24.253v28.995h9.507c1.083.004,2.15-.246,3.119-.728.969-.482,1.812-1.184,2.461-2.049l1.363-1.806c.275-.364.631-.661,1.04-.865.409-.204.86-.312,1.317-.314h24.278v-28.995h-9.532ZM205.917,43.298h-10.161c-1.082-.004-2.15.246-3.119.728-.969.482-1.811,1.184-2.461,2.049l-1.362,1.808c-.276.364-.633.66-1.041.864-.409.204-.86.312-1.316.314h-8.538v-13.908h10.162c1.082.003,2.15-.246,3.118-.728.969-.482,1.811-1.184,2.46-2.049l1.363-1.806c.276-.364.632-.66,1.04-.865.409-.205.86-.312,1.317-.315h8.565l-.027,13.908Z"/>
</svg>