<svg xmlns="http://www.w3.org/2000/svg" id="Layer_1" viewBox="0 0 235 153"><defs><style>.st0{fill:#fff}.st1{fill:#15181d}.st2{fill:#34383f;fill-rule:evenodd}</style></defs><rect width="235" height="153" class="st1" rx="16" ry="16"/><path d="M17.28 62.521c0-.313.085-.62.246-.889l2.706-4.51a1.73 1.73 0 0 1 1.482-.839h12.269c.954 0 1.728.774 1.728 1.728v24.191c0 .954-.774 1.728-1.728 1.728H21.714a1.73 1.73 0 0 1-1.482-.839l-2.706-4.51a1.73 1.73 0 0 1-.246-.889zm20.735-4.51c0-.954.774-1.728 1.728-1.728h5.76c.954 0 1.728.774 1.728 1.728v9.216c0 .954-.774 1.728-1.728 1.728h-5.76a1.73 1.73 0 0 1-1.728-1.728zm13.248-1.728c-.954 0-1.728.774-1.728 1.728v12.671c0 .954.774 1.728 1.728 1.728h5.76c.954 0 1.728-.774 1.728-1.728V58.011c0-.954-.774-1.728-1.728-1.728zM38.015 72.987c0-.954.774-1.728 1.728-1.728h5.76c.954 0 1.728.774 1.728 1.728v9.216c0 .954-.774 1.728-1.728 1.728h-5.76a1.73 1.73 0 0 1-1.728-1.728zm13.248 1.728c-.954 0-1.728.774-1.728 1.728v5.76c0 .954.774 1.728 1.728 1.728h5.76c.954 0 1.728-.774 1.728-1.728v-5.76c0-.954-.774-1.728-1.728-1.728z" class="st2"/><path d="M203.928 21.847a6.95 6.95 0 0 0-5.58 2.777l-1.362 1.808a2.98 2.98 0 0 1-2.358 1.178h-24.253v28.995h9.507a6.94 6.94 0 0 0 5.58-2.777l1.363-1.806a2.96 2.96 0 0 1 2.357-1.179h24.278V21.848zm1.989 21.451h-10.161a6.95 6.95 0 0 0-5.58 2.777l-1.362 1.808a2.98 2.98 0 0 1-2.357 1.178h-8.538V35.153h10.162a6.95 6.95 0 0 0 5.578-2.777l1.363-1.806a2.98 2.98 0 0 1 2.357-1.18h8.565z" class="st0"/></svg>