<svg xmlns="http://www.w3.org/2000/svg" id="Layer_1" viewBox="0 0 235 153"><defs><style>.st0{fill:#f79e1b}.st1{fill:#400000;fill-rule:evenodd}.st2{fill:#eb001b}.st3{fill:#ff5f00}.st4{fill:#780505}</style></defs><rect width="235" height="153" class="st4" rx="16" ry="16"/><path d="M179.262 21.633h17.479v28.549h-17.479z" class="st3"/><path d="M181.065 35.91a18.13 18.13 0 0 1 6.934-14.272c-7.883-6.195-19.297-4.827-25.493 3.057-6.195 7.883-4.827 19.297 3.056 25.493a18.154 18.154 0 0 0 22.437 0 18.12 18.12 0 0 1-6.934-14.277Z" class="st2"/><path d="M217.376 35.91c0 10.027-8.128 18.155-18.155 18.155-4.07 0-8.021-1.367-11.221-3.883 7.883-6.196 9.252-17.61 3.056-25.493A18 18 0 0 0 188 21.633c7.883-6.197 19.296-4.831 25.494 3.051a18.16 18.16 0 0 1 3.882 11.221z" class="st0"/><path d="M17.28 62.521c0-.313.085-.621.246-.889l2.706-4.51a1.73 1.73 0 0 1 1.482-.839h12.269c.954 0 1.728.774 1.728 1.728v24.191c0 .954-.774 1.728-1.728 1.728H21.714a1.73 1.73 0 0 1-1.482-.839l-2.706-4.51a1.73 1.73 0 0 1-.246-.889zm20.735-4.511c0-.954.774-1.728 1.728-1.728h5.76c.954 0 1.728.774 1.728 1.728v9.216c0 .954-.774 1.728-1.728 1.728h-5.76a1.73 1.73 0 0 1-1.728-1.728zm13.248-1.727c-.954 0-1.728.774-1.728 1.728v12.672c0 .954.774 1.728 1.728 1.728h5.76c.954 0 1.728-.774 1.728-1.728V58.011c0-.954-.774-1.728-1.728-1.728zM38.015 72.987c0-.954.774-1.728 1.728-1.728h5.76c.954 0 1.728.774 1.728 1.728v9.216c0 .954-.774 1.728-1.728 1.728h-5.76a1.73 1.73 0 0 1-1.728-1.728zm13.248 1.728c-.954 0-1.728.774-1.728 1.728v5.76c0 .954.774 1.728 1.728 1.728h5.76c.954 0 1.728-.774 1.728-1.728v-5.76c0-.954-.774-1.728-1.728-1.728z" class="st1"/></svg>