<svg xmlns="http://www.w3.org/2000/svg" id="Layer_1" viewBox="0 0 235 153"><defs><style>.st0,.st1{fill-rule:evenodd}.st0,.st2{fill:#fff}.st1{fill:#918cfe}.st3{fill:#635bff}</style></defs><rect width="235" height="153" class="st3" rx="16" ry="16"/><path d="M17.28 62.522c0-.313.085-.62.246-.889l2.706-4.51a1.73 1.73 0 0 1 1.482-.839h12.269c.954 0 1.728.774 1.728 1.728v24.191c0 .954-.774 1.728-1.728 1.728H21.714a1.73 1.73 0 0 1-1.482-.839l-2.706-4.51a1.73 1.73 0 0 1-.246-.889zm20.735-4.511c0-.954.774-1.728 1.728-1.728h5.76c.954 0 1.728.774 1.728 1.728v9.216c0 .954-.774 1.728-1.728 1.728h-5.76a1.73 1.73 0 0 1-1.728-1.728zm13.248-1.728c-.954 0-1.728.774-1.728 1.728v12.672c0 .954.774 1.728 1.728 1.728h5.76c.954 0 1.728-.774 1.728-1.728V58.011c0-.954-.774-1.728-1.728-1.728zM38.015 72.987c0-.954.774-1.728 1.728-1.728h5.76c.954 0 1.728.774 1.728 1.728v9.216c0 .954-.774 1.728-1.728 1.728h-5.76a1.73 1.73 0 0 1-1.728-1.728zm13.248 1.729c-.954 0-1.728.774-1.728 1.728v5.76c0 .954.774 1.728 1.728 1.728h5.76c.954 0 1.728-.774 1.728-1.728v-5.76c0-.954-.774-1.728-1.728-1.728z" class="st1"/><path d="M214.283 41.863c0-6.266-3.035-11.211-8.837-11.211s-9.35 4.944-9.35 11.162c0 7.368 4.161 11.089 10.134 11.089 2.913 0 5.116-.661 6.78-1.591v-4.896c-1.664.832-3.574 1.346-5.997 1.346-2.374 0-4.48-.832-4.749-3.721h11.97c0-.318.049-1.591.049-2.179Zm-12.092-2.325c0-2.766 1.689-3.917 3.231-3.917 1.493 0 3.084 1.15 3.084 3.917zm-15.548-8.885c-2.399 0-3.941 1.126-4.798 1.909l-.318-1.518h-5.385v28.541l6.119-1.297.025-6.927c.881.636 2.178 1.542 4.332 1.542 4.382 0 8.372-3.525 8.372-11.284-.025-7.099-4.064-10.966-8.347-10.966m-1.469 16.865c-1.444 0-2.301-.514-2.888-1.15l-.025-9.081c.637-.71 1.518-1.199 2.913-1.199 2.228 0 3.77 2.497 3.77 5.703 0 3.28-1.518 5.728-3.77 5.728Zm-17.455-18.31 6.144-1.322v-4.969l-6.144 1.297z" class="st0"/><path d="M173.863 31.069h-6.144v21.418h6.144z" class="st2"/><path d="m161.138 32.881-.392-1.811h-5.287v21.418h6.12V37.973c1.444-1.885 3.892-1.542 4.65-1.273v-5.63c-.783-.294-3.647-.832-5.091 1.811m-12.236-7.124-5.972 1.273-.025 19.607c0 3.623 2.717 6.291 6.34 6.291 2.007 0 3.476-.367 4.284-.808v-4.969c-.783.318-4.651 1.444-4.651-2.179v-8.69h4.651v-5.214h-4.651l.024-5.312Zm-16.551 11.528c0-.955.784-1.322 2.081-1.322 1.86 0 4.21.563 6.07 1.567v-5.752c-2.031-.808-4.038-1.126-6.07-1.126-4.969 0-8.274 2.595-8.274 6.927 0 6.756 9.302 5.679 9.302 8.592 0 1.126-.979 1.493-2.35 1.493-2.032 0-4.626-.832-6.683-1.958v5.826a17 17 0 0 0 6.683 1.395c5.092 0 8.592-2.521 8.592-6.903-.025-7.294-9.351-5.997-9.351-8.739" class="st0"/></svg>