<?xml version="1.0" encoding="UTF-8"?>
<svg id="Layer_1" xmlns="http://www.w3.org/2000/svg" version="1.1" viewBox="0 0 235 153">
  <!-- Generator: Adobe Illustrator 29.1.0, SVG Export Plug-In . SVG Version: 2.1.0 Build 142)  -->
  <defs>
    <style>
      .st0 {
        fill: #003c73;
        fill-rule: evenodd;
      }

      .st1 {
        fill: #022247;
      }

      .st2 {
        fill: #cc2427;
      }
    </style>
  </defs>
  <rect class="st1" x="0" width="235" height="153" rx="16" ry="16"/>
  <path class="st0" d="M17.28,62.521c0-.313.085-.62.246-.889l2.706-4.51c.312-.521.875-.839,1.482-.839h12.269c.954,0,1.728.774,1.728,1.728v24.191c0,.954-.774,1.728-1.728,1.728h-12.269c-.607,0-1.169-.318-1.482-.839l-2.706-4.51c-.161-.269-.246-.576-.246-.889v-15.17ZM38.015,58.011c0-.954.774-1.728,1.728-1.728h5.76c.954,0,1.728.774,1.728,1.728v9.216c0,.954-.774,1.728-1.728,1.728h-5.76c-.954,0-1.728-.774-1.728-1.728v-9.216ZM51.263,56.283c-.954,0-1.728.774-1.728,1.728v12.671c0,.954.774,1.728,1.728,1.728h5.76c.954,0,1.728-.774,1.728-1.728v-12.671c0-.954-.774-1.728-1.728-1.728h-5.76ZM38.015,72.987c0-.954.774-1.728,1.728-1.728h5.76c.954,0,1.728.774,1.728,1.728v9.216c0,.954-.774,1.728-1.728,1.728h-5.76c-.954,0-1.728-.774-1.728-1.728v-9.216ZM51.263,74.715c-.954,0-1.728.774-1.728,1.728v5.76c0,.954.774,1.728,1.728,1.728h5.76c.954,0,1.728-.774,1.728-1.728v-5.76c0-.954-.774-1.728-1.728-1.728h-5.76Z"/>
  <path class="st2" d="M175.605,18.304c6.187-.401,12.393-.639,18.598-.48,4.425.146,8.864.43,13.208,1.314,2.449.534,4.926,1.216,7.068,2.545,1.281.818,2.537,1.963,2.809,3.514.337,1.798-.415,3.568-1.335,5.082-1.712,2.726-4.046,5.001-6.442,7.143-3.02,2.644-6.238,5.062-9.539,7.355-3.237,2.218-6.485,4.422-9.785,6.549-4.206,2.664-8.508,5.179-12.891,7.547h-5.95c3.042-2.082,5.901-4.41,8.702-6.796,3.452-2.942,6.798-6.003,10.081-9.128.64-.606,1.329-1.178,1.813-1.922,1.564-2.158,3.004-4.643,2.93-7.378-.042-1.87-1.077-3.588-2.483-4.79-2.311-1.953-5.261-2.953-8.161-3.707-2.93-.737-5.932-1.141-8.933-1.459-1.641-.09-3.275-.316-4.92-.325v-4.654c1.737-.208,3.485-.281,5.23-.41Z"/>
</svg>