<svg xmlns="http://www.w3.org/2000/svg" id="Layer_1" viewBox="0 0 235 153"><defs><clipPath id="clippath"><path d="M154.356 17.75h64.402v33.351h-64.402z" class="st0"/></clipPath><style>.st0{fill:none}.st1{fill:#003c73}.st2{fill:#fff}.st3{fill:#0676de;fill-rule:evenodd}.st4{clip-path:url(#clippath)}</style></defs><rect width="235" height="153" class="st1" rx="16" ry="16"/><g class="st4"><path d="m186.253 18.333-4.28 20.006h-5.175l4.279-20.006zm21.776 12.918 2.725-7.514 1.567 7.514zm5.774 7.089h4.787l-4.176-20.006h-4.42c-.992 0-1.831.578-2.203 1.467l-7.764 18.539h5.432l1.081-2.986h6.639zm-13.508-6.532c.021-5.281-7.303-5.572-7.251-7.93.014-.719.699-1.482 2.193-1.677.744-.097 2.786-.172 5.105.896l.908-4.242c-1.244-.454-2.849-.888-4.841-.888-5.115 0-8.716 2.72-8.746 6.615-.033 2.879 2.57 4.485 4.532 5.444 2.015.98 2.691 1.609 2.684 2.486-.014 1.342-1.609 1.934-3.096 1.957-2.603.042-4.114-.702-5.318-1.263l-.938 4.384c1.209.555 3.44 1.038 5.758 1.063 5.435 0 8.992-2.687 9.01-6.845m-21.437-13.475-8.386 20.006H165l-4.126-15.967c-.251-.983-.468-1.344-1.231-1.757-1.243-.676-3.297-1.309-5.105-1.701l.123-.581h8.807c1.123 0 2.132.746 2.386 2.039l2.18 11.578 5.386-13.617zm-7.308 31.664c-.316.162-.977.326-1.811.326-1.934 0-3.379-1.222-3.379-3.481 0-2.157 1.456-3.603 3.582-3.603.845 0 1.394.184 1.629.305l-.224.722c-.326-.163-.804-.284-1.374-.284-1.608 0-2.677 1.028-2.677 2.828 0 1.69.967 2.758 2.626 2.758.549 0 1.099-.112 1.455-.285l.173.712Zm1.791-2.238c0 1.078.61 1.892 1.486 1.892.854 0 1.496-.803 1.496-1.913 0-.835-.418-1.883-1.476-1.883-1.048 0-1.506.978-1.506 1.904m3.898-.051c0 1.822-1.272 2.616-2.453 2.616-1.323 0-2.361-.978-2.361-2.534 0-1.639 1.089-2.605 2.442-2.605 1.415 0 2.372 1.028 2.372 2.523m1.385-1.089c0-.519-.021-.926-.041-1.333h.784l.04.803h.031c.275-.468.733-.905 1.557-.905.662 0 1.17.407 1.385.987h.019c.153-.285.357-.489.56-.641.295-.225.611-.346 1.079-.346.661 0 1.628.427 1.628 2.136v2.89h-.875v-2.778c0-.957-.356-1.517-1.069-1.517-.519 0-.905.376-1.068.805a1.5 1.5 0 0 0-.071.448v3.042h-.875v-2.951c0-.784-.346-1.344-1.028-1.344-.55 0-.967.448-1.11.896-.051.123-.07.285-.07.437v2.962h-.876zm8.742 0c0-.519-.02-.926-.041-1.333h.784l.041.803h.03c.275-.468.733-.905 1.557-.905.662 0 1.17.407 1.384.987h.02c.152-.285.357-.489.56-.641.295-.225.61-.346 1.08-.346.66 0 1.627.427 1.627 2.136v2.89h-.874v-2.778c0-.957-.357-1.517-1.069-1.517-.519 0-.907.376-1.069.805a1.5 1.5 0 0 0-.071.448v3.042h-.876v-2.951c0-.784-.346-1.344-1.027-1.344-.55 0-.967.448-1.11.896a1.2 1.2 0 0 0-.071.437v2.962h-.875zm11.867.651c.009-.56-.234-1.445-1.242-1.445-.917 0-1.303.824-1.374 1.445zm-2.626.641c.021 1.211.783 1.71 1.689 1.71.642 0 1.037-.112 1.364-.254l.162.641c-.316.143-.865.316-1.648.316-1.516 0-2.422-1.008-2.422-2.494s.876-2.645 2.31-2.645c1.618 0 2.036 1.404 2.036 2.309 0 .184-.01.316-.03.417zm4.855-1.089c0-.58-.01-1.079-.04-1.536h.783l.04.976h.03c.225-.662.774-1.078 1.375-1.078.092 0 .163.009.244.02v.844c-.092-.02-.183-.02-.304-.02-.632 0-1.079.468-1.202 1.14-.02.122-.031.275-.031.417v2.625h-.896v-3.389Zm6.992 3.216c-.235.112-.753.285-1.415.285-1.486 0-2.453-1.008-2.453-2.514 0-1.517 1.038-2.625 2.646-2.625.53 0 .998.132 1.242.264l-.203.682c-.214-.113-.55-.234-1.039-.234-1.13 0-1.74.844-1.74 1.863 0 1.139.734 1.842 1.71 1.842a2.6 2.6 0 0 0 1.099-.234zm1.303.173v-4.925h.895v4.925zm.996-6.309c0 .305-.213.55-.568.55-.327 0-.54-.244-.54-.55s.224-.56.56-.56c.326 0 .548.244.548.56m4.235 3.795c-.977-.02-2.086.153-2.086 1.11 0 .59.386.855.834.855.651 0 1.068-.407 1.211-.824.03-.102.041-.204.041-.285v-.855Zm.865 1.333c0 .428.02.846.07 1.181h-.803l-.072-.621h-.03c-.275.387-.804.733-1.506.733-.998 0-1.506-.703-1.506-1.415 0-1.19 1.057-1.842 2.961-1.832v-.102c0-.396-.113-1.139-1.119-1.13-.469 0-.946.133-1.293.367l-.203-.601c.407-.254 1.007-.427 1.628-.427 1.506 0 1.873 1.028 1.873 2.004v1.841Zm1.7-6.044h.894v7.225h-.894z" class="st2"/></g><path d="M17.28 62.521c0-.313.085-.62.246-.889l2.706-4.51a1.73 1.73 0 0 1 1.482-.839h12.269c.954 0 1.728.774 1.728 1.728v24.191c0 .954-.774 1.728-1.728 1.728H21.714a1.73 1.73 0 0 1-1.482-.839l-2.706-4.51a1.73 1.73 0 0 1-.246-.889zm20.735-4.51c0-.954.774-1.728 1.728-1.728h5.76c.954 0 1.728.774 1.728 1.728v9.216c0 .954-.774 1.728-1.728 1.728h-5.76a1.73 1.73 0 0 1-1.728-1.728zm13.248-1.728c-.954 0-1.728.774-1.728 1.728v12.671c0 .954.774 1.728 1.728 1.728h5.76c.954 0 1.728-.774 1.728-1.728V58.011c0-.954-.774-1.728-1.728-1.728zM38.015 72.987c0-.954.774-1.728 1.728-1.728h5.76c.954 0 1.728.774 1.728 1.728v9.216c0 .954-.774 1.728-1.728 1.728h-5.76a1.73 1.73 0 0 1-1.728-1.728zm13.248 1.728c-.954 0-1.728.774-1.728 1.728v5.76c0 .954.774 1.728 1.728 1.728h5.76c.954 0 1.728-.774 1.728-1.728v-5.76c0-.954-.774-1.728-1.728-1.728z" class="st3"/></svg>