<svg xmlns="http://www.w3.org/2000/svg" id="Layer_1" viewBox="0 0 235 153"><defs><style>.st0{fill:#fff}.st1{fill:#0f5ba7}.st2{fill:#0676de;fill-rule:evenodd}</style></defs><rect width="235" height="153" class="st1" rx="16" ry="16"/><path d="M17.28 62.521c0-.313.085-.62.246-.889l2.706-4.51a1.73 1.73 0 0 1 1.482-.839h12.269c.954 0 1.728.774 1.728 1.728v24.191c0 .954-.774 1.728-1.728 1.728H21.714a1.73 1.73 0 0 1-1.482-.839l-2.706-4.51a1.73 1.73 0 0 1-.246-.889zm20.735-4.51c0-.954.774-1.728 1.728-1.728h5.76c.954 0 1.728.774 1.728 1.728v9.216c0 .954-.774 1.728-1.728 1.728h-5.76a1.73 1.73 0 0 1-1.728-1.728zm13.248-1.728c-.954 0-1.728.774-1.728 1.728v12.671c0 .954.774 1.728 1.728 1.728h5.76c.954 0 1.728-.774 1.728-1.728V58.011c0-.954-.774-1.728-1.728-1.728zM38.015 72.987c0-.954.774-1.728 1.728-1.728h5.76c.954 0 1.728.774 1.728 1.728v9.216c0 .954-.774 1.728-1.728 1.728h-5.76a1.73 1.73 0 0 1-1.728-1.728zm13.248 1.728c-.954 0-1.728.774-1.728 1.728v5.76c0 .954.774 1.728 1.728 1.728h5.76c.954 0 1.728-.774 1.728-1.728v-5.76c0-.954-.774-1.728-1.728-1.728z" class="st2"/><path d="M187.187 17.752c-.915 0-1.654.739-1.654 1.653v11.637h30.727l-14.004-13.29zm30.189 16.81c0-.914-.739-1.653-1.653-1.653h-11.624v30.727l13.277-14.004zm-16.814 30.187c.914 0 1.653-.739 1.653-1.666V51.459h-30.727l13.992 13.29zm-30.187-16.808c0 .914.739 1.666 1.666 1.666h11.624V18.868l-13.29 14.004z" class="st0"/></svg>