<svg xmlns="http://www.w3.org/2000/svg" id="Layer_1" viewBox="0 0 235 153"><defs><style>.st0{isolation:isolate;opacity:.3}.st0,.st1{fill:#fffaf0;fill-rule:evenodd}.st2{fill:#8b9c8f}</style></defs><rect width="235" height="153" class="st2" rx="16" ry="16"/><path d="M17.28 62.522c0-.313.085-.62.246-.889l2.706-4.51a1.73 1.73 0 0 1 1.482-.839h12.269c.954 0 1.728.774 1.728 1.728v24.191c0 .954-.774 1.728-1.728 1.728H21.714a1.73 1.73 0 0 1-1.482-.839l-2.706-4.51a1.73 1.73 0 0 1-.246-.889zm20.735-4.511c0-.954.774-1.728 1.728-1.728h5.76c.954 0 1.728.774 1.728 1.728v9.216c0 .954-.774 1.728-1.728 1.728h-5.76a1.73 1.73 0 0 1-1.728-1.728zm13.248-1.728c-.954 0-1.728.774-1.728 1.728v12.672c0 .954.774 1.728 1.728 1.728h5.76c.954 0 1.728-.774 1.728-1.728V58.011c0-.954-.774-1.728-1.728-1.728zM38.015 72.987c0-.954.774-1.728 1.728-1.728h5.76c.954 0 1.728.774 1.728 1.728v9.216c0 .954-.774 1.728-1.728 1.728h-5.76a1.73 1.73 0 0 1-1.728-1.728zm13.248 1.729c-.954 0-1.728.774-1.728 1.728v5.76c0 .954.774 1.728 1.728 1.728h5.76c.954 0 1.728-.774 1.728-1.728v-5.76c0-.954-.774-1.728-1.728-1.728z" class="st0"/><path d="M158.625 29.5a5.875 5.875 0 0 1 5.875-5.875h47a5.875 5.875 0 0 1 5.875 5.875v35.25a5.875 5.875 0 0 1-5.875 5.875h-47a5.875 5.875 0 0 1-5.875-5.875zm5.875 5.875v11.75h20.562v-11.75zm26.437 0v11.75H211.5v-11.75zM185.062 53H164.5v11.75h20.562zm5.875 11.75V53H211.5v11.75z" class="st1"/></svg>