<svg xmlns="http://www.w3.org/2000/svg" id="Layer_1" version="1.1" viewBox="0 0 235 153"><defs><style>.st0{isolation:isolate;opacity:.3}.st0,.st1{fill:#fffaf0;fill-rule:evenodd}.st2{fill:#a2a9a3}</style></defs><rect width="235" height="153" x="0" class="st2" rx="16" ry="16"/><path d="M17.28,62.522c0-.313.085-.62.246-.889l2.706-4.51c.312-.52.875-.839,1.482-.839h12.269c.954,0,1.728.774,1.728,1.728v24.191c0,.954-.774,1.728-1.728,1.728h-12.269c-.607,0-1.169-.318-1.482-.839l-2.706-4.51c-.161-.269-.246-.576-.246-.889v-15.17ZM38.015,58.011c0-.954.774-1.728,1.728-1.728h5.76c.954,0,1.728.774,1.728,1.728v9.216c0,.954-.774,1.728-1.728,1.728h-5.76c-.954,0-1.728-.774-1.728-1.728v-9.216ZM51.263,56.283c-.954,0-1.728.774-1.728,1.728v12.672c0,.954.774,1.728,1.728,1.728h5.76c.954,0,1.728-.774,1.728-1.728v-12.672c0-.954-.774-1.728-1.728-1.728h-5.76ZM38.015,72.987c0-.954.774-1.728,1.728-1.728h5.76c.954,0,1.728.774,1.728,1.728v9.216c0,.954-.774,1.728-1.728,1.728h-5.76c-.954,0-1.728-.774-1.728-1.728v-9.216ZM51.263,74.716c-.954,0-1.728.774-1.728,1.728v5.76c0,.954.774,1.728,1.728,1.728h5.76c.954,0,1.728-.774,1.728-1.728v-5.76c0-.954-.774-1.728-1.728-1.728h-5.76Z" class="st0"/><path d="M189.629,21.774c-.986-.658-2.272-.658-3.258,0l-15.256,10.17c-.483.322-1.049.493-1.629.493h-4.986v5.875h2.937c1.623,0,2.938,1.315,2.938,2.938v17.625c0,1.622-1.315,2.938-2.938,2.938h-2.937v5.875h47v-5.875h-2.938c-1.622,0-2.937-1.315-2.937-2.938v-17.625c0-1.622,1.315-2.938,2.937-2.938h2.938v-5.875h-4.986c-.58,0-1.146-.172-1.629-.493l-15.256-10.17ZM199.75,41.25c0-1.622-1.315-2.938-2.938-2.938h-2.937c-1.622,0-2.938,1.315-2.938,2.938v17.625c0,1.622,1.316,2.938,2.938,2.938h2.937c1.623,0,2.938-1.315,2.938-2.938v-17.625ZM182.125,38.312c1.622,0,2.937,1.315,2.937,2.938v17.625c0,1.622-1.315,2.938-2.937,2.938h-2.938c-1.622,0-2.937-1.315-2.937-2.938v-17.625c0-1.622,1.315-2.938,2.937-2.938h2.938Z" class="st1"/></svg>