<svg xmlns="http://www.w3.org/2000/svg" xml:space="preserve" id="Layer_1" x="0" y="0" viewBox="0 0 40 40"><style>.st0{fill:#1e6cb3}.st1,.st2{fill-rule:evenodd;clip-rule:evenodd;fill:#fff}.st2{fill:#296bb4}</style><path d="M0 0h40v40H0z" class="st0"/><path d="M14.2 33.7V19.2H40v4l-3 3.2 3 3.2v4.1h-4.7l-2.6-2.8-2.5 2.8z" class="st1"/><path d="M15.9 32.1V20.8h9.6v2.6H19v1.7h6.4v2.6H19v1.7h6.5v2.7zm9.6 0 5.3-5.7-5.3-5.6h4.1l3.2 3.5 3.3-3.5H40l-5.2 5.6 5.2 5.5v.2h-4l-3.3-3.6-3.2 3.6z" class="st2"/><path d="M15.4 6.3h6.2l2.2 4.9V6.3h7.7l1.3 3.7 1.4-3.7H40v14.5H9z" class="st1"/><path d="m16.6 7.9-5 11.3H15l.9-2.3H21l.9 2.3h3.5l-5-11.3zm.4 6.5 1.5-3.6 1.5 3.6zm8.5 4.8V7.9h4.9l2.5 6.9 2.5-6.9H40v11.3h-3v-7.8l-2.8 7.8h-2.7l-2.9-7.8v7.8z" class="st2"/></svg>