<svg xmlns="http://www.w3.org/2000/svg" xml:space="preserve" id="Calque_1" x="0" y="0" viewBox="0 0 40 40"><style>.st0{fill:#fff}.st1{fill:#0a68b1}.st2{fill:#e31b37}</style><path d="M0 0h40v40H0z" class="st0"/><path d="M16.1 15.7c.9.4 2 .8 2.9 1.2-3 1.2-6 2.7-8.9 4.4-.9-.5-1.9-.9-2.9-1.4 3-1.7 5.9-3.1 8.9-4.2m-3.6-1.4c-3.2 1-6.2 2.4-9.1 3.9.9.4 1.8.7 2.7 1 2.8-1.7 5.8-3 8.9-4.1-.9-.2-1.6-.5-2.5-.8" class="st1"/><path d="M22.8 15.6c-2.5-1.2-5.1-2.3-7.7-3-.9.3-1.9.6-2.7.8 2.7.8 5.4 1.8 7.9 3.1.8-.4 1.7-.7 2.5-.9m4.1-1.3c-2.5-1.1-5.2-2.1-7.9-2.8-.8.2-1.7.4-2.5.6 2.6.8 5.3 1.8 7.8 2.9.8-.2 1.6-.5 2.6-.7m6.5 2.2c-6.3 2.2-12.4 5.2-17.8 9.1 1.3.8 2.6 1.7 4 2.6 5.2-4.1 10.8-7.4 16.9-10-1-.6-2.1-1.1-3.1-1.7M29 14.4c-6.6 1.8-12.8 4.5-18.6 8.3 1.2.7 2.5 1.3 3.8 2 5.6-3.9 11.7-6.8 18.2-8.8-1.2-.4-2.3-1-3.4-1.5" class="st2"/></svg>