<svg xmlns="http://www.w3.org/2000/svg" xml:space="preserve" id="Calque_1" x="0" y="0" viewBox="0 0 40 40"><style>.st0{fill:#932c40}.st1{fill:#fff}</style><path d="M0 0h40v40H0z" class="st0"/><g id="Calque_3"><path id="_x31_" d="M27.3 15.2v2.5h.3c.1-1.3.8-2 1.6-2h1.2v8c.1.6-.5.9-1.3.9v.3h4.8v-.3c-.7-.1-1.4-.1-1.4-.8v-8.2h1.1c.7 0 1.6.6 1.6 2h.3v-2.5zm-3.6 1.3c0-.4.3-.8.8-.8.9 0 1 .9.8 1.4-.3.7-.8.9-.8.9-.4-.5-.8-1-.8-1.5m-1.3 5.7c-.6-1.3-.2-2.2.5-2.7 0 0 1.3 2.6 2.6 3.9-.6.4-2.1.7-3.1-1.2M15.6 20h.5c1.4-.1 1.9.9 2 1.9.1 1.3-.5 2.4-1.7 2.4-.5 0-.8-.2-.8-.8zm4.7 3.1c.4.8 1.4 2 3 2 .9 0 1.7-.2 2.7-1.2.4.3.8.8 1.6.9.2 0 .9-.1 1.5-.8.5-.5.5-1 .5-1l-.3-.2c-.2.3-.4.5-.7.5-.6 0-.6-.3-1.4-.9.7-1 .6-1.6 1-2.1s.7-.8 1.4-.9v-.3h-2.4v.3c.5 0 .5.4.5.6-.1.6-.8 2-.9 1.9-1-1.1-2.3-3.5-2.3-3.5.9-.5 1.3-1.6 1.3-1.8 0-.9-.5-1.6-1.8-1.8-.8-.1-2.4.5-2.4 2 0 .6.4 1.3.8 2.1-1.1.5-1.9 1.3-2.3 2.4-.5-1-1.6-1.4-2.4-1.6.5-.2 2.3-.5 2.3-2.2-.1-2.1-2.8-2.5-3.7-2.5h-4.2v.4c.6 0 1.3-.1 1.3.9v7.3c0 .9-.5.9-1.3 1v.3h4.4c2.5-.1 3.5-.7 3.8-1.8M4.5 24.8h4.4c3.1-.1 3.9-1.1 3.9-2.6 0-1.6-1.5-2.1-2.4-2.4.5-.1 2.1-.7 2.1-2.2 0-2.1-2.8-2.5-3.7-2.4H4.5v.2c.6 0 1.3-.1 1.3.9v7.2c0 .9-.5.9-1.3 1zM7.9 20h.5c1.3 0 1.9.6 2 1.9s-.5 2.4-1.7 2.4c-.5 0-.8-.2-.8-.8zm.6-4.4c1.4.1 1.7 1.3 1.7 1.7 0 1.3-.4 2.3-2.4 2.3v-3.9c.2-.1.6-.1.7-.1m7.8 0c1.4.1 1.7 1.3 1.7 1.7 0 1.3-.4 2.3-2.4 2.3v-3.9c0-.1.5-.1.7-.1" class="st1"/></g></svg>