<svg xmlns="http://www.w3.org/2000/svg" xml:space="preserve" id="Calque_1" x="0" y="0" viewBox="0 0 40 40"><style>.st0{fill:#008656}.st1{fill:#fff}</style><path d="M0 0h40v40H0z" class="st0"/><path id="Calque_4" d="M7.8 28.6c-2.1 0-2.8-1.4-2.8-2.9 0-1.9 1-3.2 3-3.2.4 0 .9.1 1.3.2l-.2 1c-.4-.1-.8-.2-1.2-.2-1.1 0-1.7.9-1.7 2 0 1.3.6 2.1 1.8 2.1.4 0 .9-.1 1.2-.3l.1 1c-.4.2-1 .3-1.5.3m3.1-4.8c-.4 0-.7-.3-.7-.7s.3-.7.7-.7.7.3.7.7-.4.7-.7.7m-.6.3h1.2v4.4h-1.2zm4 4.5c-1 0-1.3-.4-1.3-1.4V25h-.8v-.9h.8v-1.4l1.2-.3v1.7h1.1v.9h-1.2v2c0 .6.1.7.5.7.2 0 .4 0 .6-.1v.9c-.3.1-.6.1-.9.1m2.6-4.8c-.4 0-.7-.3-.7-.7s.3-.7.7-.7.7.3.7.7-.4.7-.7.7m-.6.3h1.2v4.4h-1.2zm2.1 4.4v-.8l1.8-2.7h-1.8v-1h3v.8l-1.8 2.6h1.8v1.1zm7.8-1.9h-2.8q0 1.2 1.2 1.2c.4 0 .9-.1 1.3-.3l.1.9c-.5.2-1.1.3-1.6.3-1.4 0-2.2-.7-2.2-2.3 0-1.4.8-2.4 2.1-2.4s1.9.9 1.9 2c.1.2 0 .4 0 .6m-1.9-1.7c-.5 0-.8.4-.9.9h1.7c0-.6-.3-.9-.8-.9m5.6 3.6v-2.9c0-.5-.1-.7-.6-.7-.6 0-1 .7-1 1.5v2.2h-1.2v-4.4h1.1c0 .2 0 .6-.1.8.3-.5.8-.9 1.5-.9 1 0 1.3.7 1.3 1.4v3.1zm3.2.1c-.3 0-.7 0-.9-.1v-1c.3.1.6.1 1 .1s.7-.2.7-.5c0-.8-1.8-.3-1.8-1.9 0-.8.6-1.4 1.9-1.4.3 0 .6 0 .8.1v.9c-.3-.1-.5-.1-.8-.1-.5 0-.7.2-.7.5 0 .7 1.8.4 1.8 1.9-.1.9-.8 1.5-2 1.5m-8.5-9.7c-.3.3-.8.3-1.1 0L21.8 17v1.3c0 .5-.3.8-.8.8s-.8-.4-.8-.8v-1.6c0-.4.2-.6.5-.7.5-.2.9-.6 1.1-1.1.1-.3.4-.5.7-.5H24c.4 0 .8.4.8.8s-.3.8-.8.8h-1.3l1.9 1.9c.4.2.4.7 0 1m0-9.3c.3.3.3.8 0 1.1l-1.9 1.9H24c.5 0 .8.3.8.8s-.4.8-.8.8h-1.6c-.4 0-.6-.2-.7-.5-.2-.5-.6-.9-1.1-1.1-.3-.1-.5-.4-.5-.7v-1.7c0-.4.4-.8.8-.8s.8.3.8.8v1.3l1.9-1.9c.2-.3.7-.3 1 0m-9.2 0c.3-.3.8-.3 1.1 0l1.9 1.9v-1.3c0-.5.3-.8.8-.8s.8.4.8.8v1.6c0 .4-.2.6-.5.7-.5.2-.9.6-1.1 1.1-.1.3-.4.5-.7.5h-1.6c-.4 0-.8-.4-.8-.8s.3-.8.8-.8h1.3l-1.9-1.9c-.5-.3-.5-.7-.1-1m0 9.3c-.3-.3-.3-.8 0-1.1l1.9-1.9H16c-.5 0-.8-.3-.8-.8s.4-.8.8-.8h1.6c.4 0 .6.2.7.5.2.5.6.9 1.1 1.2.3.1.5.4.5.7v1.6c0 .4-.4.8-.8.8s-.8-.3-.8-.8V17l-1.9 1.9c-.2.3-.7.3-1 0" class="st1"/></svg>