<svg xmlns="http://www.w3.org/2000/svg" xml:space="preserve" id="Calque_1" x="0" y="0" viewBox="0 0 40 40"><style>.st0{fill:#1358ed}.st1,.st2{fill-rule:evenodd;clip-rule:evenodd;fill:#fff}.st2{fill:#ff220e}</style><path d="M0 0h40v40H0z" class="st0"/><path d="M13.6 24.4c-.9.9-1.9 1.4-3 1.4-2.2 0-3.7-1.6-3.7-3.8s1.6-3.8 3.7-3.8c1 0 2 .5 2.9 1.4l.1.1L15 18c-1.2-1.4-2.5-2-4.2-2s-3.3.6-4.4 1.6c-1.4.9-2 2.5-2 4.4s.6 3.5 1.9 4.6c1.1 1 2.7 1.6 4.4 1.6s3.1-.7 4.2-2zm2.7 3.5h2.4V16h-2.4zm12.1-2.6q-1.05.6-1.8.6c-.8 0-1.1-.4-1.1-1.3v-6.3H28V16h-2.5v-3.7L23 13.5V16h-2v2.3h2V25c0 1.8 1.1 3.1 2.7 3.1 1.1 0 1.8-.3 2.2-.5l.6-2.3zm2 2.6h2.5V16h-2.5z" class="st1"/><path d="M34.3 13.9c-2.2-3.2-6-5.1-9.7-5.1-3.8 0-7.5 1.9-9.7 5.1l-.2.1h2.8c1.9-2 4.4-3 7-3s5.1 1 7 3h2.8z" class="st2"/></svg>