<svg xmlns="http://www.w3.org/2000/svg" xml:space="preserve" viewBox="0 0 100 100"><path d="M34 73h32v-9.5H45.7v-8.9H63v-9.7H45.7v-8.5H66V27H34z" style="fill:#0b1b34"/><path d="M90 50c0 9.6-3.4 18.4-9 25.3l7.1 7.1c7.4-8.7 11.9-20 11.9-32.4 0-12.2-4.4-23.4-11.6-32l-7.1 7.1C86.7 31.9 90 40.6 90 50" style="fill:#03d47c"/><path d="M75.3 81c-6.9 5.6-15.7 9-25.3 9-9.4 0-18.1-3.3-24.9-8.7L18 88.4c8.7 7.3 19.9 11.6 32 11.6 12.4 0 23.7-4.5 32.4-11.9z" style="fill:#0185ff"/><path d="M19.3 75.7C13.5 68.7 10 59.8 10 50c0-22.1 17.9-40 40-40 9.8 0 18.7 3.5 25.7 9.3l7.1-7.1C74 4.6 62.5 0 50 0 22.4 0 0 22.4 0 50c0 12.5 4.6 24 12.2 32.8z" style="fill:#fed607"/></svg>