<svg xmlns="http://www.w3.org/2000/svg" xml:space="preserve" id="Layer_1" x="0" y="0" viewBox="0 0 40 40"><style>.st0{fill:#8b9c8f}.st1{fill-rule:evenodd;clip-rule:evenodd;fill:#e7ece9}</style><path d="M0 0h40v40H0z" class="st0"/><path d="M20.555 11.37a1 1 0 0 0-1.109 0l-5.193 3.462a1 1 0 0 1-.556.168H12v2h1a1 1 0 0 1 1 1v6a1 1 0 0 1-1 1h-1v2h16v-2h-1a1 1 0 0 1-1-1v-6a1 1 0 0 1 1-1h1v-2h-1.697a1 1 0 0 1-.555-.168zM24 18a1 1 0 0 0-1-1h-1a1 1 0 0 0-1 1v6a1 1 0 0 0 1 1h1a1 1 0 0 0 1-1zm-6-1a1 1 0 0 1 1 1v6a1 1 0 0 1-1 1h-1a1 1 0 0 1-1-1v-6a1 1 0 0 1 1-1z" class="st1"/></svg>