<svg xmlns="http://www.w3.org/2000/svg" xmlns:xlink="http://www.w3.org/1999/xlink" id="Calque_1" x="0" y="0" version="1.1" viewBox="0 0 40 40" style="enable-background:new 0 0 40 40" xml:space="preserve"><style type="text/css">.st0{fill:#fff}.st1{fill:#70b62c}</style><rect width="40" height="40" class="st0"/><g id="Calque_4"><g><polygon points="19.3 13.8 19.3 3.6 15.6 5.8 15.6 15.9" class="st1"/><polygon points="20.7 26.2 20.7 36.4 24.4 34.2 24.4 24.1" class="st1"/><polygon points="15.6 23.3 15.6 34.2 19.3 36.4 19.3 25.5 25.7 21.8 25.7 33.4 29.4 31.3 29.4 8.7 25.7 6.6 25.7 17.5" class="st1"/><polygon points="14.2 6.6 10.6 8.7 10.6 31.3 14.2 33.4 14.2 22.5 24.4 16.7 24.4 5.8 20.7 3.6 20.7 14.5 14.2 18.2" class="st1"/><path d="M9.1,9.5L6,11.3c-0.3,0.2-0.6,0.6-0.6,0.8v15.6c0,0.3,0.3,0.7,0.6,0.8l3.1,1.8V9.5z" class="st1"/><path d="M30.9,30.5l3.1-1.8c0.3-0.2,0.6-0.6,0.6-0.8V12.2c0-0.3-0.3-0.7-0.6-0.8l-3.1-1.8V30.5z" class="st1"/></g></g></svg>