<svg xmlns="http://www.w3.org/2000/svg" xml:space="preserve" id="Calque_1" x="0" y="0" viewBox="0 0 40 40"><style>.st0{fill:#fff}.st1{fill:#70b62c}</style><path d="M0 0h40v40H0z" class="st0"/><g id="Calque_4"><path d="M19.3 13.8V3.6l-3.7 2.2v10.1zm1.4 12.4v10.2l3.7-2.2V24.1z" class="st1"/><path d="M15.6 23.3v10.9l3.7 2.2V25.5l6.4-3.7v11.6l3.7-2.1V8.7l-3.7-2.1v10.9z" class="st1"/><path d="m14.2 6.6-3.6 2.1v22.6l3.6 2.1V22.5l10.2-5.8V5.8l-3.7-2.2v10.9l-6.5 3.7zM9.1 9.5 6 11.3c-.3.2-.6.6-.6.8v15.6c0 .3.3.7.6.8l3.1 1.8zm21.8 21 3.1-1.8c.3-.2.6-.6.6-.8V12.2c0-.3-.3-.7-.6-.8l-3.1-1.8z" class="st1"/></g></svg>