<svg xmlns="http://www.w3.org/2000/svg" xml:space="preserve" id="Calque_1" x="0" y="0" viewBox="0 0 40 40"><style>.st0{fill:#153557}.st1{fill:#fff}</style><path d="M0 0h40v40H0z" class="st0"/><path d="M8.7 25.9c-.1-.5-.4-.8-.9-.8-.8 0-1.2.7-1.2 1.5 0 .7.4 1.5 1.2 1.5.5 0 .9-.5 1-1.1h.6c-.1 1-.7 1.6-1.6 1.6-1.1 0-1.8-.9-1.8-2.1s.6-2.1 1.8-2.1c.8 0 1.5.5 1.5 1.4 0 .1-.6.1-.6.1m1.1-.2h.5v.5c.1-.3.5-.6.8-.6h.2v.6H11c-.5 0-.7.4-.7 1v1.4h-.5z" class="st1"/><path d="M12 27.3c0 .5.3.8.7.8s.5-.2.6-.5h.5c-.1.6-.6 1-1.3 1-.8 0-1.4-.6-1.4-1.5 0-.8.5-1.5 1.3-1.5s1.4.8 1.3 1.7zm1.3-.4c0-.4-.3-.7-.7-.7-.5 0-.7.4-.7.7zm3.4 1.7h-.5v-.4c-.2.4-.5.5-.8.5-.8 0-1.3-.6-1.3-1.5 0-1.1.5-1.5 1.2-1.5.4 0 .7.1.9.5v-1.4h.6zm-1.3-.5c.5 0 .7-.5.7-1 0-.6-.3-1-.7-1-.5 0-.7.5-.7 1.1 0 .5.2.9.7.9m1.9-3.5h.6v.6h-.6zm0 1.1h.6v2.9h-.6zm.8 0h.5v-.9h.6v.9h.5v.5h-.5v1.5c0 .3 0 .4.3.4h.3v.5h-.4c-.6 0-.7-.3-.7-.7v-1.7h-.5zm3.2-1.1h.6V27c0 .5 0 1.2.9 1.2.8 0 .9-.6.9-1.2v-2.3h.6v2.5c0 1-.6 1.5-1.5 1.5s-1.5-.5-1.5-1.5zm3.5 1.1h.5v.5c.2-.4.5-.5.8-.5.5 0 1 .4 1 1v2h-.6v-1.8c0-.5-.2-.6-.5-.6s-.6.4-.6.7v1.7h-.6zm2.9-1.1h.6v.6h-.6zm0 1.1h.6v2.9h-.6zm.9 1.4c0-.9.5-1.5 1.4-1.5s1.4.6 1.4 1.5-.5 1.5-1.4 1.5c-.9.1-1.4-.6-1.4-1.5m2.1 0c0-.5-.3-1-.7-1-.5 0-.7.5-.7 1s.3 1 .7 1 .7-.4.7-1m1-1.4h.5v.5c.2-.4.5-.5.8-.5.5 0 1 .4 1 1v2h-.6v-1.8c0-.5-.2-.6-.5-.6s-.6.4-.6.7v1.7h-.6zM6.1 17.2h3.1v.9H7.3v1.1h1.8v.9H7.3v1.8H6.1zm3.4 0h3.3v.9h-2.2v1h2v.9h-2v1h2.2v.9H9.5zm3.7 0h1.9c.5 0 1.3.1 1.7.4.6.5.8 1.3.8 2 0 1.1-.3 1.8-1.2 2.2-.5.2-1 .2-1.3.2h-1.9zm1.3 3.8h.5c.8 0 1.4-.4 1.4-1.4 0-1.4-1-1.4-1.4-1.4h-.5zm3.4-3.8h3.3v.9h-2.1v1h2v.9h-2v1h2.2v.9H18zm3.7 0h2.1c.8 0 1.1.1 1.4.4.1.2.3.5.3.9 0 .5-.2.7-.4.9-.3.2-.5.2-.6.3.9 0 .9.5 1 1.2 0 .4.1.8.2 1.2h-1.4c-.1-.3-.1-.6-.2-1.1s-.1-.8-.6-.8h-.5V22h-1.3zm1.3 2.1h1c.3-.1.4-.4.4-.5 0-.5-.5-.5-.8-.5H23z" class="st1"/><path d="M27.3 17.2h1.5l1.7 4.7h-1.4l-.3-1H27l-.3 1h-1.3zm1.3 2.9-.5-2-.6 2zm2.1-2.9H32V21h2v.9h-3.3zM6.1 12h1.7l1.4 3.5V12h1.1v4.7H8.6L7.1 13v3.7h-1zm6.3 0h1.5l1.7 4.7h-1.4l-.3-1h-1.8l-.4 1.1h-1.3zm1.3 2.9-.5-2-.6 2zm1-2.9H16l1 3.4 1.1-3.4h1.3l-1.6 4.7h-1.4z" class="st1"/><path d="m20.7 12 1 2 1-2H24l-1.7 3v1.7H21V15l-1.7-3zM6.1 22.5H34v1.3H6.1zm25.3-8.4c0-1.4-1.1-2.6-2.5-2.7h-.6c-.8.1-1.4.5-2 1.1v.1c-.3.5-.5 1-.5 1.5 0 1.4 1.1 2.6 2.5 2.7h.6c1.3 0 2.5-1.3 2.5-2.7m-1.6 2h-.4c.1-.2.2-.5.3-.8h.6c0 .4-.2.6-.5.8m-3-.7h.6c.1.3.2.5.3.8h-.4c-.2-.3-.3-.5-.5-.8m-.7-1.3h.4c0 .4.1.7.2 1h-.3c-.3-.2-.3-.6-.3-1m.8-1.3c.1-.3.3-.5.5-.7h.4c-.1.2-.2.4-.2.5v.2zc-.1 0 0 0 0 0m3.5 0h-.6c-.1-.3-.2-.5-.3-.8h.4c.2.2.4.5.5.8m.8 1.2h-.4c0-.4-.1-.7-.2-1h.3c.2.3.3.7.3 1m-.5 0H30c0-.4 0-.7-.1-1h.6c.1.3.2.7.2 1m-3-1.2c.1-.3.2-.5.3-.7h.6v.7zm.2-.9h-.3c.2-.1.4-.2.5-.3-.2.1-.2.2-.2.3m.6-.4v.4H28c.1-.2.3-.4.5-.4m.2.4v-.4c.2 0 .4.2.5.4zm.6.2c.1.2.2.5.3.8h-.9v-.8zm-.8.9v1h-1c0-.4 0-.7.1-1zm0 1.1v1h-.9c-.1-.3-.1-.6-.1-1zm0 1.3v.8h-.6c-.1-.2-.2-.5-.3-.8zm0 .9v.4c-.2 0-.4-.2-.5-.4zm.2 0h.5c-.2.2-.3.4-.5.4zm0-.2v-.8h.9c-.1.3-.2.5-.3.8zm0-.9v-1h1c0 .4 0 .7-.1 1zm0-1.2v-1h.9c.1.3.1.6.1 1zm.7-2.1c-.1-.1-.2-.2-.2-.3.2.1.4.2.5.3zm-2 1.1c-.1.4-.1.6-.1 1h-.7c0-.4.1-.7.2-1zm-1 1H26c0-.4.1-.7.3-1h.3c-.2.3-.2.7-.2 1m.1.1h.7c0 .4 0 .7.1 1h-.6c-.1-.2-.1-.6-.2-1m1.4 2.2c.1.1.2.2.2.3-.2-.1-.4-.2-.5-.3zm1.5 0h.3c-.2.1-.4.2-.5.3 0-.1.1-.2.2-.3m.4-1.1c.1-.3.1-.6.1-1h.7c0 .4-.1.7-.2 1zm1-1.1h.4c0 .4-.1.7-.3 1h-.3c.1-.2.2-.6.2-1m0-1.3h-.3c-.1-.3-.3-.5-.5-.8h.1c.4.2.6.5.7.8m-3.8-.7c-.1.2-.2.4-.3.5v.3h-.5c.1-.1.1-.2.2-.3.3-.2.4-.4.6-.5m-.7 3.3h.3c.1.3.3.5.5.8H27c-.2-.3-.5-.5-.7-.8m3.9.7c.1-.2.3-.5.4-.8h.3c-.2.4-.4.6-.7.8" class="st1"/></svg>