<svg xmlns="http://www.w3.org/2000/svg" xml:space="preserve" id="Calque_1" x="0" y="0" viewBox="0 0 40 40"><style>.st0{fill:#ee7623}.st1{fill:#fff}</style><path d="M0 0h40v40H0z" class="st0"/><path d="M29.2 23.8c1.8 0 3.4-.1 4.6-.4-2.4 1.4-7.3 4.3-16.8 9.8l-.5.3c-1.7 1-3.6 1.1-4.4.3-1.1-1.1-.5-3.8 1.5-7.3l1.8-3.3c.3.4.9.7 1.6.7h12.3v-.1zm-10.9-8.7c.3-.7.9-1 1.4-1.1l-1.8-3.3c-2.1-3.5-4-5.3-5.5-4.9-1.2.3-2 2-2 4v.7c-.1 11 0 16.6 0 19.4v.1c.3-1.2 1-2.6 1.8-4.2zm15.4 1.2-.5-.3c-9.4-5.5-14.3-8.4-16.8-9.7.9.9 1.7 2.2 2.7 3.7l6.2 10.6c.3.7.4 1.2.2 1.7h3.8c4 0 6.6-.9 7.1-2.4.1-1-1-2.5-2.7-3.6" class="st1"/></svg>