<svg xmlns="http://www.w3.org/2000/svg" xml:space="preserve" viewBox="0 0 40 40">
  <path fill="#fff" d="M0 0h40v40H0z"/>
  <path fill="#002856" d="M28.3 24.1c0 .6-.1 1.6-1.5 1.6-.3 0-.9 0-1.3-.3-.3-.3-.3-.7-.3-1.3V22c0-.2-.1-.3-.4-.3v-.3h1.9v.3c-.3 0-.4.1-.4.3v2.2c0 .5 0 1.1.8 1.1.9 0 .9-.7.9-1.2v-2.2c0-.2 0-.3-.3-.3h-.1v-.3h1.3v.3h-.2c-.3 0-.3.1-.3.3v2.2zm6.5 1.5h-2.1v-.3h.2c.3 0 .4-.1.4-.3v-3.2h-.4c-.2 0-.3.1-.3.2-.1.1-.1.4-.1.6h-.4v-1.1h3.4v1.1h-.3c0-.2 0-.5-.1-.6s-.2-.2-.3-.2h-.4V25c0 .2.1.3.4.3h.2zM32 24.5c-.1.7-.6 1.3-1.6 1.3-.6 0-1.2-.2-1.5-.3v-1h.3v.3s.1.2.2.3c.2.2.4.3.9.3.7 0 .9-.3.9-.7s-.3-.5-1.1-.8c-.9-.2-1.3-.5-1.3-1.3 0-.7.5-1.3 1.5-1.3.6 0 .9.1 1.3.3v.9h-.3v-.3c0-.1-.1-.3-.2-.3-.3-.3-.6-.3-.9-.3s-.8.2-.8.6c0 .3.2.5.9.7s.9.3 1.2.4c.5.4.6.7.5 1.2m-23.5-.4c-.1.8-.7 1.5-2.2 1.5-.8 0-1.6-.3-1.9-.5v-1.3h.4v.4c0 .1.1.3.2.4.3.3.6.5 1.3.5.9 0 1.3-.5 1.3-1 0-.6-.4-.8-1.5-1-1-.3-1.7-.6-1.7-1.6 0-.9.7-1.7 2.1-1.7.9 0 1.3.2 1.6.3v1.2h-.3v-.4c0-.2-.2-.3-.3-.4-.3-.1-.7-.2-1.1-.1-.5 0-1 .3-1 .8s.2.7 1.2.9c.9.2 1.3.3 1.6.6.3.5.3.9.3 1.4m4.4-2.3c.3 0 .3.1.3.3v3.1c0 .2 0 .3-.3.3h-.1v.2h1.3v-.3H14c-.3 0-.3-.1-.3-.3v-2.6l1.7 3.1h.9v-3.5c0-.2 0-.3.3-.3h.3v-.5c0-.4 0-.9.6-.9h.6v4.4c0 .3-.1.5-.5.5h-.2v.3H20v-.3h-.2c-.4 0-.5-.1-.5-.5v-4.4h.6c.6 0 .6.4.6.9v.4h.4c.3 0 .3.1.3.3v3c0 .2-.2.3-.4.3v.3h1.9v-.3c-.3 0-.4-.1-.4-.3v-3.3h.5c.4 0 .7.2.7.8 0 .3-.2.8-.7.8h-.3s.8 1.5.9 1.8c.2.3.4.4.9.4h.8v-.3c-.1 0-.3 0-.4-.2l-.9-1.5c.5-.1.9-.5.9-1 0-1-1-1-1.6-1h-1.9V20h-4.5v1.5h-1v.3h.1c.3 0 .3.1.3.3v2.6l-1.7-3.1h-2.7v.3h.1c.3 0 .3.1.3.3v2.2c0 .5-.1 1.2-.9 1.2s-.8-.6-.8-1.1v-2.2c0-.2.1-.3.4-.3v-.3H8.7v.3c.3 0 .4.1.4.3v2.1c0 .6.1.9.3 1.2.3.3 1 .3 1.3.3 1.5 0 1.5-.9 1.5-1.8v-2.2c0 .1 0 0 .3 0z"/>
  <linearGradient id="a" x1="8.091" x2="15.99" y1="3.116" y2="-6.298" gradientTransform="translate(0 14)" gradientUnits="userSpaceOnUse">
    <stop offset=".343" stop-color="#f5a800"/>
    <stop offset=".488" stop-color="#e98f07"/>
    <stop offset=".685" stop-color="#dc740e"/>
    <stop offset=".861" stop-color="#d46413"/>
    <stop offset=".994" stop-color="#d15e14"/>
  </linearGradient>
  <path fill="url(#a)" d="m8.4 14.6-.1.3c-.1.2-.1.6 0 .8l.4 2.3c0 .2.1.3.2.3s.1-.2 0-.5l-.3-3.1c-.1-.2-.2-.2-.2-.1"/>
  <linearGradient id="b" x1="8.322" x2="16.194" y1="3.337" y2="-6.043" gradientTransform="translate(0 14)" gradientUnits="userSpaceOnUse">
    <stop offset=".343" stop-color="#f5a800"/>
    <stop offset=".488" stop-color="#e98f07"/>
    <stop offset=".685" stop-color="#dc740e"/>
    <stop offset=".861" stop-color="#d46413"/>
    <stop offset=".994" stop-color="#d15e14"/>
  </linearGradient>
  <path fill="url(#b)" d="M9.3 17.1v.4c-.1 0-.1-.1-.2-.3L9 15.9c0-.2 0-.6.1-.8s.2-.1.2.1z"/>
  <linearGradient id="c" x1="7.705" x2="15.546" y1="2.836" y2="-6.509" gradientTransform="translate(0 14)" gradientUnits="userSpaceOnUse">
    <stop offset=".343" stop-color="#f5a800"/>
    <stop offset=".488" stop-color="#e98f07"/>
    <stop offset=".685" stop-color="#dc740e"/>
    <stop offset=".861" stop-color="#d46413"/>
    <stop offset=".994" stop-color="#d15e14"/>
  </linearGradient>
  <path fill="url(#c)" d="m9.9 12.4-.2 4c0 .2 0 .4-.1.4 0 0-.1-.1-.1-.3l-.1-3.4c0-.2.1-.4.2-.6l.1-.3c.1.1.2.1.2.2"/>
  <linearGradient id="d" x1="8.293" x2="16.115" y1="3.348" y2="-5.975" gradientTransform="translate(0 14)" gradientUnits="userSpaceOnUse">
    <stop offset=".343" stop-color="#f5a800"/>
    <stop offset=".488" stop-color="#e98f07"/>
    <stop offset=".685" stop-color="#dc740e"/>
    <stop offset=".861" stop-color="#d46413"/>
    <stop offset=".994" stop-color="#d15e14"/>
  </linearGradient>
  <path fill="url(#d)" d="m10.5 13.3-.3 3.1c0 .3-.1.4-.1.4-.1 0-.1-.2-.1-.3l.1-2.7c.1-.2.3-.5.4-.5 0-.3 0-.2 0 0"/>
  <linearGradient id="e" x1="7.953" x2="15.759" y1="3.077" y2="-6.225" gradientTransform="translate(0 14)" gradientUnits="userSpaceOnUse">
    <stop offset=".343" stop-color="#f5a800"/>
    <stop offset=".488" stop-color="#e98f07"/>
    <stop offset=".685" stop-color="#dc740e"/>
    <stop offset=".861" stop-color="#d46413"/>
    <stop offset=".994" stop-color="#d15e14"/>
  </linearGradient>
  <path fill="url(#e)" d="M10.6 16.1c-.1 0-.1-.3 0-.3l.4-4.3c0-.2.2-.4.3-.5v-.1c.1-.2.2-.2.2 0l-.7 4.8c-.1.2-.1.4-.2.4"/>
  <linearGradient id="f" x1="8.492" x2="16.277" y1="3.54" y2="-5.738" gradientTransform="translate(0 14)" gradientUnits="userSpaceOnUse">
    <stop offset=".343" stop-color="#f5a800"/>
    <stop offset=".488" stop-color="#e98f07"/>
    <stop offset=".685" stop-color="#dc740e"/>
    <stop offset=".861" stop-color="#d46413"/>
    <stop offset=".994" stop-color="#d15e14"/>
  </linearGradient>
  <path fill="url(#f)" d="M11.9 11.6c.1-.1.3-.1.3.1l-1 4.3c0 .2-.1.4-.2.3-.1 0-.1-.3 0-.4l.7-3.9s.1-.3.2-.4"/>
  <linearGradient id="g" x1="9.009" x2="16.74" y1="3.978" y2="-5.235" gradientTransform="translate(0 14)" gradientUnits="userSpaceOnUse">
    <stop offset=".343" stop-color="#f5a800"/>
    <stop offset=".488" stop-color="#e98f07"/>
    <stop offset=".685" stop-color="#dc740e"/>
    <stop offset=".861" stop-color="#d46413"/>
    <stop offset=".994" stop-color="#d15e14"/>
  </linearGradient>
  <path fill="url(#g)" d="M12 16q-.15.3-.3.3c-.15 0 .1-.3.1-.3l2.3-5.7c.1-.2.3-.3.4-.3s0 .4-.1.5c-1.3 3.2-1.7 4.1-2.4 5.5"/>
  <linearGradient id="h" x1="9.338" x2="17.042" y1="4.255" y2="-4.927" gradientTransform="translate(0 14)" gradientUnits="userSpaceOnUse">
    <stop offset=".343" stop-color="#f5a800"/>
    <stop offset=".488" stop-color="#e98f07"/>
    <stop offset=".685" stop-color="#dc740e"/>
    <stop offset=".861" stop-color="#d46413"/>
    <stop offset=".994" stop-color="#d15e14"/>
  </linearGradient>
  <path fill="url(#h)" d="M12.5 15.7q.15 0 .3-.3l4.3-7.1c.1-.1.1-.3 0-.4s-.3.1-.4.3l-4 7.2c-.1.1-.2.3-.2.3"/>
  <linearGradient id="i" x1="10.102" x2="17.784" y1="4.902" y2="-4.252" gradientTransform="translate(0 14)" gradientUnits="userSpaceOnUse">
    <stop offset=".343" stop-color="#f5a800"/>
    <stop offset=".488" stop-color="#e98f07"/>
    <stop offset=".685" stop-color="#dc740e"/>
    <stop offset=".861" stop-color="#d46413"/>
    <stop offset=".994" stop-color="#d15e14"/>
  </linearGradient>
  <path fill="url(#i)" d="M12.7 16.5c-.1-.1 0-.3.2-.4l4.6-6.6c0-.3.3-.5.5-.4s.2.3 0 .4l-5 6.6c-.1.3-.3.4-.3.4"/>
  <linearGradient id="j" x1="11.148" x2="18.806" y1="5.781" y2="-3.345" gradientTransform="translate(0 14)" gradientUnits="userSpaceOnUse">
    <stop offset=".343" stop-color="#f5a800"/>
    <stop offset=".488" stop-color="#e98f07"/>
    <stop offset=".685" stop-color="#dc740e"/>
    <stop offset=".861" stop-color="#d46413"/>
    <stop offset=".994" stop-color="#d15e14"/>
  </linearGradient>
  <path fill="url(#j)" d="m14 15.7-.3.3c-.1-.1.1-.2.2-.3l.2-.2 6.4-7.3c.1-.1.3-.2.3 0l.2.3c.1.1.1.3 0 .4z"/>
  <linearGradient id="k" x1="11.83" x2="19.463" y1="6.357" y2="-2.739" gradientTransform="translate(0 14)" gradientUnits="userSpaceOnUse">
    <stop offset=".343" stop-color="#f5a800"/>
    <stop offset=".488" stop-color="#e98f07"/>
    <stop offset=".685" stop-color="#dc740e"/>
    <stop offset=".861" stop-color="#d46413"/>
    <stop offset=".994" stop-color="#d15e14"/>
  </linearGradient>
  <path fill="url(#k)" d="M13.5 16.9c-.1-.1.1-.2.3-.3l6.8-6.3c.1-.1.3-.1.4 0 .2.2.2.3.2.3 0 .2-.1.3-.2.4l-7.1 5.6c-.2.3-.4.4-.4.3"/>
  <linearGradient id="l" x1="12.919" x2="20.526" y1="7.274" y2="-1.791" gradientTransform="translate(0 14)" gradientUnits="userSpaceOnUse">
    <stop offset=".343" stop-color="#f5a800"/>
    <stop offset=".488" stop-color="#e98f07"/>
    <stop offset=".685" stop-color="#dc740e"/>
    <stop offset=".861" stop-color="#d46413"/>
    <stop offset=".994" stop-color="#d15e14"/>
  </linearGradient>
  <path fill="url(#l)" d="m14.9 16.4 7.9-5.7c.2-.1.3-.1.3.1l.2.6c0 .2-.1.3-.3.5l-8 4.7c-.2.1-.4.3-.4.2-.1-.2.1-.3.3-.4"/>
  <linearGradient id="m" x1="13.349" x2="20.917" y1="7.626" y2="-1.393" gradientTransform="translate(0 14)" gradientUnits="userSpaceOnUse">
    <stop offset=".343" stop-color="#f5a800"/>
    <stop offset=".488" stop-color="#e98f07"/>
    <stop offset=".685" stop-color="#dc740e"/>
    <stop offset=".861" stop-color="#d46413"/>
    <stop offset=".994" stop-color="#d15e14"/>
  </linearGradient>
  <path fill="url(#m)" d="M14.1 17.5c0-.1.2-.2.4-.3l7.1-3.5c.2-.1.3-.1.3.1v.8c0 .2-.2.3-.4.4l-7 2.4c-.2.2-.4.2-.4.1"/>
  <linearGradient id="n" x1="14.396" x2="21.914" y1="8.5" y2="-.46" gradientTransform="translate(0 14)" gradientUnits="userSpaceOnUse">
    <stop offset=".343" stop-color="#f5a800"/>
    <stop offset=".488" stop-color="#e98f07"/>
    <stop offset=".685" stop-color="#dc740e"/>
    <stop offset=".861" stop-color="#d46413"/>
    <stop offset=".994" stop-color="#d15e14"/>
  </linearGradient>
  <path fill="url(#n)" d="m22.3 16.9-6.8.9c-.3 0-.4.1-.5 0 0-.1.2-.2.4-.3l7.1-2.2c.3-.1.4 0 .3.2l-.1.8c.1.3-.1.5-.4.6"/>
  <linearGradient id="o" x1="14.502" x2="21.958" y1="8.579" y2="-.308" gradientTransform="translate(0 14)" gradientUnits="userSpaceOnUse">
    <stop offset=".343" stop-color="#f5a800"/>
    <stop offset=".488" stop-color="#e98f07"/>
    <stop offset=".685" stop-color="#dc740e"/>
    <stop offset=".861" stop-color="#d46413"/>
    <stop offset=".994" stop-color="#d15e14"/>
  </linearGradient>
  <path fill="url(#o)" d="M14.6 18.5c0-.1.3-.2.6-.2l6-.7c.3 0 .5.1.4.3l-.1.3q-.15.3-.6.3h-5.8c-.3.1-.5.1-.5 0"/>
  <linearGradient id="p" x1="8.443" x2="16.201" y1="3.502" y2="-5.745" gradientTransform="translate(0 14)" gradientUnits="userSpaceOnUse">
    <stop offset=".343" stop-color="#f5a800"/>
    <stop offset=".488" stop-color="#e98f07"/>
    <stop offset=".685" stop-color="#dc740e"/>
    <stop offset=".861" stop-color="#d46413"/>
    <stop offset=".994" stop-color="#d15e14"/>
  </linearGradient>
  <path fill="url(#p)" d="M13.7 9.6s-1.7 5.3-1.8 5.7c-.1.3-.2.6-.3.6s0-.2.1-.4l1.6-5.9c.1-.3.3-.4.4-.4.2-.2.1.2 0 .4"/>
</svg>
