<svg xmlns="http://www.w3.org/2000/svg" xml:space="preserve" id="Calque_1" x="0" y="0" viewBox="0 0 40 40"><style>.st0{fill:#1b3359}.st1{fill:#fff}</style><path d="M0 0h40v40H0z" class="st0"/><g id="Calque_4"><path d="M7.9 25.1v4.5c0 2.5 1.6 2.9 2.9 2.9 1.9 0 2.8-1.2 2.8-2.9v-4.4h-1.3v4.5c0 .6-.2 1.7-1.5 1.6-1.2 0-1.5-1.1-1.5-1.8v-4.4zm10.9.3s-.8-.4-1.7-.4c-1.1 0-2.6.6-2.6 2.2 0 1.1.8 1.6 1.4 1.9.3.1.7.3 1 .5.2.1.8.3.8.9 0 .7-.8.9-1.1.9-1.2 0-2.1-.6-2.1-.6l.1 1.4s.5.3 2 .3c1.4 0 2.5-.9 2.5-2.2 0-1-.7-1.5-1.2-1.8-.5-.2-.7-.3-1.1-.5s-.8-.5-.8-1 .5-.9 1.2-.9c1.1 0 1.5.5 1.7.6zm10.2-.3h-1.5l.2.6-2.4 6.1-2.3-6.7h-1.5l.2.6-2.5 6.5h1.4l.4-1.3h2.6l.4 1.3h2.6l.4-1.3h2.6l.4 1.3h1.5zm-7.6 4.8 1-2.8.9 2.8zm6 0 1-2.8.9 2.8zM7.8 17l.1 2.3s.6-.4 1.2-.4 1.3.4 1.3.4l5.6 3.2.5-2-6.1-3.5s-.7-.4-1.3-.4-1.3.4-1.3.4" class="st1"/><path d="m7.8 14.1.1 2.3s.6-.4 1.2-.4 1.3.4 1.3.4l6.2 3.6.5-2-6.7-3.9s-.7-.4-1.3-.4-1.3.4-1.3.4" class="st1"/><path d="m7.8 11.1.1 2.3s.6-.4 1.2-.4 1.3.4 1.3.4l6.8 3.9.5-2-7.3-4.2s-.7-.4-1.3-.4-1.3.4-1.3.4" class="st1"/><path d="m19.5 7.7.6 2.7 8.5 4.8s.7.4 1.3.4c.7 0 1.3-.5 1.3-.5v-2.2s-.5.4-1.2.4-1.3-.4-1.3-.4l-6.6-3.8-.5-1.7c0-.1.1-.1.1-.1l1.1-.3c.2.1.2.2.2.3l.1.1.2-.1v-.7c0-.5-.4-.8-.8-.8h-1.1s-.2-.4-.6-.4h-2.1c-.6 0-.7.5-.7.5l-1.6 5.8-6-3.5s-.7-.4-1.3-.4c-.7 0-1.3.5-1.3.5l.1 2.3s.5-.4 1.2-.4 1.3.4 1.3.4l7.4 4.3z" class="st1"/><path d="m20.3 10.9.6 2.7 7.7 4.5s.7.4 1.3.4 1.3-.5 1.3-.5v-2.2s-.5.4-1.2.4-1.3-.4-1.3-.4z" class="st1"/><path d="m21.1 14.4.6 2.7 6.9 4s.7.4 1.3.4 1.3-.5 1.3-.5v-2.2s-.5.4-1.2.4-1.3-.4-1.3-.4z" class="st1"/><path d="m21.9 17.8.6 2.7 6.1 3.6s.7.4 1.3.4 1.3-.5 1.3-.5v-2.3s-.5.4-1.2.4-1.3-.4-1.3-.4z" class="st1"/></g></svg>