<svg xmlns="http://www.w3.org/2000/svg" id="Layer_1" viewBox="0 0 20 20"><defs><clipPath id="clippath"><path d="M0 0h20v20H0z" class="st0"/></clipPath><style>.st0{fill:none}.st1{fill-rule:evenodd}.st2{clip-path:url(#clippath)}</style></defs><g class="st2"><path d="M10 0c5.523 0 10 4.477 10 10s-4.477 10-10 10S0 15.523 0 10 4.477 0 10 0m4.496 6.773c-.867-.385-1.835-.384-2.566.132-.111.079-.022.253.106.204a2.29 2.29 0 0 1 2.335.414c.909.782 1.327 2.282.498 3.271-.273.326-.652.567-1.077.627-.755.107-1.521-.151-2.149-.558a4.5 4.5 0 0 1-.92-.791 14 14 0 0 1-.916-1.139c-.478-.667-.886-1.339-1.583-1.804-.572-.38-1.254-.599-1.943-.556s-1.389.378-1.913.869c-.946.888-1.116 2.376-.521 3.532.429.834 1.167 1.432 2 1.825.153.074.253-.103.158-.19-.786-.716-1.514-1.85-1.257-2.772.155-.565.463-.793.944-.788.358.002.832.426 1.062.734q.125.17.257.335c.625.785 1.217 1.392 2.494 2.271v.002c2.674 1.935 6.683 1.267 6.984-2.315a3.3 3.3 0 0 0-1.993-3.306Zm-8.988 2.53c-.521.131-.678.832-.501 1.431l.006.018c.679 1.841 2.861 3.186 4.487 2.247a.2.2 0 0 0 .045-.036l.002-.002a.186.186 0 0 0-.032-.281l-.467-.315a.2.2 0 0 0-.102-.032c-.192-.004-.608-.004-.887-.035-1.491-.13-2.875-1.48-2.454-2.891a.083.083 0 0 0-.098-.103Zm.575 1.216c-.046-.041-.115.008-.093.066.095.247.332.672.908 1.054.27.178.619.26.998.31q.167.022.328.032c.06.003.089-.075.041-.112a9 9 0 0 1-.609-.529v-.002a.35.35 0 0 0-.244-.095c-.491.014-1.057-.477-1.329-.723Zm8.415-1.028a.23.23 0 0 0-.297-.066c-.173.095-.356.179-.52.28a4 4 0 0 0-.472.339c-.272.228-.53.472-.782.72a.165.165 0 0 0 .053.271c.618.252 1.282.154 1.282.154.019-.003.848-.138 1.002-.719.104-.396-.113-.774-.267-.978Zm-7.867.604c-.428-.538-.812-.816-.812-.171 0 .115.063.222.164.283.402.243.774.632 1.203.744.074.019.127-.066.076-.12a12 12 0 0 1-.633-.734v-.002Zm7.335-1.102c-.273-.084-.699-.205-1.327.072-.677.299-1.186.701-1.426.875a.147.147 0 0 0-.025.216c.126.144.378.388.769.576.062.03.136.014.179-.039.233-.281 1.203-1.135 1.843-1.426.123-.056.116-.235-.013-.274m-1.035-1.785c-.618.003-1.16.32-1.587.748a6 6 0 0 0-.58.716c-.33.462-.46.538-.254.775l.186.215c.104.121.206.182.335.089.299-.213.681-.457.995-.645.35-.207.734-.405 1.148-.439.404-.033.828.071 1.158.303.252.177.458.425.56.719h.001c.035.093.173.076.184-.021.074-.594-.236-1.286-.614-1.723-.379-.437-.939-.738-1.532-.736Z" class="st1"/></g></svg>