<svg xmlns="http://www.w3.org/2000/svg" id="Layer_1" viewBox="0 0 20 20"><defs><clipPath id="clippath"><path d="M0 0h20v20H0z" class="st0"/></clipPath><style>.st0{fill:none}.st1{fill-rule:evenodd}.st2{clip-path:url(#clippath)}</style></defs><g class="st2"><path d="M6.374 10.824q.251 0 .357.128.107.125.11.406h-.98q.018-.256.142-.391a.48.48 0 0 1 .37-.144Zm9.792 0q.252 0 .358.128.106.125.11.406h-.981a.63.63 0 0 1 .143-.391.48.48 0 0 1 .369-.144ZM4.334 7.732a.404.404 0 1 1 0 .807h-.692a.404.404 0 1 1 0-.807z"/><path d="M10 0c5.523 0 10 4.477 10 10s-4.477 10-10 10S0 15.523 0 10 4.477 0 10 0m-.179 9.74q-.447 0-.706.197a.66.66 0 0 0-.262.546.62.62 0 0 0 .162.425q.164.175.53.318l.287.112q.28.107.386.208a.33.33 0 0 1 .102.25.37.37 0 0 1-.17.322q-.171.12-.477.12a2 2 0 0 1-.775-.167l-.028-.011v.35l.117.049q.058.022.125.04a2.4 2.4 0 0 0 .591.082q.473 0 .736-.206a.71.71 0 0 0 .269-.587.65.65 0 0 0-.165-.445q-.16-.187-.539-.334l-.287-.112a1.3 1.3 0 0 1-.374-.201.3.3 0 0 1-.102-.22c0-.265.193-.394.588-.394.21 0 .444.054.693.162l.028.013v-.35l-.011-.005a1.2 1.2 0 0 0-.337-.118 1.7 1.7 0 0 0-.382-.045Zm-3.447.768q-.43 0-.665.261c-.156.177-.228.417-.229.756 0 .339.081.606.241.786q.245.268.716.269.206 0 .381-.038a.9.9 0 0 0 .287-.104l.01-.007v-.326l-.029.013a1.6 1.6 0 0 1-.302.104 1.4 1.4 0 0 1-.312.032q-.294 0-.441-.144-.142-.143-.168-.446h1.346v-.236c0-.61-.281-.919-.834-.919Zm4.619.041v1.226q0 .388.181.596.185.208.519.209a.85.85 0 0 0 .682-.342l.054.301h.266v-1.988h-.377v1.284a.7.7 0 0 1-.228.312.5.5 0 0 1-.315.115q-.2 0-.301-.127-.103-.129-.104-.371v-1.215zm5.173-.041q-.43 0-.664.261c-.156.177-.228.417-.229.756 0 .339.081.606.24.786q.245.268.716.269.207 0 .382-.038a.9.9 0 0 0 .286-.104l.01-.007v-.326l-.029.013a1.6 1.6 0 0 1-.302.104 1.4 1.4 0 0 1-.312.032q-.294 0-.441-.144-.142-.143-.168-.446h1.346v-.235c0-.61-.281-.92-.834-.92Zm-8.35-.496-.136.534-.338.113v.206h.336v1.058q0 .321.139.476.145.155.44.155.06 0 .113-.003a1 1 0 0 0 .111-.016l.017-.004v-.33l-.022.002-.082.012-.084.005q-.257.001-.256-.301v-1.054h.422v-.317h-.422v-.537zm6.574 0-.136.534-.339.113v.206h.336v1.058q0 .321.14.476.145.155.441.155.06 0 .113-.003a1 1 0 0 0 .111-.016l.016-.004v-.33l-.022.002-.081.012h-.001l-.084.005q-.257.001-.256-.301v-1.054h.422v-.317h-.422v-.537zM3 9.784v2.753h.384v-2.095l1.406 2.086.007.009h.359V9.784h-.384v2.096L3.366 9.794l-.007-.01zm10.058.766v.169l.194.123v1.695h.377V10.55zm.116-.646v.343h.451v-.343zM5.102 7.512v1.249h.239V7.734h.795c.112 0 .202.09.202.201s-.09.203-.202.203H5.46l.717.624h.348l-.48-.404h.109l.085-.01a.422.422 0 0 0-.087-.836zm6.71.001a.624.624 0 0 0 0 1.249h.741l.141-.221h-.865a.41.41 0 0 1-.39-.295h1.025l.142-.22h-1.167a.4.4 0 0 1 .389-.294h.704l.141-.22zm-8.187-.001a.624.624 0 1 0 0 1.249s.726 0 .726 0a.624.624 0 0 0-.001-1.248zM7.486 7.5a.18.18 0 0 0-.148.077l-.756 1.184h.283l.621-.985.338.545h-.64l.142.221h.649l.133.22h.282l-.758-1.186a.18.18 0 0 0-.146-.075Zm2.397.012v1.13q.001.048.035.083a.12.12 0 0 0 .087.036h1.094l.143-.22h-1.119V7.512zm-.989-.001a.625.625 0 0 0 0 1.249h.739l.141-.22H8.91a.404.404 0 1 1 0-.807h.704l.143-.222h-.862Z" class="st1"/></g></svg>