<?xml version="1.0" encoding="UTF-8"?>
<svg id="Layer_1" xmlns="http://www.w3.org/2000/svg" xmlns:xlink="http://www.w3.org/1999/xlink" version="1.1" viewBox="0 0 20 20">
  <!-- Generator: Adobe Illustrator 29.5.1, SVG Export Plug-In . SVG Version: 2.1.0 Build 141)  -->
  <defs>
    <style>
      .st0 {
        fill: none;
      }

      .st1 {
        fill-rule: evenodd;
      }

      .st2 {
        clip-path: url(#clippath);
      }
    </style>
    <clipPath id="clippath">
      <rect class="st0" width="20" height="20"/>
    </clipPath>
  </defs>
  <g class="st2">
    <g>
      <path d="M6.374,10.824c.167,0,.287.043.357.128.071.083.108.219.11.406h-.98c.012-.17.06-.301.142-.391.087-.095.213-.144.37-.144Z"/>
      <path d="M16.166,10.824c.167,0,.288.043.358.128.07.083.108.219.11.406h-.981c.012-.17.061-.301.143-.391.087-.094.212-.144.369-.144Z"/>
      <path d="M4.334,7.732c.223,0,.405.181.405.404,0,.223-.181.403-.405.403h-.692c-.223,0-.404-.181-.404-.403,0-.223.181-.404.404-.404h.692Z"/>
      <path class="st1" d="M10,0c5.523,0,10,4.477,10,10s-4.477,10-10,10S0,15.523,0,10,4.477,0,10,0ZM9.821,9.74c-.297,0-.534.066-.706.197-.173.133-.262.316-.262.546,0,.161.054.304.162.425.108.116.287.223.53.318l.287.112c.185.071.316.141.386.208.068.065.102.149.102.25,0,.139-.056.244-.17.322-.113.079-.274.12-.477.12-.245,0-.506-.056-.775-.167l-.028-.011v.35l.117.049c.039.014.08.028.125.04.09.025.188.045.29.06.104.015.206.022.301.022.314,0,.562-.069.736-.206.178-.14.269-.338.269-.587,0-.174-.056-.323-.165-.445-.106-.124-.288-.236-.539-.334l-.287-.112c-.178-.071-.304-.138-.374-.201-.068-.061-.101-.133-.102-.22,0-.265.193-.394.588-.394.21,0,.444.054.693.162l.028.013v-.35l-.011-.005c-.093-.05-.206-.091-.337-.118-.13-.03-.259-.045-.382-.045ZM6.374,10.508c-.286,0-.51.088-.665.261-.156.177-.228.417-.229.756,0,.339.081.606.241.786.162.178.403.269.716.269.137,0,.265-.013.381-.038.119-.025.216-.06.287-.104l.01-.007v-.326l-.029.013c-.102.046-.204.082-.302.104-.098.022-.203.032-.312.032-.195,0-.344-.048-.441-.144-.094-.094-.151-.245-.168-.446h1.346v-.236c0-.61-.281-.919-.834-.919ZM10.993,10.549v1.226c0,.258.061.458.181.596.123.138.297.209.519.209.144,0,.28-.034.401-.1.11-.058.204-.14.281-.242l.054.301h.266v-1.988h-.377v1.284c-.051.129-.127.234-.228.312-.098.076-.203.115-.315.115-.132,0-.234-.043-.301-.127-.069-.085-.103-.21-.104-.371v-1.215h-.377ZM16.166,10.508c-.285,0-.509.088-.664.261-.156.177-.228.417-.229.756,0,.339.081.606.24.786.162.178.403.269.716.269.137,0,.266-.013.382-.038.119-.025.215-.06.286-.104l.01-.007v-.326l-.029.013c-.102.046-.204.082-.302.104-.098.022-.203.032-.312.032-.195,0-.344-.048-.441-.144-.094-.094-.151-.245-.168-.446h1.346v-.235c0-.61-.281-.92-.834-.92ZM7.816,10.012l-.136.534-.338.113v.206h.336v1.058c0,.213.046.374.139.476.096.104.244.155.44.155.04,0,.078,0,.113-.003.038-.003.075-.008.111-.016l.017-.004v-.33l-.022.002c-.025.003-.053.007-.082.012h0c-.027.004-.055.005-.084.005-.172,0-.256-.099-.256-.301v-1.054h.422v-.317h-.422v-.537h-.237ZM14.39,10.012l-.136.534-.339.113v.206h.336v1.058c0,.213.047.374.14.476.096.104.245.155.441.155.04,0,.078,0,.113-.003.038-.003.075-.008.111-.016l.016-.004v-.33l-.022.002c-.025.003-.053.007-.081.012h-.001c-.027.004-.055.005-.084.005-.172,0-.256-.099-.256-.301v-1.054h.422v-.317h-.422v-.537h-.237ZM3,9.784v2.753h.384v-2.095l1.406,2.086.007.009h.359v-2.753h-.384v2.096l-1.406-2.086-.007-.01h-.359ZM13.058,10.55v.169l.194.123v1.695h.377v-1.987h-.571ZM13.174,9.904v.343h.451v-.343h-.451ZM5.102,7.512v1.249h.239v-1.027h.795c.112,0,.202.09.202.201,0,.111-.09.203-.202.203h-.676l.717.624h.348l-.48-.404h.109l.085-.01c.193-.039.336-.21.336-.414,0-.233-.189-.422-.423-.422h-1.05ZM11.812,7.513c-.344,0-.624.279-.624.625s.28.624.624.624h.741l.141-.221h-.865c-.185,0-.341-.126-.39-.295h1.025l.142-.22h-1.167c.048-.171.203-.294.389-.294h.704l.141-.22h-.86ZM3.625,7.512c-.346,0-.625.279-.625.625,0,.346.279.624.625.624h0s.726,0,.726,0c.345,0,.623-.279.623-.623,0-.344-.278-.625-.624-.625h-.726ZM7.486,7.5c-.06,0-.116.029-.148.077l-.756,1.184h.283l.621-.985.338.545h-.64l.142.221h.649l.133.22h.282l-.758-1.186c-.033-.047-.086-.075-.146-.075ZM9.883,7.512v1.13c0,.031.013.061.035.083.022.024.055.036.087.036h1.094l.143-.22h-1.119v-1.029h-.239ZM8.894,7.511c-.345,0-.625.28-.625.626,0,.346.28.623.625.623h.739l.141-.22h-.864c-.224,0-.405-.181-.405-.403,0-.222.181-.404.405-.404h.704l.143-.222h-.862Z"/>
    </g>
  </g>
</svg>