<svg xmlns="http://www.w3.org/2000/svg" id="Layer_1" viewBox="0 0 20 20"><defs><clipPath id="clippath"><path d="M0 0h20v20H0z" class="st0"/></clipPath><style>.st0{fill:none}.st1{fill-rule:evenodd}.st2{clip-path:url(#clippath)}</style></defs><g class="st2"><path d="M10 0c5.523 0 10 4.477 10 10s-4.477 10-10 10S0 15.523 0 10 4.477 0 10 0m1.749 8.444c-.916 0-1.62.703-1.62 1.62 0 .999.688 1.359 1.498 1.621.695.221 1.104.442 1.104.974 0 .467-.368.827-.933.827-.532 0-.958-.393-.966-.925-.008-.237-.164-.36-.352-.36s-.352.131-.352.418c0 .851.761 1.506 1.678 1.506.95 0 1.629-.671 1.629-1.53 0-.958-.704-1.286-1.498-1.548-.688-.229-1.104-.475-1.104-1.056 0-.516.409-.909.925-.909.532 0 .974.377.974.941 0 .336-.163.418-.163.606 0 .18.139.327.344.327.303 0 .523-.418.523-.958 0-.884-.762-1.555-1.687-1.555ZM4.547 6.25C3.671 6.25 3 6.905 3 7.74c0 .925.647 1.26 1.425 1.538.696.246 1.031.467 1.031.991 0 .425-.336.777-.844.777-.483 0-.908-.336-.908-.859 0-.295.139-.369.139-.532 0-.188-.131-.327-.344-.327-.245 0-.499.368-.499.892 0 .843.728 1.466 1.612 1.466.9 0 1.548-.663 1.548-1.49 0-.949-.68-1.269-1.425-1.539-.696-.254-1.031-.474-1.031-.974 0-.458.36-.794.835-.794.507 0 .909.352.917.826.008.221.164.353.344.353a.34.34 0 0 0 .352-.368c-.016-.843-.729-1.449-1.604-1.449Zm3.598 2.194c-.901 0-1.646.696-1.646 1.629 0 .9.737 1.612 1.621 1.612.393 0 .695-.131.695-.385a.325.325 0 0 0-.319-.319c-.114 0-.197.049-.385.049-.507 0-.908-.442-.908-.957 0-.557.409-.991.925-.991.581 0 .949.442.949 1.089v1.171c0 .205.164.344.36.344a.343.343 0 0 0 .353-.344v-1.195c0-.982-.68-1.702-1.646-1.702Zm7.258 0c-.9 0-1.629.72-1.629 1.62s.753 1.621 1.67 1.621c.458 0 .827-.123 1.073-.278.245-.155.344-.286.344-.434 0-.156-.115-.295-.328-.295-.253 0-.458.368-1.08.368a.974.974 0 0 1-.975-.982c0-.54.426-.99.95-.99.564 0 .867.368.867.605 0 .065-.049.099-.114.099h-.704c-.188 0-.327.131-.327.295 0 .172.139.303.327.303h.941c.36 0 .581-.188.581-.499 0-.802-.688-1.433-1.597-1.433Z" class="st1"/></g></svg>