<?xml version="1.0" encoding="UTF-8"?>
<svg id="Layer_1" xmlns="http://www.w3.org/2000/svg" xmlns:xlink="http://www.w3.org/1999/xlink" version="1.1" viewBox="0 0 20 20">
  <!-- Generator: Adobe Illustrator 29.5.1, SVG Export Plug-In . SVG Version: 2.1.0 Build 141)  -->
  <defs>
    <style>
      .st0 {
        fill: none;
      }

      .st1 {
        fill-rule: evenodd;
      }

      .st2 {
        clip-path: url(#clippath);
      }
    </style>
    <clipPath id="clippath">
      <rect class="st0" width="20" height="20"/>
    </clipPath>
  </defs>
  <g class="st2">
    <g>
      <path d="M10,0c5.523,0,10,4.477,10,10s-4.477,10-10,10c-3.904,0-7.283-2.238-8.93-5.5h8.43l9-9H1.07C2.717,2.238,6.096,0,10,0Z"/>
      <path class="st1" d="M2.953,7.156c.633,0,1.424.158,2.018.475l-.634,1.068c-.633-.316-.949-.317-1.305-.356-.514-.04-.792.159-.792.356,0,.277.515.475.989.633.712.237,1.622.554,1.78,1.424l1.306-3.481h1.543l1.543,4.193v-4.193h1.78c1.701,0,2.492.554,2.492,1.899,0,1.187-.831,1.859-2.216,1.859h-.554v1.582h-2.69l-.197-.672c-.593.198-1.266.158-1.859,0l-.277.672h-1.503l.079-.355c-.435.396-1.227.554-1.741.554-.751,0-1.384-.159-1.978-.515l.554-1.068c.593.356.989.435,1.464.396.277,0,.672-.079.712-.435,0-.277-.396-.435-.91-.594-.395-.119-.831-.276-1.187-.514-.435-.316-.633-.713-.633-1.267.04-.396.159-.751.436-1.028.396-.396,1.029-.633,1.78-.633ZM7.067,8.976l-.555,1.78c.356.119.752.119,1.147,0l-.554-1.78h-.039ZM10.904,8.422v1.424h.396c.514,0,.91-.197.91-.751,0-.514-.396-.673-.91-.673h-.396Z"/>
    </g>
  </g>
</svg>