<?xml version="1.0" encoding="UTF-8"?>
<svg id="Layer_1" xmlns="http://www.w3.org/2000/svg" xmlns:xlink="http://www.w3.org/1999/xlink" version="1.1" viewBox="0 0 20 20">
  <!-- Generator: Adobe Illustrator 29.5.1, SVG Export Plug-In . SVG Version: 2.1.0 Build 141)  -->
  <defs>
    <style>
      .st0 {
        fill: none;
      }

      .st1 {
        fill-rule: evenodd;
      }

      .st2 {
        clip-path: url(#clippath);
      }
    </style>
    <clipPath id="clippath">
      <rect class="st0" width="20" height="20"/>
    </clipPath>
  </defs>
  <g class="st2">
    <g>
      <path d="M8.786,8.354c.766,0,1.408.532,1.576,1.247h-3.147c0-.008,0-.017,0-.025.178-.702.813-1.222,1.57-1.222Z"/>
      <path class="st1" d="M15.487,8.361c.887,0,1.609.722,1.609,1.609,0,.887-.722,1.608-1.609,1.608-.887,0-1.608-.721-1.608-1.608,0-.887.721-1.609,1.608-1.609ZM15.488,9.415c-.307,0-.556.249-.556.556,0,.306.249.556.556.556s.556-.249.556-.556c0-.306-.25-.556-.556-.556Z"/>
      <path class="st1" d="M10,0c5.523,0,10,4.477,10,10s-4.477,10-10,10S0,15.523,0,10,4.477,0,10,0ZM9.995,8.078c-.76-.483-1.765-.456-2.499.066-.599.426-.944,1.124-.944,1.842,0,.18.021.361.066.54.226.89.991,1.563,1.903,1.675.271.033.534.018.807-.053.234-.057.461-.152.67-.286.217-.139.399-.324.574-.544.003-.004.007-.008.011-.012.122-.151.099-.365-.035-.468-.113-.086-.302-.122-.451.069-.032.046-.068.093-.107.14-.119.131-.266.258-.442.356-.224.12-.48.188-.751.189-.889-.01-1.366-.631-1.535-1.074-.03-.083-.052-.168-.068-.257-.002-.016-.003-.032-.004-.047.183,0,3.153,0,3.191-.001.438-.009.673-.318.608-.671-.132-.624-.473-1.137-.993-1.466ZM15.487,7.729c-1.236,0-2.242,1.006-2.242,2.242,0,1.236,1.006,2.242,2.242,2.242,1.236,0,2.243-1.006,2.243-2.242,0-1.236-1.007-2.242-2.243-2.242ZM6.275,7.739c-.082,0-.159.032-.217.091l-1.705,1.705-1.713-1.707c-.058-.057-.135-.089-.216-.089-.168,0-.306.137-.306.306,0,.082.033.16.092.218l1.706,1.706-1.705,1.709c-.06.059-.093.136-.093.219,0,.169.137.306.306.306.081,0,.158-.032.216-.09l1.71-1.707,1.704,1.701c.06.062.138.096.221.096.169,0,.307-.137.307-.306,0-.081-.032-.158-.09-.216l-1.705-1.71,1.706-1.711c.057-.058.089-.134.089-.215,0-.169-.138-.306-.307-.306ZM12.992,7.767c-.282,0-.555.089-.782.265-.03-.137-.153-.24-.299-.24-.168,0-.302.134-.303.303,0,.015,0,3.776,0,3.776,0,.168.137.305.306.305s.305-.136.306-.305v-2.322c0-.774.071-1.087.733-1.17.061-.008.129-.006.129-.006.181-.006.31-.131.31-.3,0-.168-.138-.306-.307-.306h-.094Z"/>
    </g>
  </g>
</svg>