<svg width="164" height="191" viewBox="0 0 164 191" fill="none" xmlns="http://www.w3.org/2000/svg">
    <g clip-path="url(#clip0_4972_8498)">
        <path d="M162.541 135.781C162.541 138.302 162.77 138.302 161.051 141.052C159.331 143.804 130.905 183.805 128.613 186.672C127.237 188.391 126.355 189.329 125.176 189.802L125.118 189.651V175.495C125.118 173.79 125.052 172.991 124.46 172.618L124.83 172.572C124.83 172.572 157.195 122.361 161.165 115.836C162.086 114.326 162.478 113.064 162.478 112.031H162.541V135.781Z" fill="#0164BF"/>
        <path d="M162.478 112.031C162.478 113.064 162.086 114.326 161.165 115.836C157.195 122.361 124.83 172.572 124.83 172.572L124.46 172.618C123.936 172.287 122.999 172.287 121.335 172.287C117.781 172.287 60.1855 172.689 60.1855 172.689H59.9103C60.1222 172.038 60.563 171.527 61.4472 170.165C62.9378 167.873 88.0372 126.84 93.0815 117.784C98.1257 108.731 102.481 108.329 107.408 108.329H157.268C160.047 108.329 162.478 109.466 162.478 112.031ZM151.308 118.588C152.684 116.296 151.194 115.607 148.212 115.607H107.639C102.939 115.607 101.599 116.43 99.6139 119.847C97.5509 123.401 94.2652 129.037 93.118 131.329C91.9732 133.621 92.3167 134.654 95.0665 134.654H95.6024C100.215 134.666 133.167 134.749 137.325 134.749C141.795 134.749 142.023 133.601 143.4 131.424C144.583 129.553 148.556 123.111 150.524 119.881C150.845 119.353 151.113 118.91 151.308 118.588ZM137.527 142.896C137.695 142.606 137.734 142.341 137.661 142.143L136.982 140.192L136.935 140.207C136.862 139.988 136.653 139.849 136.334 139.849H125.578C124.974 139.849 124.194 140.343 123.846 140.947L121.805 144.481C121.598 144.839 121.588 145.159 121.739 145.358L122.375 147.078C122.416 147.351 122.638 147.528 123.001 147.528H133.754C134.358 147.528 135.138 147.034 135.489 146.43L137.527 142.896ZM130.707 153.613C130.875 153.323 130.914 153.057 130.841 152.86L130.162 150.909L130.116 150.924C130.043 150.705 129.833 150.566 129.514 150.566H118.758C118.154 150.566 117.375 151.06 117.026 151.664L114.985 155.198C114.778 155.556 114.769 155.875 114.92 156.075L115.555 157.795C115.597 158.068 115.818 158.245 116.181 158.245H126.935C127.539 158.245 128.318 157.751 128.669 157.147L130.707 153.613ZM123.888 164.573C124.056 164.283 124.095 164.018 124.022 163.821L123.342 161.87L123.296 161.884C123.223 161.665 123.013 161.526 122.694 161.526H111.938C111.334 161.526 110.555 162.021 110.207 162.625L108.165 166.159C107.958 166.517 107.949 166.836 108.1 167.036L108.735 168.755C108.777 169.028 108.998 169.206 109.361 169.206H120.115C120.719 169.206 121.498 168.711 121.849 168.107L123.888 164.573ZM118.042 142.896C118.21 142.606 118.249 142.341 118.176 142.143L117.496 140.192L117.45 140.207C117.377 139.988 117.168 139.849 116.849 139.849H106.093C105.489 139.849 104.709 140.343 104.361 140.947L102.32 144.481C102.113 144.839 102.103 145.159 102.254 145.358L102.89 147.078C102.931 147.351 103.153 147.528 103.516 147.528H114.269C114.873 147.528 115.653 147.034 116.003 146.43L118.042 142.896ZM111.222 153.613C111.39 153.323 111.429 153.057 111.356 152.86L110.677 150.909L110.63 150.924C110.557 150.705 110.348 150.566 110.029 150.566H99.2729C98.6688 150.566 97.8894 151.06 97.5411 151.664L95.5001 155.198C95.293 155.556 95.2833 155.875 95.4343 156.075L96.07 157.795C96.1114 158.068 96.333 158.245 96.696 158.245H107.449C108.053 158.245 108.833 157.751 109.184 157.147L111.222 153.613ZM104.402 164.573C104.57 164.283 104.609 164.018 104.536 163.821L103.857 161.87L103.811 161.884C103.737 161.665 103.528 161.526 103.209 161.526H92.4531C91.849 161.526 91.0696 162.021 90.7213 162.625L88.6802 166.159C88.4732 166.517 88.4635 166.836 88.6145 167.036L89.2502 168.755C89.2916 169.028 89.5132 169.206 89.8761 169.206H100.63C101.234 169.206 102.013 168.711 102.364 168.107L104.402 164.573ZM98.5568 142.896C98.7249 142.606 98.7638 142.341 98.6908 142.143L98.0112 140.192L97.9649 140.207C97.8919 139.988 97.6824 139.849 97.3633 139.849H86.6075C86.0034 139.849 85.224 140.343 84.8757 140.947L82.8347 144.481C82.6276 144.839 82.6179 145.159 82.7689 145.358L83.4046 147.078C83.446 147.351 83.6676 147.528 84.0306 147.528H94.784C95.388 147.528 96.1674 147.034 96.5182 146.43L98.5568 142.896ZM91.737 153.613C91.905 153.323 91.944 153.057 91.8709 152.86L91.1914 150.909L91.1451 150.924C91.072 150.705 90.8626 150.566 90.5435 150.566H79.7877C79.1836 150.566 78.4042 151.06 78.0559 151.664L76.0148 155.198C75.8078 155.556 75.7981 155.875 75.9491 156.075L76.5848 157.795C76.6262 158.068 76.8478 158.245 77.2107 158.245H87.9641C88.5682 158.245 89.3476 157.751 89.6983 157.147L91.737 153.613ZM84.9171 164.573C85.0852 164.283 85.1242 164.018 85.0511 163.821L84.3715 161.87L84.3253 161.884C84.2522 161.665 84.0427 161.526 83.7237 161.526H72.9678C72.3638 161.526 71.5844 162.021 71.2361 162.625L69.195 166.159C68.988 166.517 68.9782 166.836 69.1292 167.036L69.7649 168.755C69.8063 169.028 70.028 169.206 70.3909 169.206H81.1443C81.7484 169.206 82.5278 168.711 82.8785 168.107L84.9171 164.573Z" fill="#0185FF"/>
        <path d="M148.212 115.607C151.194 115.607 152.684 116.296 151.308 118.588C151.113 118.909 150.845 119.353 150.524 119.881L150.161 119.747H109.588C104.887 119.747 103.518 120.554 101.562 123.988C99.6138 127.412 96.9736 131.694 95.6023 134.405V134.654H95.0665C92.3166 134.654 91.9732 133.621 93.118 131.329C94.2651 129.037 97.5508 123.401 99.6138 119.847C101.599 116.43 102.939 115.607 107.639 115.607H148.212Z" fill="#002140"/>
        <path d="M150.161 119.747L150.524 119.881C148.556 123.111 144.583 129.553 143.4 131.424C142.024 133.601 141.795 134.749 137.325 134.749C133.168 134.749 100.216 134.666 95.6024 134.654V134.405C96.9737 131.694 99.6139 127.412 101.562 123.988C103.518 120.554 104.887 119.747 109.588 119.747H150.161Z" fill="#FFED8F"/>
        <path d="M137.661 142.143C137.734 142.34 137.695 142.606 137.527 142.896L135.489 146.43C135.138 147.034 134.359 147.528 133.754 147.528H123.001C122.638 147.528 122.416 147.351 122.375 147.078L121.739 145.358C121.844 145.497 122.024 145.58 122.27 145.58H133.024C133.628 145.58 134.407 145.085 134.758 144.481L136.797 140.947C136.962 140.662 137.004 140.402 136.935 140.207L136.982 140.192L137.661 142.143Z" fill="#003C73"/>
        <path d="M121.739 145.358C121.588 145.159 121.598 144.839 121.805 144.481L123.846 140.947C124.194 140.343 124.974 139.849 125.578 139.849H136.334C136.653 139.849 136.862 139.988 136.935 140.207C137.003 140.402 136.962 140.662 136.796 140.947L134.758 144.481C134.407 145.085 133.628 145.58 133.024 145.58H122.27C122.024 145.58 121.844 145.497 121.739 145.358Z" fill="#5AB0FF"/>
        <path d="M130.841 152.86C130.914 153.057 130.875 153.323 130.707 153.613L128.669 157.147C128.318 157.751 127.539 158.245 126.935 158.245H116.181C115.818 158.245 115.597 158.067 115.555 157.795L114.919 156.075C115.024 156.214 115.204 156.297 115.45 156.297H126.204C126.808 156.297 127.587 155.802 127.938 155.198L129.977 151.664C130.142 151.379 130.184 151.118 130.115 150.924L130.162 150.909L130.841 152.86Z" fill="#003C73"/>
        <path d="M114.92 156.075C114.769 155.875 114.778 155.556 114.985 155.198L117.026 151.664C117.375 151.06 118.154 150.566 118.758 150.566H129.514C129.833 150.566 130.043 150.704 130.116 150.924C130.184 151.118 130.142 151.379 129.977 151.664L127.938 155.198C127.587 155.802 126.808 156.297 126.204 156.297H115.451C115.205 156.297 115.024 156.214 114.92 156.075Z" fill="#5AB0FF"/>
        <path d="M125.118 189.651L125.176 189.802C124.392 190.116 123.476 190.225 122.195 190.225H63.5102C60.4145 190.225 59.7277 189.765 59.7277 187.359V174.52C59.7277 173.636 59.7642 173.13 59.9103 172.686H60.1856C60.1856 172.686 117.781 172.287 121.335 172.287C122.999 172.287 123.936 172.287 124.46 172.618C125.052 172.991 125.118 173.79 125.118 175.495V189.651ZM118.527 181.915C118.527 180.495 117.367 179.336 115.947 179.336H67.8092C67.1004 179.336 66.4549 179.625 65.9873 180.093C65.5196 180.561 65.2298 181.204 65.2298 181.915C65.2298 183.333 66.3892 184.494 67.8092 184.494H115.947C116.656 184.494 117.302 184.205 117.769 183.737C118.237 183.269 118.527 182.624 118.527 181.915Z" fill="#0676DE"/>
        <path d="M124.022 163.82C124.095 164.018 124.056 164.283 123.888 164.573L121.849 168.107C121.498 168.711 120.719 169.206 120.115 169.206H109.361C108.998 169.206 108.777 169.028 108.735 168.755L108.1 167.035C108.204 167.174 108.385 167.257 108.631 167.257H119.384C119.988 167.257 120.768 166.763 121.118 166.159L123.157 162.624C123.323 162.34 123.364 162.079 123.296 161.884L123.342 161.869L124.022 163.82Z" fill="#003C73"/>
        <path d="M108.1 167.035C107.949 166.836 107.958 166.517 108.165 166.159L110.206 162.624C110.555 162.02 111.334 161.526 111.938 161.526H122.694C123.013 161.526 123.223 161.665 123.296 161.884C123.364 162.079 123.322 162.34 123.157 162.624L121.118 166.159C120.767 166.763 119.988 167.257 119.384 167.257H108.631C108.385 167.257 108.204 167.174 108.1 167.035Z" fill="#5AB0FF"/>
        <path d="M118.176 142.143C118.249 142.34 118.21 142.606 118.042 142.896L116.003 146.43C115.653 147.034 114.873 147.528 114.269 147.528H103.516C103.153 147.528 102.931 147.351 102.89 147.078L102.254 145.358C102.359 145.497 102.539 145.58 102.785 145.58H113.538C114.142 145.58 114.922 145.085 115.273 144.481L117.311 140.947C117.477 140.662 117.518 140.402 117.45 140.207L117.496 140.192L118.176 142.143Z" fill="#003C73"/>
        <path d="M115.947 179.336C117.367 179.336 118.527 180.495 118.527 181.915C118.527 182.624 118.237 183.269 117.769 183.737C117.301 184.204 116.656 184.494 115.947 184.494H67.809C66.389 184.494 65.2296 183.332 65.2296 181.915C65.2296 181.204 65.5195 180.561 65.9871 180.093C66.4548 179.625 67.1002 179.336 67.809 179.336H115.947Z" fill="#002140"/>
        <path d="M102.254 145.358C102.103 145.159 102.113 144.839 102.32 144.481L104.361 140.947C104.709 140.343 105.489 139.849 106.093 139.849H116.848C117.168 139.849 117.377 139.988 117.45 140.207C117.518 140.402 117.477 140.662 117.311 140.947L115.273 144.481C114.922 145.085 114.142 145.58 113.538 145.58H102.785C102.539 145.58 102.359 145.497 102.254 145.358Z" fill="#5AB0FF"/>
        <path d="M111.356 152.86C111.429 153.057 111.39 153.323 111.222 153.613L109.184 157.147C108.833 157.751 108.053 158.245 107.449 158.245H96.696C96.3331 158.245 96.1114 158.067 96.07 157.795L95.4343 156.075C95.5391 156.214 95.7193 156.297 95.9653 156.297H106.719C107.323 156.297 108.102 155.802 108.453 155.198L110.492 151.664C110.657 151.379 110.699 151.118 110.63 150.924L110.677 150.909L111.356 152.86Z" fill="#003C73"/>
        <path d="M95.4343 156.075C95.2833 155.875 95.293 155.556 95.5001 155.198L97.5411 151.664C97.8894 151.06 98.6689 150.566 99.2729 150.566H110.029C110.348 150.566 110.557 150.704 110.63 150.924C110.699 151.118 110.657 151.379 110.492 151.664L108.453 155.198C108.102 155.802 107.323 156.297 106.719 156.297H95.9653C95.7193 156.297 95.539 156.214 95.4343 156.075Z" fill="#5AB0FF"/>
        <path d="M104.536 163.82C104.609 164.018 104.57 164.283 104.402 164.573L102.364 168.107C102.013 168.711 101.233 169.206 100.629 169.206H89.876C89.5131 169.206 89.2915 169.028 89.2501 168.755L88.6144 167.035C88.7191 167.174 88.8993 167.257 89.1454 167.257H99.8988C100.503 167.257 101.282 166.763 101.633 166.159L103.672 162.624C103.837 162.34 103.879 162.079 103.81 161.884L103.857 161.869L104.536 163.82Z" fill="#003C73"/>
        <path d="M88.6144 167.035C88.4633 166.836 88.4731 166.517 88.6801 166.159L90.7212 162.624C91.0695 162.02 91.8489 161.526 92.453 161.526H103.209C103.528 161.526 103.737 161.665 103.81 161.884C103.879 162.079 103.837 162.34 103.672 162.624L101.633 166.159C101.282 166.763 100.503 167.257 99.8987 167.257H89.1453C88.8993 167.257 88.7191 167.174 88.6144 167.035Z" fill="#5AB0FF"/>
        <path d="M98.6907 142.143C98.7637 142.34 98.7248 142.606 98.5567 142.896L96.5181 146.43C96.1673 147.034 95.3879 147.528 94.7839 147.528H84.0305C83.6676 147.528 83.4459 147.351 83.4045 147.078L82.7688 145.358C82.8735 145.497 83.0538 145.58 83.2998 145.58H94.0532C94.6572 145.58 95.4366 145.085 95.7874 144.481L97.826 140.947C97.9916 140.662 98.033 140.402 97.9648 140.207L98.0111 140.192L98.6907 142.143Z" fill="#003C73"/>
        <path d="M82.7689 145.358C82.6179 145.159 82.6276 144.839 82.8347 144.481L84.8757 140.947C85.224 140.343 86.0034 139.849 86.6075 139.849H97.3633C97.6824 139.849 97.8919 139.988 97.9649 140.207C98.0331 140.402 97.9917 140.662 97.8261 140.947L95.7875 144.481C95.4367 145.085 94.6573 145.58 94.0533 145.58H83.2999C83.0539 145.58 82.8736 145.497 82.7689 145.358Z" fill="#5AB0FF"/>
        <path d="M91.871 152.86C91.944 153.057 91.9051 153.323 91.737 153.613L89.6984 157.147C89.3476 157.751 88.5682 158.245 87.9642 158.245H77.2108C76.8479 158.245 76.6262 158.067 76.5848 157.795L75.9491 156.075C76.0538 156.214 76.2341 156.297 76.4801 156.297H87.2335C87.8375 156.297 88.6169 155.802 88.9677 155.198L91.0063 151.664C91.1719 151.379 91.2133 151.118 91.1451 150.924L91.1914 150.909L91.871 152.86Z" fill="#003C73"/>
        <path d="M75.949 156.075C75.7979 155.875 75.8077 155.556 76.0147 155.198L78.0558 151.664C78.4041 151.06 79.1835 150.566 79.7875 150.566H90.5434C90.8625 150.566 91.0719 150.704 91.145 150.924C91.2132 151.118 91.1718 151.379 91.0062 151.664L88.9675 155.198C88.6168 155.802 87.8374 156.297 87.2333 156.297H76.4799C76.2339 156.297 76.0537 156.214 75.949 156.075Z" fill="#5AB0FF"/>
        <path d="M85.051 163.82C85.1241 164.018 85.0851 164.283 84.9171 164.573L82.8784 168.107C82.5277 168.711 81.7483 169.206 81.1442 169.206H70.3908C70.0279 169.206 69.8063 169.028 69.7649 168.755L69.1292 167.035C69.2339 167.174 69.4141 167.257 69.6601 167.257H80.4135C81.0176 167.257 81.797 166.763 82.1477 166.159L84.1864 162.624C84.352 162.34 84.3934 162.079 84.3252 161.884L84.3715 161.869L85.051 163.82Z" fill="#003C73"/>
        <path d="M69.1293 167.035C68.9782 166.836 68.988 166.517 69.195 166.159L71.2361 162.624C71.5844 162.02 72.3638 161.526 72.9678 161.526H83.7237C84.0428 161.526 84.2522 161.665 84.3253 161.884C84.3935 162.079 84.3521 162.34 84.1865 162.624L82.1478 166.159C81.7971 166.763 81.0177 167.257 80.4136 167.257H69.6602C69.4142 167.257 69.234 167.174 69.1293 167.035Z" fill="#5AB0FF"/>
        <path d="M124.83 172.572C124.83 172.572 157.195 122.361 161.165 115.836C162.086 114.326 162.478 113.064 162.478 112.031C162.478 109.466 160.047 108.329 157.268 108.329H107.408C102.481 108.329 98.1257 108.731 93.0815 117.784C88.0373 126.84 62.9379 167.873 61.4472 170.165C60.5631 171.527 60.1222 172.038 59.9103 172.686C59.7642 173.13 59.7277 173.636 59.7277 174.52V187.359C59.7277 189.765 60.4145 190.225 63.5102 190.225H122.195C123.476 190.225 124.392 190.116 125.176 189.802C126.355 189.329 127.237 188.391 128.613 186.672C130.905 183.805 159.331 143.804 161.051 141.052C162.77 138.302 162.541 138.302 162.541 135.781V111.824" stroke="#002140" stroke-miterlimit="10" stroke-linecap="round"/>
        <path d="M60.1854 172.689C60.1854 172.689 117.781 172.287 121.335 172.287C122.998 172.287 123.936 172.287 124.46 172.618C125.052 172.991 125.118 173.79 125.118 175.495V189.651" stroke="#002140" stroke-miterlimit="10" stroke-linecap="round"/>
        <path d="M115.947 184.494H67.809C66.389 184.494 65.2296 183.332 65.2296 181.915C65.2296 181.204 65.5195 180.561 65.9871 180.093C66.4548 179.625 67.1002 179.336 67.809 179.336H115.947C117.367 179.336 118.527 180.495 118.527 181.915C118.527 182.624 118.237 183.269 117.769 183.737C117.301 184.204 116.656 184.494 115.947 184.494Z" stroke="#002140" stroke-miterlimit="10" stroke-linecap="round"/>
        <path d="M150.524 119.881C150.845 119.353 151.113 118.909 151.308 118.588C152.684 116.296 151.194 115.607 148.212 115.607H107.639C102.939 115.607 101.599 116.43 99.6138 119.847C97.5508 123.401 94.2651 129.037 93.118 131.329C91.9732 133.621 92.3166 134.654 95.0665 134.654H95.6023C100.215 134.666 133.167 134.749 137.325 134.749C141.794 134.749 142.023 133.601 143.4 131.424C144.583 129.553 148.556 123.111 150.524 119.881Z" stroke="#002140" stroke-miterlimit="10" stroke-linecap="round"/>
        <path d="M150.161 119.747H109.588C104.887 119.747 103.518 120.554 101.562 123.988C99.6139 127.412 96.9737 131.694 95.6024 134.405" stroke="#002140" stroke-miterlimit="10" stroke-linecap="round"/>
        <path d="M110.63 150.924C110.557 150.704 110.348 150.566 110.029 150.566H99.2729C98.6689 150.566 97.8894 151.06 97.5411 151.664L95.5001 155.198C95.293 155.556 95.2833 155.875 95.4343 156.075C95.539 156.214 95.7193 156.297 95.9653 156.297H106.719C107.323 156.297 108.102 155.802 108.453 155.198L110.492 151.664C110.657 151.379 110.699 151.118 110.63 150.924Z" stroke="#002140" stroke-miterlimit="10" stroke-linecap="round"/>
        <path d="M110.677 150.909L111.356 152.86C111.429 153.057 111.39 153.323 111.222 153.613L109.184 157.147C108.833 157.751 108.053 158.245 107.449 158.245H96.696C96.3331 158.245 96.1114 158.067 96.07 157.795L95.4343 156.075V156.068" stroke="#002140" stroke-miterlimit="10" stroke-linecap="round"/>
        <path d="M130.116 150.924C130.043 150.704 129.833 150.566 129.514 150.566H118.758C118.154 150.566 117.375 151.06 117.026 151.664L114.985 155.198C114.778 155.556 114.769 155.875 114.92 156.075C115.024 156.214 115.205 156.297 115.451 156.297H126.204C126.808 156.297 127.587 155.802 127.938 155.198L129.977 151.664C130.142 151.379 130.184 151.118 130.116 150.924Z" stroke="#002140" stroke-miterlimit="10" stroke-linecap="round"/>
        <path d="M130.162 150.909L130.841 152.86C130.914 153.057 130.875 153.323 130.707 153.613L128.669 157.147C128.318 157.751 127.539 158.245 126.935 158.245H116.181C115.818 158.245 115.597 158.067 115.555 157.795L114.919 156.075V156.068" stroke="#002140" stroke-miterlimit="10" stroke-linecap="round"/>
        <path d="M91.145 150.924C91.0719 150.704 90.8625 150.566 90.5434 150.566H79.7875C79.1835 150.566 78.4041 151.06 78.0558 151.664L76.0147 155.198C75.8077 155.556 75.7979 155.875 75.949 156.075C76.0537 156.214 76.2339 156.297 76.4799 156.297H87.2333C87.8374 156.297 88.6168 155.802 88.9675 155.198L91.0062 151.664C91.1718 151.379 91.2132 151.118 91.145 150.924Z" stroke="#002140" stroke-miterlimit="10" stroke-linecap="round"/>
        <path d="M91.1914 150.909L91.871 152.86C91.944 153.057 91.9051 153.323 91.737 153.613L89.6984 157.147C89.3476 157.751 88.5682 158.245 87.9642 158.245H77.2108C76.8479 158.245 76.6262 158.067 76.5848 157.795L75.9491 156.075V156.068" stroke="#002140" stroke-miterlimit="10" stroke-linecap="round"/>
        <path d="M117.45 140.207C117.377 139.988 117.168 139.849 116.848 139.849H106.093C105.489 139.849 104.709 140.343 104.361 140.947L102.32 144.481C102.113 144.839 102.103 145.159 102.254 145.358C102.359 145.497 102.539 145.58 102.785 145.58H113.538C114.142 145.58 114.922 145.085 115.273 144.481L117.311 140.947C117.477 140.662 117.518 140.402 117.45 140.207Z" stroke="#002140" stroke-miterlimit="10" stroke-linecap="round"/>
        <path d="M117.496 140.192L118.176 142.143C118.249 142.34 118.21 142.606 118.042 142.896L116.003 146.43C115.653 147.034 114.873 147.528 114.269 147.528H103.516C103.153 147.528 102.931 147.351 102.89 147.078L102.254 145.358V145.351" stroke="#002140" stroke-miterlimit="10" stroke-linecap="round"/>
        <path d="M136.935 140.207C136.862 139.988 136.653 139.849 136.334 139.849H125.578C124.974 139.849 124.194 140.343 123.846 140.947L121.805 144.481C121.598 144.839 121.588 145.159 121.739 145.358C121.844 145.497 122.024 145.58 122.27 145.58H133.024C133.628 145.58 134.407 145.085 134.758 144.481L136.796 140.947C136.962 140.662 137.003 140.402 136.935 140.207Z" stroke="#002140" stroke-miterlimit="10" stroke-linecap="round"/>
        <path d="M136.982 140.192L137.661 142.143C137.734 142.34 137.695 142.606 137.527 142.896L135.489 146.43C135.138 147.034 134.359 147.528 133.754 147.528H123.001C122.638 147.528 122.416 147.351 122.375 147.078L121.739 145.358V145.351" stroke="#002140" stroke-miterlimit="10" stroke-linecap="round"/>
        <path d="M97.9649 140.207C97.8919 139.988 97.6824 139.849 97.3633 139.849H86.6075C86.0034 139.849 85.224 140.343 84.8757 140.947L82.8347 144.481C82.6276 144.839 82.6179 145.159 82.7689 145.358C82.8736 145.497 83.0539 145.58 83.2999 145.58H94.0533C94.6573 145.58 95.4367 145.085 95.7875 144.481L97.8261 140.947C97.9917 140.662 98.0331 140.402 97.9649 140.207Z" stroke="#002140" stroke-miterlimit="10" stroke-linecap="round"/>
        <path d="M98.0111 140.192L98.6907 142.143C98.7637 142.34 98.7248 142.606 98.5567 142.896L96.5181 146.43C96.1673 147.034 95.3879 147.528 94.7839 147.528H84.0305C83.6676 147.528 83.4459 147.351 83.4045 147.078L82.7688 145.358V145.351" stroke="#002140" stroke-miterlimit="10" stroke-linecap="round"/>
        <path d="M103.81 161.884C103.737 161.665 103.528 161.526 103.209 161.526H92.453C91.8489 161.526 91.0695 162.02 90.7212 162.624L88.6801 166.159C88.4731 166.517 88.4633 166.836 88.6144 167.035C88.7191 167.174 88.8993 167.257 89.1453 167.257H99.8987C100.503 167.257 101.282 166.763 101.633 166.159L103.672 162.624C103.837 162.34 103.879 162.079 103.81 161.884Z" stroke="#002140" stroke-miterlimit="10" stroke-linecap="round"/>
        <path d="M103.857 161.869L104.536 163.82C104.609 164.018 104.57 164.283 104.402 164.573L102.364 168.107C102.013 168.711 101.233 169.206 100.629 169.206H89.876C89.5131 169.206 89.2915 169.028 89.2501 168.755L88.6144 167.035V167.028" stroke="#002140" stroke-miterlimit="10" stroke-linecap="round"/>
        <path d="M123.296 161.884C123.223 161.665 123.013 161.526 122.694 161.526H111.938C111.334 161.526 110.555 162.02 110.206 162.624L108.165 166.159C107.958 166.517 107.949 166.836 108.1 167.035C108.204 167.174 108.385 167.257 108.631 167.257H119.384C119.988 167.257 120.767 166.763 121.118 166.159L123.157 162.624C123.322 162.34 123.364 162.079 123.296 161.884Z" stroke="#002140" stroke-miterlimit="10" stroke-linecap="round"/>
        <path d="M123.342 161.869L124.022 163.82C124.095 164.018 124.056 164.283 123.888 164.573L121.849 168.107C121.498 168.711 120.719 169.206 120.115 169.206H109.361C108.998 169.206 108.777 169.028 108.735 168.755L108.1 167.035V167.028" stroke="#002140" stroke-miterlimit="10" stroke-linecap="round"/>
        <path d="M84.3253 161.884C84.2522 161.665 84.0428 161.526 83.7237 161.526H72.9678C72.3638 161.526 71.5844 162.02 71.2361 162.624L69.195 166.159C68.988 166.517 68.9782 166.836 69.1293 167.035C69.234 167.174 69.4142 167.257 69.6602 167.257H80.4136C81.0177 167.257 81.7971 166.763 82.1478 166.159L84.1865 162.624C84.3521 162.34 84.3935 162.079 84.3253 161.884Z" stroke="#002140" stroke-miterlimit="10" stroke-linecap="round"/>
        <path d="M84.3715 161.869L85.051 163.82C85.1241 164.018 85.0851 164.283 84.9171 164.573L82.8784 168.107C82.5277 168.711 81.7483 169.206 81.1442 169.206H70.3908C70.0279 169.206 69.8063 169.028 69.7649 168.755L69.1292 167.035V167.028" stroke="#002140" stroke-miterlimit="10" stroke-linecap="round"/>
        <path d="M2.87695 78.2998C2.87695 48.7261 2.41905 1.50365 2.3606 1.44763H29.5254V66.6087C29.5254 76.4073 35.0276 78.6432 42.5927 74.1714C50.1579 69.702 51.5535 68.9688 55.1437 67.0373C58.4951 65.2325 60.3876 64.5457 62.2777 66.2628L62.4043 66.4406C65.522 64.2705 67.9235 63.7468 70.8877 65.7757C71.2287 66.0095 71.4114 66.275 71.8985 66.6038C74.7872 64.7089 77.0889 64.3411 79.8996 66.2628C83.1658 68.4987 93.8267 75.5475 98.2961 78.4703C102.768 81.3931 103.44 83.9725 103.44 89.818V113.373C103.44 118.359 101.894 121.282 97.7676 121.282C95.5852 121.282 93.9777 120.607 92.9499 118.956L92.7672 119.07C92.2313 122.346 90.5824 124.205 87.2943 124.205C84.3837 124.205 82.5009 123.006 81.6411 119.891L81.5948 119.903C80.774 121.136 79.4807 121.801 77.6028 121.801C74.4219 121.801 72.5902 120.232 72.1007 115.955L72.0081 115.965C71.197 116.754 70.0766 117.173 68.5836 117.173C64.8205 117.173 62.9402 114.978 62.9402 108.707V107.698L38.5227 105.923H28.5512C22.9346 105.923 2.87695 107.871 2.87695 78.2998Z" fill="#50EEF6"/>
        <path d="M92.7671 119.07C92.2313 122.346 90.5823 124.205 87.2942 124.205C84.3836 124.205 82.5008 123.006 81.641 119.891C81.283 118.588 81.1028 116.949 81.1028 114.92V95.5783C81.1028 91.7081 80.7593 91.7081 77.5784 89.6451C74.3974 87.5821 69.1559 84.1454 69.1559 84.1454" stroke="#002140" stroke-miterlimit="10" stroke-linecap="round"/>
        <path d="M81.5948 119.903C80.774 121.136 79.4807 121.801 77.6028 121.801C74.4218 121.801 72.5902 120.232 72.1006 115.955C72.0105 115.178 71.9667 114.311 71.9667 113.346V107.528" stroke="#002140" stroke-miterlimit="10" stroke-linecap="round"/>
        <path d="M72.0081 115.965C71.197 116.754 70.0766 117.173 68.5836 117.173C64.8205 117.173 62.9402 114.978 62.9402 108.707V107.698L38.5227 105.923H28.5512C22.9346 105.923 2.87695 107.871 2.87695 78.2998C2.87695 48.7285 2.41905 1.50365 2.3606 1.44763H29.5254V66.6087C29.5254 76.4073 35.0276 78.6432 42.5927 74.1714C50.1579 69.702 51.5535 68.9688 55.1437 67.0373C58.4951 65.2325 60.3876 64.5457 62.2777 66.2628" stroke="#002140" stroke-miterlimit="10" stroke-linecap="round"/>
        <path d="M79.5416 81.7365C79.5416 81.7365 85.2167 85.5191 88.4829 87.5821C91.7491 89.6451 91.5762 90.6778 91.5762 95.4907V111.997C91.5762 115.237 92.0341 117.482 92.9499 118.956C93.9777 120.607 95.5853 121.282 97.7676 121.282C101.894 121.282 103.44 118.359 103.44 113.373V89.818C103.44 83.9725 102.768 81.3931 98.2962 78.4703C93.8267 75.5475 83.1659 68.4988 79.8997 66.2628C77.0889 64.3411 74.7872 64.7089 71.8985 66.6038C71.4309 66.9083 70.9486 67.2566 70.4445 67.639" stroke="#002140" stroke-miterlimit="10" stroke-linecap="round"/>
        <path d="M71.9058 66.6088C71.9058 66.6088 71.9009 66.6063 71.8985 66.6039C71.4114 66.2751 71.2287 66.0096 70.8877 65.7758C67.9235 63.7469 65.522 64.2706 62.4043 66.4407C62.0877 66.6624 61.7662 66.8986 61.4325 67.1519" stroke="#002140" stroke-miterlimit="10" stroke-linecap="round"/>
        <path d="M99.8841 104.517C100.22 105.036 100.922 105.184 101.443 104.848L106.083 101.843C106.602 101.507 106.753 100.808 106.414 100.286L104.461 97.271C104.125 96.7523 103.423 96.5988 102.904 96.9374L98.2644 99.943C97.7456 100.279 97.5946 100.983 97.9307 101.502L99.8841 104.517ZM140.521 65.3104L157.872 92.0855C158.744 93.4325 158.357 95.2495 157.01 96.1214L110.384 126.338C109.037 127.21 107.22 126.823 106.348 125.476L88.9968 98.7008C88.1248 97.3539 88.5121 95.5369 89.859 94.6649L136.485 64.4482C137.832 63.5762 139.649 63.9635 140.521 65.3104Z" fill="#780505"/>
        <path d="M102.904 96.9374C103.423 96.6012 104.125 96.7523 104.461 97.271L106.414 100.286C106.75 100.805 106.602 101.507 106.083 101.843L101.443 104.848C100.924 105.184 100.223 105.038 99.8842 104.517L97.9308 101.502C97.5946 100.983 97.7432 100.279 98.2645 99.943L102.904 96.9374Z" fill="#BF3013"/>
        <path d="M136.484 64.4348L89.8612 94.6541C88.5089 95.5306 88.1232 97.3374 88.9997 98.6897L106.354 125.464C107.231 126.817 109.037 127.202 110.39 126.326L157.012 96.1065C158.365 95.23 158.75 93.4232 157.874 92.0709L140.519 65.2963C139.643 63.944 137.836 63.5583 136.484 64.4348Z" stroke="#002140" stroke-miterlimit="10" stroke-linecap="round"/>
        <path d="M101.443 104.848L106.083 101.843C106.602 101.507 106.753 100.808 106.414 100.286L104.461 97.2711C104.125 96.7523 103.423 96.5988 102.904 96.9374L98.2645 99.943C97.7457 100.279 97.5946 100.983 97.9308 101.502L99.8842 104.517C100.22 105.036 100.922 105.185 101.443 104.848Z" stroke="#002140" stroke-miterlimit="10" stroke-linecap="round"/>
        <path d="M111.965 104.517C114.286 108.901 113.083 113.2 108.869 114.404C104.658 115.607 101.219 110.363 96.1478 111.052C91.0768 111.739 87.3795 115.178 79.8143 115.178C72.2492 115.178 69.3264 111.912 69.3264 111.912C69.3264 111.912 65.7168 115.436 49.7267 115.436C35.8289 115.436 29.6593 108.29 28.2832 106.422L37.5192 93.8588L60.4728 79.3301L72.4148 80.9937C72.3588 81.04 72.3052 81.0862 72.2492 81.135C70.0133 83.1127 71.2506 82.0313 68.5519 84.4889C64.6841 88.0132 67.3267 93.5422 70.5296 96.2652C73.9688 99.188 76.2047 101.251 82.6519 101.251C89.099 101.251 94.9446 100.564 98.8124 100.564C102.68 100.564 109.644 100.133 111.965 104.517Z" fill="#50EEF6"/>
        <path d="M79.6414 81.8243C76.7065 79.81 74.6361 79.1475 72.4148 80.9937C72.3588 81.04 72.3052 81.0863 72.2492 81.135C70.0133 83.1128 71.2506 82.0313 68.5519 84.4889C64.6841 88.0133 67.3268 93.5422 70.5296 96.2653C73.9688 99.1881 76.2047 101.251 82.6519 101.251C89.0991 101.251 94.9446 100.564 98.8124 100.564C102.68 100.564 109.644 100.133 111.965 104.517C114.286 108.901 113.083 113.2 108.869 114.404C104.658 115.607 101.219 110.363 96.1478 111.052C91.0768 111.739 87.3795 115.178 79.8143 115.178C72.2492 115.178 69.3264 111.912 69.3264 111.912C69.3264 111.912 65.7168 115.436 49.7267 115.436C35.8289 115.436 29.6594 108.29 28.2832 106.422C28.0762 106.139 27.9788 105.979 27.9788 105.979" stroke="#002140" stroke-miterlimit="10" stroke-linecap="round"/>
        <path d="M25.5504 151.888L32.5432 160.81L30.1197 153.199L25.5504 151.888Z" fill="#8DC8FF" stroke="#002140" stroke-linecap="round" stroke-linejoin="round"/>
        <path d="M30.1196 153.199L32.5431 160.81L35.2369 153.194L30.1196 153.199Z" fill="#0185FF" stroke="#002140" stroke-linecap="round" stroke-linejoin="round"/>
        <path d="M32.5432 160.81L39.6017 151.915L35.237 153.194L32.5432 160.81Z" fill="#8DC8FF" stroke="#002140" stroke-linecap="round" stroke-linejoin="round"/>
        <path d="M38.3181 149.109L35.8727 148.145L38.2572 149.134L38.3181 149.109Z" stroke="#002140" stroke-linecap="round" stroke-linejoin="round"/>
        <path d="M30.2512 150.383L32.4872 153.021L35.0689 150.351H35.0056L34.8327 150.415L30.2512 150.383Z" stroke="#002140" stroke-linecap="round" stroke-linejoin="round"/>
        <path d="M26.9266 149.504L29.182 148.072L35.6755 148.067L35.8728 148.145L35.617 148.038L29.1236 148.045L26.7585 149.526L26.9266 149.504Z" stroke="#002140" stroke-linecap="round" stroke-linejoin="round"/>
        <path d="M39.6017 151.915L38.2791 149.141L26.7902 149.518L25.6016 151.842L32.7112 153.128L39.6017 151.915Z" fill="#8DC8FF" stroke="#002140" stroke-linecap="round" stroke-linejoin="round"/>
        <path d="M32.4872 153.021L30.2512 150.383L30.2098 150.381L30.1733 150.371L25.8427 151.808L30.1733 150.371L25.5504 151.888L30.1197 153.199L35.237 153.194L39.6017 151.915L35.069 150.351L32.4872 153.021Z" fill="#0185FF" stroke="#002140" stroke-linecap="round" stroke-linejoin="round"/>
        <path d="M35.0056 150.351H35.0689L38.2791 149.141L38.2572 149.134L35.0056 150.351Z" stroke="#002140" stroke-linecap="round" stroke-linejoin="round"/>
        <path d="M30.1733 150.371L30.2099 150.381L30.2513 150.383L30.2269 150.354L30.1733 150.371Z" stroke="#002140" stroke-linecap="round" stroke-linejoin="round"/>
        <path d="M29.104 150.086L30.1733 150.371L30.2268 150.354L29.104 150.086Z" stroke="#002140" stroke-linecap="round" stroke-linejoin="round"/>
        <path d="M29.1819 148.072L26.9265 149.504L29.104 150.086L30.2268 150.354L35.0056 150.351L38.2572 149.134L35.8727 148.145L35.6754 148.067L29.1819 148.072Z" fill="#8DC8FF" stroke="#002140" stroke-linecap="round" stroke-linejoin="round"/>
        <path d="M23.7359 107.269L23.731 112.141H23.4095H21.3489H21.2223L21.2174 107.269H21.3489H23.4095H23.7359Z" fill="#FFED8F"/>
        <path d="M23.7262 121.883L23.7237 126.755H23.4095H21.349H21.2369L21.2321 121.883H21.349H23.4095H23.7262Z" fill="#FFED8F"/>
        <path d="M23.4095 107.269H21.2174V105.75C21.2174 105.75 22.3451 105.979 23.7359 105.979V107.269H23.4095Z" fill="#FFED8F"/>
        <path d="M23.7286 117.012L23.7262 121.883H23.4095H21.349H21.232L21.2272 117.012H21.349H23.4095H23.7286Z" fill="#FFED8F"/>
        <path d="M23.7311 112.141L23.7287 117.012H23.4096H21.3491H21.2273L21.2224 112.141H21.3491H23.4096H23.7311Z" fill="#FFED8F"/>
        <path d="M41.6769 78.0415H41.9667V82.9128H39.5457V78.0415H41.6769Z" fill="#FFED8F"/>
        <path d="M41.9667 87.7842V92.6555H41.6769H39.6163H39.5457V87.7842H39.6163H41.6769H41.9667Z" fill="#FFED8F"/>
        <path d="M41.1314 138.387L41.2459 138.431C40.5128 140.285 39.2609 141.878 37.6704 143.032L37.607 142.945L36.3162 140.967L36.3113 140.962C37.6022 140.044 38.5789 138.724 39.1074 137.17L39.1537 137.184L41.1314 138.387Z" fill="#FFED8F"/>
        <path d="M24.206 137.204L24.0233 137.269L22.0456 138.217L21.9043 138.268C21.4781 137.14 21.2443 135.92 21.2443 134.646V131.626H21.349H23.7213V134.485C23.7213 135.44 23.8894 136.356 24.206 137.204Z" fill="#FFED8F"/>
        <path d="M29.4379 142.087L29.6425 142.165C29.0506 142.803 28.6658 143.634 28.5927 144.554H28.5854C27.5137 144.226 26.5151 143.726 25.6188 143.083L25.6577 143.03L27.0315 141.052L27.0972 140.959C27.8011 141.456 28.5903 141.841 29.4379 142.087Z" fill="#FFED8F"/>
        <path d="M41.9667 121.883V126.755H41.6769H39.6163H39.5457V121.883H39.6163H41.6769H41.9667Z" fill="#FFED8F"/>
        <path d="M41.9667 92.6555V97.5268H41.6769H39.6163H39.5457V92.6555H39.6163H41.6769H41.9667Z" fill="#FFED8F"/>
        <path d="M41.9667 82.9128V87.7841H41.6769H39.6163H39.5457V82.9128H39.6163H41.6769H41.9667Z" fill="#FFED8F"/>
        <path d="M41.9667 102.398V107.269H41.6769H39.6163H39.5457V102.398H39.6163H41.6769H41.9667Z" fill="#FFED8F"/>
        <path d="M41.9667 112.141V117.012H41.6769H39.6163H39.5457V112.141H39.6163H41.6769H41.9667Z" fill="#FFED8F"/>
        <path d="M41.9667 97.5268V102.398H41.6769H39.6163H39.5457V97.5268H39.6163H41.6769H41.9667Z" fill="#FFED8F"/>
        <path d="M32.4459 142.326C33.3592 142.267 34.2166 142.053 34.9984 141.71C35.4636 141.505 35.9045 141.254 36.3112 140.962L36.3161 140.967L37.607 142.945L37.6703 143.032C37.2709 143.322 36.852 143.585 36.4135 143.816C35.98 144.045 35.5294 144.243 35.0642 144.411C34.2117 144.715 33.3105 144.91 32.3752 144.981L32.3631 144.749L32.2754 142.428L32.2656 142.362C32.3241 142.355 32.385 142.35 32.4459 142.345V142.326Z" fill="#FFED8F"/>
        <path d="M27.0971 140.959L27.0313 141.052L25.6576 143.03L25.6187 143.083C23.9454 141.895 22.635 140.219 21.9043 138.268L22.0456 138.217L24.0233 137.269L24.206 137.204C24.7662 138.731 25.7867 140.039 27.0971 140.959Z" fill="#FFED8F"/>
        <path d="M41.9667 107.269V112.141H41.6769H39.6163H39.5457V107.269H39.6163H41.6769H41.9667Z" fill="#FFED8F"/>
        <path d="M41.9667 126.755V131.626H41.6769H39.6163H39.5457V126.755H39.6163H41.6769H41.9667Z" fill="#FFED8F"/>
        <path d="M32.3629 144.749L32.3751 144.981C32.1218 144.998 31.8636 145.008 31.6054 145.008C31.301 145.008 31.055 144.99 30.8138 144.961C30.5703 144.93 30.3316 144.888 30.0417 144.835C30.0637 143.556 31.0306 142.513 32.2655 142.362L32.2752 142.428L32.3629 144.749Z" fill="#FFED8F"/>
        <path d="M35.1129 144.917C35.1129 144.754 35.1031 144.593 35.0739 144.438L35.0642 144.411C35.5294 144.243 35.98 144.045 36.4135 143.816L36.4476 143.88C36.5353 144.218 36.5791 144.574 36.5743 144.939C36.5402 147.148 34.7232 148.909 32.514 148.875C30.3073 148.841 28.5463 147.024 28.5804 144.815C28.5829 144.727 28.5853 144.64 28.5926 144.554C28.6657 143.634 29.0505 142.803 29.6424 142.165C30.3853 141.361 31.4569 140.862 32.6382 140.881C33.5248 140.896 34.3359 141.196 34.9911 141.693L34.9984 141.71C34.2165 142.053 33.3592 142.267 32.4458 142.326V142.345C32.3849 142.35 32.324 142.355 32.2656 142.362C31.0307 142.513 30.0638 143.556 30.0418 144.835V144.839C30.0199 146.24 31.1379 147.392 32.5384 147.414C33.9389 147.436 35.0909 146.318 35.1129 144.917Z" fill="#FED607"/>
        <path d="M41.9667 75.4331V78.0416H39.5457V76.8433C39.6163 76.9115 39.5554 76.8092 39.5554 75.2041C39.5554 73.599 40.3567 73.4285 40.7586 73.4285C41.8473 73.4285 41.9667 74.5173 41.9667 75.4331Z" fill="#FFED8F"/>
        <path d="M41.9668 131.626V134.646C41.9668 135.981 41.711 137.257 41.2458 138.431L41.1313 138.387L39.1536 137.184L39.1073 137.17C39.3923 136.332 39.5457 135.428 39.5457 134.485V131.626H41.9668Z" fill="#FFED8F"/>
        <path d="M41.9667 117.012V121.883H41.6769H39.6163H39.5457V117.012H39.6163H41.6769H41.9667Z" fill="#FFED8F"/>
        <path d="M39.1537 137.184L41.1314 138.387" stroke="#FED607" stroke-linecap="round" stroke-linejoin="round"/>
        <path d="M36.316 140.967L37.6069 142.944" stroke="#FED607" stroke-linecap="round" stroke-linejoin="round"/>
        <path d="M32.2753 142.428L32.363 144.749" stroke="#FED607" stroke-linecap="round" stroke-linejoin="round"/>
        <path d="M27.0313 141.052L25.6576 143.03" stroke="#FED607" stroke-linecap="round" stroke-linejoin="round"/>
        <path d="M24.0233 137.269L22.0455 138.217" stroke="#FED607" stroke-linecap="round" stroke-linejoin="round"/>
        <path d="M21.349 126.755H23.4096" stroke="#FED607" stroke-linecap="round" stroke-linejoin="round"/>
        <path d="M39.6163 78.0415H41.6769" stroke="#FED607" stroke-linecap="round" stroke-linejoin="round"/>
        <path d="M39.6163 82.9128H41.6769" stroke="#FED607" stroke-linecap="round" stroke-linejoin="round"/>
        <path d="M39.6163 87.7842H41.6769" stroke="#FED607" stroke-linecap="round" stroke-linejoin="round"/>
        <path d="M39.6163 92.6555H41.6769" stroke="#FED607" stroke-linecap="round" stroke-linejoin="round"/>
        <path d="M39.6163 97.5268H41.6769" stroke="#FED607" stroke-linecap="round" stroke-linejoin="round"/>
        <path d="M39.6163 102.398H41.6769" stroke="#FED607" stroke-linecap="round" stroke-linejoin="round"/>
        <path d="M39.6163 107.269H41.6769" stroke="#FED607" stroke-linecap="round" stroke-linejoin="round"/>
        <path d="M39.6163 112.141H41.6769" stroke="#FED607" stroke-linecap="round" stroke-linejoin="round"/>
        <path d="M39.6163 117.012H41.6769" stroke="#FED607" stroke-linecap="round" stroke-linejoin="round"/>
        <path d="M39.6163 121.883H41.6769" stroke="#FED607" stroke-linecap="round" stroke-linejoin="round"/>
        <path d="M39.6163 126.755H41.6769" stroke="#FED607" stroke-linecap="round" stroke-linejoin="round"/>
        <path d="M39.6163 131.626H41.6769" stroke="#FED607" stroke-linecap="round" stroke-linejoin="round"/>
        <path d="M21.349 107.269H23.4096" stroke="#FED607" stroke-linecap="round" stroke-linejoin="round"/>
        <path d="M21.349 112.141H23.4096" stroke="#FED607" stroke-linecap="round" stroke-linejoin="round"/>
        <path d="M21.349 117.012H23.4096" stroke="#FED607" stroke-linecap="round" stroke-linejoin="round"/>
        <path d="M21.349 121.883H23.4096" stroke="#FED607" stroke-linecap="round" stroke-linejoin="round"/>
        <path d="M21.349 131.626H23.4096" stroke="#FED607" stroke-linecap="round" stroke-linejoin="round"/>
        <path d="M31.9318 142.343C32.1047 142.343 32.2777 142.338 32.4457 142.326C33.3591 142.267 34.2165 142.053 34.9983 141.71C35.4635 141.505 35.9044 141.254 36.3111 140.962C37.602 140.044 38.5787 138.724 39.1072 137.17C39.3922 136.332 39.5457 135.428 39.5457 134.485V76.8433C39.6163 76.9115 39.5554 76.8092 39.5554 75.2041C39.5554 73.599 40.3567 73.4285 40.7586 73.4285C41.8474 73.4285 41.9667 74.5173 41.9667 75.4331V134.646C41.9667 135.981 41.711 137.257 41.2458 138.431C40.5126 140.285 39.2607 141.878 37.6702 143.032C37.2708 143.322 36.8518 143.585 36.4134 143.816C35.9799 144.045 35.5293 144.243 35.0641 144.411C34.2116 144.715 33.3104 144.91 32.3751 144.981C32.1218 144.998 31.8636 145.008 31.6054 145.008C31.301 145.008 31.055 144.99 30.8138 144.961C30.5703 144.93 30.3316 144.888 30.0417 144.835" stroke="#002140" stroke-miterlimit="10" stroke-linecap="round"/>
        <path d="M28.5853 144.554C27.5136 144.226 26.515 143.726 25.6186 143.083C23.9453 141.895 22.635 140.219 21.9043 138.268C21.478 137.14 21.2442 135.92 21.2442 134.646V131.626L21.2369 126.755L21.232 121.883L21.2271 117.012L21.2223 112.141L21.2174 107.269V105.75C21.2174 105.75 22.3451 105.979 23.7359 105.979V107.269L23.731 112.141V117.012L23.7261 121.883V126.755L23.7213 131.626V134.485C23.7213 135.44 23.8893 136.356 24.206 137.204C24.7662 138.731 25.7867 140.039 27.0971 140.959C27.801 141.456 28.5901 141.841 29.4377 142.087" stroke="#002140" stroke-miterlimit="10" stroke-linecap="round"/>
        <path d="M35.0739 144.437C35.1031 144.593 35.1153 144.754 35.1129 144.917C35.0909 146.318 33.9389 147.436 32.5384 147.414C31.1379 147.392 30.0199 146.24 30.0418 144.839V144.834C30.0637 143.556 31.0307 142.513 32.2656 142.362C32.324 142.355 32.3849 142.35 32.4458 142.345C32.5018 142.343 32.5603 142.343 32.6163 142.343" stroke="#002140" stroke-miterlimit="10" stroke-linecap="round"/>
        <path d="M36.4476 143.88C36.5353 144.218 36.5791 144.574 36.5743 144.939C36.5402 147.148 34.7232 148.909 32.514 148.875C30.3073 148.841 28.5463 147.024 28.5804 144.815C28.5829 144.727 28.5853 144.64 28.5926 144.554C28.6657 143.634 29.0505 142.803 29.6424 142.165C30.3853 141.361 31.4569 140.862 32.6382 140.881C33.5248 140.896 34.3359 141.196 34.9911 141.693" stroke="#002140" stroke-miterlimit="10" stroke-linecap="round"/>
        <path d="M32.1073 118.861C32.1584 118.14 32.9938 117.899 33.9096 117.899H37.7775C38.8102 117.899 39.497 118.13 39.497 119.16H39.5531C39.5555 119.672 39.5555 120.261 39.5555 120.936C39.5555 121.343 39.5384 121.745 39.5043 122.139C39.4897 121.248 38.6567 120.946 37.6922 120.851C36.6644 120.753 34.7816 120.573 33.8414 120.483C32.8988 120.393 32.1608 120.249 31.8759 121.282L31.832 121.274C31.9636 120.607 32.0439 119.811 32.0805 118.858H32.1073V118.861Z" fill="#FED607"/>
        <path d="M39.4946 116.574H39.5335C39.5433 117.083 39.5506 117.889 39.553 119.16H39.497C39.497 118.13 38.8102 117.899 37.7774 117.899H33.9096C32.9938 117.899 32.1584 118.14 32.1072 118.861H32.0804C32.0975 118.437 32.1048 117.984 32.1048 117.499V116.496C32.1048 115.721 32.9646 115.463 33.9096 115.463H37.7774C38.7785 115.463 39.4532 115.626 39.4946 116.574Z" fill="#FED607"/>
        <path d="M39.5336 116.574H39.4946C39.4532 115.626 38.7786 115.463 37.7775 115.463H33.9097C32.9646 115.463 32.1049 115.721 32.1049 116.496V114.06C32.1049 113.285 32.9646 113.027 33.9097 113.027H37.7775C38.8102 113.027 39.4971 113.2 39.4971 114.233V115.78C39.4971 115.78 39.519 115.461 39.5336 116.574Z" fill="#FED607"/>
        <path d="M39.4971 111.797V114.233C39.4971 113.2 38.8102 113.027 37.7775 113.027H33.9097C32.9646 113.027 32.1049 113.285 32.1049 114.06V111.624C32.1049 110.85 32.9646 110.592 33.9097 110.592H37.7775C38.8102 110.592 39.4971 110.765 39.4971 111.797Z" fill="#FED607"/>
        <path d="M39.4971 109.362V111.797C39.4971 110.765 38.8102 110.592 37.7775 110.592H33.9097C32.9646 110.592 32.1049 110.85 32.1049 111.624V109.189C32.1049 108.414 32.9646 108.156 33.9097 108.156H37.7775C38.8102 108.156 39.4971 108.329 39.4971 109.362Z" fill="#FED607"/>
        <path d="M39.4971 106.926V109.362C39.4971 108.329 38.8102 108.156 37.7775 108.156H33.9097C32.9646 108.156 32.1049 108.414 32.1049 109.189V106.753C32.1049 105.979 32.9646 105.72 33.9097 105.72H37.7775C38.8102 105.72 39.4971 105.893 39.4971 106.926Z" fill="#FED607"/>
        <path d="M39.4971 104.49V106.926C39.4971 105.893 38.8102 105.72 37.7775 105.72H33.9097C32.9646 105.72 32.1049 105.978 32.1049 106.753V104.317C32.1049 103.543 32.9646 103.285 33.9097 103.285H37.7775C38.8102 103.285 39.4971 103.458 39.4971 104.49Z" fill="#FED607"/>
        <path d="M39.4971 102.055V104.49C39.4971 103.458 38.8102 103.285 37.7775 103.285H33.9097C32.9646 103.285 32.1049 103.543 32.1049 104.317V101.882C32.1049 101.107 32.9646 100.849 33.9097 100.849H37.7775C38.8102 100.849 39.4971 101.022 39.4971 102.055Z" fill="#FED607"/>
        <path d="M39.4971 99.6192V102.055C39.4971 101.022 38.8102 100.849 37.7775 100.849H33.9097C32.9646 100.849 32.1049 101.107 32.1049 101.882V99.4462C32.1049 98.6717 32.9646 98.4135 33.9097 98.4135H37.7775C38.8102 98.4135 39.4971 98.5864 39.4971 99.6192Z" fill="#FED607"/>
        <path d="M39.4971 97.1835V99.6191C39.4971 98.5864 38.8102 98.4135 37.7775 98.4135H33.9097C32.9646 98.4135 32.1049 98.6717 32.1049 99.4462V97.0106C32.1049 96.236 32.9646 95.9778 33.9097 95.9778H37.7775C38.8102 95.9778 39.4971 96.1508 39.4971 97.1835Z" fill="#FED607"/>
        <path d="M39.4971 94.7478V97.1835C39.4971 96.1508 38.8102 95.9778 37.7775 95.9778H33.9097C32.9646 95.9778 32.1049 96.236 32.1049 97.0105V94.5749C32.1049 93.8004 32.9646 93.5422 33.9097 93.5422H37.7775C38.8102 93.5422 39.4971 93.7151 39.4971 94.7478Z" fill="#FED607"/>
        <path d="M39.4971 92.3122V94.7478C39.4971 93.7151 38.8102 93.5422 37.7775 93.5422H33.9097C32.9646 93.5422 32.1049 93.8003 32.1049 94.5749V92.1392C32.1049 91.3647 32.9646 91.1065 33.9097 91.1065H37.7775C38.8102 91.1065 39.4971 91.2794 39.4971 92.3122Z" fill="#FED607"/>
        <path d="M39.4971 89.8766V92.3122C39.4971 91.2795 38.8102 91.1066 37.7775 91.1066H33.9097C32.9646 91.1066 32.1049 91.3647 32.1049 92.1393V89.7036C32.1049 88.9291 32.9646 88.6709 33.9097 88.6709H37.7775C38.8102 88.6709 39.4971 88.8438 39.4971 89.8766Z" fill="#FED607"/>
        <path d="M39.4971 87.4409V89.8765C39.4971 88.8438 38.8102 88.6709 37.7775 88.6709H33.9097C32.9646 88.6709 32.1049 88.9291 32.1049 89.7036V87.2679C32.1049 86.4934 32.9646 86.2352 33.9097 86.2352H37.7775C38.8102 86.2352 39.4971 86.4082 39.4971 87.4409Z" fill="#FED607"/>
        <path d="M39.4971 85.0052V87.4409C39.4971 86.4081 38.8102 86.2352 37.7775 86.2352H33.9097C32.9646 86.2352 32.1049 86.4934 32.1049 87.2679V84.8323C32.1049 84.0577 32.9646 83.7996 33.9097 83.7996H37.7775C38.8102 83.7996 39.4971 83.9725 39.4971 85.0052Z" fill="#FED607"/>
        <path d="M39.4971 82.5695V85.0052C39.4971 83.9725 38.8102 83.7995 37.7775 83.7995H33.9097C32.9646 83.7995 32.1049 84.0577 32.1049 84.8323V82.3966C32.1049 81.6221 32.9646 81.3639 33.9097 81.3639H37.7775C38.8102 81.3639 39.4971 81.5368 39.4971 82.5695Z" fill="#FED607"/>
        <path d="M39.4971 80.1339V82.5695C39.4971 81.5368 38.8102 81.3639 37.7775 81.3639H33.9097C32.9646 81.3639 32.1049 81.6221 32.1049 82.3966V79.9609C32.1049 79.1864 32.9646 78.9282 33.9097 78.9282H37.7775C38.8102 78.9282 39.4971 79.1012 39.4971 80.1339Z" fill="#FED607"/>
        <path d="M39.4971 77.6982V80.1339C39.4971 79.1011 38.8102 78.9282 37.7775 78.9282H33.9097C32.9646 78.9282 32.1049 79.1864 32.1049 79.9609V77.5253C32.1049 76.7507 32.9646 76.4926 33.9097 76.4926H37.7775C38.8102 76.4926 39.4971 76.6655 39.4971 77.6982Z" fill="#FED607"/>
        <path d="M39.4971 76.0639V77.6982C39.4971 76.6655 38.8102 76.4926 37.7775 76.4926H33.9097C32.9646 76.4926 32.1049 76.7508 32.1049 77.5253V76.0639C32.1049 74.9289 33.0328 74.0009 34.1679 74.0009H37.4341C38.5691 74.0009 39.4971 74.9289 39.4971 76.0639Z" fill="#FED607"/>
        <path d="M39.5042 122.139C39.4068 123.264 39.1706 124.336 38.7833 125.327L38.6956 125.293C38.6956 124.777 38.0672 124.363 37.0905 124.032C36.1138 123.7 34.2091 122.928 33.3128 122.626C32.4652 122.339 31.6736 122.366 31.206 123.106L31.1694 123.082C31.4641 122.624 31.6809 122.034 31.8319 121.275L31.8758 121.282C32.1607 120.249 32.8987 120.393 33.8413 120.483C34.7815 120.573 36.6643 120.753 37.6921 120.851C38.6566 120.946 39.4896 121.248 39.5042 122.139Z" fill="#FED607"/>
        <path d="M31.2061 123.106C31.6738 122.366 32.4654 122.339 33.313 122.626C34.2093 122.928 36.114 123.7 37.0907 124.032C38.0674 124.363 38.6958 124.777 38.6958 125.293L38.7834 125.327C38.3986 126.321 37.8603 127.234 37.1637 128.041L36.9884 127.97C36.9884 127.97 33.123 124.217 32.7187 123.903C32.3143 123.586 31.7152 123.384 31.0186 123.652L30.719 123.625C30.8846 123.469 31.0356 123.289 31.1696 123.082L31.2061 123.106Z" fill="#FED607"/>
        <path d="M36.9883 127.97L37.1637 128.041C36.3891 128.937 35.4173 129.702 34.2336 130.301L34.2044 130.245C34.2044 130.245 31.9222 125.364 31.6567 124.926C31.3912 124.487 30.9041 124.085 30.1563 124.09L30.1295 124.037C30.3463 123.925 30.5411 123.788 30.7189 123.625L31.0185 123.652C31.7151 123.384 32.3143 123.586 32.7186 123.903C33.1229 124.217 36.9883 127.97 36.9883 127.97Z" fill="#FED607"/>
        <path d="M34.2044 130.245L34.2336 130.301C33.0913 130.881 31.7541 131.307 30.2051 131.546L30.1856 131.424V126.618C30.1856 125.471 29.7837 124.468 28.751 124.468V124.45C29.2819 124.375 29.7399 124.243 30.1296 124.036L30.1563 124.09C30.9041 124.085 31.3912 124.487 31.6567 124.925C31.9222 125.364 34.2044 130.245 34.2044 130.245Z" fill="#FED607"/>
        <path d="M31.8759 66.3773V69.6459C31.8759 70.7809 31.1866 71.8794 30.1563 73.0266L29.6327 73.5381L29.5815 73.4845V68.0701C29.5815 66.9229 29.1821 65.9194 28.1494 65.9194L28.1226 65.8901L29.8129 64.3143C30.9455 64.3143 31.8759 65.2447 31.8759 66.3773Z" fill="#FED607"/>
        <path d="M31.876 34.7137V37.9823C31.876 39.1003 31.2062 40.1842 30.1978 41.3143L30.1564 41.2778L29.5816 41.8209V36.4065C29.5816 35.2593 29.1821 34.2558 28.1494 34.2558L27.9911 34.0902L29.4671 32.6799L29.813 32.6507C30.9455 32.6507 31.876 33.5811 31.876 34.7137Z" fill="#FED607"/>
        <path d="M31.876 3.29383V6.56248C31.876 7.68045 31.2062 8.76431 30.1978 9.89445L30.1564 9.85792L29.5816 10.4011V4.98661C29.5816 3.83942 29.1821 2.83593 28.1494 2.83593L27.9911 2.67031L29.4671 1.26006L29.813 1.23083C30.9455 1.23083 31.876 2.16125 31.876 3.29383Z" fill="#FED607"/>
        <path d="M30.1855 131.424L30.205 131.546C29.4183 131.667 28.5755 131.74 27.6768 131.762L27.6719 131.597V126.696C27.6719 125.551 27.27 124.548 26.2397 124.548V124.536C26.5198 124.546 26.8121 124.548 27.119 124.548C27.7279 124.548 28.2686 124.521 28.7485 124.451V124.468C29.7836 124.468 30.1855 125.471 30.1855 126.618V131.424Z" fill="#FED607"/>
        <path d="M29.5816 73.4846L29.6327 73.5381L27.2896 75.8252L27.1459 75.6767V70.2622C27.1459 69.115 26.861 68.2406 25.8282 68.2406L25.7235 68.1286L28.1226 65.8902L28.1494 65.9194C29.1821 65.9194 29.5816 66.9229 29.5816 68.0701V73.4846Z" fill="#FED607"/>
        <path d="M29.5816 10.401L27.2044 12.654L27.1459 12.5931V7.17862C27.1459 6.03143 26.861 5.15703 25.8282 5.15703L25.6188 4.93782L27.9911 2.67023L28.1494 2.83585C29.1821 2.83585 29.5816 3.83934 29.5816 4.98653V10.401Z" fill="#FED607"/>
        <path d="M29.5816 41.821L27.2044 44.074L27.1459 44.0131V38.5987C27.1459 37.4515 26.861 36.5771 25.8282 36.5771L25.6188 36.3579L27.9911 34.0903L28.1494 34.2559C29.1821 34.2559 29.5816 35.2594 29.5816 36.4066V41.821Z" fill="#FED607"/>
        <path d="M27.6719 131.597L27.6768 131.762C27.4941 131.767 27.3066 131.77 27.119 131.77C26.118 131.77 25.1729 131.716 24.2839 131.611L24.318 131.319C24.318 131.319 24.9489 127.963 25.0926 126.314C25.1851 125.264 24.6444 124.48 23.8163 124.253L23.826 124.219C24.4885 124.426 25.2874 124.509 26.2398 124.536V124.548C27.27 124.548 27.6719 125.551 27.6719 126.696V131.597Z" fill="#FED607"/>
        <path d="M27.1459 75.6766L27.2896 75.8252L24.8247 78.2316L24.7102 78.1123V72.6978C24.7102 71.5506 24.3108 70.5471 23.278 70.5471L23.2098 70.4765L25.7234 68.1285L25.8282 68.2406C26.8609 68.2406 27.1459 69.115 27.1459 70.2622V75.6766Z" fill="#FED607"/>
        <path d="M27.1458 12.5931L27.2042 12.654L24.7101 15.0166V9.61432C24.7101 8.46713 24.3107 7.46364 23.278 7.46364L23.1318 7.31019L25.6186 4.93787L25.8281 5.15708C26.8608 5.15708 27.1458 6.03147 27.1458 7.17867V12.5931Z" fill="#FED607"/>
        <path d="M27.1458 44.0132L27.2042 44.0741L24.7101 46.4366V41.0344C24.7101 39.8872 24.3107 38.8837 23.278 38.8837L23.1318 38.7302L25.6186 36.3579L25.8281 36.5771C26.8608 36.5771 27.1458 37.4515 27.1458 38.5987V44.0132Z" fill="#FED607"/>
        <path d="M23.8163 124.253C24.6444 124.48 25.1851 125.264 25.0926 126.314C24.9489 127.963 24.318 131.319 24.318 131.319L24.2839 131.611C22.8006 131.438 21.4707 131.124 20.2968 130.681H20.2992C20.8131 130.678 21.1712 130.337 21.5024 129.361C21.8337 128.384 22.6033 126.482 22.9078 125.586C23.1733 124.799 23.1708 124.061 22.5814 123.583L22.596 123.566C22.9394 123.863 23.3462 124.073 23.826 124.219L23.8163 124.253Z" fill="#FED607"/>
        <path d="M24.7101 78.1122L24.8246 78.2315L22.6081 80.3968L22.518 80.3042V74.8898C22.518 73.7426 22.1186 72.7391 21.0859 72.7391L20.947 72.5881L23.2097 70.4764L23.2779 70.547C24.3107 70.547 24.7101 71.5505 24.7101 72.6977V78.1122Z" fill="#FED607"/>
        <path d="M24.7102 41.0344V46.4366L22.5839 48.4509L22.5181 48.3827V43.2264C22.5181 42.0792 22.1187 41.0758 21.086 41.0758L20.8911 40.8712L23.1319 38.7302L23.2781 38.8837C24.3108 38.8837 24.7102 39.8872 24.7102 41.0344Z" fill="#FED607"/>
        <path d="M24.7102 9.61431V15.0166L22.5839 17.0309L22.5181 16.9627V11.8064C22.5181 10.6592 22.1187 9.65572 21.086 9.65572L20.8911 9.45112L23.1319 7.31018L23.2781 7.46363C24.3108 7.46363 24.7102 8.46712 24.7102 9.61431Z" fill="#FED607"/>
        <path d="M22.5813 123.583C23.1708 124.061 23.1732 124.799 22.9077 125.586C22.6033 126.482 21.8336 128.384 21.5023 129.361C21.1711 130.337 20.8131 130.678 20.2991 130.678H20.2967C19.1836 130.264 18.2093 129.733 17.3763 129.1L17.6613 129.076C17.6613 129.076 21.3172 125.393 21.6314 124.989C21.9237 124.616 22.1186 124.078 21.9359 123.449L22.3378 123.315C22.4181 123.406 22.5034 123.491 22.5959 123.566L22.5813 123.583Z" fill="#FED607"/>
        <path d="M22.5182 80.3044L22.6083 80.397L20.5283 82.4259C20.4577 82.4941 20.3846 82.5598 20.314 82.6232L20.0826 82.4965V77.082C20.0826 75.9348 19.6831 74.9314 18.6504 74.9314L18.5505 74.8242L20.9472 72.5883L21.0861 72.7393C22.1188 72.7393 22.5182 73.7428 22.5182 74.89V80.3044Z" fill="#FED607"/>
        <path d="M22.518 16.9627L22.5838 17.0309L20.0824 19.4008V13.9985C20.0824 12.8513 19.6829 11.8478 18.6502 11.8478L18.5236 11.7138L20.891 9.45111L21.0859 9.65571C22.1186 9.65571 22.518 10.6592 22.518 11.8064V16.9627Z" fill="#FED607"/>
        <path d="M22.518 48.3827L22.5838 48.4509L20.0824 50.8208V45.4185C20.0824 44.2713 19.6829 43.2678 18.6502 43.2678L18.5236 43.1339L20.891 40.8712L21.0859 41.0757C22.1186 41.0757 22.518 42.0792 22.518 43.2264V48.3827Z" fill="#FED607"/>
        <path d="M21.9361 123.45C22.1187 124.078 21.9239 124.616 21.6316 124.989C21.3174 125.393 17.6615 129.076 17.6615 129.076L17.3765 129.1C16.3024 128.277 15.4621 127.286 14.8678 126.148L14.9677 126.095C14.9677 126.095 15.3135 126.497 15.9736 126.153C17.3083 125.464 20.2725 124.131 20.6086 123.927C21.03 123.671 21.4173 123.211 21.4416 122.512L21.8143 122.524C21.9653 122.831 22.1382 123.091 22.3379 123.316L21.9361 123.45Z" fill="#FED607"/>
        <path d="M21.4416 122.512C21.4172 123.211 21.0299 123.671 20.6086 123.927C20.2725 124.131 17.3083 125.464 15.9735 126.153C15.3135 126.496 14.9676 126.095 14.9676 126.095L14.8677 126.148C14.2515 124.969 13.8959 123.634 13.8107 122.173L13.874 122.168C13.986 123.194 14.7046 123.289 15.7543 123.174C16.8041 123.06 18.7307 122.85 19.6928 122.743C20.6549 122.638 21.5025 122.288 21.4172 121.518L21.4537 121.508C21.5512 121.893 21.673 122.229 21.8142 122.524L21.4416 122.512Z" fill="#FED607"/>
        <path d="M21.4537 121.508L21.4172 121.518C21.5024 122.288 20.6548 122.638 19.6927 122.743C18.7306 122.85 16.804 123.06 15.7543 123.174C14.7045 123.289 13.986 123.194 13.8739 122.168L13.8106 122.173C13.796 121.937 13.7887 121.696 13.7887 121.452V119.645C13.8861 120.476 14.5413 120.622 15.4839 120.622H19.3274C20.2675 120.622 21.12 120.363 21.12 119.591H21.1565C21.215 120.334 21.3124 120.968 21.4537 121.508Z" fill="#FED607"/>
        <path d="M21.1565 119.589H21.12C21.12 120.363 20.2675 120.622 19.3274 120.622H15.4839C14.5413 120.622 13.8861 120.475 13.7887 119.645V117.209C13.8861 118.04 14.5364 118.186 15.4742 118.186H19.2981C20.2334 118.186 21.0835 117.928 21.0835 117.156V117.499C21.0835 118.279 21.1078 118.97 21.1565 119.589Z" fill="#FED607"/>
        <path d="M21.1005 105.635C21.1273 105.689 21.0518 105.745 20.9105 105.798C20.5939 105.913 19.9411 106.008 19.2981 106.008H15.4741C14.456 106.008 13.7765 105.835 13.7765 104.805H13.7667V103.285C13.7667 103.285 16.3558 105.092 21.1029 105.608V105.635H21.1005Z" fill="#FED607"/>
        <path d="M21.0835 114.72V117.156C21.0835 117.928 20.2334 118.186 19.2981 118.186H15.4742C14.5364 118.186 13.8861 118.04 13.7887 117.209V114.757C13.8764 115.602 14.5291 115.75 15.4742 115.75H19.2981C20.2334 115.75 21.0835 115.492 21.0835 114.72Z" fill="#FED607"/>
        <path d="M21.0835 112.285V114.72C21.0835 115.492 20.2334 115.75 19.2981 115.75H15.4742C14.5291 115.75 13.8764 115.602 13.7862 114.757L13.7814 112.263C13.8471 113.159 14.5072 113.315 15.4742 113.315H19.2981C20.2334 113.315 21.0835 113.057 21.0835 112.285Z" fill="#FED607"/>
        <path d="M21.0836 109.849V112.284C21.0836 113.057 20.2335 113.315 19.2982 113.315H15.4743C14.5073 113.315 13.8472 113.159 13.7815 112.262L13.7766 109.695C13.7864 110.709 14.4635 110.879 15.4743 110.879H19.2982C20.2335 110.879 21.0836 110.621 21.0836 109.849Z" fill="#FED607"/>
        <path d="M21.0834 107.413V109.849C21.0834 110.621 20.2334 110.879 19.2981 110.879H15.4741C14.4633 110.879 13.7862 110.709 13.7765 109.695V109.676L13.7716 107.24H13.7765C13.7765 108.27 14.456 108.443 15.4741 108.443H19.2981C20.2334 108.443 21.0834 108.185 21.0834 107.413Z" fill="#FED607"/>
        <path d="M21.0834 105.808V107.413C21.0834 108.185 20.2334 108.443 19.2981 108.443H15.4741C14.456 108.443 13.7765 108.27 13.7765 107.24H13.7716L13.7667 104.805H13.7765C13.7765 105.835 14.456 106.008 15.4741 106.008H19.2981C19.9411 106.008 20.5939 105.913 20.9105 105.798L21.0834 105.808Z" fill="#FED607"/>
        <path d="M16.2122 76.8652C16.1635 76.8774 16.1148 76.892 16.0685 76.9115L16.0295 76.8092C16.6872 76.5364 17.1451 76.1199 17.7759 75.5475L18.5504 74.8241L18.6503 74.9313C19.683 74.9313 20.0825 75.9348 20.0825 77.082V82.4964L20.3139 82.6231C19.42 83.4293 18.5845 83.9091 17.6614 84.1916L17.6468 84.1453V79.0305C17.6468 77.8833 17.2474 76.8798 16.2147 76.8798V76.8652H16.2122Z" fill="#FED607"/>
        <path d="M20.0823 45.4184V50.8207L17.4469 53.3148L17.4031 53.2685V47.854C17.4031 46.7068 17.0036 45.7033 15.9709 45.7033L15.9052 45.6351L18.5235 43.1337L18.6501 43.2677C19.6829 43.2677 20.0823 44.2712 20.0823 45.4184Z" fill="#FED607"/>
        <path d="M20.0823 13.9985V19.4008L17.4469 21.8949L17.4031 21.8486V16.4342C17.4031 15.287 17.0036 14.2835 15.9709 14.2835L15.9052 14.2153L18.5235 11.7139L18.6501 11.8478C19.6829 11.8478 20.0823 12.8513 20.0823 13.9985Z" fill="#FED607"/>
        <path d="M17.6467 84.1455L17.6613 84.1917C16.8722 84.4353 16.0148 84.5327 15.0016 84.5741L14.9967 84.4889V79.3448C14.9967 78.3535 15.3182 77.2063 16.0684 76.9116C16.1147 76.8921 16.1634 76.8775 16.2121 76.8653V76.8799C17.2472 76.8799 17.6467 77.8834 17.6467 79.0306V84.1455Z" fill="#FED607"/>
        <path d="M17.4469 21.895L15.0697 24.148L14.9674 24.0408V18.6264C14.9674 17.4792 14.6825 16.6048 13.6497 16.6048L13.5328 16.4806L15.9052 14.2154L15.9709 14.2836C17.0036 14.2836 17.4031 15.2871 17.4031 16.4343V21.8487L17.4469 21.895Z" fill="#FED607"/>
        <path d="M17.4469 53.3149L15.0697 55.5678L14.9674 55.4607V50.0462C14.9674 48.899 14.6825 48.0246 13.6497 48.0246L13.5328 47.9004L15.9052 45.6353L15.9709 45.7035C17.0036 45.7035 17.4031 46.7069 17.4031 47.8541V53.2686L17.4469 53.3149Z" fill="#FED607"/>
        <path d="M13.8982 77.199V77.1941C14.8579 77.1503 15.5057 77.026 16.0294 76.8093L16.0684 76.9116C15.3182 77.2063 14.9967 78.3535 14.9967 79.3448V84.4889L15.0016 84.5741C14.2952 84.6034 13.5109 84.6034 12.6195 84.6034H12.561V79.3448C12.561 78.2341 12.9386 77.2599 13.8982 77.199Z" fill="#FED607"/>
        <path d="M14.9675 24.0407L15.0698 24.1479L12.5709 26.5178L12.5319 26.4764V21.0619C12.5319 19.9147 12.1324 18.9113 11.0997 18.9113L11.0461 18.8552L13.5329 16.4805L13.6499 16.6047C14.6826 16.6047 14.9675 17.4791 14.9675 18.6263V24.0407Z" fill="#FED607"/>
        <path d="M14.9675 55.4606L15.0698 55.5678L12.5709 57.9377L12.5319 57.8963V52.4818C12.5319 51.3346 12.1324 50.3311 11.0997 50.3311L11.0461 50.2751L13.5329 47.9003L13.6499 48.0245C14.6826 48.0245 14.9675 48.8989 14.9675 50.0461V55.4606Z" fill="#FED607"/>
        <path d="M13.8982 77.1941V77.199C12.9385 77.2599 12.561 78.2341 12.561 79.3448V84.6033H10.1254V79.3448C10.1254 78.2755 10.4761 77.3329 11.3578 77.2111H13.0774C13.3745 77.2111 13.6473 77.2063 13.8982 77.1941Z" fill="#FED607"/>
        <path d="M12.5318 57.8963L12.5708 57.9377L10.3398 60.0494V54.6739C10.3398 53.5267 9.94031 52.5233 8.90759 52.5233L8.8053 52.4161L11.0461 50.2751L11.0997 50.3312C12.1324 50.3312 12.5318 51.3347 12.5318 52.4818V57.8963Z" fill="#FED607"/>
        <path d="M12.5318 26.4764L12.5708 26.5179L10.3398 28.6296V23.2541C10.3398 22.1069 9.94031 21.1034 8.90759 21.1034L8.8053 20.9962L11.0461 18.8553L11.0997 18.9113C12.1324 18.9113 12.5318 19.9148 12.5318 21.062V26.4764Z" fill="#FED607"/>
        <path d="M8.92214 77.2111H11.3578C10.4761 77.3328 10.1254 78.2754 10.1254 79.3447V84.6033H7.6897V79.3447C7.6897 78.2754 8.04043 77.3328 8.92214 77.2111Z" fill="#FED607"/>
        <path d="M10.3398 54.6739V60.0494L7.9431 62.3194L7.90413 62.2805V56.866C7.90413 55.7188 7.50468 54.7153 6.47197 54.7153L6.43787 54.6788L8.80532 52.4161L8.90762 52.5232C9.94034 52.5232 10.3398 53.5267 10.3398 54.6739Z" fill="#FED607"/>
        <path d="M10.3398 23.2541V28.6296L7.9431 30.8996L7.90413 30.8606V25.4462C7.90413 24.299 7.50468 23.2955 6.47197 23.2955L6.43787 23.2589L8.80532 20.9962L8.90762 21.1034C9.94034 21.1034 10.3398 22.1069 10.3398 23.2541Z" fill="#FED607"/>
        <path d="M6.48659 77.2111H8.92225C8.04054 77.3328 7.6898 78.2754 7.6898 79.3447V84.6033H5.25415V79.3447C5.25415 78.2754 5.60488 77.3328 6.48659 77.2111Z" fill="#FED607"/>
        <path d="M7.94316 30.8994L5.31509 33.3911L5.22497 33.2961V27.8817C5.22497 26.7345 4.94 25.731 3.90728 25.731L3.87805 25.7017L6.43792 23.2588L6.47202 23.2953C7.50474 23.2953 7.90419 24.2988 7.90419 25.446V30.8605L7.94316 30.8994Z" fill="#FED607"/>
        <path d="M7.94316 62.3195L5.31509 64.8112L5.22497 64.7162V59.3017C5.22497 58.1545 4.94 57.151 3.90728 57.151L3.87805 57.1218L6.43792 54.6788L6.47202 54.7154C7.50474 54.7154 7.90419 55.7189 7.90419 56.866V62.2805L7.94316 62.3195Z" fill="#FED607"/>
        <path d="M4.05089 77.2111H6.48655C5.60484 77.3328 5.25411 78.2754 5.25411 79.3447V84.6033H3.10586C3.00356 84.6033 2.9037 84.596 2.80627 84.5813L2.81845 84.4888V79.3447C2.81845 78.2754 3.16919 77.3328 4.05089 77.2111Z" fill="#FED607"/>
        <path d="M5.22499 64.7162L5.31511 64.8112L2.94765 67.052C2.89163 67.052 2.83318 67.0495 2.77959 67.0447L2.78934 66.9083V61.4938C2.78934 60.3466 2.70409 59.6452 1.67381 59.6452L1.61292 59.6038C1.88327 59.1873 2.21939 58.7683 2.60423 58.3397L3.87807 57.1218L3.9073 57.1511C4.94002 57.1511 5.22499 58.1545 5.22499 59.3017V64.7162Z" fill="#FED607"/>
        <path d="M5.22499 33.2961L5.31511 33.3911L2.94765 35.6319C2.89163 35.6319 2.83318 35.6295 2.77959 35.6246L2.78934 35.4882V30.0738C2.78934 28.9266 2.70409 28.2251 1.67381 28.2251L1.61292 28.1837C1.88327 27.7672 2.21939 27.3483 2.60423 26.9196L3.87807 25.7018L3.9073 25.731C4.94002 25.731 5.22499 26.7345 5.22499 27.8817V33.2961Z" fill="#FED607"/>
        <path d="M3.10585 77.2111H4.05088C3.16917 77.3328 2.81844 78.2754 2.81844 79.3447V84.4888L2.80626 84.5813C1.81251 84.4352 1.04285 83.573 1.04285 82.5403V79.2741C1.04285 78.139 1.97083 77.2111 3.10585 77.2111Z" fill="#FED607"/>
        <path d="M2.78932 61.4938V66.9082L2.77958 67.0446C1.72251 66.9594 0.884644 66.0679 0.884644 64.9889V61.7227C0.884644 61.0091 1.155 60.31 1.6129 59.6037L1.6738 59.6451C2.70408 59.6451 2.78932 60.3466 2.78932 61.4938Z" fill="#FED607"/>
        <path d="M2.78932 30.0739V35.4884L2.77958 35.6248C1.72251 35.5395 0.884644 34.6481 0.884644 33.5691V30.3029C0.884644 29.5892 1.155 28.8902 1.6129 28.1838L1.6738 28.2252C2.70408 28.2252 2.78932 28.9267 2.78932 30.0739Z" fill="#FED607"/>
        <path d="M28.1493 65.9194C29.182 65.9194 29.5815 66.9229 29.5815 68.0701V73.4846" stroke="#D18000" stroke-miterlimit="10" stroke-linecap="round"/>
        <path d="M25.8282 68.2405C26.861 68.2405 27.1459 69.1149 27.1459 70.2621V75.6766" stroke="#D18000" stroke-miterlimit="10" stroke-linecap="round"/>
        <path d="M23.278 70.5471C24.3107 70.5471 24.7101 71.5506 24.7101 72.6977V78.1122" stroke="#D18000" stroke-miterlimit="10" stroke-linecap="round"/>
        <path d="M21.0859 72.7392C22.1187 72.7392 22.5181 73.7427 22.5181 74.8899V80.3043" stroke="#D18000" stroke-miterlimit="10" stroke-linecap="round"/>
        <path d="M18.6503 74.9313C19.683 74.9313 20.0824 75.9348 20.0824 77.082V82.4964" stroke="#D18000" stroke-miterlimit="10" stroke-linecap="round"/>
        <path d="M16.2146 76.8797C17.2473 76.8797 17.6468 77.8832 17.6468 79.0304V84.1453" stroke="#D18000" stroke-miterlimit="10" stroke-linecap="round"/>
        <path d="M4.25065 77.1964C4.18001 77.1964 4.11425 77.2013 4.05092 77.211C3.16922 77.3328 2.81848 78.2754 2.81848 79.3447V84.4888" stroke="#D18000" stroke-miterlimit="10" stroke-linecap="round"/>
        <path d="M6.68631 77.1964C6.61568 77.1964 6.54992 77.2013 6.48659 77.211C5.60488 77.3328 5.25415 78.2754 5.25415 79.3447V84.4888" stroke="#D18000" stroke-miterlimit="10" stroke-linecap="round"/>
        <path d="M9.12186 77.1964C9.05123 77.1964 8.98546 77.2013 8.92214 77.211C8.04043 77.3328 7.6897 78.2754 7.6897 79.3447V84.4888" stroke="#D18000" stroke-miterlimit="10" stroke-linecap="round"/>
        <path d="M11.5575 77.1964C11.4869 77.1964 11.4211 77.2013 11.3578 77.211C10.4761 77.3328 10.1254 78.2754 10.1254 79.3447V84.4888" stroke="#D18000" stroke-miterlimit="10" stroke-linecap="round"/>
        <path d="M13.9932 77.1964C13.9615 77.1964 13.9299 77.1964 13.8982 77.1988C12.9386 77.2597 12.561 78.234 12.561 79.3447V84.4888" stroke="#D18000" stroke-miterlimit="10" stroke-linecap="round"/>
        <path d="M16.4581 76.8383C16.3728 76.8383 16.29 76.8481 16.2121 76.8651C16.1634 76.8773 16.1147 76.8919 16.0684 76.9114C15.3182 77.2061 14.9967 78.3533 14.9967 79.3446V84.4887" stroke="#D18000" stroke-miterlimit="10" stroke-linecap="round"/>
        <path d="M28.1493 34.2559C29.182 34.2559 29.5815 35.2593 29.5815 36.4065V41.821" stroke="#D18000" stroke-miterlimit="10" stroke-linecap="round"/>
        <path d="M25.8282 36.577C26.861 36.577 27.1459 37.4514 27.1459 38.5986V44.013" stroke="#D18000" stroke-miterlimit="10" stroke-linecap="round"/>
        <path d="M23.278 38.8837C24.3107 38.8837 24.7101 39.8872 24.7101 41.0343V46.4488" stroke="#D18000" stroke-miterlimit="10" stroke-linecap="round"/>
        <path d="M21.0859 41.0758C22.1187 41.0758 22.5181 42.0793 22.5181 43.2265V48.3828" stroke="#D18000" stroke-miterlimit="10" stroke-linecap="round"/>
        <path d="M18.6503 43.2677C19.683 43.2677 20.0824 44.2712 20.0824 45.4184V50.8328" stroke="#D18000" stroke-miterlimit="10" stroke-linecap="round"/>
        <path d="M15.9711 45.7034C17.0038 45.7034 17.4032 46.7069 17.4032 47.8541V53.2685" stroke="#D18000" stroke-miterlimit="10" stroke-linecap="round"/>
        <path d="M13.6499 48.0247C14.6826 48.0247 14.9676 48.8991 14.9676 50.0463V55.4607" stroke="#D18000" stroke-miterlimit="10" stroke-linecap="round"/>
        <path d="M11.0997 50.3312C12.1324 50.3312 12.5319 51.3347 12.5319 52.4819V57.8963" stroke="#D18000" stroke-miterlimit="10" stroke-linecap="round"/>
        <path d="M8.90759 52.5233C9.94031 52.5233 10.3398 53.5268 10.3398 54.674V60.0885" stroke="#D18000" stroke-miterlimit="10" stroke-linecap="round"/>
        <path d="M6.47192 54.7155C7.50464 54.7155 7.90409 55.7189 7.90409 56.8661V62.2806" stroke="#D18000" stroke-miterlimit="10" stroke-linecap="round"/>
        <path d="M3.90723 57.1511C4.93994 57.1511 5.22492 58.1546 5.22492 59.3018V64.7163" stroke="#D18000" stroke-miterlimit="10" stroke-linecap="round"/>
        <path d="M1.67371 59.6451C2.70399 59.6451 2.78924 60.3465 2.78924 61.4937V66.9082" stroke="#D18000" stroke-miterlimit="10" stroke-linecap="round"/>
        <path d="M28.1493 2.836C29.182 2.836 29.5815 3.83949 29.5815 4.98668V10.4011" stroke="#D18000" stroke-miterlimit="10" stroke-linecap="round"/>
        <path d="M25.8282 5.1571C26.861 5.1571 27.1459 6.0315 27.1459 7.1787V12.5932" stroke="#D18000" stroke-miterlimit="10" stroke-linecap="round"/>
        <path d="M23.278 7.46362C24.3107 7.46362 24.7101 8.46711 24.7101 9.6143V15.0288" stroke="#D18000" stroke-miterlimit="10" stroke-linecap="round"/>
        <path d="M21.0859 9.65576C22.1187 9.65576 22.5181 10.6593 22.5181 11.8064V16.9627" stroke="#D18000" stroke-miterlimit="10" stroke-linecap="round"/>
        <path d="M18.6503 11.8478C19.683 11.8478 20.0824 12.8513 20.0824 13.9985V19.413" stroke="#D18000" stroke-miterlimit="10" stroke-linecap="round"/>
        <path d="M15.9711 14.2835C17.0038 14.2835 17.4032 15.287 17.4032 16.4342V21.8486" stroke="#D18000" stroke-miterlimit="10" stroke-linecap="round"/>
        <path d="M13.6499 16.6046C14.6826 16.6046 14.9676 17.479 14.9676 18.6262V24.0407" stroke="#D18000" stroke-miterlimit="10" stroke-linecap="round"/>
        <path d="M11.0997 18.9113C12.1324 18.9113 12.5319 19.9148 12.5319 21.062V26.4765" stroke="#D18000" stroke-miterlimit="10" stroke-linecap="round"/>
        <path d="M8.90759 21.1033C9.94031 21.1033 10.3398 22.1068 10.3398 23.254V28.6684" stroke="#D18000" stroke-miterlimit="10" stroke-linecap="round"/>
        <path d="M6.47192 23.2954C7.50464 23.2954 7.90409 24.2989 7.90409 25.4461V30.8606" stroke="#D18000" stroke-miterlimit="10" stroke-linecap="round"/>
        <path d="M3.90723 25.7311C4.93994 25.7311 5.22492 26.7346 5.22492 27.8818V33.2962" stroke="#D18000" stroke-miterlimit="10" stroke-linecap="round"/>
        <path d="M1.67371 28.2252C2.70399 28.2252 2.78924 28.9267 2.78924 30.0739V35.4883" stroke="#D18000" stroke-miterlimit="10" stroke-linecap="round"/>
        <path d="M32.1049 77.5253C32.1049 76.7507 32.9646 76.4926 33.9097 76.4926H37.7775C38.8102 76.4926 39.4971 76.6655 39.4971 77.6982" stroke="#D18000" stroke-miterlimit="10" stroke-linecap="round"/>
        <path d="M32.1049 79.9609C32.1049 79.1864 32.9646 78.9282 33.9097 78.9282H37.7775C38.8102 78.9282 39.4971 79.1012 39.4971 80.1339" stroke="#D18000" stroke-miterlimit="10" stroke-linecap="round"/>
        <path d="M32.1049 82.3966C32.1049 81.6221 32.9646 81.3639 33.9097 81.3639H37.7775C38.8102 81.3639 39.4971 81.5368 39.4971 82.5695" stroke="#D18000" stroke-miterlimit="10" stroke-linecap="round"/>
        <path d="M32.1049 84.8323C32.1049 84.0577 32.9646 83.7996 33.9097 83.7996H37.7775C38.8102 83.7996 39.4971 83.9725 39.4971 85.0052" stroke="#D18000" stroke-miterlimit="10" stroke-linecap="round"/>
        <path d="M32.1049 87.2679C32.1049 86.4934 32.9646 86.2352 33.9097 86.2352H37.7775C38.8102 86.2352 39.4971 86.4082 39.4971 87.4409" stroke="#D18000" stroke-miterlimit="10" stroke-linecap="round"/>
        <path d="M32.1049 89.7036C32.1049 88.9291 32.9646 88.6709 33.9097 88.6709H37.7775C38.8102 88.6709 39.4971 88.8438 39.4971 89.8766" stroke="#D18000" stroke-miterlimit="10" stroke-linecap="round"/>
        <path d="M32.1049 92.1392C32.1049 91.3647 32.9646 91.1065 33.9097 91.1065H37.7775C38.8102 91.1065 39.4971 91.2794 39.4971 92.3122" stroke="#D18000" stroke-miterlimit="10" stroke-linecap="round"/>
        <path d="M32.1049 94.5749C32.1049 93.8004 32.9646 93.5422 33.9097 93.5422H37.7775C38.8102 93.5422 39.4971 93.7151 39.4971 94.7478" stroke="#D18000" stroke-miterlimit="10" stroke-linecap="round"/>
        <path d="M32.1049 97.0106C32.1049 96.236 32.9646 95.9778 33.9097 95.9778H37.7775C38.8102 95.9778 39.4971 96.1508 39.4971 97.1835" stroke="#D18000" stroke-miterlimit="10" stroke-linecap="round"/>
        <path d="M32.1049 99.4462C32.1049 98.6717 32.9646 98.4135 33.9097 98.4135H37.7775C38.8102 98.4135 39.4971 98.5864 39.4971 99.6192" stroke="#D18000" stroke-miterlimit="10" stroke-linecap="round"/>
        <path d="M32.1049 101.882C32.1049 101.107 32.9646 100.849 33.9097 100.849H37.7775C38.8102 100.849 39.4971 101.022 39.4971 102.055" stroke="#D18000" stroke-miterlimit="10" stroke-linecap="round"/>
        <path d="M32.1049 104.317C32.1049 103.543 32.9646 103.285 33.9097 103.285H37.7775C38.8102 103.285 39.4971 103.458 39.4971 104.49" stroke="#D18000" stroke-miterlimit="10" stroke-linecap="round"/>
        <path d="M32.1049 106.753C32.1049 105.979 32.9646 105.72 33.9097 105.72H37.7775C38.8102 105.72 39.4971 105.893 39.4971 106.926" stroke="#D18000" stroke-miterlimit="10" stroke-linecap="round"/>
        <path d="M32.1049 109.189C32.1049 108.414 32.9646 108.156 33.9097 108.156H37.7775C38.8102 108.156 39.4971 108.329 39.4971 109.362" stroke="#D18000" stroke-miterlimit="10" stroke-linecap="round"/>
        <path d="M32.1049 111.624C32.1049 110.85 32.9646 110.592 33.9097 110.592H37.7775C38.8102 110.592 39.4971 110.765 39.4971 111.797" stroke="#D18000" stroke-miterlimit="10" stroke-linecap="round"/>
        <path d="M32.1049 114.06C32.1049 113.285 32.9646 113.027 33.9097 113.027H37.7775C38.8102 113.027 39.4971 113.2 39.4971 114.233" stroke="#D18000" stroke-miterlimit="10" stroke-linecap="round"/>
        <path d="M32.1049 116.496C32.1049 115.721 32.9646 115.463 33.9097 115.463H37.7775C38.7786 115.463 39.4532 115.626 39.4946 116.574C39.4971 116.605 39.4971 116.637 39.4971 116.669" stroke="#D18000" stroke-miterlimit="10" stroke-linecap="round"/>
        <path d="M32.1049 118.931C32.1049 118.907 32.1049 118.883 32.1073 118.861C32.1584 118.14 32.9939 117.899 33.9097 117.899H37.7775C38.8102 117.899 39.4971 118.13 39.4971 119.16" stroke="#D18000" stroke-miterlimit="10" stroke-linecap="round"/>
        <path d="M31.8757 121.282C32.1607 120.249 32.8987 120.393 33.8413 120.483C34.7815 120.573 36.6642 120.753 37.6921 120.851C38.6566 120.946 39.4896 121.248 39.5042 122.139C39.5042 122.193 39.5018 122.251 39.4969 122.312" stroke="#D18000" stroke-miterlimit="10" stroke-linecap="round"/>
        <path d="M38.6958 125.293C38.6958 124.777 38.0674 124.363 37.0907 124.032C36.114 123.7 34.2093 122.928 33.313 122.626C32.4654 122.339 31.6738 122.366 31.2061 123.106C31.1769 123.145 31.155 123.186 31.1306 123.23" stroke="#D18000" stroke-miterlimit="10" stroke-linecap="round"/>
        <path d="M28.751 124.468C29.7837 124.468 30.1856 125.471 30.1856 126.618V131.424" stroke="#D18000" stroke-miterlimit="10" stroke-linecap="round"/>
        <path d="M26.2397 124.548C27.27 124.548 27.6719 125.551 27.6719 126.696V131.597" stroke="#D18000" stroke-miterlimit="10" stroke-linecap="round"/>
        <path d="M23.6604 124.217C23.714 124.226 23.7651 124.239 23.8163 124.253C24.6444 124.48 25.1851 125.264 25.0926 126.314C24.9489 127.963 24.318 131.319 24.318 131.319" stroke="#D18000" stroke-miterlimit="10" stroke-linecap="round"/>
        <path d="M30.1562 124.09C30.904 124.085 31.3911 124.487 31.6566 124.925C31.9221 125.364 34.2043 130.245 34.2043 130.245" stroke="#D18000" stroke-miterlimit="10" stroke-linecap="round"/>
        <path d="M21.1201 119.591C21.1201 120.363 20.2676 120.622 19.3275 120.622H15.484C14.5414 120.622 13.8862 120.476 13.7888 119.645C13.7815 119.574 13.7766 119.499 13.7766 119.418" stroke="#D18000" stroke-miterlimit="10" stroke-linecap="round"/>
        <path d="M21.0836 117.156C21.0836 117.928 20.2335 118.186 19.2982 118.186H15.4743C14.5365 118.186 13.8862 118.04 13.7888 117.209C13.7815 117.139 13.7766 117.063 13.7766 116.983" stroke="#D18000" stroke-miterlimit="10" stroke-linecap="round"/>
        <path d="M21.0836 114.72C21.0836 115.492 20.2335 115.75 19.2982 115.75H15.4743C14.5292 115.75 13.8765 115.602 13.7864 114.757C13.779 114.691 13.7766 114.623 13.7766 114.547" stroke="#D18000" stroke-miterlimit="10" stroke-linecap="round"/>
        <path d="M21.0836 112.284C21.0836 113.057 20.2335 113.315 19.2982 113.315H15.4743C14.5073 113.315 13.8472 113.159 13.7815 112.263C13.7815 112.214 13.7766 112.165 13.7766 112.112" stroke="#D18000" stroke-miterlimit="10" stroke-linecap="round"/>
        <path d="M21.0836 109.849C21.0836 110.621 20.2335 110.879 19.2982 110.879H15.4743C14.4635 110.879 13.7864 110.709 13.7766 109.695" stroke="#D18000" stroke-miterlimit="10" stroke-linecap="round"/>
        <path d="M21.0836 107.413C21.0836 108.185 20.2335 108.443 19.2982 108.443H15.4743C14.4562 108.443 13.7766 108.27 13.7766 107.24" stroke="#D18000" stroke-miterlimit="10" stroke-linecap="round"/>
        <path d="M21.1006 105.635C21.1274 105.689 21.0519 105.745 20.9106 105.798C20.594 105.913 19.9413 106.008 19.2982 106.008H15.4743C14.4562 106.008 13.7766 105.835 13.7766 104.805" stroke="#D18000" stroke-miterlimit="10" stroke-linecap="round"/>
        <path d="M31.0186 123.652C31.7152 123.384 32.3143 123.586 32.7186 123.903C33.123 124.217 36.9883 127.97 36.9883 127.97" stroke="#D18000" stroke-miterlimit="10" stroke-linecap="round"/>
        <path d="M20.2993 130.678C20.8132 130.678 21.1713 130.337 21.5025 129.361C21.8338 128.384 22.6034 126.482 22.9079 125.586C23.1734 124.799 23.171 124.061 22.5815 123.583C22.5011 123.518 22.4086 123.457 22.3039 123.401" stroke="#D18000" stroke-miterlimit="10" stroke-linecap="round"/>
        <path d="M21.4439 122.427C21.4439 122.456 21.4439 122.483 21.4415 122.512C21.4171 123.211 21.0299 123.671 20.6085 123.927C20.2724 124.131 17.3082 125.464 15.9735 126.153C15.3134 126.496 14.9675 126.095 14.9675 126.095" stroke="#D18000" stroke-miterlimit="10" stroke-linecap="round"/>
        <path d="M21.8825 123.289C21.9044 123.342 21.9215 123.396 21.9361 123.45C22.1187 124.078 21.9239 124.616 21.6316 124.989C21.3174 125.393 17.6615 129.076 17.6615 129.076" stroke="#D18000" stroke-miterlimit="10" stroke-linecap="round"/>
        <path d="M21.4172 121.518C21.5025 122.288 20.6549 122.638 19.6928 122.743C18.7307 122.85 16.8041 123.06 15.7543 123.174C14.7046 123.289 13.9861 123.194 13.874 122.168" stroke="#D18000" stroke-miterlimit="10" stroke-linecap="round"/>
        <path d="M20.3137 82.6231C20.3844 82.5598 20.4574 82.494 20.5281 82.4258L22.6081 80.3969L24.8246 78.2316L27.2895 75.8252L29.6325 73.5381L30.1562 73.0266C31.1865 71.8794 31.8758 70.7809 31.8758 69.6459V66.3773C31.8758 65.2447 30.9454 64.3143 29.8128 64.3143L28.1224 65.8901L25.7233 68.1285L23.2097 70.4765L20.947 72.5882L18.5503 74.8241L17.7758 75.5475C17.145 76.1199 16.687 76.5364 16.0294 76.8092C15.5058 77.0259 14.8579 77.1502 13.8982 77.194C13.6474 77.2062 13.3746 77.2111 13.0774 77.2111H3.10585C1.97083 77.2111 1.04285 78.139 1.04285 79.2741V82.5403C1.04285 83.573 1.81251 84.4352 2.80626 84.5813C2.90369 84.596 3.00355 84.6033 3.10585 84.6033H12.6195C13.511 84.6033 14.2952 84.6033 15.0016 84.574C16.0148 84.5326 16.8722 84.4352 17.6613 84.1916C18.5844 83.9091 19.4199 83.4293 20.3137 82.6231Z" stroke="#002140" stroke-miterlimit="10" stroke-linecap="round"/>
        <path d="M13.7765 109.676L13.7716 107.24L13.7667 104.805V103.285C13.7667 103.285 16.3558 105.092 21.1029 105.608C21.5681 105.659 22.0553 105.698 22.5619 105.72" stroke="#002140" stroke-miterlimit="10" stroke-linecap="round"/>
        <path d="M13.7766 109.695V109.676" stroke="#D18000" stroke-miterlimit="10" stroke-linecap="round"/>
        <path d="M21.0836 105.808V117.499C21.0836 118.279 21.1079 118.97 21.1566 119.589C21.2151 120.334 21.3125 120.968 21.4538 121.508C21.5512 121.893 21.673 122.229 21.8143 122.524C21.9653 122.831 22.1382 123.092 22.3379 123.316C22.4183 123.406 22.5036 123.491 22.5961 123.566C22.9395 123.864 23.3463 124.073 23.8261 124.219C24.4886 124.426 25.2875 124.509 26.2399 124.536C26.52 124.546 26.8122 124.548 27.1191 124.548C27.728 124.548 28.2688 124.521 28.7486 124.451C29.282 124.375 29.7399 124.244 30.1296 124.037C30.3464 123.925 30.5412 123.788 30.719 123.625C30.8846 123.469 31.0357 123.289 31.1696 123.082C31.4643 122.624 31.6811 122.034 31.8321 121.275C31.9636 120.607 32.044 119.811 32.0806 118.858C32.0976 118.437 32.1049 117.984 32.1049 117.499V76.0639C32.1049 74.9289 33.0329 74.0009 34.1679 74.0009H37.4341C38.5691 74.0009 39.4971 74.9289 39.4971 76.0639V115.78C39.4971 115.78 39.519 115.461 39.5336 116.574C39.5434 117.083 39.5507 117.889 39.5531 119.16C39.5556 119.672 39.5556 120.261 39.5556 120.936C39.5556 121.343 39.5385 121.745 39.5044 122.139C39.407 123.264 39.1707 124.336 38.7835 125.327C38.3986 126.321 37.8604 127.235 37.1638 128.041C36.3892 128.937 35.4174 129.702 34.2337 130.301C33.0913 130.881 31.7542 131.307 30.2051 131.546C29.4184 131.667 28.5756 131.741 27.6769 131.762C27.4942 131.767 27.3067 131.77 27.1191 131.77C26.1181 131.77 25.173 131.716 24.284 131.611C22.8007 131.438 21.4708 131.124 20.2969 130.681C19.1838 130.265 18.2095 129.734 17.3765 129.1C16.3024 128.277 15.4621 127.286 14.8678 126.148C14.2516 124.969 13.896 123.635 13.8107 122.173C13.7961 121.937 13.7888 121.696 13.7888 121.452V114.757L13.7815 112.263L13.7766 109.695" stroke="#002140" stroke-miterlimit="10" stroke-linecap="round"/>
        <path d="M30.1563 41.363C30.1709 41.346 30.1855 41.3314 30.1977 41.3143C31.2061 40.1842 31.8759 39.1003 31.8759 37.9823V34.7137C31.8759 33.5811 30.9454 32.6507 29.8129 32.6507" stroke="#002140" stroke-miterlimit="10" stroke-linecap="round"/>
        <path d="M29.467 32.6799L27.991 34.0902L25.6187 36.3578L23.1319 38.7301L20.8911 40.871L18.5236 43.1338L15.9053 45.6352L13.533 47.9003L11.0462 50.2751L8.80539 52.416L6.43793 54.6788L3.87806 57.1217L2.60422 58.3395C2.21938 58.7682 1.88326 59.1872 1.6129 59.6037C1.155 60.31 0.884644 61.009 0.884644 61.7227V64.9889C0.884644 66.0679 1.72251 66.9593 2.77958 67.0446C2.83317 67.0494 2.89162 67.0519 2.94764 67.0519L5.3151 64.8111L7.94317 62.3194L10.3399 60.0494L12.5709 57.9377L15.0699 55.5678L17.4471 53.3148L20.0825 50.8207L22.5839 48.4508L24.7102 46.4365L27.2043 44.0739L29.5815 41.8209L30.1563 41.2778" stroke="#002140" stroke-miterlimit="10" stroke-linecap="round"/>
        <path d="M30.1563 9.94317C30.1709 9.92612 30.1855 9.91151 30.1977 9.89446C31.2061 8.76431 31.8759 7.68045 31.8759 6.56248V3.29383C31.8759 2.16125 30.9454 1.23083 29.8129 1.23083" stroke="#002140" stroke-miterlimit="10" stroke-linecap="round"/>
        <path d="M29.467 1.26007L27.991 2.67031L25.6187 4.93791L23.1319 7.31023L20.8911 9.45118L18.5236 11.7139L15.9053 14.2153L13.533 16.4805L11.0462 18.8552L8.80539 20.9962L6.43793 23.2589L3.87806 25.7019L2.60422 26.9197C2.21938 27.3484 1.88326 27.7673 1.6129 28.1838C1.155 28.8901 0.884644 29.5892 0.884644 30.3028V33.569C0.884644 34.648 1.72251 35.5395 2.77958 35.6247C2.83317 35.6296 2.89162 35.632 2.94764 35.632L5.3151 33.3912L7.94317 30.8995L10.3399 28.6295L12.5709 26.5178L15.0699 24.1479L17.4471 21.8949L20.0825 19.4008L22.5839 17.0309L24.7102 15.0166L27.2043 12.6541L29.5815 10.4011L30.1563 9.85793" stroke="#002140" stroke-miterlimit="10" stroke-linecap="round"/>
    </g>
    <defs>
        <clipPath id="clip0_4972_8498">
            <rect width="163.692" height="190" fill="white" transform="translate(0.153809 0.5)"/>
        </clipPath>
    </defs>
</svg>
