<?xml version="1.0" encoding="utf-8"?>
<!-- Generator: Adobe Illustrator 28.1.0, SVG Export Plug-In . SVG Version: 6.00 Build 0)  -->
<svg version="1.1" id="Layer_1" xmlns="http://www.w3.org/2000/svg" xmlns:xlink="http://www.w3.org/1999/xlink" x="0px" y="0px"
	 viewBox="0 0 40 40" style="enable-background:new 0 0 40 40;" xml:space="preserve">
<style type="text/css">
	.st0{fill:#134038;}
	.st1{fill-rule:evenodd;clip-rule:evenodd;fill:#28736D;}
	.st2{clip-path:url(#SVGID_00000032619667140435552130000007081129503250523058_);}
	.st3{fill:#FFFFFF;}
	.st4{fill:#006FCF;}
</style>
<path class="st0" d="M4,7h32c2.209,0,4,1.791,4,4v18c0,2.209-1.791,4-4,4H4c-2.209,0-4-1.791-4-4V11C0,8.791,1.791,7,4,7z"/>
<path class="st1" d="M2.941,17.621c0-0.053,0.014-0.106,0.042-0.151l0.461-0.768c0.053-0.089,0.149-0.143,0.252-0.143h2.088
	c0.162,0,0.294,0.132,0.294,0.294v4.118c0,0.162-0.132,0.294-0.294,0.294H3.696c-0.103,0-0.199-0.054-0.252-0.143l-0.461-0.768
	c-0.027-0.046-0.042-0.098-0.042-0.151V17.621z M6.471,16.853c0-0.162,0.132-0.294,0.294-0.294h0.98
	c0.162,0,0.294,0.132,0.294,0.294v1.569c0,0.162-0.132,0.294-0.294,0.294h-0.98c-0.162,0-0.294-0.132-0.294-0.294V16.853z
	 M8.726,16.559c-0.162,0-0.294,0.132-0.294,0.294v2.157c0,0.162,0.132,0.294,0.294,0.294h0.98c0.162,0,0.294-0.132,0.294-0.294
	v-2.157c0-0.162-0.132-0.294-0.294-0.294H8.726z M6.471,19.402c0-0.162,0.132-0.294,0.294-0.294h0.98
	c0.162,0,0.294,0.132,0.294,0.294v1.569c0,0.163-0.132,0.294-0.294,0.294h-0.98c-0.162,0-0.294-0.132-0.294-0.294V19.402z
	 M8.726,19.696c-0.162,0-0.294,0.132-0.294,0.294v0.98c0,0.162,0.132,0.294,0.294,0.294h0.98c0.162,0,0.294-0.132,0.294-0.294v-0.98
	c0-0.162-0.132-0.294-0.294-0.294H8.726z"/>
<g>
	<defs>
		<rect id="SVGID_1_" x="27" y="19" width="10" height="10"/>
	</defs>
	<clipPath id="SVGID_00000175322321965036069540000015547865109414184885_">
		<use xlink:href="#SVGID_1_"  style="overflow:visible;"/>
	</clipPath>
	<g style="clip-path:url(#SVGID_00000175322321965036069540000015547865109414184885_);">
		<path class="st3" d="M37,19H27v10h10V19z"/>
		<path class="st4" d="M27,19v10h10v-1.58h-1.38l-0.51-0.597l-0.53,0.597h-3.92v-3.177h-1.293l1.617-3.66h1.573l0.38,0.83v-0.83
			h1.953l0.327,0.87l0.32-0.87H37V19H27z M35.87,21.1l-0.513,1.353L35.22,22.82l-0.14-0.367L34.563,21.1h-1.13v2.667h0.68V22.03
			l-0.003-0.35l0.133,0.35l0.65,1.737h0.647l0.653-1.737l0.127-0.347v2.083H37V21.1H35.87z M31.35,21.1l-1.18,2.667h0.773
			l0.207-0.513h1.293l0.207,0.513h0.783L32.26,21.1H31.35z M31.663,22.003l0.133-0.333l0.133,0.333l0.277,0.673h-0.82L31.663,22.003
			z M35.923,24.247L35.12,25.11l-0.8-0.863h-0.887h-2.227v2.657h2.227v-0.577h-1.547v-0.463h1.517V25.29h-1.517v-0.467h1.547v-0.577
			l1.243,1.333l-1.243,1.323h0.86l0.81-0.867l0.807,0.867h0.883l-1.247-1.333l1.247-1.323H35.923z M36.247,25.567L37,26.333V24.81
			L36.247,25.567z"/>
	</g>
</g>
</svg>
