<?xml version="1.0" encoding="utf-8"?>
<!-- Generator: Adobe Illustrator 28.1.0, SVG Export Plug-In . SVG Version: 6.00 Build 0)  -->
<svg version="1.1" id="Layer_1" xmlns="http://www.w3.org/2000/svg" xmlns:xlink="http://www.w3.org/1999/xlink" x="0px" y="0px"
	 viewBox="0 0 40 40" style="enable-background:new 0 0 40 40;" xml:space="preserve">
<style type="text/css">
	.st0{fill:#15181D;}
	.st1{fill-rule:evenodd;clip-rule:evenodd;fill:#34383F;}
	.st2{fill:#FFFFFF;}
</style>
<path class="st0" d="M4,7h32c2.209,0,4,1.791,4,4v18c0,2.209-1.791,4-4,4H4c-2.209,0-4-1.791-4-4V11C0,8.791,1.791,7,4,7z"/>
<path class="st1" d="M2.941,17.621c0-0.053,0.014-0.106,0.042-0.151l0.461-0.768c0.053-0.089,0.149-0.143,0.252-0.143h2.088
	c0.162,0,0.294,0.132,0.294,0.294v4.118c0,0.162-0.132,0.294-0.294,0.294H3.696c-0.103,0-0.199-0.054-0.252-0.143l-0.461-0.768
	c-0.027-0.046-0.042-0.098-0.042-0.151V17.621z M6.471,16.853c0-0.162,0.132-0.294,0.294-0.294h0.98
	c0.162,0,0.294,0.132,0.294,0.294v1.569c0,0.162-0.132,0.294-0.294,0.294h-0.98c-0.162,0-0.294-0.132-0.294-0.294V16.853z
	 M8.726,16.559c-0.162,0-0.294,0.132-0.294,0.294v2.157c0,0.162,0.132,0.294,0.294,0.294h0.98c0.162,0,0.294-0.132,0.294-0.294
	v-2.157c0-0.162-0.132-0.294-0.294-0.294H8.726z M6.471,19.402c0-0.162,0.132-0.294,0.294-0.294h0.98
	c0.162,0,0.294,0.132,0.294,0.294v1.569c0,0.163-0.132,0.294-0.294,0.294h-0.98c-0.162,0-0.294-0.132-0.294-0.294V19.402z
	 M8.726,19.696c-0.162,0-0.294,0.132-0.294,0.294v0.98c0,0.162,0.132,0.294,0.294,0.294h0.98c0.162,0,0.294-0.132,0.294-0.294v-0.98
	c0-0.162-0.132-0.294-0.294-0.294H8.726z"/>
<path class="st2" d="M34.711,10.697c-0.184-0.001-0.366,0.042-0.531,0.124c-0.165,0.082-0.308,0.202-0.419,0.349l-0.232,0.308
	c-0.047,0.062-0.108,0.112-0.177,0.147c-0.069,0.035-0.146,0.053-0.224,0.053H29v4.935h1.618c0.184,0.001,0.366-0.042,0.531-0.124
	c0.165-0.082,0.308-0.201,0.419-0.349l0.232-0.307c0.047-0.062,0.108-0.113,0.177-0.147c0.07-0.035,0.146-0.053,0.224-0.054h4.133
	v-4.935H34.711z M35.05,14.349h-1.73c-0.184-0.001-0.366,0.042-0.531,0.124c-0.165,0.082-0.308,0.201-0.419,0.349l-0.232,0.308
	c-0.047,0.062-0.108,0.112-0.177,0.147c-0.07,0.035-0.146,0.053-0.224,0.053h-1.453v-2.367h1.73
	c0.184,0.001,0.366-0.042,0.531-0.124c0.165-0.082,0.308-0.201,0.419-0.349l0.232-0.307c0.047-0.062,0.108-0.112,0.177-0.147
	c0.07-0.035,0.146-0.053,0.224-0.054h1.458L35.05,14.349z"/>
</svg>
