<svg xmlns="http://www.w3.org/2000/svg" xml:space="preserve" viewBox="0 0 40 40">
  <path fill="#780505" d="M4 7h32a4 4 0 0 1 4 4v18a4 4 0 0 1-4 4H4a4 4 0 0 1-4-4V11a4 4 0 0 1 4-4"/>
  <path fill="#ff5f00" d="M30.513 10.661h2.975v4.859h-2.975z"/>
  <path fill="#eb001b" d="M30.82 13.091A3.09 3.09 0 0 1 32 10.662a3.09 3.09 0 1 0 0 4.859 3.08 3.08 0 0 1-1.18-2.43"/>
  <path fill="#f79e1b" d="M37 13.091a3.09 3.09 0 0 1-5 2.429 3.09 3.09 0 0 0 0-4.859 3.09 3.09 0 0 1 5 2.43"/>
  <path fill="#400000" fill-rule="evenodd" d="M2.941 17.621c0-.053.014-.106.042-.151l.461-.768a.29.29 0 0 1 .252-.143h2.088c.162 0 .294.132.294.294v4.118a.294.294 0 0 1-.294.294H3.696a.29.29 0 0 1-.252-.143l-.461-.768a.3.3 0 0 1-.042-.151zm3.53-.768c0-.162.132-.294.294-.294h.98c.162 0 .294.132.294.294v1.569a.294.294 0 0 1-.294.294h-.98a.294.294 0 0 1-.294-.294zm2.255-.294a.294.294 0 0 0-.294.294v2.157c0 .162.132.294.294.294h.98A.294.294 0 0 0 10 19.01v-2.157a.294.294 0 0 0-.294-.294zm-2.255 2.843c0-.162.132-.294.294-.294h.98c.162 0 .294.132.294.294v1.569a.294.294 0 0 1-.294.294h-.98a.294.294 0 0 1-.294-.294zm2.255.294a.294.294 0 0 0-.294.294v.98c0 .162.132.294.294.294h.98A.294.294 0 0 0 10 20.97v-.98a.294.294 0 0 0-.294-.294z" clip-rule="evenodd"/>
</svg>
