<svg xmlns="http://www.w3.org/2000/svg" xmlns:xlink="http://www.w3.org/1999/xlink" xml:space="preserve" id="Layer_1" x="0" y="0" viewBox="0 0 40 40"><style>.st0{fill:#003c73}.st2{fill:#fff}.st3{fill-rule:evenodd;clip-rule:evenodd;fill:#0676de}</style><path d="M4 7h32a4 4 0 0 1 4 4v18a4 4 0 0 1-4 4H4a4 4 0 0 1-4-4V11a4 4 0 0 1 4-4" class="st0"/><defs><path id="SVGID_1_" d="M26.273 10h10.962v5.677H26.273z"/></defs><clipPath id="SVGID_00000163040442837153291060000009632060601649403816_"><use xlink:href="#SVGID_1_" style="overflow:visible"/></clipPath><path d="m31.702 10.099-.728 3.405h-.881l.728-3.405zm3.707 2.199.464-1.279.267 1.279zm.982 1.207h.815l-.711-3.405h-.752a.4.4 0 0 0-.375.25l-1.321 3.155h.925l.184-.508h1.13zm-2.299-1.112c.004-.899-1.243-.948-1.234-1.35.002-.122.119-.252.373-.285.127-.017.474-.029.869.152l.154-.722a2.4 2.4 0 0 0-.824-.151c-.87 0-1.483.463-1.489 1.126-.006.49.437.764.771.927.343.167.458.274.457.423-.002.229-.274.329-.527.333-.443.007-.7-.119-.905-.215l-.16.746c.206.094.586.177.98.181.927 0 1.532-.457 1.535-1.165m-3.649-2.294-1.427 3.405h-.931l-.702-2.718c-.043-.167-.08-.229-.209-.299-.212-.115-.561-.223-.869-.29l.021-.099h1.499a.41.41 0 0 1 .406.347l.371 1.971.917-2.318zm-1.243 5.39a.7.7 0 0 1-.308.056c-.329 0-.575-.208-.575-.593 0-.367.248-.613.61-.613.144 0 .237.031.277.052l-.038.123a.5.5 0 0 0-.234-.048c-.274 0-.456.175-.456.481 0 .288.165.47.447.47a.6.6 0 0 0 .248-.049zm.305-.381c0 .184.104.322.253.322.146 0 .255-.137.255-.326 0-.142-.071-.32-.251-.32-.179 0-.257.166-.257.324m.663-.009c0 .31-.216.445-.417.445-.225 0-.402-.166-.402-.431 0-.279.185-.443.416-.443.24 0 .403.175.403.429m.235-.185c0-.088-.003-.158-.007-.227h.133l.007.137h.005a.29.29 0 0 1 .265-.154c.113 0 .199.069.236.168h.003a.3.3 0 0 1 .095-.109.28.28 0 0 1 .184-.059c.113 0 .277.073.277.364v.492h-.149v-.473c0-.163-.061-.258-.182-.258-.088 0-.154.064-.182.137a.3.3 0 0 0-.012.076v.518h-.149v-.502c0-.133-.059-.229-.175-.229-.094 0-.165.076-.189.152a.2.2 0 0 0-.012.075v.504h-.149v-.612zm1.489 0c0-.088-.003-.158-.007-.227h.133l.007.137h.005a.29.29 0 0 1 .265-.154c.113 0 .199.069.236.168h.003a.3.3 0 0 1 .095-.109.28.28 0 0 1 .184-.059c.112 0 .277.073.277.364v.492h-.149v-.473c0-.163-.061-.258-.182-.258-.088 0-.154.064-.182.137a.3.3 0 0 0-.012.076v.518h-.149v-.502c0-.133-.059-.229-.175-.229-.093 0-.165.076-.189.152a.2.2 0 0 0-.012.075v.504h-.149v-.612zm2.019.111c.001-.095-.04-.246-.211-.246-.156 0-.222.14-.234.246zm-.447.109c.003.206.133.291.287.291a.55.55 0 0 0 .232-.043l.028.109a.7.7 0 0 1-.281.054c-.258 0-.412-.172-.412-.425s.149-.45.393-.45c.275 0 .347.239.347.393a.4.4 0 0 1-.005.071zm.827-.185q0-.147-.007-.261h.133l.007.166h.005c.038-.113.132-.184.234-.184q.022 0 .041.003v.144q-.021-.004-.052-.003c-.107 0-.184.08-.205.194l-.005.071v.447h-.153zm1.19.547a.6.6 0 0 1-.241.049c-.253 0-.417-.172-.417-.428 0-.258.177-.447.45-.447.09 0 .17.023.211.045l-.035.116a.4.4 0 0 0-.177-.04c-.192 0-.296.144-.296.317 0 .194.125.313.291.313a.4.4 0 0 0 .187-.04zm.222.029v-.838h.152v.838zm.169-1.074c0 .052-.036.094-.097.094-.056 0-.092-.042-.092-.094s.038-.095.095-.095c.056 0 .094.042.094.095m.721.646c-.166-.003-.355.026-.355.189 0 .101.066.146.142.146a.21.21 0 0 0 .206-.14.2.2 0 0 0 .007-.049zm.147.227c0 .073.003.144.012.201h-.137l-.012-.106h-.005a.31.31 0 0 1-.256.125c-.17 0-.256-.12-.256-.241 0-.203.18-.314.504-.312v-.017c0-.067-.019-.194-.191-.192a.4.4 0 0 0-.22.062l-.035-.102a.54.54 0 0 1 .277-.073c.256 0 .319.175.319.341zm.289-1.028h.152v1.23h-.152z" class="st2" style="clip-path:url(#SVGID_00000163040442837153291060000009632060601649403816_)"/><path d="M2.941 17.621c0-.053.014-.106.042-.151l.461-.768a.29.29 0 0 1 .252-.143h2.088c.162 0 .294.132.294.294v4.118a.294.294 0 0 1-.294.294H3.696a.29.29 0 0 1-.252-.143l-.461-.768a.3.3 0 0 1-.042-.151zm3.53-.768c0-.162.132-.294.294-.294h.98c.162 0 .294.132.294.294v1.569a.294.294 0 0 1-.294.294h-.98a.294.294 0 0 1-.294-.294zm2.255-.294a.294.294 0 0 0-.294.294v2.157c0 .162.132.294.294.294h.98A.294.294 0 0 0 10 19.01v-2.157a.294.294 0 0 0-.294-.294zm-2.255 2.843c0-.162.132-.294.294-.294h.98c.162 0 .294.132.294.294v1.569a.294.294 0 0 1-.294.294h-.98a.294.294 0 0 1-.294-.294zm2.255.294a.294.294 0 0 0-.294.294v.98c0 .162.132.294.294.294h.98A.294.294 0 0 0 10 20.97v-.98a.294.294 0 0 0-.294-.294z" class="st3"/></svg>