<?xml version="1.0" encoding="UTF-8"?>
<svg id="Layer_1" data-name="Layer 1" xmlns="http://www.w3.org/2000/svg" version="1.1" viewBox="0 0 235 148">
  <defs>
    <style>
      .cls-1 {
        fill: #635bff;
      }

      .cls-1, .cls-2, .cls-3, .cls-4 {
        stroke-width: 0px;
      }

      .cls-5 {
        opacity: .3;
      }

      .cls-2 {
        fill: #fbfefd;
      }

      .cls-3 {
        fill-rule: evenodd;
      }

      .cls-3, .cls-4 {
        fill: #fff;
      }
    </style>
  </defs>
  <rect class="cls-1" x="0" width="235" height="148" rx="16" ry="16"/>
  <path class="cls-3" d="M218.7,36.6c0-5.8-2.8-10.4-8.2-10.4s-8.7,4.6-8.7,10.3,3.9,10.3,9.4,10.3,4.7-.6,6.3-1.5v-4.5c-1.5.8-3.3,1.2-5.6,1.2s-4.2-.8-4.4-3.5h11.1c0-.3,0-1.5,0-2ZM207.5,34.4c0-2.6,1.6-3.6,3-3.6s2.9,1.1,2.9,3.6h-5.9Z"/>
  <path class="cls-3" d="M193.1,26.2c-2.2,0-3.7,1-4.4,1.8l-.3-1.4h-5v26.5l5.7-1.2v-6.4c.8.6,2,1.4,4,1.4,4.1,0,7.8-3.3,7.8-10.5,0-6.6-3.8-10.2-7.7-10.2ZM191.7,41.8c-1.3,0-2.1-.5-2.7-1.1v-8.4c.6-.7,1.4-1.1,2.7-1.1,2.1,0,3.5,2.3,3.5,5.3s-1.4,5.3-3.5,5.3Z"/>
  <path class="cls-3" d="M175.5,24.8l5.7-1.2v-4.6l-5.7,1.2v4.6Z"/>
  <path class="cls-4" d="M181.2,26.6h-5.7v19.9h5.7v-19.9Z"/>
  <path class="cls-3" d="M169.4,28.2l-.4-1.7h-4.9v19.9h5.7v-13.5c1.3-1.7,3.6-1.4,4.3-1.2v-5.2c-.7-.3-3.4-.8-4.7,1.7Z"/>
  <path class="cls-3" d="M158.1,21.6l-5.5,1.2v18.2c0,3.4,2.5,5.8,5.9,5.8s3.2-.3,4-.7v-4.6c-.7.3-4.3,1.3-4.3-2v-8.1h4.3v-4.8h-4.3v-4.9Z"/>
  <path class="cls-3" d="M142.7,32.3c0-.9.7-1.2,1.9-1.2,1.7,0,3.9.5,5.6,1.5v-5.3c-1.9-.7-3.7-1-5.6-1-4.6,0-7.7,2.4-7.7,6.4,0,6.3,8.6,5.3,8.6,8s-.9,1.4-2.2,1.4c-1.9,0-4.3-.8-6.2-1.8v5.4c2.1.9,4.2,1.3,6.2,1.3,4.7,0,8-2.3,8-6.4,0-6.8-8.7-5.6-8.7-8.1Z"/>
  <g class="cls-5">
    <path class="cls-2" d="M40,73.2h-3.8c-1,0-1.8.8-1.8,1.8v6.8c0,1,.8,1.8,1.8,1.8h3.8c1,0,1.8-.8,1.8-1.8v-6.8c0-1-.8-1.8-1.8-1.8Z"/>
    <path class="cls-2" d="M40.1,62.9h-3.8c-1,0-1.8.8-1.8,1.8v5c0,1,.8,1.8,1.8,1.8h3.8c1,0,1.8-.8,1.8-1.8v-5c0-1-.8-1.8-1.8-1.8Z"/>
    <path class="cls-2" d="M49.6,74.9h-3.8c-1,0-1.8.8-1.8,1.8v5c0,1,.8,1.8,1.8,1.8h3.8c1,0,1.8-.8,1.8-1.8v-5c0-1-.8-1.8-1.8-1.8Z"/>
    <path class="cls-2" d="M49.4,62.9h-3.8c-1,0-1.8.8-1.8,1.8v7.2c0,1,.8,1.8,1.8,1.8h3.8c1,0,1.8-.8,1.8-1.8v-7.2c0-1-.8-1.8-1.8-1.8Z"/>
    <path class="cls-2" d="M32.6,81.8v-17.4c0-.9-.8-1.6-1.7-1.6h-6.2c-.5,0-1,.2-1.3.6l-2.1,2.6c-.2.3-.4.6-.4,1v12.7c0,.3.1.7.3.9l1.6,2.2c.3.4.8.7,1.4.7h6.7c.9,0,1.7-.8,1.7-1.7h0Z"/>
  </g>
</svg>