<svg xmlns="http://www.w3.org/2000/svg" xml:space="preserve" id="Layer_1" x="0" y="0" viewBox="0 0 40 40"><style>.st0{fill:#dd1e25}.st1{fill-rule:evenodd;clip-rule:evenodd;fill:#e66166}.st2{fill:#fff}</style><path d="M4 7h32a4 4 0 0 1 4 4v18a4 4 0 0 1-4 4H4a4 4 0 0 1-4-4V11a4 4 0 0 1 4-4" class="st0"/><path d="M2.941 17.621c0-.053.014-.106.042-.151l.461-.768a.3.3 0 0 1 .252-.143h2.088c.162 0 .294.132.294.294v4.118a.294.294 0 0 1-.294.294H3.696a.29.29 0 0 1-.252-.143l-.461-.768a.3.3 0 0 1-.042-.151zm3.53-.768c0-.163.132-.294.294-.294h.98c.162 0 .294.132.294.294v1.569a.294.294 0 0 1-.294.294h-.98a.294.294 0 0 1-.294-.294zm2.255-.294a.294.294 0 0 0-.294.294v2.157c0 .162.132.294.294.294h.98A.294.294 0 0 0 10 19.01v-2.157a.294.294 0 0 0-.294-.294zm-2.255 2.843c0-.162.132-.294.294-.294h.98c.162 0 .294.132.294.294v1.569a.294.294 0 0 1-.294.294h-.98a.294.294 0 0 1-.294-.294zm2.255.294a.294.294 0 0 0-.294.294v.98c0 .163.132.294.294.294h.98A.294.294 0 0 0 10 20.97v-.98a.294.294 0 0 0-.294-.294z" class="st1"/><path d="M25.889 15.372c0-.174-.022-.326-.087-.457-.087-.109-.239-.13-.478-.13h-.544v.652h.174c.261 0 .304-.065.304-.391h.218v1.087h-.218c0-.37-.043-.457-.304-.457h-.174v.565c0 .196.022.196.217.196h.239v.26H23.91v-.26h.13c.174 0 .239-.022.239-.196v-1.283c0-.174-.065-.195-.239-.195h-.13v-.239h2.218v.848zm5 .717h-.195c0 .239 0 .348-.13.348-.065 0-.13-.066-.13-.196v-.109c-.022-.304-.087-.435-.457-.544.413-.043.652-.239.652-.543 0-.37-.261-.522-.805-.522h-1.5v.239h.174c.196 0 .217.022.217.195v1.283c0 .152-.087.196-.217.196h-.152c-.13 0-.196-.044-.261-.196l-.696-1.717h-.522l-.74 1.717c-.065.152-.109.196-.282.196h-.087v.26h1.131v-.26h-.239c-.109 0-.174 0-.174-.066 0-.022.022-.065.043-.109l.109-.261h.826l.109.239c.022.043.022.087.022.108 0 .087-.065.087-.174.087h-.239v.26h2.457v-.26h-.196c-.196 0-.217 0-.217-.196v-.566h.217c.37 0 .478.066.5.435v.239c.022.305.218.392.522.392.261 0 .435-.152.435-.566zm-4.174-.348.348-.826.326.826zm2.957-.326-.457.022v-.674h.457c.304 0 .457.087.457.326v.022c-.001.217-.153.304-.457.304m3.152-.196c-.109-.326-.326-.478-.674-.478s-.631.282-.631.847c0 .566.218.848.631.87.283 0 .543-.152.543-.391v-.131c0-.152-.022-.152-.239-.152h-.109v-.239h1.022v.239h-.087c-.152 0-.174 0-.174.174v.718h-.196l-.109-.174a1.25 1.25 0 0 1-.739.239.94.94 0 0 1-.739-.326 1.15 1.15 0 0 1-.348-.826c0-.348.109-.609.326-.826.196-.196.478-.282.783-.282.239 0 .522.065.674.239l.108-.239h.174v.739h-.216zm1.978 1.5c-.717 0-1.283-.435-1.283-1.131 0-.674.565-1.108 1.283-1.108s1.261.435 1.261 1.13c0 .674-.543 1.109-1.261 1.109m.739-1.108c0-.783-.522-.87-.739-.87-.413 0-.739.304-.739.87 0 .565.326.87.739.87.218-.001.739-.109.739-.87m-4.152-2.587c-.065.13-.218.152-.479.152h-.543v-1.457c0-.174.043-.196.261-.196h.152v-.261h-1.304v.261h.109c.196 0 .304 0 .304.196v1.283c0 .174-.087.196-.283.196h-.109v.239h2.239v-.87h-.261c.001.196-.021.326-.086.457m-2.848.152h-.696v-.739h.152c.261 0 .304.043.326.413h.239v-1.087h-.239c-.022.326-.065.413-.326.413h-.152v-.652h.587c.435 0 .565.087.587.587h.239v-.848H26.04v.261h.152c.13 0 .174.022.174.087 0 .044 0 .087-.022.174l-.413 1.087h-.022c-.196-.543-.457-1.174-.457-1.174-.022-.043-.022-.065-.022-.087 0-.065.043-.087.152-.087h.174v-.261h-1.152v.261h.152c.174 0 .239.087.261.261l-.435 1.087h-.022a18 18 0 0 0-.457-1.196c-.022-.022 0-.043 0-.065-.022-.065.043-.087.174-.087h.087v-.261H23.28v.261h.043c.152 0 .282.087.348.283l.652 1.63h.391l.478-1.196.5 1.196h.391l.609-1.652c.087-.196.13-.261.326-.261h.022c.196 0 .304 0 .304.196v1.283c0 .174-.109.196-.304.196h-.13v.239h2.391v-.87h-.261c-.02.434-.107.608-.499.608m5.261-.609c0 .196-.022.326-.087.457-.065.13-.218.152-.478.152h-.522v-1.457c0-.174.044-.196.239-.196h.174v-.261h-1.326v.261h.152c.174 0 .261 0 .261.196v1.283c0 .174-.065.196-.261.196h-.044v.239h2.152v-.87zm2.478.239c0 .5-.391.674-.956.674-.348 0-.695-.196-.761-.261l-.087.217h-.217v-.87h.261c.065.413.348.587.739.609.348.022.587-.065.609-.304.044-.283-.261-.261-.521-.304l-.37-.065c-.543-.109-.739-.261-.739-.631-.022-.391.348-.652.826-.652.239 0 .543.043.761.218l.109-.174h.195v.761h-.239c-.043-.413-.478-.544-.826-.544-.261.022-.413.152-.413.326s.152.196.348.239l.457.065c.477.087.824.175.824.696" class="st2"/></svg>