<?xml version="1.0" encoding="utf-8"?>
<!-- Generator: Adobe Illustrator 28.1.0, SVG Export Plug-In . SVG Version: 6.00 Build 0)  -->
<svg version="1.1" id="Layer_1" xmlns="http://www.w3.org/2000/svg" xmlns:xlink="http://www.w3.org/1999/xlink" x="0px" y="0px"
	 viewBox="0 0 40 40" style="enable-background:new 0 0 40 40;" xml:space="preserve">
<style type="text/css">
	.st0{fill:#635BFF;}
	.st1{fill-rule:evenodd;clip-rule:evenodd;fill:#918CFE;}
	.st2{fill-rule:evenodd;clip-rule:evenodd;fill:#FFFFFF;}
	.st3{fill:#FFFFFF;}
</style>
<path class="st0" d="M4,7h32c2.209,0,4,1.791,4,4v18c0,2.209-1.791,4-4,4H4c-2.209,0-4-1.791-4-4V11C0,8.791,1.791,7,4,7z"/>
<path class="st1" d="M2.941,17.621c0-0.053,0.014-0.106,0.042-0.151l0.461-0.768c0.053-0.088,0.149-0.143,0.252-0.143h2.088
	c0.162,0,0.294,0.132,0.294,0.294v4.118c0,0.162-0.132,0.294-0.294,0.294H3.696c-0.103,0-0.199-0.054-0.252-0.143l-0.461-0.768
	c-0.027-0.046-0.042-0.098-0.042-0.151V17.621z M6.471,16.853c0-0.163,0.132-0.294,0.294-0.294h0.98
	c0.162,0,0.294,0.132,0.294,0.294v1.569c0,0.162-0.132,0.294-0.294,0.294h-0.98c-0.162,0-0.294-0.132-0.294-0.294V16.853z
	 M8.726,16.559c-0.162,0-0.294,0.132-0.294,0.294v2.157c0,0.162,0.132,0.294,0.294,0.294h0.98c0.162,0,0.294-0.132,0.294-0.294
	v-2.157c0-0.163-0.132-0.294-0.294-0.294H8.726z M6.471,19.402c0-0.162,0.132-0.294,0.294-0.294h0.98
	c0.162,0,0.294,0.132,0.294,0.294v1.569c0,0.163-0.132,0.294-0.294,0.294h-0.98c-0.162,0-0.294-0.132-0.294-0.294V19.402z
	 M8.726,19.696c-0.162,0-0.294,0.132-0.294,0.294v0.98c0,0.163,0.132,0.294,0.294,0.294h0.98c0.162,0,0.294-0.132,0.294-0.294v-0.98
	c0-0.162-0.132-0.294-0.294-0.294H8.726z"/>
<path class="st2" d="M36.473,14.104c0-1.067-0.517-1.908-1.504-1.908c-0.992,0-1.592,0.842-1.592,1.9
	c0,1.254,0.708,1.887,1.725,1.887c0.496,0,0.871-0.113,1.154-0.271v-0.833c-0.283,0.142-0.608,0.229-1.021,0.229
	c-0.404,0-0.763-0.142-0.808-0.633h2.037C36.464,14.421,36.473,14.204,36.473,14.104z M34.414,13.708
	c0-0.471,0.288-0.667,0.55-0.667c0.254,0,0.525,0.196,0.525,0.667H34.414z"/>
<path class="st2" d="M31.768,12.196c-0.408,0-0.671,0.192-0.817,0.325l-0.054-0.258H29.98v4.858l1.042-0.221l0.004-1.179
	c0.15,0.108,0.371,0.262,0.737,0.262c0.746,0,1.425-0.6,1.425-1.921C33.185,12.854,32.497,12.196,31.768,12.196z M31.518,15.067
	c-0.246,0-0.392-0.087-0.492-0.196l-0.004-1.546c0.108-0.121,0.258-0.204,0.496-0.204c0.379,0,0.642,0.425,0.642,0.971
	C32.16,14.65,31.901,15.067,31.518,15.067z"/>
<path class="st2" d="M28.547,11.95l1.046-0.225v-0.846L28.547,11.1V11.95z"/>
<path class="st3" d="M29.593,12.267h-1.046v3.646h1.046V12.267z"/>
<path class="st2" d="M27.427,12.575l-0.067-0.308h-0.9v3.646h1.042v-2.471c0.246-0.321,0.663-0.262,0.792-0.217v-0.958
	C28.16,12.217,27.672,12.125,27.427,12.575z"/>
<path class="st2" d="M25.344,11.363l-1.017,0.217l-0.004,3.337c0,0.617,0.462,1.071,1.079,1.071c0.342,0,0.592-0.062,0.729-0.137
	v-0.846c-0.133,0.054-0.792,0.246-0.792-0.371v-1.479h0.792v-0.887H25.34L25.344,11.363z"/>
<path class="st2" d="M22.527,13.325c0-0.162,0.133-0.225,0.354-0.225c0.317,0,0.717,0.096,1.033,0.267v-0.979
	c-0.346-0.137-0.687-0.192-1.033-0.192c-0.846,0-1.408,0.442-1.408,1.179c0,1.15,1.583,0.967,1.583,1.462
	c0,0.192-0.167,0.254-0.4,0.254c-0.346,0-0.787-0.142-1.137-0.333v0.992c0.388,0.167,0.779,0.238,1.137,0.238
	c0.867,0,1.463-0.429,1.463-1.175C24.114,13.571,22.527,13.792,22.527,13.325z"/>
</svg>
