<?xml version="1.0" encoding="utf-8"?>
<!-- Generator: Adobe Illustrator 28.1.0, SVG Export Plug-In . SVG Version: 6.00 Build 0)  -->
<svg version="1.1" id="Layer_1" xmlns="http://www.w3.org/2000/svg" xmlns:xlink="http://www.w3.org/1999/xlink" x="0px" y="0px"
	 viewBox="0 0 40 40" style="enable-background:new 0 0 40 40;" xml:space="preserve">
<style type="text/css">
	.st0{fill:#016FD0;}
	.st1{fill-rule:evenodd;clip-rule:evenodd;fill:#0185FF;}
	.st2{fill:#FFFFFF;}
</style>
<path class="st0" d="M4,7h32c2.209,0,4,1.791,4,4v18c0,2.209-1.791,4-4,4H4c-2.209,0-4-1.791-4-4V11C0,8.791,1.791,7,4,7z"/>
<path class="st1" d="M2.941,17.621c0-0.053,0.014-0.106,0.042-0.151l0.461-0.768c0.053-0.089,0.149-0.143,0.252-0.143h2.088
	c0.162,0,0.294,0.132,0.294,0.294v4.118c0,0.162-0.132,0.294-0.294,0.294H3.696c-0.103,0-0.199-0.054-0.252-0.143l-0.461-0.768
	c-0.027-0.046-0.042-0.098-0.042-0.151V17.621z M6.471,16.853c0-0.162,0.132-0.294,0.294-0.294h0.98
	c0.162,0,0.294,0.132,0.294,0.294v1.569c0,0.162-0.132,0.294-0.294,0.294h-0.98c-0.162,0-0.294-0.132-0.294-0.294V16.853z
	 M8.726,16.559c-0.162,0-0.294,0.132-0.294,0.294v2.157c0,0.162,0.132,0.294,0.294,0.294h0.98c0.162,0,0.294-0.132,0.294-0.294
	v-2.157c0-0.162-0.132-0.294-0.294-0.294H8.726z M6.471,19.402c0-0.162,0.132-0.294,0.294-0.294h0.98
	c0.162,0,0.294,0.132,0.294,0.294v1.569c0,0.163-0.132,0.294-0.294,0.294h-0.98c-0.162,0-0.294-0.132-0.294-0.294V19.402z
	 M8.726,19.696c-0.162,0-0.294,0.132-0.294,0.294v0.98c0,0.162,0.132,0.294,0.294,0.294h0.98c0.162,0,0.294-0.132,0.294-0.294v-0.98
	c0-0.162-0.132-0.294-0.294-0.294H8.726z"/>
<g>
	<polygon class="st2" points="37.993,17.025 37.019,17.025 36.203,16.13 35.396,17.025 34.408,17.025 34.408,17.025 32.049,17.025 
		32.049,14.229 34.42,14.229 34.42,14.229 35.423,14.229 36.225,15.115 37.029,14.229 37.993,14.229 37.993,13.837 37.259,13.843 
		37.259,11.924 36.56,13.837 35.884,13.837 35.17,11.917 35.17,13.837 34.429,13.837 34.43,13.837 33.558,13.837 33.324,13.278 
		32.055,13.278 31.822,13.837 30.971,13.837 32.211,11.044 33.194,11.044 34.418,13.811 34.418,11.043 35.614,11.047 36.229,12.765 
		36.849,11.043 37.993,11.043 37.993,10.654 36.551,10.654 36.223,11.573 35.896,10.654 33.998,10.654 33.998,11.88 33.458,10.654 
		31.921,10.654 30.342,14.237 31.623,14.237 31.623,17.418 35.577,17.426 36.198,16.733 36.824,17.423 37.993,17.423 	"/>
	<polygon class="st2" points="37.993,16.978 37.993,16.405 37.263,15.618 37.993,14.838 37.993,14.259 36.717,15.625 	"/>
	<polygon class="st2" points="35.72,15.625 34.42,14.241 34.42,14.873 32.817,14.873 32.817,15.31 34.382,15.31 34.382,15.943 
		32.817,15.943 32.817,16.373 34.42,16.373 34.42,17.013 	"/>
	<polygon class="st2" points="33.062,12.651 32.69,11.761 32.318,12.651 	"/>
</g>
</svg>
