<?xml version="1.0" encoding="UTF-8"?>
<svg id="Layer_1" xmlns="http://www.w3.org/2000/svg" version="1.1" viewBox="0 0 40 40">
  <!-- Generator: Adobe Illustrator 29.1.0, SVG Export Plug-In . SVG Version: 2.1.0 Build 142)  -->
  <defs>
    <style>
      .st0 {
        fill: #003c73;
        fill-rule: evenodd;
      }

      .st1 {
        fill: #022247;
      }

      .st2 {
        fill: #cc2427;
      }
    </style>
  </defs>
  <rect class="st1" y="7" width="40" height="26" rx="4" ry="4"/>
  <path class="st0" d="M2.941,17.621c0-.053.014-.106.042-.151l.461-.768c.053-.088.149-.143.252-.143h2.088c.162,0,.294.132.294.294v4.118c0,.162-.132.294-.294.294h-2.088c-.103,0-.199-.054-.252-.143l-.461-.768c-.027-.046-.042-.098-.042-.151v-2.582ZM6.471,16.853c0-.163.132-.294.294-.294h.98c.162,0,.294.132.294.294v1.569c0,.162-.132.294-.294.294h-.98c-.162,0-.294-.132-.294-.294v-1.569ZM8.726,16.559c-.162,0-.294.132-.294.294v2.157c0,.162.132.294.294.294h.98c.162,0,.294-.132.294-.294v-2.157c0-.163-.132-.294-.294-.294h-.98ZM6.471,19.402c0-.162.132-.294.294-.294h.98c.162,0,.294.132.294.294v1.569c0,.163-.132.294-.294.294h-.98c-.162,0-.294-.132-.294-.294v-1.569ZM8.726,19.696c-.162,0-.294.132-.294.294v.98c0,.163.132.294.294.294h.98c.162,0,.294-.132.294-.294v-.98c0-.162-.132-.294-.294-.294h-.98Z"/>
  <path class="st2" d="M29.89,10.094c1.053-.068,2.11-.109,3.166-.082.753.025,1.509.073,2.248.224.417.091.839.207,1.203.433.218.139.432.334.478.598.057.306-.07.607-.227.865-.291.464-.689.851-1.097,1.216-.514.45-1.062.862-1.624,1.252-.551.378-1.104.753-1.666,1.115-.716.453-1.448.881-2.194,1.285h-1.013c.518-.354,1.004-.751,1.481-1.157.588-.501,1.157-1.022,1.716-1.554.109-.103.226-.2.309-.327.266-.367.511-.79.499-1.256-.007-.318-.183-.611-.423-.815-.393-.333-.896-.503-1.389-.631-.499-.125-1.01-.194-1.521-.248-.279-.015-.557-.054-.837-.055v-.792c.296-.035.593-.048.89-.07Z"/>
</svg>