<?xml version="1.0" encoding="utf-8"?>
<!-- Generator: Adobe Illustrator 28.1.0, SVG Export Plug-In . SVG Version: 6.00 Build 0)  -->
<svg version="1.1" id="Layer_1" xmlns="http://www.w3.org/2000/svg" xmlns:xlink="http://www.w3.org/1999/xlink" x="0px" y="0px"
	 viewBox="0 0 40 40" style="enable-background:new 0 0 40 40;" xml:space="preserve">
<style type="text/css">
	.st0{fill:#FFFFFF;}
	.st1{fill-rule:evenodd;clip-rule:evenodd;fill:#E6E1DA;}
	.st2{fill:#E31837;}
	.st3{fill:#012169;}
</style>
<path class="st0" d="M4,7h32c2.209,0,4,1.791,4,4v18c0,2.209-1.791,4-4,4H4c-2.209,0-4-1.791-4-4V11C0,8.791,1.791,7,4,7z"/>
<path class="st1" d="M2.941,17.621c0-0.053,0.014-0.106,0.042-0.151l0.461-0.768c0.053-0.089,0.149-0.143,0.252-0.143h2.088
	c0.162,0,0.294,0.132,0.294,0.294v4.118c0,0.162-0.132,0.294-0.294,0.294H3.696c-0.103,0-0.199-0.054-0.252-0.143l-0.461-0.768
	c-0.027-0.046-0.042-0.098-0.042-0.151V17.621z M6.471,16.853c0-0.162,0.132-0.294,0.294-0.294h0.98
	c0.162,0,0.294,0.132,0.294,0.294v1.569c0,0.162-0.132,0.294-0.294,0.294h-0.98c-0.162,0-0.294-0.132-0.294-0.294V16.853z
	 M8.726,16.559c-0.162,0-0.294,0.132-0.294,0.294v2.157c0,0.162,0.132,0.294,0.294,0.294h0.98c0.162,0,0.294-0.132,0.294-0.294
	v-2.157c0-0.162-0.132-0.294-0.294-0.294H8.726z M6.471,19.402c0-0.162,0.132-0.294,0.294-0.294h0.98
	c0.162,0,0.294,0.132,0.294,0.294v1.569c0,0.163-0.132,0.294-0.294,0.294h-0.98c-0.162,0-0.294-0.132-0.294-0.294V19.402z
	 M8.726,19.696c-0.162,0-0.294,0.132-0.294,0.294v0.98c0,0.162,0.132,0.294,0.294,0.294h0.98c0.162,0,0.294-0.132,0.294-0.294v-0.98
	c0-0.162-0.132-0.294-0.294-0.294H8.726z"/>
<path class="st2" d="M33.084,15.747c1.548-1.323,3.722-2.61,4.916-3.073c-0.184-0.118-0.472-0.287-0.796-0.471
	c-1.541,0.507-3.339,1.632-4.946,2.904C32.532,15.314,32.819,15.527,33.084,15.747z"/>
<path class="st3" d="M32.377,12.153c-0.229-0.11-0.479-0.213-0.671-0.301c-0.582,0.287-1.342,0.72-2.3,1.404
	c0.206,0.11,0.428,0.243,0.663,0.375C30.807,13.086,31.551,12.572,32.377,12.153z"/>
<path class="st2" d="M33.755,11.52c-0.28-0.154-1.253-0.514-1.924-0.669c-0.199,0.073-0.479,0.184-0.671,0.265
	c0.243,0.066,1.15,0.309,1.924,0.698C33.283,11.719,33.563,11.601,33.755,11.52z"/>
<path class="st3" d="M30.46,11.425c-0.862,0.397-1.769,0.941-2.263,1.257c0.177,0.081,0.354,0.147,0.597,0.265
	c1.091-0.735,1.946-1.183,2.285-1.33C30.836,11.528,30.608,11.469,30.46,11.425z"/>
<path class="st2" d="M34.403,11.292c0.199-0.066,0.427-0.125,0.626-0.184c-0.575-0.242-1.297-0.5-1.946-0.662
	c-0.103,0.029-0.413,0.11-0.627,0.176C32.679,10.69,33.408,10.859,34.403,11.292z M30.77,14.057c0.236,0.14,0.486,0.331,0.73,0.492
	c1.614-1.25,3.206-2.213,4.953-2.757c-0.243-0.125-0.457-0.235-0.73-0.368C34.676,11.689,32.885,12.402,30.77,14.057z"/>
</svg>
