<?xml version="1.0" encoding="UTF-8"?>
<svg id="Layer_1" data-name="Layer 1" xmlns="http://www.w3.org/2000/svg" xmlns:xlink="http://www.w3.org/1999/xlink" version="1.1" viewBox="0 0 235 148">
  <defs>
    <style>
      .cls-1 {
        clip-path: url(#clippath);
      }

      .cls-2 {
        fill: none;
      }

      .cls-2, .cls-3, .cls-4, .cls-5, .cls-6, .cls-7 {
        stroke-width: 0px;
      }

      .cls-3 {
        fill: #03d47c;
      }

      .cls-4, .cls-5 {
        fill: #085239;
      }

      .cls-5 {
        fill-opacity: .2;
      }

      .cls-6 {
        fill: #002e22;
      }

      .cls-7 {
        fill: #fff;
      }
    </style>
    <clipPath id="clippath">
      <rect class="cls-2" x="176.2" y="113" width="48.4" height="25.1"/>
    </clipPath>
  </defs>
  <rect class="cls-6" x="0" width="235" height="148" rx="16" ry="16"/>
  <rect class="cls-5" x="0" width="235" height="148" rx="16" ry="16"/>
  <g class="cls-1">
    <g>
      <path class="cls-7" d="M200.2,113.5l-3.2,15h-3.9l3.2-15h3.9ZM216.6,123.2l2-5.6,1.2,5.6h-3.2ZM220.9,128.5h3.6l-3.1-15h-3.3c-.7,0-1.4.4-1.7,1.1l-5.8,13.9h4.1l.8-2.2h5l.5,2.2ZM210.8,123.6c0-4-5.5-4.2-5.4-6,0-.5.5-1.1,1.6-1.3.6,0,2.1-.1,3.8.7l.7-3.2c-.9-.3-2.1-.7-3.6-.7-3.8,0-6.5,2-6.6,5,0,2.2,1.9,3.4,3.4,4.1,1.5.7,2,1.2,2,1.9,0,1-1.2,1.5-2.3,1.5-2,0-3.1-.5-4-.9l-.7,3.3c.9.4,2.6.8,4.3.8,4.1,0,6.8-2,6.8-5.1ZM194.7,113.5l-6.3,15h-4.1l-3.1-12c-.2-.7-.4-1-.9-1.3-.9-.5-2.5-1-3.8-1.3v-.4h6.7c.8,0,1.6.6,1.8,1.5l1.6,8.7,4-10.2h4.1Z"/>
      <path class="cls-7" d="M189.2,137.3c-.2.1-.7.2-1.4.2-1.5,0-2.5-.9-2.5-2.6s1.1-2.7,2.7-2.7,1,.1,1.2.2l-.2.5c-.2-.1-.6-.2-1-.2-1.2,0-2,.8-2,2.1s.7,2.1,2,2.1.8,0,1.1-.2v.5Z"/>
      <path class="cls-7" d="M190.5,135.6c0,.8.5,1.4,1.1,1.4s1.1-.6,1.1-1.4-.3-1.4-1.1-1.4-1.1.7-1.1,1.4ZM193.4,135.6c0,1.4-1,2-1.8,2s-1.8-.7-1.8-1.9.8-2,1.8-2,1.8.8,1.8,1.9Z"/>
      <path class="cls-7" d="M194.5,134.7c0-.4,0-.7,0-1h.6v.6h0c.2-.4.6-.7,1.2-.7s.9.3,1,.7h0c.1-.2.3-.4.4-.5.2-.2.5-.3.8-.3.5,0,1.2.3,1.2,1.6v2.2h-.7v-2.1c0-.7-.3-1.1-.8-1.1s-.7.3-.8.6c0,0,0,.2,0,.3v2.3h-.7v-2.2c0-.6-.3-1-.8-1s-.7.3-.8.7c0,0,0,.2,0,.3v2.2h-.7v-2.7h0Z"/>
      <path class="cls-7" d="M201,134.7c0-.4,0-.7,0-1h.6v.6h0c.2-.4.6-.7,1.2-.7s.9.3,1,.7h0c.1-.2.3-.4.4-.5.2-.2.5-.3.8-.3s1.2.3,1.2,1.6v2.2h-.7v-2.1c0-.7-.3-1.1-.8-1.1s-.7.3-.8.6c0,0,0,.2,0,.3v2.3h-.7v-2.2c0-.6-.3-1-.8-1s-.7.3-.8.7c0,0,0,.2,0,.3v2.2h-.7v-2.7Z"/>
      <path class="cls-7" d="M210,135.2c0-.4-.2-1.1-.9-1.1s-1,.6-1,1.1h2ZM208,135.7c0,.9.6,1.3,1.3,1.3s.8,0,1-.2v.5c-.1.1-.5.2-1.1.2-1.1,0-1.8-.8-1.8-1.9s.7-2,1.7-2,1.5,1.1,1.5,1.7,0,.2,0,.3h-2.6Z"/>
      <path class="cls-7" d="M211.6,134.9c0-.4,0-.8,0-1.2h.6v.7h0c.2-.5.6-.8,1-.8s.1,0,.2,0v.6c0,0-.1,0-.2,0-.5,0-.8.4-.9.9,0,0,0,.2,0,.3v2h-.7v-2.5Z"/>
      <path class="cls-7" d="M216.9,137.3c-.2,0-.6.2-1.1.2-1.1,0-1.8-.8-1.8-1.9s.8-2,2-2,.8,0,.9.2l-.2.5c-.2,0-.4-.2-.8-.2-.8,0-1.3.6-1.3,1.4s.6,1.4,1.3,1.4.6,0,.8-.2v.5Z"/>
      <path class="cls-7" d="M217.9,137.4v-3.7h.7v3.7h-.7ZM218.6,132.7c0,.2-.2.4-.4.4s-.4-.2-.4-.4.2-.4.4-.4.4.2.4.4Z"/>
      <path class="cls-7" d="M221.8,135.5c-.7,0-1.6.1-1.6.8s.3.6.6.6c.5,0,.8-.3.9-.6,0,0,0-.2,0-.2v-.6ZM222.4,136.5c0,.3,0,.6,0,.9h-.6v-.5h0c-.2.3-.6.6-1.1.6-.7,0-1.1-.5-1.1-1.1,0-.9.8-1.4,2.2-1.4h0c0-.4,0-.9-.8-.9-.4,0-.7.1-1,.3l-.2-.5c.3-.2.8-.3,1.2-.3,1.1,0,1.4.8,1.4,1.5v1.4h0Z"/>
      <path class="cls-7" d="M223.7,132h.7v5.4h-.7v-5.4Z"/>
    </g>
  </g>
  <path class="cls-3" d="M124.4,33.5h11.1v-3.3h-7v-3h5.7v-3.4h-5.7v-2.9h7v-3.3h-11.1v15.8Z"/>
  <path class="cls-3" d="M149.4,21.2h-4.9l-1.6,3-1.7-3h-5l4.1,6-4.4,6.4h4.9l2-3.3,1.9,3.3h5l-4.4-6.4,4.1-6Z"/>
  <path class="cls-3" d="M157.1,20.9c-1.4,0-2.5.5-3.4,1.6v-1.3h-3.8v17.6h4v-6.2c.7.8,1.8,1.2,3.1,1.2,3.3,0,5.6-2.5,5.6-6.5s-2.2-6.5-5.5-6.5h0ZM156.2,30.6c-1.5,0-2.4-1.2-2.4-3.2s.9-3.2,2.4-3.2,2.4,1.2,2.4,3.2-.9,3.2-2.4,3.2Z"/>
  <path class="cls-3" d="M169.7,30.7c-1.2,0-2.2-.7-2.4-2.5h8.5v-.5c0-3.9-2.1-6.8-6.3-6.8s-6.4,1.6-6.4,6.5,2.6,6.5,6.5,6.5,5.3-.9,6.2-4.5h-4.1c-.2.7-.7,1.4-2.1,1.4h0ZM169.5,23.8c1.2,0,1.9.6,2.1,2.1h-4.2c.3-1.6,1.2-2.1,2.1-2.1Z"/>
  <path class="cls-3" d="M183.6,20.9c-1.4,0-2.6.6-3.4,1.7v-1.5h-3.8v12.4h4v-6.9c0-1.6.9-2.4,1.9-2.4s1.9.5,1.9,2.4v6.9h4v-7.2c0-3.9-1.6-5.5-4.7-5.5Z"/>
  <path class="cls-3" d="M202.9,15.6c-1.2,0-2.1.9-2.1,2s.9,2.1,2.1,2.1,2.1-.9,2.1-2.1-.9-2-2.1-2Z"/>
  <path class="cls-3" d="M204.9,21.2h-4v12.3h4v-12.3Z"/>
  <path class="cls-3" d="M195.7,25.8l-1-.2c-1.1-.2-1.4-.7-1.4-1.2,0-.7.6-1.1,1.5-1.1s1.8.4,1.8,1.5h3.4c0-2.6-1.6-4.1-5.4-4.1s-5.3,1.2-5.3,4,1.5,3.2,4.8,3.9l1,.2c1.1.2,1.4.7,1.4,1.2,0,.7-.6,1-1.7,1s-2-.5-2.2-1.6h-3.9c.2,3,2.3,4.5,5.9,4.5s5.8-1.3,5.8-4.1-1.5-3.2-4.8-3.9h0Z"/>
  <path class="cls-3" d="M220.6,21.2l-2.2,7.5-2.2-7.5h-5.2v-.4c0-1,.8-2,1.9-2h.6v-3.3h-.8c-3.4,0-5.7,2.5-5.7,5.5v.2h-1.5v3.6h1.5v8.7h4v-8.7h2.2l3,8.4-.5,1.3c-.4.9-.8,1.2-1.6,1.2s-.8,0-1.4-.2l-.2,3.3c.6.2,1.3.2,2.3.2,2.4,0,3.6-1,4.8-4.2l5.1-13.7h-4.1,0Z"/>
  <path class="cls-4" d="M40,73.2h-3.8c-1,0-1.8.8-1.8,1.8v6.8c0,1,.8,1.8,1.8,1.8h3.8c1,0,1.8-.8,1.8-1.8v-6.8c0-1-.8-1.8-1.8-1.8Z"/>
  <path class="cls-4" d="M40.1,62.9h-3.8c-1,0-1.8.8-1.8,1.8v5c0,1,.8,1.8,1.8,1.8h3.8c1,0,1.8-.8,1.8-1.8v-5c0-1-.8-1.8-1.8-1.8Z"/>
  <path class="cls-4" d="M49.6,74.9h-3.8c-1,0-1.8.8-1.8,1.8v5c0,1,.8,1.8,1.8,1.8h3.8c1,0,1.8-.8,1.8-1.8v-5c0-1-.8-1.8-1.8-1.8Z"/>
  <path class="cls-4" d="M49.4,62.9h-3.8c-1,0-1.8.8-1.8,1.8v7.2c0,1,.8,1.8,1.8,1.8h3.8c1,0,1.8-.8,1.8-1.8v-7.2c0-1-.8-1.8-1.8-1.8Z"/>
  <path class="cls-4" d="M32.6,81.8v-17.4c0-.9-.8-1.6-1.7-1.6h-6.2c-.5,0-1,.2-1.3.6l-2.1,2.6c-.2.3-.4.6-.4,1v12.7c0,.3.1.7.3.9l1.6,2.2c.3.4.8.7,1.4.7h6.7c.9,0,1.7-.8,1.7-1.7h0Z"/>
</svg>