<?xml version="1.0" encoding="UTF-8"?>
<svg id="Layer_1" data-name="Layer 1" xmlns="http://www.w3.org/2000/svg" version="1.1" viewBox="0 0 235 148">
  <defs>
    <style>
      .cls-1 {
        fill: #0185ff;
      }

      .cls-1, .cls-2, .cls-3, .cls-4 {
        stroke-width: 0px;
      }

      .cls-2, .cls-3 {
        fill: #016fd0;
      }

      .cls-2, .cls-4 {
        fill-rule: evenodd;
      }

      .cls-4 {
        fill: #fff;
      }
    </style>
  </defs>
  <rect class="cls-3" x="0" width="235" height="148" rx="16" ry="16"/>
  <path class="cls-2" d="M153,4h70v70h-70V4Z"/>
  <path class="cls-4" d="M178.4,62.9v-25.1h44.6v7l-5.2,5.5,5.2,5.6v7.1h-8.2l-4.4-4.8-4.3,4.9h-27.7Z"/>
  <path class="cls-2" d="M181.3,60.2v-19.6h16.6v4.5h-11.2v3.1h11v4.4h-11v3h11.2v4.6h-16.6Z"/>
  <path class="cls-2" d="M197.9,60.2l9.2-9.8-9.2-9.8h7.1l5.6,6.2,5.6-6.2h6.8v.2l-9,9.6,9,9.5v.3h-6.9l-5.7-6.3-5.7,6.3h-6.9Z"/>
  <path class="cls-4" d="M180.4,15.6h10.8l3.8,8.6v-8.6h13.3l2.3,6.4,2.3-6.4h10.1v25.1h-53.6l11.1-25.1Z"/>
  <path class="cls-2" d="M182.5,18.3l-8.7,19.6h6l1.6-3.9h8.9l1.6,3.9h6.1l-8.6-19.6h-6.9ZM183.2,29.6l2.6-6.2,2.6,6.2h-5.2Z"/>
  <path class="cls-2" d="M197.9,37.9v-19.6h8.4s4.3,12.1,4.3,12.1l4.3-12.1h8.1v19.6h-5.2s0-13.4,0-13.4l-4.9,13.4h-4.7l-5-13.4v13.4h-5.3Z"/>
  <path class="cls-1" d="M40,73.2h-3.8c-1,0-1.8.8-1.8,1.8v6.8c0,1,.8,1.8,1.8,1.8h3.8c1,0,1.8-.8,1.8-1.8v-6.8c0-1-.8-1.8-1.8-1.8Z"/>
  <path class="cls-1" d="M40.1,62.9h-3.8c-1,0-1.8.8-1.8,1.8v5c0,1,.8,1.8,1.8,1.8h3.8c1,0,1.8-.8,1.8-1.8v-5c0-1-.8-1.8-1.8-1.8Z"/>
  <path class="cls-1" d="M49.6,74.9h-3.8c-1,0-1.8.8-1.8,1.8v5c0,1,.8,1.8,1.8,1.8h3.8c1,0,1.8-.8,1.8-1.8v-5c0-1-.8-1.8-1.8-1.8Z"/>
  <path class="cls-1" d="M49.4,62.9h-3.8c-1,0-1.8.8-1.8,1.8v7.2c0,1,.8,1.8,1.8,1.8h3.8c1,0,1.8-.8,1.8-1.8v-7.2c0-1-.8-1.8-1.8-1.8Z"/>
  <path class="cls-1" d="M32.6,81.8v-17.4c0-.9-.8-1.6-1.7-1.6h-6.2c-.5,0-1,.2-1.3.6l-2.1,2.6c-.2.3-.4.6-.4,1v12.7c0,.3.1.7.3.9l1.6,2.2c.3.4.8.7,1.4.7h6.7c.9,0,1.7-.8,1.7-1.7h0Z"/>
</svg>