<svg xmlns="http://www.w3.org/2000/svg" xmlns:xlink="http://www.w3.org/1999/xlink" id="Layer_1" x="0" y="0" version="1.1" viewBox="0 0 40 40" xml:space="preserve" style="enable-background:new 0 0 40 40"><style type="text/css">.st0{fill:#002e22}.st2{fill:#fff}.st3{fill:#03d47c}.st4{fill-rule:evenodd;clip-rule:evenodd;fill:#085239}</style><path d="M4,7h32c2.209,0,4,1.791,4,4v18c0,2.209-1.791,4-4,4H4c-2.209,0-4-1.791-4-4V11C0,8.791,1.791,7,4,7z" class="st0"/><g><defs><rect id="SVGID_1_" width="8.235" height="4.265" x="30" y="27.118"/></defs><clipPath id="SVGID_00000018916287542650855010000005389615484451607693_"><use xlink:href="#SVGID_1_" style="overflow:visible"/></clipPath><g style="clip-path:url(#SVGID_00000018916287542650855010000005389615484451607693_)"><path d="M34.079,27.192l-0.547,2.558H32.87l0.547-2.558H34.079z M36.863,28.844l0.348-0.961l0.2,0.961H36.863z M37.602,29.751h0.612l-0.534-2.558h-0.565c-0.127,0-0.234,0.074-0.282,0.188l-0.993,2.371h0.695l0.138-0.382h0.849L37.602,29.751 z M35.875,28.915c0.003-0.675-0.934-0.712-0.927-1.014c0.002-0.092,0.089-0.189,0.28-0.214c0.095-0.012,0.356-0.022,0.653,0.115 l0.116-0.542c-0.159-0.058-0.364-0.114-0.619-0.114c-0.654,0-1.114,0.348-1.118,0.846c-0.004,0.368,0.329,0.573,0.58,0.696 c0.258,0.125,0.344,0.206,0.343,0.318c-0.002,0.172-0.206,0.247-0.396,0.25c-0.333,0.005-0.526-0.09-0.68-0.161l-0.12,0.561 c0.155,0.071,0.44,0.133,0.736,0.136C35.417,29.791,35.872,29.447,35.875,28.915z M33.133,27.192l-1.072,2.558h-0.7l-0.528-2.042 c-0.032-0.126-0.06-0.172-0.157-0.225c-0.159-0.087-0.422-0.167-0.653-0.218l0.016-0.074h1.126c0.144,0,0.273,0.095,0.305,0.261 l0.279,1.481l0.689-1.741H33.133L33.133,27.192z" class="st2"/><path d="M32.199,31.241c-0.04,0.021-0.125,0.042-0.232,0.042c-0.247,0-0.432-0.156-0.432-0.445 c0-0.276,0.186-0.461,0.458-0.461c0.108,0,0.178,0.023,0.208,0.039l-0.029,0.092c-0.042-0.021-0.103-0.036-0.176-0.036 c-0.206,0-0.342,0.131-0.342,0.362c0,0.216,0.124,0.353,0.336,0.353c0.07,0,0.14-0.014,0.186-0.036L32.199,31.241z" class="st2"/><path d="M32.428,30.955c0,0.138,0.078,0.242,0.19,0.242c0.109,0,0.191-0.103,0.191-0.245 c0-0.107-0.053-0.241-0.189-0.241C32.486,30.712,32.428,30.837,32.428,30.955z M32.926,30.948c0,0.233-0.163,0.334-0.314,0.334 c-0.169,0-0.302-0.125-0.302-0.324c0-0.21,0.139-0.333,0.312-0.333C32.804,30.626,32.926,30.757,32.926,30.948z" class="st2"/><path d="M33.103,30.809c0-0.066-0.003-0.118-0.005-0.17h0.1l0.005,0.103h0.004c0.035-0.06,0.094-0.116,0.199-0.116 c0.085,0,0.15,0.052,0.177,0.126h0.003c0.02-0.036,0.046-0.062,0.072-0.082c0.038-0.029,0.078-0.044,0.138-0.044 c0.085,0,0.208,0.055,0.208,0.273v0.37h-0.112v-0.355c0-0.122-0.045-0.194-0.137-0.194c-0.066,0-0.116,0.048-0.137,0.103 c-0.005,0.017-0.009,0.036-0.009,0.057v0.389h-0.112v-0.377c0-0.1-0.044-0.172-0.131-0.172c-0.07,0-0.124,0.057-0.142,0.115 c-0.007,0.016-0.009,0.036-0.009,0.056v0.379h-0.112L33.103,30.809L33.103,30.809z" class="st2"/><path d="M34.221,30.809c0-0.066-0.003-0.118-0.005-0.17h0.1l0.005,0.103h0.004c0.035-0.06,0.094-0.116,0.199-0.116 c0.085,0,0.15,0.052,0.177,0.126h0.003c0.019-0.036,0.046-0.062,0.072-0.082c0.038-0.029,0.078-0.044,0.138-0.044 c0.084,0,0.208,0.055,0.208,0.273v0.37H35.01v-0.355c0-0.122-0.046-0.194-0.137-0.194c-0.066,0-0.116,0.048-0.137,0.103 c-0.005,0.017-0.009,0.036-0.009,0.057v0.389h-0.112v-0.377c0-0.1-0.044-0.172-0.131-0.172c-0.07,0-0.124,0.057-0.142,0.115 c-0.007,0.016-0.009,0.036-0.009,0.056v0.379h-0.112V30.809z" class="st2"/><path d="M35.739,30.893c0.001-0.072-0.03-0.185-0.159-0.185c-0.117,0-0.167,0.105-0.176,0.185H35.739z M35.403,30.974 c0.003,0.155,0.1,0.219,0.216,0.219c0.082,0,0.133-0.014,0.174-0.032l0.021,0.082c-0.04,0.018-0.111,0.04-0.211,0.04 c-0.194,0-0.31-0.129-0.31-0.319c0-0.19,0.112-0.338,0.296-0.338c0.207,0,0.26,0.18,0.26,0.295c0,0.024-0.001,0.04-0.004,0.053 H35.403z" class="st2"/><path d="M36.024,30.835c0-0.074-0.001-0.138-0.005-0.196h0.1l0.005,0.125h0.004c0.029-0.085,0.099-0.138,0.176-0.138 c0.012,0,0.021,0.001,0.031,0.003v0.108c-0.012-0.003-0.023-0.003-0.039-0.003c-0.081,0-0.138,0.06-0.154,0.146 c-0.003,0.016-0.004,0.035-0.004,0.053v0.336h-0.115V30.835z" class="st2"/><path d="M36.917,31.246c-0.03,0.014-0.096,0.036-0.181,0.036c-0.19,0-0.314-0.129-0.314-0.321 c0-0.194,0.133-0.336,0.338-0.336c0.068,0,0.128,0.017,0.159,0.034l-0.026,0.087c-0.027-0.014-0.07-0.03-0.133-0.03 c-0.144,0-0.222,0.108-0.222,0.238c0,0.146,0.094,0.235,0.219,0.235c0.065,0,0.108-0.016,0.14-0.03L36.917,31.246z" class="st2"/><path d="M37.085,31.269v-0.63h0.114v0.63H37.085L37.085,31.269z M37.212,30.462c0,0.039-0.027,0.07-0.073,0.07 c-0.042,0-0.069-0.031-0.069-0.07s0.029-0.072,0.072-0.072C37.184,30.39,37.212,30.421,37.212,30.462z" class="st2"/><path d="M37.753,30.947c-0.125-0.003-0.267,0.02-0.267,0.142c0,0.076,0.049,0.109,0.107,0.109 c0.083,0,0.137-0.052,0.155-0.105c0.004-0.013,0.005-0.026,0.005-0.036V30.947z M37.864,31.118c0,0.055,0.003,0.108,0.009,0.151 H37.77l-0.009-0.079h-0.004c-0.035,0.049-0.103,0.094-0.192,0.094c-0.128,0-0.193-0.09-0.193-0.181 c0-0.152,0.135-0.236,0.379-0.234v-0.013c0-0.051-0.014-0.146-0.143-0.144c-0.06,0-0.121,0.017-0.165,0.047l-0.026-0.077 c0.052-0.032,0.129-0.055,0.208-0.055c0.193,0,0.239,0.131,0.239,0.256V31.118L37.864,31.118z" class="st2"/><path d="M38.081,30.345h0.114v0.924h-0.114V30.345z" class="st2"/></g></g><path d="M19,14.922h2.023v-0.597h-1.279v-0.554h1.03V13.16h-1.03v-0.524h1.279v-0.597H19V14.922z" class="st3"/><path d="M23.543,12.674h-0.891l-0.297,0.542l-0.312-0.542h-0.915l0.747,1.087l-0.796,1.16h0.891l0.356-0.605	l0.352,0.605h0.915l-0.797-1.16L23.543,12.674z" class="st3"/><path d="M24.946,12.62c-0.246,0-0.459,0.1-0.619,0.291v-0.236h-0.683v3.203h0.728v-1.124	c0.132,0.136,0.332,0.223,0.569,0.223c0.596,0,1.01-0.459,1.01-1.178C25.952,13.079,25.561,12.62,24.946,12.62L24.946,12.62z M24.787,14.38c-0.273,0-0.437-0.214-0.437-0.582c0-0.368,0.164-0.582,0.437-0.582c0.273,0,0.437,0.209,0.437,0.582	S25.06,14.38,24.787,14.38z" class="st3"/><path d="M27.236,14.407c-0.223,0-0.391-0.127-0.432-0.455h1.552v-0.096c0-0.701-0.391-1.237-1.151-1.237	c-0.537,0-1.156,0.291-1.156,1.178c0,0.719,0.464,1.178,1.183,1.178c0.428,0,0.96-0.155,1.128-0.819h-0.737	C27.59,14.28,27.494,14.407,27.236,14.407L27.236,14.407z M27.204,13.156c0.209,0,0.35,0.118,0.373,0.377h-0.76	C26.871,13.247,27.031,13.156,27.204,13.156z" class="st3"/><path d="M29.774,12.62c-0.25,0-0.473,0.109-0.619,0.318v-0.264h-0.683v2.248h0.728v-1.251	c0-0.3,0.155-0.437,0.355-0.437c0.214,0,0.341,0.091,0.341,0.432v1.255h0.728v-1.31C30.625,12.902,30.338,12.62,29.774,12.62z" class="st3"/><path d="M33.282,11.653c-0.223,0-0.382,0.163-0.382,0.372c0,0.209,0.159,0.377,0.382,0.377	c0.223,0,0.386-0.168,0.386-0.377C33.668,11.816,33.509,11.653,33.282,11.653z" class="st3"/><path d="M33.652,12.679h-0.727v2.243h0.727V12.679z" class="st3"/><path d="M31.969,13.521l-0.182-0.041c-0.191-0.041-0.259-0.124-0.259-0.211c0-0.124,0.105-0.204,0.273-0.204	c0.214,0,0.328,0.069,0.328,0.276h0.627c-0.015-0.472-0.29-0.751-0.987-0.751c-0.601,0-0.96,0.223-0.96,0.723	c0,0.395,0.266,0.574,0.875,0.712l0.182,0.041c0.191,0.041,0.259,0.13,0.259,0.217c0,0.124-0.109,0.179-0.3,0.179	c-0.25,0-0.364-0.092-0.396-0.299h-0.71c0.041,0.542,0.419,0.812,1.078,0.812c0.66,0,1.046-0.243,1.046-0.743	C32.845,13.838,32.579,13.659,31.969,13.521L31.969,13.521z" class="st3"/><path d="M36.495,12.679l-0.409,1.371l-0.4-1.371h-0.942v-0.071c0-0.183,0.137-0.367,0.349-0.367h0.104v-0.594h-0.149	c-0.622,0.014-1.032,0.452-1.032,1.003v0.028h-0.272v0.662h0.272v1.581h0.727v-1.581h0.409l0.544,1.522l-0.091,0.236	c-0.068,0.172-0.145,0.222-0.295,0.222c-0.077,0-0.154,0-0.264-0.032l-0.045,0.595c0.109,0.032,0.245,0.045,0.418,0.045	c0.436,0,0.663-0.186,0.881-0.763l0.936-2.488L36.495,12.679L36.495,12.679z" class="st3"/><path d="M2.941,17.621c0-0.053,0.014-0.106,0.042-0.151l0.461-0.768c0.053-0.089,0.149-0.143,0.252-0.143h2.088	c0.162,0,0.294,0.132,0.294,0.294v4.118c0,0.162-0.132,0.294-0.294,0.294H3.696c-0.103,0-0.199-0.054-0.252-0.143l-0.461-0.768	c-0.027-0.046-0.042-0.098-0.042-0.151V17.621z M6.471,16.853c0-0.162,0.132-0.294,0.294-0.294h0.98	c0.162,0,0.294,0.132,0.294,0.294v1.569c0,0.162-0.132,0.294-0.294,0.294h-0.98c-0.162,0-0.294-0.132-0.294-0.294V16.853z M8.726,16.559c-0.162,0-0.294,0.132-0.294,0.294v2.157c0,0.162,0.132,0.294,0.294,0.294h0.98c0.162,0,0.294-0.132,0.294-0.294	v-2.157c0-0.162-0.132-0.294-0.294-0.294H8.726z M6.471,19.402c0-0.162,0.132-0.294,0.294-0.294h0.98	c0.162,0,0.294,0.132,0.294,0.294v1.569c0,0.163-0.132,0.294-0.294,0.294h-0.98c-0.162,0-0.294-0.132-0.294-0.294V19.402z M8.726,19.696c-0.162,0-0.294,0.132-0.294,0.294v0.98c0,0.162,0.132,0.294,0.294,0.294h0.98c0.162,0,0.294-0.132,0.294-0.294v-0.98	c0-0.162-0.132-0.294-0.294-0.294H8.726z" class="st4"/></svg>