<svg xmlns="http://www.w3.org/2000/svg" fill="none" viewBox="0 0 40 26"><rect width="39" height="25" x=".5" y=".5" fill="#fff" rx="3.5"/><rect width="39" height="25" x=".5" y=".5" stroke="#e6e1da" stroke-width=".5" rx="3.5"/><path fill="url(#pattern0_48_19834)" d="M18 10.5h18v5H18z"/><path fill="#e7ece9" fill-rule="evenodd" d="M3 11.926a.3.3 0 0 1 .053-.169l.443-.632a.3.3 0 0 1 .24-.125h2.081c.162 0 .294.132.294.294v3.412a.294.294 0 0 1-.294.294h-2.08a.3.3 0 0 1-.241-.126l-.443-.632A.3.3 0 0 1 3 14.075zm3.5-.632c0-.162.132-.294.294-.294h.967c.163 0 .295.132.295.294v1.245a.294.294 0 0 1-.295.294h-.967a.294.294 0 0 1-.294-.294zM8.739 11a.294.294 0 0 0-.295.294v1.745c0 .163.132.294.295.294h.967A.294.294 0 0 0 10 13.04v-1.745A.294.294 0 0 0 9.706 11zM6.5 13.46c0-.162.132-.293.294-.293h.967c.163 0 .295.131.295.294v1.245A.294.294 0 0 1 7.76 15h-.967a.294.294 0 0 1-.294-.294zm2.239.207a.294.294 0 0 0-.295.294v.745c0 .162.132.294.295.294h.967a.294.294 0 0 0 .294-.294v-.745a.294.294 0 0 0-.294-.294z" clip-rule="evenodd"/></svg>