<svg xmlns="http://www.w3.org/2000/svg" xml:space="preserve" id="Layer_1" x="0" y="0" viewBox="0 0 40 40"><style>.st0{fill:#635bff}.st1{fill:#918cfe}.st1,.st2{fill-rule:evenodd;clip-rule:evenodd}.st2,.st3{fill:#fff}</style><path d="M4 7h32a4 4 0 0 1 4 4v18a4 4 0 0 1-4 4H4a4 4 0 0 1-4-4V11a4 4 0 0 1 4-4" class="st0"/><path d="M2.941 17.621c0-.053.014-.106.042-.151l.461-.768a.3.3 0 0 1 .252-.143h2.088c.162 0 .294.132.294.294v4.118a.294.294 0 0 1-.294.294H3.696a.29.29 0 0 1-.252-.143l-.461-.768a.3.3 0 0 1-.042-.151zm3.53-.768c0-.163.132-.294.294-.294h.98c.162 0 .294.132.294.294v1.569a.294.294 0 0 1-.294.294h-.98a.294.294 0 0 1-.294-.294zm2.255-.294a.294.294 0 0 0-.294.294v2.157c0 .162.132.294.294.294h.98A.294.294 0 0 0 10 19.01v-2.157a.294.294 0 0 0-.294-.294zm-2.255 2.843c0-.162.132-.294.294-.294h.98c.162 0 .294.132.294.294v1.569a.294.294 0 0 1-.294.294h-.98a.294.294 0 0 1-.294-.294zm2.255.294a.294.294 0 0 0-.294.294v.98c0 .163.132.294.294.294h.98A.294.294 0 0 0 10 20.97v-.98a.294.294 0 0 0-.294-.294z" class="st1"/><path d="M36.473 14.104c0-1.067-.517-1.908-1.504-1.908-.992 0-1.592.842-1.592 1.9 0 1.254.708 1.887 1.725 1.887.496 0 .871-.113 1.154-.271v-.833a2.2 2.2 0 0 1-1.021.229c-.404 0-.763-.142-.808-.633h2.037c0-.054.009-.271.009-.371m-2.059-.396c0-.471.288-.667.55-.667.254 0 .525.196.525.667zm-2.646-1.512a1.18 1.18 0 0 0-.817.325l-.054-.258h-.917v4.858l1.042-.221.004-1.179c.15.108.371.262.737.262.746 0 1.425-.6 1.425-1.921-.003-1.208-.691-1.866-1.42-1.866m-.25 2.871c-.246 0-.392-.087-.492-.196l-.004-1.546c.108-.121.258-.204.496-.204.379 0 .642.425.642.971 0 .558-.259.975-.642.975m-2.971-3.117 1.046-.225v-.846l-1.046.221z" class="st2"/><path d="M29.593 12.267h-1.046v3.646h1.046z" class="st3"/><path d="m27.427 12.575-.067-.308h-.9v3.646h1.042v-2.471c.246-.321.663-.262.792-.217v-.958c-.134-.05-.622-.142-.867.308m-2.083-1.212-1.017.217-.004 3.337c0 .617.462 1.071 1.079 1.071.342 0 .592-.062.729-.137v-.846c-.133.054-.792.246-.792-.371v-1.479h.792v-.887h-.791zm-2.817 1.962c0-.162.133-.225.354-.225.317 0 .717.096 1.033.267v-.979a2.8 2.8 0 0 0-1.033-.192c-.846 0-1.408.442-1.408 1.179 0 1.15 1.583.967 1.583 1.462 0 .192-.167.254-.4.254-.346 0-.787-.142-1.137-.333v.992c.388.167.779.238 1.137.238.867 0 1.463-.429 1.463-1.175-.005-1.242-1.592-1.021-1.592-1.488" class="st2"/></svg>