<?xml version="1.0" encoding="UTF-8"?>
<svg id="Layer_1" data-name="Layer 1" xmlns="http://www.w3.org/2000/svg" version="1.1" viewBox="0 0 235 148">
  <defs>
    <style>
      .cls-1 {
        fill: #7b89a0;
      }

      .cls-1, .cls-2, .cls-3 {
        stroke-width: 0px;
      }

      .cls-2 {
        fill: #15181d;
      }

      .cls-4 {
        opacity: .2;
      }

      .cls-3 {
        fill: #fff;
      }
    </style>
  </defs>
  <rect class="cls-2" x="0" width="235" height="148" rx="16" ry="16"/>
  <path class="cls-3" d="M206,19.2c-1.2,0-2.3.3-3.4.8-1.1.5-2,1.3-2.7,2.2l-1.5,2c-.3.4-.7.7-1.1.9-.4.2-.9.3-1.4.3h-26.3v31.4h10.3c1.2,0,2.3-.3,3.4-.8,1-.5,2-1.3,2.7-2.2l1.5-2c.3-.4.7-.7,1.1-.9.4-.2.9-.3,1.4-.3h26.3v-31.4h-10.3ZM208.2,42.4h-11c-1.2,0-2.3.3-3.4.8-1.1.5-2,1.3-2.7,2.2l-1.5,2c-.3.4-.7.7-1.1.9-.4.2-.9.3-1.4.3h-9.2v-15.1h11c1.2,0,2.3-.3,3.4-.8,1-.5,2-1.3,2.7-2.2l1.5-2c.3-.4.7-.7,1.1-.9.4-.2.9-.3,1.4-.3h9.3v15.1Z"/>
  <g class="cls-4">
    <path class="cls-1" d="M40,73.2h-3.8c-1,0-1.8.8-1.8,1.8v6.8c0,1,.8,1.8,1.8,1.8h3.8c1,0,1.8-.8,1.8-1.8v-6.8c0-1-.8-1.8-1.8-1.8Z"/>
    <path class="cls-1" d="M40.1,62.9h-3.8c-1,0-1.8.8-1.8,1.8v5c0,1,.8,1.8,1.8,1.8h3.8c1,0,1.8-.8,1.8-1.8v-5c0-1-.8-1.8-1.8-1.8Z"/>
    <path class="cls-1" d="M49.6,74.9h-3.8c-1,0-1.8.8-1.8,1.8v5c0,1,.8,1.8,1.8,1.8h3.8c1,0,1.8-.8,1.8-1.8v-5c0-1-.8-1.8-1.8-1.8Z"/>
    <path class="cls-1" d="M49.4,62.9h-3.8c-1,0-1.8.8-1.8,1.8v7.2c0,1,.8,1.8,1.8,1.8h3.8c1,0,1.8-.8,1.8-1.8v-7.2c0-1-.8-1.8-1.8-1.8Z"/>
    <path class="cls-1" d="M32.6,81.8v-17.4c0-.9-.8-1.6-1.7-1.6h-6.2c-.5,0-1,.2-1.3.6l-2.1,2.6c-.2.3-.4.6-.4,1v12.7c0,.3.1.7.3.9l1.6,2.2c.3.4.8.7,1.4.7h6.7c.9,0,1.7-.8,1.7-1.7h0Z"/>
  </g>
</svg>