<svg width="680" height="220" viewBox="0 0 680 220" fill="none" xmlns="http://www.w3.org/2000/svg">
<rect width="680" height="220" fill="#003C73"/>
<g clip-path="url(#clip0_4940_17451)">
<path d="M420.541 135.281C420.541 137.802 420.77 137.802 419.051 140.552C417.331 143.304 388.905 183.305 386.613 186.172C385.237 187.891 384.355 188.829 383.176 189.301L383.118 189.15V174.994C383.118 173.289 383.052 172.491 382.46 172.118L382.83 172.072C382.83 172.072 415.195 121.861 419.165 115.335C420.086 113.825 420.478 112.564 420.478 111.531H420.541V135.281Z" fill="#0164BF"/>
<path d="M420.478 111.531C420.478 112.564 420.086 113.825 419.165 115.336C415.195 121.861 382.83 172.072 382.83 172.072L382.46 172.118C381.936 171.787 380.999 171.787 379.335 171.787C375.781 171.787 318.186 172.189 318.186 172.189H317.91C318.122 171.538 318.563 171.027 319.447 169.665C320.938 167.373 346.037 126.34 351.081 117.284C356.126 108.231 360.481 107.829 365.408 107.829H415.268C418.047 107.829 420.478 108.966 420.478 111.531ZM409.308 118.088C410.684 115.796 409.194 115.107 406.212 115.107H365.639C360.939 115.107 359.599 115.93 357.614 119.347C355.551 122.901 352.265 128.537 351.118 130.829C349.973 133.121 350.317 134.153 353.067 134.153H353.602C358.215 134.166 391.167 134.248 395.325 134.248C399.795 134.248 400.023 133.101 401.4 130.924C402.583 129.053 406.556 122.611 408.524 119.381C408.845 118.853 409.113 118.409 409.308 118.088ZM395.527 142.396C395.695 142.106 395.734 141.84 395.661 141.643L394.982 139.692L394.935 139.707C394.862 139.487 394.653 139.349 394.334 139.349H383.578C382.974 139.349 382.194 139.843 381.846 140.447L379.805 143.981C379.598 144.339 379.588 144.658 379.739 144.858L380.375 146.578C380.416 146.85 380.638 147.028 381.001 147.028H391.754C392.358 147.028 393.138 146.534 393.489 145.93L395.527 142.396ZM388.707 153.113C388.875 152.823 388.914 152.557 388.841 152.36L388.162 150.409L388.116 150.424C388.043 150.204 387.833 150.066 387.514 150.066H376.758C376.154 150.066 375.375 150.56 375.026 151.164L372.985 154.698C372.778 155.056 372.769 155.375 372.92 155.575L373.555 157.295C373.597 157.567 373.818 157.745 374.181 157.745H384.935C385.539 157.745 386.318 157.251 386.669 156.647L388.707 153.113ZM381.888 164.073C382.056 163.783 382.095 163.518 382.022 163.32L381.342 161.369L381.296 161.384C381.223 161.165 381.013 161.026 380.694 161.026H369.938C369.334 161.026 368.555 161.52 368.207 162.124L366.165 165.659C365.958 166.017 365.949 166.336 366.1 166.535L366.735 168.255C366.777 168.528 366.998 168.706 367.361 168.706H378.115C378.719 168.706 379.498 168.211 379.849 167.607L381.888 164.073ZM376.042 142.396C376.21 142.106 376.249 141.84 376.176 141.643L375.496 139.692L375.45 139.707C375.377 139.487 375.168 139.349 374.849 139.349H364.093C363.489 139.349 362.709 139.843 362.361 140.447L360.32 143.981C360.113 144.339 360.103 144.658 360.254 144.858L360.89 146.578C360.931 146.85 361.153 147.028 361.516 147.028H372.269C372.873 147.028 373.653 146.534 374.003 145.93L376.042 142.396ZM369.222 153.113C369.39 152.823 369.429 152.557 369.356 152.36L368.677 150.409L368.63 150.424C368.557 150.204 368.348 150.066 368.029 150.066H357.273C356.669 150.066 355.889 150.56 355.541 151.164L353.5 154.698C353.293 155.056 353.283 155.375 353.434 155.575L354.07 157.295C354.111 157.567 354.333 157.745 354.696 157.745H365.449C366.053 157.745 366.833 157.251 367.184 156.647L369.222 153.113ZM362.402 164.073C362.57 163.783 362.609 163.518 362.536 163.32L361.857 161.369L361.811 161.384C361.737 161.165 361.528 161.026 361.209 161.026H350.453C349.849 161.026 349.07 161.52 348.721 162.124L346.68 165.659C346.473 166.017 346.463 166.336 346.614 166.535L347.25 168.255C347.292 168.528 347.513 168.706 347.876 168.706H358.63C359.234 168.706 360.013 168.211 360.364 167.607L362.402 164.073ZM356.557 142.396C356.725 142.106 356.764 141.84 356.691 141.643L356.011 139.692L355.965 139.707C355.892 139.487 355.682 139.349 355.363 139.349H344.607C344.003 139.349 343.224 139.843 342.876 140.447L340.835 143.981C340.628 144.339 340.618 144.658 340.769 144.858L341.405 146.578C341.446 146.85 341.668 147.028 342.031 147.028H352.784C353.388 147.028 354.167 146.534 354.518 145.93L356.557 142.396ZM349.737 153.113C349.905 152.823 349.944 152.557 349.871 152.36L349.191 150.409L349.145 150.424C349.072 150.204 348.863 150.066 348.543 150.066H337.788C337.184 150.066 336.404 150.56 336.056 151.164L334.015 154.698C333.808 155.056 333.798 155.375 333.949 155.575L334.585 157.295C334.626 157.567 334.848 157.745 335.211 157.745H345.964C346.568 157.745 347.348 157.251 347.698 156.647L349.737 153.113ZM342.917 164.073C343.085 163.783 343.124 163.518 343.051 163.32L342.372 161.369L342.325 161.384C342.252 161.165 342.043 161.026 341.724 161.026H330.968C330.364 161.026 329.584 161.52 329.236 162.124L327.195 165.659C326.988 166.017 326.978 166.336 327.129 166.535L327.765 168.255C327.806 168.528 328.028 168.706 328.391 168.706H339.144C339.748 168.706 340.528 168.211 340.878 167.607L342.917 164.073Z" fill="#0185FF"/>
<path d="M406.212 115.107C409.194 115.107 410.684 115.796 409.308 118.088C409.113 118.409 408.845 118.853 408.524 119.381L408.161 119.247H367.588C362.887 119.247 361.518 120.054 359.562 123.488C357.614 126.912 354.974 131.194 353.602 133.905V134.153H353.066C350.317 134.153 349.973 133.121 351.118 130.829C352.265 128.537 355.551 122.901 357.614 119.347C359.599 115.93 360.939 115.107 365.639 115.107H406.212Z" fill="#002140"/>
<path d="M408.161 119.247L408.524 119.381C406.556 122.611 402.583 129.053 401.4 130.924C400.024 133.101 399.795 134.248 395.325 134.248C391.168 134.248 358.216 134.165 353.602 134.153V133.905C354.974 131.194 357.614 126.912 359.562 123.488C361.518 120.053 362.887 119.247 367.588 119.247H408.161Z" fill="#FFED8F"/>
<path d="M395.661 141.643C395.734 141.84 395.695 142.106 395.527 142.396L393.489 145.93C393.138 146.534 392.359 147.028 391.754 147.028H381.001C380.638 147.028 380.416 146.851 380.375 146.578L379.739 144.858C379.844 144.997 380.024 145.08 380.27 145.08H391.024C391.628 145.08 392.407 144.585 392.758 143.981L394.797 140.447C394.962 140.162 395.004 139.902 394.935 139.707L394.982 139.692L395.661 141.643Z" fill="#003C73"/>
<path d="M379.739 144.858C379.588 144.658 379.598 144.339 379.805 143.981L381.846 140.447C382.194 139.843 382.974 139.349 383.578 139.349H394.334C394.653 139.349 394.862 139.487 394.935 139.707C395.003 139.902 394.962 140.162 394.796 140.447L392.758 143.981C392.407 144.585 391.628 145.08 391.024 145.08H380.27C380.024 145.08 379.844 144.997 379.739 144.858Z" fill="#5AB0FF"/>
<path d="M388.841 152.36C388.914 152.557 388.875 152.823 388.707 153.113L386.669 156.647C386.318 157.251 385.539 157.745 384.935 157.745H374.181C373.818 157.745 373.597 157.567 373.555 157.295L372.919 155.575C373.024 155.714 373.204 155.797 373.45 155.797H384.204C384.808 155.797 385.587 155.302 385.938 154.698L387.977 151.164C388.142 150.879 388.184 150.618 388.115 150.424L388.162 150.409L388.841 152.36Z" fill="#003C73"/>
<path d="M372.92 155.575C372.769 155.375 372.778 155.056 372.985 154.698L375.026 151.164C375.375 150.56 376.154 150.065 376.758 150.065H387.514C387.833 150.065 388.043 150.204 388.116 150.423C388.184 150.618 388.142 150.879 387.977 151.164L385.938 154.698C385.587 155.302 384.808 155.797 384.204 155.797H373.451C373.205 155.797 373.024 155.714 372.92 155.575Z" fill="#5AB0FF"/>
<path d="M383.118 189.15L383.176 189.301C382.392 189.616 381.476 189.725 380.195 189.725H321.51C318.415 189.725 317.728 189.265 317.728 186.858V174.02C317.728 173.136 317.764 172.629 317.91 172.186H318.186C318.186 172.186 375.781 171.787 379.335 171.787C380.999 171.787 381.936 171.787 382.46 172.118C383.052 172.491 383.118 173.289 383.118 174.994V189.15ZM376.527 181.415C376.527 179.995 375.367 178.835 373.947 178.835H325.809C325.1 178.835 324.455 179.125 323.987 179.593C323.52 180.061 323.23 180.704 323.23 181.415C323.23 182.832 324.389 183.994 325.809 183.994H373.947C374.656 183.994 375.302 183.704 375.769 183.237C376.237 182.769 376.527 182.124 376.527 181.415Z" fill="#0676DE"/>
<path d="M382.022 163.32C382.095 163.518 382.056 163.783 381.888 164.073L379.849 167.607C379.498 168.211 378.719 168.706 378.115 168.706H367.361C366.998 168.706 366.777 168.528 366.735 168.255L366.1 166.535C366.204 166.674 366.385 166.757 366.631 166.757H377.384C377.988 166.757 378.768 166.263 379.118 165.659L381.157 162.124C381.323 161.839 381.364 161.579 381.296 161.384L381.342 161.369L382.022 163.32Z" fill="#003C73"/>
<path d="M366.1 166.535C365.949 166.336 365.958 166.017 366.165 165.658L368.206 162.124C368.555 161.52 369.334 161.026 369.938 161.026H380.694C381.013 161.026 381.223 161.165 381.296 161.384C381.364 161.579 381.322 161.839 381.157 162.124L379.118 165.658C378.767 166.263 377.988 166.757 377.384 166.757H366.631C366.385 166.757 366.204 166.674 366.1 166.535Z" fill="#5AB0FF"/>
<path d="M376.176 141.643C376.249 141.84 376.21 142.106 376.042 142.396L374.003 145.93C373.653 146.534 372.873 147.028 372.269 147.028H361.516C361.153 147.028 360.931 146.851 360.89 146.578L360.254 144.858C360.359 144.997 360.539 145.08 360.785 145.08H371.538C372.142 145.08 372.922 144.585 373.273 143.981L375.311 140.447C375.477 140.162 375.518 139.902 375.45 139.707L375.496 139.692L376.176 141.643Z" fill="#003C73"/>
<path d="M373.947 178.835C375.367 178.835 376.527 179.995 376.527 181.415C376.527 182.124 376.237 182.769 375.769 183.237C375.301 183.704 374.656 183.994 373.947 183.994H325.809C324.389 183.994 323.23 182.832 323.23 181.415C323.23 180.704 323.519 180.061 323.987 179.593C324.455 179.125 325.1 178.835 325.809 178.835H373.947Z" fill="#002140"/>
<path d="M360.254 144.858C360.103 144.658 360.113 144.339 360.32 143.981L362.361 140.447C362.709 139.843 363.489 139.349 364.093 139.349H374.848C375.168 139.349 375.377 139.487 375.45 139.707C375.518 139.902 375.477 140.162 375.311 140.447L373.273 143.981C372.922 144.585 372.142 145.08 371.538 145.08H360.785C360.539 145.08 360.359 144.997 360.254 144.858Z" fill="#5AB0FF"/>
<path d="M369.356 152.36C369.429 152.557 369.39 152.823 369.222 153.113L367.184 156.647C366.833 157.251 366.053 157.745 365.449 157.745H354.696C354.333 157.745 354.111 157.567 354.07 157.295L353.434 155.575C353.539 155.714 353.719 155.797 353.965 155.797H364.719C365.323 155.797 366.102 155.302 366.453 154.698L368.492 151.164C368.657 150.879 368.699 150.618 368.63 150.424L368.677 150.409L369.356 152.36Z" fill="#003C73"/>
<path d="M353.434 155.575C353.283 155.375 353.293 155.056 353.5 154.698L355.541 151.164C355.889 150.56 356.669 150.065 357.273 150.065H368.029C368.348 150.065 368.557 150.204 368.63 150.423C368.699 150.618 368.657 150.879 368.492 151.164L366.453 154.698C366.102 155.302 365.323 155.797 364.719 155.797H353.965C353.719 155.797 353.539 155.714 353.434 155.575Z" fill="#5AB0FF"/>
<path d="M362.536 163.32C362.609 163.518 362.57 163.783 362.402 164.073L360.364 167.607C360.013 168.211 359.233 168.706 358.629 168.706H347.876C347.513 168.706 347.291 168.528 347.25 168.255L346.614 166.535C346.719 166.674 346.899 166.757 347.145 166.757H357.899C358.503 166.757 359.282 166.263 359.633 165.659L361.672 162.124C361.837 161.839 361.879 161.579 361.81 161.384L361.857 161.369L362.536 163.32Z" fill="#003C73"/>
<path d="M346.614 166.535C346.463 166.336 346.473 166.017 346.68 165.658L348.721 162.124C349.069 161.52 349.849 161.026 350.453 161.026H361.209C361.528 161.026 361.737 161.165 361.81 161.384C361.879 161.579 361.837 161.839 361.672 162.124L359.633 165.658C359.282 166.263 358.503 166.757 357.899 166.757H347.145C346.899 166.757 346.719 166.674 346.614 166.535Z" fill="#5AB0FF"/>
<path d="M356.691 141.643C356.764 141.84 356.725 142.106 356.557 142.396L354.518 145.93C354.167 146.534 353.388 147.028 352.784 147.028H342.03C341.668 147.028 341.446 146.851 341.405 146.578L340.769 144.858C340.874 144.997 341.054 145.08 341.3 145.08H352.053C352.657 145.08 353.437 144.585 353.787 143.981L355.826 140.447C355.992 140.162 356.033 139.902 355.965 139.707L356.011 139.692L356.691 141.643Z" fill="#003C73"/>
<path d="M340.769 144.858C340.618 144.658 340.628 144.339 340.835 143.981L342.876 140.447C343.224 139.843 344.003 139.349 344.607 139.349H355.363C355.682 139.349 355.892 139.487 355.965 139.707C356.033 139.902 355.992 140.162 355.826 140.447L353.787 143.981C353.437 144.585 352.657 145.08 352.053 145.08H341.3C341.054 145.08 340.874 144.997 340.769 144.858Z" fill="#5AB0FF"/>
<path d="M349.871 152.36C349.944 152.557 349.905 152.823 349.737 153.113L347.698 156.647C347.348 157.251 346.568 157.745 345.964 157.745H335.211C334.848 157.745 334.626 157.567 334.585 157.295L333.949 155.575C334.054 155.714 334.234 155.797 334.48 155.797H345.233C345.838 155.797 346.617 155.302 346.968 154.698L349.006 151.164C349.172 150.879 349.213 150.618 349.145 150.424L349.191 150.409L349.871 152.36Z" fill="#003C73"/>
<path d="M333.949 155.575C333.798 155.375 333.808 155.056 334.015 154.698L336.056 151.164C336.404 150.56 337.184 150.065 337.788 150.065H348.543C348.862 150.065 349.072 150.204 349.145 150.423C349.213 150.618 349.172 150.879 349.006 151.164L346.968 154.698C346.617 155.302 345.837 155.797 345.233 155.797H334.48C334.234 155.797 334.054 155.714 333.949 155.575Z" fill="#5AB0FF"/>
<path d="M343.051 163.32C343.124 163.518 343.085 163.783 342.917 164.073L340.878 167.607C340.528 168.211 339.748 168.706 339.144 168.706H328.391C328.028 168.706 327.806 168.528 327.765 168.255L327.129 166.535C327.234 166.674 327.414 166.757 327.66 166.757H338.414C339.018 166.757 339.797 166.263 340.148 165.659L342.186 162.124C342.352 161.839 342.393 161.579 342.325 161.384L342.371 161.369L343.051 163.32Z" fill="#003C73"/>
<path d="M327.129 166.535C326.978 166.336 326.988 166.017 327.195 165.658L329.236 162.124C329.584 161.52 330.364 161.026 330.968 161.026H341.724C342.043 161.026 342.252 161.165 342.325 161.384C342.393 161.579 342.352 161.839 342.186 162.124L340.148 165.658C339.797 166.263 339.018 166.757 338.414 166.757H327.66C327.414 166.757 327.234 166.674 327.129 166.535Z" fill="#5AB0FF"/>
<path d="M382.83 172.072C382.83 172.072 415.195 121.861 419.165 115.336C420.086 113.825 420.478 112.564 420.478 111.531C420.478 108.966 418.047 107.829 415.268 107.829H365.408C360.481 107.829 356.126 108.231 351.082 117.284C346.037 126.34 320.938 167.373 319.447 169.665C318.563 171.027 318.122 171.538 317.91 172.186C317.764 172.629 317.728 173.136 317.728 174.02V186.859C317.728 189.265 318.415 189.725 321.51 189.725H380.195C381.476 189.725 382.392 189.616 383.176 189.301C384.355 188.829 385.237 187.891 386.613 186.172C388.905 183.305 417.331 143.304 419.051 140.552C420.77 137.802 420.541 137.802 420.541 135.281V111.324" stroke="#002140" stroke-miterlimit="10" stroke-linecap="round"/>
<path d="M318.185 172.189C318.185 172.189 375.781 171.787 379.335 171.787C380.998 171.787 381.936 171.787 382.46 172.118C383.052 172.491 383.118 173.289 383.118 174.994V189.15" stroke="#002140" stroke-miterlimit="10" stroke-linecap="round"/>
<path d="M373.947 183.994H325.809C324.389 183.994 323.23 182.832 323.23 181.415C323.23 180.704 323.519 180.061 323.987 179.593C324.455 179.125 325.1 178.835 325.809 178.835H373.947C375.367 178.835 376.527 179.995 376.527 181.415C376.527 182.124 376.237 182.769 375.769 183.237C375.301 183.704 374.656 183.994 373.947 183.994Z" stroke="#002140" stroke-miterlimit="10" stroke-linecap="round"/>
<path d="M408.524 119.381C408.845 118.853 409.113 118.409 409.308 118.088C410.684 115.796 409.194 115.107 406.212 115.107H365.639C360.939 115.107 359.599 115.93 357.614 119.347C355.551 122.901 352.265 128.537 351.118 130.829C349.973 133.121 350.317 134.153 353.066 134.153H353.602C358.215 134.166 391.167 134.248 395.325 134.248C399.794 134.248 400.023 133.101 401.4 130.924C402.583 129.053 406.556 122.611 408.524 119.381Z" stroke="#002140" stroke-miterlimit="10" stroke-linecap="round"/>
<path d="M408.161 119.247H367.588C362.887 119.247 361.518 120.053 359.562 123.488C357.614 126.912 354.974 131.194 353.602 133.905" stroke="#002140" stroke-miterlimit="10" stroke-linecap="round"/>
<path d="M368.63 150.423C368.557 150.204 368.348 150.065 368.029 150.065H357.273C356.669 150.065 355.889 150.56 355.541 151.164L353.5 154.698C353.293 155.056 353.283 155.375 353.434 155.575C353.539 155.714 353.719 155.797 353.965 155.797H364.719C365.323 155.797 366.102 155.302 366.453 154.698L368.492 151.164C368.657 150.879 368.699 150.618 368.63 150.423Z" stroke="#002140" stroke-miterlimit="10" stroke-linecap="round"/>
<path d="M368.677 150.409L369.356 152.36C369.429 152.557 369.39 152.823 369.222 153.113L367.184 156.647C366.833 157.251 366.053 157.745 365.449 157.745H354.696C354.333 157.745 354.111 157.567 354.07 157.295L353.434 155.575V155.568" stroke="#002140" stroke-miterlimit="10" stroke-linecap="round"/>
<path d="M388.116 150.423C388.043 150.204 387.833 150.065 387.514 150.065H376.758C376.154 150.065 375.375 150.56 375.026 151.164L372.985 154.698C372.778 155.056 372.769 155.375 372.92 155.575C373.024 155.714 373.205 155.797 373.451 155.797H384.204C384.808 155.797 385.587 155.302 385.938 154.698L387.977 151.164C388.142 150.879 388.184 150.618 388.116 150.423Z" stroke="#002140" stroke-miterlimit="10" stroke-linecap="round"/>
<path d="M388.162 150.409L388.841 152.36C388.914 152.557 388.875 152.823 388.707 153.113L386.669 156.647C386.318 157.251 385.539 157.745 384.935 157.745H374.181C373.818 157.745 373.597 157.567 373.555 157.295L372.919 155.575V155.568" stroke="#002140" stroke-miterlimit="10" stroke-linecap="round"/>
<path d="M349.145 150.423C349.072 150.204 348.862 150.065 348.543 150.065H337.788C337.184 150.065 336.404 150.56 336.056 151.164L334.015 154.698C333.808 155.056 333.798 155.375 333.949 155.575C334.054 155.714 334.234 155.797 334.48 155.797H345.233C345.837 155.797 346.617 155.302 346.968 154.698L349.006 151.164C349.172 150.879 349.213 150.618 349.145 150.423Z" stroke="#002140" stroke-miterlimit="10" stroke-linecap="round"/>
<path d="M349.191 150.409L349.871 152.36C349.944 152.557 349.905 152.823 349.737 153.113L347.698 156.647C347.348 157.251 346.568 157.745 345.964 157.745H335.211C334.848 157.745 334.626 157.567 334.585 157.295L333.949 155.575V155.568" stroke="#002140" stroke-miterlimit="10" stroke-linecap="round"/>
<path d="M375.45 139.707C375.377 139.487 375.168 139.349 374.848 139.349H364.093C363.489 139.349 362.709 139.843 362.361 140.447L360.32 143.981C360.113 144.339 360.103 144.658 360.254 144.858C360.359 144.997 360.539 145.08 360.785 145.08H371.538C372.142 145.08 372.922 144.585 373.273 143.981L375.311 140.447C375.477 140.162 375.518 139.902 375.45 139.707Z" stroke="#002140" stroke-miterlimit="10" stroke-linecap="round"/>
<path d="M375.496 139.692L376.176 141.643C376.249 141.84 376.21 142.106 376.042 142.396L374.003 145.93C373.653 146.534 372.873 147.028 372.269 147.028H361.516C361.153 147.028 360.931 146.851 360.89 146.578L360.254 144.858V144.851" stroke="#002140" stroke-miterlimit="10" stroke-linecap="round"/>
<path d="M394.935 139.707C394.862 139.487 394.653 139.349 394.334 139.349H383.578C382.974 139.349 382.194 139.843 381.846 140.447L379.805 143.981C379.598 144.339 379.588 144.658 379.739 144.858C379.844 144.997 380.024 145.08 380.27 145.08H391.024C391.628 145.08 392.407 144.585 392.758 143.981L394.796 140.447C394.962 140.162 395.003 139.902 394.935 139.707Z" stroke="#002140" stroke-miterlimit="10" stroke-linecap="round"/>
<path d="M394.982 139.692L395.661 141.643C395.734 141.84 395.695 142.106 395.527 142.396L393.489 145.93C393.138 146.534 392.359 147.028 391.754 147.028H381.001C380.638 147.028 380.416 146.851 380.375 146.578L379.739 144.858V144.851" stroke="#002140" stroke-miterlimit="10" stroke-linecap="round"/>
<path d="M355.965 139.707C355.892 139.487 355.682 139.349 355.363 139.349H344.607C344.003 139.349 343.224 139.843 342.876 140.447L340.835 143.981C340.628 144.339 340.618 144.658 340.769 144.858C340.874 144.997 341.054 145.08 341.3 145.08H352.053C352.657 145.08 353.437 144.585 353.787 143.981L355.826 140.447C355.992 140.162 356.033 139.902 355.965 139.707Z" stroke="#002140" stroke-miterlimit="10" stroke-linecap="round"/>
<path d="M356.011 139.692L356.691 141.643C356.764 141.84 356.725 142.106 356.557 142.396L354.518 145.93C354.167 146.534 353.388 147.028 352.784 147.028H342.03C341.668 147.028 341.446 146.851 341.405 146.578L340.769 144.858V144.851" stroke="#002140" stroke-miterlimit="10" stroke-linecap="round"/>
<path d="M361.81 161.384C361.737 161.165 361.528 161.026 361.209 161.026H350.453C349.849 161.026 349.069 161.52 348.721 162.124L346.68 165.658C346.473 166.017 346.463 166.336 346.614 166.535C346.719 166.674 346.899 166.757 347.145 166.757H357.899C358.503 166.757 359.282 166.263 359.633 165.658L361.672 162.124C361.837 161.839 361.879 161.579 361.81 161.384Z" stroke="#002140" stroke-miterlimit="10" stroke-linecap="round"/>
<path d="M361.857 161.369L362.536 163.32C362.609 163.518 362.57 163.783 362.402 164.073L360.364 167.607C360.013 168.211 359.233 168.706 358.629 168.706H347.876C347.513 168.706 347.291 168.528 347.25 168.255L346.614 166.535V166.528" stroke="#002140" stroke-miterlimit="10" stroke-linecap="round"/>
<path d="M381.296 161.384C381.223 161.165 381.013 161.026 380.694 161.026H369.938C369.334 161.026 368.555 161.52 368.206 162.124L366.165 165.658C365.958 166.017 365.949 166.336 366.1 166.535C366.204 166.674 366.385 166.757 366.631 166.757H377.384C377.988 166.757 378.767 166.263 379.118 165.658L381.157 162.124C381.322 161.839 381.364 161.579 381.296 161.384Z" stroke="#002140" stroke-miterlimit="10" stroke-linecap="round"/>
<path d="M381.342 161.369L382.022 163.32C382.095 163.518 382.056 163.783 381.888 164.073L379.849 167.607C379.498 168.211 378.719 168.706 378.115 168.706H367.361C366.998 168.706 366.777 168.528 366.735 168.255L366.1 166.535V166.528" stroke="#002140" stroke-miterlimit="10" stroke-linecap="round"/>
<path d="M342.325 161.384C342.252 161.165 342.043 161.026 341.724 161.026H330.968C330.364 161.026 329.584 161.52 329.236 162.124L327.195 165.658C326.988 166.017 326.978 166.336 327.129 166.535C327.234 166.674 327.414 166.757 327.66 166.757H338.414C339.018 166.757 339.797 166.263 340.148 165.658L342.186 162.124C342.352 161.839 342.393 161.579 342.325 161.384Z" stroke="#002140" stroke-miterlimit="10" stroke-linecap="round"/>
<path d="M342.371 161.369L343.051 163.32C343.124 163.518 343.085 163.783 342.917 164.073L340.878 167.607C340.528 168.211 339.748 168.706 339.144 168.706H328.391C328.028 168.706 327.806 168.528 327.765 168.255L327.129 166.535V166.528" stroke="#002140" stroke-miterlimit="10" stroke-linecap="round"/>
<path d="M260.877 77.7997C260.877 48.226 260.419 1.00353 260.361 0.94751H287.525V66.1086C287.525 75.9072 293.028 78.1431 300.593 73.6713C308.158 69.2018 309.553 68.4687 313.144 66.5372C316.495 64.7324 318.388 64.0456 320.278 65.7627L320.404 65.9405C323.522 63.7703 325.924 63.2467 328.888 65.2756C329.229 65.5094 329.411 65.7749 329.899 66.1037C332.787 64.2087 335.089 63.841 337.9 65.7627C341.166 67.9986 351.827 75.0474 356.296 77.9702C360.768 80.893 361.44 83.4723 361.44 89.3179V112.873C361.44 117.859 359.894 120.782 355.768 120.782C353.585 120.782 351.978 120.107 350.95 118.456L350.767 118.57C350.231 121.846 348.582 123.704 345.294 123.704C342.384 123.704 340.501 122.506 339.641 119.391L339.595 119.403C338.774 120.636 337.481 121.3 335.603 121.3C332.422 121.3 330.59 119.732 330.101 115.455L330.008 115.465C329.197 116.254 328.077 116.673 326.584 116.673C322.821 116.673 320.94 114.478 320.94 108.206V107.198L296.523 105.422H286.551C280.935 105.422 260.877 107.371 260.877 77.7997Z" fill="#50EEF6"/>
<path d="M350.767 118.57C350.231 121.846 348.582 123.704 345.294 123.704C342.384 123.704 340.501 122.506 339.641 119.391C339.283 118.088 339.103 116.449 339.103 114.42V95.0782C339.103 91.208 338.759 91.208 335.578 89.145C332.397 87.082 327.156 83.6453 327.156 83.6453" stroke="#002140" stroke-miterlimit="10" stroke-linecap="round"/>
<path d="M339.595 119.403C338.774 120.636 337.481 121.301 335.603 121.301C332.422 121.301 330.59 119.732 330.101 115.455C330.011 114.678 329.967 113.811 329.967 112.846V107.028" stroke="#002140" stroke-miterlimit="10" stroke-linecap="round"/>
<path d="M330.008 115.465C329.197 116.254 328.077 116.673 326.584 116.673C322.821 116.673 320.94 114.478 320.94 108.206V107.198L296.523 105.422H286.551C280.935 105.422 260.877 107.371 260.877 77.7997C260.877 48.2284 260.419 1.00353 260.361 0.94751H287.525V66.1086C287.525 75.9072 293.028 78.1431 300.593 73.6713C308.158 69.2018 309.553 68.4687 313.144 66.5372C316.495 64.7324 318.388 64.0456 320.278 65.7627" stroke="#002140" stroke-miterlimit="10" stroke-linecap="round"/>
<path d="M337.542 81.2365C337.542 81.2365 343.217 85.019 346.483 87.082C349.749 89.145 349.576 90.1778 349.576 94.9906V111.497C349.576 114.736 350.034 116.982 350.95 118.456C351.978 120.107 353.585 120.782 355.768 120.782C359.894 120.782 361.44 117.859 361.44 112.873V89.318C361.44 83.4724 360.768 80.893 356.296 77.9703C351.827 75.0475 341.166 67.9987 337.9 65.7628C335.089 63.841 332.787 64.2088 329.899 66.1038C329.431 66.4082 328.949 66.7565 328.444 67.1389" stroke="#002140" stroke-miterlimit="10" stroke-linecap="round"/>
<path d="M329.906 66.1086C329.906 66.1086 329.901 66.1062 329.898 66.1037C329.411 65.7749 329.229 65.5094 328.888 65.2756C325.924 63.2467 323.522 63.7704 320.404 65.9405C320.088 66.1622 319.766 66.3984 319.432 66.6518" stroke="#002140" stroke-miterlimit="10" stroke-linecap="round"/>
<path d="M357.884 104.017C358.22 104.536 358.922 104.684 359.443 104.348L364.083 101.343C364.602 101.007 364.753 100.307 364.414 99.7863L362.461 96.7709C362.125 96.2521 361.423 96.0987 360.904 96.4372L356.264 99.4428C355.746 99.779 355.595 100.483 355.931 101.002L357.884 104.017ZM398.521 64.8103L415.872 91.5854C416.744 92.9323 416.357 94.7493 415.01 95.6213L368.384 125.838C367.037 126.71 365.22 126.323 364.348 124.976L346.997 98.2007C346.125 96.8537 346.512 95.0367 347.859 94.1648L394.485 63.9481C395.832 63.0761 397.649 63.4634 398.521 64.8103Z" fill="#780505"/>
<path d="M360.904 96.4372C361.423 96.1011 362.125 96.2521 362.461 96.7709L364.414 99.7863C364.75 100.305 364.602 101.007 364.083 101.343L359.443 104.348C358.924 104.684 358.223 104.538 357.884 104.017L355.931 101.002C355.595 100.483 355.743 99.779 356.264 99.4428L360.904 96.4372Z" fill="#BF3013"/>
<path d="M394.484 63.9348L347.861 94.1541C346.509 95.0307 346.123 96.8375 347 98.1898L364.354 124.964C365.231 126.317 367.037 126.702 368.39 125.826L415.012 95.6066C416.365 94.7301 416.75 92.9233 415.874 91.571L398.519 64.7963C397.643 63.444 395.836 63.0583 394.484 63.9348Z" stroke="#002140" stroke-miterlimit="10" stroke-linecap="round"/>
<path d="M359.443 104.348L364.083 101.343C364.602 101.007 364.753 100.308 364.414 99.7864L362.461 96.771C362.125 96.2522 361.423 96.0988 360.904 96.4373L356.264 99.4429C355.746 99.7791 355.595 100.483 355.931 101.002L357.884 104.017C358.22 104.536 358.922 104.684 359.443 104.348Z" stroke="#002140" stroke-miterlimit="10" stroke-linecap="round"/>
<path d="M369.965 104.017C372.286 108.401 371.083 112.7 366.869 113.903C362.658 115.106 359.219 109.863 354.148 110.552C349.077 111.239 345.379 114.678 337.814 114.678C330.249 114.678 327.326 111.412 327.326 111.412C327.326 111.412 323.717 114.936 307.727 114.936C293.829 114.936 287.659 107.79 286.283 105.922L295.519 93.3585L318.473 78.8298L330.415 80.4934C330.359 80.5397 330.305 80.5859 330.249 80.6347C328.013 82.6124 329.251 81.531 326.552 83.9885C322.684 87.5129 325.327 93.0419 328.53 95.7649C331.969 98.6877 334.205 100.751 340.652 100.751C347.099 100.751 352.945 100.064 356.812 100.064C360.68 100.064 367.644 99.6328 369.965 104.017Z" fill="#50EEF6"/>
<path d="M337.641 81.3241C334.706 79.3098 332.636 78.6473 330.415 80.4935C330.359 80.5398 330.305 80.5861 330.249 80.6348C328.013 82.6125 329.251 81.5311 326.552 83.9887C322.684 87.5131 325.327 93.042 328.53 95.765C331.969 98.6878 334.205 100.751 340.652 100.751C347.099 100.751 352.945 100.064 356.812 100.064C360.68 100.064 367.644 99.6329 369.965 104.017C372.286 108.401 371.083 112.7 366.869 113.903C362.658 115.107 359.219 109.863 354.148 110.552C349.077 111.239 345.379 114.678 337.814 114.678C330.249 114.678 327.326 111.412 327.326 111.412C327.326 111.412 323.717 114.936 307.727 114.936C293.829 114.936 287.659 107.79 286.283 105.922C286.076 105.639 285.979 105.478 285.979 105.478" stroke="#002140" stroke-miterlimit="10" stroke-linecap="round"/>
<path d="M283.55 151.388L290.543 160.31L288.12 152.699L283.55 151.388Z" fill="#8DC8FF" stroke="#002140" stroke-linecap="round" stroke-linejoin="round"/>
<path d="M288.12 152.698L290.543 160.31L293.237 152.694L288.12 152.698Z" fill="#0185FF" stroke="#002140" stroke-linecap="round" stroke-linejoin="round"/>
<path d="M290.543 160.31L297.602 151.415L293.237 152.694L290.543 160.31Z" fill="#8DC8FF" stroke="#002140" stroke-linecap="round" stroke-linejoin="round"/>
<path d="M296.318 148.609L293.873 147.645L296.257 148.633L296.318 148.609Z" stroke="#002140" stroke-linecap="round" stroke-linejoin="round"/>
<path d="M288.251 149.883L290.487 152.521L293.069 149.851H293.006L292.833 149.915L288.251 149.883Z" stroke="#002140" stroke-linecap="round" stroke-linejoin="round"/>
<path d="M284.927 149.004L287.182 147.571L293.675 147.567L293.873 147.645L293.617 147.537L287.124 147.545L284.759 149.026L284.927 149.004Z" stroke="#002140" stroke-linecap="round" stroke-linejoin="round"/>
<path d="M297.602 151.415L296.279 148.641L284.79 149.018L283.602 151.342L290.711 152.628L297.602 151.415Z" fill="#8DC8FF" stroke="#002140" stroke-linecap="round" stroke-linejoin="round"/>
<path d="M290.487 152.521L288.251 149.883L288.21 149.881L288.173 149.871L283.843 151.308L288.173 149.871L283.55 151.388L288.12 152.699L293.237 152.694L297.602 151.415L293.069 149.851L290.487 152.521Z" fill="#0185FF" stroke="#002140" stroke-linecap="round" stroke-linejoin="round"/>
<path d="M293.006 149.851H293.069L296.279 148.641L296.257 148.633L293.006 149.851Z" stroke="#002140" stroke-linecap="round" stroke-linejoin="round"/>
<path d="M288.173 149.871L288.21 149.881L288.251 149.883L288.227 149.854L288.173 149.871Z" stroke="#002140" stroke-linecap="round" stroke-linejoin="round"/>
<path d="M287.104 149.586L288.173 149.871L288.227 149.854L287.104 149.586Z" stroke="#002140" stroke-linecap="round" stroke-linejoin="round"/>
<path d="M287.182 147.572L284.927 149.004L287.104 149.586L288.227 149.854L293.006 149.851L296.257 148.633L293.873 147.645L293.675 147.567L287.182 147.572Z" fill="#8DC8FF" stroke="#002140" stroke-linecap="round" stroke-linejoin="round"/>
<path d="M281.736 106.769L281.731 111.641H281.409H279.349H279.222L279.217 106.769H279.349H281.409H281.736Z" fill="#FFED8F"/>
<path d="M281.726 121.383L281.724 126.255H281.41H279.349H279.237L279.232 121.383H279.349H281.41H281.726Z" fill="#FFED8F"/>
<path d="M281.409 106.769H279.217V105.25C279.217 105.25 280.345 105.478 281.736 105.478V106.769H281.409Z" fill="#FFED8F"/>
<path d="M281.729 116.512L281.726 121.383H281.41H279.349H279.232L279.227 116.512H279.349H281.41H281.729Z" fill="#FFED8F"/>
<path d="M281.731 111.641L281.729 116.512H281.41H279.349H279.227L279.222 111.641H279.349H281.41H281.731Z" fill="#FFED8F"/>
<path d="M299.677 77.5415H299.967V82.4128H297.546V77.5415H299.677Z" fill="#FFED8F"/>
<path d="M299.967 87.2839V92.1552H299.677H297.616H297.546V87.2839H297.616H299.677H299.967Z" fill="#FFED8F"/>
<path d="M299.131 137.887L299.246 137.931C298.513 139.785 297.261 141.378 295.67 142.532L295.607 142.444L294.316 140.467L294.311 140.462C295.602 139.544 296.579 138.223 297.107 136.669L297.154 136.684L299.131 137.887Z" fill="#FFED8F"/>
<path d="M282.206 136.704L282.023 136.769L280.046 137.717L279.904 137.768C279.478 136.64 279.244 135.42 279.244 134.146V131.126H279.349H281.721V133.985C281.721 134.94 281.889 135.856 282.206 136.704Z" fill="#FFED8F"/>
<path d="M287.438 141.587L287.642 141.665C287.051 142.303 286.666 143.134 286.593 144.054H286.585C285.514 143.725 284.515 143.226 283.619 142.583L283.658 142.53L285.031 140.552L285.097 140.459C285.801 140.956 286.59 141.341 287.438 141.587Z" fill="#FFED8F"/>
<path d="M299.967 121.383V126.255H299.677H297.616H297.546V121.383H297.616H299.677H299.967Z" fill="#FFED8F"/>
<path d="M299.967 92.1553V97.0266H299.677H297.616H297.546V92.1553H297.616H299.677H299.967Z" fill="#FFED8F"/>
<path d="M299.967 82.4128V87.2841H299.677H297.616H297.546V82.4128H297.616H299.677H299.967Z" fill="#FFED8F"/>
<path d="M299.967 101.898V106.769H299.677H297.616H297.546V101.898H297.616H299.677H299.967Z" fill="#FFED8F"/>
<path d="M299.967 111.641V116.512H299.677H297.616H297.546V111.641H297.616H299.677H299.967Z" fill="#FFED8F"/>
<path d="M299.967 97.0266V101.898H299.677H297.616H297.546V97.0266H297.616H299.677H299.967Z" fill="#FFED8F"/>
<path d="M290.446 141.826C291.359 141.767 292.217 141.553 292.998 141.209C293.464 141.005 293.904 140.754 294.311 140.462L294.316 140.467L295.607 142.444L295.67 142.532C295.271 142.822 294.852 143.085 294.414 143.316C293.98 143.545 293.529 143.742 293.064 143.911C292.212 144.215 291.311 144.41 290.375 144.48L290.363 144.249L290.275 141.928L290.266 141.862C290.324 141.855 290.385 141.85 290.446 141.845V141.826Z" fill="#FFED8F"/>
<path d="M285.097 140.459L285.031 140.552L283.658 142.53L283.619 142.583C281.945 141.395 280.635 139.719 279.904 137.768L280.046 137.717L282.023 136.769L282.206 136.704C282.766 138.231 283.787 139.539 285.097 140.459Z" fill="#FFED8F"/>
<path d="M299.967 106.769V111.641H299.677H297.616H297.546V106.769H297.616H299.677H299.967Z" fill="#FFED8F"/>
<path d="M299.967 126.255V131.126H299.677H297.616H297.546V126.255H297.616H299.677H299.967Z" fill="#FFED8F"/>
<path d="M290.363 144.249L290.375 144.481C290.122 144.498 289.864 144.507 289.605 144.507C289.301 144.507 289.055 144.49 288.814 144.461C288.57 144.429 288.332 144.388 288.042 144.334C288.064 143.056 289.031 142.013 290.265 141.862L290.275 141.928L290.363 144.249Z" fill="#FFED8F"/>
<path d="M293.113 144.417C293.113 144.254 293.103 144.093 293.074 143.937L293.064 143.911C293.529 143.743 293.98 143.545 294.414 143.316L294.448 143.38C294.535 143.718 294.579 144.074 294.574 144.439C294.54 146.648 292.723 148.409 290.514 148.375C288.307 148.341 286.546 146.524 286.58 144.315C286.583 144.227 286.585 144.14 286.593 144.054C286.666 143.134 287.051 142.303 287.642 141.665C288.385 140.861 289.457 140.362 290.638 140.381C291.525 140.396 292.336 140.696 292.991 141.192L292.998 141.21C292.217 141.553 291.359 141.767 290.446 141.826V141.845C290.385 141.85 290.324 141.855 290.266 141.862C289.031 142.013 288.064 143.056 288.042 144.334V144.339C288.02 145.74 289.138 146.892 290.538 146.914C291.939 146.936 293.091 145.818 293.113 144.417Z" fill="#FED607"/>
<path d="M299.967 74.933V77.5416H297.546V76.3433C297.616 76.4114 297.555 76.3091 297.555 74.7041C297.555 73.099 298.357 72.9285 298.759 72.9285C299.847 72.9285 299.967 74.0172 299.967 74.933Z" fill="#FFED8F"/>
<path d="M299.967 131.126V134.146C299.967 135.481 299.711 136.757 299.246 137.931L299.131 137.887L297.154 136.684L297.107 136.67C297.392 135.832 297.546 134.928 297.546 133.985V131.126H299.967Z" fill="#FFED8F"/>
<path d="M299.967 116.512V121.383H299.677H297.616H297.546V116.512H297.616H299.677H299.967Z" fill="#FFED8F"/>
<path d="M297.154 136.684L299.131 137.887" stroke="#FED607" stroke-linecap="round" stroke-linejoin="round"/>
<path d="M294.316 140.467L295.607 142.444" stroke="#FED607" stroke-linecap="round" stroke-linejoin="round"/>
<path d="M290.275 141.928L290.363 144.249" stroke="#FED607" stroke-linecap="round" stroke-linejoin="round"/>
<path d="M285.031 140.552L283.658 142.53" stroke="#FED607" stroke-linecap="round" stroke-linejoin="round"/>
<path d="M282.023 136.769L280.046 137.717" stroke="#FED607" stroke-linecap="round" stroke-linejoin="round"/>
<path d="M279.349 126.255H281.41" stroke="#FED607" stroke-linecap="round" stroke-linejoin="round"/>
<path d="M297.616 77.5415H299.677" stroke="#FED607" stroke-linecap="round" stroke-linejoin="round"/>
<path d="M297.616 82.4128H299.677" stroke="#FED607" stroke-linecap="round" stroke-linejoin="round"/>
<path d="M297.616 87.2839H299.677" stroke="#FED607" stroke-linecap="round" stroke-linejoin="round"/>
<path d="M297.616 92.1553H299.677" stroke="#FED607" stroke-linecap="round" stroke-linejoin="round"/>
<path d="M297.616 97.0266H299.677" stroke="#FED607" stroke-linecap="round" stroke-linejoin="round"/>
<path d="M297.616 101.898H299.677" stroke="#FED607" stroke-linecap="round" stroke-linejoin="round"/>
<path d="M297.616 106.769H299.677" stroke="#FED607" stroke-linecap="round" stroke-linejoin="round"/>
<path d="M297.616 111.641H299.677" stroke="#FED607" stroke-linecap="round" stroke-linejoin="round"/>
<path d="M297.616 116.512H299.677" stroke="#FED607" stroke-linecap="round" stroke-linejoin="round"/>
<path d="M297.616 121.383H299.677" stroke="#FED607" stroke-linecap="round" stroke-linejoin="round"/>
<path d="M297.616 126.255H299.677" stroke="#FED607" stroke-linecap="round" stroke-linejoin="round"/>
<path d="M297.616 131.126H299.677" stroke="#FED607" stroke-linecap="round" stroke-linejoin="round"/>
<path d="M279.349 106.769H281.41" stroke="#FED607" stroke-linecap="round" stroke-linejoin="round"/>
<path d="M279.349 111.641H281.41" stroke="#FED607" stroke-linecap="round" stroke-linejoin="round"/>
<path d="M279.349 116.512H281.41" stroke="#FED607" stroke-linecap="round" stroke-linejoin="round"/>
<path d="M279.349 121.383H281.41" stroke="#FED607" stroke-linecap="round" stroke-linejoin="round"/>
<path d="M279.349 131.126H281.41" stroke="#FED607" stroke-linecap="round" stroke-linejoin="round"/>
<path d="M289.932 141.843C290.105 141.843 290.278 141.838 290.446 141.826C291.359 141.767 292.216 141.553 292.998 141.21C293.464 141.005 293.904 140.754 294.311 140.462C295.602 139.544 296.579 138.223 297.107 136.67C297.392 135.832 297.546 134.928 297.546 133.985V76.3433C297.616 76.4114 297.555 76.3091 297.555 74.7041C297.555 73.099 298.357 72.9285 298.759 72.9285C299.847 72.9285 299.967 74.0172 299.967 74.933V134.146C299.967 135.481 299.711 136.757 299.246 137.931C298.513 139.785 297.261 141.378 295.67 142.532C295.271 142.822 294.852 143.085 294.413 143.316C293.98 143.545 293.529 143.743 293.064 143.911C292.212 144.215 291.31 144.41 290.375 144.481C290.122 144.498 289.864 144.507 289.605 144.507C289.301 144.507 289.055 144.49 288.814 144.461C288.57 144.43 288.332 144.388 288.042 144.335" stroke="#002140" stroke-miterlimit="10" stroke-linecap="round"/>
<path d="M286.585 144.054C285.514 143.726 284.515 143.226 283.619 142.583C281.945 141.395 280.635 139.719 279.904 137.768C279.478 136.64 279.244 135.42 279.244 134.146V131.126L279.237 126.255L279.232 121.383L279.227 116.512L279.222 111.641L279.217 106.769V105.25C279.217 105.25 280.345 105.478 281.736 105.478V106.769L281.731 111.641V116.512L281.726 121.383V126.255L281.721 131.126V133.985C281.721 134.94 281.889 135.856 282.206 136.704C282.766 138.231 283.787 139.539 285.097 140.459C285.801 140.956 286.59 141.341 287.438 141.587" stroke="#002140" stroke-miterlimit="10" stroke-linecap="round"/>
<path d="M293.074 143.937C293.103 144.093 293.115 144.254 293.113 144.417C293.091 145.818 291.939 146.936 290.538 146.914C289.138 146.892 288.02 145.74 288.042 144.339V144.334C288.064 143.056 289.031 142.013 290.266 141.862C290.324 141.855 290.385 141.85 290.446 141.845C290.502 141.843 290.56 141.843 290.616 141.843" stroke="#002140" stroke-miterlimit="10" stroke-linecap="round"/>
<path d="M294.448 143.38C294.535 143.718 294.579 144.074 294.574 144.439C294.54 146.648 292.723 148.409 290.514 148.375C288.307 148.341 286.546 146.524 286.58 144.315C286.583 144.227 286.585 144.14 286.593 144.054C286.666 143.134 287.051 142.303 287.642 141.665C288.385 140.861 289.457 140.362 290.638 140.381C291.525 140.396 292.336 140.696 292.991 141.192" stroke="#002140" stroke-miterlimit="10" stroke-linecap="round"/>
<path d="M290.107 118.361C290.158 117.64 290.994 117.398 291.91 117.398H295.777C296.81 117.398 297.497 117.63 297.497 118.66H297.553C297.555 119.172 297.555 119.761 297.555 120.436C297.555 120.842 297.538 121.244 297.504 121.639C297.49 120.747 296.657 120.445 295.692 120.35C294.664 120.253 292.782 120.073 291.841 119.983C290.899 119.893 290.161 119.749 289.876 120.782L289.832 120.774C289.964 120.107 290.044 119.31 290.08 118.358H290.107V118.361Z" fill="#FED607"/>
<path d="M297.495 116.074H297.534C297.543 116.583 297.551 117.389 297.553 118.66H297.497C297.497 117.63 296.81 117.399 295.777 117.399H291.91C290.994 117.399 290.158 117.64 290.107 118.361H290.08C290.097 117.937 290.105 117.484 290.105 116.999V115.996C290.105 115.221 290.965 114.963 291.91 114.963H295.777C296.778 114.963 297.453 115.126 297.495 116.074Z" fill="#FED607"/>
<path d="M297.534 116.073H297.495C297.453 115.126 296.779 114.963 295.777 114.963H291.91C290.965 114.963 290.105 115.221 290.105 115.995V113.56C290.105 112.785 290.965 112.527 291.91 112.527H295.777C296.81 112.527 297.497 112.7 297.497 113.733V115.279C297.497 115.279 297.519 114.96 297.534 116.073Z" fill="#FED607"/>
<path d="M297.497 111.297V113.733C297.497 112.7 296.81 112.527 295.777 112.527H291.91C290.965 112.527 290.105 112.785 290.105 113.56V111.124C290.105 110.35 290.965 110.092 291.91 110.092H295.777C296.81 110.092 297.497 110.264 297.497 111.297Z" fill="#FED607"/>
<path d="M297.497 108.861V111.297C297.497 110.264 296.81 110.091 295.777 110.091H291.91C290.965 110.091 290.105 110.35 290.105 111.124V108.688C290.105 107.914 290.965 107.656 291.91 107.656H295.777C296.81 107.656 297.497 107.829 297.497 108.861Z" fill="#FED607"/>
<path d="M297.497 106.426V108.862C297.497 107.829 296.81 107.656 295.777 107.656H291.91C290.965 107.656 290.105 107.914 290.105 108.689V106.253C290.105 105.478 290.965 105.22 291.91 105.22H295.777C296.81 105.22 297.497 105.393 297.497 106.426Z" fill="#FED607"/>
<path d="M297.497 103.99V106.426C297.497 105.393 296.81 105.22 295.777 105.22H291.91C290.965 105.22 290.105 105.478 290.105 106.253V103.817C290.105 103.043 290.965 102.784 291.91 102.784H295.777C296.81 102.784 297.497 102.957 297.497 103.99Z" fill="#FED607"/>
<path d="M297.497 101.555V103.99C297.497 102.957 296.81 102.785 295.777 102.785H291.91C290.965 102.785 290.105 103.043 290.105 103.817V101.382C290.105 100.607 290.965 100.349 291.91 100.349H295.777C296.81 100.349 297.497 100.522 297.497 101.555Z" fill="#FED607"/>
<path d="M297.497 99.119V101.555C297.497 100.522 296.81 100.349 295.777 100.349H291.91C290.965 100.349 290.105 100.607 290.105 101.382V98.946C290.105 98.1715 290.965 97.9133 291.91 97.9133H295.777C296.81 97.9133 297.497 98.0863 297.497 99.119Z" fill="#FED607"/>
<path d="M297.497 96.6834V99.1191C297.497 98.0864 296.81 97.9134 295.777 97.9134H291.91C290.965 97.9134 290.105 98.1716 290.105 98.9462V96.5105C290.105 95.736 290.965 95.4778 291.91 95.4778H295.777C296.81 95.4778 297.497 95.6507 297.497 96.6834Z" fill="#FED607"/>
<path d="M297.497 94.2476V96.6833C297.497 95.6506 296.81 95.4776 295.777 95.4776H291.91C290.965 95.4776 290.105 95.7358 290.105 96.5104V94.0747C290.105 93.3002 290.965 93.042 291.91 93.042H295.777C296.81 93.042 297.497 93.2149 297.497 94.2476Z" fill="#FED607"/>
<path d="M297.497 91.8121V94.2478C297.497 93.215 296.81 93.0421 295.777 93.0421H291.91C290.965 93.0421 290.105 93.3003 290.105 94.0748V91.6392C290.105 90.8646 290.965 90.6064 291.91 90.6064H295.777C296.81 90.6064 297.497 90.7794 297.497 91.8121Z" fill="#FED607"/>
<path d="M297.497 89.3763V91.812C297.497 90.7792 296.81 90.6063 295.777 90.6063H291.91C290.965 90.6063 290.105 90.8645 290.105 91.639V89.2034C290.105 88.4288 290.965 88.1707 291.91 88.1707H295.777C296.81 88.1707 297.497 88.3436 297.497 89.3763Z" fill="#FED607"/>
<path d="M297.497 86.9408V89.3764C297.497 88.3437 296.81 88.1708 295.777 88.1708H291.91C290.965 88.1708 290.105 88.4289 290.105 89.2035V86.7678C290.105 85.9933 290.965 85.7351 291.91 85.7351H295.777C296.81 85.7351 297.497 85.908 297.497 86.9408Z" fill="#FED607"/>
<path d="M297.497 84.505V86.9406C297.497 85.9079 296.81 85.735 295.777 85.735H291.91C290.965 85.735 290.105 85.9931 290.105 86.7677V84.332C290.105 83.5575 290.965 83.2993 291.91 83.2993H295.777C296.81 83.2993 297.497 83.4723 297.497 84.505Z" fill="#FED607"/>
<path d="M297.497 82.0694V84.5051C297.497 83.4724 296.81 83.2994 295.777 83.2994H291.91C290.965 83.2994 290.105 83.5576 290.105 84.3321V81.8965C290.105 81.1219 290.965 80.8638 291.91 80.8638H295.777C296.81 80.8638 297.497 81.0367 297.497 82.0694Z" fill="#FED607"/>
<path d="M297.497 79.6339V82.0695C297.497 81.0368 296.81 80.8639 295.777 80.8639H291.91C290.965 80.8639 290.105 81.1221 290.105 81.8966V79.4609C290.105 78.6864 290.965 78.4282 291.91 78.4282H295.777C296.81 78.4282 297.497 78.6012 297.497 79.6339Z" fill="#FED607"/>
<path d="M297.497 77.1981V79.6337C297.497 78.601 296.81 78.4281 295.777 78.4281H291.91C290.965 78.4281 290.105 78.6863 290.105 79.4608V77.0251C290.105 76.2506 290.965 75.9924 291.91 75.9924H295.777C296.81 75.9924 297.497 76.1654 297.497 77.1981Z" fill="#FED607"/>
<path d="M297.497 75.5637V77.1981C297.497 76.1653 296.81 75.9924 295.777 75.9924H291.91C290.965 75.9924 290.105 76.2506 290.105 77.0251V75.5637C290.105 74.4287 291.033 73.5007 292.168 73.5007H295.434C296.569 73.5007 297.497 74.4287 297.497 75.5637Z" fill="#FED607"/>
<path d="M297.504 121.639C297.407 122.764 297.171 123.836 296.783 124.827L296.696 124.793C296.696 124.277 296.067 123.863 295.091 123.532C294.114 123.2 292.209 122.428 291.313 122.126C290.465 121.839 289.674 121.866 289.206 122.606L289.169 122.582C289.464 122.124 289.681 121.534 289.832 120.774L289.876 120.782C290.161 119.749 290.899 119.893 291.841 119.983C292.782 120.073 294.664 120.253 295.692 120.351C296.657 120.446 297.49 120.748 297.504 121.639Z" fill="#FED607"/>
<path d="M289.206 122.606C289.674 121.865 290.465 121.839 291.313 122.126C292.209 122.428 294.114 123.2 295.091 123.531C296.067 123.863 296.696 124.277 296.696 124.793L296.783 124.827C296.399 125.821 295.86 126.734 295.164 127.541L294.988 127.47C294.988 127.47 291.123 123.717 290.719 123.402C290.314 123.086 289.715 122.884 289.019 123.151L288.719 123.125C288.885 122.969 289.036 122.789 289.17 122.582L289.206 122.606Z" fill="#FED607"/>
<path d="M294.988 127.47L295.164 127.541C294.389 128.437 293.417 129.202 292.234 129.801L292.204 129.745C292.204 129.745 289.922 124.864 289.657 124.425C289.391 123.987 288.904 123.585 288.156 123.59L288.13 123.536C288.346 123.424 288.541 123.288 288.719 123.125L289.019 123.152C289.715 122.884 290.314 123.086 290.719 123.402C291.123 123.717 294.988 127.47 294.988 127.47Z" fill="#FED607"/>
<path d="M292.204 129.745L292.234 129.801C291.091 130.381 289.754 130.807 288.205 131.046L288.186 130.924V126.118C288.186 124.971 287.784 123.967 286.751 123.967V123.95C287.282 123.875 287.74 123.743 288.13 123.536L288.156 123.59C288.904 123.585 289.391 123.987 289.657 124.425C289.922 124.864 292.204 129.745 292.204 129.745Z" fill="#FED607"/>
<path d="M289.876 65.8772V69.1459C289.876 70.2809 289.187 71.3793 288.156 72.5265L287.633 73.038L287.582 72.9844V67.57C287.582 66.4228 287.182 65.4193 286.149 65.4193L286.123 65.3901L287.813 63.8142C288.945 63.8142 289.876 64.7446 289.876 65.8772Z" fill="#FED607"/>
<path d="M289.876 34.2136V37.4823C289.876 38.6002 289.206 39.6841 288.198 40.8143L288.156 40.7777L287.582 41.3209V35.9064C287.582 34.7592 287.182 33.7557 286.149 33.7557L285.991 33.5901L287.467 32.1799L287.813 32.1506C288.946 32.1506 289.876 33.0811 289.876 34.2136Z" fill="#FED607"/>
<path d="M289.876 2.79371V6.06236C289.876 7.18032 289.206 8.26419 288.198 9.39433L288.156 9.3578L287.582 9.90095V4.48649C287.582 3.3393 287.182 2.33581 286.149 2.33581L285.991 2.17018L287.467 0.759941L287.813 0.730713C288.946 0.730713 289.876 1.66113 289.876 2.79371Z" fill="#FED607"/>
<path d="M288.186 130.924L288.205 131.046C287.418 131.167 286.576 131.24 285.677 131.262L285.672 131.097V126.196C285.672 125.051 285.27 124.048 284.24 124.048V124.036C284.52 124.045 284.812 124.048 285.119 124.048C285.728 124.048 286.269 124.021 286.748 123.95V123.967C287.784 123.967 288.186 124.971 288.186 126.118V130.924Z" fill="#FED607"/>
<path d="M287.582 72.9845L287.633 73.0381L285.29 75.3252L285.146 75.1766V69.7621C285.146 68.6149 284.861 67.7405 283.828 67.7405L283.724 67.6285L286.123 65.3901L286.149 65.4194C287.182 65.4194 287.582 66.4229 287.582 67.57V72.9845Z" fill="#FED607"/>
<path d="M287.582 9.90093L285.204 12.1539L285.146 12.093V6.67856C285.146 5.53137 284.861 4.65697 283.828 4.65697L283.619 4.43776L285.991 2.17017L286.149 2.33579C287.182 2.33579 287.582 3.33928 287.582 4.48647V9.90093Z" fill="#FED607"/>
<path d="M287.582 41.3209L285.204 43.5738L285.146 43.5129V38.0985C285.146 36.9513 284.861 36.0769 283.828 36.0769L283.619 35.8577L285.991 33.5901L286.149 33.7557C287.182 33.7557 287.582 34.7592 287.582 35.9064V41.3209Z" fill="#FED607"/>
<path d="M285.672 131.097L285.677 131.262C285.494 131.267 285.307 131.27 285.119 131.27C284.118 131.27 283.173 131.216 282.284 131.111L282.318 130.819C282.318 130.819 282.949 127.463 283.093 125.814C283.185 124.764 282.644 123.98 281.816 123.753L281.826 123.719C282.489 123.926 283.287 124.009 284.24 124.036V124.048C285.27 124.048 285.672 125.051 285.672 126.196V131.097Z" fill="#FED607"/>
<path d="M285.146 75.1765L285.29 75.3251L282.825 77.7315L282.71 77.6122V72.1977C282.71 71.0505 282.311 70.047 281.278 70.047L281.21 69.9764L283.723 67.6284L283.828 67.7405C284.861 67.7405 285.146 68.6149 285.146 69.7621V75.1765Z" fill="#FED607"/>
<path d="M285.146 12.093L285.204 12.1539L282.71 14.5165V9.1142C282.71 7.96701 282.311 6.96352 281.278 6.96352L281.132 6.81007L283.619 4.43774L283.828 4.65695C284.861 4.65695 285.146 5.53135 285.146 6.67855V12.093Z" fill="#FED607"/>
<path d="M285.146 43.5129L285.204 43.5738L282.71 45.9364V40.5341C282.71 39.3869 282.311 38.3834 281.278 38.3834L281.132 38.23L283.619 35.8577L283.828 36.0769C284.861 36.0769 285.146 36.9513 285.146 38.0985V43.5129Z" fill="#FED607"/>
<path d="M281.816 123.753C282.644 123.98 283.185 124.764 283.093 125.814C282.949 127.463 282.318 130.819 282.318 130.819L282.284 131.111C280.801 130.938 279.471 130.624 278.297 130.181H278.299C278.813 130.178 279.171 129.837 279.502 128.861C279.834 127.884 280.603 125.982 280.908 125.085C281.173 124.299 281.171 123.561 280.581 123.083L280.596 123.066C280.939 123.363 281.346 123.573 281.826 123.719L281.816 123.753Z" fill="#FED607"/>
<path d="M282.71 77.6121L282.825 77.7314L280.608 79.8967L280.518 79.8042V74.3897C280.518 73.2425 280.119 72.239 279.086 72.239L278.947 72.088L281.21 69.9763L281.278 70.047C282.311 70.047 282.71 71.0504 282.71 72.1976V77.6121Z" fill="#FED607"/>
<path d="M282.71 40.5341V45.9364L280.584 47.9507L280.518 47.8825V42.7262C280.518 41.579 280.119 40.5755 279.086 40.5755L278.891 40.3709L281.132 38.23L281.278 38.3834C282.311 38.3834 282.71 39.3869 282.71 40.5341Z" fill="#FED607"/>
<path d="M282.71 9.11419V14.5165L280.584 16.5308L280.518 16.4626V11.3063C280.518 10.1591 280.119 9.15559 279.086 9.15559L278.891 8.951L281.132 6.81006L281.278 6.96351C282.311 6.96351 282.71 7.96699 282.71 9.11419Z" fill="#FED607"/>
<path d="M280.581 123.083C281.171 123.561 281.173 124.299 280.908 125.085C280.603 125.982 279.834 127.884 279.502 128.861C279.171 129.837 278.813 130.178 278.299 130.178H278.297C277.184 129.764 276.209 129.233 275.376 128.6L275.661 128.576C275.661 128.576 279.317 124.893 279.631 124.489C279.924 124.116 280.119 123.578 279.936 122.949L280.338 122.815C280.418 122.906 280.503 122.991 280.596 123.066L280.581 123.083Z" fill="#FED607"/>
<path d="M280.518 79.8043L280.608 79.8968L278.528 81.9257C278.458 81.9939 278.385 82.0597 278.314 82.123L278.083 81.9964V76.5819C278.083 75.4347 277.683 74.4312 276.65 74.4312L276.551 74.3241L278.947 72.0881L279.086 72.2391C280.119 72.2391 280.518 73.2426 280.518 74.3898V79.8043Z" fill="#FED607"/>
<path d="M280.518 16.4625L280.584 16.5307L278.082 18.9006V13.4983C278.082 12.3511 277.683 11.3476 276.65 11.3476L276.524 11.2137L278.891 8.95093L279.086 9.15552C280.119 9.15552 280.518 10.159 280.518 11.3062V16.4625Z" fill="#FED607"/>
<path d="M280.518 47.8826L280.584 47.9508L278.082 50.3207V44.9185C278.082 43.7713 277.683 42.7678 276.65 42.7678L276.524 42.6338L278.891 40.3711L279.086 40.5757C280.119 40.5757 280.518 41.5792 280.518 42.7264V47.8826Z" fill="#FED607"/>
<path d="M279.936 122.949C280.119 123.578 279.924 124.116 279.632 124.489C279.317 124.893 275.661 128.576 275.661 128.576L275.377 128.6C274.302 127.777 273.462 126.786 272.868 125.648L272.968 125.595C272.968 125.595 273.314 125.996 273.974 125.653C275.308 124.964 278.273 123.631 278.609 123.427C279.03 123.171 279.417 122.711 279.442 122.012L279.814 122.024C279.965 122.331 280.138 122.591 280.338 122.815L279.936 122.949Z" fill="#FED607"/>
<path d="M279.442 122.012C279.417 122.711 279.03 123.171 278.609 123.427C278.272 123.631 275.308 124.964 273.974 125.653C273.313 125.996 272.968 125.594 272.968 125.594L272.868 125.648C272.252 124.469 271.896 123.134 271.811 121.673L271.874 121.668C271.986 122.694 272.705 122.789 273.754 122.674C274.804 122.56 276.731 122.35 277.693 122.243C278.655 122.138 279.502 121.787 279.417 121.018L279.454 121.008C279.551 121.393 279.673 121.729 279.814 122.024L279.442 122.012Z" fill="#FED607"/>
<path d="M279.454 121.008L279.417 121.018C279.502 121.788 278.655 122.138 277.693 122.243C276.731 122.35 274.804 122.56 273.754 122.674C272.705 122.789 271.986 122.694 271.874 121.668L271.811 121.673C271.796 121.437 271.789 121.196 271.789 120.952V119.145C271.886 119.975 272.541 120.122 273.484 120.122H277.327C278.268 120.122 279.12 119.863 279.12 119.091H279.157C279.215 119.834 279.312 120.467 279.454 121.008Z" fill="#FED607"/>
<path d="M279.157 119.089H279.12C279.12 119.863 278.268 120.121 277.327 120.121H273.484C272.541 120.121 271.886 119.975 271.789 119.145V116.709C271.886 117.54 272.536 117.686 273.474 117.686H277.298C278.233 117.686 279.083 117.428 279.083 116.656V116.999C279.083 117.778 279.108 118.47 279.157 119.089Z" fill="#FED607"/>
<path d="M279.1 105.135C279.127 105.188 279.052 105.244 278.91 105.298C278.594 105.412 277.941 105.507 277.298 105.507H273.474C272.456 105.507 271.776 105.335 271.776 104.304H271.767V102.784C271.767 102.784 274.356 104.592 279.103 105.108V105.135H279.1Z" fill="#FED607"/>
<path d="M279.083 114.22V116.656C279.083 117.428 278.233 117.686 277.298 117.686H273.474C272.536 117.686 271.886 117.54 271.789 116.709V114.257C271.876 115.102 272.529 115.25 273.474 115.25H277.298C278.233 115.25 279.083 114.992 279.083 114.22Z" fill="#FED607"/>
<path d="M279.083 111.784V114.22C279.083 114.992 278.233 115.25 277.298 115.25H273.474C272.529 115.25 271.876 115.102 271.786 114.257L271.781 111.762C271.847 112.659 272.507 112.815 273.474 112.815H277.298C278.233 112.815 279.083 112.556 279.083 111.784Z" fill="#FED607"/>
<path d="M279.084 109.349V111.784C279.084 112.556 278.234 112.814 277.298 112.814H273.474C272.507 112.814 271.847 112.659 271.781 111.762L271.777 109.195C271.786 110.208 272.463 110.379 273.474 110.379H277.298C278.234 110.379 279.084 110.121 279.084 109.349Z" fill="#FED607"/>
<path d="M279.083 106.913V109.349C279.083 110.121 278.233 110.379 277.298 110.379H273.474C272.463 110.379 271.786 110.208 271.776 109.195V109.176L271.772 106.74H271.776C271.776 107.77 272.456 107.943 273.474 107.943H277.298C278.233 107.943 279.083 107.685 279.083 106.913Z" fill="#FED607"/>
<path d="M279.083 105.308V106.913C279.083 107.685 278.233 107.943 277.298 107.943H273.474C272.456 107.943 271.776 107.77 271.776 106.74H271.772L271.767 104.304H271.776C271.776 105.335 272.456 105.508 273.474 105.508H277.298C277.941 105.508 278.594 105.413 278.91 105.298L279.083 105.308Z" fill="#FED607"/>
<path d="M274.212 76.3651C274.164 76.3772 274.115 76.3918 274.069 76.4113L274.03 76.309C274.687 76.0362 275.145 75.6197 275.776 75.0474L276.55 74.324L276.65 74.4311C277.683 74.4311 278.082 75.4346 278.082 76.5818V81.9963L278.314 82.1229C277.42 82.9291 276.585 83.409 275.661 83.6915L275.647 83.6452V78.5304C275.647 77.3832 275.247 76.3797 274.215 76.3797V76.3651H274.212Z" fill="#FED607"/>
<path d="M278.082 44.9182V50.3205L275.447 52.8146L275.403 52.7683V47.3538C275.403 46.2067 275.004 45.2032 273.971 45.2032L273.905 45.135L276.523 42.6335L276.65 42.7675C277.683 42.7675 278.082 43.771 278.082 44.9182Z" fill="#FED607"/>
<path d="M278.082 13.4985V18.9008L275.447 21.3949L275.403 21.3486V15.9342C275.403 14.787 275.004 13.7835 273.971 13.7835L273.905 13.7153L276.523 11.2139L276.65 11.3478C277.683 11.3478 278.082 12.3513 278.082 13.4985Z" fill="#FED607"/>
<path d="M275.647 83.6454L275.661 83.6917C274.872 83.9352 274.015 84.0327 273.002 84.0741L272.997 83.9888V78.8447C272.997 77.8534 273.318 76.7062 274.068 76.4115C274.115 76.392 274.163 76.3774 274.212 76.3652V76.3798C275.247 76.3798 275.647 77.3833 275.647 78.5305V83.6454Z" fill="#FED607"/>
<path d="M275.447 21.3949L273.07 23.6479L272.967 23.5408V18.1263C272.967 16.9791 272.682 16.1047 271.65 16.1047L271.533 15.9805L273.905 13.7153L273.971 13.7835C275.004 13.7835 275.403 14.787 275.403 15.9342V21.3487L275.447 21.3949Z" fill="#FED607"/>
<path d="M275.447 52.8146L273.07 55.0676L272.967 54.9604V49.546C272.967 48.3988 272.682 47.5244 271.65 47.5244L271.533 47.4002L273.905 45.135L273.971 45.2032C275.004 45.2032 275.403 46.2067 275.403 47.3539V52.7683L275.447 52.8146Z" fill="#FED607"/>
<path d="M271.898 76.6988V76.6939C272.858 76.6501 273.506 76.5259 274.029 76.3091L274.068 76.4114C273.318 76.7061 272.997 77.8533 272.997 78.8446V83.9887L273.002 84.0739C272.295 84.1032 271.511 84.1032 270.619 84.1032H270.561V78.8446C270.561 77.7339 270.939 76.7597 271.898 76.6988Z" fill="#FED607"/>
<path d="M272.968 23.5407L273.07 23.6479L270.571 26.0178L270.532 25.9764V20.5619C270.532 19.4147 270.132 18.4113 269.1 18.4113L269.046 18.3552L271.533 15.9805L271.65 16.1047C272.683 16.1047 272.968 16.9791 272.968 18.1263V23.5407Z" fill="#FED607"/>
<path d="M272.968 54.9604L273.07 55.0676L270.571 57.4375L270.532 57.3961V51.9816C270.532 50.8344 270.132 49.8309 269.1 49.8309L269.046 49.7749L271.533 47.4001L271.65 47.5244C272.683 47.5244 272.968 48.3988 272.968 49.546V54.9604Z" fill="#FED607"/>
<path d="M271.898 76.6938V76.6987C270.939 76.7596 270.561 77.7339 270.561 78.8445V84.1031H268.125V78.8445C268.125 77.7753 268.476 76.8327 269.358 76.7109H271.077C271.375 76.7109 271.647 76.706 271.898 76.6938Z" fill="#FED607"/>
<path d="M270.532 57.3963L270.571 57.4377L268.34 59.5494V54.1739C268.34 53.0267 267.94 52.0233 266.908 52.0233L266.805 51.9161L269.046 49.7751L269.1 49.8312C270.132 49.8312 270.532 50.8347 270.532 51.9818V57.3963Z" fill="#FED607"/>
<path d="M270.532 25.9764L270.571 26.0178L268.34 28.1295V22.754C268.34 21.6068 267.94 20.6033 266.908 20.6033L266.805 20.4962L269.046 18.3552L269.1 18.4112C270.132 18.4112 270.532 19.4147 270.532 20.5619V25.9764Z" fill="#FED607"/>
<path d="M266.922 76.7109H269.358C268.476 76.8327 268.125 77.7753 268.125 78.8446V84.1031H265.69V78.8446C265.69 77.7753 266.04 76.8327 266.922 76.7109Z" fill="#FED607"/>
<path d="M268.34 54.1739V59.5494L265.943 61.8194L265.904 61.7804V56.366C265.904 55.2188 265.505 54.2153 264.472 54.2153L264.438 54.1787L266.805 51.916L266.908 52.0232C267.94 52.0232 268.34 53.0267 268.34 54.1739Z" fill="#FED607"/>
<path d="M268.34 22.7539V28.1294L265.943 30.3995L265.904 30.3605V24.946C265.904 23.7988 265.505 22.7953 264.472 22.7953L264.438 22.7588L266.805 20.4961L266.908 20.6033C267.94 20.6033 268.34 21.6068 268.34 22.7539Z" fill="#FED607"/>
<path d="M264.487 76.7109H266.922C266.041 76.8327 265.69 77.7753 265.69 78.8446V84.1031H263.254V78.8446C263.254 77.7753 263.605 76.8327 264.487 76.7109Z" fill="#FED607"/>
<path d="M265.943 30.3994L263.315 32.8911L263.225 32.7961V27.3817C263.225 26.2345 262.94 25.231 261.907 25.231L261.878 25.2017L264.438 22.7588L264.472 22.7953C265.505 22.7953 265.904 23.7988 265.904 24.946V30.3605L265.943 30.3994Z" fill="#FED607"/>
<path d="M265.943 61.8194L263.315 64.311L263.225 64.216V58.8016C263.225 57.6544 262.94 56.6509 261.907 56.6509L261.878 56.6217L264.438 54.1787L264.472 54.2152C265.505 54.2152 265.904 55.2187 265.904 56.3659V61.7804L265.943 61.8194Z" fill="#FED607"/>
<path d="M262.051 76.7109H264.487C263.605 76.8327 263.254 77.7753 263.254 78.8446V84.1031H261.106C261.004 84.1031 260.904 84.0958 260.806 84.0812L260.818 83.9887V78.8446C260.818 77.7753 261.169 76.8327 262.051 76.7109Z" fill="#FED607"/>
<path d="M263.225 64.2162L263.315 64.3112L260.948 66.552C260.892 66.552 260.833 66.5495 260.78 66.5447L260.789 66.4083V60.9938C260.789 59.8466 260.704 59.1452 259.674 59.1452L259.613 59.1038C259.883 58.6873 260.219 58.2683 260.604 57.8397L261.878 56.6218L261.907 56.6511C262.94 56.6511 263.225 57.6545 263.225 58.8017V64.2162Z" fill="#FED607"/>
<path d="M263.225 32.796L263.315 32.891L260.948 35.1318C260.892 35.1318 260.833 35.1294 260.78 35.1245L260.789 34.9881V29.5737C260.789 28.4265 260.704 27.725 259.674 27.725L259.613 27.6836C259.883 27.2671 260.219 26.8482 260.604 26.4195L261.878 25.2017L261.907 25.2309C262.94 25.2309 263.225 26.2344 263.225 27.3816V32.796Z" fill="#FED607"/>
<path d="M261.106 76.7109H262.051C261.169 76.8327 260.818 77.7753 260.818 78.8446V83.9887L260.806 84.0812C259.813 83.9351 259.043 83.0729 259.043 82.0401V78.7739C259.043 77.6389 259.971 76.7109 261.106 76.7109Z" fill="#FED607"/>
<path d="M260.789 60.9936V66.408L260.78 66.5444C259.723 66.4592 258.885 65.5677 258.885 64.4887V61.2225C258.885 60.5089 259.155 59.8099 259.613 59.1035L259.674 59.1449C260.704 59.1449 260.789 59.8464 260.789 60.9936Z" fill="#FED607"/>
<path d="M260.789 29.5737V34.9881L260.78 35.1245C259.723 35.0393 258.885 34.1478 258.885 33.0688V29.8026C258.885 29.089 259.155 28.3899 259.613 27.6836L259.674 27.725C260.704 27.725 260.789 28.4265 260.789 29.5737Z" fill="#FED607"/>
<path d="M286.149 65.4194C287.182 65.4194 287.581 66.4229 287.581 67.5701V72.9846" stroke="#D18000" stroke-miterlimit="10" stroke-linecap="round"/>
<path d="M283.828 67.7405C284.861 67.7405 285.146 68.6149 285.146 69.7621V75.1765" stroke="#D18000" stroke-miterlimit="10" stroke-linecap="round"/>
<path d="M281.278 70.0469C282.311 70.0469 282.71 71.0504 282.71 72.1976V77.612" stroke="#D18000" stroke-miterlimit="10" stroke-linecap="round"/>
<path d="M279.086 72.239C280.119 72.239 280.518 73.2425 280.518 74.3897V79.8042" stroke="#D18000" stroke-miterlimit="10" stroke-linecap="round"/>
<path d="M276.65 74.4312C277.683 74.4312 278.082 75.4346 278.082 76.5818V81.9963" stroke="#D18000" stroke-miterlimit="10" stroke-linecap="round"/>
<path d="M274.215 76.3796C275.247 76.3796 275.647 77.3831 275.647 78.5303V83.6452" stroke="#D18000" stroke-miterlimit="10" stroke-linecap="round"/>
<path d="M262.251 76.6963C262.18 76.6963 262.114 76.7012 262.051 76.7109C261.169 76.8327 260.818 77.7753 260.818 78.8445V83.9886" stroke="#D18000" stroke-miterlimit="10" stroke-linecap="round"/>
<path d="M264.686 76.6963C264.616 76.6963 264.55 76.7012 264.487 76.7109C263.605 76.8327 263.254 77.7753 263.254 78.8445V83.9886" stroke="#D18000" stroke-miterlimit="10" stroke-linecap="round"/>
<path d="M267.122 76.6963C267.051 76.6963 266.985 76.7012 266.922 76.7109C266.04 76.8327 265.69 77.7753 265.69 78.8445V83.9886" stroke="#D18000" stroke-miterlimit="10" stroke-linecap="round"/>
<path d="M269.558 76.6963C269.487 76.6963 269.421 76.7012 269.358 76.7109C268.476 76.8327 268.125 77.7753 268.125 78.8445V83.9886" stroke="#D18000" stroke-miterlimit="10" stroke-linecap="round"/>
<path d="M271.993 76.6963C271.962 76.6963 271.93 76.6963 271.898 76.6987C270.939 76.7596 270.561 77.7339 270.561 78.8445V83.9886" stroke="#D18000" stroke-miterlimit="10" stroke-linecap="round"/>
<path d="M274.458 76.3381C274.373 76.3381 274.29 76.3479 274.212 76.3649C274.163 76.3771 274.115 76.3917 274.068 76.4112C273.318 76.7059 272.997 77.8531 272.997 78.8444V83.9885" stroke="#D18000" stroke-miterlimit="10" stroke-linecap="round"/>
<path d="M286.149 33.7559C287.182 33.7559 287.581 34.7593 287.581 35.9065V41.321" stroke="#D18000" stroke-miterlimit="10" stroke-linecap="round"/>
<path d="M283.828 36.0769C284.861 36.0769 285.146 36.9513 285.146 38.0985V43.513" stroke="#D18000" stroke-miterlimit="10" stroke-linecap="round"/>
<path d="M281.278 38.3835C282.311 38.3835 282.71 39.387 282.71 40.5342V45.9487" stroke="#D18000" stroke-miterlimit="10" stroke-linecap="round"/>
<path d="M279.086 40.5757C280.119 40.5757 280.518 41.5792 280.518 42.7264V47.8826" stroke="#D18000" stroke-miterlimit="10" stroke-linecap="round"/>
<path d="M276.65 42.7676C277.683 42.7676 278.082 43.7711 278.082 44.9183V50.3327" stroke="#D18000" stroke-miterlimit="10" stroke-linecap="round"/>
<path d="M273.971 45.2034C275.004 45.2034 275.403 46.2069 275.403 47.3541V52.7685" stroke="#D18000" stroke-miterlimit="10" stroke-linecap="round"/>
<path d="M271.65 47.5247C272.683 47.5247 272.968 48.3991 272.968 49.5463V54.9607" stroke="#D18000" stroke-miterlimit="10" stroke-linecap="round"/>
<path d="M269.1 49.8311C270.132 49.8311 270.532 50.8345 270.532 51.9817V57.3962" stroke="#D18000" stroke-miterlimit="10" stroke-linecap="round"/>
<path d="M266.908 52.0232C267.94 52.0232 268.34 53.0267 268.34 54.1739V59.5883" stroke="#D18000" stroke-miterlimit="10" stroke-linecap="round"/>
<path d="M264.472 54.2153C265.505 54.2153 265.904 55.2188 265.904 56.366V61.7805" stroke="#D18000" stroke-miterlimit="10" stroke-linecap="round"/>
<path d="M261.907 56.6509C262.94 56.6509 263.225 57.6544 263.225 58.8016V64.216" stroke="#D18000" stroke-miterlimit="10" stroke-linecap="round"/>
<path d="M259.674 59.145C260.704 59.145 260.789 59.8465 260.789 60.9937V66.4081" stroke="#D18000" stroke-miterlimit="10" stroke-linecap="round"/>
<path d="M286.149 2.33594C287.182 2.33594 287.581 3.33943 287.581 4.48662V9.90108" stroke="#D18000" stroke-miterlimit="10" stroke-linecap="round"/>
<path d="M283.828 4.65698C284.861 4.65698 285.146 5.53138 285.146 6.67857V12.093" stroke="#D18000" stroke-miterlimit="10" stroke-linecap="round"/>
<path d="M281.278 6.96338C282.311 6.96338 282.71 7.96687 282.71 9.11406V14.5285" stroke="#D18000" stroke-miterlimit="10" stroke-linecap="round"/>
<path d="M279.086 9.15552C280.119 9.15552 280.518 10.159 280.518 11.3062V16.4625" stroke="#D18000" stroke-miterlimit="10" stroke-linecap="round"/>
<path d="M276.65 11.3477C277.683 11.3477 278.082 12.3511 278.082 13.4983V18.9128" stroke="#D18000" stroke-miterlimit="10" stroke-linecap="round"/>
<path d="M273.971 13.7834C275.004 13.7834 275.403 14.7869 275.403 15.9341V21.3486" stroke="#D18000" stroke-miterlimit="10" stroke-linecap="round"/>
<path d="M271.65 16.1045C272.683 16.1045 272.968 16.9789 272.968 18.1261V23.5405" stroke="#D18000" stroke-miterlimit="10" stroke-linecap="round"/>
<path d="M269.1 18.4111C270.132 18.4111 270.532 19.4146 270.532 20.5618V25.9763" stroke="#D18000" stroke-miterlimit="10" stroke-linecap="round"/>
<path d="M266.908 20.603C267.94 20.603 268.34 21.6065 268.34 22.7537V28.1682" stroke="#D18000" stroke-miterlimit="10" stroke-linecap="round"/>
<path d="M264.472 22.7952C265.505 22.7952 265.904 23.7987 265.904 24.9458V30.3603" stroke="#D18000" stroke-miterlimit="10" stroke-linecap="round"/>
<path d="M261.907 25.231C262.94 25.231 263.225 26.2344 263.225 27.3816V32.7961" stroke="#D18000" stroke-miterlimit="10" stroke-linecap="round"/>
<path d="M259.674 27.7251C260.704 27.7251 260.789 28.4266 260.789 29.5738V34.9882" stroke="#D18000" stroke-miterlimit="10" stroke-linecap="round"/>
<path d="M290.105 77.0251C290.105 76.2506 290.965 75.9924 291.91 75.9924H295.777C296.81 75.9924 297.497 76.1654 297.497 77.1981" stroke="#D18000" stroke-miterlimit="10" stroke-linecap="round"/>
<path d="M290.105 79.4609C290.105 78.6864 290.965 78.4282 291.91 78.4282H295.777C296.81 78.4282 297.497 78.6012 297.497 79.6339" stroke="#D18000" stroke-miterlimit="10" stroke-linecap="round"/>
<path d="M290.105 81.8965C290.105 81.1219 290.965 80.8638 291.91 80.8638H295.777C296.81 80.8638 297.497 81.0367 297.497 82.0694" stroke="#D18000" stroke-miterlimit="10" stroke-linecap="round"/>
<path d="M290.105 84.332C290.105 83.5575 290.965 83.2993 291.91 83.2993H295.777C296.81 83.2993 297.497 83.4723 297.497 84.505" stroke="#D18000" stroke-miterlimit="10" stroke-linecap="round"/>
<path d="M290.105 86.7678C290.105 85.9933 290.965 85.7351 291.91 85.7351H295.777C296.81 85.7351 297.497 85.908 297.497 86.9408" stroke="#D18000" stroke-miterlimit="10" stroke-linecap="round"/>
<path d="M290.105 89.2034C290.105 88.4288 290.965 88.1707 291.91 88.1707H295.777C296.81 88.1707 297.497 88.3436 297.497 89.3763" stroke="#D18000" stroke-miterlimit="10" stroke-linecap="round"/>
<path d="M290.105 91.6392C290.105 90.8646 290.965 90.6064 291.91 90.6064H295.777C296.81 90.6064 297.497 90.7794 297.497 91.8121" stroke="#D18000" stroke-miterlimit="10" stroke-linecap="round"/>
<path d="M290.105 94.0747C290.105 93.3002 290.965 93.042 291.91 93.042H295.777C296.81 93.042 297.497 93.2149 297.497 94.2476" stroke="#D18000" stroke-miterlimit="10" stroke-linecap="round"/>
<path d="M290.105 96.5105C290.105 95.736 290.965 95.4778 291.91 95.4778H295.777C296.81 95.4778 297.497 95.6507 297.497 96.6834" stroke="#D18000" stroke-miterlimit="10" stroke-linecap="round"/>
<path d="M290.105 98.946C290.105 98.1715 290.965 97.9133 291.91 97.9133H295.777C296.81 97.9133 297.497 98.0863 297.497 99.119" stroke="#D18000" stroke-miterlimit="10" stroke-linecap="round"/>
<path d="M290.105 101.382C290.105 100.607 290.965 100.349 291.91 100.349H295.777C296.81 100.349 297.497 100.522 297.497 101.555" stroke="#D18000" stroke-miterlimit="10" stroke-linecap="round"/>
<path d="M290.105 103.817C290.105 103.043 290.965 102.784 291.91 102.784H295.777C296.81 102.784 297.497 102.957 297.497 103.99" stroke="#D18000" stroke-miterlimit="10" stroke-linecap="round"/>
<path d="M290.105 106.253C290.105 105.478 290.965 105.22 291.91 105.22H295.777C296.81 105.22 297.497 105.393 297.497 106.426" stroke="#D18000" stroke-miterlimit="10" stroke-linecap="round"/>
<path d="M290.105 108.688C290.105 107.914 290.965 107.656 291.91 107.656H295.777C296.81 107.656 297.497 107.829 297.497 108.861" stroke="#D18000" stroke-miterlimit="10" stroke-linecap="round"/>
<path d="M290.105 111.124C290.105 110.35 290.965 110.092 291.91 110.092H295.777C296.81 110.092 297.497 110.264 297.497 111.297" stroke="#D18000" stroke-miterlimit="10" stroke-linecap="round"/>
<path d="M290.105 113.56C290.105 112.785 290.965 112.527 291.91 112.527H295.777C296.81 112.527 297.497 112.7 297.497 113.733" stroke="#D18000" stroke-miterlimit="10" stroke-linecap="round"/>
<path d="M290.105 115.996C290.105 115.221 290.965 114.963 291.91 114.963H295.777C296.779 114.963 297.453 115.126 297.495 116.074C297.497 116.105 297.497 116.137 297.497 116.169" stroke="#D18000" stroke-miterlimit="10" stroke-linecap="round"/>
<path d="M290.105 118.431C290.105 118.407 290.105 118.382 290.107 118.361C290.158 117.64 290.994 117.398 291.91 117.398H295.777C296.81 117.398 297.497 117.63 297.497 118.66" stroke="#D18000" stroke-miterlimit="10" stroke-linecap="round"/>
<path d="M289.876 120.782C290.161 119.749 290.899 119.893 291.841 119.983C292.781 120.073 294.664 120.253 295.692 120.351C296.657 120.446 297.49 120.748 297.504 121.639C297.504 121.693 297.502 121.751 297.497 121.812" stroke="#D18000" stroke-miterlimit="10" stroke-linecap="round"/>
<path d="M296.696 124.793C296.696 124.277 296.067 123.863 295.091 123.531C294.114 123.2 292.209 122.428 291.313 122.126C290.465 121.839 289.674 121.865 289.206 122.606C289.177 122.645 289.155 122.686 289.131 122.73" stroke="#D18000" stroke-miterlimit="10" stroke-linecap="round"/>
<path d="M286.751 123.968C287.784 123.968 288.186 124.971 288.186 126.118V130.924" stroke="#D18000" stroke-miterlimit="10" stroke-linecap="round"/>
<path d="M284.24 124.048C285.27 124.048 285.672 125.051 285.672 126.196V131.097" stroke="#D18000" stroke-miterlimit="10" stroke-linecap="round"/>
<path d="M281.66 123.717C281.714 123.726 281.765 123.738 281.816 123.753C282.644 123.98 283.185 124.764 283.093 125.814C282.949 127.463 282.318 130.819 282.318 130.819" stroke="#D18000" stroke-miterlimit="10" stroke-linecap="round"/>
<path d="M288.156 123.59C288.904 123.585 289.391 123.987 289.657 124.425C289.922 124.864 292.204 129.745 292.204 129.745" stroke="#D18000" stroke-miterlimit="10" stroke-linecap="round"/>
<path d="M279.12 119.091C279.12 119.863 278.268 120.122 277.327 120.122H273.484C272.541 120.122 271.886 119.976 271.789 119.145C271.781 119.074 271.777 118.999 271.777 118.918" stroke="#D18000" stroke-miterlimit="10" stroke-linecap="round"/>
<path d="M279.084 116.656C279.084 117.428 278.234 117.686 277.298 117.686H273.474C272.537 117.686 271.886 117.54 271.789 116.709C271.781 116.639 271.777 116.563 271.777 116.483" stroke="#D18000" stroke-miterlimit="10" stroke-linecap="round"/>
<path d="M279.084 114.22C279.084 114.992 278.234 115.25 277.298 115.25H273.474C272.529 115.25 271.876 115.102 271.786 114.257C271.779 114.191 271.777 114.123 271.777 114.047" stroke="#D18000" stroke-miterlimit="10" stroke-linecap="round"/>
<path d="M279.084 111.784C279.084 112.556 278.234 112.815 277.298 112.815H273.474C272.507 112.815 271.847 112.659 271.781 111.762C271.781 111.714 271.777 111.665 271.777 111.611" stroke="#D18000" stroke-miterlimit="10" stroke-linecap="round"/>
<path d="M279.084 109.349C279.084 110.121 278.234 110.379 277.298 110.379H273.474C272.463 110.379 271.786 110.208 271.777 109.195" stroke="#D18000" stroke-miterlimit="10" stroke-linecap="round"/>
<path d="M279.084 106.913C279.084 107.685 278.234 107.943 277.298 107.943H273.474C272.456 107.943 271.777 107.77 271.777 106.74" stroke="#D18000" stroke-miterlimit="10" stroke-linecap="round"/>
<path d="M279.101 105.135C279.127 105.189 279.052 105.245 278.911 105.298C278.594 105.413 277.941 105.508 277.298 105.508H273.474C272.456 105.508 271.777 105.335 271.777 104.304" stroke="#D18000" stroke-miterlimit="10" stroke-linecap="round"/>
<path d="M289.019 123.152C289.715 122.884 290.314 123.086 290.719 123.402C291.123 123.717 294.988 127.47 294.988 127.47" stroke="#D18000" stroke-miterlimit="10" stroke-linecap="round"/>
<path d="M278.299 130.178C278.813 130.178 279.171 129.837 279.503 128.861C279.834 127.884 280.603 125.982 280.908 125.085C281.173 124.299 281.171 123.561 280.582 123.083C280.501 123.018 280.409 122.957 280.304 122.901" stroke="#D18000" stroke-miterlimit="10" stroke-linecap="round"/>
<path d="M279.444 121.926C279.444 121.955 279.444 121.982 279.441 122.012C279.417 122.711 279.03 123.171 278.609 123.427C278.272 123.631 275.308 124.964 273.973 125.653C273.313 125.996 272.968 125.594 272.968 125.594" stroke="#D18000" stroke-miterlimit="10" stroke-linecap="round"/>
<path d="M279.882 122.789C279.904 122.842 279.921 122.896 279.936 122.949C280.119 123.578 279.924 124.116 279.632 124.489C279.317 124.893 275.661 128.576 275.661 128.576" stroke="#D18000" stroke-miterlimit="10" stroke-linecap="round"/>
<path d="M279.417 121.018C279.502 121.787 278.655 122.138 277.693 122.243C276.731 122.35 274.804 122.56 273.754 122.674C272.705 122.789 271.986 122.694 271.874 121.668" stroke="#D18000" stroke-miterlimit="10" stroke-linecap="round"/>
<path d="M278.314 82.123C278.384 82.0597 278.457 81.9939 278.528 81.9257L280.608 79.8968L282.825 77.7315L285.289 75.3251L287.633 73.038L288.156 72.5265C289.186 71.3793 289.876 70.2809 289.876 69.1459V65.8772C289.876 64.7446 288.945 63.8142 287.813 63.8142L286.122 65.3901L283.723 67.6284L281.21 69.9764L278.947 72.0881L276.55 74.3241L275.776 75.0474C275.145 75.6198 274.687 76.0363 274.029 76.3091C273.506 76.5259 272.858 76.6501 271.898 76.6939C271.647 76.7061 271.375 76.711 271.077 76.711H261.106C259.971 76.711 259.043 77.639 259.043 78.774V82.0402C259.043 83.0729 259.813 83.9351 260.806 84.0813C260.904 84.0959 261.004 84.1032 261.106 84.1032H270.62C271.511 84.1032 272.295 84.1032 273.002 84.074C274.015 84.0326 274.872 83.9351 275.661 83.6916C276.584 83.409 277.42 82.9292 278.314 82.123Z" stroke="#002140" stroke-miterlimit="10" stroke-linecap="round"/>
<path d="M271.776 109.176L271.772 106.74L271.767 104.304V102.784C271.767 102.784 274.356 104.592 279.103 105.108C279.568 105.159 280.055 105.198 280.562 105.22" stroke="#002140" stroke-miterlimit="10" stroke-linecap="round"/>
<path d="M271.777 109.195V109.176" stroke="#D18000" stroke-miterlimit="10" stroke-linecap="round"/>
<path d="M279.084 105.308V116.999C279.084 117.778 279.108 118.47 279.157 119.089C279.215 119.834 279.313 120.467 279.454 121.008C279.551 121.393 279.673 121.729 279.814 122.024C279.965 122.331 280.138 122.591 280.338 122.815C280.418 122.906 280.504 122.991 280.596 123.066C280.94 123.363 281.346 123.573 281.826 123.719C282.489 123.926 283.288 124.009 284.24 124.036C284.52 124.045 284.812 124.048 285.119 124.048C285.728 124.048 286.269 124.021 286.749 123.95C287.282 123.875 287.74 123.743 288.13 123.536C288.346 123.424 288.541 123.288 288.719 123.125C288.885 122.969 289.036 122.789 289.17 122.582C289.464 122.124 289.681 121.534 289.832 120.774C289.964 120.107 290.044 119.311 290.081 118.358C290.098 117.937 290.105 117.484 290.105 116.999V75.5637C290.105 74.4287 291.033 73.5007 292.168 73.5007H295.434C296.569 73.5007 297.497 74.4287 297.497 75.5637V115.279C297.497 115.279 297.519 114.96 297.534 116.074C297.543 116.583 297.551 117.389 297.553 118.66C297.556 119.172 297.556 119.761 297.556 120.436C297.556 120.843 297.539 121.244 297.504 121.639C297.407 122.764 297.171 123.836 296.783 124.827C296.399 125.821 295.86 126.734 295.164 127.541C294.389 128.437 293.417 129.202 292.234 129.801C291.091 130.381 289.754 130.807 288.205 131.045C287.418 131.167 286.576 131.24 285.677 131.262C285.494 131.267 285.307 131.27 285.119 131.27C284.118 131.27 283.173 131.216 282.284 131.111C280.801 130.938 279.471 130.624 278.297 130.181C277.184 129.764 276.21 129.233 275.377 128.6C274.302 127.777 273.462 126.786 272.868 125.648C272.252 124.469 271.896 123.134 271.811 121.673C271.796 121.437 271.789 121.196 271.789 120.952V114.257L271.781 111.762L271.777 109.195" stroke="#002140" stroke-miterlimit="10" stroke-linecap="round"/>
<path d="M288.156 40.863C288.171 40.8459 288.186 40.8313 288.198 40.8143C289.206 39.6841 289.876 38.6002 289.876 37.4823V34.2136C289.876 33.0811 288.945 32.1506 287.813 32.1506" stroke="#002140" stroke-miterlimit="10" stroke-linecap="round"/>
<path d="M287.467 32.1799L285.991 33.5902L283.619 35.8578L281.132 38.2301L278.891 40.371L276.524 42.6338L273.905 45.1352L271.533 47.4003L269.046 49.7751L266.805 51.916L264.438 54.1788L261.878 56.6217L260.604 57.8395C260.219 58.2682 259.883 58.6872 259.613 59.1037C259.155 59.81 258.885 60.509 258.885 61.2227V64.4889C258.885 65.5679 259.723 66.4593 260.78 66.5446C260.833 66.5494 260.892 66.5519 260.948 66.5519L263.315 64.3111L265.943 61.8194L268.34 59.5494L270.571 57.4377L273.07 55.0678L275.447 52.8148L278.082 50.3207L280.584 47.9508L282.71 45.9365L285.204 43.5739L287.582 41.3209L288.156 40.7778" stroke="#002140" stroke-miterlimit="10" stroke-linecap="round"/>
<path d="M288.156 9.44305C288.171 9.426 288.186 9.41138 288.198 9.39433C289.206 8.26419 289.876 7.18032 289.876 6.06236V2.79371C289.876 1.66113 288.945 0.730713 287.813 0.730713" stroke="#002140" stroke-miterlimit="10" stroke-linecap="round"/>
<path d="M287.467 0.76001L285.991 2.17025L283.619 4.43785L281.132 6.81017L278.891 8.95111L276.524 11.2138L273.905 13.7153L271.533 15.9804L269.046 18.3552L266.805 20.4961L264.438 22.7588L261.878 25.2018L260.604 26.4196C260.219 26.8483 259.883 27.2672 259.613 27.6837C259.155 28.3901 258.885 29.0891 258.885 29.8027V33.069C258.885 34.148 259.723 35.0394 260.78 35.1247C260.833 35.1295 260.892 35.132 260.948 35.132L263.315 32.8912L265.943 30.3995L268.34 28.1295L270.571 26.0177L273.07 23.6478L275.447 21.3949L278.082 18.9008L280.584 16.5309L282.71 14.5166L285.204 12.154L287.582 9.90102L288.156 9.35787" stroke="#002140" stroke-miterlimit="10" stroke-linecap="round"/>
</g>
<defs>
<clipPath id="clip0_4940_17451">
<rect width="163.692" height="190" fill="white" transform="translate(258.154)"/>
</clipPath>
</defs>
</svg>
