<?xml version="1.0" encoding="UTF-8"?>
<svg id="Layer_1" data-name="Layer 1" xmlns="http://www.w3.org/2000/svg" xmlns:xlink="http://www.w3.org/1999/xlink" version="1.1" viewBox="0 0 235 148">
  <defs>
    <style>
      .cls-1 {
        fill: #0164bf;
      }

      .cls-1, .cls-2, .cls-3, .cls-4 {
        stroke-width: 0px;
      }

      .cls-5 {
        clip-path: url(#clippath);
      }

      .cls-2 {
        fill: none;
      }

      .cls-6 {
        opacity: .3;
      }

      .cls-3 {
        fill: #fff;
      }

      .cls-4 {
        fill: #003c73;
      }
    </style>
    <clipPath id="clippath">
      <rect class="cls-2" x="156.4" y="16.5" width="64.4" height="33.4"/>
    </clipPath>
  </defs>
  <rect class="cls-4" x="0" width="235" height="148" rx="16" ry="16"/>
  <g class="cls-5">
    <g>
      <path class="cls-3" d="M188.3,17.1l-4.3,20h-5.2l4.3-20h5.2ZM210,30l2.7-7.5,1.6,7.5h-4.3ZM215.8,37.1h4.8l-4.2-20h-4.4c-1,0-1.8.6-2.2,1.5l-7.8,18.5h5.4l1.1-3h6.6l.6,3ZM202.3,30.5c0-5.3-7.3-5.6-7.3-7.9,0-.7.7-1.5,2.2-1.7.7,0,2.8-.2,5.1.9l.9-4.2c-1.2-.5-2.8-.9-4.8-.9-5.1,0-8.7,2.7-8.7,6.6,0,2.9,2.6,4.5,4.5,5.4,2,1,2.7,1.6,2.7,2.5,0,1.3-1.6,1.9-3.1,2-2.6,0-4.1-.7-5.3-1.3l-.9,4.4c1.2.6,3.4,1,5.8,1.1,5.4,0,9-2.7,9-6.8ZM180.9,17.1l-8.4,20h-5.5l-4.1-16c-.3-1-.5-1.3-1.2-1.8-1.2-.7-3.3-1.3-5.1-1.7v-.6h8.9c1.1,0,2.1.7,2.4,2l2.2,11.6,5.4-13.6h5.4Z"/>
      <path class="cls-3" d="M173.6,48.7c-.3.2-1,.3-1.8.3-1.9,0-3.4-1.2-3.4-3.5s1.5-3.6,3.6-3.6,1.4.2,1.6.3l-.2.7c-.3-.2-.8-.3-1.4-.3-1.6,0-2.7,1-2.7,2.8s1,2.8,2.6,2.8,1.1-.1,1.5-.3l.2.7Z"/>
      <path class="cls-3" d="M175.3,46.5c0,1.1.6,1.9,1.5,1.9s1.5-.8,1.5-1.9-.4-1.9-1.5-1.9c-1,0-1.5,1-1.5,1.9ZM179.2,46.4c0,1.8-1.3,2.6-2.5,2.6s-2.4-1-2.4-2.5,1.1-2.6,2.4-2.6c1.4,0,2.4,1,2.4,2.5Z"/>
      <path class="cls-3" d="M180.6,45.3c0-.5,0-.9,0-1.3h.8v.8h0c.3-.5.7-.9,1.6-.9s1.2.4,1.4,1h0c.2-.3.4-.5.6-.6.3-.2.6-.3,1.1-.3s1.6.4,1.6,2.1v2.9h-.9v-2.8c0-1-.4-1.5-1.1-1.5s-.9.4-1.1.8c0,.1,0,.3,0,.4v3h-.9v-3c0-.8-.3-1.3-1-1.3s-1,.4-1.1.9c0,.1,0,.3,0,.4v3h-.9v-3.6h0Z"/>
      <path class="cls-3" d="M189.4,45.3c0-.5,0-.9,0-1.3h.8v.8h0c.3-.5.7-.9,1.6-.9s1.2.4,1.4,1h0c.2-.3.4-.5.6-.6.3-.2.6-.3,1.1-.3s1.6.4,1.6,2.1v2.9h-.9v-2.8c0-1-.4-1.5-1.1-1.5s-.9.4-1.1.8c0,.1,0,.3,0,.4v3h-.9v-3c0-.8-.3-1.3-1-1.3s-1,.4-1.1.9c0,.1,0,.3,0,.4v3h-.9v-3.6Z"/>
      <path class="cls-3" d="M201.2,46c0-.6-.2-1.4-1.2-1.4s-1.3.8-1.4,1.4h2.6ZM198.6,46.6c0,1.2.8,1.7,1.7,1.7s1-.1,1.4-.3l.2.6c-.3.1-.9.3-1.6.3-1.5,0-2.4-1-2.4-2.5s.9-2.6,2.3-2.6,2,1.4,2,2.3,0,.3,0,.4h-3.5Z"/>
      <path class="cls-3" d="M203.5,45.5c0-.6,0-1.1,0-1.5h.8v1h0c.2-.7.8-1.1,1.4-1.1s.2,0,.2,0v.8c0,0-.2,0-.3,0-.6,0-1.1.5-1.2,1.1,0,.1,0,.3,0,.4v2.6h-.9v-3.4Z"/>
      <path class="cls-3" d="M210.5,48.8c-.2.1-.8.3-1.4.3-1.5,0-2.5-1-2.5-2.5s1-2.6,2.6-2.6,1,.1,1.2.3l-.2.7c-.2-.1-.6-.2-1-.2-1.1,0-1.7.8-1.7,1.9s.7,1.8,1.7,1.8.8-.1,1.1-.2l.2.7Z"/>
      <path class="cls-3" d="M211.8,48.9v-4.9h.9v4.9h-.9ZM212.8,42.6c0,.3-.2.5-.6.5s-.5-.2-.5-.5.2-.6.6-.6.5.2.5.6Z"/>
      <path class="cls-3" d="M217,46.4c-1,0-2.1.2-2.1,1.1s.4.9.8.9c.7,0,1.1-.4,1.2-.8,0-.1,0-.2,0-.3v-.9ZM217.9,47.8c0,.4,0,.8,0,1.2h-.8v-.6h-.1c-.3.4-.8.7-1.5.7-1,0-1.5-.7-1.5-1.4,0-1.2,1.1-1.8,3-1.8h0c0-.5-.1-1.2-1.1-1.2-.5,0-.9.1-1.3.4l-.2-.6c.4-.3,1-.4,1.6-.4,1.5,0,1.9,1,1.9,2v1.8h0Z"/>
      <path class="cls-3" d="M219.6,41.7h.9v7.2h-.9v-7.2Z"/>
    </g>
  </g>
  <g class="cls-6">
    <path class="cls-1" d="M40,73.2h-3.8c-1,0-1.8.8-1.8,1.8v6.8c0,1,.8,1.8,1.8,1.8h3.8c1,0,1.8-.8,1.8-1.8v-6.8c0-1-.8-1.8-1.8-1.8Z"/>
    <path class="cls-1" d="M40.1,62.9h-3.8c-1,0-1.8.8-1.8,1.8v5c0,1,.8,1.8,1.8,1.8h3.8c1,0,1.8-.8,1.8-1.8v-5c0-1-.8-1.8-1.8-1.8Z"/>
    <path class="cls-1" d="M49.6,74.9h-3.8c-1,0-1.8.8-1.8,1.8v5c0,1,.8,1.8,1.8,1.8h3.8c1,0,1.8-.8,1.8-1.8v-5c0-1-.8-1.8-1.8-1.8Z"/>
    <path class="cls-1" d="M49.4,62.9h-3.8c-1,0-1.8.8-1.8,1.8v7.2c0,1,.8,1.8,1.8,1.8h3.8c1,0,1.8-.8,1.8-1.8v-7.2c0-1-.8-1.8-1.8-1.8Z"/>
    <path class="cls-1" d="M32.6,81.8v-17.4c0-.9-.8-1.6-1.7-1.6h-6.2c-.5,0-1,.2-1.3.6l-2.1,2.6c-.2.3-.4.6-.4,1v12.7c0,.3.1.7.3.9l1.6,2.2c.3.4.8.7,1.4.7h6.7c.9,0,1.7-.8,1.7-1.7h0Z"/>
  </g>
</svg>