<?xml version="1.0" encoding="UTF-8"?>
<svg id="Layer_1" data-name="Layer 1" xmlns="http://www.w3.org/2000/svg" xmlns:xlink="http://www.w3.org/1999/xlink" version="1.1" viewBox="0 0 235 148">
  <defs>
    <style>
      .cls-1 {
        clip-path: url(#clippath);
      }

      .cls-2 {
        fill: none;
      }

      .cls-2, .cls-3, .cls-4, .cls-5 {
        stroke-width: 0px;
      }

      .cls-3 {
        fill: #afbbb0;
      }

      .cls-4 {
        fill: #fafafa;
      }

      .cls-5 {
        fill: #cc2427;
      }
    </style>
    <clipPath id="clippath">
      <rect class="cls-2" x="168" y="18.7" width="52" height="46.2"/>
    </clipPath>
  </defs>
  <rect class="cls-4" x="0" width="235" height="148" rx="16" ry="16"/>
  <g class="cls-1">
    <path class="cls-5" d="M173.8,19.3c6.8-.5,13.7-.7,20.6-.5,4.9.2,9.8.5,14.6,1.5,2.7.6,5.4,1.4,7.8,2.9,1.4.9,2.8,2.2,3.1,3.9.4,2-.5,4-1.5,5.7-1.9,3.1-4.5,5.6-7.1,8-3.3,3-6.9,5.7-10.6,8.3-3.6,2.5-7.2,5-10.8,7.3-4.7,3-9.4,5.8-14.3,8.5h-6.6c3.4-2.3,6.5-4.9,9.6-7.6,3.8-3.3,7.5-6.7,11.2-10.2.7-.7,1.5-1.3,2-2.2,1.7-2.4,3.3-5.2,3.2-8.3,0-2.1-1.2-4-2.7-5.4-2.6-2.2-5.8-3.3-9-4.2-3.2-.8-6.6-1.3-9.9-1.6-1.8-.1-3.6-.4-5.4-.4v-5.2c1.9-.2,3.9-.3,5.8-.5Z"/>
  </g>
  <path class="cls-3" d="M40,73.2h-3.8c-1,0-1.8.8-1.8,1.8v6.8c0,1,.8,1.8,1.8,1.8h3.8c1,0,1.8-.8,1.8-1.8v-6.8c0-1-.8-1.8-1.8-1.8Z"/>
  <path class="cls-3" d="M40.1,62.9h-3.8c-1,0-1.8.8-1.8,1.8v5c0,1,.8,1.8,1.8,1.8h3.8c1,0,1.8-.8,1.8-1.8v-5c0-1-.8-1.8-1.8-1.8Z"/>
  <path class="cls-3" d="M49.6,74.9h-3.8c-1,0-1.8.8-1.8,1.8v5c0,1,.8,1.8,1.8,1.8h3.8c1,0,1.8-.8,1.8-1.8v-5c0-1-.8-1.8-1.8-1.8Z"/>
  <path class="cls-3" d="M49.4,62.9h-3.8c-1,0-1.8.8-1.8,1.8v7.2c0,1,.8,1.8,1.8,1.8h3.8c1,0,1.8-.8,1.8-1.8v-7.2c0-1-.8-1.8-1.8-1.8Z"/>
  <path class="cls-3" d="M32.6,81.8v-17.4c0-.9-.8-1.6-1.7-1.6h-6.2c-.5,0-1,.2-1.3.6l-2.1,2.6c-.2.3-.4.6-.4,1v12.7c0,.3.1.7.3.9l1.6,2.2c.3.4.8.7,1.4.7h6.7c.9,0,1.7-.8,1.7-1.7h0Z"/>
</svg>