<?xml version="1.0" encoding="UTF-8"?>
<svg id="Layer_1" data-name="Layer 1" xmlns="http://www.w3.org/2000/svg" version="1.1" viewBox="0 0 235 148">
  <defs>
    <style>
      .cls-1 {
        fill: #e31837;
      }

      .cls-1, .cls-2, .cls-3, .cls-4 {
        stroke-width: 0px;
      }

      .cls-2 {
        fill: #afbbb0;
      }

      .cls-3 {
        fill: #012169;
      }

      .cls-4 {
        fill: #fff;
      }
    </style>
  </defs>
  <rect class="cls-4" x="0" width="235" height="148" rx="16" ry="16"/>
  <path class="cls-1" d="M192.5,51c9-7.7,21.7-15.2,28.7-17.9-1.1-.7-2.8-1.7-4.6-2.7-9,3-19.5,9.5-28.9,16.9,1.6,1.2,3.3,2.4,4.8,3.7Z"/>
  <path class="cls-3" d="M188.4,30.1c-1.3-.6-2.8-1.2-3.9-1.8-3.4,1.7-7.8,4.2-13.4,8.2,1.2.6,2.5,1.4,3.9,2.2,4.3-3.2,8.6-6.2,13.5-8.6Z"/>
  <path class="cls-1" d="M196.4,26.4c-1.6-.9-7.3-3-11.2-3.9-1.2.4-2.8,1.1-3.9,1.5,1.4.4,6.7,1.8,11.2,4.1,1.2-.6,2.8-1.2,3.9-1.7Z"/>
  <path class="cls-3" d="M177.2,25.8c-5,2.3-10.3,5.5-13.2,7.3,1,.5,2.1.9,3.5,1.5,6.4-4.3,11.4-6.9,13.3-7.8-1.4-.5-2.8-.9-3.6-1.1Z"/>
  <path class="cls-1" d="M200.2,25c1.2-.4,2.5-.7,3.7-1.1-3.4-1.4-7.6-2.9-11.4-3.9-.6.2-2.4.6-3.7,1,1.3.4,5.5,1.4,11.4,3.9ZM179,41.2c1.4.8,2.8,1.9,4.3,2.9,9.4-7.3,18.7-12.9,28.9-16.1-1.4-.7-2.7-1.4-4.3-2.1-6.1,1.5-16.6,5.7-28.9,15.4Z"/>
  <path class="cls-2" d="M40,73.2h-3.8c-1,0-1.8.8-1.8,1.8v6.8c0,1,.8,1.8,1.8,1.8h3.8c1,0,1.8-.8,1.8-1.8v-6.8c0-1-.8-1.8-1.8-1.8Z"/>
  <path class="cls-2" d="M40.1,62.9h-3.8c-1,0-1.8.8-1.8,1.8v5c0,1,.8,1.8,1.8,1.8h3.8c1,0,1.8-.8,1.8-1.8v-5c0-1-.8-1.8-1.8-1.8Z"/>
  <path class="cls-2" d="M49.6,74.9h-3.8c-1,0-1.8.8-1.8,1.8v5c0,1,.8,1.8,1.8,1.8h3.8c1,0,1.8-.8,1.8-1.8v-5c0-1-.8-1.8-1.8-1.8Z"/>
  <path class="cls-2" d="M49.4,62.9h-3.8c-1,0-1.8.8-1.8,1.8v7.2c0,1,.8,1.8,1.8,1.8h3.8c1,0,1.8-.8,1.8-1.8v-7.2c0-1-.8-1.8-1.8-1.8Z"/>
  <path class="cls-2" d="M32.6,81.8v-17.4c0-.9-.8-1.6-1.7-1.6h-6.2c-.5,0-1,.2-1.3.6l-2.1,2.6c-.2.3-.4.6-.4,1v12.7c0,.3.1.7.3.9l1.6,2.2c.3.4.8.7,1.4.7h6.7c.9,0,1.7-.8,1.7-1.7h0Z"/>
</svg>