<?xml version="1.0" encoding="utf-8"?>
<!-- Generator: Adobe Illustrator 28.1.0, SVG Export Plug-In . SVG Version: 6.00 Build 0)  -->
<svg version="1.1" id="Layer_1" xmlns="http://www.w3.org/2000/svg" xmlns:xlink="http://www.w3.org/1999/xlink" x="0px" y="0px"
	 viewBox="0 0 40 40" style="enable-background:new 0 0 40 40;" xml:space="preserve">
<style type="text/css">
	.st0{fill:#0281C4;}
	.st1{fill-rule:evenodd;clip-rule:evenodd;fill:#4DA7D5;}
	.st2{fill:#FFFFFF;}
	.st3{fill:#EE1C25;}
</style>
<path class="st0" d="M4,7h32c2.209,0,4,1.791,4,4v18c0,2.209-1.791,4-4,4H4c-2.209,0-4-1.791-4-4V11C0,8.791,1.791,7,4,7z"/>
<path class="st1" d="M2.941,17.621c0-0.053,0.014-0.106,0.042-0.151l0.461-0.768c0.053-0.088,0.149-0.143,0.252-0.143h2.088
	c0.162,0,0.294,0.132,0.294,0.294v4.118c0,0.162-0.132,0.294-0.294,0.294H3.696c-0.103,0-0.199-0.054-0.252-0.143l-0.461-0.768
	c-0.027-0.046-0.042-0.098-0.042-0.151V17.621z M6.471,16.853c0-0.163,0.132-0.294,0.294-0.294h0.98
	c0.162,0,0.294,0.132,0.294,0.294v1.569c0,0.162-0.132,0.294-0.294,0.294h-0.98c-0.162,0-0.294-0.132-0.294-0.294V16.853z
	 M8.726,16.559c-0.162,0-0.294,0.132-0.294,0.294v2.157c0,0.162,0.132,0.294,0.294,0.294h0.98c0.162,0,0.294-0.132,0.294-0.294
	v-2.157c0-0.163-0.132-0.294-0.294-0.294H8.726z M6.471,19.402c0-0.162,0.132-0.294,0.294-0.294h0.98
	c0.162,0,0.294,0.132,0.294,0.294v1.569c0,0.163-0.132,0.294-0.294,0.294h-0.98c-0.162,0-0.294-0.132-0.294-0.294V19.402z
	 M8.726,19.696c-0.162,0-0.294,0.132-0.294,0.294v0.98c0,0.163,0.132,0.294,0.294,0.294h0.98c0.162,0,0.294-0.132,0.294-0.294v-0.98
	c0-0.162-0.132-0.294-0.294-0.294H8.726z"/>
<path class="st2" d="M29.737,15.695l-0.019,0.019c-0.302,0.307-0.651,0.47-1.01,0.47c-0.751,0-1.296-0.563-1.296-1.341
	c0-0.776,0.545-1.34,1.296-1.34c0.36,0,0.709,0.163,1.01,0.472l0.019,0.018l0.483-0.584l-0.013-0.016
	c-0.402-0.475-0.884-0.705-1.476-0.705c-0.594,0-1.138,0.2-1.529,0.561c-0.426,0.391-0.65,0.942-0.65,1.595
	c0,0.652,0.224,1.205,0.65,1.596C27.593,16.801,28.137,17,28.731,17c0.592,0,1.075-0.231,1.476-0.706l0.013-0.014L29.737,15.695z"/>
<path class="st2" d="M30.707,16.921h0.853v-4.165h-0.853V16.921z"/>
<path class="st2" d="M34.903,16.015c-0.228,0.139-0.439,0.209-0.63,0.209c-0.276,0-0.401-0.146-0.401-0.47v-2.21h0.87v-0.784h-0.87
	v-1.296l-0.836,0.448v0.848h-0.722v0.784h0.722v2.351c0,0.64,0.379,1.079,0.946,1.09c0.384,0.008,0.616-0.107,0.757-0.191
	l0.009-0.006l0.205-0.803L34.903,16.015z"/>
<path class="st2" d="M35.609,16.921h0.854v-4.165h-0.854V16.921z"/>
<path class="st3" d="M36.962,12.025c-0.779-1.104-2.074-1.763-3.391-1.763c-1.316,0-2.611,0.659-3.389,1.763l-0.04,0.057h0.982
	l0.011-0.012c0.668-0.69,1.54-1.054,2.437-1.054s1.769,0.364,2.438,1.054l0.011,0.012h0.981L36.962,12.025z"/>
</svg>
