<?xml version="1.0" encoding="utf-8"?>
<!-- Generator: Adobe Illustrator 28.1.0, SVG Export Plug-In . SVG Version: 6.00 Build 0)  -->
<svg version="1.1" id="Layer_1" xmlns="http://www.w3.org/2000/svg" xmlns:xlink="http://www.w3.org/1999/xlink" x="0px" y="0px"
	 viewBox="0 0 40 40" style="enable-background:new 0 0 40 40;" xml:space="preserve">
<style type="text/css">
	.st0{fill:#DD1E25;}
	.st1{fill-rule:evenodd;clip-rule:evenodd;fill:#E66166;}
	.st2{fill:#FFFFFF;}
</style>
<path class="st0" d="M4,7h32c2.209,0,4,1.791,4,4v18c0,2.209-1.791,4-4,4H4c-2.209,0-4-1.791-4-4V11C0,8.791,1.791,7,4,7z"/>
<path class="st1" d="M2.941,17.621c0-0.053,0.014-0.106,0.042-0.151l0.461-0.768c0.053-0.088,0.149-0.143,0.252-0.143h2.088
	c0.162,0,0.294,0.132,0.294,0.294v4.118c0,0.162-0.132,0.294-0.294,0.294H3.696c-0.103,0-0.199-0.054-0.252-0.143l-0.461-0.768
	c-0.027-0.046-0.042-0.098-0.042-0.151V17.621z M6.471,16.853c0-0.163,0.132-0.294,0.294-0.294h0.98
	c0.162,0,0.294,0.132,0.294,0.294v1.569c0,0.162-0.132,0.294-0.294,0.294h-0.98c-0.162,0-0.294-0.132-0.294-0.294V16.853z
	 M8.726,16.559c-0.162,0-0.294,0.132-0.294,0.294v2.157c0,0.162,0.132,0.294,0.294,0.294h0.98c0.162,0,0.294-0.132,0.294-0.294
	v-2.157c0-0.163-0.132-0.294-0.294-0.294H8.726z M6.471,19.402c0-0.162,0.132-0.294,0.294-0.294h0.98
	c0.162,0,0.294,0.132,0.294,0.294v1.569c0,0.163-0.132,0.294-0.294,0.294h-0.98c-0.162,0-0.294-0.132-0.294-0.294V19.402z
	 M8.726,19.696c-0.162,0-0.294,0.132-0.294,0.294v0.98c0,0.163,0.132,0.294,0.294,0.294h0.98c0.162,0,0.294-0.132,0.294-0.294v-0.98
	c0-0.162-0.132-0.294-0.294-0.294H8.726z"/>
<path class="st2" d="M25.889,15.372c0-0.174-0.022-0.326-0.087-0.457c-0.087-0.109-0.239-0.13-0.478-0.13H24.78v0.652h0.174
	c0.261,0,0.304-0.065,0.304-0.391h0.218v1.087h-0.218c0-0.37-0.043-0.457-0.304-0.457H24.78v0.565c0,0.196,0.022,0.196,0.217,0.196
	h0.239v0.26h-1.326v-0.26h0.13c0.174,0,0.239-0.022,0.239-0.196v-1.283c0-0.174-0.065-0.195-0.239-0.195h-0.13v-0.239h2.218v0.848
	L25.889,15.372z M30.889,16.089h-0.195c0,0.239,0,0.348-0.13,0.348c-0.065,0-0.13-0.066-0.13-0.196v-0.109
	c-0.022-0.304-0.087-0.435-0.457-0.544c0.413-0.043,0.652-0.239,0.652-0.543c0-0.37-0.261-0.522-0.805-0.522h-1.5v0.239h0.174
	c0.196,0,0.217,0.022,0.217,0.195v1.283c0,0.152-0.087,0.196-0.217,0.196h-0.152c-0.13,0-0.196-0.044-0.261-0.196l-0.696-1.717
	h-0.522l-0.74,1.717c-0.065,0.152-0.109,0.196-0.282,0.196h-0.087v0.26h1.131v-0.26H26.65c-0.109,0-0.174,0-0.174-0.066
	c0-0.022,0.022-0.065,0.043-0.109l0.109-0.261h0.826l0.109,0.239c0.022,0.043,0.022,0.087,0.022,0.108
	c0,0.087-0.065,0.087-0.174,0.087h-0.239v0.26h2.457v-0.26h-0.196c-0.196,0-0.217,0-0.217-0.196v-0.566h0.217
	c0.37,0,0.478,0.066,0.5,0.435v0.239c0.022,0.305,0.218,0.392,0.522,0.392c0.261,0,0.435-0.152,0.435-0.566
	C30.889,16.154,30.889,16.11,30.889,16.089z M26.715,15.741l0.348-0.826l0.326,0.826H26.715z M29.672,15.415l-0.457,0.022v-0.674
	h0.457c0.304,0,0.457,0.087,0.457,0.326v0.022C30.128,15.328,29.976,15.415,29.672,15.415z M32.824,15.219
	c-0.109-0.326-0.326-0.478-0.674-0.478c-0.348,0-0.631,0.282-0.631,0.847c0,0.566,0.218,0.848,0.631,0.87
	c0.283,0,0.543-0.152,0.543-0.391v-0.131c0-0.152-0.022-0.152-0.239-0.152h-0.109v-0.239h1.022v0.239h-0.087
	c-0.152,0-0.174,0-0.174,0.174v0.718h-0.196l-0.109-0.174c-0.196,0.152-0.478,0.239-0.739,0.239c-0.304,0-0.543-0.109-0.739-0.326
	c-0.217-0.218-0.348-0.5-0.348-0.826c0-0.348,0.109-0.609,0.326-0.826c0.196-0.196,0.478-0.282,0.783-0.282
	c0.239,0,0.522,0.065,0.674,0.239l0.108-0.239h0.174v0.739H32.824z M34.802,16.719c-0.717,0-1.283-0.435-1.283-1.131
	c0-0.674,0.565-1.108,1.283-1.108c0.718,0,1.261,0.435,1.261,1.13C36.063,16.284,35.52,16.719,34.802,16.719z M35.541,15.611
	c0-0.783-0.522-0.87-0.739-0.87c-0.413,0-0.739,0.304-0.739,0.87c0,0.565,0.326,0.87,0.739,0.87
	C35.02,16.48,35.541,16.372,35.541,15.611z M31.389,13.024c-0.065,0.13-0.218,0.152-0.479,0.152h-0.543v-1.457
	c0-0.174,0.043-0.196,0.261-0.196h0.152v-0.261h-1.304v0.261h0.109c0.196,0,0.304,0,0.304,0.196v1.283
	c0,0.174-0.087,0.196-0.283,0.196h-0.109v0.239h2.239v-0.87h-0.261C31.476,12.763,31.454,12.893,31.389,13.024z M28.541,13.176
	h-0.696v-0.739h0.152c0.261,0,0.304,0.043,0.326,0.413h0.239v-1.087h-0.239c-0.022,0.326-0.065,0.413-0.326,0.413h-0.152v-0.652
	h0.587c0.435,0,0.565,0.087,0.587,0.587h0.239v-0.848h-3.218v0.261h0.152c0.13,0,0.174,0.022,0.174,0.087
	c0,0.044,0,0.087-0.022,0.174l-0.413,1.087h-0.022c-0.196-0.543-0.457-1.174-0.457-1.174c-0.022-0.043-0.022-0.065-0.022-0.087
	c0-0.065,0.043-0.087,0.152-0.087h0.174v-0.261h-1.152v0.261h0.152c0.174,0,0.239,0.087,0.261,0.261l-0.435,1.087h-0.022
	c-0.196-0.587-0.457-1.196-0.457-1.196c-0.022-0.022,0-0.043,0-0.065c-0.022-0.065,0.043-0.087,0.174-0.087h0.087v-0.261H23.28
	v0.261h0.043c0.152,0,0.282,0.087,0.348,0.283l0.652,1.63h0.391l0.478-1.196l0.5,1.196h0.391l0.609-1.652
	c0.087-0.196,0.13-0.261,0.326-0.261h0.022c0.196,0,0.304,0,0.304,0.196v1.283c0,0.174-0.109,0.196-0.304,0.196h-0.13v0.239h2.391
	v-0.87h-0.261C29.02,13.002,28.933,13.176,28.541,13.176z M33.802,12.567c0,0.196-0.022,0.326-0.087,0.457
	c-0.065,0.13-0.218,0.152-0.478,0.152h-0.522v-1.457c0-0.174,0.044-0.196,0.239-0.196h0.174v-0.261h-1.326v0.261h0.152
	c0.174,0,0.261,0,0.261,0.196v1.283c0,0.174-0.065,0.196-0.261,0.196h-0.044v0.239h2.152v-0.87H33.802z M36.28,12.806
	c0,0.5-0.391,0.674-0.956,0.674c-0.348,0-0.695-0.196-0.761-0.261l-0.087,0.217h-0.217v-0.87h0.261
	c0.065,0.413,0.348,0.587,0.739,0.609c0.348,0.022,0.587-0.065,0.609-0.304c0.044-0.283-0.261-0.261-0.521-0.304l-0.37-0.065
	c-0.543-0.109-0.739-0.261-0.739-0.631c-0.022-0.391,0.348-0.652,0.826-0.652c0.239,0,0.543,0.043,0.761,0.218l0.109-0.174h0.195
	v0.761h-0.239c-0.043-0.413-0.478-0.544-0.826-0.544c-0.261,0.022-0.413,0.152-0.413,0.326c0,0.174,0.152,0.196,0.348,0.239
	l0.457,0.065C35.933,12.197,36.28,12.285,36.28,12.806z"/>
</svg>
