<svg xmlns="http://www.w3.org/2000/svg" xml:space="preserve" id="Layer_1" x="0" y="0" viewBox="0 0 40 40"><style>.st0{fill:#15181d}.st1{fill-rule:evenodd;clip-rule:evenodd;fill:#34383f}.st2{fill:#fff}</style><path d="M4 7h32a4 4 0 0 1 4 4v18a4 4 0 0 1-4 4H4a4 4 0 0 1-4-4V11a4 4 0 0 1 4-4" class="st0"/><path d="M2.941 17.621c0-.053.014-.106.042-.151l.461-.768a.29.29 0 0 1 .252-.143h2.088c.162 0 .294.132.294.294v4.118a.294.294 0 0 1-.294.294H3.696a.29.29 0 0 1-.252-.143l-.461-.768a.3.3 0 0 1-.042-.151zm3.53-.768c0-.162.132-.294.294-.294h.98c.162 0 .294.132.294.294v1.569a.294.294 0 0 1-.294.294h-.98a.294.294 0 0 1-.294-.294zm2.255-.294a.294.294 0 0 0-.294.294v2.157c0 .162.132.294.294.294h.98A.294.294 0 0 0 10 19.01v-2.157a.294.294 0 0 0-.294-.294zm-2.255 2.843c0-.162.132-.294.294-.294h.98c.162 0 .294.132.294.294v1.569a.294.294 0 0 1-.294.294h-.98a.294.294 0 0 1-.294-.294zm2.255.294a.294.294 0 0 0-.294.294v.98c0 .162.132.294.294.294h.98A.294.294 0 0 0 10 20.97v-.98a.294.294 0 0 0-.294-.294z" class="st1"/><path d="M34.711 10.697a1.18 1.18 0 0 0-.95.473l-.232.308a.51.51 0 0 1-.401.2H29v4.935h1.618a1.18 1.18 0 0 0 .95-.473l.232-.307a.5.5 0 0 1 .401-.201h4.133v-4.935zm.339 3.652h-1.73a1.18 1.18 0 0 0-.95.473l-.232.308a.51.51 0 0 1-.401.2h-1.453v-2.367h1.73a1.18 1.18 0 0 0 .95-.473l.232-.307a.51.51 0 0 1 .401-.201h1.458z" class="st2"/></svg>