<?xml version="1.0" encoding="UTF-8"?>
<svg id="Layer_1" xmlns="http://www.w3.org/2000/svg" xmlns:xlink="http://www.w3.org/1999/xlink" version="1.1" viewBox="0 0 680 220">
  <!-- Generator: Adobe Illustrator 30.1.0, SVG Export Plug-In . SVG Version: 2.1.1 Build 136)  -->
  <defs>
    <clipPath id="clippath">
      <rect width="680" height="220" fill="none"/>
    </clipPath>
    <clipPath id="clippath-1">
      <path d="M-35.81,86.69l62.96,62.96c3.48,3.48,3.48,9.11,0,12.59l-36.52,36.52c-3.48,3.48-9.11,3.48-12.59,0l-62.96-62.96c-3.48-3.48-3.48-9.11,0-12.59l36.52-36.52c3.48-3.48,9.11-3.48,12.59,0Z" fill="none"/>
    </clipPath>
    <clipPath id="clippath-2">
      <path d="M59.88,182.39l62.96,62.96c3.48,3.48,3.48,9.11,0,12.59l-36.52,36.52c-3.48,3.48-9.11,3.48-12.59,0l-62.96-62.96c-3.48-3.48-3.48-9.11,0-12.59l36.52-36.52c3.48-3.48,9.11-3.48,12.59,0Z" fill="none"/>
    </clipPath>
    <clipPath id="clippath-3">
      <path d="M24.24-9.01l62.96,62.96c3.48,3.48,3.48,9.11,0,12.59l-36.52,36.52c-3.48,3.48-9.11,3.48-12.59,0L-24.87,40.1c-3.48-3.48-3.48-9.11,0-12.59L11.65-9.01c3.48-3.48,9.11-3.48,12.59,0Z" fill="none"/>
    </clipPath>
    <clipPath id="clippath-4">
      <rect x="92.14" y="89.3" width="69.45" height="106.84" rx="8.9" ry="8.9" transform="translate(-63.76 131.51) rotate(-45)" fill="none"/>
    </clipPath>
    <clipPath id="clippath-5">
      <rect x="187.83" y="185" width="69.45" height="106.85" rx="8.9" ry="8.9" transform="translate(-103.4 227.21) rotate(-45)" fill="none"/>
    </clipPath>
    <clipPath id="clippath-6">
      <path d="M84.29-104.7l62.96,62.96c3.48,3.48,3.48,9.11,0,12.59L110.73,7.36c-3.48,3.48-9.11,3.48-12.59,0l-62.96-62.96c-3.48-3.48-3.48-9.11,0-12.59l36.52-36.52c3.48-3.48,9.11-3.48,12.59,0Z" fill="none"/>
    </clipPath>
    <clipPath id="clippath-7">
      <rect x="152.19" y="-6.4" width="69.45" height="106.85" rx="8.9" ry="8.9" transform="translate(21.49 145.94) rotate(-45)" fill="none"/>
    </clipPath>
    <clipPath id="clippath-8">
      <path d="M275.69,86.69l62.96,62.96c3.48,3.48,3.48,9.11,0,12.59l-36.52,36.52c-3.48,3.48-9.11,3.48-12.59,0l-62.96-62.96c-3.48-3.48-3.48-9.11,0-12.59l36.52-36.52c3.48-3.48,9.11-3.48,12.59,0Z" fill="none"/>
    </clipPath>
    <clipPath id="clippath-9">
      <rect x="343.59" y="185" width="69.45" height="106.85" rx="8.9" ry="8.9" transform="translate(-57.79 337.34) rotate(-45)" fill="none"/>
    </clipPath>
    <clipPath id="clippath-10">
      <rect x="212.24" y="-102.09" width="69.45" height="106.84" rx="8.9" ry="8.9" transform="translate(106.75 160.38) rotate(-45)" fill="none"/>
    </clipPath>
    <clipPath id="clippath-11">
      <path d="M335.74-9.01l62.96,62.96c3.48,3.48,3.48,9.11,0,12.59l-36.52,36.52c-3.48,3.48-9.11,3.48-12.59,0l-62.96-62.96c-3.48-3.48-3.48-9.11,0-12.59l36.52-36.52c3.48-3.48,9.11-3.48,12.59,0Z" fill="none"/>
    </clipPath>
    <clipPath id="clippath-12">
      <path d="M431.44,86.69l62.96,62.96c3.48,3.48,3.48,9.11,0,12.59l-36.52,36.52c-3.48,3.48-9.11,3.48-12.59,0l-62.96-62.96c-3.48-3.48-3.48-9.11,0-12.59l36.52-36.52c3.48-3.48,9.11-3.48,12.59,0Z" fill="none"/>
    </clipPath>
    <clipPath id="clippath-13">
      <path d="M527.14,182.39l62.96,62.96c3.48,3.48,3.48,9.11,0,12.59l-36.52,36.52c-3.48,3.48-9.11,3.48-12.59,0l-62.96-62.96c-3.48-3.48-3.48-9.11,0-12.59l36.52-36.52c3.48-3.48,9.11-3.48,12.59,0Z" fill="none"/>
    </clipPath>
    <clipPath id="clippath-14">
      <path d="M395.79-104.7l62.96,62.96c3.48,3.48,3.48,9.11,0,12.59l-36.52,36.52c-3.48,3.48-9.11,3.48-12.59,0l-62.96-62.96c-3.48-3.48-3.48-9.11,0-12.59l36.52-36.52c3.48-3.48,9.11-3.48,12.59,0Z" fill="none"/>
    </clipPath>
    <clipPath id="clippath-15">
      <rect x="463.69" y="-6.4" width="69.45" height="106.85" rx="8.9" ry="8.9" transform="translate(112.73 366.21) rotate(-45)" fill="none"/>
    </clipPath>
    <clipPath id="clippath-16">
      <path d="M587.19,86.69l62.96,62.96c3.48,3.48,3.48,9.11,0,12.59l-36.52,36.52c-3.48,3.48-9.11,3.48-12.59,0l-62.96-62.96c-3.48-3.48-3.48-9.11,0-12.59l36.52-36.52c3.48-3.48,9.11-3.48,12.59,0Z" fill="none"/>
    </clipPath>
    <clipPath id="clippath-17">
      <path d="M682.89,182.39l62.96,62.96c3.48,3.48,3.48,9.11,0,12.59l-36.52,36.52c-3.48,3.48-9.11,3.48-12.59,0l-62.96-62.96c-3.48-3.48-3.48-9.11,0-12.59l36.52-36.52c3.48-3.48,9.11-3.48,12.59,0Z" fill="none"/>
    </clipPath>
    <clipPath id="clippath-18">
      <rect x="523.75" y="-102.09" width="69.45" height="106.84" rx="8.9" ry="8.9" transform="translate(197.99 380.64) rotate(-45)" fill="none"/>
    </clipPath>
    <clipPath id="clippath-19">
      <rect x="619.44" y="-6.4" width="69.45" height="106.84" rx="8.9" ry="8.9" transform="translate(158.35 476.34) rotate(-45)" fill="none"/>
    </clipPath>
  </defs>
  <g clip-path="url(#clippath)">
    <g>
      <g clip-path="url(#clippath-1)">
        <g>
          <rect x="-63.61" y="89.3" width="69.45" height="106.84" rx="8.9" ry="8.9" transform="translate(-109.38 21.38) rotate(-45)" fill="#016fd0"/>
          <path d="M7,137.06l18.89,18.89-18.89,18.89-18.89-18.89,18.89-18.89Z" fill="#016fd0" fill-rule="evenodd"/>
          <path d="M-2.06,159.8l6.77-6.77,12.03,12.06-1.87,1.87-2.88.1-.11,2.89-1.91,1.91-2.22-2.22.12-2.49-2.48.14-7.45-7.49Z" fill="#fff" fill-rule="evenodd"/>
          <path d="M-.51,159.86l5.28-5.28,4.48,4.48-1.22,1.22-3.03-3.03-.83.83,2.96,2.95-1.2,1.2-2.96-2.96-.81.81,3.03,3.03-1.23,1.23-4.48-4.48Z" fill="#016fd0" fill-rule="evenodd"/>
          <path d="M3.94,164.32l5.12-.17.16-5.12,1.92,1.92-.16,3.19,3.19-.16,1.84,1.84-.04.04-5.02.17-.14,4.99-.07.08-1.85-1.85.15-3.23-3.22.17-1.87-1.87Z" fill="#016fd0" fill-rule="evenodd"/>
          <path d="M11.28,147.59l2.9,2.9-1.3,3.34,2.32-2.32,3.58,3.58-1.12,2.35,2.36-1.12,2.74,2.74-6.77,6.77-14.47-14.47,9.75-3.79Z" fill="#fff" fill-rule="evenodd"/>
          <path d="M11.09,148.87l-7.62,2.93,1.61,1.61,1.5-.61,2.4,2.4-.61,1.5,1.65,1.65,2.94-7.61-1.86-1.86ZM8.26,152.11l2.38-.98-.98,2.38-1.4-1.4Z" fill="#016fd0" fill-rule="evenodd"/>
          <path d="M9.99,158.32l5.28-5.28,2.25,2.27-2.08,4.41,4.42-2.08,2.17,2.17-5.28,5.28-1.41-1.39,3.62-3.62-4.93,2.29-1.28-1.28,2.28-4.97-3.62,3.62-1.42-1.42Z" fill="#016fd0" fill-rule="evenodd"/>
        </g>
      </g>
      <g clip-path="url(#clippath-2)">
        <g>
          <rect x="32.08" y="185" width="69.45" height="106.84" rx="8.9" ry="8.9" transform="translate(-149.02 117.07) rotate(-45)" fill="#49225b"/>
          <path d="M46.46,205.07c.31.31.31.8,0,1.11l-7.78,7.78c-.31.31-.8.31-1.11,0l-3.94-3.94c-.19-.2-.27-.48-.21-.75l.58-2.32c.03-.14.11-.26.21-.36l4.88-4.88c.1-.1.23-.17.37-.21l2.32-.58c.27-.07.55.01.75.21l3.94,3.95ZM45.35,213.59c.31.31.31.8,0,1.11l-2.96,2.96c-.31.31-.8.31-1.11,0l-1.85-1.85c-.31-.31-.31-.8,0-1.11l2.96-2.96c.31-.31.8-.31,1.11,0l1.85,1.85ZM47.94,218.4c.31.31.31.8,0,1.11l-1.85,1.85c-.31.31-.8.31-1.11,0l-1.85-1.85c-.31-.31-.31-.81,0-1.11l1.85-1.85c.31-.31.8-.31,1.11,0l1.85,1.85ZM53.86,212.48c.31.31.31.8,0,1.11l-4.07,4.07c-.31.31-.8.31-1.11,0l-1.85-1.85c-.31-.31-.31-.8,0-1.11l4.07-4.07c.31-.31.8-.31,1.11,0l1.85,1.85ZM50.16,208.78c.31.31.31.8,0,1.11l-2.96,2.96c-.31.31-.8.31-1.11,0l-1.85-1.85c-.31-.31-.31-.8,0-1.11l2.96-2.96c.31-.31.8-.31,1.11,0l1.85,1.85Z" fill="#fffaf0" isolation="isolate" opacity=".3"/>
        </g>
      </g>
      <g clip-path="url(#clippath-3)">
        <g>
          <rect x="-3.56" y="-6.4" width="69.45" height="106.84" rx="8.9" ry="8.9" transform="translate(-24.12 35.81) rotate(-45)" fill="#0164bf"/>
          <path d="M10.82,13.68c.31.31.31.8,0,1.11l-7.78,7.78c-.31.31-.8.31-1.11,0l-3.95-3.94c-.19-.2-.27-.48-.21-.75l.58-2.32c.03-.14.11-.26.21-.37l4.88-4.88c.1-.1.23-.17.36-.21l2.32-.58c.27-.07.55.01.75.21l3.95,3.94ZM9.7,22.2c.31.31.31.8,0,1.11l-2.96,2.96c-.31.31-.8.31-1.11,0l-1.85-1.85c-.31-.31-.31-.8,0-1.11l2.96-2.96c.31-.31.8-.31,1.11,0l1.85,1.85ZM12.3,27.01c.31.31.31.8,0,1.11l-1.85,1.85c-.31.31-.8.31-1.11,0l-1.85-1.85c-.31-.31-.31-.8,0-1.11l1.85-1.85c.31-.31.8-.31,1.11,0l1.85,1.85ZM18.22,21.08c.31.31.31.8,0,1.11l-4.07,4.07c-.31.31-.8.31-1.11,0l-1.85-1.85c-.31-.31-.31-.8,0-1.11l4.07-4.07c.31-.31.8-.31,1.11,0l1.85,1.85ZM14.52,17.38c.31.31.31.8,0,1.11l-2.96,2.96c-.31.31-.8.31-1.11,0l-1.85-1.85c-.31-.31-.31-.8,0-1.11l2.96-2.96c.31-.31.8-.31,1.11,0l1.85,1.85Z" fill="#fffaf0" isolation="isolate" opacity=".3"/>
          <path d="M65.67,70.85c-.54.54-1.04.61-1.65.36-2.29-1-4.54-2.61-6.4-4.47-1.86-1.86-3.47-4.12-4.47-6.4-.25-.61-.18-1.11.36-1.65l14.02-14.02,12.16,12.16-14.02,14.02Z" fill="#0059b3"/>
          <path d="M65.67,70.85c-.54.54-1.04.61-1.65.36-2.29-1-4.54-2.61-6.4-4.47-1.86-1.86-3.47-4.12-4.47-6.4-.25-.61-.18-1.11.36-1.65l14.02-14.02,12.16,12.16-14.02,14.02Z" fill="none" stroke="#fff" stroke-miterlimit="3.94" stroke-width=".5"/>
          <path d="M62.23,56.47c-.64-2.72-.75-3.76-.07-4.51.14-.14.43-.36.61-.47l-.03-.25c-.36.07-.68.25-.93.5-.39.39-.57.86-.64,1.22-.11.61-.11,1.11.07,2.15.14,1.14.04,2.18-.32,3.04l.11.11.68-.68c.39,1.4.72,2.65.25,3.9l.11.11c.68-1.04.86-2.22.18-5.12M69.46,59.11c-.53-.18-1-.21-1.57-.14l.79.72c.39-.32.65-.5.79-.57h0ZM69.5,64.52c.25-.11.53-.25.72-.43l-1.04-1.18c-.32.25-.65.43-1,.57l1.32,1.04ZM71.07,60.58c-.14.29-.29.57-.43.78l.68.61c.04-.47-.07-.93-.25-1.4h0ZM70.14,60.94c.18-.32.36-.72.47-1.11l-.36-.36c-.36.14-.72.36-1.07.57l.97.89h0ZM70.32,61.83c-.25.32-.5.57-.75.82l1.14,1c.21-.29.36-.57.46-.89l-.86-.93ZM69.17,62.26c.29-.29.5-.57.71-.93l-1.04-1.11c-.4.25-.75.53-1.07.79l1.4,1.25ZM71.6,60.11l.32-.04.07-.43.11-.04.25.82-.46.25c.04.11.07.29.11.47l.93-.22-.43-1.36-2-2-2.61-.68c.11.54.15,1,.11,1.47,1.07-.21,2.26.18,3.01.93.18.18.43.5.61.82h0ZM67.6,56.04l1.43.36c-.07-.29-.25-.53-.47-.75-.32-.32-.96-.68-1.25-.89.04.18.21.86.29,1.29h0ZM69.85,54.21c-.25-.4-.47-.54-.82-.54.07.15.14.29.25.4.21.14.43.15.57.14ZM67.31,66.91l-.11-.11c.64-.64.21-1.36-.39-1.97l-1.9-1.9c-.25.4-.61.75-.97,1.04l-.11-.11c1.22-1.57,1.14-3.08.79-4.94l-.64.64-.11-.11c.39-.97.36-2.22.15-3.29l-.15-.86-.68.68-.11-.11c.43-.93.47-1.97.43-3.22-.07-1.36,0-2.08.32-2.68.18-.4.36-.64.65-.93.54-.54,1.29-.79,1.82-.61l-.25.25c-.39.04-.75.25-1.04.54-.25.25-.5.65-.64,1-.36,1.22.04,3.54.36,5.01.93,4.58,1.14,5.44.61,6.91-.07.15-.14.36-.29.57.47.32,2.11,1.54,2.43,1.79.04.04.18.11.25.18.39.11.78.07,1.21,0l-.97-1.11c-.15.07-.32.11-.43.15l-.07-.07c.15-.07.25-.18.4-.25l-.25-.32.07-.07.32.25c.36-.21.65-.5.89-.75l-1.25-1.4-.39.39-.07-.07c.11-.18.21-.29.32-.47l-.29-.29.07-.07.29.29c.29-.36.61-.68.93-1l-.75-.82-.11.32c-.29.64-.86,1.14-1.18,1.33l-.11-.11c.29-.29.53-.75.64-1.07.29-.72.29-1.65-.04-2.97l-.64.64-.11-.11c.61-1.11.39-2.25-.11-3.76-.39-1.25-.14-2,.68-2.76l.11.47c-.64.79-.5,1.79.07,2.36.36.36.72.64,1.11.89.57.36,1.04.68,1.25,1.18l.43-.43-.29-.29c-.18-.04-.46-.11-.75-.4-.32-.32-.75-1.11-.07-1.79.61-.61,1.18-.18,1.57.21l.72.72c.11.11.18.11.29.14.07,0,.18-.04.21-.07l.75-.75-1.9-1.9-.75.75-.43-1,.18-.18.36.36.29-.29-1.25-1.25.61-.61-.43-.43c-.25-.25-.64-.36-1-.07-.32.32-.46.68-.15,1l.07.07-.36.36-.07-.07c-.54-.54-.57-1.36,0-1.93.57-.57,1.47-.54,2.07.07l.93.93-.61.61,3.58,3.58-.93.93c-.14.14-.36.36-.54.47-.11.11-.29.21-.61.18-.18-.04-.4-.18-.65-.43-.21-.21-.43-.43-.61-.68-.36-.43-.68-.4-.82-.25l-.11.11c.32.04.72.21.89.61.36.72.5.86,1,.93l-.04.11c-.07,0-.18.04-.36,0l.25.25-1.43,1.43,1.32.32,2.29,2.29.53,1.68c.07.21,0,.36-.07.5-.11.11-.25.25-.4.25-.11.04-.79.21-1.14.29-.04.89-.4,1.68-1,2.29-.61.61-1.57,1.14-2.86,1,.21.36.25.75.18,1.18l-.97.61" fill="#ffdf01"/>
          <path d="M59.41,65.09l-.43-.43,1.25-1.25.43.43c.57.57.61.97.18,1.4-.46.39-.97.32-1.43-.15h0ZM61.84,62.58c.36.36.5.65.15,1-.39.39-.82.18-1.18-.18l-.32-.32.93-.93.43.43ZM61.48,64.3c.36.29.89.32,1.25-.04.32-.32.54-.82-.43-1.79l-1.61-1.61-.04.04s.07.21.07.29c0,.22-.11.39-.32.61l-2.43,2.43,1.32,1.32c.75.75,1.54.97,2.18.32.57-.5.4-1.11,0-1.58M57.98,58.72l.47.47c.39.39.5.72.07,1.14-.36.36-.86.36-1.29-.07l-.36-.36,1.14-1.14-.04-.04ZM56.47,62.72l.86.86.32-2.54c.54.32,1.14.43,1.61-.03.54-.54.47-1.11-.32-1.9l-1.72-1.72-.04.04c.04.11.07.21.07.29,0,.22-.15.43-.4.68l-2.36,2.36.72.72,1.36-1.36.25.25-.36,2.36M66.03,67.06c.07.29,0,.5,0,.5l.04.04.64-.36s-.11-.46-.75-1.11c-1-1-2.22-1.22-3.29-.15-1.22,1.22-.64,2.43.11,3.18.75.75,1.22.79,1.22.79l.36-.36s-.5,0-1.04-.54c-.47-.46-.89-1.32.11-2.32.93-.93,1.61-.82,2.15-.29.36.21.43.43.46.61Z" fill="#fff"/>
        </g>
      </g>
      <g clip-path="url(#clippath-4)">
        <g>
          <rect x="92.14" y="89.3" width="69.45" height="106.84" rx="8.9" ry="8.9" transform="translate(-63.76 131.51) rotate(-45)" fill="#780505"/>
          <path d="M164.36,144.94l5.62,5.62-9.18,9.18-5.62-5.62,9.18-9.18Z" fill="#ff5f00"/>
          <path d="M160.35,150.11c1.79-1.79,4.3-2.66,6.82-2.36-.54-4.53-4.65-7.76-9.18-7.21-4.53.54-7.76,4.65-7.21,9.18.45,3.78,3.43,6.76,7.21,7.21-.3-2.51.57-5.03,2.36-6.82h0Z" fill="#eb001b"/>
          <path d="M172.02,161.78c-3.22,3.22-8.45,3.22-11.67,0-1.31-1.31-2.14-3.02-2.36-4.86,4.53.54,8.64-2.69,9.18-7.21.08-.65.08-1.31,0-1.96,4.53.54,7.76,4.65,7.22,9.18-.22,1.84-1.05,3.55-2.36,4.85h0Z" fill="#f79e1b"/>
          <path d="M106.51,109.37c.31.31.31.8,0,1.11l-7.78,7.78c-.31.31-.8.31-1.11,0l-3.95-3.94c-.19-.19-.27-.48-.21-.75l.58-2.32c.03-.14.11-.26.21-.37l4.88-4.88c.1-.1.23-.17.37-.21l2.32-.58c.27-.07.55.01.75.21l3.94,3.94ZM105.4,117.89c.31.31.31.8,0,1.11l-2.96,2.96c-.31.31-.8.31-1.11,0l-1.85-1.85c-.31-.31-.31-.8,0-1.11l2.96-2.96c.31-.31.8-.31,1.11,0l1.85,1.85ZM107.99,122.71c.31.31.31.81,0,1.11l-1.85,1.85c-.31.31-.8.31-1.11,0l-1.85-1.85c-.31-.31-.31-.8,0-1.11l1.85-1.85c.31-.31.8-.31,1.11,0l1.85,1.85ZM113.92,116.78c.31.31.31.8,0,1.11l-4.07,4.07c-.31.31-.8.31-1.11,0l-1.85-1.85c-.31-.31-.31-.8,0-1.11l4.07-4.07c.31-.31.8-.31,1.11,0l1.85,1.85ZM110.21,113.08c.31.31.31.8,0,1.11l-2.96,2.96c-.31.31-.8.31-1.11,0l-1.85-1.85c-.31-.31-.31-.8,0-1.11l2.96-2.96c.31-.31.8-.31,1.11,0l1.85,1.85Z" fill="#400000"/>
        </g>
      </g>
      <g clip-path="url(#clippath-5)">
        <g>
          <rect x="187.83" y="185" width="69.45" height="106.84" rx="8.9" ry="8.9" transform="translate(-103.4 227.21) rotate(-45)" fill="#ff7101"/>
          <path d="M202.21,205.07c.31.31.31.8,0,1.11l-7.78,7.78c-.31.31-.8.31-1.11,0l-3.95-3.94c-.2-.2-.27-.48-.21-.75l.58-2.32c.03-.14.11-.26.21-.36l4.88-4.88c.1-.1.23-.17.37-.21l2.32-.58c.27-.07.55.01.74.21l3.94,3.95ZM201.1,213.59c.31.31.31.8,0,1.11l-2.96,2.96c-.31.31-.8.31-1.11,0l-1.85-1.85c-.31-.31-.31-.8,0-1.11l2.96-2.96c.31-.31.8-.31,1.11,0l1.85,1.85ZM203.69,218.4c.31.31.31.8,0,1.11l-1.85,1.85c-.31.31-.8.31-1.11,0l-1.85-1.85c-.31-.31-.31-.81,0-1.11l1.85-1.85c.31-.31.81-.31,1.11,0l1.85,1.85ZM209.61,212.48c.31.31.31.8,0,1.11l-4.07,4.07c-.31.31-.8.31-1.11,0l-1.85-1.85c-.31-.31-.31-.8,0-1.11l4.07-4.07c.31-.31.8-.31,1.11,0l1.85,1.85ZM205.91,208.78c.31.31.31.8,0,1.11l-2.96,2.96c-.31.31-.8.31-1.11,0l-1.85-1.85c-.31-.31-.31-.8,0-1.11l2.96-2.96c.31-.31.8-.31,1.11,0l1.85,1.85Z" fill="#fffaf0" isolation="isolate" opacity=".3"/>
        </g>
      </g>
      <g clip-path="url(#clippath-6)">
        <rect x="56.49" y="-102.09" width="69.45" height="106.84" rx="8.9" ry="8.9" transform="translate(61.13 50.25) rotate(-45)" fill="#008c59"/>
      </g>
      <g clip-path="url(#clippath-7)">
        <g>
          <rect x="152.19" y="-6.4" width="69.45" height="106.84" rx="8.9" ry="8.9" transform="translate(21.49 145.94) rotate(-45)" fill="#004989"/>
          <path d="M166.56,13.68c.31.31.31.8,0,1.11l-7.78,7.78c-.31.31-.8.31-1.11,0l-3.95-3.94c-.19-.2-.27-.48-.21-.75l.58-2.32c.04-.14.11-.26.21-.37l4.88-4.88c.1-.1.23-.17.36-.21l2.32-.58c.27-.07.55.01.75.21l3.94,3.94ZM165.45,22.19c.31.31.31.8,0,1.11l-2.96,2.96c-.31.31-.8.31-1.11,0l-1.85-1.85c-.31-.31-.31-.8,0-1.11l2.96-2.96c.31-.31.81-.31,1.11,0l1.85,1.85ZM168.04,27.01c.31.31.31.8,0,1.11l-1.85,1.85c-.31.31-.8.31-1.11,0l-1.85-1.85c-.31-.31-.31-.8,0-1.11l1.85-1.85c.31-.31.8-.31,1.11,0l1.85,1.85ZM173.97,21.08c.31.31.31.8,0,1.11l-4.07,4.07c-.31.31-.8.31-1.11,0l-1.85-1.85c-.31-.31-.31-.8,0-1.11l4.07-4.07c.31-.31.8-.31,1.11,0l1.85,1.85ZM170.27,17.38c.31.31.31.8,0,1.11l-2.96,2.96c-.31.31-.8.31-1.11,0l-1.85-1.85c-.31-.31-.31-.8,0-1.11l2.96-2.96c.31-.31.8-.31,1.11,0l1.85,1.85Z" fill="#003c73"/>
          <path d="M224.31,47c2.12,1.86,4.19,3.78,6.13,5.83,1.38,1.47,2.71,2.99,3.82,4.67.62.96,1.19,1.97,1.45,3.09.15.67.18,1.45-.23,2.03-.47.69-1.28,1.01-2.06,1.21-1.43.33-2.91.31-4.37.23-1.82-.12-3.63-.38-5.43-.7-1.75-.33-3.51-.66-5.25-1.04-2.21-.5-4.4-1.07-6.57-1.72l-1.91-1.91c1.65.31,3.32.48,4.98.61,2.06.16,4.12.26,6.18.31.4.01.81.05,1.2-.04,1.2-.19,2.46-.53,3.31-1.43.59-.61.81-1.5.74-2.34-.12-1.37-.74-2.64-1.43-3.82-.71-1.18-1.54-2.27-2.4-3.34-.5-.56-.95-1.15-1.48-1.69l1.5-1.5c.62.49,1.21,1.03,1.81,1.55Z" fill="#cc2427"/>
        </g>
      </g>
      <g clip-path="url(#clippath-8)">
        <g>
          <rect x="247.89" y="89.3" width="69.45" height="106.84" rx="8.9" ry="8.9" transform="translate(-18.15 241.64) rotate(-45)" fill="#e31837"/>
          <path d="M262.26,109.37c.31.31.31.8,0,1.11l-7.78,7.78c-.31.31-.8.31-1.11,0l-3.94-3.94c-.2-.19-.27-.48-.21-.75l.58-2.32c.03-.14.1-.26.21-.37l4.88-4.88c.1-.1.23-.17.37-.21l2.32-.58c.27-.07.55.01.74.21l3.94,3.94ZM261.15,117.89c.31.31.31.8,0,1.11l-2.96,2.96c-.31.31-.8.31-1.11,0l-1.85-1.85c-.31-.31-.31-.8,0-1.11l2.96-2.96c.31-.31.8-.31,1.11,0l1.85,1.85ZM263.74,122.71c.31.31.31.81,0,1.11l-1.85,1.85c-.31.31-.8.31-1.11,0l-1.85-1.85c-.31-.31-.31-.8,0-1.11l1.85-1.85c.31-.31.8-.31,1.11,0l1.85,1.85ZM269.67,116.78c.31.31.31.8,0,1.11l-4.08,4.07c-.31.31-.8.31-1.11,0l-1.85-1.85c-.31-.31-.31-.8,0-1.11l4.07-4.07c.31-.31.8-.31,1.11,0l1.85,1.85ZM265.96,113.08c.31.31.31.8,0,1.11l-2.96,2.96c-.31.31-.8.31-1.11,0l-1.85-1.85c-.31-.31-.31-.8,0-1.11l2.96-2.96c.31-.31.8-.31,1.11,0l1.85,1.85Z" fill="#e66166"/>
          <path d="M315.35,159.4c5.42.42,11.96,2.1,15.09,3.48-.13-.57-.35-1.43-.62-2.39-3.87-1.95-9.39-3.22-14.83-3.86.13.9.27,1.85.35,2.77Z" fill="#fff"/>
          <path d="M320.81,151.28c-.22-.64-.5-1.31-.7-1.84-1.64-.56-3.89-1.17-6.99-1.69.18.6.35,1.26.54,1.96,2.42.36,4.8.8,7.15,1.57Z" fill="#fff"/>
          <path d="M324.61,152.69c-.24-.82-1.39-3.34-2.37-4.9-.51-.24-1.25-.56-1.77-.77.33.59,1.59,2.76,2.31,4.95.56.2,1.31.5,1.82.71Z" fill="#fff"/>
          <path d="M318.56,146.28c-2.38-.88-5.12-1.56-6.65-1.9.18.49.39.95.63,1.63,3.45.67,5.91,1.44,6.83,1.8-.29-.63-.61-1.17-.81-1.53Z" fill="#fff"/>
          <path d="M326.26,153.48c.5.25,1.04.57,1.53.84-.63-1.54-1.51-3.39-2.42-4.92-.25-.14-.99-.57-1.52-.85.29.54,1.35,2.24,2.41,4.94ZM314.18,151.84c.18.71.29,1.54.45,2.31,5.41.69,10.23,1.88,14.56,4.15-.22-.7-.42-1.31-.68-2.07-2.48-1.48-7.21-3.51-14.33-4.38Z" fill="#fff"/>
        </g>
      </g>
      <g clip-path="url(#clippath-9)">
        <g>
          <rect x="343.59" y="185" width="69.45" height="106.84" rx="8.9" ry="8.9" transform="translate(-57.79 337.34) rotate(-45)" fill="#0281c4"/>
          <path d="M357.96,205.07c.31.31.31.8,0,1.11l-7.78,7.78c-.31.31-.81.31-1.11,0l-3.94-3.94c-.2-.2-.27-.48-.21-.75l.58-2.32c.03-.14.11-.26.21-.36l4.88-4.88c.1-.1.23-.17.37-.21l2.32-.58c.27-.07.55.01.75.21l3.94,3.95ZM356.85,213.59c.31.31.31.8,0,1.11l-2.96,2.96c-.31.31-.8.31-1.11,0l-1.85-1.85c-.31-.31-.31-.8,0-1.11l2.96-2.96c.31-.31.8-.31,1.11,0l1.85,1.85ZM359.44,218.4c.31.31.31.8,0,1.11l-1.85,1.85c-.31.31-.8.31-1.11,0l-1.85-1.85c-.31-.31-.31-.81,0-1.11l1.85-1.85c.31-.31.8-.31,1.11,0l1.85,1.85ZM365.37,212.48c.31.31.31.8,0,1.11l-4.07,4.07c-.31.31-.8.31-1.11,0l-1.85-1.85c-.31-.31-.31-.8,0-1.11l4.07-4.07c.31-.31.8-.31,1.11,0l1.85,1.85ZM361.66,208.78c.31.31.31.8,0,1.11l-2.96,2.96c-.31.31-.8.31-1.11,0l-1.85-1.85c-.31-.31-.31-.8,0-1.11l2.96-2.96c.31-.31.8-.31,1.11,0l1.85,1.85Z" fill="#4da7d5"/>
        </g>
      </g>
      <g clip-path="url(#clippath-10)">
        <rect x="212.24" y="-102.09" width="69.45" height="106.85" rx="8.9" ry="8.9" transform="translate(106.75 160.38) rotate(-45)" fill="#016fd0"/>
      </g>
      <g clip-path="url(#clippath-11)">
        <g>
          <rect x="307.94" y="-6.4" width="69.45" height="106.84" rx="8.9" ry="8.9" transform="translate(67.11 256.08) rotate(-45)" fill="#dd1e25"/>
          <path d="M322.32,13.68c.31.31.31.8,0,1.11l-7.78,7.78c-.31.31-.8.31-1.11,0l-3.95-3.94c-.2-.2-.27-.48-.21-.75l.58-2.32c.04-.14.11-.26.21-.37l4.88-4.88c.1-.1.23-.17.36-.21l2.32-.58c.27-.07.55.01.75.21l3.95,3.94ZM321.2,22.19c.31.31.31.8,0,1.11l-2.96,2.96c-.31.31-.8.31-1.11,0l-1.85-1.85c-.31-.31-.31-.8,0-1.11l2.96-2.96c.31-.31.8-.31,1.11,0l1.85,1.85ZM323.8,27.01c.31.31.31.8,0,1.11l-1.85,1.85c-.31.31-.8.31-1.11,0l-1.85-1.85c-.31-.31-.31-.8,0-1.11l1.85-1.85c.31-.31.8-.31,1.11,0l1.85,1.85ZM329.72,21.08c.31.31.31.8,0,1.11l-4.07,4.07c-.31.31-.8.31-1.11,0l-1.85-1.85c-.31-.31-.31-.8,0-1.11l4.07-4.07c.31-.31.8-.31,1.11,0l1.85,1.85ZM326.02,17.38c.31.31.31.8,0,1.11l-2.96,2.96c-.31.31-.8.31-1.11,0l-1.85-1.85c-.31-.31-.31-.8,0-1.11l2.96-2.96c.31-.31.8-.31,1.11,0l1.85,1.85Z" fill="#e66166"/>
          <path d="M362.53,49.41c.33-.33.57-.66.7-1.03.04-.37-.21-.7-.66-1.15l-1.03-1.03-1.23,1.23.33.33c.49.49.7.45,1.31-.16l.41.41-2.05,2.05-.41-.41c.7-.7.78-.94.29-1.44l-.33-.33-1.07,1.07c-.37.37-.33.41.04.78l.45.45-.49.49-2.51-2.5.49-.49.25.25c.33.33.49.41.82.08l2.42-2.42c.33-.33.25-.49-.08-.82l-.25-.25.45-.45,4.19,4.19-1.6,1.6-.45-.45ZM370.62,60.21l-.37-.37c-.45.45-.66.66-.9.41-.12-.12-.12-.37.12-.62l.21-.21c.53-.62.66-.99.16-1.89.86.7,1.68.78,2.26.21.7-.7.49-1.48-.53-2.5l-2.83-2.83-.45.45.33.33c.37.37.37.45.04.78l-2.42,2.42c-.29.29-.53.21-.78-.04l-.29-.29c-.25-.25-.29-.45-.12-.86l1.93-4.56-.99-.99-4.64,1.85c-.41.16-.57.16-.9-.16l-.17-.16-.49.49,2.13,2.14.49-.49-.45-.45c-.2-.21-.33-.33-.2-.45.04-.04.16-.08.29-.12l.7-.29,1.56,1.56-.25.66c-.04.12-.12.2-.16.25-.17.16-.29.04-.49-.16l-.45-.45-.49.49,4.64,4.64.49-.49-.37-.37c-.37-.37-.41-.41-.04-.78l1.07-1.07.41.41c.7.7.78,1.03.12,1.77l-.45.45c-.53.62-.33,1.15.25,1.72.49.49,1.11.53,1.89-.25.04-.04.12-.12.16-.16ZM363.39,51.67l2.22-.9-.95,2.18-1.27-1.27ZM369.59,56.63l-.9-.82,1.27-1.27.86.86c.57.57.7,1.03.25,1.48l-.04.04c-.41.41-.86.29-1.44-.29ZM375.92,62.22c.41-.82.29-1.52-.37-2.18-.66-.66-1.73-.66-2.79.41-1.07,1.07-1.19,2.01-.45,2.83.53.53,1.31.74,1.76.29l.25-.25c.29-.29.25-.33-.16-.74l-.21-.21.45-.45,1.93,1.93-.45.45-.16-.16c-.29-.29-.33-.33-.66,0l-1.36,1.36-.37-.37.12-.53c-.66-.08-1.36-.45-1.85-.95-.58-.57-.82-1.23-.78-2.01,0-.82.29-1.6.9-2.22.66-.66,1.36-.94,2.18-.94.74,0,1.44.37,2.01.95.45.45.86,1.11.82,1.72l.66-.25.33.33-1.39,1.4-.41-.41ZM376.82,68.79c-1.36-1.35-1.6-3.24-.29-4.56,1.27-1.27,3.16-1.03,4.52.33,1.35,1.36,1.56,3.2.25,4.52-1.27,1.27-3.12,1.07-4.47-.29ZM380.31,68.09c1.48-1.48.66-2.63.25-3.04-.78-.78-1.97-.82-3.04.25-1.07,1.07-1.03,2.26-.25,3.04.41.41,1.6,1.19,3.04-.25ZM377.36,55.36c-.37.12-.7-.12-1.19-.62l-1.03-1.03,2.75-2.75c.33-.33.45-.29.86.12l.29.29.49-.49-2.46-2.46-.49.49.2.21c.37.37.58.57.2.94l-2.42,2.42c-.33.33-.53.21-.9-.16l-.2-.21-.45.45,4.23,4.23,1.64-1.64-.49-.49c-.37.37-.66.57-1.03.7ZM371.69,50.27l-1.31-1.31,1.4-1.4.29.29c.49.49.49.66-.16,1.4l.45.45,2.05-2.05-.45-.45c-.66.57-.9.66-1.4.16l-.29-.29,1.23-1.23,1.11,1.11c.82.82.9,1.23,0,2.22l.45.45,1.6-1.6-6.08-6.08-.49.49.29.29c.25.25.29.37.16.49-.08.08-.16.16-.37.29l-2.83,1.27-.04-.04c.66-1.4,1.35-3.08,1.35-3.08.04-.12.08-.16.12-.21.12-.12.25-.08.45.12l.33.33.49-.49-2.18-2.18-.49.49.29.29c.33.33.29.62,0,.99l-2.87,1.23-.04-.04c.74-1.48,1.4-3.12,1.4-3.12,0-.08.08-.08.12-.12.08-.16.25-.08.49.16l.16.16.49-.49-2.05-2.05-.49.49.08.08c.29.29.37.7.12,1.19l-1.85,4.31.74.74,3.16-1.35-1.31,3.2.74.74,4.27-1.97c.53-.21.74-.25,1.11.12l.04.04c.37.37.57.57.2.94l-2.42,2.42c-.33.33-.57.16-.94-.21l-.25-.25-.45.45,4.52,4.52,1.64-1.64-.49-.49c-.86.78-1.36.94-2.09.21ZM382.77,59.06c-.37.37-.66.57-1.03.7-.37.12-.7-.12-1.19-.62l-.99-.99,2.75-2.75c.33-.33.45-.29.82.08l.33.33.49-.49-2.51-2.5-.49.49.29.29c.33.33.49.49.12.86l-2.42,2.42c-.33.33-.49.25-.86-.12l-.08-.08-.45.45,4.07,4.07,1.64-1.64-.49-.49ZM387,64.19c-.95.94-2.01.53-3.08-.53-.66-.66-.94-1.68-.94-1.93l-.58.25-.41-.41,1.64-1.64.49.49c-.66.9-.45,1.77.25,2.55.62.7,1.23.99,1.73.57.62-.45,0-.99-.41-1.56l-.58-.82c-.82-1.23-.9-1.89-.2-2.59.7-.78,1.89-.57,2.79.33.45.45.94,1.11,1.03,1.85l.53-.12.37.37-1.44,1.44-.45-.45c.7-.86.12-1.93-.53-2.59-.53-.45-1.07-.49-1.4-.16-.33.33-.08.66.21,1.11l.74.99c.74,1.07,1.23,1.89.25,2.87Z" fill="#fff"/>
        </g>
      </g>
      <g clip-path="url(#clippath-12)">
        <g>
          <rect x="403.64" y="89.3" width="69.45" height="106.85" rx="8.9" ry="8.9" transform="translate(27.47 351.77) rotate(-45)" fill="#0f5ba7"/>
          <path d="M418.01,109.37c.31.31.31.8,0,1.11l-7.78,7.78c-.31.31-.8.31-1.11,0l-3.95-3.94c-.19-.19-.27-.48-.2-.75l.58-2.32c.03-.14.11-.26.21-.37l4.88-4.88c.1-.1.23-.17.37-.21l2.32-.58c.27-.07.55.01.74.21l3.95,3.94ZM416.9,117.89c.31.31.31.8,0,1.11l-2.96,2.96c-.31.31-.8.31-1.11,0l-1.85-1.85c-.31-.31-.31-.8,0-1.11l2.96-2.96c.31-.31.8-.31,1.11,0l1.85,1.85ZM419.49,122.71c.31.31.31.81,0,1.11l-1.85,1.85c-.31.31-.8.31-1.11,0l-1.85-1.85c-.31-.31-.31-.8,0-1.11l1.85-1.85c.31-.31.8-.31,1.11,0l1.85,1.85ZM425.42,116.78c.31.31.31.8,0,1.11l-4.08,4.07c-.31.31-.8.31-1.11,0l-1.85-1.85c-.31-.31-.31-.8,0-1.11l4.07-4.07c.31-.31.8-.31,1.11,0l1.85,1.85ZM421.72,113.08c.31.31.31.8,0,1.11l-2.96,2.96c-.31.31-.8.31-1.11,0l-1.85-1.85c-.31-.31-.31-.8,0-1.11l2.96-2.96c.31-.31.8-.31,1.11,0l1.85,1.85Z" fill="#0676de"/>
          <path d="M479.65,146.24c-.29-.29-.77-.29-1.06,0l-3.74,3.74,9.88,9.88-.23-8.77-4.84-4.84Z" fill="#fff"/>
          <path d="M483.96,161.35c.29-.29.29-.77,0-1.06l-3.74-3.74-9.88,9.88,8.77-.23,4.85-4.85Z" fill="#fff"/>
          <path d="M468.85,165.65c.29.29.77.29,1.07,0l3.74-3.74-9.88-9.88.23,8.77,4.85,4.85Z" fill="#fff"/>
          <path d="M464.55,150.54c-.29.29-.3.77,0,1.07l3.74,3.74,9.88-9.88-8.77.23-4.84,4.84Z" fill="#fff"/>
        </g>
      </g>
      <g clip-path="url(#clippath-13)">
        <g>
          <rect x="499.34" y="185" width="69.45" height="106.85" rx="8.9" ry="8.9" transform="translate(-12.17 447.47) rotate(-45)" fill="#e31837"/>
          <path d="M513.71,205.07c.31.31.31.8,0,1.11l-7.78,7.78c-.31.31-.81.31-1.11,0l-3.94-3.94c-.2-.2-.27-.48-.21-.75l.58-2.32c.03-.14.11-.26.21-.36l4.88-4.88c.1-.1.23-.17.37-.21l2.32-.58c.27-.07.55.01.75.21l3.95,3.95ZM512.6,213.59c.31.31.31.8,0,1.11l-2.96,2.96c-.31.31-.8.31-1.11,0l-1.85-1.85c-.31-.31-.31-.8,0-1.11l2.96-2.96c.31-.31.8-.31,1.11,0l1.85,1.85ZM515.19,218.4c.31.31.31.8,0,1.11l-1.85,1.85c-.31.31-.8.31-1.11,0l-1.85-1.85c-.31-.31-.31-.81,0-1.11l1.85-1.85c.31-.31.8-.31,1.11,0l1.85,1.85ZM521.12,212.48c.31.31.31.8,0,1.11l-4.07,4.07c-.31.31-.8.31-1.11,0l-1.85-1.85c-.31-.31-.31-.8,0-1.11l4.07-4.07c.31-.31.8-.31,1.11,0l1.85,1.85ZM517.41,208.78c.31.31.31.8,0,1.11l-2.96,2.96c-.31.31-.8.31-1.11,0l-1.85-1.85c-.31-.31-.31-.8,0-1.11l2.96-2.96c.31-.31.8-.31,1.11,0l1.85,1.85Z" fill="#e66166"/>
        </g>
      </g>
      <g clip-path="url(#clippath-14)">
        <rect x="367.99" y="-102.09" width="69.45" height="106.84" rx="8.9" ry="8.9" transform="translate(152.37 270.51) rotate(-45)" fill="#e31837"/>
      </g>
      <g clip-path="url(#clippath-15)">
        <g>
          <rect x="463.69" y="-6.4" width="69.45" height="106.85" rx="8.9" ry="8.9" transform="translate(112.73 366.21) rotate(-45)" fill="#54b948"/>
          <path d="M478.07,13.68c.31.31.31.8,0,1.11l-7.78,7.78c-.31.31-.8.31-1.11,0l-3.94-3.94c-.2-.2-.27-.48-.21-.75l.58-2.32c.04-.14.11-.26.21-.37l4.88-4.88c.1-.1.23-.17.37-.21l2.32-.58c.27-.07.55.01.75.21l3.95,3.94ZM476.96,22.2c.31.31.31.8,0,1.11l-2.96,2.96c-.31.31-.8.31-1.11,0l-1.85-1.85c-.31-.31-.31-.8,0-1.11l2.96-2.96c.31-.31.8-.31,1.11,0l1.85,1.85ZM479.55,27.01c.31.31.31.8,0,1.11l-1.85,1.85c-.31.31-.8.31-1.11,0l-1.85-1.85c-.31-.31-.31-.8,0-1.11l1.85-1.85c.31-.31.8-.31,1.11,0l1.85,1.85ZM485.47,21.08c.31.31.31.8,0,1.11l-4.07,4.07c-.31.31-.8.31-1.11,0l-1.85-1.85c-.31-.31-.31-.8,0-1.11l4.07-4.07c.31-.31.8-.31,1.11,0l1.85,1.85ZM481.77,17.38c.31.31.31.8,0,1.11l-2.96,2.96c-.31.31-.8.31-1.11,0l-1.85-1.85c-.31-.31-.31-.8,0-1.11l2.96-2.96c.31-.31.8-.31,1.11,0l1.85,1.85Z" fill="#fffaf0" isolation="isolate" opacity=".3"/>
          <path d="M527.56,45.26l1.54-1.54,12.34,12.34c2.47,2.47,3.92,5.64-.77,10.33-4.69,4.69-7.86,3.55-10.02,1.39l-5.86-5.86,9.1-9.1,2.62,2.62-7.56,7.56,2.78,2.78c.77.57,3.08.93,6.17-2.16,3.08-3.08,2.62-5.29,2.01-6.01l-6.01-6.01-9.72,9.71-2.62-2.62,9.71-9.71-3.7-3.7Z" fill="#fff"/>
        </g>
      </g>
      <g clip-path="url(#clippath-16)">
        <g>
          <rect x="559.39" y="89.3" width="69.45" height="106.85" rx="8.9" ry="8.9" transform="translate(73.09 461.91) rotate(-45)" fill="#0281c4"/>
          <path d="M573.76,109.37c.31.31.31.8,0,1.11l-7.78,7.78c-.31.31-.8.31-1.11,0l-3.95-3.94c-.2-.19-.27-.48-.21-.75l.58-2.32c.03-.14.1-.26.21-.37l4.88-4.88c.1-.1.23-.17.37-.21l2.32-.58c.27-.07.55.01.74.21l3.95,3.94ZM572.65,117.89c.31.31.31.8,0,1.11l-2.96,2.96c-.31.31-.81.31-1.11,0l-1.85-1.85c-.31-.31-.31-.8,0-1.11l2.96-2.96c.31-.31.8-.31,1.11,0l1.85,1.85ZM575.24,122.71c.31.31.31.81,0,1.11l-1.85,1.85c-.31.31-.8.31-1.11,0l-1.85-1.85c-.31-.31-.31-.8,0-1.11l1.85-1.85c.31-.31.8-.31,1.11,0l1.85,1.85ZM581.17,116.78c.31.31.31.8,0,1.11l-4.08,4.07c-.31.31-.8.31-1.11,0l-1.85-1.85c-.31-.31-.31-.8,0-1.11l4.07-4.07c.31-.31.8-.31,1.11,0l1.85,1.85ZM577.47,113.08c.31.31.31.8,0,1.11l-2.96,2.96c-.31.31-.8.31-1.11,0l-1.85-1.85c-.31-.31-.31-.8,0-1.11l2.96-2.96c.31-.31.8-.31,1.11,0l1.85,1.85Z" fill="#4da7d5"/>
          <path d="M620.64,152.98h-.07c-1.15,0-2.12-.34-2.8-1.02-1.42-1.42-1.38-3.51.09-4.98,1.46-1.47,3.56-1.5,4.98-.08.68.68,1.03,1.65,1.02,2.8v.07s2.02-.19,2.02-.19v-.05c.14-1.65-.33-3-1.45-4.12-1.12-1.12-2.53-1.77-3.95-1.83-1.54-.07-3.01.55-4.24,1.78-1.23,1.23-1.85,2.7-1.79,4.24.05,1.42.71,2.83,1.83,3.95,1.12,1.12,2.47,1.59,4.12,1.46h.05s.19-2.02.19-2.02Z" fill="#fff"/>
          <path d="M620.15,157.13l1.61,1.61,7.87-7.87-1.61-1.61-7.87,7.87Z" fill="#fff"/>
          <path d="M629.79,163.35c-.69-.17-1.22-.44-1.58-.79-.52-.52-.48-1.03.13-1.64l4.18-4.18,1.64,1.64,1.48-1.48-1.64-1.64,2.45-2.45-2.42-.73-1.6,1.6-1.36-1.36-1.48,1.48,1.36,1.36-4.44,4.44c-1.21,1.21-1.32,2.75-.27,3.85.71.74,1.37.96,1.79,1.07h.03s1.9-1.12,1.9-1.12l-.15-.04Z" fill="#fff"/>
          <path d="M629.41,166.39l1.61,1.61,7.87-7.87-1.61-1.61-7.87,7.87Z" fill="#fff"/>
          <path d="M641.21,159.7c.61-3.56-.59-7.25-3.08-9.73-2.49-2.49-6.17-3.69-9.73-3.07l-.18.03,1.85,1.85h.04c2.56-.04,4.9.92,6.59,2.61,1.69,1.69,2.65,4.03,2.61,6.6v.04s1.85,1.85,1.85,1.85l.03-.18Z" fill="#ee1c25"/>
        </g>
      </g>
      <g clip-path="url(#clippath-17)">
        <g>
          <rect x="655.09" y="185" width="69.45" height="106.85" rx="8.9" ry="8.9" transform="translate(33.45 557.6) rotate(-45)" fill="#722b03"/>
          <path d="M669.46,205.07c.31.31.31.8,0,1.11l-7.78,7.78c-.31.31-.8.31-1.11,0l-3.95-3.94c-.2-.2-.27-.48-.21-.75l.58-2.32c.03-.14.11-.26.21-.36l4.88-4.88c.1-.1.23-.17.36-.21l2.32-.58c.27-.07.55.01.74.21l3.95,3.95ZM668.35,213.59c.31.31.31.8,0,1.11l-2.96,2.96c-.31.31-.8.31-1.11,0l-1.85-1.85c-.31-.31-.31-.8,0-1.11l2.96-2.96c.31-.31.8-.31,1.11,0l1.85,1.85ZM670.94,218.4c.31.31.31.8,0,1.11l-1.85,1.85c-.31.31-.8.31-1.11,0l-1.85-1.85c-.31-.31-.31-.81,0-1.11l1.85-1.85c.31-.31.8-.31,1.11,0l1.85,1.85ZM676.87,212.48c.31.31.31.8,0,1.11l-4.07,4.07c-.31.31-.8.31-1.11,0l-1.85-1.85c-.31-.31-.31-.8,0-1.11l4.07-4.07c.31-.31.8-.31,1.11,0l1.85,1.85ZM673.16,208.78c.31.31.31.8,0,1.11l-2.96,2.96c-.31.31-.8.31-1.11,0l-1.85-1.85c-.31-.31-.31-.8,0-1.11l2.96-2.96c.31-.31.8-.31,1.11,0l1.85,1.85Z" fill="#fff" fill-opacity=".2"/>
        </g>
      </g>
      <g clip-path="url(#clippath-18)">
        <rect x="523.75" y="-102.09" width="69.45" height="106.84" rx="8.9" ry="8.9" transform="translate(197.99 380.64) rotate(-45)" fill="#0f5ba7"/>
      </g>
      <g clip-path="url(#clippath-19)">
        <g>
          <rect x="619.44" y="-6.4" width="69.45" height="106.84" rx="8.9" ry="8.9" transform="translate(158.35 476.34) rotate(-45)" fill="#0f5ba7"/>
          <path d="M633.82,13.68c.31.31.31.8,0,1.11l-7.78,7.78c-.31.31-.8.31-1.11,0l-3.95-3.94c-.2-.2-.27-.48-.21-.75l.58-2.32c.04-.14.11-.26.21-.37l4.88-4.88c.1-.1.23-.17.36-.21l2.32-.58c.27-.07.55.01.75.21l3.95,3.94ZM632.71,22.19c.31.31.31.8,0,1.11l-2.96,2.96c-.31.31-.8.31-1.11,0l-1.85-1.85c-.31-.31-.31-.8,0-1.11l2.96-2.96c.31-.31.8-.31,1.11,0l1.85,1.85ZM635.3,27.01c.31.31.31.8,0,1.11l-1.85,1.85c-.31.31-.8.31-1.11,0l-1.85-1.85c-.31-.31-.31-.8,0-1.11l1.85-1.85c.31-.31.8-.31,1.11,0l1.85,1.85ZM641.22,21.08c.31.31.31.8,0,1.11l-4.07,4.07c-.31.31-.8.31-1.11,0l-1.85-1.85c-.31-.31-.31-.8,0-1.11l4.07-4.07c.31-.31.8-.31,1.11,0l1.85,1.85ZM637.52,17.38c.31.31.31.8,0,1.11l-2.96,2.96c-.31.31-.8.31-1.11,0l-1.85-1.85c-.31-.31-.31-.8,0-1.11l2.96-2.96c.31-.31.8-.31,1.11,0l1.85,1.85Z" fill="#0676de"/>
          <path d="M684.65,69.95c.29.29.77.29,1.07,0l3.74-3.74-9.88-9.88.23,8.77,4.85,4.85Z" fill="#fff"/>
          <path d="M680.35,54.84c-.29.29-.3.77,0,1.07l3.74,3.74,9.88-9.88-8.77.23-4.85,4.84Z" fill="#fff"/>
        </g>
      </g>
    </g>
  </g>
</svg>