<?xml version="1.0" encoding="UTF-8"?>
<svg id="Layer_1" xmlns="http://www.w3.org/2000/svg" xmlns:xlink="http://www.w3.org/1999/xlink" version="1.1" viewBox="0 0 680 220">
  <!-- Generator: Adobe Illustrator 30.1.0, SVG Export Plug-In . SVG Version: 2.1.1 Build 136)  -->
  <defs>
    <clipPath id="clippath">
      <rect width="680" height="220" fill="none"/>
    </clipPath>
    <clipPath id="clippath-1">
      <rect x="92.14" y="89.3" width="69.45" height="106.84" rx="8.9" ry="8.9" transform="translate(-63.76 131.51) rotate(-45)" fill="none"/>
    </clipPath>
    <clipPath id="clippath-2">
      <path d="M431.44,86.69l62.96,62.96c3.48,3.48,3.48,9.11,0,12.59l-36.52,36.52c-3.48,3.48-9.11,3.48-12.59,0l-62.96-62.96c-3.48-3.48-3.48-9.11,0-12.59l36.52-36.52c3.48-3.48,9.11-3.48,12.59,0Z" fill="none"/>
    </clipPath>
    <clipPath id="clippath-3">
      <rect x="466.51" y="136.76" width="15.16" height="29.28" transform="translate(31.8 379.58) rotate(-45)" fill="none"/>
    </clipPath>
  </defs>
  <g clip-path="url(#clippath)">
    <g>
      <rect x="-63.61" y="89.3" width="69.45" height="106.84" rx="8.9" ry="8.9" transform="translate(-109.38 21.38) rotate(-45)" fill="#016fd0"/>
      <rect x="32.08" y="185" width="69.45" height="106.84" rx="8.9" ry="8.9" transform="translate(-149.02 117.07) rotate(-45)" fill="#49225b"/>
      <path d="M46.46,205.07c.31.31.31.8,0,1.11l-7.78,7.78c-.31.31-.8.31-1.11,0l-3.95-3.94c-.19-.2-.27-.48-.21-.75l.58-2.32c.03-.14.11-.26.21-.36l4.88-4.88c.1-.1.23-.17.36-.21l2.32-.58c.27-.07.55.01.75.21l3.94,3.95ZM45.35,213.59c.31.31.31.8,0,1.11l-2.96,2.96c-.31.31-.8.31-1.11,0l-1.85-1.85c-.31-.31-.31-.8,0-1.11l2.96-2.96c.31-.31.8-.31,1.11,0l1.85,1.85ZM47.94,218.4c.31.31.31.8,0,1.11l-1.85,1.85c-.31.31-.8.31-1.11,0l-1.85-1.85c-.31-.31-.31-.81,0-1.11l1.85-1.85c.31-.31.8-.31,1.11,0l1.85,1.85ZM53.87,212.48c.31.31.31.8,0,1.11l-4.07,4.07c-.31.31-.8.31-1.11,0l-1.85-1.85c-.31-.31-.31-.8,0-1.11l4.07-4.07c.31-.31.8-.31,1.11,0l1.85,1.85ZM50.16,208.78c.31.31.31.8,0,1.11l-2.96,2.96c-.31.31-.8.31-1.11,0l-1.85-1.85c-.31-.31-.31-.8,0-1.11l2.96-2.96c.31-.31.8-.31,1.11,0l1.85,1.85Z" fill="#fffaf0" isolation="isolate" opacity=".3"/>
      <rect x="-3.56" y="-6.4" width="69.45" height="106.84" rx="8.9" ry="8.9" transform="translate(-24.12 35.81) rotate(-45)" fill="#0f5ba7"/>
      <path d="M10.82,13.68c.31.31.31.8,0,1.11l-7.78,7.78c-.31.31-.8.31-1.11,0l-3.95-3.94c-.19-.2-.27-.48-.21-.75l.58-2.32c.03-.14.11-.26.21-.37l4.88-4.88c.1-.1.23-.17.36-.21l2.32-.58c.27-.07.55.01.75.21l3.95,3.94ZM9.7,22.2c.31.31.31.8,0,1.11l-2.96,2.96c-.31.31-.8.31-1.11,0l-1.85-1.85c-.31-.31-.31-.8,0-1.11l2.96-2.96c.31-.31.8-.31,1.11,0l1.85,1.85ZM12.3,27.01c.31.31.31.8,0,1.11l-1.85,1.85c-.31.31-.8.31-1.11,0l-1.85-1.85c-.31-.31-.31-.8,0-1.11l1.85-1.85c.31-.31.8-.31,1.11,0l1.85,1.85ZM18.22,21.08c.31.31.31.8,0,1.11l-4.07,4.07c-.31.31-.8.31-1.11,0l-1.85-1.85c-.31-.31-.31-.8,0-1.11l4.07-4.07c.31-.31.8-.31,1.11,0l1.85,1.85ZM14.52,17.38c.31.31.31.8,0,1.11l-2.96,2.96c-.31.31-.8.31-1.11,0l-1.85-1.85c-.31-.31-.31-.8,0-1.11l2.96-2.96c.31-.31.8-.31,1.11,0l1.85,1.85Z" fill="#fffaf0" isolation="isolate" opacity=".3"/>
      <g clip-path="url(#clippath-1)">
        <g>
          <rect x="92.14" y="89.3" width="69.45" height="106.84" rx="8.9" ry="8.9" transform="translate(-63.76 131.51) rotate(-45)" fill="#780505"/>
          <path d="M164.36,144.94l5.62,5.62-9.18,9.18-5.62-5.62,9.18-9.18Z" fill="#ff5f00"/>
          <path d="M160.35,150.11c1.79-1.79,4.3-2.66,6.82-2.36-.54-4.53-4.65-7.76-9.18-7.21-4.53.54-7.76,4.65-7.21,9.18.45,3.78,3.43,6.76,7.21,7.21-.3-2.51.57-5.03,2.36-6.82h0Z" fill="#eb001b"/>
          <path d="M172.02,161.78c-3.22,3.22-8.45,3.22-11.67,0-1.31-1.31-2.14-3.02-2.36-4.86,4.53.54,8.64-2.69,9.18-7.21.08-.65.08-1.31,0-1.96,4.53.54,7.76,4.65,7.22,9.18-.22,1.84-1.05,3.55-2.36,4.85h0Z" fill="#f79e1b"/>
          <path d="M106.51,109.37c.31.31.31.8,0,1.11l-7.78,7.78c-.31.31-.8.31-1.11,0l-3.95-3.94c-.19-.19-.27-.48-.21-.75l.58-2.32c.03-.14.11-.26.21-.37l4.88-4.88c.1-.1.23-.17.37-.21l2.32-.58c.27-.07.55.01.75.21l3.94,3.94ZM105.4,117.89c.31.31.31.8,0,1.11l-2.96,2.96c-.31.31-.8.31-1.11,0l-1.85-1.85c-.31-.31-.31-.8,0-1.11l2.96-2.96c.31-.31.8-.31,1.11,0l1.85,1.85ZM107.99,122.71c.31.31.31.81,0,1.11l-1.85,1.85c-.31.31-.8.31-1.11,0l-1.85-1.85c-.31-.31-.31-.8,0-1.11l1.85-1.85c.31-.31.8-.31,1.11,0l1.85,1.85ZM113.92,116.78c.31.31.31.8,0,1.11l-4.07,4.07c-.31.31-.8.31-1.11,0l-1.85-1.85c-.31-.31-.31-.8,0-1.11l4.07-4.07c.31-.31.8-.31,1.11,0l1.85,1.85ZM110.21,113.08c.31.31.31.8,0,1.11l-2.96,2.96c-.31.31-.8.31-1.11,0l-1.85-1.85c-.31-.31-.31-.8,0-1.11l2.96-2.96c.31-.31.8-.31,1.11,0l1.85,1.85Z" fill="#400000"/>
        </g>
      </g>
      <rect x="187.83" y="185" width="69.45" height="106.84" rx="8.9" ry="8.9" transform="translate(-103.4 227.21) rotate(-45)" fill="#ff7101"/>
      <path d="M202.21,205.07c.31.31.31.8,0,1.11l-7.78,7.78c-.31.31-.8.31-1.11,0l-3.95-3.94c-.19-.2-.27-.48-.21-.75l.58-2.32c.03-.14.11-.26.21-.36l4.88-4.88c.1-.1.23-.17.36-.21l2.32-.58c.27-.07.55.01.75.21l3.95,3.95ZM201.1,213.59c.31.31.31.8,0,1.11l-2.96,2.96c-.31.31-.8.31-1.11,0l-1.85-1.85c-.31-.31-.31-.8,0-1.11l2.96-2.96c.31-.31.8-.31,1.11,0l1.85,1.85ZM203.69,218.4c.31.31.31.8,0,1.11l-1.85,1.85c-.31.31-.8.31-1.11,0l-1.85-1.85c-.31-.31-.31-.81,0-1.11l1.85-1.85c.31-.31.8-.31,1.11,0l1.85,1.85ZM209.62,212.48c.31.31.31.8,0,1.11l-4.07,4.07c-.31.31-.8.31-1.11,0l-1.85-1.85c-.31-.31-.31-.8,0-1.11l4.07-4.07c.31-.31.8-.31,1.11,0l1.85,1.85ZM205.91,208.78c.31.31.31.8,0,1.11l-2.96,2.96c-.31.31-.8.31-1.11,0l-1.85-1.85c-.31-.31-.31-.8,0-1.11l2.96-2.96c.31-.31.8-.31,1.11,0l1.85,1.85Z" fill="#fffaf0" isolation="isolate" opacity=".3"/>
      <rect x="56.49" y="-102.09" width="69.45" height="106.84" rx="8.9" ry="8.9" transform="translate(61.13 50.25) rotate(-45)" fill="#008c59"/>
      <rect x="152.19" y="-6.4" width="69.45" height="106.84" rx="8.9" ry="8.9" transform="translate(21.49 145.94) rotate(-45)" fill="#004989"/>
      <path d="M166.57,13.68c.31.31.31.8,0,1.11l-7.78,7.78c-.31.31-.8.31-1.11,0l-3.95-3.94c-.19-.2-.27-.48-.21-.75l.58-2.32c.04-.14.11-.26.21-.37l4.88-4.88c.1-.1.23-.17.36-.21l2.32-.58c.27-.07.55.01.75.21l3.94,3.94ZM165.45,22.2c.31.31.31.8,0,1.11l-2.96,2.96c-.31.31-.8.31-1.11,0l-1.85-1.85c-.31-.31-.31-.8,0-1.11l2.96-2.96c.31-.31.8-.31,1.11,0l1.85,1.85ZM168.05,27.01c.31.31.31.8,0,1.11l-1.85,1.85c-.31.31-.8.31-1.11,0l-1.85-1.85c-.31-.31-.31-.8,0-1.11l1.85-1.85c.31-.31.8-.31,1.11,0l1.85,1.85ZM173.97,21.08c.31.31.31.8,0,1.11l-4.07,4.07c-.31.31-.8.31-1.11,0l-1.85-1.85c-.31-.31-.31-.8,0-1.11l4.07-4.07c.31-.31.8-.31,1.11,0l1.85,1.85ZM170.27,17.38c.31.31.31.8,0,1.11l-2.96,2.96c-.31.31-.8.31-1.11,0l-1.85-1.85c-.31-.31-.31-.8,0-1.11l2.96-2.96c.31-.31.8-.31,1.11,0l1.85,1.85Z" fill="#fffaf0" isolation="isolate" opacity=".3"/>
      <rect x="247.89" y="89.3" width="69.45" height="106.84" rx="8.9" ry="8.9" transform="translate(-18.15 241.64) rotate(-45)" fill="#e31837"/>
      <path d="M262.26,109.37c.31.31.31.8,0,1.11l-7.78,7.78c-.31.31-.8.31-1.11,0l-3.94-3.94c-.2-.19-.27-.48-.21-.75l.58-2.32c.03-.14.1-.26.21-.37l4.88-4.88c.1-.1.23-.17.37-.21l2.32-.58c.27-.07.55.01.75.21l3.95,3.94ZM261.15,117.89c.31.31.31.8,0,1.11l-2.96,2.96c-.31.31-.8.31-1.11,0l-1.85-1.85c-.31-.31-.31-.8,0-1.11l2.96-2.96c.31-.31.8-.31,1.11,0l1.85,1.85ZM263.74,122.71c.31.31.31.81,0,1.11l-1.85,1.85c-.31.31-.8.31-1.11,0l-1.85-1.85c-.31-.31-.31-.8,0-1.11l1.85-1.85c.31-.31.8-.31,1.11,0l1.85,1.85ZM269.67,116.78c.31.31.31.8,0,1.11l-4.08,4.07c-.31.31-.8.31-1.11,0l-1.85-1.85c-.31-.31-.31-.8,0-1.11l4.07-4.07c.31-.31.8-.31,1.11,0l1.85,1.85ZM265.97,113.08c.31.31.31.8,0,1.11l-2.96,2.96c-.31.31-.8.31-1.11,0l-1.85-1.85c-.31-.31-.31-.81,0-1.11l2.96-2.96c.31-.31.8-.31,1.11,0l1.85,1.85Z" fill="#fffaf0" isolation="isolate" opacity=".3"/>
      <rect x="343.59" y="185" width="69.45" height="106.84" rx="8.9" ry="8.9" transform="translate(-57.79 337.34) rotate(-45)" fill="#0281c4"/>
      <path d="M357.96,205.07c.31.31.31.8,0,1.11l-7.78,7.78c-.31.31-.8.31-1.11,0l-3.95-3.94c-.2-.2-.27-.48-.21-.75l.58-2.32c.03-.14.11-.26.21-.36l4.88-4.88c.1-.1.23-.17.36-.21l2.32-.58c.27-.07.55.01.75.21l3.95,3.95ZM356.85,213.59c.31.31.31.8,0,1.11l-2.96,2.96c-.31.31-.8.31-1.11,0l-1.85-1.85c-.31-.31-.31-.8,0-1.11l2.96-2.96c.31-.31.8-.31,1.11,0l1.85,1.85ZM359.44,218.4c.31.31.31.8,0,1.11l-1.85,1.85c-.31.31-.8.31-1.11,0l-1.85-1.85c-.31-.31-.31-.81,0-1.11l1.85-1.85c.31-.31.8-.31,1.11,0l1.85,1.85ZM365.37,212.48c.31.31.31.8,0,1.11l-4.07,4.07c-.31.31-.8.31-1.11,0l-1.85-1.85c-.31-.31-.31-.8,0-1.11l4.07-4.07c.31-.31.8-.31,1.11,0l1.85,1.85ZM361.67,208.78c.31.31.31.8,0,1.11l-2.96,2.96c-.31.31-.8.31-1.11,0l-1.85-1.85c-.31-.31-.31-.8,0-1.11l2.96-2.96c.31-.31.8-.31,1.11,0l1.85,1.85Z" fill="#fffaf0" isolation="isolate" opacity=".3"/>
      <rect x="212.24" y="-102.09" width="69.45" height="106.85" rx="8.9" ry="8.9" transform="translate(106.75 160.38) rotate(-45)" fill="#016fd0"/>
      <rect x="307.94" y="-6.4" width="69.45" height="106.84" rx="8.9" ry="8.9" transform="translate(67.11 256.08) rotate(-45)" fill="#dd1e25"/>
      <path d="M322.32,13.68c.31.31.31.8,0,1.11l-7.78,7.78c-.31.31-.8.31-1.11,0l-3.94-3.94c-.2-.2-.27-.48-.21-.75l.58-2.32c.04-.14.11-.26.21-.37l4.88-4.88c.1-.1.23-.17.37-.21l2.32-.58c.27-.07.55.01.75.21l3.95,3.94ZM321.21,22.2c.31.31.31.8,0,1.11l-2.96,2.96c-.31.31-.8.31-1.11,0l-1.85-1.85c-.31-.31-.31-.8,0-1.11l2.96-2.96c.31-.31.8-.31,1.11,0l1.85,1.85ZM323.8,27.01c.31.31.31.8,0,1.11l-1.85,1.85c-.31.31-.8.31-1.11,0l-1.85-1.85c-.31-.31-.31-.8,0-1.11l1.85-1.85c.31-.31.8-.31,1.11,0l1.85,1.85ZM329.72,21.08c.31.31.31.8,0,1.11l-4.07,4.07c-.31.31-.8.31-1.11,0l-1.85-1.85c-.31-.31-.31-.8,0-1.11l4.07-4.07c.31-.31.8-.31,1.11,0l1.85,1.85ZM326.02,17.38c.31.31.31.8,0,1.11l-2.96,2.96c-.31.31-.8.31-1.11,0l-1.85-1.85c-.31-.31-.31-.8,0-1.11l2.96-2.96c.31-.31.8-.31,1.11,0l1.85,1.85Z" fill="#fffaf0" isolation="isolate" opacity=".3"/>
      <g clip-path="url(#clippath-2)">
        <g>
          <rect x="403.64" y="89.3" width="69.45" height="106.85" rx="8.9" ry="8.9" transform="translate(27.47 351.77) rotate(-45)" fill="#003c73"/>
          <g clip-path="url(#clippath-3)">
            <g>
              <path d="M479.17,146.13l-7.81,5.06-1.66-1.66,7.81-5.06,1.66,1.66ZM482.02,157.28l3.29-1.54-1.91,2.92-1.38-1.38ZM481.59,161.42l1.54,1.54,5.09-7.77-1.42-1.42c-.32-.32-.77-.4-1.18-.24l-8.46,3.46,1.75,1.75,1.31-.61,2.13,2.13-.76,1.16ZM479.35,154.97c1.7-1.69-.56-4.14.22-4.88.24-.23.7-.25,1.24.17.27.21.95.84,1.35,1.93l1.66-1.07c-.25-.55-.63-1.2-1.27-1.84-1.64-1.64-3.68-1.93-4.94-.69-.94.91-.62,2.27-.29,3.21.33.96.35,1.38.06,1.66-.44.43-1.14.1-1.62-.37-.85-.82-1.1-1.55-1.3-2.12l-1.71,1.11c.21.57.77,1.44,1.51,2.19,1.75,1.75,3.76,2.03,5.1.7ZM476.79,143.75l-9.13,3.74-1.76-1.76,3.81-6.46c.24-.4.28-.58.17-.96-.18-.62-.64-1.48-1.1-2.19l.23-.15,2.83,2.83c.36.36.45.93.11,1.42l-3.02,4.42,6.11-2.65,1.75,1.75h0Z" fill="#fff"/>
              <path d="M464.26,151.58c-.15-.05-.42-.21-.69-.48-.62-.62-.69-1.48.03-2.21.69-.69,1.63-.69,2.31,0,.27.27.39.51.43.62l-.3.16c-.05-.16-.17-.35-.35-.53-.52-.52-1.19-.53-1.77.05-.54.54-.58,1.2-.04,1.73.18.18.39.32.56.38l-.17.28Z" fill="#fff"/>
              <path d="M465.56,151.44c-.35.35-.41.8-.13,1.09s.74.22,1.1-.13c.27-.27.47-.74.13-1.08s-.8-.17-1.1.13ZM466.83,152.67c-.58.59-1.25.43-1.63.05-.42-.43-.44-1.07.06-1.57.53-.53,1.19-.49,1.62-.05.45.45.43,1.09-.05,1.57Z" fill="#fff"/>
              <path d="M467.62,152.77c.17-.17.29-.3.42-.44l.25.25-.25.27h0c.24-.05.53-.05.79.22.21.21.24.51.13.76h0c.14-.04.27-.04.39-.02.17.02.31.09.46.24.21.21.39.66-.16,1.21l-.93.93-.28-.28.89-.89c.31-.31.37-.6.14-.83-.17-.17-.41-.17-.6-.09-.06.03-.11.07-.17.12l-.98.98-.28-.28.95-.95c.25-.25.32-.54.1-.76-.18-.18-.46-.17-.64-.07-.06.02-.11.07-.16.12l-.95.95-.28-.28,1.15-1.15h0Z" fill="#fff"/>
              <path d="M470.43,155.58c.17-.17.29-.3.41-.44l.25.25-.24.27h0c.24-.05.53-.05.79.22.21.21.25.51.13.76h0c.14-.04.27-.04.39-.02.17.02.31.08.46.24.21.21.39.66-.16,1.21l-.93.93-.28-.28.89-.89c.31-.31.37-.6.14-.83-.17-.17-.41-.17-.6-.09-.06.03-.12.07-.17.12l-.98.98-.28-.28.95-.95c.25-.25.32-.54.1-.76-.18-.18-.46-.17-.65-.07-.06.02-.11.07-.16.12l-.95.95-.28-.28,1.15-1.15Z" fill="#fff"/>
              <path d="M474.04,159.6c.18-.18.39-.54.07-.86-.3-.29-.68-.15-.91.02l.84.84ZM472.99,158.96c-.38.4-.3.8,0,1.09.21.21.37.3.52.36l-.15.26c-.15-.06-.38-.18-.63-.43-.49-.49-.45-1.1.02-1.58.48-.48,1.13-.57,1.59-.11.52.52.2,1.11-.09,1.4-.06.06-.1.1-.14.12l-1.11-1.11Z" fill="#fff"/>
              <path d="M474.9,160.18c.19-.19.34-.35.48-.51l.25.25-.3.33h.01c.29-.13.6-.09.79.11.03.03.05.05.07.08l-.27.27s-.05-.06-.09-.1c-.2-.2-.5-.2-.75-.02-.05.03-.1.08-.14.12l-.84.84-.29-.29,1.09-1.09Z" fill="#fff"/>
              <path d="M476.11,163.46c-.11-.04-.33-.15-.55-.36-.48-.48-.46-1.11.02-1.6s1.18-.51,1.69,0c.17.17.28.36.32.48l-.29.15c-.03-.1-.1-.25-.26-.41-.36-.36-.83-.29-1.16.04-.37.37-.36.83-.04,1.14.16.16.31.23.43.28l-.17.26Z" fill="#fff"/>
              <path d="M476.48,163.93l1.58-1.58.29.29-1.58,1.58-.29-.29h0ZM478.82,162.22c-.1.1-.25.11-.36,0-.11-.1-.1-.25,0-.35.1-.1.25-.11.36,0,.11.1.1.25,0,.36Z" fill="#fff"/>
              <path d="M478.96,164.81c-.31-.32-.72-.62-1.03-.31-.19.19-.15.4,0,.54.21.21.48.21.65.12.04-.02.08-.05.11-.08l.27-.27ZM478.81,165.51c-.14.14-.27.28-.36.4l-.26-.26.18-.22h-.01c-.21.03-.49-.03-.72-.26-.32-.32-.26-.71-.03-.94.38-.38.93-.25,1.54.36l.03-.03c.13-.13.33-.4,0-.72-.15-.15-.35-.26-.53-.3l.13-.26c.21.05.46.19.66.39.48.48.27.93-.04,1.25l-.59.59h0Z" fill="#fff"/>
              <path d="M481.3,164.12l.29.29-2.32,2.32-.29-.29,2.32-2.32Z" fill="#fff"/>
            </g>
          </g>
          <path d="M418.01,109.37c.31.31.31.8,0,1.11l-7.78,7.78c-.31.31-.8.31-1.11,0l-3.95-3.94c-.19-.19-.27-.48-.2-.75l.58-2.32c.03-.14.11-.26.21-.37l4.88-4.88c.1-.1.23-.17.37-.21l2.32-.58c.27-.07.55.01.74.21l3.95,3.94ZM416.9,117.89c.31.31.31.8,0,1.11l-2.96,2.96c-.31.31-.8.31-1.11,0l-1.85-1.85c-.31-.31-.31-.8,0-1.11l2.96-2.96c.31-.31.8-.31,1.11,0l1.85,1.85ZM419.49,122.71c.31.31.31.81,0,1.11l-1.85,1.85c-.31.31-.8.31-1.11,0l-1.85-1.85c-.31-.31-.31-.8,0-1.11l1.85-1.85c.31-.31.8-.31,1.11,0l1.85,1.85ZM425.42,116.78c.31.31.31.8,0,1.11l-4.08,4.07c-.31.31-.8.31-1.11,0l-1.85-1.85c-.31-.31-.31-.8,0-1.11l4.07-4.07c.31-.31.8-.31,1.11,0l1.85,1.85ZM421.72,113.08c.31.31.31.8,0,1.11l-2.96,2.96c-.31.31-.8.31-1.11,0l-1.85-1.85c-.31-.31-.31-.8,0-1.11l2.96-2.96c.31-.31.8-.31,1.11,0l1.85,1.85Z" fill="#0676de"/>
        </g>
      </g>
      <rect x="499.34" y="185" width="69.45" height="106.85" rx="8.9" ry="8.9" transform="translate(-12.17 447.47) rotate(-45)" fill="#008c59"/>
      <path d="M513.71,205.07c.31.31.31.8,0,1.11l-7.78,7.78c-.31.31-.8.31-1.11,0l-3.95-3.94c-.2-.2-.27-.48-.21-.75l.58-2.32c.03-.14.11-.26.21-.36l4.88-4.88c.1-.1.23-.17.36-.21l2.32-.58c.27-.07.55.01.75.21l3.94,3.95ZM512.6,213.59c.31.31.31.8,0,1.11l-2.96,2.96c-.31.31-.8.31-1.11,0l-1.85-1.85c-.31-.31-.31-.8,0-1.11l2.96-2.96c.31-.31.8-.31,1.11,0l1.85,1.85ZM515.19,218.4c.31.31.31.8,0,1.11l-1.85,1.85c-.31.31-.8.31-1.11,0l-1.85-1.85c-.31-.31-.31-.81,0-1.11l1.85-1.85c.31-.31.8-.31,1.11,0l1.85,1.85ZM521.12,212.48c.31.31.31.8,0,1.11l-4.07,4.07c-.31.31-.8.31-1.11,0l-1.85-1.85c-.31-.31-.31-.8,0-1.11l4.07-4.07c.31-.31.8-.31,1.11,0l1.85,1.85ZM517.41,208.78c.31.31.31.8,0,1.11l-2.96,2.96c-.31.31-.8.31-1.11,0l-1.85-1.85c-.31-.31-.31-.8,0-1.11l2.96-2.96c.31-.31.8-.31,1.11,0l1.85,1.85Z" fill="#fffaf0" isolation="isolate" opacity=".3"/>
      <rect x="367.99" y="-102.09" width="69.45" height="106.84" rx="8.9" ry="8.9" transform="translate(152.37 270.51) rotate(-45)" fill="#f25730"/>
      <rect x="463.69" y="-6.4" width="69.45" height="106.85" rx="8.9" ry="8.9" transform="translate(112.73 366.21) rotate(-45)" fill="#0281c4"/>
      <path d="M478.07,13.68c.31.31.31.8,0,1.11l-7.78,7.78c-.31.31-.8.31-1.11,0l-3.94-3.94c-.2-.2-.27-.48-.21-.75l.58-2.32c.04-.14.11-.26.21-.37l4.88-4.88c.1-.1.23-.17.37-.21l2.32-.58c.27-.07.55.01.75.21l3.95,3.94ZM476.96,22.2c.31.31.31.8,0,1.11l-2.96,2.96c-.31.31-.8.31-1.11,0l-1.85-1.85c-.31-.31-.31-.8,0-1.11l2.96-2.96c.31-.31.8-.31,1.11,0l1.85,1.85ZM479.55,27.01c.31.31.31.8,0,1.11l-1.85,1.85c-.31.31-.8.31-1.11,0l-1.85-1.85c-.31-.31-.31-.8,0-1.11l1.85-1.85c.31-.31.8-.31,1.11,0l1.85,1.85ZM485.47,21.08c.31.31.31.8,0,1.11l-4.07,4.07c-.31.31-.8.31-1.11,0l-1.85-1.85c-.31-.31-.31-.8,0-1.11l4.07-4.07c.31-.31.8-.31,1.11,0l1.85,1.85ZM481.77,17.38c.31.31.31.8,0,1.11l-2.96,2.96c-.31.31-.8.31-1.11,0l-1.85-1.85c-.31-.31-.31-.8,0-1.11l2.96-2.96c.31-.31.8-.31,1.11,0l1.85,1.85Z" fill="#fffaf0" isolation="isolate" opacity=".3"/>
      <rect x="559.39" y="89.3" width="69.45" height="106.85" rx="8.9" ry="8.9" transform="translate(73.09 461.91) rotate(-45)" fill="#635bff"/>
      <path d="M573.77,109.37c.31.31.31.8,0,1.11l-7.78,7.78c-.31.31-.8.31-1.11,0l-3.94-3.94c-.2-.19-.27-.48-.21-.75l.58-2.32c.03-.14.1-.26.21-.37l4.88-4.88c.1-.1.23-.17.37-.21l2.32-.58c.27-.07.55.01.75.21l3.95,3.94ZM572.65,117.89c.31.31.31.8,0,1.11l-2.96,2.96c-.31.31-.8.31-1.11,0l-1.85-1.85c-.31-.31-.31-.8,0-1.11l2.96-2.96c.31-.31.8-.31,1.11,0l1.85,1.85ZM575.25,122.71c.31.31.31.81,0,1.11l-1.85,1.85c-.31.31-.8.31-1.11,0l-1.85-1.85c-.31-.31-.31-.8,0-1.11l1.85-1.85c.31-.31.8-.31,1.11,0l1.85,1.85ZM581.17,116.78c.31.31.31.8,0,1.11l-4.07,4.07c-.31.31-.8.31-1.11,0l-1.85-1.85c-.31-.31-.31-.8,0-1.11l4.07-4.07c.31-.31.8-.31,1.11,0l1.85,1.85ZM577.47,113.08c.31.31.31.8,0,1.11l-2.96,2.96c-.31.31-.8.31-1.11,0l-1.85-1.85c-.31-.31-.31-.81,0-1.11l2.96-2.96c.31-.31.8-.31,1.11,0l1.85,1.85Z" fill="#fffaf0" isolation="isolate" opacity=".3"/>
      <rect x="655.09" y="185" width="69.45" height="106.85" rx="8.9" ry="8.9" transform="translate(33.45 557.6) rotate(-45)" fill="#722b03"/>
      <path d="M669.46,205.07c.31.31.31.8,0,1.11l-7.78,7.78c-.31.31-.8.31-1.11,0l-3.94-3.94c-.2-.2-.27-.48-.21-.75l.58-2.32c.03-.14.11-.26.21-.36l4.88-4.88c.1-.1.23-.17.36-.21l2.32-.58c.27-.07.55.01.75.21l3.94,3.95ZM668.35,213.59c.31.31.31.8,0,1.11l-2.96,2.96c-.31.31-.8.31-1.11,0l-1.85-1.85c-.31-.31-.31-.8,0-1.11l2.96-2.96c.31-.31.8-.31,1.11,0l1.85,1.85ZM670.94,218.4c.31.31.31.8,0,1.11l-1.85,1.85c-.31.31-.8.31-1.11,0l-1.85-1.85c-.31-.31-.31-.81,0-1.11l1.85-1.85c.31-.31.8-.31,1.11,0l1.85,1.85ZM676.87,212.48c.31.31.31.8,0,1.11l-4.07,4.07c-.31.31-.8.31-1.11,0l-1.85-1.85c-.31-.31-.31-.8,0-1.11l4.07-4.07c.31-.31.8-.31,1.11,0l1.85,1.85ZM673.16,208.78c.31.31.31.8,0,1.11l-2.96,2.96c-.31.31-.8.31-1.11,0l-1.85-1.85c-.31-.31-.31-.8,0-1.11l2.96-2.96c.31-.31.8-.31,1.11,0l1.85,1.85Z" fill="#fffaf0" isolation="isolate" opacity=".3"/>
      <rect x="523.75" y="-102.09" width="69.45" height="106.84" rx="8.9" ry="8.9" transform="translate(197.99 380.64) rotate(-45)" fill="#0f5ba7"/>
      <rect x="619.44" y="-6.4" width="69.45" height="106.84" rx="8.9" ry="8.9" transform="translate(158.35 476.34) rotate(-45)" fill="#0f5ba7"/>
      <path d="M633.82,13.68c.31.31.31.8,0,1.11l-7.78,7.78c-.31.31-.8.31-1.11,0l-3.95-3.94c-.2-.2-.27-.48-.21-.75l.58-2.32c.04-.14.11-.26.21-.37l4.88-4.88c.1-.1.23-.17.37-.21l2.32-.58c.27-.07.55.01.74.21l3.95,3.94ZM632.71,22.19c.31.31.31.8,0,1.11l-2.96,2.96c-.31.31-.8.31-1.11,0l-1.85-1.85c-.31-.31-.31-.8,0-1.11l2.96-2.96c.31-.31.8-.31,1.11,0l1.85,1.85ZM635.3,27.01c.31.31.31.8,0,1.11l-1.85,1.85c-.31.31-.8.31-1.11,0l-1.85-1.85c-.31-.31-.31-.8,0-1.11l1.85-1.85c.31-.31.8-.31,1.11,0l1.85,1.85ZM641.23,21.08c.31.31.31.8,0,1.11l-4.07,4.07c-.31.31-.8.31-1.11,0l-1.85-1.85c-.31-.31-.31-.8,0-1.11l4.07-4.07c.31-.31.8-.31,1.11,0l1.85,1.85ZM637.52,17.38c.31.31.31.8,0,1.11l-2.96,2.96c-.31.31-.8.31-1.11,0l-1.85-1.85c-.31-.31-.31-.8,0-1.11l2.96-2.96c.31-.31.8-.31,1.11,0l1.85,1.85Z" fill="#0676de"/>
    </g>
  </g>
</svg>