<svg xmlns="http://www.w3.org/2000/svg" viewBox="0 0 680 220"><defs><clipPath id="a"><path fill="none" d="M0 0h680v220H0z"/></clipPath><clipPath id="b"><path fill="none" d="m-35.81 86.69 62.96 62.96a8.896 8.896 0 0 1 0 12.59l-36.52 36.52a8.896 8.896 0 0 1-12.59 0l-62.96-62.96a8.896 8.896 0 0 1 0-12.59l36.52-36.52a8.896 8.896 0 0 1 12.59 0"/></clipPath><clipPath id="c"><path fill="none" d="m59.88 182.39 62.96 62.96a8.896 8.896 0 0 1 0 12.59l-36.52 36.52a8.896 8.896 0 0 1-12.59 0L10.77 231.5a8.896 8.896 0 0 1 0-12.59l36.52-36.52a8.896 8.896 0 0 1 12.59 0"/></clipPath><clipPath id="d"><path fill="none" d="M24.24-9.01 87.2 53.95a8.896 8.896 0 0 1 0 12.59l-36.52 36.52a8.896 8.896 0 0 1-12.59 0L-24.87 40.1a8.896 8.896 0 0 1 0-12.59L11.65-9.01a8.896 8.896 0 0 1 12.59 0"/></clipPath><clipPath id="e"><rect width="69.45" height="106.84" x="92.14" y="89.3" fill="none" rx="8.9" ry="8.9" transform="rotate(-45 126.867 142.72)"/></clipPath><clipPath id="f"><rect width="69.45" height="106.85" x="187.83" y="185" fill="none" rx="8.9" ry="8.9" transform="rotate(-45 222.567 238.42)"/></clipPath><clipPath id="g"><path fill="none" d="m84.29-104.7 62.96 62.96a8.896 8.896 0 0 1 0 12.59L110.73 7.36a8.896 8.896 0 0 1-12.59 0L35.18-55.6a8.896 8.896 0 0 1 0-12.59l36.52-36.52a8.896 8.896 0 0 1 12.59 0Z"/></clipPath><clipPath id="h"><rect width="69.45" height="106.85" x="152.19" y="-6.4" fill="none" rx="8.9" ry="8.9" transform="rotate(-45 186.91 47.03)"/></clipPath><clipPath id="i"><path fill="none" d="m203.393 59.941 15.11-15.11 15.112 15.11-15.111 15.111z"/></clipPath><clipPath id="j"><path fill="none" d="m275.69 86.69 62.96 62.96a8.896 8.896 0 0 1 0 12.59l-36.52 36.52a8.896 8.896 0 0 1-12.59 0l-62.96-62.96a8.896 8.896 0 0 1 0-12.59l36.52-36.52a8.896 8.896 0 0 1 12.59 0"/></clipPath><clipPath id="k"><rect width="69.45" height="106.85" x="343.59" y="185" fill="none" rx="8.9" ry="8.9" transform="rotate(-45 378.31 238.429)"/></clipPath><clipPath id="l"><rect width="69.45" height="106.84" x="212.24" y="-102.09" fill="none" rx="8.9" ry="8.9" transform="rotate(-45 246.97 -48.669)"/></clipPath><clipPath id="m"><path fill="none" d="m335.74-9.01 62.96 62.96a8.896 8.896 0 0 1 0 12.59l-36.52 36.52a8.896 8.896 0 0 1-12.59 0L286.63 40.1a8.896 8.896 0 0 1 0-12.59l36.52-36.52a8.896 8.896 0 0 1 12.59 0"/></clipPath><clipPath id="n"><path fill="none" d="m431.44 86.69 62.96 62.96a8.896 8.896 0 0 1 0 12.59l-36.52 36.52a8.896 8.896 0 0 1-12.59 0l-62.96-62.96a8.896 8.896 0 0 1 0-12.59l36.52-36.52a8.896 8.896 0 0 1 12.59 0"/></clipPath><clipPath id="o"><path fill="none" d="m458.376 146.412 10.72-10.72 20.704 20.704-10.72 10.72z"/></clipPath><clipPath id="p"><path fill="none" d="m527.14 182.39 62.96 62.96a8.896 8.896 0 0 1 0 12.59l-36.52 36.52a8.896 8.896 0 0 1-12.59 0l-62.96-62.96a8.896 8.896 0 0 1 0-12.59l36.52-36.52a8.896 8.896 0 0 1 12.59 0"/></clipPath><clipPath id="q"><path fill="none" d="m395.79-104.7 62.96 62.96a8.896 8.896 0 0 1 0 12.59L422.23 7.37a8.896 8.896 0 0 1-12.59 0l-62.96-62.96a8.896 8.896 0 0 1 0-12.59l36.52-36.52a8.896 8.896 0 0 1 12.59 0"/></clipPath><clipPath id="r"><rect width="69.45" height="106.85" x="463.69" y="-6.4" fill="none" rx="8.9" ry="8.9" transform="rotate(-45 498.42 47.028)"/></clipPath><clipPath id="s"><path fill="none" d="m587.19 86.69 62.96 62.96a8.896 8.896 0 0 1 0 12.59l-36.52 36.52a8.896 8.896 0 0 1-12.59 0l-62.96-62.96a8.896 8.896 0 0 1 0-12.59l36.52-36.52a8.896 8.896 0 0 1 12.59 0"/></clipPath><clipPath id="t"><path fill="none" d="m682.89 182.39 62.96 62.96a8.896 8.896 0 0 1 0 12.59l-36.52 36.52a8.896 8.896 0 0 1-12.59 0l-62.96-62.96a8.896 8.896 0 0 1 0-12.59l36.52-36.52a8.896 8.896 0 0 1 12.59 0"/></clipPath><clipPath id="u"><rect width="69.45" height="106.84" x="523.75" y="-102.09" fill="none" rx="8.9" ry="8.9" transform="rotate(-45 558.468 -48.675)"/></clipPath><clipPath id="v"><rect width="69.45" height="106.84" x="619.44" y="-6.4" fill="none" rx="8.9" ry="8.9" transform="rotate(-45 654.168 47.025)"/></clipPath></defs><g clip-path="url(#a)"><g clip-path="url(#b)"><rect width="69.45" height="106.84" x="-63.61" y="89.3" fill="#016fd0" rx="8.9" ry="8.9" transform="rotate(-45 -28.882 142.723)"/><path fill="#016fd0" fill-rule="evenodd" d="m7 137.06 18.89 18.89L7 174.84l-18.89-18.89z"/><path fill="#fff" fill-rule="evenodd" d="m-2.06 159.8 6.77-6.77 12.03 12.06-1.87 1.87-2.88.1-.11 2.89-1.91 1.91-2.22-2.22.12-2.49-2.48.14z"/><path fill="#016fd0" fill-rule="evenodd" d="m-.51 159.86 5.28-5.28 4.48 4.48-1.22 1.22L5 157.25l-.83.83 2.96 2.95-1.2 1.2-2.96-2.96-.81.81 3.03 3.03-1.23 1.23-4.48-4.48Z"/><path fill="#016fd0" fill-rule="evenodd" d="m3.94 164.32 5.12-.17.16-5.12 1.92 1.92-.16 3.19 3.19-.16 1.84 1.84-.04.04-5.02.17-.14 4.99-.07.08-1.85-1.85.15-3.23-3.22.17-1.87-1.87Z"/><path fill="#fff" fill-rule="evenodd" d="m11.28 147.59 2.9 2.9-1.3 3.34 2.32-2.32 3.58 3.58-1.12 2.35 2.36-1.12 2.74 2.74-6.77 6.77-14.47-14.47 9.75-3.79Z"/><path fill="#016fd0" fill-rule="evenodd" d="m11.09 148.87-7.62 2.93 1.61 1.61 1.5-.61 2.4 2.4-.61 1.5 1.65 1.65 2.94-7.61-1.86-1.86Zm-2.83 3.24 2.38-.98-.98 2.38z"/><path fill="#016fd0" fill-rule="evenodd" d="m9.99 158.32 5.28-5.28 2.25 2.27-2.08 4.41 4.42-2.08 2.17 2.17-5.28 5.28-1.41-1.39 3.62-3.62-4.93 2.29-1.28-1.28 2.28-4.97-3.62 3.62z"/></g><g clip-path="url(#c)"><rect width="69.45" height="106.84" x="32.08" y="185" fill="#49225b" rx="8.9" ry="8.9" transform="rotate(-45 66.806 238.418)"/><path fill="#fffaf0" d="M46.46 205.07c.31.31.31.8 0 1.11l-7.78 7.78c-.31.31-.8.31-1.11 0l-3.94-3.94a.83.83 0 0 1-.21-.75l.58-2.32c.03-.14.11-.26.21-.36l4.88-4.88c.1-.1.23-.17.37-.21l2.32-.58c.27-.07.55.01.75.21l3.94 3.95Zm-1.11 8.52c.31.31.31.8 0 1.11l-2.96 2.96c-.31.31-.8.31-1.11 0l-1.85-1.85a.78.78 0 0 1 0-1.11l2.96-2.96c.31-.31.8-.31 1.11 0zm2.59 4.81c.31.31.31.8 0 1.11l-1.85 1.85c-.31.31-.8.31-1.11 0l-1.85-1.85a.78.78 0 0 1 0-1.11l1.85-1.85c.31-.31.8-.31 1.11 0zm5.92-5.92c.31.31.31.8 0 1.11l-4.07 4.07c-.31.31-.8.31-1.11 0l-1.85-1.85a.78.78 0 0 1 0-1.11l4.07-4.07c.31-.31.8-.31 1.11 0zm-3.7-3.7c.31.31.31.8 0 1.11l-2.96 2.96c-.31.31-.8.31-1.11 0L44.24 211a.78.78 0 0 1 0-1.11l2.96-2.96c.31-.31.8-.31 1.11 0z" opacity=".3"/></g><g clip-path="url(#d)"><rect width="69.45" height="106.84" x="-3.56" y="-6.4" fill="#a2a9a3" rx="8.9" ry="8.9" transform="rotate(-45 31.166 47.02)"/><path fill="#fffaf0" d="M10.82 13.68c.31.31.31.8 0 1.11l-7.78 7.78c-.31.31-.8.31-1.11 0l-3.95-3.94a.83.83 0 0 1-.21-.75l.58-2.32c.03-.14.11-.26.21-.37l4.88-4.88c.1-.1.23-.17.36-.21l2.32-.58c.27-.07.55.01.75.21l3.95 3.94ZM9.7 22.2c.31.31.31.8 0 1.11l-2.96 2.96c-.31.31-.8.31-1.11 0l-1.85-1.85a.78.78 0 0 1 0-1.11l2.96-2.96c.31-.31.8-.31 1.11 0zm2.6 4.81c.31.31.31.8 0 1.11l-1.85 1.85c-.31.31-.8.31-1.11 0l-1.85-1.85a.78.78 0 0 1 0-1.11l1.85-1.85c.31-.31.8-.31 1.11 0zm5.92-5.93c.31.31.31.8 0 1.11l-4.07 4.07c-.31.31-.8.31-1.11 0l-1.85-1.85a.78.78 0 0 1 0-1.11l4.07-4.07c.31-.31.8-.31 1.11 0zm-3.7-3.7c.31.31.31.8 0 1.11l-2.96 2.96c-.31.31-.8.31-1.11 0L8.6 19.6a.78.78 0 0 1 0-1.11l2.96-2.96c.31-.31.8-.31 1.11 0z" opacity=".3"/><path fill="#231f20" fill-rule="evenodd" d="M71.52 71.49c.11.65.3 1.24-.14 1.68-.13.13-.41.09-.78-.28-.28-.28-.5-.66-.44-.99.04-.26.4-.3.45-.55.05-.2-.19-.32-.24-.49-.06-.21-.01-.29.08-.56.12-.32.15-1.04.15-1.84 0-.68-.2-1.21-.38-1.37-.13-.1-.16-.14-.28-.25-.29-.29-.82-.27-1.41-.51-.41-.16-.65-.26-.87-.42h-.14l.39.38c.35.35.87.77 1.22 1.12s.22.87.03 1.34c-.4.96-.97 2.36-1.29 3.67-.15.62-.19 1.08-.66 1.55-.15.15-.36.33-.56.13-.28-.28-.7-1.27-.39-1.58.24-.24.53-.15.76-.38.15-.15-.1-.35-.02-.54.55-.91 1.06-1.84 1.08-2.7 0-.44.08-.56-.13-.78-.11-.11-.25-.2-.39-.27-.79-.37-2.19-.51-3.44-1.18-.48-.26-.33-.53-.78-.83l.02.02c-.37-.24-.78-.31-1.31-.62-.74-.42-1.81-1.34-2.51-2.24-.49-.64-1.11-1.49-1.44-1.79-.92.44-2.33.82-3.44.41-.58-.23-.95-.11-1.27.46-.41.71-.31 1.62-.52 2.36-.17.65-.42 1.69-.22 2.31.21.63.15 1.19-.11 1.45-.12.12-.25.15-.38.02l-.83-.83c-.13-.13-.12-.26-.09-.34.1-.32.37-.45.41-.78.02-.25-.1-.3-.13-.55-.02-.49.31-.44.42-.92.29-1.35.26-1.77.4-2.8.06-.56-.1-1.01.31-1.42.5-.5 1.09-.08 1.57-.59-.56-.09-1.13-.28-1.79-.79-.09-.06-.44-.12-.63-.1-.4 0-.67.12-1 .39-.73.61-1.55 1.15-2.13 1.91-.32.55-.39.77-.26 1.38.08.38.13.85-.15 1.19-.09.09-.21.16-.34.03l-.9-.9a.33.33 0 0 1-.08-.3c.07-.28.26-.34.42-.57.32-.5-.17-.94.25-1.36.13-.13.36-.21.64-.46.59-.54 1.69-1.29 2.63-2.58.57-.72 1.28-.07 2.2-.28.54-.11.34-.03.7-.14.37-.12.52-.32.66-.48.19-.19.39-.78 1.33-1.45.41-.31.95-.49 1.5-.56.01-.01.06-.06-.01-.14-.38-.33-.29-.42-.53-.66s-.59-.22-.73-.16c-.06-.16.01-.34.08-.41.12-.12.26-.21.51-.21.1 0 .08-.08.01-.14-.28-.28-.88-.21-1.18-.04-.14-.19.06-.41-.02-.49s-.24-.01-.35.1c-.79.79.35 2.28-.7 3.32-1.21 1.21-2.43-.52-2.87-.09q-.135.135-.03.39c-.16.06-.34-.02-.48-.15a.777.777 0 0 1-.01-1.13c.66-.66 1.57.23 2.06-.27.24-.24.16-.46.13-.71-.26-1.45-.14-2.53.83-3.51 1.05-1.05 2.61-1.12 3.58-.15 1.41 1.41-.15 3.05 1 4.48.8.16 1.56.54 2.11 1.09.83.83.99 1.41 1.87 2.3.36.36 1.05.85 2.23 1.08.44.09.59.17 1.04.2 1.03.08 2.46-.32 3.12-.97l-.04.04c.21-.21.28-.39.18-.49-.3-.3-.84-.29-1.43-.31-.39 0-.18.39-.85.19-.23-.08-.27-.39-.43-.55-.34-.34-.1-.89.25-1.24.17-.17.36-.08.6-.17.51-.16.62-.29 1.12-.47.32-.12.65-.09.8-.27.06-.06.05-.15.11-.21.34-.34 1.02-.11 1.35-.44.19-.19.06-.49.16-.69s.17-.2.17-.2c.04-.01.07 0 .1.02.18.18.07.44.13.7.24-.21.21-.34.37-.5.09-.09.21-.24.3-.15.11.11-.05.25-.02.42.03.22.15.33.21.55.06.29-.02.57.03.65.15.2.41.04.45-.17.21.19.25.55.52.82.42.42.44.67.46.8.04.49-.08.71.21 1 .15.15.35.1.44.09.05.35-.3.74-.83.83-.18.35.18.75.23 1.06.05.3-.03.34.02.54.04.16.14.24.26.26-.26.44-.87.44-1.29.13-.43.46-.23 1.21-.12 1.54-.4.15-.71 0-.96-.15-.21.34-.3 1.04-.82 1.24-.08-.2-.34-.34-.54-.14-.22.22-.05.63-.51.49-.21-.07-.44.11-.37.55.42.24.72.57 1.09.94.23.23.59.47.8.67.38.38.46.76.44 1.33-.05 1.44-.2 2.85-.01 4.1Z"/><path fill="#6d6e70" fill-rule="evenodd" d="M54.9 50.53c.72-.57 1.89-.47 2.49.13s.67 1.4.43 1.92c-.12.22-.19.04-.24-.04-.1-.17-.22-.31-.37-.47-.57-.57-.97-.37-1.11-.51-.05-.05-.02-.1 0-.12.15-.15.44-.06.55-.17.06-.06.09-.16-.08-.32-.57-.57-1.66-.03-1.82-.18-.06-.06.01-.14.13-.24Zm15.33 5.95c-.21-.44-.6-.38-1.1-.26-.59.13-.86.26-1.28.55-.46.33-.31.69-.6.65-.31-.04-.31-.14-.13-.2.25-.1.49-.36.2-.5-.26-.14-.43-.33-.25-.35.17-.05.31 0 .77-.24.46-.21.62-.25 1.36-.45.44-.13.2-.32.42-.45.19-.09.51-.08.75-.12.24-.01.4.05.46.17.08.13-.02.2-.27.37-.25.15-.31.26-.21.49.1.25-.06.54-.12.35ZM66.67 73.2c.11-.11.41-.16.71-.38.03.25-.13.61-.31.79-.08.08-.18.15-.24.09-.09-.09-.25-.4-.17-.49Zm4.64-1.2c.14.26.11.75-.04.9-.07.07-.26-.04-.36-.14-.18-.18.29-.36.41-.76Zm-3.56-10.48c2.2.07 4.78-1.75 4.35-3.79-.08-.4-.22-.67-.18-.7.04-.04.22.14.34.44 1.07 2.64-1.55 4.48-3.65 5.34-.52.22-.26.26-.31 1.1-.05 1.06-.83 1.46-1 1.53-.43.17.84-.92.06-2.99-.26-.68-.35-.94.39-.92Zm-15.73 6.15c-.15-.15.21-.54.32-.72.08.2.14.47.08.7-.03.1-.12.3-.22.2zm-4.33-4.33c-.15-.15.18-.54.29-.72.08.2.17.46.11.7-.03.1-.1.32-.2.22zm13.26-3.84c.17-.22.53.11.73-.09.1-.1.03-.69-.78-1.5-1.11-1.11-2.28-1.51-3.67-1.56-.95-.03-1.59.37-1.73.23-.05-.05-.06-.09.06-.24.78-.98 3.03-1.76 5 .21.66.66 1.06 1.48 1.79 2.21.34.34 1.37 1 2.31 1.17.2.03.64.12.79.15.09.04 0 .07-.11.11-.3.07-.51.06-.75.07-.36.01-.85.09-1.19.3-.72.45-1.02.49-1.89-.2-.58-.45-.62-.79-.56-.86"/></g><g clip-path="url(#e)"><rect width="69.45" height="106.84" x="92.14" y="89.3" fill="#ff7101" rx="8.9" ry="8.9" transform="rotate(-45 126.867 142.72)"/><path fill="#fffaf0" d="M106.51 109.37c.31.31.31.8 0 1.11l-7.78 7.78c-.31.31-.8.31-1.11 0l-3.94-3.94a.82.82 0 0 1-.21-.75l.58-2.32c.03-.14.11-.26.21-.37l4.88-4.88c.1-.1.23-.17.36-.21l2.32-.58c.27-.07.55.01.75.21l3.94 3.94Zm-1.11 8.52c.31.31.31.8 0 1.11l-2.96 2.96c-.31.31-.8.31-1.11 0l-1.85-1.85a.78.78 0 0 1 0-1.11l2.96-2.96c.31-.31.8-.31 1.11 0zm2.59 4.82c.31.31.31.81 0 1.11l-1.85 1.85c-.31.31-.8.31-1.11 0l-1.85-1.85a.78.78 0 0 1 0-1.11l1.85-1.85c.31-.31.8-.31 1.11 0zm5.93-5.93c.31.31.31.8 0 1.11l-4.07 4.07c-.31.31-.8.31-1.11 0l-1.85-1.85a.78.78 0 0 1 0-1.11l4.07-4.07c.31-.31.8-.31 1.11 0zm-3.7-3.7c.31.31.31.8 0 1.11l-2.96 2.96c-.31.31-.8.31-1.11 0l-1.85-1.85a.78.78 0 0 1 0-1.11l2.96-2.96c.31-.31.8-.31 1.11 0z" opacity=".3"/><path fill="#fff" d="M158.2 173.76q-.09-.25-.37-.54c0-.17-.2-.37-.28-.45-.25.36-.41.75-.6 1.16-.08.2-.08.42-.02.64.33-.05.7-.13 1.03-.24.08-.31.16-.5.24-.58Zm-5.64-.18c.16-.28.36-.58.49-.78l1.41-1.41c-.45-.29-.62-.29-.7-.37-.45-.12-.7-.2-.89-.01-.36.36-.6.77-.8.97-.28.27-.44.44-.44.61.09.2.17.28.23.39.23.23.48.43.71.6Zm-3.84-7.53s.36-.53.44-.78c.14-.3.13-.64.07-.98-.09-.09-.09-.42-.29-.45 0 0-.77.6-.94.6-.11.44-.07.81-.24 1.14-.16.33-.44.78-.52 1.25.41-.3.86-.18 1.47-.79Zm6.8 7.85c0-.34.97-.63.52-1.08-.09-.25-.43-.98-.43-.98-.36.19-.86.69-1.05 1.05-.19.19-.41.92-.49 1.39.34.12.7.2 1.09.26.08-.2.19-.42.35-.64Zm6.99-8.24c.37.37-.09-.81-.18-1.4-.06-.06-.11-.17-.09-.25 0-.33.24-.81-.01-1.23-.06-.06-.06-.11 0-.17.25-.25 1.21-1.38 1.21-1.38-.19.53.18.9.35 1.07.37.37.7.54 1.15.43.08-.08.33-.16.42-.08.25.09.53.2.81.09.08.09.34 0 .34 0-.65-.93-2.35-2.62-2.35-2.62-.37-.2-.9-.18-.98-.1 0 0-.8 1.13-.88 1.22-.61.61-.52.69-1.13 1.3.12.45.2.53.18.9-.08.25-.19.53-.24.81.2.53.43 1.15.47 1.68.06.11.75-.07.95-.27Zm-2.11 1.04c-.17-.34-.26-.81-.91-1.24q-.17 0-.44.27c.45.45.43.98.72 1.43.03-.03.53-.36.64-.47Zm4.59-8.32c.17.17-.19.53-.35.69.45.45.82.99 1.16.99 1.43.55.26-1.34.09-1.51-.37-.53-.97-1.69-.99-.99-.19.19.06.45.09.81Zm3 .73c.46.79.55 1.6.48 2.58.28.28.7.37 1.06.18.53-.36 1.3-.96 1.4-1.57 0-.34.02-.53-.35-1.07-.26-.42-.74-.74-1.26-.71-.42.08-1.06.15-1.33.6Zm-4.53-2.99c.17-.17-.28-.45-.54-.54-.17-.17-.62-.29-1.07-.35-.53.02-.81-.09-1.06.15l.45.45c.45.45.37.7.79.62.64-.08 1.06.01 1.42-.35Zm-2.64 1.56c.17-.17.19-.53-.01-.89l-1.16-1.16c-.45-.45-.82-.82-1.33-1.16-.19.53-.07 1.31-.09 1.68 0 .34 0 .73.35 1.07.45.28.37.37.62.45-.17.17-.36.53-.61.61-.08.08-.72.88-1.14.63-.34-.17-.9-.35-1.32-.27s-.97.41-.88.88c.09.25.53.2.9.35.36.2.53-.02.89-.16.34 0 .81.26 1.06.18l.27-.28c.88-.72 1.05-.88 1.66-1.32.08-.08.66-.49.77-.6Zm-5.42 4.02c-.09-.25-.28-.45-.45-.62-.2-.2-.45-.4-.71-.54-.11.22-.24.47-.35.69.34.17.53.2.79.29 0 0 .53.2.73.18Zm5.2-8.93c.33 0 1.23.18 1.23.18.08.09.17 0 .25-.08.44-.78.24-.97.09-1.51-.03-.31-.2-.59-.46-.79-.45-.28-1.26-.71-1.96-.36-.08.08-.53.36-.6.94-.19.53-.07 1.14-.09 1.51.28.23.84-.1 1.54.1Zm.75 14.05c.68.68 1.33 1.66 1.94 3.04l-.58.58c-.6-1.38-1.42-2.36-1.77-2.98l-.69.69c.28.45.26.81.54 1.26.09.2.44 1.37.73 2.27l-.61.61c-.41-1.74-.93-2.75-1.45-4.04-.34 0-.7.19-1.14.07-.17 0-.26-1.15-.47-1.68-.09-.42-.54-1.04-.8-1.52-.09-.08.08-.25.16-.33.19-.36.35-.69.52-.69.62.29 1.15.1 1.39-.15.25-.25.17.34.54.54.34 0 .61-.1.69-.35.17-.17.27-.44.1-.61a5.25 5.25 0 0 0-2.77-2.77c-.36-.2-.72.16-.86.52-.27.44.29.62.71.71.09.08-.36.19-.44.61-.19.53.1.98.01 1.06q-.28.28-.53.36c-.17.16-.36.36-.61.27-.62-.46-1.24-.74-1.97-1.09-.34-.17-.9-.18-1.15-.43-.17-.17 0-.73-.01-.89-.17-.17-.09-.25-.54-.54-1.46-.63-2.97-1.15-4.54-1.56 0-.34.36-.53.44-.78 1.6.38 3.17.9 4.71 1.57.17 0 .36-.36.44-.61 0 0-.54-.71-2.06-1.51-.87-.54-2.13-.92-2.22-1 .11-.39.27-.61.49-.83.81.26 1.63.63 2.38 1.01.79.46 1.41 1.08 2.17 1.62-.08-.08.08-.25.19-.36.27-.78.26-1.67.25-2.57.19-.53.4-1.14.6-1.33.34 0 .29.45.54.7.19-.42.46-.8.8-1.13q.27-.44.69-.86c.52-.52.94-.6.97-.8 0-.17-.2-.7-.29-.79-.09-.25-.17-.34-.09-.64.16-.72.24-1.31.68-1.75s.97-.63 1.58-.85c.44-.27 1.06.01 1.51.13s.62.45.87.71c.62.62.8 1.52 1 2.22.06.56-.04 1.12-.34 1.59l.79.79c.37.54.74 1.07 1 1.88 1.15.1 2.3 1.09 2.84 1.63.97-.97 2.2-.78 2.73-.25.54.37.87.54 1.27 1.44.2.7-.06 2.21-.14 2.29-.19.53-.72.88-1.24 1.41-.28.16-.55.38-.77.6-.44.27-1.14.07-1.48-.1-.61.61-1.14.8-1.74 1.24-.28.28-.61.44-.94.6.34.17.62.12.87.37-1.3.96-1.42.51-2.2.78-.5.27-1.03.46-1.59.51-.28 0-.53-.04-.81-.09-.31-.14-.22.11-.33.22Zm-11.45 1.96c.08-.25.02-.53-.2-.7-.17-.17-.35-.9-.54-.71-.45-.45-.53.36-.77.61-.19.19-.27.78-.29 1.31l.82.82c.08-.14.19-.31.27-.44.19-.36.55-.5.71-.89m2.42-5.42c-.25.42-.46.86-.6 1.33.08.08 0 .33.09.42.34 0 .81-.07 1.15.1l-.36.36c-.28.28-.44.44-.6.77-.28.28 0 .56.35.9.37.37 1.06-.15 1.14-.24 0 0-.27.44.01 1.23 0 0 .62.62.71.54.53-.36.69-.35.97-.8 0 0 .18.9.13 1.51.34 0 .89-.16.97-.24.53-.19.94-.6 1.3-.96-.26-1.15-1.09-2.14-1.99-3.04-.79-.79-1.78-1.61-3.26-1.88Zm.08 6.7c-.45-.28-1.27-.88-1.52-.63-.33.16-.52.52-.69.69-.08.25-.27.44-.52.69l-.03.03.68.68c.39-.05.7-.08 1.03-.24s.69-.69 1.05-1.22m5.11-23.19c-.42.08-.69.35-.94.6-.44.44-.69.86-1.15 1.49-.62-.12-.98-.1-1.51-.3-.44.61-1.32 1.66-1.32 1.66q.42-.08.81-.07c.62.12.98.1 1.76.22.25-.08.25.09.73.18.17 0 .34 0 .42-.08.17-.17.27-.44.36-.69.08-.25.35-.86.43-.94.69-.69.97-.8 1.66-1.32-.26-.48-.71-.93-1.24-.74Zm-4.72 7.2c-1.18-.63-1.97-1.09-2.3-1.09-.73-.18-1.06-.18-1.76-.39q-.52.53-.72.89l-.96 1.13c.44-.11 1.51-.09 2.12-.14.84-.05 1.68.08 2.49.39.44-.27.8-.46 1.13-.8Zm-9.97 6.58s.45.12.64-.08c.98-.07 1.96.02 2.12.03.27-.61.27-.78.24-1.31-.17 0-.9-.18-1.15-.1-.25-.09-.53-.2-.7-.2-.17.17-.19.36-.27.61-.19.19-.55.72-.88 1.05m5.24 1.6c.08-.25-.09-.64-.18-.89-.17-.17-.73 0-1.06.32-.33.39-.63.8-.88 1.22-.08.08 0 .34.12.62.12.45.26.81.35 1.23 0 0 .55-1.05.85-1.58.19-.3.72-.49.8-.91Zm16-14.24c-.08.25.36 1.96.56 2.66.09.64.35 1.07.55 1.6.58-.08 1.14-.29 1.67-.59.12.45.46.79.63 1.18-.36.36-.69.69-.96 1.13-.17.17.09.25.62.45.7.37 1.35.8 1.69.97.98.26 2.04-.06 2.57.48.45.45 1 1.49 1 1.88.17.34.29.62.54.87.25.26.67.29 1.04.32.11-.17.22-.33.27-.5-.26-1.15-.61-2.38-1.07-3.45-.98-.1-1.71-.1-1.96-.36-.28-.28.44-.61.8-.97-.26-.25-.45-.45-.62-.79-.78.44-1.69 1.12-2.28.87-.17-.06-.31-.14-.45-.29l.72-.72c.08-.08 1.06-.32 1.05-.49 0 0-.96-.63-1.26-.71-.17 0-.98-.26-1.07-.35-.09-.14-.14-.31-.29-.45-.09-.42-.29-.62-.35-1.06-1.42.68-1.75.84-1.58.68 0 0-.44-2.04-.37-3.02-1.32-.99-1.52-.8-2.84-1.46-.73 0-1.68-.13-2.57.08-.53.19-.89.16-1.42.35l.55 1.26c.5-.05 1.03-.13 1.5-.26.95.24 2.63.7 3.33.68Zm-17.23 7.05-.44.44c-.16.17-1.05 1.22-1.32 1.49-.19.36-.44.61-.6.94-.08.25-.19.53-.35.69.17.06.36.03.56 0 .53-.02.89-.16 1.42-.35.52-.69.85-1.41 1.01-1.58.69-.69.97-.8 1.49-1.15-.53-.15-1.23-.29-1.76-.5Zm7.4-2.2c.53-.52.69-.35.78-.6.08-.25-.79-.79-.99-.99-.54-.37-1.6-.89-1.77-.72-.33.16-.97.8-1.05.88-.19.36-.44.61-.6.94.53-.02.73 0 .98.1.17 0 1.85.3 2.04.28.33 0 .34.17.61.12Zm-11.82 10.35c-.17 0-.28 0-.45-.06l-.34-.34c.3-.58.52-1.19.68-1.81 0 0 1.85.8 2.22 1.17-.08.25-.27.61-.24.97-.36.02-1.42.01-1.87.06Z"/></g><g clip-path="url(#f)"><rect width="69.45" height="106.84" x="187.83" y="185" fill="#780505" rx="8.9" ry="8.9" transform="rotate(-45 222.567 238.42)"/><path fill="#400000" d="M202.21 205.07c.31.31.31.8 0 1.11l-7.78 7.78c-.31.31-.8.31-1.11 0l-3.95-3.94c-.2-.2-.27-.48-.21-.75l.58-2.32c.03-.14.11-.26.21-.36l4.88-4.88c.1-.1.23-.17.37-.21l2.32-.58c.27-.07.55.01.74.21l3.94 3.95Zm-1.11 8.52c.31.31.31.8 0 1.11l-2.96 2.96c-.31.31-.8.31-1.11 0l-1.85-1.85a.78.78 0 0 1 0-1.11l2.96-2.96c.31-.31.8-.31 1.11 0zm2.59 4.81c.31.31.31.8 0 1.11l-1.85 1.85c-.31.31-.8.31-1.11 0l-1.85-1.85a.78.78 0 0 1 0-1.11l1.85-1.85c.31-.31.81-.31 1.11 0zm5.92-5.92c.31.31.31.8 0 1.11l-4.07 4.07c-.31.31-.8.31-1.11 0l-1.85-1.85a.78.78 0 0 1 0-1.11l4.07-4.07c.31-.31.8-.31 1.11 0zm-3.7-3.7c.31.31.31.8 0 1.11l-2.96 2.96c-.31.31-.8.31-1.11 0l-1.85-1.85a.78.78 0 0 1 0-1.11l2.96-2.96c.31-.31.8-.31 1.11 0z"/></g><g clip-path="url(#g)"><rect width="69.45" height="106.84" x="56.49" y="-102.09" fill="#008c59" rx="8.9" ry="8.9" transform="rotate(-45 91.222 -48.665)"/></g><g clip-path="url(#h)"><rect width="69.45" height="106.84" x="152.19" y="-6.4" fill="#0b189a" rx="8.9" ry="8.9" transform="rotate(-45 186.91 47.03)"/><path fill="#fffaf0" d="M166.57 13.68c.31.31.31.8 0 1.11l-7.78 7.78c-.31.31-.8.31-1.11 0l-3.95-3.94a.83.83 0 0 1-.21-.75l.58-2.32c.04-.14.11-.26.21-.37l4.88-4.88c.1-.1.23-.17.36-.21l2.32-.58c.27-.07.55.01.75.21l3.94 3.94Zm-1.12 8.52c.31.31.31.8 0 1.11l-2.96 2.96c-.31.31-.8.31-1.11 0l-1.85-1.85a.78.78 0 0 1 0-1.11l2.96-2.96c.31-.31.8-.31 1.11 0zm2.6 4.81c.31.31.31.8 0 1.11l-1.85 1.85c-.31.31-.8.31-1.11 0l-1.85-1.85a.78.78 0 0 1 0-1.11l1.85-1.85c.31-.31.8-.31 1.11 0zm5.92-5.93c.31.31.31.8 0 1.11l-4.07 4.07c-.31.31-.8.31-1.11 0l-1.85-1.85a.78.78 0 0 1 0-1.11l4.07-4.07c.31-.31.8-.31 1.11 0zm-3.7-3.7c.31.31.31.8 0 1.11l-2.96 2.96c-.31.31-.8.31-1.11 0l-1.85-1.85a.78.78 0 0 1 0-1.11l2.96-2.96c.31-.31.8-.31 1.11 0z" opacity=".3"/><g clip-path="url(#i)"><path fill="#fff" fill-rule="evenodd" d="m218.5 45.03 14.91 14.91-14.91 14.91-14.91-14.91zm0 4.23-10.78 10.78 10.78 10.78 10.78-10.78zm5.34 8.36 2.72 2.72-13.4 2.12-2.72-2.72z"/></g></g><g clip-path="url(#j)"><rect width="69.45" height="106.84" x="247.89" y="89.3" fill="#49225b" rx="8.9" ry="8.9" transform="rotate(-45 282.61 142.729)"/><path fill="#fffaf0" d="M262.26 109.37c.31.31.31.8 0 1.11l-7.78 7.78c-.31.31-.8.31-1.11 0l-3.94-3.94a.8.8 0 0 1-.21-.75l.58-2.32c.03-.14.1-.26.21-.37l4.88-4.88c.1-.1.23-.17.37-.21l2.32-.58c.27-.07.55.01.75.21l3.95 3.94Zm-1.11 8.52c.31.31.31.8 0 1.11l-2.96 2.96c-.31.31-.8.31-1.11 0l-1.85-1.85a.78.78 0 0 1 0-1.11l2.96-2.96c.31-.31.8-.31 1.11 0zm2.59 4.82c.31.31.31.81 0 1.11l-1.85 1.85c-.31.31-.8.31-1.11 0l-1.85-1.85a.78.78 0 0 1 0-1.11l1.85-1.85c.31-.31.8-.31 1.11 0zm5.93-5.93c.31.31.31.8 0 1.11l-4.08 4.07c-.31.31-.8.31-1.11 0l-1.85-1.85a.78.78 0 0 1 0-1.11l4.07-4.07c.31-.31.8-.31 1.11 0l1.85 1.85Zm-3.7-3.7c.31.31.31.8 0 1.11l-2.96 2.96c-.31.31-.8.31-1.11 0l-1.85-1.85a.78.78 0 0 1 0-1.11l2.96-2.96c.31-.31.8-.31 1.11 0z" opacity=".3"/><path fill="#e40420" d="m308.16 157.1-1.85 7.18 5.31 5.31 1.85-7.18-5.32-5.32Z"/><path fill="#d10917" d="m320.71 160.5-1.93 7.21-7.16 1.88 1.86-7.18z"/><path fill="#e40420" d="m311.09 146.27 5.29 5.29 7.18-1.89-5.31-5.31-7.16 1.9Z"/><path fill="#d10917" d="m323.57 149.68-1.89 7.18-7.2 1.91 1.91-7.2z"/><path fill="#e40420" d="m307.43 147.23-7.19 1.95 5.29 5.29 7.2-1.94z"/><path fill="#d10917" d="m300.24 149.17-1.89 7.14 5.3 5.3 1.88-7.15z"/></g><g clip-path="url(#k)"><rect width="69.45" height="106.84" x="343.59" y="185" fill="#0281c4" rx="8.9" ry="8.9" transform="rotate(-45 378.31 238.429)"/><path fill="#4da7d5" d="M357.96 205.07c.31.31.31.8 0 1.11l-7.78 7.78c-.31.31-.81.31-1.11 0l-3.94-3.94c-.2-.2-.27-.48-.21-.75l.58-2.32c.03-.14.11-.26.21-.36l4.88-4.88c.1-.1.23-.17.37-.21l2.32-.58c.27-.07.55.01.75.21l3.94 3.95Zm-1.11 8.52c.31.31.31.8 0 1.11l-2.96 2.96c-.31.31-.8.31-1.11 0l-1.85-1.85a.78.78 0 0 1 0-1.11l2.96-2.96c.31-.31.8-.31 1.11 0zm2.59 4.81c.31.31.31.8 0 1.11l-1.85 1.85c-.31.31-.8.31-1.11 0l-1.85-1.85a.78.78 0 0 1 0-1.11l1.85-1.85c.31-.31.8-.31 1.11 0zm5.93-5.92c.31.31.31.8 0 1.11l-4.07 4.07c-.31.31-.8.31-1.11 0l-1.85-1.85a.78.78 0 0 1 0-1.11l4.07-4.07c.31-.31.8-.31 1.11 0zm-3.71-3.7c.31.31.31.8 0 1.11l-2.96 2.96c-.31.31-.8.31-1.11 0l-1.85-1.85a.78.78 0 0 1 0-1.11l2.96-2.96c.31-.31.8-.31 1.11 0z"/></g><g clip-path="url(#l)"><rect width="69.45" height="106.85" x="212.24" y="-102.09" fill="#016fd0" rx="8.9" ry="8.9" transform="rotate(-45 246.97 -48.669)"/></g><g clip-path="url(#m)"><rect width="69.45" height="106.84" x="307.94" y="-6.4" fill="#ea1d25" rx="8.9" ry="8.9" transform="rotate(-45 342.67 47.031)"/><path fill="#fffaf0" d="M322.32 13.68c.31.31.31.8 0 1.11l-7.78 7.78c-.31.31-.8.31-1.11 0l-3.94-3.94c-.2-.2-.27-.48-.21-.75l.58-2.32c.04-.14.11-.26.21-.37l4.88-4.88c.1-.1.23-.17.37-.21l2.32-.58c.27-.07.55.01.75.21l3.95 3.94Zm-1.11 8.52c.31.31.31.8 0 1.11l-2.96 2.96c-.31.31-.8.31-1.11 0l-1.85-1.85a.78.78 0 0 1 0-1.11l2.96-2.96c.31-.31.8-.31 1.11 0zm2.59 4.81c.31.31.31.8 0 1.11l-1.85 1.85c-.31.31-.8.31-1.11 0l-1.85-1.85a.78.78 0 0 1 0-1.11l1.85-1.85c.31-.31.8-.31 1.11 0zm5.92-5.93c.31.31.31.8 0 1.11l-4.07 4.07c-.31.31-.8.31-1.11 0l-1.85-1.85a.78.78 0 0 1 0-1.11l4.07-4.07c.31-.31.8-.31 1.11 0zm-3.7-3.7c.31.31.31.8 0 1.11l-2.96 2.96c-.31.31-.8.31-1.11 0l-1.85-1.85a.78.78 0 0 1 0-1.11l2.96-2.96c.31-.31.8-.31 1.11 0z" opacity=".3"/><path fill="#fff" d="M380.04 59.02c-.2.85-.64 1.62-1.21 2.27 2.24 3.78 2.62 7.47.76 9.25-2.67 2.67-8.8.82-13.73-4.1-4.93-4.93-6.77-11.06-4.1-13.73 1.9-1.9 5.63-1.48 9.37.72-.73.73-1.29 1.62-1.57 2.63l-2 7.62c-.16.57-.4 1.13-.73 1.62l.33-.08a5.4 5.4 0 0 0 3.84-3.84l1.6-6.08c.52-1.9 1.98-3.36 3.84-3.84l.32-.08c-.32.49-.56 1.05-.73 1.62l-.96 3.57-1.48 5.55c-.16.57-.4 1.13-.72 1.62l.32-.08a5.4 5.4 0 0 0 3.84-3.84l1.6-6.08a5.4 5.4 0 0 1 3.84-3.84l.32-.08c-.32.49-.56 1.05-.72 1.62l-2.04 7.58Z"/></g><g clip-path="url(#n)"><rect width="69.45" height="106.85" x="403.64" y="89.3" fill="#003c73" rx="8.9" ry="8.9" transform="rotate(-45 438.359 142.726)"/><g fill="#fff" clip-path="url(#o)"><path d="m479.17 146.13-7.81 5.06-1.66-1.66 7.81-5.06zm2.85 11.15 3.29-1.54-1.91 2.92zm-.43 4.14 1.54 1.54 5.09-7.77-1.42-1.42c-.32-.32-.77-.4-1.18-.24l-8.46 3.46 1.75 1.75 1.31-.61 2.13 2.13zm-2.24-6.45c1.7-1.69-.56-4.14.22-4.88.24-.23.7-.25 1.24.17.27.21.95.84 1.35 1.93l1.66-1.07c-.25-.55-.63-1.2-1.27-1.84-1.64-1.64-3.68-1.93-4.94-.69-.94.91-.62 2.27-.29 3.21.33.96.35 1.38.06 1.66-.44.43-1.14.1-1.62-.37-.85-.82-1.1-1.55-1.3-2.12l-1.71 1.11c.21.57.77 1.44 1.51 2.19 1.75 1.75 3.76 2.03 5.1.7Zm-2.56-11.22-9.13 3.74-1.76-1.76 3.81-6.46c.24-.4.28-.58.17-.96-.18-.62-.64-1.48-1.1-2.19l.23-.15 2.83 2.83c.36.36.45.93.11 1.42l-3.02 4.42 6.11-2.65 1.75 1.75Zm-12.53 7.83c-.15-.05-.42-.21-.69-.48-.62-.62-.69-1.48.03-2.21.69-.69 1.63-.69 2.31 0 .27.27.39.51.43.62l-.3.16c-.05-.16-.17-.35-.35-.53-.52-.52-1.19-.53-1.77.05-.54.54-.58 1.2-.04 1.73.18.18.39.32.56.38l-.17.28Zm1.3-.14c-.35.35-.41.8-.13 1.09s.74.22 1.1-.13c.27-.27.47-.74.13-1.08s-.8-.17-1.1.13Zm1.27 1.23c-.58.59-1.25.43-1.63.05-.42-.43-.44-1.07.06-1.57.53-.53 1.19-.49 1.62-.05.45.45.43 1.09-.05 1.57m.79.1c.17-.17.29-.3.42-.44l.25.25-.25.27c.24-.05.53-.05.79.22.21.21.24.51.13.76.14-.04.27-.04.39-.02.17.02.31.09.46.24.21.21.39.66-.16 1.21l-.93.93-.28-.28.89-.89c.31-.31.37-.6.14-.83-.17-.17-.41-.17-.6-.09-.06.03-.11.07-.17.12l-.98.98-.28-.28.95-.95c.25-.25.32-.54.1-.76-.18-.18-.46-.17-.64-.07-.06.02-.11.07-.16.12l-.95.95-.28-.28 1.15-1.15Zm2.81 2.81c.17-.17.29-.3.41-.44l.25.25-.24.27c.24-.05.53-.05.79.22.21.21.25.51.13.76.14-.04.27-.04.39-.02.17.02.31.08.46.24.21.21.39.66-.16 1.21l-.93.93-.28-.28.89-.89c.31-.31.37-.6.14-.83-.17-.17-.41-.17-.6-.09-.06.03-.12.07-.17.12l-.98.98-.28-.28.95-.95c.25-.25.32-.54.1-.76-.18-.18-.46-.17-.65-.07-.06.02-.11.07-.16.12l-.95.95-.28-.28 1.15-1.15Zm3.61 4.02c.18-.18.39-.54.07-.86-.3-.29-.68-.15-.91.02zm-1.05-.64c-.38.4-.3.8 0 1.09.21.21.37.3.52.36l-.15.26c-.15-.06-.38-.18-.63-.43-.49-.49-.45-1.1.02-1.58.48-.48 1.13-.57 1.59-.11.52.52.2 1.11-.09 1.4-.06.06-.1.1-.14.12l-1.11-1.11Zm1.91 1.22c.19-.19.34-.35.48-.51l.25.25-.3.33h.01c.29-.13.6-.09.79.11.03.03.05.05.07.08l-.27.27s-.05-.06-.09-.1c-.2-.2-.5-.2-.75-.02-.05.03-.1.08-.14.12l-.84.84-.29-.29 1.09-1.09Zm1.21 3.28c-.11-.04-.33-.15-.55-.36-.48-.48-.46-1.11.02-1.6s1.18-.51 1.69 0c.17.17.28.36.32.48l-.29.15c-.03-.1-.1-.25-.26-.41-.36-.36-.83-.29-1.16.04-.37.37-.36.83-.04 1.14.16.16.31.23.43.28l-.17.26Zm.37.47 1.58-1.58.29.29-1.58 1.58zm2.34-1.71c-.1.1-.25.11-.36 0-.11-.1-.1-.25 0-.35s.25-.11.36 0c.11.1.1.25 0 .36Zm.14 2.59c-.31-.32-.72-.62-1.03-.31-.19.19-.15.4 0 .54.21.21.48.21.65.12.04-.02.08-.05.11-.08zm-.15.7c-.14.14-.27.28-.36.4l-.26-.26.18-.22h-.01a.86.86 0 0 1-.72-.26c-.32-.32-.26-.71-.03-.94.38-.38.93-.25 1.54.36l.03-.03c.13-.13.33-.4 0-.72-.15-.15-.35-.26-.53-.3l.13-.26c.21.05.46.19.66.39.48.48.27.93-.04 1.25zm2.49-1.39.29.29-2.32 2.32-.29-.29z"/></g><path fill="#0676de" d="M418.01 109.37c.31.31.31.8 0 1.11l-7.78 7.78c-.31.31-.8.31-1.11 0l-3.95-3.94a.79.79 0 0 1-.2-.75l.58-2.32c.03-.14.11-.26.21-.37l4.88-4.88c.1-.1.23-.17.37-.21l2.32-.58c.27-.07.55.01.74.21l3.95 3.94Zm-1.11 8.52c.31.31.31.8 0 1.11l-2.96 2.96c-.31.31-.8.31-1.11 0l-1.85-1.85a.78.78 0 0 1 0-1.11l2.96-2.96c.31-.31.8-.31 1.11 0zm2.59 4.82c.31.31.31.81 0 1.11l-1.85 1.85c-.31.31-.8.31-1.11 0l-1.85-1.85a.78.78 0 0 1 0-1.11l1.85-1.85c.31-.31.8-.31 1.11 0zm5.93-5.93c.31.31.31.8 0 1.11l-4.08 4.07c-.31.31-.8.31-1.11 0l-1.85-1.85a.78.78 0 0 1 0-1.11l4.07-4.07c.31-.31.8-.31 1.11 0l1.85 1.85Zm-3.7-3.7c.31.31.31.8 0 1.11l-2.96 2.96c-.31.31-.8.31-1.11 0l-1.85-1.85a.78.78 0 0 1 0-1.11l2.96-2.96c.31-.31.8-.31 1.11 0z"/></g><g clip-path="url(#p)"><rect width="69.45" height="106.85" x="499.34" y="185" fill="#e31837" rx="8.9" ry="8.9" transform="rotate(-45 534.06 238.425)"/><path fill="#e66166" d="M513.71 205.07c.31.31.31.8 0 1.11l-7.78 7.78c-.31.31-.81.31-1.11 0l-3.94-3.94c-.2-.2-.27-.48-.21-.75l.58-2.32c.03-.14.11-.26.21-.36l4.88-4.88c.1-.1.23-.17.37-.21l2.32-.58c.27-.07.55.01.75.21l3.95 3.95Zm-1.11 8.52c.31.31.31.8 0 1.11l-2.96 2.96c-.31.31-.8.31-1.11 0l-1.85-1.85a.78.78 0 0 1 0-1.11l2.96-2.96c.31-.31.8-.31 1.11 0zm2.59 4.81c.31.31.31.8 0 1.11l-1.85 1.85c-.31.31-.8.31-1.11 0l-1.85-1.85a.78.78 0 0 1 0-1.11l1.85-1.85c.31-.31.8-.31 1.11 0zm5.93-5.92c.31.31.31.8 0 1.11l-4.07 4.07c-.31.31-.8.31-1.11 0l-1.85-1.85a.78.78 0 0 1 0-1.11l4.07-4.07c.31-.31.8-.31 1.11 0zm-3.71-3.7c.31.31.31.8 0 1.11l-2.96 2.96c-.31.31-.8.31-1.11 0l-1.85-1.85a.78.78 0 0 1 0-1.11l2.96-2.96c.31-.31.8-.31 1.11 0z"/></g><g clip-path="url(#q)"><rect width="69.45" height="106.84" x="367.99" y="-102.09" fill="#e31837" rx="8.9" ry="8.9" transform="rotate(-45 402.72 -48.672)"/></g><g clip-path="url(#r)"><rect width="69.45" height="106.85" x="463.69" y="-6.4" fill="#008c59" rx="8.9" ry="8.9" transform="rotate(-45 498.42 47.028)"/><path fill="#fffaf0" d="M478.07 13.68c.31.31.31.8 0 1.11l-7.78 7.78c-.31.31-.8.31-1.11 0l-3.94-3.94c-.2-.2-.27-.48-.21-.75l.58-2.32c.04-.14.11-.26.21-.37l4.88-4.88c.1-.1.23-.17.37-.21l2.32-.58c.27-.07.55.01.75.21l3.95 3.94Zm-1.11 8.52c.31.31.31.8 0 1.11L474 26.27c-.31.31-.8.31-1.11 0l-1.85-1.85a.78.78 0 0 1 0-1.11l2.96-2.96c.31-.31.8-.31 1.11 0zm2.59 4.81c.31.31.31.8 0 1.11l-1.85 1.85c-.31.31-.8.31-1.11 0l-1.85-1.85a.78.78 0 0 1 0-1.11l1.85-1.85c.31-.31.8-.31 1.11 0zm5.92-5.93c.31.31.31.8 0 1.11l-4.07 4.07c-.31.31-.8.31-1.11 0l-1.85-1.85a.78.78 0 0 1 0-1.11l4.07-4.07c.31-.31.8-.31 1.11 0zm-3.7-3.7c.31.31.31.8 0 1.11l-2.96 2.96c-.31.31-.8.31-1.11 0l-1.85-1.85a.78.78 0 0 1 0-1.11l2.96-2.96c.31-.31.8-.31 1.11 0z" opacity=".3"/><path fill="#fff" fill-rule="evenodd" d="M543.2 59.87c-1.98-.52-2.42-.84-4.57-1.38 1.64-.07 2.27-.16 3.48-.38-1.32-1.18-3.27-2.84-4.86-3.85 1.73.53 4.63 2.09 5.97 3.11.1-.65-.91-4.06-1.23-4.84 1.61 1.88 3.11 4.67 3.5 6.35.54.29.97.7 1.79 1.39-.52.14-.72.33-1.96.07-.34.76-3.87 3.3-5.08 3.7 1.25-1.29 2.74-3.01 2.97-4.17Zm-19.98 1.78c-.45-.98-.66-1.81-.7-2.9.64-.29 1.2-.47 1.98-.62-.67-.5-1.16-.86-1.76-1.26.3-1.13.81-1.99 1.55-3.15-1.12.9-1.89 1.58-2.55 2.53-.58-.33-1.02-.55-1.57-.75.2.85.38 1.53.7 2.4-.37.99-.5 1.79-.49 2.84.32-.57.65-.96 1.16-1.38.47.86.94 1.52 1.67 2.3Zm11.95-8.23c-.52.06-1.31.34-1.63.53 1.59 2.09 2.13 4.52 2.13 4.52-1.33-1.9-2.21-2.71-2.87-3.26-.66-.54-.85-.59-.85-.59-1.38.51-3.27 1.89-3.27 1.89.41-1 1.4-2.84 1.4-2.84-1.25-.38-4.87-.49-4.87-.49 3.08-1.03 5.07-.93 5.07-.93 0-.72-.76-1.84-1.42-2.55.51.21 1.59.96 2.33 1.63a15 15 0 0 1 1.11 1.15c1.13.13 2.5.67 2.88.95Zm-6.87 10.76c-.77.11-1.39.18-2.16.22a8.8 8.8 0 0 1-1.95-1.48c.18.56.42 1.04.73 1.5-.74-.03-1.32-.11-1.93-.25.78.48 1.88 1.04 2.85 1.3.31.33.63.61.89.79.14-.24.24-.42.43-.71 1.03.13 1.86.15 2.83.14-.87-.15-1.59-.33-2.45-.64q.36-.45.75-.87Z" opacity=".9"/></g><g clip-path="url(#s)"><rect width="69.45" height="106.85" x="559.39" y="89.3" fill="#009bcf" rx="8.9" ry="8.9" transform="rotate(-45 594.12 142.728)"/><path fill="#fffaf0" d="M573.76 109.37c.31.31.31.8 0 1.11l-7.78 7.78c-.31.31-.8.31-1.11 0l-3.94-3.94a.8.8 0 0 1-.21-.75l.58-2.32c.03-.14.1-.26.21-.37l4.88-4.88c.1-.1.23-.17.37-.21l2.32-.58c.27-.07.55.01.75.21l3.95 3.94Zm-1.11 8.52c.31.31.31.8 0 1.11l-2.96 2.96c-.31.31-.8.31-1.11 0l-1.85-1.85a.78.78 0 0 1 0-1.11l2.96-2.96c.31-.31.8-.31 1.11 0zm2.6 4.82c.31.31.31.81 0 1.11l-1.85 1.85c-.31.31-.8.31-1.11 0l-1.85-1.85a.78.78 0 0 1 0-1.11l1.85-1.85c.31-.31.8-.31 1.11 0zm5.92-5.93c.31.31.31.8 0 1.11l-4.07 4.07c-.31.31-.8.31-1.11 0l-1.85-1.85a.78.78 0 0 1 0-1.11l4.07-4.07c.31-.31.8-.31 1.11 0zm-3.7-3.7c.31.31.31.8 0 1.11l-2.96 2.96c-.31.31-.8.31-1.11 0l-1.85-1.85a.78.78 0 0 1 0-1.11l2.96-2.96c.31-.31.8-.31 1.11 0z" opacity=".3"/><path fill="#fff" d="M634.82 149.44c.47.5.76.99.79 1.6.04.6-.58 1.35-.87 1.67-.28.32-1.19 1.21-1.32 1.96-.13.78.08 1.26.5 1.67.1.1.2.19.32.28.62.49 1.1.31 1.1.31s-.34-.59.25-1.17c.39-.4 1.1-.42 1.76-.07.21.11.41.27.59.45.59.59 1.01 1.51.87 2.53-.33 2.35-2.19 4.37-4.25 5.93-2.06 1.57-4.89 2.1-4.97 2.11-.05.01-.09 0-.11-.02a.1.1 0 0 1-.02-.06c-.02-.97.17-2.1.41-2.75-.39-.05-.64.43-.92.94-.29.52-.54 1.33-.62 1.59-.07.26-.14.59-.41.52-.03 0-.06-.02-.09-.05-.22-.22-.35-1.13-.16-2.49.22-1.53.67-2.64.67-2.64-.06-.03-.21-.03-.43.2s-.82 1.3-1.14 2.52c-.32 1.23-.39 2.14-.42 2.32-.02.12-.1.11-.16.1-.05 0-1.61-.06-3.41-.58-2.11-.64-2.85-1.12-2.85-1.12s-.48-.74-1.12-2.86c-.53-1.8-.58-3.35-.59-3.4 0-.06-.01-.14.1-.15.19-.03 1.1-.09 2.33-.42s2.29-.93 2.52-1.15c.23-.21.23-.37.2-.43 0 0-1.11.45-2.64.67-1.36.2-2.28.06-2.5-.16-.03-.03-.04-.06-.05-.08-.07-.27.25-.34.52-.41s1.08-.33 1.59-.62c.51-.27.99-.53.95-.92-.64.24-1.77.42-2.75.41-.03 0-.04 0-.06-.02-.02-.03-.03-.06-.02-.12.01-.08.54-2.91 2.11-4.97 1.56-2.06 3.59-3.92 5.93-4.24 1.03-.14 1.93.28 2.52.86.19.19.34.39.46.6.35.65.33 1.35-.06 1.76-.59.58-1.17.25-1.17.25s-.17.5.31 1.09c.14.17.29.32.29.32 1.15 1.13 2.26.58 3.05-.12.8-.7.68-1.38.21-1.98-.06-.07-.11-.14-.17-.19-.39-.39-.68-.33-.68-.33.11-.46.65-.69 1.2-.58.57.11 1.02.47 1.33.78.06.06.11.11.16.17.28-.02.43 0 .84.4l.1.1Z"/></g><g clip-path="url(#t)"><rect width="69.45" height="106.85" x="655.09" y="185" fill="#722b03" rx="8.9" ry="8.9" transform="rotate(-45 689.808 238.422)"/><path fill="#fff" fill-opacity=".2" d="M669.46 205.07c.31.31.31.8 0 1.11l-7.78 7.78c-.31.31-.8.31-1.11 0l-3.95-3.94c-.2-.2-.27-.48-.21-.75l.58-2.32c.03-.14.11-.26.21-.36l4.88-4.88c.1-.1.23-.17.36-.21l2.32-.58c.27-.07.55.01.74.21l3.95 3.95Zm-1.11 8.52c.31.31.31.8 0 1.11l-2.96 2.96c-.31.31-.8.31-1.11 0l-1.85-1.85a.78.78 0 0 1 0-1.11l2.96-2.96c.31-.31.8-.31 1.11 0zm2.59 4.81c.31.31.31.8 0 1.11l-1.85 1.85c-.31.31-.8.31-1.11 0l-1.85-1.85a.78.78 0 0 1 0-1.11l1.85-1.85c.31-.31.8-.31 1.11 0zm5.93-5.92c.31.31.31.8 0 1.11l-4.07 4.07c-.31.31-.8.31-1.11 0l-1.85-1.85a.78.78 0 0 1 0-1.11l4.07-4.07c.31-.31.8-.31 1.11 0zm-3.71-3.7c.31.31.31.8 0 1.11l-2.96 2.96c-.31.31-.8.31-1.11 0l-1.85-1.85a.78.78 0 0 1 0-1.11l2.96-2.96c.31-.31.8-.31 1.11 0z"/></g><g clip-path="url(#u)"><rect width="69.45" height="106.84" x="523.75" y="-102.09" fill="#0f5ba7" rx="8.9" ry="8.9" transform="rotate(-45 558.468 -48.675)"/></g><g clip-path="url(#v)"><rect width="69.45" height="106.84" x="619.44" y="-6.4" fill="#0f5ba7" rx="8.9" ry="8.9" transform="rotate(-45 654.168 47.025)"/><path fill="#0676de" d="M633.82 13.68c.31.31.31.8 0 1.11l-7.78 7.78c-.31.31-.8.31-1.11 0l-3.95-3.94c-.2-.2-.27-.48-.21-.75l.58-2.32c.04-.14.11-.26.21-.37l4.88-4.88c.1-.1.23-.17.36-.21l2.32-.58c.27-.07.55.01.75.21l3.95 3.94Zm-1.11 8.51c.31.31.31.8 0 1.11l-2.96 2.96c-.31.31-.8.31-1.11 0l-1.85-1.85a.78.78 0 0 1 0-1.11l2.96-2.96c.31-.31.8-.31 1.11 0zm2.59 4.82c.31.31.31.8 0 1.11l-1.85 1.85c-.31.31-.8.31-1.11 0l-1.85-1.85a.78.78 0 0 1 0-1.11l1.85-1.85c.31-.31.8-.31 1.11 0zm5.92-5.93c.31.31.31.8 0 1.11l-4.07 4.07c-.31.31-.8.31-1.11 0l-1.85-1.85a.78.78 0 0 1 0-1.11l4.07-4.07c.31-.31.8-.31 1.11 0zm-3.7-3.7c.31.31.31.8 0 1.11l-2.96 2.96c-.31.31-.8.31-1.11 0l-1.85-1.85a.78.78 0 0 1 0-1.11l2.96-2.96c.31-.31.8-.31 1.11 0z"/><path fill="#fff" d="M684.65 69.95c.29.29.77.29 1.07 0l3.74-3.74-9.88-9.88.23 8.77 4.85 4.85Zm-4.3-15.11c-.29.29-.3.77 0 1.07l3.74 3.74 9.88-9.88-8.77.23z"/></g></g></svg>