<svg xmlns="http://www.w3.org/2000/svg" viewBox="0 0 680 220"><defs><clipPath id="a"><path fill="none" d="M0 0h680v220H0z"/></clipPath><clipPath id="b"><rect width="69.45" height="106.84" x="92.14" y="89.3" fill="none" rx="8.9" ry="8.9" transform="rotate(-45 126.867 142.72)"/></clipPath><clipPath id="c"><path fill="none" d="m431.44 86.69 62.96 62.96a8.896 8.896 0 0 1 0 12.59l-36.52 36.52a8.896 8.896 0 0 1-12.59 0l-62.96-62.96a8.896 8.896 0 0 1 0-12.59l36.52-36.52a8.896 8.896 0 0 1 12.59 0"/></clipPath><clipPath id="d"><path fill="none" d="m458.376 146.412 10.72-10.72 20.704 20.704-10.72 10.72z"/></clipPath></defs><g clip-path="url(#a)"><rect width="69.45" height="106.84" x="-63.61" y="89.3" fill="#016fd0" rx="8.9" ry="8.9" transform="rotate(-45 -28.882 142.723)"/><rect width="69.45" height="106.84" x="32.08" y="185" fill="#49225b" rx="8.9" ry="8.9" transform="rotate(-45 66.806 238.418)"/><path fill="#fffaf0" d="M46.46 205.07c.31.31.31.8 0 1.11l-7.78 7.78c-.31.31-.8.31-1.11 0l-3.95-3.94a.83.83 0 0 1-.21-.75l.58-2.32c.03-.14.11-.26.21-.36l4.88-4.88c.1-.1.23-.17.36-.21l2.32-.58c.27-.07.55.01.75.21l3.94 3.95Zm-1.11 8.52c.31.31.31.8 0 1.11l-2.96 2.96c-.31.31-.8.31-1.11 0l-1.85-1.85a.78.78 0 0 1 0-1.11l2.96-2.96c.31-.31.8-.31 1.11 0zm2.59 4.81c.31.31.31.8 0 1.11l-1.85 1.85c-.31.31-.8.31-1.11 0l-1.85-1.85a.78.78 0 0 1 0-1.11l1.85-1.85c.31-.31.8-.31 1.11 0zm5.93-5.92c.31.31.31.8 0 1.11l-4.07 4.07c-.31.31-.8.31-1.11 0l-1.85-1.85a.78.78 0 0 1 0-1.11l4.07-4.07c.31-.31.8-.31 1.11 0zm-3.71-3.7c.31.31.31.8 0 1.11l-2.96 2.96c-.31.31-.8.31-1.11 0L44.24 211a.78.78 0 0 1 0-1.11l2.96-2.96c.31-.31.8-.31 1.11 0z" opacity=".3"/><rect width="69.45" height="106.84" x="-3.56" y="-6.4" fill="#0f5ba7" rx="8.9" ry="8.9" transform="rotate(-45 31.166 47.02)"/><path fill="#fffaf0" d="M10.82 13.68c.31.31.31.8 0 1.11l-7.78 7.78c-.31.31-.8.31-1.11 0l-3.95-3.94a.83.83 0 0 1-.21-.75l.58-2.32c.03-.14.11-.26.21-.37l4.88-4.88c.1-.1.23-.17.36-.21l2.32-.58c.27-.07.55.01.75.21l3.95 3.94ZM9.7 22.2c.31.31.31.8 0 1.11l-2.96 2.96c-.31.31-.8.31-1.11 0l-1.85-1.85a.78.78 0 0 1 0-1.11l2.96-2.96c.31-.31.8-.31 1.11 0zm2.6 4.81c.31.31.31.8 0 1.11l-1.85 1.85c-.31.31-.8.31-1.11 0l-1.85-1.85a.78.78 0 0 1 0-1.11l1.85-1.85c.31-.31.8-.31 1.11 0zm5.92-5.93c.31.31.31.8 0 1.11l-4.07 4.07c-.31.31-.8.31-1.11 0l-1.85-1.85a.78.78 0 0 1 0-1.11l4.07-4.07c.31-.31.8-.31 1.11 0zm-3.7-3.7c.31.31.31.8 0 1.11l-2.96 2.96c-.31.31-.8.31-1.11 0L8.6 19.6a.78.78 0 0 1 0-1.11l2.96-2.96c.31-.31.8-.31 1.11 0z" opacity=".3"/><g clip-path="url(#b)"><rect width="69.45" height="106.84" x="92.14" y="89.3" fill="#780505" rx="8.9" ry="8.9" transform="rotate(-45 126.867 142.72)"/><path fill="#ff5f00" d="m164.36 144.94 5.62 5.62-9.18 9.18-5.62-5.62z"/><path fill="#eb001b" d="M160.35 150.11a8.26 8.26 0 0 1 6.82-2.36 8.24 8.24 0 0 0-9.18-7.21 8.24 8.24 0 0 0-7.21 9.18 8.24 8.24 0 0 0 7.21 7.21c-.3-2.51.57-5.03 2.36-6.82"/><path fill="#f79e1b" d="M172.02 161.78c-3.22 3.22-8.45 3.22-11.67 0a8.26 8.26 0 0 1-2.36-4.86c4.53.54 8.64-2.69 9.18-7.21.08-.65.08-1.31 0-1.96 4.53.54 7.76 4.65 7.22 9.18a8.2 8.2 0 0 1-2.36 4.85Z"/><path fill="#400000" d="M106.51 109.37c.31.31.31.8 0 1.11l-7.78 7.78c-.31.31-.8.31-1.11 0l-3.95-3.94a.82.82 0 0 1-.21-.75l.58-2.32c.03-.14.11-.26.21-.37l4.88-4.88c.1-.1.23-.17.37-.21l2.32-.58c.27-.07.55.01.75.21l3.94 3.94Zm-1.11 8.52c.31.31.31.8 0 1.11l-2.96 2.96c-.31.31-.8.31-1.11 0l-1.85-1.85a.78.78 0 0 1 0-1.11l2.96-2.96c.31-.31.8-.31 1.11 0zm2.59 4.82c.31.31.31.81 0 1.11l-1.85 1.85c-.31.31-.8.31-1.11 0l-1.85-1.85a.78.78 0 0 1 0-1.11l1.85-1.85c.31-.31.8-.31 1.11 0zm5.93-5.93c.31.31.31.8 0 1.11l-4.07 4.07c-.31.31-.8.31-1.11 0l-1.85-1.85a.78.78 0 0 1 0-1.11l4.07-4.07c.31-.31.8-.31 1.11 0zm-3.71-3.7c.31.31.31.8 0 1.11l-2.96 2.96c-.31.31-.8.31-1.11 0l-1.85-1.85a.78.78 0 0 1 0-1.11l2.96-2.96c.31-.31.8-.31 1.11 0z"/></g><rect width="69.45" height="106.84" x="187.83" y="185" fill="#ff7101" rx="8.9" ry="8.9" transform="rotate(-45 222.567 238.42)"/><path fill="#fffaf0" d="M202.21 205.07c.31.31.31.8 0 1.11l-7.78 7.78c-.31.31-.8.31-1.11 0l-3.95-3.94a.83.83 0 0 1-.21-.75l.58-2.32c.03-.14.11-.26.21-.36l4.88-4.88c.1-.1.23-.17.36-.21l2.32-.58c.27-.07.55.01.75.21l3.95 3.95Zm-1.11 8.52c.31.31.31.8 0 1.11l-2.96 2.96c-.31.31-.8.31-1.11 0l-1.85-1.85a.78.78 0 0 1 0-1.11l2.96-2.96c.31-.31.8-.31 1.11 0zm2.59 4.81c.31.31.31.8 0 1.11l-1.85 1.85c-.31.31-.8.31-1.11 0l-1.85-1.85a.78.78 0 0 1 0-1.11l1.85-1.85c.31-.31.8-.31 1.11 0zm5.93-5.92c.31.31.31.8 0 1.11l-4.07 4.07c-.31.31-.8.31-1.11 0l-1.85-1.85a.78.78 0 0 1 0-1.11l4.07-4.07c.31-.31.8-.31 1.11 0zm-3.71-3.7c.31.31.31.8 0 1.11l-2.96 2.96c-.31.31-.8.31-1.11 0l-1.85-1.85a.78.78 0 0 1 0-1.11l2.96-2.96c.31-.31.8-.31 1.11 0z" opacity=".3"/><rect width="69.45" height="106.84" x="56.49" y="-102.09" fill="#008c59" rx="8.9" ry="8.9" transform="rotate(-45 91.222 -48.665)"/><rect width="69.45" height="106.84" x="152.19" y="-6.4" fill="#004989" rx="8.9" ry="8.9" transform="rotate(-45 186.91 47.03)"/><path fill="#fffaf0" d="M166.57 13.68c.31.31.31.8 0 1.11l-7.78 7.78c-.31.31-.8.31-1.11 0l-3.95-3.94a.83.83 0 0 1-.21-.75l.58-2.32c.04-.14.11-.26.21-.37l4.88-4.88c.1-.1.23-.17.36-.21l2.32-.58c.27-.07.55.01.75.21l3.94 3.94Zm-1.12 8.52c.31.31.31.8 0 1.11l-2.96 2.96c-.31.31-.8.31-1.11 0l-1.85-1.85a.78.78 0 0 1 0-1.11l2.96-2.96c.31-.31.8-.31 1.11 0zm2.6 4.81c.31.31.31.8 0 1.11l-1.85 1.85c-.31.31-.8.31-1.11 0l-1.85-1.85a.78.78 0 0 1 0-1.11l1.85-1.85c.31-.31.8-.31 1.11 0zm5.92-5.93c.31.31.31.8 0 1.11l-4.07 4.07c-.31.31-.8.31-1.11 0l-1.85-1.85a.78.78 0 0 1 0-1.11l4.07-4.07c.31-.31.8-.31 1.11 0zm-3.7-3.7c.31.31.31.8 0 1.11l-2.96 2.96c-.31.31-.8.31-1.11 0l-1.85-1.85a.78.78 0 0 1 0-1.11l2.96-2.96c.31-.31.8-.31 1.11 0z" opacity=".3"/><rect width="69.45" height="106.84" x="247.89" y="89.3" fill="#e31837" rx="8.9" ry="8.9" transform="rotate(-45 282.61 142.729)"/><path fill="#fffaf0" d="M262.26 109.37c.31.31.31.8 0 1.11l-7.78 7.78c-.31.31-.8.31-1.11 0l-3.94-3.94a.8.8 0 0 1-.21-.75l.58-2.32c.03-.14.1-.26.21-.37l4.88-4.88c.1-.1.23-.17.37-.21l2.32-.58c.27-.07.55.01.75.21l3.95 3.94Zm-1.11 8.52c.31.31.31.8 0 1.11l-2.96 2.96c-.31.31-.8.31-1.11 0l-1.85-1.85a.78.78 0 0 1 0-1.11l2.96-2.96c.31-.31.8-.31 1.11 0zm2.59 4.82c.31.31.31.81 0 1.11l-1.85 1.85c-.31.31-.8.31-1.11 0l-1.85-1.85a.78.78 0 0 1 0-1.11l1.85-1.85c.31-.31.8-.31 1.11 0zm5.93-5.93c.31.31.31.8 0 1.11l-4.08 4.07c-.31.31-.8.31-1.11 0l-1.85-1.85a.78.78 0 0 1 0-1.11l4.07-4.07c.31-.31.8-.31 1.11 0l1.85 1.85Zm-3.7-3.7c.31.31.31.8 0 1.11l-2.96 2.96c-.31.31-.8.31-1.11 0l-1.85-1.85a.78.78 0 0 1 0-1.11l2.96-2.96c.31-.31.8-.31 1.11 0z" opacity=".3"/><rect width="69.45" height="106.84" x="343.59" y="185" fill="#0281c4" rx="8.9" ry="8.9" transform="rotate(-45 378.31 238.429)"/><path fill="#fffaf0" d="M357.96 205.07c.31.31.31.8 0 1.11l-7.78 7.78c-.31.31-.8.31-1.11 0l-3.95-3.94c-.2-.2-.27-.48-.21-.75l.58-2.32c.03-.14.11-.26.21-.36l4.88-4.88c.1-.1.23-.17.36-.21l2.32-.58c.27-.07.55.01.75.21l3.95 3.95Zm-1.11 8.52c.31.31.31.8 0 1.11l-2.96 2.96c-.31.31-.8.31-1.11 0l-1.85-1.85a.78.78 0 0 1 0-1.11l2.96-2.96c.31-.31.8-.31 1.11 0zm2.59 4.81c.31.31.31.8 0 1.11l-1.85 1.85c-.31.31-.8.31-1.11 0l-1.85-1.85a.78.78 0 0 1 0-1.11l1.85-1.85c.31-.31.8-.31 1.11 0zm5.93-5.92c.31.31.31.8 0 1.11l-4.07 4.07c-.31.31-.8.31-1.11 0l-1.85-1.85a.78.78 0 0 1 0-1.11l4.07-4.07c.31-.31.8-.31 1.11 0zm-3.7-3.7c.31.31.31.8 0 1.11l-2.96 2.96c-.31.31-.8.31-1.11 0l-1.85-1.85a.78.78 0 0 1 0-1.11l2.96-2.96c.31-.31.8-.31 1.11 0z" opacity=".3"/><rect width="69.45" height="106.85" x="212.24" y="-102.09" fill="#016fd0" rx="8.9" ry="8.9" transform="rotate(-45 246.97 -48.669)"/><rect width="69.45" height="106.84" x="307.94" y="-6.4" fill="#dd1e25" rx="8.9" ry="8.9" transform="rotate(-45 342.67 47.031)"/><path fill="#fffaf0" d="M322.32 13.68c.31.31.31.8 0 1.11l-7.78 7.78c-.31.31-.8.31-1.11 0l-3.94-3.94c-.2-.2-.27-.48-.21-.75l.58-2.32c.04-.14.11-.26.21-.37l4.88-4.88c.1-.1.23-.17.37-.21l2.32-.58c.27-.07.55.01.75.21l3.95 3.94Zm-1.11 8.52c.31.31.31.8 0 1.11l-2.96 2.96c-.31.31-.8.31-1.11 0l-1.85-1.85a.78.78 0 0 1 0-1.11l2.96-2.96c.31-.31.8-.31 1.11 0zm2.59 4.81c.31.31.31.8 0 1.11l-1.85 1.85c-.31.31-.8.31-1.11 0l-1.85-1.85a.78.78 0 0 1 0-1.11l1.85-1.85c.31-.31.8-.31 1.11 0zm5.92-5.93c.31.31.31.8 0 1.11l-4.07 4.07c-.31.31-.8.31-1.11 0l-1.85-1.85a.78.78 0 0 1 0-1.11l4.07-4.07c.31-.31.8-.31 1.11 0zm-3.7-3.7c.31.31.31.8 0 1.11l-2.96 2.96c-.31.31-.8.31-1.11 0l-1.85-1.85a.78.78 0 0 1 0-1.11l2.96-2.96c.31-.31.8-.31 1.11 0z" opacity=".3"/><g clip-path="url(#c)"><rect width="69.45" height="106.85" x="403.64" y="89.3" fill="#003c73" rx="8.9" ry="8.9" transform="rotate(-45 438.359 142.726)"/><g fill="#fff" clip-path="url(#d)"><path d="m479.17 146.13-7.81 5.06-1.66-1.66 7.81-5.06zm2.85 11.15 3.29-1.54-1.91 2.92zm-.43 4.14 1.54 1.54 5.09-7.77-1.42-1.42c-.32-.32-.77-.4-1.18-.24l-8.46 3.46 1.75 1.75 1.31-.61 2.13 2.13zm-2.24-6.45c1.7-1.69-.56-4.14.22-4.88.24-.23.7-.25 1.24.17.27.21.95.84 1.35 1.93l1.66-1.07c-.25-.55-.63-1.2-1.27-1.84-1.64-1.64-3.68-1.93-4.94-.69-.94.91-.62 2.27-.29 3.21.33.96.35 1.38.06 1.66-.44.43-1.14.1-1.62-.37-.85-.82-1.1-1.55-1.3-2.12l-1.71 1.11c.21.57.77 1.44 1.51 2.19 1.75 1.75 3.76 2.03 5.1.7Zm-2.56-11.22-9.13 3.74-1.76-1.76 3.81-6.46c.24-.4.28-.58.17-.96-.18-.62-.64-1.48-1.1-2.19l.23-.15 2.83 2.83c.36.36.45.93.11 1.42l-3.02 4.42 6.11-2.65 1.75 1.75Zm-12.53 7.83c-.15-.05-.42-.21-.69-.48-.62-.62-.69-1.48.03-2.21.69-.69 1.63-.69 2.31 0 .27.27.39.51.43.62l-.3.16c-.05-.16-.17-.35-.35-.53-.52-.52-1.19-.53-1.77.05-.54.54-.58 1.2-.04 1.73.18.18.39.32.56.38l-.17.28Zm1.3-.14c-.35.35-.41.8-.13 1.09s.74.22 1.1-.13c.27-.27.47-.74.13-1.08s-.8-.17-1.1.13Zm1.27 1.23c-.58.59-1.25.43-1.63.05-.42-.43-.44-1.07.06-1.57.53-.53 1.19-.49 1.62-.05.45.45.43 1.09-.05 1.57m.79.1c.17-.17.29-.3.42-.44l.25.25-.25.27c.24-.05.53-.05.79.22.21.21.24.51.13.76.14-.04.27-.04.39-.02.17.02.31.09.46.24.21.21.39.66-.16 1.21l-.93.93-.28-.28.89-.89c.31-.31.37-.6.14-.83-.17-.17-.41-.17-.6-.09-.06.03-.11.07-.17.12l-.98.98-.28-.28.95-.95c.25-.25.32-.54.1-.76-.18-.18-.46-.17-.64-.07-.06.02-.11.07-.16.12l-.95.95-.28-.28 1.15-1.15Zm2.81 2.81c.17-.17.29-.3.41-.44l.25.25-.24.27c.24-.05.53-.05.79.22.21.21.25.51.13.76.14-.04.27-.04.39-.02.17.02.31.08.46.24.21.21.39.66-.16 1.21l-.93.93-.28-.28.89-.89c.31-.31.37-.6.14-.83-.17-.17-.41-.17-.6-.09-.06.03-.12.07-.17.12l-.98.98-.28-.28.95-.95c.25-.25.32-.54.1-.76-.18-.18-.46-.17-.65-.07-.06.02-.11.07-.16.12l-.95.95-.28-.28 1.15-1.15Zm3.61 4.02c.18-.18.39-.54.07-.86-.3-.29-.68-.15-.91.02zm-1.05-.64c-.38.4-.3.8 0 1.09.21.21.37.3.52.36l-.15.26c-.15-.06-.38-.18-.63-.43-.49-.49-.45-1.1.02-1.58.48-.48 1.13-.57 1.59-.11.52.52.2 1.11-.09 1.4-.06.06-.1.1-.14.12l-1.11-1.11Zm1.91 1.22c.19-.19.34-.35.48-.51l.25.25-.3.33h.01c.29-.13.6-.09.79.11.03.03.05.05.07.08l-.27.27s-.05-.06-.09-.1c-.2-.2-.5-.2-.75-.02-.05.03-.1.08-.14.12l-.84.84-.29-.29 1.09-1.09Zm1.21 3.28c-.11-.04-.33-.15-.55-.36-.48-.48-.46-1.11.02-1.6s1.18-.51 1.69 0c.17.17.28.36.32.48l-.29.15c-.03-.1-.1-.25-.26-.41-.36-.36-.83-.29-1.16.04-.37.37-.36.83-.04 1.14.16.16.31.23.43.28l-.17.26Zm.37.47 1.58-1.58.29.29-1.58 1.58zm2.34-1.71c-.1.1-.25.11-.36 0-.11-.1-.1-.25 0-.35s.25-.11.36 0c.11.1.1.25 0 .36Zm.14 2.59c-.31-.32-.72-.62-1.03-.31-.19.19-.15.4 0 .54.21.21.48.21.65.12.04-.02.08-.05.11-.08zm-.15.7c-.14.14-.27.28-.36.4l-.26-.26.18-.22h-.01a.86.86 0 0 1-.72-.26c-.32-.32-.26-.71-.03-.94.38-.38.93-.25 1.54.36l.03-.03c.13-.13.33-.4 0-.72-.15-.15-.35-.26-.53-.3l.13-.26c.21.05.46.19.66.39.48.48.27.93-.04 1.25zm2.49-1.39.29.29-2.32 2.32-.29-.29z"/></g><path fill="#0676de" d="M418.01 109.37c.31.31.31.8 0 1.11l-7.78 7.78c-.31.31-.8.31-1.11 0l-3.95-3.94a.79.79 0 0 1-.2-.75l.58-2.32c.03-.14.11-.26.21-.37l4.88-4.88c.1-.1.23-.17.37-.21l2.32-.58c.27-.07.55.01.74.21l3.95 3.94Zm-1.11 8.52c.31.31.31.8 0 1.11l-2.96 2.96c-.31.31-.8.31-1.11 0l-1.85-1.85a.78.78 0 0 1 0-1.11l2.96-2.96c.31-.31.8-.31 1.11 0zm2.59 4.82c.31.31.31.81 0 1.11l-1.85 1.85c-.31.31-.8.31-1.11 0l-1.85-1.85a.78.78 0 0 1 0-1.11l1.85-1.85c.31-.31.8-.31 1.11 0zm5.93-5.93c.31.31.31.8 0 1.11l-4.08 4.07c-.31.31-.8.31-1.11 0l-1.85-1.85a.78.78 0 0 1 0-1.11l4.07-4.07c.31-.31.8-.31 1.11 0l1.85 1.85Zm-3.7-3.7c.31.31.31.8 0 1.11l-2.96 2.96c-.31.31-.8.31-1.11 0l-1.85-1.85a.78.78 0 0 1 0-1.11l2.96-2.96c.31-.31.8-.31 1.11 0z"/></g><rect width="69.45" height="106.85" x="499.34" y="185" fill="#008c59" rx="8.9" ry="8.9" transform="rotate(-45 534.06 238.425)"/><path fill="#fffaf0" d="M513.71 205.07c.31.31.31.8 0 1.11l-7.78 7.78c-.31.31-.8.31-1.11 0l-3.95-3.94c-.2-.2-.27-.48-.21-.75l.58-2.32c.03-.14.11-.26.21-.36l4.88-4.88c.1-.1.23-.17.36-.21l2.32-.58c.27-.07.55.01.75.21l3.94 3.95Zm-1.11 8.52c.31.31.31.8 0 1.11l-2.96 2.96c-.31.31-.8.31-1.11 0l-1.85-1.85a.78.78 0 0 1 0-1.11l2.96-2.96c.31-.31.8-.31 1.11 0zm2.59 4.81c.31.31.31.8 0 1.11l-1.85 1.85c-.31.31-.8.31-1.11 0l-1.85-1.85a.78.78 0 0 1 0-1.11l1.85-1.85c.31-.31.8-.31 1.11 0zm5.93-5.92c.31.31.31.8 0 1.11l-4.07 4.07c-.31.31-.8.31-1.11 0l-1.85-1.85a.78.78 0 0 1 0-1.11l4.07-4.07c.31-.31.8-.31 1.11 0zm-3.71-3.7c.31.31.31.8 0 1.11l-2.96 2.96c-.31.31-.8.31-1.11 0l-1.85-1.85a.78.78 0 0 1 0-1.11l2.96-2.96c.31-.31.8-.31 1.11 0z" opacity=".3"/><rect width="69.45" height="106.84" x="367.99" y="-102.09" fill="#f25730" rx="8.9" ry="8.9" transform="rotate(-45 402.72 -48.672)"/><rect width="69.45" height="106.85" x="463.69" y="-6.4" fill="#0281c4" rx="8.9" ry="8.9" transform="rotate(-45 498.42 47.028)"/><path fill="#fffaf0" d="M478.07 13.68c.31.31.31.8 0 1.11l-7.78 7.78c-.31.31-.8.31-1.11 0l-3.94-3.94c-.2-.2-.27-.48-.21-.75l.58-2.32c.04-.14.11-.26.21-.37l4.88-4.88c.1-.1.23-.17.37-.21l2.32-.58c.27-.07.55.01.75.21l3.95 3.94Zm-1.11 8.52c.31.31.31.8 0 1.11L474 26.27c-.31.31-.8.31-1.11 0l-1.85-1.85a.78.78 0 0 1 0-1.11l2.96-2.96c.31-.31.8-.31 1.11 0zm2.59 4.81c.31.31.31.8 0 1.11l-1.85 1.85c-.31.31-.8.31-1.11 0l-1.85-1.85a.78.78 0 0 1 0-1.11l1.85-1.85c.31-.31.8-.31 1.11 0zm5.92-5.93c.31.31.31.8 0 1.11l-4.07 4.07c-.31.31-.8.31-1.11 0l-1.85-1.85a.78.78 0 0 1 0-1.11l4.07-4.07c.31-.31.8-.31 1.11 0zm-3.7-3.7c.31.31.31.8 0 1.11l-2.96 2.96c-.31.31-.8.31-1.11 0l-1.85-1.85a.78.78 0 0 1 0-1.11l2.96-2.96c.31-.31.8-.31 1.11 0z" opacity=".3"/><rect width="69.45" height="106.85" x="559.39" y="89.3" fill="#635bff" rx="8.9" ry="8.9" transform="rotate(-45 594.12 142.728)"/><path fill="#fffaf0" d="M573.77 109.37c.31.31.31.8 0 1.11l-7.78 7.78c-.31.31-.8.31-1.11 0l-3.94-3.94a.8.8 0 0 1-.21-.75l.58-2.32c.03-.14.1-.26.21-.37l4.88-4.88c.1-.1.23-.17.37-.21l2.32-.58c.27-.07.55.01.75.21l3.95 3.94Zm-1.12 8.52c.31.31.31.8 0 1.11l-2.96 2.96c-.31.31-.8.31-1.11 0l-1.85-1.85a.78.78 0 0 1 0-1.11l2.96-2.96c.31-.31.8-.31 1.11 0zm2.6 4.82c.31.31.31.81 0 1.11l-1.85 1.85c-.31.31-.8.31-1.11 0l-1.85-1.85a.78.78 0 0 1 0-1.11l1.85-1.85c.31-.31.8-.31 1.11 0zm5.92-5.93c.31.31.31.8 0 1.11l-4.07 4.07c-.31.31-.8.31-1.11 0l-1.85-1.85a.78.78 0 0 1 0-1.11l4.07-4.07c.31-.31.8-.31 1.11 0zm-3.7-3.7c.31.31.31.8 0 1.11l-2.96 2.96c-.31.31-.8.31-1.11 0l-1.85-1.85a.78.78 0 0 1 0-1.11l2.96-2.96c.31-.31.8-.31 1.11 0z" opacity=".3"/><rect width="69.45" height="106.85" x="655.09" y="185" fill="#722b03" rx="8.9" ry="8.9" transform="rotate(-45 689.808 238.422)"/><path fill="#fffaf0" d="M669.46 205.07c.31.31.31.8 0 1.11l-7.78 7.78c-.31.31-.8.31-1.11 0l-3.94-3.94c-.2-.2-.27-.48-.21-.75l.58-2.32c.03-.14.11-.26.21-.36l4.88-4.88c.1-.1.23-.17.36-.21l2.32-.58c.27-.07.55.01.75.21l3.94 3.95Zm-1.11 8.52c.31.31.31.8 0 1.11l-2.96 2.96c-.31.31-.8.31-1.11 0l-1.85-1.85a.78.78 0 0 1 0-1.11l2.96-2.96c.31-.31.8-.31 1.11 0zm2.59 4.81c.31.31.31.8 0 1.11l-1.85 1.85c-.31.31-.8.31-1.11 0l-1.85-1.85a.78.78 0 0 1 0-1.11l1.85-1.85c.31-.31.8-.31 1.11 0zm5.93-5.92c.31.31.31.8 0 1.11l-4.07 4.07c-.31.31-.8.31-1.11 0l-1.85-1.85a.78.78 0 0 1 0-1.11l4.07-4.07c.31-.31.8-.31 1.11 0zm-3.71-3.7c.31.31.31.8 0 1.11l-2.96 2.96c-.31.31-.8.31-1.11 0l-1.85-1.85a.78.78 0 0 1 0-1.11l2.96-2.96c.31-.31.8-.31 1.11 0z" opacity=".3"/><rect width="69.45" height="106.84" x="523.75" y="-102.09" fill="#0f5ba7" rx="8.9" ry="8.9" transform="rotate(-45 558.468 -48.675)"/><rect width="69.45" height="106.84" x="619.44" y="-6.4" fill="#0f5ba7" rx="8.9" ry="8.9" transform="rotate(-45 654.168 47.025)"/><path fill="#0676de" d="M633.82 13.68c.31.31.31.8 0 1.11l-7.78 7.78c-.31.31-.8.31-1.11 0l-3.95-3.94c-.2-.2-.27-.48-.21-.75l.58-2.32c.04-.14.11-.26.21-.37l4.88-4.88c.1-.1.23-.17.37-.21l2.32-.58c.27-.07.55.01.74.21l3.95 3.94Zm-1.11 8.51c.31.31.31.8 0 1.11l-2.96 2.96c-.31.31-.8.31-1.11 0l-1.85-1.85a.78.78 0 0 1 0-1.11l2.96-2.96c.31-.31.8-.31 1.11 0zm2.59 4.82c.31.31.31.8 0 1.11l-1.85 1.85c-.31.31-.8.31-1.11 0l-1.85-1.85a.78.78 0 0 1 0-1.11l1.85-1.85c.31-.31.8-.31 1.11 0zm5.93-5.93c.31.31.31.8 0 1.11l-4.07 4.07c-.31.31-.8.31-1.11 0l-1.85-1.85a.78.78 0 0 1 0-1.11l4.07-4.07c.31-.31.8-.31 1.11 0zm-3.71-3.7c.31.31.31.8 0 1.11l-2.96 2.96c-.31.31-.8.31-1.11 0l-1.85-1.85a.78.78 0 0 1 0-1.11l2.96-2.96c.31-.31.8-.31 1.11 0z"/></g></svg>