<svg xmlns="http://www.w3.org/2000/svg" xmlns:xlink="http://www.w3.org/1999/xlink" xml:space="preserve" id="Layer_1" x="0" y="0" viewBox="0 0 164 191"><style>.st2{fill:#0164bf}.st3{fill:#0185ff}.st4{fill:#002140}.st5{fill:#ffed8f}.st6{fill:#003c73}.st7{fill:#5ab0ff}.st8{fill:#0676de}.st9{fill:none;stroke:#002140;stroke-linecap:round;stroke-miterlimit:10}.st10{fill:#50eef6}.st11{fill:#780505}.st12{fill:#bf3013}.st13{fill:#8dc8ff}.st13,.st14,.st15{stroke:#002140;stroke-linecap:round;stroke-linejoin:round}.st14{fill:#0185ff}.st15{fill:none}.st16{fill:#fed607}.st17,.st18{fill:none;stroke-linecap:round}.st17{stroke:#fed607;stroke-linejoin:round}.st18{stroke:#d18000;stroke-miterlimit:10}</style><defs><path id="SVGID_1_" d="M0 .5h164v190H0z"/></defs><clipPath id="SVGID_00000029016572310822972990000016997456362271414916_"><use xlink:href="#SVGID_1_" style="overflow:visible"/></clipPath><g style="clip-path:url(#SVGID_00000029016572310822972990000016997456362271414916_)"><defs><path id="SVGID_00000090264055293721407540000001372806678547719615_" d="M0-1.5h164v190H0z"/></defs><clipPath id="SVGID_00000039831186055399051900000016587822914047177646_"><use xlink:href="#SVGID_00000090264055293721407540000001372806678547719615_" style="overflow:visible"/></clipPath><g style="clip-path:url(#SVGID_00000039831186055399051900000016587822914047177646_)"><path d="M162.693 133.781c0 2.521.229 2.521-1.494 5.271-1.723 2.752-30.203 42.753-32.499 45.62-1.379 1.719-2.262 2.657-3.443 3.13l-.059-.151v-14.156c0-1.705-.065-2.504-.658-2.877l.37-.046s32.426-50.211 36.404-56.736c.922-1.51 1.315-2.772 1.315-3.805h.064z" class="st2"/><path d="M162.629 110.031c0 1.033-.393 2.294-1.315 3.805-3.978 6.525-36.403 56.736-36.403 56.736l-.371.046c-.525-.331-1.464-.331-3.131-.331-3.56 0-61.265.402-61.265.402h-.276c.212-.651.654-1.162 1.54-2.524 1.493-2.292 26.64-43.325 31.694-52.381 5.054-9.053 9.417-9.455 14.354-9.455h49.954c2.784 0 5.219 1.137 5.219 3.702m-11.191 6.557c1.379-2.292-.114-2.981-3.101-2.981h-40.65c-4.709 0-6.051.823-8.04 4.24-2.067 3.554-5.359 9.19-6.508 11.482-1.147 2.292-.803 3.324 1.952 3.324h.537c4.622.013 37.636.095 41.801.095 4.478 0 4.707-1.147 6.086-3.324 1.186-1.871 5.166-8.313 7.138-11.543.322-.528.59-.972.785-1.293m-13.806 24.308c.168-.29.207-.556.134-.753l-.681-1.951-.046.015c-.074-.219-.284-.358-.603-.358H125.66c-.605 0-1.386.494-1.735 1.098l-2.045 3.534c-.208.358-.217.677-.066.877l.637 1.72c.041.273.263.45.627.45h10.774c.605 0 1.386-.494 1.737-1.098zm-6.833 10.717c.168-.29.207-.556.134-.753l-.681-1.951-.046.015c-.073-.22-.283-.358-.603-.358h-10.776c-.605 0-1.386.494-1.735 1.098l-2.045 3.534c-.207.358-.217.677-.066.877l.637 1.72c.042.272.264.45.627.45h10.774c.605 0 1.386-.494 1.737-1.098zm-6.833 10.96c.169-.29.208-.555.134-.753l-.68-1.951-.047.015c-.073-.219-.283-.358-.602-.358h-10.777c-.605 0-1.386.494-1.735 1.099l-2.044 3.534c-.208.358-.218.677-.066.876l.637 1.72c.041.273.263.451.627.451h10.773c.605 0 1.386-.495 1.738-1.099zm-5.856-21.677c.168-.29.207-.556.134-.753l-.681-1.951-.046.015c-.074-.219-.283-.358-.603-.358h-10.776c-.605 0-1.386.494-1.735 1.098l-2.045 3.534c-.207.358-.217.677-.066.877l.637 1.72c.041.273.264.45.627.45h10.774c.605 0 1.386-.494 1.737-1.098zm-6.833 10.717c.168-.29.207-.556.134-.753l-.681-1.951-.046.015c-.073-.22-.283-.358-.603-.358H99.305c-.605 0-1.386.494-1.735 1.098l-2.045 3.534c-.207.358-.217.677-.066.877l.637 1.72c.042.272.264.45.627.45h10.773c.605 0 1.386-.494 1.738-1.098zm-6.833 10.96c.169-.29.208-.555.135-.753l-.681-1.951-.047.015c-.073-.219-.283-.358-.602-.358H92.473c-.605 0-1.386.494-1.735 1.099l-2.045 3.534c-.208.358-.217.677-.066.876l.637 1.72c.041.273.263.451.627.451h10.773c.606 0 1.387-.495 1.738-1.099zm-5.856-21.677c.168-.29.207-.556.134-.753l-.681-1.951-.046.015c-.073-.219-.283-.358-.603-.358H86.616c-.605 0-1.386.494-1.735 1.098l-2.045 3.534c-.207.358-.217.677-.066.877l.637 1.72c.042.273.264.45.627.45h10.774c.605 0 1.386-.494 1.737-1.098zm-6.833 10.717c.168-.29.207-.556.134-.753l-.681-1.951-.046.015c-.073-.22-.283-.358-.603-.358H79.783c-.605 0-1.386.494-1.735 1.098l-2.045 3.534c-.208.358-.217.677-.066.877l.637 1.72c.041.272.263.45.627.45h10.774c.605 0 1.386-.494 1.738-1.098zm-6.832 10.96c.168-.29.207-.555.134-.753l-.681-1.951-.046.015c-.073-.219-.283-.358-.603-.358H72.951c-.605 0-1.386.494-1.735 1.099l-2.045 3.534c-.207.358-.217.677-.066.876l.637 1.72c.042.273.264.451.627.451h10.774c.605 0 1.386-.495 1.737-1.099z" class="st3"/><path d="M148.336 113.607c2.987 0 4.481.689 3.102 2.981l-.786 1.293-.363-.134h-40.65c-4.709 0-6.081.806-8.04 4.241-1.952 3.424-4.598 7.706-5.972 10.417v.248h-.537c-2.755 0-3.099-1.032-1.952-3.324 1.149-2.292 4.441-7.928 6.508-11.482 1.989-3.417 3.33-4.24 8.04-4.24z" class="st4"/><path d="m150.289 117.747.364.134c-1.972 3.23-5.952 9.672-7.138 11.543-1.379 2.177-1.608 3.324-6.086 3.324-4.165 0-37.179-.082-41.801-.095v-.248c1.374-2.711 4.019-6.993 5.971-10.417 1.96-3.435 3.331-4.241 8.041-4.241z" class="st5"/><path d="M137.766 140.143c.073.197.034.463-.134.753l-2.043 3.534c-.351.604-1.132 1.098-1.737 1.098h-10.774c-.364 0-.586-.177-.627-.45l-.637-1.72c.105.139.285.222.532.222h10.774c.605 0 1.386-.495 1.737-1.099l2.042-3.534c.166-.285.208-.545.14-.74l.046-.015z" class="st6"/><path d="M121.814 143.358c-.152-.2-.142-.519.065-.877l2.045-3.534c.349-.604 1.13-1.098 1.735-1.098h10.776c.32 0 .53.139.603.358.068.195.027.455-.139.74l-2.042 3.534c-.352.604-1.133 1.099-1.738 1.099h-10.774c-.246 0-.427-.083-.531-.222" class="st7"/><path d="M130.933 150.86c.073.197.034.463-.134.753l-2.043 3.534c-.351.604-1.132 1.098-1.737 1.098h-10.774c-.364 0-.586-.178-.627-.45l-.637-1.72c.105.139.285.222.532.222h10.774c.605 0 1.386-.495 1.737-1.099l2.042-3.534c.166-.285.208-.546.14-.74l.046-.015z" class="st6"/><path d="M114.981 154.075c-.151-.2-.142-.519.066-.877l2.045-3.534c.349-.604 1.13-1.098 1.735-1.098h10.776c.32 0 .529.138.603.358.068.194.026.455-.139.74l-2.043 3.534c-.351.604-1.132 1.099-1.737 1.099h-10.774c-.246 0-.427-.083-.532-.222" class="st7"/><path d="m125.198 187.651.059.151c-.786.314-1.703.423-2.987.423H63.475c-3.102 0-3.79-.46-3.79-2.866V172.52c0-.884.037-1.391.183-1.834h.276s57.704-.399 61.265-.399c1.666 0 2.606 0 3.131.331.593.373.658 1.172.658 2.876zm-6.603-7.736a2.587 2.587 0 0 0-2.584-2.579H67.782c-.71 0-1.357.289-1.825.757a2.57 2.57 0 0 0-.759 1.822 2.59 2.59 0 0 0 2.584 2.579h48.229c.71 0 1.357-.29 1.825-.757a2.57 2.57 0 0 0 .759-1.822" class="st8"/><path d="M124.1 161.82c.073.198.034.463-.134.753l-2.042 3.534c-.352.604-1.133 1.099-1.738 1.099h-10.774c-.363 0-.585-.178-.627-.451l-.637-1.72c.105.139.286.222.532.222h10.774c.605 0 1.386-.494 1.737-1.098l2.043-3.535c.166-.284.207-.545.139-.74l.046-.015z" class="st6"/><path d="M108.148 165.035c-.151-.199-.142-.518.066-.876l2.045-3.535c.349-.604 1.13-1.098 1.735-1.098h10.776c.32 0 .529.139.603.358.068.195.026.456-.139.74l-2.043 3.535c-.351.604-1.132 1.098-1.737 1.098H108.68c-.246 0-.427-.083-.532-.222" class="st7"/><path d="M118.243 140.143c.074.197.034.463-.134.753l-2.042 3.534c-.352.604-1.133 1.098-1.738 1.098h-10.773c-.364 0-.586-.177-.628-.45l-.636-1.72c.104.139.285.222.531.222h10.774c.605 0 1.386-.495 1.738-1.099l2.042-3.534c.166-.285.207-.545.139-.74l.046-.015z" class="st6"/><path d="M116.011 177.336a2.59 2.59 0 0 1 2.584 2.579c0 .709-.29 1.354-.759 1.822a2.58 2.58 0 0 1-1.825.757H67.782a2.59 2.59 0 0 1-2.584-2.579c0-.711.29-1.354.759-1.822a2.58 2.58 0 0 1 1.825-.757z" class="st4"/><path d="M102.292 143.358c-.152-.2-.142-.519.065-.877l2.045-3.534c.349-.604 1.13-1.098 1.735-1.098h10.776c.32 0 .53.139.603.358.068.195.027.455-.139.74l-2.042 3.534c-.352.604-1.133 1.099-1.738 1.099h-10.773c-.247 0-.428-.083-.532-.222" class="st7"/><path d="M111.411 150.86c.073.197.034.463-.134.753l-2.042 3.534c-.352.604-1.133 1.098-1.738 1.098H96.724c-.364 0-.586-.178-.627-.45l-.637-1.72c.105.139.285.222.532.222h10.774c.605 0 1.386-.495 1.738-1.099l2.042-3.534c.166-.285.207-.546.139-.74l.046-.015z" class="st6"/><path d="M95.46 154.075c-.151-.2-.142-.519.066-.877l2.045-3.534c.349-.604 1.13-1.098 1.735-1.098h10.776c.32 0 .53.138.603.358.068.194.027.455-.139.74l-2.042 3.534c-.352.604-1.133 1.099-1.738 1.099H95.992c-.247 0-.428-.083-.532-.222" class="st7"/><path d="M104.578 161.82c.073.198.034.463-.134.753l-2.042 3.534c-.352.604-1.133 1.099-1.738 1.099H89.891c-.364 0-.586-.178-.627-.451l-.637-1.72c.105.139.285.222.532.222h10.774c.605 0 1.386-.494 1.738-1.098l2.042-3.535c.166-.284.207-.545.139-.74l.046-.015z" class="st6"/><path d="M88.627 165.035c-.151-.199-.142-.518.066-.876l2.045-3.535c.349-.604 1.13-1.098 1.735-1.098h10.776c.32 0 .53.139.603.358.068.195.027.456-.139.74l-2.042 3.535c-.352.604-1.133 1.098-1.738 1.098H89.159c-.247 0-.428-.083-.532-.222" class="st7"/><path d="M98.722 140.143c.073.197.034.463-.134.753l-2.043 3.534c-.351.604-1.132 1.098-1.737 1.098H84.034c-.364 0-.586-.177-.627-.45l-.637-1.72c.105.139.285.222.532.222h10.774c.605 0 1.386-.495 1.738-1.099l2.042-3.534c.166-.285.207-.545.139-.74l.046-.015z" class="st6"/><path d="M82.77 143.358c-.151-.2-.142-.519.066-.877l2.045-3.534c.349-.604 1.13-1.098 1.735-1.098h10.776c.32 0 .53.139.603.358.068.195.027.455-.139.74l-2.042 3.534c-.351.604-1.132 1.099-1.737 1.099H83.302c-.246 0-.427-.083-.532-.222" class="st7"/><path d="M91.889 150.86c.073.197.034.463-.134.753l-2.042 3.534c-.351.604-1.132 1.098-1.737 1.098H77.201c-.364 0-.586-.178-.627-.45l-.637-1.72c.105.139.285.222.532.222h10.774c.605 0 1.386-.495 1.737-1.099l2.043-3.534c.166-.285.207-.546.139-.74l.046-.015z" class="st6"/><path d="M75.937 154.075c-.151-.2-.142-.519.066-.877l2.045-3.534c.349-.604 1.13-1.098 1.735-1.098h10.776c.32 0 .53.138.603.358.068.194.027.455-.139.74l-2.042 3.534c-.351.604-1.132 1.099-1.737 1.099H76.469c-.246 0-.427-.083-.532-.222" class="st7"/><path d="M85.056 161.82c.073.198.034.463-.134.753l-2.042 3.534c-.351.604-1.132 1.099-1.737 1.099H70.368c-.364 0-.586-.178-.627-.451l-.637-1.72c.105.139.285.222.532.222H80.41c.605 0 1.386-.494 1.737-1.098l2.043-3.535c.166-.284.207-.545.139-.74l.046-.015z" class="st6"/><path d="M69.105 165.035c-.151-.199-.142-.518.066-.876l2.045-3.535c.349-.604 1.13-1.098 1.735-1.098h10.776c.32 0 .53.139.603.358.068.195.027.456-.139.74l-2.042 3.535c-.351.604-1.132 1.098-1.738 1.098H69.637c-.246 0-.427-.083-.532-.222" class="st7"/><path d="M124.911 170.572s32.425-50.211 36.403-56.736c.922-1.511 1.315-2.772 1.315-3.805 0-2.565-2.435-3.702-5.219-3.702h-49.954c-4.937 0-9.3.402-14.354 9.455-5.054 9.056-30.2 50.089-31.694 52.381-.886 1.362-1.328 1.873-1.54 2.521-.146.443-.183.95-.183 1.834v12.839c0 2.406.688 2.866 3.79 2.866h58.795c1.284 0 2.201-.109 2.987-.423 1.181-.473 2.064-1.411 3.443-3.13 2.296-2.867 30.776-42.868 32.499-45.62 1.723-2.75 1.494-2.75 1.494-5.271v-23.957" class="st9"/><path d="M60.144 170.689s57.704-.402 61.265-.402c1.666 0 2.606 0 3.13.331.593.373.659 1.172.659 2.876v14.157" class="st9"/><path d="M116.011 182.494H67.782a2.59 2.59 0 0 1-2.584-2.579c0-.711.29-1.354.759-1.822a2.58 2.58 0 0 1 1.825-.757h48.229a2.59 2.59 0 0 1 2.584 2.579c0 .709-.29 1.354-.759 1.822a2.58 2.58 0 0 1-1.825.757zm34.641-64.613.786-1.293c1.379-2.292-.115-2.981-3.102-2.981h-40.649c-4.71 0-6.052.823-8.04 4.24-2.067 3.554-5.359 9.19-6.508 11.482-1.147 2.292-.803 3.324 1.952 3.324h.537c4.622.013 37.636.095 41.802.095 4.477 0 4.707-1.147 6.086-3.324 1.185-1.871 5.165-8.313 7.136-11.543z" class="st9"/><path d="M150.289 117.747H109.64c-4.71 0-6.081.806-8.041 4.241-1.952 3.424-4.597 7.706-5.971 10.417m15.056 16.519c-.073-.22-.283-.358-.603-.358H99.305c-.605 0-1.386.494-1.735 1.098l-2.045 3.534c-.207.358-.217.677-.066.877.105.139.285.222.532.222h10.773c.605 0 1.386-.495 1.738-1.099l2.042-3.534c.167-.285.208-.546.14-.74z" class="st9"/><path d="m110.73 148.909.681 1.951c.073.197.034.463-.134.753l-2.042 3.534c-.352.604-1.133 1.098-1.738 1.098H96.724c-.364 0-.586-.178-.627-.45l-.637-1.72v-.007m34.746-5.144c-.074-.22-.283-.358-.603-.358h-10.776c-.605 0-1.386.494-1.735 1.098l-2.045 3.534c-.208.358-.217.677-.066.877.105.139.286.222.532.222h10.774c.605 0 1.386-.495 1.737-1.099l2.043-3.534c.165-.285.207-.546.139-.74z" class="st9"/><path d="m130.252 148.909.681 1.951c.073.197.034.463-.134.753l-2.043 3.534c-.351.604-1.132 1.098-1.737 1.098h-10.774c-.364 0-.586-.178-.627-.45l-.637-1.72v-.007m-23.819-5.144c-.073-.22-.283-.358-.603-.358H79.783c-.605 0-1.386.494-1.735 1.098l-2.045 3.534c-.207.358-.217.677-.066.877.105.139.285.222.532.222h10.774c.605 0 1.386-.495 1.737-1.099l2.042-3.534c.166-.285.208-.546.14-.74z" class="st9"/><path d="m91.209 148.909.681 1.951c.073.197.034.463-.134.753l-2.042 3.534c-.351.604-1.132 1.098-1.737 1.098H77.201c-.364 0-.586-.178-.627-.45l-.637-1.72v-.007m41.579-15.861c-.073-.219-.283-.358-.603-.358h-10.776c-.605 0-1.386.494-1.735 1.098l-2.045 3.534c-.207.358-.217.677-.065.877.104.139.285.222.532.222h10.773c.605 0 1.386-.495 1.738-1.099l2.042-3.534c.166-.285.207-.545.139-.74z" class="st9"/><path d="m117.562 138.192.681 1.951c.074.197.034.463-.134.753l-2.042 3.534c-.352.604-1.133 1.098-1.738 1.098h-10.773c-.364 0-.586-.177-.628-.45l-.636-1.72v-.007m34.746-5.144c-.073-.219-.283-.358-.603-.358h-10.776c-.605 0-1.386.494-1.735 1.098l-2.045 3.534c-.207.358-.217.677-.065.877.104.139.285.222.531.222h10.774c.605 0 1.386-.495 1.738-1.099l2.042-3.534c.166-.285.207-.545.139-.74z" class="st9"/><path d="m137.085 138.192.681 1.951c.073.197.034.463-.134.753l-2.043 3.534c-.351.604-1.132 1.098-1.737 1.098h-10.774c-.364 0-.586-.177-.627-.45l-.637-1.72v-.007m-23.819-5.144c-.073-.219-.283-.358-.603-.358H86.616c-.605 0-1.386.494-1.735 1.098l-2.045 3.534c-.207.358-.217.677-.066.877.105.139.285.222.532.222h10.774c.605 0 1.386-.495 1.737-1.099l2.042-3.534c.166-.285.208-.545.14-.74z" class="st9"/><path d="m98.041 138.192.681 1.951c.073.197.034.463-.134.753l-2.043 3.534c-.351.604-1.132 1.098-1.737 1.098H84.034c-.364 0-.586-.177-.627-.45l-.637-1.72v-.007m21.081 16.533c-.073-.219-.283-.358-.603-.358H92.472c-.605 0-1.386.494-1.735 1.098l-2.045 3.535c-.207.358-.217.677-.066.876.105.139.285.222.532.222h10.774c.605 0 1.386-.494 1.738-1.098l2.042-3.535c.166-.284.207-.545.139-.74z" class="st9"/><path d="m103.897 159.869.681 1.951c.073.198.034.463-.134.753l-2.042 3.534c-.352.604-1.133 1.099-1.738 1.099H89.891c-.364 0-.586-.178-.627-.451l-.637-1.72v-.007m34.746-5.144c-.074-.219-.283-.358-.603-.358h-10.776c-.605 0-1.386.494-1.735 1.098l-2.045 3.535c-.208.358-.217.677-.066.876.105.139.286.222.532.222h10.774c.605 0 1.386-.494 1.737-1.098l2.043-3.535c.165-.284.207-.545.139-.74z" class="st9"/><path d="m123.419 159.869.681 1.951c.073.198.034.463-.134.753l-2.042 3.534c-.352.604-1.133 1.099-1.738 1.099h-10.774c-.363 0-.585-.178-.627-.451l-.637-1.72v-.007m-23.818-5.144c-.073-.219-.283-.358-.603-.358H72.951c-.605 0-1.386.494-1.735 1.098l-2.045 3.535c-.207.358-.217.677-.066.876.105.139.285.222.532.222h10.774c.605 0 1.386-.494 1.738-1.098l2.042-3.535c.165-.284.207-.545.139-.74z" class="st9"/><path d="m84.376 159.869.681 1.951c.073.198.034.463-.134.753l-2.042 3.534c-.351.604-1.132 1.099-1.737 1.099H70.368c-.364 0-.586-.178-.627-.451l-.637-1.72v-.007" class="st9"/><path d="M2.728 76.3c0-29.574-.459-76.796-.517-76.852h27.216v65.161c0 9.799 5.512 12.035 13.092 7.563 7.579-4.469 8.978-5.202 12.575-7.134 3.358-1.805 5.254-2.492 7.147-.774l.127.178c3.123-2.17 5.529-2.694 8.499-.665.342.234.525.499 1.013.828 2.894-1.895 5.2-2.263 8.016-.341 3.272 2.236 13.953 9.285 18.431 12.207 4.481 2.923 5.154 5.502 5.154 11.348v23.555c0 4.986-1.549 7.909-5.683 7.909-2.187 0-3.797-.675-4.827-2.326l-.183.114c-.537 3.276-2.189 5.135-5.483 5.135-2.916 0-4.802-1.199-5.664-4.314l-.046.012c-.822 1.233-2.118 1.898-3.999 1.898-3.187 0-5.022-1.569-5.513-5.846l-.093.01c-.813.789-1.935 1.208-3.431 1.208-3.77 0-5.654-2.195-5.654-8.467v-1.008l-24.463-1.776h-9.99c-5.629-.001-25.724 1.948-25.724-27.623" class="st10"/><path d="M92.787 117.07c-.537 3.276-2.189 5.135-5.483 5.135-2.916 0-4.802-1.199-5.664-4.314-.359-1.303-.539-2.942-.539-4.971V93.578c0-3.87-.344-3.87-3.531-5.933s-8.438-5.5-8.438-5.5" class="st9"/><path d="M81.593 117.903c-.822 1.233-2.118 1.898-3.999 1.898-3.187 0-5.022-1.569-5.513-5.846a23 23 0 0 1-.134-2.609v-5.818m.042 8.437c-.813.789-1.935 1.208-3.431 1.208-3.77 0-5.654-2.195-5.654-8.467v-1.008l-24.463-1.776h-9.99c-5.627 0-25.723 1.949-25.723-27.622S2.269-.496 2.211-.552h27.216v65.161c0 9.799 5.512 12.035 13.092 7.563 7.579-4.469 8.978-5.202 12.575-7.134 3.358-1.805 5.254-2.492 7.147-.774m17.295 15.473s5.686 3.782 8.958 5.845 3.099 3.096 3.099 7.909v16.506c0 3.239.459 5.485 1.376 6.959 1.03 1.651 2.64 2.326 4.827 2.326 4.134 0 5.684-2.923 5.684-7.909V87.818c0-5.846-.674-8.425-5.154-11.348-4.478-2.923-15.159-9.972-18.431-12.207-2.816-1.922-5.122-1.554-8.016.341-.468.304-.952.653-1.457 1.035" class="st9"/><path d="M71.887 64.609q-.002 0-.007-.005c-.488-.329-.671-.594-1.013-.828-2.97-2.029-5.376-1.505-8.499.665a34 34 0 0 0-.974.711" class="st9"/><path d="M99.918 102.517a1.135 1.135 0 0 0 1.562.331l4.648-3.005c.52-.336.671-1.035.332-1.556l-1.957-3.015a1.13 1.13 0 0 0-1.559-.334l-4.649 3.006a1.13 1.13 0 0 0-.334 1.559zm40.713-39.207 17.384 26.775a2.925 2.925 0 0 1-.864 4.036l-46.713 30.217a2.937 2.937 0 0 1-4.044-.862L89.01 96.701a2.923 2.923 0 0 1 .864-4.036l46.713-30.217a2.94 2.94 0 0 1 4.044.862" class="st11"/><path d="M102.944 94.937a1.133 1.133 0 0 1 1.559.334l1.957 3.015c.337.519.188 1.22-.332 1.556l-4.648 3.005c-.52.336-1.223.19-1.562-.331l-1.957-3.015a1.13 1.13 0 0 1 .334-1.559z" class="st12"/><path d="m136.586 62.435-46.71 30.219a2.915 2.915 0 0 0-.863 4.036l17.387 26.774a2.926 2.926 0 0 0 4.043.862l46.711-30.219a2.916 2.916 0 0 0 .863-4.036L140.63 63.296a2.927 2.927 0 0 0-4.044-.861z" class="st9"/><path d="m101.48 102.848 4.648-3.005c.52-.336.671-1.035.332-1.556l-1.957-3.015a1.13 1.13 0 0 0-1.559-.334l-4.649 3.006a1.13 1.13 0 0 0-.334 1.559l1.957 3.015a1.136 1.136 0 0 0 1.562.33z" class="st9"/><path d="M112.021 102.517c2.326 4.384 1.12 8.683-3.101 9.886-4.22 1.204-7.665-4.04-12.746-3.351-5.08.687-8.785 4.126-16.364 4.126s-10.508-3.266-10.508-3.266-3.616 3.524-19.637 3.524c-13.924 0-20.105-7.146-21.484-9.014l9.253-12.563L60.432 77.33l11.964 1.663q-.083.069-.166.141c-2.24 1.978-1 .896-3.704 3.354-3.875 3.524-1.227 9.053 1.982 11.776 3.446 2.923 5.686 4.986 12.145 4.986s12.316-.687 16.191-.687 10.852-.43 13.177 3.954" class="st10"/><path d="M79.637 79.824c-2.941-2.014-5.015-2.677-7.24-.831q-.083.069-.166.141c-2.24 1.978-1 .896-3.704 3.354-3.875 3.524-1.227 9.053 1.981 11.776 3.446 2.923 5.686 4.986 12.145 4.986s12.316-.687 16.191-.687 10.851-.431 13.177 3.953 1.12 8.683-3.101 9.886c-4.22 1.204-7.665-4.04-12.746-3.351-5.081.687-8.785 4.126-16.364 4.126s-10.508-3.266-10.508-3.266-3.616 3.524-19.637 3.524c-13.924 0-20.105-7.146-21.484-9.014a7 7 0 0 1-.305-.443" class="st9"/><path d="m25.444 149.888 7.006 8.922-2.428-7.611z" class="st13"/><path d="m30.021 151.199 2.428 7.611 2.699-7.616z" class="st14"/><path d="m32.45 158.81 7.072-8.895-4.373 1.279z" class="st13"/><path d="m38.236 147.109-2.45-.964 2.389.988zm-8.083 1.274 2.24 2.638 2.587-2.67h-.063l-.173.064z" class="st15"/><path d="m26.822 147.504 2.26-1.433 6.506-.004.198.078-.256-.108-6.506.008-2.37 1.481z" class="st15"/><path d="m39.521 149.915-1.325-2.774-11.51.377-1.191 2.324 7.123 1.286z" class="st13"/><path d="m32.394 151.021-2.24-2.638-.042-.003-.037-.009-4.339 1.437 4.339-1.437-4.632 1.517 4.578 1.311 5.127-.005 4.373-1.279-4.541-1.564z" class="st14"/><path d="M34.917 148.351h.063l3.216-1.21-.022-.008zm-4.842.02.037.009.041.003-.024-.029z" class="st15"/><path d="m29.004 148.086 1.071.285.054-.017z" class="st15"/><path d="m29.082 146.071-2.26 1.433 2.181.582 1.125.268 4.788-.003 3.258-1.218-2.389-.988-.198-.078z" class="st13"/><path d="m23.626 105.269-.005 4.872h-2.513l-.005-4.872zm-.009 14.614-.003 4.872h-2.491l-.005-4.872zm-.318-14.614h-2.196v-1.519s1.13.229 2.523.229v1.29zm.319 9.743-.002 4.871h-2.498l-.005-4.871zm.003-4.871-.002 4.871h-2.506l-.005-4.871zM41.6 76.042h.29v4.871h-2.426v-4.871zm.291 9.742v4.871h-2.426v-4.871zm-.837 50.603.115.044a10.44 10.44 0 0 1-3.582 4.601l-.063-.088-1.293-1.977-.005-.005a7.65 7.65 0 0 0 2.801-3.793l.046.015zm-16.957-1.183-.183.065-1.982.948-.141.051a10.2 10.2 0 0 1-.661-3.622v-3.02h2.482v2.859a7.7 7.7 0 0 0 .485 2.719m5.241 4.883.205.078a3.96 3.96 0 0 0-1.052 2.389h-.007a10.2 10.2 0 0 1-2.972-1.471l.039-.053 1.376-1.978.066-.093a7.9 7.9 0 0 0 2.345 1.128m12.553-20.204v4.872h-2.426v-4.872zm0-29.227v4.871h-2.426v-4.871zm0-9.743v4.871h-2.426v-4.871zm0 19.485v4.871h-2.426v-4.871zm0 9.743v4.871h-2.426v-4.871zm0-14.614v4.871h-2.426v-4.871z" class="st5"/><path d="M32.353 140.326a7.6 7.6 0 0 0 2.557-.616 7.3 7.3 0 0 0 1.315-.748l.005.005 1.293 1.977.063.088a10.4 10.4 0 0 1-2.611 1.379c-.854.304-1.757.499-2.694.57l-.012-.232-.088-2.321-.01-.066q.087-.01.181-.017zm-5.359-1.367-.066.093-1.376 1.978-.039.053a10.4 10.4 0 0 1-3.721-4.815l.142-.051 1.981-.948.183-.065a7.93 7.93 0 0 0 2.896 3.755m14.897-33.69v4.872h-2.426v-4.872zm0 19.486v4.871h-2.426v-4.871z" class="st5"/><path d="m32.269 142.749.012.232q-.383.026-.771.026c-.305 0-.552-.017-.793-.046a15 15 0 0 1-.774-.127 2.54 2.54 0 0 1 2.228-2.472l.01.066z" class="st5"/><path d="M35.025 142.917c0-.163-.01-.324-.039-.48l-.01-.026q.7-.252 1.352-.595l.034.064a4.002 4.002 0 0 1-3.941 4.995 4 4 0 0 1-3.929-4.321 3.96 3.96 0 0 1 1.052-2.389 4.003 4.003 0 0 1 5.358-.473l.007.018a7.6 7.6 0 0 1-2.557.616v.019q-.092.007-.181.017a2.54 2.54 0 0 0-2.228 2.472v.005a2.54 2.54 0 0 0 2.501 2.575 2.54 2.54 0 0 0 2.581-2.497" class="st16"/><path d="M41.891 73.433v2.609h-2.426v-1.198c.071.068.01-.034.01-1.639s.803-1.776 1.205-1.776c1.091-.001 1.211 1.088 1.211 2.004m0 56.193v3.02c0 1.335-.256 2.611-.722 3.785l-.115-.044-1.981-1.203-.046-.015a8.3 8.3 0 0 0 .439-2.684v-2.859zm0-14.614v4.871h-2.426v-4.871z" class="st5"/><path d="m39.073 135.184 1.981 1.203m-4.824 2.58 1.293 1.977m-5.341-.516.088 2.321m-5.342-3.697-1.376 1.978m-1.638-5.761-1.982.948m-.698-11.462h2.064m16.238-48.713h2.065m-2.065 4.871h2.065m-2.065 4.871h2.065m-2.065 4.872h2.065m-2.065 4.871h2.065m-2.065 4.871h2.065m-2.065 4.871h2.065m-2.065 4.872h2.065m-2.065 4.871h2.065m-2.065 4.871h2.065m-2.065 4.872h2.065m-2.065 4.871h2.065m-20.367-24.357h2.064m-2.064 4.872h2.064m-2.064 4.871h2.064m-2.064 4.871h2.064m-2.064 9.743h2.064" class="st17"/><path d="M31.837 140.343q.26 0 .515-.017a7.6 7.6 0 0 0 2.557-.616 7.3 7.3 0 0 0 1.315-.748 7.66 7.66 0 0 0 2.801-3.792 8.3 8.3 0 0 0 .439-2.685V74.843c.071.068.01-.034.01-1.639s.803-1.776 1.206-1.776c1.091 0 1.21 1.089 1.21 2.005v59.213c0 1.335-.256 2.611-.722 3.785a10.45 10.45 0 0 1-4.841 5.385q-.652.343-1.352.595c-.854.304-1.757.499-2.694.57q-.383.026-.771.026c-.305 0-.552-.017-.793-.046a14 14 0 0 1-.774-.126m-1.458-.281a10.2 10.2 0 0 1-2.972-1.471 10.4 10.4 0 0 1-3.721-4.815 10.2 10.2 0 0 1-.661-3.622v-3.02l-.007-4.871-.005-4.872-.005-4.871-.005-4.871-.005-4.872v-1.519s1.13.229 2.523.229v1.29l-.005 4.872v4.871l-.005 4.871v4.872l-.005 4.871v2.859c0 .955.168 1.871.486 2.719a7.95 7.95 0 0 0 2.896 3.755 7.9 7.9 0 0 0 2.345 1.128" class="st9"/><path d="M34.985 142.438q.044.233.039.479a2.54 2.54 0 0 1-2.579 2.497 2.54 2.54 0 0 1-2.501-2.575v-.004a2.54 2.54 0 0 1 2.228-2.473q.089-.01.181-.017.085-.002.171-.002" class="st9"/><path d="M36.362 141.88a4.002 4.002 0 0 1-3.941 4.995 4 4 0 0 1-3.929-4.321 3.96 3.96 0 0 1 1.052-2.389 4.003 4.003 0 0 1 5.358-.473" class="st9"/><path d="M32.013 116.861c.051-.721.888-.962 1.806-.962h3.875c1.035 0 1.723.231 1.723 1.261h.056c.002.512.002 1.101.002 1.776q0 .61-.051 1.203c-.015-.891-.849-1.193-1.815-1.288l-3.858-.368c-.944-.09-1.684-.234-1.969.799l-.044-.008c.132-.667.212-1.463.249-2.416h.027z" class="st16"/><path d="M39.414 114.574h.039c.01.509.017 1.315.02 2.586h-.056c0-1.03-.688-1.261-1.723-1.261h-3.875c-.917 0-1.755.241-1.806.962h-.027q.025-.635.024-1.362v-1.003c0-.775.861-1.033 1.808-1.033h3.875c1.004 0 1.68.163 1.721 1.111" class="st16"/><path d="M39.453 114.574h-.039c-.042-.948-.717-1.111-1.72-1.111h-3.875c-.947 0-1.808.258-1.808 1.033v-2.436c0-.774.861-1.033 1.808-1.033h3.875c1.035 0 1.723.173 1.723 1.206v1.547s.022-.319.036.794" class="st16"/><path d="M39.417 109.797v2.436c0-1.033-.688-1.206-1.723-1.206h-3.875c-.947 0-1.808.259-1.808 1.033v-2.436c0-.774.861-1.032 1.808-1.032h3.875c1.035 0 1.723.173 1.723 1.205" class="st16"/><path d="M39.417 107.362v2.435c0-1.032-.688-1.205-1.723-1.205h-3.875c-.947 0-1.808.258-1.808 1.032v-2.435c0-.775.861-1.033 1.808-1.033h3.875c1.035 0 1.723.173 1.723 1.206" class="st16"/><path d="M39.417 104.926v2.436c0-1.033-.688-1.206-1.723-1.206h-3.875c-.947 0-1.808.258-1.808 1.033v-2.436c0-.774.861-1.033 1.808-1.033h3.875c1.035 0 1.723.173 1.723 1.206" class="st16"/><path d="M39.417 102.49v2.436c0-1.033-.688-1.206-1.723-1.206h-3.875c-.947 0-1.808.258-1.808 1.033v-2.436c0-.774.861-1.032 1.808-1.032h3.875c1.035 0 1.723.173 1.723 1.205" class="st16"/><path d="M39.417 100.055v2.435c0-1.032-.688-1.205-1.723-1.205h-3.875c-.947 0-1.808.258-1.808 1.032v-2.435c0-.774.861-1.033 1.808-1.033h3.875c1.035 0 1.723.173 1.723 1.206" class="st16"/><path d="M39.417 97.619v2.436c0-1.033-.688-1.206-1.723-1.206h-3.875c-.947 0-1.808.258-1.808 1.033v-2.436c0-.774.861-1.033 1.808-1.033h3.875c1.035 0 1.723.173 1.723 1.206" class="st16"/><path d="M39.417 95.183v2.436c0-1.033-.688-1.206-1.723-1.206h-3.875c-.947 0-1.808.258-1.808 1.033V95.01c0-.774.861-1.033 1.808-1.033h3.875c1.035.001 1.723.174 1.723 1.206" class="st16"/><path d="M39.417 92.748v2.436c0-1.033-.688-1.206-1.723-1.206h-3.875c-.947 0-1.808.258-1.808 1.033v-2.436c0-.775.861-1.033 1.808-1.033h3.875c1.035 0 1.723.173 1.723 1.206" class="st16"/><path d="M39.417 90.312v2.436c0-1.033-.688-1.206-1.723-1.206h-3.875c-.947 0-1.808.258-1.808 1.033v-2.436c0-.775.861-1.033 1.808-1.033h3.875c1.035 0 1.723.173 1.723 1.206" class="st16"/><path d="M39.417 87.876v2.436c0-1.033-.688-1.206-1.723-1.206h-3.875c-.947 0-1.808.258-1.808 1.033v-2.436c0-.774.861-1.033 1.808-1.033h3.875c1.035.001 1.723.174 1.723 1.206" class="st16"/><path d="M39.417 85.441v2.436c0-1.033-.688-1.206-1.723-1.206h-3.875c-.947 0-1.808.258-1.808 1.033v-2.436c0-.774.861-1.033 1.808-1.033h3.875c1.035 0 1.723.173 1.723 1.206" class="st16"/><path d="M39.417 83.005v2.436c0-1.033-.688-1.206-1.723-1.206h-3.875c-.947 0-1.808.258-1.808 1.033v-2.436c0-.775.861-1.033 1.808-1.033h3.875c1.035 0 1.723.173 1.723 1.206" class="st16"/><path d="M39.417 80.569v2.436c0-1.033-.688-1.206-1.723-1.206h-3.875c-.947 0-1.808.258-1.808 1.033v-2.436c0-.775.861-1.033 1.808-1.033h3.875c1.035.001 1.723.174 1.723 1.206" class="st16"/><path d="M39.417 78.134v2.436c0-1.033-.688-1.206-1.723-1.206h-3.875c-.947 0-1.808.258-1.808 1.033v-2.436c0-.774.861-1.033 1.808-1.033h3.875c1.035 0 1.723.173 1.723 1.206" class="st16"/><path d="M39.417 75.698v2.436c0-1.033-.688-1.206-1.723-1.206h-3.875c-.947 0-1.808.258-1.808 1.033v-2.436c0-.774.861-1.033 1.808-1.033h3.875c1.035.001 1.723.173 1.723 1.206" class="st16"/><path d="M39.417 74.064v1.634c0-1.033-.688-1.206-1.723-1.206h-3.875c-.947 0-1.808.258-1.808 1.033v-1.461a2.07 2.07 0 0 1 2.067-2.063h3.272a2.07 2.07 0 0 1 2.067 2.063m.007 46.075a11.5 11.5 0 0 1-.722 3.188l-.088-.034c0-.516-.63-.93-1.608-1.261-.979-.332-2.887-1.104-3.785-1.406-.849-.287-1.642-.26-2.111.48l-.037-.024c.295-.458.512-1.048.664-1.808l.044.008c.285-1.033 1.025-.889 1.969-.799l3.858.368c.967.095 1.801.397 1.816 1.288" class="st16"/><path d="M31.11 121.106c.469-.74 1.262-.767 2.111-.48.898.302 2.806 1.074 3.785 1.406s1.608.745 1.608 1.261l.088.034a9.2 9.2 0 0 1-1.623 2.714l-.176-.071s-3.873-3.753-4.278-4.068a1.7 1.7 0 0 0-1.703-.25l-.3-.027q.25-.233.451-.543z" class="st16"/><path d="m36.903 125.97.176.071c-.776.896-1.75 1.661-2.936 2.26l-.029-.056s-2.287-4.881-2.552-5.32a1.69 1.69 0 0 0-1.503-.835l-.027-.054a2.7 2.7 0 0 0 .591-.411l.3.027a1.7 1.7 0 0 1 1.703.25c.405.315 4.277 4.068 4.277 4.068" class="st16"/><path d="m34.114 128.245.029.056c-1.144.58-2.484 1.006-4.036 1.245l-.02-.122v-4.806c0-1.147-.403-2.15-1.437-2.15v-.018c.532-.075.991-.207 1.381-.414l.027.054a1.69 1.69 0 0 1 1.503.835c.267.439 2.553 5.32 2.553 5.32m-2.333-63.868v3.269c0 1.135-.691 2.233-1.723 3.381l-.525.512-.051-.054V66.07c0-1.147-.4-2.151-1.435-2.151l-.027-.029 1.694-1.576c1.135 0 2.067.931 2.067 2.063m0-31.663v3.269c0 1.118-.671 2.202-1.681 3.332l-.042-.037-.576.543v-5.414c0-1.147-.4-2.151-1.435-2.151l-.159-.166 1.479-1.41.347-.029c1.135 0 2.067.93 2.067 2.063m0-31.42v3.269c0 1.118-.671 2.202-1.681 3.332l-.042-.037-.576.543V2.987c0-1.147-.4-2.151-1.435-2.151L27.889.67l1.479-1.41.347-.029c1.134 0 2.066.93 2.066 2.063" class="st16"/><path d="m30.088 129.424.02.122a20 20 0 0 1-2.533.216l-.005-.165v-4.901c0-1.145-.403-2.148-1.435-2.148v-.012q.42.013.881.012c.61 0 1.152-.027 1.632-.097v.017c1.037 0 1.44 1.003 1.44 2.15zm-.605-57.94.051.054-2.347 2.287-.144-.149v-5.414c0-1.147-.285-2.022-1.32-2.022l-.105-.112 2.404-2.238.027.029c1.035 0 1.435 1.003 1.435 2.151zm0-63.083-2.382 2.253-.059-.061V5.179c0-1.147-.285-2.022-1.32-2.022l-.21-.219L27.889.67l.159.166c1.035 0 1.435 1.003 1.435 2.151zm0 31.42-2.382 2.253-.059-.061v-5.415c0-1.147-.285-2.022-1.32-2.022l-.21-.219 2.377-2.268.159.166c1.035 0 1.435 1.004 1.435 2.151z" class="st16"/><path d="m27.569 129.597.005.165q-.276.008-.559.008-1.505 0-2.84-.159l.034-.292s.632-3.356.776-5.005c.093-1.05-.449-1.834-1.279-2.061l.01-.034c.664.207 1.464.29 2.418.317v.012c1.032 0 1.435 1.003 1.435 2.148zm-.527-55.92.144.149-2.47 2.406-.115-.119v-5.414c0-1.147-.4-2.151-1.435-2.151l-.068-.071 2.518-2.348.105.112c1.035 0 1.32.874 1.32 2.022zm0-63.084.059.061-2.499 2.363V7.614c0-1.147-.4-2.151-1.435-2.151l-.146-.153 2.491-2.372.21.219c1.035 0 1.32.874 1.32 2.022zm0 31.42.059.061-2.499 2.363v-5.402c0-1.147-.4-2.151-1.435-2.151l-.146-.153 2.491-2.372.21.219c1.035 0 1.32.874 1.32 2.022z" class="st16"/><path d="M23.707 122.253c.83.227 1.371 1.011 1.279 2.061-.144 1.649-.776 5.005-.776 5.005l-.034.292c-1.486-.173-2.818-.487-3.995-.93h.002c.515-.002.874-.343 1.205-1.32s1.103-2.879 1.408-3.775c.266-.787.264-1.525-.327-2.003l.015-.017c.344.298.752.507 1.232.653zm.895-46.141.115.119-2.221 2.165-.09-.093V72.89c0-1.147-.4-2.151-1.435-2.151l-.139-.151 2.267-2.112.068.071c1.035 0 1.435 1.004 1.435 2.151zm0-37.078v5.402l-2.13 2.014-.066-.068v-5.156c0-1.147-.4-2.151-1.435-2.151l-.195-.205 2.245-2.141.146.153c1.035.001 1.435 1.005 1.435 2.152m0-31.42v5.402l-2.13 2.014-.066-.068V9.806c0-1.147-.4-2.151-1.435-2.151l-.195-.205 2.245-2.141.146.153c1.035.002 1.435 1.005 1.435 2.152" class="st16"/><path d="M22.469 121.583c.59.478.593 1.216.327 2.003-.305.896-1.076 2.798-1.408 3.775s-.691 1.317-1.205 1.317h-.003a11.4 11.4 0 0 1-2.926-1.578l.285-.024s3.663-3.683 3.978-4.087c.293-.373.488-.911.305-1.54l.403-.134q.12.138.259.251zm-.063-43.279.09.092-2.084 2.029a8 8 0 0 1-.215.197l-.232-.127v-5.414c0-1.147-.4-2.151-1.435-2.151l-.1-.107 2.401-2.236.139.151c1.035 0 1.435 1.004 1.435 2.151zm0-63.341.066.068-2.506 2.37v-5.402c0-1.147-.4-2.151-1.435-2.151l-.127-.134 2.372-2.263.195.205c1.035 0 1.435 1.003 1.435 2.151zm0 31.42.066.068-2.506 2.37v-5.402c0-1.147-.4-2.151-1.435-2.151l-.127-.134 2.372-2.263.195.205c1.035 0 1.435 1.004 1.435 2.151z" class="st16"/><path d="M21.823 121.449a1.68 1.68 0 0 1-.305 1.54c-.315.404-3.978 4.087-3.978 4.087l-.286.024a8.9 8.9 0 0 1-2.513-2.952l.1-.053s.347.401 1.008.058c1.337-.689 4.307-2.022 4.644-2.226.422-.256.81-.716.835-1.415l.373.012c.151.307.324.567.525.791z" class="st16"/><path d="M21.327 120.512a1.68 1.68 0 0 1-.835 1.415c-.337.204-3.306 1.537-4.644 2.226-.661.343-1.008-.058-1.008-.058l-.1.053c-.617-1.179-.974-2.513-1.059-3.975l.063-.005c.112 1.026.832 1.121 1.884 1.006s2.982-.324 3.946-.431c.964-.105 1.813-.455 1.728-1.225l.037-.01c.098.385.22.721.361 1.016z" class="st16"/><path d="m21.34 119.508-.037.01c.085.77-.764 1.12-1.728 1.225-.964.107-2.894.317-3.946.431-1.052.115-1.772.02-1.884-1.006l-.063.005a11 11 0 0 1-.022-.721v-1.807c.098.831.754.977 1.698.977h3.851c.942 0 1.796-.259 1.796-1.031h.037c.058.743.156 1.377.298 1.917" class="st16"/><path d="M21.042 117.589h-.037c0 .775-.854 1.033-1.796 1.033h-3.851c-.944 0-1.601-.146-1.698-.977v-2.436c.098.831.749.977 1.689.977h3.831c.937 0 1.789-.258 1.789-1.03v.343c0 .78.024 1.471.073 2.09m-.056-13.954c.027.054-.049.11-.19.163-.317.115-.971.21-1.616.21h-3.831c-1.02 0-1.701-.173-1.701-1.203h-.01v-1.52s2.594 1.807 7.35 2.323v.027z" class="st16"/><path d="M20.969 112.72v2.436c0 .772-.852 1.03-1.789 1.03h-3.831c-.939 0-1.591-.146-1.689-.977v-2.452c.088.845.742.993 1.689.993h3.831c.937 0 1.789-.258 1.789-1.03" class="st16"/><path d="M20.969 110.284v2.436c0 .772-.852 1.03-1.789 1.03h-3.831c-.947 0-1.601-.148-1.691-.993l-.005-2.494c.066.896.727 1.052 1.696 1.052h3.831c.937 0 1.789-.258 1.789-1.031" class="st16"/><path d="M20.969 107.849v2.435c0 .773-.852 1.031-1.789 1.031h-3.831c-.969 0-1.63-.156-1.696-1.053l-.005-2.567c.01 1.014.688 1.184 1.701 1.184h3.831c.937 0 1.789-.258 1.789-1.03" class="st16"/><path d="M20.969 105.413v2.436c0 .772-.852 1.03-1.789 1.03h-3.831c-1.013 0-1.691-.17-1.701-1.184v-.019l-.005-2.436h.005c0 1.03.681 1.203 1.701 1.203h3.831c.937 0 1.789-.258 1.789-1.03" class="st16"/><path d="M20.969 103.808v1.605c0 .772-.852 1.03-1.789 1.03h-3.831c-1.02 0-1.701-.173-1.701-1.203h-.005l-.005-2.435h.01c0 1.03.681 1.203 1.701 1.203h3.831c.644 0 1.298-.095 1.615-.21zm-4.881-28.943a1 1 0 0 0-.144.046l-.039-.102c.659-.273 1.118-.689 1.75-1.262l.776-.723.1.107c1.035 0 1.435 1.004 1.435 2.151v5.414l.232.127c-.896.806-1.733 1.286-2.658 1.568l-.015-.046V77.03c0-1.147-.4-2.151-1.435-2.151v-.015zm3.877-31.447v5.402l-2.64 2.494-.044-.046v-5.414c0-1.147-.4-2.151-1.435-2.151l-.066-.068 2.623-2.501.127.134c1.035 0 1.435 1.003 1.435 2.15m0-31.42V17.4l-2.64 2.494-.044-.046v-5.415c0-1.147-.4-2.151-1.435-2.151l-.066-.068 2.623-2.501.127.134c1.035.001 1.435 1.004 1.435 2.151" class="st16"/><path d="m17.526 82.145.015.046c-.791.243-1.65.341-2.665.382l-.005-.085v-5.144c0-.991.322-2.138 1.074-2.433a1 1 0 0 1 .144-.046v.015c1.037 0 1.437 1.004 1.437 2.151zm-.201-62.25-2.382 2.253-.102-.107v-5.414c0-1.147-.285-2.022-1.32-2.022l-.117-.124 2.377-2.265.066.068c1.035 0 1.435 1.003 1.435 2.151v5.414zm0 31.42-2.382 2.253-.102-.107v-5.414c0-1.147-.285-2.022-1.32-2.022l-.117-.125 2.377-2.265.066.068c1.035 0 1.435 1.004 1.435 2.151v5.414z" class="st16"/><path d="M13.77 75.199v-.005c.961-.044 1.61-.168 2.135-.385l.039.102c-.752.295-1.074 1.442-1.074 2.433v5.144l.005.085c-.708.029-1.493.029-2.387.029h-.058v-5.259c0-1.109.378-2.083 1.34-2.144m1.071-53.158.102.107-2.504 2.37-.039-.041v-5.414c0-1.147-.4-2.151-1.435-2.151l-.054-.056 2.492-2.375.117.124c1.035 0 1.32.874 1.32 2.022zm0 31.42.102.107-2.504 2.37-.039-.041v-5.415c0-1.147-.4-2.151-1.435-2.151l-.054-.056 2.492-2.375.117.124c1.035 0 1.32.874 1.32 2.022z" class="st16"/><path d="M13.77 75.194v.005c-.962.061-1.34 1.035-1.34 2.146v5.259H9.99v-5.259c0-1.069.351-2.012 1.235-2.134h1.723q.445 0 .822-.017m-1.369-19.298.039.042-2.235 2.112v-5.375c0-1.147-.4-2.151-1.435-2.151l-.102-.107 2.245-2.141.054.056c1.035 0 1.435 1.003 1.435 2.151v5.413zm0-31.42.039.041-2.235 2.112v-5.375c0-1.147-.4-2.151-1.435-2.151l-.102-.107 2.245-2.141.054.056c1.035 0 1.435 1.003 1.435 2.151v5.414z" class="st16"/><path d="M8.785 75.211h2.44c-.883.122-1.235 1.064-1.235 2.134v5.259H7.55v-5.259c0-1.07.351-2.012 1.235-2.134m1.42-22.537v5.375l-2.401 2.27-.04-.039v-5.414c0-1.147-.4-2.151-1.435-2.151l-.034-.037 2.372-2.263.102.107c1.035.001 1.436 1.005 1.436 2.152m0-31.42v5.375l-2.401 2.27-.039-.039v-5.415c0-1.147-.4-2.151-1.435-2.151l-.034-.036 2.372-2.263.102.107c1.034.001 1.435 1.005 1.435 2.152" class="st16"/><path d="M6.344 75.211h2.44c-.883.122-1.235 1.064-1.235 2.134v5.259h-2.44v-5.259c0-1.07.352-2.012 1.235-2.134m1.459-46.312L5.17 31.391l-.09-.095v-5.414c0-1.147-.286-2.151-1.32-2.151l-.03-.029 2.565-2.443.034.037c1.035 0 1.435 1.003 1.435 2.151v5.414zm0 31.42L5.17 62.811l-.09-.095v-5.414c0-1.147-.286-2.151-1.32-2.151l-.03-.029 2.565-2.443.034.037c1.035 0 1.435 1.003 1.435 2.151v5.414z" class="st16"/><path d="M3.904 75.211h2.44c-.883.122-1.235 1.064-1.235 2.134v5.259H2.957a2 2 0 0 1-.3-.022l.012-.093v-5.144c0-1.07.352-2.012 1.235-2.134M5.08 62.716l.09.095-2.372 2.241c-.056 0-.115-.003-.168-.007l.01-.136v-5.415c0-1.147-.085-1.849-1.118-1.849l-.061-.041c.271-.417.608-.835.993-1.264l1.276-1.218.029.029c1.035 0 1.32 1.003 1.32 2.151v5.414zm0-31.42.09.095-2.372 2.241c-.056 0-.115-.002-.168-.007l.01-.136v-5.414c0-1.147-.085-1.849-1.118-1.849l-.061-.041c.271-.417.608-.835.993-1.264l1.276-1.218.029.029c1.035 0 1.32 1.003 1.32 2.151v5.413z" class="st16"/><path d="M2.957 75.211h.947c-.883.122-1.235 1.064-1.235 2.134v5.144l-.012.093A2.07 2.07 0 0 1 .89 80.54v-3.266a2.07 2.07 0 0 1 2.067-2.063M2.64 59.494v5.415l-.01.136a2.07 2.07 0 0 1-1.898-2.056v-3.266c0-.714.271-1.413.73-2.119l.061.041c1.032 0 1.117.702 1.117 1.849m0-31.42v5.414l-.01.136a2.07 2.07 0 0 1-1.898-2.056v-3.266c0-.714.271-1.413.73-2.119l.061.041c1.032.001 1.117.703 1.117 1.85" class="st16"/><path d="M28.048 63.919c1.035 0 1.435 1.003 1.435 2.151v5.414m-3.761-5.243c1.035 0 1.32.874 1.32 2.022v5.414m-3.875-5.13c1.035 0 1.435 1.004 1.435 2.151v5.414m-3.631-5.373c1.035 0 1.435 1.004 1.435 2.151v5.414m-3.875-5.373c1.035 0 1.435 1.004 1.435 2.151v5.414M16.09 74.88c1.035 0 1.435 1.004 1.435 2.151v5.115m-13.421-6.95a1.3 1.3 0 0 0-.2.015c-.883.122-1.235 1.064-1.235 2.134v5.144m3.875-7.293a1.3 1.3 0 0 0-.2.015c-.883.122-1.235 1.064-1.235 2.134v5.144m3.876-7.293a1.3 1.3 0 0 0-.2.015c-.883.122-1.235 1.064-1.235 2.134v5.144m3.875-7.293a1.3 1.3 0 0 0-.2.015c-.883.122-1.235 1.064-1.235 2.134v5.144m3.875-7.293q-.048 0-.095.002c-.962.061-1.34 1.035-1.34 2.146v5.144" class="st18"/><path d="M16.335 74.838q-.128 0-.246.027a1 1 0 0 0-.144.046c-.752.295-1.074 1.442-1.074 2.433v5.144m13.177-50.232c1.035 0 1.435 1.004 1.435 2.151v5.414m-3.761-5.244c1.035 0 1.32.874 1.32 2.022v5.414m-3.875-5.13c1.035 0 1.435 1.004 1.435 2.151v5.415m-3.631-5.373c1.035 0 1.435 1.004 1.435 2.151v5.156m-3.875-5.115c1.035 0 1.435 1.003 1.435 2.151v5.414m-4.119-5.13c1.035 0 1.435 1.004 1.435 2.151v5.414m-3.761-5.243c1.035 0 1.32.874 1.32 2.022v5.415m-3.875-5.131c1.035 0 1.435 1.003 1.435 2.151v5.415M8.77 50.523c1.035 0 1.435 1.003 1.435 2.151v5.414M6.33 52.715c1.035 0 1.435 1.003 1.435 2.151v5.414M3.76 55.151c1.035 0 1.32 1.003 1.32 2.151v5.414m-3.558-5.071c1.032 0 1.118.701 1.118 1.849v5.415M28.048.836c1.035 0 1.435 1.003 1.435 2.151v5.414m-3.761-5.244c1.035 0 1.32.874 1.32 2.022v5.414m-3.875-5.129c1.035 0 1.435 1.003 1.435 2.151v5.414m-3.631-5.373c1.035 0 1.435 1.003 1.435 2.151v5.156m-3.875-5.115c1.035 0 1.435 1.004 1.435 2.151v5.414m-4.119-5.13c1.035 0 1.435 1.003 1.435 2.151v5.415m-3.761-5.244c1.035 0 1.32.874 1.32 2.022v5.415m-3.875-5.131c1.035 0 1.435 1.003 1.435 2.151v5.414M8.77 19.103c1.035 0 1.435 1.003 1.435 2.151v5.414M6.33 21.295c1.035 0 1.435 1.003 1.435 2.151v5.415m-4.005-5.13c1.035 0 1.32 1.003 1.32 2.151v5.414m-3.558-5.071c1.032 0 1.118.701 1.118 1.849v5.414m29.371 42.037c0-.774.861-1.033 1.808-1.033h3.875c1.035 0 1.723.173 1.723 1.206m-7.406 2.263c0-.774.861-1.033 1.808-1.033h3.875c1.035 0 1.723.173 1.723 1.206m-7.406 2.262c0-.775.861-1.033 1.808-1.033h3.875c1.035 0 1.723.173 1.723 1.206m-7.406 2.263c0-.775.861-1.033 1.808-1.033h3.875c1.035 0 1.723.173 1.723 1.206m-7.406 2.263c0-.774.861-1.033 1.808-1.033h3.875c1.035 0 1.723.173 1.723 1.206m-7.406 2.262c0-.774.861-1.033 1.808-1.033h3.875c1.035 0 1.723.173 1.723 1.206m-7.406 2.263c0-.775.861-1.033 1.808-1.033h3.875c1.035 0 1.723.173 1.723 1.206m-7.406 2.263c0-.775.861-1.033 1.808-1.033h3.875c1.035 0 1.723.173 1.723 1.206m-7.406 2.262c0-.774.861-1.033 1.808-1.033h3.875c1.035 0 1.723.173 1.723 1.206m-7.406 2.263c0-.774.861-1.033 1.808-1.033h3.875c1.035 0 1.723.173 1.723 1.206m-7.406 2.263c0-.774.861-1.033 1.808-1.033h3.875c1.035 0 1.723.173 1.723 1.206m-7.406 2.262c0-.774.861-1.032 1.808-1.032h3.875c1.035 0 1.723.173 1.723 1.205m-7.406 2.263c0-.774.861-1.033 1.808-1.033h3.875c1.035 0 1.723.173 1.723 1.206m-7.406 2.263c0-.775.861-1.033 1.808-1.033h3.875c1.035 0 1.723.173 1.723 1.206m-7.406 2.262c0-.774.861-1.032 1.808-1.032h3.875c1.035 0 1.723.173 1.723 1.205m-7.406 2.263c0-.774.861-1.033 1.808-1.033h3.875c1.035 0 1.723.173 1.723 1.206m-7.406 2.263c0-.775.861-1.033 1.808-1.033h3.875c1.003 0 1.679.163 1.72 1.111q.003.047.002.095m-7.405 2.262q0-.036.002-.07c.051-.721.888-.962 1.806-.962h3.875c1.035 0 1.723.231 1.723 1.261m-7.636 2.122c.286-1.033 1.025-.889 1.969-.799l3.858.368c.966.095 1.801.397 1.816 1.288q0 .081-.007.173m-.803 2.981c0-.516-.63-.93-1.608-1.261-.979-.332-2.887-1.104-3.785-1.406-.849-.287-1.642-.26-2.111.48-.029.039-.051.08-.076.124m-2.384 1.238c1.035 0 1.437 1.003 1.437 2.15v4.806m-3.952-6.876c1.032 0 1.435 1.003 1.435 2.148v4.901m-4.02-7.38q.08.014.156.036c.83.227 1.371 1.011 1.279 2.061-.144 1.649-.776 5.005-.776 5.005m5.849-7.229a1.69 1.69 0 0 1 1.503.835c.266.439 2.552 5.32 2.552 5.32m-13.108-10.654c0 .772-.854 1.031-1.796 1.031h-3.851c-.944 0-1.601-.146-1.698-.977a2 2 0 0 1-.012-.227m7.321-2.262c0 .772-.852 1.03-1.789 1.03h-3.831c-.939 0-1.591-.146-1.689-.977a2 2 0 0 1-.012-.226m7.321-2.263c0 .772-.852 1.03-1.789 1.03h-3.831c-.947 0-1.601-.148-1.691-.993a2 2 0 0 1-.01-.21m7.321-2.263c0 .773-.852 1.031-1.789 1.031h-3.831c-.969 0-1.63-.156-1.696-1.052 0-.049-.005-.098-.005-.151m7.321-2.263c0 .772-.852 1.03-1.789 1.03h-3.831c-1.013 0-1.691-.17-1.701-1.184m7.321-2.282c0 .772-.852 1.03-1.789 1.03h-3.831c-1.02 0-1.701-.173-1.701-1.203m7.338-1.605c.027.054-.049.11-.19.163-.317.115-.971.21-1.615.21H15.35c-1.02 0-1.701-.173-1.701-1.203m17.273 18.847a1.7 1.7 0 0 1 1.703.25c.405.315 4.278 4.068 4.278 4.068m-16.72 2.708c.515 0 .874-.34 1.205-1.317s1.103-2.879 1.408-3.775c.266-.787.264-1.525-.327-2.003a2 2 0 0 0-.278-.182m-.862-.975-.002.086a1.68 1.68 0 0 1-.835 1.415c-.337.204-3.306 1.537-4.644 2.226-.661.343-1.008-.058-1.008-.058m6.929-2.806q.032.08.054.16a1.68 1.68 0 0 1-.305 1.54c-.315.404-3.978 4.087-3.978 4.087m3.763-7.558c.085.77-.764 1.12-1.728 1.225-.964.107-2.894.317-3.946.431-1.052.115-1.772.02-1.884-1.006" class="st18"/><path d="M20.197 80.623q.107-.095.215-.197l2.084-2.029 2.221-2.165 2.469-2.406 2.347-2.287.525-.512c1.032-1.147 1.723-2.246 1.723-3.381v-3.269a2.073 2.073 0 0 0-2.067-2.063L28.02 63.89l-2.404 2.238-2.518 2.348-2.267 2.112-2.401 2.236-.776.723c-.632.572-1.091.989-1.75 1.262-.525.217-1.174.341-2.135.385q-.377.017-.822.017h-9.99A2.07 2.07 0 0 0 .89 77.274v3.266a2.07 2.07 0 0 0 2.067 2.063h9.532c.893 0 1.679 0 2.387-.029 1.015-.041 1.874-.139 2.665-.382.924-.283 1.761-.763 2.656-1.569zm-6.549 27.053-.005-2.436-.005-2.435v-1.52s2.594 1.807 7.35 2.323q.7.078 1.462.112" class="st9"/><path d="M13.648 107.695v-.019" class="st18"/><path d="M20.969 103.808v11.691c0 .78.024 1.471.073 2.09.059.745.156 1.379.298 1.919.098.385.22.721.361 1.016.151.307.325.567.525.791q.12.138.259.251c.344.298.752.507 1.232.653.664.207 1.464.29 2.418.317q.42.013.881.012c.61 0 1.152-.027 1.633-.098.534-.075.993-.207 1.384-.414q.324-.167.59-.411.25-.233.451-.543c.295-.458.512-1.048.664-1.808.132-.667.212-1.463.249-2.416q.025-.632.024-1.359V74.064a2.07 2.07 0 0 1 2.067-2.063h3.272a2.07 2.07 0 0 1 2.067 2.063v39.716s.022-.32.037.794c.01.509.017 1.315.02 2.586.002.512.002 1.101.002 1.776q0 .61-.051 1.203a11.5 11.5 0 0 1-.722 3.188 9.2 9.2 0 0 1-1.623 2.714c-.776.896-1.75 1.661-2.936 2.26-1.145.58-2.484 1.006-4.036 1.245q-1.182.182-2.533.216-.276.008-.559.008-1.505 0-2.84-.159c-1.486-.173-2.819-.487-3.995-.93-1.115-.417-2.091-.948-2.926-1.581a8.9 8.9 0 0 1-2.513-2.952c-.617-1.179-.974-2.513-1.059-3.975a11 11 0 0 1-.022-.721v-6.695l-.007-2.495-.005-2.567m16.409-68.332.042-.049c1.01-1.13 1.681-2.214 1.681-3.332v-3.269a2.073 2.073 0 0 0-2.067-2.063" class="st9"/><path d="m29.368 30.68-1.479 1.41-2.377 2.268-2.492 2.372-2.245 2.141-2.372 2.263-2.623 2.501-2.376 2.265-2.492 2.375-2.245 2.141-2.372 2.263-2.565 2.443-1.275 1.218c-.386.429-.722.848-.993 1.264-.459.706-.73 1.405-.73 2.119v3.266a2.07 2.07 0 0 0 2.066 2.063l2.372-2.241 2.633-2.492 2.401-2.27 2.235-2.112 2.504-2.37 2.382-2.253 2.64-2.494 2.506-2.37 2.13-2.014 2.499-2.363 2.382-2.253.576-.543m0-31.334q.022-.024.042-.049c1.01-1.13 1.681-2.214 1.681-3.332V1.294a2.073 2.073 0 0 0-2.067-2.063" class="st9"/><path d="M29.368-.74 27.889.67l-2.377 2.268-2.491 2.372-2.245 2.141-2.372 2.263-2.623 2.501-2.377 2.265-2.492 2.375-2.245 2.141-2.372 2.263-2.565 2.443-1.275 1.218c-.386.429-.722.848-.993 1.264-.459.706-.73 1.405-.73 2.119v3.266a2.07 2.07 0 0 0 2.066 2.063l2.372-2.241 2.633-2.492 2.401-2.27 2.235-2.112 2.504-2.37 2.382-2.253 2.64-2.494 2.506-2.37 2.13-2.014 2.499-2.363L29.482 8.4l.576-.543" class="st9"/></g></g></svg>