<svg xmlns="http://www.w3.org/2000/svg" xml:space="preserve" id="Layer_1" x="0" y="0" viewBox="0 0 233 162"><style>.st0{fill:#0164bf}.st1{fill:#4ed7de}.st2{fill:#50eef6}.st3{fill:#28736d}.st4{fill:#4ba6a6}.st5{fill:#99f6ff}.st6{fill:#8dc8ff}.st7{fill:#5be3aa}.st8{fill-rule:evenodd;clip-rule:evenodd;fill:#0164bf}.st9{fill:#5ab0ff}.st10{fill:none;stroke:#002140;stroke-width:1;stroke-linecap:round;stroke-linejoin:round}.st11{fill:#e4bc07}.st12{fill:#002140;stroke:#002140;stroke-width:1;stroke-linecap:round;stroke-linejoin:round}.st13{fill:#ff7101}.st14{fill:#fbccff}.st15{fill:#002140}.st16{fill:#0164bf;stroke:#002140;stroke-linecap:round;stroke-linejoin:round}.st17{fill:#b0d9ff}.st18{fill:#fffaf0}.st19{fill:#fed607}.st20{fill:none;stroke:#002140;stroke-linecap:round;stroke-linejoin:round}</style><path d="M189.422 26.876c0-1.451-1.177-2.637-2.619-2.637h-45.794c-1.439 0-2.618 1.186-2.618 2.637v31.455c0 1.451 1.179 2.637 2.618 2.637h45.794c1.442 0 2.619-1.186 2.619-2.637z" class="st0"/><path d="M188.997 117.265c-3.915-3.524-7.804-4.394-8.375-4.509 1.685-.273 3.629-.428 5.874-.428 4.354 0 8.157 2.082 11.307 4.937z" class="st1"/><path d="M17.326 107.143a7 7 0 0 1-.977-.761l1.022.775-.043-.011h-.003v-.003zm.503 2.539c.374-.505.939-.821 1.773-1.016-.488.313-1.287.723-1.773 1.016" class="st2"/><path d="M191.198 119.563a22 22 0 0 0-2.202-2.298h8.806a31 31 0 0 1 2.747 2.849 88 88 0 0 0-9.337-.198z" class="st1"/><path d="M183.731 121.927a10 10 0 0 0-.982-.936l.151-.179s2.873-.703 8.312-.896a88 88 0 0 1 9.337.198h.003c4.049 4.76 6.582 10.318 7.241 12.386 1.245 3.895-1.105 5.564-4.285 5.564h-10.234c-1.536 0-2.804-.11-3.892-.322l.017-.095c.417-6.678-2.487-12.242-5.668-15.72m5.691-95.051c0-1.451-1.176-2.637-2.618-2.637h-45.795c-1.439 0-2.618 1.186-2.618 2.637v31.455c0 1.451 1.179 2.637 2.618 2.637h45.795c1.442 0 2.618-1.186 2.618-2.637zm1.056 40.144h-53.606a5.32 5.32 0 0 1-3.412-1.238 5.41 5.41 0 0 1-1.962-4.168V23.455c0-2.973 2.419-5.406 5.374-5.406h53.606c1.203 0 2.316.402 3.213 1.077a5.42 5.42 0 0 1 2.164 4.329v38.159c0 2.973-2.418 5.406-5.377 5.406" class="st1"/><path d="M81.526 136.765H51.099c-3.872 0-5.165-.741-8.852-4.079-3.689-3.34-24.342-22.447-24.342-22.447l-.326-.143q.107-.228.246-.414h.003c.485-.293 1.285-.704 1.773-1.017.951-.218 2.256-.278 4.02-.278h89.621c3.721 0 6.722.482 9.292 1.841q.92.485 1.77 1.126c.554.416 1.562 1.284 2.85 2.436 5.582 4.989 16.447 15.3 18.542 17.411.888.894 1.557 1.655 2.053 2.382l-.208.215s.737 2.967-2.952 2.967h-35.772v-.37s-2.031-2.04-4.798-4.452c-1.873-1.635-3.871-2.781-7.743-2.781H77.651c-3.318 0-3.504 2.039-1.105 3.895a193 193 0 0 0 4.98 3.708m4.794-24.854H35.977c-5.297 0-5.765 2.149-3.823 4.455q.232.276.505.551c1.844 1.856 3.181 3.1 4.726 4.527.54.497 1.105 1.017 1.728 1.594 2.398 2.226 4.98 2.97 9.405 2.97h76.895c5.162 0 7.018-.382 4.057-3.711q-.501-.562-.959-1.065c-1.933-2.111-3.409-3.519-5.205-4.998a81 81 0 0 0-1.951-1.543c-3.326-2.559-7.846-2.763-12.7-2.777q-.653-.004-1.314-.003z" class="st2"/><path d="M19.602 108.666c-.834.195-1.399.511-1.773 1.016h-.003a2.4 2.4 0 0 0-.371.262c-.043.043-.077.028-.111-.029a6 6 0 0 0 .008-.325c0-.462-.066-1.088-.166-1.66-.003-.468.006-.83.006-.83s.049.014.134.043h.003q.08.059.166.109l.02.012a7 7 0 0 0 2.401.91c.071.049.114.092.114.124 0 .075-.171.21-.428.368" class="st3"/><path d="M84.377 41.792H21.19c-3.935 0-7.156 3.24-7.156 7.198v52.104c0 2.083.891 3.967 2.307 5.282l-3.218-2.438-3.898-2.95a9.9 9.9 0 0 1-4.203-8.091V46.153c0-5.434 4.417-9.878 9.82-9.878h61.434s6.442 4.265 8.101 5.517c-.348-.313.725.546 0 0" class="st4"/><path d="M170.868 119.701c0-.727.234-1.577.803-2.436h17.326a22 22 0 0 1 2.201 2.298l.015.353c-5.44.193-8.312.896-8.312.896l-.152.179c-3.269-2.721-8.229-3.401-11.604-1.012h-.274q-.004-.132-.003-.278" class="st1"/><path d="M158.772 97.891a14 14 0 0 1-3.854.523h-4.381c1.522-2.643 1.659-5.426-.137-8.068v-.325h2.305c1.33 0 2.355-.175 3.129-.549l.74.327c2.392 2.114 2.941 4.846 2.116 7.784z" class="st3"/><path d="M17.495 107.252a4 4 0 0 1-.166-.106c.011.003.029.009.043.011l.006.003z" class="st2"/><path d="M108.655 111.914c4.854.014 9.374.218 12.701 2.778a78 78 0 0 1 1.95 1.542l-.106.129h-10.127l-4.418-4.268z" class="st5"/><path d="M173.486 115.398c.857-.629 1.953-1.215 3.335-1.703 1.082-.382 2.339-.704 3.795-.939q-.001.002.005 0c.572.115 4.461.985 8.375 4.509H171.67c.414-.632 1.008-1.269 1.816-1.867" class="st1"/><path d="M150.4 90.346c1.796 2.642 1.659 5.426.138 8.068H142.7c1.521-2.643 1.661-5.426-.138-8.068v-.325h7.838z" class="st3"/><path d="M171.67 117.265c-.568.859-.802 1.709-.802 2.436 0 .098 0 .189.003.281.014 2.528.282 2.927 2.624 5.283 2.766 2.783 8.437 7.93 8.437 7.93 2.499 2.306 4.135 3.901 7.45 4.547 1.088.212 2.356.322 3.892.322h10.233c3.181 0 5.531-1.669 4.286-5.564-.659-2.068-3.192-7.626-7.241-12.386h-.003a31 31 0 0 0-2.747-2.849h3.492c5.394 0 6.362.072 9.957 2.852 3.598 2.784 16.25 15.094 19.502 18.366.911.916 1.454 2.077 1.325 3.05-.14 1.098-1.131 1.956-3.401 1.956h-45.64c-5.668 0-7.744.836-12.583-3.199-4.843-4.033-14.8-13.354-18.395-16.832-1.059-1.023-1.564-1.982-1.659-2.821-.228-2.019 1.928-3.372 4.563-3.372z" class="st6"/><path d="M19.916 108.174a7 7 0 0 1-2.401-.91l-.02-.012-.117-.092c.542.184 2.104.718 2.538 1.014" class="st2"/><path d="M17.227 110.957c-.44 2.361-1.99 4.105-3.838 4.105-1.119 0-2.13-.641-2.85-1.669-.691-.985-1.116-2.324-1.116-3.803 0-2.823 1.55-5.147 3.541-5.44l.16-.212 3.218 2.438.009.006q.283.266.594.497c.089.278.174.652.243 1.051.003.741.031 1.746.157 1.985a8 8 0 0 1-.118 1.042" class="st4"/><path d="M113.923 108.292H21.19c-.434 0-.862-.04-1.273-.118-.434-.295-1.996-.83-2.538-1.014l-.006-.002-1.022-.776-.009-.006a7.2 7.2 0 0 1-2.307-5.282V48.99c0-3.958 3.221-7.198 7.155-7.198h57.964c.451.399.134 5.624.134 6.957H25.861c-2.55 0-4.634 2.097-4.634 4.662v42.148c0 2.565 2.084 4.665 4.634 4.665h82.837c2.55 0 4.637-2.1 4.637-4.665V53.411c0-2.565-2.087-4.662-4.637-4.662h-29.41q.026-.383.026-.836c0-2.783-.16-4.311-.16-6.121.014.135 0-.144 0 0h34.769c1.354 0 2.622.382 3.704 1.045a7.22 7.22 0 0 1 3.452 6.153v52.104c0 3.961-3.218 7.198-7.156 7.198" class="st2"/><path d="M53.181 67.689c-1.156 0-1.85-.91-1.85-2.479s.694-2.482 1.85-2.482 1.847.893 1.847 2.482c.001 1.589-.693 2.479-1.847 2.479" class="st7"/><path d="M165.994 74.126c-2.63-1.531-5.394-1.669-8.024.141h-.103V67.02h8.666v7.106z" class="st3"/><path d="m133.343 65.928-5.885-4.472a7.42 7.42 0 0 1-2.621-5.661v-35.45c0-4.081 3.318-7.419 7.375-7.419h51.226c1.924 0 3.295.764 4.996 1.973l5.349 4.107-.092.121a5.33 5.33 0 0 0-3.212-1.077h-53.607c-2.955 0-5.374 2.433-5.374 5.406v38.159c0 1.672.766 3.174 1.962 4.168zM17.187 107.93c.1.572.166 1.198.166 1.66q0 .166-.009.325c-.126-.238-.155-1.244-.157-1.985" class="st4"/><path d="M82.263 121.37H71.936v-.184l-4.84-4.823h10.639l4.529 4.449z" class="st5"/><path d="M104.706 36.275c1.825 0 3.538.508 5.006 1.387l8.04 4.978-.122.198a7.07 7.07 0 0 0-3.704-1.045h-34.77c-.126-1.586-1.014-2.726-2.607-3.757-.914-.592-1.83-1.183-2.715-1.761h30.875z" class="st4"/><path d="M95.172 121.37H82.263v-.558l-4.529-4.449h12.829l4.609 4.636zm27.497 4.638h-11.756v-.37l-4.417-4.268h11.756l4.417 4.268z" class="st5"/><path d="m81.301 66.767.177-.821q.416.119.899.23l.771.175c.811.175 1.099.554 1.099.925 0 .529-.465.764-1.273.764-1.059-.001-1.539-.391-1.673-1.273" class="st7"/><path d="M96.277 129.162c3.872 0 5.87 1.146 7.744 2.781a104 104 0 0 1 4.797 4.452v.37H81.526s-2.584-1.852-4.98-3.708c-2.399-1.855-2.213-3.895 1.105-3.895zm32.086-7.792h-10.111l-5.18-5.007H123.2l.106-.129c1.796 1.479 3.272 2.887 5.205 4.998z" class="st5"/><path d="M82.871 62.088c.905 0 1.388.296 1.388 1.175h3.375v3.797h-.343c0-1.68-1.125-2.441-3.706-3.03l-.771-.172c-.811-.178-1.099-.531-1.099-.902 0-.529.442-.868 1.156-.868" class="st7"/><path d="M49.878 111.911v.184l4.417 4.268H43.716l-4.417-4.268v-.184z" class="st5"/><path d="M63.543 67.807c-.942 0-1.656-.546-1.827-1.939h6.567v-.405h.5v1.278H65.18c-.135.523-.54 1.066-1.637 1.066" class="st7"/><path d="M134.865 98.414c1.519-2.643 1.658-5.426-.14-8.068v-.325h7.838v.325c1.798 2.642 1.659 5.426.137 8.068z" class="st3"/><path d="m17.58 110.096.326.144s20.653 19.106 24.342 22.447c3.686 3.337 4.98 4.078 8.852 4.078h93.491c3.689 0 2.952-2.967 2.952-2.967l.208-.215c.948 1.39 1.265 2.657 1.265 4.481v5.196c0 2.967-1.105 4.081-5.899 4.081H51.099c-6.456 0-8.115-1.301-11.618-4.268-.374-.316-.848-.724-1.399-1.201l-.017-.307c2.413-.149 2.707-.919 2.707-2.574 0-1.852 0-2.409-1.382-3.708 0 0-.831-.744-2.858-2.413-2.03-1.668-2.767-1.482-5.534-1.482-1.673 0-3.484-.272-4.651.293l-.088-.169a4918 4918 0 0 0-5.402-4.762c-2.95-2.597-3.686-3.895-3.686-7.236v-6.678c0-.732.04-1.347.137-1.861q.094-.5.272-.879" class="st4"/><path d="M32.154 116.366c-1.942-2.306-1.473-4.455 3.823-4.455h3.321v.184l4.417 4.268H32.154z" class="st5"/><path d="M9.794 118.403c-3.504 0-4.057 3.153-1.476 5.934 2.581 2.783 5.716 5.753 8.298 7.976 2.581 2.226 3.781 2.134 5.625 2.134h4.885c2.213 0 2.767 4.36.186 4.36h-4.794c-5.348 0-6.824-1.114-10.142-3.894-3.321-2.784-3.504-3.525-7.561-7.236s-3.504-5.193-3.504-7.976 2.581-6.308 6.453-6.308h2.775c.72 1.029 1.73 1.669 2.85 1.669 1.847 0 3.398-1.743 3.838-4.104l.08.017c-.097.514-.137 1.129-.137 1.861v5.567z" class="st3"/><path d="M47.913 60.425h.431v9.573h-.22l-3.372-4.943z" class="st7"/><path d="m158.447 86.594-.679-.077q.101-.68.1-1.505v-2.864h.102c2.63-1.807 5.394-1.669 8.024-.138h.54v4.673c0 1.841-.283 3.45-.789 4.834l-.294-.109c-1.362-2.898-3.666-4.716-7.004-4.814" class="st3"/><path d="M106.496 121.37H95.172v-.371l-4.608-4.636h10.754zm-33.107-9.459v.184l4.346 4.268h-10.64l-4.286-4.268v-.184z" class="st5"/><path d="M127.027 98.414c1.522-2.643 1.659-5.426-.14-8.068v-.325h7.838v.325c1.799 2.642 1.659 5.426.14 8.068zm.128 15.376c-1.288-1.152-2.296-2.02-2.85-2.436a13 13 0 0 0-1.77-1.126l.066-.126c1.522-1.391 3.318-1.391 8.574-1.391h34.022c6.362 0 7.053 1.112 11.479 4.453l.145.531c-1.382.488-2.478 1.074-3.335 1.703l-.128-.287c-2.904-2.367-3.044-2.505-6.916-2.505h-32.086c-4.011 0-6.638-.278-6.775.974z" class="st3"/><path d="M121.079 90.021h5.808v.325c1.799 2.642 1.662 5.426.14 8.068h-5.948z" class="st3"/><path d="m108.655 112.095 4.417 4.268h-11.755l-4.418-4.268v-.184h10.442q.661 0 1.314.003zm-49.18 9.275h-10.58l-5.18-5.007h10.579z" class="st5"/><path d="M157.97 74.267c2.63-1.81 5.394-1.672 8.024-.141h.539v7.884h-.539c-2.63-1.531-5.394-1.669-8.024.138h-.103v-7.882h.103z" class="st3"/><path d="M63.892 126.008H53.313v-.37l-4.417-4.268h10.579l4.417 4.268zm22.429-14.097v.184l4.243 4.268h-12.83l-4.346-4.268v-.184z" class="st5"/><path d="M25.634 48.749c-2.55 0-4.634 2.097-4.634 4.662v42.148c0 2.565 2.084 4.665 4.634 4.665h82.837c2.55 0 4.637-2.1 4.637-4.665V53.411c0-2.565-2.087-4.662-4.637-4.662z" class="st8"/><path d="M27.312 138.807c2.581 0 2.027-4.36-.186-4.36h-2.027v-.278c0-1.391.488-2.117 1.248-2.488 1.168-.566 2.978-.293 4.651-.293 2.767 0 3.503-.186 5.534 1.482 2.027 1.669 2.858 2.413 2.858 2.413 1.382 1.298 1.382 1.856 1.382 3.708 0 1.655-.294 2.425-2.707 2.574q-.44.026-.979.026H31.37c-1.846 0-4.058-2.784-4.058-2.784" class="st4"/><path d="M110.914 126.008H63.892v-.37l-4.417-4.268h47.022l4.417 4.268z" class="st5"/><path d="M118.252 121.37h-11.756l-5.18-5.007h11.756zm-46.317 0H59.474l-5.18-5.007h12.801l4.84 4.823zm-34.481 0h11.441l4.417 4.268v.37h-4.794c-4.426 0-7.007-.744-9.406-2.97-.622-.577-1.188-1.097-1.728-1.594z" class="st5"/><path d="M32.474 116.363h11.242l5.18 5.007H37.454l-.069.074c-1.545-1.427-2.881-2.671-4.726-4.526a9 9 0 0 1-.505-.552h.32z" class="st5"/><path d="M170.871 119.982h.274c3.375-2.392 8.335-1.712 11.604 1.008q.524.437.983.937c3.181 3.478 6.084 9.042 5.668 15.72l-.018.095c-3.315-.647-4.951-2.241-7.449-4.547 0 0-5.671-5.147-8.438-7.931-2.341-2.355-2.61-2.754-2.624-5.282" class="st1"/><path d="M62.81 111.911v.184l4.286 4.268H54.295l-4.417-4.268v-.184z" class="st5"/><path d="M155.834 89.473c1.125-.543 1.716-1.505 1.933-2.956l.68.077c3.338.098 5.642 1.916 7.004 4.814l.294.109c-1.245 3.415-3.855 5.48-6.973 6.374l-.083-.307c.826-2.938.277-5.67-2.115-7.784z" class="st3"/><path d="M96.899 111.911v.184l4.418 4.268H90.563l-4.243-4.268v-.184zm32.572 10.386c2.961 3.329 1.105 3.711-4.058 3.711h-2.744v-.37l-4.417-4.268h10.111l.148-.138q.459.502.96 1.065" class="st5"/><path d="m232.135 141.542-.068 5.604c-.183 1.051-1.182 1.864-3.39 1.864h-45.64c-5.668 0-7.744.833-12.583-3.2-4.843-4.035-14.8-13.356-18.395-16.834-.782-.756-1.262-1.474-1.499-2.137l-.16-.601v-5.601c.095.839.6 1.798 1.659 2.821 3.595 3.478 13.552 12.799 18.395 16.832 4.839 4.035 6.915 3.199 12.583 3.199h45.64c2.27 0 3.261-.859 3.401-1.956z" class="st9"/><path d="M197.802 117.265h3.492c5.394 0 6.362.072 9.957 2.852 3.598 2.784 16.25 15.094 19.502 18.366.911.916 1.454 2.077 1.325 3.05-.14 1.098-1.131 1.956-3.401 1.956h-45.64c-5.668 0-7.744.836-12.583-3.199-4.843-4.033-14.8-13.354-18.395-16.832-1.059-1.023-1.564-1.982-1.659-2.821-.228-2.019 1.928-3.372 4.563-3.372h16.707" class="st10"/><path d="M150.561 126.839c.237.663.716 1.381 1.499 2.137 3.595 3.478 13.551 12.799 18.394 16.834 4.84 4.033 6.916 3.2 12.583 3.2h45.641c2.207 0 3.206-.813 3.389-1.864l.068-5.604M150.4 120.117v6.121M79.287 48.749h29.41c2.55 0 4.637 2.097 4.637 4.662v42.148c0 2.565-2.087 4.665-4.637 4.665H25.861c-2.55 0-4.634-2.1-4.634-4.665V53.411c0-2.565 2.084-4.662 4.634-4.662z" class="st10"/><path d="M79.153 41.792h34.77a7.06 7.06 0 0 1 3.704 1.046 7.22 7.22 0 0 1 3.452 6.153v52.104c0 3.961-3.218 7.198-7.156 7.198H21.19c-.434 0-.862-.04-1.274-.118a7 7 0 0 1-2.401-.91" class="st10"/><path d="M16.341 106.376a7.2 7.2 0 0 1-2.307-5.282V48.99c0-3.958 3.221-7.198 7.155-7.198h58.048m-61.742 65.46a4 4 0 0 1-.166-.106h-.003a7 7 0 0 1-.977-.764m88.357-70.107c1.825 0 3.538.508 5.006 1.387l.005.003m8.612 5.334-.579-.359-8.041-4.975" class="st10"/><path d="M49.977 36.275H14.842c-5.402 0-9.82 4.443-9.82 9.878v46.744a9.9 9.9 0 0 0 4.203 8.091l3.898 2.95 3.218 2.438.009.006 1.022.776.006.002.117.092.02.012.363.276m86.828-71.265H49.684M38.082 141.872c.551.477 1.025.885 1.399 1.201 3.503 2.967 5.162 4.268 11.618 4.268h92.017c4.794 0 5.899-1.114 5.899-4.082v-5.196c0-1.823-.317-3.09-1.265-4.48-.496-.727-1.165-1.488-2.053-2.382-2.095-2.111-12.96-12.422-18.542-17.411-1.288-1.152-2.296-2.02-2.85-2.436a13 13 0 0 0-1.77-1.126c-2.57-1.359-5.571-1.841-9.292-1.841H23.622c-1.765 0-3.069.06-4.02.278-.834.196-1.399.512-1.773 1.017h-.003a2.5 2.5 0 0 0-.246.414 3.7 3.7 0 0 0-.274.879c-.097.514-.137 1.128-.137 1.861v6.678c0 3.341.737 4.639 3.686 7.235.991.871 3.015 2.657 5.402 4.763" class="st10"/><path d="M17.906 110.24s20.653 19.106 24.342 22.447c3.686 3.337 4.98 4.078 8.852 4.078h93.49c3.689 0 2.953-2.967 2.953-2.967" class="st10"/><path d="M81.526 136.765s-2.584-1.852-4.98-3.708c-2.399-1.855-2.213-3.895 1.105-3.895h18.626c3.872 0 5.87 1.146 7.744 2.781a104 104 0 0 1 4.797 4.452m13.851-10.387h2.744c5.163 0 7.019-.382 4.058-3.711q-.501-.562-.96-1.065c-1.933-2.111-3.409-3.519-5.205-4.998-.602-.494-1.245-1-1.95-1.542-3.327-2.56-7.847-2.764-12.701-2.778q-.653-.004-1.313-.003H35.978c-5.297 0-5.765 2.149-3.823 4.455q.232.276.505.552c1.845 1.855 3.181 3.099 4.726 4.526.54.497 1.105 1.017 1.728 1.594 2.398 2.227 4.98 2.97 9.406 2.97zm-90.195-9.645H123.2m-85.746 5.007h90.909" class="st10"/><path d="m39.299 112.095 4.417 4.268 5.18 5.007 4.417 4.268m-3.435-13.543 4.417 4.268 5.18 5.007 4.417 4.268m-1.082-13.543 4.286 4.268 4.84 4.823m1.453-9.091 4.346 4.268 4.529 4.449m4.056-8.717 4.243 4.268 4.608 4.636m1.728-8.904 4.418 4.268 5.179 5.007 4.418 4.268m-2.259-13.543 4.418 4.268 5.179 5.007 4.417 4.268M16.944 106.879c.089.278.174.652.243 1.051.1.572.166 1.198.166 1.66q0 .165-.009.325a7 7 0 0 1-.117 1.043c-.44 2.361-1.99 4.104-3.838 4.104-1.119 0-2.13-.64-2.85-1.669-.691-.985-1.116-2.323-1.116-3.803 0-2.823 1.55-5.147 3.541-5.44m.425 10.912h3.227" class="st10"/><path d="M10.345 113.393H7.764c-3.872 0-6.453 3.525-6.453 6.308s-.554 4.265 3.504 7.976 4.24 4.452 7.561 7.236c3.318 2.78 4.794 3.895 10.142 3.895h4.794c2.581 0 2.027-4.361-.186-4.361H22.24c-1.845 0-3.044.092-5.625-2.134-2.581-2.223-5.716-5.193-8.298-7.976-2.581-2.781-2.027-5.934 1.476-5.934h7.19m-6.433-5.01h-.011m0 0h-.194" class="st10"/><path d="M25.099 134.169c0-1.391.488-2.117 1.248-2.488 1.168-.566 2.978-.293 4.651-.293 2.767 0 3.503-.186 5.534 1.482 2.027 1.669 2.858 2.413 2.858 2.413 1.382 1.298 1.382 1.856 1.382 3.708 0 1.655-.294 2.425-2.707 2.574q-.44.026-.979.026H31.37c-1.845 0-4.057-2.784-4.057-2.784m93.857-48.786h31.535c1.33 0 2.355-.175 3.129-.549 1.125-.543 1.716-1.505 1.933-2.956q.102-.68.1-1.505V67.206" class="st10"/><path d="M121.079 98.414h33.839c1.328 0 2.633-.169 3.855-.523 3.118-.893 5.728-2.959 6.973-6.374.505-1.384.788-2.993.788-4.834V67.39m27.157-48.263a5.42 5.42 0 0 1 2.164 4.329v38.159c0 2.973-2.418 5.406-5.377 5.406h-53.606a5.32 5.32 0 0 1-3.412-1.238 5.41 5.41 0 0 1-1.962-4.168v-38.16c0-2.973 2.419-5.406 5.374-5.406h53.606a5.34 5.34 0 0 1 3.213 1.078" class="st10"/><path d="m133.343 65.928-5.885-4.472a7.42 7.42 0 0 1-2.621-5.661v-35.45c0-4.081 3.318-7.419 7.375-7.419h51.226c1.924 0 3.295.764 4.996 1.973l5.349 4.107.927.712" class="st10"/><path d="M189.422 58.331c0 1.451-1.177 2.637-2.619 2.637h-45.794c-1.439 0-2.618-1.186-2.618-2.637V26.876c0-1.451 1.179-2.637 2.618-2.637h45.794c1.442 0 2.619 1.186 2.619 2.637zm-62.535 32.015c1.799 2.642 1.662 5.426.14 8.068m7.698-8.068c1.798 2.642 1.659 5.426.14 8.068m7.697-8.068c1.799 2.642 1.659 5.426.138 8.068m7.7-8.068c1.796 2.642 1.659 5.426.137 8.068m6.037-8.614c2.393 2.114 2.941 4.846 2.116 7.784m-.243-10.99c3.338.098 5.642 1.916 7.004 4.814m-7.481-9.26c2.63-1.807 5.394-1.669 8.023-.138m-8.023-7.743c2.63-1.81 5.394-1.672 8.023-.141m14.623 38.63c-1.456.235-2.712.557-3.794.939-1.382.488-2.479 1.074-3.335 1.703-.809.598-1.402 1.235-1.816 1.867-.569.859-.803 1.709-.803 2.436 0 .098 0 .189.003.281.014 2.528.283 2.927 2.624 5.283 2.767 2.783 8.438 7.93 8.438 7.93 2.498 2.306 4.134 3.901 7.449 4.547 1.088.212 2.356.322 3.892.322h10.234c3.181 0 5.531-1.669 4.286-5.564-.66-2.068-3.193-7.626-7.241-12.386" class="st10"/><path d="M200.55 120.114a31 31 0 0 0-2.747-2.849c-3.15-2.855-6.953-4.937-11.307-4.937-2.245 0-4.189.155-5.874.428m-9.477 7.223c3.375-2.389 8.334-1.709 11.604 1.012q.523.436.982.936c3.181 3.478 6.085 9.042 5.668 15.72" class="st10"/><path d="M182.9 120.812s2.873-.703 8.312-.896a88 88 0 0 1 9.337.198h.003l.052.003m-20.053-7.373s.023 0 .065.012q-.001.002.006 0c.571.115 4.46.985 8.375 4.509a22 22 0 0 1 2.201 2.298m-68.597-9.461c1.521-1.391 3.318-1.391 8.574-1.391h34.022c6.362 0 7.053 1.112 11.478 4.453" class="st10"/><path d="M173.357 115.111c-2.904-2.367-3.044-2.505-6.915-2.505h-32.086c-4.012 0-6.639-.278-6.776.974" class="st10"/><path d="M170.472 34.895h-19.158c-.989 0-1.792.802-1.792 1.791v9.817c0 .989.803 1.791 1.792 1.791h19.158c.989 0 1.791-.802 1.791-1.791v-9.817c0-.989-.802-1.791-1.791-1.791" class="st11"/><path d="M170.152 34.835h-18.586a2.14 2.14 0 0 0-2.141 2.142v9.11c0 1.183.959 2.142 2.141 2.142h18.586a2.14 2.14 0 0 0 2.142-2.142v-9.11a2.14 2.14 0 0 0-2.142-2.142" class="st10"/><path d="M172.13 37.356h-22.67v2.003h22.67z" class="st12"/><path d="m176.938 38.05-19.157.09a1.79 1.79 0 0 0-1.783 1.8l.046 9.817c.005.989.81 1.788 1.8 1.783l19.157-.09a1.79 1.79 0 0 0 1.783-1.8l-.046-9.817a1.79 1.79 0 0 0-1.8-1.783" class="st13"/><path d="m176.619 37.99-18.586.088a2.143 2.143 0 0 0-2.132 2.152l.043 9.11a2.143 2.143 0 0 0 2.152 2.132l18.586-.088a2.14 2.14 0 0 0 2.131-2.152l-.043-9.11a2.14 2.14 0 0 0-2.151-2.132m-18.516 11.295 3.092-.014m1.418-.007 3.092-.014" class="st10"/><path d="m162.743 45.465-.011-2.52c0-.131-.251-.236-.555-.236l-2.013.009a1 1 0 0 0-.439.093l-.683.381q-.116.066-.117.145l.009 1.832q.002.073.1.136l.515.314c.105.064.276.1.457.1l2.187-.014c.305 0 .553-.109.55-.24" class="st14"/><path d="m174.984 42.448-6.716.032a1.523 1.523 0 0 0 .015 3.044l6.715-.032a1.522 1.522 0 0 0-.014-3.044" class="st15"/><path d="M73.859 94.118c.388 0 1.498-.285 1.498-1.412s-1.069-1.412-1.498-1.412H60.317c-.388 0-1.498.285-1.498 1.412s1.069 1.412 1.498 1.412zm0-35.816c.388 0 1.498-.285 1.498-1.412s-1.069-1.412-1.498-1.412H60.317c-.388 0-1.498.285-1.498 1.412s1.069 1.412 1.498 1.412z" class="st16"/><path d="M75.962 59.724c1.821 1.364 2.412 3.326 1.821 5.57-1.089 4.134-8.522 6.522-8.573 9.505v.031c.051 2.983 7.481 5.371 8.573 9.505.591 2.244 0 4.206-1.821 5.57s-4.904 1.911-8.762 1.911h-.148c-3.859 0-6.941-.546-8.762-1.911s-2.412-3.326-1.818-5.57c1.089-4.134 8.522-6.522 8.57-9.505v-.031c-.052-2.983-7.481-5.371-8.57-9.505-.591-2.244-.003-4.206 1.818-5.57s4.903-1.911 8.762-1.911h.148c3.859.001 6.941.547 8.762 1.911m-2.257 29.129c.907-.453 1.017-1.041.34-1.505 0 0-4.543-3.086-6.842-3.086h-.076c-2.299 0-6.842 3.086-6.842 3.086-.677.464-.57 1.052.337 1.505.962.481 2.21.911 6.47.911h.144c4.261 0 5.508-.43 6.47-.911zm-6.103-14.336a.619.619 0 1 0-1.237 0 .619.619 0 0 0 1.237 0m0 5.028a.618.618 0 1 0-1.236 0 .618.618 0 0 0 1.236 0" class="st17"/><path d="M74.859 82.393c1.818 1.869 2.412 3.921 1.258 4.247-1.306.364-1.254-1.378-3.618-3.206-2.113-1.632-2.44-2.364-1.845-3.024.521-.584 1.961-.322 4.205 1.983" class="st18"/><path d="M74.041 87.352c.677.464.57 1.051-.34 1.505-.962.481-2.21.911-6.471.911h-.144c-4.261 0-5.508-.43-6.471-.911-.907-.454-1.014-1.041-.337-1.505 0 0 4.543-3.086 6.842-3.086h.076c2.299 0 6.842 3.086 6.842 3.086zM72.76 66.559c.539 0 .763.639.323.931 0 0-3.99 3.33-6.034 3.33s-6.171-3.33-6.171-3.33c-.436-.292-.216-.931.323-.931zm-5.777 7.343a.617.617 0 1 1 0 1.237.618.618 0 1 1 0-1.237m0 5.027a.617.617 0 1 1 0 1.237.618.618 0 1 1 0-1.237" class="st19"/><path d="M75.547 61.078c1.605 1.917 1.23 5.319-.179 5.306-1.23-.01-.096-1.182-.969-3.089s-2.852-2.1-2.213-3.213c.474-.832 2.213-.375 3.361 1z" class="st18"/><path d="M65.038 74.83c-.052 2.983-7.481 5.371-8.57 9.505-.591 2.244-.003 4.206 1.818 5.57s4.903 1.911 8.762 1.911M69.21 74.83c.052 2.983 7.481 5.371 8.573 9.505.591 2.244 0 4.206-1.821 5.57s-4.903 1.911-8.762 1.911m2.01-16.986v-.031c.052-2.983 7.481-5.371 8.573-9.505.591-2.244 0-4.206-1.821-5.57s-4.903-1.911-8.762-1.911M65.038 74.83v-.031c-.052-2.983-7.481-5.371-8.57-9.505-.591-2.244-.003-4.206 1.818-5.57s4.903-1.911 8.762-1.911" class="st20"/><path d="M61.204 66.559H72.76c.539 0 .763.639.323.931 0 0-3.99 3.33-6.034 3.33s-6.171-3.33-6.171-3.33c-.436-.292-.216-.931.323-.931zm5.882 23.205c-4.261 0-5.508-.429-6.471-.911-.907-.453-1.014-1.041-.337-1.505 0 0 4.543-3.086 6.842-3.086m.111 5.502c4.261 0 5.508-.429 6.471-.911.907-.453 1.017-1.041.34-1.505 0 0-4.543-3.086-6.842-3.086m.402-9.741a.618.618 0 1 1-1.236 0 .618.618 0 0 1 1.236 0m0 5.027a.618.618 0 1 1-1.236 0 .618.618 0 0 1 1.236 0" class="st20"/></svg>