<?xml version="1.0" encoding="utf-8"?>
<!-- Generator: Adobe Illustrator 28.1.0, SVG Export Plug-In . SVG Version: 6.00 Build 0)  -->
<svg version="1.1" id="Layer_1" xmlns="http://www.w3.org/2000/svg" xmlns:xlink="http://www.w3.org/1999/xlink" x="0px" y="0px"
	 viewBox="0 0 164 191" style="enable-background:new 0 0 164 191;" xml:space="preserve">
<style type="text/css">
	.st0{clip-path:url(#SVGID_00000142874462333717735250000018188872578153978028_);}
	.st1{clip-path:url(#SVGID_00000159441493941885107790000000938499352503185855_);}
	.st2{fill:#0164BF;}
	.st3{fill:#0185FF;}
	.st4{fill:#002140;}
	.st5{fill:#FFED8F;}
	.st6{fill:#003C73;}
	.st7{fill:#5AB0FF;}
	.st8{fill:#0676DE;}
	.st9{fill:none;stroke:#002140;stroke-linecap:round;stroke-miterlimit:10;}
	.st10{fill:#50EEF6;}
	.st11{fill:#780505;}
	.st12{fill:#BF3013;}
	.st13{fill:#8DC8FF;stroke:#002140;stroke-linecap:round;stroke-linejoin:round;}
	.st14{fill:#0185FF;stroke:#002140;stroke-linecap:round;stroke-linejoin:round;}
	.st15{fill:none;stroke:#002140;stroke-linecap:round;stroke-linejoin:round;}
	.st16{fill:#FED607;}
	.st17{fill:none;stroke:#FED607;stroke-linecap:round;stroke-linejoin:round;}
	.st18{fill:none;stroke:#D18000;stroke-linecap:round;stroke-miterlimit:10;}
</style>
<g>
	<defs>
		<rect id="SVGID_1_" y="0.5" width="164" height="190"/>
	</defs>
	<clipPath id="SVGID_00000029016572310822972990000016997456362271414916_">
		<use xlink:href="#SVGID_1_"  style="overflow:visible;"/>
	</clipPath>
	<g style="clip-path:url(#SVGID_00000029016572310822972990000016997456362271414916_);">
		<g>
			<defs>
				<rect id="SVGID_00000090264055293721407540000001372806678547719615_" y="-1.5" width="164" height="190"/>
			</defs>
			<clipPath id="SVGID_00000039831186055399051900000016587822914047177646_">
				<use xlink:href="#SVGID_00000090264055293721407540000001372806678547719615_"  style="overflow:visible;"/>
			</clipPath>
			<g style="clip-path:url(#SVGID_00000039831186055399051900000016587822914047177646_);">
				<path class="st2" d="M162.693,133.781c0,2.521,0.229,2.521-1.494,5.271c-1.723,2.752-30.203,42.753-32.499,45.62
					c-1.379,1.719-2.262,2.657-3.443,3.13l-0.059-0.151v-14.156c0-1.705-0.065-2.504-0.658-2.877l0.37-0.046
					c0,0,32.426-50.211,36.404-56.736c0.922-1.51,1.315-2.772,1.315-3.805h0.064V133.781z"/>
				<path class="st3" d="M162.629,110.031c0,1.033-0.393,2.294-1.315,3.805c-3.978,6.525-36.403,56.736-36.403,56.736l-0.371,0.046
					c-0.525-0.331-1.464-0.331-3.131-0.331c-3.56,0-61.265,0.402-61.265,0.402h-0.276c0.212-0.651,0.654-1.162,1.54-2.524
					c1.493-2.292,26.64-43.325,31.694-52.381c5.054-9.053,9.417-9.455,14.354-9.455h49.954
					C160.194,106.329,162.629,107.466,162.629,110.031z M151.438,116.588c1.379-2.292-0.114-2.981-3.101-2.981h-40.65
					c-4.709,0-6.051,0.823-8.04,4.24c-2.067,3.554-5.359,9.19-6.508,11.482c-1.147,2.292-0.803,3.324,1.952,3.324h0.537
					c4.622,0.013,37.636,0.095,41.801,0.095c4.478,0,4.707-1.147,6.086-3.324c1.186-1.871,5.166-8.313,7.138-11.543
					C150.975,117.353,151.243,116.909,151.438,116.588z M137.632,140.896c0.168-0.29,0.207-0.556,0.134-0.753l-0.681-1.951
					l-0.046,0.015c-0.074-0.219-0.284-0.358-0.603-0.358H125.66c-0.605,0-1.386,0.494-1.735,1.098l-2.045,3.534
					c-0.208,0.358-0.217,0.677-0.066,0.877l0.637,1.72c0.041,0.273,0.263,0.45,0.627,0.45h10.774c0.605,0,1.386-0.494,1.737-1.098
					L137.632,140.896z M130.799,151.613c0.168-0.29,0.207-0.556,0.134-0.753l-0.681-1.951l-0.046,0.015
					c-0.073-0.22-0.283-0.358-0.603-0.358h-10.776c-0.605,0-1.386,0.494-1.735,1.098l-2.045,3.534
					c-0.207,0.358-0.217,0.677-0.066,0.877l0.637,1.72c0.042,0.272,0.264,0.45,0.627,0.45h10.774c0.605,0,1.386-0.494,1.737-1.098
					L130.799,151.613z M123.966,162.573c0.169-0.29,0.208-0.555,0.134-0.753l-0.68-1.951l-0.047,0.015
					c-0.073-0.219-0.283-0.358-0.602-0.358h-10.777c-0.605,0-1.386,0.494-1.735,1.099l-2.044,3.534
					c-0.208,0.358-0.218,0.677-0.066,0.876l0.637,1.72c0.041,0.273,0.263,0.451,0.627,0.451h10.773c0.605,0,1.386-0.495,1.738-1.099
					L123.966,162.573z M118.11,140.896c0.168-0.29,0.207-0.556,0.134-0.753l-0.681-1.951l-0.046,0.015
					c-0.074-0.219-0.283-0.358-0.603-0.358h-10.776c-0.605,0-1.386,0.494-1.735,1.098l-2.045,3.534
					c-0.207,0.358-0.217,0.677-0.066,0.877l0.637,1.72c0.041,0.273,0.264,0.45,0.627,0.45h10.774c0.605,0,1.386-0.494,1.737-1.098
					L118.11,140.896z M111.277,151.613c0.168-0.29,0.207-0.556,0.134-0.753l-0.681-1.951l-0.046,0.015
					c-0.073-0.22-0.283-0.358-0.603-0.358H99.305c-0.605,0-1.386,0.494-1.735,1.098l-2.045,3.534
					c-0.207,0.358-0.217,0.677-0.066,0.877l0.637,1.72c0.042,0.272,0.264,0.45,0.627,0.45h10.773c0.605,0,1.386-0.494,1.738-1.098
					L111.277,151.613z M104.444,162.573c0.169-0.29,0.208-0.555,0.135-0.753l-0.681-1.951l-0.047,0.015
					c-0.073-0.219-0.283-0.358-0.602-0.358H92.473c-0.605,0-1.386,0.494-1.735,1.099l-2.045,3.534
					c-0.208,0.358-0.217,0.677-0.066,0.876l0.637,1.72c0.041,0.273,0.263,0.451,0.627,0.451h10.773c0.606,0,1.387-0.495,1.738-1.099
					L104.444,162.573z M98.588,140.896c0.168-0.29,0.207-0.556,0.134-0.753l-0.681-1.951l-0.046,0.015
					c-0.073-0.219-0.283-0.358-0.603-0.358H86.616c-0.605,0-1.386,0.494-1.735,1.098l-2.045,3.534
					c-0.207,0.358-0.217,0.677-0.066,0.877l0.637,1.72c0.042,0.273,0.264,0.45,0.627,0.45h10.774c0.605,0,1.386-0.494,1.737-1.098
					L98.588,140.896z M91.755,151.613c0.168-0.29,0.207-0.556,0.134-0.753l-0.681-1.951l-0.046,0.015
					c-0.073-0.22-0.283-0.358-0.603-0.358H79.783c-0.605,0-1.386,0.494-1.735,1.098l-2.045,3.534
					c-0.208,0.358-0.217,0.677-0.066,0.877l0.637,1.72c0.041,0.272,0.263,0.45,0.627,0.45h10.774c0.605,0,1.386-0.494,1.738-1.098
					L91.755,151.613z M84.923,162.573c0.168-0.29,0.207-0.555,0.134-0.753l-0.681-1.951l-0.046,0.015
					c-0.073-0.219-0.283-0.358-0.603-0.358H72.951c-0.605,0-1.386,0.494-1.735,1.099l-2.045,3.534
					c-0.207,0.358-0.217,0.677-0.066,0.876l0.637,1.72c0.042,0.273,0.264,0.451,0.627,0.451h10.774c0.605,0,1.386-0.495,1.737-1.099
					L84.923,162.573z"/>
				<path class="st4" d="M148.336,113.607c2.987,0,4.481,0.689,3.102,2.981c-0.195,0.321-0.464,0.765-0.786,1.293l-0.363-0.134
					h-40.65c-4.709,0-6.081,0.806-8.04,4.241c-1.952,3.424-4.598,7.706-5.972,10.417v0.248h-0.537c-2.755,0-3.099-1.032-1.952-3.324
					c1.149-2.292,4.441-7.928,6.508-11.482c1.989-3.417,3.33-4.24,8.04-4.24H148.336z"/>
				<path class="st5" d="M150.289,117.747l0.364,0.134c-1.972,3.23-5.952,9.672-7.138,11.543c-1.379,2.177-1.608,3.324-6.086,3.324
					c-4.165,0-37.179-0.082-41.801-0.095v-0.248c1.374-2.711,4.019-6.993,5.971-10.417c1.96-3.435,3.331-4.241,8.041-4.241H150.289z
					"/>
				<path class="st6" d="M137.766,140.143c0.073,0.197,0.034,0.463-0.134,0.753l-2.043,3.534c-0.351,0.604-1.132,1.098-1.737,1.098
					h-10.774c-0.364,0-0.586-0.177-0.627-0.45l-0.637-1.72c0.105,0.139,0.285,0.222,0.532,0.222h10.774
					c0.605,0,1.386-0.495,1.737-1.099l2.042-3.534c0.166-0.285,0.208-0.545,0.14-0.74l0.046-0.015L137.766,140.143z"/>
				<path class="st7" d="M121.814,143.358c-0.152-0.2-0.142-0.519,0.065-0.877l2.045-3.534c0.349-0.604,1.13-1.098,1.735-1.098
					h10.776c0.32,0,0.53,0.139,0.603,0.358c0.068,0.195,0.027,0.455-0.139,0.74l-2.042,3.534c-0.352,0.604-1.133,1.099-1.738,1.099
					h-10.774C122.099,143.58,121.918,143.497,121.814,143.358z"/>
				<path class="st6" d="M130.933,150.86c0.073,0.197,0.034,0.463-0.134,0.753l-2.043,3.534c-0.351,0.604-1.132,1.098-1.737,1.098
					h-10.774c-0.364,0-0.586-0.178-0.627-0.45l-0.637-1.72c0.105,0.139,0.285,0.222,0.532,0.222h10.774
					c0.605,0,1.386-0.495,1.737-1.099l2.042-3.534c0.166-0.285,0.208-0.546,0.14-0.74l0.046-0.015L130.933,150.86z"/>
				<path class="st7" d="M114.981,154.075c-0.151-0.2-0.142-0.519,0.066-0.877l2.045-3.534c0.349-0.604,1.13-1.098,1.735-1.098
					h10.776c0.32,0,0.529,0.138,0.603,0.358c0.068,0.194,0.026,0.455-0.139,0.74l-2.043,3.534c-0.351,0.604-1.132,1.099-1.737,1.099
					h-10.774C115.267,154.297,115.086,154.214,114.981,154.075z"/>
				<path class="st8" d="M125.198,187.651l0.059,0.151c-0.786,0.314-1.703,0.423-2.987,0.423H63.475c-3.102,0-3.79-0.46-3.79-2.866
					V172.52c0-0.884,0.037-1.391,0.183-1.834h0.276c0,0,57.704-0.399,61.265-0.399c1.666,0,2.606,0,3.131,0.331
					c0.593,0.373,0.658,1.172,0.658,2.876V187.651z M118.595,179.915c0-1.42-1.161-2.579-2.584-2.579H67.782
					c-0.71,0-1.357,0.289-1.825,0.757c-0.468,0.468-0.759,1.111-0.759,1.822c0,1.417,1.162,2.579,2.584,2.579h48.229
					c0.71,0,1.357-0.29,1.825-0.757C118.305,181.269,118.595,180.624,118.595,179.915z"/>
				<path class="st6" d="M124.1,161.82c0.073,0.198,0.034,0.463-0.134,0.753l-2.042,3.534c-0.352,0.604-1.133,1.099-1.738,1.099
					h-10.774c-0.363,0-0.585-0.178-0.627-0.451l-0.637-1.72c0.105,0.139,0.286,0.222,0.532,0.222h10.774
					c0.605,0,1.386-0.494,1.737-1.098l2.043-3.535c0.166-0.284,0.207-0.545,0.139-0.74l0.046-0.015L124.1,161.82z"/>
				<path class="st7" d="M108.148,165.035c-0.151-0.199-0.142-0.518,0.066-0.876l2.045-3.535c0.349-0.604,1.13-1.098,1.735-1.098
					h10.776c0.32,0,0.529,0.139,0.603,0.358c0.068,0.195,0.026,0.456-0.139,0.74l-2.043,3.535c-0.351,0.604-1.132,1.098-1.737,1.098
					H108.68C108.434,165.257,108.253,165.174,108.148,165.035z"/>
				<path class="st6" d="M118.243,140.143c0.074,0.197,0.034,0.463-0.134,0.753l-2.042,3.534c-0.352,0.604-1.133,1.098-1.738,1.098
					h-10.773c-0.364,0-0.586-0.177-0.628-0.45l-0.636-1.72c0.104,0.139,0.285,0.222,0.531,0.222h10.774
					c0.605,0,1.386-0.495,1.738-1.099l2.042-3.534c0.166-0.285,0.207-0.545,0.139-0.74l0.046-0.015L118.243,140.143z"/>
				<path class="st4" d="M116.011,177.336c1.422,0,2.584,1.159,2.584,2.579c0,0.709-0.29,1.354-0.759,1.822
					c-0.469,0.467-1.115,0.757-1.825,0.757H67.782c-1.423,0-2.584-1.162-2.584-2.579c0-0.711,0.29-1.354,0.759-1.822
					c0.468-0.468,1.115-0.757,1.825-0.757H116.011z"/>
				<path class="st7" d="M102.292,143.358c-0.152-0.2-0.142-0.519,0.065-0.877l2.045-3.534c0.349-0.604,1.13-1.098,1.735-1.098
					h10.776c0.32,0,0.53,0.139,0.603,0.358c0.068,0.195,0.027,0.455-0.139,0.74l-2.042,3.534c-0.352,0.604-1.133,1.099-1.738,1.099
					h-10.773C102.577,143.58,102.396,143.497,102.292,143.358z"/>
				<path class="st6" d="M111.411,150.86c0.073,0.197,0.034,0.463-0.134,0.753l-2.042,3.534c-0.352,0.604-1.133,1.098-1.738,1.098
					H96.724c-0.364,0-0.586-0.178-0.627-0.45l-0.637-1.72c0.105,0.139,0.285,0.222,0.532,0.222h10.774
					c0.605,0,1.386-0.495,1.738-1.099l2.042-3.534c0.166-0.285,0.207-0.546,0.139-0.74l0.046-0.015L111.411,150.86z"/>
				<path class="st7" d="M95.46,154.075c-0.151-0.2-0.142-0.519,0.066-0.877l2.045-3.534c0.349-0.604,1.13-1.098,1.735-1.098h10.776
					c0.32,0,0.53,0.138,0.603,0.358c0.068,0.194,0.027,0.455-0.139,0.74l-2.042,3.534c-0.352,0.604-1.133,1.099-1.738,1.099H95.992
					C95.745,154.297,95.564,154.214,95.46,154.075z"/>
				<path class="st6" d="M104.578,161.82c0.073,0.198,0.034,0.463-0.134,0.753l-2.042,3.534c-0.352,0.604-1.133,1.099-1.738,1.099
					H89.891c-0.364,0-0.586-0.178-0.627-0.451l-0.637-1.72c0.105,0.139,0.285,0.222,0.532,0.222h10.774
					c0.605,0,1.386-0.494,1.738-1.098l2.042-3.535c0.166-0.284,0.207-0.545,0.139-0.74l0.046-0.015L104.578,161.82z"/>
				<path class="st7" d="M88.627,165.035c-0.151-0.199-0.142-0.518,0.066-0.876l2.045-3.535c0.349-0.604,1.13-1.098,1.735-1.098
					h10.776c0.32,0,0.53,0.139,0.603,0.358c0.068,0.195,0.027,0.456-0.139,0.74l-2.042,3.535c-0.352,0.604-1.133,1.098-1.738,1.098
					H89.159C88.912,165.257,88.731,165.174,88.627,165.035z"/>
				<path class="st6" d="M98.722,140.143c0.073,0.197,0.034,0.463-0.134,0.753l-2.043,3.534c-0.351,0.604-1.132,1.098-1.737,1.098
					H84.034c-0.364,0-0.586-0.177-0.627-0.45l-0.637-1.72c0.105,0.139,0.285,0.222,0.532,0.222h10.774
					c0.605,0,1.386-0.495,1.738-1.099l2.042-3.534c0.166-0.285,0.207-0.545,0.139-0.74l0.046-0.015L98.722,140.143z"/>
				<path class="st7" d="M82.77,143.358c-0.151-0.2-0.142-0.519,0.066-0.877l2.045-3.534c0.349-0.604,1.13-1.098,1.735-1.098h10.776
					c0.32,0,0.53,0.139,0.603,0.358c0.068,0.195,0.027,0.455-0.139,0.74l-2.042,3.534c-0.351,0.604-1.132,1.099-1.737,1.099H83.302
					C83.056,143.58,82.875,143.497,82.77,143.358z"/>
				<path class="st6" d="M91.889,150.86c0.073,0.197,0.034,0.463-0.134,0.753l-2.042,3.534c-0.351,0.604-1.132,1.098-1.737,1.098
					H77.201c-0.364,0-0.586-0.178-0.627-0.45l-0.637-1.72c0.105,0.139,0.285,0.222,0.532,0.222h10.774
					c0.605,0,1.386-0.495,1.737-1.099l2.043-3.534c0.166-0.285,0.207-0.546,0.139-0.74l0.046-0.015L91.889,150.86z"/>
				<path class="st7" d="M75.937,154.075c-0.151-0.2-0.142-0.519,0.066-0.877l2.045-3.534c0.349-0.604,1.13-1.098,1.735-1.098
					h10.776c0.32,0,0.53,0.138,0.603,0.358c0.068,0.194,0.027,0.455-0.139,0.74l-2.042,3.534c-0.351,0.604-1.132,1.099-1.737,1.099
					H76.469C76.223,154.297,76.042,154.214,75.937,154.075z"/>
				<path class="st6" d="M85.056,161.82c0.073,0.198,0.034,0.463-0.134,0.753l-2.042,3.534c-0.351,0.604-1.132,1.099-1.737,1.099
					H70.368c-0.364,0-0.586-0.178-0.627-0.451l-0.637-1.72c0.105,0.139,0.285,0.222,0.532,0.222H80.41
					c0.605,0,1.386-0.494,1.737-1.098l2.043-3.535c0.166-0.284,0.207-0.545,0.139-0.74l0.046-0.015L85.056,161.82z"/>
				<path class="st7" d="M69.105,165.035c-0.151-0.199-0.142-0.518,0.066-0.876l2.045-3.535c0.349-0.604,1.13-1.098,1.735-1.098
					h10.776c0.32,0,0.53,0.139,0.603,0.358c0.068,0.195,0.027,0.456-0.139,0.74l-2.042,3.535c-0.351,0.604-1.132,1.098-1.738,1.098
					H69.637C69.391,165.257,69.21,165.174,69.105,165.035z"/>
				<path class="st9" d="M124.911,170.572c0,0,32.425-50.211,36.403-56.736c0.922-1.511,1.315-2.772,1.315-3.805
					c0-2.565-2.435-3.702-5.219-3.702h-49.954c-4.937,0-9.3,0.402-14.354,9.455c-5.054,9.056-30.2,50.089-31.694,52.381
					c-0.886,1.362-1.328,1.873-1.54,2.521c-0.146,0.443-0.183,0.95-0.183,1.834v12.839c0,2.406,0.688,2.866,3.79,2.866h58.795
					c1.284,0,2.201-0.109,2.987-0.423c1.181-0.473,2.064-1.411,3.443-3.13c2.296-2.867,30.776-42.868,32.499-45.62
					c1.723-2.75,1.494-2.75,1.494-5.271v-23.957"/>
				<path class="st9" d="M60.144,170.689c0,0,57.704-0.402,61.265-0.402c1.666,0,2.606,0,3.13,0.331
					c0.593,0.373,0.659,1.172,0.659,2.876v14.157"/>
				<path class="st9" d="M116.011,182.494H67.782c-1.423,0-2.584-1.162-2.584-2.579c0-0.711,0.29-1.354,0.759-1.822
					c0.468-0.468,1.115-0.757,1.825-0.757h48.229c1.422,0,2.584,1.159,2.584,2.579c0,0.709-0.29,1.354-0.759,1.822
					C117.367,182.204,116.721,182.494,116.011,182.494z"/>
				<path class="st9" d="M150.652,117.881c0.322-0.528,0.591-0.972,0.786-1.293c1.379-2.292-0.115-2.981-3.102-2.981h-40.649
					c-4.71,0-6.052,0.823-8.04,4.24c-2.067,3.554-5.359,9.19-6.508,11.482c-1.147,2.292-0.803,3.324,1.952,3.324h0.537
					c4.622,0.013,37.636,0.095,41.802,0.095c4.477,0,4.707-1.147,6.086-3.324C144.701,127.553,148.681,121.111,150.652,117.881z"/>
				<path class="st9" d="M150.289,117.747H109.64c-4.71,0-6.081,0.806-8.041,4.241c-1.952,3.424-4.597,7.706-5.971,10.417"/>
				<path class="st9" d="M110.684,148.924c-0.073-0.22-0.283-0.358-0.603-0.358H99.305c-0.605,0-1.386,0.494-1.735,1.098
					l-2.045,3.534c-0.207,0.358-0.217,0.677-0.066,0.877c0.105,0.139,0.285,0.222,0.532,0.222h10.773
					c0.605,0,1.386-0.495,1.738-1.099l2.042-3.534C110.711,149.379,110.752,149.118,110.684,148.924z"/>
				<path class="st9" d="M110.73,148.909l0.681,1.951c0.073,0.197,0.034,0.463-0.134,0.753l-2.042,3.534
					c-0.352,0.604-1.133,1.098-1.738,1.098H96.724c-0.364,0-0.586-0.178-0.627-0.45l-0.637-1.72v-0.007"/>
				<path class="st9" d="M130.206,148.924c-0.074-0.22-0.283-0.358-0.603-0.358h-10.776c-0.605,0-1.386,0.494-1.735,1.098
					l-2.045,3.534c-0.208,0.358-0.217,0.677-0.066,0.877c0.105,0.139,0.286,0.222,0.532,0.222h10.774
					c0.605,0,1.386-0.495,1.737-1.099l2.043-3.534C130.232,149.379,130.274,149.118,130.206,148.924z"/>
				<path class="st9" d="M130.252,148.909l0.681,1.951c0.073,0.197,0.034,0.463-0.134,0.753l-2.043,3.534
					c-0.351,0.604-1.132,1.098-1.737,1.098h-10.774c-0.364,0-0.586-0.178-0.627-0.45l-0.637-1.72v-0.007"/>
				<path class="st9" d="M91.162,148.924c-0.073-0.22-0.283-0.358-0.603-0.358H79.783c-0.605,0-1.386,0.494-1.735,1.098
					l-2.045,3.534c-0.207,0.358-0.217,0.677-0.066,0.877c0.105,0.139,0.285,0.222,0.532,0.222h10.774
					c0.605,0,1.386-0.495,1.737-1.099l2.042-3.534C91.188,149.379,91.23,149.118,91.162,148.924z"/>
				<path class="st9" d="M91.209,148.909l0.681,1.951c0.073,0.197,0.034,0.463-0.134,0.753l-2.042,3.534
					c-0.351,0.604-1.132,1.098-1.737,1.098H77.201c-0.364,0-0.586-0.178-0.627-0.45l-0.637-1.72v-0.007"/>
				<path class="st9" d="M117.516,138.207c-0.073-0.219-0.283-0.358-0.603-0.358h-10.776c-0.605,0-1.386,0.494-1.735,1.098
					l-2.045,3.534c-0.207,0.358-0.217,0.677-0.065,0.877c0.104,0.139,0.285,0.222,0.532,0.222h10.773
					c0.605,0,1.386-0.495,1.738-1.099l2.042-3.534C117.543,138.662,117.584,138.402,117.516,138.207z"/>
				<path class="st9" d="M117.562,138.192l0.681,1.951c0.074,0.197,0.034,0.463-0.134,0.753l-2.042,3.534
					c-0.352,0.604-1.133,1.098-1.738,1.098h-10.773c-0.364,0-0.586-0.177-0.628-0.45l-0.636-1.72v-0.007"/>
				<path class="st9" d="M137.038,138.207c-0.073-0.219-0.283-0.358-0.603-0.358h-10.776c-0.605,0-1.386,0.494-1.735,1.098
					l-2.045,3.534c-0.207,0.358-0.217,0.677-0.065,0.877c0.104,0.139,0.285,0.222,0.531,0.222h10.774
					c0.605,0,1.386-0.495,1.738-1.099l2.042-3.534C137.065,138.662,137.106,138.402,137.038,138.207z"/>
				<path class="st9" d="M137.085,138.192l0.681,1.951c0.073,0.197,0.034,0.463-0.134,0.753l-2.043,3.534
					c-0.351,0.604-1.132,1.098-1.737,1.098h-10.774c-0.364,0-0.586-0.177-0.627-0.45l-0.637-1.72v-0.007"/>
				<path class="st9" d="M97.995,138.207c-0.073-0.219-0.283-0.358-0.603-0.358H86.616c-0.605,0-1.386,0.494-1.735,1.098
					l-2.045,3.534c-0.207,0.358-0.217,0.677-0.066,0.877c0.105,0.139,0.285,0.222,0.532,0.222h10.774
					c0.605,0,1.386-0.495,1.737-1.099l2.042-3.534C98.021,138.662,98.063,138.402,97.995,138.207z"/>
				<path class="st9" d="M98.041,138.192l0.681,1.951c0.073,0.197,0.034,0.463-0.134,0.753l-2.043,3.534
					c-0.351,0.604-1.132,1.098-1.737,1.098H84.034c-0.364,0-0.586-0.177-0.627-0.45l-0.637-1.72v-0.007"/>
				<path class="st9" d="M103.851,159.884c-0.073-0.219-0.283-0.358-0.603-0.358H92.472c-0.605,0-1.386,0.494-1.735,1.098
					l-2.045,3.535c-0.207,0.358-0.217,0.677-0.066,0.876c0.105,0.139,0.285,0.222,0.532,0.222h10.774
					c0.605,0,1.386-0.494,1.738-1.098l2.042-3.535C103.878,160.34,103.919,160.079,103.851,159.884z"/>
				<path class="st9" d="M103.897,159.869l0.681,1.951c0.073,0.198,0.034,0.463-0.134,0.753l-2.042,3.534
					c-0.352,0.604-1.133,1.099-1.738,1.099H89.891c-0.364,0-0.586-0.178-0.627-0.451l-0.637-1.72v-0.007"/>
				<path class="st9" d="M123.373,159.884c-0.074-0.219-0.283-0.358-0.603-0.358h-10.776c-0.605,0-1.386,0.494-1.735,1.098
					l-2.045,3.535c-0.208,0.358-0.217,0.677-0.066,0.876c0.105,0.139,0.286,0.222,0.532,0.222h10.774
					c0.605,0,1.386-0.494,1.737-1.098l2.043-3.535C123.399,160.34,123.441,160.079,123.373,159.884z"/>
				<path class="st9" d="M123.419,159.869l0.681,1.951c0.073,0.198,0.034,0.463-0.134,0.753l-2.042,3.534
					c-0.352,0.604-1.133,1.099-1.738,1.099h-10.774c-0.363,0-0.585-0.178-0.627-0.451l-0.637-1.72v-0.007"/>
				<path class="st9" d="M84.33,159.884c-0.073-0.219-0.283-0.358-0.603-0.358H72.951c-0.605,0-1.386,0.494-1.735,1.098
					l-2.045,3.535c-0.207,0.358-0.217,0.677-0.066,0.876c0.105,0.139,0.285,0.222,0.532,0.222h10.774
					c0.605,0,1.386-0.494,1.738-1.098l2.042-3.535C84.356,160.34,84.398,160.079,84.33,159.884z"/>
				<path class="st9" d="M84.376,159.869l0.681,1.951c0.073,0.198,0.034,0.463-0.134,0.753l-2.042,3.534
					c-0.351,0.604-1.132,1.099-1.737,1.099H70.368c-0.364,0-0.586-0.178-0.627-0.451l-0.637-1.72v-0.007"/>
				<path class="st10" d="M2.728,76.3c0-29.574-0.459-76.796-0.517-76.852h27.216v65.161c0,9.799,5.512,12.035,13.092,7.563
					c7.579-4.469,8.978-5.202,12.575-7.134c3.358-1.805,5.254-2.492,7.147-0.774l0.127,0.178c3.123-2.17,5.529-2.694,8.499-0.665
					c0.342,0.234,0.525,0.499,1.013,0.828c2.894-1.895,5.2-2.263,8.016-0.341c3.272,2.236,13.953,9.285,18.431,12.207
					c4.481,2.923,5.154,5.502,5.154,11.348v23.555c0,4.986-1.549,7.909-5.683,7.909c-2.187,0-3.797-0.675-4.827-2.326l-0.183,0.114
					c-0.537,3.276-2.189,5.135-5.483,5.135c-2.916,0-4.802-1.199-5.664-4.314l-0.046,0.012c-0.822,1.233-2.118,1.898-3.999,1.898
					c-3.187,0-5.022-1.569-5.513-5.846l-0.093,0.01c-0.813,0.789-1.935,1.208-3.431,1.208c-3.77,0-5.654-2.195-5.654-8.467v-1.008
					l-24.463-1.776h-9.99C22.823,103.922,2.728,105.871,2.728,76.3z"/>
				<path class="st9" d="M92.787,117.07c-0.537,3.276-2.189,5.135-5.483,5.135c-2.916,0-4.802-1.199-5.664-4.314
					c-0.359-1.303-0.539-2.942-0.539-4.971V93.578c0-3.87-0.344-3.87-3.531-5.933c-3.187-2.063-8.438-5.5-8.438-5.5"/>
				<path class="st9" d="M81.593,117.903c-0.822,1.233-2.118,1.898-3.999,1.898c-3.187,0-5.022-1.569-5.513-5.846
					c-0.09-0.777-0.134-1.644-0.134-2.609v-5.818"/>
				<path class="st9" d="M71.989,113.965c-0.813,0.789-1.935,1.208-3.431,1.208c-3.77,0-5.654-2.195-5.654-8.467v-1.008
					l-24.463-1.776h-9.99c-5.627,0-25.723,1.949-25.723-27.622c0-29.571-0.459-76.796-0.517-76.852h27.216v65.161
					c0,9.799,5.512,12.035,13.092,7.563c7.579-4.469,8.978-5.202,12.575-7.134c3.358-1.805,5.254-2.492,7.147-0.774"/>
				<path class="st9" d="M79.536,79.737c0,0,5.686,3.782,8.958,5.845c3.272,2.063,3.099,3.096,3.099,7.909v16.506
					c0,3.239,0.459,5.485,1.376,6.959c1.03,1.651,2.64,2.326,4.827,2.326c4.134,0,5.684-2.923,5.684-7.909V87.818
					c0-5.846-0.674-8.425-5.154-11.348c-4.478-2.923-15.159-9.972-18.431-12.207c-2.816-1.922-5.122-1.554-8.016,0.341
					c-0.468,0.304-0.952,0.653-1.457,1.035"/>
				<path class="st9" d="M71.887,64.609c0,0-0.005-0.002-0.007-0.005c-0.488-0.329-0.671-0.594-1.013-0.828
					c-2.97-2.029-5.376-1.505-8.499,0.665c-0.317,0.222-0.639,0.458-0.974,0.711"/>
				<path class="st11" d="M99.918,102.517c0.337,0.519,1.039,0.667,1.562,0.331l4.648-3.005c0.52-0.336,0.671-1.035,0.332-1.556
					l-1.957-3.015c-0.337-0.519-1.04-0.672-1.559-0.334l-4.649,3.006c-0.52,0.336-0.671,1.04-0.334,1.559L99.918,102.517z
					 M140.631,63.31l17.384,26.775c0.873,1.347,0.485,3.164-0.864,4.036l-46.713,30.217c-1.35,0.872-3.17,0.485-4.044-0.862
					L89.01,96.701c-0.874-1.347-0.486-3.164,0.864-4.036l46.713-30.217C137.937,61.576,139.757,61.964,140.631,63.31z"/>
				<path class="st12" d="M102.944,94.937c0.52-0.336,1.222-0.185,1.559,0.334l1.957,3.015c0.337,0.519,0.188,1.22-0.332,1.556
					l-4.648,3.005c-0.52,0.336-1.223,0.19-1.562-0.331l-1.957-3.015c-0.337-0.519-0.188-1.223,0.334-1.559L102.944,94.937z"/>
				<path class="st9" d="M136.586,62.435l-46.71,30.219c-1.355,0.877-1.741,2.683-0.863,4.036l17.387,26.774
					c0.878,1.353,2.688,1.738,4.043,0.862l46.711-30.219c1.354-0.876,1.741-2.683,0.863-4.036L140.63,63.296
					C139.751,61.944,137.941,61.558,136.586,62.435z"/>
				<path class="st9" d="M101.48,102.848l4.648-3.005c0.52-0.336,0.671-1.035,0.332-1.556l-1.957-3.015
					c-0.337-0.519-1.04-0.672-1.559-0.334l-4.649,3.006c-0.52,0.336-0.671,1.04-0.334,1.559l1.957,3.015
					C100.255,103.036,100.957,103.184,101.48,102.848z"/>
				<path class="st10" d="M112.021,102.517c2.326,4.384,1.12,8.683-3.101,9.886c-4.22,1.204-7.665-4.04-12.746-3.351
					c-5.08,0.687-8.785,4.126-16.364,4.126c-7.579,0-10.508-3.266-10.508-3.266s-3.616,3.524-19.637,3.524
					c-13.924,0-20.105-7.146-21.484-9.014l9.253-12.563L60.432,77.33l11.964,1.663c-0.056,0.046-0.11,0.093-0.166,0.141
					c-2.24,1.978-1,0.896-3.704,3.354c-3.875,3.524-1.227,9.053,1.982,11.776c3.446,2.923,5.686,4.986,12.145,4.986
					s12.316-0.687,16.191-0.687S109.696,98.133,112.021,102.517z"/>
				<path class="st9" d="M79.637,79.824c-2.941-2.014-5.015-2.677-7.24-0.831c-0.056,0.046-0.11,0.093-0.166,0.141
					c-2.24,1.978-1,0.896-3.704,3.354c-3.875,3.524-1.227,9.053,1.981,11.776c3.446,2.923,5.686,4.986,12.145,4.986
					c6.459,0,12.316-0.687,16.191-0.687c3.875,0,10.851-0.431,13.177,3.953c2.326,4.384,1.12,8.683-3.101,9.886
					c-4.22,1.204-7.665-4.04-12.746-3.351c-5.081,0.687-8.785,4.126-16.364,4.126c-7.579,0-10.508-3.266-10.508-3.266
					s-3.616,3.524-19.637,3.524c-13.924,0-20.105-7.146-21.484-9.014c-0.207-0.283-0.305-0.443-0.305-0.443"/>
				<path class="st13" d="M25.444,149.888l7.006,8.922l-2.428-7.611L25.444,149.888z"/>
				<path class="st14" d="M30.021,151.199l2.428,7.611l2.699-7.616L30.021,151.199z"/>
				<path class="st13" d="M32.45,158.81l7.072-8.895l-4.373,1.279L32.45,158.81z"/>
				<path class="st15" d="M38.236,147.109l-2.45-0.964l2.389,0.988L38.236,147.109z"/>
				<path class="st15" d="M30.153,148.383l2.24,2.638l2.587-2.67h-0.063l-0.173,0.064L30.153,148.383z"/>
				<path class="st15" d="M26.822,147.504l2.26-1.433l6.506-0.004l0.198,0.078l-0.256-0.108l-6.506,0.008l-2.37,1.481
					L26.822,147.504z"/>
				<path class="st13" d="M39.521,149.915l-1.325-2.774l-11.51,0.377l-1.191,2.324l7.123,1.286L39.521,149.915z"/>
				<path class="st14" d="M32.394,151.021l-2.24-2.638l-0.042-0.003l-0.037-0.009l-4.339,1.437l4.339-1.437l-4.632,1.517
					l4.578,1.311l5.127-0.005l4.373-1.279l-4.541-1.564L32.394,151.021z"/>
				<path class="st15" d="M34.917,148.351h0.063l3.216-1.21l-0.022-0.008L34.917,148.351z"/>
				<path class="st15" d="M30.075,148.371l0.037,0.009l0.041,0.003l-0.024-0.029L30.075,148.371z"/>
				<path class="st15" d="M29.004,148.086l1.071,0.285l0.054-0.017L29.004,148.086z"/>
				<path class="st13" d="M29.082,146.071l-2.26,1.433l2.181,0.582l1.125,0.268l4.788-0.003l3.258-1.218l-2.389-0.988l-0.198-0.078
					L29.082,146.071z"/>
				<path class="st5" d="M23.626,105.269l-0.005,4.872h-0.322h-2.064h-0.127l-0.005-4.872h0.132h2.064H23.626z"/>
				<path class="st5" d="M23.617,119.883l-0.003,4.872h-0.315h-2.064h-0.112l-0.005-4.872h0.117h2.064H23.617z"/>
				<path class="st5" d="M23.299,105.269h-2.196v-1.519c0,0,1.13,0.229,2.523,0.229v1.29H23.299z"/>
				<path class="st5" d="M23.618,115.012l-0.002,4.871h-0.317h-2.064h-0.117l-0.005-4.871h0.122h2.064H23.618z"/>
				<path class="st5" d="M23.621,110.141l-0.002,4.871h-0.32h-2.064h-0.122l-0.005-4.871h0.127h2.064H23.621z"/>
				<path class="st5" d="M41.6,76.042h0.29v4.871h-2.426v-4.871H41.6z"/>
				<path class="st5" d="M41.891,85.784v4.871H41.6h-2.064h-0.071v-4.871h0.071H41.6H41.891z"/>
				<path class="st5" d="M41.054,136.387l0.115,0.044c-0.734,1.854-1.989,3.447-3.582,4.601l-0.063-0.088l-1.293-1.977l-0.005-0.005
					c1.293-0.918,2.272-2.239,2.801-3.793l0.046,0.015L41.054,136.387z"/>
				<path class="st5" d="M24.097,135.204l-0.183,0.065l-1.982,0.948l-0.141,0.051c-0.427-1.128-0.661-2.348-0.661-3.622v-3.02h0.105
					h2.377v2.859C23.611,133.44,23.779,134.356,24.097,135.204z"/>
				<path class="st5" d="M29.338,140.087l0.205,0.078c-0.593,0.638-0.979,1.469-1.052,2.389h-0.007
					c-1.074-0.328-2.074-0.828-2.972-1.471l0.039-0.053l1.376-1.978l0.066-0.093C27.699,139.456,28.489,139.841,29.338,140.087z"/>
				<path class="st5" d="M41.891,119.883v4.872H41.6h-2.064h-0.071v-4.872h0.071H41.6H41.891z"/>
				<path class="st5" d="M41.891,90.656v4.871H41.6h-2.064h-0.071v-4.871h0.071H41.6H41.891z"/>
				<path class="st5" d="M41.891,80.913v4.871H41.6h-2.064h-0.071v-4.871h0.071H41.6H41.891z"/>
				<path class="st5" d="M41.891,100.398v4.871H41.6h-2.064h-0.071v-4.871h0.071H41.6H41.891z"/>
				<path class="st5" d="M41.891,110.141v4.871H41.6h-2.064h-0.071v-4.871h0.071H41.6H41.891z"/>
				<path class="st5" d="M41.891,95.527v4.871H41.6h-2.064h-0.071v-4.871h0.071H41.6H41.891z"/>
				<path class="st5" d="M32.353,140.326c0.915-0.059,1.774-0.273,2.557-0.616c0.466-0.205,0.908-0.456,1.315-0.748l0.005,0.005
					l1.293,1.977l0.063,0.088c-0.4,0.29-0.82,0.553-1.259,0.784c-0.434,0.229-0.886,0.427-1.352,0.595
					c-0.854,0.304-1.757,0.499-2.694,0.57l-0.012-0.232l-0.088-2.321l-0.01-0.066c0.058-0.007,0.119-0.012,0.181-0.017V140.326z"/>
				<path class="st5" d="M26.994,138.959l-0.066,0.093l-1.376,1.978l-0.039,0.053c-1.677-1.188-2.989-2.864-3.721-4.815l0.142-0.051
					l1.981-0.948l0.183-0.065C24.658,136.731,25.681,138.039,26.994,138.959z"/>
				<path class="st5" d="M41.891,105.269v4.872H41.6h-2.064h-0.071v-4.872h0.071H41.6H41.891z"/>
				<path class="st5" d="M41.891,124.755v4.871H41.6h-2.064h-0.071v-4.871h0.071H41.6H41.891z"/>
				<path class="st5" d="M32.269,142.749l0.012,0.232c-0.254,0.017-0.513,0.026-0.771,0.026c-0.305,0-0.552-0.017-0.793-0.046
					c-0.244-0.032-0.483-0.073-0.774-0.127c0.022-1.278,0.991-2.321,2.228-2.472l0.01,0.066L32.269,142.749z"/>
				<path class="st16" d="M35.025,142.917c0-0.163-0.01-0.324-0.039-0.48l-0.01-0.026c0.466-0.168,0.917-0.366,1.352-0.595
					l0.034,0.064c0.088,0.338,0.132,0.694,0.127,1.059c-0.034,2.209-1.855,3.97-4.068,3.936c-2.211-0.034-3.975-1.851-3.941-4.06
					c0.002-0.088,0.005-0.175,0.012-0.261c0.073-0.92,0.459-1.751,1.052-2.389c0.744-0.804,1.818-1.303,3.001-1.284
					c0.888,0.015,1.701,0.315,2.357,0.811l0.007,0.018c-0.783,0.343-1.642,0.557-2.557,0.616v0.019
					c-0.061,0.005-0.122,0.01-0.181,0.017c-1.237,0.151-2.206,1.194-2.228,2.472v0.005c-0.022,1.401,1.098,2.553,2.501,2.575
					C33.848,145.436,35.003,144.318,35.025,142.917z"/>
				<path class="st5" d="M41.891,73.433v2.609h-2.426v-1.198c0.071,0.068,0.01-0.034,0.01-1.639c0-1.605,0.803-1.776,1.205-1.776
					C41.771,71.428,41.891,72.517,41.891,73.433z"/>
				<path class="st5" d="M41.891,129.626v3.02c0,1.335-0.256,2.611-0.722,3.785l-0.115-0.044l-1.981-1.203l-0.046-0.015
					c0.285-0.837,0.439-1.741,0.439-2.684v-2.859H41.891z"/>
				<path class="st5" d="M41.891,115.012v4.871H41.6h-2.064h-0.071v-4.871h0.071H41.6H41.891z"/>
				<path class="st17" d="M39.073,135.184l1.981,1.203"/>
				<path class="st17" d="M36.23,138.967l1.293,1.977"/>
				<path class="st17" d="M32.182,140.428l0.088,2.321"/>
				<path class="st17" d="M26.928,139.052l-1.376,1.978"/>
				<path class="st17" d="M23.914,135.269l-1.982,0.948"/>
				<path class="st17" d="M21.234,124.755h2.064"/>
				<path class="st17" d="M39.536,76.042h2.065"/>
				<path class="st17" d="M39.536,80.913h2.065"/>
				<path class="st17" d="M39.536,85.784h2.065"/>
				<path class="st17" d="M39.536,90.656h2.065"/>
				<path class="st17" d="M39.536,95.527h2.065"/>
				<path class="st17" d="M39.536,100.398h2.065"/>
				<path class="st17" d="M39.536,105.269h2.065"/>
				<path class="st17" d="M39.536,110.141h2.065"/>
				<path class="st17" d="M39.536,115.012h2.065"/>
				<path class="st17" d="M39.536,119.883h2.065"/>
				<path class="st17" d="M39.536,124.755h2.065"/>
				<path class="st17" d="M39.536,129.626h2.065"/>
				<path class="st17" d="M21.234,105.269h2.064"/>
				<path class="st17" d="M21.234,110.141h2.064"/>
				<path class="st17" d="M21.234,115.012h2.064"/>
				<path class="st17" d="M21.234,119.883h2.064"/>
				<path class="st17" d="M21.234,129.626h2.064"/>
				<path class="st9" d="M31.837,140.343c0.173,0,0.346-0.005,0.515-0.017c0.915-0.059,1.774-0.273,2.557-0.616
					c0.466-0.205,0.908-0.456,1.315-0.748c1.293-0.918,2.272-2.239,2.801-3.792c0.285-0.838,0.439-1.742,0.439-2.685V74.843
					c0.071,0.068,0.01-0.034,0.01-1.639c0-1.605,0.803-1.776,1.206-1.776c1.091,0,1.21,1.089,1.21,2.005v59.213
					c0,1.335-0.256,2.611-0.722,3.785c-0.735,1.854-1.989,3.447-3.582,4.601c-0.4,0.29-0.82,0.553-1.259,0.784
					c-0.434,0.229-0.886,0.427-1.352,0.595c-0.854,0.304-1.757,0.499-2.694,0.57c-0.254,0.017-0.513,0.026-0.771,0.026
					c-0.305,0-0.552-0.017-0.793-0.046c-0.244-0.031-0.483-0.073-0.774-0.126"/>
				<path class="st9" d="M28.485,142.554c-1.074-0.328-2.074-0.828-2.972-1.471c-1.676-1.188-2.989-2.864-3.721-4.815
					c-0.427-1.128-0.661-2.348-0.661-3.622v-3.02l-0.007-4.871l-0.005-4.872l-0.005-4.871l-0.005-4.871l-0.005-4.872v-1.519
					c0,0,1.13,0.229,2.523,0.229v1.29l-0.005,4.872v4.871l-0.005,4.871v4.872l-0.005,4.871v2.859c0,0.955,0.168,1.871,0.486,2.719
					c0.561,1.527,1.584,2.835,2.896,3.755c0.705,0.497,1.496,0.882,2.345,1.128"/>
				<path class="st9" d="M34.985,142.438c0.029,0.155,0.042,0.316,0.039,0.479c-0.022,1.401-1.176,2.519-2.579,2.497
					c-1.403-0.022-2.523-1.174-2.501-2.575v-0.004c0.022-1.279,0.991-2.322,2.228-2.473c0.059-0.007,0.12-0.012,0.181-0.017
					c0.056-0.002,0.115-0.002,0.171-0.002"/>
				<path class="st9" d="M36.362,141.88c0.088,0.338,0.132,0.694,0.127,1.059c-0.034,2.209-1.855,3.97-4.068,3.936
					c-2.211-0.034-3.975-1.851-3.941-4.06c0.002-0.088,0.005-0.175,0.012-0.261c0.073-0.92,0.459-1.751,1.052-2.389
					c0.744-0.804,1.818-1.303,3.001-1.284c0.888,0.015,1.701,0.315,2.357,0.811"/>
				<path class="st16" d="M32.013,116.861c0.051-0.721,0.888-0.962,1.806-0.962h3.875c1.035,0,1.723,0.231,1.723,1.261h0.056
					c0.002,0.512,0.002,1.101,0.002,1.776c0,0.407-0.017,0.808-0.051,1.203c-0.015-0.891-0.849-1.193-1.815-1.288
					c-1.03-0.098-2.916-0.278-3.858-0.368c-0.944-0.09-1.684-0.234-1.969,0.799l-0.044-0.008c0.132-0.667,0.212-1.463,0.249-2.416
					h0.027V116.861z"/>
				<path class="st16" d="M39.414,114.574h0.039c0.01,0.509,0.017,1.315,0.02,2.586h-0.056c0-1.03-0.688-1.261-1.723-1.261h-3.875
					c-0.917,0-1.755,0.241-1.806,0.962h-0.027c0.017-0.424,0.024-0.877,0.024-1.362v-1.003c0-0.775,0.861-1.033,1.808-1.033h3.875
					C38.697,113.463,39.373,113.626,39.414,114.574z"/>
				<path class="st16" d="M39.453,114.574h-0.039c-0.042-0.948-0.717-1.111-1.72-1.111h-3.875c-0.947,0-1.808,0.258-1.808,1.033
					v-2.436c0-0.774,0.861-1.033,1.808-1.033h3.875c1.035,0,1.723,0.173,1.723,1.206v1.547
					C39.417,113.78,39.439,113.461,39.453,114.574z"/>
				<path class="st16" d="M39.417,109.797v2.436c0-1.033-0.688-1.206-1.723-1.206h-3.875c-0.947,0-1.808,0.259-1.808,1.033v-2.436
					c0-0.774,0.861-1.032,1.808-1.032h3.875C38.729,108.592,39.417,108.765,39.417,109.797z"/>
				<path class="st16" d="M39.417,107.362v2.435c0-1.032-0.688-1.205-1.723-1.205h-3.875c-0.947,0-1.808,0.258-1.808,1.032v-2.435
					c0-0.775,0.861-1.033,1.808-1.033h3.875C38.729,106.156,39.417,106.329,39.417,107.362z"/>
				<path class="st16" d="M39.417,104.926v2.436c0-1.033-0.688-1.206-1.723-1.206h-3.875c-0.947,0-1.808,0.258-1.808,1.033v-2.436
					c0-0.774,0.861-1.033,1.808-1.033h3.875C38.729,103.72,39.417,103.893,39.417,104.926z"/>
				<path class="st16" d="M39.417,102.49v2.436c0-1.033-0.688-1.206-1.723-1.206h-3.875c-0.947,0-1.808,0.258-1.808,1.033v-2.436
					c0-0.774,0.861-1.032,1.808-1.032h3.875C38.729,101.285,39.417,101.458,39.417,102.49z"/>
				<path class="st16" d="M39.417,100.055v2.435c0-1.032-0.688-1.205-1.723-1.205h-3.875c-0.947,0-1.808,0.258-1.808,1.032v-2.435
					c0-0.774,0.861-1.033,1.808-1.033h3.875C38.729,98.849,39.417,99.022,39.417,100.055z"/>
				<path class="st16" d="M39.417,97.619v2.436c0-1.033-0.688-1.206-1.723-1.206h-3.875c-0.947,0-1.808,0.258-1.808,1.033v-2.436
					c0-0.774,0.861-1.033,1.808-1.033h3.875C38.729,96.413,39.417,96.586,39.417,97.619z"/>
				<path class="st16" d="M39.417,95.183v2.436c0-1.033-0.688-1.206-1.723-1.206h-3.875c-0.947,0-1.808,0.258-1.808,1.033V95.01
					c0-0.774,0.861-1.033,1.808-1.033h3.875C38.729,93.978,39.417,94.151,39.417,95.183z"/>
				<path class="st16" d="M39.417,92.748v2.436c0-1.033-0.688-1.206-1.723-1.206h-3.875c-0.947,0-1.808,0.258-1.808,1.033v-2.436
					c0-0.775,0.861-1.033,1.808-1.033h3.875C38.729,91.542,39.417,91.715,39.417,92.748z"/>
				<path class="st16" d="M39.417,90.312v2.436c0-1.033-0.688-1.206-1.723-1.206h-3.875c-0.947,0-1.808,0.258-1.808,1.033v-2.436
					c0-0.775,0.861-1.033,1.808-1.033h3.875C38.729,89.106,39.417,89.279,39.417,90.312z"/>
				<path class="st16" d="M39.417,87.876v2.436c0-1.033-0.688-1.206-1.723-1.206h-3.875c-0.947,0-1.808,0.258-1.808,1.033v-2.436
					c0-0.774,0.861-1.033,1.808-1.033h3.875C38.729,86.671,39.417,86.844,39.417,87.876z"/>
				<path class="st16" d="M39.417,85.441v2.436c0-1.033-0.688-1.206-1.723-1.206h-3.875c-0.947,0-1.808,0.258-1.808,1.033v-2.436
					c0-0.774,0.861-1.033,1.808-1.033h3.875C38.729,84.235,39.417,84.408,39.417,85.441z"/>
				<path class="st16" d="M39.417,83.005v2.436c0-1.033-0.688-1.206-1.723-1.206h-3.875c-0.947,0-1.808,0.258-1.808,1.033v-2.436
					c0-0.775,0.861-1.033,1.808-1.033h3.875C38.729,81.799,39.417,81.972,39.417,83.005z"/>
				<path class="st16" d="M39.417,80.569v2.436c0-1.033-0.688-1.206-1.723-1.206h-3.875c-0.947,0-1.808,0.258-1.808,1.033v-2.436
					c0-0.775,0.861-1.033,1.808-1.033h3.875C38.729,79.364,39.417,79.537,39.417,80.569z"/>
				<path class="st16" d="M39.417,78.134v2.436c0-1.033-0.688-1.206-1.723-1.206h-3.875c-0.947,0-1.808,0.258-1.808,1.033v-2.436
					c0-0.774,0.861-1.033,1.808-1.033h3.875C38.729,76.928,39.417,77.101,39.417,78.134z"/>
				<path class="st16" d="M39.417,75.698v2.436c0-1.033-0.688-1.206-1.723-1.206h-3.875c-0.947,0-1.808,0.258-1.808,1.033v-2.436
					c0-0.774,0.861-1.033,1.808-1.033h3.875C38.729,74.493,39.417,74.665,39.417,75.698z"/>
				<path class="st16" d="M39.417,74.064v1.634c0-1.033-0.688-1.206-1.723-1.206h-3.875c-0.947,0-1.808,0.258-1.808,1.033v-1.461
					c0-1.135,0.93-2.063,2.067-2.063h3.272C38.487,72.001,39.417,72.929,39.417,74.064z"/>
				<path class="st16" d="M39.424,120.139c-0.098,1.125-0.334,2.197-0.722,3.188l-0.088-0.034c0-0.516-0.63-0.93-1.608-1.261
					c-0.979-0.332-2.887-1.104-3.785-1.406c-0.849-0.287-1.642-0.26-2.111,0.48l-0.037-0.024c0.295-0.458,0.512-1.048,0.664-1.808
					l0.044,0.008c0.285-1.033,1.025-0.889,1.969-0.799c0.942,0.09,2.828,0.27,3.858,0.368
					C38.575,118.946,39.409,119.248,39.424,120.139z"/>
				<path class="st16" d="M31.11,121.106c0.469-0.74,1.262-0.767,2.111-0.48c0.898,0.302,2.806,1.074,3.785,1.406
					c0.979,0.331,1.608,0.745,1.608,1.261l0.088,0.034c-0.386,0.994-0.925,1.907-1.623,2.714l-0.176-0.071
					c0,0-3.873-3.753-4.278-4.068c-0.405-0.316-1.005-0.518-1.703-0.25l-0.3-0.027c0.166-0.156,0.317-0.336,0.451-0.543
					L31.11,121.106z"/>
				<path class="st16" d="M36.903,125.97l0.176,0.071c-0.776,0.896-1.75,1.661-2.936,2.26l-0.029-0.056c0,0-2.287-4.881-2.552-5.32
					c-0.266-0.438-0.754-0.84-1.503-0.835l-0.027-0.054c0.217-0.112,0.412-0.248,0.591-0.411l0.3,0.027
					c0.698-0.268,1.298-0.066,1.703,0.25C33.031,122.217,36.903,125.97,36.903,125.97z"/>
				<path class="st16" d="M34.114,128.245l0.029,0.056c-1.144,0.58-2.484,1.006-4.036,1.245l-0.02-0.122v-4.806
					c0-1.147-0.403-2.15-1.437-2.15v-0.018c0.532-0.075,0.991-0.207,1.381-0.414l0.027,0.054c0.749-0.005,1.237,0.397,1.503,0.835
					C31.828,123.364,34.114,128.245,34.114,128.245z"/>
				<path class="st16" d="M31.781,64.377v3.269c0,1.135-0.691,2.233-1.723,3.381l-0.525,0.512l-0.051-0.054V66.07
					c0-1.147-0.4-2.151-1.435-2.151l-0.027-0.029l1.694-1.576C30.849,62.314,31.781,63.245,31.781,64.377z"/>
				<path class="st16" d="M31.781,32.714v3.269c0,1.118-0.671,2.202-1.681,3.332l-0.042-0.037l-0.576,0.543v-5.414
					c0-1.147-0.4-2.151-1.435-2.151l-0.159-0.166l1.479-1.41l0.347-0.029C30.849,30.651,31.781,31.581,31.781,32.714z"/>
				<path class="st16" d="M31.781,1.294v3.269c0,1.118-0.671,2.202-1.681,3.332l-0.042-0.037l-0.576,0.543V2.987
					c0-1.147-0.4-2.151-1.435-2.151L27.889,0.67l1.479-1.41l0.347-0.029C30.849-0.769,31.781,0.161,31.781,1.294z"/>
				<path class="st16" d="M30.088,129.424l0.02,0.122c-0.788,0.121-1.633,0.194-2.533,0.216l-0.005-0.165v-4.901
					c0-1.145-0.403-2.148-1.435-2.148v-0.012c0.281,0.009,0.573,0.012,0.881,0.012c0.61,0,1.152-0.027,1.632-0.097v0.017
					c1.037,0,1.44,1.003,1.44,2.15V129.424z"/>
				<path class="st16" d="M29.483,71.484l0.051,0.054l-2.347,2.287l-0.144-0.149v-5.414c0-1.147-0.285-2.022-1.32-2.022
					l-0.105-0.112l2.404-2.238l0.027,0.029c1.035,0,1.435,1.003,1.435,2.151V71.484z"/>
				<path class="st16" d="M29.483,8.401l-2.382,2.253l-0.059-0.061V5.179c0-1.147-0.285-2.022-1.32-2.022l-0.21-0.219l2.377-2.268
					l0.159,0.166c1.035,0,1.435,1.003,1.435,2.151V8.401z"/>
				<path class="st16" d="M29.483,39.821l-2.382,2.253l-0.059-0.061v-5.415c0-1.147-0.285-2.022-1.32-2.022l-0.21-0.219l2.377-2.268
					l0.159,0.166c1.035,0,1.435,1.004,1.435,2.151V39.821z"/>
				<path class="st16" d="M27.569,129.597l0.005,0.165c-0.183,0.005-0.371,0.008-0.559,0.008c-1.003,0-1.95-0.054-2.84-0.159
					l0.034-0.292c0,0,0.632-3.356,0.776-5.005c0.093-1.05-0.449-1.834-1.279-2.061l0.01-0.034c0.664,0.207,1.464,0.29,2.418,0.317
					v0.012c1.032,0,1.435,1.003,1.435,2.148V129.597z"/>
				<path class="st16" d="M27.042,73.677l0.144,0.149l-2.47,2.406l-0.115-0.119v-5.414c0-1.147-0.4-2.151-1.435-2.151l-0.068-0.071
					l2.518-2.348l0.105,0.112c1.035,0,1.32,0.874,1.32,2.022V73.677z"/>
				<path class="st16" d="M27.042,10.593l0.059,0.061l-2.499,2.363V7.614c0-1.147-0.4-2.151-1.435-2.151L23.021,5.31l2.491-2.372
					l0.21,0.219c1.035,0,1.32,0.874,1.32,2.022V10.593z"/>
				<path class="st16" d="M27.042,42.013l0.059,0.061l-2.499,2.363v-5.402c0-1.147-0.4-2.151-1.435-2.151l-0.146-0.153l2.491-2.372
					l0.21,0.219c1.035,0,1.32,0.874,1.32,2.022V42.013z"/>
				<path class="st16" d="M23.707,122.253c0.83,0.227,1.371,1.011,1.279,2.061c-0.144,1.649-0.776,5.005-0.776,5.005l-0.034,0.292
					c-1.486-0.173-2.818-0.487-3.995-0.93h0.002c0.515-0.002,0.874-0.343,1.205-1.32c0.332-0.977,1.103-2.879,1.408-3.775
					c0.266-0.787,0.264-1.525-0.327-2.003l0.015-0.017c0.344,0.298,0.752,0.507,1.232,0.653L23.707,122.253z"/>
				<path class="st16" d="M24.602,76.112l0.115,0.119l-2.221,2.165l-0.09-0.093V72.89c0-1.147-0.4-2.151-1.435-2.151l-0.139-0.151
					l2.267-2.112l0.068,0.071c1.035,0,1.435,1.004,1.435,2.151V76.112z"/>
				<path class="st16" d="M24.602,39.034v5.402l-2.13,2.014l-0.066-0.068v-5.156c0-1.147-0.4-2.151-1.435-2.151l-0.195-0.205
					l2.245-2.141l0.146,0.153C24.202,36.883,24.602,37.887,24.602,39.034z"/>
				<path class="st16" d="M24.602,7.614v5.402l-2.13,2.014l-0.066-0.068V9.806c0-1.147-0.4-2.151-1.435-2.151l-0.195-0.205
					l2.245-2.141l0.146,0.153C24.202,5.464,24.602,6.467,24.602,7.614z"/>
				<path class="st16" d="M22.469,121.583c0.59,0.478,0.593,1.216,0.327,2.003c-0.305,0.896-1.076,2.798-1.408,3.775
					c-0.332,0.976-0.691,1.317-1.205,1.317H20.18c-1.115-0.414-2.091-0.945-2.926-1.578l0.285-0.024c0,0,3.663-3.683,3.978-4.087
					c0.293-0.373,0.488-0.911,0.305-1.54l0.403-0.134c0.081,0.091,0.166,0.176,0.259,0.251L22.469,121.583z"/>
				<path class="st16" d="M22.406,78.304l0.09,0.092l-2.084,2.029c-0.071,0.068-0.144,0.134-0.215,0.197l-0.232-0.127v-5.414
					c0-1.147-0.4-2.151-1.435-2.151l-0.1-0.107l2.401-2.236l0.139,0.151c1.035,0,1.435,1.004,1.435,2.151V78.304z"/>
				<path class="st16" d="M22.406,14.963l0.066,0.068l-2.506,2.37v-5.402c0-1.147-0.4-2.151-1.435-2.151l-0.127-0.134l2.372-2.263
					l0.195,0.205c1.035,0,1.435,1.003,1.435,2.151V14.963z"/>
				<path class="st16" d="M22.406,46.383l0.066,0.068l-2.506,2.37v-5.402c0-1.147-0.4-2.151-1.435-2.151l-0.127-0.134l2.372-2.263
					l0.195,0.205c1.035,0,1.435,1.004,1.435,2.151V46.383z"/>
				<path class="st16" d="M21.823,121.449c0.183,0.629-0.012,1.167-0.305,1.54c-0.315,0.404-3.978,4.087-3.978,4.087l-0.286,0.024
					c-1.076-0.823-1.918-1.814-2.513-2.952l0.1-0.053c0,0,0.347,0.401,1.008,0.058c1.337-0.689,4.307-2.022,4.644-2.226
					c0.422-0.256,0.81-0.716,0.835-1.415l0.373,0.012c0.151,0.307,0.324,0.567,0.525,0.791L21.823,121.449z"/>
				<path class="st16" d="M21.327,120.512c-0.024,0.699-0.412,1.159-0.835,1.415c-0.337,0.204-3.306,1.537-4.644,2.226
					c-0.661,0.343-1.008-0.058-1.008-0.058l-0.1,0.053c-0.617-1.179-0.974-2.513-1.059-3.975l0.063-0.005
					c0.112,1.026,0.832,1.121,1.884,1.006c1.052-0.114,2.982-0.324,3.946-0.431c0.964-0.105,1.813-0.455,1.728-1.225l0.037-0.01
					c0.098,0.385,0.22,0.721,0.361,1.016L21.327,120.512z"/>
				<path class="st16" d="M21.34,119.508l-0.037,0.01c0.085,0.77-0.764,1.12-1.728,1.225c-0.964,0.107-2.894,0.317-3.946,0.431
					c-1.052,0.115-1.772,0.02-1.884-1.006l-0.063,0.005c-0.015-0.236-0.022-0.477-0.022-0.721v-1.807
					c0.098,0.831,0.754,0.977,1.698,0.977h3.851c0.942,0,1.796-0.259,1.796-1.031h0.037C21.1,118.334,21.198,118.968,21.34,119.508z
					"/>
				<path class="st16" d="M21.042,117.589h-0.037c0,0.775-0.854,1.033-1.796,1.033h-3.851c-0.944,0-1.601-0.146-1.698-0.977v-2.436
					c0.098,0.831,0.749,0.977,1.689,0.977h3.831c0.937,0,1.789-0.258,1.789-1.03v0.343C20.969,116.279,20.993,116.97,21.042,117.589
					z"/>
				<path class="st16" d="M20.986,103.635c0.027,0.054-0.049,0.11-0.19,0.163c-0.317,0.115-0.971,0.21-1.616,0.21h-3.831
					c-1.02,0-1.701-0.173-1.701-1.203h-0.01v-1.52c0,0,2.594,1.807,7.35,2.323v0.027H20.986z"/>
				<path class="st16" d="M20.969,112.72v2.436c0,0.772-0.852,1.03-1.789,1.03h-3.831c-0.939,0-1.591-0.146-1.689-0.977v-2.452
					c0.088,0.845,0.742,0.993,1.689,0.993h3.831C20.117,113.75,20.969,113.492,20.969,112.72z"/>
				<path class="st16" d="M20.969,110.284v2.436c0,0.772-0.852,1.03-1.789,1.03h-3.831c-0.947,0-1.601-0.148-1.691-0.993
					l-0.005-2.494c0.066,0.896,0.727,1.052,1.696,1.052h3.831C20.117,111.315,20.969,111.057,20.969,110.284z"/>
				<path class="st16" d="M20.969,107.849v2.435c0,0.773-0.852,1.031-1.789,1.031h-3.831c-0.969,0-1.63-0.156-1.696-1.053
					l-0.005-2.567c0.01,1.014,0.688,1.184,1.701,1.184h3.831C20.117,108.879,20.969,108.621,20.969,107.849z"/>
				<path class="st16" d="M20.969,105.413v2.436c0,0.772-0.852,1.03-1.789,1.03h-3.831c-1.013,0-1.691-0.17-1.701-1.184v-0.019
					l-0.005-2.436h0.005c0,1.03,0.681,1.203,1.701,1.203h3.831C20.117,106.443,20.969,106.185,20.969,105.413z"/>
				<path class="st16" d="M20.969,103.808v1.605c0,0.772-0.852,1.03-1.789,1.03h-3.831c-1.02,0-1.701-0.173-1.701-1.203h-0.005
					l-0.005-2.435h0.01c0,1.03,0.681,1.203,1.701,1.203h3.831c0.644,0,1.298-0.095,1.615-0.21L20.969,103.808z"/>
				<path class="st16" d="M16.088,74.865c-0.049,0.012-0.098,0.027-0.144,0.046l-0.039-0.102c0.659-0.273,1.118-0.689,1.75-1.262
					l0.776-0.723l0.1,0.107c1.035,0,1.435,1.004,1.435,2.151v5.414l0.232,0.127c-0.896,0.806-1.733,1.286-2.658,1.568l-0.015-0.046
					v-5.115c0-1.147-0.4-2.151-1.435-2.151v-0.015H16.088z"/>
				<path class="st16" d="M19.965,43.418v5.402l-2.64,2.494l-0.044-0.046v-5.414c0-1.147-0.4-2.151-1.435-2.151l-0.066-0.068
					l2.623-2.501l0.127,0.134C19.565,41.268,19.965,42.271,19.965,43.418z"/>
				<path class="st16" d="M19.965,11.998v5.402l-2.64,2.494l-0.044-0.046v-5.415c0-1.147-0.4-2.151-1.435-2.151l-0.066-0.068
					l2.623-2.501l0.127,0.134C19.565,9.848,19.965,10.851,19.965,11.998z"/>
				<path class="st16" d="M17.526,82.145l0.015,0.046c-0.791,0.243-1.65,0.341-2.665,0.382l-0.005-0.085v-5.144
					c0-0.991,0.322-2.138,1.074-2.433c0.046-0.02,0.095-0.034,0.144-0.046v0.015c1.037,0,1.437,1.004,1.437,2.151V82.145z"/>
				<path class="st16" d="M17.325,19.895l-2.382,2.253l-0.102-0.107v-5.414c0-1.147-0.285-2.022-1.32-2.022l-0.117-0.124
					l2.377-2.265l0.066,0.068c1.035,0,1.435,1.003,1.435,2.151v5.414L17.325,19.895z"/>
				<path class="st16" d="M17.325,51.315l-2.382,2.253l-0.102-0.107v-5.414c0-1.147-0.285-2.022-1.32-2.022L13.404,45.9l2.377-2.265
					l0.066,0.068c1.035,0,1.435,1.004,1.435,2.151v5.414L17.325,51.315z"/>
				<path class="st16" d="M13.77,75.199v-0.005c0.961-0.044,1.61-0.168,2.135-0.385l0.039,0.102
					c-0.752,0.295-1.074,1.442-1.074,2.433v5.144l0.005,0.085c-0.708,0.029-1.493,0.029-2.387,0.029H12.43v-5.259
					C12.43,76.234,12.808,75.26,13.77,75.199z"/>
				<path class="st16" d="M14.841,22.041l0.102,0.107l-2.504,2.37l-0.039-0.041v-5.414c0-1.147-0.4-2.151-1.435-2.151l-0.054-0.056
					l2.492-2.375l0.117,0.124c1.035,0,1.32,0.874,1.32,2.022V22.041z"/>
				<path class="st16" d="M14.841,53.461l0.102,0.107l-2.504,2.37l-0.039-0.041v-5.415c0-1.147-0.4-2.151-1.435-2.151l-0.054-0.056
					l2.492-2.375l0.117,0.124c1.035,0,1.32,0.874,1.32,2.022V53.461z"/>
				<path class="st16" d="M13.77,75.194v0.005c-0.962,0.061-1.34,1.035-1.34,2.146v5.259H9.99v-5.259
					c0-1.069,0.351-2.012,1.235-2.134h1.723C13.245,75.211,13.519,75.206,13.77,75.194z"/>
				<path class="st16" d="M12.401,55.896l0.039,0.042l-2.235,2.112v-5.375c0-1.147-0.4-2.151-1.435-2.151l-0.102-0.107l2.245-2.141
					l0.054,0.056c1.035,0,1.435,1.003,1.435,2.151V55.896z"/>
				<path class="st16" d="M12.401,24.476l0.039,0.041l-2.235,2.112v-5.375c0-1.147-0.4-2.151-1.435-2.151l-0.102-0.107l2.245-2.141
					l0.054,0.056c1.035,0,1.435,1.003,1.435,2.151V24.476z"/>
				<path class="st16" d="M8.785,75.211h2.44c-0.883,0.122-1.235,1.064-1.235,2.134v5.259H7.55v-5.259
					C7.55,76.275,7.901,75.333,8.785,75.211z"/>
				<path class="st16" d="M10.205,52.674v5.375l-2.401,2.27L7.764,60.28v-5.414c0-1.147-0.4-2.151-1.435-2.151l-0.034-0.037
					l2.372-2.263l0.102,0.107C9.804,50.523,10.205,51.527,10.205,52.674z"/>
				<path class="st16" d="M10.205,21.254v5.375l-2.401,2.27l-0.039-0.039v-5.415c0-1.147-0.4-2.151-1.435-2.151l-0.034-0.036
					l2.372-2.263l0.102,0.107C9.804,19.103,10.205,20.107,10.205,21.254z"/>
				<path class="st16" d="M6.344,75.211h2.44c-0.883,0.122-1.235,1.064-1.235,2.134v5.259h-2.44v-5.259
					C5.109,76.275,5.461,75.333,6.344,75.211z"/>
				<path class="st16" d="M7.803,28.899L5.17,31.391l-0.09-0.095v-5.414c0-1.147-0.286-2.151-1.32-2.151L3.73,23.702l2.565-2.443
					l0.034,0.037c1.035,0,1.435,1.003,1.435,2.151v5.414L7.803,28.899z"/>
				<path class="st16" d="M7.803,60.319L5.17,62.811l-0.09-0.095v-5.414c0-1.147-0.286-2.151-1.32-2.151L3.73,55.122l2.565-2.443
					l0.034,0.037c1.035,0,1.435,1.003,1.435,2.151v5.414L7.803,60.319z"/>
				<path class="st16" d="M3.904,75.211h2.44c-0.883,0.122-1.235,1.064-1.235,2.134v5.259H2.957c-0.102,0-0.203-0.007-0.3-0.022
					l0.012-0.093v-5.144C2.669,76.275,3.021,75.333,3.904,75.211z"/>
				<path class="st16" d="M5.08,62.716l0.09,0.095l-2.372,2.241c-0.056,0-0.115-0.003-0.168-0.007l0.01-0.136v-5.415
					c0-1.147-0.085-1.849-1.118-1.849l-0.061-0.041c0.271-0.417,0.608-0.835,0.993-1.264l1.276-1.218l0.029,0.029
					c1.035,0,1.32,1.003,1.32,2.151V62.716z"/>
				<path class="st16" d="M5.08,31.296l0.09,0.095l-2.372,2.241c-0.056,0-0.115-0.002-0.168-0.007l0.01-0.136v-5.414
					c0-1.147-0.085-1.849-1.118-1.849l-0.061-0.041c0.271-0.417,0.608-0.835,0.993-1.264l1.276-1.218l0.029,0.029
					c1.035,0,1.32,1.003,1.32,2.151V31.296z"/>
				<path class="st16" d="M2.957,75.211h0.947c-0.883,0.122-1.235,1.064-1.235,2.134v5.144l-0.012,0.093
					C1.661,82.435,0.89,81.573,0.89,80.54v-3.266C0.89,76.139,1.82,75.211,2.957,75.211z"/>
				<path class="st16" d="M2.64,59.494v5.415l-0.01,0.136c-1.059-0.085-1.898-0.977-1.898-2.056v-3.266
					c0-0.714,0.271-1.413,0.73-2.119l0.061,0.041C2.555,57.645,2.64,58.347,2.64,59.494z"/>
				<path class="st16" d="M2.64,28.074v5.414l-0.01,0.136c-1.059-0.085-1.898-0.977-1.898-2.056v-3.266
					c0-0.714,0.271-1.413,0.73-2.119l0.061,0.041C2.555,26.225,2.64,26.927,2.64,28.074z"/>
				<path class="st18" d="M28.048,63.919c1.035,0,1.435,1.003,1.435,2.151v5.414"/>
				<path class="st18" d="M25.722,66.241c1.035,0,1.32,0.874,1.32,2.022v5.414"/>
				<path class="st18" d="M23.167,68.547c1.035,0,1.435,1.004,1.435,2.151v5.414"/>
				<path class="st18" d="M20.971,70.739c1.035,0,1.435,1.004,1.435,2.151v5.414"/>
				<path class="st18" d="M18.531,72.931c1.035,0,1.435,1.004,1.435,2.151v5.414"/>
				<path class="st18" d="M16.09,74.88c1.035,0,1.435,1.004,1.435,2.151v5.115"/>
				<path class="st18" d="M4.104,75.196c-0.071,0-0.137,0.005-0.2,0.015c-0.883,0.122-1.235,1.064-1.235,2.134v5.144"/>
				<path class="st18" d="M6.544,75.196c-0.071,0-0.137,0.005-0.2,0.015c-0.883,0.122-1.235,1.064-1.235,2.134v5.144"/>
				<path class="st18" d="M8.985,75.196c-0.071,0-0.137,0.005-0.2,0.015c-0.883,0.122-1.235,1.064-1.235,2.134v5.144"/>
				<path class="st18" d="M11.425,75.196c-0.071,0-0.137,0.005-0.2,0.015c-0.883,0.122-1.235,1.064-1.235,2.134v5.144"/>
				<path class="st18" d="M13.865,75.196c-0.032,0-0.063,0-0.095,0.002c-0.962,0.061-1.34,1.035-1.34,2.146v5.144"/>
				<path class="st18" d="M16.335,74.838c-0.085,0-0.168,0.01-0.246,0.027c-0.049,0.012-0.098,0.027-0.144,0.046
					c-0.752,0.295-1.074,1.442-1.074,2.433v5.144"/>
				<path class="st18" d="M28.048,32.256c1.035,0,1.435,1.004,1.435,2.151v5.414"/>
				<path class="st18" d="M25.722,34.577c1.035,0,1.32,0.874,1.32,2.022v5.414"/>
				<path class="st18" d="M23.167,36.883c1.035,0,1.435,1.004,1.435,2.151v5.415"/>
				<path class="st18" d="M20.971,39.076c1.035,0,1.435,1.004,1.435,2.151v5.156"/>
				<path class="st18" d="M18.531,41.268c1.035,0,1.435,1.003,1.435,2.151v5.414"/>
				<path class="st18" d="M15.847,43.703c1.035,0,1.435,1.004,1.435,2.151v5.414"/>
				<path class="st18" d="M13.521,46.025c1.035,0,1.32,0.874,1.32,2.022v5.415"/>
				<path class="st18" d="M10.966,48.331c1.035,0,1.435,1.003,1.435,2.151v5.415"/>
				<path class="st18" d="M8.77,50.523c1.035,0,1.435,1.003,1.435,2.151v5.414"/>
				<path class="st18" d="M6.33,52.715c1.035,0,1.435,1.003,1.435,2.151v5.414"/>
				<path class="st18" d="M3.76,55.151c1.035,0,1.32,1.003,1.32,2.151v5.414"/>
				<path class="st18" d="M1.522,57.645c1.032,0,1.118,0.701,1.118,1.849v5.415"/>
				<path class="st18" d="M28.048,0.836c1.035,0,1.435,1.003,1.435,2.151v5.414"/>
				<path class="st18" d="M25.722,3.157c1.035,0,1.32,0.874,1.32,2.022v5.414"/>
				<path class="st18" d="M23.167,5.464c1.035,0,1.435,1.003,1.435,2.151v5.414"/>
				<path class="st18" d="M20.971,7.656c1.035,0,1.435,1.003,1.435,2.151v5.156"/>
				<path class="st18" d="M18.531,9.848c1.035,0,1.435,1.004,1.435,2.151v5.414"/>
				<path class="st18" d="M15.847,12.283c1.035,0,1.435,1.003,1.435,2.151v5.415"/>
				<path class="st18" d="M13.521,14.605c1.035,0,1.32,0.874,1.32,2.022v5.415"/>
				<path class="st18" d="M10.966,16.911c1.035,0,1.435,1.003,1.435,2.151v5.414"/>
				<path class="st18" d="M8.77,19.103c1.035,0,1.435,1.003,1.435,2.151v5.414"/>
				<path class="st18" d="M6.33,21.295c1.035,0,1.435,1.003,1.435,2.151v5.415"/>
				<path class="st18" d="M3.76,23.731c1.035,0,1.32,1.003,1.32,2.151v5.414"/>
				<path class="st18" d="M1.522,26.225c1.032,0,1.118,0.701,1.118,1.849v5.414"/>
				<path class="st18" d="M32.011,75.525c0-0.774,0.861-1.033,1.808-1.033h3.875c1.035,0,1.723,0.173,1.723,1.206"/>
				<path class="st18" d="M32.011,77.961c0-0.774,0.861-1.033,1.808-1.033h3.875c1.035,0,1.723,0.173,1.723,1.206"/>
				<path class="st18" d="M32.011,80.396c0-0.775,0.861-1.033,1.808-1.033h3.875c1.035,0,1.723,0.173,1.723,1.206"/>
				<path class="st18" d="M32.011,82.832c0-0.775,0.861-1.033,1.808-1.033h3.875c1.035,0,1.723,0.173,1.723,1.206"/>
				<path class="st18" d="M32.011,85.268c0-0.774,0.861-1.033,1.808-1.033h3.875c1.035,0,1.723,0.173,1.723,1.206"/>
				<path class="st18" d="M32.011,87.703c0-0.774,0.861-1.033,1.808-1.033h3.875c1.035,0,1.723,0.173,1.723,1.206"/>
				<path class="st18" d="M32.011,90.139c0-0.775,0.861-1.033,1.808-1.033h3.875c1.035,0,1.723,0.173,1.723,1.206"/>
				<path class="st18" d="M32.011,92.575c0-0.775,0.861-1.033,1.808-1.033h3.875c1.035,0,1.723,0.173,1.723,1.206"/>
				<path class="st18" d="M32.011,95.01c0-0.774,0.861-1.033,1.808-1.033h3.875c1.035,0,1.723,0.173,1.723,1.206"/>
				<path class="st18" d="M32.011,97.446c0-0.774,0.861-1.033,1.808-1.033h3.875c1.035,0,1.723,0.173,1.723,1.206"/>
				<path class="st18" d="M32.011,99.882c0-0.774,0.861-1.033,1.808-1.033h3.875c1.035,0,1.723,0.173,1.723,1.206"/>
				<path class="st18" d="M32.011,102.317c0-0.774,0.861-1.032,1.808-1.032h3.875c1.035,0,1.723,0.173,1.723,1.205"/>
				<path class="st18" d="M32.011,104.753c0-0.774,0.861-1.033,1.808-1.033h3.875c1.035,0,1.723,0.173,1.723,1.206"/>
				<path class="st18" d="M32.011,107.189c0-0.775,0.861-1.033,1.808-1.033h3.875c1.035,0,1.723,0.173,1.723,1.206"/>
				<path class="st18" d="M32.011,109.624c0-0.774,0.861-1.032,1.808-1.032h3.875c1.035,0,1.723,0.173,1.723,1.205"/>
				<path class="st18" d="M32.011,112.06c0-0.774,0.861-1.033,1.808-1.033h3.875c1.035,0,1.723,0.173,1.723,1.206"/>
				<path class="st18" d="M32.011,114.496c0-0.775,0.861-1.033,1.808-1.033h3.875c1.003,0,1.679,0.163,1.72,1.111
					c0.002,0.031,0.002,0.063,0.002,0.095"/>
				<path class="st18" d="M32.011,116.931c0-0.024,0-0.048,0.002-0.07c0.051-0.721,0.888-0.962,1.806-0.962h3.875
					c1.035,0,1.723,0.231,1.723,1.261"/>
				<path class="st18" d="M31.781,119.282c0.286-1.033,1.025-0.889,1.969-0.799c0.942,0.09,2.828,0.27,3.858,0.368
					c0.966,0.095,1.801,0.397,1.816,1.288c0,0.054-0.002,0.112-0.007,0.173"/>
				<path class="st18" d="M38.614,123.293c0-0.516-0.63-0.93-1.608-1.261c-0.979-0.332-2.887-1.104-3.785-1.406
					c-0.849-0.287-1.642-0.26-2.111,0.48c-0.029,0.039-0.051,0.08-0.076,0.124"/>
				<path class="st18" d="M28.65,122.468c1.035,0,1.437,1.003,1.437,2.15v4.806"/>
				<path class="st18" d="M26.135,122.548c1.032,0,1.435,1.003,1.435,2.148v4.901"/>
				<path class="st18" d="M23.55,122.217c0.054,0.009,0.105,0.022,0.156,0.036c0.83,0.227,1.371,1.011,1.279,2.061
					c-0.144,1.649-0.776,5.005-0.776,5.005"/>
				<path class="st18" d="M30.058,122.09c0.749-0.005,1.237,0.397,1.503,0.835c0.266,0.439,2.552,5.32,2.552,5.32"/>
				<path class="st18" d="M21.005,117.591c0,0.772-0.854,1.031-1.796,1.031h-3.851c-0.944,0-1.601-0.146-1.698-0.977
					c-0.007-0.071-0.012-0.146-0.012-0.227"/>
				<path class="st18" d="M20.969,115.156c0,0.772-0.852,1.03-1.789,1.03h-3.831c-0.939,0-1.591-0.146-1.689-0.977
					c-0.007-0.07-0.012-0.146-0.012-0.226"/>
				<path class="st18" d="M20.969,112.72c0,0.772-0.852,1.03-1.789,1.03h-3.831c-0.947,0-1.601-0.148-1.691-0.993
					c-0.007-0.066-0.01-0.134-0.01-0.21"/>
				<path class="st18" d="M20.969,110.284c0,0.773-0.852,1.031-1.789,1.031h-3.831c-0.969,0-1.63-0.156-1.696-1.052
					c0-0.049-0.005-0.098-0.005-0.151"/>
				<path class="st18" d="M20.969,107.849c0,0.772-0.852,1.03-1.789,1.03h-3.831c-1.013,0-1.691-0.17-1.701-1.184"/>
				<path class="st18" d="M20.969,105.413c0,0.772-0.852,1.03-1.789,1.03h-3.831c-1.02,0-1.701-0.173-1.701-1.203"/>
				<path class="st18" d="M20.986,103.635c0.027,0.054-0.049,0.11-0.19,0.163c-0.317,0.115-0.971,0.21-1.615,0.21h-3.831
					c-1.02,0-1.701-0.173-1.701-1.203"/>
				<path class="st18" d="M30.922,121.652c0.698-0.268,1.298-0.066,1.703,0.25c0.405,0.315,4.278,4.068,4.278,4.068"/>
				<path class="st18" d="M20.183,128.678c0.515,0,0.874-0.34,1.205-1.317c0.332-0.977,1.103-2.879,1.408-3.775
					c0.266-0.787,0.264-1.525-0.327-2.003c-0.081-0.065-0.173-0.126-0.278-0.182"/>
				<path class="st18" d="M21.329,120.426c0,0.03,0,0.056-0.002,0.086c-0.024,0.699-0.412,1.159-0.835,1.415
					c-0.337,0.204-3.306,1.537-4.644,2.226c-0.661,0.343-1.008-0.058-1.008-0.058"/>
				<path class="st18" d="M21.769,121.289c0.022,0.053,0.039,0.107,0.054,0.16c0.183,0.629-0.012,1.167-0.305,1.54
					c-0.315,0.404-3.978,4.087-3.978,4.087"/>
				<path class="st18" d="M21.303,119.518c0.085,0.77-0.764,1.12-1.728,1.225c-0.964,0.107-2.894,0.317-3.946,0.431
					c-1.052,0.115-1.772,0.02-1.884-1.006"/>
				<path class="st9" d="M20.197,80.623c0.071-0.063,0.144-0.129,0.215-0.197l2.084-2.029l2.221-2.165l2.469-2.406l2.347-2.287
					l0.525-0.512c1.032-1.147,1.723-2.246,1.723-3.381v-3.269c0-1.133-0.932-2.063-2.067-2.063l-1.694,1.576l-2.404,2.238
					l-2.518,2.348l-2.267,2.112l-2.401,2.236l-0.776,0.723c-0.632,0.572-1.091,0.989-1.75,1.262
					c-0.525,0.217-1.174,0.341-2.135,0.385c-0.251,0.012-0.525,0.017-0.822,0.017h-9.99c-1.137,0-2.067,0.928-2.067,2.063v3.266
					c0,1.033,0.771,1.895,1.767,2.041c0.098,0.015,0.198,0.022,0.3,0.022h9.532c0.893,0,1.679,0,2.387-0.029
					c1.015-0.041,1.874-0.139,2.665-0.382C18.465,81.909,19.302,81.429,20.197,80.623z"/>
				<path class="st9" d="M13.648,107.676l-0.005-2.436l-0.005-2.435v-1.52c0,0,2.594,1.807,7.35,2.323
					c0.466,0.051,0.954,0.09,1.462,0.112"/>
				<path class="st18" d="M13.648,107.695v-0.019"/>
				<path class="st9" d="M20.969,103.808v11.691c0,0.78,0.024,1.471,0.073,2.09c0.059,0.745,0.156,1.379,0.298,1.919
					c0.098,0.385,0.22,0.721,0.361,1.016c0.151,0.307,0.325,0.567,0.525,0.791c0.08,0.091,0.166,0.176,0.259,0.251
					c0.344,0.298,0.752,0.507,1.232,0.653c0.664,0.207,1.464,0.29,2.418,0.317c0.281,0.009,0.573,0.012,0.881,0.012
					c0.61,0,1.152-0.027,1.633-0.098c0.534-0.075,0.993-0.207,1.384-0.414c0.217-0.112,0.412-0.248,0.59-0.411
					c0.166-0.156,0.317-0.336,0.451-0.543c0.295-0.458,0.512-1.048,0.664-1.808c0.132-0.667,0.212-1.463,0.249-2.416
					c0.017-0.421,0.024-0.874,0.024-1.359V74.064c0-1.135,0.93-2.063,2.067-2.063h3.272c1.137,0,2.067,0.928,2.067,2.063v39.716
					c0,0,0.022-0.32,0.037,0.794c0.01,0.509,0.017,1.315,0.02,2.586c0.002,0.512,0.002,1.101,0.002,1.776
					c0,0.407-0.017,0.808-0.051,1.203c-0.098,1.125-0.334,2.197-0.722,3.188c-0.386,0.994-0.925,1.907-1.623,2.714
					c-0.776,0.896-1.75,1.661-2.936,2.26c-1.145,0.58-2.484,1.006-4.036,1.245c-0.788,0.121-1.632,0.194-2.533,0.216
					c-0.183,0.005-0.371,0.008-0.559,0.008c-1.003,0-1.95-0.054-2.84-0.159c-1.486-0.173-2.819-0.487-3.995-0.93
					c-1.115-0.417-2.091-0.948-2.926-1.581c-1.076-0.823-1.918-1.814-2.513-2.952c-0.617-1.179-0.974-2.513-1.059-3.975
					c-0.015-0.236-0.022-0.477-0.022-0.721v-6.695l-0.007-2.495l-0.005-2.567"/>
				<path class="st9" d="M30.058,39.363c0.015-0.017,0.029-0.032,0.042-0.049c1.01-1.13,1.681-2.214,1.681-3.332v-3.269
					c0-1.133-0.932-2.063-2.067-2.063"/>
				<path class="st9" d="M29.368,30.68l-1.479,1.41l-2.377,2.268l-2.492,2.372l-2.245,2.141l-2.372,2.263l-2.623,2.501L13.404,45.9
					l-2.492,2.375l-2.245,2.141l-2.372,2.263l-2.565,2.443L2.455,56.34c-0.386,0.429-0.722,0.848-0.993,1.264
					c-0.459,0.706-0.73,1.405-0.73,2.119v3.266c0,1.079,0.839,1.97,1.898,2.056c0.054,0.005,0.112,0.007,0.168,0.007l2.372-2.241
					l2.633-2.492l2.401-2.27l2.235-2.112l2.504-2.37l2.382-2.253l2.64-2.494l2.506-2.37l2.13-2.014l2.499-2.363l2.382-2.253
					l0.576-0.543"/>
				<path class="st9" d="M30.058,7.943c0.015-0.017,0.029-0.032,0.042-0.049c1.01-1.13,1.681-2.214,1.681-3.332V1.294
					c0-1.133-0.932-2.063-2.067-2.063"/>
				<path class="st9" d="M29.368-0.74l-1.479,1.41l-2.377,2.268L23.021,5.31l-2.245,2.141l-2.372,2.263l-2.623,2.501l-2.377,2.265
					l-2.492,2.375l-2.245,2.141l-2.372,2.263l-2.565,2.443L2.455,24.92c-0.386,0.429-0.722,0.848-0.993,1.264
					c-0.459,0.706-0.73,1.405-0.73,2.119v3.266c0,1.079,0.839,1.97,1.898,2.056c0.054,0.005,0.112,0.007,0.168,0.007l2.372-2.241
					l2.633-2.492l2.401-2.27l2.235-2.112l2.504-2.37l2.382-2.253l2.64-2.494l2.506-2.37l2.13-2.014l2.499-2.363l2.382-2.253
					l0.576-0.543"/>
			</g>
		</g>
	</g>
</g>
</svg>
