<?xml version="1.0" encoding="utf-8"?>
<!-- Generator: Adobe Illustrator 28.1.0, SVG Export Plug-In . SVG Version: 6.00 Build 0)  -->
<svg version="1.1" id="Layer_1" xmlns="http://www.w3.org/2000/svg" xmlns:xlink="http://www.w3.org/1999/xlink" x="0px" y="0px"
	 viewBox="0 0 233 162" style="enable-background:new 0 0 233 162;" xml:space="preserve">
<style type="text/css">
	.st0{fill:#0164BF;}
	.st1{fill:#4ED7DE;}
	.st2{fill:#50EEF6;}
	.st3{fill:#28736D;}
	.st4{fill:#4BA6A6;}
	.st5{fill:#99F6FF;}
	.st6{fill:#8DC8FF;}
	.st7{fill:#5BE3AA;}
	.st8{fill-rule:evenodd;clip-rule:evenodd;fill:#0164BF;}
	.st9{fill:#5AB0FF;}
	.st10{fill:none;stroke:#002140;stroke-width:1;stroke-linecap:round;stroke-linejoin:round;}
	.st11{fill:#E4BC07;}
	.st12{fill:#002140;stroke:#002140;stroke-width:1;stroke-linecap:round;stroke-linejoin:round;}
	.st13{fill:#FF7101;}
	.st14{fill:#FBCCFF;}
	.st15{fill:#002140;}
	.st16{fill:#0164BF;stroke:#002140;stroke-linecap:round;stroke-linejoin:round;}
	.st17{fill:#B0D9FF;}
	.st18{fill:#FFFAF0;}
	.st19{fill:#FED607;}
	.st20{fill:none;stroke:#002140;stroke-linecap:round;stroke-linejoin:round;}
</style>
<path class="st0" d="M189.422,26.876c0-1.451-1.177-2.637-2.619-2.637h-45.794c-1.439,0-2.618,1.186-2.618,2.637v31.455
	c0,1.451,1.179,2.637,2.618,2.637h45.794c1.442,0,2.619-1.186,2.619-2.637V26.876z"/>
<path class="st1" d="M188.997,117.265c-3.915-3.524-7.804-4.394-8.375-4.509c1.685-0.273,3.629-0.428,5.874-0.428
	c4.354,0,8.157,2.082,11.307,4.937H188.997z"/>
<path class="st2" d="M17.326,107.143c-0.131-0.083-0.26-0.172-0.383-0.264c-0.206-0.155-0.405-0.319-0.594-0.497l1.022,0.775
	c0,0-0.031-0.008-0.043-0.011h-0.003V107.143z"/>
<path class="st2" d="M17.829,109.682c0.374-0.505,0.939-0.821,1.773-1.016C19.114,108.979,18.315,109.389,17.829,109.682z"/>
<path class="st1" d="M191.198,119.563c-0.72-0.87-1.462-1.631-2.202-2.298h8.806c0.979,0.888,1.896,1.85,2.747,2.849
	c-3.658-0.264-6.782-0.287-9.337-0.198L191.198,119.563z"/>
<path class="st1" d="M183.731,121.927c-0.305-0.333-0.634-0.646-0.982-0.936l0.151-0.179c0,0,2.873-0.703,8.312-0.896
	c2.556-0.089,5.68-0.066,9.337,0.198h0.003c4.049,4.76,6.582,10.318,7.241,12.386c1.245,3.895-1.105,5.564-4.285,5.564h-10.234
	c-1.536,0-2.804-0.11-3.892-0.322l0.017-0.095C189.816,130.969,186.912,125.405,183.731,121.927z"/>
<path class="st1" d="M189.422,26.876c0-1.451-1.176-2.637-2.618-2.637h-45.795c-1.439,0-2.618,1.186-2.618,2.637v31.455
	c0,1.451,1.179,2.637,2.618,2.637h45.795c1.442,0,2.618-1.186,2.618-2.637V26.876z M190.478,67.02h-53.606
	c-1.294,0-2.484-0.465-3.412-1.238c-1.197-0.994-1.962-2.496-1.962-4.168V23.455c0-2.973,2.419-5.406,5.374-5.406h53.606
	c1.203,0,2.316,0.402,3.213,1.077c1.31,0.988,2.164,2.562,2.164,4.329v38.159C195.855,64.587,193.437,67.02,190.478,67.02z"/>
<path class="st2" d="M81.526,136.765H51.099c-3.872,0-5.165-0.741-8.852-4.079c-3.689-3.34-24.342-22.447-24.342-22.447
	l-0.326-0.143c0.071-0.152,0.154-0.29,0.246-0.414h0.003c0.485-0.293,1.285-0.704,1.773-1.017c0.951-0.218,2.256-0.278,4.02-0.278
	h89.621c3.721,0,6.722,0.482,9.292,1.841c0.614,0.324,1.202,0.698,1.77,1.126c0.554,0.416,1.562,1.284,2.85,2.436
	c5.582,4.989,16.447,15.3,18.542,17.411c0.888,0.894,1.557,1.655,2.053,2.382l-0.208,0.215c0,0,0.737,2.967-2.952,2.967h-35.772
	v-0.37c0,0-2.031-2.04-4.798-4.452c-1.873-1.635-3.871-2.781-7.743-2.781H77.651c-3.318,0-3.504,2.039-1.105,3.895
	C78.942,134.913,81.526,136.765,81.526,136.765z M86.32,111.911H35.977c-5.297,0-5.765,2.149-3.823,4.455
	c0.154,0.184,0.323,0.368,0.505,0.551c1.844,1.856,3.181,3.1,4.726,4.527c0.54,0.497,1.105,1.017,1.728,1.594
	c2.398,2.226,4.98,2.97,9.405,2.97h76.895c5.162,0,7.018-0.382,4.057-3.711c-0.334-0.376-0.654-0.729-0.959-1.065
	c-1.933-2.111-3.409-3.519-5.205-4.998c-0.603-0.494-1.245-1-1.951-1.543c-3.326-2.559-7.846-2.763-12.7-2.777
	c-0.434-0.003-0.874-0.003-1.314-0.003H86.32z"/>
<path class="st3" d="M19.602,108.666c-0.834,0.195-1.399,0.511-1.773,1.016h-0.003c-0.174,0.107-0.308,0.199-0.371,0.262
	c-0.043,0.043-0.077,0.028-0.111-0.029c0.006-0.106,0.008-0.215,0.008-0.325c0-0.462-0.066-1.088-0.166-1.66
	c-0.003-0.468,0.006-0.83,0.006-0.83s0.049,0.014,0.134,0.043h0.003c0.054,0.04,0.109,0.075,0.166,0.109l0.02,0.012
	c0.728,0.439,1.536,0.755,2.401,0.91c0.071,0.049,0.114,0.092,0.114,0.124C20.03,108.373,19.859,108.508,19.602,108.666z"/>
<path class="st4" d="M84.377,41.792H21.19c-3.935,0-7.156,3.24-7.156,7.198v52.104c0,2.083,0.891,3.967,2.307,5.282l-3.218-2.438
	l-3.898-2.95c-2.538-1.792-4.203-4.754-4.203-8.091V46.153c0-5.434,4.417-9.878,9.82-9.878h61.434
	C76.276,36.275,82.718,40.54,84.377,41.792C84.029,41.479,85.102,42.338,84.377,41.792z"/>
<path class="st1" d="M170.868,119.701c0-0.727,0.234-1.577,0.803-2.436h17.326c0.739,0.667,1.482,1.428,2.201,2.298l0.015,0.353
	c-5.44,0.193-8.312,0.896-8.312,0.896l-0.152,0.179c-3.269-2.721-8.229-3.401-11.604-1.012h-0.274
	C170.868,119.89,170.868,119.799,170.868,119.701z"/>
<path class="st3" d="M158.772,97.891c-1.222,0.353-2.527,0.523-3.854,0.523h-4.381c1.522-2.643,1.659-5.426-0.137-8.068v-0.325
	h2.305c1.33,0,2.355-0.175,3.129-0.549l0.74,0.327c2.392,2.114,2.941,4.846,2.116,7.784L158.772,97.891z"/>
<path class="st2" d="M17.495,107.252c-0.057-0.034-0.111-0.069-0.166-0.106c0.011,0.003,0.029,0.009,0.043,0.011
	c0,0,0.002,0.001,0.006,0.003L17.495,107.252z"/>
<path class="st5" d="M108.655,111.914c4.854,0.014,9.374,0.218,12.701,2.778c0.705,0.542,1.348,1.048,1.95,1.542l-0.106,0.129
	h-10.127l-4.418-4.268V111.914z"/>
<path class="st1" d="M173.486,115.398c0.857-0.629,1.953-1.215,3.335-1.703c1.082-0.382,2.339-0.704,3.795-0.939
	c0,0,0,0.002,0.005,0c0.572,0.115,4.461,0.985,8.375,4.509H171.67C172.084,116.633,172.678,115.996,173.486,115.398z"/>
<path class="st3" d="M150.4,90.346c1.796,2.642,1.659,5.426,0.138,8.068H142.7c1.521-2.643,1.661-5.426-0.138-8.068v-0.325h7.838
	V90.346z"/>
<path class="st6" d="M171.67,117.265c-0.568,0.859-0.802,1.709-0.802,2.436c0,0.098,0,0.189,0.003,0.281
	c0.014,2.528,0.282,2.927,2.624,5.283c2.766,2.783,8.437,7.93,8.437,7.93c2.499,2.306,4.135,3.901,7.45,4.547
	c1.088,0.212,2.356,0.322,3.892,0.322h10.233c3.181,0,5.531-1.669,4.286-5.564c-0.659-2.068-3.192-7.626-7.241-12.386h-0.003
	c-0.851-0.999-1.767-1.961-2.747-2.849h3.492c5.394,0,6.362,0.072,9.957,2.852c3.598,2.784,16.25,15.094,19.502,18.366
	c0.911,0.916,1.454,2.077,1.325,3.05c-0.14,1.098-1.131,1.956-3.401,1.956h-45.64c-5.668,0-7.744,0.836-12.583-3.199
	c-4.843-4.033-14.8-13.354-18.395-16.832c-1.059-1.023-1.564-1.982-1.659-2.821c-0.228-2.019,1.928-3.372,4.563-3.372H171.67z"/>
<path class="st2" d="M19.916,108.174c-0.865-0.155-1.673-0.471-2.401-0.91l-0.02-0.012l-0.117-0.092
	C17.92,107.344,19.482,107.878,19.916,108.174z"/>
<path class="st4" d="M17.227,110.957c-0.44,2.361-1.99,4.105-3.838,4.105c-1.119,0-2.13-0.641-2.85-1.669
	c-0.691-0.985-1.116-2.324-1.116-3.803c0-2.823,1.55-5.147,3.541-5.44l0.16-0.212l3.218,2.438l0.009,0.006
	c0.188,0.178,0.388,0.342,0.594,0.497c0.089,0.278,0.174,0.652,0.243,1.051c0.003,0.741,0.031,1.746,0.157,1.985
	C17.329,110.274,17.289,110.621,17.227,110.957z"/>
<path class="st2" d="M113.923,108.292H21.19c-0.434,0-0.862-0.04-1.273-0.118c-0.434-0.295-1.996-0.83-2.538-1.014
	c0,0-0.002,0-0.006-0.002l-1.022-0.776l-0.009-0.006c-1.416-1.315-2.307-3.199-2.307-5.282V48.99c0-3.958,3.221-7.198,7.155-7.198
	h57.964c0.451,0.399,0.134,5.624,0.134,6.957H58.732H25.861c-2.55,0-4.634,2.097-4.634,4.662v42.148
	c0,2.565,2.084,4.665,4.634,4.665h82.837c2.55,0,4.637-2.1,4.637-4.665V53.411c0-2.565-2.087-4.662-4.637-4.662h-29.41
	c0.017-0.256,0.026-0.534,0.026-0.836c0-2.783-0.16-4.311-0.16-6.121c0.014,0.135,0-0.144,0,0h34.769
	c1.354,0,2.622,0.382,3.704,1.045c2.067,1.267,3.452,3.556,3.452,6.153v52.104C121.079,105.055,117.861,108.292,113.923,108.292z"/>
<path class="st7" d="M53.181,67.689c-1.156,0-1.85-0.91-1.85-2.479c0-1.568,0.694-2.482,1.85-2.482c1.156,0,1.847,0.893,1.847,2.482
	C55.029,66.799,54.335,67.689,53.181,67.689z"/>
<path class="st3" d="M165.994,74.126c-2.63-1.531-5.394-1.669-8.024,0.141h-0.103V67.02h8.666v7.106H165.994z"/>
<path class="st4" d="M133.343,65.928l-5.885-4.472c-1.602-1.364-2.621-3.398-2.621-5.661v-35.45c0-4.081,3.318-7.419,7.375-7.419
	h51.226c1.924,0,3.295,0.764,4.996,1.973l5.349,4.107l-0.092,0.121c-0.896-0.675-2.01-1.077-3.212-1.077h-53.607
	c-2.955,0-5.374,2.433-5.374,5.406v38.159c0,1.672,0.766,3.174,1.962,4.168L133.343,65.928z"/>
<path class="st4" d="M17.187,107.93c0.1,0.572,0.166,1.198,0.166,1.66c0,0.11-0.003,0.219-0.009,0.325
	C17.218,109.677,17.189,108.671,17.187,107.93z"/>
<path class="st5" d="M82.263,121.37H71.936v-0.184l-4.84-4.823h10.639l4.529,4.449V121.37z"/>
<path class="st4" d="M104.706,36.275c1.825,0,3.538,0.508,5.006,1.387l8.04,4.978l-0.122,0.198c-1.083-0.663-2.35-1.045-3.704-1.045
	h-34.77c-0.126-1.586-1.014-2.726-2.607-3.757c-0.914-0.592-1.83-1.183-2.715-1.761h30.875H104.706z"/>
<path class="st5" d="M95.172,121.37H82.263v-0.558l-4.529-4.449h12.829l4.609,4.636V121.37z"/>
<path class="st5" d="M122.669,126.008h-11.756v-0.37l-4.417-4.268h11.756l4.417,4.268V126.008z"/>
<path class="st7" d="M81.301,66.767l0.177-0.821c0.277,0.08,0.577,0.155,0.899,0.23l0.771,0.175
	c0.811,0.175,1.099,0.554,1.099,0.925c0,0.529-0.465,0.764-1.273,0.764C81.915,68.039,81.435,67.649,81.301,66.767z"/>
<path class="st5" d="M96.277,129.162c3.872,0,5.87,1.146,7.744,2.781c2.766,2.412,4.797,4.452,4.797,4.452v0.37H81.526
	c0,0-2.584-1.852-4.98-3.708c-2.399-1.855-2.213-3.895,1.105-3.895H96.277z"/>
<path class="st5" d="M128.363,121.37h-10.111l-5.18-5.007H123.2l0.106-0.129c1.796,1.479,3.272,2.887,5.205,4.998L128.363,121.37z"
	/>
<path class="st7" d="M82.871,62.088c0.905,0,1.388,0.296,1.388,1.175h3.375v3.797h-0.343c0-1.68-1.125-2.441-3.706-3.03
	l-0.771-0.172c-0.811-0.178-1.099-0.531-1.099-0.902C81.715,62.427,82.157,62.088,82.871,62.088z"/>
<path class="st5" d="M49.878,111.911v0.184l4.417,4.268H43.716l-4.417-4.268v-0.184H49.878z"/>
<path class="st7" d="M63.543,67.807c-0.942,0-1.656-0.546-1.827-1.939h6.567v-0.405h0.5v1.278h-3.603
	C65.045,67.264,64.64,67.807,63.543,67.807z"/>
<path class="st3" d="M134.865,98.414c1.519-2.643,1.658-5.426-0.14-8.068v-0.325h7.838v0.325c1.798,2.642,1.659,5.426,0.137,8.068
	H134.865z"/>
<path class="st4" d="M17.58,110.096l0.326,0.144c0,0,20.653,19.106,24.342,22.447c3.686,3.337,4.98,4.078,8.852,4.078h93.491
	c3.689,0,2.952-2.967,2.952-2.967l0.208-0.215c0.948,1.39,1.265,2.657,1.265,4.481v5.196c0,2.967-1.105,4.081-5.899,4.081H51.099
	c-6.456,0-8.115-1.301-11.618-4.268c-0.374-0.316-0.848-0.724-1.399-1.201l-0.017-0.307c2.413-0.149,2.707-0.919,2.707-2.574
	c0-1.852,0-2.409-1.382-3.708c0,0-0.831-0.744-2.858-2.413c-2.03-1.668-2.767-1.482-5.534-1.482c-1.673,0-3.484-0.272-4.651,0.293
	l-0.088-0.169c-2.387-2.106-4.412-3.892-5.402-4.762c-2.95-2.597-3.686-3.895-3.686-7.236v-6.678c0-0.732,0.04-1.347,0.137-1.861
	C17.372,110.642,17.46,110.349,17.58,110.096z"/>
<path class="st5" d="M32.154,116.366c-1.942-2.306-1.473-4.455,3.823-4.455h3.321v0.184l4.417,4.268H32.154V116.366z"/>
<path class="st3" d="M9.794,118.403c-3.504,0-4.057,3.153-1.476,5.934c2.581,2.783,5.716,5.753,8.298,7.976
	c2.581,2.226,3.781,2.134,5.625,2.134h4.885c2.213,0,2.767,4.36,0.186,4.36c-2.581,0,0.554,0-4.794,0s-6.824-1.114-10.142-3.894
	c-3.321-2.784-3.504-3.525-7.561-7.236s-3.504-5.193-3.504-7.976c0-2.783,2.581-6.308,6.453-6.308h2.775
	c0.72,1.029,1.73,1.669,2.85,1.669c1.847,0,3.398-1.743,3.838-4.104l0.08,0.017c-0.097,0.514-0.137,1.129-0.137,1.861v5.567H9.794z"
	/>
<path class="st7" d="M47.913,60.425h0.431v9.573h-0.22l-3.372-4.943L47.913,60.425z"/>
<path class="st3" d="M158.447,86.594l-0.679-0.077c0.068-0.454,0.1-0.954,0.1-1.505v-2.864h0.102
	c2.63-1.807,5.394-1.669,8.024-0.138h0.54v4.673c0,1.841-0.283,3.45-0.789,4.834l-0.294-0.109
	C164.089,88.51,161.785,86.692,158.447,86.594z"/>
<path class="st5" d="M106.496,121.37H95.172v-0.371l-4.608-4.636h10.754L106.496,121.37z"/>
<path class="st5" d="M73.389,111.911v0.184l4.346,4.268H67.095l-4.286-4.268v-0.184H73.389z"/>
<path class="st3" d="M127.027,98.414c1.522-2.643,1.659-5.426-0.14-8.068v-0.325h7.838v0.325c1.799,2.642,1.659,5.426,0.14,8.068
	H127.027z"/>
<path class="st3" d="M127.155,113.79c-1.288-1.152-2.296-2.02-2.85-2.436c-0.568-0.428-1.156-0.801-1.77-1.126l0.066-0.126
	c1.522-1.391,3.318-1.391,8.574-1.391h34.022c6.362,0,7.053,1.112,11.479,4.453l0.145,0.531c-1.382,0.488-2.478,1.074-3.335,1.703
	l-0.128-0.287c-2.904-2.367-3.044-2.505-6.916-2.505h-32.086c-4.011,0-6.638-0.278-6.775,0.974L127.155,113.79z"/>
<path class="st3" d="M121.079,90.021h5.808v0.325c1.799,2.642,1.662,5.426,0.14,8.068h-5.948V90.021z"/>
<path class="st5" d="M108.655,112.095l4.417,4.268h-11.755l-4.418-4.268v-0.184h10.442c0.44,0,0.88,0,1.314,0.003V112.095z"/>
<path class="st5" d="M59.475,121.37H48.895l-5.18-5.007h10.579L59.475,121.37z"/>
<path class="st3" d="M157.97,74.267c2.63-1.81,5.394-1.672,8.024-0.141h0.539v7.884h-0.539c-2.63-1.531-5.394-1.669-8.024,0.138
	h-0.103v-7.882H157.97z"/>
<path class="st5" d="M63.892,126.008H53.313v-0.37l-4.417-4.268h10.579l4.417,4.268V126.008z"/>
<path class="st5" d="M86.321,111.911v0.184l4.243,4.268H77.734l-4.346-4.268v-0.184H86.321z"/>
<path class="st8" d="M25.634,48.749c-2.55,0-4.634,2.097-4.634,4.662v42.148c0,2.565,2.084,4.665,4.634,4.665h82.837
	c2.55,0,4.637-2.1,4.637-4.665V53.411c0-2.565-2.087-4.662-4.637-4.662H25.634z"/>
<path class="st4" d="M27.312,138.807c2.581,0,2.027-4.36-0.186-4.36h-2.027v-0.278c0-1.391,0.488-2.117,1.248-2.488
	c1.168-0.566,2.978-0.293,4.651-0.293c2.767,0,3.503-0.186,5.534,1.482c2.027,1.669,2.858,2.413,2.858,2.413
	c1.382,1.298,1.382,1.856,1.382,3.708c0,1.655-0.294,2.425-2.707,2.574c-0.294,0.017-0.62,0.026-0.979,0.026h-5.716
	C29.524,141.591,27.312,138.807,27.312,138.807z"/>
<path class="st5" d="M110.914,126.008H63.892v-0.37l-4.417-4.268h47.022l4.417,4.268V126.008z"/>
<path class="st5" d="M118.252,121.37h-11.756l-5.18-5.007h11.756L118.252,121.37z"/>
<path class="st5" d="M71.935,121.37H59.474l-5.18-5.007h12.801l4.84,4.823V121.37z"/>
<path class="st5" d="M37.454,121.37h11.441l4.417,4.268v0.37h-4.794c-4.426,0-7.007-0.744-9.406-2.97
	c-0.622-0.577-1.188-1.097-1.728-1.594L37.454,121.37z"/>
<path class="st5" d="M32.474,116.363h11.242l5.18,5.007H37.454l-0.069,0.074c-1.545-1.427-2.881-2.671-4.726-4.526
	c-0.183-0.184-0.351-0.368-0.505-0.552h0.32V116.363z"/>
<path class="st1" d="M170.871,119.982h0.274c3.375-2.392,8.335-1.712,11.604,1.008c0.349,0.291,0.677,0.604,0.983,0.937
	c3.181,3.478,6.084,9.042,5.668,15.72l-0.018,0.095c-3.315-0.647-4.951-2.241-7.449-4.547c0,0-5.671-5.147-8.438-7.931
	C171.154,122.909,170.885,122.51,170.871,119.982z"/>
<path class="st5" d="M62.81,111.911v0.184l4.286,4.268H54.295l-4.417-4.268v-0.184H62.81z"/>
<path class="st3" d="M155.834,89.473c1.125-0.543,1.716-1.505,1.933-2.956l0.68,0.077c3.338,0.098,5.642,1.916,7.004,4.814
	l0.294,0.109c-1.245,3.415-3.855,5.48-6.973,6.374l-0.083-0.307c0.826-2.938,0.277-5.67-2.115-7.784L155.834,89.473z"/>
<path class="st5" d="M96.899,111.911v0.184l4.418,4.268H90.563l-4.243-4.268v-0.184H96.899z"/>
<path class="st5" d="M129.471,122.297c2.961,3.329,1.105,3.711-4.058,3.711h-2.744v-0.37l-4.417-4.268h10.111l0.148-0.138
	C128.817,121.568,129.137,121.921,129.471,122.297z"/>
<path class="st9" d="M232.135,141.542l-0.068,5.604c-0.183,1.051-1.182,1.864-3.39,1.864h-45.64c-5.668,0-7.744,0.833-12.583-3.2
	c-4.843-4.035-14.8-13.356-18.395-16.834c-0.782-0.756-1.262-1.474-1.499-2.137l-0.16-0.601v-5.601
	c0.095,0.839,0.6,1.798,1.659,2.821c3.595,3.478,13.552,12.799,18.395,16.832c4.839,4.035,6.915,3.199,12.583,3.199h45.64
	c2.27,0,3.261-0.859,3.401-1.956L232.135,141.542z"/>
<path class="st10" d="M197.802,117.265h3.492c5.394,0,6.362,0.072,9.957,2.852c3.598,2.784,16.25,15.094,19.502,18.366
	c0.911,0.916,1.454,2.077,1.325,3.05c-0.14,1.098-1.131,1.956-3.401,1.956h-45.64c-5.668,0-7.744,0.836-12.583-3.199
	c-4.843-4.033-14.8-13.354-18.395-16.832c-1.059-1.023-1.564-1.982-1.659-2.821c-0.228-2.019,1.928-3.372,4.563-3.372h16.707"/>
<path class="st10" d="M150.561,126.839c0.237,0.663,0.716,1.381,1.499,2.137c3.595,3.478,13.551,12.799,18.394,16.834
	c4.84,4.033,6.916,3.2,12.583,3.2h45.641c2.207,0,3.206-0.813,3.389-1.864l0.068-5.604"/>
<path class="st10" d="M150.4,120.117v0.52v5.601"/>
<path class="st10" d="M79.287,48.749h29.41c2.55,0,4.637,2.097,4.637,4.662v42.148c0,2.565-2.087,4.665-4.637,4.665H25.861
	c-2.55,0-4.634-2.1-4.634-4.665V53.411c0-2.565,2.084-4.662,4.634-4.662H79.287z"/>
<path class="st10" d="M79.153,41.792h34.77c1.354,0,2.621,0.382,3.704,1.046c2.067,1.267,3.452,3.556,3.452,6.153v52.104
	c0,3.961-3.218,7.198-7.156,7.198H21.19c-0.434,0-0.862-0.04-1.274-0.118c-0.865-0.155-1.673-0.471-2.401-0.91"/>
<path class="st10" d="M16.341,106.376c-1.416-1.315-2.307-3.2-2.307-5.282V48.99c0-3.958,3.221-7.198,7.155-7.198h58.048"/>
<path class="st10" d="M17.495,107.252c-0.057-0.034-0.111-0.069-0.166-0.106h-0.003c-0.131-0.086-0.26-0.175-0.383-0.267
	c-0.206-0.155-0.405-0.319-0.594-0.497"/>
<path class="st10" d="M104.706,36.275c1.825,0,3.538,0.508,5.006,1.387c0.002,0,0.002,0.003,0.005,0.003"/>
<path class="st10" d="M118.329,42.999l-0.579-0.359l-8.041-4.975"/>
<path class="st10" d="M49.977,36.275H14.842c-5.402,0-9.82,4.443-9.82,9.878v46.744c0,3.338,1.665,6.299,4.203,8.091l3.898,2.95
	l3.218,2.438l0.009,0.006l1.022,0.776c0,0,0.003,0.002,0.006,0.002l0.117,0.092l0.02,0.012l0.363,0.276"/>
<path class="st10" d="M104.706,36.275H49.684"/>
<path class="st10" d="M38.082,141.872c0.551,0.477,1.025,0.885,1.399,1.201c3.503,2.967,5.162,4.268,11.618,4.268h92.017
	c4.794,0,5.899-1.114,5.899-4.082v-5.196c0-1.823-0.317-3.09-1.265-4.48c-0.496-0.727-1.165-1.488-2.053-2.382
	c-2.095-2.111-12.96-12.422-18.542-17.411c-1.288-1.152-2.296-2.02-2.85-2.436c-0.568-0.428-1.156-0.802-1.77-1.126
	c-2.57-1.359-5.571-1.841-9.292-1.841H23.622c-1.765,0-3.069,0.06-4.02,0.278c-0.834,0.196-1.399,0.512-1.773,1.017h-0.003
	c-0.091,0.124-0.174,0.262-0.246,0.414c-0.12,0.253-0.208,0.545-0.274,0.879c-0.097,0.514-0.137,1.128-0.137,1.861v6.678
	c0,3.341,0.737,4.639,3.686,7.235c0.991,0.871,3.015,2.657,5.402,4.763"/>
<path class="st10" d="M17.906,110.24c0,0,20.653,19.106,24.342,22.447c3.686,3.337,4.98,4.078,8.852,4.078h93.49
	c3.689,0,2.953-2.967,2.953-2.967"/>
<path class="st10" d="M81.526,136.765c0,0-2.584-1.852-4.98-3.708c-2.399-1.855-2.213-3.895,1.105-3.895h18.626
	c3.872,0,5.87,1.146,7.744,2.781c2.766,2.412,4.797,4.452,4.797,4.452"/>
<path class="st10" d="M122.669,126.008h2.744c5.163,0,7.019-0.382,4.058-3.711c-0.334-0.376-0.654-0.729-0.96-1.065
	c-1.933-2.111-3.409-3.519-5.205-4.998c-0.602-0.494-1.245-1-1.95-1.542c-3.327-2.56-7.847-2.764-12.701-2.778
	c-0.434-0.003-0.874-0.003-1.313-0.003H35.978c-5.297,0-5.765,2.149-3.823,4.455c0.154,0.184,0.323,0.368,0.505,0.552
	c1.845,1.855,3.181,3.099,4.726,4.526c0.54,0.497,1.105,1.017,1.728,1.594c2.398,2.227,4.98,2.97,9.406,2.97H122.669z"/>
<path class="st10" d="M32.474,116.363h11.242h10.579h12.801h10.639h12.829h10.753h11.756H123.2"/>
<path class="st10" d="M37.454,121.37h11.441h10.579h12.461h10.328h12.909h11.325h11.755h10.111"/>
<path class="st10" d="M39.299,112.095l4.417,4.268l5.18,5.007l4.417,4.268"/>
<path class="st10" d="M49.878,112.095l4.417,4.268l5.18,5.007l4.417,4.268"/>
<path class="st10" d="M62.81,112.095l4.286,4.268l4.84,4.823"/>
<path class="st10" d="M73.389,112.095l4.346,4.268l4.529,4.449"/>
<path class="st10" d="M86.32,112.095l4.243,4.268l4.608,4.636"/>
<path class="st10" d="M96.899,112.095l4.418,4.268l5.179,5.007l4.418,4.268"/>
<path class="st10" d="M108.655,112.095l4.418,4.268l5.179,5.007l4.417,4.268"/>
<path class="st10" d="M16.944,106.879c0.089,0.278,0.174,0.652,0.243,1.051c0.1,0.572,0.166,1.198,0.166,1.66
	c0,0.109-0.003,0.219-0.009,0.325c-0.014,0.359-0.054,0.706-0.117,1.043c-0.44,2.361-1.99,4.104-3.838,4.104
	c-1.119,0-2.13-0.64-2.85-1.669c-0.691-0.985-1.116-2.323-1.116-3.803c0-2.823,1.55-5.147,3.541-5.44"/>
<path class="st10" d="M13.389,115.062h3.227"/>
<path class="st10" d="M10.345,113.393H7.764c-3.872,0-6.453,3.525-6.453,6.308c0,2.783-0.554,4.265,3.504,7.976
	s4.24,4.452,7.561,7.236c3.318,2.78,4.794,3.895,10.142,3.895s2.213,0,4.794,0c2.581,0,2.027-4.361-0.186-4.361H22.24
	c-1.845,0-3.044,0.092-5.625-2.134c-2.581-2.223-5.716-5.193-8.298-7.976c-2.581-2.781-2.027-5.934,1.476-5.934h7.19"/>
<path class="st10" d="M10.55,113.393h-0.011"/>
<path class="st10" d="M10.539,113.393h-0.194"/>
<path class="st10" d="M25.099,134.169c0-1.391,0.488-2.117,1.248-2.488c1.168-0.566,2.978-0.293,4.651-0.293
	c2.767,0,3.503-0.186,5.534,1.482c2.027,1.669,2.858,2.413,2.858,2.413c1.382,1.298,1.382,1.856,1.382,3.708
	c0,1.655-0.294,2.425-2.707,2.574c-0.294,0.017-0.62,0.026-0.979,0.026h-5.716c-1.845,0-4.057-2.784-4.057-2.784"/>
<path class="st10" d="M121.17,90.021h31.535c1.33,0,2.355-0.175,3.129-0.549c1.125-0.543,1.716-1.505,1.933-2.956
	c0.069-0.454,0.1-0.954,0.1-1.505V67.206"/>
<path class="st10" d="M121.079,98.414h33.839c1.328,0,2.633-0.169,3.855-0.523c3.118-0.893,5.728-2.959,6.973-6.374
	c0.505-1.384,0.788-2.993,0.788-4.834V67.39"/>
<path class="st10" d="M193.691,19.127c1.31,0.988,2.164,2.562,2.164,4.329v38.159c0,2.973-2.418,5.406-5.377,5.406h-53.606
	c-1.294,0-2.484-0.465-3.412-1.238c-1.197-0.994-1.962-2.496-1.962-4.168V23.455c0-2.973,2.419-5.406,5.374-5.406h53.606
	C191.681,18.05,192.794,18.452,193.691,19.127z"/>
<path class="st10" d="M133.343,65.928l-5.885-4.472c-1.602-1.364-2.621-3.398-2.621-5.661v-35.45c0-4.081,3.318-7.419,7.375-7.419
	h51.226c1.924,0,3.295,0.764,4.996,1.973l5.349,4.107l0.927,0.712"/>
<path class="st10" d="M189.422,58.331c0,1.451-1.177,2.637-2.619,2.637h-45.794c-1.439,0-2.618-1.186-2.618-2.637V26.876
	c0-1.451,1.179-2.637,2.618-2.637h45.794c1.442,0,2.619,1.186,2.619,2.637V58.331z"/>
<path class="st10" d="M126.887,90.346c1.799,2.642,1.662,5.426,0.14,8.068"/>
<path class="st10" d="M134.725,90.346c1.798,2.642,1.659,5.426,0.14,8.068"/>
<path class="st10" d="M142.562,90.346c1.799,2.642,1.659,5.426,0.138,8.068"/>
<path class="st10" d="M150.4,90.346c1.796,2.642,1.659,5.426,0.137,8.068"/>
<path class="st10" d="M156.574,89.8c2.393,2.114,2.941,4.846,2.116,7.784"/>
<path class="st10" d="M158.447,86.594c3.338,0.098,5.642,1.916,7.004,4.814"/>
<path class="st10" d="M157.97,82.148c2.63-1.807,5.394-1.669,8.023-0.138"/>
<path class="st10" d="M157.97,74.267c2.63-1.81,5.394-1.672,8.023-0.141"/>
<path class="st10" d="M180.616,112.756c-1.456,0.235-2.712,0.557-3.794,0.939c-1.382,0.488-2.479,1.074-3.335,1.703
	c-0.809,0.598-1.402,1.235-1.816,1.867c-0.569,0.859-0.803,1.709-0.803,2.436c0,0.098,0,0.189,0.003,0.281
	c0.014,2.528,0.283,2.927,2.624,5.283c2.767,2.783,8.438,7.93,8.438,7.93c2.498,2.306,4.134,3.901,7.449,4.547
	c1.088,0.212,2.356,0.322,3.892,0.322h10.234c3.181,0,5.531-1.669,4.286-5.564c-0.66-2.068-3.193-7.626-7.241-12.386"/>
<path class="st10" d="M200.55,120.114c-0.851-0.999-1.768-1.961-2.747-2.849c-3.15-2.855-6.953-4.937-11.307-4.937
	c-2.245,0-4.189,0.155-5.874,0.428"/>
<path class="st10" d="M171.145,119.979c3.375-2.389,8.334-1.709,11.604,1.012c0.348,0.29,0.676,0.603,0.982,0.936
	c3.181,3.478,6.085,9.042,5.668,15.72"/>
<path class="st10" d="M182.9,120.812c0,0,2.873-0.703,8.312-0.896c2.556-0.089,5.68-0.066,9.337,0.198h0.003
	c0.017,0,0.035,0.003,0.052,0.003"/>
<path class="st10" d="M180.551,112.744c0,0,0.023,0,0.065,0.012c0,0,0,0.002,0.006,0c0.571,0.115,4.46,0.985,8.375,4.509
	c0.739,0.667,1.482,1.428,2.201,2.298"/>
<path class="st10" d="M122.601,110.102c1.521-1.391,3.318-1.391,8.574-1.391h34.022c6.362,0,7.053,1.112,11.478,4.453"/>
<path class="st10" d="M173.357,115.111c-2.904-2.367-3.044-2.505-6.915-2.505h-32.086c-4.012,0-6.639-0.278-6.776,0.974"/>
<path class="st11" d="M170.472,34.895h-19.158c-0.989,0-1.792,0.802-1.792,1.791v9.817c0,0.989,0.803,1.791,1.792,1.791h19.158
	c0.989,0,1.791-0.802,1.791-1.791v-9.817C172.263,35.697,171.461,34.895,170.472,34.895z"/>
<path class="st10" d="M170.152,34.835h-18.586c-1.182,0-2.141,0.959-2.141,2.142v9.11c0,1.183,0.959,2.142,2.141,2.142h18.586
	c1.183,0,2.142-0.959,2.142-2.142v-9.11C172.294,35.794,171.335,34.835,170.152,34.835z"/>
<path class="st12" d="M172.13,37.356h-22.67v2.003h22.67V37.356z"/>
<path class="st13" d="M176.938,38.05l-19.157,0.09c-0.99,0.005-1.788,0.81-1.783,1.8l0.046,9.817c0.005,0.989,0.81,1.788,1.8,1.783
	l19.157-0.09c0.99-0.005,1.788-0.81,1.783-1.8l-0.046-9.817C178.733,38.844,177.928,38.046,176.938,38.05z"/>
<path class="st10" d="M176.619,37.99l-18.586,0.088c-1.183,0.006-2.137,0.969-2.132,2.152l0.043,9.11
	c0.006,1.183,0.969,2.137,2.152,2.132l18.586-0.088c1.182-0.005,2.137-0.969,2.131-2.152l-0.043-9.11
	C178.765,38.939,177.801,37.984,176.619,37.99z"/>
<path class="st10" d="M158.103,49.285l3.092-0.014"/>
<path class="st10" d="M162.613,49.264l3.092-0.014"/>
<path class="st14" d="M162.743,45.465l-0.011-2.52c0-0.131-0.251-0.236-0.555-0.236l-2.013,0.009c-0.172,0-0.334,0.036-0.439,0.093
	l-0.683,0.381c-0.077,0.043-0.117,0.093-0.117,0.145l0.009,1.832c0,0.048,0.036,0.095,0.1,0.136l0.515,0.314
	c0.105,0.064,0.276,0.1,0.457,0.1l2.187-0.014C162.498,45.705,162.746,45.596,162.743,45.465z"/>
<path class="st15" d="M174.984,42.448l-6.716,0.032c-0.84,0.004-1.519,0.689-1.515,1.529c0.004,0.841,0.689,1.519,1.53,1.515
	l6.715-0.032c0.841-0.004,1.519-0.689,1.515-1.529C176.509,43.122,175.824,42.444,174.984,42.448z"/>
<path class="st16" d="M73.859,94.118c0.388,0,1.498-0.285,1.498-1.412c0-1.127-1.069-1.412-1.498-1.412c-0.199,0-13.357,0-13.542,0
	c-0.388,0-1.498,0.285-1.498,1.412c0,1.127,1.069,1.412,1.498,1.412H73.859z"/>
<path class="st16" d="M73.859,58.302c0.388,0,1.498-0.285,1.498-1.412c0-1.127-1.069-1.412-1.498-1.412H60.317
	c-0.388,0-1.498,0.285-1.498,1.412c0,1.127,1.069,1.412,1.498,1.412H73.859z"/>
<path class="st17" d="M75.962,59.724c1.821,1.364,2.412,3.326,1.821,5.57c-1.089,4.134-8.522,6.522-8.573,9.505v0.031
	c0.051,2.983,7.481,5.371,8.573,9.505c0.591,2.244,0,4.206-1.821,5.57c-1.821,1.364-4.904,1.911-8.762,1.911h-0.148
	c-3.859,0-6.941-0.546-8.762-1.911s-2.412-3.326-1.818-5.57c1.089-4.134,8.522-6.522,8.57-9.505v-0.031
	c-0.052-2.983-7.481-5.371-8.57-9.505c-0.591-2.244-0.003-4.206,1.818-5.57s4.903-1.911,8.762-1.911H67.2
	C71.059,57.814,74.141,58.36,75.962,59.724z M73.705,88.853c0.907-0.453,1.017-1.041,0.34-1.505c0,0-4.543-3.086-6.842-3.086h-0.076
	c-2.299,0-6.842,3.086-6.842,3.086c-0.677,0.464-0.57,1.052,0.337,1.505c0.962,0.481,2.21,0.911,6.47,0.911h0.144
	c4.261,0,5.508-0.43,6.47-0.911H73.705z M67.602,74.517c0-0.34-0.275-0.619-0.618-0.619c-0.344,0-0.619,0.278-0.619,0.619
	c0,0.34,0.275,0.618,0.619,0.618C67.327,75.136,67.602,74.858,67.602,74.517z M67.602,79.545c0-0.34-0.275-0.618-0.618-0.618
	c-0.344,0-0.619,0.278-0.619,0.618s0.275,0.618,0.619,0.618C67.327,80.163,67.602,79.885,67.602,79.545z"/>
<path class="st18" d="M74.859,82.393c1.818,1.869,2.412,3.921,1.258,4.247c-1.306,0.364-1.254-1.378-3.618-3.206
	c-2.113-1.632-2.44-2.364-1.845-3.024C71.175,79.826,72.615,80.088,74.859,82.393z"/>
<path class="st19" d="M74.041,87.352c0.677,0.464,0.57,1.051-0.34,1.505c-0.962,0.481-2.21,0.911-6.471,0.911h-0.144
	c-4.261,0-5.508-0.43-6.471-0.911c-0.907-0.454-1.014-1.041-0.337-1.505c0,0,4.543-3.086,6.842-3.086h0.076
	c2.299,0,6.842,3.086,6.842,3.086H74.041z"/>
<path class="st19" d="M72.76,66.559c0.539,0,0.763,0.639,0.323,0.931c0,0-3.99,3.33-6.034,3.33c-2.044,0-6.171-3.33-6.171-3.33
	c-0.436-0.292-0.216-0.931,0.323-0.931h11.556H72.76z"/>
<path class="st19" d="M66.983,73.902c0.344,0,0.618,0.278,0.618,0.619c0,0.34-0.275,0.618-0.618,0.618
	c-0.344,0-0.619-0.278-0.619-0.618C66.365,74.181,66.64,73.902,66.983,73.902z"/>
<path class="st19" d="M66.983,78.929c0.344,0,0.618,0.278,0.618,0.619c0,0.34-0.275,0.618-0.618,0.618
	c-0.344,0-0.619-0.278-0.619-0.618C66.365,79.208,66.64,78.929,66.983,78.929z"/>
<path class="st18" d="M75.547,61.078c1.605,1.917,1.23,5.319-0.179,5.306c-1.23-0.01-0.096-1.182-0.969-3.089
	c-0.873-1.907-2.852-2.1-2.213-3.213c0.474-0.832,2.213-0.375,3.361,1V61.078z"/>
<path class="st20" d="M65.038,74.83c-0.052,2.983-7.481,5.371-8.57,9.505c-0.591,2.244-0.003,4.206,1.818,5.57
	c1.821,1.364,4.903,1.911,8.762,1.911"/>
<path class="st20" d="M69.21,74.83c0.052,2.983,7.481,5.371,8.573,9.505c0.591,2.244,0,4.206-1.821,5.57
	c-1.821,1.364-4.903,1.911-8.762,1.911"/>
<path class="st20" d="M69.21,74.83v-0.031c0.052-2.983,7.481-5.371,8.573-9.505c0.591-2.244,0-4.206-1.821-5.57
	c-1.821-1.364-4.903-1.911-8.762-1.911"/>
<path class="st20" d="M65.038,74.83v-0.031c-0.052-2.983-7.481-5.371-8.57-9.505c-0.591-2.244-0.003-4.206,1.818-5.57
	c1.821-1.364,4.903-1.911,8.762-1.911"/>
<path class="st20" d="M61.204,66.559H72.76c0.539,0,0.763,0.639,0.323,0.931c0,0-3.99,3.33-6.034,3.33
	c-2.044,0-6.171-3.33-6.171-3.33c-0.436-0.292-0.216-0.931,0.323-0.931H61.204z"/>
<path class="st20" d="M67.086,89.764c-4.261,0-5.508-0.429-6.471-0.911c-0.907-0.453-1.014-1.041-0.337-1.505
	c0,0,4.543-3.086,6.842-3.086"/>
<path class="st20" d="M67.231,89.764c4.261,0,5.508-0.429,6.471-0.911c0.907-0.453,1.017-1.041,0.34-1.505
	c0,0-4.543-3.086-6.842-3.086"/>
<path class="st20" d="M67.602,74.521c0,0.34-0.275,0.618-0.618,0.618c-0.344,0-0.619-0.278-0.619-0.618
	c0-0.34,0.275-0.619,0.619-0.619C67.327,73.902,67.602,74.181,67.602,74.521z"/>
<path class="st20" d="M67.602,79.548c0,0.34-0.275,0.618-0.618,0.618c-0.344,0-0.619-0.278-0.619-0.618
	c0-0.34,0.275-0.619,0.619-0.619C67.327,78.929,67.602,79.208,67.602,79.548z"/>
</svg>
