<svg xmlns="http://www.w3.org/2000/svg" id="Layer_1" version="1.1" viewBox="0 0 40 40"><defs><style>.st0{isolation:isolate;opacity:.3}.st0,.st1{fill:#fffaf0;fill-rule:evenodd}.st2{fill:#a2a9a3}</style></defs><rect width="40" height="26" y="7" class="st2" rx="4" ry="4"/><path d="M2.941,17.621c0-.053.014-.106.042-.151l.461-.768c.053-.089.149-.143.252-.143h2.088c.162,0,.294.132.294.294v4.118c0,.162-.132.294-.294.294h-2.088c-.103,0-.199-.054-.252-.143l-.461-.768c-.027-.046-.042-.098-.042-.151v-2.582ZM6.471,16.853c0-.162.132-.294.294-.294h.98c.162,0,.294.132.294.294v1.569c0,.162-.132.294-.294.294h-.98c-.162,0-.294-.132-.294-.294v-1.569ZM8.726,16.559c-.162,0-.294.132-.294.294v2.157c0,.162.132.294.294.294h.98c.162,0,.294-.132.294-.294v-2.157c0-.162-.132-.294-.294-.294h-.98ZM6.471,19.402c0-.162.132-.294.294-.294h.98c.162,0,.294.132.294.294v1.569c0,.163-.132.294-.294.294h-.98c-.162,0-.294-.132-.294-.294v-1.569ZM8.726,19.696c-.162,0-.294.132-.294.294v.98c0,.162.132.294.294.294h.98c.162,0,.294-.132.294-.294v-.98c0-.162-.132-.294-.294-.294h-.98Z" class="st0"/><path d="M32.277,10.685c-.168-.112-.387-.112-.555,0l-2.597,1.731c-.082.055-.179.084-.277.084h-.849v1h.5c.276,0,.5.224.5.5v3c0,.276-.224.5-.5.5h-.5v1h8v-1h-.5c-.276,0-.5-.224-.5-.5v-3c0-.276.224-.5.5-.5h.5v-1h-.849c-.099,0-.195-.029-.277-.084l-2.597-1.731ZM34,14c0-.276-.224-.5-.5-.5h-.5c-.276,0-.5.224-.5.5v3c0,.276.224.5.5.5h.5c.276,0,.5-.224.5-.5v-3ZM31,13.5c.276,0,.5.224.5.5v3c0,.276-.224.5-.5.5h-.5c-.276,0-.5-.224-.5-.5v-3c0-.276.224-.5.5-.5h.5Z" class="st1"/></svg>