<svg xmlns="http://www.w3.org/2000/svg" viewBox="0 0 219 152"><defs><clipPath id="clippath"><path d="M.7.8h217.6v150.4H.7z" class="cls-1"/></clipPath><style>.cls-1,.cls-2,.cls-3{fill:none}.cls-4{fill:#99f6ff}.cls-2,.cls-3,.cls-5,.cls-6{stroke:#002140}.cls-5,.cls-6{fill:#003c73}.cls-7{fill:#4ed7de}.cls-8{fill:#5ab0ff}.cls-9{fill:#8dc8ff}.cls-10{fill:#002140}.cls-2,.cls-3,.cls-6{stroke-linecap:round;stroke-linejoin:round}.cls-11{fill:#50eef6}.cls-12{fill:#d18000}.cls-13{fill:#e5fafe}.cls-14{fill:#28736d}.cls-15{fill:#b0d9ff}.cls-16{fill:#e4bc07}.cls-3{stroke-width:.6px}.cls-17{clip-path:url(#clippath)}.cls-18{fill:#4ba6a6}</style></defs><g id="Layer_1" class="cls-17"><path d="M177.005 121.249c-3.656-3.272-7.288-4.08-7.821-4.186 1.573-.254 3.389-.398 5.485-.398 4.067 0 7.618 1.934 10.56 4.584z" class="cls-7"/><path d="M16.681 111.852a6.6 6.6 0 0 1-.912-.706l.955.72-.04-.011h-.003zM62.731 3.229c1.987 0 3.893.4 5.656 1.131 6.272 2.605 10.747 9.413 10.747 17.405 0 9.573-6.427 17.453-14.672 18.429q-.853.104-1.731.104c-1.731 0-3.4-.304-4.965-.867a15.3 15.3 0 0 1-3.405-1.725h-.005c-4.808-3.232-8.029-9.16-8.029-15.938 0-10.237 7.344-18.536 16.405-18.536zm2.592 7.016a9.4 9.4 0 0 0-2.592-.363c-5.808 0-10.517 5.32-10.517 11.883 0 3.992 1.744 7.525 4.416 9.68 1.72 1.387 3.827 2.203 6.101 2.203 5.808 0 10.515-5.32 10.515-11.882 0-5.552-3.368-10.216-7.923-11.52ZM17.15 114.21c.349-.47.877-.763 1.656-.944-.456.29-1.203.672-1.656.944" class="cls-11"/><path d="M179.061 123.383a20 20 0 0 0-2.056-2.134h8.224c.914.824 1.77 1.718 2.565 2.646a82 82 0 0 0-8.72-.184z" class="cls-7"/><path d="M172.087 125.577a9 9 0 0 0-.917-.869l.141-.165s2.683-.654 7.763-.832a82 82 0 0 1 8.72.184h.002c3.782 4.418 6.147 9.578 6.763 11.498 1.163 3.616-1.032 5.165-4.003 5.165h-9.557c-1.434 0-2.618-.101-3.634-.298l.016-.088c.389-6.2-2.323-11.366-5.294-14.595m5.315-88.244a2.45 2.45 0 0 0-2.445-2.448h-42.768a2.454 2.454 0 0 0-2.445 2.448v29.202a2.454 2.454 0 0 0 2.445 2.448h42.768a2.45 2.45 0 0 0 2.445-2.448zm.987 37.269h-50.064a4.98 4.98 0 0 1-3.186-1.149 5.01 5.01 0 0 1-1.832-3.869V34.158c0-2.76 2.258-5.019 5.018-5.019h50.064c1.122 0 2.162.373 3 1a5.02 5.02 0 0 1 2.021 4.019v35.426c0 2.76-2.259 5.019-5.021 5.019Z" class="cls-7"/><path d="M76.638 139.353H48.222c-3.616 0-4.824-.688-8.267-3.786-3.445-3.102-22.733-20.84-22.733-20.84l-.304-.134a2.3 2.3 0 0 1 .229-.384h.003c.453-.272 1.2-.653 1.656-.943.888-.203 2.107-.259 3.755-.259h83.698c3.474 0 6.277.448 8.677 1.709q.859.45 1.653 1.045c.518.387 1.459 1.192 2.662 2.262 5.213 4.632 15.359 14.205 17.317 16.165.829.829 1.453 1.536 1.917 2.211l-.195.2s.688 2.754-2.757 2.754h-33.408v-.344s-1.896-1.893-4.48-4.133c-1.749-1.517-3.616-2.581-7.232-2.581H73.018c-3.099 0-3.272 1.893-1.032 3.616 2.237 1.722 4.651 3.442 4.651 3.442Zm4.477-23.074H34.1c-4.947 0-5.384 1.994-3.571 4.136q.216.255.472.512a132 132 0 0 0 4.413 4.202c.504.462 1.032.944 1.613 1.48 2.24 2.067 4.651 2.758 8.784 2.758h71.813c4.821 0 6.554-.355 3.789-3.446q-.468-.522-.896-.989c-1.805-1.96-3.184-3.267-4.861-4.64a77 77 0 0 0-1.821-1.432c-3.107-2.376-7.328-2.565-11.862-2.579q-.61-.002-1.226-.002z" class="cls-11"/><path d="M18.806 113.266c-.779.181-1.307.474-1.656.944h-.003a2 2 0 0 0-.347.242c-.04.04-.072.027-.104-.026q.008-.149.008-.302c0-.429-.061-1.01-.155-1.541-.003-.435.005-.771.005-.771l.125.04h.003q.075.055.155.102l.019.01a6.6 6.6 0 0 0 2.243.846c.067.045.107.085.107.114 0 .07-.16.195-.4.342" class="cls-14"/><path d="M54.739 51.181h-34.45c-3.675 0-6.683 3.008-6.683 6.683v48.373c0 1.933.832 3.683 2.155 4.904l-3.005-2.264-3.64-2.739c-2.371-1.663-3.925-4.413-3.925-7.511V55.23c0-5.045 4.125-9.171 9.171-9.171h32.813l.013.085s4.523 2.843 6.072 4.005c.677.507 1.155.741 1.48 1.032Z" class="cls-18"/><path d="M160.074 123.511c0-.675.219-1.464.75-2.262h16.181a20 20 0 0 1 2.056 2.134l.013.328c-5.08.178-7.763.832-7.763.832l-.141.165c-3.053-2.525-7.685-3.157-10.837-.939h-.256q-.004-.123-.003-.258" class="cls-7"/><path d="M148.778 103.263c-1.141.328-2.36.485-3.6.485h-4.09c1.421-2.453 1.549-5.037-.128-7.49v-.301h2.152c1.242 0 2.2-.163 2.922-.509l.691.304c2.235 1.963 2.747 4.499 1.976 7.227l.077.285Z" class="cls-14"/><path d="M16.838 111.953a4 4 0 0 1-.155-.098c.011.002.027.008.04.01l.005.003.109.085Z" class="cls-11"/><path d="M101.973 116.281c4.534.014 8.755.203 11.862 2.579.658.504 1.258.973 1.821 1.432l-.099.12h-9.458l-4.126-3.963z" class="cls-4"/><path d="M162.52 119.516c.8-.584 1.824-1.128 3.114-1.581 1.011-.355 2.184-.654 3.544-.872q-.001.002.006 0c.533.106 4.165.914 7.821 4.186h-16.181c.386-.586.941-1.178 1.696-1.733" class="cls-7"/><path d="M140.96 96.258c1.677 2.453 1.549 5.037.128 7.49h-7.32c1.421-2.453 1.552-5.037-.128-7.49v-.301h7.32z" class="cls-14"/><path d="M160.823 121.249c-.53.798-.749 1.587-.749 2.262q0 .134.003.261c.013 2.347.264 2.717 2.45 4.904 2.584 2.584 7.88 7.362 7.88 7.362 2.334 2.142 3.862 3.622 6.958 4.222 1.016.197 2.2.298 3.634.298h9.557c2.971 0 5.166-1.549 4.003-5.165-.616-1.92-2.981-7.08-6.763-11.498h-.002a29 29 0 0 0-2.565-2.646h3.261c5.037 0 5.941.067 9.298 2.648 3.36 2.584 15.176 14.013 18.214 17.051.85.85 1.357 1.928 1.237 2.832-.131 1.018-1.056 1.816-3.176 1.816h-42.624c-5.293 0-7.232.776-11.752-2.971-4.522-3.744-13.821-12.397-17.178-15.626-.989-.95-1.461-1.84-1.549-2.619-.214-1.875 1.8-3.131 4.261-3.131z" class="cls-9"/><path d="M68.387 4.36a14.7 14.7 0 0 0-5.656-1.131c-9.061 0-16.405 8.299-16.405 18.536 0 6.779 3.221 12.707 8.029 15.938-6.915-2.872-11.322-9.917-11.322-17.768 0-10.237 7.344-18.536 16.405-18.536 2.893 0 6.616 1.411 8.976 2.896z" class="cls-7"/><path d="M19.099 112.809a6.6 6.6 0 0 1-2.243-.845l-.019-.011-.109-.085c.507.171 1.965.667 2.371.941" class="cls-11"/><path d="M16.588 115.393c-.411 2.192-1.859 3.811-3.584 3.811-1.045 0-1.989-.595-2.661-1.549-.645-.915-1.043-2.158-1.043-3.531 0-2.621 1.448-4.779 3.307-5.051l.149-.197 3.005 2.264.008.005q.265.248.555.462c.083.258.163.605.227.976.003.688.029 1.621.147 1.842a7 7 0 0 1-.109.968Z" class="cls-18"/><path d="M106.894 112.919H20.289c-.405 0-.805-.038-1.189-.11-.405-.274-1.864-.77-2.371-.941l-.005-.003-.955-.72-.008-.005a6.67 6.67 0 0 1-2.155-4.904V57.863c0-3.675 3.008-6.683 6.683-6.683h34.45c.421.371.587.829.587 2.067v4.003q0 .2.024.389H24.652a4.34 4.34 0 0 0-4.328 4.328v39.13a4.34 4.34 0 0 0 4.328 4.331h77.362a4.344 4.344 0 0 0 4.33-4.331v-39.13a4.34 4.34 0 0 0-4.33-4.328H74.547q.024-.356.024-.776c0-2.584-.131-3.616-.131-5.296q.001-.199-.019-.387h32.472c1.264 0 2.447.355 3.458.971a6.7 6.7 0 0 1 3.224 5.712v48.373c0 3.677-3.005 6.683-6.682 6.683Z" class="cls-11"/><path d="M71.987 47.693c1.488.957 2.317 2.016 2.435 3.488H54.74c-.325-.291-.803-.525-1.48-1.032-1.549-1.163-6.072-4.005-6.072-4.005l-.013-.085h10.477v.539a2.785 2.785 0 0 0 2.776 2.776h1.291a2.787 2.787 0 0 0 2.779-2.776v-.539h4.955c.827.536 1.683 1.085 2.536 1.635Z" class="cls-11"/><path d="M155.522 81.199c-2.456-1.421-5.037-1.549-7.493.131h-.096v-6.728h8.093v6.597z" class="cls-14"/><path d="m125.029 73.588-5.496-4.152a6.88 6.88 0 0 1-2.448-5.256V31.269c0-3.789 3.099-6.888 6.888-6.888h47.84c1.797 0 3.077.709 4.666 1.832l4.995 3.813-.085.112a5 5 0 0 0-3-1h-50.064c-2.76 0-5.019 2.259-5.019 5.019v35.426c0 1.552.715 2.947 1.832 3.869z" class="cls-18"/><path d="M55.35 57.639h19.197c-.141 1.941-.904 2.453-3.205 2.453H58.425c-1.675 0-2.904-.885-3.075-2.453" class="cls-11"/><path d="M16.55 112.583c.093.53.155 1.112.155 1.541q0 .153-.008.301c-.117-.221-.144-1.154-.147-1.842" class="cls-18"/><path d="M77.326 125.06h-9.645v-.171l-4.52-4.477h9.936l4.229 4.131z" class="cls-4"/><path d="M98.285 46.058c1.704 0 3.304.472 4.675 1.288l7.509 4.621-.114.184a6.63 6.63 0 0 0-3.459-.971H74.424c-.117-1.472-.947-2.531-2.435-3.488-.853-.549-1.709-1.099-2.536-1.635h28.834z" class="cls-18"/><path d="M89.382 125.06H77.326v-.517l-4.229-4.131h11.981l4.304 4.304zm25.679 4.307h-10.978v-.344l-4.126-3.963h10.979l4.125 3.963z" class="cls-4"/><path d="M49.126 43.301c1.613 0 5.293.056 8.395.096h.131v2.661H47.175c-.061-.472-.248-2.757 1.952-2.757Z" class="cls-11"/><path d="M90.414 132.295c3.616 0 5.483 1.064 7.232 2.581 2.584 2.24 4.48 4.133 4.48 4.133v.344H76.638s-2.413-1.72-4.651-3.442c-2.24-1.723-2.067-3.616 1.032-3.616zm29.965-7.235h-9.443l-4.837-4.648h9.458l.099-.12c1.677 1.373 3.056 2.68 4.861 4.64z" class="cls-4"/><path d="M57.766 39.432a14.6 14.6 0 0 0 6.696.763l.035.267v5.597h-6.845V39.75l.115-.317Z" class="cls-11"/><path d="M56.665 31.4a9.4 9.4 0 0 0 2.773.419c5.808 0 10.514-5.32 10.514-11.882 0-4.099-1.837-7.555-4.629-9.691 4.555 1.304 7.923 5.968 7.923 11.52 0 6.563-4.707 11.882-10.514 11.882-2.275 0-4.381-.816-6.101-2.203z" class="cls-18"/><path d="M47.081 116.279v.17l4.125 3.963h-9.88l-4.125-3.963v-.17z" class="cls-4"/><path d="M126.45 103.748c1.419-2.453 1.55-5.037-.13-7.49v-.301h7.32v.301c1.68 2.453 1.549 5.037.128 7.49z" class="cls-14"/><path d="m16.918 114.594.304.133s19.288 17.738 22.733 20.84c3.443 3.098 4.651 3.786 8.267 3.786h87.311c3.446 0 2.758-2.754 2.758-2.754l.194-.2c.886 1.29 1.182 2.466 1.182 4.16v4.824c0 2.754-1.032 3.789-5.51 3.789H48.222c-6.029 0-7.579-1.208-10.851-3.963a170 170 0 0 1-1.307-1.114l-.016-.286c2.253-.138 2.528-.853 2.528-2.389 0-1.72 0-2.237-1.291-3.443 0 0-.776-.69-2.669-2.24-1.896-1.549-2.584-1.376-5.168-1.376-1.563 0-3.253-.253-4.344.272l-.083-.157c-2.229-1.955-4.12-3.613-5.045-4.421-2.755-2.411-3.443-3.616-3.443-6.718v-6.2c0-.68.037-1.25.128-1.728q.09-.464.256-.815Z" class="cls-18"/><path d="M30.529 120.415c-1.813-2.142-1.376-4.136 3.571-4.136h3.101v.17l4.125 3.963H30.529z" class="cls-4"/><path d="M9.646 122.305c-3.272 0-3.789 2.928-1.379 5.51 2.411 2.584 5.339 5.341 7.749 7.405 2.411 2.067 3.531 1.981 5.253 1.981h4.563c2.067 0 2.584 4.048.173 4.048h-4.477c-4.994 0-6.373-1.034-9.472-3.616-3.101-2.584-3.272-3.272-7.061-6.717s-3.272-4.821-3.272-7.405 2.411-5.856 6.027-5.856h2.592c.672.955 1.616 1.549 2.661 1.549 1.725 0 3.173-1.618 3.584-3.81l.075.016c-.091.477-.128 1.048-.128 1.728v5.167zm138.828-29.53-.634-.072a9 9 0 0 0 .093-1.397v-2.659h.096c2.456-1.677 5.037-1.549 7.493-.128h.504v4.339c0 1.709-.264 3.203-.736 4.488l-.274-.101c-1.272-2.691-3.424-4.379-6.542-4.469Z" class="cls-14"/><path d="M99.957 125.06H89.381v-.344l-4.304-4.304H95.12zm-30.919-8.781v.17l4.059 3.963h-9.936l-4.003-3.963v-.17z" class="cls-4"/><path d="M64.624 43.432c1.189.085 1.371.355 2.195.904.819.544 1.709 1.125 2.632 1.723h-4.955v-2.627z" class="cls-11"/><path d="M119.131 103.748c1.421-2.453 1.549-5.037-.131-7.49v-.301h7.32v.301c1.68 2.453 1.549 5.037.131 7.49zm.119 14.275c-1.202-1.07-2.144-1.875-2.661-2.262a12 12 0 0 0-1.653-1.045l.061-.117c1.421-1.291 3.099-1.291 8.008-1.291h31.773c5.941 0 6.587 1.032 10.72 4.133l.136.494c-1.291.453-2.315.997-3.115 1.581l-.12-.267c-2.712-2.197-2.842-2.325-6.458-2.325h-29.965c-3.747 0-6.2-.259-6.328.904z" class="cls-14"/><path d="M113.576 95.956H119v.301c1.68 2.453 1.552 5.037.131 7.49h-5.555v-7.792Z" class="cls-14"/><path d="m101.973 116.449 4.126 3.963H95.12l-4.125-3.963v-.17h9.752q.617 0 1.226.002zm-45.93 8.611h-9.88l-4.837-4.648h9.88z" class="cls-4"/><path d="M148.029 81.33c2.456-1.68 5.037-1.552 7.493-.131h.504v7.32h-.504c-2.456-1.421-5.037-1.549-7.493.128h-.096V81.33z" class="cls-14"/><path d="M60.168 129.367h-9.88v-.344l-4.125-3.963h9.88l4.125 3.963zm20.947-13.088v.17l3.963 3.963H73.097l-4.059-3.963v-.17z" class="cls-4"/><path d="M26.006 141.249c2.411 0 1.893-4.048-.173-4.048H23.94v-.259c0-1.29.456-1.965 1.165-2.309 1.091-.525 2.781-.272 4.344-.272 2.584 0 3.272-.173 5.168 1.376 1.893 1.549 2.669 2.24 2.669 2.24 1.291 1.205 1.291 1.723 1.291 3.443 0 1.536-.275 2.25-2.528 2.389q-.412.024-.915.024h-5.339c-1.723 0-3.789-2.584-3.789-2.584" class="cls-18"/><path d="M104.083 129.367H60.168v-.344l-4.125-3.963h43.914l4.126 3.963zm6.853-4.307H99.957l-4.837-4.648h10.979zm-43.255 0H56.044l-4.837-4.648h11.954l4.52 4.477zm-32.203 0h10.685l4.125 3.963v.344h-4.477c-4.133 0-6.544-.691-8.784-2.758-.581-.536-1.109-1.018-1.613-1.48z" class="cls-4"/><path d="M30.827 120.412h10.499l4.837 4.648H35.478l-.064.069a130 130 0 0 1-4.413-4.202 8 8 0 0 1-.472-.512h.299z" class="cls-4"/><path d="M160.077 123.772h.256c3.152-2.221 7.784-1.589 10.837.936q.488.404.917.869c2.971 3.23 5.683 8.395 5.293 14.595l-.016.088c-3.095-.6-4.623-2.08-6.957-4.221 0 0-5.296-4.779-7.88-7.363-2.186-2.187-2.437-2.557-2.45-4.904" class="cls-7"/><path d="M59.158 116.279v.17l4.003 3.963H51.206l-4.125-3.963v-.17z" class="cls-4"/><path d="M65.334 57.381a2.39 2.39 0 1 1 .002-4.78 2.39 2.39 0 0 1-.002 4.78" class="cls-11"/><path d="M146.034 95.447c1.051-.504 1.603-1.397 1.806-2.744l.634.072c3.117.091 5.269 1.779 6.541 4.469l.275.101c-1.163 3.17-3.6 5.088-6.512 5.917l-.077-.285c.77-2.728.258-5.264-1.976-7.227l-.691-.304Z" class="cls-14"/><path d="M90.995 116.279v.17l4.125 3.963H85.077l-3.963-3.963v-.17h9.88Zm30.418 9.642c2.766 3.091 1.032 3.446-3.789 3.446h-2.563v-.344l-4.125-3.963h9.443l.138-.128q.428.467.896.989" class="cls-4"/><path d="M64.496 46.058v.539a2.787 2.787 0 0 1-2.779 2.776h-1.291a2.785 2.785 0 0 1-2.776-2.776v-.539z" class="cls-11"/><path d="m217.292 143.788-.064 5.202c-.17.976-1.104 1.731-3.165 1.731h-42.624c-5.293 0-7.232.773-11.751-2.971-4.523-3.746-13.822-12.4-17.179-15.629-.731-.701-1.179-1.368-1.4-1.984l-.149-.557v-5.2c.088.779.56 1.669 1.549 2.619 3.357 3.229 12.656 11.882 17.179 15.626 4.519 3.747 6.458 2.971 11.751 2.971h42.624c2.12 0 3.045-.798 3.176-1.816z" class="cls-8"/><path d="M185.229 121.249h3.261c5.037 0 5.941.067 9.298 2.648 3.36 2.584 15.176 14.013 18.214 17.051.85.85 1.357 1.928 1.237 2.832-.131 1.018-1.056 1.816-3.176 1.816h-42.624c-5.293 0-7.232.776-11.752-2.971-4.522-3.744-13.821-12.397-17.178-15.626-.989-.95-1.461-1.84-1.549-2.619-.214-1.875 1.8-3.131 4.261-3.131h15.602" class="cls-2"/><path d="M141.109 130.137c.221.616.669 1.283 1.4 1.984 3.357 3.229 12.656 11.883 17.178 15.629 4.52 3.744 6.459 2.971 11.752 2.971h42.624c2.061 0 2.994-.755 3.165-1.731l.064-5.202m-76.332-19.891v5.683M74.422 51.181h32.471c1.264 0 2.448.355 3.459.971a6.7 6.7 0 0 1 3.224 5.712v48.373c0 3.677-3.005 6.683-6.683 6.683H20.289c-.405 0-.805-.038-1.189-.11a6.6 6.6 0 0 1-2.243-.845m-1.096-.825a6.67 6.67 0 0 1-2.155-4.904V57.863c0-3.675 3.008-6.683 6.683-6.683h34.45m-37.901 60.773a3 3 0 0 1-.155-.098h-.003a7 7 0 0 1-.912-.709m82.517-65.088c1.704 0 3.304.472 4.675 1.288l.005.003m8.043 4.952-.541-.333-7.51-4.619" class="cls-2"/><path d="M47.174 46.058H14.361c-5.045 0-9.171 4.125-9.171 9.171v43.397c0 3.098 1.555 5.848 3.925 7.511l3.64 2.739 3.005 2.264.008.005.955.72s.003.003.005.003l.109.085.019.011.339.256m81.091-66.162H69.452m-33.387 98.037c.515.442.957.821 1.307 1.114 3.272 2.755 4.821 3.963 10.851 3.963h85.935c4.478 0 5.51-1.035 5.51-3.789v-4.824c0-1.694-.296-2.87-1.182-4.16-.464-.675-1.088-1.382-1.917-2.211-1.957-1.96-12.104-11.533-17.317-16.165-1.203-1.07-2.144-1.875-2.662-2.262q-.794-.595-1.653-1.045c-2.4-1.261-5.203-1.709-8.677-1.709H22.561c-1.648 0-2.867.056-3.755.259-.779.181-1.307.474-1.656.943h-.003a2.3 2.3 0 0 0-.229.384 3.5 3.5 0 0 0-.256.816c-.091.478-.128 1.048-.128 1.728v6.2c0 3.102.688 4.307 3.443 6.718.925.808 2.816 2.466 5.045 4.421" class="cls-2"/><path d="M17.222 114.727s19.288 17.738 22.733 20.839c3.443 3.099 4.651 3.787 8.267 3.787h87.311c3.445 0 2.757-2.755 2.757-2.755" class="cls-2"/><path d="M76.638 139.353s-2.413-1.72-4.651-3.442c-2.24-1.723-2.067-3.616 1.032-3.616h17.394c3.616 0 5.483 1.064 7.232 2.581 2.584 2.24 4.48 4.133 4.48 4.133m12.936-9.642h2.563c4.821 0 6.554-.355 3.789-3.446q-.467-.522-.896-.989c-1.805-1.96-3.184-3.267-4.861-4.64a77 77 0 0 0-1.821-1.432c-3.107-2.376-7.328-2.565-11.862-2.579q-.61-.002-1.226-.002H34.099c-4.947 0-5.384 1.994-3.571 4.136q.216.255.472.512a132 132 0 0 0 4.413 4.202c.504.462 1.032.944 1.613 1.48 2.24 2.067 4.651 2.758 8.784 2.758h69.25Zm-84.234-8.955h84.73m-80.079 4.648h84.901" class="cls-2"/><path d="m37.201 116.449 4.125 3.963 4.837 4.648 4.125 3.962m-3.207-12.573 4.125 3.963 4.837 4.648 4.125 3.962m-1.01-12.573 4.003 3.963 4.52 4.477m1.357-8.44 4.059 3.963 4.229 4.13m3.789-8.093 3.963 3.963 4.304 4.304m1.613-8.267 4.125 3.963 4.837 4.648 4.126 3.962m-2.11-12.573 4.126 3.963 4.837 4.648 4.125 3.962m-98.737-17.415c.083.258.163.605.227.976.093.53.155 1.112.155 1.541q0 .153-.008.301a7 7 0 0 1-.109.968c-.411 2.192-1.859 3.811-3.584 3.811-1.045 0-1.989-.595-2.661-1.549-.645-.915-1.043-2.158-1.043-3.531 0-2.621 1.448-4.779 3.307-5.051m.396 10.131h3.013" class="cls-2"/><path d="M10.161 117.655H7.75c-3.616 0-6.027 3.272-6.027 5.856s-.517 3.96 3.272 7.405 3.96 4.133 7.061 6.717c3.099 2.582 4.477 3.616 9.472 3.616h4.477c2.41 0 1.893-4.048-.173-4.048h-4.563c-1.723 0-2.843.086-5.253-1.981-2.411-2.064-5.339-4.821-7.749-7.405-2.411-2.582-1.893-5.51 1.379-5.51h6.715m-6.008-4.65h-.011m0 0h-.181" class="cls-2"/><path d="M23.94 136.942c0-1.29.456-1.965 1.165-2.309 1.091-.525 2.781-.272 4.344-.272 2.584 0 3.272-.173 5.168 1.376 1.893 1.549 2.669 2.24 2.669 2.24 1.291 1.205 1.291 1.723 1.291 3.443 0 1.536-.275 2.25-2.528 2.389q-.412.024-.915.024h-5.339c-1.723 0-3.789-2.584-3.789-2.584m87.655-45.293h29.451c1.242 0 2.2-.163 2.922-.509 1.051-.504 1.603-1.397 1.806-2.744a9 9 0 0 0 .093-1.397V74.775" class="cls-2"/><path d="M113.576 103.748h31.602c1.24 0 2.459-.157 3.6-.485 2.912-.829 5.35-2.747 6.512-5.917.472-1.285.736-2.779.736-4.488V74.946m25.363-44.808a5.02 5.02 0 0 1 2.021 4.019v35.426c0 2.76-2.259 5.019-5.021 5.019h-50.064a4.98 4.98 0 0 1-3.186-1.149 5.01 5.01 0 0 1-1.832-3.869V34.158c0-2.76 2.258-5.019 5.018-5.019h50.064c1.122 0 2.162.373 3 1Z" class="cls-2"/><path d="m125.029 73.588-5.496-4.152a6.88 6.88 0 0 1-2.448-5.256V31.269c0-3.789 3.099-6.888 6.888-6.888h47.84c1.797 0 3.077.709 4.666 1.832l4.995 3.813.867.661" class="cls-2"/><rect width="85.4" height="47" x="20.4" y="58.1" class="cls-5" rx="4.3" ry="4.3"/><path d="m76 77.401-13.308-9.765-12.844 9.822.233 2.788v12.262h-.582v2.035h5.172v-1.048h5.405v.988h5.461v-.988h5.232v1.163h5.346v-1.976h-.581V79.956L76 77.399Z" class="cls-15"/><path d="M54.324 80.017h-4.242v12.436h4.242zm10.461.173h-4.069v12.436h4.069zm10.751.058h-4.127V92.51h4.127z" class="cls-13"/><path d="M54.323 88.21h6.393v-8.02l-.348-2.673h-5.754l-.408 2.906zm10.578 0h6.391v-8.02l-.348-2.673H65.19l-.406 2.906z" class="cls-8"/><path d="M55.989 88.114h3.1v-4.882s-.116-1.589-1.512-1.589-1.473 1.704-1.473 1.704l-.116 4.766Zm10.545-.041 3.014.04v-4.882s-.116-1.589-1.511-1.589-1.473 1.704-1.473 1.704l-.032 4.726z" class="cls-10"/><path d="M56.224 75.657h13.25l-6.724-5.521z" class="cls-9"/><path d="M49.74 77.438h26.15L62.815 67.5zm0 0s.349 1.512.349 2.731h4.125c0-1.221.349-2.731.349-2.731m-4.475 2.731v12.262m4.125-12.262v12.205m-1.995-12.03v11.972m2.596.255h-5.283v1.937h5.283zm16.195-15.133s.349 1.512.349 2.731h4.127c0-1.221.349-2.731.349-2.731m-4.477 2.731v12.262m4.127-12.262v12.205m-1.995-12.03v11.972m2.595.255h-5.282v1.937h5.282zM60.403 77.438s.349 1.512.349 2.731h4.127c0-1.221.349-2.731.349-2.731m-4.476 2.731v12.262m4.126-12.262v12.205m-1.995-12.03v11.972m2.594.255h-5.283v1.937h5.283zm-10.624.878h5.342m5.583 0h5.023m-16.413-2.645h6.16m-6.16-2.615h6.16m4.418 2.615h6.16m-6.16-2.615h6.16m-12.031-.058v-4.969a1.54 1.54 0 0 0-3.08 0v4.911m10.518 0v-4.911a1.54 1.54 0 0 1 3.08 0v4.969" class="cls-3"/><path d="M177.402 66.535a2.45 2.45 0 0 1-2.445 2.448h-42.768a2.454 2.454 0 0 1-2.445-2.448V37.333a2.454 2.454 0 0 1 2.445-2.448h42.768a2.45 2.45 0 0 1 2.445 2.448z" class="cls-6"/><path d="M161.461 51.175H145.5v5.474s.154 6.65 8.493 6.599c5.473 0 7.572-4.911 7.623-6.957s-.155-5.116-.155-5.116" class="cls-7"/><path d="M147.086 51.124H145.5v5.679s.613 6.191 7.162 6.343c0 0-5.321-1.331-5.679-7.213-.205-3.273.102-4.809.102-4.809Z" class="cls-18"/><path d="M153.942 52.454s1.381.87 1.381 1.79-.613 2.046-.971 2.149l.768 4.708 1.176-.205-.717-4.809s1.227-.819 1.024-1.79-.921-2.2-2.66-1.841z" class="cls-12"/><path d="M154.35 56.394s1.007-.904 1.007-1.893-.954-1.91-1.705-1.91-1.24 1.264-1.228 1.534c.011.271.444 1.604.989 1.978l-.921 4.877s2.114.444 2.626.119l-.768-4.707v.003Z" class="cls-10"/><path d="m150.002 51.073-.114-.971s.171-.256-.626-.256-2.163.051-2.163.051-.455.051-.455.409v.768h3.358Zm10.607 0-.114-.971s.171-.256-.626-.256-2.163.051-2.163.051-.455.051-.455.409v.768h3.36-.002Z" class="cls-12"/><path d="m160.268 49.658-.127-2.886s-1.204-5.537-6.542-5.367c-5.336.171-6.524 5.289-6.524 5.289l-.313 3.034 2.885-.068.014-2.49s.891-2.996 3.958-3.033 3.682 3.067 3.682 3.067l.341 2.592 2.626-.136z" class="cls-16"/><path d="M161.588 51.136v4.769a7.332 7.332 0 0 1-14.663 0v-4.769z" class="cls-3"/><path d="M154.615 63.237c-6.553 0-9.101-3.283-9.101-7.333v-4.769h1.858" class="cls-3"/><path d="M156.574 54.396a2.07 2.07 0 1 0-3.133 1.773l-1.03 4.727s1.754 1.035 3.868 0l-.855-4.65a2.07 2.07 0 0 0 1.148-1.852h.002Z" class="cls-3"/><path d="m155.066 61.077-.856-4.65a2.068 2.068 0 0 0-.504-3.88m-7.13-1.511v-.757c0-.253.236-.456.527-.456h2.372c.291 0 .527.205.527.456v.757m7.181 0v-.757c0-.253.236-.456.527-.456h2.371c.292 0 .528.205.528.456v.757m-10.963-1.214v-1.873a3.952 3.952 0 0 1 7.904 0v1.856" class="cls-3"/><path d="M160.268 49.804v-1.732a6.668 6.668 0 1 0-13.336 0v1.75" class="cls-3"/><path d="M119 96.258c1.68 2.453 1.552 5.037.131 7.49m7.189-7.49c1.68 2.453 1.549 5.037.13 7.49m7.19-7.49c1.68 2.453 1.549 5.037.128 7.49m7.192-7.49c1.677 2.453 1.549 5.037.128 7.49m5.637-7.997c2.235 1.963 2.747 4.499 1.976 7.227m-.226-10.203c3.117.091 5.269 1.779 6.541 4.469m-6.987-8.597c2.456-1.677 5.038-1.549 7.494-.128m-7.494-7.189c2.456-1.68 5.038-1.552 7.494-.131m13.655 35.864c-1.36.218-2.533.517-3.544.872-1.29.453-2.314.997-3.114 1.581-.755.555-1.31 1.147-1.696 1.733-.531.798-.75 1.587-.75 2.262q0 .134.003.261c.013 2.347.264 2.717 2.451 4.904 2.584 2.584 7.879 7.363 7.879 7.363 2.334 2.141 3.862 3.621 6.958 4.221 1.016.197 2.2.299 3.634.299h9.558c2.97 0 5.165-1.55 4.002-5.166-.616-1.92-2.981-7.08-6.762-11.498" class="cls-2"/><path d="M187.794 123.895a29 29 0 0 0-2.565-2.646c-2.942-2.65-6.493-4.584-10.56-4.584-2.096 0-3.912.144-5.485.398m-8.851 6.706c3.152-2.218 7.784-1.586 10.837.939q.489.405.918.869c2.97 3.23 5.682 8.395 5.293 14.595" class="cls-2"/><path d="M171.312 124.543s2.682-.654 7.762-.832a82 82 0 0 1 8.72.184h.003l.048.002m-18.728-6.845s.021 0 .061.011q-.001.002.005 0c.534.106 4.166.914 7.822 4.186a20 20 0 0 1 2.056 2.134m-64.064-8.784c1.422-1.291 3.099-1.291 8.008-1.291h31.773c5.942 0 6.587 1.032 10.72 4.133" class="cls-2"/><path d="M162.399 119.249c-2.712-2.197-2.842-2.325-6.458-2.325h-29.965c-3.747 0-6.2-.259-6.328.904" class="cls-2"/><path d="M57.52 43.397c-3.101-.04-6.781-.096-8.395-.096-2.2 0-2.013 2.285-1.952 2.757l.013.085s4.523 2.843 6.072 4.005c.677.507 1.155.741 1.48 1.032.421.371.587.829.587 2.067v4.003q0 .2.024.389c.171 1.568 1.4 2.453 3.075 2.453h12.917c2.301 0 3.064-.512 3.205-2.453q.024-.356.024-.776c0-2.584-.131-3.616-.131-5.296q.001-.199-.019-.387c-.117-1.472-.947-2.531-2.435-3.488-.853-.549-1.709-1.099-2.536-1.635a261 261 0 0 1-2.632-1.723c-.824-.549-1.005-.819-2.195-.904" class="cls-11"/><path d="M57.52 43.397c-3.101-.04-6.781-.096-8.395-.096-2.2 0-2.013 2.285-1.952 2.757l.013.085s4.523 2.843 6.072 4.005c.677.507 1.155.741 1.48 1.032.421.371.587.829.587 2.067v4.003q0 .2.024.389c.171 1.568 1.4 2.453 3.075 2.453h12.917c2.301 0 3.064-.512 3.205-2.453q.024-.356.024-.776c0-2.584-.131-3.616-.131-5.296q.001-.199-.019-.387c-.117-1.472-.947-2.531-2.435-3.488-.853-.549-1.709-1.099-2.536-1.635a261 261 0 0 1-2.632-1.723c-.824-.549-1.005-.819-2.195-.904" class="cls-2"/><path d="M67.726 54.991a2.39 2.39 0 0 1-4.781 0 2.39 2.39 0 0 1 4.781 0m-3.23-14.53v6.136a2.787 2.787 0 0 1-2.779 2.776h-1.291a2.785 2.785 0 0 1-2.776-2.776v-6.848" class="cls-2"/><path d="M54.355 37.704c-4.808-3.232-8.029-9.16-8.029-15.939 0-10.237 7.344-18.536 16.405-18.536 1.987 0 3.893.4 5.656 1.131 6.272 2.605 10.747 9.413 10.747 17.405 0 9.573-6.427 17.453-14.672 18.429q-.853.104-1.731.104c-1.731 0-3.4-.304-4.965-.867a15.3 15.3 0 0 1-3.405-1.725" class="cls-2"/><path d="M65.323 10.245c4.555 1.304 7.923 5.968 7.923 11.52 0 6.563-4.707 11.883-10.515 11.883-2.275 0-4.381-.816-6.101-2.203-2.672-2.155-4.416-5.688-4.416-9.68 0-6.563 4.709-11.883 10.517-11.883.893 0 1.763.125 2.592.363" class="cls-2"/><path d="M54.464 37.749q-.052-.02-.104-.043h-.005c-6.915-2.872-11.322-9.917-11.322-17.768 0-10.237 7.344-18.536 16.405-18.536 2.893 0 6.616 1.411 8.976 2.896" class="cls-2"/><path d="m65.312 10.237.011.008c2.792 2.136 4.629 5.592 4.629 9.691 0 6.563-4.707 11.882-10.514 11.882-.96 0-1.891-.147-2.773-.419" class="cls-2"/></g></svg>