<?xml version="1.0" encoding="UTF-8"?>
<svg xmlns="http://www.w3.org/2000/svg" xmlns:xlink="http://www.w3.org/1999/xlink" version="1.1" viewBox="0 0 234 163">
  <defs>
    <style>
      .cls-1, .cls-2, .cls-3 {
        fill: none;
      }

      .cls-4 {
        fill: #99f6ff;
      }

      .cls-5 {
        fill: #4ed7de;
      }

      .cls-6, .cls-7 {
        fill: #002140;
      }

      .cls-6, .cls-2, .cls-8, .cls-3 {
        stroke: #002140;
        stroke-linecap: round;
        stroke-linejoin: round;
      }

      .cls-6, .cls-3 {
        stroke-width: 1px;
      }

      .cls-9 {
        fill: #5ab0ff;
      }

      .cls-10 {
        fill: #fffaf0;
      }

      .cls-11, .cls-8, .cls-12 {
        fill: #0164bf;
      }

      .cls-13 {
        fill: #8dc8ff;
      }

      .cls-14 {
        fill: #50eef6;
      }

      .cls-15 {
        fill: #5be3aa;
      }

      .cls-16 {
        fill: #28736d;
      }

      .cls-17 {
        fill: #b0d9ff;
      }

      .cls-18 {
        fill: #fed607;
      }

      .cls-19 {
        fill: #ff7101;
      }

      .cls-20 {
        fill: #fbccff;
      }

      .cls-21 {
        fill: #e4bc07;
      }

      .cls-22 {
        clip-path: url(#clippath);
      }

      .cls-12 {
        fill-rule: evenodd;
      }

      .cls-23 {
        fill: #4ba6a6;
      }
    </style>
    <clipPath id="clippath">
      <rect class="cls-1" x=".5" y=".5" width="233" height="162"/>
    </clipPath>
  </defs>
  <!-- Generator: Adobe Illustrator 28.6.0, SVG Export Plug-In . SVG Version: 1.2.0 Build 709)  -->
  <g>
    <g id="Layer_1">
      <g class="cls-22">
        <g>
          <path class="cls-11" d="M189.922,27.376c0-1.451-1.176-2.637-2.618-2.637h-45.795c-1.439,0-2.618,1.186-2.618,2.637v31.455c0,1.451,1.179,2.637,2.618,2.637h45.795c1.442,0,2.618-1.186,2.618-2.637v-31.455Z"/>
          <path class="cls-5" d="M189.496,117.765c-3.914-3.524-7.803-4.394-8.374-4.509,1.684-.273,3.629-.428,5.873-.428,4.355,0,8.158,2.082,11.307,4.937h-8.806Z"/>
          <path class="cls-14" d="M17.826,107.643c-.131-.083-.26-.172-.383-.264-.206-.155-.405-.319-.594-.497l1.022.775s-.031-.008-.043-.011h-.003v-.003Z"/>
          <path class="cls-14" d="M18.329,110.182c.374-.505.939-.821,1.773-1.016-.488.313-1.288.723-1.773,1.016Z"/>
          <path class="cls-5" d="M191.698,120.063c-.719-.87-1.462-1.631-2.201-2.298h8.806c.979.888,1.895,1.85,2.746,2.849-3.657-.264-6.781-.287-9.337-.198l-.014-.353Z"/>
          <path class="cls-5" d="M184.231,122.427c-.305-.333-.634-.646-.982-.936l.151-.179s2.873-.703,8.312-.896c2.556-.089,5.68-.066,9.337.198h.003c4.049,4.76,6.582,10.318,7.241,12.386,1.245,3.895-1.105,5.564-4.285,5.564h-10.234c-1.536,0-2.804-.11-3.892-.322l.017-.095c.417-6.678-2.487-12.242-5.668-15.72Z"/>
          <path class="cls-5" d="M189.922,27.376c0-1.451-1.176-2.637-2.618-2.637h-45.795c-1.439,0-2.618,1.186-2.618,2.637v31.455c0,1.451,1.179,2.637,2.618,2.637h45.795c1.442,0,2.618-1.186,2.618-2.637v-31.455ZM190.978,67.52h-53.606c-1.294,0-2.484-.465-3.412-1.238-1.197-.994-1.962-2.496-1.962-4.168V23.955c0-2.973,2.419-5.406,5.374-5.406h53.606c1.203,0,2.316.402,3.213,1.077,1.31.988,2.164,2.562,2.164,4.329v38.159c0,2.973-2.418,5.406-5.377,5.406Z"/>
          <path class="cls-14" d="M82.026,137.265h-30.427c-3.872,0-5.165-.741-8.852-4.079-3.689-3.34-24.342-22.447-24.342-22.447l-.325-.143c.071-.152.154-.29.245-.414h.003c.485-.293,1.285-.704,1.773-1.017.951-.218,2.256-.278,4.02-.278h89.622c3.72,0,6.721.482,9.291,1.841.614.324,1.202.698,1.77,1.126.554.416,1.562,1.284,2.85,2.436,5.582,4.989,16.447,15.3,18.543,17.411.888.894,1.556,1.655,2.053,2.382l-.209.215s.737,2.967-2.952,2.967h-35.772v-.37s-2.03-2.04-4.797-4.452c-1.873-1.635-3.872-2.781-7.744-2.781h-18.625c-3.318,0-3.504,2.039-1.105,3.895,2.396,1.856,4.98,3.708,4.98,3.708ZM86.821,112.411h-50.343c-5.297,0-5.765,2.149-3.823,4.455.154.184.323.368.505.551,1.845,1.856,3.181,3.1,4.726,4.527.54.497,1.105,1.017,1.728,1.594,2.398,2.226,4.98,2.97,9.405,2.97h76.895c5.163,0,7.019-.382,4.058-3.711-.334-.376-.654-.729-.96-1.065-1.933-2.111-3.409-3.519-5.205-4.998-.602-.494-1.245-1-1.95-1.543-3.327-2.559-7.847-2.763-12.701-2.777-.434-.003-.874-.003-1.313-.003h-21.021Z"/>
          <path class="cls-16" d="M20.102,109.166c-.834.195-1.399.511-1.773,1.016h-.003c-.174.107-.308.199-.371.262-.043.043-.077.028-.111-.029.006-.106.008-.215.008-.325,0-.462-.066-1.088-.166-1.66-.003-.468.006-.83.006-.83,0,0,.049.014.134.043h.003c.054.04.109.075.166.109l.02.012c.728.439,1.536.755,2.401.91.071.049.114.092.114.124,0,.075-.171.21-.428.368Z"/>
          <path class="cls-23" d="M84.877,42.292H21.69c-3.935,0-7.156,3.24-7.156,7.198v52.104c0,2.083.891,3.967,2.307,5.282l-3.218-2.438-3.898-2.95c-2.538-1.792-4.203-4.754-4.203-8.091v-46.744c0-5.434,4.417-9.878,9.82-9.878h61.434s6.442,4.265,8.101,5.518c.725.546-.348-.313,0,0Z"/>
          <path class="cls-5" d="M171.368,120.201c0-.727.234-1.577.802-2.436h17.326c.74.667,1.482,1.428,2.202,2.298l.014.353c-5.439.193-8.312.896-8.312.896l-.151.179c-3.27-2.721-8.229-3.401-11.604-1.012h-.274c-.003-.089-.003-.18-.003-.278Z"/>
          <path class="cls-16" d="M159.272,98.391c-1.222.353-2.527.523-3.854.523h-4.381c1.522-2.643,1.659-5.426-.137-8.068v-.325h2.305c1.33,0,2.355-.175,3.129-.549l.74.327c2.392,2.114,2.941,4.846,2.116,7.784l.082.307Z"/>
          <path class="cls-14" d="M17.995,107.752c-.057-.034-.111-.069-.166-.106.011.003.029.009.043.011,0,0,.002,0,.006.003l.117.092Z"/>
          <path class="cls-4" d="M109.155,112.414c4.854.014,9.374.218,12.701,2.778.705.542,1.348,1.048,1.95,1.542l-.106.129h-10.127l-4.418-4.268v-.181Z"/>
          <path class="cls-5" d="M173.986,115.898c.857-.629,1.953-1.215,3.335-1.703,1.083-.382,2.339-.704,3.795-.939,0,0,0,.002.006,0,.571.115,4.46.985,8.375,4.509h-17.327c.414-.632,1.008-1.269,1.816-1.867Z"/>
          <path class="cls-16" d="M150.9,90.846c1.796,2.642,1.659,5.426.138,8.068h-7.838c1.521-2.643,1.661-5.426-.138-8.068v-.325h7.838v.325Z"/>
          <path class="cls-13" d="M172.17,117.765c-.568.859-.802,1.709-.802,2.436,0,.098,0,.189.003.281.014,2.528.282,2.927,2.624,5.283,2.766,2.783,8.437,7.93,8.437,7.93,2.499,2.306,4.135,3.901,7.45,4.547,1.088.212,2.356.322,3.892.322h10.233c3.181,0,5.531-1.669,4.286-5.564-.659-2.068-3.192-7.626-7.241-12.386h-.003c-.851-.999-1.767-1.961-2.747-2.849h3.492c5.394,0,6.362.072,9.957,2.852,3.598,2.784,16.25,15.094,19.502,18.366.911.916,1.454,2.077,1.325,3.05-.14,1.098-1.131,1.956-3.401,1.956h-45.64c-5.668,0-7.744.836-12.583-3.199-4.843-4.033-14.8-13.354-18.395-16.832-1.059-1.023-1.564-1.982-1.659-2.821-.228-2.019,1.928-3.372,4.563-3.372h16.707Z"/>
          <path class="cls-14" d="M20.416,108.674c-.865-.155-1.673-.471-2.401-.91l-.02-.012-.117-.092c.543.184,2.104.718,2.538,1.014Z"/>
          <path class="cls-23" d="M17.727,111.457c-.44,2.361-1.99,4.105-3.838,4.105-1.119,0-2.13-.641-2.85-1.669-.691-.985-1.116-2.324-1.116-3.803,0-2.823,1.55-5.147,3.541-5.44l.16-.212,3.218,2.438.009.006c.188.178.388.342.594.497.089.278.174.652.243,1.051.003.741.031,1.746.157,1.985-.014.359-.054.706-.117,1.042Z"/>
          <path class="cls-14" d="M114.423,108.792H21.69c-.434,0-.862-.04-1.273-.118-.434-.295-1.996-.83-2.538-1.014,0,0-.002,0-.006-.002l-1.022-.776-.009-.006c-1.416-1.315-2.307-3.199-2.307-5.282v-52.104c0-3.958,3.221-7.198,7.155-7.198h57.964c.451.399.134,5.624.134,6.957H26.361c-2.55,0-4.634,2.097-4.634,4.662v42.148c0,2.565,2.084,4.665,4.634,4.665h82.837c2.55,0,4.637-2.1,4.637-4.665v-42.148c0-2.565-2.087-4.662-4.637-4.662h-29.41c.017-.256.026-.534.026-.836,0-2.783-.16-4.311-.16-6.121,0-.144.014.135,0,0h34.769c1.354,0,2.622.382,3.704,1.045,2.067,1.267,3.452,3.556,3.452,6.153v52.104c0,3.961-3.218,7.198-7.156,7.198Z"/>
          <path class="cls-15" d="M53.681,68.189c-1.156,0-1.85-.91-1.85-2.479s.694-2.482,1.85-2.482,1.847.893,1.847,2.482-.694,2.479-1.847,2.479Z"/>
          <path class="cls-16" d="M166.494,74.626c-2.63-1.531-5.394-1.669-8.024.141h-.103v-7.247h8.666v7.106h-.539Z"/>
          <path class="cls-23" d="M133.843,66.428l-5.885-4.472c-1.602-1.364-2.622-3.398-2.622-5.661V20.845c0-4.081,3.318-7.419,7.376-7.419h51.225c1.925,0,3.295.764,4.997,1.973l5.348,4.107-.091.121c-.897-.675-2.011-1.077-3.213-1.077h-53.606c-2.956,0-5.374,2.433-5.374,5.406v38.159c0,1.672.765,3.174,1.962,4.168l-.117.146Z"/>
          <path class="cls-23" d="M17.687,108.43c.1.572.166,1.198.166,1.66,0,.11-.003.219-.009.325-.126-.238-.154-1.244-.157-1.985Z"/>
          <path class="cls-4" d="M82.763,121.87h-10.328v-.184l-4.84-4.823h10.639l4.529,4.449v.558Z"/>
          <path class="cls-23" d="M105.206,36.775c1.825,0,3.538.508,5.006,1.387l8.04,4.978-.122.198c-1.083-.663-2.35-1.045-3.704-1.045h-34.77c-.126-1.586-1.014-2.726-2.607-3.757-.914-.592-1.83-1.183-2.715-1.761h30.875-.003Z"/>
          <path class="cls-4" d="M95.672,121.87h-12.909v-.558l-4.529-4.449h12.829l4.609,4.636v.371Z"/>
          <path class="cls-4" d="M123.169,126.508h-11.755v-.37l-4.417-4.268h11.755l4.417,4.268v.37Z"/>
          <path class="cls-15" d="M81.801,67.267l.177-.821c.277.08.577.155.899.23l.771.175c.811.175,1.099.554,1.099.925,0,.529-.465.764-1.273.764-1.059,0-1.539-.391-1.673-1.272Z"/>
          <path class="cls-4" d="M96.777,129.662c3.872,0,5.871,1.146,7.744,2.781,2.767,2.412,4.797,4.452,4.797,4.452v.37h-27.292s-2.584-1.852-4.98-3.708c-2.398-1.855-2.213-3.895,1.105-3.895h18.626Z"/>
          <path class="cls-4" d="M128.863,121.87h-10.111l-5.18-5.007h10.128l.106-.129c1.796,1.479,3.272,2.887,5.205,4.998l-.148.138Z"/>
          <path class="cls-15" d="M83.371,62.588c.905,0,1.388.296,1.388,1.175h3.375v3.797h-.343c0-1.68-1.125-2.441-3.706-3.03l-.771-.172c-.811-.178-1.099-.531-1.099-.902,0-.528.443-.868,1.157-.868Z"/>
          <path class="cls-4" d="M50.377,112.411v.184l4.417,4.268h-10.579l-4.417-4.268v-.184h10.579Z"/>
          <path class="cls-15" d="M64.043,68.307c-.942,0-1.656-.546-1.827-1.939h6.567v-.405h.5v1.278h-3.603c-.134.523-.54,1.066-1.636,1.066Z"/>
          <path class="cls-16" d="M135.365,98.914c1.519-2.643,1.658-5.426-.14-8.068v-.325h7.838v.325c1.798,2.642,1.659,5.426.137,8.068h-7.835Z"/>
          <path class="cls-23" d="M18.081,110.596l.325.144s20.653,19.106,24.342,22.447c3.686,3.337,4.98,4.078,8.852,4.078h93.49c3.689,0,2.952-2.967,2.952-2.967l.209-.215c.948,1.39,1.265,2.657,1.265,4.481v5.196c0,2.967-1.105,4.081-5.899,4.081H51.6c-6.456,0-8.115-1.301-11.618-4.268-.374-.316-.848-.724-1.399-1.201l-.017-.307c2.413-.149,2.707-.919,2.707-2.574,0-1.852,0-2.409-1.382-3.708,0,0-.831-.744-2.858-2.413-2.03-1.668-2.767-1.482-5.534-1.482-1.673,0-3.484-.272-4.651.293l-.088-.169c-2.387-2.106-4.412-3.892-5.402-4.762-2.95-2.597-3.686-3.895-3.686-7.236v-6.678c0-.732.04-1.347.137-1.861.066-.333.154-.626.274-.879Z"/>
          <path class="cls-4" d="M32.654,116.866c-1.942-2.306-1.473-4.455,3.823-4.455h3.321v.184l4.417,4.268h-11.561v.003Z"/>
          <path class="cls-16" d="M10.294,118.903c-3.504,0-4.057,3.153-1.476,5.934,2.581,2.783,5.716,5.753,8.298,7.976,2.581,2.226,3.781,2.134,5.625,2.134h4.885c2.213,0,2.767,4.36.186,4.36s.554,0-4.794,0-6.824-1.114-10.142-3.894c-3.321-2.784-3.504-3.525-7.561-7.236-4.057-3.711-3.504-5.193-3.504-7.976s2.581-6.308,6.453-6.308h2.775c.72,1.029,1.73,1.669,2.85,1.669,1.847,0,3.398-1.743,3.838-4.104l.08.017c-.097.514-.137,1.129-.137,1.861v5.567h-7.375Z"/>
          <path class="cls-15" d="M48.413,60.925h.431v9.573h-.22l-3.372-4.943,3.161-4.63Z"/>
          <path class="cls-16" d="M158.947,87.094l-.679-.077c.068-.454.1-.954.1-1.505v-2.864h.102c2.63-1.807,5.394-1.669,8.024-.138h.54v4.673c0,1.841-.283,3.45-.789,4.834l-.294-.109c-1.362-2.898-3.666-4.716-7.004-4.814Z"/>
          <path class="cls-4" d="M106.996,121.87h-11.324v-.371l-4.608-4.636h10.754l5.179,5.007Z"/>
          <path class="cls-4" d="M73.889,112.411v.184l4.346,4.268h-10.639l-4.286-4.268v-.184h10.579Z"/>
          <path class="cls-16" d="M127.527,98.914c1.522-2.643,1.659-5.426-.14-8.068v-.325h7.838v.325c1.799,2.642,1.659,5.426.14,8.068h-7.838Z"/>
          <path class="cls-16" d="M127.655,114.29c-1.288-1.152-2.296-2.02-2.85-2.436-.568-.428-1.156-.801-1.77-1.126l.066-.126c1.522-1.391,3.318-1.391,8.574-1.391h34.022c6.362,0,7.053,1.112,11.479,4.453l.145.531c-1.382.488-2.478,1.074-3.335,1.703l-.128-.287c-2.904-2.367-3.044-2.505-6.916-2.505h-32.086c-4.011,0-6.638-.278-6.775.974l-.426.21Z"/>
          <path class="cls-16" d="M121.579,90.521h5.808v.325c1.799,2.642,1.662,5.426.14,8.068h-5.948v-8.393Z"/>
          <path class="cls-4" d="M109.155,112.595l4.417,4.268h-11.755l-4.418-4.268v-.184h10.442c.44,0,.88,0,1.314.003v.181Z"/>
          <path class="cls-4" d="M59.975,121.87h-10.579l-5.18-5.007h10.579l5.18,5.007Z"/>
          <path class="cls-16" d="M158.47,74.767c2.63-1.81,5.394-1.672,8.024-.141h.539v7.884h-.539c-2.63-1.531-5.394-1.669-8.024.138h-.103v-7.882h.103Z"/>
          <path class="cls-4" d="M64.392,126.508h-10.579v-.37l-4.417-4.268h10.579l4.417,4.268v.37Z"/>
          <path class="cls-4" d="M86.821,112.411v.184l4.243,4.268h-12.829l-4.346-4.268v-.184h12.932Z"/>
          <path class="cls-12" d="M26.134,49.249c-2.55,0-4.634,2.097-4.634,4.662v42.148c0,2.565,2.084,4.665,4.634,4.665h82.837c2.55,0,4.637-2.1,4.637-4.665v-42.148c0-2.565-2.087-4.662-4.637-4.662H26.134Z"/>
          <path class="cls-23" d="M27.812,139.307c2.581,0,2.027-4.36-.186-4.36h-2.027v-.278c0-1.391.488-2.117,1.248-2.488,1.168-.566,2.978-.293,4.651-.293,2.767,0,3.503-.186,5.534,1.482,2.027,1.669,2.858,2.413,2.858,2.413,1.382,1.298,1.382,1.856,1.382,3.708,0,1.655-.294,2.425-2.707,2.574-.294.017-.62.026-.979.026h-5.716c-1.845,0-4.057-2.784-4.057-2.784Z"/>
          <path class="cls-4" d="M111.414,126.508h-47.022v-.37l-4.417-4.268h47.022l4.417,4.268v.37Z"/>
          <path class="cls-4" d="M118.752,121.87h-11.755l-5.18-5.007h11.755l5.18,5.007Z"/>
          <path class="cls-4" d="M72.435,121.87h-12.461l-5.18-5.007h12.801l4.84,4.823v.184Z"/>
          <path class="cls-4" d="M37.954,121.87h11.441l4.417,4.268v.37h-4.794c-4.426,0-7.007-.744-9.406-2.97-.622-.577-1.188-1.097-1.727-1.594l.069-.074Z"/>
          <path class="cls-4" d="M32.974,116.863h11.242l5.18,5.007h-11.441l-.069.074c-1.545-1.427-2.881-2.671-4.726-4.526-.183-.184-.351-.368-.505-.552h.32v-.003Z"/>
          <path class="cls-5" d="M171.371,120.482h.274c3.375-2.392,8.335-1.712,11.604,1.008.348.291.677.604.982.937,3.181,3.478,6.085,9.042,5.668,15.72l-.017.095c-3.315-.647-4.951-2.241-7.45-4.547,0,0-5.67-5.147-8.437-7.931-2.342-2.355-2.61-2.754-2.624-5.282Z"/>
          <path class="cls-4" d="M63.309,112.411v.184l4.286,4.268h-12.801l-4.417-4.268v-.184h12.932Z"/>
          <path class="cls-16" d="M156.334,89.973c1.125-.543,1.717-1.505,1.934-2.956l.679.077c3.338.098,5.642,1.916,7.004,4.814l.294.109c-1.245,3.415-3.854,5.48-6.972,6.374l-.083-.307c.825-2.938.277-5.67-2.116-7.784l-.74-.327Z"/>
          <path class="cls-4" d="M97.399,112.411v.184l4.418,4.268h-10.754l-4.243-4.268v-.184h10.579Z"/>
          <path class="cls-4" d="M129.971,122.797c2.961,3.329,1.105,3.711-4.058,3.711h-2.744v-.37l-4.417-4.268h10.111l.148-.138c.306.336.626.689.96,1.065Z"/>
          <path class="cls-9" d="M232.635,142.042l-.068,5.604c-.183,1.051-1.182,1.864-3.39,1.864h-45.64c-5.668,0-7.744.833-12.583-3.2-4.843-4.035-14.8-13.356-18.395-16.834-.782-.756-1.262-1.474-1.499-2.137l-.16-.601v-5.601c.095.839.6,1.798,1.659,2.821,3.595,3.478,13.552,12.799,18.395,16.832,4.839,4.035,6.915,3.199,12.583,3.199h45.64c2.27,0,3.261-.859,3.401-1.956l.057.009Z"/>
          <path class="cls-3" d="M198.302,117.765h3.492c5.394,0,6.362.072,9.957,2.852,3.598,2.784,16.25,15.094,19.502,18.366.911.916,1.454,2.077,1.325,3.05-.14,1.098-1.131,1.956-3.401,1.956h-45.64c-5.668,0-7.744.836-12.583-3.199-4.843-4.033-14.8-13.354-18.395-16.832-1.059-1.023-1.564-1.982-1.659-2.821-.228-2.019,1.928-3.372,4.563-3.372h16.707"/>
          <path class="cls-3" d="M151.061,127.339c.237.663.716,1.381,1.499,2.137,3.595,3.478,13.551,12.799,18.394,16.834,4.84,4.033,6.916,3.2,12.583,3.2h45.641c2.207,0,3.206-.813,3.389-1.864l.068-5.604"/>
          <path class="cls-3" d="M150.9,120.617v6.121"/>
          <path class="cls-3" d="M79.787,49.249h29.41c2.55,0,4.637,2.097,4.637,4.662v42.148c0,2.565-2.087,4.665-4.637,4.665H26.361c-2.55,0-4.634-2.1-4.634-4.665v-42.148c0-2.565,2.084-4.662,4.634-4.662h53.427Z"/>
          <path class="cls-3" d="M79.653,42.292h34.77c1.354,0,2.621.382,3.704,1.046,2.067,1.267,3.452,3.556,3.452,6.153v52.104c0,3.961-3.218,7.198-7.156,7.198H21.69c-.434,0-.862-.04-1.274-.118-.865-.155-1.673-.471-2.401-.91"/>
          <path class="cls-3" d="M16.841,106.876c-1.416-1.315-2.307-3.2-2.307-5.282v-52.104c0-3.958,3.221-7.198,7.155-7.198h58.048"/>
          <path class="cls-3" d="M17.995,107.752c-.057-.034-.111-.069-.166-.106h-.003c-.131-.086-.26-.175-.383-.267-.206-.155-.405-.319-.594-.497"/>
          <path class="cls-3" d="M105.206,36.775c1.825,0,3.538.508,5.006,1.387.002,0,.002.003.005.003"/>
          <path class="cls-3" d="M118.829,43.499l-.579-.359-8.041-4.975"/>
          <path class="cls-3" d="M50.477,36.775H15.342c-5.402,0-9.82,4.443-9.82,9.878v46.744c0,3.338,1.665,6.299,4.203,8.091l3.898,2.95,3.218,2.438.009.006,1.022.776s.003.002.006.002l.117.092.02.012.363.276"/>
          <path class="cls-3" d="M105.206,36.775h-55.022"/>
          <path class="cls-3" d="M38.582,142.372c.551.477,1.025.885,1.399,1.201,3.504,2.967,5.162,4.268,11.618,4.268h92.017c4.794,0,5.899-1.114,5.899-4.082v-5.196c0-1.823-.317-3.09-1.265-4.48-.497-.727-1.165-1.488-2.053-2.382-2.096-2.111-12.961-12.422-18.543-17.411-1.288-1.152-2.296-2.02-2.849-2.436-.569-.428-1.157-.802-1.771-1.126-2.57-1.359-5.571-1.841-9.291-1.841H24.123c-1.765,0-3.07.06-4.02.278-.834.196-1.399.512-1.773,1.017h-.003c-.091.124-.174.262-.246.414-.12.253-.208.545-.274.879-.097.514-.137,1.128-.137,1.861v6.678c0,3.341.737,4.639,3.686,7.235.991.871,3.015,2.657,5.402,4.763"/>
          <path class="cls-3" d="M18.406,110.74s20.653,19.106,24.342,22.447c3.686,3.337,4.98,4.078,8.852,4.078h93.49c3.689,0,2.953-2.967,2.953-2.967"/>
          <path class="cls-3" d="M82.026,137.265s-2.584-1.852-4.98-3.708c-2.398-1.855-2.213-3.895,1.105-3.895h18.626c3.872,0,5.871,1.146,7.744,2.781,2.767,2.412,4.797,4.452,4.797,4.452"/>
          <path class="cls-3" d="M123.169,126.508h2.744c5.163,0,7.019-.382,4.058-3.711-.334-.376-.654-.729-.96-1.065-1.933-2.111-3.409-3.519-5.205-4.998-.602-.494-1.245-1-1.95-1.542-3.327-2.56-7.847-2.764-12.701-2.778-.434-.003-.874-.003-1.313-.003H36.478c-5.297,0-5.765,2.149-3.823,4.455.154.184.323.368.505.552,1.845,1.855,3.181,3.099,4.726,4.526.54.497,1.105,1.017,1.728,1.594,2.398,2.227,4.98,2.97,9.406,2.97h74.151Z"/>
          <path class="cls-3" d="M32.974,116.863h90.726"/>
          <path class="cls-3" d="M37.954,121.87h90.909"/>
          <path class="cls-3" d="M39.798,112.595l4.417,4.268,5.18,5.007,4.417,4.268"/>
          <path class="cls-3" d="M50.377,112.595l4.417,4.268,5.18,5.007,4.417,4.268"/>
          <path class="cls-3" d="M63.31,112.595l4.286,4.268,4.84,4.823"/>
          <path class="cls-3" d="M73.889,112.595l4.346,4.268,4.529,4.449"/>
          <path class="cls-3" d="M86.82,112.595l4.243,4.268,4.608,4.636"/>
          <path class="cls-3" d="M97.399,112.595l4.418,4.268,5.179,5.007,4.418,4.268"/>
          <path class="cls-3" d="M109.155,112.595l4.418,4.268,5.179,5.007,4.417,4.268"/>
          <path class="cls-3" d="M17.444,107.379c.089.278.174.652.243,1.051.1.572.166,1.198.166,1.66,0,.109-.003.219-.009.325-.014.359-.054.706-.117,1.043-.44,2.361-1.99,4.104-3.838,4.104-1.119,0-2.13-.64-2.85-1.669-.691-.985-1.116-2.323-1.116-3.803,0-2.823,1.55-5.147,3.541-5.44"/>
          <path class="cls-3" d="M13.889,115.562h3.227"/>
          <path class="cls-3" d="M10.845,113.893h-2.581c-3.872,0-6.453,3.525-6.453,6.308s-.554,4.265,3.504,7.976c4.057,3.711,4.24,4.452,7.561,7.236,3.318,2.78,4.794,3.895,10.142,3.895s2.213,0,4.794,0,2.027-4.361-.186-4.361h-4.885c-1.845,0-3.044.092-5.625-2.134-2.581-2.223-5.716-5.193-8.298-7.976-2.581-2.781-2.027-5.934,1.476-5.934h7.19"/>
          <path class="cls-3" d="M11.05,113.893h-.011"/>
          <path class="cls-3" d="M11.039,113.893h-.194"/>
          <path class="cls-3" d="M25.599,134.669c0-1.391.488-2.117,1.248-2.488,1.168-.566,2.978-.293,4.651-.293,2.767,0,3.503-.186,5.534,1.482,2.027,1.669,2.858,2.413,2.858,2.413,1.382,1.298,1.382,1.856,1.382,3.708,0,1.655-.294,2.425-2.707,2.574-.294.017-.62.026-.979.026h-5.716c-1.845,0-4.057-2.784-4.057-2.784"/>
          <path class="cls-3" d="M121.67,90.521h31.535c1.331,0,2.356-.175,3.13-.549,1.125-.543,1.716-1.505,1.933-2.956.068-.454.1-.954.1-1.505v-17.806"/>
          <path class="cls-3" d="M121.579,98.914h33.839c1.328,0,2.633-.169,3.855-.523,3.118-.893,5.728-2.959,6.973-6.374.505-1.384.788-2.993.788-4.834v-19.293"/>
          <path class="cls-3" d="M194.191,19.627c1.31.988,2.164,2.562,2.164,4.329v38.159c0,2.973-2.418,5.406-5.377,5.406h-53.606c-1.294,0-2.484-.465-3.412-1.238-1.197-.994-1.962-2.496-1.962-4.168V23.955c0-2.973,2.419-5.406,5.374-5.406h53.606c1.203,0,2.316.402,3.213,1.077Z"/>
          <path class="cls-3" d="M133.843,66.428l-5.885-4.472c-1.602-1.364-2.622-3.398-2.622-5.661V20.845c0-4.081,3.318-7.419,7.376-7.419h51.225c1.925,0,3.295.764,4.997,1.973l5.348,4.107.928.712"/>
          <path class="cls-3" d="M189.922,58.831c0,1.451-1.176,2.637-2.618,2.637h-45.795c-1.439,0-2.618-1.186-2.618-2.637v-31.455c0-1.451,1.179-2.637,2.618-2.637h45.795c1.442,0,2.618,1.186,2.618,2.637v31.455Z"/>
          <path class="cls-3" d="M127.387,90.846c1.799,2.642,1.662,5.426.14,8.068"/>
          <path class="cls-3" d="M135.225,90.846c1.798,2.642,1.659,5.426.14,8.068"/>
          <path class="cls-3" d="M143.062,90.846c1.799,2.642,1.659,5.426.138,8.068"/>
          <path class="cls-3" d="M150.9,90.846c1.796,2.642,1.659,5.426.137,8.068"/>
          <path class="cls-3" d="M157.074,90.3c2.393,2.114,2.941,4.846,2.116,7.784"/>
          <path class="cls-3" d="M158.947,87.094c3.338.098,5.642,1.916,7.004,4.814"/>
          <path class="cls-3" d="M158.47,82.648c2.63-1.807,5.394-1.669,8.024-.138"/>
          <path class="cls-3" d="M158.47,74.767c2.63-1.81,5.394-1.672,8.024-.141"/>
          <path class="cls-3" d="M181.116,113.256c-1.456.235-2.713.557-3.795.939-1.382.488-2.478,1.074-3.335,1.703-.808.598-1.402,1.235-1.816,1.867-.568.859-.802,1.709-.802,2.436,0,.098,0,.189.003.281.014,2.528.282,2.927,2.624,5.283,2.766,2.783,8.437,7.93,8.437,7.93,2.499,2.306,4.135,3.901,7.45,4.547,1.088.212,2.356.322,3.892.322h10.233c3.181,0,5.531-1.669,4.286-5.564-.659-2.068-3.192-7.626-7.241-12.386"/>
          <path class="cls-3" d="M201.049,120.614c-.851-.999-1.767-1.961-2.747-2.849-3.149-2.855-6.953-4.937-11.307-4.937-2.244,0-4.189.155-5.873.428"/>
          <path class="cls-3" d="M171.645,120.479c3.375-2.389,8.335-1.709,11.604,1.012.349.29.677.603.982.936,3.181,3.478,6.085,9.042,5.668,15.72"/>
          <path class="cls-3" d="M183.4,121.312s2.873-.703,8.312-.896c2.556-.089,5.68-.066,9.337.198h.003c.017,0,.035.003.052.003"/>
          <path class="cls-3" d="M181.05,113.244s.023,0,.066.012c0,0,0,.002.006,0,.571.115,4.46.985,8.374,4.509.74.667,1.482,1.428,2.202,2.298"/>
          <path class="cls-3" d="M123.101,110.602c1.521-1.391,3.318-1.391,8.574-1.391h34.022c6.362,0,7.053,1.112,11.478,4.453"/>
          <path class="cls-3" d="M173.858,115.611c-2.904-2.367-3.044-2.505-6.916-2.505h-32.086c-4.011,0-6.638-.278-6.775.974"/>
          <path class="cls-21" d="M170.972,35.395h-19.158c-.989,0-1.792.802-1.792,1.791v9.817c0,.989.803,1.791,1.792,1.791h19.158c.989,0,1.791-.802,1.791-1.791v-9.817c0-.989-.802-1.791-1.791-1.791Z"/>
          <path class="cls-3" d="M170.652,35.335h-18.586c-1.182,0-2.141.959-2.141,2.142v9.11c0,1.183.959,2.142,2.141,2.142h18.586c1.183,0,2.142-.959,2.142-2.142v-9.11c0-1.183-.959-2.142-2.142-2.142Z"/>
          <path class="cls-6" d="M172.63,37.856h-22.67v2.003h22.67v-2.003Z"/>
          <path class="cls-19" d="M177.438,38.55l-19.157.09c-.99.005-1.788.81-1.783,1.8l.046,9.817c.005.989.81,1.788,1.8,1.783l19.157-.09c.99-.005,1.788-.81,1.783-1.8l-.046-9.817c-.005-.989-.81-1.788-1.8-1.783Z"/>
          <path class="cls-3" d="M177.119,38.49l-18.586.088c-1.183.006-2.137.969-2.132,2.152l.043,9.11c.006,1.183.969,2.137,2.152,2.132l18.586-.088c1.182-.005,2.137-.969,2.131-2.152l-.043-9.11c-.005-1.183-.969-2.137-2.151-2.131Z"/>
          <path class="cls-3" d="M158.603,49.785l3.092-.014"/>
          <path class="cls-3" d="M163.113,49.764l3.092-.014"/>
          <path class="cls-20" d="M163.243,45.965l-.011-2.52c0-.131-.251-.236-.555-.236l-2.013.009c-.172,0-.334.036-.439.093l-.683.381c-.077.043-.117.093-.117.145l.009,1.832c0,.048.036.095.1.136l.515.314c.105.064.276.1.457.1l2.187-.014c.305,0,.553-.11.55-.241Z"/>
          <path class="cls-7" d="M175.484,42.948l-6.716.032c-.84.004-1.519.689-1.515,1.529.004.841.689,1.519,1.53,1.515l6.715-.032c.841-.004,1.519-.689,1.515-1.529-.004-.841-.689-1.519-1.529-1.515Z"/>
          <path class="cls-8" d="M74.359,94.618c.388,0,1.498-.285,1.498-1.412s-1.069-1.412-1.498-1.412h-13.542c-.388,0-1.498.285-1.498,1.412s1.069,1.412,1.498,1.412h13.542Z"/>
          <path class="cls-8" d="M74.359,58.802c.388,0,1.498-.285,1.498-1.412s-1.069-1.412-1.498-1.412h-13.542c-.388,0-1.498.285-1.498,1.412s1.069,1.412,1.498,1.412h13.542Z"/>
          <path class="cls-17" d="M76.462,60.224c1.821,1.364,2.412,3.326,1.821,5.57-1.089,4.134-8.522,6.522-8.573,9.505v.031c.051,2.983,7.481,5.371,8.573,9.505.591,2.244,0,4.206-1.821,5.57-1.821,1.364-4.904,1.911-8.762,1.911h-.148c-3.859,0-6.941-.546-8.762-1.911s-2.412-3.326-1.818-5.57c1.089-4.134,8.522-6.522,8.57-9.505v-.031c-.052-2.983-7.481-5.371-8.57-9.505-.591-2.244-.003-4.206,1.818-5.57s4.903-1.911,8.762-1.911h.148c3.859,0,6.941.546,8.762,1.911ZM74.205,89.353c.907-.453,1.017-1.041.34-1.505,0,0-4.543-3.086-6.842-3.086h-.076c-2.299,0-6.842,3.086-6.842,3.086-.677.464-.57,1.052.337,1.505.962.481,2.21.911,6.47.911h.144c4.261,0,5.508-.43,6.47-.911h-.003ZM68.102,75.017c0-.34-.275-.619-.618-.619s-.619.278-.619.619.275.618.619.618.618-.278.618-.618ZM68.102,80.045c0-.34-.275-.618-.618-.618s-.619.278-.619.618.275.618.619.618.618-.278.618-.618Z"/>
          <path class="cls-10" d="M75.359,82.893c1.818,1.869,2.412,3.921,1.258,4.247-1.306.364-1.254-1.378-3.618-3.206-2.113-1.632-2.44-2.364-1.845-3.024.522-.584,1.962-.323,4.206,1.983Z"/>
          <path class="cls-18" d="M74.541,87.852c.677.464.57,1.051-.34,1.505-.962.481-2.21.911-6.471.911h-.144c-4.261,0-5.508-.43-6.471-.911-.907-.454-1.014-1.041-.337-1.505,0,0,4.543-3.086,6.842-3.086h.076c2.299,0,6.842,3.086,6.842,3.086h.003Z"/>
          <path class="cls-18" d="M73.26,67.059c.539,0,.763.639.323.931,0,0-3.99,3.33-6.034,3.33s-6.171-3.33-6.171-3.33c-.436-.292-.216-.931.323-.931h11.56Z"/>
          <path class="cls-18" d="M67.483,74.402c.344,0,.618.278.618.619s-.275.618-.618.618-.619-.278-.619-.618.275-.619.619-.619Z"/>
          <path class="cls-18" d="M67.483,79.429c.344,0,.618.278.618.619s-.275.618-.618.618-.619-.278-.619-.618.275-.619.619-.619Z"/>
          <path class="cls-10" d="M76.047,61.578c1.605,1.917,1.23,5.319-.179,5.306-1.23-.01-.096-1.182-.969-3.089-.873-1.907-2.852-2.1-2.213-3.213.474-.832,2.213-.375,3.361,1v-.003Z"/>
          <path class="cls-2" d="M65.538,75.33c-.052,2.983-7.481,5.371-8.57,9.505-.591,2.244-.003,4.206,1.818,5.57,1.821,1.364,4.903,1.911,8.762,1.911"/>
          <path class="cls-2" d="M69.71,75.33c.052,2.983,7.481,5.371,8.573,9.505.591,2.244,0,4.206-1.821,5.57-1.821,1.364-4.903,1.911-8.762,1.911"/>
          <path class="cls-2" d="M69.71,75.33v-.031c.052-2.983,7.481-5.371,8.573-9.505.591-2.244,0-4.206-1.821-5.57-1.821-1.364-4.903-1.911-8.762-1.911"/>
          <path class="cls-2" d="M65.538,75.33v-.031c-.052-2.983-7.481-5.371-8.57-9.505-.591-2.244-.003-4.206,1.818-5.57,1.821-1.364,4.903-1.911,8.762-1.911"/>
          <path class="cls-2" d="M61.704,67.059h11.556c.539,0,.763.639.323.931,0,0-3.99,3.33-6.034,3.33s-6.171-3.33-6.171-3.33c-.436-.292-.216-.931.323-.931h.003Z"/>
          <path class="cls-2" d="M67.586,90.264c-4.261,0-5.508-.429-6.471-.911-.907-.454-1.014-1.041-.337-1.505,0,0,4.543-3.086,6.842-3.086"/>
          <path class="cls-2" d="M67.731,90.264c4.261,0,5.508-.429,6.471-.911.907-.454,1.017-1.041.34-1.505,0,0-4.543-3.086-6.842-3.086"/>
          <path class="cls-2" d="M68.102,75.021c0,.34-.275.618-.618.618s-.619-.278-.619-.618.275-.619.619-.619.618.278.618.619Z"/>
          <path class="cls-2" d="M68.102,80.048c0,.34-.275.618-.618.618s-.619-.278-.619-.618.275-.619.619-.619.618.278.618.619Z"/>
        </g>
      </g>
    </g>
  </g>
</svg>