<svg xmlns="http://www.w3.org/2000/svg" xmlns:xlink="http://www.w3.org/1999/xlink" xml:space="preserve" viewBox="0 0 20 20">
  <defs>
    <path id="a" d="M0 0h20v20H0z"/>
  </defs>
  <clipPath id="b">
    <use xlink:href="#a" overflow="visible"/>
  </clipPath>
  <g clip-path="url(#b)">
    <path fill-rule="evenodd" d="M8.5 16C4.4 16 1 12.6 1 8.5S4.4 1 8.5 1 16 4.4 16 8.5c0 .5-.1 1-.2 1.5-1.6.1-2.8 1.4-2.8 3-1.6 0-2.9 1.3-3 2.8-.5.1-1 .2-1.5.2m2.9-9.2c-.7 0-1.2-.6-1.2-1.2 0-.7.6-1.2 1.2-1.2.7 0 1.2.6 1.2 1.2.1.7-.5 1.2-1.2 1.2m-2.9 6.7c-1.8 0-3.3-1.9-3.3-4.2h6.7c-.1 2.3-1.6 4.2-3.4 4.2M4.3 5.6c0 .7.6 1.2 1.2 1.2.7 0 1.2-.6 1.2-1.2 0-.7-.6-1.2-1.2-1.2-.6-.1-1.2.5-1.2 1.2" clip-rule="evenodd"/>
    <path d="M16 12c-.6 0-1 .4-1 1v2h-2c-.6 0-1 .4-1 1s.4 1 1 1h2v2c0 .6.4 1 1 1s1-.4 1-1v-2h2c.6 0 1-.4 1-1s-.4-1-1-1h-2v-2c0-.6-.4-1-1-1"/>
  </g>
</svg>
