<?xml version="1.0" encoding="utf-8"?>
<!-- Generator: Adobe Illustrator 26.5.0, SVG Export Plug-In . SVG Version: 6.00 Build 0)  -->
<svg version="1.1" id="Layer_1" xmlns="http://www.w3.org/2000/svg" xmlns:xlink="http://www.w3.org/1999/xlink" x="0px" y="0px"
	 viewBox="0 0 20 20" style="enable-background:new 0 0 20 20;" xml:space="preserve">
<style type="text/css">
	.st0{clip-path:url(#SVGID_00000057827550779781137200000006816100005650449032_);}
	.st1{fill-rule:evenodd;clip-rule:evenodd;}
</style>
<g>
	<defs>
		<rect id="SVGID_1_" y="0" width="20" height="20"/>
	</defs>
	<clipPath id="SVGID_00000016065358769104451890000004677985796947216057_">
		<use xlink:href="#SVGID_1_"  style="overflow:visible;"/>
	</clipPath>
	<g style="clip-path:url(#SVGID_00000016065358769104451890000004677985796947216057_);">
		<path class="st1" d="M8.5,16C4.4,16,1,12.6,1,8.5C1,4.4,4.4,1,8.5,1C12.6,1,16,4.4,16,8.5c0,0.5-0.1,1-0.2,1.5
			c-1.6,0.1-2.8,1.4-2.8,3c-1.6,0-2.9,1.3-3,2.8C9.5,15.9,9,16,8.5,16z M11.4,6.8c-0.7,0-1.2-0.6-1.2-1.2c0-0.7,0.6-1.2,1.2-1.2
			c0.7,0,1.2,0.6,1.2,1.2C12.7,6.3,12.1,6.8,11.4,6.8z M8.5,13.5c-1.8,0-3.3-1.9-3.3-4.2h6.7C11.8,11.6,10.3,13.5,8.5,13.5z
			 M4.3,5.6c0,0.7,0.6,1.2,1.2,1.2c0.7,0,1.2-0.6,1.2-1.2c0-0.7-0.6-1.2-1.2-1.2C4.9,4.3,4.3,4.9,4.3,5.6z"/>
		<path d="M16,12c-0.6,0-1,0.4-1,1v2h-2c-0.6,0-1,0.4-1,1c0,0.6,0.4,1,1,1h2v2c0,0.6,0.4,1,1,1c0.6,0,1-0.4,1-1v-2h2
			c0.6,0,1-0.4,1-1c0-0.6-0.4-1-1-1h-2v-2C17,12.4,16.6,12,16,12z"/>
	</g>
</g>
</svg>
