<?xml version="1.0" encoding="utf-8"?>
<!-- Generator: Adobe Illustrator 26.5.0, SVG Export Plug-In . SVG Version: 6.00 Build 0)  -->
<svg version="1.1" id="Layer_1" xmlns="http://www.w3.org/2000/svg" xmlns:xlink="http://www.w3.org/1999/xlink" x="0px" y="0px"
	 viewBox="0 0 20 20" style="enable-background:new 0 0 20 20;" xml:space="preserve">
<style type="text/css">
	.st0{fill-rule:evenodd;clip-rule:evenodd;}
</style>
<path d="M7,7v2H5V7H7z"/>
<path d="M7,13v-2H5v2H7z"/>
<path d="M9,7h2v2H9V7z"/>
<path d="M11,11H9v2h2V11z"/>
<path d="M15,7v2h-2V7H15z"/>
<path d="M15,13v-2h-2v2H15z"/>
<path class="st0" d="M4,2c0-0.6,0.4-1,1-1s1,0.4,1,1v1h8V2c0-0.6,0.4-1,1-1s1,0.4,1,1v1h1c1.1,0,2,0.9,2,2v10c0,1.1-0.9,2-2,2H3
	c-1.1,0-2-0.9-2-2V5c0-1.1,0.9-2,2-2h1V2z M4,5C3.4,5,3,5.4,3,6v8c0,0.6,0.4,1,1,1h12c0.6,0,1-0.4,1-1V6c0-0.6-0.4-1-1-1H4z"/>
</svg>
