<?xml version="1.0" encoding="utf-8"?>
<!-- Generator: Adobe Illustrator 26.5.0, SVG Export Plug-In . SVG Version: 6.00 Build 0)  -->
<svg version="1.1" id="Layer_1" xmlns="http://www.w3.org/2000/svg" xmlns:xlink="http://www.w3.org/1999/xlink" x="0px" y="0px"
	 viewBox="0 0 20 20" style="enable-background:new 0 0 20 20;" xml:space="preserve">
<path d="M16,8c0.6,0,1-0.5,0.8-1c-0.5-1.6-2.5-3-6.8-3C5.6,4,3.7,5.4,3.2,7C3,7.5,3.4,8,4,8H16z"/>
<path d="M3,13.6C3,13.3,3.3,13,3.6,13h12.8c0.3,0,0.6,0.3,0.6,0.6c0,1.3-1.1,2.4-2.4,2.4H5.4C4.1,16,3,14.9,3,13.6z"/>
<path d="M3.5,9C2.7,9,2,9.7,2,10.5C2,11.3,2.7,12,3.5,12h13c0.8,0,1.5-0.7,1.5-1.5C18,9.7,17.3,9,16.5,9H3.5z"/>
</svg>
