<?xml version="1.0" encoding="utf-8"?>
<!-- Generator: Adobe Illustrator 26.5.0, SVG Export Plug-In . SVG Version: 6.00 Build 0)  -->
<svg version="1.1" id="Layer_1" xmlns="http://www.w3.org/2000/svg" xmlns:xlink="http://www.w3.org/1999/xlink" x="0px" y="0px"
	 viewBox="0 0 20 20" style="enable-background:new 0 0 20 20;" xml:space="preserve">
<path d="M6.2,1.6C6.1,1.3,6.3,1,6.7,1h2c0.2,0,0.4,0.1,0.4,0.3L12.5,8h5C18.3,8,19,8.7,19,9.5c0,0.8-0.7,1.5-1.5,1.5h-5l-3.4,6.7
	C9.1,17.9,8.9,18,8.7,18h-2c-0.3,0-0.6-0.3-0.5-0.6L7.9,11H4.8l-0.7,2.2c-0.1,0.2-0.3,0.3-0.5,0.3H1.7c-0.3,0-0.6-0.3-0.5-0.7
	l1.1-3.3L1.2,6.2C1.1,5.8,1.4,5.5,1.7,5.5h1.9c0.2,0,0.4,0.1,0.5,0.3L4.8,8h3.1L6.2,1.6z"/>
</svg>
