<?xml version="1.0" encoding="utf-8"?>
<!-- Generator: Adobe Illustrator 26.5.0, SVG Export Plug-In . SVG Version: 6.00 Build 0)  -->
<svg version="1.1" id="Layer_1" xmlns="http://www.w3.org/2000/svg" xmlns:xlink="http://www.w3.org/1999/xlink" x="0px" y="0px"
	 viewBox="0 0 20 20" style="enable-background:new 0 0 20 20;" xml:space="preserve">
<style type="text/css">
	.st0{fill-rule:evenodd;clip-rule:evenodd;}
</style>
<path d="M6,5L4,9l4,3l4-3l-2-4H6z"/>
<path class="st0" d="M10,1c-5,0-9,4-9,9c0,5,4,9,9,9c5,0,9-4,9-9C19,5,15,1,10,1z M3,10c0-3.9,3.1-7,7-7c2.8,0,5.2,1.6,6.3,3.9
	L14,10l2.3,3.1c-0.8,1.6-2.2,2.9-3.9,3.5L9,14l-2.6,2C4.3,14.8,3,12.5,3,10z"/>
</svg>
