<?xml version="1.0" encoding="utf-8"?>
<!-- Generator: Adobe Illustrator 28.1.0, SVG Export Plug-In . SVG Version: 6.00 Build 0)  -->
<svg version="1.1" id="Layer_1" xmlns="http://www.w3.org/2000/svg" xmlns:xlink="http://www.w3.org/1999/xlink" x="0px" y="0px"
	 viewBox="0 0 20 20" style="enable-background:new 0 0 20 20;" xml:space="preserve">
<style type="text/css">
	.st0{fill:#03D47C;}
	.st1{fill:#FCFBF9;}
</style>
<path class="st0" d="M1,10c0-4.971,4.029-9,9-9l0,0c4.971,0,9,4.029,9,9l0,0c0,4.971-4.029,9-9,9l0,0C5.029,19,1,14.971,1,10L1,10z"
	/>
<path class="st1" d="M10.771,12.7c0,0.426-0.345,0.771-0.771,0.771c-0.426,0-0.771-0.345-0.771-0.771v-1.929H7.3
	c-0.426,0-0.771-0.345-0.771-0.771c0-0.426,0.345-0.771,0.771-0.771h1.929V7.3c0-0.426,0.345-0.771,0.771-0.771
	c0.426,0,0.771,0.345,0.771,0.771v1.929H12.7c0.426,0,0.771,0.345,0.771,0.771c0,0.426-0.345,0.771-0.771,0.771h-1.929V12.7z"/>
</svg>
