<svg width="40" height="40" viewBox="0 0 40 40" fill="none" xmlns="http://www.w3.org/2000/svg">
<path d="M31.4176 17.808L31.3798 16.1004C31.3798 16.1004 30.7431 14.664 30.4308 14.6193C30.1184 14.5747 20.2574 11.127 20.2574 11.127C20.2574 11.127 19.3461 11.3552 19.0046 11.4307C18.663 11.5062 9.93122 14.5061 9.93122 14.5061C9.93122 14.5061 9.09545 14.8853 8.86891 15.8344C8.64238 16.7834 8.56515 18.0362 8.56515 18.0362C8.56515 18.0362 8.3369 18.2645 8.29915 18.7948C8.26139 19.3268 8.3369 30.0305 8.3369 30.0305C8.3369 30.0305 8.26139 30.6757 9.05769 30.7135C9.85571 30.7513 31.6063 30.7135 31.6063 30.7135C31.6063 30.7135 32.0234 30.372 32.0234 29.955C32.0234 29.5379 32.1744 18.3005 32.1744 18.3005C32.1744 18.3005 31.8329 17.7307 31.4158 17.8063L31.4176 17.808Z" fill="#FFFAF0"/>
<path d="M13.743 22.7593C13.743 22.7593 14.9769 17.894 14.323 17.9043C13.6692 17.9146 8.71634 17.9987 8.71634 17.9987C8.71634 17.9987 8.29932 18.112 8.29932 18.4535V18.795L13.7447 22.7576L13.743 22.7593Z" fill="#FFD7B0"/>
<path d="M24.9723 23.4555C25.1817 23.9069 32.1767 18.3019 32.1767 18.3019C32.1767 18.3019 31.9862 17.6944 31.4182 17.8077C30.8501 17.9209 27.8228 17.5708 26.939 17.9209C26.0552 18.271 24.7629 23.0008 24.9723 23.4538V23.4555Z" fill="#FFD7B0"/>
<path d="M11.4163 19.5327L11.6514 21.1922L14.9035 23.5776L25.2314 23.4661C25.2314 23.4661 28.0253 21.1355 28.293 21.0961C28.5418 16.1621 31.1281 11.3328 31.1281 11.3328L30.7677 11.0462L28.94 11.3534L27.8828 10.3529L26.2147 11.465L24.6564 10.2414L22.7086 11.3534L21.5399 10.0732L19.5921 11.2419L18.8129 9.74023L16.9217 11.1303L15.3085 9.79515C15.3085 9.79515 11.4146 11.5748 11.4146 19.5309L11.4163 19.5327Z" fill="#FBCCFF"/>
<path d="M11.3167 18.2002C11.4824 18.2002 11.6167 18.0658 11.6167 17.9002C11.6167 17.7345 11.4824 17.6002 11.3167 17.6002V17.9002V18.2002ZM8.80766 17.9002L8.80609 18.2002H8.80766V17.9002ZM11.3167 17.9002V17.6002H8.80766V17.9002V18.2002H11.3167V17.9002ZM8.80766 17.9002L8.80923 17.6002C8.31423 17.5976 7.91387 17.9991 7.91387 18.4922H8.21387H8.51387C8.51387 18.3298 8.64552 18.1993 8.80609 18.2001L8.80766 17.9002ZM8.21387 18.4922H7.91387V30.169H8.21387H8.51387V18.4922H8.21387ZM8.21387 30.169H7.91387C7.91387 30.6625 8.31419 31.0628 8.80766 31.0628V30.7628V30.4628C8.64556 30.4628 8.51387 30.3311 8.51387 30.169H8.21387ZM8.80766 30.7628V31.0628H31.5159V30.7628V30.4628H8.80766V30.7628ZM31.5159 30.7628V31.0628C32.0094 31.0628 32.4097 30.6625 32.4097 30.169H32.1097H31.8097C31.8097 30.3311 31.678 30.4628 31.5159 30.4628V30.7628ZM32.1097 30.169H32.4097V18.4922H32.1097H31.8097V30.169H32.1097ZM32.1097 18.4922H32.4097C32.4097 17.9988 32.0094 17.5984 31.5159 17.5984V17.8984V18.1984C31.678 18.1984 31.8097 18.3301 31.8097 18.4922H32.1097ZM31.5159 17.8984V17.5984H28.8559V17.8984V18.1984H31.5159V17.8984Z" fill="#002140"/>
<path d="M11.0302 30.5982C10.9554 30.746 11.0145 30.9265 11.1623 31.0014C11.31 31.0763 11.4906 31.0172 11.5655 30.8694L11.2979 30.7338L11.0302 30.5982ZM11.2979 30.7338L11.5655 30.8694L15.1334 23.828L14.8658 23.6924L14.5981 23.5568L11.0302 30.5982L11.2979 30.7338Z" fill="#002140"/>
<path d="M25.3097 23.4799C25.2387 23.3302 25.0598 23.2663 24.9101 23.3373C24.7604 23.4083 24.6965 23.5872 24.7675 23.7369L25.0386 23.6084L25.3097 23.4799ZM25.0386 23.6084L24.7675 23.7369L28.138 30.847L28.4091 30.7185L28.6802 30.5899L25.3097 23.4799L25.0386 23.6084Z" fill="#002140"/>
<path d="M30.0102 14.2207C29.8539 14.166 29.6827 14.2484 29.628 14.4048C29.5732 14.5612 29.6556 14.7323 29.812 14.7871L29.9111 14.5039L30.0102 14.2207ZM30.1171 14.576L30.2172 14.2932L30.2162 14.2928L30.1171 14.576ZM31.3802 16.3196L31.0802 16.3222L31.0802 16.3224L31.3802 16.3196ZM29.9111 14.5039L29.812 14.7871L30.018 14.8591L30.1171 14.576L30.2162 14.2928L30.0102 14.2207L29.9111 14.5039ZM30.1171 14.576L30.017 14.8588C30.6532 15.0839 31.0745 15.6694 31.0802 16.3222L31.3802 16.3196L31.6802 16.317C31.6722 15.4046 31.0843 14.6 30.2172 14.2932L30.1171 14.576ZM31.3802 16.3196L31.0802 16.3224L31.0939 17.7726L31.3939 17.7698L31.6939 17.7669L31.6802 16.3168L31.3802 16.3196Z" fill="#002140"/>
<path d="M8.41631 17.7325C8.41631 17.8982 8.55062 18.0325 8.71631 18.0325C8.88199 18.0325 9.01631 17.8982 9.01631 17.7325H8.71631H8.41631ZM9.9897 14.4615L10.0878 14.745L10.0882 14.7449L9.9897 14.4615ZM8.71631 17.7325H9.01631V16.2257H8.71631H8.41631V17.7325H8.71631ZM8.71631 16.2257H9.01631C9.01631 15.5637 9.44206 14.9685 10.0878 14.745L9.9897 14.4615L9.89159 14.178C9.00995 14.4831 8.41631 15.3019 8.41631 16.2257H8.71631ZM9.9897 14.4615L10.0882 14.7449L12.4788 13.9142L12.3803 13.6309L12.2818 13.3475L9.89124 14.1781L9.9897 14.4615Z" fill="#002140"/>
<path d="M8.47252 18.6643C8.33724 18.5686 8.15003 18.6007 8.05437 18.736C7.95871 18.8713 7.99083 19.0585 8.12611 19.1542L8.29932 18.9092L8.47252 18.6643ZM14.9031 23.5789L14.7299 23.8238C14.7806 23.8597 14.8411 23.8789 14.9031 23.8789V23.5789ZM25.0782 23.5789V23.8789C25.1414 23.8789 25.2029 23.859 25.2541 23.822L25.0782 23.5789ZM8.29932 18.9092L8.12611 19.1542L14.7299 23.8238L14.9031 23.5789L15.0763 23.3339L8.47252 18.6643L8.29932 18.9092ZM14.9031 23.5789V23.8789H25.0782V23.5789V23.2789H14.9031V23.5789ZM25.0782 23.5789L25.2541 23.822L32.2852 18.7352L32.1093 18.4922L31.9335 18.2491L24.9024 23.3358L25.0782 23.5789Z" fill="#002140"/>
<path d="M11.2092 21.2441C11.2493 21.4048 11.4122 21.5025 11.573 21.4623C11.7337 21.4222 11.8314 21.2593 11.7912 21.0985L11.5002 21.1713L11.2092 21.2441ZM15.3393 9.5752L15.5763 9.39132C15.5228 9.32233 15.4419 9.28008 15.3547 9.27559C15.2675 9.2711 15.1827 9.30482 15.1224 9.36795L15.3393 9.5752ZM16.6332 11.2433L16.3962 11.4272C16.445 11.4901 16.5167 11.531 16.5957 11.5409C16.6746 11.5509 16.7543 11.5291 16.8171 11.4803L16.6332 11.2433ZM18.6772 9.65757L18.9368 9.50725C18.8934 9.4323 18.8197 9.37976 18.7348 9.36314C18.6498 9.34653 18.5617 9.36745 18.4933 9.42054L18.6772 9.65757ZM19.5953 11.2433L19.3357 11.3936C19.3778 11.4662 19.4483 11.5179 19.5302 11.5361C19.6121 11.5544 19.6978 11.5375 19.7667 11.4895L19.5953 11.2433ZM21.514 9.90813L21.7338 9.70395C21.6321 9.59446 21.4653 9.57653 21.3426 9.66189L21.514 9.90813ZM22.8372 11.3325L22.6174 11.5367C22.72 11.6472 22.8886 11.6643 23.0113 11.5768L22.8372 11.3325ZM24.6855 10.0145L24.8991 9.80392C24.7957 9.69897 24.6313 9.68471 24.5113 9.77027L24.6855 10.0145ZM26.1133 11.463L25.8997 11.6736C25.9984 11.7737 26.1534 11.7919 26.2726 11.7172L26.1133 11.463ZM28.0663 10.2393L28.282 10.0308C28.1835 9.92894 28.0271 9.90988 27.907 9.98513L28.0663 10.2393ZM29.3174 11.5333L29.1017 11.7419C29.1856 11.8286 29.3132 11.8567 29.4257 11.8131L29.3174 11.5333ZM31.3613 10.9069L31.6229 11.0539C31.6794 10.9532 31.6732 10.829 31.6069 10.7345C31.5405 10.64 31.4258 10.592 31.3119 10.611L31.3613 10.9069ZM11.5002 21.1713C11.7912 21.0985 11.7913 21.0987 11.7913 21.0988C11.7913 21.0988 11.7913 21.0989 11.7913 21.0989C11.7913 21.0989 11.7913 21.0988 11.7913 21.0986C11.7912 21.0983 11.791 21.0976 11.7908 21.0966C11.7903 21.0945 11.7894 21.091 11.7883 21.086C11.786 21.0762 11.7825 21.0607 11.778 21.0398C11.7691 20.9979 11.7563 20.9343 11.7416 20.8506C11.7123 20.6831 11.6757 20.4351 11.6479 20.1191C11.5921 19.4868 11.5716 18.5837 11.7144 17.5088C11.9995 15.3618 12.9361 12.5246 15.5562 9.78244L15.3393 9.5752L15.1224 9.36795C12.4018 12.2153 11.4188 15.1762 11.1196 17.4298C10.9701 18.5553 10.9912 19.5031 11.0502 20.1718C11.0797 20.5062 11.1186 20.7711 11.1506 20.954C11.1666 21.0454 11.1808 21.1163 11.1913 21.1652C11.1965 21.1896 11.2008 21.2085 11.2038 21.2217C11.2054 21.2283 11.2066 21.2335 11.2075 21.2373C11.2079 21.2391 11.2083 21.2406 11.2086 21.2418C11.2087 21.2423 11.2088 21.2428 11.2089 21.2432C11.209 21.2434 11.209 21.2436 11.2091 21.2437C11.2091 21.2439 11.2092 21.2441 11.5002 21.1713ZM15.3393 9.5752L15.1022 9.75907L16.3962 11.4272L16.6332 11.2433L16.8703 11.0594L15.5763 9.39132L15.3393 9.5752ZM16.6332 11.2433L16.8171 11.4803L18.8611 9.8946L18.6772 9.65757L18.4933 9.42054L16.4493 11.0063L16.6332 11.2433ZM18.6772 9.65757L18.4176 9.80789L19.3357 11.3936L19.5953 11.2433L19.855 11.093L18.9368 9.50725L18.6772 9.65757ZM19.5953 11.2433L19.7667 11.4895L21.6854 10.1544L21.514 9.90813L21.3426 9.66189L19.424 10.9971L19.5953 11.2433ZM21.514 9.90813L21.2942 10.1123L22.6174 11.5367L22.8372 11.3325L23.057 11.1284L21.7338 9.70395L21.514 9.90813ZM22.8372 11.3325L23.0113 11.5768L24.8597 10.2588L24.6855 10.0145L24.5113 9.77027L22.663 11.0883L22.8372 11.3325ZM24.6855 10.0145L24.4718 10.2251L25.8997 11.6736L26.1133 11.463L26.327 11.2524L24.8991 9.80392L24.6855 10.0145ZM26.1133 11.463L26.2726 11.7172L28.2256 10.4936L28.0663 10.2393L27.907 9.98513L25.954 11.2087L26.1133 11.463ZM28.0663 10.2393L27.8506 10.4479L29.1017 11.7419L29.3174 11.5333L29.5331 11.3248L28.282 10.0308L28.0663 10.2393ZM29.3174 11.5333C29.4257 11.8131 29.4257 11.8131 29.4257 11.8131C29.4257 11.8131 29.4257 11.8131 29.4257 11.8131C29.4257 11.8131 29.4258 11.8131 29.4258 11.813C29.426 11.813 29.4262 11.8129 29.4264 11.8128C29.427 11.8126 29.4278 11.8123 29.429 11.8118C29.4313 11.811 29.4348 11.8096 29.4394 11.8078C29.4487 11.8043 29.4626 11.799 29.4807 11.7921C29.5167 11.7785 29.5693 11.7587 29.6349 11.7346C29.7661 11.6864 29.9486 11.6208 30.1541 11.5513C30.5707 11.4106 31.0617 11.2611 31.4108 11.2028L31.3613 10.9069L31.3119 10.611C30.911 10.678 30.38 10.8417 29.9621 10.9829C29.7504 11.0544 29.5626 11.1219 29.4277 11.1715C29.3602 11.1963 29.3059 11.2167 29.2683 11.231C29.2494 11.2381 29.2348 11.2437 29.2248 11.2475C29.2198 11.2494 29.2159 11.2509 29.2133 11.2519C29.212 11.2525 29.2109 11.2528 29.2102 11.2531C29.2099 11.2533 29.2096 11.2534 29.2094 11.2534C29.2093 11.2535 29.2092 11.2535 29.2092 11.2535C29.2091 11.2535 29.2091 11.2536 29.2091 11.2536C29.2091 11.2536 29.209 11.2536 29.3174 11.5333ZM31.3613 10.9069L31.0998 10.76C29.6625 13.3181 28.8872 15.8958 28.4708 17.8316C28.2625 18.8002 28.1437 19.61 28.0769 20.1788C28.0434 20.4632 28.023 20.6876 28.0109 20.8415C28.0048 20.9185 28.0009 20.978 27.9984 21.0185C27.9972 21.0388 27.9963 21.0544 27.9957 21.0651C27.9954 21.0704 27.9952 21.0745 27.9951 21.0774C27.995 21.0789 27.995 21.08 27.9949 21.0808C27.9949 21.0813 27.9949 21.0816 27.9949 21.0818C27.9949 21.082 27.9949 21.0821 27.9949 21.0822C27.9949 21.0823 27.9949 21.0824 28.2946 21.0958C28.5943 21.1092 28.5943 21.1093 28.5943 21.1093C28.5943 21.1093 28.5943 21.1093 28.5943 21.1093C28.5943 21.1092 28.5943 21.1091 28.5943 21.1089C28.5943 21.1084 28.5943 21.1077 28.5944 21.1066C28.5945 21.1046 28.5946 21.1012 28.5949 21.0967C28.5954 21.0876 28.5961 21.0737 28.5973 21.0551C28.5995 21.0179 28.6033 20.962 28.6091 20.8886C28.6206 20.7418 28.6403 20.5251 28.6728 20.2488C28.7377 19.6961 28.8537 18.9053 29.0574 17.9578C29.4653 16.0614 30.2234 13.5447 31.6229 11.0539L31.3613 10.9069Z" fill="#002140"/>
<path d="M15.5898 14.623H25.1849" stroke="#002140" stroke-width="0.6" stroke-linecap="round" stroke-linejoin="round"/>
<path d="M15.0889 18.9414H24.6856" stroke="#002140" stroke-width="0.6" stroke-linecap="round" stroke-linejoin="round"/>
<path d="M15.0889 21.0586H24.6856" stroke="#002140" stroke-width="0.6" stroke-linecap="round" stroke-linejoin="round"/>
<path d="M15.1299 16.8232H24.7267" stroke="#002140" stroke-width="0.6" stroke-linecap="round" stroke-linejoin="round"/>
</svg>
