<svg width="40" height="40" viewBox="0 0 40 40" fill="none" xmlns="http://www.w3.org/2000/svg">
<path d="M31.8688 24.0879L19.618 15.7561C19.0294 15.3558 18.2277 15.5084 17.8274 16.097L13.513 22.4407C13.1127 23.0293 13.2654 23.831 13.854 24.2313L26.1047 32.5631C26.6933 32.9634 27.495 32.8108 27.8953 32.2222L32.2097 25.8786C32.61 25.29 32.4574 24.4883 31.8688 24.0879Z" fill="#008C59"/>
<path d="M17.0322 17.2156C17.0322 17.2156 17.5121 17.279 18.0246 17.2481C18.5371 17.2173 19.2724 16.9927 19.2724 16.9927C19.2724 16.9927 19.5277 19.9065 19.8808 20.2579C20.2339 20.6092 21.4491 21.5056 22.57 20.8989C23.691 20.2904 24.1897 20.1979 23.9789 19.4266C23.7681 18.6553 22.1861 15.649 22.1861 15.649C22.1861 15.649 22.1535 13.9847 22.1535 13.6642C22.1535 13.3437 22.5049 10.975 20.5201 10.5585C18.5354 10.142 17.0305 10.2071 15.7176 9.75807C14.4047 9.31073 13.2855 8.15723 13.2855 8.15723C13.2855 8.15723 8.32352 10.142 8.22754 14.3995C8.22754 14.3995 10.1163 16.2249 10.8533 17.5361C11.5903 18.8473 12.5176 22.0181 13.702 22.0815L17.0305 17.2156H17.0322Z" fill="#E3A171"/>
<path d="M22.6008 30.2778L14.4697 24.8359C14.4697 24.8359 12.101 26.8533 13.1568 27.9416C14.2126 29.03 15.9746 27.8131 15.9746 27.8131C15.9746 27.8131 15.2376 29.318 15.9746 29.9264C16.7116 30.5349 18.6004 29.7019 18.6004 29.7019C18.6004 29.7019 17.8325 31.2393 18.9843 31.8152C20.1361 32.3911 21.9941 30.9822 22.6025 30.2778H22.6008Z" fill="#E3A171"/>
<path d="M23.7662 18.6535L31.815 24.128C32.4098 24.5325 32.564 25.3415 32.1595 25.9362L27.8626 32.2539C27.4581 32.8486 26.6491 33.0029 26.0544 32.5984L13.7429 24.2239C13.1482 23.8194 12.9939 23.0105 13.3984 22.4157L17.0372 17.0664" stroke="#002140" stroke-width="0.6" stroke-linecap="round" stroke-linejoin="round"/>
<path d="M19.2801 21.3088L19.1128 21.1951C18.9766 21.1024 18.7911 21.1378 18.6985 21.2739L18.3949 21.7204C18.3022 21.8566 18.3376 22.0421 18.4738 22.1347L18.641 22.2484C18.7772 22.3411 18.9627 22.3057 19.0553 22.1696L19.3589 21.7231C19.4516 21.5869 19.4162 21.4014 19.2801 21.3088Z" fill="#085239"/>
<path d="M19.9314 20.3713L19.7642 20.2576C19.628 20.1649 19.4425 20.2003 19.3499 20.3364L19.1542 20.6241C19.0616 20.7603 19.0969 20.9458 19.2331 21.0385L19.4003 21.1522C19.5365 21.2448 19.722 21.2095 19.8146 21.0733L20.0103 20.7856C20.1029 20.6494 20.0676 20.4639 19.9314 20.3713Z" fill="#085239"/>
<path d="M20.0247 22.0354L19.8574 21.9216C19.7213 21.829 19.5358 21.8643 19.4431 22.0005L19.2475 22.2882C19.1548 22.4244 19.1901 22.6099 19.3263 22.7025L19.4936 22.8163C19.6298 22.9089 19.8153 22.8736 19.9079 22.7374L20.1036 22.4497C20.1962 22.3135 20.1609 22.128 20.0247 22.0354Z" fill="#085239"/>
<path d="M20.7473 20.9279L20.5801 20.8142C20.4439 20.7216 20.2584 20.7569 20.1658 20.8931L19.8342 21.3806C19.7416 21.5168 19.7769 21.7023 19.9131 21.7949L20.0803 21.9087C20.2165 22.0013 20.402 21.966 20.4946 21.8298L20.8262 21.3423C20.9188 21.2061 20.8835 21.0206 20.7473 20.9279Z" fill="#085239"/>
<path d="M30.1239 24.4935L25.8764 21.6047C25.3449 21.2432 24.621 21.381 24.2596 21.9125C23.8981 22.444 24.0359 23.1678 24.5674 23.5293L28.8149 26.4181C29.3464 26.7795 30.0703 26.6417 30.4317 26.1102C30.7932 25.5788 30.6554 24.8549 30.1239 24.4935Z" fill="#03D47C"/>
<path d="M13.2164 8.14746C13.2164 8.14746 8.41901 10.0551 8.14648 14.3092C11.2591 16.7722 11.7201 20.5395 13.5746 22.1077" stroke="#002140" stroke-width="0.6" stroke-linecap="round" stroke-linejoin="round"/>
<path d="M14.5175 24.752C13.0931 25.7958 12.3219 27.592 13.5731 28.2056C14.5089 28.6632 15.6315 28.0188 16.3531 27.4223" stroke="#002140" stroke-width="0.6" stroke-linecap="round" stroke-linejoin="round"/>
<path d="M17.1948 26.6475C15.6574 27.9158 14.941 29.4738 16.1922 30.0857C17.0097 30.4868 17.973 30.0428 18.6843 29.5269" stroke="#002140" stroke-width="0.6" stroke-linecap="round" stroke-linejoin="round"/>
<path d="M19.7981 28.3857C18.2024 29.8358 17.6385 31.2721 18.8897 31.884C19.8255 32.3416 21.0493 31.9817 22.5782 30.2334" stroke="#002140" stroke-width="0.6" stroke-linecap="round" stroke-linejoin="round"/>
<path d="M15.1875 23.0615L17.7293 24.7909" stroke="#002140" stroke-width="0.6" stroke-linecap="round" stroke-linejoin="round"/>
<path d="M18.8931 25.583L21.4349 27.3107" stroke="#002140" stroke-width="0.6" stroke-linecap="round" stroke-linejoin="round"/>
<path d="M18.0089 21.6132L19.4178 19.541C19.4915 19.4331 19.4623 19.2874 19.3561 19.2137L18.6482 18.732C18.5882 18.6909 18.5128 18.6806 18.4425 18.7029L17.99 18.8486C17.9403 18.864 17.8975 18.8966 17.8666 18.9412L16.8434 20.446C16.816 20.4854 16.8022 20.5334 16.8022 20.5814L16.8057 20.9636C16.8057 21.0408 16.8451 21.1128 16.9102 21.1573L17.6815 21.6766C17.7895 21.7486 17.9352 21.7212 18.0089 21.6132Z" fill="#085239"/>
<path d="M15.9589 16.4911C15.9589 16.4911 17.9489 18.0045 19.3389 16.8184C19.0115 19.5985 20.4153 21.9569 22.8834 20.7983C25.3498 19.6396 22.3246 16.7362 22.1207 15.2227C21.9167 13.7093 22.7343 12.4427 21.3854 11.1332C20.0365 9.82372 15.5236 10.7647 13.2886 8.14746" stroke="#002140" stroke-width="0.6" stroke-linecap="round" stroke-linejoin="round"/>
</svg>
