<svg width="40" height="40" viewBox="0 0 40 40" fill="none" xmlns="http://www.w3.org/2000/svg">
<g clip-path="url(#clip0_1650_92874)">
<path d="M5.42801 24.6972C5.42801 24.6972 8.55516 23.7855 10.2903 20.5483C12.0236 17.3117 13.4339 11.9136 14.2697 10.6269C15.1062 9.34205 16.2436 8.28329 17.3041 8.12723L25.7304 13.7873C25.7304 13.7873 23.6469 14.6406 22.6486 16.8575C21.6498 19.0725 19.2618 26.0334 17.9064 27.8557C16.551 29.6781 13.8269 30.5526 13.8269 30.5526L5.43052 24.6985L5.42801 24.6972Z" fill="#00B268"/>
<path d="M14.8249 29.0606C14.2468 29.2462 13.6657 29.0462 13.5269 28.6139C13.3882 28.1817 13.7443 27.6808 14.3224 27.4952C14.9005 27.3096 15.4816 27.5096 15.6204 27.9419C15.7592 28.3741 15.403 28.875 14.8249 29.0606Z" fill="#5BE3AA"/>
<path d="M9.48587 25.6282C8.93085 25.8064 8.36843 25.6004 8.22966 25.1682C8.09089 24.7359 8.42832 24.241 8.98334 24.0629C9.53835 23.8847 10.1008 24.0907 10.2395 24.5229C10.3783 24.9552 10.0409 25.45 9.48587 25.6282Z" fill="#5BE3AA"/>
<path d="M17.1031 11.222C16.548 11.4001 15.9856 11.1942 15.8468 10.7619C15.7081 10.3296 16.0455 9.83478 16.6005 9.65661C17.1555 9.47843 17.718 9.6844 17.8567 10.1167C17.9955 10.5489 17.6581 11.0438 17.1031 11.222Z" fill="#5BE3AA"/>
<path d="M22.3975 14.7903C21.8425 14.9685 21.2801 14.7625 21.1413 14.3303C21.0025 13.898 21.3399 13.4031 21.895 13.225C22.45 13.0468 23.0124 13.2528 23.1512 13.685C23.2899 14.1173 22.9525 14.6121 22.3975 14.7903Z" fill="#5BE3AA"/>
<path d="M13.2194 18.6359C13.2194 18.6359 15.4648 14.403 17.5468 14.9354C19.6288 15.4677 19.0816 19.6185 18.2377 21.1215C17.3938 22.6246 15.6595 25.2769 13.655 24.4116C11.6505 23.5464 12.6726 19.2431 13.2175 18.6365L13.2194 18.6359Z" fill="#5BE3AA"/>
<path d="M13.8299 30.5188C22.3216 27.7926 19.7474 15.7402 25.8359 13.7855L17.3093 7.95648C11.2208 9.91111 13.795 21.9636 5.30333 24.6897L13.8299 30.5188Z" stroke="#002140" stroke-width="0.6" stroke-linecap="round" stroke-linejoin="round"/>
<path d="M22.4713 14.8899C21.8848 15.0781 21.2849 14.8429 21.1313 14.3645C20.9777 13.8861 21.3286 13.3456 21.9151 13.1573C22.5016 12.969 23.1016 13.2042 23.2552 13.6827C23.4087 14.1611 23.0578 14.7016 22.4713 14.8899Z" stroke="#002140" stroke-width="0.6" stroke-linecap="round" stroke-linejoin="round"/>
<path d="M14.8351 29.1125C14.2486 29.3008 13.6486 29.0656 13.4951 28.5872C13.3415 28.1087 13.6924 27.5683 14.2789 27.38C14.8654 27.1917 15.4653 27.4269 15.6189 27.9053C15.7725 28.3838 15.4216 28.9242 14.8351 29.1125Z" stroke="#002140" stroke-width="0.6" stroke-linecap="round" stroke-linejoin="round"/>
<path d="M9.51282 25.7121C8.92633 25.9004 8.32638 25.6652 8.17278 25.1868C8.01919 24.7083 8.37013 24.1679 8.95662 23.9796C9.54311 23.7913 10.1431 24.0265 10.2967 24.5049C10.4502 24.9834 10.0993 25.5238 9.51282 25.7121Z" stroke="#002140" stroke-width="0.6" stroke-linecap="round" stroke-linejoin="round"/>
<path d="M17.1295 11.3059C16.543 11.4942 15.9431 11.2589 15.7895 10.7805C15.6359 10.3021 15.9868 9.76162 16.5733 9.57334C17.1598 9.38506 17.7598 9.62026 17.9134 10.0987C18.0669 10.5771 17.716 11.1176 17.1295 11.3059Z" stroke="#002140" stroke-width="0.6" stroke-linecap="round" stroke-linejoin="round"/>
<path d="M13.6766 24.4154C12.247 23.7765 12.0242 21.1643 13.1788 18.5808C14.3334 15.9974 16.4283 14.421 17.8579 15.0599C19.2874 15.6989 19.5103 18.3111 18.3556 20.8945C17.201 23.478 15.1061 25.0543 13.6766 24.4154Z" stroke="#002140" stroke-width="0.6" stroke-linecap="round" stroke-linejoin="round"/>
<path d="M27.6571 16.2194L15.2509 19.5436C14.6102 19.7153 14.23 20.3739 14.4017 21.0146L16.1051 27.3719C16.2768 28.0126 16.9353 28.3928 17.576 28.2212L29.9822 24.897C30.6229 24.7253 31.0031 24.0667 30.8314 23.426L29.128 17.0687C28.9563 16.428 28.2978 16.0478 27.6571 16.2194Z" fill="#E4BC07"/>
<path d="M27.4399 16.2364L15.404 19.4614C14.638 19.6666 14.1835 20.4539 14.3887 21.2199L15.9694 27.119C16.1746 27.885 16.9619 28.3395 17.7278 28.1343L29.7638 24.9093C30.5297 24.704 30.9842 23.9168 30.779 23.1508L29.1983 17.2516C28.9931 16.4857 28.2058 16.0312 27.4399 16.2364Z" stroke="#002140" stroke-width="0.6" stroke-linecap="round" stroke-linejoin="round"/>
<path d="M29.1576 17.5255L14.4775 21.459L14.8252 22.7564L29.5052 18.8229L29.1576 17.5255Z" fill="#002140" stroke="#002140" stroke-width="0.6" stroke-linecap="round" stroke-linejoin="round"/>
<path d="M32.9133 20.7619L20.0697 20.8225C19.4064 20.8256 18.8712 21.3658 18.8743 22.0291L18.9053 28.6107C18.9085 29.274 19.4487 29.8091 20.112 29.806L32.9556 29.7455C33.6189 29.7423 34.1541 29.2021 34.151 28.5388L34.12 21.9573C34.1168 21.294 33.5766 20.7588 32.9133 20.7619Z" fill="#FF7101"/>
<path d="M32.6989 20.7216L20.2385 20.7803C19.4455 20.7841 18.8058 21.4299 18.8095 22.2229L18.8383 28.3301C18.842 29.123 19.4879 29.7628 20.2808 29.7591L32.7412 29.7004C33.5341 29.6966 34.1739 29.0508 34.1702 28.2578L34.1414 22.1506C34.1377 21.3577 33.4918 20.7179 32.6989 20.7216Z" stroke="#002140" stroke-width="0.6" stroke-linecap="round" stroke-linejoin="round"/>
<path d="M20.2856 28.2947L22.3587 28.2852" stroke="#002140" stroke-width="0.6" stroke-linecap="round" stroke-linejoin="round"/>
<path d="M23.3091 28.2801L25.3821 28.2705" stroke="#002140" stroke-width="0.6" stroke-linecap="round" stroke-linejoin="round"/>
<path d="M23.397 25.7326L23.3891 24.0429C23.3891 23.955 23.2214 23.8848 23.0169 23.8848L21.6674 23.8912C21.5524 23.8912 21.4438 23.9151 21.3735 23.9534L20.9152 24.209C20.8641 24.2377 20.8369 24.2713 20.8369 24.3064L20.8433 25.5346C20.8433 25.5665 20.8673 25.5984 20.9104 25.6256L21.2554 25.8364C21.3256 25.8795 21.4406 25.9035 21.562 25.9035L23.0281 25.8939C23.2325 25.8939 23.3986 25.8204 23.397 25.7326Z" fill="#FBCCFF"/>
<path d="M31.6032 23.7103L27.1011 23.7315C26.5375 23.7342 26.0827 24.1932 26.0854 24.7569C26.088 25.3205 26.5471 25.7752 27.1107 25.7726L31.6129 25.7514C32.1765 25.7487 32.6312 25.2896 32.6286 24.726C32.6259 24.1624 32.1669 23.7076 31.6032 23.7103Z" fill="#002140"/>
</g>
<defs>
<clipPath id="clip0_1650_92874">
<rect width="31" height="31" fill="white" transform="translate(5 5)"/>
</clipPath>
</defs>
</svg>
