<svg width="40" height="40" viewBox="0 0 40 40" fill="none" xmlns="http://www.w3.org/2000/svg">
<path d="M24.589 31.8968C24.8205 31.8968 25.4821 31.7268 25.4821 31.0548C25.4821 30.3829 24.845 30.2129 24.589 30.2129C24.4702 30.2129 16.6263 30.2129 16.5157 30.2129C16.2842 30.2129 15.6226 30.3829 15.6226 31.0548C15.6226 31.7268 16.2597 31.8968 16.5157 31.8968H24.589Z" fill="#0164BF" stroke="#002140" stroke-width="0.6" stroke-linecap="round" stroke-linejoin="round"/>
<path d="M24.589 10.5452C24.8205 10.5452 25.4821 10.3752 25.4821 9.70328C25.4821 9.03136 24.845 8.86133 24.589 8.86133H16.5157C16.2842 8.86133 15.6226 9.03136 15.6226 9.70328C15.6226 10.3752 16.2597 10.5452 16.5157 10.5452H24.589Z" fill="#0164BF" stroke="#002140" stroke-width="0.6" stroke-linecap="round" stroke-linejoin="round"/>
<path d="M25.843 11.3929C26.9287 12.2062 27.281 13.3759 26.9287 14.7136C26.2793 17.178 21.8483 18.6017 21.8176 20.3798V20.3983C21.8483 22.1764 26.2772 23.6001 26.9287 26.0645C27.281 27.4022 26.9287 28.5719 25.843 29.3852C24.7572 30.1985 22.9197 30.5242 20.6192 30.5242H20.5311C18.2306 30.5242 16.3931 30.1985 15.3074 29.3852C14.2216 28.5719 13.8693 27.4022 14.2237 26.0645C14.8731 23.6001 19.304 22.1764 19.3327 20.3983V20.3798C19.302 18.6017 14.8731 17.178 14.2237 14.7136C13.8713 13.3759 14.2216 12.2062 15.3074 11.3929C16.3931 10.5796 18.2306 10.2539 20.5311 10.2539H20.6192C22.9197 10.2539 24.7572 10.5796 25.843 11.3929ZM24.4971 28.7584C25.0379 28.4879 25.1034 28.1376 24.6999 27.8611C24.6999 27.8611 21.9917 26.0215 20.6212 26.0215H20.5762C19.2057 26.0215 16.4976 27.8611 16.4976 27.8611C16.094 28.1376 16.1575 28.4879 16.6983 28.7584C17.2719 29.0452 18.0155 29.3012 20.5557 29.3012H20.6417C23.1819 29.3012 23.9255 29.0452 24.4991 28.7584H24.4971ZM20.8589 20.2119C20.8589 20.009 20.695 19.8431 20.4901 19.8431C20.2853 19.8431 20.1214 20.009 20.1214 20.2119C20.1214 20.4147 20.2853 20.5806 20.4901 20.5806C20.695 20.5806 20.8589 20.4147 20.8589 20.2119ZM20.8589 23.2089C20.8589 23.0061 20.695 22.8401 20.4901 22.8401C20.2853 22.8401 20.1214 23.0061 20.1214 23.2089C20.1214 23.4117 20.2853 23.5776 20.4901 23.5776C20.695 23.5776 20.8589 23.4117 20.8589 23.2089Z" fill="#B0D9FF"/>
<path d="M25.1852 24.9068C26.2689 26.0212 26.6233 27.2442 25.935 27.4388C25.1565 27.656 25.1872 26.6174 23.7778 25.5275C22.518 24.5545 22.3234 24.1181 22.6778 23.7248C22.9892 23.3766 23.8475 23.5323 25.1852 24.9068Z" fill="#FFFAF0"/>
<path d="M24.698 27.863C25.1015 28.1396 25.038 28.4899 24.4952 28.7603C23.9216 29.0471 23.178 29.3031 20.6378 29.3031H20.5517C18.0116 29.3031 17.268 29.0471 16.6944 28.7603C16.1536 28.4899 16.09 28.1396 16.4936 27.863C16.4936 27.863 19.2018 26.0234 20.5722 26.0234H20.6173C21.9878 26.0234 24.6959 27.863 24.6959 27.863H24.698Z" fill="#FED607"/>
<path d="M23.9335 15.4678C24.2551 15.4678 24.3883 15.8488 24.1261 16.0229C24.1261 16.0229 21.7477 18.008 20.5289 18.008C19.31 18.008 16.8497 16.0229 16.8497 16.0229C16.5895 15.8488 16.7206 15.4678 17.0423 15.4678H23.9315H23.9335Z" fill="#FED607"/>
<path d="M20.4903 19.8457C20.6952 19.8457 20.8591 20.0116 20.8591 20.2144C20.8591 20.4172 20.6952 20.5832 20.4903 20.5832C20.2855 20.5832 20.1216 20.4172 20.1216 20.2144C20.1216 20.0116 20.2855 19.8457 20.4903 19.8457Z" fill="#FED607"/>
<path d="M20.4903 22.8428C20.6952 22.8428 20.8591 23.0087 20.8591 23.2115C20.8591 23.4143 20.6952 23.5802 20.4903 23.5802C20.2855 23.5802 20.1216 23.4143 20.1216 23.2115C20.1216 23.0087 20.2855 22.8428 20.4903 22.8428Z" fill="#FED607"/>
<path d="M25.595 12.2004C26.5516 13.3435 26.3284 15.3716 25.4885 15.3634C24.7551 15.3572 25.4311 14.6587 24.9108 13.5217C24.3905 12.3848 23.2105 12.2701 23.5915 11.6063C23.8742 11.1106 24.9108 11.3831 25.595 12.2025V12.2004Z" fill="#FFFAF0"/>
<path d="M19.3304 20.3984C19.2997 22.1766 14.8707 23.6003 14.2214 26.0647C13.869 27.4024 14.2193 28.5721 15.305 29.3854C16.3908 30.1986 18.2283 30.5244 20.5288 30.5244" stroke="#002140" stroke-width="0.6" stroke-linecap="round" stroke-linejoin="round"/>
<path d="M21.8175 20.3984C21.8483 22.1766 26.2772 23.6003 26.9286 26.0647C27.281 27.4024 26.9286 28.5721 25.8429 29.3854C24.7572 30.1986 22.9196 30.5244 20.6191 30.5244" stroke="#002140" stroke-width="0.6" stroke-linecap="round" stroke-linejoin="round"/>
<path d="M21.8175 20.3983V20.3798C21.8483 18.6017 26.2772 17.178 26.9286 14.7136C27.281 13.3759 26.9286 12.2062 25.8429 11.3929C24.7572 10.5796 22.9196 10.2539 20.6191 10.2539" stroke="#002140" stroke-width="0.6" stroke-linecap="round" stroke-linejoin="round"/>
<path d="M19.3304 20.3983V20.3798C19.2997 18.6017 14.8707 17.178 14.2214 14.7136C13.869 13.3759 14.2193 12.2062 15.305 11.3929C16.3908 10.5796 18.2283 10.2539 20.5288 10.2539" stroke="#002140" stroke-width="0.6" stroke-linecap="round" stroke-linejoin="round"/>
<path d="M17.0443 15.4678H23.9335C24.2551 15.4678 24.3883 15.8488 24.1261 16.0229C24.1261 16.0229 21.7477 18.008 20.5289 18.008C19.31 18.008 16.8497 16.0229 16.8497 16.0229C16.5895 15.8488 16.7206 15.4678 17.0423 15.4678H17.0443Z" stroke="#002140" stroke-width="0.6" stroke-linecap="round" stroke-linejoin="round"/>
<path d="M20.5517 29.3012C18.0116 29.3012 17.268 29.0451 16.6944 28.7583C16.1536 28.4879 16.09 28.1376 16.4936 27.8611C16.4936 27.8611 19.2018 26.0215 20.5722 26.0215" stroke="#002140" stroke-width="0.6" stroke-linecap="round" stroke-linejoin="round"/>
<path d="M20.6376 29.3012C23.1778 29.3012 23.9214 29.0451 24.495 28.7583C25.0358 28.4879 25.1013 28.1376 24.6978 27.8611C24.6978 27.8611 21.9896 26.0215 20.6191 26.0215" stroke="#002140" stroke-width="0.6" stroke-linecap="round" stroke-linejoin="round"/>
<path d="M20.8591 20.2144C20.8591 20.4172 20.6952 20.5832 20.4903 20.5832C20.2855 20.5832 20.1216 20.4172 20.1216 20.2144C20.1216 20.0116 20.2855 19.8457 20.4903 19.8457C20.6952 19.8457 20.8591 20.0116 20.8591 20.2144Z" stroke="#002140" stroke-width="0.6" stroke-linecap="round" stroke-linejoin="round"/>
<path d="M20.8591 23.2115C20.8591 23.4143 20.6952 23.5802 20.4903 23.5802C20.2855 23.5802 20.1216 23.4143 20.1216 23.2115C20.1216 23.0087 20.2855 22.8428 20.4903 22.8428C20.6952 22.8428 20.8591 23.0087 20.8591 23.2115Z" stroke="#002140" stroke-width="0.6" stroke-linecap="round" stroke-linejoin="round"/>
</svg>
