<svg width="40" height="40" viewBox="0 0 40 40" fill="none" xmlns="http://www.w3.org/2000/svg">
<path d="M33.8821 25.9042L36.1983 25.1321L21.7866 14.5807C21.7866 14.5807 20.6606 12.6427 20.4998 11.7498C20.3391 10.8568 19.9851 9.43359 19.9851 9.43359L18.441 12.0071L16.8969 10.7204L15.7249 12.8441L13.8086 11.7498L12.7792 13.8086L10.7204 12.5218L9.94835 14.5807L8.14688 13.5512L7.11747 15.0954L5.05865 14.0659C5.05865 14.0659 5.01896 17.8895 7.13582 19.6754C9.25268 21.4613 22.5586 30.0218 22.5586 30.0218L33.8821 25.9042Z" fill="#FFFAF0"/>
<path d="M7.1365 19.6403C6.37908 19.007 4.9452 17.0964 5.06574 14.1315L7.1365 15.2883L8.02705 13.4424L9.88551 14.5596L10.7635 12.586L12.827 13.813L13.7967 11.6631L15.738 12.8685L16.7976 10.7726C16.7976 10.7726 18.4384 11.9204 18.6183 12.0031C18.7766 10.9093 20.1098 9.17676 20.1098 9.17676" stroke="#002140" stroke-width="0.6" stroke-linecap="round" stroke-linejoin="round"/>
<path d="M22.2668 14.9159C21.6407 14.4985 20.5865 13.5737 20.1079 9.17676" stroke="#002140" stroke-width="0.6" stroke-linecap="round" stroke-linejoin="round"/>
<path d="M21.9716 14.6963L36.1466 25.2444L21.3113 30.1901L7.13623 19.6402" stroke="#002140" stroke-width="0.6" stroke-linecap="round" stroke-linejoin="round"/>
<path d="M16.3065 17.5713L5.96533 23.7872L22.3713 31.7607L32.869 25.3596L16.3065 17.5713Z" fill="#00B268"/>
<path d="M16.4568 20.7572C17.1626 20.6034 17.6518 20.0979 17.5494 19.628C17.447 19.1581 16.7919 18.9018 16.0861 19.0556C15.3803 19.2093 14.8911 19.7149 14.9935 20.1848C15.0958 20.6547 15.751 20.9109 16.4568 20.7572Z" fill="#FED607"/>
<path d="M10.9344 24.1905C11.5742 24.0511 12.0099 23.5572 11.9075 23.0873C11.8051 22.6174 11.2035 22.3495 10.5637 22.4888C9.92392 22.6282 9.48826 23.1221 9.59062 23.592C9.69299 24.0619 10.2946 24.3298 10.9344 24.1905Z" fill="#FED607"/>
<path d="M28.1995 26.6553C28.8393 26.5159 29.275 26.022 29.1726 25.5521C29.0703 25.0822 28.4686 24.8143 27.8288 24.9537C27.1891 25.0931 26.7534 25.587 26.8558 26.0569C26.9581 26.5267 27.5598 26.7947 28.1995 26.6553Z" fill="#FED607"/>
<path d="M32.7575 25.5325L16.2004 17.4258L5.79443 23.7946L22.4432 31.7448L32.7575 25.5325Z" stroke="#002140" stroke-width="0.6" stroke-linecap="round" stroke-linejoin="round"/>
<path d="M10.9477 24.2479C11.6875 24.0867 12.1893 23.5067 12.0685 22.9523C11.9478 22.398 11.2502 22.0793 10.5104 22.2404C9.77061 22.4016 9.2688 22.9816 9.38957 23.536C9.51033 24.0903 10.2079 24.4091 10.9477 24.2479Z" stroke="#002140" stroke-width="0.6" stroke-linecap="round" stroke-linejoin="round"/>
<path d="M28.1352 26.7791C28.875 26.618 29.3768 26.0379 29.256 25.4836C29.1353 24.9292 28.4377 24.6105 27.6979 24.7717C26.9581 24.9328 26.4563 25.5129 26.5771 26.0672C26.6978 26.6216 27.3954 26.9403 28.1352 26.7791Z" stroke="#002140" stroke-width="0.6" stroke-linecap="round" stroke-linejoin="round"/>
<path d="M16.4599 20.867C17.1997 20.7059 17.7015 20.1258 17.5808 19.5715C17.46 19.0171 16.7624 18.6984 16.0226 18.8596C15.2828 19.0207 14.781 19.6008 14.9018 20.1551C15.0225 20.7095 15.7202 21.0282 16.4599 20.867Z" stroke="#002140" stroke-width="0.6" stroke-linecap="round" stroke-linejoin="round"/>
<path d="M19.631 14.959L8.20312 18.8324L22.5347 30.1145L34.1569 26.0954L19.631 14.959Z" fill="#00B268"/>
<path d="M19.0985 18.1048C19.8208 18.1048 20.4064 17.715 20.4064 17.234C20.4064 16.7531 19.8208 16.3633 19.0985 16.3633C18.3761 16.3633 17.7905 16.7531 17.7905 17.234C17.7905 17.715 18.3761 18.1048 19.0985 18.1048Z" fill="#FED607"/>
<path d="M12.9727 20.2835C13.6275 20.2835 14.1583 19.8937 14.1583 19.4128C14.1583 18.9318 13.6275 18.542 12.9727 18.542C12.3179 18.542 11.7871 18.9318 11.7871 19.4128C11.7871 19.8937 12.3179 20.2835 12.9727 20.2835Z" fill="#FED607"/>
<path d="M23.2129 28.3226C23.8677 28.3226 24.3985 27.9327 24.3985 27.4518C24.3985 26.9709 23.8677 26.5811 23.2129 26.5811C22.5582 26.5811 22.0273 26.9709 22.0273 27.4518C22.0273 27.9327 22.5582 28.3226 23.2129 28.3226Z" fill="#FED607"/>
<path d="M29.3174 26.3665C29.9722 26.3665 30.503 25.9767 30.503 25.4958C30.503 25.0149 29.9722 24.625 29.3174 24.625C28.6626 24.625 28.1318 25.0149 28.1318 25.4958C28.1318 25.9767 28.6626 26.3665 29.3174 26.3665Z" fill="#FED607"/>
<path d="M23.3591 21.1568C23.3591 21.1568 20.0182 18.9295 18.4206 19.7049C16.823 20.4803 18.1723 23.0441 19.0017 23.6755C19.8311 24.307 22.4398 25.7571 23.9888 25.0321C25.5378 24.307 24.1345 21.5454 23.3591 21.1586V21.1568Z" fill="#FED607"/>
<path d="M34.0113 26.2408L19.5592 14.7949L8.03418 18.8033L22.6104 30.1142L34.0113 26.2408Z" stroke="#002140" stroke-width="0.6" stroke-linecap="round" stroke-linejoin="round"/>
<path d="M12.9744 20.3436C13.7316 20.3436 14.3453 19.8837 14.3453 19.3163C14.3453 18.749 13.7316 18.2891 12.9744 18.2891C12.2173 18.2891 11.6035 18.749 11.6035 19.3163C11.6035 19.8837 12.2173 20.3436 12.9744 20.3436Z" stroke="#002140" stroke-width="0.6" stroke-linecap="round" stroke-linejoin="round"/>
<path d="M23.2132 28.4784C23.9703 28.4784 24.5841 28.0185 24.5841 27.4511C24.5841 26.8838 23.9703 26.4238 23.2132 26.4238C22.4561 26.4238 21.8423 26.8838 21.8423 27.4511C21.8423 28.0185 22.4561 28.4784 23.2132 28.4784Z" stroke="#002140" stroke-width="0.6" stroke-linecap="round" stroke-linejoin="round"/>
<path d="M29.2274 26.4745C29.9845 26.4745 30.5983 26.0146 30.5983 25.4472C30.5983 24.8799 29.9845 24.4199 29.2274 24.4199C28.4702 24.4199 27.8564 24.8799 27.8564 25.4472C27.8564 26.0146 28.4702 26.4745 29.2274 26.4745Z" stroke="#002140" stroke-width="0.6" stroke-linecap="round" stroke-linejoin="round"/>
<path d="M19.0789 18.2128C19.8361 18.2128 20.4498 17.7528 20.4498 17.1855C20.4498 16.6181 19.8361 16.1582 19.0789 16.1582C18.3218 16.1582 17.708 16.6181 17.708 17.1855C17.708 17.7528 18.3218 18.2128 19.0789 18.2128Z" stroke="#002140" stroke-width="0.6" stroke-linecap="round" stroke-linejoin="round"/>
<path d="M24.5042 24.5275C25.1914 23.4467 24.2137 21.5947 22.3205 20.3908C20.4272 19.187 18.3353 19.0873 17.6481 20.1681C16.9609 21.2488 17.9386 23.1009 19.8319 24.3047C21.7251 25.5085 23.817 25.6083 24.5042 24.5275Z" stroke="#002140" stroke-width="0.6" stroke-linecap="round" stroke-linejoin="round"/>
<path d="M20.3291 18.7674C20.3291 18.7674 21.0397 20.2247 25.8631 20.0753C30.6865 19.926 31.246 18.9905 31.246 18.6918C31.246 18.3932 29.0403 17.3839 26.124 17.4199C23.2077 17.4559 20.4406 17.7941 20.3291 18.7656V18.7674Z" fill="#FED607"/>
<path d="M20.7339 18.3213C21.2017 18.6505 21.8187 18.6829 22.3837 18.5983C22.9486 18.5138 23.4955 18.3249 24.064 18.2547C24.7207 18.1737 25.3845 18.2529 26.0448 18.2529C26.3111 18.2529 26.5881 18.2367 26.8256 18.1144C27.0631 17.992 27.2502 17.7366 27.216 17.4721C27.216 17.4721 25.2136 17.4001 23.688 17.5171C22.1606 17.634 20.7339 18.3195 20.7339 18.3195V18.3213Z" fill="#FFED8F"/>
<path d="M20.4048 19.0298V20.6382C20.4048 20.6382 22.4234 21.7231 26.0503 21.7231C29.6773 21.7231 31.2839 20.5644 31.2839 20.5644V18.9561C31.2839 18.9561 29.6018 20.228 25.8632 20.0769C22.1247 19.9258 20.8528 19.3285 20.4048 19.0298V19.0298Z" fill="#D18000"/>
<path d="M25.8251 20.0146C28.8398 20.0146 31.2836 19.4451 31.2836 18.7427C31.2836 18.0402 28.8398 17.4707 25.8251 17.4707C22.8105 17.4707 20.3667 18.0402 20.3667 18.7427C20.3667 19.4451 22.8105 20.0146 25.8251 20.0146Z" stroke="#002140" stroke-width="0.6" stroke-linecap="round" stroke-linejoin="round"/>
<path d="M20.3667 18.7422V20.4117C20.3667 21.1134 22.8099 21.6837 25.8251 21.6837C28.8404 21.6837 31.2836 21.1152 31.2836 20.4117V18.7422" stroke="#002140" stroke-width="0.6" stroke-linecap="round" stroke-linejoin="round"/>
<path d="M25.8505 19.118C27.0071 19.118 27.9446 18.9287 27.9446 18.6952C27.9446 18.4617 27.0071 18.2725 25.8505 18.2725C24.6939 18.2725 23.7563 18.4617 23.7563 18.6952C23.7563 18.9287 24.6939 19.118 25.8505 19.118Z" stroke="#D18000" stroke-width="0.6" stroke-miterlimit="10"/>
<path d="M8.50914 19.3252L7.73193 19.8631L9.52383 21.2952L10.418 20.6979L8.50914 19.3252Z" fill="#002140"/>
<path d="M30.775 21.0566L31.8491 22.012C31.8491 22.012 29.9384 22.6093 29.3411 22.6093L28.2671 21.6539L30.775 21.0566Z" fill="#002140"/>
</svg>
