<svg width="40" height="40" viewBox="0 0 40 40" fill="none" xmlns="http://www.w3.org/2000/svg">
<path d="M31.4176 17.808L31.3798 16.1004C31.3798 16.1004 30.7431 14.664 30.4308 14.6193C30.1184 14.5747 20.2574 11.127 20.2574 11.127C20.2574 11.127 19.3461 11.3552 19.0046 11.4307C18.663 11.5062 9.93122 14.5061 9.93122 14.5061C9.93122 14.5061 9.09545 14.8853 8.86891 15.8344C8.64238 16.7834 8.56515 18.0362 8.56515 18.0362C8.56515 18.0362 8.3369 18.2645 8.29915 18.7948C8.26139 19.3268 8.3369 30.0305 8.3369 30.0305C8.3369 30.0305 8.26139 30.6757 9.05769 30.7135C9.85571 30.7513 31.6063 30.7135 31.6063 30.7135C31.6063 30.7135 32.0234 30.372 32.0234 29.955C32.0234 29.5379 32.1744 18.3005 32.1744 18.3005C32.1744 18.3005 31.8329 17.7307 31.4158 17.8063L31.4176 17.808Z" fill="#FFFAF0"/>
<path d="M13.743 22.7593C13.743 22.7593 14.9769 17.894 14.323 17.9043C13.6692 17.9146 8.71634 17.9987 8.71634 17.9987C8.71634 17.9987 8.29932 18.112 8.29932 18.4535V18.795L13.7447 22.7576L13.743 22.7593Z" fill="#FFD7B0"/>
<path d="M24.9718 23.4565C25.1812 23.9079 32.1763 18.3029 32.1763 18.3029C32.1763 18.3029 31.9858 17.6954 31.4177 17.8086C30.8497 17.9219 27.8224 17.5718 26.9385 17.9219C26.0547 18.272 24.7624 23.0017 24.9718 23.4548V23.4565Z" fill="#FFD7B0"/>
<path d="M11.4158 19.5326L11.6509 21.1922L14.903 23.5776L25.2309 23.4661C25.2309 23.4661 28.0248 21.1355 28.2925 21.0961C28.5414 16.1621 31.1276 11.3328 31.1276 11.3328L30.7672 11.0462L28.9395 11.3534L27.8823 10.3529L26.2142 11.465L24.656 10.2414L22.7081 11.3534L21.5394 10.0732L19.5916 11.2419L18.8124 9.74023L16.9212 11.1303L15.308 9.79515C15.308 9.79515 11.4141 11.5748 11.4141 19.5309L11.4158 19.5326Z" fill="#CCF6FF"/>
<path d="M11.3162 18.2011C11.4819 18.2011 11.6162 18.0668 11.6162 17.9011C11.6162 17.7354 11.4819 17.6011 11.3162 17.6011V17.9011V18.2011ZM8.80717 17.9011L8.8056 18.2011H8.80717V17.9011ZM11.3162 17.9011V17.6011H8.80717V17.9011V18.2011H11.3162V17.9011ZM8.80717 17.9011L8.80874 17.6011C8.31374 17.5985 7.91338 18 7.91338 18.4932H8.21338H8.51338C8.51338 18.3308 8.64503 18.2003 8.8056 18.2011L8.80717 17.9011ZM8.21338 18.4932H7.91338V30.17H8.21338H8.51338V18.4932H8.21338ZM8.21338 30.17H7.91338C7.91338 30.6634 8.3137 31.0638 8.80717 31.0638V30.7638V30.4638C8.64507 30.4638 8.51338 30.3321 8.51338 30.17H8.21338ZM8.80717 30.7638V31.0638H31.5154V30.7638V30.4638H8.80717V30.7638ZM31.5154 30.7638V31.0638C32.0089 31.0638 32.4092 30.6634 32.4092 30.17H32.1092H31.8092C31.8092 30.3321 31.6775 30.4638 31.5154 30.4638V30.7638ZM32.1092 30.17H32.4092V18.4932H32.1092H31.8092V30.17H32.1092ZM32.1092 18.4932H32.4092C32.4092 17.9997 32.0089 17.5994 31.5154 17.5994V17.8994V18.1994C31.6775 18.1994 31.8092 18.3311 31.8092 18.4932H32.1092ZM31.5154 17.8994V17.5994H28.8554V17.8994V18.1994H31.5154V17.8994Z" fill="#002140"/>
<path d="M11.0298 30.5992C10.9549 30.747 11.014 30.9275 11.1618 31.0024C11.3096 31.0773 11.4901 31.0182 11.565 30.8704L11.2974 30.7348L11.0298 30.5992ZM11.2974 30.7348L11.565 30.8704L15.1329 23.829L14.8653 23.6934L14.5977 23.5578L11.0298 30.5992L11.2974 30.7348Z" fill="#002140"/>
<path d="M25.3097 23.4799C25.2387 23.3302 25.0598 23.2663 24.9101 23.3373C24.7604 23.4083 24.6965 23.5872 24.7675 23.7369L25.0386 23.6084L25.3097 23.4799ZM25.0386 23.6084L24.7675 23.7369L28.138 30.847L28.4091 30.7185L28.6802 30.5899L25.3097 23.4799L25.0386 23.6084Z" fill="#002140"/>
<path d="M30.0097 14.2217C29.8534 14.167 29.6822 14.2494 29.6275 14.4058C29.5728 14.5622 29.6552 14.7333 29.8115 14.788L29.9106 14.5049L30.0097 14.2217ZM30.1166 14.577L30.2167 14.2941L30.2157 14.2938L30.1166 14.577ZM31.3797 16.3206L31.0797 16.3232L31.0797 16.3234L31.3797 16.3206ZM29.9106 14.5049L29.8115 14.788L30.0175 14.8601L30.1166 14.577L30.2157 14.2938L30.0097 14.2217L29.9106 14.5049ZM30.1166 14.577L30.0165 14.8598C30.6527 15.0849 31.074 15.6704 31.0797 16.3232L31.3797 16.3206L31.6797 16.3179C31.6717 15.4056 31.0838 14.601 30.2167 14.2941L30.1166 14.577ZM31.3797 16.3206L31.0797 16.3234L31.0934 17.7736L31.3934 17.7707L31.6934 17.7679L31.6797 16.3177L31.3797 16.3206Z" fill="#002140"/>
<path d="M8.41631 17.7325C8.41631 17.8982 8.55062 18.0325 8.71631 18.0325C8.88199 18.0325 9.01631 17.8982 9.01631 17.7325H8.71631H8.41631ZM9.9897 14.4615L10.0878 14.745L10.0882 14.7449L9.9897 14.4615ZM8.71631 17.7325H9.01631V16.2257H8.71631H8.41631V17.7325H8.71631ZM8.71631 16.2257H9.01631C9.01631 15.5637 9.44206 14.9685 10.0878 14.745L9.9897 14.4615L9.89159 14.178C9.00995 14.4831 8.41631 15.3019 8.41631 16.2257H8.71631ZM9.9897 14.4615L10.0882 14.7449L12.4788 13.9142L12.3803 13.6309L12.2818 13.3475L9.89124 14.1781L9.9897 14.4615Z" fill="#002140"/>
<path d="M8.47252 18.6652C8.33724 18.5696 8.15003 18.6017 8.05437 18.737C7.95871 18.8723 7.99083 19.0595 8.12611 19.1551L8.29932 18.9102L8.47252 18.6652ZM14.9031 23.5799L14.7299 23.8248C14.7806 23.8606 14.8411 23.8799 14.9031 23.8799V23.5799ZM25.0782 23.5799V23.8799C25.1414 23.8799 25.2029 23.8599 25.2541 23.8229L25.0782 23.5799ZM8.29932 18.9102L8.12611 19.1551L14.7299 23.8248L14.9031 23.5799L15.0763 23.3349L8.47252 18.6652L8.29932 18.9102ZM14.9031 23.5799V23.8799H25.0782V23.5799V23.2799H14.9031V23.5799ZM25.0782 23.5799L25.2541 23.8229L32.2852 18.7362L32.1093 18.4932L31.9335 18.2501L24.9024 23.3368L25.0782 23.5799Z" fill="#002140"/>
<path d="M11.2087 21.245C11.2489 21.4058 11.4117 21.5035 11.5725 21.4633C11.7332 21.4231 11.8309 21.2603 11.7908 21.0995L11.4997 21.1723L11.2087 21.245ZM15.3388 9.57617L15.5758 9.39229C15.5223 9.32331 15.4414 9.28106 15.3542 9.27657C15.267 9.27208 15.1822 9.3058 15.1219 9.36892L15.3388 9.57617ZM16.6328 11.2443L16.3957 11.4282C16.4445 11.491 16.5162 11.5319 16.5952 11.5419C16.6741 11.5519 16.7538 11.5301 16.8166 11.4813L16.6328 11.2443ZM18.6767 9.65855L18.9363 9.50823C18.8929 9.43328 18.8193 9.38074 18.7343 9.36412C18.6493 9.3475 18.5612 9.36843 18.4928 9.42152L18.6767 9.65855ZM19.5948 11.2443L19.3352 11.3946C19.3773 11.4672 19.4478 11.5189 19.5297 11.5371C19.6116 11.5553 19.6973 11.5384 19.7662 11.4905L19.5948 11.2443ZM21.5135 9.90911L21.7333 9.70493C21.6316 9.59544 21.4648 9.5775 21.3422 9.66286L21.5135 9.90911ZM22.8367 11.3335L22.6169 11.5377C22.7195 11.6481 22.8881 11.6653 23.0109 11.5778L22.8367 11.3335ZM24.685 10.0155L24.8986 9.8049C24.7952 9.69995 24.6308 9.68569 24.5108 9.77125L24.685 10.0155ZM26.1128 11.4639L25.8992 11.6746C25.9979 11.7747 26.1529 11.7928 26.2721 11.7182L26.1128 11.4639ZM28.0658 10.2403L28.2815 10.0318C28.183 9.92992 28.0266 9.91086 27.9065 9.9861L28.0658 10.2403ZM29.3169 11.5343L29.1012 11.7428C29.1851 11.8296 29.3127 11.8576 29.4252 11.8141L29.3169 11.5343ZM31.3608 10.9079L31.6224 11.0549C31.679 10.9542 31.6727 10.83 31.6064 10.7355C31.54 10.641 31.4253 10.593 31.3114 10.612L31.3608 10.9079ZM11.4997 21.1723C11.7908 21.0995 11.7908 21.0996 11.7908 21.0997C11.7908 21.0998 11.7908 21.0998 11.7908 21.0998C11.7908 21.0999 11.7908 21.0998 11.7908 21.0996C11.7907 21.0993 11.7905 21.0986 11.7903 21.0976C11.7898 21.0955 11.7889 21.092 11.7878 21.087C11.7855 21.0772 11.782 21.0617 11.7775 21.0407C11.7686 20.9989 11.7558 20.9353 11.7411 20.8516C11.7119 20.6841 11.6752 20.4361 11.6474 20.1201C11.5916 19.4878 11.5711 18.5847 11.7139 17.5098C11.999 15.3628 12.9356 12.5256 15.5557 9.78342L15.3388 9.57617L15.1219 9.36892C12.4013 12.2163 11.4184 15.1772 11.1191 17.4308C10.9697 18.5562 10.9908 19.5041 11.0497 20.1728C11.0792 20.5072 11.1181 20.7721 11.1501 20.9549C11.1661 21.0464 11.1803 21.1173 11.1908 21.1662C11.196 21.1906 11.2003 21.2095 11.2033 21.2227C11.2049 21.2293 11.2061 21.2345 11.207 21.2382C11.2075 21.2401 11.2078 21.2416 11.2081 21.2427C11.2082 21.2433 11.2084 21.2438 11.2085 21.2442C11.2085 21.2444 11.2086 21.2446 11.2086 21.2447C11.2086 21.2449 11.2087 21.245 11.4997 21.1723ZM15.3388 9.57617L15.1017 9.76005L16.3957 11.4282L16.6328 11.2443L16.8698 11.0604L15.5758 9.39229L15.3388 9.57617ZM16.6328 11.2443L16.8166 11.4813L18.8606 9.89558L18.6767 9.65855L18.4928 9.42152L16.4489 11.0073L16.6328 11.2443ZM18.6767 9.65855L18.4171 9.80887L19.3352 11.3946L19.5948 11.2443L19.8545 11.094L18.9363 9.50823L18.6767 9.65855ZM19.5948 11.2443L19.7662 11.4905L21.6849 10.1554L21.5135 9.90911L21.3422 9.66286L19.4235 10.998L19.5948 11.2443ZM21.5135 9.90911L21.2937 10.1133L22.6169 11.5377L22.8367 11.3335L23.0565 11.1293L21.7333 9.70493L21.5135 9.90911ZM22.8367 11.3335L23.0109 11.5778L24.8592 10.2598L24.685 10.0155L24.5108 9.77125L22.6625 11.0893L22.8367 11.3335ZM24.685 10.0155L24.4713 10.2261L25.8992 11.6746L26.1128 11.4639L26.3265 11.2533L24.8986 9.8049L24.685 10.0155ZM26.1128 11.4639L26.2721 11.7182L28.2251 10.4945L28.0658 10.2403L27.9065 9.9861L25.9536 11.2097L26.1128 11.4639ZM28.0658 10.2403L27.8501 10.4489L29.1012 11.7428L29.3169 11.5343L29.5326 11.3258L28.2815 10.0318L28.0658 10.2403ZM29.3169 11.5343C29.4252 11.8141 29.4252 11.8141 29.4252 11.8141C29.4252 11.8141 29.4252 11.8141 29.4252 11.8141C29.4253 11.8141 29.4253 11.814 29.4254 11.814C29.4255 11.814 29.4257 11.8139 29.4259 11.8138C29.4265 11.8136 29.4273 11.8133 29.4285 11.8128C29.4308 11.8119 29.4343 11.8106 29.4389 11.8088C29.4482 11.8052 29.4621 11.7999 29.4802 11.7931C29.5162 11.7795 29.5688 11.7597 29.6344 11.7356C29.7656 11.6873 29.9482 11.6217 30.1536 11.5523C30.5702 11.4116 31.0612 11.2621 31.4103 11.2038L31.3608 10.9079L31.3114 10.612C30.9105 10.679 30.3795 10.8427 29.9616 10.9839C29.7499 11.0554 29.5621 11.1229 29.4272 11.1725C29.3597 11.1973 29.3054 11.2177 29.2678 11.232C29.249 11.2391 29.2343 11.2447 29.2243 11.2485C29.2193 11.2504 29.2154 11.2519 29.2128 11.2529C29.2115 11.2534 29.2105 11.2538 29.2097 11.2541C29.2094 11.2542 29.2091 11.2543 29.2089 11.2544C29.2088 11.2545 29.2087 11.2545 29.2087 11.2545C29.2087 11.2545 29.2086 11.2545 29.2086 11.2545C29.2086 11.2545 29.2086 11.2546 29.3169 11.5343ZM31.3608 10.9079L31.0993 10.761C29.662 13.3191 28.8867 15.8968 28.4704 17.8326C28.262 18.8012 28.1432 19.611 28.0764 20.1798C28.043 20.4642 28.0225 20.6885 28.0104 20.8425C28.0044 20.9195 28.0004 20.9789 27.9979 21.0195C27.9967 21.0398 27.9958 21.0553 27.9952 21.066C27.995 21.0714 27.9947 21.0755 27.9946 21.0784C27.9945 21.0799 27.9945 21.081 27.9944 21.0818C27.9944 21.0822 27.9944 21.0826 27.9944 21.0828C27.9944 21.0829 27.9944 21.0831 27.9944 21.0831C27.9944 21.0833 27.9944 21.0834 28.2941 21.0968C28.5938 21.1102 28.5938 21.1102 28.5938 21.1103C28.5938 21.1102 28.5938 21.1103 28.5938 21.1102C28.5938 21.1102 28.5938 21.11 28.5938 21.1098C28.5938 21.1094 28.5938 21.1087 28.5939 21.1076C28.594 21.1055 28.5942 21.1022 28.5944 21.0977C28.5949 21.0886 28.5956 21.0747 28.5968 21.0561C28.5991 21.0189 28.6028 20.963 28.6086 20.8896C28.6201 20.7427 28.6398 20.5261 28.6723 20.2498C28.7372 19.6971 28.8532 18.9063 29.0569 17.9588C29.4648 16.0624 30.2229 13.5457 31.6224 11.0549L31.3608 10.9079Z" fill="#002140"/>
<path d="M26.7822 17.9955L22.7434 19.4542C22.7434 19.4542 22.2499 18.5342 23.1025 17.8165C23.1025 17.8165 20.9931 17.076 19.3331 17.8165C17.6725 18.557 16.7302 19.4319 15.4739 21.7432L15.0027 17.8165C15.0027 17.8165 17.2014 13.9573 21.7341 14.9671L23.3272 15.4834C23.3272 15.4834 22.9458 14.3615 23.7086 13.868L26.7827 17.9965L26.7822 17.9955Z" fill="#03D47C"/>
<path d="M23.2979 15.4778C23.2979 15.4778 18.0783 12.9201 15.0012 17.8337L15.4592 21.8223C15.4592 21.8223 17.7608 16.0332 23.0965 17.851" fill="#03D47C"/>
<path d="M23.2979 15.4778C23.2979 15.4778 18.0783 12.9201 15.0012 17.8337L15.4592 21.8223C15.4592 21.8223 17.7608 16.0332 23.0965 17.851" stroke="#002140" stroke-width="0.6" stroke-linecap="round" stroke-linejoin="round"/>
<path d="M23.0967 17.8506C23.0967 17.8506 22.2603 18.5013 22.7427 19.5Z" fill="#03D47C"/>
<path d="M23.0967 17.8506C23.0967 17.8506 22.2603 18.5013 22.7427 19.5" stroke="#002140" stroke-width="0.6" stroke-linecap="round" stroke-linejoin="round"/>
<path d="M23.7026 13.8457C23.7026 13.8457 22.8663 14.4178 23.3486 15.4951Z" fill="#03D47C"/>
<path d="M23.7026 13.8457C23.7026 13.8457 22.8663 14.4178 23.3486 15.4951" stroke="#002140" stroke-width="0.6" stroke-linecap="round" stroke-linejoin="round"/>
<path d="M22.7426 19.5L26.8823 17.9855L23.7027 13.8458" fill="#03D47C"/>
<path d="M22.7426 19.5L26.8823 17.9855L23.7027 13.8458" stroke="#002140" stroke-width="0.6" stroke-linecap="round" stroke-linejoin="round"/>
</svg>
