<svg width="40" height="40" viewBox="0 0 40 40" fill="none" xmlns="http://www.w3.org/2000/svg">
<rect x="6.48359" y="10.6955" width="24.1277" height="8.23131" rx="2.7" fill="#FFFAF0" stroke="#002140" stroke-width="0.6"/>
<rect x="15.604" y="12.75" width="8.24256" height="1.12047" fill="#002140"/>
<rect x="15.604" y="15.6943" width="12.3638" height="1.12047" fill="#002140"/>
<path fill-rule="evenodd" clip-rule="evenodd" d="M13.3573 12.3366C13.656 12.5572 13.7193 12.9781 13.4987 13.2768L10.5732 17.2384L8.47089 15.3184C8.19672 15.0681 8.17744 14.6428 8.42781 14.3687C8.67819 14.0945 9.10342 14.0752 9.37758 14.3256L10.3781 15.2393L12.4171 12.478C12.6377 12.1794 13.0586 12.116 13.3573 12.3366Z" fill="#03D47C"/>
<rect x="9.91768" y="20.9992" width="24.1277" height="8.23131" rx="2.7" fill="#FFFAF0" stroke="#002140" stroke-width="0.6"/>
<rect x="19.0381" y="23.0537" width="8.24256" height="1.12047" fill="#002140"/>
<rect x="19.0381" y="25.998" width="12.3638" height="1.12047" fill="#002140"/>
<path fill-rule="evenodd" clip-rule="evenodd" d="M16.7914 22.6403C17.09 22.8609 17.1534 23.2818 16.9328 23.5805L14.0073 27.5421L11.905 25.6222C11.6308 25.3718 11.6115 24.9466 11.8619 24.6724C12.1123 24.3982 12.5375 24.3789 12.8117 24.6293L13.8121 25.543L15.8512 22.7818C16.0718 22.4831 16.4927 22.4197 16.7914 22.6403Z" fill="#03D47C"/>
</svg>
