<svg width="40" height="40" viewBox="0 0 40 40" fill="none" xmlns="http://www.w3.org/2000/svg">
<path d="M24.7751 22.4902C24.6011 22.7453 24.2385 22.8229 23.9433 22.7316C23.648 22.6403 23.4134 22.4125 23.2325 22.1608C23.16 22.0601 23.0952 21.9552 23.0372 21.8468C22.5858 20.9979 22.5798 19.9348 22.8853 19.0117C22.9228 18.899 22.9663 18.7856 23.0175 18.6746C23.2394 18.196 23.5934 17.7685 24.0968 17.6602C24.4176 17.5911 24.8041 17.6994 24.9449 17.9955L24.9594 18.0057C25.0319 17.9008 25.1104 17.801 25.1915 17.7028C25.5362 17.2865 25.9756 16.9861 26.4286 16.6926C26.8825 16.3983 27.3365 16.0579 27.5694 15.5707C27.7503 15.1936 27.7801 14.7653 27.839 14.3515C27.8885 14.0008 27.961 13.6501 28.1095 13.3285C28.2579 13.0077 28.4883 12.7159 28.7971 12.5427C29.0514 12.4002 29.3492 12.3447 29.6401 12.3626C29.9566 12.3823 30.28 12.4974 30.4882 12.7372C30.6307 12.901 30.7092 13.1109 30.7586 13.3225C30.9318 14.0571 30.7791 14.8318 30.5326 15.5459C30.3935 15.9504 30.2083 16.3642 29.8679 16.6227H29.8688C30.2979 16.4179 31.355 16.3258 31.8303 16.3479C32.1596 16.3642 32.4983 16.3761 32.8038 16.4998C33.5469 16.8036 33.8421 17.2677 33.9343 17.8863C34.0085 18.3845 33.6203 19.0082 33.1476 19.1814L33.1331 19.2258C33.3072 19.2813 33.471 19.3615 33.6152 19.4775C33.9317 19.7309 34.1134 20.1404 34.1007 20.5449C34.087 20.9501 33.8822 21.3426 33.5631 21.5926C33.3251 21.7786 33.0376 21.8827 32.7406 21.9458L32.7475 21.9799C33.3268 22.2197 33.6203 22.7649 33.5683 23.1352C33.5162 23.5046 33.2799 23.8305 32.9812 24.0549C32.6835 24.2802 32.3268 24.4133 31.9676 24.5157C30.9557 24.8023 29.92 24.8928 28.8697 24.8382C28.2255 24.8058 27.548 24.6957 26.9397 24.4815C26.3322 24.2674 25.6676 23.8834 25.2922 23.3596C25.0507 23.0226 24.9168 22.7572 24.8238 22.474L24.7751 22.4902Z" fill="#E5FAFE"/>
<path d="M22.5758 21.8541V25.5945C22.5758 26.1602 22.1125 26.6235 21.5469 26.6235H7.44937C6.8837 26.6235 6.42041 26.1602 6.42041 25.5945V14.5182C6.42041 13.9525 6.8837 13.4893 7.44937 13.4893H21.5469C22.1125 13.4893 22.5758 13.9525 22.5758 14.5182V18.646H20.8984V15.5318C20.8984 15.3322 20.7346 15.1692 20.535 15.1692H8.46042C8.26077 15.1692 8.09781 15.3322 8.09781 15.5318V24.5809C8.09781 24.7806 8.26077 24.9435 8.46042 24.9435H20.535C20.7346 24.9435 20.8984 24.7806 20.8984 24.5809V21.8541H22.5758Z" fill="#50EEF6"/>
<path d="M29.0152 26.6299L28.6065 28.4506H25.1663L25.145 28.4378C25.366 28.0701 25.6723 27.7322 26.098 27.5104C25.674 27.2826 25.3669 26.9788 25.145 26.6512L25.1962 26.6299H29.0152Z" fill="#4ED7DE"/>
<path d="M26.424 12.4823C24.9513 13.2493 24.901 15.4079 24.901 15.4079H24.8788C24.8788 15.4079 24.8285 13.2493 23.355 12.4823C24.7832 11.717 24.8814 10.078 24.8814 9.64453H24.8984C24.8984 10.0788 24.9965 11.717 26.424 12.4823Z" fill="#FCDCFF"/>
<path d="M23.0373 21.8469L22.9383 21.8545H8.09766V18.6465H22.911L23.0176 18.6746C22.9664 18.7856 22.9229 18.899 22.8854 19.0117C22.5799 19.9348 22.5859 20.9979 23.0373 21.8469Z" fill="#99F6FF"/>
<path d="M20.8983 21.8997V24.5813C20.8983 24.781 20.7345 24.9439 20.5348 24.9439H8.46027C8.26062 24.9439 8.09766 24.781 8.09766 24.5813V21.8545H20.8983V21.8997Z" fill="#002140"/>
<path d="M25.1446 26.6513C25.3665 26.9789 25.6736 27.2827 26.0977 27.5105C25.6719 27.7323 25.3656 28.0702 25.1446 28.4379C24.5994 29.344 24.5738 30.4361 24.5738 30.4361H24.5517C24.5517 30.4361 24.5261 29.3449 23.9817 28.4388C23.7607 28.0702 23.4536 27.7323 23.0278 27.5105C23.4519 27.2827 23.759 26.9789 23.9809 26.6513C24.5064 25.8775 24.5542 24.9756 24.5542 24.6719H24.5713C24.5713 24.9756 24.6191 25.8775 25.1446 26.6513Z" fill="#FCDCFF"/>
<path d="M21.5469 26.6308H23.9017L23.981 26.6522C23.7592 26.9798 23.4521 27.2836 23.028 27.5114C23.4538 27.7332 23.7609 28.0711 23.9819 28.4396L23.9614 28.4516H7.84696L7.82648 28.391L7.30176 26.6556V26.624H21.5469V26.6308Z" fill="#4ED7DE"/>
<path d="M33.8721 15.4296C35.3003 14.6634 35.3985 13.0252 35.3985 12.5918H35.4155C35.4155 13.0261 35.5136 14.6642 36.941 15.4296C35.4684 16.1966 35.4181 18.3552 35.4181 18.3552H35.3959C35.3959 18.3552 35.3447 16.1966 33.8721 15.4296Z" fill="#FCDCFF"/>
<path d="M6.42035 25.5945C6.42035 26.1602 6.88364 26.6235 7.44932 26.6235H5.71305C5.14737 26.6235 4.68408 26.1602 4.68408 25.5945V14.5182C4.68408 13.9525 5.14737 13.4893 5.71305 13.4893H7.44932C6.88364 13.4893 6.42035 13.9525 6.42035 14.5182V25.5945Z" fill="#4ED7DE"/>
<path d="M20.8983 18.6057V18.6458H8.09766V15.5316C8.09766 15.3319 8.26062 15.1689 8.46027 15.1689H20.5348C20.7345 15.1689 20.8983 15.3319 20.8983 15.5316V18.6057Z" fill="#002140"/>
<path d="M7.66504 13.4893H21.5467C22.1123 13.4893 22.5756 13.9525 22.5756 14.5182V18.6059" stroke="#002140" stroke-width="0.6" stroke-linecap="round" stroke-linejoin="round"/>
<path d="M7.44937 26.6235C6.8837 26.6235 6.42041 26.1602 6.42041 25.5945V14.5182C6.42041 13.9525 6.8837 13.4893 7.44937 13.4893" stroke="#002140" stroke-width="0.6" stroke-linecap="round" stroke-linejoin="round"/>
<path d="M22.5757 21.8535V25.594C22.5757 26.1596 22.1124 26.6229 21.5468 26.6229H7.4834" stroke="#002140" stroke-width="0.6" stroke-linecap="round" stroke-linejoin="round"/>
<path d="M7.48344 26.6235H5.71305C5.14737 26.6235 4.68408 26.1602 4.68408 25.5945V14.5182C4.68408 13.9525 5.14737 13.4893 5.71305 13.4893H7.66518" stroke="#002140" stroke-width="0.6" stroke-linecap="round" stroke-linejoin="round"/>
<path d="M23.9019 26.6299H21.547H20.9199" stroke="#002140" stroke-width="0.6" stroke-linecap="round" stroke-linejoin="round"/>
<path d="M25.166 28.4506H28.6061L29.0148 26.6299H25.1959" stroke="#002140" stroke-width="0.6" stroke-linecap="round" stroke-linejoin="round"/>
<path d="M7.84668 28.4512H23.9611" stroke="#002140" stroke-width="0.6" stroke-linecap="round" stroke-linejoin="round"/>
<path d="M7.30176 26.6553L7.82648 28.3907" stroke="#002140" stroke-width="0.6" stroke-linecap="round" stroke-linejoin="round"/>
<path d="M20.8983 21.899V24.5806C20.8983 24.7803 20.7345 24.9433 20.5348 24.9433H8.46027C8.26062 24.9433 8.09766 24.7803 8.09766 24.5806V15.5316C8.09766 15.3319 8.26062 15.1689 8.46027 15.1689H20.5348C20.7345 15.1689 20.8983 15.3319 20.8983 15.5316V18.6057" stroke="#002140" stroke-width="0.6" stroke-linecap="round" stroke-linejoin="round"/>
<path d="M8.18555 21.8535H20.8983H22.5757H22.9383" stroke="#002140" stroke-width="0.6" stroke-linecap="round" stroke-linejoin="round"/>
<path d="M8.14893 18.6455H20.8984H22.5758H22.9111" stroke="#002140" stroke-width="0.6" stroke-linecap="round" stroke-linejoin="round"/>
<path d="M24.9449 17.9951C24.8041 17.699 24.4176 17.5906 24.0968 17.6598C23.5934 17.7681 23.2394 18.1956 23.0175 18.6742C22.9663 18.7851 22.9228 18.8986 22.8853 19.0112C22.5798 19.9344 22.5858 20.9975 23.0372 21.8464C23.0952 21.9548 23.16 22.0597 23.2325 22.1604C23.4134 22.4121 23.648 22.6399 23.9433 22.7312C24.2385 22.8225 24.6011 22.7449 24.7751 22.4897" stroke="#002140" stroke-width="0.6" stroke-linecap="round" stroke-linejoin="round"/>
<path d="M29.856 16.6311C29.8602 16.6277 29.8645 16.6251 29.8679 16.6217C30.2084 16.3632 30.3935 15.9494 30.5326 15.545C30.7791 14.8308 30.9319 14.0561 30.7587 13.3215C30.7092 13.1099 30.6307 12.9 30.4882 12.7362C30.28 12.4965 29.9567 12.3813 29.6401 12.3617C29.3492 12.3437 29.0514 12.3992 28.7972 12.5417C28.4883 12.7149 28.2579 13.0067 28.1095 13.3275C27.961 13.6491 27.8885 13.9998 27.839 14.3505C27.7801 14.7643 27.7503 15.1926 27.5694 15.5697C27.3365 16.0569 26.8826 16.3973 26.4287 16.6917C25.9756 16.9852 25.5362 17.2855 25.1915 17.7019C25.1105 17.8 25.032 17.8998 24.9594 18.0047C24.6881 18.3904 24.4842 18.84 24.4526 19.5004" stroke="#002140" stroke-width="0.6" stroke-linecap="round" stroke-linejoin="round"/>
<path d="M29.8691 16.6226C30.2983 16.4169 31.3554 16.3248 31.8307 16.347C32.16 16.3632 32.4987 16.3751 32.8042 16.4988C33.5473 16.8026 33.8425 17.2667 33.9347 17.8853C34.0089 18.3836 33.6207 19.0073 33.148 19.1805" stroke="#002140" stroke-width="0.6" stroke-linecap="round" stroke-linejoin="round"/>
<path d="M30.6294 19.3204C30.9937 19.2043 31.6251 19.1148 32.0082 19.1088C32.3844 19.1028 32.7812 19.1122 33.1335 19.2248C33.3076 19.2803 33.4714 19.3605 33.6156 19.4765C33.9321 19.7299 34.1139 20.1395 34.1011 20.5439C34.0874 20.9491 33.8827 21.3416 33.5636 21.5916C33.3255 21.7776 33.038 21.8817 32.7411 21.9448C32.6293 21.9687 32.5167 21.9866 32.4041 22.0011C31.8785 22.0686 31.3435 22.0668 30.818 21.9969" stroke="#002140" stroke-width="0.6" stroke-linecap="round" stroke-linejoin="round"/>
<path d="M24.5928 21.4199C24.6747 21.8593 24.7267 22.1767 24.824 22.4736C24.917 22.7569 25.0509 23.0222 25.2924 23.3593C25.6678 23.8831 26.3325 24.2671 26.9399 24.4812C27.5483 24.6954 28.2257 24.8054 28.8699 24.8379C29.9202 24.8925 30.956 24.802 31.9679 24.5153C32.3271 24.413 32.6837 24.2799 32.9815 24.0546C33.2801 23.8302 33.5164 23.5043 33.5685 23.1349C33.6205 22.7646 33.327 22.2194 32.7477 21.9796" stroke="#002140" stroke-width="0.6" stroke-linecap="round" stroke-linejoin="round"/>
<path d="M24.8788 9.53711C24.8788 9.53711 24.8814 9.5755 24.8814 9.64461C24.8814 10.078 24.7832 11.717 23.355 12.4824C24.8285 13.2494 24.8788 15.408 24.8788 15.408" stroke="#002140" stroke-width="0.6" stroke-linecap="round" stroke-linejoin="round"/>
<path d="M24.901 9.53711C24.901 9.53711 24.8984 9.5755 24.8984 9.64461C24.8984 10.0789 24.9966 11.717 26.424 12.4824C24.9513 13.2494 24.901 15.408 24.901 15.408" stroke="#002140" stroke-width="0.6" stroke-linecap="round" stroke-linejoin="round"/>
<path d="M24.5517 24.5654C24.5517 24.5654 24.5542 24.6038 24.5542 24.6721C24.5542 24.9758 24.5064 25.8777 23.9809 26.6515C23.759 26.9791 23.4519 27.2829 23.0278 27.5107C23.4536 27.7325 23.7607 28.0704 23.9817 28.439C24.5261 29.3451 24.5517 30.4363 24.5517 30.4363" stroke="#002140" stroke-width="0.6" stroke-linecap="round" stroke-linejoin="round"/>
<path d="M24.5738 24.5654C24.5738 24.5654 24.5713 24.6038 24.5713 24.6721C24.5713 24.9758 24.6191 25.8777 25.1446 26.6515C25.3665 26.9791 25.6736 27.2829 26.0977 27.5107C25.6719 27.7325 25.3656 28.0704 25.1446 28.4381C24.5994 29.3442 24.5738 30.4363 24.5738 30.4363" stroke="#002140" stroke-width="0.6" stroke-linecap="round" stroke-linejoin="round"/>
<path d="M35.3959 12.4844C35.3959 12.4844 35.3985 12.5228 35.3985 12.5919C35.3985 13.0253 35.3003 14.6635 33.8721 15.4296C35.3447 16.1967 35.3959 18.3553 35.3959 18.3553" stroke="#002140" stroke-width="0.6" stroke-linecap="round" stroke-linejoin="round"/>
<path d="M35.4181 12.4844C35.4181 12.4844 35.4155 12.5228 35.4155 12.5919C35.4155 13.0262 35.5136 14.6643 36.9411 15.4296C35.4684 16.1967 35.4181 18.3553 35.4181 18.3553" stroke="#002140" stroke-width="0.6" stroke-linecap="round" stroke-linejoin="round"/>
</svg>
