<svg xmlns="http://www.w3.org/2000/svg" id="Layer_1" data-name="Layer 1" version="1.1" viewBox="0 0 40 40"><defs><style>.cls-1,.cls-2{fill:#000;stroke-width:0}.cls-2{fill:#00d639}</style></defs><rect width="40" height="40" class="cls-1"/><path d="M9.094,12.5c1.752,0,3.176,1.212,3.209,2.898.016.475-.327.737-.704.737-.36,0-.671-.262-.688-.704-.016-.95-.819-1.654-1.834-1.654-.95,0-1.67.671-1.67,1.588,0,.999.671,1.441,2.063,1.948,1.49.54,2.849,1.179,2.849,3.078,0,1.654-1.294,2.98-3.094,2.98-1.768,0-3.225-1.244-3.225-2.931,0-1.048.508-1.785.999-1.785.426,0,.688.278.688.655,0,.327-.278.475-.278,1.064,0,1.048.851,1.719,1.817,1.719,1.015,0,1.686-.704,1.686-1.555,0-1.048-.671-1.49-2.063-1.981-1.555-.556-2.849-1.228-2.849-3.077,0-1.67,1.342-2.98,3.094-2.98Z" class="cls-2"/><path d="M16.239,23.371c-1.768,0-3.241-1.424-3.241-3.225,0-1.866,1.49-3.258,3.291-3.258,1.932,0,3.291,1.441,3.291,3.406v2.39c0,.409-.327.688-.704.688-.393,0-.72-.278-.72-.688v-2.341c0-1.294-.737-2.178-1.899-2.178-1.031,0-1.85.868-1.85,1.981,0,1.031.802,1.915,1.818,1.915.377,0,.54-.098.77-.098.311,0,.638.262.638.638,0,.507-.606.77-1.392.77Z" class="cls-2"/><path d="M23.613,28.25c-1.834,0-3.356-1.31-3.356-3.013,0-.573.327-.835.704-.835s.688.246.704.72c.016,1.064.868,1.85,1.932,1.85,1.13,0,1.866-.72,1.866-1.654,0-1.064-.818-1.506-2.21-1.948-1.621-.524-2.996-1.244-2.996-3.242,0-1.834,1.408-3.242,3.242-3.242,1.85,0,3.373,1.342,3.373,3.111,0,1.081-.442,1.916-1.048,1.916-.409,0-.688-.295-.688-.655,0-.377.327-.54.327-1.212,0-1.13-.884-1.883-1.948-1.883-1.031,0-1.85.786-1.85,1.817,0,1.162.835,1.654,2.21,2.112,1.588.524,2.996,1.179,2.996,3.094,0,1.719-1.359,3.061-3.258,3.061Z" class="cls-2"/><path d="M30.889,23.371c-1.834,0-3.34-1.441-3.34-3.241s1.457-3.242,3.258-3.242c1.818,0,3.193,1.261,3.193,2.865,0,.622-.442.999-1.162.999h-1.883c-.377,0-.655-.262-.655-.606,0-.327.278-.59.655-.59h1.408c.131,0,.229-.066.229-.196,0-.475-.606-1.212-1.736-1.212-1.048,0-1.899.9-1.899,1.981,0,1.097.868,1.965,1.948,1.965,1.244,0,1.654-.737,2.161-.737.426,0,.655.278.655.59,0,.295-.196.557-.688.868-.492.311-1.228.556-2.145.556Z" class="cls-2"/></svg>